<?xml version="1.0" encoding="UTF-8" standalone="no"?>
<svg width="4209.44px" height="2976.38px" viewBox="0 0 4209.44 2976.38"
 xmlns="http://www.w3.org/2000/svg" xmlns:xlink="http://www.w3.org/1999/xlink" version="1.2" baseProfile="tiny">
<title>Cordes (28)</title>
<desc>Generated by MuseScore 3.6.2</desc>
<polyline class="StaffLines" fill="none" stroke="#000000" stroke-width="6.55" stroke-linejoin="bevel" points="153.819,566.759 4138.58,566.759"/>
<polyline class="StaffLines" fill="none" stroke="#000000" stroke-width="6.55" stroke-linejoin="bevel" points="153.819,656.05 4138.58,656.05"/>
<polyline class="StaffLines" fill="none" stroke="#000000" stroke-width="6.55" stroke-linejoin="bevel" points="153.819,745.342 4138.58,745.342"/>
<polyline class="StaffLines" fill="none" stroke="#000000" stroke-width="6.55" stroke-linejoin="bevel" points="153.819,834.633 4138.58,834.633"/>
<polyline class="StaffLines" fill="none" stroke="#000000" stroke-width="6.55" stroke-linejoin="bevel" points="153.819,923.924 4138.58,923.924"/>
<polyline class="StaffLines" fill="none" stroke="#000000" stroke-width="6.55" stroke-linejoin="bevel" points="153.819,1013.22 4138.58,1013.22"/>
<polyline class="StaffLines" fill="none" stroke="#000000" stroke-width="6.55" stroke-linejoin="bevel" points="153.819,1400.14 4138.58,1400.14"/>
<polyline class="StaffLines" fill="none" stroke="#000000" stroke-width="6.55" stroke-linejoin="bevel" points="153.819,1459.67 4138.58,1459.67"/>
<polyline class="StaffLines" fill="none" stroke="#000000" stroke-width="6.55" stroke-linejoin="bevel" points="153.819,1519.2 4138.58,1519.2"/>
<polyline class="StaffLines" fill="none" stroke="#000000" stroke-width="6.55" stroke-linejoin="bevel" points="153.819,1578.73 4138.58,1578.73"/>
<polyline class="StaffLines" fill="none" stroke="#000000" stroke-width="6.55" stroke-linejoin="bevel" points="153.819,1638.26 4138.58,1638.26"/>
<polyline class="StaffLines" fill="none" stroke="#000000" stroke-width="6.55" stroke-linejoin="bevel" points="153.819,2196.22 4138.58,2196.22"/>
<polyline class="StaffLines" fill="none" stroke="#000000" stroke-width="6.55" stroke-linejoin="bevel" points="153.819,2255.75 4138.58,2255.75"/>
<polyline class="StaffLines" fill="none" stroke="#000000" stroke-width="6.55" stroke-linejoin="bevel" points="153.819,2315.27 4138.58,2315.27"/>
<polyline class="StaffLines" fill="none" stroke="#000000" stroke-width="6.55" stroke-linejoin="bevel" points="153.819,2374.8 4138.58,2374.8"/>
<polyline class="StaffLines" fill="none" stroke="#000000" stroke-width="6.55" stroke-linejoin="bevel" points="153.819,2434.33 4138.58,2434.33"/>
<path class="Symbol" transform="matrix(2.3811,0,0,2.3811,513.384,1489.44)" d="M0,-0.1 C0,7.7 4,14 10.4,18.1 L10.9,17.4 C7.5,14.8 6.3,13.3 5.2,10.1 C4.2,7.2 3.7,4 3.7,-0.2 C3.7,-8.1 4.8,-12.3 10.9,-17.4 L10.5,-18.1 C3.9,-13.6 0,-8.5 0,-0.1"/>
<path class="Symbol" transform="matrix(2.3811,0,0,2.3811,628.142,1489.44)" d="M3.7,-0.2 C3.7,4 3.2,7.2 2.2,10.1 C1,13.3 -0.2,14.8 -3.6,17.4 L-3,18.1 C3.4,14.1 7.3,7.6 7.3,-0.1 C7.3,-8.4 3.4,-13.8 -3.2,-18.1 L-3.6,-17.4 C2.6,-12.4 3.7,-8.1 3.7,-0.2"/>
<path class="Symbol" transform="matrix(2.3811,0,0,2.3811,1754.68,1489.44)" d="M0,-0.1 C0,7.7 4,14 10.4,18.1 L10.9,17.4 C7.5,14.8 6.3,13.3 5.2,10.1 C4.2,7.2 3.7,4 3.7,-0.2 C3.7,-8.1 4.8,-12.3 10.9,-17.4 L10.5,-18.1 C3.9,-13.6 0,-8.5 0,-0.1"/>
<path class="Symbol" transform="matrix(2.3811,0,0,2.3811,1869.44,1489.44)" d="M3.7,-0.2 C3.7,4 3.2,7.2 2.2,10.1 C1,13.3 -0.2,14.8 -3.6,17.4 L-3,18.1 C3.4,14.1 7.3,7.6 7.3,-0.1 C7.3,-8.4 3.4,-13.8 -3.2,-18.1 L-3.6,-17.4 C2.6,-12.4 3.7,-8.1 3.7,-0.2"/>
<path class="Symbol" transform="matrix(2.3811,0,0,2.3811,2960.68,1489.44)" d="M0,-0.1 C0,7.7 4,14 10.4,18.1 L10.9,17.4 C7.5,14.8 6.3,13.3 5.2,10.1 C4.2,7.2 3.7,4 3.7,-0.2 C3.7,-8.1 4.8,-12.3 10.9,-17.4 L10.5,-18.1 C3.9,-13.6 0,-8.5 0,-0.1"/>
<path class="Symbol" transform="matrix(2.3811,0,0,2.3811,3075.44,1489.44)" d="M3.7,-0.2 C3.7,4 3.2,7.2 2.2,10.1 C1,13.3 -0.2,14.8 -3.6,17.4 L-3,18.1 C3.4,14.1 7.3,7.6 7.3,-0.1 C7.3,-8.4 3.4,-13.8 -3.2,-18.1 L-3.6,-17.4 C2.6,-12.4 3.7,-8.1 3.7,-0.2"/>
<path class="Symbol" transform="matrix(2.3811,0,0,2.3811,513.654,507.232)" d="M0,-0.1 C0,7.7 4,14 10.4,18.1 L10.9,17.4 C7.5,14.8 6.3,13.3 5.2,10.1 C4.2,7.2 3.7,4 3.7,-0.2 C3.7,-8.1 4.8,-12.3 10.9,-17.4 L10.5,-18.1 C3.9,-13.6 0,-8.5 0,-0.1"/>
<path class="Symbol" transform="matrix(2.3811,0,0,2.3811,639.796,507.232)" d="M3.7,-0.2 C3.7,4 3.2,7.2 2.2,10.1 C1,13.3 -0.2,14.8 -3.6,17.4 L-3,18.1 C3.4,14.1 7.3,7.6 7.3,-0.1 C7.3,-8.4 3.4,-13.8 -3.2,-18.1 L-3.6,-17.4 C2.6,-12.4 3.7,-8.1 3.7,-0.2"/>
<path class="Symbol" transform="matrix(2.3811,0,0,2.3811,1754.95,507.232)" d="M0,-0.1 C0,7.7 4,14 10.4,18.1 L10.9,17.4 C7.5,14.8 6.3,13.3 5.2,10.1 C4.2,7.2 3.7,4 3.7,-0.2 C3.7,-8.1 4.8,-12.3 10.9,-17.4 L10.5,-18.1 C3.9,-13.6 0,-8.5 0,-0.1"/>
<path class="Symbol" transform="matrix(2.3811,0,0,2.3811,1881.09,507.232)" d="M3.7,-0.2 C3.7,4 3.2,7.2 2.2,10.1 C1,13.3 -0.2,14.8 -3.6,17.4 L-3,18.1 C3.4,14.1 7.3,7.6 7.3,-0.1 C7.3,-8.4 3.4,-13.8 -3.2,-18.1 L-3.6,-17.4 C2.6,-12.4 3.7,-8.1 3.7,-0.2"/>
<path class="Symbol" transform="matrix(2.3811,0,0,2.3811,2960.95,536.995)" d="M0,-0.1 C0,7.7 4,14 10.4,18.1 L10.9,17.4 C7.5,14.8 6.3,13.3 5.2,10.1 C4.2,7.2 3.7,4 3.7,-0.2 C3.7,-8.1 4.8,-12.3 10.9,-17.4 L10.5,-18.1 C3.9,-13.6 0,-8.5 0,-0.1"/>
<path class="Symbol" transform="matrix(2.3811,0,0,2.3811,3087.09,536.995)" d="M3.7,-0.2 C3.7,4 3.2,7.2 2.2,10.1 C1,13.3 -0.2,14.8 -3.6,17.4 L-3,18.1 C3.4,14.1 7.3,7.6 7.3,-0.1 C7.3,-8.4 3.4,-13.8 -3.2,-18.1 L-3.6,-17.4 C2.6,-12.4 3.7,-8.1 3.7,-0.2"/>
<polyline class="BarLine" fill="none" stroke="#000000" stroke-width="10.71" stroke-linejoin="bevel" points="159.176,2192.95 159.176,2437.6"/>
<polyline class="BarLine" fill="none" stroke="#000000" stroke-width="10.71" stroke-linejoin="bevel" points="1619.26,2192.95 1619.26,2437.6"/>
<polyline class="BarLine" fill="none" stroke="#000000" stroke-width="32.74" stroke-linejoin="bevel" points="1660.93,2192.95 1660.93,2437.6"/>
<polyline class="BarLine" fill="none" stroke="#000000" stroke-width="10.71" stroke-linejoin="bevel" points="2860.55,2192.95 2860.55,2437.6"/>
<polyline class="BarLine" fill="none" stroke="#000000" stroke-width="10.71" stroke-linejoin="bevel" points="4080.54,2192.95 4080.54,2437.6"/>
<polyline class="BarLine" fill="none" stroke="#000000" stroke-width="32.74" stroke-linejoin="bevel" points="4122.21,2192.95 4122.21,2437.6"/>
<polyline class="BarLine" fill="none" stroke="#000000" stroke-width="10.71" stroke-linejoin="bevel" points="159.176,1396.87 159.176,2196.22"/>
<polyline class="BarLine" fill="none" stroke="#000000" stroke-width="10.71" stroke-linejoin="bevel" points="1619.26,1396.87 1619.26,1641.53"/>
<polyline class="BarLine" fill="none" stroke="#000000" stroke-width="32.74" stroke-linejoin="bevel" points="1660.93,1396.87 1660.93,1641.53"/>
<polyline class="BarLine" fill="none" stroke="#000000" stroke-width="10.71" stroke-linejoin="bevel" points="2860.55,1396.87 2860.55,1641.53"/>
<polyline class="BarLine" fill="none" stroke="#000000" stroke-width="10.71" stroke-linejoin="bevel" points="4080.54,1396.87 4080.54,1641.53"/>
<polyline class="BarLine" fill="none" stroke="#000000" stroke-width="32.74" stroke-linejoin="bevel" points="4122.21,1396.87 4122.21,1641.53"/>
<polyline class="BarLine" fill="none" stroke="#000000" stroke-width="10.71" stroke-linejoin="bevel" points="159.176,563.485 159.176,1400.14"/>
<polyline class="BarLine" fill="none" stroke="#000000" stroke-width="10.71" stroke-linejoin="bevel" points="1619.26,563.485 1619.26,1016.49"/>
<polyline class="BarLine" fill="none" stroke="#000000" stroke-width="32.74" stroke-linejoin="bevel" points="1660.93,563.485 1660.93,1016.49"/>
<polyline class="BarLine" fill="none" stroke="#000000" stroke-width="10.71" stroke-linejoin="bevel" points="2860.55,563.485 2860.55,1016.49"/>
<polyline class="BarLine" fill="none" stroke="#000000" stroke-width="10.71" stroke-linejoin="bevel" points="4080.54,563.485 4080.54,1016.49"/>
<polyline class="BarLine" fill="none" stroke="#000000" stroke-width="32.74" stroke-linejoin="bevel" points="4122.21,563.485 4122.21,1016.49"/>
<path class="Accidental" transform="matrix(2.3811,0,0,2.3811,2923.42,1548.96)" d="M20.1,-7.9 C19.5,-11.8 17.1,-15.5 12,-15.5 C7,-15.5 4.1,-12.4 3.6,-11.8 L4,-43.9 C4,-44.7 3.4,-45.3 2.6,-45.3 L1.4,-45.3 C0.6,-45.3 0,-44.7 0,-43.9 L0.5,16.2 C0.5,17 1.1,17.6 1.9,17.6 C2.1,17.6 2.5,17.5 2.7,17.4 C3.1,17.2 9.6,14 15,7.9 C18.8,3.6 20.3,-1.3 20.3,-5.4 C20.3,-6.3 20.2,-7.1 20.1,-7.9 M13.2,-4 C13.2,-2.5 12.8,2.1 10.3,5.9 C8.6,8.5 5.2,11.2 3.3,12.7 L3.6,-6.8 C3.8,-7.7 5.3,-10.6 9.3,-10.6 C12.9,-10.6 13.2,-7.2 13.2,-5.1 L13.2,-4 "/>
<polyline class="LedgerLine" fill="none" stroke="#000000" stroke-width="9.52" stroke-linejoin="bevel" points="518.499,2136.69 648.976,2136.69"/>
<polyline class="LedgerLine" fill="none" stroke="#000000" stroke-width="9.52" stroke-linejoin="bevel" points="1759.8,2136.69 1890.27,2136.69"/>
<polyline class="LedgerLine" fill="none" stroke="#000000" stroke-width="9.52" stroke-linejoin="bevel" points="2965.8,2136.69 3096.27,2136.69"/>
<path class="Note" transform="matrix(2.3811,0,0,2.3811,539.334,2136.69)" d="M18.7,-13.6 C4.9,-13.6 0,-6.6 0,-0.1 C0,6.4 4.9,13.4 18.7,13.4 C32.5,13.4 37.3,6.4 37.3,-0.1 C37.3,-6.6 32.5,-13.6 18.7,-13.6 M10.4,-4.5 C10.3,-4.9 10.3,-5.3 10.3,-5.7 C10.3,-6.5 10.5,-7.3 10.9,-8 C11.6,-9 12.8,-9.7 14.3,-10 C15.6,-10.3 16.3,-10.5 18.9,-10.5 L19,-10.5 C23,-10.5 24.3,-6.8 25.4,-3 L25.7,-2 C26.5,0.6 26.9,2.8 26.9,4.5 C26.9,5.7 26.7,6.8 26.3,7.6 C25.7,8.7 24.7,9.4 23,9.8 C22.1,10 20.6,10.1 20.6,10.1 C20.1,10.1 19.7,10.2 19.3,10.2 C16.1,10.2 14.1,9 12.7,4.7 C11.5,1 11.3,-0.1 10.4,-4.5"/>
<path class="Note" transform="matrix(2.3811,0,0,2.3811,1780.63,2136.69)" d="M18.7,-13.6 C4.9,-13.6 0,-6.6 0,-0.1 C0,6.4 4.9,13.4 18.7,13.4 C32.5,13.4 37.3,6.4 37.3,-0.1 C37.3,-6.6 32.5,-13.6 18.7,-13.6 M10.4,-4.5 C10.3,-4.9 10.3,-5.3 10.3,-5.7 C10.3,-6.5 10.5,-7.3 10.9,-8 C11.6,-9 12.8,-9.7 14.3,-10 C15.6,-10.3 16.3,-10.5 18.9,-10.5 L19,-10.5 C23,-10.5 24.3,-6.8 25.4,-3 L25.7,-2 C26.5,0.6 26.9,2.8 26.9,4.5 C26.9,5.7 26.7,6.8 26.3,7.6 C25.7,8.7 24.7,9.4 23,9.8 C22.1,10 20.6,10.1 20.6,10.1 C20.1,10.1 19.7,10.2 19.3,10.2 C16.1,10.2 14.1,9 12.7,4.7 C11.5,1 11.3,-0.1 10.4,-4.5"/>
<path class="Note" transform="matrix(2.3811,0,0,2.3811,2986.63,2136.69)" d="M18.7,-13.6 C4.9,-13.6 0,-6.6 0,-0.1 C0,6.4 4.9,13.4 18.7,13.4 C32.5,13.4 37.3,6.4 37.3,-0.1 C37.3,-6.6 32.5,-13.6 18.7,-13.6 M10.4,-4.5 C10.3,-4.9 10.3,-5.3 10.3,-5.7 C10.3,-6.5 10.5,-7.3 10.9,-8 C11.6,-9 12.8,-9.7 14.3,-10 C15.6,-10.3 16.3,-10.5 18.9,-10.5 L19,-10.5 C23,-10.5 24.3,-6.8 25.4,-3 L25.7,-2 C26.5,0.6 26.9,2.8 26.9,4.5 C26.9,5.7 26.7,6.8 26.3,7.6 C25.7,8.7 24.7,9.4 23,9.8 C22.1,10 20.6,10.1 20.6,10.1 C20.1,10.1 19.7,10.2 19.3,10.2 C16.1,10.2 14.1,9 12.7,4.7 C11.5,1 11.3,-0.1 10.4,-4.5"/>
<path class="Note" transform="matrix(2.3811,0,0,2.3811,539.334,1578.73)" d="M18.7,-13.6 C4.9,-13.6 0,-6.6 0,-0.1 C0,6.4 4.9,13.4 18.7,13.4 C32.5,13.4 37.3,6.4 37.3,-0.1 C37.3,-6.6 32.5,-13.6 18.7,-13.6 M10.4,-4.5 C10.3,-4.9 10.3,-5.3 10.3,-5.7 C10.3,-6.5 10.5,-7.3 10.9,-8 C11.6,-9 12.8,-9.7 14.3,-10 C15.6,-10.3 16.3,-10.5 18.9,-10.5 L19,-10.5 C23,-10.5 24.3,-6.8 25.4,-3 L25.7,-2 C26.5,0.6 26.9,2.8 26.9,4.5 C26.9,5.7 26.7,6.8 26.3,7.6 C25.7,8.7 24.7,9.4 23,9.8 C22.1,10 20.6,10.1 20.6,10.1 C20.1,10.1 19.7,10.2 19.3,10.2 C16.1,10.2 14.1,9 12.7,4.7 C11.5,1 11.3,-0.1 10.4,-4.5"/>
<path class="Note" transform="matrix(2.3811,0,0,2.3811,539.334,1489.44)" d="M18.7,-13.6 C4.9,-13.6 0,-6.6 0,-0.1 C0,6.4 4.9,13.4 18.7,13.4 C32.5,13.4 37.3,6.4 37.3,-0.1 C37.3,-6.6 32.5,-13.6 18.7,-13.6 M10.4,-4.5 C10.3,-4.9 10.3,-5.3 10.3,-5.7 C10.3,-6.5 10.5,-7.3 10.9,-8 C11.6,-9 12.8,-9.7 14.3,-10 C15.6,-10.3 16.3,-10.5 18.9,-10.5 L19,-10.5 C23,-10.5 24.3,-6.8 25.4,-3 L25.7,-2 C26.5,0.6 26.9,2.8 26.9,4.5 C26.9,5.7 26.7,6.8 26.3,7.6 C25.7,8.7 24.7,9.4 23,9.8 C22.1,10 20.6,10.1 20.6,10.1 C20.1,10.1 19.7,10.2 19.3,10.2 C16.1,10.2 14.1,9 12.7,4.7 C11.5,1 11.3,-0.1 10.4,-4.5"/>
<path class="Note" transform="matrix(2.3811,0,0,2.3811,539.334,1400.14)" d="M18.7,-13.6 C4.9,-13.6 0,-6.6 0,-0.1 C0,6.4 4.9,13.4 18.7,13.4 C32.5,13.4 37.3,6.4 37.3,-0.1 C37.3,-6.6 32.5,-13.6 18.7,-13.6 M10.4,-4.5 C10.3,-4.9 10.3,-5.3 10.3,-5.7 C10.3,-6.5 10.5,-7.3 10.9,-8 C11.6,-9 12.8,-9.7 14.3,-10 C15.6,-10.3 16.3,-10.5 18.9,-10.5 L19,-10.5 C23,-10.5 24.3,-6.8 25.4,-3 L25.7,-2 C26.5,0.6 26.9,2.8 26.9,4.5 C26.9,5.7 26.7,6.8 26.3,7.6 C25.7,8.7 24.7,9.4 23,9.8 C22.1,10 20.6,10.1 20.6,10.1 C20.1,10.1 19.7,10.2 19.3,10.2 C16.1,10.2 14.1,9 12.7,4.7 C11.5,1 11.3,-0.1 10.4,-4.5"/>
<path class="Note" transform="matrix(2.3811,0,0,2.3811,1780.63,1548.96)" d="M18.7,-13.6 C4.9,-13.6 0,-6.6 0,-0.1 C0,6.4 4.9,13.4 18.7,13.4 C32.5,13.4 37.3,6.4 37.3,-0.1 C37.3,-6.6 32.5,-13.6 18.7,-13.6 M10.4,-4.5 C10.3,-4.9 10.3,-5.3 10.3,-5.7 C10.3,-6.5 10.5,-7.3 10.9,-8 C11.6,-9 12.8,-9.7 14.3,-10 C15.6,-10.3 16.3,-10.5 18.9,-10.5 L19,-10.5 C23,-10.5 24.3,-6.8 25.4,-3 L25.7,-2 C26.5,0.6 26.9,2.8 26.9,4.5 C26.9,5.7 26.7,6.8 26.3,7.6 C25.7,8.7 24.7,9.4 23,9.8 C22.1,10 20.6,10.1 20.6,10.1 C20.1,10.1 19.7,10.2 19.3,10.2 C16.1,10.2 14.1,9 12.7,4.7 C11.5,1 11.3,-0.1 10.4,-4.5"/>
<path class="Note" transform="matrix(2.3811,0,0,2.3811,1780.63,1489.44)" d="M18.7,-13.6 C4.9,-13.6 0,-6.6 0,-0.1 C0,6.4 4.9,13.4 18.7,13.4 C32.5,13.4 37.3,6.4 37.3,-0.1 C37.3,-6.6 32.5,-13.6 18.7,-13.6 M10.4,-4.5 C10.3,-4.9 10.3,-5.3 10.3,-5.7 C10.3,-6.5 10.5,-7.3 10.9,-8 C11.6,-9 12.8,-9.7 14.3,-10 C15.6,-10.3 16.3,-10.5 18.9,-10.5 L19,-10.5 C23,-10.5 24.3,-6.8 25.4,-3 L25.7,-2 C26.5,0.6 26.9,2.8 26.9,4.5 C26.9,5.7 26.7,6.8 26.3,7.6 C25.7,8.7 24.7,9.4 23,9.8 C22.1,10 20.6,10.1 20.6,10.1 C20.1,10.1 19.7,10.2 19.3,10.2 C16.1,10.2 14.1,9 12.7,4.7 C11.5,1 11.3,-0.1 10.4,-4.5"/>
<path class="Note" transform="matrix(2.3811,0,0,2.3811,1780.63,1400.14)" d="M18.7,-13.6 C4.9,-13.6 0,-6.6 0,-0.1 C0,6.4 4.9,13.4 18.7,13.4 C32.5,13.4 37.3,6.4 37.3,-0.1 C37.3,-6.6 32.5,-13.6 18.7,-13.6 M10.4,-4.5 C10.3,-4.9 10.3,-5.3 10.3,-5.7 C10.3,-6.5 10.5,-7.3 10.9,-8 C11.6,-9 12.8,-9.7 14.3,-10 C15.6,-10.3 16.3,-10.5 18.9,-10.5 L19,-10.5 C23,-10.5 24.3,-6.8 25.4,-3 L25.7,-2 C26.5,0.6 26.9,2.8 26.9,4.5 C26.9,5.7 26.7,6.8 26.3,7.6 C25.7,8.7 24.7,9.4 23,9.8 C22.1,10 20.6,10.1 20.6,10.1 C20.1,10.1 19.7,10.2 19.3,10.2 C16.1,10.2 14.1,9 12.7,4.7 C11.5,1 11.3,-0.1 10.4,-4.5"/>
<path class="Note" transform="matrix(2.3811,0,0,2.3811,2986.63,1548.96)" d="M18.7,-13.6 C4.9,-13.6 0,-6.6 0,-0.1 C0,6.4 4.9,13.4 18.7,13.4 C32.5,13.4 37.3,6.4 37.3,-0.1 C37.3,-6.6 32.5,-13.6 18.7,-13.6 M10.4,-4.5 C10.3,-4.9 10.3,-5.3 10.3,-5.7 C10.3,-6.5 10.5,-7.3 10.9,-8 C11.6,-9 12.8,-9.7 14.3,-10 C15.6,-10.3 16.3,-10.5 18.9,-10.5 L19,-10.5 C23,-10.5 24.3,-6.8 25.4,-3 L25.7,-2 C26.5,0.6 26.9,2.8 26.9,4.5 C26.9,5.7 26.7,6.8 26.3,7.6 C25.7,8.7 24.7,9.4 23,9.8 C22.1,10 20.6,10.1 20.6,10.1 C20.1,10.1 19.7,10.2 19.3,10.2 C16.1,10.2 14.1,9 12.7,4.7 C11.5,1 11.3,-0.1 10.4,-4.5"/>
<path class="Note" transform="matrix(2.3811,0,0,2.3811,2986.63,1489.44)" d="M18.7,-13.6 C4.9,-13.6 0,-6.6 0,-0.1 C0,6.4 4.9,13.4 18.7,13.4 C32.5,13.4 37.3,6.4 37.3,-0.1 C37.3,-6.6 32.5,-13.6 18.7,-13.6 M10.4,-4.5 C10.3,-4.9 10.3,-5.3 10.3,-5.7 C10.3,-6.5 10.5,-7.3 10.9,-8 C11.6,-9 12.8,-9.7 14.3,-10 C15.6,-10.3 16.3,-10.5 18.9,-10.5 L19,-10.5 C23,-10.5 24.3,-6.8 25.4,-3 L25.7,-2 C26.5,0.6 26.9,2.8 26.9,4.5 C26.9,5.7 26.7,6.8 26.3,7.6 C25.7,8.7 24.7,9.4 23,9.8 C22.1,10 20.6,10.1 20.6,10.1 C20.1,10.1 19.7,10.2 19.3,10.2 C16.1,10.2 14.1,9 12.7,4.7 C11.5,1 11.3,-0.1 10.4,-4.5"/>
<path class="Note" transform="matrix(2.3811,0,0,2.3811,2986.63,1400.14)" d="M18.7,-13.6 C4.9,-13.6 0,-6.6 0,-0.1 C0,6.4 4.9,13.4 18.7,13.4 C32.5,13.4 37.3,6.4 37.3,-0.1 C37.3,-6.6 32.5,-13.6 18.7,-13.6 M10.4,-4.5 C10.3,-4.9 10.3,-5.3 10.3,-5.7 C10.3,-6.5 10.5,-7.3 10.9,-8 C11.6,-9 12.8,-9.7 14.3,-10 C15.6,-10.3 16.3,-10.5 18.9,-10.5 L19,-10.5 C23,-10.5 24.3,-6.8 25.4,-3 L25.7,-2 C26.5,0.6 26.9,2.8 26.9,4.5 C26.9,5.7 26.7,6.8 26.3,7.6 C25.7,8.7 24.7,9.4 23,9.8 C22.1,10 20.6,10.1 20.6,10.1 C20.1,10.1 19.7,10.2 19.3,10.2 C16.1,10.2 14.1,9 12.7,4.7 C11.5,1 11.3,-0.1 10.4,-4.5"/>
<path class="Note" d="M507.065,596.25 C507.375,584.551 513.844,574.17 526.472,565.105 C537.706,557.048 549.985,553.019 563.311,553.019 C581.982,553.019 598.445,560.341 612.701,574.983 C621.765,584.357 626.297,595.979 626.297,609.846 C626.297,622.32 622.966,631.888 616.303,638.55 C608.168,646.763 599.569,650.869 590.504,650.869 C584.306,650.869 579.503,649.474 576.094,646.685 C570.516,642.114 567.727,635.994 567.727,628.324 C567.727,618.407 572.685,609.343 582.602,601.131 C590.737,594.39 598.91,589.974 607.122,587.883 C604.953,584.164 602.203,580.677 598.871,577.424 C588.49,567.274 576.714,562.2 563.543,562.2 C549.83,562.2 538.48,565.183 529.493,571.148 C520.197,577.269 512.72,585.636 507.065,596.25 M610.028,594.042 C605.767,597.993 601.506,602.215 597.244,606.709 C588.877,615.541 584.694,623.908 584.694,631.81 C584.694,640.255 586.631,644.477 590.504,644.477 C593.991,644.477 598.871,639.713 605.147,630.183 C610.183,622.591 612.701,615.618 612.701,609.265 C612.701,603.842 611.81,598.768 610.028,594.042"/>
<path class="Note" d="M507.065,506.958 C507.375,495.26 513.844,484.878 526.472,475.814 C537.706,467.757 549.985,463.728 563.311,463.728 C581.982,463.728 598.445,471.049 612.701,485.692 C621.765,495.066 626.297,506.687 626.297,520.555 C626.297,533.028 622.966,542.596 616.303,549.259 C608.168,557.471 599.569,561.577 590.504,561.577 C584.306,561.577 579.503,560.183 576.094,557.394 C570.516,552.823 567.727,546.702 567.727,539.033 C567.727,529.116 572.685,520.051 582.602,511.839 C590.737,505.099 598.91,500.683 607.122,498.591 C604.953,494.872 602.203,491.386 598.871,488.132 C588.49,477.983 576.714,472.909 563.543,472.909 C549.83,472.909 538.48,475.891 529.493,481.857 C520.197,487.977 512.72,496.344 507.065,506.958 M610.028,504.75 C605.767,508.702 601.506,512.924 597.244,517.417 C588.877,526.249 584.694,534.617 584.694,542.519 C584.694,550.964 586.631,555.186 590.504,555.186 C593.991,555.186 598.871,550.421 605.147,540.892 C610.183,533.299 612.701,526.327 612.701,519.974 C612.701,514.551 611.81,509.476 610.028,504.75"/>
<path class="Note" d="M633.028,748.104 C637.367,745.16 640.505,742.719 642.441,740.783 C646.005,736.986 647.787,733.5 647.787,730.324 C647.787,726.682 645.773,724.862 641.744,724.862 C633.919,724.862 625.552,731.757 616.643,745.547 C613.931,749.731 607.966,763.366 598.746,786.453 C606.106,794.046 609.786,798.346 609.786,799.353 C609.786,800.747 608.895,801.445 607.113,801.445 C605.719,801.445 601.884,799.082 595.608,794.356 C588.791,810.238 578.448,823.796 564.58,835.03 C550.402,846.496 533.474,852.229 513.796,852.229 C506.281,852.229 496.868,850.486 485.557,846.999 C476.492,844.21 471.96,839.756 471.96,833.635 C471.96,824.571 475.446,820.038 482.419,820.038 C486.603,820.038 488.694,821.975 488.694,825.849 C488.694,827.089 487.726,828.406 485.789,829.8 C484.782,830.497 484.278,831.853 484.278,833.868 C484.278,836.269 486.951,838.748 492.297,841.305 C498.107,844.094 506.63,845.489 517.863,845.489 C532.351,845.489 546.335,839.213 559.815,826.662 C572.056,815.274 580.85,802.026 586.195,786.918 C584.104,785.214 581.857,783.355 579.455,781.34 C572.018,776.924 568.299,772.392 568.299,767.743 C568.299,765.807 569.577,764.838 572.134,764.838 C575.543,764.838 580.152,767.743 585.963,773.554 C587.203,774.794 588.365,775.956 589.449,777.04 C592.161,769.603 596.499,760.151 602.465,748.685 C613.234,727.922 626.327,717.54 641.744,717.54 C647.245,717.54 651.583,718.586 654.76,720.678 C657.936,722.77 659.524,725.636 659.524,729.278 C659.524,735.088 657.394,740.008 653.133,744.036 C648.717,748.22 644.107,750.312 639.304,750.312 C635.12,750.312 633.028,749.576 633.028,748.104"/>
<path class="Note" d="M632.215,682.403 C632.215,691.313 622.066,710.875 601.768,741.09 C593.71,753.098 582.128,761.892 567.021,767.47 C555.864,771.653 542.965,773.745 528.322,773.745 C523.596,773.745 519.413,772.777 515.772,770.84 C511.743,768.748 509.729,766.463 509.729,763.983 C509.729,757.553 513.176,754.338 520.071,754.338 C521.079,754.338 521.582,754.958 521.582,756.197 C521.582,757.282 521.079,758.483 520.071,759.8 C518.832,761.427 518.212,762.628 518.212,763.402 C518.212,765.727 521.698,766.889 528.671,766.889 C544.321,766.889 556.678,764.991 565.742,761.194 C575.194,757.321 584.607,747.443 593.982,731.561 L596.654,726.563 C592.161,729.972 587.706,731.677 583.29,731.677 C572.289,731.677 566.788,727.222 566.788,718.313 C566.788,708.706 573.257,698.595 586.195,687.981 C596.344,679.769 605.37,675.663 613.273,675.663 C617.224,675.663 620.516,676.709 623.15,678.801 C624.08,678.104 625.242,677.755 626.637,677.755 C630.356,677.755 632.215,679.304 632.215,682.403 M598.049,724.123 L620.013,683.565 C618.308,683.178 616.41,682.984 614.318,682.984 C606.803,682.984 599.521,687.362 592.471,696.116 C584.259,706.343 580.152,714.516 580.152,720.637 C580.152,724.665 582.825,726.68 588.171,726.68 C590.728,726.68 594.02,725.827 598.049,724.123"/>
<path class="Note" d="M1874.33,569.521 C1878.66,566.577 1881.8,564.137 1883.74,562.2 C1887.3,558.404 1889.08,554.917 1889.08,551.741 C1889.08,548.1 1887.07,546.279 1883.04,546.279 C1875.22,546.279 1866.85,553.174 1857.94,566.965 C1855.23,571.148 1849.26,584.784 1840.04,607.871 C1847.4,615.463 1851.08,619.763 1851.08,620.77 C1851.08,622.165 1850.19,622.862 1848.41,622.862 C1847.02,622.862 1843.18,620.499 1836.91,615.773 C1830.09,631.655 1819.75,645.213 1805.88,656.447 C1791.7,667.913 1774.77,673.646 1755.09,673.646 C1747.58,673.646 1738.17,671.903 1726.85,668.417 C1717.79,665.628 1713.26,661.173 1713.26,655.052 C1713.26,645.988 1716.74,641.456 1723.72,641.456 C1727.9,641.456 1729.99,643.393 1729.99,647.266 C1729.99,648.506 1729.02,649.823 1727.09,651.217 C1726.08,651.915 1725.58,653.271 1725.58,655.285 C1725.58,657.687 1728.25,660.166 1733.59,662.722 C1739.41,665.511 1747.93,666.906 1759.16,666.906 C1773.65,666.906 1787.63,660.631 1801.11,648.08 C1813.35,636.691 1822.15,623.443 1827.49,608.336 C1825.4,606.631 1823.15,604.772 1820.75,602.758 C1813.32,598.341 1809.6,593.809 1809.6,589.161 C1809.6,587.224 1810.87,586.256 1813.43,586.256 C1816.84,586.256 1821.45,589.161 1827.26,594.971 C1828.5,596.211 1829.66,597.373 1830.75,598.458 C1833.46,591.02 1837.8,581.568 1843.76,570.102 C1854.53,549.339 1867.62,538.958 1883.04,538.958 C1888.54,538.958 1892.88,540.004 1896.06,542.095 C1899.23,544.187 1900.82,547.054 1900.82,550.695 C1900.82,556.506 1898.69,561.425 1894.43,565.454 C1890.01,569.637 1885.4,571.729 1880.6,571.729 C1876.42,571.729 1874.33,570.993 1874.33,569.521"/>
<path class="Note" d="M1748.36,506.958 C1748.67,495.26 1755.14,484.878 1767.77,475.814 C1779,467.757 1791.28,463.728 1804.61,463.728 C1823.28,463.728 1839.74,471.049 1854,485.692 C1863.06,495.066 1867.59,506.687 1867.59,520.555 C1867.59,533.028 1864.26,542.596 1857.6,549.259 C1849.47,557.471 1840.87,561.577 1831.8,561.577 C1825.6,561.577 1820.8,560.183 1817.39,557.394 C1811.81,552.823 1809.02,546.702 1809.02,539.033 C1809.02,529.116 1813.98,520.051 1823.9,511.839 C1832.03,505.099 1840.21,500.683 1848.42,498.591 C1846.25,494.872 1843.5,491.386 1840.17,488.132 C1829.79,477.983 1818.01,472.909 1804.84,472.909 C1791.13,472.909 1779.78,475.891 1770.79,481.857 C1761.49,487.977 1754.02,496.344 1748.36,506.958 M1851.33,504.75 C1847.06,508.702 1842.8,512.924 1838.54,517.417 C1830.17,526.249 1825.99,534.617 1825.99,542.519 C1825.99,550.964 1827.93,555.186 1831.8,555.186 C1835.29,555.186 1840.17,550.421 1846.44,540.892 C1851.48,533.299 1854,526.327 1854,519.974 C1854,514.551 1853.11,509.476 1851.33,504.75"/>
<path class="Note" d="M1874.33,748.104 C1878.66,745.16 1881.8,742.719 1883.74,740.783 C1887.3,736.986 1889.08,733.5 1889.08,730.324 C1889.08,726.682 1887.07,724.862 1883.04,724.862 C1875.22,724.862 1866.85,731.757 1857.94,745.547 C1855.23,749.731 1849.26,763.366 1840.04,786.453 C1847.4,794.046 1851.08,798.346 1851.08,799.353 C1851.08,800.747 1850.19,801.445 1848.41,801.445 C1847.02,801.445 1843.18,799.082 1836.91,794.356 C1830.09,810.238 1819.75,823.796 1805.88,835.03 C1791.7,846.496 1774.77,852.229 1755.09,852.229 C1747.58,852.229 1738.17,850.486 1726.85,846.999 C1717.79,844.21 1713.26,839.756 1713.26,833.635 C1713.26,824.571 1716.74,820.038 1723.72,820.038 C1727.9,820.038 1729.99,821.975 1729.99,825.849 C1729.99,827.089 1729.02,828.406 1727.09,829.8 C1726.08,830.497 1725.58,831.853 1725.58,833.868 C1725.58,836.269 1728.25,838.748 1733.59,841.305 C1739.41,844.094 1747.93,845.489 1759.16,845.489 C1773.65,845.489 1787.63,839.213 1801.11,826.662 C1813.35,815.274 1822.15,802.026 1827.49,786.918 C1825.4,785.214 1823.15,783.355 1820.75,781.34 C1813.32,776.924 1809.6,772.392 1809.6,767.743 C1809.6,765.807 1810.87,764.838 1813.43,764.838 C1816.84,764.838 1821.45,767.743 1827.26,773.554 C1828.5,774.794 1829.66,775.956 1830.75,777.04 C1833.46,769.603 1837.8,760.151 1843.76,748.685 C1854.53,727.922 1867.62,717.54 1883.04,717.54 C1888.54,717.54 1892.88,718.586 1896.06,720.678 C1899.23,722.77 1900.82,725.636 1900.82,729.278 C1900.82,735.088 1898.69,740.008 1894.43,744.036 C1890.01,748.22 1885.4,750.312 1880.6,750.312 C1876.42,750.312 1874.33,749.576 1874.33,748.104"/>
<path class="Note" d="M1873.51,682.403 C1873.51,691.313 1863.36,710.875 1843.07,741.09 C1835.01,753.098 1823.43,761.892 1808.32,767.47 C1797.16,771.653 1784.26,773.745 1769.62,773.745 C1764.89,773.745 1760.71,772.777 1757.07,770.84 C1753.04,768.748 1751.03,766.463 1751.03,763.983 C1751.03,757.553 1754.47,754.338 1761.37,754.338 C1762.38,754.338 1762.88,754.958 1762.88,756.197 C1762.88,757.282 1762.38,758.483 1761.37,759.8 C1760.13,761.427 1759.51,762.628 1759.51,763.402 C1759.51,765.727 1763,766.889 1769.97,766.889 C1785.62,766.889 1797.98,764.991 1807.04,761.194 C1816.49,757.321 1825.9,747.443 1835.28,731.561 L1837.95,726.563 C1833.46,729.972 1829,731.677 1824.59,731.677 C1813.59,731.677 1808.09,727.222 1808.09,718.313 C1808.09,708.706 1814.55,698.595 1827.49,687.981 C1837.64,679.769 1846.67,675.663 1854.57,675.663 C1858.52,675.663 1861.81,676.709 1864.45,678.801 C1865.38,678.104 1866.54,677.755 1867.93,677.755 C1871.65,677.755 1873.51,679.304 1873.51,682.403 M1839.35,724.123 L1861.31,683.565 C1859.61,683.178 1857.71,682.984 1855.62,682.984 C1848.1,682.984 1840.82,687.362 1833.77,696.116 C1825.56,706.343 1821.45,714.516 1821.45,720.637 C1821.45,724.665 1824.12,726.68 1829.47,726.68 C1832.03,726.68 1835.32,725.827 1839.35,724.123"/>
<path class="Note" d="M3101.24,624.605 C3094.89,634.599 3084.86,642.889 3071.14,649.474 C3059.21,655.207 3048.06,658.074 3037.68,658.074 C3029.39,658.074 3022.49,656.408 3016.99,653.077 C3011.03,649.436 3008.04,645.097 3008.04,640.061 C3008.04,628.673 3011.03,618.872 3016.99,610.66 C3025.13,599.504 3033.34,593.925 3041.63,593.925 C3047.52,593.925 3051.7,595.088 3054.18,597.412 C3057.59,600.433 3059.29,604.578 3059.29,609.846 C3059.29,617.284 3053.75,623.753 3042.67,629.254 C3031.9,634.599 3024.43,638.086 3020.24,639.713 C3021.17,641.649 3022.38,643.393 3023.85,644.942 C3027.49,648.816 3032.45,650.753 3038.72,650.753 C3046.62,650.753 3057.24,647.847 3070.56,642.037 C3083.35,636.381 3093.57,630.571 3101.24,624.605 M3018.62,634.367 C3024.43,631.423 3029.74,627.975 3034.54,624.024 C3041.67,618.214 3045.23,611.938 3045.23,605.198 C3045.23,601.402 3043.49,599.504 3040,599.504 C3037.06,599.504 3033.03,602.874 3027.91,609.614 C3021.48,617.981 3018.27,624.799 3018.27,630.067 C3018.27,631.539 3018.39,632.972 3018.62,634.367"/>
<path class="Note" d="M2954.36,506.958 C2954.67,495.26 2961.14,484.878 2973.77,475.814 C2985,467.757 2997.28,463.728 3010.61,463.728 C3029.28,463.728 3045.74,471.049 3060,485.692 C3069.06,495.066 3073.59,506.687 3073.59,520.555 C3073.59,533.028 3070.26,542.596 3063.6,549.259 C3055.47,557.471 3046.87,561.577 3037.8,561.577 C3031.6,561.577 3026.8,560.183 3023.39,557.394 C3017.81,552.823 3015.02,546.702 3015.02,539.033 C3015.02,529.116 3019.98,520.051 3029.9,511.839 C3038.03,505.099 3046.21,500.683 3054.42,498.591 C3052.25,494.872 3049.5,491.386 3046.17,488.132 C3035.79,477.983 3024.01,472.909 3010.84,472.909 C2997.13,472.909 2985.78,475.891 2976.79,481.857 C2967.49,487.977 2960.02,496.344 2954.36,506.958 M3057.32,504.75 C3053.06,508.702 3048.8,512.924 3044.54,517.417 C3036.17,526.249 3031.99,534.617 3031.99,542.519 C3031.99,550.964 3033.93,555.186 3037.8,555.186 C3041.29,555.186 3046.17,550.421 3052.44,540.892 C3057.48,533.299 3060,526.327 3060,519.974 C3060,514.551 3059.11,509.476 3057.32,504.75"/>
<path class="Note" d="M3080.33,748.104 C3084.66,745.16 3087.8,742.719 3089.74,740.783 C3093.3,736.986 3095.08,733.5 3095.08,730.324 C3095.08,726.682 3093.07,724.862 3089.04,724.862 C3081.22,724.862 3072.85,731.757 3063.94,745.547 C3061.23,749.731 3055.26,763.366 3046.04,786.453 C3053.4,794.046 3057.08,798.346 3057.08,799.353 C3057.08,800.747 3056.19,801.445 3054.41,801.445 C3053.02,801.445 3049.18,799.082 3042.91,794.356 C3036.09,810.238 3025.75,823.796 3011.88,835.03 C2997.7,846.496 2980.77,852.229 2961.09,852.229 C2953.58,852.229 2944.17,850.486 2932.85,846.999 C2923.79,844.21 2919.26,839.756 2919.26,833.635 C2919.26,824.571 2922.74,820.038 2929.72,820.038 C2933.9,820.038 2935.99,821.975 2935.99,825.849 C2935.99,827.089 2935.02,828.406 2933.09,829.8 C2932.08,830.497 2931.58,831.853 2931.58,833.868 C2931.58,836.269 2934.25,838.748 2939.59,841.305 C2945.4,844.094 2953.93,845.489 2965.16,845.489 C2979.65,845.489 2993.63,839.213 3007.11,826.662 C3019.35,815.274 3028.15,802.026 3033.49,786.918 C3031.4,785.214 3029.15,783.355 3026.75,781.34 C3019.31,776.924 3015.6,772.392 3015.6,767.743 C3015.6,765.807 3016.87,764.838 3019.43,764.838 C3022.84,764.838 3027.45,767.743 3033.26,773.554 C3034.5,774.794 3035.66,775.956 3036.75,777.04 C3039.46,769.603 3043.8,760.151 3049.76,748.685 C3060.53,727.922 3073.62,717.54 3089.04,717.54 C3094.54,717.54 3098.88,718.586 3102.06,720.678 C3105.23,722.77 3106.82,725.636 3106.82,729.278 C3106.82,735.088 3104.69,740.008 3100.43,744.036 C3096.01,748.22 3091.4,750.312 3086.6,750.312 C3082.42,750.312 3080.33,749.576 3080.33,748.104"/>
<path class="Note" d="M3079.51,682.403 C3079.51,691.313 3069.36,710.875 3049.06,741.09 C3041.01,753.098 3029.43,761.892 3014.32,767.47 C3003.16,771.653 2990.26,773.745 2975.62,773.745 C2970.89,773.745 2966.71,772.777 2963.07,770.84 C2959.04,768.748 2957.03,766.463 2957.03,763.983 C2957.03,757.553 2960.47,754.338 2967.37,754.338 C2968.38,754.338 2968.88,754.958 2968.88,756.197 C2968.88,757.282 2968.38,758.483 2967.37,759.8 C2966.13,761.427 2965.51,762.628 2965.51,763.402 C2965.51,765.727 2969,766.889 2975.97,766.889 C2991.62,766.889 3003.97,764.991 3013.04,761.194 C3022.49,757.321 3031.9,747.443 3041.28,731.561 L3043.95,726.563 C3039.46,729.972 3035,731.677 3030.59,731.677 C3019.59,731.677 3014.09,727.222 3014.09,718.313 C3014.09,708.706 3020.55,698.595 3033.49,687.981 C3043.64,679.769 3052.67,675.663 3060.57,675.663 C3064.52,675.663 3067.81,676.709 3070.45,678.801 C3071.38,678.104 3072.54,677.755 3073.93,677.755 C3077.65,677.755 3079.51,679.304 3079.51,682.403 M3045.35,724.123 L3067.31,683.565 C3065.61,683.178 3063.71,682.984 3061.62,682.984 C3054.1,682.984 3046.82,687.362 3039.77,696.116 C3031.56,706.343 3027.45,714.516 3027.45,720.637 C3027.45,724.665 3030.12,726.68 3035.47,726.68 C3038.02,726.68 3041.32,725.827 3045.35,724.123"/>
<path class="Clef" transform="matrix(2.3811,0,0,2.3811,212.156,2255.75)" d="M25.4,-25.1 C17.8,-25.1 11.7,-20.7 11.6,-20.7 C5.8,-16.4 3.5,-11.3 2.6,-7.8 C2.1,-6 1.9,-4.2 1.9,-2.5 C1.9,-0.1 2.3,2.1 3.2,4 C4.4,6.7 6.7,8.6 9.7,9.6 C10.9,10 12.2,10.2 13.5,10.2 C15.7,10.2 18,9.6 19.9,8.5 C23,6.8 24.9,3.2 24.9,-0.7 C24.9,-4.2 23.1,-7.4 20.1,-9.3 C18,-10.7 16,-11.1 14.3,-11.1 C13.1,-11.1 12,-10.9 11.1,-10.6 C10.1,-10.2 8.4,-9.2 7.6,-8.5 C7.9,-10.4 9.1,-13.3 10.2,-14.9 C11.3,-16.5 13.5,-18.5 15.2,-19.4 C17.7,-20.8 20.9,-21.4 24.4,-21.4 C34.6,-21.4 39.6,-13.2 39.6,3.6 C39.6,12.9 36.1,21.8 33.1,27.7 C29.8,34.3 25.4,40.6 21.5,44.1 C11.1,53.6 1.3,58.1 1.2,58.1 C1.2,58.1 -0.3,59 0.1,60.5 C0.4,61.5 1.3,61.7 1.9,61.7 C2,61.7 2.3,61.6 2.4,61.6 C2.5,61.6 13.9,56.9 23,49.8 C28.1,46.1 32.7,42.1 36.7,37.8 C40.3,33.9 43.4,29.7 45.9,25.5 C50.3,18 52.8,10.2 52.8,3.5 C52.8,-4.8 50.6,-11.7 46.5,-16.6 C41.8,-22.2 34.7,-25.1 25.4,-25.1 M56.8,-12.4 C56.8,-9.6 59,-7.4 61.6,-7.4 C64.2,-7.4 66.4,-9.6 66.4,-12.4 C66.4,-15.2 64.2,-17.5 61.6,-17.5 C59,-17.5 56.8,-15.2 56.8,-12.4 M56.8,12.3 C56.8,15.1 59,17.4 61.6,17.4 C64.2,17.4 66.4,15.1 66.4,12.3 C66.4,9.5 64.2,7.2 61.6,7.2 C59,7.2 56.8,9.5 56.8,12.3"/>
<path class="Clef" transform="matrix(2.3811,0,0,2.3811,212.156,1578.73)" d="M63.37,-5.89004 C62.14,-11.32 59.5,-15.14 58.72,-16.1801 C55.5301,-20.45 51.52,-23.3 46.8301,-24.65 C43.72,-25.54 40.72,-25.65 38.3,-25.47 C37.2601,-31.4801 36.2601,-37.3601 35.35,-42.8101 C40.79,-48.97 44.42,-54.77 46.69,-59.07 C50.1601,-65.65 51.3101,-70.2301 51.3601,-70.4301 C53.0801,-75.64 53.44,-83.34 52.34,-91.55 C51.3301,-99.1 49.24,-105.81 46.89,-109.06 C45.8601,-110.49 44.8101,-111.22 43.77,-111.22 C42.55,-111.22 40.04,-109.98 37.15,-107.21 C34.85,-105.01 31.5801,-101.12 29.02,-95.1101 C26.02,-88.05 25.8101,-78.5601 26.1601,-71.84 C26.54,-64.57 27.65,-58.8801 27.6601,-58.8301 C27.6801,-58.74 27.94,-57.24 28.39,-54.67 C28.1601,-54.44 27.92,-54.22 27.67,-53.9801 C26.6301,-52.9801 25.44,-51.84 24.0601,-50.4601 C23.2,-49.6 22.25,-48.69 21.25,-47.72 C12.79,-39.57 0,-27.25 0,-8.1 C0,-3.4 0.9,1.01992 2.68008,5.02998 C4.27002,8.62998 6.57002,11.91 9.5,14.78 C17.2301,22.33 27.82,25.5399 34.8801,25.38 C37.8301,25.31 40.4601,25.0699 42.85,24.6199 C44.6801,34.2199 45.82,41.25 45.8601,46.5899 C45.9,53.1 44.25,57.0699 40.35,59.8399 C37.92,61.5699 35.1101,62.5199 32.0101,62.6699 C29.42,62.7899 27.1601,62.3199 25.7301,61.91 L25.72,61.91 C25.72,61.91 25.4301,61.83 25.42,61.63 C25.4101,61.45 25.7601,61.4 25.77,61.4 L25.79,61.4 C27.7101,60.96 31.2801,59.73 33.64,56.43 C35.44,53.91 36.3101,49.2899 34.47,45.35 C33.3601,42.96 30.85,40.01 25.2301,39.56 C22.74,39.36 20.47,39.8699 18.47,41.0699 C16.6601,42.15 15.1601,43.7899 14.1101,45.7899 C11.65,50.4899 12.1101,56.2199 15.24,60.06 C18.2,63.68 22.82,65.9899 28.25,66.5699 C29.1,66.66 29.95,66.7 30.8,66.7 C31.5101,66.7 32.22,66.6699 32.92,66.61 C31.72,66.9399 30.64,67.4899 29.77,68.25 C28.2801,69.5399 27.44,71.38 27.44,73.41 C27.44,75.28 28.0601,76.65 29.55,78.0399 C28.4101,78.5 27.55,78.98 26.79,79.56 C25.25,80.73 24.34,82.46 24.34,84.1899 C24.34,87.45 27.3,89.63 31.72,89.63 C37.1301,89.63 40.9101,86.63 40.9101,82.35 C40.9101,80.1199 39.9101,78.18 38.0801,76.83 C41.0101,75.6199 42.37,73.9399 42.37,71.56 C42.39,70.05 41.69,68.61 40.49,67.6899 C39.2801,66.7399 37.62,66.2399 35.69,66.2399 L35.5101,66.2399 C38.2801,65.7 40.92,64.7 43.2101,63.28 C46.87,60.71 48.99,56.73 49.67,51.1 C50.2301,46.46 49.84,40.55 48.44,32.48 C48.0801,30.3899 47.54,27.36 46.8801,23.6 C52.6301,21.68 56.79,18.11 60.5601,12.26 C63.85,6.51992 64.8,0.419922 63.37,-5.89004 M32.39,87.5399 C30.19,87.5399 28.7301,86.1199 28.7301,84.01 C28.7301,82.11 29.65,80.5 31.32,79.4699 C31.6801,79.66 31.77,79.71 32.1101,79.88 C33.3,80.48 33.3,80.48 33.55,80.63 L33.5601,80.6399 C35.47,81.73 36.25,82.76 36.25,84.18 C36.24,86.0899 34.59,87.5399 32.39,87.5399 M38.3101,71.63 C38.3101,73.2699 37.7301,74.3399 36.1801,75.53 C34.74,74.78 34.35,74.56 33.9801,74.3399 L33.8801,74.28 C32.3301,73.3399 31.85,72.66 31.85,71.4 C31.85,69.6 33.2301,68.3399 35.19,68.3399 C37.17,68.35 38.3101,69.55 38.3101,71.63 M33.15,-83.8101 C34.9301,-89.55 37.67,-92.8 39.6601,-94.5301 C41.4101,-96.05 43.0601,-96.7601 43.9801,-96.7601 C44.12,-96.7601 44.24,-96.74 44.34,-96.7101 C44.8,-96.57 45.3301,-96 45.8,-95.1301 C48.1101,-90.84 47.37,-84.1301 46.0301,-79.69 C44.4,-74.29 41.4801,-68.6801 32.69,-59.0601 C32.52,-60.17 32.3601,-61.22 32.2101,-62.2 C30.95,-70.49 31.27,-77.7601 33.15,-83.8101 M29.15,20.31 C24.5101,19.0899 20.0801,16.5899 16.32,13.0899 C15.0101,11.86 13.14,9.68994 11.67,6.3 C10.3101,3.13994 9.65,-0.290039 9.7,-3.88008 C9.77002,-8.57002 11.0801,-13.39 13.59,-18.1801 C16.5101,-23.7601 21.07,-29.29 27.1301,-34.62 C28.5801,-35.9 29.95,-37.1801 31.24,-38.4601 C32,-34.2 32.8301,-29.5101 33.7101,-24.6301 C29.8601,-23.3601 25.1101,-20.2101 22,-14.5601 C18.47,-7.99004 18.6101,-2.47002 19.34,1.00996 C20.2801,5.46992 22.8101,9.22998 26.27,11.3199 C27.2,11.88 31.3301,14.01 33.17,13.43 C33.54,13.31 33.8101,13.0899 33.95,12.76 C34.4601,11.5899 33.44,10.95 31.8801,9.98994 C31.2801,9.61992 30.6101,9.2 29.8801,8.66992 C26.5601,6.17998 25.1101,1.72998 26.1801,-2.65 C26.7601,-5.05 28.04,-7.21006 29.8801,-8.91006 C31.55,-10.4601 33.59,-11.5601 35.97,-12.2 C38.0101,-0.960059 40.07,10.1899 41.7101,18.55 C41.84,19.2399 41.9801,19.91 42.1101,20.58 C37.7101,21.51 33.37,21.4199 29.15,20.31 M54.9,10.1 C53.7301,13.28 51.27,17.35 46.14,19.41 C46.07,18.9899 45.99,18.56 45.9101,18.13 C44.3601,9.36992 42.4301,-1.61006 40.47,-12.87 C50.82,-13.35 55.09,-5.91006 55.9801,-1.08008 C56.45,1.45 56.45,5.88994 54.9,10.1"/>
<path class="FiguredBass" d="M585.874,2567.94 C588.224,2567.94 590.698,2567.6 593.296,2566.92 L597.47,2565.81 C598.274,2565.81 598.908,2566.11 599.372,2566.73 C599.836,2567.35 599.79,2567.91 599.233,2568.4 L556.093,2618.59 L581.421,2618.59 L581.421,2598.74 C581.421,2597.32 581.807,2596.22 582.58,2595.45 C583.353,2594.67 584.343,2594.05 585.549,2593.59 C586.755,2593.13 588.332,2591.75 590.28,2589.46 C592.229,2587.17 594.1,2584.08 595.893,2580.18 C596.202,2579.57 596.666,2579.26 597.285,2579.26 C598.584,2579.26 599.233,2579.97 599.233,2581.39 L599.233,2618.59 L610.18,2618.59 C611.727,2618.59 612.5,2619.3 612.5,2620.73 C612.5,2622.27 611.727,2623.05 610.18,2623.05 L599.233,2623.05 L599.233,2624.25 C599.233,2628.09 600.254,2631.43 602.295,2634.27 C604.336,2637.12 606.964,2638.54 610.18,2638.54 C611.417,2638.54 612.036,2639.1 612.036,2640.21 C612.036,2641.45 611.417,2642.06 610.18,2642.06 C607.954,2642.06 604.645,2641.74 600.254,2641.09 C595.862,2640.44 592.538,2640.12 590.28,2640.12 C588.023,2640.12 584.699,2640.44 580.307,2641.09 C575.916,2641.74 572.607,2642.06 570.381,2642.06 C569.144,2642.06 568.525,2641.45 568.525,2640.21 C568.525,2639.1 569.144,2638.54 570.381,2638.54 C573.597,2638.54 576.241,2637.12 578.313,2634.27 C580.385,2631.43 581.421,2628.09 581.421,2624.25 L581.421,2623.05 L556.093,2623.05 C554.485,2623.05 553.295,2622.66 552.522,2621.89 C551.749,2621.11 551.362,2620.32 551.362,2619.52 C551.362,2619.21 552.089,2618.14 553.542,2616.32 C554.996,2614.5 556.774,2612.07 558.877,2609.04 C560.979,2606.01 563.067,2602.56 565.139,2598.69 C567.211,2594.83 568.973,2590.19 570.427,2584.78 C571.88,2579.37 572.607,2573.91 572.607,2568.4 C572.607,2566.79 573.287,2565.99 574.648,2565.99 C574.834,2565.99 575.483,2566.15 576.596,2566.45 C577.71,2566.76 579.132,2567.09 580.864,2567.43 C582.596,2567.77 584.266,2567.94 585.874,2567.94"/>
<path class="FiguredBass" d="M1827.82,2569.52 C1823.24,2569.52 1820.2,2571.36 1818.68,2575.04 C1817.17,2578.72 1816.41,2583.93 1816.41,2590.67 L1816.41,2601.62 C1819.63,2600.32 1822.41,2599.64 1824.76,2599.57 C1832.8,2599.57 1839.12,2601.35 1843.73,2604.91 C1848.34,2608.47 1850.64,2613.75 1850.64,2620.77 C1850.64,2627.79 1848.31,2633.1 1843.64,2636.68 C1838.97,2640.27 1832.68,2642.06 1824.76,2642.06 C1816.66,2642.06 1810.32,2638.31 1805.74,2630.79 C1801.16,2623.28 1798.88,2614.36 1798.88,2604.03 C1798.88,2593.76 1801.53,2584.85 1806.85,2577.31 C1812.17,2569.76 1819.16,2565.99 1827.82,2565.99 C1833.51,2565.99 1838.43,2567.43 1842.57,2570.3 C1846.72,2573.18 1848.79,2576.97 1848.79,2581.67 C1848.79,2584.39 1847.8,2586.74 1845.82,2588.72 C1843.84,2590.7 1841.47,2591.69 1838.72,2591.69 C1835.97,2591.69 1833.6,2590.7 1831.62,2588.72 C1829.65,2586.74 1828.66,2584.39 1828.66,2581.67 C1828.66,2579.01 1829.65,2576.66 1831.62,2574.62 C1832.3,2573.81 1833.26,2573.13 1834.5,2572.58 C1834.19,2571.77 1833.57,2571.15 1832.64,2570.72 C1831.28,2569.92 1829.68,2569.52 1827.82,2569.52 M1832.37,2607.46 C1831.25,2604.55 1828.81,2603.1 1825.04,2603.1 C1821.26,2603.1 1818.93,2604.55 1818.03,2607.46 C1817.14,2610.37 1816.69,2614.79 1816.69,2620.73 C1816.69,2627.72 1817.14,2632.42 1818.03,2634.83 C1818.93,2637.24 1821.26,2638.45 1825.04,2638.45 C1828.81,2638.45 1831.25,2636.99 1832.37,2634.09 C1833.48,2631.18 1834.04,2626.74 1834.04,2620.77 C1834.04,2614.8 1833.48,2610.37 1832.37,2607.46"/>
<path class="FiguredBass" d="M1827.17,2673.69 C1829.52,2673.69 1832,2673.35 1834.59,2672.67 L1838.77,2671.56 C1839.57,2671.56 1840.21,2671.86 1840.67,2672.48 C1841.13,2673.1 1841.09,2673.66 1840.53,2674.15 L1797.39,2724.34 L1822.72,2724.34 L1822.72,2704.49 C1822.72,2703.07 1823.1,2701.97 1823.88,2701.2 C1824.65,2700.42 1825.64,2699.8 1826.85,2699.34 C1828.05,2698.88 1829.63,2697.5 1831.58,2695.21 C1833.53,2692.92 1835.4,2689.83 1837.19,2685.93 C1837.5,2685.32 1837.96,2685.01 1838.58,2685.01 C1839.88,2685.01 1840.53,2685.72 1840.53,2687.14 L1840.53,2724.34 L1851.48,2724.34 C1853.02,2724.34 1853.8,2725.05 1853.8,2726.48 C1853.8,2728.02 1853.02,2728.8 1851.48,2728.8 L1840.53,2728.8 L1840.53,2730 C1840.53,2733.84 1841.55,2737.18 1843.59,2740.02 C1845.63,2742.87 1848.26,2744.29 1851.48,2744.29 C1852.71,2744.29 1853.33,2744.85 1853.33,2745.96 C1853.33,2747.2 1852.71,2747.81 1851.48,2747.81 C1849.25,2747.81 1845.94,2747.49 1841.55,2746.84 C1837.16,2746.19 1833.84,2745.87 1831.58,2745.87 C1829.32,2745.87 1826,2746.19 1821.6,2746.84 C1817.21,2747.49 1813.9,2747.81 1811.68,2747.81 C1810.44,2747.81 1809.82,2747.2 1809.82,2745.96 C1809.82,2744.85 1810.44,2744.29 1811.68,2744.29 C1814.89,2744.29 1817.54,2742.87 1819.61,2740.02 C1821.68,2737.18 1822.72,2733.84 1822.72,2730 L1822.72,2728.8 L1797.39,2728.8 C1795.78,2728.8 1794.59,2728.41 1793.82,2727.64 C1793.05,2726.86 1792.66,2726.07 1792.66,2725.27 C1792.66,2724.96 1793.39,2723.89 1794.84,2722.07 C1796.29,2720.25 1798.07,2717.82 1800.17,2714.79 C1802.28,2711.76 1804.36,2708.31 1806.44,2704.44 C1808.51,2700.58 1810.27,2695.94 1811.72,2690.53 C1813.18,2685.12 1813.9,2679.66 1813.9,2674.15 C1813.9,2672.54 1814.59,2671.74 1815.95,2671.74 C1816.13,2671.74 1816.78,2671.9 1817.89,2672.2 C1819.01,2672.51 1820.43,2672.84 1822.16,2673.18 C1823.89,2673.52 1825.56,2673.69 1827.17,2673.69"/>
<path class="FiguredBass" d="M3033.82,2569.52 C3029.24,2569.52 3026.2,2571.36 3024.68,2575.04 C3023.17,2578.72 3022.41,2583.93 3022.41,2590.67 L3022.41,2601.62 C3025.63,2600.32 3028.41,2599.64 3030.76,2599.57 C3038.8,2599.57 3045.12,2601.35 3049.73,2604.91 C3054.34,2608.47 3056.64,2613.75 3056.64,2620.77 C3056.64,2627.79 3054.31,2633.1 3049.64,2636.68 C3044.97,2640.27 3038.68,2642.06 3030.76,2642.06 C3022.66,2642.06 3016.32,2638.31 3011.74,2630.79 C3007.16,2623.28 3004.87,2614.36 3004.87,2604.03 C3004.87,2593.76 3007.53,2584.85 3012.85,2577.31 C3018.17,2569.76 3025.16,2565.99 3033.82,2565.99 C3039.51,2565.99 3044.43,2567.43 3048.57,2570.3 C3052.72,2573.18 3054.79,2576.97 3054.79,2581.67 C3054.79,2584.39 3053.8,2586.74 3051.82,2588.72 C3049.84,2590.7 3047.47,2591.69 3044.72,2591.69 C3041.97,2591.69 3039.6,2590.7 3037.62,2588.72 C3035.64,2586.74 3034.66,2584.39 3034.66,2581.67 C3034.66,2579.01 3035.64,2576.66 3037.62,2574.62 C3038.3,2573.81 3039.26,2573.13 3040.5,2572.58 C3040.19,2571.77 3039.57,2571.15 3038.64,2570.72 C3037.28,2569.92 3035.68,2569.52 3033.82,2569.52 M3038.37,2607.46 C3037.25,2604.55 3034.81,2603.1 3031.04,2603.1 C3027.26,2603.1 3024.93,2604.55 3024.03,2607.46 C3023.14,2610.37 3022.69,2614.79 3022.69,2620.73 C3022.69,2627.72 3023.14,2632.42 3024.03,2634.83 C3024.93,2637.24 3027.26,2638.45 3031.04,2638.45 C3034.81,2638.45 3037.25,2636.99 3038.37,2634.09 C3039.48,2631.18 3040.04,2626.74 3040.04,2620.77 C3040.04,2614.8 3039.48,2610.37 3038.37,2607.46 M3076.31,2616.64 L3076.31,2626.66 L3076.31,2628.33 C3076.31,2632.11 3076.46,2635.45 3076.77,2638.35 C3079.74,2635.82 3082.06,2633.75 3083.73,2632.14 C3085.4,2630.53 3087.02,2628.33 3088.6,2625.55 C3090.18,2622.77 3090.96,2620 3090.96,2617.25 C3090.96,2614.5 3090.38,2612.1 3089.2,2610.06 C3088.03,2608.02 3086.42,2607 3084.38,2607 C3082.03,2607 3080.13,2607.94 3078.67,2609.83 C3077.22,2611.71 3076.43,2613.99 3076.31,2616.64 M3069.91,2643.83 L3068.14,2561.63 C3069.44,2560.83 3070.8,2560.41 3072.22,2560.38 C3073.65,2560.35 3075.01,2560.76 3076.31,2561.63 L3075.29,2605.79 C3079.37,2602.39 3083.98,2600.69 3089.11,2600.69 C3092.94,2600.69 3096.16,2602.23 3098.76,2605.33 C3101.36,2608.42 3102.65,2612.04 3102.65,2616.18 C3102.65,2619.03 3101.85,2621.73 3100.24,2624.3 C3098.63,2626.87 3096.93,2628.92 3095.14,2630.47 C3093.35,2632.01 3090.61,2634.15 3086.93,2636.87 C3083.25,2639.59 3081.04,2641.26 3080.3,2641.88 C3079.8,2642.31 3079.14,2643.09 3078.3,2644.2 C3077.47,2645.31 3076.68,2646.16 3075.94,2646.75 C3075.19,2647.34 3074.36,2647.63 3073.43,2647.63 C3072.44,2647.63 3071.61,2647.28 3070.93,2646.56 C3070.25,2645.85 3069.91,2644.94 3069.91,2643.83"/>
<path class="FiguredBass" d="M3033.17,2673.69 C3035.52,2673.69 3038,2673.35 3040.59,2672.67 L3044.77,2671.56 C3045.57,2671.56 3046.21,2671.86 3046.67,2672.48 C3047.13,2673.1 3047.09,2673.66 3046.53,2674.15 L3003.39,2724.34 L3028.72,2724.34 L3028.72,2704.49 C3028.72,2703.07 3029.1,2701.97 3029.88,2701.2 C3030.65,2700.42 3031.64,2699.8 3032.85,2699.34 C3034.05,2698.88 3035.63,2697.5 3037.58,2695.21 C3039.53,2692.92 3041.4,2689.83 3043.19,2685.93 C3043.5,2685.32 3043.96,2685.01 3044.58,2685.01 C3045.88,2685.01 3046.53,2685.72 3046.53,2687.14 L3046.53,2724.34 L3057.48,2724.34 C3059.02,2724.34 3059.8,2725.05 3059.8,2726.48 C3059.8,2728.02 3059.02,2728.8 3057.48,2728.8 L3046.53,2728.8 L3046.53,2730 C3046.53,2733.84 3047.55,2737.18 3049.59,2740.02 C3051.63,2742.87 3054.26,2744.29 3057.48,2744.29 C3058.71,2744.29 3059.33,2744.85 3059.33,2745.96 C3059.33,2747.2 3058.71,2747.81 3057.48,2747.81 C3055.25,2747.81 3051.94,2747.49 3047.55,2746.84 C3043.16,2746.19 3039.84,2745.87 3037.58,2745.87 C3035.32,2745.87 3032,2746.19 3027.6,2746.84 C3023.21,2747.49 3019.9,2747.81 3017.68,2747.81 C3016.44,2747.81 3015.82,2747.2 3015.82,2745.96 C3015.82,2744.85 3016.44,2744.29 3017.68,2744.29 C3020.89,2744.29 3023.54,2742.87 3025.61,2740.02 C3027.68,2737.18 3028.72,2733.84 3028.72,2730 L3028.72,2728.8 L3003.39,2728.8 C3001.78,2728.8 3000.59,2728.41 2999.82,2727.64 C2999.05,2726.86 2998.66,2726.07 2998.66,2725.27 C2998.66,2724.96 2999.39,2723.89 3000.84,2722.07 C3002.29,2720.25 3004.07,2717.82 3006.17,2714.79 C3008.28,2711.76 3010.36,2708.31 3012.44,2704.44 C3014.51,2700.58 3016.27,2695.94 3017.72,2690.53 C3019.18,2685.12 3019.9,2679.66 3019.9,2674.15 C3019.9,2672.54 3020.58,2671.74 3021.95,2671.74 C3022.13,2671.74 3022.78,2671.9 3023.89,2672.2 C3025.01,2672.51 3026.43,2672.84 3028.16,2673.18 C3029.89,2673.52 3031.56,2673.69 3033.17,2673.69"/>
<path class="FiguredBass" d="M585.874,1771.86 C588.224,1771.86 590.698,1771.52 593.296,1770.84 L597.47,1769.73 C598.274,1769.73 598.908,1770.04 599.372,1770.66 C599.836,1771.28 599.79,1771.83 599.233,1772.33 L556.093,1822.52 L581.421,1822.52 L581.421,1802.66 C581.421,1801.24 581.807,1800.14 582.58,1799.37 C583.353,1798.6 584.343,1797.98 585.549,1797.52 C586.755,1797.05 588.332,1795.68 590.28,1793.39 C592.229,1791.1 594.1,1788.01 595.893,1784.11 C596.202,1783.49 596.666,1783.18 597.285,1783.18 C598.584,1783.18 599.233,1783.89 599.233,1785.32 L599.233,1822.52 L610.18,1822.52 C611.727,1822.52 612.5,1823.23 612.5,1824.65 C612.5,1826.2 611.727,1826.97 610.18,1826.97 L599.233,1826.97 L599.233,1828.18 C599.233,1832.01 600.254,1835.35 602.295,1838.2 C604.336,1841.04 606.964,1842.46 610.18,1842.46 C611.417,1842.46 612.036,1843.02 612.036,1844.13 C612.036,1845.37 611.417,1845.99 610.18,1845.99 C607.954,1845.99 604.645,1845.67 600.254,1845.02 C595.862,1844.37 592.538,1844.04 590.28,1844.04 C588.023,1844.04 584.699,1844.37 580.307,1845.02 C575.916,1845.67 572.607,1845.99 570.381,1845.99 C569.144,1845.99 568.525,1845.37 568.525,1844.13 C568.525,1843.02 569.144,1842.46 570.381,1842.46 C573.597,1842.46 576.241,1841.04 578.313,1838.2 C580.385,1835.35 581.421,1832.01 581.421,1828.18 L581.421,1826.97 L556.093,1826.97 C554.485,1826.97 553.295,1826.58 552.522,1825.81 C551.749,1825.04 551.362,1824.25 551.362,1823.45 C551.362,1823.14 552.089,1822.07 553.542,1820.25 C554.996,1818.42 556.774,1815.99 558.877,1812.96 C560.979,1809.93 563.067,1806.48 565.139,1802.62 C567.211,1798.75 568.973,1794.11 570.427,1788.7 C571.88,1783.29 572.607,1777.83 572.607,1772.33 C572.607,1770.72 573.287,1769.92 574.648,1769.92 C574.834,1769.92 575.483,1770.07 576.596,1770.38 C577.71,1770.69 579.132,1771.01 580.864,1771.35 C582.596,1771.69 584.266,1771.86 585.874,1771.86"/>
<path class="FiguredBass" d="M594.873,1907.95 C599.821,1902.57 602.295,1897.37 602.295,1892.37 C602.295,1888.28 600.547,1885.07 597.053,1882.72 C593.558,1880.37 589.368,1879.19 584.482,1879.19 C581.019,1879.19 578.251,1880.27 576.179,1882.44 C574.107,1884.6 573.071,1887.11 573.071,1889.95 C573.071,1893.42 574.586,1896.05 577.617,1897.84 L594.873,1907.95 M599.419,1910.55 C607.83,1915.43 612.036,1921.87 612.036,1929.85 C612.036,1935.84 609.469,1940.99 604.336,1945.29 C599.202,1949.59 592.182,1951.74 583.276,1951.74 C575.792,1951.74 569.283,1949.76 563.747,1945.8 C558.212,1941.84 555.444,1936.71 555.444,1930.4 C555.444,1928.05 556.124,1925.67 557.485,1923.26 C558.846,1920.85 560.114,1919.04 561.289,1917.83 C562.464,1916.63 564.381,1914.75 567.041,1912.22 C560.856,1907.95 557.763,1902.57 557.763,1896.08 C557.763,1890.51 560.145,1885.72 564.907,1881.7 C569.669,1877.68 576.194,1875.67 584.482,1875.67 C591.1,1875.67 596.836,1877.17 601.692,1880.17 C606.547,1883.16 608.974,1887.23 608.974,1892.37 C608.974,1897.87 605.789,1903.93 599.419,1910.55 M571.587,1914.91 C565.278,1920.41 562.124,1925.58 562.124,1930.4 C562.124,1935.47 564.227,1939.71 568.432,1943.11 C572.638,1946.51 577.586,1948.21 583.276,1948.21 C587.234,1948.21 590.404,1946.95 592.785,1944.41 C595.166,1941.88 596.357,1938.94 596.357,1935.6 C596.357,1931.33 594.594,1928.18 591.069,1926.13 L571.587,1914.91 "/>
<path class="FiguredBass" d="M563.886,1981.42 C563.886,1981.42 565.371,1981.63 568.34,1982.07 C569.638,1982.25 571.092,1982.44 572.7,1982.62 C576.967,1983.12 581.08,1983.36 585.039,1983.36 C588.997,1983.36 593.172,1983.12 597.563,1982.62 C599.295,1982.44 600.81,1982.25 602.109,1982.07 L606.655,1981.42 C607.583,1981.42 608.278,1981.73 608.742,1982.34 C609.206,1982.96 609.16,1983.46 608.603,1983.83 C599.14,1993.29 585.812,1998.02 568.618,1998.02 C567.937,1998.02 567.334,1998.27 566.809,1998.76 C566.283,1999.26 566.02,1999.88 566.02,2000.62 L566.02,2015.19 C570.411,2010.86 575.73,2008.69 581.977,2008.69 C591.007,2008.69 597.981,2010.72 602.898,2014.77 C607.815,2018.82 610.273,2024.96 610.273,2033.18 C610.273,2040.17 607.49,2045.97 601.923,2050.58 C596.357,2055.19 589.708,2057.49 581.977,2057.49 C575.298,2057.49 569.499,2055.97 564.582,2052.94 C559.665,2049.91 557.207,2045.71 557.207,2040.33 C557.207,2037.61 558.196,2035.24 560.175,2033.23 C562.155,2031.22 564.52,2030.21 567.273,2030.21 C570.025,2030.21 572.36,2031.2 574.277,2033.18 C576.194,2035.16 577.153,2037.54 577.153,2040.33 C577.153,2041.56 576.132,2042.91 574.091,2044.36 C572.05,2045.82 571.03,2047.16 571.03,2048.4 C571.03,2052.11 574.679,2053.96 581.977,2053.96 C589.09,2053.96 592.646,2047.04 592.646,2033.18 C592.646,2019.82 589.09,2013.11 581.977,2013.05 C575.607,2013.05 571.154,2014.35 568.618,2016.95 C566.082,2019.55 564.505,2020.84 563.886,2020.84 C562.34,2020.84 561.598,2020.07 561.66,2018.53 L561.66,1983.83 C561.66,1983.15 561.876,1982.58 562.309,1982.11 C562.742,1981.65 563.268,1981.42 563.886,1981.42"/>
<path class="FiguredBass" d="M1827.17,1771.86 C1829.52,1771.86 1832,1771.52 1834.59,1770.84 L1838.77,1769.73 C1839.57,1769.73 1840.21,1770.04 1840.67,1770.66 C1841.13,1771.28 1841.09,1771.83 1840.53,1772.33 L1797.39,1822.52 L1822.72,1822.52 L1822.72,1802.66 C1822.72,1801.24 1823.1,1800.14 1823.88,1799.37 C1824.65,1798.6 1825.64,1797.98 1826.85,1797.52 C1828.05,1797.05 1829.63,1795.68 1831.58,1793.39 C1833.53,1791.1 1835.4,1788.01 1837.19,1784.11 C1837.5,1783.49 1837.96,1783.18 1838.58,1783.18 C1839.88,1783.18 1840.53,1783.89 1840.53,1785.32 L1840.53,1822.52 L1851.48,1822.52 C1853.02,1822.52 1853.8,1823.23 1853.8,1824.65 C1853.8,1826.2 1853.02,1826.97 1851.48,1826.97 L1840.53,1826.97 L1840.53,1828.18 C1840.53,1832.01 1841.55,1835.35 1843.59,1838.2 C1845.63,1841.04 1848.26,1842.46 1851.48,1842.46 C1852.71,1842.46 1853.33,1843.02 1853.33,1844.13 C1853.33,1845.37 1852.71,1845.99 1851.48,1845.99 C1849.25,1845.99 1845.94,1845.67 1841.55,1845.02 C1837.16,1844.37 1833.84,1844.04 1831.58,1844.04 C1829.32,1844.04 1826,1844.37 1821.6,1845.02 C1817.21,1845.67 1813.9,1845.99 1811.68,1845.99 C1810.44,1845.99 1809.82,1845.37 1809.82,1844.13 C1809.82,1843.02 1810.44,1842.46 1811.68,1842.46 C1814.89,1842.46 1817.54,1841.04 1819.61,1838.2 C1821.68,1835.35 1822.72,1832.01 1822.72,1828.18 L1822.72,1826.97 L1797.39,1826.97 C1795.78,1826.97 1794.59,1826.58 1793.82,1825.81 C1793.05,1825.04 1792.66,1824.25 1792.66,1823.45 C1792.66,1823.14 1793.39,1822.07 1794.84,1820.25 C1796.29,1818.42 1798.07,1815.99 1800.17,1812.96 C1802.28,1809.93 1804.36,1806.48 1806.44,1802.62 C1808.51,1798.75 1810.27,1794.11 1811.72,1788.7 C1813.18,1783.29 1813.9,1777.83 1813.9,1772.33 C1813.9,1770.72 1814.59,1769.92 1815.95,1769.92 C1816.13,1769.92 1816.78,1770.07 1817.89,1770.38 C1819.01,1770.69 1820.43,1771.01 1822.16,1771.35 C1823.89,1771.69 1825.56,1771.86 1827.17,1771.86"/>
<path class="FiguredBass" d="M1836.17,1907.95 C1841.12,1902.57 1843.59,1897.37 1843.59,1892.37 C1843.59,1888.28 1841.84,1885.07 1838.35,1882.72 C1834.86,1880.37 1830.67,1879.19 1825.78,1879.19 C1822.32,1879.19 1819.55,1880.27 1817.48,1882.44 C1815.4,1884.6 1814.37,1887.11 1814.37,1889.95 C1814.37,1893.42 1815.88,1896.05 1818.91,1897.84 L1836.17,1907.95 M1840.72,1910.55 C1849.13,1915.43 1853.33,1921.87 1853.33,1929.85 C1853.33,1935.84 1850.77,1940.99 1845.63,1945.29 C1840.5,1949.59 1833.48,1951.74 1824.57,1951.74 C1817.09,1951.74 1810.58,1949.76 1805.04,1945.8 C1799.51,1941.84 1796.74,1936.71 1796.74,1930.4 C1796.74,1928.05 1797.42,1925.67 1798.78,1923.26 C1800.14,1920.85 1801.41,1919.04 1802.59,1917.83 C1803.76,1916.63 1805.68,1914.75 1808.34,1912.22 C1802.15,1907.95 1799.06,1902.57 1799.06,1896.08 C1799.06,1890.51 1801.44,1885.72 1806.2,1881.7 C1810.97,1877.68 1817.49,1875.67 1825.78,1875.67 C1832.4,1875.67 1838.13,1877.17 1842.99,1880.17 C1847.84,1883.16 1850.27,1887.23 1850.27,1892.37 C1850.27,1897.87 1847.09,1903.93 1840.72,1910.55 M1812.88,1914.91 C1806.58,1920.41 1803.42,1925.58 1803.42,1930.4 C1803.42,1935.47 1805.52,1939.71 1809.73,1943.11 C1813.94,1946.51 1818.88,1948.21 1824.57,1948.21 C1828.53,1948.21 1831.7,1946.95 1834.08,1944.41 C1836.46,1941.88 1837.65,1938.94 1837.65,1935.6 C1837.65,1931.33 1835.89,1928.18 1832.37,1926.13 L1812.88,1914.91 "/>
<path class="FiguredBass" d="M1827.82,1984.94 C1823.24,1984.94 1820.2,1986.78 1818.68,1990.46 C1817.17,1994.14 1816.41,1999.35 1816.41,2006.09 L1816.41,2017.04 C1819.63,2015.74 1822.41,2015.06 1824.76,2015 C1832.8,2015 1839.12,2016.78 1843.73,2020.33 C1848.34,2023.89 1850.64,2029.18 1850.64,2036.2 C1850.64,2043.22 1848.31,2048.52 1843.64,2052.11 C1838.97,2055.7 1832.68,2057.49 1824.76,2057.49 C1816.66,2057.49 1810.32,2053.73 1805.74,2046.22 C1801.16,2038.7 1798.88,2029.78 1798.88,2019.45 C1798.88,2009.19 1801.53,2000.28 1806.85,1992.73 C1812.17,1985.19 1819.16,1981.42 1827.82,1981.42 C1833.51,1981.42 1838.43,1982.85 1842.57,1985.73 C1846.72,1988.61 1848.79,1992.39 1848.79,1997.09 C1848.79,1999.82 1847.8,2002.17 1845.82,2004.15 C1843.84,2006.12 1841.47,2007.11 1838.72,2007.11 C1835.97,2007.11 1833.6,2006.12 1831.62,2004.15 C1829.65,2002.17 1828.66,1999.82 1828.66,1997.09 C1828.66,1994.43 1829.65,1992.08 1831.62,1990.04 C1832.3,1989.24 1833.26,1988.56 1834.5,1988 C1834.19,1987.2 1833.57,1986.58 1832.64,1986.15 C1831.28,1985.34 1829.68,1984.94 1827.82,1984.94 M1832.37,2022.89 C1831.25,2019.98 1828.81,2018.53 1825.04,2018.53 C1821.26,2018.53 1818.93,2019.98 1818.03,2022.89 C1817.14,2025.79 1816.69,2030.21 1816.69,2036.15 C1816.69,2043.14 1817.14,2047.84 1818.03,2050.25 C1818.93,2052.67 1821.26,2053.87 1825.04,2053.87 C1828.81,2053.87 1831.25,2052.42 1832.37,2049.51 C1833.48,2046.6 1834.04,2042.17 1834.04,2036.2 C1834.04,2030.23 1833.48,2025.79 1832.37,2022.89"/>
<path class="FiguredBass" d="M3033.17,1771.86 C3035.52,1771.86 3038,1771.52 3040.59,1770.84 L3044.77,1769.73 C3045.57,1769.73 3046.21,1770.04 3046.67,1770.66 C3047.13,1771.28 3047.09,1771.83 3046.53,1772.33 L3003.39,1822.52 L3028.72,1822.52 L3028.72,1802.66 C3028.72,1801.24 3029.1,1800.14 3029.88,1799.37 C3030.65,1798.6 3031.64,1797.98 3032.85,1797.52 C3034.05,1797.05 3035.63,1795.68 3037.58,1793.39 C3039.53,1791.1 3041.4,1788.01 3043.19,1784.11 C3043.5,1783.49 3043.96,1783.18 3044.58,1783.18 C3045.88,1783.18 3046.53,1783.89 3046.53,1785.32 L3046.53,1822.52 L3057.48,1822.52 C3059.02,1822.52 3059.8,1823.23 3059.8,1824.65 C3059.8,1826.2 3059.02,1826.97 3057.48,1826.97 L3046.53,1826.97 L3046.53,1828.18 C3046.53,1832.01 3047.55,1835.35 3049.59,1838.2 C3051.63,1841.04 3054.26,1842.46 3057.48,1842.46 C3058.71,1842.46 3059.33,1843.02 3059.33,1844.13 C3059.33,1845.37 3058.71,1845.99 3057.48,1845.99 C3055.25,1845.99 3051.94,1845.67 3047.55,1845.02 C3043.16,1844.37 3039.84,1844.04 3037.58,1844.04 C3035.32,1844.04 3032,1844.37 3027.6,1845.02 C3023.21,1845.67 3019.9,1845.99 3017.68,1845.99 C3016.44,1845.99 3015.82,1845.37 3015.82,1844.13 C3015.82,1843.02 3016.44,1842.46 3017.68,1842.46 C3020.89,1842.46 3023.54,1841.04 3025.61,1838.2 C3027.68,1835.35 3028.72,1832.01 3028.72,1828.18 L3028.72,1826.97 L3003.39,1826.97 C3001.78,1826.97 3000.59,1826.58 2999.82,1825.81 C2999.05,1825.04 2998.66,1824.25 2998.66,1823.45 C2998.66,1823.14 2999.39,1822.07 3000.84,1820.25 C3002.29,1818.42 3004.07,1815.99 3006.17,1812.96 C3008.28,1809.93 3010.36,1806.48 3012.44,1802.62 C3014.51,1798.75 3016.27,1794.11 3017.72,1788.7 C3019.18,1783.29 3019.9,1777.83 3019.9,1772.33 C3019.9,1770.72 3020.58,1769.92 3021.95,1769.92 C3022.13,1769.92 3022.78,1770.07 3023.89,1770.38 C3025.01,1770.69 3026.43,1771.01 3028.16,1771.35 C3029.89,1771.69 3031.56,1771.86 3033.17,1771.86"/>
<path class="FiguredBass" d="M3042.17,1907.95 C3047.12,1902.57 3049.59,1897.37 3049.59,1892.37 C3049.59,1888.28 3047.84,1885.07 3044.35,1882.72 C3040.86,1880.37 3036.67,1879.19 3031.78,1879.19 C3028.32,1879.19 3025.55,1880.27 3023.48,1882.44 C3021.4,1884.6 3020.37,1887.11 3020.37,1889.95 C3020.37,1893.42 3021.88,1896.05 3024.91,1897.84 L3042.17,1907.95 M3046.72,1910.55 C3055.13,1915.43 3059.33,1921.87 3059.33,1929.85 C3059.33,1935.84 3056.77,1940.99 3051.63,1945.29 C3046.5,1949.59 3039.48,1951.74 3030.57,1951.74 C3023.09,1951.74 3016.58,1949.76 3011.04,1945.8 C3005.51,1941.84 3002.74,1936.71 3002.74,1930.4 C3002.74,1928.05 3003.42,1925.67 3004.78,1923.26 C3006.14,1920.85 3007.41,1919.04 3008.59,1917.83 C3009.76,1916.63 3011.68,1914.75 3014.34,1912.22 C3008.15,1907.95 3005.06,1902.57 3005.06,1896.08 C3005.06,1890.51 3007.44,1885.72 3012.2,1881.7 C3016.97,1877.68 3023.49,1875.67 3031.78,1875.67 C3038.4,1875.67 3044.13,1877.17 3048.99,1880.17 C3053.84,1883.16 3056.27,1887.23 3056.27,1892.37 C3056.27,1897.87 3053.09,1903.93 3046.72,1910.55 M3018.88,1914.91 C3012.58,1920.41 3009.42,1925.58 3009.42,1930.4 C3009.42,1935.47 3011.52,1939.71 3015.73,1943.11 C3019.94,1946.51 3024.88,1948.21 3030.57,1948.21 C3034.53,1948.21 3037.7,1946.95 3040.08,1944.41 C3042.46,1941.88 3043.65,1938.94 3043.65,1935.6 C3043.65,1931.33 3041.89,1928.18 3038.37,1926.13 L3018.88,1914.91 "/>
<path class="FiguredBass" d="M3033.82,1984.94 C3029.24,1984.94 3026.2,1986.78 3024.68,1990.46 C3023.17,1994.14 3022.41,1999.35 3022.41,2006.09 L3022.41,2017.04 C3025.63,2015.74 3028.41,2015.06 3030.76,2015 C3038.8,2015 3045.12,2016.78 3049.73,2020.33 C3054.34,2023.89 3056.64,2029.18 3056.64,2036.2 C3056.64,2043.22 3054.31,2048.52 3049.64,2052.11 C3044.97,2055.7 3038.68,2057.49 3030.76,2057.49 C3022.66,2057.49 3016.32,2053.73 3011.74,2046.22 C3007.16,2038.7 3004.87,2029.78 3004.87,2019.45 C3004.87,2009.19 3007.53,2000.28 3012.85,1992.73 C3018.17,1985.19 3025.16,1981.42 3033.82,1981.42 C3039.51,1981.42 3044.43,1982.85 3048.57,1985.73 C3052.72,1988.61 3054.79,1992.39 3054.79,1997.09 C3054.79,1999.82 3053.8,2002.17 3051.82,2004.15 C3049.84,2006.12 3047.47,2007.11 3044.72,2007.11 C3041.97,2007.11 3039.6,2006.12 3037.62,2004.15 C3035.64,2002.17 3034.66,1999.82 3034.66,1997.09 C3034.66,1994.43 3035.64,1992.08 3037.62,1990.04 C3038.3,1989.24 3039.26,1988.56 3040.5,1988 C3040.19,1987.2 3039.57,1986.58 3038.64,1986.15 C3037.28,1985.34 3035.68,1984.94 3033.82,1984.94 M3038.37,2022.89 C3037.25,2019.98 3034.81,2018.53 3031.04,2018.53 C3027.26,2018.53 3024.93,2019.98 3024.03,2022.89 C3023.14,2025.79 3022.69,2030.21 3022.69,2036.15 C3022.69,2043.14 3023.14,2047.84 3024.03,2050.25 C3024.93,2052.67 3027.26,2053.87 3031.04,2053.87 C3034.81,2053.87 3037.25,2052.42 3038.37,2049.51 C3039.48,2046.6 3040.04,2042.17 3040.04,2036.2 C3040.04,2030.23 3039.48,2025.79 3038.37,2022.89"/>
<polyline class="FretDiagram" stroke="#fc0107" stroke-width="4.76" stroke-linejoin="bevel" points="482.904,206.022 696.013,206.022"/>
<polyline class="FretDiagram" stroke="#fc0107" stroke-width="4.76" stroke-linejoin="bevel" points="485.285,194.117 485.285,420.321"/>
<polyline class="FretDiagram" stroke="#fc0107" stroke-width="4.76" stroke-linejoin="bevel" points="526.954,194.117 526.954,420.321"/>
<polyline class="FretDiagram" stroke="#fc0107" stroke-width="4.76" stroke-linejoin="bevel" points="568.624,194.117 568.624,420.321"/>
<polyline class="FretDiagram" stroke="#fc0107" stroke-width="4.76" stroke-linejoin="bevel" points="610.293,194.117 610.293,420.321"/>
<polyline class="FretDiagram" stroke="#fc0107" stroke-width="4.76" stroke-linejoin="bevel" points="651.962,194.117 651.962,420.321"/>
<polyline class="FretDiagram" stroke="#fc0107" stroke-width="4.76" stroke-linejoin="bevel" points="693.631,194.117 693.631,420.321"/>
<polyline class="FretDiagram" stroke="#fc0107" stroke-width="4.76" stroke-linejoin="bevel" points="485.285,253.644 693.631,253.644"/>
<polyline class="FretDiagram" stroke="#fc0107" stroke-width="4.76" stroke-linejoin="bevel" points="485.285,301.266 693.631,301.266"/>
<polyline class="FretDiagram" stroke="#fc0107" stroke-width="4.76" stroke-linejoin="bevel" points="485.285,348.888 693.631,348.888"/>
<polyline class="FretDiagram" stroke="#fc0107" stroke-width="4.76" stroke-linejoin="bevel" points="485.285,396.51 693.631,396.51"/>
<path class="FretDiagram" fill="#fc0107" fill-rule="evenodd" d="M583.208,325.077 C583.208,333.132 576.678,339.661 568.624,339.661 C560.569,339.661 554.039,333.132 554.039,325.077 C554.039,317.023 560.569,310.493 568.624,310.493 C576.678,310.493 583.208,317.023 583.208,325.077"/>
<path class="FretDiagram" fill="#fc0107" fill-rule="evenodd" d="M624.877,372.699 C624.877,380.754 618.347,387.284 610.293,387.284 C602.238,387.284 595.709,380.754 595.709,372.699 C595.709,364.645 602.238,358.115 610.293,358.115 C618.347,358.115 624.877,364.645 624.877,372.699"/>
<polyline class="FretDiagram" fill="none" stroke="#fc0107" stroke-width="6.86" stroke-linecap="round" stroke-linejoin="bevel" points="468.617,141.732 501.953,175.068"/>
<polyline class="FretDiagram" fill="none" stroke="#fc0107" stroke-width="6.86" stroke-linecap="round" stroke-linejoin="bevel" points="468.617,175.068 501.953,141.732"/>
<polyline class="FretDiagram" fill="none" stroke="#fc0107" stroke-width="6.86" stroke-linecap="round" stroke-linejoin="bevel" points="510.287,141.732 543.622,175.068"/>
<polyline class="FretDiagram" fill="none" stroke="#fc0107" stroke-width="6.86" stroke-linecap="round" stroke-linejoin="bevel" points="510.287,175.068 543.622,141.732"/>
<path class="FretDiagram" fill="none" stroke="#fc0107" stroke-width="6.86" stroke-linecap="round" stroke-linejoin="bevel" fill-rule="evenodd" d="M668.63,158.4 C668.63,167.605 661.167,175.068 651.962,175.068 C642.757,175.068 635.294,167.605 635.294,158.4 C635.294,149.195 642.757,141.732 651.962,141.732 C661.167,141.732 668.63,149.195 668.63,158.4"/>
<path class="FretDiagram" fill="none" stroke="#fc0107" stroke-width="6.86" stroke-linecap="round" stroke-linejoin="bevel" fill-rule="evenodd" d="M710.299,158.4 C710.299,167.605 702.837,175.068 693.631,175.068 C684.426,175.068 676.964,167.605 676.964,158.4 C676.964,149.195 684.426,141.732 693.631,141.732 C702.837,141.732 710.299,149.195 710.299,158.4"/>
<polyline class="FretDiagram" fill="none" stroke="#fc0107" stroke-width="29.17" stroke-linecap="round" stroke-linejoin="bevel" points="568.624,229.833 693.631,229.833"/>
<path class="FretDiagram" fill="#fc0107" d="M441.466,203.045 C436.653,203.045 433.344,204.359 431.539,206.987 C429.734,209.615 428.768,213.115 428.641,217.485 L420.281,217.485 C420.598,202.981 427.628,195.73 441.371,195.73 C447.768,195.73 452.787,197.376 456.429,200.67 C460.07,203.963 461.891,208.491 461.891,214.255 C461.891,221.095 458.756,225.75 452.486,228.22 C456.54,229.613 459.453,231.56 461.226,234.062 C463,236.564 463.886,239.968 463.886,244.275 C463.886,250.671 461.812,255.77 457.664,259.57 C453.515,263.37 447.99,265.27 441.086,265.27 C427.28,265.27 419.87,258.018 418.856,243.515 L427.216,243.515 C427.533,248.391 428.831,252.001 431.111,254.345 C433.391,256.688 436.811,257.86 441.371,257.86 C445.741,257.86 449.161,256.672 451.631,254.297 C454.101,251.922 455.336,248.613 455.336,244.37 C455.336,236.2 450.681,232.115 441.371,232.115 L437.856,232.21 L436.811,232.21 L436.811,225.085 C442.828,224.958 447.087,224.198 449.589,222.805 C452.09,221.411 453.341,218.656 453.341,214.54 C453.341,210.993 452.28,208.19 450.159,206.132 C448.037,204.074 445.14,203.045 441.466,203.045"/>
<polyline class="FretDiagram" fill="#fc0107" stroke="#fc0107" stroke-width="4.76" stroke-linejoin="bevel" points="1724.2,206.022 1937.31,206.022"/>
<polyline class="FretDiagram" fill="#fc0107" stroke="#fc0107" stroke-width="4.76" stroke-linejoin="bevel" points="1726.58,194.117 1726.58,420.321"/>
<polyline class="FretDiagram" fill="#fc0107" stroke="#fc0107" stroke-width="4.76" stroke-linejoin="bevel" points="1768.25,194.117 1768.25,420.321"/>
<polyline class="FretDiagram" fill="#fc0107" stroke="#fc0107" stroke-width="4.76" stroke-linejoin="bevel" points="1809.92,194.117 1809.92,420.321"/>
<polyline class="FretDiagram" fill="#fc0107" stroke="#fc0107" stroke-width="4.76" stroke-linejoin="bevel" points="1851.59,194.117 1851.59,420.321"/>
<polyline class="FretDiagram" fill="#fc0107" stroke="#fc0107" stroke-width="4.76" stroke-linejoin="bevel" points="1893.26,194.117 1893.26,420.321"/>
<polyline class="FretDiagram" fill="#fc0107" stroke="#fc0107" stroke-width="4.76" stroke-linejoin="bevel" points="1934.93,194.117 1934.93,420.321"/>
<polyline class="FretDiagram" fill="#fc0107" stroke="#fc0107" stroke-width="4.76" stroke-linejoin="bevel" points="1726.58,253.644 1934.93,253.644"/>
<polyline class="FretDiagram" fill="#fc0107" stroke="#fc0107" stroke-width="4.76" stroke-linejoin="bevel" points="1726.58,301.266 1934.93,301.266"/>
<polyline class="FretDiagram" fill="#fc0107" stroke="#fc0107" stroke-width="4.76" stroke-linejoin="bevel" points="1726.58,348.888 1934.93,348.888"/>
<polyline class="FretDiagram" fill="#fc0107" stroke="#fc0107" stroke-width="4.76" stroke-linejoin="bevel" points="1726.58,396.51 1934.93,396.51"/>
<path class="FretDiagram" fill="#fc0107" fill-rule="evenodd" d="M1824.51,325.077 C1824.51,333.132 1817.98,339.661 1809.92,339.661 C1801.87,339.661 1795.34,333.132 1795.34,325.077 C1795.34,317.023 1801.87,310.493 1809.92,310.493 C1817.98,310.493 1824.51,317.023 1824.51,325.077"/>
<path class="FretDiagram" fill="#fc0107" fill-rule="evenodd" d="M1866.17,372.699 C1866.17,380.754 1859.65,387.284 1851.59,387.284 C1843.54,387.284 1837.01,380.754 1837.01,372.699 C1837.01,364.645 1843.54,358.115 1851.59,358.115 C1859.65,358.115 1866.17,364.645 1866.17,372.699"/>
<path class="FretDiagram" fill="#fc0107" fill-rule="evenodd" d="M1907.84,325.077 C1907.84,333.132 1901.31,339.661 1893.26,339.661 C1885.21,339.661 1878.68,333.132 1878.68,325.077 C1878.68,317.023 1885.21,310.493 1893.26,310.493 C1901.31,310.493 1907.84,317.023 1907.84,325.077"/>
<polyline class="FretDiagram" fill="none" stroke="#fc0107" stroke-width="6.86" stroke-linecap="round" stroke-linejoin="bevel" points="1709.91,141.732 1743.25,175.068"/>
<polyline class="FretDiagram" fill="none" stroke="#fc0107" stroke-width="6.86" stroke-linecap="round" stroke-linejoin="bevel" points="1709.91,175.068 1743.25,141.732"/>
<polyline class="FretDiagram" fill="none" stroke="#fc0107" stroke-width="6.86" stroke-linecap="round" stroke-linejoin="bevel" points="1751.58,141.732 1784.92,175.068"/>
<polyline class="FretDiagram" fill="none" stroke="#fc0107" stroke-width="6.86" stroke-linecap="round" stroke-linejoin="bevel" points="1751.58,175.068 1784.92,141.732"/>
<path class="FretDiagram" fill="none" stroke="#fc0107" stroke-width="6.86" stroke-linecap="round" stroke-linejoin="bevel" fill-rule="evenodd" d="M1951.6,158.4 C1951.6,167.605 1944.13,175.068 1934.93,175.068 C1925.72,175.068 1918.26,167.605 1918.26,158.4 C1918.26,149.195 1925.72,141.732 1934.93,141.732 C1944.13,141.732 1951.6,149.195 1951.6,158.4"/>
<polyline class="FretDiagram" fill="none" stroke="#fc0107" stroke-width="29.17" stroke-linecap="round" stroke-linejoin="bevel" points="1809.92,229.833 1934.93,229.833"/>
<path class="FretDiagram" fill="#fc0107" d="M1682.76,203.045 C1677.95,203.045 1674.64,204.359 1672.84,206.987 C1671.03,209.615 1670.07,213.115 1669.94,217.485 L1661.58,217.485 C1661.9,202.981 1668.93,195.73 1682.67,195.73 C1689.07,195.73 1694.08,197.376 1697.73,200.67 C1701.37,203.963 1703.19,208.491 1703.19,214.255 C1703.19,221.095 1700.05,225.75 1693.78,228.22 C1697.84,229.613 1700.75,231.56 1702.52,234.062 C1704.3,236.564 1705.18,239.968 1705.18,244.275 C1705.18,250.671 1703.11,255.77 1698.96,259.57 C1694.81,263.37 1689.29,265.27 1682.38,265.27 C1668.58,265.27 1661.17,258.018 1660.15,243.515 L1668.51,243.515 C1668.83,248.391 1670.13,252.001 1672.41,254.345 C1674.69,256.688 1678.11,257.86 1682.67,257.86 C1687.04,257.86 1690.46,256.672 1692.93,254.297 C1695.4,251.922 1696.63,248.613 1696.63,244.37 C1696.63,236.2 1691.98,232.115 1682.67,232.115 L1679.15,232.21 L1678.11,232.21 L1678.11,225.085 C1684.13,224.958 1688.38,224.198 1690.89,222.805 C1693.39,221.411 1694.64,218.656 1694.64,214.54 C1694.64,210.993 1693.58,208.19 1691.46,206.132 C1689.33,204.074 1686.44,203.045 1682.76,203.045"/>
<polyline class="FretDiagram" fill="#fc0107" stroke="#fc0107" stroke-width="4.76" stroke-linejoin="bevel" points="2930.2,206.022 3143.31,206.022"/>
<polyline class="FretDiagram" fill="#fc0107" stroke="#fc0107" stroke-width="4.76" stroke-linejoin="bevel" points="2932.58,194.117 2932.58,420.321"/>
<polyline class="FretDiagram" fill="#fc0107" stroke="#fc0107" stroke-width="4.76" stroke-linejoin="bevel" points="2974.25,194.117 2974.25,420.321"/>
<polyline class="FretDiagram" fill="#fc0107" stroke="#fc0107" stroke-width="4.76" stroke-linejoin="bevel" points="3015.92,194.117 3015.92,420.321"/>
<polyline class="FretDiagram" fill="#fc0107" stroke="#fc0107" stroke-width="4.76" stroke-linejoin="bevel" points="3057.59,194.117 3057.59,420.321"/>
<polyline class="FretDiagram" fill="#fc0107" stroke="#fc0107" stroke-width="4.76" stroke-linejoin="bevel" points="3099.26,194.117 3099.26,420.321"/>
<polyline class="FretDiagram" fill="#fc0107" stroke="#fc0107" stroke-width="4.76" stroke-linejoin="bevel" points="3140.93,194.117 3140.93,420.321"/>
<polyline class="FretDiagram" fill="#fc0107" stroke="#fc0107" stroke-width="4.76" stroke-linejoin="bevel" points="2932.58,253.644 3140.93,253.644"/>
<polyline class="FretDiagram" fill="#fc0107" stroke="#fc0107" stroke-width="4.76" stroke-linejoin="bevel" points="2932.58,301.266 3140.93,301.266"/>
<polyline class="FretDiagram" fill="#fc0107" stroke="#fc0107" stroke-width="4.76" stroke-linejoin="bevel" points="2932.58,348.888 3140.93,348.888"/>
<polyline class="FretDiagram" fill="#fc0107" stroke="#fc0107" stroke-width="4.76" stroke-linejoin="bevel" points="2932.58,396.51 3140.93,396.51"/>
<path class="FretDiagram" fill="#fc0107" fill-rule="evenodd" d="M3030.5,325.077 C3030.5,333.132 3023.98,339.661 3015.92,339.661 C3007.87,339.661 3001.34,333.132 3001.34,325.077 C3001.34,317.023 3007.87,310.493 3015.92,310.493 C3023.98,310.493 3030.5,317.023 3030.5,325.077"/>
<path class="FretDiagram" fill="#fc0107" fill-rule="evenodd" d="M3072.17,372.699 C3072.17,380.754 3065.64,387.284 3057.59,387.284 C3049.54,387.284 3043.01,380.754 3043.01,372.699 C3043.01,364.645 3049.54,358.115 3057.59,358.115 C3065.64,358.115 3072.17,364.645 3072.17,372.699"/>
<path class="FretDiagram" fill="#fc0107" fill-rule="evenodd" d="M3113.84,277.455 C3113.84,285.51 3107.31,292.039 3099.26,292.039 C3091.2,292.039 3084.68,285.51 3084.68,277.455 C3084.68,269.401 3091.2,262.871 3099.26,262.871 C3107.31,262.871 3113.84,269.401 3113.84,277.455"/>
<polyline class="FretDiagram" fill="none" stroke="#fc0107" stroke-width="6.86" stroke-linecap="round" stroke-linejoin="bevel" points="2915.91,141.732 2949.25,175.068"/>
<polyline class="FretDiagram" fill="none" stroke="#fc0107" stroke-width="6.86" stroke-linecap="round" stroke-linejoin="bevel" points="2915.91,175.068 2949.25,141.732"/>
<polyline class="FretDiagram" fill="none" stroke="#fc0107" stroke-width="6.86" stroke-linecap="round" stroke-linejoin="bevel" points="2957.58,141.732 2990.92,175.068"/>
<polyline class="FretDiagram" fill="none" stroke="#fc0107" stroke-width="6.86" stroke-linecap="round" stroke-linejoin="bevel" points="2957.58,175.068 2990.92,141.732"/>
<path class="FretDiagram" fill="none" stroke="#fc0107" stroke-width="6.86" stroke-linecap="round" stroke-linejoin="bevel" fill-rule="evenodd" d="M3157.6,158.4 C3157.6,167.605 3150.13,175.068 3140.93,175.068 C3131.72,175.068 3124.26,167.605 3124.26,158.4 C3124.26,149.195 3131.72,141.732 3140.93,141.732 C3150.13,141.732 3157.6,149.195 3157.6,158.4"/>
<polyline class="FretDiagram" fill="none" stroke="#fc0107" stroke-width="29.17" stroke-linecap="round" stroke-linejoin="bevel" points="3015.92,229.833 3140.93,229.833"/>
<path class="FretDiagram" fill="#fc0107" d="M2888.76,203.045 C2883.95,203.045 2880.64,204.359 2878.84,206.987 C2877.03,209.615 2876.07,213.115 2875.94,217.485 L2867.58,217.485 C2867.9,202.981 2874.93,195.73 2888.67,195.73 C2895.07,195.73 2900.08,197.376 2903.73,200.67 C2907.37,203.963 2909.19,208.491 2909.19,214.255 C2909.19,221.095 2906.05,225.75 2899.78,228.22 C2903.84,229.613 2906.75,231.56 2908.52,234.062 C2910.3,236.564 2911.18,239.968 2911.18,244.275 C2911.18,250.671 2909.11,255.77 2904.96,259.57 C2900.81,263.37 2895.29,265.27 2888.38,265.27 C2874.58,265.27 2867.17,258.018 2866.15,243.515 L2874.51,243.515 C2874.83,248.391 2876.13,252.001 2878.41,254.345 C2880.69,256.688 2884.11,257.86 2888.67,257.86 C2893.04,257.86 2896.46,256.672 2898.93,254.297 C2901.4,251.922 2902.63,248.613 2902.63,244.37 C2902.63,236.2 2897.98,232.115 2888.67,232.115 L2885.15,232.21 L2884.11,232.21 L2884.11,225.085 C2890.13,224.958 2894.38,224.198 2896.89,222.805 C2899.39,221.411 2900.64,218.656 2900.64,214.54 C2900.64,210.993 2899.58,208.19 2897.46,206.132 C2895.33,204.074 2892.44,203.045 2888.76,203.045"/>
<path class="Bracket" transform="matrix(8.6315,0,0,10.3419,76.1283,2434.33)" d="M0.92002,-50 C2.69004,-51.88 6.2,-55.8 6.2,-63 C6.2,-72.1 2.25996,-81.32 2.25996,-86.97 C2.25996,-93.06 5.84004,-98.84 5.95,-99 C6.05996,-99.16 6.05,-99.39 5.94004,-99.46 C5.82998,-99.53 5.62002,-99.47 5.49004,-99.32 C5.35996,-99.17 0,-93.75 0,-85.6 C0,-76.75 3.5,-70.58 3.5,-59.07 C3.5,-56.89 2.55996,-53.36 0.1,-50.33 C-0.0799805,-50.17 -0.1,-49.89 0.0599609,-49.7 L0.0700195,-49.69 L0.1,-49.66 C2.55996,-46.63 3.5,-43.1 3.5,-40.92 C3.5,-29.4 0,-23.24 0,-14.39 C0,-6.25 5.35996,-0.8 5.49004,-0.659961 C5.62002,-0.52002 5.8,-0.42998 5.94004,-0.52002 C6.07998,-0.609961 6.07998,-0.77998 5.95,-0.97998 C5.82002,-1.17998 2.25996,-6.92002 2.25996,-13.01 C2.25996,-18.66 6.2,-27.9 6.2,-37 C6.2,-44.3 2.69004,-48.12 0.92002,-50"/>
</svg>
