<?xml version="1.0" encoding="UTF-8" standalone="no"?>
<svg width="4209.44px" height="2976.38px" viewBox="0 0 4209.44 2976.38"
 xmlns="http://www.w3.org/2000/svg" xmlns:xlink="http://www.w3.org/1999/xlink" version="1.2" baseProfile="tiny">
<title>Cordes (30)</title>
<desc>Generated by MuseScore 3.6.2</desc>
<polyline class="StaffLines" fill="none" stroke="#000000" stroke-width="6.55" stroke-linejoin="bevel" points="153.819,558.425 4138.58,558.425"/>
<polyline class="StaffLines" fill="none" stroke="#000000" stroke-width="6.55" stroke-linejoin="bevel" points="153.819,647.717 4138.58,647.717"/>
<polyline class="StaffLines" fill="none" stroke="#000000" stroke-width="6.55" stroke-linejoin="bevel" points="153.819,737.008 4138.58,737.008"/>
<polyline class="StaffLines" fill="none" stroke="#000000" stroke-width="6.55" stroke-linejoin="bevel" points="153.819,826.299 4138.58,826.299"/>
<polyline class="StaffLines" fill="none" stroke="#000000" stroke-width="6.55" stroke-linejoin="bevel" points="153.819,915.591 4138.58,915.591"/>
<polyline class="StaffLines" fill="none" stroke="#000000" stroke-width="6.55" stroke-linejoin="bevel" points="153.819,1004.88 4138.58,1004.88"/>
<polyline class="StaffLines" fill="none" stroke="#000000" stroke-width="6.55" stroke-linejoin="bevel" points="153.819,1391.81 4138.58,1391.81"/>
<polyline class="StaffLines" fill="none" stroke="#000000" stroke-width="6.55" stroke-linejoin="bevel" points="153.819,1451.34 4138.58,1451.34"/>
<polyline class="StaffLines" fill="none" stroke="#000000" stroke-width="6.55" stroke-linejoin="bevel" points="153.819,1510.87 4138.58,1510.87"/>
<polyline class="StaffLines" fill="none" stroke="#000000" stroke-width="6.55" stroke-linejoin="bevel" points="153.819,1570.39 4138.58,1570.39"/>
<polyline class="StaffLines" fill="none" stroke="#000000" stroke-width="6.55" stroke-linejoin="bevel" points="153.819,1629.92 4138.58,1629.92"/>
<polyline class="StaffLines" fill="none" stroke="#000000" stroke-width="6.55" stroke-linejoin="bevel" points="153.819,2099.26 4138.58,2099.26"/>
<polyline class="StaffLines" fill="none" stroke="#000000" stroke-width="6.55" stroke-linejoin="bevel" points="153.819,2158.79 4138.58,2158.79"/>
<polyline class="StaffLines" fill="none" stroke="#000000" stroke-width="6.55" stroke-linejoin="bevel" points="153.819,2218.32 4138.58,2218.32"/>
<polyline class="StaffLines" fill="none" stroke="#000000" stroke-width="6.55" stroke-linejoin="bevel" points="153.819,2277.85 4138.58,2277.85"/>
<polyline class="StaffLines" fill="none" stroke="#000000" stroke-width="6.55" stroke-linejoin="bevel" points="153.819,2337.37 4138.58,2337.37"/>
<polyline class="BarLine" fill="none" stroke="#000000" stroke-width="10.71" stroke-linejoin="bevel" points="159.176,2095.99 159.176,2340.65"/>
<polyline class="BarLine" fill="none" stroke="#000000" stroke-width="10.71" stroke-linejoin="bevel" points="1049.6,2095.99 1049.6,2340.65"/>
<polyline class="BarLine" fill="none" stroke="#000000" stroke-width="10.71" stroke-linejoin="bevel" points="1591.06,2095.99 1591.06,2340.65"/>
<polyline class="BarLine" fill="none" stroke="#000000" stroke-width="10.71" stroke-linejoin="bevel" points="2193.6,2095.99 2193.6,2340.65"/>
<polyline class="BarLine" fill="none" stroke="#000000" stroke-width="10.71" stroke-linejoin="bevel" points="2796.14,2095.99 2796.14,2340.65"/>
<polyline class="BarLine" fill="none" stroke="#000000" stroke-width="10.71" stroke-linejoin="bevel" points="2828.88,2095.99 2828.88,2340.65"/>
<polyline class="BarLine" fill="none" stroke="#000000" stroke-width="10.71" stroke-linejoin="bevel" points="3474.04,2095.99 3474.04,2340.65"/>
<polyline class="BarLine" fill="none" stroke="#000000" stroke-width="10.71" stroke-linejoin="bevel" points="4100.48,2095.99 4100.48,2340.65"/>
<polyline class="BarLine" fill="none" stroke="#000000" stroke-width="10.71" stroke-linejoin="bevel" points="4133.22,2095.99 4133.22,2340.65"/>
<polyline class="BarLine" fill="none" stroke="#000000" stroke-width="10.71" stroke-linejoin="bevel" points="159.176,1388.54 159.176,2099.26"/>
<polyline class="BarLine" fill="none" stroke="#000000" stroke-width="10.71" stroke-linejoin="bevel" points="1049.6,1388.54 1049.6,1633.2"/>
<polyline class="BarLine" fill="none" stroke="#000000" stroke-width="10.71" stroke-linejoin="bevel" points="1591.06,1388.54 1591.06,1633.2"/>
<polyline class="BarLine" fill="none" stroke="#000000" stroke-width="10.71" stroke-linejoin="bevel" points="2193.6,1388.54 2193.6,1633.2"/>
<polyline class="BarLine" fill="none" stroke="#000000" stroke-width="10.71" stroke-linejoin="bevel" points="2796.14,1388.54 2796.14,1633.2"/>
<polyline class="BarLine" fill="none" stroke="#000000" stroke-width="10.71" stroke-linejoin="bevel" points="2828.88,1388.54 2828.88,1633.2"/>
<polyline class="BarLine" fill="none" stroke="#000000" stroke-width="10.71" stroke-linejoin="bevel" points="3474.04,1388.54 3474.04,1633.2"/>
<polyline class="BarLine" fill="none" stroke="#000000" stroke-width="10.71" stroke-linejoin="bevel" points="4100.48,1388.54 4100.48,1633.2"/>
<polyline class="BarLine" fill="none" stroke="#000000" stroke-width="10.71" stroke-linejoin="bevel" points="4133.22,1388.54 4133.22,1633.2"/>
<polyline class="BarLine" fill="none" stroke="#000000" stroke-width="10.71" stroke-linejoin="bevel" points="159.176,555.151 159.176,1391.81"/>
<polyline class="BarLine" fill="none" stroke="#000000" stroke-width="10.71" stroke-linejoin="bevel" points="1049.6,555.151 1049.6,1008.16"/>
<polyline class="BarLine" fill="none" stroke="#000000" stroke-width="10.71" stroke-linejoin="bevel" points="1591.06,555.151 1591.06,1008.16"/>
<polyline class="BarLine" fill="none" stroke="#000000" stroke-width="10.71" stroke-linejoin="bevel" points="2193.6,555.151 2193.6,1008.16"/>
<polyline class="BarLine" fill="none" stroke="#000000" stroke-width="10.71" stroke-linejoin="bevel" points="2796.14,555.151 2796.14,1008.16"/>
<polyline class="BarLine" fill="none" stroke="#000000" stroke-width="10.71" stroke-linejoin="bevel" points="2828.88,555.151 2828.88,1008.16"/>
<polyline class="BarLine" fill="none" stroke="#000000" stroke-width="10.71" stroke-linejoin="bevel" points="3474.04,555.151 3474.04,1008.16"/>
<polyline class="BarLine" fill="none" stroke="#000000" stroke-width="10.71" stroke-linejoin="bevel" points="4100.48,555.151 4100.48,1008.16"/>
<polyline class="BarLine" fill="none" stroke="#000000" stroke-width="10.71" stroke-linejoin="bevel" points="4133.22,555.151 4133.22,1008.16"/>
<path class="Accidental" transform="matrix(2.3811,0,0,2.3811,2880.31,2277.85)" d="M20.1,-7.9 C19.5,-11.8 17.1,-15.5 12,-15.5 C7,-15.5 4.1,-12.4 3.6,-11.8 L4,-43.9 C4,-44.7 3.4,-45.3 2.6,-45.3 L1.4,-45.3 C0.6,-45.3 0,-44.7 0,-43.9 L0.5,16.2 C0.5,17 1.1,17.6 1.9,17.6 C2.1,17.6 2.5,17.5 2.7,17.4 C3.1,17.2 9.6,14 15,7.9 C18.8,3.6 20.3,-1.3 20.3,-5.4 C20.3,-6.3 20.2,-7.1 20.1,-7.9 M13.2,-4 C13.2,-2.5 12.8,2.1 10.3,5.9 C8.6,8.5 5.2,11.2 3.3,12.7 L3.6,-6.8 C3.8,-7.7 5.3,-10.6 9.3,-10.6 C12.9,-10.6 13.2,-7.2 13.2,-5.1 L13.2,-4 "/>
<path class="Accidental" transform="matrix(2.3811,0,0,2.3811,3598.33,2277.85)" d="M20.1,-7.9 C19.5,-11.8 17.1,-15.5 12,-15.5 C7,-15.5 4.1,-12.4 3.6,-11.8 L4,-43.9 C4,-44.7 3.4,-45.3 2.6,-45.3 L1.4,-45.3 C0.6,-45.3 0,-44.7 0,-43.9 L0.5,16.2 C0.5,17 1.1,17.6 1.9,17.6 C2.1,17.6 2.5,17.5 2.7,17.4 C3.1,17.2 9.6,14 15,7.9 C18.8,3.6 20.3,-1.3 20.3,-5.4 C20.3,-6.3 20.2,-7.1 20.1,-7.9 M13.2,-4 C13.2,-2.5 12.8,2.1 10.3,5.9 C8.6,8.5 5.2,11.2 3.3,12.7 L3.6,-6.8 C3.8,-7.7 5.3,-10.6 9.3,-10.6 C12.9,-10.6 13.2,-7.2 13.2,-5.1 L13.2,-4 "/>
<path class="Accidental" transform="matrix(2.3811,0,0,2.3811,2880.31,1629.92)" d="M20.1,-7.9 C19.5,-11.8 17.1,-15.5 12,-15.5 C7,-15.5 4.1,-12.4 3.6,-11.8 L4,-43.9 C4,-44.7 3.4,-45.3 2.6,-45.3 L1.4,-45.3 C0.6,-45.3 0,-44.7 0,-43.9 L0.5,16.2 C0.5,17 1.1,17.6 1.9,17.6 C2.1,17.6 2.5,17.5 2.7,17.4 C3.1,17.2 9.6,14 15,7.9 C18.8,3.6 20.3,-1.3 20.3,-5.4 C20.3,-6.3 20.2,-7.1 20.1,-7.9 M13.2,-4 C13.2,-2.5 12.8,2.1 10.3,5.9 C8.6,8.5 5.2,11.2 3.3,12.7 L3.6,-6.8 C3.8,-7.7 5.3,-10.6 9.3,-10.6 C12.9,-10.6 13.2,-7.2 13.2,-5.1 L13.2,-4 "/>
<path class="Accidental" transform="matrix(2.3811,0,0,2.3811,3536.91,1510.87)" d="M20.1,-7.9 C19.5,-11.8 17.1,-15.5 12,-15.5 C7,-15.5 4.1,-12.4 3.6,-11.8 L4,-43.9 C4,-44.7 3.4,-45.3 2.6,-45.3 L1.4,-45.3 C0.6,-45.3 0,-44.7 0,-43.9 L0.5,16.2 C0.5,17 1.1,17.6 1.9,17.6 C2.1,17.6 2.5,17.5 2.7,17.4 C3.1,17.2 9.6,14 15,7.9 C18.8,3.6 20.3,-1.3 20.3,-5.4 C20.3,-6.3 20.2,-7.1 20.1,-7.9 M13.2,-4 C13.2,-2.5 12.8,2.1 10.3,5.9 C8.6,8.5 5.2,11.2 3.3,12.7 L3.6,-6.8 C3.8,-7.7 5.3,-10.6 9.3,-10.6 C12.9,-10.6 13.2,-7.2 13.2,-5.1 L13.2,-4 "/>
<path class="Accidental" transform="matrix(2.3811,0,0,2.3811,3598.33,1421.57)" d="M20.1,-7.9 C19.5,-11.8 17.1,-15.5 12,-15.5 C7,-15.5 4.1,-12.4 3.6,-11.8 L4,-43.9 C4,-44.7 3.4,-45.3 2.6,-45.3 L1.4,-45.3 C0.6,-45.3 0,-44.7 0,-43.9 L0.5,16.2 C0.5,17 1.1,17.6 1.9,17.6 C2.1,17.6 2.5,17.5 2.7,17.4 C3.1,17.2 9.6,14 15,7.9 C18.8,3.6 20.3,-1.3 20.3,-5.4 C20.3,-6.3 20.2,-7.1 20.1,-7.9 M13.2,-4 C13.2,-2.5 12.8,2.1 10.3,5.9 C8.6,8.5 5.2,11.2 3.3,12.7 L3.6,-6.8 C3.8,-7.7 5.3,-10.6 9.3,-10.6 C12.9,-10.6 13.2,-7.2 13.2,-5.1 L13.2,-4 "/>
<polyline class="LedgerLine" fill="none" stroke="#000000" stroke-width="9.52" stroke-linejoin="bevel" points="2343.49,1332.28 2473.97,1332.28"/>
<path class="Note" transform="matrix(2.3811,0,0,2.3811,519.076,2307.61)" d="M18.7,-13.6 C4.9,-13.6 0,-6.6 0,-0.1 C0,6.4 4.9,13.4 18.7,13.4 C32.5,13.4 37.3,6.4 37.3,-0.1 C37.3,-6.6 32.5,-13.6 18.7,-13.6 M10.4,-4.5 C10.3,-4.9 10.3,-5.3 10.3,-5.7 C10.3,-6.5 10.5,-7.3 10.9,-8 C11.6,-9 12.8,-9.7 14.3,-10 C15.6,-10.3 16.3,-10.5 18.9,-10.5 L19,-10.5 C23,-10.5 24.3,-6.8 25.4,-3 L25.7,-2 C26.5,0.6 26.9,2.8 26.9,4.5 C26.9,5.7 26.7,6.8 26.3,7.6 C25.7,8.7 24.7,9.4 23,9.8 C22.1,10 20.6,10.1 20.6,10.1 C20.1,10.1 19.7,10.2 19.3,10.2 C16.1,10.2 14.1,9 12.7,4.7 C11.5,1 11.3,-0.1 10.4,-4.5"/>
<path class="Note" transform="matrix(2.3811,0,0,2.3811,1132.35,2307.61)" d="M18.7,-13.6 C4.9,-13.6 0,-6.6 0,-0.1 C0,6.4 4.9,13.4 18.7,13.4 C32.5,13.4 37.3,6.4 37.3,-0.1 C37.3,-6.6 32.5,-13.6 18.7,-13.6 M10.4,-4.5 C10.3,-4.9 10.3,-5.3 10.3,-5.7 C10.3,-6.5 10.5,-7.3 10.9,-8 C11.6,-9 12.8,-9.7 14.3,-10 C15.6,-10.3 16.3,-10.5 18.9,-10.5 L19,-10.5 C23,-10.5 24.3,-6.8 25.4,-3 L25.7,-2 C26.5,0.6 26.9,2.8 26.9,4.5 C26.9,5.7 26.7,6.8 26.3,7.6 C25.7,8.7 24.7,9.4 23,9.8 C22.1,10 20.6,10.1 20.6,10.1 C20.1,10.1 19.7,10.2 19.3,10.2 C16.1,10.2 14.1,9 12.7,4.7 C11.5,1 11.3,-0.1 10.4,-4.5"/>
<path class="Note" transform="matrix(2.3811,0,0,2.3811,1761.79,2307.61)" d="M18.7,-13.6 C4.9,-13.6 0,-6.6 0,-0.1 C0,6.4 4.9,13.4 18.7,13.4 C32.5,13.4 37.3,6.4 37.3,-0.1 C37.3,-6.6 32.5,-13.6 18.7,-13.6 M10.4,-4.5 C10.3,-4.9 10.3,-5.3 10.3,-5.7 C10.3,-6.5 10.5,-7.3 10.9,-8 C11.6,-9 12.8,-9.7 14.3,-10 C15.6,-10.3 16.3,-10.5 18.9,-10.5 L19,-10.5 C23,-10.5 24.3,-6.8 25.4,-3 L25.7,-2 C26.5,0.6 26.9,2.8 26.9,4.5 C26.9,5.7 26.7,6.8 26.3,7.6 C25.7,8.7 24.7,9.4 23,9.8 C22.1,10 20.6,10.1 20.6,10.1 C20.1,10.1 19.7,10.2 19.3,10.2 C16.1,10.2 14.1,9 12.7,4.7 C11.5,1 11.3,-0.1 10.4,-4.5"/>
<path class="Note" transform="matrix(2.3811,0,0,2.3811,2364.33,2307.61)" d="M18.7,-13.6 C4.9,-13.6 0,-6.6 0,-0.1 C0,6.4 4.9,13.4 18.7,13.4 C32.5,13.4 37.3,6.4 37.3,-0.1 C37.3,-6.6 32.5,-13.6 18.7,-13.6 M10.4,-4.5 C10.3,-4.9 10.3,-5.3 10.3,-5.7 C10.3,-6.5 10.5,-7.3 10.9,-8 C11.6,-9 12.8,-9.7 14.3,-10 C15.6,-10.3 16.3,-10.5 18.9,-10.5 L19,-10.5 C23,-10.5 24.3,-6.8 25.4,-3 L25.7,-2 C26.5,0.6 26.9,2.8 26.9,4.5 C26.9,5.7 26.7,6.8 26.3,7.6 C25.7,8.7 24.7,9.4 23,9.8 C22.1,10 20.6,10.1 20.6,10.1 C20.1,10.1 19.7,10.2 19.3,10.2 C16.1,10.2 14.1,9 12.7,4.7 C11.5,1 11.3,-0.1 10.4,-4.5"/>
<path class="Note" transform="matrix(2.3811,0,0,2.3811,2943.52,2277.85)" d="M18.7,-13.6 C4.9,-13.6 0,-6.6 0,-0.1 C0,6.4 4.9,13.4 18.7,13.4 C32.5,13.4 37.3,6.4 37.3,-0.1 C37.3,-6.6 32.5,-13.6 18.7,-13.6 M10.4,-4.5 C10.3,-4.9 10.3,-5.3 10.3,-5.7 C10.3,-6.5 10.5,-7.3 10.9,-8 C11.6,-9 12.8,-9.7 14.3,-10 C15.6,-10.3 16.3,-10.5 18.9,-10.5 L19,-10.5 C23,-10.5 24.3,-6.8 25.4,-3 L25.7,-2 C26.5,0.6 26.9,2.8 26.9,4.5 C26.9,5.7 26.7,6.8 26.3,7.6 C25.7,8.7 24.7,9.4 23,9.8 C22.1,10 20.6,10.1 20.6,10.1 C20.1,10.1 19.7,10.2 19.3,10.2 C16.1,10.2 14.1,9 12.7,4.7 C11.5,1 11.3,-0.1 10.4,-4.5"/>
<path class="Note" transform="matrix(2.3811,0,0,2.3811,3661.55,2277.85)" d="M18.7,-13.6 C4.9,-13.6 0,-6.6 0,-0.1 C0,6.4 4.9,13.4 18.7,13.4 C32.5,13.4 37.3,6.4 37.3,-0.1 C37.3,-6.6 32.5,-13.6 18.7,-13.6 M10.4,-4.5 C10.3,-4.9 10.3,-5.3 10.3,-5.7 C10.3,-6.5 10.5,-7.3 10.9,-8 C11.6,-9 12.8,-9.7 14.3,-10 C15.6,-10.3 16.3,-10.5 18.9,-10.5 L19,-10.5 C23,-10.5 24.3,-6.8 25.4,-3 L25.7,-2 C26.5,0.6 26.9,2.8 26.9,4.5 C26.9,5.7 26.7,6.8 26.3,7.6 C25.7,8.7 24.7,9.4 23,9.8 C22.1,10 20.6,10.1 20.6,10.1 C20.1,10.1 19.7,10.2 19.3,10.2 C16.1,10.2 14.1,9 12.7,4.7 C11.5,1 11.3,-0.1 10.4,-4.5"/>
<path class="Note" transform="matrix(2.3811,0,0,2.3811,519.076,1659.69)" d="M18.7,-13.6 C4.9,-13.6 0,-6.6 0,-0.1 C0,6.4 4.9,13.4 18.7,13.4 C32.5,13.4 37.3,6.4 37.3,-0.1 C37.3,-6.6 32.5,-13.6 18.7,-13.6 M10.4,-4.5 C10.3,-4.9 10.3,-5.3 10.3,-5.7 C10.3,-6.5 10.5,-7.3 10.9,-8 C11.6,-9 12.8,-9.7 14.3,-10 C15.6,-10.3 16.3,-10.5 18.9,-10.5 L19,-10.5 C23,-10.5 24.3,-6.8 25.4,-3 L25.7,-2 C26.5,0.6 26.9,2.8 26.9,4.5 C26.9,5.7 26.7,6.8 26.3,7.6 C25.7,8.7 24.7,9.4 23,9.8 C22.1,10 20.6,10.1 20.6,10.1 C20.1,10.1 19.7,10.2 19.3,10.2 C16.1,10.2 14.1,9 12.7,4.7 C11.5,1 11.3,-0.1 10.4,-4.5"/>
<path class="Note" transform="matrix(2.3811,0,0,2.3811,601.336,1629.92)" d="M18.7,-13.6 C4.9,-13.6 0,-6.6 0,-0.1 C0,6.4 4.9,13.4 18.7,13.4 C32.5,13.4 37.3,6.4 37.3,-0.1 C37.3,-6.6 32.5,-13.6 18.7,-13.6 M10.4,-4.5 C10.3,-4.9 10.3,-5.3 10.3,-5.7 C10.3,-6.5 10.5,-7.3 10.9,-8 C11.6,-9 12.8,-9.7 14.3,-10 C15.6,-10.3 16.3,-10.5 18.9,-10.5 L19,-10.5 C23,-10.5 24.3,-6.8 25.4,-3 L25.7,-2 C26.5,0.6 26.9,2.8 26.9,4.5 C26.9,5.7 26.7,6.8 26.3,7.6 C25.7,8.7 24.7,9.4 23,9.8 C22.1,10 20.6,10.1 20.6,10.1 C20.1,10.1 19.7,10.2 19.3,10.2 C16.1,10.2 14.1,9 12.7,4.7 C11.5,1 11.3,-0.1 10.4,-4.5"/>
<path class="Note" transform="matrix(2.3811,0,0,2.3811,1132.35,1629.92)" d="M18.7,-13.6 C4.9,-13.6 0,-6.6 0,-0.1 C0,6.4 4.9,13.4 18.7,13.4 C32.5,13.4 37.3,6.4 37.3,-0.1 C37.3,-6.6 32.5,-13.6 18.7,-13.6 M10.4,-4.5 C10.3,-4.9 10.3,-5.3 10.3,-5.7 C10.3,-6.5 10.5,-7.3 10.9,-8 C11.6,-9 12.8,-9.7 14.3,-10 C15.6,-10.3 16.3,-10.5 18.9,-10.5 L19,-10.5 C23,-10.5 24.3,-6.8 25.4,-3 L25.7,-2 C26.5,0.6 26.9,2.8 26.9,4.5 C26.9,5.7 26.7,6.8 26.3,7.6 C25.7,8.7 24.7,9.4 23,9.8 C22.1,10 20.6,10.1 20.6,10.1 C20.1,10.1 19.7,10.2 19.3,10.2 C16.1,10.2 14.1,9 12.7,4.7 C11.5,1 11.3,-0.1 10.4,-4.5"/>
<path class="Note" transform="matrix(2.3811,0,0,2.3811,1132.35,1540.63)" d="M18.7,-13.6 C4.9,-13.6 0,-6.6 0,-0.1 C0,6.4 4.9,13.4 18.7,13.4 C32.5,13.4 37.3,6.4 37.3,-0.1 C37.3,-6.6 32.5,-13.6 18.7,-13.6 M10.4,-4.5 C10.3,-4.9 10.3,-5.3 10.3,-5.7 C10.3,-6.5 10.5,-7.3 10.9,-8 C11.6,-9 12.8,-9.7 14.3,-10 C15.6,-10.3 16.3,-10.5 18.9,-10.5 L19,-10.5 C23,-10.5 24.3,-6.8 25.4,-3 L25.7,-2 C26.5,0.6 26.9,2.8 26.9,4.5 C26.9,5.7 26.7,6.8 26.3,7.6 C25.7,8.7 24.7,9.4 23,9.8 C22.1,10 20.6,10.1 20.6,10.1 C20.1,10.1 19.7,10.2 19.3,10.2 C16.1,10.2 14.1,9 12.7,4.7 C11.5,1 11.3,-0.1 10.4,-4.5"/>
<path class="Note" transform="matrix(2.3811,0,0,2.3811,1132.35,1451.34)" d="M18.7,-13.6 C4.9,-13.6 0,-6.6 0,-0.1 C0,6.4 4.9,13.4 18.7,13.4 C32.5,13.4 37.3,6.4 37.3,-0.1 C37.3,-6.6 32.5,-13.6 18.7,-13.6 M10.4,-4.5 C10.3,-4.9 10.3,-5.3 10.3,-5.7 C10.3,-6.5 10.5,-7.3 10.9,-8 C11.6,-9 12.8,-9.7 14.3,-10 C15.6,-10.3 16.3,-10.5 18.9,-10.5 L19,-10.5 C23,-10.5 24.3,-6.8 25.4,-3 L25.7,-2 C26.5,0.6 26.9,2.8 26.9,4.5 C26.9,5.7 26.7,6.8 26.3,7.6 C25.7,8.7 24.7,9.4 23,9.8 C22.1,10 20.6,10.1 20.6,10.1 C20.1,10.1 19.7,10.2 19.3,10.2 C16.1,10.2 14.1,9 12.7,4.7 C11.5,1 11.3,-0.1 10.4,-4.5"/>
<path class="Note" transform="matrix(2.3811,0,0,2.3811,1761.79,1540.63)" d="M18.7,-13.6 C4.9,-13.6 0,-6.6 0,-0.1 C0,6.4 4.9,13.4 18.7,13.4 C32.5,13.4 37.3,6.4 37.3,-0.1 C37.3,-6.6 32.5,-13.6 18.7,-13.6 M10.4,-4.5 C10.3,-4.9 10.3,-5.3 10.3,-5.7 C10.3,-6.5 10.5,-7.3 10.9,-8 C11.6,-9 12.8,-9.7 14.3,-10 C15.6,-10.3 16.3,-10.5 18.9,-10.5 L19,-10.5 C23,-10.5 24.3,-6.8 25.4,-3 L25.7,-2 C26.5,0.6 26.9,2.8 26.9,4.5 C26.9,5.7 26.7,6.8 26.3,7.6 C25.7,8.7 24.7,9.4 23,9.8 C22.1,10 20.6,10.1 20.6,10.1 C20.1,10.1 19.7,10.2 19.3,10.2 C16.1,10.2 14.1,9 12.7,4.7 C11.5,1 11.3,-0.1 10.4,-4.5"/>
<path class="Note" transform="matrix(2.3811,0,0,2.3811,1679.53,1451.34)" d="M18.7,-13.6 C4.9,-13.6 0,-6.6 0,-0.1 C0,6.4 4.9,13.4 18.7,13.4 C32.5,13.4 37.3,6.4 37.3,-0.1 C37.3,-6.6 32.5,-13.6 18.7,-13.6 M10.4,-4.5 C10.3,-4.9 10.3,-5.3 10.3,-5.7 C10.3,-6.5 10.5,-7.3 10.9,-8 C11.6,-9 12.8,-9.7 14.3,-10 C15.6,-10.3 16.3,-10.5 18.9,-10.5 L19,-10.5 C23,-10.5 24.3,-6.8 25.4,-3 L25.7,-2 C26.5,0.6 26.9,2.8 26.9,4.5 C26.9,5.7 26.7,6.8 26.3,7.6 C25.7,8.7 24.7,9.4 23,9.8 C22.1,10 20.6,10.1 20.6,10.1 C20.1,10.1 19.7,10.2 19.3,10.2 C16.1,10.2 14.1,9 12.7,4.7 C11.5,1 11.3,-0.1 10.4,-4.5"/>
<path class="Note" transform="matrix(2.3811,0,0,2.3811,1761.79,1421.57)" d="M18.7,-13.6 C4.9,-13.6 0,-6.6 0,-0.1 C0,6.4 4.9,13.4 18.7,13.4 C32.5,13.4 37.3,6.4 37.3,-0.1 C37.3,-6.6 32.5,-13.6 18.7,-13.6 M10.4,-4.5 C10.3,-4.9 10.3,-5.3 10.3,-5.7 C10.3,-6.5 10.5,-7.3 10.9,-8 C11.6,-9 12.8,-9.7 14.3,-10 C15.6,-10.3 16.3,-10.5 18.9,-10.5 L19,-10.5 C23,-10.5 24.3,-6.8 25.4,-3 L25.7,-2 C26.5,0.6 26.9,2.8 26.9,4.5 C26.9,5.7 26.7,6.8 26.3,7.6 C25.7,8.7 24.7,9.4 23,9.8 C22.1,10 20.6,10.1 20.6,10.1 C20.1,10.1 19.7,10.2 19.3,10.2 C16.1,10.2 14.1,9 12.7,4.7 C11.5,1 11.3,-0.1 10.4,-4.5"/>
<path class="Note" transform="matrix(2.3811,0,0,2.3811,2282.07,1451.34)" d="M18.7,-13.6 C4.9,-13.6 0,-6.6 0,-0.1 C0,6.4 4.9,13.4 18.7,13.4 C32.5,13.4 37.3,6.4 37.3,-0.1 C37.3,-6.6 32.5,-13.6 18.7,-13.6 M10.4,-4.5 C10.3,-4.9 10.3,-5.3 10.3,-5.7 C10.3,-6.5 10.5,-7.3 10.9,-8 C11.6,-9 12.8,-9.7 14.3,-10 C15.6,-10.3 16.3,-10.5 18.9,-10.5 L19,-10.5 C23,-10.5 24.3,-6.8 25.4,-3 L25.7,-2 C26.5,0.6 26.9,2.8 26.9,4.5 C26.9,5.7 26.7,6.8 26.3,7.6 C25.7,8.7 24.7,9.4 23,9.8 C22.1,10 20.6,10.1 20.6,10.1 C20.1,10.1 19.7,10.2 19.3,10.2 C16.1,10.2 14.1,9 12.7,4.7 C11.5,1 11.3,-0.1 10.4,-4.5"/>
<path class="Note" transform="matrix(2.3811,0,0,2.3811,2364.33,1421.57)" d="M18.7,-13.6 C4.9,-13.6 0,-6.6 0,-0.1 C0,6.4 4.9,13.4 18.7,13.4 C32.5,13.4 37.3,6.4 37.3,-0.1 C37.3,-6.6 32.5,-13.6 18.7,-13.6 M10.4,-4.5 C10.3,-4.9 10.3,-5.3 10.3,-5.7 C10.3,-6.5 10.5,-7.3 10.9,-8 C11.6,-9 12.8,-9.7 14.3,-10 C15.6,-10.3 16.3,-10.5 18.9,-10.5 L19,-10.5 C23,-10.5 24.3,-6.8 25.4,-3 L25.7,-2 C26.5,0.6 26.9,2.8 26.9,4.5 C26.9,5.7 26.7,6.8 26.3,7.6 C25.7,8.7 24.7,9.4 23,9.8 C22.1,10 20.6,10.1 20.6,10.1 C20.1,10.1 19.7,10.2 19.3,10.2 C16.1,10.2 14.1,9 12.7,4.7 C11.5,1 11.3,-0.1 10.4,-4.5"/>
<path class="Note" transform="matrix(2.3811,0,0,2.3811,2364.33,1332.28)" d="M18.7,-13.6 C4.9,-13.6 0,-6.6 0,-0.1 C0,6.4 4.9,13.4 18.7,13.4 C32.5,13.4 37.3,6.4 37.3,-0.1 C37.3,-6.6 32.5,-13.6 18.7,-13.6 M10.4,-4.5 C10.3,-4.9 10.3,-5.3 10.3,-5.7 C10.3,-6.5 10.5,-7.3 10.9,-8 C11.6,-9 12.8,-9.7 14.3,-10 C15.6,-10.3 16.3,-10.5 18.9,-10.5 L19,-10.5 C23,-10.5 24.3,-6.8 25.4,-3 L25.7,-2 C26.5,0.6 26.9,2.8 26.9,4.5 C26.9,5.7 26.7,6.8 26.3,7.6 C25.7,8.7 24.7,9.4 23,9.8 C22.1,10 20.6,10.1 20.6,10.1 C20.1,10.1 19.7,10.2 19.3,10.2 C16.1,10.2 14.1,9 12.7,4.7 C11.5,1 11.3,-0.1 10.4,-4.5"/>
<path class="Note" transform="matrix(2.3811,0,0,2.3811,2943.52,1629.92)" d="M18.7,-13.6 C4.9,-13.6 0,-6.6 0,-0.1 C0,6.4 4.9,13.4 18.7,13.4 C32.5,13.4 37.3,6.4 37.3,-0.1 C37.3,-6.6 32.5,-13.6 18.7,-13.6 M10.4,-4.5 C10.3,-4.9 10.3,-5.3 10.3,-5.7 C10.3,-6.5 10.5,-7.3 10.9,-8 C11.6,-9 12.8,-9.7 14.3,-10 C15.6,-10.3 16.3,-10.5 18.9,-10.5 L19,-10.5 C23,-10.5 24.3,-6.8 25.4,-3 L25.7,-2 C26.5,0.6 26.9,2.8 26.9,4.5 C26.9,5.7 26.7,6.8 26.3,7.6 C25.7,8.7 24.7,9.4 23,9.8 C22.1,10 20.6,10.1 20.6,10.1 C20.1,10.1 19.7,10.2 19.3,10.2 C16.1,10.2 14.1,9 12.7,4.7 C11.5,1 11.3,-0.1 10.4,-4.5"/>
<path class="Note" transform="matrix(2.3811,0,0,2.3811,3025.78,1600.16)" d="M18.7,-13.6 C4.9,-13.6 0,-6.6 0,-0.1 C0,6.4 4.9,13.4 18.7,13.4 C32.5,13.4 37.3,6.4 37.3,-0.1 C37.3,-6.6 32.5,-13.6 18.7,-13.6 M10.4,-4.5 C10.3,-4.9 10.3,-5.3 10.3,-5.7 C10.3,-6.5 10.5,-7.3 10.9,-8 C11.6,-9 12.8,-9.7 14.3,-10 C15.6,-10.3 16.3,-10.5 18.9,-10.5 L19,-10.5 C23,-10.5 24.3,-6.8 25.4,-3 L25.7,-2 C26.5,0.6 26.9,2.8 26.9,4.5 C26.9,5.7 26.7,6.8 26.3,7.6 C25.7,8.7 24.7,9.4 23,9.8 C22.1,10 20.6,10.1 20.6,10.1 C20.1,10.1 19.7,10.2 19.3,10.2 C16.1,10.2 14.1,9 12.7,4.7 C11.5,1 11.3,-0.1 10.4,-4.5"/>
<path class="Note" transform="matrix(2.3811,0,0,2.3811,3661.55,1600.16)" d="M18.7,-13.6 C4.9,-13.6 0,-6.6 0,-0.1 C0,6.4 4.9,13.4 18.7,13.4 C32.5,13.4 37.3,6.4 37.3,-0.1 C37.3,-6.6 32.5,-13.6 18.7,-13.6 M10.4,-4.5 C10.3,-4.9 10.3,-5.3 10.3,-5.7 C10.3,-6.5 10.5,-7.3 10.9,-8 C11.6,-9 12.8,-9.7 14.3,-10 C15.6,-10.3 16.3,-10.5 18.9,-10.5 L19,-10.5 C23,-10.5 24.3,-6.8 25.4,-3 L25.7,-2 C26.5,0.6 26.9,2.8 26.9,4.5 C26.9,5.7 26.7,6.8 26.3,7.6 C25.7,8.7 24.7,9.4 23,9.8 C22.1,10 20.6,10.1 20.6,10.1 C20.1,10.1 19.7,10.2 19.3,10.2 C16.1,10.2 14.1,9 12.7,4.7 C11.5,1 11.3,-0.1 10.4,-4.5"/>
<path class="Note" transform="matrix(2.3811,0,0,2.3811,3661.55,1510.87)" d="M18.7,-13.6 C4.9,-13.6 0,-6.6 0,-0.1 C0,6.4 4.9,13.4 18.7,13.4 C32.5,13.4 37.3,6.4 37.3,-0.1 C37.3,-6.6 32.5,-13.6 18.7,-13.6 M10.4,-4.5 C10.3,-4.9 10.3,-5.3 10.3,-5.7 C10.3,-6.5 10.5,-7.3 10.9,-8 C11.6,-9 12.8,-9.7 14.3,-10 C15.6,-10.3 16.3,-10.5 18.9,-10.5 L19,-10.5 C23,-10.5 24.3,-6.8 25.4,-3 L25.7,-2 C26.5,0.6 26.9,2.8 26.9,4.5 C26.9,5.7 26.7,6.8 26.3,7.6 C25.7,8.7 24.7,9.4 23,9.8 C22.1,10 20.6,10.1 20.6,10.1 C20.1,10.1 19.7,10.2 19.3,10.2 C16.1,10.2 14.1,9 12.7,4.7 C11.5,1 11.3,-0.1 10.4,-4.5"/>
<path class="Note" transform="matrix(2.3811,0,0,2.3811,3661.55,1421.57)" d="M18.7,-13.6 C4.9,-13.6 0,-6.6 0,-0.1 C0,6.4 4.9,13.4 18.7,13.4 C32.5,13.4 37.3,6.4 37.3,-0.1 C37.3,-6.6 32.5,-13.6 18.7,-13.6 M10.4,-4.5 C10.3,-4.9 10.3,-5.3 10.3,-5.7 C10.3,-6.5 10.5,-7.3 10.9,-8 C11.6,-9 12.8,-9.7 14.3,-10 C15.6,-10.3 16.3,-10.5 18.9,-10.5 L19,-10.5 C23,-10.5 24.3,-6.8 25.4,-3 L25.7,-2 C26.5,0.6 26.9,2.8 26.9,4.5 C26.9,5.7 26.7,6.8 26.3,7.6 C25.7,8.7 24.7,9.4 23,9.8 C22.1,10 20.6,10.1 20.6,10.1 C20.1,10.1 19.7,10.2 19.3,10.2 C16.1,10.2 14.1,9 12.7,4.7 C11.5,1 11.3,-0.1 10.4,-4.5"/>
<path class="Note" d="M597.895,941.13 C602.466,941.13 604.752,943.997 604.752,949.73 C604.752,953.758 602.234,959.763 597.198,967.742 C593.17,974.173 591.155,980.448 591.155,986.568 C591.155,990.055 596.23,991.798 606.379,991.798 C614.746,991.798 626.406,987.266 641.358,978.201 C626.328,992.689 613.274,999.933 602.195,999.933 C592.201,999.933 585.228,998.422 581.277,995.401 C580.27,994.626 579.418,993.696 578.721,992.611 C574.847,997.337 568.378,999.7 559.313,999.7 C550.636,999.7 543.974,997.918 539.325,994.355 C536.226,991.953 534.677,988.118 534.677,982.85 C534.677,974.483 539.635,965.341 549.552,955.424 C560.166,944.81 572.445,939.503 586.391,939.503 C589.877,939.503 592.433,940.781 594.06,943.338 C595.378,941.866 596.656,941.13 597.895,941.13 M577.094,987.382 C577.016,986.762 576.977,986.142 576.977,985.523 C576.977,985.213 580.929,974.405 588.831,953.1 C589.606,951.008 590.38,949.226 591.155,947.754 C588.134,947.134 585.151,946.824 582.207,946.824 C576.784,946.824 569.579,951.434 560.592,960.653 C552.534,968.866 548.506,975.955 548.506,981.92 C548.506,988.505 551.643,991.798 557.919,991.798 C565.511,991.798 571.903,990.326 577.094,987.382"/>
<path class="Note" d="M597.895,851.839 C602.466,851.839 604.752,854.705 604.752,860.438 C604.752,864.467 602.234,870.471 597.198,878.451 C593.17,884.881 591.155,891.157 591.155,897.277 C591.155,900.763 596.23,902.507 606.379,902.507 C614.746,902.507 626.406,897.974 641.358,888.91 C626.328,903.398 613.274,910.641 602.195,910.641 C592.201,910.641 585.228,909.131 581.277,906.109 C580.27,905.334 579.418,904.405 578.721,903.32 C574.847,908.046 568.378,910.409 559.313,910.409 C550.636,910.409 543.974,908.627 539.325,905.063 C536.226,902.662 534.677,898.827 534.677,893.558 C534.677,885.191 539.635,876.049 549.552,866.133 C560.166,855.519 572.445,850.212 586.391,850.212 C589.877,850.212 592.433,851.49 594.06,854.047 C595.378,852.575 596.656,851.839 597.895,851.839 M577.094,898.091 C577.016,897.471 576.977,896.851 576.977,896.231 C576.977,895.921 580.929,885.114 588.831,863.808 C589.606,861.717 590.38,859.935 591.155,858.463 C588.134,857.843 585.151,857.533 582.207,857.533 C576.784,857.533 569.579,862.143 560.592,871.362 C552.534,879.574 548.506,886.663 548.506,892.629 C548.506,899.214 551.643,902.507 557.919,902.507 C565.511,902.507 571.903,901.035 577.094,898.091"/>
<path class="Note" d="M597.895,583.965 C602.466,583.965 604.752,586.831 604.752,592.564 C604.752,596.593 602.234,602.597 597.198,610.577 C593.17,617.007 591.155,623.283 591.155,629.403 C591.155,632.889 596.23,634.633 606.379,634.633 C614.746,634.633 626.406,630.1 641.358,621.036 C626.328,635.524 613.274,642.767 602.195,642.767 C592.201,642.767 585.228,641.257 581.277,638.235 C580.27,637.46 579.418,636.531 578.721,635.446 C574.847,640.172 568.378,642.535 559.313,642.535 C550.636,642.535 543.974,640.753 539.325,637.189 C536.226,634.788 534.677,630.953 534.677,625.684 C534.677,617.317 539.635,608.175 549.552,598.259 C560.166,587.645 572.445,582.338 586.391,582.338 C589.877,582.338 592.433,583.616 594.06,586.173 C595.378,584.701 596.656,583.965 597.895,583.965 M577.094,630.217 C577.016,629.597 576.977,628.977 576.977,628.357 C576.977,628.047 580.929,617.24 588.831,595.934 C589.606,593.843 590.38,592.061 591.155,590.589 C588.134,589.969 585.151,589.659 582.207,589.659 C576.784,589.659 569.579,594.269 560.592,603.488 C552.534,611.7 548.506,618.789 548.506,624.755 C548.506,631.34 551.643,634.633 557.919,634.633 C565.511,634.633 571.903,633.161 577.094,630.217"/>
<path class="Note" d="M1211.16,941.13 C1215.74,941.13 1218.02,943.997 1218.02,949.73 C1218.02,953.758 1215.5,959.763 1210.47,967.742 C1206.44,974.173 1204.42,980.448 1204.42,986.568 C1204.42,990.055 1209.5,991.798 1219.65,991.798 C1228.02,991.798 1239.68,987.266 1254.63,978.201 C1239.6,992.689 1226.54,999.933 1215.46,999.933 C1205.47,999.933 1198.5,998.422 1194.55,995.401 C1193.54,994.626 1192.69,993.696 1191.99,992.611 C1188.12,997.337 1181.65,999.7 1172.58,999.7 C1163.91,999.7 1157.24,997.918 1152.59,994.355 C1149.5,991.953 1147.95,988.118 1147.95,982.85 C1147.95,974.483 1152.9,965.341 1162.82,955.424 C1173.43,944.81 1185.71,939.503 1199.66,939.503 C1203.15,939.503 1205.7,940.781 1207.33,943.338 C1208.65,941.866 1209.93,941.13 1211.16,941.13 M1190.36,987.382 C1190.29,986.762 1190.25,986.142 1190.25,985.523 C1190.25,985.213 1194.2,974.405 1202.1,953.1 C1202.87,951.008 1203.65,949.226 1204.42,947.754 C1201.4,947.134 1198.42,946.824 1195.48,946.824 C1190.05,946.824 1182.85,951.434 1173.86,960.653 C1165.8,968.866 1161.77,975.955 1161.77,981.92 C1161.77,988.505 1164.91,991.798 1171.19,991.798 C1178.78,991.798 1185.17,990.326 1190.36,987.382"/>
<path class="Note" d="M1211.16,583.965 C1215.74,583.965 1218.02,586.831 1218.02,592.564 C1218.02,596.593 1215.5,602.597 1210.47,610.577 C1206.44,617.007 1204.42,623.283 1204.42,629.403 C1204.42,632.889 1209.5,634.633 1219.65,634.633 C1228.02,634.633 1239.68,630.1 1254.63,621.036 C1239.6,635.524 1226.54,642.767 1215.46,642.767 C1205.47,642.767 1198.5,641.257 1194.55,638.235 C1193.54,637.46 1192.69,636.531 1191.99,635.446 C1188.12,640.172 1181.65,642.535 1172.58,642.535 C1163.91,642.535 1157.24,640.753 1152.59,637.189 C1149.5,634.788 1147.95,630.953 1147.95,625.684 C1147.95,617.317 1152.9,608.175 1162.82,598.259 C1173.43,587.645 1185.71,582.338 1199.66,582.338 C1203.15,582.338 1205.7,583.616 1207.33,586.173 C1208.65,584.701 1209.93,583.965 1211.16,583.965 M1190.36,630.217 C1190.29,629.597 1190.25,628.977 1190.25,628.357 C1190.25,628.047 1194.2,617.24 1202.1,595.934 C1202.87,593.843 1203.65,592.061 1204.42,590.589 C1201.4,589.969 1198.42,589.659 1195.48,589.659 C1190.05,589.659 1182.85,594.269 1173.86,603.488 C1165.8,611.7 1161.77,618.789 1161.77,624.755 C1161.77,631.34 1164.91,634.633 1171.19,634.633 C1178.78,634.633 1185.17,633.161 1190.36,630.217"/>
<path class="Note" d="M1211.16,494.673 C1215.74,494.673 1218.02,497.54 1218.02,503.273 C1218.02,507.302 1215.5,513.306 1210.47,521.286 C1206.44,527.716 1204.42,533.991 1204.42,540.112 C1204.42,543.598 1209.5,545.341 1219.65,545.341 C1228.02,545.341 1239.68,540.809 1254.63,531.745 C1239.6,546.232 1226.54,553.476 1215.46,553.476 C1205.47,553.476 1198.5,551.965 1194.55,548.944 C1193.54,548.169 1192.69,547.239 1191.99,546.155 C1188.12,550.881 1181.65,553.244 1172.58,553.244 C1163.91,553.244 1157.24,551.462 1152.59,547.898 C1149.5,545.496 1147.95,541.661 1147.95,536.393 C1147.95,528.026 1152.9,518.884 1162.82,508.967 C1173.43,498.353 1185.71,493.046 1199.66,493.046 C1203.15,493.046 1205.7,494.325 1207.33,496.881 C1208.65,495.409 1209.93,494.673 1211.16,494.673 M1190.36,540.925 C1190.29,540.305 1190.25,539.686 1190.25,539.066 C1190.25,538.756 1194.2,527.948 1202.1,506.643 C1202.87,504.551 1203.65,502.769 1204.42,501.297 C1201.4,500.678 1198.42,500.368 1195.48,500.368 C1190.05,500.368 1182.85,504.977 1173.86,514.197 C1165.8,522.409 1161.77,529.498 1161.77,535.463 C1161.77,542.049 1164.91,545.341 1171.19,545.341 C1178.78,545.341 1185.17,543.869 1190.36,540.925"/>
<path class="Note" d="M1166.89,821.118 C1163.09,821.118 1161.19,817.05 1161.19,808.916 L1161.19,774.866 C1161.19,771.612 1162.78,769.985 1165.96,769.985 C1167.35,769.985 1168.4,770.101 1169.1,770.333 C1171.58,765.995 1175.64,762.354 1181.3,759.41 C1189.2,755.304 1197.22,753.25 1205.35,753.25 C1211.78,753.25 1215,755.652 1215,760.456 C1215,764.484 1212.83,766.499 1208.49,766.499 C1205.39,766.499 1202.45,765.801 1199.66,764.407 C1197.18,763.167 1194.55,762.547 1191.76,762.547 C1186.95,762.547 1179.87,765.685 1170.49,771.96 C1171.81,778.236 1172.47,785.557 1172.47,793.924 C1172.47,812.053 1170.61,821.118 1166.89,821.118"/>
<path class="Note" d="M1100.08,677.207 C1100.39,665.509 1106.86,655.127 1119.48,646.063 C1130.72,638.005 1143,633.977 1156.32,633.977 C1174.99,633.977 1191.46,641.298 1205.71,655.941 C1214.78,665.315 1219.31,676.936 1219.31,690.804 C1219.31,703.277 1215.98,712.845 1209.31,719.508 C1201.18,727.72 1192.58,731.826 1183.52,731.826 C1177.32,731.826 1172.51,730.432 1169.11,727.643 C1163.53,723.072 1160.74,716.951 1160.74,709.281 C1160.74,699.365 1165.7,690.3 1175.61,682.088 C1183.75,675.348 1191.92,670.932 1200.13,668.84 C1197.96,665.121 1195.21,661.635 1191.88,658.381 C1181.5,648.232 1169.73,643.157 1156.55,643.157 C1142.84,643.157 1131.49,646.14 1122.5,652.106 C1113.21,658.226 1105.73,666.593 1100.08,677.207 M1203.04,674.999 C1198.78,678.95 1194.52,683.173 1190.26,687.666 C1181.89,696.498 1177.7,704.865 1177.7,712.768 C1177.7,721.212 1179.64,725.435 1183.52,725.435 C1187,725.435 1191.88,720.67 1198.16,711.141 C1203.19,703.548 1205.71,696.576 1205.71,690.223 C1205.71,684.8 1204.82,679.725 1203.04,674.999"/>
<path class="Note" d="M1840.61,941.13 C1845.18,941.13 1847.46,943.997 1847.46,949.73 C1847.46,953.758 1844.95,959.763 1839.91,967.742 C1835.88,974.173 1833.87,980.448 1833.87,986.568 C1833.87,990.055 1838.94,991.798 1849.09,991.798 C1857.46,991.798 1869.12,987.266 1884.07,978.201 C1869.04,992.689 1855.99,999.933 1844.91,999.933 C1834.91,999.933 1827.94,998.422 1823.99,995.401 C1822.98,994.626 1822.13,993.696 1821.43,992.611 C1817.56,997.337 1811.09,999.7 1802.02,999.7 C1793.35,999.7 1786.68,997.918 1782.04,994.355 C1778.94,991.953 1777.39,988.118 1777.39,982.85 C1777.39,974.483 1782.35,965.341 1792.26,955.424 C1802.88,944.81 1815.16,939.503 1829.1,939.503 C1832.59,939.503 1835.14,940.781 1836.77,943.338 C1838.09,941.866 1839.37,941.13 1840.61,941.13 M1819.81,987.382 C1819.73,986.762 1819.69,986.142 1819.69,985.523 C1819.69,985.213 1823.64,974.405 1831.54,953.1 C1832.32,951.008 1833.09,949.226 1833.87,947.754 C1830.85,947.134 1827.86,946.824 1824.92,946.824 C1819.5,946.824 1812.29,951.434 1803.3,960.653 C1795.25,968.866 1791.22,975.955 1791.22,981.92 C1791.22,988.505 1794.35,991.798 1800.63,991.798 C1808.22,991.798 1814.61,990.326 1819.81,987.382"/>
<path class="Note" d="M1855.48,561.187 C1859.82,558.243 1862.96,555.803 1864.89,553.866 C1868.46,550.07 1870.24,546.583 1870.24,543.407 C1870.24,539.766 1868.23,537.945 1864.2,537.945 C1856.37,537.945 1848.01,544.84 1839.1,558.631 C1836.38,562.814 1830.42,576.45 1821.2,599.537 C1828.56,607.129 1832.24,611.429 1832.24,612.436 C1832.24,613.831 1831.35,614.528 1829.57,614.528 C1828.17,614.528 1824.34,612.165 1818.06,607.439 C1811.24,623.321 1800.9,636.879 1787.03,648.113 C1772.86,659.579 1755.93,665.312 1736.25,665.312 C1728.73,665.312 1719.32,663.569 1708.01,660.083 C1698.95,657.294 1694.41,652.839 1694.41,646.719 C1694.41,637.654 1697.9,633.122 1704.87,633.122 C1709.06,633.122 1711.15,635.059 1711.15,638.932 C1711.15,640.172 1710.18,641.489 1708.24,642.884 C1707.24,643.581 1706.73,644.937 1706.73,646.951 C1706.73,649.353 1709.4,651.832 1714.75,654.388 C1720.56,657.178 1729.08,658.572 1740.32,658.572 C1754.8,658.572 1768.79,652.297 1782.27,639.746 C1794.51,628.357 1803.3,615.109 1808.65,600.002 C1806.56,598.297 1804.31,596.438 1801.91,594.424 C1794.47,590.008 1790.75,585.475 1790.75,580.827 C1790.75,578.89 1792.03,577.922 1794.59,577.922 C1798,577.922 1802.61,580.827 1808.42,586.638 C1809.66,587.877 1810.82,589.039 1811.9,590.124 C1814.61,582.686 1818.95,573.235 1824.92,561.768 C1835.69,541.005 1848.78,530.624 1864.2,530.624 C1869.7,530.624 1874.04,531.67 1877.21,533.762 C1880.39,535.853 1881.98,538.72 1881.98,542.361 C1881.98,548.172 1879.85,553.091 1875.59,557.12 C1871.17,561.304 1866.56,563.395 1861.76,563.395 C1857.57,563.395 1855.48,562.659 1855.48,561.187"/>
<path class="Note" d="M1855.48,471.896 C1859.82,468.952 1862.96,466.512 1864.89,464.575 C1868.46,460.778 1870.24,457.292 1870.24,454.116 C1870.24,450.474 1868.23,448.654 1864.2,448.654 C1856.37,448.654 1848.01,455.549 1839.1,469.339 C1836.38,473.523 1830.42,487.158 1821.2,510.246 C1828.56,517.838 1832.24,522.138 1832.24,523.145 C1832.24,524.54 1831.35,525.237 1829.57,525.237 C1828.17,525.237 1824.34,522.874 1818.06,518.148 C1811.24,534.03 1800.9,547.588 1787.03,558.822 C1772.86,570.288 1755.93,576.021 1736.25,576.021 C1728.73,576.021 1719.32,574.278 1708.01,570.791 C1698.95,568.002 1694.41,563.548 1694.41,557.427 C1694.41,548.363 1697.9,543.831 1704.87,543.831 C1709.06,543.831 1711.15,545.767 1711.15,549.641 C1711.15,550.881 1710.18,552.198 1708.24,553.592 C1707.24,554.29 1706.73,555.645 1706.73,557.66 C1706.73,560.061 1709.4,562.541 1714.75,565.097 C1720.56,567.886 1729.08,569.281 1740.32,569.281 C1754.8,569.281 1768.79,563.005 1782.27,550.455 C1794.51,539.066 1803.3,525.818 1808.65,510.71 C1806.56,509.006 1804.31,507.147 1801.91,505.132 C1794.47,500.716 1790.75,496.184 1790.75,491.536 C1790.75,489.599 1792.03,488.63 1794.59,488.63 C1798,488.63 1802.61,491.536 1808.42,497.346 C1809.66,498.586 1810.82,499.748 1811.9,500.832 C1814.61,493.395 1818.95,483.943 1824.92,472.477 C1835.69,451.714 1848.78,441.332 1864.2,441.332 C1869.7,441.332 1874.04,442.378 1877.21,444.47 C1880.39,446.562 1881.98,449.429 1881.98,453.07 C1881.98,458.88 1879.85,463.8 1875.59,467.829 C1871.17,472.012 1866.56,474.104 1861.76,474.104 C1857.57,474.104 1855.48,473.368 1855.48,471.896"/>
<path class="Note" d="M1855.48,650.479 C1859.82,647.535 1862.96,645.094 1864.89,643.157 C1868.46,639.361 1870.24,635.875 1870.24,632.698 C1870.24,629.057 1868.23,627.236 1864.2,627.236 C1856.37,627.236 1848.01,634.132 1839.1,647.922 C1836.38,652.106 1830.42,665.741 1821.2,688.828 C1828.56,696.421 1832.24,700.721 1832.24,701.728 C1832.24,703.122 1831.35,703.819 1829.57,703.819 C1828.17,703.819 1824.34,701.457 1818.06,696.731 C1811.24,712.613 1800.9,726.171 1787.03,737.404 C1772.86,748.871 1755.93,754.604 1736.25,754.604 C1728.73,754.604 1719.32,752.86 1708.01,749.374 C1698.95,746.585 1694.41,742.13 1694.41,736.01 C1694.41,726.945 1697.9,722.413 1704.87,722.413 C1709.06,722.413 1711.15,724.35 1711.15,728.224 C1711.15,729.463 1710.18,730.78 1708.24,732.175 C1707.24,732.872 1706.73,734.228 1706.73,736.242 C1706.73,738.644 1709.4,741.123 1714.75,743.68 C1720.56,746.469 1729.08,747.863 1740.32,747.863 C1754.8,747.863 1768.79,741.588 1782.27,729.037 C1794.51,717.649 1803.3,704.401 1808.65,689.293 C1806.56,687.589 1804.31,685.729 1801.91,683.715 C1794.47,679.299 1790.75,674.767 1790.75,670.118 C1790.75,668.181 1792.03,667.213 1794.59,667.213 C1798,667.213 1802.61,670.118 1808.42,675.929 C1809.66,677.168 1810.82,678.331 1811.9,679.415 C1814.61,671.978 1818.95,662.526 1824.92,651.06 C1835.69,630.297 1848.78,619.915 1864.2,619.915 C1869.7,619.915 1874.04,620.961 1877.21,623.053 C1880.39,625.145 1881.98,628.011 1881.98,631.652 C1881.98,637.463 1879.85,642.383 1875.59,646.411 C1871.17,650.595 1866.56,652.687 1861.76,652.687 C1857.57,652.687 1855.48,651.951 1855.48,650.479"/>
<path class="Note" d="M2443.14,941.13 C2447.72,941.13 2450,943.997 2450,949.73 C2450,953.758 2447.48,959.763 2442.45,967.742 C2438.42,974.173 2436.4,980.448 2436.4,986.568 C2436.4,990.055 2441.48,991.798 2451.63,991.798 C2459.99,991.798 2471.65,987.266 2486.61,978.201 C2471.58,992.689 2458.52,999.933 2447.44,999.933 C2437.45,999.933 2430.48,998.422 2426.53,995.401 C2425.52,994.626 2424.67,993.696 2423.97,992.611 C2420.1,997.337 2413.63,999.7 2404.56,999.7 C2395.89,999.7 2389.22,997.918 2384.57,994.355 C2381.48,991.953 2379.93,988.118 2379.93,982.85 C2379.93,974.483 2384.88,965.341 2394.8,955.424 C2405.41,944.81 2417.69,939.503 2431.64,939.503 C2435.13,939.503 2437.68,940.781 2439.31,943.338 C2440.63,941.866 2441.9,941.13 2443.14,941.13 M2422.34,987.382 C2422.27,986.762 2422.23,986.142 2422.23,985.523 C2422.23,985.213 2426.18,974.405 2434.08,953.1 C2434.85,951.008 2435.63,949.226 2436.4,947.754 C2433.38,947.134 2430.4,946.824 2427.46,946.824 C2422.03,946.824 2414.83,951.434 2405.84,960.653 C2397.78,968.866 2393.75,975.955 2393.75,981.92 C2393.75,988.505 2396.89,991.798 2403.17,991.798 C2410.76,991.798 2417.15,990.326 2422.34,987.382"/>
<path class="Note" d="M2419.9,536.667 C2422.38,536.667 2424.09,537.287 2425.02,538.526 C2426.41,540.618 2427.11,543.562 2427.11,547.358 C2427.11,551.774 2424.01,562.349 2417.81,579.084 C2407.66,607.517 2402.59,622.585 2402.59,624.29 C2402.59,628.861 2404.41,631.185 2408.05,631.263 C2409.6,631.263 2413.55,628.861 2419.9,624.057 C2426.18,619.486 2431.02,617.201 2434.43,617.201 C2435.82,617.201 2436.52,618.053 2436.52,619.758 C2436.52,622.624 2432.69,626.382 2425.02,631.03 C2412.46,638.7 2403.79,642.535 2398.98,642.535 C2391.31,642.535 2387.48,639.513 2387.48,633.471 C2387.48,633.316 2392.79,615.535 2403.4,580.13 C2409.83,558.824 2413.74,544.957 2415.14,538.526 C2415.37,537.287 2416.96,536.667 2419.9,536.667"/>
<path class="Note" d="M2385.39,553.244 C2381.2,553.244 2379.11,551.346 2379.11,547.549 C2379.11,541.119 2380.08,536.393 2382.02,533.372 C2390.07,521.441 2407.58,499.128 2434.54,466.434 C2446.71,451.637 2462.4,444.238 2481.61,444.238 C2489.05,444.238 2494.2,445.284 2497.07,447.375 C2501.48,450.629 2503.69,454.542 2503.69,459.113 C2503.69,463.916 2499.82,469.262 2492.07,475.15 C2484.71,480.728 2477.74,483.517 2471.15,483.517 C2468.59,483.517 2467.32,483.246 2467.32,482.704 C2467.32,481.929 2468.56,481.115 2471.03,480.263 C2474.37,479.024 2477.93,476.506 2481.73,472.709 C2486.06,468.293 2488.23,464.304 2488.23,460.74 C2488.23,458.338 2486.57,456.053 2483.24,453.883 C2480.29,452.024 2475.53,451.094 2468.94,451.094 C2459.34,451.094 2447.21,460.778 2432.57,480.147 C2422.81,493.085 2414.91,504.474 2408.86,514.313 C2411.81,512.686 2415.33,510.71 2419.44,508.386 C2424.47,505.52 2428.81,504.086 2432.45,504.086 C2441.52,504.086 2446.05,507.34 2446.05,513.848 C2446.05,520.278 2442.33,527.329 2434.89,534.999 C2429.63,540.422 2426.99,544.45 2426.99,547.084 C2426.99,549.796 2429.63,551.152 2434.89,551.152 C2437.53,551.152 2440.24,550.222 2443.03,548.363 C2445.82,546.581 2447.87,545.69 2449.19,545.69 C2450.27,545.69 2450.81,546.387 2450.81,547.782 C2450.81,550.028 2448.64,552.391 2444.31,554.871 C2437.02,559.054 2431.17,561.146 2426.76,561.146 C2418.93,561.146 2415.02,556.962 2415.02,548.595 C2415.02,543.327 2418.04,537.478 2424.09,531.047 C2428.5,526.321 2430.71,521.634 2430.71,516.986 C2430.71,512.957 2428.54,510.943 2424.2,510.943 C2422.5,510.943 2416.84,512.957 2407.24,516.986 C2404.37,521.789 2401.97,526.205 2400.03,530.234 C2392.67,545.574 2387.79,553.244 2385.39,553.244"/>
<path class="Note" d="M2419.9,625.958 C2422.38,625.958 2424.09,626.578 2425.02,627.818 C2426.41,629.909 2427.11,632.853 2427.11,636.65 C2427.11,641.066 2424.01,651.641 2417.81,668.375 C2407.66,696.808 2402.59,711.877 2402.59,713.581 C2402.59,718.152 2404.41,720.476 2408.05,720.554 C2409.6,720.554 2413.55,718.152 2419.9,713.349 C2426.18,708.778 2431.02,706.492 2434.43,706.492 C2435.82,706.492 2436.52,707.345 2436.52,709.049 C2436.52,711.916 2432.69,715.673 2425.02,720.321 C2412.46,727.991 2403.79,731.826 2398.98,731.826 C2391.31,731.826 2387.48,728.805 2387.48,722.762 C2387.48,722.607 2392.79,704.827 2403.4,669.421 C2409.83,648.116 2413.74,634.248 2415.14,627.818 C2415.37,626.578 2416.96,625.958 2419.9,625.958"/>
<path class="Note" d="M3029.42,938.225 C3039.88,931.639 3047.48,926.255 3052.2,922.071 C3060.88,914.401 3065.22,906.654 3065.22,898.829 C3065.22,889.687 3059.1,885.116 3046.86,885.116 C3034,885.116 3020.59,894.374 3006.65,912.891 C2997.2,925.442 2990.49,937.295 2986.54,948.451 C2991.42,945.275 2996.58,943.687 3002,943.687 C3007.11,943.687 3011.18,945.972 3014.2,950.543 C3016.29,953.72 3017.34,959.143 3017.34,966.813 C3017.34,973.708 3013.7,981.804 3006.41,991.101 C3001.92,996.834 2996.92,999.7 2991.42,999.7 C2984.45,999.7 2979.57,998.306 2976.78,995.517 C2972.83,991.566 2970.85,983.741 2970.85,972.042 C2970.85,952.364 2978.8,932.995 2994.68,913.937 C3012.57,892.476 3029.73,881.746 3046.16,881.746 C3058.86,881.746 3068.36,884.729 3074.63,890.694 C3078.27,894.181 3080.09,899.217 3080.09,905.802 C3080.09,913.162 3072.85,921.374 3058.36,930.439 C3050.77,935.242 3041.12,937.837 3029.42,938.225 M2985.03,953.332 C2983.1,959.84 2982.13,966.077 2982.13,972.042 C2982.13,986.22 2984.37,993.309 2988.87,993.309 C2993.13,993.309 2996.46,990.287 2998.86,984.244 C3001.65,977.427 3003.04,969.873 3003.04,961.583 C3003.04,954.223 3000.6,950.543 2995.72,950.543 C2992.31,950.543 2988.75,951.473 2985.03,953.332"/>
<path class="Note" d="M3029.42,848.933 C3039.88,842.348 3047.48,836.964 3052.2,832.78 C3060.88,825.11 3065.22,817.363 3065.22,809.538 C3065.22,800.396 3059.1,795.825 3046.86,795.825 C3034,795.825 3020.59,805.083 3006.65,823.599 C2997.2,836.15 2990.49,848.004 2986.54,859.16 C2991.42,855.984 2996.58,854.395 3002,854.395 C3007.11,854.395 3011.18,856.681 3014.2,861.252 C3016.29,864.428 3017.34,869.851 3017.34,877.521 C3017.34,884.416 3013.7,892.513 3006.41,901.809 C3001.92,907.542 2996.92,910.409 2991.42,910.409 C2984.45,910.409 2979.57,909.014 2976.78,906.225 C2972.83,902.274 2970.85,894.449 2970.85,882.751 C2970.85,863.072 2978.8,843.704 2994.68,824.645 C3012.57,803.185 3029.73,792.455 3046.16,792.455 C3058.86,792.455 3068.36,795.438 3074.63,801.403 C3078.27,804.889 3080.09,809.925 3080.09,816.511 C3080.09,823.871 3072.85,832.083 3058.36,841.147 C3050.77,845.951 3041.12,848.546 3029.42,848.933 M2985.03,864.041 C2983.1,870.549 2982.13,876.785 2982.13,882.751 C2982.13,896.929 2984.37,904.017 2988.87,904.017 C2993.13,904.017 2996.46,900.996 2998.86,894.953 C3001.65,888.135 3003.04,880.582 3003.04,872.292 C3003.04,864.932 3000.6,861.252 2995.72,861.252 C2992.31,861.252 2988.75,862.181 2985.03,864.041"/>
<path class="Note" d="M3029.42,581.059 C3039.88,574.474 3047.48,569.09 3052.2,564.906 C3060.88,557.236 3065.22,549.489 3065.22,541.664 C3065.22,532.522 3059.1,527.951 3046.86,527.951 C3034,527.951 3020.59,537.209 3006.65,555.725 C2997.2,568.276 2990.49,580.13 2986.54,591.286 C2991.42,588.11 2996.58,586.521 3002,586.521 C3007.11,586.521 3011.18,588.807 3014.2,593.378 C3016.29,596.554 3017.34,601.977 3017.34,609.647 C3017.34,616.542 3013.7,624.638 3006.41,633.935 C3001.92,639.668 2996.92,642.535 2991.42,642.535 C2984.45,642.535 2979.57,641.14 2976.78,638.351 C2972.83,634.4 2970.85,626.575 2970.85,614.877 C2970.85,595.198 2978.8,575.83 2994.68,556.771 C3012.57,535.311 3029.73,524.581 3046.16,524.581 C3058.86,524.581 3068.36,527.564 3074.63,533.529 C3078.27,537.015 3080.09,542.051 3080.09,548.637 C3080.09,555.997 3072.85,564.209 3058.36,573.273 C3050.77,578.077 3041.12,580.672 3029.42,581.059 M2985.03,596.167 C2983.1,602.675 2982.13,608.911 2982.13,614.877 C2982.13,629.055 2984.37,636.143 2988.87,636.143 C2993.13,636.143 2996.46,633.122 2998.86,627.079 C3001.65,620.261 3003.04,612.707 3003.04,604.418 C3003.04,597.058 3000.6,593.378 2995.72,593.378 C2992.31,593.378 2988.75,594.307 2985.03,596.167"/>
<path class="Note" d="M3747.45,938.225 C3757.91,931.639 3765.5,926.255 3770.23,922.071 C3778.91,914.401 3783.25,906.654 3783.25,898.829 C3783.25,889.687 3777.13,885.116 3764.88,885.116 C3752.02,885.116 3738.62,894.374 3724.68,912.891 C3715.22,925.442 3708.52,937.295 3704.57,948.451 C3709.45,945.275 3714.6,943.687 3720.03,943.687 C3725.14,943.687 3729.21,945.972 3732.23,950.543 C3734.32,953.72 3735.37,959.143 3735.37,966.813 C3735.37,973.708 3731.73,981.804 3724.44,991.101 C3719.95,996.834 3714.95,999.7 3709.45,999.7 C3702.48,999.7 3697.6,998.306 3694.81,995.517 C3690.86,991.566 3688.88,983.741 3688.88,972.042 C3688.88,952.364 3696.82,932.995 3712.71,913.937 C3730.6,892.476 3747.76,881.746 3764.19,881.746 C3776.89,881.746 3786.38,884.729 3792.66,890.694 C3796.3,894.181 3798.12,899.217 3798.12,905.802 C3798.12,913.162 3790.88,921.374 3776.39,930.439 C3768.8,935.242 3759.15,937.837 3747.45,938.225 M3703.06,953.332 C3701.12,959.84 3700.16,966.077 3700.16,972.042 C3700.16,986.22 3702.4,993.309 3706.9,993.309 C3711.16,993.309 3714.49,990.287 3716.89,984.244 C3719.68,977.427 3721.07,969.873 3721.07,961.583 C3721.07,954.223 3718.63,950.543 3713.75,950.543 C3710.34,950.543 3706.78,951.473 3703.06,953.332"/>
<path class="Note" d="M3747.45,581.059 C3757.91,574.474 3765.5,569.09 3770.23,564.906 C3778.91,557.236 3783.25,549.489 3783.25,541.664 C3783.25,532.522 3777.13,527.951 3764.88,527.951 C3752.02,527.951 3738.62,537.209 3724.68,555.725 C3715.22,568.276 3708.52,580.13 3704.57,591.286 C3709.45,588.11 3714.6,586.521 3720.03,586.521 C3725.14,586.521 3729.21,588.807 3732.23,593.378 C3734.32,596.554 3735.37,601.977 3735.37,609.647 C3735.37,616.542 3731.73,624.638 3724.44,633.935 C3719.95,639.668 3714.95,642.535 3709.45,642.535 C3702.48,642.535 3697.6,641.14 3694.81,638.351 C3690.86,634.4 3688.88,626.575 3688.88,614.877 C3688.88,595.198 3696.82,575.83 3712.71,556.771 C3730.6,535.311 3747.76,524.581 3764.19,524.581 C3776.89,524.581 3786.38,527.564 3792.66,533.529 C3796.3,537.015 3798.12,542.051 3798.12,548.637 C3798.12,555.997 3790.88,564.209 3776.39,573.273 C3768.8,578.077 3759.15,580.672 3747.45,581.059 M3703.06,596.167 C3701.12,602.675 3700.16,608.911 3700.16,614.877 C3700.16,629.055 3702.4,636.143 3706.9,636.143 C3711.16,636.143 3714.49,633.122 3716.89,627.079 C3719.68,620.261 3721.07,612.707 3721.07,604.418 C3721.07,597.058 3718.63,593.378 3713.75,593.378 C3710.34,593.378 3706.78,594.307 3703.06,596.167"/>
<path class="Note" d="M3747.45,491.768 C3757.91,485.183 3765.5,479.798 3770.23,475.615 C3778.91,467.945 3783.25,460.197 3783.25,452.373 C3783.25,443.231 3777.13,438.66 3764.88,438.66 C3752.02,438.66 3738.62,447.918 3724.68,466.434 C3715.22,478.985 3708.52,490.838 3704.57,501.995 C3709.45,498.818 3714.6,497.23 3720.03,497.23 C3725.14,497.23 3729.21,499.515 3732.23,504.086 C3734.32,507.263 3735.37,512.686 3735.37,520.356 C3735.37,527.251 3731.73,535.347 3724.44,544.644 C3719.95,550.377 3714.95,553.244 3709.45,553.244 C3702.48,553.244 3697.6,551.849 3694.81,549.06 C3690.86,545.109 3688.88,537.284 3688.88,525.585 C3688.88,505.907 3696.82,486.539 3712.71,467.48 C3730.6,446.02 3747.76,435.29 3764.19,435.29 C3776.89,435.29 3786.38,438.272 3792.66,444.238 C3796.3,447.724 3798.12,452.76 3798.12,459.345 C3798.12,466.705 3790.88,474.917 3776.39,483.982 C3768.8,488.785 3759.15,491.381 3747.45,491.768 M3703.06,506.875 C3701.12,513.383 3700.16,519.62 3700.16,525.585 C3700.16,539.763 3702.4,546.852 3706.9,546.852 C3711.16,546.852 3714.49,543.831 3716.89,537.788 C3719.68,530.97 3721.07,523.416 3721.07,515.126 C3721.07,507.766 3718.63,504.086 3713.75,504.086 C3710.34,504.086 3706.78,505.016 3703.06,506.875"/>
<path class="Note" d="M3629.28,766.499 C3629.59,754.8 3636.05,744.418 3648.68,735.354 C3659.92,727.297 3672.2,723.268 3685.52,723.268 C3704.19,723.268 3720.66,730.589 3734.91,745.232 C3743.98,754.606 3748.51,766.227 3748.51,780.095 C3748.51,792.568 3745.18,802.137 3738.51,808.799 C3730.38,817.012 3721.78,821.118 3712.72,821.118 C3706.52,821.118 3701.71,819.723 3698.3,816.934 C3692.73,812.363 3689.94,806.243 3689.94,798.573 C3689.94,788.656 3694.9,779.592 3704.81,771.379 C3712.95,764.639 3721.12,760.223 3729.33,758.131 C3727.16,754.413 3724.41,750.926 3721.08,747.672 C3710.7,737.523 3698.92,732.449 3685.75,732.449 C3672.04,732.449 3660.69,735.431 3651.7,741.397 C3642.41,747.517 3634.93,755.885 3629.28,766.499 M3732.24,764.291 C3727.98,768.242 3723.72,772.464 3719.46,776.957 C3711.09,785.79 3706.9,794.157 3706.9,802.059 C3706.9,810.504 3708.84,814.726 3712.72,814.726 C3716.2,814.726 3721.08,809.961 3727.36,800.432 C3732.39,792.84 3734.91,785.867 3734.91,779.514 C3734.91,774.091 3734.02,769.016 3732.24,764.291"/>
<path class="Note" d="M3776.16,705.563 C3769.8,715.557 3759.77,723.846 3746.06,730.432 C3734.13,736.165 3722.97,739.031 3712.59,739.031 C3704.3,739.031 3697.4,737.366 3691.9,734.034 C3685.94,730.393 3682.96,726.055 3682.96,721.019 C3682.96,709.63 3685.94,699.83 3691.9,691.617 C3700.04,680.461 3708.25,674.883 3716.54,674.883 C3722.43,674.883 3726.61,676.045 3729.09,678.369 C3732.5,681.391 3734.21,685.536 3734.21,690.804 C3734.21,698.241 3728.67,704.71 3717.59,710.211 C3706.82,715.557 3699.34,719.043 3695.16,720.67 C3696.09,722.607 3697.29,724.35 3698.76,725.9 C3702.4,729.773 3707.36,731.71 3713.64,731.71 C3721.54,731.71 3732.15,728.805 3745.48,722.994 C3758.26,717.339 3768.49,711.528 3776.16,705.563 M3693.53,715.324 C3699.34,712.38 3704.65,708.933 3709.45,704.982 C3716.58,699.171 3720.14,692.896 3720.14,686.155 C3720.14,682.359 3718.4,680.461 3714.91,680.461 C3711.97,680.461 3707.94,683.831 3702.83,690.571 C3696.4,698.939 3693.18,705.756 3693.18,711.025 C3693.18,712.497 3693.3,713.93 3693.53,715.324"/>
<path class="Clef" transform="matrix(2.3811,0,0,2.3811,212.156,2158.79)" d="M25.4,-25.1 C17.8,-25.1 11.7,-20.7 11.6,-20.7 C5.8,-16.4 3.5,-11.3 2.6,-7.8 C2.1,-6 1.9,-4.2 1.9,-2.5 C1.9,-0.1 2.3,2.1 3.2,4 C4.4,6.7 6.7,8.6 9.7,9.6 C10.9,10 12.2,10.2 13.5,10.2 C15.7,10.2 18,9.6 19.9,8.5 C23,6.8 24.9,3.2 24.9,-0.7 C24.9,-4.2 23.1,-7.4 20.1,-9.3 C18,-10.7 16,-11.1 14.3,-11.1 C13.1,-11.1 12,-10.9 11.1,-10.6 C10.1,-10.2 8.4,-9.2 7.6,-8.5 C7.9,-10.4 9.1,-13.3 10.2,-14.9 C11.3,-16.5 13.5,-18.5 15.2,-19.4 C17.7,-20.8 20.9,-21.4 24.4,-21.4 C34.6,-21.4 39.6,-13.2 39.6,3.6 C39.6,12.9 36.1,21.8 33.1,27.7 C29.8,34.3 25.4,40.6 21.5,44.1 C11.1,53.6 1.3,58.1 1.2,58.1 C1.2,58.1 -0.3,59 0.1,60.5 C0.4,61.5 1.3,61.7 1.9,61.7 C2,61.7 2.3,61.6 2.4,61.6 C2.5,61.6 13.9,56.9 23,49.8 C28.1,46.1 32.7,42.1 36.7,37.8 C40.3,33.9 43.4,29.7 45.9,25.5 C50.3,18 52.8,10.2 52.8,3.5 C52.8,-4.8 50.6,-11.7 46.5,-16.6 C41.8,-22.2 34.7,-25.1 25.4,-25.1 M56.8,-12.4 C56.8,-9.6 59,-7.4 61.6,-7.4 C64.2,-7.4 66.4,-9.6 66.4,-12.4 C66.4,-15.2 64.2,-17.5 61.6,-17.5 C59,-17.5 56.8,-15.2 56.8,-12.4 M56.8,12.3 C56.8,15.1 59,17.4 61.6,17.4 C64.2,17.4 66.4,15.1 66.4,12.3 C66.4,9.5 64.2,7.2 61.6,7.2 C59,7.2 56.8,9.5 56.8,12.3"/>
<path class="Clef" transform="matrix(2.3811,0,0,2.3811,212.156,1570.39)" d="M63.37,-5.89004 C62.14,-11.32 59.5,-15.14 58.72,-16.1801 C55.5301,-20.45 51.52,-23.3 46.8301,-24.65 C43.72,-25.54 40.72,-25.65 38.3,-25.47 C37.2601,-31.4801 36.2601,-37.3601 35.35,-42.8101 C40.79,-48.97 44.42,-54.77 46.69,-59.07 C50.1601,-65.65 51.3101,-70.2301 51.3601,-70.4301 C53.0801,-75.64 53.44,-83.34 52.34,-91.55 C51.3301,-99.1 49.24,-105.81 46.89,-109.06 C45.8601,-110.49 44.8101,-111.22 43.77,-111.22 C42.55,-111.22 40.04,-109.98 37.15,-107.21 C34.85,-105.01 31.5801,-101.12 29.02,-95.1101 C26.02,-88.05 25.8101,-78.5601 26.1601,-71.84 C26.54,-64.57 27.65,-58.8801 27.6601,-58.8301 C27.6801,-58.74 27.94,-57.24 28.39,-54.67 C28.1601,-54.44 27.92,-54.22 27.67,-53.9801 C26.6301,-52.9801 25.44,-51.84 24.0601,-50.4601 C23.2,-49.6 22.25,-48.69 21.25,-47.72 C12.79,-39.57 0,-27.25 0,-8.1 C0,-3.4 0.9,1.01992 2.68008,5.02998 C4.27002,8.62998 6.57002,11.91 9.5,14.78 C17.2301,22.33 27.82,25.5399 34.8801,25.38 C37.8301,25.31 40.4601,25.0699 42.85,24.6199 C44.6801,34.2199 45.82,41.25 45.8601,46.5899 C45.9,53.1 44.25,57.0699 40.35,59.8399 C37.92,61.5699 35.1101,62.5199 32.0101,62.6699 C29.42,62.7899 27.1601,62.3199 25.7301,61.91 L25.72,61.91 C25.72,61.91 25.4301,61.83 25.42,61.63 C25.4101,61.45 25.7601,61.4 25.77,61.4 L25.79,61.4 C27.7101,60.96 31.2801,59.73 33.64,56.43 C35.44,53.91 36.3101,49.2899 34.47,45.35 C33.3601,42.96 30.85,40.01 25.2301,39.56 C22.74,39.36 20.47,39.8699 18.47,41.0699 C16.6601,42.15 15.1601,43.7899 14.1101,45.7899 C11.65,50.4899 12.1101,56.2199 15.24,60.06 C18.2,63.68 22.82,65.9899 28.25,66.5699 C29.1,66.66 29.95,66.7 30.8,66.7 C31.5101,66.7 32.22,66.6699 32.92,66.61 C31.72,66.9399 30.64,67.4899 29.77,68.25 C28.2801,69.5399 27.44,71.38 27.44,73.41 C27.44,75.28 28.0601,76.65 29.55,78.0399 C28.4101,78.5 27.55,78.98 26.79,79.56 C25.25,80.73 24.34,82.46 24.34,84.1899 C24.34,87.45 27.3,89.63 31.72,89.63 C37.1301,89.63 40.9101,86.63 40.9101,82.35 C40.9101,80.1199 39.9101,78.18 38.0801,76.83 C41.0101,75.6199 42.37,73.9399 42.37,71.56 C42.39,70.05 41.69,68.61 40.49,67.6899 C39.2801,66.7399 37.62,66.2399 35.69,66.2399 L35.5101,66.2399 C38.2801,65.7 40.92,64.7 43.2101,63.28 C46.87,60.71 48.99,56.73 49.67,51.1 C50.2301,46.46 49.84,40.55 48.44,32.48 C48.0801,30.3899 47.54,27.36 46.8801,23.6 C52.6301,21.68 56.79,18.11 60.5601,12.26 C63.85,6.51992 64.8,0.419922 63.37,-5.89004 M32.39,87.5399 C30.19,87.5399 28.7301,86.1199 28.7301,84.01 C28.7301,82.11 29.65,80.5 31.32,79.4699 C31.6801,79.66 31.77,79.71 32.1101,79.88 C33.3,80.48 33.3,80.48 33.55,80.63 L33.5601,80.6399 C35.47,81.73 36.25,82.76 36.25,84.18 C36.24,86.0899 34.59,87.5399 32.39,87.5399 M38.3101,71.63 C38.3101,73.2699 37.7301,74.3399 36.1801,75.53 C34.74,74.78 34.35,74.56 33.9801,74.3399 L33.8801,74.28 C32.3301,73.3399 31.85,72.66 31.85,71.4 C31.85,69.6 33.2301,68.3399 35.19,68.3399 C37.17,68.35 38.3101,69.55 38.3101,71.63 M33.15,-83.8101 C34.9301,-89.55 37.67,-92.8 39.6601,-94.5301 C41.4101,-96.05 43.0601,-96.7601 43.9801,-96.7601 C44.12,-96.7601 44.24,-96.74 44.34,-96.7101 C44.8,-96.57 45.3301,-96 45.8,-95.1301 C48.1101,-90.84 47.37,-84.1301 46.0301,-79.69 C44.4,-74.29 41.4801,-68.6801 32.69,-59.0601 C32.52,-60.17 32.3601,-61.22 32.2101,-62.2 C30.95,-70.49 31.27,-77.7601 33.15,-83.8101 M29.15,20.31 C24.5101,19.0899 20.0801,16.5899 16.32,13.0899 C15.0101,11.86 13.14,9.68994 11.67,6.3 C10.3101,3.13994 9.65,-0.290039 9.7,-3.88008 C9.77002,-8.57002 11.0801,-13.39 13.59,-18.1801 C16.5101,-23.7601 21.07,-29.29 27.1301,-34.62 C28.5801,-35.9 29.95,-37.1801 31.24,-38.4601 C32,-34.2 32.8301,-29.5101 33.7101,-24.6301 C29.8601,-23.3601 25.1101,-20.2101 22,-14.5601 C18.47,-7.99004 18.6101,-2.47002 19.34,1.00996 C20.2801,5.46992 22.8101,9.22998 26.27,11.3199 C27.2,11.88 31.3301,14.01 33.17,13.43 C33.54,13.31 33.8101,13.0899 33.95,12.76 C34.4601,11.5899 33.44,10.95 31.8801,9.98994 C31.2801,9.61992 30.6101,9.2 29.8801,8.66992 C26.5601,6.17998 25.1101,1.72998 26.1801,-2.65 C26.7601,-5.05 28.04,-7.21006 29.8801,-8.91006 C31.55,-10.4601 33.59,-11.5601 35.97,-12.2 C38.0101,-0.960059 40.07,10.1899 41.7101,18.55 C41.84,19.2399 41.9801,19.91 42.1101,20.58 C37.7101,21.51 33.37,21.4199 29.15,20.31 M54.9,10.1 C53.7301,13.28 51.27,17.35 46.14,19.41 C46.07,18.9899 45.99,18.56 45.9101,18.13 C44.3601,9.36992 42.4301,-1.61006 40.47,-12.87 C50.82,-13.35 55.09,-5.91006 55.9801,-1.08008 C56.45,1.45 56.45,5.88994 54.9,10.1"/>
<path class="FiguredBass" d="M565.616,2470.98 C567.966,2470.98 570.44,2470.64 573.038,2469.96 L577.212,2468.85 C578.016,2468.85 578.65,2469.16 579.114,2469.78 C579.578,2470.4 579.532,2470.95 578.975,2471.45 L535.835,2521.64 L561.163,2521.64 L561.163,2501.78 C561.163,2500.36 561.549,2499.26 562.322,2498.49 C563.095,2497.72 564.085,2497.1 565.291,2496.64 C566.497,2496.17 568.074,2494.8 570.022,2492.51 C571.971,2490.22 573.842,2487.13 575.635,2483.23 C575.944,2482.61 576.408,2482.3 577.027,2482.3 C578.326,2482.3 578.975,2483.01 578.975,2484.44 L578.975,2521.64 L589.922,2521.64 C591.469,2521.64 592.242,2522.35 592.242,2523.77 C592.242,2525.32 591.469,2526.09 589.922,2526.09 L578.975,2526.09 L578.975,2527.3 C578.975,2531.13 579.996,2534.47 582.037,2537.32 C584.078,2540.16 586.706,2541.58 589.922,2541.58 C591.159,2541.58 591.778,2542.14 591.778,2543.25 C591.778,2544.49 591.159,2545.11 589.922,2545.11 C587.696,2545.11 584.387,2544.78 579.996,2544.14 C575.604,2543.49 572.28,2543.16 570.022,2543.16 C567.765,2543.16 564.441,2543.49 560.049,2544.14 C555.658,2544.78 552.349,2545.11 550.123,2545.11 C548.886,2545.11 548.267,2544.49 548.267,2543.25 C548.267,2542.14 548.886,2541.58 550.123,2541.58 C553.339,2541.58 555.983,2540.16 558.055,2537.32 C560.127,2534.47 561.163,2531.13 561.163,2527.3 L561.163,2526.09 L535.835,2526.09 C534.227,2526.09 533.037,2525.7 532.264,2524.93 C531.491,2524.16 531.104,2523.37 531.104,2522.57 C531.104,2522.26 531.831,2521.19 533.284,2519.36 C534.738,2517.54 536.516,2515.11 538.619,2512.08 C540.722,2509.05 542.809,2505.6 544.881,2501.74 C546.953,2497.87 548.715,2493.23 550.169,2487.82 C551.622,2482.41 552.349,2476.95 552.349,2471.45 C552.349,2469.84 553.029,2469.04 554.39,2469.04 C554.576,2469.04 555.225,2469.19 556.338,2469.5 C557.452,2469.81 558.874,2470.13 560.606,2470.47 C562.338,2470.81 564.008,2470.98 565.616,2470.98"/>
<path class="FiguredBass" d="M1178.88,2470.98 C1181.24,2470.98 1183.71,2470.64 1186.31,2469.96 L1190.48,2468.85 C1191.29,2468.85 1191.92,2469.16 1192.38,2469.78 C1192.85,2470.4 1192.8,2470.95 1192.24,2471.45 L1149.1,2521.64 L1174.43,2521.64 L1174.43,2501.78 C1174.43,2500.36 1174.82,2499.26 1175.59,2498.49 C1176.36,2497.72 1177.35,2497.1 1178.56,2496.64 C1179.77,2496.17 1181.34,2494.8 1183.29,2492.51 C1185.24,2490.22 1187.11,2487.13 1188.9,2483.23 C1189.21,2482.61 1189.68,2482.3 1190.3,2482.3 C1191.59,2482.3 1192.24,2483.01 1192.24,2484.44 L1192.24,2521.64 L1203.19,2521.64 C1204.74,2521.64 1205.51,2522.35 1205.51,2523.77 C1205.51,2525.32 1204.74,2526.09 1203.19,2526.09 L1192.24,2526.09 L1192.24,2527.3 C1192.24,2531.13 1193.26,2534.47 1195.31,2537.32 C1197.35,2540.16 1199.98,2541.58 1203.19,2541.58 C1204.43,2541.58 1205.05,2542.14 1205.05,2543.25 C1205.05,2544.49 1204.43,2545.11 1203.19,2545.11 C1200.97,2545.11 1197.66,2544.78 1193.26,2544.14 C1188.87,2543.49 1185.55,2543.16 1183.29,2543.16 C1181.03,2543.16 1177.71,2543.49 1173.32,2544.14 C1168.93,2544.78 1165.62,2545.11 1163.39,2545.11 C1162.15,2545.11 1161.54,2544.49 1161.54,2543.25 C1161.54,2542.14 1162.15,2541.58 1163.39,2541.58 C1166.61,2541.58 1169.25,2540.16 1171.32,2537.32 C1173.4,2534.47 1174.43,2531.13 1174.43,2527.3 L1174.43,2526.09 L1149.1,2526.09 C1147.5,2526.09 1146.31,2525.7 1145.53,2524.93 C1144.76,2524.16 1144.37,2523.37 1144.37,2522.57 C1144.37,2522.26 1145.1,2521.19 1146.55,2519.36 C1148.01,2517.54 1149.79,2515.11 1151.89,2512.08 C1153.99,2509.05 1156.08,2505.6 1158.15,2501.74 C1160.22,2497.87 1161.98,2493.23 1163.44,2487.82 C1164.89,2482.41 1165.62,2476.95 1165.62,2471.45 C1165.62,2469.84 1166.3,2469.04 1167.66,2469.04 C1167.84,2469.04 1168.49,2469.19 1169.61,2469.5 C1170.72,2469.81 1172.14,2470.13 1173.88,2470.47 C1175.61,2470.81 1177.28,2470.98 1178.88,2470.98"/>
<path class="FiguredBass" d="M1808.33,2470.98 C1810.68,2470.98 1813.15,2470.64 1815.75,2469.96 L1819.92,2468.85 C1820.73,2468.85 1821.36,2469.16 1821.83,2469.78 C1822.29,2470.4 1822.24,2470.95 1821.69,2471.45 L1778.55,2521.64 L1803.87,2521.64 L1803.87,2501.78 C1803.87,2500.36 1804.26,2499.26 1805.03,2498.49 C1805.81,2497.72 1806.8,2497.1 1808,2496.64 C1809.21,2496.17 1810.79,2494.8 1812.73,2492.51 C1814.68,2490.22 1816.55,2487.13 1818.35,2483.23 C1818.66,2482.61 1819.12,2482.3 1819.74,2482.3 C1821.04,2482.3 1821.69,2483.01 1821.69,2484.44 L1821.69,2521.64 L1832.63,2521.64 C1834.18,2521.64 1834.95,2522.35 1834.95,2523.77 C1834.95,2525.32 1834.18,2526.09 1832.63,2526.09 L1821.69,2526.09 L1821.69,2527.3 C1821.69,2531.13 1822.71,2534.47 1824.75,2537.32 C1826.79,2540.16 1829.42,2541.58 1832.63,2541.58 C1833.87,2541.58 1834.49,2542.14 1834.49,2543.25 C1834.49,2544.49 1833.87,2545.11 1832.63,2545.11 C1830.41,2545.11 1827.1,2544.78 1822.71,2544.14 C1818.32,2543.49 1814.99,2543.16 1812.73,2543.16 C1810.48,2543.16 1807.15,2543.49 1802.76,2544.14 C1798.37,2544.78 1795.06,2545.11 1792.83,2545.11 C1791.6,2545.11 1790.98,2544.49 1790.98,2543.25 C1790.98,2542.14 1791.6,2541.58 1792.83,2541.58 C1796.05,2541.58 1798.69,2540.16 1800.77,2537.32 C1802.84,2534.47 1803.87,2531.13 1803.87,2527.3 L1803.87,2526.09 L1778.55,2526.09 C1776.94,2526.09 1775.75,2525.7 1774.98,2524.93 C1774.2,2524.16 1773.82,2523.37 1773.82,2522.57 C1773.82,2522.26 1774.54,2521.19 1776,2519.36 C1777.45,2517.54 1779.23,2515.11 1781.33,2512.08 C1783.43,2509.05 1785.52,2505.6 1787.59,2501.74 C1789.66,2497.87 1791.43,2493.23 1792.88,2487.82 C1794.33,2482.41 1795.06,2476.95 1795.06,2471.45 C1795.06,2469.84 1795.74,2469.04 1797.1,2469.04 C1797.29,2469.04 1797.94,2469.19 1799.05,2469.5 C1800.16,2469.81 1801.59,2470.13 1803.32,2470.47 C1805.05,2470.81 1806.72,2470.98 1808.33,2470.98"/>
<path class="FiguredBass" d="M2410.86,2470.98 C2413.21,2470.98 2415.69,2470.64 2418.29,2469.96 L2422.46,2468.85 C2423.27,2468.85 2423.9,2469.16 2424.36,2469.78 C2424.83,2470.4 2424.78,2470.95 2424.22,2471.45 L2381.08,2521.64 L2406.41,2521.64 L2406.41,2501.78 C2406.41,2500.36 2406.8,2499.26 2407.57,2498.49 C2408.34,2497.72 2409.33,2497.1 2410.54,2496.64 C2411.75,2496.17 2413.32,2494.8 2415.27,2492.51 C2417.22,2490.22 2419.09,2487.13 2420.88,2483.23 C2421.19,2482.61 2421.66,2482.3 2422.28,2482.3 C2423.57,2482.3 2424.22,2483.01 2424.22,2484.44 L2424.22,2521.64 L2435.17,2521.64 C2436.72,2521.64 2437.49,2522.35 2437.49,2523.77 C2437.49,2525.32 2436.72,2526.09 2435.17,2526.09 L2424.22,2526.09 L2424.22,2527.3 C2424.22,2531.13 2425.24,2534.47 2427.29,2537.32 C2429.33,2540.16 2431.96,2541.58 2435.17,2541.58 C2436.41,2541.58 2437.03,2542.14 2437.03,2543.25 C2437.03,2544.49 2436.41,2545.11 2435.17,2545.11 C2432.94,2545.11 2429.64,2544.78 2425.24,2544.14 C2420.85,2543.49 2417.53,2543.16 2415.27,2543.16 C2413.01,2543.16 2409.69,2543.49 2405.3,2544.14 C2400.91,2544.78 2397.6,2545.11 2395.37,2545.11 C2394.13,2545.11 2393.52,2544.49 2393.52,2543.25 C2393.52,2542.14 2394.13,2541.58 2395.37,2541.58 C2398.59,2541.58 2401.23,2540.16 2403.3,2537.32 C2405.38,2534.47 2406.41,2531.13 2406.41,2527.3 L2406.41,2526.09 L2381.08,2526.09 C2379.48,2526.09 2378.29,2525.7 2377.51,2524.93 C2376.74,2524.16 2376.35,2523.37 2376.35,2522.57 C2376.35,2522.26 2377.08,2521.19 2378.53,2519.36 C2379.99,2517.54 2381.76,2515.11 2383.87,2512.08 C2385.97,2509.05 2388.06,2505.6 2390.13,2501.74 C2392.2,2497.87 2393.96,2493.23 2395.42,2487.82 C2396.87,2482.41 2397.6,2476.95 2397.6,2471.45 C2397.6,2469.84 2398.28,2469.04 2399.64,2469.04 C2399.82,2469.04 2400.47,2469.19 2401.59,2469.5 C2402.7,2469.81 2404.12,2470.13 2405.85,2470.47 C2407.59,2470.81 2409.26,2470.98 2410.86,2470.98"/>
<path class="FiguredBass" d="M2990.06,2470.98 C2992.41,2470.98 2994.88,2470.64 2997.48,2469.96 L3001.65,2468.85 C3002.46,2468.85 3003.09,2469.16 3003.55,2469.78 C3004.02,2470.4 3003.97,2470.95 3003.42,2471.45 L2960.28,2521.64 L2985.6,2521.64 L2985.6,2501.78 C2985.6,2500.36 2985.99,2499.26 2986.76,2498.49 C2987.54,2497.72 2988.53,2497.1 2989.73,2496.64 C2990.94,2496.17 2992.51,2494.8 2994.46,2492.51 C2996.41,2490.22 2998.28,2487.13 3000.08,2483.23 C3000.38,2482.61 3000.85,2482.3 3001.47,2482.3 C3002.77,2482.3 3003.42,2483.01 3003.42,2484.44 L3003.42,2521.64 L3014.36,2521.64 C3015.91,2521.64 3016.68,2522.35 3016.68,2523.77 C3016.68,2525.32 3015.91,2526.09 3014.36,2526.09 L3003.42,2526.09 L3003.42,2527.3 C3003.42,2531.13 3004.44,2534.47 3006.48,2537.32 C3008.52,2540.16 3011.15,2541.58 3014.36,2541.58 C3015.6,2541.58 3016.22,2542.14 3016.22,2543.25 C3016.22,2544.49 3015.6,2545.11 3014.36,2545.11 C3012.14,2545.11 3008.83,2544.78 3004.44,2544.14 C3000.04,2543.49 2996.72,2543.16 2994.46,2543.16 C2992.21,2543.16 2988.88,2543.49 2984.49,2544.14 C2980.1,2544.78 2976.79,2545.11 2974.56,2545.11 C2973.33,2545.11 2972.71,2544.49 2972.71,2543.25 C2972.71,2542.14 2973.33,2541.58 2974.56,2541.58 C2977.78,2541.58 2980.42,2540.16 2982.5,2537.32 C2984.57,2534.47 2985.6,2531.13 2985.6,2527.3 L2985.6,2526.09 L2960.28,2526.09 C2958.67,2526.09 2957.48,2525.7 2956.7,2524.93 C2955.93,2524.16 2955.54,2523.37 2955.54,2522.57 C2955.54,2522.26 2956.27,2521.19 2957.72,2519.36 C2959.18,2517.54 2960.96,2515.11 2963.06,2512.08 C2965.16,2509.05 2967.25,2505.6 2969.32,2501.74 C2971.39,2497.87 2973.16,2493.23 2974.61,2487.82 C2976.06,2482.41 2976.79,2476.95 2976.79,2471.45 C2976.79,2469.84 2977.47,2469.04 2978.83,2469.04 C2979.02,2469.04 2979.67,2469.19 2980.78,2469.5 C2981.89,2469.81 2983.31,2470.13 2985.05,2470.47 C2986.78,2470.81 2988.45,2470.98 2990.06,2470.98"/>
<path class="FiguredBass" d="M3708.08,2470.98 C3710.43,2470.98 3712.91,2470.64 3715.51,2469.96 L3719.68,2468.85 C3720.49,2468.85 3721.12,2469.16 3721.58,2469.78 C3722.05,2470.4 3722,2470.95 3721.44,2471.45 L3678.3,2521.64 L3703.63,2521.64 L3703.63,2501.78 C3703.63,2500.36 3704.02,2499.26 3704.79,2498.49 C3705.56,2497.72 3706.55,2497.1 3707.76,2496.64 C3708.97,2496.17 3710.54,2494.8 3712.49,2492.51 C3714.44,2490.22 3716.31,2487.13 3718.1,2483.23 C3718.41,2482.61 3718.88,2482.3 3719.5,2482.3 C3720.79,2482.3 3721.44,2483.01 3721.44,2484.44 L3721.44,2521.64 L3732.39,2521.64 C3733.94,2521.64 3734.71,2522.35 3734.71,2523.77 C3734.71,2525.32 3733.94,2526.09 3732.39,2526.09 L3721.44,2526.09 L3721.44,2527.3 C3721.44,2531.13 3722.46,2534.47 3724.51,2537.32 C3726.55,2540.16 3729.18,2541.58 3732.39,2541.58 C3733.63,2541.58 3734.25,2542.14 3734.25,2543.25 C3734.25,2544.49 3733.63,2545.11 3732.39,2545.11 C3730.16,2545.11 3726.86,2544.78 3722.46,2544.14 C3718.07,2543.49 3714.75,2543.16 3712.49,2543.16 C3710.23,2543.16 3706.91,2543.49 3702.52,2544.14 C3698.13,2544.78 3694.82,2545.11 3692.59,2545.11 C3691.35,2545.11 3690.74,2544.49 3690.74,2543.25 C3690.74,2542.14 3691.35,2541.58 3692.59,2541.58 C3695.81,2541.58 3698.45,2540.16 3700.52,2537.32 C3702.6,2534.47 3703.63,2531.13 3703.63,2527.3 L3703.63,2526.09 L3678.3,2526.09 C3676.7,2526.09 3675.51,2525.7 3674.73,2524.93 C3673.96,2524.16 3673.57,2523.37 3673.57,2522.57 C3673.57,2522.26 3674.3,2521.19 3675.75,2519.36 C3677.21,2517.54 3678.98,2515.11 3681.09,2512.08 C3683.19,2509.05 3685.28,2505.6 3687.35,2501.74 C3689.42,2497.87 3691.18,2493.23 3692.64,2487.82 C3694.09,2482.41 3694.82,2476.95 3694.82,2471.45 C3694.82,2469.84 3695.5,2469.04 3696.86,2469.04 C3697.04,2469.04 3697.69,2469.19 3698.81,2469.5 C3699.92,2469.81 3701.34,2470.13 3703.07,2470.47 C3704.81,2470.81 3706.48,2470.98 3708.08,2470.98"/>
<path class="FiguredBass" d="M543.628,1761.58 C543.628,1761.58 545.113,1761.8 548.082,1762.23 C549.38,1762.42 550.834,1762.6 552.442,1762.79 C556.709,1763.28 560.822,1763.53 564.781,1763.53 C568.739,1763.53 572.914,1763.28 577.305,1762.79 C579.037,1762.6 580.552,1762.42 581.851,1762.23 L586.397,1761.58 C587.325,1761.58 588.021,1761.89 588.484,1762.51 C588.948,1763.13 588.902,1763.62 588.345,1763.99 C578.882,1773.46 565.554,1778.19 548.36,1778.19 C547.68,1778.19 547.076,1778.44 546.551,1778.93 C546.025,1779.43 545.762,1780.04 545.762,1780.79 L545.762,1795.35 C550.153,1791.02 555.472,1788.86 561.719,1788.86 C570.749,1788.86 577.723,1790.88 582.64,1794.93 C587.557,1798.99 590.015,1805.12 590.015,1813.35 C590.015,1820.34 587.232,1826.14 581.666,1830.74 C576.099,1835.35 569.45,1837.66 561.719,1837.66 C555.04,1837.66 549.241,1836.14 544.324,1833.11 C539.407,1830.08 536.949,1825.87 536.949,1820.49 C536.949,1817.77 537.938,1815.41 539.917,1813.4 C541.897,1811.39 544.262,1810.38 547.015,1810.38 C549.767,1810.38 552.102,1811.37 554.019,1813.35 C555.936,1815.33 556.895,1817.71 556.895,1820.49 C556.895,1821.73 555.875,1823.08 553.833,1824.53 C551.792,1825.98 550.772,1827.33 550.772,1828.56 C550.772,1832.28 554.421,1834.13 561.719,1834.13 C568.832,1834.13 572.388,1827.2 572.388,1813.35 C572.388,1799.99 568.832,1793.28 561.719,1793.22 C555.349,1793.22 550.896,1794.52 548.36,1797.11 C545.824,1799.71 544.247,1801.01 543.628,1801.01 C542.082,1801.01 541.34,1800.24 541.402,1798.69 L541.402,1763.99 C541.402,1763.31 541.618,1762.74 542.051,1762.28 C542.484,1761.81 543.01,1761.58 543.628,1761.58"/>
<path class="FiguredBass" d="M565.616,1869.28 C567.966,1869.28 570.44,1868.94 573.038,1868.26 L577.212,1867.15 C578.016,1867.15 578.65,1867.46 579.114,1868.07 C579.578,1868.69 579.532,1869.25 578.975,1869.74 L535.835,1919.93 L561.163,1919.93 L561.163,1900.08 C561.163,1898.66 561.549,1897.56 562.322,1896.79 C563.095,1896.01 564.085,1895.4 565.291,1894.93 C566.497,1894.47 568.074,1893.09 570.022,1890.8 C571.971,1888.52 573.842,1885.42 575.635,1881.53 C575.944,1880.91 576.408,1880.6 577.027,1880.6 C578.326,1880.6 578.975,1881.31 578.975,1882.73 L578.975,1919.93 L589.922,1919.93 C591.469,1919.93 592.242,1920.65 592.242,1922.07 C592.242,1923.61 591.469,1924.39 589.922,1924.39 L578.975,1924.39 L578.975,1925.59 C578.975,1929.43 579.996,1932.77 582.037,1935.61 C584.078,1938.46 586.706,1939.88 589.922,1939.88 C591.159,1939.88 591.778,1940.44 591.778,1941.55 C591.778,1942.79 591.159,1943.41 589.922,1943.41 C587.696,1943.41 584.387,1943.08 579.996,1942.43 C575.604,1941.78 572.28,1941.46 570.022,1941.46 C567.765,1941.46 564.441,1941.78 560.049,1942.43 C555.658,1943.08 552.349,1943.41 550.123,1943.41 C548.886,1943.41 548.267,1942.79 548.267,1941.55 C548.267,1940.44 548.886,1939.88 550.123,1939.88 C553.339,1939.88 555.983,1938.46 558.055,1935.61 C560.127,1932.77 561.163,1929.43 561.163,1925.59 L561.163,1924.39 L535.835,1924.39 C534.227,1924.39 533.037,1924 532.264,1923.23 C531.491,1922.45 531.104,1921.67 531.104,1920.86 C531.104,1920.55 531.831,1919.49 533.284,1917.66 C534.738,1915.84 536.516,1913.41 538.619,1910.38 C540.722,1907.35 542.809,1903.9 544.881,1900.03 C546.953,1896.17 548.715,1891.53 550.169,1886.12 C551.622,1880.71 552.349,1875.25 552.349,1869.74 C552.349,1868.14 553.029,1867.33 554.39,1867.33 C554.576,1867.33 555.225,1867.49 556.338,1867.8 C557.452,1868.11 558.874,1868.43 560.606,1868.77 C562.338,1869.11 564.008,1869.28 565.616,1869.28"/>
<path class="FiguredBass" d="M1178.88,1763.53 C1181.24,1763.53 1183.71,1763.19 1186.31,1762.51 L1190.48,1761.4 C1191.29,1761.4 1191.92,1761.71 1192.38,1762.32 C1192.85,1762.94 1192.8,1763.5 1192.24,1763.99 L1149.1,1814.18 L1174.43,1814.18 L1174.43,1794.33 C1174.43,1792.91 1174.82,1791.81 1175.59,1791.04 C1176.36,1790.26 1177.35,1789.65 1178.56,1789.18 C1179.77,1788.72 1181.34,1787.34 1183.29,1785.05 C1185.24,1782.77 1187.11,1779.67 1188.9,1775.78 C1189.21,1775.16 1189.68,1774.85 1190.3,1774.85 C1191.59,1774.85 1192.24,1775.56 1192.24,1776.98 L1192.24,1814.18 L1203.19,1814.18 C1204.74,1814.18 1205.51,1814.9 1205.51,1816.32 C1205.51,1817.86 1204.74,1818.64 1203.19,1818.64 L1192.24,1818.64 L1192.24,1819.84 C1192.24,1823.68 1193.26,1827.02 1195.31,1829.86 C1197.35,1832.71 1199.98,1834.13 1203.19,1834.13 C1204.43,1834.13 1205.05,1834.69 1205.05,1835.8 C1205.05,1837.04 1204.43,1837.66 1203.19,1837.66 C1200.97,1837.66 1197.66,1837.33 1193.26,1836.68 C1188.87,1836.03 1185.55,1835.71 1183.29,1835.71 C1181.03,1835.71 1177.71,1836.03 1173.32,1836.68 C1168.93,1837.33 1165.62,1837.66 1163.39,1837.66 C1162.15,1837.66 1161.54,1837.04 1161.54,1835.8 C1161.54,1834.69 1162.15,1834.13 1163.39,1834.13 C1166.61,1834.13 1169.25,1832.71 1171.32,1829.86 C1173.4,1827.02 1174.43,1823.68 1174.43,1819.84 L1174.43,1818.64 L1149.1,1818.64 C1147.5,1818.64 1146.31,1818.25 1145.53,1817.48 C1144.76,1816.7 1144.37,1815.92 1144.37,1815.11 C1144.37,1814.8 1145.1,1813.74 1146.55,1811.91 C1148.01,1810.09 1149.79,1807.66 1151.89,1804.63 C1153.99,1801.6 1156.08,1798.15 1158.15,1794.28 C1160.22,1790.42 1161.98,1785.78 1163.44,1780.37 C1164.89,1774.96 1165.62,1769.5 1165.62,1763.99 C1165.62,1762.39 1166.3,1761.58 1167.66,1761.58 C1167.84,1761.58 1168.49,1761.74 1169.61,1762.05 C1170.72,1762.36 1172.14,1762.68 1173.88,1763.02 C1175.61,1763.36 1177.28,1763.53 1178.88,1763.53"/>
<path class="FiguredBass" d="M1187.88,1899.62 C1192.83,1894.24 1195.31,1889.04 1195.31,1884.03 C1195.31,1879.95 1193.56,1876.73 1190.06,1874.38 C1186.57,1872.03 1182.38,1870.86 1177.49,1870.86 C1174.03,1870.86 1171.26,1871.94 1169.19,1874.1 C1167.12,1876.27 1166.08,1878.77 1166.08,1881.62 C1166.08,1885.08 1167.6,1887.71 1170.63,1889.5 L1187.88,1899.62 M1192.43,1902.21 C1200.84,1907.1 1205.05,1913.53 1205.05,1921.51 C1205.05,1927.51 1202.48,1932.66 1197.35,1936.96 C1192.21,1941.26 1185.19,1943.41 1176.29,1943.41 C1168.8,1943.41 1162.29,1941.43 1156.76,1937.47 C1151.22,1933.51 1148.46,1928.38 1148.46,1922.07 C1148.46,1919.72 1149.14,1917.34 1150.5,1914.92 C1151.86,1912.51 1153.12,1910.7 1154.3,1909.5 C1155.48,1908.29 1157.39,1906.42 1160.05,1903.88 C1153.87,1899.62 1150.77,1894.24 1150.77,1887.74 C1150.77,1882.18 1153.16,1877.38 1157.92,1873.36 C1162.68,1869.34 1169.21,1867.33 1177.49,1867.33 C1184.11,1867.33 1189.85,1868.83 1194.7,1871.83 C1199.56,1874.83 1201.99,1878.9 1201.99,1884.03 C1201.99,1889.54 1198.8,1895.6 1192.43,1902.21 M1164.6,1906.58 C1158.29,1912.08 1155.13,1917.24 1155.13,1922.07 C1155.13,1927.14 1157.24,1931.38 1161.44,1934.78 C1165.65,1938.18 1170.6,1939.88 1176.29,1939.88 C1180.25,1939.88 1183.42,1938.61 1185.8,1936.08 C1188.18,1933.54 1189.37,1930.6 1189.37,1927.26 C1189.37,1923 1187.61,1919.84 1184.08,1917.8 L1164.6,1906.58 "/>
<path class="FiguredBass" d="M1156.9,1973.08 C1156.9,1973.08 1158.38,1973.3 1161.35,1973.73 C1162.65,1973.92 1164.1,1974.1 1165.71,1974.29 C1169.98,1974.78 1174.09,1975.03 1178.05,1975.03 C1182.01,1975.03 1186.18,1974.78 1190.57,1974.29 C1192.31,1974.1 1193.82,1973.92 1195.12,1973.73 L1199.67,1973.08 C1200.59,1973.08 1201.29,1973.39 1201.75,1974.01 C1202.22,1974.63 1202.17,1975.12 1201.61,1975.49 C1192.15,1984.96 1178.82,1989.69 1161.63,1989.69 C1160.95,1989.69 1160.35,1989.94 1159.82,1990.43 C1159.29,1990.93 1159.03,1991.54 1159.03,1992.29 L1159.03,2006.85 C1163.42,2002.52 1168.74,2000.36 1174.99,2000.36 C1184.02,2000.36 1190.99,2002.38 1195.91,2006.43 C1200.83,2010.49 1203.28,2016.62 1203.28,2024.85 C1203.28,2031.84 1200.5,2037.64 1194.93,2042.24 C1189.37,2046.85 1182.72,2049.16 1174.99,2049.16 C1168.31,2049.16 1162.51,2047.64 1157.59,2044.61 C1152.68,2041.58 1150.22,2037.37 1150.22,2031.99 C1150.22,2029.27 1151.21,2026.91 1153.19,2024.9 C1155.17,2022.89 1157.53,2021.88 1160.28,2021.88 C1163.04,2021.88 1165.37,2022.87 1167.29,2024.85 C1169.21,2026.83 1170.16,2029.21 1170.16,2031.99 C1170.16,2033.23 1169.14,2034.58 1167.1,2036.03 C1165.06,2037.48 1164.04,2038.83 1164.04,2040.06 C1164.04,2043.78 1167.69,2045.63 1174.99,2045.63 C1182.1,2045.63 1185.66,2038.7 1185.66,2024.85 C1185.66,2011.49 1182.1,2004.78 1174.99,2004.72 C1168.62,2004.72 1164.16,2006.02 1161.63,2008.61 C1159.09,2011.21 1157.52,2012.51 1156.9,2012.51 C1155.35,2012.51 1154.61,2011.74 1154.67,2010.19 L1154.67,1975.49 C1154.67,1974.81 1154.89,1974.24 1155.32,1973.78 C1155.75,1973.31 1156.28,1973.08 1156.9,1973.08"/>
<path class="FiguredBass" d="M1786.34,1761.58 C1786.34,1761.58 1787.82,1761.8 1790.79,1762.23 C1792.09,1762.42 1793.55,1762.6 1795.15,1762.79 C1799.42,1763.28 1803.53,1763.53 1807.49,1763.53 C1811.45,1763.53 1815.63,1763.28 1820.02,1762.79 C1821.75,1762.6 1823.26,1762.42 1824.56,1762.23 L1829.11,1761.58 C1830.04,1761.58 1830.73,1761.89 1831.2,1762.51 C1831.66,1763.13 1831.61,1763.62 1831.06,1763.99 C1821.59,1773.46 1808.27,1778.19 1791.07,1778.19 C1790.39,1778.19 1789.79,1778.44 1789.26,1778.93 C1788.74,1779.43 1788.47,1780.04 1788.47,1780.79 L1788.47,1795.35 C1792.86,1791.02 1798.18,1788.86 1804.43,1788.86 C1813.46,1788.86 1820.43,1790.88 1825.35,1794.93 C1830.27,1798.99 1832.73,1805.12 1832.73,1813.35 C1832.73,1820.34 1829.94,1826.14 1824.38,1830.74 C1818.81,1835.35 1812.16,1837.66 1804.43,1837.66 C1797.75,1837.66 1791.95,1836.14 1787.04,1833.11 C1782.12,1830.08 1779.66,1825.87 1779.66,1820.49 C1779.66,1817.77 1780.65,1815.41 1782.63,1813.4 C1784.61,1811.39 1786.97,1810.38 1789.73,1810.38 C1792.48,1810.38 1794.81,1811.37 1796.73,1813.35 C1798.65,1815.33 1799.61,1817.71 1799.61,1820.49 C1799.61,1821.73 1798.59,1823.08 1796.54,1824.53 C1794.5,1825.98 1793.48,1827.33 1793.48,1828.56 C1793.48,1832.28 1797.13,1834.13 1804.43,1834.13 C1811.54,1834.13 1815.1,1827.2 1815.1,1813.35 C1815.1,1799.99 1811.54,1793.28 1804.43,1793.22 C1798.06,1793.22 1793.61,1794.52 1791.07,1797.11 C1788.54,1799.71 1786.96,1801.01 1786.34,1801.01 C1784.79,1801.01 1784.05,1800.24 1784.11,1798.69 L1784.11,1763.99 C1784.11,1763.31 1784.33,1762.74 1784.76,1762.28 C1785.2,1761.81 1785.72,1761.58 1786.34,1761.58"/>
<path class="FiguredBass" d="M1808.33,1869.28 C1810.68,1869.28 1813.15,1868.94 1815.75,1868.26 L1819.92,1867.15 C1820.73,1867.15 1821.36,1867.46 1821.83,1868.07 C1822.29,1868.69 1822.24,1869.25 1821.69,1869.74 L1778.55,1919.93 L1803.87,1919.93 L1803.87,1900.08 C1803.87,1898.66 1804.26,1897.56 1805.03,1896.79 C1805.81,1896.01 1806.8,1895.4 1808,1894.93 C1809.21,1894.47 1810.79,1893.09 1812.73,1890.8 C1814.68,1888.52 1816.55,1885.42 1818.35,1881.53 C1818.66,1880.91 1819.12,1880.6 1819.74,1880.6 C1821.04,1880.6 1821.69,1881.31 1821.69,1882.73 L1821.69,1919.93 L1832.63,1919.93 C1834.18,1919.93 1834.95,1920.65 1834.95,1922.07 C1834.95,1923.61 1834.18,1924.39 1832.63,1924.39 L1821.69,1924.39 L1821.69,1925.59 C1821.69,1929.43 1822.71,1932.77 1824.75,1935.61 C1826.79,1938.46 1829.42,1939.88 1832.63,1939.88 C1833.87,1939.88 1834.49,1940.44 1834.49,1941.55 C1834.49,1942.79 1833.87,1943.41 1832.63,1943.41 C1830.41,1943.41 1827.1,1943.08 1822.71,1942.43 C1818.32,1941.78 1814.99,1941.46 1812.73,1941.46 C1810.48,1941.46 1807.15,1941.78 1802.76,1942.43 C1798.37,1943.08 1795.06,1943.41 1792.83,1943.41 C1791.6,1943.41 1790.98,1942.79 1790.98,1941.55 C1790.98,1940.44 1791.6,1939.88 1792.83,1939.88 C1796.05,1939.88 1798.69,1938.46 1800.77,1935.61 C1802.84,1932.77 1803.87,1929.43 1803.87,1925.59 L1803.87,1924.39 L1778.55,1924.39 C1776.94,1924.39 1775.75,1924 1774.98,1923.23 C1774.2,1922.45 1773.82,1921.67 1773.82,1920.86 C1773.82,1920.55 1774.54,1919.49 1776,1917.66 C1777.45,1915.84 1779.23,1913.41 1781.33,1910.38 C1783.43,1907.35 1785.52,1903.9 1787.59,1900.03 C1789.66,1896.17 1791.43,1891.53 1792.88,1886.12 C1794.33,1880.71 1795.06,1875.25 1795.06,1869.74 C1795.06,1868.14 1795.74,1867.33 1797.1,1867.33 C1797.29,1867.33 1797.94,1867.49 1799.05,1867.8 C1800.16,1868.11 1801.59,1868.43 1803.32,1868.77 C1805.05,1869.11 1806.72,1869.28 1808.33,1869.28"/>
<path class="FiguredBass" d="M1817.33,2005.37 C1822.27,1999.99 1824.75,1994.79 1824.75,1989.78 C1824.75,1985.7 1823,1982.48 1819.51,1980.13 C1816.01,1977.78 1811.82,1976.61 1806.94,1976.61 C1803.47,1976.61 1800.7,1977.69 1798.63,1979.85 C1796.56,1982.02 1795.52,1984.52 1795.52,1987.37 C1795.52,1990.83 1797.04,1993.46 1800.07,1995.25 L1817.33,2005.37 M1821.87,2007.96 C1830.28,2012.85 1834.49,2019.28 1834.49,2027.26 C1834.49,2033.26 1831.92,2038.41 1826.79,2042.71 C1821.66,2047.01 1814.64,2049.16 1805.73,2049.16 C1798.25,2049.16 1791.74,2047.18 1786.2,2043.22 C1780.67,2039.26 1777.9,2034.13 1777.9,2027.82 C1777.9,2025.47 1778.58,2023.09 1779.94,2020.67 C1781.3,2018.26 1782.57,2016.45 1783.74,2015.25 C1784.92,2014.04 1786.83,2012.17 1789.49,2009.63 C1783.31,2005.37 1780.22,1999.99 1780.22,1993.49 C1780.22,1987.93 1782.6,1983.13 1787.36,1979.11 C1792.12,1975.09 1798.65,1973.08 1806.94,1973.08 C1813.55,1973.08 1819.29,1974.58 1824.14,1977.58 C1829,1980.58 1831.43,1984.65 1831.43,1989.78 C1831.43,1995.29 1828.24,2001.35 1821.87,2007.96 M1794.04,2012.33 C1787.73,2017.83 1784.58,2022.99 1784.58,2027.82 C1784.58,2032.89 1786.68,2037.13 1790.89,2040.53 C1795.09,2043.93 1800.04,2045.63 1805.73,2045.63 C1809.69,2045.63 1812.86,2044.36 1815.24,2041.83 C1817.62,2039.29 1818.81,2036.35 1818.81,2033.01 C1818.81,2028.75 1817.05,2025.59 1813.52,2023.55 L1794.04,2012.33 "/>
<path class="FiguredBass" d="M2419.86,1793.87 C2424.81,1788.49 2427.29,1783.29 2427.29,1778.28 C2427.29,1774.2 2425.54,1770.98 2422.04,1768.63 C2418.55,1766.28 2414.36,1765.11 2409.47,1765.11 C2406.01,1765.11 2403.24,1766.19 2401.17,1768.35 C2399.1,1770.52 2398.06,1773.02 2398.06,1775.87 C2398.06,1779.33 2399.58,1781.96 2402.61,1783.75 L2419.86,1793.87 M2424.41,1796.46 C2432.82,1801.35 2437.03,1807.78 2437.03,1815.76 C2437.03,1821.76 2434.46,1826.91 2429.33,1831.21 C2424.19,1835.51 2417.17,1837.66 2408.27,1837.66 C2400.78,1837.66 2394.27,1835.68 2388.74,1831.72 C2383.2,1827.76 2380.43,1822.63 2380.43,1816.32 C2380.43,1813.97 2381.12,1811.59 2382.48,1809.17 C2383.84,1806.76 2385.1,1804.95 2386.28,1803.75 C2387.45,1802.54 2389.37,1800.67 2392.03,1798.13 C2385.85,1793.87 2382.75,1788.49 2382.75,1781.99 C2382.75,1776.43 2385.14,1771.63 2389.9,1767.61 C2394.66,1763.59 2401.19,1761.58 2409.47,1761.58 C2416.09,1761.58 2421.83,1763.08 2426.68,1766.08 C2431.54,1769.08 2433.97,1773.15 2433.97,1778.28 C2433.97,1783.79 2430.78,1789.85 2424.41,1796.46 M2396.58,1800.83 C2390.27,1806.33 2387.11,1811.49 2387.11,1816.32 C2387.11,1821.39 2389.22,1825.63 2393.42,1829.03 C2397.63,1832.43 2402.58,1834.13 2408.27,1834.13 C2412.23,1834.13 2415.4,1832.86 2417.78,1830.33 C2420.16,1827.79 2421.35,1824.85 2421.35,1821.51 C2421.35,1817.25 2419.59,1814.09 2416.06,1812.05 L2396.58,1800.83 "/>
<path class="FiguredBass" d="M2388.88,1867.33 C2388.88,1867.33 2390.36,1867.55 2393.33,1867.98 C2394.63,1868.17 2396.08,1868.35 2397.69,1868.54 C2401.96,1869.03 2406.07,1869.28 2410.03,1869.28 C2413.99,1869.28 2418.16,1869.03 2422.55,1868.54 C2424.29,1868.35 2425.8,1868.17 2427.1,1867.98 L2431.65,1867.33 C2432.57,1867.33 2433.27,1867.64 2433.73,1868.26 C2434.2,1868.88 2434.15,1869.37 2433.59,1869.74 C2424.13,1879.21 2410.8,1883.94 2393.61,1883.94 C2392.93,1883.94 2392.33,1884.19 2391.8,1884.68 C2391.27,1885.18 2391.01,1885.79 2391.01,1886.54 L2391.01,1901.1 C2395.4,1896.77 2400.72,1894.61 2406.97,1894.61 C2416,1894.61 2422.97,1896.63 2427.89,1900.68 C2432.81,1904.74 2435.26,1910.87 2435.26,1919.1 C2435.26,1926.09 2432.48,1931.89 2426.91,1936.49 C2421.35,1941.1 2414.7,1943.41 2406.97,1943.41 C2400.29,1943.41 2394.49,1941.89 2389.57,1938.86 C2384.66,1935.83 2382.2,1931.62 2382.2,1926.24 C2382.2,1923.52 2383.19,1921.16 2385.17,1919.15 C2387.15,1917.14 2389.51,1916.13 2392.26,1916.13 C2395.02,1916.13 2397.35,1917.12 2399.27,1919.1 C2401.19,1921.08 2402.14,1923.46 2402.14,1926.24 C2402.14,1927.48 2401.12,1928.83 2399.08,1930.28 C2397.04,1931.73 2396.02,1933.08 2396.02,1934.31 C2396.02,1938.03 2399.67,1939.88 2406.97,1939.88 C2414.08,1939.88 2417.64,1932.95 2417.64,1919.1 C2417.64,1905.74 2414.08,1899.03 2406.97,1898.97 C2400.6,1898.97 2396.14,1900.27 2393.61,1902.86 C2391.07,1905.46 2389.5,1906.76 2388.88,1906.76 C2387.33,1906.76 2386.59,1905.99 2386.65,1904.44 L2386.65,1869.74 C2386.65,1869.06 2386.87,1868.49 2387.3,1868.03 C2387.73,1867.56 2388.26,1867.33 2388.88,1867.33"/>
<path class="FiguredBass" d="M2410.86,1975.03 C2413.21,1975.03 2415.69,1974.69 2418.29,1974.01 L2422.46,1972.9 C2423.27,1972.9 2423.9,1973.21 2424.36,1973.82 C2424.83,1974.44 2424.78,1975 2424.22,1975.49 L2381.08,2025.68 L2406.41,2025.68 L2406.41,2005.83 C2406.41,2004.41 2406.8,2003.31 2407.57,2002.54 C2408.34,2001.76 2409.33,2001.15 2410.54,2000.68 C2411.75,2000.22 2413.32,1998.84 2415.27,1996.55 C2417.22,1994.27 2419.09,1991.17 2420.88,1987.28 C2421.19,1986.66 2421.66,1986.35 2422.28,1986.35 C2423.57,1986.35 2424.22,1987.06 2424.22,1988.48 L2424.22,2025.68 L2435.17,2025.68 C2436.72,2025.68 2437.49,2026.4 2437.49,2027.82 C2437.49,2029.36 2436.72,2030.14 2435.17,2030.14 L2424.22,2030.14 L2424.22,2031.34 C2424.22,2035.18 2425.24,2038.52 2427.29,2041.36 C2429.33,2044.21 2431.96,2045.63 2435.17,2045.63 C2436.41,2045.63 2437.03,2046.19 2437.03,2047.3 C2437.03,2048.54 2436.41,2049.16 2435.17,2049.16 C2432.94,2049.16 2429.64,2048.83 2425.24,2048.18 C2420.85,2047.53 2417.53,2047.21 2415.27,2047.21 C2413.01,2047.21 2409.69,2047.53 2405.3,2048.18 C2400.91,2048.83 2397.6,2049.16 2395.37,2049.16 C2394.13,2049.16 2393.52,2048.54 2393.52,2047.3 C2393.52,2046.19 2394.13,2045.63 2395.37,2045.63 C2398.59,2045.63 2401.23,2044.21 2403.3,2041.36 C2405.38,2038.52 2406.41,2035.18 2406.41,2031.34 L2406.41,2030.14 L2381.08,2030.14 C2379.48,2030.14 2378.29,2029.75 2377.51,2028.98 C2376.74,2028.2 2376.35,2027.42 2376.35,2026.61 C2376.35,2026.3 2377.08,2025.24 2378.53,2023.41 C2379.99,2021.59 2381.76,2019.16 2383.87,2016.13 C2385.97,2013.1 2388.06,2009.65 2390.13,2005.78 C2392.2,2001.92 2393.96,1997.28 2395.42,1991.87 C2396.87,1986.46 2397.6,1981 2397.6,1975.49 C2397.6,1973.89 2398.28,1973.08 2399.64,1973.08 C2399.82,1973.08 2400.47,1973.24 2401.59,1973.55 C2402.7,1973.86 2404.12,1974.18 2405.85,1974.52 C2407.59,1974.86 2409.26,1975.03 2410.86,1975.03"/>
<path class="FiguredBass" d="M2968.07,1761.58 C2968.07,1761.58 2969.55,1761.8 2972.52,1762.23 C2973.82,1762.42 2975.27,1762.6 2976.88,1762.79 C2981.15,1763.28 2985.26,1763.53 2989.22,1763.53 C2993.18,1763.53 2997.35,1763.28 3001.75,1762.79 C3003.48,1762.6 3004.99,1762.42 3006.29,1762.23 L3010.84,1761.58 C3011.77,1761.58 3012.46,1761.89 3012.92,1762.51 C3013.39,1763.13 3013.34,1763.62 3012.79,1763.99 C3003.32,1773.46 2989.99,1778.19 2972.8,1778.19 C2972.12,1778.19 2971.52,1778.44 2970.99,1778.93 C2970.47,1779.43 2970.2,1780.04 2970.2,1780.79 L2970.2,1795.35 C2974.59,1791.02 2979.91,1788.86 2986.16,1788.86 C2995.19,1788.86 3002.16,1790.88 3007.08,1794.93 C3012,1798.99 3014.46,1805.12 3014.46,1813.35 C3014.46,1820.34 3011.67,1826.14 3006.11,1830.74 C3000.54,1835.35 2993.89,1837.66 2986.16,1837.66 C2979.48,1837.66 2973.68,1836.14 2968.76,1833.11 C2963.85,1830.08 2961.39,1825.87 2961.39,1820.49 C2961.39,1817.77 2962.38,1815.41 2964.36,1813.4 C2966.34,1811.39 2968.7,1810.38 2971.46,1810.38 C2974.21,1810.38 2976.54,1811.37 2978.46,1813.35 C2980.38,1815.33 2981.34,1817.71 2981.34,1820.49 C2981.34,1821.73 2980.31,1823.08 2978.27,1824.53 C2976.23,1825.98 2975.21,1827.33 2975.21,1828.56 C2975.21,1832.28 2978.86,1834.13 2986.16,1834.13 C2993.27,1834.13 2996.83,1827.2 2996.83,1813.35 C2996.83,1799.99 2993.27,1793.28 2986.16,1793.22 C2979.79,1793.22 2975.34,1794.52 2972.8,1797.11 C2970.26,1799.71 2968.69,1801.01 2968.07,1801.01 C2966.52,1801.01 2965.78,1800.24 2965.84,1798.69 L2965.84,1763.99 C2965.84,1763.31 2966.06,1762.74 2966.49,1762.28 C2966.92,1761.81 2967.45,1761.58 2968.07,1761.58"/>
<path class="FiguredBass" d="M2990.06,1869.28 C2992.41,1869.28 2994.88,1868.94 2997.48,1868.26 L3001.65,1867.15 C3002.46,1867.15 3003.09,1867.46 3003.55,1868.07 C3004.02,1868.69 3003.97,1869.25 3003.42,1869.74 L2960.28,1919.93 L2985.6,1919.93 L2985.6,1900.08 C2985.6,1898.66 2985.99,1897.56 2986.76,1896.79 C2987.54,1896.01 2988.53,1895.4 2989.73,1894.93 C2990.94,1894.47 2992.51,1893.09 2994.46,1890.8 C2996.41,1888.52 2998.28,1885.42 3000.08,1881.53 C3000.38,1880.91 3000.85,1880.6 3001.47,1880.6 C3002.77,1880.6 3003.42,1881.31 3003.42,1882.73 L3003.42,1919.93 L3014.36,1919.93 C3015.91,1919.93 3016.68,1920.65 3016.68,1922.07 C3016.68,1923.61 3015.91,1924.39 3014.36,1924.39 L3003.42,1924.39 L3003.42,1925.59 C3003.42,1929.43 3004.44,1932.77 3006.48,1935.61 C3008.52,1938.46 3011.15,1939.88 3014.36,1939.88 C3015.6,1939.88 3016.22,1940.44 3016.22,1941.55 C3016.22,1942.79 3015.6,1943.41 3014.36,1943.41 C3012.14,1943.41 3008.83,1943.08 3004.44,1942.43 C3000.04,1941.78 2996.72,1941.46 2994.46,1941.46 C2992.21,1941.46 2988.88,1941.78 2984.49,1942.43 C2980.1,1943.08 2976.79,1943.41 2974.56,1943.41 C2973.33,1943.41 2972.71,1942.79 2972.71,1941.55 C2972.71,1940.44 2973.33,1939.88 2974.56,1939.88 C2977.78,1939.88 2980.42,1938.46 2982.5,1935.61 C2984.57,1932.77 2985.6,1929.43 2985.6,1925.59 L2985.6,1924.39 L2960.28,1924.39 C2958.67,1924.39 2957.48,1924 2956.7,1923.23 C2955.93,1922.45 2955.54,1921.67 2955.54,1920.86 C2955.54,1920.55 2956.27,1919.49 2957.72,1917.66 C2959.18,1915.84 2960.96,1913.41 2963.06,1910.38 C2965.16,1907.35 2967.25,1903.9 2969.32,1900.03 C2971.39,1896.17 2973.16,1891.53 2974.61,1886.12 C2976.06,1880.71 2976.79,1875.25 2976.79,1869.74 C2976.79,1868.14 2977.47,1867.33 2978.83,1867.33 C2979.02,1867.33 2979.67,1867.49 2980.78,1867.8 C2981.89,1868.11 2983.31,1868.43 2985.05,1868.77 C2986.78,1869.11 2988.45,1869.28 2990.06,1869.28"/>
<path class="FiguredBass" d="M3708.08,1763.53 C3710.43,1763.53 3712.91,1763.19 3715.51,1762.51 L3719.68,1761.4 C3720.49,1761.4 3721.12,1761.71 3721.58,1762.32 C3722.05,1762.94 3722,1763.5 3721.44,1763.99 L3678.3,1814.18 L3703.63,1814.18 L3703.63,1794.33 C3703.63,1792.91 3704.02,1791.81 3704.79,1791.04 C3705.56,1790.26 3706.55,1789.65 3707.76,1789.18 C3708.97,1788.72 3710.54,1787.34 3712.49,1785.05 C3714.44,1782.77 3716.31,1779.67 3718.1,1775.78 C3718.41,1775.16 3718.88,1774.85 3719.5,1774.85 C3720.79,1774.85 3721.44,1775.56 3721.44,1776.98 L3721.44,1814.18 L3732.39,1814.18 C3733.94,1814.18 3734.71,1814.9 3734.71,1816.32 C3734.71,1817.86 3733.94,1818.64 3732.39,1818.64 L3721.44,1818.64 L3721.44,1819.84 C3721.44,1823.68 3722.46,1827.02 3724.51,1829.86 C3726.55,1832.71 3729.18,1834.13 3732.39,1834.13 C3733.63,1834.13 3734.25,1834.69 3734.25,1835.8 C3734.25,1837.04 3733.63,1837.66 3732.39,1837.66 C3730.16,1837.66 3726.86,1837.33 3722.46,1836.68 C3718.07,1836.03 3714.75,1835.71 3712.49,1835.71 C3710.23,1835.71 3706.91,1836.03 3702.52,1836.68 C3698.13,1837.33 3694.82,1837.66 3692.59,1837.66 C3691.35,1837.66 3690.74,1837.04 3690.74,1835.8 C3690.74,1834.69 3691.35,1834.13 3692.59,1834.13 C3695.81,1834.13 3698.45,1832.71 3700.52,1829.86 C3702.6,1827.02 3703.63,1823.68 3703.63,1819.84 L3703.63,1818.64 L3678.3,1818.64 C3676.7,1818.64 3675.51,1818.25 3674.73,1817.48 C3673.96,1816.7 3673.57,1815.92 3673.57,1815.11 C3673.57,1814.8 3674.3,1813.74 3675.75,1811.91 C3677.21,1810.09 3678.98,1807.66 3681.09,1804.63 C3683.19,1801.6 3685.28,1798.15 3687.35,1794.28 C3689.42,1790.42 3691.18,1785.78 3692.64,1780.37 C3694.09,1774.96 3694.82,1769.5 3694.82,1763.99 C3694.82,1762.39 3695.5,1761.58 3696.86,1761.58 C3697.04,1761.58 3697.69,1761.74 3698.81,1762.05 C3699.92,1762.36 3701.34,1762.68 3703.07,1763.02 C3704.81,1763.36 3706.48,1763.53 3708.08,1763.53"/>
<path class="FiguredBass" d="M3717.08,1899.62 C3722.03,1894.24 3724.51,1889.04 3724.51,1884.03 C3724.51,1879.95 3722.76,1876.73 3719.26,1874.38 C3715.77,1872.03 3711.58,1870.86 3706.69,1870.86 C3703.23,1870.86 3700.46,1871.94 3698.39,1874.1 C3696.32,1876.27 3695.28,1878.77 3695.28,1881.62 C3695.28,1885.08 3696.8,1887.71 3699.83,1889.5 L3717.08,1899.62 M3721.63,1902.21 C3730.04,1907.1 3734.25,1913.53 3734.25,1921.51 C3734.25,1927.51 3731.68,1932.66 3726.55,1936.96 C3721.41,1941.26 3714.39,1943.41 3705.49,1943.41 C3698,1943.41 3691.49,1941.43 3685.96,1937.47 C3680.42,1933.51 3677.65,1928.38 3677.65,1922.07 C3677.65,1919.72 3678.34,1917.34 3679.7,1914.92 C3681.06,1912.51 3682.32,1910.7 3683.5,1909.5 C3684.67,1908.29 3686.59,1906.42 3689.25,1903.88 C3683.07,1899.62 3679.97,1894.24 3679.97,1887.74 C3679.97,1882.18 3682.36,1877.38 3687.12,1873.36 C3691.88,1869.34 3698.41,1867.33 3706.69,1867.33 C3713.31,1867.33 3719.05,1868.83 3723.9,1871.83 C3728.76,1874.83 3731.19,1878.9 3731.19,1884.03 C3731.19,1889.54 3728,1895.6 3721.63,1902.21 M3693.8,1906.58 C3687.49,1912.08 3684.33,1917.24 3684.33,1922.07 C3684.33,1927.14 3686.44,1931.38 3690.64,1934.78 C3694.85,1938.18 3699.8,1939.88 3705.49,1939.88 C3709.45,1939.88 3712.62,1938.61 3715,1936.08 C3717.38,1933.54 3718.57,1930.6 3718.57,1927.26 C3718.57,1923 3716.81,1919.84 3713.28,1917.8 L3693.8,1906.58 "/>
<path class="FiguredBass" d="M3686.1,1973.08 C3686.1,1973.08 3687.58,1973.3 3690.55,1973.73 C3691.85,1973.92 3693.3,1974.1 3694.91,1974.29 C3699.18,1974.78 3703.29,1975.03 3707.25,1975.03 C3711.21,1975.03 3715.38,1974.78 3719.77,1974.29 C3721.51,1974.1 3723.02,1973.92 3724.32,1973.73 L3728.87,1973.08 C3729.79,1973.08 3730.49,1973.39 3730.95,1974.01 C3731.42,1974.63 3731.37,1975.12 3730.81,1975.49 C3721.35,1984.96 3708.02,1989.69 3690.83,1989.69 C3690.15,1989.69 3689.55,1989.94 3689.02,1990.43 C3688.49,1990.93 3688.23,1991.54 3688.23,1992.29 L3688.23,2006.85 C3692.62,2002.52 3697.94,2000.36 3704.19,2000.36 C3713.22,2000.36 3720.19,2002.38 3725.11,2006.43 C3730.03,2010.49 3732.48,2016.62 3732.48,2024.85 C3732.48,2031.84 3729.7,2037.64 3724.13,2042.24 C3718.57,2046.85 3711.92,2049.16 3704.19,2049.16 C3697.51,2049.16 3691.71,2047.64 3686.79,2044.61 C3681.88,2041.58 3679.42,2037.37 3679.42,2031.99 C3679.42,2029.27 3680.41,2026.91 3682.39,2024.9 C3684.37,2022.89 3686.73,2021.88 3689.48,2021.88 C3692.24,2021.88 3694.57,2022.87 3696.49,2024.85 C3698.41,2026.83 3699.36,2029.21 3699.36,2031.99 C3699.36,2033.23 3698.34,2034.58 3696.3,2036.03 C3694.26,2037.48 3693.24,2038.83 3693.24,2040.06 C3693.24,2043.78 3696.89,2045.63 3704.19,2045.63 C3711.3,2045.63 3714.86,2038.7 3714.86,2024.85 C3714.86,2011.49 3711.3,2004.78 3704.19,2004.72 C3697.82,2004.72 3693.36,2006.02 3690.83,2008.61 C3688.29,2011.21 3686.72,2012.51 3686.1,2012.51 C3684.55,2012.51 3683.81,2011.74 3683.87,2010.19 L3683.87,1975.49 C3683.87,1974.81 3684.09,1974.24 3684.52,1973.78 C3684.95,1973.31 3685.48,1973.08 3686.1,1973.08"/>
<path class="Bracket" transform="matrix(8.6315,0,0,9.45563,76.1283,2337.37)" d="M0.92002,-50 C2.69004,-51.88 6.2,-55.8 6.2,-63 C6.2,-72.1 2.25996,-81.32 2.25996,-86.97 C2.25996,-93.06 5.84004,-98.84 5.95,-99 C6.05996,-99.16 6.05,-99.39 5.94004,-99.46 C5.82998,-99.53 5.62002,-99.47 5.49004,-99.32 C5.35996,-99.17 0,-93.75 0,-85.6 C0,-76.75 3.5,-70.58 3.5,-59.07 C3.5,-56.89 2.55996,-53.36 0.1,-50.33 C-0.0799805,-50.17 -0.1,-49.89 0.0599609,-49.7 L0.0700195,-49.69 L0.1,-49.66 C2.55996,-46.63 3.5,-43.1 3.5,-40.92 C3.5,-29.4 0,-23.24 0,-14.39 C0,-6.25 5.35996,-0.8 5.49004,-0.659961 C5.62002,-0.52002 5.8,-0.42998 5.94004,-0.52002 C6.07998,-0.609961 6.07998,-0.77998 5.95,-0.97998 C5.82002,-1.17998 2.25996,-6.92002 2.25996,-13.01 C2.25996,-18.66 6.2,-27.9 6.2,-37 C6.2,-44.3 2.69004,-48.12 0.92002,-50"/>
</svg>
