<?xml version="1.0" encoding="UTF-8" standalone="no"?>
<svg width="4209.44px" height="2976.38px" viewBox="0 0 4209.44 2976.38"
 xmlns="http://www.w3.org/2000/svg" xmlns:xlink="http://www.w3.org/1999/xlink" version="1.2" baseProfile="tiny">
<title>Cordes (46)</title>
<desc>Generated by MuseScore 3.6.2</desc>
<polyline class="StaffLines" fill="none" stroke="#000000" stroke-width="6.55" stroke-linejoin="bevel" points="153.819,571.298 4138.58,571.298"/>
<polyline class="StaffLines" fill="none" stroke="#000000" stroke-width="6.55" stroke-linejoin="bevel" points="153.819,660.589 4138.58,660.589"/>
<polyline class="StaffLines" fill="none" stroke="#000000" stroke-width="6.55" stroke-linejoin="bevel" points="153.819,749.881 4138.58,749.881"/>
<polyline class="StaffLines" fill="none" stroke="#000000" stroke-width="6.55" stroke-linejoin="bevel" points="153.819,839.172 4138.58,839.172"/>
<polyline class="StaffLines" fill="none" stroke="#000000" stroke-width="6.55" stroke-linejoin="bevel" points="153.819,928.463 4138.58,928.463"/>
<polyline class="StaffLines" fill="none" stroke="#000000" stroke-width="6.55" stroke-linejoin="bevel" points="153.819,1017.75 4138.58,1017.75"/>
<polyline class="StaffLines" fill="none" stroke="#000000" stroke-width="6.55" stroke-linejoin="bevel" points="153.819,1404.68 4138.58,1404.68"/>
<polyline class="StaffLines" fill="none" stroke="#000000" stroke-width="6.55" stroke-linejoin="bevel" points="153.819,1464.21 4138.58,1464.21"/>
<polyline class="StaffLines" fill="none" stroke="#000000" stroke-width="6.55" stroke-linejoin="bevel" points="153.819,1523.74 4138.58,1523.74"/>
<polyline class="StaffLines" fill="none" stroke="#000000" stroke-width="6.55" stroke-linejoin="bevel" points="153.819,1583.27 4138.58,1583.27"/>
<polyline class="StaffLines" fill="none" stroke="#000000" stroke-width="6.55" stroke-linejoin="bevel" points="153.819,1642.79 4138.58,1642.79"/>
<polyline class="StaffLines" fill="none" stroke="#000000" stroke-width="6.55" stroke-linejoin="bevel" points="153.819,2200.76 4138.58,2200.76"/>
<polyline class="StaffLines" fill="none" stroke="#000000" stroke-width="6.55" stroke-linejoin="bevel" points="153.819,2260.29 4138.58,2260.29"/>
<polyline class="StaffLines" fill="none" stroke="#000000" stroke-width="6.55" stroke-linejoin="bevel" points="153.819,2319.81 4138.58,2319.81"/>
<polyline class="StaffLines" fill="none" stroke="#000000" stroke-width="6.55" stroke-linejoin="bevel" points="153.819,2379.34 4138.58,2379.34"/>
<polyline class="StaffLines" fill="none" stroke="#000000" stroke-width="6.55" stroke-linejoin="bevel" points="153.819,2438.87 4138.58,2438.87"/>
<path class="Symbol" transform="matrix(2.3811,0,0,2.3811,586.938,1553.5)" d="M0,-0.1 C0,7.7 4,14 10.4,18.1 L10.9,17.4 C7.5,14.8 6.3,13.3 5.2,10.1 C4.2,7.2 3.7,4 3.7,-0.2 C3.7,-8.1 4.8,-12.3 10.9,-17.4 L10.5,-18.1 C3.9,-13.6 0,-8.5 0,-0.1"/>
<path class="Symbol" transform="matrix(2.3811,0,0,2.3811,701.696,1553.5)" d="M3.7,-0.2 C3.7,4 3.2,7.2 2.2,10.1 C1,13.3 -0.2,14.8 -3.6,17.4 L-3,18.1 C3.4,14.1 7.3,7.6 7.3,-0.1 C7.3,-8.4 3.4,-13.8 -3.2,-18.1 L-3.6,-17.4 C2.6,-12.4 3.7,-8.1 3.7,-0.2"/>
<path class="Symbol" transform="matrix(2.3811,0,0,2.3811,597.773,626.09)" d="M0,-0.1 C0,7.7 4,14 10.4,18.1 L10.9,17.4 C7.5,14.8 6.3,13.3 5.2,10.1 C4.2,7.2 3.7,4 3.7,-0.2 C3.7,-8.1 4.8,-12.3 10.9,-17.4 L10.5,-18.1 C3.9,-13.6 0,-8.5 0,-0.1"/>
<path class="Symbol" transform="matrix(2.3811,0,0,2.3811,702.784,614.59)" d="M3.7,-0.2 C3.7,4 3.2,7.2 2.2,10.1 C1,13.3 -0.2,14.8 -3.6,17.4 L-3,18.1 C3.4,14.1 7.3,7.6 7.3,-0.1 C7.3,-8.4 3.4,-13.8 -3.2,-18.1 L-3.6,-17.4 C2.6,-12.4 3.7,-8.1 3.7,-0.2"/>
<polyline class="BarLine" fill="none" stroke="#000000" stroke-width="10.71" stroke-linejoin="bevel" points="159.176,2197.48 159.176,2442.14"/>
<polyline class="BarLine" fill="none" stroke="#000000" stroke-width="10.71" stroke-linejoin="bevel" points="1666.04,2197.48 1666.04,2442.14"/>
<polyline class="BarLine" fill="none" stroke="#000000" stroke-width="10.71" stroke-linejoin="bevel" points="2912.39,2197.48 2912.39,2442.14"/>
<polyline class="BarLine" fill="none" stroke="#000000" stroke-width="10.71" stroke-linejoin="bevel" points="4080.54,2197.48 4080.54,2442.14"/>
<polyline class="BarLine" fill="none" stroke="#000000" stroke-width="32.74" stroke-linejoin="bevel" points="4122.21,2197.48 4122.21,2442.14"/>
<polyline class="BarLine" fill="none" stroke="#000000" stroke-width="10.71" stroke-linejoin="bevel" points="159.176,1401.41 159.176,2200.76"/>
<polyline class="BarLine" fill="none" stroke="#000000" stroke-width="10.71" stroke-linejoin="bevel" points="1666.04,1401.41 1666.04,1646.07"/>
<polyline class="BarLine" fill="none" stroke="#000000" stroke-width="10.71" stroke-linejoin="bevel" points="2912.39,1401.41 2912.39,1646.07"/>
<polyline class="BarLine" fill="none" stroke="#000000" stroke-width="10.71" stroke-linejoin="bevel" points="4080.54,1401.41 4080.54,1646.07"/>
<polyline class="BarLine" fill="none" stroke="#000000" stroke-width="32.74" stroke-linejoin="bevel" points="4122.21,1401.41 4122.21,1646.07"/>
<polyline class="BarLine" fill="none" stroke="#000000" stroke-width="10.71" stroke-linejoin="bevel" points="159.176,568.024 159.176,1404.68"/>
<polyline class="BarLine" fill="none" stroke="#000000" stroke-width="10.71" stroke-linejoin="bevel" points="1666.04,568.024 1666.04,1021.03"/>
<polyline class="BarLine" fill="none" stroke="#000000" stroke-width="10.71" stroke-linejoin="bevel" points="2912.39,568.024 2912.39,1021.03"/>
<polyline class="BarLine" fill="none" stroke="#000000" stroke-width="10.71" stroke-linejoin="bevel" points="4080.54,568.024 4080.54,1021.03"/>
<polyline class="BarLine" fill="none" stroke="#000000" stroke-width="32.74" stroke-linejoin="bevel" points="4122.21,568.024 4122.21,1021.03"/>
<path class="Accidental" transform="matrix(2.3811,0,0,2.3811,519.076,2141.23)" d="M23.3,-10.6 C23.9,-10.7 24.4,-11.4 24.4,-12 L24.4,-17.9 C24.4,-18.7 23.8,-19.3 23,-19.3 L22.8,-19.3 L19.5,-18.6 L19.5,-33.5 L16.7,-33.5 L16.7,-18 L7.8,-16.2 L7.8,-30.3 L5,-30.3 L5,-15.6 L1.1,-14.8 C0.5,-14.7 0,-14 0,-13.4 L0,-13.2 L0,-7.4 L0,-7.6 C0,-6.8 0.6,-6.2 1.4,-6.2 L1.7,-6.2 L5,-6.9 L5,9.6 L1.1,10.4 C0.5,10.5 0,11.2 0,11.8 L0,17.6 C0,18.4 0.6,19 1.4,19 L1.7,19 L5,18.3 L5,33.2 L7.8,33.2 L7.8,17.7 L16.7,15.9 L16.7,30 L19.5,30 L19.5,15.3 L23.3,14.6 C23.9,14.5 24.4,13.8 24.4,13.2 L24.4,7.3 C24.4,6.5 23.8,5.9 23,5.9 L22.8,5.9 L19.5,6.6 L19.5,-9.9 L23.3,-10.6 M7.8,9.1 L7.8,-7.5 L16.7,-9.3 L16.7,7.2 L7.8,9.1 "/>
<path class="Accidental" transform="matrix(2.3811,0,0,2.3811,1728.9,1434.45)" d="M20.1,-7.9 C19.5,-11.8 17.1,-15.5 12,-15.5 C7,-15.5 4.1,-12.4 3.6,-11.8 L4,-43.9 C4,-44.7 3.4,-45.3 2.6,-45.3 L1.4,-45.3 C0.6,-45.3 0,-44.7 0,-43.9 L0.5,16.2 C0.5,17 1.1,17.6 1.9,17.6 C2.1,17.6 2.5,17.5 2.7,17.4 C3.1,17.2 9.6,14 15,7.9 C18.8,3.6 20.3,-1.3 20.3,-5.4 C20.3,-6.3 20.2,-7.1 20.1,-7.9 M13.2,-4 C13.2,-2.5 12.8,2.1 10.3,5.9 C8.6,8.5 5.2,11.2 3.3,12.7 L3.6,-6.8 C3.8,-7.7 5.3,-10.6 9.3,-10.6 C12.9,-10.6 13.2,-7.2 13.2,-5.1 L13.2,-4 "/>
<path class="Accidental" transform="matrix(2.3811,0,0,2.3811,2975.26,1404.68)" d="M23.3,-10.6 C23.9,-10.7 24.4,-11.4 24.4,-12 L24.4,-17.9 C24.4,-18.7 23.8,-19.3 23,-19.3 L22.8,-19.3 L19.5,-18.6 L19.5,-33.5 L16.7,-33.5 L16.7,-18 L7.8,-16.2 L7.8,-30.3 L5,-30.3 L5,-15.6 L1.1,-14.8 C0.5,-14.7 0,-14 0,-13.4 L0,-13.2 L0,-7.4 L0,-7.6 C0,-6.8 0.6,-6.2 1.4,-6.2 L1.7,-6.2 L5,-6.9 L5,9.6 L1.1,10.4 C0.5,10.5 0,11.2 0,11.8 L0,17.6 C0,18.4 0.6,19 1.4,19 L1.7,19 L5,18.3 L5,33.2 L7.8,33.2 L7.8,17.7 L16.7,15.9 L16.7,30 L19.5,30 L19.5,15.3 L23.3,14.6 C23.9,14.5 24.4,13.8 24.4,13.2 L24.4,7.3 C24.4,6.5 23.8,5.9 23,5.9 L22.8,5.9 L19.5,6.6 L19.5,-9.9 L23.3,-10.6 M7.8,9.1 L7.8,-7.5 L16.7,-9.3 L16.7,7.2 L7.8,9.1 "/>
<polyline class="LedgerLine" fill="none" stroke="#000000" stroke-width="9.52" stroke-linejoin="bevel" points="592.053,2141.23 722.53,2141.23"/>
<polyline class="LedgerLine" fill="none" stroke="#000000" stroke-width="9.52" stroke-linejoin="bevel" points="1859.26,2141.23 1989.74,2141.23"/>
<polyline class="LedgerLine" fill="none" stroke="#000000" stroke-width="9.52" stroke-linejoin="bevel" points="3027.4,2141.23 3157.88,2141.23"/>
<path class="Note" transform="matrix(2.3811,0,0,2.3811,612.888,2141.23)" d="M18.7,-13.6 C4.9,-13.6 0,-6.6 0,-0.1 C0,6.4 4.9,13.4 18.7,13.4 C32.5,13.4 37.3,6.4 37.3,-0.1 C37.3,-6.6 32.5,-13.6 18.7,-13.6 M10.4,-4.5 C10.3,-4.9 10.3,-5.3 10.3,-5.7 C10.3,-6.5 10.5,-7.3 10.9,-8 C11.6,-9 12.8,-9.7 14.3,-10 C15.6,-10.3 16.3,-10.5 18.9,-10.5 L19,-10.5 C23,-10.5 24.3,-6.8 25.4,-3 L25.7,-2 C26.5,0.6 26.9,2.8 26.9,4.5 C26.9,5.7 26.7,6.8 26.3,7.6 C25.7,8.7 24.7,9.4 23,9.8 C22.1,10 20.6,10.1 20.6,10.1 C20.1,10.1 19.7,10.2 19.3,10.2 C16.1,10.2 14.1,9 12.7,4.7 C11.5,1 11.3,-0.1 10.4,-4.5"/>
<path class="Note" transform="matrix(2.3811,0,0,2.3811,1880.09,2141.23)" d="M18.7,-13.6 C4.9,-13.6 0,-6.6 0,-0.1 C0,6.4 4.9,13.4 18.7,13.4 C32.5,13.4 37.3,6.4 37.3,-0.1 C37.3,-6.6 32.5,-13.6 18.7,-13.6 M10.4,-4.5 C10.3,-4.9 10.3,-5.3 10.3,-5.7 C10.3,-6.5 10.5,-7.3 10.9,-8 C11.6,-9 12.8,-9.7 14.3,-10 C15.6,-10.3 16.3,-10.5 18.9,-10.5 L19,-10.5 C23,-10.5 24.3,-6.8 25.4,-3 L25.7,-2 C26.5,0.6 26.9,2.8 26.9,4.5 C26.9,5.7 26.7,6.8 26.3,7.6 C25.7,8.7 24.7,9.4 23,9.8 C22.1,10 20.6,10.1 20.6,10.1 C20.1,10.1 19.7,10.2 19.3,10.2 C16.1,10.2 14.1,9 12.7,4.7 C11.5,1 11.3,-0.1 10.4,-4.5"/>
<path class="Note" transform="matrix(2.3811,0,0,2.3811,3048.24,2141.23)" d="M18.7,-13.6 C4.9,-13.6 0,-6.6 0,-0.1 C0,6.4 4.9,13.4 18.7,13.4 C32.5,13.4 37.3,6.4 37.3,-0.1 C37.3,-6.6 32.5,-13.6 18.7,-13.6 M10.4,-4.5 C10.3,-4.9 10.3,-5.3 10.3,-5.7 C10.3,-6.5 10.5,-7.3 10.9,-8 C11.6,-9 12.8,-9.7 14.3,-10 C15.6,-10.3 16.3,-10.5 18.9,-10.5 L19,-10.5 C23,-10.5 24.3,-6.8 25.4,-3 L25.7,-2 C26.5,0.6 26.9,2.8 26.9,4.5 C26.9,5.7 26.7,6.8 26.3,7.6 C25.7,8.7 24.7,9.4 23,9.8 C22.1,10 20.6,10.1 20.6,10.1 C20.1,10.1 19.7,10.2 19.3,10.2 C16.1,10.2 14.1,9 12.7,4.7 C11.5,1 11.3,-0.1 10.4,-4.5"/>
<path class="Note" transform="matrix(2.3811,0,0,2.3811,612.888,1553.5)" d="M18.7,-13.6 C4.9,-13.6 0,-6.6 0,-0.1 C0,6.4 4.9,13.4 18.7,13.4 C32.5,13.4 37.3,6.4 37.3,-0.1 C37.3,-6.6 32.5,-13.6 18.7,-13.6 M10.4,-4.5 C10.3,-4.9 10.3,-5.3 10.3,-5.7 C10.3,-6.5 10.5,-7.3 10.9,-8 C11.6,-9 12.8,-9.7 14.3,-10 C15.6,-10.3 16.3,-10.5 18.9,-10.5 L19,-10.5 C23,-10.5 24.3,-6.8 25.4,-3 L25.7,-2 C26.5,0.6 26.9,2.8 26.9,4.5 C26.9,5.7 26.7,6.8 26.3,7.6 C25.7,8.7 24.7,9.4 23,9.8 C22.1,10 20.6,10.1 20.6,10.1 C20.1,10.1 19.7,10.2 19.3,10.2 C16.1,10.2 14.1,9 12.7,4.7 C11.5,1 11.3,-0.1 10.4,-4.5"/>
<path class="Note" transform="matrix(2.3811,0,0,2.3811,612.888,1434.45)" d="M18.7,-13.6 C4.9,-13.6 0,-6.6 0,-0.1 C0,6.4 4.9,13.4 18.7,13.4 C32.5,13.4 37.3,6.4 37.3,-0.1 C37.3,-6.6 32.5,-13.6 18.7,-13.6 M10.4,-4.5 C10.3,-4.9 10.3,-5.3 10.3,-5.7 C10.3,-6.5 10.5,-7.3 10.9,-8 C11.6,-9 12.8,-9.7 14.3,-10 C15.6,-10.3 16.3,-10.5 18.9,-10.5 L19,-10.5 C23,-10.5 24.3,-6.8 25.4,-3 L25.7,-2 C26.5,0.6 26.9,2.8 26.9,4.5 C26.9,5.7 26.7,6.8 26.3,7.6 C25.7,8.7 24.7,9.4 23,9.8 C22.1,10 20.6,10.1 20.6,10.1 C20.1,10.1 19.7,10.2 19.3,10.2 C16.1,10.2 14.1,9 12.7,4.7 C11.5,1 11.3,-0.1 10.4,-4.5"/>
<path class="Note" transform="matrix(2.3811,0,0,2.3811,612.888,1374.92)" d="M18.7,-13.6 C4.9,-13.6 0,-6.6 0,-0.1 C0,6.4 4.9,13.4 18.7,13.4 C32.5,13.4 37.3,6.4 37.3,-0.1 C37.3,-6.6 32.5,-13.6 18.7,-13.6 M10.4,-4.5 C10.3,-4.9 10.3,-5.3 10.3,-5.7 C10.3,-6.5 10.5,-7.3 10.9,-8 C11.6,-9 12.8,-9.7 14.3,-10 C15.6,-10.3 16.3,-10.5 18.9,-10.5 L19,-10.5 C23,-10.5 24.3,-6.8 25.4,-3 L25.7,-2 C26.5,0.6 26.9,2.8 26.9,4.5 C26.9,5.7 26.7,6.8 26.3,7.6 C25.7,8.7 24.7,9.4 23,9.8 C22.1,10 20.6,10.1 20.6,10.1 C20.1,10.1 19.7,10.2 19.3,10.2 C16.1,10.2 14.1,9 12.7,4.7 C11.5,1 11.3,-0.1 10.4,-4.5"/>
<path class="Note" transform="matrix(2.3811,0,0,2.3811,1880.09,1553.5)" d="M18.7,-13.6 C4.9,-13.6 0,-6.6 0,-0.1 C0,6.4 4.9,13.4 18.7,13.4 C32.5,13.4 37.3,6.4 37.3,-0.1 C37.3,-6.6 32.5,-13.6 18.7,-13.6 M10.4,-4.5 C10.3,-4.9 10.3,-5.3 10.3,-5.7 C10.3,-6.5 10.5,-7.3 10.9,-8 C11.6,-9 12.8,-9.7 14.3,-10 C15.6,-10.3 16.3,-10.5 18.9,-10.5 L19,-10.5 C23,-10.5 24.3,-6.8 25.4,-3 L25.7,-2 C26.5,0.6 26.9,2.8 26.9,4.5 C26.9,5.7 26.7,6.8 26.3,7.6 C25.7,8.7 24.7,9.4 23,9.8 C22.1,10 20.6,10.1 20.6,10.1 C20.1,10.1 19.7,10.2 19.3,10.2 C16.1,10.2 14.1,9 12.7,4.7 C11.5,1 11.3,-0.1 10.4,-4.5"/>
<path class="Note" transform="matrix(2.3811,0,0,2.3811,1797.84,1434.45)" d="M18.7,-13.6 C4.9,-13.6 0,-6.6 0,-0.1 C0,6.4 4.9,13.4 18.7,13.4 C32.5,13.4 37.3,6.4 37.3,-0.1 C37.3,-6.6 32.5,-13.6 18.7,-13.6 M10.4,-4.5 C10.3,-4.9 10.3,-5.3 10.3,-5.7 C10.3,-6.5 10.5,-7.3 10.9,-8 C11.6,-9 12.8,-9.7 14.3,-10 C15.6,-10.3 16.3,-10.5 18.9,-10.5 L19,-10.5 C23,-10.5 24.3,-6.8 25.4,-3 L25.7,-2 C26.5,0.6 26.9,2.8 26.9,4.5 C26.9,5.7 26.7,6.8 26.3,7.6 C25.7,8.7 24.7,9.4 23,9.8 C22.1,10 20.6,10.1 20.6,10.1 C20.1,10.1 19.7,10.2 19.3,10.2 C16.1,10.2 14.1,9 12.7,4.7 C11.5,1 11.3,-0.1 10.4,-4.5"/>
<path class="Note" transform="matrix(2.3811,0,0,2.3811,1880.09,1404.68)" d="M18.7,-13.6 C4.9,-13.6 0,-6.6 0,-0.1 C0,6.4 4.9,13.4 18.7,13.4 C32.5,13.4 37.3,6.4 37.3,-0.1 C37.3,-6.6 32.5,-13.6 18.7,-13.6 M10.4,-4.5 C10.3,-4.9 10.3,-5.3 10.3,-5.7 C10.3,-6.5 10.5,-7.3 10.9,-8 C11.6,-9 12.8,-9.7 14.3,-10 C15.6,-10.3 16.3,-10.5 18.9,-10.5 L19,-10.5 C23,-10.5 24.3,-6.8 25.4,-3 L25.7,-2 C26.5,0.6 26.9,2.8 26.9,4.5 C26.9,5.7 26.7,6.8 26.3,7.6 C25.7,8.7 24.7,9.4 23,9.8 C22.1,10 20.6,10.1 20.6,10.1 C20.1,10.1 19.7,10.2 19.3,10.2 C16.1,10.2 14.1,9 12.7,4.7 C11.5,1 11.3,-0.1 10.4,-4.5"/>
<path class="Note" transform="matrix(2.3811,0,0,2.3811,3048.24,1553.5)" d="M18.7,-13.6 C4.9,-13.6 0,-6.6 0,-0.1 C0,6.4 4.9,13.4 18.7,13.4 C32.5,13.4 37.3,6.4 37.3,-0.1 C37.3,-6.6 32.5,-13.6 18.7,-13.6 M10.4,-4.5 C10.3,-4.9 10.3,-5.3 10.3,-5.7 C10.3,-6.5 10.5,-7.3 10.9,-8 C11.6,-9 12.8,-9.7 14.3,-10 C15.6,-10.3 16.3,-10.5 18.9,-10.5 L19,-10.5 C23,-10.5 24.3,-6.8 25.4,-3 L25.7,-2 C26.5,0.6 26.9,2.8 26.9,4.5 C26.9,5.7 26.7,6.8 26.3,7.6 C25.7,8.7 24.7,9.4 23,9.8 C22.1,10 20.6,10.1 20.6,10.1 C20.1,10.1 19.7,10.2 19.3,10.2 C16.1,10.2 14.1,9 12.7,4.7 C11.5,1 11.3,-0.1 10.4,-4.5"/>
<path class="Note" transform="matrix(2.3811,0,0,2.3811,3048.24,1464.21)" d="M18.7,-13.6 C4.9,-13.6 0,-6.6 0,-0.1 C0,6.4 4.9,13.4 18.7,13.4 C32.5,13.4 37.3,6.4 37.3,-0.1 C37.3,-6.6 32.5,-13.6 18.7,-13.6 M10.4,-4.5 C10.3,-4.9 10.3,-5.3 10.3,-5.7 C10.3,-6.5 10.5,-7.3 10.9,-8 C11.6,-9 12.8,-9.7 14.3,-10 C15.6,-10.3 16.3,-10.5 18.9,-10.5 L19,-10.5 C23,-10.5 24.3,-6.8 25.4,-3 L25.7,-2 C26.5,0.6 26.9,2.8 26.9,4.5 C26.9,5.7 26.7,6.8 26.3,7.6 C25.7,8.7 24.7,9.4 23,9.8 C22.1,10 20.6,10.1 20.6,10.1 C20.1,10.1 19.7,10.2 19.3,10.2 C16.1,10.2 14.1,9 12.7,4.7 C11.5,1 11.3,-0.1 10.4,-4.5"/>
<path class="Note" transform="matrix(2.3811,0,0,2.3811,3048.24,1404.68)" d="M18.7,-13.6 C4.9,-13.6 0,-6.6 0,-0.1 C0,6.4 4.9,13.4 18.7,13.4 C32.5,13.4 37.3,6.4 37.3,-0.1 C37.3,-6.6 32.5,-13.6 18.7,-13.6 M10.4,-4.5 C10.3,-4.9 10.3,-5.3 10.3,-5.7 C10.3,-6.5 10.5,-7.3 10.9,-8 C11.6,-9 12.8,-9.7 14.3,-10 C15.6,-10.3 16.3,-10.5 18.9,-10.5 L19,-10.5 C23,-10.5 24.3,-6.8 25.4,-3 L25.7,-2 C26.5,0.6 26.9,2.8 26.9,4.5 C26.9,5.7 26.7,6.8 26.3,7.6 C25.7,8.7 24.7,9.4 23,9.8 C22.1,10 20.6,10.1 20.6,10.1 C20.1,10.1 19.7,10.2 19.3,10.2 C16.1,10.2 14.1,9 12.7,4.7 C11.5,1 11.3,-0.1 10.4,-4.5"/>
<path class="Note" d="M706.582,574.06 C710.921,571.116 714.058,568.676 715.995,566.739 C719.559,562.943 721.341,559.456 721.341,556.28 C721.341,552.639 719.327,550.818 715.298,550.818 C707.473,550.818 699.106,557.713 690.196,571.504 C687.485,575.687 681.519,589.323 672.3,612.41 C679.66,620.002 683.34,624.302 683.34,625.309 C683.34,626.704 682.449,627.401 680.667,627.401 C679.273,627.401 675.438,625.038 669.162,620.312 C662.344,636.194 652.002,649.752 638.134,660.986 C623.956,672.452 607.028,678.185 587.35,678.185 C579.835,678.185 570.422,676.442 559.11,672.956 C550.046,670.167 545.514,665.712 545.514,659.591 C545.514,650.527 549,645.995 555.973,645.995 C560.156,645.995 562.248,647.932 562.248,651.805 C562.248,653.045 561.28,654.362 559.343,655.756 C558.336,656.454 557.832,657.809 557.832,659.824 C557.832,662.226 560.505,664.705 565.851,667.261 C571.661,670.05 580.183,671.445 591.417,671.445 C605.905,671.445 619.889,665.17 633.369,652.619 C645.61,641.23 654.403,627.982 659.749,612.875 C657.657,611.17 655.411,609.311 653.009,607.296 C645.571,602.88 641.853,598.348 641.853,593.7 C641.853,591.763 643.131,590.795 645.688,590.795 C649.096,590.795 653.706,593.7 659.517,599.51 C660.756,600.75 661.918,601.912 663.003,602.997 C665.715,595.559 670.053,586.107 676.019,574.641 C686.788,553.878 699.881,543.497 715.298,543.497 C720.799,543.497 725.137,544.543 728.314,546.634 C731.49,548.726 733.078,551.593 733.078,555.234 C733.078,561.045 730.948,565.964 726.687,569.993 C722.271,574.176 717.661,576.268 712.858,576.268 C708.674,576.268 706.582,575.532 706.582,574.06"/>
<path class="Note" d="M705.769,776.234 C705.769,785.143 695.62,804.705 675.321,834.92 C667.264,846.929 655.682,855.722 640.574,861.3 C629.418,865.484 616.519,867.575 601.876,867.575 C597.15,867.575 592.967,866.607 589.325,864.67 C585.297,862.578 583.282,860.293 583.282,857.814 C583.282,851.383 586.73,848.168 593.625,848.168 C594.632,848.168 595.136,848.788 595.136,850.028 C595.136,851.112 594.632,852.313 593.625,853.63 C592.386,855.257 591.766,856.458 591.766,857.233 C591.766,859.557 595.252,860.719 602.225,860.719 C617.874,860.719 630.232,858.821 639.296,855.025 C648.748,851.151 658.161,841.273 667.535,825.391 L670.208,820.394 C665.715,823.803 661.26,825.507 656.844,825.507 C645.843,825.507 640.342,821.052 640.342,812.143 C640.342,802.536 646.811,792.426 659.749,781.812 C669.898,773.6 678.924,769.493 686.826,769.493 C690.777,769.493 694.07,770.539 696.704,772.631 C697.634,771.934 698.796,771.585 700.191,771.585 C703.909,771.585 705.769,773.135 705.769,776.234 M671.603,817.953 L693.566,777.396 C691.862,777.008 689.964,776.815 687.872,776.815 C680.357,776.815 673.075,781.192 666.025,789.947 C657.812,800.173 653.706,808.347 653.706,814.467 C653.706,818.496 656.379,820.51 661.725,820.51 C664.281,820.51 667.574,819.658 671.603,817.953"/>
<path class="Note" d="M633.95,566.116 C629.767,566.116 627.675,564.218 627.675,560.422 C627.675,553.992 628.643,549.266 630.58,546.244 C638.637,534.313 656.147,512.001 683.108,479.307 C695.271,464.509 710.959,457.111 730.173,457.111 C737.61,457.111 742.762,458.157 745.629,460.248 C750.045,463.502 752.253,467.415 752.253,471.986 C752.253,476.789 748.379,482.135 740.632,488.023 C733.272,493.601 726.299,496.39 719.714,496.39 C717.157,496.39 715.879,496.119 715.879,495.576 C715.879,494.802 717.119,493.988 719.598,493.136 C722.929,491.896 726.493,489.379 730.289,485.582 C734.628,481.166 736.797,477.176 736.797,473.613 C736.797,471.211 735.131,468.925 731.8,466.756 C728.856,464.897 724.091,463.967 717.506,463.967 C707.899,463.967 695.775,473.651 681.132,493.02 C671.37,505.958 663.468,517.347 657.425,527.186 C660.369,525.559 663.894,523.583 668,521.259 C673.036,518.393 677.374,516.959 681.016,516.959 C690.08,516.959 694.612,520.213 694.612,526.721 C694.612,533.151 690.894,540.201 683.456,547.871 C678.188,553.295 675.554,557.323 675.554,559.957 C675.554,562.669 678.188,564.025 683.456,564.025 C686.09,564.025 688.802,563.095 691.591,561.236 C694.38,559.454 696.433,558.563 697.75,558.563 C698.835,558.563 699.377,559.26 699.377,560.655 C699.377,562.901 697.208,565.264 692.869,567.743 C685.587,571.927 679.737,574.019 675.321,574.019 C667.497,574.019 663.584,569.835 663.584,561.468 C663.584,556.2 666.606,550.351 672.649,543.92 C677.065,539.194 679.273,534.507 679.273,529.859 C679.273,525.83 677.103,523.816 672.765,523.816 C671.06,523.816 665.405,525.83 655.798,529.859 C652.931,534.662 650.53,539.078 648.593,543.107 C641.233,558.447 636.352,566.116 633.95,566.116"/>
<path class="Note" d="M663.235,679.04 C667.032,679.04 668.93,681.945 668.93,687.756 C668.93,691.939 666.954,696.743 663.003,702.166 C659.517,707.047 657.774,714.601 657.774,724.827 C657.774,729.708 659.052,732.962 661.608,734.589 C663.39,735.828 666.722,736.487 671.603,736.564 C676.871,736.564 684.347,733.892 694.031,728.546 L695.891,730.405 C693.412,733.582 690.429,736.448 686.942,739.005 C681.752,742.801 676.445,744.699 671.022,744.699 C663.197,744.699 657.27,743.576 653.241,741.329 C648.205,738.54 645.688,735.054 645.688,730.87 C645.688,719.326 647.16,707.279 650.104,694.728 C651.188,690.157 653.551,685.974 657.192,682.178 C659.284,680.086 661.299,679.04 663.235,679.04"/>
<path class="Note" d="M1973.79,574.06 C1978.13,571.116 1981.27,568.676 1983.2,566.739 C1986.77,562.943 1988.55,559.456 1988.55,556.28 C1988.55,552.639 1986.53,550.818 1982.5,550.818 C1974.68,550.818 1966.31,557.713 1957.4,571.504 C1954.69,575.687 1948.73,589.323 1939.51,612.41 C1946.87,620.002 1950.55,624.302 1950.55,625.309 C1950.55,626.704 1949.66,627.401 1947.87,627.401 C1946.48,627.401 1942.64,625.038 1936.37,620.312 C1929.55,636.194 1919.21,649.752 1905.34,660.986 C1891.16,672.452 1874.24,678.185 1854.56,678.185 C1847.04,678.185 1837.63,676.442 1826.32,672.956 C1817.25,670.167 1812.72,665.712 1812.72,659.591 C1812.72,650.527 1816.21,645.995 1823.18,645.995 C1827.36,645.995 1829.46,647.932 1829.46,651.805 C1829.46,653.045 1828.49,654.362 1826.55,655.756 C1825.54,656.454 1825.04,657.809 1825.04,659.824 C1825.04,662.226 1827.71,664.705 1833.06,667.261 C1838.87,670.05 1847.39,671.445 1858.62,671.445 C1873.11,671.445 1887.1,665.17 1900.58,652.619 C1912.82,641.23 1921.61,627.982 1926.96,612.875 C1924.86,611.17 1922.62,609.311 1920.22,607.296 C1912.78,602.88 1909.06,598.348 1909.06,593.7 C1909.06,591.763 1910.34,590.795 1912.89,590.795 C1916.3,590.795 1920.91,593.7 1926.72,599.51 C1927.96,600.75 1929.13,601.912 1930.21,602.997 C1932.92,595.559 1937.26,586.107 1943.23,574.641 C1953.99,553.878 1967.09,543.497 1982.5,543.497 C1988.01,543.497 1992.34,544.543 1995.52,546.634 C1998.7,548.726 2000.29,551.593 2000.29,555.234 C2000.29,561.045 1998.15,565.964 1993.89,569.993 C1989.48,574.176 1984.87,576.268 1980.06,576.268 C1975.88,576.268 1973.79,575.532 1973.79,574.06"/>
<path class="Note" d="M1973.79,752.643 C1978.13,749.699 1981.27,747.258 1983.2,745.322 C1986.77,741.525 1988.55,738.039 1988.55,734.863 C1988.55,731.221 1986.53,729.401 1982.5,729.401 C1974.68,729.401 1966.31,736.296 1957.4,750.086 C1954.69,754.27 1948.73,767.905 1939.51,790.992 C1946.87,798.585 1950.55,802.885 1950.55,803.892 C1950.55,805.286 1949.66,805.984 1947.87,805.984 C1946.48,805.984 1942.64,803.621 1936.37,798.895 C1929.55,814.777 1919.21,828.335 1905.34,839.569 C1891.16,851.035 1874.24,856.768 1854.56,856.768 C1847.04,856.768 1837.63,855.025 1826.32,851.538 C1817.25,848.749 1812.72,844.295 1812.72,838.174 C1812.72,829.11 1816.21,824.577 1823.18,824.577 C1827.36,824.577 1829.46,826.514 1829.46,830.388 C1829.46,831.628 1828.49,832.945 1826.55,834.339 C1825.54,835.036 1825.04,836.392 1825.04,838.406 C1825.04,840.808 1827.71,843.287 1833.06,845.844 C1838.87,848.633 1847.39,850.028 1858.62,850.028 C1873.11,850.028 1887.1,843.752 1900.58,831.201 C1912.82,819.813 1921.61,806.565 1926.96,791.457 C1924.86,789.753 1922.62,787.893 1920.22,785.879 C1912.78,781.463 1909.06,776.931 1909.06,772.282 C1909.06,770.346 1910.34,769.377 1912.89,769.377 C1916.3,769.377 1920.91,772.282 1926.72,778.093 C1927.96,779.333 1929.13,780.495 1930.21,781.579 C1932.92,774.142 1937.26,764.69 1943.23,753.224 C1953.99,732.461 1967.09,722.079 1982.5,722.079 C1988.01,722.079 1992.34,723.125 1995.52,725.217 C1998.7,727.309 2000.29,730.175 2000.29,733.817 C2000.29,739.627 1998.15,744.547 1993.89,748.575 C1989.48,752.759 1984.87,754.851 1980.06,754.851 C1975.88,754.851 1973.79,754.115 1973.79,752.643"/>
<path class="Note" d="M1972.98,508.36 C1972.98,517.269 1962.83,536.831 1942.53,567.046 C1934.47,579.055 1922.89,587.848 1907.78,593.426 C1896.63,597.61 1883.73,599.701 1869.08,599.701 C1864.36,599.701 1860.17,598.733 1856.53,596.796 C1852.5,594.704 1850.49,592.419 1850.49,589.94 C1850.49,583.509 1853.94,580.294 1860.83,580.294 C1861.84,580.294 1862.34,580.914 1862.34,582.154 C1862.34,583.238 1861.84,584.439 1860.83,585.756 C1859.59,587.383 1858.97,588.584 1858.97,589.359 C1858.97,591.683 1862.46,592.845 1869.43,592.845 C1885.08,592.845 1897.44,590.947 1906.5,587.151 C1915.95,583.277 1925.37,573.399 1934.74,557.517 L1937.42,552.52 C1932.92,555.929 1928.47,557.633 1924.05,557.633 C1913.05,557.633 1907.55,553.178 1907.55,544.269 C1907.55,534.662 1914.02,524.552 1926.96,513.938 C1937.11,505.726 1946.13,501.619 1954.03,501.619 C1957.98,501.619 1961.28,502.665 1963.91,504.757 C1964.84,504.06 1966,503.711 1967.4,503.711 C1971.12,503.711 1972.98,505.261 1972.98,508.36 M1938.81,550.079 L1960.77,509.522 C1959.07,509.134 1957.17,508.941 1955.08,508.941 C1947.56,508.941 1940.28,513.318 1933.23,522.073 C1925.02,532.299 1920.91,540.473 1920.91,546.593 C1920.91,550.622 1923.59,552.636 1928.93,552.636 C1931.49,552.636 1934.78,551.784 1938.81,550.079"/>
<path class="Note" d="M1972.98,686.942 C1972.98,695.852 1962.83,715.414 1942.53,745.629 C1934.47,757.637 1922.89,766.431 1907.78,772.009 C1896.63,776.192 1883.73,778.284 1869.08,778.284 C1864.36,778.284 1860.17,777.316 1856.53,775.379 C1852.5,773.287 1850.49,771.002 1850.49,768.522 C1850.49,762.092 1853.94,758.877 1860.83,758.877 C1861.84,758.877 1862.34,759.497 1862.34,760.736 C1862.34,761.821 1861.84,763.022 1860.83,764.339 C1859.59,765.966 1858.97,767.167 1858.97,767.941 C1858.97,770.266 1862.46,771.428 1869.43,771.428 C1885.08,771.428 1897.44,769.53 1906.5,765.733 C1915.95,761.86 1925.37,751.982 1934.74,736.1 L1937.42,731.102 C1932.92,734.511 1928.47,736.216 1924.05,736.216 C1913.05,736.216 1907.55,731.761 1907.55,722.851 C1907.55,713.245 1914.02,703.134 1926.96,692.52 C1937.11,684.308 1946.13,680.202 1954.03,680.202 C1957.98,680.202 1961.28,681.248 1963.91,683.34 C1964.84,682.643 1966,682.294 1967.4,682.294 C1971.12,682.294 1972.98,683.843 1972.98,686.942 M1938.81,728.662 L1960.77,688.104 C1959.07,687.717 1957.17,687.523 1955.08,687.523 C1947.56,687.523 1940.28,691.901 1933.23,700.655 C1925.02,710.882 1920.91,719.055 1920.91,725.176 C1920.91,729.204 1923.59,731.219 1928.93,731.219 C1931.49,731.219 1934.78,730.366 1938.81,728.662"/>
<path class="Note" d="M3141.93,574.06 C3146.27,571.116 3149.41,568.676 3151.35,566.739 C3154.91,562.943 3156.69,559.456 3156.69,556.28 C3156.69,552.639 3154.68,550.818 3150.65,550.818 C3142.82,550.818 3134.46,557.713 3125.55,571.504 C3122.84,575.687 3116.87,589.323 3107.65,612.41 C3115.01,620.002 3118.69,624.302 3118.69,625.309 C3118.69,626.704 3117.8,627.401 3116.02,627.401 C3114.62,627.401 3110.79,625.038 3104.51,620.312 C3097.7,636.194 3087.35,649.752 3073.48,660.986 C3059.31,672.452 3042.38,678.185 3022.7,678.185 C3015.19,678.185 3005.77,676.442 2994.46,672.956 C2985.4,670.167 2980.86,665.712 2980.86,659.591 C2980.86,650.527 2984.35,645.995 2991.32,645.995 C2995.51,645.995 2997.6,647.932 2997.6,651.805 C2997.6,653.045 2996.63,654.362 2994.69,655.756 C2993.69,656.454 2993.18,657.809 2993.18,659.824 C2993.18,662.226 2995.86,664.705 3001.2,667.261 C3007.01,670.05 3015.53,671.445 3026.77,671.445 C3041.26,671.445 3055.24,665.17 3068.72,652.619 C3080.96,641.23 3089.75,627.982 3095.1,612.875 C3093.01,611.17 3090.76,609.311 3088.36,607.296 C3080.92,602.88 3077.2,598.348 3077.2,593.7 C3077.2,591.763 3078.48,590.795 3081.04,590.795 C3084.45,590.795 3089.06,593.7 3094.87,599.51 C3096.11,600.75 3097.27,601.912 3098.35,602.997 C3101.07,595.559 3105.4,586.107 3111.37,574.641 C3122.14,553.878 3135.23,543.497 3150.65,543.497 C3156.15,543.497 3160.49,544.543 3163.66,546.634 C3166.84,548.726 3168.43,551.593 3168.43,555.234 C3168.43,561.045 3166.3,565.964 3162.04,569.993 C3157.62,574.176 3153.01,576.268 3148.21,576.268 C3144.02,576.268 3141.93,575.532 3141.93,574.06"/>
<path class="Note" d="M3141.93,752.643 C3146.27,749.699 3149.41,747.258 3151.35,745.322 C3154.91,741.525 3156.69,738.039 3156.69,734.863 C3156.69,731.221 3154.68,729.401 3150.65,729.401 C3142.82,729.401 3134.46,736.296 3125.55,750.086 C3122.84,754.27 3116.87,767.905 3107.65,790.992 C3115.01,798.585 3118.69,802.885 3118.69,803.892 C3118.69,805.286 3117.8,805.984 3116.02,805.984 C3114.62,805.984 3110.79,803.621 3104.51,798.895 C3097.7,814.777 3087.35,828.335 3073.48,839.569 C3059.31,851.035 3042.38,856.768 3022.7,856.768 C3015.19,856.768 3005.77,855.025 2994.46,851.538 C2985.4,848.749 2980.86,844.295 2980.86,838.174 C2980.86,829.11 2984.35,824.577 2991.32,824.577 C2995.51,824.577 2997.6,826.514 2997.6,830.388 C2997.6,831.628 2996.63,832.945 2994.69,834.339 C2993.69,835.036 2993.18,836.392 2993.18,838.406 C2993.18,840.808 2995.86,843.287 3001.2,845.844 C3007.01,848.633 3015.53,850.028 3026.77,850.028 C3041.26,850.028 3055.24,843.752 3068.72,831.201 C3080.96,819.813 3089.75,806.565 3095.1,791.457 C3093.01,789.753 3090.76,787.893 3088.36,785.879 C3080.92,781.463 3077.2,776.931 3077.2,772.282 C3077.2,770.346 3078.48,769.377 3081.04,769.377 C3084.45,769.377 3089.06,772.282 3094.87,778.093 C3096.11,779.333 3097.27,780.495 3098.35,781.579 C3101.07,774.142 3105.4,764.69 3111.37,753.224 C3122.14,732.461 3135.23,722.079 3150.65,722.079 C3156.15,722.079 3160.49,723.125 3163.66,725.217 C3166.84,727.309 3168.43,730.175 3168.43,733.817 C3168.43,739.627 3166.3,744.547 3162.04,748.575 C3157.62,752.759 3153.01,754.851 3148.21,754.851 C3144.02,754.851 3141.93,754.115 3141.93,752.643"/>
<path class="Note" d="M3141.93,484.769 C3146.27,481.825 3149.41,479.384 3151.35,477.448 C3154.91,473.651 3156.69,470.165 3156.69,466.989 C3156.69,463.347 3154.68,461.527 3150.65,461.527 C3142.82,461.527 3134.46,468.422 3125.55,482.212 C3122.84,486.396 3116.87,500.031 3107.65,523.118 C3115.01,530.711 3118.69,535.011 3118.69,536.018 C3118.69,537.412 3117.8,538.11 3116.02,538.11 C3114.62,538.11 3110.79,535.747 3104.51,531.021 C3097.7,546.903 3087.35,560.461 3073.48,571.695 C3059.31,583.161 3042.38,588.894 3022.7,588.894 C3015.19,588.894 3005.77,587.151 2994.46,583.664 C2985.4,580.875 2980.86,576.421 2980.86,570.3 C2980.86,561.236 2984.35,556.703 2991.32,556.703 C2995.51,556.703 2997.6,558.64 2997.6,562.514 C2997.6,563.754 2996.63,565.071 2994.69,566.465 C2993.69,567.162 2993.18,568.518 2993.18,570.532 C2993.18,572.934 2995.86,575.413 3001.2,577.97 C3007.01,580.759 3015.53,582.154 3026.77,582.154 C3041.26,582.154 3055.24,575.878 3068.72,563.327 C3080.96,551.939 3089.75,538.691 3095.1,523.583 C3093.01,521.879 3090.76,520.019 3088.36,518.005 C3080.92,513.589 3077.2,509.057 3077.2,504.408 C3077.2,502.472 3078.48,501.503 3081.04,501.503 C3084.45,501.503 3089.06,504.408 3094.87,510.219 C3096.11,511.459 3097.27,512.621 3098.35,513.705 C3101.07,506.268 3105.4,496.816 3111.37,485.35 C3122.14,464.587 3135.23,454.205 3150.65,454.205 C3156.15,454.205 3160.49,455.251 3163.66,457.343 C3166.84,459.435 3168.43,462.301 3168.43,465.943 C3168.43,471.753 3166.3,476.673 3162.04,480.701 C3157.62,484.885 3153.01,486.977 3148.21,486.977 C3144.02,486.977 3141.93,486.241 3141.93,484.769"/>
<path class="Note" d="M3069.3,744.699 C3065.12,744.699 3063.03,742.801 3063.03,739.005 C3063.03,732.574 3063.99,727.849 3065.93,724.827 C3073.99,712.896 3091.5,690.584 3118.46,657.89 C3130.62,643.092 3146.31,635.693 3165.52,635.693 C3172.96,635.693 3178.11,636.739 3180.98,638.831 C3185.4,642.085 3187.6,645.997 3187.6,650.568 C3187.6,655.372 3183.73,660.717 3175.98,666.605 C3168.62,672.184 3161.65,674.973 3155.06,674.973 C3152.51,674.973 3151.23,674.701 3151.23,674.159 C3151.23,673.384 3152.47,672.571 3154.95,671.719 C3158.28,670.479 3161.84,667.961 3165.64,664.165 C3169.98,659.749 3172.15,655.759 3172.15,652.195 C3172.15,649.794 3170.48,647.508 3167.15,645.339 C3164.21,643.479 3159.44,642.55 3152.86,642.55 C3143.25,642.55 3131.13,652.234 3116.48,671.602 C3106.72,684.541 3098.82,695.929 3092.78,705.768 C3095.72,704.142 3099.24,702.166 3103.35,699.842 C3108.39,696.975 3112.73,695.542 3116.37,695.542 C3125.43,695.542 3129.96,698.796 3129.96,705.304 C3129.96,711.734 3126.24,718.784 3118.81,726.454 C3113.54,731.877 3110.9,735.906 3110.9,738.54 C3110.9,741.252 3113.54,742.607 3118.81,742.607 C3121.44,742.607 3124.15,741.678 3126.94,739.818 C3129.73,738.036 3131.78,737.145 3133.1,737.145 C3134.19,737.145 3134.73,737.843 3134.73,739.237 C3134.73,741.484 3132.56,743.847 3128.22,746.326 C3120.94,750.51 3115.09,752.601 3110.67,752.601 C3102.85,752.601 3098.93,748.418 3098.93,740.051 C3098.93,734.782 3101.96,728.933 3108,722.503 C3112.42,717.777 3114.62,713.09 3114.62,708.441 C3114.62,704.413 3112.45,702.398 3108.12,702.398 C3106.41,702.398 3100.76,704.413 3091.15,708.441 C3088.28,713.245 3085.88,717.661 3083.94,721.689 C3076.58,737.029 3071.7,744.699 3069.3,744.699"/>
<path class="Clef" transform="matrix(2.3811,0,0,2.3811,212.156,2260.29)" d="M25.4,-25.1 C17.8,-25.1 11.7,-20.7 11.6,-20.7 C5.8,-16.4 3.5,-11.3 2.6,-7.8 C2.1,-6 1.9,-4.2 1.9,-2.5 C1.9,-0.1 2.3,2.1 3.2,4 C4.4,6.7 6.7,8.6 9.7,9.6 C10.9,10 12.2,10.2 13.5,10.2 C15.7,10.2 18,9.6 19.9,8.5 C23,6.8 24.9,3.2 24.9,-0.7 C24.9,-4.2 23.1,-7.4 20.1,-9.3 C18,-10.7 16,-11.1 14.3,-11.1 C13.1,-11.1 12,-10.9 11.1,-10.6 C10.1,-10.2 8.4,-9.2 7.6,-8.5 C7.9,-10.4 9.1,-13.3 10.2,-14.9 C11.3,-16.5 13.5,-18.5 15.2,-19.4 C17.7,-20.8 20.9,-21.4 24.4,-21.4 C34.6,-21.4 39.6,-13.2 39.6,3.6 C39.6,12.9 36.1,21.8 33.1,27.7 C29.8,34.3 25.4,40.6 21.5,44.1 C11.1,53.6 1.3,58.1 1.2,58.1 C1.2,58.1 -0.3,59 0.1,60.5 C0.4,61.5 1.3,61.7 1.9,61.7 C2,61.7 2.3,61.6 2.4,61.6 C2.5,61.6 13.9,56.9 23,49.8 C28.1,46.1 32.7,42.1 36.7,37.8 C40.3,33.9 43.4,29.7 45.9,25.5 C50.3,18 52.8,10.2 52.8,3.5 C52.8,-4.8 50.6,-11.7 46.5,-16.6 C41.8,-22.2 34.7,-25.1 25.4,-25.1 M56.8,-12.4 C56.8,-9.6 59,-7.4 61.6,-7.4 C64.2,-7.4 66.4,-9.6 66.4,-12.4 C66.4,-15.2 64.2,-17.5 61.6,-17.5 C59,-17.5 56.8,-15.2 56.8,-12.4 M56.8,12.3 C56.8,15.1 59,17.4 61.6,17.4 C64.2,17.4 66.4,15.1 66.4,12.3 C66.4,9.5 64.2,7.2 61.6,7.2 C59,7.2 56.8,9.5 56.8,12.3"/>
<path class="Clef" transform="matrix(2.3811,0,0,2.3811,212.156,1583.27)" d="M63.37,-5.89004 C62.14,-11.32 59.5,-15.14 58.72,-16.1801 C55.5301,-20.45 51.52,-23.3 46.8301,-24.65 C43.72,-25.54 40.72,-25.65 38.3,-25.47 C37.2601,-31.4801 36.2601,-37.3601 35.35,-42.8101 C40.79,-48.97 44.42,-54.77 46.69,-59.07 C50.1601,-65.65 51.3101,-70.2301 51.3601,-70.4301 C53.0801,-75.64 53.44,-83.34 52.34,-91.55 C51.3301,-99.1 49.24,-105.81 46.89,-109.06 C45.8601,-110.49 44.8101,-111.22 43.77,-111.22 C42.55,-111.22 40.04,-109.98 37.15,-107.21 C34.85,-105.01 31.5801,-101.12 29.02,-95.1101 C26.02,-88.05 25.8101,-78.5601 26.1601,-71.84 C26.54,-64.57 27.65,-58.8801 27.6601,-58.8301 C27.6801,-58.74 27.94,-57.24 28.39,-54.67 C28.1601,-54.44 27.92,-54.22 27.67,-53.9801 C26.6301,-52.9801 25.44,-51.84 24.0601,-50.4601 C23.2,-49.6 22.25,-48.69 21.25,-47.72 C12.79,-39.57 0,-27.25 0,-8.1 C0,-3.4 0.9,1.01992 2.68008,5.02998 C4.27002,8.62998 6.57002,11.91 9.5,14.78 C17.2301,22.33 27.82,25.5399 34.8801,25.38 C37.8301,25.31 40.4601,25.0699 42.85,24.6199 C44.6801,34.2199 45.82,41.25 45.8601,46.5899 C45.9,53.1 44.25,57.0699 40.35,59.8399 C37.92,61.5699 35.1101,62.5199 32.0101,62.6699 C29.42,62.7899 27.1601,62.3199 25.7301,61.91 L25.72,61.91 C25.72,61.91 25.4301,61.83 25.42,61.63 C25.4101,61.45 25.7601,61.4 25.77,61.4 L25.79,61.4 C27.7101,60.96 31.2801,59.73 33.64,56.43 C35.44,53.91 36.3101,49.2899 34.47,45.35 C33.3601,42.96 30.85,40.01 25.2301,39.56 C22.74,39.36 20.47,39.8699 18.47,41.0699 C16.6601,42.15 15.1601,43.7899 14.1101,45.7899 C11.65,50.4899 12.1101,56.2199 15.24,60.06 C18.2,63.68 22.82,65.9899 28.25,66.5699 C29.1,66.66 29.95,66.7 30.8,66.7 C31.5101,66.7 32.22,66.6699 32.92,66.61 C31.72,66.9399 30.64,67.4899 29.77,68.25 C28.2801,69.5399 27.44,71.38 27.44,73.41 C27.44,75.28 28.0601,76.65 29.55,78.0399 C28.4101,78.5 27.55,78.98 26.79,79.56 C25.25,80.73 24.34,82.46 24.34,84.1899 C24.34,87.45 27.3,89.63 31.72,89.63 C37.1301,89.63 40.9101,86.63 40.9101,82.35 C40.9101,80.1199 39.9101,78.18 38.0801,76.83 C41.0101,75.6199 42.37,73.9399 42.37,71.56 C42.39,70.05 41.69,68.61 40.49,67.6899 C39.2801,66.7399 37.62,66.2399 35.69,66.2399 L35.5101,66.2399 C38.2801,65.7 40.92,64.7 43.2101,63.28 C46.87,60.71 48.99,56.73 49.67,51.1 C50.2301,46.46 49.84,40.55 48.44,32.48 C48.0801,30.3899 47.54,27.36 46.8801,23.6 C52.6301,21.68 56.79,18.11 60.5601,12.26 C63.85,6.51992 64.8,0.419922 63.37,-5.89004 M32.39,87.5399 C30.19,87.5399 28.7301,86.1199 28.7301,84.01 C28.7301,82.11 29.65,80.5 31.32,79.4699 C31.6801,79.66 31.77,79.71 32.1101,79.88 C33.3,80.48 33.3,80.48 33.55,80.63 L33.5601,80.6399 C35.47,81.73 36.25,82.76 36.25,84.18 C36.24,86.0899 34.59,87.5399 32.39,87.5399 M38.3101,71.63 C38.3101,73.2699 37.7301,74.3399 36.1801,75.53 C34.74,74.78 34.35,74.56 33.9801,74.3399 L33.8801,74.28 C32.3301,73.3399 31.85,72.66 31.85,71.4 C31.85,69.6 33.2301,68.3399 35.19,68.3399 C37.17,68.35 38.3101,69.55 38.3101,71.63 M33.15,-83.8101 C34.9301,-89.55 37.67,-92.8 39.6601,-94.5301 C41.4101,-96.05 43.0601,-96.7601 43.9801,-96.7601 C44.12,-96.7601 44.24,-96.74 44.34,-96.7101 C44.8,-96.57 45.3301,-96 45.8,-95.1301 C48.1101,-90.84 47.37,-84.1301 46.0301,-79.69 C44.4,-74.29 41.4801,-68.6801 32.69,-59.0601 C32.52,-60.17 32.3601,-61.22 32.2101,-62.2 C30.95,-70.49 31.27,-77.7601 33.15,-83.8101 M29.15,20.31 C24.5101,19.0899 20.0801,16.5899 16.32,13.0899 C15.0101,11.86 13.14,9.68994 11.67,6.3 C10.3101,3.13994 9.65,-0.290039 9.7,-3.88008 C9.77002,-8.57002 11.0801,-13.39 13.59,-18.1801 C16.5101,-23.7601 21.07,-29.29 27.1301,-34.62 C28.5801,-35.9 29.95,-37.1801 31.24,-38.4601 C32,-34.2 32.8301,-29.5101 33.7101,-24.6301 C29.8601,-23.3601 25.1101,-20.2101 22,-14.5601 C18.47,-7.99004 18.6101,-2.47002 19.34,1.00996 C20.2801,5.46992 22.8101,9.22998 26.27,11.3199 C27.2,11.88 31.3301,14.01 33.17,13.43 C33.54,13.31 33.8101,13.0899 33.95,12.76 C34.4601,11.5899 33.44,10.95 31.8801,9.98994 C31.2801,9.61992 30.6101,9.2 29.8801,8.66992 C26.5601,6.17998 25.1101,1.72998 26.1801,-2.65 C26.7601,-5.05 28.04,-7.21006 29.8801,-8.91006 C31.55,-10.4601 33.59,-11.5601 35.97,-12.2 C38.0101,-0.960059 40.07,10.1899 41.7101,18.55 C41.84,19.2399 41.9801,19.91 42.1101,20.58 C37.7101,21.51 33.37,21.4199 29.15,20.31 M54.9,10.1 C53.7301,13.28 51.27,17.35 46.14,19.41 C46.07,18.9899 45.99,18.56 45.9101,18.13 C44.3601,9.36992 42.4301,-1.61006 40.47,-12.87 C50.82,-13.35 55.09,-5.91006 55.9801,-1.08008 C56.45,1.45 56.45,5.88994 54.9,10.1"/>
<path class="FiguredBass" d="M660.077,2574.05 C655.5,2574.05 652.454,2575.89 650.939,2579.57 C649.423,2583.25 648.666,2588.47 648.666,2595.21 L648.666,2606.15 C651.882,2604.86 654.665,2604.18 657.015,2604.11 C665.056,2604.11 671.38,2605.89 675.987,2609.45 C680.595,2613 682.899,2618.29 682.899,2625.31 C682.899,2632.33 680.564,2637.64 675.895,2641.22 C671.225,2644.81 664.932,2646.6 657.015,2646.6 C648.913,2646.6 642.574,2642.85 637.997,2635.33 C633.42,2627.82 631.132,2618.9 631.132,2608.57 C631.132,2598.3 633.791,2589.39 639.11,2581.85 C644.429,2574.3 651.418,2570.53 660.077,2570.53 C665.767,2570.53 670.684,2571.97 674.828,2574.84 C678.972,2577.72 681.044,2581.51 681.044,2586.21 C681.044,2588.93 680.054,2591.28 678.075,2593.26 C676.096,2595.24 673.73,2596.23 670.978,2596.23 C668.225,2596.23 665.86,2595.24 663.881,2593.26 C661.901,2591.28 660.912,2588.93 660.912,2586.21 C660.912,2583.55 661.901,2581.2 663.881,2579.16 C664.561,2578.35 665.52,2577.67 666.757,2577.12 C666.447,2576.31 665.829,2575.69 664.901,2575.26 C663.54,2574.46 661.932,2574.05 660.077,2574.05 M664.623,2612 C663.509,2609.09 661.066,2607.64 657.294,2607.64 C653.521,2607.64 651.186,2609.09 650.289,2612 C649.392,2614.91 648.944,2619.33 648.944,2625.27 C648.944,2632.25 649.392,2636.96 650.289,2639.37 C651.186,2641.78 653.521,2642.99 657.294,2642.99 C661.066,2642.99 663.509,2641.53 664.623,2638.63 C665.736,2635.72 666.293,2631.28 666.293,2625.31 C666.293,2619.34 665.736,2614.91 664.623,2612"/>
<path class="FiguredBass" d="M637.44,2676.28 L641.893,2676.93 C643.068,2677.11 644.522,2677.3 646.254,2677.49 C650.521,2677.98 654.634,2678.23 658.592,2678.23 C662.551,2678.23 666.726,2677.98 671.117,2677.49 C672.849,2677.3 674.364,2677.11 675.663,2676.93 L680.209,2676.28 C681.136,2676.28 681.848,2676.59 682.342,2677.21 C682.714,2677.7 682.652,2678.2 682.157,2678.69 C672.508,2688.15 659.18,2692.89 642.172,2692.89 C641.491,2692.89 640.888,2693.13 640.362,2693.63 C639.837,2694.12 639.574,2694.74 639.574,2695.48 L639.574,2707.27 C643.965,2702.94 649.284,2700.77 655.531,2700.77 C664.252,2700.77 671.055,2702.81 675.941,2706.89 C681.26,2702.87 684.043,2697.74 684.291,2691.49 C684.353,2689.52 685.002,2687.91 686.239,2686.67 C687.6,2685.43 689.239,2684.81 691.156,2684.81 C693.073,2684.81 694.697,2685.46 696.027,2686.76 C697.356,2688.06 698.021,2689.64 698.021,2691.49 C698.021,2701.08 692.362,2708.35 681.044,2713.3 C682.899,2716.95 683.827,2721.4 683.827,2726.66 C683.827,2733.64 681.044,2739.67 675.477,2744.75 C669.911,2749.82 663.262,2752.35 655.531,2752.35 C648.851,2752.35 643.053,2750.84 638.136,2747.81 C633.219,2744.78 630.76,2740.57 630.76,2735.19 C630.76,2732.47 631.75,2730.1 633.729,2728.09 C635.708,2726.08 638.074,2725.08 640.826,2725.08 C643.579,2725.08 645.913,2726.07 647.831,2728.05 C649.748,2730.03 650.707,2732.41 650.707,2735.19 C650.707,2736.43 649.686,2737.77 647.645,2739.23 C645.604,2740.68 644.584,2742.03 644.584,2743.26 C644.584,2746.97 648.233,2748.83 655.531,2748.83 C662.644,2748.83 666.2,2741.44 666.2,2726.66 C666.2,2723.38 666.014,2720.5 665.643,2718.03 C658.16,2719.57 648.789,2720.78 637.533,2721.65 C635.987,2721.77 635.214,2721 635.214,2719.33 C635.214,2717.97 635.987,2717.22 637.533,2717.1 C648.913,2716.17 657.881,2714.69 664.437,2712.65 C662.705,2707.7 659.737,2705.19 655.531,2705.13 C649.161,2705.13 644.707,2706.43 642.172,2709.03 C639.636,2711.63 638.059,2712.93 637.44,2712.93 C635.956,2712.93 635.214,2712.15 635.214,2710.61 L635.214,2678.69 C635.214,2678.07 635.43,2677.52 635.863,2677.02 C636.358,2676.53 636.883,2676.28 637.44,2676.28"/>
<path class="FiguredBass" d="M1873.86,2628.33 C1873.18,2629.07 1872.28,2629.44 1871.17,2629.44 C1870.06,2629.44 1869.14,2629.05 1868.43,2628.28 C1867.72,2627.51 1867.37,2626.63 1867.37,2625.64 L1867.37,2612.37 L1854.1,2612.37 C1852.99,2612.37 1852.07,2611.98 1851.36,2611.21 C1850.65,2610.44 1850.3,2609.56 1850.3,2608.57 C1850.3,2607.58 1850.65,2606.7 1851.36,2605.92 C1852.07,2605.15 1852.99,2604.76 1854.1,2604.76 L1867.37,2604.76 L1867.37,2591.5 C1867.37,2590.51 1867.72,2589.63 1868.43,2588.85 C1869.14,2588.08 1870.06,2587.69 1871.17,2587.69 C1872.28,2587.69 1873.2,2588.08 1873.91,2588.85 C1874.62,2589.63 1874.97,2590.51 1874.97,2591.5 L1874.97,2604.76 L1888.24,2604.76 C1889.35,2604.76 1890.27,2605.15 1890.98,2605.92 C1891.69,2606.7 1892.04,2607.58 1892.04,2608.57 C1892.04,2609.56 1891.69,2610.44 1890.98,2611.21 C1890.27,2611.98 1889.35,2612.37 1888.24,2612.37 L1874.97,2612.37 L1874.97,2625.64 C1874.97,2626.63 1874.6,2627.52 1873.86,2628.33 M1927.28,2574.05 C1922.71,2574.05 1919.66,2575.89 1918.15,2579.57 C1916.63,2583.25 1915.87,2588.47 1915.87,2595.21 L1915.87,2606.15 C1919.09,2604.86 1921.87,2604.18 1924.22,2604.11 C1932.26,2604.11 1938.59,2605.89 1943.19,2609.45 C1947.8,2613 1950.11,2618.29 1950.11,2625.31 C1950.11,2632.33 1947.77,2637.64 1943.1,2641.22 C1938.43,2644.81 1932.14,2646.6 1924.22,2646.6 C1916.12,2646.6 1909.78,2642.85 1905.2,2635.33 C1900.63,2627.82 1898.34,2618.9 1898.34,2608.57 C1898.34,2598.3 1901,2589.39 1906.32,2581.85 C1911.64,2574.3 1918.62,2570.53 1927.28,2570.53 C1932.97,2570.53 1937.89,2571.97 1942.03,2574.84 C1946.18,2577.72 1948.25,2581.51 1948.25,2586.21 C1948.25,2588.93 1947.26,2591.28 1945.28,2593.26 C1943.3,2595.24 1940.94,2596.23 1938.18,2596.23 C1935.43,2596.23 1933.07,2595.24 1931.09,2593.26 C1929.11,2591.28 1928.12,2588.93 1928.12,2586.21 C1928.12,2583.55 1929.11,2581.2 1931.09,2579.16 C1931.77,2578.35 1932.73,2577.67 1933.96,2577.12 C1933.65,2576.31 1933.04,2575.69 1932.11,2575.26 C1930.75,2574.46 1929.14,2574.05 1927.28,2574.05 M1931.83,2612 C1930.72,2609.09 1928.27,2607.64 1924.5,2607.64 C1920.73,2607.64 1918.39,2609.09 1917.5,2612 C1916.6,2614.91 1916.15,2619.33 1916.15,2625.27 C1916.15,2632.25 1916.6,2636.96 1917.5,2639.37 C1918.39,2641.78 1920.73,2642.99 1924.5,2642.99 C1928.27,2642.99 1930.72,2641.53 1931.83,2638.63 C1932.94,2635.72 1933.5,2631.28 1933.5,2625.31 C1933.5,2619.34 1932.94,2614.91 1931.83,2612"/>
<path class="FiguredBass" d="M3042,2628.33 C3041.32,2629.07 3040.43,2629.44 3039.31,2629.44 C3038.2,2629.44 3037.29,2629.05 3036.58,2628.28 C3035.87,2627.51 3035.51,2626.63 3035.51,2625.64 L3035.51,2612.37 L3022.24,2612.37 C3021.13,2612.37 3020.22,2611.98 3019.51,2611.21 C3018.79,2610.44 3018.44,2609.56 3018.44,2608.57 C3018.44,2607.58 3018.79,2606.7 3019.51,2605.92 C3020.22,2605.15 3021.13,2604.76 3022.24,2604.76 L3035.51,2604.76 L3035.51,2591.5 C3035.51,2590.51 3035.87,2589.63 3036.58,2588.85 C3037.29,2588.08 3038.2,2587.69 3039.31,2587.69 C3040.43,2587.69 3041.34,2588.08 3042.05,2588.85 C3042.76,2589.63 3043.12,2590.51 3043.12,2591.5 L3043.12,2604.76 L3056.38,2604.76 C3057.5,2604.76 3058.41,2605.15 3059.12,2605.92 C3059.83,2606.7 3060.19,2607.58 3060.19,2608.57 C3060.19,2609.56 3059.83,2610.44 3059.12,2611.21 C3058.41,2611.98 3057.5,2612.37 3056.38,2612.37 L3043.12,2612.37 L3043.12,2625.64 C3043.12,2626.63 3042.75,2627.52 3042,2628.33 M3094.78,2572.48 C3097.13,2572.48 3099.6,2572.14 3102.2,2571.46 L3106.37,2570.34 C3107.18,2570.34 3107.81,2570.65 3108.28,2571.27 C3108.74,2571.89 3108.69,2572.45 3108.14,2572.94 L3065,2623.13 L3090.33,2623.13 L3090.33,2603.28 C3090.33,2601.86 3090.71,2600.76 3091.48,2599.99 C3092.26,2599.21 3093.25,2598.59 3094.45,2598.13 C3095.66,2597.67 3097.24,2596.29 3099.18,2594 C3101.13,2591.71 3103,2588.62 3104.8,2584.72 C3105.11,2584.11 3105.57,2583.8 3106.19,2583.8 C3107.49,2583.8 3108.14,2584.51 3108.14,2585.93 L3108.14,2623.13 L3119.08,2623.13 C3120.63,2623.13 3121.4,2623.84 3121.4,2625.27 C3121.4,2626.81 3120.63,2627.59 3119.08,2627.59 L3108.14,2627.59 L3108.14,2628.79 C3108.14,2632.63 3109.16,2635.97 3111.2,2638.81 C3113.24,2641.66 3115.87,2643.08 3119.08,2643.08 C3120.32,2643.08 3120.94,2643.64 3120.94,2644.75 C3120.94,2645.99 3120.32,2646.6 3119.08,2646.6 C3116.86,2646.6 3113.55,2646.28 3109.16,2645.63 C3104.77,2644.98 3101.44,2644.66 3099.18,2644.66 C3096.93,2644.66 3093.6,2644.98 3089.21,2645.63 C3084.82,2646.28 3081.51,2646.6 3079.29,2646.6 C3078.05,2646.6 3077.43,2645.99 3077.43,2644.75 C3077.43,2643.64 3078.05,2643.08 3079.29,2643.08 C3082.5,2643.08 3085.15,2641.66 3087.22,2638.81 C3089.29,2635.97 3090.33,2632.63 3090.33,2628.79 L3090.33,2627.59 L3065,2627.59 C3063.39,2627.59 3062.2,2627.2 3061.43,2626.43 C3060.65,2625.65 3060.27,2624.86 3060.27,2624.06 C3060.27,2623.75 3060.99,2622.68 3062.45,2620.86 C3063.9,2619.03 3065.68,2616.61 3067.78,2613.58 C3069.88,2610.55 3071.97,2607.1 3074.04,2603.23 C3076.12,2599.37 3077.88,2594.73 3079.33,2589.32 C3080.78,2583.9 3081.51,2578.45 3081.51,2572.94 C3081.51,2571.33 3082.19,2570.53 3083.55,2570.53 C3083.74,2570.53 3084.39,2570.68 3085.5,2570.99 C3086.61,2571.3 3088.04,2571.63 3089.77,2571.97 C3091.5,2572.31 3093.17,2572.48 3094.78,2572.48"/>
<path class="FiguredBass" d="M637.44,1774.45 C637.44,1774.45 638.925,1774.67 641.893,1775.1 C643.192,1775.29 644.646,1775.48 646.254,1775.66 C650.521,1776.16 654.634,1776.4 658.592,1776.4 C662.551,1776.4 666.726,1776.16 671.117,1775.66 C672.849,1775.48 674.364,1775.29 675.663,1775.1 L680.209,1774.45 C681.136,1774.45 681.832,1774.76 682.296,1775.38 C682.76,1776 682.714,1776.5 682.157,1776.87 C672.694,1786.33 659.366,1791.06 642.172,1791.06 C641.491,1791.06 640.888,1791.31 640.362,1791.8 C639.837,1792.3 639.574,1792.92 639.574,1793.66 L639.574,1808.22 C643.965,1803.89 649.284,1801.73 655.531,1801.73 C664.561,1801.73 671.534,1803.76 676.451,1807.81 C681.368,1811.86 683.827,1818 683.827,1826.22 C683.827,1833.21 681.044,1839.01 675.477,1843.62 C669.911,1848.23 663.262,1850.53 655.531,1850.53 C648.851,1850.53 643.053,1849.01 638.136,1845.98 C633.219,1842.95 630.76,1838.75 630.76,1833.37 C630.76,1830.64 631.75,1828.28 633.729,1826.27 C635.708,1824.26 638.074,1823.25 640.826,1823.25 C643.579,1823.25 645.913,1824.24 647.831,1826.22 C649.748,1828.2 650.707,1830.58 650.707,1833.37 C650.707,1834.6 649.686,1835.95 647.645,1837.4 C645.604,1838.85 644.584,1840.2 644.584,1841.44 C644.584,1845.15 648.233,1847 655.531,1847 C662.644,1847 666.2,1840.08 666.2,1826.22 C666.2,1812.86 662.644,1806.15 655.531,1806.09 C649.161,1806.09 644.707,1807.39 642.172,1809.99 C639.636,1812.58 638.059,1813.88 637.44,1813.88 C635.894,1813.88 635.152,1813.11 635.214,1811.56 L635.214,1776.87 C635.214,1776.19 635.43,1775.61 635.863,1775.15 C636.296,1774.69 636.822,1774.45 637.44,1774.45"/>
<path class="FiguredBass" d="M671.952,1915.92 C671.952,1916.91 672.508,1917.87 673.622,1918.8 C674.735,1919.73 675.957,1920.61 677.286,1921.44 C678.616,1922.28 679.838,1923.85 680.951,1926.17 C682.064,1928.49 682.621,1931.42 682.621,1934.94 C682.621,1941.74 680.054,1947 674.921,1950.71 C669.787,1954.42 663.293,1956.28 655.438,1956.28 C649.13,1956.28 643.64,1954.7 638.971,1951.55 C634.301,1948.39 631.966,1944.25 631.966,1939.12 C631.966,1936.39 632.956,1934.03 634.935,1932.02 C636.914,1930.01 639.28,1929 642.032,1929 C644.785,1929 647.119,1929.99 649.037,1931.97 C650.954,1933.95 651.913,1936.33 651.913,1939.12 C651.913,1940.35 650.892,1941.7 648.851,1943.15 C646.81,1944.6 645.79,1945.95 645.79,1947.19 C645.79,1949.1 646.733,1950.51 648.619,1951.41 C650.506,1952.31 652.779,1952.75 655.438,1952.75 C658.902,1952.75 661.36,1951.04 662.814,1947.6 C664.267,1944.17 664.994,1939.95 664.994,1934.94 L664.994,1932.53 C664.994,1929.19 664.886,1926.65 664.669,1924.92 C664.453,1923.19 663.772,1921.64 662.628,1920.28 C661.484,1918.92 659.737,1918.24 657.386,1918.24 L645.233,1918.24 C643.811,1918.24 643.099,1917.47 643.099,1915.92 C643.099,1914.5 643.811,1913.79 645.233,1913.79 L657.386,1913.79 C659.922,1913.79 661.901,1912.83 663.324,1910.91 C663.819,1910.23 664.221,1909.12 664.53,1907.57 C664.839,1905.53 664.994,1902.59 664.994,1898.76 L664.994,1897.55 C664.994,1888.34 661.592,1883.73 654.789,1883.73 C648.789,1883.73 645.79,1885.4 645.79,1888.74 C645.79,1889.85 646.702,1891.04 648.527,1892.31 C650.351,1893.58 651.263,1894.77 651.263,1895.88 C651.263,1898.3 650.413,1900.37 648.712,1902.1 C647.011,1903.83 644.939,1904.7 642.496,1904.7 C640.053,1904.7 637.997,1903.83 636.327,1902.1 C634.657,1900.37 633.822,1898.3 633.822,1895.88 C633.822,1891.12 635.894,1887.32 640.038,1884.47 C644.182,1881.63 649.099,1880.2 654.789,1880.2 C662.272,1880.2 668.426,1881.64 673.251,1884.52 C678.075,1887.39 680.487,1891.74 680.487,1897.55 C680.487,1901.7 680.054,1904.91 679.188,1907.2 C678.322,1909.49 677.333,1910.88 676.219,1911.38 C675.106,1911.87 674.117,1912.44 673.251,1913.09 C672.385,1913.74 671.952,1914.69 671.952,1915.92"/>
<path class="FiguredBass" d="M660.077,1989.48 C655.5,1989.48 652.454,1991.32 650.939,1995 C649.423,1998.68 648.666,2003.89 648.666,2010.63 L648.666,2021.58 C651.882,2020.28 654.665,2019.6 657.015,2019.54 C665.056,2019.54 671.38,2021.32 675.987,2024.87 C680.595,2028.43 682.899,2033.72 682.899,2040.74 C682.899,2047.76 680.564,2053.06 675.895,2056.65 C671.225,2060.24 664.932,2062.03 657.015,2062.03 C648.913,2062.03 642.574,2058.27 637.997,2050.76 C633.42,2043.24 631.132,2034.32 631.132,2023.99 C631.132,2013.72 633.791,2004.82 639.11,1997.27 C644.429,1989.73 651.418,1985.95 660.077,1985.95 C665.767,1985.95 670.684,1987.39 674.828,1990.27 C678.972,1993.14 681.044,1996.93 681.044,2001.63 C681.044,2004.35 680.054,2006.71 678.075,2008.68 C676.096,2010.66 673.73,2011.65 670.978,2011.65 C668.225,2011.65 665.86,2010.66 663.881,2008.68 C661.901,2006.71 660.912,2004.35 660.912,2001.63 C660.912,1998.97 661.901,1996.62 663.881,1994.58 C664.561,1993.78 665.52,1993.1 666.757,1992.54 C666.447,1991.74 665.829,1991.12 664.901,1990.69 C663.54,1989.88 661.932,1989.48 660.077,1989.48 M664.623,2027.42 C663.509,2024.52 661.066,2023.06 657.294,2023.06 C653.521,2023.06 651.186,2024.52 650.289,2027.42 C649.392,2030.33 648.944,2034.75 648.944,2040.69 C648.944,2047.68 649.392,2052.38 650.289,2054.79 C651.186,2057.2 653.521,2058.41 657.294,2058.41 C661.066,2058.41 663.509,2056.96 664.623,2054.05 C665.736,2051.14 666.293,2046.71 666.293,2040.74 C666.293,2034.77 665.736,2030.33 664.623,2027.42"/>
<path class="FiguredBass" d="M1926.63,1776.4 C1928.98,1776.4 1931.46,1776.06 1934.06,1775.38 L1938.23,1774.27 C1939.04,1774.27 1939.67,1774.58 1940.13,1775.2 C1940.6,1775.82 1940.55,1776.37 1939.99,1776.87 L1896.85,1827.06 L1922.18,1827.06 L1922.18,1807.2 C1922.18,1805.78 1922.57,1804.68 1923.34,1803.91 C1924.11,1803.14 1925.1,1802.52 1926.31,1802.05 C1927.52,1801.59 1929.09,1800.21 1931.04,1797.93 C1932.99,1795.64 1934.86,1792.55 1936.65,1788.65 C1936.96,1788.03 1937.43,1787.72 1938.05,1787.72 C1939.34,1787.72 1939.99,1788.43 1939.99,1789.86 L1939.99,1827.06 L1950.94,1827.06 C1952.49,1827.06 1953.26,1827.77 1953.26,1829.19 C1953.26,1830.74 1952.49,1831.51 1950.94,1831.51 L1939.99,1831.51 L1939.99,1832.72 C1939.99,1836.55 1941.01,1839.89 1943.06,1842.74 C1945.1,1845.58 1947.72,1847 1950.94,1847 C1952.18,1847 1952.8,1847.56 1952.8,1848.67 C1952.8,1849.91 1952.18,1850.53 1950.94,1850.53 C1948.71,1850.53 1945.41,1850.2 1941.01,1849.55 C1936.62,1848.91 1933.3,1848.58 1931.04,1848.58 C1928.78,1848.58 1925.46,1848.91 1921.07,1849.55 C1916.68,1850.2 1913.37,1850.53 1911.14,1850.53 C1909.9,1850.53 1909.29,1849.91 1909.29,1848.67 C1909.29,1847.56 1909.9,1847 1911.14,1847 C1914.36,1847 1917,1845.58 1919.07,1842.74 C1921.15,1839.89 1922.18,1836.55 1922.18,1832.72 L1922.18,1831.51 L1896.85,1831.51 C1895.25,1831.51 1894.06,1831.12 1893.28,1830.35 C1892.51,1829.58 1892.12,1828.79 1892.12,1827.99 C1892.12,1827.68 1892.85,1826.61 1894.3,1824.78 C1895.76,1822.96 1897.53,1820.53 1899.64,1817.5 C1901.74,1814.47 1903.83,1811.02 1905.9,1807.16 C1907.97,1803.29 1909.73,1798.65 1911.19,1793.24 C1912.64,1787.83 1913.37,1782.37 1913.37,1776.87 C1913.37,1775.26 1914.05,1774.45 1915.41,1774.45 C1915.59,1774.45 1916.24,1774.61 1917.36,1774.92 C1918.47,1775.23 1919.89,1775.55 1921.62,1775.89 C1923.36,1776.23 1925.03,1776.4 1926.63,1776.4"/>
<path class="FiguredBass" d="M1939.16,1915.92 C1939.16,1916.91 1939.72,1917.87 1940.83,1918.8 C1941.94,1919.73 1943.16,1920.61 1944.49,1921.44 C1945.82,1922.28 1947.04,1923.85 1948.16,1926.17 C1949.27,1928.49 1949.83,1931.42 1949.83,1934.94 C1949.83,1941.74 1947.26,1947 1942.13,1950.71 C1936.99,1954.42 1930.5,1956.28 1922.65,1956.28 C1916.34,1956.28 1910.85,1954.7 1906.18,1951.55 C1901.51,1948.39 1899.17,1944.25 1899.17,1939.12 C1899.17,1936.39 1900.16,1934.03 1902.14,1932.02 C1904.12,1930.01 1906.49,1929 1909.24,1929 C1911.99,1929 1914.33,1929.99 1916.24,1931.97 C1918.16,1933.95 1919.12,1936.33 1919.12,1939.12 C1919.12,1940.35 1918.1,1941.7 1916.06,1943.15 C1914.02,1944.6 1913,1945.95 1913,1947.19 C1913,1949.1 1913.94,1950.51 1915.83,1951.41 C1917.71,1952.31 1919.99,1952.75 1922.65,1952.75 C1926.11,1952.75 1928.57,1951.04 1930.02,1947.6 C1931.47,1944.17 1932.2,1939.95 1932.2,1934.94 L1932.2,1932.53 C1932.2,1929.19 1932.09,1926.65 1931.88,1924.92 C1931.66,1923.19 1930.98,1921.64 1929.84,1920.28 C1928.69,1918.92 1926.94,1918.24 1924.59,1918.24 L1912.44,1918.24 C1911.02,1918.24 1910.31,1917.47 1910.31,1915.92 C1910.31,1914.5 1911.02,1913.79 1912.44,1913.79 L1924.59,1913.79 C1927.13,1913.79 1929.11,1912.83 1930.53,1910.91 C1931.03,1910.23 1931.43,1909.12 1931.74,1907.57 C1932.05,1905.53 1932.2,1902.59 1932.2,1898.76 L1932.2,1897.55 C1932.2,1888.34 1928.8,1883.73 1922,1883.73 C1916,1883.73 1913,1885.4 1913,1888.74 C1913,1889.85 1913.91,1891.04 1915.73,1892.31 C1917.56,1893.58 1918.47,1894.77 1918.47,1895.88 C1918.47,1898.3 1917.62,1900.37 1915.92,1902.1 C1914.22,1903.83 1912.15,1904.7 1909.7,1904.7 C1907.26,1904.7 1905.2,1903.83 1903.53,1902.1 C1901.86,1900.37 1901.03,1898.3 1901.03,1895.88 C1901.03,1891.12 1903.1,1887.32 1907.24,1884.47 C1911.39,1881.63 1916.31,1880.2 1922,1880.2 C1929.48,1880.2 1935.63,1881.64 1940.46,1884.52 C1945.28,1887.39 1947.69,1891.74 1947.69,1897.55 C1947.69,1901.7 1947.26,1904.91 1946.4,1907.2 C1945.53,1909.49 1944.54,1910.88 1943.43,1911.38 C1942.31,1911.87 1941.32,1912.44 1940.46,1913.09 C1939.59,1913.74 1939.16,1914.69 1939.16,1915.92"/>
<path class="FiguredBass" d="M1927.28,1989.48 C1922.71,1989.48 1919.66,1991.32 1918.15,1995 C1916.63,1998.68 1915.87,2003.89 1915.87,2010.63 L1915.87,2021.58 C1919.09,2020.28 1921.87,2019.6 1924.22,2019.54 C1932.26,2019.54 1938.59,2021.32 1943.19,2024.87 C1947.8,2028.43 1950.11,2033.72 1950.11,2040.74 C1950.11,2047.76 1947.77,2053.06 1943.1,2056.65 C1938.43,2060.24 1932.14,2062.03 1924.22,2062.03 C1916.12,2062.03 1909.78,2058.27 1905.2,2050.76 C1900.63,2043.24 1898.34,2034.32 1898.34,2023.99 C1898.34,2013.72 1901,2004.82 1906.32,1997.27 C1911.64,1989.73 1918.62,1985.95 1927.28,1985.95 C1932.97,1985.95 1937.89,1987.39 1942.03,1990.27 C1946.18,1993.14 1948.25,1996.93 1948.25,2001.63 C1948.25,2004.35 1947.26,2006.71 1945.28,2008.68 C1943.3,2010.66 1940.94,2011.65 1938.18,2011.65 C1935.43,2011.65 1933.07,2010.66 1931.09,2008.68 C1929.11,2006.71 1928.12,2004.35 1928.12,2001.63 C1928.12,1998.97 1929.11,1996.62 1931.09,1994.58 C1931.77,1993.78 1932.73,1993.1 1933.96,1992.54 C1933.65,1991.74 1933.04,1991.12 1932.11,1990.69 C1930.75,1989.88 1929.14,1989.48 1927.28,1989.48 M1931.83,2027.42 C1930.72,2024.52 1928.27,2023.06 1924.5,2023.06 C1920.73,2023.06 1918.39,2024.52 1917.5,2027.42 C1916.6,2030.33 1916.15,2034.75 1916.15,2040.69 C1916.15,2047.68 1916.6,2052.38 1917.5,2054.79 C1918.39,2057.2 1920.73,2058.41 1924.5,2058.41 C1928.27,2058.41 1930.72,2056.96 1931.83,2054.05 C1932.94,2051.14 1933.5,2046.71 1933.5,2040.74 C1933.5,2034.77 1932.94,2030.33 1931.83,2027.42"/>
<path class="FiguredBass" d="M3094.78,1776.4 C3097.13,1776.4 3099.6,1776.06 3102.2,1775.38 L3106.37,1774.27 C3107.18,1774.27 3107.81,1774.58 3108.28,1775.2 C3108.74,1775.82 3108.69,1776.37 3108.14,1776.87 L3065,1827.06 L3090.33,1827.06 L3090.33,1807.2 C3090.33,1805.78 3090.71,1804.68 3091.48,1803.91 C3092.26,1803.14 3093.25,1802.52 3094.45,1802.05 C3095.66,1801.59 3097.24,1800.21 3099.18,1797.93 C3101.13,1795.64 3103,1792.55 3104.8,1788.65 C3105.11,1788.03 3105.57,1787.72 3106.19,1787.72 C3107.49,1787.72 3108.14,1788.43 3108.14,1789.86 L3108.14,1827.06 L3119.08,1827.06 C3120.63,1827.06 3121.4,1827.77 3121.4,1829.19 C3121.4,1830.74 3120.63,1831.51 3119.08,1831.51 L3108.14,1831.51 L3108.14,1832.72 C3108.14,1836.55 3109.16,1839.89 3111.2,1842.74 C3113.24,1845.58 3115.87,1847 3119.08,1847 C3120.32,1847 3120.94,1847.56 3120.94,1848.67 C3120.94,1849.91 3120.32,1850.53 3119.08,1850.53 C3116.86,1850.53 3113.55,1850.2 3109.16,1849.55 C3104.77,1848.91 3101.44,1848.58 3099.18,1848.58 C3096.93,1848.58 3093.6,1848.91 3089.21,1849.55 C3084.82,1850.2 3081.51,1850.53 3079.29,1850.53 C3078.05,1850.53 3077.43,1849.91 3077.43,1848.67 C3077.43,1847.56 3078.05,1847 3079.29,1847 C3082.5,1847 3085.15,1845.58 3087.22,1842.74 C3089.29,1839.89 3090.33,1836.55 3090.33,1832.72 L3090.33,1831.51 L3065,1831.51 C3063.39,1831.51 3062.2,1831.12 3061.43,1830.35 C3060.65,1829.58 3060.27,1828.79 3060.27,1827.99 C3060.27,1827.68 3060.99,1826.61 3062.45,1824.78 C3063.9,1822.96 3065.68,1820.53 3067.78,1817.5 C3069.88,1814.47 3071.97,1811.02 3074.04,1807.16 C3076.12,1803.29 3077.88,1798.65 3079.33,1793.24 C3080.78,1787.83 3081.51,1782.37 3081.51,1776.87 C3081.51,1775.26 3082.19,1774.45 3083.55,1774.45 C3083.74,1774.45 3084.39,1774.61 3085.5,1774.92 C3086.61,1775.23 3088.04,1775.55 3089.77,1775.89 C3091.5,1776.23 3093.17,1776.4 3094.78,1776.4"/>
<path class="FiguredBass" d="M3099.6,1956.28 C3093.6,1956.28 3089.24,1954.61 3086.52,1951.27 C3085.53,1950.03 3084.26,1948.89 3082.72,1947.84 C3081.17,1946.79 3079.47,1946.26 3077.62,1946.26 C3075.2,1946.26 3073.04,1947.02 3071.12,1948.53 C3069.2,1950.05 3068.24,1952.07 3068.24,1954.61 C3068.24,1955.72 3067.69,1956.28 3066.58,1956.28 C3065.34,1956.28 3064.72,1955.72 3064.72,1954.61 C3064.72,1950.84 3065.6,1947.39 3067.36,1944.26 C3069.13,1941.14 3071.34,1938.51 3074,1936.38 C3076.66,1934.25 3079.53,1931.96 3082.62,1929.51 C3085.72,1927.07 3088.58,1924.71 3091.21,1922.42 C3093.83,1920.13 3096.03,1917.24 3097.79,1913.74 C3099.56,1910.25 3100.44,1906.43 3100.44,1902.28 C3100.44,1897.09 3099.59,1892.7 3097.89,1889.11 C3096.19,1885.52 3093.51,1883.73 3089.86,1883.73 C3087.76,1883.73 3085.93,1884.24 3084.39,1885.26 C3082.84,1886.28 3082.07,1887.63 3082.07,1889.3 C3082.07,1890.6 3082.95,1892.3 3084.71,1894.4 C3086.47,1896.5 3087.36,1898.26 3087.36,1899.69 C3087.36,1902.66 3086.35,1905.15 3084.34,1907.16 C3082.33,1909.17 3079.9,1910.17 3077.06,1910.17 C3074.09,1910.17 3071.6,1909.13 3069.59,1907.06 C3067.58,1904.99 3066.58,1902.53 3066.58,1899.69 C3066.58,1894 3068.85,1889.33 3073.39,1885.68 C3077.94,1882.03 3083.43,1880.2 3089.86,1880.2 C3097.47,1880.2 3104.1,1882.26 3109.76,1886.37 C3115.42,1890.49 3118.25,1895.79 3118.25,1902.28 C3118.25,1906.68 3117.46,1910.48 3115.88,1913.7 C3114.31,1916.91 3112.05,1919.51 3109.11,1921.49 C3106.17,1923.47 3103.24,1925.15 3100.3,1926.55 C3097.36,1927.94 3093.91,1929.44 3089.95,1931.04 C3086,1932.65 3082.81,1934.23 3080.4,1935.78 C3081.7,1935.47 3083.03,1935.31 3084.39,1935.31 C3088.96,1935.31 3093.73,1936.8 3098.67,1939.77 C3103.62,1942.73 3107.52,1944.22 3110.36,1944.22 C3111.97,1944.22 3113.29,1943.92 3114.31,1943.34 C3115.33,1942.75 3115.99,1942.1 3116.3,1941.39 C3116.61,1940.68 3116.97,1940.01 3117.37,1939.39 C3117.77,1938.78 3118.22,1938.47 3118.71,1938.47 C3119.95,1938.47 3120.57,1939.08 3120.57,1940.32 C3120.57,1942.98 3118.65,1946.31 3114.82,1950.3 C3110.98,1954.28 3105.91,1956.28 3099.6,1956.28"/>
<path class="FiguredBass" d="M3095.43,1989.48 C3090.85,1989.48 3087.8,1991.32 3086.29,1995 C3084.77,1998.68 3084.02,2003.89 3084.02,2010.63 L3084.02,2021.58 C3087.23,2020.28 3090.02,2019.6 3092.37,2019.54 C3100.41,2019.54 3106.73,2021.32 3111.34,2024.87 C3115.95,2028.43 3118.25,2033.72 3118.25,2040.74 C3118.25,2047.76 3115.92,2053.06 3111.25,2056.65 C3106.58,2060.24 3100.28,2062.03 3092.37,2062.03 C3084.26,2062.03 3077.92,2058.27 3073.35,2050.76 C3068.77,2043.24 3066.48,2034.32 3066.48,2023.99 C3066.48,2013.72 3069.14,2004.82 3074.46,1997.27 C3079.78,1989.73 3086.77,1985.95 3095.43,1985.95 C3101.12,1985.95 3106.03,1987.39 3110.18,1990.27 C3114.32,1993.14 3116.39,1996.93 3116.39,2001.63 C3116.39,2004.35 3115.4,2006.71 3113.43,2008.68 C3111.45,2010.66 3109.08,2011.65 3106.33,2011.65 C3103.58,2011.65 3101.21,2010.66 3099.23,2008.68 C3097.25,2006.71 3096.26,2004.35 3096.26,2001.63 C3096.26,1998.97 3097.25,1996.62 3099.23,1994.58 C3099.91,1993.78 3100.87,1993.1 3102.11,1992.54 C3101.8,1991.74 3101.18,1991.12 3100.25,1990.69 C3098.89,1989.88 3097.28,1989.48 3095.43,1989.48 M3099.97,2027.42 C3098.86,2024.52 3096.42,2023.06 3092.64,2023.06 C3088.87,2023.06 3086.54,2024.52 3085.64,2027.42 C3084.74,2030.33 3084.29,2034.75 3084.29,2040.69 C3084.29,2047.68 3084.74,2052.38 3085.64,2054.79 C3086.54,2057.2 3088.87,2058.41 3092.64,2058.41 C3096.42,2058.41 3098.86,2056.96 3099.97,2054.05 C3101.09,2051.14 3101.64,2046.71 3101.64,2040.74 C3101.64,2034.77 3101.09,2030.33 3099.97,2027.42"/>
<polyline class="FretDiagram" stroke="#fc0107" stroke-width="4.76" stroke-linejoin="bevel" points="556.458,206.022 769.566,206.022"/>
<polyline class="FretDiagram" stroke="#fc0107" stroke-width="4.76" stroke-linejoin="bevel" points="558.839,194.117 558.839,420.321"/>
<polyline class="FretDiagram" stroke="#fc0107" stroke-width="4.76" stroke-linejoin="bevel" points="600.508,194.117 600.508,420.321"/>
<polyline class="FretDiagram" stroke="#fc0107" stroke-width="4.76" stroke-linejoin="bevel" points="642.177,194.117 642.177,420.321"/>
<polyline class="FretDiagram" stroke="#fc0107" stroke-width="4.76" stroke-linejoin="bevel" points="683.847,194.117 683.847,420.321"/>
<polyline class="FretDiagram" stroke="#fc0107" stroke-width="4.76" stroke-linejoin="bevel" points="725.516,194.117 725.516,420.321"/>
<polyline class="FretDiagram" stroke="#fc0107" stroke-width="4.76" stroke-linejoin="bevel" points="767.185,194.117 767.185,420.321"/>
<polyline class="FretDiagram" stroke="#fc0107" stroke-width="4.76" stroke-linejoin="bevel" points="558.839,253.644 767.185,253.644"/>
<polyline class="FretDiagram" stroke="#fc0107" stroke-width="4.76" stroke-linejoin="bevel" points="558.839,301.266 767.185,301.266"/>
<polyline class="FretDiagram" stroke="#fc0107" stroke-width="4.76" stroke-linejoin="bevel" points="558.839,348.888 767.185,348.888"/>
<polyline class="FretDiagram" stroke="#fc0107" stroke-width="4.76" stroke-linejoin="bevel" points="558.839,396.51 767.185,396.51"/>
<path class="FretDiagram" fill="#fc0107" fill-rule="evenodd" d="M656.762,277.455 C656.762,285.51 650.232,292.039 642.177,292.039 C634.123,292.039 627.593,285.51 627.593,277.455 C627.593,269.401 634.123,262.871 642.177,262.871 C650.232,262.871 656.762,269.401 656.762,277.455"/>
<path class="FretDiagram" fill="#fc0107" fill-rule="evenodd" d="M698.431,372.699 C698.431,380.754 691.901,387.284 683.847,387.284 C675.792,387.284 669.262,380.754 669.262,372.699 C669.262,364.645 675.792,358.115 683.847,358.115 C691.901,358.115 698.431,364.645 698.431,372.699"/>
<path class="FretDiagram" fill="#fc0107" fill-rule="evenodd" d="M740.1,229.833 C740.1,237.888 733.571,244.417 725.516,244.417 C717.461,244.417 710.932,237.888 710.932,229.833 C710.932,221.778 717.461,215.249 725.516,215.249 C733.571,215.249 740.1,221.778 740.1,229.833"/>
<path class="FretDiagram" fill="#fc0107" fill-rule="evenodd" d="M781.769,325.077 C781.769,333.132 775.24,339.661 767.185,339.661 C759.13,339.661 752.601,333.132 752.601,325.077 C752.601,317.023 759.13,310.493 767.185,310.493 C775.24,310.493 781.769,317.023 781.769,325.077"/>
<polyline class="FretDiagram" fill="none" stroke="#fc0107" stroke-width="6.86" stroke-linecap="round" stroke-linejoin="bevel" points="542.171,141.732 575.506,175.068"/>
<polyline class="FretDiagram" fill="none" stroke="#fc0107" stroke-width="6.86" stroke-linecap="round" stroke-linejoin="bevel" points="542.171,175.068 575.506,141.732"/>
<polyline class="FretDiagram" fill="none" stroke="#fc0107" stroke-width="6.86" stroke-linecap="round" stroke-linejoin="bevel" points="583.84,141.732 617.176,175.068"/>
<polyline class="FretDiagram" fill="none" stroke="#fc0107" stroke-width="6.86" stroke-linecap="round" stroke-linejoin="bevel" points="583.84,175.068 617.176,141.732"/>
<path class="FretDiagram" fill="#fc0107" d="M534.59,195.73 L534.59,203.995 L506.565,203.995 L503.905,222.805 C507.642,220.081 511.79,218.72 516.35,218.72 C522.81,218.72 528.051,220.794 532.072,224.942 C536.094,229.09 538.105,234.49 538.105,241.14 C538.105,248.233 535.952,254.028 531.645,258.525 C527.338,263.021 521.797,265.27 515.02,265.27 C512.423,265.27 510.032,264.985 507.847,264.415 C505.662,263.845 503.857,263.164 502.432,262.372 C501.007,261.58 499.709,260.535 498.537,259.237 C497.366,257.939 496.479,256.799 495.877,255.817 C495.276,254.835 494.706,253.6 494.167,252.112 C493.629,250.624 493.297,249.595 493.17,249.025 C493.043,248.455 492.885,247.631 492.695,246.555 L501.055,246.555 C503.018,254.091 507.61,257.86 514.83,257.86 C519.39,257.86 522.984,256.466 525.612,253.68 C528.241,250.893 529.555,247.093 529.555,242.28 C529.555,237.276 528.225,233.334 525.565,230.452 C522.905,227.57 519.327,226.13 514.83,226.13 C512.233,226.13 510.017,226.589 508.18,227.507 C506.343,228.425 504.443,230.056 502.48,232.4 L494.785,232.4 L499.82,195.73 L534.59,195.73 "/>
<polyline class="FretDiagram" fill="#fc0107" stroke="#fc0107" stroke-width="4.76" stroke-linejoin="bevel" points="1823.66,240.325 2036.77,240.325"/>
<polyline class="FretDiagram" fill="#fc0107" stroke="#fc0107" stroke-width="4.76" stroke-linejoin="bevel" points="1826.05,228.419 1826.05,454.624"/>
<polyline class="FretDiagram" fill="#fc0107" stroke="#fc0107" stroke-width="4.76" stroke-linejoin="bevel" points="1867.71,228.419 1867.71,454.624"/>
<polyline class="FretDiagram" fill="#fc0107" stroke="#fc0107" stroke-width="4.76" stroke-linejoin="bevel" points="1909.38,228.419 1909.38,454.624"/>
<polyline class="FretDiagram" fill="#fc0107" stroke="#fc0107" stroke-width="4.76" stroke-linejoin="bevel" points="1951.05,228.419 1951.05,454.624"/>
<polyline class="FretDiagram" fill="#fc0107" stroke="#fc0107" stroke-width="4.76" stroke-linejoin="bevel" points="1992.72,228.419 1992.72,454.624"/>
<polyline class="FretDiagram" fill="#fc0107" stroke="#fc0107" stroke-width="4.76" stroke-linejoin="bevel" points="2034.39,228.419 2034.39,454.624"/>
<polyline class="FretDiagram" fill="#fc0107" stroke="#fc0107" stroke-width="4.76" stroke-linejoin="bevel" points="1826.05,287.947 2034.39,287.947"/>
<polyline class="FretDiagram" fill="#fc0107" stroke="#fc0107" stroke-width="4.76" stroke-linejoin="bevel" points="1826.05,335.569 2034.39,335.569"/>
<polyline class="FretDiagram" fill="#fc0107" stroke="#fc0107" stroke-width="4.76" stroke-linejoin="bevel" points="1826.05,383.191 2034.39,383.191"/>
<polyline class="FretDiagram" fill="#fc0107" stroke="#fc0107" stroke-width="4.76" stroke-linejoin="bevel" points="1826.05,430.813 2034.39,430.813"/>
<path class="FretDiagram" fill="#fc0107" fill-rule="evenodd" d="M1923.97,264.136 C1923.97,272.191 1917.44,278.72 1909.38,278.72 C1901.33,278.72 1894.8,272.191 1894.8,264.136 C1894.8,256.081 1901.33,249.552 1909.38,249.552 C1917.44,249.552 1923.97,256.081 1923.97,264.136"/>
<path class="FretDiagram" fill="#fc0107" fill-rule="evenodd" d="M1965.64,311.758 C1965.64,319.813 1959.11,326.342 1951.05,326.342 C1943,326.342 1936.47,319.813 1936.47,311.758 C1936.47,303.703 1943,297.174 1951.05,297.174 C1959.11,297.174 1965.64,303.703 1965.64,311.758"/>
<path class="FretDiagram" fill="#fc0107" fill-rule="evenodd" d="M2007.31,264.136 C2007.31,272.191 2000.78,278.72 1992.72,278.72 C1984.67,278.72 1978.14,272.191 1978.14,264.136 C1978.14,256.081 1984.67,249.552 1992.72,249.552 C2000.78,249.552 2007.31,256.081 2007.31,264.136"/>
<path class="FretDiagram" fill="#fc0107" fill-rule="evenodd" d="M2048.98,311.758 C2048.98,319.813 2042.45,326.342 2034.39,326.342 C2026.34,326.342 2019.81,319.813 2019.81,311.758 C2019.81,303.703 2026.34,297.174 2034.39,297.174 C2042.45,297.174 2048.98,303.703 2048.98,311.758"/>
<polyline class="FretDiagram" fill="none" stroke="#fc0107" stroke-width="6.86" stroke-linecap="round" stroke-linejoin="bevel" points="1809.38,176.035 1842.71,209.371"/>
<polyline class="FretDiagram" fill="none" stroke="#fc0107" stroke-width="6.86" stroke-linecap="round" stroke-linejoin="bevel" points="1809.38,209.371 1842.71,176.035"/>
<polyline class="FretDiagram" fill="none" stroke="#fc0107" stroke-width="6.86" stroke-linecap="round" stroke-linejoin="bevel" points="1851.05,176.035 1884.38,209.371"/>
<polyline class="FretDiagram" fill="none" stroke="#fc0107" stroke-width="6.86" stroke-linecap="round" stroke-linejoin="bevel" points="1851.05,209.371 1884.38,176.035"/>
<path class="FretDiagram" fill="#fc0107" d="M1801.8,230.032 L1801.8,238.297 L1773.77,238.297 L1771.11,257.107 C1774.85,254.384 1779,253.022 1783.56,253.022 C1790.02,253.022 1795.26,255.097 1799.28,259.245 C1803.3,263.393 1805.31,268.792 1805.31,275.442 C1805.31,282.536 1803.16,288.331 1798.85,292.827 C1794.55,297.324 1789,299.572 1782.23,299.572 C1779.63,299.572 1777.24,299.287 1775.05,298.717 C1772.87,298.147 1771.06,297.467 1769.64,296.675 C1768.21,295.883 1766.92,294.838 1765.74,293.54 C1764.57,292.242 1763.69,291.102 1763.08,290.12 C1762.48,289.138 1761.91,287.903 1761.37,286.415 C1760.84,284.927 1760.5,283.897 1760.38,283.327 C1760.25,282.757 1760.09,281.934 1759.9,280.857 L1768.26,280.857 C1770.23,288.394 1774.82,292.162 1782.04,292.162 C1786.6,292.162 1790.19,290.769 1792.82,287.982 C1795.45,285.196 1796.76,281.396 1796.76,276.582 C1796.76,271.579 1795.43,267.637 1792.77,264.755 C1790.11,261.873 1786.53,260.432 1782.04,260.432 C1779.44,260.432 1777.22,260.892 1775.39,261.81 C1773.55,262.728 1771.65,264.359 1769.69,266.702 L1761.99,266.702 L1767.03,230.032 L1801.8,230.032 "/>
<polyline class="FretDiagram" fill="#fc0107" stroke="#fc0107" stroke-width="4.76" stroke-linejoin="bevel" points="2991.81,240.325 3204.92,240.325"/>
<polyline class="FretDiagram" fill="#fc0107" stroke="#fc0107" stroke-width="4.76" stroke-linejoin="bevel" points="2994.19,228.419 2994.19,454.624"/>
<polyline class="FretDiagram" fill="#fc0107" stroke="#fc0107" stroke-width="4.76" stroke-linejoin="bevel" points="3035.86,228.419 3035.86,454.624"/>
<polyline class="FretDiagram" fill="#fc0107" stroke="#fc0107" stroke-width="4.76" stroke-linejoin="bevel" points="3077.53,228.419 3077.53,454.624"/>
<polyline class="FretDiagram" fill="#fc0107" stroke="#fc0107" stroke-width="4.76" stroke-linejoin="bevel" points="3119.2,228.419 3119.2,454.624"/>
<polyline class="FretDiagram" fill="#fc0107" stroke="#fc0107" stroke-width="4.76" stroke-linejoin="bevel" points="3160.87,228.419 3160.87,454.624"/>
<polyline class="FretDiagram" fill="#fc0107" stroke="#fc0107" stroke-width="4.76" stroke-linejoin="bevel" points="3202.54,228.419 3202.54,454.624"/>
<polyline class="FretDiagram" fill="#fc0107" stroke="#fc0107" stroke-width="4.76" stroke-linejoin="bevel" points="2994.19,287.947 3202.54,287.947"/>
<polyline class="FretDiagram" fill="#fc0107" stroke="#fc0107" stroke-width="4.76" stroke-linejoin="bevel" points="2994.19,335.569 3202.54,335.569"/>
<polyline class="FretDiagram" fill="#fc0107" stroke="#fc0107" stroke-width="4.76" stroke-linejoin="bevel" points="2994.19,383.191 3202.54,383.191"/>
<polyline class="FretDiagram" fill="#fc0107" stroke="#fc0107" stroke-width="4.76" stroke-linejoin="bevel" points="2994.19,430.813 3202.54,430.813"/>
<path class="FretDiagram" fill="#fc0107" fill-rule="evenodd" d="M3133.78,359.38 C3133.78,367.435 3127.25,373.964 3119.2,373.964 C3111.14,373.964 3104.61,367.435 3104.61,359.38 C3104.61,351.325 3111.14,344.796 3119.2,344.796 C3127.25,344.796 3133.78,351.325 3133.78,359.38"/>
<polyline class="FretDiagram" fill="none" stroke="#fc0107" stroke-width="6.86" stroke-linecap="round" stroke-linejoin="bevel" points="2977.52,176.035 3010.86,209.371"/>
<polyline class="FretDiagram" fill="none" stroke="#fc0107" stroke-width="6.86" stroke-linecap="round" stroke-linejoin="bevel" points="2977.52,209.371 3010.86,176.035"/>
<polyline class="FretDiagram" fill="none" stroke="#fc0107" stroke-width="6.86" stroke-linecap="round" stroke-linejoin="bevel" points="3019.19,176.035 3052.53,209.371"/>
<polyline class="FretDiagram" fill="none" stroke="#fc0107" stroke-width="6.86" stroke-linecap="round" stroke-linejoin="bevel" points="3019.19,209.371 3052.53,176.035"/>
<path class="FretDiagram" fill="none" stroke="#fc0107" stroke-width="6.86" stroke-linecap="round" stroke-linejoin="bevel" fill-rule="evenodd" d="M3094.2,192.703 C3094.2,201.908 3086.73,209.371 3077.53,209.371 C3068.32,209.371 3060.86,201.908 3060.86,192.703 C3060.86,183.498 3068.32,176.035 3077.53,176.035 C3086.73,176.035 3094.2,183.498 3094.2,192.703"/>
<path class="FretDiagram" fill="none" stroke="#fc0107" stroke-width="6.86" stroke-linecap="round" stroke-linejoin="bevel" fill-rule="evenodd" d="M3177.53,192.703 C3177.53,201.908 3170.07,209.371 3160.87,209.371 C3151.66,209.371 3144.2,201.908 3144.2,192.703 C3144.2,183.498 3151.66,176.035 3160.87,176.035 C3170.07,176.035 3177.53,183.498 3177.53,192.703"/>
<path class="FretDiagram" fill="none" stroke="#fc0107" stroke-width="6.86" stroke-linecap="round" stroke-linejoin="bevel" fill-rule="evenodd" d="M3219.2,192.703 C3219.2,201.908 3211.74,209.371 3202.54,209.371 C3193.33,209.371 3185.87,201.908 3185.87,192.703 C3185.87,183.498 3193.33,176.035 3202.54,176.035 C3211.74,176.035 3219.2,183.498 3219.2,192.703"/>
<polyline class="FretDiagram" fill="none" stroke="#fc0107" stroke-width="29.17" stroke-linecap="round" stroke-linejoin="bevel" points="3077.53,264.136 3202.54,264.136"/>
<path class="FretDiagram" fill="#fc0107" d="M2969.94,230.032 L2969.94,238.297 L2941.92,238.297 L2939.26,257.107 C2942.99,254.384 2947.14,253.022 2951.7,253.022 C2958.16,253.022 2963.4,255.097 2967.42,259.245 C2971.44,263.393 2973.46,268.792 2973.46,275.442 C2973.46,282.536 2971.3,288.331 2967,292.827 C2962.69,297.324 2957.15,299.572 2950.37,299.572 C2947.77,299.572 2945.38,299.287 2943.2,298.717 C2941.01,298.147 2939.21,297.467 2937.78,296.675 C2936.36,295.883 2935.06,294.838 2933.89,293.54 C2932.72,292.242 2931.83,291.102 2931.23,290.12 C2930.63,289.138 2930.06,287.903 2929.52,286.415 C2928.98,284.927 2928.65,283.897 2928.52,283.327 C2928.39,282.757 2928.24,281.934 2928.05,280.857 L2936.41,280.857 C2938.37,288.394 2942.96,292.162 2950.18,292.162 C2954.74,292.162 2958.33,290.769 2960.96,287.982 C2963.59,285.196 2964.91,281.396 2964.91,276.582 C2964.91,271.579 2963.58,267.637 2960.92,264.755 C2958.26,261.873 2954.68,260.432 2950.18,260.432 C2947.58,260.432 2945.37,260.892 2943.53,261.81 C2941.69,262.728 2939.79,264.359 2937.83,266.702 L2930.14,266.702 L2935.17,230.032 L2969.94,230.032 "/>
<path class="Bracket" transform="matrix(8.6315,0,0,10.3419,76.1283,2438.87)" d="M0.92002,-50 C2.69004,-51.88 6.2,-55.8 6.2,-63 C6.2,-72.1 2.25996,-81.32 2.25996,-86.97 C2.25996,-93.06 5.84004,-98.84 5.95,-99 C6.05996,-99.16 6.05,-99.39 5.94004,-99.46 C5.82998,-99.53 5.62002,-99.47 5.49004,-99.32 C5.35996,-99.17 0,-93.75 0,-85.6 C0,-76.75 3.5,-70.58 3.5,-59.07 C3.5,-56.89 2.55996,-53.36 0.1,-50.33 C-0.0799805,-50.17 -0.1,-49.89 0.0599609,-49.7 L0.0700195,-49.69 L0.1,-49.66 C2.55996,-46.63 3.5,-43.1 3.5,-40.92 C3.5,-29.4 0,-23.24 0,-14.39 C0,-6.25 5.35996,-0.8 5.49004,-0.659961 C5.62002,-0.52002 5.8,-0.42998 5.94004,-0.52002 C6.07998,-0.609961 6.07998,-0.77998 5.95,-0.97998 C5.82002,-1.17998 2.25996,-6.92002 2.25996,-13.01 C2.25996,-18.66 6.2,-27.9 6.2,-37 C6.2,-44.3 2.69004,-48.12 0.92002,-50"/>
</svg>
