<?xml version="1.0" encoding="UTF-8" standalone="no"?>
<svg width="4209.44px" height="2976.38px" viewBox="0 0 4209.44 2976.38"
 xmlns="http://www.w3.org/2000/svg" xmlns:xlink="http://www.w3.org/1999/xlink" version="1.2" baseProfile="tiny">
<title>Cordes (10)</title>
<desc>Generated by MuseScore 3.6.2</desc>
<polyline class="StaffLines" fill="none" stroke="#000000" stroke-width="6.55" stroke-linejoin="bevel" points="153.819,566.759 4138.58,566.759"/>
<polyline class="StaffLines" fill="none" stroke="#000000" stroke-width="6.55" stroke-linejoin="bevel" points="153.819,656.05 4138.58,656.05"/>
<polyline class="StaffLines" fill="none" stroke="#000000" stroke-width="6.55" stroke-linejoin="bevel" points="153.819,745.342 4138.58,745.342"/>
<polyline class="StaffLines" fill="none" stroke="#000000" stroke-width="6.55" stroke-linejoin="bevel" points="153.819,834.633 4138.58,834.633"/>
<polyline class="StaffLines" fill="none" stroke="#000000" stroke-width="6.55" stroke-linejoin="bevel" points="153.819,923.924 4138.58,923.924"/>
<polyline class="StaffLines" fill="none" stroke="#000000" stroke-width="6.55" stroke-linejoin="bevel" points="153.819,1013.22 4138.58,1013.22"/>
<polyline class="StaffLines" fill="none" stroke="#000000" stroke-width="6.55" stroke-linejoin="bevel" points="153.819,1400.14 4138.58,1400.14"/>
<polyline class="StaffLines" fill="none" stroke="#000000" stroke-width="6.55" stroke-linejoin="bevel" points="153.819,1459.67 4138.58,1459.67"/>
<polyline class="StaffLines" fill="none" stroke="#000000" stroke-width="6.55" stroke-linejoin="bevel" points="153.819,1519.2 4138.58,1519.2"/>
<polyline class="StaffLines" fill="none" stroke="#000000" stroke-width="6.55" stroke-linejoin="bevel" points="153.819,1578.73 4138.58,1578.73"/>
<polyline class="StaffLines" fill="none" stroke="#000000" stroke-width="6.55" stroke-linejoin="bevel" points="153.819,1638.26 4138.58,1638.26"/>
<polyline class="StaffLines" fill="none" stroke="#000000" stroke-width="6.55" stroke-linejoin="bevel" points="153.819,2107.6 4138.58,2107.6"/>
<polyline class="StaffLines" fill="none" stroke="#000000" stroke-width="6.55" stroke-linejoin="bevel" points="153.819,2167.13 4138.58,2167.13"/>
<polyline class="StaffLines" fill="none" stroke="#000000" stroke-width="6.55" stroke-linejoin="bevel" points="153.819,2226.65 4138.58,2226.65"/>
<polyline class="StaffLines" fill="none" stroke="#000000" stroke-width="6.55" stroke-linejoin="bevel" points="153.819,2286.18 4138.58,2286.18"/>
<polyline class="StaffLines" fill="none" stroke="#000000" stroke-width="6.55" stroke-linejoin="bevel" points="153.819,2345.71 4138.58,2345.71"/>
<path class="Symbol" transform="matrix(2.3811,0,0,2.3811,571.246,864.397)" d="M0,-0.1 C0,7.7 4,14 10.4,18.1 L10.9,17.4 C7.5,14.8 6.3,13.3 5.2,10.1 C4.2,7.2 3.7,4 3.7,-0.2 C3.7,-8.1 4.8,-12.3 10.9,-17.4 L10.5,-18.1 C3.9,-13.6 0,-8.5 0,-0.1"/>
<path class="Symbol" transform="matrix(2.3811,0,0,2.3811,676.257,864.397)" d="M3.7,-0.2 C3.7,4 3.2,7.2 2.2,10.1 C1,13.3 -0.2,14.8 -3.6,17.4 L-3,18.1 C3.4,14.1 7.3,7.6 7.3,-0.1 C7.3,-8.4 3.4,-13.8 -3.2,-18.1 L-3.6,-17.4 C2.6,-12.4 3.7,-8.1 3.7,-0.2"/>
<polyline class="BarLine" fill="none" stroke="#000000" stroke-width="10.71" stroke-linejoin="bevel" points="159.176,2104.32 159.176,2348.98"/>
<polyline class="BarLine" fill="none" stroke="#000000" stroke-width="10.71" stroke-linejoin="bevel" points="1679.3,2104.32 1679.3,2348.98"/>
<polyline class="BarLine" fill="none" stroke="#000000" stroke-width="10.71" stroke-linejoin="bevel" points="1712.04,2104.32 1712.04,2348.98"/>
<polyline class="BarLine" fill="none" stroke="#000000" stroke-width="10.71" stroke-linejoin="bevel" points="2919.98,2104.32 2919.98,2348.98"/>
<polyline class="BarLine" fill="none" stroke="#000000" stroke-width="10.71" stroke-linejoin="bevel" points="4080.54,2104.32 4080.54,2348.98"/>
<polyline class="BarLine" fill="none" stroke="#000000" stroke-width="32.74" stroke-linejoin="bevel" points="4122.21,2104.32 4122.21,2348.98"/>
<polyline class="BarLine" fill="none" stroke="#000000" stroke-width="10.71" stroke-linejoin="bevel" points="159.176,1396.87 159.176,2107.6"/>
<polyline class="BarLine" fill="none" stroke="#000000" stroke-width="10.71" stroke-linejoin="bevel" points="1679.3,1396.87 1679.3,1641.53"/>
<polyline class="BarLine" fill="none" stroke="#000000" stroke-width="10.71" stroke-linejoin="bevel" points="1712.04,1396.87 1712.04,1641.53"/>
<polyline class="BarLine" fill="none" stroke="#000000" stroke-width="10.71" stroke-linejoin="bevel" points="2919.98,1396.87 2919.98,1641.53"/>
<polyline class="BarLine" fill="none" stroke="#000000" stroke-width="10.71" stroke-linejoin="bevel" points="4080.54,1396.87 4080.54,1641.53"/>
<polyline class="BarLine" fill="none" stroke="#000000" stroke-width="32.74" stroke-linejoin="bevel" points="4122.21,1396.87 4122.21,1641.53"/>
<polyline class="BarLine" fill="none" stroke="#000000" stroke-width="10.71" stroke-linejoin="bevel" points="159.176,563.485 159.176,1400.14"/>
<polyline class="BarLine" fill="none" stroke="#000000" stroke-width="10.71" stroke-linejoin="bevel" points="1679.3,563.485 1679.3,1016.49"/>
<polyline class="BarLine" fill="none" stroke="#000000" stroke-width="10.71" stroke-linejoin="bevel" points="1712.04,563.485 1712.04,1016.49"/>
<polyline class="BarLine" fill="none" stroke="#000000" stroke-width="10.71" stroke-linejoin="bevel" points="2919.98,563.485 2919.98,1016.49"/>
<polyline class="BarLine" fill="none" stroke="#000000" stroke-width="10.71" stroke-linejoin="bevel" points="4080.54,563.485 4080.54,1016.49"/>
<polyline class="BarLine" fill="none" stroke="#000000" stroke-width="32.74" stroke-linejoin="bevel" points="4122.21,563.485 4122.21,1016.49"/>
<path class="Accidental" transform="matrix(2.3811,0,0,2.3811,513.384,1608.49)" d="M23.3,-10.6 C23.9,-10.7 24.4,-11.4 24.4,-12 L24.4,-17.9 C24.4,-18.7 23.8,-19.3 23,-19.3 L22.8,-19.3 L19.5,-18.6 L19.5,-33.5 L16.7,-33.5 L16.7,-18 L7.8,-16.2 L7.8,-30.3 L5,-30.3 L5,-15.6 L1.1,-14.8 C0.5,-14.7 0,-14 0,-13.4 L0,-13.2 L0,-7.4 L0,-7.6 C0,-6.8 0.6,-6.2 1.4,-6.2 L1.7,-6.2 L5,-6.9 L5,9.6 L1.1,10.4 C0.5,10.5 0,11.2 0,11.8 L0,17.6 C0,18.4 0.6,19 1.4,19 L1.7,19 L5,18.3 L5,33.2 L7.8,33.2 L7.8,17.7 L16.7,15.9 L16.7,30 L19.5,30 L19.5,15.3 L23.3,14.6 C23.9,14.5 24.4,13.8 24.4,13.2 L24.4,7.3 C24.4,6.5 23.8,5.9 23,5.9 L22.8,5.9 L19.5,6.6 L19.5,-9.9 L23.3,-10.6 M7.8,9.1 L7.8,-7.5 L16.7,-9.3 L16.7,7.2 L7.8,9.1 "/>
<path class="Accidental" transform="matrix(2.3811,0,0,2.3811,1774.91,1400.14)" d="M23.3,-10.6 C23.9,-10.7 24.4,-11.4 24.4,-12 L24.4,-17.9 C24.4,-18.7 23.8,-19.3 23,-19.3 L22.8,-19.3 L19.5,-18.6 L19.5,-33.5 L16.7,-33.5 L16.7,-18 L7.8,-16.2 L7.8,-30.3 L5,-30.3 L5,-15.6 L1.1,-14.8 C0.5,-14.7 0,-14 0,-13.4 L0,-13.2 L0,-7.4 L0,-7.6 C0,-6.8 0.6,-6.2 1.4,-6.2 L1.7,-6.2 L5,-6.9 L5,9.6 L1.1,10.4 C0.5,10.5 0,11.2 0,11.8 L0,17.6 C0,18.4 0.6,19 1.4,19 L1.7,19 L5,18.3 L5,33.2 L7.8,33.2 L7.8,17.7 L16.7,15.9 L16.7,30 L19.5,30 L19.5,15.3 L23.3,14.6 C23.9,14.5 24.4,13.8 24.4,13.2 L24.4,7.3 C24.4,6.5 23.8,5.9 23,5.9 L22.8,5.9 L19.5,6.6 L19.5,-9.9 L23.3,-10.6 M7.8,9.1 L7.8,-7.5 L16.7,-9.3 L16.7,7.2 L7.8,9.1 "/>
<path class="Note" transform="matrix(2.3811,0,0,2.3811,586.361,2226.65)" d="M18.7,-13.6 C4.9,-13.6 0,-6.6 0,-0.1 C0,6.4 4.9,13.4 18.7,13.4 C32.5,13.4 37.3,6.4 37.3,-0.1 C37.3,-6.6 32.5,-13.6 18.7,-13.6 M10.4,-4.5 C10.3,-4.9 10.3,-5.3 10.3,-5.7 C10.3,-6.5 10.5,-7.3 10.9,-8 C11.6,-9 12.8,-9.7 14.3,-10 C15.6,-10.3 16.3,-10.5 18.9,-10.5 L19,-10.5 C23,-10.5 24.3,-6.8 25.4,-3 L25.7,-2 C26.5,0.6 26.9,2.8 26.9,4.5 C26.9,5.7 26.7,6.8 26.3,7.6 C25.7,8.7 24.7,9.4 23,9.8 C22.1,10 20.6,10.1 20.6,10.1 C20.1,10.1 19.7,10.2 19.3,10.2 C16.1,10.2 14.1,9 12.7,4.7 C11.5,1 11.3,-0.1 10.4,-4.5"/>
<path class="Note" transform="matrix(2.3811,0,0,2.3811,1847.89,2226.65)" d="M18.7,-13.6 C4.9,-13.6 0,-6.6 0,-0.1 C0,6.4 4.9,13.4 18.7,13.4 C32.5,13.4 37.3,6.4 37.3,-0.1 C37.3,-6.6 32.5,-13.6 18.7,-13.6 M10.4,-4.5 C10.3,-4.9 10.3,-5.3 10.3,-5.7 C10.3,-6.5 10.5,-7.3 10.9,-8 C11.6,-9 12.8,-9.7 14.3,-10 C15.6,-10.3 16.3,-10.5 18.9,-10.5 L19,-10.5 C23,-10.5 24.3,-6.8 25.4,-3 L25.7,-2 C26.5,0.6 26.9,2.8 26.9,4.5 C26.9,5.7 26.7,6.8 26.3,7.6 C25.7,8.7 24.7,9.4 23,9.8 C22.1,10 20.6,10.1 20.6,10.1 C20.1,10.1 19.7,10.2 19.3,10.2 C16.1,10.2 14.1,9 12.7,4.7 C11.5,1 11.3,-0.1 10.4,-4.5"/>
<path class="Note" transform="matrix(2.3811,0,0,2.3811,3008.45,2226.65)" d="M18.7,-13.6 C4.9,-13.6 0,-6.6 0,-0.1 C0,6.4 4.9,13.4 18.7,13.4 C32.5,13.4 37.3,6.4 37.3,-0.1 C37.3,-6.6 32.5,-13.6 18.7,-13.6 M10.4,-4.5 C10.3,-4.9 10.3,-5.3 10.3,-5.7 C10.3,-6.5 10.5,-7.3 10.9,-8 C11.6,-9 12.8,-9.7 14.3,-10 C15.6,-10.3 16.3,-10.5 18.9,-10.5 L19,-10.5 C23,-10.5 24.3,-6.8 25.4,-3 L25.7,-2 C26.5,0.6 26.9,2.8 26.9,4.5 C26.9,5.7 26.7,6.8 26.3,7.6 C25.7,8.7 24.7,9.4 23,9.8 C22.1,10 20.6,10.1 20.6,10.1 C20.1,10.1 19.7,10.2 19.3,10.2 C16.1,10.2 14.1,9 12.7,4.7 C11.5,1 11.3,-0.1 10.4,-4.5"/>
<path class="Note" transform="matrix(2.3811,0,0,2.3811,586.361,1608.49)" d="M18.7,-13.6 C4.9,-13.6 0,-6.6 0,-0.1 C0,6.4 4.9,13.4 18.7,13.4 C32.5,13.4 37.3,6.4 37.3,-0.1 C37.3,-6.6 32.5,-13.6 18.7,-13.6 M10.4,-4.5 C10.3,-4.9 10.3,-5.3 10.3,-5.7 C10.3,-6.5 10.5,-7.3 10.9,-8 C11.6,-9 12.8,-9.7 14.3,-10 C15.6,-10.3 16.3,-10.5 18.9,-10.5 L19,-10.5 C23,-10.5 24.3,-6.8 25.4,-3 L25.7,-2 C26.5,0.6 26.9,2.8 26.9,4.5 C26.9,5.7 26.7,6.8 26.3,7.6 C25.7,8.7 24.7,9.4 23,9.8 C22.1,10 20.6,10.1 20.6,10.1 C20.1,10.1 19.7,10.2 19.3,10.2 C16.1,10.2 14.1,9 12.7,4.7 C11.5,1 11.3,-0.1 10.4,-4.5"/>
<path class="Note" transform="matrix(2.3811,0,0,2.3811,586.361,1548.96)" d="M18.7,-13.6 C4.9,-13.6 0,-6.6 0,-0.1 C0,6.4 4.9,13.4 18.7,13.4 C32.5,13.4 37.3,6.4 37.3,-0.1 C37.3,-6.6 32.5,-13.6 18.7,-13.6 M10.4,-4.5 C10.3,-4.9 10.3,-5.3 10.3,-5.7 C10.3,-6.5 10.5,-7.3 10.9,-8 C11.6,-9 12.8,-9.7 14.3,-10 C15.6,-10.3 16.3,-10.5 18.9,-10.5 L19,-10.5 C23,-10.5 24.3,-6.8 25.4,-3 L25.7,-2 C26.5,0.6 26.9,2.8 26.9,4.5 C26.9,5.7 26.7,6.8 26.3,7.6 C25.7,8.7 24.7,9.4 23,9.8 C22.1,10 20.6,10.1 20.6,10.1 C20.1,10.1 19.7,10.2 19.3,10.2 C16.1,10.2 14.1,9 12.7,4.7 C11.5,1 11.3,-0.1 10.4,-4.5"/>
<path class="Note" transform="matrix(2.3811,0,0,2.3811,586.361,1459.67)" d="M18.7,-13.6 C4.9,-13.6 0,-6.6 0,-0.1 C0,6.4 4.9,13.4 18.7,13.4 C32.5,13.4 37.3,6.4 37.3,-0.1 C37.3,-6.6 32.5,-13.6 18.7,-13.6 M10.4,-4.5 C10.3,-4.9 10.3,-5.3 10.3,-5.7 C10.3,-6.5 10.5,-7.3 10.9,-8 C11.6,-9 12.8,-9.7 14.3,-10 C15.6,-10.3 16.3,-10.5 18.9,-10.5 L19,-10.5 C23,-10.5 24.3,-6.8 25.4,-3 L25.7,-2 C26.5,0.6 26.9,2.8 26.9,4.5 C26.9,5.7 26.7,6.8 26.3,7.6 C25.7,8.7 24.7,9.4 23,9.8 C22.1,10 20.6,10.1 20.6,10.1 C20.1,10.1 19.7,10.2 19.3,10.2 C16.1,10.2 14.1,9 12.7,4.7 C11.5,1 11.3,-0.1 10.4,-4.5"/>
<path class="Note" transform="matrix(2.3811,0,0,2.3811,1847.89,1548.96)" d="M18.7,-13.6 C4.9,-13.6 0,-6.6 0,-0.1 C0,6.4 4.9,13.4 18.7,13.4 C32.5,13.4 37.3,6.4 37.3,-0.1 C37.3,-6.6 32.5,-13.6 18.7,-13.6 M10.4,-4.5 C10.3,-4.9 10.3,-5.3 10.3,-5.7 C10.3,-6.5 10.5,-7.3 10.9,-8 C11.6,-9 12.8,-9.7 14.3,-10 C15.6,-10.3 16.3,-10.5 18.9,-10.5 L19,-10.5 C23,-10.5 24.3,-6.8 25.4,-3 L25.7,-2 C26.5,0.6 26.9,2.8 26.9,4.5 C26.9,5.7 26.7,6.8 26.3,7.6 C25.7,8.7 24.7,9.4 23,9.8 C22.1,10 20.6,10.1 20.6,10.1 C20.1,10.1 19.7,10.2 19.3,10.2 C16.1,10.2 14.1,9 12.7,4.7 C11.5,1 11.3,-0.1 10.4,-4.5"/>
<path class="Note" transform="matrix(2.3811,0,0,2.3811,1847.89,1459.67)" d="M18.7,-13.6 C4.9,-13.6 0,-6.6 0,-0.1 C0,6.4 4.9,13.4 18.7,13.4 C32.5,13.4 37.3,6.4 37.3,-0.1 C37.3,-6.6 32.5,-13.6 18.7,-13.6 M10.4,-4.5 C10.3,-4.9 10.3,-5.3 10.3,-5.7 C10.3,-6.5 10.5,-7.3 10.9,-8 C11.6,-9 12.8,-9.7 14.3,-10 C15.6,-10.3 16.3,-10.5 18.9,-10.5 L19,-10.5 C23,-10.5 24.3,-6.8 25.4,-3 L25.7,-2 C26.5,0.6 26.9,2.8 26.9,4.5 C26.9,5.7 26.7,6.8 26.3,7.6 C25.7,8.7 24.7,9.4 23,9.8 C22.1,10 20.6,10.1 20.6,10.1 C20.1,10.1 19.7,10.2 19.3,10.2 C16.1,10.2 14.1,9 12.7,4.7 C11.5,1 11.3,-0.1 10.4,-4.5"/>
<path class="Note" transform="matrix(2.3811,0,0,2.3811,1847.89,1400.14)" d="M18.7,-13.6 C4.9,-13.6 0,-6.6 0,-0.1 C0,6.4 4.9,13.4 18.7,13.4 C32.5,13.4 37.3,6.4 37.3,-0.1 C37.3,-6.6 32.5,-13.6 18.7,-13.6 M10.4,-4.5 C10.3,-4.9 10.3,-5.3 10.3,-5.7 C10.3,-6.5 10.5,-7.3 10.9,-8 C11.6,-9 12.8,-9.7 14.3,-10 C15.6,-10.3 16.3,-10.5 18.9,-10.5 L19,-10.5 C23,-10.5 24.3,-6.8 25.4,-3 L25.7,-2 C26.5,0.6 26.9,2.8 26.9,4.5 C26.9,5.7 26.7,6.8 26.3,7.6 C25.7,8.7 24.7,9.4 23,9.8 C22.1,10 20.6,10.1 20.6,10.1 C20.1,10.1 19.7,10.2 19.3,10.2 C16.1,10.2 14.1,9 12.7,4.7 C11.5,1 11.3,-0.1 10.4,-4.5"/>
<path class="Note" transform="matrix(2.3811,0,0,2.3811,3008.45,1548.96)" d="M18.7,-13.6 C4.9,-13.6 0,-6.6 0,-0.1 C0,6.4 4.9,13.4 18.7,13.4 C32.5,13.4 37.3,6.4 37.3,-0.1 C37.3,-6.6 32.5,-13.6 18.7,-13.6 M10.4,-4.5 C10.3,-4.9 10.3,-5.3 10.3,-5.7 C10.3,-6.5 10.5,-7.3 10.9,-8 C11.6,-9 12.8,-9.7 14.3,-10 C15.6,-10.3 16.3,-10.5 18.9,-10.5 L19,-10.5 C23,-10.5 24.3,-6.8 25.4,-3 L25.7,-2 C26.5,0.6 26.9,2.8 26.9,4.5 C26.9,5.7 26.7,6.8 26.3,7.6 C25.7,8.7 24.7,9.4 23,9.8 C22.1,10 20.6,10.1 20.6,10.1 C20.1,10.1 19.7,10.2 19.3,10.2 C16.1,10.2 14.1,9 12.7,4.7 C11.5,1 11.3,-0.1 10.4,-4.5"/>
<path class="Note" transform="matrix(2.3811,0,0,2.3811,3008.45,1459.67)" d="M18.7,-13.6 C4.9,-13.6 0,-6.6 0,-0.1 C0,6.4 4.9,13.4 18.7,13.4 C32.5,13.4 37.3,6.4 37.3,-0.1 C37.3,-6.6 32.5,-13.6 18.7,-13.6 M10.4,-4.5 C10.3,-4.9 10.3,-5.3 10.3,-5.7 C10.3,-6.5 10.5,-7.3 10.9,-8 C11.6,-9 12.8,-9.7 14.3,-10 C15.6,-10.3 16.3,-10.5 18.9,-10.5 L19,-10.5 C23,-10.5 24.3,-6.8 25.4,-3 L25.7,-2 C26.5,0.6 26.9,2.8 26.9,4.5 C26.9,5.7 26.7,6.8 26.3,7.6 C25.7,8.7 24.7,9.4 23,9.8 C22.1,10 20.6,10.1 20.6,10.1 C20.1,10.1 19.7,10.2 19.3,10.2 C16.1,10.2 14.1,9 12.7,4.7 C11.5,1 11.3,-0.1 10.4,-4.5"/>
<path class="Note" transform="matrix(2.3811,0,0,2.3811,3008.45,1400.14)" d="M18.7,-13.6 C4.9,-13.6 0,-6.6 0,-0.1 C0,6.4 4.9,13.4 18.7,13.4 C32.5,13.4 37.3,6.4 37.3,-0.1 C37.3,-6.6 32.5,-13.6 18.7,-13.6 M10.4,-4.5 C10.3,-4.9 10.3,-5.3 10.3,-5.7 C10.3,-6.5 10.5,-7.3 10.9,-8 C11.6,-9 12.8,-9.7 14.3,-10 C15.6,-10.3 16.3,-10.5 18.9,-10.5 L19,-10.5 C23,-10.5 24.3,-6.8 25.4,-3 L25.7,-2 C26.5,0.6 26.9,2.8 26.9,4.5 C26.9,5.7 26.7,6.8 26.3,7.6 C25.7,8.7 24.7,9.4 23,9.8 C22.1,10 20.6,10.1 20.6,10.1 C20.1,10.1 19.7,10.2 19.3,10.2 C16.1,10.2 14.1,9 12.7,4.7 C11.5,1 11.3,-0.1 10.4,-4.5"/>
<path class="Note" d="M680.055,926.687 C684.394,923.743 687.531,921.302 689.468,919.365 C693.032,915.569 694.814,912.083 694.814,908.906 C694.814,905.265 692.8,903.444 688.771,903.444 C680.946,903.444 672.579,910.34 663.669,924.13 C660.958,928.313 654.992,941.949 645.773,965.036 C653.133,972.629 656.813,976.928 656.813,977.936 C656.813,979.33 655.922,980.027 654.14,980.027 C652.746,980.027 648.911,977.664 642.635,972.938 C635.818,988.821 625.475,1002.38 611.607,1013.61 C597.429,1025.08 580.501,1030.81 560.823,1030.81 C553.308,1030.81 543.895,1029.07 532.583,1025.58 C523.519,1022.79 518.987,1018.34 518.987,1012.22 C518.987,1003.15 522.473,998.621 529.446,998.621 C533.629,998.621 535.721,1000.56 535.721,1004.43 C535.721,1005.67 534.753,1006.99 532.816,1008.38 C531.809,1009.08 531.305,1010.44 531.305,1012.45 C531.305,1014.85 533.978,1017.33 539.324,1019.89 C545.134,1022.68 553.656,1024.07 564.89,1024.07 C579.378,1024.07 593.362,1017.8 606.842,1005.25 C619.083,993.856 627.876,980.608 633.222,965.501 C631.13,963.797 628.884,961.937 626.482,959.923 C619.044,955.507 615.326,950.975 615.326,946.326 C615.326,944.389 616.604,943.421 619.161,943.421 C622.569,943.421 627.179,946.326 632.99,952.137 C634.229,953.376 635.391,954.538 636.476,955.623 C639.188,948.186 643.526,938.734 649.492,927.268 C660.261,906.505 673.354,896.123 688.771,896.123 C694.272,896.123 698.61,897.169 701.787,899.261 C704.963,901.353 706.551,904.219 706.551,907.86 C706.551,913.671 704.421,918.59 700.16,922.619 C695.744,926.803 691.134,928.895 686.331,928.895 C682.147,928.895 680.055,928.159 680.055,926.687"/>
<path class="Note" d="M620.904,650.869 C617.108,650.869 615.209,646.801 615.209,638.667 L615.209,604.617 C615.209,601.363 616.798,599.736 619.974,599.736 C621.369,599.736 622.415,599.852 623.112,600.085 C625.591,595.746 629.658,592.105 635.314,589.161 C643.216,585.055 651.235,583.002 659.37,583.002 C665.8,583.002 669.015,585.403 669.015,590.207 C669.015,594.235 666.846,596.25 662.507,596.25 C659.408,596.25 656.464,595.552 653.675,594.158 C651.196,592.918 648.562,592.299 645.773,592.299 C640.97,592.299 633.881,595.436 624.506,601.712 C625.823,607.987 626.482,615.308 626.482,623.675 C626.482,641.804 624.623,650.869 620.904,650.869"/>
<path class="Note" d="M700.973,892.479 C694.62,902.473 684.587,910.763 670.874,917.348 C658.944,923.081 647.787,925.948 637.406,925.948 C629.116,925.948 622.221,924.282 616.72,920.951 C610.755,917.31 607.772,912.971 607.772,907.935 C607.772,896.547 610.755,886.746 616.72,878.534 C624.855,867.378 633.067,861.799 641.357,861.799 C647.245,861.799 651.429,862.962 653.908,865.286 C657.317,868.307 659.021,872.452 659.021,877.72 C659.021,885.158 653.482,891.627 642.403,897.128 C631.634,902.473 624.158,905.96 619.974,907.587 C620.904,909.523 622.105,911.267 623.577,912.816 C627.218,916.69 632.176,918.627 638.452,918.627 C646.354,918.627 656.968,915.721 670.293,909.911 C683.077,904.255 693.303,898.445 700.973,892.479 M618.347,902.241 C624.158,899.297 629.465,895.849 634.268,891.898 C641.396,886.088 644.959,879.812 644.959,873.072 C644.959,869.276 643.216,867.378 639.73,867.378 C636.786,867.378 632.757,870.748 627.644,877.488 C621.214,885.855 617.999,892.673 617.999,897.941 C617.999,899.413 618.115,900.846 618.347,902.241"/>
<path class="Note" d="M620.904,829.452 C617.108,829.452 615.209,825.384 615.209,817.249 L615.209,783.2 C615.209,779.946 616.798,778.319 619.974,778.319 C621.369,778.319 622.415,778.435 623.112,778.667 C625.591,774.329 629.658,770.688 635.314,767.743 C643.216,763.637 651.235,761.584 659.37,761.584 C665.8,761.584 669.015,763.986 669.015,768.789 C669.015,772.818 666.846,774.832 662.507,774.832 C659.408,774.832 656.464,774.135 653.675,772.741 C651.196,771.501 648.562,770.881 645.773,770.881 C640.97,770.881 633.881,774.019 624.506,780.294 C625.823,786.57 626.482,793.891 626.482,802.258 C626.482,820.387 624.623,829.452 620.904,829.452"/>
<path class="Note" d="M554.092,685.541 C554.401,673.842 560.871,663.461 573.499,654.396 C584.733,646.339 597.012,642.311 610.338,642.311 C629.009,642.311 645.472,649.632 659.727,664.274 C668.792,673.649 673.324,685.27 673.324,699.138 C673.324,711.611 669.993,721.179 663.33,727.842 C655.195,736.054 646.595,740.16 637.531,740.16 C631.333,740.16 626.53,738.766 623.121,735.977 C617.543,731.406 614.754,725.285 614.754,717.615 C614.754,707.699 619.712,698.634 629.629,690.422 C637.763,683.682 645.937,679.266 654.149,677.174 C651.98,673.455 649.23,669.969 645.898,666.715 C635.517,656.566 623.741,651.491 610.57,651.491 C596.857,651.491 585.507,654.474 576.52,660.439 C567.223,666.56 559.747,674.927 554.092,685.541 M657.054,683.333 C652.793,687.284 648.532,691.507 644.271,696 C635.904,704.832 631.72,713.199 631.72,721.102 C631.72,729.546 633.657,733.769 637.531,733.769 C641.017,733.769 645.898,729.004 652.174,719.475 C657.209,711.882 659.727,704.91 659.727,698.557 C659.727,693.133 658.836,688.059 657.054,683.333"/>
<path class="Note" d="M1941.58,926.687 C1945.92,923.743 1949.06,921.302 1951,919.365 C1954.56,915.569 1956.34,912.083 1956.34,908.906 C1956.34,905.265 1954.33,903.444 1950.3,903.444 C1942.47,903.444 1934.11,910.34 1925.2,924.13 C1922.48,928.313 1916.52,941.949 1907.3,965.036 C1914.66,972.629 1918.34,976.928 1918.34,977.936 C1918.34,979.33 1917.45,980.027 1915.67,980.027 C1914.27,980.027 1910.44,977.664 1904.16,972.938 C1897.34,988.821 1887,1002.38 1873.13,1013.61 C1858.96,1025.08 1842.03,1030.81 1822.35,1030.81 C1814.83,1030.81 1805.42,1029.07 1794.11,1025.58 C1785.05,1022.79 1780.51,1018.34 1780.51,1012.22 C1780.51,1003.15 1784,998.621 1790.97,998.621 C1795.16,998.621 1797.25,1000.56 1797.25,1004.43 C1797.25,1005.67 1796.28,1006.99 1794.34,1008.38 C1793.34,1009.08 1792.83,1010.44 1792.83,1012.45 C1792.83,1014.85 1795.51,1017.33 1800.85,1019.89 C1806.66,1022.68 1815.18,1024.07 1826.42,1024.07 C1840.9,1024.07 1854.89,1017.8 1868.37,1005.25 C1880.61,993.856 1889.4,980.608 1894.75,965.501 C1892.66,963.797 1890.41,961.937 1888.01,959.923 C1880.57,955.507 1876.85,950.975 1876.85,946.326 C1876.85,944.389 1878.13,943.421 1880.69,943.421 C1884.1,943.421 1888.71,946.326 1894.52,952.137 C1895.76,953.376 1896.92,954.538 1898,955.623 C1900.71,948.186 1905.05,938.734 1911.02,927.268 C1921.79,906.505 1934.88,896.123 1950.3,896.123 C1955.8,896.123 1960.14,897.169 1963.31,899.261 C1966.49,901.353 1968.08,904.219 1968.08,907.86 C1968.08,913.671 1965.95,918.59 1961.69,922.619 C1957.27,926.803 1952.66,928.895 1947.86,928.895 C1943.67,928.895 1941.58,928.159 1941.58,926.687"/>
<path class="Note" d="M1868.95,918.743 C1864.77,918.743 1862.67,916.845 1862.67,913.049 C1862.67,906.618 1863.64,901.892 1865.58,898.871 C1873.64,886.94 1891.15,864.627 1918.11,831.933 C1930.27,817.136 1945.96,809.737 1965.17,809.737 C1972.61,809.737 1977.76,810.783 1980.63,812.875 C1985.05,816.129 1987.25,820.041 1987.25,824.612 C1987.25,829.415 1983.38,834.761 1975.63,840.649 C1968.27,846.227 1961.3,849.016 1954.71,849.016 C1952.16,849.016 1950.88,848.745 1950.88,848.203 C1950.88,847.428 1952.12,846.615 1954.6,845.762 C1957.93,844.523 1961.49,842.005 1965.29,838.209 C1969.63,833.793 1971.8,829.803 1971.8,826.239 C1971.8,823.837 1970.13,821.552 1966.8,819.382 C1963.86,817.523 1959.09,816.593 1952.51,816.593 C1942.9,816.593 1930.77,826.278 1916.13,845.646 C1906.37,858.584 1898.47,869.973 1892.42,879.812 C1895.37,878.185 1898.89,876.21 1903,873.885 C1908.04,871.019 1912.37,869.586 1916.02,869.586 C1925.08,869.586 1929.61,872.84 1929.61,879.347 C1929.61,885.778 1925.89,892.828 1918.46,900.498 C1913.19,905.921 1910.55,909.95 1910.55,912.584 C1910.55,915.295 1913.19,916.651 1918.46,916.651 C1921.09,916.651 1923.8,915.721 1926.59,913.862 C1929.38,912.08 1931.43,911.189 1932.75,911.189 C1933.83,911.189 1934.38,911.886 1934.38,913.281 C1934.38,915.528 1932.21,917.891 1927.87,920.37 C1920.59,924.553 1914.74,926.645 1910.32,926.645 C1902.5,926.645 1898.58,922.462 1898.58,914.094 C1898.58,908.826 1901.61,902.977 1907.65,896.547 C1912.06,891.821 1914.27,887.133 1914.27,882.485 C1914.27,878.456 1912.1,876.442 1907.76,876.442 C1906.06,876.442 1900.4,878.456 1890.8,882.485 C1887.93,887.288 1885.53,891.704 1883.59,895.733 C1876.23,911.073 1871.35,918.743 1868.95,918.743"/>
<path class="Note" d="M1941.58,569.521 C1945.92,566.577 1949.06,564.137 1951,562.2 C1954.56,558.404 1956.34,554.917 1956.34,551.741 C1956.34,548.1 1954.33,546.279 1950.3,546.279 C1942.47,546.279 1934.11,553.174 1925.2,566.965 C1922.48,571.148 1916.52,584.784 1907.3,607.871 C1914.66,615.463 1918.34,619.763 1918.34,620.77 C1918.34,622.165 1917.45,622.862 1915.67,622.862 C1914.27,622.862 1910.44,620.499 1904.16,615.773 C1897.34,631.655 1887,645.213 1873.13,656.447 C1858.96,667.913 1842.03,673.646 1822.35,673.646 C1814.83,673.646 1805.42,671.903 1794.11,668.417 C1785.05,665.628 1780.51,661.173 1780.51,655.052 C1780.51,645.988 1784,641.456 1790.97,641.456 C1795.16,641.456 1797.25,643.393 1797.25,647.266 C1797.25,648.506 1796.28,649.823 1794.34,651.217 C1793.34,651.915 1792.83,653.271 1792.83,655.285 C1792.83,657.687 1795.51,660.166 1800.85,662.722 C1806.66,665.511 1815.18,666.906 1826.42,666.906 C1840.9,666.906 1854.89,660.631 1868.37,648.08 C1880.61,636.691 1889.4,623.443 1894.75,608.336 C1892.66,606.631 1890.41,604.772 1888.01,602.758 C1880.57,598.341 1876.85,593.809 1876.85,589.161 C1876.85,587.224 1878.13,586.256 1880.69,586.256 C1884.1,586.256 1888.71,589.161 1894.52,594.971 C1895.76,596.211 1896.92,597.373 1898,598.458 C1900.71,591.02 1905.05,581.568 1911.02,570.102 C1921.79,549.339 1934.88,538.958 1950.3,538.958 C1955.8,538.958 1960.14,540.004 1963.31,542.095 C1966.49,544.187 1968.08,547.054 1968.08,550.695 C1968.08,556.506 1965.95,561.425 1961.69,565.454 C1957.27,569.637 1952.66,571.729 1947.86,571.729 C1943.67,571.729 1941.58,570.993 1941.58,569.521"/>
<path class="Note" d="M1941.58,480.23 C1945.92,477.286 1949.06,474.845 1951,472.909 C1954.56,469.112 1956.34,465.626 1956.34,462.45 C1956.34,458.808 1954.33,456.988 1950.3,456.988 C1942.47,456.988 1934.11,463.883 1925.2,477.673 C1922.48,481.857 1916.52,495.492 1907.3,518.579 C1914.66,526.172 1918.34,530.472 1918.34,531.479 C1918.34,532.873 1917.45,533.571 1915.67,533.571 C1914.27,533.571 1910.44,531.208 1904.16,526.482 C1897.34,542.364 1887,555.922 1873.13,567.156 C1858.96,578.622 1842.03,584.355 1822.35,584.355 C1814.83,584.355 1805.42,582.612 1794.11,579.125 C1785.05,576.336 1780.51,571.882 1780.51,565.761 C1780.51,556.697 1784,552.164 1790.97,552.164 C1795.16,552.164 1797.25,554.101 1797.25,557.975 C1797.25,559.215 1796.28,560.532 1794.34,561.926 C1793.34,562.623 1792.83,563.979 1792.83,565.994 C1792.83,568.395 1795.51,570.874 1800.85,573.431 C1806.66,576.22 1815.18,577.615 1826.42,577.615 C1840.9,577.615 1854.89,571.339 1868.37,558.788 C1880.61,547.4 1889.4,534.152 1894.75,519.044 C1892.66,517.34 1890.41,515.48 1888.01,513.466 C1880.57,509.05 1876.85,504.518 1876.85,499.869 C1876.85,497.933 1878.13,496.964 1880.69,496.964 C1884.1,496.964 1888.71,499.869 1894.52,505.68 C1895.76,506.92 1896.92,508.082 1898,509.166 C1900.71,501.729 1905.05,492.277 1911.02,480.811 C1921.79,460.048 1934.88,449.666 1950.3,449.666 C1955.8,449.666 1960.14,450.712 1963.31,452.804 C1966.49,454.896 1968.08,457.762 1968.08,461.404 C1968.08,467.214 1965.95,472.134 1961.69,476.162 C1957.27,480.346 1952.66,482.438 1947.86,482.438 C1943.67,482.438 1941.58,481.702 1941.58,480.23"/>
<path class="Note" d="M1868.95,829.452 C1864.77,829.452 1862.67,827.553 1862.67,823.757 C1862.67,817.327 1863.64,812.601 1865.58,809.579 C1873.64,797.648 1891.15,775.336 1918.11,742.642 C1930.27,727.844 1945.96,720.446 1965.17,720.446 C1972.61,720.446 1977.76,721.492 1980.63,723.583 C1985.05,726.837 1987.25,730.75 1987.25,735.321 C1987.25,740.124 1983.38,745.47 1975.63,751.358 C1968.27,756.936 1961.3,759.725 1954.71,759.725 C1952.16,759.725 1950.88,759.454 1950.88,758.911 C1950.88,758.137 1952.12,757.323 1954.6,756.471 C1957.93,755.231 1961.49,752.714 1965.29,748.917 C1969.63,744.501 1971.8,740.511 1971.8,736.948 C1971.8,734.546 1970.13,732.26 1966.8,730.091 C1963.86,728.232 1959.09,727.302 1952.51,727.302 C1942.9,727.302 1930.77,736.986 1916.13,756.355 C1906.37,769.293 1898.47,780.682 1892.42,790.521 C1895.37,788.894 1898.89,786.918 1903,784.594 C1908.04,781.728 1912.37,780.294 1916.02,780.294 C1925.08,780.294 1929.61,783.548 1929.61,790.056 C1929.61,796.486 1925.89,803.536 1918.46,811.206 C1913.19,816.63 1910.55,820.658 1910.55,823.292 C1910.55,826.004 1913.19,827.36 1918.46,827.36 C1921.09,827.36 1923.8,826.43 1926.59,824.571 C1929.38,822.789 1931.43,821.898 1932.75,821.898 C1933.83,821.898 1934.38,822.595 1934.38,823.99 C1934.38,826.236 1932.21,828.599 1927.87,831.078 C1920.59,835.262 1914.74,837.354 1910.32,837.354 C1902.5,837.354 1898.58,833.17 1898.58,824.803 C1898.58,819.535 1901.61,813.686 1907.65,807.255 C1912.06,802.529 1914.27,797.842 1914.27,793.194 C1914.27,789.165 1912.1,787.151 1907.76,787.151 C1906.06,787.151 1900.4,789.165 1890.8,793.194 C1887.93,797.997 1885.53,802.413 1883.59,806.442 C1876.23,821.782 1871.35,829.452 1868.95,829.452"/>
<path class="Note" d="M1868.95,740.16 C1864.77,740.16 1862.67,738.262 1862.67,734.466 C1862.67,728.035 1863.64,723.31 1865.58,720.288 C1873.64,708.357 1891.15,686.045 1918.11,653.351 C1930.27,638.553 1945.96,631.154 1965.17,631.154 C1972.61,631.154 1977.76,632.2 1980.63,634.292 C1985.05,637.546 1987.25,641.458 1987.25,646.029 C1987.25,650.833 1983.38,656.178 1975.63,662.066 C1968.27,667.645 1961.3,670.434 1954.71,670.434 C1952.16,670.434 1950.88,670.162 1950.88,669.62 C1950.88,668.845 1952.12,668.032 1954.6,667.18 C1957.93,665.94 1961.49,663.422 1965.29,659.626 C1969.63,655.21 1971.8,651.22 1971.8,647.656 C1971.8,645.255 1970.13,642.969 1966.8,640.8 C1963.86,638.94 1959.09,638.011 1952.51,638.011 C1942.9,638.011 1930.77,647.695 1916.13,667.063 C1906.37,680.002 1898.47,691.39 1892.42,701.23 C1895.37,699.603 1898.89,697.627 1903,695.303 C1908.04,692.436 1912.37,691.003 1916.02,691.003 C1925.08,691.003 1929.61,694.257 1929.61,700.765 C1929.61,707.195 1925.89,714.245 1918.46,721.915 C1913.19,727.338 1910.55,731.367 1910.55,734.001 C1910.55,736.713 1913.19,738.068 1918.46,738.068 C1921.09,738.068 1923.8,737.139 1926.59,735.279 C1929.38,733.497 1931.43,732.606 1932.75,732.606 C1933.83,732.606 1934.38,733.304 1934.38,734.698 C1934.38,736.945 1932.21,739.308 1927.87,741.787 C1920.59,745.971 1914.74,748.063 1910.32,748.063 C1902.5,748.063 1898.58,743.879 1898.58,735.512 C1898.58,730.244 1901.61,724.394 1907.65,717.964 C1912.06,713.238 1914.27,708.551 1914.27,703.902 C1914.27,699.874 1912.1,697.859 1907.76,697.859 C1906.06,697.859 1900.4,699.874 1890.8,703.902 C1887.93,708.706 1885.53,713.122 1883.59,717.15 C1876.23,732.49 1871.35,740.16 1868.95,740.16"/>
<path class="Note" d="M3102.14,926.687 C3106.48,923.743 3109.62,921.302 3111.55,919.365 C3115.12,915.569 3116.9,912.083 3116.9,908.906 C3116.9,905.265 3114.88,903.444 3110.86,903.444 C3103.03,903.444 3094.66,910.34 3085.75,924.13 C3083.04,928.313 3077.08,941.949 3067.86,965.036 C3075.22,972.629 3078.9,976.928 3078.9,977.936 C3078.9,979.33 3078.01,980.027 3076.22,980.027 C3074.83,980.027 3070.99,977.664 3064.72,972.938 C3057.9,988.821 3047.56,1002.38 3033.69,1013.61 C3019.51,1025.08 3002.59,1030.81 2982.91,1030.81 C2975.39,1030.81 2965.98,1029.07 2954.67,1025.58 C2945.6,1022.79 2941.07,1018.34 2941.07,1012.22 C2941.07,1003.15 2944.56,998.621 2951.53,998.621 C2955.71,998.621 2957.81,1000.56 2957.81,1004.43 C2957.81,1005.67 2956.84,1006.99 2954.9,1008.38 C2953.89,1009.08 2953.39,1010.44 2953.39,1012.45 C2953.39,1014.85 2956.06,1017.33 2961.41,1019.89 C2967.22,1022.68 2975.74,1024.07 2986.97,1024.07 C3001.46,1024.07 3015.45,1017.8 3028.93,1005.25 C3041.17,993.856 3049.96,980.608 3055.31,965.501 C3053.21,963.797 3050.97,961.937 3048.57,959.923 C3041.13,955.507 3037.41,950.975 3037.41,946.326 C3037.41,944.389 3038.69,943.421 3041.24,943.421 C3044.65,943.421 3049.26,946.326 3055.07,952.137 C3056.31,953.376 3057.48,954.538 3058.56,955.623 C3061.27,948.186 3065.61,938.734 3071.58,927.268 C3082.34,906.505 3095.44,896.123 3110.86,896.123 C3116.36,896.123 3120.69,897.169 3123.87,899.261 C3127.05,901.353 3128.64,904.219 3128.64,907.86 C3128.64,913.671 3126.5,918.59 3122.24,922.619 C3117.83,926.803 3113.22,928.895 3108.41,928.895 C3104.23,928.895 3102.14,928.159 3102.14,926.687"/>
<path class="Note" d="M3102.14,569.521 C3106.48,566.577 3109.62,564.137 3111.55,562.2 C3115.12,558.404 3116.9,554.917 3116.9,551.741 C3116.9,548.1 3114.88,546.279 3110.86,546.279 C3103.03,546.279 3094.66,553.174 3085.75,566.965 C3083.04,571.148 3077.08,584.784 3067.86,607.871 C3075.22,615.463 3078.9,619.763 3078.9,620.77 C3078.9,622.165 3078.01,622.862 3076.22,622.862 C3074.83,622.862 3070.99,620.499 3064.72,615.773 C3057.9,631.655 3047.56,645.213 3033.69,656.447 C3019.51,667.913 3002.59,673.646 2982.91,673.646 C2975.39,673.646 2965.98,671.903 2954.67,668.417 C2945.6,665.628 2941.07,661.173 2941.07,655.052 C2941.07,645.988 2944.56,641.456 2951.53,641.456 C2955.71,641.456 2957.81,643.393 2957.81,647.266 C2957.81,648.506 2956.84,649.823 2954.9,651.217 C2953.89,651.915 2953.39,653.271 2953.39,655.285 C2953.39,657.687 2956.06,660.166 2961.41,662.722 C2967.22,665.511 2975.74,666.906 2986.97,666.906 C3001.46,666.906 3015.45,660.631 3028.93,648.08 C3041.17,636.691 3049.96,623.443 3055.31,608.336 C3053.21,606.631 3050.97,604.772 3048.57,602.758 C3041.13,598.341 3037.41,593.809 3037.41,589.161 C3037.41,587.224 3038.69,586.256 3041.24,586.256 C3044.65,586.256 3049.26,589.161 3055.07,594.971 C3056.31,596.211 3057.48,597.373 3058.56,598.458 C3061.27,591.02 3065.61,581.568 3071.58,570.102 C3082.34,549.339 3095.44,538.958 3110.86,538.958 C3116.36,538.958 3120.69,540.004 3123.87,542.095 C3127.05,544.187 3128.64,547.054 3128.64,550.695 C3128.64,556.506 3126.5,561.425 3122.24,565.454 C3117.83,569.637 3113.22,571.729 3108.41,571.729 C3104.23,571.729 3102.14,570.993 3102.14,569.521"/>
<path class="Note" d="M3029.51,918.743 C3025.32,918.743 3023.23,916.845 3023.23,913.049 C3023.23,906.618 3024.2,901.892 3026.14,898.871 C3034.19,886.94 3051.7,864.627 3078.66,831.933 C3090.83,817.136 3106.52,809.737 3125.73,809.737 C3133.17,809.737 3138.32,810.783 3141.19,812.875 C3145.6,816.129 3147.81,820.041 3147.81,824.612 C3147.81,829.415 3143.94,834.761 3136.19,840.649 C3128.83,846.227 3121.86,849.016 3115.27,849.016 C3112.71,849.016 3111.44,848.745 3111.44,848.203 C3111.44,847.428 3112.68,846.615 3115.15,845.762 C3118.49,844.523 3122.05,842.005 3125.85,838.209 C3130.18,833.793 3132.35,829.803 3132.35,826.239 C3132.35,823.837 3130.69,821.552 3127.36,819.382 C3124.41,817.523 3119.65,816.593 3113.06,816.593 C3103.46,816.593 3091.33,826.278 3076.69,845.646 C3066.93,858.584 3059.03,869.973 3052.98,879.812 C3055.93,878.185 3059.45,876.21 3063.56,873.885 C3068.59,871.019 3072.93,869.586 3076.57,869.586 C3085.64,869.586 3090.17,872.84 3090.17,879.347 C3090.17,885.778 3086.45,892.828 3079.01,900.498 C3073.75,905.921 3071.11,909.95 3071.11,912.584 C3071.11,915.295 3073.75,916.651 3079.01,916.651 C3081.65,916.651 3084.36,915.721 3087.15,913.862 C3089.94,912.08 3091.99,911.189 3093.31,911.189 C3094.39,911.189 3094.93,911.886 3094.93,913.281 C3094.93,915.528 3092.76,917.891 3088.43,920.37 C3081.14,924.553 3075.29,926.645 3070.88,926.645 C3063.05,926.645 3059.14,922.462 3059.14,914.094 C3059.14,908.826 3062.16,902.977 3068.21,896.547 C3072.62,891.821 3074.83,887.133 3074.83,882.485 C3074.83,878.456 3072.66,876.442 3068.32,876.442 C3066.62,876.442 3060.96,878.456 3051.36,882.485 C3048.49,887.288 3046.09,891.704 3044.15,895.733 C3036.79,911.073 3031.91,918.743 3029.51,918.743"/>
<path class="Note" d="M3102.14,480.23 C3106.48,477.286 3109.62,474.845 3111.55,472.909 C3115.12,469.112 3116.9,465.626 3116.9,462.45 C3116.9,458.808 3114.88,456.988 3110.86,456.988 C3103.03,456.988 3094.66,463.883 3085.75,477.673 C3083.04,481.857 3077.08,495.492 3067.86,518.579 C3075.22,526.172 3078.9,530.472 3078.9,531.479 C3078.9,532.873 3078.01,533.571 3076.22,533.571 C3074.83,533.571 3070.99,531.208 3064.72,526.482 C3057.9,542.364 3047.56,555.922 3033.69,567.156 C3019.51,578.622 3002.59,584.355 2982.91,584.355 C2975.39,584.355 2965.98,582.612 2954.67,579.125 C2945.6,576.336 2941.07,571.882 2941.07,565.761 C2941.07,556.697 2944.56,552.164 2951.53,552.164 C2955.71,552.164 2957.81,554.101 2957.81,557.975 C2957.81,559.215 2956.84,560.532 2954.9,561.926 C2953.89,562.623 2953.39,563.979 2953.39,565.994 C2953.39,568.395 2956.06,570.874 2961.41,573.431 C2967.22,576.22 2975.74,577.615 2986.97,577.615 C3001.46,577.615 3015.45,571.339 3028.93,558.788 C3041.17,547.4 3049.96,534.152 3055.31,519.044 C3053.21,517.34 3050.97,515.48 3048.57,513.466 C3041.13,509.05 3037.41,504.518 3037.41,499.869 C3037.41,497.933 3038.69,496.964 3041.24,496.964 C3044.65,496.964 3049.26,499.869 3055.07,505.68 C3056.31,506.92 3057.48,508.082 3058.56,509.166 C3061.27,501.729 3065.61,492.277 3071.58,480.811 C3082.34,460.048 3095.44,449.666 3110.86,449.666 C3116.36,449.666 3120.69,450.712 3123.87,452.804 C3127.05,454.896 3128.64,457.762 3128.64,461.404 C3128.64,467.214 3126.5,472.134 3122.24,476.162 C3117.83,480.346 3113.22,482.438 3108.41,482.438 C3104.23,482.438 3102.14,481.702 3102.14,480.23"/>
<path class="Note" d="M3029.51,829.452 C3025.32,829.452 3023.23,827.553 3023.23,823.757 C3023.23,817.327 3024.2,812.601 3026.14,809.579 C3034.19,797.648 3051.7,775.336 3078.66,742.642 C3090.83,727.844 3106.52,720.446 3125.73,720.446 C3133.17,720.446 3138.32,721.492 3141.19,723.583 C3145.6,726.837 3147.81,730.75 3147.81,735.321 C3147.81,740.124 3143.94,745.47 3136.19,751.358 C3128.83,756.936 3121.86,759.725 3115.27,759.725 C3112.71,759.725 3111.44,759.454 3111.44,758.911 C3111.44,758.137 3112.68,757.323 3115.15,756.471 C3118.49,755.231 3122.05,752.714 3125.85,748.917 C3130.18,744.501 3132.35,740.511 3132.35,736.948 C3132.35,734.546 3130.69,732.26 3127.36,730.091 C3124.41,728.232 3119.65,727.302 3113.06,727.302 C3103.46,727.302 3091.33,736.986 3076.69,756.355 C3066.93,769.293 3059.03,780.682 3052.98,790.521 C3055.93,788.894 3059.45,786.918 3063.56,784.594 C3068.59,781.728 3072.93,780.294 3076.57,780.294 C3085.64,780.294 3090.17,783.548 3090.17,790.056 C3090.17,796.486 3086.45,803.536 3079.01,811.206 C3073.75,816.63 3071.11,820.658 3071.11,823.292 C3071.11,826.004 3073.75,827.36 3079.01,827.36 C3081.65,827.36 3084.36,826.43 3087.15,824.571 C3089.94,822.789 3091.99,821.898 3093.31,821.898 C3094.39,821.898 3094.93,822.595 3094.93,823.99 C3094.93,826.236 3092.76,828.599 3088.43,831.078 C3081.14,835.262 3075.29,837.354 3070.88,837.354 C3063.05,837.354 3059.14,833.17 3059.14,824.803 C3059.14,819.535 3062.16,813.686 3068.21,807.255 C3072.62,802.529 3074.83,797.842 3074.83,793.194 C3074.83,789.165 3072.66,787.151 3068.32,787.151 C3066.62,787.151 3060.96,789.165 3051.36,793.194 C3048.49,797.997 3046.09,802.413 3044.15,806.442 C3036.79,821.782 3031.91,829.452 3029.51,829.452"/>
<path class="Note" d="M3101.33,682.403 C3101.33,691.313 3091.18,710.875 3070.88,741.09 C3062.82,753.098 3051.24,761.892 3036.13,767.47 C3024.98,771.653 3012.08,773.745 2997.43,773.745 C2992.71,773.745 2988.52,772.777 2984.88,770.84 C2980.85,768.748 2978.84,766.463 2978.84,763.983 C2978.84,757.553 2982.29,754.338 2989.18,754.338 C2990.19,754.338 2990.69,754.958 2990.69,756.197 C2990.69,757.282 2990.19,758.483 2989.18,759.8 C2987.94,761.427 2987.32,762.628 2987.32,763.402 C2987.32,765.727 2990.81,766.889 2997.78,766.889 C3013.43,766.889 3025.79,764.991 3034.85,761.194 C3044.31,757.321 3053.72,747.443 3063.09,731.561 L3065.77,726.563 C3061.27,729.972 3056.82,731.677 3052.4,731.677 C3041.4,731.677 3035.9,727.222 3035.9,718.313 C3035.9,708.706 3042.37,698.595 3055.31,687.981 C3065.46,679.769 3074.48,675.663 3082.38,675.663 C3086.33,675.663 3089.63,676.709 3092.26,678.801 C3093.19,678.104 3094.35,677.755 3095.75,677.755 C3099.47,677.755 3101.33,679.304 3101.33,682.403 M3067.16,724.123 L3089.12,683.565 C3087.42,683.178 3085.52,682.984 3083.43,682.984 C3075.91,682.984 3068.63,687.362 3061.58,696.116 C3053.37,706.343 3049.26,714.516 3049.26,720.637 C3049.26,724.665 3051.94,726.68 3057.28,726.68 C3059.84,726.68 3063.13,725.827 3067.16,724.123"/>
<path class="Clef" transform="matrix(2.3811,0,0,2.3811,212.156,2167.13)" d="M25.4,-25.1 C17.8,-25.1 11.7,-20.7 11.6,-20.7 C5.8,-16.4 3.5,-11.3 2.6,-7.8 C2.1,-6 1.9,-4.2 1.9,-2.5 C1.9,-0.1 2.3,2.1 3.2,4 C4.4,6.7 6.7,8.6 9.7,9.6 C10.9,10 12.2,10.2 13.5,10.2 C15.7,10.2 18,9.6 19.9,8.5 C23,6.8 24.9,3.2 24.9,-0.7 C24.9,-4.2 23.1,-7.4 20.1,-9.3 C18,-10.7 16,-11.1 14.3,-11.1 C13.1,-11.1 12,-10.9 11.1,-10.6 C10.1,-10.2 8.4,-9.2 7.6,-8.5 C7.9,-10.4 9.1,-13.3 10.2,-14.9 C11.3,-16.5 13.5,-18.5 15.2,-19.4 C17.7,-20.8 20.9,-21.4 24.4,-21.4 C34.6,-21.4 39.6,-13.2 39.6,3.6 C39.6,12.9 36.1,21.8 33.1,27.7 C29.8,34.3 25.4,40.6 21.5,44.1 C11.1,53.6 1.3,58.1 1.2,58.1 C1.2,58.1 -0.3,59 0.1,60.5 C0.4,61.5 1.3,61.7 1.9,61.7 C2,61.7 2.3,61.6 2.4,61.6 C2.5,61.6 13.9,56.9 23,49.8 C28.1,46.1 32.7,42.1 36.7,37.8 C40.3,33.9 43.4,29.7 45.9,25.5 C50.3,18 52.8,10.2 52.8,3.5 C52.8,-4.8 50.6,-11.7 46.5,-16.6 C41.8,-22.2 34.7,-25.1 25.4,-25.1 M56.8,-12.4 C56.8,-9.6 59,-7.4 61.6,-7.4 C64.2,-7.4 66.4,-9.6 66.4,-12.4 C66.4,-15.2 64.2,-17.5 61.6,-17.5 C59,-17.5 56.8,-15.2 56.8,-12.4 M56.8,12.3 C56.8,15.1 59,17.4 61.6,17.4 C64.2,17.4 66.4,15.1 66.4,12.3 C66.4,9.5 64.2,7.2 61.6,7.2 C59,7.2 56.8,9.5 56.8,12.3"/>
<path class="Clef" transform="matrix(2.3811,0,0,2.3811,212.156,1578.73)" d="M63.37,-5.89004 C62.14,-11.32 59.5,-15.14 58.72,-16.1801 C55.5301,-20.45 51.52,-23.3 46.8301,-24.65 C43.72,-25.54 40.72,-25.65 38.3,-25.47 C37.2601,-31.4801 36.2601,-37.3601 35.35,-42.8101 C40.79,-48.97 44.42,-54.77 46.69,-59.07 C50.1601,-65.65 51.3101,-70.2301 51.3601,-70.4301 C53.0801,-75.64 53.44,-83.34 52.34,-91.55 C51.3301,-99.1 49.24,-105.81 46.89,-109.06 C45.8601,-110.49 44.8101,-111.22 43.77,-111.22 C42.55,-111.22 40.04,-109.98 37.15,-107.21 C34.85,-105.01 31.5801,-101.12 29.02,-95.1101 C26.02,-88.05 25.8101,-78.5601 26.1601,-71.84 C26.54,-64.57 27.65,-58.8801 27.6601,-58.8301 C27.6801,-58.74 27.94,-57.24 28.39,-54.67 C28.1601,-54.44 27.92,-54.22 27.67,-53.9801 C26.6301,-52.9801 25.44,-51.84 24.0601,-50.4601 C23.2,-49.6 22.25,-48.69 21.25,-47.72 C12.79,-39.57 0,-27.25 0,-8.1 C0,-3.4 0.9,1.01992 2.68008,5.02998 C4.27002,8.62998 6.57002,11.91 9.5,14.78 C17.2301,22.33 27.82,25.5399 34.8801,25.38 C37.8301,25.31 40.4601,25.0699 42.85,24.6199 C44.6801,34.2199 45.82,41.25 45.8601,46.5899 C45.9,53.1 44.25,57.0699 40.35,59.8399 C37.92,61.5699 35.1101,62.5199 32.0101,62.6699 C29.42,62.7899 27.1601,62.3199 25.7301,61.91 L25.72,61.91 C25.72,61.91 25.4301,61.83 25.42,61.63 C25.4101,61.45 25.7601,61.4 25.77,61.4 L25.79,61.4 C27.7101,60.96 31.2801,59.73 33.64,56.43 C35.44,53.91 36.3101,49.2899 34.47,45.35 C33.3601,42.96 30.85,40.01 25.2301,39.56 C22.74,39.36 20.47,39.8699 18.47,41.0699 C16.6601,42.15 15.1601,43.7899 14.1101,45.7899 C11.65,50.4899 12.1101,56.2199 15.24,60.06 C18.2,63.68 22.82,65.9899 28.25,66.5699 C29.1,66.66 29.95,66.7 30.8,66.7 C31.5101,66.7 32.22,66.6699 32.92,66.61 C31.72,66.9399 30.64,67.4899 29.77,68.25 C28.2801,69.5399 27.44,71.38 27.44,73.41 C27.44,75.28 28.0601,76.65 29.55,78.0399 C28.4101,78.5 27.55,78.98 26.79,79.56 C25.25,80.73 24.34,82.46 24.34,84.1899 C24.34,87.45 27.3,89.63 31.72,89.63 C37.1301,89.63 40.9101,86.63 40.9101,82.35 C40.9101,80.1199 39.9101,78.18 38.0801,76.83 C41.0101,75.6199 42.37,73.9399 42.37,71.56 C42.39,70.05 41.69,68.61 40.49,67.6899 C39.2801,66.7399 37.62,66.2399 35.69,66.2399 L35.5101,66.2399 C38.2801,65.7 40.92,64.7 43.2101,63.28 C46.87,60.71 48.99,56.73 49.67,51.1 C50.2301,46.46 49.84,40.55 48.44,32.48 C48.0801,30.3899 47.54,27.36 46.8801,23.6 C52.6301,21.68 56.79,18.11 60.5601,12.26 C63.85,6.51992 64.8,0.419922 63.37,-5.89004 M32.39,87.5399 C30.19,87.5399 28.7301,86.1199 28.7301,84.01 C28.7301,82.11 29.65,80.5 31.32,79.4699 C31.6801,79.66 31.77,79.71 32.1101,79.88 C33.3,80.48 33.3,80.48 33.55,80.63 L33.5601,80.6399 C35.47,81.73 36.25,82.76 36.25,84.18 C36.24,86.0899 34.59,87.5399 32.39,87.5399 M38.3101,71.63 C38.3101,73.2699 37.7301,74.3399 36.1801,75.53 C34.74,74.78 34.35,74.56 33.9801,74.3399 L33.8801,74.28 C32.3301,73.3399 31.85,72.66 31.85,71.4 C31.85,69.6 33.2301,68.3399 35.19,68.3399 C37.17,68.35 38.3101,69.55 38.3101,71.63 M33.15,-83.8101 C34.9301,-89.55 37.67,-92.8 39.6601,-94.5301 C41.4101,-96.05 43.0601,-96.7601 43.9801,-96.7601 C44.12,-96.7601 44.24,-96.74 44.34,-96.7101 C44.8,-96.57 45.3301,-96 45.8,-95.1301 C48.1101,-90.84 47.37,-84.1301 46.0301,-79.69 C44.4,-74.29 41.4801,-68.6801 32.69,-59.0601 C32.52,-60.17 32.3601,-61.22 32.2101,-62.2 C30.95,-70.49 31.27,-77.7601 33.15,-83.8101 M29.15,20.31 C24.5101,19.0899 20.0801,16.5899 16.32,13.0899 C15.0101,11.86 13.14,9.68994 11.67,6.3 C10.3101,3.13994 9.65,-0.290039 9.7,-3.88008 C9.77002,-8.57002 11.0801,-13.39 13.59,-18.1801 C16.5101,-23.7601 21.07,-29.29 27.1301,-34.62 C28.5801,-35.9 29.95,-37.1801 31.24,-38.4601 C32,-34.2 32.8301,-29.5101 33.7101,-24.6301 C29.8601,-23.3601 25.1101,-20.2101 22,-14.5601 C18.47,-7.99004 18.6101,-2.47002 19.34,1.00996 C20.2801,5.46992 22.8101,9.22998 26.27,11.3199 C27.2,11.88 31.3301,14.01 33.17,13.43 C33.54,13.31 33.8101,13.0899 33.95,12.76 C34.4601,11.5899 33.44,10.95 31.8801,9.98994 C31.2801,9.61992 30.6101,9.2 29.8801,8.66992 C26.5601,6.17998 25.1101,1.72998 26.1801,-2.65 C26.7601,-5.05 28.04,-7.21006 29.8801,-8.91006 C31.55,-10.4601 33.59,-11.5601 35.97,-12.2 C38.0101,-0.960059 40.07,10.1899 41.7101,18.55 C41.84,19.2399 41.9801,19.91 42.1101,20.58 C37.7101,21.51 33.37,21.4199 29.15,20.31 M54.9,10.1 C53.7301,13.28 51.27,17.35 46.14,19.41 C46.07,18.9899 45.99,18.56 45.9101,18.13 C44.3601,9.36992 42.4301,-1.61006 40.47,-12.87 C50.82,-13.35 55.09,-5.91006 55.9801,-1.08008 C56.45,1.45 56.45,5.88994 54.9,10.1"/>
<path class="FiguredBass" d="M624.736,2543.79 L624.736,2563.18 C624.736,2565.1 623.762,2566.06 621.814,2566.06 C619.866,2566.06 618.892,2565.1 618.892,2563.18 L618.892,2546.3 L615.923,2547.51 C615.614,2547.63 615.212,2547.69 614.717,2547.69 C613.913,2547.69 613.202,2547.38 612.583,2546.76 C611.965,2546.14 611.655,2545.43 611.655,2544.63 L611.655,2535.17 C611.655,2533.81 612.305,2532.85 613.604,2532.29 L618.892,2530.06 L618.892,2510.58 L615.923,2511.79 C615.737,2511.85 615.49,2511.88 615.181,2511.88 C615.057,2511.88 614.902,2511.88 614.717,2511.88 C613.789,2511.76 613.047,2511.42 612.49,2510.86 C611.934,2510.3 611.655,2509.65 611.655,2508.91 L611.655,2499.45 C611.655,2498.15 612.305,2497.22 613.604,2496.67 L618.892,2494.44 L618.892,2474.68 C618.892,2472.76 619.866,2471.8 621.814,2471.8 C623.762,2471.8 624.736,2472.76 624.736,2474.68 L624.736,2492.03 L636.704,2487.02 L636.704,2467.63 C636.704,2465.71 637.663,2464.75 639.58,2464.75 C641.497,2464.75 642.456,2465.71 642.456,2467.63 L642.456,2484.7 L645.703,2483.31 C646.012,2483.18 646.353,2483.12 646.724,2483.12 C647.528,2483.12 648.254,2483.43 648.904,2484.05 C649.553,2484.67 649.878,2485.38 649.878,2486.18 L649.878,2495.65 C649.878,2497.01 649.198,2497.96 647.837,2498.52 L642.456,2500.75 L642.456,2520.32 L645.703,2519.02 C645.889,2518.96 646.105,2518.93 646.353,2518.93 C646.476,2518.93 646.6,2518.93 646.724,2518.93 C647.775,2519.12 648.564,2519.46 649.089,2519.95 C649.615,2520.45 649.878,2521.1 649.878,2521.9 L649.878,2531.36 C649.878,2532.66 649.198,2533.59 647.837,2534.15 L642.456,2536.37 L642.456,2556.13 C642.456,2558.05 641.497,2559.01 639.58,2559.01 C637.663,2559.01 636.704,2558.05 636.704,2556.13 L636.704,2538.78 L624.736,2543.79 M624.736,2527.65 L636.704,2522.74 L636.704,2503.16 L624.736,2508.17 L624.736,2527.65 "/>
<path class="FiguredBass" d="M1886.26,2543.79 L1886.26,2563.18 C1886.26,2565.1 1885.29,2566.06 1883.34,2566.06 C1881.39,2566.06 1880.42,2565.1 1880.42,2563.18 L1880.42,2546.3 L1877.45,2547.51 C1877.14,2547.63 1876.74,2547.69 1876.24,2547.69 C1875.44,2547.69 1874.73,2547.38 1874.11,2546.76 C1873.49,2546.14 1873.18,2545.43 1873.18,2544.63 L1873.18,2535.17 C1873.18,2533.81 1873.83,2532.85 1875.13,2532.29 L1880.42,2530.06 L1880.42,2510.58 L1877.45,2511.79 C1877.26,2511.85 1877.02,2511.88 1876.71,2511.88 C1876.58,2511.88 1876.43,2511.88 1876.24,2511.88 C1875.32,2511.76 1874.57,2511.42 1874.02,2510.86 C1873.46,2510.3 1873.18,2509.65 1873.18,2508.91 L1873.18,2499.45 C1873.18,2498.15 1873.83,2497.22 1875.13,2496.67 L1880.42,2494.44 L1880.42,2474.68 C1880.42,2472.76 1881.39,2471.8 1883.34,2471.8 C1885.29,2471.8 1886.26,2472.76 1886.26,2474.68 L1886.26,2492.03 L1898.23,2487.02 L1898.23,2467.63 C1898.23,2465.71 1899.19,2464.75 1901.11,2464.75 C1903.02,2464.75 1903.98,2465.71 1903.98,2467.63 L1903.98,2484.7 L1907.23,2483.31 C1907.54,2483.18 1907.88,2483.12 1908.25,2483.12 C1909.05,2483.12 1909.78,2483.43 1910.43,2484.05 C1911.08,2484.67 1911.41,2485.38 1911.41,2486.18 L1911.41,2495.65 C1911.41,2497.01 1910.72,2497.96 1909.36,2498.52 L1903.98,2500.75 L1903.98,2520.32 L1907.23,2519.02 C1907.42,2518.96 1907.63,2518.93 1907.88,2518.93 C1908,2518.93 1908.13,2518.93 1908.25,2518.93 C1909.3,2519.12 1910.09,2519.46 1910.62,2519.95 C1911.14,2520.45 1911.41,2521.1 1911.41,2521.9 L1911.41,2531.36 C1911.41,2532.66 1910.72,2533.59 1909.36,2534.15 L1903.98,2536.37 L1903.98,2556.13 C1903.98,2558.05 1903.02,2559.01 1901.11,2559.01 C1899.19,2559.01 1898.23,2558.05 1898.23,2556.13 L1898.23,2538.78 L1886.26,2543.79 M1886.26,2527.65 L1898.23,2522.74 L1898.23,2503.16 L1886.26,2508.17 L1886.26,2527.65 "/>
<path class="FiguredBass" d="M3044.13,2528.02 L3044.13,2538.04 L3044.13,2539.71 C3044.13,2543.49 3044.28,2546.83 3044.59,2549.73 C3047.56,2547.2 3049.88,2545.12 3051.55,2543.52 C3053.22,2541.91 3054.84,2539.71 3056.42,2536.93 C3058,2534.15 3058.79,2531.38 3058.79,2528.63 C3058.79,2525.87 3058.2,2523.48 3057.02,2521.44 C3055.85,2519.4 3054.24,2518.37 3052.2,2518.37 C3049.85,2518.37 3047.95,2519.32 3046.49,2521.2 C3045.04,2523.09 3044.25,2525.36 3044.13,2528.02 M3037.73,2555.21 L3035.96,2473.01 C3037.26,2472.2 3038.62,2471.79 3040.05,2471.76 C3041.47,2471.73 3042.83,2472.14 3044.13,2473.01 L3043.11,2517.17 C3047.19,2513.77 3051.8,2512.07 3056.93,2512.07 C3060.77,2512.07 3063.98,2513.61 3066.58,2516.7 C3069.18,2519.8 3070.48,2523.42 3070.48,2527.56 C3070.48,2530.4 3069.67,2533.11 3068.06,2535.68 C3066.46,2538.24 3064.75,2540.3 3062.96,2541.85 C3061.17,2543.39 3058.43,2545.53 3054.75,2548.25 C3051.07,2550.97 3048.86,2552.64 3048.12,2553.26 C3047.62,2553.69 3046.96,2554.46 3046.12,2555.58 C3045.29,2556.69 3044.5,2557.54 3043.76,2558.13 C3043.01,2558.72 3042.18,2559.01 3041.25,2559.01 C3040.26,2559.01 3039.43,2558.65 3038.75,2557.94 C3038.07,2557.23 3037.73,2556.32 3037.73,2555.21"/>
<path class="FiguredBass" d="M641.899,1802.2 C646.847,1796.82 649.321,1791.62 649.321,1786.62 C649.321,1782.53 647.574,1779.32 644.08,1776.97 C640.585,1774.62 636.395,1773.44 631.509,1773.44 C628.045,1773.44 625.278,1774.52 623.206,1776.69 C621.134,1778.85 620.098,1781.36 620.098,1784.2 C620.098,1787.67 621.613,1790.3 624.644,1792.09 L641.899,1802.2 M646.445,1804.8 C654.857,1809.68 659.063,1816.12 659.063,1824.1 C659.063,1830.09 656.496,1835.24 651.362,1839.54 C646.229,1843.84 639.209,1845.99 630.303,1845.99 C622.819,1845.99 616.309,1844.01 610.774,1840.05 C605.239,1836.09 602.471,1830.96 602.471,1824.65 C602.471,1822.3 603.151,1819.92 604.512,1817.51 C605.872,1815.1 607.14,1813.29 608.316,1812.08 C609.491,1810.88 611.408,1809 614.067,1806.47 C607.883,1802.2 604.79,1796.82 604.79,1790.33 C604.79,1784.76 607.171,1779.97 611.934,1775.95 C616.696,1771.93 623.221,1769.92 631.509,1769.92 C638.127,1769.92 643.863,1771.42 648.718,1774.42 C653.573,1777.41 656.001,1781.48 656.001,1786.62 C656.001,1792.12 652.816,1798.18 646.445,1804.8 M618.613,1809.16 C612.305,1814.66 609.15,1819.83 609.15,1824.65 C609.15,1829.72 611.253,1833.96 615.459,1837.36 C619.665,1840.76 624.613,1842.46 630.303,1842.46 C634.261,1842.46 637.431,1841.2 639.812,1838.66 C642.193,1836.13 643.384,1833.19 643.384,1829.85 C643.384,1825.58 641.621,1822.43 638.096,1820.38 L618.613,1809.16 "/>
<path class="FiguredBass" d="M610.913,1875.67 C610.913,1875.67 612.398,1875.88 615.366,1876.32 C616.665,1876.5 618.119,1876.69 619.727,1876.87 C623.994,1877.37 628.107,1877.61 632.066,1877.61 C636.024,1877.61 640.199,1877.37 644.59,1876.87 C646.322,1876.69 647.837,1876.5 649.136,1876.32 L653.682,1875.67 C654.609,1875.67 655.305,1875.98 655.769,1876.59 C656.233,1877.21 656.187,1877.71 655.63,1878.08 C646.167,1887.54 632.839,1892.27 615.645,1892.27 C614.964,1892.27 614.361,1892.52 613.836,1893.01 C613.31,1893.51 613.047,1894.13 613.047,1894.87 L613.047,1909.44 C617.438,1905.11 622.757,1902.94 629.004,1902.94 C638.034,1902.94 645.007,1904.97 649.924,1909.02 C654.841,1913.07 657.3,1919.21 657.3,1927.43 C657.3,1934.42 654.517,1940.22 648.95,1944.83 C643.384,1949.44 636.735,1951.74 629.004,1951.74 C622.324,1951.74 616.526,1950.22 611.609,1947.19 C606.692,1944.16 604.233,1939.96 604.233,1934.58 C604.233,1931.86 605.223,1929.49 607.202,1927.48 C609.181,1925.47 611.547,1924.46 614.299,1924.46 C617.052,1924.46 619.386,1925.45 621.304,1927.43 C623.221,1929.41 624.18,1931.79 624.18,1934.58 C624.18,1935.81 623.159,1937.16 621.118,1938.61 C619.077,1940.07 618.057,1941.41 618.057,1942.65 C618.057,1946.36 621.706,1948.21 629.004,1948.21 C636.117,1948.21 639.673,1941.29 639.673,1927.43 C639.673,1914.07 636.117,1907.36 629.004,1907.3 C622.634,1907.3 618.18,1908.6 615.645,1911.2 C613.109,1913.8 611.532,1915.09 610.913,1915.09 C609.367,1915.09 608.625,1914.32 608.687,1912.78 L608.687,1878.08 C608.687,1877.4 608.903,1876.83 609.336,1876.36 C609.769,1875.9 610.295,1875.67 610.913,1875.67"/>
<path class="FiguredBass" d="M645.425,2017.13 C645.425,2018.12 645.982,2019.08 647.095,2020.01 C648.208,2020.94 649.43,2021.82 650.759,2022.65 C652.089,2023.49 653.311,2025.07 654.424,2027.39 C655.537,2029.7 656.094,2032.63 656.094,2036.15 C656.094,2042.96 653.527,2048.21 648.394,2051.92 C643.26,2055.63 636.766,2057.49 628.911,2057.49 C622.603,2057.49 617.114,2055.91 612.444,2052.76 C607.774,2049.6 605.44,2045.46 605.44,2040.33 C605.44,2037.61 606.429,2035.24 608.408,2033.23 C610.387,2031.22 612.753,2030.21 615.505,2030.21 C618.258,2030.21 620.593,2031.2 622.51,2033.18 C624.427,2035.16 625.386,2037.54 625.386,2040.33 C625.386,2041.56 624.365,2042.91 622.324,2044.36 C620.283,2045.82 619.263,2047.16 619.263,2048.4 C619.263,2050.32 620.206,2051.72 622.092,2052.62 C623.979,2053.52 626.252,2053.96 628.911,2053.96 C632.375,2053.96 634.833,2052.25 636.287,2048.82 C637.74,2045.38 638.467,2041.16 638.467,2036.15 L638.467,2033.74 C638.467,2030.4 638.359,2027.86 638.142,2026.13 C637.926,2024.4 637.245,2022.85 636.101,2021.49 C634.957,2020.13 633.21,2019.45 630.859,2019.45 L618.706,2019.45 C617.284,2019.45 616.572,2018.68 616.572,2017.13 C616.572,2015.71 617.284,2015 618.706,2015 L630.859,2015 C633.395,2015 635.374,2014.04 636.797,2012.12 C637.292,2011.44 637.694,2010.33 638.003,2008.78 C638.312,2006.74 638.467,2003.81 638.467,1999.97 L638.467,1998.76 C638.467,1989.55 635.065,1984.94 628.262,1984.94 C622.262,1984.94 619.263,1986.61 619.263,1989.95 C619.263,1991.06 620.175,1992.25 622,1993.52 C623.824,1994.79 624.736,1995.98 624.736,1997.09 C624.736,1999.51 623.886,2001.58 622.185,2003.31 C620.484,2005.04 618.412,2005.91 615.969,2005.91 C613.526,2005.91 611.47,2005.04 609.8,2003.31 C608.13,2001.58 607.295,1999.51 607.295,1997.09 C607.295,1992.33 609.367,1988.53 613.511,1985.68 C617.655,1982.84 622.572,1981.42 628.262,1981.42 C635.746,1981.42 641.899,1982.85 646.724,1985.73 C651.548,1988.61 653.96,1992.95 653.96,1998.76 C653.96,2002.91 653.527,2006.12 652.661,2008.41 C651.795,2010.7 650.806,2012.09 649.692,2012.59 C648.579,2013.08 647.59,2013.65 646.724,2014.3 C645.858,2014.95 645.425,2015.9 645.425,2017.13"/>
<path class="FiguredBass" d="M1906.95,1805.63 C1906.95,1806.62 1907.51,1807.58 1908.62,1808.51 C1909.74,1809.44 1910.96,1810.32 1912.29,1811.15 C1913.62,1811.99 1914.84,1813.57 1915.95,1815.89 C1917.06,1818.2 1917.62,1821.13 1917.62,1824.65 C1917.62,1831.46 1915.05,1836.71 1909.92,1840.42 C1904.79,1844.13 1898.29,1845.99 1890.44,1845.99 C1884.13,1845.99 1878.64,1844.41 1873.97,1841.26 C1869.3,1838.1 1866.97,1833.96 1866.97,1828.83 C1866.97,1826.11 1867.96,1823.74 1869.94,1821.73 C1871.91,1819.72 1874.28,1818.71 1877.03,1818.71 C1879.78,1818.71 1882.12,1819.7 1884.04,1821.68 C1885.95,1823.66 1886.91,1826.04 1886.91,1828.83 C1886.91,1830.06 1885.89,1831.41 1883.85,1832.86 C1881.81,1834.32 1880.79,1835.66 1880.79,1836.9 C1880.79,1838.82 1881.73,1840.22 1883.62,1841.12 C1885.51,1842.02 1887.78,1842.46 1890.44,1842.46 C1893.9,1842.46 1896.36,1840.75 1897.81,1837.32 C1899.27,1833.88 1899.99,1829.66 1899.99,1824.65 L1899.99,1822.24 C1899.99,1818.9 1899.89,1816.36 1899.67,1814.63 C1899.45,1812.9 1898.77,1811.35 1897.63,1809.99 C1896.48,1808.63 1894.74,1807.95 1892.39,1807.95 L1880.23,1807.95 C1878.81,1807.95 1878.1,1807.18 1878.1,1805.63 C1878.1,1804.21 1878.81,1803.5 1880.23,1803.5 L1892.39,1803.5 C1894.92,1803.5 1896.9,1802.54 1898.32,1800.62 C1898.82,1799.94 1899.22,1798.83 1899.53,1797.28 C1899.84,1795.24 1899.99,1792.31 1899.99,1788.47 L1899.99,1787.26 C1899.99,1778.05 1896.59,1773.44 1889.79,1773.44 C1883.79,1773.44 1880.79,1775.11 1880.79,1778.45 C1880.79,1779.56 1881.7,1780.75 1883.53,1782.02 C1885.35,1783.29 1886.26,1784.48 1886.26,1785.59 C1886.26,1788.01 1885.41,1790.08 1883.71,1791.81 C1882.01,1793.54 1879.94,1794.41 1877.5,1794.41 C1875.05,1794.41 1873,1793.54 1871.33,1791.81 C1869.66,1790.08 1868.82,1788.01 1868.82,1785.59 C1868.82,1780.83 1870.89,1777.03 1875.04,1774.18 C1879.18,1771.34 1884.1,1769.92 1889.79,1769.92 C1897.27,1769.92 1903.43,1771.35 1908.25,1774.23 C1913.07,1777.11 1915.49,1781.45 1915.49,1787.26 C1915.49,1791.41 1915.05,1794.62 1914.19,1796.91 C1913.32,1799.2 1912.33,1800.59 1911.22,1801.09 C1910.11,1801.58 1909.12,1802.15 1908.25,1802.8 C1907.38,1803.45 1906.95,1804.4 1906.95,1805.63"/>
<path class="FiguredBass" d="M1903.43,1907.95 C1908.37,1902.57 1910.85,1897.37 1910.85,1892.37 C1910.85,1888.28 1909.1,1885.07 1905.61,1882.72 C1902.11,1880.37 1897.92,1879.19 1893.04,1879.19 C1889.57,1879.19 1886.8,1880.27 1884.73,1882.44 C1882.66,1884.6 1881.62,1887.11 1881.62,1889.95 C1881.62,1893.42 1883.14,1896.05 1886.17,1897.84 L1903.43,1907.95 M1907.97,1910.55 C1916.38,1915.43 1920.59,1921.87 1920.59,1929.85 C1920.59,1935.84 1918.02,1940.99 1912.89,1945.29 C1907.76,1949.59 1900.74,1951.74 1891.83,1951.74 C1884.35,1951.74 1877.84,1949.76 1872.3,1945.8 C1866.77,1941.84 1864,1936.71 1864,1930.4 C1864,1928.05 1864.68,1925.67 1866.04,1923.26 C1867.4,1920.85 1868.67,1919.04 1869.84,1917.83 C1871.02,1916.63 1872.93,1914.75 1875.59,1912.22 C1869.41,1907.95 1866.32,1902.57 1866.32,1896.08 C1866.32,1890.51 1868.7,1885.72 1873.46,1881.7 C1878.22,1877.68 1884.75,1875.67 1893.04,1875.67 C1899.65,1875.67 1905.39,1877.17 1910.25,1880.17 C1915.1,1883.16 1917.53,1887.23 1917.53,1892.37 C1917.53,1897.87 1914.34,1903.93 1907.97,1910.55 M1880.14,1914.91 C1873.83,1920.41 1870.68,1925.58 1870.68,1930.4 C1870.68,1935.47 1872.78,1939.71 1876.99,1943.11 C1881.19,1946.51 1886.14,1948.21 1891.83,1948.21 C1895.79,1948.21 1898.96,1946.95 1901.34,1944.41 C1903.72,1941.88 1904.91,1938.94 1904.91,1935.6 C1904.91,1931.33 1903.15,1928.18 1899.62,1926.13 L1880.14,1914.91 "/>
<path class="FiguredBass" d="M1872.44,1981.42 C1872.44,1981.42 1873.92,1981.63 1876.89,1982.07 C1878.19,1982.25 1879.65,1982.44 1881.25,1982.62 C1885.52,1983.12 1889.63,1983.36 1893.59,1983.36 C1897.55,1983.36 1901.73,1983.12 1906.12,1982.62 C1907.85,1982.44 1909.36,1982.25 1910.66,1982.07 L1915.21,1981.42 C1916.14,1981.42 1916.83,1981.73 1917.3,1982.34 C1917.76,1982.96 1917.71,1983.46 1917.16,1983.83 C1907.69,1993.29 1894.37,1998.02 1877.17,1998.02 C1876.49,1998.02 1875.89,1998.27 1875.36,1998.76 C1874.84,1999.26 1874.57,1999.88 1874.57,2000.62 L1874.57,2015.19 C1878.97,2010.86 1884.28,2008.69 1890.53,2008.69 C1899.56,2008.69 1906.53,2010.72 1911.45,2014.77 C1916.37,2018.82 1918.83,2024.96 1918.83,2033.18 C1918.83,2040.17 1916.04,2045.97 1910.48,2050.58 C1904.91,2055.19 1898.26,2057.49 1890.53,2057.49 C1883.85,2057.49 1878.05,2055.97 1873.14,2052.94 C1868.22,2049.91 1865.76,2045.71 1865.76,2040.33 C1865.76,2037.61 1866.75,2035.24 1868.73,2033.23 C1870.71,2031.22 1873.07,2030.21 1875.83,2030.21 C1878.58,2030.21 1880.91,2031.2 1882.83,2033.18 C1884.75,2035.16 1885.71,2037.54 1885.71,2040.33 C1885.71,2041.56 1884.69,2042.91 1882.65,2044.36 C1880.6,2045.82 1879.58,2047.16 1879.58,2048.4 C1879.58,2052.11 1883.23,2053.96 1890.53,2053.96 C1897.64,2053.96 1901.2,2047.04 1901.2,2033.18 C1901.2,2019.82 1897.64,2013.11 1890.53,2013.05 C1884.16,2013.05 1879.71,2014.35 1877.17,2016.95 C1874.64,2019.55 1873.06,2020.84 1872.44,2020.84 C1870.89,2020.84 1870.15,2020.07 1870.21,2018.53 L1870.21,1983.83 C1870.21,1983.15 1870.43,1982.58 1870.86,1982.11 C1871.3,1981.65 1871.82,1981.42 1872.44,1981.42"/>
<path class="FiguredBass" d="M3067.51,1805.63 C3067.51,1806.62 3068.07,1807.58 3069.18,1808.51 C3070.29,1809.44 3071.51,1810.32 3072.84,1811.15 C3074.17,1811.99 3075.39,1813.57 3076.51,1815.89 C3077.62,1818.2 3078.18,1821.13 3078.18,1824.65 C3078.18,1831.46 3075.61,1836.71 3070.48,1840.42 C3065.34,1844.13 3058.85,1845.99 3051,1845.99 C3044.69,1845.99 3039.2,1844.41 3034.53,1841.26 C3029.86,1838.1 3027.52,1833.96 3027.52,1828.83 C3027.52,1826.11 3028.51,1823.74 3030.49,1821.73 C3032.47,1819.72 3034.84,1818.71 3037.59,1818.71 C3040.34,1818.71 3042.68,1819.7 3044.59,1821.68 C3046.51,1823.66 3047.47,1826.04 3047.47,1828.83 C3047.47,1830.06 3046.45,1831.41 3044.41,1832.86 C3042.37,1834.32 3041.35,1835.66 3041.35,1836.9 C3041.35,1838.82 3042.29,1840.22 3044.18,1841.12 C3046.06,1842.02 3048.34,1842.46 3051,1842.46 C3054.46,1842.46 3056.92,1840.75 3058.37,1837.32 C3059.82,1833.88 3060.55,1829.66 3060.55,1824.65 L3060.55,1822.24 C3060.55,1818.9 3060.44,1816.36 3060.23,1814.63 C3060.01,1812.9 3059.33,1811.35 3058.19,1809.99 C3057.04,1808.63 3055.29,1807.95 3052.94,1807.95 L3040.79,1807.95 C3039.37,1807.95 3038.66,1807.18 3038.66,1805.63 C3038.66,1804.21 3039.37,1803.5 3040.79,1803.5 L3052.94,1803.5 C3055.48,1803.5 3057.46,1802.54 3058.88,1800.62 C3059.38,1799.94 3059.78,1798.83 3060.09,1797.28 C3060.4,1795.24 3060.55,1792.31 3060.55,1788.47 L3060.55,1787.26 C3060.55,1778.05 3057.15,1773.44 3050.35,1773.44 C3044.35,1773.44 3041.35,1775.11 3041.35,1778.45 C3041.35,1779.56 3042.26,1780.75 3044.08,1782.02 C3045.91,1783.29 3046.82,1784.48 3046.82,1785.59 C3046.82,1788.01 3045.97,1790.08 3044.27,1791.81 C3042.57,1793.54 3040.5,1794.41 3038.05,1794.41 C3035.61,1794.41 3033.55,1793.54 3031.88,1791.81 C3030.21,1790.08 3029.38,1788.01 3029.38,1785.59 C3029.38,1780.83 3031.45,1777.03 3035.59,1774.18 C3039.74,1771.34 3044.66,1769.92 3050.35,1769.92 C3057.83,1769.92 3063.98,1771.35 3068.81,1774.23 C3073.63,1777.11 3076.04,1781.45 3076.04,1787.26 C3076.04,1791.41 3075.61,1794.62 3074.75,1796.91 C3073.88,1799.2 3072.89,1800.59 3071.78,1801.09 C3070.66,1801.58 3069.67,1802.15 3068.81,1802.8 C3067.94,1803.45 3067.51,1804.4 3067.51,1805.63"/>
<path class="FiguredBass" d="M3063.98,1907.95 C3068.93,1902.57 3071.41,1897.37 3071.41,1892.37 C3071.41,1888.28 3069.66,1885.07 3066.16,1882.72 C3062.67,1880.37 3058.48,1879.19 3053.59,1879.19 C3050.13,1879.19 3047.36,1880.27 3045.29,1882.44 C3043.22,1884.6 3042.18,1887.11 3042.18,1889.95 C3042.18,1893.42 3043.7,1896.05 3046.73,1897.84 L3063.98,1907.95 M3068.53,1910.55 C3076.94,1915.43 3081.15,1921.87 3081.15,1929.85 C3081.15,1935.84 3078.58,1940.99 3073.45,1945.29 C3068.31,1949.59 3061.29,1951.74 3052.39,1951.74 C3044.9,1951.74 3038.39,1949.76 3032.86,1945.8 C3027.32,1941.84 3024.55,1936.71 3024.55,1930.4 C3024.55,1928.05 3025.24,1925.67 3026.6,1923.26 C3027.96,1920.85 3029.22,1919.04 3030.4,1917.83 C3031.57,1916.63 3033.49,1914.75 3036.15,1912.22 C3029.97,1907.95 3026.87,1902.57 3026.87,1896.08 C3026.87,1890.51 3029.26,1885.72 3034.02,1881.7 C3038.78,1877.68 3045.31,1875.67 3053.59,1875.67 C3060.21,1875.67 3065.95,1877.17 3070.8,1880.17 C3075.66,1883.16 3078.09,1887.23 3078.09,1892.37 C3078.09,1897.87 3074.9,1903.93 3068.53,1910.55 M3040.7,1914.91 C3034.39,1920.41 3031.23,1925.58 3031.23,1930.4 C3031.23,1935.47 3033.34,1939.71 3037.54,1943.11 C3041.75,1946.51 3046.7,1948.21 3052.39,1948.21 C3056.35,1948.21 3059.52,1946.95 3061.9,1944.41 C3064.28,1941.88 3065.47,1938.94 3065.47,1935.6 C3065.47,1931.33 3063.71,1928.18 3060.18,1926.13 L3040.7,1914.91 "/>
<path class="FiguredBass" d="M3033,1981.42 C3033,1981.42 3034.48,1981.63 3037.45,1982.07 C3038.75,1982.25 3040.2,1982.44 3041.81,1982.62 C3046.08,1983.12 3050.19,1983.36 3054.15,1983.36 C3058.11,1983.36 3062.28,1983.12 3066.67,1982.62 C3068.41,1982.44 3069.92,1982.25 3071.22,1982.07 L3075.77,1981.42 C3076.69,1981.42 3077.39,1981.73 3077.85,1982.34 C3078.32,1982.96 3078.27,1983.46 3077.71,1983.83 C3068.25,1993.29 3054.92,1998.02 3037.73,1998.02 C3037.05,1998.02 3036.45,1998.27 3035.92,1998.76 C3035.39,1999.26 3035.13,1999.88 3035.13,2000.62 L3035.13,2015.19 C3039.52,2010.86 3044.84,2008.69 3051.09,2008.69 C3060.12,2008.69 3067.09,2010.72 3072.01,2014.77 C3076.93,2018.82 3079.38,2024.96 3079.38,2033.18 C3079.38,2040.17 3076.6,2045.97 3071.03,2050.58 C3065.47,2055.19 3058.82,2057.49 3051.09,2057.49 C3044.41,2057.49 3038.61,2055.97 3033.69,2052.94 C3028.78,2049.91 3026.32,2045.71 3026.32,2040.33 C3026.32,2037.61 3027.31,2035.24 3029.29,2033.23 C3031.27,2031.22 3033.63,2030.21 3036.38,2030.21 C3039.14,2030.21 3041.47,2031.2 3043.39,2033.18 C3045.31,2035.16 3046.26,2037.54 3046.26,2040.33 C3046.26,2041.56 3045.24,2042.91 3043.2,2044.36 C3041.16,2045.82 3040.14,2047.16 3040.14,2048.4 C3040.14,2052.11 3043.79,2053.96 3051.09,2053.96 C3058.2,2053.96 3061.76,2047.04 3061.76,2033.18 C3061.76,2019.82 3058.2,2013.11 3051.09,2013.05 C3044.72,2013.05 3040.26,2014.35 3037.73,2016.95 C3035.19,2019.55 3033.62,2020.84 3033,2020.84 C3031.45,2020.84 3030.71,2020.07 3030.77,2018.53 L3030.77,1983.83 C3030.77,1983.15 3030.99,1982.58 3031.42,1982.11 C3031.85,1981.65 3032.38,1981.42 3033,1981.42"/>
<polyline class="FretDiagram" stroke="#0000ff" stroke-width="4.76" stroke-linejoin="bevel" points="529.931,206.022 743.039,206.022"/>
<polyline class="FretDiagram" stroke="#0000ff" stroke-width="4.76" stroke-linejoin="bevel" points="532.312,194.117 532.312,420.321"/>
<polyline class="FretDiagram" stroke="#0000ff" stroke-width="4.76" stroke-linejoin="bevel" points="573.981,194.117 573.981,420.321"/>
<polyline class="FretDiagram" stroke="#0000ff" stroke-width="4.76" stroke-linejoin="bevel" points="615.65,194.117 615.65,420.321"/>
<polyline class="FretDiagram" stroke="#0000ff" stroke-width="4.76" stroke-linejoin="bevel" points="657.32,194.117 657.32,420.321"/>
<polyline class="FretDiagram" stroke="#0000ff" stroke-width="4.76" stroke-linejoin="bevel" points="698.989,194.117 698.989,420.321"/>
<polyline class="FretDiagram" stroke="#0000ff" stroke-width="4.76" stroke-linejoin="bevel" points="740.658,194.117 740.658,420.321"/>
<polyline class="FretDiagram" stroke="#0000ff" stroke-width="4.76" stroke-linejoin="bevel" points="532.312,253.644 740.658,253.644"/>
<polyline class="FretDiagram" stroke="#0000ff" stroke-width="4.76" stroke-linejoin="bevel" points="532.312,301.266 740.658,301.266"/>
<polyline class="FretDiagram" stroke="#0000ff" stroke-width="4.76" stroke-linejoin="bevel" points="532.312,348.888 740.658,348.888"/>
<polyline class="FretDiagram" stroke="#0000ff" stroke-width="4.76" stroke-linejoin="bevel" points="532.312,396.51 740.658,396.51"/>
<path class="FretDiagram" fill="#0000ff" fill-rule="evenodd" d="M546.896,372.699 C546.896,380.754 540.366,387.284 532.312,387.284 C524.257,387.284 517.727,380.754 517.727,372.699 C517.727,364.645 524.257,358.115 532.312,358.115 C540.366,358.115 546.896,364.645 546.896,372.699"/>
<path class="FretDiagram" fill="#0000ff" fill-rule="evenodd" d="M588.565,325.077 C588.565,333.132 582.036,339.661 573.981,339.661 C565.926,339.661 559.397,333.132 559.397,325.077 C559.397,317.023 565.926,310.493 573.981,310.493 C582.036,310.493 588.565,317.023 588.565,325.077"/>
<path class="FretDiagram" fill="#0000ff" fill-rule="evenodd" d="M671.904,277.455 C671.904,285.51 665.374,292.039 657.32,292.039 C649.265,292.039 642.735,285.51 642.735,277.455 C642.735,269.401 649.265,262.871 657.32,262.871 C665.374,262.871 671.904,269.401 671.904,277.455"/>
<path class="FretDiagram" fill="none" stroke="#0000ff" stroke-width="6.86" stroke-linecap="round" stroke-linejoin="bevel" fill-rule="evenodd" d="M632.318,158.4 C632.318,167.605 624.856,175.068 615.65,175.068 C606.445,175.068 598.983,167.605 598.983,158.4 C598.983,149.195 606.445,141.732 615.65,141.732 C624.856,141.732 632.318,149.195 632.318,158.4"/>
<path class="FretDiagram" fill="none" stroke="#0000ff" stroke-width="6.86" stroke-linecap="round" stroke-linejoin="bevel" fill-rule="evenodd" d="M715.657,158.4 C715.657,167.605 708.194,175.068 698.989,175.068 C689.784,175.068 682.321,167.605 682.321,158.4 C682.321,149.195 689.784,141.732 698.989,141.732 C708.194,141.732 715.657,149.195 715.657,158.4"/>
<polyline class="FretDiagram" fill="none" stroke="#0000ff" stroke-width="6.86" stroke-linecap="round" stroke-linejoin="bevel" points="723.99,141.732 757.326,175.068"/>
<polyline class="FretDiagram" fill="none" stroke="#0000ff" stroke-width="6.86" stroke-linecap="round" stroke-linejoin="bevel" points="723.99,175.068 757.326,141.732"/>
<polyline class="FretDiagram" fill="none" stroke="#0000ff" stroke-width="29.17" stroke-linecap="round" stroke-linejoin="bevel" points="573.981,229.833 740.658,229.833"/>
<path class="FretDiagram" fill="#0000ff" d="M467.593,219.1 C468.036,203.52 475.446,195.73 489.823,195.73 C496.22,195.73 501.413,197.566 505.403,201.24 C509.393,204.913 511.388,209.663 511.388,215.49 C511.388,223.85 506.638,230.626 497.138,235.82 L487.638,240.95 C483.521,243.166 480.576,245.32 478.803,247.41 C477.03,249.5 475.921,251.97 475.478,254.82 L510.913,254.82 L510.913,263.085 L466.073,263.085 C466.453,255.675 467.941,249.959 470.538,245.937 C473.135,241.915 477.948,237.91 484.978,233.92 L493.718,228.98 C499.798,225.496 502.838,221.063 502.838,215.68 C502.838,212.07 501.571,209.061 499.038,206.655 C496.505,204.248 493.338,203.045 489.538,203.045 C481.115,203.045 476.586,208.396 475.953,219.1 L467.593,219.1 "/>
<polyline class="FretDiagram" fill="#0000ff" stroke="#0000ff" stroke-width="4.76" stroke-linejoin="bevel" points="1791.46,206.022 2004.57,206.022"/>
<polyline class="FretDiagram" fill="#0000ff" stroke="#0000ff" stroke-width="4.76" stroke-linejoin="bevel" points="1793.84,194.117 1793.84,420.321"/>
<polyline class="FretDiagram" fill="#0000ff" stroke="#0000ff" stroke-width="4.76" stroke-linejoin="bevel" points="1835.51,194.117 1835.51,420.321"/>
<polyline class="FretDiagram" fill="#0000ff" stroke="#0000ff" stroke-width="4.76" stroke-linejoin="bevel" points="1877.18,194.117 1877.18,420.321"/>
<polyline class="FretDiagram" fill="#0000ff" stroke="#0000ff" stroke-width="4.76" stroke-linejoin="bevel" points="1918.85,194.117 1918.85,420.321"/>
<polyline class="FretDiagram" fill="#0000ff" stroke="#0000ff" stroke-width="4.76" stroke-linejoin="bevel" points="1960.52,194.117 1960.52,420.321"/>
<polyline class="FretDiagram" fill="#0000ff" stroke="#0000ff" stroke-width="4.76" stroke-linejoin="bevel" points="2002.19,194.117 2002.19,420.321"/>
<polyline class="FretDiagram" fill="#0000ff" stroke="#0000ff" stroke-width="4.76" stroke-linejoin="bevel" points="1793.84,253.644 2002.19,253.644"/>
<polyline class="FretDiagram" fill="#0000ff" stroke="#0000ff" stroke-width="4.76" stroke-linejoin="bevel" points="1793.84,301.266 2002.19,301.266"/>
<polyline class="FretDiagram" fill="#0000ff" stroke="#0000ff" stroke-width="4.76" stroke-linejoin="bevel" points="1793.84,348.888 2002.19,348.888"/>
<polyline class="FretDiagram" fill="#0000ff" stroke="#0000ff" stroke-width="4.76" stroke-linejoin="bevel" points="1793.84,396.51 2002.19,396.51"/>
<path class="FretDiagram" fill="#0000ff" fill-rule="evenodd" d="M1850.09,325.077 C1850.09,333.132 1843.56,339.661 1835.51,339.661 C1827.45,339.661 1820.92,333.132 1820.92,325.077 C1820.92,317.023 1827.45,310.493 1835.51,310.493 C1843.56,310.493 1850.09,317.023 1850.09,325.077"/>
<path class="FretDiagram" fill="#0000ff" fill-rule="evenodd" d="M1891.76,325.077 C1891.76,333.132 1885.23,339.661 1877.18,339.661 C1869.12,339.661 1862.59,333.132 1862.59,325.077 C1862.59,317.023 1869.12,310.493 1877.18,310.493 C1885.23,310.493 1891.76,317.023 1891.76,325.077"/>
<path class="FretDiagram" fill="#0000ff" fill-rule="evenodd" d="M1933.43,325.077 C1933.43,333.132 1926.9,339.661 1918.85,339.661 C1910.79,339.661 1904.26,333.132 1904.26,325.077 C1904.26,317.023 1910.79,310.493 1918.85,310.493 C1926.9,310.493 1933.43,317.023 1933.43,325.077"/>
<path class="FretDiagram" fill="none" stroke="#0000ff" stroke-width="6.86" stroke-linecap="round" stroke-linejoin="bevel" fill-rule="evenodd" d="M1810.51,158.4 C1810.51,167.605 1803.04,175.068 1793.84,175.068 C1784.63,175.068 1777.17,167.605 1777.17,158.4 C1777.17,149.195 1784.63,141.732 1793.84,141.732 C1803.04,141.732 1810.51,149.195 1810.51,158.4"/>
<path class="FretDiagram" fill="none" stroke="#0000ff" stroke-width="6.86" stroke-linecap="round" stroke-linejoin="bevel" fill-rule="evenodd" d="M1977.18,158.4 C1977.18,167.605 1969.72,175.068 1960.52,175.068 C1951.31,175.068 1943.85,167.605 1943.85,158.4 C1943.85,149.195 1951.31,141.732 1960.52,141.732 C1969.72,141.732 1977.18,149.195 1977.18,158.4"/>
<path class="FretDiagram" fill="none" stroke="#0000ff" stroke-width="6.86" stroke-linecap="round" stroke-linejoin="bevel" fill-rule="evenodd" d="M2018.85,158.4 C2018.85,167.605 2011.39,175.068 2002.19,175.068 C1992.98,175.068 1985.52,167.605 1985.52,158.4 C1985.52,149.195 1992.98,141.732 2002.19,141.732 C2011.39,141.732 2018.85,149.195 2018.85,158.4"/>
<polyline class="FretDiagram" fill="none" stroke="#0000ff" stroke-width="29.17" stroke-linecap="round" stroke-linejoin="bevel" points="1793.84,229.833 2002.19,229.833"/>
<path class="FretDiagram" fill="#0000ff" d="M1769.59,195.73 L1769.59,203.995 L1741.56,203.995 L1738.9,222.805 C1742.64,220.081 1746.79,218.72 1751.35,218.72 C1757.81,218.72 1763.05,220.794 1767.07,224.942 C1771.09,229.09 1773.1,234.49 1773.1,241.14 C1773.1,248.233 1770.95,254.028 1766.64,258.525 C1762.34,263.021 1756.8,265.27 1750.02,265.27 C1747.42,265.27 1745.03,264.985 1742.85,264.415 C1740.66,263.845 1738.86,263.164 1737.43,262.372 C1736.01,261.58 1734.71,260.535 1733.54,259.237 C1732.37,257.939 1731.48,256.799 1730.88,255.817 C1730.28,254.835 1729.71,253.6 1729.17,252.112 C1728.63,250.624 1728.3,249.595 1728.17,249.025 C1728.04,248.455 1727.88,247.631 1727.69,246.555 L1736.05,246.555 C1738.02,254.091 1742.61,257.86 1749.83,257.86 C1754.39,257.86 1757.98,256.466 1760.61,253.68 C1763.24,250.893 1764.55,247.093 1764.55,242.28 C1764.55,237.276 1763.22,233.334 1760.56,230.452 C1757.9,227.57 1754.33,226.13 1749.83,226.13 C1747.23,226.13 1745.02,226.589 1743.18,227.507 C1741.34,228.425 1739.44,230.056 1737.48,232.4 L1729.78,232.4 L1734.82,195.73 L1769.59,195.73 "/>
<polyline class="FretDiagram" fill="#0000ff" stroke="#0000ff" stroke-width="4.76" stroke-linejoin="bevel" points="2952.01,206.022 3165.12,206.022"/>
<polyline class="FretDiagram" fill="#0000ff" stroke="#0000ff" stroke-width="4.76" stroke-linejoin="bevel" points="2954.4,194.117 2954.4,420.321"/>
<polyline class="FretDiagram" fill="#0000ff" stroke="#0000ff" stroke-width="4.76" stroke-linejoin="bevel" points="2996.07,194.117 2996.07,420.321"/>
<polyline class="FretDiagram" fill="#0000ff" stroke="#0000ff" stroke-width="4.76" stroke-linejoin="bevel" points="3037.73,194.117 3037.73,420.321"/>
<polyline class="FretDiagram" fill="#0000ff" stroke="#0000ff" stroke-width="4.76" stroke-linejoin="bevel" points="3079.4,194.117 3079.4,420.321"/>
<polyline class="FretDiagram" fill="#0000ff" stroke="#0000ff" stroke-width="4.76" stroke-linejoin="bevel" points="3121.07,194.117 3121.07,420.321"/>
<polyline class="FretDiagram" fill="#0000ff" stroke="#0000ff" stroke-width="4.76" stroke-linejoin="bevel" points="3162.74,194.117 3162.74,420.321"/>
<polyline class="FretDiagram" fill="#0000ff" stroke="#0000ff" stroke-width="4.76" stroke-linejoin="bevel" points="2954.4,253.644 3162.74,253.644"/>
<polyline class="FretDiagram" fill="#0000ff" stroke="#0000ff" stroke-width="4.76" stroke-linejoin="bevel" points="2954.4,301.266 3162.74,301.266"/>
<polyline class="FretDiagram" fill="#0000ff" stroke="#0000ff" stroke-width="4.76" stroke-linejoin="bevel" points="2954.4,348.888 3162.74,348.888"/>
<polyline class="FretDiagram" fill="#0000ff" stroke="#0000ff" stroke-width="4.76" stroke-linejoin="bevel" points="2954.4,396.51 3162.74,396.51"/>
<path class="FretDiagram" fill="#0000ff" fill-rule="evenodd" d="M3010.65,325.077 C3010.65,333.132 3004.12,339.661 2996.07,339.661 C2988.01,339.661 2981.48,333.132 2981.48,325.077 C2981.48,317.023 2988.01,310.493 2996.07,310.493 C3004.12,310.493 3010.65,317.023 3010.65,325.077"/>
<path class="FretDiagram" fill="#0000ff" fill-rule="evenodd" d="M3052.32,325.077 C3052.32,333.132 3045.79,339.661 3037.73,339.661 C3029.68,339.661 3023.15,333.132 3023.15,325.077 C3023.15,317.023 3029.68,310.493 3037.73,310.493 C3045.79,310.493 3052.32,317.023 3052.32,325.077"/>
<path class="FretDiagram" fill="#0000ff" fill-rule="evenodd" d="M3093.99,277.455 C3093.99,285.51 3087.46,292.039 3079.4,292.039 C3071.35,292.039 3064.82,285.51 3064.82,277.455 C3064.82,269.401 3071.35,262.871 3079.4,262.871 C3087.46,262.871 3093.99,269.401 3093.99,277.455"/>
<path class="FretDiagram" fill="none" stroke="#0000ff" stroke-width="6.86" stroke-linecap="round" stroke-linejoin="bevel" fill-rule="evenodd" d="M2971.06,158.4 C2971.06,167.605 2963.6,175.068 2954.4,175.068 C2945.19,175.068 2937.73,167.605 2937.73,158.4 C2937.73,149.195 2945.19,141.732 2954.4,141.732 C2963.6,141.732 2971.06,149.195 2971.06,158.4"/>
<path class="FretDiagram" fill="none" stroke="#0000ff" stroke-width="6.86" stroke-linecap="round" stroke-linejoin="bevel" fill-rule="evenodd" d="M3137.74,158.4 C3137.74,167.605 3130.28,175.068 3121.07,175.068 C3111.87,175.068 3104.41,167.605 3104.41,158.4 C3104.41,149.195 3111.87,141.732 3121.07,141.732 C3130.28,141.732 3137.74,149.195 3137.74,158.4"/>
<path class="FretDiagram" fill="none" stroke="#0000ff" stroke-width="6.86" stroke-linecap="round" stroke-linejoin="bevel" fill-rule="evenodd" d="M3179.41,158.4 C3179.41,167.605 3171.95,175.068 3162.74,175.068 C3153.54,175.068 3146.07,167.605 3146.07,158.4 C3146.07,149.195 3153.54,141.732 3162.74,141.732 C3171.95,141.732 3179.41,149.195 3179.41,158.4"/>
<polyline class="FretDiagram" fill="none" stroke="#0000ff" stroke-width="29.17" stroke-linecap="round" stroke-linejoin="bevel" points="2954.4,229.833 3162.74,229.833"/>
<path class="FretDiagram" fill="#0000ff" d="M2930.15,195.73 L2930.15,203.995 L2902.12,203.995 L2899.46,222.805 C2903.2,220.081 2907.35,218.72 2911.91,218.72 C2918.37,218.72 2923.61,220.794 2927.63,224.942 C2931.65,229.09 2933.66,234.49 2933.66,241.14 C2933.66,248.233 2931.51,254.028 2927.2,258.525 C2922.9,263.021 2917.35,265.27 2910.58,265.27 C2907.98,265.27 2905.59,264.985 2903.4,264.415 C2901.22,263.845 2899.41,263.164 2897.99,262.372 C2896.56,261.58 2895.27,260.535 2894.09,259.237 C2892.92,257.939 2892.04,256.799 2891.43,255.817 C2890.83,254.835 2890.26,253.6 2889.72,252.112 C2889.19,250.624 2888.85,249.595 2888.73,249.025 C2888.6,248.455 2888.44,247.631 2888.25,246.555 L2896.61,246.555 C2898.58,254.091 2903.17,257.86 2910.39,257.86 C2914.95,257.86 2918.54,256.466 2921.17,253.68 C2923.8,250.893 2925.11,247.093 2925.11,242.28 C2925.11,237.276 2923.78,233.334 2921.12,230.452 C2918.46,227.57 2914.88,226.13 2910.39,226.13 C2907.79,226.13 2905.57,226.589 2903.74,227.507 C2901.9,228.425 2900,230.056 2898.04,232.4 L2890.34,232.4 L2895.38,195.73 L2930.15,195.73 "/>
<path class="Bracket" transform="matrix(8.6315,0,0,9.45563,76.1283,2345.71)" d="M0.92002,-50 C2.69004,-51.88 6.2,-55.8 6.2,-63 C6.2,-72.1 2.25996,-81.32 2.25996,-86.97 C2.25996,-93.06 5.84004,-98.84 5.95,-99 C6.05996,-99.16 6.05,-99.39 5.94004,-99.46 C5.82998,-99.53 5.62002,-99.47 5.49004,-99.32 C5.35996,-99.17 0,-93.75 0,-85.6 C0,-76.75 3.5,-70.58 3.5,-59.07 C3.5,-56.89 2.55996,-53.36 0.1,-50.33 C-0.0799805,-50.17 -0.1,-49.89 0.0599609,-49.7 L0.0700195,-49.69 L0.1,-49.66 C2.55996,-46.63 3.5,-43.1 3.5,-40.92 C3.5,-29.4 0,-23.24 0,-14.39 C0,-6.25 5.35996,-0.8 5.49004,-0.659961 C5.62002,-0.52002 5.8,-0.42998 5.94004,-0.52002 C6.07998,-0.609961 6.07998,-0.77998 5.95,-0.97998 C5.82002,-1.17998 2.25996,-6.92002 2.25996,-13.01 C2.25996,-18.66 6.2,-27.9 6.2,-37 C6.2,-44.3 2.69004,-48.12 0.92002,-50"/>
</svg>
