<?xml version="1.0" encoding="UTF-8" standalone="no"?>
<svg width="4209.44px" height="2976.38px" viewBox="0 0 4209.44 2976.38"
 xmlns="http://www.w3.org/2000/svg" xmlns:xlink="http://www.w3.org/1999/xlink" version="1.2" baseProfile="tiny">
<title>Cordes (50)</title>
<desc>Generated by MuseScore 3.6.2</desc>
<polyline class="StaffLines" fill="none" stroke="#000000" stroke-width="6.55" stroke-linejoin="bevel" points="153.819,558.425 4138.58,558.425"/>
<polyline class="StaffLines" fill="none" stroke="#000000" stroke-width="6.55" stroke-linejoin="bevel" points="153.819,647.717 4138.58,647.717"/>
<polyline class="StaffLines" fill="none" stroke="#000000" stroke-width="6.55" stroke-linejoin="bevel" points="153.819,737.008 4138.58,737.008"/>
<polyline class="StaffLines" fill="none" stroke="#000000" stroke-width="6.55" stroke-linejoin="bevel" points="153.819,826.299 4138.58,826.299"/>
<polyline class="StaffLines" fill="none" stroke="#000000" stroke-width="6.55" stroke-linejoin="bevel" points="153.819,915.591 4138.58,915.591"/>
<polyline class="StaffLines" fill="none" stroke="#000000" stroke-width="6.55" stroke-linejoin="bevel" points="153.819,1004.88 4138.58,1004.88"/>
<polyline class="StaffLines" fill="none" stroke="#000000" stroke-width="6.55" stroke-linejoin="bevel" points="153.819,1391.81 4138.58,1391.81"/>
<polyline class="StaffLines" fill="none" stroke="#000000" stroke-width="6.55" stroke-linejoin="bevel" points="153.819,1451.34 4138.58,1451.34"/>
<polyline class="StaffLines" fill="none" stroke="#000000" stroke-width="6.55" stroke-linejoin="bevel" points="153.819,1510.87 4138.58,1510.87"/>
<polyline class="StaffLines" fill="none" stroke="#000000" stroke-width="6.55" stroke-linejoin="bevel" points="153.819,1570.39 4138.58,1570.39"/>
<polyline class="StaffLines" fill="none" stroke="#000000" stroke-width="6.55" stroke-linejoin="bevel" points="153.819,1629.92 4138.58,1629.92"/>
<polyline class="StaffLines" fill="none" stroke="#000000" stroke-width="6.55" stroke-linejoin="bevel" points="153.819,2099.26 4138.58,2099.26"/>
<polyline class="StaffLines" fill="none" stroke="#000000" stroke-width="6.55" stroke-linejoin="bevel" points="153.819,2158.79 4138.58,2158.79"/>
<polyline class="StaffLines" fill="none" stroke="#000000" stroke-width="6.55" stroke-linejoin="bevel" points="153.819,2218.32 4138.58,2218.32"/>
<polyline class="StaffLines" fill="none" stroke="#000000" stroke-width="6.55" stroke-linejoin="bevel" points="153.819,2277.85 4138.58,2277.85"/>
<polyline class="StaffLines" fill="none" stroke="#000000" stroke-width="6.55" stroke-linejoin="bevel" points="153.819,2337.37 4138.58,2337.37"/>
<polyline class="BarLine" fill="none" stroke="#000000" stroke-width="10.71" stroke-linejoin="bevel" points="159.176,2095.99 159.176,2340.65"/>
<polyline class="BarLine" fill="none" stroke="#000000" stroke-width="10.71" stroke-linejoin="bevel" points="1216.62,2095.99 1216.62,2340.65"/>
<polyline class="BarLine" fill="none" stroke="#000000" stroke-width="10.71" stroke-linejoin="bevel" points="1891.14,2095.99 1891.14,2340.65"/>
<polyline class="BarLine" fill="none" stroke="#000000" stroke-width="10.71" stroke-linejoin="bevel" points="2646.51,2095.99 2646.51,2340.65"/>
<polyline class="BarLine" fill="none" stroke="#000000" stroke-width="10.71" stroke-linejoin="bevel" points="2679.25,2095.99 2679.25,2340.65"/>
<polyline class="BarLine" fill="none" stroke="#000000" stroke-width="10.71" stroke-linejoin="bevel" points="3344.97,2095.99 3344.97,2340.65"/>
<polyline class="BarLine" fill="none" stroke="#000000" stroke-width="10.71" stroke-linejoin="bevel" points="3377.71,2095.99 3377.71,2340.65"/>
<polyline class="BarLine" fill="none" stroke="#000000" stroke-width="10.71" stroke-linejoin="bevel" points="4100.48,2095.99 4100.48,2340.65"/>
<polyline class="BarLine" fill="none" stroke="#000000" stroke-width="10.71" stroke-linejoin="bevel" points="4133.22,2095.99 4133.22,2340.65"/>
<polyline class="BarLine" fill="none" stroke="#000000" stroke-width="10.71" stroke-linejoin="bevel" points="159.176,1388.54 159.176,2099.26"/>
<polyline class="BarLine" fill="none" stroke="#000000" stroke-width="10.71" stroke-linejoin="bevel" points="1216.62,1388.54 1216.62,1633.2"/>
<polyline class="BarLine" fill="none" stroke="#000000" stroke-width="10.71" stroke-linejoin="bevel" points="1891.14,1388.54 1891.14,1633.2"/>
<polyline class="BarLine" fill="none" stroke="#000000" stroke-width="10.71" stroke-linejoin="bevel" points="2646.51,1388.54 2646.51,1633.2"/>
<polyline class="BarLine" fill="none" stroke="#000000" stroke-width="10.71" stroke-linejoin="bevel" points="2679.25,1388.54 2679.25,1633.2"/>
<polyline class="BarLine" fill="none" stroke="#000000" stroke-width="10.71" stroke-linejoin="bevel" points="3344.97,1388.54 3344.97,1633.2"/>
<polyline class="BarLine" fill="none" stroke="#000000" stroke-width="10.71" stroke-linejoin="bevel" points="3377.71,1388.54 3377.71,1633.2"/>
<polyline class="BarLine" fill="none" stroke="#000000" stroke-width="10.71" stroke-linejoin="bevel" points="4100.48,1388.54 4100.48,1633.2"/>
<polyline class="BarLine" fill="none" stroke="#000000" stroke-width="10.71" stroke-linejoin="bevel" points="4133.22,1388.54 4133.22,1633.2"/>
<polyline class="BarLine" fill="none" stroke="#000000" stroke-width="10.71" stroke-linejoin="bevel" points="159.176,555.151 159.176,1391.81"/>
<polyline class="BarLine" fill="none" stroke="#000000" stroke-width="10.71" stroke-linejoin="bevel" points="1216.62,555.151 1216.62,1008.16"/>
<polyline class="BarLine" fill="none" stroke="#000000" stroke-width="10.71" stroke-linejoin="bevel" points="1891.14,555.151 1891.14,1008.16"/>
<polyline class="BarLine" fill="none" stroke="#000000" stroke-width="10.71" stroke-linejoin="bevel" points="2646.51,555.151 2646.51,1008.16"/>
<polyline class="BarLine" fill="none" stroke="#000000" stroke-width="10.71" stroke-linejoin="bevel" points="2679.25,555.151 2679.25,1008.16"/>
<polyline class="BarLine" fill="none" stroke="#000000" stroke-width="10.71" stroke-linejoin="bevel" points="3344.97,555.151 3344.97,1008.16"/>
<polyline class="BarLine" fill="none" stroke="#000000" stroke-width="10.71" stroke-linejoin="bevel" points="3377.71,555.151 3377.71,1008.16"/>
<polyline class="BarLine" fill="none" stroke="#000000" stroke-width="10.71" stroke-linejoin="bevel" points="4100.48,555.151 4100.48,1008.16"/>
<polyline class="BarLine" fill="none" stroke="#000000" stroke-width="10.71" stroke-linejoin="bevel" points="4133.22,555.151 4133.22,1008.16"/>
<path class="Accidental" transform="matrix(2.3811,0,0,2.3811,2730.68,2307.61)" d="M23.3,-10.6 C23.9,-10.7 24.4,-11.4 24.4,-12 L24.4,-17.9 C24.4,-18.7 23.8,-19.3 23,-19.3 L22.8,-19.3 L19.5,-18.6 L19.5,-33.5 L16.7,-33.5 L16.7,-18 L7.8,-16.2 L7.8,-30.3 L5,-30.3 L5,-15.6 L1.1,-14.8 C0.5,-14.7 0,-14 0,-13.4 L0,-13.2 L0,-7.4 L0,-7.6 C0,-6.8 0.6,-6.2 1.4,-6.2 L1.7,-6.2 L5,-6.9 L5,9.6 L1.1,10.4 C0.5,10.5 0,11.2 0,11.8 L0,17.6 C0,18.4 0.6,19 1.4,19 L1.7,19 L5,18.3 L5,33.2 L7.8,33.2 L7.8,17.7 L16.7,15.9 L16.7,30 L19.5,30 L19.5,15.3 L23.3,14.6 C23.9,14.5 24.4,13.8 24.4,13.2 L24.4,7.3 C24.4,6.5 23.8,5.9 23,5.9 L22.8,5.9 L19.5,6.6 L19.5,-9.9 L23.3,-10.6 M7.8,9.1 L7.8,-7.5 L16.7,-9.3 L16.7,7.2 L7.8,9.1 "/>
<path class="Accidental" transform="matrix(2.3811,0,0,2.3811,513.384,1629.92)" d="M20.1,-7.9 C19.5,-11.8 17.1,-15.5 12,-15.5 C7,-15.5 4.1,-12.4 3.6,-11.8 L4,-43.9 C4,-44.7 3.4,-45.3 2.6,-45.3 L1.4,-45.3 C0.6,-45.3 0,-44.7 0,-43.9 L0.5,16.2 C0.5,17 1.1,17.6 1.9,17.6 C2.1,17.6 2.5,17.5 2.7,17.4 C3.1,17.2 9.6,14 15,7.9 C18.8,3.6 20.3,-1.3 20.3,-5.4 C20.3,-6.3 20.2,-7.1 20.1,-7.9 M13.2,-4 C13.2,-2.5 12.8,2.1 10.3,5.9 C8.6,8.5 5.2,11.2 3.3,12.7 L3.6,-6.8 C3.8,-7.7 5.3,-10.6 9.3,-10.6 C12.9,-10.6 13.2,-7.2 13.2,-5.1 L13.2,-4 "/>
<path class="Accidental" transform="matrix(2.3811,0,0,2.3811,1279.49,1421.57)" d="M20.1,-7.9 C19.5,-11.8 17.1,-15.5 12,-15.5 C7,-15.5 4.1,-12.4 3.6,-11.8 L4,-43.9 C4,-44.7 3.4,-45.3 2.6,-45.3 L1.4,-45.3 C0.6,-45.3 0,-44.7 0,-43.9 L0.5,16.2 C0.5,17 1.1,17.6 1.9,17.6 C2.1,17.6 2.5,17.5 2.7,17.4 C3.1,17.2 9.6,14 15,7.9 C18.8,3.6 20.3,-1.3 20.3,-5.4 C20.3,-6.3 20.2,-7.1 20.1,-7.9 M13.2,-4 C13.2,-2.5 12.8,2.1 10.3,5.9 C8.6,8.5 5.2,11.2 3.3,12.7 L3.6,-6.8 C3.8,-7.7 5.3,-10.6 9.3,-10.6 C12.9,-10.6 13.2,-7.2 13.2,-5.1 L13.2,-4 "/>
<path class="Accidental" transform="matrix(2.3811,0,0,2.3811,1954,1421.57)" d="M20.1,-7.9 C19.5,-11.8 17.1,-15.5 12,-15.5 C7,-15.5 4.1,-12.4 3.6,-11.8 L4,-43.9 C4,-44.7 3.4,-45.3 2.6,-45.3 L1.4,-45.3 C0.6,-45.3 0,-44.7 0,-43.9 L0.5,16.2 C0.5,17 1.1,17.6 1.9,17.6 C2.1,17.6 2.5,17.5 2.7,17.4 C3.1,17.2 9.6,14 15,7.9 C18.8,3.6 20.3,-1.3 20.3,-5.4 C20.3,-6.3 20.2,-7.1 20.1,-7.9 M13.2,-4 C13.2,-2.5 12.8,2.1 10.3,5.9 C8.6,8.5 5.2,11.2 3.3,12.7 L3.6,-6.8 C3.8,-7.7 5.3,-10.6 9.3,-10.6 C12.9,-10.6 13.2,-7.2 13.2,-5.1 L13.2,-4 "/>
<path class="Accidental" transform="matrix(2.3811,0,0,2.3811,2730.68,1481.1)" d="M23.3,-10.6 C23.9,-10.7 24.4,-11.4 24.4,-12 L24.4,-17.9 C24.4,-18.7 23.8,-19.3 23,-19.3 L22.8,-19.3 L19.5,-18.6 L19.5,-33.5 L16.7,-33.5 L16.7,-18 L7.8,-16.2 L7.8,-30.3 L5,-30.3 L5,-15.6 L1.1,-14.8 C0.5,-14.7 0,-14 0,-13.4 L0,-13.2 L0,-7.4 L0,-7.6 C0,-6.8 0.6,-6.2 1.4,-6.2 L1.7,-6.2 L5,-6.9 L5,9.6 L1.1,10.4 C0.5,10.5 0,11.2 0,11.8 L0,17.6 C0,18.4 0.6,19 1.4,19 L1.7,19 L5,18.3 L5,33.2 L7.8,33.2 L7.8,17.7 L16.7,15.9 L16.7,30 L19.5,30 L19.5,15.3 L23.3,14.6 C23.9,14.5 24.4,13.8 24.4,13.2 L24.4,7.3 C24.4,6.5 23.8,5.9 23,5.9 L22.8,5.9 L19.5,6.6 L19.5,-9.9 L23.3,-10.6 M7.8,9.1 L7.8,-7.5 L16.7,-9.3 L16.7,7.2 L7.8,9.1 "/>
<path class="Note" transform="matrix(2.3811,0,0,2.3811,576.595,2307.61)" d="M18.7,-13.6 C4.9,-13.6 0,-6.6 0,-0.1 C0,6.4 4.9,13.4 18.7,13.4 C32.5,13.4 37.3,6.4 37.3,-0.1 C37.3,-6.6 32.5,-13.6 18.7,-13.6 M10.4,-4.5 C10.3,-4.9 10.3,-5.3 10.3,-5.7 C10.3,-6.5 10.5,-7.3 10.9,-8 C11.6,-9 12.8,-9.7 14.3,-10 C15.6,-10.3 16.3,-10.5 18.9,-10.5 L19,-10.5 C23,-10.5 24.3,-6.8 25.4,-3 L25.7,-2 C26.5,0.6 26.9,2.8 26.9,4.5 C26.9,5.7 26.7,6.8 26.3,7.6 C25.7,8.7 24.7,9.4 23,9.8 C22.1,10 20.6,10.1 20.6,10.1 C20.1,10.1 19.7,10.2 19.3,10.2 C16.1,10.2 14.1,9 12.7,4.7 C11.5,1 11.3,-0.1 10.4,-4.5"/>
<path class="Note" transform="matrix(2.3811,0,0,2.3811,1342.7,2307.61)" d="M18.7,-13.6 C4.9,-13.6 0,-6.6 0,-0.1 C0,6.4 4.9,13.4 18.7,13.4 C32.5,13.4 37.3,6.4 37.3,-0.1 C37.3,-6.6 32.5,-13.6 18.7,-13.6 M10.4,-4.5 C10.3,-4.9 10.3,-5.3 10.3,-5.7 C10.3,-6.5 10.5,-7.3 10.9,-8 C11.6,-9 12.8,-9.7 14.3,-10 C15.6,-10.3 16.3,-10.5 18.9,-10.5 L19,-10.5 C23,-10.5 24.3,-6.8 25.4,-3 L25.7,-2 C26.5,0.6 26.9,2.8 26.9,4.5 C26.9,5.7 26.7,6.8 26.3,7.6 C25.7,8.7 24.7,9.4 23,9.8 C22.1,10 20.6,10.1 20.6,10.1 C20.1,10.1 19.7,10.2 19.3,10.2 C16.1,10.2 14.1,9 12.7,4.7 C11.5,1 11.3,-0.1 10.4,-4.5"/>
<path class="Note" transform="matrix(2.3811,0,0,2.3811,2105.19,2307.61)" d="M18.7,-13.6 C4.9,-13.6 0,-6.6 0,-0.1 C0,6.4 4.9,13.4 18.7,13.4 C32.5,13.4 37.3,6.4 37.3,-0.1 C37.3,-6.6 32.5,-13.6 18.7,-13.6 M10.4,-4.5 C10.3,-4.9 10.3,-5.3 10.3,-5.7 C10.3,-6.5 10.5,-7.3 10.9,-8 C11.6,-9 12.8,-9.7 14.3,-10 C15.6,-10.3 16.3,-10.5 18.9,-10.5 L19,-10.5 C23,-10.5 24.3,-6.8 25.4,-3 L25.7,-2 C26.5,0.6 26.9,2.8 26.9,4.5 C26.9,5.7 26.7,6.8 26.3,7.6 C25.7,8.7 24.7,9.4 23,9.8 C22.1,10 20.6,10.1 20.6,10.1 C20.1,10.1 19.7,10.2 19.3,10.2 C16.1,10.2 14.1,9 12.7,4.7 C11.5,1 11.3,-0.1 10.4,-4.5"/>
<path class="Note" transform="matrix(2.3811,0,0,2.3811,2803.65,2307.61)" d="M18.7,-13.6 C4.9,-13.6 0,-6.6 0,-0.1 C0,6.4 4.9,13.4 18.7,13.4 C32.5,13.4 37.3,6.4 37.3,-0.1 C37.3,-6.6 32.5,-13.6 18.7,-13.6 M10.4,-4.5 C10.3,-4.9 10.3,-5.3 10.3,-5.7 C10.3,-6.5 10.5,-7.3 10.9,-8 C11.6,-9 12.8,-9.7 14.3,-10 C15.6,-10.3 16.3,-10.5 18.9,-10.5 L19,-10.5 C23,-10.5 24.3,-6.8 25.4,-3 L25.7,-2 C26.5,0.6 26.9,2.8 26.9,4.5 C26.9,5.7 26.7,6.8 26.3,7.6 C25.7,8.7 24.7,9.4 23,9.8 C22.1,10 20.6,10.1 20.6,10.1 C20.1,10.1 19.7,10.2 19.3,10.2 C16.1,10.2 14.1,9 12.7,4.7 C11.5,1 11.3,-0.1 10.4,-4.5"/>
<path class="Note" transform="matrix(2.3811,0,0,2.3811,3460.45,2277.85)" d="M18.7,-13.6 C4.9,-13.6 0,-6.6 0,-0.1 C0,6.4 4.9,13.4 18.7,13.4 C32.5,13.4 37.3,6.4 37.3,-0.1 C37.3,-6.6 32.5,-13.6 18.7,-13.6 M10.4,-4.5 C10.3,-4.9 10.3,-5.3 10.3,-5.7 C10.3,-6.5 10.5,-7.3 10.9,-8 C11.6,-9 12.8,-9.7 14.3,-10 C15.6,-10.3 16.3,-10.5 18.9,-10.5 L19,-10.5 C23,-10.5 24.3,-6.8 25.4,-3 L25.7,-2 C26.5,0.6 26.9,2.8 26.9,4.5 C26.9,5.7 26.7,6.8 26.3,7.6 C25.7,8.7 24.7,9.4 23,9.8 C22.1,10 20.6,10.1 20.6,10.1 C20.1,10.1 19.7,10.2 19.3,10.2 C16.1,10.2 14.1,9 12.7,4.7 C11.5,1 11.3,-0.1 10.4,-4.5"/>
<path class="Note" transform="matrix(2.3811,0,0,2.3811,576.595,1629.92)" d="M18.7,-13.6 C4.9,-13.6 0,-6.6 0,-0.1 C0,6.4 4.9,13.4 18.7,13.4 C32.5,13.4 37.3,6.4 37.3,-0.1 C37.3,-6.6 32.5,-13.6 18.7,-13.6 M10.4,-4.5 C10.3,-4.9 10.3,-5.3 10.3,-5.7 C10.3,-6.5 10.5,-7.3 10.9,-8 C11.6,-9 12.8,-9.7 14.3,-10 C15.6,-10.3 16.3,-10.5 18.9,-10.5 L19,-10.5 C23,-10.5 24.3,-6.8 25.4,-3 L25.7,-2 C26.5,0.6 26.9,2.8 26.9,4.5 C26.9,5.7 26.7,6.8 26.3,7.6 C25.7,8.7 24.7,9.4 23,9.8 C22.1,10 20.6,10.1 20.6,10.1 C20.1,10.1 19.7,10.2 19.3,10.2 C16.1,10.2 14.1,9 12.7,4.7 C11.5,1 11.3,-0.1 10.4,-4.5"/>
<path class="Note" transform="matrix(2.3811,0,0,2.3811,658.854,1600.16)" d="M18.7,-13.6 C4.9,-13.6 0,-6.6 0,-0.1 C0,6.4 4.9,13.4 18.7,13.4 C32.5,13.4 37.3,6.4 37.3,-0.1 C37.3,-6.6 32.5,-13.6 18.7,-13.6 M10.4,-4.5 C10.3,-4.9 10.3,-5.3 10.3,-5.7 C10.3,-6.5 10.5,-7.3 10.9,-8 C11.6,-9 12.8,-9.7 14.3,-10 C15.6,-10.3 16.3,-10.5 18.9,-10.5 L19,-10.5 C23,-10.5 24.3,-6.8 25.4,-3 L25.7,-2 C26.5,0.6 26.9,2.8 26.9,4.5 C26.9,5.7 26.7,6.8 26.3,7.6 C25.7,8.7 24.7,9.4 23,9.8 C22.1,10 20.6,10.1 20.6,10.1 C20.1,10.1 19.7,10.2 19.3,10.2 C16.1,10.2 14.1,9 12.7,4.7 C11.5,1 11.3,-0.1 10.4,-4.5"/>
<path class="Note" transform="matrix(2.3811,0,0,2.3811,576.595,1481.1)" d="M18.7,-13.6 C4.9,-13.6 0,-6.6 0,-0.1 C0,6.4 4.9,13.4 18.7,13.4 C32.5,13.4 37.3,6.4 37.3,-0.1 C37.3,-6.6 32.5,-13.6 18.7,-13.6 M10.4,-4.5 C10.3,-4.9 10.3,-5.3 10.3,-5.7 C10.3,-6.5 10.5,-7.3 10.9,-8 C11.6,-9 12.8,-9.7 14.3,-10 C15.6,-10.3 16.3,-10.5 18.9,-10.5 L19,-10.5 C23,-10.5 24.3,-6.8 25.4,-3 L25.7,-2 C26.5,0.6 26.9,2.8 26.9,4.5 C26.9,5.7 26.7,6.8 26.3,7.6 C25.7,8.7 24.7,9.4 23,9.8 C22.1,10 20.6,10.1 20.6,10.1 C20.1,10.1 19.7,10.2 19.3,10.2 C16.1,10.2 14.1,9 12.7,4.7 C11.5,1 11.3,-0.1 10.4,-4.5"/>
<path class="Note" transform="matrix(2.3811,0,0,2.3811,1342.7,1600.16)" d="M18.7,-13.6 C4.9,-13.6 0,-6.6 0,-0.1 C0,6.4 4.9,13.4 18.7,13.4 C32.5,13.4 37.3,6.4 37.3,-0.1 C37.3,-6.6 32.5,-13.6 18.7,-13.6 M10.4,-4.5 C10.3,-4.9 10.3,-5.3 10.3,-5.7 C10.3,-6.5 10.5,-7.3 10.9,-8 C11.6,-9 12.8,-9.7 14.3,-10 C15.6,-10.3 16.3,-10.5 18.9,-10.5 L19,-10.5 C23,-10.5 24.3,-6.8 25.4,-3 L25.7,-2 C26.5,0.6 26.9,2.8 26.9,4.5 C26.9,5.7 26.7,6.8 26.3,7.6 C25.7,8.7 24.7,9.4 23,9.8 C22.1,10 20.6,10.1 20.6,10.1 C20.1,10.1 19.7,10.2 19.3,10.2 C16.1,10.2 14.1,9 12.7,4.7 C11.5,1 11.3,-0.1 10.4,-4.5"/>
<path class="Note" transform="matrix(2.3811,0,0,2.3811,1342.7,1481.1)" d="M18.7,-13.6 C4.9,-13.6 0,-6.6 0,-0.1 C0,6.4 4.9,13.4 18.7,13.4 C32.5,13.4 37.3,6.4 37.3,-0.1 C37.3,-6.6 32.5,-13.6 18.7,-13.6 M10.4,-4.5 C10.3,-4.9 10.3,-5.3 10.3,-5.7 C10.3,-6.5 10.5,-7.3 10.9,-8 C11.6,-9 12.8,-9.7 14.3,-10 C15.6,-10.3 16.3,-10.5 18.9,-10.5 L19,-10.5 C23,-10.5 24.3,-6.8 25.4,-3 L25.7,-2 C26.5,0.6 26.9,2.8 26.9,4.5 C26.9,5.7 26.7,6.8 26.3,7.6 C25.7,8.7 24.7,9.4 23,9.8 C22.1,10 20.6,10.1 20.6,10.1 C20.1,10.1 19.7,10.2 19.3,10.2 C16.1,10.2 14.1,9 12.7,4.7 C11.5,1 11.3,-0.1 10.4,-4.5"/>
<path class="Note" transform="matrix(2.3811,0,0,2.3811,1342.7,1421.57)" d="M18.7,-13.6 C4.9,-13.6 0,-6.6 0,-0.1 C0,6.4 4.9,13.4 18.7,13.4 C32.5,13.4 37.3,6.4 37.3,-0.1 C37.3,-6.6 32.5,-13.6 18.7,-13.6 M10.4,-4.5 C10.3,-4.9 10.3,-5.3 10.3,-5.7 C10.3,-6.5 10.5,-7.3 10.9,-8 C11.6,-9 12.8,-9.7 14.3,-10 C15.6,-10.3 16.3,-10.5 18.9,-10.5 L19,-10.5 C23,-10.5 24.3,-6.8 25.4,-3 L25.7,-2 C26.5,0.6 26.9,2.8 26.9,4.5 C26.9,5.7 26.7,6.8 26.3,7.6 C25.7,8.7 24.7,9.4 23,9.8 C22.1,10 20.6,10.1 20.6,10.1 C20.1,10.1 19.7,10.2 19.3,10.2 C16.1,10.2 14.1,9 12.7,4.7 C11.5,1 11.3,-0.1 10.4,-4.5"/>
<path class="Note" transform="matrix(2.3811,0,0,2.3811,2105.19,1481.1)" d="M18.7,-13.6 C4.9,-13.6 0,-6.6 0,-0.1 C0,6.4 4.9,13.4 18.7,13.4 C32.5,13.4 37.3,6.4 37.3,-0.1 C37.3,-6.6 32.5,-13.6 18.7,-13.6 M10.4,-4.5 C10.3,-4.9 10.3,-5.3 10.3,-5.7 C10.3,-6.5 10.5,-7.3 10.9,-8 C11.6,-9 12.8,-9.7 14.3,-10 C15.6,-10.3 16.3,-10.5 18.9,-10.5 L19,-10.5 C23,-10.5 24.3,-6.8 25.4,-3 L25.7,-2 C26.5,0.6 26.9,2.8 26.9,4.5 C26.9,5.7 26.7,6.8 26.3,7.6 C25.7,8.7 24.7,9.4 23,9.8 C22.1,10 20.6,10.1 20.6,10.1 C20.1,10.1 19.7,10.2 19.3,10.2 C16.1,10.2 14.1,9 12.7,4.7 C11.5,1 11.3,-0.1 10.4,-4.5"/>
<path class="Note" transform="matrix(2.3811,0,0,2.3811,2022.93,1421.57)" d="M18.7,-13.6 C4.9,-13.6 0,-6.6 0,-0.1 C0,6.4 4.9,13.4 18.7,13.4 C32.5,13.4 37.3,6.4 37.3,-0.1 C37.3,-6.6 32.5,-13.6 18.7,-13.6 M10.4,-4.5 C10.3,-4.9 10.3,-5.3 10.3,-5.7 C10.3,-6.5 10.5,-7.3 10.9,-8 C11.6,-9 12.8,-9.7 14.3,-10 C15.6,-10.3 16.3,-10.5 18.9,-10.5 L19,-10.5 C23,-10.5 24.3,-6.8 25.4,-3 L25.7,-2 C26.5,0.6 26.9,2.8 26.9,4.5 C26.9,5.7 26.7,6.8 26.3,7.6 C25.7,8.7 24.7,9.4 23,9.8 C22.1,10 20.6,10.1 20.6,10.1 C20.1,10.1 19.7,10.2 19.3,10.2 C16.1,10.2 14.1,9 12.7,4.7 C11.5,1 11.3,-0.1 10.4,-4.5"/>
<path class="Note" transform="matrix(2.3811,0,0,2.3811,2105.19,1391.81)" d="M18.7,-13.6 C4.9,-13.6 0,-6.6 0,-0.1 C0,6.4 4.9,13.4 18.7,13.4 C32.5,13.4 37.3,6.4 37.3,-0.1 C37.3,-6.6 32.5,-13.6 18.7,-13.6 M10.4,-4.5 C10.3,-4.9 10.3,-5.3 10.3,-5.7 C10.3,-6.5 10.5,-7.3 10.9,-8 C11.6,-9 12.8,-9.7 14.3,-10 C15.6,-10.3 16.3,-10.5 18.9,-10.5 L19,-10.5 C23,-10.5 24.3,-6.8 25.4,-3 L25.7,-2 C26.5,0.6 26.9,2.8 26.9,4.5 C26.9,5.7 26.7,6.8 26.3,7.6 C25.7,8.7 24.7,9.4 23,9.8 C22.1,10 20.6,10.1 20.6,10.1 C20.1,10.1 19.7,10.2 19.3,10.2 C16.1,10.2 14.1,9 12.7,4.7 C11.5,1 11.3,-0.1 10.4,-4.5"/>
<path class="Note" transform="matrix(2.3811,0,0,2.3811,2803.65,1629.92)" d="M18.7,-13.6 C4.9,-13.6 0,-6.6 0,-0.1 C0,6.4 4.9,13.4 18.7,13.4 C32.5,13.4 37.3,6.4 37.3,-0.1 C37.3,-6.6 32.5,-13.6 18.7,-13.6 M10.4,-4.5 C10.3,-4.9 10.3,-5.3 10.3,-5.7 C10.3,-6.5 10.5,-7.3 10.9,-8 C11.6,-9 12.8,-9.7 14.3,-10 C15.6,-10.3 16.3,-10.5 18.9,-10.5 L19,-10.5 C23,-10.5 24.3,-6.8 25.4,-3 L25.7,-2 C26.5,0.6 26.9,2.8 26.9,4.5 C26.9,5.7 26.7,6.8 26.3,7.6 C25.7,8.7 24.7,9.4 23,9.8 C22.1,10 20.6,10.1 20.6,10.1 C20.1,10.1 19.7,10.2 19.3,10.2 C16.1,10.2 14.1,9 12.7,4.7 C11.5,1 11.3,-0.1 10.4,-4.5"/>
<path class="Note" transform="matrix(2.3811,0,0,2.3811,2803.65,1481.1)" d="M18.7,-13.6 C4.9,-13.6 0,-6.6 0,-0.1 C0,6.4 4.9,13.4 18.7,13.4 C32.5,13.4 37.3,6.4 37.3,-0.1 C37.3,-6.6 32.5,-13.6 18.7,-13.6 M10.4,-4.5 C10.3,-4.9 10.3,-5.3 10.3,-5.7 C10.3,-6.5 10.5,-7.3 10.9,-8 C11.6,-9 12.8,-9.7 14.3,-10 C15.6,-10.3 16.3,-10.5 18.9,-10.5 L19,-10.5 C23,-10.5 24.3,-6.8 25.4,-3 L25.7,-2 C26.5,0.6 26.9,2.8 26.9,4.5 C26.9,5.7 26.7,6.8 26.3,7.6 C25.7,8.7 24.7,9.4 23,9.8 C22.1,10 20.6,10.1 20.6,10.1 C20.1,10.1 19.7,10.2 19.3,10.2 C16.1,10.2 14.1,9 12.7,4.7 C11.5,1 11.3,-0.1 10.4,-4.5"/>
<path class="Note" transform="matrix(2.3811,0,0,2.3811,3460.45,1600.16)" d="M18.7,-13.6 C4.9,-13.6 0,-6.6 0,-0.1 C0,6.4 4.9,13.4 18.7,13.4 C32.5,13.4 37.3,6.4 37.3,-0.1 C37.3,-6.6 32.5,-13.6 18.7,-13.6 M10.4,-4.5 C10.3,-4.9 10.3,-5.3 10.3,-5.7 C10.3,-6.5 10.5,-7.3 10.9,-8 C11.6,-9 12.8,-9.7 14.3,-10 C15.6,-10.3 16.3,-10.5 18.9,-10.5 L19,-10.5 C23,-10.5 24.3,-6.8 25.4,-3 L25.7,-2 C26.5,0.6 26.9,2.8 26.9,4.5 C26.9,5.7 26.7,6.8 26.3,7.6 C25.7,8.7 24.7,9.4 23,9.8 C22.1,10 20.6,10.1 20.6,10.1 C20.1,10.1 19.7,10.2 19.3,10.2 C16.1,10.2 14.1,9 12.7,4.7 C11.5,1 11.3,-0.1 10.4,-4.5"/>
<path class="Note" transform="matrix(2.3811,0,0,2.3811,3542.71,1570.39)" d="M18.7,-13.6 C4.9,-13.6 0,-6.6 0,-0.1 C0,6.4 4.9,13.4 18.7,13.4 C32.5,13.4 37.3,6.4 37.3,-0.1 C37.3,-6.6 32.5,-13.6 18.7,-13.6 M10.4,-4.5 C10.3,-4.9 10.3,-5.3 10.3,-5.7 C10.3,-6.5 10.5,-7.3 10.9,-8 C11.6,-9 12.8,-9.7 14.3,-10 C15.6,-10.3 16.3,-10.5 18.9,-10.5 L19,-10.5 C23,-10.5 24.3,-6.8 25.4,-3 L25.7,-2 C26.5,0.6 26.9,2.8 26.9,4.5 C26.9,5.7 26.7,6.8 26.3,7.6 C25.7,8.7 24.7,9.4 23,9.8 C22.1,10 20.6,10.1 20.6,10.1 C20.1,10.1 19.7,10.2 19.3,10.2 C16.1,10.2 14.1,9 12.7,4.7 C11.5,1 11.3,-0.1 10.4,-4.5"/>
<path class="Note" transform="matrix(2.3811,0,0,2.3811,3460.45,1451.34)" d="M18.7,-13.6 C4.9,-13.6 0,-6.6 0,-0.1 C0,6.4 4.9,13.4 18.7,13.4 C32.5,13.4 37.3,6.4 37.3,-0.1 C37.3,-6.6 32.5,-13.6 18.7,-13.6 M10.4,-4.5 C10.3,-4.9 10.3,-5.3 10.3,-5.7 C10.3,-6.5 10.5,-7.3 10.9,-8 C11.6,-9 12.8,-9.7 14.3,-10 C15.6,-10.3 16.3,-10.5 18.9,-10.5 L19,-10.5 C23,-10.5 24.3,-6.8 25.4,-3 L25.7,-2 C26.5,0.6 26.9,2.8 26.9,4.5 C26.9,5.7 26.7,6.8 26.3,7.6 C25.7,8.7 24.7,9.4 23,9.8 C22.1,10 20.6,10.1 20.6,10.1 C20.1,10.1 19.7,10.2 19.3,10.2 C16.1,10.2 14.1,9 12.7,4.7 C11.5,1 11.3,-0.1 10.4,-4.5"/>
<path class="Note" d="M655.414,941.13 C659.985,941.13 662.27,943.997 662.27,949.73 C662.27,953.758 659.752,959.763 654.717,967.742 C650.688,974.173 648.674,980.448 648.674,986.568 C648.674,990.055 653.748,991.798 663.897,991.798 C672.265,991.798 683.924,987.266 698.877,978.201 C683.847,992.689 670.792,999.933 659.714,999.933 C649.72,999.933 642.747,998.422 638.796,995.401 C637.789,994.626 636.936,993.696 636.239,992.611 C632.365,997.337 625.896,999.7 616.832,999.7 C608.155,999.7 601.492,997.918 596.844,994.355 C593.745,991.953 592.195,988.118 592.195,982.85 C592.195,974.483 597.153,965.341 607.07,955.424 C617.684,944.81 629.964,939.503 643.909,939.503 C647.395,939.503 649.952,940.781 651.579,943.338 C652.896,941.866 654.174,941.13 655.414,941.13 M634.612,987.382 C634.535,986.762 634.496,986.142 634.496,985.523 C634.496,985.213 638.447,974.405 646.349,953.1 C647.124,951.008 647.899,949.226 648.674,947.754 C645.652,947.134 642.669,946.824 639.725,946.824 C634.302,946.824 627.097,951.434 618.11,960.653 C610.053,968.866 606.024,975.955 606.024,981.92 C606.024,988.505 609.162,991.798 615.437,991.798 C623.03,991.798 629.421,990.326 634.612,987.382"/>
<path class="Note" d="M662.503,848.933 C672.962,842.348 680.554,836.964 685.28,832.78 C693.957,825.11 698.296,817.363 698.296,809.538 C698.296,800.396 692.175,795.825 679.934,795.825 C667.074,795.825 653.671,805.083 639.725,823.599 C630.274,836.15 623.572,848.004 619.621,859.16 C624.502,855.984 629.654,854.395 635.077,854.395 C640.19,854.395 644.258,856.681 647.279,861.252 C649.371,864.428 650.417,869.851 650.417,877.521 C650.417,884.416 646.776,892.513 639.493,901.809 C635,907.542 630.002,910.409 624.502,910.409 C617.529,910.409 612.648,909.014 609.859,906.225 C605.908,902.274 603.932,894.449 603.932,882.751 C603.932,863.072 611.874,843.704 627.756,824.645 C645.652,803.185 662.813,792.455 679.237,792.455 C691.943,792.455 701.433,795.438 707.709,801.403 C711.35,804.889 713.171,809.925 713.171,816.511 C713.171,823.871 705.927,832.083 691.439,841.147 C683.847,845.951 674.201,848.546 662.503,848.933 M618.11,864.041 C616.173,870.549 615.205,876.785 615.205,882.751 C615.205,896.929 617.452,904.017 621.945,904.017 C626.206,904.017 629.538,900.996 631.939,894.953 C634.728,888.135 636.123,880.582 636.123,872.292 C636.123,864.932 633.682,861.252 628.802,861.252 C625.393,861.252 621.829,862.181 618.11,864.041"/>
<path class="Note" d="M662.503,581.059 C672.962,574.474 680.554,569.09 685.28,564.906 C693.957,557.236 698.296,549.489 698.296,541.664 C698.296,532.522 692.175,527.951 679.934,527.951 C667.074,527.951 653.671,537.209 639.725,555.725 C630.274,568.276 623.572,580.13 619.621,591.286 C624.502,588.11 629.654,586.521 635.077,586.521 C640.19,586.521 644.258,588.807 647.279,593.378 C649.371,596.554 650.417,601.977 650.417,609.647 C650.417,616.542 646.776,624.638 639.493,633.935 C635,639.668 630.002,642.535 624.502,642.535 C617.529,642.535 612.648,641.14 609.859,638.351 C605.908,634.4 603.932,626.575 603.932,614.877 C603.932,595.198 611.874,575.83 627.756,556.771 C645.652,535.311 662.813,524.581 679.237,524.581 C691.943,524.581 701.433,527.564 707.709,533.529 C711.35,537.015 713.171,542.051 713.171,548.637 C713.171,555.997 705.927,564.209 691.439,573.273 C683.847,578.077 674.201,580.672 662.503,581.059 M618.11,596.167 C616.173,602.675 615.205,608.911 615.205,614.877 C615.205,629.055 617.452,636.143 621.945,636.143 C626.206,636.143 629.538,633.122 631.939,627.079 C634.728,620.261 636.123,612.707 636.123,604.418 C636.123,597.058 633.682,593.378 628.802,593.378 C625.393,593.378 621.829,594.307 618.11,596.167"/>
<path class="Note" d="M662.503,670.351 C672.962,663.765 680.554,658.381 685.28,654.197 C693.957,646.527 698.296,638.78 698.296,630.955 C698.296,621.813 692.175,617.242 679.934,617.242 C667.074,617.242 653.671,626.5 639.725,645.017 C630.274,657.568 623.572,669.421 619.621,680.577 C624.502,677.401 629.654,675.813 635.077,675.813 C640.19,675.813 644.258,678.098 647.279,682.669 C649.371,685.846 650.417,691.269 650.417,698.939 C650.417,705.834 646.776,713.93 639.493,723.227 C635,728.96 630.002,731.826 624.502,731.826 C617.529,731.826 612.648,730.432 609.859,727.643 C605.908,723.692 603.932,715.867 603.932,704.168 C603.932,684.49 611.874,665.121 627.756,646.063 C645.652,624.602 662.813,613.872 679.237,613.872 C691.943,613.872 701.433,616.855 707.709,622.82 C711.35,626.307 713.171,631.343 713.171,637.928 C713.171,645.288 705.927,653.5 691.439,662.565 C683.847,667.368 674.201,669.963 662.503,670.351 M618.11,685.458 C616.173,691.966 615.205,698.203 615.205,704.168 C615.205,718.346 617.452,725.435 621.945,725.435 C626.206,725.435 629.538,722.413 631.939,716.37 C634.728,709.553 636.123,701.999 636.123,693.709 C636.123,686.349 633.682,682.669 628.802,682.669 C625.393,682.669 621.829,683.599 618.11,685.458"/>
<path class="Note" d="M1421.52,941.13 C1426.09,941.13 1428.38,943.997 1428.38,949.73 C1428.38,953.758 1425.86,959.763 1420.82,967.742 C1416.79,974.173 1414.78,980.448 1414.78,986.568 C1414.78,990.055 1419.85,991.798 1430,991.798 C1438.37,991.798 1450.03,987.266 1464.98,978.201 C1449.95,992.689 1436.9,999.933 1425.82,999.933 C1415.82,999.933 1408.85,998.422 1404.9,995.401 C1403.89,994.626 1403.04,993.696 1402.34,992.611 C1398.47,997.337 1392,999.7 1382.94,999.7 C1374.26,999.7 1367.6,997.918 1362.95,994.355 C1359.85,991.953 1358.3,988.118 1358.3,982.85 C1358.3,974.483 1363.26,965.341 1373.18,955.424 C1383.79,944.81 1396.07,939.503 1410.01,939.503 C1413.5,939.503 1416.06,940.781 1417.68,943.338 C1419,941.866 1420.28,941.13 1421.52,941.13 M1400.72,987.382 C1400.64,986.762 1400.6,986.142 1400.6,985.523 C1400.6,985.213 1404.55,974.405 1412.45,953.1 C1413.23,951.008 1414,949.226 1414.78,947.754 C1411.76,947.134 1408.77,946.824 1405.83,946.824 C1400.41,946.824 1393.2,951.434 1384.22,960.653 C1376.16,968.866 1372.13,975.955 1372.13,981.92 C1372.13,988.505 1375.27,991.798 1381.54,991.798 C1389.13,991.798 1395.53,990.326 1400.72,987.382"/>
<path class="Note" d="M1310.43,855.79 C1310.74,844.091 1317.21,833.71 1329.84,824.645 C1341.07,816.588 1353.35,812.559 1366.68,812.559 C1385.35,812.559 1401.81,819.881 1416.07,834.523 C1425.13,843.898 1429.66,855.519 1429.66,869.387 C1429.66,881.86 1426.33,891.428 1419.67,898.091 C1411.53,906.303 1402.93,910.409 1393.87,910.409 C1387.67,910.409 1382.87,909.014 1379.46,906.225 C1373.88,901.654 1371.09,895.534 1371.09,887.864 C1371.09,877.947 1376.05,868.883 1385.97,860.671 C1394.1,853.93 1402.28,849.514 1410.49,847.423 C1408.32,843.704 1405.57,840.218 1402.24,836.964 C1391.86,826.815 1380.08,821.74 1366.91,821.74 C1353.2,821.74 1341.85,824.723 1332.86,830.688 C1323.56,836.809 1316.09,845.176 1310.43,855.79 M1413.39,853.582 C1409.13,857.533 1404.87,861.755 1400.61,866.249 C1392.24,875.081 1388.06,883.448 1388.06,891.35 C1388.06,899.795 1390,904.017 1393.87,904.017 C1397.36,904.017 1402.24,899.253 1408.51,889.723 C1413.55,882.131 1416.07,875.158 1416.07,868.805 C1416.07,863.382 1415.18,858.308 1413.39,853.582"/>
<path class="Note" d="M1436.39,739.77 C1440.73,736.826 1443.87,734.386 1445.81,732.449 C1449.37,728.652 1451.15,725.166 1451.15,721.99 C1451.15,718.348 1449.14,716.528 1445.11,716.528 C1437.28,716.528 1428.92,723.423 1420.01,737.213 C1417.3,741.397 1411.33,755.032 1402.11,778.12 C1409.47,785.712 1413.15,790.012 1413.15,791.019 C1413.15,792.414 1412.26,793.111 1410.48,793.111 C1409.08,793.111 1405.25,790.748 1398.97,786.022 C1392.16,801.904 1381.81,815.462 1367.95,826.696 C1353.77,838.162 1336.84,843.895 1317.16,843.895 C1309.65,843.895 1300.23,842.152 1288.92,838.666 C1279.86,835.876 1275.33,831.422 1275.33,825.301 C1275.33,816.237 1278.81,811.705 1285.78,811.705 C1289.97,811.705 1292.06,813.641 1292.06,817.515 C1292.06,818.755 1291.09,820.072 1289.15,821.466 C1288.15,822.164 1287.64,823.519 1287.64,825.534 C1287.64,827.935 1290.32,830.415 1295.66,832.971 C1301.47,835.76 1310,837.155 1321.23,837.155 C1335.72,837.155 1349.7,830.879 1363.18,818.329 C1375.42,806.94 1384.22,793.692 1389.56,778.584 C1387.47,776.88 1385.22,775.021 1382.82,773.006 C1375.38,768.59 1371.66,764.058 1371.66,759.41 C1371.66,757.473 1372.94,756.504 1375.5,756.504 C1378.91,756.504 1383.52,759.41 1389.33,765.22 C1390.57,766.46 1391.73,767.622 1392.81,768.707 C1395.53,761.269 1399.86,751.817 1405.83,740.351 C1416.6,719.588 1429.69,709.207 1445.11,709.207 C1450.61,709.207 1454.95,710.252 1458.13,712.344 C1461.3,714.436 1462.89,717.303 1462.89,720.944 C1462.89,726.754 1460.76,731.674 1456.5,735.703 C1452.08,739.886 1447.47,741.978 1442.67,741.978 C1438.49,741.978 1436.39,741.242 1436.39,739.77"/>
<path class="Note" d="M1457.31,705.563 C1450.96,715.557 1440.93,723.846 1427.21,730.432 C1415.28,736.165 1404.13,739.031 1393.74,739.031 C1385.45,739.031 1378.56,737.366 1373.06,734.034 C1367.09,730.393 1364.11,726.055 1364.11,721.019 C1364.11,709.63 1367.09,699.83 1373.06,691.617 C1381.19,680.461 1389.41,674.883 1397.7,674.883 C1403.58,674.883 1407.77,676.045 1410.25,678.369 C1413.66,681.391 1415.36,685.536 1415.36,690.804 C1415.36,698.241 1409.82,704.71 1398.74,710.211 C1387.97,715.557 1380.5,719.043 1376.31,720.67 C1377.24,722.607 1378.44,724.35 1379.92,725.9 C1383.56,729.773 1388.52,731.71 1394.79,731.71 C1402.69,731.71 1413.31,728.805 1426.63,722.994 C1439.42,717.339 1449.64,711.528 1457.31,705.563 M1374.69,715.324 C1380.5,712.38 1385.8,708.933 1390.61,704.982 C1397.73,699.171 1401.3,692.896 1401.3,686.155 C1401.3,682.359 1399.56,680.461 1396.07,680.461 C1393.12,680.461 1389.1,683.831 1383.98,690.571 C1377.55,698.939 1374.34,705.756 1374.34,711.025 C1374.34,712.497 1374.45,713.93 1374.69,715.324"/>
<path class="Note" d="M2184.01,941.13 C2188.58,941.13 2190.87,943.997 2190.87,949.73 C2190.87,953.758 2188.35,959.763 2183.32,967.742 C2179.29,974.173 2177.27,980.448 2177.27,986.568 C2177.27,990.055 2182.35,991.798 2192.5,991.798 C2200.86,991.798 2212.52,987.266 2227.48,978.201 C2212.45,992.689 2199.39,999.933 2188.31,999.933 C2178.32,999.933 2171.35,998.422 2167.4,995.401 C2166.39,994.626 2165.54,993.696 2164.84,992.611 C2160.96,997.337 2154.5,999.7 2145.43,999.7 C2136.75,999.7 2130.09,997.918 2125.44,994.355 C2122.34,991.953 2120.79,988.118 2120.79,982.85 C2120.79,974.483 2125.75,965.341 2135.67,955.424 C2146.28,944.81 2158.56,939.503 2172.51,939.503 C2175.99,939.503 2178.55,940.781 2180.18,943.338 C2181.5,941.866 2182.77,941.13 2184.01,941.13 M2163.21,987.382 C2163.13,986.762 2163.1,986.142 2163.1,985.523 C2163.1,985.213 2167.05,974.405 2174.95,953.1 C2175.72,951.008 2176.5,949.226 2177.27,947.754 C2174.25,947.134 2171.27,946.824 2168.32,946.824 C2162.9,946.824 2155.7,951.434 2146.71,960.653 C2138.65,968.866 2134.62,975.955 2134.62,981.92 C2134.62,988.505 2137.76,991.798 2144.04,991.798 C2151.63,991.798 2158.02,990.326 2163.21,987.382"/>
<path class="Note" d="M2155.54,576.876 C2159.34,576.876 2161.24,579.781 2161.24,585.592 C2161.24,589.775 2159.26,594.579 2155.31,600.002 C2151.82,604.883 2150.08,612.436 2150.08,622.663 C2150.08,627.544 2151.36,630.798 2153.91,632.425 C2155.7,633.664 2159.03,634.323 2163.91,634.4 C2169.18,634.4 2176.65,631.727 2186.34,626.382 L2188.2,628.241 C2185.72,631.417 2182.73,634.284 2179.25,636.841 C2174.06,640.637 2168.75,642.535 2163.33,642.535 C2155.5,642.535 2149.58,641.412 2145.55,639.165 C2140.51,636.376 2137.99,632.889 2137.99,628.706 C2137.99,617.162 2139.47,605.115 2142.41,592.564 C2143.49,587.993 2145.86,583.81 2149.5,580.013 C2151.59,577.922 2153.6,576.876 2155.54,576.876"/>
<path class="Note" d="M2198.07,495.487 C2198.07,504.396 2187.93,523.958 2167.63,554.173 C2159.57,566.182 2147.99,574.975 2132.88,580.553 C2121.72,584.737 2108.82,586.829 2094.18,586.829 C2089.46,586.829 2085.27,585.86 2081.63,583.923 C2077.6,581.832 2075.59,579.546 2075.59,577.067 C2075.59,570.637 2079.04,567.421 2085.93,567.421 C2086.94,567.421 2087.44,568.041 2087.44,569.281 C2087.44,570.365 2086.94,571.566 2085.93,572.883 C2084.69,574.51 2084.07,575.711 2084.07,576.486 C2084.07,578.81 2087.56,579.972 2094.53,579.972 C2110.18,579.972 2122.54,578.074 2131.6,574.278 C2141.05,570.404 2150.47,560.526 2159.84,544.644 L2162.51,539.647 C2158.02,543.056 2153.57,544.76 2149.15,544.76 C2138.15,544.76 2132.65,540.305 2132.65,531.396 C2132.65,521.789 2139.12,511.679 2152.06,501.065 C2162.2,492.853 2171.23,488.747 2179.13,488.747 C2183.08,488.747 2186.38,489.792 2189.01,491.884 C2189.94,491.187 2191.1,490.838 2192.5,490.838 C2196.22,490.838 2198.07,492.388 2198.07,495.487 M2163.91,537.207 L2185.87,496.649 C2184.17,496.262 2182.27,496.068 2180.18,496.068 C2172.66,496.068 2165.38,500.445 2158.33,509.2 C2150.12,519.426 2146.01,527.6 2146.01,533.72 C2146.01,537.749 2148.69,539.763 2154.03,539.763 C2156.59,539.763 2159.88,538.911 2163.91,537.207"/>
<path class="Note" d="M2198.07,674.069 C2198.07,682.979 2187.93,702.541 2167.63,732.756 C2159.57,744.764 2147.99,753.558 2132.88,759.136 C2121.72,763.319 2108.82,765.411 2094.18,765.411 C2089.46,765.411 2085.27,764.443 2081.63,762.506 C2077.6,760.414 2075.59,758.129 2075.59,755.65 C2075.59,749.219 2079.04,746.004 2085.93,746.004 C2086.94,746.004 2087.44,746.624 2087.44,747.863 C2087.44,748.948 2086.94,750.149 2085.93,751.466 C2084.69,753.093 2084.07,754.294 2084.07,755.068 C2084.07,757.393 2087.56,758.555 2094.53,758.555 C2110.18,758.555 2122.54,756.657 2131.6,752.86 C2141.05,748.987 2150.47,739.109 2159.84,723.227 L2162.51,718.23 C2158.02,721.638 2153.57,723.343 2149.15,723.343 C2138.15,723.343 2132.65,718.888 2132.65,709.979 C2132.65,700.372 2139.12,690.262 2152.06,679.648 C2162.2,671.435 2171.23,667.329 2179.13,667.329 C2183.08,667.329 2186.38,668.375 2189.01,670.467 C2189.94,669.77 2191.1,669.421 2192.5,669.421 C2196.22,669.421 2198.07,670.971 2198.07,674.069 M2163.91,715.789 L2185.87,675.232 C2184.17,674.844 2182.27,674.651 2180.18,674.651 C2172.66,674.651 2165.38,679.028 2158.33,687.782 C2150.12,698.009 2146.01,706.182 2146.01,712.303 C2146.01,716.332 2148.69,718.346 2154.03,718.346 C2156.59,718.346 2159.88,717.494 2163.91,715.789"/>
<path class="Note" d="M2889.56,938.225 C2900.02,931.639 2907.61,926.255 2912.34,922.071 C2921.02,914.401 2925.35,906.654 2925.35,898.829 C2925.35,889.687 2919.23,885.116 2906.99,885.116 C2894.13,885.116 2880.73,894.374 2866.78,912.891 C2857.33,925.442 2850.63,937.295 2846.68,948.451 C2851.56,945.275 2856.71,943.687 2862.14,943.687 C2867.25,943.687 2871.32,945.972 2874.34,950.543 C2876.43,953.72 2877.48,959.143 2877.48,966.813 C2877.48,973.708 2873.83,981.804 2866.55,991.101 C2862.06,996.834 2857.06,999.7 2851.56,999.7 C2844.59,999.7 2839.71,998.306 2836.92,995.517 C2832.97,991.566 2830.99,983.741 2830.99,972.042 C2830.99,952.364 2838.93,932.995 2854.81,913.937 C2872.71,892.476 2889.87,881.746 2906.3,881.746 C2919,881.746 2928.49,884.729 2934.77,890.694 C2938.41,894.181 2940.23,899.217 2940.23,905.802 C2940.23,913.162 2932.99,921.374 2918.5,930.439 C2910.91,935.242 2901.26,937.837 2889.56,938.225 M2845.17,953.332 C2843.23,959.84 2842.26,966.077 2842.26,972.042 C2842.26,986.22 2844.51,993.309 2849,993.309 C2853.27,993.309 2856.6,990.287 2859,984.244 C2861.79,977.427 2863.18,969.873 2863.18,961.583 C2863.18,954.223 2860.74,950.543 2855.86,950.543 C2852.45,950.543 2848.89,951.473 2845.17,953.332"/>
<path class="Note" d="M2882.47,583.965 C2887.04,583.965 2889.33,586.831 2889.33,592.564 C2889.33,596.593 2886.81,602.597 2881.78,610.577 C2877.75,617.007 2875.73,623.283 2875.73,629.403 C2875.73,632.889 2880.81,634.633 2890.96,634.633 C2899.32,634.633 2910.98,630.1 2925.94,621.036 C2910.91,635.524 2897.85,642.767 2886.77,642.767 C2876.78,642.767 2869.81,641.257 2865.85,638.235 C2864.85,637.46 2864,636.531 2863.3,635.446 C2859.42,640.172 2852.96,642.535 2843.89,642.535 C2835.21,642.535 2828.55,640.753 2823.9,637.189 C2820.8,634.788 2819.25,630.953 2819.25,625.684 C2819.25,617.317 2824.21,608.175 2834.13,598.259 C2844.74,587.645 2857.02,582.338 2870.97,582.338 C2874.45,582.338 2877.01,583.616 2878.64,586.173 C2879.95,584.701 2881.23,583.965 2882.47,583.965 M2861.67,630.217 C2861.59,629.597 2861.55,628.977 2861.55,628.357 C2861.55,628.047 2865.51,617.24 2873.41,595.934 C2874.18,593.843 2874.96,592.061 2875.73,590.589 C2872.71,589.969 2869.73,589.659 2866.78,589.659 C2861.36,589.659 2854.16,594.269 2845.17,603.488 C2837.11,611.7 2833.08,618.789 2833.08,624.755 C2833.08,631.34 2836.22,634.633 2842.5,634.633 C2850.09,634.633 2856.48,633.161 2861.67,630.217"/>
<path class="Note" d="M2838.2,731.826 C2834.4,731.826 2832.5,727.759 2832.5,719.624 L2832.5,685.574 C2832.5,682.32 2834.09,680.693 2837.27,680.693 C2838.66,680.693 2839.71,680.81 2840.4,681.042 C2842.88,676.704 2846.95,673.062 2852.61,670.118 C2860.51,666.012 2868.53,663.959 2876.66,663.959 C2883.09,663.959 2886.31,666.361 2886.31,671.164 C2886.31,675.193 2884.14,677.207 2879.8,677.207 C2876.7,677.207 2873.76,676.51 2870.97,675.115 C2868.49,673.876 2865.85,673.256 2863.07,673.256 C2858.26,673.256 2851.17,676.394 2841.8,682.669 C2843.12,688.944 2843.77,696.266 2843.77,704.633 C2843.77,722.762 2841.92,731.826 2838.2,731.826"/>
<path class="Note" d="M3495,999.7 C3491.2,999.7 3489.3,995.633 3489.3,987.498 L3489.3,953.448 C3489.3,950.194 3490.89,948.568 3494.07,948.568 C3495.46,948.568 3496.51,948.684 3497.2,948.916 C3499.68,944.578 3503.75,940.936 3509.41,937.992 C3517.31,933.886 3525.33,931.833 3533.46,931.833 C3539.89,931.833 3543.11,934.235 3543.11,939.038 C3543.11,943.067 3540.94,945.081 3536.6,945.081 C3533.5,945.081 3530.56,944.384 3527.77,942.989 C3525.29,941.75 3522.65,941.13 3519.86,941.13 C3515.06,941.13 3507.97,944.268 3498.6,950.543 C3499.92,956.818 3500.57,964.14 3500.57,972.507 C3500.57,990.636 3498.71,999.7 3495,999.7"/>
<path class="Note" d="M3546.36,581.059 C3556.82,574.474 3564.41,569.09 3569.14,564.906 C3577.82,557.236 3582.15,549.489 3582.15,541.664 C3582.15,532.522 3576.03,527.951 3563.79,527.951 C3550.93,527.951 3537.53,537.209 3523.58,555.725 C3514.13,568.276 3507.43,580.13 3503.48,591.286 C3508.36,588.11 3513.51,586.521 3518.94,586.521 C3524.05,586.521 3528.12,588.807 3531.14,593.378 C3533.23,596.554 3534.28,601.977 3534.28,609.647 C3534.28,616.542 3530.63,624.638 3523.35,633.935 C3518.86,639.668 3513.86,642.535 3508.36,642.535 C3501.39,642.535 3496.51,641.14 3493.72,638.351 C3489.77,634.4 3487.79,626.575 3487.79,614.877 C3487.79,595.198 3495.73,575.83 3511.61,556.771 C3529.51,535.311 3546.67,524.581 3563.1,524.581 C3575.8,524.581 3585.29,527.564 3591.57,533.529 C3595.21,537.015 3597.03,542.051 3597.03,548.637 C3597.03,555.997 3589.79,564.209 3575.3,573.273 C3567.71,578.077 3558.06,580.672 3546.36,581.059 M3501.97,596.167 C3500.03,602.675 3499.06,608.911 3499.06,614.877 C3499.06,629.055 3501.31,636.143 3505.8,636.143 C3510.06,636.143 3513.4,633.122 3515.8,627.079 C3518.59,620.261 3519.98,612.707 3519.98,604.418 C3519.98,597.058 3517.54,593.378 3512.66,593.378 C3509.25,593.378 3505.69,594.307 3501.97,596.167"/>
<path class="Note" d="M3539.27,762.547 C3543.84,762.547 3546.13,765.414 3546.13,771.147 C3546.13,775.176 3543.61,781.18 3538.57,789.16 C3534.55,795.59 3532.53,801.865 3532.53,807.986 C3532.53,811.472 3537.61,813.215 3547.76,813.215 C3556.12,813.215 3567.78,808.683 3582.73,799.619 C3567.71,814.106 3554.65,821.35 3543.57,821.35 C3533.58,821.35 3526.61,819.839 3522.65,816.818 C3521.65,816.043 3520.79,815.113 3520.1,814.029 C3516.22,818.755 3509.75,821.118 3500.69,821.118 C3492.01,821.118 3485.35,819.336 3480.7,815.772 C3477.6,813.37 3476.05,809.535 3476.05,804.267 C3476.05,795.9 3481.01,786.758 3490.93,776.841 C3501.54,766.227 3513.82,760.92 3527.77,760.92 C3531.25,760.92 3533.81,762.199 3535.44,764.755 C3536.75,763.283 3538.03,762.547 3539.27,762.547 M3518.47,808.799 C3518.39,808.179 3518.35,807.56 3518.35,806.94 C3518.35,806.63 3522.31,795.822 3530.21,774.517 C3530.98,772.425 3531.76,770.643 3532.53,769.171 C3529.51,768.552 3526.53,768.242 3523.58,768.242 C3518.16,768.242 3510.96,772.851 3501.97,782.071 C3493.91,790.283 3489.88,797.372 3489.88,803.337 C3489.88,809.923 3493.02,813.215 3499.3,813.215 C3506.89,813.215 3513.28,811.743 3518.47,808.799"/>
<path class="Note" d="M3428.18,677.207 C3428.49,665.509 3434.96,655.127 3447.59,646.063 C3458.82,638.005 3471.1,633.977 3484.43,633.977 C3503.1,633.977 3519.56,641.298 3533.82,655.941 C3542.88,665.315 3547.42,676.936 3547.42,690.804 C3547.42,703.277 3544.08,712.845 3537.42,719.508 C3529.29,727.72 3520.69,731.826 3511.62,731.826 C3505.43,731.826 3500.62,730.432 3497.21,727.643 C3491.63,723.072 3488.85,716.951 3488.85,709.281 C3488.85,699.365 3493.8,690.3 3503.72,682.088 C3511.86,675.348 3520.03,670.932 3528.24,668.84 C3526.07,665.121 3523.32,661.635 3519.99,658.381 C3509.61,648.232 3497.83,643.157 3484.66,643.157 C3470.95,643.157 3459.6,646.14 3450.61,652.106 C3441.32,658.226 3433.84,666.593 3428.18,677.207 M3531.15,674.999 C3526.89,678.95 3522.62,683.173 3518.36,687.666 C3510,696.498 3505.81,704.865 3505.81,712.768 C3505.81,721.212 3507.75,725.435 3511.62,725.435 C3515.11,725.435 3519.99,720.67 3526.27,711.141 C3531.3,703.548 3533.82,696.576 3533.82,690.223 C3533.82,684.8 3532.93,679.725 3531.15,674.999"/>
<path class="Clef" transform="matrix(2.3811,0,0,2.3811,212.156,2158.79)" d="M25.4,-25.1 C17.8,-25.1 11.7,-20.7 11.6,-20.7 C5.8,-16.4 3.5,-11.3 2.6,-7.8 C2.1,-6 1.9,-4.2 1.9,-2.5 C1.9,-0.1 2.3,2.1 3.2,4 C4.4,6.7 6.7,8.6 9.7,9.6 C10.9,10 12.2,10.2 13.5,10.2 C15.7,10.2 18,9.6 19.9,8.5 C23,6.8 24.9,3.2 24.9,-0.7 C24.9,-4.2 23.1,-7.4 20.1,-9.3 C18,-10.7 16,-11.1 14.3,-11.1 C13.1,-11.1 12,-10.9 11.1,-10.6 C10.1,-10.2 8.4,-9.2 7.6,-8.5 C7.9,-10.4 9.1,-13.3 10.2,-14.9 C11.3,-16.5 13.5,-18.5 15.2,-19.4 C17.7,-20.8 20.9,-21.4 24.4,-21.4 C34.6,-21.4 39.6,-13.2 39.6,3.6 C39.6,12.9 36.1,21.8 33.1,27.7 C29.8,34.3 25.4,40.6 21.5,44.1 C11.1,53.6 1.3,58.1 1.2,58.1 C1.2,58.1 -0.3,59 0.1,60.5 C0.4,61.5 1.3,61.7 1.9,61.7 C2,61.7 2.3,61.6 2.4,61.6 C2.5,61.6 13.9,56.9 23,49.8 C28.1,46.1 32.7,42.1 36.7,37.8 C40.3,33.9 43.4,29.7 45.9,25.5 C50.3,18 52.8,10.2 52.8,3.5 C52.8,-4.8 50.6,-11.7 46.5,-16.6 C41.8,-22.2 34.7,-25.1 25.4,-25.1 M56.8,-12.4 C56.8,-9.6 59,-7.4 61.6,-7.4 C64.2,-7.4 66.4,-9.6 66.4,-12.4 C66.4,-15.2 64.2,-17.5 61.6,-17.5 C59,-17.5 56.8,-15.2 56.8,-12.4 M56.8,12.3 C56.8,15.1 59,17.4 61.6,17.4 C64.2,17.4 66.4,15.1 66.4,12.3 C66.4,9.5 64.2,7.2 61.6,7.2 C59,7.2 56.8,9.5 56.8,12.3"/>
<path class="Clef" transform="matrix(2.3811,0,0,2.3811,212.156,1570.39)" d="M63.37,-5.89004 C62.14,-11.32 59.5,-15.14 58.72,-16.1801 C55.5301,-20.45 51.52,-23.3 46.8301,-24.65 C43.72,-25.54 40.72,-25.65 38.3,-25.47 C37.2601,-31.4801 36.2601,-37.3601 35.35,-42.8101 C40.79,-48.97 44.42,-54.77 46.69,-59.07 C50.1601,-65.65 51.3101,-70.2301 51.3601,-70.4301 C53.0801,-75.64 53.44,-83.34 52.34,-91.55 C51.3301,-99.1 49.24,-105.81 46.89,-109.06 C45.8601,-110.49 44.8101,-111.22 43.77,-111.22 C42.55,-111.22 40.04,-109.98 37.15,-107.21 C34.85,-105.01 31.5801,-101.12 29.02,-95.1101 C26.02,-88.05 25.8101,-78.5601 26.1601,-71.84 C26.54,-64.57 27.65,-58.8801 27.6601,-58.8301 C27.6801,-58.74 27.94,-57.24 28.39,-54.67 C28.1601,-54.44 27.92,-54.22 27.67,-53.9801 C26.6301,-52.9801 25.44,-51.84 24.0601,-50.4601 C23.2,-49.6 22.25,-48.69 21.25,-47.72 C12.79,-39.57 0,-27.25 0,-8.1 C0,-3.4 0.9,1.01992 2.68008,5.02998 C4.27002,8.62998 6.57002,11.91 9.5,14.78 C17.2301,22.33 27.82,25.5399 34.8801,25.38 C37.8301,25.31 40.4601,25.0699 42.85,24.6199 C44.6801,34.2199 45.82,41.25 45.8601,46.5899 C45.9,53.1 44.25,57.0699 40.35,59.8399 C37.92,61.5699 35.1101,62.5199 32.0101,62.6699 C29.42,62.7899 27.1601,62.3199 25.7301,61.91 L25.72,61.91 C25.72,61.91 25.4301,61.83 25.42,61.63 C25.4101,61.45 25.7601,61.4 25.77,61.4 L25.79,61.4 C27.7101,60.96 31.2801,59.73 33.64,56.43 C35.44,53.91 36.3101,49.2899 34.47,45.35 C33.3601,42.96 30.85,40.01 25.2301,39.56 C22.74,39.36 20.47,39.8699 18.47,41.0699 C16.6601,42.15 15.1601,43.7899 14.1101,45.7899 C11.65,50.4899 12.1101,56.2199 15.24,60.06 C18.2,63.68 22.82,65.9899 28.25,66.5699 C29.1,66.66 29.95,66.7 30.8,66.7 C31.5101,66.7 32.22,66.6699 32.92,66.61 C31.72,66.9399 30.64,67.4899 29.77,68.25 C28.2801,69.5399 27.44,71.38 27.44,73.41 C27.44,75.28 28.0601,76.65 29.55,78.0399 C28.4101,78.5 27.55,78.98 26.79,79.56 C25.25,80.73 24.34,82.46 24.34,84.1899 C24.34,87.45 27.3,89.63 31.72,89.63 C37.1301,89.63 40.9101,86.63 40.9101,82.35 C40.9101,80.1199 39.9101,78.18 38.0801,76.83 C41.0101,75.6199 42.37,73.9399 42.37,71.56 C42.39,70.05 41.69,68.61 40.49,67.6899 C39.2801,66.7399 37.62,66.2399 35.69,66.2399 L35.5101,66.2399 C38.2801,65.7 40.92,64.7 43.2101,63.28 C46.87,60.71 48.99,56.73 49.67,51.1 C50.2301,46.46 49.84,40.55 48.44,32.48 C48.0801,30.3899 47.54,27.36 46.8801,23.6 C52.6301,21.68 56.79,18.11 60.5601,12.26 C63.85,6.51992 64.8,0.419922 63.37,-5.89004 M32.39,87.5399 C30.19,87.5399 28.7301,86.1199 28.7301,84.01 C28.7301,82.11 29.65,80.5 31.32,79.4699 C31.6801,79.66 31.77,79.71 32.1101,79.88 C33.3,80.48 33.3,80.48 33.55,80.63 L33.5601,80.6399 C35.47,81.73 36.25,82.76 36.25,84.18 C36.24,86.0899 34.59,87.5399 32.39,87.5399 M38.3101,71.63 C38.3101,73.2699 37.7301,74.3399 36.1801,75.53 C34.74,74.78 34.35,74.56 33.9801,74.3399 L33.8801,74.28 C32.3301,73.3399 31.85,72.66 31.85,71.4 C31.85,69.6 33.2301,68.3399 35.19,68.3399 C37.17,68.35 38.3101,69.55 38.3101,71.63 M33.15,-83.8101 C34.9301,-89.55 37.67,-92.8 39.6601,-94.5301 C41.4101,-96.05 43.0601,-96.7601 43.9801,-96.7601 C44.12,-96.7601 44.24,-96.74 44.34,-96.7101 C44.8,-96.57 45.3301,-96 45.8,-95.1301 C48.1101,-90.84 47.37,-84.1301 46.0301,-79.69 C44.4,-74.29 41.4801,-68.6801 32.69,-59.0601 C32.52,-60.17 32.3601,-61.22 32.2101,-62.2 C30.95,-70.49 31.27,-77.7601 33.15,-83.8101 M29.15,20.31 C24.5101,19.0899 20.0801,16.5899 16.32,13.0899 C15.0101,11.86 13.14,9.68994 11.67,6.3 C10.3101,3.13994 9.65,-0.290039 9.7,-3.88008 C9.77002,-8.57002 11.0801,-13.39 13.59,-18.1801 C16.5101,-23.7601 21.07,-29.29 27.1301,-34.62 C28.5801,-35.9 29.95,-37.1801 31.24,-38.4601 C32,-34.2 32.8301,-29.5101 33.7101,-24.6301 C29.8601,-23.3601 25.1101,-20.2101 22,-14.5601 C18.47,-7.99004 18.6101,-2.47002 19.34,1.00996 C20.2801,5.46992 22.8101,9.22998 26.27,11.3199 C27.2,11.88 31.3301,14.01 33.17,13.43 C33.54,13.31 33.8101,13.0899 33.95,12.76 C34.4601,11.5899 33.44,10.95 31.8801,9.98994 C31.2801,9.61992 30.6101,9.2 29.8801,8.66992 C26.5601,6.17998 25.1101,1.72998 26.1801,-2.65 C26.7601,-5.05 28.04,-7.21006 29.8801,-8.91006 C31.55,-10.4601 33.59,-11.5601 35.97,-12.2 C38.0101,-0.960059 40.07,10.1899 41.7101,18.55 C41.84,19.2399 41.9801,19.91 42.1101,20.58 C37.7101,21.51 33.37,21.4199 29.15,20.31 M54.9,10.1 C53.7301,13.28 51.27,17.35 46.14,19.41 C46.07,18.9899 45.99,18.56 45.9101,18.13 C44.3601,9.36992 42.4301,-1.61006 40.47,-12.87 C50.82,-13.35 55.09,-5.91006 55.9801,-1.08008 C56.45,1.45 56.45,5.88994 54.9,10.1"/>
<path class="FiguredBass" d="M623.784,2472.56 C619.207,2472.56 616.161,2474.4 614.645,2478.08 C613.13,2481.76 612.373,2486.97 612.373,2493.71 L612.373,2504.66 C615.589,2503.36 618.372,2502.68 620.722,2502.62 C628.762,2502.62 635.087,2504.4 639.694,2507.95 C644.302,2511.51 646.606,2516.8 646.606,2523.82 C646.606,2530.84 644.271,2536.14 639.602,2539.73 C634.932,2543.32 628.639,2545.11 620.722,2545.11 C612.62,2545.11 606.28,2541.35 601.704,2533.84 C597.127,2526.32 594.838,2517.4 594.838,2507.07 C594.838,2496.81 597.498,2487.9 602.817,2480.35 C608.136,2472.81 615.125,2469.04 623.784,2469.04 C629.474,2469.04 634.391,2470.47 638.535,2473.35 C642.678,2476.23 644.75,2480.01 644.75,2484.71 C644.75,2487.44 643.761,2489.79 641.782,2491.76 C639.803,2493.74 637.437,2494.73 634.685,2494.73 C631.932,2494.73 629.567,2493.74 627.587,2491.76 C625.608,2489.79 624.619,2487.44 624.619,2484.71 C624.619,2482.05 625.608,2479.7 627.587,2477.66 C628.268,2476.86 629.226,2476.18 630.463,2475.62 C630.154,2474.82 629.536,2474.2 628.608,2473.77 C627.247,2472.96 625.639,2472.56 623.784,2472.56 M628.33,2510.5 C627.216,2507.6 624.773,2506.14 621,2506.14 C617.228,2506.14 614.893,2507.6 613.996,2510.5 C613.099,2513.41 612.651,2517.83 612.651,2523.77 C612.651,2530.76 613.099,2535.46 613.996,2537.87 C614.893,2540.29 617.228,2541.49 621,2541.49 C624.773,2541.49 627.216,2540.04 628.33,2537.13 C629.443,2534.22 629.999,2529.79 629.999,2523.82 C629.999,2517.85 629.443,2513.41 628.33,2510.5"/>
<path class="FiguredBass" d="M601.147,2574.79 L605.6,2575.43 C606.775,2575.62 608.229,2575.81 609.96,2575.99 C614.228,2576.49 618.341,2576.73 622.299,2576.73 C626.258,2576.73 630.432,2576.49 634.824,2575.99 C636.555,2575.81 638.071,2575.62 639.37,2575.43 L643.915,2574.79 C644.843,2574.79 645.554,2575.09 646.049,2575.71 C646.42,2576.21 646.359,2576.7 645.864,2577.2 C636.215,2586.66 622.887,2591.39 605.878,2591.39 C605.198,2591.39 604.595,2591.64 604.069,2592.13 C603.544,2592.63 603.281,2593.25 603.281,2593.99 L603.281,2605.77 C607.672,2601.44 612.991,2599.28 619.238,2599.28 C627.958,2599.28 634.762,2601.32 639.648,2605.4 C644.967,2601.38 647.75,2596.25 647.998,2590 C648.059,2588.02 648.709,2586.41 649.946,2585.18 C651.306,2583.94 652.945,2583.32 654.863,2583.32 C656.78,2583.32 658.404,2583.97 659.733,2585.27 C661.063,2586.57 661.728,2588.14 661.728,2590 C661.728,2599.59 656.069,2606.85 644.75,2611.8 C646.606,2615.45 647.534,2619.9 647.534,2625.16 C647.534,2632.15 644.75,2638.18 639.184,2643.25 C633.618,2648.32 626.969,2650.86 619.238,2650.86 C612.558,2650.86 606.76,2649.34 601.843,2646.31 C596.926,2643.28 594.467,2639.08 594.467,2633.7 C594.467,2630.97 595.457,2628.61 597.436,2626.6 C599.415,2624.59 601.781,2623.58 604.533,2623.58 C607.285,2623.58 609.62,2624.57 611.538,2626.55 C613.455,2628.53 614.414,2630.91 614.414,2633.7 C614.414,2634.93 613.393,2636.28 611.352,2637.73 C609.311,2639.19 608.29,2640.53 608.29,2641.77 C608.29,2645.48 611.94,2647.33 619.238,2647.33 C626.35,2647.33 629.907,2639.94 629.907,2625.16 C629.907,2621.88 629.721,2619.01 629.35,2616.53 C621.866,2618.08 612.496,2619.29 601.24,2620.15 C599.693,2620.27 598.92,2619.5 598.92,2617.83 C598.92,2616.47 599.693,2615.73 601.24,2615.61 C612.62,2614.68 621.588,2613.19 628.144,2611.15 C626.412,2606.2 623.443,2603.7 619.238,2603.64 C612.867,2603.64 608.414,2604.94 605.878,2607.53 C603.343,2610.13 601.765,2611.43 601.147,2611.43 C599.663,2611.43 598.92,2610.66 598.92,2609.11 L598.92,2577.2 C598.92,2576.58 599.137,2576.02 599.57,2575.53 C600.065,2575.03 600.59,2574.79 601.147,2574.79"/>
<path class="FiguredBass" d="M1389.89,2472.56 C1385.31,2472.56 1382.27,2474.4 1380.75,2478.08 C1379.24,2481.76 1378.48,2486.97 1378.48,2493.71 L1378.48,2504.66 C1381.69,2503.36 1384.48,2502.68 1386.83,2502.62 C1394.87,2502.62 1401.19,2504.4 1405.8,2507.95 C1410.41,2511.51 1412.71,2516.8 1412.71,2523.82 C1412.71,2530.84 1410.38,2536.14 1405.71,2539.73 C1401.04,2543.32 1394.74,2545.11 1386.83,2545.11 C1378.72,2545.11 1372.39,2541.35 1367.81,2533.84 C1363.23,2526.32 1360.94,2517.4 1360.94,2507.07 C1360.94,2496.81 1363.6,2487.9 1368.92,2480.35 C1374.24,2472.81 1381.23,2469.04 1389.89,2469.04 C1395.58,2469.04 1400.5,2470.47 1404.64,2473.35 C1408.78,2476.23 1410.86,2480.01 1410.86,2484.71 C1410.86,2487.44 1409.87,2489.79 1407.89,2491.76 C1405.91,2493.74 1403.54,2494.73 1400.79,2494.73 C1398.04,2494.73 1395.67,2493.74 1393.69,2491.76 C1391.71,2489.79 1390.72,2487.44 1390.72,2484.71 C1390.72,2482.05 1391.71,2479.7 1393.69,2477.66 C1394.37,2476.86 1395.33,2476.18 1396.57,2475.62 C1396.26,2474.82 1395.64,2474.2 1394.71,2473.77 C1393.35,2472.96 1391.74,2472.56 1389.89,2472.56 M1394.43,2510.5 C1393.32,2507.6 1390.88,2506.14 1387.11,2506.14 C1383.33,2506.14 1381,2507.6 1380.1,2510.5 C1379.2,2513.41 1378.76,2517.83 1378.76,2523.77 C1378.76,2530.76 1379.2,2535.46 1380.1,2537.87 C1381,2540.29 1383.33,2541.49 1387.11,2541.49 C1390.88,2541.49 1393.32,2540.04 1394.43,2537.13 C1395.55,2534.22 1396.1,2529.79 1396.1,2523.82 C1396.1,2517.85 1395.55,2513.41 1394.43,2510.5"/>
<path class="FiguredBass" d="M1367.25,2574.79 L1371.71,2575.43 C1372.88,2575.62 1374.33,2575.81 1376.07,2575.99 C1380.33,2576.49 1384.45,2576.73 1388.4,2576.73 C1392.36,2576.73 1396.54,2576.49 1400.93,2575.99 C1402.66,2575.81 1404.18,2575.62 1405.47,2575.43 L1410.02,2574.79 C1410.95,2574.79 1411.66,2575.09 1412.15,2575.71 C1412.53,2576.21 1412.46,2576.7 1411.97,2577.2 C1402.32,2586.66 1388.99,2591.39 1371.98,2591.39 C1371.3,2591.39 1370.7,2591.64 1370.17,2592.13 C1369.65,2592.63 1369.39,2593.25 1369.39,2593.99 L1369.39,2605.77 C1373.78,2601.44 1379.1,2599.28 1385.34,2599.28 C1394.06,2599.28 1400.87,2601.32 1405.75,2605.4 C1411.07,2601.38 1413.86,2596.25 1414.1,2590 C1414.16,2588.02 1414.81,2586.41 1416.05,2585.18 C1417.41,2583.94 1419.05,2583.32 1420.97,2583.32 C1422.89,2583.32 1424.51,2583.97 1425.84,2585.27 C1427.17,2586.57 1427.83,2588.14 1427.83,2590 C1427.83,2599.59 1422.17,2606.85 1410.86,2611.8 C1412.71,2615.45 1413.64,2619.9 1413.64,2625.16 C1413.64,2632.15 1410.86,2638.18 1405.29,2643.25 C1399.72,2648.32 1393.07,2650.86 1385.34,2650.86 C1378.66,2650.86 1372.86,2649.34 1367.95,2646.31 C1363.03,2643.28 1360.57,2639.08 1360.57,2633.7 C1360.57,2630.97 1361.56,2628.61 1363.54,2626.6 C1365.52,2624.59 1367.89,2623.58 1370.64,2623.58 C1373.39,2623.58 1375.73,2624.57 1377.64,2626.55 C1379.56,2628.53 1380.52,2630.91 1380.52,2633.7 C1380.52,2634.93 1379.5,2636.28 1377.46,2637.73 C1375.42,2639.19 1374.4,2640.53 1374.4,2641.77 C1374.4,2645.48 1378.04,2647.33 1385.34,2647.33 C1392.46,2647.33 1396.01,2639.94 1396.01,2625.16 C1396.01,2621.88 1395.83,2619.01 1395.46,2616.53 C1387.97,2618.08 1378.6,2619.29 1367.34,2620.15 C1365.8,2620.27 1365.03,2619.5 1365.03,2617.83 C1365.03,2616.47 1365.8,2615.73 1367.34,2615.61 C1378.72,2614.68 1387.69,2613.19 1394.25,2611.15 C1392.52,2606.2 1389.55,2603.7 1385.34,2603.64 C1378.97,2603.64 1374.52,2604.94 1371.98,2607.53 C1369.45,2610.13 1367.87,2611.43 1367.25,2611.43 C1365.77,2611.43 1365.03,2610.66 1365.03,2609.11 L1365.03,2577.2 C1365.03,2576.58 1365.24,2576.02 1365.67,2575.53 C1366.17,2575.03 1366.7,2574.79 1367.25,2574.79"/>
<path class="FiguredBass" d="M2152.38,2472.56 C2147.81,2472.56 2144.76,2474.4 2143.24,2478.08 C2141.73,2481.76 2140.97,2486.97 2140.97,2493.71 L2140.97,2504.66 C2144.19,2503.36 2146.97,2502.68 2149.32,2502.62 C2157.36,2502.62 2163.69,2504.4 2168.29,2507.95 C2172.9,2511.51 2175.21,2516.8 2175.21,2523.82 C2175.21,2530.84 2172.87,2536.14 2168.2,2539.73 C2163.53,2543.32 2157.24,2545.11 2149.32,2545.11 C2141.22,2545.11 2134.88,2541.35 2130.3,2533.84 C2125.73,2526.32 2123.44,2517.4 2123.44,2507.07 C2123.44,2496.81 2126.1,2487.9 2131.42,2480.35 C2136.74,2472.81 2143.72,2469.04 2152.38,2469.04 C2158.07,2469.04 2162.99,2470.47 2167.13,2473.35 C2171.28,2476.23 2173.35,2480.01 2173.35,2484.71 C2173.35,2487.44 2172.36,2489.79 2170.38,2491.76 C2168.4,2493.74 2166.04,2494.73 2163.28,2494.73 C2160.53,2494.73 2158.17,2493.74 2156.19,2491.76 C2154.21,2489.79 2153.22,2487.44 2153.22,2484.71 C2153.22,2482.05 2154.21,2479.7 2156.19,2477.66 C2156.87,2476.86 2157.83,2476.18 2159.06,2475.62 C2158.75,2474.82 2158.13,2474.2 2157.21,2473.77 C2155.85,2472.96 2154.24,2472.56 2152.38,2472.56 M2156.93,2510.5 C2155.82,2507.6 2153.37,2506.14 2149.6,2506.14 C2145.83,2506.14 2143.49,2507.6 2142.6,2510.5 C2141.7,2513.41 2141.25,2517.83 2141.25,2523.77 C2141.25,2530.76 2141.7,2535.46 2142.6,2537.87 C2143.49,2540.29 2145.83,2541.49 2149.6,2541.49 C2153.37,2541.49 2155.82,2540.04 2156.93,2537.13 C2158.04,2534.22 2158.6,2529.79 2158.6,2523.82 C2158.6,2517.85 2158.04,2513.41 2156.93,2510.5"/>
<path class="FiguredBass" d="M2129.75,2574.79 L2134.2,2575.43 C2135.37,2575.62 2136.83,2575.81 2138.56,2575.99 C2142.83,2576.49 2146.94,2576.73 2150.9,2576.73 C2154.86,2576.73 2159.03,2576.49 2163.42,2575.99 C2165.15,2575.81 2166.67,2575.62 2167.97,2575.43 L2172.51,2574.79 C2173.44,2574.79 2174.15,2575.09 2174.65,2575.71 C2175.02,2576.21 2174.96,2576.7 2174.46,2577.2 C2164.81,2586.66 2151.49,2591.39 2134.48,2591.39 C2133.8,2591.39 2133.19,2591.64 2132.67,2592.13 C2132.14,2592.63 2131.88,2593.25 2131.88,2593.99 L2131.88,2605.77 C2136.27,2601.44 2141.59,2599.28 2147.84,2599.28 C2156.56,2599.28 2163.36,2601.32 2168.25,2605.4 C2173.57,2601.38 2176.35,2596.25 2176.6,2590 C2176.66,2588.02 2177.31,2586.41 2178.55,2585.18 C2179.91,2583.94 2181.54,2583.32 2183.46,2583.32 C2185.38,2583.32 2187,2583.97 2188.33,2585.27 C2189.66,2586.57 2190.33,2588.14 2190.33,2590 C2190.33,2599.59 2184.67,2606.85 2173.35,2611.8 C2175.21,2615.45 2176.13,2619.9 2176.13,2625.16 C2176.13,2632.15 2173.35,2638.18 2167.78,2643.25 C2162.22,2648.32 2155.57,2650.86 2147.84,2650.86 C2141.16,2650.86 2135.36,2649.34 2130.44,2646.31 C2125.53,2643.28 2123.07,2639.08 2123.07,2633.7 C2123.07,2630.97 2124.06,2628.61 2126.04,2626.6 C2128.01,2624.59 2130.38,2623.58 2133.13,2623.58 C2135.88,2623.58 2138.22,2624.57 2140.14,2626.55 C2142.05,2628.53 2143.01,2630.91 2143.01,2633.7 C2143.01,2634.93 2141.99,2636.28 2139.95,2637.73 C2137.91,2639.19 2136.89,2640.53 2136.89,2641.77 C2136.89,2645.48 2140.54,2647.33 2147.84,2647.33 C2154.95,2647.33 2158.51,2639.94 2158.51,2625.16 C2158.51,2621.88 2158.32,2619.01 2157.95,2616.53 C2150.47,2618.08 2141.1,2619.29 2129.84,2620.15 C2128.29,2620.27 2127.52,2619.5 2127.52,2617.83 C2127.52,2616.47 2128.29,2615.73 2129.84,2615.61 C2141.22,2614.68 2150.19,2613.19 2156.74,2611.15 C2155.01,2606.2 2152.04,2603.7 2147.84,2603.64 C2141.47,2603.64 2137.01,2604.94 2134.48,2607.53 C2131.94,2610.13 2130.36,2611.43 2129.75,2611.43 C2128.26,2611.43 2127.52,2610.66 2127.52,2609.11 L2127.52,2577.2 C2127.52,2576.58 2127.74,2576.02 2128.17,2575.53 C2128.66,2575.03 2129.19,2574.79 2129.75,2574.79"/>
<path class="FiguredBass" d="M2850.84,2472.56 C2846.27,2472.56 2843.22,2474.4 2841.7,2478.08 C2840.19,2481.76 2839.43,2486.97 2839.43,2493.71 L2839.43,2504.66 C2842.65,2503.36 2845.43,2502.68 2847.78,2502.62 C2855.82,2502.62 2862.15,2504.4 2866.75,2507.95 C2871.36,2511.51 2873.66,2516.8 2873.66,2523.82 C2873.66,2530.84 2871.33,2536.14 2866.66,2539.73 C2861.99,2543.32 2855.7,2545.11 2847.78,2545.11 C2839.68,2545.11 2833.34,2541.35 2828.76,2533.84 C2824.19,2526.32 2821.9,2517.4 2821.9,2507.07 C2821.9,2496.81 2824.56,2487.9 2829.88,2480.35 C2835.19,2472.81 2842.18,2469.04 2850.84,2469.04 C2856.53,2469.04 2861.45,2470.47 2865.59,2473.35 C2869.74,2476.23 2871.81,2480.01 2871.81,2484.71 C2871.81,2487.44 2870.82,2489.79 2868.84,2491.76 C2866.86,2493.74 2864.5,2494.73 2861.74,2494.73 C2858.99,2494.73 2856.63,2493.74 2854.65,2491.76 C2852.67,2489.79 2851.68,2487.44 2851.68,2484.71 C2851.68,2482.05 2852.67,2479.7 2854.65,2477.66 C2855.33,2476.86 2856.29,2476.18 2857.52,2475.62 C2857.21,2474.82 2856.59,2474.2 2855.67,2473.77 C2854.31,2472.96 2852.7,2472.56 2850.84,2472.56 M2855.39,2510.5 C2854.28,2507.6 2851.83,2506.14 2848.06,2506.14 C2844.29,2506.14 2841.95,2507.6 2841.05,2510.5 C2840.16,2513.41 2839.71,2517.83 2839.71,2523.77 C2839.71,2530.76 2840.16,2535.46 2841.05,2537.87 C2841.95,2540.29 2844.29,2541.49 2848.06,2541.49 C2851.83,2541.49 2854.28,2540.04 2855.39,2537.13 C2856.5,2534.22 2857.06,2529.79 2857.06,2523.82 C2857.06,2517.85 2856.5,2513.41 2855.39,2510.5"/>
<path class="FiguredBass" d="M2828.21,2574.79 L2832.66,2575.43 C2833.83,2575.62 2835.29,2575.81 2837.02,2575.99 C2841.29,2576.49 2845.4,2576.73 2849.36,2576.73 C2853.32,2576.73 2857.49,2576.49 2861.88,2575.99 C2863.61,2575.81 2865.13,2575.62 2866.43,2575.43 L2870.97,2574.79 C2871.9,2574.79 2872.61,2575.09 2873.11,2575.71 C2873.48,2576.21 2873.42,2576.7 2872.92,2577.2 C2863.27,2586.66 2849.95,2591.39 2832.94,2591.39 C2832.26,2591.39 2831.65,2591.64 2831.13,2592.13 C2830.6,2592.63 2830.34,2593.25 2830.34,2593.99 L2830.34,2605.77 C2834.73,2601.44 2840.05,2599.28 2846.3,2599.28 C2855.02,2599.28 2861.82,2601.32 2866.71,2605.4 C2872.03,2601.38 2874.81,2596.25 2875.06,2590 C2875.12,2588.02 2875.77,2586.41 2877,2585.18 C2878.37,2583.94 2880,2583.32 2881.92,2583.32 C2883.84,2583.32 2885.46,2583.97 2886.79,2585.27 C2888.12,2586.57 2888.79,2588.14 2888.79,2590 C2888.79,2599.59 2883.13,2606.85 2871.81,2611.8 C2873.66,2615.45 2874.59,2619.9 2874.59,2625.16 C2874.59,2632.15 2871.81,2638.18 2866.24,2643.25 C2860.68,2648.32 2854.03,2650.86 2846.3,2650.86 C2839.62,2650.86 2833.82,2649.34 2828.9,2646.31 C2823.98,2643.28 2821.53,2639.08 2821.53,2633.7 C2821.53,2630.97 2822.52,2628.61 2824.49,2626.6 C2826.47,2624.59 2828.84,2623.58 2831.59,2623.58 C2834.34,2623.58 2836.68,2624.57 2838.6,2626.55 C2840.51,2628.53 2841.47,2630.91 2841.47,2633.7 C2841.47,2634.93 2840.45,2636.28 2838.41,2637.73 C2836.37,2639.19 2835.35,2640.53 2835.35,2641.77 C2835.35,2645.48 2839,2647.33 2846.3,2647.33 C2853.41,2647.33 2856.97,2639.94 2856.97,2625.16 C2856.97,2621.88 2856.78,2619.01 2856.41,2616.53 C2848.93,2618.08 2839.55,2619.29 2828.3,2620.15 C2826.75,2620.27 2825.98,2619.5 2825.98,2617.83 C2825.98,2616.47 2826.75,2615.73 2828.3,2615.61 C2839.68,2614.68 2848.65,2613.19 2855.2,2611.15 C2853.47,2606.2 2850.5,2603.7 2846.3,2603.64 C2839.93,2603.64 2835.47,2604.94 2832.94,2607.53 C2830.4,2610.13 2828.82,2611.43 2828.21,2611.43 C2826.72,2611.43 2825.98,2610.66 2825.98,2609.11 L2825.98,2577.2 C2825.98,2576.58 2826.2,2576.02 2826.63,2575.53 C2827.12,2575.03 2827.65,2574.79 2828.21,2574.79"/>
<path class="FiguredBass" d="M3507.64,2472.56 C3503.07,2472.56 3500.02,2474.4 3498.5,2478.08 C3496.99,2481.76 3496.23,2486.97 3496.23,2493.71 L3496.23,2504.66 C3499.45,2503.36 3502.23,2502.68 3504.58,2502.62 C3512.62,2502.62 3518.94,2504.4 3523.55,2507.95 C3528.16,2511.51 3530.46,2516.8 3530.46,2523.82 C3530.46,2530.84 3528.13,2536.14 3523.46,2539.73 C3518.79,2543.32 3512.5,2545.11 3504.58,2545.11 C3496.48,2545.11 3490.14,2541.35 3485.56,2533.84 C3480.98,2526.32 3478.7,2517.4 3478.7,2507.07 C3478.7,2496.81 3481.36,2487.9 3486.68,2480.35 C3491.99,2472.81 3498.98,2469.04 3507.64,2469.04 C3513.33,2469.04 3518.25,2470.47 3522.39,2473.35 C3526.54,2476.23 3528.61,2480.01 3528.61,2484.71 C3528.61,2487.44 3527.62,2489.79 3525.64,2491.76 C3523.66,2493.74 3521.29,2494.73 3518.54,2494.73 C3515.79,2494.73 3513.42,2493.74 3511.45,2491.76 C3509.47,2489.79 3508.48,2487.44 3508.48,2484.71 C3508.48,2482.05 3509.47,2479.7 3511.45,2477.66 C3512.13,2476.86 3513.08,2476.18 3514.32,2475.62 C3514.01,2474.82 3513.39,2474.2 3512.47,2473.77 C3511.11,2472.96 3509.5,2472.56 3507.64,2472.56 M3512.19,2510.5 C3511.07,2507.6 3508.63,2506.14 3504.86,2506.14 C3501.09,2506.14 3498.75,2507.6 3497.85,2510.5 C3496.96,2513.41 3496.51,2517.83 3496.51,2523.77 C3496.51,2530.76 3496.96,2535.46 3497.85,2537.87 C3498.75,2540.29 3501.09,2541.49 3504.86,2541.49 C3508.63,2541.49 3511.07,2540.04 3512.19,2537.13 C3513.3,2534.22 3513.86,2529.79 3513.86,2523.82 C3513.86,2517.85 3513.3,2513.41 3512.19,2510.5"/>
<path class="FiguredBass" d="M3485.01,2574.79 L3489.46,2575.43 C3490.63,2575.62 3492.09,2575.81 3493.82,2575.99 C3498.09,2576.49 3502.2,2576.73 3506.16,2576.73 C3510.12,2576.73 3514.29,2576.49 3518.68,2575.99 C3520.41,2575.81 3521.93,2575.62 3523.23,2575.43 L3527.77,2574.79 C3528.7,2574.79 3529.41,2575.09 3529.91,2575.71 C3530.28,2576.21 3530.22,2576.7 3529.72,2577.2 C3520.07,2586.66 3506.75,2591.39 3489.74,2591.39 C3489.06,2591.39 3488.45,2591.64 3487.93,2592.13 C3487.4,2592.63 3487.14,2593.25 3487.14,2593.99 L3487.14,2605.77 C3491.53,2601.44 3496.85,2599.28 3503.1,2599.28 C3511.82,2599.28 3518.62,2601.32 3523.51,2605.4 C3528.83,2601.38 3531.61,2596.25 3531.86,2590 C3531.92,2588.02 3532.57,2586.41 3533.8,2585.18 C3535.16,2583.94 3536.8,2583.32 3538.72,2583.32 C3540.64,2583.32 3542.26,2583.97 3543.59,2585.27 C3544.92,2586.57 3545.59,2588.14 3545.59,2590 C3545.59,2599.59 3539.93,2606.85 3528.61,2611.8 C3530.46,2615.45 3531.39,2619.9 3531.39,2625.16 C3531.39,2632.15 3528.61,2638.18 3523.04,2643.25 C3517.48,2648.32 3510.83,2650.86 3503.1,2650.86 C3496.42,2650.86 3490.62,2649.34 3485.7,2646.31 C3480.78,2643.28 3478.33,2639.08 3478.33,2633.7 C3478.33,2630.97 3479.32,2628.61 3481.29,2626.6 C3483.27,2624.59 3485.64,2623.58 3488.39,2623.58 C3491.14,2623.58 3493.48,2624.57 3495.4,2626.55 C3497.31,2628.53 3498.27,2630.91 3498.27,2633.7 C3498.27,2634.93 3497.25,2636.28 3495.21,2637.73 C3493.17,2639.19 3492.15,2640.53 3492.15,2641.77 C3492.15,2645.48 3495.8,2647.33 3503.1,2647.33 C3510.21,2647.33 3513.76,2639.94 3513.76,2625.16 C3513.76,2621.88 3513.58,2619.01 3513.21,2616.53 C3505.72,2618.08 3496.35,2619.29 3485.1,2620.15 C3483.55,2620.27 3482.78,2619.5 3482.78,2617.83 C3482.78,2616.47 3483.55,2615.73 3485.1,2615.61 C3496.48,2614.68 3505.45,2613.19 3512,2611.15 C3510.27,2606.2 3507.3,2603.7 3503.1,2603.64 C3496.73,2603.64 3492.27,2604.94 3489.74,2607.53 C3487.2,2610.13 3485.62,2611.43 3485.01,2611.43 C3483.52,2611.43 3482.78,2610.66 3482.78,2609.11 L3482.78,2577.2 C3482.78,2576.58 3483,2576.02 3483.43,2575.53 C3483.92,2575.03 3484.45,2574.79 3485.01,2574.79"/>
<path class="FiguredBass" d="M635.659,1797.3 C635.659,1798.29 636.215,1799.25 637.329,1800.18 C638.442,1801.1 639.663,1801.98 640.993,1802.82 C642.323,1803.65 643.544,1805.23 644.658,1807.55 C645.771,1809.87 646.328,1812.79 646.328,1816.32 C646.328,1823.12 643.761,1828.38 638.627,1832.09 C633.494,1835.8 627,1837.66 619.145,1837.66 C612.836,1837.66 607.347,1836.08 602.678,1832.92 C598.008,1829.77 595.673,1825.63 595.673,1820.49 C595.673,1817.77 596.663,1815.41 598.642,1813.4 C600.621,1811.39 602.987,1810.38 605.739,1810.38 C608.491,1810.38 610.826,1811.37 612.744,1813.35 C614.661,1815.33 615.62,1817.71 615.62,1820.49 C615.62,1821.73 614.599,1823.08 612.558,1824.53 C610.517,1825.98 609.497,1827.33 609.497,1828.56 C609.497,1830.48 610.44,1831.89 612.326,1832.79 C614.213,1833.68 616.485,1834.13 619.145,1834.13 C622.609,1834.13 625.067,1832.41 626.52,1828.98 C627.974,1825.55 628.701,1821.33 628.701,1816.32 L628.701,1813.91 C628.701,1810.57 628.592,1808.03 628.376,1806.3 C628.159,1804.57 627.479,1803.02 626.335,1801.66 C625.191,1800.3 623.443,1799.62 621.093,1799.62 L608.94,1799.62 C607.517,1799.62 606.806,1798.85 606.806,1797.3 C606.806,1795.88 607.517,1795.17 608.94,1795.17 L621.093,1795.17 C623.629,1795.17 625.608,1794.21 627.031,1792.29 C627.525,1791.61 627.928,1790.5 628.237,1788.95 C628.546,1786.91 628.701,1783.97 628.701,1780.14 L628.701,1778.93 C628.701,1769.72 625.299,1765.11 618.496,1765.11 C612.496,1765.11 609.497,1766.78 609.497,1770.12 C609.497,1771.23 610.409,1772.42 612.233,1773.69 C614.058,1774.96 614.97,1776.15 614.97,1777.26 C614.97,1779.67 614.12,1781.74 612.419,1783.48 C610.718,1785.21 608.646,1786.07 606.203,1786.07 C603.76,1786.07 601.704,1785.21 600.034,1783.48 C598.364,1781.74 597.529,1779.67 597.529,1777.26 C597.529,1772.5 599.601,1768.69 603.745,1765.85 C607.888,1763 612.805,1761.58 618.496,1761.58 C625.979,1761.58 632.133,1763.02 636.957,1765.9 C641.782,1768.77 644.194,1773.12 644.194,1778.93 C644.194,1783.07 643.761,1786.29 642.895,1788.58 C642.029,1790.87 641.039,1792.26 639.926,1792.75 C638.813,1793.25 637.823,1793.82 636.957,1794.47 C636.092,1795.12 635.659,1796.06 635.659,1797.3"/>
<path class="FiguredBass" d="M623.784,1870.86 C619.207,1870.86 616.161,1872.7 614.645,1876.38 C613.13,1880.06 612.373,1885.27 612.373,1892.01 L612.373,1902.96 C615.589,1901.66 618.372,1900.98 620.722,1900.92 C628.762,1900.92 635.087,1902.69 639.694,1906.25 C644.302,1909.81 646.606,1915.09 646.606,1922.11 C646.606,1929.13 644.271,1934.44 639.602,1938.03 C634.932,1941.61 628.639,1943.41 620.722,1943.41 C612.62,1943.41 606.28,1939.65 601.704,1932.13 C597.127,1924.62 594.838,1915.7 594.838,1905.37 C594.838,1895.1 597.498,1886.2 602.817,1878.65 C608.136,1871.1 615.125,1867.33 623.784,1867.33 C629.474,1867.33 634.391,1868.77 638.535,1871.65 C642.678,1874.52 644.75,1878.31 644.75,1883.01 C644.75,1885.73 643.761,1888.08 641.782,1890.06 C639.803,1892.04 637.437,1893.03 634.685,1893.03 C631.932,1893.03 629.567,1892.04 627.587,1890.06 C625.608,1888.08 624.619,1885.73 624.619,1883.01 C624.619,1880.35 625.608,1878 627.587,1875.96 C628.268,1875.16 629.226,1874.48 630.463,1873.92 C630.154,1873.11 629.536,1872.5 628.608,1872.06 C627.247,1871.26 625.639,1870.86 623.784,1870.86 M628.33,1908.8 C627.216,1905.89 624.773,1904.44 621,1904.44 C617.228,1904.44 614.893,1905.89 613.996,1908.8 C613.099,1911.71 612.651,1916.13 612.651,1922.07 C612.651,1929.06 613.099,1933.76 613.996,1936.17 C614.893,1938.58 617.228,1939.79 621,1939.79 C624.773,1939.79 627.216,1938.33 628.33,1935.43 C629.443,1932.52 629.999,1928.08 629.999,1922.11 C629.999,1916.15 629.443,1911.71 628.33,1908.8"/>
<path class="FiguredBass" d="M601.147,1973.08 C601.147,1973.08 602.631,1973.3 605.6,1973.73 C606.899,1973.92 608.352,1974.1 609.96,1974.29 C614.228,1974.78 618.341,1975.03 622.299,1975.03 C626.258,1975.03 630.432,1974.78 634.824,1974.29 C636.555,1974.1 638.071,1973.92 639.37,1973.73 L643.915,1973.08 C644.843,1973.08 645.539,1973.39 646.003,1974.01 C646.467,1974.63 646.42,1975.12 645.864,1975.49 C636.401,1984.96 623.072,1989.69 605.878,1989.69 C605.198,1989.69 604.595,1989.94 604.069,1990.43 C603.544,1990.93 603.281,1991.54 603.281,1992.29 L603.281,2006.85 C607.672,2002.52 612.991,2000.36 619.238,2000.36 C628.268,2000.36 635.241,2002.38 640.158,2006.43 C645.075,2010.49 647.534,2016.62 647.534,2024.85 C647.534,2031.84 644.75,2037.64 639.184,2042.24 C633.618,2046.85 626.969,2049.16 619.238,2049.16 C612.558,2049.16 606.76,2047.64 601.843,2044.61 C596.926,2041.58 594.467,2037.37 594.467,2031.99 C594.467,2029.27 595.457,2026.91 597.436,2024.9 C599.415,2022.89 601.781,2021.88 604.533,2021.88 C607.285,2021.88 609.62,2022.87 611.538,2024.85 C613.455,2026.83 614.414,2029.21 614.414,2031.99 C614.414,2033.23 613.393,2034.58 611.352,2036.03 C609.311,2037.48 608.29,2038.83 608.29,2040.06 C608.29,2043.78 611.94,2045.63 619.238,2045.63 C626.35,2045.63 629.907,2038.7 629.907,2024.85 C629.907,2011.49 626.35,2004.78 619.238,2004.72 C612.867,2004.72 608.414,2006.02 605.878,2008.61 C603.343,2011.21 601.765,2012.51 601.147,2012.51 C599.601,2012.51 598.859,2011.74 598.92,2010.19 L598.92,1975.49 C598.92,1974.81 599.137,1974.24 599.57,1973.78 C600.003,1973.31 600.528,1973.08 601.147,1973.08"/>
<path class="FiguredBass" d="M1367.25,1761.58 C1367.25,1761.58 1368.74,1761.8 1371.71,1762.23 C1373,1762.42 1374.46,1762.6 1376.07,1762.79 C1380.33,1763.28 1384.45,1763.53 1388.4,1763.53 C1392.36,1763.53 1396.54,1763.28 1400.93,1762.79 C1402.66,1762.6 1404.18,1762.42 1405.47,1762.23 L1410.02,1761.58 C1410.95,1761.58 1411.64,1761.89 1412.11,1762.51 C1412.57,1763.13 1412.53,1763.62 1411.97,1763.99 C1402.51,1773.46 1389.18,1778.19 1371.98,1778.19 C1371.3,1778.19 1370.7,1778.44 1370.17,1778.93 C1369.65,1779.43 1369.39,1780.04 1369.39,1780.79 L1369.39,1795.35 C1373.78,1791.02 1379.1,1788.86 1385.34,1788.86 C1394.37,1788.86 1401.35,1790.88 1406.26,1794.93 C1411.18,1798.99 1413.64,1805.12 1413.64,1813.35 C1413.64,1820.34 1410.86,1826.14 1405.29,1830.74 C1399.72,1835.35 1393.07,1837.66 1385.34,1837.66 C1378.66,1837.66 1372.86,1836.14 1367.95,1833.11 C1363.03,1830.08 1360.57,1825.87 1360.57,1820.49 C1360.57,1817.77 1361.56,1815.41 1363.54,1813.4 C1365.52,1811.39 1367.89,1810.38 1370.64,1810.38 C1373.39,1810.38 1375.73,1811.37 1377.64,1813.35 C1379.56,1815.33 1380.52,1817.71 1380.52,1820.49 C1380.52,1821.73 1379.5,1823.08 1377.46,1824.53 C1375.42,1825.98 1374.4,1827.33 1374.4,1828.56 C1374.4,1832.28 1378.04,1834.13 1385.34,1834.13 C1392.46,1834.13 1396.01,1827.2 1396.01,1813.35 C1396.01,1799.99 1392.46,1793.28 1385.34,1793.22 C1378.97,1793.22 1374.52,1794.52 1371.98,1797.11 C1369.45,1799.71 1367.87,1801.01 1367.25,1801.01 C1365.71,1801.01 1364.96,1800.24 1365.03,1798.69 L1365.03,1763.99 C1365.03,1763.31 1365.24,1762.74 1365.67,1762.28 C1366.11,1761.81 1366.63,1761.58 1367.25,1761.58"/>
<path class="FiguredBass" d="M1401.76,1903.05 C1401.76,1904.04 1402.32,1905 1403.43,1905.93 C1404.55,1906.85 1405.77,1907.73 1407.1,1908.57 C1408.43,1909.4 1409.65,1910.98 1410.76,1913.3 C1411.88,1915.62 1412.43,1918.54 1412.43,1922.07 C1412.43,1928.87 1409.87,1934.13 1404.73,1937.84 C1399.6,1941.55 1393.1,1943.41 1385.25,1943.41 C1378.94,1943.41 1373.45,1941.83 1368.78,1938.67 C1364.11,1935.52 1361.78,1931.38 1361.78,1926.24 C1361.78,1923.52 1362.77,1921.16 1364.75,1919.15 C1366.73,1917.14 1369.09,1916.13 1371.84,1916.13 C1374.6,1916.13 1376.93,1917.12 1378.85,1919.1 C1380.77,1921.08 1381.72,1923.46 1381.72,1926.24 C1381.72,1927.48 1380.7,1928.83 1378.66,1930.28 C1376.62,1931.73 1375.6,1933.08 1375.6,1934.31 C1375.6,1936.23 1376.54,1937.64 1378.43,1938.54 C1380.32,1939.43 1382.59,1939.88 1385.25,1939.88 C1388.71,1939.88 1391.17,1938.16 1392.63,1934.73 C1394.08,1931.3 1394.81,1927.08 1394.81,1922.07 L1394.81,1919.66 C1394.81,1916.32 1394.7,1913.78 1394.48,1912.05 C1394.26,1910.32 1393.58,1908.77 1392.44,1907.41 C1391.3,1906.05 1389.55,1905.37 1387.2,1905.37 L1375.04,1905.37 C1373.62,1905.37 1372.91,1904.6 1372.91,1903.05 C1372.91,1901.63 1373.62,1900.92 1375.04,1900.92 L1387.2,1900.92 C1389.73,1900.92 1391.71,1899.96 1393.14,1898.04 C1393.63,1897.36 1394.03,1896.25 1394.34,1894.7 C1394.65,1892.66 1394.81,1889.72 1394.81,1885.89 L1394.81,1884.68 C1394.81,1875.47 1391.4,1870.86 1384.6,1870.86 C1378.6,1870.86 1375.6,1872.53 1375.6,1875.87 C1375.6,1876.98 1376.51,1878.17 1378.34,1879.44 C1380.16,1880.71 1381.08,1881.9 1381.08,1883.01 C1381.08,1885.42 1380.22,1887.49 1378.52,1889.23 C1376.82,1890.96 1374.75,1891.82 1372.31,1891.82 C1369.87,1891.82 1367.81,1890.96 1366.14,1889.23 C1364.47,1887.49 1363.63,1885.42 1363.63,1883.01 C1363.63,1878.25 1365.71,1874.44 1369.85,1871.6 C1373.99,1868.75 1378.91,1867.33 1384.6,1867.33 C1392.08,1867.33 1398.24,1868.77 1403.06,1871.65 C1407.89,1874.52 1410.3,1878.87 1410.3,1884.68 C1410.3,1888.82 1409.87,1892.04 1409,1894.33 C1408.13,1896.62 1407.14,1898.01 1406.03,1898.5 C1404.92,1899 1403.93,1899.57 1403.06,1900.22 C1402.2,1900.87 1401.76,1901.81 1401.76,1903.05"/>
<path class="FiguredBass" d="M1389.89,1976.61 C1385.31,1976.61 1382.27,1978.45 1380.75,1982.13 C1379.24,1985.81 1378.48,1991.02 1378.48,1997.76 L1378.48,2008.71 C1381.69,2007.41 1384.48,2006.73 1386.83,2006.67 C1394.87,2006.67 1401.19,2008.44 1405.8,2012 C1410.41,2015.56 1412.71,2020.84 1412.71,2027.86 C1412.71,2034.88 1410.38,2040.19 1405.71,2043.78 C1401.04,2047.36 1394.74,2049.16 1386.83,2049.16 C1378.72,2049.16 1372.39,2045.4 1367.81,2037.88 C1363.23,2030.37 1360.94,2021.45 1360.94,2011.12 C1360.94,2000.85 1363.6,1991.95 1368.92,1984.4 C1374.24,1976.85 1381.23,1973.08 1389.89,1973.08 C1395.58,1973.08 1400.5,1974.52 1404.64,1977.4 C1408.78,1980.27 1410.86,1984.06 1410.86,1988.76 C1410.86,1991.48 1409.87,1993.83 1407.89,1995.81 C1405.91,1997.79 1403.54,1998.78 1400.79,1998.78 C1398.04,1998.78 1395.67,1997.79 1393.69,1995.81 C1391.71,1993.83 1390.72,1991.48 1390.72,1988.76 C1390.72,1986.1 1391.71,1983.75 1393.69,1981.71 C1394.37,1980.91 1395.33,1980.23 1396.57,1979.67 C1396.26,1978.86 1395.64,1978.25 1394.71,1977.81 C1393.35,1977.01 1391.74,1976.61 1389.89,1976.61 M1394.43,2014.55 C1393.32,2011.64 1390.88,2010.19 1387.11,2010.19 C1383.33,2010.19 1381,2011.64 1380.1,2014.55 C1379.2,2017.46 1378.76,2021.88 1378.76,2027.82 C1378.76,2034.81 1379.2,2039.51 1380.1,2041.92 C1381,2044.33 1383.33,2045.54 1387.11,2045.54 C1390.88,2045.54 1393.32,2044.08 1394.43,2041.18 C1395.55,2038.27 1396.1,2033.83 1396.1,2027.86 C1396.1,2021.9 1395.55,2017.46 1394.43,2014.55"/>
<path class="FiguredBass" d="M2152.38,1765.11 C2147.81,1765.11 2144.76,1766.95 2143.24,1770.63 C2141.73,1774.31 2140.97,1779.52 2140.97,1786.26 L2140.97,1797.21 C2144.19,1795.91 2146.97,1795.23 2149.32,1795.17 C2157.36,1795.17 2163.69,1796.94 2168.29,1800.5 C2172.9,1804.06 2175.21,1809.34 2175.21,1816.36 C2175.21,1823.38 2172.87,1828.69 2168.2,1832.28 C2163.53,1835.86 2157.24,1837.66 2149.32,1837.66 C2141.22,1837.66 2134.88,1833.9 2130.3,1826.38 C2125.73,1818.87 2123.44,1809.95 2123.44,1799.62 C2123.44,1789.35 2126.1,1780.45 2131.42,1772.9 C2136.74,1765.35 2143.72,1761.58 2152.38,1761.58 C2158.07,1761.58 2162.99,1763.02 2167.13,1765.9 C2171.28,1768.77 2173.35,1772.56 2173.35,1777.26 C2173.35,1779.98 2172.36,1782.33 2170.38,1784.31 C2168.4,1786.29 2166.04,1787.28 2163.28,1787.28 C2160.53,1787.28 2158.17,1786.29 2156.19,1784.31 C2154.21,1782.33 2153.22,1779.98 2153.22,1777.26 C2153.22,1774.6 2154.21,1772.25 2156.19,1770.21 C2156.87,1769.41 2157.83,1768.73 2159.06,1768.17 C2158.75,1767.36 2158.13,1766.75 2157.21,1766.31 C2155.85,1765.51 2154.24,1765.11 2152.38,1765.11 M2156.93,1803.05 C2155.82,1800.14 2153.37,1798.69 2149.6,1798.69 C2145.83,1798.69 2143.49,1800.14 2142.6,1803.05 C2141.7,1805.96 2141.25,1810.38 2141.25,1816.32 C2141.25,1823.31 2141.7,1828.01 2142.6,1830.42 C2143.49,1832.83 2145.83,1834.04 2149.6,1834.04 C2153.37,1834.04 2155.82,1832.58 2156.93,1829.68 C2158.04,1826.77 2158.6,1822.33 2158.6,1816.36 C2158.6,1810.4 2158.04,1805.96 2156.93,1803.05"/>
<path class="FiguredBass" d="M2129.75,1867.33 C2129.75,1867.33 2131.23,1867.55 2134.2,1867.98 C2135.5,1868.17 2136.95,1868.35 2138.56,1868.54 C2142.83,1869.03 2146.94,1869.28 2150.9,1869.28 C2154.86,1869.28 2159.03,1869.03 2163.42,1868.54 C2165.15,1868.35 2166.67,1868.17 2167.97,1867.98 L2172.51,1867.33 C2173.44,1867.33 2174.14,1867.64 2174.6,1868.26 C2175.07,1868.88 2175.02,1869.37 2174.46,1869.74 C2165,1879.21 2151.67,1883.94 2134.48,1883.94 C2133.8,1883.94 2133.19,1884.19 2132.67,1884.68 C2132.14,1885.18 2131.88,1885.79 2131.88,1886.54 L2131.88,1901.1 C2136.27,1896.77 2141.59,1894.61 2147.84,1894.61 C2156.87,1894.61 2163.84,1896.63 2168.76,1900.68 C2173.67,1904.74 2176.13,1910.87 2176.13,1919.1 C2176.13,1926.09 2173.35,1931.89 2167.78,1936.49 C2162.22,1941.1 2155.57,1943.41 2147.84,1943.41 C2141.16,1943.41 2135.36,1941.89 2130.44,1938.86 C2125.53,1935.83 2123.07,1931.62 2123.07,1926.24 C2123.07,1923.52 2124.06,1921.16 2126.04,1919.15 C2128.01,1917.14 2130.38,1916.13 2133.13,1916.13 C2135.88,1916.13 2138.22,1917.12 2140.14,1919.1 C2142.05,1921.08 2143.01,1923.46 2143.01,1926.24 C2143.01,1927.48 2141.99,1928.83 2139.95,1930.28 C2137.91,1931.73 2136.89,1933.08 2136.89,1934.31 C2136.89,1938.03 2140.54,1939.88 2147.84,1939.88 C2154.95,1939.88 2158.51,1932.95 2158.51,1919.1 C2158.51,1905.74 2154.95,1899.03 2147.84,1898.97 C2141.47,1898.97 2137.01,1900.27 2134.48,1902.86 C2131.94,1905.46 2130.36,1906.76 2129.75,1906.76 C2128.2,1906.76 2127.46,1905.99 2127.52,1904.44 L2127.52,1869.74 C2127.52,1869.06 2127.74,1868.49 2128.17,1868.03 C2128.6,1867.56 2129.13,1867.33 2129.75,1867.33"/>
<path class="FiguredBass" d="M2164.26,2008.8 C2164.26,2009.79 2164.81,2010.75 2165.93,2011.68 C2167.04,2012.6 2168.26,2013.48 2169.59,2014.32 C2170.92,2015.15 2172.14,2016.73 2173.26,2019.05 C2174.37,2021.37 2174.93,2024.29 2174.93,2027.82 C2174.93,2034.62 2172.36,2039.88 2167.23,2043.59 C2162.09,2047.3 2155.6,2049.16 2147.74,2049.16 C2141.44,2049.16 2135.95,2047.58 2131.28,2044.42 C2126.61,2041.27 2124.27,2037.13 2124.27,2031.99 C2124.27,2029.27 2125.26,2026.91 2127.24,2024.9 C2129.22,2022.89 2131.59,2021.88 2134.34,2021.88 C2137.09,2021.88 2139.43,2022.87 2141.34,2024.85 C2143.26,2026.83 2144.22,2029.21 2144.22,2031.99 C2144.22,2033.23 2143.2,2034.58 2141.16,2036.03 C2139.12,2037.48 2138.1,2038.83 2138.1,2040.06 C2138.1,2041.98 2139.04,2043.39 2140.93,2044.29 C2142.81,2045.18 2145.08,2045.63 2147.74,2045.63 C2151.21,2045.63 2153.67,2043.91 2155.12,2040.48 C2156.57,2037.05 2157.3,2032.83 2157.3,2027.82 L2157.3,2025.41 C2157.3,2022.07 2157.19,2019.53 2156.98,2017.8 C2156.76,2016.07 2156.08,2014.52 2154.93,2013.16 C2153.79,2011.8 2152.04,2011.12 2149.69,2011.12 L2137.54,2011.12 C2136.12,2011.12 2135.41,2010.35 2135.41,2008.8 C2135.41,2007.38 2136.12,2006.67 2137.54,2006.67 L2149.69,2006.67 C2152.23,2006.67 2154.21,2005.71 2155.63,2003.79 C2156.12,2003.11 2156.53,2002 2156.84,2000.45 C2157.15,1998.41 2157.3,1995.47 2157.3,1991.64 L2157.3,1990.43 C2157.3,1981.22 2153.9,1976.61 2147.09,1976.61 C2141.1,1976.61 2138.1,1978.28 2138.1,1981.62 C2138.1,1982.73 2139.01,1983.92 2140.83,1985.19 C2142.66,1986.46 2143.57,1987.65 2143.57,1988.76 C2143.57,1991.17 2142.72,1993.24 2141.02,1994.98 C2139.32,1996.71 2137.25,1997.57 2134.8,1997.57 C2132.36,1997.57 2130.3,1996.71 2128.63,1994.98 C2126.96,1993.24 2126.13,1991.17 2126.13,1988.76 C2126.13,1984 2128.2,1980.19 2132.34,1977.35 C2136.49,1974.5 2141.4,1973.08 2147.09,1973.08 C2154.58,1973.08 2160.73,1974.52 2165.56,1977.4 C2170.38,1980.27 2172.79,1984.62 2172.79,1990.43 C2172.79,1994.57 2172.36,1997.79 2171.49,2000.08 C2170.63,2002.37 2169.64,2003.76 2168.53,2004.25 C2167.41,2004.75 2166.42,2005.32 2165.56,2005.97 C2164.69,2006.62 2164.26,2007.56 2164.26,2008.8"/>
<path class="FiguredBass" d="M2862.72,1797.3 C2862.72,1798.29 2863.27,1799.25 2864.39,1800.18 C2865.5,1801.1 2866.72,1801.98 2868.05,1802.82 C2869.38,1803.65 2870.6,1805.23 2871.72,1807.55 C2872.83,1809.87 2873.39,1812.79 2873.39,1816.32 C2873.39,1823.12 2870.82,1828.38 2865.69,1832.09 C2860.55,1835.8 2854.06,1837.66 2846.2,1837.66 C2839.9,1837.66 2834.41,1836.08 2829.74,1832.92 C2825.07,1829.77 2822.73,1825.63 2822.73,1820.49 C2822.73,1817.77 2823.72,1815.41 2825.7,1813.4 C2827.68,1811.39 2830.05,1810.38 2832.8,1810.38 C2835.55,1810.38 2837.89,1811.37 2839.8,1813.35 C2841.72,1815.33 2842.68,1817.71 2842.68,1820.49 C2842.68,1821.73 2841.66,1823.08 2839.62,1824.53 C2837.58,1825.98 2836.56,1827.33 2836.56,1828.56 C2836.56,1830.48 2837.5,1831.89 2839.38,1832.79 C2841.27,1833.68 2843.54,1834.13 2846.2,1834.13 C2849.67,1834.13 2852.13,1832.41 2853.58,1828.98 C2855.03,1825.55 2855.76,1821.33 2855.76,1816.32 L2855.76,1813.91 C2855.76,1810.57 2855.65,1808.03 2855.43,1806.3 C2855.22,1804.57 2854.54,1803.02 2853.39,1801.66 C2852.25,1800.3 2850.5,1799.62 2848.15,1799.62 L2836,1799.62 C2834.58,1799.62 2833.86,1798.85 2833.86,1797.3 C2833.86,1795.88 2834.58,1795.17 2836,1795.17 L2848.15,1795.17 C2850.69,1795.17 2852.67,1794.21 2854.09,1792.29 C2854.58,1791.61 2854.99,1790.5 2855.3,1788.95 C2855.6,1786.91 2855.76,1783.97 2855.76,1780.14 L2855.76,1778.93 C2855.76,1769.72 2852.36,1765.11 2845.55,1765.11 C2839.55,1765.11 2836.56,1766.78 2836.56,1770.12 C2836.56,1771.23 2837.47,1772.42 2839.29,1773.69 C2841.12,1774.96 2842.03,1776.15 2842.03,1777.26 C2842.03,1779.67 2841.18,1781.74 2839.48,1783.48 C2837.78,1785.21 2835.7,1786.07 2833.26,1786.07 C2830.82,1786.07 2828.76,1785.21 2827.09,1783.48 C2825.42,1781.74 2824.59,1779.67 2824.59,1777.26 C2824.59,1772.5 2826.66,1768.69 2830.8,1765.85 C2834.95,1763 2839.86,1761.58 2845.55,1761.58 C2853.04,1761.58 2859.19,1763.02 2864.02,1765.9 C2868.84,1768.77 2871.25,1773.12 2871.25,1778.93 C2871.25,1783.07 2870.82,1786.29 2869.95,1788.58 C2869.09,1790.87 2868.1,1792.26 2866.98,1792.75 C2865.87,1793.25 2864.88,1793.82 2864.02,1794.47 C2863.15,1795.12 2862.72,1796.06 2862.72,1797.3"/>
<path class="FiguredBass" d="M2828.21,1867.33 C2828.21,1867.33 2829.69,1867.55 2832.66,1867.98 C2833.96,1868.17 2835.41,1868.35 2837.02,1868.54 C2841.29,1869.03 2845.4,1869.28 2849.36,1869.28 C2853.32,1869.28 2857.49,1869.03 2861.88,1868.54 C2863.61,1868.35 2865.13,1868.17 2866.43,1867.98 L2870.97,1867.33 C2871.9,1867.33 2872.6,1867.64 2873.06,1868.26 C2873.53,1868.88 2873.48,1869.37 2872.92,1869.74 C2863.46,1879.21 2850.13,1883.94 2832.94,1883.94 C2832.26,1883.94 2831.65,1884.19 2831.13,1884.68 C2830.6,1885.18 2830.34,1885.79 2830.34,1886.54 L2830.34,1901.1 C2834.73,1896.77 2840.05,1894.61 2846.3,1894.61 C2855.33,1894.61 2862.3,1896.63 2867.22,1900.68 C2872.13,1904.74 2874.59,1910.87 2874.59,1919.1 C2874.59,1926.09 2871.81,1931.89 2866.24,1936.49 C2860.68,1941.1 2854.03,1943.41 2846.3,1943.41 C2839.62,1943.41 2833.82,1941.89 2828.9,1938.86 C2823.98,1935.83 2821.53,1931.62 2821.53,1926.24 C2821.53,1923.52 2822.52,1921.16 2824.49,1919.15 C2826.47,1917.14 2828.84,1916.13 2831.59,1916.13 C2834.34,1916.13 2836.68,1917.12 2838.6,1919.1 C2840.51,1921.08 2841.47,1923.46 2841.47,1926.24 C2841.47,1927.48 2840.45,1928.83 2838.41,1930.28 C2836.37,1931.73 2835.35,1933.08 2835.35,1934.31 C2835.35,1938.03 2839,1939.88 2846.3,1939.88 C2853.41,1939.88 2856.97,1932.95 2856.97,1919.1 C2856.97,1905.74 2853.41,1899.03 2846.3,1898.97 C2839.93,1898.97 2835.47,1900.27 2832.94,1902.86 C2830.4,1905.46 2828.82,1906.76 2828.21,1906.76 C2826.66,1906.76 2825.92,1905.99 2825.98,1904.44 L2825.98,1869.74 C2825.98,1869.06 2826.2,1868.49 2826.63,1868.03 C2827.06,1867.56 2827.59,1867.33 2828.21,1867.33"/>
<path class="FiguredBass" d="M3519.52,1797.3 C3519.52,1798.29 3520.07,1799.25 3521.19,1800.18 C3522.3,1801.1 3523.52,1801.98 3524.85,1802.82 C3526.18,1803.65 3527.4,1805.23 3528.52,1807.55 C3529.63,1809.87 3530.19,1812.79 3530.19,1816.32 C3530.19,1823.12 3527.62,1828.38 3522.49,1832.09 C3517.35,1835.8 3510.86,1837.66 3503,1837.66 C3496.69,1837.66 3491.21,1836.08 3486.54,1832.92 C3481.87,1829.77 3479.53,1825.63 3479.53,1820.49 C3479.53,1817.77 3480.52,1815.41 3482.5,1813.4 C3484.48,1811.39 3486.85,1810.38 3489.6,1810.38 C3492.35,1810.38 3494.68,1811.37 3496.6,1813.35 C3498.52,1815.33 3499.48,1817.71 3499.48,1820.49 C3499.48,1821.73 3498.46,1823.08 3496.42,1824.53 C3494.38,1825.98 3493.35,1827.33 3493.35,1828.56 C3493.35,1830.48 3494.3,1831.89 3496.18,1832.79 C3498.07,1833.68 3500.34,1834.13 3503,1834.13 C3506.47,1834.13 3508.93,1832.41 3510.38,1828.98 C3511.83,1825.55 3512.56,1821.33 3512.56,1816.32 L3512.56,1813.91 C3512.56,1810.57 3512.45,1808.03 3512.23,1806.3 C3512.02,1804.57 3511.34,1803.02 3510.19,1801.66 C3509.05,1800.3 3507.3,1799.62 3504.95,1799.62 L3492.8,1799.62 C3491.38,1799.62 3490.66,1798.85 3490.66,1797.3 C3490.66,1795.88 3491.38,1795.17 3492.8,1795.17 L3504.95,1795.17 C3507.49,1795.17 3509.47,1794.21 3510.89,1792.29 C3511.38,1791.61 3511.79,1790.5 3512.09,1788.95 C3512.4,1786.91 3512.56,1783.97 3512.56,1780.14 L3512.56,1778.93 C3512.56,1769.72 3509.16,1765.11 3502.35,1765.11 C3496.35,1765.11 3493.35,1766.78 3493.35,1770.12 C3493.35,1771.23 3494.27,1772.42 3496.09,1773.69 C3497.92,1774.96 3498.83,1776.15 3498.83,1777.26 C3498.83,1779.67 3497.98,1781.74 3496.28,1783.48 C3494.58,1785.21 3492.5,1786.07 3490.06,1786.07 C3487.62,1786.07 3485.56,1785.21 3483.89,1783.48 C3482.22,1781.74 3481.39,1779.67 3481.39,1777.26 C3481.39,1772.5 3483.46,1768.69 3487.6,1765.85 C3491.75,1763 3496.66,1761.58 3502.35,1761.58 C3509.84,1761.58 3515.99,1763.02 3520.82,1765.9 C3525.64,1768.77 3528.05,1773.12 3528.05,1778.93 C3528.05,1783.07 3527.62,1786.29 3526.75,1788.58 C3525.89,1790.87 3524.9,1792.26 3523.78,1792.75 C3522.67,1793.25 3521.68,1793.82 3520.82,1794.47 C3519.95,1795.12 3519.52,1796.06 3519.52,1797.3"/>
<path class="FiguredBass" d="M3507.64,1870.86 C3503.07,1870.86 3500.02,1872.7 3498.5,1876.38 C3496.99,1880.06 3496.23,1885.27 3496.23,1892.01 L3496.23,1902.96 C3499.45,1901.66 3502.23,1900.98 3504.58,1900.92 C3512.62,1900.92 3518.94,1902.69 3523.55,1906.25 C3528.16,1909.81 3530.46,1915.09 3530.46,1922.11 C3530.46,1929.13 3528.13,1934.44 3523.46,1938.03 C3518.79,1941.61 3512.5,1943.41 3504.58,1943.41 C3496.48,1943.41 3490.14,1939.65 3485.56,1932.13 C3480.98,1924.62 3478.7,1915.7 3478.7,1905.37 C3478.7,1895.1 3481.36,1886.2 3486.68,1878.65 C3491.99,1871.1 3498.98,1867.33 3507.64,1867.33 C3513.33,1867.33 3518.25,1868.77 3522.39,1871.65 C3526.54,1874.52 3528.61,1878.31 3528.61,1883.01 C3528.61,1885.73 3527.62,1888.08 3525.64,1890.06 C3523.66,1892.04 3521.29,1893.03 3518.54,1893.03 C3515.79,1893.03 3513.42,1892.04 3511.45,1890.06 C3509.47,1888.08 3508.48,1885.73 3508.48,1883.01 C3508.48,1880.35 3509.47,1878 3511.45,1875.96 C3512.13,1875.16 3513.08,1874.48 3514.32,1873.92 C3514.01,1873.11 3513.39,1872.5 3512.47,1872.06 C3511.11,1871.26 3509.5,1870.86 3507.64,1870.86 M3512.19,1908.8 C3511.07,1905.89 3508.63,1904.44 3504.86,1904.44 C3501.09,1904.44 3498.75,1905.89 3497.85,1908.8 C3496.96,1911.71 3496.51,1916.13 3496.51,1922.07 C3496.51,1929.06 3496.96,1933.76 3497.85,1936.17 C3498.75,1938.58 3501.09,1939.79 3504.86,1939.79 C3508.63,1939.79 3511.07,1938.33 3512.19,1935.43 C3513.3,1932.52 3513.86,1928.08 3513.86,1922.11 C3513.86,1916.15 3513.3,1911.71 3512.19,1908.8"/>
<path class="FiguredBass" d="M3485.01,1973.08 C3485.01,1973.08 3486.49,1973.3 3489.46,1973.73 C3490.76,1973.92 3492.21,1974.1 3493.82,1974.29 C3498.09,1974.78 3502.2,1975.03 3506.16,1975.03 C3510.12,1975.03 3514.29,1974.78 3518.68,1974.29 C3520.41,1974.1 3521.93,1973.92 3523.23,1973.73 L3527.77,1973.08 C3528.7,1973.08 3529.4,1973.39 3529.86,1974.01 C3530.32,1974.63 3530.28,1975.12 3529.72,1975.49 C3520.26,1984.96 3506.93,1989.69 3489.74,1989.69 C3489.06,1989.69 3488.45,1989.94 3487.93,1990.43 C3487.4,1990.93 3487.14,1991.54 3487.14,1992.29 L3487.14,2006.85 C3491.53,2002.52 3496.85,2000.36 3503.1,2000.36 C3512.13,2000.36 3519.1,2002.38 3524.02,2006.43 C3528.93,2010.49 3531.39,2016.62 3531.39,2024.85 C3531.39,2031.84 3528.61,2037.64 3523.04,2042.24 C3517.48,2046.85 3510.83,2049.16 3503.1,2049.16 C3496.42,2049.16 3490.62,2047.64 3485.7,2044.61 C3480.78,2041.58 3478.33,2037.37 3478.33,2031.99 C3478.33,2029.27 3479.32,2026.91 3481.29,2024.9 C3483.27,2022.89 3485.64,2021.88 3488.39,2021.88 C3491.14,2021.88 3493.48,2022.87 3495.4,2024.85 C3497.31,2026.83 3498.27,2029.21 3498.27,2031.99 C3498.27,2033.23 3497.25,2034.58 3495.21,2036.03 C3493.17,2037.48 3492.15,2038.83 3492.15,2040.06 C3492.15,2043.78 3495.8,2045.63 3503.1,2045.63 C3510.21,2045.63 3513.76,2038.7 3513.76,2024.85 C3513.76,2011.49 3510.21,2004.78 3503.1,2004.72 C3496.73,2004.72 3492.27,2006.02 3489.74,2008.61 C3487.2,2011.21 3485.62,2012.51 3485.01,2012.51 C3483.46,2012.51 3482.72,2011.74 3482.78,2010.19 L3482.78,1975.49 C3482.78,1974.81 3483,1974.24 3483.43,1973.78 C3483.86,1973.31 3484.39,1973.08 3485.01,1973.08"/>
<path class="Bracket" transform="matrix(8.6315,0,0,9.45563,76.1283,2337.37)" d="M0.92002,-50 C2.69004,-51.88 6.2,-55.8 6.2,-63 C6.2,-72.1 2.25996,-81.32 2.25996,-86.97 C2.25996,-93.06 5.84004,-98.84 5.95,-99 C6.05996,-99.16 6.05,-99.39 5.94004,-99.46 C5.82998,-99.53 5.62002,-99.47 5.49004,-99.32 C5.35996,-99.17 0,-93.75 0,-85.6 C0,-76.75 3.5,-70.58 3.5,-59.07 C3.5,-56.89 2.55996,-53.36 0.1,-50.33 C-0.0799805,-50.17 -0.1,-49.89 0.0599609,-49.7 L0.0700195,-49.69 L0.1,-49.66 C2.55996,-46.63 3.5,-43.1 3.5,-40.92 C3.5,-29.4 0,-23.24 0,-14.39 C0,-6.25 5.35996,-0.8 5.49004,-0.659961 C5.62002,-0.52002 5.8,-0.42998 5.94004,-0.52002 C6.07998,-0.609961 6.07998,-0.77998 5.95,-0.97998 C5.82002,-1.17998 2.25996,-6.92002 2.25996,-13.01 C2.25996,-18.66 6.2,-27.9 6.2,-37 C6.2,-44.3 2.69004,-48.12 0.92002,-50"/>
</svg>
