<?xml version="1.0" encoding="UTF-8" standalone="no"?>
<svg width="4209.44px" height="2976.38px" viewBox="0 0 4209.44 2976.38"
 xmlns="http://www.w3.org/2000/svg" xmlns:xlink="http://www.w3.org/1999/xlink" version="1.2" baseProfile="tiny">
<title>Cordes (15)</title>
<desc>Generated by MuseScore 3.6.2</desc>
<polyline class="StaffLines" fill="none" stroke="#000000" stroke-width="6.55" stroke-linejoin="bevel" points="153.819,558.425 4138.58,558.425"/>
<polyline class="StaffLines" fill="none" stroke="#000000" stroke-width="6.55" stroke-linejoin="bevel" points="153.819,647.717 4138.58,647.717"/>
<polyline class="StaffLines" fill="none" stroke="#000000" stroke-width="6.55" stroke-linejoin="bevel" points="153.819,737.008 4138.58,737.008"/>
<polyline class="StaffLines" fill="none" stroke="#000000" stroke-width="6.55" stroke-linejoin="bevel" points="153.819,826.299 4138.58,826.299"/>
<polyline class="StaffLines" fill="none" stroke="#000000" stroke-width="6.55" stroke-linejoin="bevel" points="153.819,915.591 4138.58,915.591"/>
<polyline class="StaffLines" fill="none" stroke="#000000" stroke-width="6.55" stroke-linejoin="bevel" points="153.819,1004.88 4138.58,1004.88"/>
<polyline class="StaffLines" fill="none" stroke="#000000" stroke-width="6.55" stroke-linejoin="bevel" points="153.819,1391.81 4138.58,1391.81"/>
<polyline class="StaffLines" fill="none" stroke="#000000" stroke-width="6.55" stroke-linejoin="bevel" points="153.819,1451.34 4138.58,1451.34"/>
<polyline class="StaffLines" fill="none" stroke="#000000" stroke-width="6.55" stroke-linejoin="bevel" points="153.819,1510.87 4138.58,1510.87"/>
<polyline class="StaffLines" fill="none" stroke="#000000" stroke-width="6.55" stroke-linejoin="bevel" points="153.819,1570.39 4138.58,1570.39"/>
<polyline class="StaffLines" fill="none" stroke="#000000" stroke-width="6.55" stroke-linejoin="bevel" points="153.819,1629.92 4138.58,1629.92"/>
<polyline class="StaffLines" fill="none" stroke="#000000" stroke-width="6.55" stroke-linejoin="bevel" points="153.819,2099.26 4138.58,2099.26"/>
<polyline class="StaffLines" fill="none" stroke="#000000" stroke-width="6.55" stroke-linejoin="bevel" points="153.819,2158.79 4138.58,2158.79"/>
<polyline class="StaffLines" fill="none" stroke="#000000" stroke-width="6.55" stroke-linejoin="bevel" points="153.819,2218.32 4138.58,2218.32"/>
<polyline class="StaffLines" fill="none" stroke="#000000" stroke-width="6.55" stroke-linejoin="bevel" points="153.819,2277.85 4138.58,2277.85"/>
<polyline class="StaffLines" fill="none" stroke="#000000" stroke-width="6.55" stroke-linejoin="bevel" points="153.819,2337.37 4138.58,2337.37"/>
<polyline class="BarLine" fill="none" stroke="#000000" stroke-width="10.71" stroke-linejoin="bevel" points="159.176,2095.99 159.176,2340.65"/>
<polyline class="BarLine" fill="none" stroke="#000000" stroke-width="10.71" stroke-linejoin="bevel" points="1179.95,2095.99 1179.95,2340.65"/>
<polyline class="BarLine" fill="none" stroke="#000000" stroke-width="10.71" stroke-linejoin="bevel" points="1907.71,2095.99 1907.71,2340.65"/>
<polyline class="BarLine" fill="none" stroke="#000000" stroke-width="10.71" stroke-linejoin="bevel" points="1940.45,2095.99 1940.45,2340.65"/>
<polyline class="BarLine" fill="none" stroke="#000000" stroke-width="10.71" stroke-linejoin="bevel" points="2657.21,2095.99 2657.21,2340.65"/>
<polyline class="BarLine" fill="none" stroke="#000000" stroke-width="10.71" stroke-linejoin="bevel" points="3373.96,2095.99 3373.96,2340.65"/>
<polyline class="BarLine" fill="none" stroke="#000000" stroke-width="10.71" stroke-linejoin="bevel" points="4100.48,2095.99 4100.48,2340.65"/>
<polyline class="BarLine" fill="none" stroke="#000000" stroke-width="10.71" stroke-linejoin="bevel" points="4133.22,2095.99 4133.22,2340.65"/>
<polyline class="BarLine" fill="none" stroke="#000000" stroke-width="10.71" stroke-linejoin="bevel" points="159.176,1388.54 159.176,2099.26"/>
<polyline class="BarLine" fill="none" stroke="#000000" stroke-width="10.71" stroke-linejoin="bevel" points="1179.95,1388.54 1179.95,1633.2"/>
<polyline class="BarLine" fill="none" stroke="#000000" stroke-width="10.71" stroke-linejoin="bevel" points="1907.71,1388.54 1907.71,1633.2"/>
<polyline class="BarLine" fill="none" stroke="#000000" stroke-width="10.71" stroke-linejoin="bevel" points="1940.45,1388.54 1940.45,1633.2"/>
<polyline class="BarLine" fill="none" stroke="#000000" stroke-width="10.71" stroke-linejoin="bevel" points="2657.21,1388.54 2657.21,1633.2"/>
<polyline class="BarLine" fill="none" stroke="#000000" stroke-width="10.71" stroke-linejoin="bevel" points="3373.96,1388.54 3373.96,1633.2"/>
<polyline class="BarLine" fill="none" stroke="#000000" stroke-width="10.71" stroke-linejoin="bevel" points="4100.48,1388.54 4100.48,1633.2"/>
<polyline class="BarLine" fill="none" stroke="#000000" stroke-width="10.71" stroke-linejoin="bevel" points="4133.22,1388.54 4133.22,1633.2"/>
<polyline class="BarLine" fill="none" stroke="#000000" stroke-width="10.71" stroke-linejoin="bevel" points="159.176,555.151 159.176,1391.81"/>
<polyline class="BarLine" fill="none" stroke="#000000" stroke-width="10.71" stroke-linejoin="bevel" points="1179.95,555.151 1179.95,1008.16"/>
<polyline class="BarLine" fill="none" stroke="#000000" stroke-width="10.71" stroke-linejoin="bevel" points="1907.71,555.151 1907.71,1008.16"/>
<polyline class="BarLine" fill="none" stroke="#000000" stroke-width="10.71" stroke-linejoin="bevel" points="1940.45,555.151 1940.45,1008.16"/>
<polyline class="BarLine" fill="none" stroke="#000000" stroke-width="10.71" stroke-linejoin="bevel" points="2657.21,555.151 2657.21,1008.16"/>
<polyline class="BarLine" fill="none" stroke="#000000" stroke-width="10.71" stroke-linejoin="bevel" points="3373.96,555.151 3373.96,1008.16"/>
<polyline class="BarLine" fill="none" stroke="#000000" stroke-width="10.71" stroke-linejoin="bevel" points="4100.48,555.151 4100.48,1008.16"/>
<polyline class="BarLine" fill="none" stroke="#000000" stroke-width="10.71" stroke-linejoin="bevel" points="4133.22,555.151 4133.22,1008.16"/>
<path class="Accidental" transform="matrix(2.3811,0,0,2.3811,513.384,1510.87)" d="M20.1,-7.9 C19.5,-11.8 17.1,-15.5 12,-15.5 C7,-15.5 4.1,-12.4 3.6,-11.8 L4,-43.9 C4,-44.7 3.4,-45.3 2.6,-45.3 L1.4,-45.3 C0.6,-45.3 0,-44.7 0,-43.9 L0.5,16.2 C0.5,17 1.1,17.6 1.9,17.6 C2.1,17.6 2.5,17.5 2.7,17.4 C3.1,17.2 9.6,14 15,7.9 C18.8,3.6 20.3,-1.3 20.3,-5.4 C20.3,-6.3 20.2,-7.1 20.1,-7.9 M13.2,-4 C13.2,-2.5 12.8,2.1 10.3,5.9 C8.6,8.5 5.2,11.2 3.3,12.7 L3.6,-6.8 C3.8,-7.7 5.3,-10.6 9.3,-10.6 C12.9,-10.6 13.2,-7.2 13.2,-5.1 L13.2,-4 "/>
<path class="Accidental" transform="matrix(2.3811,0,0,2.3811,1231.38,1600.16)" d="M23.3,-10.6 C23.9,-10.7 24.4,-11.4 24.4,-12 L24.4,-17.9 C24.4,-18.7 23.8,-19.3 23,-19.3 L22.8,-19.3 L19.5,-18.6 L19.5,-33.5 L16.7,-33.5 L16.7,-18 L7.8,-16.2 L7.8,-30.3 L5,-30.3 L5,-15.6 L1.1,-14.8 C0.5,-14.7 0,-14 0,-13.4 L0,-13.2 L0,-7.4 L0,-7.6 C0,-6.8 0.6,-6.2 1.4,-6.2 L1.7,-6.2 L5,-6.9 L5,9.6 L1.1,10.4 C0.5,10.5 0,11.2 0,11.8 L0,17.6 C0,18.4 0.6,19 1.4,19 L1.7,19 L5,18.3 L5,33.2 L7.8,33.2 L7.8,17.7 L16.7,15.9 L16.7,30 L19.5,30 L19.5,15.3 L23.3,14.6 C23.9,14.5 24.4,13.8 24.4,13.2 L24.4,7.3 C24.4,6.5 23.8,5.9 23,5.9 L22.8,5.9 L19.5,6.6 L19.5,-9.9 L23.3,-10.6 M7.8,9.1 L7.8,-7.5 L16.7,-9.3 L16.7,7.2 L7.8,9.1 "/>
<path class="Accidental" transform="matrix(2.3811,0,0,2.3811,2003.32,1510.87)" d="M20.1,-7.9 C19.5,-11.8 17.1,-15.5 12,-15.5 C7,-15.5 4.1,-12.4 3.6,-11.8 L4,-43.9 C4,-44.7 3.4,-45.3 2.6,-45.3 L1.4,-45.3 C0.6,-45.3 0,-44.7 0,-43.9 L0.5,16.2 C0.5,17 1.1,17.6 1.9,17.6 C2.1,17.6 2.5,17.5 2.7,17.4 C3.1,17.2 9.6,14 15,7.9 C18.8,3.6 20.3,-1.3 20.3,-5.4 C20.3,-6.3 20.2,-7.1 20.1,-7.9 M13.2,-4 C13.2,-2.5 12.8,2.1 10.3,5.9 C8.6,8.5 5.2,11.2 3.3,12.7 L3.6,-6.8 C3.8,-7.7 5.3,-10.6 9.3,-10.6 C12.9,-10.6 13.2,-7.2 13.2,-5.1 L13.2,-4 "/>
<path class="Accidental" transform="matrix(2.3811,0,0,2.3811,2720.07,1510.87)" d="M20.1,-7.9 C19.5,-11.8 17.1,-15.5 12,-15.5 C7,-15.5 4.1,-12.4 3.6,-11.8 L4,-43.9 C4,-44.7 3.4,-45.3 2.6,-45.3 L1.4,-45.3 C0.6,-45.3 0,-44.7 0,-43.9 L0.5,16.2 C0.5,17 1.1,17.6 1.9,17.6 C2.1,17.6 2.5,17.5 2.7,17.4 C3.1,17.2 9.6,14 15,7.9 C18.8,3.6 20.3,-1.3 20.3,-5.4 C20.3,-6.3 20.2,-7.1 20.1,-7.9 M13.2,-4 C13.2,-2.5 12.8,2.1 10.3,5.9 C8.6,8.5 5.2,11.2 3.3,12.7 L3.6,-6.8 C3.8,-7.7 5.3,-10.6 9.3,-10.6 C12.9,-10.6 13.2,-7.2 13.2,-5.1 L13.2,-4 "/>
<path class="Accidental" transform="matrix(2.3811,0,0,2.3811,3436.83,1391.81)" d="M23.3,-10.6 C23.9,-10.7 24.4,-11.4 24.4,-12 L24.4,-17.9 C24.4,-18.7 23.8,-19.3 23,-19.3 L22.8,-19.3 L19.5,-18.6 L19.5,-33.5 L16.7,-33.5 L16.7,-18 L7.8,-16.2 L7.8,-30.3 L5,-30.3 L5,-15.6 L1.1,-14.8 C0.5,-14.7 0,-14 0,-13.4 L0,-13.2 L0,-7.4 L0,-7.6 C0,-6.8 0.6,-6.2 1.4,-6.2 L1.7,-6.2 L5,-6.9 L5,9.6 L1.1,10.4 C0.5,10.5 0,11.2 0,11.8 L0,17.6 C0,18.4 0.6,19 1.4,19 L1.7,19 L5,18.3 L5,33.2 L7.8,33.2 L7.8,17.7 L16.7,15.9 L16.7,30 L19.5,30 L19.5,15.3 L23.3,14.6 C23.9,14.5 24.4,13.8 24.4,13.2 L24.4,7.3 C24.4,6.5 23.8,5.9 23,5.9 L22.8,5.9 L19.5,6.6 L19.5,-9.9 L23.3,-10.6 M7.8,9.1 L7.8,-7.5 L16.7,-9.3 L16.7,7.2 L7.8,9.1 "/>
<path class="Note" transform="matrix(2.3811,0,0,2.3811,576.595,2218.32)" d="M18.7,-13.6 C4.9,-13.6 0,-6.6 0,-0.1 C0,6.4 4.9,13.4 18.7,13.4 C32.5,13.4 37.3,6.4 37.3,-0.1 C37.3,-6.6 32.5,-13.6 18.7,-13.6 M10.4,-4.5 C10.3,-4.9 10.3,-5.3 10.3,-5.7 C10.3,-6.5 10.5,-7.3 10.9,-8 C11.6,-9 12.8,-9.7 14.3,-10 C15.6,-10.3 16.3,-10.5 18.9,-10.5 L19,-10.5 C23,-10.5 24.3,-6.8 25.4,-3 L25.7,-2 C26.5,0.6 26.9,2.8 26.9,4.5 C26.9,5.7 26.7,6.8 26.3,7.6 C25.7,8.7 24.7,9.4 23,9.8 C22.1,10 20.6,10.1 20.6,10.1 C20.1,10.1 19.7,10.2 19.3,10.2 C16.1,10.2 14.1,9 12.7,4.7 C11.5,1 11.3,-0.1 10.4,-4.5"/>
<path class="Note" transform="matrix(2.3811,0,0,2.3811,1304.35,2218.32)" d="M18.7,-13.6 C4.9,-13.6 0,-6.6 0,-0.1 C0,6.4 4.9,13.4 18.7,13.4 C32.5,13.4 37.3,6.4 37.3,-0.1 C37.3,-6.6 32.5,-13.6 18.7,-13.6 M10.4,-4.5 C10.3,-4.9 10.3,-5.3 10.3,-5.7 C10.3,-6.5 10.5,-7.3 10.9,-8 C11.6,-9 12.8,-9.7 14.3,-10 C15.6,-10.3 16.3,-10.5 18.9,-10.5 L19,-10.5 C23,-10.5 24.3,-6.8 25.4,-3 L25.7,-2 C26.5,0.6 26.9,2.8 26.9,4.5 C26.9,5.7 26.7,6.8 26.3,7.6 C25.7,8.7 24.7,9.4 23,9.8 C22.1,10 20.6,10.1 20.6,10.1 C20.1,10.1 19.7,10.2 19.3,10.2 C16.1,10.2 14.1,9 12.7,4.7 C11.5,1 11.3,-0.1 10.4,-4.5"/>
<path class="Note" transform="matrix(2.3811,0,0,2.3811,2066.53,2218.32)" d="M18.7,-13.6 C4.9,-13.6 0,-6.6 0,-0.1 C0,6.4 4.9,13.4 18.7,13.4 C32.5,13.4 37.3,6.4 37.3,-0.1 C37.3,-6.6 32.5,-13.6 18.7,-13.6 M10.4,-4.5 C10.3,-4.9 10.3,-5.3 10.3,-5.7 C10.3,-6.5 10.5,-7.3 10.9,-8 C11.6,-9 12.8,-9.7 14.3,-10 C15.6,-10.3 16.3,-10.5 18.9,-10.5 L19,-10.5 C23,-10.5 24.3,-6.8 25.4,-3 L25.7,-2 C26.5,0.6 26.9,2.8 26.9,4.5 C26.9,5.7 26.7,6.8 26.3,7.6 C25.7,8.7 24.7,9.4 23,9.8 C22.1,10 20.6,10.1 20.6,10.1 C20.1,10.1 19.7,10.2 19.3,10.2 C16.1,10.2 14.1,9 12.7,4.7 C11.5,1 11.3,-0.1 10.4,-4.5"/>
<path class="Note" transform="matrix(2.3811,0,0,2.3811,2783.28,2218.32)" d="M18.7,-13.6 C4.9,-13.6 0,-6.6 0,-0.1 C0,6.4 4.9,13.4 18.7,13.4 C32.5,13.4 37.3,6.4 37.3,-0.1 C37.3,-6.6 32.5,-13.6 18.7,-13.6 M10.4,-4.5 C10.3,-4.9 10.3,-5.3 10.3,-5.7 C10.3,-6.5 10.5,-7.3 10.9,-8 C11.6,-9 12.8,-9.7 14.3,-10 C15.6,-10.3 16.3,-10.5 18.9,-10.5 L19,-10.5 C23,-10.5 24.3,-6.8 25.4,-3 L25.7,-2 C26.5,0.6 26.9,2.8 26.9,4.5 C26.9,5.7 26.7,6.8 26.3,7.6 C25.7,8.7 24.7,9.4 23,9.8 C22.1,10 20.6,10.1 20.6,10.1 C20.1,10.1 19.7,10.2 19.3,10.2 C16.1,10.2 14.1,9 12.7,4.7 C11.5,1 11.3,-0.1 10.4,-4.5"/>
<path class="Note" transform="matrix(2.3811,0,0,2.3811,3509.8,2218.32)" d="M18.7,-13.6 C4.9,-13.6 0,-6.6 0,-0.1 C0,6.4 4.9,13.4 18.7,13.4 C32.5,13.4 37.3,6.4 37.3,-0.1 C37.3,-6.6 32.5,-13.6 18.7,-13.6 M10.4,-4.5 C10.3,-4.9 10.3,-5.3 10.3,-5.7 C10.3,-6.5 10.5,-7.3 10.9,-8 C11.6,-9 12.8,-9.7 14.3,-10 C15.6,-10.3 16.3,-10.5 18.9,-10.5 L19,-10.5 C23,-10.5 24.3,-6.8 25.4,-3 L25.7,-2 C26.5,0.6 26.9,2.8 26.9,4.5 C26.9,5.7 26.7,6.8 26.3,7.6 C25.7,8.7 24.7,9.4 23,9.8 C22.1,10 20.6,10.1 20.6,10.1 C20.1,10.1 19.7,10.2 19.3,10.2 C16.1,10.2 14.1,9 12.7,4.7 C11.5,1 11.3,-0.1 10.4,-4.5"/>
<path class="Note" transform="matrix(2.3811,0,0,2.3811,576.595,1600.16)" d="M18.7,-13.6 C4.9,-13.6 0,-6.6 0,-0.1 C0,6.4 4.9,13.4 18.7,13.4 C32.5,13.4 37.3,6.4 37.3,-0.1 C37.3,-6.6 32.5,-13.6 18.7,-13.6 M10.4,-4.5 C10.3,-4.9 10.3,-5.3 10.3,-5.7 C10.3,-6.5 10.5,-7.3 10.9,-8 C11.6,-9 12.8,-9.7 14.3,-10 C15.6,-10.3 16.3,-10.5 18.9,-10.5 L19,-10.5 C23,-10.5 24.3,-6.8 25.4,-3 L25.7,-2 C26.5,0.6 26.9,2.8 26.9,4.5 C26.9,5.7 26.7,6.8 26.3,7.6 C25.7,8.7 24.7,9.4 23,9.8 C22.1,10 20.6,10.1 20.6,10.1 C20.1,10.1 19.7,10.2 19.3,10.2 C16.1,10.2 14.1,9 12.7,4.7 C11.5,1 11.3,-0.1 10.4,-4.5"/>
<path class="Note" transform="matrix(2.3811,0,0,2.3811,576.595,1510.87)" d="M18.7,-13.6 C4.9,-13.6 0,-6.6 0,-0.1 C0,6.4 4.9,13.4 18.7,13.4 C32.5,13.4 37.3,6.4 37.3,-0.1 C37.3,-6.6 32.5,-13.6 18.7,-13.6 M10.4,-4.5 C10.3,-4.9 10.3,-5.3 10.3,-5.7 C10.3,-6.5 10.5,-7.3 10.9,-8 C11.6,-9 12.8,-9.7 14.3,-10 C15.6,-10.3 16.3,-10.5 18.9,-10.5 L19,-10.5 C23,-10.5 24.3,-6.8 25.4,-3 L25.7,-2 C26.5,0.6 26.9,2.8 26.9,4.5 C26.9,5.7 26.7,6.8 26.3,7.6 C25.7,8.7 24.7,9.4 23,9.8 C22.1,10 20.6,10.1 20.6,10.1 C20.1,10.1 19.7,10.2 19.3,10.2 C16.1,10.2 14.1,9 12.7,4.7 C11.5,1 11.3,-0.1 10.4,-4.5"/>
<path class="Note" transform="matrix(2.3811,0,0,2.3811,576.595,1451.34)" d="M18.7,-13.6 C4.9,-13.6 0,-6.6 0,-0.1 C0,6.4 4.9,13.4 18.7,13.4 C32.5,13.4 37.3,6.4 37.3,-0.1 C37.3,-6.6 32.5,-13.6 18.7,-13.6 M10.4,-4.5 C10.3,-4.9 10.3,-5.3 10.3,-5.7 C10.3,-6.5 10.5,-7.3 10.9,-8 C11.6,-9 12.8,-9.7 14.3,-10 C15.6,-10.3 16.3,-10.5 18.9,-10.5 L19,-10.5 C23,-10.5 24.3,-6.8 25.4,-3 L25.7,-2 C26.5,0.6 26.9,2.8 26.9,4.5 C26.9,5.7 26.7,6.8 26.3,7.6 C25.7,8.7 24.7,9.4 23,9.8 C22.1,10 20.6,10.1 20.6,10.1 C20.1,10.1 19.7,10.2 19.3,10.2 C16.1,10.2 14.1,9 12.7,4.7 C11.5,1 11.3,-0.1 10.4,-4.5"/>
<path class="Note" transform="matrix(2.3811,0,0,2.3811,1304.35,1600.16)" d="M18.7,-13.6 C4.9,-13.6 0,-6.6 0,-0.1 C0,6.4 4.9,13.4 18.7,13.4 C32.5,13.4 37.3,6.4 37.3,-0.1 C37.3,-6.6 32.5,-13.6 18.7,-13.6 M10.4,-4.5 C10.3,-4.9 10.3,-5.3 10.3,-5.7 C10.3,-6.5 10.5,-7.3 10.9,-8 C11.6,-9 12.8,-9.7 14.3,-10 C15.6,-10.3 16.3,-10.5 18.9,-10.5 L19,-10.5 C23,-10.5 24.3,-6.8 25.4,-3 L25.7,-2 C26.5,0.6 26.9,2.8 26.9,4.5 C26.9,5.7 26.7,6.8 26.3,7.6 C25.7,8.7 24.7,9.4 23,9.8 C22.1,10 20.6,10.1 20.6,10.1 C20.1,10.1 19.7,10.2 19.3,10.2 C16.1,10.2 14.1,9 12.7,4.7 C11.5,1 11.3,-0.1 10.4,-4.5"/>
<path class="Note" transform="matrix(2.3811,0,0,2.3811,1304.35,1510.87)" d="M18.7,-13.6 C4.9,-13.6 0,-6.6 0,-0.1 C0,6.4 4.9,13.4 18.7,13.4 C32.5,13.4 37.3,6.4 37.3,-0.1 C37.3,-6.6 32.5,-13.6 18.7,-13.6 M10.4,-4.5 C10.3,-4.9 10.3,-5.3 10.3,-5.7 C10.3,-6.5 10.5,-7.3 10.9,-8 C11.6,-9 12.8,-9.7 14.3,-10 C15.6,-10.3 16.3,-10.5 18.9,-10.5 L19,-10.5 C23,-10.5 24.3,-6.8 25.4,-3 L25.7,-2 C26.5,0.6 26.9,2.8 26.9,4.5 C26.9,5.7 26.7,6.8 26.3,7.6 C25.7,8.7 24.7,9.4 23,9.8 C22.1,10 20.6,10.1 20.6,10.1 C20.1,10.1 19.7,10.2 19.3,10.2 C16.1,10.2 14.1,9 12.7,4.7 C11.5,1 11.3,-0.1 10.4,-4.5"/>
<path class="Note" transform="matrix(2.3811,0,0,2.3811,1304.35,1451.34)" d="M18.7,-13.6 C4.9,-13.6 0,-6.6 0,-0.1 C0,6.4 4.9,13.4 18.7,13.4 C32.5,13.4 37.3,6.4 37.3,-0.1 C37.3,-6.6 32.5,-13.6 18.7,-13.6 M10.4,-4.5 C10.3,-4.9 10.3,-5.3 10.3,-5.7 C10.3,-6.5 10.5,-7.3 10.9,-8 C11.6,-9 12.8,-9.7 14.3,-10 C15.6,-10.3 16.3,-10.5 18.9,-10.5 L19,-10.5 C23,-10.5 24.3,-6.8 25.4,-3 L25.7,-2 C26.5,0.6 26.9,2.8 26.9,4.5 C26.9,5.7 26.7,6.8 26.3,7.6 C25.7,8.7 24.7,9.4 23,9.8 C22.1,10 20.6,10.1 20.6,10.1 C20.1,10.1 19.7,10.2 19.3,10.2 C16.1,10.2 14.1,9 12.7,4.7 C11.5,1 11.3,-0.1 10.4,-4.5"/>
<path class="Note" transform="matrix(2.3811,0,0,2.3811,2066.53,1510.87)" d="M18.7,-13.6 C4.9,-13.6 0,-6.6 0,-0.1 C0,6.4 4.9,13.4 18.7,13.4 C32.5,13.4 37.3,6.4 37.3,-0.1 C37.3,-6.6 32.5,-13.6 18.7,-13.6 M10.4,-4.5 C10.3,-4.9 10.3,-5.3 10.3,-5.7 C10.3,-6.5 10.5,-7.3 10.9,-8 C11.6,-9 12.8,-9.7 14.3,-10 C15.6,-10.3 16.3,-10.5 18.9,-10.5 L19,-10.5 C23,-10.5 24.3,-6.8 25.4,-3 L25.7,-2 C26.5,0.6 26.9,2.8 26.9,4.5 C26.9,5.7 26.7,6.8 26.3,7.6 C25.7,8.7 24.7,9.4 23,9.8 C22.1,10 20.6,10.1 20.6,10.1 C20.1,10.1 19.7,10.2 19.3,10.2 C16.1,10.2 14.1,9 12.7,4.7 C11.5,1 11.3,-0.1 10.4,-4.5"/>
<path class="Note" transform="matrix(2.3811,0,0,2.3811,2066.53,1451.34)" d="M18.7,-13.6 C4.9,-13.6 0,-6.6 0,-0.1 C0,6.4 4.9,13.4 18.7,13.4 C32.5,13.4 37.3,6.4 37.3,-0.1 C37.3,-6.6 32.5,-13.6 18.7,-13.6 M10.4,-4.5 C10.3,-4.9 10.3,-5.3 10.3,-5.7 C10.3,-6.5 10.5,-7.3 10.9,-8 C11.6,-9 12.8,-9.7 14.3,-10 C15.6,-10.3 16.3,-10.5 18.9,-10.5 L19,-10.5 C23,-10.5 24.3,-6.8 25.4,-3 L25.7,-2 C26.5,0.6 26.9,2.8 26.9,4.5 C26.9,5.7 26.7,6.8 26.3,7.6 C25.7,8.7 24.7,9.4 23,9.8 C22.1,10 20.6,10.1 20.6,10.1 C20.1,10.1 19.7,10.2 19.3,10.2 C16.1,10.2 14.1,9 12.7,4.7 C11.5,1 11.3,-0.1 10.4,-4.5"/>
<path class="Note" transform="matrix(2.3811,0,0,2.3811,2066.53,1391.81)" d="M18.7,-13.6 C4.9,-13.6 0,-6.6 0,-0.1 C0,6.4 4.9,13.4 18.7,13.4 C32.5,13.4 37.3,6.4 37.3,-0.1 C37.3,-6.6 32.5,-13.6 18.7,-13.6 M10.4,-4.5 C10.3,-4.9 10.3,-5.3 10.3,-5.7 C10.3,-6.5 10.5,-7.3 10.9,-8 C11.6,-9 12.8,-9.7 14.3,-10 C15.6,-10.3 16.3,-10.5 18.9,-10.5 L19,-10.5 C23,-10.5 24.3,-6.8 25.4,-3 L25.7,-2 C26.5,0.6 26.9,2.8 26.9,4.5 C26.9,5.7 26.7,6.8 26.3,7.6 C25.7,8.7 24.7,9.4 23,9.8 C22.1,10 20.6,10.1 20.6,10.1 C20.1,10.1 19.7,10.2 19.3,10.2 C16.1,10.2 14.1,9 12.7,4.7 C11.5,1 11.3,-0.1 10.4,-4.5"/>
<path class="Note" transform="matrix(2.3811,0,0,2.3811,2783.28,1510.87)" d="M18.7,-13.6 C4.9,-13.6 0,-6.6 0,-0.1 C0,6.4 4.9,13.4 18.7,13.4 C32.5,13.4 37.3,6.4 37.3,-0.1 C37.3,-6.6 32.5,-13.6 18.7,-13.6 M10.4,-4.5 C10.3,-4.9 10.3,-5.3 10.3,-5.7 C10.3,-6.5 10.5,-7.3 10.9,-8 C11.6,-9 12.8,-9.7 14.3,-10 C15.6,-10.3 16.3,-10.5 18.9,-10.5 L19,-10.5 C23,-10.5 24.3,-6.8 25.4,-3 L25.7,-2 C26.5,0.6 26.9,2.8 26.9,4.5 C26.9,5.7 26.7,6.8 26.3,7.6 C25.7,8.7 24.7,9.4 23,9.8 C22.1,10 20.6,10.1 20.6,10.1 C20.1,10.1 19.7,10.2 19.3,10.2 C16.1,10.2 14.1,9 12.7,4.7 C11.5,1 11.3,-0.1 10.4,-4.5"/>
<path class="Note" transform="matrix(2.3811,0,0,2.3811,2783.28,1451.34)" d="M18.7,-13.6 C4.9,-13.6 0,-6.6 0,-0.1 C0,6.4 4.9,13.4 18.7,13.4 C32.5,13.4 37.3,6.4 37.3,-0.1 C37.3,-6.6 32.5,-13.6 18.7,-13.6 M10.4,-4.5 C10.3,-4.9 10.3,-5.3 10.3,-5.7 C10.3,-6.5 10.5,-7.3 10.9,-8 C11.6,-9 12.8,-9.7 14.3,-10 C15.6,-10.3 16.3,-10.5 18.9,-10.5 L19,-10.5 C23,-10.5 24.3,-6.8 25.4,-3 L25.7,-2 C26.5,0.6 26.9,2.8 26.9,4.5 C26.9,5.7 26.7,6.8 26.3,7.6 C25.7,8.7 24.7,9.4 23,9.8 C22.1,10 20.6,10.1 20.6,10.1 C20.1,10.1 19.7,10.2 19.3,10.2 C16.1,10.2 14.1,9 12.7,4.7 C11.5,1 11.3,-0.1 10.4,-4.5"/>
<path class="Note" transform="matrix(2.3811,0,0,2.3811,2783.28,1391.81)" d="M18.7,-13.6 C4.9,-13.6 0,-6.6 0,-0.1 C0,6.4 4.9,13.4 18.7,13.4 C32.5,13.4 37.3,6.4 37.3,-0.1 C37.3,-6.6 32.5,-13.6 18.7,-13.6 M10.4,-4.5 C10.3,-4.9 10.3,-5.3 10.3,-5.7 C10.3,-6.5 10.5,-7.3 10.9,-8 C11.6,-9 12.8,-9.7 14.3,-10 C15.6,-10.3 16.3,-10.5 18.9,-10.5 L19,-10.5 C23,-10.5 24.3,-6.8 25.4,-3 L25.7,-2 C26.5,0.6 26.9,2.8 26.9,4.5 C26.9,5.7 26.7,6.8 26.3,7.6 C25.7,8.7 24.7,9.4 23,9.8 C22.1,10 20.6,10.1 20.6,10.1 C20.1,10.1 19.7,10.2 19.3,10.2 C16.1,10.2 14.1,9 12.7,4.7 C11.5,1 11.3,-0.1 10.4,-4.5"/>
<path class="Note" transform="matrix(2.3811,0,0,2.3811,3509.8,1510.87)" d="M18.7,-13.6 C4.9,-13.6 0,-6.6 0,-0.1 C0,6.4 4.9,13.4 18.7,13.4 C32.5,13.4 37.3,6.4 37.3,-0.1 C37.3,-6.6 32.5,-13.6 18.7,-13.6 M10.4,-4.5 C10.3,-4.9 10.3,-5.3 10.3,-5.7 C10.3,-6.5 10.5,-7.3 10.9,-8 C11.6,-9 12.8,-9.7 14.3,-10 C15.6,-10.3 16.3,-10.5 18.9,-10.5 L19,-10.5 C23,-10.5 24.3,-6.8 25.4,-3 L25.7,-2 C26.5,0.6 26.9,2.8 26.9,4.5 C26.9,5.7 26.7,6.8 26.3,7.6 C25.7,8.7 24.7,9.4 23,9.8 C22.1,10 20.6,10.1 20.6,10.1 C20.1,10.1 19.7,10.2 19.3,10.2 C16.1,10.2 14.1,9 12.7,4.7 C11.5,1 11.3,-0.1 10.4,-4.5"/>
<path class="Note" transform="matrix(2.3811,0,0,2.3811,3509.8,1451.34)" d="M18.7,-13.6 C4.9,-13.6 0,-6.6 0,-0.1 C0,6.4 4.9,13.4 18.7,13.4 C32.5,13.4 37.3,6.4 37.3,-0.1 C37.3,-6.6 32.5,-13.6 18.7,-13.6 M10.4,-4.5 C10.3,-4.9 10.3,-5.3 10.3,-5.7 C10.3,-6.5 10.5,-7.3 10.9,-8 C11.6,-9 12.8,-9.7 14.3,-10 C15.6,-10.3 16.3,-10.5 18.9,-10.5 L19,-10.5 C23,-10.5 24.3,-6.8 25.4,-3 L25.7,-2 C26.5,0.6 26.9,2.8 26.9,4.5 C26.9,5.7 26.7,6.8 26.3,7.6 C25.7,8.7 24.7,9.4 23,9.8 C22.1,10 20.6,10.1 20.6,10.1 C20.1,10.1 19.7,10.2 19.3,10.2 C16.1,10.2 14.1,9 12.7,4.7 C11.5,1 11.3,-0.1 10.4,-4.5"/>
<path class="Note" transform="matrix(2.3811,0,0,2.3811,3509.8,1391.81)" d="M18.7,-13.6 C4.9,-13.6 0,-6.6 0,-0.1 C0,6.4 4.9,13.4 18.7,13.4 C32.5,13.4 37.3,6.4 37.3,-0.1 C37.3,-6.6 32.5,-13.6 18.7,-13.6 M10.4,-4.5 C10.3,-4.9 10.3,-5.3 10.3,-5.7 C10.3,-6.5 10.5,-7.3 10.9,-8 C11.6,-9 12.8,-9.7 14.3,-10 C15.6,-10.3 16.3,-10.5 18.9,-10.5 L19,-10.5 C23,-10.5 24.3,-6.8 25.4,-3 L25.7,-2 C26.5,0.6 26.9,2.8 26.9,4.5 C26.9,5.7 26.7,6.8 26.3,7.6 C25.7,8.7 24.7,9.4 23,9.8 C22.1,10 20.6,10.1 20.6,10.1 C20.1,10.1 19.7,10.2 19.3,10.2 C16.1,10.2 14.1,9 12.7,4.7 C11.5,1 11.3,-0.1 10.4,-4.5"/>
<path class="Note" d="M655.414,851.839 C659.985,851.839 662.27,854.705 662.27,860.438 C662.27,864.467 659.752,870.471 654.717,878.451 C650.688,884.881 648.674,891.157 648.674,897.277 C648.674,900.763 653.748,902.507 663.897,902.507 C672.265,902.507 683.924,897.974 698.877,888.91 C683.847,903.398 670.792,910.641 659.714,910.641 C649.72,910.641 642.747,909.131 638.796,906.109 C637.789,905.334 636.936,904.405 636.239,903.32 C632.365,908.046 625.896,910.409 616.832,910.409 C608.155,910.409 601.492,908.627 596.844,905.063 C593.745,902.662 592.195,898.827 592.195,893.558 C592.195,885.191 597.153,876.049 607.07,866.133 C617.684,855.519 629.964,850.212 643.909,850.212 C647.395,850.212 649.952,851.49 651.579,854.047 C652.896,852.575 654.174,851.839 655.414,851.839 M634.612,898.091 C634.535,897.471 634.496,896.851 634.496,896.231 C634.496,895.921 638.447,885.114 646.349,863.808 C647.124,861.717 647.899,859.935 648.674,858.463 C645.652,857.843 642.669,857.533 639.725,857.533 C634.302,857.533 627.097,862.143 618.11,871.362 C610.053,879.574 606.024,886.663 606.024,892.629 C606.024,899.214 609.162,902.507 615.437,902.507 C623.03,902.507 629.421,901.035 634.612,898.091"/>
<path class="Note" d="M662.503,581.059 C672.962,574.474 680.554,569.09 685.28,564.906 C693.957,557.236 698.296,549.489 698.296,541.664 C698.296,532.522 692.175,527.951 679.934,527.951 C667.074,527.951 653.671,537.209 639.725,555.725 C630.274,568.276 623.572,580.13 619.621,591.286 C624.502,588.11 629.654,586.521 635.077,586.521 C640.19,586.521 644.258,588.807 647.279,593.378 C649.371,596.554 650.417,601.977 650.417,609.647 C650.417,616.542 646.776,624.638 639.493,633.935 C635,639.668 630.002,642.535 624.502,642.535 C617.529,642.535 612.648,641.14 609.859,638.351 C605.908,634.4 603.932,626.575 603.932,614.877 C603.932,595.198 611.874,575.83 627.756,556.771 C645.652,535.311 662.813,524.581 679.237,524.581 C691.943,524.581 701.433,527.564 707.709,533.529 C711.35,537.015 713.171,542.051 713.171,548.637 C713.171,555.997 705.927,564.209 691.439,573.273 C683.847,578.077 674.201,580.672 662.503,581.059 M618.11,596.167 C616.173,602.675 615.205,608.911 615.205,614.877 C615.205,629.055 617.452,636.143 621.945,636.143 C626.206,636.143 629.538,633.122 631.939,627.079 C634.728,620.261 636.123,612.707 636.123,604.418 C636.123,597.058 633.682,593.378 628.802,593.378 C625.393,593.378 621.829,594.307 618.11,596.167"/>
<path class="Note" d="M662.503,491.768 C672.962,485.183 680.554,479.798 685.28,475.615 C693.957,467.945 698.296,460.197 698.296,452.373 C698.296,443.231 692.175,438.66 679.934,438.66 C667.074,438.66 653.671,447.918 639.725,466.434 C630.274,478.985 623.572,490.838 619.621,501.995 C624.502,498.818 629.654,497.23 635.077,497.23 C640.19,497.23 644.258,499.515 647.279,504.086 C649.371,507.263 650.417,512.686 650.417,520.356 C650.417,527.251 646.776,535.347 639.493,544.644 C635,550.377 630.002,553.244 624.502,553.244 C617.529,553.244 612.648,551.849 609.859,549.06 C605.908,545.109 603.932,537.284 603.932,525.585 C603.932,505.907 611.874,486.539 627.756,467.48 C645.652,446.02 662.813,435.29 679.237,435.29 C691.943,435.29 701.433,438.272 707.709,444.238 C711.35,447.724 713.171,452.76 713.171,459.345 C713.171,466.705 705.927,474.917 691.439,483.982 C683.847,488.785 674.201,491.381 662.503,491.768 M618.11,506.875 C616.173,513.383 615.205,519.62 615.205,525.585 C615.205,539.763 617.452,546.852 621.945,546.852 C626.206,546.852 629.538,543.831 631.939,537.788 C634.728,530.97 636.123,523.416 636.123,515.126 C636.123,507.766 633.682,504.086 628.802,504.086 C625.393,504.086 621.829,505.016 618.11,506.875"/>
<path class="Note" d="M544.325,677.207 C544.635,665.509 551.104,655.127 563.733,646.063 C574.966,638.005 587.246,633.977 600.571,633.977 C619.243,633.977 635.706,641.298 649.961,655.941 C659.026,665.315 663.558,676.936 663.558,690.804 C663.558,703.277 660.226,712.845 653.564,719.508 C645.429,727.72 636.829,731.826 627.765,731.826 C621.567,731.826 616.763,730.432 613.355,727.643 C607.776,723.072 604.987,716.951 604.987,709.281 C604.987,699.365 609.946,690.3 619.862,682.088 C627.997,675.348 636.171,670.932 644.383,668.84 C642.214,665.121 639.463,661.635 636.132,658.381 C625.75,648.232 613.974,643.157 600.804,643.157 C587.091,643.157 575.741,646.14 566.754,652.106 C557.457,658.226 549.981,666.593 544.325,677.207 M647.288,674.999 C643.027,678.95 638.766,683.173 634.505,687.666 C626.138,696.498 621.954,704.865 621.954,712.768 C621.954,721.212 623.891,725.435 627.765,725.435 C631.251,725.435 636.132,720.67 642.407,711.141 C647.443,703.548 649.961,696.576 649.961,690.223 C649.961,684.8 649.07,679.725 647.288,674.999"/>
<path class="Note" d="M1383.17,851.839 C1387.74,851.839 1390.03,854.705 1390.03,860.438 C1390.03,864.467 1387.51,870.471 1382.48,878.451 C1378.45,884.881 1376.43,891.157 1376.43,897.277 C1376.43,900.763 1381.51,902.507 1391.66,902.507 C1400.02,902.507 1411.68,897.974 1426.64,888.91 C1411.61,903.398 1398.55,910.641 1387.47,910.641 C1377.48,910.641 1370.51,909.131 1366.56,906.109 C1365.55,905.334 1364.7,904.405 1364,903.32 C1360.13,908.046 1353.66,910.409 1344.59,910.409 C1335.91,910.409 1329.25,908.627 1324.6,905.063 C1321.5,902.662 1319.95,898.827 1319.95,893.558 C1319.95,885.191 1324.91,876.049 1334.83,866.133 C1345.44,855.519 1357.72,850.212 1371.67,850.212 C1375.15,850.212 1377.71,851.49 1379.34,854.047 C1380.66,852.575 1381.93,851.839 1383.17,851.839 M1362.37,898.091 C1362.29,897.471 1362.26,896.851 1362.26,896.231 C1362.26,895.921 1366.21,885.114 1374.11,863.808 C1374.88,861.717 1375.66,859.935 1376.43,858.463 C1373.41,857.843 1370.43,857.533 1367.49,857.533 C1362.06,857.533 1354.86,862.143 1345.87,871.362 C1337.81,879.574 1333.78,886.663 1333.78,892.629 C1333.78,899.214 1336.92,902.507 1343.2,902.507 C1350.79,902.507 1357.18,901.035 1362.37,898.091"/>
<path class="Note" d="M1338.9,642.535 C1335.1,642.535 1333.2,638.468 1333.2,630.333 L1333.2,596.283 C1333.2,593.029 1334.79,591.402 1337.97,591.402 C1339.36,591.402 1340.41,591.518 1341.11,591.751 C1343.58,587.412 1347.65,583.771 1353.31,580.827 C1361.21,576.721 1369.23,574.668 1377.36,574.668 C1383.79,574.668 1387.01,577.069 1387.01,581.873 C1387.01,585.902 1384.84,587.916 1380.5,587.916 C1377.4,587.916 1374.46,587.219 1371.67,585.824 C1369.19,584.584 1366.56,583.965 1363.77,583.965 C1358.96,583.965 1351.87,587.102 1342.5,593.378 C1343.82,599.653 1344.48,606.974 1344.48,615.342 C1344.48,633.471 1342.62,642.535 1338.9,642.535"/>
<path class="Note" d="M1338.9,553.244 C1335.1,553.244 1333.2,549.176 1333.2,541.041 L1333.2,506.992 C1333.2,503.738 1334.79,502.111 1337.97,502.111 C1339.36,502.111 1340.41,502.227 1341.11,502.459 C1343.58,498.121 1347.65,494.48 1353.31,491.536 C1361.21,487.43 1369.23,485.376 1377.36,485.376 C1383.79,485.376 1387.01,487.778 1387.01,492.582 C1387.01,496.61 1384.84,498.624 1380.5,498.624 C1377.4,498.624 1374.46,497.927 1371.67,496.533 C1369.19,495.293 1366.56,494.673 1363.77,494.673 C1358.96,494.673 1351.87,497.811 1342.5,504.086 C1343.82,510.362 1344.48,517.683 1344.48,526.05 C1344.48,544.179 1342.62,553.244 1338.9,553.244"/>
<path class="Note" d="M1272.08,677.207 C1272.39,665.509 1278.86,655.127 1291.49,646.063 C1302.73,638.005 1315.01,633.977 1328.33,633.977 C1347,633.977 1363.47,641.298 1377.72,655.941 C1386.79,665.315 1391.32,676.936 1391.32,690.804 C1391.32,703.277 1387.99,712.845 1381.32,719.508 C1373.19,727.72 1364.59,731.826 1355.52,731.826 C1349.33,731.826 1344.52,730.432 1341.11,727.643 C1335.54,723.072 1332.75,716.951 1332.75,709.281 C1332.75,699.365 1337.71,690.3 1347.62,682.088 C1355.76,675.348 1363.93,670.932 1372.14,668.84 C1369.97,665.121 1367.22,661.635 1363.89,658.381 C1353.51,648.232 1341.73,643.157 1328.56,643.157 C1314.85,643.157 1303.5,646.14 1294.51,652.106 C1285.22,658.226 1277.74,666.593 1272.08,677.207 M1375.05,674.999 C1370.79,678.95 1366.53,683.173 1362.26,687.666 C1353.9,696.498 1349.71,704.865 1349.71,712.768 C1349.71,721.212 1351.65,725.435 1355.52,725.435 C1359.01,725.435 1363.89,720.67 1370.17,711.141 C1375.2,703.548 1377.72,696.576 1377.72,690.223 C1377.72,684.8 1376.83,679.725 1375.05,674.999"/>
<path class="Note" d="M2145.35,851.839 C2149.92,851.839 2152.2,854.705 2152.2,860.438 C2152.2,864.467 2149.69,870.471 2144.65,878.451 C2140.62,884.881 2138.61,891.157 2138.61,897.277 C2138.61,900.763 2143.68,902.507 2153.83,902.507 C2162.2,902.507 2173.86,897.974 2188.81,888.91 C2173.78,903.398 2160.73,910.641 2149.65,910.641 C2139.65,910.641 2132.68,909.131 2128.73,906.109 C2127.72,905.334 2126.87,904.405 2126.17,903.32 C2122.3,908.046 2115.83,910.409 2106.77,910.409 C2098.09,910.409 2091.43,908.627 2086.78,905.063 C2083.68,902.662 2082.13,898.827 2082.13,893.558 C2082.13,885.191 2087.09,876.049 2097,866.133 C2107.62,855.519 2119.9,850.212 2133.84,850.212 C2137.33,850.212 2139.89,851.49 2141.51,854.047 C2142.83,852.575 2144.11,851.839 2145.35,851.839 M2124.55,898.091 C2124.47,897.471 2124.43,896.851 2124.43,896.231 C2124.43,895.921 2128.38,885.114 2136.28,863.808 C2137.06,861.717 2137.83,859.935 2138.61,858.463 C2135.59,857.843 2132.6,857.533 2129.66,857.533 C2124.24,857.533 2117.03,862.143 2108.04,871.362 C2099.99,879.574 2095.96,886.663 2095.96,892.629 C2095.96,899.214 2099.1,902.507 2105.37,902.507 C2112.96,902.507 2119.36,901.035 2124.55,898.091"/>
<path class="Note" d="M2159.41,584.778 C2159.41,593.688 2149.26,613.25 2128.96,643.465 C2120.9,655.473 2109.32,664.266 2094.21,669.845 C2083.06,674.028 2070.16,676.12 2055.52,676.12 C2050.79,676.12 2046.61,675.152 2042.97,673.215 C2038.94,671.123 2036.92,668.837 2036.92,666.358 C2036.92,659.928 2040.37,656.713 2047.27,656.713 C2048.27,656.713 2048.78,657.332 2048.78,658.572 C2048.78,659.657 2048.27,660.858 2047.27,662.175 C2046.03,663.802 2045.41,665.002 2045.41,665.777 C2045.41,668.101 2048.89,669.263 2055.87,669.263 C2071.51,669.263 2083.87,667.365 2092.94,663.569 C2102.39,659.695 2111.8,649.818 2121.18,633.935 L2123.85,628.938 C2119.36,632.347 2114.9,634.052 2110.48,634.052 C2099.48,634.052 2093.98,629.597 2093.98,620.687 C2093.98,611.081 2100.45,600.97 2113.39,590.356 C2123.54,582.144 2132.56,578.038 2140.47,578.038 C2144.42,578.038 2147.71,579.084 2150.34,581.176 C2151.27,580.478 2152.44,580.13 2153.83,580.13 C2157.55,580.13 2159.41,581.679 2159.41,584.778 M2125.24,626.498 L2147.21,585.94 C2145.5,585.553 2143.6,585.359 2141.51,585.359 C2134,585.359 2126.72,589.736 2119.66,598.491 C2111.45,608.718 2107.35,616.891 2107.35,623.012 C2107.35,627.04 2110.02,629.055 2115.37,629.055 C2117.92,629.055 2121.21,628.202 2125.24,626.498"/>
<path class="Note" d="M2087.59,821.118 C2083.41,821.118 2081.32,819.22 2081.32,815.423 C2081.32,808.993 2082.28,804.267 2084.22,801.246 C2092.28,789.315 2109.79,767.002 2136.75,734.308 C2148.91,719.511 2164.6,712.112 2183.81,712.112 C2191.25,712.112 2196.4,713.158 2199.27,715.249 C2203.69,718.503 2205.89,722.416 2205.89,726.987 C2205.89,731.79 2202.02,737.136 2194.27,743.024 C2186.91,748.602 2179.94,751.391 2173.35,751.391 C2170.8,751.391 2169.52,751.12 2169.52,750.578 C2169.52,749.803 2170.76,748.989 2173.24,748.137 C2176.57,746.898 2180.13,744.38 2183.93,740.583 C2188.27,736.167 2190.44,732.178 2190.44,728.614 C2190.44,726.212 2188.77,723.927 2185.44,721.757 C2182.5,719.898 2177.73,718.968 2171.15,718.968 C2161.54,718.968 2149.41,728.652 2134.77,748.021 C2125.01,760.959 2117.11,772.348 2111.07,782.187 C2114.01,780.56 2117.53,778.584 2121.64,776.26 C2126.68,773.394 2131.01,771.96 2134.66,771.96 C2143.72,771.96 2148.25,775.214 2148.25,781.722 C2148.25,788.152 2144.53,795.203 2137.1,802.873 C2131.83,808.296 2129.19,812.324 2129.19,814.958 C2129.19,817.67 2131.83,819.026 2137.1,819.026 C2139.73,819.026 2142.44,818.096 2145.23,816.237 C2148.02,814.455 2150.07,813.564 2151.39,813.564 C2152.48,813.564 2153.02,814.261 2153.02,815.656 C2153.02,817.902 2150.85,820.265 2146.51,822.745 C2139.23,826.928 2133.38,829.02 2128.96,829.02 C2121.14,829.02 2117.22,824.836 2117.22,816.469 C2117.22,811.201 2120.25,805.352 2126.29,798.921 C2130.7,794.195 2132.91,789.508 2132.91,784.86 C2132.91,780.831 2130.74,778.817 2126.41,778.817 C2124.7,778.817 2119.05,780.831 2109.44,784.86 C2106.57,789.663 2104.17,794.079 2102.23,798.108 C2094.87,813.448 2089.99,821.118 2087.59,821.118"/>
<path class="Note" d="M2159.41,674.069 C2159.41,682.979 2149.26,702.541 2128.96,732.756 C2120.9,744.764 2109.32,753.558 2094.21,759.136 C2083.06,763.319 2070.16,765.411 2055.52,765.411 C2050.79,765.411 2046.61,764.443 2042.97,762.506 C2038.94,760.414 2036.92,758.129 2036.92,755.65 C2036.92,749.219 2040.37,746.004 2047.27,746.004 C2048.27,746.004 2048.78,746.624 2048.78,747.863 C2048.78,748.948 2048.27,750.149 2047.27,751.466 C2046.03,753.093 2045.41,754.294 2045.41,755.068 C2045.41,757.393 2048.89,758.555 2055.87,758.555 C2071.51,758.555 2083.87,756.657 2092.94,752.86 C2102.39,748.987 2111.8,739.109 2121.18,723.227 L2123.85,718.23 C2119.36,721.638 2114.9,723.343 2110.48,723.343 C2099.48,723.343 2093.98,718.888 2093.98,709.979 C2093.98,700.372 2100.45,690.262 2113.39,679.648 C2123.54,671.435 2132.56,667.329 2140.47,667.329 C2144.42,667.329 2147.71,668.375 2150.34,670.467 C2151.27,669.77 2152.44,669.421 2153.83,669.421 C2157.55,669.421 2159.41,670.971 2159.41,674.069 M2125.24,715.789 L2147.21,675.232 C2145.5,674.844 2143.6,674.651 2141.51,674.651 C2134,674.651 2126.72,679.028 2119.66,687.782 C2111.45,698.009 2107.35,706.182 2107.35,712.303 C2107.35,716.332 2110.02,718.346 2115.37,718.346 C2117.92,718.346 2121.21,717.494 2125.24,715.789"/>
<path class="Note" d="M2862.1,851.839 C2866.67,851.839 2868.96,854.705 2868.96,860.438 C2868.96,864.467 2866.44,870.471 2861.4,878.451 C2857.38,884.881 2855.36,891.157 2855.36,897.277 C2855.36,900.763 2860.44,902.507 2870.59,902.507 C2878.95,902.507 2890.61,897.974 2905.56,888.91 C2890.53,903.398 2877.48,910.641 2866.4,910.641 C2856.41,910.641 2849.43,909.131 2845.48,906.109 C2844.48,905.334 2843.62,904.405 2842.93,903.32 C2839.05,908.046 2832.58,910.409 2823.52,910.409 C2814.84,910.409 2808.18,908.627 2803.53,905.063 C2800.43,902.662 2798.88,898.827 2798.88,893.558 C2798.88,885.191 2803.84,876.049 2813.76,866.133 C2824.37,855.519 2836.65,850.212 2850.6,850.212 C2854.08,850.212 2856.64,851.49 2858.27,854.047 C2859.58,852.575 2860.86,851.839 2862.1,851.839 M2841.3,898.091 C2841.22,897.471 2841.18,896.851 2841.18,896.231 C2841.18,895.921 2845.14,885.114 2853.04,863.808 C2853.81,861.717 2854.59,859.935 2855.36,858.463 C2852.34,857.843 2849.36,857.533 2846.41,857.533 C2840.99,857.533 2833.79,862.143 2824.8,871.362 C2816.74,879.574 2812.71,886.663 2812.71,892.629 C2812.71,899.214 2815.85,902.507 2822.13,902.507 C2829.72,902.507 2836.11,901.035 2841.3,898.091"/>
<path class="Note" d="M2876.16,584.778 C2876.16,593.688 2866.01,613.25 2845.72,643.465 C2837.66,655.473 2826.08,664.266 2810.97,669.845 C2799.81,674.028 2786.91,676.12 2772.27,676.12 C2767.55,676.12 2763.36,675.152 2759.72,673.215 C2755.69,671.123 2753.68,668.837 2753.68,666.358 C2753.68,659.928 2757.12,656.713 2764.02,656.713 C2765.03,656.713 2765.53,657.332 2765.53,658.572 C2765.53,659.657 2765.03,660.858 2764.02,662.175 C2762.78,663.802 2762.16,665.002 2762.16,665.777 C2762.16,668.101 2765.65,669.263 2772.62,669.263 C2788.27,669.263 2800.63,667.365 2809.69,663.569 C2819.14,659.695 2828.56,649.818 2837.93,633.935 L2840.6,628.938 C2836.11,632.347 2831.65,634.052 2827.24,634.052 C2816.24,634.052 2810.74,629.597 2810.74,620.687 C2810.74,611.081 2817.21,600.97 2830.14,590.356 C2840.29,582.144 2849.32,578.038 2857.22,578.038 C2861.17,578.038 2864.46,579.084 2867.1,581.176 C2868.03,580.478 2869.19,580.13 2870.59,580.13 C2874.3,580.13 2876.16,581.679 2876.16,584.778 M2842,626.498 L2863.96,585.94 C2862.26,585.553 2860.36,585.359 2858.27,585.359 C2850.75,585.359 2843.47,589.736 2836.42,598.491 C2828.21,608.718 2824.1,616.891 2824.1,623.012 C2824.1,627.04 2826.77,629.055 2832.12,629.055 C2834.68,629.055 2837.97,628.202 2842,626.498"/>
<path class="Note" d="M2876.98,471.896 C2881.32,468.952 2884.45,466.512 2886.39,464.575 C2889.95,460.778 2891.74,457.292 2891.74,454.116 C2891.74,450.474 2889.72,448.654 2885.69,448.654 C2877.87,448.654 2869.5,455.549 2860.59,469.339 C2857.88,473.523 2851.91,487.158 2842.69,510.246 C2850.05,517.838 2853.73,522.138 2853.73,523.145 C2853.73,524.54 2852.84,525.237 2851.06,525.237 C2849.67,525.237 2845.83,522.874 2839.56,518.148 C2832.74,534.03 2822.4,547.588 2808.53,558.822 C2794.35,570.288 2777.42,576.021 2757.74,576.021 C2750.23,576.021 2740.82,574.278 2729.51,570.791 C2720.44,568.002 2715.91,563.548 2715.91,557.427 C2715.91,548.363 2719.39,543.831 2726.37,543.831 C2730.55,543.831 2732.64,545.767 2732.64,549.641 C2732.64,550.881 2731.67,552.198 2729.74,553.592 C2728.73,554.29 2728.23,555.645 2728.23,557.66 C2728.23,560.061 2730.9,562.541 2736.25,565.097 C2742.06,567.886 2750.58,569.281 2761.81,569.281 C2776.3,569.281 2790.28,563.005 2803.76,550.455 C2816,539.066 2824.8,525.818 2830.14,510.71 C2828.05,509.006 2825.81,507.147 2823.4,505.132 C2815.97,500.716 2812.25,496.184 2812.25,491.536 C2812.25,489.599 2813.53,488.63 2816.08,488.63 C2819.49,488.63 2824.1,491.536 2829.91,497.346 C2831.15,498.586 2832.31,499.748 2833.4,500.832 C2836.11,493.395 2840.45,483.943 2846.41,472.477 C2857.18,451.714 2870.28,441.332 2885.69,441.332 C2891.19,441.332 2895.53,442.378 2898.71,444.47 C2901.88,446.562 2903.47,449.429 2903.47,453.07 C2903.47,458.88 2901.34,463.8 2897.08,467.829 C2892.67,472.012 2888.06,474.104 2883.25,474.104 C2879.07,474.104 2876.98,473.368 2876.98,471.896"/>
<path class="Note" d="M2876.16,674.069 C2876.16,682.979 2866.01,702.541 2845.72,732.756 C2837.66,744.764 2826.08,753.558 2810.97,759.136 C2799.81,763.319 2786.91,765.411 2772.27,765.411 C2767.55,765.411 2763.36,764.443 2759.72,762.506 C2755.69,760.414 2753.68,758.129 2753.68,755.65 C2753.68,749.219 2757.12,746.004 2764.02,746.004 C2765.03,746.004 2765.53,746.624 2765.53,747.863 C2765.53,748.948 2765.03,750.149 2764.02,751.466 C2762.78,753.093 2762.16,754.294 2762.16,755.068 C2762.16,757.393 2765.65,758.555 2772.62,758.555 C2788.27,758.555 2800.63,756.657 2809.69,752.86 C2819.14,748.987 2828.56,739.109 2837.93,723.227 L2840.6,718.23 C2836.11,721.638 2831.65,723.343 2827.24,723.343 C2816.24,723.343 2810.74,718.888 2810.74,709.979 C2810.74,700.372 2817.21,690.262 2830.14,679.648 C2840.29,671.435 2849.32,667.329 2857.22,667.329 C2861.17,667.329 2864.46,668.375 2867.1,670.467 C2868.03,669.77 2869.19,669.421 2870.59,669.421 C2874.3,669.421 2876.16,670.971 2876.16,674.069 M2842,715.789 L2863.96,675.232 C2862.26,674.844 2860.36,674.651 2858.27,674.651 C2850.75,674.651 2843.47,679.028 2836.42,687.782 C2828.21,698.009 2824.1,706.182 2824.1,712.303 C2824.1,716.332 2826.77,718.346 2832.12,718.346 C2834.68,718.346 2837.97,717.494 2842,715.789"/>
<path class="Note" d="M3588.62,851.839 C3593.19,851.839 3595.48,854.705 3595.48,860.438 C3595.48,864.467 3592.96,870.471 3587.93,878.451 C3583.9,884.881 3581.88,891.157 3581.88,897.277 C3581.88,900.763 3586.96,902.507 3597.11,902.507 C3605.47,902.507 3617.13,897.974 3632.09,888.91 C3617.06,903.398 3604,910.641 3592.92,910.641 C3582.93,910.641 3575.96,909.131 3572,906.109 C3571,905.334 3570.15,904.405 3569.45,903.32 C3565.57,908.046 3559.11,910.409 3550.04,910.409 C3541.36,910.409 3534.7,908.627 3530.05,905.063 C3526.95,902.662 3525.4,898.827 3525.4,893.558 C3525.4,885.191 3530.36,876.049 3540.28,866.133 C3550.89,855.519 3563.17,850.212 3577.12,850.212 C3580.6,850.212 3583.16,851.49 3584.79,854.047 C3586.1,852.575 3587.38,851.839 3588.62,851.839 M3567.82,898.091 C3567.74,897.471 3567.7,896.851 3567.7,896.231 C3567.7,895.921 3571.66,885.114 3579.56,863.808 C3580.33,861.717 3581.11,859.935 3581.88,858.463 C3578.86,857.843 3575.88,857.533 3572.93,857.533 C3567.51,857.533 3560.31,862.143 3551.32,871.362 C3543.26,879.574 3539.23,886.663 3539.23,892.629 C3539.23,899.214 3542.37,902.507 3548.65,902.507 C3556.24,902.507 3562.63,901.035 3567.82,898.091"/>
<path class="Note" d="M3530.87,642.535 C3526.68,642.535 3524.59,640.637 3524.59,636.841 C3524.59,630.41 3525.56,625.684 3527.5,622.663 C3535.55,610.732 3553.06,588.419 3580.02,555.725 C3592.19,540.928 3607.87,533.529 3627.09,533.529 C3634.53,533.529 3639.68,534.575 3642.54,536.667 C3646.96,539.921 3649.17,543.833 3649.17,548.404 C3649.17,553.207 3645.29,558.553 3637.55,564.441 C3630.19,570.019 3623.21,572.808 3616.63,572.808 C3614.07,572.808 3612.79,572.537 3612.79,571.995 C3612.79,571.22 3614.03,570.407 3616.51,569.555 C3619.84,568.315 3623.41,565.797 3627.2,562.001 C3631.54,557.585 3633.71,553.595 3633.71,550.031 C3633.71,547.629 3632.05,545.344 3628.72,543.175 C3625.77,541.315 3621.01,540.386 3614.42,540.386 C3604.81,540.386 3592.69,550.07 3578.05,569.438 C3568.29,582.376 3560.38,593.765 3554.34,603.604 C3557.28,601.977 3560.81,600.002 3564.92,597.678 C3569.95,594.811 3574.29,593.378 3577.93,593.378 C3587,593.378 3591.53,596.632 3591.53,603.139 C3591.53,609.57 3587.81,616.62 3580.37,624.29 C3575.1,629.713 3572.47,633.742 3572.47,636.376 C3572.47,639.087 3575.1,640.443 3580.37,640.443 C3583.01,640.443 3585.72,639.513 3588.51,637.654 C3591.3,635.872 3593.35,634.981 3594.67,634.981 C3595.75,634.981 3596.29,635.679 3596.29,637.073 C3596.29,639.32 3594.12,641.683 3589.78,644.162 C3582.5,648.346 3576.65,650.437 3572.24,650.437 C3564.41,650.437 3560.5,646.254 3560.5,637.887 C3560.5,632.618 3563.52,626.769 3569.56,620.339 C3573.98,615.613 3576.19,610.926 3576.19,606.277 C3576.19,602.249 3574.02,600.234 3569.68,600.234 C3567.98,600.234 3562.32,602.249 3552.71,606.277 C3549.85,611.081 3547.45,615.497 3545.51,619.525 C3538.15,634.865 3533.27,642.535 3530.87,642.535"/>
<path class="Note" d="M3603.5,471.896 C3607.84,468.952 3610.97,466.512 3612.91,464.575 C3616.47,460.778 3618.26,457.292 3618.26,454.116 C3618.26,450.474 3616.24,448.654 3612.21,448.654 C3604.39,448.654 3596.02,455.549 3587.11,469.339 C3584.4,473.523 3578.43,487.158 3569.22,510.246 C3576.58,517.838 3580.26,522.138 3580.26,523.145 C3580.26,524.54 3579.36,525.237 3577.58,525.237 C3576.19,525.237 3572.35,522.874 3566.08,518.148 C3559.26,534.03 3548.92,547.588 3535.05,558.822 C3520.87,570.288 3503.94,576.021 3484.27,576.021 C3476.75,576.021 3467.34,574.278 3456.03,570.791 C3446.96,568.002 3442.43,563.548 3442.43,557.427 C3442.43,548.363 3445.92,543.831 3452.89,543.831 C3457.07,543.831 3459.16,545.767 3459.16,549.641 C3459.16,550.881 3458.2,552.198 3456.26,553.592 C3455.25,554.29 3454.75,555.645 3454.75,557.66 C3454.75,560.061 3457.42,562.541 3462.77,565.097 C3468.58,567.886 3477.1,569.281 3488.33,569.281 C3502.82,569.281 3516.8,563.005 3530.28,550.455 C3542.53,539.066 3551.32,525.818 3556.66,510.71 C3554.57,509.006 3552.33,507.147 3549.92,505.132 C3542.49,500.716 3538.77,496.184 3538.77,491.536 C3538.77,489.599 3540.05,488.63 3542.6,488.63 C3546.01,488.63 3550.62,491.536 3556.43,497.346 C3557.67,498.586 3558.83,499.748 3559.92,500.832 C3562.63,493.395 3566.97,483.943 3572.93,472.477 C3583.7,451.714 3596.8,441.332 3612.21,441.332 C3617.71,441.332 3622.05,442.378 3625.23,444.47 C3628.41,446.562 3629.99,449.429 3629.99,453.07 C3629.99,458.88 3627.86,463.8 3623.6,467.829 C3619.19,472.012 3614.58,474.104 3609.77,474.104 C3605.59,474.104 3603.5,473.368 3603.5,471.896"/>
<path class="Note" d="M3530.87,821.118 C3526.68,821.118 3524.59,819.22 3524.59,815.423 C3524.59,808.993 3525.56,804.267 3527.5,801.246 C3535.55,789.315 3553.06,767.002 3580.02,734.308 C3592.19,719.511 3607.87,712.112 3627.09,712.112 C3634.53,712.112 3639.68,713.158 3642.54,715.249 C3646.96,718.503 3649.17,722.416 3649.17,726.987 C3649.17,731.79 3645.29,737.136 3637.55,743.024 C3630.19,748.602 3623.21,751.391 3616.63,751.391 C3614.07,751.391 3612.79,751.12 3612.79,750.578 C3612.79,749.803 3614.03,748.989 3616.51,748.137 C3619.84,746.898 3623.41,744.38 3627.2,740.583 C3631.54,736.167 3633.71,732.178 3633.71,728.614 C3633.71,726.212 3632.05,723.927 3628.72,721.757 C3625.77,719.898 3621.01,718.968 3614.42,718.968 C3604.81,718.968 3592.69,728.652 3578.05,748.021 C3568.29,760.959 3560.38,772.348 3554.34,782.187 C3557.28,780.56 3560.81,778.584 3564.92,776.26 C3569.95,773.394 3574.29,771.96 3577.93,771.96 C3587,771.96 3591.53,775.214 3591.53,781.722 C3591.53,788.152 3587.81,795.203 3580.37,802.873 C3575.1,808.296 3572.47,812.324 3572.47,814.958 C3572.47,817.67 3575.1,819.026 3580.37,819.026 C3583.01,819.026 3585.72,818.096 3588.51,816.237 C3591.3,814.455 3593.35,813.564 3594.67,813.564 C3595.75,813.564 3596.29,814.261 3596.29,815.656 C3596.29,817.902 3594.12,820.265 3589.78,822.745 C3582.5,826.928 3576.65,829.02 3572.24,829.02 C3564.41,829.02 3560.5,824.836 3560.5,816.469 C3560.5,811.201 3563.52,805.352 3569.56,798.921 C3573.98,794.195 3576.19,789.508 3576.19,784.86 C3576.19,780.831 3574.02,778.817 3569.68,778.817 C3567.98,778.817 3562.32,780.831 3552.71,784.86 C3549.85,789.663 3547.45,794.079 3545.51,798.108 C3538.15,813.448 3533.27,821.118 3530.87,821.118"/>
<path class="Note" d="M3530.87,731.826 C3526.68,731.826 3524.59,729.928 3524.59,726.132 C3524.59,719.702 3525.56,714.976 3527.5,711.954 C3535.55,700.023 3553.06,677.711 3580.02,645.017 C3592.19,630.219 3607.87,622.82 3627.09,622.82 C3634.53,622.82 3639.68,623.866 3642.54,625.958 C3646.96,629.212 3649.17,633.124 3649.17,637.695 C3649.17,642.499 3645.29,647.845 3637.55,653.733 C3630.19,659.311 3623.21,662.1 3616.63,662.1 C3614.07,662.1 3612.79,661.829 3612.79,661.286 C3612.79,660.512 3614.03,659.698 3616.51,658.846 C3619.84,657.606 3623.41,655.088 3627.2,651.292 C3631.54,646.876 3633.71,642.886 3633.71,639.322 C3633.71,636.921 3632.05,634.635 3628.72,632.466 C3625.77,630.607 3621.01,629.677 3614.42,629.677 C3604.81,629.677 3592.69,639.361 3578.05,658.73 C3568.29,671.668 3560.38,683.056 3554.34,692.896 C3557.28,691.269 3560.81,689.293 3564.92,686.969 C3569.95,684.102 3574.29,682.669 3577.93,682.669 C3587,682.669 3591.53,685.923 3591.53,692.431 C3591.53,698.861 3587.81,705.911 3580.37,713.581 C3575.1,719.004 3572.47,723.033 3572.47,725.667 C3572.47,728.379 3575.1,729.735 3580.37,729.735 C3583.01,729.735 3585.72,728.805 3588.51,726.945 C3591.3,725.164 3593.35,724.273 3594.67,724.273 C3595.75,724.273 3596.29,724.97 3596.29,726.364 C3596.29,728.611 3594.12,730.974 3589.78,733.453 C3582.5,737.637 3576.65,739.729 3572.24,739.729 C3564.41,739.729 3560.5,735.545 3560.5,727.178 C3560.5,721.91 3563.52,716.06 3569.56,709.63 C3573.98,704.904 3576.19,700.217 3576.19,695.568 C3576.19,691.54 3574.02,689.526 3569.68,689.526 C3567.98,689.526 3562.32,691.54 3552.71,695.568 C3549.85,700.372 3547.45,704.788 3545.51,708.817 C3538.15,724.156 3533.27,731.826 3530.87,731.826"/>
<path class="Clef" transform="matrix(2.3811,0,0,2.3811,212.156,2158.79)" d="M25.4,-25.1 C17.8,-25.1 11.7,-20.7 11.6,-20.7 C5.8,-16.4 3.5,-11.3 2.6,-7.8 C2.1,-6 1.9,-4.2 1.9,-2.5 C1.9,-0.1 2.3,2.1 3.2,4 C4.4,6.7 6.7,8.6 9.7,9.6 C10.9,10 12.2,10.2 13.5,10.2 C15.7,10.2 18,9.6 19.9,8.5 C23,6.8 24.9,3.2 24.9,-0.7 C24.9,-4.2 23.1,-7.4 20.1,-9.3 C18,-10.7 16,-11.1 14.3,-11.1 C13.1,-11.1 12,-10.9 11.1,-10.6 C10.1,-10.2 8.4,-9.2 7.6,-8.5 C7.9,-10.4 9.1,-13.3 10.2,-14.9 C11.3,-16.5 13.5,-18.5 15.2,-19.4 C17.7,-20.8 20.9,-21.4 24.4,-21.4 C34.6,-21.4 39.6,-13.2 39.6,3.6 C39.6,12.9 36.1,21.8 33.1,27.7 C29.8,34.3 25.4,40.6 21.5,44.1 C11.1,53.6 1.3,58.1 1.2,58.1 C1.2,58.1 -0.3,59 0.1,60.5 C0.4,61.5 1.3,61.7 1.9,61.7 C2,61.7 2.3,61.6 2.4,61.6 C2.5,61.6 13.9,56.9 23,49.8 C28.1,46.1 32.7,42.1 36.7,37.8 C40.3,33.9 43.4,29.7 45.9,25.5 C50.3,18 52.8,10.2 52.8,3.5 C52.8,-4.8 50.6,-11.7 46.5,-16.6 C41.8,-22.2 34.7,-25.1 25.4,-25.1 M56.8,-12.4 C56.8,-9.6 59,-7.4 61.6,-7.4 C64.2,-7.4 66.4,-9.6 66.4,-12.4 C66.4,-15.2 64.2,-17.5 61.6,-17.5 C59,-17.5 56.8,-15.2 56.8,-12.4 M56.8,12.3 C56.8,15.1 59,17.4 61.6,17.4 C64.2,17.4 66.4,15.1 66.4,12.3 C66.4,9.5 64.2,7.2 61.6,7.2 C59,7.2 56.8,9.5 56.8,12.3"/>
<path class="Clef" transform="matrix(2.3811,0,0,2.3811,212.156,1570.39)" d="M63.37,-5.89004 C62.14,-11.32 59.5,-15.14 58.72,-16.1801 C55.5301,-20.45 51.52,-23.3 46.8301,-24.65 C43.72,-25.54 40.72,-25.65 38.3,-25.47 C37.2601,-31.4801 36.2601,-37.3601 35.35,-42.8101 C40.79,-48.97 44.42,-54.77 46.69,-59.07 C50.1601,-65.65 51.3101,-70.2301 51.3601,-70.4301 C53.0801,-75.64 53.44,-83.34 52.34,-91.55 C51.3301,-99.1 49.24,-105.81 46.89,-109.06 C45.8601,-110.49 44.8101,-111.22 43.77,-111.22 C42.55,-111.22 40.04,-109.98 37.15,-107.21 C34.85,-105.01 31.5801,-101.12 29.02,-95.1101 C26.02,-88.05 25.8101,-78.5601 26.1601,-71.84 C26.54,-64.57 27.65,-58.8801 27.6601,-58.8301 C27.6801,-58.74 27.94,-57.24 28.39,-54.67 C28.1601,-54.44 27.92,-54.22 27.67,-53.9801 C26.6301,-52.9801 25.44,-51.84 24.0601,-50.4601 C23.2,-49.6 22.25,-48.69 21.25,-47.72 C12.79,-39.57 0,-27.25 0,-8.1 C0,-3.4 0.9,1.01992 2.68008,5.02998 C4.27002,8.62998 6.57002,11.91 9.5,14.78 C17.2301,22.33 27.82,25.5399 34.8801,25.38 C37.8301,25.31 40.4601,25.0699 42.85,24.6199 C44.6801,34.2199 45.82,41.25 45.8601,46.5899 C45.9,53.1 44.25,57.0699 40.35,59.8399 C37.92,61.5699 35.1101,62.5199 32.0101,62.6699 C29.42,62.7899 27.1601,62.3199 25.7301,61.91 L25.72,61.91 C25.72,61.91 25.4301,61.83 25.42,61.63 C25.4101,61.45 25.7601,61.4 25.77,61.4 L25.79,61.4 C27.7101,60.96 31.2801,59.73 33.64,56.43 C35.44,53.91 36.3101,49.2899 34.47,45.35 C33.3601,42.96 30.85,40.01 25.2301,39.56 C22.74,39.36 20.47,39.8699 18.47,41.0699 C16.6601,42.15 15.1601,43.7899 14.1101,45.7899 C11.65,50.4899 12.1101,56.2199 15.24,60.06 C18.2,63.68 22.82,65.9899 28.25,66.5699 C29.1,66.66 29.95,66.7 30.8,66.7 C31.5101,66.7 32.22,66.6699 32.92,66.61 C31.72,66.9399 30.64,67.4899 29.77,68.25 C28.2801,69.5399 27.44,71.38 27.44,73.41 C27.44,75.28 28.0601,76.65 29.55,78.0399 C28.4101,78.5 27.55,78.98 26.79,79.56 C25.25,80.73 24.34,82.46 24.34,84.1899 C24.34,87.45 27.3,89.63 31.72,89.63 C37.1301,89.63 40.9101,86.63 40.9101,82.35 C40.9101,80.1199 39.9101,78.18 38.0801,76.83 C41.0101,75.6199 42.37,73.9399 42.37,71.56 C42.39,70.05 41.69,68.61 40.49,67.6899 C39.2801,66.7399 37.62,66.2399 35.69,66.2399 L35.5101,66.2399 C38.2801,65.7 40.92,64.7 43.2101,63.28 C46.87,60.71 48.99,56.73 49.67,51.1 C50.2301,46.46 49.84,40.55 48.44,32.48 C48.0801,30.3899 47.54,27.36 46.8801,23.6 C52.6301,21.68 56.79,18.11 60.5601,12.26 C63.85,6.51992 64.8,0.419922 63.37,-5.89004 M32.39,87.5399 C30.19,87.5399 28.7301,86.1199 28.7301,84.01 C28.7301,82.11 29.65,80.5 31.32,79.4699 C31.6801,79.66 31.77,79.71 32.1101,79.88 C33.3,80.48 33.3,80.48 33.55,80.63 L33.5601,80.6399 C35.47,81.73 36.25,82.76 36.25,84.18 C36.24,86.0899 34.59,87.5399 32.39,87.5399 M38.3101,71.63 C38.3101,73.2699 37.7301,74.3399 36.1801,75.53 C34.74,74.78 34.35,74.56 33.9801,74.3399 L33.8801,74.28 C32.3301,73.3399 31.85,72.66 31.85,71.4 C31.85,69.6 33.2301,68.3399 35.19,68.3399 C37.17,68.35 38.3101,69.55 38.3101,71.63 M33.15,-83.8101 C34.9301,-89.55 37.67,-92.8 39.6601,-94.5301 C41.4101,-96.05 43.0601,-96.7601 43.9801,-96.7601 C44.12,-96.7601 44.24,-96.74 44.34,-96.7101 C44.8,-96.57 45.3301,-96 45.8,-95.1301 C48.1101,-90.84 47.37,-84.1301 46.0301,-79.69 C44.4,-74.29 41.4801,-68.6801 32.69,-59.0601 C32.52,-60.17 32.3601,-61.22 32.2101,-62.2 C30.95,-70.49 31.27,-77.7601 33.15,-83.8101 M29.15,20.31 C24.5101,19.0899 20.0801,16.5899 16.32,13.0899 C15.0101,11.86 13.14,9.68994 11.67,6.3 C10.3101,3.13994 9.65,-0.290039 9.7,-3.88008 C9.77002,-8.57002 11.0801,-13.39 13.59,-18.1801 C16.5101,-23.7601 21.07,-29.29 27.1301,-34.62 C28.5801,-35.9 29.95,-37.1801 31.24,-38.4601 C32,-34.2 32.8301,-29.5101 33.7101,-24.6301 C29.8601,-23.3601 25.1101,-20.2101 22,-14.5601 C18.47,-7.99004 18.6101,-2.47002 19.34,1.00996 C20.2801,5.46992 22.8101,9.22998 26.27,11.3199 C27.2,11.88 31.3301,14.01 33.17,13.43 C33.54,13.31 33.8101,13.0899 33.95,12.76 C34.4601,11.5899 33.44,10.95 31.8801,9.98994 C31.2801,9.61992 30.6101,9.2 29.8801,8.66992 C26.5601,6.17998 25.1101,1.72998 26.1801,-2.65 C26.7601,-5.05 28.04,-7.21006 29.8801,-8.91006 C31.55,-10.4601 33.59,-11.5601 35.97,-12.2 C38.0101,-0.960059 40.07,10.1899 41.7101,18.55 C41.84,19.2399 41.9801,19.91 42.1101,20.58 C37.7101,21.51 33.37,21.4199 29.15,20.31 M54.9,10.1 C53.7301,13.28 51.27,17.35 46.14,19.41 C46.07,18.9899 45.99,18.56 45.9101,18.13 C44.3601,9.36992 42.4301,-1.61006 40.47,-12.87 C50.82,-13.35 55.09,-5.91006 55.9801,-1.08008 C56.45,1.45 56.45,5.88994 54.9,10.1"/>
<path class="FiguredBass" d="M623.784,2472.56 C619.207,2472.56 616.161,2474.4 614.645,2478.08 C613.13,2481.76 612.373,2486.97 612.373,2493.71 L612.373,2504.66 C615.589,2503.36 618.372,2502.68 620.722,2502.62 C628.762,2502.62 635.087,2504.4 639.694,2507.95 C644.302,2511.51 646.606,2516.8 646.606,2523.82 C646.606,2530.84 644.271,2536.14 639.602,2539.73 C634.932,2543.32 628.639,2545.11 620.722,2545.11 C612.62,2545.11 606.28,2541.35 601.704,2533.84 C597.127,2526.32 594.838,2517.4 594.838,2507.07 C594.838,2496.81 597.498,2487.9 602.817,2480.35 C608.136,2472.81 615.125,2469.04 623.784,2469.04 C629.474,2469.04 634.391,2470.47 638.535,2473.35 C642.678,2476.23 644.75,2480.01 644.75,2484.71 C644.75,2487.44 643.761,2489.79 641.782,2491.76 C639.803,2493.74 637.437,2494.73 634.685,2494.73 C631.932,2494.73 629.567,2493.74 627.587,2491.76 C625.608,2489.79 624.619,2487.44 624.619,2484.71 C624.619,2482.05 625.608,2479.7 627.587,2477.66 C628.268,2476.86 629.226,2476.18 630.463,2475.62 C630.154,2474.82 629.536,2474.2 628.608,2473.77 C627.247,2472.96 625.639,2472.56 623.784,2472.56 M628.33,2510.5 C627.216,2507.6 624.773,2506.14 621,2506.14 C617.228,2506.14 614.893,2507.6 613.996,2510.5 C613.099,2513.41 612.651,2517.83 612.651,2523.77 C612.651,2530.76 613.099,2535.46 613.996,2537.87 C614.893,2540.29 617.228,2541.49 621,2541.49 C624.773,2541.49 627.216,2540.04 628.33,2537.13 C629.443,2534.22 629.999,2529.79 629.999,2523.82 C629.999,2517.85 629.443,2513.41 628.33,2510.5"/>
<path class="FiguredBass" d="M612.278,2625.44 L612.278,2635.46 L612.278,2637.13 C612.278,2640.9 612.432,2644.24 612.742,2647.15 C615.71,2644.61 618.03,2642.54 619.7,2640.93 C621.37,2639.32 622.993,2637.13 624.57,2634.35 C626.147,2631.56 626.936,2628.79 626.936,2626.04 C626.936,2623.29 626.348,2620.89 625.173,2618.85 C623.998,2616.81 622.39,2615.79 620.349,2615.79 C617.999,2615.79 616.097,2616.73 614.643,2618.62 C613.19,2620.51 612.401,2622.78 612.278,2625.44 M605.876,2652.62 L604.114,2570.42 C605.413,2569.62 606.773,2569.2 608.196,2569.17 C609.618,2569.14 610.979,2569.56 612.278,2570.42 L611.257,2614.58 C615.339,2611.18 619.947,2609.48 625.081,2609.48 C628.915,2609.48 632.131,2611.03 634.729,2614.12 C637.327,2617.21 638.625,2620.83 638.625,2624.98 C638.625,2627.82 637.821,2630.53 636.213,2633.09 C634.605,2635.66 632.904,2637.72 631.111,2639.26 C629.317,2640.81 626.58,2642.94 622.9,2645.66 C619.22,2648.39 617.009,2650.06 616.267,2650.67 C615.772,2651.11 615.107,2651.88 614.272,2652.99 C613.437,2654.11 612.649,2654.96 611.907,2655.54 C611.164,2656.13 610.33,2656.43 609.402,2656.43 C608.412,2656.43 607.577,2656.07 606.897,2655.36 C606.217,2654.65 605.876,2653.74 605.876,2652.62"/>
<path class="FiguredBass" d="M1351.54,2472.56 C1346.97,2472.56 1343.92,2474.4 1342.41,2478.08 C1340.89,2481.76 1340.13,2486.97 1340.13,2493.71 L1340.13,2504.66 C1343.35,2503.36 1346.13,2502.68 1348.48,2502.62 C1356.52,2502.62 1362.85,2504.4 1367.45,2507.95 C1372.06,2511.51 1374.37,2516.8 1374.37,2523.82 C1374.37,2530.84 1372.03,2536.14 1367.36,2539.73 C1362.69,2543.32 1356.4,2545.11 1348.48,2545.11 C1340.38,2545.11 1334.04,2541.35 1329.46,2533.84 C1324.89,2526.32 1322.6,2517.4 1322.6,2507.07 C1322.6,2496.81 1325.26,2487.9 1330.58,2480.35 C1335.9,2472.81 1342.88,2469.04 1351.54,2469.04 C1357.23,2469.04 1362.15,2470.47 1366.29,2473.35 C1370.44,2476.23 1372.51,2480.01 1372.51,2484.71 C1372.51,2487.44 1371.52,2489.79 1369.54,2491.76 C1367.56,2493.74 1365.2,2494.73 1362.44,2494.73 C1359.69,2494.73 1357.33,2493.74 1355.35,2491.76 C1353.37,2489.79 1352.38,2487.44 1352.38,2484.71 C1352.38,2482.05 1353.37,2479.7 1355.35,2477.66 C1356.03,2476.86 1356.99,2476.18 1358.22,2475.62 C1357.91,2474.82 1357.3,2474.2 1356.37,2473.77 C1355.01,2472.96 1353.4,2472.56 1351.54,2472.56 M1356.09,2510.5 C1354.98,2507.6 1352.53,2506.14 1348.76,2506.14 C1344.99,2506.14 1342.65,2507.6 1341.76,2510.5 C1340.86,2513.41 1340.41,2517.83 1340.41,2523.77 C1340.41,2530.76 1340.86,2535.46 1341.76,2537.87 C1342.65,2540.29 1344.99,2541.49 1348.76,2541.49 C1352.53,2541.49 1354.98,2540.04 1356.09,2537.13 C1357.2,2534.22 1357.76,2529.79 1357.76,2523.82 C1357.76,2517.85 1357.2,2513.41 1356.09,2510.5"/>
<path class="FiguredBass" d="M1342.73,2641.21 L1342.73,2660.6 C1342.73,2662.52 1341.76,2663.48 1339.81,2663.48 C1337.86,2663.48 1336.89,2662.52 1336.89,2660.6 L1336.89,2643.72 L1333.92,2644.92 C1333.61,2645.05 1333.21,2645.11 1332.71,2645.11 C1331.91,2645.11 1331.19,2644.8 1330.58,2644.18 C1329.96,2643.56 1329.65,2642.85 1329.65,2642.05 L1329.65,2632.58 C1329.65,2631.22 1330.3,2630.26 1331.6,2629.71 L1336.89,2627.48 L1336.89,2608 L1333.92,2609.2 C1333.73,2609.27 1333.48,2609.3 1333.17,2609.3 C1333.05,2609.3 1332.9,2609.3 1332.71,2609.3 C1331.78,2609.17 1331.04,2608.83 1330.48,2608.28 C1329.93,2607.72 1329.65,2607.07 1329.65,2606.33 L1329.65,2596.87 C1329.65,2595.57 1330.3,2594.64 1331.6,2594.08 L1336.89,2591.86 L1336.89,2572.09 C1336.89,2570.18 1337.86,2569.22 1339.81,2569.22 C1341.76,2569.22 1342.73,2570.18 1342.73,2572.09 L1342.73,2589.44 L1354.7,2584.43 L1354.7,2565.04 C1354.7,2563.13 1355.66,2562.17 1357.57,2562.17 C1359.49,2562.17 1360.45,2563.13 1360.45,2565.04 L1360.45,2582.11 L1363.7,2580.72 C1364.01,2580.6 1364.35,2580.54 1364.72,2580.54 C1365.52,2580.54 1366.25,2580.85 1366.9,2581.46 C1367.55,2582.08 1367.87,2582.79 1367.87,2583.6 L1367.87,2593.06 C1367.87,2594.42 1367.19,2595.38 1365.83,2595.94 L1360.45,2598.16 L1360.45,2617.74 L1363.7,2616.44 C1363.88,2616.38 1364.1,2616.35 1364.35,2616.35 C1364.47,2616.35 1364.59,2616.35 1364.72,2616.35 C1365.77,2616.53 1366.56,2616.87 1367.08,2617.37 C1367.61,2617.86 1367.87,2618.51 1367.87,2619.32 L1367.87,2628.78 C1367.87,2630.08 1367.19,2631.01 1365.83,2631.56 L1360.45,2633.79 L1360.45,2653.55 C1360.45,2655.47 1359.49,2656.43 1357.57,2656.43 C1355.66,2656.43 1354.7,2655.47 1354.7,2653.55 L1354.7,2636.2 L1342.73,2641.21 M1342.73,2625.07 L1354.7,2620.15 L1354.7,2600.58 L1342.73,2605.59 L1342.73,2625.07 "/>
<path class="FiguredBass" d="M2113.72,2472.56 C2109.14,2472.56 2106.09,2474.4 2104.58,2478.08 C2103.06,2481.76 2102.31,2486.97 2102.31,2493.71 L2102.31,2504.66 C2105.52,2503.36 2108.31,2502.68 2110.66,2502.62 C2118.7,2502.62 2125.02,2504.4 2129.63,2507.95 C2134.24,2511.51 2136.54,2516.8 2136.54,2523.82 C2136.54,2530.84 2134.2,2536.14 2129.54,2539.73 C2124.87,2543.32 2118.57,2545.11 2110.66,2545.11 C2102.55,2545.11 2096.21,2541.35 2091.64,2533.84 C2087.06,2526.32 2084.77,2517.4 2084.77,2507.07 C2084.77,2496.81 2087.43,2487.9 2092.75,2480.35 C2098.07,2472.81 2105.06,2469.04 2113.72,2469.04 C2119.41,2469.04 2124.32,2470.47 2128.47,2473.35 C2132.61,2476.23 2134.68,2480.01 2134.68,2484.71 C2134.68,2487.44 2133.69,2489.79 2131.72,2491.76 C2129.74,2493.74 2127.37,2494.73 2124.62,2494.73 C2121.87,2494.73 2119.5,2493.74 2117.52,2491.76 C2115.54,2489.79 2114.55,2487.44 2114.55,2484.71 C2114.55,2482.05 2115.54,2479.7 2117.52,2477.66 C2118.2,2476.86 2119.16,2476.18 2120.4,2475.62 C2120.09,2474.82 2119.47,2474.2 2118.54,2473.77 C2117.18,2472.96 2115.57,2472.56 2113.72,2472.56 M2118.26,2510.5 C2117.15,2507.6 2114.71,2506.14 2110.93,2506.14 C2107.16,2506.14 2104.83,2507.6 2103.93,2510.5 C2103.03,2513.41 2102.58,2517.83 2102.58,2523.77 C2102.58,2530.76 2103.03,2535.46 2103.93,2537.87 C2104.83,2540.29 2107.16,2541.49 2110.93,2541.49 C2114.71,2541.49 2117.15,2540.04 2118.26,2537.13 C2119.38,2534.22 2119.93,2529.79 2119.93,2523.82 C2119.93,2517.85 2119.38,2513.41 2118.26,2510.5"/>
<path class="FiguredBass" d="M2102.21,2625.44 L2102.21,2635.46 L2102.21,2637.13 C2102.21,2640.9 2102.37,2644.24 2102.68,2647.15 C2105.64,2644.61 2107.96,2642.54 2109.63,2640.93 C2111.3,2639.32 2112.93,2637.13 2114.5,2634.35 C2116.08,2631.56 2116.87,2628.79 2116.87,2626.04 C2116.87,2623.29 2116.28,2620.89 2115.11,2618.85 C2113.93,2616.81 2112.32,2615.79 2110.28,2615.79 C2107.93,2615.79 2106.03,2616.73 2104.58,2618.62 C2103.12,2620.51 2102.34,2622.78 2102.21,2625.44 M2095.81,2652.62 L2094.05,2570.42 C2095.35,2569.62 2096.71,2569.2 2098.13,2569.17 C2099.55,2569.14 2100.91,2569.56 2102.21,2570.42 L2101.19,2614.58 C2105.27,2611.18 2109.88,2609.48 2115.01,2609.48 C2118.85,2609.48 2122.06,2611.03 2124.66,2614.12 C2127.26,2617.21 2128.56,2620.83 2128.56,2624.98 C2128.56,2627.82 2127.76,2630.53 2126.15,2633.09 C2124.54,2635.66 2122.84,2637.72 2121.04,2639.26 C2119.25,2640.81 2116.51,2642.94 2112.83,2645.66 C2109.15,2648.39 2106.94,2650.06 2106.2,2650.67 C2105.71,2651.11 2105.04,2651.88 2104.21,2652.99 C2103.37,2654.11 2102.58,2654.96 2101.84,2655.54 C2101.1,2656.13 2100.26,2656.43 2099.34,2656.43 C2098.35,2656.43 2097.51,2656.07 2096.83,2655.36 C2096.15,2654.65 2095.81,2653.74 2095.81,2652.62"/>
<path class="FiguredBass" d="M2830.47,2472.56 C2825.89,2472.56 2822.85,2474.4 2821.33,2478.08 C2819.82,2481.76 2819.06,2486.97 2819.06,2493.71 L2819.06,2504.66 C2822.28,2503.36 2825.06,2502.68 2827.41,2502.62 C2835.45,2502.62 2841.77,2504.4 2846.38,2507.95 C2850.99,2511.51 2853.29,2516.8 2853.29,2523.82 C2853.29,2530.84 2850.96,2536.14 2846.29,2539.73 C2841.62,2543.32 2835.33,2545.11 2827.41,2545.11 C2819.31,2545.11 2812.97,2541.35 2808.39,2533.84 C2803.81,2526.32 2801.53,2517.4 2801.53,2507.07 C2801.53,2496.81 2804.19,2487.9 2809.5,2480.35 C2814.82,2472.81 2821.81,2469.04 2830.47,2469.04 C2836.16,2469.04 2841.08,2470.47 2845.22,2473.35 C2849.37,2476.23 2851.44,2480.01 2851.44,2484.71 C2851.44,2487.44 2850.45,2489.79 2848.47,2491.76 C2846.49,2493.74 2844.12,2494.73 2841.37,2494.73 C2838.62,2494.73 2836.25,2493.74 2834.28,2491.76 C2832.3,2489.79 2831.31,2487.44 2831.31,2484.71 C2831.31,2482.05 2832.3,2479.7 2834.28,2477.66 C2834.96,2476.86 2835.91,2476.18 2837.15,2475.62 C2836.84,2474.82 2836.22,2474.2 2835.3,2473.77 C2833.94,2472.96 2832.33,2472.56 2830.47,2472.56 M2835.02,2510.5 C2833.9,2507.6 2831.46,2506.14 2827.69,2506.14 C2823.92,2506.14 2821.58,2507.6 2820.68,2510.5 C2819.79,2513.41 2819.34,2517.83 2819.34,2523.77 C2819.34,2530.76 2819.79,2535.46 2820.68,2537.87 C2821.58,2540.29 2823.92,2541.49 2827.69,2541.49 C2831.46,2541.49 2833.9,2540.04 2835.02,2537.13 C2836.13,2534.22 2836.69,2529.79 2836.69,2523.82 C2836.69,2517.85 2836.13,2513.41 2835.02,2510.5"/>
<path class="FiguredBass" d="M2818.97,2625.44 L2818.97,2635.46 L2818.97,2637.13 C2818.97,2640.9 2819.12,2644.24 2819.43,2647.15 C2822.4,2644.61 2824.72,2642.54 2826.39,2640.93 C2828.06,2639.32 2829.68,2637.13 2831.26,2634.35 C2832.84,2631.56 2833.62,2628.79 2833.62,2626.04 C2833.62,2623.29 2833.04,2620.89 2831.86,2618.85 C2830.69,2616.81 2829.08,2615.79 2827.04,2615.79 C2824.69,2615.79 2822.79,2616.73 2821.33,2618.62 C2819.88,2620.51 2819.09,2622.78 2818.97,2625.44 M2812.56,2652.62 L2810.8,2570.42 C2812.1,2569.62 2813.46,2569.2 2814.88,2569.17 C2816.31,2569.14 2817.67,2569.56 2818.97,2570.42 L2817.95,2614.58 C2822.03,2611.18 2826.64,2609.48 2831.77,2609.48 C2835.6,2609.48 2838.82,2611.03 2841.42,2614.12 C2844.01,2617.21 2845.31,2620.83 2845.31,2624.98 C2845.31,2627.82 2844.51,2630.53 2842.9,2633.09 C2841.29,2635.66 2839.59,2637.72 2837.8,2639.26 C2836.01,2640.81 2833.27,2642.94 2829.59,2645.66 C2825.91,2648.39 2823.7,2650.06 2822.96,2650.67 C2822.46,2651.11 2821.8,2651.88 2820.96,2652.99 C2820.13,2654.11 2819.34,2654.96 2818.59,2655.54 C2817.85,2656.13 2817.02,2656.43 2816.09,2656.43 C2815.1,2656.43 2814.27,2656.07 2813.58,2655.36 C2812.9,2654.65 2812.56,2653.74 2812.56,2652.62"/>
<path class="FiguredBass" d="M3556.99,2472.56 C3552.42,2472.56 3549.37,2474.4 3547.85,2478.08 C3546.34,2481.76 3545.58,2486.97 3545.58,2493.71 L3545.58,2504.66 C3548.8,2503.36 3551.58,2502.68 3553.93,2502.62 C3561.97,2502.62 3568.3,2504.4 3572.9,2507.95 C3577.51,2511.51 3579.81,2516.8 3579.81,2523.82 C3579.81,2530.84 3577.48,2536.14 3572.81,2539.73 C3568.14,2543.32 3561.85,2545.11 3553.93,2545.11 C3545.83,2545.11 3539.49,2541.35 3534.91,2533.84 C3530.34,2526.32 3528.05,2517.4 3528.05,2507.07 C3528.05,2496.81 3530.71,2487.9 3536.03,2480.35 C3541.34,2472.81 3548.33,2469.04 3556.99,2469.04 C3562.68,2469.04 3567.6,2470.47 3571.74,2473.35 C3575.89,2476.23 3577.96,2480.01 3577.96,2484.71 C3577.96,2487.44 3576.97,2489.79 3574.99,2491.76 C3573.01,2493.74 3570.65,2494.73 3567.89,2494.73 C3565.14,2494.73 3562.78,2493.74 3560.8,2491.76 C3558.82,2489.79 3557.83,2487.44 3557.83,2484.71 C3557.83,2482.05 3558.82,2479.7 3560.8,2477.66 C3561.48,2476.86 3562.44,2476.18 3563.67,2475.62 C3563.36,2474.82 3562.74,2474.2 3561.82,2473.77 C3560.46,2472.96 3558.85,2472.56 3556.99,2472.56 M3561.54,2510.5 C3560.43,2507.6 3557.98,2506.14 3554.21,2506.14 C3550.44,2506.14 3548.1,2507.6 3547.2,2510.5 C3546.31,2513.41 3545.86,2517.83 3545.86,2523.77 C3545.86,2530.76 3546.31,2535.46 3547.2,2537.87 C3548.1,2540.29 3550.44,2541.49 3554.21,2541.49 C3557.98,2541.49 3560.43,2540.04 3561.54,2537.13 C3562.65,2534.22 3563.21,2529.79 3563.21,2523.82 C3563.21,2517.85 3562.65,2513.41 3561.54,2510.5"/>
<path class="FiguredBass" d="M3548.18,2641.21 L3548.18,2660.6 C3548.18,2662.52 3547.2,2663.48 3545.26,2663.48 C3543.31,2663.48 3542.33,2662.52 3542.33,2660.6 L3542.33,2643.72 L3539.37,2644.92 C3539.06,2645.05 3538.65,2645.11 3538.16,2645.11 C3537.36,2645.11 3536.64,2644.8 3536.03,2644.18 C3535.41,2643.56 3535.1,2642.85 3535.1,2642.05 L3535.1,2632.58 C3535.1,2631.22 3535.75,2630.26 3537.05,2629.71 L3542.33,2627.48 L3542.33,2608 L3539.37,2609.2 C3539.18,2609.27 3538.93,2609.3 3538.62,2609.3 C3538.5,2609.3 3538.34,2609.3 3538.16,2609.3 C3537.23,2609.17 3536.49,2608.83 3535.93,2608.28 C3535.38,2607.72 3535.1,2607.07 3535.1,2606.33 L3535.1,2596.87 C3535.1,2595.57 3535.75,2594.64 3537.05,2594.08 L3542.33,2591.86 L3542.33,2572.09 C3542.33,2570.18 3543.31,2569.22 3545.26,2569.22 C3547.2,2569.22 3548.18,2570.18 3548.18,2572.09 L3548.18,2589.44 L3560.15,2584.43 L3560.15,2565.04 C3560.15,2563.13 3561.11,2562.17 3563.02,2562.17 C3564.94,2562.17 3565.9,2563.13 3565.9,2565.04 L3565.9,2582.11 L3569.15,2580.72 C3569.45,2580.6 3569.8,2580.54 3570.17,2580.54 C3570.97,2580.54 3571.7,2580.85 3572.35,2581.46 C3573,2582.08 3573.32,2582.79 3573.32,2583.6 L3573.32,2593.06 C3573.32,2594.42 3572.64,2595.38 3571.28,2595.94 L3565.9,2598.16 L3565.9,2617.74 L3569.15,2616.44 C3569.33,2616.38 3569.55,2616.35 3569.8,2616.35 C3569.92,2616.35 3570.04,2616.35 3570.17,2616.35 C3571.22,2616.53 3572.01,2616.87 3572.53,2617.37 C3573.06,2617.86 3573.32,2618.51 3573.32,2619.32 L3573.32,2628.78 C3573.32,2630.08 3572.64,2631.01 3571.28,2631.56 L3565.9,2633.79 L3565.9,2653.55 C3565.9,2655.47 3564.94,2656.43 3563.02,2656.43 C3561.11,2656.43 3560.15,2655.47 3560.15,2653.55 L3560.15,2636.2 L3548.18,2641.21 M3548.18,2625.07 L3560.15,2620.15 L3560.15,2600.58 L3548.18,2605.59 L3548.18,2625.07 "/>
<path class="FiguredBass" d="M632.133,1793.87 C637.081,1788.49 639.555,1783.29 639.555,1778.28 C639.555,1774.2 637.808,1770.98 634.313,1768.63 C630.819,1766.28 626.629,1765.11 621.743,1765.11 C618.279,1765.11 615.511,1766.19 613.439,1768.35 C611.367,1770.52 610.331,1773.02 610.331,1775.87 C610.331,1779.33 611.847,1781.96 614.877,1783.75 L632.133,1793.87 M636.679,1796.46 C645.091,1801.35 649.296,1807.78 649.296,1815.76 C649.296,1821.76 646.73,1826.91 641.596,1831.21 C636.463,1835.51 629.443,1837.66 620.537,1837.66 C613.053,1837.66 606.543,1835.68 601.008,1831.72 C595.472,1827.76 592.705,1822.63 592.705,1816.32 C592.705,1813.97 593.385,1811.59 594.746,1809.17 C596.106,1806.76 597.374,1804.95 598.549,1803.75 C599.724,1802.54 601.642,1800.67 604.301,1798.13 C598.116,1793.87 595.024,1788.49 595.024,1781.99 C595.024,1776.43 597.405,1771.63 602.167,1767.61 C606.93,1763.59 613.455,1761.58 621.743,1761.58 C628.36,1761.58 634.097,1763.08 638.952,1766.08 C643.807,1769.08 646.235,1773.15 646.235,1778.28 C646.235,1783.79 643.05,1789.85 636.679,1796.46 M608.847,1800.83 C602.539,1806.33 599.384,1811.49 599.384,1816.32 C599.384,1821.39 601.487,1825.63 605.693,1829.03 C609.899,1832.43 614.846,1834.13 620.537,1834.13 C624.495,1834.13 627.665,1832.86 630.046,1830.33 C632.427,1827.79 633.618,1824.85 633.618,1821.51 C633.618,1817.25 631.855,1814.09 628.33,1812.05 L608.847,1800.83 "/>
<path class="FiguredBass" d="M623.784,1870.86 C619.207,1870.86 616.161,1872.7 614.645,1876.38 C613.13,1880.06 612.373,1885.27 612.373,1892.01 L612.373,1902.96 C615.589,1901.66 618.372,1900.98 620.722,1900.92 C628.762,1900.92 635.087,1902.69 639.694,1906.25 C644.302,1909.81 646.606,1915.09 646.606,1922.11 C646.606,1929.13 644.271,1934.44 639.602,1938.03 C634.932,1941.61 628.639,1943.41 620.722,1943.41 C612.62,1943.41 606.28,1939.65 601.704,1932.13 C597.127,1924.62 594.838,1915.7 594.838,1905.37 C594.838,1895.1 597.498,1886.2 602.817,1878.65 C608.136,1871.1 615.125,1867.33 623.784,1867.33 C629.474,1867.33 634.391,1868.77 638.535,1871.65 C642.678,1874.52 644.75,1878.31 644.75,1883.01 C644.75,1885.73 643.761,1888.08 641.782,1890.06 C639.803,1892.04 637.437,1893.03 634.685,1893.03 C631.932,1893.03 629.567,1892.04 627.587,1890.06 C625.608,1888.08 624.619,1885.73 624.619,1883.01 C624.619,1880.35 625.608,1878 627.587,1875.96 C628.268,1875.16 629.226,1874.48 630.463,1873.92 C630.154,1873.11 629.536,1872.5 628.608,1872.06 C627.247,1871.26 625.639,1870.86 623.784,1870.86 M628.33,1908.8 C627.216,1905.89 624.773,1904.44 621,1904.44 C617.228,1904.44 614.893,1905.89 613.996,1908.8 C613.099,1911.71 612.651,1916.13 612.651,1922.07 C612.651,1929.06 613.099,1933.76 613.996,1936.17 C614.893,1938.58 617.228,1939.79 621,1939.79 C624.773,1939.79 627.216,1938.33 628.33,1935.43 C629.443,1932.52 629.999,1928.08 629.999,1922.11 C629.999,1916.15 629.443,1911.71 628.33,1908.8"/>
<path class="FiguredBass" d="M635.659,2008.8 C635.659,2009.79 636.215,2010.75 637.329,2011.68 C638.442,2012.6 639.663,2013.48 640.993,2014.32 C642.323,2015.15 643.544,2016.73 644.658,2019.05 C645.771,2021.37 646.328,2024.29 646.328,2027.82 C646.328,2034.62 643.761,2039.88 638.627,2043.59 C633.494,2047.3 627,2049.16 619.145,2049.16 C612.836,2049.16 607.347,2047.58 602.678,2044.42 C598.008,2041.27 595.673,2037.13 595.673,2031.99 C595.673,2029.27 596.663,2026.91 598.642,2024.9 C600.621,2022.89 602.987,2021.88 605.739,2021.88 C608.491,2021.88 610.826,2022.87 612.744,2024.85 C614.661,2026.83 615.62,2029.21 615.62,2031.99 C615.62,2033.23 614.599,2034.58 612.558,2036.03 C610.517,2037.48 609.497,2038.83 609.497,2040.06 C609.497,2041.98 610.44,2043.39 612.326,2044.29 C614.213,2045.18 616.485,2045.63 619.145,2045.63 C622.609,2045.63 625.067,2043.91 626.52,2040.48 C627.974,2037.05 628.701,2032.83 628.701,2027.82 L628.701,2025.41 C628.701,2022.07 628.592,2019.53 628.376,2017.8 C628.159,2016.07 627.479,2014.52 626.335,2013.16 C625.191,2011.8 623.443,2011.12 621.093,2011.12 L608.94,2011.12 C607.517,2011.12 606.806,2010.35 606.806,2008.8 C606.806,2007.38 607.517,2006.67 608.94,2006.67 L621.093,2006.67 C623.629,2006.67 625.608,2005.71 627.031,2003.79 C627.525,2003.11 627.928,2002 628.237,2000.45 C628.546,1998.41 628.701,1995.47 628.701,1991.64 L628.701,1990.43 C628.701,1981.22 625.299,1976.61 618.496,1976.61 C612.496,1976.61 609.497,1978.28 609.497,1981.62 C609.497,1982.73 610.409,1983.92 612.233,1985.19 C614.058,1986.46 614.97,1987.65 614.97,1988.76 C614.97,1991.17 614.12,1993.24 612.419,1994.98 C610.718,1996.71 608.646,1997.57 606.203,1997.57 C603.76,1997.57 601.704,1996.71 600.034,1994.98 C598.364,1993.24 597.529,1991.17 597.529,1988.76 C597.529,1984 599.601,1980.19 603.745,1977.35 C607.888,1974.5 612.805,1973.08 618.496,1973.08 C625.979,1973.08 632.133,1974.52 636.957,1977.4 C641.782,1980.27 644.194,1984.62 644.194,1990.43 C644.194,1994.57 643.761,1997.79 642.895,2000.08 C642.029,2002.37 641.039,2003.76 639.926,2004.25 C638.813,2004.75 637.823,2005.32 636.957,2005.97 C636.092,2006.62 635.659,2007.56 635.659,2008.8"/>
<path class="FiguredBass" d="M1359.89,1793.87 C1364.84,1788.49 1367.31,1783.29 1367.31,1778.28 C1367.31,1774.2 1365.57,1770.98 1362.07,1768.63 C1358.58,1766.28 1354.39,1765.11 1349.5,1765.11 C1346.04,1765.11 1343.27,1766.19 1341.2,1768.35 C1339.13,1770.52 1338.09,1773.02 1338.09,1775.87 C1338.09,1779.33 1339.61,1781.96 1342.64,1783.75 L1359.89,1793.87 M1364.44,1796.46 C1372.85,1801.35 1377.06,1807.78 1377.06,1815.76 C1377.06,1821.76 1374.49,1826.91 1369.36,1831.21 C1364.22,1835.51 1357.2,1837.66 1348.3,1837.66 C1340.81,1837.66 1334.3,1835.68 1328.77,1831.72 C1323.23,1827.76 1320.46,1822.63 1320.46,1816.32 C1320.46,1813.97 1321.14,1811.59 1322.51,1809.17 C1323.87,1806.76 1325.13,1804.95 1326.31,1803.75 C1327.48,1802.54 1329.4,1800.67 1332.06,1798.13 C1325.88,1793.87 1322.78,1788.49 1322.78,1781.99 C1322.78,1776.43 1325.16,1771.63 1329.93,1767.61 C1334.69,1763.59 1341.21,1761.58 1349.5,1761.58 C1356.12,1761.58 1361.86,1763.08 1366.71,1766.08 C1371.57,1769.08 1373.99,1773.15 1373.99,1778.28 C1373.99,1783.79 1370.81,1789.85 1364.44,1796.46 M1336.61,1800.83 C1330.3,1806.33 1327.14,1811.49 1327.14,1816.32 C1327.14,1821.39 1329.25,1825.63 1333.45,1829.03 C1337.66,1832.43 1342.61,1834.13 1348.3,1834.13 C1352.25,1834.13 1355.42,1832.86 1357.81,1830.33 C1360.19,1827.79 1361.38,1824.85 1361.38,1821.51 C1361.38,1817.25 1359.61,1814.09 1356.09,1812.05 L1336.61,1800.83 "/>
<path class="FiguredBass" d="M1351.54,1870.86 C1346.97,1870.86 1343.92,1872.7 1342.41,1876.38 C1340.89,1880.06 1340.13,1885.27 1340.13,1892.01 L1340.13,1902.96 C1343.35,1901.66 1346.13,1900.98 1348.48,1900.92 C1356.52,1900.92 1362.85,1902.69 1367.45,1906.25 C1372.06,1909.81 1374.37,1915.09 1374.37,1922.11 C1374.37,1929.13 1372.03,1934.44 1367.36,1938.03 C1362.69,1941.61 1356.4,1943.41 1348.48,1943.41 C1340.38,1943.41 1334.04,1939.65 1329.46,1932.13 C1324.89,1924.62 1322.6,1915.7 1322.6,1905.37 C1322.6,1895.1 1325.26,1886.2 1330.58,1878.65 C1335.9,1871.1 1342.88,1867.33 1351.54,1867.33 C1357.23,1867.33 1362.15,1868.77 1366.29,1871.65 C1370.44,1874.52 1372.51,1878.31 1372.51,1883.01 C1372.51,1885.73 1371.52,1888.08 1369.54,1890.06 C1367.56,1892.04 1365.2,1893.03 1362.44,1893.03 C1359.69,1893.03 1357.33,1892.04 1355.35,1890.06 C1353.37,1888.08 1352.38,1885.73 1352.38,1883.01 C1352.38,1880.35 1353.37,1878 1355.35,1875.96 C1356.03,1875.16 1356.99,1874.48 1358.22,1873.92 C1357.91,1873.11 1357.3,1872.5 1356.37,1872.06 C1355.01,1871.26 1353.4,1870.86 1351.54,1870.86 M1356.09,1908.8 C1354.98,1905.89 1352.53,1904.44 1348.76,1904.44 C1344.99,1904.44 1342.65,1905.89 1341.76,1908.8 C1340.86,1911.71 1340.41,1916.13 1340.41,1922.07 C1340.41,1929.06 1340.86,1933.76 1341.76,1936.17 C1342.65,1938.58 1344.99,1939.79 1348.76,1939.79 C1352.53,1939.79 1354.98,1938.33 1356.09,1935.43 C1357.2,1932.52 1357.76,1928.08 1357.76,1922.11 C1357.76,1916.15 1357.2,1911.71 1356.09,1908.8"/>
<path class="FiguredBass" d="M1363.42,2008.8 C1363.42,2009.79 1363.97,2010.75 1365.09,2011.68 C1366.2,2012.6 1367.42,2013.48 1368.75,2014.32 C1370.08,2015.15 1371.3,2016.73 1372.42,2019.05 C1373.53,2021.37 1374.09,2024.29 1374.09,2027.82 C1374.09,2034.62 1371.52,2039.88 1366.39,2043.59 C1361.25,2047.3 1354.76,2049.16 1346.9,2049.16 C1340.6,2049.16 1335.11,2047.58 1330.44,2044.42 C1325.77,2041.27 1323.43,2037.13 1323.43,2031.99 C1323.43,2029.27 1324.42,2026.91 1326.4,2024.9 C1328.38,2022.89 1330.75,2021.88 1333.5,2021.88 C1336.25,2021.88 1338.59,2022.87 1340.5,2024.85 C1342.42,2026.83 1343.38,2029.21 1343.38,2031.99 C1343.38,2033.23 1342.36,2034.58 1340.32,2036.03 C1338.28,2037.48 1337.26,2038.83 1337.26,2040.06 C1337.26,2041.98 1338.2,2043.39 1340.09,2044.29 C1341.97,2045.18 1344.25,2045.63 1346.9,2045.63 C1350.37,2045.63 1352.83,2043.91 1354.28,2040.48 C1355.73,2037.05 1356.46,2032.83 1356.46,2027.82 L1356.46,2025.41 C1356.46,2022.07 1356.35,2019.53 1356.14,2017.8 C1355.92,2016.07 1355.24,2014.52 1354.09,2013.16 C1352.95,2011.8 1351.2,2011.12 1348.85,2011.12 L1336.7,2011.12 C1335.28,2011.12 1334.57,2010.35 1334.57,2008.8 C1334.57,2007.38 1335.28,2006.67 1336.7,2006.67 L1348.85,2006.67 C1351.39,2006.67 1353.37,2005.71 1354.79,2003.79 C1355.29,2003.11 1355.69,2002 1356,2000.45 C1356.31,1998.41 1356.46,1995.47 1356.46,1991.64 L1356.46,1990.43 C1356.46,1981.22 1353.06,1976.61 1346.26,1976.61 C1340.26,1976.61 1337.26,1978.28 1337.26,1981.62 C1337.26,1982.73 1338.17,1983.92 1339.99,1985.19 C1341.82,1986.46 1342.73,1987.65 1342.73,1988.76 C1342.73,1991.17 1341.88,1993.24 1340.18,1994.98 C1338.48,1996.71 1336.41,1997.57 1333.96,1997.57 C1331.52,1997.57 1329.46,1996.71 1327.79,1994.98 C1326.12,1993.24 1325.29,1991.17 1325.29,1988.76 C1325.29,1984 1327.36,1980.19 1331.5,1977.35 C1335.65,1974.5 1340.57,1973.08 1346.26,1973.08 C1353.74,1973.08 1359.89,1974.52 1364.72,1977.4 C1369.54,1980.27 1371.95,1984.62 1371.95,1990.43 C1371.95,1994.57 1371.52,1997.79 1370.65,2000.08 C1369.79,2002.37 1368.8,2003.76 1367.69,2004.25 C1366.57,2004.75 1365.58,2005.32 1364.72,2005.97 C1363.85,2006.62 1363.42,2007.56 1363.42,2008.8"/>
<path class="FiguredBass" d="M2125.59,1797.3 C2125.59,1798.29 2126.15,1799.25 2127.26,1800.18 C2128.38,1801.1 2129.6,1801.98 2130.93,1802.82 C2132.26,1803.65 2133.48,1805.23 2134.59,1807.55 C2135.7,1809.87 2136.26,1812.79 2136.26,1816.32 C2136.26,1823.12 2133.69,1828.38 2128.56,1832.09 C2123.43,1835.8 2116.93,1837.66 2109.08,1837.66 C2102.77,1837.66 2097.28,1836.08 2092.61,1832.92 C2087.94,1829.77 2085.61,1825.63 2085.61,1820.49 C2085.61,1817.77 2086.6,1815.41 2088.58,1813.4 C2090.55,1811.39 2092.92,1810.38 2095.67,1810.38 C2098.43,1810.38 2100.76,1811.37 2102.68,1813.35 C2104.59,1815.33 2105.55,1817.71 2105.55,1820.49 C2105.55,1821.73 2104.53,1823.08 2102.49,1824.53 C2100.45,1825.98 2099.43,1827.33 2099.43,1828.56 C2099.43,1830.48 2100.37,1831.89 2102.26,1832.79 C2104.15,1833.68 2106.42,1834.13 2109.08,1834.13 C2112.54,1834.13 2115,1832.41 2116.45,1828.98 C2117.91,1825.55 2118.63,1821.33 2118.63,1816.32 L2118.63,1813.91 C2118.63,1810.57 2118.53,1808.03 2118.31,1806.3 C2118.09,1804.57 2117.41,1803.02 2116.27,1801.66 C2115.12,1800.3 2113.38,1799.62 2111.03,1799.62 L2098.87,1799.62 C2097.45,1799.62 2096.74,1798.85 2096.74,1797.3 C2096.74,1795.88 2097.45,1795.17 2098.87,1795.17 L2111.03,1795.17 C2113.56,1795.17 2115.54,1794.21 2116.96,1792.29 C2117.46,1791.61 2117.86,1790.5 2118.17,1788.95 C2118.48,1786.91 2118.63,1783.97 2118.63,1780.14 L2118.63,1778.93 C2118.63,1769.72 2115.23,1765.11 2108.43,1765.11 C2102.43,1765.11 2099.43,1766.78 2099.43,1770.12 C2099.43,1771.23 2100.34,1772.42 2102.17,1773.69 C2103.99,1774.96 2104.9,1776.15 2104.9,1777.26 C2104.9,1779.67 2104.05,1781.74 2102.35,1783.48 C2100.65,1785.21 2098.58,1786.07 2096.14,1786.07 C2093.69,1786.07 2091.64,1785.21 2089.97,1783.48 C2088.3,1781.74 2087.46,1779.67 2087.46,1777.26 C2087.46,1772.5 2089.53,1768.69 2093.68,1765.85 C2097.82,1763 2102.74,1761.58 2108.43,1761.58 C2115.91,1761.58 2122.07,1763.02 2126.89,1765.9 C2131.72,1768.77 2134.13,1773.12 2134.13,1778.93 C2134.13,1783.07 2133.69,1786.29 2132.83,1788.58 C2131.96,1790.87 2130.97,1792.26 2129.86,1792.75 C2128.75,1793.25 2127.76,1793.82 2126.89,1794.47 C2126.03,1795.12 2125.59,1796.06 2125.59,1797.3"/>
<path class="FiguredBass" d="M2122.07,1899.62 C2127.01,1894.24 2129.49,1889.04 2129.49,1884.03 C2129.49,1879.95 2127.74,1876.73 2124.25,1874.38 C2120.75,1872.03 2116.56,1870.86 2111.68,1870.86 C2108.21,1870.86 2105.44,1871.94 2103.37,1874.1 C2101.3,1876.27 2100.27,1878.77 2100.27,1881.62 C2100.27,1885.08 2101.78,1887.71 2104.81,1889.5 L2122.07,1899.62 M2126.61,1902.21 C2135.02,1907.1 2139.23,1913.53 2139.23,1921.51 C2139.23,1927.51 2136.66,1932.66 2131.53,1936.96 C2126.4,1941.26 2119.38,1943.41 2110.47,1943.41 C2102.99,1943.41 2096.48,1941.43 2090.94,1937.47 C2085.41,1933.51 2082.64,1928.38 2082.64,1922.07 C2082.64,1919.72 2083.32,1917.34 2084.68,1914.92 C2086.04,1912.51 2087.31,1910.7 2088.48,1909.5 C2089.66,1908.29 2091.58,1906.42 2094.23,1903.88 C2088.05,1899.62 2084.96,1894.24 2084.96,1887.74 C2084.96,1882.18 2087.34,1877.38 2092.1,1873.36 C2096.86,1869.34 2103.39,1867.33 2111.68,1867.33 C2118.29,1867.33 2124.03,1868.83 2128.89,1871.83 C2133.74,1874.83 2136.17,1878.9 2136.17,1884.03 C2136.17,1889.54 2132.98,1895.6 2126.61,1902.21 M2098.78,1906.58 C2092.47,1912.08 2089.32,1917.24 2089.32,1922.07 C2089.32,1927.14 2091.42,1931.38 2095.63,1934.78 C2099.83,1938.18 2104.78,1939.88 2110.47,1939.88 C2114.43,1939.88 2117.6,1938.61 2119.98,1936.08 C2122.36,1933.54 2123.55,1930.6 2123.55,1927.26 C2123.55,1923 2121.79,1919.84 2118.26,1917.8 L2098.78,1906.58 "/>
<path class="FiguredBass" d="M2113.72,1976.61 C2109.14,1976.61 2106.09,1978.45 2104.58,1982.13 C2103.06,1985.81 2102.31,1991.02 2102.31,1997.76 L2102.31,2008.71 C2105.52,2007.41 2108.31,2006.73 2110.66,2006.67 C2118.7,2006.67 2125.02,2008.44 2129.63,2012 C2134.24,2015.56 2136.54,2020.84 2136.54,2027.86 C2136.54,2034.88 2134.2,2040.19 2129.54,2043.78 C2124.87,2047.36 2118.57,2049.16 2110.66,2049.16 C2102.55,2049.16 2096.21,2045.4 2091.64,2037.88 C2087.06,2030.37 2084.77,2021.45 2084.77,2011.12 C2084.77,2000.85 2087.43,1991.95 2092.75,1984.4 C2098.07,1976.85 2105.06,1973.08 2113.72,1973.08 C2119.41,1973.08 2124.32,1974.52 2128.47,1977.4 C2132.61,1980.27 2134.68,1984.06 2134.68,1988.76 C2134.68,1991.48 2133.69,1993.83 2131.72,1995.81 C2129.74,1997.79 2127.37,1998.78 2124.62,1998.78 C2121.87,1998.78 2119.5,1997.79 2117.52,1995.81 C2115.54,1993.83 2114.55,1991.48 2114.55,1988.76 C2114.55,1986.1 2115.54,1983.75 2117.52,1981.71 C2118.2,1980.91 2119.16,1980.23 2120.4,1979.67 C2120.09,1978.86 2119.47,1978.25 2118.54,1977.81 C2117.18,1977.01 2115.57,1976.61 2113.72,1976.61 M2118.26,2014.55 C2117.15,2011.64 2114.71,2010.19 2110.93,2010.19 C2107.16,2010.19 2104.83,2011.64 2103.93,2014.55 C2103.03,2017.46 2102.58,2021.88 2102.58,2027.82 C2102.58,2034.81 2103.03,2039.51 2103.93,2041.92 C2104.83,2044.33 2107.16,2045.54 2110.93,2045.54 C2114.71,2045.54 2117.15,2044.08 2118.26,2041.18 C2119.38,2038.27 2119.93,2033.83 2119.93,2027.86 C2119.93,2021.9 2119.38,2017.46 2118.26,2014.55"/>
<path class="FiguredBass" d="M2842.35,1797.3 C2842.35,1798.29 2842.9,1799.25 2844.02,1800.18 C2845.13,1801.1 2846.35,1801.98 2847.68,1802.82 C2849.01,1803.65 2850.23,1805.23 2851.35,1807.55 C2852.46,1809.87 2853.02,1812.79 2853.02,1816.32 C2853.02,1823.12 2850.45,1828.38 2845.32,1832.09 C2840.18,1835.8 2833.69,1837.66 2825.83,1837.66 C2819.52,1837.66 2814.04,1836.08 2809.37,1832.92 C2804.7,1829.77 2802.36,1825.63 2802.36,1820.49 C2802.36,1817.77 2803.35,1815.41 2805.33,1813.4 C2807.31,1811.39 2809.67,1810.38 2812.43,1810.38 C2815.18,1810.38 2817.51,1811.37 2819.43,1813.35 C2821.35,1815.33 2822.31,1817.71 2822.31,1820.49 C2822.31,1821.73 2821.29,1823.08 2819.25,1824.53 C2817.21,1825.98 2816.18,1827.33 2816.18,1828.56 C2816.18,1830.48 2817.13,1831.89 2819.01,1832.79 C2820.9,1833.68 2823.17,1834.13 2825.83,1834.13 C2829.3,1834.13 2831.76,1832.41 2833.21,1828.98 C2834.66,1825.55 2835.39,1821.33 2835.39,1816.32 L2835.39,1813.91 C2835.39,1810.57 2835.28,1808.03 2835.06,1806.3 C2834.85,1804.57 2834.17,1803.02 2833.02,1801.66 C2831.88,1800.3 2830.13,1799.62 2827.78,1799.62 L2815.63,1799.62 C2814.21,1799.62 2813.49,1798.85 2813.49,1797.3 C2813.49,1795.88 2814.21,1795.17 2815.63,1795.17 L2827.78,1795.17 C2830.32,1795.17 2832.3,1794.21 2833.72,1792.29 C2834.21,1791.61 2834.62,1790.5 2834.92,1788.95 C2835.23,1786.91 2835.39,1783.97 2835.39,1780.14 L2835.39,1778.93 C2835.39,1769.72 2831.99,1765.11 2825.18,1765.11 C2819.18,1765.11 2816.18,1766.78 2816.18,1770.12 C2816.18,1771.23 2817.1,1772.42 2818.92,1773.69 C2820.75,1774.96 2821.66,1776.15 2821.66,1777.26 C2821.66,1779.67 2820.81,1781.74 2819.11,1783.48 C2817.41,1785.21 2815.33,1786.07 2812.89,1786.07 C2810.45,1786.07 2808.39,1785.21 2806.72,1783.48 C2805.05,1781.74 2804.22,1779.67 2804.22,1777.26 C2804.22,1772.5 2806.29,1768.69 2810.43,1765.85 C2814.58,1763 2819.49,1761.58 2825.18,1761.58 C2832.67,1761.58 2838.82,1763.02 2843.65,1765.9 C2848.47,1768.77 2850.88,1773.12 2850.88,1778.93 C2850.88,1783.07 2850.45,1786.29 2849.58,1788.58 C2848.72,1790.87 2847.73,1792.26 2846.61,1792.75 C2845.5,1793.25 2844.51,1793.82 2843.65,1794.47 C2842.78,1795.12 2842.35,1796.06 2842.35,1797.3"/>
<path class="FiguredBass" d="M2838.82,1899.62 C2843.77,1894.24 2846.24,1889.04 2846.24,1884.03 C2846.24,1879.95 2844.5,1876.73 2841,1874.38 C2837.51,1872.03 2833.32,1870.86 2828.43,1870.86 C2824.97,1870.86 2822.2,1871.94 2820.13,1874.1 C2818.06,1876.27 2817.02,1878.77 2817.02,1881.62 C2817.02,1885.08 2818.53,1887.71 2821.57,1889.5 L2838.82,1899.62 M2843.37,1902.21 C2851.78,1907.1 2855.98,1913.53 2855.98,1921.51 C2855.98,1927.51 2853.42,1932.66 2848.28,1936.96 C2843.15,1941.26 2836.13,1943.41 2827.22,1943.41 C2819.74,1943.41 2813.23,1941.43 2807.7,1937.47 C2802.16,1933.51 2799.39,1928.38 2799.39,1922.07 C2799.39,1919.72 2800.07,1917.34 2801.43,1914.92 C2802.79,1912.51 2804.06,1910.7 2805.24,1909.5 C2806.41,1908.29 2808.33,1906.42 2810.99,1903.88 C2804.8,1899.62 2801.71,1894.24 2801.71,1887.74 C2801.71,1882.18 2804.09,1877.38 2808.86,1873.36 C2813.62,1869.34 2820.14,1867.33 2828.43,1867.33 C2835.05,1867.33 2840.79,1868.83 2845.64,1871.83 C2850.5,1874.83 2852.92,1878.9 2852.92,1884.03 C2852.92,1889.54 2849.74,1895.6 2843.37,1902.21 M2815.54,1906.58 C2809.23,1912.08 2806.07,1917.24 2806.07,1922.07 C2806.07,1927.14 2808.18,1931.38 2812.38,1934.78 C2816.59,1938.18 2821.53,1939.88 2827.22,1939.88 C2831.18,1939.88 2834.35,1938.61 2836.73,1936.08 C2839.12,1933.54 2840.31,1930.6 2840.31,1927.26 C2840.31,1923 2838.54,1919.84 2835.02,1917.8 L2815.54,1906.58 "/>
<path class="FiguredBass" d="M2830.47,1976.61 C2825.89,1976.61 2822.85,1978.45 2821.33,1982.13 C2819.82,1985.81 2819.06,1991.02 2819.06,1997.76 L2819.06,2008.71 C2822.28,2007.41 2825.06,2006.73 2827.41,2006.67 C2835.45,2006.67 2841.77,2008.44 2846.38,2012 C2850.99,2015.56 2853.29,2020.84 2853.29,2027.86 C2853.29,2034.88 2850.96,2040.19 2846.29,2043.78 C2841.62,2047.36 2835.33,2049.16 2827.41,2049.16 C2819.31,2049.16 2812.97,2045.4 2808.39,2037.88 C2803.81,2030.37 2801.53,2021.45 2801.53,2011.12 C2801.53,2000.85 2804.19,1991.95 2809.5,1984.4 C2814.82,1976.85 2821.81,1973.08 2830.47,1973.08 C2836.16,1973.08 2841.08,1974.52 2845.22,1977.4 C2849.37,1980.27 2851.44,1984.06 2851.44,1988.76 C2851.44,1991.48 2850.45,1993.83 2848.47,1995.81 C2846.49,1997.79 2844.12,1998.78 2841.37,1998.78 C2838.62,1998.78 2836.25,1997.79 2834.28,1995.81 C2832.3,1993.83 2831.31,1991.48 2831.31,1988.76 C2831.31,1986.1 2832.3,1983.75 2834.28,1981.71 C2834.96,1980.91 2835.91,1980.23 2837.15,1979.67 C2836.84,1978.86 2836.22,1978.25 2835.3,1977.81 C2833.94,1977.01 2832.33,1976.61 2830.47,1976.61 M2835.02,2014.55 C2833.9,2011.64 2831.46,2010.19 2827.69,2010.19 C2823.92,2010.19 2821.58,2011.64 2820.68,2014.55 C2819.79,2017.46 2819.34,2021.88 2819.34,2027.82 C2819.34,2034.81 2819.79,2039.51 2820.68,2041.92 C2821.58,2044.33 2823.92,2045.54 2827.69,2045.54 C2831.46,2045.54 2833.9,2044.08 2835.02,2041.18 C2836.13,2038.27 2836.69,2033.83 2836.69,2027.86 C2836.69,2021.9 2836.13,2017.46 2835.02,2014.55"/>
<path class="FiguredBass" d="M3568.87,1797.3 C3568.87,1798.29 3569.42,1799.25 3570.54,1800.18 C3571.65,1801.1 3572.87,1801.98 3574.2,1802.82 C3575.53,1803.65 3576.75,1805.23 3577.87,1807.55 C3578.98,1809.87 3579.54,1812.79 3579.54,1816.32 C3579.54,1823.12 3576.97,1828.38 3571.84,1832.09 C3566.7,1835.8 3560.21,1837.66 3552.35,1837.66 C3546.05,1837.66 3540.56,1836.08 3535.89,1832.92 C3531.22,1829.77 3528.88,1825.63 3528.88,1820.49 C3528.88,1817.77 3529.87,1815.41 3531.85,1813.4 C3533.83,1811.39 3536.2,1810.38 3538.95,1810.38 C3541.7,1810.38 3544.04,1811.37 3545.95,1813.35 C3547.87,1815.33 3548.83,1817.71 3548.83,1820.49 C3548.83,1821.73 3547.81,1823.08 3545.77,1824.53 C3543.73,1825.98 3542.71,1827.33 3542.71,1828.56 C3542.71,1830.48 3543.65,1831.89 3545.53,1832.79 C3547.42,1833.68 3549.69,1834.13 3552.35,1834.13 C3555.82,1834.13 3558.28,1832.41 3559.73,1828.98 C3561.18,1825.55 3561.91,1821.33 3561.91,1816.32 L3561.91,1813.91 C3561.91,1810.57 3561.8,1808.03 3561.58,1806.3 C3561.37,1804.57 3560.69,1803.02 3559.54,1801.66 C3558.4,1800.3 3556.65,1799.62 3554.3,1799.62 L3542.15,1799.62 C3540.73,1799.62 3540.01,1798.85 3540.01,1797.3 C3540.01,1795.88 3540.73,1795.17 3542.15,1795.17 L3554.3,1795.17 C3556.84,1795.17 3558.82,1794.21 3560.24,1792.29 C3560.73,1791.61 3561.14,1790.5 3561.45,1788.95 C3561.75,1786.91 3561.91,1783.97 3561.91,1780.14 L3561.91,1778.93 C3561.91,1769.72 3558.51,1765.11 3551.7,1765.11 C3545.7,1765.11 3542.71,1766.78 3542.71,1770.12 C3542.71,1771.23 3543.62,1772.42 3545.44,1773.69 C3547.27,1774.96 3548.18,1776.15 3548.18,1777.26 C3548.18,1779.67 3547.33,1781.74 3545.63,1783.48 C3543.93,1785.21 3541.85,1786.07 3539.41,1786.07 C3536.97,1786.07 3534.91,1785.21 3533.24,1783.48 C3531.57,1781.74 3530.74,1779.67 3530.74,1777.26 C3530.74,1772.5 3532.81,1768.69 3536.95,1765.85 C3541.1,1763 3546.01,1761.58 3551.7,1761.58 C3559.19,1761.58 3565.34,1763.02 3570.17,1765.9 C3574.99,1768.77 3577.4,1773.12 3577.4,1778.93 C3577.4,1783.07 3576.97,1786.29 3576.1,1788.58 C3575.24,1790.87 3574.25,1792.26 3573.13,1792.75 C3572.02,1793.25 3571.03,1793.82 3570.17,1794.47 C3569.3,1795.12 3568.87,1796.06 3568.87,1797.3"/>
<path class="FiguredBass" d="M3565.34,1899.62 C3570.29,1894.24 3572.76,1889.04 3572.76,1884.03 C3572.76,1879.95 3571.02,1876.73 3567.52,1874.38 C3564.03,1872.03 3559.84,1870.86 3554.95,1870.86 C3551.49,1870.86 3548.72,1871.94 3546.65,1874.1 C3544.58,1876.27 3543.54,1878.77 3543.54,1881.62 C3543.54,1885.08 3545.06,1887.71 3548.09,1889.5 L3565.34,1899.62 M3569.89,1902.21 C3578.3,1907.1 3582.51,1913.53 3582.51,1921.51 C3582.51,1927.51 3579.94,1932.66 3574.8,1936.96 C3569.67,1941.26 3562.65,1943.41 3553.75,1943.41 C3546.26,1943.41 3539.75,1941.43 3534.22,1937.47 C3528.68,1933.51 3525.91,1928.38 3525.91,1922.07 C3525.91,1919.72 3526.59,1917.34 3527.95,1914.92 C3529.31,1912.51 3530.58,1910.7 3531.76,1909.5 C3532.93,1908.29 3534.85,1906.42 3537.51,1903.88 C3531.33,1899.62 3528.23,1894.24 3528.23,1887.74 C3528.23,1882.18 3530.61,1877.38 3535.38,1873.36 C3540.14,1869.34 3546.66,1867.33 3554.95,1867.33 C3561.57,1867.33 3567.31,1868.83 3572.16,1871.83 C3577.02,1874.83 3579.44,1878.9 3579.44,1884.03 C3579.44,1889.54 3576.26,1895.6 3569.89,1902.21 M3542.06,1906.58 C3535.75,1912.08 3532.59,1917.24 3532.59,1922.07 C3532.59,1927.14 3534.7,1931.38 3538.9,1934.78 C3543.11,1938.18 3548.06,1939.88 3553.75,1939.88 C3557.7,1939.88 3560.87,1938.61 3563.25,1936.08 C3565.64,1933.54 3566.83,1930.6 3566.83,1927.26 C3566.83,1923 3565.06,1919.84 3561.54,1917.8 L3542.06,1906.58 "/>
<path class="FiguredBass" d="M3556.99,1976.61 C3552.42,1976.61 3549.37,1978.45 3547.85,1982.13 C3546.34,1985.81 3545.58,1991.02 3545.58,1997.76 L3545.58,2008.71 C3548.8,2007.41 3551.58,2006.73 3553.93,2006.67 C3561.97,2006.67 3568.3,2008.44 3572.9,2012 C3577.51,2015.56 3579.81,2020.84 3579.81,2027.86 C3579.81,2034.88 3577.48,2040.19 3572.81,2043.78 C3568.14,2047.36 3561.85,2049.16 3553.93,2049.16 C3545.83,2049.16 3539.49,2045.4 3534.91,2037.88 C3530.34,2030.37 3528.05,2021.45 3528.05,2011.12 C3528.05,2000.85 3530.71,1991.95 3536.03,1984.4 C3541.34,1976.85 3548.33,1973.08 3556.99,1973.08 C3562.68,1973.08 3567.6,1974.52 3571.74,1977.4 C3575.89,1980.27 3577.96,1984.06 3577.96,1988.76 C3577.96,1991.48 3576.97,1993.83 3574.99,1995.81 C3573.01,1997.79 3570.65,1998.78 3567.89,1998.78 C3565.14,1998.78 3562.78,1997.79 3560.8,1995.81 C3558.82,1993.83 3557.83,1991.48 3557.83,1988.76 C3557.83,1986.1 3558.82,1983.75 3560.8,1981.71 C3561.48,1980.91 3562.44,1980.23 3563.67,1979.67 C3563.36,1978.86 3562.74,1978.25 3561.82,1977.81 C3560.46,1977.01 3558.85,1976.61 3556.99,1976.61 M3561.54,2014.55 C3560.43,2011.64 3557.98,2010.19 3554.21,2010.19 C3550.44,2010.19 3548.1,2011.64 3547.2,2014.55 C3546.31,2017.46 3545.86,2021.88 3545.86,2027.82 C3545.86,2034.81 3546.31,2039.51 3547.2,2041.92 C3548.1,2044.33 3550.44,2045.54 3554.21,2045.54 C3557.98,2045.54 3560.43,2044.08 3561.54,2041.18 C3562.65,2038.27 3563.21,2033.83 3563.21,2027.86 C3563.21,2021.9 3562.65,2017.46 3561.54,2014.55"/>
<path class="Bracket" transform="matrix(8.6315,0,0,9.45563,76.1283,2337.37)" d="M0.92002,-50 C2.69004,-51.88 6.2,-55.8 6.2,-63 C6.2,-72.1 2.25996,-81.32 2.25996,-86.97 C2.25996,-93.06 5.84004,-98.84 5.95,-99 C6.05996,-99.16 6.05,-99.39 5.94004,-99.46 C5.82998,-99.53 5.62002,-99.47 5.49004,-99.32 C5.35996,-99.17 0,-93.75 0,-85.6 C0,-76.75 3.5,-70.58 3.5,-59.07 C3.5,-56.89 2.55996,-53.36 0.1,-50.33 C-0.0799805,-50.17 -0.1,-49.89 0.0599609,-49.7 L0.0700195,-49.69 L0.1,-49.66 C2.55996,-46.63 3.5,-43.1 3.5,-40.92 C3.5,-29.4 0,-23.24 0,-14.39 C0,-6.25 5.35996,-0.8 5.49004,-0.659961 C5.62002,-0.52002 5.8,-0.42998 5.94004,-0.52002 C6.07998,-0.609961 6.07998,-0.77998 5.95,-0.97998 C5.82002,-1.17998 2.25996,-6.92002 2.25996,-13.01 C2.25996,-18.66 6.2,-27.9 6.2,-37 C6.2,-44.3 2.69004,-48.12 0.92002,-50"/>
</svg>
