<?xml version="1.0" encoding="UTF-8" standalone="no"?>
<svg width="4209.44px" height="850.392px" viewBox="0 0 4209.44 850.392"
 xmlns="http://www.w3.org/2000/svg" xmlns:xlink="http://www.w3.org/1999/xlink" version="1.2" baseProfile="tiny">
<title>Exemples (11)</title>
<desc>Generated by MuseScore 3.6.2</desc>
<polyline class="StaffLines" fill="none" stroke="#000000" stroke-width="4.68" stroke-linejoin="bevel" points="70.866,325.984 4138.58,325.984"/>
<polyline class="StaffLines" fill="none" stroke="#000000" stroke-width="4.68" stroke-linejoin="bevel" points="70.866,368.504 4138.58,368.504"/>
<polyline class="StaffLines" fill="none" stroke="#000000" stroke-width="4.68" stroke-linejoin="bevel" points="70.866,411.024 4138.58,411.024"/>
<polyline class="StaffLines" fill="none" stroke="#000000" stroke-width="4.68" stroke-linejoin="bevel" points="70.866,453.543 4138.58,453.543"/>
<polyline class="StaffLines" fill="none" stroke="#000000" stroke-width="4.68" stroke-linejoin="bevel" points="70.866,496.063 4138.58,496.063"/>
<polyline class="BarLine" fill="none" stroke="#000000" stroke-width="7.65" stroke-linejoin="bevel" points="724.531,323.646 724.531,498.402"/>
<polyline class="BarLine" fill="none" stroke="#000000" stroke-width="7.65" stroke-linejoin="bevel" points="1206.51,323.646 1206.51,498.402"/>
<polyline class="BarLine" fill="none" stroke="#000000" stroke-width="7.65" stroke-linejoin="bevel" points="1703.96,323.646 1703.96,498.402"/>
<polyline class="BarLine" fill="none" stroke="#000000" stroke-width="7.65" stroke-linejoin="bevel" points="2185.94,323.646 2185.94,498.402"/>
<polyline class="BarLine" fill="none" stroke="#000000" stroke-width="7.65" stroke-linejoin="bevel" points="2667.92,323.646 2667.92,498.402"/>
<polyline class="BarLine" fill="none" stroke="#000000" stroke-width="7.65" stroke-linejoin="bevel" points="3149.9,323.646 3149.9,498.402"/>
<polyline class="BarLine" fill="none" stroke="#000000" stroke-width="7.65" stroke-linejoin="bevel" points="3632.7,323.646 3632.7,498.402"/>
<polyline class="BarLine" fill="none" stroke="#000000" stroke-width="7.65" stroke-linejoin="bevel" points="4097.12,323.646 4097.12,498.402"/>
<polyline class="BarLine" fill="none" stroke="#000000" stroke-width="23.39" stroke-linejoin="bevel" points="4126.89,323.646 4126.89,498.402"/>
<path class="Accidental" transform="matrix(1.70079,0,0,1.70079,1251.42,347.244)" d="M23.3,-10.6 C23.9,-10.7 24.4,-11.4 24.4,-12 L24.4,-17.9 C24.4,-18.7 23.8,-19.3 23,-19.3 L22.8,-19.3 L19.5,-18.6 L19.5,-33.5 L16.7,-33.5 L16.7,-18 L7.8,-16.2 L7.8,-30.3 L5,-30.3 L5,-15.6 L1.1,-14.8 C0.5,-14.7 0,-14 0,-13.4 L0,-13.2 L0,-7.4 L0,-7.6 C0,-6.8 0.6,-6.2 1.4,-6.2 L1.7,-6.2 L5,-6.9 L5,9.6 L1.1,10.4 C0.5,10.5 0,11.2 0,11.8 L0,17.6 C0,18.4 0.6,19 1.4,19 L1.7,19 L5,18.3 L5,33.2 L7.8,33.2 L7.8,17.7 L16.7,15.9 L16.7,30 L19.5,30 L19.5,15.3 L23.3,14.6 C23.9,14.5 24.4,13.8 24.4,13.2 L24.4,7.3 C24.4,6.5 23.8,5.9 23,5.9 L22.8,5.9 L19.5,6.6 L19.5,-9.9 L23.3,-10.6 M7.8,9.1 L7.8,-7.5 L16.7,-9.3 L16.7,7.2 L7.8,9.1 "/>
<polyline class="LedgerLine" fill="none" stroke="#000000" stroke-width="6.80" stroke-linejoin="bevel" points="3209,538.583 3302.2,538.583"/>
<path class="Note" transform="matrix(1.70079,0,0,1.70079,324.111,325.984)" d="M18.7,-13.6 C4.9,-13.6 0,-6.6 0,-0.1 C0,6.4 4.9,13.4 18.7,13.4 C32.5,13.4 37.3,6.4 37.3,-0.1 C37.3,-6.6 32.5,-13.6 18.7,-13.6 M10.4,-4.5 C10.3,-4.9 10.3,-5.3 10.3,-5.7 C10.3,-6.5 10.5,-7.3 10.9,-8 C11.6,-9 12.8,-9.7 14.3,-10 C15.6,-10.3 16.3,-10.5 18.9,-10.5 L19,-10.5 C23,-10.5 24.3,-6.8 25.4,-3 L25.7,-2 C26.5,0.6 26.9,2.8 26.9,4.5 C26.9,5.7 26.7,6.8 26.3,7.6 C25.7,8.7 24.7,9.4 23,9.8 C22.1,10 20.6,10.1 20.6,10.1 C20.1,10.1 19.7,10.2 19.3,10.2 C16.1,10.2 14.1,9 12.7,4.7 C11.5,1 11.3,-0.1 10.4,-4.5"/>
<path class="Note" transform="matrix(1.70079,0,0,1.70079,787.72,325.984)" d="M18.7,-13.6 C4.9,-13.6 0,-6.6 0,-0.1 C0,6.4 4.9,13.4 18.7,13.4 C32.5,13.4 37.3,6.4 37.3,-0.1 C37.3,-6.6 32.5,-13.6 18.7,-13.6 M10.4,-4.5 C10.3,-4.9 10.3,-5.3 10.3,-5.7 C10.3,-6.5 10.5,-7.3 10.9,-8 C11.6,-9 12.8,-9.7 14.3,-10 C15.6,-10.3 16.3,-10.5 18.9,-10.5 L19,-10.5 C23,-10.5 24.3,-6.8 25.4,-3 L25.7,-2 C26.5,0.6 26.9,2.8 26.9,4.5 C26.9,5.7 26.7,6.8 26.3,7.6 C25.7,8.7 24.7,9.4 23,9.8 C22.1,10 20.6,10.1 20.6,10.1 C20.1,10.1 19.7,10.2 19.3,10.2 C16.1,10.2 14.1,9 12.7,4.7 C11.5,1 11.3,-0.1 10.4,-4.5"/>
<path class="Note" transform="matrix(1.70079,0,0,1.70079,1303.54,347.244)" d="M18.7,-13.6 C4.9,-13.6 0,-6.6 0,-0.1 C0,6.4 4.9,13.4 18.7,13.4 C32.5,13.4 37.3,6.4 37.3,-0.1 C37.3,-6.6 32.5,-13.6 18.7,-13.6 M10.4,-4.5 C10.3,-4.9 10.3,-5.3 10.3,-5.7 C10.3,-6.5 10.5,-7.3 10.9,-8 C11.6,-9 12.8,-9.7 14.3,-10 C15.6,-10.3 16.3,-10.5 18.9,-10.5 L19,-10.5 C23,-10.5 24.3,-6.8 25.4,-3 L25.7,-2 C26.5,0.6 26.9,2.8 26.9,4.5 C26.9,5.7 26.7,6.8 26.3,7.6 C25.7,8.7 24.7,9.4 23,9.8 C22.1,10 20.6,10.1 20.6,10.1 C20.1,10.1 19.7,10.2 19.3,10.2 C16.1,10.2 14.1,9 12.7,4.7 C11.5,1 11.3,-0.1 10.4,-4.5"/>
<path class="Note" transform="matrix(1.70079,0,0,1.70079,1767.15,325.984)" d="M18.7,-13.6 C4.9,-13.6 0,-6.6 0,-0.1 C0,6.4 4.9,13.4 18.7,13.4 C32.5,13.4 37.3,6.4 37.3,-0.1 C37.3,-6.6 32.5,-13.6 18.7,-13.6 M10.4,-4.5 C10.3,-4.9 10.3,-5.3 10.3,-5.7 C10.3,-6.5 10.5,-7.3 10.9,-8 C11.6,-9 12.8,-9.7 14.3,-10 C15.6,-10.3 16.3,-10.5 18.9,-10.5 L19,-10.5 C23,-10.5 24.3,-6.8 25.4,-3 L25.7,-2 C26.5,0.6 26.9,2.8 26.9,4.5 C26.9,5.7 26.7,6.8 26.3,7.6 C25.7,8.7 24.7,9.4 23,9.8 C22.1,10 20.6,10.1 20.6,10.1 C20.1,10.1 19.7,10.2 19.3,10.2 C16.1,10.2 14.1,9 12.7,4.7 C11.5,1 11.3,-0.1 10.4,-4.5"/>
<path class="Note" transform="matrix(1.70079,0,0,1.70079,2249.13,411.024)" d="M18.7,-13.6 C4.9,-13.6 0,-6.6 0,-0.1 C0,6.4 4.9,13.4 18.7,13.4 C32.5,13.4 37.3,6.4 37.3,-0.1 C37.3,-6.6 32.5,-13.6 18.7,-13.6 M10.4,-4.5 C10.3,-4.9 10.3,-5.3 10.3,-5.7 C10.3,-6.5 10.5,-7.3 10.9,-8 C11.6,-9 12.8,-9.7 14.3,-10 C15.6,-10.3 16.3,-10.5 18.9,-10.5 L19,-10.5 C23,-10.5 24.3,-6.8 25.4,-3 L25.7,-2 C26.5,0.6 26.9,2.8 26.9,4.5 C26.9,5.7 26.7,6.8 26.3,7.6 C25.7,8.7 24.7,9.4 23,9.8 C22.1,10 20.6,10.1 20.6,10.1 C20.1,10.1 19.7,10.2 19.3,10.2 C16.1,10.2 14.1,9 12.7,4.7 C11.5,1 11.3,-0.1 10.4,-4.5"/>
<path class="Note" transform="matrix(1.70079,0,0,1.70079,2731.11,389.764)" d="M18.7,-13.6 C4.9,-13.6 0,-6.6 0,-0.1 C0,6.4 4.9,13.4 18.7,13.4 C32.5,13.4 37.3,6.4 37.3,-0.1 C37.3,-6.6 32.5,-13.6 18.7,-13.6 M10.4,-4.5 C10.3,-4.9 10.3,-5.3 10.3,-5.7 C10.3,-6.5 10.5,-7.3 10.9,-8 C11.6,-9 12.8,-9.7 14.3,-10 C15.6,-10.3 16.3,-10.5 18.9,-10.5 L19,-10.5 C23,-10.5 24.3,-6.8 25.4,-3 L25.7,-2 C26.5,0.6 26.9,2.8 26.9,4.5 C26.9,5.7 26.7,6.8 26.3,7.6 C25.7,8.7 24.7,9.4 23,9.8 C22.1,10 20.6,10.1 20.6,10.1 C20.1,10.1 19.7,10.2 19.3,10.2 C16.1,10.2 14.1,9 12.7,4.7 C11.5,1 11.3,-0.1 10.4,-4.5"/>
<path class="Note" transform="matrix(1.70079,0,0,1.70079,3223.88,538.583)" d="M18.7,-13.6 C4.9,-13.6 0,-6.6 0,-0.1 C0,6.4 4.9,13.4 18.7,13.4 C32.5,13.4 37.3,6.4 37.3,-0.1 C37.3,-6.6 32.5,-13.6 18.7,-13.6 M10.4,-4.5 C10.3,-4.9 10.3,-5.3 10.3,-5.7 C10.3,-6.5 10.5,-7.3 10.9,-8 C11.6,-9 12.8,-9.7 14.3,-10 C15.6,-10.3 16.3,-10.5 18.9,-10.5 L19,-10.5 C23,-10.5 24.3,-6.8 25.4,-3 L25.7,-2 C26.5,0.6 26.9,2.8 26.9,4.5 C26.9,5.7 26.7,6.8 26.3,7.6 C25.7,8.7 24.7,9.4 23,9.8 C22.1,10 20.6,10.1 20.6,10.1 C20.1,10.1 19.7,10.2 19.3,10.2 C16.1,10.2 14.1,9 12.7,4.7 C11.5,1 11.3,-0.1 10.4,-4.5"/>
<path class="Note" transform="matrix(1.70079,0,0,1.70079,3691.8,474.803)" d="M18.7,-13.6 C4.9,-13.6 0,-6.6 0,-0.1 C0,6.4 4.9,13.4 18.7,13.4 C32.5,13.4 37.3,6.4 37.3,-0.1 C37.3,-6.6 32.5,-13.6 18.7,-13.6 M10.4,-4.5 C10.3,-4.9 10.3,-5.3 10.3,-5.7 C10.3,-6.5 10.5,-7.3 10.9,-8 C11.6,-9 12.8,-9.7 14.3,-10 C15.6,-10.3 16.3,-10.5 18.9,-10.5 L19,-10.5 C23,-10.5 24.3,-6.8 25.4,-3 L25.7,-2 C26.5,0.6 26.9,2.8 26.9,4.5 C26.9,5.7 26.7,6.8 26.3,7.6 C25.7,8.7 24.7,9.4 23,9.8 C22.1,10 20.6,10.1 20.6,10.1 C20.1,10.1 19.7,10.2 19.3,10.2 C16.1,10.2 14.1,9 12.7,4.7 C11.5,1 11.3,-0.1 10.4,-4.5"/>
<path class="Clef" transform="matrix(1.70079,0,0,1.70079,104.882,368.504)" d="M25.4,-25.1 C17.8,-25.1 11.7,-20.7 11.6,-20.7 C5.8,-16.4 3.5,-11.3 2.6,-7.8 C2.1,-6 1.9,-4.2 1.9,-2.5 C1.9,-0.1 2.3,2.1 3.2,4 C4.4,6.7 6.7,8.6 9.7,9.6 C10.9,10 12.2,10.2 13.5,10.2 C15.7,10.2 18,9.6 19.9,8.5 C23,6.8 24.9,3.2 24.9,-0.7 C24.9,-4.2 23.1,-7.4 20.1,-9.3 C18,-10.7 16,-11.1 14.3,-11.1 C13.1,-11.1 12,-10.9 11.1,-10.6 C10.1,-10.2 8.4,-9.2 7.6,-8.5 C7.9,-10.4 9.1,-13.3 10.2,-14.9 C11.3,-16.5 13.5,-18.5 15.2,-19.4 C17.7,-20.8 20.9,-21.4 24.4,-21.4 C34.6,-21.4 39.6,-13.2 39.6,3.6 C39.6,12.9 36.1,21.8 33.1,27.7 C29.8,34.3 25.4,40.6 21.5,44.1 C11.1,53.6 1.3,58.1 1.2,58.1 C1.2,58.1 -0.3,59 0.1,60.5 C0.4,61.5 1.3,61.7 1.9,61.7 C2,61.7 2.3,61.6 2.4,61.6 C2.5,61.6 13.9,56.9 23,49.8 C28.1,46.1 32.7,42.1 36.7,37.8 C40.3,33.9 43.4,29.7 45.9,25.5 C50.3,18 52.8,10.2 52.8,3.5 C52.8,-4.8 50.6,-11.7 46.5,-16.6 C41.8,-22.2 34.7,-25.1 25.4,-25.1 M56.8,-12.4 C56.8,-9.6 59,-7.4 61.6,-7.4 C64.2,-7.4 66.4,-9.6 66.4,-12.4 C66.4,-15.2 64.2,-17.5 61.6,-17.5 C59,-17.5 56.8,-15.2 56.8,-12.4 M56.8,12.3 C56.8,15.1 59,17.4 61.6,17.4 C64.2,17.4 66.4,15.1 66.4,12.3 C66.4,9.5 64.2,7.2 61.6,7.2 C59,7.2 56.8,9.5 56.8,12.3"/>
<path class="FiguredBass" d="M824.417,644.587 C820.123,644.587 817.002,643.391 815.054,641.001 C814.346,640.115 813.438,639.296 812.331,638.544 C811.224,637.791 810.007,637.415 808.679,637.415 C806.952,637.415 805.403,637.957 804.03,639.042 C802.658,640.126 801.972,641.576 801.972,643.391 C801.972,644.188 801.573,644.587 800.777,644.587 C799.891,644.587 799.448,644.188 799.448,643.391 C799.448,640.691 800.079,638.223 801.341,635.987 C802.603,633.751 804.185,631.87 806.089,630.343 C807.993,628.815 810.051,627.177 812.265,625.429 C814.478,623.68 816.526,621.986 818.407,620.348 C820.289,618.71 821.86,616.641 823.122,614.139 C824.384,611.638 825.015,608.904 825.015,605.938 C825.015,602.22 824.406,599.076 823.189,596.509 C821.971,593.941 820.056,592.657 817.444,592.657 C815.939,592.657 814.633,593.022 813.527,593.753 C812.42,594.483 811.866,595.446 811.866,596.641 C811.866,597.571 812.497,598.789 813.759,600.294 C815.021,601.799 815.652,603.061 815.652,604.079 C815.652,606.204 814.932,607.986 813.493,609.425 C812.055,610.863 810.317,611.583 808.28,611.583 C806.155,611.583 804.374,610.841 802.935,609.358 C801.496,607.875 800.777,606.115 800.777,604.079 C800.777,600.006 802.403,596.664 805.657,594.052 C808.911,591.44 812.84,590.134 817.444,590.134 C822.89,590.134 827.638,591.606 831.689,594.55 C835.739,597.494 837.765,601.29 837.765,605.938 C837.765,609.082 837.2,611.804 836.071,614.106 C834.943,616.408 833.327,618.268 831.224,619.684 C829.121,621.101 827.018,622.307 824.915,623.304 C822.812,624.3 820.344,625.373 817.511,626.524 C814.678,627.675 812.398,628.804 810.671,629.911 C811.601,629.69 812.553,629.579 813.527,629.579 C816.803,629.579 820.211,630.641 823.753,632.766 C827.295,634.891 830.084,635.954 832.12,635.954 C833.271,635.954 834.212,635.744 834.943,635.323 C835.673,634.903 836.149,634.438 836.37,633.929 C836.592,633.419 836.846,632.944 837.134,632.501 C837.422,632.058 837.743,631.837 838.097,631.837 C838.982,631.837 839.425,632.279 839.425,633.165 C839.425,635.069 838.053,637.448 835.308,640.304 C832.563,643.159 828.933,644.587 824.417,644.587"/>
<path class="FiguredBass" d="M1337.25,592.657 C1333.97,592.657 1331.79,593.974 1330.71,596.608 C1329.63,599.242 1329.08,602.972 1329.08,607.798 L1329.08,615.634 C1331.38,614.704 1333.38,614.217 1335.06,614.173 C1340.81,614.173 1345.34,615.445 1348.64,617.991 C1351.94,620.537 1353.59,624.322 1353.59,629.347 C1353.59,634.371 1351.92,638.167 1348.57,640.735 C1345.23,643.303 1340.73,644.587 1335.06,644.587 C1329.26,644.587 1324.72,641.897 1321.45,636.518 C1318.17,631.139 1316.53,624.753 1316.53,617.36 C1316.53,610.011 1318.44,603.636 1322.24,598.235 C1326.05,592.834 1331.05,590.134 1337.25,590.134 C1341.32,590.134 1344.84,591.163 1347.81,593.222 C1350.78,595.28 1352.26,597.992 1352.26,601.356 C1352.26,603.304 1351.55,604.986 1350.13,606.403 C1348.72,607.82 1347.02,608.528 1345.05,608.528 C1343.08,608.528 1341.39,607.82 1339.97,606.403 C1338.56,604.986 1337.85,603.304 1337.85,601.356 C1337.85,599.453 1338.56,597.77 1339.97,596.309 C1340.46,595.734 1341.15,595.247 1342.03,594.848 C1341.81,594.273 1341.37,593.83 1340.7,593.52 C1339.73,592.945 1338.58,592.657 1337.25,592.657 M1340.5,619.817 C1339.71,617.736 1337.96,616.696 1335.26,616.696 C1332.56,616.696 1330.89,617.736 1330.24,619.817 C1329.6,621.898 1329.28,625.063 1329.28,629.313 C1329.28,634.316 1329.6,637.681 1330.24,639.407 C1330.89,641.134 1332.56,641.997 1335.26,641.997 C1337.96,641.997 1339.71,640.957 1340.5,638.876 C1341.3,636.795 1341.7,633.619 1341.7,629.347 C1341.7,625.074 1341.3,621.898 1340.5,619.817"/>
<path class="FiguredBass" d="M1321.05,665.837 L1324.24,666.302 C1325.08,666.434 1326.12,666.567 1327.36,666.7 C1330.41,667.054 1333.35,667.231 1336.19,667.231 C1339.02,667.231 1342.01,667.054 1345.15,666.7 C1346.39,666.567 1347.48,666.434 1348.41,666.302 L1351.66,665.837 C1352.32,665.837 1352.83,666.058 1353.19,666.501 C1353.45,666.855 1353.41,667.209 1353.06,667.563 C1346.15,674.337 1336.61,677.723 1324.43,677.723 C1323.95,677.723 1323.52,677.901 1323.14,678.255 C1322.76,678.609 1322.57,679.052 1322.57,679.583 L1322.57,688.016 C1325.72,684.917 1329.53,683.368 1334,683.368 C1340.24,683.368 1345.11,684.829 1348.61,687.751 C1352.41,684.873 1354.41,681.199 1354.58,676.727 C1354.63,675.311 1355.09,674.16 1355.98,673.274 C1356.95,672.389 1358.12,671.946 1359.5,671.946 C1360.87,671.946 1362.03,672.411 1362.98,673.341 C1363.93,674.27 1364.41,675.399 1364.41,676.727 C1364.41,683.589 1360.36,688.791 1352.26,692.333 C1353.59,694.945 1354.25,698.132 1354.25,701.895 C1354.25,706.898 1352.26,711.214 1348.27,714.845 C1344.29,718.475 1339.53,720.29 1334,720.29 C1329.22,720.29 1325.07,719.205 1321.55,717.036 C1318.03,714.867 1316.27,711.856 1316.27,708.005 C1316.27,706.057 1316.97,704.363 1318.39,702.925 C1319.81,701.486 1321.5,700.766 1323.47,700.766 C1325.44,700.766 1327.11,701.475 1328.49,702.891 C1329.86,704.308 1330.54,706.013 1330.54,708.005 C1330.54,708.89 1329.81,709.853 1328.35,710.893 C1326.89,711.934 1326.16,712.897 1326.16,713.782 C1326.16,716.438 1328.77,717.766 1334,717.766 C1339.09,717.766 1341.63,712.476 1341.63,701.895 C1341.63,699.549 1341.5,697.49 1341.24,695.72 C1335.88,696.826 1329.17,697.69 1321.11,698.309 C1320.01,698.398 1319.45,697.845 1319.45,696.649 C1319.45,695.675 1320.01,695.144 1321.11,695.056 C1329.26,694.391 1335.68,693.329 1340.37,691.868 C1339.13,688.326 1337.01,686.533 1334,686.489 C1329.44,686.489 1326.25,687.419 1324.43,689.278 C1322.62,691.138 1321.49,692.067 1321.05,692.067 C1319.99,692.067 1319.45,691.514 1319.45,690.407 L1319.45,667.563 C1319.45,667.121 1319.61,666.722 1319.92,666.368 C1320.27,666.014 1320.65,665.837 1321.05,665.837"/>
<path class="FiguredBass" d="M2282.84,592.657 C2279.56,592.657 2277.38,593.974 2276.3,596.608 C2275.21,599.242 2274.67,602.972 2274.67,607.798 L2274.67,615.634 C2276.97,614.704 2278.96,614.217 2280.65,614.173 C2286.4,614.173 2290.93,615.445 2294.23,617.991 C2297.53,620.537 2299.17,624.322 2299.17,629.347 C2299.17,634.371 2297.5,638.167 2294.16,640.735 C2290.82,643.303 2286.31,644.587 2280.65,644.587 C2274.85,644.587 2270.31,641.897 2267.03,636.518 C2263.76,631.139 2262.12,624.753 2262.12,617.36 C2262.12,610.011 2264.02,603.636 2267.83,598.235 C2271.64,592.834 2276.64,590.134 2282.84,590.134 C2286.91,590.134 2290.43,591.163 2293.4,593.222 C2296.36,595.28 2297.85,597.992 2297.85,601.356 C2297.85,603.304 2297.14,604.986 2295.72,606.403 C2294.3,607.82 2292.61,608.528 2290.64,608.528 C2288.67,608.528 2286.98,607.82 2285.56,606.403 C2284.14,604.986 2283.44,603.304 2283.44,601.356 C2283.44,599.453 2284.14,597.77 2285.56,596.309 C2286.05,595.734 2286.73,595.247 2287.62,594.848 C2287.4,594.273 2286.96,593.83 2286.29,593.52 C2285.32,592.945 2284.17,592.657 2282.84,592.657 M2286.09,619.817 C2285.3,617.736 2283.55,616.696 2280.85,616.696 C2278.15,616.696 2276.47,617.736 2275.83,619.817 C2275.19,621.898 2274.87,625.063 2274.87,629.313 C2274.87,634.316 2275.19,637.681 2275.83,639.407 C2276.47,641.134 2278.15,641.997 2280.85,641.997 C2283.55,641.997 2285.3,640.957 2286.09,638.876 C2286.89,636.795 2287.29,633.619 2287.29,629.347 C2287.29,625.074 2286.89,621.898 2286.09,619.817"/>
<path class="FiguredBass" d="M2266.64,665.837 C2266.64,665.837 2267.7,665.992 2269.82,666.302 C2270.75,666.434 2271.79,666.567 2272.94,666.7 C2276,667.054 2278.94,667.231 2281.78,667.231 C2284.61,667.231 2287.6,667.054 2290.74,666.7 C2291.98,666.567 2293.07,666.434 2293.99,666.302 L2297.25,665.837 C2297.91,665.837 2298.41,666.058 2298.74,666.501 C2299.08,666.944 2299.04,667.298 2298.64,667.563 C2291.87,674.337 2282.33,677.723 2270.02,677.723 C2269.54,677.723 2269.1,677.901 2268.73,678.255 C2268.35,678.609 2268.16,679.052 2268.16,679.583 L2268.16,690.009 C2271.31,686.91 2275.11,685.36 2279.58,685.36 C2286.05,685.36 2291.04,686.81 2294.56,689.71 C2298.08,692.61 2299.84,697.003 2299.84,702.891 C2299.84,707.894 2297.85,712.044 2293.86,715.343 C2289.88,718.641 2285.12,720.29 2279.58,720.29 C2274.8,720.29 2270.65,719.205 2267.13,717.036 C2263.61,714.867 2261.85,711.856 2261.85,708.005 C2261.85,706.057 2262.56,704.363 2263.98,702.925 C2265.4,701.486 2267.09,700.766 2269.06,700.766 C2271.03,700.766 2272.7,701.475 2274.07,702.891 C2275.45,704.308 2276.13,706.013 2276.13,708.005 C2276.13,708.89 2275.4,709.853 2273.94,710.893 C2272.48,711.934 2271.75,712.897 2271.75,713.782 C2271.75,716.438 2274.36,717.766 2279.58,717.766 C2284.68,717.766 2287.22,712.808 2287.22,702.891 C2287.22,693.329 2284.68,688.526 2279.58,688.481 C2275.02,688.481 2271.84,689.411 2270.02,691.27 C2268.21,693.13 2267.08,694.059 2266.64,694.059 C2265.53,694.059 2265,693.506 2265.04,692.399 L2265.04,667.563 C2265.04,667.076 2265.2,666.667 2265.51,666.335 C2265.82,666.003 2266.19,665.837 2266.64,665.837"/>
<path class="FiguredBass" d="M2764.35,591.528 C2766.04,591.528 2767.81,591.285 2769.67,590.798 L2772.65,590.001 C2773.23,590.001 2773.68,590.222 2774.01,590.665 C2774.35,591.108 2774.31,591.506 2773.92,591.86 L2743.04,627.786 L2761.17,627.786 L2761.17,613.575 C2761.17,612.557 2761.44,611.771 2762,611.218 C2762.55,610.664 2763.26,610.222 2764.12,609.889 C2764.98,609.557 2766.11,608.572 2767.51,606.934 C2768.9,605.296 2770.24,603.083 2771.52,600.294 C2771.75,599.851 2772.08,599.63 2772.52,599.63 C2773.45,599.63 2773.92,600.139 2773.92,601.157 L2773.92,627.786 L2781.75,627.786 C2782.86,627.786 2783.41,628.295 2783.41,629.313 C2783.41,630.42 2782.86,630.973 2781.75,630.973 L2773.92,630.973 L2773.92,631.837 C2773.92,634.582 2774.65,636.972 2776.11,639.009 C2777.57,641.045 2779.45,642.063 2781.75,642.063 C2782.64,642.063 2783.08,642.462 2783.08,643.259 C2783.08,644.144 2782.64,644.587 2781.75,644.587 C2780.16,644.587 2777.79,644.354 2774.65,643.889 C2771.5,643.425 2769.12,643.192 2767.51,643.192 C2765.89,643.192 2763.51,643.425 2760.37,643.889 C2757.23,644.354 2754.86,644.587 2753.26,644.587 C2752.38,644.587 2751.93,644.144 2751.93,643.259 C2751.93,642.462 2752.38,642.063 2753.26,642.063 C2755.56,642.063 2757.46,641.045 2758.94,639.009 C2760.42,636.972 2761.17,634.582 2761.17,631.837 L2761.17,630.973 L2743.04,630.973 C2741.89,630.973 2741.03,630.697 2740.48,630.143 C2739.93,629.59 2739.65,629.026 2739.65,628.45 C2739.65,628.229 2740.17,627.465 2741.21,626.159 C2742.25,624.853 2743.52,623.115 2745.03,620.946 C2746.53,618.777 2748.03,616.309 2749.51,613.542 C2750.99,610.775 2752.26,607.455 2753.3,603.581 C2754.34,599.707 2754.86,595.8 2754.86,591.86 C2754.86,590.709 2755.34,590.134 2756.32,590.134 C2756.45,590.134 2756.92,590.244 2757.71,590.466 C2758.51,590.687 2759.53,590.919 2760.77,591.163 C2762.01,591.406 2763.2,591.528 2764.35,591.528"/>
<path class="FiguredBass" d="M3251.28,639.381 L3251.28,653.26 C3251.28,654.633 3250.59,655.319 3249.19,655.319 C3247.8,655.319 3247.1,654.633 3247.1,653.26 L3247.1,641.174 L3244.98,642.038 C3244.75,642.126 3244.47,642.17 3244.11,642.17 C3243.54,642.17 3243.03,641.949 3242.58,641.506 C3242.14,641.064 3241.92,640.554 3241.92,639.979 L3241.92,633.206 C3241.92,632.232 3242.39,631.545 3243.32,631.147 L3247.1,629.553 L3247.1,615.608 L3244.98,616.471 C3244.84,616.515 3244.67,616.538 3244.44,616.538 C3244.36,616.538 3244.24,616.538 3244.11,616.538 C3243.45,616.449 3242.92,616.206 3242.52,615.807 C3242.12,615.409 3241.92,614.944 3241.92,614.413 L3241.92,607.639 C3241.92,606.709 3242.39,606.045 3243.32,605.647 L3247.1,604.053 L3247.1,589.909 C3247.1,588.536 3247.8,587.85 3249.19,587.85 C3250.59,587.85 3251.28,588.536 3251.28,589.909 L3251.28,602.327 L3259.85,598.741 L3259.85,584.862 C3259.85,583.489 3260.54,582.803 3261.91,582.803 C3263.28,582.803 3263.97,583.489 3263.97,584.862 L3263.97,597.081 L3266.29,596.084 C3266.51,595.996 3266.76,595.952 3267.02,595.952 C3267.6,595.952 3268.12,596.173 3268.58,596.616 C3269.05,597.058 3269.28,597.567 3269.28,598.143 L3269.28,604.916 C3269.28,605.89 3268.79,606.577 3267.82,606.975 L3263.97,608.569 L3263.97,622.581 L3266.29,621.651 C3266.42,621.607 3266.58,621.584 3266.76,621.584 C3266.85,621.584 3266.93,621.584 3267.02,621.584 C3267.77,621.717 3268.34,621.961 3268.72,622.315 C3269.09,622.669 3269.28,623.134 3269.28,623.709 L3269.28,630.483 C3269.28,631.413 3268.79,632.077 3267.82,632.475 L3263.97,634.069 L3263.97,648.213 C3263.97,649.586 3263.28,650.272 3261.91,650.272 C3260.54,650.272 3259.85,649.586 3259.85,648.213 L3259.85,635.795 L3251.28,639.381 M3251.28,627.827 L3259.85,624.307 L3259.85,610.295 L3251.28,613.881 L3251.28,627.827 "/>
<path class="StaffText" d="M370.278,218.459 L367.133,218.459 L363.733,223.559 C359.653,219.734 354.298,217.694 348.263,217.694 C337.043,217.694 329.648,224.749 329.648,235.459 C329.648,244.724 334.238,249.314 346.733,252.544 L354.808,254.584 C361.098,256.199 361.693,256.369 363.478,257.729 C366.028,259.684 367.388,262.489 367.388,265.804 C367.388,269.204 366.113,272.009 363.563,274.389 C360.758,276.769 357.953,277.704 353.278,277.704 C346.988,277.704 342.483,275.749 338.488,271.329 C334.918,267.419 333.133,263.339 331.858,256.794 L328.203,256.794 L328.543,281.019 L331.858,281.019 L335.683,275.239 C341.378,279.914 346.053,281.614 353.533,281.614 C366.028,281.614 374.018,274.304 374.018,262.914 C374.018,257.559 372.318,253.139 368.918,249.909 C366.623,247.699 363.308,246.254 356.508,244.554 L347.413,242.259 C339.848,240.304 336.278,236.989 336.278,231.804 C336.278,225.854 341.123,221.774 348.348,221.774 C354.298,221.774 359.143,224.324 362.543,229.169 C365.008,232.654 366.623,236.224 367.643,240.559 L371.298,240.559 L370.278,218.459 M417.706,261.214 C417.791,248.464 410.566,239.454 400.196,239.454 C389.316,239.454 381.156,248.889 381.156,261.639 C381.156,273.624 388.891,281.614 400.366,281.614 C408.526,281.614 414.221,277.619 417.706,269.544 L414.731,267.929 C411.246,274.474 407.676,277.024 401.981,277.024 C397.646,277.024 394.501,275.239 392.291,271.414 C390.761,268.864 390.081,265.889 390.166,261.214 L417.706,261.214 M390.251,257.559 C390.251,254.924 390.591,253.054 391.441,250.674 C393.226,245.574 395.946,243.109 400.111,243.109 C405.211,243.109 408.611,247.614 408.611,254.499 C408.611,256.879 407.846,257.559 405.126,257.559 L390.251,257.559 M453.576,267.844 C450.856,273.964 447.966,276.429 443.546,276.429 C436.746,276.429 432.496,270.224 432.496,260.279 C432.496,249.909 436.661,243.109 442.951,243.109 C445.501,243.109 447.711,244.299 447.711,245.659 C447.711,245.914 447.626,246.169 447.201,246.679 C445.841,248.294 445.501,249.144 445.501,250.589 C445.501,253.394 447.626,255.349 450.601,255.349 C453.661,255.349 455.786,252.969 455.786,249.569 C455.786,243.789 450.091,239.454 442.526,239.454 C431.476,239.454 423.571,248.464 423.571,261.214 C423.571,273.284 430.796,281.614 441.336,281.614 C448.901,281.614 453.236,278.129 456.891,269.119 L453.576,267.844 M479.757,239.454 C469.302,239.454 461.227,248.719 461.227,260.619 C461.227,272.264 469.387,281.614 479.587,281.614 C489.787,281.614 497.947,272.264 497.947,260.534 C497.947,248.889 489.787,239.454 479.757,239.454 M479.757,243.109 C485.707,243.109 489.022,249.314 489.022,260.534 C489.022,271.839 485.707,277.959 479.587,277.959 C473.467,277.959 470.152,271.839 470.152,260.619 C470.152,249.059 473.382,243.109 479.757,243.109 M517.837,240.729 L503.132,241.664 L503.132,245.319 L506.192,245.319 C509.422,245.404 509.847,245.914 509.847,249.569 L509.847,269.884 L509.847,271.924 L509.847,273.879 C509.762,275.154 509.677,275.664 509.337,276.089 C508.742,276.854 507.127,277.194 503.472,277.279 L503.132,277.279 L503.132,280.339 L524.637,280.339 L524.637,277.279 L524.297,277.279 C518.602,277.109 517.837,276.684 517.837,273.624 L517.837,269.884 L517.837,261.044 C517.837,256.879 518.432,253.054 519.367,251.099 C521.152,247.274 524.977,244.639 528.632,244.639 C530.842,244.639 533.392,245.829 534.667,247.614 C535.942,249.484 536.537,252.034 536.537,256.114 L536.537,269.884 L536.537,273.879 C536.452,275.154 536.367,275.664 536.027,276.089 C535.432,276.854 533.732,277.194 530.077,277.279 L529.737,277.279 L529.737,280.339 L551.242,280.339 L551.242,277.279 L550.902,277.279 C545.292,277.109 544.527,276.684 544.527,273.624 L544.527,269.884 L544.527,256.539 C544.527,250.419 544.272,248.889 542.742,245.999 C540.617,241.919 536.367,239.454 531.267,239.454 C525.742,239.454 521.577,242.004 517.837,247.614 L517.837,240.729 M585.059,280.934 L599.849,280.339 L599.849,276.684 L598.319,276.684 C593.474,276.429 593.049,275.919 593.049,270.479 L593.049,217.694 L576.389,218.629 L576.389,222.284 L581.404,222.284 C584.634,222.369 585.059,222.879 585.059,226.534 L585.059,245.744 C581.914,241.409 578.259,239.454 573.329,239.454 C563.724,239.454 556.414,248.719 556.414,260.959 C556.414,273.029 563.469,281.614 573.329,281.614 C578.684,281.614 582.339,279.319 585.059,274.219 L585.059,280.934 M575.029,244.044 C578.514,244.044 581.829,246.594 583.359,250.504 C584.464,253.054 584.974,256.539 584.974,260.704 C584.974,270.649 581.064,277.024 574.944,277.024 C568.909,277.024 565.339,271.414 565.339,261.979 C565.339,256.879 565.849,253.054 566.954,250.249 C568.399,246.424 571.544,244.044 575.029,244.044 M641.065,261.214 C641.15,248.464 633.925,239.454 623.555,239.454 C612.675,239.454 604.515,248.889 604.515,261.639 C604.515,273.624 612.25,281.614 623.725,281.614 C631.885,281.614 637.58,277.619 641.065,269.544 L638.09,267.929 C634.605,274.474 631.035,277.024 625.34,277.024 C621.005,277.024 617.86,275.239 615.65,271.414 C614.12,268.864 613.44,265.889 613.525,261.214 L641.065,261.214 M613.61,257.559 C613.61,254.924 613.95,253.054 614.8,250.674 C616.585,245.574 619.305,243.109 623.47,243.109 C628.57,243.109 631.97,247.614 631.97,254.499 C631.97,256.879 631.205,257.559 628.485,257.559 L613.61,257.559 "/>
</svg>
