<?xml version="1.0" encoding="UTF-8" standalone="no"?>
<svg width="4209.44px" height="850.392px" viewBox="0 0 4209.44 850.392"
 xmlns="http://www.w3.org/2000/svg" xmlns:xlink="http://www.w3.org/1999/xlink" version="1.2" baseProfile="tiny">
<title>Exemples (10)</title>
<desc>Generated by MuseScore 3.6.2</desc>
<polyline class="StaffLines" fill="none" stroke="#000000" stroke-width="4.68" stroke-linejoin="bevel" points="70.866,325.984 4138.58,325.984"/>
<polyline class="StaffLines" fill="none" stroke="#000000" stroke-width="4.68" stroke-linejoin="bevel" points="70.866,368.504 4138.58,368.504"/>
<polyline class="StaffLines" fill="none" stroke="#000000" stroke-width="4.68" stroke-linejoin="bevel" points="70.866,411.024 4138.58,411.024"/>
<polyline class="StaffLines" fill="none" stroke="#000000" stroke-width="4.68" stroke-linejoin="bevel" points="70.866,453.543 4138.58,453.543"/>
<polyline class="StaffLines" fill="none" stroke="#000000" stroke-width="4.68" stroke-linejoin="bevel" points="70.866,496.063 4138.58,496.063"/>
<polyline class="BarLine" fill="none" stroke="#000000" stroke-width="7.65" stroke-linejoin="bevel" points="633.627,323.646 633.627,498.402"/>
<polyline class="BarLine" fill="none" stroke="#000000" stroke-width="7.65" stroke-linejoin="bevel" points="1020.62,323.646 1020.62,498.402"/>
<polyline class="BarLine" fill="none" stroke="#000000" stroke-width="7.65" stroke-linejoin="bevel" points="1407.61,323.646 1407.61,498.402"/>
<polyline class="BarLine" fill="none" stroke="#000000" stroke-width="7.65" stroke-linejoin="bevel" points="1793.78,323.646 1793.78,498.402"/>
<polyline class="BarLine" fill="none" stroke="#000000" stroke-width="7.65" stroke-linejoin="bevel" points="2179.95,323.646 2179.95,498.402"/>
<polyline class="BarLine" fill="none" stroke="#000000" stroke-width="7.65" stroke-linejoin="bevel" points="2569.17,323.646 2569.17,498.402"/>
<polyline class="BarLine" fill="none" stroke="#000000" stroke-width="7.65" stroke-linejoin="bevel" points="2955.34,323.646 2955.34,498.402"/>
<polyline class="BarLine" fill="none" stroke="#000000" stroke-width="7.65" stroke-linejoin="bevel" points="3341.51,323.646 3341.51,498.402"/>
<polyline class="BarLine" fill="none" stroke="#000000" stroke-width="7.65" stroke-linejoin="bevel" points="3728.5,323.646 3728.5,498.402"/>
<polyline class="BarLine" fill="none" stroke="#000000" stroke-width="7.65" stroke-linejoin="bevel" points="4097.12,323.646 4097.12,498.402"/>
<polyline class="BarLine" fill="none" stroke="#000000" stroke-width="23.39" stroke-linejoin="bevel" points="4126.89,323.646 4126.89,498.402"/>
<path class="Accidental" transform="matrix(1.70079,0,0,1.70079,2224.85,368.504)" d="M16.6,-18.3 C16.4,-18.5 16.1,-18.6 15.8,-18.6 C15.7,-18.6 15.5,-18.5 15.4,-18.5 L2.8,-15 L2.8,-32.5 L0,-32.5 L0,17 C0,17.8 0.6,18.3 1.4,18.3 L1.8,18.3 L14.4,14.8 L14.4,32.3 L17.1,32.3 L17.1,-17.2 C17.1,-17.6 16.9,-18.1 16.6,-18.3 M14.4,6.5 L2.8,9.7 L2.8,-6.7 L14.4,-10 L14.4,6.5 "/>
<polyline class="LedgerLine" fill="none" stroke="#000000" stroke-width="6.80" stroke-linejoin="bevel" points="3400.62,538.583 3493.81,538.583"/>
<path class="Note" transform="matrix(1.70079,0,0,1.70079,324.111,474.803)" d="M18.7,-13.6 C4.9,-13.6 0,-6.6 0,-0.1 C0,6.4 4.9,13.4 18.7,13.4 C32.5,13.4 37.3,6.4 37.3,-0.1 C37.3,-6.6 32.5,-13.6 18.7,-13.6 M10.4,-4.5 C10.3,-4.9 10.3,-5.3 10.3,-5.7 C10.3,-6.5 10.5,-7.3 10.9,-8 C11.6,-9 12.8,-9.7 14.3,-10 C15.6,-10.3 16.3,-10.5 18.9,-10.5 L19,-10.5 C23,-10.5 24.3,-6.8 25.4,-3 L25.7,-2 C26.5,0.6 26.9,2.8 26.9,4.5 C26.9,5.7 26.7,6.8 26.3,7.6 C25.7,8.7 24.7,9.4 23,9.8 C22.1,10 20.6,10.1 20.6,10.1 C20.1,10.1 19.7,10.2 19.3,10.2 C16.1,10.2 14.1,9 12.7,4.7 C11.5,1 11.3,-0.1 10.4,-4.5"/>
<path class="Note" transform="matrix(1.70079,0,0,1.70079,692.73,453.543)" d="M18.7,-13.6 C4.9,-13.6 0,-6.6 0,-0.1 C0,6.4 4.9,13.4 18.7,13.4 C32.5,13.4 37.3,6.4 37.3,-0.1 C37.3,-6.6 32.5,-13.6 18.7,-13.6 M10.4,-4.5 C10.3,-4.9 10.3,-5.3 10.3,-5.7 C10.3,-6.5 10.5,-7.3 10.9,-8 C11.6,-9 12.8,-9.7 14.3,-10 C15.6,-10.3 16.3,-10.5 18.9,-10.5 L19,-10.5 C23,-10.5 24.3,-6.8 25.4,-3 L25.7,-2 C26.5,0.6 26.9,2.8 26.9,4.5 C26.9,5.7 26.7,6.8 26.3,7.6 C25.7,8.7 24.7,9.4 23,9.8 C22.1,10 20.6,10.1 20.6,10.1 C20.1,10.1 19.7,10.2 19.3,10.2 C16.1,10.2 14.1,9 12.7,4.7 C11.5,1 11.3,-0.1 10.4,-4.5"/>
<path class="Note" transform="matrix(1.70079,0,0,1.70079,1079.72,432.283)" d="M18.7,-13.6 C4.9,-13.6 0,-6.6 0,-0.1 C0,6.4 4.9,13.4 18.7,13.4 C32.5,13.4 37.3,6.4 37.3,-0.1 C37.3,-6.6 32.5,-13.6 18.7,-13.6 M10.4,-4.5 C10.3,-4.9 10.3,-5.3 10.3,-5.7 C10.3,-6.5 10.5,-7.3 10.9,-8 C11.6,-9 12.8,-9.7 14.3,-10 C15.6,-10.3 16.3,-10.5 18.9,-10.5 L19,-10.5 C23,-10.5 24.3,-6.8 25.4,-3 L25.7,-2 C26.5,0.6 26.9,2.8 26.9,4.5 C26.9,5.7 26.7,6.8 26.3,7.6 C25.7,8.7 24.7,9.4 23,9.8 C22.1,10 20.6,10.1 20.6,10.1 C20.1,10.1 19.7,10.2 19.3,10.2 C16.1,10.2 14.1,9 12.7,4.7 C11.5,1 11.3,-0.1 10.4,-4.5"/>
<path class="Note" transform="matrix(1.70079,0,0,1.70079,1470.79,411.024)" d="M18.7,-13.6 C4.9,-13.6 0,-6.6 0,-0.1 C0,6.4 4.9,13.4 18.7,13.4 C32.5,13.4 37.3,6.4 37.3,-0.1 C37.3,-6.6 32.5,-13.6 18.7,-13.6 M10.4,-4.5 C10.3,-4.9 10.3,-5.3 10.3,-5.7 C10.3,-6.5 10.5,-7.3 10.9,-8 C11.6,-9 12.8,-9.7 14.3,-10 C15.6,-10.3 16.3,-10.5 18.9,-10.5 L19,-10.5 C23,-10.5 24.3,-6.8 25.4,-3 L25.7,-2 C26.5,0.6 26.9,2.8 26.9,4.5 C26.9,5.7 26.7,6.8 26.3,7.6 C25.7,8.7 24.7,9.4 23,9.8 C22.1,10 20.6,10.1 20.6,10.1 C20.1,10.1 19.7,10.2 19.3,10.2 C16.1,10.2 14.1,9 12.7,4.7 C11.5,1 11.3,-0.1 10.4,-4.5"/>
<path class="Note" transform="matrix(1.70079,0,0,1.70079,1856.97,389.764)" d="M18.7,-13.6 C4.9,-13.6 0,-6.6 0,-0.1 C0,6.4 4.9,13.4 18.7,13.4 C32.5,13.4 37.3,6.4 37.3,-0.1 C37.3,-6.6 32.5,-13.6 18.7,-13.6 M10.4,-4.5 C10.3,-4.9 10.3,-5.3 10.3,-5.7 C10.3,-6.5 10.5,-7.3 10.9,-8 C11.6,-9 12.8,-9.7 14.3,-10 C15.6,-10.3 16.3,-10.5 18.9,-10.5 L19,-10.5 C23,-10.5 24.3,-6.8 25.4,-3 L25.7,-2 C26.5,0.6 26.9,2.8 26.9,4.5 C26.9,5.7 26.7,6.8 26.3,7.6 C25.7,8.7 24.7,9.4 23,9.8 C22.1,10 20.6,10.1 20.6,10.1 C20.1,10.1 19.7,10.2 19.3,10.2 C16.1,10.2 14.1,9 12.7,4.7 C11.5,1 11.3,-0.1 10.4,-4.5"/>
<path class="Note" transform="matrix(1.70079,0,0,1.70079,2264.56,368.504)" d="M18.7,-13.6 C4.9,-13.6 0,-6.6 0,-0.1 C0,6.4 4.9,13.4 18.7,13.4 C32.5,13.4 37.3,6.4 37.3,-0.1 C37.3,-6.6 32.5,-13.6 18.7,-13.6 M10.4,-4.5 C10.3,-4.9 10.3,-5.3 10.3,-5.7 C10.3,-6.5 10.5,-7.3 10.9,-8 C11.6,-9 12.8,-9.7 14.3,-10 C15.6,-10.3 16.3,-10.5 18.9,-10.5 L19,-10.5 C23,-10.5 24.3,-6.8 25.4,-3 L25.7,-2 C26.5,0.6 26.9,2.8 26.9,4.5 C26.9,5.7 26.7,6.8 26.3,7.6 C25.7,8.7 24.7,9.4 23,9.8 C22.1,10 20.6,10.1 20.6,10.1 C20.1,10.1 19.7,10.2 19.3,10.2 C16.1,10.2 14.1,9 12.7,4.7 C11.5,1 11.3,-0.1 10.4,-4.5"/>
<path class="Note" transform="matrix(1.70079,0,0,1.70079,2632.36,411.024)" d="M18.7,-13.6 C4.9,-13.6 0,-6.6 0,-0.1 C0,6.4 4.9,13.4 18.7,13.4 C32.5,13.4 37.3,6.4 37.3,-0.1 C37.3,-6.6 32.5,-13.6 18.7,-13.6 M10.4,-4.5 C10.3,-4.9 10.3,-5.3 10.3,-5.7 C10.3,-6.5 10.5,-7.3 10.9,-8 C11.6,-9 12.8,-9.7 14.3,-10 C15.6,-10.3 16.3,-10.5 18.9,-10.5 L19,-10.5 C23,-10.5 24.3,-6.8 25.4,-3 L25.7,-2 C26.5,0.6 26.9,2.8 26.9,4.5 C26.9,5.7 26.7,6.8 26.3,7.6 C25.7,8.7 24.7,9.4 23,9.8 C22.1,10 20.6,10.1 20.6,10.1 C20.1,10.1 19.7,10.2 19.3,10.2 C16.1,10.2 14.1,9 12.7,4.7 C11.5,1 11.3,-0.1 10.4,-4.5"/>
<path class="Note" transform="matrix(1.70079,0,0,1.70079,3018.53,389.764)" d="M18.7,-13.6 C4.9,-13.6 0,-6.6 0,-0.1 C0,6.4 4.9,13.4 18.7,13.4 C32.5,13.4 37.3,6.4 37.3,-0.1 C37.3,-6.6 32.5,-13.6 18.7,-13.6 M10.4,-4.5 C10.3,-4.9 10.3,-5.3 10.3,-5.7 C10.3,-6.5 10.5,-7.3 10.9,-8 C11.6,-9 12.8,-9.7 14.3,-10 C15.6,-10.3 16.3,-10.5 18.9,-10.5 L19,-10.5 C23,-10.5 24.3,-6.8 25.4,-3 L25.7,-2 C26.5,0.6 26.9,2.8 26.9,4.5 C26.9,5.7 26.7,6.8 26.3,7.6 C25.7,8.7 24.7,9.4 23,9.8 C22.1,10 20.6,10.1 20.6,10.1 C20.1,10.1 19.7,10.2 19.3,10.2 C16.1,10.2 14.1,9 12.7,4.7 C11.5,1 11.3,-0.1 10.4,-4.5"/>
<path class="Note" transform="matrix(1.70079,0,0,1.70079,3415.5,538.583)" d="M18.7,-13.6 C4.9,-13.6 0,-6.6 0,-0.1 C0,6.4 4.9,13.4 18.7,13.4 C32.5,13.4 37.3,6.4 37.3,-0.1 C37.3,-6.6 32.5,-13.6 18.7,-13.6 M10.4,-4.5 C10.3,-4.9 10.3,-5.3 10.3,-5.7 C10.3,-6.5 10.5,-7.3 10.9,-8 C11.6,-9 12.8,-9.7 14.3,-10 C15.6,-10.3 16.3,-10.5 18.9,-10.5 L19,-10.5 C23,-10.5 24.3,-6.8 25.4,-3 L25.7,-2 C26.5,0.6 26.9,2.8 26.9,4.5 C26.9,5.7 26.7,6.8 26.3,7.6 C25.7,8.7 24.7,9.4 23,9.8 C22.1,10 20.6,10.1 20.6,10.1 C20.1,10.1 19.7,10.2 19.3,10.2 C16.1,10.2 14.1,9 12.7,4.7 C11.5,1 11.3,-0.1 10.4,-4.5"/>
<path class="Note" transform="matrix(1.70079,0,0,1.70079,3787.6,474.803)" d="M18.7,-13.6 C4.9,-13.6 0,-6.6 0,-0.1 C0,6.4 4.9,13.4 18.7,13.4 C32.5,13.4 37.3,6.4 37.3,-0.1 C37.3,-6.6 32.5,-13.6 18.7,-13.6 M10.4,-4.5 C10.3,-4.9 10.3,-5.3 10.3,-5.7 C10.3,-6.5 10.5,-7.3 10.9,-8 C11.6,-9 12.8,-9.7 14.3,-10 C15.6,-10.3 16.3,-10.5 18.9,-10.5 L19,-10.5 C23,-10.5 24.3,-6.8 25.4,-3 L25.7,-2 C26.5,0.6 26.9,2.8 26.9,4.5 C26.9,5.7 26.7,6.8 26.3,7.6 C25.7,8.7 24.7,9.4 23,9.8 C22.1,10 20.6,10.1 20.6,10.1 C20.1,10.1 19.7,10.2 19.3,10.2 C16.1,10.2 14.1,9 12.7,4.7 C11.5,1 11.3,-0.1 10.4,-4.5"/>
<path class="Clef" transform="matrix(1.70079,0,0,1.70079,104.882,368.504)" d="M25.4,-25.1 C17.8,-25.1 11.7,-20.7 11.6,-20.7 C5.8,-16.4 3.5,-11.3 2.6,-7.8 C2.1,-6 1.9,-4.2 1.9,-2.5 C1.9,-0.1 2.3,2.1 3.2,4 C4.4,6.7 6.7,8.6 9.7,9.6 C10.9,10 12.2,10.2 13.5,10.2 C15.7,10.2 18,9.6 19.9,8.5 C23,6.8 24.9,3.2 24.9,-0.7 C24.9,-4.2 23.1,-7.4 20.1,-9.3 C18,-10.7 16,-11.1 14.3,-11.1 C13.1,-11.1 12,-10.9 11.1,-10.6 C10.1,-10.2 8.4,-9.2 7.6,-8.5 C7.9,-10.4 9.1,-13.3 10.2,-14.9 C11.3,-16.5 13.5,-18.5 15.2,-19.4 C17.7,-20.8 20.9,-21.4 24.4,-21.4 C34.6,-21.4 39.6,-13.2 39.6,3.6 C39.6,12.9 36.1,21.8 33.1,27.7 C29.8,34.3 25.4,40.6 21.5,44.1 C11.1,53.6 1.3,58.1 1.2,58.1 C1.2,58.1 -0.3,59 0.1,60.5 C0.4,61.5 1.3,61.7 1.9,61.7 C2,61.7 2.3,61.6 2.4,61.6 C2.5,61.6 13.9,56.9 23,49.8 C28.1,46.1 32.7,42.1 36.7,37.8 C40.3,33.9 43.4,29.7 45.9,25.5 C50.3,18 52.8,10.2 52.8,3.5 C52.8,-4.8 50.6,-11.7 46.5,-16.6 C41.8,-22.2 34.7,-25.1 25.4,-25.1 M56.8,-12.4 C56.8,-9.6 59,-7.4 61.6,-7.4 C64.2,-7.4 66.4,-9.6 66.4,-12.4 C66.4,-15.2 64.2,-17.5 61.6,-17.5 C59,-17.5 56.8,-15.2 56.8,-12.4 M56.8,12.3 C56.8,15.1 59,17.4 61.6,17.4 C64.2,17.4 66.4,15.1 66.4,12.3 C66.4,9.5 64.2,7.2 61.6,7.2 C59,7.2 56.8,9.5 56.8,12.3"/>
<path class="FiguredBass" d="M688.197,631.505 C687.71,632.036 687.068,632.302 686.271,632.302 C685.474,632.302 684.821,632.025 684.312,631.472 C683.803,630.918 683.548,630.287 683.548,629.579 L683.548,620.083 L674.052,620.083 C673.255,620.083 672.602,619.806 672.093,619.253 C671.584,618.699 671.33,618.069 671.33,617.36 C671.33,616.652 671.584,616.021 672.093,615.468 C672.602,614.914 673.255,614.638 674.052,614.638 L683.548,614.638 L683.548,605.141 C683.548,604.433 683.803,603.802 684.312,603.249 C684.821,602.695 685.474,602.419 686.271,602.419 C687.068,602.419 687.721,602.695 688.23,603.249 C688.739,603.802 688.994,604.433 688.994,605.141 L688.994,614.638 L698.49,614.638 C699.287,614.638 699.94,614.914 700.449,615.468 C700.958,616.021 701.212,616.652 701.212,617.36 C701.212,618.069 700.958,618.699 700.449,619.253 C699.94,619.806 699.287,620.083 698.49,620.083 L688.994,620.083 L688.994,629.579 C688.994,630.287 688.728,630.929 688.197,631.505 M726.439,592.657 C723.163,592.657 720.983,593.974 719.898,596.608 C718.813,599.242 718.271,602.972 718.271,607.798 L718.271,615.634 C720.573,614.704 722.565,614.217 724.247,614.173 C730.003,614.173 734.529,615.445 737.828,617.991 C741.126,620.537 742.775,624.322 742.775,629.347 C742.775,634.371 741.104,638.167 737.761,640.735 C734.419,643.303 729.914,644.587 724.247,644.587 C718.448,644.587 713.91,641.897 710.634,636.518 C707.358,631.139 705.72,624.753 705.72,617.36 C705.72,610.011 707.624,603.636 711.431,598.235 C715.238,592.834 720.241,590.134 726.439,590.134 C730.512,590.134 734.031,591.163 736.997,593.222 C739.964,595.28 741.447,597.992 741.447,601.356 C741.447,603.304 740.738,604.986 739.322,606.403 C737.905,607.82 736.212,608.528 734.242,608.528 C732.272,608.528 730.578,607.82 729.162,606.403 C727.745,604.986 727.037,603.304 727.037,601.356 C727.037,599.453 727.745,597.77 729.162,596.309 C729.649,595.734 730.335,595.247 731.22,594.848 C730.999,594.273 730.556,593.83 729.892,593.52 C728.918,592.945 727.767,592.657 726.439,592.657 M729.693,619.817 C728.896,617.736 727.147,616.696 724.447,616.696 C721.746,616.696 720.075,617.736 719.433,619.817 C718.791,621.898 718.47,625.063 718.47,629.313 C718.47,634.316 718.791,637.681 719.433,639.407 C720.075,641.134 721.746,641.997 724.447,641.997 C727.147,641.997 728.896,640.957 729.693,638.876 C730.49,636.795 730.888,633.619 730.888,629.347 C730.888,625.074 730.49,621.898 729.693,619.817"/>
<path class="FiguredBass" d="M1113.43,592.657 C1110.15,592.657 1107.97,593.974 1106.89,596.608 C1105.8,599.242 1105.26,602.972 1105.26,607.798 L1105.26,615.634 C1107.56,614.704 1109.55,614.217 1111.24,614.173 C1116.99,614.173 1121.52,615.445 1124.82,617.991 C1128.11,620.537 1129.76,624.322 1129.76,629.347 C1129.76,634.371 1128.09,638.167 1124.75,640.735 C1121.41,643.303 1116.9,644.587 1111.24,644.587 C1105.44,644.587 1100.9,641.897 1097.62,636.518 C1094.35,631.139 1092.71,624.753 1092.71,617.36 C1092.71,610.011 1094.61,603.636 1098.42,598.235 C1102.23,592.834 1107.23,590.134 1113.43,590.134 C1117.5,590.134 1121.02,591.163 1123.99,593.222 C1126.95,595.28 1128.44,597.992 1128.44,601.356 C1128.44,603.304 1127.73,604.986 1126.31,606.403 C1124.89,607.82 1123.2,608.528 1121.23,608.528 C1119.26,608.528 1117.57,607.82 1116.15,606.403 C1114.73,604.986 1114.03,603.304 1114.03,601.356 C1114.03,599.453 1114.73,597.77 1116.15,596.309 C1116.64,595.734 1117.32,595.247 1118.21,594.848 C1117.99,594.273 1117.54,593.83 1116.88,593.52 C1115.91,592.945 1114.76,592.657 1113.43,592.657 M1116.68,619.817 C1115.88,617.736 1114.14,616.696 1111.44,616.696 C1108.74,616.696 1107.06,617.736 1106.42,619.817 C1105.78,621.898 1105.46,625.063 1105.46,629.313 C1105.46,634.316 1105.78,637.681 1106.42,639.407 C1107.06,641.134 1108.74,641.997 1111.44,641.997 C1114.14,641.997 1115.88,640.957 1116.68,638.876 C1117.48,636.795 1117.88,633.619 1117.88,629.347 C1117.88,625.074 1117.48,621.898 1116.68,619.817"/>
<path class="FiguredBass" d="M1504.5,592.657 C1501.23,592.657 1499.05,593.974 1497.96,596.608 C1496.88,599.242 1496.33,602.972 1496.33,607.798 L1496.33,615.634 C1498.64,614.704 1500.63,614.217 1502.31,614.173 C1508.07,614.173 1512.59,615.445 1515.89,617.991 C1519.19,620.537 1520.84,624.322 1520.84,629.347 C1520.84,634.371 1519.17,638.167 1515.82,640.735 C1512.48,643.303 1507.98,644.587 1502.31,644.587 C1496.51,644.587 1491.97,641.897 1488.7,636.518 C1485.42,631.139 1483.78,624.753 1483.78,617.36 C1483.78,610.011 1485.69,603.636 1489.49,598.235 C1493.3,592.834 1498.3,590.134 1504.5,590.134 C1508.58,590.134 1512.1,591.163 1515.06,593.222 C1518.03,595.28 1519.51,597.992 1519.51,601.356 C1519.51,603.304 1518.8,604.986 1517.39,606.403 C1515.97,607.82 1514.28,608.528 1512.31,608.528 C1510.34,608.528 1508.64,607.82 1507.23,606.403 C1505.81,604.986 1505.1,603.304 1505.1,601.356 C1505.1,599.453 1505.81,597.77 1507.23,596.309 C1507.71,595.734 1508.4,595.247 1509.28,594.848 C1509.06,594.273 1508.62,593.83 1507.96,593.52 C1506.98,592.945 1505.83,592.657 1504.5,592.657 M1507.76,619.817 C1506.96,617.736 1505.21,616.696 1502.51,616.696 C1499.81,616.696 1498.14,617.736 1497.5,619.817 C1496.85,621.898 1496.53,625.063 1496.53,629.313 C1496.53,634.316 1496.85,637.681 1497.5,639.407 C1498.14,641.134 1499.81,641.997 1502.51,641.997 C1505.21,641.997 1506.96,640.957 1507.76,638.876 C1508.55,636.795 1508.95,633.619 1508.95,629.347 C1508.95,625.074 1508.55,621.898 1507.76,619.817"/>
<path class="FiguredBass" d="M1488.3,665.837 C1488.3,665.837 1489.36,665.992 1491.49,666.302 C1492.42,666.434 1493.46,666.567 1494.61,666.7 C1497.66,667.054 1500.61,667.231 1503.44,667.231 C1506.27,667.231 1509.26,667.054 1512.4,666.7 C1513.64,666.567 1514.73,666.434 1515.66,666.302 L1518.91,665.837 C1519.58,665.837 1520.07,666.058 1520.41,666.501 C1520.74,666.944 1520.71,667.298 1520.31,667.563 C1513.53,674.337 1503.99,677.723 1491.69,677.723 C1491.2,677.723 1490.77,677.901 1490.39,678.255 C1490.01,678.609 1489.83,679.052 1489.83,679.583 L1489.83,690.009 C1492.97,686.91 1496.78,685.36 1501.25,685.36 C1507.71,685.36 1512.7,686.81 1516.22,689.71 C1519.74,692.61 1521.5,697.003 1521.5,702.891 C1521.5,707.894 1519.51,712.044 1515.53,715.343 C1511.54,718.641 1506.78,720.29 1501.25,720.29 C1496.47,720.29 1492.32,719.205 1488.8,717.036 C1485.28,714.867 1483.52,711.856 1483.52,708.005 C1483.52,706.057 1484.23,704.363 1485.64,702.925 C1487.06,701.486 1488.75,700.766 1490.72,700.766 C1492.69,700.766 1494.36,701.475 1495.74,702.891 C1497.11,704.308 1497.8,706.013 1497.8,708.005 C1497.8,708.89 1497.07,709.853 1495.6,710.893 C1494.14,711.934 1493.41,712.897 1493.41,713.782 C1493.41,716.438 1496.02,717.766 1501.25,717.766 C1506.34,717.766 1508.89,712.808 1508.89,702.891 C1508.89,693.329 1506.34,688.526 1501.25,688.481 C1496.69,688.481 1493.5,689.411 1491.69,691.27 C1489.87,693.13 1488.74,694.059 1488.3,694.059 C1487.19,694.059 1486.66,693.506 1486.71,692.399 L1486.71,667.563 C1486.71,667.076 1486.86,666.667 1487.17,666.335 C1487.48,666.003 1487.86,665.837 1488.3,665.837"/>
<path class="FiguredBass" d="M1884.37,637.681 L1884.37,651.559 C1884.37,652.932 1883.67,653.618 1882.27,653.618 C1880.88,653.618 1880.18,652.932 1880.18,651.559 L1880.18,639.473 L1878.06,640.337 C1877.84,640.425 1877.55,640.47 1877.19,640.47 C1876.62,640.47 1876.11,640.248 1875.67,639.806 C1875.22,639.363 1875,638.854 1875,638.278 L1875,631.505 C1875,630.531 1875.47,629.845 1876.4,629.446 L1880.18,627.852 L1880.18,613.907 L1878.06,614.77 C1877.92,614.815 1877.75,614.837 1877.53,614.837 C1877.44,614.837 1877.33,614.837 1877.19,614.837 C1876.53,614.748 1876,614.505 1875.6,614.106 C1875.2,613.708 1875,613.243 1875,612.712 L1875,605.938 C1875,605.009 1875.47,604.345 1876.4,603.946 L1880.18,602.352 L1880.18,588.208 C1880.18,586.835 1880.88,586.149 1882.27,586.149 C1883.67,586.149 1884.37,586.835 1884.37,588.208 L1884.37,600.626 L1892.93,597.04 L1892.93,583.161 C1892.93,581.789 1893.62,581.102 1894.99,581.102 C1896.36,581.102 1897.05,581.789 1897.05,583.161 L1897.05,595.38 L1899.37,594.384 C1899.59,594.295 1899.84,594.251 1900.1,594.251 C1900.68,594.251 1901.2,594.472 1901.66,594.915 C1902.13,595.358 1902.36,595.867 1902.36,596.442 L1902.36,603.216 C1902.36,604.19 1901.87,604.876 1900.9,605.274 L1897.05,606.868 L1897.05,620.88 L1899.37,619.95 C1899.51,619.906 1899.66,619.884 1899.84,619.884 C1899.93,619.884 1900.02,619.884 1900.1,619.884 C1900.86,620.016 1901.42,620.26 1901.8,620.614 C1902.17,620.968 1902.36,621.433 1902.36,622.009 L1902.36,628.782 C1902.36,629.712 1901.87,630.376 1900.9,630.774 L1897.05,632.368 L1897.05,646.513 C1897.05,647.885 1896.36,648.571 1894.99,648.571 C1893.62,648.571 1892.93,647.885 1892.93,646.513 L1892.93,634.095 L1884.37,637.681 M1884.37,626.126 L1892.93,622.606 L1892.93,608.595 L1884.37,612.181 L1884.37,626.126 "/>
<path class="FiguredBass" d="M2297.8,591.528 C2299.48,591.528 2301.25,591.285 2303.11,590.798 L2306.1,590.001 C2306.68,590.001 2307.13,590.222 2307.46,590.665 C2307.79,591.108 2307.76,591.506 2307.36,591.86 L2276.48,627.786 L2294.61,627.786 L2294.61,613.575 C2294.61,612.557 2294.89,611.771 2295.44,611.218 C2296,610.664 2296.7,610.222 2297.57,609.889 C2298.43,609.557 2299.56,608.572 2300.95,606.934 C2302.35,605.296 2303.69,603.083 2304.97,600.294 C2305.19,599.851 2305.53,599.63 2305.97,599.63 C2306.9,599.63 2307.36,600.139 2307.36,601.157 L2307.36,627.786 L2315.2,627.786 C2316.31,627.786 2316.86,628.295 2316.86,629.313 C2316.86,630.42 2316.31,630.973 2315.2,630.973 L2307.36,630.973 L2307.36,631.837 C2307.36,634.582 2308.09,636.972 2309.55,639.009 C2311.02,641.045 2312.9,642.063 2315.2,642.063 C2316.08,642.063 2316.53,642.462 2316.53,643.259 C2316.53,644.144 2316.08,644.587 2315.2,644.587 C2313.61,644.587 2311.24,644.354 2308.09,643.889 C2304.95,643.425 2302.57,643.192 2300.95,643.192 C2299.34,643.192 2296.96,643.425 2293.82,643.889 C2290.67,644.354 2288.3,644.587 2286.71,644.587 C2285.83,644.587 2285.38,644.144 2285.38,643.259 C2285.38,642.462 2285.83,642.063 2286.71,642.063 C2289.01,642.063 2290.91,641.045 2292.39,639.009 C2293.87,636.972 2294.61,634.582 2294.61,631.837 L2294.61,630.973 L2276.48,630.973 C2275.33,630.973 2274.48,630.697 2273.93,630.143 C2273.37,629.59 2273.1,629.026 2273.1,628.45 C2273.1,628.229 2273.62,627.465 2274.66,626.159 C2275.7,624.853 2276.97,623.115 2278.48,620.946 C2279.98,618.777 2281.48,616.309 2282.96,613.542 C2284.44,610.775 2285.7,607.455 2286.74,603.581 C2287.78,599.707 2288.3,595.8 2288.3,591.86 C2288.3,590.709 2288.79,590.134 2289.77,590.134 C2289.9,590.134 2290.36,590.244 2291.16,590.466 C2291.96,590.687 2292.98,590.919 2294.21,591.163 C2295.45,591.406 2296.65,591.528 2297.8,591.528"/>
<path class="FiguredBass" d="M2306.77,691.403 C2306.77,692.111 2307.16,692.798 2307.96,693.462 C2308.76,694.126 2309.63,694.757 2310.58,695.354 C2311.54,695.952 2312.41,697.081 2313.21,698.741 C2314,700.401 2314.4,702.493 2314.4,705.016 C2314.4,709.886 2312.56,713.649 2308.89,716.306 C2305.22,718.962 2300.57,720.29 2294.95,720.29 C2290.43,720.29 2286.5,719.161 2283.16,716.903 C2279.82,714.645 2278.14,711.679 2278.14,708.005 C2278.14,706.057 2278.85,704.363 2280.27,702.925 C2281.69,701.486 2283.38,700.766 2285.35,700.766 C2287.32,700.766 2288.99,701.475 2290.36,702.891 C2291.74,704.308 2292.42,706.013 2292.42,708.005 C2292.42,708.89 2291.69,709.853 2290.23,710.893 C2288.77,711.934 2288.04,712.897 2288.04,713.782 C2288.04,715.154 2288.71,716.162 2290.06,716.804 C2291.41,717.445 2293.04,717.766 2294.95,717.766 C2297.42,717.766 2299.18,716.538 2300.22,714.081 C2301.26,711.624 2301.78,708.602 2301.78,705.016 L2301.78,703.29 C2301.78,700.899 2301.71,699.084 2301.55,697.845 C2301.4,696.605 2300.91,695.498 2300.09,694.524 C2299.27,693.55 2298.02,693.063 2296.34,693.063 L2287.64,693.063 C2286.62,693.063 2286.11,692.51 2286.11,691.403 C2286.11,690.385 2286.62,689.876 2287.64,689.876 L2296.34,689.876 C2298.15,689.876 2299.57,689.19 2300.59,687.817 C2300.94,687.33 2301.23,686.533 2301.45,685.427 C2301.67,683.966 2301.78,681.863 2301.78,679.118 L2301.78,678.255 C2301.78,671.658 2299.35,668.36 2294.48,668.36 C2290.19,668.36 2288.04,669.556 2288.04,671.946 C2288.04,672.743 2288.69,673.595 2290,674.503 C2291.3,675.41 2291.96,676.263 2291.96,677.059 C2291.96,678.786 2291.35,680.269 2290.13,681.509 C2288.91,682.748 2287.43,683.368 2285.68,683.368 C2283.93,683.368 2282.46,682.748 2281.27,681.509 C2280.07,680.269 2279.47,678.786 2279.47,677.059 C2279.47,673.651 2280.96,670.928 2283.92,668.891 C2286.89,666.855 2290.41,665.837 2294.48,665.837 C2299.84,665.837 2304.24,666.866 2307.7,668.925 C2311.15,670.983 2312.87,674.093 2312.87,678.255 C2312.87,681.221 2312.56,683.523 2311.95,685.161 C2311.33,686.799 2310.62,687.795 2309.82,688.149 C2309.02,688.503 2308.31,688.913 2307.7,689.378 C2307.08,689.843 2306.77,690.518 2306.77,691.403"/>
<path class="FiguredBass" d="M2666.07,592.657 C2662.79,592.657 2660.61,593.974 2659.53,596.608 C2658.44,599.242 2657.9,602.972 2657.9,607.798 L2657.9,615.634 C2660.2,614.704 2662.19,614.217 2663.88,614.173 C2669.63,614.173 2674.16,615.445 2677.46,617.991 C2680.75,620.537 2682.4,624.322 2682.4,629.347 C2682.4,634.371 2680.73,638.167 2677.39,640.735 C2674.05,643.303 2669.54,644.587 2663.88,644.587 C2658.08,644.587 2653.54,641.897 2650.26,636.518 C2646.99,631.139 2645.35,624.753 2645.35,617.36 C2645.35,610.011 2647.25,603.636 2651.06,598.235 C2654.87,592.834 2659.87,590.134 2666.07,590.134 C2670.14,590.134 2673.66,591.163 2676.63,593.222 C2679.59,595.28 2681.08,597.992 2681.08,601.356 C2681.08,603.304 2680.37,604.986 2678.95,606.403 C2677.53,607.82 2675.84,608.528 2673.87,608.528 C2671.9,608.528 2670.21,607.82 2668.79,606.403 C2667.37,604.986 2666.66,603.304 2666.66,601.356 C2666.66,599.453 2667.37,597.77 2668.79,596.309 C2669.28,595.734 2669.96,595.247 2670.85,594.848 C2670.63,594.273 2670.18,593.83 2669.52,593.52 C2668.55,592.945 2667.4,592.657 2666.07,592.657 M2669.32,619.817 C2668.52,617.736 2666.78,616.696 2664.08,616.696 C2661.37,616.696 2659.7,617.736 2659.06,619.817 C2658.42,621.898 2658.1,625.063 2658.1,629.313 C2658.1,634.316 2658.42,637.681 2659.06,639.407 C2659.7,641.134 2661.37,641.997 2664.08,641.997 C2666.78,641.997 2668.52,640.957 2669.32,638.876 C2670.12,636.795 2670.52,633.619 2670.52,629.347 C2670.52,625.074 2670.12,621.898 2669.32,619.817"/>
<path class="FiguredBass" d="M2649.86,665.837 C2649.86,665.837 2650.93,665.992 2653.05,666.302 C2653.98,666.434 2655.02,666.567 2656.17,666.7 C2659.23,667.054 2662.17,667.231 2665,667.231 C2667.84,667.231 2670.83,667.054 2673.97,666.7 C2675.21,666.567 2676.29,666.434 2677.22,666.302 L2680.48,665.837 C2681.14,665.837 2681.64,666.058 2681.97,666.501 C2682.3,666.944 2682.27,667.298 2681.87,667.563 C2675.1,674.337 2665.56,677.723 2653.25,677.723 C2652.76,677.723 2652.33,677.901 2651.96,678.255 C2651.58,678.609 2651.39,679.052 2651.39,679.583 L2651.39,690.009 C2654.53,686.91 2658.34,685.36 2662.81,685.36 C2669.28,685.36 2674.27,686.81 2677.79,689.71 C2681.31,692.61 2683.07,697.003 2683.07,702.891 C2683.07,707.894 2681.08,712.044 2677.09,715.343 C2673.11,718.641 2668.35,720.29 2662.81,720.29 C2658.03,720.29 2653.88,719.205 2650.36,717.036 C2646.84,714.867 2645.08,711.856 2645.08,708.005 C2645.08,706.057 2645.79,704.363 2647.21,702.925 C2648.62,701.486 2650.32,700.766 2652.29,700.766 C2654.26,700.766 2655.93,701.475 2657.3,702.891 C2658.67,704.308 2659.36,706.013 2659.36,708.005 C2659.36,708.89 2658.63,709.853 2657.17,710.893 C2655.71,711.934 2654.98,712.897 2654.98,713.782 C2654.98,716.438 2657.59,717.766 2662.81,717.766 C2667.9,717.766 2670.45,712.808 2670.45,702.891 C2670.45,693.329 2667.9,688.526 2662.81,688.481 C2658.25,688.481 2655.07,689.411 2653.25,691.27 C2651.44,693.13 2650.31,694.059 2649.86,694.059 C2648.76,694.059 2648.23,693.506 2648.27,692.399 L2648.27,667.563 C2648.27,667.076 2648.43,666.667 2648.74,666.335 C2649.05,666.003 2649.42,665.837 2649.86,665.837"/>
<path class="FiguredBass" d="M3045.93,637.681 L3045.93,651.559 C3045.93,652.932 3045.23,653.618 3043.84,653.618 C3042.44,653.618 3041.75,652.932 3041.75,651.559 L3041.75,639.473 L3039.62,640.337 C3039.4,640.425 3039.11,640.47 3038.76,640.47 C3038.18,640.47 3037.67,640.248 3037.23,639.806 C3036.79,639.363 3036.57,638.854 3036.57,638.278 L3036.57,631.505 C3036.57,630.531 3037.03,629.845 3037.96,629.446 L3041.75,627.852 L3041.75,613.907 L3039.62,614.77 C3039.49,614.815 3039.31,614.837 3039.09,614.837 C3039,614.837 3038.89,614.837 3038.76,614.837 C3038.09,614.748 3037.56,614.505 3037.16,614.106 C3036.77,613.708 3036.57,613.243 3036.57,612.712 L3036.57,605.938 C3036.57,605.009 3037.03,604.345 3037.96,603.946 L3041.75,602.352 L3041.75,588.208 C3041.75,586.835 3042.44,586.149 3043.84,586.149 C3045.23,586.149 3045.93,586.835 3045.93,588.208 L3045.93,600.626 L3054.5,597.04 L3054.5,583.161 C3054.5,581.789 3055.18,581.102 3056.56,581.102 C3057.93,581.102 3058.61,581.789 3058.61,583.161 L3058.61,595.38 L3060.94,594.384 C3061.16,594.295 3061.4,594.251 3061.67,594.251 C3062.24,594.251 3062.76,594.472 3063.23,594.915 C3063.69,595.358 3063.93,595.867 3063.93,596.442 L3063.93,603.216 C3063.93,604.19 3063.44,604.876 3062.47,605.274 L3058.61,606.868 L3058.61,620.88 L3060.94,619.95 C3061.07,619.906 3061.23,619.884 3061.4,619.884 C3061.49,619.884 3061.58,619.884 3061.67,619.884 C3062.42,620.016 3062.99,620.26 3063.36,620.614 C3063.74,620.968 3063.93,621.433 3063.93,622.009 L3063.93,628.782 C3063.93,629.712 3063.44,630.376 3062.47,630.774 L3058.61,632.368 L3058.61,646.513 C3058.61,647.885 3057.93,648.571 3056.56,648.571 C3055.18,648.571 3054.5,647.885 3054.5,646.513 L3054.5,634.095 L3045.93,637.681 M3045.93,626.126 L3054.5,622.606 L3054.5,608.595 L3045.93,612.181 L3045.93,626.126 "/>
<path class="FiguredBass" d="M3442.9,639.381 L3442.9,653.26 C3442.9,654.633 3442.2,655.319 3440.81,655.319 C3439.41,655.319 3438.71,654.633 3438.71,653.26 L3438.71,641.174 L3436.59,642.038 C3436.37,642.126 3436.08,642.17 3435.73,642.17 C3435.15,642.17 3434.64,641.949 3434.2,641.506 C3433.76,641.064 3433.53,640.554 3433.53,639.979 L3433.53,633.206 C3433.53,632.232 3434,631.545 3434.93,631.147 L3438.71,629.553 L3438.71,615.608 L3436.59,616.471 C3436.46,616.515 3436.28,616.538 3436.06,616.538 C3435.97,616.538 3435.86,616.538 3435.73,616.538 C3435.06,616.449 3434.53,616.206 3434.13,615.807 C3433.73,615.409 3433.53,614.944 3433.53,614.413 L3433.53,607.639 C3433.53,606.709 3434,606.045 3434.93,605.647 L3438.71,604.053 L3438.71,589.909 C3438.71,588.536 3439.41,587.85 3440.81,587.85 C3442.2,587.85 3442.9,588.536 3442.9,589.909 L3442.9,602.327 L3451.46,598.741 L3451.46,584.862 C3451.46,583.489 3452.15,582.803 3453.52,582.803 C3454.9,582.803 3455.58,583.489 3455.58,584.862 L3455.58,597.081 L3457.91,596.084 C3458.13,595.996 3458.37,595.952 3458.64,595.952 C3459.21,595.952 3459.73,596.173 3460.2,596.616 C3460.66,597.058 3460.89,597.567 3460.89,598.143 L3460.89,604.916 C3460.89,605.89 3460.41,606.577 3459.43,606.975 L3455.58,608.569 L3455.58,622.581 L3457.91,621.651 C3458.04,621.607 3458.19,621.584 3458.37,621.584 C3458.46,621.584 3458.55,621.584 3458.64,621.584 C3459.39,621.717 3459.95,621.961 3460.33,622.315 C3460.71,622.669 3460.89,623.134 3460.89,623.709 L3460.89,630.483 C3460.89,631.413 3460.41,632.077 3459.43,632.475 L3455.58,634.069 L3455.58,648.213 C3455.58,649.586 3454.9,650.272 3453.52,650.272 C3452.15,650.272 3451.46,649.586 3451.46,648.213 L3451.46,635.795 L3442.9,639.381 M3442.9,627.827 L3451.46,624.307 L3451.46,610.295 L3442.9,613.881 L3442.9,627.827 "/>
<path class="StaffText" d="M380.392,222.095 L329.477,222.095 L328.202,245.725 L331.857,245.725 C332.452,241.475 333.132,238.245 334.152,235.525 C336.362,229.235 340.442,226.09 346.222,226.09 C349.027,226.09 350.217,227.025 350.217,229.15 L350.217,273.01 C350.217,277.345 350.217,277.515 349.707,278.28 C349.027,279.13 347.412,279.47 342.567,279.47 L340.357,279.47 L340.357,283.465 L369.512,283.465 L369.512,279.47 L367.302,279.47 C362.542,279.47 360.927,279.13 360.247,278.28 C359.737,277.515 359.737,277.345 359.737,273.01 L359.737,229.15 C359.737,227.025 360.927,226.09 363.732,226.09 C368.917,226.09 373.082,228.98 375.207,234.08 C376.482,237.225 377.332,240.88 378.012,245.725 L381.667,245.725 L380.392,222.095 M402.488,243.855 L386.508,244.79 L386.508,248.445 L390.843,248.445 C394.073,248.53 394.498,249.04 394.498,252.695 L394.498,273.01 L394.498,277.005 C394.413,278.28 394.328,278.79 393.988,279.215 C393.393,279.98 391.778,280.32 388.123,280.405 L387.528,280.405 L387.528,283.465 L409.543,283.465 L409.543,280.405 L408.948,280.405 C403.253,280.235 402.488,279.81 402.488,276.75 L402.488,273.01 L402.488,243.855 M398.493,222.69 C395.773,222.69 393.563,224.9 393.563,227.62 C393.563,230.34 395.773,232.55 398.408,232.55 C401.213,232.55 403.423,230.34 403.423,227.62 C403.423,224.9 401.213,222.69 398.493,222.69 M451.268,264.34 C451.353,251.59 444.128,242.58 433.758,242.58 C422.878,242.58 414.718,252.015 414.718,264.765 C414.718,276.75 422.453,284.74 433.928,284.74 C442.088,284.74 447.783,280.745 451.268,272.67 L448.293,271.055 C444.808,277.6 441.238,280.15 435.543,280.15 C431.208,280.15 428.063,278.365 425.853,274.54 C424.323,271.99 423.643,269.015 423.728,264.34 L451.268,264.34 M423.813,260.685 C423.813,258.05 424.153,256.18 425.003,253.8 C426.788,248.7 429.508,246.235 433.673,246.235 C438.773,246.235 442.173,250.74 442.173,257.625 C442.173,260.005 441.408,260.685 438.688,260.685 L423.813,260.685 M471.073,243.855 L456.028,244.79 L456.028,248.445 L459.513,248.445 C462.743,248.53 463.168,249.04 463.168,252.695 L463.168,273.01 L463.168,277.005 C463.083,278.28 462.998,278.79 462.658,279.215 C462.063,279.98 460.363,280.32 456.708,280.405 L456.368,280.405 L456.368,283.465 L479.063,283.465 L479.063,280.405 L477.533,280.405 C471.838,280.235 471.073,279.81 471.073,276.75 L471.073,273.01 L471.073,272.16 C471.158,257.88 476.258,247 482.888,246.66 C481.698,248.02 481.358,248.87 481.358,250.485 C481.358,253.205 483.313,255.16 486.033,255.16 C489.178,255.16 491.218,252.865 491.218,249.465 C491.218,245.3 488.328,242.58 483.823,242.58 C478.468,242.58 473.878,246.83 471.073,254.395 L471.073,243.855 M524.451,270.97 C521.731,277.09 518.841,279.555 514.421,279.555 C507.621,279.555 503.371,273.35 503.371,263.405 C503.371,253.035 507.536,246.235 513.826,246.235 C516.376,246.235 518.586,247.425 518.586,248.785 C518.586,249.04 518.501,249.295 518.076,249.805 C516.716,251.42 516.376,252.27 516.376,253.715 C516.376,256.52 518.501,258.475 521.476,258.475 C524.536,258.475 526.661,256.095 526.661,252.695 C526.661,246.915 520.966,242.58 513.401,242.58 C502.351,242.58 494.446,251.59 494.446,264.34 C494.446,276.41 501.671,284.74 512.211,284.74 C519.776,284.74 524.111,281.255 527.766,272.245 L524.451,270.97 M568.815,264.34 C568.9,251.59 561.675,242.58 551.305,242.58 C540.425,242.58 532.265,252.015 532.265,264.765 C532.265,276.75 540,284.74 551.475,284.74 C559.635,284.74 565.33,280.745 568.815,272.67 L565.84,271.055 C562.355,277.6 558.785,280.15 553.09,280.15 C548.755,280.15 545.61,278.365 543.4,274.54 C541.87,271.99 541.19,269.015 541.275,264.34 L568.815,264.34 M541.36,260.685 C541.36,258.05 541.7,256.18 542.55,253.8 C544.335,248.7 547.055,246.235 551.22,246.235 C556.32,246.235 559.72,250.74 559.72,257.625 C559.72,260.005 558.955,260.685 556.235,260.685 L541.36,260.685 M634.94,264.34 C635.025,251.59 627.8,242.58 617.43,242.58 C606.55,242.58 598.39,252.015 598.39,264.765 C598.39,276.75 606.125,284.74 617.6,284.74 C625.76,284.74 631.455,280.745 634.94,272.67 L631.965,271.055 C628.48,277.6 624.91,280.15 619.215,280.15 C614.88,280.15 611.735,278.365 609.525,274.54 C607.995,271.99 607.315,269.015 607.4,264.34 L634.94,264.34 M607.485,260.685 C607.485,258.05 607.825,256.18 608.675,253.8 C610.46,248.7 613.18,246.235 617.345,246.235 C622.445,246.235 625.845,250.74 625.845,257.625 C625.845,260.005 625.08,260.685 622.36,260.685 L607.485,260.685 M652.702,243.855 L652.702,227.025 L649.217,227.025 C648.367,238.075 644.627,243.685 637.742,244.195 L637.742,247.51 L644.712,247.51 L644.712,269.185 C644.712,275.135 644.882,277.26 645.732,279.215 C647.092,282.785 650.492,284.74 655.422,284.74 C663.072,284.74 668.002,278.96 668.002,269.95 C668.002,269.44 668.002,268.845 667.917,267.995 L664.347,267.995 C664.092,275.645 661.882,279.555 657.717,279.555 C655.762,279.555 654.062,278.535 653.467,277.09 C652.957,275.9 652.702,273.775 652.702,270.715 L652.702,247.51 L665.197,247.51 L665.197,243.855 L652.702,243.855 M731.065,243.855 L727.07,249.635 C723.67,244.875 719.505,242.58 714.15,242.58 C703.78,242.58 695.96,252.015 695.96,264.595 C695.96,276.24 703.27,284.74 713.215,284.74 C718.485,284.74 721.375,283.21 724.775,278.535 L724.775,290.18 L724.775,294.26 C724.69,295.45 724.605,295.96 724.265,296.385 C723.67,297.15 722.055,297.49 718.315,297.575 L717.38,297.575 L717.38,300.635 L739.48,300.635 L739.48,297.575 L739.14,297.575 C733.53,297.405 732.765,296.98 732.765,293.92 L732.765,290.18 L732.765,257.2 C732.85,252.355 732.85,252.015 732.85,251.08 C733.02,249.465 733.275,248.275 734.21,243.855 L731.065,243.855 M714.915,246.235 C718.315,246.235 721.375,248.445 722.99,252.015 C724.265,254.82 724.775,257.795 724.775,262.725 C724.775,274.37 721.545,280.15 714.915,280.15 C708.54,280.15 704.885,274.285 704.885,264.085 C704.885,252.1 708.2,246.235 714.915,246.235 M774.06,284.06 L789.53,283.465 L789.53,279.81 L787.405,279.81 C782.475,279.64 782.05,279.13 782.05,273.605 L782.05,243.855 L766.07,244.79 L766.07,248.445 L770.405,248.445 C773.635,248.53 774.06,249.04 774.06,252.695 L774.06,263.15 C774.06,267.995 773.55,270.885 772.275,273.605 C770.49,277.43 767.09,279.555 762.925,279.555 C760.29,279.555 758.08,278.62 756.975,276.92 C755.87,275.305 755.7,274.455 755.7,269.78 L755.7,243.855 L740.825,244.79 L740.825,248.445 L744.055,248.445 C747.285,248.53 747.71,249.04 747.71,252.695 L747.71,271.055 C747.71,275.39 748.05,277.345 749.325,279.3 C751.62,282.785 755.7,284.74 760.8,284.74 C766.41,284.74 770.32,282.445 774.06,277.005 L774.06,284.06 M829.382,256.095 C829.382,250.74 828.447,248.02 825.982,245.98 C823.177,243.685 819.012,242.58 813.572,242.58 C803.967,242.58 796.997,247.085 796.997,253.29 C796.997,256.435 798.952,258.475 801.927,258.475 C804.647,258.475 806.517,256.69 806.517,254.14 C806.517,253.035 806.092,251.845 805.242,250.655 C804.732,250.06 804.647,249.89 804.647,249.465 C804.647,247.765 808.047,246.235 812.127,246.235 C814.847,246.235 817.822,247.085 819.182,248.36 C820.797,249.72 821.392,251.76 821.392,255.585 L821.392,258.9 C812.552,260.43 809.747,261.11 805.582,262.725 C798.187,265.445 794.702,269.355 794.702,274.795 C794.702,280.915 799.462,284.74 807.027,284.74 C812.892,284.74 818.162,282.36 821.817,278.025 C823.177,282.36 825.302,284.06 829.297,284.06 C833.122,284.06 837.117,281.595 837.117,279.13 C837.117,278.535 836.777,278.11 836.267,278.11 C835.927,278.11 835.587,278.195 834.992,278.45 C833.802,278.96 833.292,279.045 832.612,279.045 C830.232,279.045 829.382,277.515 829.382,273.18 L829.382,256.095 M821.392,266.465 C821.392,271.565 821.137,272.755 819.692,274.965 C817.567,278.11 813.742,280.235 810.002,280.235 C806.092,280.235 803.287,277.43 803.287,273.605 C803.287,270.035 805.072,267.485 808.812,265.7 C811.447,264.51 814.762,263.66 821.392,262.555 L821.392,266.465 M855.042,243.855 L839.997,244.79 L839.997,248.445 L843.482,248.445 C846.712,248.53 847.137,249.04 847.137,252.695 L847.137,273.01 L847.137,277.005 C847.052,278.28 846.967,278.79 846.627,279.215 C846.032,279.98 844.332,280.32 840.677,280.405 L840.337,280.405 L840.337,283.465 L863.032,283.465 L863.032,280.405 L861.502,280.405 C855.807,280.235 855.042,279.81 855.042,276.75 L855.042,273.01 L855.042,272.16 C855.127,257.88 860.227,247 866.857,246.66 C865.667,248.02 865.327,248.87 865.327,250.485 C865.327,253.205 867.282,255.16 870.002,255.16 C873.147,255.16 875.187,252.865 875.187,249.465 C875.187,245.3 872.297,242.58 867.792,242.58 C862.437,242.58 857.847,246.83 855.042,254.395 L855.042,243.855 M894.046,243.855 L894.046,227.025 L890.561,227.025 C889.711,238.075 885.971,243.685 879.086,244.195 L879.086,247.51 L886.056,247.51 L886.056,269.185 C886.056,275.135 886.226,277.26 887.076,279.215 C888.436,282.785 891.836,284.74 896.766,284.74 C904.416,284.74 909.346,278.96 909.346,269.95 C909.346,269.44 909.346,268.845 909.261,267.995 L905.691,267.995 C905.436,275.645 903.226,279.555 899.061,279.555 C897.106,279.555 895.406,278.535 894.811,277.09 C894.301,275.9 894.046,273.775 894.046,270.715 L894.046,247.51 L906.541,247.51 L906.541,243.855 L894.046,243.855 M950.737,264.34 C950.822,251.59 943.597,242.58 933.227,242.58 C922.347,242.58 914.187,252.015 914.187,264.765 C914.187,276.75 921.922,284.74 933.397,284.74 C941.557,284.74 947.252,280.745 950.737,272.67 L947.762,271.055 C944.277,277.6 940.707,280.15 935.012,280.15 C930.677,280.15 927.532,278.365 925.322,274.54 C923.792,271.99 923.112,269.015 923.197,264.34 L950.737,264.34 M923.282,260.685 C923.282,258.05 923.622,256.18 924.472,253.8 C926.257,248.7 928.977,246.235 933.142,246.235 C938.242,246.235 941.642,250.74 941.642,257.625 C941.642,260.005 940.877,260.685 938.157,260.685 L923.282,260.685 M1039.47,269.1 C1038.45,274.455 1035.65,277.685 1031.91,277.685 C1028.68,277.685 1025.87,276.155 1022.56,272.5 C1025.96,268.335 1026.38,267.74 1028.17,264.34 C1033.35,254.225 1034.37,253.205 1040.41,252.78 L1041.34,252.78 L1041.34,249.125 L1017.37,249.125 L1017.37,252.78 L1018.22,252.78 C1023.24,252.78 1025.87,254.14 1025.87,256.775 C1025.87,260.43 1023.58,265.445 1019.92,269.61 C1015.84,264.765 1011,257.455 1006.24,248.53 C1010.83,246.49 1012.27,245.725 1014.48,244.195 C1018.39,241.475 1020.94,236.8 1020.94,232.295 C1020.94,225.41 1015.59,220.82 1007.68,220.82 C998.757,220.82 992.807,226.855 992.807,235.865 C992.807,239.605 993.742,242.92 996.377,248.53 C986.857,253.035 981.672,259.75 981.672,267.4 C981.672,271.65 983.542,276.325 986.517,279.555 C989.662,282.955 994.167,284.74 999.947,284.74 C1006.07,284.74 1010.74,283.04 1016.27,278.705 C1020.35,282.87 1023.66,284.4 1028.34,284.4 C1033.78,284.4 1037.35,282.53 1040.32,277.94 C1042.02,275.39 1042.79,272.925 1043.21,269.61 L1039.47,269.1 M1004.45,244.96 C1001.99,239.86 1000.8,236.035 1000.8,232.89 C1000.8,227.96 1003.52,224.475 1007.43,224.475 C1011.34,224.475 1014.14,227.79 1014.14,232.465 C1014.14,235.695 1012.7,239.095 1010.49,241.22 C1009.13,242.495 1007.85,243.26 1004.45,244.96 M997.992,252.015 C1003.52,262.98 1006.41,267.4 1013.63,275.815 C1009.89,278.195 1007.94,278.96 1005.05,278.96 C997.482,278.96 990.767,271.31 990.767,262.81 C990.767,258.135 992.892,254.99 997.992,252.015 M1129.98,285.165 C1129.56,290.605 1128.71,292.645 1126.58,292.645 C1124.12,292.645 1122.08,289.075 1119.19,279.81 C1128.03,272.5 1132.62,262.98 1132.62,252.1 C1132.62,234.59 1119.61,220.82 1103.21,220.82 C1096.24,220.82 1090.29,223.03 1085.1,227.705 C1078.13,233.91 1074.05,243.175 1074.05,252.865 C1074.05,270.715 1087.14,284.74 1103.8,284.74 C1106.69,284.74 1108.56,284.485 1111.37,283.465 C1111.71,293.665 1115.96,299.53 1122.93,299.53 C1129.73,299.53 1133.89,294.09 1133.81,285.165 L1129.98,285.165 M1116.98,273.35 C1114.77,265.36 1109.58,260.94 1102.44,260.94 C1095.3,260.94 1090.2,265.7 1090.2,272.5 C1090.2,272.755 1090.2,273.35 1090.29,274.03 C1086.89,269.525 1085.27,262.725 1085.27,252.865 C1085.27,244.535 1086.72,237.48 1089.61,232.295 C1092.24,227.535 1097.17,224.815 1103.29,224.815 C1109.75,224.815 1115.28,227.96 1117.91,233.23 C1120.38,237.99 1121.4,243.855 1121.4,252.61 C1121.4,262.555 1120.21,268.08 1116.98,273.35 M1111.03,278.875 C1108.48,280.235 1106.35,280.745 1103.04,280.745 C1097.43,280.745 1094.11,278.025 1094.11,273.35 C1094.11,268.335 1097.34,264.935 1102.02,264.935 C1108.05,264.935 1111.03,269.61 1111.03,278.875 M1171.79,284.06 L1187.26,283.465 L1187.26,279.81 L1185.14,279.81 C1180.21,279.64 1179.78,279.13 1179.78,273.605 L1179.78,243.855 L1163.8,244.79 L1163.8,248.445 L1168.14,248.445 C1171.37,248.53 1171.79,249.04 1171.79,252.695 L1171.79,263.15 C1171.79,267.995 1171.28,270.885 1170.01,273.605 C1168.22,277.43 1164.82,279.555 1160.66,279.555 C1158.02,279.555 1155.81,278.62 1154.71,276.92 C1153.6,275.305 1153.43,274.455 1153.43,269.78 L1153.43,243.855 L1138.56,244.79 L1138.56,248.445 L1141.79,248.445 C1145.02,248.53 1145.44,249.04 1145.44,252.695 L1145.44,271.055 C1145.44,275.39 1145.78,277.345 1147.06,279.3 C1149.35,282.785 1153.43,284.74 1158.53,284.74 C1164.14,284.74 1168.05,282.445 1171.79,277.005 L1171.79,284.06 M1206.21,243.855 L1190.23,244.79 L1190.23,248.445 L1194.56,248.445 C1197.79,248.53 1198.22,249.04 1198.22,252.695 L1198.22,273.01 L1198.22,277.005 C1198.13,278.28 1198.05,278.79 1197.71,279.215 C1197.11,279.98 1195.5,280.32 1191.84,280.405 L1191.25,280.405 L1191.25,283.465 L1213.26,283.465 L1213.26,280.405 L1212.67,280.405 C1206.97,280.235 1206.21,279.81 1206.21,276.75 L1206.21,273.01 L1206.21,243.855 M1202.21,222.69 C1199.49,222.69 1197.28,224.9 1197.28,227.62 C1197.28,230.34 1199.49,232.55 1202.13,232.55 C1204.93,232.55 1207.14,230.34 1207.14,227.62 C1207.14,224.9 1204.93,222.69 1202.21,222.69 M1232.46,243.855 L1217.76,244.79 L1217.76,248.445 L1220.82,248.445 C1224.05,248.53 1224.47,249.04 1224.47,252.695 L1224.47,273.01 L1224.47,275.05 L1224.47,277.005 C1224.39,278.28 1224.3,278.79 1223.96,279.215 C1223.37,279.98 1221.75,280.32 1218.1,280.405 L1217.76,280.405 L1217.76,283.465 L1239.26,283.465 L1239.26,280.405 L1238.92,280.405 C1233.23,280.235 1232.46,279.81 1232.46,276.75 L1232.46,273.01 L1232.46,264.17 C1232.46,260.005 1233.06,256.18 1233.99,254.225 C1235.78,250.4 1239.6,247.765 1243.26,247.765 C1245.47,247.765 1248.02,248.955 1249.29,250.74 C1250.57,252.61 1251.16,255.16 1251.16,259.24 L1251.16,273.01 L1251.16,277.005 C1251.08,278.28 1250.99,278.79 1250.65,279.215 C1250.06,279.98 1248.36,280.32 1244.7,280.405 L1244.36,280.405 L1244.36,283.465 L1265.87,283.465 L1265.87,280.405 L1265.53,280.405 C1259.92,280.235 1259.15,279.81 1259.15,276.75 L1259.15,273.01 L1259.15,259.665 C1259.15,253.545 1258.9,252.015 1257.37,249.125 C1255.24,245.045 1250.99,242.58 1245.89,242.58 C1240.37,242.58 1236.2,245.13 1232.46,250.74 L1232.46,243.855 M1283.87,243.855 L1283.87,227.025 L1280.39,227.025 C1279.54,238.075 1275.8,243.685 1268.91,244.195 L1268.91,247.51 L1275.88,247.51 L1275.88,269.185 C1275.88,275.135 1276.05,277.26 1276.9,279.215 C1278.26,282.785 1281.66,284.74 1286.59,284.74 C1294.24,284.74 1299.17,278.96 1299.17,269.95 C1299.17,269.44 1299.17,268.845 1299.09,267.995 L1295.52,267.995 C1295.26,275.645 1293.05,279.555 1288.89,279.555 C1286.93,279.555 1285.23,278.535 1284.64,277.09 C1284.13,275.9 1283.87,273.775 1283.87,270.715 L1283.87,247.51 L1296.37,247.51 L1296.37,243.855 L1283.87,243.855 M1340.57,264.34 C1340.65,251.59 1333.43,242.58 1323.06,242.58 C1312.18,242.58 1304.02,252.015 1304.02,264.765 C1304.02,276.75 1311.75,284.74 1323.23,284.74 C1331.39,284.74 1337.08,280.745 1340.57,272.67 L1337.59,271.055 C1334.11,277.6 1330.54,280.15 1324.84,280.15 C1320.51,280.15 1317.36,278.365 1315.15,274.54 C1313.62,271.99 1312.94,269.015 1313.03,264.34 L1340.57,264.34 M1313.11,260.685 C1313.11,258.05 1313.45,256.18 1314.3,253.8 C1316.09,248.7 1318.81,246.235 1322.97,246.235 C1328.07,246.235 1331.47,250.74 1331.47,257.625 C1331.47,260.005 1330.71,260.685 1327.99,260.685 L1313.11,260.685 M1406.69,264.34 C1406.78,251.59 1399.55,242.58 1389.18,242.58 C1378.3,242.58 1370.14,252.015 1370.14,264.765 C1370.14,276.75 1377.88,284.74 1389.35,284.74 C1397.51,284.74 1403.21,280.745 1406.69,272.67 L1403.72,271.055 C1400.23,277.6 1396.66,280.15 1390.97,280.15 C1386.63,280.15 1383.49,278.365 1381.28,274.54 C1379.75,271.99 1379.07,269.015 1379.15,264.34 L1406.69,264.34 M1379.24,260.685 C1379.24,258.05 1379.58,256.18 1380.43,253.8 C1382.21,248.7 1384.93,246.235 1389.1,246.235 C1394.2,246.235 1397.6,250.74 1397.6,257.625 C1397.6,260.005 1396.83,260.685 1394.11,260.685 L1379.24,260.685 M1424.45,243.855 L1424.45,227.025 L1420.97,227.025 C1420.12,238.075 1416.38,243.685 1409.49,244.195 L1409.49,247.51 L1416.46,247.51 L1416.46,269.185 C1416.46,275.135 1416.63,277.26 1417.48,279.215 C1418.84,282.785 1422.24,284.74 1427.17,284.74 C1434.82,284.74 1439.75,278.96 1439.75,269.95 C1439.75,269.44 1439.75,268.845 1439.67,267.995 L1436.1,267.995 C1435.84,275.645 1433.63,279.555 1429.47,279.555 C1427.51,279.555 1425.81,278.535 1425.22,277.09 C1424.71,275.9 1424.45,273.775 1424.45,270.715 L1424.45,247.51 L1436.95,247.51 L1436.95,243.855 L1424.45,243.855 M1497.8,242.92 L1494.82,242.92 L1492.36,245.98 C1489.3,243.6 1486.24,242.58 1481.99,242.58 C1474.51,242.58 1469.58,247.425 1469.58,254.905 C1469.58,258.22 1470.68,261.025 1472.55,262.725 C1474.51,264.51 1476.46,265.36 1481.56,266.55 L1486.07,267.57 C1492.78,269.185 1495.16,270.885 1495.16,274.285 C1495.16,278.28 1491.68,281.085 1486.75,281.085 C1479.52,281.085 1474.42,276.495 1472.38,267.995 L1468.98,267.995 L1468.98,284.06 L1471.96,284.06 L1474.93,280.575 C1478.42,283.38 1482.24,284.74 1486.58,284.74 C1494.91,284.74 1500.43,279.555 1500.43,271.65 C1500.43,267.91 1499.24,265.02 1496.86,263.065 C1494.82,261.28 1493.12,260.6 1487.94,259.495 L1483.69,258.56 C1479.01,257.54 1479.01,257.54 1477.48,256.69 C1475.61,255.84 1474.51,254.055 1474.51,252.185 C1474.51,248.7 1477.74,246.32 1482.41,246.32 C1485.64,246.32 1488.28,247.425 1490.66,249.72 C1492.53,251.59 1493.46,253.29 1494.82,257.2 L1497.8,257.2 L1497.8,242.92 M1521.5,243.855 L1505.52,244.79 L1505.52,248.445 L1509.86,248.445 C1513.09,248.53 1513.51,249.04 1513.51,252.695 L1513.51,273.01 L1513.51,277.005 C1513.43,278.28 1513.34,278.79 1513,279.215 C1512.41,279.98 1510.79,280.32 1507.14,280.405 L1506.54,280.405 L1506.54,283.465 L1528.56,283.465 L1528.56,280.405 L1527.96,280.405 C1522.27,280.235 1521.5,279.81 1521.5,276.75 L1521.5,273.01 L1521.5,243.855 M1517.51,222.69 C1514.79,222.69 1512.58,224.9 1512.58,227.62 C1512.58,230.34 1514.79,232.55 1517.42,232.55 C1520.23,232.55 1522.44,230.34 1522.44,227.62 C1522.44,224.9 1520.23,222.69 1517.51,222.69 M1557.02,261.79 L1566.71,250.485 C1568.84,248.02 1570.79,246.915 1573.09,246.915 L1573.85,246.915 L1573.85,243.855 L1556.26,243.855 L1556.26,246.915 L1557.87,246.915 C1560.42,246.915 1561.7,247.51 1561.7,248.785 C1561.7,249.635 1561.1,250.825 1560,252.185 L1554.64,258.645 L1548.1,250.315 C1547.59,249.635 1547.25,248.955 1547.25,248.445 C1547.25,247.34 1548.35,246.915 1550.99,246.915 L1552.18,246.915 L1552.18,243.855 L1532.03,243.855 L1532.03,246.915 C1535.18,247.17 1536.37,247.935 1539.09,251.505 L1549.46,264.51 L1539.68,275.9 C1536.79,279.13 1534.33,280.49 1532.03,280.405 L1531.52,280.405 L1531.52,283.465 L1549.46,283.465 L1549.46,280.405 L1548.18,280.405 C1546.23,280.405 1545.8,280.32 1545.21,280.065 C1544.53,279.64 1544.02,278.875 1544.02,278.11 C1544.02,277.515 1544.27,276.75 1544.7,276.24 L1551.84,267.74 L1558.3,276.325 C1558.89,277.175 1559.4,278.28 1559.4,278.875 C1559.4,279.98 1558.13,280.405 1554.9,280.405 L1554.3,280.405 L1554.3,283.465 L1575.72,283.465 L1575.72,280.405 L1575.13,280.405 C1572.15,280.405 1570.2,279.3 1567.73,276.24 L1557.02,261.79 M1592.89,243.855 L1592.89,227.025 L1589.4,227.025 C1588.55,238.075 1584.81,243.685 1577.93,244.195 L1577.93,247.51 L1584.9,247.51 L1584.9,269.185 C1584.9,275.135 1585.07,277.26 1585.92,279.215 C1587.28,282.785 1590.68,284.74 1595.61,284.74 C1603.26,284.74 1608.19,278.96 1608.19,269.95 C1608.19,269.44 1608.19,268.845 1608.1,267.995 L1604.53,267.995 C1604.28,275.645 1602.07,279.555 1597.9,279.555 C1595.95,279.555 1594.25,278.535 1593.65,277.09 C1593.14,275.9 1592.89,273.775 1592.89,270.715 L1592.89,247.51 L1605.38,247.51 L1605.38,243.855 L1592.89,243.855 M1649.58,264.34 C1649.67,251.59 1642.44,242.58 1632.07,242.58 C1621.19,242.58 1613.03,252.015 1613.03,264.765 C1613.03,276.75 1620.77,284.74 1632.24,284.74 C1640.4,284.74 1646.1,280.745 1649.58,272.67 L1646.61,271.055 C1643.12,277.6 1639.55,280.15 1633.86,280.15 C1629.52,280.15 1626.38,278.365 1624.17,274.54 C1622.64,271.99 1621.96,269.015 1622.04,264.34 L1649.58,264.34 M1622.13,260.685 C1622.13,258.05 1622.47,256.18 1623.32,253.8 C1625.1,248.7 1627.82,246.235 1631.99,246.235 C1637.09,246.235 1640.49,250.74 1640.49,257.625 C1640.49,260.005 1639.72,260.685 1637,260.685 L1622.13,260.685 "/>
</svg>
