<?xml version="1.0" encoding="UTF-8" standalone="no"?>
<svg width="4209.44px" height="850.392px" viewBox="0 0 4209.44 850.392"
 xmlns="http://www.w3.org/2000/svg" xmlns:xlink="http://www.w3.org/1999/xlink" version="1.2" baseProfile="tiny">
<title>Exemples (3)</title>
<desc>Generated by MuseScore 3.6.2</desc>
<polyline class="StaffLines" fill="none" stroke="#000000" stroke-width="4.68" stroke-linejoin="bevel" points="70.866,325.984 4138.58,325.984"/>
<polyline class="StaffLines" fill="none" stroke="#000000" stroke-width="4.68" stroke-linejoin="bevel" points="70.866,368.504 4138.58,368.504"/>
<polyline class="StaffLines" fill="none" stroke="#000000" stroke-width="4.68" stroke-linejoin="bevel" points="70.866,411.024 4138.58,411.024"/>
<polyline class="StaffLines" fill="none" stroke="#000000" stroke-width="4.68" stroke-linejoin="bevel" points="70.866,453.543 4138.58,453.543"/>
<polyline class="StaffLines" fill="none" stroke="#000000" stroke-width="4.68" stroke-linejoin="bevel" points="70.866,496.063 4138.58,496.063"/>
<polyline class="BarLine" fill="none" stroke="#000000" stroke-width="7.65" stroke-linejoin="bevel" points="673.03,323.646 673.03,498.402"/>
<polyline class="BarLine" fill="none" stroke="#000000" stroke-width="7.65" stroke-linejoin="bevel" points="1098.61,323.646 1098.61,498.402"/>
<polyline class="BarLine" fill="none" stroke="#000000" stroke-width="7.65" stroke-linejoin="bevel" points="1539.65,323.646 1539.65,498.402"/>
<polyline class="BarLine" fill="none" stroke="#000000" stroke-width="7.65" stroke-linejoin="bevel" points="1980.7,323.646 1980.7,498.402"/>
<polyline class="BarLine" fill="none" stroke="#000000" stroke-width="7.65" stroke-linejoin="bevel" points="2406.28,323.646 2406.28,498.402"/>
<polyline class="BarLine" fill="none" stroke="#000000" stroke-width="7.65" stroke-linejoin="bevel" points="2834.9,323.646 2834.9,498.402"/>
<polyline class="BarLine" fill="none" stroke="#000000" stroke-width="7.65" stroke-linejoin="bevel" points="3263.52,323.646 3263.52,498.402"/>
<polyline class="BarLine" fill="none" stroke="#000000" stroke-width="7.65" stroke-linejoin="bevel" points="3689.1,323.646 3689.1,498.402"/>
<polyline class="BarLine" fill="none" stroke="#000000" stroke-width="7.65" stroke-linejoin="bevel" points="4097.12,323.646 4097.12,498.402"/>
<polyline class="BarLine" fill="none" stroke="#000000" stroke-width="23.39" stroke-linejoin="bevel" points="4126.89,323.646 4126.89,498.402"/>
<path class="Accidental" transform="matrix(1.70079,0,0,1.70079,1143.51,368.504)" d="M23.3,-10.6 C23.9,-10.7 24.4,-11.4 24.4,-12 L24.4,-17.9 C24.4,-18.7 23.8,-19.3 23,-19.3 L22.8,-19.3 L19.5,-18.6 L19.5,-33.5 L16.7,-33.5 L16.7,-18 L7.8,-16.2 L7.8,-30.3 L5,-30.3 L5,-15.6 L1.1,-14.8 C0.5,-14.7 0,-14 0,-13.4 L0,-13.2 L0,-7.4 L0,-7.6 C0,-6.8 0.6,-6.2 1.4,-6.2 L1.7,-6.2 L5,-6.9 L5,9.6 L1.1,10.4 C0.5,10.5 0,11.2 0,11.8 L0,17.6 C0,18.4 0.6,19 1.4,19 L1.7,19 L5,18.3 L5,33.2 L7.8,33.2 L7.8,17.7 L16.7,15.9 L16.7,30 L19.5,30 L19.5,15.3 L23.3,14.6 C23.9,14.5 24.4,13.8 24.4,13.2 L24.4,7.3 C24.4,6.5 23.8,5.9 23,5.9 L22.8,5.9 L19.5,6.6 L19.5,-9.9 L23.3,-10.6 M7.8,9.1 L7.8,-7.5 L16.7,-9.3 L16.7,7.2 L7.8,9.1 "/>
<path class="Accidental" transform="matrix(1.70079,0,0,1.70079,1584.56,347.244)" d="M23.3,-10.6 C23.9,-10.7 24.4,-11.4 24.4,-12 L24.4,-17.9 C24.4,-18.7 23.8,-19.3 23,-19.3 L22.8,-19.3 L19.5,-18.6 L19.5,-33.5 L16.7,-33.5 L16.7,-18 L7.8,-16.2 L7.8,-30.3 L5,-30.3 L5,-15.6 L1.1,-14.8 C0.5,-14.7 0,-14 0,-13.4 L0,-13.2 L0,-7.4 L0,-7.6 C0,-6.8 0.6,-6.2 1.4,-6.2 L1.7,-6.2 L5,-6.9 L5,9.6 L1.1,10.4 C0.5,10.5 0,11.2 0,11.8 L0,17.6 C0,18.4 0.6,19 1.4,19 L1.7,19 L5,18.3 L5,33.2 L7.8,33.2 L7.8,17.7 L16.7,15.9 L16.7,30 L19.5,30 L19.5,15.3 L23.3,14.6 C23.9,14.5 24.4,13.8 24.4,13.2 L24.4,7.3 C24.4,6.5 23.8,5.9 23,5.9 L22.8,5.9 L19.5,6.6 L19.5,-9.9 L23.3,-10.6 M7.8,9.1 L7.8,-7.5 L16.7,-9.3 L16.7,7.2 L7.8,9.1 "/>
<path class="Accidental" transform="matrix(1.70079,0,0,1.70079,2451.18,347.244)" d="M16.6,-18.3 C16.4,-18.5 16.1,-18.6 15.8,-18.6 C15.7,-18.6 15.5,-18.5 15.4,-18.5 L2.8,-15 L2.8,-32.5 L0,-32.5 L0,17 C0,17.8 0.6,18.3 1.4,18.3 L1.8,18.3 L14.4,14.8 L14.4,32.3 L17.1,32.3 L17.1,-17.2 C17.1,-17.6 16.9,-18.1 16.6,-18.3 M14.4,6.5 L2.8,9.7 L2.8,-6.7 L14.4,-10 L14.4,6.5 "/>
<path class="Accidental" transform="matrix(1.70079,0,0,1.70079,2879.8,368.504)" d="M16.6,-18.3 C16.4,-18.5 16.1,-18.6 15.8,-18.6 C15.7,-18.6 15.5,-18.5 15.4,-18.5 L2.8,-15 L2.8,-32.5 L0,-32.5 L0,17 C0,17.8 0.6,18.3 1.4,18.3 L1.8,18.3 L14.4,14.8 L14.4,32.3 L17.1,32.3 L17.1,-17.2 C17.1,-17.6 16.9,-18.1 16.6,-18.3 M14.4,6.5 L2.8,9.7 L2.8,-6.7 L14.4,-10 L14.4,6.5 "/>
<path class="Note" transform="matrix(1.70079,0,0,1.70079,324.111,474.803)" d="M18.7,-13.6 C4.9,-13.6 0,-6.6 0,-0.1 C0,6.4 4.9,13.4 18.7,13.4 C32.5,13.4 37.3,6.4 37.3,-0.1 C37.3,-6.6 32.5,-13.6 18.7,-13.6 M10.4,-4.5 C10.3,-4.9 10.3,-5.3 10.3,-5.7 C10.3,-6.5 10.5,-7.3 10.9,-8 C11.6,-9 12.8,-9.7 14.3,-10 C15.6,-10.3 16.3,-10.5 18.9,-10.5 L19,-10.5 C23,-10.5 24.3,-6.8 25.4,-3 L25.7,-2 C26.5,0.6 26.9,2.8 26.9,4.5 C26.9,5.7 26.7,6.8 26.3,7.6 C25.7,8.7 24.7,9.4 23,9.8 C22.1,10 20.6,10.1 20.6,10.1 C20.1,10.1 19.7,10.2 19.3,10.2 C16.1,10.2 14.1,9 12.7,4.7 C11.5,1 11.3,-0.1 10.4,-4.5"/>
<path class="Note" transform="matrix(1.70079,0,0,1.70079,736.219,389.764)" d="M18.7,-13.6 C4.9,-13.6 0,-6.6 0,-0.1 C0,6.4 4.9,13.4 18.7,13.4 C32.5,13.4 37.3,6.4 37.3,-0.1 C37.3,-6.6 32.5,-13.6 18.7,-13.6 M10.4,-4.5 C10.3,-4.9 10.3,-5.3 10.3,-5.7 C10.3,-6.5 10.5,-7.3 10.9,-8 C11.6,-9 12.8,-9.7 14.3,-10 C15.6,-10.3 16.3,-10.5 18.9,-10.5 L19,-10.5 C23,-10.5 24.3,-6.8 25.4,-3 L25.7,-2 C26.5,0.6 26.9,2.8 26.9,4.5 C26.9,5.7 26.7,6.8 26.3,7.6 C25.7,8.7 24.7,9.4 23,9.8 C22.1,10 20.6,10.1 20.6,10.1 C20.1,10.1 19.7,10.2 19.3,10.2 C16.1,10.2 14.1,9 12.7,4.7 C11.5,1 11.3,-0.1 10.4,-4.5"/>
<path class="Note" transform="matrix(1.70079,0,0,1.70079,1195.64,368.504)" d="M18.7,-13.6 C4.9,-13.6 0,-6.6 0,-0.1 C0,6.4 4.9,13.4 18.7,13.4 C32.5,13.4 37.3,6.4 37.3,-0.1 C37.3,-6.6 32.5,-13.6 18.7,-13.6 M10.4,-4.5 C10.3,-4.9 10.3,-5.3 10.3,-5.7 C10.3,-6.5 10.5,-7.3 10.9,-8 C11.6,-9 12.8,-9.7 14.3,-10 C15.6,-10.3 16.3,-10.5 18.9,-10.5 L19,-10.5 C23,-10.5 24.3,-6.8 25.4,-3 L25.7,-2 C26.5,0.6 26.9,2.8 26.9,4.5 C26.9,5.7 26.7,6.8 26.3,7.6 C25.7,8.7 24.7,9.4 23,9.8 C22.1,10 20.6,10.1 20.6,10.1 C20.1,10.1 19.7,10.2 19.3,10.2 C16.1,10.2 14.1,9 12.7,4.7 C11.5,1 11.3,-0.1 10.4,-4.5"/>
<path class="Note" transform="matrix(1.70079,0,0,1.70079,1636.68,347.244)" d="M18.7,-13.6 C4.9,-13.6 0,-6.6 0,-0.1 C0,6.4 4.9,13.4 18.7,13.4 C32.5,13.4 37.3,6.4 37.3,-0.1 C37.3,-6.6 32.5,-13.6 18.7,-13.6 M10.4,-4.5 C10.3,-4.9 10.3,-5.3 10.3,-5.7 C10.3,-6.5 10.5,-7.3 10.9,-8 C11.6,-9 12.8,-9.7 14.3,-10 C15.6,-10.3 16.3,-10.5 18.9,-10.5 L19,-10.5 C23,-10.5 24.3,-6.8 25.4,-3 L25.7,-2 C26.5,0.6 26.9,2.8 26.9,4.5 C26.9,5.7 26.7,6.8 26.3,7.6 C25.7,8.7 24.7,9.4 23,9.8 C22.1,10 20.6,10.1 20.6,10.1 C20.1,10.1 19.7,10.2 19.3,10.2 C16.1,10.2 14.1,9 12.7,4.7 C11.5,1 11.3,-0.1 10.4,-4.5"/>
<path class="Note" transform="matrix(1.70079,0,0,1.70079,2043.89,325.984)" d="M18.7,-13.6 C4.9,-13.6 0,-6.6 0,-0.1 C0,6.4 4.9,13.4 18.7,13.4 C32.5,13.4 37.3,6.4 37.3,-0.1 C37.3,-6.6 32.5,-13.6 18.7,-13.6 M10.4,-4.5 C10.3,-4.9 10.3,-5.3 10.3,-5.7 C10.3,-6.5 10.5,-7.3 10.9,-8 C11.6,-9 12.8,-9.7 14.3,-10 C15.6,-10.3 16.3,-10.5 18.9,-10.5 L19,-10.5 C23,-10.5 24.3,-6.8 25.4,-3 L25.7,-2 C26.5,0.6 26.9,2.8 26.9,4.5 C26.9,5.7 26.7,6.8 26.3,7.6 C25.7,8.7 24.7,9.4 23,9.8 C22.1,10 20.6,10.1 20.6,10.1 C20.1,10.1 19.7,10.2 19.3,10.2 C16.1,10.2 14.1,9 12.7,4.7 C11.5,1 11.3,-0.1 10.4,-4.5"/>
<path class="Note" transform="matrix(1.70079,0,0,1.70079,2490.88,347.244)" d="M18.7,-13.6 C4.9,-13.6 0,-6.6 0,-0.1 C0,6.4 4.9,13.4 18.7,13.4 C32.5,13.4 37.3,6.4 37.3,-0.1 C37.3,-6.6 32.5,-13.6 18.7,-13.6 M10.4,-4.5 C10.3,-4.9 10.3,-5.3 10.3,-5.7 C10.3,-6.5 10.5,-7.3 10.9,-8 C11.6,-9 12.8,-9.7 14.3,-10 C15.6,-10.3 16.3,-10.5 18.9,-10.5 L19,-10.5 C23,-10.5 24.3,-6.8 25.4,-3 L25.7,-2 C26.5,0.6 26.9,2.8 26.9,4.5 C26.9,5.7 26.7,6.8 26.3,7.6 C25.7,8.7 24.7,9.4 23,9.8 C22.1,10 20.6,10.1 20.6,10.1 C20.1,10.1 19.7,10.2 19.3,10.2 C16.1,10.2 14.1,9 12.7,4.7 C11.5,1 11.3,-0.1 10.4,-4.5"/>
<path class="Note" transform="matrix(1.70079,0,0,1.70079,2919.51,368.504)" d="M18.7,-13.6 C4.9,-13.6 0,-6.6 0,-0.1 C0,6.4 4.9,13.4 18.7,13.4 C32.5,13.4 37.3,6.4 37.3,-0.1 C37.3,-6.6 32.5,-13.6 18.7,-13.6 M10.4,-4.5 C10.3,-4.9 10.3,-5.3 10.3,-5.7 C10.3,-6.5 10.5,-7.3 10.9,-8 C11.6,-9 12.8,-9.7 14.3,-10 C15.6,-10.3 16.3,-10.5 18.9,-10.5 L19,-10.5 C23,-10.5 24.3,-6.8 25.4,-3 L25.7,-2 C26.5,0.6 26.9,2.8 26.9,4.5 C26.9,5.7 26.7,6.8 26.3,7.6 C25.7,8.7 24.7,9.4 23,9.8 C22.1,10 20.6,10.1 20.6,10.1 C20.1,10.1 19.7,10.2 19.3,10.2 C16.1,10.2 14.1,9 12.7,4.7 C11.5,1 11.3,-0.1 10.4,-4.5"/>
<path class="Note" transform="matrix(1.70079,0,0,1.70079,3326.71,389.764)" d="M18.7,-13.6 C4.9,-13.6 0,-6.6 0,-0.1 C0,6.4 4.9,13.4 18.7,13.4 C32.5,13.4 37.3,6.4 37.3,-0.1 C37.3,-6.6 32.5,-13.6 18.7,-13.6 M10.4,-4.5 C10.3,-4.9 10.3,-5.3 10.3,-5.7 C10.3,-6.5 10.5,-7.3 10.9,-8 C11.6,-9 12.8,-9.7 14.3,-10 C15.6,-10.3 16.3,-10.5 18.9,-10.5 L19,-10.5 C23,-10.5 24.3,-6.8 25.4,-3 L25.7,-2 C26.5,0.6 26.9,2.8 26.9,4.5 C26.9,5.7 26.7,6.8 26.3,7.6 C25.7,8.7 24.7,9.4 23,9.8 C22.1,10 20.6,10.1 20.6,10.1 C20.1,10.1 19.7,10.2 19.3,10.2 C16.1,10.2 14.1,9 12.7,4.7 C11.5,1 11.3,-0.1 10.4,-4.5"/>
<path class="Note" transform="matrix(1.70079,0,0,1.70079,3748.2,474.803)" d="M18.7,-13.6 C4.9,-13.6 0,-6.6 0,-0.1 C0,6.4 4.9,13.4 18.7,13.4 C32.5,13.4 37.3,6.4 37.3,-0.1 C37.3,-6.6 32.5,-13.6 18.7,-13.6 M10.4,-4.5 C10.3,-4.9 10.3,-5.3 10.3,-5.7 C10.3,-6.5 10.5,-7.3 10.9,-8 C11.6,-9 12.8,-9.7 14.3,-10 C15.6,-10.3 16.3,-10.5 18.9,-10.5 L19,-10.5 C23,-10.5 24.3,-6.8 25.4,-3 L25.7,-2 C26.5,0.6 26.9,2.8 26.9,4.5 C26.9,5.7 26.7,6.8 26.3,7.6 C25.7,8.7 24.7,9.4 23,9.8 C22.1,10 20.6,10.1 20.6,10.1 C20.1,10.1 19.7,10.2 19.3,10.2 C16.1,10.2 14.1,9 12.7,4.7 C11.5,1 11.3,-0.1 10.4,-4.5"/>
<path class="Clef" transform="matrix(1.70079,0,0,1.70079,104.882,368.504)" d="M25.4,-25.1 C17.8,-25.1 11.7,-20.7 11.6,-20.7 C5.8,-16.4 3.5,-11.3 2.6,-7.8 C2.1,-6 1.9,-4.2 1.9,-2.5 C1.9,-0.1 2.3,2.1 3.2,4 C4.4,6.7 6.7,8.6 9.7,9.6 C10.9,10 12.2,10.2 13.5,10.2 C15.7,10.2 18,9.6 19.9,8.5 C23,6.8 24.9,3.2 24.9,-0.7 C24.9,-4.2 23.1,-7.4 20.1,-9.3 C18,-10.7 16,-11.1 14.3,-11.1 C13.1,-11.1 12,-10.9 11.1,-10.6 C10.1,-10.2 8.4,-9.2 7.6,-8.5 C7.9,-10.4 9.1,-13.3 10.2,-14.9 C11.3,-16.5 13.5,-18.5 15.2,-19.4 C17.7,-20.8 20.9,-21.4 24.4,-21.4 C34.6,-21.4 39.6,-13.2 39.6,3.6 C39.6,12.9 36.1,21.8 33.1,27.7 C29.8,34.3 25.4,40.6 21.5,44.1 C11.1,53.6 1.3,58.1 1.2,58.1 C1.2,58.1 -0.3,59 0.1,60.5 C0.4,61.5 1.3,61.7 1.9,61.7 C2,61.7 2.3,61.6 2.4,61.6 C2.5,61.6 13.9,56.9 23,49.8 C28.1,46.1 32.7,42.1 36.7,37.8 C40.3,33.9 43.4,29.7 45.9,25.5 C50.3,18 52.8,10.2 52.8,3.5 C52.8,-4.8 50.6,-11.7 46.5,-16.6 C41.8,-22.2 34.7,-25.1 25.4,-25.1 M56.8,-12.4 C56.8,-9.6 59,-7.4 61.6,-7.4 C64.2,-7.4 66.4,-9.6 66.4,-12.4 C66.4,-15.2 64.2,-17.5 61.6,-17.5 C59,-17.5 56.8,-15.2 56.8,-12.4 M56.8,12.3 C56.8,15.1 59,17.4 61.6,17.4 C64.2,17.4 66.4,15.1 66.4,12.3 C66.4,9.5 64.2,7.2 61.6,7.2 C59,7.2 56.8,9.5 56.8,12.3"/>
<path class="FiguredBass" d="M763.619,637.681 L763.619,651.559 C763.619,652.932 762.922,653.618 761.527,653.618 C760.133,653.618 759.436,652.932 759.436,651.559 L759.436,639.473 L757.311,640.337 C757.089,640.425 756.802,640.47 756.447,640.47 C755.872,640.47 755.363,640.248 754.92,639.806 C754.477,639.363 754.256,638.854 754.256,638.278 L754.256,631.505 C754.256,630.531 754.721,629.845 755.65,629.446 L759.436,627.852 L759.436,613.907 L757.311,614.77 C757.178,614.815 757.001,614.837 756.779,614.837 C756.691,614.837 756.58,614.837 756.447,614.837 C755.783,614.748 755.252,614.505 754.854,614.106 C754.455,613.708 754.256,613.243 754.256,612.712 L754.256,605.938 C754.256,605.009 754.721,604.345 755.65,603.946 L759.436,602.352 L759.436,588.208 C759.436,586.835 760.133,586.149 761.527,586.149 C762.922,586.149 763.619,586.835 763.619,588.208 L763.619,600.626 L772.186,597.04 L772.186,583.161 C772.186,581.789 772.872,581.102 774.244,581.102 C775.617,581.102 776.303,581.789 776.303,583.161 L776.303,595.38 L778.627,594.384 C778.848,594.295 779.092,594.251 779.357,594.251 C779.933,594.251 780.453,594.472 780.918,594.915 C781.383,595.358 781.615,595.867 781.615,596.442 L781.615,603.216 C781.615,604.19 781.128,604.876 780.154,605.274 L776.303,606.868 L776.303,620.88 L778.627,619.95 C778.76,619.906 778.915,619.884 779.092,619.884 C779.18,619.884 779.269,619.884 779.357,619.884 C780.11,620.016 780.675,620.26 781.051,620.614 C781.427,620.968 781.615,621.433 781.615,622.009 L781.615,628.782 C781.615,629.712 781.128,630.376 780.154,630.774 L776.303,632.368 L776.303,646.513 C776.303,647.885 775.617,648.571 774.244,648.571 C772.872,648.571 772.186,647.885 772.186,646.513 L772.186,634.095 L763.619,637.681 M763.619,626.126 L772.186,622.606 L772.186,608.595 L763.619,612.181 L763.619,626.126 "/>
<path class="FiguredBass" d="M1229.35,592.657 C1226.07,592.657 1223.89,593.974 1222.8,596.608 C1221.72,599.242 1221.18,602.972 1221.18,607.798 L1221.18,615.634 C1223.48,614.704 1225.47,614.217 1227.15,614.173 C1232.91,614.173 1237.44,615.445 1240.73,617.991 C1244.03,620.537 1245.68,624.322 1245.68,629.347 C1245.68,634.371 1244.01,638.167 1240.67,640.735 C1237.33,643.303 1232.82,644.587 1227.15,644.587 C1221.35,644.587 1216.82,641.897 1213.54,636.518 C1210.26,631.139 1208.63,624.753 1208.63,617.36 C1208.63,610.011 1210.53,603.636 1214.34,598.235 C1218.15,592.834 1223.15,590.134 1229.35,590.134 C1233.42,590.134 1236.94,591.163 1239.9,593.222 C1242.87,595.28 1244.35,597.992 1244.35,601.356 C1244.35,603.304 1243.65,604.986 1242.23,606.403 C1240.81,607.82 1239.12,608.528 1237.15,608.528 C1235.18,608.528 1233.48,607.82 1232.07,606.403 C1230.65,604.986 1229.94,603.304 1229.94,601.356 C1229.94,599.453 1230.65,597.77 1232.07,596.309 C1232.56,595.734 1233.24,595.247 1234.13,594.848 C1233.91,594.273 1233.46,593.83 1232.8,593.52 C1231.82,592.945 1230.67,592.657 1229.35,592.657 M1232.6,619.817 C1231.8,617.736 1230.05,616.696 1227.35,616.696 C1224.65,616.696 1222.98,617.736 1222.34,619.817 C1221.7,621.898 1221.38,625.063 1221.38,629.313 C1221.38,634.316 1221.7,637.681 1222.34,639.407 C1222.98,641.134 1224.65,641.997 1227.35,641.997 C1230.05,641.997 1231.8,640.957 1232.6,638.876 C1233.4,636.795 1233.79,633.619 1233.79,629.347 C1233.79,625.074 1233.4,621.898 1232.6,619.817"/>
<path class="FiguredBass" d="M1670.39,592.657 C1667.12,592.657 1664.94,593.974 1663.85,596.608 C1662.77,599.242 1662.23,602.972 1662.23,607.798 L1662.23,615.634 C1664.53,614.704 1666.52,614.217 1668.2,614.173 C1673.96,614.173 1678.48,615.445 1681.78,617.991 C1685.08,620.537 1686.73,624.322 1686.73,629.347 C1686.73,634.371 1685.06,638.167 1681.72,640.735 C1678.37,643.303 1673.87,644.587 1668.2,644.587 C1662.4,644.587 1657.86,641.897 1654.59,636.518 C1651.31,631.139 1649.67,624.753 1649.67,617.36 C1649.67,610.011 1651.58,603.636 1655.39,598.235 C1659.19,592.834 1664.2,590.134 1670.39,590.134 C1674.47,590.134 1677.99,591.163 1680.95,593.222 C1683.92,595.28 1685.4,597.992 1685.4,601.356 C1685.4,603.304 1684.69,604.986 1683.28,606.403 C1681.86,607.82 1680.17,608.528 1678.2,608.528 C1676.23,608.528 1674.53,607.82 1673.12,606.403 C1671.7,604.986 1670.99,603.304 1670.99,601.356 C1670.99,599.453 1671.7,597.77 1673.12,596.309 C1673.6,595.734 1674.29,595.247 1675.17,594.848 C1674.95,594.273 1674.51,593.83 1673.85,593.52 C1672.87,592.945 1671.72,592.657 1670.39,592.657 M1673.65,619.817 C1672.85,617.736 1671.1,616.696 1668.4,616.696 C1665.7,616.696 1664.03,617.736 1663.39,619.817 C1662.75,621.898 1662.42,625.063 1662.42,629.313 C1662.42,634.316 1662.75,637.681 1663.39,639.407 C1664.03,641.134 1665.7,641.997 1668.4,641.997 C1671.1,641.997 1672.85,640.957 1673.65,638.876 C1674.44,636.795 1674.84,633.619 1674.84,629.347 C1674.84,625.074 1674.44,621.898 1673.65,619.817"/>
<path class="FiguredBass" d="M2524.59,592.657 C2521.32,592.657 2519.14,593.974 2518.05,596.608 C2516.97,599.242 2516.42,602.972 2516.42,607.798 L2516.42,615.634 C2518.73,614.704 2520.72,614.217 2522.4,614.173 C2528.16,614.173 2532.68,615.445 2535.98,617.991 C2539.28,620.537 2540.93,624.322 2540.93,629.347 C2540.93,634.371 2539.26,638.167 2535.91,640.735 C2532.57,643.303 2528.07,644.587 2522.4,644.587 C2516.6,644.587 2512.06,641.897 2508.79,636.518 C2505.51,631.139 2503.87,624.753 2503.87,617.36 C2503.87,610.011 2505.78,603.636 2509.58,598.235 C2513.39,592.834 2518.39,590.134 2524.59,590.134 C2528.67,590.134 2532.19,591.163 2535.15,593.222 C2538.12,595.28 2539.6,597.992 2539.6,601.356 C2539.6,603.304 2538.89,604.986 2537.48,606.403 C2536.06,607.82 2534.37,608.528 2532.4,608.528 C2530.43,608.528 2528.73,607.82 2527.32,606.403 C2525.9,604.986 2525.19,603.304 2525.19,601.356 C2525.19,599.453 2525.9,597.77 2527.32,596.309 C2527.8,595.734 2528.49,595.247 2529.37,594.848 C2529.15,594.273 2528.71,593.83 2528.05,593.52 C2527.07,592.945 2525.92,592.657 2524.59,592.657 M2527.85,619.817 C2527.05,617.736 2525.3,616.696 2522.6,616.696 C2519.9,616.696 2518.23,617.736 2517.59,619.817 C2516.94,621.898 2516.62,625.063 2516.62,629.313 C2516.62,634.316 2516.94,637.681 2517.59,639.407 C2518.23,641.134 2519.9,641.997 2522.6,641.997 C2525.3,641.997 2527.05,640.957 2527.85,638.876 C2528.64,636.795 2529.04,633.619 2529.04,629.347 C2529.04,625.074 2528.64,621.898 2527.85,619.817"/>
<path class="FiguredBass" d="M2953.22,592.657 C2949.94,592.657 2947.76,593.974 2946.68,596.608 C2945.59,599.242 2945.05,602.972 2945.05,607.798 L2945.05,615.634 C2947.35,614.704 2949.34,614.217 2951.03,614.173 C2956.78,614.173 2961.31,615.445 2964.61,617.991 C2967.9,620.537 2969.55,624.322 2969.55,629.347 C2969.55,634.371 2967.88,638.167 2964.54,640.735 C2961.2,643.303 2956.69,644.587 2951.03,644.587 C2945.23,644.587 2940.69,641.897 2937.41,636.518 C2934.14,631.139 2932.5,624.753 2932.5,617.36 C2932.5,610.011 2934.4,603.636 2938.21,598.235 C2942.02,592.834 2947.02,590.134 2953.22,590.134 C2957.29,590.134 2960.81,591.163 2963.78,593.222 C2966.74,595.28 2968.22,597.992 2968.22,601.356 C2968.22,603.304 2967.52,604.986 2966.1,606.403 C2964.68,607.82 2962.99,608.528 2961.02,608.528 C2959.05,608.528 2957.36,607.82 2955.94,606.403 C2954.52,604.986 2953.81,603.304 2953.81,601.356 C2953.81,599.453 2954.52,597.77 2955.94,596.309 C2956.43,595.734 2957.11,595.247 2958,594.848 C2957.78,594.273 2957.33,593.83 2956.67,593.52 C2955.7,592.945 2954.55,592.657 2953.22,592.657 M2956.47,619.817 C2955.67,617.736 2953.93,616.696 2951.22,616.696 C2948.52,616.696 2946.85,617.736 2946.21,619.817 C2945.57,621.898 2945.25,625.063 2945.25,629.313 C2945.25,634.316 2945.57,637.681 2946.21,639.407 C2946.85,641.134 2948.52,641.997 2951.22,641.997 C2953.93,641.997 2955.67,640.957 2956.47,638.876 C2957.27,636.795 2957.67,633.619 2957.67,629.347 C2957.67,625.074 2957.27,621.898 2956.47,619.817"/>
<path class="FiguredBass" d="M3354.11,637.681 L3354.11,651.559 C3354.11,652.932 3353.42,653.618 3352.02,653.618 C3350.63,653.618 3349.93,652.932 3349.93,651.559 L3349.93,639.473 L3347.8,640.337 C3347.58,640.425 3347.3,640.47 3346.94,640.47 C3346.37,640.47 3345.86,640.248 3345.41,639.806 C3344.97,639.363 3344.75,638.854 3344.75,638.278 L3344.75,631.505 C3344.75,630.531 3345.21,629.845 3346.14,629.446 L3349.93,627.852 L3349.93,613.907 L3347.8,614.77 C3347.67,614.815 3347.49,614.837 3347.27,614.837 C3347.18,614.837 3347.07,614.837 3346.94,614.837 C3346.28,614.748 3345.75,614.505 3345.35,614.106 C3344.95,613.708 3344.75,613.243 3344.75,612.712 L3344.75,605.938 C3344.75,605.009 3345.21,604.345 3346.14,603.946 L3349.93,602.352 L3349.93,588.208 C3349.93,586.835 3350.63,586.149 3352.02,586.149 C3353.42,586.149 3354.11,586.835 3354.11,588.208 L3354.11,600.626 L3362.68,597.04 L3362.68,583.161 C3362.68,581.789 3363.37,581.102 3364.74,581.102 C3366.11,581.102 3366.8,581.789 3366.8,583.161 L3366.8,595.38 L3369.12,594.384 C3369.34,594.295 3369.59,594.251 3369.85,594.251 C3370.43,594.251 3370.95,594.472 3371.41,594.915 C3371.88,595.358 3372.11,595.867 3372.11,596.442 L3372.11,603.216 C3372.11,604.19 3371.62,604.876 3370.65,605.274 L3366.8,606.868 L3366.8,620.88 L3369.12,619.95 C3369.25,619.906 3369.41,619.884 3369.59,619.884 C3369.67,619.884 3369.76,619.884 3369.85,619.884 C3370.6,620.016 3371.17,620.26 3371.54,620.614 C3371.92,620.968 3372.11,621.433 3372.11,622.009 L3372.11,628.782 C3372.11,629.712 3371.62,630.376 3370.65,630.774 L3366.8,632.368 L3366.8,646.513 C3366.8,647.885 3366.11,648.571 3364.74,648.571 C3363.37,648.571 3362.68,647.885 3362.68,646.513 L3362.68,634.095 L3354.11,637.681 M3354.11,626.126 L3362.68,622.606 L3362.68,608.595 L3354.11,612.181 L3354.11,626.126 "/>
<path class="SystemText" d="M370.278,179.065 L367.133,179.065 L363.733,184.165 C359.653,180.34 354.298,178.3 348.263,178.3 C337.043,178.3 329.648,185.355 329.648,196.065 C329.648,205.33 334.238,209.92 346.733,213.15 L354.808,215.19 C361.098,216.805 361.693,216.975 363.478,218.335 C366.028,220.29 367.388,223.095 367.388,226.41 C367.388,229.81 366.113,232.615 363.563,234.995 C360.758,237.375 357.953,238.31 353.278,238.31 C346.988,238.31 342.483,236.355 338.488,231.935 C334.918,228.025 333.133,223.945 331.858,217.4 L328.203,217.4 L328.543,241.625 L331.858,241.625 L335.683,235.845 C341.378,240.52 346.053,242.22 353.533,242.22 C366.028,242.22 374.018,234.91 374.018,223.52 C374.018,218.165 372.318,213.745 368.918,210.515 C366.623,208.305 363.308,206.86 356.508,205.16 L347.413,202.865 C339.848,200.91 336.278,197.595 336.278,192.41 C336.278,186.46 341.123,182.38 348.348,182.38 C354.298,182.38 359.143,184.93 362.543,189.775 C365.008,193.26 366.623,196.83 367.643,201.165 L371.298,201.165 L370.278,179.065 M394.16,201.335 L378.18,202.27 L378.18,205.925 L382.515,205.925 C385.745,206.01 386.17,206.52 386.17,210.175 L386.17,230.49 L386.17,234.485 C386.085,235.76 386,236.27 385.66,236.695 C385.065,237.46 383.45,237.8 379.795,237.885 L379.2,237.885 L379.2,240.945 L401.215,240.945 L401.215,237.885 L400.62,237.885 C394.925,237.715 394.16,237.29 394.16,234.23 L394.16,230.49 L394.16,201.335 M390.165,180.17 C387.445,180.17 385.235,182.38 385.235,185.1 C385.235,187.82 387.445,190.03 390.08,190.03 C392.885,190.03 395.095,187.82 395.095,185.1 C395.095,182.38 392.885,180.17 390.165,180.17 M429.68,219.27 L439.37,207.965 C441.495,205.5 443.45,204.395 445.745,204.395 L446.51,204.395 L446.51,201.335 L428.915,201.335 L428.915,204.395 L430.53,204.395 C433.08,204.395 434.355,204.99 434.355,206.265 C434.355,207.115 433.76,208.305 432.655,209.665 L427.3,216.125 L420.755,207.795 C420.245,207.115 419.905,206.435 419.905,205.925 C419.905,204.82 421.01,204.395 423.645,204.395 L424.835,204.395 L424.835,201.335 L404.69,201.335 L404.69,204.395 C407.835,204.65 409.025,205.415 411.745,208.985 L422.115,221.99 L412.34,233.38 C409.45,236.61 406.985,237.97 404.69,237.885 L404.18,237.885 L404.18,240.945 L422.115,240.945 L422.115,237.885 L420.84,237.885 C418.885,237.885 418.46,237.8 417.865,237.545 C417.185,237.12 416.675,236.355 416.675,235.59 C416.675,234.995 416.93,234.23 417.355,233.72 L424.495,225.22 L430.955,233.805 C431.55,234.655 432.06,235.76 432.06,236.355 C432.06,237.46 430.785,237.885 427.555,237.885 L426.96,237.885 L426.96,240.945 L448.38,240.945 L448.38,237.885 L447.785,237.885 C444.81,237.885 442.855,236.78 440.39,233.72 L429.68,219.27 M465.546,201.335 L465.546,184.505 L462.061,184.505 C461.211,195.555 457.471,201.165 450.586,201.675 L450.586,204.99 L457.556,204.99 L457.556,226.665 C457.556,232.615 457.726,234.74 458.576,236.695 C459.936,240.265 463.336,242.22 468.266,242.22 C475.916,242.22 480.846,236.44 480.846,227.43 C480.846,226.92 480.846,226.325 480.761,225.475 L477.191,225.475 C476.936,233.125 474.726,237.035 470.561,237.035 C468.606,237.035 466.906,236.015 466.311,234.57 C465.801,233.38 465.546,231.255 465.546,228.195 L465.546,204.99 L478.041,204.99 L478.041,201.335 L465.546,201.335 M522.237,221.82 C522.322,209.07 515.097,200.06 504.727,200.06 C493.847,200.06 485.687,209.495 485.687,222.245 C485.687,234.23 493.422,242.22 504.897,242.22 C513.057,242.22 518.752,238.225 522.237,230.15 L519.262,228.535 C515.777,235.08 512.207,237.63 506.512,237.63 C502.177,237.63 499.032,235.845 496.822,232.02 C495.292,229.47 494.612,226.495 494.697,221.82 L522.237,221.82 M494.782,218.165 C494.782,215.53 495.122,213.66 495.972,211.28 C497.757,206.18 500.477,203.715 504.642,203.715 C509.742,203.715 513.142,208.22 513.142,215.105 C513.142,217.485 512.377,218.165 509.657,218.165 L494.782,218.165 M581.137,241.54 L595.927,240.945 L595.927,237.29 L594.397,237.29 C589.552,237.035 589.127,236.525 589.127,231.085 L589.127,178.3 L572.467,179.235 L572.467,182.89 L577.482,182.89 C580.712,182.975 581.137,183.485 581.137,187.14 L581.137,206.35 C577.992,202.015 574.337,200.06 569.407,200.06 C559.802,200.06 552.492,209.325 552.492,221.565 C552.492,233.635 559.547,242.22 569.407,242.22 C574.762,242.22 578.417,239.925 581.137,234.825 L581.137,241.54 M571.107,204.65 C574.592,204.65 577.907,207.2 579.437,211.11 C580.542,213.66 581.052,217.145 581.052,221.31 C581.052,231.255 577.142,237.63 571.022,237.63 C564.987,237.63 561.417,232.02 561.417,222.585 C561.417,217.485 561.927,213.66 563.032,210.855 C564.477,207.03 567.622,204.65 571.107,204.65 M619.038,200.06 C608.583,200.06 600.508,209.325 600.508,221.225 C600.508,232.87 608.668,242.22 618.868,242.22 C629.068,242.22 637.228,232.87 637.228,221.14 C637.228,209.495 629.068,200.06 619.038,200.06 M619.038,203.715 C624.988,203.715 628.303,209.92 628.303,221.14 C628.303,232.445 624.988,238.565 618.868,238.565 C612.748,238.565 609.433,232.445 609.433,221.225 C609.433,209.665 612.663,203.715 619.038,203.715 M675.138,241.54 L690.608,240.945 L690.608,237.29 L688.483,237.29 C683.553,237.12 683.128,236.61 683.128,231.085 L683.128,201.335 L667.148,202.27 L667.148,205.925 L671.483,205.925 C674.713,206.01 675.138,206.52 675.138,210.175 L675.138,220.63 C675.138,225.475 674.628,228.365 673.353,231.085 C671.568,234.91 668.168,237.035 664.003,237.035 C661.368,237.035 659.158,236.1 658.053,234.4 C656.948,232.785 656.778,231.935 656.778,227.26 L656.778,201.335 L641.903,202.27 L641.903,205.925 L645.133,205.925 C648.363,206.01 648.788,206.52 648.788,210.175 L648.788,228.535 C648.788,232.87 649.128,234.825 650.403,236.78 C652.698,240.265 656.778,242.22 661.878,242.22 C667.488,242.22 671.398,239.925 675.138,234.485 L675.138,241.54 M707.34,178.3 L692.72,179.235 L692.72,182.89 L695.695,182.89 C698.925,182.975 699.35,183.485 699.35,187.14 L699.35,220.205 C699.35,232.02 698.84,238.48 697.82,242.135 L701.05,242.135 L705.215,235.505 C708.7,240.095 712.695,242.22 717.965,242.22 C728.505,242.22 736.24,233.21 736.24,220.885 C736.24,208.645 729.1,200.06 718.9,200.06 C713.715,200.06 710.57,201.845 707.34,206.69 L707.34,178.3 M717.37,204.395 C723.745,204.395 727.315,210.6 727.315,221.735 C727.315,232.53 723.83,238.565 717.625,238.565 C710.91,238.565 706.915,232.36 706.915,221.905 C706.915,210.515 710.57,204.395 717.37,204.395 M756.63,178.3 L740.905,179.235 L740.905,182.89 L745.07,182.89 C748.215,182.975 748.64,183.485 748.64,187.14 L748.64,230.49 L748.64,234.485 C748.555,235.76 748.47,236.27 748.13,236.695 C747.535,237.46 745.92,237.8 742.265,237.885 L741.67,237.885 L741.67,240.945 L763.685,240.945 L763.685,237.885 L763.09,237.885 C757.395,237.715 756.63,237.29 756.63,234.23 L756.63,230.49 L756.63,178.3 M805.581,221.82 C805.666,209.07 798.441,200.06 788.071,200.06 C777.191,200.06 769.031,209.495 769.031,222.245 C769.031,234.23 776.766,242.22 788.241,242.22 C796.401,242.22 802.096,238.225 805.581,230.15 L802.606,228.535 C799.121,235.08 795.551,237.63 789.856,237.63 C785.521,237.63 782.376,235.845 780.166,232.02 C778.636,229.47 777.956,226.495 778.041,221.82 L805.581,221.82 M778.126,218.165 C778.126,215.53 778.466,213.66 779.316,211.28 C781.101,206.18 783.821,203.715 787.986,203.715 C793.086,203.715 796.486,208.22 796.486,215.105 C796.486,217.485 795.721,218.165 793.001,218.165 L778.126,218.165 M781.696,195.47 L785.181,195.47 L798.696,187.225 C800.056,186.375 800.906,185.1 800.906,183.91 C800.906,182.21 799.631,180.935 797.931,180.935 C796.571,180.935 795.721,181.445 793.681,183.57 L781.696,195.47 M848.081,221.82 C848.166,209.07 840.941,200.06 830.571,200.06 C819.691,200.06 811.531,209.495 811.531,222.245 C811.531,234.23 819.266,242.22 830.741,242.22 C838.901,242.22 844.596,238.225 848.081,230.15 L845.106,228.535 C841.621,235.08 838.051,237.63 832.356,237.63 C828.021,237.63 824.876,235.845 822.666,232.02 C821.136,229.47 820.456,226.495 820.541,221.82 L848.081,221.82 M820.626,218.165 C820.626,215.53 820.966,213.66 821.816,211.28 C823.601,206.18 826.321,203.715 830.486,203.715 C835.586,203.715 838.986,208.22 838.986,215.105 C838.986,217.485 838.221,218.165 835.501,218.165 L820.626,218.165 "/>
</svg>
