<?xml version="1.0" encoding="UTF-8" standalone="no"?>
<svg width="4209.44px" height="850.392px" viewBox="0 0 4209.44 850.392"
 xmlns="http://www.w3.org/2000/svg" xmlns:xlink="http://www.w3.org/1999/xlink" version="1.2" baseProfile="tiny">
<title>Exercices (14)</title>
<desc>Generated by MuseScore 3.6.2</desc>
<polyline class="StaffLines" fill="none" stroke="#000000" stroke-width="4.68" stroke-linejoin="bevel" points="70.866,325.984 4138.58,325.984"/>
<polyline class="StaffLines" fill="none" stroke="#000000" stroke-width="4.68" stroke-linejoin="bevel" points="70.866,368.504 4138.58,368.504"/>
<polyline class="StaffLines" fill="none" stroke="#000000" stroke-width="4.68" stroke-linejoin="bevel" points="70.866,411.024 4138.58,411.024"/>
<polyline class="StaffLines" fill="none" stroke="#000000" stroke-width="4.68" stroke-linejoin="bevel" points="70.866,453.543 4138.58,453.543"/>
<polyline class="StaffLines" fill="none" stroke="#000000" stroke-width="4.68" stroke-linejoin="bevel" points="70.866,496.063 4138.58,496.063"/>
<polyline class="BarLine" fill="none" stroke="#000000" stroke-width="7.65" stroke-linejoin="bevel" points="1064.7,323.646 1064.7,498.402"/>
<polyline class="BarLine" fill="none" stroke="#000000" stroke-width="7.65" stroke-linejoin="bevel" points="1686.29,323.646 1686.29,498.402"/>
<polyline class="BarLine" fill="none" stroke="#000000" stroke-width="7.65" stroke-linejoin="bevel" points="2322.77,323.646 2322.77,498.402"/>
<polyline class="BarLine" fill="none" stroke="#000000" stroke-width="7.65" stroke-linejoin="bevel" points="2959.24,323.646 2959.24,498.402"/>
<polyline class="BarLine" fill="none" stroke="#000000" stroke-width="7.65" stroke-linejoin="bevel" points="3578.2,323.646 3578.2,498.402"/>
<polyline class="BarLine" fill="none" stroke="#000000" stroke-width="7.65" stroke-linejoin="bevel" points="4097.12,323.646 4097.12,498.402"/>
<polyline class="BarLine" fill="none" stroke="#000000" stroke-width="23.39" stroke-linejoin="bevel" points="4126.89,323.646 4126.89,498.402"/>
<path class="Accidental" transform="matrix(1.70079,0,0,1.70079,3308.39,411.024)" d="M23.3,-10.6 C23.9,-10.7 24.4,-11.4 24.4,-12 L24.4,-17.9 C24.4,-18.7 23.8,-19.3 23,-19.3 L22.8,-19.3 L19.5,-18.6 L19.5,-33.5 L16.7,-33.5 L16.7,-18 L7.8,-16.2 L7.8,-30.3 L5,-30.3 L5,-15.6 L1.1,-14.8 C0.5,-14.7 0,-14 0,-13.4 L0,-13.2 L0,-7.4 L0,-7.6 C0,-6.8 0.6,-6.2 1.4,-6.2 L1.7,-6.2 L5,-6.9 L5,9.6 L1.1,10.4 C0.5,10.5 0,11.2 0,11.8 L0,17.6 C0,18.4 0.6,19 1.4,19 L1.7,19 L5,18.3 L5,33.2 L7.8,33.2 L7.8,17.7 L16.7,15.9 L16.7,30 L19.5,30 L19.5,15.3 L23.3,14.6 C23.9,14.5 24.4,13.8 24.4,13.2 L24.4,7.3 C24.4,6.5 23.8,5.9 23,5.9 L22.8,5.9 L19.5,6.6 L19.5,-9.9 L23.3,-10.6 M7.8,9.1 L7.8,-7.5 L16.7,-9.3 L16.7,7.2 L7.8,9.1 "/>
<polyline class="LedgerLine" fill="none" stroke="#000000" stroke-width="6.80" stroke-linejoin="bevel" points="1481.36,581.102 1566.39,581.102"/>
<polyline class="LedgerLine" fill="none" stroke="#000000" stroke-width="6.80" stroke-linejoin="bevel" points="1481.36,538.583 1566.39,538.583"/>
<polyline class="LedgerLine" fill="none" stroke="#000000" stroke-width="6.80" stroke-linejoin="bevel" points="1745.4,538.583 1830.42,538.583"/>
<polyline class="LedgerLine" fill="none" stroke="#000000" stroke-width="6.80" stroke-linejoin="bevel" points="2381.87,538.583 2466.89,538.583"/>
<polyline class="Stem" fill="none" stroke="#000000" stroke-width="4.68" stroke-linejoin="bevel" points="504.553,395.478 504.553,527.953"/>
<polyline class="Stem" fill="none" stroke="#000000" stroke-width="4.68" stroke-linejoin="bevel" points="690.774,352.959 690.774,496.063"/>
<polyline class="Stem" fill="none" stroke="#000000" stroke-width="4.68" stroke-linejoin="bevel" points="876.994,395.478 876.994,527.953"/>
<polyline class="Stem" fill="none" stroke="#000000" stroke-width="4.68" stroke-linejoin="bevel" points="1176.73,469.361 1176.73,325.984"/>
<polyline class="Stem" fill="none" stroke="#000000" stroke-width="4.68" stroke-linejoin="bevel" points="1362.95,448.101 1362.95,310.039"/>
<polyline class="Stem" fill="none" stroke="#000000" stroke-width="4.68" stroke-linejoin="bevel" points="1549.17,596.92 1549.17,411.024"/>
<polyline class="Stem" fill="none" stroke="#000000" stroke-width="4.68" stroke-linejoin="bevel" points="1813.2,533.14 1813.2,389.764"/>
<polyline class="Stem" fill="none" stroke="#000000" stroke-width="4.68" stroke-linejoin="bevel" points="1999.42,490.62 1999.42,347.244"/>
<polyline class="Stem" fill="none" stroke="#000000" stroke-width="4.68" stroke-linejoin="bevel" points="2185.64,448.101 2185.64,310.039"/>
<polyline class="Stem" fill="none" stroke="#000000" stroke-width="4.68" stroke-linejoin="bevel" points="2449.67,533.14 2449.67,389.764"/>
<polyline class="Stem" fill="none" stroke="#000000" stroke-width="4.68" stroke-linejoin="bevel" points="2585.31,395.478 2585.31,527.953"/>
<polyline class="Stem" fill="none" stroke="#000000" stroke-width="4.68" stroke-linejoin="bevel" points="2771.53,395.478 2771.53,527.953"/>
<polyline class="Stem" fill="none" stroke="#000000" stroke-width="4.68" stroke-linejoin="bevel" points="3020.68,395.478 3020.68,527.953"/>
<polyline class="Stem" fill="none" stroke="#000000" stroke-width="4.68" stroke-linejoin="bevel" points="3362.85,416.738 3362.85,543.898"/>
<polyline class="Stem" fill="none" stroke="#000000" stroke-width="4.68" stroke-linejoin="bevel" points="3639.64,395.478 3639.64,527.953"/>
<path class="Note" transform="matrix(1.70079,0,0,1.70079,502.215,389.764)" d="M31.5,-8.1 C29.7,-11.4 25.9,-13.2 21.3,-13.2 C17.9,-13.2 14.2,-12.2 10.6,-10.3 C4,-6.8 0,-0.9 0,4.2 C0,5.6 0.3,7 1,8.3 C2.8,11.6 6.6,13.3 11.2,13.3 C14.6,13.3 18.3,12.4 21.9,10.5 C28.5,7 32.5,1.1 32.5,-4 C32.5,-5.4 32.2,-6.8 31.5,-8.1"/>
<path class="Note" transform="matrix(1.70079,0,0,1.70079,688.435,347.244)" d="M31.5,-8.1 C29.7,-11.4 25.9,-13.2 21.3,-13.2 C17.9,-13.2 14.2,-12.2 10.6,-10.3 C4,-6.8 0,-0.9 0,4.2 C0,5.6 0.3,7 1,8.3 C2.8,11.6 6.6,13.3 11.2,13.3 C14.6,13.3 18.3,12.4 21.9,10.5 C28.5,7 32.5,1.1 32.5,-4 C32.5,-5.4 32.2,-6.8 31.5,-8.1"/>
<path class="Note" transform="matrix(1.70079,0,0,1.70079,874.656,389.764)" d="M31.5,-8.1 C29.7,-11.4 25.9,-13.2 21.3,-13.2 C17.9,-13.2 14.2,-12.2 10.6,-10.3 C4,-6.8 0,-0.9 0,4.2 C0,5.6 0.3,7 1,8.3 C2.8,11.6 6.6,13.3 11.2,13.3 C14.6,13.3 18.3,12.4 21.9,10.5 C28.5,7 32.5,1.1 32.5,-4 C32.5,-5.4 32.2,-6.8 31.5,-8.1"/>
<path class="Note" transform="matrix(1.70079,0,0,1.70079,1123.81,474.803)" d="M31.5,-8.1 C29.7,-11.4 25.9,-13.2 21.3,-13.2 C17.9,-13.2 14.2,-12.2 10.6,-10.3 C4,-6.8 0,-0.9 0,4.2 C0,5.6 0.3,7 1,8.3 C2.8,11.6 6.6,13.3 11.2,13.3 C14.6,13.3 18.3,12.4 21.9,10.5 C28.5,7 32.5,1.1 32.5,-4 C32.5,-5.4 32.2,-6.8 31.5,-8.1"/>
<path class="Note" transform="matrix(1.70079,0,0,1.70079,1310.03,453.543)" d="M31.5,-8.1 C29.7,-11.4 25.9,-13.2 21.3,-13.2 C17.9,-13.2 14.2,-12.2 10.6,-10.3 C4,-6.8 0,-0.9 0,4.2 C0,5.6 0.3,7 1,8.3 C2.8,11.6 6.6,13.3 11.2,13.3 C14.6,13.3 18.3,12.4 21.9,10.5 C28.5,7 32.5,1.1 32.5,-4 C32.5,-5.4 32.2,-6.8 31.5,-8.1"/>
<path class="Note" transform="matrix(1.70079,0,0,1.70079,1496.25,602.362)" d="M31.5,-8.1 C29.7,-11.4 25.9,-13.2 21.3,-13.2 C17.9,-13.2 14.2,-12.2 10.6,-10.3 C4,-6.8 0,-0.9 0,4.2 C0,5.6 0.3,7 1,8.3 C2.8,11.6 6.6,13.3 11.2,13.3 C14.6,13.3 18.3,12.4 21.9,10.5 C28.5,7 32.5,1.1 32.5,-4 C32.5,-5.4 32.2,-6.8 31.5,-8.1"/>
<path class="Note" transform="matrix(1.70079,0,0,1.70079,1760.28,538.583)" d="M31.5,-8.1 C29.7,-11.4 25.9,-13.2 21.3,-13.2 C17.9,-13.2 14.2,-12.2 10.6,-10.3 C4,-6.8 0,-0.9 0,4.2 C0,5.6 0.3,7 1,8.3 C2.8,11.6 6.6,13.3 11.2,13.3 C14.6,13.3 18.3,12.4 21.9,10.5 C28.5,7 32.5,1.1 32.5,-4 C32.5,-5.4 32.2,-6.8 31.5,-8.1"/>
<path class="Note" transform="matrix(1.70079,0,0,1.70079,1946.5,496.063)" d="M31.5,-8.1 C29.7,-11.4 25.9,-13.2 21.3,-13.2 C17.9,-13.2 14.2,-12.2 10.6,-10.3 C4,-6.8 0,-0.9 0,4.2 C0,5.6 0.3,7 1,8.3 C2.8,11.6 6.6,13.3 11.2,13.3 C14.6,13.3 18.3,12.4 21.9,10.5 C28.5,7 32.5,1.1 32.5,-4 C32.5,-5.4 32.2,-6.8 31.5,-8.1"/>
<path class="Note" transform="matrix(1.70079,0,0,1.70079,2132.72,453.543)" d="M31.5,-8.1 C29.7,-11.4 25.9,-13.2 21.3,-13.2 C17.9,-13.2 14.2,-12.2 10.6,-10.3 C4,-6.8 0,-0.9 0,4.2 C0,5.6 0.3,7 1,8.3 C2.8,11.6 6.6,13.3 11.2,13.3 C14.6,13.3 18.3,12.4 21.9,10.5 C28.5,7 32.5,1.1 32.5,-4 C32.5,-5.4 32.2,-6.8 31.5,-8.1"/>
<path class="Note" transform="matrix(1.70079,0,0,1.70079,2396.75,538.583)" d="M31.5,-8.1 C29.7,-11.4 25.9,-13.2 21.3,-13.2 C17.9,-13.2 14.2,-12.2 10.6,-10.3 C4,-6.8 0,-0.9 0,4.2 C0,5.6 0.3,7 1,8.3 C2.8,11.6 6.6,13.3 11.2,13.3 C14.6,13.3 18.3,12.4 21.9,10.5 C28.5,7 32.5,1.1 32.5,-4 C32.5,-5.4 32.2,-6.8 31.5,-8.1"/>
<path class="Note" transform="matrix(1.70079,0,0,1.70079,2582.97,389.764)" d="M31.5,-8.1 C29.7,-11.4 25.9,-13.2 21.3,-13.2 C17.9,-13.2 14.2,-12.2 10.6,-10.3 C4,-6.8 0,-0.9 0,4.2 C0,5.6 0.3,7 1,8.3 C2.8,11.6 6.6,13.3 11.2,13.3 C14.6,13.3 18.3,12.4 21.9,10.5 C28.5,7 32.5,1.1 32.5,-4 C32.5,-5.4 32.2,-6.8 31.5,-8.1"/>
<path class="Note" transform="matrix(1.70079,0,0,1.70079,2769.19,389.764)" d="M31.5,-8.1 C29.7,-11.4 25.9,-13.2 21.3,-13.2 C17.9,-13.2 14.2,-12.2 10.6,-10.3 C4,-6.8 0,-0.9 0,4.2 C0,5.6 0.3,7 1,8.3 C2.8,11.6 6.6,13.3 11.2,13.3 C14.6,13.3 18.3,12.4 21.9,10.5 C28.5,7 32.5,1.1 32.5,-4 C32.5,-5.4 32.2,-6.8 31.5,-8.1"/>
<path class="Note" transform="matrix(1.70079,0,0,1.70079,3018.34,389.764)" d="M31.5,-8.1 C29.7,-11.4 25.9,-13.2 21.3,-13.2 C17.9,-13.2 14.2,-12.2 10.6,-10.3 C4,-6.8 0,-0.9 0,4.2 C0,5.6 0.3,7 1,8.3 C2.8,11.6 6.6,13.3 11.2,13.3 C14.6,13.3 18.3,12.4 21.9,10.5 C28.5,7 32.5,1.1 32.5,-4 C32.5,-5.4 32.2,-6.8 31.5,-8.1 M27.2,-1.3 C25.5,0.4 22.1,2.5 18.5,4.5 C14.9,6.5 11.3,8 8.9,8.5 C8.4,8.6 7.9,8.7 7.4,8.7 C5.8,8.7 4.6,8.1 3.9,6.8 C3.6,6.3 3.4,5.7 3.4,5.1 C3.4,4 4.1,2.7 5.2,1.6 C6.9,-0.1 10.2,-2.2 13.8,-4.2 C17.4,-6.2 21,-7.7 23.4,-8.2 C23.9,-8.3 24.4,-8.4 24.9,-8.4 C26.5,-8.4 27.8,-7.8 28.5,-6.5 C28.8,-6 28.9,-5.4 28.9,-4.8 C28.9,-3.7 28.3,-2.5 27.2,-1.3"/>
<path class="Note" transform="matrix(1.70079,0,0,1.70079,3360.51,411.024)" d="M31.5,-8.1 C29.7,-11.4 25.9,-13.2 21.3,-13.2 C17.9,-13.2 14.2,-12.2 10.6,-10.3 C4,-6.8 0,-0.9 0,4.2 C0,5.6 0.3,7 1,8.3 C2.8,11.6 6.6,13.3 11.2,13.3 C14.6,13.3 18.3,12.4 21.9,10.5 C28.5,7 32.5,1.1 32.5,-4 C32.5,-5.4 32.2,-6.8 31.5,-8.1"/>
<path class="Note" transform="matrix(1.70079,0,0,1.70079,3637.3,389.764)" d="M31.5,-8.1 C29.7,-11.4 25.9,-13.2 21.3,-13.2 C17.9,-13.2 14.2,-12.2 10.6,-10.3 C4,-6.8 0,-0.9 0,4.2 C0,5.6 0.3,7 1,8.3 C2.8,11.6 6.6,13.3 11.2,13.3 C14.6,13.3 18.3,12.4 21.9,10.5 C28.5,7 32.5,1.1 32.5,-4 C32.5,-5.4 32.2,-6.8 31.5,-8.1 M27.2,-1.3 C25.5,0.4 22.1,2.5 18.5,4.5 C14.9,6.5 11.3,8 8.9,8.5 C8.4,8.6 7.9,8.7 7.4,8.7 C5.8,8.7 4.6,8.1 3.9,6.8 C3.6,6.3 3.4,5.7 3.4,5.1 C3.4,4 4.1,2.7 5.2,1.6 C6.9,-0.1 10.2,-2.2 13.8,-4.2 C17.4,-6.2 21,-7.7 23.4,-8.2 C23.9,-8.3 24.4,-8.4 24.9,-8.4 C26.5,-8.4 27.8,-7.8 28.5,-6.5 C28.8,-6 28.9,-5.4 28.9,-4.8 C28.9,-3.7 28.3,-2.5 27.2,-1.3"/>
<path class="Clef" transform="matrix(1.70079,0,0,1.70079,104.882,368.504)" d="M25.4,-25.1 C17.8,-25.1 11.7,-20.7 11.6,-20.7 C5.8,-16.4 3.5,-11.3 2.6,-7.8 C2.1,-6 1.9,-4.2 1.9,-2.5 C1.9,-0.1 2.3,2.1 3.2,4 C4.4,6.7 6.7,8.6 9.7,9.6 C10.9,10 12.2,10.2 13.5,10.2 C15.7,10.2 18,9.6 19.9,8.5 C23,6.8 24.9,3.2 24.9,-0.7 C24.9,-4.2 23.1,-7.4 20.1,-9.3 C18,-10.7 16,-11.1 14.3,-11.1 C13.1,-11.1 12,-10.9 11.1,-10.6 C10.1,-10.2 8.4,-9.2 7.6,-8.5 C7.9,-10.4 9.1,-13.3 10.2,-14.9 C11.3,-16.5 13.5,-18.5 15.2,-19.4 C17.7,-20.8 20.9,-21.4 24.4,-21.4 C34.6,-21.4 39.6,-13.2 39.6,3.6 C39.6,12.9 36.1,21.8 33.1,27.7 C29.8,34.3 25.4,40.6 21.5,44.1 C11.1,53.6 1.3,58.1 1.2,58.1 C1.2,58.1 -0.3,59 0.1,60.5 C0.4,61.5 1.3,61.7 1.9,61.7 C2,61.7 2.3,61.6 2.4,61.6 C2.5,61.6 13.9,56.9 23,49.8 C28.1,46.1 32.7,42.1 36.7,37.8 C40.3,33.9 43.4,29.7 45.9,25.5 C50.3,18 52.8,10.2 52.8,3.5 C52.8,-4.8 50.6,-11.7 46.5,-16.6 C41.8,-22.2 34.7,-25.1 25.4,-25.1 M56.8,-12.4 C56.8,-9.6 59,-7.4 61.6,-7.4 C64.2,-7.4 66.4,-9.6 66.4,-12.4 C66.4,-15.2 64.2,-17.5 61.6,-17.5 C59,-17.5 56.8,-15.2 56.8,-12.4 M56.8,12.3 C56.8,15.1 59,17.4 61.6,17.4 C64.2,17.4 66.4,15.1 66.4,12.3 C66.4,9.5 64.2,7.2 61.6,7.2 C59,7.2 56.8,9.5 56.8,12.3"/>
<path class="KeySig" transform="matrix(1.70079,0,0,1.70079,260.331,368.504)" d="M23.3,-10.6 C23.9,-10.7 24.4,-11.4 24.4,-12 L24.4,-17.9 C24.4,-18.7 23.8,-19.3 23,-19.3 L22.8,-19.3 L19.5,-18.6 L19.5,-33.5 L16.7,-33.5 L16.7,-18 L7.8,-16.2 L7.8,-30.3 L5,-30.3 L5,-15.6 L1.1,-14.8 C0.5,-14.7 0,-14 0,-13.4 L0,-13.2 L0,-7.4 L0,-7.6 C0,-6.8 0.6,-6.2 1.4,-6.2 L1.7,-6.2 L5,-6.9 L5,9.6 L1.1,10.4 C0.5,10.5 0,11.2 0,11.8 L0,17.6 C0,18.4 0.6,19 1.4,19 L1.7,19 L5,18.3 L5,33.2 L7.8,33.2 L7.8,17.7 L16.7,15.9 L16.7,30 L19.5,30 L19.5,15.3 L23.3,14.6 C23.9,14.5 24.4,13.8 24.4,13.2 L24.4,7.3 C24.4,6.5 23.8,5.9 23,5.9 L22.8,5.9 L19.5,6.6 L19.5,-9.9 L23.3,-10.6 M7.8,9.1 L7.8,-7.5 L16.7,-9.3 L16.7,7.2 L7.8,9.1 "/>
<path class="TimeSig" transform="matrix(1.70079,0,0,1.70079,348.732,369.354)" d="M27.0172,-1.6 L27.2172,-1.6 C35.2172,-4.7 35.7172,-9.9 35.7172,-11.7 L35.7172,-12.2 C35.7172,-13.1 35.4172,-24.4 18.2172,-24.4 C1.01719,-24.4 1.51719,-12.2 1.51719,-12.2 L1.61719,-12.2 L1.51719,-12 C1.51719,-8.4 4.41719,-5.6 8.01719,-5.6 C11.6172,-5.6 14.4172,-8.4 14.4172,-12 C14.4172,-14.9 12.2172,-17.7 9.41719,-18.3 L9.71719,-18.6 C11.1172,-19.6 13.0172,-20.1 14.9172,-20.1 C19.1172,-20.1 23.6172,-17.6 23.6172,-12.2 C23.6172,-5.9 18.9172,-5 17.7172,-4.8 C16.5172,-4.6 10.9172,-4.2 9.71719,-4.2 C8.51719,-4.2 8.41719,-2.8 8.41719,-2.8 L8.41719,-0.8 C8.41719,-0.8 8.61719,0.3 9.71719,0.4 C11.4172,0.5 13.7172,0.5 16.9172,1 C21.3172,1.6 23.6172,4.6 23.6172,11.6 C23.6172,18.3 19.1172,20.1 14.9172,20.1 C12.1172,20.1 9.51719,19.3 8.41719,18.5 C11.7172,18.3 14.4172,15.4 14.4172,12.1 C14.4172,8.5 11.6172,5.6 8.01719,5.6 C4.41719,5.6 1.51719,8.5 1.51719,12.1 C1.51719,12.1 1.01719,16.6 5.41719,20.7 C9.31719,24.3 14.2172,24.4 16.4172,24.4 C26.0172,24.4 36.4172,21.1 36.4172,10.2 C36.4172,2.9 31.4172,-0.2 27.0172,-1.6"/>
<path class="TimeSig" transform="matrix(1.70079,0,0,1.70079,342.009,453.317)" d="M3.59004,12.65 L20.77,12.65 L20.77,20.07 L12.54,20.07 C11.7601,20.07 11.1301,20.7 11.1301,21.48 L11.1301,23.39 C11.1301,24.17 11.7601,24.8 12.54,24.8 L42.79,24.8 C43.57,24.8 44.2,24.17 44.2,23.39 L44.2,21.48 C44.2,20.7 43.57,20.07 42.79,20.07 L33.85,20.07 L33.85,12.65 L42.79,12.65 C43.57,12.65 44.2,12.02 44.2,11.24 L44.2,9.32998 C44.2,8.55 43.57,7.92002 42.79,7.92002 L33.85,7.92002 L33.85,-8.04004 C33.85,-8.57998 33.55,-9.05996 33.07,-9.3 L31.8601,-9.9 C31.3301,-10.16 30.7,-10.07 30.27,-9.67002 L21.22,-1.35 C20.9301,-1.07998 20.7601,-0.709961 20.7601,-0.309961 L20.7601,7.92002 L9.25,7.92002 C9.25,7.92002 20.37,-4.10996 32.2101,-19.88 C33.0801,-21.03 32.5801,-22.08 32.39,-22.27 L30.22,-24.48 C29.95,-24.74 29.59,-24.89 29.22,-24.89 C28.62,-24.89 15.07,-24.87 14.35,-24.89 C13.6301,-24.91 13.09,-24.29 13.02,-23.67 C13.02,-23.67 12.4801,-16.31 9.88008,-8.17998 C7.28008,-0.0599609 4.34004,4.92002 1.68008,8.55 C1.68008,8.55 1.14004,9.54004 1.5,10.28 C1.85,11.03 2.48008,12.12 2.48008,12.12 C2.48008,12.12 2.74004,12.65 3.59004,12.65"/>
<path class="FiguredBass" d="M718.059,592.657 C714.783,592.657 712.602,593.974 711.518,596.608 C710.433,599.242 709.891,602.972 709.891,607.798 L709.891,615.634 C712.193,614.704 714.185,614.217 715.867,614.173 C721.623,614.173 726.149,615.445 729.447,617.991 C732.746,620.537 734.395,624.322 734.395,629.347 C734.395,634.371 732.723,638.167 729.381,640.735 C726.039,643.303 721.534,644.587 715.867,644.587 C710.068,644.587 705.53,641.897 702.254,636.518 C698.978,631.139 697.34,624.753 697.34,617.36 C697.34,610.011 699.244,603.636 703.051,598.235 C706.858,592.834 711.861,590.134 718.059,590.134 C722.132,590.134 725.651,591.163 728.617,593.222 C731.583,595.28 733.067,597.992 733.067,601.356 C733.067,603.304 732.358,604.986 730.942,606.403 C729.525,607.82 727.831,608.528 725.861,608.528 C723.891,608.528 722.198,607.82 720.781,606.403 C719.365,604.986 718.656,603.304 718.656,601.356 C718.656,599.453 719.365,597.77 720.781,596.309 C721.268,595.734 721.955,595.247 722.84,594.848 C722.619,594.273 722.176,593.83 721.512,593.52 C720.538,592.945 719.387,592.657 718.059,592.657 M721.313,619.817 C720.516,617.736 718.767,616.696 716.067,616.696 C713.366,616.696 711.695,617.736 711.053,619.817 C710.411,621.898 710.09,625.063 710.09,629.313 C710.09,634.316 710.411,637.681 711.053,639.407 C711.695,641.134 713.366,641.997 716.067,641.997 C718.767,641.997 720.516,640.957 721.313,638.876 C722.109,636.795 722.508,633.619 722.508,629.347 C722.508,625.074 722.109,621.898 721.313,619.817"/>
<path class="FiguredBass" d="M1333.34,703.161 L1333.34,717.04 C1333.34,718.412 1332.64,719.098 1331.25,719.098 C1329.85,719.098 1329.16,718.412 1329.16,717.04 L1329.16,704.954 L1327.03,705.817 C1326.81,705.906 1326.52,705.95 1326.17,705.95 C1325.59,705.95 1325.08,705.729 1324.64,705.286 C1324.2,704.843 1323.98,704.334 1323.98,703.758 L1323.98,696.985 C1323.98,696.011 1324.44,695.325 1325.37,694.926 L1329.16,693.333 L1329.16,679.387 L1327.03,680.251 C1326.9,680.295 1326.72,680.317 1326.5,680.317 C1326.41,680.317 1326.3,680.317 1326.17,680.317 C1325.5,680.229 1324.97,679.985 1324.57,679.587 C1324.18,679.188 1323.98,678.723 1323.98,678.192 L1323.98,671.419 C1323.98,670.489 1324.44,669.825 1325.37,669.426 L1329.16,667.833 L1329.16,653.688 C1329.16,652.316 1329.85,651.63 1331.25,651.63 C1332.64,651.63 1333.34,652.316 1333.34,653.688 L1333.34,666.106 L1341.91,662.52 L1341.91,648.641 C1341.91,647.269 1342.59,646.583 1343.97,646.583 C1345.34,646.583 1346.02,647.269 1346.02,648.641 L1346.02,660.86 L1348.35,659.864 C1348.57,659.775 1348.81,659.731 1349.08,659.731 C1349.65,659.731 1350.17,659.952 1350.64,660.395 C1351.1,660.838 1351.34,661.347 1351.34,661.923 L1351.34,668.696 C1351.34,669.67 1350.85,670.356 1349.88,670.755 L1346.02,672.348 L1346.02,686.36 L1348.35,685.43 C1348.48,685.386 1348.64,685.364 1348.81,685.364 C1348.9,685.364 1348.99,685.364 1349.08,685.364 C1349.83,685.497 1350.4,685.74 1350.77,686.094 C1351.15,686.449 1351.34,686.913 1351.34,687.489 L1351.34,694.262 C1351.34,695.192 1350.85,695.856 1349.88,696.255 L1346.02,697.848 L1346.02,711.993 C1346.02,713.365 1345.34,714.051 1343.97,714.051 C1342.59,714.051 1341.91,713.365 1341.91,711.993 L1341.91,699.575 L1333.34,703.161 M1333.34,691.606 L1341.91,688.087 L1341.91,674.075 L1333.34,677.661 L1333.34,691.606 "/>
<polyline class="FiguredBass" fill="none" stroke="#000000" stroke-width="3.99" stroke-linecap="round" stroke-linejoin="bevel" points="1358.79,712.583 1559.79,712.583"/>
<path class="FiguredBass" d="M1976.12,592.657 C1972.85,592.657 1970.67,593.974 1969.58,596.608 C1968.5,599.242 1967.95,602.972 1967.95,607.798 L1967.95,615.634 C1970.26,614.704 1972.25,614.217 1973.93,614.173 C1979.69,614.173 1984.21,615.445 1987.51,617.991 C1990.81,620.537 1992.46,624.322 1992.46,629.347 C1992.46,634.371 1990.79,638.167 1987.44,640.735 C1984.1,643.303 1979.6,644.587 1973.93,644.587 C1968.13,644.587 1963.59,641.897 1960.32,636.518 C1957.04,631.139 1955.4,624.753 1955.4,617.36 C1955.4,610.011 1957.31,603.636 1961.11,598.235 C1964.92,592.834 1969.92,590.134 1976.12,590.134 C1980.19,590.134 1983.71,591.163 1986.68,593.222 C1989.65,595.28 1991.13,597.992 1991.13,601.356 C1991.13,603.304 1990.42,604.986 1989,606.403 C1987.59,607.82 1985.89,608.528 1983.92,608.528 C1981.95,608.528 1980.26,607.82 1978.84,606.403 C1977.43,604.986 1976.72,603.304 1976.72,601.356 C1976.72,599.453 1977.43,597.77 1978.84,596.309 C1979.33,595.734 1980.02,595.247 1980.9,594.848 C1980.68,594.273 1980.24,593.83 1979.57,593.52 C1978.6,592.945 1977.45,592.657 1976.12,592.657 M1979.38,619.817 C1978.58,617.736 1976.83,616.696 1974.13,616.696 C1971.43,616.696 1969.76,617.736 1969.12,619.817 C1968.47,621.898 1968.15,625.063 1968.15,629.313 C1968.15,634.316 1968.47,637.681 1969.12,639.407 C1969.76,641.134 1971.43,641.997 1974.13,641.997 C1976.83,641.997 1978.58,640.957 1979.38,638.876 C1980.17,636.795 1980.57,633.619 1980.57,629.347 C1980.57,625.074 1980.17,621.898 1979.38,619.817"/>
<path class="FiguredBass" d="M2156.03,637.681 L2156.03,651.559 C2156.03,652.932 2155.34,653.618 2153.94,653.618 C2152.55,653.618 2151.85,652.932 2151.85,651.559 L2151.85,639.473 L2149.72,640.337 C2149.5,640.425 2149.22,640.47 2148.86,640.47 C2148.29,640.47 2147.78,640.248 2147.33,639.806 C2146.89,639.363 2146.67,638.854 2146.67,638.278 L2146.67,631.505 C2146.67,630.531 2147.14,629.845 2148.06,629.446 L2151.85,627.852 L2151.85,613.907 L2149.72,614.77 C2149.59,614.815 2149.41,614.837 2149.19,614.837 C2149.11,614.837 2148.99,614.837 2148.86,614.837 C2148.2,614.748 2147.67,614.505 2147.27,614.106 C2146.87,613.708 2146.67,613.243 2146.67,612.712 L2146.67,605.938 C2146.67,605.009 2147.14,604.345 2148.06,603.946 L2151.85,602.352 L2151.85,588.208 C2151.85,586.835 2152.55,586.149 2153.94,586.149 C2155.34,586.149 2156.03,586.835 2156.03,588.208 L2156.03,600.626 L2164.6,597.04 L2164.6,583.161 C2164.6,581.789 2165.29,581.102 2166.66,581.102 C2168.03,581.102 2168.72,581.789 2168.72,583.161 L2168.72,595.38 L2171.04,594.384 C2171.26,594.295 2171.51,594.251 2171.77,594.251 C2172.35,594.251 2172.87,594.472 2173.33,594.915 C2173.8,595.358 2174.03,595.867 2174.03,596.442 L2174.03,603.216 C2174.03,604.19 2173.54,604.876 2172.57,605.274 L2168.72,606.868 L2168.72,620.88 L2171.04,619.95 C2171.17,619.906 2171.33,619.884 2171.51,619.884 C2171.59,619.884 2171.68,619.884 2171.77,619.884 C2172.52,620.016 2173.09,620.26 2173.47,620.614 C2173.84,620.968 2174.03,621.433 2174.03,622.009 L2174.03,628.782 C2174.03,629.712 2173.54,630.376 2172.57,630.774 L2168.72,632.368 L2168.72,646.513 C2168.72,647.885 2168.03,648.571 2166.66,648.571 C2165.29,648.571 2164.6,647.885 2164.6,646.513 L2164.6,634.095 L2156.03,637.681 M2156.03,626.126 L2164.6,622.606 L2164.6,608.595 L2156.03,612.181 L2156.03,626.126 "/>
<path class="FiguredBass" d="M3390.14,592.657 C3386.86,592.657 3384.68,593.974 3383.6,596.608 C3382.51,599.242 3381.97,602.972 3381.97,607.798 L3381.97,615.634 C3384.27,614.704 3386.26,614.217 3387.95,614.173 C3393.7,614.173 3398.23,615.445 3401.53,617.991 C3404.83,620.537 3406.47,624.322 3406.47,629.347 C3406.47,634.371 3404.8,638.167 3401.46,640.735 C3398.12,643.303 3393.61,644.587 3387.95,644.587 C3382.15,644.587 3377.61,641.897 3374.33,636.518 C3371.06,631.139 3369.42,624.753 3369.42,617.36 C3369.42,610.011 3371.32,603.636 3375.13,598.235 C3378.94,592.834 3383.94,590.134 3390.14,590.134 C3394.21,590.134 3397.73,591.163 3400.7,593.222 C3403.66,595.28 3405.15,597.992 3405.15,601.356 C3405.15,603.304 3404.44,604.986 3403.02,606.403 C3401.6,607.82 3399.91,608.528 3397.94,608.528 C3395.97,608.528 3394.28,607.82 3392.86,606.403 C3391.44,604.986 3390.74,603.304 3390.74,601.356 C3390.74,599.453 3391.44,597.77 3392.86,596.309 C3393.35,595.734 3394.03,595.247 3394.92,594.848 C3394.7,594.273 3394.26,593.83 3393.59,593.52 C3392.62,592.945 3391.47,592.657 3390.14,592.657 M3393.39,619.817 C3392.6,617.736 3390.85,616.696 3388.15,616.696 C3385.45,616.696 3383.77,617.736 3383.13,619.817 C3382.49,621.898 3382.17,625.063 3382.17,629.313 C3382.17,634.316 3382.49,637.681 3383.13,639.407 C3383.77,641.134 3385.45,641.997 3388.15,641.997 C3390.85,641.997 3392.6,640.957 3393.39,638.876 C3394.19,636.795 3394.59,633.619 3394.59,629.347 C3394.59,625.074 3394.19,621.898 3393.39,619.817"/>
<path class="NoteDot" transform="matrix(1.70079,0,0,1.70079,3713.83,389.764)" d="M0,-0.00166016 C0,2.75977 2.23857,4.99834 5,4.99834 C7.76143,4.99834 10,2.75977 10,-0.00166016 C10,-2.76309 7.76143,-5.00166 5,-5.00166 C2.23857,-5.00166 0,-2.76309 0,-0.00166016"/>
</svg>
