<?xml version="1.0" encoding="UTF-8" standalone="no"?>
<svg width="4209.44px" height="850.392px" viewBox="0 0 4209.44 850.392"
 xmlns="http://www.w3.org/2000/svg" xmlns:xlink="http://www.w3.org/1999/xlink" version="1.2" baseProfile="tiny">
<title>Exercices (5)</title>
<desc>Generated by MuseScore 3.6.2</desc>
<polyline class="StaffLines" fill="none" stroke="#000000" stroke-width="4.68" stroke-linejoin="bevel" points="70.866,325.984 4138.58,325.984"/>
<polyline class="StaffLines" fill="none" stroke="#000000" stroke-width="4.68" stroke-linejoin="bevel" points="70.866,368.504 4138.58,368.504"/>
<polyline class="StaffLines" fill="none" stroke="#000000" stroke-width="4.68" stroke-linejoin="bevel" points="70.866,411.024 4138.58,411.024"/>
<polyline class="StaffLines" fill="none" stroke="#000000" stroke-width="4.68" stroke-linejoin="bevel" points="70.866,453.543 4138.58,453.543"/>
<polyline class="StaffLines" fill="none" stroke="#000000" stroke-width="4.68" stroke-linejoin="bevel" points="70.866,496.063 4138.58,496.063"/>
<polyline class="BarLine" fill="none" stroke="#000000" stroke-width="7.65" stroke-linejoin="bevel" points="792.309,323.646 792.309,498.402"/>
<polyline class="BarLine" fill="none" stroke="#000000" stroke-width="7.65" stroke-linejoin="bevel" points="1337.16,323.646 1337.16,498.402"/>
<polyline class="BarLine" fill="none" stroke="#000000" stroke-width="7.65" stroke-linejoin="bevel" points="1882.01,323.646 1882.01,498.402"/>
<polyline class="BarLine" fill="none" stroke="#000000" stroke-width="7.65" stroke-linejoin="bevel" points="2426.87,323.646 2426.87,498.402"/>
<polyline class="BarLine" fill="none" stroke="#000000" stroke-width="7.65" stroke-linejoin="bevel" points="2971.72,323.646 2971.72,498.402"/>
<polyline class="BarLine" fill="none" stroke="#000000" stroke-width="7.65" stroke-linejoin="bevel" points="3569.82,323.646 3569.82,498.402"/>
<polyline class="BarLine" fill="none" stroke="#000000" stroke-width="7.65" stroke-linejoin="bevel" points="4097.12,323.646 4097.12,498.402"/>
<polyline class="BarLine" fill="none" stroke="#000000" stroke-width="23.39" stroke-linejoin="bevel" points="4126.89,323.646 4126.89,498.402"/>
<path class="Note" transform="matrix(1.70079,0,0,1.70079,324.111,474.803)" d="M18.7,-13.6 C4.9,-13.6 0,-6.6 0,-0.1 C0,6.4 4.9,13.4 18.7,13.4 C32.5,13.4 37.3,6.4 37.3,-0.1 C37.3,-6.6 32.5,-13.6 18.7,-13.6 M10.4,-4.5 C10.3,-4.9 10.3,-5.3 10.3,-5.7 C10.3,-6.5 10.5,-7.3 10.9,-8 C11.6,-9 12.8,-9.7 14.3,-10 C15.6,-10.3 16.3,-10.5 18.9,-10.5 L19,-10.5 C23,-10.5 24.3,-6.8 25.4,-3 L25.7,-2 C26.5,0.6 26.9,2.8 26.9,4.5 C26.9,5.7 26.7,6.8 26.3,7.6 C25.7,8.7 24.7,9.4 23,9.8 C22.1,10 20.6,10.1 20.6,10.1 C20.1,10.1 19.7,10.2 19.3,10.2 C16.1,10.2 14.1,9 12.7,4.7 C11.5,1 11.3,-0.1 10.4,-4.5"/>
<path class="Note" transform="matrix(1.70079,0,0,1.70079,855.497,411.024)" d="M18.7,-13.6 C4.9,-13.6 0,-6.6 0,-0.1 C0,6.4 4.9,13.4 18.7,13.4 C32.5,13.4 37.3,6.4 37.3,-0.1 C37.3,-6.6 32.5,-13.6 18.7,-13.6 M10.4,-4.5 C10.3,-4.9 10.3,-5.3 10.3,-5.7 C10.3,-6.5 10.5,-7.3 10.9,-8 C11.6,-9 12.8,-9.7 14.3,-10 C15.6,-10.3 16.3,-10.5 18.9,-10.5 L19,-10.5 C23,-10.5 24.3,-6.8 25.4,-3 L25.7,-2 C26.5,0.6 26.9,2.8 26.9,4.5 C26.9,5.7 26.7,6.8 26.3,7.6 C25.7,8.7 24.7,9.4 23,9.8 C22.1,10 20.6,10.1 20.6,10.1 C20.1,10.1 19.7,10.2 19.3,10.2 C16.1,10.2 14.1,9 12.7,4.7 C11.5,1 11.3,-0.1 10.4,-4.5"/>
<path class="Note" transform="matrix(1.70079,0,0,1.70079,1400.35,389.764)" d="M18.7,-13.6 C4.9,-13.6 0,-6.6 0,-0.1 C0,6.4 4.9,13.4 18.7,13.4 C32.5,13.4 37.3,6.4 37.3,-0.1 C37.3,-6.6 32.5,-13.6 18.7,-13.6 M10.4,-4.5 C10.3,-4.9 10.3,-5.3 10.3,-5.7 C10.3,-6.5 10.5,-7.3 10.9,-8 C11.6,-9 12.8,-9.7 14.3,-10 C15.6,-10.3 16.3,-10.5 18.9,-10.5 L19,-10.5 C23,-10.5 24.3,-6.8 25.4,-3 L25.7,-2 C26.5,0.6 26.9,2.8 26.9,4.5 C26.9,5.7 26.7,6.8 26.3,7.6 C25.7,8.7 24.7,9.4 23,9.8 C22.1,10 20.6,10.1 20.6,10.1 C20.1,10.1 19.7,10.2 19.3,10.2 C16.1,10.2 14.1,9 12.7,4.7 C11.5,1 11.3,-0.1 10.4,-4.5"/>
<path class="Note" transform="matrix(1.70079,0,0,1.70079,1945.2,389.764)" d="M18.7,-13.6 C4.9,-13.6 0,-6.6 0,-0.1 C0,6.4 4.9,13.4 18.7,13.4 C32.5,13.4 37.3,6.4 37.3,-0.1 C37.3,-6.6 32.5,-13.6 18.7,-13.6 M10.4,-4.5 C10.3,-4.9 10.3,-5.3 10.3,-5.7 C10.3,-6.5 10.5,-7.3 10.9,-8 C11.6,-9 12.8,-9.7 14.3,-10 C15.6,-10.3 16.3,-10.5 18.9,-10.5 L19,-10.5 C23,-10.5 24.3,-6.8 25.4,-3 L25.7,-2 C26.5,0.6 26.9,2.8 26.9,4.5 C26.9,5.7 26.7,6.8 26.3,7.6 C25.7,8.7 24.7,9.4 23,9.8 C22.1,10 20.6,10.1 20.6,10.1 C20.1,10.1 19.7,10.2 19.3,10.2 C16.1,10.2 14.1,9 12.7,4.7 C11.5,1 11.3,-0.1 10.4,-4.5"/>
<path class="Note" transform="matrix(1.70079,0,0,1.70079,2490.06,389.764)" d="M18.7,-13.6 C4.9,-13.6 0,-6.6 0,-0.1 C0,6.4 4.9,13.4 18.7,13.4 C32.5,13.4 37.3,6.4 37.3,-0.1 C37.3,-6.6 32.5,-13.6 18.7,-13.6 M10.4,-4.5 C10.3,-4.9 10.3,-5.3 10.3,-5.7 C10.3,-6.5 10.5,-7.3 10.9,-8 C11.6,-9 12.8,-9.7 14.3,-10 C15.6,-10.3 16.3,-10.5 18.9,-10.5 L19,-10.5 C23,-10.5 24.3,-6.8 25.4,-3 L25.7,-2 C26.5,0.6 26.9,2.8 26.9,4.5 C26.9,5.7 26.7,6.8 26.3,7.6 C25.7,8.7 24.7,9.4 23,9.8 C22.1,10 20.6,10.1 20.6,10.1 C20.1,10.1 19.7,10.2 19.3,10.2 C16.1,10.2 14.1,9 12.7,4.7 C11.5,1 11.3,-0.1 10.4,-4.5"/>
<path class="Note" transform="matrix(1.70079,0,0,1.70079,3034.91,389.764)" d="M18.7,-13.6 C4.9,-13.6 0,-6.6 0,-0.1 C0,6.4 4.9,13.4 18.7,13.4 C32.5,13.4 37.3,6.4 37.3,-0.1 C37.3,-6.6 32.5,-13.6 18.7,-13.6 M10.4,-4.5 C10.3,-4.9 10.3,-5.3 10.3,-5.7 C10.3,-6.5 10.5,-7.3 10.9,-8 C11.6,-9 12.8,-9.7 14.3,-10 C15.6,-10.3 16.3,-10.5 18.9,-10.5 L19,-10.5 C23,-10.5 24.3,-6.8 25.4,-3 L25.7,-2 C26.5,0.6 26.9,2.8 26.9,4.5 C26.9,5.7 26.7,6.8 26.3,7.6 C25.7,8.7 24.7,9.4 23,9.8 C22.1,10 20.6,10.1 20.6,10.1 C20.1,10.1 19.7,10.2 19.3,10.2 C16.1,10.2 14.1,9 12.7,4.7 C11.5,1 11.3,-0.1 10.4,-4.5"/>
<path class="Note" transform="matrix(1.70079,0,0,1.70079,3628.92,474.803)" d="M18.7,-13.6 C4.9,-13.6 0,-6.6 0,-0.1 C0,6.4 4.9,13.4 18.7,13.4 C32.5,13.4 37.3,6.4 37.3,-0.1 C37.3,-6.6 32.5,-13.6 18.7,-13.6 M10.4,-4.5 C10.3,-4.9 10.3,-5.3 10.3,-5.7 C10.3,-6.5 10.5,-7.3 10.9,-8 C11.6,-9 12.8,-9.7 14.3,-10 C15.6,-10.3 16.3,-10.5 18.9,-10.5 L19,-10.5 C23,-10.5 24.3,-6.8 25.4,-3 L25.7,-2 C26.5,0.6 26.9,2.8 26.9,4.5 C26.9,5.7 26.7,6.8 26.3,7.6 C25.7,8.7 24.7,9.4 23,9.8 C22.1,10 20.6,10.1 20.6,10.1 C20.1,10.1 19.7,10.2 19.3,10.2 C16.1,10.2 14.1,9 12.7,4.7 C11.5,1 11.3,-0.1 10.4,-4.5"/>
<path class="Clef" transform="matrix(1.70079,0,0,1.70079,104.882,368.504)" d="M25.4,-25.1 C17.8,-25.1 11.7,-20.7 11.6,-20.7 C5.8,-16.4 3.5,-11.3 2.6,-7.8 C2.1,-6 1.9,-4.2 1.9,-2.5 C1.9,-0.1 2.3,2.1 3.2,4 C4.4,6.7 6.7,8.6 9.7,9.6 C10.9,10 12.2,10.2 13.5,10.2 C15.7,10.2 18,9.6 19.9,8.5 C23,6.8 24.9,3.2 24.9,-0.7 C24.9,-4.2 23.1,-7.4 20.1,-9.3 C18,-10.7 16,-11.1 14.3,-11.1 C13.1,-11.1 12,-10.9 11.1,-10.6 C10.1,-10.2 8.4,-9.2 7.6,-8.5 C7.9,-10.4 9.1,-13.3 10.2,-14.9 C11.3,-16.5 13.5,-18.5 15.2,-19.4 C17.7,-20.8 20.9,-21.4 24.4,-21.4 C34.6,-21.4 39.6,-13.2 39.6,3.6 C39.6,12.9 36.1,21.8 33.1,27.7 C29.8,34.3 25.4,40.6 21.5,44.1 C11.1,53.6 1.3,58.1 1.2,58.1 C1.2,58.1 -0.3,59 0.1,60.5 C0.4,61.5 1.3,61.7 1.9,61.7 C2,61.7 2.3,61.6 2.4,61.6 C2.5,61.6 13.9,56.9 23,49.8 C28.1,46.1 32.7,42.1 36.7,37.8 C40.3,33.9 43.4,29.7 45.9,25.5 C50.3,18 52.8,10.2 52.8,3.5 C52.8,-4.8 50.6,-11.7 46.5,-16.6 C41.8,-22.2 34.7,-25.1 25.4,-25.1 M56.8,-12.4 C56.8,-9.6 59,-7.4 61.6,-7.4 C64.2,-7.4 66.4,-9.6 66.4,-12.4 C66.4,-15.2 64.2,-17.5 61.6,-17.5 C59,-17.5 56.8,-15.2 56.8,-12.4 M56.8,12.3 C56.8,15.1 59,17.4 61.6,17.4 C64.2,17.4 66.4,15.1 66.4,12.3 C66.4,9.5 64.2,7.2 61.6,7.2 C59,7.2 56.8,9.5 56.8,12.3"/>
<path class="FiguredBass" d="M1427.75,637.681 L1427.75,651.559 C1427.75,652.932 1427.05,653.618 1425.66,653.618 C1424.26,653.618 1423.57,652.932 1423.57,651.559 L1423.57,639.473 L1421.44,640.337 C1421.22,640.425 1420.93,640.47 1420.58,640.47 C1420,640.47 1419.49,640.248 1419.05,639.806 C1418.61,639.363 1418.39,638.854 1418.39,638.278 L1418.39,631.505 C1418.39,630.531 1418.85,629.845 1419.78,629.446 L1423.57,627.852 L1423.57,613.907 L1421.44,614.77 C1421.31,614.815 1421.13,614.837 1420.91,614.837 C1420.82,614.837 1420.71,614.837 1420.58,614.837 C1419.91,614.748 1419.38,614.505 1418.99,614.106 C1418.59,613.708 1418.39,613.243 1418.39,612.712 L1418.39,605.938 C1418.39,605.009 1418.85,604.345 1419.78,603.946 L1423.57,602.352 L1423.57,588.208 C1423.57,586.835 1424.26,586.149 1425.66,586.149 C1427.05,586.149 1427.75,586.835 1427.75,588.208 L1427.75,600.626 L1436.32,597.04 L1436.32,583.161 C1436.32,581.789 1437,581.102 1438.38,581.102 C1439.75,581.102 1440.43,581.789 1440.43,583.161 L1440.43,595.38 L1442.76,594.384 C1442.98,594.295 1443.22,594.251 1443.49,594.251 C1444.06,594.251 1444.58,594.472 1445.05,594.915 C1445.51,595.358 1445.75,595.867 1445.75,596.442 L1445.75,603.216 C1445.75,604.19 1445.26,604.876 1444.29,605.274 L1440.43,606.868 L1440.43,620.88 L1442.76,619.95 C1442.89,619.906 1443.05,619.884 1443.22,619.884 C1443.31,619.884 1443.4,619.884 1443.49,619.884 C1444.24,620.016 1444.81,620.26 1445.18,620.614 C1445.56,620.968 1445.75,621.433 1445.75,622.009 L1445.75,628.782 C1445.75,629.712 1445.26,630.376 1444.29,630.774 L1440.43,632.368 L1440.43,646.513 C1440.43,647.885 1439.75,648.571 1438.38,648.571 C1437,648.571 1436.32,647.885 1436.32,646.513 L1436.32,634.095 L1427.75,637.681 M1427.75,626.126 L1436.32,622.606 L1436.32,608.595 L1427.75,612.181 L1427.75,626.126 "/>
<path class="FiguredBass" d="M1978.91,592.657 C1975.64,592.657 1973.46,593.974 1972.37,596.608 C1971.29,599.242 1970.74,602.972 1970.74,607.798 L1970.74,615.634 C1973.05,614.704 1975.04,614.217 1976.72,614.173 C1982.48,614.173 1987,615.445 1990.3,617.991 C1993.6,620.537 1995.25,624.322 1995.25,629.347 C1995.25,634.371 1993.58,638.167 1990.23,640.735 C1986.89,643.303 1982.39,644.587 1976.72,644.587 C1970.92,644.587 1966.38,641.897 1963.11,636.518 C1959.83,631.139 1958.19,624.753 1958.19,617.36 C1958.19,610.011 1960.1,603.636 1963.9,598.235 C1967.71,592.834 1972.71,590.134 1978.91,590.134 C1982.99,590.134 1986.5,591.163 1989.47,593.222 C1992.44,595.28 1993.92,597.992 1993.92,601.356 C1993.92,603.304 1993.21,604.986 1991.8,606.403 C1990.38,607.82 1988.69,608.528 1986.72,608.528 C1984.75,608.528 1983.05,607.82 1981.64,606.403 C1980.22,604.986 1979.51,603.304 1979.51,601.356 C1979.51,599.453 1980.22,597.77 1981.64,596.309 C1982.12,595.734 1982.81,595.247 1983.69,594.848 C1983.47,594.273 1983.03,593.83 1982.37,593.52 C1981.39,592.945 1980.24,592.657 1978.91,592.657 M1982.17,619.817 C1981.37,617.736 1979.62,616.696 1976.92,616.696 C1974.22,616.696 1972.55,617.736 1971.91,619.817 C1971.26,621.898 1970.94,625.063 1970.94,629.313 C1970.94,634.316 1971.26,637.681 1971.91,639.407 C1972.55,641.134 1974.22,641.997 1976.92,641.997 C1979.62,641.997 1981.37,640.957 1982.17,638.876 C1982.96,636.795 1983.36,633.619 1983.36,629.347 C1983.36,625.074 1982.96,621.898 1982.17,619.817"/>
<path class="FiguredBass" d="M1978.45,667.231 C1980.13,667.231 1981.9,666.988 1983.76,666.501 L1986.75,665.704 C1987.32,665.704 1987.78,665.925 1988.11,666.368 C1988.44,666.811 1988.41,667.209 1988.01,667.563 L1957.13,703.489 L1975.26,703.489 L1975.26,689.278 C1975.26,688.26 1975.54,687.474 1976.09,686.921 C1976.64,686.367 1977.35,685.925 1978.22,685.593 C1979.08,685.261 1980.21,684.276 1981.6,682.638 C1983,681 1984.34,678.786 1985.62,675.997 C1985.84,675.554 1986.17,675.333 1986.62,675.333 C1987.55,675.333 1988.01,675.842 1988.01,676.86 L1988.01,703.489 L1995.85,703.489 C1996.95,703.489 1997.51,703.998 1997.51,705.016 C1997.51,706.123 1996.95,706.677 1995.85,706.677 L1988.01,706.677 L1988.01,707.54 C1988.01,710.285 1988.74,712.675 1990.2,714.712 C1991.66,716.748 1993.54,717.766 1995.85,717.766 C1996.73,717.766 1997.17,718.165 1997.17,718.962 C1997.17,719.847 1996.73,720.29 1995.85,720.29 C1994.25,720.29 1991.88,720.057 1988.74,719.593 C1985.6,719.128 1983.22,718.895 1981.6,718.895 C1979.99,718.895 1977.61,719.128 1974.46,719.593 C1971.32,720.057 1968.95,720.29 1967.36,720.29 C1966.47,720.29 1966.03,719.847 1966.03,718.962 C1966.03,718.165 1966.47,717.766 1967.36,717.766 C1969.66,717.766 1971.55,716.748 1973.04,714.712 C1974.52,712.675 1975.26,710.285 1975.26,707.54 L1975.26,706.677 L1957.13,706.677 C1955.98,706.677 1955.13,706.4 1954.57,705.847 C1954.02,705.293 1953.74,704.729 1953.74,704.153 C1953.74,703.932 1954.26,703.168 1955.3,701.862 C1956.35,700.556 1957.62,698.819 1959.12,696.649 C1960.63,694.48 1962.12,692.012 1963.61,689.245 C1965.09,686.478 1966.35,683.158 1967.39,679.284 C1968.43,675.41 1968.95,671.503 1968.95,667.563 C1968.95,666.412 1969.44,665.837 1970.41,665.837 C1970.55,665.837 1971.01,665.947 1971.81,666.169 C1972.6,666.39 1973.62,666.623 1974.86,666.866 C1976.1,667.11 1977.3,667.231 1978.45,667.231"/>
<path class="FiguredBass" d="M2523.3,591.528 C2524.98,591.528 2526.75,591.285 2528.61,590.798 L2531.6,590.001 C2532.18,590.001 2532.63,590.222 2532.96,590.665 C2533.29,591.108 2533.26,591.506 2532.86,591.86 L2501.98,627.786 L2520.11,627.786 L2520.11,613.575 C2520.11,612.557 2520.39,611.771 2520.94,611.218 C2521.5,610.664 2522.2,610.222 2523.07,609.889 C2523.93,609.557 2525.06,608.572 2526.45,606.934 C2527.85,605.296 2529.19,603.083 2530.47,600.294 C2530.69,599.851 2531.03,599.63 2531.47,599.63 C2532.4,599.63 2532.86,600.139 2532.86,601.157 L2532.86,627.786 L2540.7,627.786 C2541.81,627.786 2542.36,628.295 2542.36,629.313 C2542.36,630.42 2541.81,630.973 2540.7,630.973 L2532.86,630.973 L2532.86,631.837 C2532.86,634.582 2533.59,636.972 2535.05,639.009 C2536.52,641.045 2538.4,642.063 2540.7,642.063 C2541.58,642.063 2542.03,642.462 2542.03,643.259 C2542.03,644.144 2541.58,644.587 2540.7,644.587 C2539.11,644.587 2536.74,644.354 2533.59,643.889 C2530.45,643.425 2528.07,643.192 2526.45,643.192 C2524.84,643.192 2522.46,643.425 2519.32,643.889 C2516.17,644.354 2513.8,644.587 2512.21,644.587 C2511.33,644.587 2510.88,644.144 2510.88,643.259 C2510.88,642.462 2511.33,642.063 2512.21,642.063 C2514.51,642.063 2516.41,641.045 2517.89,639.009 C2519.37,636.972 2520.11,634.582 2520.11,631.837 L2520.11,630.973 L2501.98,630.973 C2500.83,630.973 2499.98,630.697 2499.43,630.143 C2498.87,629.59 2498.6,629.026 2498.6,628.45 C2498.6,628.229 2499.12,627.465 2500.16,626.159 C2501.2,624.853 2502.47,623.115 2503.98,620.946 C2505.48,618.777 2506.98,616.309 2508.46,613.542 C2509.94,610.775 2511.2,607.455 2512.24,603.581 C2513.28,599.707 2513.8,595.8 2513.8,591.86 C2513.8,590.709 2514.29,590.134 2515.27,590.134 C2515.4,590.134 2515.86,590.244 2516.66,590.466 C2517.46,590.687 2518.48,590.919 2519.71,591.163 C2520.95,591.406 2522.15,591.528 2523.3,591.528"/>
<path class="FiguredBass" d="M3062.31,637.681 L3062.31,651.559 C3062.31,652.932 3061.61,653.618 3060.22,653.618 C3058.82,653.618 3058.13,652.932 3058.13,651.559 L3058.13,639.473 L3056,640.337 C3055.78,640.425 3055.49,640.47 3055.14,640.47 C3054.56,640.47 3054.05,640.248 3053.61,639.806 C3053.17,639.363 3052.95,638.854 3052.95,638.278 L3052.95,631.505 C3052.95,630.531 3053.41,629.845 3054.34,629.446 L3058.13,627.852 L3058.13,613.907 L3056,614.77 C3055.87,614.815 3055.69,614.837 3055.47,614.837 C3055.38,614.837 3055.27,614.837 3055.14,614.837 C3054.47,614.748 3053.94,614.505 3053.54,614.106 C3053.15,613.708 3052.95,613.243 3052.95,612.712 L3052.95,605.938 C3052.95,605.009 3053.41,604.345 3054.34,603.946 L3058.13,602.352 L3058.13,588.208 C3058.13,586.835 3058.82,586.149 3060.22,586.149 C3061.61,586.149 3062.31,586.835 3062.31,588.208 L3062.31,600.626 L3070.88,597.04 L3070.88,583.161 C3070.88,581.789 3071.56,581.102 3072.93,581.102 C3074.31,581.102 3074.99,581.789 3074.99,583.161 L3074.99,595.38 L3077.32,594.384 C3077.54,594.295 3077.78,594.251 3078.05,594.251 C3078.62,594.251 3079.14,594.472 3079.61,594.915 C3080.07,595.358 3080.31,595.867 3080.31,596.442 L3080.31,603.216 C3080.31,604.19 3079.82,604.876 3078.85,605.274 L3074.99,606.868 L3074.99,620.88 L3077.32,619.95 C3077.45,619.906 3077.61,619.884 3077.78,619.884 C3077.87,619.884 3077.96,619.884 3078.05,619.884 C3078.8,620.016 3079.37,620.26 3079.74,620.614 C3080.12,620.968 3080.31,621.433 3080.31,622.009 L3080.31,628.782 C3080.31,629.712 3079.82,630.376 3078.85,630.774 L3074.99,632.368 L3074.99,646.513 C3074.99,647.885 3074.31,648.571 3072.93,648.571 C3071.56,648.571 3070.88,647.885 3070.88,646.513 L3070.88,634.095 L3062.31,637.681 M3062.31,626.126 L3070.88,622.606 L3070.88,608.595 L3062.31,612.181 L3062.31,626.126 "/>
<path class="FiguredBass" d="M3315.58,595.048 C3315.72,595.048 3316,594.76 3316.45,594.184 C3318.35,591.484 3321.01,590.134 3324.41,590.134 C3327.16,590.134 3329.75,591.152 3332.18,593.188 C3334.62,595.225 3336.63,596.243 3338.23,596.243 C3339.95,596.243 3341.59,595.734 3343.14,594.716 C3344.69,593.697 3345.92,592.679 3346.83,591.661 C3347.73,590.643 3348.32,590.134 3348.59,590.134 C3349.03,590.134 3349.43,590.278 3349.78,590.565 C3350.14,590.853 3350.31,591.218 3350.31,591.661 C3350.31,591.971 3349.41,593.498 3347.59,596.243 C3345.78,598.988 3343.76,602.164 3341.55,605.772 C3339.33,609.38 3337.32,613.885 3335.5,619.286 C3333.69,624.687 3332.78,629.845 3332.78,634.759 C3332.78,636.662 3332.98,638.854 3333.38,641.333 C3333.69,643.236 3333.69,644.321 3333.38,644.587 C3333.16,644.808 3332.78,644.919 3332.25,644.919 C3332.03,644.919 3331,644.631 3329.16,644.056 C3327.33,643.48 3325.57,643.192 3323.88,643.192 C3322.38,643.192 3320.64,643.48 3318.67,644.056 C3316.7,644.631 3315.6,644.919 3315.38,644.919 C3314.9,644.919 3314.5,644.72 3314.19,644.321 C3313.88,643.923 3313.83,643.502 3314.06,643.059 C3316.67,636.817 3319.84,630.741 3323.58,624.831 C3327.33,618.921 3332.01,612.114 3337.63,604.411 C3335.5,605.562 3333.36,606.138 3331.19,606.138 C3328.89,606.138 3326.56,605.108 3324.22,603.05 C3321.87,600.991 3319.94,599.962 3318.44,599.962 C3317.33,599.962 3316.37,600.593 3315.55,601.854 C3314.73,603.116 3314.32,605.009 3314.32,607.532 L3314.32,615.7 C3314.32,616.807 3313.81,617.36 3312.79,617.36 C3311.69,617.36 3311.13,616.807 3311.13,615.7 L3311.13,591.794 C3311.13,590.687 3311.69,590.134 3312.79,590.134 C3313.81,590.134 3314.32,590.687 3314.32,591.794 L3314.32,593.321 C3314.32,593.675 3314.41,593.985 3314.59,594.251 C3315.12,594.782 3315.45,595.048 3315.58,595.048"/>
<path class="FiguredBass" d="M3332.06,707.208 C3331.57,707.739 3330.93,708.005 3330.13,708.005 C3329.33,708.005 3328.68,707.728 3328.17,707.175 C3327.66,706.621 3327.41,705.99 3327.41,705.282 L3327.41,695.786 L3317.91,695.786 C3317.11,695.786 3316.46,695.509 3315.95,694.956 C3315.44,694.403 3315.19,693.772 3315.19,693.063 C3315.19,692.355 3315.44,691.724 3315.95,691.171 C3316.46,690.617 3317.11,690.341 3317.91,690.341 L3327.41,690.341 L3327.41,680.845 C3327.41,680.136 3327.66,679.505 3328.17,678.952 C3328.68,678.399 3329.33,678.122 3330.13,678.122 C3330.93,678.122 3331.58,678.399 3332.09,678.952 C3332.6,679.505 3332.85,680.136 3332.85,680.845 L3332.85,690.341 L3342.35,690.341 C3343.15,690.341 3343.8,690.617 3344.31,691.171 C3344.82,691.724 3345.07,692.355 3345.07,693.063 C3345.07,693.772 3344.82,694.403 3344.31,694.956 C3343.8,695.509 3343.15,695.786 3342.35,695.786 L3332.85,695.786 L3332.85,705.282 C3332.85,705.99 3332.59,706.632 3332.06,707.208"/>
</svg>
