<?xml version="1.0" encoding="UTF-8" standalone="no"?>
<svg width="4209.44px" height="850.392px" viewBox="0 0 4209.44 850.392"
 xmlns="http://www.w3.org/2000/svg" xmlns:xlink="http://www.w3.org/1999/xlink" version="1.2" baseProfile="tiny">
<title>Exercices (23)</title>
<desc>Generated by MuseScore 3.6.2</desc>
<polyline class="StaffLines" fill="none" stroke="#000000" stroke-width="4.68" stroke-linejoin="bevel" points="70.866,325.984 4138.58,325.984"/>
<polyline class="StaffLines" fill="none" stroke="#000000" stroke-width="4.68" stroke-linejoin="bevel" points="70.866,368.504 4138.58,368.504"/>
<polyline class="StaffLines" fill="none" stroke="#000000" stroke-width="4.68" stroke-linejoin="bevel" points="70.866,411.024 4138.58,411.024"/>
<polyline class="StaffLines" fill="none" stroke="#000000" stroke-width="4.68" stroke-linejoin="bevel" points="70.866,453.543 4138.58,453.543"/>
<polyline class="StaffLines" fill="none" stroke="#000000" stroke-width="4.68" stroke-linejoin="bevel" points="70.866,496.063 4138.58,496.063"/>
<polyline class="BarLine" fill="none" stroke="#000000" stroke-width="7.65" stroke-linejoin="bevel" points="667.885,323.646 667.885,498.402"/>
<polyline class="BarLine" fill="none" stroke="#000000" stroke-width="7.65" stroke-linejoin="bevel" points="1009.2,323.646 1009.2,498.402"/>
<polyline class="BarLine" fill="none" stroke="#000000" stroke-width="7.65" stroke-linejoin="bevel" points="1350.52,323.646 1350.52,498.402"/>
<polyline class="BarLine" fill="none" stroke="#000000" stroke-width="7.65" stroke-linejoin="bevel" points="1691.83,323.646 1691.83,498.402"/>
<polyline class="BarLine" fill="none" stroke="#000000" stroke-width="7.65" stroke-linejoin="bevel" points="2048.62,323.646 2048.62,498.402"/>
<polyline class="BarLine" fill="none" stroke="#000000" stroke-width="7.65" stroke-linejoin="bevel" points="2389.94,323.646 2389.94,498.402"/>
<polyline class="BarLine" fill="none" stroke="#000000" stroke-width="7.65" stroke-linejoin="bevel" points="2732.07,323.646 2732.07,498.402"/>
<polyline class="BarLine" fill="none" stroke="#000000" stroke-width="7.65" stroke-linejoin="bevel" points="3074.21,323.646 3074.21,498.402"/>
<polyline class="BarLine" fill="none" stroke="#000000" stroke-width="7.65" stroke-linejoin="bevel" points="3416.34,323.646 3416.34,498.402"/>
<polyline class="BarLine" fill="none" stroke="#000000" stroke-width="7.65" stroke-linejoin="bevel" points="3758.48,323.646 3758.48,498.402"/>
<polyline class="BarLine" fill="none" stroke="#000000" stroke-width="7.65" stroke-linejoin="bevel" points="4097.12,323.646 4097.12,498.402"/>
<polyline class="BarLine" fill="none" stroke="#000000" stroke-width="23.39" stroke-linejoin="bevel" points="4126.89,323.646 4126.89,498.402"/>
<path class="Accidental" transform="matrix(1.70079,0,0,1.70079,1736.74,411.024)" d="M23.3,-10.6 C23.9,-10.7 24.4,-11.4 24.4,-12 L24.4,-17.9 C24.4,-18.7 23.8,-19.3 23,-19.3 L22.8,-19.3 L19.5,-18.6 L19.5,-33.5 L16.7,-33.5 L16.7,-18 L7.8,-16.2 L7.8,-30.3 L5,-30.3 L5,-15.6 L1.1,-14.8 C0.5,-14.7 0,-14 0,-13.4 L0,-13.2 L0,-7.4 L0,-7.6 C0,-6.8 0.6,-6.2 1.4,-6.2 L1.7,-6.2 L5,-6.9 L5,9.6 L1.1,10.4 C0.5,10.5 0,11.2 0,11.8 L0,17.6 C0,18.4 0.6,19 1.4,19 L1.7,19 L5,18.3 L5,33.2 L7.8,33.2 L7.8,17.7 L16.7,15.9 L16.7,30 L19.5,30 L19.5,15.3 L23.3,14.6 C23.9,14.5 24.4,13.8 24.4,13.2 L24.4,7.3 C24.4,6.5 23.8,5.9 23,5.9 L22.8,5.9 L19.5,6.6 L19.5,-9.9 L23.3,-10.6 M7.8,9.1 L7.8,-7.5 L16.7,-9.3 L16.7,7.2 L7.8,9.1 "/>
<polyline class="LedgerLine" fill="none" stroke="#000000" stroke-width="6.80" stroke-linejoin="bevel" points="3475.44,581.102 3568.64,581.102"/>
<polyline class="LedgerLine" fill="none" stroke="#000000" stroke-width="6.80" stroke-linejoin="bevel" points="3475.44,538.583 3568.64,538.583"/>
<polyline class="LedgerLine" fill="none" stroke="#000000" stroke-width="6.80" stroke-linejoin="bevel" points="3817.58,538.583 3910.78,538.583"/>
<path class="Note" transform="matrix(1.70079,0,0,1.70079,408.127,389.764)" d="M18.7,-13.6 C4.9,-13.6 0,-6.6 0,-0.1 C0,6.4 4.9,13.4 18.7,13.4 C32.5,13.4 37.3,6.4 37.3,-0.1 C37.3,-6.6 32.5,-13.6 18.7,-13.6 M10.4,-4.5 C10.3,-4.9 10.3,-5.3 10.3,-5.7 C10.3,-6.5 10.5,-7.3 10.9,-8 C11.6,-9 12.8,-9.7 14.3,-10 C15.6,-10.3 16.3,-10.5 18.9,-10.5 L19,-10.5 C23,-10.5 24.3,-6.8 25.4,-3 L25.7,-2 C26.5,0.6 26.9,2.8 26.9,4.5 C26.9,5.7 26.7,6.8 26.3,7.6 C25.7,8.7 24.7,9.4 23,9.8 C22.1,10 20.6,10.1 20.6,10.1 C20.1,10.1 19.7,10.2 19.3,10.2 C16.1,10.2 14.1,9 12.7,4.7 C11.5,1 11.3,-0.1 10.4,-4.5"/>
<path class="Note" transform="matrix(1.70079,0,0,1.70079,731.073,389.764)" d="M18.7,-13.6 C4.9,-13.6 0,-6.6 0,-0.1 C0,6.4 4.9,13.4 18.7,13.4 C32.5,13.4 37.3,6.4 37.3,-0.1 C37.3,-6.6 32.5,-13.6 18.7,-13.6 M10.4,-4.5 C10.3,-4.9 10.3,-5.3 10.3,-5.7 C10.3,-6.5 10.5,-7.3 10.9,-8 C11.6,-9 12.8,-9.7 14.3,-10 C15.6,-10.3 16.3,-10.5 18.9,-10.5 L19,-10.5 C23,-10.5 24.3,-6.8 25.4,-3 L25.7,-2 C26.5,0.6 26.9,2.8 26.9,4.5 C26.9,5.7 26.7,6.8 26.3,7.6 C25.7,8.7 24.7,9.4 23,9.8 C22.1,10 20.6,10.1 20.6,10.1 C20.1,10.1 19.7,10.2 19.3,10.2 C16.1,10.2 14.1,9 12.7,4.7 C11.5,1 11.3,-0.1 10.4,-4.5"/>
<path class="Note" transform="matrix(1.70079,0,0,1.70079,1072.39,389.764)" d="M18.7,-13.6 C4.9,-13.6 0,-6.6 0,-0.1 C0,6.4 4.9,13.4 18.7,13.4 C32.5,13.4 37.3,6.4 37.3,-0.1 C37.3,-6.6 32.5,-13.6 18.7,-13.6 M10.4,-4.5 C10.3,-4.9 10.3,-5.3 10.3,-5.7 C10.3,-6.5 10.5,-7.3 10.9,-8 C11.6,-9 12.8,-9.7 14.3,-10 C15.6,-10.3 16.3,-10.5 18.9,-10.5 L19,-10.5 C23,-10.5 24.3,-6.8 25.4,-3 L25.7,-2 C26.5,0.6 26.9,2.8 26.9,4.5 C26.9,5.7 26.7,6.8 26.3,7.6 C25.7,8.7 24.7,9.4 23,9.8 C22.1,10 20.6,10.1 20.6,10.1 C20.1,10.1 19.7,10.2 19.3,10.2 C16.1,10.2 14.1,9 12.7,4.7 C11.5,1 11.3,-0.1 10.4,-4.5"/>
<path class="Note" transform="matrix(1.70079,0,0,1.70079,1413.71,389.764)" d="M18.7,-13.6 C4.9,-13.6 0,-6.6 0,-0.1 C0,6.4 4.9,13.4 18.7,13.4 C32.5,13.4 37.3,6.4 37.3,-0.1 C37.3,-6.6 32.5,-13.6 18.7,-13.6 M10.4,-4.5 C10.3,-4.9 10.3,-5.3 10.3,-5.7 C10.3,-6.5 10.5,-7.3 10.9,-8 C11.6,-9 12.8,-9.7 14.3,-10 C15.6,-10.3 16.3,-10.5 18.9,-10.5 L19,-10.5 C23,-10.5 24.3,-6.8 25.4,-3 L25.7,-2 C26.5,0.6 26.9,2.8 26.9,4.5 C26.9,5.7 26.7,6.8 26.3,7.6 C25.7,8.7 24.7,9.4 23,9.8 C22.1,10 20.6,10.1 20.6,10.1 C20.1,10.1 19.7,10.2 19.3,10.2 C16.1,10.2 14.1,9 12.7,4.7 C11.5,1 11.3,-0.1 10.4,-4.5"/>
<path class="Note" transform="matrix(1.70079,0,0,1.70079,1788.87,411.024)" d="M18.7,-13.6 C4.9,-13.6 0,-6.6 0,-0.1 C0,6.4 4.9,13.4 18.7,13.4 C32.5,13.4 37.3,6.4 37.3,-0.1 C37.3,-6.6 32.5,-13.6 18.7,-13.6 M10.4,-4.5 C10.3,-4.9 10.3,-5.3 10.3,-5.7 C10.3,-6.5 10.5,-7.3 10.9,-8 C11.6,-9 12.8,-9.7 14.3,-10 C15.6,-10.3 16.3,-10.5 18.9,-10.5 L19,-10.5 C23,-10.5 24.3,-6.8 25.4,-3 L25.7,-2 C26.5,0.6 26.9,2.8 26.9,4.5 C26.9,5.7 26.7,6.8 26.3,7.6 C25.7,8.7 24.7,9.4 23,9.8 C22.1,10 20.6,10.1 20.6,10.1 C20.1,10.1 19.7,10.2 19.3,10.2 C16.1,10.2 14.1,9 12.7,4.7 C11.5,1 11.3,-0.1 10.4,-4.5"/>
<path class="Note" transform="matrix(1.70079,0,0,1.70079,2111.81,389.764)" d="M18.7,-13.6 C4.9,-13.6 0,-6.6 0,-0.1 C0,6.4 4.9,13.4 18.7,13.4 C32.5,13.4 37.3,6.4 37.3,-0.1 C37.3,-6.6 32.5,-13.6 18.7,-13.6 M10.4,-4.5 C10.3,-4.9 10.3,-5.3 10.3,-5.7 C10.3,-6.5 10.5,-7.3 10.9,-8 C11.6,-9 12.8,-9.7 14.3,-10 C15.6,-10.3 16.3,-10.5 18.9,-10.5 L19,-10.5 C23,-10.5 24.3,-6.8 25.4,-3 L25.7,-2 C26.5,0.6 26.9,2.8 26.9,4.5 C26.9,5.7 26.7,6.8 26.3,7.6 C25.7,8.7 24.7,9.4 23,9.8 C22.1,10 20.6,10.1 20.6,10.1 C20.1,10.1 19.7,10.2 19.3,10.2 C16.1,10.2 14.1,9 12.7,4.7 C11.5,1 11.3,-0.1 10.4,-4.5"/>
<path class="Note" transform="matrix(1.70079,0,0,1.70079,2449.04,453.543)" d="M18.7,-13.6 C4.9,-13.6 0,-6.6 0,-0.1 C0,6.4 4.9,13.4 18.7,13.4 C32.5,13.4 37.3,6.4 37.3,-0.1 C37.3,-6.6 32.5,-13.6 18.7,-13.6 M10.4,-4.5 C10.3,-4.9 10.3,-5.3 10.3,-5.7 C10.3,-6.5 10.5,-7.3 10.9,-8 C11.6,-9 12.8,-9.7 14.3,-10 C15.6,-10.3 16.3,-10.5 18.9,-10.5 L19,-10.5 C23,-10.5 24.3,-6.8 25.4,-3 L25.7,-2 C26.5,0.6 26.9,2.8 26.9,4.5 C26.9,5.7 26.7,6.8 26.3,7.6 C25.7,8.7 24.7,9.4 23,9.8 C22.1,10 20.6,10.1 20.6,10.1 C20.1,10.1 19.7,10.2 19.3,10.2 C16.1,10.2 14.1,9 12.7,4.7 C11.5,1 11.3,-0.1 10.4,-4.5"/>
<path class="Note" transform="matrix(1.70079,0,0,1.70079,2791.18,453.543)" d="M18.7,-13.6 C4.9,-13.6 0,-6.6 0,-0.1 C0,6.4 4.9,13.4 18.7,13.4 C32.5,13.4 37.3,6.4 37.3,-0.1 C37.3,-6.6 32.5,-13.6 18.7,-13.6 M10.4,-4.5 C10.3,-4.9 10.3,-5.3 10.3,-5.7 C10.3,-6.5 10.5,-7.3 10.9,-8 C11.6,-9 12.8,-9.7 14.3,-10 C15.6,-10.3 16.3,-10.5 18.9,-10.5 L19,-10.5 C23,-10.5 24.3,-6.8 25.4,-3 L25.7,-2 C26.5,0.6 26.9,2.8 26.9,4.5 C26.9,5.7 26.7,6.8 26.3,7.6 C25.7,8.7 24.7,9.4 23,9.8 C22.1,10 20.6,10.1 20.6,10.1 C20.1,10.1 19.7,10.2 19.3,10.2 C16.1,10.2 14.1,9 12.7,4.7 C11.5,1 11.3,-0.1 10.4,-4.5"/>
<path class="Note" transform="matrix(1.70079,0,0,1.70079,3133.31,453.543)" d="M18.7,-13.6 C4.9,-13.6 0,-6.6 0,-0.1 C0,6.4 4.9,13.4 18.7,13.4 C32.5,13.4 37.3,6.4 37.3,-0.1 C37.3,-6.6 32.5,-13.6 18.7,-13.6 M10.4,-4.5 C10.3,-4.9 10.3,-5.3 10.3,-5.7 C10.3,-6.5 10.5,-7.3 10.9,-8 C11.6,-9 12.8,-9.7 14.3,-10 C15.6,-10.3 16.3,-10.5 18.9,-10.5 L19,-10.5 C23,-10.5 24.3,-6.8 25.4,-3 L25.7,-2 C26.5,0.6 26.9,2.8 26.9,4.5 C26.9,5.7 26.7,6.8 26.3,7.6 C25.7,8.7 24.7,9.4 23,9.8 C22.1,10 20.6,10.1 20.6,10.1 C20.1,10.1 19.7,10.2 19.3,10.2 C16.1,10.2 14.1,9 12.7,4.7 C11.5,1 11.3,-0.1 10.4,-4.5"/>
<path class="Note" transform="matrix(1.70079,0,0,1.70079,3490.33,602.362)" d="M18.7,-13.6 C4.9,-13.6 0,-6.6 0,-0.1 C0,6.4 4.9,13.4 18.7,13.4 C32.5,13.4 37.3,6.4 37.3,-0.1 C37.3,-6.6 32.5,-13.6 18.7,-13.6 M10.4,-4.5 C10.3,-4.9 10.3,-5.3 10.3,-5.7 C10.3,-6.5 10.5,-7.3 10.9,-8 C11.6,-9 12.8,-9.7 14.3,-10 C15.6,-10.3 16.3,-10.5 18.9,-10.5 L19,-10.5 C23,-10.5 24.3,-6.8 25.4,-3 L25.7,-2 C26.5,0.6 26.9,2.8 26.9,4.5 C26.9,5.7 26.7,6.8 26.3,7.6 C25.7,8.7 24.7,9.4 23,9.8 C22.1,10 20.6,10.1 20.6,10.1 C20.1,10.1 19.7,10.2 19.3,10.2 C16.1,10.2 14.1,9 12.7,4.7 C11.5,1 11.3,-0.1 10.4,-4.5"/>
<path class="Note" transform="matrix(1.70079,0,0,1.70079,3832.46,538.583)" d="M18.7,-13.6 C4.9,-13.6 0,-6.6 0,-0.1 C0,6.4 4.9,13.4 18.7,13.4 C32.5,13.4 37.3,6.4 37.3,-0.1 C37.3,-6.6 32.5,-13.6 18.7,-13.6 M10.4,-4.5 C10.3,-4.9 10.3,-5.3 10.3,-5.7 C10.3,-6.5 10.5,-7.3 10.9,-8 C11.6,-9 12.8,-9.7 14.3,-10 C15.6,-10.3 16.3,-10.5 18.9,-10.5 L19,-10.5 C23,-10.5 24.3,-6.8 25.4,-3 L25.7,-2 C26.5,0.6 26.9,2.8 26.9,4.5 C26.9,5.7 26.7,6.8 26.3,7.6 C25.7,8.7 24.7,9.4 23,9.8 C22.1,10 20.6,10.1 20.6,10.1 C20.1,10.1 19.7,10.2 19.3,10.2 C16.1,10.2 14.1,9 12.7,4.7 C11.5,1 11.3,-0.1 10.4,-4.5"/>
<path class="Clef" transform="matrix(1.70079,0,0,1.70079,104.882,368.504)" d="M25.4,-25.1 C17.8,-25.1 11.7,-20.7 11.6,-20.7 C5.8,-16.4 3.5,-11.3 2.6,-7.8 C2.1,-6 1.9,-4.2 1.9,-2.5 C1.9,-0.1 2.3,2.1 3.2,4 C4.4,6.7 6.7,8.6 9.7,9.6 C10.9,10 12.2,10.2 13.5,10.2 C15.7,10.2 18,9.6 19.9,8.5 C23,6.8 24.9,3.2 24.9,-0.7 C24.9,-4.2 23.1,-7.4 20.1,-9.3 C18,-10.7 16,-11.1 14.3,-11.1 C13.1,-11.1 12,-10.9 11.1,-10.6 C10.1,-10.2 8.4,-9.2 7.6,-8.5 C7.9,-10.4 9.1,-13.3 10.2,-14.9 C11.3,-16.5 13.5,-18.5 15.2,-19.4 C17.7,-20.8 20.9,-21.4 24.4,-21.4 C34.6,-21.4 39.6,-13.2 39.6,3.6 C39.6,12.9 36.1,21.8 33.1,27.7 C29.8,34.3 25.4,40.6 21.5,44.1 C11.1,53.6 1.3,58.1 1.2,58.1 C1.2,58.1 -0.3,59 0.1,60.5 C0.4,61.5 1.3,61.7 1.9,61.7 C2,61.7 2.3,61.6 2.4,61.6 C2.5,61.6 13.9,56.9 23,49.8 C28.1,46.1 32.7,42.1 36.7,37.8 C40.3,33.9 43.4,29.7 45.9,25.5 C50.3,18 52.8,10.2 52.8,3.5 C52.8,-4.8 50.6,-11.7 46.5,-16.6 C41.8,-22.2 34.7,-25.1 25.4,-25.1 M56.8,-12.4 C56.8,-9.6 59,-7.4 61.6,-7.4 C64.2,-7.4 66.4,-9.6 66.4,-12.4 C66.4,-15.2 64.2,-17.5 61.6,-17.5 C59,-17.5 56.8,-15.2 56.8,-12.4 M56.8,12.3 C56.8,15.1 59,17.4 61.6,17.4 C64.2,17.4 66.4,15.1 66.4,12.3 C66.4,9.5 64.2,7.2 61.6,7.2 C59,7.2 56.8,9.5 56.8,12.3"/>
<path class="KeySig" transform="matrix(1.70079,0,0,1.70079,260.331,368.504)" d="M23.3,-10.6 C23.9,-10.7 24.4,-11.4 24.4,-12 L24.4,-17.9 C24.4,-18.7 23.8,-19.3 23,-19.3 L22.8,-19.3 L19.5,-18.6 L19.5,-33.5 L16.7,-33.5 L16.7,-18 L7.8,-16.2 L7.8,-30.3 L5,-30.3 L5,-15.6 L1.1,-14.8 C0.5,-14.7 0,-14 0,-13.4 L0,-13.2 L0,-7.4 L0,-7.6 C0,-6.8 0.6,-6.2 1.4,-6.2 L1.7,-6.2 L5,-6.9 L5,9.6 L1.1,10.4 C0.5,10.5 0,11.2 0,11.8 L0,17.6 C0,18.4 0.6,19 1.4,19 L1.7,19 L5,18.3 L5,33.2 L7.8,33.2 L7.8,17.7 L16.7,15.9 L16.7,30 L19.5,30 L19.5,15.3 L23.3,14.6 C23.9,14.5 24.4,13.8 24.4,13.2 L24.4,7.3 C24.4,6.5 23.8,5.9 23,5.9 L22.8,5.9 L19.5,6.6 L19.5,-9.9 L23.3,-10.6 M7.8,9.1 L7.8,-7.5 L16.7,-9.3 L16.7,7.2 L7.8,9.1 "/>
<path class="FiguredBass" d="M764.783,592.657 C761.507,592.657 759.326,593.974 758.242,596.608 C757.157,599.242 756.615,602.972 756.615,607.798 L756.615,615.634 C758.917,614.704 760.909,614.217 762.591,614.173 C768.347,614.173 772.873,615.445 776.171,617.991 C779.47,620.537 781.119,624.322 781.119,629.347 C781.119,634.371 779.447,638.167 776.105,640.735 C772.763,643.303 768.258,644.587 762.591,644.587 C756.792,644.587 752.254,641.897 748.978,636.518 C745.702,631.139 744.064,624.753 744.064,617.36 C744.064,610.011 745.968,603.636 749.775,598.235 C753.582,592.834 758.585,590.134 764.783,590.134 C768.856,590.134 772.375,591.163 775.341,593.222 C778.307,595.28 779.791,597.992 779.791,601.356 C779.791,603.304 779.082,604.986 777.666,606.403 C776.249,607.82 774.555,608.528 772.585,608.528 C770.615,608.528 768.922,607.82 767.505,606.403 C766.089,604.986 765.38,603.304 765.38,601.356 C765.38,599.453 766.089,597.77 767.505,596.309 C767.992,595.734 768.679,595.247 769.564,594.848 C769.343,594.273 768.9,593.83 768.236,593.52 C767.262,592.945 766.111,592.657 764.783,592.657 M768.037,619.817 C767.24,617.736 765.491,616.696 762.791,616.696 C760.09,616.696 758.419,617.736 757.777,619.817 C757.135,621.898 756.814,625.063 756.814,629.313 C756.814,634.316 757.135,637.681 757.777,639.407 C758.419,641.134 760.09,641.997 762.791,641.997 C765.491,641.997 767.24,640.957 768.037,638.876 C768.833,636.795 769.232,633.619 769.232,629.347 C769.232,625.074 768.833,621.898 768.037,619.817"/>
<path class="FiguredBass" d="M764.318,667.231 C766,667.231 767.771,666.988 769.63,666.501 L772.619,665.704 C773.194,665.704 773.648,665.925 773.98,666.368 C774.312,666.811 774.279,667.209 773.88,667.563 L743.001,703.489 L761.13,703.489 L761.13,689.278 C761.13,688.26 761.407,687.474 761.96,686.921 C762.514,686.367 763.222,685.925 764.085,685.593 C764.949,685.261 766.078,684.276 767.472,682.638 C768.867,681 770.206,678.786 771.49,675.997 C771.711,675.554 772.043,675.333 772.486,675.333 C773.416,675.333 773.88,675.842 773.88,676.86 L773.88,703.489 L781.716,703.489 C782.823,703.489 783.376,703.998 783.376,705.016 C783.376,706.123 782.823,706.677 781.716,706.677 L773.88,706.677 L773.88,707.54 C773.88,710.285 774.611,712.675 776.072,714.712 C777.533,716.748 779.414,717.766 781.716,717.766 C782.602,717.766 783.044,718.165 783.044,718.962 C783.044,719.847 782.602,720.29 781.716,720.29 C780.123,720.29 777.754,720.057 774.611,719.593 C771.468,719.128 769.088,718.895 767.472,718.895 C765.856,718.895 763.477,719.128 760.333,719.593 C757.19,720.057 754.822,720.29 753.228,720.29 C752.343,720.29 751.9,719.847 751.9,718.962 C751.9,718.165 752.343,717.766 753.228,717.766 C755.53,717.766 757.423,716.748 758.906,714.712 C760.389,712.675 761.13,710.285 761.13,707.54 L761.13,706.677 L743.001,706.677 C741.85,706.677 740.998,706.4 740.445,705.847 C739.891,705.293 739.615,704.729 739.615,704.153 C739.615,703.932 740.135,703.168 741.175,701.862 C742.216,700.556 743.488,698.819 744.994,696.649 C746.499,694.48 747.993,692.012 749.476,689.245 C750.959,686.478 752.221,683.158 753.261,679.284 C754.302,675.41 754.822,671.503 754.822,667.563 C754.822,666.412 755.309,665.837 756.283,665.837 C756.416,665.837 756.88,665.947 757.677,666.169 C758.474,666.39 759.492,666.623 760.732,666.866 C761.972,667.11 763.167,667.231 764.318,667.231"/>
<path class="FiguredBass" d="M1114.6,615.7 C1114.6,616.408 1115,617.095 1115.79,617.759 C1116.59,618.423 1117.47,619.054 1118.42,619.651 C1119.37,620.249 1120.24,621.378 1121.04,623.038 C1121.84,624.698 1122.24,626.79 1122.24,629.313 C1122.24,634.183 1120.4,637.946 1116.72,640.602 C1113.05,643.259 1108.4,644.587 1102.78,644.587 C1098.26,644.587 1094.33,643.458 1090.99,641.2 C1087.65,638.942 1085.98,635.976 1085.98,632.302 C1085.98,630.354 1086.69,628.66 1088.1,627.222 C1089.52,625.783 1091.21,625.063 1093.18,625.063 C1095.15,625.063 1096.82,625.772 1098.2,627.188 C1099.57,628.605 1100.26,630.309 1100.26,632.302 C1100.26,633.187 1099.52,634.15 1098.06,635.19 C1096.6,636.231 1095.87,637.194 1095.87,638.079 C1095.87,639.451 1096.55,640.458 1097.9,641.1 C1099.25,641.742 1100.88,642.063 1102.78,642.063 C1105.26,642.063 1107.02,640.835 1108.06,638.378 C1109.1,635.921 1109.62,632.899 1109.62,629.313 L1109.62,627.587 C1109.62,625.196 1109.54,623.381 1109.39,622.141 C1109.23,620.902 1108.74,619.795 1107.93,618.821 C1107.11,617.847 1105.86,617.36 1104.17,617.36 L1095.47,617.36 C1094.46,617.36 1093.95,616.807 1093.95,615.7 C1093.95,614.682 1094.46,614.173 1095.47,614.173 L1104.17,614.173 C1105.99,614.173 1107.41,613.486 1108.42,612.114 C1108.78,611.627 1109.07,610.83 1109.29,609.723 C1109.51,608.263 1109.62,606.16 1109.62,603.415 L1109.62,602.552 C1109.62,595.955 1107.18,592.657 1102.31,592.657 C1098.02,592.657 1095.87,593.852 1095.87,596.243 C1095.87,597.04 1096.53,597.892 1097.83,598.8 C1099.14,599.707 1099.79,600.559 1099.79,601.356 C1099.79,603.083 1099.18,604.566 1097.96,605.806 C1096.75,607.045 1095.26,607.665 1093.52,607.665 C1091.77,607.665 1090.29,607.045 1089.1,605.806 C1087.9,604.566 1087.31,603.083 1087.31,601.356 C1087.31,597.947 1088.79,595.225 1091.76,593.188 C1094.72,591.152 1098.24,590.134 1102.31,590.134 C1107.67,590.134 1112.08,591.163 1115.53,593.222 C1118.98,595.28 1120.71,598.39 1120.71,602.552 C1120.71,605.518 1120.4,607.82 1119.78,609.458 C1119.16,611.096 1118.45,612.092 1117.65,612.446 C1116.86,612.8 1116.15,613.21 1115.53,613.675 C1114.91,614.139 1114.6,614.815 1114.6,615.7"/>
<path class="FiguredBass" d="M1450.4,644.587 C1446.11,644.587 1442.99,643.391 1441.04,641.001 C1440.33,640.115 1439.42,639.296 1438.32,638.544 C1437.21,637.791 1435.99,637.415 1434.67,637.415 C1432.94,637.415 1431.39,637.957 1430.02,639.042 C1428.64,640.126 1427.96,641.576 1427.96,643.391 C1427.96,644.188 1427.56,644.587 1426.76,644.587 C1425.88,644.587 1425.44,644.188 1425.44,643.391 C1425.44,640.691 1426.07,638.223 1427.33,635.987 C1428.59,633.751 1430.17,631.87 1432.08,630.343 C1433.98,628.815 1436.04,627.177 1438.25,625.429 C1440.47,623.68 1442.51,621.986 1444.39,620.348 C1446.28,618.71 1447.85,616.641 1449.11,614.139 C1450.37,611.638 1451,608.904 1451,605.938 C1451,602.22 1450.39,599.076 1449.18,596.509 C1447.96,593.941 1446.04,592.657 1443.43,592.657 C1441.93,592.657 1440.62,593.022 1439.51,593.753 C1438.41,594.483 1437.85,595.446 1437.85,596.641 C1437.85,597.571 1438.48,598.789 1439.75,600.294 C1441.01,601.799 1441.64,603.061 1441.64,604.079 C1441.64,606.204 1440.92,607.986 1439.48,609.425 C1438.04,610.863 1436.3,611.583 1434.27,611.583 C1432.14,611.583 1430.36,610.841 1428.92,609.358 C1427.48,607.875 1426.76,606.115 1426.76,604.079 C1426.76,600.006 1428.39,596.664 1431.64,594.052 C1434.9,591.44 1438.83,590.134 1443.43,590.134 C1448.88,590.134 1453.62,591.606 1457.68,594.55 C1461.73,597.494 1463.75,601.29 1463.75,605.938 C1463.75,609.082 1463.19,611.804 1462.06,614.106 C1460.93,616.408 1459.31,618.268 1457.21,619.684 C1455.11,621.101 1453,622.307 1450.9,623.304 C1448.8,624.3 1446.33,625.373 1443.5,626.524 C1440.66,627.675 1438.38,628.804 1436.66,629.911 C1437.59,629.69 1438.54,629.579 1439.51,629.579 C1442.79,629.579 1446.2,630.641 1449.74,632.766 C1453.28,634.891 1456.07,635.954 1458.11,635.954 C1459.26,635.954 1460.2,635.744 1460.93,635.323 C1461.66,634.903 1462.14,634.438 1462.36,633.929 C1462.58,633.419 1462.83,632.944 1463.12,632.501 C1463.41,632.058 1463.73,631.837 1464.08,631.837 C1464.97,631.837 1465.41,632.279 1465.41,633.165 C1465.41,635.069 1464.04,637.448 1461.29,640.304 C1458.55,643.159 1454.92,644.587 1450.4,644.587"/>
<path class="FiguredBass" d="M1822.58,592.657 C1819.3,592.657 1817.12,593.974 1816.03,596.608 C1814.95,599.242 1814.41,602.972 1814.41,607.798 L1814.41,615.634 C1816.71,614.704 1818.7,614.217 1820.38,614.173 C1826.14,614.173 1830.67,615.445 1833.96,617.991 C1837.26,620.537 1838.91,624.322 1838.91,629.347 C1838.91,634.371 1837.24,638.167 1833.9,640.735 C1830.56,643.303 1826.05,644.587 1820.38,644.587 C1814.58,644.587 1810.05,641.897 1806.77,636.518 C1803.49,631.139 1801.86,624.753 1801.86,617.36 C1801.86,610.011 1803.76,603.636 1807.57,598.235 C1811.37,592.834 1816.38,590.134 1822.58,590.134 C1826.65,590.134 1830.17,591.163 1833.13,593.222 C1836.1,595.28 1837.58,597.992 1837.58,601.356 C1837.58,603.304 1836.87,604.986 1835.46,606.403 C1834.04,607.82 1832.35,608.528 1830.38,608.528 C1828.41,608.528 1826.71,607.82 1825.3,606.403 C1823.88,604.986 1823.17,603.304 1823.17,601.356 C1823.17,599.453 1823.88,597.77 1825.3,596.309 C1825.78,595.734 1826.47,595.247 1827.36,594.848 C1827.14,594.273 1826.69,593.83 1826.03,593.52 C1825.05,592.945 1823.9,592.657 1822.58,592.657 M1825.83,619.817 C1825.03,617.736 1823.28,616.696 1820.58,616.696 C1817.88,616.696 1816.21,617.736 1815.57,619.817 C1814.93,621.898 1814.61,625.063 1814.61,629.313 C1814.61,634.316 1814.93,637.681 1815.57,639.407 C1816.21,641.134 1817.88,641.997 1820.58,641.997 C1823.28,641.997 1825.03,640.957 1825.83,638.876 C1826.63,636.795 1827.02,633.619 1827.02,629.347 C1827.02,625.074 1826.63,621.898 1825.83,619.817"/>
<path class="FiguredBass" d="M1806.37,665.837 L1809.56,666.302 C1810.4,666.434 1811.44,666.567 1812.68,666.7 C1815.74,667.054 1818.68,667.231 1821.51,667.231 C1824.35,667.231 1827.33,667.054 1830.48,666.7 C1831.72,666.567 1832.8,666.434 1833.73,666.302 L1836.99,665.837 C1837.65,665.837 1838.16,666.058 1838.51,666.501 C1838.78,666.855 1838.73,667.209 1838.38,667.563 C1831.47,674.337 1821.93,677.723 1809.76,677.723 C1809.27,677.723 1808.84,677.901 1808.46,678.255 C1808.09,678.609 1807.9,679.052 1807.9,679.583 L1807.9,688.016 C1811.04,684.917 1814.85,683.368 1819.32,683.368 C1825.56,683.368 1830.43,684.829 1833.93,687.751 C1837.74,684.873 1839.73,681.199 1839.91,676.727 C1839.95,675.311 1840.42,674.16 1841.3,673.274 C1842.28,672.389 1843.45,671.946 1844.82,671.946 C1846.19,671.946 1847.36,672.411 1848.31,673.341 C1849.26,674.27 1849.74,675.399 1849.74,676.727 C1849.74,683.589 1845.68,688.791 1837.58,692.333 C1838.91,694.945 1839.58,698.132 1839.58,701.895 C1839.58,706.898 1837.58,711.214 1833.6,714.845 C1829.61,718.475 1824.86,720.29 1819.32,720.29 C1814.54,720.29 1810.39,719.205 1806.87,717.036 C1803.35,714.867 1801.59,711.856 1801.59,708.005 C1801.59,706.057 1802.3,704.363 1803.72,702.925 C1805.13,701.486 1806.83,700.766 1808.8,700.766 C1810.77,700.766 1812.44,701.475 1813.81,702.891 C1815.18,704.308 1815.87,706.013 1815.87,708.005 C1815.87,708.89 1815.14,709.853 1813.68,710.893 C1812.22,711.934 1811.49,712.897 1811.49,713.782 C1811.49,716.438 1814.1,717.766 1819.32,717.766 C1824.41,717.766 1826.96,712.476 1826.96,701.895 C1826.96,699.549 1826.83,697.49 1826.56,695.72 C1821.2,696.826 1814.5,697.69 1806.44,698.309 C1805.33,698.398 1804.78,697.845 1804.78,696.649 C1804.78,695.675 1805.33,695.144 1806.44,695.056 C1814.58,694.391 1821,693.329 1825.7,691.868 C1824.46,688.326 1822.33,686.533 1819.32,686.489 C1814.76,686.489 1811.57,687.419 1809.76,689.278 C1807.94,691.138 1806.81,692.067 1806.37,692.067 C1805.31,692.067 1804.78,691.514 1804.78,690.407 L1804.78,667.563 C1804.78,667.121 1804.93,666.722 1805.24,666.368 C1805.6,666.014 1805.97,665.837 1806.37,665.837"/>
<path class="FiguredBass" d="M2476.44,637.681 L2476.44,651.559 C2476.44,652.932 2475.75,653.618 2474.35,653.618 C2472.96,653.618 2472.26,652.932 2472.26,651.559 L2472.26,639.473 L2470.14,640.337 C2469.91,640.425 2469.63,640.47 2469.27,640.47 C2468.7,640.47 2468.19,640.248 2467.74,639.806 C2467.3,639.363 2467.08,638.854 2467.08,638.278 L2467.08,631.505 C2467.08,630.531 2467.55,629.845 2468.48,629.446 L2472.26,627.852 L2472.26,613.907 L2470.14,614.77 C2470,614.815 2469.83,614.837 2469.6,614.837 C2469.52,614.837 2469.4,614.837 2469.27,614.837 C2468.61,614.748 2468.08,614.505 2467.68,614.106 C2467.28,613.708 2467.08,613.243 2467.08,612.712 L2467.08,605.938 C2467.08,605.009 2467.55,604.345 2468.48,603.946 L2472.26,602.352 L2472.26,588.208 C2472.26,586.835 2472.96,586.149 2474.35,586.149 C2475.75,586.149 2476.44,586.835 2476.44,588.208 L2476.44,600.626 L2485.01,597.04 L2485.01,583.161 C2485.01,581.789 2485.7,581.102 2487.07,581.102 C2488.44,581.102 2489.13,581.789 2489.13,583.161 L2489.13,595.38 L2491.45,594.384 C2491.67,594.295 2491.92,594.251 2492.18,594.251 C2492.76,594.251 2493.28,594.472 2493.74,594.915 C2494.21,595.358 2494.44,595.867 2494.44,596.442 L2494.44,603.216 C2494.44,604.19 2493.95,604.876 2492.98,605.274 L2489.13,606.868 L2489.13,620.88 L2491.45,619.95 C2491.58,619.906 2491.74,619.884 2491.92,619.884 C2492.01,619.884 2492.09,619.884 2492.18,619.884 C2492.93,620.016 2493.5,620.26 2493.88,620.614 C2494.25,620.968 2494.44,621.433 2494.44,622.009 L2494.44,628.782 C2494.44,629.712 2493.95,630.376 2492.98,630.774 L2489.13,632.368 L2489.13,646.513 C2489.13,647.885 2488.44,648.571 2487.07,648.571 C2485.7,648.571 2485.01,647.885 2485.01,646.513 L2485.01,634.095 L2476.44,637.681 M2476.44,626.126 L2485.01,622.606 L2485.01,608.595 L2476.44,612.181 L2476.44,626.126 "/>
<path class="FiguredBass" d="M2824.89,592.657 C2821.61,592.657 2819.43,593.974 2818.35,596.608 C2817.26,599.242 2816.72,602.972 2816.72,607.798 L2816.72,615.634 C2819.02,614.704 2821.01,614.217 2822.69,614.173 C2828.45,614.173 2832.98,615.445 2836.27,617.991 C2839.57,620.537 2841.22,624.322 2841.22,629.347 C2841.22,634.371 2839.55,638.167 2836.21,640.735 C2832.87,643.303 2828.36,644.587 2822.69,644.587 C2816.9,644.587 2812.36,641.897 2809.08,636.518 C2805.81,631.139 2804.17,624.753 2804.17,617.36 C2804.17,610.011 2806.07,603.636 2809.88,598.235 C2813.69,592.834 2818.69,590.134 2824.89,590.134 C2828.96,590.134 2832.48,591.163 2835.44,593.222 C2838.41,595.28 2839.89,597.992 2839.89,601.356 C2839.89,603.304 2839.19,604.986 2837.77,606.403 C2836.35,607.82 2834.66,608.528 2832.69,608.528 C2830.72,608.528 2829.03,607.82 2827.61,606.403 C2826.19,604.986 2825.48,603.304 2825.48,601.356 C2825.48,599.453 2826.19,597.77 2827.61,596.309 C2828.1,595.734 2828.78,595.247 2829.67,594.848 C2829.45,594.273 2829,593.83 2828.34,593.52 C2827.37,592.945 2826.21,592.657 2824.89,592.657 M2828.14,619.817 C2827.34,617.736 2825.59,616.696 2822.89,616.696 C2820.19,616.696 2818.52,617.736 2817.88,619.817 C2817.24,621.898 2816.92,625.063 2816.92,629.313 C2816.92,634.316 2817.24,637.681 2817.88,639.407 C2818.52,641.134 2820.19,641.997 2822.89,641.997 C2825.59,641.997 2827.34,640.957 2828.14,638.876 C2828.94,636.795 2829.34,633.619 2829.34,629.347 C2829.34,625.074 2828.94,621.898 2828.14,619.817"/>
<path class="FiguredBass" d="M2824.42,667.231 C2826.1,667.231 2827.87,666.988 2829.73,666.501 L2832.72,665.704 C2833.3,665.704 2833.75,665.925 2834.08,666.368 C2834.42,666.811 2834.38,667.209 2833.98,667.563 L2803.1,703.489 L2821.23,703.489 L2821.23,689.278 C2821.23,688.26 2821.51,687.474 2822.06,686.921 C2822.62,686.367 2823.33,685.925 2824.19,685.593 C2825.05,685.261 2826.18,684.276 2827.58,682.638 C2828.97,681 2830.31,678.786 2831.59,675.997 C2831.81,675.554 2832.15,675.333 2832.59,675.333 C2833.52,675.333 2833.98,675.842 2833.98,676.86 L2833.98,703.489 L2841.82,703.489 C2842.93,703.489 2843.48,703.998 2843.48,705.016 C2843.48,706.123 2842.93,706.677 2841.82,706.677 L2833.98,706.677 L2833.98,707.54 C2833.98,710.285 2834.71,712.675 2836.18,714.712 C2837.64,716.748 2839.52,717.766 2841.82,717.766 C2842.71,717.766 2843.15,718.165 2843.15,718.962 C2843.15,719.847 2842.71,720.29 2841.82,720.29 C2840.23,720.29 2837.86,720.057 2834.71,719.593 C2831.57,719.128 2829.19,718.895 2827.58,718.895 C2825.96,718.895 2823.58,719.128 2820.44,719.593 C2817.29,720.057 2814.93,720.29 2813.33,720.29 C2812.45,720.29 2812,719.847 2812,718.962 C2812,718.165 2812.45,717.766 2813.33,717.766 C2815.63,717.766 2817.53,716.748 2819.01,714.712 C2820.49,712.675 2821.23,710.285 2821.23,707.54 L2821.23,706.677 L2803.1,706.677 C2801.95,706.677 2801.1,706.4 2800.55,705.847 C2799.99,705.293 2799.72,704.729 2799.72,704.153 C2799.72,703.932 2800.24,703.168 2801.28,701.862 C2802.32,700.556 2803.59,698.819 2805.1,696.649 C2806.6,694.48 2808.1,692.012 2809.58,689.245 C2811.06,686.478 2812.32,683.158 2813.36,679.284 C2814.41,675.41 2814.93,671.503 2814.93,667.563 C2814.93,666.412 2815.41,665.837 2816.39,665.837 C2816.52,665.837 2816.98,665.947 2817.78,666.169 C2818.58,666.39 2819.6,666.623 2820.84,666.866 C2822.07,667.11 2823.27,667.231 2824.42,667.231"/>
<path class="FiguredBass" d="M3166.55,591.528 C3168.24,591.528 3170.01,591.285 3171.87,590.798 L3174.86,590.001 C3175.43,590.001 3175.89,590.222 3176.22,590.665 C3176.55,591.108 3176.52,591.506 3176.12,591.86 L3145.24,627.786 L3163.37,627.786 L3163.37,613.575 C3163.37,612.557 3163.64,611.771 3164.2,611.218 C3164.75,610.664 3165.46,610.222 3166.32,609.889 C3167.19,609.557 3168.31,608.572 3169.71,606.934 C3171.1,605.296 3172.44,603.083 3173.73,600.294 C3173.95,599.851 3174.28,599.63 3174.72,599.63 C3175.65,599.63 3176.12,600.139 3176.12,601.157 L3176.12,627.786 L3183.95,627.786 C3185.06,627.786 3185.61,628.295 3185.61,629.313 C3185.61,630.42 3185.06,630.973 3183.95,630.973 L3176.12,630.973 L3176.12,631.837 C3176.12,634.582 3176.85,636.972 3178.31,639.009 C3179.77,641.045 3181.65,642.063 3183.95,642.063 C3184.84,642.063 3185.28,642.462 3185.28,643.259 C3185.28,644.144 3184.84,644.587 3183.95,644.587 C3182.36,644.587 3179.99,644.354 3176.85,643.889 C3173.7,643.425 3171.33,643.192 3169.71,643.192 C3168.09,643.192 3165.71,643.425 3162.57,643.889 C3159.43,644.354 3157.06,644.587 3155.47,644.587 C3154.58,644.587 3154.14,644.144 3154.14,643.259 C3154.14,642.462 3154.58,642.063 3155.47,642.063 C3157.77,642.063 3159.66,641.045 3161.14,639.009 C3162.63,636.972 3163.37,634.582 3163.37,631.837 L3163.37,630.973 L3145.24,630.973 C3144.09,630.973 3143.24,630.697 3142.68,630.143 C3142.13,629.59 3141.85,629.026 3141.85,628.45 C3141.85,628.229 3142.37,627.465 3143.41,626.159 C3144.45,624.853 3145.73,623.115 3147.23,620.946 C3148.74,618.777 3150.23,616.309 3151.71,613.542 C3153.2,610.775 3154.46,607.455 3155.5,603.581 C3156.54,599.707 3157.06,595.8 3157.06,591.86 C3157.06,590.709 3157.55,590.134 3158.52,590.134 C3158.65,590.134 3159.12,590.244 3159.91,590.466 C3160.71,590.687 3161.73,590.919 3162.97,591.163 C3164.21,591.406 3165.4,591.528 3166.55,591.528"/>
<path class="FiguredBass" d="M3507.5,660.528 C3507.63,660.528 3507.92,660.24 3508.36,659.665 C3510.27,656.964 3512.92,655.614 3516.33,655.614 C3519.08,655.614 3521.67,656.632 3524.1,658.669 C3526.54,660.705 3528.55,661.723 3530.14,661.723 C3531.87,661.723 3533.51,661.214 3535.06,660.196 C3536.61,659.178 3537.84,658.16 3538.74,657.141 C3539.65,656.123 3540.24,655.614 3540.5,655.614 C3540.95,655.614 3541.35,655.758 3541.7,656.046 C3542.05,656.333 3542.23,656.699 3542.23,657.141 C3542.23,657.451 3541.32,658.979 3539.51,661.723 C3537.69,664.468 3535.68,667.645 3533.47,671.253 C3531.25,674.861 3529.24,679.365 3527.42,684.766 C3525.61,690.167 3524.7,695.325 3524.7,700.239 C3524.7,702.143 3524.9,704.334 3525.3,706.813 C3525.61,708.717 3525.61,709.801 3525.3,710.067 C3525.08,710.288 3524.7,710.399 3524.17,710.399 C3523.95,710.399 3522.92,710.111 3521.08,709.536 C3519.24,708.96 3517.48,708.673 3515.8,708.673 C3514.3,708.673 3512.56,708.96 3510.59,709.536 C3508.62,710.111 3507.52,710.399 3507.3,710.399 C3506.81,710.399 3506.42,710.2 3506.11,709.801 C3505.8,709.403 3505.75,708.982 3505.97,708.54 C3508.58,702.298 3511.76,696.221 3515.5,690.311 C3519.24,684.401 3523.92,677.594 3529.55,669.891 C3527.42,671.042 3525.27,671.618 3523.11,671.618 C3520.8,671.618 3518.48,670.589 3516.13,668.53 C3513.79,666.471 3511.86,665.442 3510.36,665.442 C3509.25,665.442 3508.29,666.073 3507.47,667.335 C3506.65,668.596 3506.24,670.489 3506.24,673.012 L3506.24,681.18 C3506.24,682.287 3505.73,682.841 3504.71,682.841 C3503.6,682.841 3503.05,682.287 3503.05,681.18 L3503.05,657.274 C3503.05,656.167 3503.6,655.614 3504.71,655.614 C3505.73,655.614 3506.24,656.167 3506.24,657.274 L3506.24,658.801 C3506.24,659.156 3506.33,659.466 3506.5,659.731 C3507.04,660.262 3507.37,660.528 3507.5,660.528"/>
<path class="FiguredBass" d="M3523.97,772.688 C3523.49,773.219 3522.84,773.485 3522.05,773.485 C3521.25,773.485 3520.6,773.208 3520.09,772.655 C3519.58,772.102 3519.32,771.471 3519.32,770.762 L3519.32,761.266 L3509.83,761.266 C3509.03,761.266 3508.38,760.99 3507.87,760.436 C3507.36,759.883 3507.11,759.252 3507.11,758.544 C3507.11,757.835 3507.36,757.204 3507.87,756.651 C3508.38,756.098 3509.03,755.821 3509.83,755.821 L3519.32,755.821 L3519.32,746.325 C3519.32,745.617 3519.58,744.986 3520.09,744.432 C3520.6,743.879 3521.25,743.602 3522.05,743.602 C3522.84,743.602 3523.5,743.879 3524.01,744.432 C3524.52,744.986 3524.77,745.617 3524.77,746.325 L3524.77,755.821 L3534.27,755.821 C3535.06,755.821 3535.72,756.098 3536.22,756.651 C3536.73,757.204 3536.99,757.835 3536.99,758.544 C3536.99,759.252 3536.73,759.883 3536.22,760.436 C3535.72,760.99 3535.06,761.266 3534.27,761.266 L3524.77,761.266 L3524.77,770.762 C3524.77,771.471 3524.5,772.113 3523.97,772.688"/>
</svg>
