<?xml version="1.0" encoding="UTF-8" standalone="no"?>
<svg width="850.394px" height="566.929px" viewBox="0 0 850.394 566.929"
 xmlns="http://www.w3.org/2000/svg" xmlns:xlink="http://www.w3.org/1999/xlink" version="1.2" baseProfile="tiny">
<title>La Mineur (11)</title>
<desc>Generated by MuseScore 3.6.2</desc>
<polyline class="StaffLines" fill="none" stroke="#000000" stroke-width="1.25" stroke-linejoin="bevel" points="29.3071,107.717 836.22,107.717"/>
<polyline class="StaffLines" fill="none" stroke="#000000" stroke-width="1.25" stroke-linejoin="bevel" points="29.3071,124.724 836.22,124.724"/>
<polyline class="StaffLines" fill="none" stroke="#000000" stroke-width="1.25" stroke-linejoin="bevel" points="29.3071,141.732 836.22,141.732"/>
<polyline class="StaffLines" fill="none" stroke="#000000" stroke-width="1.25" stroke-linejoin="bevel" points="29.3071,158.74 836.22,158.74"/>
<polyline class="StaffLines" fill="none" stroke="#000000" stroke-width="1.25" stroke-linejoin="bevel" points="29.3071,175.748 836.22,175.748"/>
<polyline class="StaffLines" fill="none" stroke="#000000" stroke-width="1.25" stroke-linejoin="bevel" points="29.3071,192.756 836.22,192.756"/>
<polyline class="StaffLines" fill="none" stroke="#000000" stroke-width="1.25" stroke-linejoin="bevel" points="29.3071,266.457 836.22,266.457"/>
<polyline class="StaffLines" fill="none" stroke="#000000" stroke-width="1.25" stroke-linejoin="bevel" points="29.3071,277.795 836.22,277.795"/>
<polyline class="StaffLines" fill="none" stroke="#000000" stroke-width="1.25" stroke-linejoin="bevel" points="29.3071,289.134 836.22,289.134"/>
<polyline class="StaffLines" fill="none" stroke="#000000" stroke-width="1.25" stroke-linejoin="bevel" points="29.3071,300.472 836.22,300.472"/>
<polyline class="StaffLines" fill="none" stroke="#000000" stroke-width="1.25" stroke-linejoin="bevel" points="29.3071,311.811 836.22,311.811"/>
<polyline class="StaffLines" fill="none" stroke="#000000" stroke-width="1.25" stroke-linejoin="bevel" points="29.3071,400.875 836.22,400.875"/>
<polyline class="StaffLines" fill="none" stroke="#000000" stroke-width="1.25" stroke-linejoin="bevel" points="29.3071,412.213 836.22,412.213"/>
<polyline class="StaffLines" fill="none" stroke="#000000" stroke-width="1.25" stroke-linejoin="bevel" points="29.3071,423.552 836.22,423.552"/>
<polyline class="StaffLines" fill="none" stroke="#000000" stroke-width="1.25" stroke-linejoin="bevel" points="29.3071,434.891 836.22,434.891"/>
<polyline class="StaffLines" fill="none" stroke="#000000" stroke-width="1.25" stroke-linejoin="bevel" points="29.3071,446.229 836.22,446.229"/>
<polyline class="BarLine" fill="none" stroke="#000000" stroke-width="2.04" stroke-linejoin="bevel" points="30.3276,400.251 30.3276,446.853"/>
<polyline class="BarLine" fill="none" stroke="#000000" stroke-width="2.04" stroke-linejoin="bevel" points="272.017,400.251 272.017,446.853"/>
<polyline class="BarLine" fill="none" stroke="#000000" stroke-width="2.04" stroke-linejoin="bevel" points="458.305,400.251 458.305,446.853"/>
<polyline class="BarLine" fill="none" stroke="#000000" stroke-width="2.04" stroke-linejoin="bevel" points="642.413,400.251 642.413,446.853"/>
<polyline class="BarLine" fill="none" stroke="#000000" stroke-width="2.04" stroke-linejoin="bevel" points="825.165,400.251 825.165,446.853"/>
<polyline class="BarLine" fill="none" stroke="#000000" stroke-width="6.24" stroke-linejoin="bevel" points="833.102,400.251 833.102,446.853"/>
<polyline class="BarLine" fill="none" stroke="#000000" stroke-width="2.04" stroke-linejoin="bevel" points="30.3276,265.833 30.3276,400.875"/>
<polyline class="BarLine" fill="none" stroke="#000000" stroke-width="2.04" stroke-linejoin="bevel" points="272.017,265.833 272.017,312.435"/>
<polyline class="BarLine" fill="none" stroke="#000000" stroke-width="2.04" stroke-linejoin="bevel" points="458.305,265.833 458.305,312.435"/>
<polyline class="BarLine" fill="none" stroke="#000000" stroke-width="2.04" stroke-linejoin="bevel" points="642.413,265.833 642.413,312.435"/>
<polyline class="BarLine" fill="none" stroke="#000000" stroke-width="2.04" stroke-linejoin="bevel" points="825.165,265.833 825.165,312.435"/>
<polyline class="BarLine" fill="none" stroke="#000000" stroke-width="6.24" stroke-linejoin="bevel" points="833.102,265.833 833.102,312.435"/>
<polyline class="BarLine" fill="none" stroke="#000000" stroke-width="2.04" stroke-linejoin="bevel" points="30.3276,107.093 30.3276,266.457"/>
<polyline class="BarLine" fill="none" stroke="#000000" stroke-width="2.04" stroke-linejoin="bevel" points="272.017,107.093 272.017,193.38"/>
<polyline class="BarLine" fill="none" stroke="#000000" stroke-width="2.04" stroke-linejoin="bevel" points="458.305,107.093 458.305,193.38"/>
<polyline class="BarLine" fill="none" stroke="#000000" stroke-width="2.04" stroke-linejoin="bevel" points="642.413,107.093 642.413,193.38"/>
<polyline class="BarLine" fill="none" stroke="#000000" stroke-width="2.04" stroke-linejoin="bevel" points="825.165,107.093 825.165,193.38"/>
<polyline class="BarLine" fill="none" stroke="#000000" stroke-width="6.24" stroke-linejoin="bevel" points="833.102,107.093 833.102,193.38"/>
<path class="Accidental" transform="matrix(0.453543,0,0,0.453543,283.992,406.544)" d="M23.3,-10.6 C23.9,-10.7 24.4,-11.4 24.4,-12 L24.4,-17.9 C24.4,-18.7 23.8,-19.3 23,-19.3 L22.8,-19.3 L19.5,-18.6 L19.5,-33.5 L16.7,-33.5 L16.7,-18 L7.8,-16.2 L7.8,-30.3 L5,-30.3 L5,-15.6 L1.1,-14.8 C0.5,-14.7 0,-14 0,-13.4 L0,-13.2 L0,-7.4 L0,-7.6 C0,-6.8 0.6,-6.2 1.4,-6.2 L1.7,-6.2 L5,-6.9 L5,9.6 L1.1,10.4 C0.5,10.5 0,11.2 0,11.8 L0,17.6 C0,18.4 0.6,19 1.4,19 L1.7,19 L5,18.3 L5,33.2 L7.8,33.2 L7.8,17.7 L16.7,15.9 L16.7,30 L19.5,30 L19.5,15.3 L23.3,14.6 C23.9,14.5 24.4,13.8 24.4,13.2 L24.4,7.3 C24.4,6.5 23.8,5.9 23,5.9 L22.8,5.9 L19.5,6.6 L19.5,-9.9 L23.3,-10.6 M7.8,9.1 L7.8,-7.5 L16.7,-9.3 L16.7,7.2 L7.8,9.1 "/>
<path class="Accidental" transform="matrix(0.453543,0,0,0.453543,97.7038,300.472)" d="M23.3,-10.6 C23.9,-10.7 24.4,-11.4 24.4,-12 L24.4,-17.9 C24.4,-18.7 23.8,-19.3 23,-19.3 L22.8,-19.3 L19.5,-18.6 L19.5,-33.5 L16.7,-33.5 L16.7,-18 L7.8,-16.2 L7.8,-30.3 L5,-30.3 L5,-15.6 L1.1,-14.8 C0.5,-14.7 0,-14 0,-13.4 L0,-13.2 L0,-7.4 L0,-7.6 C0,-6.8 0.6,-6.2 1.4,-6.2 L1.7,-6.2 L5,-6.9 L5,9.6 L1.1,10.4 C0.5,10.5 0,11.2 0,11.8 L0,17.6 C0,18.4 0.6,19 1.4,19 L1.7,19 L5,18.3 L5,33.2 L7.8,33.2 L7.8,17.7 L16.7,15.9 L16.7,30 L19.5,30 L19.5,15.3 L23.3,14.6 C23.9,14.5 24.4,13.8 24.4,13.2 L24.4,7.3 C24.4,6.5 23.8,5.9 23,5.9 L22.8,5.9 L19.5,6.6 L19.5,-9.9 L23.3,-10.6 M7.8,9.1 L7.8,-7.5 L16.7,-9.3 L16.7,7.2 L7.8,9.1 "/>
<path class="Accidental" transform="matrix(0.453543,0,0,0.453543,468.1,300.472)" d="M23.3,-10.6 C23.9,-10.7 24.4,-11.4 24.4,-12 L24.4,-17.9 C24.4,-18.7 23.8,-19.3 23,-19.3 L22.8,-19.3 L19.5,-18.6 L19.5,-33.5 L16.7,-33.5 L16.7,-18 L7.8,-16.2 L7.8,-30.3 L5,-30.3 L5,-15.6 L1.1,-14.8 C0.5,-14.7 0,-14 0,-13.4 L0,-13.2 L0,-7.4 L0,-7.6 C0,-6.8 0.6,-6.2 1.4,-6.2 L1.7,-6.2 L5,-6.9 L5,9.6 L1.1,10.4 C0.5,10.5 0,11.2 0,11.8 L0,17.6 C0,18.4 0.6,19 1.4,19 L1.7,19 L5,18.3 L5,33.2 L7.8,33.2 L7.8,17.7 L16.7,15.9 L16.7,30 L19.5,30 L19.5,15.3 L23.3,14.6 C23.9,14.5 24.4,13.8 24.4,13.2 L24.4,7.3 C24.4,6.5 23.8,5.9 23,5.9 L22.8,5.9 L19.5,6.6 L19.5,-9.9 L23.3,-10.6 M7.8,9.1 L7.8,-7.5 L16.7,-9.3 L16.7,7.2 L7.8,9.1 "/>
<path class="Accidental" transform="matrix(0.453543,0,0,0.453543,652.209,300.472)" d="M23.3,-10.6 C23.9,-10.7 24.4,-11.4 24.4,-12 L24.4,-17.9 C24.4,-18.7 23.8,-19.3 23,-19.3 L22.8,-19.3 L19.5,-18.6 L19.5,-33.5 L16.7,-33.5 L16.7,-18 L7.8,-16.2 L7.8,-30.3 L5,-30.3 L5,-15.6 L1.1,-14.8 C0.5,-14.7 0,-14 0,-13.4 L0,-13.2 L0,-7.4 L0,-7.6 C0,-6.8 0.6,-6.2 1.4,-6.2 L1.7,-6.2 L5,-6.9 L5,9.6 L1.1,10.4 C0.5,10.5 0,11.2 0,11.8 L0,17.6 C0,18.4 0.6,19 1.4,19 L1.7,19 L5,18.3 L5,33.2 L7.8,33.2 L7.8,17.7 L16.7,15.9 L16.7,30 L19.5,30 L19.5,15.3 L23.3,14.6 C23.9,14.5 24.4,13.8 24.4,13.2 L24.4,7.3 C24.4,6.5 23.8,5.9 23,5.9 L22.8,5.9 L19.5,6.6 L19.5,-9.9 L23.3,-10.6 M7.8,9.1 L7.8,-7.5 L16.7,-9.3 L16.7,7.2 L7.8,9.1 "/>
<path class="Note" transform="matrix(0.453543,0,0,0.453543,111.604,417.883)" d="M18.7,-13.6 C4.9,-13.6 0,-6.6 0,-0.1 C0,6.4 4.9,13.4 18.7,13.4 C32.5,13.4 37.3,6.4 37.3,-0.1 C37.3,-6.6 32.5,-13.6 18.7,-13.6 M10.4,-4.5 C10.3,-4.9 10.3,-5.3 10.3,-5.7 C10.3,-6.5 10.5,-7.3 10.9,-8 C11.6,-9 12.8,-9.7 14.3,-10 C15.6,-10.3 16.3,-10.5 18.9,-10.5 L19,-10.5 C23,-10.5 24.3,-6.8 25.4,-3 L25.7,-2 C26.5,0.6 26.9,2.8 26.9,4.5 C26.9,5.7 26.7,6.8 26.3,7.6 C25.7,8.7 24.7,9.4 23,9.8 C22.1,10 20.6,10.1 20.6,10.1 C20.1,10.1 19.7,10.2 19.3,10.2 C16.1,10.2 14.1,9 12.7,4.7 C11.5,1 11.3,-0.1 10.4,-4.5"/>
<path class="Note" transform="matrix(0.453543,0,0,0.453543,297.892,406.544)" d="M18.7,-13.6 C4.9,-13.6 0,-6.6 0,-0.1 C0,6.4 4.9,13.4 18.7,13.4 C32.5,13.4 37.3,6.4 37.3,-0.1 C37.3,-6.6 32.5,-13.6 18.7,-13.6 M10.4,-4.5 C10.3,-4.9 10.3,-5.3 10.3,-5.7 C10.3,-6.5 10.5,-7.3 10.9,-8 C11.6,-9 12.8,-9.7 14.3,-10 C15.6,-10.3 16.3,-10.5 18.9,-10.5 L19,-10.5 C23,-10.5 24.3,-6.8 25.4,-3 L25.7,-2 C26.5,0.6 26.9,2.8 26.9,4.5 C26.9,5.7 26.7,6.8 26.3,7.6 C25.7,8.7 24.7,9.4 23,9.8 C22.1,10 20.6,10.1 20.6,10.1 C20.1,10.1 19.7,10.2 19.3,10.2 C16.1,10.2 14.1,9 12.7,4.7 C11.5,1 11.3,-0.1 10.4,-4.5"/>
<path class="Note" transform="matrix(0.453543,0,0,0.453543,482,434.891)" d="M18.7,-13.6 C4.9,-13.6 0,-6.6 0,-0.1 C0,6.4 4.9,13.4 18.7,13.4 C32.5,13.4 37.3,6.4 37.3,-0.1 C37.3,-6.6 32.5,-13.6 18.7,-13.6 M10.4,-4.5 C10.3,-4.9 10.3,-5.3 10.3,-5.7 C10.3,-6.5 10.5,-7.3 10.9,-8 C11.6,-9 12.8,-9.7 14.3,-10 C15.6,-10.3 16.3,-10.5 18.9,-10.5 L19,-10.5 C23,-10.5 24.3,-6.8 25.4,-3 L25.7,-2 C26.5,0.6 26.9,2.8 26.9,4.5 C26.9,5.7 26.7,6.8 26.3,7.6 C25.7,8.7 24.7,9.4 23,9.8 C22.1,10 20.6,10.1 20.6,10.1 C20.1,10.1 19.7,10.2 19.3,10.2 C16.1,10.2 14.1,9 12.7,4.7 C11.5,1 11.3,-0.1 10.4,-4.5"/>
<path class="Note" transform="matrix(0.453543,0,0,0.453543,666.109,423.552)" d="M18.7,-13.6 C4.9,-13.6 0,-6.6 0,-0.1 C0,6.4 4.9,13.4 18.7,13.4 C32.5,13.4 37.3,6.4 37.3,-0.1 C37.3,-6.6 32.5,-13.6 18.7,-13.6 M10.4,-4.5 C10.3,-4.9 10.3,-5.3 10.3,-5.7 C10.3,-6.5 10.5,-7.3 10.9,-8 C11.6,-9 12.8,-9.7 14.3,-10 C15.6,-10.3 16.3,-10.5 18.9,-10.5 L19,-10.5 C23,-10.5 24.3,-6.8 25.4,-3 L25.7,-2 C26.5,0.6 26.9,2.8 26.9,4.5 C26.9,5.7 26.7,6.8 26.3,7.6 C25.7,8.7 24.7,9.4 23,9.8 C22.1,10 20.6,10.1 20.6,10.1 C20.1,10.1 19.7,10.2 19.3,10.2 C16.1,10.2 14.1,9 12.7,4.7 C11.5,1 11.3,-0.1 10.4,-4.5"/>
<path class="Note" transform="matrix(0.453543,0,0,0.453543,111.604,300.472)" d="M18.7,-13.6 C4.9,-13.6 0,-6.6 0,-0.1 C0,6.4 4.9,13.4 18.7,13.4 C32.5,13.4 37.3,6.4 37.3,-0.1 C37.3,-6.6 32.5,-13.6 18.7,-13.6 M10.4,-4.5 C10.3,-4.9 10.3,-5.3 10.3,-5.7 C10.3,-6.5 10.5,-7.3 10.9,-8 C11.6,-9 12.8,-9.7 14.3,-10 C15.6,-10.3 16.3,-10.5 18.9,-10.5 L19,-10.5 C23,-10.5 24.3,-6.8 25.4,-3 L25.7,-2 C26.5,0.6 26.9,2.8 26.9,4.5 C26.9,5.7 26.7,6.8 26.3,7.6 C25.7,8.7 24.7,9.4 23,9.8 C22.1,10 20.6,10.1 20.6,10.1 C20.1,10.1 19.7,10.2 19.3,10.2 C16.1,10.2 14.1,9 12.7,4.7 C11.5,1 11.3,-0.1 10.4,-4.5"/>
<path class="Note" transform="matrix(0.453543,0,0,0.453543,111.604,289.134)" d="M18.7,-13.6 C4.9,-13.6 0,-6.6 0,-0.1 C0,6.4 4.9,13.4 18.7,13.4 C32.5,13.4 37.3,6.4 37.3,-0.1 C37.3,-6.6 32.5,-13.6 18.7,-13.6 M10.4,-4.5 C10.3,-4.9 10.3,-5.3 10.3,-5.7 C10.3,-6.5 10.5,-7.3 10.9,-8 C11.6,-9 12.8,-9.7 14.3,-10 C15.6,-10.3 16.3,-10.5 18.9,-10.5 L19,-10.5 C23,-10.5 24.3,-6.8 25.4,-3 L25.7,-2 C26.5,0.6 26.9,2.8 26.9,4.5 C26.9,5.7 26.7,6.8 26.3,7.6 C25.7,8.7 24.7,9.4 23,9.8 C22.1,10 20.6,10.1 20.6,10.1 C20.1,10.1 19.7,10.2 19.3,10.2 C16.1,10.2 14.1,9 12.7,4.7 C11.5,1 11.3,-0.1 10.4,-4.5"/>
<path class="Note" transform="matrix(0.453543,0,0,0.453543,111.604,277.795)" d="M18.7,-13.6 C4.9,-13.6 0,-6.6 0,-0.1 C0,6.4 4.9,13.4 18.7,13.4 C32.5,13.4 37.3,6.4 37.3,-0.1 C37.3,-6.6 32.5,-13.6 18.7,-13.6 M10.4,-4.5 C10.3,-4.9 10.3,-5.3 10.3,-5.7 C10.3,-6.5 10.5,-7.3 10.9,-8 C11.6,-9 12.8,-9.7 14.3,-10 C15.6,-10.3 16.3,-10.5 18.9,-10.5 L19,-10.5 C23,-10.5 24.3,-6.8 25.4,-3 L25.7,-2 C26.5,0.6 26.9,2.8 26.9,4.5 C26.9,5.7 26.7,6.8 26.3,7.6 C25.7,8.7 24.7,9.4 23,9.8 C22.1,10 20.6,10.1 20.6,10.1 C20.1,10.1 19.7,10.2 19.3,10.2 C16.1,10.2 14.1,9 12.7,4.7 C11.5,1 11.3,-0.1 10.4,-4.5"/>
<path class="Note" transform="matrix(0.453543,0,0,0.453543,297.892,311.811)" d="M18.7,-13.6 C4.9,-13.6 0,-6.6 0,-0.1 C0,6.4 4.9,13.4 18.7,13.4 C32.5,13.4 37.3,6.4 37.3,-0.1 C37.3,-6.6 32.5,-13.6 18.7,-13.6 M10.4,-4.5 C10.3,-4.9 10.3,-5.3 10.3,-5.7 C10.3,-6.5 10.5,-7.3 10.9,-8 C11.6,-9 12.8,-9.7 14.3,-10 C15.6,-10.3 16.3,-10.5 18.9,-10.5 L19,-10.5 C23,-10.5 24.3,-6.8 25.4,-3 L25.7,-2 C26.5,0.6 26.9,2.8 26.9,4.5 C26.9,5.7 26.7,6.8 26.3,7.6 C25.7,8.7 24.7,9.4 23,9.8 C22.1,10 20.6,10.1 20.6,10.1 C20.1,10.1 19.7,10.2 19.3,10.2 C16.1,10.2 14.1,9 12.7,4.7 C11.5,1 11.3,-0.1 10.4,-4.5"/>
<path class="Note" transform="matrix(0.453543,0,0,0.453543,297.892,289.134)" d="M18.7,-13.6 C4.9,-13.6 0,-6.6 0,-0.1 C0,6.4 4.9,13.4 18.7,13.4 C32.5,13.4 37.3,6.4 37.3,-0.1 C37.3,-6.6 32.5,-13.6 18.7,-13.6 M10.4,-4.5 C10.3,-4.9 10.3,-5.3 10.3,-5.7 C10.3,-6.5 10.5,-7.3 10.9,-8 C11.6,-9 12.8,-9.7 14.3,-10 C15.6,-10.3 16.3,-10.5 18.9,-10.5 L19,-10.5 C23,-10.5 24.3,-6.8 25.4,-3 L25.7,-2 C26.5,0.6 26.9,2.8 26.9,4.5 C26.9,5.7 26.7,6.8 26.3,7.6 C25.7,8.7 24.7,9.4 23,9.8 C22.1,10 20.6,10.1 20.6,10.1 C20.1,10.1 19.7,10.2 19.3,10.2 C16.1,10.2 14.1,9 12.7,4.7 C11.5,1 11.3,-0.1 10.4,-4.5"/>
<path class="Note" transform="matrix(0.453543,0,0,0.453543,297.892,277.795)" d="M18.7,-13.6 C4.9,-13.6 0,-6.6 0,-0.1 C0,6.4 4.9,13.4 18.7,13.4 C32.5,13.4 37.3,6.4 37.3,-0.1 C37.3,-6.6 32.5,-13.6 18.7,-13.6 M10.4,-4.5 C10.3,-4.9 10.3,-5.3 10.3,-5.7 C10.3,-6.5 10.5,-7.3 10.9,-8 C11.6,-9 12.8,-9.7 14.3,-10 C15.6,-10.3 16.3,-10.5 18.9,-10.5 L19,-10.5 C23,-10.5 24.3,-6.8 25.4,-3 L25.7,-2 C26.5,0.6 26.9,2.8 26.9,4.5 C26.9,5.7 26.7,6.8 26.3,7.6 C25.7,8.7 24.7,9.4 23,9.8 C22.1,10 20.6,10.1 20.6,10.1 C20.1,10.1 19.7,10.2 19.3,10.2 C16.1,10.2 14.1,9 12.7,4.7 C11.5,1 11.3,-0.1 10.4,-4.5"/>
<path class="Note" transform="matrix(0.453543,0,0,0.453543,482,311.811)" d="M18.7,-13.6 C4.9,-13.6 0,-6.6 0,-0.1 C0,6.4 4.9,13.4 18.7,13.4 C32.5,13.4 37.3,6.4 37.3,-0.1 C37.3,-6.6 32.5,-13.6 18.7,-13.6 M10.4,-4.5 C10.3,-4.9 10.3,-5.3 10.3,-5.7 C10.3,-6.5 10.5,-7.3 10.9,-8 C11.6,-9 12.8,-9.7 14.3,-10 C15.6,-10.3 16.3,-10.5 18.9,-10.5 L19,-10.5 C23,-10.5 24.3,-6.8 25.4,-3 L25.7,-2 C26.5,0.6 26.9,2.8 26.9,4.5 C26.9,5.7 26.7,6.8 26.3,7.6 C25.7,8.7 24.7,9.4 23,9.8 C22.1,10 20.6,10.1 20.6,10.1 C20.1,10.1 19.7,10.2 19.3,10.2 C16.1,10.2 14.1,9 12.7,4.7 C11.5,1 11.3,-0.1 10.4,-4.5"/>
<path class="Note" transform="matrix(0.453543,0,0,0.453543,482,300.472)" d="M18.7,-13.6 C4.9,-13.6 0,-6.6 0,-0.1 C0,6.4 4.9,13.4 18.7,13.4 C32.5,13.4 37.3,6.4 37.3,-0.1 C37.3,-6.6 32.5,-13.6 18.7,-13.6 M10.4,-4.5 C10.3,-4.9 10.3,-5.3 10.3,-5.7 C10.3,-6.5 10.5,-7.3 10.9,-8 C11.6,-9 12.8,-9.7 14.3,-10 C15.6,-10.3 16.3,-10.5 18.9,-10.5 L19,-10.5 C23,-10.5 24.3,-6.8 25.4,-3 L25.7,-2 C26.5,0.6 26.9,2.8 26.9,4.5 C26.9,5.7 26.7,6.8 26.3,7.6 C25.7,8.7 24.7,9.4 23,9.8 C22.1,10 20.6,10.1 20.6,10.1 C20.1,10.1 19.7,10.2 19.3,10.2 C16.1,10.2 14.1,9 12.7,4.7 C11.5,1 11.3,-0.1 10.4,-4.5"/>
<path class="Note" transform="matrix(0.453543,0,0,0.453543,482,277.795)" d="M18.7,-13.6 C4.9,-13.6 0,-6.6 0,-0.1 C0,6.4 4.9,13.4 18.7,13.4 C32.5,13.4 37.3,6.4 37.3,-0.1 C37.3,-6.6 32.5,-13.6 18.7,-13.6 M10.4,-4.5 C10.3,-4.9 10.3,-5.3 10.3,-5.7 C10.3,-6.5 10.5,-7.3 10.9,-8 C11.6,-9 12.8,-9.7 14.3,-10 C15.6,-10.3 16.3,-10.5 18.9,-10.5 L19,-10.5 C23,-10.5 24.3,-6.8 25.4,-3 L25.7,-2 C26.5,0.6 26.9,2.8 26.9,4.5 C26.9,5.7 26.7,6.8 26.3,7.6 C25.7,8.7 24.7,9.4 23,9.8 C22.1,10 20.6,10.1 20.6,10.1 C20.1,10.1 19.7,10.2 19.3,10.2 C16.1,10.2 14.1,9 12.7,4.7 C11.5,1 11.3,-0.1 10.4,-4.5"/>
<path class="Note" transform="matrix(0.453543,0,0,0.453543,666.109,311.811)" d="M18.7,-13.6 C4.9,-13.6 0,-6.6 0,-0.1 C0,6.4 4.9,13.4 18.7,13.4 C32.5,13.4 37.3,6.4 37.3,-0.1 C37.3,-6.6 32.5,-13.6 18.7,-13.6 M10.4,-4.5 C10.3,-4.9 10.3,-5.3 10.3,-5.7 C10.3,-6.5 10.5,-7.3 10.9,-8 C11.6,-9 12.8,-9.7 14.3,-10 C15.6,-10.3 16.3,-10.5 18.9,-10.5 L19,-10.5 C23,-10.5 24.3,-6.8 25.4,-3 L25.7,-2 C26.5,0.6 26.9,2.8 26.9,4.5 C26.9,5.7 26.7,6.8 26.3,7.6 C25.7,8.7 24.7,9.4 23,9.8 C22.1,10 20.6,10.1 20.6,10.1 C20.1,10.1 19.7,10.2 19.3,10.2 C16.1,10.2 14.1,9 12.7,4.7 C11.5,1 11.3,-0.1 10.4,-4.5"/>
<path class="Note" transform="matrix(0.453543,0,0,0.453543,666.109,300.472)" d="M18.7,-13.6 C4.9,-13.6 0,-6.6 0,-0.1 C0,6.4 4.9,13.4 18.7,13.4 C32.5,13.4 37.3,6.4 37.3,-0.1 C37.3,-6.6 32.5,-13.6 18.7,-13.6 M10.4,-4.5 C10.3,-4.9 10.3,-5.3 10.3,-5.7 C10.3,-6.5 10.5,-7.3 10.9,-8 C11.6,-9 12.8,-9.7 14.3,-10 C15.6,-10.3 16.3,-10.5 18.9,-10.5 L19,-10.5 C23,-10.5 24.3,-6.8 25.4,-3 L25.7,-2 C26.5,0.6 26.9,2.8 26.9,4.5 C26.9,5.7 26.7,6.8 26.3,7.6 C25.7,8.7 24.7,9.4 23,9.8 C22.1,10 20.6,10.1 20.6,10.1 C20.1,10.1 19.7,10.2 19.3,10.2 C16.1,10.2 14.1,9 12.7,4.7 C11.5,1 11.3,-0.1 10.4,-4.5"/>
<path class="Note" transform="matrix(0.453543,0,0,0.453543,666.109,289.134)" d="M18.7,-13.6 C4.9,-13.6 0,-6.6 0,-0.1 C0,6.4 4.9,13.4 18.7,13.4 C32.5,13.4 37.3,6.4 37.3,-0.1 C37.3,-6.6 32.5,-13.6 18.7,-13.6 M10.4,-4.5 C10.3,-4.9 10.3,-5.3 10.3,-5.7 C10.3,-6.5 10.5,-7.3 10.9,-8 C11.6,-9 12.8,-9.7 14.3,-10 C15.6,-10.3 16.3,-10.5 18.9,-10.5 L19,-10.5 C23,-10.5 24.3,-6.8 25.4,-3 L25.7,-2 C26.5,0.6 26.9,2.8 26.9,4.5 C26.9,5.7 26.7,6.8 26.3,7.6 C25.7,8.7 24.7,9.4 23,9.8 C22.1,10 20.6,10.1 20.6,10.1 C20.1,10.1 19.7,10.2 19.3,10.2 C16.1,10.2 14.1,9 12.7,4.7 C11.5,1 11.3,-0.1 10.4,-4.5"/>
<path class="Note" d="M118.25,169.629 C117.517,169.629 117.15,168.843 117.15,167.27 L117.15,160.689 C117.15,160.061 117.457,159.746 118.071,159.746 C118.34,159.746 118.542,159.769 118.677,159.813 C119.156,158.975 119.942,158.271 121.035,157.702 C122.563,156.909 124.113,156.512 125.685,156.512 C126.928,156.512 127.549,156.976 127.549,157.904 C127.549,158.683 127.13,159.072 126.291,159.072 C125.692,159.072 125.123,158.937 124.584,158.668 C124.105,158.428 123.596,158.309 123.057,158.309 C122.128,158.309 120.758,158.915 118.947,160.128 C119.201,161.341 119.328,162.756 119.328,164.373 C119.328,167.877 118.969,169.629 118.25,169.629"/>
<path class="Note" d="M133.726,113.529 C132.498,115.461 130.559,117.063 127.908,118.336 C125.602,119.444 123.446,119.998 121.44,119.998 C119.837,119.998 118.505,119.676 117.442,119.032 C116.289,118.328 115.712,117.49 115.712,116.516 C115.712,114.315 116.289,112.421 117.442,110.834 C119.014,108.678 120.601,107.599 122.203,107.599 C123.341,107.599 124.15,107.824 124.629,108.273 C125.288,108.857 125.617,109.658 125.617,110.677 C125.617,112.114 124.547,113.364 122.406,114.428 C120.324,115.461 118.879,116.135 118.071,116.449 C118.25,116.823 118.482,117.16 118.767,117.46 C119.471,118.208 120.429,118.583 121.642,118.583 C123.169,118.583 125.221,118.021 127.796,116.898 C130.267,115.805 132.243,114.682 133.726,113.529 M117.756,115.416 C118.879,114.847 119.905,114.18 120.833,113.417 C122.211,112.294 122.9,111.081 122.9,109.778 C122.9,109.044 122.563,108.678 121.889,108.678 C121.32,108.678 120.541,109.329 119.553,110.632 C118.31,112.249 117.689,113.567 117.689,114.585 C117.689,114.869 117.711,115.146 117.756,115.416"/>
<path class="Note" d="M118.25,101.597 C117.517,101.597 117.15,100.811 117.15,99.239 L117.15,92.6579 C117.15,92.029 117.457,91.7146 118.071,91.7146 C118.34,91.7146 118.542,91.737 118.677,91.782 C119.156,90.9434 119.942,90.2396 121.035,89.6706 C122.563,88.877 124.113,88.4802 125.685,88.4802 C126.928,88.4802 127.549,88.9444 127.549,89.8728 C127.549,90.6514 127.13,91.0408 126.291,91.0408 C125.692,91.0408 125.123,90.906 124.584,90.6365 C124.105,90.3969 123.596,90.2771 123.057,90.2771 C122.128,90.2771 120.758,90.8835 118.947,92.0964 C119.201,93.3093 119.328,94.7243 119.328,96.3415 C119.328,99.8454 118.969,101.597 118.25,101.597"/>
<path class="Note" d="M133.726,147.545 C132.498,149.476 130.559,151.079 127.908,152.351 C125.602,153.46 123.446,154.014 121.44,154.014 C119.837,154.014 118.505,153.692 117.442,153.048 C116.289,152.344 115.712,151.505 115.712,150.532 C115.712,148.331 116.289,146.437 117.442,144.85 C119.014,142.693 120.601,141.615 122.203,141.615 C123.341,141.615 124.15,141.84 124.629,142.289 C125.288,142.873 125.617,143.674 125.617,144.692 C125.617,146.13 124.547,147.38 122.406,148.443 C120.324,149.476 118.879,150.15 118.071,150.465 C118.25,150.839 118.482,151.176 118.767,151.476 C119.471,152.224 120.429,152.599 121.642,152.599 C123.169,152.599 125.221,152.037 127.796,150.914 C130.267,149.821 132.243,148.698 133.726,147.545 M117.756,149.432 C118.879,148.863 119.905,148.196 120.833,147.433 C122.211,146.309 122.9,145.097 122.9,143.794 C122.9,143.06 122.563,142.693 121.889,142.693 C121.32,142.693 120.541,143.345 119.553,144.647 C118.31,146.265 117.689,147.582 117.689,148.601 C117.689,148.885 117.711,149.162 117.756,149.432"/>
<path class="Note" d="M105.367,125.057 C105.426,122.795 106.677,120.789 109.118,119.037 C111.289,117.48 113.662,116.701 116.238,116.701 C119.846,116.701 123.028,118.116 125.784,120.946 C127.535,122.758 128.411,125.004 128.411,127.684 C128.411,130.095 127.768,131.945 126.48,133.232 C124.908,134.82 123.245,135.613 121.493,135.613 C120.296,135.613 119.367,135.344 118.708,134.805 C117.63,133.921 117.091,132.738 117.091,131.256 C117.091,129.339 118.049,127.587 119.966,126 C121.538,124.697 123.118,123.844 124.705,123.439 C124.286,122.721 123.755,122.047 123.111,121.418 C121.104,119.456 118.828,118.475 116.283,118.475 C113.632,118.475 111.438,119.052 109.701,120.205 C107.905,121.388 106.46,123.005 105.367,125.057 M125.267,124.63 C124.443,125.393 123.62,126.209 122.796,127.078 C121.179,128.785 120.37,130.402 120.37,131.93 C120.37,133.562 120.745,134.378 121.493,134.378 C122.167,134.378 123.111,133.457 124.324,131.615 C125.297,130.148 125.784,128.8 125.784,127.572 C125.784,126.524 125.611,125.543 125.267,124.63"/>
<path class="Note" d="M313.096,107.285 C313.979,107.285 314.421,107.839 314.421,108.947 C314.421,109.726 313.934,110.886 312.961,112.429 C312.182,113.671 311.793,114.884 311.793,116.067 C311.793,116.741 312.774,117.078 314.735,117.078 C316.352,117.078 318.606,116.202 321.496,114.45 C318.591,117.25 316.068,118.65 313.927,118.65 C311.995,118.65 310.647,118.358 309.884,117.774 C309.689,117.624 309.524,117.445 309.389,117.235 C308.641,118.149 307.39,118.605 305.639,118.605 C303.961,118.605 302.674,118.261 301.775,117.572 C301.176,117.108 300.877,116.367 300.877,115.348 C300.877,113.731 301.835,111.964 303.752,110.048 C305.803,107.996 308.177,106.971 310.872,106.971 C311.546,106.971 312.04,107.218 312.354,107.712 C312.609,107.427 312.856,107.285 313.096,107.285 M309.075,116.224 C309.06,116.105 309.053,115.985 309.053,115.865 C309.053,115.805 309.816,113.716 311.344,109.598 C311.493,109.194 311.643,108.85 311.793,108.565 C311.209,108.445 310.632,108.386 310.063,108.386 C309.015,108.386 307.623,109.276 305.886,111.058 C304.328,112.646 303.55,114.016 303.55,115.169 C303.55,116.442 304.156,117.078 305.369,117.078 C306.836,117.078 308.072,116.793 309.075,116.224"/>
<path class="Note" d="M314.466,140.739 C316.487,139.466 317.955,138.426 318.868,137.617 C320.545,136.135 321.384,134.637 321.384,133.125 C321.384,131.358 320.201,130.475 317.835,130.475 C315.349,130.475 312.759,132.264 310.063,135.843 C308.236,138.268 306.941,140.559 306.178,142.716 C307.121,142.102 308.117,141.795 309.165,141.795 C310.153,141.795 310.939,142.237 311.523,143.12 C311.928,143.734 312.13,144.782 312.13,146.265 C312.13,147.597 311.426,149.162 310.018,150.959 C309.15,152.067 308.184,152.621 307.121,152.621 C305.773,152.621 304.83,152.351 304.291,151.812 C303.527,151.049 303.145,149.536 303.145,147.275 C303.145,143.472 304.68,139.728 307.75,136.045 C311.209,131.897 314.526,129.823 317.7,129.823 C320.156,129.823 321.99,130.4 323.203,131.553 C323.907,132.226 324.259,133.2 324.259,134.473 C324.259,135.895 322.859,137.482 320.058,139.234 C318.591,140.163 316.727,140.664 314.466,140.739 M305.886,143.659 C305.511,144.917 305.324,146.122 305.324,147.275 C305.324,150.016 305.758,151.386 306.627,151.386 C307.45,151.386 308.094,150.802 308.558,149.634 C309.097,148.316 309.367,146.856 309.367,145.254 C309.367,143.831 308.895,143.12 307.952,143.12 C307.293,143.12 306.604,143.3 305.886,143.659"/>
<path class="Note" d="M304.538,101.597 C303.804,101.597 303.437,100.811 303.437,99.239 L303.437,92.6579 C303.437,92.029 303.744,91.7146 304.358,91.7146 C304.628,91.7146 304.83,91.737 304.965,91.782 C305.444,90.9434 306.23,90.2396 307.323,89.6706 C308.85,88.877 310.4,88.4802 311.972,88.4802 C313.215,88.4802 313.837,88.9444 313.837,89.8728 C313.837,90.6514 313.417,91.0408 312.579,91.0408 C311.98,91.0408 311.411,90.906 310.872,90.6365 C310.393,90.3969 309.884,90.2771 309.345,90.2771 C308.416,90.2771 307.046,90.8835 305.234,92.0964 C305.489,93.3093 305.616,94.7243 305.616,96.3415 C305.616,99.8454 305.257,101.597 304.538,101.597"/>
<path class="Note" d="M291.654,125.057 C291.714,122.795 292.964,120.789 295.405,119.037 C297.576,117.48 299.95,116.701 302.525,116.701 C306.134,116.701 309.316,118.116 312.071,120.946 C313.823,122.758 314.699,125.004 314.699,127.684 C314.699,130.095 314.055,131.945 312.768,133.232 C311.195,134.82 309.533,135.613 307.781,135.613 C306.583,135.613 305.655,135.344 304.996,134.805 C303.918,133.921 303.379,132.738 303.379,131.256 C303.379,129.339 304.337,127.587 306.254,126 C307.826,124.697 309.406,123.844 310.993,123.439 C310.574,122.721 310.042,122.047 309.398,121.418 C307.392,119.456 305.116,118.475 302.57,118.475 C299.92,118.475 297.726,119.052 295.989,120.205 C294.192,121.388 292.747,123.005 291.654,125.057 M311.555,124.63 C310.731,125.393 309.907,126.209 309.084,127.078 C307.467,128.785 306.658,130.402 306.658,131.93 C306.658,133.562 307.032,134.378 307.781,134.378 C308.455,134.378 309.398,133.457 310.611,131.615 C311.585,130.148 312.071,128.8 312.071,127.572 C312.071,126.524 311.899,125.543 311.555,124.63"/>
<path class="Note" d="M488.646,186.637 C487.913,186.637 487.546,185.851 487.546,184.278 L487.546,177.697 C487.546,177.068 487.853,176.754 488.467,176.754 C488.736,176.754 488.938,176.776 489.073,176.821 C489.552,175.983 490.339,175.279 491.432,174.71 C492.959,173.916 494.509,173.52 496.081,173.52 C497.324,173.52 497.945,173.984 497.945,174.912 C497.945,175.691 497.526,176.08 496.687,176.08 C496.089,176.08 495.52,175.945 494.98,175.676 C494.501,175.436 493.992,175.316 493.453,175.316 C492.525,175.316 491.155,175.923 489.343,177.136 C489.597,178.349 489.725,179.764 489.725,181.381 C489.725,184.885 489.365,186.637 488.646,186.637"/>
<path class="Note" d="M497.204,107.285 C498.088,107.285 498.529,107.839 498.529,108.947 C498.529,109.726 498.043,110.886 497.069,112.429 C496.291,113.671 495.901,114.884 495.901,116.067 C495.901,116.741 496.882,117.078 498.844,117.078 C500.461,117.078 502.715,116.202 505.604,114.45 C502.7,117.25 500.176,118.65 498.035,118.65 C496.104,118.65 494.756,118.358 493.992,117.774 C493.798,117.624 493.633,117.445 493.498,117.235 C492.749,118.149 491.499,118.605 489.747,118.605 C488.07,118.605 486.782,118.261 485.884,117.572 C485.285,117.108 484.985,116.367 484.985,115.348 C484.985,113.731 485.944,111.964 487.86,110.048 C489.912,107.996 492.285,106.971 494.98,106.971 C495.654,106.971 496.148,107.218 496.463,107.712 C496.717,107.427 496.965,107.285 497.204,107.285 M493.184,116.224 C493.169,116.105 493.161,115.985 493.161,115.865 C493.161,115.805 493.925,113.716 495.452,109.598 C495.602,109.194 495.752,108.85 495.901,108.565 C495.317,108.445 494.741,108.386 494.172,108.386 C493.124,108.386 491.731,109.276 489.994,111.058 C488.437,112.646 487.658,114.016 487.658,115.169 C487.658,116.442 488.265,117.078 489.478,117.078 C490.945,117.078 492.18,116.793 493.184,116.224"/>
<path class="Note" d="M498.574,140.739 C500.596,139.466 502.063,138.426 502.977,137.617 C504.654,136.135 505.492,134.637 505.492,133.125 C505.492,131.358 504.309,130.475 501.943,130.475 C499.458,130.475 496.867,132.264 494.172,135.843 C492.345,138.268 491.05,140.559 490.286,142.716 C491.229,142.102 492.225,141.795 493.273,141.795 C494.262,141.795 495.048,142.237 495.632,143.12 C496.036,143.734 496.238,144.782 496.238,146.265 C496.238,147.597 495.535,149.162 494.127,150.959 C493.258,152.067 492.293,152.621 491.229,152.621 C489.882,152.621 488.938,152.351 488.399,151.812 C487.636,151.049 487.254,149.536 487.254,147.275 C487.254,143.472 488.789,139.728 491.858,136.045 C495.317,131.897 498.634,129.823 501.809,129.823 C504.264,129.823 506.099,130.4 507.312,131.553 C508.015,132.226 508.367,133.2 508.367,134.473 C508.367,135.895 506.967,137.482 504.167,139.234 C502.7,140.163 500.835,140.664 498.574,140.739 M489.994,143.659 C489.62,144.917 489.433,146.122 489.433,147.275 C489.433,150.016 489.867,151.386 490.735,151.386 C491.559,151.386 492.203,150.802 492.667,149.634 C493.206,148.316 493.476,146.856 493.476,145.254 C493.476,143.831 493.004,143.12 492.061,143.12 C491.402,143.12 490.713,143.3 489.994,143.659"/>
<path class="Note" d="M475.763,125.057 C475.823,122.795 477.073,120.789 479.514,119.037 C481.685,117.48 484.058,116.701 486.634,116.701 C490.243,116.701 493.425,118.116 496.18,120.946 C497.932,122.758 498.808,125.004 498.808,127.684 C498.808,130.095 498.164,131.945 496.876,133.232 C495.304,134.82 493.642,135.613 491.89,135.613 C490.692,135.613 489.763,135.344 489.105,134.805 C488.026,133.921 487.487,132.738 487.487,131.256 C487.487,129.339 488.446,127.587 490.362,126 C491.935,124.697 493.514,123.844 495.102,123.439 C494.682,122.721 494.151,122.047 493.507,121.418 C491.5,119.456 489.224,118.475 486.679,118.475 C484.028,118.475 481.835,119.052 480.098,120.205 C478.301,121.388 476.856,123.005 475.763,125.057 M495.663,124.63 C494.84,125.393 494.016,126.209 493.192,127.078 C491.575,128.785 490.767,130.402 490.767,131.93 C490.767,133.562 491.141,134.378 491.89,134.378 C492.564,134.378 493.507,133.457 494.72,131.615 C495.693,130.148 496.18,128.8 496.18,127.572 C496.18,126.524 496.008,125.543 495.663,124.63"/>
<path class="Note" d="M681.313,158.309 C682.196,158.309 682.638,158.863 682.638,159.971 C682.638,160.749 682.151,161.91 681.178,163.452 C680.399,164.695 680.01,165.908 680.01,167.091 C680.01,167.765 680.991,168.102 682.952,168.102 C684.569,168.102 686.823,167.226 689.713,165.474 C686.808,168.274 684.285,169.674 682.144,169.674 C680.212,169.674 678.864,169.382 678.101,168.798 C677.906,168.648 677.741,168.468 677.607,168.259 C676.858,169.172 675.608,169.629 673.856,169.629 C672.179,169.629 670.891,169.284 669.992,168.596 C669.393,168.131 669.094,167.39 669.094,166.372 C669.094,164.755 670.052,162.988 671.969,161.071 C674.02,159.02 676.394,157.994 679.089,157.994 C679.763,157.994 680.257,158.241 680.571,158.735 C680.826,158.451 681.073,158.309 681.313,158.309 M677.292,167.248 C677.277,167.128 677.27,167.008 677.27,166.889 C677.27,166.829 678.033,164.74 679.561,160.622 C679.71,160.218 679.86,159.873 680.01,159.589 C679.426,159.469 678.849,159.409 678.28,159.409 C677.232,159.409 675.84,160.3 674.103,162.082 C672.545,163.669 671.767,165.039 671.767,166.192 C671.767,167.465 672.373,168.102 673.586,168.102 C675.054,168.102 676.289,167.817 677.292,167.248"/>
<path class="Note" d="M681.313,107.285 C682.196,107.285 682.638,107.839 682.638,108.947 C682.638,109.726 682.151,110.886 681.178,112.429 C680.399,113.671 680.01,114.884 680.01,116.067 C680.01,116.741 680.991,117.078 682.952,117.078 C684.569,117.078 686.823,116.202 689.713,114.45 C686.808,117.25 684.285,118.65 682.144,118.65 C680.212,118.65 678.864,118.358 678.101,117.774 C677.906,117.624 677.741,117.445 677.607,117.235 C676.858,118.149 675.608,118.605 673.856,118.605 C672.179,118.605 670.891,118.261 669.992,117.572 C669.393,117.108 669.094,116.367 669.094,115.348 C669.094,113.731 670.052,111.964 671.969,110.048 C674.02,107.996 676.394,106.971 679.089,106.971 C679.763,106.971 680.257,107.218 680.571,107.712 C680.826,107.427 681.073,107.285 681.313,107.285 M677.292,116.224 C677.277,116.105 677.27,115.985 677.27,115.865 C677.27,115.805 678.033,113.716 679.561,109.598 C679.71,109.194 679.86,108.85 680.01,108.565 C679.426,108.445 678.849,108.386 678.28,108.386 C677.232,108.386 675.84,109.276 674.103,111.058 C672.545,112.646 671.767,114.016 671.767,115.169 C671.767,116.442 672.373,117.078 673.586,117.078 C675.054,117.078 676.289,116.793 677.292,116.224"/>
<path class="Note" d="M682.683,140.739 C684.704,139.466 686.172,138.426 687.085,137.617 C688.762,136.135 689.601,134.637 689.601,133.125 C689.601,131.358 688.418,130.475 686.052,130.475 C683.566,130.475 680.976,132.264 678.28,135.843 C676.454,138.268 675.158,140.559 674.395,142.716 C675.338,142.102 676.334,141.795 677.382,141.795 C678.37,141.795 679.156,142.237 679.74,143.12 C680.145,143.734 680.347,144.782 680.347,146.265 C680.347,147.597 679.643,149.162 678.236,150.959 C677.367,152.067 676.401,152.621 675.338,152.621 C673.99,152.621 673.047,152.351 672.508,151.812 C671.744,151.049 671.362,149.536 671.362,147.275 C671.362,143.472 672.897,139.728 675.967,136.045 C679.426,131.897 682.743,129.823 685.917,129.823 C688.373,129.823 690.207,130.4 691.42,131.553 C692.124,132.226 692.476,133.2 692.476,134.473 C692.476,135.895 691.076,137.482 688.276,139.234 C686.808,140.163 684.944,140.664 682.683,140.739 M674.103,143.659 C673.728,144.917 673.541,146.122 673.541,147.275 C673.541,150.016 673.975,151.386 674.844,151.386 C675.667,151.386 676.311,150.802 676.776,149.634 C677.315,148.316 677.584,146.856 677.584,145.254 C677.584,143.831 677.112,143.12 676.169,143.12 C675.51,143.12 674.821,143.3 674.103,143.659"/>
<path class="Note" d="M681.313,124.293 C682.196,124.293 682.638,124.847 682.638,125.955 C682.638,126.734 682.151,127.894 681.178,129.436 C680.399,130.679 680.01,131.892 680.01,133.075 C680.01,133.749 680.991,134.086 682.952,134.086 C684.569,134.086 686.823,133.21 689.713,131.458 C686.808,134.258 684.285,135.658 682.144,135.658 C680.212,135.658 678.864,135.366 678.101,134.782 C677.906,134.632 677.741,134.453 677.607,134.243 C676.858,135.156 675.608,135.613 673.856,135.613 C672.179,135.613 670.891,135.269 669.992,134.58 C669.393,134.116 669.094,133.375 669.094,132.356 C669.094,130.739 670.052,128.972 671.969,127.056 C674.02,125.004 676.394,123.978 679.089,123.978 C679.763,123.978 680.257,124.225 680.571,124.72 C680.826,124.435 681.073,124.293 681.313,124.293 M677.292,133.232 C677.277,133.112 677.27,132.993 677.27,132.873 C677.27,132.813 678.033,130.724 679.561,126.606 C679.71,126.202 679.86,125.858 680.01,125.573 C679.426,125.453 678.849,125.393 678.28,125.393 C677.232,125.393 675.84,126.284 674.103,128.066 C672.545,129.654 671.767,131.024 671.767,132.177 C671.767,133.449 672.373,134.086 673.586,134.086 C675.054,134.086 676.289,133.801 677.292,133.232"/>
<path class="Clef" transform="matrix(0.453543,0,0,0.453543,40.3271,412.213)" d="M25.4,-25.1 C17.8,-25.1 11.7,-20.7 11.6,-20.7 C5.8,-16.4 3.5,-11.3 2.6,-7.8 C2.1,-6 1.9,-4.2 1.9,-2.5 C1.9,-0.1 2.3,2.1 3.2,4 C4.4,6.7 6.7,8.6 9.7,9.6 C10.9,10 12.2,10.2 13.5,10.2 C15.7,10.2 18,9.6 19.9,8.5 C23,6.8 24.9,3.2 24.9,-0.7 C24.9,-4.2 23.1,-7.4 20.1,-9.3 C18,-10.7 16,-11.1 14.3,-11.1 C13.1,-11.1 12,-10.9 11.1,-10.6 C10.1,-10.2 8.4,-9.2 7.6,-8.5 C7.9,-10.4 9.1,-13.3 10.2,-14.9 C11.3,-16.5 13.5,-18.5 15.2,-19.4 C17.7,-20.8 20.9,-21.4 24.4,-21.4 C34.6,-21.4 39.6,-13.2 39.6,3.6 C39.6,12.9 36.1,21.8 33.1,27.7 C29.8,34.3 25.4,40.6 21.5,44.1 C11.1,53.6 1.3,58.1 1.2,58.1 C1.2,58.1 -0.3,59 0.1,60.5 C0.4,61.5 1.3,61.7 1.9,61.7 C2,61.7 2.3,61.6 2.4,61.6 C2.5,61.6 13.9,56.9 23,49.8 C28.1,46.1 32.7,42.1 36.7,37.8 C40.3,33.9 43.4,29.7 45.9,25.5 C50.3,18 52.8,10.2 52.8,3.5 C52.8,-4.8 50.6,-11.7 46.5,-16.6 C41.8,-22.2 34.7,-25.1 25.4,-25.1 M56.8,-12.4 C56.8,-9.6 59,-7.4 61.6,-7.4 C64.2,-7.4 66.4,-9.6 66.4,-12.4 C66.4,-15.2 64.2,-17.5 61.6,-17.5 C59,-17.5 56.8,-15.2 56.8,-12.4 M56.8,12.3 C56.8,15.1 59,17.4 61.6,17.4 C64.2,17.4 66.4,15.1 66.4,12.3 C66.4,9.5 64.2,7.2 61.6,7.2 C59,7.2 56.8,9.5 56.8,12.3"/>
<path class="Clef" transform="matrix(0.453543,0,0,0.453543,40.3271,300.472)" d="M63.37,-5.89004 C62.14,-11.32 59.5,-15.14 58.72,-16.1801 C55.5301,-20.45 51.52,-23.3 46.8301,-24.65 C43.72,-25.54 40.72,-25.65 38.3,-25.47 C37.2601,-31.4801 36.2601,-37.3601 35.35,-42.8101 C40.79,-48.97 44.42,-54.77 46.69,-59.07 C50.1601,-65.65 51.3101,-70.2301 51.3601,-70.4301 C53.0801,-75.64 53.44,-83.34 52.34,-91.55 C51.3301,-99.1 49.24,-105.81 46.89,-109.06 C45.8601,-110.49 44.8101,-111.22 43.77,-111.22 C42.55,-111.22 40.04,-109.98 37.15,-107.21 C34.85,-105.01 31.5801,-101.12 29.02,-95.1101 C26.02,-88.05 25.8101,-78.5601 26.1601,-71.84 C26.54,-64.57 27.65,-58.8801 27.6601,-58.8301 C27.6801,-58.74 27.94,-57.24 28.39,-54.67 C28.1601,-54.44 27.92,-54.22 27.67,-53.9801 C26.6301,-52.9801 25.44,-51.84 24.0601,-50.4601 C23.2,-49.6 22.25,-48.69 21.25,-47.72 C12.79,-39.57 0,-27.25 0,-8.1 C0,-3.4 0.9,1.01992 2.68008,5.02998 C4.27002,8.62998 6.57002,11.91 9.5,14.78 C17.2301,22.33 27.82,25.5399 34.8801,25.38 C37.8301,25.31 40.4601,25.0699 42.85,24.6199 C44.6801,34.2199 45.82,41.25 45.8601,46.5899 C45.9,53.1 44.25,57.0699 40.35,59.8399 C37.92,61.5699 35.1101,62.5199 32.0101,62.6699 C29.42,62.7899 27.1601,62.3199 25.7301,61.91 L25.72,61.91 C25.72,61.91 25.4301,61.83 25.42,61.63 C25.4101,61.45 25.7601,61.4 25.77,61.4 L25.79,61.4 C27.7101,60.96 31.2801,59.73 33.64,56.43 C35.44,53.91 36.3101,49.2899 34.47,45.35 C33.3601,42.96 30.85,40.01 25.2301,39.56 C22.74,39.36 20.47,39.8699 18.47,41.0699 C16.6601,42.15 15.1601,43.7899 14.1101,45.7899 C11.65,50.4899 12.1101,56.2199 15.24,60.06 C18.2,63.68 22.82,65.9899 28.25,66.5699 C29.1,66.66 29.95,66.7 30.8,66.7 C31.5101,66.7 32.22,66.6699 32.92,66.61 C31.72,66.9399 30.64,67.4899 29.77,68.25 C28.2801,69.5399 27.44,71.38 27.44,73.41 C27.44,75.28 28.0601,76.65 29.55,78.0399 C28.4101,78.5 27.55,78.98 26.79,79.56 C25.25,80.73 24.34,82.46 24.34,84.1899 C24.34,87.45 27.3,89.63 31.72,89.63 C37.1301,89.63 40.9101,86.63 40.9101,82.35 C40.9101,80.1199 39.9101,78.18 38.0801,76.83 C41.0101,75.6199 42.37,73.9399 42.37,71.56 C42.39,70.05 41.69,68.61 40.49,67.6899 C39.2801,66.7399 37.62,66.2399 35.69,66.2399 L35.5101,66.2399 C38.2801,65.7 40.92,64.7 43.2101,63.28 C46.87,60.71 48.99,56.73 49.67,51.1 C50.2301,46.46 49.84,40.55 48.44,32.48 C48.0801,30.3899 47.54,27.36 46.8801,23.6 C52.6301,21.68 56.79,18.11 60.5601,12.26 C63.85,6.51992 64.8,0.419922 63.37,-5.89004 M32.39,87.5399 C30.19,87.5399 28.7301,86.1199 28.7301,84.01 C28.7301,82.11 29.65,80.5 31.32,79.4699 C31.6801,79.66 31.77,79.71 32.1101,79.88 C33.3,80.48 33.3,80.48 33.55,80.63 L33.5601,80.6399 C35.47,81.73 36.25,82.76 36.25,84.18 C36.24,86.0899 34.59,87.5399 32.39,87.5399 M38.3101,71.63 C38.3101,73.2699 37.7301,74.3399 36.1801,75.53 C34.74,74.78 34.35,74.56 33.9801,74.3399 L33.8801,74.28 C32.3301,73.3399 31.85,72.66 31.85,71.4 C31.85,69.6 33.2301,68.3399 35.19,68.3399 C37.17,68.35 38.3101,69.55 38.3101,71.63 M33.15,-83.8101 C34.9301,-89.55 37.67,-92.8 39.6601,-94.5301 C41.4101,-96.05 43.0601,-96.7601 43.9801,-96.7601 C44.12,-96.7601 44.24,-96.74 44.34,-96.7101 C44.8,-96.57 45.3301,-96 45.8,-95.1301 C48.1101,-90.84 47.37,-84.1301 46.0301,-79.69 C44.4,-74.29 41.4801,-68.6801 32.69,-59.0601 C32.52,-60.17 32.3601,-61.22 32.2101,-62.2 C30.95,-70.49 31.27,-77.7601 33.15,-83.8101 M29.15,20.31 C24.5101,19.0899 20.0801,16.5899 16.32,13.0899 C15.0101,11.86 13.14,9.68994 11.67,6.3 C10.3101,3.13994 9.65,-0.290039 9.7,-3.88008 C9.77002,-8.57002 11.0801,-13.39 13.59,-18.1801 C16.5101,-23.7601 21.07,-29.29 27.1301,-34.62 C28.5801,-35.9 29.95,-37.1801 31.24,-38.4601 C32,-34.2 32.8301,-29.5101 33.7101,-24.6301 C29.8601,-23.3601 25.1101,-20.2101 22,-14.5601 C18.47,-7.99004 18.6101,-2.47002 19.34,1.00996 C20.2801,5.46992 22.8101,9.22998 26.27,11.3199 C27.2,11.88 31.3301,14.01 33.17,13.43 C33.54,13.31 33.8101,13.0899 33.95,12.76 C34.4601,11.5899 33.44,10.95 31.8801,9.98994 C31.2801,9.61992 30.6101,9.2 29.8801,8.66992 C26.5601,6.17998 25.1101,1.72998 26.1801,-2.65 C26.7601,-5.05 28.04,-7.21006 29.8801,-8.91006 C31.55,-10.4601 33.59,-11.5601 35.97,-12.2 C38.0101,-0.960059 40.07,10.1899 41.7101,18.55 C41.84,19.2399 41.9801,19.91 42.1101,20.58 C37.7101,21.51 33.37,21.4199 29.15,20.31 M54.9,10.1 C53.7301,13.28 51.27,17.35 46.14,19.41 C46.07,18.9899 45.99,18.56 45.9101,18.13 C44.3601,9.36992 42.4301,-1.61006 40.47,-12.87 C50.82,-13.35 55.09,-5.91006 55.9801,-1.08008 C56.45,1.45 56.45,5.88994 54.9,10.1"/>
<path class="FiguredBass" d="M116.216,472.59 C116.252,472.59 116.328,472.514 116.445,472.361 C116.949,471.647 117.652,471.289 118.554,471.289 C119.281,471.289 119.966,471.559 120.611,472.098 C121.255,472.637 121.789,472.906 122.211,472.906 C122.668,472.906 123.101,472.772 123.511,472.502 C123.921,472.233 124.247,471.963 124.487,471.693 C124.727,471.424 124.882,471.289 124.953,471.289 C125.07,471.289 125.175,471.327 125.269,471.403 C125.363,471.48 125.41,471.576 125.41,471.693 C125.41,471.775 125.17,472.18 124.689,472.906 C124.209,473.633 123.675,474.474 123.089,475.429 C122.504,476.384 121.97,477.576 121.49,479.006 C121.009,480.436 120.769,481.801 120.769,483.102 C120.769,483.606 120.822,484.186 120.927,484.842 C121.009,485.346 121.009,485.633 120.927,485.703 C120.869,485.762 120.769,485.791 120.629,485.791 C120.57,485.791 120.297,485.715 119.811,485.563 C119.325,485.41 118.859,485.334 118.414,485.334 C118.015,485.334 117.555,485.41 117.034,485.563 C116.512,485.715 116.222,485.791 116.164,485.791 C116.035,485.791 115.929,485.738 115.847,485.633 C115.765,485.527 115.754,485.416 115.812,485.299 C116.504,483.647 117.344,482.038 118.335,480.474 C119.325,478.909 120.564,477.108 122.052,475.068 C121.49,475.373 120.921,475.525 120.347,475.525 C119.738,475.525 119.123,475.253 118.502,474.708 C117.88,474.163 117.371,473.891 116.972,473.891 C116.679,473.891 116.424,474.058 116.208,474.392 C115.991,474.726 115.882,475.227 115.882,475.895 L115.882,478.057 C115.882,478.35 115.748,478.496 115.478,478.496 C115.185,478.496 115.039,478.35 115.039,478.057 L115.039,471.729 C115.039,471.436 115.185,471.289 115.478,471.289 C115.748,471.289 115.882,471.436 115.882,471.729 L115.882,472.133 C115.882,472.227 115.906,472.309 115.953,472.379 C116.093,472.52 116.181,472.59 116.216,472.59"/>
<path class="FiguredBass" d="M120.574,502.272 C120.445,502.412 120.275,502.483 120.064,502.483 C119.853,502.483 119.68,502.409 119.545,502.263 C119.411,502.116 119.343,501.949 119.343,501.762 L119.343,499.248 L116.83,499.248 C116.619,499.248 116.446,499.175 116.311,499.028 C116.176,498.882 116.109,498.715 116.109,498.527 C116.109,498.34 116.176,498.173 116.311,498.026 C116.446,497.88 116.619,497.807 116.83,497.807 L119.343,497.807 L119.343,495.293 C119.343,495.106 119.411,494.939 119.545,494.792 C119.68,494.646 119.853,494.572 120.064,494.572 C120.275,494.572 120.448,494.646 120.583,494.792 C120.717,494.939 120.785,495.106 120.785,495.293 L120.785,497.807 L123.298,497.807 C123.509,497.807 123.682,497.88 123.817,498.026 C123.952,498.173 124.019,498.34 124.019,498.527 C124.019,498.715 123.952,498.882 123.817,499.028 C123.682,499.175 123.509,499.248 123.298,499.248 L120.785,499.248 L120.785,501.762 C120.785,501.949 120.714,502.119 120.574,502.272"/>
<path class="FiguredBass" d="M306.881,471.957 C306.014,471.957 305.437,472.306 305.15,473.003 C304.862,473.7 304.719,474.688 304.719,475.965 L304.719,478.039 C305.328,477.793 305.856,477.664 306.301,477.652 C307.824,477.652 309.023,477.989 309.896,478.663 C310.769,479.337 311.205,480.339 311.205,481.669 C311.205,482.999 310.763,484.004 309.878,484.684 C308.993,485.363 307.801,485.703 306.301,485.703 C304.766,485.703 303.565,484.991 302.697,483.567 C301.83,482.144 301.397,480.453 301.397,478.496 C301.397,476.551 301.901,474.863 302.908,473.434 C303.916,472.004 305.24,471.289 306.881,471.289 C307.959,471.289 308.891,471.562 309.676,472.107 C310.461,472.651 310.854,473.369 310.854,474.26 C310.854,474.775 310.666,475.221 310.291,475.596 C309.916,475.971 309.468,476.158 308.946,476.158 C308.425,476.158 307.977,475.971 307.602,475.596 C307.227,475.221 307.039,474.775 307.039,474.26 C307.039,473.756 307.227,473.311 307.602,472.924 C307.731,472.772 307.912,472.643 308.147,472.537 C308.088,472.385 307.971,472.268 307.795,472.186 C307.537,472.033 307.233,471.957 306.881,471.957 M307.742,479.147 C307.531,478.596 307.069,478.32 306.354,478.32 C305.639,478.32 305.196,478.596 305.027,479.147 C304.857,479.697 304.772,480.535 304.772,481.66 C304.772,482.984 304.857,483.875 305.027,484.332 C305.196,484.789 305.639,485.018 306.354,485.018 C307.069,485.018 307.531,484.742 307.742,484.192 C307.953,483.641 308.059,482.8 308.059,481.669 C308.059,480.538 307.953,479.697 307.742,479.147"/>
<path class="FiguredBass" d="M302.592,491.32 L303.436,491.443 C303.658,491.479 303.934,491.514 304.262,491.549 C305.07,491.643 305.85,491.69 306.6,491.69 C307.35,491.69 308.141,491.643 308.973,491.549 C309.301,491.514 309.588,491.479 309.834,491.443 L310.695,491.32 C310.871,491.32 311.006,491.379 311.1,491.496 C311.17,491.59 311.158,491.684 311.065,491.777 C309.237,493.57 306.711,494.467 303.488,494.467 C303.36,494.467 303.245,494.514 303.146,494.608 C303.046,494.701 302.996,494.818 302.996,494.959 L302.996,497.192 C303.828,496.371 304.836,495.961 306.02,495.961 C307.672,495.961 308.961,496.348 309.887,497.121 C310.895,496.359 311.422,495.387 311.469,494.203 C311.481,493.828 311.604,493.524 311.838,493.289 C312.096,493.055 312.406,492.938 312.77,492.938 C313.133,492.938 313.441,493.061 313.693,493.307 C313.945,493.553 314.07,493.852 314.07,494.203 C314.07,496.02 312.998,497.397 310.854,498.334 C311.205,499.025 311.381,499.869 311.381,500.865 C311.381,502.19 310.854,503.332 309.799,504.293 C308.744,505.254 307.485,505.734 306.02,505.734 C304.754,505.734 303.655,505.447 302.724,504.873 C301.792,504.299 301.326,503.502 301.326,502.483 C301.326,501.967 301.514,501.519 301.889,501.138 C302.264,500.757 302.712,500.567 303.234,500.567 C303.755,500.567 304.197,500.754 304.561,501.129 C304.924,501.504 305.106,501.955 305.106,502.483 C305.106,502.717 304.912,502.972 304.526,503.247 C304.139,503.523 303.945,503.777 303.945,504.012 C303.945,504.715 304.637,505.067 306.02,505.067 C307.367,505.067 308.041,503.666 308.041,500.865 C308.041,500.244 308.006,499.699 307.936,499.231 C306.518,499.524 304.742,499.752 302.61,499.916 C302.317,499.94 302.17,499.793 302.17,499.477 C302.17,499.219 302.317,499.078 302.61,499.055 C304.766,498.879 306.465,498.598 307.707,498.211 C307.379,497.274 306.817,496.799 306.02,496.787 C304.813,496.787 303.969,497.033 303.488,497.525 C303.008,498.018 302.709,498.264 302.592,498.264 C302.311,498.264 302.17,498.117 302.17,497.824 L302.17,491.777 C302.17,491.66 302.211,491.555 302.293,491.461 C302.387,491.367 302.487,491.32 302.592,491.32"/>
<path class="FiguredBass" d="M480.869,482.24 C480.74,482.381 480.57,482.451 480.359,482.451 C480.148,482.451 479.975,482.378 479.84,482.232 C479.705,482.085 479.638,481.918 479.638,481.731 L479.638,479.217 L477.124,479.217 C476.913,479.217 476.741,479.144 476.606,478.997 C476.471,478.851 476.404,478.684 476.404,478.496 C476.404,478.309 476.471,478.142 476.606,477.995 C476.741,477.849 476.913,477.775 477.124,477.775 L479.638,477.775 L479.638,475.262 C479.638,475.074 479.705,474.907 479.84,474.761 C479.975,474.614 480.148,474.541 480.359,474.541 C480.57,474.541 480.743,474.614 480.877,474.761 C481.012,474.907 481.079,475.074 481.079,475.262 L481.079,477.775 L483.593,477.775 C483.804,477.775 483.977,477.849 484.112,477.995 C484.246,478.142 484.314,478.309 484.314,478.496 C484.314,478.684 484.246,478.851 484.112,478.997 C483.977,479.144 483.804,479.217 483.593,479.217 L481.079,479.217 L481.079,481.731 C481.079,481.918 481.009,482.088 480.869,482.24 M490.99,471.957 C490.122,471.957 489.545,472.306 489.258,473.003 C488.971,473.7 488.827,474.688 488.827,475.965 L488.827,478.039 C489.437,477.793 489.964,477.664 490.41,477.652 C491.933,477.652 493.131,477.989 494.004,478.663 C494.877,479.337 495.314,480.339 495.314,481.669 C495.314,482.999 494.871,484.004 493.987,484.684 C493.102,485.363 491.91,485.703 490.41,485.703 C488.874,485.703 487.673,484.991 486.806,483.567 C485.939,482.144 485.505,480.453 485.505,478.496 C485.505,476.551 486.009,474.863 487.017,473.434 C488.025,472.004 489.349,471.289 490.99,471.289 C492.068,471.289 492.999,471.562 493.785,472.107 C494.57,472.651 494.962,473.369 494.962,474.26 C494.962,474.775 494.775,475.221 494.4,475.596 C494.025,475.971 493.577,476.158 493.055,476.158 C492.534,476.158 492.085,475.971 491.71,475.596 C491.335,475.221 491.148,474.775 491.148,474.26 C491.148,473.756 491.335,473.311 491.71,472.924 C491.839,472.772 492.021,472.643 492.255,472.537 C492.197,472.385 492.079,472.268 491.904,472.186 C491.646,472.033 491.341,471.957 490.99,471.957 M491.851,479.147 C491.64,478.596 491.177,478.32 490.462,478.32 C489.747,478.32 489.305,478.596 489.135,479.147 C488.965,479.697 488.88,480.535 488.88,481.66 C488.88,482.984 488.965,483.875 489.135,484.332 C489.305,484.789 489.747,485.018 490.462,485.018 C491.177,485.018 491.64,484.742 491.851,484.192 C492.062,483.641 492.167,482.8 492.167,481.669 C492.167,480.538 492.062,479.697 491.851,479.147"/>
<path class="FiguredBass" d="M664.977,482.24 C664.848,482.381 664.678,482.451 664.467,482.451 C664.256,482.451 664.084,482.378 663.949,482.232 C663.814,482.085 663.747,481.918 663.747,481.731 L663.747,479.217 L661.233,479.217 C661.022,479.217 660.849,479.144 660.714,478.997 C660.58,478.851 660.512,478.684 660.512,478.496 C660.512,478.309 660.58,478.142 660.714,477.995 C660.849,477.849 661.022,477.775 661.233,477.775 L663.747,477.775 L663.747,475.262 C663.747,475.074 663.814,474.907 663.949,474.761 C664.084,474.614 664.256,474.541 664.467,474.541 C664.678,474.541 664.851,474.614 664.986,474.761 C665.121,474.907 665.188,475.074 665.188,475.262 L665.188,477.775 L667.702,477.775 C667.913,477.775 668.085,477.849 668.22,477.995 C668.355,478.142 668.422,478.309 668.422,478.496 C668.422,478.684 668.355,478.851 668.22,478.997 C668.085,479.144 667.913,479.217 667.702,479.217 L665.188,479.217 L665.188,481.731 C665.188,481.918 665.118,482.088 664.977,482.24 M674.975,471.658 C675.42,471.658 675.889,471.594 676.381,471.465 L677.172,471.254 C677.325,471.254 677.445,471.313 677.533,471.43 C677.621,471.547 677.612,471.652 677.506,471.746 L669.333,481.256 L674.131,481.256 L674.131,477.494 C674.131,477.225 674.205,477.017 674.351,476.87 C674.498,476.724 674.685,476.607 674.914,476.519 C675.142,476.431 675.441,476.17 675.81,475.736 C676.179,475.303 676.534,474.717 676.874,473.979 C676.932,473.861 677.02,473.803 677.137,473.803 C677.383,473.803 677.506,473.938 677.506,474.207 L677.506,481.256 L679.581,481.256 C679.874,481.256 680.02,481.391 680.02,481.66 C680.02,481.953 679.874,482.1 679.581,482.1 L677.506,482.1 L677.506,482.328 C677.506,483.055 677.7,483.688 678.086,484.227 C678.473,484.766 678.971,485.035 679.581,485.035 C679.815,485.035 679.932,485.141 679.932,485.352 C679.932,485.586 679.815,485.703 679.581,485.703 C679.159,485.703 678.532,485.642 677.7,485.519 C676.868,485.396 676.238,485.334 675.81,485.334 C675.382,485.334 674.752,485.396 673.92,485.519 C673.088,485.642 672.461,485.703 672.04,485.703 C671.805,485.703 671.688,485.586 671.688,485.352 C671.688,485.141 671.805,485.035 672.04,485.035 C672.649,485.035 673.15,484.766 673.542,484.227 C673.935,483.688 674.131,483.055 674.131,482.328 L674.131,482.1 L669.333,482.1 C669.028,482.1 668.802,482.026 668.656,481.88 C668.509,481.733 668.436,481.584 668.436,481.432 C668.436,481.373 668.574,481.171 668.849,480.825 C669.125,480.48 669.461,480.02 669.86,479.445 C670.258,478.871 670.654,478.218 671.046,477.485 C671.439,476.753 671.773,475.874 672.048,474.849 C672.324,473.823 672.461,472.789 672.461,471.746 C672.461,471.442 672.59,471.289 672.848,471.289 C672.883,471.289 673.006,471.318 673.217,471.377 C673.428,471.436 673.698,471.497 674.026,471.562 C674.354,471.626 674.67,471.658 674.975,471.658"/>
<path class="FiguredBass" d="M116.216,338.172 C116.252,338.172 116.328,338.096 116.445,337.943 C116.949,337.228 117.652,336.871 118.554,336.871 C119.281,336.871 119.966,337.141 120.611,337.68 C121.255,338.219 121.789,338.488 122.211,338.488 C122.668,338.488 123.101,338.353 123.511,338.084 C123.921,337.814 124.247,337.545 124.487,337.275 C124.727,337.006 124.882,336.871 124.953,336.871 C125.07,336.871 125.175,336.909 125.269,336.985 C125.363,337.061 125.41,337.158 125.41,337.275 C125.41,337.357 125.17,337.762 124.689,338.488 C124.209,339.215 123.675,340.056 123.089,341.011 C122.504,341.966 121.97,343.158 121.49,344.588 C121.009,346.017 120.769,347.383 120.769,348.684 C120.769,349.187 120.822,349.767 120.927,350.424 C121.009,350.928 121.009,351.215 120.927,351.285 C120.869,351.344 120.769,351.373 120.629,351.373 C120.57,351.373 120.297,351.297 119.811,351.144 C119.325,350.992 118.859,350.916 118.414,350.916 C118.015,350.916 117.555,350.992 117.034,351.144 C116.512,351.297 116.222,351.373 116.164,351.373 C116.035,351.373 115.929,351.32 115.847,351.215 C115.765,351.109 115.754,350.998 115.812,350.881 C116.504,349.228 117.344,347.62 118.335,346.056 C119.325,344.491 120.564,342.689 122.052,340.65 C121.49,340.955 120.921,341.107 120.347,341.107 C119.738,341.107 119.123,340.835 118.502,340.29 C117.88,339.745 117.371,339.473 116.972,339.473 C116.679,339.473 116.424,339.64 116.208,339.974 C115.991,340.308 115.882,340.809 115.882,341.476 L115.882,343.639 C115.882,343.932 115.748,344.078 115.478,344.078 C115.185,344.078 115.039,343.932 115.039,343.639 L115.039,337.31 C115.039,337.017 115.185,336.871 115.478,336.871 C115.748,336.871 115.882,337.017 115.882,337.31 L115.882,337.715 C115.882,337.809 115.906,337.891 115.953,337.961 C116.093,338.101 116.181,338.172 116.216,338.172"/>
<path class="FiguredBass" d="M116.304,356.902 C116.304,356.902 116.586,356.943 117.148,357.025 C117.394,357.06 117.67,357.096 117.974,357.131 C118.783,357.225 119.562,357.271 120.312,357.271 C121.062,357.271 121.853,357.225 122.685,357.131 C123.013,357.096 123.3,357.06 123.546,357.025 L124.408,356.902 C124.584,356.902 124.715,356.961 124.803,357.078 C124.891,357.195 124.882,357.289 124.777,357.359 C122.984,359.152 120.459,360.049 117.201,360.049 C117.072,360.049 116.958,360.096 116.858,360.189 C116.758,360.283 116.709,360.4 116.709,360.541 L116.709,363.301 C117.541,362.48 118.548,362.07 119.732,362.07 C121.443,362.07 122.764,362.454 123.696,363.222 C124.628,363.989 125.093,365.152 125.093,366.711 C125.093,368.035 124.566,369.134 123.511,370.007 C122.457,370.88 121.197,371.316 119.732,371.316 C118.466,371.316 117.368,371.029 116.436,370.455 C115.504,369.881 115.039,369.084 115.039,368.064 C115.039,367.549 115.226,367.1 115.601,366.72 C115.976,366.339 116.424,366.148 116.946,366.148 C117.467,366.148 117.91,366.336 118.273,366.711 C118.636,367.086 118.818,367.537 118.818,368.064 C118.818,368.299 118.625,368.554 118.238,368.829 C117.851,369.104 117.658,369.359 117.658,369.594 C117.658,370.297 118.349,370.648 119.732,370.648 C121.08,370.648 121.754,369.336 121.754,366.711 C121.754,364.18 121.08,362.908 119.732,362.896 C118.525,362.896 117.681,363.142 117.201,363.635 C116.72,364.127 116.421,364.373 116.304,364.373 C116.011,364.373 115.871,364.226 115.882,363.934 L115.882,357.359 C115.882,357.23 115.923,357.122 116.005,357.034 C116.087,356.946 116.187,356.902 116.304,356.902"/>
<path class="FiguredBass" d="M120.574,387.885 C120.445,388.025 120.275,388.096 120.064,388.096 C119.853,388.096 119.68,388.022 119.545,387.876 C119.411,387.729 119.343,387.562 119.343,387.375 L119.343,384.861 L116.83,384.861 C116.619,384.861 116.446,384.788 116.311,384.642 C116.176,384.495 116.109,384.328 116.109,384.141 C116.109,383.953 116.176,383.786 116.311,383.64 C116.446,383.493 116.619,383.42 116.83,383.42 L119.343,383.42 L119.343,380.906 C119.343,380.719 119.411,380.552 119.545,380.405 C119.68,380.259 119.853,380.185 120.064,380.185 C120.275,380.185 120.448,380.259 120.583,380.405 C120.717,380.552 120.785,380.719 120.785,380.906 L120.785,383.42 L123.298,383.42 C123.509,383.42 123.682,383.493 123.817,383.64 C123.952,383.786 124.019,383.953 124.019,384.141 C124.019,384.328 123.952,384.495 123.817,384.642 C123.682,384.788 123.509,384.861 123.298,384.861 L120.785,384.861 L120.785,387.375 C120.785,387.562 120.714,387.732 120.574,387.885"/>
<path class="FiguredBass" d="M302.592,336.871 L303.436,336.994 C303.658,337.029 303.934,337.064 304.262,337.1 C305.07,337.193 305.85,337.24 306.6,337.24 C307.35,337.24 308.141,337.193 308.973,337.1 C309.301,337.064 309.588,337.029 309.834,336.994 L310.695,336.871 C310.871,336.871 311.006,336.93 311.1,337.047 C311.17,337.141 311.158,337.234 311.065,337.328 C309.237,339.121 306.711,340.017 303.488,340.017 C303.36,340.017 303.245,340.064 303.146,340.158 C303.046,340.252 302.996,340.369 302.996,340.51 L302.996,342.742 C303.828,341.922 304.836,341.512 306.02,341.512 C307.672,341.512 308.961,341.898 309.887,342.672 C310.895,341.91 311.422,340.937 311.469,339.754 C311.481,339.379 311.604,339.074 311.838,338.84 C312.096,338.605 312.406,338.488 312.77,338.488 C313.133,338.488 313.441,338.611 313.693,338.857 C313.945,339.103 314.07,339.402 314.07,339.754 C314.07,341.57 312.998,342.947 310.854,343.885 C311.205,344.576 311.381,345.42 311.381,346.416 C311.381,347.74 310.854,348.883 309.799,349.844 C308.744,350.805 307.485,351.285 306.02,351.285 C304.754,351.285 303.655,350.998 302.724,350.424 C301.792,349.85 301.326,349.053 301.326,348.033 C301.326,347.517 301.514,347.069 301.889,346.688 C302.264,346.308 302.712,346.117 303.234,346.117 C303.755,346.117 304.197,346.305 304.561,346.68 C304.924,347.055 305.106,347.506 305.106,348.033 C305.106,348.267 304.912,348.522 304.526,348.798 C304.139,349.073 303.945,349.328 303.945,349.562 C303.945,350.266 304.637,350.617 306.02,350.617 C307.367,350.617 308.041,349.217 308.041,346.416 C308.041,345.795 308.006,345.25 307.936,344.781 C306.518,345.074 304.742,345.303 302.61,345.467 C302.317,345.49 302.17,345.344 302.17,345.027 C302.17,344.769 302.317,344.629 302.61,344.605 C304.766,344.43 306.465,344.148 307.707,343.762 C307.379,342.824 306.817,342.35 306.02,342.338 C304.813,342.338 303.969,342.584 303.488,343.076 C303.008,343.568 302.709,343.814 302.592,343.814 C302.311,343.814 302.17,343.668 302.17,343.375 L302.17,337.328 C302.17,337.211 302.211,337.105 302.293,337.012 C302.387,336.918 302.487,336.871 302.592,336.871"/>
<path class="FiguredBass" d="M309.131,363.67 C309.131,363.857 309.237,364.039 309.447,364.215 C309.658,364.391 309.89,364.558 310.142,364.716 C310.394,364.874 310.625,365.173 310.836,365.612 C311.047,366.052 311.153,366.605 311.153,367.273 C311.153,368.562 310.666,369.559 309.694,370.262 C308.721,370.965 307.49,371.316 306.002,371.316 C304.807,371.316 303.767,371.017 302.882,370.42 C301.997,369.822 301.555,369.037 301.555,368.064 C301.555,367.549 301.742,367.1 302.117,366.72 C302.492,366.339 302.941,366.148 303.462,366.148 C303.984,366.148 304.426,366.336 304.789,366.711 C305.153,367.086 305.334,367.537 305.334,368.064 C305.334,368.299 305.141,368.554 304.754,368.829 C304.367,369.104 304.174,369.359 304.174,369.594 C304.174,369.957 304.353,370.224 304.71,370.393 C305.068,370.563 305.498,370.648 306.002,370.648 C306.658,370.648 307.124,370.323 307.4,369.673 C307.675,369.022 307.813,368.223 307.813,367.273 L307.813,366.816 C307.813,366.184 307.792,365.703 307.751,365.375 C307.71,365.047 307.581,364.754 307.364,364.496 C307.148,364.238 306.817,364.109 306.371,364.109 L304.069,364.109 C303.799,364.109 303.664,363.963 303.664,363.67 C303.664,363.4 303.799,363.266 304.069,363.266 L306.371,363.266 C306.852,363.266 307.227,363.084 307.496,362.721 C307.59,362.592 307.666,362.381 307.725,362.088 C307.783,361.701 307.813,361.144 307.813,360.418 L307.813,360.189 C307.813,358.443 307.168,357.57 305.879,357.57 C304.742,357.57 304.174,357.887 304.174,358.519 C304.174,358.73 304.347,358.956 304.693,359.196 C305.038,359.436 305.211,359.662 305.211,359.873 C305.211,360.33 305.05,360.723 304.728,361.051 C304.405,361.379 304.013,361.543 303.55,361.543 C303.087,361.543 302.697,361.379 302.381,361.051 C302.065,360.723 301.906,360.33 301.906,359.873 C301.906,358.971 302.299,358.25 303.084,357.711 C303.869,357.172 304.801,356.902 305.879,356.902 C307.297,356.902 308.463,357.175 309.377,357.72 C310.291,358.265 310.748,359.088 310.748,360.189 C310.748,360.975 310.666,361.584 310.502,362.017 C310.338,362.451 310.151,362.715 309.94,362.809 C309.729,362.902 309.541,363.011 309.377,363.134 C309.213,363.257 309.131,363.435 309.131,363.67"/>
<path class="FiguredBass" d="M306.881,377.601 C306.014,377.601 305.437,377.95 305.15,378.647 C304.862,379.345 304.719,380.332 304.719,381.609 L304.719,383.684 C305.328,383.437 305.856,383.309 306.301,383.297 C307.824,383.297 309.023,383.634 309.896,384.308 C310.769,384.981 311.205,385.983 311.205,387.313 C311.205,388.643 310.763,389.648 309.878,390.328 C308.993,391.008 307.801,391.348 306.301,391.348 C304.766,391.348 303.565,390.636 302.697,389.212 C301.83,387.788 301.397,386.098 301.397,384.141 C301.397,382.195 301.901,380.508 302.908,379.078 C303.916,377.648 305.24,376.934 306.881,376.934 C307.959,376.934 308.891,377.206 309.676,377.751 C310.461,378.296 310.854,379.014 310.854,379.904 C310.854,380.42 310.666,380.865 310.291,381.24 C309.916,381.615 309.468,381.803 308.946,381.803 C308.425,381.803 307.977,381.615 307.602,381.24 C307.227,380.865 307.039,380.42 307.039,379.904 C307.039,379.4 307.227,378.955 307.602,378.568 C307.731,378.416 307.912,378.287 308.147,378.182 C308.088,378.029 307.971,377.912 307.795,377.83 C307.537,377.678 307.233,377.601 306.881,377.601 M307.742,384.791 C307.531,384.24 307.069,383.965 306.354,383.965 C305.639,383.965 305.196,384.24 305.027,384.791 C304.857,385.342 304.772,386.18 304.772,387.305 C304.772,388.629 304.857,389.519 305.027,389.976 C305.196,390.434 305.639,390.662 306.354,390.662 C307.069,390.662 307.531,390.387 307.742,389.836 C307.953,389.285 308.059,388.444 308.059,387.313 C308.059,386.183 307.953,385.342 307.742,384.791"/>
<path class="FiguredBass" d="M493.24,343.639 C493.24,343.826 493.345,344.008 493.556,344.184 C493.767,344.359 493.998,344.526 494.25,344.684 C494.502,344.843 494.734,345.142 494.945,345.581 C495.156,346.02 495.261,346.574 495.261,347.242 C495.261,348.531 494.775,349.527 493.802,350.23 C492.829,350.934 491.599,351.285 490.111,351.285 C488.915,351.285 487.875,350.986 486.991,350.389 C486.106,349.791 485.663,349.006 485.663,348.033 C485.663,347.517 485.851,347.069 486.226,346.688 C486.601,346.308 487.049,346.117 487.571,346.117 C488.092,346.117 488.535,346.305 488.898,346.68 C489.261,347.055 489.443,347.506 489.443,348.033 C489.443,348.267 489.249,348.522 488.863,348.798 C488.476,349.073 488.283,349.328 488.283,349.562 C488.283,349.926 488.461,350.192 488.819,350.362 C489.176,350.532 489.607,350.617 490.111,350.617 C490.767,350.617 491.233,350.292 491.508,349.642 C491.784,348.991 491.921,348.191 491.921,347.242 L491.921,346.785 C491.921,346.152 491.901,345.672 491.86,345.344 C491.819,345.016 491.69,344.723 491.473,344.465 C491.256,344.207 490.925,344.078 490.48,344.078 L488.177,344.078 C487.908,344.078 487.773,343.932 487.773,343.639 C487.773,343.369 487.908,343.234 488.177,343.234 L490.48,343.234 C490.96,343.234 491.335,343.053 491.605,342.689 C491.699,342.56 491.775,342.35 491.833,342.057 C491.892,341.67 491.921,341.113 491.921,340.387 L491.921,340.158 C491.921,338.412 491.277,337.539 489.988,337.539 C488.851,337.539 488.283,337.855 488.283,338.488 C488.283,338.699 488.455,338.925 488.801,339.165 C489.147,339.405 489.32,339.631 489.32,339.842 C489.32,340.299 489.159,340.691 488.836,341.019 C488.514,341.348 488.121,341.512 487.659,341.512 C487.196,341.512 486.806,341.348 486.49,341.019 C486.173,340.691 486.015,340.299 486.015,339.842 C486.015,338.939 486.408,338.219 487.193,337.68 C487.978,337.141 488.91,336.871 489.988,336.871 C491.406,336.871 492.572,337.143 493.486,337.688 C494.4,338.233 494.857,339.057 494.857,340.158 C494.857,340.943 494.775,341.553 494.611,341.986 C494.447,342.42 494.259,342.684 494.048,342.777 C493.837,342.871 493.65,342.979 493.486,343.102 C493.322,343.225 493.24,343.404 493.24,343.639"/>
<path class="FiguredBass" d="M480.869,367.853 C480.74,367.994 480.57,368.064 480.359,368.064 C480.148,368.064 479.975,367.991 479.84,367.845 C479.705,367.698 479.638,367.531 479.638,367.344 L479.638,364.83 L477.124,364.83 C476.913,364.83 476.741,364.757 476.606,364.61 C476.471,364.464 476.404,364.297 476.404,364.109 C476.404,363.922 476.471,363.755 476.606,363.608 C476.741,363.462 476.913,363.389 477.124,363.389 L479.638,363.389 L479.638,360.875 C479.638,360.687 479.705,360.52 479.84,360.374 C479.975,360.227 480.148,360.154 480.359,360.154 C480.57,360.154 480.743,360.227 480.877,360.374 C481.012,360.52 481.079,360.687 481.079,360.875 L481.079,363.389 L483.593,363.389 C483.804,363.389 483.977,363.462 484.112,363.608 C484.246,363.755 484.314,363.922 484.314,364.109 C484.314,364.297 484.246,364.464 484.112,364.61 C483.977,364.757 483.804,364.83 483.593,364.83 L481.079,364.83 L481.079,367.344 C481.079,367.531 481.009,367.701 480.869,367.853 M490.99,357.57 C490.122,357.57 489.545,357.919 489.258,358.616 C488.971,359.313 488.827,360.301 488.827,361.578 L488.827,363.652 C489.437,363.406 489.964,363.277 490.41,363.266 C491.933,363.266 493.131,363.602 494.004,364.276 C494.877,364.95 495.314,365.952 495.314,367.282 C495.314,368.612 494.871,369.617 493.987,370.297 C493.102,370.976 491.91,371.316 490.41,371.316 C488.874,371.316 487.673,370.604 486.806,369.181 C485.939,367.757 485.505,366.066 485.505,364.109 C485.505,362.164 486.009,360.476 487.017,359.047 C488.025,357.617 489.349,356.902 490.99,356.902 C492.068,356.902 492.999,357.175 493.785,357.72 C494.57,358.265 494.962,358.982 494.962,359.873 C494.962,360.389 494.775,360.834 494.4,361.209 C494.025,361.584 493.577,361.771 493.055,361.771 C492.534,361.771 492.085,361.584 491.71,361.209 C491.335,360.834 491.148,360.389 491.148,359.873 C491.148,359.369 491.335,358.924 491.71,358.537 C491.839,358.385 492.021,358.256 492.255,358.15 C492.197,357.998 492.079,357.881 491.904,357.799 C491.646,357.646 491.341,357.57 490.99,357.57 M491.851,364.76 C491.64,364.209 491.177,363.934 490.462,363.934 C489.747,363.934 489.305,364.209 489.135,364.76 C488.965,365.31 488.88,366.148 488.88,367.273 C488.88,368.598 488.965,369.488 489.135,369.945 C489.305,370.402 489.747,370.631 490.462,370.631 C491.177,370.631 491.64,370.355 491.851,369.805 C492.062,369.254 492.167,368.413 492.167,367.282 C492.167,366.151 492.062,365.31 491.851,364.76"/>
<path class="FiguredBass" d="M490.867,377.303 C491.312,377.303 491.781,377.238 492.273,377.109 L493.064,376.898 C493.216,376.898 493.336,376.957 493.424,377.074 C493.512,377.191 493.503,377.297 493.398,377.391 L485.224,386.9 L490.023,386.9 L490.023,383.139 C490.023,382.869 490.096,382.661 490.243,382.515 C490.389,382.368 490.577,382.251 490.805,382.163 C491.034,382.075 491.332,381.814 491.702,381.381 C492.071,380.947 492.425,380.361 492.765,379.623 C492.824,379.506 492.911,379.447 493.029,379.447 C493.275,379.447 493.398,379.582 493.398,379.851 L493.398,386.9 L495.472,386.9 C495.765,386.9 495.911,387.035 495.911,387.305 C495.911,387.598 495.765,387.744 495.472,387.744 L493.398,387.744 L493.398,387.973 C493.398,388.699 493.591,389.332 493.978,389.871 C494.365,390.41 494.863,390.68 495.472,390.68 C495.706,390.68 495.824,390.785 495.824,390.996 C495.824,391.23 495.706,391.348 495.472,391.348 C495.05,391.348 494.423,391.286 493.591,391.163 C492.759,391.04 492.129,390.978 491.702,390.978 C491.274,390.978 490.644,391.04 489.812,391.163 C488.98,391.286 488.353,391.348 487.931,391.348 C487.697,391.348 487.579,391.23 487.579,390.996 C487.579,390.785 487.697,390.68 487.931,390.68 C488.54,390.68 489.041,390.41 489.434,389.871 C489.827,389.332 490.023,388.699 490.023,387.973 L490.023,387.744 L485.224,387.744 C484.919,387.744 484.694,387.671 484.547,387.524 C484.401,387.378 484.327,387.228 484.327,387.076 C484.327,387.017 484.465,386.815 484.741,386.47 C485.016,386.124 485.353,385.664 485.751,385.09 C486.15,384.516 486.545,383.862 486.938,383.13 C487.33,382.397 487.664,381.518 487.94,380.493 C488.215,379.468 488.353,378.434 488.353,377.391 C488.353,377.086 488.482,376.934 488.74,376.934 C488.775,376.934 488.898,376.963 489.109,377.021 C489.32,377.08 489.589,377.142 489.917,377.206 C490.245,377.27 490.562,377.303 490.867,377.303"/>
<path class="FiguredBass" d="M675.098,337.539 C674.231,337.539 673.654,337.888 673.367,338.585 C673.08,339.282 672.936,340.269 672.936,341.547 L672.936,343.621 C673.545,343.375 674.073,343.246 674.518,343.234 C676.042,343.234 677.24,343.571 678.113,344.245 C678.986,344.919 679.422,345.921 679.422,347.251 C679.422,348.581 678.98,349.586 678.095,350.266 C677.21,350.945 676.018,351.285 674.518,351.285 C672.983,351.285 671.782,350.573 670.915,349.149 C670.047,347.725 669.614,346.035 669.614,344.078 C669.614,342.133 670.118,340.445 671.126,339.016 C672.133,337.586 673.458,336.871 675.098,336.871 C676.176,336.871 677.108,337.143 677.893,337.688 C678.678,338.233 679.071,338.951 679.071,339.842 C679.071,340.357 678.883,340.803 678.508,341.178 C678.133,341.553 677.685,341.74 677.164,341.74 C676.642,341.74 676.194,341.553 675.819,341.178 C675.444,340.803 675.256,340.357 675.256,339.842 C675.256,339.338 675.444,338.892 675.819,338.506 C675.948,338.353 676.129,338.225 676.364,338.119 C676.305,337.967 676.188,337.85 676.012,337.767 C675.754,337.615 675.45,337.539 675.098,337.539 M675.959,344.728 C675.749,344.178 675.286,343.902 674.571,343.902 C673.856,343.902 673.414,344.178 673.244,344.728 C673.074,345.279 672.989,346.117 672.989,347.242 C672.989,348.566 673.074,349.457 673.244,349.914 C673.414,350.371 673.856,350.6 674.571,350.6 C675.286,350.6 675.749,350.324 675.959,349.773 C676.17,349.223 676.276,348.382 676.276,347.251 C676.276,346.12 676.17,345.279 675.959,344.728"/>
<path class="FiguredBass" d="M664.977,367.853 C664.848,367.994 664.678,368.064 664.467,368.064 C664.256,368.064 664.084,367.991 663.949,367.845 C663.814,367.698 663.747,367.531 663.747,367.344 L663.747,364.83 L661.233,364.83 C661.022,364.83 660.849,364.757 660.714,364.61 C660.58,364.464 660.512,364.297 660.512,364.109 C660.512,363.922 660.58,363.755 660.714,363.608 C660.849,363.462 661.022,363.389 661.233,363.389 L663.747,363.389 L663.747,360.875 C663.747,360.687 663.814,360.52 663.949,360.374 C664.084,360.227 664.256,360.154 664.467,360.154 C664.678,360.154 664.851,360.227 664.986,360.374 C665.121,360.52 665.188,360.687 665.188,360.875 L665.188,363.389 L667.702,363.389 C667.913,363.389 668.085,363.462 668.22,363.608 C668.355,363.755 668.422,363.922 668.422,364.109 C668.422,364.297 668.355,364.464 668.22,364.61 C668.085,364.757 667.913,364.83 667.702,364.83 L665.188,364.83 L665.188,367.344 C665.188,367.531 665.118,367.701 664.977,367.853 M674.975,357.271 C675.42,357.271 675.889,357.207 676.381,357.078 L677.172,356.867 C677.325,356.867 677.445,356.926 677.533,357.043 C677.621,357.16 677.612,357.266 677.506,357.359 L669.333,366.869 L674.131,366.869 L674.131,363.107 C674.131,362.838 674.205,362.63 674.351,362.483 C674.498,362.337 674.685,362.22 674.914,362.132 C675.142,362.044 675.441,361.783 675.81,361.35 C676.179,360.916 676.534,360.33 676.874,359.592 C676.932,359.475 677.02,359.416 677.137,359.416 C677.383,359.416 677.506,359.551 677.506,359.82 L677.506,366.869 L679.581,366.869 C679.874,366.869 680.02,367.004 680.02,367.273 C680.02,367.566 679.874,367.713 679.581,367.713 L677.506,367.713 L677.506,367.941 C677.506,368.668 677.7,369.301 678.086,369.84 C678.473,370.379 678.971,370.648 679.581,370.648 C679.815,370.648 679.932,370.754 679.932,370.965 C679.932,371.199 679.815,371.316 679.581,371.316 C679.159,371.316 678.532,371.255 677.7,371.132 C676.868,371.009 676.238,370.947 675.81,370.947 C675.382,370.947 674.752,371.009 673.92,371.132 C673.088,371.255 672.461,371.316 672.04,371.316 C671.805,371.316 671.688,371.199 671.688,370.965 C671.688,370.754 671.805,370.648 672.04,370.648 C672.649,370.648 673.15,370.379 673.542,369.84 C673.935,369.301 674.131,368.668 674.131,367.941 L674.131,367.713 L669.333,367.713 C669.028,367.713 668.802,367.64 668.656,367.493 C668.509,367.347 668.436,367.197 668.436,367.045 C668.436,366.986 668.574,366.784 668.849,366.438 C669.125,366.093 669.461,365.633 669.86,365.059 C670.258,364.484 670.654,363.831 671.046,363.099 C671.439,362.366 671.773,361.487 672.048,360.462 C672.324,359.436 672.461,358.402 672.461,357.359 C672.461,357.055 672.59,356.902 672.848,356.902 C672.883,356.902 673.006,356.932 673.217,356.99 C673.428,357.049 673.698,357.11 674.026,357.175 C674.354,357.239 674.67,357.271 674.975,357.271"/>
<path class="FiguredBass" d="M675.889,391.348 C674.752,391.348 673.926,391.031 673.411,390.398 C673.223,390.164 672.983,389.947 672.69,389.748 C672.397,389.549 672.075,389.449 671.723,389.449 C671.266,389.449 670.856,389.593 670.493,389.88 C670.129,390.167 669.948,390.551 669.948,391.031 C669.948,391.242 669.842,391.348 669.631,391.348 C669.397,391.348 669.28,391.242 669.28,391.031 C669.28,390.316 669.447,389.663 669.781,389.071 C670.115,388.479 670.534,387.981 671.038,387.577 C671.542,387.173 672.086,386.739 672.672,386.276 C673.258,385.813 673.8,385.365 674.298,384.932 C674.796,384.498 675.212,383.95 675.546,383.288 C675.88,382.626 676.047,381.902 676.047,381.117 C676.047,380.133 675.886,379.301 675.564,378.621 C675.242,377.941 674.735,377.601 674.043,377.601 C673.645,377.601 673.299,377.698 673.006,377.892 C672.713,378.085 672.567,378.34 672.567,378.656 C672.567,378.902 672.734,379.225 673.068,379.623 C673.402,380.021 673.569,380.355 673.569,380.625 C673.569,381.187 673.378,381.659 672.998,382.04 C672.617,382.421 672.157,382.611 671.618,382.611 C671.055,382.611 670.584,382.415 670.203,382.022 C669.822,381.63 669.631,381.164 669.631,380.625 C669.631,379.547 670.062,378.662 670.923,377.971 C671.785,377.279 672.825,376.934 674.043,376.934 C675.485,376.934 676.742,377.323 677.814,378.102 C678.886,378.882 679.422,379.887 679.422,381.117 C679.422,381.949 679.273,382.67 678.974,383.279 C678.675,383.889 678.248,384.381 677.691,384.756 C677.134,385.131 676.578,385.45 676.021,385.714 C675.464,385.977 674.811,386.262 674.061,386.566 C673.311,386.871 672.708,387.17 672.251,387.463 C672.497,387.404 672.749,387.375 673.006,387.375 C673.874,387.375 674.776,387.656 675.713,388.219 C676.651,388.781 677.389,389.062 677.928,389.062 C678.233,389.062 678.482,389.007 678.675,388.895 C678.869,388.784 678.995,388.661 679.053,388.526 C679.112,388.392 679.179,388.266 679.255,388.148 C679.332,388.031 679.417,387.973 679.51,387.973 C679.745,387.973 679.862,388.09 679.862,388.324 C679.862,388.828 679.499,389.458 678.772,390.214 C678.045,390.97 677.084,391.348 675.889,391.348"/>
<polyline class="FretDiagram" stroke="#fc02ff" stroke-width="0.91" stroke-linejoin="bevel" points="100.856,44.674 141.448,44.674"/>
<polyline class="FretDiagram" stroke="#fc02ff" stroke-width="0.91" stroke-linejoin="bevel" points="101.309,42.4063 101.309,85.4929"/>
<polyline class="FretDiagram" stroke="#fc02ff" stroke-width="0.91" stroke-linejoin="bevel" points="109.246,42.4063 109.246,85.4929"/>
<polyline class="FretDiagram" stroke="#fc02ff" stroke-width="0.91" stroke-linejoin="bevel" points="117.183,42.4063 117.183,85.4929"/>
<polyline class="FretDiagram" stroke="#fc02ff" stroke-width="0.91" stroke-linejoin="bevel" points="125.12,42.4063 125.12,85.4929"/>
<polyline class="FretDiagram" stroke="#fc02ff" stroke-width="0.91" stroke-linejoin="bevel" points="133.057,42.4063 133.057,85.4929"/>
<polyline class="FretDiagram" stroke="#fc02ff" stroke-width="0.91" stroke-linejoin="bevel" points="140.994,42.4063 140.994,85.4929"/>
<polyline class="FretDiagram" stroke="#fc02ff" stroke-width="0.91" stroke-linejoin="bevel" points="101.309,53.7449 140.994,53.7449"/>
<polyline class="FretDiagram" stroke="#fc02ff" stroke-width="0.91" stroke-linejoin="bevel" points="101.309,62.8157 140.994,62.8157"/>
<polyline class="FretDiagram" stroke="#fc02ff" stroke-width="0.91" stroke-linejoin="bevel" points="101.309,71.8866 140.994,71.8866"/>
<polyline class="FretDiagram" stroke="#fc02ff" stroke-width="0.91" stroke-linejoin="bevel" points="101.309,80.9575 140.994,80.9575"/>
<path class="FretDiagram" fill="#fc02ff" fill-rule="evenodd" d="M119.961,67.3512 C119.961,68.8854 118.717,70.1291 117.183,70.1291 C115.649,70.1291 114.405,68.8854 114.405,67.3512 C114.405,65.817 115.649,64.5732 117.183,64.5732 C118.717,64.5732 119.961,65.817 119.961,67.3512"/>
<path class="FretDiagram" fill="#fc02ff" fill-rule="evenodd" d="M127.898,58.2803 C127.898,59.8145 126.654,61.0583 125.12,61.0583 C123.586,61.0583 122.342,59.8145 122.342,58.2803 C122.342,56.7461 123.586,55.5024 125.12,55.5024 C126.654,55.5024 127.898,56.7461 127.898,58.2803"/>
<path class="FretDiagram" fill="#fc02ff" fill-rule="evenodd" d="M135.835,67.3512 C135.835,68.8854 134.591,70.1291 133.057,70.1291 C131.523,70.1291 130.279,68.8854 130.279,67.3512 C130.279,65.817 131.523,64.5732 133.057,64.5732 C134.591,64.5732 135.835,65.817 135.835,67.3512"/>
<polyline class="FretDiagram" fill="none" stroke="#fc02ff" stroke-width="1.31" stroke-linecap="round" stroke-linejoin="bevel" points="98.1343,32.4283 104.484,38.778"/>
<polyline class="FretDiagram" fill="none" stroke="#fc02ff" stroke-width="1.31" stroke-linecap="round" stroke-linejoin="bevel" points="98.1343,38.778 104.484,32.4283"/>
<path class="FretDiagram" fill="none" stroke="#fc02ff" stroke-width="1.31" stroke-linecap="round" stroke-linejoin="bevel" fill-rule="evenodd" d="M112.421,35.6031 C112.421,37.3565 111,38.778 109.246,38.778 C107.493,38.778 106.071,37.3565 106.071,35.6031 C106.071,33.8498 107.493,32.4283 109.246,32.4283 C111,32.4283 112.421,33.8498 112.421,35.6031"/>
<path class="FretDiagram" fill="none" stroke="#fc02ff" stroke-width="1.31" stroke-linecap="round" stroke-linejoin="bevel" fill-rule="evenodd" d="M144.169,35.6031 C144.169,37.3565 142.748,38.778 140.994,38.778 C139.241,38.778 137.819,37.3565 137.819,35.6031 C137.819,33.8498 139.241,32.4283 140.994,32.4283 C142.748,32.4283 144.169,33.8498 144.169,35.6031"/>
<polyline class="FretDiagram" fill="none" stroke="#fc02ff" stroke-width="5.56" stroke-linecap="round" stroke-linejoin="bevel" points="109.246,49.2094 140.994,49.2094"/>
<path class="FretDiagram" fill="#fc02ff" d="M89.0373,47.1838 C89.1213,44.2318 90.5253,42.7558 93.2493,42.7558 C94.4613,42.7558 95.4453,43.1038 96.2013,43.7998 C96.9573,44.4958 97.3353,45.3958 97.3353,46.4998 C97.3353,48.0838 96.4353,49.3678 94.6353,50.3518 L92.8353,51.3238 C92.0553,51.7438 91.4973,52.1518 91.1613,52.5478 C90.8253,52.9438 90.6153,53.4118 90.5313,53.9518 L97.2453,53.9518 L97.2453,55.5178 L88.7493,55.5178 C88.8213,54.1138 89.1033,53.0308 89.5953,52.2688 C90.0873,51.5068 90.9993,50.7478 92.3313,49.9918 L93.9873,49.0558 C95.1393,48.3958 95.7153,47.5558 95.7153,46.5358 C95.7153,45.8518 95.4753,45.2818 94.9953,44.8258 C94.5153,44.3698 93.9153,44.1418 93.1953,44.1418 C91.5993,44.1418 90.7413,45.1558 90.6213,47.1838 L89.0373,47.1838 "/>
<polyline class="FretDiagram" fill="#fc02ff" stroke="#fc0107" stroke-width="2.27" stroke-linejoin="bevel" points="287.143,44.674 327.735,44.674"/>
<polyline class="FretDiagram" fill="#fc02ff" stroke="#fc0107" stroke-width="0.91" stroke-linejoin="bevel" points="287.597,44.674 287.597,85.4929"/>
<polyline class="FretDiagram" fill="#fc02ff" stroke="#fc0107" stroke-width="0.91" stroke-linejoin="bevel" points="295.534,44.674 295.534,85.4929"/>
<polyline class="FretDiagram" fill="#fc02ff" stroke="#fc0107" stroke-width="0.91" stroke-linejoin="bevel" points="303.471,44.674 303.471,85.4929"/>
<polyline class="FretDiagram" fill="#fc02ff" stroke="#fc0107" stroke-width="0.91" stroke-linejoin="bevel" points="311.408,44.674 311.408,85.4929"/>
<polyline class="FretDiagram" fill="#fc02ff" stroke="#fc0107" stroke-width="0.91" stroke-linejoin="bevel" points="319.345,44.674 319.345,85.4929"/>
<polyline class="FretDiagram" fill="#fc02ff" stroke="#fc0107" stroke-width="0.91" stroke-linejoin="bevel" points="327.282,44.674 327.282,85.4929"/>
<polyline class="FretDiagram" fill="#fc02ff" stroke="#fc0107" stroke-width="0.91" stroke-linejoin="bevel" points="287.597,53.7449 327.282,53.7449"/>
<polyline class="FretDiagram" fill="#fc02ff" stroke="#fc0107" stroke-width="0.91" stroke-linejoin="bevel" points="287.597,62.8157 327.282,62.8157"/>
<polyline class="FretDiagram" fill="#fc02ff" stroke="#fc0107" stroke-width="0.91" stroke-linejoin="bevel" points="287.597,71.8866 327.282,71.8866"/>
<polyline class="FretDiagram" fill="#fc02ff" stroke="#fc0107" stroke-width="0.91" stroke-linejoin="bevel" points="287.597,80.9575 327.282,80.9575"/>
<path class="FretDiagram" fill="#fc0107" fill-rule="evenodd" d="M306.249,49.2094 C306.249,50.7437 305.005,51.9874 303.471,51.9874 C301.937,51.9874 300.693,50.7437 300.693,49.2094 C300.693,47.6752 301.937,46.4315 303.471,46.4315 C305.005,46.4315 306.249,47.6752 306.249,49.2094"/>
<path class="FretDiagram" fill="#fc0107" fill-rule="evenodd" d="M314.186,67.3512 C314.186,68.8854 312.942,70.1291 311.408,70.1291 C309.874,70.1291 308.63,68.8854 308.63,67.3512 C308.63,65.817 309.874,64.5732 311.408,64.5732 C312.942,64.5732 314.186,65.817 314.186,67.3512"/>
<path class="FretDiagram" fill="#fc0107" fill-rule="evenodd" d="M330.06,58.2803 C330.06,59.8145 328.816,61.0583 327.282,61.0583 C325.748,61.0583 324.504,59.8145 324.504,58.2803 C324.504,56.7461 325.748,55.5024 327.282,55.5024 C328.816,55.5024 330.06,56.7461 330.06,58.2803"/>
<polyline class="FretDiagram" fill="none" stroke="#fc0107" stroke-width="1.31" stroke-linecap="round" stroke-linejoin="bevel" points="284.422,32.4283 290.772,38.778"/>
<polyline class="FretDiagram" fill="none" stroke="#fc0107" stroke-width="1.31" stroke-linecap="round" stroke-linejoin="bevel" points="284.422,38.778 290.772,32.4283"/>
<polyline class="FretDiagram" fill="none" stroke="#fc0107" stroke-width="1.31" stroke-linecap="round" stroke-linejoin="bevel" points="292.359,32.4283 298.709,38.778"/>
<polyline class="FretDiagram" fill="none" stroke="#fc0107" stroke-width="1.31" stroke-linecap="round" stroke-linejoin="bevel" points="292.359,38.778 298.709,32.4283"/>
<path class="FretDiagram" fill="none" stroke="#fc0107" stroke-width="1.31" stroke-linecap="round" stroke-linejoin="bevel" fill-rule="evenodd" d="M322.52,35.6031 C322.52,37.3565 321.098,38.778 319.345,38.778 C317.591,38.778 316.17,37.3565 316.17,35.6031 C316.17,33.8498 317.591,32.4283 319.345,32.4283 C321.098,32.4283 322.52,33.8498 322.52,35.6031"/>
<polyline class="FretDiagram" fill="#fc0107" stroke="#0000ff" stroke-width="2.27" stroke-linejoin="bevel" points="471.252,44.674 511.844,44.674"/>
<polyline class="FretDiagram" fill="#fc0107" stroke="#0000ff" stroke-width="0.91" stroke-linejoin="bevel" points="471.705,44.674 471.705,85.4929"/>
<polyline class="FretDiagram" fill="#fc0107" stroke="#0000ff" stroke-width="0.91" stroke-linejoin="bevel" points="479.642,44.674 479.642,85.4929"/>
<polyline class="FretDiagram" fill="#fc0107" stroke="#0000ff" stroke-width="0.91" stroke-linejoin="bevel" points="487.579,44.674 487.579,85.4929"/>
<polyline class="FretDiagram" fill="#fc0107" stroke="#0000ff" stroke-width="0.91" stroke-linejoin="bevel" points="495.516,44.674 495.516,85.4929"/>
<polyline class="FretDiagram" fill="#fc0107" stroke="#0000ff" stroke-width="0.91" stroke-linejoin="bevel" points="503.453,44.674 503.453,85.4929"/>
<polyline class="FretDiagram" fill="#fc0107" stroke="#0000ff" stroke-width="0.91" stroke-linejoin="bevel" points="511.39,44.674 511.39,85.4929"/>
<polyline class="FretDiagram" fill="#fc0107" stroke="#0000ff" stroke-width="0.91" stroke-linejoin="bevel" points="471.705,53.7449 511.39,53.7449"/>
<polyline class="FretDiagram" fill="#fc0107" stroke="#0000ff" stroke-width="0.91" stroke-linejoin="bevel" points="471.705,62.8157 511.39,62.8157"/>
<polyline class="FretDiagram" fill="#fc0107" stroke="#0000ff" stroke-width="0.91" stroke-linejoin="bevel" points="471.705,71.8866 511.39,71.8866"/>
<polyline class="FretDiagram" fill="#fc0107" stroke="#0000ff" stroke-width="0.91" stroke-linejoin="bevel" points="471.705,80.9575 511.39,80.9575"/>
<path class="FretDiagram" fill="#0000ff" fill-rule="evenodd" d="M474.483,58.2803 C474.483,59.8145 473.24,61.0583 471.705,61.0583 C470.171,61.0583 468.927,59.8145 468.927,58.2803 C468.927,56.7461 470.171,55.5024 471.705,55.5024 C473.24,55.5024 474.483,56.7461 474.483,58.2803"/>
<path class="FretDiagram" fill="#0000ff" fill-rule="evenodd" d="M490.357,49.2094 C490.357,50.7437 489.114,51.9874 487.579,51.9874 C486.045,51.9874 484.801,50.7437 484.801,49.2094 C484.801,47.6752 486.045,46.4315 487.579,46.4315 C489.114,46.4315 490.357,47.6752 490.357,49.2094"/>
<path class="FretDiagram" fill="#0000ff" fill-rule="evenodd" d="M498.294,67.3512 C498.294,68.8854 497.051,70.1291 495.516,70.1291 C493.982,70.1291 492.738,68.8854 492.738,67.3512 C492.738,65.817 493.982,64.5732 495.516,64.5732 C497.051,64.5732 498.294,65.817 498.294,67.3512"/>
<polyline class="FretDiagram" fill="none" stroke="#0000ff" stroke-width="1.31" stroke-linecap="round" stroke-linejoin="bevel" points="476.468,32.4283 482.817,38.778"/>
<polyline class="FretDiagram" fill="none" stroke="#0000ff" stroke-width="1.31" stroke-linecap="round" stroke-linejoin="bevel" points="476.468,38.778 482.817,32.4283"/>
<path class="FretDiagram" fill="none" stroke="#0000ff" stroke-width="1.31" stroke-linecap="round" stroke-linejoin="bevel" fill-rule="evenodd" d="M506.628,35.6031 C506.628,37.3565 505.207,38.778 503.453,38.778 C501.7,38.778 500.279,37.3565 500.279,35.6031 C500.279,33.8498 501.7,32.4283 503.453,32.4283 C505.207,32.4283 506.628,33.8498 506.628,35.6031"/>
<polyline class="FretDiagram" fill="none" stroke="#0000ff" stroke-width="1.31" stroke-linecap="round" stroke-linejoin="bevel" points="508.216,32.4283 514.565,38.778"/>
<polyline class="FretDiagram" fill="none" stroke="#0000ff" stroke-width="1.31" stroke-linecap="round" stroke-linejoin="bevel" points="508.216,38.778 514.565,32.4283"/>
<polyline class="FretDiagram" fill="#0000ff" stroke="#fc02ff" stroke-width="2.27" stroke-linejoin="bevel" points="655.36,44.674 695.953,44.674"/>
<polyline class="FretDiagram" fill="#0000ff" stroke="#fc02ff" stroke-width="0.91" stroke-linejoin="bevel" points="655.814,44.674 655.814,85.4929"/>
<polyline class="FretDiagram" fill="#0000ff" stroke="#fc02ff" stroke-width="0.91" stroke-linejoin="bevel" points="663.751,44.674 663.751,85.4929"/>
<polyline class="FretDiagram" fill="#0000ff" stroke="#fc02ff" stroke-width="0.91" stroke-linejoin="bevel" points="671.688,44.674 671.688,85.4929"/>
<polyline class="FretDiagram" fill="#0000ff" stroke="#fc02ff" stroke-width="0.91" stroke-linejoin="bevel" points="679.625,44.674 679.625,85.4929"/>
<polyline class="FretDiagram" fill="#0000ff" stroke="#fc02ff" stroke-width="0.91" stroke-linejoin="bevel" points="687.562,44.674 687.562,85.4929"/>
<polyline class="FretDiagram" fill="#0000ff" stroke="#fc02ff" stroke-width="0.91" stroke-linejoin="bevel" points="695.499,44.674 695.499,85.4929"/>
<polyline class="FretDiagram" fill="#0000ff" stroke="#fc02ff" stroke-width="0.91" stroke-linejoin="bevel" points="655.814,53.7449 695.499,53.7449"/>
<polyline class="FretDiagram" fill="#0000ff" stroke="#fc02ff" stroke-width="0.91" stroke-linejoin="bevel" points="655.814,62.8157 695.499,62.8157"/>
<polyline class="FretDiagram" fill="#0000ff" stroke="#fc02ff" stroke-width="0.91" stroke-linejoin="bevel" points="655.814,71.8866 695.499,71.8866"/>
<polyline class="FretDiagram" fill="#0000ff" stroke="#fc02ff" stroke-width="0.91" stroke-linejoin="bevel" points="655.814,80.9575 695.499,80.9575"/>
<path class="FretDiagram" fill="#fc02ff" fill-rule="evenodd" d="M674.466,49.2094 C674.466,50.7437 673.222,51.9874 671.688,51.9874 C670.154,51.9874 668.91,50.7437 668.91,49.2094 C668.91,47.6752 670.154,46.4315 671.688,46.4315 C673.222,46.4315 674.466,47.6752 674.466,49.2094"/>
<polyline class="FretDiagram" fill="none" stroke="#fc02ff" stroke-width="1.31" stroke-linecap="round" stroke-linejoin="bevel" points="652.639,32.4283 658.989,38.778"/>
<polyline class="FretDiagram" fill="none" stroke="#fc02ff" stroke-width="1.31" stroke-linecap="round" stroke-linejoin="bevel" points="652.639,38.778 658.989,32.4283"/>
<path class="FretDiagram" fill="none" stroke="#fc02ff" stroke-width="1.31" stroke-linecap="round" stroke-linejoin="bevel" fill-rule="evenodd" d="M666.926,35.6031 C666.926,37.3565 665.504,38.778 663.751,38.778 C661.998,38.778 660.576,37.3565 660.576,35.6031 C660.576,33.8498 661.998,32.4283 663.751,32.4283 C665.504,32.4283 666.926,33.8498 666.926,35.6031"/>
<path class="FretDiagram" fill="none" stroke="#fc02ff" stroke-width="1.31" stroke-linecap="round" stroke-linejoin="bevel" fill-rule="evenodd" d="M682.8,35.6031 C682.8,37.3565 681.378,38.778 679.625,38.778 C677.872,38.778 676.45,37.3565 676.45,35.6031 C676.45,33.8498 677.872,32.4283 679.625,32.4283 C681.378,32.4283 682.8,33.8498 682.8,35.6031"/>
<path class="FretDiagram" fill="none" stroke="#fc02ff" stroke-width="1.31" stroke-linecap="round" stroke-linejoin="bevel" fill-rule="evenodd" d="M690.737,35.6031 C690.737,37.3565 689.315,38.778 687.562,38.778 C685.809,38.778 684.387,37.3565 684.387,35.6031 C684.387,33.8498 685.809,32.4283 687.562,32.4283 C689.315,32.4283 690.737,33.8498 690.737,35.6031"/>
<polyline class="FretDiagram" fill="none" stroke="#fc02ff" stroke-width="1.31" stroke-linecap="round" stroke-linejoin="bevel" points="692.324,32.4283 698.674,38.778"/>
<polyline class="FretDiagram" fill="none" stroke="#fc02ff" stroke-width="1.31" stroke-linecap="round" stroke-linejoin="bevel" points="692.324,38.778 698.674,32.4283"/>
<path class="Bracket" transform="matrix(1.64409,0,0,1.79772,14.5089,446.229)" d="M0.92002,-50 C2.69004,-51.88 6.2,-55.8 6.2,-63 C6.2,-72.1 2.25996,-81.32 2.25996,-86.97 C2.25996,-93.06 5.84004,-98.84 5.95,-99 C6.05996,-99.16 6.05,-99.39 5.94004,-99.46 C5.82998,-99.53 5.62002,-99.47 5.49004,-99.32 C5.35996,-99.17 0,-93.75 0,-85.6 C0,-76.75 3.5,-70.58 3.5,-59.07 C3.5,-56.89 2.55996,-53.36 0.1,-50.33 C-0.0799805,-50.17 -0.1,-49.89 0.0599609,-49.7 L0.0700195,-49.69 L0.1,-49.66 C2.55996,-46.63 3.5,-43.1 3.5,-40.92 C3.5,-29.4 0,-23.24 0,-14.39 C0,-6.25 5.35996,-0.8 5.49004,-0.659961 C5.62002,-0.52002 5.8,-0.42998 5.94004,-0.52002 C6.07998,-0.609961 6.07998,-0.77998 5.95,-0.97998 C5.82002,-1.17998 2.25996,-6.92002 2.25996,-13.01 C2.25996,-18.66 6.2,-27.9 6.2,-37 C6.2,-44.3 2.69004,-48.12 0.92002,-50"/>
</svg>
