<?xml version="1.0" encoding="UTF-8" standalone="no"?>
<svg width="850.394px" height="566.929px" viewBox="0 0 850.394 566.929"
 xmlns="http://www.w3.org/2000/svg" xmlns:xlink="http://www.w3.org/1999/xlink" version="1.2" baseProfile="tiny">
<title>La Mineur (22)</title>
<desc>Generated by MuseScore 3.6.2</desc>
<polyline class="StaffLines" fill="none" stroke="#000000" stroke-width="1.25" stroke-linejoin="bevel" points="29.3071,107.717 836.22,107.717"/>
<polyline class="StaffLines" fill="none" stroke="#000000" stroke-width="1.25" stroke-linejoin="bevel" points="29.3071,124.724 836.22,124.724"/>
<polyline class="StaffLines" fill="none" stroke="#000000" stroke-width="1.25" stroke-linejoin="bevel" points="29.3071,141.732 836.22,141.732"/>
<polyline class="StaffLines" fill="none" stroke="#000000" stroke-width="1.25" stroke-linejoin="bevel" points="29.3071,158.74 836.22,158.74"/>
<polyline class="StaffLines" fill="none" stroke="#000000" stroke-width="1.25" stroke-linejoin="bevel" points="29.3071,175.748 836.22,175.748"/>
<polyline class="StaffLines" fill="none" stroke="#000000" stroke-width="1.25" stroke-linejoin="bevel" points="29.3071,192.756 836.22,192.756"/>
<polyline class="StaffLines" fill="none" stroke="#000000" stroke-width="1.25" stroke-linejoin="bevel" points="29.3071,266.457 836.22,266.457"/>
<polyline class="StaffLines" fill="none" stroke="#000000" stroke-width="1.25" stroke-linejoin="bevel" points="29.3071,277.795 836.22,277.795"/>
<polyline class="StaffLines" fill="none" stroke="#000000" stroke-width="1.25" stroke-linejoin="bevel" points="29.3071,289.134 836.22,289.134"/>
<polyline class="StaffLines" fill="none" stroke="#000000" stroke-width="1.25" stroke-linejoin="bevel" points="29.3071,300.472 836.22,300.472"/>
<polyline class="StaffLines" fill="none" stroke="#000000" stroke-width="1.25" stroke-linejoin="bevel" points="29.3071,311.811 836.22,311.811"/>
<polyline class="StaffLines" fill="none" stroke="#000000" stroke-width="1.25" stroke-linejoin="bevel" points="29.3071,406.417 836.22,406.417"/>
<polyline class="StaffLines" fill="none" stroke="#000000" stroke-width="1.25" stroke-linejoin="bevel" points="29.3071,417.755 836.22,417.755"/>
<polyline class="StaffLines" fill="none" stroke="#000000" stroke-width="1.25" stroke-linejoin="bevel" points="29.3071,429.094 836.22,429.094"/>
<polyline class="StaffLines" fill="none" stroke="#000000" stroke-width="1.25" stroke-linejoin="bevel" points="29.3071,440.432 836.22,440.432"/>
<polyline class="StaffLines" fill="none" stroke="#000000" stroke-width="1.25" stroke-linejoin="bevel" points="29.3071,451.771 836.22,451.771"/>
<polyline class="BarLine" fill="none" stroke="#000000" stroke-width="2.04" stroke-linejoin="bevel" points="30.3276,405.793 30.3276,452.395"/>
<polyline class="BarLine" fill="none" stroke="#000000" stroke-width="2.04" stroke-linejoin="bevel" points="237.523,405.793 237.523,452.395"/>
<polyline class="BarLine" fill="none" stroke="#000000" stroke-width="2.04" stroke-linejoin="bevel" points="385.041,405.793 385.041,452.395"/>
<polyline class="BarLine" fill="none" stroke="#000000" stroke-width="2.04" stroke-linejoin="bevel" points="391.277,405.793 391.277,452.395"/>
<polyline class="BarLine" fill="none" stroke="#000000" stroke-width="2.04" stroke-linejoin="bevel" points="534.462,405.793 534.462,452.395"/>
<polyline class="BarLine" fill="none" stroke="#000000" stroke-width="2.04" stroke-linejoin="bevel" points="677.647,405.793 677.647,452.395"/>
<polyline class="BarLine" fill="none" stroke="#000000" stroke-width="2.04" stroke-linejoin="bevel" points="825.165,405.793 825.165,452.395"/>
<polyline class="BarLine" fill="none" stroke="#000000" stroke-width="6.24" stroke-linejoin="bevel" points="833.102,405.793 833.102,452.395"/>
<polyline class="BarLine" fill="none" stroke="#000000" stroke-width="2.04" stroke-linejoin="bevel" points="30.3276,265.833 30.3276,406.417"/>
<polyline class="BarLine" fill="none" stroke="#000000" stroke-width="2.04" stroke-linejoin="bevel" points="237.523,265.833 237.523,312.435"/>
<polyline class="BarLine" fill="none" stroke="#000000" stroke-width="2.04" stroke-linejoin="bevel" points="385.041,265.833 385.041,312.435"/>
<polyline class="BarLine" fill="none" stroke="#000000" stroke-width="2.04" stroke-linejoin="bevel" points="391.277,265.833 391.277,312.435"/>
<polyline class="BarLine" fill="none" stroke="#000000" stroke-width="2.04" stroke-linejoin="bevel" points="534.462,265.833 534.462,312.435"/>
<polyline class="BarLine" fill="none" stroke="#000000" stroke-width="2.04" stroke-linejoin="bevel" points="677.647,265.833 677.647,312.435"/>
<polyline class="BarLine" fill="none" stroke="#000000" stroke-width="2.04" stroke-linejoin="bevel" points="825.165,265.833 825.165,312.435"/>
<polyline class="BarLine" fill="none" stroke="#000000" stroke-width="6.24" stroke-linejoin="bevel" points="833.102,265.833 833.102,312.435"/>
<polyline class="BarLine" fill="none" stroke="#000000" stroke-width="2.04" stroke-linejoin="bevel" points="30.3276,107.093 30.3276,266.457"/>
<polyline class="BarLine" fill="none" stroke="#000000" stroke-width="2.04" stroke-linejoin="bevel" points="237.523,107.093 237.523,193.38"/>
<polyline class="BarLine" fill="none" stroke="#000000" stroke-width="2.04" stroke-linejoin="bevel" points="385.041,107.093 385.041,193.38"/>
<polyline class="BarLine" fill="none" stroke="#000000" stroke-width="2.04" stroke-linejoin="bevel" points="391.277,107.093 391.277,193.38"/>
<polyline class="BarLine" fill="none" stroke="#000000" stroke-width="2.04" stroke-linejoin="bevel" points="534.462,107.093 534.462,193.38"/>
<polyline class="BarLine" fill="none" stroke="#000000" stroke-width="2.04" stroke-linejoin="bevel" points="677.647,107.093 677.647,193.38"/>
<polyline class="BarLine" fill="none" stroke="#000000" stroke-width="2.04" stroke-linejoin="bevel" points="825.165,107.093 825.165,193.38"/>
<polyline class="BarLine" fill="none" stroke="#000000" stroke-width="6.24" stroke-linejoin="bevel" points="833.102,107.093 833.102,193.38"/>
<path class="Accidental" transform="matrix(0.453543,0,0,0.453543,689.622,412.086)" d="M23.3,-10.6 C23.9,-10.7 24.4,-11.4 24.4,-12 L24.4,-17.9 C24.4,-18.7 23.8,-19.3 23,-19.3 L22.8,-19.3 L19.5,-18.6 L19.5,-33.5 L16.7,-33.5 L16.7,-18 L7.8,-16.2 L7.8,-30.3 L5,-30.3 L5,-15.6 L1.1,-14.8 C0.5,-14.7 0,-14 0,-13.4 L0,-13.2 L0,-7.4 L0,-7.6 C0,-6.8 0.6,-6.2 1.4,-6.2 L1.7,-6.2 L5,-6.9 L5,9.6 L1.1,10.4 C0.5,10.5 0,11.2 0,11.8 L0,17.6 C0,18.4 0.6,19 1.4,19 L1.7,19 L5,18.3 L5,33.2 L7.8,33.2 L7.8,17.7 L16.7,15.9 L16.7,30 L19.5,30 L19.5,15.3 L23.3,14.6 C23.9,14.5 24.4,13.8 24.4,13.2 L24.4,7.3 C24.4,6.5 23.8,5.9 23,5.9 L22.8,5.9 L19.5,6.6 L19.5,-9.9 L23.3,-10.6 M7.8,9.1 L7.8,-7.5 L16.7,-9.3 L16.7,7.2 L7.8,9.1 "/>
<path class="Accidental" transform="matrix(0.453543,0,0,0.453543,249.497,300.472)" d="M23.3,-10.6 C23.9,-10.7 24.4,-11.4 24.4,-12 L24.4,-17.9 C24.4,-18.7 23.8,-19.3 23,-19.3 L22.8,-19.3 L19.5,-18.6 L19.5,-33.5 L16.7,-33.5 L16.7,-18 L7.8,-16.2 L7.8,-30.3 L5,-30.3 L5,-15.6 L1.1,-14.8 C0.5,-14.7 0,-14 0,-13.4 L0,-13.2 L0,-7.4 L0,-7.6 C0,-6.8 0.6,-6.2 1.4,-6.2 L1.7,-6.2 L5,-6.9 L5,9.6 L1.1,10.4 C0.5,10.5 0,11.2 0,11.8 L0,17.6 C0,18.4 0.6,19 1.4,19 L1.7,19 L5,18.3 L5,33.2 L7.8,33.2 L7.8,17.7 L16.7,15.9 L16.7,30 L19.5,30 L19.5,15.3 L23.3,14.6 C23.9,14.5 24.4,13.8 24.4,13.2 L24.4,7.3 C24.4,6.5 23.8,5.9 23,5.9 L22.8,5.9 L19.5,6.6 L19.5,-9.9 L23.3,-10.6 M7.8,9.1 L7.8,-7.5 L16.7,-9.3 L16.7,7.2 L7.8,9.1 "/>
<path class="Note" transform="matrix(0.453543,0,0,0.453543,113.464,417.755)" d="M18.7,-13.6 C4.9,-13.6 0,-6.6 0,-0.1 C0,6.4 4.9,13.4 18.7,13.4 C32.5,13.4 37.3,6.4 37.3,-0.1 C37.3,-6.6 32.5,-13.6 18.7,-13.6 M10.4,-4.5 C10.3,-4.9 10.3,-5.3 10.3,-5.7 C10.3,-6.5 10.5,-7.3 10.9,-8 C11.6,-9 12.8,-9.7 14.3,-10 C15.6,-10.3 16.3,-10.5 18.9,-10.5 L19,-10.5 C23,-10.5 24.3,-6.8 25.4,-3 L25.7,-2 C26.5,0.6 26.9,2.8 26.9,4.5 C26.9,5.7 26.7,6.8 26.3,7.6 C25.7,8.7 24.7,9.4 23,9.8 C22.1,10 20.6,10.1 20.6,10.1 C20.1,10.1 19.7,10.2 19.3,10.2 C16.1,10.2 14.1,9 12.7,4.7 C11.5,1 11.3,-0.1 10.4,-4.5"/>
<path class="Note" transform="matrix(0.453543,0,0,0.453543,263.398,423.424)" d="M18.7,-13.6 C4.9,-13.6 0,-6.6 0,-0.1 C0,6.4 4.9,13.4 18.7,13.4 C32.5,13.4 37.3,6.4 37.3,-0.1 C37.3,-6.6 32.5,-13.6 18.7,-13.6 M10.4,-4.5 C10.3,-4.9 10.3,-5.3 10.3,-5.7 C10.3,-6.5 10.5,-7.3 10.9,-8 C11.6,-9 12.8,-9.7 14.3,-10 C15.6,-10.3 16.3,-10.5 18.9,-10.5 L19,-10.5 C23,-10.5 24.3,-6.8 25.4,-3 L25.7,-2 C26.5,0.6 26.9,2.8 26.9,4.5 C26.9,5.7 26.7,6.8 26.3,7.6 C25.7,8.7 24.7,9.4 23,9.8 C22.1,10 20.6,10.1 20.6,10.1 C20.1,10.1 19.7,10.2 19.3,10.2 C16.1,10.2 14.1,9 12.7,4.7 C11.5,1 11.3,-0.1 10.4,-4.5"/>
<path class="Note" transform="matrix(0.453543,0,0,0.453543,408.127,406.417)" d="M18.7,-13.6 C4.9,-13.6 0,-6.6 0,-0.1 C0,6.4 4.9,13.4 18.7,13.4 C32.5,13.4 37.3,6.4 37.3,-0.1 C37.3,-6.6 32.5,-13.6 18.7,-13.6 M10.4,-4.5 C10.3,-4.9 10.3,-5.3 10.3,-5.7 C10.3,-6.5 10.5,-7.3 10.9,-8 C11.6,-9 12.8,-9.7 14.3,-10 C15.6,-10.3 16.3,-10.5 18.9,-10.5 L19,-10.5 C23,-10.5 24.3,-6.8 25.4,-3 L25.7,-2 C26.5,0.6 26.9,2.8 26.9,4.5 C26.9,5.7 26.7,6.8 26.3,7.6 C25.7,8.7 24.7,9.4 23,9.8 C22.1,10 20.6,10.1 20.6,10.1 C20.1,10.1 19.7,10.2 19.3,10.2 C16.1,10.2 14.1,9 12.7,4.7 C11.5,1 11.3,-0.1 10.4,-4.5"/>
<path class="Note" transform="matrix(0.453543,0,0,0.453543,551.312,406.417)" d="M18.7,-13.6 C4.9,-13.6 0,-6.6 0,-0.1 C0,6.4 4.9,13.4 18.7,13.4 C32.5,13.4 37.3,6.4 37.3,-0.1 C37.3,-6.6 32.5,-13.6 18.7,-13.6 M10.4,-4.5 C10.3,-4.9 10.3,-5.3 10.3,-5.7 C10.3,-6.5 10.5,-7.3 10.9,-8 C11.6,-9 12.8,-9.7 14.3,-10 C15.6,-10.3 16.3,-10.5 18.9,-10.5 L19,-10.5 C23,-10.5 24.3,-6.8 25.4,-3 L25.7,-2 C26.5,0.6 26.9,2.8 26.9,4.5 C26.9,5.7 26.7,6.8 26.3,7.6 C25.7,8.7 24.7,9.4 23,9.8 C22.1,10 20.6,10.1 20.6,10.1 C20.1,10.1 19.7,10.2 19.3,10.2 C16.1,10.2 14.1,9 12.7,4.7 C11.5,1 11.3,-0.1 10.4,-4.5"/>
<path class="Note" transform="matrix(0.453543,0,0,0.453543,703.522,412.086)" d="M18.7,-13.6 C4.9,-13.6 0,-6.6 0,-0.1 C0,6.4 4.9,13.4 18.7,13.4 C32.5,13.4 37.3,6.4 37.3,-0.1 C37.3,-6.6 32.5,-13.6 18.7,-13.6 M10.4,-4.5 C10.3,-4.9 10.3,-5.3 10.3,-5.7 C10.3,-6.5 10.5,-7.3 10.9,-8 C11.6,-9 12.8,-9.7 14.3,-10 C15.6,-10.3 16.3,-10.5 18.9,-10.5 L19,-10.5 C23,-10.5 24.3,-6.8 25.4,-3 L25.7,-2 C26.5,0.6 26.9,2.8 26.9,4.5 C26.9,5.7 26.7,6.8 26.3,7.6 C25.7,8.7 24.7,9.4 23,9.8 C22.1,10 20.6,10.1 20.6,10.1 C20.1,10.1 19.7,10.2 19.3,10.2 C16.1,10.2 14.1,9 12.7,4.7 C11.5,1 11.3,-0.1 10.4,-4.5"/>
<path class="Note" transform="matrix(0.453543,0,0,0.453543,97.7957,294.803)" d="M18.7,-13.6 C4.9,-13.6 0,-6.6 0,-0.1 C0,6.4 4.9,13.4 18.7,13.4 C32.5,13.4 37.3,6.4 37.3,-0.1 C37.3,-6.6 32.5,-13.6 18.7,-13.6 M10.4,-4.5 C10.3,-4.9 10.3,-5.3 10.3,-5.7 C10.3,-6.5 10.5,-7.3 10.9,-8 C11.6,-9 12.8,-9.7 14.3,-10 C15.6,-10.3 16.3,-10.5 18.9,-10.5 L19,-10.5 C23,-10.5 24.3,-6.8 25.4,-3 L25.7,-2 C26.5,0.6 26.9,2.8 26.9,4.5 C26.9,5.7 26.7,6.8 26.3,7.6 C25.7,8.7 24.7,9.4 23,9.8 C22.1,10 20.6,10.1 20.6,10.1 C20.1,10.1 19.7,10.2 19.3,10.2 C16.1,10.2 14.1,9 12.7,4.7 C11.5,1 11.3,-0.1 10.4,-4.5"/>
<path class="Note" transform="matrix(0.453543,0,0,0.453543,113.464,289.134)" d="M18.7,-13.6 C4.9,-13.6 0,-6.6 0,-0.1 C0,6.4 4.9,13.4 18.7,13.4 C32.5,13.4 37.3,6.4 37.3,-0.1 C37.3,-6.6 32.5,-13.6 18.7,-13.6 M10.4,-4.5 C10.3,-4.9 10.3,-5.3 10.3,-5.7 C10.3,-6.5 10.5,-7.3 10.9,-8 C11.6,-9 12.8,-9.7 14.3,-10 C15.6,-10.3 16.3,-10.5 18.9,-10.5 L19,-10.5 C23,-10.5 24.3,-6.8 25.4,-3 L25.7,-2 C26.5,0.6 26.9,2.8 26.9,4.5 C26.9,5.7 26.7,6.8 26.3,7.6 C25.7,8.7 24.7,9.4 23,9.8 C22.1,10 20.6,10.1 20.6,10.1 C20.1,10.1 19.7,10.2 19.3,10.2 C16.1,10.2 14.1,9 12.7,4.7 C11.5,1 11.3,-0.1 10.4,-4.5"/>
<path class="Note" transform="matrix(0.453543,0,0,0.453543,113.464,277.795)" d="M18.7,-13.6 C4.9,-13.6 0,-6.6 0,-0.1 C0,6.4 4.9,13.4 18.7,13.4 C32.5,13.4 37.3,6.4 37.3,-0.1 C37.3,-6.6 32.5,-13.6 18.7,-13.6 M10.4,-4.5 C10.3,-4.9 10.3,-5.3 10.3,-5.7 C10.3,-6.5 10.5,-7.3 10.9,-8 C11.6,-9 12.8,-9.7 14.3,-10 C15.6,-10.3 16.3,-10.5 18.9,-10.5 L19,-10.5 C23,-10.5 24.3,-6.8 25.4,-3 L25.7,-2 C26.5,0.6 26.9,2.8 26.9,4.5 C26.9,5.7 26.7,6.8 26.3,7.6 C25.7,8.7 24.7,9.4 23,9.8 C22.1,10 20.6,10.1 20.6,10.1 C20.1,10.1 19.7,10.2 19.3,10.2 C16.1,10.2 14.1,9 12.7,4.7 C11.5,1 11.3,-0.1 10.4,-4.5"/>
<path class="Note" transform="matrix(0.453543,0,0,0.453543,263.398,300.472)" d="M18.7,-13.6 C4.9,-13.6 0,-6.6 0,-0.1 C0,6.4 4.9,13.4 18.7,13.4 C32.5,13.4 37.3,6.4 37.3,-0.1 C37.3,-6.6 32.5,-13.6 18.7,-13.6 M10.4,-4.5 C10.3,-4.9 10.3,-5.3 10.3,-5.7 C10.3,-6.5 10.5,-7.3 10.9,-8 C11.6,-9 12.8,-9.7 14.3,-10 C15.6,-10.3 16.3,-10.5 18.9,-10.5 L19,-10.5 C23,-10.5 24.3,-6.8 25.4,-3 L25.7,-2 C26.5,0.6 26.9,2.8 26.9,4.5 C26.9,5.7 26.7,6.8 26.3,7.6 C25.7,8.7 24.7,9.4 23,9.8 C22.1,10 20.6,10.1 20.6,10.1 C20.1,10.1 19.7,10.2 19.3,10.2 C16.1,10.2 14.1,9 12.7,4.7 C11.5,1 11.3,-0.1 10.4,-4.5"/>
<path class="Note" transform="matrix(0.453543,0,0,0.453543,263.398,289.134)" d="M18.7,-13.6 C4.9,-13.6 0,-6.6 0,-0.1 C0,6.4 4.9,13.4 18.7,13.4 C32.5,13.4 37.3,6.4 37.3,-0.1 C37.3,-6.6 32.5,-13.6 18.7,-13.6 M10.4,-4.5 C10.3,-4.9 10.3,-5.3 10.3,-5.7 C10.3,-6.5 10.5,-7.3 10.9,-8 C11.6,-9 12.8,-9.7 14.3,-10 C15.6,-10.3 16.3,-10.5 18.9,-10.5 L19,-10.5 C23,-10.5 24.3,-6.8 25.4,-3 L25.7,-2 C26.5,0.6 26.9,2.8 26.9,4.5 C26.9,5.7 26.7,6.8 26.3,7.6 C25.7,8.7 24.7,9.4 23,9.8 C22.1,10 20.6,10.1 20.6,10.1 C20.1,10.1 19.7,10.2 19.3,10.2 C16.1,10.2 14.1,9 12.7,4.7 C11.5,1 11.3,-0.1 10.4,-4.5"/>
<path class="Note" transform="matrix(0.453543,0,0,0.453543,263.398,272.126)" d="M18.7,-13.6 C4.9,-13.6 0,-6.6 0,-0.1 C0,6.4 4.9,13.4 18.7,13.4 C32.5,13.4 37.3,6.4 37.3,-0.1 C37.3,-6.6 32.5,-13.6 18.7,-13.6 M10.4,-4.5 C10.3,-4.9 10.3,-5.3 10.3,-5.7 C10.3,-6.5 10.5,-7.3 10.9,-8 C11.6,-9 12.8,-9.7 14.3,-10 C15.6,-10.3 16.3,-10.5 18.9,-10.5 L19,-10.5 C23,-10.5 24.3,-6.8 25.4,-3 L25.7,-2 C26.5,0.6 26.9,2.8 26.9,4.5 C26.9,5.7 26.7,6.8 26.3,7.6 C25.7,8.7 24.7,9.4 23,9.8 C22.1,10 20.6,10.1 20.6,10.1 C20.1,10.1 19.7,10.2 19.3,10.2 C16.1,10.2 14.1,9 12.7,4.7 C11.5,1 11.3,-0.1 10.4,-4.5"/>
<path class="Note" transform="matrix(0.453543,0,0,0.453543,408.127,294.803)" d="M18.7,-13.6 C4.9,-13.6 0,-6.6 0,-0.1 C0,6.4 4.9,13.4 18.7,13.4 C32.5,13.4 37.3,6.4 37.3,-0.1 C37.3,-6.6 32.5,-13.6 18.7,-13.6 M10.4,-4.5 C10.3,-4.9 10.3,-5.3 10.3,-5.7 C10.3,-6.5 10.5,-7.3 10.9,-8 C11.6,-9 12.8,-9.7 14.3,-10 C15.6,-10.3 16.3,-10.5 18.9,-10.5 L19,-10.5 C23,-10.5 24.3,-6.8 25.4,-3 L25.7,-2 C26.5,0.6 26.9,2.8 26.9,4.5 C26.9,5.7 26.7,6.8 26.3,7.6 C25.7,8.7 24.7,9.4 23,9.8 C22.1,10 20.6,10.1 20.6,10.1 C20.1,10.1 19.7,10.2 19.3,10.2 C16.1,10.2 14.1,9 12.7,4.7 C11.5,1 11.3,-0.1 10.4,-4.5"/>
<path class="Note" transform="matrix(0.453543,0,0,0.453543,408.127,283.465)" d="M18.7,-13.6 C4.9,-13.6 0,-6.6 0,-0.1 C0,6.4 4.9,13.4 18.7,13.4 C32.5,13.4 37.3,6.4 37.3,-0.1 C37.3,-6.6 32.5,-13.6 18.7,-13.6 M10.4,-4.5 C10.3,-4.9 10.3,-5.3 10.3,-5.7 C10.3,-6.5 10.5,-7.3 10.9,-8 C11.6,-9 12.8,-9.7 14.3,-10 C15.6,-10.3 16.3,-10.5 18.9,-10.5 L19,-10.5 C23,-10.5 24.3,-6.8 25.4,-3 L25.7,-2 C26.5,0.6 26.9,2.8 26.9,4.5 C26.9,5.7 26.7,6.8 26.3,7.6 C25.7,8.7 24.7,9.4 23,9.8 C22.1,10 20.6,10.1 20.6,10.1 C20.1,10.1 19.7,10.2 19.3,10.2 C16.1,10.2 14.1,9 12.7,4.7 C11.5,1 11.3,-0.1 10.4,-4.5"/>
<path class="Note" transform="matrix(0.453543,0,0,0.453543,408.127,272.126)" d="M18.7,-13.6 C4.9,-13.6 0,-6.6 0,-0.1 C0,6.4 4.9,13.4 18.7,13.4 C32.5,13.4 37.3,6.4 37.3,-0.1 C37.3,-6.6 32.5,-13.6 18.7,-13.6 M10.4,-4.5 C10.3,-4.9 10.3,-5.3 10.3,-5.7 C10.3,-6.5 10.5,-7.3 10.9,-8 C11.6,-9 12.8,-9.7 14.3,-10 C15.6,-10.3 16.3,-10.5 18.9,-10.5 L19,-10.5 C23,-10.5 24.3,-6.8 25.4,-3 L25.7,-2 C26.5,0.6 26.9,2.8 26.9,4.5 C26.9,5.7 26.7,6.8 26.3,7.6 C25.7,8.7 24.7,9.4 23,9.8 C22.1,10 20.6,10.1 20.6,10.1 C20.1,10.1 19.7,10.2 19.3,10.2 C16.1,10.2 14.1,9 12.7,4.7 C11.5,1 11.3,-0.1 10.4,-4.5"/>
<path class="Note" transform="matrix(0.453543,0,0,0.453543,551.312,289.134)" d="M18.7,-13.6 C4.9,-13.6 0,-6.6 0,-0.1 C0,6.4 4.9,13.4 18.7,13.4 C32.5,13.4 37.3,6.4 37.3,-0.1 C37.3,-6.6 32.5,-13.6 18.7,-13.6 M10.4,-4.5 C10.3,-4.9 10.3,-5.3 10.3,-5.7 C10.3,-6.5 10.5,-7.3 10.9,-8 C11.6,-9 12.8,-9.7 14.3,-10 C15.6,-10.3 16.3,-10.5 18.9,-10.5 L19,-10.5 C23,-10.5 24.3,-6.8 25.4,-3 L25.7,-2 C26.5,0.6 26.9,2.8 26.9,4.5 C26.9,5.7 26.7,6.8 26.3,7.6 C25.7,8.7 24.7,9.4 23,9.8 C22.1,10 20.6,10.1 20.6,10.1 C20.1,10.1 19.7,10.2 19.3,10.2 C16.1,10.2 14.1,9 12.7,4.7 C11.5,1 11.3,-0.1 10.4,-4.5"/>
<path class="Note" transform="matrix(0.453543,0,0,0.453543,551.312,277.795)" d="M18.7,-13.6 C4.9,-13.6 0,-6.6 0,-0.1 C0,6.4 4.9,13.4 18.7,13.4 C32.5,13.4 37.3,6.4 37.3,-0.1 C37.3,-6.6 32.5,-13.6 18.7,-13.6 M10.4,-4.5 C10.3,-4.9 10.3,-5.3 10.3,-5.7 C10.3,-6.5 10.5,-7.3 10.9,-8 C11.6,-9 12.8,-9.7 14.3,-10 C15.6,-10.3 16.3,-10.5 18.9,-10.5 L19,-10.5 C23,-10.5 24.3,-6.8 25.4,-3 L25.7,-2 C26.5,0.6 26.9,2.8 26.9,4.5 C26.9,5.7 26.7,6.8 26.3,7.6 C25.7,8.7 24.7,9.4 23,9.8 C22.1,10 20.6,10.1 20.6,10.1 C20.1,10.1 19.7,10.2 19.3,10.2 C16.1,10.2 14.1,9 12.7,4.7 C11.5,1 11.3,-0.1 10.4,-4.5"/>
<path class="Note" transform="matrix(0.453543,0,0,0.453543,551.312,266.457)" d="M18.7,-13.6 C4.9,-13.6 0,-6.6 0,-0.1 C0,6.4 4.9,13.4 18.7,13.4 C32.5,13.4 37.3,6.4 37.3,-0.1 C37.3,-6.6 32.5,-13.6 18.7,-13.6 M10.4,-4.5 C10.3,-4.9 10.3,-5.3 10.3,-5.7 C10.3,-6.5 10.5,-7.3 10.9,-8 C11.6,-9 12.8,-9.7 14.3,-10 C15.6,-10.3 16.3,-10.5 18.9,-10.5 L19,-10.5 C23,-10.5 24.3,-6.8 25.4,-3 L25.7,-2 C26.5,0.6 26.9,2.8 26.9,4.5 C26.9,5.7 26.7,6.8 26.3,7.6 C25.7,8.7 24.7,9.4 23,9.8 C22.1,10 20.6,10.1 20.6,10.1 C20.1,10.1 19.7,10.2 19.3,10.2 C16.1,10.2 14.1,9 12.7,4.7 C11.5,1 11.3,-0.1 10.4,-4.5"/>
<path class="Note" transform="matrix(0.453543,0,0,0.453543,703.522,289.134)" d="M18.7,-13.6 C4.9,-13.6 0,-6.6 0,-0.1 C0,6.4 4.9,13.4 18.7,13.4 C32.5,13.4 37.3,6.4 37.3,-0.1 C37.3,-6.6 32.5,-13.6 18.7,-13.6 M10.4,-4.5 C10.3,-4.9 10.3,-5.3 10.3,-5.7 C10.3,-6.5 10.5,-7.3 10.9,-8 C11.6,-9 12.8,-9.7 14.3,-10 C15.6,-10.3 16.3,-10.5 18.9,-10.5 L19,-10.5 C23,-10.5 24.3,-6.8 25.4,-3 L25.7,-2 C26.5,0.6 26.9,2.8 26.9,4.5 C26.9,5.7 26.7,6.8 26.3,7.6 C25.7,8.7 24.7,9.4 23,9.8 C22.1,10 20.6,10.1 20.6,10.1 C20.1,10.1 19.7,10.2 19.3,10.2 C16.1,10.2 14.1,9 12.7,4.7 C11.5,1 11.3,-0.1 10.4,-4.5"/>
<path class="Note" transform="matrix(0.453543,0,0,0.453543,687.853,277.795)" d="M18.7,-13.6 C4.9,-13.6 0,-6.6 0,-0.1 C0,6.4 4.9,13.4 18.7,13.4 C32.5,13.4 37.3,6.4 37.3,-0.1 C37.3,-6.6 32.5,-13.6 18.7,-13.6 M10.4,-4.5 C10.3,-4.9 10.3,-5.3 10.3,-5.7 C10.3,-6.5 10.5,-7.3 10.9,-8 C11.6,-9 12.8,-9.7 14.3,-10 C15.6,-10.3 16.3,-10.5 18.9,-10.5 L19,-10.5 C23,-10.5 24.3,-6.8 25.4,-3 L25.7,-2 C26.5,0.6 26.9,2.8 26.9,4.5 C26.9,5.7 26.7,6.8 26.3,7.6 C25.7,8.7 24.7,9.4 23,9.8 C22.1,10 20.6,10.1 20.6,10.1 C20.1,10.1 19.7,10.2 19.3,10.2 C16.1,10.2 14.1,9 12.7,4.7 C11.5,1 11.3,-0.1 10.4,-4.5"/>
<path class="Note" transform="matrix(0.453543,0,0,0.453543,703.522,272.126)" d="M18.7,-13.6 C4.9,-13.6 0,-6.6 0,-0.1 C0,6.4 4.9,13.4 18.7,13.4 C32.5,13.4 37.3,6.4 37.3,-0.1 C37.3,-6.6 32.5,-13.6 18.7,-13.6 M10.4,-4.5 C10.3,-4.9 10.3,-5.3 10.3,-5.7 C10.3,-6.5 10.5,-7.3 10.9,-8 C11.6,-9 12.8,-9.7 14.3,-10 C15.6,-10.3 16.3,-10.5 18.9,-10.5 L19,-10.5 C23,-10.5 24.3,-6.8 25.4,-3 L25.7,-2 C26.5,0.6 26.9,2.8 26.9,4.5 C26.9,5.7 26.7,6.8 26.3,7.6 C25.7,8.7 24.7,9.4 23,9.8 C22.1,10 20.6,10.1 20.6,10.1 C20.1,10.1 19.7,10.2 19.3,10.2 C16.1,10.2 14.1,9 12.7,4.7 C11.5,1 11.3,-0.1 10.4,-4.5"/>
<path class="Note" d="M107.226,159.072 C107.286,156.811 108.537,154.805 110.977,153.053 C113.149,151.495 115.522,150.717 118.098,150.717 C121.706,150.717 124.888,152.132 127.643,154.962 C129.395,156.774 130.271,159.02 130.271,161.7 C130.271,164.111 129.628,165.96 128.34,167.248 C126.768,168.835 125.105,169.629 123.353,169.629 C122.156,169.629 121.227,169.359 120.568,168.82 C119.49,167.937 118.951,166.754 118.951,165.271 C118.951,163.355 119.909,161.603 121.826,160.016 C123.398,158.713 124.978,157.859 126.565,157.455 C126.146,156.736 125.615,156.062 124.971,155.434 C122.964,153.472 120.688,152.491 118.143,152.491 C115.492,152.491 113.298,153.068 111.561,154.221 C109.765,155.404 108.32,157.021 107.226,159.072 M127.127,158.645 C126.303,159.409 125.48,160.225 124.656,161.094 C123.039,162.801 122.23,164.418 122.23,165.945 C122.23,167.577 122.605,168.394 123.353,168.394 C124.027,168.394 124.971,167.473 126.184,165.631 C127.157,164.163 127.643,162.816 127.643,161.588 C127.643,160.54 127.471,159.559 127.127,158.645"/>
<path class="Note" d="M131.543,102.883 C132.381,102.314 132.988,101.842 133.362,101.468 C134.051,100.734 134.395,100.06 134.395,99.4461 C134.395,98.7423 134.006,98.3904 133.227,98.3904 C131.715,98.3904 130.098,99.7231 128.376,102.388 C127.852,103.197 126.699,105.832 124.917,110.295 C126.339,111.762 127.051,112.593 127.051,112.788 C127.051,113.057 126.878,113.192 126.534,113.192 C126.264,113.192 125.523,112.735 124.31,111.822 C122.993,114.892 120.994,117.512 118.313,119.683 C115.573,121.9 112.301,123.008 108.498,123.008 C107.045,123.008 105.226,122.671 103.04,121.997 C101.288,121.458 100.412,120.597 100.412,119.414 C100.412,117.662 101.086,116.786 102.433,116.786 C103.242,116.786 103.646,117.16 103.646,117.909 C103.646,118.149 103.459,118.403 103.085,118.673 C102.89,118.807 102.793,119.069 102.793,119.459 C102.793,119.923 103.309,120.402 104.343,120.896 C105.466,121.435 107.113,121.705 109.284,121.705 C112.084,121.705 114.787,120.492 117.392,118.066 C119.758,115.865 121.458,113.304 122.491,110.385 C122.087,110.055 121.652,109.696 121.188,109.306 C119.751,108.453 119.032,107.577 119.032,106.679 C119.032,106.304 119.279,106.117 119.773,106.117 C120.432,106.117 121.323,106.679 122.446,107.802 C122.686,108.041 122.91,108.266 123.12,108.475 C123.644,107.038 124.483,105.211 125.636,102.995 C127.717,98.9819 130.248,96.9754 133.227,96.9754 C134.291,96.9754 135.129,97.1775 135.743,97.5818 C136.357,97.9861 136.664,98.5402 136.664,99.2439 C136.664,100.367 136.252,101.318 135.429,102.096 C134.575,102.905 133.684,103.309 132.756,103.309 C131.947,103.309 131.543,103.167 131.543,102.883"/>
<path class="Note" d="M135.586,147.545 C134.358,149.476 132.419,151.079 129.768,152.351 C127.462,153.46 125.306,154.014 123.3,154.014 C121.697,154.014 120.365,153.692 119.302,153.048 C118.149,152.344 117.572,151.505 117.572,150.532 C117.572,148.331 118.149,146.437 119.302,144.85 C120.874,142.693 122.461,141.615 124.063,141.615 C125.201,141.615 126.01,141.84 126.489,142.289 C127.148,142.873 127.477,143.674 127.477,144.692 C127.477,146.13 126.407,147.38 124.265,148.443 C122.184,149.476 120.739,150.15 119.93,150.465 C120.11,150.839 120.342,151.176 120.627,151.476 C121.331,152.224 122.289,152.599 123.502,152.599 C125.029,152.599 127.081,152.037 129.656,150.914 C132.127,149.821 134.103,148.698 135.586,147.545 M119.616,149.432 C120.739,148.863 121.765,148.196 122.693,147.433 C124.071,146.309 124.76,145.097 124.76,143.794 C124.76,143.06 124.423,142.693 123.749,142.693 C123.18,142.693 122.401,143.345 121.413,144.647 C120.17,146.265 119.549,147.582 119.549,148.601 C119.549,148.885 119.571,149.162 119.616,149.432"/>
<path class="Note" d="M107.226,125.057 C107.286,122.795 108.537,120.789 110.977,119.037 C113.149,117.48 115.522,116.701 118.098,116.701 C121.706,116.701 124.888,118.116 127.643,120.946 C129.395,122.758 130.271,125.004 130.271,127.684 C130.271,130.095 129.628,131.945 128.34,133.232 C126.768,134.82 125.105,135.613 123.353,135.613 C122.156,135.613 121.227,135.344 120.568,134.805 C119.49,133.921 118.951,132.738 118.951,131.256 C118.951,129.339 119.909,127.587 121.826,126 C123.398,124.697 124.978,123.844 126.565,123.439 C126.146,122.721 125.615,122.047 124.971,121.418 C122.964,119.456 120.688,118.475 118.143,118.475 C115.492,118.475 113.298,119.052 111.561,120.205 C109.765,121.388 108.32,123.005 107.226,125.057 M127.127,124.63 C126.303,125.393 125.48,126.209 124.656,127.078 C123.039,128.785 122.23,130.402 122.23,131.93 C122.23,133.562 122.605,134.378 123.353,134.378 C124.027,134.378 124.971,133.457 126.184,131.615 C127.157,130.148 127.643,128.8 127.643,127.572 C127.643,126.524 127.471,125.543 127.127,124.63"/>
<path class="Note" d="M270.044,169.629 C269.31,169.629 268.943,168.843 268.943,167.27 L268.943,160.689 C268.943,160.061 269.25,159.746 269.864,159.746 C270.133,159.746 270.336,159.769 270.47,159.813 C270.95,158.975 271.736,158.271 272.829,157.702 C274.356,156.909 275.906,156.512 277.478,156.512 C278.721,156.512 279.342,156.976 279.342,157.904 C279.342,158.683 278.923,159.072 278.085,159.072 C277.486,159.072 276.917,158.937 276.378,158.668 C275.898,158.428 275.389,158.309 274.85,158.309 C273.922,158.309 272.552,158.915 270.74,160.128 C270.994,161.341 271.122,162.756 271.122,164.373 C271.122,167.877 270.762,169.629 270.044,169.629"/>
<path class="Note" d="M285.519,113.529 C284.291,115.461 282.352,117.063 279.702,118.336 C277.396,119.444 275.24,119.998 273.233,119.998 C271.631,119.998 270.298,119.676 269.235,119.032 C268.082,118.328 267.506,117.49 267.506,116.516 C267.506,114.315 268.082,112.421 269.235,110.834 C270.807,108.678 272.395,107.599 273.997,107.599 C275.135,107.599 275.943,107.824 276.423,108.273 C277.081,108.857 277.411,109.658 277.411,110.677 C277.411,112.114 276.34,113.364 274.199,114.428 C272.118,115.461 270.673,116.135 269.864,116.449 C270.044,116.823 270.276,117.16 270.56,117.46 C271.264,118.208 272.222,118.583 273.435,118.583 C274.963,118.583 277.014,118.021 279.59,116.898 C282.06,115.805 284.037,114.682 285.519,113.529 M269.55,115.416 C270.673,114.847 271.698,114.18 272.627,113.417 C274.004,112.294 274.693,111.081 274.693,109.778 C274.693,109.044 274.356,108.678 273.682,108.678 C273.113,108.678 272.335,109.329 271.346,110.632 C270.104,112.249 269.482,113.567 269.482,114.585 C269.482,114.869 269.505,115.146 269.55,115.416"/>
<path class="Note" d="M270.044,101.597 C269.31,101.597 268.943,100.811 268.943,99.239 L268.943,92.6579 C268.943,92.029 269.25,91.7146 269.864,91.7146 C270.133,91.7146 270.336,91.737 270.47,91.782 C270.95,90.9434 271.736,90.2396 272.829,89.6706 C274.356,88.877 275.906,88.4802 277.478,88.4802 C278.721,88.4802 279.342,88.9444 279.342,89.8728 C279.342,90.6514 278.923,91.0408 278.085,91.0408 C277.486,91.0408 276.917,90.906 276.378,90.6365 C275.898,90.3969 275.389,90.2771 274.85,90.2771 C273.922,90.2771 272.552,90.8835 270.74,92.0964 C270.994,93.3093 271.122,94.7243 271.122,96.3415 C271.122,99.8454 270.762,101.597 270.044,101.597"/>
<path class="Note" d="M281.476,119.89 C282.315,119.321 282.921,118.85 283.296,118.475 C283.984,117.742 284.329,117.068 284.329,116.454 C284.329,115.75 283.939,115.398 283.161,115.398 C281.648,115.398 280.031,116.731 278.309,119.396 C277.785,120.205 276.632,122.84 274.85,127.303 C276.273,128.77 276.984,129.601 276.984,129.796 C276.984,130.065 276.812,130.2 276.467,130.2 C276.198,130.2 275.457,129.743 274.244,128.83 C272.926,131.9 270.927,134.52 268.247,136.691 C265.507,138.907 262.235,140.015 258.431,140.015 C256.979,140.015 255.16,139.679 252.973,139.005 C251.221,138.466 250.345,137.605 250.345,136.422 C250.345,134.67 251.019,133.794 252.367,133.794 C253.175,133.794 253.58,134.168 253.58,134.917 C253.58,135.156 253.393,135.411 253.018,135.681 C252.824,135.815 252.726,136.077 252.726,136.467 C252.726,136.931 253.243,137.41 254.276,137.904 C255.399,138.443 257.046,138.713 259.217,138.713 C262.018,138.713 264.72,137.5 267.326,135.074 C269.692,132.873 271.391,130.312 272.425,127.392 C272.02,127.063 271.586,126.704 271.122,126.314 C269.684,125.461 268.966,124.585 268.966,123.686 C268.966,123.312 269.213,123.125 269.707,123.125 C270.366,123.125 271.257,123.686 272.38,124.809 C272.619,125.049 272.844,125.274 273.053,125.483 C273.578,124.046 274.416,122.219 275.569,120.003 C277.65,115.99 280.181,113.983 283.161,113.983 C284.224,113.983 285.063,114.185 285.676,114.59 C286.29,114.994 286.597,115.548 286.597,116.252 C286.597,117.375 286.186,118.326 285.362,119.104 C284.508,119.913 283.618,120.317 282.689,120.317 C281.881,120.317 281.476,120.175 281.476,119.89"/>
<path class="Note" d="M426.206,102.883 C427.045,102.314 427.651,101.842 428.025,101.468 C428.714,100.734 429.059,100.06 429.059,99.4461 C429.059,98.7423 428.669,98.3904 427.891,98.3904 C426.378,98.3904 424.761,99.7231 423.039,102.388 C422.515,103.197 421.362,105.832 419.58,110.295 C421.003,111.762 421.714,112.593 421.714,112.788 C421.714,113.057 421.542,113.192 421.197,113.192 C420.928,113.192 420.187,112.735 418.974,111.822 C417.656,114.892 415.657,117.512 412.977,119.683 C410.236,121.9 406.965,123.008 403.161,123.008 C401.709,123.008 399.889,122.671 397.703,121.997 C395.951,121.458 395.075,120.597 395.075,119.414 C395.075,117.662 395.749,116.786 397.097,116.786 C397.905,116.786 398.31,117.16 398.31,117.909 C398.31,118.149 398.122,118.403 397.748,118.673 C397.553,118.807 397.456,119.069 397.456,119.459 C397.456,119.923 397.973,120.402 399.006,120.896 C400.129,121.435 401.776,121.705 403.947,121.705 C406.747,121.705 409.45,120.492 412.056,118.066 C414.422,115.865 416.121,113.304 417.154,110.385 C416.75,110.055 416.316,109.696 415.852,109.306 C414.414,108.453 413.695,107.577 413.695,106.679 C413.695,106.304 413.942,106.117 414.437,106.117 C415.095,106.117 415.986,106.679 417.109,107.802 C417.349,108.041 417.574,108.266 417.783,108.475 C418.307,107.038 419.146,105.211 420.299,102.995 C422.38,98.9819 424.911,96.9754 427.891,96.9754 C428.954,96.9754 429.792,97.1775 430.406,97.5818 C431.02,97.9861 431.327,98.5402 431.327,99.2439 C431.327,100.367 430.915,101.318 430.092,102.096 C429.238,102.905 428.347,103.309 427.419,103.309 C426.61,103.309 426.206,103.167 426.206,102.883"/>
<path class="Note" d="M412.168,169.629 C411.359,169.629 410.955,169.262 410.955,168.528 C410.955,167.285 411.142,166.372 411.517,165.788 C413.074,163.482 416.458,159.17 421.669,152.851 C424.02,149.991 427.052,148.561 430.766,148.561 C432.203,148.561 433.199,148.763 433.753,149.167 C434.606,149.796 435.033,150.552 435.033,151.436 C435.033,152.364 434.284,153.397 432.787,154.535 C431.365,155.613 430.017,156.152 428.744,156.152 C428.25,156.152 428.003,156.1 428.003,155.995 C428.003,155.845 428.243,155.688 428.722,155.523 C429.366,155.284 430.054,154.797 430.788,154.063 C431.627,153.21 432.046,152.439 432.046,151.75 C432.046,151.286 431.724,150.844 431.08,150.425 C430.511,150.065 429.59,149.886 428.317,149.886 C426.461,149.886 424.117,151.757 421.287,155.501 C419.4,158.002 417.873,160.203 416.705,162.104 C417.274,161.79 417.955,161.408 418.749,160.959 C419.722,160.405 420.561,160.128 421.265,160.128 C423.017,160.128 423.893,160.757 423.893,162.015 C423.893,163.257 423.174,164.62 421.736,166.103 C420.718,167.151 420.209,167.929 420.209,168.438 C420.209,168.963 420.718,169.225 421.736,169.225 C422.245,169.225 422.77,169.045 423.309,168.686 C423.848,168.341 424.244,168.169 424.499,168.169 C424.709,168.169 424.813,168.304 424.813,168.573 C424.813,169.007 424.394,169.464 423.556,169.943 C422.148,170.752 421.018,171.156 420.164,171.156 C418.652,171.156 417.895,170.348 417.895,168.73 C417.895,167.712 418.479,166.582 419.647,165.339 C420.501,164.425 420.928,163.52 420.928,162.621 C420.928,161.842 420.508,161.453 419.67,161.453 C419.34,161.453 418.247,161.842 416.391,162.621 C415.837,163.549 415.372,164.403 414.998,165.182 C413.576,168.146 412.632,169.629 412.168,169.629"/>
<path class="Note" d="M426.206,136.898 C427.045,136.329 427.651,135.858 428.025,135.483 C428.714,134.75 429.059,134.076 429.059,133.462 C429.059,132.758 428.669,132.406 427.891,132.406 C426.378,132.406 424.761,133.739 423.039,136.404 C422.515,137.213 421.362,139.848 419.58,144.31 C421.003,145.778 421.714,146.609 421.714,146.804 C421.714,147.073 421.542,147.208 421.197,147.208 C420.928,147.208 420.187,146.751 418.974,145.838 C417.656,148.907 415.657,151.528 412.977,153.699 C410.236,155.915 406.965,157.023 403.161,157.023 C401.709,157.023 399.889,156.686 397.703,156.013 C395.951,155.474 395.075,154.613 395.075,153.43 C395.075,151.678 395.749,150.802 397.097,150.802 C397.905,150.802 398.31,151.176 398.31,151.925 C398.31,152.164 398.122,152.419 397.748,152.688 C397.553,152.823 397.456,153.085 397.456,153.475 C397.456,153.939 397.973,154.418 399.006,154.912 C400.129,155.451 401.776,155.721 403.947,155.721 C406.747,155.721 409.45,154.508 412.056,152.082 C414.422,149.881 416.121,147.32 417.154,144.4 C416.75,144.071 416.316,143.712 415.852,143.322 C414.414,142.469 413.695,141.593 413.695,140.694 C413.695,140.32 413.942,140.133 414.437,140.133 C415.095,140.133 415.986,140.694 417.109,141.817 C417.349,142.057 417.574,142.281 417.783,142.491 C418.307,141.054 419.146,139.227 420.299,137.011 C422.38,132.998 424.911,130.991 427.891,130.991 C428.954,130.991 429.792,131.193 430.406,131.598 C431.02,132.002 431.327,132.556 431.327,133.26 C431.327,134.383 430.915,135.334 430.092,136.112 C429.238,136.921 428.347,137.325 427.419,137.325 C426.61,137.325 426.206,137.183 426.206,136.898"/>
<path class="Note" d="M426.206,119.89 C427.045,119.321 427.651,118.85 428.025,118.475 C428.714,117.742 429.059,117.068 429.059,116.454 C429.059,115.75 428.669,115.398 427.891,115.398 C426.378,115.398 424.761,116.731 423.039,119.396 C422.515,120.205 421.362,122.84 419.58,127.303 C421.003,128.77 421.714,129.601 421.714,129.796 C421.714,130.065 421.542,130.2 421.197,130.2 C420.928,130.2 420.187,129.743 418.974,128.83 C417.656,131.9 415.657,134.52 412.977,136.691 C410.236,138.907 406.965,140.015 403.161,140.015 C401.709,140.015 399.889,139.679 397.703,139.005 C395.951,138.466 395.075,137.605 395.075,136.422 C395.075,134.67 395.749,133.794 397.097,133.794 C397.905,133.794 398.31,134.168 398.31,134.917 C398.31,135.156 398.122,135.411 397.748,135.681 C397.553,135.815 397.456,136.077 397.456,136.467 C397.456,136.931 397.973,137.41 399.006,137.904 C400.129,138.443 401.776,138.713 403.947,138.713 C406.747,138.713 409.45,137.5 412.056,135.074 C414.422,132.873 416.121,130.312 417.154,127.392 C416.75,127.063 416.316,126.704 415.852,126.314 C414.414,125.461 413.695,124.585 413.695,123.686 C413.695,123.312 413.942,123.125 414.437,123.125 C415.095,123.125 415.986,123.686 417.109,124.809 C417.349,125.049 417.574,125.274 417.783,125.483 C418.307,124.046 419.146,122.219 420.299,120.003 C422.38,115.99 424.911,113.983 427.891,113.983 C428.954,113.983 429.792,114.185 430.406,114.59 C431.02,114.994 431.327,115.548 431.327,116.252 C431.327,117.375 430.915,118.326 430.092,119.104 C429.238,119.913 428.347,120.317 427.419,120.317 C426.61,120.317 426.206,120.175 426.206,119.89"/>
<path class="Note" d="M555.353,169.629 C554.544,169.629 554.14,169.262 554.14,168.528 C554.14,167.285 554.327,166.372 554.701,165.788 C556.259,163.482 559.643,159.17 564.854,152.851 C567.205,149.991 570.237,148.561 573.951,148.561 C575.388,148.561 576.384,148.763 576.938,149.167 C577.791,149.796 578.218,150.552 578.218,151.436 C578.218,152.364 577.469,153.397 575.972,154.535 C574.549,155.613 573.202,156.152 571.929,156.152 C571.435,156.152 571.188,156.1 571.188,155.995 C571.188,155.845 571.427,155.688 571.907,155.523 C572.55,155.284 573.239,154.797 573.973,154.063 C574.812,153.21 575.231,152.439 575.231,151.75 C575.231,151.286 574.909,150.844 574.265,150.425 C573.696,150.065 572.775,149.886 571.502,149.886 C569.645,149.886 567.302,151.757 564.472,155.501 C562.585,158.002 561.058,160.203 559.89,162.104 C560.459,161.79 561.14,161.408 561.934,160.959 C562.907,160.405 563.746,160.128 564.45,160.128 C566.201,160.128 567.077,160.757 567.077,162.015 C567.077,163.257 566.359,164.62 564.921,166.103 C563.903,167.151 563.394,167.929 563.394,168.438 C563.394,168.963 563.903,169.225 564.921,169.225 C565.43,169.225 565.954,169.045 566.493,168.686 C567.033,168.341 567.429,168.169 567.684,168.169 C567.894,168.169 567.998,168.304 567.998,168.573 C567.998,169.007 567.579,169.464 566.741,169.943 C565.333,170.752 564.202,171.156 563.349,171.156 C561.837,171.156 561.08,170.348 561.08,168.73 C561.08,167.712 561.664,166.582 562.832,165.339 C563.686,164.425 564.113,163.52 564.113,162.621 C564.113,161.842 563.693,161.453 562.855,161.453 C562.525,161.453 561.432,161.842 559.576,162.621 C559.021,163.549 558.557,164.403 558.183,165.182 C556.76,168.146 555.817,169.629 555.353,169.629"/>
<path class="Note" d="M555.353,118.605 C554.544,118.605 554.14,118.238 554.14,117.505 C554.14,116.262 554.327,115.348 554.701,114.764 C556.259,112.458 559.643,108.146 564.854,101.827 C567.205,98.9669 570.237,97.5369 573.951,97.5369 C575.388,97.5369 576.384,97.7391 576.938,98.1434 C577.791,98.7723 578.218,99.5284 578.218,100.412 C578.218,101.34 577.469,102.373 575.972,103.512 C574.549,104.59 573.202,105.129 571.929,105.129 C571.435,105.129 571.188,105.076 571.188,104.971 C571.188,104.822 571.427,104.665 571.907,104.5 C572.55,104.26 573.239,103.774 573.973,103.04 C574.812,102.186 575.231,101.415 575.231,100.726 C575.231,100.262 574.909,99.8204 574.265,99.4012 C573.696,99.0418 572.775,98.8621 571.502,98.8621 C569.645,98.8621 567.302,100.734 564.472,104.477 C562.585,106.978 561.058,109.179 559.89,111.081 C560.459,110.766 561.14,110.385 561.934,109.935 C562.907,109.381 563.746,109.104 564.45,109.104 C566.201,109.104 567.077,109.733 567.077,110.991 C567.077,112.234 566.359,113.596 564.921,115.079 C563.903,116.127 563.394,116.906 563.394,117.415 C563.394,117.939 563.903,118.201 564.921,118.201 C565.43,118.201 565.954,118.021 566.493,117.662 C567.033,117.318 567.429,117.145 567.684,117.145 C567.894,117.145 567.998,117.28 567.998,117.55 C567.998,117.984 567.579,118.441 566.741,118.92 C565.333,119.728 564.202,120.133 563.349,120.133 C561.837,120.133 561.08,119.324 561.08,117.707 C561.08,116.689 561.664,115.558 562.832,114.315 C563.686,113.402 564.113,112.496 564.113,111.597 C564.113,110.819 563.693,110.429 562.855,110.429 C562.525,110.429 561.432,110.819 559.576,111.597 C559.021,112.526 558.557,113.379 558.183,114.158 C556.76,117.123 555.817,118.605 555.353,118.605"/>
<path class="Note" d="M569.391,85.8747 C570.229,85.3057 570.836,84.834 571.21,84.4597 C571.899,83.726 572.243,83.0521 572.243,82.4382 C572.243,81.7344 571.854,81.3826 571.076,81.3826 C569.563,81.3826 567.946,82.7152 566.224,85.3806 C565.7,86.1892 564.547,88.8246 562.765,93.2868 C564.187,94.7543 564.899,95.5854 564.899,95.78 C564.899,96.0495 564.727,96.1843 564.382,96.1843 C564.113,96.1843 563.371,95.7276 562.159,94.8142 C560.841,97.8839 558.842,100.504 556.161,102.676 C553.421,104.892 550.149,106 546.346,106 C544.894,106 543.074,105.663 540.888,104.989 C539.136,104.45 538.26,103.589 538.26,102.406 C538.26,100.654 538.934,99.7781 540.282,99.7781 C541.09,99.7781 541.494,100.152 541.494,100.901 C541.494,101.141 541.307,101.395 540.933,101.665 C540.738,101.8 540.641,102.062 540.641,102.451 C540.641,102.915 541.158,103.394 542.191,103.888 C543.314,104.427 544.961,104.697 547.132,104.697 C549.932,104.697 552.635,103.484 555.241,101.058 C557.606,98.8572 559.306,96.2966 560.339,93.3767 C559.935,93.0473 559.501,92.6879 559.036,92.2986 C557.599,91.4451 556.88,90.5691 556.88,89.6706 C556.88,89.2963 557.127,89.1091 557.621,89.1091 C558.28,89.1091 559.171,89.6706 560.294,90.7937 C560.534,91.0333 560.758,91.2579 560.968,91.4675 C561.492,90.03 562.331,88.2032 563.484,85.987 C565.565,81.974 568.096,79.9675 571.076,79.9675 C572.139,79.9675 572.977,80.1697 573.591,80.574 C574.205,80.9783 574.512,81.5323 574.512,82.2361 C574.512,83.3591 574.1,84.31 573.277,85.0886 C572.423,85.8972 571.532,86.3015 570.604,86.3015 C569.795,86.3015 569.391,86.1592 569.391,85.8747"/>
<path class="Note" d="M569.234,124.45 C569.234,126.172 567.272,129.953 563.349,135.793 C561.792,138.114 559.553,139.813 556.633,140.891 C554.477,141.7 551.984,142.104 549.154,142.104 C548.24,142.104 547.432,141.917 546.728,141.543 C545.949,141.139 545.56,140.697 545.56,140.218 C545.56,138.975 546.226,138.353 547.559,138.353 C547.754,138.353 547.851,138.473 547.851,138.713 C547.851,138.922 547.754,139.154 547.559,139.409 C547.319,139.723 547.2,139.956 547.2,140.105 C547.2,140.555 547.873,140.779 549.221,140.779 C552.246,140.779 554.634,140.412 556.386,139.679 C558.213,138.93 560.032,137.021 561.844,133.951 L562.361,132.985 C561.492,133.644 560.631,133.973 559.778,133.973 C557.651,133.973 556.588,133.112 556.588,131.39 C556.588,129.534 557.839,127.58 560.339,125.528 C562.301,123.941 564.045,123.147 565.573,123.147 C566.336,123.147 566.973,123.349 567.482,123.754 C567.661,123.619 567.886,123.552 568.156,123.552 C568.874,123.552 569.234,123.851 569.234,124.45 M562.63,132.514 L566.875,124.675 C566.546,124.6 566.179,124.562 565.775,124.562 C564.322,124.562 562.915,125.408 561.552,127.1 C559.965,129.077 559.171,130.657 559.171,131.84 C559.171,132.618 559.688,133.008 560.721,133.008 C561.215,133.008 561.852,132.843 562.63,132.514"/>
<path class="Note" d="M721.443,158.466 C721.443,160.188 719.482,163.969 715.559,169.809 C714.001,172.13 711.763,173.829 708.843,174.907 C706.687,175.716 704.193,176.12 701.363,176.12 C700.45,176.12 699.641,175.933 698.938,175.559 C698.159,175.154 697.77,174.713 697.77,174.233 C697.77,172.991 698.436,172.369 699.769,172.369 C699.963,172.369 700.061,172.489 700.061,172.729 C700.061,172.938 699.963,173.17 699.769,173.425 C699.529,173.739 699.409,173.971 699.409,174.121 C699.409,174.57 700.083,174.795 701.431,174.795 C704.455,174.795 706.844,174.428 708.596,173.694 C710.423,172.946 712.242,171.036 714.054,167.967 L714.57,167.001 C713.702,167.66 712.841,167.989 711.987,167.989 C709.861,167.989 708.798,167.128 708.798,165.406 C708.798,163.549 710.048,161.595 712.549,159.544 C714.51,157.957 716.255,157.163 717.782,157.163 C718.546,157.163 719.182,157.365 719.691,157.77 C719.871,157.635 720.096,157.567 720.365,157.567 C721.084,157.567 721.443,157.867 721.443,158.466 M714.84,166.529 L719.085,158.69 C718.756,158.616 718.389,158.578 717.984,158.578 C716.532,158.578 715.124,159.424 713.762,161.116 C712.175,163.093 711.381,164.673 711.381,165.855 C711.381,166.634 711.897,167.023 712.931,167.023 C713.425,167.023 714.061,166.859 714.84,166.529"/>
<path class="Note" d="M707.563,118.605 C706.754,118.605 706.35,118.238 706.35,117.505 C706.35,116.262 706.537,115.348 706.911,114.764 C708.468,112.458 711.853,108.146 717.064,101.827 C719.414,98.9669 722.447,97.5369 726.16,97.5369 C727.598,97.5369 728.593,97.7391 729.147,98.1434 C730.001,98.7723 730.428,99.5284 730.428,100.412 C730.428,101.34 729.679,102.373 728.182,103.512 C726.759,104.59 725.411,105.129 724.139,105.129 C723.645,105.129 723.397,105.076 723.397,104.971 C723.397,104.822 723.637,104.665 724.116,104.5 C724.76,104.26 725.449,103.774 726.183,103.04 C727.021,102.186 727.44,101.415 727.44,100.726 C727.44,100.262 727.119,99.8204 726.475,99.4012 C725.906,99.0418 724.985,98.8621 723.712,98.8621 C721.855,98.8621 719.512,100.734 716.682,104.477 C714.795,106.978 713.268,109.179 712.1,111.081 C712.669,110.766 713.35,110.385 714.144,109.935 C715.117,109.381 715.955,109.104 716.659,109.104 C718.411,109.104 719.287,109.733 719.287,110.991 C719.287,112.234 718.568,113.596 717.131,115.079 C716.113,116.127 715.604,116.906 715.604,117.415 C715.604,117.939 716.113,118.201 717.131,118.201 C717.64,118.201 718.164,118.021 718.703,117.662 C719.242,117.318 719.639,117.145 719.894,117.145 C720.103,117.145 720.208,117.28 720.208,117.55 C720.208,117.984 719.789,118.441 718.95,118.92 C717.543,119.728 716.412,120.133 715.559,120.133 C714.046,120.133 713.29,119.324 713.29,117.707 C713.29,116.689 713.874,115.558 715.042,114.315 C715.896,113.402 716.322,112.496 716.322,111.597 C716.322,110.819 715.903,110.429 715.064,110.429 C714.735,110.429 713.642,110.819 711.785,111.597 C711.231,112.526 710.767,113.379 710.393,114.158 C708.97,117.123 708.027,118.605 707.563,118.605"/>
<path class="Note" d="M721.601,85.8747 C722.439,85.3057 723.046,84.834 723.42,84.4597 C724.109,83.726 724.453,83.0521 724.453,82.4382 C724.453,81.7344 724.064,81.3826 723.285,81.3826 C721.773,81.3826 720.156,82.7152 718.434,85.3806 C717.91,86.1892 716.757,88.8246 714.975,93.2868 C716.397,94.7543 717.108,95.5854 717.108,95.78 C717.108,96.0495 716.936,96.1843 716.592,96.1843 C716.322,96.1843 715.581,95.7276 714.368,94.8142 C713.05,97.8839 711.051,100.504 708.371,102.676 C705.631,104.892 702.359,106 698.556,106 C697.103,106 695.284,105.663 693.098,104.989 C691.346,104.45 690.47,103.589 690.47,102.406 C690.47,100.654 691.144,99.7781 692.491,99.7781 C693.3,99.7781 693.704,100.152 693.704,100.901 C693.704,101.141 693.517,101.395 693.143,101.665 C692.948,101.8 692.851,102.062 692.851,102.451 C692.851,102.915 693.367,103.394 694.4,103.888 C695.523,104.427 697.171,104.697 699.342,104.697 C702.142,104.697 704.845,103.484 707.45,101.058 C709.816,98.8572 711.516,96.2966 712.549,93.3767 C712.145,93.0473 711.71,92.6879 711.246,92.2986 C709.809,91.4451 709.09,90.5691 709.09,89.6706 C709.09,89.2963 709.337,89.1091 709.831,89.1091 C710.49,89.1091 711.381,89.6706 712.504,90.7937 C712.744,91.0333 712.968,91.2579 713.178,91.4675 C713.702,90.03 714.54,88.2032 715.693,85.987 C717.775,81.974 720.305,79.9675 723.285,79.9675 C724.348,79.9675 725.187,80.1697 725.801,80.574 C726.415,80.9783 726.722,81.5323 726.722,82.2361 C726.722,83.3591 726.31,84.31 725.486,85.0886 C724.633,85.8972 723.742,86.3015 722.814,86.3015 C722.005,86.3015 721.601,86.1592 721.601,85.8747"/>
<path class="Note" d="M721.601,119.89 C722.439,119.321 723.046,118.85 723.42,118.475 C724.109,117.742 724.453,117.068 724.453,116.454 C724.453,115.75 724.064,115.398 723.285,115.398 C721.773,115.398 720.156,116.731 718.434,119.396 C717.91,120.205 716.757,122.84 714.975,127.303 C716.397,128.77 717.108,129.601 717.108,129.796 C717.108,130.065 716.936,130.2 716.592,130.2 C716.322,130.2 715.581,129.743 714.368,128.83 C713.05,131.9 711.051,134.52 708.371,136.691 C705.631,138.907 702.359,140.015 698.556,140.015 C697.103,140.015 695.284,139.679 693.098,139.005 C691.346,138.466 690.47,137.605 690.47,136.422 C690.47,134.67 691.144,133.794 692.491,133.794 C693.3,133.794 693.704,134.168 693.704,134.917 C693.704,135.156 693.517,135.411 693.143,135.681 C692.948,135.815 692.851,136.077 692.851,136.467 C692.851,136.931 693.367,137.41 694.4,137.904 C695.523,138.443 697.171,138.713 699.342,138.713 C702.142,138.713 704.845,137.5 707.45,135.074 C709.816,132.873 711.516,130.312 712.549,127.392 C712.145,127.063 711.71,126.704 711.246,126.314 C709.809,125.461 709.09,124.585 709.09,123.686 C709.09,123.312 709.337,123.125 709.831,123.125 C710.49,123.125 711.381,123.686 712.504,124.809 C712.744,125.049 712.968,125.274 713.178,125.483 C713.702,124.046 714.54,122.219 715.693,120.003 C717.775,115.99 720.305,113.983 723.285,113.983 C724.348,113.983 725.187,114.185 725.801,114.59 C726.415,114.994 726.722,115.548 726.722,116.252 C726.722,117.375 726.31,118.326 725.486,119.104 C724.633,119.913 723.742,120.317 722.814,120.317 C722.005,120.317 721.601,120.175 721.601,119.89"/>
<path class="Clef" transform="matrix(0.453543,0,0,0.453543,40.4189,417.755)" d="M25.4,-25.1 C17.8,-25.1 11.7,-20.7 11.6,-20.7 C5.8,-16.4 3.5,-11.3 2.6,-7.8 C2.1,-6 1.9,-4.2 1.9,-2.5 C1.9,-0.1 2.3,2.1 3.2,4 C4.4,6.7 6.7,8.6 9.7,9.6 C10.9,10 12.2,10.2 13.5,10.2 C15.7,10.2 18,9.6 19.9,8.5 C23,6.8 24.9,3.2 24.9,-0.7 C24.9,-4.2 23.1,-7.4 20.1,-9.3 C18,-10.7 16,-11.1 14.3,-11.1 C13.1,-11.1 12,-10.9 11.1,-10.6 C10.1,-10.2 8.4,-9.2 7.6,-8.5 C7.9,-10.4 9.1,-13.3 10.2,-14.9 C11.3,-16.5 13.5,-18.5 15.2,-19.4 C17.7,-20.8 20.9,-21.4 24.4,-21.4 C34.6,-21.4 39.6,-13.2 39.6,3.6 C39.6,12.9 36.1,21.8 33.1,27.7 C29.8,34.3 25.4,40.6 21.5,44.1 C11.1,53.6 1.3,58.1 1.2,58.1 C1.2,58.1 -0.3,59 0.1,60.5 C0.4,61.5 1.3,61.7 1.9,61.7 C2,61.7 2.3,61.6 2.4,61.6 C2.5,61.6 13.9,56.9 23,49.8 C28.1,46.1 32.7,42.1 36.7,37.8 C40.3,33.9 43.4,29.7 45.9,25.5 C50.3,18 52.8,10.2 52.8,3.5 C52.8,-4.8 50.6,-11.7 46.5,-16.6 C41.8,-22.2 34.7,-25.1 25.4,-25.1 M56.8,-12.4 C56.8,-9.6 59,-7.4 61.6,-7.4 C64.2,-7.4 66.4,-9.6 66.4,-12.4 C66.4,-15.2 64.2,-17.5 61.6,-17.5 C59,-17.5 56.8,-15.2 56.8,-12.4 M56.8,12.3 C56.8,15.1 59,17.4 61.6,17.4 C64.2,17.4 66.4,15.1 66.4,12.3 C66.4,9.5 64.2,7.2 61.6,7.2 C59,7.2 56.8,9.5 56.8,12.3"/>
<path class="Clef" transform="matrix(0.453543,0,0,0.453543,40.4189,300.472)" d="M63.37,-5.89004 C62.14,-11.32 59.5,-15.14 58.72,-16.1801 C55.5301,-20.45 51.52,-23.3 46.8301,-24.65 C43.72,-25.54 40.72,-25.65 38.3,-25.47 C37.2601,-31.4801 36.2601,-37.3601 35.35,-42.8101 C40.79,-48.97 44.42,-54.77 46.69,-59.07 C50.1601,-65.65 51.3101,-70.2301 51.3601,-70.4301 C53.0801,-75.64 53.44,-83.34 52.34,-91.55 C51.3301,-99.1 49.24,-105.81 46.89,-109.06 C45.8601,-110.49 44.8101,-111.22 43.77,-111.22 C42.55,-111.22 40.04,-109.98 37.15,-107.21 C34.85,-105.01 31.5801,-101.12 29.02,-95.1101 C26.02,-88.05 25.8101,-78.5601 26.1601,-71.84 C26.54,-64.57 27.65,-58.8801 27.6601,-58.8301 C27.6801,-58.74 27.94,-57.24 28.39,-54.67 C28.1601,-54.44 27.92,-54.22 27.67,-53.9801 C26.6301,-52.9801 25.44,-51.84 24.0601,-50.4601 C23.2,-49.6 22.25,-48.69 21.25,-47.72 C12.79,-39.57 0,-27.25 0,-8.1 C0,-3.4 0.9,1.01992 2.68008,5.02998 C4.27002,8.62998 6.57002,11.91 9.5,14.78 C17.2301,22.33 27.82,25.5399 34.8801,25.38 C37.8301,25.31 40.4601,25.0699 42.85,24.6199 C44.6801,34.2199 45.82,41.25 45.8601,46.5899 C45.9,53.1 44.25,57.0699 40.35,59.8399 C37.92,61.5699 35.1101,62.5199 32.0101,62.6699 C29.42,62.7899 27.1601,62.3199 25.7301,61.91 L25.72,61.91 C25.72,61.91 25.4301,61.83 25.42,61.63 C25.4101,61.45 25.7601,61.4 25.77,61.4 L25.79,61.4 C27.7101,60.96 31.2801,59.73 33.64,56.43 C35.44,53.91 36.3101,49.2899 34.47,45.35 C33.3601,42.96 30.85,40.01 25.2301,39.56 C22.74,39.36 20.47,39.8699 18.47,41.0699 C16.6601,42.15 15.1601,43.7899 14.1101,45.7899 C11.65,50.4899 12.1101,56.2199 15.24,60.06 C18.2,63.68 22.82,65.9899 28.25,66.5699 C29.1,66.66 29.95,66.7 30.8,66.7 C31.5101,66.7 32.22,66.6699 32.92,66.61 C31.72,66.9399 30.64,67.4899 29.77,68.25 C28.2801,69.5399 27.44,71.38 27.44,73.41 C27.44,75.28 28.0601,76.65 29.55,78.0399 C28.4101,78.5 27.55,78.98 26.79,79.56 C25.25,80.73 24.34,82.46 24.34,84.1899 C24.34,87.45 27.3,89.63 31.72,89.63 C37.1301,89.63 40.9101,86.63 40.9101,82.35 C40.9101,80.1199 39.9101,78.18 38.0801,76.83 C41.0101,75.6199 42.37,73.9399 42.37,71.56 C42.39,70.05 41.69,68.61 40.49,67.6899 C39.2801,66.7399 37.62,66.2399 35.69,66.2399 L35.5101,66.2399 C38.2801,65.7 40.92,64.7 43.2101,63.28 C46.87,60.71 48.99,56.73 49.67,51.1 C50.2301,46.46 49.84,40.55 48.44,32.48 C48.0801,30.3899 47.54,27.36 46.8801,23.6 C52.6301,21.68 56.79,18.11 60.5601,12.26 C63.85,6.51992 64.8,0.419922 63.37,-5.89004 M32.39,87.5399 C30.19,87.5399 28.7301,86.1199 28.7301,84.01 C28.7301,82.11 29.65,80.5 31.32,79.4699 C31.6801,79.66 31.77,79.71 32.1101,79.88 C33.3,80.48 33.3,80.48 33.55,80.63 L33.5601,80.6399 C35.47,81.73 36.25,82.76 36.25,84.18 C36.24,86.0899 34.59,87.5399 32.39,87.5399 M38.3101,71.63 C38.3101,73.2699 37.7301,74.3399 36.1801,75.53 C34.74,74.78 34.35,74.56 33.9801,74.3399 L33.8801,74.28 C32.3301,73.3399 31.85,72.66 31.85,71.4 C31.85,69.6 33.2301,68.3399 35.19,68.3399 C37.17,68.35 38.3101,69.55 38.3101,71.63 M33.15,-83.8101 C34.9301,-89.55 37.67,-92.8 39.6601,-94.5301 C41.4101,-96.05 43.0601,-96.7601 43.9801,-96.7601 C44.12,-96.7601 44.24,-96.74 44.34,-96.7101 C44.8,-96.57 45.3301,-96 45.8,-95.1301 C48.1101,-90.84 47.37,-84.1301 46.0301,-79.69 C44.4,-74.29 41.4801,-68.6801 32.69,-59.0601 C32.52,-60.17 32.3601,-61.22 32.2101,-62.2 C30.95,-70.49 31.27,-77.7601 33.15,-83.8101 M29.15,20.31 C24.5101,19.0899 20.0801,16.5899 16.32,13.0899 C15.0101,11.86 13.14,9.68994 11.67,6.3 C10.3101,3.13994 9.65,-0.290039 9.7,-3.88008 C9.77002,-8.57002 11.0801,-13.39 13.59,-18.1801 C16.5101,-23.7601 21.07,-29.29 27.1301,-34.62 C28.5801,-35.9 29.95,-37.1801 31.24,-38.4601 C32,-34.2 32.8301,-29.5101 33.7101,-24.6301 C29.8601,-23.3601 25.1101,-20.2101 22,-14.5601 C18.47,-7.99004 18.6101,-2.47002 19.34,1.00996 C20.2801,5.46992 22.8101,9.22998 26.27,11.3199 C27.2,11.88 31.3301,14.01 33.17,13.43 C33.54,13.31 33.8101,13.0899 33.95,12.76 C34.4601,11.5899 33.44,10.95 31.8801,9.98994 C31.2801,9.61992 30.6101,9.2 29.8801,8.66992 C26.5601,6.17998 25.1101,1.72998 26.1801,-2.65 C26.7601,-5.05 28.04,-7.21006 29.8801,-8.91006 C31.55,-10.4601 33.59,-11.5601 35.97,-12.2 C38.0101,-0.960059 40.07,10.1899 41.7101,18.55 C41.84,19.2399 41.9801,19.91 42.1101,20.58 C37.7101,21.51 33.37,21.4199 29.15,20.31 M54.9,10.1 C53.7301,13.28 51.27,17.35 46.14,19.41 C46.07,18.9899 45.99,18.56 45.9101,18.13 C44.3601,9.36992 42.4301,-1.61006 40.47,-12.87 C50.82,-13.35 55.09,-5.91006 55.9801,-1.08008 C56.45,1.45 56.45,5.88994 54.9,10.1"/>
<path class="FiguredBass" d="M122.33,477.2 C122.776,477.2 123.244,477.136 123.737,477.007 L124.528,476.796 C124.68,476.796 124.8,476.854 124.888,476.972 C124.976,477.089 124.967,477.194 124.862,477.288 L116.688,486.798 L121.487,486.798 L121.487,483.036 C121.487,482.766 121.56,482.558 121.706,482.412 C121.853,482.265 122.04,482.148 122.269,482.06 C122.497,481.972 122.796,481.712 123.165,481.278 C123.534,480.845 123.889,480.259 124.229,479.52 C124.287,479.403 124.375,479.345 124.492,479.345 C124.738,479.345 124.862,479.479 124.862,479.749 L124.862,486.798 L126.936,486.798 C127.229,486.798 127.375,486.932 127.375,487.202 C127.375,487.495 127.229,487.641 126.936,487.641 L124.862,487.641 L124.862,487.87 C124.862,488.597 125.055,489.229 125.442,489.768 C125.828,490.307 126.326,490.577 126.936,490.577 C127.17,490.577 127.287,490.682 127.287,490.893 C127.287,491.128 127.17,491.245 126.936,491.245 C126.514,491.245 125.887,491.183 125.055,491.06 C124.223,490.937 123.593,490.876 123.165,490.876 C122.737,490.876 122.108,490.937 121.276,491.06 C120.444,491.183 119.817,491.245 119.395,491.245 C119.16,491.245 119.043,491.128 119.043,490.893 C119.043,490.682 119.16,490.577 119.395,490.577 C120.004,490.577 120.505,490.307 120.898,489.768 C121.29,489.229 121.487,488.597 121.487,487.87 L121.487,487.641 L116.688,487.641 C116.383,487.641 116.157,487.568 116.011,487.422 C115.864,487.275 115.791,487.126 115.791,486.973 C115.791,486.915 115.929,486.713 116.204,486.367 C116.48,486.021 116.817,485.561 117.215,484.987 C117.613,484.413 118.009,483.76 118.402,483.027 C118.794,482.295 119.128,481.416 119.403,480.39 C119.679,479.365 119.817,478.331 119.817,477.288 C119.817,476.983 119.945,476.831 120.203,476.831 C120.238,476.831 120.362,476.86 120.572,476.919 C120.783,476.977 121.053,477.039 121.381,477.103 C121.709,477.168 122.026,477.2 122.33,477.2"/>
<path class="FiguredBass" d="M124.703,503.63 C124.703,503.817 124.809,503.999 125.02,504.175 C125.231,504.35 125.462,504.517 125.714,504.676 C125.966,504.834 126.197,505.133 126.408,505.572 C126.619,506.012 126.725,506.565 126.725,507.233 C126.725,508.522 126.238,509.518 125.266,510.222 C124.293,510.925 123.063,511.276 121.574,511.276 C120.379,511.276 119.339,510.977 118.454,510.38 C117.57,509.782 117.127,508.997 117.127,508.024 C117.127,507.509 117.315,507.06 117.69,506.68 C118.065,506.299 118.513,506.108 119.034,506.108 C119.556,506.108 119.998,506.296 120.362,506.671 C120.725,507.046 120.906,507.497 120.906,508.024 C120.906,508.259 120.713,508.514 120.326,508.789 C119.94,509.064 119.746,509.319 119.746,509.554 C119.746,509.917 119.925,510.183 120.282,510.353 C120.64,510.523 121.07,510.608 121.574,510.608 C122.231,510.608 122.696,510.283 122.972,509.633 C123.247,508.982 123.385,508.182 123.385,507.233 L123.385,506.776 C123.385,506.143 123.364,505.663 123.323,505.335 C123.282,505.007 123.153,504.714 122.937,504.456 C122.72,504.198 122.389,504.069 121.944,504.069 L119.641,504.069 C119.371,504.069 119.237,503.923 119.237,503.63 C119.237,503.36 119.371,503.225 119.641,503.225 L121.944,503.225 C122.424,503.225 122.799,503.044 123.069,502.681 C123.162,502.552 123.238,502.341 123.297,502.048 C123.356,501.661 123.385,501.104 123.385,500.378 L123.385,500.149 C123.385,498.403 122.74,497.53 121.451,497.53 C120.315,497.53 119.746,497.847 119.746,498.479 C119.746,498.69 119.919,498.916 120.265,499.156 C120.611,499.396 120.783,499.622 120.783,499.833 C120.783,500.29 120.622,500.682 120.3,501.011 C119.978,501.339 119.585,501.503 119.122,501.503 C118.659,501.503 118.27,501.339 117.953,501.011 C117.637,500.682 117.479,500.29 117.479,499.833 C117.479,498.931 117.871,498.21 118.656,497.671 C119.442,497.132 120.373,496.862 121.451,496.862 C122.869,496.862 124.035,497.135 124.949,497.68 C125.863,498.224 126.32,499.048 126.32,500.149 C126.32,500.934 126.238,501.544 126.074,501.977 C125.91,502.411 125.723,502.675 125.512,502.768 C125.301,502.862 125.113,502.971 124.949,503.094 C124.785,503.217 124.703,503.395 124.703,503.63"/>
<path class="FiguredBass" d="M270.717,489.417 L270.717,493.091 C270.717,493.454 270.532,493.636 270.163,493.636 C269.794,493.636 269.609,493.454 269.609,493.091 L269.609,489.891 L269.047,490.12 C268.988,490.143 268.912,490.155 268.818,490.155 C268.666,490.155 268.531,490.097 268.414,489.979 C268.297,489.862 268.238,489.727 268.238,489.575 L268.238,487.782 C268.238,487.524 268.361,487.343 268.607,487.237 L269.609,486.815 L269.609,483.124 L269.047,483.352 C269.012,483.364 268.965,483.37 268.906,483.37 C268.883,483.37 268.854,483.37 268.818,483.37 C268.643,483.347 268.502,483.282 268.397,483.177 C268.291,483.071 268.238,482.948 268.238,482.807 L268.238,481.014 C268.238,480.768 268.361,480.593 268.607,480.487 L269.609,480.065 L269.609,476.321 C269.609,475.958 269.794,475.776 270.163,475.776 C270.532,475.776 270.717,475.958 270.717,476.321 L270.717,479.608 L272.984,478.659 L272.984,474.985 C272.984,474.622 273.166,474.44 273.529,474.44 C273.893,474.44 274.074,474.622 274.074,474.985 L274.074,478.22 L274.69,477.956 C274.748,477.932 274.813,477.921 274.883,477.921 C275.035,477.921 275.173,477.979 275.296,478.097 C275.419,478.214 275.481,478.348 275.481,478.501 L275.481,480.294 C275.481,480.552 275.352,480.733 275.094,480.839 L274.074,481.261 L274.074,484.97 L274.69,484.723 C274.725,484.712 274.766,484.706 274.813,484.706 C274.836,484.706 274.859,484.706 274.883,484.706 C275.082,484.741 275.231,484.806 275.331,484.899 C275.431,484.993 275.481,485.116 275.481,485.268 L275.481,487.061 C275.481,487.307 275.352,487.483 275.094,487.589 L274.074,488.011 L274.074,491.755 C274.074,492.118 273.893,492.3 273.529,492.3 C273.166,492.3 272.984,492.118 272.984,491.755 L272.984,488.468 L270.717,489.417 M270.717,486.358 L272.984,485.427 L272.984,481.718 L270.717,482.667 L270.717,486.358 "/>
<path class="FiguredBass" d="M561.092,491.245 C559.956,491.245 559.13,490.929 558.614,490.296 C558.426,490.061 558.186,489.845 557.893,489.645 C557.6,489.446 557.278,489.347 556.926,489.347 C556.469,489.347 556.059,489.49 555.696,489.777 C555.333,490.064 555.151,490.448 555.151,490.929 C555.151,491.139 555.046,491.245 554.835,491.245 C554.6,491.245 554.483,491.139 554.483,490.929 C554.483,490.214 554.65,489.56 554.984,488.969 C555.318,488.377 555.737,487.879 556.241,487.474 C556.745,487.07 557.29,486.637 557.876,486.174 C558.462,485.711 559.004,485.263 559.502,484.829 C560,484.395 560.416,483.847 560.75,483.185 C561.084,482.523 561.251,481.8 561.251,481.014 C561.251,480.03 561.09,479.198 560.767,478.518 C560.445,477.839 559.938,477.499 559.247,477.499 C558.848,477.499 558.503,477.596 558.21,477.789 C557.917,477.982 557.77,478.237 557.77,478.554 C557.77,478.8 557.937,479.122 558.271,479.52 C558.605,479.919 558.772,480.253 558.772,480.522 C558.772,481.085 558.582,481.556 558.201,481.937 C557.82,482.318 557.36,482.509 556.821,482.509 C556.258,482.509 555.787,482.312 555.406,481.92 C555.025,481.527 554.835,481.061 554.835,480.522 C554.835,479.444 555.265,478.559 556.127,477.868 C556.988,477.177 558.028,476.831 559.247,476.831 C560.688,476.831 561.945,477.221 563.017,478 C564.09,478.779 564.626,479.784 564.626,481.014 C564.626,481.847 564.476,482.567 564.177,483.177 C563.879,483.786 563.451,484.278 562.894,484.653 C562.338,485.028 561.781,485.347 561.224,485.611 C560.668,485.875 560.014,486.159 559.264,486.464 C558.514,486.768 557.911,487.067 557.454,487.36 C557.7,487.302 557.952,487.272 558.21,487.272 C559.077,487.272 559.979,487.554 560.917,488.116 C561.854,488.679 562.592,488.96 563.132,488.96 C563.436,488.96 563.685,488.904 563.879,488.793 C564.072,488.681 564.198,488.558 564.257,488.424 C564.315,488.289 564.382,488.163 564.459,488.046 C564.535,487.929 564.62,487.87 564.714,487.87 C564.948,487.87 565.065,487.987 565.065,488.222 C565.065,488.725 564.702,489.355 563.975,490.111 C563.249,490.867 562.288,491.245 561.092,491.245"/>
<path class="FiguredBass" d="M712.511,477.499 C711.644,477.499 711.067,477.847 710.78,478.545 C710.493,479.242 710.349,480.229 710.349,481.507 L710.349,483.581 C710.958,483.335 711.486,483.206 711.931,483.194 C713.454,483.194 714.653,483.531 715.526,484.205 C716.399,484.879 716.835,485.881 716.835,487.211 C716.835,488.541 716.393,489.546 715.508,490.225 C714.623,490.905 713.431,491.245 711.931,491.245 C710.396,491.245 709.195,490.533 708.328,489.109 C707.46,487.685 707.027,485.995 707.027,484.038 C707.027,482.093 707.531,480.405 708.538,478.975 C709.546,477.546 710.87,476.831 712.511,476.831 C713.589,476.831 714.521,477.103 715.306,477.648 C716.091,478.193 716.484,478.911 716.484,479.802 C716.484,480.317 716.296,480.763 715.921,481.138 C715.546,481.513 715.098,481.7 714.577,481.7 C714.055,481.7 713.607,481.513 713.232,481.138 C712.857,480.763 712.669,480.317 712.669,479.802 C712.669,479.298 712.857,478.852 713.232,478.466 C713.361,478.313 713.542,478.184 713.777,478.079 C713.718,477.927 713.601,477.809 713.425,477.727 C713.167,477.575 712.863,477.499 712.511,477.499 M713.372,484.688 C713.162,484.138 712.699,483.862 711.984,483.862 C711.269,483.862 710.827,484.138 710.657,484.688 C710.487,485.239 710.402,486.077 710.402,487.202 C710.402,488.526 710.487,489.417 710.657,489.874 C710.827,490.331 711.269,490.559 711.984,490.559 C712.699,490.559 713.162,490.284 713.372,489.733 C713.583,489.182 713.689,488.342 713.689,487.211 C713.689,486.08 713.583,485.239 713.372,484.688"/>
<path class="FiguredBass" d="M708.222,496.862 L709.066,496.985 C709.288,497.02 709.564,497.056 709.892,497.091 C710.701,497.184 711.48,497.231 712.23,497.231 C712.98,497.231 713.771,497.184 714.603,497.091 C714.931,497.056 715.218,497.02 715.464,496.985 L716.326,496.862 C716.501,496.862 716.636,496.921 716.73,497.038 C716.8,497.132 716.788,497.225 716.695,497.319 C714.867,499.112 712.341,500.009 709.119,500.009 C708.99,500.009 708.875,500.056 708.776,500.149 C708.676,500.243 708.626,500.36 708.626,500.501 L708.626,502.733 C709.458,501.913 710.466,501.503 711.65,501.503 C713.302,501.503 714.591,501.889 715.517,502.663 C716.525,501.901 717.052,500.929 717.099,499.745 C717.111,499.37 717.234,499.065 717.468,498.831 C717.726,498.597 718.037,498.479 718.4,498.479 C718.763,498.479 719.071,498.602 719.323,498.848 C719.575,499.095 719.701,499.393 719.701,499.745 C719.701,501.561 718.628,502.938 716.484,503.876 C716.835,504.567 717.011,505.411 717.011,506.407 C717.011,507.731 716.484,508.874 715.429,509.835 C714.374,510.796 713.115,511.276 711.65,511.276 C710.384,511.276 709.286,510.989 708.354,510.415 C707.422,509.841 706.956,509.044 706.956,508.024 C706.956,507.509 707.144,507.06 707.519,506.68 C707.894,506.299 708.342,506.108 708.864,506.108 C709.385,506.108 709.828,506.296 710.191,506.671 C710.554,507.046 710.736,507.497 710.736,508.024 C710.736,508.259 710.542,508.514 710.156,508.789 C709.769,509.064 709.576,509.319 709.576,509.554 C709.576,510.257 710.267,510.608 711.65,510.608 C712.997,510.608 713.671,509.208 713.671,506.407 C713.671,505.786 713.636,505.241 713.566,504.772 C712.148,505.065 710.372,505.294 708.24,505.458 C707.947,505.481 707.8,505.335 707.8,505.018 C707.8,504.761 707.947,504.62 708.24,504.597 C710.396,504.421 712.095,504.139 713.337,503.753 C713.009,502.815 712.447,502.341 711.65,502.329 C710.443,502.329 709.599,502.575 709.119,503.067 C708.638,503.559 708.339,503.806 708.222,503.806 C707.941,503.806 707.8,503.659 707.8,503.366 L707.8,497.319 C707.8,497.202 707.841,497.097 707.923,497.003 C708.017,496.909 708.117,496.862 708.222,496.862"/>
<path class="FiguredBass" d="M122.453,337.539 C121.586,337.539 121.009,337.888 120.722,338.585 C120.435,339.282 120.291,340.269 120.291,341.547 L120.291,343.621 C120.901,343.375 121.428,343.246 121.873,343.234 C123.397,343.234 124.595,343.571 125.468,344.245 C126.341,344.919 126.778,345.921 126.778,347.251 C126.778,348.581 126.335,349.586 125.45,350.266 C124.566,350.945 123.373,351.285 121.873,351.285 C120.338,351.285 119.137,350.573 118.27,349.149 C117.403,347.725 116.969,346.035 116.969,344.078 C116.969,342.133 117.473,340.445 118.481,339.016 C119.488,337.586 120.813,336.871 122.453,336.871 C123.531,336.871 124.463,337.143 125.248,337.688 C126.033,338.233 126.426,338.951 126.426,339.842 C126.426,340.357 126.238,340.803 125.863,341.178 C125.488,341.553 125.04,341.74 124.519,341.74 C123.997,341.74 123.549,341.553 123.174,341.178 C122.799,340.803 122.612,340.357 122.612,339.842 C122.612,339.338 122.799,338.892 123.174,338.506 C123.303,338.353 123.485,338.225 123.719,338.119 C123.66,337.967 123.543,337.85 123.367,337.767 C123.11,337.615 122.805,337.539 122.453,337.539 M123.315,344.728 C123.104,344.178 122.641,343.902 121.926,343.902 C121.211,343.902 120.769,344.178 120.599,344.728 C120.429,345.279 120.344,346.117 120.344,347.242 C120.344,348.566 120.429,349.457 120.599,349.914 C120.769,350.371 121.211,350.6 121.926,350.6 C122.641,350.6 123.104,350.324 123.315,349.773 C123.526,349.223 123.631,348.382 123.631,347.251 C123.631,346.12 123.526,345.279 123.315,344.728"/>
<path class="FiguredBass" d="M122.33,357.271 C122.776,357.271 123.244,357.207 123.737,357.078 L124.528,356.867 C124.68,356.867 124.8,356.926 124.888,357.043 C124.976,357.16 124.967,357.266 124.862,357.359 L116.688,366.869 L121.487,366.869 L121.487,363.107 C121.487,362.838 121.56,362.63 121.706,362.483 C121.853,362.337 122.04,362.22 122.269,362.132 C122.497,362.044 122.796,361.783 123.165,361.35 C123.534,360.916 123.889,360.33 124.229,359.592 C124.287,359.475 124.375,359.416 124.492,359.416 C124.738,359.416 124.862,359.551 124.862,359.82 L124.862,366.869 L126.936,366.869 C127.229,366.869 127.375,367.004 127.375,367.273 C127.375,367.566 127.229,367.713 126.936,367.713 L124.862,367.713 L124.862,367.941 C124.862,368.668 125.055,369.301 125.442,369.84 C125.828,370.379 126.326,370.648 126.936,370.648 C127.17,370.648 127.287,370.754 127.287,370.965 C127.287,371.199 127.17,371.316 126.936,371.316 C126.514,371.316 125.887,371.255 125.055,371.132 C124.223,371.009 123.593,370.947 123.165,370.947 C122.737,370.947 122.108,371.009 121.276,371.132 C120.444,371.255 119.817,371.316 119.395,371.316 C119.16,371.316 119.043,371.199 119.043,370.965 C119.043,370.754 119.16,370.648 119.395,370.648 C120.004,370.648 120.505,370.379 120.898,369.84 C121.29,369.301 121.487,368.668 121.487,367.941 L121.487,367.713 L116.688,367.713 C116.383,367.713 116.157,367.64 116.011,367.493 C115.864,367.347 115.791,367.197 115.791,367.045 C115.791,366.986 115.929,366.784 116.204,366.438 C116.48,366.093 116.817,365.633 117.215,365.059 C117.613,364.484 118.009,363.831 118.402,363.099 C118.794,362.366 119.128,361.487 119.403,360.462 C119.679,359.436 119.817,358.402 119.817,357.359 C119.817,357.055 119.945,356.902 120.203,356.902 C120.238,356.902 120.362,356.932 120.572,356.99 C120.783,357.049 121.053,357.11 121.381,357.175 C121.709,357.239 122.026,357.271 122.33,357.271"/>
<path class="FiguredBass" d="M124.703,383.701 C124.703,383.889 124.809,384.07 125.02,384.246 C125.231,384.422 125.462,384.589 125.714,384.747 C125.966,384.905 126.197,385.204 126.408,385.643 C126.619,386.083 126.725,386.637 126.725,387.305 C126.725,388.594 126.238,389.59 125.266,390.293 C124.293,390.996 123.063,391.348 121.574,391.348 C120.379,391.348 119.339,391.049 118.454,390.451 C117.57,389.853 117.127,389.068 117.127,388.096 C117.127,387.58 117.315,387.132 117.69,386.751 C118.065,386.37 118.513,386.18 119.034,386.18 C119.556,386.18 119.998,386.367 120.362,386.742 C120.725,387.117 120.906,387.568 120.906,388.096 C120.906,388.33 120.713,388.585 120.326,388.86 C119.94,389.136 119.746,389.391 119.746,389.625 C119.746,389.988 119.925,390.255 120.282,390.425 C120.64,390.595 121.07,390.68 121.574,390.68 C122.231,390.68 122.696,390.354 122.972,389.704 C123.247,389.054 123.385,388.254 123.385,387.305 L123.385,386.848 C123.385,386.215 123.364,385.734 123.323,385.406 C123.282,385.078 123.153,384.785 122.937,384.527 C122.72,384.269 122.389,384.141 121.944,384.141 L119.641,384.141 C119.371,384.141 119.237,383.994 119.237,383.701 C119.237,383.432 119.371,383.297 119.641,383.297 L121.944,383.297 C122.424,383.297 122.799,383.115 123.069,382.752 C123.162,382.623 123.238,382.412 123.297,382.119 C123.356,381.732 123.385,381.176 123.385,380.449 L123.385,380.221 C123.385,378.475 122.74,377.601 121.451,377.601 C120.315,377.601 119.746,377.918 119.746,378.551 C119.746,378.762 119.919,378.987 120.265,379.227 C120.611,379.468 120.783,379.693 120.783,379.904 C120.783,380.361 120.622,380.754 120.3,381.082 C119.978,381.41 119.585,381.574 119.122,381.574 C118.659,381.574 118.27,381.41 117.953,381.082 C117.637,380.754 117.479,380.361 117.479,379.904 C117.479,379.002 117.871,378.281 118.656,377.742 C119.442,377.203 120.373,376.934 121.451,376.934 C122.869,376.934 124.035,377.206 124.949,377.751 C125.863,378.296 126.32,379.119 126.32,380.221 C126.32,381.006 126.238,381.615 126.074,382.049 C125.91,382.482 125.723,382.746 125.512,382.84 C125.301,382.934 125.113,383.042 124.949,383.165 C124.785,383.288 124.703,383.467 124.703,383.701"/>
<path class="FiguredBass" d="M560.301,337.539 C559.434,337.539 558.857,337.888 558.57,338.585 C558.283,339.282 558.139,340.269 558.139,341.547 L558.139,343.621 C558.749,343.375 559.276,343.246 559.721,343.234 C561.245,343.234 562.443,343.571 563.316,344.245 C564.189,344.919 564.626,345.921 564.626,347.251 C564.626,348.581 564.183,349.586 563.299,350.266 C562.414,350.945 561.221,351.285 559.721,351.285 C558.186,351.285 556.985,350.573 556.118,349.149 C555.251,347.725 554.817,346.035 554.817,344.078 C554.817,342.133 555.321,340.445 556.329,339.016 C557.337,337.586 558.661,336.871 560.301,336.871 C561.38,336.871 562.311,337.143 563.096,337.688 C563.882,338.233 564.274,338.951 564.274,339.842 C564.274,340.357 564.087,340.803 563.712,341.178 C563.337,341.553 562.888,341.74 562.367,341.74 C561.845,341.74 561.397,341.553 561.022,341.178 C560.647,340.803 560.46,340.357 560.46,339.842 C560.46,339.338 560.647,338.892 561.022,338.506 C561.151,338.353 561.333,338.225 561.567,338.119 C561.508,337.967 561.391,337.85 561.215,337.767 C560.958,337.615 560.653,337.539 560.301,337.539 M561.163,344.728 C560.952,344.178 560.489,343.902 559.774,343.902 C559.059,343.902 558.617,344.178 558.447,344.728 C558.277,345.279 558.192,346.117 558.192,347.242 C558.192,348.566 558.277,349.457 558.447,349.914 C558.617,350.371 559.059,350.6 559.774,350.6 C560.489,350.6 560.952,350.324 561.163,349.773 C561.374,349.223 561.479,348.382 561.479,347.251 C561.479,346.12 561.374,345.279 561.163,344.728"/>
<path class="FiguredBass" d="M560.178,357.271 C560.624,357.271 561.092,357.207 561.585,357.078 L562.376,356.867 C562.528,356.867 562.648,356.926 562.736,357.043 C562.824,357.16 562.815,357.266 562.71,357.359 L554.536,366.869 L559.335,366.869 L559.335,363.107 C559.335,362.838 559.408,362.63 559.554,362.483 C559.701,362.337 559.888,362.22 560.117,362.132 C560.345,362.044 560.644,361.783 561.013,361.35 C561.382,360.916 561.737,360.33 562.077,359.592 C562.135,359.475 562.223,359.416 562.34,359.416 C562.587,359.416 562.71,359.551 562.71,359.82 L562.71,366.869 L564.784,366.869 C565.077,366.869 565.223,367.004 565.223,367.273 C565.223,367.566 565.077,367.713 564.784,367.713 L562.71,367.713 L562.71,367.941 C562.71,368.668 562.903,369.301 563.29,369.84 C563.676,370.379 564.174,370.648 564.784,370.648 C565.018,370.648 565.135,370.754 565.135,370.965 C565.135,371.199 565.018,371.316 564.784,371.316 C564.362,371.316 563.735,371.255 562.903,371.132 C562.071,371.009 561.441,370.947 561.013,370.947 C560.586,370.947 559.956,371.009 559.124,371.132 C558.292,371.255 557.665,371.316 557.243,371.316 C557.008,371.316 556.891,371.199 556.891,370.965 C556.891,370.754 557.008,370.648 557.243,370.648 C557.852,370.648 558.353,370.379 558.746,369.84 C559.138,369.301 559.335,368.668 559.335,367.941 L559.335,367.713 L554.536,367.713 C554.231,367.713 554.006,367.64 553.859,367.493 C553.713,367.347 553.639,367.197 553.639,367.045 C553.639,366.986 553.777,366.784 554.052,366.438 C554.328,366.093 554.665,365.633 555.063,365.059 C555.462,364.484 555.857,363.831 556.25,363.099 C556.642,362.366 556.976,361.487 557.252,360.462 C557.527,359.436 557.665,358.402 557.665,357.359 C557.665,357.055 557.794,356.902 558.051,356.902 C558.087,356.902 558.21,356.932 558.421,356.99 C558.632,357.049 558.901,357.11 559.229,357.175 C559.557,357.239 559.874,357.271 560.178,357.271"/>
<path class="FiguredBass" d="M561.092,391.348 C559.956,391.348 559.13,391.031 558.614,390.398 C558.426,390.164 558.186,389.947 557.893,389.748 C557.6,389.549 557.278,389.449 556.926,389.449 C556.469,389.449 556.059,389.593 555.696,389.88 C555.333,390.167 555.151,390.551 555.151,391.031 C555.151,391.242 555.046,391.348 554.835,391.348 C554.6,391.348 554.483,391.242 554.483,391.031 C554.483,390.316 554.65,389.663 554.984,389.071 C555.318,388.479 555.737,387.981 556.241,387.577 C556.745,387.173 557.29,386.739 557.876,386.276 C558.462,385.813 559.004,385.365 559.502,384.932 C560,384.498 560.416,383.95 560.75,383.288 C561.084,382.626 561.251,381.902 561.251,381.117 C561.251,380.133 561.09,379.301 560.767,378.621 C560.445,377.941 559.938,377.601 559.247,377.601 C558.848,377.601 558.503,377.698 558.21,377.892 C557.917,378.085 557.77,378.34 557.77,378.656 C557.77,378.902 557.937,379.225 558.271,379.623 C558.605,380.021 558.772,380.355 558.772,380.625 C558.772,381.187 558.582,381.659 558.201,382.04 C557.82,382.421 557.36,382.611 556.821,382.611 C556.258,382.611 555.787,382.415 555.406,382.022 C555.025,381.63 554.835,381.164 554.835,380.625 C554.835,379.547 555.265,378.662 556.127,377.971 C556.988,377.279 558.028,376.934 559.247,376.934 C560.688,376.934 561.945,377.323 563.017,378.102 C564.09,378.882 564.626,379.887 564.626,381.117 C564.626,381.949 564.476,382.67 564.177,383.279 C563.879,383.889 563.451,384.381 562.894,384.756 C562.338,385.131 561.781,385.45 561.224,385.714 C560.668,385.977 560.014,386.262 559.264,386.566 C558.514,386.871 557.911,387.17 557.454,387.463 C557.7,387.404 557.952,387.375 558.21,387.375 C559.077,387.375 559.979,387.656 560.917,388.219 C561.854,388.781 562.592,389.062 563.132,389.062 C563.436,389.062 563.685,389.007 563.879,388.895 C564.072,388.784 564.198,388.661 564.257,388.526 C564.315,388.392 564.382,388.266 564.459,388.148 C564.535,388.031 564.62,387.973 564.714,387.973 C564.948,387.973 565.065,388.09 565.065,388.324 C565.065,388.828 564.702,389.458 563.975,390.214 C563.249,390.97 562.288,391.348 561.092,391.348"/>
<polyline class="FretDiagram" stroke="#fc02ff" stroke-width="0.91" stroke-linejoin="bevel" points="102.716,44.674 143.308,44.674"/>
<polyline class="FretDiagram" stroke="#fc02ff" stroke-width="0.91" stroke-linejoin="bevel" points="103.169,42.4063 103.169,85.4929"/>
<polyline class="FretDiagram" stroke="#fc02ff" stroke-width="0.91" stroke-linejoin="bevel" points="111.106,42.4063 111.106,85.4929"/>
<polyline class="FretDiagram" stroke="#fc02ff" stroke-width="0.91" stroke-linejoin="bevel" points="119.043,42.4063 119.043,85.4929"/>
<polyline class="FretDiagram" stroke="#fc02ff" stroke-width="0.91" stroke-linejoin="bevel" points="126.98,42.4063 126.98,85.4929"/>
<polyline class="FretDiagram" stroke="#fc02ff" stroke-width="0.91" stroke-linejoin="bevel" points="134.917,42.4063 134.917,85.4929"/>
<polyline class="FretDiagram" stroke="#fc02ff" stroke-width="0.91" stroke-linejoin="bevel" points="142.854,42.4063 142.854,85.4929"/>
<polyline class="FretDiagram" stroke="#fc02ff" stroke-width="0.91" stroke-linejoin="bevel" points="103.169,53.7449 142.854,53.7449"/>
<polyline class="FretDiagram" stroke="#fc02ff" stroke-width="0.91" stroke-linejoin="bevel" points="103.169,62.8157 142.854,62.8157"/>
<polyline class="FretDiagram" stroke="#fc02ff" stroke-width="0.91" stroke-linejoin="bevel" points="103.169,71.8866 142.854,71.8866"/>
<polyline class="FretDiagram" stroke="#fc02ff" stroke-width="0.91" stroke-linejoin="bevel" points="103.169,80.9575 142.854,80.9575"/>
<path class="FretDiagram" fill="#fc02ff" fill-rule="evenodd" d="M121.821,58.2803 C121.821,59.8145 120.577,61.0583 119.043,61.0583 C117.509,61.0583 116.265,59.8145 116.265,58.2803 C116.265,56.7461 117.509,55.5024 119.043,55.5024 C120.577,55.5024 121.821,56.7461 121.821,58.2803"/>
<path class="FretDiagram" fill="#fc02ff" fill-rule="evenodd" d="M137.695,67.3512 C137.695,68.8854 136.451,70.1291 134.917,70.1291 C133.383,70.1291 132.139,68.8854 132.139,67.3512 C132.139,65.817 133.383,64.5732 134.917,64.5732 C136.451,64.5732 137.695,65.817 137.695,67.3512"/>
<polyline class="FretDiagram" fill="none" stroke="#fc02ff" stroke-width="1.31" stroke-linecap="round" stroke-linejoin="bevel" points="99.9943,32.4283 106.344,38.778"/>
<polyline class="FretDiagram" fill="none" stroke="#fc02ff" stroke-width="1.31" stroke-linecap="round" stroke-linejoin="bevel" points="99.9943,38.778 106.344,32.4283"/>
<path class="FretDiagram" fill="none" stroke="#fc02ff" stroke-width="1.31" stroke-linecap="round" stroke-linejoin="bevel" fill-rule="evenodd" d="M114.281,35.6031 C114.281,37.3565 112.859,38.778 111.106,38.778 C109.353,38.778 107.931,37.3565 107.931,35.6031 C107.931,33.8498 109.353,32.4283 111.106,32.4283 C112.859,32.4283 114.281,33.8498 114.281,35.6031"/>
<path class="FretDiagram" fill="none" stroke="#fc02ff" stroke-width="1.31" stroke-linecap="round" stroke-linejoin="bevel" fill-rule="evenodd" d="M130.155,35.6031 C130.155,37.3565 128.734,38.778 126.98,38.778 C125.227,38.778 123.805,37.3565 123.805,35.6031 C123.805,33.8498 125.227,32.4283 126.98,32.4283 C128.734,32.4283 130.155,33.8498 130.155,35.6031"/>
<polyline class="FretDiagram" fill="none" stroke="#fc02ff" stroke-width="1.31" stroke-linecap="round" stroke-linejoin="bevel" points="139.679,32.4283 146.029,38.778"/>
<polyline class="FretDiagram" fill="none" stroke="#fc02ff" stroke-width="1.31" stroke-linecap="round" stroke-linejoin="bevel" points="139.679,38.778 146.029,32.4283"/>
<polyline class="FretDiagram" fill="none" stroke="#fc02ff" stroke-width="5.56" stroke-linecap="round" stroke-linejoin="bevel" points="111.106,49.2094 142.854,49.2094"/>
<path class="FretDiagram" fill="#fc02ff" d="M94.8572,44.1418 C93.9452,44.1418 93.3182,44.3908 92.9762,44.8888 C92.6342,45.3868 92.4512,46.0498 92.4272,46.8778 L90.8432,46.8778 C90.9032,44.1298 92.2352,42.7558 94.8392,42.7558 C96.0512,42.7558 97.0022,43.0678 97.6922,43.6918 C98.3822,44.3158 98.7272,45.1738 98.7272,46.2658 C98.7272,47.5618 98.1332,48.4438 96.9452,48.9118 C97.7132,49.1758 98.2652,49.5448 98.6012,50.0188 C98.9372,50.4928 99.1052,51.1378 99.1052,51.9538 C99.1052,53.1658 98.7122,54.1318 97.9262,54.8518 C97.1402,55.5718 96.0932,55.9318 94.7852,55.9318 C92.1692,55.9318 90.7652,54.5578 90.5732,51.8098 L92.1572,51.8098 C92.2172,52.7338 92.4632,53.4178 92.8952,53.8618 C93.3272,54.3058 93.9752,54.5278 94.8392,54.5278 C95.6672,54.5278 96.3152,54.3028 96.7832,53.8528 C97.2512,53.4028 97.4852,52.7758 97.4852,51.9718 C97.4852,50.4238 96.6032,49.6498 94.8392,49.6498 L94.1732,49.6678 L93.9752,49.6678 L93.9752,48.3178 C95.1152,48.2938 95.9222,48.1498 96.3962,47.8858 C96.8702,47.6218 97.1072,47.0998 97.1072,46.3198 C97.1072,45.6478 96.9062,45.1168 96.5042,44.7268 C96.1022,44.3368 95.5532,44.1418 94.8572,44.1418"/>
<polyline class="FretDiagram" fill="#fc02ff" stroke="#fc02ff" stroke-width="0.91" stroke-linejoin="bevel" points="540.564,44.674 581.156,44.674"/>
<polyline class="FretDiagram" fill="#fc02ff" stroke="#fc02ff" stroke-width="0.91" stroke-linejoin="bevel" points="541.017,42.4063 541.017,85.4929"/>
<polyline class="FretDiagram" fill="#fc02ff" stroke="#fc02ff" stroke-width="0.91" stroke-linejoin="bevel" points="548.954,42.4063 548.954,85.4929"/>
<polyline class="FretDiagram" fill="#fc02ff" stroke="#fc02ff" stroke-width="0.91" stroke-linejoin="bevel" points="556.891,42.4063 556.891,85.4929"/>
<polyline class="FretDiagram" fill="#fc02ff" stroke="#fc02ff" stroke-width="0.91" stroke-linejoin="bevel" points="564.828,42.4063 564.828,85.4929"/>
<polyline class="FretDiagram" fill="#fc02ff" stroke="#fc02ff" stroke-width="0.91" stroke-linejoin="bevel" points="572.765,42.4063 572.765,85.4929"/>
<polyline class="FretDiagram" fill="#fc02ff" stroke="#fc02ff" stroke-width="0.91" stroke-linejoin="bevel" points="580.702,42.4063 580.702,85.4929"/>
<polyline class="FretDiagram" fill="#fc02ff" stroke="#fc02ff" stroke-width="0.91" stroke-linejoin="bevel" points="541.017,53.7449 580.702,53.7449"/>
<polyline class="FretDiagram" fill="#fc02ff" stroke="#fc02ff" stroke-width="0.91" stroke-linejoin="bevel" points="541.017,62.8157 580.702,62.8157"/>
<polyline class="FretDiagram" fill="#fc02ff" stroke="#fc02ff" stroke-width="0.91" stroke-linejoin="bevel" points="541.017,71.8866 580.702,71.8866"/>
<polyline class="FretDiagram" fill="#fc02ff" stroke="#fc02ff" stroke-width="0.91" stroke-linejoin="bevel" points="541.017,80.9575 580.702,80.9575"/>
<path class="FretDiagram" fill="#fc02ff" fill-rule="evenodd" d="M551.732,67.3512 C551.732,68.8854 550.488,70.1291 548.954,70.1291 C547.42,70.1291 546.176,68.8854 546.176,67.3512 C546.176,65.817 547.42,64.5732 548.954,64.5732 C550.488,64.5732 551.732,65.817 551.732,67.3512"/>
<path class="FretDiagram" fill="#fc02ff" fill-rule="evenodd" d="M567.606,58.2803 C567.606,59.8145 566.362,61.0583 564.828,61.0583 C563.294,61.0583 562.05,59.8145 562.05,58.2803 C562.05,56.7461 563.294,55.5024 564.828,55.5024 C566.362,55.5024 567.606,56.7461 567.606,58.2803"/>
<path class="FretDiagram" fill="#fc02ff" fill-rule="evenodd" d="M575.543,67.3512 C575.543,68.8854 574.299,70.1291 572.765,70.1291 C571.231,70.1291 569.987,68.8854 569.987,67.3512 C569.987,65.817 571.231,64.5732 572.765,64.5732 C574.299,64.5732 575.543,65.817 575.543,67.3512"/>
<path class="FretDiagram" fill="#fc02ff" fill-rule="evenodd" d="M583.48,49.2094 C583.48,50.7437 582.236,51.9874 580.702,51.9874 C579.168,51.9874 577.924,50.7437 577.924,49.2094 C577.924,47.6752 579.168,46.4315 580.702,46.4315 C582.236,46.4315 583.48,47.6752 583.48,49.2094"/>
<polyline class="FretDiagram" fill="none" stroke="#fc02ff" stroke-width="1.31" stroke-linecap="round" stroke-linejoin="bevel" points="537.842,32.4283 544.192,38.778"/>
<polyline class="FretDiagram" fill="none" stroke="#fc02ff" stroke-width="1.31" stroke-linecap="round" stroke-linejoin="bevel" points="537.842,38.778 544.192,32.4283"/>
<polyline class="FretDiagram" fill="none" stroke="#fc02ff" stroke-width="1.31" stroke-linecap="round" stroke-linejoin="bevel" points="553.716,32.4283 560.066,38.778"/>
<polyline class="FretDiagram" fill="none" stroke="#fc02ff" stroke-width="1.31" stroke-linecap="round" stroke-linejoin="bevel" points="553.716,38.778 560.066,32.4283"/>
<path class="FretDiagram" fill="#fc02ff" d="M536.413,42.7558 L536.413,44.3218 L531.103,44.3218 L530.599,47.8858 C531.307,47.3698 532.093,47.1118 532.957,47.1118 C534.181,47.1118 535.174,47.5048 535.936,48.2908 C536.698,49.0768 537.079,50.0998 537.079,51.3598 C537.079,52.7038 536.671,53.8018 535.855,54.6538 C535.039,55.5058 533.989,55.9318 532.705,55.9318 C532.213,55.9318 531.76,55.8778 531.346,55.7698 C530.932,55.6618 530.59,55.5328 530.32,55.3828 C530.05,55.2328 529.804,55.0348 529.582,54.7888 C529.36,54.5428 529.192,54.3268 529.078,54.1408 C528.964,53.9548 528.856,53.7208 528.754,53.4388 C528.652,53.1568 528.589,52.9618 528.565,52.8538 C528.541,52.7458 528.511,52.5898 528.475,52.3858 L530.059,52.3858 C530.431,53.8138 531.301,54.5278 532.669,54.5278 C533.533,54.5278 534.214,54.2638 534.712,53.7358 C535.21,53.2078 535.459,52.4878 535.459,51.5758 C535.459,50.6278 535.207,49.8808 534.703,49.3348 C534.199,48.7888 533.521,48.5158 532.669,48.5158 C532.177,48.5158 531.757,48.6028 531.409,48.7768 C531.061,48.9508 530.701,49.2598 530.329,49.7038 L528.871,49.7038 L529.825,42.7558 L536.413,42.7558 "/>
<path class="Bracket" transform="matrix(1.64409,0,0,1.85314,14.5089,451.771)" d="M0.92002,-50 C2.69004,-51.88 6.2,-55.8 6.2,-63 C6.2,-72.1 2.25996,-81.32 2.25996,-86.97 C2.25996,-93.06 5.84004,-98.84 5.95,-99 C6.05996,-99.16 6.05,-99.39 5.94004,-99.46 C5.82998,-99.53 5.62002,-99.47 5.49004,-99.32 C5.35996,-99.17 0,-93.75 0,-85.6 C0,-76.75 3.5,-70.58 3.5,-59.07 C3.5,-56.89 2.55996,-53.36 0.1,-50.33 C-0.0799805,-50.17 -0.1,-49.89 0.0599609,-49.7 L0.0700195,-49.69 L0.1,-49.66 C2.55996,-46.63 3.5,-43.1 3.5,-40.92 C3.5,-29.4 0,-23.24 0,-14.39 C0,-6.25 5.35996,-0.8 5.49004,-0.659961 C5.62002,-0.52002 5.8,-0.42998 5.94004,-0.52002 C6.07998,-0.609961 6.07998,-0.77998 5.95,-0.97998 C5.82002,-1.17998 2.25996,-6.92002 2.25996,-13.01 C2.25996,-18.66 6.2,-27.9 6.2,-37 C6.2,-44.3 2.69004,-48.12 0.92002,-50"/>
</svg>
