<?xml version="1.0" encoding="UTF-8" standalone="no"?>
<svg width="850.394px" height="566.929px" viewBox="0 0 850.394 566.929"
 xmlns="http://www.w3.org/2000/svg" xmlns:xlink="http://www.w3.org/1999/xlink" version="1.2" baseProfile="tiny">
<title>La Mineur (5)</title>
<desc>Generated by MuseScore 3.6.2</desc>
<polyline class="StaffLines" fill="none" stroke="#000000" stroke-width="1.25" stroke-linejoin="bevel" points="29.3071,107.717 836.22,107.717"/>
<polyline class="StaffLines" fill="none" stroke="#000000" stroke-width="1.25" stroke-linejoin="bevel" points="29.3071,124.724 836.22,124.724"/>
<polyline class="StaffLines" fill="none" stroke="#000000" stroke-width="1.25" stroke-linejoin="bevel" points="29.3071,141.732 836.22,141.732"/>
<polyline class="StaffLines" fill="none" stroke="#000000" stroke-width="1.25" stroke-linejoin="bevel" points="29.3071,158.74 836.22,158.74"/>
<polyline class="StaffLines" fill="none" stroke="#000000" stroke-width="1.25" stroke-linejoin="bevel" points="29.3071,175.748 836.22,175.748"/>
<polyline class="StaffLines" fill="none" stroke="#000000" stroke-width="1.25" stroke-linejoin="bevel" points="29.3071,192.756 836.22,192.756"/>
<polyline class="StaffLines" fill="none" stroke="#000000" stroke-width="1.25" stroke-linejoin="bevel" points="29.3071,266.457 836.22,266.457"/>
<polyline class="StaffLines" fill="none" stroke="#000000" stroke-width="1.25" stroke-linejoin="bevel" points="29.3071,277.795 836.22,277.795"/>
<polyline class="StaffLines" fill="none" stroke="#000000" stroke-width="1.25" stroke-linejoin="bevel" points="29.3071,289.134 836.22,289.134"/>
<polyline class="StaffLines" fill="none" stroke="#000000" stroke-width="1.25" stroke-linejoin="bevel" points="29.3071,300.472 836.22,300.472"/>
<polyline class="StaffLines" fill="none" stroke="#000000" stroke-width="1.25" stroke-linejoin="bevel" points="29.3071,311.811 836.22,311.811"/>
<polyline class="StaffLines" fill="none" stroke="#000000" stroke-width="1.25" stroke-linejoin="bevel" points="29.3071,400.875 836.22,400.875"/>
<polyline class="StaffLines" fill="none" stroke="#000000" stroke-width="1.25" stroke-linejoin="bevel" points="29.3071,412.213 836.22,412.213"/>
<polyline class="StaffLines" fill="none" stroke="#000000" stroke-width="1.25" stroke-linejoin="bevel" points="29.3071,423.552 836.22,423.552"/>
<polyline class="StaffLines" fill="none" stroke="#000000" stroke-width="1.25" stroke-linejoin="bevel" points="29.3071,434.891 836.22,434.891"/>
<polyline class="StaffLines" fill="none" stroke="#000000" stroke-width="1.25" stroke-linejoin="bevel" points="29.3071,446.229 836.22,446.229"/>
<polyline class="BarLine" fill="none" stroke="#000000" stroke-width="2.04" stroke-linejoin="bevel" points="30.3276,400.251 30.3276,446.853"/>
<polyline class="BarLine" fill="none" stroke="#000000" stroke-width="2.04" stroke-linejoin="bevel" points="207.822,400.251 207.822,446.853"/>
<polyline class="BarLine" fill="none" stroke="#000000" stroke-width="2.04" stroke-linejoin="bevel" points="329.312,400.251 329.312,446.853"/>
<polyline class="BarLine" fill="none" stroke="#000000" stroke-width="2.04" stroke-linejoin="bevel" points="335.548,400.251 335.548,446.853"/>
<polyline class="BarLine" fill="none" stroke="#000000" stroke-width="2.04" stroke-linejoin="bevel" points="458.754,400.251 458.754,446.853"/>
<polyline class="BarLine" fill="none" stroke="#000000" stroke-width="2.04" stroke-linejoin="bevel" points="578.066,400.251 578.066,446.853"/>
<polyline class="BarLine" fill="none" stroke="#000000" stroke-width="2.04" stroke-linejoin="bevel" points="584.302,400.251 584.302,446.853"/>
<polyline class="BarLine" fill="none" stroke="#000000" stroke-width="2.04" stroke-linejoin="bevel" points="704.734,400.251 704.734,446.853"/>
<polyline class="BarLine" fill="none" stroke="#000000" stroke-width="2.04" stroke-linejoin="bevel" points="825.165,400.251 825.165,446.853"/>
<polyline class="BarLine" fill="none" stroke="#000000" stroke-width="6.24" stroke-linejoin="bevel" points="833.102,400.251 833.102,446.853"/>
<polyline class="BarLine" fill="none" stroke="#000000" stroke-width="2.04" stroke-linejoin="bevel" points="30.3276,265.833 30.3276,400.875"/>
<polyline class="BarLine" fill="none" stroke="#000000" stroke-width="2.04" stroke-linejoin="bevel" points="207.822,265.833 207.822,312.435"/>
<polyline class="BarLine" fill="none" stroke="#000000" stroke-width="2.04" stroke-linejoin="bevel" points="329.312,265.833 329.312,312.435"/>
<polyline class="BarLine" fill="none" stroke="#000000" stroke-width="2.04" stroke-linejoin="bevel" points="335.548,265.833 335.548,312.435"/>
<polyline class="BarLine" fill="none" stroke="#000000" stroke-width="2.04" stroke-linejoin="bevel" points="458.754,265.833 458.754,312.435"/>
<polyline class="BarLine" fill="none" stroke="#000000" stroke-width="2.04" stroke-linejoin="bevel" points="578.066,265.833 578.066,312.435"/>
<polyline class="BarLine" fill="none" stroke="#000000" stroke-width="2.04" stroke-linejoin="bevel" points="584.302,265.833 584.302,312.435"/>
<polyline class="BarLine" fill="none" stroke="#000000" stroke-width="2.04" stroke-linejoin="bevel" points="704.734,265.833 704.734,312.435"/>
<polyline class="BarLine" fill="none" stroke="#000000" stroke-width="2.04" stroke-linejoin="bevel" points="825.165,265.833 825.165,312.435"/>
<polyline class="BarLine" fill="none" stroke="#000000" stroke-width="6.24" stroke-linejoin="bevel" points="833.102,265.833 833.102,312.435"/>
<polyline class="BarLine" fill="none" stroke="#000000" stroke-width="2.04" stroke-linejoin="bevel" points="30.3276,107.093 30.3276,266.457"/>
<polyline class="BarLine" fill="none" stroke="#000000" stroke-width="2.04" stroke-linejoin="bevel" points="207.822,107.093 207.822,193.38"/>
<polyline class="BarLine" fill="none" stroke="#000000" stroke-width="2.04" stroke-linejoin="bevel" points="329.312,107.093 329.312,193.38"/>
<polyline class="BarLine" fill="none" stroke="#000000" stroke-width="2.04" stroke-linejoin="bevel" points="335.548,107.093 335.548,193.38"/>
<polyline class="BarLine" fill="none" stroke="#000000" stroke-width="2.04" stroke-linejoin="bevel" points="458.754,107.093 458.754,193.38"/>
<polyline class="BarLine" fill="none" stroke="#000000" stroke-width="2.04" stroke-linejoin="bevel" points="578.066,107.093 578.066,193.38"/>
<polyline class="BarLine" fill="none" stroke="#000000" stroke-width="2.04" stroke-linejoin="bevel" points="584.302,107.093 584.302,193.38"/>
<polyline class="BarLine" fill="none" stroke="#000000" stroke-width="2.04" stroke-linejoin="bevel" points="704.734,107.093 704.734,193.38"/>
<polyline class="BarLine" fill="none" stroke="#000000" stroke-width="2.04" stroke-linejoin="bevel" points="825.165,107.093 825.165,193.38"/>
<polyline class="BarLine" fill="none" stroke="#000000" stroke-width="6.24" stroke-linejoin="bevel" points="833.102,107.093 833.102,193.38"/>
<path class="Accidental" transform="matrix(0.453543,0,0,0.453543,219.796,406.544)" d="M23.3,-10.6 C23.9,-10.7 24.4,-11.4 24.4,-12 L24.4,-17.9 C24.4,-18.7 23.8,-19.3 23,-19.3 L22.8,-19.3 L19.5,-18.6 L19.5,-33.5 L16.7,-33.5 L16.7,-18 L7.8,-16.2 L7.8,-30.3 L5,-30.3 L5,-15.6 L1.1,-14.8 C0.5,-14.7 0,-14 0,-13.4 L0,-13.2 L0,-7.4 L0,-7.6 C0,-6.8 0.6,-6.2 1.4,-6.2 L1.7,-6.2 L5,-6.9 L5,9.6 L1.1,10.4 C0.5,10.5 0,11.2 0,11.8 L0,17.6 C0,18.4 0.6,19 1.4,19 L1.7,19 L5,18.3 L5,33.2 L7.8,33.2 L7.8,17.7 L16.7,15.9 L16.7,30 L19.5,30 L19.5,15.3 L23.3,14.6 C23.9,14.5 24.4,13.8 24.4,13.2 L24.4,7.3 C24.4,6.5 23.8,5.9 23,5.9 L22.8,5.9 L19.5,6.6 L19.5,-9.9 L23.3,-10.6 M7.8,9.1 L7.8,-7.5 L16.7,-9.3 L16.7,7.2 L7.8,9.1 "/>
<path class="Accidental" transform="matrix(0.453543,0,0,0.453543,468.55,446.229)" d="M23.3,-10.6 C23.9,-10.7 24.4,-11.4 24.4,-12 L24.4,-17.9 C24.4,-18.7 23.8,-19.3 23,-19.3 L22.8,-19.3 L19.5,-18.6 L19.5,-33.5 L16.7,-33.5 L16.7,-18 L7.8,-16.2 L7.8,-30.3 L5,-30.3 L5,-15.6 L1.1,-14.8 C0.5,-14.7 0,-14 0,-13.4 L0,-13.2 L0,-7.4 L0,-7.6 C0,-6.8 0.6,-6.2 1.4,-6.2 L1.7,-6.2 L5,-6.9 L5,9.6 L1.1,10.4 C0.5,10.5 0,11.2 0,11.8 L0,17.6 C0,18.4 0.6,19 1.4,19 L1.7,19 L5,18.3 L5,33.2 L7.8,33.2 L7.8,17.7 L16.7,15.9 L16.7,30 L19.5,30 L19.5,15.3 L23.3,14.6 C23.9,14.5 24.4,13.8 24.4,13.2 L24.4,7.3 C24.4,6.5 23.8,5.9 23,5.9 L22.8,5.9 L19.5,6.6 L19.5,-9.9 L23.3,-10.6 M7.8,9.1 L7.8,-7.5 L16.7,-9.3 L16.7,7.2 L7.8,9.1 "/>
<path class="Accidental" transform="matrix(0.453543,0,0,0.453543,716.708,406.544)" d="M23.3,-10.6 C23.9,-10.7 24.4,-11.4 24.4,-12 L24.4,-17.9 C24.4,-18.7 23.8,-19.3 23,-19.3 L22.8,-19.3 L19.5,-18.6 L19.5,-33.5 L16.7,-33.5 L16.7,-18 L7.8,-16.2 L7.8,-30.3 L5,-30.3 L5,-15.6 L1.1,-14.8 C0.5,-14.7 0,-14 0,-13.4 L0,-13.2 L0,-7.4 L0,-7.6 C0,-6.8 0.6,-6.2 1.4,-6.2 L1.7,-6.2 L5,-6.9 L5,9.6 L1.1,10.4 C0.5,10.5 0,11.2 0,11.8 L0,17.6 C0,18.4 0.6,19 1.4,19 L1.7,19 L5,18.3 L5,33.2 L7.8,33.2 L7.8,17.7 L16.7,15.9 L16.7,30 L19.5,30 L19.5,15.3 L23.3,14.6 C23.9,14.5 24.4,13.8 24.4,13.2 L24.4,7.3 C24.4,6.5 23.8,5.9 23,5.9 L22.8,5.9 L19.5,6.6 L19.5,-9.9 L23.3,-10.6 M7.8,9.1 L7.8,-7.5 L16.7,-9.3 L16.7,7.2 L7.8,9.1 "/>
<path class="Accidental" transform="matrix(0.453543,0,0,0.453543,98.3059,300.472)" d="M23.3,-10.6 C23.9,-10.7 24.4,-11.4 24.4,-12 L24.4,-17.9 C24.4,-18.7 23.8,-19.3 23,-19.3 L22.8,-19.3 L19.5,-18.6 L19.5,-33.5 L16.7,-33.5 L16.7,-18 L7.8,-16.2 L7.8,-30.3 L5,-30.3 L5,-15.6 L1.1,-14.8 C0.5,-14.7 0,-14 0,-13.4 L0,-13.2 L0,-7.4 L0,-7.6 C0,-6.8 0.6,-6.2 1.4,-6.2 L1.7,-6.2 L5,-6.9 L5,9.6 L1.1,10.4 C0.5,10.5 0,11.2 0,11.8 L0,17.6 C0,18.4 0.6,19 1.4,19 L1.7,19 L5,18.3 L5,33.2 L7.8,33.2 L7.8,17.7 L16.7,15.9 L16.7,30 L19.5,30 L19.5,15.3 L23.3,14.6 C23.9,14.5 24.4,13.8 24.4,13.2 L24.4,7.3 C24.4,6.5 23.8,5.9 23,5.9 L22.8,5.9 L19.5,6.6 L19.5,-9.9 L23.3,-10.6 M7.8,9.1 L7.8,-7.5 L16.7,-9.3 L16.7,7.2 L7.8,9.1 "/>
<path class="Accidental" transform="matrix(0.453543,0,0,0.453543,345.344,300.472)" d="M23.3,-10.6 C23.9,-10.7 24.4,-11.4 24.4,-12 L24.4,-17.9 C24.4,-18.7 23.8,-19.3 23,-19.3 L22.8,-19.3 L19.5,-18.6 L19.5,-33.5 L16.7,-33.5 L16.7,-18 L7.8,-16.2 L7.8,-30.3 L5,-30.3 L5,-15.6 L1.1,-14.8 C0.5,-14.7 0,-14 0,-13.4 L0,-13.2 L0,-7.4 L0,-7.6 C0,-6.8 0.6,-6.2 1.4,-6.2 L1.7,-6.2 L5,-6.9 L5,9.6 L1.1,10.4 C0.5,10.5 0,11.2 0,11.8 L0,17.6 C0,18.4 0.6,19 1.4,19 L1.7,19 L5,18.3 L5,33.2 L7.8,33.2 L7.8,17.7 L16.7,15.9 L16.7,30 L19.5,30 L19.5,15.3 L23.3,14.6 C23.9,14.5 24.4,13.8 24.4,13.2 L24.4,7.3 C24.4,6.5 23.8,5.9 23,5.9 L22.8,5.9 L19.5,6.6 L19.5,-9.9 L23.3,-10.6 M7.8,9.1 L7.8,-7.5 L16.7,-9.3 L16.7,7.2 L7.8,9.1 "/>
<path class="Accidental" transform="matrix(0.453543,0,0,0.453543,468.55,300.472)" d="M23.3,-10.6 C23.9,-10.7 24.4,-11.4 24.4,-12 L24.4,-17.9 C24.4,-18.7 23.8,-19.3 23,-19.3 L22.8,-19.3 L19.5,-18.6 L19.5,-33.5 L16.7,-33.5 L16.7,-18 L7.8,-16.2 L7.8,-30.3 L5,-30.3 L5,-15.6 L1.1,-14.8 C0.5,-14.7 0,-14 0,-13.4 L0,-13.2 L0,-7.4 L0,-7.6 C0,-6.8 0.6,-6.2 1.4,-6.2 L1.7,-6.2 L5,-6.9 L5,9.6 L1.1,10.4 C0.5,10.5 0,11.2 0,11.8 L0,17.6 C0,18.4 0.6,19 1.4,19 L1.7,19 L5,18.3 L5,33.2 L7.8,33.2 L7.8,17.7 L16.7,15.9 L16.7,30 L19.5,30 L19.5,15.3 L23.3,14.6 C23.9,14.5 24.4,13.8 24.4,13.2 L24.4,7.3 C24.4,6.5 23.8,5.9 23,5.9 L22.8,5.9 L19.5,6.6 L19.5,-9.9 L23.3,-10.6 M7.8,9.1 L7.8,-7.5 L16.7,-9.3 L16.7,7.2 L7.8,9.1 "/>
<path class="Accidental" transform="matrix(0.453543,0,0,0.453543,596.277,300.472)" d="M23.3,-10.6 C23.9,-10.7 24.4,-11.4 24.4,-12 L24.4,-17.9 C24.4,-18.7 23.8,-19.3 23,-19.3 L22.8,-19.3 L19.5,-18.6 L19.5,-33.5 L16.7,-33.5 L16.7,-18 L7.8,-16.2 L7.8,-30.3 L5,-30.3 L5,-15.6 L1.1,-14.8 C0.5,-14.7 0,-14 0,-13.4 L0,-13.2 L0,-7.4 L0,-7.6 C0,-6.8 0.6,-6.2 1.4,-6.2 L1.7,-6.2 L5,-6.9 L5,9.6 L1.1,10.4 C0.5,10.5 0,11.2 0,11.8 L0,17.6 C0,18.4 0.6,19 1.4,19 L1.7,19 L5,18.3 L5,33.2 L7.8,33.2 L7.8,17.7 L16.7,15.9 L16.7,30 L19.5,30 L19.5,15.3 L23.3,14.6 C23.9,14.5 24.4,13.8 24.4,13.2 L24.4,7.3 C24.4,6.5 23.8,5.9 23,5.9 L22.8,5.9 L19.5,6.6 L19.5,-9.9 L23.3,-10.6 M7.8,9.1 L7.8,-7.5 L16.7,-9.3 L16.7,7.2 L7.8,9.1 "/>
<path class="Accidental" transform="matrix(0.453543,0,0,0.453543,716.708,300.472)" d="M23.3,-10.6 C23.9,-10.7 24.4,-11.4 24.4,-12 L24.4,-17.9 C24.4,-18.7 23.8,-19.3 23,-19.3 L22.8,-19.3 L19.5,-18.6 L19.5,-33.5 L16.7,-33.5 L16.7,-18 L7.8,-16.2 L7.8,-30.3 L5,-30.3 L5,-15.6 L1.1,-14.8 C0.5,-14.7 0,-14 0,-13.4 L0,-13.2 L0,-7.4 L0,-7.6 C0,-6.8 0.6,-6.2 1.4,-6.2 L1.7,-6.2 L5,-6.9 L5,9.6 L1.1,10.4 C0.5,10.5 0,11.2 0,11.8 L0,17.6 C0,18.4 0.6,19 1.4,19 L1.7,19 L5,18.3 L5,33.2 L7.8,33.2 L7.8,17.7 L16.7,15.9 L16.7,30 L19.5,30 L19.5,15.3 L23.3,14.6 C23.9,14.5 24.4,13.8 24.4,13.2 L24.4,7.3 C24.4,6.5 23.8,5.9 23,5.9 L22.8,5.9 L19.5,6.6 L19.5,-9.9 L23.3,-10.6 M7.8,9.1 L7.8,-7.5 L16.7,-9.3 L16.7,7.2 L7.8,9.1 "/>
<polyline class="LedgerLine" fill="none" stroke="#000000" stroke-width="1.81" stroke-linejoin="bevel" points="355.276,457.568 380.128,457.568"/>
<path class="Note" transform="matrix(0.453543,0,0,0.453543,112.206,417.883)" d="M18.7,-13.6 C4.9,-13.6 0,-6.6 0,-0.1 C0,6.4 4.9,13.4 18.7,13.4 C32.5,13.4 37.3,6.4 37.3,-0.1 C37.3,-6.6 32.5,-13.6 18.7,-13.6 M10.4,-4.5 C10.3,-4.9 10.3,-5.3 10.3,-5.7 C10.3,-6.5 10.5,-7.3 10.9,-8 C11.6,-9 12.8,-9.7 14.3,-10 C15.6,-10.3 16.3,-10.5 18.9,-10.5 L19,-10.5 C23,-10.5 24.3,-6.8 25.4,-3 L25.7,-2 C26.5,0.6 26.9,2.8 26.9,4.5 C26.9,5.7 26.7,6.8 26.3,7.6 C25.7,8.7 24.7,9.4 23,9.8 C22.1,10 20.6,10.1 20.6,10.1 C20.1,10.1 19.7,10.2 19.3,10.2 C16.1,10.2 14.1,9 12.7,4.7 C11.5,1 11.3,-0.1 10.4,-4.5"/>
<path class="Note" transform="matrix(0.453543,0,0,0.453543,233.697,406.544)" d="M18.7,-13.6 C4.9,-13.6 0,-6.6 0,-0.1 C0,6.4 4.9,13.4 18.7,13.4 C32.5,13.4 37.3,6.4 37.3,-0.1 C37.3,-6.6 32.5,-13.6 18.7,-13.6 M10.4,-4.5 C10.3,-4.9 10.3,-5.3 10.3,-5.7 C10.3,-6.5 10.5,-7.3 10.9,-8 C11.6,-9 12.8,-9.7 14.3,-10 C15.6,-10.3 16.3,-10.5 18.9,-10.5 L19,-10.5 C23,-10.5 24.3,-6.8 25.4,-3 L25.7,-2 C26.5,0.6 26.9,2.8 26.9,4.5 C26.9,5.7 26.7,6.8 26.3,7.6 C25.7,8.7 24.7,9.4 23,9.8 C22.1,10 20.6,10.1 20.6,10.1 C20.1,10.1 19.7,10.2 19.3,10.2 C16.1,10.2 14.1,9 12.7,4.7 C11.5,1 11.3,-0.1 10.4,-4.5"/>
<path class="Note" transform="matrix(0.453543,0,0,0.453543,359.244,457.568)" d="M18.7,-13.6 C4.9,-13.6 0,-6.6 0,-0.1 C0,6.4 4.9,13.4 18.7,13.4 C32.5,13.4 37.3,6.4 37.3,-0.1 C37.3,-6.6 32.5,-13.6 18.7,-13.6 M10.4,-4.5 C10.3,-4.9 10.3,-5.3 10.3,-5.7 C10.3,-6.5 10.5,-7.3 10.9,-8 C11.6,-9 12.8,-9.7 14.3,-10 C15.6,-10.3 16.3,-10.5 18.9,-10.5 L19,-10.5 C23,-10.5 24.3,-6.8 25.4,-3 L25.7,-2 C26.5,0.6 26.9,2.8 26.9,4.5 C26.9,5.7 26.7,6.8 26.3,7.6 C25.7,8.7 24.7,9.4 23,9.8 C22.1,10 20.6,10.1 20.6,10.1 C20.1,10.1 19.7,10.2 19.3,10.2 C16.1,10.2 14.1,9 12.7,4.7 C11.5,1 11.3,-0.1 10.4,-4.5"/>
<path class="Note" transform="matrix(0.453543,0,0,0.453543,482.45,446.229)" d="M18.7,-13.6 C4.9,-13.6 0,-6.6 0,-0.1 C0,6.4 4.9,13.4 18.7,13.4 C32.5,13.4 37.3,6.4 37.3,-0.1 C37.3,-6.6 32.5,-13.6 18.7,-13.6 M10.4,-4.5 C10.3,-4.9 10.3,-5.3 10.3,-5.7 C10.3,-6.5 10.5,-7.3 10.9,-8 C11.6,-9 12.8,-9.7 14.3,-10 C15.6,-10.3 16.3,-10.5 18.9,-10.5 L19,-10.5 C23,-10.5 24.3,-6.8 25.4,-3 L25.7,-2 C26.5,0.6 26.9,2.8 26.9,4.5 C26.9,5.7 26.7,6.8 26.3,7.6 C25.7,8.7 24.7,9.4 23,9.8 C22.1,10 20.6,10.1 20.6,10.1 C20.1,10.1 19.7,10.2 19.3,10.2 C16.1,10.2 14.1,9 12.7,4.7 C11.5,1 11.3,-0.1 10.4,-4.5"/>
<path class="Note" transform="matrix(0.453543,0,0,0.453543,610.177,417.883)" d="M18.7,-13.6 C4.9,-13.6 0,-6.6 0,-0.1 C0,6.4 4.9,13.4 18.7,13.4 C32.5,13.4 37.3,6.4 37.3,-0.1 C37.3,-6.6 32.5,-13.6 18.7,-13.6 M10.4,-4.5 C10.3,-4.9 10.3,-5.3 10.3,-5.7 C10.3,-6.5 10.5,-7.3 10.9,-8 C11.6,-9 12.8,-9.7 14.3,-10 C15.6,-10.3 16.3,-10.5 18.9,-10.5 L19,-10.5 C23,-10.5 24.3,-6.8 25.4,-3 L25.7,-2 C26.5,0.6 26.9,2.8 26.9,4.5 C26.9,5.7 26.7,6.8 26.3,7.6 C25.7,8.7 24.7,9.4 23,9.8 C22.1,10 20.6,10.1 20.6,10.1 C20.1,10.1 19.7,10.2 19.3,10.2 C16.1,10.2 14.1,9 12.7,4.7 C11.5,1 11.3,-0.1 10.4,-4.5"/>
<path class="Note" transform="matrix(0.453543,0,0,0.453543,730.609,406.544)" d="M18.7,-13.6 C4.9,-13.6 0,-6.6 0,-0.1 C0,6.4 4.9,13.4 18.7,13.4 C32.5,13.4 37.3,6.4 37.3,-0.1 C37.3,-6.6 32.5,-13.6 18.7,-13.6 M10.4,-4.5 C10.3,-4.9 10.3,-5.3 10.3,-5.7 C10.3,-6.5 10.5,-7.3 10.9,-8 C11.6,-9 12.8,-9.7 14.3,-10 C15.6,-10.3 16.3,-10.5 18.9,-10.5 L19,-10.5 C23,-10.5 24.3,-6.8 25.4,-3 L25.7,-2 C26.5,0.6 26.9,2.8 26.9,4.5 C26.9,5.7 26.7,6.8 26.3,7.6 C25.7,8.7 24.7,9.4 23,9.8 C22.1,10 20.6,10.1 20.6,10.1 C20.1,10.1 19.7,10.2 19.3,10.2 C16.1,10.2 14.1,9 12.7,4.7 C11.5,1 11.3,-0.1 10.4,-4.5"/>
<path class="Note" transform="matrix(0.453543,0,0,0.453543,112.206,311.811)" d="M18.7,-13.6 C4.9,-13.6 0,-6.6 0,-0.1 C0,6.4 4.9,13.4 18.7,13.4 C32.5,13.4 37.3,6.4 37.3,-0.1 C37.3,-6.6 32.5,-13.6 18.7,-13.6 M10.4,-4.5 C10.3,-4.9 10.3,-5.3 10.3,-5.7 C10.3,-6.5 10.5,-7.3 10.9,-8 C11.6,-9 12.8,-9.7 14.3,-10 C15.6,-10.3 16.3,-10.5 18.9,-10.5 L19,-10.5 C23,-10.5 24.3,-6.8 25.4,-3 L25.7,-2 C26.5,0.6 26.9,2.8 26.9,4.5 C26.9,5.7 26.7,6.8 26.3,7.6 C25.7,8.7 24.7,9.4 23,9.8 C22.1,10 20.6,10.1 20.6,10.1 C20.1,10.1 19.7,10.2 19.3,10.2 C16.1,10.2 14.1,9 12.7,4.7 C11.5,1 11.3,-0.1 10.4,-4.5"/>
<path class="Note" transform="matrix(0.453543,0,0,0.453543,112.206,300.472)" d="M18.7,-13.6 C4.9,-13.6 0,-6.6 0,-0.1 C0,6.4 4.9,13.4 18.7,13.4 C32.5,13.4 37.3,6.4 37.3,-0.1 C37.3,-6.6 32.5,-13.6 18.7,-13.6 M10.4,-4.5 C10.3,-4.9 10.3,-5.3 10.3,-5.7 C10.3,-6.5 10.5,-7.3 10.9,-8 C11.6,-9 12.8,-9.7 14.3,-10 C15.6,-10.3 16.3,-10.5 18.9,-10.5 L19,-10.5 C23,-10.5 24.3,-6.8 25.4,-3 L25.7,-2 C26.5,0.6 26.9,2.8 26.9,4.5 C26.9,5.7 26.7,6.8 26.3,7.6 C25.7,8.7 24.7,9.4 23,9.8 C22.1,10 20.6,10.1 20.6,10.1 C20.1,10.1 19.7,10.2 19.3,10.2 C16.1,10.2 14.1,9 12.7,4.7 C11.5,1 11.3,-0.1 10.4,-4.5"/>
<path class="Note" transform="matrix(0.453543,0,0,0.453543,112.206,289.134)" d="M18.7,-13.6 C4.9,-13.6 0,-6.6 0,-0.1 C0,6.4 4.9,13.4 18.7,13.4 C32.5,13.4 37.3,6.4 37.3,-0.1 C37.3,-6.6 32.5,-13.6 18.7,-13.6 M10.4,-4.5 C10.3,-4.9 10.3,-5.3 10.3,-5.7 C10.3,-6.5 10.5,-7.3 10.9,-8 C11.6,-9 12.8,-9.7 14.3,-10 C15.6,-10.3 16.3,-10.5 18.9,-10.5 L19,-10.5 C23,-10.5 24.3,-6.8 25.4,-3 L25.7,-2 C26.5,0.6 26.9,2.8 26.9,4.5 C26.9,5.7 26.7,6.8 26.3,7.6 C25.7,8.7 24.7,9.4 23,9.8 C22.1,10 20.6,10.1 20.6,10.1 C20.1,10.1 19.7,10.2 19.3,10.2 C16.1,10.2 14.1,9 12.7,4.7 C11.5,1 11.3,-0.1 10.4,-4.5"/>
<path class="Note" transform="matrix(0.453543,0,0,0.453543,233.697,311.811)" d="M18.7,-13.6 C4.9,-13.6 0,-6.6 0,-0.1 C0,6.4 4.9,13.4 18.7,13.4 C32.5,13.4 37.3,6.4 37.3,-0.1 C37.3,-6.6 32.5,-13.6 18.7,-13.6 M10.4,-4.5 C10.3,-4.9 10.3,-5.3 10.3,-5.7 C10.3,-6.5 10.5,-7.3 10.9,-8 C11.6,-9 12.8,-9.7 14.3,-10 C15.6,-10.3 16.3,-10.5 18.9,-10.5 L19,-10.5 C23,-10.5 24.3,-6.8 25.4,-3 L25.7,-2 C26.5,0.6 26.9,2.8 26.9,4.5 C26.9,5.7 26.7,6.8 26.3,7.6 C25.7,8.7 24.7,9.4 23,9.8 C22.1,10 20.6,10.1 20.6,10.1 C20.1,10.1 19.7,10.2 19.3,10.2 C16.1,10.2 14.1,9 12.7,4.7 C11.5,1 11.3,-0.1 10.4,-4.5"/>
<path class="Note" transform="matrix(0.453543,0,0,0.453543,233.697,289.134)" d="M18.7,-13.6 C4.9,-13.6 0,-6.6 0,-0.1 C0,6.4 4.9,13.4 18.7,13.4 C32.5,13.4 37.3,6.4 37.3,-0.1 C37.3,-6.6 32.5,-13.6 18.7,-13.6 M10.4,-4.5 C10.3,-4.9 10.3,-5.3 10.3,-5.7 C10.3,-6.5 10.5,-7.3 10.9,-8 C11.6,-9 12.8,-9.7 14.3,-10 C15.6,-10.3 16.3,-10.5 18.9,-10.5 L19,-10.5 C23,-10.5 24.3,-6.8 25.4,-3 L25.7,-2 C26.5,0.6 26.9,2.8 26.9,4.5 C26.9,5.7 26.7,6.8 26.3,7.6 C25.7,8.7 24.7,9.4 23,9.8 C22.1,10 20.6,10.1 20.6,10.1 C20.1,10.1 19.7,10.2 19.3,10.2 C16.1,10.2 14.1,9 12.7,4.7 C11.5,1 11.3,-0.1 10.4,-4.5"/>
<path class="Note" transform="matrix(0.453543,0,0,0.453543,359.244,311.811)" d="M18.7,-13.6 C4.9,-13.6 0,-6.6 0,-0.1 C0,6.4 4.9,13.4 18.7,13.4 C32.5,13.4 37.3,6.4 37.3,-0.1 C37.3,-6.6 32.5,-13.6 18.7,-13.6 M10.4,-4.5 C10.3,-4.9 10.3,-5.3 10.3,-5.7 C10.3,-6.5 10.5,-7.3 10.9,-8 C11.6,-9 12.8,-9.7 14.3,-10 C15.6,-10.3 16.3,-10.5 18.9,-10.5 L19,-10.5 C23,-10.5 24.3,-6.8 25.4,-3 L25.7,-2 C26.5,0.6 26.9,2.8 26.9,4.5 C26.9,5.7 26.7,6.8 26.3,7.6 C25.7,8.7 24.7,9.4 23,9.8 C22.1,10 20.6,10.1 20.6,10.1 C20.1,10.1 19.7,10.2 19.3,10.2 C16.1,10.2 14.1,9 12.7,4.7 C11.5,1 11.3,-0.1 10.4,-4.5"/>
<path class="Note" transform="matrix(0.453543,0,0,0.453543,359.244,300.472)" d="M18.7,-13.6 C4.9,-13.6 0,-6.6 0,-0.1 C0,6.4 4.9,13.4 18.7,13.4 C32.5,13.4 37.3,6.4 37.3,-0.1 C37.3,-6.6 32.5,-13.6 18.7,-13.6 M10.4,-4.5 C10.3,-4.9 10.3,-5.3 10.3,-5.7 C10.3,-6.5 10.5,-7.3 10.9,-8 C11.6,-9 12.8,-9.7 14.3,-10 C15.6,-10.3 16.3,-10.5 18.9,-10.5 L19,-10.5 C23,-10.5 24.3,-6.8 25.4,-3 L25.7,-2 C26.5,0.6 26.9,2.8 26.9,4.5 C26.9,5.7 26.7,6.8 26.3,7.6 C25.7,8.7 24.7,9.4 23,9.8 C22.1,10 20.6,10.1 20.6,10.1 C20.1,10.1 19.7,10.2 19.3,10.2 C16.1,10.2 14.1,9 12.7,4.7 C11.5,1 11.3,-0.1 10.4,-4.5"/>
<path class="Note" transform="matrix(0.453543,0,0,0.453543,359.244,289.134)" d="M18.7,-13.6 C4.9,-13.6 0,-6.6 0,-0.1 C0,6.4 4.9,13.4 18.7,13.4 C32.5,13.4 37.3,6.4 37.3,-0.1 C37.3,-6.6 32.5,-13.6 18.7,-13.6 M10.4,-4.5 C10.3,-4.9 10.3,-5.3 10.3,-5.7 C10.3,-6.5 10.5,-7.3 10.9,-8 C11.6,-9 12.8,-9.7 14.3,-10 C15.6,-10.3 16.3,-10.5 18.9,-10.5 L19,-10.5 C23,-10.5 24.3,-6.8 25.4,-3 L25.7,-2 C26.5,0.6 26.9,2.8 26.9,4.5 C26.9,5.7 26.7,6.8 26.3,7.6 C25.7,8.7 24.7,9.4 23,9.8 C22.1,10 20.6,10.1 20.6,10.1 C20.1,10.1 19.7,10.2 19.3,10.2 C16.1,10.2 14.1,9 12.7,4.7 C11.5,1 11.3,-0.1 10.4,-4.5"/>
<path class="Note" transform="matrix(0.453543,0,0,0.453543,482.45,311.811)" d="M18.7,-13.6 C4.9,-13.6 0,-6.6 0,-0.1 C0,6.4 4.9,13.4 18.7,13.4 C32.5,13.4 37.3,6.4 37.3,-0.1 C37.3,-6.6 32.5,-13.6 18.7,-13.6 M10.4,-4.5 C10.3,-4.9 10.3,-5.3 10.3,-5.7 C10.3,-6.5 10.5,-7.3 10.9,-8 C11.6,-9 12.8,-9.7 14.3,-10 C15.6,-10.3 16.3,-10.5 18.9,-10.5 L19,-10.5 C23,-10.5 24.3,-6.8 25.4,-3 L25.7,-2 C26.5,0.6 26.9,2.8 26.9,4.5 C26.9,5.7 26.7,6.8 26.3,7.6 C25.7,8.7 24.7,9.4 23,9.8 C22.1,10 20.6,10.1 20.6,10.1 C20.1,10.1 19.7,10.2 19.3,10.2 C16.1,10.2 14.1,9 12.7,4.7 C11.5,1 11.3,-0.1 10.4,-4.5"/>
<path class="Note" transform="matrix(0.453543,0,0,0.453543,482.45,300.472)" d="M18.7,-13.6 C4.9,-13.6 0,-6.6 0,-0.1 C0,6.4 4.9,13.4 18.7,13.4 C32.5,13.4 37.3,6.4 37.3,-0.1 C37.3,-6.6 32.5,-13.6 18.7,-13.6 M10.4,-4.5 C10.3,-4.9 10.3,-5.3 10.3,-5.7 C10.3,-6.5 10.5,-7.3 10.9,-8 C11.6,-9 12.8,-9.7 14.3,-10 C15.6,-10.3 16.3,-10.5 18.9,-10.5 L19,-10.5 C23,-10.5 24.3,-6.8 25.4,-3 L25.7,-2 C26.5,0.6 26.9,2.8 26.9,4.5 C26.9,5.7 26.7,6.8 26.3,7.6 C25.7,8.7 24.7,9.4 23,9.8 C22.1,10 20.6,10.1 20.6,10.1 C20.1,10.1 19.7,10.2 19.3,10.2 C16.1,10.2 14.1,9 12.7,4.7 C11.5,1 11.3,-0.1 10.4,-4.5"/>
<path class="Note" transform="matrix(0.453543,0,0,0.453543,482.45,289.134)" d="M18.7,-13.6 C4.9,-13.6 0,-6.6 0,-0.1 C0,6.4 4.9,13.4 18.7,13.4 C32.5,13.4 37.3,6.4 37.3,-0.1 C37.3,-6.6 32.5,-13.6 18.7,-13.6 M10.4,-4.5 C10.3,-4.9 10.3,-5.3 10.3,-5.7 C10.3,-6.5 10.5,-7.3 10.9,-8 C11.6,-9 12.8,-9.7 14.3,-10 C15.6,-10.3 16.3,-10.5 18.9,-10.5 L19,-10.5 C23,-10.5 24.3,-6.8 25.4,-3 L25.7,-2 C26.5,0.6 26.9,2.8 26.9,4.5 C26.9,5.7 26.7,6.8 26.3,7.6 C25.7,8.7 24.7,9.4 23,9.8 C22.1,10 20.6,10.1 20.6,10.1 C20.1,10.1 19.7,10.2 19.3,10.2 C16.1,10.2 14.1,9 12.7,4.7 C11.5,1 11.3,-0.1 10.4,-4.5"/>
<path class="Note" transform="matrix(0.453543,0,0,0.453543,610.177,300.472)" d="M18.7,-13.6 C4.9,-13.6 0,-6.6 0,-0.1 C0,6.4 4.9,13.4 18.7,13.4 C32.5,13.4 37.3,6.4 37.3,-0.1 C37.3,-6.6 32.5,-13.6 18.7,-13.6 M10.4,-4.5 C10.3,-4.9 10.3,-5.3 10.3,-5.7 C10.3,-6.5 10.5,-7.3 10.9,-8 C11.6,-9 12.8,-9.7 14.3,-10 C15.6,-10.3 16.3,-10.5 18.9,-10.5 L19,-10.5 C23,-10.5 24.3,-6.8 25.4,-3 L25.7,-2 C26.5,0.6 26.9,2.8 26.9,4.5 C26.9,5.7 26.7,6.8 26.3,7.6 C25.7,8.7 24.7,9.4 23,9.8 C22.1,10 20.6,10.1 20.6,10.1 C20.1,10.1 19.7,10.2 19.3,10.2 C16.1,10.2 14.1,9 12.7,4.7 C11.5,1 11.3,-0.1 10.4,-4.5"/>
<path class="Note" transform="matrix(0.453543,0,0,0.453543,610.177,289.134)" d="M18.7,-13.6 C4.9,-13.6 0,-6.6 0,-0.1 C0,6.4 4.9,13.4 18.7,13.4 C32.5,13.4 37.3,6.4 37.3,-0.1 C37.3,-6.6 32.5,-13.6 18.7,-13.6 M10.4,-4.5 C10.3,-4.9 10.3,-5.3 10.3,-5.7 C10.3,-6.5 10.5,-7.3 10.9,-8 C11.6,-9 12.8,-9.7 14.3,-10 C15.6,-10.3 16.3,-10.5 18.9,-10.5 L19,-10.5 C23,-10.5 24.3,-6.8 25.4,-3 L25.7,-2 C26.5,0.6 26.9,2.8 26.9,4.5 C26.9,5.7 26.7,6.8 26.3,7.6 C25.7,8.7 24.7,9.4 23,9.8 C22.1,10 20.6,10.1 20.6,10.1 C20.1,10.1 19.7,10.2 19.3,10.2 C16.1,10.2 14.1,9 12.7,4.7 C11.5,1 11.3,-0.1 10.4,-4.5"/>
<path class="Note" transform="matrix(0.453543,0,0,0.453543,610.177,272.126)" d="M18.7,-13.6 C4.9,-13.6 0,-6.6 0,-0.1 C0,6.4 4.9,13.4 18.7,13.4 C32.5,13.4 37.3,6.4 37.3,-0.1 C37.3,-6.6 32.5,-13.6 18.7,-13.6 M10.4,-4.5 C10.3,-4.9 10.3,-5.3 10.3,-5.7 C10.3,-6.5 10.5,-7.3 10.9,-8 C11.6,-9 12.8,-9.7 14.3,-10 C15.6,-10.3 16.3,-10.5 18.9,-10.5 L19,-10.5 C23,-10.5 24.3,-6.8 25.4,-3 L25.7,-2 C26.5,0.6 26.9,2.8 26.9,4.5 C26.9,5.7 26.7,6.8 26.3,7.6 C25.7,8.7 24.7,9.4 23,9.8 C22.1,10 20.6,10.1 20.6,10.1 C20.1,10.1 19.7,10.2 19.3,10.2 C16.1,10.2 14.1,9 12.7,4.7 C11.5,1 11.3,-0.1 10.4,-4.5"/>
<path class="Note" transform="matrix(0.453543,0,0,0.453543,730.609,300.472)" d="M18.7,-13.6 C4.9,-13.6 0,-6.6 0,-0.1 C0,6.4 4.9,13.4 18.7,13.4 C32.5,13.4 37.3,6.4 37.3,-0.1 C37.3,-6.6 32.5,-13.6 18.7,-13.6 M10.4,-4.5 C10.3,-4.9 10.3,-5.3 10.3,-5.7 C10.3,-6.5 10.5,-7.3 10.9,-8 C11.6,-9 12.8,-9.7 14.3,-10 C15.6,-10.3 16.3,-10.5 18.9,-10.5 L19,-10.5 C23,-10.5 24.3,-6.8 25.4,-3 L25.7,-2 C26.5,0.6 26.9,2.8 26.9,4.5 C26.9,5.7 26.7,6.8 26.3,7.6 C25.7,8.7 24.7,9.4 23,9.8 C22.1,10 20.6,10.1 20.6,10.1 C20.1,10.1 19.7,10.2 19.3,10.2 C16.1,10.2 14.1,9 12.7,4.7 C11.5,1 11.3,-0.1 10.4,-4.5"/>
<path class="Note" transform="matrix(0.453543,0,0,0.453543,730.609,289.134)" d="M18.7,-13.6 C4.9,-13.6 0,-6.6 0,-0.1 C0,6.4 4.9,13.4 18.7,13.4 C32.5,13.4 37.3,6.4 37.3,-0.1 C37.3,-6.6 32.5,-13.6 18.7,-13.6 M10.4,-4.5 C10.3,-4.9 10.3,-5.3 10.3,-5.7 C10.3,-6.5 10.5,-7.3 10.9,-8 C11.6,-9 12.8,-9.7 14.3,-10 C15.6,-10.3 16.3,-10.5 18.9,-10.5 L19,-10.5 C23,-10.5 24.3,-6.8 25.4,-3 L25.7,-2 C26.5,0.6 26.9,2.8 26.9,4.5 C26.9,5.7 26.7,6.8 26.3,7.6 C25.7,8.7 24.7,9.4 23,9.8 C22.1,10 20.6,10.1 20.6,10.1 C20.1,10.1 19.7,10.2 19.3,10.2 C16.1,10.2 14.1,9 12.7,4.7 C11.5,1 11.3,-0.1 10.4,-4.5"/>
<path class="Note" transform="matrix(0.453543,0,0,0.453543,730.609,272.126)" d="M18.7,-13.6 C4.9,-13.6 0,-6.6 0,-0.1 C0,6.4 4.9,13.4 18.7,13.4 C32.5,13.4 37.3,6.4 37.3,-0.1 C37.3,-6.6 32.5,-13.6 18.7,-13.6 M10.4,-4.5 C10.3,-4.9 10.3,-5.3 10.3,-5.7 C10.3,-6.5 10.5,-7.3 10.9,-8 C11.6,-9 12.8,-9.7 14.3,-10 C15.6,-10.3 16.3,-10.5 18.9,-10.5 L19,-10.5 C23,-10.5 24.3,-6.8 25.4,-3 L25.7,-2 C26.5,0.6 26.9,2.8 26.9,4.5 C26.9,5.7 26.7,6.8 26.3,7.6 C25.7,8.7 24.7,9.4 23,9.8 C22.1,10 20.6,10.1 20.6,10.1 C20.1,10.1 19.7,10.2 19.3,10.2 C16.1,10.2 14.1,9 12.7,4.7 C11.5,1 11.3,-0.1 10.4,-4.5"/>
<path class="Note" d="M118.852,169.629 C118.119,169.629 117.752,168.843 117.752,167.27 L117.752,160.689 C117.752,160.061 118.059,159.746 118.673,159.746 C118.942,159.746 119.144,159.769 119.279,159.813 C119.758,158.975 120.544,158.271 121.637,157.702 C123.165,156.909 124.715,156.512 126.287,156.512 C127.53,156.512 128.151,156.976 128.151,157.904 C128.151,158.683 127.732,159.072 126.893,159.072 C126.294,159.072 125.725,158.937 125.186,158.668 C124.707,158.428 124.198,158.309 123.659,158.309 C122.731,158.309 121.36,158.915 119.549,160.128 C119.803,161.341 119.93,162.756 119.93,164.373 C119.93,167.877 119.571,169.629 118.852,169.629"/>
<path class="Note" d="M127.41,107.285 C128.293,107.285 128.735,107.839 128.735,108.947 C128.735,109.726 128.248,110.886 127.275,112.429 C126.497,113.671 126.107,114.884 126.107,116.067 C126.107,116.741 127.088,117.078 129.05,117.078 C130.667,117.078 132.92,116.202 135.81,114.45 C132.905,117.25 130.382,118.65 128.241,118.65 C126.309,118.65 124.962,118.358 124.198,117.774 C124.003,117.624 123.839,117.445 123.704,117.235 C122.955,118.149 121.705,118.605 119.953,118.605 C118.276,118.605 116.988,118.261 116.09,117.572 C115.491,117.108 115.191,116.367 115.191,115.348 C115.191,113.731 116.15,111.964 118.066,110.048 C120.118,107.996 122.491,106.971 125.186,106.971 C125.86,106.971 126.354,107.218 126.669,107.712 C126.923,107.427 127.17,107.285 127.41,107.285 M123.389,116.224 C123.374,116.105 123.367,115.985 123.367,115.865 C123.367,115.805 124.131,113.716 125.658,109.598 C125.808,109.194 125.957,108.85 126.107,108.565 C125.523,108.445 124.947,108.386 124.378,108.386 C123.33,108.386 121.937,109.276 120.2,111.058 C118.643,112.646 117.864,114.016 117.864,115.169 C117.864,116.442 118.47,117.078 119.683,117.078 C121.151,117.078 122.386,116.793 123.389,116.224"/>
<path class="Note" d="M128.78,140.739 C130.802,139.466 132.269,138.426 133.182,137.617 C134.859,136.135 135.698,134.637 135.698,133.125 C135.698,131.358 134.515,130.475 132.149,130.475 C129.664,130.475 127.073,132.264 124.378,135.843 C122.551,138.268 121.256,140.559 120.492,142.716 C121.435,142.102 122.431,141.795 123.479,141.795 C124.468,141.795 125.254,142.237 125.838,143.12 C126.242,143.734 126.444,144.782 126.444,146.265 C126.444,147.597 125.74,149.162 124.333,150.959 C123.464,152.067 122.498,152.621 121.435,152.621 C120.088,152.621 119.144,152.351 118.605,151.812 C117.842,151.049 117.46,149.536 117.46,147.275 C117.46,143.472 118.995,139.728 122.064,136.045 C125.523,131.897 128.84,129.823 132.014,129.823 C134.47,129.823 136.304,130.4 137.517,131.553 C138.221,132.226 138.573,133.2 138.573,134.473 C138.573,135.895 137.173,137.482 134.373,139.234 C132.905,140.163 131.041,140.664 128.78,140.739 M120.2,143.659 C119.826,144.917 119.638,146.122 119.638,147.275 C119.638,150.016 120.073,151.386 120.941,151.386 C121.765,151.386 122.409,150.802 122.873,149.634 C123.412,148.316 123.681,146.856 123.681,145.254 C123.681,143.831 123.21,143.12 122.266,143.12 C121.608,143.12 120.919,143.3 120.2,143.659"/>
<path class="Note" d="M127.41,124.293 C128.293,124.293 128.735,124.847 128.735,125.955 C128.735,126.734 128.248,127.894 127.275,129.436 C126.497,130.679 126.107,131.892 126.107,133.075 C126.107,133.749 127.088,134.086 129.05,134.086 C130.667,134.086 132.92,133.21 135.81,131.458 C132.905,134.258 130.382,135.658 128.241,135.658 C126.309,135.658 124.962,135.366 124.198,134.782 C124.003,134.632 123.839,134.453 123.704,134.243 C122.955,135.156 121.705,135.613 119.953,135.613 C118.276,135.613 116.988,135.269 116.09,134.58 C115.491,134.116 115.191,133.375 115.191,132.356 C115.191,130.739 116.15,128.972 118.066,127.056 C120.118,125.004 122.491,123.978 125.186,123.978 C125.86,123.978 126.354,124.225 126.669,124.72 C126.923,124.435 127.17,124.293 127.41,124.293 M123.389,133.232 C123.374,133.112 123.367,132.993 123.367,132.873 C123.367,132.813 124.131,130.724 125.658,126.606 C125.808,126.202 125.957,125.858 126.107,125.573 C125.523,125.453 124.947,125.393 124.378,125.393 C123.33,125.393 121.937,126.284 120.2,128.066 C118.643,129.654 117.864,131.024 117.864,132.177 C117.864,133.449 118.47,134.086 119.683,134.086 C121.151,134.086 122.386,133.801 123.389,133.232"/>
<path class="Note" d="M248.9,107.285 C249.784,107.285 250.226,107.839 250.226,108.947 C250.226,109.726 249.739,110.886 248.766,112.429 C247.987,113.671 247.598,114.884 247.598,116.067 C247.598,116.741 248.578,117.078 250.54,117.078 C252.157,117.078 254.411,116.202 257.301,114.45 C254.396,117.25 251.873,118.65 249.731,118.65 C247.8,118.65 246.452,118.358 245.688,117.774 C245.494,117.624 245.329,117.445 245.194,117.235 C244.446,118.149 243.195,118.605 241.443,118.605 C239.766,118.605 238.478,118.261 237.58,117.572 C236.981,117.108 236.682,116.367 236.682,115.348 C236.682,113.731 237.64,111.964 239.557,110.048 C241.608,107.996 243.981,106.971 246.677,106.971 C247.351,106.971 247.845,107.218 248.159,107.712 C248.414,107.427 248.661,107.285 248.9,107.285 M244.88,116.224 C244.865,116.105 244.857,115.985 244.857,115.865 C244.857,115.805 245.621,113.716 247.148,109.598 C247.298,109.194 247.448,108.85 247.598,108.565 C247.014,108.445 246.437,108.386 245.868,108.386 C244.82,108.386 243.427,109.276 241.69,111.058 C240.133,112.646 239.354,114.016 239.354,115.169 C239.354,116.442 239.961,117.078 241.174,117.078 C242.641,117.078 243.877,116.793 244.88,116.224"/>
<path class="Note" d="M250.27,140.739 C252.292,139.466 253.759,138.426 254.673,137.617 C256.35,136.135 257.188,134.637 257.188,133.125 C257.188,131.358 256.005,130.475 253.64,130.475 C251.154,130.475 248.563,132.264 245.868,135.843 C244.041,138.268 242.746,140.559 241.982,142.716 C242.926,142.102 243.922,141.795 244.97,141.795 C245.958,141.795 246.744,142.237 247.328,143.12 C247.732,143.734 247.935,144.782 247.935,146.265 C247.935,147.597 247.231,149.162 245.823,150.959 C244.955,152.067 243.989,152.621 242.926,152.621 C241.578,152.621 240.635,152.351 240.096,151.812 C239.332,151.049 238.95,149.536 238.95,147.275 C238.95,143.472 240.485,139.728 243.555,136.045 C247.014,131.897 250.33,129.823 253.505,129.823 C255.961,129.823 257.795,130.4 259.008,131.553 C259.712,132.226 260.063,133.2 260.063,134.473 C260.063,135.895 258.663,137.482 255.863,139.234 C254.396,140.163 252.532,140.664 250.27,140.739 M241.69,143.659 C241.316,144.917 241.129,146.122 241.129,147.275 C241.129,150.016 241.563,151.386 242.432,151.386 C243.255,151.386 243.899,150.802 244.363,149.634 C244.902,148.316 245.172,146.856 245.172,145.254 C245.172,143.831 244.7,143.12 243.757,143.12 C243.098,143.12 242.409,143.3 241.69,143.659"/>
<path class="Note" d="M248.9,124.293 C249.784,124.293 250.226,124.847 250.226,125.955 C250.226,126.734 249.739,127.894 248.766,129.436 C247.987,130.679 247.598,131.892 247.598,133.075 C247.598,133.749 248.578,134.086 250.54,134.086 C252.157,134.086 254.411,133.21 257.301,131.458 C254.396,134.258 251.873,135.658 249.731,135.658 C247.8,135.658 246.452,135.366 245.688,134.782 C245.494,134.632 245.329,134.453 245.194,134.243 C244.446,135.156 243.195,135.613 241.443,135.613 C239.766,135.613 238.478,135.269 237.58,134.58 C236.981,134.116 236.682,133.375 236.682,132.356 C236.682,130.739 237.64,128.972 239.557,127.056 C241.608,125.004 243.981,123.978 246.677,123.978 C247.351,123.978 247.845,124.225 248.159,124.72 C248.414,124.435 248.661,124.293 248.9,124.293 M244.88,133.232 C244.865,133.112 244.857,132.993 244.857,132.873 C244.857,132.813 245.621,130.724 247.148,126.606 C247.298,126.202 247.448,125.858 247.598,125.573 C247.014,125.453 246.437,125.393 245.868,125.393 C244.82,125.393 243.427,126.284 241.69,128.066 C240.133,129.654 239.354,131.024 239.354,132.177 C239.354,133.449 239.961,134.086 241.174,134.086 C242.641,134.086 243.877,133.801 244.88,133.232"/>
<path class="Note" d="M358.505,205.371 C358.431,205.506 358.318,205.574 358.169,205.574 C358.034,205.574 357.862,205.514 357.652,205.394 C357.337,205.214 357.18,205.035 357.18,204.855 C357.18,204.795 357.203,204.72 357.248,204.63 C360.677,199.689 362.818,195.526 363.671,192.142 C363.731,192.037 363.836,191.985 363.986,191.985 C364.181,191.985 364.458,192.09 364.817,192.299 C365.311,192.584 365.558,192.838 365.558,193.063 C365.558,193.123 365.543,193.175 365.513,193.22 C364.375,196.455 362.039,200.505 358.505,205.371 M362.548,206.719 C362.474,206.854 362.361,206.921 362.212,206.921 C362.077,206.921 361.905,206.861 361.695,206.742 C361.38,206.562 361.223,206.382 361.223,206.203 C361.223,206.143 361.246,206.068 361.291,205.978 C364.72,201.037 366.861,196.874 367.714,193.49 C367.774,193.385 367.879,193.332 368.029,193.332 C368.224,193.332 368.501,193.437 368.86,193.647 C369.354,193.931 369.601,194.186 369.601,194.411 C369.601,194.47 369.586,194.523 369.556,194.568 C368.418,197.802 366.082,201.853 362.548,206.719 M378.695,197.937 C379.578,197.937 380.02,198.491 380.02,199.599 C380.02,200.378 379.533,201.538 378.56,203.08 C377.781,204.323 377.392,205.536 377.392,206.719 C377.392,207.393 378.373,207.73 380.335,207.73 C381.952,207.73 384.205,206.854 387.095,205.102 C384.19,207.902 381.667,209.302 379.526,209.302 C377.594,209.302 376.247,209.01 375.483,208.426 C375.288,208.276 375.124,208.097 374.989,207.887 C374.24,208.801 372.99,209.257 371.238,209.257 C369.561,209.257 368.273,208.913 367.375,208.224 C366.776,207.76 366.476,207.019 366.476,206 C366.476,204.383 367.434,202.616 369.351,200.7 C371.403,198.648 373.776,197.622 376.471,197.622 C377.145,197.622 377.639,197.87 377.954,198.364 C378.208,198.079 378.455,197.937 378.695,197.937 M374.674,206.876 C374.659,206.757 374.652,206.637 374.652,206.517 C374.652,206.457 375.416,204.368 376.943,200.25 C377.093,199.846 377.242,199.502 377.392,199.217 C376.808,199.097 376.232,199.038 375.663,199.038 C374.615,199.038 373.222,199.928 371.485,201.71 C369.928,203.298 369.149,204.668 369.149,205.821 C369.149,207.094 369.755,207.73 370.968,207.73 C372.436,207.73 373.671,207.445 374.674,206.876"/>
<path class="Note" d="M374.448,107.285 C375.331,107.285 375.773,107.839 375.773,108.947 C375.773,109.726 375.286,110.886 374.313,112.429 C373.534,113.671 373.145,114.884 373.145,116.067 C373.145,116.741 374.126,117.078 376.088,117.078 C377.705,117.078 379.958,116.202 382.848,114.45 C379.943,117.25 377.42,118.65 375.279,118.65 C373.347,118.65 372,118.358 371.236,117.774 C371.041,117.624 370.877,117.445 370.742,117.235 C369.993,118.149 368.743,118.605 366.991,118.605 C365.314,118.605 364.026,118.261 363.128,117.572 C362.529,117.108 362.229,116.367 362.229,115.348 C362.229,113.731 363.187,111.964 365.104,110.048 C367.156,107.996 369.529,106.971 372.224,106.971 C372.898,106.971 373.392,107.218 373.707,107.712 C373.961,107.427 374.208,107.285 374.448,107.285 M370.427,116.224 C370.412,116.105 370.405,115.985 370.405,115.865 C370.405,115.805 371.169,113.716 372.696,109.598 C372.846,109.194 372.995,108.85 373.145,108.565 C372.561,108.445 371.985,108.386 371.416,108.386 C370.367,108.386 368.975,109.276 367.238,111.058 C365.681,112.646 364.902,114.016 364.902,115.169 C364.902,116.442 365.508,117.078 366.721,117.078 C368.189,117.078 369.424,116.793 370.427,116.224"/>
<path class="Note" d="M375.818,140.739 C377.839,139.466 379.307,138.426 380.22,137.617 C381.897,136.135 382.736,134.637 382.736,133.125 C382.736,131.358 381.553,130.475 379.187,130.475 C376.701,130.475 374.111,132.264 371.416,135.843 C369.589,138.268 368.294,140.559 367.53,142.716 C368.473,142.102 369.469,141.795 370.517,141.795 C371.505,141.795 372.292,142.237 372.876,143.12 C373.28,143.734 373.482,144.782 373.482,146.265 C373.482,147.597 372.778,149.162 371.371,150.959 C370.502,152.067 369.536,152.621 368.473,152.621 C367.126,152.621 366.182,152.351 365.643,151.812 C364.88,151.049 364.498,149.536 364.498,147.275 C364.498,143.472 366.032,139.728 369.102,136.045 C372.561,131.897 375.878,129.823 379.052,129.823 C381.508,129.823 383.342,130.4 384.555,131.553 C385.259,132.226 385.611,133.2 385.611,134.473 C385.611,135.895 384.211,137.482 381.411,139.234 C379.943,140.163 378.079,140.664 375.818,140.739 M367.238,143.659 C366.864,144.917 366.676,146.122 366.676,147.275 C366.676,150.016 367.111,151.386 367.979,151.386 C368.803,151.386 369.447,150.802 369.911,149.634 C370.45,148.316 370.719,146.856 370.719,145.254 C370.719,143.831 370.248,143.12 369.304,143.12 C368.645,143.12 367.957,143.3 367.238,143.659"/>
<path class="Note" d="M374.448,124.293 C375.331,124.293 375.773,124.847 375.773,125.955 C375.773,126.734 375.286,127.894 374.313,129.436 C373.534,130.679 373.145,131.892 373.145,133.075 C373.145,133.749 374.126,134.086 376.088,134.086 C377.705,134.086 379.958,133.21 382.848,131.458 C379.943,134.258 377.42,135.658 375.279,135.658 C373.347,135.658 372,135.366 371.236,134.782 C371.041,134.632 370.877,134.453 370.742,134.243 C369.993,135.156 368.743,135.613 366.991,135.613 C365.314,135.613 364.026,135.269 363.128,134.58 C362.529,134.116 362.229,133.375 362.229,132.356 C362.229,130.739 363.187,128.972 365.104,127.056 C367.156,125.004 369.529,123.978 372.224,123.978 C372.898,123.978 373.392,124.225 373.707,124.72 C373.961,124.435 374.208,124.293 374.448,124.293 M370.427,133.232 C370.412,133.112 370.405,132.993 370.405,132.873 C370.405,132.813 371.169,130.724 372.696,126.606 C372.846,126.202 372.995,125.858 373.145,125.573 C372.561,125.453 371.985,125.393 371.416,125.393 C370.367,125.393 368.975,126.284 367.238,128.066 C365.681,129.654 364.902,131.024 364.902,132.177 C364.902,133.449 365.508,134.086 366.721,134.086 C368.189,134.086 369.424,133.801 370.427,133.232"/>
<path class="Note" d="M499.024,197.375 C501.046,196.103 502.513,195.062 503.426,194.253 C505.104,192.771 505.942,191.274 505.942,189.761 C505.942,187.994 504.759,187.111 502.393,187.111 C499.908,187.111 497.317,188.9 494.622,192.479 C492.795,194.905 491.5,197.196 490.736,199.352 C491.679,198.738 492.675,198.431 493.723,198.431 C494.712,198.431 495.498,198.873 496.082,199.756 C496.486,200.37 496.688,201.418 496.688,202.901 C496.688,204.233 495.984,205.798 494.577,207.595 C493.708,208.703 492.743,209.257 491.679,209.257 C490.332,209.257 489.388,208.988 488.849,208.449 C488.086,207.685 487.704,206.173 487.704,203.912 C487.704,200.108 489.239,196.365 492.308,192.681 C495.767,188.533 499.084,186.459 502.258,186.459 C504.714,186.459 506.548,187.036 507.761,188.189 C508.465,188.863 508.817,189.836 508.817,191.109 C508.817,192.531 507.417,194.119 504.617,195.871 C503.149,196.799 501.285,197.301 499.024,197.375 M490.444,200.295 C490.07,201.553 489.882,202.759 489.882,203.912 C489.882,206.652 490.317,208.022 491.185,208.022 C492.009,208.022 492.653,207.438 493.117,206.27 C493.656,204.952 493.925,203.492 493.925,201.89 C493.925,200.468 493.454,199.756 492.51,199.756 C491.852,199.756 491.163,199.936 490.444,200.295"/>
<path class="Note" d="M497.654,107.285 C498.537,107.285 498.979,107.839 498.979,108.947 C498.979,109.726 498.493,110.886 497.519,112.429 C496.741,113.671 496.351,114.884 496.351,116.067 C496.351,116.741 497.332,117.078 499.294,117.078 C500.911,117.078 503.164,116.202 506.054,114.45 C503.149,117.25 500.626,118.65 498.485,118.65 C496.553,118.65 495.206,118.358 494.442,117.774 C494.247,117.624 494.083,117.445 493.948,117.235 C493.199,118.149 491.949,118.605 490.197,118.605 C488.52,118.605 487.232,118.261 486.334,117.572 C485.735,117.108 485.435,116.367 485.435,115.348 C485.435,113.731 486.394,111.964 488.31,110.048 C490.362,107.996 492.735,106.971 495.43,106.971 C496.104,106.971 496.598,107.218 496.913,107.712 C497.167,107.427 497.414,107.285 497.654,107.285 M493.633,116.224 C493.618,116.105 493.611,115.985 493.611,115.865 C493.611,115.805 494.375,113.716 495.902,109.598 C496.052,109.194 496.201,108.85 496.351,108.565 C495.767,108.445 495.191,108.386 494.622,108.386 C493.574,108.386 492.181,109.276 490.444,111.058 C488.887,112.646 488.108,114.016 488.108,115.169 C488.108,116.442 488.715,117.078 489.927,117.078 C491.395,117.078 492.63,116.793 493.633,116.224"/>
<path class="Note" d="M499.024,140.739 C501.046,139.466 502.513,138.426 503.426,137.617 C505.104,136.135 505.942,134.637 505.942,133.125 C505.942,131.358 504.759,130.475 502.393,130.475 C499.908,130.475 497.317,132.264 494.622,135.843 C492.795,138.268 491.5,140.559 490.736,142.716 C491.679,142.102 492.675,141.795 493.723,141.795 C494.712,141.795 495.498,142.237 496.082,143.12 C496.486,143.734 496.688,144.782 496.688,146.265 C496.688,147.597 495.984,149.162 494.577,150.959 C493.708,152.067 492.743,152.621 491.679,152.621 C490.332,152.621 489.388,152.351 488.849,151.812 C488.086,151.049 487.704,149.536 487.704,147.275 C487.704,143.472 489.239,139.728 492.308,136.045 C495.767,131.897 499.084,129.823 502.258,129.823 C504.714,129.823 506.548,130.4 507.761,131.553 C508.465,132.226 508.817,133.2 508.817,134.473 C508.817,135.895 507.417,137.482 504.617,139.234 C503.149,140.163 501.285,140.664 499.024,140.739 M490.444,143.659 C490.07,144.917 489.882,146.122 489.882,147.275 C489.882,150.016 490.317,151.386 491.185,151.386 C492.009,151.386 492.653,150.802 493.117,149.634 C493.656,148.316 493.925,146.856 493.925,145.254 C493.925,143.831 493.454,143.12 492.51,143.12 C491.852,143.12 491.163,143.3 490.444,143.659"/>
<path class="Note" d="M497.654,124.293 C498.537,124.293 498.979,124.847 498.979,125.955 C498.979,126.734 498.493,127.894 497.519,129.436 C496.741,130.679 496.351,131.892 496.351,133.075 C496.351,133.749 497.332,134.086 499.294,134.086 C500.911,134.086 503.164,133.21 506.054,131.458 C503.149,134.258 500.626,135.658 498.485,135.658 C496.553,135.658 495.206,135.366 494.442,134.782 C494.247,134.632 494.083,134.453 493.948,134.243 C493.199,135.156 491.949,135.613 490.197,135.613 C488.52,135.613 487.232,135.269 486.334,134.58 C485.735,134.116 485.435,133.375 485.435,132.356 C485.435,130.739 486.394,128.972 488.31,127.056 C490.362,125.004 492.735,123.978 495.43,123.978 C496.104,123.978 496.598,124.225 496.913,124.72 C497.167,124.435 497.414,124.293 497.654,124.293 M493.633,133.232 C493.618,133.112 493.611,132.993 493.611,132.873 C493.611,132.813 494.375,130.724 495.902,126.606 C496.052,126.202 496.201,125.858 496.351,125.573 C495.767,125.453 495.191,125.393 494.622,125.393 C493.574,125.393 492.181,126.284 490.444,128.066 C488.887,129.654 488.108,131.024 488.108,132.177 C488.108,133.449 488.715,134.086 489.927,134.086 C491.395,134.086 492.63,133.801 493.633,133.232"/>
<path class="Note" d="M614.218,186.637 C613.409,186.637 613.005,186.27 613.005,185.536 C613.005,184.293 613.192,183.38 613.566,182.796 C615.123,180.49 618.508,176.177 623.718,169.858 C626.069,166.998 629.102,165.568 632.815,165.568 C634.253,165.568 635.248,165.771 635.802,166.175 C636.656,166.804 637.083,167.56 637.083,168.443 C637.083,169.372 636.334,170.405 634.837,171.543 C633.414,172.621 632.066,173.16 630.794,173.16 C630.3,173.16 630.052,173.108 630.052,173.003 C630.052,172.853 630.292,172.696 630.771,172.531 C631.415,172.292 632.104,171.805 632.838,171.071 C633.676,170.218 634.095,169.447 634.095,168.758 C634.095,168.294 633.774,167.852 633.13,167.433 C632.561,167.073 631.64,166.894 630.367,166.894 C628.51,166.894 626.167,168.765 623.337,172.509 C621.45,175.009 619.923,177.211 618.755,179.112 C619.324,178.798 620.005,178.416 620.799,177.967 C621.772,177.413 622.61,177.136 623.314,177.136 C625.066,177.136 625.942,177.765 625.942,179.023 C625.942,180.265 625.223,181.628 623.786,183.11 C622.768,184.159 622.259,184.937 622.259,185.446 C622.259,185.97 622.768,186.232 623.786,186.232 C624.295,186.232 624.819,186.053 625.358,185.693 C625.897,185.349 626.294,185.177 626.549,185.177 C626.758,185.177 626.863,185.312 626.863,185.581 C626.863,186.015 626.444,186.472 625.605,186.951 C624.198,187.76 623.067,188.164 622.214,188.164 C620.701,188.164 619.945,187.356 619.945,185.738 C619.945,184.72 620.529,183.59 621.697,182.347 C622.551,181.433 622.977,180.527 622.977,179.629 C622.977,178.85 622.558,178.461 621.719,178.461 C621.39,178.461 620.297,178.85 618.44,179.629 C617.886,180.557 617.422,181.411 617.048,182.189 C615.625,185.154 614.682,186.637 614.218,186.637"/>
<path class="Note" d="M632.299,113.529 C631.071,115.461 629.132,117.063 626.481,118.336 C624.175,119.444 622.019,119.998 620.012,119.998 C618.41,119.998 617.078,119.676 616.014,119.032 C614.861,118.328 614.285,117.49 614.285,116.516 C614.285,114.315 614.861,112.421 616.014,110.834 C617.587,108.678 619.174,107.599 620.776,107.599 C621.914,107.599 622.723,107.824 623.202,108.273 C623.861,108.857 624.19,109.658 624.19,110.677 C624.19,112.114 623.12,113.364 620.978,114.428 C618.897,115.461 617.452,116.135 616.643,116.449 C616.823,116.823 617.055,117.16 617.34,117.46 C618.043,118.208 619.002,118.583 620.215,118.583 C621.742,118.583 623.793,118.021 626.369,116.898 C628.84,115.805 630.816,114.682 632.299,113.529 M616.329,115.416 C617.452,114.847 618.478,114.18 619.406,113.417 C620.784,112.294 621.472,111.081 621.472,109.778 C621.472,109.044 621.135,108.678 620.462,108.678 C619.893,108.678 619.114,109.329 618.126,110.632 C616.883,112.249 616.261,113.567 616.261,114.585 C616.261,114.869 616.284,115.146 616.329,115.416"/>
<path class="Note" d="M632.299,147.545 C631.071,149.476 629.132,151.079 626.481,152.351 C624.175,153.46 622.019,154.014 620.012,154.014 C618.41,154.014 617.078,153.692 616.014,153.048 C614.861,152.344 614.285,151.505 614.285,150.532 C614.285,148.331 614.861,146.437 616.014,144.85 C617.587,142.693 619.174,141.615 620.776,141.615 C621.914,141.615 622.723,141.84 623.202,142.289 C623.861,142.873 624.19,143.674 624.19,144.692 C624.19,146.13 623.12,147.38 620.978,148.443 C618.897,149.476 617.452,150.15 616.643,150.465 C616.823,150.839 617.055,151.176 617.34,151.476 C618.043,152.224 619.002,152.599 620.215,152.599 C621.742,152.599 623.793,152.037 626.369,150.914 C628.84,149.821 630.816,148.698 632.299,147.545 M616.329,149.432 C617.452,148.863 618.478,148.196 619.406,147.433 C620.784,146.309 621.472,145.097 621.472,143.794 C621.472,143.06 621.135,142.693 620.462,142.693 C619.893,142.693 619.114,143.345 618.126,144.647 C616.883,146.265 616.261,147.582 616.261,148.601 C616.261,148.885 616.284,149.162 616.329,149.432"/>
<path class="Note" d="M628.256,119.89 C629.094,119.321 629.701,118.85 630.075,118.475 C630.764,117.742 631.108,117.068 631.108,116.454 C631.108,115.75 630.719,115.398 629.94,115.398 C628.428,115.398 626.811,116.731 625.089,119.396 C624.565,120.205 623.412,122.84 621.63,127.303 C623.052,128.77 623.763,129.601 623.763,129.796 C623.763,130.065 623.591,130.2 623.247,130.2 C622.977,130.2 622.236,129.743 621.023,128.83 C619.705,131.9 617.706,134.52 615.026,136.691 C612.286,138.907 609.014,140.015 605.211,140.015 C603.758,140.015 601.939,139.679 599.753,139.005 C598.001,138.466 597.125,137.605 597.125,136.422 C597.125,134.67 597.799,133.794 599.146,133.794 C599.955,133.794 600.359,134.168 600.359,134.917 C600.359,135.156 600.172,135.411 599.798,135.681 C599.603,135.815 599.506,136.077 599.506,136.467 C599.506,136.931 600.022,137.41 601.055,137.904 C602.178,138.443 603.826,138.713 605.997,138.713 C608.797,138.713 611.5,137.5 614.105,135.074 C616.471,132.873 618.171,130.312 619.204,127.392 C618.8,127.063 618.365,126.704 617.901,126.314 C616.464,125.461 615.745,124.585 615.745,123.686 C615.745,123.312 615.992,123.125 616.486,123.125 C617.145,123.125 618.036,123.686 619.159,124.809 C619.399,125.049 619.623,125.274 619.833,125.483 C620.357,124.046 621.195,122.219 622.348,120.003 C624.43,115.99 626.96,113.983 629.94,113.983 C631.003,113.983 631.842,114.185 632.456,114.59 C633.07,114.994 633.377,115.548 633.377,116.252 C633.377,117.375 632.965,118.326 632.141,119.104 C631.288,119.913 630.397,120.317 629.468,120.317 C628.66,120.317 628.256,120.175 628.256,119.89"/>
<path class="Note" d="M748.53,158.466 C748.53,160.188 746.568,163.969 742.645,169.809 C741.088,172.13 738.849,173.829 735.929,174.907 C733.773,175.716 731.28,176.12 728.45,176.12 C727.537,176.12 726.728,175.933 726.024,175.559 C725.246,175.154 724.856,174.713 724.856,174.233 C724.856,172.991 725.523,172.369 726.855,172.369 C727.05,172.369 727.147,172.489 727.147,172.729 C727.147,172.938 727.05,173.17 726.855,173.425 C726.616,173.739 726.496,173.971 726.496,174.121 C726.496,174.57 727.17,174.795 728.517,174.795 C731.542,174.795 733.93,174.428 735.682,173.694 C737.509,172.946 739.329,171.036 741.14,167.967 L741.657,167.001 C740.789,167.66 739.928,167.989 739.074,167.989 C736.948,167.989 735.885,167.128 735.885,165.406 C735.885,163.549 737.135,161.595 739.636,159.544 C741.597,157.957 743.342,157.163 744.869,157.163 C745.633,157.163 746.269,157.365 746.778,157.77 C746.958,157.635 747.182,157.567 747.452,157.567 C748.171,157.567 748.53,157.867 748.53,158.466 M741.927,166.529 L746.172,158.69 C745.842,158.616 745.475,158.578 745.071,158.578 C743.619,158.578 742.211,159.424 740.848,161.116 C739.261,163.093 738.468,164.673 738.468,165.855 C738.468,166.634 738.984,167.023 740.017,167.023 C740.512,167.023 741.148,166.859 741.927,166.529"/>
<path class="Note" d="M752.73,113.529 C751.502,115.461 749.563,117.063 746.913,118.336 C744.607,119.444 742.451,119.998 740.444,119.998 C738.842,119.998 737.509,119.676 736.446,119.032 C735.293,118.328 734.717,117.49 734.717,116.516 C734.717,114.315 735.293,112.421 736.446,110.834 C738.018,108.678 739.606,107.599 741.208,107.599 C742.346,107.599 743.154,107.824 743.634,108.273 C744.292,108.857 744.622,109.658 744.622,110.677 C744.622,112.114 743.551,113.364 741.41,114.428 C739.329,115.461 737.884,116.135 737.075,116.449 C737.255,116.823 737.487,117.16 737.771,117.46 C738.475,118.208 739.433,118.583 740.646,118.583 C742.174,118.583 744.225,118.021 746.801,116.898 C749.271,115.805 751.248,114.682 752.73,113.529 M736.761,115.416 C737.884,114.847 738.909,114.18 739.838,113.417 C741.215,112.294 741.904,111.081 741.904,109.778 C741.904,109.044 741.567,108.678 740.893,108.678 C740.324,108.678 739.546,109.329 738.557,110.632 C737.315,112.249 736.693,113.567 736.693,114.585 C736.693,114.869 736.716,115.146 736.761,115.416"/>
<path class="Note" d="M752.73,147.545 C751.502,149.476 749.563,151.079 746.913,152.351 C744.607,153.46 742.451,154.014 740.444,154.014 C738.842,154.014 737.509,153.692 736.446,153.048 C735.293,152.344 734.717,151.505 734.717,150.532 C734.717,148.331 735.293,146.437 736.446,144.85 C738.018,142.693 739.606,141.615 741.208,141.615 C742.346,141.615 743.154,141.84 743.634,142.289 C744.292,142.873 744.622,143.674 744.622,144.692 C744.622,146.13 743.551,147.38 741.41,148.443 C739.329,149.476 737.884,150.15 737.075,150.465 C737.255,150.839 737.487,151.176 737.771,151.476 C738.475,152.224 739.433,152.599 740.646,152.599 C742.174,152.599 744.225,152.037 746.801,150.914 C749.271,149.821 751.248,148.698 752.73,147.545 M736.761,149.432 C737.884,148.863 738.909,148.196 739.838,147.433 C741.215,146.309 741.904,145.097 741.904,143.794 C741.904,143.06 741.567,142.693 740.893,142.693 C740.324,142.693 739.546,143.345 738.557,144.647 C737.315,146.265 736.693,147.582 736.693,148.601 C736.693,148.885 736.716,149.162 736.761,149.432"/>
<path class="Note" d="M748.687,119.89 C749.526,119.321 750.132,118.85 750.507,118.475 C751.195,117.742 751.54,117.068 751.54,116.454 C751.54,115.75 751.151,115.398 750.372,115.398 C748.859,115.398 747.242,116.731 745.52,119.396 C744.996,120.205 743.843,122.84 742.061,127.303 C743.484,128.77 744.195,129.601 744.195,129.796 C744.195,130.065 744.023,130.2 743.679,130.2 C743.409,130.2 742.668,129.743 741.455,128.83 C740.137,131.9 738.138,134.52 735.458,136.691 C732.718,138.907 729.446,140.015 725.642,140.015 C724.19,140.015 722.371,139.679 720.184,139.005 C718.432,138.466 717.556,137.605 717.556,136.422 C717.556,134.67 718.23,133.794 719.578,133.794 C720.387,133.794 720.791,134.168 720.791,134.917 C720.791,135.156 720.604,135.411 720.229,135.681 C720.035,135.815 719.937,136.077 719.937,136.467 C719.937,136.931 720.454,137.41 721.487,137.904 C722.61,138.443 724.257,138.713 726.429,138.713 C729.229,138.713 731.931,137.5 734.537,135.074 C736.903,132.873 738.602,130.312 739.636,127.392 C739.231,127.063 738.797,126.704 738.333,126.314 C736.895,125.461 736.177,124.585 736.177,123.686 C736.177,123.312 736.424,123.125 736.918,123.125 C737.577,123.125 738.468,123.686 739.591,124.809 C739.83,125.049 740.055,125.274 740.264,125.483 C740.789,124.046 741.627,122.219 742.78,120.003 C744.861,115.99 747.392,113.983 750.372,113.983 C751.435,113.983 752.274,114.185 752.887,114.59 C753.501,114.994 753.808,115.548 753.808,116.252 C753.808,117.375 753.397,118.326 752.573,119.104 C751.72,119.913 750.829,120.317 749.9,120.317 C749.092,120.317 748.687,120.175 748.687,119.89"/>
<path class="Clef" transform="matrix(0.453543,0,0,0.453543,40.9291,412.213)" d="M25.4,-25.1 C17.8,-25.1 11.7,-20.7 11.6,-20.7 C5.8,-16.4 3.5,-11.3 2.6,-7.8 C2.1,-6 1.9,-4.2 1.9,-2.5 C1.9,-0.1 2.3,2.1 3.2,4 C4.4,6.7 6.7,8.6 9.7,9.6 C10.9,10 12.2,10.2 13.5,10.2 C15.7,10.2 18,9.6 19.9,8.5 C23,6.8 24.9,3.2 24.9,-0.7 C24.9,-4.2 23.1,-7.4 20.1,-9.3 C18,-10.7 16,-11.1 14.3,-11.1 C13.1,-11.1 12,-10.9 11.1,-10.6 C10.1,-10.2 8.4,-9.2 7.6,-8.5 C7.9,-10.4 9.1,-13.3 10.2,-14.9 C11.3,-16.5 13.5,-18.5 15.2,-19.4 C17.7,-20.8 20.9,-21.4 24.4,-21.4 C34.6,-21.4 39.6,-13.2 39.6,3.6 C39.6,12.9 36.1,21.8 33.1,27.7 C29.8,34.3 25.4,40.6 21.5,44.1 C11.1,53.6 1.3,58.1 1.2,58.1 C1.2,58.1 -0.3,59 0.1,60.5 C0.4,61.5 1.3,61.7 1.9,61.7 C2,61.7 2.3,61.6 2.4,61.6 C2.5,61.6 13.9,56.9 23,49.8 C28.1,46.1 32.7,42.1 36.7,37.8 C40.3,33.9 43.4,29.7 45.9,25.5 C50.3,18 52.8,10.2 52.8,3.5 C52.8,-4.8 50.6,-11.7 46.5,-16.6 C41.8,-22.2 34.7,-25.1 25.4,-25.1 M56.8,-12.4 C56.8,-9.6 59,-7.4 61.6,-7.4 C64.2,-7.4 66.4,-9.6 66.4,-12.4 C66.4,-15.2 64.2,-17.5 61.6,-17.5 C59,-17.5 56.8,-15.2 56.8,-12.4 M56.8,12.3 C56.8,15.1 59,17.4 61.6,17.4 C64.2,17.4 66.4,15.1 66.4,12.3 C66.4,9.5 64.2,7.2 61.6,7.2 C59,7.2 56.8,9.5 56.8,12.3"/>
<path class="Clef" transform="matrix(0.453543,0,0,0.453543,40.9291,300.472)" d="M63.37,-5.89004 C62.14,-11.32 59.5,-15.14 58.72,-16.1801 C55.5301,-20.45 51.52,-23.3 46.8301,-24.65 C43.72,-25.54 40.72,-25.65 38.3,-25.47 C37.2601,-31.4801 36.2601,-37.3601 35.35,-42.8101 C40.79,-48.97 44.42,-54.77 46.69,-59.07 C50.1601,-65.65 51.3101,-70.2301 51.3601,-70.4301 C53.0801,-75.64 53.44,-83.34 52.34,-91.55 C51.3301,-99.1 49.24,-105.81 46.89,-109.06 C45.8601,-110.49 44.8101,-111.22 43.77,-111.22 C42.55,-111.22 40.04,-109.98 37.15,-107.21 C34.85,-105.01 31.5801,-101.12 29.02,-95.1101 C26.02,-88.05 25.8101,-78.5601 26.1601,-71.84 C26.54,-64.57 27.65,-58.8801 27.6601,-58.8301 C27.6801,-58.74 27.94,-57.24 28.39,-54.67 C28.1601,-54.44 27.92,-54.22 27.67,-53.9801 C26.6301,-52.9801 25.44,-51.84 24.0601,-50.4601 C23.2,-49.6 22.25,-48.69 21.25,-47.72 C12.79,-39.57 0,-27.25 0,-8.1 C0,-3.4 0.9,1.01992 2.68008,5.02998 C4.27002,8.62998 6.57002,11.91 9.5,14.78 C17.2301,22.33 27.82,25.5399 34.8801,25.38 C37.8301,25.31 40.4601,25.0699 42.85,24.6199 C44.6801,34.2199 45.82,41.25 45.8601,46.5899 C45.9,53.1 44.25,57.0699 40.35,59.8399 C37.92,61.5699 35.1101,62.5199 32.0101,62.6699 C29.42,62.7899 27.1601,62.3199 25.7301,61.91 L25.72,61.91 C25.72,61.91 25.4301,61.83 25.42,61.63 C25.4101,61.45 25.7601,61.4 25.77,61.4 L25.79,61.4 C27.7101,60.96 31.2801,59.73 33.64,56.43 C35.44,53.91 36.3101,49.2899 34.47,45.35 C33.3601,42.96 30.85,40.01 25.2301,39.56 C22.74,39.36 20.47,39.8699 18.47,41.0699 C16.6601,42.15 15.1601,43.7899 14.1101,45.7899 C11.65,50.4899 12.1101,56.2199 15.24,60.06 C18.2,63.68 22.82,65.9899 28.25,66.5699 C29.1,66.66 29.95,66.7 30.8,66.7 C31.5101,66.7 32.22,66.6699 32.92,66.61 C31.72,66.9399 30.64,67.4899 29.77,68.25 C28.2801,69.5399 27.44,71.38 27.44,73.41 C27.44,75.28 28.0601,76.65 29.55,78.0399 C28.4101,78.5 27.55,78.98 26.79,79.56 C25.25,80.73 24.34,82.46 24.34,84.1899 C24.34,87.45 27.3,89.63 31.72,89.63 C37.1301,89.63 40.9101,86.63 40.9101,82.35 C40.9101,80.1199 39.9101,78.18 38.0801,76.83 C41.0101,75.6199 42.37,73.9399 42.37,71.56 C42.39,70.05 41.69,68.61 40.49,67.6899 C39.2801,66.7399 37.62,66.2399 35.69,66.2399 L35.5101,66.2399 C38.2801,65.7 40.92,64.7 43.2101,63.28 C46.87,60.71 48.99,56.73 49.67,51.1 C50.2301,46.46 49.84,40.55 48.44,32.48 C48.0801,30.3899 47.54,27.36 46.8801,23.6 C52.6301,21.68 56.79,18.11 60.5601,12.26 C63.85,6.51992 64.8,0.419922 63.37,-5.89004 M32.39,87.5399 C30.19,87.5399 28.7301,86.1199 28.7301,84.01 C28.7301,82.11 29.65,80.5 31.32,79.4699 C31.6801,79.66 31.77,79.71 32.1101,79.88 C33.3,80.48 33.3,80.48 33.55,80.63 L33.5601,80.6399 C35.47,81.73 36.25,82.76 36.25,84.18 C36.24,86.0899 34.59,87.5399 32.39,87.5399 M38.3101,71.63 C38.3101,73.2699 37.7301,74.3399 36.1801,75.53 C34.74,74.78 34.35,74.56 33.9801,74.3399 L33.8801,74.28 C32.3301,73.3399 31.85,72.66 31.85,71.4 C31.85,69.6 33.2301,68.3399 35.19,68.3399 C37.17,68.35 38.3101,69.55 38.3101,71.63 M33.15,-83.8101 C34.9301,-89.55 37.67,-92.8 39.6601,-94.5301 C41.4101,-96.05 43.0601,-96.7601 43.9801,-96.7601 C44.12,-96.7601 44.24,-96.74 44.34,-96.7101 C44.8,-96.57 45.3301,-96 45.8,-95.1301 C48.1101,-90.84 47.37,-84.1301 46.0301,-79.69 C44.4,-74.29 41.4801,-68.6801 32.69,-59.0601 C32.52,-60.17 32.3601,-61.22 32.2101,-62.2 C30.95,-70.49 31.27,-77.7601 33.15,-83.8101 M29.15,20.31 C24.5101,19.0899 20.0801,16.5899 16.32,13.0899 C15.0101,11.86 13.14,9.68994 11.67,6.3 C10.3101,3.13994 9.65,-0.290039 9.7,-3.88008 C9.77002,-8.57002 11.0801,-13.39 13.59,-18.1801 C16.5101,-23.7601 21.07,-29.29 27.1301,-34.62 C28.5801,-35.9 29.95,-37.1801 31.24,-38.4601 C32,-34.2 32.8301,-29.5101 33.7101,-24.6301 C29.8601,-23.3601 25.1101,-20.2101 22,-14.5601 C18.47,-7.99004 18.6101,-2.47002 19.34,1.00996 C20.2801,5.46992 22.8101,9.22998 26.27,11.3199 C27.2,11.88 31.3301,14.01 33.17,13.43 C33.54,13.31 33.8101,13.0899 33.95,12.76 C34.4601,11.5899 33.44,10.95 31.8801,9.98994 C31.2801,9.61992 30.6101,9.2 29.8801,8.66992 C26.5601,6.17998 25.1101,1.72998 26.1801,-2.65 C26.7601,-5.05 28.04,-7.21006 29.8801,-8.91006 C31.55,-10.4601 33.59,-11.5601 35.97,-12.2 C38.0101,-0.960059 40.07,10.1899 41.7101,18.55 C41.84,19.2399 41.9801,19.91 42.1101,20.58 C37.7101,21.51 33.37,21.4199 29.15,20.31 M54.9,10.1 C53.7301,13.28 51.27,17.35 46.14,19.41 C46.07,18.9899 45.99,18.56 45.9101,18.13 C44.3601,9.36992 42.4301,-1.61006 40.47,-12.87 C50.82,-13.35 55.09,-5.91006 55.9801,-1.08008 C56.45,1.45 56.45,5.88994 54.9,10.1"/>
<path class="FiguredBass" d="M119.526,483.875 L119.526,487.549 C119.526,487.912 119.341,488.094 118.972,488.094 C118.603,488.094 118.418,487.912 118.418,487.549 L118.418,484.35 L117.856,484.578 C117.797,484.602 117.721,484.613 117.627,484.613 C117.475,484.613 117.34,484.555 117.223,484.438 C117.106,484.32 117.047,484.186 117.047,484.033 L117.047,482.24 C117.047,481.983 117.17,481.801 117.416,481.695 L118.418,481.274 L118.418,477.582 L117.856,477.811 C117.82,477.822 117.774,477.828 117.715,477.828 C117.692,477.828 117.662,477.828 117.627,477.828 C117.451,477.805 117.311,477.74 117.205,477.635 C117.1,477.529 117.047,477.406 117.047,477.266 L117.047,475.473 C117.047,475.227 117.17,475.051 117.416,474.945 L118.418,474.524 L118.418,470.779 C118.418,470.416 118.603,470.234 118.972,470.234 C119.341,470.234 119.526,470.416 119.526,470.779 L119.526,474.067 L121.793,473.117 L121.793,469.443 C121.793,469.08 121.975,468.899 122.338,468.899 C122.701,468.899 122.883,469.08 122.883,469.443 L122.883,472.678 L123.498,472.414 C123.557,472.391 123.621,472.379 123.692,472.379 C123.844,472.379 123.982,472.438 124.105,472.555 C124.228,472.672 124.289,472.807 124.289,472.959 L124.289,474.752 C124.289,475.01 124.16,475.192 123.902,475.297 L122.883,475.719 L122.883,479.428 L123.498,479.182 C123.533,479.17 123.574,479.164 123.621,479.164 C123.645,479.164 123.668,479.164 123.692,479.164 C123.891,479.199 124.04,479.264 124.14,479.358 C124.239,479.451 124.289,479.574 124.289,479.727 L124.289,481.52 C124.289,481.766 124.16,481.942 123.902,482.047 L122.883,482.469 L122.883,486.213 C122.883,486.576 122.701,486.758 122.338,486.758 C121.975,486.758 121.793,486.576 121.793,486.213 L121.793,482.926 L119.526,483.875 M119.526,480.817 L121.793,479.885 L121.793,476.176 L119.526,477.125 L119.526,480.817 "/>
<path class="FiguredBass" d="M242.686,471.957 C241.819,471.957 241.242,472.306 240.954,473.003 C240.667,473.7 240.524,474.688 240.524,475.965 L240.524,478.039 C241.133,477.793 241.66,477.664 242.106,477.652 C243.629,477.652 244.827,477.989 245.7,478.663 C246.574,479.337 247.01,480.339 247.01,481.669 C247.01,482.999 246.568,484.004 245.683,484.684 C244.798,485.363 243.606,485.703 242.106,485.703 C240.571,485.703 239.369,484.991 238.502,483.567 C237.635,482.144 237.201,480.453 237.201,478.496 C237.201,476.551 237.705,474.863 238.713,473.434 C239.721,472.004 241.045,471.289 242.686,471.289 C243.764,471.289 244.696,471.562 245.481,472.107 C246.266,472.651 246.659,473.369 246.659,474.26 C246.659,474.775 246.471,475.221 246.096,475.596 C245.721,475.971 245.273,476.158 244.751,476.158 C244.23,476.158 243.782,475.971 243.407,475.596 C243.032,475.221 242.844,474.775 242.844,474.26 C242.844,473.756 243.032,473.311 243.407,472.924 C243.535,472.772 243.717,472.643 243.951,472.537 C243.893,472.385 243.776,472.268 243.6,472.186 C243.342,472.033 243.037,471.957 242.686,471.957 M243.547,479.147 C243.336,478.596 242.873,478.32 242.159,478.32 C241.444,478.32 241.001,478.596 240.831,479.147 C240.661,479.697 240.576,480.535 240.576,481.66 C240.576,482.984 240.661,483.875 240.831,484.332 C241.001,484.789 241.444,485.018 242.159,485.018 C242.873,485.018 243.336,484.742 243.547,484.192 C243.758,483.641 243.864,482.8 243.864,481.669 C243.864,480.538 243.758,479.697 243.547,479.147"/>
<path class="FiguredBass" d="M366.563,484.329 L366.563,488.002 C366.563,488.366 366.379,488.547 366.01,488.547 C365.641,488.547 365.456,488.366 365.456,488.002 L365.456,484.803 L364.894,485.032 C364.835,485.055 364.759,485.067 364.665,485.067 C364.513,485.067 364.378,485.008 364.261,484.891 C364.144,484.774 364.085,484.639 364.085,484.487 L364.085,482.694 C364.085,482.436 364.208,482.254 364.454,482.149 L365.456,481.727 L365.456,478.036 L364.894,478.264 C364.858,478.276 364.811,478.282 364.753,478.282 C364.729,478.282 364.7,478.282 364.665,478.282 C364.489,478.258 364.349,478.194 364.243,478.088 C364.138,477.983 364.085,477.86 364.085,477.719 L364.085,475.926 C364.085,475.68 364.208,475.504 364.454,475.399 L365.456,474.977 L365.456,471.233 C365.456,470.87 365.641,470.688 366.01,470.688 C366.379,470.688 366.563,470.87 366.563,471.233 L366.563,474.52 L368.831,473.571 L368.831,469.897 C368.831,469.534 369.013,469.352 369.376,469.352 C369.739,469.352 369.921,469.534 369.921,469.897 L369.921,473.131 L370.536,472.868 C370.595,472.844 370.659,472.833 370.729,472.833 C370.882,472.833 371.019,472.891 371.143,473.008 C371.266,473.126 371.327,473.26 371.327,473.413 L371.327,475.206 C371.327,475.463 371.198,475.645 370.94,475.751 L369.921,476.172 L369.921,479.881 L370.536,479.635 C370.571,479.624 370.612,479.618 370.659,479.618 C370.683,479.618 370.706,479.618 370.729,479.618 C370.929,479.653 371.078,479.717 371.178,479.811 C371.277,479.905 371.327,480.028 371.327,480.18 L371.327,481.973 C371.327,482.219 371.198,482.395 370.94,482.501 L369.921,482.922 L369.921,486.667 C369.921,487.03 369.739,487.211 369.376,487.211 C369.013,487.211 368.831,487.03 368.831,486.667 L368.831,483.379 L366.563,484.329 M366.563,481.27 L368.831,480.338 L368.831,476.629 L366.563,477.579 L366.563,481.27 "/>
<path class="FiguredBass" d="M491.439,471.957 C490.572,471.957 489.995,472.306 489.708,473.003 C489.421,473.7 489.277,474.688 489.277,475.965 L489.277,478.039 C489.887,477.793 490.414,477.664 490.859,477.652 C492.383,477.652 493.581,477.989 494.454,478.663 C495.327,479.337 495.764,480.339 495.764,481.669 C495.764,482.999 495.321,484.004 494.437,484.684 C493.552,485.363 492.359,485.703 490.859,485.703 C489.324,485.703 488.123,484.991 487.256,483.567 C486.389,482.144 485.955,480.453 485.955,478.496 C485.955,476.551 486.459,474.863 487.467,473.434 C488.475,472.004 489.799,471.289 491.439,471.289 C492.518,471.289 493.449,471.562 494.234,472.107 C495.02,472.651 495.412,473.369 495.412,474.26 C495.412,474.775 495.225,475.221 494.85,475.596 C494.475,475.971 494.026,476.158 493.505,476.158 C492.983,476.158 492.535,475.971 492.16,475.596 C491.785,475.221 491.598,474.775 491.598,474.26 C491.598,473.756 491.785,473.311 492.16,472.924 C492.289,472.772 492.471,472.643 492.705,472.537 C492.646,472.385 492.529,472.268 492.354,472.186 C492.096,472.033 491.791,471.957 491.439,471.957 M492.301,479.147 C492.09,478.596 491.627,478.32 490.912,478.32 C490.197,478.32 489.755,478.596 489.585,479.147 C489.415,479.697 489.33,480.535 489.33,481.66 C489.33,482.984 489.415,483.875 489.585,484.332 C489.755,484.789 490.197,485.018 490.912,485.018 C491.627,485.018 492.09,484.742 492.301,484.192 C492.512,483.641 492.617,482.8 492.617,481.669 C492.617,480.538 492.512,479.697 492.301,479.147"/>
<path class="FiguredBass" d="M617.496,483.875 L617.496,487.549 C617.496,487.912 617.312,488.094 616.942,488.094 C616.573,488.094 616.389,487.912 616.389,487.549 L616.389,484.35 L615.826,484.578 C615.768,484.602 615.691,484.613 615.598,484.613 C615.445,484.613 615.311,484.555 615.193,484.438 C615.076,484.32 615.018,484.186 615.018,484.033 L615.018,482.24 C615.018,481.983 615.141,481.801 615.387,481.695 L616.389,481.274 L616.389,477.582 L615.826,477.811 C615.791,477.822 615.744,477.828 615.686,477.828 C615.662,477.828 615.633,477.828 615.598,477.828 C615.422,477.805 615.281,477.74 615.176,477.635 C615.07,477.529 615.018,477.406 615.018,477.266 L615.018,475.473 C615.018,475.227 615.141,475.051 615.387,474.945 L616.389,474.524 L616.389,470.779 C616.389,470.416 616.573,470.234 616.942,470.234 C617.312,470.234 617.496,470.416 617.496,470.779 L617.496,474.067 L619.764,473.117 L619.764,469.443 C619.764,469.08 619.945,468.899 620.309,468.899 C620.672,468.899 620.854,469.08 620.854,469.443 L620.854,472.678 L621.469,472.414 C621.527,472.391 621.592,472.379 621.662,472.379 C621.815,472.379 621.952,472.438 622.075,472.555 C622.198,472.672 622.26,472.807 622.26,472.959 L622.26,474.752 C622.26,475.01 622.131,475.192 621.873,475.297 L620.854,475.719 L620.854,479.428 L621.469,479.182 C621.504,479.17 621.545,479.164 621.592,479.164 C621.615,479.164 621.639,479.164 621.662,479.164 C621.861,479.199 622.011,479.264 622.11,479.358 C622.21,479.451 622.26,479.574 622.26,479.727 L622.26,481.52 C622.26,481.766 622.131,481.942 621.873,482.047 L620.854,482.469 L620.854,486.213 C620.854,486.576 620.672,486.758 620.309,486.758 C619.945,486.758 619.764,486.576 619.764,486.213 L619.764,482.926 L617.496,483.875 M617.496,480.817 L619.764,479.885 L619.764,476.176 L617.496,477.125 L617.496,480.817 "/>
<path class="FiguredBass" d="M739.598,471.957 C738.731,471.957 738.153,472.306 737.866,473.003 C737.579,473.7 737.436,474.688 737.436,475.965 L737.436,478.039 C738.045,477.793 738.572,477.664 739.018,477.652 C740.541,477.652 741.739,477.989 742.612,478.663 C743.485,479.337 743.922,480.339 743.922,481.669 C743.922,482.999 743.48,484.004 742.595,484.684 C741.71,485.363 740.518,485.703 739.018,485.703 C737.483,485.703 736.281,484.991 735.414,483.567 C734.547,482.144 734.113,480.453 734.113,478.496 C734.113,476.551 734.617,474.863 735.625,473.434 C736.633,472.004 737.957,471.289 739.598,471.289 C740.676,471.289 741.608,471.562 742.393,472.107 C743.178,472.651 743.57,473.369 743.57,474.26 C743.57,474.775 743.383,475.221 743.008,475.596 C742.633,475.971 742.185,476.158 741.663,476.158 C741.142,476.158 740.693,475.971 740.318,475.596 C739.943,475.221 739.756,474.775 739.756,474.26 C739.756,473.756 739.943,473.311 740.318,472.924 C740.447,472.772 740.629,472.643 740.863,472.537 C740.805,472.385 740.688,472.268 740.512,472.186 C740.254,472.033 739.949,471.957 739.598,471.957 M740.459,479.147 C740.248,478.596 739.785,478.32 739.07,478.32 C738.356,478.32 737.913,478.596 737.743,479.147 C737.573,479.697 737.488,480.535 737.488,481.66 C737.488,482.984 737.573,483.875 737.743,484.332 C737.913,484.789 738.356,485.018 739.07,485.018 C739.785,485.018 740.248,484.742 740.459,484.192 C740.67,483.641 740.776,482.8 740.776,481.669 C740.776,480.538 740.67,479.697 740.459,479.147"/>
<path class="FiguredBass" d="M244.936,343.639 C244.936,343.826 245.041,344.008 245.252,344.184 C245.463,344.359 245.695,344.526 245.947,344.684 C246.199,344.843 246.43,345.142 246.641,345.581 C246.852,346.02 246.957,346.574 246.957,347.242 C246.957,348.531 246.471,349.527 245.498,350.23 C244.526,350.934 243.295,351.285 241.807,351.285 C240.612,351.285 239.572,350.986 238.687,350.389 C237.802,349.791 237.36,349.006 237.36,348.033 C237.36,347.517 237.547,347.069 237.922,346.688 C238.297,346.308 238.745,346.117 239.267,346.117 C239.788,346.117 240.231,346.305 240.594,346.68 C240.957,347.055 241.139,347.506 241.139,348.033 C241.139,348.267 240.946,348.522 240.559,348.798 C240.172,349.073 239.979,349.328 239.979,349.562 C239.979,349.926 240.158,350.192 240.515,350.362 C240.872,350.532 241.303,350.617 241.807,350.617 C242.463,350.617 242.929,350.292 243.204,349.642 C243.48,348.991 243.617,348.191 243.617,347.242 L243.617,346.785 C243.617,346.152 243.597,345.672 243.556,345.344 C243.515,345.016 243.386,344.723 243.169,344.465 C242.952,344.207 242.621,344.078 242.176,344.078 L239.873,344.078 C239.604,344.078 239.469,343.932 239.469,343.639 C239.469,343.369 239.604,343.234 239.873,343.234 L242.176,343.234 C242.657,343.234 243.032,343.053 243.301,342.689 C243.395,342.56 243.471,342.35 243.53,342.057 C243.588,341.67 243.617,341.113 243.617,340.387 L243.617,340.158 C243.617,338.412 242.973,337.539 241.684,337.539 C240.547,337.539 239.979,337.855 239.979,338.488 C239.979,338.699 240.152,338.925 240.497,339.165 C240.843,339.405 241.016,339.631 241.016,339.842 C241.016,340.299 240.855,340.691 240.533,341.019 C240.21,341.348 239.818,341.512 239.355,341.512 C238.892,341.512 238.502,341.348 238.186,341.019 C237.869,340.691 237.711,340.299 237.711,339.842 C237.711,338.939 238.104,338.219 238.889,337.68 C239.674,337.141 240.606,336.871 241.684,336.871 C243.102,336.871 244.268,337.143 245.182,337.688 C246.096,338.233 246.553,339.057 246.553,340.158 C246.553,340.943 246.471,341.553 246.307,341.986 C246.143,342.42 245.955,342.684 245.744,342.777 C245.534,342.871 245.346,342.979 245.182,343.102 C245.018,343.225 244.936,343.404 244.936,343.639"/>
<path class="FiguredBass" d="M242.686,357.57 C241.819,357.57 241.242,357.919 240.954,358.616 C240.667,359.313 240.524,360.301 240.524,361.578 L240.524,363.652 C241.133,363.406 241.66,363.277 242.106,363.266 C243.629,363.266 244.827,363.602 245.7,364.276 C246.574,364.95 247.01,365.952 247.01,367.282 C247.01,368.612 246.568,369.617 245.683,370.297 C244.798,370.976 243.606,371.316 242.106,371.316 C240.571,371.316 239.369,370.604 238.502,369.181 C237.635,367.757 237.201,366.066 237.201,364.109 C237.201,362.164 237.705,360.476 238.713,359.047 C239.721,357.617 241.045,356.902 242.686,356.902 C243.764,356.902 244.696,357.175 245.481,357.72 C246.266,358.265 246.659,358.982 246.659,359.873 C246.659,360.389 246.471,360.834 246.096,361.209 C245.721,361.584 245.273,361.771 244.751,361.771 C244.23,361.771 243.782,361.584 243.407,361.209 C243.032,360.834 242.844,360.389 242.844,359.873 C242.844,359.369 243.032,358.924 243.407,358.537 C243.535,358.385 243.717,358.256 243.951,358.15 C243.893,357.998 243.776,357.881 243.6,357.799 C243.342,357.646 243.037,357.57 242.686,357.57 M243.547,364.76 C243.336,364.209 242.873,363.934 242.159,363.934 C241.444,363.934 241.001,364.209 240.831,364.76 C240.661,365.31 240.576,366.148 240.576,367.273 C240.576,368.598 240.661,369.488 240.831,369.945 C241.001,370.402 241.444,370.631 242.159,370.631 C242.873,370.631 243.336,370.355 243.547,369.805 C243.758,369.254 243.864,368.413 243.864,367.282 C243.864,366.151 243.758,365.31 243.547,364.76"/>
<path class="FiguredBass" d="M493.689,343.639 C493.689,343.826 493.795,344.008 494.006,344.184 C494.217,344.359 494.448,344.526 494.7,344.684 C494.952,344.843 495.184,345.142 495.395,345.581 C495.605,346.02 495.711,346.574 495.711,347.242 C495.711,348.531 495.225,349.527 494.252,350.23 C493.279,350.934 492.049,351.285 490.561,351.285 C489.365,351.285 488.325,350.986 487.44,350.389 C486.556,349.791 486.113,349.006 486.113,348.033 C486.113,347.517 486.301,347.069 486.676,346.688 C487.051,346.308 487.499,346.117 488.021,346.117 C488.542,346.117 488.984,346.305 489.348,346.68 C489.711,347.055 489.893,347.506 489.893,348.033 C489.893,348.267 489.699,348.522 489.313,348.798 C488.926,349.073 488.732,349.328 488.732,349.562 C488.732,349.926 488.911,350.192 489.269,350.362 C489.626,350.532 490.057,350.617 490.561,350.617 C491.217,350.617 491.683,350.292 491.958,349.642 C492.233,348.991 492.371,348.191 492.371,347.242 L492.371,346.785 C492.371,346.152 492.351,345.672 492.31,345.344 C492.269,345.016 492.14,344.723 491.923,344.465 C491.706,344.207 491.375,344.078 490.93,344.078 L488.627,344.078 C488.357,344.078 488.223,343.932 488.223,343.639 C488.223,343.369 488.357,343.234 488.627,343.234 L490.93,343.234 C491.41,343.234 491.785,343.053 492.055,342.689 C492.148,342.56 492.225,342.35 492.283,342.057 C492.342,341.67 492.371,341.113 492.371,340.387 L492.371,340.158 C492.371,338.412 491.727,337.539 490.438,337.539 C489.301,337.539 488.732,337.855 488.732,338.488 C488.732,338.699 488.905,338.925 489.251,339.165 C489.597,339.405 489.77,339.631 489.77,339.842 C489.77,340.299 489.608,340.691 489.286,341.019 C488.964,341.348 488.571,341.512 488.108,341.512 C487.646,341.512 487.256,341.348 486.939,341.019 C486.623,340.691 486.465,340.299 486.465,339.842 C486.465,338.939 486.857,338.219 487.643,337.68 C488.428,337.141 489.359,336.871 490.438,336.871 C491.855,336.871 493.021,337.143 493.936,337.688 C494.85,338.233 495.307,339.057 495.307,340.158 C495.307,340.943 495.225,341.553 495.061,341.986 C494.896,342.42 494.709,342.684 494.498,342.777 C494.287,342.871 494.1,342.979 493.936,343.102 C493.771,343.225 493.689,343.404 493.689,343.639"/>
<path class="FiguredBass" d="M493.021,363.019 C493.959,362 494.428,361.016 494.428,360.066 C494.428,359.293 494.097,358.684 493.435,358.238 C492.772,357.793 491.979,357.57 491.053,357.57 C490.396,357.57 489.872,357.775 489.479,358.185 C489.087,358.596 488.891,359.07 488.891,359.609 C488.891,360.266 489.178,360.764 489.752,361.103 L493.021,363.019 M493.883,363.512 C495.477,364.437 496.273,365.656 496.273,367.168 C496.273,368.305 495.787,369.28 494.814,370.095 C493.842,370.909 492.512,371.316 490.824,371.316 C489.406,371.316 488.173,370.941 487.124,370.191 C486.075,369.441 485.551,368.469 485.551,367.273 C485.551,366.828 485.68,366.377 485.938,365.92 C486.195,365.463 486.436,365.12 486.658,364.892 C486.881,364.663 487.244,364.309 487.748,363.828 C486.576,363.019 485.99,362 485.99,360.769 C485.99,359.715 486.441,358.807 487.344,358.045 C488.246,357.283 489.482,356.902 491.053,356.902 C492.307,356.902 493.394,357.186 494.313,357.755 C495.233,358.323 495.693,359.094 495.693,360.066 C495.693,361.109 495.09,362.258 493.883,363.512 M488.609,364.338 C487.414,365.381 486.816,366.359 486.816,367.273 C486.816,368.234 487.215,369.037 488.012,369.682 C488.809,370.326 489.746,370.648 490.824,370.648 C491.574,370.648 492.175,370.408 492.626,369.928 C493.077,369.447 493.303,368.891 493.303,368.258 C493.303,367.449 492.969,366.851 492.301,366.465 L488.609,364.338 "/>
<path class="FiguredBass" d="M491.439,377.601 C490.572,377.601 489.995,377.95 489.708,378.647 C489.421,379.345 489.277,380.332 489.277,381.609 L489.277,383.684 C489.887,383.437 490.414,383.309 490.859,383.297 C492.383,383.297 493.581,383.634 494.454,384.308 C495.327,384.981 495.764,385.983 495.764,387.313 C495.764,388.643 495.321,389.648 494.437,390.328 C493.552,391.008 492.359,391.348 490.859,391.348 C489.324,391.348 488.123,390.636 487.256,389.212 C486.389,387.788 485.955,386.098 485.955,384.141 C485.955,382.195 486.459,380.508 487.467,379.078 C488.475,377.648 489.799,376.934 491.439,376.934 C492.518,376.934 493.449,377.206 494.234,377.751 C495.02,378.296 495.412,379.014 495.412,379.904 C495.412,380.42 495.225,380.865 494.85,381.24 C494.475,381.615 494.026,381.803 493.505,381.803 C492.983,381.803 492.535,381.615 492.16,381.24 C491.785,380.865 491.598,380.42 491.598,379.904 C491.598,379.4 491.785,378.955 492.16,378.568 C492.289,378.416 492.471,378.287 492.705,378.182 C492.646,378.029 492.529,377.912 492.354,377.83 C492.096,377.678 491.791,377.601 491.439,377.601 M492.301,384.791 C492.09,384.24 491.627,383.965 490.912,383.965 C490.197,383.965 489.755,384.24 489.585,384.791 C489.415,385.342 489.33,386.18 489.33,387.305 C489.33,388.629 489.415,389.519 489.585,389.976 C489.755,390.434 490.197,390.662 490.912,390.662 C491.627,390.662 492.09,390.387 492.301,389.836 C492.512,389.285 492.617,388.444 492.617,387.313 C492.617,386.183 492.512,385.342 492.301,384.791"/>
<path class="FiguredBass" d="M739.598,337.539 C738.731,337.539 738.153,337.888 737.866,338.585 C737.579,339.282 737.436,340.269 737.436,341.547 L737.436,343.621 C738.045,343.375 738.572,343.246 739.018,343.234 C740.541,343.234 741.739,343.571 742.612,344.245 C743.485,344.919 743.922,345.921 743.922,347.251 C743.922,348.581 743.48,349.586 742.595,350.266 C741.71,350.945 740.518,351.285 739.018,351.285 C737.483,351.285 736.281,350.573 735.414,349.149 C734.547,347.725 734.113,346.035 734.113,344.078 C734.113,342.133 734.617,340.445 735.625,339.016 C736.633,337.586 737.957,336.871 739.598,336.871 C740.676,336.871 741.608,337.143 742.393,337.688 C743.178,338.233 743.57,338.951 743.57,339.842 C743.57,340.357 743.383,340.803 743.008,341.178 C742.633,341.553 742.185,341.74 741.663,341.74 C741.142,341.74 740.693,341.553 740.318,341.178 C739.943,340.803 739.756,340.357 739.756,339.842 C739.756,339.338 739.943,338.892 740.318,338.506 C740.447,338.353 740.629,338.225 740.863,338.119 C740.805,337.967 740.688,337.85 740.512,337.767 C740.254,337.615 739.949,337.539 739.598,337.539 M740.459,344.728 C740.248,344.178 739.785,343.902 739.07,343.902 C738.356,343.902 737.913,344.178 737.743,344.728 C737.573,345.279 737.488,346.117 737.488,347.242 C737.488,348.566 737.573,349.457 737.743,349.914 C737.913,350.371 738.356,350.6 739.07,350.6 C739.785,350.6 740.248,350.324 740.459,349.773 C740.67,349.223 740.776,348.382 740.776,347.251 C740.776,346.12 740.67,345.279 740.459,344.728"/>
<path class="FiguredBass" d="M741.848,363.67 C741.848,363.857 741.953,364.039 742.164,364.215 C742.375,364.391 742.607,364.558 742.859,364.716 C743.11,364.874 743.342,365.173 743.553,365.612 C743.764,366.052 743.869,366.605 743.869,367.273 C743.869,368.562 743.383,369.559 742.41,370.262 C741.438,370.965 740.207,371.316 738.719,371.316 C737.524,371.316 736.484,371.017 735.599,370.42 C734.714,369.822 734.272,369.037 734.272,368.064 C734.272,367.549 734.459,367.1 734.834,366.72 C735.209,366.339 735.657,366.148 736.179,366.148 C736.7,366.148 737.143,366.336 737.506,366.711 C737.869,367.086 738.051,367.537 738.051,368.064 C738.051,368.299 737.858,368.554 737.471,368.829 C737.084,369.104 736.891,369.359 736.891,369.594 C736.891,369.957 737.069,370.224 737.427,370.393 C737.784,370.563 738.215,370.648 738.719,370.648 C739.375,370.648 739.841,370.323 740.116,369.673 C740.392,369.022 740.529,368.223 740.529,367.273 L740.529,366.816 C740.529,366.184 740.509,365.703 740.468,365.375 C740.427,365.047 740.298,364.754 740.081,364.496 C739.864,364.238 739.533,364.109 739.088,364.109 L736.785,364.109 C736.516,364.109 736.381,363.963 736.381,363.67 C736.381,363.4 736.516,363.266 736.785,363.266 L739.088,363.266 C739.568,363.266 739.943,363.084 740.213,362.721 C740.307,362.592 740.383,362.381 740.442,362.088 C740.5,361.701 740.529,361.144 740.529,360.418 L740.529,360.189 C740.529,358.443 739.885,357.57 738.596,357.57 C737.459,357.57 736.891,357.887 736.891,358.519 C736.891,358.73 737.064,358.956 737.409,359.196 C737.755,359.436 737.928,359.662 737.928,359.873 C737.928,360.33 737.767,360.723 737.444,361.051 C737.122,361.379 736.73,361.543 736.267,361.543 C735.804,361.543 735.414,361.379 735.098,361.051 C734.781,360.723 734.623,360.33 734.623,359.873 C734.623,358.971 735.016,358.25 735.801,357.711 C736.586,357.172 737.518,356.902 738.596,356.902 C740.014,356.902 741.18,357.175 742.094,357.72 C743.008,358.265 743.465,359.088 743.465,360.189 C743.465,360.975 743.383,361.584 743.219,362.017 C743.055,362.451 742.867,362.715 742.656,362.809 C742.445,362.902 742.258,363.011 742.094,363.134 C741.93,363.257 741.848,363.435 741.848,363.67"/>
<path class="FiguredBass" d="M741.18,383.051 C742.117,382.031 742.586,381.047 742.586,380.098 C742.586,379.324 742.255,378.715 741.593,378.269 C740.931,377.824 740.137,377.601 739.211,377.601 C738.555,377.601 738.03,377.807 737.638,378.217 C737.245,378.627 737.049,379.101 737.049,379.641 C737.049,380.297 737.336,380.795 737.91,381.135 L741.18,383.051 M742.041,383.543 C743.635,384.469 744.432,385.687 744.432,387.199 C744.432,388.336 743.945,389.311 742.973,390.126 C742,390.94 740.67,391.348 738.983,391.348 C737.565,391.348 736.331,390.973 735.282,390.223 C734.234,389.473 733.709,388.5 733.709,387.305 C733.709,386.859 733.838,386.408 734.096,385.951 C734.354,385.494 734.594,385.151 734.817,384.923 C735.039,384.694 735.402,384.34 735.906,383.859 C734.735,383.051 734.149,382.031 734.149,380.801 C734.149,379.746 734.6,378.838 735.502,378.076 C736.404,377.314 737.641,376.934 739.211,376.934 C740.465,376.934 741.552,377.218 742.472,377.786 C743.392,378.354 743.852,379.125 743.852,380.098 C743.852,381.141 743.248,382.289 742.041,383.543 M736.768,384.369 C735.572,385.412 734.975,386.391 734.975,387.305 C734.975,388.266 735.373,389.068 736.17,389.713 C736.967,390.357 737.904,390.68 738.983,390.68 C739.733,390.68 740.333,390.439 740.784,389.959 C741.235,389.478 741.461,388.922 741.461,388.289 C741.461,387.48 741.127,386.883 740.459,386.496 L736.768,384.369 "/>
<polyline class="FretDiagram" stroke="#fc0107" stroke-width="2.27" stroke-linejoin="bevel" points="222.948,44.674 263.54,44.674"/>
<polyline class="FretDiagram" stroke="#fc0107" stroke-width="0.91" stroke-linejoin="bevel" points="223.402,44.674 223.402,85.4929"/>
<polyline class="FretDiagram" stroke="#fc0107" stroke-width="0.91" stroke-linejoin="bevel" points="231.339,44.674 231.339,85.4929"/>
<polyline class="FretDiagram" stroke="#fc0107" stroke-width="0.91" stroke-linejoin="bevel" points="239.276,44.674 239.276,85.4929"/>
<polyline class="FretDiagram" stroke="#fc0107" stroke-width="0.91" stroke-linejoin="bevel" points="247.213,44.674 247.213,85.4929"/>
<polyline class="FretDiagram" stroke="#fc0107" stroke-width="0.91" stroke-linejoin="bevel" points="255.15,44.674 255.15,85.4929"/>
<polyline class="FretDiagram" stroke="#fc0107" stroke-width="0.91" stroke-linejoin="bevel" points="263.087,44.674 263.087,85.4929"/>
<polyline class="FretDiagram" stroke="#fc0107" stroke-width="0.91" stroke-linejoin="bevel" points="223.402,53.7449 263.087,53.7449"/>
<polyline class="FretDiagram" stroke="#fc0107" stroke-width="0.91" stroke-linejoin="bevel" points="223.402,62.8157 263.087,62.8157"/>
<polyline class="FretDiagram" stroke="#fc0107" stroke-width="0.91" stroke-linejoin="bevel" points="223.402,71.8866 263.087,71.8866"/>
<polyline class="FretDiagram" stroke="#fc0107" stroke-width="0.91" stroke-linejoin="bevel" points="223.402,80.9575 263.087,80.9575"/>
<path class="FretDiagram" fill="#fc0107" fill-rule="evenodd" d="M242.054,49.2094 C242.054,50.7437 240.81,51.9874 239.276,51.9874 C237.741,51.9874 236.498,50.7437 236.498,49.2094 C236.498,47.6752 237.741,46.4315 239.276,46.4315 C240.81,46.4315 242.054,47.6752 242.054,49.2094"/>
<polyline class="FretDiagram" fill="none" stroke="#fc0107" stroke-width="1.31" stroke-linecap="round" stroke-linejoin="bevel" points="220.227,32.4283 226.576,38.778"/>
<polyline class="FretDiagram" fill="none" stroke="#fc0107" stroke-width="1.31" stroke-linecap="round" stroke-linejoin="bevel" points="220.227,38.778 226.576,32.4283"/>
<polyline class="FretDiagram" fill="none" stroke="#fc0107" stroke-width="1.31" stroke-linecap="round" stroke-linejoin="bevel" points="228.164,32.4283 234.513,38.778"/>
<polyline class="FretDiagram" fill="none" stroke="#fc0107" stroke-width="1.31" stroke-linecap="round" stroke-linejoin="bevel" points="228.164,38.778 234.513,32.4283"/>
<path class="FretDiagram" fill="none" stroke="#fc0107" stroke-width="1.31" stroke-linecap="round" stroke-linejoin="bevel" fill-rule="evenodd" d="M250.387,35.6031 C250.387,37.3565 248.966,38.778 247.213,38.778 C245.459,38.778 244.038,37.3565 244.038,35.6031 C244.038,33.8498 245.459,32.4283 247.213,32.4283 C248.966,32.4283 250.387,33.8498 250.387,35.6031"/>
<path class="FretDiagram" fill="none" stroke="#fc0107" stroke-width="1.31" stroke-linecap="round" stroke-linejoin="bevel" fill-rule="evenodd" d="M258.324,35.6031 C258.324,37.3565 256.903,38.778 255.15,38.778 C253.396,38.778 251.975,37.3565 251.975,35.6031 C251.975,33.8498 253.396,32.4283 255.15,32.4283 C256.903,32.4283 258.324,33.8498 258.324,35.6031"/>
<polyline class="FretDiagram" fill="none" stroke="#fc0107" stroke-width="1.31" stroke-linecap="round" stroke-linejoin="bevel" points="259.912,32.4283 266.261,38.778"/>
<polyline class="FretDiagram" fill="none" stroke="#fc0107" stroke-width="1.31" stroke-linecap="round" stroke-linejoin="bevel" points="259.912,38.778 266.261,32.4283"/>
<polyline class="FretDiagram" fill="#fc0107" stroke="#fc02ff" stroke-width="0.91" stroke-linejoin="bevel" points="719.86,44.674 760.452,44.674"/>
<polyline class="FretDiagram" fill="#fc0107" stroke="#fc02ff" stroke-width="0.91" stroke-linejoin="bevel" points="720.314,42.4063 720.314,85.4929"/>
<polyline class="FretDiagram" fill="#fc0107" stroke="#fc02ff" stroke-width="0.91" stroke-linejoin="bevel" points="728.251,42.4063 728.251,85.4929"/>
<polyline class="FretDiagram" fill="#fc0107" stroke="#fc02ff" stroke-width="0.91" stroke-linejoin="bevel" points="736.188,42.4063 736.188,85.4929"/>
<polyline class="FretDiagram" fill="#fc0107" stroke="#fc02ff" stroke-width="0.91" stroke-linejoin="bevel" points="744.125,42.4063 744.125,85.4929"/>
<polyline class="FretDiagram" fill="#fc0107" stroke="#fc02ff" stroke-width="0.91" stroke-linejoin="bevel" points="752.062,42.4063 752.062,85.4929"/>
<polyline class="FretDiagram" fill="#fc0107" stroke="#fc02ff" stroke-width="0.91" stroke-linejoin="bevel" points="759.999,42.4063 759.999,85.4929"/>
<polyline class="FretDiagram" fill="#fc0107" stroke="#fc02ff" stroke-width="0.91" stroke-linejoin="bevel" points="720.314,53.7449 759.999,53.7449"/>
<polyline class="FretDiagram" fill="#fc0107" stroke="#fc02ff" stroke-width="0.91" stroke-linejoin="bevel" points="720.314,62.8157 759.999,62.8157"/>
<polyline class="FretDiagram" fill="#fc0107" stroke="#fc02ff" stroke-width="0.91" stroke-linejoin="bevel" points="720.314,71.8866 759.999,71.8866"/>
<polyline class="FretDiagram" fill="#fc0107" stroke="#fc02ff" stroke-width="0.91" stroke-linejoin="bevel" points="720.314,80.9575 759.999,80.9575"/>
<path class="FretDiagram" fill="#fc02ff" fill-rule="evenodd" d="M731.029,67.3512 C731.029,68.8854 729.785,70.1291 728.251,70.1291 C726.716,70.1291 725.473,68.8854 725.473,67.3512 C725.473,65.817 726.716,64.5732 728.251,64.5732 C729.785,64.5732 731.029,65.817 731.029,67.3512"/>
<path class="FretDiagram" fill="#fc02ff" fill-rule="evenodd" d="M746.903,58.2803 C746.903,59.8145 745.659,61.0583 744.125,61.0583 C742.59,61.0583 741.347,59.8145 741.347,58.2803 C741.347,56.7461 742.59,55.5024 744.125,55.5024 C745.659,55.5024 746.903,56.7461 746.903,58.2803"/>
<polyline class="FretDiagram" fill="none" stroke="#fc02ff" stroke-width="1.31" stroke-linecap="round" stroke-linejoin="bevel" points="717.139,32.4283 723.488,38.778"/>
<polyline class="FretDiagram" fill="none" stroke="#fc02ff" stroke-width="1.31" stroke-linecap="round" stroke-linejoin="bevel" points="717.139,38.778 723.488,32.4283"/>
<path class="FretDiagram" fill="none" stroke="#fc02ff" stroke-width="1.31" stroke-linecap="round" stroke-linejoin="bevel" fill-rule="evenodd" d="M739.362,35.6031 C739.362,37.3565 737.941,38.778 736.188,38.778 C734.434,38.778 733.013,37.3565 733.013,35.6031 C733.013,33.8498 734.434,32.4283 736.188,32.4283 C737.941,32.4283 739.362,33.8498 739.362,35.6031"/>
<path class="FretDiagram" fill="none" stroke="#fc02ff" stroke-width="1.31" stroke-linecap="round" stroke-linejoin="bevel" fill-rule="evenodd" d="M755.236,35.6031 C755.236,37.3565 753.815,38.778 752.062,38.778 C750.308,38.778 748.887,37.3565 748.887,35.6031 C748.887,33.8498 750.308,32.4283 752.062,32.4283 C753.815,32.4283 755.236,33.8498 755.236,35.6031"/>
<polyline class="FretDiagram" fill="none" stroke="#fc02ff" stroke-width="1.31" stroke-linecap="round" stroke-linejoin="bevel" points="756.824,32.4283 763.173,38.778"/>
<polyline class="FretDiagram" fill="none" stroke="#fc02ff" stroke-width="1.31" stroke-linecap="round" stroke-linejoin="bevel" points="756.824,38.778 763.173,32.4283"/>
<polyline class="FretDiagram" fill="none" stroke="#fc02ff" stroke-width="5.56" stroke-linecap="round" stroke-linejoin="bevel" points="736.188,49.2094 759.999,49.2094"/>
<path class="FretDiagram" fill="#fc02ff" d="M713.028,52.4578 L707.646,52.4578 L707.646,50.7838 L713.442,42.7558 L714.612,42.7558 L714.612,51.0358 L716.502,51.0358 L716.502,52.4578 L714.612,52.4578 L714.612,55.5178 L713.028,55.5178 L713.028,52.4578 M713.028,51.0358 L713.028,45.4558 L709.032,51.0358 L713.028,51.0358 "/>
<path class="Bracket" transform="matrix(1.64409,0,0,1.79772,14.5089,446.229)" d="M0.92002,-50 C2.69004,-51.88 6.2,-55.8 6.2,-63 C6.2,-72.1 2.25996,-81.32 2.25996,-86.97 C2.25996,-93.06 5.84004,-98.84 5.95,-99 C6.05996,-99.16 6.05,-99.39 5.94004,-99.46 C5.82998,-99.53 5.62002,-99.47 5.49004,-99.32 C5.35996,-99.17 0,-93.75 0,-85.6 C0,-76.75 3.5,-70.58 3.5,-59.07 C3.5,-56.89 2.55996,-53.36 0.1,-50.33 C-0.0799805,-50.17 -0.1,-49.89 0.0599609,-49.7 L0.0700195,-49.69 L0.1,-49.66 C2.55996,-46.63 3.5,-43.1 3.5,-40.92 C3.5,-29.4 0,-23.24 0,-14.39 C0,-6.25 5.35996,-0.8 5.49004,-0.659961 C5.62002,-0.52002 5.8,-0.42998 5.94004,-0.52002 C6.07998,-0.609961 6.07998,-0.77998 5.95,-0.97998 C5.82002,-1.17998 2.25996,-6.92002 2.25996,-13.01 C2.25996,-18.66 6.2,-27.9 6.2,-37 C6.2,-44.3 2.69004,-48.12 0.92002,-50"/>
</svg>
