<?xml version="1.0" encoding="UTF-8" standalone="no"?>
<svg width="850.394px" height="566.929px" viewBox="0 0 850.394 566.929"
 xmlns="http://www.w3.org/2000/svg" xmlns:xlink="http://www.w3.org/1999/xlink" version="1.2" baseProfile="tiny">
<title>La Mineur (25)</title>
<desc>Generated by MuseScore 3.6.2</desc>
<polyline class="StaffLines" fill="none" stroke="#000000" stroke-width="1.25" stroke-linejoin="bevel" points="29.3071,107.717 836.22,107.717"/>
<polyline class="StaffLines" fill="none" stroke="#000000" stroke-width="1.25" stroke-linejoin="bevel" points="29.3071,124.724 836.22,124.724"/>
<polyline class="StaffLines" fill="none" stroke="#000000" stroke-width="1.25" stroke-linejoin="bevel" points="29.3071,141.732 836.22,141.732"/>
<polyline class="StaffLines" fill="none" stroke="#000000" stroke-width="1.25" stroke-linejoin="bevel" points="29.3071,158.74 836.22,158.74"/>
<polyline class="StaffLines" fill="none" stroke="#000000" stroke-width="1.25" stroke-linejoin="bevel" points="29.3071,175.748 836.22,175.748"/>
<polyline class="StaffLines" fill="none" stroke="#000000" stroke-width="1.25" stroke-linejoin="bevel" points="29.3071,192.756 836.22,192.756"/>
<polyline class="StaffLines" fill="none" stroke="#000000" stroke-width="1.25" stroke-linejoin="bevel" points="29.3071,266.457 836.22,266.457"/>
<polyline class="StaffLines" fill="none" stroke="#000000" stroke-width="1.25" stroke-linejoin="bevel" points="29.3071,277.795 836.22,277.795"/>
<polyline class="StaffLines" fill="none" stroke="#000000" stroke-width="1.25" stroke-linejoin="bevel" points="29.3071,289.134 836.22,289.134"/>
<polyline class="StaffLines" fill="none" stroke="#000000" stroke-width="1.25" stroke-linejoin="bevel" points="29.3071,300.472 836.22,300.472"/>
<polyline class="StaffLines" fill="none" stroke="#000000" stroke-width="1.25" stroke-linejoin="bevel" points="29.3071,311.811 836.22,311.811"/>
<polyline class="StaffLines" fill="none" stroke="#000000" stroke-width="1.25" stroke-linejoin="bevel" points="29.3071,385.512 836.22,385.512"/>
<polyline class="StaffLines" fill="none" stroke="#000000" stroke-width="1.25" stroke-linejoin="bevel" points="29.3071,396.85 836.22,396.85"/>
<polyline class="StaffLines" fill="none" stroke="#000000" stroke-width="1.25" stroke-linejoin="bevel" points="29.3071,408.189 836.22,408.189"/>
<polyline class="StaffLines" fill="none" stroke="#000000" stroke-width="1.25" stroke-linejoin="bevel" points="29.3071,419.528 836.22,419.528"/>
<polyline class="StaffLines" fill="none" stroke="#000000" stroke-width="1.25" stroke-linejoin="bevel" points="29.3071,430.866 836.22,430.866"/>
<polyline class="BarLine" fill="none" stroke="#000000" stroke-width="2.04" stroke-linejoin="bevel" points="30.3276,384.888 30.3276,431.49"/>
<polyline class="BarLine" fill="none" stroke="#000000" stroke-width="2.04" stroke-linejoin="bevel" points="167.048,384.888 167.048,431.49"/>
<polyline class="BarLine" fill="none" stroke="#000000" stroke-width="2.04" stroke-linejoin="bevel" points="275.947,384.888 275.947,431.49"/>
<polyline class="BarLine" fill="none" stroke="#000000" stroke-width="2.04" stroke-linejoin="bevel" points="365.092,384.888 365.092,431.49"/>
<polyline class="BarLine" fill="none" stroke="#000000" stroke-width="2.04" stroke-linejoin="bevel" points="464.812,384.888 464.812,431.49"/>
<polyline class="BarLine" fill="none" stroke="#000000" stroke-width="2.04" stroke-linejoin="bevel" points="557.889,384.888 557.889,431.49"/>
<polyline class="BarLine" fill="none" stroke="#000000" stroke-width="2.04" stroke-linejoin="bevel" points="653.381,384.888 653.381,431.49"/>
<polyline class="BarLine" fill="none" stroke="#000000" stroke-width="2.04" stroke-linejoin="bevel" points="746.457,384.888 746.457,431.49"/>
<polyline class="BarLine" fill="none" stroke="#000000" stroke-width="2.04" stroke-linejoin="bevel" points="835.2,384.888 835.2,431.49"/>
<polyline class="BarLine" fill="none" stroke="#000000" stroke-width="2.04" stroke-linejoin="bevel" points="30.3276,265.833 30.3276,385.512"/>
<polyline class="BarLine" fill="none" stroke="#000000" stroke-width="2.04" stroke-linejoin="bevel" points="167.048,265.833 167.048,312.435"/>
<polyline class="BarLine" fill="none" stroke="#000000" stroke-width="2.04" stroke-linejoin="bevel" points="275.947,265.833 275.947,312.435"/>
<polyline class="BarLine" fill="none" stroke="#000000" stroke-width="2.04" stroke-linejoin="bevel" points="365.092,265.833 365.092,312.435"/>
<polyline class="BarLine" fill="none" stroke="#000000" stroke-width="2.04" stroke-linejoin="bevel" points="464.812,265.833 464.812,312.435"/>
<polyline class="BarLine" fill="none" stroke="#000000" stroke-width="2.04" stroke-linejoin="bevel" points="557.889,265.833 557.889,312.435"/>
<polyline class="BarLine" fill="none" stroke="#000000" stroke-width="2.04" stroke-linejoin="bevel" points="653.381,265.833 653.381,312.435"/>
<polyline class="BarLine" fill="none" stroke="#000000" stroke-width="2.04" stroke-linejoin="bevel" points="746.457,265.833 746.457,312.435"/>
<polyline class="BarLine" fill="none" stroke="#000000" stroke-width="2.04" stroke-linejoin="bevel" points="835.2,265.833 835.2,312.435"/>
<polyline class="BarLine" fill="none" stroke="#000000" stroke-width="2.04" stroke-linejoin="bevel" points="30.3276,107.093 30.3276,266.457"/>
<polyline class="BarLine" fill="none" stroke="#000000" stroke-width="2.04" stroke-linejoin="bevel" points="167.048,107.093 167.048,193.38"/>
<polyline class="BarLine" fill="none" stroke="#000000" stroke-width="2.04" stroke-linejoin="bevel" points="275.947,107.093 275.947,193.38"/>
<polyline class="BarLine" fill="none" stroke="#000000" stroke-width="2.04" stroke-linejoin="bevel" points="365.092,107.093 365.092,193.38"/>
<polyline class="BarLine" fill="none" stroke="#000000" stroke-width="2.04" stroke-linejoin="bevel" points="464.812,107.093 464.812,193.38"/>
<polyline class="BarLine" fill="none" stroke="#000000" stroke-width="2.04" stroke-linejoin="bevel" points="557.889,107.093 557.889,193.38"/>
<polyline class="BarLine" fill="none" stroke="#000000" stroke-width="2.04" stroke-linejoin="bevel" points="653.381,107.093 653.381,193.38"/>
<polyline class="BarLine" fill="none" stroke="#000000" stroke-width="2.04" stroke-linejoin="bevel" points="746.457,107.093 746.457,193.38"/>
<polyline class="BarLine" fill="none" stroke="#000000" stroke-width="2.04" stroke-linejoin="bevel" points="835.2,107.093 835.2,193.38"/>
<path class="Accidental" transform="matrix(0.453543,0,0,0.453543,569.864,396.85)" d="M23.3,-10.6 C23.9,-10.7 24.4,-11.4 24.4,-12 L24.4,-17.9 C24.4,-18.7 23.8,-19.3 23,-19.3 L22.8,-19.3 L19.5,-18.6 L19.5,-33.5 L16.7,-33.5 L16.7,-18 L7.8,-16.2 L7.8,-30.3 L5,-30.3 L5,-15.6 L1.1,-14.8 C0.5,-14.7 0,-14 0,-13.4 L0,-13.2 L0,-7.4 L0,-7.6 C0,-6.8 0.6,-6.2 1.4,-6.2 L1.7,-6.2 L5,-6.9 L5,9.6 L1.1,10.4 C0.5,10.5 0,11.2 0,11.8 L0,17.6 C0,18.4 0.6,19 1.4,19 L1.7,19 L5,18.3 L5,33.2 L7.8,33.2 L7.8,17.7 L16.7,15.9 L16.7,30 L19.5,30 L19.5,15.3 L23.3,14.6 C23.9,14.5 24.4,13.8 24.4,13.2 L24.4,7.3 C24.4,6.5 23.8,5.9 23,5.9 L22.8,5.9 L19.5,6.6 L19.5,-9.9 L23.3,-10.6 M7.8,9.1 L7.8,-7.5 L16.7,-9.3 L16.7,7.2 L7.8,9.1 "/>
<path class="Accidental" transform="matrix(0.453543,0,0,0.453543,665.355,391.181)" d="M23.3,-10.6 C23.9,-10.7 24.4,-11.4 24.4,-12 L24.4,-17.9 C24.4,-18.7 23.8,-19.3 23,-19.3 L22.8,-19.3 L19.5,-18.6 L19.5,-33.5 L16.7,-33.5 L16.7,-18 L7.8,-16.2 L7.8,-30.3 L5,-30.3 L5,-15.6 L1.1,-14.8 C0.5,-14.7 0,-14 0,-13.4 L0,-13.2 L0,-7.4 L0,-7.6 C0,-6.8 0.6,-6.2 1.4,-6.2 L1.7,-6.2 L5,-6.9 L5,9.6 L1.1,10.4 C0.5,10.5 0,11.2 0,11.8 L0,17.6 C0,18.4 0.6,19 1.4,19 L1.7,19 L5,18.3 L5,33.2 L7.8,33.2 L7.8,17.7 L16.7,15.9 L16.7,30 L19.5,30 L19.5,15.3 L23.3,14.6 C23.9,14.5 24.4,13.8 24.4,13.2 L24.4,7.3 C24.4,6.5 23.8,5.9 23,5.9 L22.8,5.9 L19.5,6.6 L19.5,-9.9 L23.3,-10.6 M7.8,9.1 L7.8,-7.5 L16.7,-9.3 L16.7,7.2 L7.8,9.1 "/>
<path class="Accidental" transform="matrix(0.453543,0,0,0.453543,179.023,300.472)" d="M23.3,-10.6 C23.9,-10.7 24.4,-11.4 24.4,-12 L24.4,-17.9 C24.4,-18.7 23.8,-19.3 23,-19.3 L22.8,-19.3 L19.5,-18.6 L19.5,-33.5 L16.7,-33.5 L16.7,-18 L7.8,-16.2 L7.8,-30.3 L5,-30.3 L5,-15.6 L1.1,-14.8 C0.5,-14.7 0,-14 0,-13.4 L0,-13.2 L0,-7.4 L0,-7.6 C0,-6.8 0.6,-6.2 1.4,-6.2 L1.7,-6.2 L5,-6.9 L5,9.6 L1.1,10.4 C0.5,10.5 0,11.2 0,11.8 L0,17.6 C0,18.4 0.6,19 1.4,19 L1.7,19 L5,18.3 L5,33.2 L7.8,33.2 L7.8,17.7 L16.7,15.9 L16.7,30 L19.5,30 L19.5,15.3 L23.3,14.6 C23.9,14.5 24.4,13.8 24.4,13.2 L24.4,7.3 C24.4,6.5 23.8,5.9 23,5.9 L22.8,5.9 L19.5,6.6 L19.5,-9.9 L23.3,-10.6 M7.8,9.1 L7.8,-7.5 L16.7,-9.3 L16.7,7.2 L7.8,9.1 "/>
<path class="Accidental" transform="matrix(0.453543,0,0,0.453543,476.787,300.472)" d="M23.3,-10.6 C23.9,-10.7 24.4,-11.4 24.4,-12 L24.4,-17.9 C24.4,-18.7 23.8,-19.3 23,-19.3 L22.8,-19.3 L19.5,-18.6 L19.5,-33.5 L16.7,-33.5 L16.7,-18 L7.8,-16.2 L7.8,-30.3 L5,-30.3 L5,-15.6 L1.1,-14.8 C0.5,-14.7 0,-14 0,-13.4 L0,-13.2 L0,-7.4 L0,-7.6 C0,-6.8 0.6,-6.2 1.4,-6.2 L1.7,-6.2 L5,-6.9 L5,9.6 L1.1,10.4 C0.5,10.5 0,11.2 0,11.8 L0,17.6 C0,18.4 0.6,19 1.4,19 L1.7,19 L5,18.3 L5,33.2 L7.8,33.2 L7.8,17.7 L16.7,15.9 L16.7,30 L19.5,30 L19.5,15.3 L23.3,14.6 C23.9,14.5 24.4,13.8 24.4,13.2 L24.4,7.3 C24.4,6.5 23.8,5.9 23,5.9 L22.8,5.9 L19.5,6.6 L19.5,-9.9 L23.3,-10.6 M7.8,9.1 L7.8,-7.5 L16.7,-9.3 L16.7,7.2 L7.8,9.1 "/>
<path class="Note" transform="matrix(0.453543,0,0,0.453543,98.7881,425.197)" d="M18.7,-13.6 C4.9,-13.6 0,-6.6 0,-0.1 C0,6.4 4.9,13.4 18.7,13.4 C32.5,13.4 37.3,6.4 37.3,-0.1 C37.3,-6.6 32.5,-13.6 18.7,-13.6 M10.4,-4.5 C10.3,-4.9 10.3,-5.3 10.3,-5.7 C10.3,-6.5 10.5,-7.3 10.9,-8 C11.6,-9 12.8,-9.7 14.3,-10 C15.6,-10.3 16.3,-10.5 18.9,-10.5 L19,-10.5 C23,-10.5 24.3,-6.8 25.4,-3 L25.7,-2 C26.5,0.6 26.9,2.8 26.9,4.5 C26.9,5.7 26.7,6.8 26.3,7.6 C25.7,8.7 24.7,9.4 23,9.8 C22.1,10 20.6,10.1 20.6,10.1 C20.1,10.1 19.7,10.2 19.3,10.2 C16.1,10.2 14.1,9 12.7,4.7 C11.5,1 11.3,-0.1 10.4,-4.5"/>
<path class="Note" transform="matrix(0.453543,0,0,0.453543,207.686,419.528)" d="M18.7,-13.6 C4.9,-13.6 0,-6.6 0,-0.1 C0,6.4 4.9,13.4 18.7,13.4 C32.5,13.4 37.3,6.4 37.3,-0.1 C37.3,-6.6 32.5,-13.6 18.7,-13.6 M10.4,-4.5 C10.3,-4.9 10.3,-5.3 10.3,-5.7 C10.3,-6.5 10.5,-7.3 10.9,-8 C11.6,-9 12.8,-9.7 14.3,-10 C15.6,-10.3 16.3,-10.5 18.9,-10.5 L19,-10.5 C23,-10.5 24.3,-6.8 25.4,-3 L25.7,-2 C26.5,0.6 26.9,2.8 26.9,4.5 C26.9,5.7 26.7,6.8 26.3,7.6 C25.7,8.7 24.7,9.4 23,9.8 C22.1,10 20.6,10.1 20.6,10.1 C20.1,10.1 19.7,10.2 19.3,10.2 C16.1,10.2 14.1,9 12.7,4.7 C11.5,1 11.3,-0.1 10.4,-4.5"/>
<path class="Note" transform="matrix(0.453543,0,0,0.453543,292.797,413.858)" d="M18.7,-13.6 C4.9,-13.6 0,-6.6 0,-0.1 C0,6.4 4.9,13.4 18.7,13.4 C32.5,13.4 37.3,6.4 37.3,-0.1 C37.3,-6.6 32.5,-13.6 18.7,-13.6 M10.4,-4.5 C10.3,-4.9 10.3,-5.3 10.3,-5.7 C10.3,-6.5 10.5,-7.3 10.9,-8 C11.6,-9 12.8,-9.7 14.3,-10 C15.6,-10.3 16.3,-10.5 18.9,-10.5 L19,-10.5 C23,-10.5 24.3,-6.8 25.4,-3 L25.7,-2 C26.5,0.6 26.9,2.8 26.9,4.5 C26.9,5.7 26.7,6.8 26.3,7.6 C25.7,8.7 24.7,9.4 23,9.8 C22.1,10 20.6,10.1 20.6,10.1 C20.1,10.1 19.7,10.2 19.3,10.2 C16.1,10.2 14.1,9 12.7,4.7 C11.5,1 11.3,-0.1 10.4,-4.5"/>
<path class="Note" transform="matrix(0.453543,0,0,0.453543,397.611,408.189)" d="M18.7,-13.6 C4.9,-13.6 0,-6.6 0,-0.1 C0,6.4 4.9,13.4 18.7,13.4 C32.5,13.4 37.3,6.4 37.3,-0.1 C37.3,-6.6 32.5,-13.6 18.7,-13.6 M10.4,-4.5 C10.3,-4.9 10.3,-5.3 10.3,-5.7 C10.3,-6.5 10.5,-7.3 10.9,-8 C11.6,-9 12.8,-9.7 14.3,-10 C15.6,-10.3 16.3,-10.5 18.9,-10.5 L19,-10.5 C23,-10.5 24.3,-6.8 25.4,-3 L25.7,-2 C26.5,0.6 26.9,2.8 26.9,4.5 C26.9,5.7 26.7,6.8 26.3,7.6 C25.7,8.7 24.7,9.4 23,9.8 C22.1,10 20.6,10.1 20.6,10.1 C20.1,10.1 19.7,10.2 19.3,10.2 C16.1,10.2 14.1,9 12.7,4.7 C11.5,1 11.3,-0.1 10.4,-4.5"/>
<path class="Note" transform="matrix(0.453543,0,0,0.453543,490.687,402.52)" d="M18.7,-13.6 C4.9,-13.6 0,-6.6 0,-0.1 C0,6.4 4.9,13.4 18.7,13.4 C32.5,13.4 37.3,6.4 37.3,-0.1 C37.3,-6.6 32.5,-13.6 18.7,-13.6 M10.4,-4.5 C10.3,-4.9 10.3,-5.3 10.3,-5.7 C10.3,-6.5 10.5,-7.3 10.9,-8 C11.6,-9 12.8,-9.7 14.3,-10 C15.6,-10.3 16.3,-10.5 18.9,-10.5 L19,-10.5 C23,-10.5 24.3,-6.8 25.4,-3 L25.7,-2 C26.5,0.6 26.9,2.8 26.9,4.5 C26.9,5.7 26.7,6.8 26.3,7.6 C25.7,8.7 24.7,9.4 23,9.8 C22.1,10 20.6,10.1 20.6,10.1 C20.1,10.1 19.7,10.2 19.3,10.2 C16.1,10.2 14.1,9 12.7,4.7 C11.5,1 11.3,-0.1 10.4,-4.5"/>
<path class="Note" transform="matrix(0.453543,0,0,0.453543,583.764,396.85)" d="M18.7,-13.6 C4.9,-13.6 0,-6.6 0,-0.1 C0,6.4 4.9,13.4 18.7,13.4 C32.5,13.4 37.3,6.4 37.3,-0.1 C37.3,-6.6 32.5,-13.6 18.7,-13.6 M10.4,-4.5 C10.3,-4.9 10.3,-5.3 10.3,-5.7 C10.3,-6.5 10.5,-7.3 10.9,-8 C11.6,-9 12.8,-9.7 14.3,-10 C15.6,-10.3 16.3,-10.5 18.9,-10.5 L19,-10.5 C23,-10.5 24.3,-6.8 25.4,-3 L25.7,-2 C26.5,0.6 26.9,2.8 26.9,4.5 C26.9,5.7 26.7,6.8 26.3,7.6 C25.7,8.7 24.7,9.4 23,9.8 C22.1,10 20.6,10.1 20.6,10.1 C20.1,10.1 19.7,10.2 19.3,10.2 C16.1,10.2 14.1,9 12.7,4.7 C11.5,1 11.3,-0.1 10.4,-4.5"/>
<path class="Note" transform="matrix(0.453543,0,0,0.453543,679.256,391.181)" d="M18.7,-13.6 C4.9,-13.6 0,-6.6 0,-0.1 C0,6.4 4.9,13.4 18.7,13.4 C32.5,13.4 37.3,6.4 37.3,-0.1 C37.3,-6.6 32.5,-13.6 18.7,-13.6 M10.4,-4.5 C10.3,-4.9 10.3,-5.3 10.3,-5.7 C10.3,-6.5 10.5,-7.3 10.9,-8 C11.6,-9 12.8,-9.7 14.3,-10 C15.6,-10.3 16.3,-10.5 18.9,-10.5 L19,-10.5 C23,-10.5 24.3,-6.8 25.4,-3 L25.7,-2 C26.5,0.6 26.9,2.8 26.9,4.5 C26.9,5.7 26.7,6.8 26.3,7.6 C25.7,8.7 24.7,9.4 23,9.8 C22.1,10 20.6,10.1 20.6,10.1 C20.1,10.1 19.7,10.2 19.3,10.2 C16.1,10.2 14.1,9 12.7,4.7 C11.5,1 11.3,-0.1 10.4,-4.5"/>
<path class="Note" transform="matrix(0.453543,0,0,0.453543,763.307,385.512)" d="M18.7,-13.6 C4.9,-13.6 0,-6.6 0,-0.1 C0,6.4 4.9,13.4 18.7,13.4 C32.5,13.4 37.3,6.4 37.3,-0.1 C37.3,-6.6 32.5,-13.6 18.7,-13.6 M10.4,-4.5 C10.3,-4.9 10.3,-5.3 10.3,-5.7 C10.3,-6.5 10.5,-7.3 10.9,-8 C11.6,-9 12.8,-9.7 14.3,-10 C15.6,-10.3 16.3,-10.5 18.9,-10.5 L19,-10.5 C23,-10.5 24.3,-6.8 25.4,-3 L25.7,-2 C26.5,0.6 26.9,2.8 26.9,4.5 C26.9,5.7 26.7,6.8 26.3,7.6 C25.7,8.7 24.7,9.4 23,9.8 C22.1,10 20.6,10.1 20.6,10.1 C20.1,10.1 19.7,10.2 19.3,10.2 C16.1,10.2 14.1,9 12.7,4.7 C11.5,1 11.3,-0.1 10.4,-4.5"/>
<path class="Note" transform="matrix(0.453543,0,0,0.453543,98.7881,294.803)" d="M18.7,-13.6 C4.9,-13.6 0,-6.6 0,-0.1 C0,6.4 4.9,13.4 18.7,13.4 C32.5,13.4 37.3,6.4 37.3,-0.1 C37.3,-6.6 32.5,-13.6 18.7,-13.6 M10.4,-4.5 C10.3,-4.9 10.3,-5.3 10.3,-5.7 C10.3,-6.5 10.5,-7.3 10.9,-8 C11.6,-9 12.8,-9.7 14.3,-10 C15.6,-10.3 16.3,-10.5 18.9,-10.5 L19,-10.5 C23,-10.5 24.3,-6.8 25.4,-3 L25.7,-2 C26.5,0.6 26.9,2.8 26.9,4.5 C26.9,5.7 26.7,6.8 26.3,7.6 C25.7,8.7 24.7,9.4 23,9.8 C22.1,10 20.6,10.1 20.6,10.1 C20.1,10.1 19.7,10.2 19.3,10.2 C16.1,10.2 14.1,9 12.7,4.7 C11.5,1 11.3,-0.1 10.4,-4.5"/>
<path class="Note" transform="matrix(0.453543,0,0,0.453543,98.7881,283.465)" d="M18.7,-13.6 C4.9,-13.6 0,-6.6 0,-0.1 C0,6.4 4.9,13.4 18.7,13.4 C32.5,13.4 37.3,6.4 37.3,-0.1 C37.3,-6.6 32.5,-13.6 18.7,-13.6 M10.4,-4.5 C10.3,-4.9 10.3,-5.3 10.3,-5.7 C10.3,-6.5 10.5,-7.3 10.9,-8 C11.6,-9 12.8,-9.7 14.3,-10 C15.6,-10.3 16.3,-10.5 18.9,-10.5 L19,-10.5 C23,-10.5 24.3,-6.8 25.4,-3 L25.7,-2 C26.5,0.6 26.9,2.8 26.9,4.5 C26.9,5.7 26.7,6.8 26.3,7.6 C25.7,8.7 24.7,9.4 23,9.8 C22.1,10 20.6,10.1 20.6,10.1 C20.1,10.1 19.7,10.2 19.3,10.2 C16.1,10.2 14.1,9 12.7,4.7 C11.5,1 11.3,-0.1 10.4,-4.5"/>
<path class="Note" transform="matrix(0.453543,0,0,0.453543,98.7881,272.126)" d="M18.7,-13.6 C4.9,-13.6 0,-6.6 0,-0.1 C0,6.4 4.9,13.4 18.7,13.4 C32.5,13.4 37.3,6.4 37.3,-0.1 C37.3,-6.6 32.5,-13.6 18.7,-13.6 M10.4,-4.5 C10.3,-4.9 10.3,-5.3 10.3,-5.7 C10.3,-6.5 10.5,-7.3 10.9,-8 C11.6,-9 12.8,-9.7 14.3,-10 C15.6,-10.3 16.3,-10.5 18.9,-10.5 L19,-10.5 C23,-10.5 24.3,-6.8 25.4,-3 L25.7,-2 C26.5,0.6 26.9,2.8 26.9,4.5 C26.9,5.7 26.7,6.8 26.3,7.6 C25.7,8.7 24.7,9.4 23,9.8 C22.1,10 20.6,10.1 20.6,10.1 C20.1,10.1 19.7,10.2 19.3,10.2 C16.1,10.2 14.1,9 12.7,4.7 C11.5,1 11.3,-0.1 10.4,-4.5"/>
<path class="Note" transform="matrix(0.453543,0,0,0.453543,207.686,300.472)" d="M18.7,-13.6 C4.9,-13.6 0,-6.6 0,-0.1 C0,6.4 4.9,13.4 18.7,13.4 C32.5,13.4 37.3,6.4 37.3,-0.1 C37.3,-6.6 32.5,-13.6 18.7,-13.6 M10.4,-4.5 C10.3,-4.9 10.3,-5.3 10.3,-5.7 C10.3,-6.5 10.5,-7.3 10.9,-8 C11.6,-9 12.8,-9.7 14.3,-10 C15.6,-10.3 16.3,-10.5 18.9,-10.5 L19,-10.5 C23,-10.5 24.3,-6.8 25.4,-3 L25.7,-2 C26.5,0.6 26.9,2.8 26.9,4.5 C26.9,5.7 26.7,6.8 26.3,7.6 C25.7,8.7 24.7,9.4 23,9.8 C22.1,10 20.6,10.1 20.6,10.1 C20.1,10.1 19.7,10.2 19.3,10.2 C16.1,10.2 14.1,9 12.7,4.7 C11.5,1 11.3,-0.1 10.4,-4.5"/>
<path class="Note" transform="matrix(0.453543,0,0,0.453543,192.018,277.795)" d="M18.7,-13.6 C4.9,-13.6 0,-6.6 0,-0.1 C0,6.4 4.9,13.4 18.7,13.4 C32.5,13.4 37.3,6.4 37.3,-0.1 C37.3,-6.6 32.5,-13.6 18.7,-13.6 M10.4,-4.5 C10.3,-4.9 10.3,-5.3 10.3,-5.7 C10.3,-6.5 10.5,-7.3 10.9,-8 C11.6,-9 12.8,-9.7 14.3,-10 C15.6,-10.3 16.3,-10.5 18.9,-10.5 L19,-10.5 C23,-10.5 24.3,-6.8 25.4,-3 L25.7,-2 C26.5,0.6 26.9,2.8 26.9,4.5 C26.9,5.7 26.7,6.8 26.3,7.6 C25.7,8.7 24.7,9.4 23,9.8 C22.1,10 20.6,10.1 20.6,10.1 C20.1,10.1 19.7,10.2 19.3,10.2 C16.1,10.2 14.1,9 12.7,4.7 C11.5,1 11.3,-0.1 10.4,-4.5"/>
<path class="Note" transform="matrix(0.453543,0,0,0.453543,207.686,272.126)" d="M18.7,-13.6 C4.9,-13.6 0,-6.6 0,-0.1 C0,6.4 4.9,13.4 18.7,13.4 C32.5,13.4 37.3,6.4 37.3,-0.1 C37.3,-6.6 32.5,-13.6 18.7,-13.6 M10.4,-4.5 C10.3,-4.9 10.3,-5.3 10.3,-5.7 C10.3,-6.5 10.5,-7.3 10.9,-8 C11.6,-9 12.8,-9.7 14.3,-10 C15.6,-10.3 16.3,-10.5 18.9,-10.5 L19,-10.5 C23,-10.5 24.3,-6.8 25.4,-3 L25.7,-2 C26.5,0.6 26.9,2.8 26.9,4.5 C26.9,5.7 26.7,6.8 26.3,7.6 C25.7,8.7 24.7,9.4 23,9.8 C22.1,10 20.6,10.1 20.6,10.1 C20.1,10.1 19.7,10.2 19.3,10.2 C16.1,10.2 14.1,9 12.7,4.7 C11.5,1 11.3,-0.1 10.4,-4.5"/>
<path class="Note" transform="matrix(0.453543,0,0,0.453543,292.797,294.803)" d="M18.7,-13.6 C4.9,-13.6 0,-6.6 0,-0.1 C0,6.4 4.9,13.4 18.7,13.4 C32.5,13.4 37.3,6.4 37.3,-0.1 C37.3,-6.6 32.5,-13.6 18.7,-13.6 M10.4,-4.5 C10.3,-4.9 10.3,-5.3 10.3,-5.7 C10.3,-6.5 10.5,-7.3 10.9,-8 C11.6,-9 12.8,-9.7 14.3,-10 C15.6,-10.3 16.3,-10.5 18.9,-10.5 L19,-10.5 C23,-10.5 24.3,-6.8 25.4,-3 L25.7,-2 C26.5,0.6 26.9,2.8 26.9,4.5 C26.9,5.7 26.7,6.8 26.3,7.6 C25.7,8.7 24.7,9.4 23,9.8 C22.1,10 20.6,10.1 20.6,10.1 C20.1,10.1 19.7,10.2 19.3,10.2 C16.1,10.2 14.1,9 12.7,4.7 C11.5,1 11.3,-0.1 10.4,-4.5"/>
<path class="Note" transform="matrix(0.453543,0,0,0.453543,292.797,283.465)" d="M18.7,-13.6 C4.9,-13.6 0,-6.6 0,-0.1 C0,6.4 4.9,13.4 18.7,13.4 C32.5,13.4 37.3,6.4 37.3,-0.1 C37.3,-6.6 32.5,-13.6 18.7,-13.6 M10.4,-4.5 C10.3,-4.9 10.3,-5.3 10.3,-5.7 C10.3,-6.5 10.5,-7.3 10.9,-8 C11.6,-9 12.8,-9.7 14.3,-10 C15.6,-10.3 16.3,-10.5 18.9,-10.5 L19,-10.5 C23,-10.5 24.3,-6.8 25.4,-3 L25.7,-2 C26.5,0.6 26.9,2.8 26.9,4.5 C26.9,5.7 26.7,6.8 26.3,7.6 C25.7,8.7 24.7,9.4 23,9.8 C22.1,10 20.6,10.1 20.6,10.1 C20.1,10.1 19.7,10.2 19.3,10.2 C16.1,10.2 14.1,9 12.7,4.7 C11.5,1 11.3,-0.1 10.4,-4.5"/>
<path class="Note" transform="matrix(0.453543,0,0,0.453543,292.797,272.126)" d="M18.7,-13.6 C4.9,-13.6 0,-6.6 0,-0.1 C0,6.4 4.9,13.4 18.7,13.4 C32.5,13.4 37.3,6.4 37.3,-0.1 C37.3,-6.6 32.5,-13.6 18.7,-13.6 M10.4,-4.5 C10.3,-4.9 10.3,-5.3 10.3,-5.7 C10.3,-6.5 10.5,-7.3 10.9,-8 C11.6,-9 12.8,-9.7 14.3,-10 C15.6,-10.3 16.3,-10.5 18.9,-10.5 L19,-10.5 C23,-10.5 24.3,-6.8 25.4,-3 L25.7,-2 C26.5,0.6 26.9,2.8 26.9,4.5 C26.9,5.7 26.7,6.8 26.3,7.6 C25.7,8.7 24.7,9.4 23,9.8 C22.1,10 20.6,10.1 20.6,10.1 C20.1,10.1 19.7,10.2 19.3,10.2 C16.1,10.2 14.1,9 12.7,4.7 C11.5,1 11.3,-0.1 10.4,-4.5"/>
<path class="Note" transform="matrix(0.453543,0,0,0.453543,381.942,294.803)" d="M18.7,-13.6 C4.9,-13.6 0,-6.6 0,-0.1 C0,6.4 4.9,13.4 18.7,13.4 C32.5,13.4 37.3,6.4 37.3,-0.1 C37.3,-6.6 32.5,-13.6 18.7,-13.6 M10.4,-4.5 C10.3,-4.9 10.3,-5.3 10.3,-5.7 C10.3,-6.5 10.5,-7.3 10.9,-8 C11.6,-9 12.8,-9.7 14.3,-10 C15.6,-10.3 16.3,-10.5 18.9,-10.5 L19,-10.5 C23,-10.5 24.3,-6.8 25.4,-3 L25.7,-2 C26.5,0.6 26.9,2.8 26.9,4.5 C26.9,5.7 26.7,6.8 26.3,7.6 C25.7,8.7 24.7,9.4 23,9.8 C22.1,10 20.6,10.1 20.6,10.1 C20.1,10.1 19.7,10.2 19.3,10.2 C16.1,10.2 14.1,9 12.7,4.7 C11.5,1 11.3,-0.1 10.4,-4.5"/>
<path class="Note" transform="matrix(0.453543,0,0,0.453543,397.611,289.134)" d="M18.7,-13.6 C4.9,-13.6 0,-6.6 0,-0.1 C0,6.4 4.9,13.4 18.7,13.4 C32.5,13.4 37.3,6.4 37.3,-0.1 C37.3,-6.6 32.5,-13.6 18.7,-13.6 M10.4,-4.5 C10.3,-4.9 10.3,-5.3 10.3,-5.7 C10.3,-6.5 10.5,-7.3 10.9,-8 C11.6,-9 12.8,-9.7 14.3,-10 C15.6,-10.3 16.3,-10.5 18.9,-10.5 L19,-10.5 C23,-10.5 24.3,-6.8 25.4,-3 L25.7,-2 C26.5,0.6 26.9,2.8 26.9,4.5 C26.9,5.7 26.7,6.8 26.3,7.6 C25.7,8.7 24.7,9.4 23,9.8 C22.1,10 20.6,10.1 20.6,10.1 C20.1,10.1 19.7,10.2 19.3,10.2 C16.1,10.2 14.1,9 12.7,4.7 C11.5,1 11.3,-0.1 10.4,-4.5"/>
<path class="Note" transform="matrix(0.453543,0,0,0.453543,397.611,266.457)" d="M18.7,-13.6 C4.9,-13.6 0,-6.6 0,-0.1 C0,6.4 4.9,13.4 18.7,13.4 C32.5,13.4 37.3,6.4 37.3,-0.1 C37.3,-6.6 32.5,-13.6 18.7,-13.6 M10.4,-4.5 C10.3,-4.9 10.3,-5.3 10.3,-5.7 C10.3,-6.5 10.5,-7.3 10.9,-8 C11.6,-9 12.8,-9.7 14.3,-10 C15.6,-10.3 16.3,-10.5 18.9,-10.5 L19,-10.5 C23,-10.5 24.3,-6.8 25.4,-3 L25.7,-2 C26.5,0.6 26.9,2.8 26.9,4.5 C26.9,5.7 26.7,6.8 26.3,7.6 C25.7,8.7 24.7,9.4 23,9.8 C22.1,10 20.6,10.1 20.6,10.1 C20.1,10.1 19.7,10.2 19.3,10.2 C16.1,10.2 14.1,9 12.7,4.7 C11.5,1 11.3,-0.1 10.4,-4.5"/>
<path class="Note" transform="matrix(0.453543,0,0,0.453543,490.687,300.472)" d="M18.7,-13.6 C4.9,-13.6 0,-6.6 0,-0.1 C0,6.4 4.9,13.4 18.7,13.4 C32.5,13.4 37.3,6.4 37.3,-0.1 C37.3,-6.6 32.5,-13.6 18.7,-13.6 M10.4,-4.5 C10.3,-4.9 10.3,-5.3 10.3,-5.7 C10.3,-6.5 10.5,-7.3 10.9,-8 C11.6,-9 12.8,-9.7 14.3,-10 C15.6,-10.3 16.3,-10.5 18.9,-10.5 L19,-10.5 C23,-10.5 24.3,-6.8 25.4,-3 L25.7,-2 C26.5,0.6 26.9,2.8 26.9,4.5 C26.9,5.7 26.7,6.8 26.3,7.6 C25.7,8.7 24.7,9.4 23,9.8 C22.1,10 20.6,10.1 20.6,10.1 C20.1,10.1 19.7,10.2 19.3,10.2 C16.1,10.2 14.1,9 12.7,4.7 C11.5,1 11.3,-0.1 10.4,-4.5"/>
<path class="Note" transform="matrix(0.453543,0,0,0.453543,490.687,289.134)" d="M18.7,-13.6 C4.9,-13.6 0,-6.6 0,-0.1 C0,6.4 4.9,13.4 18.7,13.4 C32.5,13.4 37.3,6.4 37.3,-0.1 C37.3,-6.6 32.5,-13.6 18.7,-13.6 M10.4,-4.5 C10.3,-4.9 10.3,-5.3 10.3,-5.7 C10.3,-6.5 10.5,-7.3 10.9,-8 C11.6,-9 12.8,-9.7 14.3,-10 C15.6,-10.3 16.3,-10.5 18.9,-10.5 L19,-10.5 C23,-10.5 24.3,-6.8 25.4,-3 L25.7,-2 C26.5,0.6 26.9,2.8 26.9,4.5 C26.9,5.7 26.7,6.8 26.3,7.6 C25.7,8.7 24.7,9.4 23,9.8 C22.1,10 20.6,10.1 20.6,10.1 C20.1,10.1 19.7,10.2 19.3,10.2 C16.1,10.2 14.1,9 12.7,4.7 C11.5,1 11.3,-0.1 10.4,-4.5"/>
<path class="Note" transform="matrix(0.453543,0,0,0.453543,490.687,272.126)" d="M18.7,-13.6 C4.9,-13.6 0,-6.6 0,-0.1 C0,6.4 4.9,13.4 18.7,13.4 C32.5,13.4 37.3,6.4 37.3,-0.1 C37.3,-6.6 32.5,-13.6 18.7,-13.6 M10.4,-4.5 C10.3,-4.9 10.3,-5.3 10.3,-5.7 C10.3,-6.5 10.5,-7.3 10.9,-8 C11.6,-9 12.8,-9.7 14.3,-10 C15.6,-10.3 16.3,-10.5 18.9,-10.5 L19,-10.5 C23,-10.5 24.3,-6.8 25.4,-3 L25.7,-2 C26.5,0.6 26.9,2.8 26.9,4.5 C26.9,5.7 26.7,6.8 26.3,7.6 C25.7,8.7 24.7,9.4 23,9.8 C22.1,10 20.6,10.1 20.6,10.1 C20.1,10.1 19.7,10.2 19.3,10.2 C16.1,10.2 14.1,9 12.7,4.7 C11.5,1 11.3,-0.1 10.4,-4.5"/>
<path class="Note" transform="matrix(0.453543,0,0,0.453543,583.764,294.803)" d="M18.7,-13.6 C4.9,-13.6 0,-6.6 0,-0.1 C0,6.4 4.9,13.4 18.7,13.4 C32.5,13.4 37.3,6.4 37.3,-0.1 C37.3,-6.6 32.5,-13.6 18.7,-13.6 M10.4,-4.5 C10.3,-4.9 10.3,-5.3 10.3,-5.7 C10.3,-6.5 10.5,-7.3 10.9,-8 C11.6,-9 12.8,-9.7 14.3,-10 C15.6,-10.3 16.3,-10.5 18.9,-10.5 L19,-10.5 C23,-10.5 24.3,-6.8 25.4,-3 L25.7,-2 C26.5,0.6 26.9,2.8 26.9,4.5 C26.9,5.7 26.7,6.8 26.3,7.6 C25.7,8.7 24.7,9.4 23,9.8 C22.1,10 20.6,10.1 20.6,10.1 C20.1,10.1 19.7,10.2 19.3,10.2 C16.1,10.2 14.1,9 12.7,4.7 C11.5,1 11.3,-0.1 10.4,-4.5"/>
<path class="Note" transform="matrix(0.453543,0,0,0.453543,583.764,277.795)" d="M18.7,-13.6 C4.9,-13.6 0,-6.6 0,-0.1 C0,6.4 4.9,13.4 18.7,13.4 C32.5,13.4 37.3,6.4 37.3,-0.1 C37.3,-6.6 32.5,-13.6 18.7,-13.6 M10.4,-4.5 C10.3,-4.9 10.3,-5.3 10.3,-5.7 C10.3,-6.5 10.5,-7.3 10.9,-8 C11.6,-9 12.8,-9.7 14.3,-10 C15.6,-10.3 16.3,-10.5 18.9,-10.5 L19,-10.5 C23,-10.5 24.3,-6.8 25.4,-3 L25.7,-2 C26.5,0.6 26.9,2.8 26.9,4.5 C26.9,5.7 26.7,6.8 26.3,7.6 C25.7,8.7 24.7,9.4 23,9.8 C22.1,10 20.6,10.1 20.6,10.1 C20.1,10.1 19.7,10.2 19.3,10.2 C16.1,10.2 14.1,9 12.7,4.7 C11.5,1 11.3,-0.1 10.4,-4.5"/>
<path class="Note" transform="matrix(0.453543,0,0,0.453543,679.256,289.134)" d="M18.7,-13.6 C4.9,-13.6 0,-6.6 0,-0.1 C0,6.4 4.9,13.4 18.7,13.4 C32.5,13.4 37.3,6.4 37.3,-0.1 C37.3,-6.6 32.5,-13.6 18.7,-13.6 M10.4,-4.5 C10.3,-4.9 10.3,-5.3 10.3,-5.7 C10.3,-6.5 10.5,-7.3 10.9,-8 C11.6,-9 12.8,-9.7 14.3,-10 C15.6,-10.3 16.3,-10.5 18.9,-10.5 L19,-10.5 C23,-10.5 24.3,-6.8 25.4,-3 L25.7,-2 C26.5,0.6 26.9,2.8 26.9,4.5 C26.9,5.7 26.7,6.8 26.3,7.6 C25.7,8.7 24.7,9.4 23,9.8 C22.1,10 20.6,10.1 20.6,10.1 C20.1,10.1 19.7,10.2 19.3,10.2 C16.1,10.2 14.1,9 12.7,4.7 C11.5,1 11.3,-0.1 10.4,-4.5"/>
<path class="Note" transform="matrix(0.453543,0,0,0.453543,663.587,277.795)" d="M18.7,-13.6 C4.9,-13.6 0,-6.6 0,-0.1 C0,6.4 4.9,13.4 18.7,13.4 C32.5,13.4 37.3,6.4 37.3,-0.1 C37.3,-6.6 32.5,-13.6 18.7,-13.6 M10.4,-4.5 C10.3,-4.9 10.3,-5.3 10.3,-5.7 C10.3,-6.5 10.5,-7.3 10.9,-8 C11.6,-9 12.8,-9.7 14.3,-10 C15.6,-10.3 16.3,-10.5 18.9,-10.5 L19,-10.5 C23,-10.5 24.3,-6.8 25.4,-3 L25.7,-2 C26.5,0.6 26.9,2.8 26.9,4.5 C26.9,5.7 26.7,6.8 26.3,7.6 C25.7,8.7 24.7,9.4 23,9.8 C22.1,10 20.6,10.1 20.6,10.1 C20.1,10.1 19.7,10.2 19.3,10.2 C16.1,10.2 14.1,9 12.7,4.7 C11.5,1 11.3,-0.1 10.4,-4.5"/>
<path class="Note" transform="matrix(0.453543,0,0,0.453543,679.256,272.126)" d="M18.7,-13.6 C4.9,-13.6 0,-6.6 0,-0.1 C0,6.4 4.9,13.4 18.7,13.4 C32.5,13.4 37.3,6.4 37.3,-0.1 C37.3,-6.6 32.5,-13.6 18.7,-13.6 M10.4,-4.5 C10.3,-4.9 10.3,-5.3 10.3,-5.7 C10.3,-6.5 10.5,-7.3 10.9,-8 C11.6,-9 12.8,-9.7 14.3,-10 C15.6,-10.3 16.3,-10.5 18.9,-10.5 L19,-10.5 C23,-10.5 24.3,-6.8 25.4,-3 L25.7,-2 C26.5,0.6 26.9,2.8 26.9,4.5 C26.9,5.7 26.7,6.8 26.3,7.6 C25.7,8.7 24.7,9.4 23,9.8 C22.1,10 20.6,10.1 20.6,10.1 C20.1,10.1 19.7,10.2 19.3,10.2 C16.1,10.2 14.1,9 12.7,4.7 C11.5,1 11.3,-0.1 10.4,-4.5"/>
<path class="Note" transform="matrix(0.453543,0,0,0.453543,763.307,294.803)" d="M18.7,-13.6 C4.9,-13.6 0,-6.6 0,-0.1 C0,6.4 4.9,13.4 18.7,13.4 C32.5,13.4 37.3,6.4 37.3,-0.1 C37.3,-6.6 32.5,-13.6 18.7,-13.6 M10.4,-4.5 C10.3,-4.9 10.3,-5.3 10.3,-5.7 C10.3,-6.5 10.5,-7.3 10.9,-8 C11.6,-9 12.8,-9.7 14.3,-10 C15.6,-10.3 16.3,-10.5 18.9,-10.5 L19,-10.5 C23,-10.5 24.3,-6.8 25.4,-3 L25.7,-2 C26.5,0.6 26.9,2.8 26.9,4.5 C26.9,5.7 26.7,6.8 26.3,7.6 C25.7,8.7 24.7,9.4 23,9.8 C22.1,10 20.6,10.1 20.6,10.1 C20.1,10.1 19.7,10.2 19.3,10.2 C16.1,10.2 14.1,9 12.7,4.7 C11.5,1 11.3,-0.1 10.4,-4.5"/>
<path class="Note" transform="matrix(0.453543,0,0,0.453543,763.307,283.465)" d="M18.7,-13.6 C4.9,-13.6 0,-6.6 0,-0.1 C0,6.4 4.9,13.4 18.7,13.4 C32.5,13.4 37.3,6.4 37.3,-0.1 C37.3,-6.6 32.5,-13.6 18.7,-13.6 M10.4,-4.5 C10.3,-4.9 10.3,-5.3 10.3,-5.7 C10.3,-6.5 10.5,-7.3 10.9,-8 C11.6,-9 12.8,-9.7 14.3,-10 C15.6,-10.3 16.3,-10.5 18.9,-10.5 L19,-10.5 C23,-10.5 24.3,-6.8 25.4,-3 L25.7,-2 C26.5,0.6 26.9,2.8 26.9,4.5 C26.9,5.7 26.7,6.8 26.3,7.6 C25.7,8.7 24.7,9.4 23,9.8 C22.1,10 20.6,10.1 20.6,10.1 C20.1,10.1 19.7,10.2 19.3,10.2 C16.1,10.2 14.1,9 12.7,4.7 C11.5,1 11.3,-0.1 10.4,-4.5"/>
<path class="Note" transform="matrix(0.453543,0,0,0.453543,763.307,272.126)" d="M18.7,-13.6 C4.9,-13.6 0,-6.6 0,-0.1 C0,6.4 4.9,13.4 18.7,13.4 C32.5,13.4 37.3,6.4 37.3,-0.1 C37.3,-6.6 32.5,-13.6 18.7,-13.6 M10.4,-4.5 C10.3,-4.9 10.3,-5.3 10.3,-5.7 C10.3,-6.5 10.5,-7.3 10.9,-8 C11.6,-9 12.8,-9.7 14.3,-10 C15.6,-10.3 16.3,-10.5 18.9,-10.5 L19,-10.5 C23,-10.5 24.3,-6.8 25.4,-3 L25.7,-2 C26.5,0.6 26.9,2.8 26.9,4.5 C26.9,5.7 26.7,6.8 26.3,7.6 C25.7,8.7 24.7,9.4 23,9.8 C22.1,10 20.6,10.1 20.6,10.1 C20.1,10.1 19.7,10.2 19.3,10.2 C16.1,10.2 14.1,9 12.7,4.7 C11.5,1 11.3,-0.1 10.4,-4.5"/>
<path class="Note" d="M113.992,175.316 C114.875,175.316 115.317,175.87 115.317,176.979 C115.317,177.757 114.83,178.918 113.857,180.46 C113.078,181.703 112.689,182.916 112.689,184.099 C112.689,184.773 113.67,185.109 115.631,185.109 C117.249,185.109 119.502,184.233 122.392,182.481 C119.487,185.282 116.964,186.682 114.823,186.682 C112.891,186.682 111.543,186.39 110.78,185.806 C110.585,185.656 110.42,185.476 110.286,185.267 C109.537,186.18 108.287,186.637 106.535,186.637 C104.858,186.637 103.57,186.292 102.671,185.604 C102.072,185.139 101.773,184.398 101.773,183.38 C101.773,181.763 102.731,179.996 104.648,178.079 C106.699,176.028 109.073,175.002 111.768,175.002 C112.442,175.002 112.936,175.249 113.25,175.743 C113.505,175.459 113.752,175.316 113.992,175.316 M109.971,184.256 C109.956,184.136 109.949,184.016 109.949,183.897 C109.949,183.837 110.712,181.748 112.24,177.63 C112.389,177.226 112.539,176.881 112.689,176.597 C112.105,176.477 111.528,176.417 110.959,176.417 C109.911,176.417 108.519,177.308 106.782,179.09 C105.224,180.677 104.446,182.047 104.446,183.2 C104.446,184.473 105.052,185.109 106.265,185.109 C107.733,185.109 108.968,184.825 109.971,184.256"/>
<path class="Note" d="M116.867,102.883 C117.705,102.314 118.312,101.842 118.686,101.468 C119.375,100.734 119.719,100.06 119.719,99.4461 C119.719,98.7423 119.33,98.3904 118.551,98.3904 C117.039,98.3904 115.422,99.7231 113.7,102.388 C113.176,103.197 112.023,105.832 110.241,110.295 C111.663,111.762 112.375,112.593 112.375,112.788 C112.375,113.057 112.202,113.192 111.858,113.192 C111.588,113.192 110.847,112.735 109.634,111.822 C108.317,114.892 106.318,117.512 103.637,119.683 C100.897,121.9 97.6252,123.008 93.8218,123.008 C92.3693,123.008 90.55,122.671 88.3638,121.997 C86.6118,121.458 85.7358,120.597 85.7358,119.414 C85.7358,117.662 86.4097,116.786 87.7573,116.786 C88.5659,116.786 88.9702,117.16 88.9702,117.909 C88.9702,118.149 88.783,118.403 88.4087,118.673 C88.214,118.807 88.1167,119.069 88.1167,119.459 C88.1167,119.923 88.6333,120.402 89.6665,120.896 C90.7896,121.435 92.4367,121.705 94.6079,121.705 C97.408,121.705 100.111,120.492 102.716,118.066 C105.082,115.865 106.782,113.304 107.815,110.385 C107.411,110.055 106.976,109.696 106.512,109.306 C105.075,108.453 104.356,107.577 104.356,106.679 C104.356,106.304 104.603,106.117 105.097,106.117 C105.756,106.117 106.647,106.679 107.77,107.802 C108.01,108.041 108.234,108.266 108.444,108.475 C108.968,107.038 109.806,105.211 110.959,102.995 C113.041,98.9819 115.571,96.9754 118.551,96.9754 C119.614,96.9754 120.453,97.1775 121.067,97.5818 C121.681,97.9861 121.988,98.5402 121.988,99.2439 C121.988,100.367 121.576,101.318 120.752,102.096 C119.899,102.905 119.008,103.309 118.08,103.309 C117.271,103.309 116.867,103.167 116.867,102.883"/>
<path class="Note" d="M116.867,136.898 C117.705,136.329 118.312,135.858 118.686,135.483 C119.375,134.75 119.719,134.076 119.719,133.462 C119.719,132.758 119.33,132.406 118.551,132.406 C117.039,132.406 115.422,133.739 113.7,136.404 C113.176,137.213 112.023,139.848 110.241,144.31 C111.663,145.778 112.375,146.609 112.375,146.804 C112.375,147.073 112.202,147.208 111.858,147.208 C111.588,147.208 110.847,146.751 109.634,145.838 C108.317,148.907 106.318,151.528 103.637,153.699 C100.897,155.915 97.6252,157.023 93.8218,157.023 C92.3693,157.023 90.55,156.686 88.3638,156.013 C86.6118,155.474 85.7358,154.613 85.7358,153.43 C85.7358,151.678 86.4097,150.802 87.7573,150.802 C88.5659,150.802 88.9702,151.176 88.9702,151.925 C88.9702,152.164 88.783,152.419 88.4087,152.688 C88.214,152.823 88.1167,153.085 88.1167,153.475 C88.1167,153.939 88.6333,154.418 89.6665,154.912 C90.7896,155.451 92.4367,155.721 94.6079,155.721 C97.408,155.721 100.111,154.508 102.716,152.082 C105.082,149.881 106.782,147.32 107.815,144.4 C107.411,144.071 106.976,143.712 106.512,143.322 C105.075,142.469 104.356,141.593 104.356,140.694 C104.356,140.32 104.603,140.133 105.097,140.133 C105.756,140.133 106.647,140.694 107.77,141.817 C108.01,142.057 108.234,142.281 108.444,142.491 C108.968,141.054 109.806,139.227 110.959,137.011 C113.041,132.998 115.571,130.991 118.551,130.991 C119.614,130.991 120.453,131.193 121.067,131.598 C121.681,132.002 121.988,132.556 121.988,133.26 C121.988,134.383 121.576,135.334 120.752,136.112 C119.899,136.921 119.008,137.325 118.08,137.325 C117.271,137.325 116.867,137.183 116.867,136.898"/>
<path class="Note" d="M116.867,119.89 C117.705,119.321 118.312,118.85 118.686,118.475 C119.375,117.742 119.719,117.068 119.719,116.454 C119.719,115.75 119.33,115.398 118.551,115.398 C117.039,115.398 115.422,116.731 113.7,119.396 C113.176,120.205 112.023,122.84 110.241,127.303 C111.663,128.77 112.375,129.601 112.375,129.796 C112.375,130.065 112.202,130.2 111.858,130.2 C111.588,130.2 110.847,129.743 109.634,128.83 C108.317,131.9 106.318,134.52 103.637,136.691 C100.897,138.907 97.6252,140.015 93.8218,140.015 C92.3693,140.015 90.55,139.679 88.3638,139.005 C86.6118,138.466 85.7358,137.605 85.7358,136.422 C85.7358,134.67 86.4097,133.794 87.7573,133.794 C88.5659,133.794 88.9702,134.168 88.9702,134.917 C88.9702,135.156 88.783,135.411 88.4087,135.681 C88.214,135.815 88.1167,136.077 88.1167,136.467 C88.1167,136.931 88.6333,137.41 89.6665,137.904 C90.7896,138.443 92.4367,138.713 94.6079,138.713 C97.408,138.713 100.111,137.5 102.716,135.074 C105.082,132.873 106.782,130.312 107.815,127.392 C107.411,127.063 106.976,126.704 106.512,126.314 C105.075,125.461 104.356,124.585 104.356,123.686 C104.356,123.312 104.603,123.125 105.097,123.125 C105.756,123.125 106.647,123.686 107.77,124.809 C108.01,125.049 108.234,125.274 108.444,125.483 C108.968,124.046 109.806,122.219 110.959,120.003 C113.041,115.99 115.571,113.983 118.551,113.983 C119.614,113.983 120.453,114.185 121.067,114.59 C121.681,114.994 121.988,115.548 121.988,116.252 C121.988,117.375 121.576,118.326 120.752,119.104 C119.899,119.913 119.008,120.317 118.08,120.317 C117.271,120.317 116.867,120.175 116.867,119.89"/>
<path class="Note" d="M229.808,204.181 C228.58,206.113 226.641,207.715 223.991,208.988 C221.685,210.096 219.528,210.65 217.522,210.65 C215.92,210.65 214.587,210.328 213.524,209.684 C212.371,208.98 211.794,208.142 211.794,207.168 C211.794,204.967 212.371,203.073 213.524,201.486 C215.096,199.33 216.683,198.251 218.286,198.251 C219.424,198.251 220.232,198.476 220.711,198.925 C221.37,199.509 221.7,200.31 221.7,201.329 C221.7,202.766 220.629,204.016 218.488,205.08 C216.406,206.113 214.961,206.787 214.153,207.101 C214.332,207.475 214.565,207.812 214.849,208.112 C215.553,208.86 216.511,209.235 217.724,209.235 C219.251,209.235 221.303,208.673 223.878,207.55 C226.349,206.457 228.326,205.334 229.808,204.181 M213.838,206.068 C214.961,205.499 215.987,204.832 216.916,204.069 C218.293,202.946 218.982,201.733 218.982,200.43 C218.982,199.696 218.645,199.33 217.971,199.33 C217.402,199.33 216.624,199.981 215.635,201.284 C214.392,202.901 213.771,204.219 213.771,205.237 C213.771,205.521 213.793,205.798 213.838,206.068"/>
<path class="Note" d="M229.808,113.529 C228.58,115.461 226.641,117.063 223.991,118.336 C221.685,119.444 219.528,119.998 217.522,119.998 C215.92,119.998 214.587,119.676 213.524,119.032 C212.371,118.328 211.794,117.49 211.794,116.516 C211.794,114.315 212.371,112.421 213.524,110.834 C215.096,108.678 216.683,107.599 218.286,107.599 C219.424,107.599 220.232,107.824 220.711,108.273 C221.37,108.857 221.7,109.658 221.7,110.677 C221.7,112.114 220.629,113.364 218.488,114.428 C216.406,115.461 214.961,116.135 214.153,116.449 C214.332,116.823 214.565,117.16 214.849,117.46 C215.553,118.208 216.511,118.583 217.724,118.583 C219.251,118.583 221.303,118.021 223.878,116.898 C226.349,115.805 228.326,114.682 229.808,113.529 M213.838,115.416 C214.961,114.847 215.987,114.18 216.916,113.417 C218.293,112.294 218.982,111.081 218.982,109.778 C218.982,109.044 218.645,108.678 217.971,108.678 C217.402,108.678 216.624,109.329 215.635,110.632 C214.392,112.249 213.771,113.567 213.771,114.585 C213.771,114.869 213.793,115.146 213.838,115.416"/>
<path class="Note" d="M225.765,85.8747 C226.604,85.3057 227.21,84.834 227.584,84.4597 C228.273,83.726 228.618,83.0521 228.618,82.4382 C228.618,81.7344 228.228,81.3826 227.45,81.3826 C225.937,81.3826 224.32,82.7152 222.598,85.3806 C222.074,86.1892 220.921,88.8246 219.139,93.2868 C220.562,94.7543 221.273,95.5854 221.273,95.78 C221.273,96.0495 221.101,96.1843 220.756,96.1843 C220.487,96.1843 219.746,95.7276 218.533,94.8142 C217.215,97.8839 215.216,100.504 212.536,102.676 C209.795,104.892 206.524,106 202.72,106 C201.268,106 199.448,105.663 197.262,104.989 C195.51,104.45 194.634,103.589 194.634,102.406 C194.634,100.654 195.308,99.7781 196.656,99.7781 C197.464,99.7781 197.869,100.152 197.869,100.901 C197.869,101.141 197.681,101.395 197.307,101.665 C197.112,101.8 197.015,102.062 197.015,102.451 C197.015,102.915 197.532,103.394 198.565,103.888 C199.688,104.427 201.335,104.697 203.506,104.697 C206.306,104.697 209.009,103.484 211.615,101.058 C213.981,98.8572 215.68,96.2966 216.713,93.3767 C216.309,93.0473 215.875,92.6879 215.411,92.2986 C213.973,91.4451 213.254,90.5691 213.254,89.6706 C213.254,89.2963 213.501,89.1091 213.996,89.1091 C214.654,89.1091 215.545,89.6706 216.668,90.7937 C216.908,91.0333 217.133,91.2579 217.342,91.4675 C217.866,90.03 218.705,88.2032 219.858,85.987 C221.939,81.974 224.47,79.9675 227.45,79.9675 C228.513,79.9675 229.351,80.1697 229.965,80.574 C230.579,80.9783 230.886,81.5323 230.886,82.2361 C230.886,83.3591 230.474,84.31 229.651,85.0886 C228.797,85.8972 227.906,86.3015 226.978,86.3015 C226.169,86.3015 225.765,86.1592 225.765,85.8747"/>
<path class="Note" d="M225.765,119.89 C226.604,119.321 227.21,118.85 227.584,118.475 C228.273,117.742 228.618,117.068 228.618,116.454 C228.618,115.75 228.228,115.398 227.45,115.398 C225.937,115.398 224.32,116.731 222.598,119.396 C222.074,120.205 220.921,122.84 219.139,127.303 C220.562,128.77 221.273,129.601 221.273,129.796 C221.273,130.065 221.101,130.2 220.756,130.2 C220.487,130.2 219.746,129.743 218.533,128.83 C217.215,131.9 215.216,134.52 212.536,136.691 C209.795,138.907 206.524,140.015 202.72,140.015 C201.268,140.015 199.448,139.679 197.262,139.005 C195.51,138.466 194.634,137.605 194.634,136.422 C194.634,134.67 195.308,133.794 196.656,133.794 C197.464,133.794 197.869,134.168 197.869,134.917 C197.869,135.156 197.681,135.411 197.307,135.681 C197.112,135.815 197.015,136.077 197.015,136.467 C197.015,136.931 197.532,137.41 198.565,137.904 C199.688,138.443 201.335,138.713 203.506,138.713 C206.306,138.713 209.009,137.5 211.615,135.074 C213.981,132.873 215.68,130.312 216.713,127.392 C216.309,127.063 215.875,126.704 215.411,126.314 C213.973,125.461 213.254,124.585 213.254,123.686 C213.254,123.312 213.501,123.125 213.996,123.125 C214.654,123.125 215.545,123.686 216.668,124.809 C216.908,125.049 217.133,125.274 217.342,125.483 C217.866,124.046 218.705,122.219 219.858,120.003 C221.939,115.99 224.47,113.983 227.45,113.983 C228.513,113.983 229.351,114.185 229.965,114.59 C230.579,114.994 230.886,115.548 230.886,116.252 C230.886,117.375 230.474,118.326 229.651,119.104 C228.797,119.913 227.906,120.317 226.978,120.317 C226.169,120.317 225.765,120.175 225.765,119.89"/>
<path class="Note" d="M286.559,176.08 C286.619,173.819 287.869,171.813 290.31,170.061 C292.481,168.503 294.855,167.725 297.43,167.725 C301.039,167.725 304.221,169.14 306.976,171.97 C308.728,173.782 309.604,176.028 309.604,178.708 C309.604,181.119 308.96,182.968 307.673,184.256 C306.1,185.843 304.438,186.637 302.686,186.637 C301.488,186.637 300.56,186.367 299.901,185.828 C298.823,184.945 298.284,183.762 298.284,182.279 C298.284,180.363 299.242,178.611 301.159,177.023 C302.731,175.721 304.311,174.867 305.898,174.463 C305.479,173.744 304.947,173.07 304.303,172.441 C302.297,170.48 300.021,169.499 297.475,169.499 C294.825,169.499 292.631,170.076 290.894,171.229 C289.097,172.412 287.652,174.029 286.559,176.08 M306.46,175.653 C305.636,176.417 304.812,177.233 303.989,178.102 C302.372,179.809 301.563,181.426 301.563,182.953 C301.563,184.585 301.937,185.401 302.686,185.401 C303.36,185.401 304.303,184.481 305.516,182.639 C306.49,181.171 306.976,179.824 306.976,178.596 C306.976,177.548 306.804,176.567 306.46,175.653"/>
<path class="Note" d="M310.876,102.883 C311.714,102.314 312.321,101.842 312.695,101.468 C313.384,100.734 313.728,100.06 313.728,99.4461 C313.728,98.7423 313.339,98.3904 312.56,98.3904 C311.048,98.3904 309.431,99.7231 307.709,102.388 C307.184,103.197 306.031,105.832 304.25,110.295 C305.672,111.762 306.383,112.593 306.383,112.788 C306.383,113.057 306.211,113.192 305.867,113.192 C305.597,113.192 304.856,112.735 303.643,111.822 C302.325,114.892 300.326,117.512 297.646,119.683 C294.906,121.9 291.634,123.008 287.831,123.008 C286.378,123.008 284.559,122.671 282.373,121.997 C280.621,121.458 279.745,120.597 279.745,119.414 C279.745,117.662 280.418,116.786 281.766,116.786 C282.575,116.786 282.979,117.16 282.979,117.909 C282.979,118.149 282.792,118.403 282.418,118.673 C282.223,118.807 282.126,119.069 282.126,119.459 C282.126,119.923 282.642,120.402 283.675,120.896 C284.798,121.435 286.446,121.705 288.617,121.705 C291.417,121.705 294.12,120.492 296.725,118.066 C299.091,115.865 300.791,113.304 301.824,110.385 C301.419,110.055 300.985,109.696 300.521,109.306 C299.084,108.453 298.365,107.577 298.365,106.679 C298.365,106.304 298.612,106.117 299.106,106.117 C299.765,106.117 300.656,106.679 301.779,107.802 C302.018,108.041 302.243,108.266 302.453,108.475 C302.977,107.038 303.815,105.211 304.968,102.995 C307.05,98.9819 309.58,96.9754 312.56,96.9754 C313.623,96.9754 314.462,97.1775 315.076,97.5818 C315.69,97.9861 315.997,98.5402 315.997,99.2439 C315.997,100.367 315.585,101.318 314.761,102.096 C313.908,102.905 313.017,103.309 312.088,103.309 C311.28,103.309 310.876,103.167 310.876,102.883"/>
<path class="Note" d="M310.876,136.898 C311.714,136.329 312.321,135.858 312.695,135.483 C313.384,134.75 313.728,134.076 313.728,133.462 C313.728,132.758 313.339,132.406 312.56,132.406 C311.048,132.406 309.431,133.739 307.709,136.404 C307.184,137.213 306.031,139.848 304.25,144.31 C305.672,145.778 306.383,146.609 306.383,146.804 C306.383,147.073 306.211,147.208 305.867,147.208 C305.597,147.208 304.856,146.751 303.643,145.838 C302.325,148.907 300.326,151.528 297.646,153.699 C294.906,155.915 291.634,157.023 287.831,157.023 C286.378,157.023 284.559,156.686 282.373,156.013 C280.621,155.474 279.745,154.613 279.745,153.43 C279.745,151.678 280.418,150.802 281.766,150.802 C282.575,150.802 282.979,151.176 282.979,151.925 C282.979,152.164 282.792,152.419 282.418,152.688 C282.223,152.823 282.126,153.085 282.126,153.475 C282.126,153.939 282.642,154.418 283.675,154.912 C284.798,155.451 286.446,155.721 288.617,155.721 C291.417,155.721 294.12,154.508 296.725,152.082 C299.091,149.881 300.791,147.32 301.824,144.4 C301.419,144.071 300.985,143.712 300.521,143.322 C299.084,142.469 298.365,141.593 298.365,140.694 C298.365,140.32 298.612,140.133 299.106,140.133 C299.765,140.133 300.656,140.694 301.779,141.817 C302.018,142.057 302.243,142.281 302.453,142.491 C302.977,141.054 303.815,139.227 304.968,137.011 C307.05,132.998 309.58,130.991 312.56,130.991 C313.623,130.991 314.462,131.193 315.076,131.598 C315.69,132.002 315.997,132.556 315.997,133.26 C315.997,134.383 315.585,135.334 314.761,136.112 C313.908,136.921 313.017,137.325 312.088,137.325 C311.28,137.325 310.876,137.183 310.876,136.898"/>
<path class="Note" d="M310.876,119.89 C311.714,119.321 312.321,118.85 312.695,118.475 C313.384,117.742 313.728,117.068 313.728,116.454 C313.728,115.75 313.339,115.398 312.56,115.398 C311.048,115.398 309.431,116.731 307.709,119.396 C307.184,120.205 306.031,122.84 304.25,127.303 C305.672,128.77 306.383,129.601 306.383,129.796 C306.383,130.065 306.211,130.2 305.867,130.2 C305.597,130.2 304.856,129.743 303.643,128.83 C302.325,131.9 300.326,134.52 297.646,136.691 C294.906,138.907 291.634,140.015 287.831,140.015 C286.378,140.015 284.559,139.679 282.373,139.005 C280.621,138.466 279.745,137.605 279.745,136.422 C279.745,134.67 280.418,133.794 281.766,133.794 C282.575,133.794 282.979,134.168 282.979,134.917 C282.979,135.156 282.792,135.411 282.418,135.681 C282.223,135.815 282.126,136.077 282.126,136.467 C282.126,136.931 282.642,137.41 283.675,137.904 C284.798,138.443 286.446,138.713 288.617,138.713 C291.417,138.713 294.12,137.5 296.725,135.074 C299.091,132.873 300.791,130.312 301.824,127.392 C301.419,127.063 300.985,126.704 300.521,126.314 C299.084,125.461 298.365,124.585 298.365,123.686 C298.365,123.312 298.612,123.125 299.106,123.125 C299.765,123.125 300.656,123.686 301.779,124.809 C302.018,125.049 302.243,125.274 302.453,125.483 C302.977,124.046 303.815,122.219 304.968,120.003 C307.05,115.99 309.58,113.983 312.56,113.983 C313.623,113.983 314.462,114.185 315.076,114.59 C315.69,114.994 315.997,115.548 315.997,116.252 C315.997,117.375 315.585,118.326 314.761,119.104 C313.908,119.913 313.017,120.317 312.088,120.317 C311.28,120.317 310.876,120.175 310.876,119.89"/>
<path class="Note" d="M415.69,170.914 C416.528,170.345 417.135,169.873 417.509,169.499 C418.198,168.765 418.542,168.092 418.542,167.478 C418.542,166.774 418.153,166.422 417.374,166.422 C415.862,166.422 414.245,167.755 412.523,170.42 C411.998,171.229 410.845,173.864 409.064,178.326 C410.486,179.794 411.197,180.625 411.197,180.819 C411.197,181.089 411.025,181.224 410.681,181.224 C410.411,181.224 409.67,180.767 408.457,179.854 C407.139,182.923 405.14,185.544 402.46,187.715 C399.72,189.931 396.448,191.039 392.645,191.039 C391.192,191.039 389.373,190.702 387.187,190.028 C385.435,189.489 384.559,188.628 384.559,187.445 C384.559,185.693 385.233,184.817 386.58,184.817 C387.389,184.817 387.793,185.192 387.793,185.94 C387.793,186.18 387.606,186.435 387.232,186.704 C387.037,186.839 386.94,187.101 386.94,187.49 C386.94,187.954 387.456,188.434 388.489,188.928 C389.612,189.467 391.26,189.736 393.431,189.736 C396.231,189.736 398.934,188.523 401.539,186.098 C403.905,183.897 405.605,181.336 406.638,178.416 C406.234,178.087 405.799,177.727 405.335,177.338 C403.898,176.484 403.179,175.608 403.179,174.71 C403.179,174.336 403.426,174.148 403.92,174.148 C404.579,174.148 405.47,174.71 406.593,175.833 C406.832,176.073 407.057,176.297 407.267,176.507 C407.791,175.069 408.629,173.243 409.782,171.026 C411.864,167.013 414.394,165.007 417.374,165.007 C418.437,165.007 419.276,165.209 419.89,165.613 C420.504,166.018 420.811,166.572 420.811,167.275 C420.811,168.398 420.399,169.349 419.575,170.128 C418.722,170.937 417.831,171.341 416.902,171.341 C416.094,171.341 415.69,171.199 415.69,170.914"/>
<path class="Note" d="M415.69,102.883 C416.528,102.314 417.135,101.842 417.509,101.468 C418.198,100.734 418.542,100.06 418.542,99.4461 C418.542,98.7423 418.153,98.3904 417.374,98.3904 C415.862,98.3904 414.245,99.7231 412.523,102.388 C411.998,103.197 410.845,105.832 409.064,110.295 C410.486,111.762 411.197,112.593 411.197,112.788 C411.197,113.057 411.025,113.192 410.681,113.192 C410.411,113.192 409.67,112.735 408.457,111.822 C407.139,114.892 405.14,117.512 402.46,119.683 C399.72,121.9 396.448,123.008 392.645,123.008 C391.192,123.008 389.373,122.671 387.187,121.997 C385.435,121.458 384.559,120.597 384.559,119.414 C384.559,117.662 385.233,116.786 386.58,116.786 C387.389,116.786 387.793,117.16 387.793,117.909 C387.793,118.149 387.606,118.403 387.232,118.673 C387.037,118.807 386.94,119.069 386.94,119.459 C386.94,119.923 387.456,120.402 388.489,120.896 C389.612,121.435 391.26,121.705 393.431,121.705 C396.231,121.705 398.934,120.492 401.539,118.066 C403.905,115.865 405.605,113.304 406.638,110.385 C406.234,110.055 405.799,109.696 405.335,109.306 C403.898,108.453 403.179,107.577 403.179,106.679 C403.179,106.304 403.426,106.117 403.92,106.117 C404.579,106.117 405.47,106.679 406.593,107.802 C406.832,108.041 407.057,108.266 407.267,108.475 C407.791,107.038 408.629,105.211 409.782,102.995 C411.864,98.9819 414.394,96.9754 417.374,96.9754 C418.437,96.9754 419.276,97.1775 419.89,97.5818 C420.504,97.9861 420.811,98.5402 420.811,99.2439 C420.811,100.367 420.399,101.318 419.575,102.096 C418.722,102.905 417.831,103.309 416.902,103.309 C416.094,103.309 415.69,103.167 415.69,102.883"/>
<path class="Note" d="M419.733,147.545 C418.505,149.476 416.566,151.079 413.915,152.351 C411.609,153.46 409.453,154.014 407.446,154.014 C405.844,154.014 404.512,153.692 403.448,153.048 C402.295,152.344 401.719,151.505 401.719,150.532 C401.719,148.331 402.295,146.437 403.448,144.85 C405.021,142.693 406.608,141.615 408.21,141.615 C409.348,141.615 410.157,141.84 410.636,142.289 C411.295,142.873 411.624,143.674 411.624,144.692 C411.624,146.13 410.554,147.38 408.412,148.443 C406.331,149.476 404.886,150.15 404.077,150.465 C404.257,150.839 404.489,151.176 404.774,151.476 C405.477,152.224 406.436,152.599 407.649,152.599 C409.176,152.599 411.227,152.037 413.803,150.914 C416.274,149.821 418.25,148.698 419.733,147.545 M403.763,149.432 C404.886,148.863 405.912,148.196 406.84,147.433 C408.218,146.309 408.906,145.097 408.906,143.794 C408.906,143.06 408.569,142.693 407.896,142.693 C407.327,142.693 406.548,143.345 405.56,144.647 C404.317,146.265 403.695,147.582 403.695,148.601 C403.695,148.885 403.718,149.162 403.763,149.432"/>
<path class="Note" d="M415.532,124.45 C415.532,126.172 413.571,129.953 409.648,135.793 C408.09,138.114 405.852,139.813 402.932,140.891 C400.776,141.7 398.282,142.104 395.452,142.104 C394.539,142.104 393.73,141.917 393.026,141.543 C392.248,141.139 391.859,140.697 391.859,140.218 C391.859,138.975 392.525,138.353 393.858,138.353 C394.052,138.353 394.15,138.473 394.15,138.713 C394.15,138.922 394.052,139.154 393.858,139.409 C393.618,139.723 393.498,139.956 393.498,140.105 C393.498,140.555 394.172,140.779 395.52,140.779 C398.544,140.779 400.933,140.412 402.685,139.679 C404.512,138.93 406.331,137.021 408.143,133.951 L408.659,132.985 C407.791,133.644 406.93,133.973 406.076,133.973 C403.95,133.973 402.887,133.112 402.887,131.39 C402.887,129.534 404.137,127.58 406.638,125.528 C408.599,123.941 410.344,123.147 411.871,123.147 C412.635,123.147 413.271,123.349 413.78,123.754 C413.96,123.619 414.185,123.552 414.454,123.552 C415.173,123.552 415.532,123.851 415.532,124.45 M408.929,132.514 L413.174,124.675 C412.845,124.6 412.478,124.562 412.073,124.562 C410.621,124.562 409.213,125.408 407.851,127.1 C406.263,129.077 405.47,130.657 405.47,131.84 C405.47,132.618 405.986,133.008 407.02,133.008 C407.514,133.008 408.15,132.843 408.929,132.514"/>
<path class="Note" d="M494.728,186.637 C493.919,186.637 493.515,186.27 493.515,185.536 C493.515,184.293 493.702,183.38 494.077,182.796 C495.634,180.49 499.018,176.177 504.229,169.858 C506.58,166.998 509.612,165.568 513.326,165.568 C514.763,165.568 515.759,165.771 516.313,166.175 C517.166,166.804 517.593,167.56 517.593,168.443 C517.593,169.372 516.845,170.405 515.347,171.543 C513.925,172.621 512.577,173.16 511.304,173.16 C510.81,173.16 510.563,173.108 510.563,173.003 C510.563,172.853 510.803,172.696 511.282,172.531 C511.926,172.292 512.614,171.805 513.348,171.071 C514.187,170.218 514.606,169.447 514.606,168.758 C514.606,168.294 514.284,167.852 513.64,167.433 C513.071,167.073 512.15,166.894 510.877,166.894 C509.021,166.894 506.677,168.765 503.847,172.509 C501.96,175.009 500.433,177.211 499.265,179.112 C499.834,178.798 500.515,178.416 501.309,177.967 C502.282,177.413 503.121,177.136 503.825,177.136 C505.577,177.136 506.453,177.765 506.453,179.023 C506.453,180.265 505.734,181.628 504.296,183.11 C503.278,184.159 502.769,184.937 502.769,185.446 C502.769,185.97 503.278,186.232 504.296,186.232 C504.805,186.232 505.33,186.053 505.869,185.693 C506.408,185.349 506.804,185.177 507.059,185.177 C507.269,185.177 507.373,185.312 507.373,185.581 C507.373,186.015 506.954,186.472 506.116,186.951 C504.708,187.76 503.578,188.164 502.724,188.164 C501.212,188.164 500.456,187.356 500.456,185.738 C500.456,184.72 501.039,183.59 502.207,182.347 C503.061,181.433 503.488,180.527 503.488,179.629 C503.488,178.85 503.068,178.461 502.23,178.461 C501.9,178.461 500.807,178.85 498.951,179.629 C498.397,180.557 497.932,181.411 497.558,182.189 C496.136,185.154 495.192,186.637 494.728,186.637"/>
<path class="Note" d="M512.809,113.529 C511.581,115.461 509.642,117.063 506.992,118.336 C504.686,119.444 502.529,119.998 500.523,119.998 C498.921,119.998 497.588,119.676 496.525,119.032 C495.372,118.328 494.795,117.49 494.795,116.516 C494.795,114.315 495.372,112.421 496.525,110.834 C498.097,108.678 499.684,107.599 501.287,107.599 C502.425,107.599 503.233,107.824 503.712,108.273 C504.371,108.857 504.701,109.658 504.701,110.677 C504.701,112.114 503.63,113.364 501.489,114.428 C499.407,115.461 497.962,116.135 497.154,116.449 C497.333,116.823 497.566,117.16 497.85,117.46 C498.554,118.208 499.512,118.583 500.725,118.583 C502.252,118.583 504.304,118.021 506.879,116.898 C509.35,115.805 511.327,114.682 512.809,113.529 M496.839,115.416 C497.962,114.847 498.988,114.18 499.916,113.417 C501.294,112.294 501.983,111.081 501.983,109.778 C501.983,109.044 501.646,108.678 500.972,108.678 C500.403,108.678 499.624,109.329 498.636,110.632 C497.393,112.249 496.772,113.567 496.772,114.585 C496.772,114.869 496.794,115.146 496.839,115.416"/>
<path class="Note" d="M512.809,147.545 C511.581,149.476 509.642,151.079 506.992,152.351 C504.686,153.46 502.529,154.014 500.523,154.014 C498.921,154.014 497.588,153.692 496.525,153.048 C495.372,152.344 494.795,151.505 494.795,150.532 C494.795,148.331 495.372,146.437 496.525,144.85 C498.097,142.693 499.684,141.615 501.287,141.615 C502.425,141.615 503.233,141.84 503.712,142.289 C504.371,142.873 504.701,143.674 504.701,144.692 C504.701,146.13 503.63,147.38 501.489,148.443 C499.407,149.476 497.962,150.15 497.154,150.465 C497.333,150.839 497.566,151.176 497.85,151.476 C498.554,152.224 499.512,152.599 500.725,152.599 C502.252,152.599 504.304,152.037 506.879,150.914 C509.35,149.821 511.327,148.698 512.809,147.545 M496.839,149.432 C497.962,148.863 498.988,148.196 499.916,147.433 C501.294,146.309 501.983,145.097 501.983,143.794 C501.983,143.06 501.646,142.693 500.972,142.693 C500.403,142.693 499.624,143.345 498.636,144.647 C497.393,146.265 496.772,147.582 496.772,148.601 C496.772,148.885 496.794,149.162 496.839,149.432"/>
<path class="Note" d="M508.766,119.89 C509.605,119.321 510.211,118.85 510.585,118.475 C511.274,117.742 511.619,117.068 511.619,116.454 C511.619,115.75 511.229,115.398 510.451,115.398 C508.938,115.398 507.321,116.731 505.599,119.396 C505.075,120.205 503.922,122.84 502.14,127.303 C503.563,128.77 504.274,129.601 504.274,129.796 C504.274,130.065 504.102,130.2 503.757,130.2 C503.488,130.2 502.747,129.743 501.534,128.83 C500.216,131.9 498.217,134.52 495.537,136.691 C492.796,138.907 489.525,140.015 485.721,140.015 C484.269,140.015 482.449,139.679 480.263,139.005 C478.511,138.466 477.635,137.605 477.635,136.422 C477.635,134.67 478.309,133.794 479.657,133.794 C480.465,133.794 480.87,134.168 480.87,134.917 C480.87,135.156 480.682,135.411 480.308,135.681 C480.113,135.815 480.016,136.077 480.016,136.467 C480.016,136.931 480.533,137.41 481.566,137.904 C482.689,138.443 484.336,138.713 486.507,138.713 C489.307,138.713 492.01,137.5 494.616,135.074 C496.982,132.873 498.681,130.312 499.714,127.392 C499.31,127.063 498.876,126.704 498.412,126.314 C496.974,125.461 496.255,124.585 496.255,123.686 C496.255,123.312 496.502,123.125 496.997,123.125 C497.655,123.125 498.546,123.686 499.669,124.809 C499.909,125.049 500.134,125.274 500.343,125.483 C500.867,124.046 501.706,122.219 502.859,120.003 C504.94,115.99 507.471,113.983 510.451,113.983 C511.514,113.983 512.352,114.185 512.966,114.59 C513.58,114.994 513.887,115.548 513.887,116.252 C513.887,117.375 513.475,118.326 512.652,119.104 C511.798,119.913 510.907,120.317 509.979,120.317 C509.17,120.317 508.766,120.175 508.766,119.89"/>
<path class="Note" d="M605.885,164.553 C604.658,166.484 602.719,168.087 600.068,169.359 C597.762,170.467 595.606,171.021 593.599,171.021 C591.997,171.021 590.664,170.7 589.601,170.056 C588.448,169.352 587.872,168.513 587.872,167.54 C587.872,165.339 588.448,163.445 589.601,161.857 C591.174,159.701 592.761,158.623 594.363,158.623 C595.501,158.623 596.31,158.848 596.789,159.297 C597.448,159.881 597.777,160.682 597.777,161.7 C597.777,163.138 596.706,164.388 594.565,165.451 C592.484,166.484 591.039,167.158 590.23,167.473 C590.41,167.847 590.642,168.184 590.927,168.483 C591.63,169.232 592.589,169.606 593.802,169.606 C595.329,169.606 597.38,169.045 599.956,167.922 C602.427,166.829 604.403,165.706 605.885,164.553 M589.916,166.439 C591.039,165.87 592.065,165.204 592.993,164.44 C594.371,163.317 595.059,162.104 595.059,160.802 C595.059,160.068 594.722,159.701 594.049,159.701 C593.48,159.701 592.701,160.353 591.713,161.655 C590.47,163.272 589.848,164.59 589.848,165.608 C589.848,165.893 589.871,166.17 589.916,166.439"/>
<path class="Note" d="M590.41,152.621 C589.676,152.621 589.309,151.835 589.309,150.263 L589.309,143.682 C589.309,143.053 589.616,142.738 590.23,142.738 C590.5,142.738 590.702,142.761 590.837,142.806 C591.316,141.967 592.102,141.263 593.195,140.694 C594.722,139.901 596.272,139.504 597.844,139.504 C599.087,139.504 599.709,139.968 599.709,140.896 C599.709,141.675 599.289,142.064 598.451,142.064 C597.852,142.064 597.283,141.93 596.744,141.66 C596.265,141.42 595.756,141.301 595.217,141.301 C594.288,141.301 592.918,141.907 591.106,143.12 C591.361,144.333 591.488,145.748 591.488,147.365 C591.488,150.869 591.129,152.621 590.41,152.621"/>
<path class="Note" d="M577.526,125.057 C577.586,122.795 578.836,120.789 581.277,119.037 C583.448,117.48 585.822,116.701 588.397,116.701 C592.006,116.701 595.188,118.116 597.943,120.946 C599.695,122.758 600.571,125.004 600.571,127.684 C600.571,130.095 599.927,131.945 598.64,133.232 C597.067,134.82 595.405,135.613 593.653,135.613 C592.455,135.613 591.527,135.344 590.868,134.805 C589.79,133.921 589.251,132.738 589.251,131.256 C589.251,129.339 590.209,127.587 592.126,126 C593.698,124.697 595.278,123.844 596.865,123.439 C596.446,122.721 595.914,122.047 595.27,121.418 C593.264,119.456 590.988,118.475 588.442,118.475 C585.792,118.475 583.598,119.052 581.861,120.205 C580.064,121.388 578.619,123.005 577.526,125.057 M597.427,124.63 C596.603,125.393 595.779,126.209 594.956,127.078 C593.339,128.785 592.53,130.402 592.53,131.93 C592.53,133.562 592.904,134.378 593.653,134.378 C594.327,134.378 595.27,133.457 596.483,131.615 C597.457,130.148 597.943,128.8 597.943,127.572 C597.943,126.524 597.771,125.543 597.427,124.63"/>
<path class="Note" d="M697.177,158.466 C697.177,160.188 695.215,163.969 691.292,169.809 C689.735,172.13 687.496,173.829 684.576,174.907 C682.42,175.716 679.927,176.12 677.097,176.12 C676.183,176.12 675.375,175.933 674.671,175.559 C673.892,175.154 673.503,174.713 673.503,174.233 C673.503,172.991 674.169,172.369 675.502,172.369 C675.697,172.369 675.794,172.489 675.794,172.729 C675.794,172.938 675.697,173.17 675.502,173.425 C675.263,173.739 675.143,173.971 675.143,174.121 C675.143,174.57 675.817,174.795 677.164,174.795 C680.189,174.795 682.577,174.428 684.329,173.694 C686.156,172.946 687.975,171.036 689.787,167.967 L690.304,167.001 C689.435,167.66 688.574,167.989 687.721,167.989 C685.595,167.989 684.531,167.128 684.531,165.406 C684.531,163.549 685.782,161.595 688.282,159.544 C690.244,157.957 691.988,157.163 693.516,157.163 C694.279,157.163 694.916,157.365 695.425,157.77 C695.605,157.635 695.829,157.567 696.099,157.567 C696.818,157.567 697.177,157.867 697.177,158.466 M690.573,166.529 L694.819,158.69 C694.489,158.616 694.122,158.578 693.718,158.578 C692.265,158.578 690.858,159.424 689.495,161.116 C687.908,163.093 687.114,164.673 687.114,165.855 C687.114,166.634 687.631,167.023 688.664,167.023 C689.158,167.023 689.795,166.859 690.573,166.529"/>
<path class="Note" d="M683.296,118.605 C682.487,118.605 682.083,118.238 682.083,117.505 C682.083,116.262 682.27,115.348 682.645,114.764 C684.202,112.458 687.586,108.146 692.797,101.827 C695.148,98.9669 698.18,97.5369 701.894,97.5369 C703.331,97.5369 704.327,97.7391 704.881,98.1434 C705.735,98.7723 706.161,99.5284 706.161,100.412 C706.161,101.34 705.413,102.373 703.915,103.512 C702.493,104.59 701.145,105.129 699.872,105.129 C699.378,105.129 699.131,105.076 699.131,104.971 C699.131,104.822 699.371,104.665 699.85,104.5 C700.494,104.26 701.182,103.774 701.916,103.04 C702.755,102.186 703.174,101.415 703.174,100.726 C703.174,100.262 702.852,99.8204 702.208,99.4012 C701.639,99.0418 700.718,98.8621 699.445,98.8621 C697.589,98.8621 695.245,100.734 692.415,104.477 C690.528,106.978 689.001,109.179 687.833,111.081 C688.402,110.766 689.083,110.385 689.877,109.935 C690.85,109.381 691.689,109.104 692.393,109.104 C694.145,109.104 695.021,109.733 695.021,110.991 C695.021,112.234 694.302,113.596 692.864,115.079 C691.846,116.127 691.337,116.906 691.337,117.415 C691.337,117.939 691.846,118.201 692.864,118.201 C693.374,118.201 693.898,118.021 694.437,117.662 C694.976,117.318 695.373,117.145 695.627,117.145 C695.837,117.145 695.942,117.28 695.942,117.55 C695.942,117.984 695.522,118.441 694.684,118.92 C693.276,119.728 692.146,120.133 691.292,120.133 C689.78,120.133 689.024,119.324 689.024,117.707 C689.024,116.689 689.608,115.558 690.776,114.315 C691.629,113.402 692.056,112.496 692.056,111.597 C692.056,110.819 691.637,110.429 690.798,110.429 C690.469,110.429 689.375,110.819 687.519,111.597 C686.965,112.526 686.5,113.379 686.126,114.158 C684.704,117.123 683.76,118.605 683.296,118.605"/>
<path class="Note" d="M697.334,85.8747 C698.173,85.3057 698.779,84.834 699.153,84.4597 C699.842,83.726 700.187,83.0521 700.187,82.4382 C700.187,81.7344 699.797,81.3826 699.019,81.3826 C697.506,81.3826 695.889,82.7152 694.167,85.3806 C693.643,86.1892 692.49,88.8246 690.708,93.2868 C692.131,94.7543 692.842,95.5854 692.842,95.78 C692.842,96.0495 692.67,96.1843 692.325,96.1843 C692.056,96.1843 691.315,95.7276 690.102,94.8142 C688.784,97.8839 686.785,100.504 684.105,102.676 C681.364,104.892 678.093,106 674.289,106 C672.837,106 671.017,105.663 668.831,104.989 C667.079,104.45 666.203,103.589 666.203,102.406 C666.203,100.654 666.877,99.7781 668.225,99.7781 C669.033,99.7781 669.438,100.152 669.438,100.901 C669.438,101.141 669.25,101.395 668.876,101.665 C668.681,101.8 668.584,102.062 668.584,102.451 C668.584,102.915 669.101,103.394 670.134,103.888 C671.257,104.427 672.904,104.697 675.075,104.697 C677.875,104.697 680.578,103.484 683.184,101.058 C685.55,98.8572 687.249,96.2966 688.282,93.3767 C687.878,93.0473 687.444,92.6879 686.98,92.2986 C685.542,91.4451 684.823,90.5691 684.823,89.6706 C684.823,89.2963 685.07,89.1091 685.565,89.1091 C686.223,89.1091 687.114,89.6706 688.237,90.7937 C688.477,91.0333 688.702,91.2579 688.911,91.4675 C689.435,90.03 690.274,88.2032 691.427,85.987 C693.508,81.974 696.039,79.9675 699.019,79.9675 C700.082,79.9675 700.92,80.1697 701.534,80.574 C702.148,80.9783 702.455,81.5323 702.455,82.2361 C702.455,83.3591 702.043,84.31 701.22,85.0886 C700.366,85.8972 699.475,86.3015 698.547,86.3015 C697.738,86.3015 697.334,86.1592 697.334,85.8747"/>
<path class="Note" d="M697.334,119.89 C698.173,119.321 698.779,118.85 699.153,118.475 C699.842,117.742 700.187,117.068 700.187,116.454 C700.187,115.75 699.797,115.398 699.019,115.398 C697.506,115.398 695.889,116.731 694.167,119.396 C693.643,120.205 692.49,122.84 690.708,127.303 C692.131,128.77 692.842,129.601 692.842,129.796 C692.842,130.065 692.67,130.2 692.325,130.2 C692.056,130.2 691.315,129.743 690.102,128.83 C688.784,131.9 686.785,134.52 684.105,136.691 C681.364,138.907 678.093,140.015 674.289,140.015 C672.837,140.015 671.017,139.679 668.831,139.005 C667.079,138.466 666.203,137.605 666.203,136.422 C666.203,134.67 666.877,133.794 668.225,133.794 C669.033,133.794 669.438,134.168 669.438,134.917 C669.438,135.156 669.25,135.411 668.876,135.681 C668.681,135.815 668.584,136.077 668.584,136.467 C668.584,136.931 669.101,137.41 670.134,137.904 C671.257,138.443 672.904,138.713 675.075,138.713 C677.875,138.713 680.578,137.5 683.184,135.074 C685.55,132.873 687.249,130.312 688.282,127.392 C687.878,127.063 687.444,126.704 686.98,126.314 C685.542,125.461 684.823,124.585 684.823,123.686 C684.823,123.312 685.07,123.125 685.565,123.125 C686.223,123.125 687.114,123.686 688.237,124.809 C688.477,125.049 688.702,125.274 688.911,125.483 C689.435,124.046 690.274,122.219 691.427,120.003 C693.508,115.99 696.039,113.983 699.019,113.983 C700.082,113.983 700.92,114.185 701.534,114.59 C702.148,114.994 702.455,115.548 702.455,116.252 C702.455,117.375 702.043,118.326 701.22,119.104 C700.366,119.913 699.475,120.317 698.547,120.317 C697.738,120.317 697.334,120.175 697.334,119.89"/>
<path class="Note" d="M781.386,102.883 C782.224,102.314 782.831,101.842 783.205,101.468 C783.894,100.734 784.238,100.06 784.238,99.4461 C784.238,98.7423 783.849,98.3904 783.07,98.3904 C781.558,98.3904 779.941,99.7231 778.219,102.388 C777.695,103.197 776.542,105.832 774.76,110.295 C776.182,111.762 776.894,112.593 776.894,112.788 C776.894,113.057 776.721,113.192 776.377,113.192 C776.107,113.192 775.366,112.735 774.153,111.822 C772.836,114.892 770.837,117.512 768.156,119.683 C765.416,121.9 762.144,123.008 758.341,123.008 C756.888,123.008 755.069,122.671 752.883,121.997 C751.131,121.458 750.255,120.597 750.255,119.414 C750.255,117.662 750.929,116.786 752.276,116.786 C753.085,116.786 753.489,117.16 753.489,117.909 C753.489,118.149 753.302,118.403 752.928,118.673 C752.733,118.807 752.636,119.069 752.636,119.459 C752.636,119.923 753.152,120.402 754.186,120.896 C755.309,121.435 756.956,121.705 759.127,121.705 C761.927,121.705 764.63,120.492 767.235,118.066 C769.601,115.865 771.301,113.304 772.334,110.385 C771.93,110.055 771.496,109.696 771.031,109.306 C769.594,108.453 768.875,107.577 768.875,106.679 C768.875,106.304 769.122,106.117 769.616,106.117 C770.275,106.117 771.166,106.679 772.289,107.802 C772.529,108.041 772.753,108.266 772.963,108.475 C773.487,107.038 774.326,105.211 775.479,102.995 C777.56,98.9819 780.091,96.9754 783.07,96.9754 C784.134,96.9754 784.972,97.1775 785.586,97.5818 C786.2,97.9861 786.507,98.5402 786.507,99.2439 C786.507,100.367 786.095,101.318 785.272,102.096 C784.418,102.905 783.527,103.309 782.599,103.309 C781.79,103.309 781.386,103.167 781.386,102.883"/>
<path class="Note" d="M767.348,169.629 C766.539,169.629 766.135,169.262 766.135,168.528 C766.135,167.285 766.322,166.372 766.696,165.788 C768.254,163.482 771.638,159.17 776.849,152.851 C779.2,149.991 782.232,148.561 785.945,148.561 C787.383,148.561 788.379,148.763 788.933,149.167 C789.786,149.796 790.213,150.552 790.213,151.436 C790.213,152.364 789.464,153.397 787.967,154.535 C786.544,155.613 785.197,156.152 783.924,156.152 C783.43,156.152 783.183,156.1 783.183,155.995 C783.183,155.845 783.422,155.688 783.901,155.523 C784.545,155.284 785.234,154.797 785.968,154.063 C786.806,153.21 787.226,152.439 787.226,151.75 C787.226,151.286 786.904,150.844 786.26,150.425 C785.691,150.065 784.77,149.886 783.497,149.886 C781.64,149.886 779.297,151.757 776.467,155.501 C774.58,158.002 773.053,160.203 771.885,162.104 C772.454,161.79 773.135,161.408 773.929,160.959 C774.902,160.405 775.741,160.128 776.444,160.128 C778.196,160.128 779.072,160.757 779.072,162.015 C779.072,163.257 778.354,164.62 776.916,166.103 C775.898,167.151 775.389,167.929 775.389,168.438 C775.389,168.963 775.898,169.225 776.916,169.225 C777.425,169.225 777.949,169.045 778.488,168.686 C779.027,168.341 779.424,168.169 779.679,168.169 C779.888,168.169 779.993,168.304 779.993,168.573 C779.993,169.007 779.574,169.464 778.735,169.943 C777.328,170.752 776.197,171.156 775.344,171.156 C773.831,171.156 773.075,170.348 773.075,168.73 C773.075,167.712 773.659,166.582 774.827,165.339 C775.681,164.425 776.107,163.52 776.107,162.621 C776.107,161.842 775.688,161.453 774.85,161.453 C774.52,161.453 773.427,161.842 771.57,162.621 C771.016,163.549 770.552,164.403 770.178,165.182 C768.755,168.146 767.812,169.629 767.348,169.629"/>
<path class="Note" d="M781.386,136.898 C782.224,136.329 782.831,135.858 783.205,135.483 C783.894,134.75 784.238,134.076 784.238,133.462 C784.238,132.758 783.849,132.406 783.07,132.406 C781.558,132.406 779.941,133.739 778.219,136.404 C777.695,137.213 776.542,139.848 774.76,144.31 C776.182,145.778 776.894,146.609 776.894,146.804 C776.894,147.073 776.721,147.208 776.377,147.208 C776.107,147.208 775.366,146.751 774.153,145.838 C772.836,148.907 770.837,151.528 768.156,153.699 C765.416,155.915 762.144,157.023 758.341,157.023 C756.888,157.023 755.069,156.686 752.883,156.013 C751.131,155.474 750.255,154.613 750.255,153.43 C750.255,151.678 750.929,150.802 752.276,150.802 C753.085,150.802 753.489,151.176 753.489,151.925 C753.489,152.164 753.302,152.419 752.928,152.688 C752.733,152.823 752.636,153.085 752.636,153.475 C752.636,153.939 753.152,154.418 754.186,154.912 C755.309,155.451 756.956,155.721 759.127,155.721 C761.927,155.721 764.63,154.508 767.235,152.082 C769.601,149.881 771.301,147.32 772.334,144.4 C771.93,144.071 771.496,143.712 771.031,143.322 C769.594,142.469 768.875,141.593 768.875,140.694 C768.875,140.32 769.122,140.133 769.616,140.133 C770.275,140.133 771.166,140.694 772.289,141.817 C772.529,142.057 772.753,142.281 772.963,142.491 C773.487,141.054 774.326,139.227 775.479,137.011 C777.56,132.998 780.091,130.991 783.07,130.991 C784.134,130.991 784.972,131.193 785.586,131.598 C786.2,132.002 786.507,132.556 786.507,133.26 C786.507,134.383 786.095,135.334 785.272,136.112 C784.418,136.921 783.527,137.325 782.599,137.325 C781.79,137.325 781.386,137.183 781.386,136.898"/>
<path class="Note" d="M781.386,119.89 C782.224,119.321 782.831,118.85 783.205,118.475 C783.894,117.742 784.238,117.068 784.238,116.454 C784.238,115.75 783.849,115.398 783.07,115.398 C781.558,115.398 779.941,116.731 778.219,119.396 C777.695,120.205 776.542,122.84 774.76,127.303 C776.182,128.77 776.894,129.601 776.894,129.796 C776.894,130.065 776.721,130.2 776.377,130.2 C776.107,130.2 775.366,129.743 774.153,128.83 C772.836,131.9 770.837,134.52 768.156,136.691 C765.416,138.907 762.144,140.015 758.341,140.015 C756.888,140.015 755.069,139.679 752.883,139.005 C751.131,138.466 750.255,137.605 750.255,136.422 C750.255,134.67 750.929,133.794 752.276,133.794 C753.085,133.794 753.489,134.168 753.489,134.917 C753.489,135.156 753.302,135.411 752.928,135.681 C752.733,135.815 752.636,136.077 752.636,136.467 C752.636,136.931 753.152,137.41 754.186,137.904 C755.309,138.443 756.956,138.713 759.127,138.713 C761.927,138.713 764.63,137.5 767.235,135.074 C769.601,132.873 771.301,130.312 772.334,127.392 C771.93,127.063 771.496,126.704 771.031,126.314 C769.594,125.461 768.875,124.585 768.875,123.686 C768.875,123.312 769.122,123.125 769.616,123.125 C770.275,123.125 771.166,123.686 772.289,124.809 C772.529,125.049 772.753,125.274 772.963,125.483 C773.487,124.046 774.326,122.219 775.479,120.003 C777.56,115.99 780.091,113.983 783.07,113.983 C784.134,113.983 784.972,114.185 785.586,114.59 C786.2,114.994 786.507,115.548 786.507,116.252 C786.507,117.375 786.095,118.326 785.272,119.104 C784.418,119.913 783.527,120.317 782.599,120.317 C781.79,120.317 781.386,120.175 781.386,119.89"/>
<path class="Clef" transform="matrix(0.453543,0,0,0.453543,40.3271,396.85)" d="M25.4,-25.1 C17.8,-25.1 11.7,-20.7 11.6,-20.7 C5.8,-16.4 3.5,-11.3 2.6,-7.8 C2.1,-6 1.9,-4.2 1.9,-2.5 C1.9,-0.1 2.3,2.1 3.2,4 C4.4,6.7 6.7,8.6 9.7,9.6 C10.9,10 12.2,10.2 13.5,10.2 C15.7,10.2 18,9.6 19.9,8.5 C23,6.8 24.9,3.2 24.9,-0.7 C24.9,-4.2 23.1,-7.4 20.1,-9.3 C18,-10.7 16,-11.1 14.3,-11.1 C13.1,-11.1 12,-10.9 11.1,-10.6 C10.1,-10.2 8.4,-9.2 7.6,-8.5 C7.9,-10.4 9.1,-13.3 10.2,-14.9 C11.3,-16.5 13.5,-18.5 15.2,-19.4 C17.7,-20.8 20.9,-21.4 24.4,-21.4 C34.6,-21.4 39.6,-13.2 39.6,3.6 C39.6,12.9 36.1,21.8 33.1,27.7 C29.8,34.3 25.4,40.6 21.5,44.1 C11.1,53.6 1.3,58.1 1.2,58.1 C1.2,58.1 -0.3,59 0.1,60.5 C0.4,61.5 1.3,61.7 1.9,61.7 C2,61.7 2.3,61.6 2.4,61.6 C2.5,61.6 13.9,56.9 23,49.8 C28.1,46.1 32.7,42.1 36.7,37.8 C40.3,33.9 43.4,29.7 45.9,25.5 C50.3,18 52.8,10.2 52.8,3.5 C52.8,-4.8 50.6,-11.7 46.5,-16.6 C41.8,-22.2 34.7,-25.1 25.4,-25.1 M56.8,-12.4 C56.8,-9.6 59,-7.4 61.6,-7.4 C64.2,-7.4 66.4,-9.6 66.4,-12.4 C66.4,-15.2 64.2,-17.5 61.6,-17.5 C59,-17.5 56.8,-15.2 56.8,-12.4 M56.8,12.3 C56.8,15.1 59,17.4 61.6,17.4 C64.2,17.4 66.4,15.1 66.4,12.3 C66.4,9.5 64.2,7.2 61.6,7.2 C59,7.2 56.8,9.5 56.8,12.3"/>
<path class="Clef" transform="matrix(0.453543,0,0,0.453543,40.3271,300.472)" d="M63.37,-5.89004 C62.14,-11.32 59.5,-15.14 58.72,-16.1801 C55.5301,-20.45 51.52,-23.3 46.8301,-24.65 C43.72,-25.54 40.72,-25.65 38.3,-25.47 C37.2601,-31.4801 36.2601,-37.3601 35.35,-42.8101 C40.79,-48.97 44.42,-54.77 46.69,-59.07 C50.1601,-65.65 51.3101,-70.2301 51.3601,-70.4301 C53.0801,-75.64 53.44,-83.34 52.34,-91.55 C51.3301,-99.1 49.24,-105.81 46.89,-109.06 C45.8601,-110.49 44.8101,-111.22 43.77,-111.22 C42.55,-111.22 40.04,-109.98 37.15,-107.21 C34.85,-105.01 31.5801,-101.12 29.02,-95.1101 C26.02,-88.05 25.8101,-78.5601 26.1601,-71.84 C26.54,-64.57 27.65,-58.8801 27.6601,-58.8301 C27.6801,-58.74 27.94,-57.24 28.39,-54.67 C28.1601,-54.44 27.92,-54.22 27.67,-53.9801 C26.6301,-52.9801 25.44,-51.84 24.0601,-50.4601 C23.2,-49.6 22.25,-48.69 21.25,-47.72 C12.79,-39.57 0,-27.25 0,-8.1 C0,-3.4 0.9,1.01992 2.68008,5.02998 C4.27002,8.62998 6.57002,11.91 9.5,14.78 C17.2301,22.33 27.82,25.5399 34.8801,25.38 C37.8301,25.31 40.4601,25.0699 42.85,24.6199 C44.6801,34.2199 45.82,41.25 45.8601,46.5899 C45.9,53.1 44.25,57.0699 40.35,59.8399 C37.92,61.5699 35.1101,62.5199 32.0101,62.6699 C29.42,62.7899 27.1601,62.3199 25.7301,61.91 L25.72,61.91 C25.72,61.91 25.4301,61.83 25.42,61.63 C25.4101,61.45 25.7601,61.4 25.77,61.4 L25.79,61.4 C27.7101,60.96 31.2801,59.73 33.64,56.43 C35.44,53.91 36.3101,49.2899 34.47,45.35 C33.3601,42.96 30.85,40.01 25.2301,39.56 C22.74,39.36 20.47,39.8699 18.47,41.0699 C16.6601,42.15 15.1601,43.7899 14.1101,45.7899 C11.65,50.4899 12.1101,56.2199 15.24,60.06 C18.2,63.68 22.82,65.9899 28.25,66.5699 C29.1,66.66 29.95,66.7 30.8,66.7 C31.5101,66.7 32.22,66.6699 32.92,66.61 C31.72,66.9399 30.64,67.4899 29.77,68.25 C28.2801,69.5399 27.44,71.38 27.44,73.41 C27.44,75.28 28.0601,76.65 29.55,78.0399 C28.4101,78.5 27.55,78.98 26.79,79.56 C25.25,80.73 24.34,82.46 24.34,84.1899 C24.34,87.45 27.3,89.63 31.72,89.63 C37.1301,89.63 40.9101,86.63 40.9101,82.35 C40.9101,80.1199 39.9101,78.18 38.0801,76.83 C41.0101,75.6199 42.37,73.9399 42.37,71.56 C42.39,70.05 41.69,68.61 40.49,67.6899 C39.2801,66.7399 37.62,66.2399 35.69,66.2399 L35.5101,66.2399 C38.2801,65.7 40.92,64.7 43.2101,63.28 C46.87,60.71 48.99,56.73 49.67,51.1 C50.2301,46.46 49.84,40.55 48.44,32.48 C48.0801,30.3899 47.54,27.36 46.8801,23.6 C52.6301,21.68 56.79,18.11 60.5601,12.26 C63.85,6.51992 64.8,0.419922 63.37,-5.89004 M32.39,87.5399 C30.19,87.5399 28.7301,86.1199 28.7301,84.01 C28.7301,82.11 29.65,80.5 31.32,79.4699 C31.6801,79.66 31.77,79.71 32.1101,79.88 C33.3,80.48 33.3,80.48 33.55,80.63 L33.5601,80.6399 C35.47,81.73 36.25,82.76 36.25,84.18 C36.24,86.0899 34.59,87.5399 32.39,87.5399 M38.3101,71.63 C38.3101,73.2699 37.7301,74.3399 36.1801,75.53 C34.74,74.78 34.35,74.56 33.9801,74.3399 L33.8801,74.28 C32.3301,73.3399 31.85,72.66 31.85,71.4 C31.85,69.6 33.2301,68.3399 35.19,68.3399 C37.17,68.35 38.3101,69.55 38.3101,71.63 M33.15,-83.8101 C34.9301,-89.55 37.67,-92.8 39.6601,-94.5301 C41.4101,-96.05 43.0601,-96.7601 43.9801,-96.7601 C44.12,-96.7601 44.24,-96.74 44.34,-96.7101 C44.8,-96.57 45.3301,-96 45.8,-95.1301 C48.1101,-90.84 47.37,-84.1301 46.0301,-79.69 C44.4,-74.29 41.4801,-68.6801 32.69,-59.0601 C32.52,-60.17 32.3601,-61.22 32.2101,-62.2 C30.95,-70.49 31.27,-77.7601 33.15,-83.8101 M29.15,20.31 C24.5101,19.0899 20.0801,16.5899 16.32,13.0899 C15.0101,11.86 13.14,9.68994 11.67,6.3 C10.3101,3.13994 9.65,-0.290039 9.7,-3.88008 C9.77002,-8.57002 11.0801,-13.39 13.59,-18.1801 C16.5101,-23.7601 21.07,-29.29 27.1301,-34.62 C28.5801,-35.9 29.95,-37.1801 31.24,-38.4601 C32,-34.2 32.8301,-29.5101 33.7101,-24.6301 C29.8601,-23.3601 25.1101,-20.2101 22,-14.5601 C18.47,-7.99004 18.6101,-2.47002 19.34,1.00996 C20.2801,5.46992 22.8101,9.22998 26.27,11.3199 C27.2,11.88 31.3301,14.01 33.17,13.43 C33.54,13.31 33.8101,13.0899 33.95,12.76 C34.4601,11.5899 33.44,10.95 31.8801,9.98994 C31.2801,9.61992 30.6101,9.2 29.8801,8.66992 C26.5601,6.17998 25.1101,1.72998 26.1801,-2.65 C26.7601,-5.05 28.04,-7.21006 29.8801,-8.91006 C31.55,-10.4601 33.59,-11.5601 35.97,-12.2 C38.0101,-0.960059 40.07,10.1899 41.7101,18.55 C41.84,19.2399 41.9801,19.91 42.1101,20.58 C37.7101,21.51 33.37,21.4199 29.15,20.31 M54.9,10.1 C53.7301,13.28 51.27,17.35 46.14,19.41 C46.07,18.9899 45.99,18.56 45.9101,18.13 C44.3601,9.36992 42.4301,-1.61006 40.47,-12.87 C50.82,-13.35 55.09,-5.91006 55.9801,-1.08008 C56.45,1.45 56.45,5.88994 54.9,10.1"/>
<path class="FiguredBass" d="M206.555,466.877 C206.426,467.018 206.256,467.088 206.045,467.088 C205.834,467.088 205.661,467.015 205.526,466.869 C205.391,466.722 205.324,466.555 205.324,466.368 L205.324,463.854 L202.81,463.854 C202.599,463.854 202.427,463.781 202.292,463.634 C202.157,463.488 202.09,463.321 202.09,463.133 C202.09,462.946 202.157,462.779 202.292,462.632 C202.427,462.486 202.599,462.412 202.81,462.412 L205.324,462.412 L205.324,459.899 C205.324,459.711 205.391,459.544 205.526,459.398 C205.661,459.251 205.834,459.178 206.045,459.178 C206.256,459.178 206.429,459.251 206.563,459.398 C206.698,459.544 206.765,459.711 206.765,459.899 L206.765,462.412 L209.279,462.412 C209.49,462.412 209.663,462.486 209.798,462.632 C209.932,462.779 210,462.946 210,463.133 C210,463.321 209.932,463.488 209.798,463.634 C209.663,463.781 209.49,463.854 209.279,463.854 L206.765,463.854 L206.765,466.368 C206.765,466.555 206.695,466.725 206.555,466.877 M216.676,456.594 C215.808,456.594 215.231,456.943 214.944,457.64 C214.657,458.337 214.514,459.325 214.514,460.602 L214.514,462.676 C215.123,462.43 215.65,462.301 216.096,462.289 C217.619,462.289 218.817,462.626 219.69,463.3 C220.563,463.974 221,464.976 221,466.306 C221,467.636 220.557,468.641 219.673,469.321 C218.788,470 217.596,470.34 216.096,470.34 C214.56,470.34 213.359,469.628 212.492,468.204 C211.625,466.781 211.191,465.09 211.191,463.133 C211.191,461.188 211.695,459.5 212.703,458.071 C213.711,456.641 215.035,455.926 216.676,455.926 C217.754,455.926 218.685,456.199 219.471,456.744 C220.256,457.288 220.648,458.006 220.648,458.897 C220.648,459.412 220.461,459.858 220.086,460.233 C219.711,460.608 219.263,460.795 218.741,460.795 C218.22,460.795 217.771,460.608 217.396,460.233 C217.021,459.858 216.834,459.412 216.834,458.897 C216.834,458.393 217.021,457.948 217.396,457.561 C217.525,457.409 217.707,457.28 217.941,457.174 C217.883,457.022 217.765,456.905 217.59,456.823 C217.332,456.67 217.027,456.594 216.676,456.594 M217.537,463.784 C217.326,463.233 216.863,462.957 216.148,462.957 C215.433,462.957 214.991,463.233 214.821,463.784 C214.651,464.334 214.566,465.172 214.566,466.297 C214.566,467.621 214.651,468.512 214.821,468.969 C214.991,469.426 215.433,469.655 216.148,469.655 C216.863,469.655 217.326,469.379 217.537,468.828 C217.748,468.278 217.853,467.437 217.853,466.306 C217.853,465.175 217.748,464.334 217.537,463.784"/>
<path class="FiguredBass" d="M301.786,456.594 C300.919,456.594 300.342,456.943 300.055,457.64 C299.767,458.337 299.624,459.325 299.624,460.602 L299.624,462.676 C300.233,462.43 300.761,462.301 301.206,462.289 C302.729,462.289 303.928,462.626 304.801,463.3 C305.674,463.974 306.11,464.976 306.11,466.306 C306.11,467.636 305.668,468.641 304.783,469.321 C303.898,470 302.706,470.34 301.206,470.34 C299.671,470.34 298.47,469.628 297.602,468.204 C296.735,466.781 296.302,465.09 296.302,463.133 C296.302,461.188 296.806,459.5 297.813,458.071 C298.821,456.641 300.145,455.926 301.786,455.926 C302.864,455.926 303.796,456.199 304.581,456.744 C305.366,457.288 305.759,458.006 305.759,458.897 C305.759,459.412 305.571,459.858 305.196,460.233 C304.821,460.608 304.373,460.795 303.851,460.795 C303.33,460.795 302.882,460.608 302.507,460.233 C302.132,459.858 301.944,459.412 301.944,458.897 C301.944,458.393 302.132,457.948 302.507,457.561 C302.636,457.409 302.817,457.28 303.052,457.174 C302.993,457.022 302.876,456.905 302.7,456.823 C302.442,456.67 302.138,456.594 301.786,456.594 M302.647,463.784 C302.436,463.233 301.974,462.957 301.259,462.957 C300.544,462.957 300.101,463.233 299.932,463.784 C299.762,464.334 299.677,465.172 299.677,466.297 C299.677,467.621 299.762,468.512 299.932,468.969 C300.101,469.426 300.544,469.655 301.259,469.655 C301.974,469.655 302.436,469.379 302.647,468.828 C302.858,468.278 302.964,467.437 302.964,466.306 C302.964,465.175 302.858,464.334 302.647,463.784"/>
<path class="FiguredBass" d="M406.6,456.594 C405.733,456.594 405.156,456.943 404.869,457.64 C404.582,458.337 404.438,459.325 404.438,460.602 L404.438,462.676 C405.047,462.43 405.575,462.301 406.02,462.289 C407.543,462.289 408.742,462.626 409.615,463.3 C410.488,463.974 410.924,464.976 410.924,466.306 C410.924,467.636 410.482,468.641 409.597,469.321 C408.712,470 407.52,470.34 406.02,470.34 C404.485,470.34 403.284,469.628 402.416,468.204 C401.549,466.781 401.116,465.09 401.116,463.133 C401.116,461.188 401.62,459.5 402.627,458.071 C403.635,456.641 404.959,455.926 406.6,455.926 C407.678,455.926 408.61,456.199 409.395,456.744 C410.18,457.288 410.573,458.006 410.573,458.897 C410.573,459.412 410.385,459.858 410.01,460.233 C409.635,460.608 409.187,460.795 408.665,460.795 C408.144,460.795 407.696,460.608 407.321,460.233 C406.946,459.858 406.758,459.412 406.758,458.897 C406.758,458.393 406.946,457.948 407.321,457.561 C407.45,457.409 407.631,457.28 407.866,457.174 C407.807,457.022 407.69,456.905 407.514,456.823 C407.256,456.67 406.952,456.594 406.6,456.594 M407.461,463.784 C407.25,463.233 406.788,462.957 406.073,462.957 C405.358,462.957 404.915,463.233 404.746,463.784 C404.576,464.334 404.491,465.172 404.491,466.297 C404.491,467.621 404.576,468.512 404.746,468.969 C404.915,469.426 405.358,469.655 406.073,469.655 C406.788,469.655 407.25,469.379 407.461,468.828 C407.672,468.278 407.778,467.437 407.778,466.306 C407.778,465.175 407.672,464.334 407.461,463.784"/>
<path class="FiguredBass" d="M402.311,475.957 C402.311,475.957 402.592,475.998 403.155,476.08 C403.401,476.116 403.676,476.151 403.981,476.186 C404.79,476.28 405.569,476.327 406.319,476.327 C407.069,476.327 407.86,476.28 408.692,476.186 C409.02,476.151 409.307,476.116 409.553,476.08 L410.415,475.957 C410.59,475.957 410.722,476.016 410.81,476.133 C410.898,476.25 410.889,476.344 410.784,476.414 C408.991,478.207 406.465,479.104 403.207,479.104 C403.079,479.104 402.964,479.151 402.865,479.244 C402.765,479.338 402.715,479.455 402.715,479.596 L402.715,482.356 C403.547,481.535 404.555,481.125 405.739,481.125 C407.45,481.125 408.771,481.509 409.703,482.277 C410.634,483.044 411.1,484.207 411.1,485.766 C411.1,487.09 410.573,488.189 409.518,489.062 C408.463,489.935 407.204,490.371 405.739,490.371 C404.473,490.371 403.374,490.084 402.443,489.51 C401.511,488.936 401.045,488.139 401.045,487.119 C401.045,486.604 401.233,486.156 401.608,485.775 C401.983,485.394 402.431,485.203 402.953,485.203 C403.474,485.203 403.916,485.391 404.28,485.766 C404.643,486.141 404.825,486.592 404.825,487.119 C404.825,487.354 404.631,487.609 404.245,487.884 C403.858,488.16 403.665,488.414 403.665,488.649 C403.665,489.352 404.356,489.703 405.739,489.703 C407.086,489.703 407.76,488.391 407.76,485.766 C407.76,483.235 407.086,481.963 405.739,481.952 C404.532,481.952 403.688,482.198 403.207,482.69 C402.727,483.182 402.428,483.428 402.311,483.428 C402.018,483.428 401.877,483.282 401.889,482.989 L401.889,476.414 C401.889,476.285 401.93,476.177 402.012,476.089 C402.094,476.001 402.194,475.957 402.311,475.957"/>
<path class="FiguredBass" d="M498.007,468.512 L498.007,472.186 C498.007,472.549 497.822,472.731 497.453,472.731 C497.084,472.731 496.899,472.549 496.899,472.186 L496.899,468.987 L496.337,469.215 C496.278,469.239 496.202,469.25 496.108,469.25 C495.956,469.25 495.821,469.192 495.704,469.075 C495.587,468.957 495.528,468.823 495.528,468.67 L495.528,466.877 C495.528,466.619 495.651,466.438 495.897,466.332 L496.899,465.91 L496.899,462.219 L496.337,462.448 C496.302,462.459 496.255,462.465 496.196,462.465 C496.173,462.465 496.143,462.465 496.108,462.465 C495.932,462.442 495.792,462.377 495.686,462.272 C495.581,462.166 495.528,462.043 495.528,461.903 L495.528,460.11 C495.528,459.864 495.651,459.688 495.897,459.582 L496.899,459.16 L496.899,455.416 C496.899,455.053 497.084,454.871 497.453,454.871 C497.822,454.871 498.007,455.053 498.007,455.416 L498.007,458.703 L500.274,457.754 L500.274,454.08 C500.274,453.717 500.456,453.535 500.819,453.535 C501.182,453.535 501.364,453.717 501.364,454.08 L501.364,457.315 L501.979,457.051 C502.038,457.028 502.102,457.016 502.173,457.016 C502.325,457.016 502.463,457.075 502.586,457.192 C502.709,457.309 502.77,457.444 502.77,457.596 L502.77,459.389 C502.77,459.647 502.641,459.828 502.384,459.934 L501.364,460.356 L501.364,464.065 L501.979,463.819 C502.014,463.807 502.055,463.801 502.102,463.801 C502.126,463.801 502.149,463.801 502.173,463.801 C502.372,463.836 502.521,463.901 502.621,463.994 C502.72,464.088 502.77,464.211 502.77,464.364 L502.77,466.157 C502.77,466.403 502.641,466.578 502.384,466.684 L501.364,467.106 L501.364,470.85 C501.364,471.213 501.182,471.395 500.819,471.395 C500.456,471.395 500.274,471.213 500.274,470.85 L500.274,467.563 L498.007,468.512 M498.007,465.453 L500.274,464.522 L500.274,460.813 L498.007,461.762 L498.007,465.453 "/>
<path class="FiguredBass" d="M592.753,456.594 C591.886,456.594 591.309,456.943 591.022,457.64 C590.734,458.337 590.591,459.325 590.591,460.602 L590.591,462.676 C591.2,462.43 591.728,462.301 592.173,462.289 C593.696,462.289 594.895,462.626 595.768,463.3 C596.641,463.974 597.077,464.976 597.077,466.306 C597.077,467.636 596.635,468.641 595.75,469.321 C594.865,470 593.673,470.34 592.173,470.34 C590.638,470.34 589.437,469.628 588.569,468.204 C587.702,466.781 587.269,465.09 587.269,463.133 C587.269,461.188 587.773,459.5 588.78,458.071 C589.788,456.641 591.112,455.926 592.753,455.926 C593.831,455.926 594.763,456.199 595.548,456.744 C596.333,457.288 596.726,458.006 596.726,458.897 C596.726,459.412 596.538,459.858 596.163,460.233 C595.788,460.608 595.34,460.795 594.818,460.795 C594.297,460.795 593.849,460.608 593.474,460.233 C593.099,459.858 592.911,459.412 592.911,458.897 C592.911,458.393 593.099,457.948 593.474,457.561 C593.603,457.409 593.784,457.28 594.019,457.174 C593.96,457.022 593.843,456.905 593.667,456.823 C593.409,456.67 593.105,456.594 592.753,456.594 M593.614,463.784 C593.403,463.233 592.941,462.957 592.226,462.957 C591.511,462.957 591.068,463.233 590.899,463.784 C590.729,464.334 590.644,465.172 590.644,466.297 C590.644,467.621 590.729,468.512 590.899,468.969 C591.068,469.426 591.511,469.655 592.226,469.655 C592.941,469.655 593.403,469.379 593.614,468.828 C593.825,468.278 593.931,467.437 593.931,466.306 C593.931,465.175 593.825,464.334 593.614,463.784"/>
<path class="FiguredBass" d="M688.245,456.594 C687.377,456.594 686.8,456.943 686.513,457.64 C686.226,458.337 686.083,459.325 686.083,460.602 L686.083,462.676 C686.692,462.43 687.219,462.301 687.665,462.289 C689.188,462.289 690.386,462.626 691.259,463.3 C692.132,463.974 692.569,464.976 692.569,466.306 C692.569,467.636 692.126,468.641 691.242,469.321 C690.357,470 689.165,470.34 687.665,470.34 C686.129,470.34 684.928,469.628 684.061,468.204 C683.194,466.781 682.76,465.09 682.76,463.133 C682.76,461.188 683.264,459.5 684.272,458.071 C685.28,456.641 686.604,455.926 688.245,455.926 C689.323,455.926 690.254,456.199 691.04,456.744 C691.825,457.288 692.217,458.006 692.217,458.897 C692.217,459.412 692.03,459.858 691.655,460.233 C691.28,460.608 690.832,460.795 690.31,460.795 C689.789,460.795 689.34,460.608 688.965,460.233 C688.59,459.858 688.403,459.412 688.403,458.897 C688.403,458.393 688.59,457.948 688.965,457.561 C689.094,457.409 689.276,457.28 689.51,457.174 C689.452,457.022 689.334,456.905 689.159,456.823 C688.901,456.67 688.596,456.594 688.245,456.594 M689.106,463.784 C688.895,463.233 688.432,462.957 687.717,462.957 C687.002,462.957 686.56,463.233 686.39,463.784 C686.22,464.334 686.135,465.172 686.135,466.297 C686.135,467.621 686.22,468.512 686.39,468.969 C686.56,469.426 687.002,469.655 687.717,469.655 C688.432,469.655 688.895,469.379 689.106,468.828 C689.317,468.278 689.422,467.437 689.422,466.306 C689.422,465.175 689.317,464.334 689.106,463.784"/>
<path class="FiguredBass" d="M683.956,475.957 L684.799,476.08 C685.022,476.116 685.297,476.151 685.625,476.186 C686.434,476.28 687.213,476.327 687.963,476.327 C688.713,476.327 689.504,476.28 690.336,476.186 C690.665,476.151 690.952,476.116 691.198,476.08 L692.059,475.957 C692.235,475.957 692.37,476.016 692.463,476.133 C692.534,476.227 692.522,476.321 692.428,476.414 C690.6,478.207 688.075,479.104 684.852,479.104 C684.723,479.104 684.609,479.151 684.509,479.244 C684.41,479.338 684.36,479.455 684.36,479.596 L684.36,481.828 C685.192,481.008 686.2,480.598 687.383,480.598 C689.036,480.598 690.325,480.985 691.25,481.758 C692.258,480.996 692.786,480.024 692.833,478.84 C692.844,478.465 692.967,478.16 693.202,477.926 C693.459,477.692 693.77,477.575 694.133,477.575 C694.497,477.575 694.804,477.698 695.056,477.944 C695.308,478.19 695.434,478.489 695.434,478.84 C695.434,480.657 694.362,482.034 692.217,482.971 C692.569,483.662 692.745,484.506 692.745,485.502 C692.745,486.827 692.217,487.969 691.163,488.93 C690.108,489.891 688.848,490.371 687.383,490.371 C686.118,490.371 685.019,490.084 684.087,489.51 C683.156,488.936 682.69,488.139 682.69,487.119 C682.69,486.604 682.877,486.156 683.252,485.775 C683.627,485.394 684.076,485.203 684.597,485.203 C685.119,485.203 685.561,485.391 685.924,485.766 C686.288,486.141 686.469,486.592 686.469,487.119 C686.469,487.354 686.276,487.609 685.889,487.884 C685.502,488.16 685.309,488.414 685.309,488.649 C685.309,489.352 686,489.703 687.383,489.703 C688.731,489.703 689.405,488.303 689.405,485.502 C689.405,484.881 689.37,484.336 689.299,483.868 C687.881,484.16 686.106,484.389 683.973,484.553 C683.68,484.577 683.534,484.43 683.534,484.114 C683.534,483.856 683.68,483.715 683.973,483.692 C686.129,483.516 687.829,483.235 689.071,482.848 C688.743,481.91 688.18,481.436 687.383,481.424 C686.176,481.424 685.333,481.67 684.852,482.162 C684.372,482.655 684.073,482.901 683.956,482.901 C683.674,482.901 683.534,482.754 683.534,482.461 L683.534,476.414 C683.534,476.297 683.575,476.192 683.657,476.098 C683.75,476.004 683.85,475.957 683.956,475.957"/>
<path class="Bracket" transform="matrix(1.64409,0,0,1.64409,14.5089,430.866)" d="M0.92002,-50 C2.69004,-51.88 6.2,-55.8 6.2,-63 C6.2,-72.1 2.25996,-81.32 2.25996,-86.97 C2.25996,-93.06 5.84004,-98.84 5.95,-99 C6.05996,-99.16 6.05,-99.39 5.94004,-99.46 C5.82998,-99.53 5.62002,-99.47 5.49004,-99.32 C5.35996,-99.17 0,-93.75 0,-85.6 C0,-76.75 3.5,-70.58 3.5,-59.07 C3.5,-56.89 2.55996,-53.36 0.1,-50.33 C-0.0799805,-50.17 -0.1,-49.89 0.0599609,-49.7 L0.0700195,-49.69 L0.1,-49.66 C2.55996,-46.63 3.5,-43.1 3.5,-40.92 C3.5,-29.4 0,-23.24 0,-14.39 C0,-6.25 5.35996,-0.8 5.49004,-0.659961 C5.62002,-0.52002 5.8,-0.42998 5.94004,-0.52002 C6.07998,-0.609961 6.07998,-0.77998 5.95,-0.97998 C5.82002,-1.17998 2.25996,-6.92002 2.25996,-13.01 C2.25996,-18.66 6.2,-27.9 6.2,-37 C6.2,-44.3 2.69004,-48.12 0.92002,-50"/>
</svg>
