<?xml version="1.0" encoding="UTF-8" standalone="no"?>
<svg width="850.394px" height="566.929px" viewBox="0 0 850.394 566.929"
 xmlns="http://www.w3.org/2000/svg" xmlns:xlink="http://www.w3.org/1999/xlink" version="1.2" baseProfile="tiny">
<title>La Mineur (9)</title>
<desc>Generated by MuseScore 3.6.2</desc>
<polyline class="StaffLines" fill="none" stroke="#000000" stroke-width="1.25" stroke-linejoin="bevel" points="29.3071,107.717 836.22,107.717"/>
<polyline class="StaffLines" fill="none" stroke="#000000" stroke-width="1.25" stroke-linejoin="bevel" points="29.3071,124.724 836.22,124.724"/>
<polyline class="StaffLines" fill="none" stroke="#000000" stroke-width="1.25" stroke-linejoin="bevel" points="29.3071,141.732 836.22,141.732"/>
<polyline class="StaffLines" fill="none" stroke="#000000" stroke-width="1.25" stroke-linejoin="bevel" points="29.3071,158.74 836.22,158.74"/>
<polyline class="StaffLines" fill="none" stroke="#000000" stroke-width="1.25" stroke-linejoin="bevel" points="29.3071,175.748 836.22,175.748"/>
<polyline class="StaffLines" fill="none" stroke="#000000" stroke-width="1.25" stroke-linejoin="bevel" points="29.3071,192.756 836.22,192.756"/>
<polyline class="StaffLines" fill="none" stroke="#000000" stroke-width="1.25" stroke-linejoin="bevel" points="29.3071,266.457 836.22,266.457"/>
<polyline class="StaffLines" fill="none" stroke="#000000" stroke-width="1.25" stroke-linejoin="bevel" points="29.3071,277.795 836.22,277.795"/>
<polyline class="StaffLines" fill="none" stroke="#000000" stroke-width="1.25" stroke-linejoin="bevel" points="29.3071,289.134 836.22,289.134"/>
<polyline class="StaffLines" fill="none" stroke="#000000" stroke-width="1.25" stroke-linejoin="bevel" points="29.3071,300.472 836.22,300.472"/>
<polyline class="StaffLines" fill="none" stroke="#000000" stroke-width="1.25" stroke-linejoin="bevel" points="29.3071,311.811 836.22,311.811"/>
<polyline class="StaffLines" fill="none" stroke="#000000" stroke-width="1.25" stroke-linejoin="bevel" points="29.3071,385.512 836.22,385.512"/>
<polyline class="StaffLines" fill="none" stroke="#000000" stroke-width="1.25" stroke-linejoin="bevel" points="29.3071,396.85 836.22,396.85"/>
<polyline class="StaffLines" fill="none" stroke="#000000" stroke-width="1.25" stroke-linejoin="bevel" points="29.3071,408.189 836.22,408.189"/>
<polyline class="StaffLines" fill="none" stroke="#000000" stroke-width="1.25" stroke-linejoin="bevel" points="29.3071,419.528 836.22,419.528"/>
<polyline class="StaffLines" fill="none" stroke="#000000" stroke-width="1.25" stroke-linejoin="bevel" points="29.3071,430.866 836.22,430.866"/>
<polyline class="BarLine" fill="none" stroke="#000000" stroke-width="2.04" stroke-linejoin="bevel" points="30.3276,384.888 30.3276,431.49"/>
<polyline class="BarLine" fill="none" stroke="#000000" stroke-width="2.04" stroke-linejoin="bevel" points="184.479,384.888 184.479,431.49"/>
<polyline class="BarLine" fill="none" stroke="#000000" stroke-width="2.04" stroke-linejoin="bevel" points="289.097,384.888 289.097,431.49"/>
<polyline class="BarLine" fill="none" stroke="#000000" stroke-width="2.04" stroke-linejoin="bevel" points="393.715,384.888 393.715,431.49"/>
<polyline class="BarLine" fill="none" stroke="#000000" stroke-width="2.04" stroke-linejoin="bevel" points="498.333,384.888 498.333,431.49"/>
<polyline class="BarLine" fill="none" stroke="#000000" stroke-width="2.04" stroke-linejoin="bevel" points="605.762,384.888 605.762,431.49"/>
<polyline class="BarLine" fill="none" stroke="#000000" stroke-width="2.04" stroke-linejoin="bevel" points="611.998,384.888 611.998,431.49"/>
<polyline class="BarLine" fill="none" stroke="#000000" stroke-width="2.04" stroke-linejoin="bevel" points="716.616,384.888 716.616,431.49"/>
<polyline class="BarLine" fill="none" stroke="#000000" stroke-width="2.04" stroke-linejoin="bevel" points="825.165,384.888 825.165,431.49"/>
<polyline class="BarLine" fill="none" stroke="#000000" stroke-width="6.24" stroke-linejoin="bevel" points="833.102,384.888 833.102,431.49"/>
<polyline class="BarLine" fill="none" stroke="#000000" stroke-width="2.04" stroke-linejoin="bevel" points="30.3276,265.833 30.3276,385.512"/>
<polyline class="BarLine" fill="none" stroke="#000000" stroke-width="2.04" stroke-linejoin="bevel" points="184.479,265.833 184.479,312.435"/>
<polyline class="BarLine" fill="none" stroke="#000000" stroke-width="2.04" stroke-linejoin="bevel" points="289.097,265.833 289.097,312.435"/>
<polyline class="BarLine" fill="none" stroke="#000000" stroke-width="2.04" stroke-linejoin="bevel" points="393.715,265.833 393.715,312.435"/>
<polyline class="BarLine" fill="none" stroke="#000000" stroke-width="2.04" stroke-linejoin="bevel" points="498.333,265.833 498.333,312.435"/>
<polyline class="BarLine" fill="none" stroke="#000000" stroke-width="2.04" stroke-linejoin="bevel" points="605.762,265.833 605.762,312.435"/>
<polyline class="BarLine" fill="none" stroke="#000000" stroke-width="2.04" stroke-linejoin="bevel" points="611.998,265.833 611.998,312.435"/>
<polyline class="BarLine" fill="none" stroke="#000000" stroke-width="2.04" stroke-linejoin="bevel" points="716.616,265.833 716.616,312.435"/>
<polyline class="BarLine" fill="none" stroke="#000000" stroke-width="2.04" stroke-linejoin="bevel" points="825.165,265.833 825.165,312.435"/>
<polyline class="BarLine" fill="none" stroke="#000000" stroke-width="6.24" stroke-linejoin="bevel" points="833.102,265.833 833.102,312.435"/>
<polyline class="BarLine" fill="none" stroke="#000000" stroke-width="2.04" stroke-linejoin="bevel" points="30.3276,107.093 30.3276,266.457"/>
<polyline class="BarLine" fill="none" stroke="#000000" stroke-width="2.04" stroke-linejoin="bevel" points="184.479,107.093 184.479,193.38"/>
<polyline class="BarLine" fill="none" stroke="#000000" stroke-width="2.04" stroke-linejoin="bevel" points="289.097,107.093 289.097,193.38"/>
<polyline class="BarLine" fill="none" stroke="#000000" stroke-width="2.04" stroke-linejoin="bevel" points="393.715,107.093 393.715,193.38"/>
<polyline class="BarLine" fill="none" stroke="#000000" stroke-width="2.04" stroke-linejoin="bevel" points="498.333,107.093 498.333,193.38"/>
<polyline class="BarLine" fill="none" stroke="#000000" stroke-width="2.04" stroke-linejoin="bevel" points="605.762,107.093 605.762,193.38"/>
<polyline class="BarLine" fill="none" stroke="#000000" stroke-width="2.04" stroke-linejoin="bevel" points="611.998,107.093 611.998,193.38"/>
<polyline class="BarLine" fill="none" stroke="#000000" stroke-width="2.04" stroke-linejoin="bevel" points="716.616,107.093 716.616,193.38"/>
<polyline class="BarLine" fill="none" stroke="#000000" stroke-width="2.04" stroke-linejoin="bevel" points="825.165,107.093 825.165,193.38"/>
<polyline class="BarLine" fill="none" stroke="#000000" stroke-width="6.24" stroke-linejoin="bevel" points="833.102,107.093 833.102,193.38"/>
<path class="Accidental" transform="matrix(0.453543,0,0,0.453543,508.129,300.472)" d="M23.3,-10.6 C23.9,-10.7 24.4,-11.4 24.4,-12 L24.4,-17.9 C24.4,-18.7 23.8,-19.3 23,-19.3 L22.8,-19.3 L19.5,-18.6 L19.5,-33.5 L16.7,-33.5 L16.7,-18 L7.8,-16.2 L7.8,-30.3 L5,-30.3 L5,-15.6 L1.1,-14.8 C0.5,-14.7 0,-14 0,-13.4 L0,-13.2 L0,-7.4 L0,-7.6 C0,-6.8 0.6,-6.2 1.4,-6.2 L1.7,-6.2 L5,-6.9 L5,9.6 L1.1,10.4 C0.5,10.5 0,11.2 0,11.8 L0,17.6 C0,18.4 0.6,19 1.4,19 L1.7,19 L5,18.3 L5,33.2 L7.8,33.2 L7.8,17.7 L16.7,15.9 L16.7,30 L19.5,30 L19.5,15.3 L23.3,14.6 C23.9,14.5 24.4,13.8 24.4,13.2 L24.4,7.3 C24.4,6.5 23.8,5.9 23,5.9 L22.8,5.9 L19.5,6.6 L19.5,-9.9 L23.3,-10.6 M7.8,9.1 L7.8,-7.5 L16.7,-9.3 L16.7,7.2 L7.8,9.1 "/>
<path class="Accidental" transform="matrix(0.453543,0,0,0.453543,728.591,300.472)" d="M23.3,-10.6 C23.9,-10.7 24.4,-11.4 24.4,-12 L24.4,-17.9 C24.4,-18.7 23.8,-19.3 23,-19.3 L22.8,-19.3 L19.5,-18.6 L19.5,-33.5 L16.7,-33.5 L16.7,-18 L7.8,-16.2 L7.8,-30.3 L5,-30.3 L5,-15.6 L1.1,-14.8 C0.5,-14.7 0,-14 0,-13.4 L0,-13.2 L0,-7.4 L0,-7.6 C0,-6.8 0.6,-6.2 1.4,-6.2 L1.7,-6.2 L5,-6.9 L5,9.6 L1.1,10.4 C0.5,10.5 0,11.2 0,11.8 L0,17.6 C0,18.4 0.6,19 1.4,19 L1.7,19 L5,18.3 L5,33.2 L7.8,33.2 L7.8,17.7 L16.7,15.9 L16.7,30 L19.5,30 L19.5,15.3 L23.3,14.6 C23.9,14.5 24.4,13.8 24.4,13.2 L24.4,7.3 C24.4,6.5 23.8,5.9 23,5.9 L22.8,5.9 L19.5,6.6 L19.5,-9.9 L23.3,-10.6 M7.8,9.1 L7.8,-7.5 L16.7,-9.3 L16.7,7.2 L7.8,9.1 "/>
<path class="Note" transform="matrix(0.453543,0,0,0.453543,99.3902,396.85)" d="M18.7,-13.6 C4.9,-13.6 0,-6.6 0,-0.1 C0,6.4 4.9,13.4 18.7,13.4 C32.5,13.4 37.3,6.4 37.3,-0.1 C37.3,-6.6 32.5,-13.6 18.7,-13.6 M10.4,-4.5 C10.3,-4.9 10.3,-5.3 10.3,-5.7 C10.3,-6.5 10.5,-7.3 10.9,-8 C11.6,-9 12.8,-9.7 14.3,-10 C15.6,-10.3 16.3,-10.5 18.9,-10.5 L19,-10.5 C23,-10.5 24.3,-6.8 25.4,-3 L25.7,-2 C26.5,0.6 26.9,2.8 26.9,4.5 C26.9,5.7 26.7,6.8 26.3,7.6 C25.7,8.7 24.7,9.4 23,9.8 C22.1,10 20.6,10.1 20.6,10.1 C20.1,10.1 19.7,10.2 19.3,10.2 C16.1,10.2 14.1,9 12.7,4.7 C11.5,1 11.3,-0.1 10.4,-4.5"/>
<path class="Note" transform="matrix(0.453543,0,0,0.453543,201.329,396.85)" d="M18.7,-13.6 C4.9,-13.6 0,-6.6 0,-0.1 C0,6.4 4.9,13.4 18.7,13.4 C32.5,13.4 37.3,6.4 37.3,-0.1 C37.3,-6.6 32.5,-13.6 18.7,-13.6 M10.4,-4.5 C10.3,-4.9 10.3,-5.3 10.3,-5.7 C10.3,-6.5 10.5,-7.3 10.9,-8 C11.6,-9 12.8,-9.7 14.3,-10 C15.6,-10.3 16.3,-10.5 18.9,-10.5 L19,-10.5 C23,-10.5 24.3,-6.8 25.4,-3 L25.7,-2 C26.5,0.6 26.9,2.8 26.9,4.5 C26.9,5.7 26.7,6.8 26.3,7.6 C25.7,8.7 24.7,9.4 23,9.8 C22.1,10 20.6,10.1 20.6,10.1 C20.1,10.1 19.7,10.2 19.3,10.2 C16.1,10.2 14.1,9 12.7,4.7 C11.5,1 11.3,-0.1 10.4,-4.5"/>
<path class="Note" transform="matrix(0.453543,0,0,0.453543,305.948,396.85)" d="M18.7,-13.6 C4.9,-13.6 0,-6.6 0,-0.1 C0,6.4 4.9,13.4 18.7,13.4 C32.5,13.4 37.3,6.4 37.3,-0.1 C37.3,-6.6 32.5,-13.6 18.7,-13.6 M10.4,-4.5 C10.3,-4.9 10.3,-5.3 10.3,-5.7 C10.3,-6.5 10.5,-7.3 10.9,-8 C11.6,-9 12.8,-9.7 14.3,-10 C15.6,-10.3 16.3,-10.5 18.9,-10.5 L19,-10.5 C23,-10.5 24.3,-6.8 25.4,-3 L25.7,-2 C26.5,0.6 26.9,2.8 26.9,4.5 C26.9,5.7 26.7,6.8 26.3,7.6 C25.7,8.7 24.7,9.4 23,9.8 C22.1,10 20.6,10.1 20.6,10.1 C20.1,10.1 19.7,10.2 19.3,10.2 C16.1,10.2 14.1,9 12.7,4.7 C11.5,1 11.3,-0.1 10.4,-4.5"/>
<path class="Note" transform="matrix(0.453543,0,0,0.453543,410.566,396.85)" d="M18.7,-13.6 C4.9,-13.6 0,-6.6 0,-0.1 C0,6.4 4.9,13.4 18.7,13.4 C32.5,13.4 37.3,6.4 37.3,-0.1 C37.3,-6.6 32.5,-13.6 18.7,-13.6 M10.4,-4.5 C10.3,-4.9 10.3,-5.3 10.3,-5.7 C10.3,-6.5 10.5,-7.3 10.9,-8 C11.6,-9 12.8,-9.7 14.3,-10 C15.6,-10.3 16.3,-10.5 18.9,-10.5 L19,-10.5 C23,-10.5 24.3,-6.8 25.4,-3 L25.7,-2 C26.5,0.6 26.9,2.8 26.9,4.5 C26.9,5.7 26.7,6.8 26.3,7.6 C25.7,8.7 24.7,9.4 23,9.8 C22.1,10 20.6,10.1 20.6,10.1 C20.1,10.1 19.7,10.2 19.3,10.2 C16.1,10.2 14.1,9 12.7,4.7 C11.5,1 11.3,-0.1 10.4,-4.5"/>
<path class="Note" transform="matrix(0.453543,0,0,0.453543,522.029,402.52)" d="M18.7,-13.6 C4.9,-13.6 0,-6.6 0,-0.1 C0,6.4 4.9,13.4 18.7,13.4 C32.5,13.4 37.3,6.4 37.3,-0.1 C37.3,-6.6 32.5,-13.6 18.7,-13.6 M10.4,-4.5 C10.3,-4.9 10.3,-5.3 10.3,-5.7 C10.3,-6.5 10.5,-7.3 10.9,-8 C11.6,-9 12.8,-9.7 14.3,-10 C15.6,-10.3 16.3,-10.5 18.9,-10.5 L19,-10.5 C23,-10.5 24.3,-6.8 25.4,-3 L25.7,-2 C26.5,0.6 26.9,2.8 26.9,4.5 C26.9,5.7 26.7,6.8 26.3,7.6 C25.7,8.7 24.7,9.4 23,9.8 C22.1,10 20.6,10.1 20.6,10.1 C20.1,10.1 19.7,10.2 19.3,10.2 C16.1,10.2 14.1,9 12.7,4.7 C11.5,1 11.3,-0.1 10.4,-4.5"/>
<path class="Note" transform="matrix(0.453543,0,0,0.453543,628.848,396.85)" d="M18.7,-13.6 C4.9,-13.6 0,-6.6 0,-0.1 C0,6.4 4.9,13.4 18.7,13.4 C32.5,13.4 37.3,6.4 37.3,-0.1 C37.3,-6.6 32.5,-13.6 18.7,-13.6 M10.4,-4.5 C10.3,-4.9 10.3,-5.3 10.3,-5.7 C10.3,-6.5 10.5,-7.3 10.9,-8 C11.6,-9 12.8,-9.7 14.3,-10 C15.6,-10.3 16.3,-10.5 18.9,-10.5 L19,-10.5 C23,-10.5 24.3,-6.8 25.4,-3 L25.7,-2 C26.5,0.6 26.9,2.8 26.9,4.5 C26.9,5.7 26.7,6.8 26.3,7.6 C25.7,8.7 24.7,9.4 23,9.8 C22.1,10 20.6,10.1 20.6,10.1 C20.1,10.1 19.7,10.2 19.3,10.2 C16.1,10.2 14.1,9 12.7,4.7 C11.5,1 11.3,-0.1 10.4,-4.5"/>
<path class="Note" transform="matrix(0.453543,0,0,0.453543,742.491,402.52)" d="M18.7,-13.6 C4.9,-13.6 0,-6.6 0,-0.1 C0,6.4 4.9,13.4 18.7,13.4 C32.5,13.4 37.3,6.4 37.3,-0.1 C37.3,-6.6 32.5,-13.6 18.7,-13.6 M10.4,-4.5 C10.3,-4.9 10.3,-5.3 10.3,-5.7 C10.3,-6.5 10.5,-7.3 10.9,-8 C11.6,-9 12.8,-9.7 14.3,-10 C15.6,-10.3 16.3,-10.5 18.9,-10.5 L19,-10.5 C23,-10.5 24.3,-6.8 25.4,-3 L25.7,-2 C26.5,0.6 26.9,2.8 26.9,4.5 C26.9,5.7 26.7,6.8 26.3,7.6 C25.7,8.7 24.7,9.4 23,9.8 C22.1,10 20.6,10.1 20.6,10.1 C20.1,10.1 19.7,10.2 19.3,10.2 C16.1,10.2 14.1,9 12.7,4.7 C11.5,1 11.3,-0.1 10.4,-4.5"/>
<path class="Note" transform="matrix(0.453543,0,0,0.453543,99.3902,294.803)" d="M18.7,-13.6 C4.9,-13.6 0,-6.6 0,-0.1 C0,6.4 4.9,13.4 18.7,13.4 C32.5,13.4 37.3,6.4 37.3,-0.1 C37.3,-6.6 32.5,-13.6 18.7,-13.6 M10.4,-4.5 C10.3,-4.9 10.3,-5.3 10.3,-5.7 C10.3,-6.5 10.5,-7.3 10.9,-8 C11.6,-9 12.8,-9.7 14.3,-10 C15.6,-10.3 16.3,-10.5 18.9,-10.5 L19,-10.5 C23,-10.5 24.3,-6.8 25.4,-3 L25.7,-2 C26.5,0.6 26.9,2.8 26.9,4.5 C26.9,5.7 26.7,6.8 26.3,7.6 C25.7,8.7 24.7,9.4 23,9.8 C22.1,10 20.6,10.1 20.6,10.1 C20.1,10.1 19.7,10.2 19.3,10.2 C16.1,10.2 14.1,9 12.7,4.7 C11.5,1 11.3,-0.1 10.4,-4.5"/>
<path class="Note" transform="matrix(0.453543,0,0,0.453543,99.3902,277.795)" d="M18.7,-13.6 C4.9,-13.6 0,-6.6 0,-0.1 C0,6.4 4.9,13.4 18.7,13.4 C32.5,13.4 37.3,6.4 37.3,-0.1 C37.3,-6.6 32.5,-13.6 18.7,-13.6 M10.4,-4.5 C10.3,-4.9 10.3,-5.3 10.3,-5.7 C10.3,-6.5 10.5,-7.3 10.9,-8 C11.6,-9 12.8,-9.7 14.3,-10 C15.6,-10.3 16.3,-10.5 18.9,-10.5 L19,-10.5 C23,-10.5 24.3,-6.8 25.4,-3 L25.7,-2 C26.5,0.6 26.9,2.8 26.9,4.5 C26.9,5.7 26.7,6.8 26.3,7.6 C25.7,8.7 24.7,9.4 23,9.8 C22.1,10 20.6,10.1 20.6,10.1 C20.1,10.1 19.7,10.2 19.3,10.2 C16.1,10.2 14.1,9 12.7,4.7 C11.5,1 11.3,-0.1 10.4,-4.5"/>
<path class="Note" transform="matrix(0.453543,0,0,0.453543,201.329,294.803)" d="M18.7,-13.6 C4.9,-13.6 0,-6.6 0,-0.1 C0,6.4 4.9,13.4 18.7,13.4 C32.5,13.4 37.3,6.4 37.3,-0.1 C37.3,-6.6 32.5,-13.6 18.7,-13.6 M10.4,-4.5 C10.3,-4.9 10.3,-5.3 10.3,-5.7 C10.3,-6.5 10.5,-7.3 10.9,-8 C11.6,-9 12.8,-9.7 14.3,-10 C15.6,-10.3 16.3,-10.5 18.9,-10.5 L19,-10.5 C23,-10.5 24.3,-6.8 25.4,-3 L25.7,-2 C26.5,0.6 26.9,2.8 26.9,4.5 C26.9,5.7 26.7,6.8 26.3,7.6 C25.7,8.7 24.7,9.4 23,9.8 C22.1,10 20.6,10.1 20.6,10.1 C20.1,10.1 19.7,10.2 19.3,10.2 C16.1,10.2 14.1,9 12.7,4.7 C11.5,1 11.3,-0.1 10.4,-4.5"/>
<path class="Note" transform="matrix(0.453543,0,0,0.453543,201.329,277.795)" d="M18.7,-13.6 C4.9,-13.6 0,-6.6 0,-0.1 C0,6.4 4.9,13.4 18.7,13.4 C32.5,13.4 37.3,6.4 37.3,-0.1 C37.3,-6.6 32.5,-13.6 18.7,-13.6 M10.4,-4.5 C10.3,-4.9 10.3,-5.3 10.3,-5.7 C10.3,-6.5 10.5,-7.3 10.9,-8 C11.6,-9 12.8,-9.7 14.3,-10 C15.6,-10.3 16.3,-10.5 18.9,-10.5 L19,-10.5 C23,-10.5 24.3,-6.8 25.4,-3 L25.7,-2 C26.5,0.6 26.9,2.8 26.9,4.5 C26.9,5.7 26.7,6.8 26.3,7.6 C25.7,8.7 24.7,9.4 23,9.8 C22.1,10 20.6,10.1 20.6,10.1 C20.1,10.1 19.7,10.2 19.3,10.2 C16.1,10.2 14.1,9 12.7,4.7 C11.5,1 11.3,-0.1 10.4,-4.5"/>
<path class="Note" transform="matrix(0.453543,0,0,0.453543,305.948,294.803)" d="M18.7,-13.6 C4.9,-13.6 0,-6.6 0,-0.1 C0,6.4 4.9,13.4 18.7,13.4 C32.5,13.4 37.3,6.4 37.3,-0.1 C37.3,-6.6 32.5,-13.6 18.7,-13.6 M10.4,-4.5 C10.3,-4.9 10.3,-5.3 10.3,-5.7 C10.3,-6.5 10.5,-7.3 10.9,-8 C11.6,-9 12.8,-9.7 14.3,-10 C15.6,-10.3 16.3,-10.5 18.9,-10.5 L19,-10.5 C23,-10.5 24.3,-6.8 25.4,-3 L25.7,-2 C26.5,0.6 26.9,2.8 26.9,4.5 C26.9,5.7 26.7,6.8 26.3,7.6 C25.7,8.7 24.7,9.4 23,9.8 C22.1,10 20.6,10.1 20.6,10.1 C20.1,10.1 19.7,10.2 19.3,10.2 C16.1,10.2 14.1,9 12.7,4.7 C11.5,1 11.3,-0.1 10.4,-4.5"/>
<path class="Note" transform="matrix(0.453543,0,0,0.453543,305.948,277.795)" d="M18.7,-13.6 C4.9,-13.6 0,-6.6 0,-0.1 C0,6.4 4.9,13.4 18.7,13.4 C32.5,13.4 37.3,6.4 37.3,-0.1 C37.3,-6.6 32.5,-13.6 18.7,-13.6 M10.4,-4.5 C10.3,-4.9 10.3,-5.3 10.3,-5.7 C10.3,-6.5 10.5,-7.3 10.9,-8 C11.6,-9 12.8,-9.7 14.3,-10 C15.6,-10.3 16.3,-10.5 18.9,-10.5 L19,-10.5 C23,-10.5 24.3,-6.8 25.4,-3 L25.7,-2 C26.5,0.6 26.9,2.8 26.9,4.5 C26.9,5.7 26.7,6.8 26.3,7.6 C25.7,8.7 24.7,9.4 23,9.8 C22.1,10 20.6,10.1 20.6,10.1 C20.1,10.1 19.7,10.2 19.3,10.2 C16.1,10.2 14.1,9 12.7,4.7 C11.5,1 11.3,-0.1 10.4,-4.5"/>
<path class="Note" transform="matrix(0.453543,0,0,0.453543,410.566,294.803)" d="M18.7,-13.6 C4.9,-13.6 0,-6.6 0,-0.1 C0,6.4 4.9,13.4 18.7,13.4 C32.5,13.4 37.3,6.4 37.3,-0.1 C37.3,-6.6 32.5,-13.6 18.7,-13.6 M10.4,-4.5 C10.3,-4.9 10.3,-5.3 10.3,-5.7 C10.3,-6.5 10.5,-7.3 10.9,-8 C11.6,-9 12.8,-9.7 14.3,-10 C15.6,-10.3 16.3,-10.5 18.9,-10.5 L19,-10.5 C23,-10.5 24.3,-6.8 25.4,-3 L25.7,-2 C26.5,0.6 26.9,2.8 26.9,4.5 C26.9,5.7 26.7,6.8 26.3,7.6 C25.7,8.7 24.7,9.4 23,9.8 C22.1,10 20.6,10.1 20.6,10.1 C20.1,10.1 19.7,10.2 19.3,10.2 C16.1,10.2 14.1,9 12.7,4.7 C11.5,1 11.3,-0.1 10.4,-4.5"/>
<path class="Note" transform="matrix(0.453543,0,0,0.453543,410.566,277.795)" d="M18.7,-13.6 C4.9,-13.6 0,-6.6 0,-0.1 C0,6.4 4.9,13.4 18.7,13.4 C32.5,13.4 37.3,6.4 37.3,-0.1 C37.3,-6.6 32.5,-13.6 18.7,-13.6 M10.4,-4.5 C10.3,-4.9 10.3,-5.3 10.3,-5.7 C10.3,-6.5 10.5,-7.3 10.9,-8 C11.6,-9 12.8,-9.7 14.3,-10 C15.6,-10.3 16.3,-10.5 18.9,-10.5 L19,-10.5 C23,-10.5 24.3,-6.8 25.4,-3 L25.7,-2 C26.5,0.6 26.9,2.8 26.9,4.5 C26.9,5.7 26.7,6.8 26.3,7.6 C25.7,8.7 24.7,9.4 23,9.8 C22.1,10 20.6,10.1 20.6,10.1 C20.1,10.1 19.7,10.2 19.3,10.2 C16.1,10.2 14.1,9 12.7,4.7 C11.5,1 11.3,-0.1 10.4,-4.5"/>
<path class="Note" transform="matrix(0.453543,0,0,0.453543,522.029,311.811)" d="M18.7,-13.6 C4.9,-13.6 0,-6.6 0,-0.1 C0,6.4 4.9,13.4 18.7,13.4 C32.5,13.4 37.3,6.4 37.3,-0.1 C37.3,-6.6 32.5,-13.6 18.7,-13.6 M10.4,-4.5 C10.3,-4.9 10.3,-5.3 10.3,-5.7 C10.3,-6.5 10.5,-7.3 10.9,-8 C11.6,-9 12.8,-9.7 14.3,-10 C15.6,-10.3 16.3,-10.5 18.9,-10.5 L19,-10.5 C23,-10.5 24.3,-6.8 25.4,-3 L25.7,-2 C26.5,0.6 26.9,2.8 26.9,4.5 C26.9,5.7 26.7,6.8 26.3,7.6 C25.7,8.7 24.7,9.4 23,9.8 C22.1,10 20.6,10.1 20.6,10.1 C20.1,10.1 19.7,10.2 19.3,10.2 C16.1,10.2 14.1,9 12.7,4.7 C11.5,1 11.3,-0.1 10.4,-4.5"/>
<path class="Note" transform="matrix(0.453543,0,0,0.453543,522.029,300.472)" d="M18.7,-13.6 C4.9,-13.6 0,-6.6 0,-0.1 C0,6.4 4.9,13.4 18.7,13.4 C32.5,13.4 37.3,6.4 37.3,-0.1 C37.3,-6.6 32.5,-13.6 18.7,-13.6 M10.4,-4.5 C10.3,-4.9 10.3,-5.3 10.3,-5.7 C10.3,-6.5 10.5,-7.3 10.9,-8 C11.6,-9 12.8,-9.7 14.3,-10 C15.6,-10.3 16.3,-10.5 18.9,-10.5 L19,-10.5 C23,-10.5 24.3,-6.8 25.4,-3 L25.7,-2 C26.5,0.6 26.9,2.8 26.9,4.5 C26.9,5.7 26.7,6.8 26.3,7.6 C25.7,8.7 24.7,9.4 23,9.8 C22.1,10 20.6,10.1 20.6,10.1 C20.1,10.1 19.7,10.2 19.3,10.2 C16.1,10.2 14.1,9 12.7,4.7 C11.5,1 11.3,-0.1 10.4,-4.5"/>
<path class="Note" transform="matrix(0.453543,0,0,0.453543,522.029,289.134)" d="M18.7,-13.6 C4.9,-13.6 0,-6.6 0,-0.1 C0,6.4 4.9,13.4 18.7,13.4 C32.5,13.4 37.3,6.4 37.3,-0.1 C37.3,-6.6 32.5,-13.6 18.7,-13.6 M10.4,-4.5 C10.3,-4.9 10.3,-5.3 10.3,-5.7 C10.3,-6.5 10.5,-7.3 10.9,-8 C11.6,-9 12.8,-9.7 14.3,-10 C15.6,-10.3 16.3,-10.5 18.9,-10.5 L19,-10.5 C23,-10.5 24.3,-6.8 25.4,-3 L25.7,-2 C26.5,0.6 26.9,2.8 26.9,4.5 C26.9,5.7 26.7,6.8 26.3,7.6 C25.7,8.7 24.7,9.4 23,9.8 C22.1,10 20.6,10.1 20.6,10.1 C20.1,10.1 19.7,10.2 19.3,10.2 C16.1,10.2 14.1,9 12.7,4.7 C11.5,1 11.3,-0.1 10.4,-4.5"/>
<path class="Note" transform="matrix(0.453543,0,0,0.453543,628.848,294.803)" d="M18.7,-13.6 C4.9,-13.6 0,-6.6 0,-0.1 C0,6.4 4.9,13.4 18.7,13.4 C32.5,13.4 37.3,6.4 37.3,-0.1 C37.3,-6.6 32.5,-13.6 18.7,-13.6 M10.4,-4.5 C10.3,-4.9 10.3,-5.3 10.3,-5.7 C10.3,-6.5 10.5,-7.3 10.9,-8 C11.6,-9 12.8,-9.7 14.3,-10 C15.6,-10.3 16.3,-10.5 18.9,-10.5 L19,-10.5 C23,-10.5 24.3,-6.8 25.4,-3 L25.7,-2 C26.5,0.6 26.9,2.8 26.9,4.5 C26.9,5.7 26.7,6.8 26.3,7.6 C25.7,8.7 24.7,9.4 23,9.8 C22.1,10 20.6,10.1 20.6,10.1 C20.1,10.1 19.7,10.2 19.3,10.2 C16.1,10.2 14.1,9 12.7,4.7 C11.5,1 11.3,-0.1 10.4,-4.5"/>
<path class="Note" transform="matrix(0.453543,0,0,0.453543,628.848,277.795)" d="M18.7,-13.6 C4.9,-13.6 0,-6.6 0,-0.1 C0,6.4 4.9,13.4 18.7,13.4 C32.5,13.4 37.3,6.4 37.3,-0.1 C37.3,-6.6 32.5,-13.6 18.7,-13.6 M10.4,-4.5 C10.3,-4.9 10.3,-5.3 10.3,-5.7 C10.3,-6.5 10.5,-7.3 10.9,-8 C11.6,-9 12.8,-9.7 14.3,-10 C15.6,-10.3 16.3,-10.5 18.9,-10.5 L19,-10.5 C23,-10.5 24.3,-6.8 25.4,-3 L25.7,-2 C26.5,0.6 26.9,2.8 26.9,4.5 C26.9,5.7 26.7,6.8 26.3,7.6 C25.7,8.7 24.7,9.4 23,9.8 C22.1,10 20.6,10.1 20.6,10.1 C20.1,10.1 19.7,10.2 19.3,10.2 C16.1,10.2 14.1,9 12.7,4.7 C11.5,1 11.3,-0.1 10.4,-4.5"/>
<path class="Note" transform="matrix(0.453543,0,0,0.453543,742.491,300.472)" d="M18.7,-13.6 C4.9,-13.6 0,-6.6 0,-0.1 C0,6.4 4.9,13.4 18.7,13.4 C32.5,13.4 37.3,6.4 37.3,-0.1 C37.3,-6.6 32.5,-13.6 18.7,-13.6 M10.4,-4.5 C10.3,-4.9 10.3,-5.3 10.3,-5.7 C10.3,-6.5 10.5,-7.3 10.9,-8 C11.6,-9 12.8,-9.7 14.3,-10 C15.6,-10.3 16.3,-10.5 18.9,-10.5 L19,-10.5 C23,-10.5 24.3,-6.8 25.4,-3 L25.7,-2 C26.5,0.6 26.9,2.8 26.9,4.5 C26.9,5.7 26.7,6.8 26.3,7.6 C25.7,8.7 24.7,9.4 23,9.8 C22.1,10 20.6,10.1 20.6,10.1 C20.1,10.1 19.7,10.2 19.3,10.2 C16.1,10.2 14.1,9 12.7,4.7 C11.5,1 11.3,-0.1 10.4,-4.5"/>
<path class="Note" transform="matrix(0.453543,0,0,0.453543,742.491,289.134)" d="M18.7,-13.6 C4.9,-13.6 0,-6.6 0,-0.1 C0,6.4 4.9,13.4 18.7,13.4 C32.5,13.4 37.3,6.4 37.3,-0.1 C37.3,-6.6 32.5,-13.6 18.7,-13.6 M10.4,-4.5 C10.3,-4.9 10.3,-5.3 10.3,-5.7 C10.3,-6.5 10.5,-7.3 10.9,-8 C11.6,-9 12.8,-9.7 14.3,-10 C15.6,-10.3 16.3,-10.5 18.9,-10.5 L19,-10.5 C23,-10.5 24.3,-6.8 25.4,-3 L25.7,-2 C26.5,0.6 26.9,2.8 26.9,4.5 C26.9,5.7 26.7,6.8 26.3,7.6 C25.7,8.7 24.7,9.4 23,9.8 C22.1,10 20.6,10.1 20.6,10.1 C20.1,10.1 19.7,10.2 19.3,10.2 C16.1,10.2 14.1,9 12.7,4.7 C11.5,1 11.3,-0.1 10.4,-4.5"/>
<path class="Note" transform="matrix(0.453543,0,0,0.453543,742.491,272.126)" d="M18.7,-13.6 C4.9,-13.6 0,-6.6 0,-0.1 C0,6.4 4.9,13.4 18.7,13.4 C32.5,13.4 37.3,6.4 37.3,-0.1 C37.3,-6.6 32.5,-13.6 18.7,-13.6 M10.4,-4.5 C10.3,-4.9 10.3,-5.3 10.3,-5.7 C10.3,-6.5 10.5,-7.3 10.9,-8 C11.6,-9 12.8,-9.7 14.3,-10 C15.6,-10.3 16.3,-10.5 18.9,-10.5 L19,-10.5 C23,-10.5 24.3,-6.8 25.4,-3 L25.7,-2 C26.5,0.6 26.9,2.8 26.9,4.5 C26.9,5.7 26.7,6.8 26.3,7.6 C25.7,8.7 24.7,9.4 23,9.8 C22.1,10 20.6,10.1 20.6,10.1 C20.1,10.1 19.7,10.2 19.3,10.2 C16.1,10.2 14.1,9 12.7,4.7 C11.5,1 11.3,-0.1 10.4,-4.5"/>
<path class="Note" d="M93.1525,159.072 C93.2124,156.811 94.4627,154.805 96.9034,153.053 C99.0747,151.495 101.448,150.717 104.024,150.717 C107.632,150.717 110.814,152.132 113.569,154.962 C115.321,156.774 116.197,159.02 116.197,161.7 C116.197,164.111 115.554,165.96 114.266,167.248 C112.693,168.835 111.031,169.629 109.279,169.629 C108.082,169.629 107.153,169.359 106.494,168.82 C105.416,167.937 104.877,166.754 104.877,165.271 C104.877,163.355 105.835,161.603 107.752,160.016 C109.324,158.713 110.904,157.859 112.491,157.455 C112.072,156.736 111.54,156.062 110.897,155.434 C108.89,153.472 106.614,152.491 104.068,152.491 C101.418,152.491 99.2244,153.068 97.4874,154.221 C95.6906,155.404 94.2456,157.021 93.1525,159.072 M113.053,158.645 C112.229,159.409 111.406,160.225 110.582,161.094 C108.965,162.801 108.156,164.418 108.156,165.945 C108.156,167.577 108.531,168.394 109.279,168.394 C109.953,168.394 110.897,167.473 112.11,165.631 C113.083,164.163 113.569,162.816 113.569,161.588 C113.569,160.54 113.397,159.559 113.053,158.645"/>
<path class="Note" d="M114.594,90.2771 C115.477,90.2771 115.919,90.8311 115.919,91.9392 C115.919,92.7178 115.432,93.8783 114.459,95.4206 C113.68,96.6635 113.291,97.8764 113.291,99.0593 C113.291,99.7331 114.272,100.07 116.233,100.07 C117.851,100.07 120.104,99.1941 122.994,97.4421 C120.089,100.242 117.566,101.642 115.425,101.642 C113.493,101.642 112.146,101.35 111.382,100.766 C111.187,100.617 111.022,100.437 110.888,100.227 C110.139,101.141 108.889,101.597 107.137,101.597 C105.46,101.597 104.172,101.253 103.273,100.564 C102.675,100.1 102.375,99.3588 102.375,98.3406 C102.375,96.7234 103.333,94.9564 105.25,93.0398 C107.301,90.9883 109.675,89.9626 112.37,89.9626 C113.044,89.9626 113.538,90.2097 113.853,90.7038 C114.107,90.4193 114.354,90.2771 114.594,90.2771 M110.573,99.2165 C110.558,99.0967 110.551,98.977 110.551,98.8572 C110.551,98.7973 111.314,96.7084 112.842,92.5906 C112.992,92.1863 113.141,91.8419 113.291,91.5574 C112.707,91.4376 112.131,91.3777 111.562,91.3777 C110.513,91.3777 109.121,92.2686 107.384,94.0505 C105.827,95.6378 105.048,97.0079 105.048,98.1609 C105.048,99.4337 105.654,100.07 106.867,100.07 C108.335,100.07 109.57,99.7855 110.573,99.2165"/>
<path class="Note" d="M93.1525,125.057 C93.2124,122.795 94.4627,120.789 96.9034,119.037 C99.0747,117.48 101.448,116.701 104.024,116.701 C107.632,116.701 110.814,118.116 113.569,120.946 C115.321,122.758 116.197,125.004 116.197,127.684 C116.197,130.095 115.554,131.945 114.266,133.232 C112.693,134.82 111.031,135.613 109.279,135.613 C108.082,135.613 107.153,135.344 106.494,134.805 C105.416,133.921 104.877,132.738 104.877,131.256 C104.877,129.339 105.835,127.587 107.752,126 C109.324,124.697 110.904,123.844 112.491,123.439 C112.072,122.721 111.54,122.047 110.897,121.418 C108.89,119.456 106.614,118.475 104.068,118.475 C101.418,118.475 99.2244,119.052 97.4874,120.205 C95.6906,121.388 94.2456,123.005 93.1525,125.057 M113.053,124.63 C112.229,125.393 111.406,126.209 110.582,127.078 C108.965,128.785 108.156,130.402 108.156,131.93 C108.156,133.562 108.531,134.378 109.279,134.378 C109.953,134.378 110.897,133.457 112.11,131.615 C113.083,130.148 113.569,128.8 113.569,127.572 C113.569,126.524 113.397,125.543 113.053,124.63"/>
<path class="Note" d="M195.092,159.072 C195.152,156.811 196.402,154.805 198.843,153.053 C201.014,151.495 203.387,150.717 205.963,150.717 C209.572,150.717 212.754,152.132 215.509,154.962 C217.261,156.774 218.137,159.02 218.137,161.7 C218.137,164.111 217.493,165.96 216.205,167.248 C214.633,168.835 212.971,169.629 211.219,169.629 C210.021,169.629 209.092,169.359 208.434,168.82 C207.355,167.937 206.816,166.754 206.816,165.271 C206.816,163.355 207.775,161.603 209.691,160.016 C211.264,158.713 212.843,157.859 214.431,157.455 C214.011,156.736 213.48,156.062 212.836,155.434 C210.829,153.472 208.553,152.491 206.008,152.491 C203.357,152.491 201.164,153.068 199.427,154.221 C197.63,155.404 196.185,157.021 195.092,159.072 M214.992,158.645 C214.169,159.409 213.345,160.225 212.521,161.094 C210.904,162.801 210.096,164.418 210.096,165.945 C210.096,167.577 210.47,168.394 211.219,168.394 C211.893,168.394 212.836,167.473 214.049,165.631 C215.022,164.163 215.509,162.816 215.509,161.588 C215.509,160.54 215.337,159.559 214.992,158.645"/>
<path class="Note" d="M219.408,102.883 C220.247,102.314 220.853,101.842 221.227,101.468 C221.916,100.734 222.261,100.06 222.261,99.4461 C222.261,98.7423 221.871,98.3904 221.093,98.3904 C219.58,98.3904 217.963,99.7231 216.241,102.388 C215.717,103.197 214.564,105.832 212.782,110.295 C214.205,111.762 214.916,112.593 214.916,112.788 C214.916,113.057 214.744,113.192 214.399,113.192 C214.13,113.192 213.389,112.735 212.176,111.822 C210.858,114.892 208.859,117.512 206.179,119.683 C203.438,121.9 200.167,123.008 196.363,123.008 C194.911,123.008 193.091,122.671 190.905,121.997 C189.153,121.458 188.277,120.597 188.277,119.414 C188.277,117.662 188.951,116.786 190.299,116.786 C191.107,116.786 191.512,117.16 191.512,117.909 C191.512,118.149 191.324,118.403 190.95,118.673 C190.755,118.807 190.658,119.069 190.658,119.459 C190.658,119.923 191.175,120.402 192.208,120.896 C193.331,121.435 194.978,121.705 197.149,121.705 C199.949,121.705 202.652,120.492 205.258,118.066 C207.624,115.865 209.323,113.304 210.356,110.385 C209.952,110.055 209.518,109.696 209.054,109.306 C207.616,108.453 206.897,107.577 206.897,106.679 C206.897,106.304 207.144,106.117 207.639,106.117 C208.297,106.117 209.188,106.679 210.311,107.802 C210.551,108.041 210.776,108.266 210.985,108.475 C211.509,107.038 212.348,105.211 213.501,102.995 C215.582,98.9819 218.113,96.9754 221.093,96.9754 C222.156,96.9754 222.994,97.1775 223.608,97.5818 C224.222,97.9861 224.529,98.5402 224.529,99.2439 C224.529,100.367 224.117,101.318 223.294,102.096 C222.44,102.905 221.549,103.309 220.621,103.309 C219.812,103.309 219.408,103.167 219.408,102.883"/>
<path class="Note" d="M219.408,85.8747 C220.247,85.3057 220.853,84.834 221.227,84.4597 C221.916,83.726 222.261,83.0521 222.261,82.4382 C222.261,81.7344 221.871,81.3826 221.093,81.3826 C219.58,81.3826 217.963,82.7152 216.241,85.3806 C215.717,86.1892 214.564,88.8246 212.782,93.2868 C214.205,94.7543 214.916,95.5854 214.916,95.78 C214.916,96.0495 214.744,96.1843 214.399,96.1843 C214.13,96.1843 213.389,95.7276 212.176,94.8142 C210.858,97.8839 208.859,100.504 206.179,102.676 C203.438,104.892 200.167,106 196.363,106 C194.911,106 193.091,105.663 190.905,104.989 C189.153,104.45 188.277,103.589 188.277,102.406 C188.277,100.654 188.951,99.7781 190.299,99.7781 C191.107,99.7781 191.512,100.152 191.512,100.901 C191.512,101.141 191.324,101.395 190.95,101.665 C190.755,101.8 190.658,102.062 190.658,102.451 C190.658,102.915 191.175,103.394 192.208,103.888 C193.331,104.427 194.978,104.697 197.149,104.697 C199.949,104.697 202.652,103.484 205.258,101.058 C207.624,98.8572 209.323,96.2966 210.356,93.3767 C209.952,93.0473 209.518,92.6879 209.054,92.2986 C207.616,91.4451 206.897,90.5691 206.897,89.6706 C206.897,89.2963 207.144,89.1091 207.639,89.1091 C208.297,89.1091 209.188,89.6706 210.311,90.7937 C210.551,91.0333 210.776,91.2579 210.985,91.4675 C211.509,90.03 212.348,88.2032 213.501,85.987 C215.582,81.974 218.113,79.9675 221.093,79.9675 C222.156,79.9675 222.994,80.1697 223.608,80.574 C224.222,80.9783 224.529,81.5323 224.529,82.2361 C224.529,83.3591 224.117,84.31 223.294,85.0886 C222.44,85.8972 221.549,86.3015 220.621,86.3015 C219.812,86.3015 219.408,86.1592 219.408,85.8747"/>
<path class="Note" d="M299.71,159.072 C299.77,156.811 301.02,154.805 303.461,153.053 C305.632,151.495 308.005,150.717 310.581,150.717 C314.19,150.717 317.372,152.132 320.127,154.962 C321.879,156.774 322.755,159.02 322.755,161.7 C322.755,164.111 322.111,165.96 320.823,167.248 C319.251,168.835 317.589,169.629 315.837,169.629 C314.639,169.629 313.711,169.359 313.052,168.82 C311.974,167.937 311.434,166.754 311.434,165.271 C311.434,163.355 312.393,161.603 314.309,160.016 C315.882,158.713 317.461,157.859 319.049,157.455 C318.629,156.736 318.098,156.062 317.454,155.434 C315.447,153.472 313.171,152.491 310.626,152.491 C307.975,152.491 305.782,153.068 304.045,154.221 C302.248,155.404 300.803,157.021 299.71,159.072 M319.61,158.645 C318.787,159.409 317.963,160.225 317.14,161.094 C315.522,162.801 314.714,164.418 314.714,165.945 C314.714,167.577 315.088,168.394 315.837,168.394 C316.511,168.394 317.454,167.473 318.667,165.631 C319.64,164.163 320.127,162.816 320.127,161.588 C320.127,160.54 319.955,159.559 319.61,158.645"/>
<path class="Note" d="M324.026,102.883 C324.865,102.314 325.471,101.842 325.845,101.468 C326.534,100.734 326.879,100.06 326.879,99.4461 C326.879,98.7423 326.489,98.3904 325.711,98.3904 C324.198,98.3904 322.581,99.7231 320.859,102.388 C320.335,103.197 319.182,105.832 317.4,110.295 C318.823,111.762 319.534,112.593 319.534,112.788 C319.534,113.057 319.362,113.192 319.017,113.192 C318.748,113.192 318.007,112.735 316.794,111.822 C315.476,114.892 313.477,117.512 310.797,119.683 C308.056,121.9 304.785,123.008 300.981,123.008 C299.529,123.008 297.709,122.671 295.523,121.997 C293.771,121.458 292.895,120.597 292.895,119.414 C292.895,117.662 293.569,116.786 294.917,116.786 C295.725,116.786 296.13,117.16 296.13,117.909 C296.13,118.149 295.943,118.403 295.568,118.673 C295.373,118.807 295.276,119.069 295.276,119.459 C295.276,119.923 295.793,120.402 296.826,120.896 C297.949,121.435 299.596,121.705 301.767,121.705 C304.568,121.705 307.27,120.492 309.876,118.066 C312.242,115.865 313.941,113.304 314.974,110.385 C314.57,110.055 314.136,109.696 313.672,109.306 C312.234,108.453 311.515,107.577 311.515,106.679 C311.515,106.304 311.762,106.117 312.257,106.117 C312.915,106.117 313.806,106.679 314.929,107.802 C315.169,108.041 315.394,108.266 315.603,108.475 C316.127,107.038 316.966,105.211 318.119,102.995 C320.2,98.9819 322.731,96.9754 325.711,96.9754 C326.774,96.9754 327.612,97.1775 328.226,97.5818 C328.84,97.9861 329.147,98.5402 329.147,99.2439 C329.147,100.367 328.735,101.318 327.912,102.096 C327.058,102.905 326.167,103.309 325.239,103.309 C324.43,103.309 324.026,103.167 324.026,102.883"/>
<path class="Note" d="M299.71,125.057 C299.77,122.795 301.02,120.789 303.461,119.037 C305.632,117.48 308.005,116.701 310.581,116.701 C314.19,116.701 317.372,118.116 320.127,120.946 C321.879,122.758 322.755,125.004 322.755,127.684 C322.755,130.095 322.111,131.945 320.823,133.232 C319.251,134.82 317.589,135.613 315.837,135.613 C314.639,135.613 313.711,135.344 313.052,134.805 C311.974,133.921 311.434,132.738 311.434,131.256 C311.434,129.339 312.393,127.587 314.309,126 C315.882,124.697 317.461,123.844 319.049,123.439 C318.629,122.721 318.098,122.047 317.454,121.418 C315.447,119.456 313.171,118.475 310.626,118.475 C307.975,118.475 305.782,119.052 304.045,120.205 C302.248,121.388 300.803,123.005 299.71,125.057 M319.61,124.63 C318.787,125.393 317.963,126.209 317.14,127.078 C315.522,128.785 314.714,130.402 314.714,131.93 C314.714,133.562 315.088,134.378 315.837,134.378 C316.511,134.378 317.454,133.457 318.667,131.615 C319.64,130.148 320.127,128.8 320.127,127.572 C320.127,126.524 319.955,125.543 319.61,124.63"/>
<path class="Note" d="M404.328,159.072 C404.388,156.811 405.638,154.805 408.079,153.053 C410.25,151.495 412.623,150.717 415.199,150.717 C418.808,150.717 421.99,152.132 424.745,154.962 C426.497,156.774 427.373,159.02 427.373,161.7 C427.373,164.111 426.729,165.96 425.441,167.248 C423.869,168.835 422.207,169.629 420.455,169.629 C419.257,169.629 418.329,169.359 417.67,168.82 C416.592,167.937 416.053,166.754 416.053,165.271 C416.053,163.355 417.011,161.603 418.928,160.016 C420.5,158.713 422.08,157.859 423.667,157.455 C423.248,156.736 422.716,156.062 422.072,155.434 C420.066,153.472 417.79,152.491 415.244,152.491 C412.594,152.491 410.4,153.068 408.663,154.221 C406.866,155.404 405.421,157.021 404.328,159.072 M424.228,158.645 C423.405,159.409 422.581,160.225 421.758,161.094 C420.14,162.801 419.332,164.418 419.332,165.945 C419.332,167.577 419.706,168.394 420.455,168.394 C421.129,168.394 422.072,167.473 423.285,165.631 C424.258,164.163 424.745,162.816 424.745,161.588 C424.745,160.54 424.573,159.559 424.228,158.645"/>
<path class="Note" d="M417.212,152.621 C416.478,152.621 416.111,151.835 416.111,150.263 L416.111,143.682 C416.111,143.053 416.418,142.738 417.032,142.738 C417.301,142.738 417.504,142.761 417.638,142.806 C418.118,141.967 418.904,141.263 419.997,140.694 C421.524,139.901 423.074,139.504 424.646,139.504 C425.889,139.504 426.51,139.968 426.51,140.896 C426.51,141.675 426.091,142.064 425.253,142.064 C424.654,142.064 424.085,141.93 423.546,141.66 C423.066,141.42 422.557,141.301 422.018,141.301 C421.09,141.301 419.72,141.907 417.908,143.12 C418.162,144.333 418.29,145.748 418.29,147.365 C418.29,150.869 417.93,152.621 417.212,152.621"/>
<path class="Note" d="M404.328,125.057 C404.388,122.795 405.638,120.789 408.079,119.037 C410.25,117.48 412.623,116.701 415.199,116.701 C418.808,116.701 421.99,118.116 424.745,120.946 C426.497,122.758 427.373,125.004 427.373,127.684 C427.373,130.095 426.729,131.945 425.441,133.232 C423.869,134.82 422.207,135.613 420.455,135.613 C419.257,135.613 418.329,135.344 417.67,134.805 C416.592,133.921 416.053,132.738 416.053,131.256 C416.053,129.339 417.011,127.587 418.928,126 C420.5,124.697 422.08,123.844 423.667,123.439 C423.248,122.721 422.716,122.047 422.072,121.418 C420.066,119.456 417.79,118.475 415.244,118.475 C412.594,118.475 410.4,119.052 408.663,120.205 C406.866,121.388 405.421,123.005 404.328,125.057 M424.228,124.63 C423.405,125.393 422.581,126.209 421.758,127.078 C420.14,128.785 419.332,130.402 419.332,131.93 C419.332,133.562 419.706,134.378 420.455,134.378 C421.129,134.378 422.072,133.457 423.285,131.615 C424.258,130.148 424.745,128.8 424.745,127.572 C424.745,126.524 424.573,125.543 424.228,124.63"/>
<path class="Note" d="M537.233,107.285 C538.116,107.285 538.558,107.839 538.558,108.947 C538.558,109.726 538.071,110.886 537.098,112.429 C536.32,113.671 535.93,114.884 535.93,116.067 C535.93,116.741 536.911,117.078 538.873,117.078 C540.49,117.078 542.743,116.202 545.633,114.45 C542.728,117.25 540.205,118.65 538.064,118.65 C536.132,118.65 534.785,118.358 534.021,117.774 C533.826,117.624 533.662,117.445 533.527,117.235 C532.778,118.149 531.528,118.605 529.776,118.605 C528.099,118.605 526.811,118.261 525.913,117.572 C525.314,117.108 525.014,116.367 525.014,115.348 C525.014,113.731 525.973,111.964 527.889,110.048 C529.941,107.996 532.314,106.971 535.009,106.971 C535.683,106.971 536.177,107.218 536.492,107.712 C536.746,107.427 536.993,107.285 537.233,107.285 M533.212,116.224 C533.197,116.105 533.19,115.985 533.19,115.865 C533.19,115.805 533.954,113.716 535.481,109.598 C535.631,109.194 535.78,108.85 535.93,108.565 C535.346,108.445 534.77,108.386 534.201,108.386 C533.153,108.386 531.76,109.276 530.023,111.058 C528.466,112.646 527.687,114.016 527.687,115.169 C527.687,116.442 528.293,117.078 529.506,117.078 C530.974,117.078 532.209,116.793 533.212,116.224"/>
<path class="Note" d="M528.675,169.629 C527.942,169.629 527.575,168.843 527.575,167.27 L527.575,160.689 C527.575,160.061 527.882,159.746 528.496,159.746 C528.765,159.746 528.967,159.769 529.102,159.813 C529.581,158.975 530.367,158.271 531.46,157.702 C532.988,156.909 534.538,156.512 536.11,156.512 C537.353,156.512 537.974,156.976 537.974,157.904 C537.974,158.683 537.555,159.072 536.716,159.072 C536.117,159.072 535.548,158.937 535.009,158.668 C534.53,158.428 534.021,158.309 533.482,158.309 C532.554,158.309 531.183,158.915 529.372,160.128 C529.626,161.341 529.753,162.756 529.753,164.373 C529.753,167.877 529.394,169.629 528.675,169.629"/>
<path class="Note" d="M538.603,140.739 C540.625,139.466 542.092,138.426 543.005,137.617 C544.682,136.135 545.521,134.637 545.521,133.125 C545.521,131.358 544.338,130.475 541.972,130.475 C539.487,130.475 536.896,132.264 534.201,135.843 C532.374,138.268 531.079,140.559 530.315,142.716 C531.258,142.102 532.254,141.795 533.302,141.795 C534.291,141.795 535.077,142.237 535.661,143.12 C536.065,143.734 536.267,144.782 536.267,146.265 C536.267,147.597 535.563,149.162 534.156,150.959 C533.287,152.067 532.321,152.621 531.258,152.621 C529.911,152.621 528.967,152.351 528.428,151.812 C527.665,151.049 527.283,149.536 527.283,147.275 C527.283,143.472 528.818,139.728 531.887,136.045 C535.346,131.897 538.663,129.823 541.837,129.823 C544.293,129.823 546.127,130.4 547.34,131.553 C548.044,132.226 548.396,133.2 548.396,134.473 C548.396,135.895 546.996,137.482 544.196,139.234 C542.728,140.163 540.864,140.664 538.603,140.739 M530.023,143.659 C529.649,144.917 529.461,146.122 529.461,147.275 C529.461,150.016 529.896,151.386 530.764,151.386 C531.588,151.386 532.232,150.802 532.696,149.634 C533.235,148.316 533.504,146.856 533.504,145.254 C533.504,143.831 533.033,143.12 532.089,143.12 C531.431,143.12 530.742,143.3 530.023,143.659"/>
<path class="Note" d="M537.233,124.293 C538.116,124.293 538.558,124.847 538.558,125.955 C538.558,126.734 538.071,127.894 537.098,129.436 C536.32,130.679 535.93,131.892 535.93,133.075 C535.93,133.749 536.911,134.086 538.873,134.086 C540.49,134.086 542.743,133.21 545.633,131.458 C542.728,134.258 540.205,135.658 538.064,135.658 C536.132,135.658 534.785,135.366 534.021,134.782 C533.826,134.632 533.662,134.453 533.527,134.243 C532.778,135.156 531.528,135.613 529.776,135.613 C528.099,135.613 526.811,135.269 525.913,134.58 C525.314,134.116 525.014,133.375 525.014,132.356 C525.014,130.739 525.973,128.972 527.889,127.056 C529.941,125.004 532.314,123.978 535.009,123.978 C535.683,123.978 536.177,124.225 536.492,124.72 C536.746,124.435 536.993,124.293 537.233,124.293 M533.212,133.232 C533.197,133.112 533.19,132.993 533.19,132.873 C533.19,132.813 533.954,130.724 535.481,126.606 C535.631,126.202 535.78,125.858 535.93,125.573 C535.346,125.453 534.77,125.393 534.201,125.393 C533.153,125.393 531.76,126.284 530.023,128.066 C528.466,129.654 527.687,131.024 527.687,132.177 C527.687,133.449 528.293,134.086 529.506,134.086 C530.974,134.086 532.209,133.801 533.212,133.232"/>
<path class="Note" d="M622.611,159.072 C622.671,156.811 623.921,154.805 626.362,153.053 C628.533,151.495 630.906,150.717 633.482,150.717 C637.091,150.717 640.273,152.132 643.028,154.962 C644.78,156.774 645.656,159.02 645.656,161.7 C645.656,164.111 645.012,165.96 643.724,167.248 C642.152,168.835 640.49,169.629 638.738,169.629 C637.54,169.629 636.611,169.359 635.953,168.82 C634.874,167.937 634.335,166.754 634.335,165.271 C634.335,163.355 635.294,161.603 637.21,160.016 C638.783,158.713 640.362,157.859 641.95,157.455 C641.53,156.736 640.999,156.062 640.355,155.434 C638.348,153.472 636.072,152.491 633.527,152.491 C630.876,152.491 628.683,153.068 626.946,154.221 C625.149,155.404 623.704,157.021 622.611,159.072 M642.511,158.645 C641.688,159.409 640.864,160.225 640.04,161.094 C638.423,162.801 637.615,164.418 637.615,165.945 C637.615,167.577 637.989,168.394 638.738,168.394 C639.412,168.394 640.355,167.473 641.568,165.631 C642.541,164.163 643.028,162.816 643.028,161.588 C643.028,160.54 642.856,159.559 642.511,158.645"/>
<path class="Note" d="M644.052,90.2771 C644.936,90.2771 645.377,90.8311 645.377,91.9392 C645.377,92.7178 644.891,93.8783 643.917,95.4206 C643.139,96.6635 642.749,97.8764 642.749,99.0593 C642.749,99.7331 643.73,100.07 645.692,100.07 C647.309,100.07 649.563,99.1941 652.453,97.4421 C649.548,100.242 647.024,101.642 644.883,101.642 C642.952,101.642 641.604,101.35 640.84,100.766 C640.646,100.617 640.481,100.437 640.346,100.227 C639.597,101.141 638.347,101.597 636.595,101.597 C634.918,101.597 633.63,101.253 632.732,100.564 C632.133,100.1 631.833,99.3588 631.833,98.3406 C631.833,96.7234 632.792,94.9564 634.708,93.0398 C636.76,90.9883 639.133,89.9626 641.828,89.9626 C642.502,89.9626 642.996,90.2097 643.311,90.7038 C643.565,90.4193 643.813,90.2771 644.052,90.2771 M640.032,99.2165 C640.017,99.0967 640.009,98.977 640.009,98.8572 C640.009,98.7973 640.773,96.7084 642.3,92.5906 C642.45,92.1863 642.6,91.8419 642.749,91.5574 C642.165,91.4376 641.589,91.3777 641.02,91.3777 C639.972,91.3777 638.579,92.2686 636.842,94.0505 C635.285,95.6378 634.506,97.0079 634.506,98.1609 C634.506,99.4337 635.113,100.07 636.326,100.07 C637.793,100.07 639.028,99.7855 640.032,99.2165"/>
<path class="Note" d="M622.611,125.057 C622.671,122.795 623.921,120.789 626.362,119.037 C628.533,117.48 630.906,116.701 633.482,116.701 C637.091,116.701 640.273,118.116 643.028,120.946 C644.78,122.758 645.656,125.004 645.656,127.684 C645.656,130.095 645.012,131.945 643.724,133.232 C642.152,134.82 640.49,135.613 638.738,135.613 C637.54,135.613 636.611,135.344 635.953,134.805 C634.874,133.921 634.335,132.738 634.335,131.256 C634.335,129.339 635.294,127.587 637.21,126 C638.783,124.697 640.362,123.844 641.95,123.439 C641.53,122.721 640.999,122.047 640.355,121.418 C638.348,119.456 636.072,118.475 633.527,118.475 C630.876,118.475 628.683,119.052 626.946,120.205 C625.149,121.388 623.704,123.005 622.611,125.057 M642.511,124.63 C641.688,125.393 640.864,126.209 640.04,127.078 C638.423,128.785 637.615,130.402 637.615,131.93 C637.615,133.562 637.989,134.378 638.738,134.378 C639.412,134.378 640.355,133.457 641.568,131.615 C642.541,130.148 643.028,128.8 643.028,127.572 C643.028,126.524 642.856,125.543 642.511,124.63"/>
<path class="Note" d="M749.137,169.629 C748.404,169.629 748.037,168.843 748.037,167.27 L748.037,160.689 C748.037,160.061 748.344,159.746 748.958,159.746 C749.227,159.746 749.429,159.769 749.564,159.813 C750.043,158.975 750.829,158.271 751.923,157.702 C753.45,156.909 755,156.512 756.572,156.512 C757.815,156.512 758.436,156.976 758.436,157.904 C758.436,158.683 758.017,159.072 757.178,159.072 C756.579,159.072 756.01,158.937 755.471,158.668 C754.992,158.428 754.483,158.309 753.944,158.309 C753.016,158.309 751.645,158.915 749.834,160.128 C750.088,161.341 750.215,162.756 750.215,164.373 C750.215,167.877 749.856,169.629 749.137,169.629"/>
<path class="Note" d="M764.613,113.529 C763.385,115.461 761.446,117.063 758.796,118.336 C756.49,119.444 754.333,119.998 752.327,119.998 C750.725,119.998 749.392,119.676 748.329,119.032 C747.176,118.328 746.599,117.49 746.599,116.516 C746.599,114.315 747.176,112.421 748.329,110.834 C749.901,108.678 751.488,107.599 753.09,107.599 C754.229,107.599 755.037,107.824 755.516,108.273 C756.175,108.857 756.505,109.658 756.505,110.677 C756.505,112.114 755.434,113.364 753.293,114.428 C751.211,115.461 749.766,116.135 748.958,116.449 C749.137,116.823 749.369,117.16 749.654,117.46 C750.358,118.208 751.316,118.583 752.529,118.583 C754.056,118.583 756.108,118.021 758.683,116.898 C761.154,115.805 763.131,114.682 764.613,113.529 M748.643,115.416 C749.766,114.847 750.792,114.18 751.72,113.417 C753.098,112.294 753.787,111.081 753.787,109.778 C753.787,109.044 753.45,108.678 752.776,108.678 C752.207,108.678 751.428,109.329 750.44,110.632 C749.197,112.249 748.576,113.567 748.576,114.585 C748.576,114.869 748.598,115.146 748.643,115.416"/>
<path class="Note" d="M749.137,101.597 C748.404,101.597 748.037,100.811 748.037,99.239 L748.037,92.6579 C748.037,92.029 748.344,91.7146 748.958,91.7146 C749.227,91.7146 749.429,91.737 749.564,91.782 C750.043,90.9434 750.829,90.2396 751.923,89.6706 C753.45,88.877 755,88.4802 756.572,88.4802 C757.815,88.4802 758.436,88.9444 758.436,89.8728 C758.436,90.6514 758.017,91.0408 757.178,91.0408 C756.579,91.0408 756.01,90.906 755.471,90.6365 C754.992,90.3969 754.483,90.2771 753.944,90.2771 C753.016,90.2771 751.645,90.8835 749.834,92.0964 C750.088,93.3093 750.215,94.7243 750.215,96.3415 C750.215,99.8454 749.856,101.597 749.137,101.597"/>
<path class="Note" d="M760.57,119.89 C761.409,119.321 762.015,118.85 762.389,118.475 C763.078,117.742 763.423,117.068 763.423,116.454 C763.423,115.75 763.033,115.398 762.255,115.398 C760.742,115.398 759.125,116.731 757.403,119.396 C756.879,120.205 755.726,122.84 753.944,127.303 C755.367,128.77 756.078,129.601 756.078,129.796 C756.078,130.065 755.906,130.2 755.561,130.2 C755.292,130.2 754.55,129.743 753.338,128.83 C752.02,131.9 750.021,134.52 747.34,136.691 C744.6,138.907 741.328,140.015 737.525,140.015 C736.073,140.015 734.253,139.679 732.067,139.005 C730.315,138.466 729.439,137.605 729.439,136.422 C729.439,134.67 730.113,133.794 731.461,133.794 C732.269,133.794 732.673,134.168 732.673,134.917 C732.673,135.156 732.486,135.411 732.112,135.681 C731.917,135.815 731.82,136.077 731.82,136.467 C731.82,136.931 732.337,137.41 733.37,137.904 C734.493,138.443 736.14,138.713 738.311,138.713 C741.111,138.713 743.814,137.5 746.42,135.074 C748.785,132.873 750.485,130.312 751.518,127.392 C751.114,127.063 750.68,126.704 750.215,126.314 C748.778,125.461 748.059,124.585 748.059,123.686 C748.059,123.312 748.306,123.125 748.8,123.125 C749.459,123.125 750.35,123.686 751.473,124.809 C751.713,125.049 751.937,125.274 752.147,125.483 C752.671,124.046 753.51,122.219 754.663,120.003 C756.744,115.99 759.275,113.983 762.255,113.983 C763.318,113.983 764.156,114.185 764.77,114.59 C765.384,114.994 765.691,115.548 765.691,116.252 C765.691,117.375 765.279,118.326 764.456,119.104 C763.602,119.913 762.711,120.317 761.783,120.317 C760.974,120.317 760.57,120.175 760.57,119.89"/>
<path class="Clef" transform="matrix(0.453543,0,0,0.453543,40.9291,396.85)" d="M25.4,-25.1 C17.8,-25.1 11.7,-20.7 11.6,-20.7 C5.8,-16.4 3.5,-11.3 2.6,-7.8 C2.1,-6 1.9,-4.2 1.9,-2.5 C1.9,-0.1 2.3,2.1 3.2,4 C4.4,6.7 6.7,8.6 9.7,9.6 C10.9,10 12.2,10.2 13.5,10.2 C15.7,10.2 18,9.6 19.9,8.5 C23,6.8 24.9,3.2 24.9,-0.7 C24.9,-4.2 23.1,-7.4 20.1,-9.3 C18,-10.7 16,-11.1 14.3,-11.1 C13.1,-11.1 12,-10.9 11.1,-10.6 C10.1,-10.2 8.4,-9.2 7.6,-8.5 C7.9,-10.4 9.1,-13.3 10.2,-14.9 C11.3,-16.5 13.5,-18.5 15.2,-19.4 C17.7,-20.8 20.9,-21.4 24.4,-21.4 C34.6,-21.4 39.6,-13.2 39.6,3.6 C39.6,12.9 36.1,21.8 33.1,27.7 C29.8,34.3 25.4,40.6 21.5,44.1 C11.1,53.6 1.3,58.1 1.2,58.1 C1.2,58.1 -0.3,59 0.1,60.5 C0.4,61.5 1.3,61.7 1.9,61.7 C2,61.7 2.3,61.6 2.4,61.6 C2.5,61.6 13.9,56.9 23,49.8 C28.1,46.1 32.7,42.1 36.7,37.8 C40.3,33.9 43.4,29.7 45.9,25.5 C50.3,18 52.8,10.2 52.8,3.5 C52.8,-4.8 50.6,-11.7 46.5,-16.6 C41.8,-22.2 34.7,-25.1 25.4,-25.1 M56.8,-12.4 C56.8,-9.6 59,-7.4 61.6,-7.4 C64.2,-7.4 66.4,-9.6 66.4,-12.4 C66.4,-15.2 64.2,-17.5 61.6,-17.5 C59,-17.5 56.8,-15.2 56.8,-12.4 M56.8,12.3 C56.8,15.1 59,17.4 61.6,17.4 C64.2,17.4 66.4,15.1 66.4,12.3 C66.4,9.5 64.2,7.2 61.6,7.2 C59,7.2 56.8,9.5 56.8,12.3"/>
<path class="Clef" transform="matrix(0.453543,0,0,0.453543,40.9291,300.472)" d="M63.37,-5.89004 C62.14,-11.32 59.5,-15.14 58.72,-16.1801 C55.5301,-20.45 51.52,-23.3 46.8301,-24.65 C43.72,-25.54 40.72,-25.65 38.3,-25.47 C37.2601,-31.4801 36.2601,-37.3601 35.35,-42.8101 C40.79,-48.97 44.42,-54.77 46.69,-59.07 C50.1601,-65.65 51.3101,-70.2301 51.3601,-70.4301 C53.0801,-75.64 53.44,-83.34 52.34,-91.55 C51.3301,-99.1 49.24,-105.81 46.89,-109.06 C45.8601,-110.49 44.8101,-111.22 43.77,-111.22 C42.55,-111.22 40.04,-109.98 37.15,-107.21 C34.85,-105.01 31.5801,-101.12 29.02,-95.1101 C26.02,-88.05 25.8101,-78.5601 26.1601,-71.84 C26.54,-64.57 27.65,-58.8801 27.6601,-58.8301 C27.6801,-58.74 27.94,-57.24 28.39,-54.67 C28.1601,-54.44 27.92,-54.22 27.67,-53.9801 C26.6301,-52.9801 25.44,-51.84 24.0601,-50.4601 C23.2,-49.6 22.25,-48.69 21.25,-47.72 C12.79,-39.57 0,-27.25 0,-8.1 C0,-3.4 0.9,1.01992 2.68008,5.02998 C4.27002,8.62998 6.57002,11.91 9.5,14.78 C17.2301,22.33 27.82,25.5399 34.8801,25.38 C37.8301,25.31 40.4601,25.0699 42.85,24.6199 C44.6801,34.2199 45.82,41.25 45.8601,46.5899 C45.9,53.1 44.25,57.0699 40.35,59.8399 C37.92,61.5699 35.1101,62.5199 32.0101,62.6699 C29.42,62.7899 27.1601,62.3199 25.7301,61.91 L25.72,61.91 C25.72,61.91 25.4301,61.83 25.42,61.63 C25.4101,61.45 25.7601,61.4 25.77,61.4 L25.79,61.4 C27.7101,60.96 31.2801,59.73 33.64,56.43 C35.44,53.91 36.3101,49.2899 34.47,45.35 C33.3601,42.96 30.85,40.01 25.2301,39.56 C22.74,39.36 20.47,39.8699 18.47,41.0699 C16.6601,42.15 15.1601,43.7899 14.1101,45.7899 C11.65,50.4899 12.1101,56.2199 15.24,60.06 C18.2,63.68 22.82,65.9899 28.25,66.5699 C29.1,66.66 29.95,66.7 30.8,66.7 C31.5101,66.7 32.22,66.6699 32.92,66.61 C31.72,66.9399 30.64,67.4899 29.77,68.25 C28.2801,69.5399 27.44,71.38 27.44,73.41 C27.44,75.28 28.0601,76.65 29.55,78.0399 C28.4101,78.5 27.55,78.98 26.79,79.56 C25.25,80.73 24.34,82.46 24.34,84.1899 C24.34,87.45 27.3,89.63 31.72,89.63 C37.1301,89.63 40.9101,86.63 40.9101,82.35 C40.9101,80.1199 39.9101,78.18 38.0801,76.83 C41.0101,75.6199 42.37,73.9399 42.37,71.56 C42.39,70.05 41.69,68.61 40.49,67.6899 C39.2801,66.7399 37.62,66.2399 35.69,66.2399 L35.5101,66.2399 C38.2801,65.7 40.92,64.7 43.2101,63.28 C46.87,60.71 48.99,56.73 49.67,51.1 C50.2301,46.46 49.84,40.55 48.44,32.48 C48.0801,30.3899 47.54,27.36 46.8801,23.6 C52.6301,21.68 56.79,18.11 60.5601,12.26 C63.85,6.51992 64.8,0.419922 63.37,-5.89004 M32.39,87.5399 C30.19,87.5399 28.7301,86.1199 28.7301,84.01 C28.7301,82.11 29.65,80.5 31.32,79.4699 C31.6801,79.66 31.77,79.71 32.1101,79.88 C33.3,80.48 33.3,80.48 33.55,80.63 L33.5601,80.6399 C35.47,81.73 36.25,82.76 36.25,84.18 C36.24,86.0899 34.59,87.5399 32.39,87.5399 M38.3101,71.63 C38.3101,73.2699 37.7301,74.3399 36.1801,75.53 C34.74,74.78 34.35,74.56 33.9801,74.3399 L33.8801,74.28 C32.3301,73.3399 31.85,72.66 31.85,71.4 C31.85,69.6 33.2301,68.3399 35.19,68.3399 C37.17,68.35 38.3101,69.55 38.3101,71.63 M33.15,-83.8101 C34.9301,-89.55 37.67,-92.8 39.6601,-94.5301 C41.4101,-96.05 43.0601,-96.7601 43.9801,-96.7601 C44.12,-96.7601 44.24,-96.74 44.34,-96.7101 C44.8,-96.57 45.3301,-96 45.8,-95.1301 C48.1101,-90.84 47.37,-84.1301 46.0301,-79.69 C44.4,-74.29 41.4801,-68.6801 32.69,-59.0601 C32.52,-60.17 32.3601,-61.22 32.2101,-62.2 C30.95,-70.49 31.27,-77.7601 33.15,-83.8101 M29.15,20.31 C24.5101,19.0899 20.0801,16.5899 16.32,13.0899 C15.0101,11.86 13.14,9.68994 11.67,6.3 C10.3101,3.13994 9.65,-0.290039 9.7,-3.88008 C9.77002,-8.57002 11.0801,-13.39 13.59,-18.1801 C16.5101,-23.7601 21.07,-29.29 27.1301,-34.62 C28.5801,-35.9 29.95,-37.1801 31.24,-38.4601 C32,-34.2 32.8301,-29.5101 33.7101,-24.6301 C29.8601,-23.3601 25.1101,-20.2101 22,-14.5601 C18.47,-7.99004 18.6101,-2.47002 19.34,1.00996 C20.2801,5.46992 22.8101,9.22998 26.27,11.3199 C27.2,11.88 31.3301,14.01 33.17,13.43 C33.54,13.31 33.8101,13.0899 33.95,12.76 C34.4601,11.5899 33.44,10.95 31.8801,9.98994 C31.2801,9.61992 30.6101,9.2 29.8801,8.66992 C26.5601,6.17998 25.1101,1.72998 26.1801,-2.65 C26.7601,-5.05 28.04,-7.21006 29.8801,-8.91006 C31.55,-10.4601 33.59,-11.5601 35.97,-12.2 C38.0101,-0.960059 40.07,10.1899 41.7101,18.55 C41.84,19.2399 41.9801,19.91 42.1101,20.58 C37.7101,21.51 33.37,21.4199 29.15,20.31 M54.9,10.1 C53.7301,13.28 51.27,17.35 46.14,19.41 C46.07,18.9899 45.99,18.56 45.9101,18.13 C44.3601,9.36992 42.4301,-1.61006 40.47,-12.87 C50.82,-13.35 55.09,-5.91006 55.9801,-1.08008 C56.45,1.45 56.45,5.88994 54.9,10.1"/>
<path class="FiguredBass" d="M108.379,456.594 C107.512,456.594 106.935,456.943 106.648,457.64 C106.361,458.337 106.217,459.325 106.217,460.602 L106.217,462.676 C106.827,462.43 107.354,462.301 107.799,462.289 C109.323,462.289 110.521,462.626 111.394,463.3 C112.267,463.974 112.704,464.976 112.704,466.306 C112.704,467.636 112.261,468.641 111.376,469.321 C110.492,470 109.299,470.34 107.799,470.34 C106.264,470.34 105.063,469.628 104.196,468.204 C103.329,466.781 102.895,465.09 102.895,463.133 C102.895,461.188 103.399,459.5 104.407,458.071 C105.414,456.641 106.739,455.926 108.379,455.926 C109.457,455.926 110.389,456.199 111.174,456.744 C111.959,457.288 112.352,458.006 112.352,458.897 C112.352,459.412 112.164,459.858 111.789,460.233 C111.414,460.608 110.966,460.795 110.445,460.795 C109.923,460.795 109.475,460.608 109.1,460.233 C108.725,459.858 108.537,459.412 108.537,458.897 C108.537,458.393 108.725,457.948 109.1,457.561 C109.229,457.409 109.411,457.28 109.645,457.174 C109.586,457.022 109.469,456.905 109.293,456.823 C109.036,456.67 108.731,456.594 108.379,456.594 M109.241,463.784 C109.03,463.233 108.567,462.957 107.852,462.957 C107.137,462.957 106.695,463.233 106.525,463.784 C106.355,464.334 106.27,465.172 106.27,466.297 C106.27,467.621 106.355,468.512 106.525,468.969 C106.695,469.426 107.137,469.655 107.852,469.655 C108.567,469.655 109.03,469.379 109.241,468.828 C109.452,468.278 109.557,467.437 109.557,466.306 C109.557,465.175 109.452,464.334 109.241,463.784"/>
<path class="FiguredBass" d="M210.319,456.594 C209.451,456.594 208.874,456.943 208.587,457.64 C208.3,458.337 208.156,459.325 208.156,460.602 L208.156,462.676 C208.766,462.43 209.293,462.301 209.739,462.289 C211.262,462.289 212.46,462.626 213.333,463.3 C214.206,463.974 214.643,464.976 214.643,466.306 C214.643,467.636 214.2,468.641 213.316,469.321 C212.431,470 211.239,470.34 209.739,470.34 C208.203,470.34 207.002,469.628 206.135,468.204 C205.268,466.781 204.834,465.09 204.834,463.133 C204.834,461.188 205.338,459.5 206.346,458.071 C207.354,456.641 208.678,455.926 210.319,455.926 C211.397,455.926 212.328,456.199 213.114,456.744 C213.899,457.288 214.291,458.006 214.291,458.897 C214.291,459.412 214.104,459.858 213.729,460.233 C213.354,460.608 212.906,460.795 212.384,460.795 C211.863,460.795 211.414,460.608 211.039,460.233 C210.664,459.858 210.477,459.412 210.477,458.897 C210.477,458.393 210.664,457.948 211.039,457.561 C211.168,457.409 211.35,457.28 211.584,457.174 C211.526,457.022 211.408,456.905 211.233,456.823 C210.975,456.67 210.67,456.594 210.319,456.594 M211.18,463.784 C210.969,463.233 210.506,462.957 209.791,462.957 C209.076,462.957 208.634,463.233 208.464,463.784 C208.294,464.334 208.209,465.172 208.209,466.297 C208.209,467.621 208.294,468.512 208.464,468.969 C208.634,469.426 209.076,469.655 209.791,469.655 C210.506,469.655 210.969,469.379 211.18,468.828 C211.391,468.278 211.496,467.437 211.496,466.306 C211.496,465.175 211.391,464.334 211.18,463.784"/>
<path class="FiguredBass" d="M314.937,456.594 C314.069,456.594 313.492,456.943 313.205,457.64 C312.918,458.337 312.775,459.325 312.775,460.602 L312.775,462.676 C313.384,462.43 313.911,462.301 314.357,462.289 C315.88,462.289 317.078,462.626 317.951,463.3 C318.824,463.974 319.261,464.976 319.261,466.306 C319.261,467.636 318.818,468.641 317.934,469.321 C317.049,470 315.857,470.34 314.357,470.34 C312.821,470.34 311.62,469.628 310.753,468.204 C309.886,466.781 309.452,465.09 309.452,463.133 C309.452,461.188 309.956,459.5 310.964,458.071 C311.972,456.641 313.296,455.926 314.937,455.926 C316.015,455.926 316.946,456.199 317.732,456.744 C318.517,457.288 318.909,458.006 318.909,458.897 C318.909,459.412 318.722,459.858 318.347,460.233 C317.972,460.608 317.524,460.795 317.002,460.795 C316.481,460.795 316.032,460.608 315.657,460.233 C315.282,459.858 315.095,459.412 315.095,458.897 C315.095,458.393 315.282,457.948 315.657,457.561 C315.786,457.409 315.968,457.28 316.202,457.174 C316.144,457.022 316.027,456.905 315.851,456.823 C315.593,456.67 315.288,456.594 314.937,456.594 M315.798,463.784 C315.587,463.233 315.124,462.957 314.409,462.957 C313.694,462.957 313.252,463.233 313.082,463.784 C312.912,464.334 312.827,465.172 312.827,466.297 C312.827,467.621 312.912,468.512 313.082,468.969 C313.252,469.426 313.694,469.655 314.409,469.655 C315.124,469.655 315.587,469.379 315.798,468.828 C316.009,468.278 316.114,467.437 316.114,466.306 C316.114,465.175 316.009,464.334 315.798,463.784"/>
<path class="FiguredBass" d="M419.555,456.594 C418.688,456.594 418.11,456.943 417.823,457.64 C417.536,458.337 417.393,459.325 417.393,460.602 L417.393,462.676 C418.002,462.43 418.529,462.301 418.975,462.289 C420.498,462.289 421.696,462.626 422.569,463.3 C423.442,463.974 423.879,464.976 423.879,466.306 C423.879,467.636 423.437,468.641 422.552,469.321 C421.667,470 420.475,470.34 418.975,470.34 C417.439,470.34 416.238,469.628 415.371,468.204 C414.504,466.781 414.07,465.09 414.07,463.133 C414.07,461.188 414.574,459.5 415.582,458.071 C416.59,456.641 417.914,455.926 419.555,455.926 C420.633,455.926 421.564,456.199 422.35,456.744 C423.135,457.288 423.527,458.006 423.527,458.897 C423.527,459.412 423.34,459.858 422.965,460.233 C422.59,460.608 422.142,460.795 421.62,460.795 C421.099,460.795 420.65,460.608 420.275,460.233 C419.9,459.858 419.713,459.412 419.713,458.897 C419.713,458.393 419.9,457.948 420.275,457.561 C420.404,457.409 420.586,457.28 420.82,457.174 C420.762,457.022 420.645,456.905 420.469,456.823 C420.211,456.67 419.906,456.594 419.555,456.594 M420.416,463.784 C420.205,463.233 419.742,462.957 419.027,462.957 C418.313,462.957 417.87,463.233 417.7,463.784 C417.53,464.334 417.445,465.172 417.445,466.297 C417.445,467.621 417.53,468.512 417.7,468.969 C417.87,469.426 418.313,469.655 419.027,469.655 C419.742,469.655 420.205,469.379 420.416,468.828 C420.627,468.278 420.732,467.437 420.732,466.306 C420.732,465.175 420.627,464.334 420.416,463.784"/>
<path class="FiguredBass" d="M529.349,468.512 L529.349,472.186 C529.349,472.549 529.164,472.731 528.795,472.731 C528.426,472.731 528.241,472.549 528.241,472.186 L528.241,468.987 L527.679,469.215 C527.62,469.239 527.544,469.25 527.45,469.25 C527.298,469.25 527.163,469.192 527.046,469.075 C526.929,468.957 526.87,468.823 526.87,468.67 L526.87,466.877 C526.87,466.619 526.993,466.438 527.239,466.332 L528.241,465.91 L528.241,462.219 L527.679,462.448 C527.643,462.459 527.597,462.465 527.538,462.465 C527.515,462.465 527.485,462.465 527.45,462.465 C527.274,462.442 527.134,462.377 527.028,462.272 C526.923,462.166 526.87,462.043 526.87,461.903 L526.87,460.11 C526.87,459.864 526.993,459.688 527.239,459.582 L528.241,459.16 L528.241,455.416 C528.241,455.053 528.426,454.871 528.795,454.871 C529.164,454.871 529.349,455.053 529.349,455.416 L529.349,458.703 L531.616,457.754 L531.616,454.08 C531.616,453.717 531.798,453.535 532.161,453.535 C532.524,453.535 532.706,453.717 532.706,454.08 L532.706,457.315 L533.321,457.051 C533.38,457.028 533.444,457.016 533.515,457.016 C533.667,457.016 533.805,457.075 533.928,457.192 C534.051,457.309 534.112,457.444 534.112,457.596 L534.112,459.389 C534.112,459.647 533.983,459.828 533.725,459.934 L532.706,460.356 L532.706,464.065 L533.321,463.819 C533.356,463.807 533.397,463.801 533.444,463.801 C533.468,463.801 533.491,463.801 533.515,463.801 C533.714,463.836 533.863,463.901 533.963,463.994 C534.062,464.088 534.112,464.211 534.112,464.364 L534.112,466.157 C534.112,466.403 533.983,466.578 533.725,466.684 L532.706,467.106 L532.706,470.85 C532.706,471.213 532.524,471.395 532.161,471.395 C531.798,471.395 531.616,471.213 531.616,470.85 L531.616,467.563 L529.349,468.512 M529.349,465.453 L531.616,464.522 L531.616,460.813 L529.349,461.762 L529.349,465.453 "/>
<path class="FiguredBass" d="M637.838,456.594 C636.97,456.594 636.393,456.943 636.106,457.64 C635.819,458.337 635.676,459.325 635.676,460.602 L635.676,462.676 C636.285,462.43 636.812,462.301 637.258,462.289 C638.781,462.289 639.979,462.626 640.852,463.3 C641.725,463.974 642.162,464.976 642.162,466.306 C642.162,467.636 641.719,468.641 640.835,469.321 C639.95,470 638.758,470.34 637.258,470.34 C635.722,470.34 634.521,469.628 633.654,468.204 C632.787,466.781 632.353,465.09 632.353,463.133 C632.353,461.188 632.857,459.5 633.865,458.071 C634.873,456.641 636.197,455.926 637.838,455.926 C638.916,455.926 639.847,456.199 640.633,456.744 C641.418,457.288 641.81,458.006 641.81,458.897 C641.81,459.412 641.623,459.858 641.248,460.233 C640.873,460.608 640.425,460.795 639.903,460.795 C639.382,460.795 638.933,460.608 638.558,460.233 C638.183,459.858 637.996,459.412 637.996,458.897 C637.996,458.393 638.183,457.948 638.558,457.561 C638.687,457.409 638.869,457.28 639.103,457.174 C639.045,457.022 638.927,456.905 638.752,456.823 C638.494,456.67 638.189,456.594 637.838,456.594 M638.699,463.784 C638.488,463.233 638.025,462.957 637.31,462.957 C636.595,462.957 636.153,463.233 635.983,463.784 C635.813,464.334 635.728,465.172 635.728,466.297 C635.728,467.621 635.813,468.512 635.983,468.969 C636.153,469.426 636.595,469.655 637.31,469.655 C638.025,469.655 638.488,469.379 638.699,468.828 C638.91,468.278 639.015,467.437 639.015,466.306 C639.015,465.175 638.91,464.334 638.699,463.784"/>
<path class="FiguredBass" d="M749.811,468.512 L749.811,472.186 C749.811,472.549 749.626,472.731 749.257,472.731 C748.888,472.731 748.703,472.549 748.703,472.186 L748.703,468.987 L748.141,469.215 C748.082,469.239 748.006,469.25 747.912,469.25 C747.76,469.25 747.625,469.192 747.508,469.075 C747.391,468.957 747.332,468.823 747.332,468.67 L747.332,466.877 C747.332,466.619 747.455,466.438 747.701,466.332 L748.703,465.91 L748.703,462.219 L748.141,462.448 C748.105,462.459 748.059,462.465 748,462.465 C747.977,462.465 747.947,462.465 747.912,462.465 C747.736,462.442 747.596,462.377 747.49,462.272 C747.385,462.166 747.332,462.043 747.332,461.903 L747.332,460.11 C747.332,459.864 747.455,459.688 747.701,459.582 L748.703,459.16 L748.703,455.416 C748.703,455.053 748.888,454.871 749.257,454.871 C749.626,454.871 749.811,455.053 749.811,455.416 L749.811,458.703 L752.078,457.754 L752.078,454.08 C752.078,453.717 752.26,453.535 752.623,453.535 C752.986,453.535 753.168,453.717 753.168,454.08 L753.168,457.315 L753.783,457.051 C753.842,457.028 753.906,457.016 753.977,457.016 C754.129,457.016 754.267,457.075 754.39,457.192 C754.513,457.309 754.574,457.444 754.574,457.596 L754.574,459.389 C754.574,459.647 754.445,459.828 754.188,459.934 L753.168,460.356 L753.168,464.065 L753.783,463.819 C753.818,463.807 753.859,463.801 753.906,463.801 C753.93,463.801 753.953,463.801 753.977,463.801 C754.176,463.836 754.325,463.901 754.425,463.994 C754.524,464.088 754.574,464.211 754.574,464.364 L754.574,466.157 C754.574,466.403 754.445,466.578 754.188,466.684 L753.168,467.106 L753.168,470.85 C753.168,471.213 752.986,471.395 752.623,471.395 C752.26,471.395 752.078,471.213 752.078,470.85 L752.078,467.563 L749.811,468.512 M749.811,465.453 L752.078,464.522 L752.078,460.813 L749.811,461.762 L749.811,465.453 "/>
<path class="FiguredBass" d="M108.379,337.539 C107.512,337.539 106.935,337.888 106.648,338.585 C106.361,339.282 106.217,340.269 106.217,341.547 L106.217,343.621 C106.827,343.375 107.354,343.246 107.799,343.234 C109.323,343.234 110.521,343.571 111.394,344.245 C112.267,344.919 112.704,345.921 112.704,347.251 C112.704,348.581 112.261,349.586 111.376,350.266 C110.492,350.945 109.299,351.285 107.799,351.285 C106.264,351.285 105.063,350.573 104.196,349.149 C103.329,347.725 102.895,346.035 102.895,344.078 C102.895,342.133 103.399,340.445 104.407,339.016 C105.414,337.586 106.739,336.871 108.379,336.871 C109.457,336.871 110.389,337.143 111.174,337.688 C111.959,338.233 112.352,338.951 112.352,339.842 C112.352,340.357 112.164,340.803 111.789,341.178 C111.414,341.553 110.966,341.74 110.445,341.74 C109.923,341.74 109.475,341.553 109.1,341.178 C108.725,340.803 108.537,340.357 108.537,339.842 C108.537,339.338 108.725,338.892 109.1,338.506 C109.229,338.353 109.411,338.225 109.645,338.119 C109.586,337.967 109.469,337.85 109.293,337.767 C109.036,337.615 108.731,337.539 108.379,337.539 M109.241,344.728 C109.03,344.178 108.567,343.902 107.852,343.902 C107.137,343.902 106.695,344.178 106.525,344.728 C106.355,345.279 106.27,346.117 106.27,347.242 C106.27,348.566 106.355,349.457 106.525,349.914 C106.695,350.371 107.137,350.6 107.852,350.6 C108.567,350.6 109.03,350.324 109.241,349.773 C109.452,349.223 109.557,348.382 109.557,347.251 C109.557,346.12 109.452,345.279 109.241,344.728"/>
<path class="FiguredBass" d="M110.629,363.67 C110.629,363.857 110.735,364.039 110.946,364.215 C111.157,364.391 111.388,364.558 111.64,364.716 C111.892,364.874 112.123,365.173 112.334,365.612 C112.545,366.052 112.651,366.605 112.651,367.273 C112.651,368.562 112.164,369.559 111.192,370.262 C110.219,370.965 108.989,371.316 107.5,371.316 C106.305,371.316 105.265,371.017 104.38,370.42 C103.495,369.822 103.053,369.037 103.053,368.064 C103.053,367.549 103.241,367.1 103.616,366.72 C103.991,366.339 104.439,366.148 104.96,366.148 C105.482,366.148 105.924,366.336 106.287,366.711 C106.651,367.086 106.832,367.537 106.832,368.064 C106.832,368.299 106.639,368.554 106.252,368.829 C105.866,369.104 105.672,369.359 105.672,369.594 C105.672,369.957 105.851,370.224 106.208,370.393 C106.566,370.563 106.996,370.648 107.5,370.648 C108.157,370.648 108.622,370.323 108.898,369.673 C109.173,369.022 109.311,368.223 109.311,367.273 L109.311,366.816 C109.311,366.184 109.29,365.703 109.249,365.375 C109.208,365.047 109.079,364.754 108.863,364.496 C108.646,364.238 108.315,364.109 107.87,364.109 L105.567,364.109 C105.297,364.109 105.162,363.963 105.162,363.67 C105.162,363.4 105.297,363.266 105.567,363.266 L107.87,363.266 C108.35,363.266 108.725,363.084 108.995,362.721 C109.088,362.592 109.164,362.381 109.223,362.088 C109.282,361.701 109.311,361.144 109.311,360.418 L109.311,360.189 C109.311,358.443 108.666,357.57 107.377,357.57 C106.241,357.57 105.672,357.887 105.672,358.519 C105.672,358.73 105.845,358.956 106.191,359.196 C106.537,359.436 106.709,359.662 106.709,359.873 C106.709,360.33 106.548,360.723 106.226,361.051 C105.904,361.379 105.511,361.543 105.048,361.543 C104.585,361.543 104.196,361.379 103.879,361.051 C103.563,360.723 103.405,360.33 103.405,359.873 C103.405,358.971 103.797,358.25 104.582,357.711 C105.368,357.172 106.299,356.902 107.377,356.902 C108.795,356.902 109.961,357.175 110.875,357.72 C111.789,358.265 112.246,359.088 112.246,360.189 C112.246,360.975 112.164,361.584 112,362.017 C111.836,362.451 111.649,362.715 111.438,362.809 C111.227,362.902 111.039,363.011 110.875,363.134 C110.711,363.257 110.629,363.435 110.629,363.67"/>
<path class="FiguredBass" d="M210.319,337.539 C209.451,337.539 208.874,337.888 208.587,338.585 C208.3,339.282 208.156,340.269 208.156,341.547 L208.156,343.621 C208.766,343.375 209.293,343.246 209.739,343.234 C211.262,343.234 212.46,343.571 213.333,344.245 C214.206,344.919 214.643,345.921 214.643,347.251 C214.643,348.581 214.2,349.586 213.316,350.266 C212.431,350.945 211.239,351.285 209.739,351.285 C208.203,351.285 207.002,350.573 206.135,349.149 C205.268,347.725 204.834,346.035 204.834,344.078 C204.834,342.133 205.338,340.445 206.346,339.016 C207.354,337.586 208.678,336.871 210.319,336.871 C211.397,336.871 212.328,337.143 213.114,337.688 C213.899,338.233 214.291,338.951 214.291,339.842 C214.291,340.357 214.104,340.803 213.729,341.178 C213.354,341.553 212.906,341.74 212.384,341.74 C211.863,341.74 211.414,341.553 211.039,341.178 C210.664,340.803 210.477,340.357 210.477,339.842 C210.477,339.338 210.664,338.892 211.039,338.506 C211.168,338.353 211.35,338.225 211.584,338.119 C211.526,337.967 211.408,337.85 211.233,337.767 C210.975,337.615 210.67,337.539 210.319,337.539 M211.18,344.728 C210.969,344.178 210.506,343.902 209.791,343.902 C209.076,343.902 208.634,344.178 208.464,344.728 C208.294,345.279 208.209,346.117 208.209,347.242 C208.209,348.566 208.294,349.457 208.464,349.914 C208.634,350.371 209.076,350.6 209.791,350.6 C210.506,350.6 210.969,350.324 211.18,349.773 C211.391,349.223 211.496,348.382 211.496,347.251 C211.496,346.12 211.391,345.279 211.18,344.728"/>
<path class="FiguredBass" d="M212.569,363.67 C212.569,363.857 212.674,364.039 212.885,364.215 C213.096,364.391 213.327,364.558 213.579,364.716 C213.831,364.874 214.063,365.173 214.274,365.612 C214.485,366.052 214.59,366.605 214.59,367.273 C214.59,368.562 214.104,369.559 213.131,370.262 C212.158,370.965 210.928,371.316 209.44,371.316 C208.244,371.316 207.204,371.017 206.32,370.42 C205.435,369.822 204.992,369.037 204.992,368.064 C204.992,367.549 205.18,367.1 205.555,366.72 C205.93,366.339 206.378,366.148 206.9,366.148 C207.421,366.148 207.864,366.336 208.227,366.711 C208.59,367.086 208.772,367.537 208.772,368.064 C208.772,368.299 208.578,368.554 208.192,368.829 C207.805,369.104 207.612,369.359 207.612,369.594 C207.612,369.957 207.79,370.224 208.148,370.393 C208.505,370.563 208.936,370.648 209.44,370.648 C210.096,370.648 210.562,370.323 210.837,369.673 C211.113,369.022 211.25,368.223 211.25,367.273 L211.25,366.816 C211.25,366.184 211.23,365.703 211.189,365.375 C211.148,365.047 211.019,364.754 210.802,364.496 C210.585,364.238 210.254,364.109 209.809,364.109 L207.506,364.109 C207.237,364.109 207.102,363.963 207.102,363.67 C207.102,363.4 207.237,363.266 207.506,363.266 L209.809,363.266 C210.289,363.266 210.664,363.084 210.934,362.721 C211.028,362.592 211.104,362.381 211.162,362.088 C211.221,361.701 211.25,361.144 211.25,360.418 L211.25,360.189 C211.25,358.443 210.606,357.57 209.317,357.57 C208.18,357.57 207.612,357.887 207.612,358.519 C207.612,358.73 207.784,358.956 208.13,359.196 C208.476,359.436 208.649,359.662 208.649,359.873 C208.649,360.33 208.488,360.723 208.165,361.051 C207.843,361.379 207.45,361.543 206.988,361.543 C206.525,361.543 206.135,361.379 205.819,361.051 C205.502,360.723 205.344,360.33 205.344,359.873 C205.344,358.971 205.737,358.25 206.522,357.711 C207.307,357.172 208.239,356.902 209.317,356.902 C210.735,356.902 211.901,357.175 212.815,357.72 C213.729,358.265 214.186,359.088 214.186,360.189 C214.186,360.975 214.104,361.584 213.94,362.017 C213.776,362.451 213.588,362.715 213.377,362.809 C213.166,362.902 212.979,363.011 212.815,363.134 C212.651,363.257 212.569,363.435 212.569,363.67"/>
<path class="FiguredBass" d="M314.937,337.539 C314.069,337.539 313.492,337.888 313.205,338.585 C312.918,339.282 312.775,340.269 312.775,341.547 L312.775,343.621 C313.384,343.375 313.911,343.246 314.357,343.234 C315.88,343.234 317.078,343.571 317.951,344.245 C318.824,344.919 319.261,345.921 319.261,347.251 C319.261,348.581 318.818,349.586 317.934,350.266 C317.049,350.945 315.857,351.285 314.357,351.285 C312.821,351.285 311.62,350.573 310.753,349.149 C309.886,347.725 309.452,346.035 309.452,344.078 C309.452,342.133 309.956,340.445 310.964,339.016 C311.972,337.586 313.296,336.871 314.937,336.871 C316.015,336.871 316.946,337.143 317.732,337.688 C318.517,338.233 318.909,338.951 318.909,339.842 C318.909,340.357 318.722,340.803 318.347,341.178 C317.972,341.553 317.524,341.74 317.002,341.74 C316.481,341.74 316.032,341.553 315.657,341.178 C315.282,340.803 315.095,340.357 315.095,339.842 C315.095,339.338 315.282,338.892 315.657,338.506 C315.786,338.353 315.968,338.225 316.202,338.119 C316.144,337.967 316.027,337.85 315.851,337.767 C315.593,337.615 315.288,337.539 314.937,337.539 M315.798,344.728 C315.587,344.178 315.124,343.902 314.409,343.902 C313.694,343.902 313.252,344.178 313.082,344.728 C312.912,345.279 312.827,346.117 312.827,347.242 C312.827,348.566 312.912,349.457 313.082,349.914 C313.252,350.371 313.694,350.6 314.409,350.6 C315.124,350.6 315.587,350.324 315.798,349.773 C316.009,349.223 316.114,348.382 316.114,347.251 C316.114,346.12 316.009,345.279 315.798,344.728"/>
<path class="FiguredBass" d="M317.187,363.67 C317.187,363.857 317.292,364.039 317.503,364.215 C317.714,364.391 317.945,364.558 318.197,364.716 C318.449,364.874 318.681,365.173 318.892,365.612 C319.103,366.052 319.208,366.605 319.208,367.273 C319.208,368.562 318.722,369.559 317.749,370.262 C316.777,370.965 315.546,371.316 314.058,371.316 C312.862,371.316 311.822,371.017 310.938,370.42 C310.053,369.822 309.61,369.037 309.61,368.064 C309.61,367.549 309.798,367.1 310.173,366.72 C310.548,366.339 310.996,366.148 311.518,366.148 C312.039,366.148 312.482,366.336 312.845,366.711 C313.208,367.086 313.39,367.537 313.39,368.064 C313.39,368.299 313.196,368.554 312.81,368.829 C312.423,369.104 312.23,369.359 312.23,369.594 C312.23,369.957 312.408,370.224 312.766,370.393 C313.123,370.563 313.554,370.648 314.058,370.648 C314.714,370.648 315.18,370.323 315.455,369.673 C315.731,369.022 315.868,368.223 315.868,367.273 L315.868,366.816 C315.868,366.184 315.848,365.703 315.807,365.375 C315.766,365.047 315.637,364.754 315.42,364.496 C315.203,364.238 314.872,364.109 314.427,364.109 L312.124,364.109 C311.855,364.109 311.72,363.963 311.72,363.67 C311.72,363.4 311.855,363.266 312.124,363.266 L314.427,363.266 C314.907,363.266 315.282,363.084 315.552,362.721 C315.646,362.592 315.722,362.381 315.78,362.088 C315.839,361.701 315.868,361.144 315.868,360.418 L315.868,360.189 C315.868,358.443 315.224,357.57 313.935,357.57 C312.798,357.57 312.23,357.887 312.23,358.519 C312.23,358.73 312.402,358.956 312.748,359.196 C313.094,359.436 313.267,359.662 313.267,359.873 C313.267,360.33 313.106,360.723 312.783,361.051 C312.461,361.379 312.068,361.543 311.606,361.543 C311.143,361.543 310.753,361.379 310.437,361.051 C310.12,360.723 309.962,360.33 309.962,359.873 C309.962,358.971 310.355,358.25 311.14,357.711 C311.925,357.172 312.857,356.902 313.935,356.902 C315.353,356.902 316.519,357.175 317.433,357.72 C318.347,358.265 318.804,359.088 318.804,360.189 C318.804,360.975 318.722,361.584 318.558,362.017 C318.394,362.451 318.206,362.715 317.995,362.809 C317.784,362.902 317.597,363.011 317.433,363.134 C317.269,363.257 317.187,363.435 317.187,363.67"/>
<path class="FiguredBass" d="M419.555,337.539 C418.688,337.539 418.11,337.888 417.823,338.585 C417.536,339.282 417.393,340.269 417.393,341.547 L417.393,343.621 C418.002,343.375 418.529,343.246 418.975,343.234 C420.498,343.234 421.696,343.571 422.569,344.245 C423.442,344.919 423.879,345.921 423.879,347.251 C423.879,348.581 423.437,349.586 422.552,350.266 C421.667,350.945 420.475,351.285 418.975,351.285 C417.439,351.285 416.238,350.573 415.371,349.149 C414.504,347.725 414.07,346.035 414.07,344.078 C414.07,342.133 414.574,340.445 415.582,339.016 C416.59,337.586 417.914,336.871 419.555,336.871 C420.633,336.871 421.564,337.143 422.35,337.688 C423.135,338.233 423.527,338.951 423.527,339.842 C423.527,340.357 423.34,340.803 422.965,341.178 C422.59,341.553 422.142,341.74 421.62,341.74 C421.099,341.74 420.65,341.553 420.275,341.178 C419.9,340.803 419.713,340.357 419.713,339.842 C419.713,339.338 419.9,338.892 420.275,338.506 C420.404,338.353 420.586,338.225 420.82,338.119 C420.762,337.967 420.645,337.85 420.469,337.767 C420.211,337.615 419.906,337.539 419.555,337.539 M420.416,344.728 C420.205,344.178 419.742,343.902 419.027,343.902 C418.313,343.902 417.87,344.178 417.7,344.728 C417.53,345.279 417.445,346.117 417.445,347.242 C417.445,348.566 417.53,349.457 417.7,349.914 C417.87,350.371 418.313,350.6 419.027,350.6 C419.742,350.6 420.205,350.324 420.416,349.773 C420.627,349.223 420.732,348.382 420.732,347.251 C420.732,346.12 420.627,345.279 420.416,344.728"/>
<path class="FiguredBass" d="M421.805,363.67 C421.805,363.857 421.91,364.039 422.121,364.215 C422.332,364.391 422.564,364.558 422.815,364.716 C423.067,364.874 423.299,365.173 423.51,365.612 C423.721,366.052 423.826,366.605 423.826,367.273 C423.826,368.562 423.34,369.559 422.367,370.262 C421.395,370.965 420.164,371.316 418.676,371.316 C417.481,371.316 416.44,371.017 415.556,370.42 C414.671,369.822 414.229,369.037 414.229,368.064 C414.229,367.549 414.416,367.1 414.791,366.72 C415.166,366.339 415.614,366.148 416.136,366.148 C416.657,366.148 417.1,366.336 417.463,366.711 C417.826,367.086 418.008,367.537 418.008,368.064 C418.008,368.299 417.814,368.554 417.428,368.829 C417.041,369.104 416.848,369.359 416.848,369.594 C416.848,369.957 417.026,370.224 417.384,370.393 C417.741,370.563 418.172,370.648 418.676,370.648 C419.332,370.648 419.798,370.323 420.073,369.673 C420.349,369.022 420.486,368.223 420.486,367.273 L420.486,366.816 C420.486,366.184 420.466,365.703 420.425,365.375 C420.384,365.047 420.255,364.754 420.038,364.496 C419.821,364.238 419.49,364.109 419.045,364.109 L416.742,364.109 C416.473,364.109 416.338,363.963 416.338,363.67 C416.338,363.4 416.473,363.266 416.742,363.266 L419.045,363.266 C419.525,363.266 419.9,363.084 420.17,362.721 C420.264,362.592 420.34,362.381 420.398,362.088 C420.457,361.701 420.486,361.144 420.486,360.418 L420.486,360.189 C420.486,358.443 419.842,357.57 418.553,357.57 C417.416,357.57 416.848,357.887 416.848,358.519 C416.848,358.73 417.021,358.956 417.366,359.196 C417.712,359.436 417.885,359.662 417.885,359.873 C417.885,360.33 417.724,360.723 417.401,361.051 C417.079,361.379 416.687,361.543 416.224,361.543 C415.761,361.543 415.371,361.379 415.055,361.051 C414.738,360.723 414.58,360.33 414.58,359.873 C414.58,358.971 414.973,358.25 415.758,357.711 C416.543,357.172 417.475,356.902 418.553,356.902 C419.971,356.902 421.137,357.175 422.051,357.72 C422.965,358.265 423.422,359.088 423.422,360.189 C423.422,360.975 423.34,361.584 423.176,362.017 C423.012,362.451 422.824,362.715 422.613,362.809 C422.402,362.902 422.215,363.011 422.051,363.134 C421.887,363.257 421.805,363.435 421.805,363.67"/>
<path class="FiguredBass" d="M637.838,337.539 C636.97,337.539 636.393,337.888 636.106,338.585 C635.819,339.282 635.676,340.269 635.676,341.547 L635.676,343.621 C636.285,343.375 636.812,343.246 637.258,343.234 C638.781,343.234 639.979,343.571 640.852,344.245 C641.725,344.919 642.162,345.921 642.162,347.251 C642.162,348.581 641.719,349.586 640.835,350.266 C639.95,350.945 638.758,351.285 637.258,351.285 C635.722,351.285 634.521,350.573 633.654,349.149 C632.787,347.725 632.353,346.035 632.353,344.078 C632.353,342.133 632.857,340.445 633.865,339.016 C634.873,337.586 636.197,336.871 637.838,336.871 C638.916,336.871 639.847,337.143 640.633,337.688 C641.418,338.233 641.81,338.951 641.81,339.842 C641.81,340.357 641.623,340.803 641.248,341.178 C640.873,341.553 640.425,341.74 639.903,341.74 C639.382,341.74 638.933,341.553 638.558,341.178 C638.183,340.803 637.996,340.357 637.996,339.842 C637.996,339.338 638.183,338.892 638.558,338.506 C638.687,338.353 638.869,338.225 639.103,338.119 C639.045,337.967 638.927,337.85 638.752,337.767 C638.494,337.615 638.189,337.539 637.838,337.539 M638.699,344.728 C638.488,344.178 638.025,343.902 637.31,343.902 C636.595,343.902 636.153,344.178 635.983,344.728 C635.813,345.279 635.728,346.117 635.728,347.242 C635.728,348.566 635.813,349.457 635.983,349.914 C636.153,350.371 636.595,350.6 637.31,350.6 C638.025,350.6 638.488,350.324 638.699,349.773 C638.91,349.223 639.015,348.382 639.015,347.251 C639.015,346.12 638.91,345.279 638.699,344.728"/>
<path class="FiguredBass" d="M640.088,363.67 C640.088,363.857 640.193,364.039 640.404,364.215 C640.615,364.391 640.846,364.558 641.098,364.716 C641.35,364.874 641.582,365.173 641.793,365.612 C642.004,366.052 642.109,366.605 642.109,367.273 C642.109,368.562 641.623,369.559 640.65,370.262 C639.677,370.965 638.447,371.316 636.959,371.316 C635.763,371.316 634.723,371.017 633.839,370.42 C632.954,369.822 632.511,369.037 632.511,368.064 C632.511,367.549 632.699,367.1 633.074,366.72 C633.449,366.339 633.897,366.148 634.419,366.148 C634.94,366.148 635.383,366.336 635.746,366.711 C636.109,367.086 636.291,367.537 636.291,368.064 C636.291,368.299 636.097,368.554 635.711,368.829 C635.324,369.104 635.131,369.359 635.131,369.594 C635.131,369.957 635.309,370.224 635.667,370.393 C636.024,370.563 636.455,370.648 636.959,370.648 C637.615,370.648 638.081,370.323 638.356,369.673 C638.632,369.022 638.769,368.223 638.769,367.273 L638.769,366.816 C638.769,366.184 638.749,365.703 638.708,365.375 C638.667,365.047 638.538,364.754 638.321,364.496 C638.104,364.238 637.773,364.109 637.328,364.109 L635.025,364.109 C634.756,364.109 634.621,363.963 634.621,363.67 C634.621,363.4 634.756,363.266 635.025,363.266 L637.328,363.266 C637.808,363.266 638.183,363.084 638.453,362.721 C638.547,362.592 638.623,362.381 638.681,362.088 C638.74,361.701 638.769,361.144 638.769,360.418 L638.769,360.189 C638.769,358.443 638.125,357.57 636.836,357.57 C635.699,357.57 635.131,357.887 635.131,358.519 C635.131,358.73 635.303,358.956 635.649,359.196 C635.995,359.436 636.168,359.662 636.168,359.873 C636.168,360.33 636.007,360.723 635.684,361.051 C635.362,361.379 634.969,361.543 634.507,361.543 C634.044,361.543 633.654,361.379 633.338,361.051 C633.021,360.723 632.863,360.33 632.863,359.873 C632.863,358.971 633.256,358.25 634.041,357.711 C634.826,357.172 635.758,356.902 636.836,356.902 C638.254,356.902 639.42,357.175 640.334,357.72 C641.248,358.265 641.705,359.088 641.705,360.189 C641.705,360.975 641.623,361.584 641.459,362.017 C641.295,362.451 641.107,362.715 640.896,362.809 C640.685,362.902 640.498,363.011 640.334,363.134 C640.17,363.257 640.088,363.435 640.088,363.67"/>
<polyline class="FretDiagram" stroke="#fc02ff" stroke-width="0.91" stroke-linejoin="bevel" points="190.581,46.5307 231.173,46.5307"/>
<polyline class="FretDiagram" stroke="#fc02ff" stroke-width="0.91" stroke-linejoin="bevel" points="191.034,44.263 191.034,78.2787"/>
<polyline class="FretDiagram" stroke="#fc02ff" stroke-width="0.91" stroke-linejoin="bevel" points="198.971,44.263 198.971,78.2787"/>
<polyline class="FretDiagram" stroke="#fc02ff" stroke-width="0.91" stroke-linejoin="bevel" points="206.908,44.263 206.908,78.2787"/>
<polyline class="FretDiagram" stroke="#fc02ff" stroke-width="0.91" stroke-linejoin="bevel" points="214.845,44.263 214.845,78.2787"/>
<polyline class="FretDiagram" stroke="#fc02ff" stroke-width="0.91" stroke-linejoin="bevel" points="222.782,44.263 222.782,78.2787"/>
<polyline class="FretDiagram" stroke="#fc02ff" stroke-width="0.91" stroke-linejoin="bevel" points="230.719,44.263 230.719,78.2787"/>
<polyline class="FretDiagram" stroke="#fc02ff" stroke-width="0.91" stroke-linejoin="bevel" points="191.034,55.6016 230.719,55.6016"/>
<polyline class="FretDiagram" stroke="#fc02ff" stroke-width="0.91" stroke-linejoin="bevel" points="191.034,64.6724 230.719,64.6724"/>
<polyline class="FretDiagram" stroke="#fc02ff" stroke-width="0.91" stroke-linejoin="bevel" points="191.034,73.7433 230.719,73.7433"/>
<path class="FretDiagram" fill="#fc02ff" fill-rule="evenodd" d="M201.749,51.0661 C201.749,52.6004 200.506,53.8441 198.971,53.8441 C197.437,53.8441 196.193,52.6004 196.193,51.0661 C196.193,49.5319 197.437,48.2882 198.971,48.2882 C200.506,48.2882 201.749,49.5319 201.749,51.0661"/>
<path class="FretDiagram" fill="#fc02ff" fill-rule="evenodd" d="M225.56,69.2079 C225.56,70.7421 224.317,71.9858 222.782,71.9858 C221.248,71.9858 220.004,70.7421 220.004,69.2079 C220.004,67.6737 221.248,66.4299 222.782,66.4299 C224.317,66.4299 225.56,67.6737 225.56,69.2079"/>
<path class="FretDiagram" fill="#fc02ff" fill-rule="evenodd" d="M233.497,69.2079 C233.497,70.7421 232.254,71.9858 230.719,71.9858 C229.185,71.9858 227.941,70.7421 227.941,69.2079 C227.941,67.6737 229.185,66.4299 230.719,66.4299 C232.254,66.4299 233.497,67.6737 233.497,69.2079"/>
<polyline class="FretDiagram" fill="none" stroke="#fc02ff" stroke-width="1.31" stroke-linecap="round" stroke-linejoin="bevel" points="187.86,34.285 194.209,40.6346"/>
<polyline class="FretDiagram" fill="none" stroke="#fc02ff" stroke-width="1.31" stroke-linecap="round" stroke-linejoin="bevel" points="187.86,40.6346 194.209,34.285"/>
<polyline class="FretDiagram" fill="none" stroke="#fc02ff" stroke-width="1.31" stroke-linecap="round" stroke-linejoin="bevel" points="203.734,34.285 210.083,40.6346"/>
<polyline class="FretDiagram" fill="none" stroke="#fc02ff" stroke-width="1.31" stroke-linecap="round" stroke-linejoin="bevel" points="203.734,40.6346 210.083,34.285"/>
<polyline class="FretDiagram" fill="none" stroke="#fc02ff" stroke-width="1.31" stroke-linecap="round" stroke-linejoin="bevel" points="211.671,34.285 218.02,40.6346"/>
<polyline class="FretDiagram" fill="none" stroke="#fc02ff" stroke-width="1.31" stroke-linecap="round" stroke-linejoin="bevel" points="211.671,40.6346 218.02,34.285"/>
<path class="FretDiagram" fill="#fc02ff" d="M182.723,45.9985 C181.811,45.9985 181.184,46.2475 180.842,46.7455 C180.5,47.2435 180.317,47.9065 180.293,48.7345 L178.709,48.7345 C178.769,45.9865 180.101,44.6125 182.705,44.6125 C183.917,44.6125 184.868,44.9245 185.558,45.5485 C186.248,46.1725 186.593,47.0305 186.593,48.1225 C186.593,49.4185 185.999,50.3005 184.811,50.7685 C185.579,51.0325 186.131,51.4015 186.467,51.8755 C186.803,52.3495 186.971,52.9945 186.971,53.8105 C186.971,55.0225 186.578,55.9885 185.792,56.7085 C185.006,57.4285 183.959,57.7885 182.651,57.7885 C180.035,57.7885 178.631,56.4145 178.439,53.6665 L180.023,53.6665 C180.083,54.5905 180.329,55.2745 180.761,55.7185 C181.193,56.1625 181.841,56.3845 182.705,56.3845 C183.533,56.3845 184.181,56.1595 184.649,55.7095 C185.117,55.2595 185.351,54.6325 185.351,53.8285 C185.351,52.2805 184.469,51.5065 182.705,51.5065 L182.039,51.5245 L181.841,51.5245 L181.841,50.1745 C182.981,50.1505 183.788,50.0065 184.262,49.7425 C184.736,49.4785 184.973,48.9565 184.973,48.1765 C184.973,47.5045 184.772,46.9735 184.37,46.5835 C183.968,46.1935 183.419,45.9985 182.723,45.9985"/>
<polyline class="FretDiagram" fill="#fc02ff" stroke="#fc02ff" stroke-width="0.91" stroke-linejoin="bevel" points="295.199,46.4176 335.791,46.4176"/>
<polyline class="FretDiagram" fill="#fc02ff" stroke="#fc02ff" stroke-width="0.91" stroke-linejoin="bevel" points="295.652,44.1499 295.652,87.2365"/>
<polyline class="FretDiagram" fill="#fc02ff" stroke="#fc02ff" stroke-width="0.91" stroke-linejoin="bevel" points="303.589,44.1499 303.589,87.2365"/>
<polyline class="FretDiagram" fill="#fc02ff" stroke="#fc02ff" stroke-width="0.91" stroke-linejoin="bevel" points="311.526,44.1499 311.526,87.2365"/>
<polyline class="FretDiagram" fill="#fc02ff" stroke="#fc02ff" stroke-width="0.91" stroke-linejoin="bevel" points="319.463,44.1499 319.463,87.2365"/>
<polyline class="FretDiagram" fill="#fc02ff" stroke="#fc02ff" stroke-width="0.91" stroke-linejoin="bevel" points="327.4,44.1499 327.4,87.2365"/>
<polyline class="FretDiagram" fill="#fc02ff" stroke="#fc02ff" stroke-width="0.91" stroke-linejoin="bevel" points="335.337,44.1499 335.337,87.2365"/>
<polyline class="FretDiagram" fill="#fc02ff" stroke="#fc02ff" stroke-width="0.91" stroke-linejoin="bevel" points="295.652,55.4884 335.337,55.4884"/>
<polyline class="FretDiagram" fill="#fc02ff" stroke="#fc02ff" stroke-width="0.91" stroke-linejoin="bevel" points="295.652,64.5593 335.337,64.5593"/>
<polyline class="FretDiagram" fill="#fc02ff" stroke="#fc02ff" stroke-width="0.91" stroke-linejoin="bevel" points="295.652,73.6302 335.337,73.6302"/>
<polyline class="FretDiagram" fill="#fc02ff" stroke="#fc02ff" stroke-width="0.91" stroke-linejoin="bevel" points="295.652,82.701 335.337,82.701"/>
<path class="FretDiagram" fill="#fc02ff" fill-rule="evenodd" d="M330.178,69.0947 C330.178,70.629 328.935,71.8727 327.4,71.8727 C325.866,71.8727 324.623,70.629 324.623,69.0947 C324.623,67.5605 325.866,66.3168 327.4,66.3168 C328.935,66.3168 330.178,67.5605 330.178,69.0947"/>
<polyline class="FretDiagram" fill="none" stroke="#fc02ff" stroke-width="1.31" stroke-linecap="round" stroke-linejoin="bevel" points="292.478,34.1719 298.827,40.5215"/>
<polyline class="FretDiagram" fill="none" stroke="#fc02ff" stroke-width="1.31" stroke-linecap="round" stroke-linejoin="bevel" points="292.478,40.5215 298.827,34.1719"/>
<path class="FretDiagram" fill="none" stroke="#fc02ff" stroke-width="1.31" stroke-linecap="round" stroke-linejoin="bevel" fill-rule="evenodd" d="M306.764,37.3467 C306.764,39.1001 305.343,40.5215 303.589,40.5215 C301.836,40.5215 300.415,39.1001 300.415,37.3467 C300.415,35.5933 301.836,34.1719 303.589,34.1719 C305.343,34.1719 306.764,35.5933 306.764,37.3467"/>
<polyline class="FretDiagram" fill="none" stroke="#fc02ff" stroke-width="1.31" stroke-linecap="round" stroke-linejoin="bevel" points="308.352,34.1719 314.701,40.5215"/>
<polyline class="FretDiagram" fill="none" stroke="#fc02ff" stroke-width="1.31" stroke-linecap="round" stroke-linejoin="bevel" points="308.352,40.5215 314.701,34.1719"/>
<path class="FretDiagram" fill="none" stroke="#fc02ff" stroke-width="1.31" stroke-linecap="round" stroke-linejoin="bevel" fill-rule="evenodd" d="M322.638,37.3467 C322.638,39.1001 321.217,40.5215 319.463,40.5215 C317.71,40.5215 316.289,39.1001 316.289,37.3467 C316.289,35.5933 317.71,34.1719 319.463,34.1719 C321.217,34.1719 322.638,35.5933 322.638,37.3467"/>
<polyline class="FretDiagram" fill="none" stroke="#fc02ff" stroke-width="1.31" stroke-linecap="round" stroke-linejoin="bevel" points="332.163,34.1719 338.512,40.5215"/>
<polyline class="FretDiagram" fill="none" stroke="#fc02ff" stroke-width="1.31" stroke-linecap="round" stroke-linejoin="bevel" points="332.163,40.5215 338.512,34.1719"/>
<polyline class="FretDiagram" fill="none" stroke="#fc02ff" stroke-width="5.56" stroke-linecap="round" stroke-linejoin="bevel" points="303.589,50.953 335.337,50.953"/>
<path class="FretDiagram" fill="#fc02ff" d="M287.341,45.8853 C286.429,45.8853 285.802,46.1343 285.46,46.6323 C285.118,47.1303 284.935,47.7933 284.911,48.6213 L283.327,48.6213 C283.387,45.8733 284.719,44.4993 287.323,44.4993 C288.535,44.4993 289.486,44.8113 290.176,45.4353 C290.866,46.0593 291.211,46.9173 291.211,48.0093 C291.211,49.3053 290.617,50.1873 289.429,50.6553 C290.197,50.9193 290.749,51.2883 291.085,51.7623 C291.421,52.2363 291.589,52.8813 291.589,53.6973 C291.589,54.9093 291.196,55.8753 290.41,56.5953 C289.624,57.3153 288.577,57.6753 287.269,57.6753 C284.653,57.6753 283.249,56.3013 283.057,53.5533 L284.641,53.5533 C284.701,54.4773 284.947,55.1613 285.379,55.6053 C285.811,56.0493 286.459,56.2713 287.323,56.2713 C288.151,56.2713 288.799,56.0463 289.267,55.5963 C289.735,55.1463 289.969,54.5193 289.969,53.7153 C289.969,52.1673 289.087,51.3933 287.323,51.3933 L286.657,51.4113 L286.459,51.4113 L286.459,50.0613 C287.599,50.0373 288.406,49.8933 288.88,49.6293 C289.354,49.3653 289.591,48.8433 289.591,48.0633 C289.591,47.3913 289.39,46.8603 288.988,46.4703 C288.586,46.0803 288.037,45.8853 287.341,45.8853"/>
<polyline class="FretDiagram" fill="#fc02ff" stroke="#fc02ff" stroke-width="0.91" stroke-linejoin="bevel" points="399.817,46.3045 440.409,46.3045"/>
<polyline class="FretDiagram" fill="#fc02ff" stroke="#fc02ff" stroke-width="0.91" stroke-linejoin="bevel" points="400.271,44.0367 400.271,87.1233"/>
<polyline class="FretDiagram" fill="#fc02ff" stroke="#fc02ff" stroke-width="0.91" stroke-linejoin="bevel" points="408.208,44.0367 408.208,87.1233"/>
<polyline class="FretDiagram" fill="#fc02ff" stroke="#fc02ff" stroke-width="0.91" stroke-linejoin="bevel" points="416.145,44.0367 416.145,87.1233"/>
<polyline class="FretDiagram" fill="#fc02ff" stroke="#fc02ff" stroke-width="0.91" stroke-linejoin="bevel" points="424.082,44.0367 424.082,87.1233"/>
<polyline class="FretDiagram" fill="#fc02ff" stroke="#fc02ff" stroke-width="0.91" stroke-linejoin="bevel" points="432.019,44.0367 432.019,87.1233"/>
<polyline class="FretDiagram" fill="#fc02ff" stroke="#fc02ff" stroke-width="0.91" stroke-linejoin="bevel" points="439.956,44.0367 439.956,87.1233"/>
<polyline class="FretDiagram" fill="#fc02ff" stroke="#fc02ff" stroke-width="0.91" stroke-linejoin="bevel" points="400.271,55.3753 439.956,55.3753"/>
<polyline class="FretDiagram" fill="#fc02ff" stroke="#fc02ff" stroke-width="0.91" stroke-linejoin="bevel" points="400.271,64.4462 439.956,64.4462"/>
<polyline class="FretDiagram" fill="#fc02ff" stroke="#fc02ff" stroke-width="0.91" stroke-linejoin="bevel" points="400.271,73.5171 439.956,73.5171"/>
<polyline class="FretDiagram" fill="#fc02ff" stroke="#fc02ff" stroke-width="0.91" stroke-linejoin="bevel" points="400.271,82.5879 439.956,82.5879"/>
<path class="FretDiagram" fill="#fc02ff" fill-rule="evenodd" d="M410.985,59.9108 C410.985,61.445 409.742,62.6887 408.208,62.6887 C406.673,62.6887 405.43,61.445 405.43,59.9108 C405.43,58.3765 406.673,57.1328 408.208,57.1328 C409.742,57.1328 410.985,58.3765 410.985,59.9108"/>
<path class="FretDiagram" fill="#fc02ff" fill-rule="evenodd" d="M418.922,50.8399 C418.922,52.3741 417.679,53.6178 416.145,53.6178 C414.61,53.6178 413.367,52.3741 413.367,50.8399 C413.367,49.3057 414.61,48.0619 416.145,48.0619 C417.679,48.0619 418.922,49.3057 418.922,50.8399"/>
<path class="FretDiagram" fill="#fc02ff" fill-rule="evenodd" d="M426.859,59.9108 C426.859,61.445 425.616,62.6887 424.082,62.6887 C422.547,62.6887 421.304,61.445 421.304,59.9108 C421.304,58.3765 422.547,57.1328 424.082,57.1328 C425.616,57.1328 426.859,58.3765 426.859,59.9108"/>
<polyline class="FretDiagram" fill="none" stroke="#fc02ff" stroke-width="1.31" stroke-linecap="round" stroke-linejoin="bevel" points="397.096,34.0588 403.445,40.4084"/>
<polyline class="FretDiagram" fill="none" stroke="#fc02ff" stroke-width="1.31" stroke-linecap="round" stroke-linejoin="bevel" points="397.096,40.4084 403.445,34.0588"/>
<polyline class="FretDiagram" fill="none" stroke="#fc02ff" stroke-width="1.31" stroke-linecap="round" stroke-linejoin="bevel" points="428.844,34.0588 435.193,40.4084"/>
<polyline class="FretDiagram" fill="none" stroke="#fc02ff" stroke-width="1.31" stroke-linecap="round" stroke-linejoin="bevel" points="428.844,40.4084 435.193,34.0588"/>
<polyline class="FretDiagram" fill="none" stroke="#fc02ff" stroke-width="1.31" stroke-linecap="round" stroke-linejoin="bevel" points="436.781,34.0588 443.13,40.4084"/>
<polyline class="FretDiagram" fill="none" stroke="#fc02ff" stroke-width="1.31" stroke-linecap="round" stroke-linejoin="bevel" points="436.781,40.4084 443.13,34.0588"/>
<path class="FretDiagram" fill="#fc02ff" d="M387.999,48.8142 C388.083,45.8622 389.487,44.3862 392.211,44.3862 C393.423,44.3862 394.407,44.7342 395.163,45.4302 C395.919,46.1262 396.297,47.0262 396.297,48.1302 C396.297,49.7142 395.397,50.9982 393.597,51.9822 L391.797,52.9542 C391.017,53.3742 390.459,53.7822 390.123,54.1782 C389.787,54.5742 389.577,55.0422 389.493,55.5822 L396.207,55.5822 L396.207,57.1482 L387.711,57.1482 C387.783,55.7442 388.065,54.6612 388.557,53.8992 C389.049,53.1372 389.961,52.3782 391.293,51.6222 L392.949,50.6862 C394.101,50.0262 394.677,49.1862 394.677,48.1662 C394.677,47.4822 394.437,46.9122 393.957,46.4562 C393.477,46.0002 392.877,45.7722 392.157,45.7722 C390.561,45.7722 389.703,46.7862 389.583,48.8142 L387.999,48.8142 "/>
<path class="Bracket" transform="matrix(1.64409,0,0,1.64409,14.5089,430.866)" d="M0.92002,-50 C2.69004,-51.88 6.2,-55.8 6.2,-63 C6.2,-72.1 2.25996,-81.32 2.25996,-86.97 C2.25996,-93.06 5.84004,-98.84 5.95,-99 C6.05996,-99.16 6.05,-99.39 5.94004,-99.46 C5.82998,-99.53 5.62002,-99.47 5.49004,-99.32 C5.35996,-99.17 0,-93.75 0,-85.6 C0,-76.75 3.5,-70.58 3.5,-59.07 C3.5,-56.89 2.55996,-53.36 0.1,-50.33 C-0.0799805,-50.17 -0.1,-49.89 0.0599609,-49.7 L0.0700195,-49.69 L0.1,-49.66 C2.55996,-46.63 3.5,-43.1 3.5,-40.92 C3.5,-29.4 0,-23.24 0,-14.39 C0,-6.25 5.35996,-0.8 5.49004,-0.659961 C5.62002,-0.52002 5.8,-0.42998 5.94004,-0.52002 C6.07998,-0.609961 6.07998,-0.77998 5.95,-0.97998 C5.82002,-1.17998 2.25996,-6.92002 2.25996,-13.01 C2.25996,-18.66 6.2,-27.9 6.2,-37 C6.2,-44.3 2.69004,-48.12 0.92002,-50"/>
</svg>
