<?xml version="1.0" encoding="UTF-8" standalone="no"?>
<svg width="4209.44px" height="2976.38px" viewBox="0 0 4209.44 2976.38"
 xmlns="http://www.w3.org/2000/svg" xmlns:xlink="http://www.w3.org/1999/xlink" version="1.2" baseProfile="tiny">
<title>Accords (2)</title>
<desc>Generated by MuseScore 3.6.2</desc>
<polyline class="StaffLines" fill="none" stroke="#000000" stroke-width="6.55" stroke-linejoin="bevel" points="153.819,600.095 4138.58,600.095"/>
<polyline class="StaffLines" fill="none" stroke="#000000" stroke-width="6.55" stroke-linejoin="bevel" points="153.819,689.386 4138.58,689.386"/>
<polyline class="StaffLines" fill="none" stroke="#000000" stroke-width="6.55" stroke-linejoin="bevel" points="153.819,778.677 4138.58,778.677"/>
<polyline class="StaffLines" fill="none" stroke="#000000" stroke-width="6.55" stroke-linejoin="bevel" points="153.819,867.969 4138.58,867.969"/>
<polyline class="StaffLines" fill="none" stroke="#000000" stroke-width="6.55" stroke-linejoin="bevel" points="153.819,957.26 4138.58,957.26"/>
<polyline class="StaffLines" fill="none" stroke="#000000" stroke-width="6.55" stroke-linejoin="bevel" points="153.819,1046.55 4138.58,1046.55"/>
<polyline class="StaffLines" fill="none" stroke="#000000" stroke-width="6.55" stroke-linejoin="bevel" points="153.819,1433.48 4138.58,1433.48"/>
<polyline class="StaffLines" fill="none" stroke="#000000" stroke-width="6.55" stroke-linejoin="bevel" points="153.819,1493.01 4138.58,1493.01"/>
<polyline class="StaffLines" fill="none" stroke="#000000" stroke-width="6.55" stroke-linejoin="bevel" points="153.819,1552.54 4138.58,1552.54"/>
<polyline class="StaffLines" fill="none" stroke="#000000" stroke-width="6.55" stroke-linejoin="bevel" points="153.819,1612.06 4138.58,1612.06"/>
<polyline class="StaffLines" fill="none" stroke="#000000" stroke-width="6.55" stroke-linejoin="bevel" points="153.819,1671.59 4138.58,1671.59"/>
<polyline class="StaffLines" fill="none" stroke="#000000" stroke-width="6.55" stroke-linejoin="bevel" points="153.819,2123.81 4138.58,2123.81"/>
<polyline class="StaffLines" fill="none" stroke="#000000" stroke-width="6.55" stroke-linejoin="bevel" points="153.819,2183.33 4138.58,2183.33"/>
<polyline class="StaffLines" fill="none" stroke="#000000" stroke-width="6.55" stroke-linejoin="bevel" points="153.819,2242.86 4138.58,2242.86"/>
<polyline class="StaffLines" fill="none" stroke="#000000" stroke-width="6.55" stroke-linejoin="bevel" points="153.819,2302.39 4138.58,2302.39"/>
<polyline class="StaffLines" fill="none" stroke="#000000" stroke-width="6.55" stroke-linejoin="bevel" points="153.819,2361.92 4138.58,2361.92"/>
<polyline class="BarLine" fill="none" stroke="#000000" stroke-width="10.71" stroke-linejoin="bevel" points="159.176,2120.53 159.176,2365.19"/>
<polyline class="BarLine" fill="none" stroke="#000000" stroke-width="10.71" stroke-linejoin="bevel" points="1391.45,2120.53 1391.45,2365.19"/>
<polyline class="BarLine" fill="none" stroke="#000000" stroke-width="10.71" stroke-linejoin="bevel" points="2283.1,2120.53 2283.1,2365.19"/>
<polyline class="BarLine" fill="none" stroke="#000000" stroke-width="10.71" stroke-linejoin="bevel" points="3218.34,2120.53 3218.34,2365.19"/>
<polyline class="BarLine" fill="none" stroke="#000000" stroke-width="10.71" stroke-linejoin="bevel" points="4100.48,2120.53 4100.48,2365.19"/>
<polyline class="BarLine" fill="none" stroke="#000000" stroke-width="10.71" stroke-linejoin="bevel" points="4133.22,2120.53 4133.22,2365.19"/>
<polyline class="BarLine" fill="none" stroke="#000000" stroke-width="10.71" stroke-linejoin="bevel" points="159.176,1430.21 159.176,2123.81"/>
<polyline class="BarLine" fill="none" stroke="#000000" stroke-width="10.71" stroke-linejoin="bevel" points="1391.45,1430.21 1391.45,1674.86"/>
<polyline class="BarLine" fill="none" stroke="#000000" stroke-width="10.71" stroke-linejoin="bevel" points="2283.1,1430.21 2283.1,1674.86"/>
<polyline class="BarLine" fill="none" stroke="#000000" stroke-width="10.71" stroke-linejoin="bevel" points="3218.34,1430.21 3218.34,1674.86"/>
<polyline class="BarLine" fill="none" stroke="#000000" stroke-width="10.71" stroke-linejoin="bevel" points="4100.48,1430.21 4100.48,1674.86"/>
<polyline class="BarLine" fill="none" stroke="#000000" stroke-width="10.71" stroke-linejoin="bevel" points="4133.22,1430.21 4133.22,1674.86"/>
<polyline class="BarLine" fill="none" stroke="#000000" stroke-width="10.71" stroke-linejoin="bevel" points="159.176,596.821 159.176,1433.48"/>
<polyline class="BarLine" fill="none" stroke="#000000" stroke-width="10.71" stroke-linejoin="bevel" points="1391.45,596.821 1391.45,1049.83"/>
<polyline class="BarLine" fill="none" stroke="#000000" stroke-width="10.71" stroke-linejoin="bevel" points="2283.1,596.821 2283.1,1049.83"/>
<polyline class="BarLine" fill="none" stroke="#000000" stroke-width="10.71" stroke-linejoin="bevel" points="3218.34,596.821 3218.34,1049.83"/>
<polyline class="BarLine" fill="none" stroke="#000000" stroke-width="10.71" stroke-linejoin="bevel" points="4100.48,596.821 4100.48,1049.83"/>
<polyline class="BarLine" fill="none" stroke="#000000" stroke-width="10.71" stroke-linejoin="bevel" points="4133.22,596.821 4133.22,1049.83"/>
<path class="Accidental" transform="matrix(2.3811,0,0,2.3811,519.076,2064.28)" d="M23.3,-10.6 C23.9,-10.7 24.4,-11.4 24.4,-12 L24.4,-17.9 C24.4,-18.7 23.8,-19.3 23,-19.3 L22.8,-19.3 L19.5,-18.6 L19.5,-33.5 L16.7,-33.5 L16.7,-18 L7.8,-16.2 L7.8,-30.3 L5,-30.3 L5,-15.6 L1.1,-14.8 C0.5,-14.7 0,-14 0,-13.4 L0,-13.2 L0,-7.4 L0,-7.6 C0,-6.8 0.6,-6.2 1.4,-6.2 L1.7,-6.2 L5,-6.9 L5,9.6 L1.1,10.4 C0.5,10.5 0,11.2 0,11.8 L0,17.6 C0,18.4 0.6,19 1.4,19 L1.7,19 L5,18.3 L5,33.2 L7.8,33.2 L7.8,17.7 L16.7,15.9 L16.7,30 L19.5,30 L19.5,15.3 L23.3,14.6 C23.9,14.5 24.4,13.8 24.4,13.2 L24.4,7.3 C24.4,6.5 23.8,5.9 23,5.9 L22.8,5.9 L19.5,6.6 L19.5,-9.9 L23.3,-10.6 M7.8,9.1 L7.8,-7.5 L16.7,-9.3 L16.7,7.2 L7.8,9.1 "/>
<path class="Accidental" transform="matrix(2.3811,0,0,2.3811,2345.97,2064.28)" d="M23.3,-10.6 C23.9,-10.7 24.4,-11.4 24.4,-12 L24.4,-17.9 C24.4,-18.7 23.8,-19.3 23,-19.3 L22.8,-19.3 L19.5,-18.6 L19.5,-33.5 L16.7,-33.5 L16.7,-18 L7.8,-16.2 L7.8,-30.3 L5,-30.3 L5,-15.6 L1.1,-14.8 C0.5,-14.7 0,-14 0,-13.4 L0,-13.2 L0,-7.4 L0,-7.6 C0,-6.8 0.6,-6.2 1.4,-6.2 L1.7,-6.2 L5,-6.9 L5,9.6 L1.1,10.4 C0.5,10.5 0,11.2 0,11.8 L0,17.6 C0,18.4 0.6,19 1.4,19 L1.7,19 L5,18.3 L5,33.2 L7.8,33.2 L7.8,17.7 L16.7,15.9 L16.7,30 L19.5,30 L19.5,15.3 L23.3,14.6 C23.9,14.5 24.4,13.8 24.4,13.2 L24.4,7.3 C24.4,6.5 23.8,5.9 23,5.9 L22.8,5.9 L19.5,6.6 L19.5,-9.9 L23.3,-10.6 M7.8,9.1 L7.8,-7.5 L16.7,-9.3 L16.7,7.2 L7.8,9.1 "/>
<polyline class="LedgerLine" fill="none" stroke="#000000" stroke-width="9.52" stroke-linejoin="bevel" points="592.053,2064.28 722.53,2064.28"/>
<polyline class="LedgerLine" fill="none" stroke="#000000" stroke-width="9.52" stroke-linejoin="bevel" points="1474.19,2064.28 1604.67,2064.28"/>
<polyline class="LedgerLine" fill="none" stroke="#000000" stroke-width="9.52" stroke-linejoin="bevel" points="2418.95,2064.28 2549.42,2064.28"/>
<polyline class="LedgerLine" fill="none" stroke="#000000" stroke-width="9.52" stroke-linejoin="bevel" points="3301.08,2064.28 3431.56,2064.28"/>
<path class="Note" transform="matrix(2.3811,0,0,2.3811,612.888,2064.28)" d="M18.7,-13.6 C4.9,-13.6 0,-6.6 0,-0.1 C0,6.4 4.9,13.4 18.7,13.4 C32.5,13.4 37.3,6.4 37.3,-0.1 C37.3,-6.6 32.5,-13.6 18.7,-13.6 M10.4,-4.5 C10.3,-4.9 10.3,-5.3 10.3,-5.7 C10.3,-6.5 10.5,-7.3 10.9,-8 C11.6,-9 12.8,-9.7 14.3,-10 C15.6,-10.3 16.3,-10.5 18.9,-10.5 L19,-10.5 C23,-10.5 24.3,-6.8 25.4,-3 L25.7,-2 C26.5,0.6 26.9,2.8 26.9,4.5 C26.9,5.7 26.7,6.8 26.3,7.6 C25.7,8.7 24.7,9.4 23,9.8 C22.1,10 20.6,10.1 20.6,10.1 C20.1,10.1 19.7,10.2 19.3,10.2 C16.1,10.2 14.1,9 12.7,4.7 C11.5,1 11.3,-0.1 10.4,-4.5"/>
<path class="Note" transform="matrix(2.3811,0,0,2.3811,1495.03,2064.28)" d="M18.7,-13.6 C4.9,-13.6 0,-6.6 0,-0.1 C0,6.4 4.9,13.4 18.7,13.4 C32.5,13.4 37.3,6.4 37.3,-0.1 C37.3,-6.6 32.5,-13.6 18.7,-13.6 M10.4,-4.5 C10.3,-4.9 10.3,-5.3 10.3,-5.7 C10.3,-6.5 10.5,-7.3 10.9,-8 C11.6,-9 12.8,-9.7 14.3,-10 C15.6,-10.3 16.3,-10.5 18.9,-10.5 L19,-10.5 C23,-10.5 24.3,-6.8 25.4,-3 L25.7,-2 C26.5,0.6 26.9,2.8 26.9,4.5 C26.9,5.7 26.7,6.8 26.3,7.6 C25.7,8.7 24.7,9.4 23,9.8 C22.1,10 20.6,10.1 20.6,10.1 C20.1,10.1 19.7,10.2 19.3,10.2 C16.1,10.2 14.1,9 12.7,4.7 C11.5,1 11.3,-0.1 10.4,-4.5"/>
<path class="Note" transform="matrix(2.3811,0,0,2.3811,2439.78,2064.28)" d="M18.7,-13.6 C4.9,-13.6 0,-6.6 0,-0.1 C0,6.4 4.9,13.4 18.7,13.4 C32.5,13.4 37.3,6.4 37.3,-0.1 C37.3,-6.6 32.5,-13.6 18.7,-13.6 M10.4,-4.5 C10.3,-4.9 10.3,-5.3 10.3,-5.7 C10.3,-6.5 10.5,-7.3 10.9,-8 C11.6,-9 12.8,-9.7 14.3,-10 C15.6,-10.3 16.3,-10.5 18.9,-10.5 L19,-10.5 C23,-10.5 24.3,-6.8 25.4,-3 L25.7,-2 C26.5,0.6 26.9,2.8 26.9,4.5 C26.9,5.7 26.7,6.8 26.3,7.6 C25.7,8.7 24.7,9.4 23,9.8 C22.1,10 20.6,10.1 20.6,10.1 C20.1,10.1 19.7,10.2 19.3,10.2 C16.1,10.2 14.1,9 12.7,4.7 C11.5,1 11.3,-0.1 10.4,-4.5"/>
<path class="Note" transform="matrix(2.3811,0,0,2.3811,3321.92,2064.28)" d="M18.7,-13.6 C4.9,-13.6 0,-6.6 0,-0.1 C0,6.4 4.9,13.4 18.7,13.4 C32.5,13.4 37.3,6.4 37.3,-0.1 C37.3,-6.6 32.5,-13.6 18.7,-13.6 M10.4,-4.5 C10.3,-4.9 10.3,-5.3 10.3,-5.7 C10.3,-6.5 10.5,-7.3 10.9,-8 C11.6,-9 12.8,-9.7 14.3,-10 C15.6,-10.3 16.3,-10.5 18.9,-10.5 L19,-10.5 C23,-10.5 24.3,-6.8 25.4,-3 L25.7,-2 C26.5,0.6 26.9,2.8 26.9,4.5 C26.9,5.7 26.7,6.8 26.3,7.6 C25.7,8.7 24.7,9.4 23,9.8 C22.1,10 20.6,10.1 20.6,10.1 C20.1,10.1 19.7,10.2 19.3,10.2 C16.1,10.2 14.1,9 12.7,4.7 C11.5,1 11.3,-0.1 10.4,-4.5"/>
<path class="Note" transform="matrix(2.3811,0,0,2.3811,612.888,1582.3)" d="M18.7,-13.6 C4.9,-13.6 0,-6.6 0,-0.1 C0,6.4 4.9,13.4 18.7,13.4 C32.5,13.4 37.3,6.4 37.3,-0.1 C37.3,-6.6 32.5,-13.6 18.7,-13.6 M10.4,-4.5 C10.3,-4.9 10.3,-5.3 10.3,-5.7 C10.3,-6.5 10.5,-7.3 10.9,-8 C11.6,-9 12.8,-9.7 14.3,-10 C15.6,-10.3 16.3,-10.5 18.9,-10.5 L19,-10.5 C23,-10.5 24.3,-6.8 25.4,-3 L25.7,-2 C26.5,0.6 26.9,2.8 26.9,4.5 C26.9,5.7 26.7,6.8 26.3,7.6 C25.7,8.7 24.7,9.4 23,9.8 C22.1,10 20.6,10.1 20.6,10.1 C20.1,10.1 19.7,10.2 19.3,10.2 C16.1,10.2 14.1,9 12.7,4.7 C11.5,1 11.3,-0.1 10.4,-4.5"/>
<path class="Note" transform="matrix(2.3811,0,0,2.3811,612.888,1463.24)" d="M18.7,-13.6 C4.9,-13.6 0,-6.6 0,-0.1 C0,6.4 4.9,13.4 18.7,13.4 C32.5,13.4 37.3,6.4 37.3,-0.1 C37.3,-6.6 32.5,-13.6 18.7,-13.6 M10.4,-4.5 C10.3,-4.9 10.3,-5.3 10.3,-5.7 C10.3,-6.5 10.5,-7.3 10.9,-8 C11.6,-9 12.8,-9.7 14.3,-10 C15.6,-10.3 16.3,-10.5 18.9,-10.5 L19,-10.5 C23,-10.5 24.3,-6.8 25.4,-3 L25.7,-2 C26.5,0.6 26.9,2.8 26.9,4.5 C26.9,5.7 26.7,6.8 26.3,7.6 C25.7,8.7 24.7,9.4 23,9.8 C22.1,10 20.6,10.1 20.6,10.1 C20.1,10.1 19.7,10.2 19.3,10.2 C16.1,10.2 14.1,9 12.7,4.7 C11.5,1 11.3,-0.1 10.4,-4.5"/>
<path class="Note" transform="matrix(2.3811,0,0,2.3811,1495.03,1582.3)" d="M18.7,-13.6 C4.9,-13.6 0,-6.6 0,-0.1 C0,6.4 4.9,13.4 18.7,13.4 C32.5,13.4 37.3,6.4 37.3,-0.1 C37.3,-6.6 32.5,-13.6 18.7,-13.6 M10.4,-4.5 C10.3,-4.9 10.3,-5.3 10.3,-5.7 C10.3,-6.5 10.5,-7.3 10.9,-8 C11.6,-9 12.8,-9.7 14.3,-10 C15.6,-10.3 16.3,-10.5 18.9,-10.5 L19,-10.5 C23,-10.5 24.3,-6.8 25.4,-3 L25.7,-2 C26.5,0.6 26.9,2.8 26.9,4.5 C26.9,5.7 26.7,6.8 26.3,7.6 C25.7,8.7 24.7,9.4 23,9.8 C22.1,10 20.6,10.1 20.6,10.1 C20.1,10.1 19.7,10.2 19.3,10.2 C16.1,10.2 14.1,9 12.7,4.7 C11.5,1 11.3,-0.1 10.4,-4.5"/>
<path class="Note" transform="matrix(2.3811,0,0,2.3811,1495.03,1463.24)" d="M18.7,-13.6 C4.9,-13.6 0,-6.6 0,-0.1 C0,6.4 4.9,13.4 18.7,13.4 C32.5,13.4 37.3,6.4 37.3,-0.1 C37.3,-6.6 32.5,-13.6 18.7,-13.6 M10.4,-4.5 C10.3,-4.9 10.3,-5.3 10.3,-5.7 C10.3,-6.5 10.5,-7.3 10.9,-8 C11.6,-9 12.8,-9.7 14.3,-10 C15.6,-10.3 16.3,-10.5 18.9,-10.5 L19,-10.5 C23,-10.5 24.3,-6.8 25.4,-3 L25.7,-2 C26.5,0.6 26.9,2.8 26.9,4.5 C26.9,5.7 26.7,6.8 26.3,7.6 C25.7,8.7 24.7,9.4 23,9.8 C22.1,10 20.6,10.1 20.6,10.1 C20.1,10.1 19.7,10.2 19.3,10.2 C16.1,10.2 14.1,9 12.7,4.7 C11.5,1 11.3,-0.1 10.4,-4.5"/>
<path class="Note" transform="matrix(2.3811,0,0,2.3811,2439.78,1582.3)" d="M18.7,-13.6 C4.9,-13.6 0,-6.6 0,-0.1 C0,6.4 4.9,13.4 18.7,13.4 C32.5,13.4 37.3,6.4 37.3,-0.1 C37.3,-6.6 32.5,-13.6 18.7,-13.6 M10.4,-4.5 C10.3,-4.9 10.3,-5.3 10.3,-5.7 C10.3,-6.5 10.5,-7.3 10.9,-8 C11.6,-9 12.8,-9.7 14.3,-10 C15.6,-10.3 16.3,-10.5 18.9,-10.5 L19,-10.5 C23,-10.5 24.3,-6.8 25.4,-3 L25.7,-2 C26.5,0.6 26.9,2.8 26.9,4.5 C26.9,5.7 26.7,6.8 26.3,7.6 C25.7,8.7 24.7,9.4 23,9.8 C22.1,10 20.6,10.1 20.6,10.1 C20.1,10.1 19.7,10.2 19.3,10.2 C16.1,10.2 14.1,9 12.7,4.7 C11.5,1 11.3,-0.1 10.4,-4.5"/>
<path class="Note" transform="matrix(2.3811,0,0,2.3811,2439.78,1463.24)" d="M18.7,-13.6 C4.9,-13.6 0,-6.6 0,-0.1 C0,6.4 4.9,13.4 18.7,13.4 C32.5,13.4 37.3,6.4 37.3,-0.1 C37.3,-6.6 32.5,-13.6 18.7,-13.6 M10.4,-4.5 C10.3,-4.9 10.3,-5.3 10.3,-5.7 C10.3,-6.5 10.5,-7.3 10.9,-8 C11.6,-9 12.8,-9.7 14.3,-10 C15.6,-10.3 16.3,-10.5 18.9,-10.5 L19,-10.5 C23,-10.5 24.3,-6.8 25.4,-3 L25.7,-2 C26.5,0.6 26.9,2.8 26.9,4.5 C26.9,5.7 26.7,6.8 26.3,7.6 C25.7,8.7 24.7,9.4 23,9.8 C22.1,10 20.6,10.1 20.6,10.1 C20.1,10.1 19.7,10.2 19.3,10.2 C16.1,10.2 14.1,9 12.7,4.7 C11.5,1 11.3,-0.1 10.4,-4.5"/>
<path class="Note" transform="matrix(2.3811,0,0,2.3811,3321.92,1582.3)" d="M18.7,-13.6 C4.9,-13.6 0,-6.6 0,-0.1 C0,6.4 4.9,13.4 18.7,13.4 C32.5,13.4 37.3,6.4 37.3,-0.1 C37.3,-6.6 32.5,-13.6 18.7,-13.6 M10.4,-4.5 C10.3,-4.9 10.3,-5.3 10.3,-5.7 C10.3,-6.5 10.5,-7.3 10.9,-8 C11.6,-9 12.8,-9.7 14.3,-10 C15.6,-10.3 16.3,-10.5 18.9,-10.5 L19,-10.5 C23,-10.5 24.3,-6.8 25.4,-3 L25.7,-2 C26.5,0.6 26.9,2.8 26.9,4.5 C26.9,5.7 26.7,6.8 26.3,7.6 C25.7,8.7 24.7,9.4 23,9.8 C22.1,10 20.6,10.1 20.6,10.1 C20.1,10.1 19.7,10.2 19.3,10.2 C16.1,10.2 14.1,9 12.7,4.7 C11.5,1 11.3,-0.1 10.4,-4.5"/>
<path class="Note" transform="matrix(2.3811,0,0,2.3811,3321.92,1463.24)" d="M18.7,-13.6 C4.9,-13.6 0,-6.6 0,-0.1 C0,6.4 4.9,13.4 18.7,13.4 C32.5,13.4 37.3,6.4 37.3,-0.1 C37.3,-6.6 32.5,-13.6 18.7,-13.6 M10.4,-4.5 C10.3,-4.9 10.3,-5.3 10.3,-5.7 C10.3,-6.5 10.5,-7.3 10.9,-8 C11.6,-9 12.8,-9.7 14.3,-10 C15.6,-10.3 16.3,-10.5 18.9,-10.5 L19,-10.5 C23,-10.5 24.3,-6.8 25.4,-3 L25.7,-2 C26.5,0.6 26.9,2.8 26.9,4.5 C26.9,5.7 26.7,6.8 26.3,7.6 C25.7,8.7 24.7,9.4 23,9.8 C22.1,10 20.6,10.1 20.6,10.1 C20.1,10.1 19.7,10.2 19.3,10.2 C16.1,10.2 14.1,9 12.7,4.7 C11.5,1 11.3,-0.1 10.4,-4.5"/>
<path class="Note" d="M706.582,602.857 C710.921,599.913 714.058,597.472 715.995,595.535 C719.559,591.739 721.341,588.253 721.341,585.076 C721.341,581.435 719.327,579.614 715.298,579.614 C707.473,579.614 699.106,586.51 690.196,600.3 C687.485,604.484 681.519,618.119 672.3,641.206 C679.66,648.799 683.34,653.098 683.34,654.106 C683.34,655.5 682.449,656.197 680.667,656.197 C679.273,656.197 675.438,653.834 669.162,649.109 C662.344,664.991 652.002,678.549 638.134,689.782 C623.956,701.249 607.028,706.982 587.35,706.982 C579.835,706.982 570.422,705.238 559.11,701.752 C550.046,698.963 545.514,694.508 545.514,688.388 C545.514,679.323 549,674.791 555.973,674.791 C560.156,674.791 562.248,676.728 562.248,680.602 C562.248,681.841 561.28,683.158 559.343,684.553 C558.336,685.25 557.832,686.606 557.832,688.62 C557.832,691.022 560.505,693.501 565.851,696.058 C571.661,698.847 580.183,700.241 591.417,700.241 C605.905,700.241 619.889,693.966 633.369,681.415 C645.61,670.027 654.403,656.778 659.749,641.671 C657.657,639.967 655.411,638.107 653.009,636.093 C645.571,631.677 641.853,627.145 641.853,622.496 C641.853,620.559 643.131,619.591 645.688,619.591 C649.096,619.591 653.706,622.496 659.517,628.307 C660.756,629.546 661.918,630.708 663.003,631.793 C665.715,624.356 670.053,614.904 676.019,603.438 C686.788,582.675 699.881,572.293 715.298,572.293 C720.799,572.293 725.137,573.339 728.314,575.431 C731.49,577.523 733.078,580.389 733.078,584.03 C733.078,589.841 730.948,594.761 726.687,598.789 C722.271,602.973 717.661,605.065 712.858,605.065 C708.674,605.065 706.582,604.329 706.582,602.857"/>
<path class="Note" d="M705.769,805.03 C705.769,813.94 695.62,833.502 675.321,863.717 C667.264,875.725 655.682,884.518 640.574,890.097 C629.418,894.28 616.519,896.372 601.876,896.372 C597.15,896.372 592.967,895.403 589.325,893.467 C585.297,891.375 583.282,889.089 583.282,886.61 C583.282,880.18 586.73,876.965 593.625,876.965 C594.632,876.965 595.136,877.584 595.136,878.824 C595.136,879.909 594.632,881.11 593.625,882.427 C592.386,884.054 591.766,885.254 591.766,886.029 C591.766,888.353 595.252,889.515 602.225,889.515 C617.874,889.515 630.232,887.617 639.296,883.821 C648.748,879.947 658.161,870.069 667.535,854.187 L670.208,849.19 C665.715,852.599 661.26,854.304 656.844,854.304 C645.843,854.304 640.342,849.849 640.342,840.939 C640.342,831.333 646.811,821.222 659.749,810.608 C669.898,802.396 678.924,798.29 686.826,798.29 C690.777,798.29 694.07,799.336 696.704,801.428 C697.634,800.73 698.796,800.382 700.191,800.382 C703.909,800.382 705.769,801.931 705.769,805.03 M671.603,846.75 L693.566,806.192 C691.862,805.805 689.964,805.611 687.872,805.611 C680.357,805.611 673.075,809.988 666.025,818.743 C657.812,828.97 653.706,837.143 653.706,843.264 C653.706,847.292 656.379,849.306 661.725,849.306 C664.281,849.306 667.574,848.454 671.603,846.75"/>
<path class="Note" d="M706.582,692.148 C710.921,689.204 714.058,686.764 715.995,684.827 C719.559,681.03 721.341,677.544 721.341,674.368 C721.341,670.726 719.327,668.906 715.298,668.906 C707.473,668.906 699.106,675.801 690.196,689.591 C687.485,693.775 681.519,707.41 672.3,730.498 C679.66,738.09 683.34,742.39 683.34,743.397 C683.34,744.791 682.449,745.489 680.667,745.489 C679.273,745.489 675.438,743.126 669.162,738.4 C662.344,754.282 652.002,767.84 638.134,779.074 C623.956,790.54 607.028,796.273 587.35,796.273 C579.835,796.273 570.422,794.53 559.11,791.043 C550.046,788.254 545.514,783.8 545.514,777.679 C545.514,768.615 549,764.083 555.973,764.083 C560.156,764.083 562.248,766.019 562.248,769.893 C562.248,771.133 561.28,772.45 559.343,773.844 C558.336,774.541 557.832,775.897 557.832,777.912 C557.832,780.313 560.505,782.792 565.851,785.349 C571.661,788.138 580.183,789.533 591.417,789.533 C605.905,789.533 619.889,783.257 633.369,770.707 C645.61,759.318 654.403,746.07 659.749,730.962 C657.657,729.258 655.411,727.399 653.009,725.384 C645.571,720.968 641.853,716.436 641.853,711.788 C641.853,709.851 643.131,708.882 645.688,708.882 C649.096,708.882 653.706,711.788 659.517,717.598 C660.756,718.838 661.918,720 663.003,721.084 C665.715,713.647 670.053,704.195 676.019,692.729 C686.788,671.966 699.881,661.584 715.298,661.584 C720.799,661.584 725.137,662.63 728.314,664.722 C731.49,666.814 733.078,669.68 733.078,673.322 C733.078,679.132 730.948,684.052 726.687,688.081 C722.271,692.264 717.661,694.356 712.858,694.356 C708.674,694.356 706.582,693.62 706.582,692.148"/>
<path class="Note" d="M1588.72,602.857 C1593.06,599.913 1596.2,597.472 1598.13,595.535 C1601.7,591.739 1603.48,588.253 1603.48,585.076 C1603.48,581.435 1601.47,579.614 1597.44,579.614 C1589.61,579.614 1581.24,586.51 1572.34,600.3 C1569.62,604.484 1563.66,618.119 1554.44,641.206 C1561.8,648.799 1565.48,653.098 1565.48,654.106 C1565.48,655.5 1564.59,656.197 1562.81,656.197 C1561.41,656.197 1557.58,653.834 1551.3,649.109 C1544.48,664.991 1534.14,678.549 1520.27,689.782 C1506.09,701.249 1489.17,706.982 1469.49,706.982 C1461.97,706.982 1452.56,705.238 1441.25,701.752 C1432.18,698.963 1427.65,694.508 1427.65,688.388 C1427.65,679.323 1431.14,674.791 1438.11,674.791 C1442.3,674.791 1444.39,676.728 1444.39,680.602 C1444.39,681.841 1443.42,683.158 1441.48,684.553 C1440.47,685.25 1439.97,686.606 1439.97,688.62 C1439.97,691.022 1442.64,693.501 1447.99,696.058 C1453.8,698.847 1462.32,700.241 1473.56,700.241 C1488.04,700.241 1502.03,693.966 1515.51,681.415 C1527.75,670.027 1536.54,656.778 1541.89,641.671 C1539.8,639.967 1537.55,638.107 1535.15,636.093 C1527.71,631.677 1523.99,627.145 1523.99,622.496 C1523.99,620.559 1525.27,619.591 1527.83,619.591 C1531.24,619.591 1535.84,622.496 1541.66,628.307 C1542.9,629.546 1544.06,630.708 1545.14,631.793 C1547.85,624.356 1552.19,614.904 1558.16,603.438 C1568.93,582.675 1582.02,572.293 1597.44,572.293 C1602.94,572.293 1607.28,573.339 1610.45,575.431 C1613.63,577.523 1615.22,580.389 1615.22,584.03 C1615.22,589.841 1613.09,594.761 1608.83,598.789 C1604.41,602.973 1599.8,605.065 1595,605.065 C1590.81,605.065 1588.72,604.329 1588.72,602.857"/>
<path class="Note" d="M1588.72,781.439 C1593.06,778.495 1596.2,776.055 1598.13,774.118 C1601.7,770.322 1603.48,766.835 1603.48,763.659 C1603.48,760.018 1601.47,758.197 1597.44,758.197 C1589.61,758.197 1581.24,765.092 1572.34,778.883 C1569.62,783.066 1563.66,796.702 1554.44,819.789 C1561.8,827.381 1565.48,831.681 1565.48,832.688 C1565.48,834.083 1564.59,834.78 1562.81,834.78 C1561.41,834.78 1557.58,832.417 1551.3,827.691 C1544.48,843.573 1534.14,857.131 1520.27,868.365 C1506.09,879.831 1489.17,885.564 1469.49,885.564 C1461.97,885.564 1452.56,883.821 1441.25,880.335 C1432.18,877.546 1427.65,873.091 1427.65,866.971 C1427.65,857.906 1431.14,853.374 1438.11,853.374 C1442.3,853.374 1444.39,855.311 1444.39,859.184 C1444.39,860.424 1443.42,861.741 1441.48,863.136 C1440.47,863.833 1439.97,865.189 1439.97,867.203 C1439.97,869.605 1442.64,872.084 1447.99,874.64 C1453.8,877.43 1462.32,878.824 1473.56,878.824 C1488.04,878.824 1502.03,872.549 1515.51,859.998 C1527.75,848.609 1536.54,835.361 1541.89,820.254 C1539.8,818.549 1537.55,816.69 1535.15,814.676 C1527.71,810.26 1523.99,805.727 1523.99,801.079 C1523.99,799.142 1525.27,798.174 1527.83,798.174 C1531.24,798.174 1535.84,801.079 1541.66,806.889 C1542.9,808.129 1544.06,809.291 1545.14,810.376 C1547.85,802.938 1552.19,793.486 1558.16,782.02 C1568.93,761.257 1582.02,750.876 1597.44,750.876 C1602.94,750.876 1607.28,751.922 1610.45,754.014 C1613.63,756.105 1615.22,758.972 1615.22,762.613 C1615.22,768.424 1613.09,773.343 1608.83,777.372 C1604.41,781.555 1599.8,783.647 1595,783.647 C1590.81,783.647 1588.72,782.911 1588.72,781.439"/>
<path class="Note" d="M1588.72,692.148 C1593.06,689.204 1596.2,686.764 1598.13,684.827 C1601.7,681.03 1603.48,677.544 1603.48,674.368 C1603.48,670.726 1601.47,668.906 1597.44,668.906 C1589.61,668.906 1581.24,675.801 1572.34,689.591 C1569.62,693.775 1563.66,707.41 1554.44,730.498 C1561.8,738.09 1565.48,742.39 1565.48,743.397 C1565.48,744.791 1564.59,745.489 1562.81,745.489 C1561.41,745.489 1557.58,743.126 1551.3,738.4 C1544.48,754.282 1534.14,767.84 1520.27,779.074 C1506.09,790.54 1489.17,796.273 1469.49,796.273 C1461.97,796.273 1452.56,794.53 1441.25,791.043 C1432.18,788.254 1427.65,783.8 1427.65,777.679 C1427.65,768.615 1431.14,764.083 1438.11,764.083 C1442.3,764.083 1444.39,766.019 1444.39,769.893 C1444.39,771.133 1443.42,772.45 1441.48,773.844 C1440.47,774.541 1439.97,775.897 1439.97,777.912 C1439.97,780.313 1442.64,782.792 1447.99,785.349 C1453.8,788.138 1462.32,789.533 1473.56,789.533 C1488.04,789.533 1502.03,783.257 1515.51,770.707 C1527.75,759.318 1536.54,746.07 1541.89,730.962 C1539.8,729.258 1537.55,727.399 1535.15,725.384 C1527.71,720.968 1523.99,716.436 1523.99,711.788 C1523.99,709.851 1525.27,708.882 1527.83,708.882 C1531.24,708.882 1535.84,711.788 1541.66,717.598 C1542.9,718.838 1544.06,720 1545.14,721.084 C1547.85,713.647 1552.19,704.195 1558.16,692.729 C1568.93,671.966 1582.02,661.584 1597.44,661.584 C1602.94,661.584 1607.28,662.63 1610.45,664.722 C1613.63,666.814 1615.22,669.68 1615.22,673.322 C1615.22,679.132 1613.09,684.052 1608.83,688.081 C1604.41,692.264 1599.8,694.356 1595,694.356 C1590.81,694.356 1588.72,693.62 1588.72,692.148"/>
<path class="Note" d="M2533.48,602.857 C2537.81,599.913 2540.95,597.472 2542.89,595.535 C2546.45,591.739 2548.23,588.253 2548.23,585.076 C2548.23,581.435 2546.22,579.614 2542.19,579.614 C2534.37,579.614 2526,586.51 2517.09,600.3 C2514.38,604.484 2508.41,618.119 2499.19,641.206 C2506.55,648.799 2510.23,653.098 2510.23,654.106 C2510.23,655.5 2509.34,656.197 2507.56,656.197 C2506.17,656.197 2502.33,653.834 2496.06,649.109 C2489.24,664.991 2478.89,678.549 2465.03,689.782 C2450.85,701.249 2433.92,706.982 2414.24,706.982 C2406.73,706.982 2397.31,705.238 2386,701.752 C2376.94,698.963 2372.41,694.508 2372.41,688.388 C2372.41,679.323 2375.89,674.791 2382.87,674.791 C2387.05,674.791 2389.14,676.728 2389.14,680.602 C2389.14,681.841 2388.17,683.158 2386.24,684.553 C2385.23,685.25 2384.73,686.606 2384.73,688.62 C2384.73,691.022 2387.4,693.501 2392.74,696.058 C2398.55,698.847 2407.08,700.241 2418.31,700.241 C2432.8,700.241 2446.78,693.966 2460.26,681.415 C2472.5,670.027 2481.3,656.778 2486.64,641.671 C2484.55,639.967 2482.3,638.107 2479.9,636.093 C2472.46,631.677 2468.75,627.145 2468.75,622.496 C2468.75,620.559 2470.02,619.591 2472.58,619.591 C2475.99,619.591 2480.6,622.496 2486.41,628.307 C2487.65,629.546 2488.81,630.708 2489.9,631.793 C2492.61,624.356 2496.95,614.904 2502.91,603.438 C2513.68,582.675 2526.77,572.293 2542.19,572.293 C2547.69,572.293 2552.03,573.339 2555.21,575.431 C2558.38,577.523 2559.97,580.389 2559.97,584.03 C2559.97,589.841 2557.84,594.761 2553.58,598.789 C2549.16,602.973 2544.55,605.065 2539.75,605.065 C2535.57,605.065 2533.48,604.329 2533.48,602.857"/>
<path class="Note" d="M2532.66,805.03 C2532.66,813.94 2522.51,833.502 2502.21,863.717 C2494.16,875.725 2482.57,884.518 2467.47,890.097 C2456.31,894.28 2443.41,896.372 2428.77,896.372 C2424.04,896.372 2419.86,895.403 2416.22,893.467 C2412.19,891.375 2410.18,889.089 2410.18,886.61 C2410.18,880.18 2413.62,876.965 2420.52,876.965 C2421.53,876.965 2422.03,877.584 2422.03,878.824 C2422.03,879.909 2421.53,881.11 2420.52,882.427 C2419.28,884.054 2418.66,885.254 2418.66,886.029 C2418.66,888.353 2422.15,889.515 2429.12,889.515 C2444.77,889.515 2457.12,887.617 2466.19,883.821 C2475.64,879.947 2485.05,870.069 2494.43,854.187 L2497.1,849.19 C2492.61,852.599 2488.15,854.304 2483.74,854.304 C2472.74,854.304 2467.23,849.849 2467.23,840.939 C2467.23,831.333 2473.7,821.222 2486.64,810.608 C2496.79,802.396 2505.82,798.29 2513.72,798.29 C2517.67,798.29 2520.96,799.336 2523.6,801.428 C2524.53,800.73 2525.69,800.382 2527.08,800.382 C2530.8,800.382 2532.66,801.931 2532.66,805.03 M2498.5,846.75 L2520.46,806.192 C2518.76,805.805 2516.86,805.611 2514.77,805.611 C2507.25,805.611 2499.97,809.988 2492.92,818.743 C2484.71,828.97 2480.6,837.143 2480.6,843.264 C2480.6,847.292 2483.27,849.306 2488.62,849.306 C2491.17,849.306 2494.47,848.454 2498.5,846.75"/>
<path class="Note" d="M2460.84,594.913 C2456.66,594.913 2454.57,593.015 2454.57,589.219 C2454.57,582.788 2455.54,578.062 2457.47,575.041 C2465.53,563.11 2483.04,540.797 2510,508.103 C2522.16,493.306 2537.85,485.907 2557.07,485.907 C2564.5,485.907 2569.66,486.953 2572.52,489.045 C2576.94,492.299 2579.15,496.211 2579.15,500.782 C2579.15,505.585 2575.27,510.931 2567.52,516.819 C2560.16,522.397 2553.19,525.186 2546.61,525.186 C2544.05,525.186 2542.77,524.915 2542.77,524.373 C2542.77,523.598 2544.01,522.785 2546.49,521.932 C2549.82,520.693 2553.39,518.175 2557.18,514.379 C2561.52,509.963 2563.69,505.973 2563.69,502.409 C2563.69,500.007 2562.02,497.722 2558.69,495.553 C2555.75,493.693 2550.98,492.764 2544.4,492.764 C2534.79,492.764 2522.67,502.448 2508.02,521.816 C2498.26,534.754 2490.36,546.143 2484.32,555.982 C2487.26,554.355 2490.79,552.38 2494.89,550.056 C2499.93,547.189 2504.27,545.756 2507.91,545.756 C2516.97,545.756 2521.51,549.01 2521.51,555.517 C2521.51,561.948 2517.79,568.998 2510.35,576.668 C2505.08,582.091 2502.45,586.12 2502.45,588.754 C2502.45,591.465 2505.08,592.821 2510.35,592.821 C2512.98,592.821 2515.69,591.891 2518.48,590.032 C2521.27,588.25 2523.33,587.359 2524.64,587.359 C2525.73,587.359 2526.27,588.056 2526.27,589.451 C2526.27,591.698 2524.1,594.061 2519.76,596.54 C2512.48,600.723 2506.63,602.815 2502.21,602.815 C2494.39,602.815 2490.48,598.632 2490.48,590.264 C2490.48,584.996 2493.5,579.147 2499.54,572.717 C2503.96,567.991 2506.17,563.304 2506.17,558.655 C2506.17,554.626 2504,552.612 2499.66,552.612 C2497.95,552.612 2492.3,554.626 2482.69,558.655 C2479.82,563.458 2477.42,567.875 2475.49,571.903 C2468.13,587.243 2463.24,594.913 2460.84,594.913"/>
<path class="Note" d="M3415.61,602.857 C3419.95,599.913 3423.09,597.472 3425.03,595.535 C3428.59,591.739 3430.37,588.253 3430.37,585.076 C3430.37,581.435 3428.36,579.614 3424.33,579.614 C3416.5,579.614 3408.14,586.51 3399.23,600.3 C3396.52,604.484 3390.55,618.119 3381.33,641.206 C3388.69,648.799 3392.37,653.098 3392.37,654.106 C3392.37,655.5 3391.48,656.197 3389.7,656.197 C3388.3,656.197 3384.47,653.834 3378.19,649.109 C3371.38,664.991 3361.03,678.549 3347.17,689.782 C3332.99,701.249 3316.06,706.982 3296.38,706.982 C3288.87,706.982 3279.45,705.238 3268.14,701.752 C3259.08,698.963 3254.55,694.508 3254.55,688.388 C3254.55,679.323 3258.03,674.791 3265,674.791 C3269.19,674.791 3271.28,676.728 3271.28,680.602 C3271.28,681.841 3270.31,683.158 3268.37,684.553 C3267.37,685.25 3266.86,686.606 3266.86,688.62 C3266.86,691.022 3269.54,693.501 3274.88,696.058 C3280.69,698.847 3289.22,700.241 3300.45,700.241 C3314.94,700.241 3328.92,693.966 3342.4,681.415 C3354.64,670.027 3363.44,656.778 3368.78,641.671 C3366.69,639.967 3364.44,638.107 3362.04,636.093 C3354.6,631.677 3350.88,627.145 3350.88,622.496 C3350.88,620.559 3352.16,619.591 3354.72,619.591 C3358.13,619.591 3362.74,622.496 3368.55,628.307 C3369.79,629.546 3370.95,630.708 3372.03,631.793 C3374.75,624.356 3379.08,614.904 3385.05,603.438 C3395.82,582.675 3408.91,572.293 3424.33,572.293 C3429.83,572.293 3434.17,573.339 3437.35,575.431 C3440.52,577.523 3442.11,580.389 3442.11,584.03 C3442.11,589.841 3439.98,594.761 3435.72,598.789 C3431.3,602.973 3426.69,605.065 3421.89,605.065 C3417.71,605.065 3415.61,604.329 3415.61,602.857"/>
<path class="Note" d="M3415.61,781.439 C3419.95,778.495 3423.09,776.055 3425.03,774.118 C3428.59,770.322 3430.37,766.835 3430.37,763.659 C3430.37,760.018 3428.36,758.197 3424.33,758.197 C3416.5,758.197 3408.14,765.092 3399.23,778.883 C3396.52,783.066 3390.55,796.702 3381.33,819.789 C3388.69,827.381 3392.37,831.681 3392.37,832.688 C3392.37,834.083 3391.48,834.78 3389.7,834.78 C3388.3,834.78 3384.47,832.417 3378.19,827.691 C3371.38,843.573 3361.03,857.131 3347.17,868.365 C3332.99,879.831 3316.06,885.564 3296.38,885.564 C3288.87,885.564 3279.45,883.821 3268.14,880.335 C3259.08,877.546 3254.55,873.091 3254.55,866.971 C3254.55,857.906 3258.03,853.374 3265,853.374 C3269.19,853.374 3271.28,855.311 3271.28,859.184 C3271.28,860.424 3270.31,861.741 3268.37,863.136 C3267.37,863.833 3266.86,865.189 3266.86,867.203 C3266.86,869.605 3269.54,872.084 3274.88,874.64 C3280.69,877.43 3289.22,878.824 3300.45,878.824 C3314.94,878.824 3328.92,872.549 3342.4,859.998 C3354.64,848.609 3363.44,835.361 3368.78,820.254 C3366.69,818.549 3364.44,816.69 3362.04,814.676 C3354.6,810.26 3350.88,805.727 3350.88,801.079 C3350.88,799.142 3352.16,798.174 3354.72,798.174 C3358.13,798.174 3362.74,801.079 3368.55,806.889 C3369.79,808.129 3370.95,809.291 3372.03,810.376 C3374.75,802.938 3379.08,793.486 3385.05,782.02 C3395.82,761.257 3408.91,750.876 3424.33,750.876 C3429.83,750.876 3434.17,751.922 3437.35,754.014 C3440.52,756.105 3442.11,758.972 3442.11,762.613 C3442.11,768.424 3439.98,773.343 3435.72,777.372 C3431.3,781.555 3426.69,783.647 3421.89,783.647 C3417.71,783.647 3415.61,782.911 3415.61,781.439"/>
<path class="Note" d="M3342.98,594.913 C3338.8,594.913 3336.71,593.015 3336.71,589.219 C3336.71,582.788 3337.68,578.062 3339.61,575.041 C3347.67,563.11 3365.18,540.797 3392.14,508.103 C3404.3,493.306 3419.99,485.907 3439.2,485.907 C3446.64,485.907 3451.79,486.953 3454.66,489.045 C3459.08,492.299 3461.28,496.211 3461.28,500.782 C3461.28,505.585 3457.41,510.931 3449.66,516.819 C3442.3,522.397 3435.33,525.186 3428.75,525.186 C3426.19,525.186 3424.91,524.915 3424.91,524.373 C3424.91,523.598 3426.15,522.785 3428.63,521.932 C3431.96,520.693 3435.52,518.175 3439.32,514.379 C3443.66,509.963 3445.83,505.973 3445.83,502.409 C3445.83,500.007 3444.16,497.722 3440.83,495.553 C3437.89,493.693 3433.12,492.764 3426.54,492.764 C3416.93,492.764 3404.81,502.448 3390.16,521.816 C3380.4,534.754 3372.5,546.143 3366.46,555.982 C3369.4,554.355 3372.93,552.38 3377.03,550.056 C3382.07,547.189 3386.41,545.756 3390.05,545.756 C3399.11,545.756 3403.64,549.01 3403.64,555.517 C3403.64,561.948 3399.93,568.998 3392.49,576.668 C3387.22,582.091 3384.59,586.12 3384.59,588.754 C3384.59,591.465 3387.22,592.821 3392.49,592.821 C3395.12,592.821 3397.83,591.891 3400.62,590.032 C3403.41,588.25 3405.46,587.359 3406.78,587.359 C3407.87,587.359 3408.41,588.056 3408.41,589.451 C3408.41,591.698 3406.24,594.061 3401.9,596.54 C3394.62,600.723 3388.77,602.815 3384.35,602.815 C3376.53,602.815 3372.62,598.632 3372.62,590.264 C3372.62,584.996 3375.64,579.147 3381.68,572.717 C3386.1,567.991 3388.3,563.304 3388.3,558.655 C3388.3,554.626 3386.14,552.612 3381.8,552.612 C3380.09,552.612 3374.44,554.626 3364.83,558.655 C3361.96,563.458 3359.56,567.875 3357.62,571.903 C3350.26,587.243 3345.38,594.913 3342.98,594.913"/>
<path class="Clef" transform="matrix(2.3811,0,0,2.3811,212.156,2183.33)" d="M25.4,-25.1 C17.8,-25.1 11.7,-20.7 11.6,-20.7 C5.8,-16.4 3.5,-11.3 2.6,-7.8 C2.1,-6 1.9,-4.2 1.9,-2.5 C1.9,-0.1 2.3,2.1 3.2,4 C4.4,6.7 6.7,8.6 9.7,9.6 C10.9,10 12.2,10.2 13.5,10.2 C15.7,10.2 18,9.6 19.9,8.5 C23,6.8 24.9,3.2 24.9,-0.7 C24.9,-4.2 23.1,-7.4 20.1,-9.3 C18,-10.7 16,-11.1 14.3,-11.1 C13.1,-11.1 12,-10.9 11.1,-10.6 C10.1,-10.2 8.4,-9.2 7.6,-8.5 C7.9,-10.4 9.1,-13.3 10.2,-14.9 C11.3,-16.5 13.5,-18.5 15.2,-19.4 C17.7,-20.8 20.9,-21.4 24.4,-21.4 C34.6,-21.4 39.6,-13.2 39.6,3.6 C39.6,12.9 36.1,21.8 33.1,27.7 C29.8,34.3 25.4,40.6 21.5,44.1 C11.1,53.6 1.3,58.1 1.2,58.1 C1.2,58.1 -0.3,59 0.1,60.5 C0.4,61.5 1.3,61.7 1.9,61.7 C2,61.7 2.3,61.6 2.4,61.6 C2.5,61.6 13.9,56.9 23,49.8 C28.1,46.1 32.7,42.1 36.7,37.8 C40.3,33.9 43.4,29.7 45.9,25.5 C50.3,18 52.8,10.2 52.8,3.5 C52.8,-4.8 50.6,-11.7 46.5,-16.6 C41.8,-22.2 34.7,-25.1 25.4,-25.1 M56.8,-12.4 C56.8,-9.6 59,-7.4 61.6,-7.4 C64.2,-7.4 66.4,-9.6 66.4,-12.4 C66.4,-15.2 64.2,-17.5 61.6,-17.5 C59,-17.5 56.8,-15.2 56.8,-12.4 M56.8,12.3 C56.8,15.1 59,17.4 61.6,17.4 C64.2,17.4 66.4,15.1 66.4,12.3 C66.4,9.5 64.2,7.2 61.6,7.2 C59,7.2 56.8,9.5 56.8,12.3"/>
<path class="Clef" transform="matrix(2.3811,0,0,2.3811,212.156,1612.06)" d="M63.37,-5.89004 C62.14,-11.32 59.5,-15.14 58.72,-16.1801 C55.5301,-20.45 51.52,-23.3 46.8301,-24.65 C43.72,-25.54 40.72,-25.65 38.3,-25.47 C37.2601,-31.4801 36.2601,-37.3601 35.35,-42.8101 C40.79,-48.97 44.42,-54.77 46.69,-59.07 C50.1601,-65.65 51.3101,-70.2301 51.3601,-70.4301 C53.0801,-75.64 53.44,-83.34 52.34,-91.55 C51.3301,-99.1 49.24,-105.81 46.89,-109.06 C45.8601,-110.49 44.8101,-111.22 43.77,-111.22 C42.55,-111.22 40.04,-109.98 37.15,-107.21 C34.85,-105.01 31.5801,-101.12 29.02,-95.1101 C26.02,-88.05 25.8101,-78.5601 26.1601,-71.84 C26.54,-64.57 27.65,-58.8801 27.6601,-58.8301 C27.6801,-58.74 27.94,-57.24 28.39,-54.67 C28.1601,-54.44 27.92,-54.22 27.67,-53.9801 C26.6301,-52.9801 25.44,-51.84 24.0601,-50.4601 C23.2,-49.6 22.25,-48.69 21.25,-47.72 C12.79,-39.57 0,-27.25 0,-8.1 C0,-3.4 0.9,1.01992 2.68008,5.02998 C4.27002,8.62998 6.57002,11.91 9.5,14.78 C17.2301,22.33 27.82,25.5399 34.8801,25.38 C37.8301,25.31 40.4601,25.0699 42.85,24.6199 C44.6801,34.2199 45.82,41.25 45.8601,46.5899 C45.9,53.1 44.25,57.0699 40.35,59.8399 C37.92,61.5699 35.1101,62.5199 32.0101,62.6699 C29.42,62.7899 27.1601,62.3199 25.7301,61.91 L25.72,61.91 C25.72,61.91 25.4301,61.83 25.42,61.63 C25.4101,61.45 25.7601,61.4 25.77,61.4 L25.79,61.4 C27.7101,60.96 31.2801,59.73 33.64,56.43 C35.44,53.91 36.3101,49.2899 34.47,45.35 C33.3601,42.96 30.85,40.01 25.2301,39.56 C22.74,39.36 20.47,39.8699 18.47,41.0699 C16.6601,42.15 15.1601,43.7899 14.1101,45.7899 C11.65,50.4899 12.1101,56.2199 15.24,60.06 C18.2,63.68 22.82,65.9899 28.25,66.5699 C29.1,66.66 29.95,66.7 30.8,66.7 C31.5101,66.7 32.22,66.6699 32.92,66.61 C31.72,66.9399 30.64,67.4899 29.77,68.25 C28.2801,69.5399 27.44,71.38 27.44,73.41 C27.44,75.28 28.0601,76.65 29.55,78.0399 C28.4101,78.5 27.55,78.98 26.79,79.56 C25.25,80.73 24.34,82.46 24.34,84.1899 C24.34,87.45 27.3,89.63 31.72,89.63 C37.1301,89.63 40.9101,86.63 40.9101,82.35 C40.9101,80.1199 39.9101,78.18 38.0801,76.83 C41.0101,75.6199 42.37,73.9399 42.37,71.56 C42.39,70.05 41.69,68.61 40.49,67.6899 C39.2801,66.7399 37.62,66.2399 35.69,66.2399 L35.5101,66.2399 C38.2801,65.7 40.92,64.7 43.2101,63.28 C46.87,60.71 48.99,56.73 49.67,51.1 C50.2301,46.46 49.84,40.55 48.44,32.48 C48.0801,30.3899 47.54,27.36 46.8801,23.6 C52.6301,21.68 56.79,18.11 60.5601,12.26 C63.85,6.51992 64.8,0.419922 63.37,-5.89004 M32.39,87.5399 C30.19,87.5399 28.7301,86.1199 28.7301,84.01 C28.7301,82.11 29.65,80.5 31.32,79.4699 C31.6801,79.66 31.77,79.71 32.1101,79.88 C33.3,80.48 33.3,80.48 33.55,80.63 L33.5601,80.6399 C35.47,81.73 36.25,82.76 36.25,84.18 C36.24,86.0899 34.59,87.5399 32.39,87.5399 M38.3101,71.63 C38.3101,73.2699 37.7301,74.3399 36.1801,75.53 C34.74,74.78 34.35,74.56 33.9801,74.3399 L33.8801,74.28 C32.3301,73.3399 31.85,72.66 31.85,71.4 C31.85,69.6 33.2301,68.3399 35.19,68.3399 C37.17,68.35 38.3101,69.55 38.3101,71.63 M33.15,-83.8101 C34.9301,-89.55 37.67,-92.8 39.6601,-94.5301 C41.4101,-96.05 43.0601,-96.7601 43.9801,-96.7601 C44.12,-96.7601 44.24,-96.74 44.34,-96.7101 C44.8,-96.57 45.3301,-96 45.8,-95.1301 C48.1101,-90.84 47.37,-84.1301 46.0301,-79.69 C44.4,-74.29 41.4801,-68.6801 32.69,-59.0601 C32.52,-60.17 32.3601,-61.22 32.2101,-62.2 C30.95,-70.49 31.27,-77.7601 33.15,-83.8101 M29.15,20.31 C24.5101,19.0899 20.0801,16.5899 16.32,13.0899 C15.0101,11.86 13.14,9.68994 11.67,6.3 C10.3101,3.13994 9.65,-0.290039 9.7,-3.88008 C9.77002,-8.57002 11.0801,-13.39 13.59,-18.1801 C16.5101,-23.7601 21.07,-29.29 27.1301,-34.62 C28.5801,-35.9 29.95,-37.1801 31.24,-38.4601 C32,-34.2 32.8301,-29.5101 33.7101,-24.6301 C29.8601,-23.3601 25.1101,-20.2101 22,-14.5601 C18.47,-7.99004 18.6101,-2.47002 19.34,1.00996 C20.2801,5.46992 22.8101,9.22998 26.27,11.3199 C27.2,11.88 31.3301,14.01 33.17,13.43 C33.54,13.31 33.8101,13.0899 33.95,12.76 C34.4601,11.5899 33.44,10.95 31.8801,9.98994 C31.2801,9.61992 30.6101,9.2 29.8801,8.66992 C26.5601,6.17998 25.1101,1.72998 26.1801,-2.65 C26.7601,-5.05 28.04,-7.21006 29.8801,-8.91006 C31.55,-10.4601 33.59,-11.5601 35.97,-12.2 C38.0101,-0.960059 40.07,10.1899 41.7101,18.55 C41.84,19.2399 41.9801,19.91 42.1101,20.58 C37.7101,21.51 33.37,21.4199 29.15,20.31 M54.9,10.1 C53.7301,13.28 51.27,17.35 46.14,19.41 C46.07,18.9899 45.99,18.56 45.9101,18.13 C44.3601,9.36992 42.4301,-1.61006 40.47,-12.87 C50.82,-13.35 55.09,-5.91006 55.9801,-1.08008 C56.45,1.45 56.45,5.88994 54.9,10.1"/>
<path class="FiguredBass" d="M660.077,2497.1 C655.5,2497.1 652.454,2498.94 650.939,2502.62 C649.423,2506.3 648.666,2511.51 648.666,2518.25 L648.666,2529.2 C651.882,2527.9 654.665,2527.22 657.015,2527.16 C665.056,2527.16 671.38,2528.94 675.987,2532.49 C680.595,2536.05 682.899,2541.34 682.899,2548.36 C682.899,2555.38 680.564,2560.68 675.895,2564.27 C671.225,2567.86 664.932,2569.65 657.015,2569.65 C648.913,2569.65 642.574,2565.89 637.997,2558.38 C633.42,2550.86 631.132,2541.94 631.132,2531.61 C631.132,2521.35 633.791,2512.44 639.11,2504.89 C644.429,2497.35 651.418,2493.58 660.077,2493.58 C665.767,2493.58 670.684,2495.01 674.828,2497.89 C678.972,2500.77 681.044,2504.55 681.044,2509.25 C681.044,2511.98 680.054,2514.33 678.075,2516.31 C676.096,2518.28 673.73,2519.27 670.978,2519.27 C668.225,2519.27 665.86,2518.28 663.881,2516.31 C661.901,2514.33 660.912,2511.98 660.912,2509.25 C660.912,2506.6 661.901,2504.24 663.881,2502.2 C664.561,2501.4 665.52,2500.72 666.757,2500.16 C666.447,2499.36 665.829,2498.74 664.901,2498.31 C663.54,2497.5 661.932,2497.1 660.077,2497.1 M664.623,2535.05 C663.509,2532.14 661.066,2530.69 657.294,2530.69 C653.521,2530.69 651.186,2532.14 650.289,2535.05 C649.392,2537.95 648.944,2542.37 648.944,2548.31 C648.944,2555.3 649.392,2560 650.289,2562.41 C651.186,2564.83 653.521,2566.03 657.294,2566.03 C661.066,2566.03 663.509,2564.58 664.623,2561.67 C665.736,2558.76 666.293,2554.33 666.293,2548.36 C666.293,2542.39 665.736,2537.95 664.623,2535.05"/>
<path class="FiguredBass" d="M648.571,2649.98 L648.571,2660 L648.571,2661.67 C648.571,2665.44 648.726,2668.78 649.035,2671.69 C652.004,2669.15 654.323,2667.08 655.993,2665.47 C657.663,2663.87 659.286,2661.67 660.863,2658.89 C662.441,2656.1 663.229,2653.34 663.229,2650.58 C663.229,2647.83 662.642,2645.43 661.466,2643.39 C660.291,2641.35 658.683,2640.33 656.642,2640.33 C654.292,2640.33 652.39,2641.28 650.937,2643.16 C649.483,2645.05 648.695,2647.32 648.571,2649.98 M642.17,2677.16 L640.407,2594.97 C641.706,2594.16 643.066,2593.74 644.489,2593.71 C645.911,2593.68 647.272,2594.1 648.571,2594.97 L647.55,2639.13 C651.633,2635.72 656.24,2634.02 661.374,2634.02 C665.208,2634.02 668.425,2635.57 671.022,2638.66 C673.62,2641.75 674.919,2645.37 674.919,2649.52 C674.919,2652.36 674.115,2655.07 672.507,2657.63 C670.898,2660.2 669.198,2662.26 667.404,2663.8 C665.61,2665.35 662.874,2667.48 659.194,2670.2 C655.514,2672.93 653.302,2674.6 652.56,2675.21 C652.065,2675.65 651.401,2676.42 650.566,2677.53 C649.731,2678.65 648.942,2679.5 648.2,2680.09 C647.458,2680.67 646.623,2680.97 645.695,2680.97 C644.705,2680.97 643.87,2680.61 643.19,2679.9 C642.51,2679.19 642.17,2678.28 642.17,2677.16"/>
<path class="FiguredBass" d="M1542.22,2497.1 C1537.64,2497.1 1534.59,2498.94 1533.08,2502.62 C1531.56,2506.3 1530.8,2511.51 1530.8,2518.25 L1530.8,2529.2 C1534.02,2527.9 1536.8,2527.22 1539.15,2527.16 C1547.19,2527.16 1553.52,2528.94 1558.13,2532.49 C1562.73,2536.05 1565.04,2541.34 1565.04,2548.36 C1565.04,2555.38 1562.7,2560.68 1558.03,2564.27 C1553.36,2567.86 1547.07,2569.65 1539.15,2569.65 C1531.05,2569.65 1524.71,2565.89 1520.14,2558.38 C1515.56,2550.86 1513.27,2541.94 1513.27,2531.61 C1513.27,2521.35 1515.93,2512.44 1521.25,2504.89 C1526.57,2497.35 1533.56,2493.58 1542.22,2493.58 C1547.91,2493.58 1552.82,2495.01 1556.97,2497.89 C1561.11,2500.77 1563.18,2504.55 1563.18,2509.25 C1563.18,2511.98 1562.19,2514.33 1560.21,2516.31 C1558.23,2518.28 1555.87,2519.27 1553.12,2519.27 C1550.36,2519.27 1548,2518.28 1546.02,2516.31 C1544.04,2514.33 1543.05,2511.98 1543.05,2509.25 C1543.05,2506.6 1544.04,2504.24 1546.02,2502.2 C1546.7,2501.4 1547.66,2500.72 1548.9,2500.16 C1548.59,2499.36 1547.97,2498.74 1547.04,2498.31 C1545.68,2497.5 1544.07,2497.1 1542.22,2497.1 M1546.76,2535.05 C1545.65,2532.14 1543.21,2530.69 1539.43,2530.69 C1535.66,2530.69 1533.32,2532.14 1532.43,2535.05 C1531.53,2537.95 1531.08,2542.37 1531.08,2548.31 C1531.08,2555.3 1531.53,2560 1532.43,2562.41 C1533.32,2564.83 1535.66,2566.03 1539.43,2566.03 C1543.21,2566.03 1545.65,2564.58 1546.76,2561.67 C1547.87,2558.76 1548.43,2554.33 1548.43,2548.36 C1548.43,2542.39 1547.87,2537.95 1546.76,2535.05"/>
<path class="FiguredBass" d="M1533.4,2665.75 L1533.4,2685.14 C1533.4,2687.06 1532.43,2688.02 1530.48,2688.02 C1528.53,2688.02 1527.56,2687.06 1527.56,2685.14 L1527.56,2668.26 L1524.59,2669.46 C1524.28,2669.59 1523.88,2669.65 1523.38,2669.65 C1522.58,2669.65 1521.87,2669.34 1521.25,2668.72 C1520.63,2668.1 1520.32,2667.39 1520.32,2666.59 L1520.32,2657.12 C1520.32,2655.76 1520.97,2654.8 1522.27,2654.25 L1527.56,2652.02 L1527.56,2632.54 L1524.59,2633.74 C1524.4,2633.81 1524.16,2633.84 1523.85,2633.84 C1523.72,2633.84 1523.57,2633.84 1523.38,2633.84 C1522.45,2633.71 1521.71,2633.37 1521.16,2632.82 C1520.6,2632.26 1520.32,2631.61 1520.32,2630.87 L1520.32,2621.41 C1520.32,2620.11 1520.97,2619.18 1522.27,2618.62 L1527.56,2616.4 L1527.56,2596.64 C1527.56,2594.72 1528.53,2593.76 1530.48,2593.76 C1532.43,2593.76 1533.4,2594.72 1533.4,2596.64 L1533.4,2613.98 L1545.37,2608.97 L1545.37,2589.58 C1545.37,2587.67 1546.33,2586.71 1548.25,2586.71 C1550.16,2586.71 1551.12,2587.67 1551.12,2589.58 L1551.12,2606.66 L1554.37,2605.26 C1554.68,2605.14 1555.02,2605.08 1555.39,2605.08 C1556.19,2605.08 1556.92,2605.39 1557.57,2606.01 C1558.22,2606.62 1558.54,2607.34 1558.54,2608.14 L1558.54,2617.6 C1558.54,2618.96 1557.86,2619.92 1556.5,2620.48 L1551.12,2622.7 L1551.12,2642.28 L1554.37,2640.98 C1554.55,2640.92 1554.77,2640.89 1555.02,2640.89 C1555.14,2640.89 1555.27,2640.89 1555.39,2640.89 C1556.44,2641.07 1557.23,2641.41 1557.76,2641.91 C1558.28,2642.4 1558.54,2643.05 1558.54,2643.86 L1558.54,2653.32 C1558.54,2654.62 1557.86,2655.55 1556.5,2656.1 L1551.12,2658.33 L1551.12,2678.09 C1551.12,2680.01 1550.16,2680.97 1548.25,2680.97 C1546.33,2680.97 1545.37,2680.01 1545.37,2678.09 L1545.37,2660.74 L1533.4,2665.75 M1533.4,2649.61 L1545.37,2644.69 L1545.37,2625.12 L1533.4,2630.13 L1533.4,2649.61 "/>
<path class="FiguredBass" d="M2486.97,2497.1 C2482.39,2497.1 2479.35,2498.94 2477.83,2502.62 C2476.32,2506.3 2475.56,2511.51 2475.56,2518.25 L2475.56,2529.2 C2478.77,2527.9 2481.56,2527.22 2483.91,2527.16 C2491.95,2527.16 2498.27,2528.94 2502.88,2532.49 C2507.49,2536.05 2509.79,2541.34 2509.79,2548.36 C2509.79,2555.38 2507.46,2560.68 2502.79,2564.27 C2498.12,2567.86 2491.82,2569.65 2483.91,2569.65 C2475.81,2569.65 2469.47,2565.89 2464.89,2558.38 C2460.31,2550.86 2458.02,2541.94 2458.02,2531.61 C2458.02,2521.35 2460.68,2512.44 2466,2504.89 C2471.32,2497.35 2478.31,2493.58 2486.97,2493.58 C2492.66,2493.58 2497.58,2495.01 2501.72,2497.89 C2505.86,2500.77 2507.94,2504.55 2507.94,2509.25 C2507.94,2511.98 2506.95,2514.33 2504.97,2516.31 C2502.99,2518.28 2500.62,2519.27 2497.87,2519.27 C2495.12,2519.27 2492.75,2518.28 2490.77,2516.31 C2488.79,2514.33 2487.8,2511.98 2487.8,2509.25 C2487.8,2506.6 2488.79,2504.24 2490.77,2502.2 C2491.45,2501.4 2492.41,2500.72 2493.65,2500.16 C2493.34,2499.36 2492.72,2498.74 2491.79,2498.31 C2490.43,2497.5 2488.83,2497.1 2486.97,2497.1 M2491.52,2535.05 C2490.4,2532.14 2487.96,2530.69 2484.19,2530.69 C2480.41,2530.69 2478.08,2532.14 2477.18,2535.05 C2476.29,2537.95 2475.84,2542.37 2475.84,2548.31 C2475.84,2555.3 2476.29,2560 2477.18,2562.41 C2478.08,2564.83 2480.41,2566.03 2484.19,2566.03 C2487.96,2566.03 2490.4,2564.58 2491.52,2561.67 C2492.63,2558.76 2493.19,2554.33 2493.19,2548.36 C2493.19,2542.39 2492.63,2537.95 2491.52,2535.05"/>
<path class="FiguredBass" d="M3369.11,2497.1 C3364.53,2497.1 3361.49,2498.94 3359.97,2502.62 C3358.46,2506.3 3357.7,2511.51 3357.7,2518.25 L3357.7,2529.2 C3360.91,2527.9 3363.7,2527.22 3366.05,2527.16 C3374.09,2527.16 3380.41,2528.94 3385.02,2532.49 C3389.63,2536.05 3391.93,2541.34 3391.93,2548.36 C3391.93,2555.38 3389.6,2560.68 3384.93,2564.27 C3380.26,2567.86 3373.96,2569.65 3366.05,2569.65 C3357.94,2569.65 3351.61,2565.89 3347.03,2558.38 C3342.45,2550.86 3340.16,2541.94 3340.16,2531.61 C3340.16,2521.35 3342.82,2512.44 3348.14,2504.89 C3353.46,2497.35 3360.45,2493.58 3369.11,2493.58 C3374.8,2493.58 3379.72,2495.01 3383.86,2497.89 C3388,2500.77 3390.08,2504.55 3390.08,2509.25 C3390.08,2511.98 3389.09,2514.33 3387.11,2516.31 C3385.13,2518.28 3382.76,2519.27 3380.01,2519.27 C3377.26,2519.27 3374.89,2518.28 3372.91,2516.31 C3370.93,2514.33 3369.94,2511.98 3369.94,2509.25 C3369.94,2506.6 3370.93,2504.24 3372.91,2502.2 C3373.59,2501.4 3374.55,2500.72 3375.79,2500.16 C3375.48,2499.36 3374.86,2498.74 3373.93,2498.31 C3372.57,2497.5 3370.96,2497.1 3369.11,2497.1 M3373.65,2535.05 C3372.54,2532.14 3370.1,2530.69 3366.33,2530.69 C3362.55,2530.69 3360.22,2532.14 3359.32,2535.05 C3358.42,2537.95 3357.98,2542.37 3357.98,2548.31 C3357.98,2555.3 3358.42,2560 3359.32,2562.41 C3360.22,2564.83 3362.55,2566.03 3366.33,2566.03 C3370.1,2566.03 3372.54,2564.58 3373.65,2561.67 C3374.77,2558.76 3375.32,2554.33 3375.32,2548.36 C3375.32,2542.39 3374.77,2537.95 3373.65,2535.05"/>
<path class="FiguredBass" d="M671.952,1838.97 C671.952,1839.96 672.508,1840.92 673.622,1841.84 C674.735,1842.77 675.957,1843.65 677.286,1844.49 C678.616,1845.32 679.838,1846.9 680.951,1849.22 C682.064,1851.54 682.621,1854.46 682.621,1857.99 C682.621,1864.79 680.054,1870.05 674.921,1873.76 C669.787,1877.47 663.293,1879.33 655.438,1879.33 C649.13,1879.33 643.64,1877.75 638.971,1874.59 C634.301,1871.44 631.966,1867.3 631.966,1862.16 C631.966,1859.44 632.956,1857.08 634.935,1855.07 C636.914,1853.06 639.28,1852.05 642.032,1852.05 C644.785,1852.05 647.119,1853.04 649.037,1855.02 C650.954,1857 651.913,1859.38 651.913,1862.16 C651.913,1863.4 650.892,1864.74 648.851,1866.2 C646.81,1867.65 645.79,1869 645.79,1870.23 C645.79,1872.15 646.733,1873.56 648.619,1874.45 C650.506,1875.35 652.779,1875.8 655.438,1875.8 C658.902,1875.8 661.36,1874.08 662.814,1870.65 C664.267,1867.22 664.994,1863 664.994,1857.99 L664.994,1855.58 C664.994,1852.24 664.886,1849.7 664.669,1847.97 C664.453,1846.24 663.772,1844.69 662.628,1843.33 C661.484,1841.97 659.737,1841.29 657.386,1841.29 L645.233,1841.29 C643.811,1841.29 643.099,1840.52 643.099,1838.97 C643.099,1837.55 643.811,1836.84 645.233,1836.84 L657.386,1836.84 C659.922,1836.84 661.901,1835.88 663.324,1833.96 C663.819,1833.28 664.221,1832.17 664.53,1830.62 C664.839,1828.58 664.994,1825.64 664.994,1821.81 L664.994,1820.6 C664.994,1811.38 661.592,1806.78 654.789,1806.78 C648.789,1806.78 645.79,1808.45 645.79,1811.79 C645.79,1812.9 646.702,1814.09 648.527,1815.36 C650.351,1816.63 651.263,1817.82 651.263,1818.93 C651.263,1821.34 650.413,1823.41 648.712,1825.15 C647.011,1826.88 644.939,1827.74 642.496,1827.74 C640.053,1827.74 637.997,1826.88 636.327,1825.15 C634.657,1823.41 633.822,1821.34 633.822,1818.93 C633.822,1814.17 635.894,1810.36 640.038,1807.52 C644.182,1804.67 649.099,1803.25 654.789,1803.25 C662.272,1803.25 668.426,1804.69 673.251,1807.57 C678.075,1810.44 680.487,1814.79 680.487,1820.6 C680.487,1824.74 680.054,1827.96 679.188,1830.25 C678.322,1832.54 677.333,1833.93 676.219,1834.42 C675.106,1834.92 674.117,1835.49 673.251,1836.14 C672.385,1836.79 671.952,1837.73 671.952,1838.97"/>
<path class="FiguredBass" d="M660.077,1912.53 C655.5,1912.53 652.454,1914.37 650.939,1918.05 C649.423,1921.73 648.666,1926.94 648.666,1933.68 L648.666,1944.63 C651.882,1943.33 654.665,1942.65 657.015,1942.59 C665.056,1942.59 671.38,1944.36 675.987,1947.92 C680.595,1951.48 682.899,1956.76 682.899,1963.78 C682.899,1970.8 680.564,1976.11 675.895,1979.69 C671.225,1983.28 664.932,1985.08 657.015,1985.08 C648.913,1985.08 642.574,1981.32 637.997,1973.8 C633.42,1966.29 631.132,1957.37 631.132,1947.04 C631.132,1936.77 633.791,1927.87 639.11,1920.32 C644.429,1912.77 651.418,1909 660.077,1909 C665.767,1909 670.684,1910.44 674.828,1913.32 C678.972,1916.19 681.044,1919.98 681.044,1924.68 C681.044,1927.4 680.054,1929.75 678.075,1931.73 C676.096,1933.71 673.73,1934.7 670.978,1934.7 C668.225,1934.7 665.86,1933.71 663.881,1931.73 C661.901,1929.75 660.912,1927.4 660.912,1924.68 C660.912,1922.02 661.901,1919.67 663.881,1917.63 C664.561,1916.83 665.52,1916.14 666.757,1915.59 C666.447,1914.78 665.829,1914.17 664.901,1913.73 C663.54,1912.93 661.932,1912.53 660.077,1912.53 M664.623,1950.47 C663.509,1947.56 661.066,1946.11 657.294,1946.11 C653.521,1946.11 651.186,1947.56 650.289,1950.47 C649.392,1953.38 648.944,1957.8 648.944,1963.74 C648.944,1970.73 649.392,1975.43 650.289,1977.84 C651.186,1980.25 653.521,1981.46 657.294,1981.46 C661.066,1981.46 663.509,1980 664.623,1977.1 C665.736,1974.19 666.293,1969.75 666.293,1963.78 C666.293,1957.82 665.736,1953.38 664.623,1950.47"/>
<path class="FiguredBass" d="M1554.09,1838.97 C1554.09,1839.96 1554.65,1840.92 1555.76,1841.84 C1556.87,1842.77 1558.1,1843.65 1559.43,1844.49 C1560.75,1845.32 1561.98,1846.9 1563.09,1849.22 C1564.2,1851.54 1564.76,1854.46 1564.76,1857.99 C1564.76,1864.79 1562.19,1870.05 1557.06,1873.76 C1551.93,1877.47 1545.43,1879.33 1537.58,1879.33 C1531.27,1879.33 1525.78,1877.75 1521.11,1874.59 C1516.44,1871.44 1514.11,1867.3 1514.11,1862.16 C1514.11,1859.44 1515.09,1857.08 1517.07,1855.07 C1519.05,1853.06 1521.42,1852.05 1524.17,1852.05 C1526.92,1852.05 1529.26,1853.04 1531.18,1855.02 C1533.09,1857 1534.05,1859.38 1534.05,1862.16 C1534.05,1863.4 1533.03,1864.74 1530.99,1866.2 C1528.95,1867.65 1527.93,1869 1527.93,1870.23 C1527.93,1872.15 1528.87,1873.56 1530.76,1874.45 C1532.64,1875.35 1534.92,1875.8 1537.58,1875.8 C1541.04,1875.8 1543.5,1874.08 1544.95,1870.65 C1546.41,1867.22 1547.13,1863 1547.13,1857.99 L1547.13,1855.58 C1547.13,1852.24 1547.02,1849.7 1546.81,1847.97 C1546.59,1846.24 1545.91,1844.69 1544.77,1843.33 C1543.62,1841.97 1541.88,1841.29 1539.53,1841.29 L1527.37,1841.29 C1525.95,1841.29 1525.24,1840.52 1525.24,1838.97 C1525.24,1837.55 1525.95,1836.84 1527.37,1836.84 L1539.53,1836.84 C1542.06,1836.84 1544.04,1835.88 1545.46,1833.96 C1545.96,1833.28 1546.36,1832.17 1546.67,1830.62 C1546.98,1828.58 1547.13,1825.64 1547.13,1821.81 L1547.13,1820.6 C1547.13,1811.38 1543.73,1806.78 1536.93,1806.78 C1530.93,1806.78 1527.93,1808.45 1527.93,1811.79 C1527.93,1812.9 1528.84,1814.09 1530.67,1815.36 C1532.49,1816.63 1533.4,1817.82 1533.4,1818.93 C1533.4,1821.34 1532.55,1823.41 1530.85,1825.15 C1529.15,1826.88 1527.08,1827.74 1524.64,1827.74 C1522.19,1827.74 1520.14,1826.88 1518.47,1825.15 C1516.8,1823.41 1515.96,1821.34 1515.96,1818.93 C1515.96,1814.17 1518.03,1810.36 1522.18,1807.52 C1526.32,1804.67 1531.24,1803.25 1536.93,1803.25 C1544.41,1803.25 1550.57,1804.69 1555.39,1807.57 C1560.21,1810.44 1562.63,1814.79 1562.63,1820.6 C1562.63,1824.74 1562.19,1827.96 1561.33,1830.25 C1560.46,1832.54 1559.47,1833.93 1558.36,1834.42 C1557.24,1834.92 1556.26,1835.49 1555.39,1836.14 C1554.52,1836.79 1554.09,1837.73 1554.09,1838.97"/>
<path class="FiguredBass" d="M1542.22,1912.53 C1537.64,1912.53 1534.59,1914.37 1533.08,1918.05 C1531.56,1921.73 1530.8,1926.94 1530.8,1933.68 L1530.8,1944.63 C1534.02,1943.33 1536.8,1942.65 1539.15,1942.59 C1547.19,1942.59 1553.52,1944.36 1558.13,1947.92 C1562.73,1951.48 1565.04,1956.76 1565.04,1963.78 C1565.04,1970.8 1562.7,1976.11 1558.03,1979.69 C1553.36,1983.28 1547.07,1985.08 1539.15,1985.08 C1531.05,1985.08 1524.71,1981.32 1520.14,1973.8 C1515.56,1966.29 1513.27,1957.37 1513.27,1947.04 C1513.27,1936.77 1515.93,1927.87 1521.25,1920.32 C1526.57,1912.77 1533.56,1909 1542.22,1909 C1547.91,1909 1552.82,1910.44 1556.97,1913.32 C1561.11,1916.19 1563.18,1919.98 1563.18,1924.68 C1563.18,1927.4 1562.19,1929.75 1560.21,1931.73 C1558.23,1933.71 1555.87,1934.7 1553.12,1934.7 C1550.36,1934.7 1548,1933.71 1546.02,1931.73 C1544.04,1929.75 1543.05,1927.4 1543.05,1924.68 C1543.05,1922.02 1544.04,1919.67 1546.02,1917.63 C1546.7,1916.83 1547.66,1916.14 1548.9,1915.59 C1548.59,1914.78 1547.97,1914.17 1547.04,1913.73 C1545.68,1912.93 1544.07,1912.53 1542.22,1912.53 M1546.76,1950.47 C1545.65,1947.56 1543.21,1946.11 1539.43,1946.11 C1535.66,1946.11 1533.32,1947.56 1532.43,1950.47 C1531.53,1953.38 1531.08,1957.8 1531.08,1963.74 C1531.08,1970.73 1531.53,1975.43 1532.43,1977.84 C1533.32,1980.25 1535.66,1981.46 1539.43,1981.46 C1543.21,1981.46 1545.65,1980 1546.76,1977.1 C1547.87,1974.19 1548.43,1969.75 1548.43,1963.78 C1548.43,1957.82 1547.87,1953.38 1546.76,1950.47"/>
<path class="FiguredBass" d="M2498.84,1838.97 C2498.84,1839.96 2499.4,1840.92 2500.51,1841.84 C2501.63,1842.77 2502.85,1843.65 2504.18,1844.49 C2505.51,1845.32 2506.73,1846.9 2507.84,1849.22 C2508.96,1851.54 2509.51,1854.46 2509.51,1857.99 C2509.51,1864.79 2506.95,1870.05 2501.81,1873.76 C2496.68,1877.47 2490.19,1879.33 2482.33,1879.33 C2476.02,1879.33 2470.53,1877.75 2465.86,1874.59 C2461.19,1871.44 2458.86,1867.3 2458.86,1862.16 C2458.86,1859.44 2459.85,1857.08 2461.83,1855.07 C2463.81,1853.06 2466.17,1852.05 2468.93,1852.05 C2471.68,1852.05 2474.01,1853.04 2475.93,1855.02 C2477.85,1857 2478.81,1859.38 2478.81,1862.16 C2478.81,1863.4 2477.79,1864.74 2475.74,1866.2 C2473.7,1867.65 2472.68,1869 2472.68,1870.23 C2472.68,1872.15 2473.63,1873.56 2475.51,1874.45 C2477.4,1875.35 2479.67,1875.8 2482.33,1875.8 C2485.79,1875.8 2488.25,1874.08 2489.71,1870.65 C2491.16,1867.22 2491.89,1863 2491.89,1857.99 L2491.89,1855.58 C2491.89,1852.24 2491.78,1849.7 2491.56,1847.97 C2491.35,1846.24 2490.67,1844.69 2489.52,1843.33 C2488.38,1841.97 2486.63,1841.29 2484.28,1841.29 L2472.13,1841.29 C2470.7,1841.29 2469.99,1840.52 2469.99,1838.97 C2469.99,1837.55 2470.7,1836.84 2472.13,1836.84 L2484.28,1836.84 C2486.82,1836.84 2488.79,1835.88 2490.22,1833.96 C2490.71,1833.28 2491.11,1832.17 2491.42,1830.62 C2491.73,1828.58 2491.89,1825.64 2491.89,1821.81 L2491.89,1820.6 C2491.89,1811.38 2488.49,1806.78 2481.68,1806.78 C2475.68,1806.78 2472.68,1808.45 2472.68,1811.79 C2472.68,1812.9 2473.6,1814.09 2475.42,1815.36 C2477.24,1816.63 2478.16,1817.82 2478.16,1818.93 C2478.16,1821.34 2477.31,1823.41 2475.61,1825.15 C2473.9,1826.88 2471.83,1827.74 2469.39,1827.74 C2466.95,1827.74 2464.89,1826.88 2463.22,1825.15 C2461.55,1823.41 2460.71,1821.34 2460.71,1818.93 C2460.71,1814.17 2462.79,1810.36 2466.93,1807.52 C2471.07,1804.67 2475.99,1803.25 2481.68,1803.25 C2489.17,1803.25 2495.32,1804.69 2500.14,1807.57 C2504.97,1810.44 2507.38,1814.79 2507.38,1820.6 C2507.38,1824.74 2506.95,1827.96 2506.08,1830.25 C2505.22,1832.54 2504.23,1833.93 2503.11,1834.42 C2502,1834.92 2501.01,1835.49 2500.14,1836.14 C2499.28,1836.79 2498.84,1837.73 2498.84,1838.97"/>
<path class="FiguredBass" d="M2486.97,1912.53 C2482.39,1912.53 2479.35,1914.37 2477.83,1918.05 C2476.32,1921.73 2475.56,1926.94 2475.56,1933.68 L2475.56,1944.63 C2478.77,1943.33 2481.56,1942.65 2483.91,1942.59 C2491.95,1942.59 2498.27,1944.36 2502.88,1947.92 C2507.49,1951.48 2509.79,1956.76 2509.79,1963.78 C2509.79,1970.8 2507.46,1976.11 2502.79,1979.69 C2498.12,1983.28 2491.82,1985.08 2483.91,1985.08 C2475.81,1985.08 2469.47,1981.32 2464.89,1973.8 C2460.31,1966.29 2458.02,1957.37 2458.02,1947.04 C2458.02,1936.77 2460.68,1927.87 2466,1920.32 C2471.32,1912.77 2478.31,1909 2486.97,1909 C2492.66,1909 2497.58,1910.44 2501.72,1913.32 C2505.86,1916.19 2507.94,1919.98 2507.94,1924.68 C2507.94,1927.4 2506.95,1929.75 2504.97,1931.73 C2502.99,1933.71 2500.62,1934.7 2497.87,1934.7 C2495.12,1934.7 2492.75,1933.71 2490.77,1931.73 C2488.79,1929.75 2487.8,1927.4 2487.8,1924.68 C2487.8,1922.02 2488.79,1919.67 2490.77,1917.63 C2491.45,1916.83 2492.41,1916.14 2493.65,1915.59 C2493.34,1914.78 2492.72,1914.17 2491.79,1913.73 C2490.43,1912.93 2488.83,1912.53 2486.97,1912.53 M2491.52,1950.47 C2490.4,1947.56 2487.96,1946.11 2484.19,1946.11 C2480.41,1946.11 2478.08,1947.56 2477.18,1950.47 C2476.29,1953.38 2475.84,1957.8 2475.84,1963.74 C2475.84,1970.73 2476.29,1975.43 2477.18,1977.84 C2478.08,1980.25 2480.41,1981.46 2484.19,1981.46 C2487.96,1981.46 2490.4,1980 2491.52,1977.1 C2492.63,1974.19 2493.19,1969.75 2493.19,1963.78 C2493.19,1957.82 2492.63,1953.38 2491.52,1950.47"/>
<path class="FiguredBass" d="M3380.98,1838.97 C3380.98,1839.96 3381.54,1840.92 3382.65,1841.84 C3383.77,1842.77 3384.99,1843.65 3386.32,1844.49 C3387.65,1845.32 3388.87,1846.9 3389.98,1849.22 C3391.1,1851.54 3391.65,1854.46 3391.65,1857.99 C3391.65,1864.79 3389.09,1870.05 3383.95,1873.76 C3378.82,1877.47 3372.32,1879.33 3364.47,1879.33 C3358.16,1879.33 3352.67,1877.75 3348,1874.59 C3343.33,1871.44 3341,1867.3 3341,1862.16 C3341,1859.44 3341.99,1857.08 3343.97,1855.07 C3345.95,1853.06 3348.31,1852.05 3351.06,1852.05 C3353.82,1852.05 3356.15,1853.04 3358.07,1855.02 C3359.99,1857 3360.94,1859.38 3360.94,1862.16 C3360.94,1863.4 3359.92,1864.74 3357.88,1866.2 C3355.84,1867.65 3354.82,1869 3354.82,1870.23 C3354.82,1872.15 3355.76,1873.56 3357.65,1874.45 C3359.54,1875.35 3361.81,1875.8 3364.47,1875.8 C3367.93,1875.8 3370.39,1874.08 3371.85,1870.65 C3373.3,1867.22 3374.03,1863 3374.03,1857.99 L3374.03,1855.58 C3374.03,1852.24 3373.92,1849.7 3373.7,1847.97 C3373.48,1846.24 3372.8,1844.69 3371.66,1843.33 C3370.52,1841.97 3368.77,1841.29 3366.42,1841.29 L3354.26,1841.29 C3352.84,1841.29 3352.13,1840.52 3352.13,1838.97 C3352.13,1837.55 3352.84,1836.84 3354.26,1836.84 L3366.42,1836.84 C3368.95,1836.84 3370.93,1835.88 3372.36,1833.96 C3372.85,1833.28 3373.25,1832.17 3373.56,1830.62 C3373.87,1828.58 3374.03,1825.64 3374.03,1821.81 L3374.03,1820.6 C3374.03,1811.38 3370.62,1806.78 3363.82,1806.78 C3357.82,1806.78 3354.82,1808.45 3354.82,1811.79 C3354.82,1812.9 3355.73,1814.09 3357.56,1815.36 C3359.38,1816.63 3360.3,1817.82 3360.3,1818.93 C3360.3,1821.34 3359.44,1823.41 3357.74,1825.15 C3356.04,1826.88 3353.97,1827.74 3351.53,1827.74 C3349.08,1827.74 3347.03,1826.88 3345.36,1825.15 C3343.69,1823.41 3342.85,1821.34 3342.85,1818.93 C3342.85,1814.17 3344.93,1810.36 3349.07,1807.52 C3353.21,1804.67 3358.13,1803.25 3363.82,1803.25 C3371.3,1803.25 3377.46,1804.69 3382.28,1807.57 C3387.11,1810.44 3389.52,1814.79 3389.52,1820.6 C3389.52,1824.74 3389.09,1827.96 3388.22,1830.25 C3387.35,1832.54 3386.36,1833.93 3385.25,1834.42 C3384.14,1834.92 3383.15,1835.49 3382.28,1836.14 C3381.42,1836.79 3380.98,1837.73 3380.98,1838.97"/>
<path class="FiguredBass" d="M3369.11,1912.53 C3364.53,1912.53 3361.49,1914.37 3359.97,1918.05 C3358.46,1921.73 3357.7,1926.94 3357.7,1933.68 L3357.7,1944.63 C3360.91,1943.33 3363.7,1942.65 3366.05,1942.59 C3374.09,1942.59 3380.41,1944.36 3385.02,1947.92 C3389.63,1951.48 3391.93,1956.76 3391.93,1963.78 C3391.93,1970.8 3389.6,1976.11 3384.93,1979.69 C3380.26,1983.28 3373.96,1985.08 3366.05,1985.08 C3357.94,1985.08 3351.61,1981.32 3347.03,1973.8 C3342.45,1966.29 3340.16,1957.37 3340.16,1947.04 C3340.16,1936.77 3342.82,1927.87 3348.14,1920.32 C3353.46,1912.77 3360.45,1909 3369.11,1909 C3374.8,1909 3379.72,1910.44 3383.86,1913.32 C3388,1916.19 3390.08,1919.98 3390.08,1924.68 C3390.08,1927.4 3389.09,1929.75 3387.11,1931.73 C3385.13,1933.71 3382.76,1934.7 3380.01,1934.7 C3377.26,1934.7 3374.89,1933.71 3372.91,1931.73 C3370.93,1929.75 3369.94,1927.4 3369.94,1924.68 C3369.94,1922.02 3370.93,1919.67 3372.91,1917.63 C3373.59,1916.83 3374.55,1916.14 3375.79,1915.59 C3375.48,1914.78 3374.86,1914.17 3373.93,1913.73 C3372.57,1912.93 3370.96,1912.53 3369.11,1912.53 M3373.65,1950.47 C3372.54,1947.56 3370.1,1946.11 3366.33,1946.11 C3362.55,1946.11 3360.22,1947.56 3359.32,1950.47 C3358.42,1953.38 3357.98,1957.8 3357.98,1963.74 C3357.98,1970.73 3358.42,1975.43 3359.32,1977.84 C3360.22,1980.25 3362.55,1981.46 3366.33,1981.46 C3370.1,1981.46 3372.54,1980 3373.65,1977.1 C3374.77,1974.19 3375.32,1969.75 3375.32,1963.78 C3375.32,1957.82 3374.77,1953.38 3373.65,1950.47"/>
<polyline class="FretDiagram" stroke="#fc0107" stroke-width="4.76" stroke-linejoin="bevel" points="556.458,209.594 769.566,209.594"/>
<polyline class="FretDiagram" stroke="#fc0107" stroke-width="4.76" stroke-linejoin="bevel" points="558.839,197.688 558.839,423.893"/>
<polyline class="FretDiagram" stroke="#fc0107" stroke-width="4.76" stroke-linejoin="bevel" points="600.508,197.688 600.508,423.893"/>
<polyline class="FretDiagram" stroke="#fc0107" stroke-width="4.76" stroke-linejoin="bevel" points="642.177,197.688 642.177,423.893"/>
<polyline class="FretDiagram" stroke="#fc0107" stroke-width="4.76" stroke-linejoin="bevel" points="683.847,197.688 683.847,423.893"/>
<polyline class="FretDiagram" stroke="#fc0107" stroke-width="4.76" stroke-linejoin="bevel" points="725.516,197.688 725.516,423.893"/>
<polyline class="FretDiagram" stroke="#fc0107" stroke-width="4.76" stroke-linejoin="bevel" points="767.185,197.688 767.185,423.893"/>
<polyline class="FretDiagram" stroke="#fc0107" stroke-width="4.76" stroke-linejoin="bevel" points="558.839,257.216 767.185,257.216"/>
<polyline class="FretDiagram" stroke="#fc0107" stroke-width="4.76" stroke-linejoin="bevel" points="558.839,304.838 767.185,304.838"/>
<polyline class="FretDiagram" stroke="#fc0107" stroke-width="4.76" stroke-linejoin="bevel" points="558.839,352.46 767.185,352.46"/>
<polyline class="FretDiagram" stroke="#fc0107" stroke-width="4.76" stroke-linejoin="bevel" points="558.839,400.082 767.185,400.082"/>
<path class="FretDiagram" fill="#fc0107" fill-rule="evenodd" d="M656.762,281.027 C656.762,289.082 650.232,295.611 642.177,295.611 C634.123,295.611 627.593,289.082 627.593,281.027 C627.593,272.972 634.123,266.443 642.177,266.443 C650.232,266.443 656.762,272.972 656.762,281.027"/>
<path class="FretDiagram" fill="#fc0107" fill-rule="evenodd" d="M698.431,233.405 C698.431,241.459 691.901,247.989 683.847,247.989 C675.792,247.989 669.262,241.459 669.262,233.405 C669.262,225.35 675.792,218.821 683.847,218.821 C691.901,218.821 698.431,225.35 698.431,233.405"/>
<path class="FretDiagram" fill="#fc0107" fill-rule="evenodd" d="M740.1,233.405 C740.1,241.459 733.571,247.989 725.516,247.989 C717.461,247.989 710.932,241.459 710.932,233.405 C710.932,225.35 717.461,218.821 725.516,218.821 C733.571,218.821 740.1,225.35 740.1,233.405"/>
<polyline class="FretDiagram" fill="none" stroke="#fc0107" stroke-width="6.86" stroke-linecap="round" stroke-linejoin="bevel" points="542.171,145.304 575.506,178.639"/>
<polyline class="FretDiagram" fill="none" stroke="#fc0107" stroke-width="6.86" stroke-linecap="round" stroke-linejoin="bevel" points="542.171,178.639 575.506,145.304"/>
<polyline class="FretDiagram" fill="none" stroke="#fc0107" stroke-width="6.86" stroke-linecap="round" stroke-linejoin="bevel" points="583.84,145.304 617.176,178.639"/>
<polyline class="FretDiagram" fill="none" stroke="#fc0107" stroke-width="6.86" stroke-linecap="round" stroke-linejoin="bevel" points="583.84,178.639 617.176,145.304"/>
<polyline class="FretDiagram" fill="none" stroke="#fc0107" stroke-width="6.86" stroke-linecap="round" stroke-linejoin="bevel" points="750.517,145.304 783.853,178.639"/>
<polyline class="FretDiagram" fill="none" stroke="#fc0107" stroke-width="6.86" stroke-linecap="round" stroke-linejoin="bevel" points="750.517,178.639 783.853,145.304"/>
<path class="FretDiagram" fill="#fc0107" d="M534.59,199.301 L534.59,207.566 L506.565,207.566 L503.905,226.376 C507.642,223.653 511.79,222.291 516.35,222.291 C522.81,222.291 528.051,224.365 532.072,228.514 C536.094,232.662 538.105,238.061 538.105,244.711 C538.105,251.805 535.952,257.6 531.645,262.096 C527.338,266.593 521.797,268.841 515.02,268.841 C512.423,268.841 510.032,268.556 507.847,267.986 C505.662,267.416 503.857,266.735 502.432,265.944 C501.007,265.152 499.709,264.107 498.537,262.809 C497.366,261.51 496.479,260.37 495.877,259.389 C495.276,258.407 494.706,257.172 494.167,255.684 C493.629,254.195 493.297,253.166 493.17,252.596 C493.043,252.026 492.885,251.203 492.695,250.126 L501.055,250.126 C503.018,257.663 507.61,261.431 514.83,261.431 C519.39,261.431 522.984,260.038 525.612,257.251 C528.241,254.465 529.555,250.665 529.555,245.851 C529.555,240.848 528.225,236.905 525.565,234.024 C522.905,231.142 519.327,229.701 514.83,229.701 C512.233,229.701 510.017,230.16 508.18,231.079 C506.343,231.997 504.443,233.628 502.48,235.971 L494.785,235.971 L499.82,199.301 L534.59,199.301 "/>
<polyline class="FretDiagram" fill="#fc0107" stroke="#fc0107" stroke-width="4.76" stroke-linejoin="bevel" points="1438.6,206.022 1651.7,206.022"/>
<polyline class="FretDiagram" fill="#fc0107" stroke="#fc0107" stroke-width="4.76" stroke-linejoin="bevel" points="1440.98,194.117 1440.98,420.321"/>
<polyline class="FretDiagram" fill="#fc0107" stroke="#fc0107" stroke-width="4.76" stroke-linejoin="bevel" points="1482.65,194.117 1482.65,420.321"/>
<polyline class="FretDiagram" fill="#fc0107" stroke="#fc0107" stroke-width="4.76" stroke-linejoin="bevel" points="1524.32,194.117 1524.32,420.321"/>
<polyline class="FretDiagram" fill="#fc0107" stroke="#fc0107" stroke-width="4.76" stroke-linejoin="bevel" points="1565.99,194.117 1565.99,420.321"/>
<polyline class="FretDiagram" fill="#fc0107" stroke="#fc0107" stroke-width="4.76" stroke-linejoin="bevel" points="1607.65,194.117 1607.65,420.321"/>
<polyline class="FretDiagram" fill="#fc0107" stroke="#fc0107" stroke-width="4.76" stroke-linejoin="bevel" points="1649.32,194.117 1649.32,420.321"/>
<polyline class="FretDiagram" fill="#fc0107" stroke="#fc0107" stroke-width="4.76" stroke-linejoin="bevel" points="1440.98,253.644 1649.32,253.644"/>
<polyline class="FretDiagram" fill="#fc0107" stroke="#fc0107" stroke-width="4.76" stroke-linejoin="bevel" points="1440.98,301.266 1649.32,301.266"/>
<polyline class="FretDiagram" fill="#fc0107" stroke="#fc0107" stroke-width="4.76" stroke-linejoin="bevel" points="1440.98,348.888 1649.32,348.888"/>
<polyline class="FretDiagram" fill="#fc0107" stroke="#fc0107" stroke-width="4.76" stroke-linejoin="bevel" points="1440.98,396.51 1649.32,396.51"/>
<path class="FretDiagram" fill="#fc0107" fill-rule="evenodd" d="M1538.9,229.833 C1538.9,237.888 1532.37,244.417 1524.32,244.417 C1516.26,244.417 1509.73,237.888 1509.73,229.833 C1509.73,221.778 1516.26,215.249 1524.32,215.249 C1532.37,215.249 1538.9,221.778 1538.9,229.833"/>
<path class="FretDiagram" fill="#fc0107" fill-rule="evenodd" d="M1580.57,229.833 C1580.57,237.888 1574.04,244.417 1565.99,244.417 C1557.93,244.417 1551.4,237.888 1551.4,229.833 C1551.4,221.778 1557.93,215.249 1565.99,215.249 C1574.04,215.249 1580.57,221.778 1580.57,229.833"/>
<path class="FretDiagram" fill="#fc0107" fill-rule="evenodd" d="M1622.24,229.833 C1622.24,237.888 1615.71,244.417 1607.65,244.417 C1599.6,244.417 1593.07,237.888 1593.07,229.833 C1593.07,221.778 1599.6,215.249 1607.65,215.249 C1615.71,215.249 1622.24,221.778 1622.24,229.833"/>
<polyline class="FretDiagram" fill="none" stroke="#fc0107" stroke-width="6.86" stroke-linecap="round" stroke-linejoin="bevel" points="1424.31,141.732 1457.65,175.068"/>
<polyline class="FretDiagram" fill="none" stroke="#fc0107" stroke-width="6.86" stroke-linecap="round" stroke-linejoin="bevel" points="1424.31,175.068 1457.65,141.732"/>
<polyline class="FretDiagram" fill="none" stroke="#fc0107" stroke-width="6.86" stroke-linecap="round" stroke-linejoin="bevel" points="1465.98,141.732 1499.31,175.068"/>
<polyline class="FretDiagram" fill="none" stroke="#fc0107" stroke-width="6.86" stroke-linecap="round" stroke-linejoin="bevel" points="1465.98,175.068 1499.31,141.732"/>
<polyline class="FretDiagram" fill="none" stroke="#fc0107" stroke-width="6.86" stroke-linecap="round" stroke-linejoin="bevel" points="1632.66,141.732 1665.99,175.068"/>
<polyline class="FretDiagram" fill="none" stroke="#fc0107" stroke-width="6.86" stroke-linecap="round" stroke-linejoin="bevel" points="1632.66,175.068 1665.99,141.732"/>
<path class="FretDiagram" fill="#fc0107" d="M1416.73,195.73 L1416.73,203.995 L1388.7,203.995 L1386.04,222.805 C1389.78,220.081 1393.93,218.72 1398.49,218.72 C1404.95,218.72 1410.19,220.794 1414.21,224.942 C1418.23,229.09 1420.24,234.49 1420.24,241.14 C1420.24,248.233 1418.09,254.028 1413.78,258.525 C1409.48,263.021 1403.94,265.27 1397.16,265.27 C1394.56,265.27 1392.17,264.985 1389.99,264.415 C1387.8,263.845 1386,263.164 1384.57,262.372 C1383.15,261.58 1381.85,260.535 1380.68,259.237 C1379.5,257.939 1378.62,256.799 1378.02,255.817 C1377.41,254.835 1376.84,253.6 1376.31,252.112 C1375.77,250.624 1375.44,249.595 1375.31,249.025 C1375.18,248.455 1375.02,247.631 1374.83,246.555 L1383.19,246.555 C1385.16,254.091 1389.75,257.86 1396.97,257.86 C1401.53,257.86 1405.12,256.466 1407.75,253.68 C1410.38,250.893 1411.69,247.093 1411.69,242.28 C1411.69,237.276 1410.36,233.334 1407.7,230.452 C1405.04,227.57 1401.47,226.13 1396.97,226.13 C1394.37,226.13 1392.16,226.589 1390.32,227.507 C1388.48,228.425 1386.58,230.056 1384.62,232.4 L1376.92,232.4 L1381.96,195.73 L1416.73,195.73 "/>
<polyline class="FretDiagram" fill="#fc0107" stroke="#fc0107" stroke-width="4.76" stroke-linejoin="bevel" points="2383.35,269.121 2596.46,269.121"/>
<polyline class="FretDiagram" fill="#fc0107" stroke="#fc0107" stroke-width="4.76" stroke-linejoin="bevel" points="2385.73,257.216 2385.73,483.421"/>
<polyline class="FretDiagram" fill="#fc0107" stroke="#fc0107" stroke-width="4.76" stroke-linejoin="bevel" points="2427.4,257.216 2427.4,483.421"/>
<polyline class="FretDiagram" fill="#fc0107" stroke="#fc0107" stroke-width="4.76" stroke-linejoin="bevel" points="2469.07,257.216 2469.07,483.421"/>
<polyline class="FretDiagram" fill="#fc0107" stroke="#fc0107" stroke-width="4.76" stroke-linejoin="bevel" points="2510.74,257.216 2510.74,483.421"/>
<polyline class="FretDiagram" fill="#fc0107" stroke="#fc0107" stroke-width="4.76" stroke-linejoin="bevel" points="2552.41,257.216 2552.41,483.421"/>
<polyline class="FretDiagram" fill="#fc0107" stroke="#fc0107" stroke-width="4.76" stroke-linejoin="bevel" points="2594.08,257.216 2594.08,483.421"/>
<polyline class="FretDiagram" fill="#fc0107" stroke="#fc0107" stroke-width="4.76" stroke-linejoin="bevel" points="2385.73,316.743 2594.08,316.743"/>
<polyline class="FretDiagram" fill="#fc0107" stroke="#fc0107" stroke-width="4.76" stroke-linejoin="bevel" points="2385.73,364.365 2594.08,364.365"/>
<polyline class="FretDiagram" fill="#fc0107" stroke="#fc0107" stroke-width="4.76" stroke-linejoin="bevel" points="2385.73,411.987 2594.08,411.987"/>
<polyline class="FretDiagram" fill="#fc0107" stroke="#fc0107" stroke-width="4.76" stroke-linejoin="bevel" points="2385.73,459.61 2594.08,459.61"/>
<path class="FretDiagram" fill="#fc0107" fill-rule="evenodd" d="M2483.65,340.554 C2483.65,348.609 2477.12,355.139 2469.07,355.139 C2461.02,355.139 2454.49,348.609 2454.49,340.554 C2454.49,332.5 2461.02,325.97 2469.07,325.97 C2477.12,325.97 2483.65,332.5 2483.65,340.554"/>
<path class="FretDiagram" fill="#fc0107" fill-rule="evenodd" d="M2566.99,292.932 C2566.99,300.987 2560.46,307.517 2552.41,307.517 C2544.35,307.517 2537.82,300.987 2537.82,292.932 C2537.82,284.878 2544.35,278.348 2552.41,278.348 C2560.46,278.348 2566.99,284.878 2566.99,292.932"/>
<path class="FretDiagram" fill="#fc0107" fill-rule="evenodd" d="M2608.66,388.176 C2608.66,396.231 2602.13,402.761 2594.08,402.761 C2586.02,402.761 2579.49,396.231 2579.49,388.176 C2579.49,380.122 2586.02,373.592 2594.08,373.592 C2602.13,373.592 2608.66,380.122 2608.66,388.176"/>
<polyline class="FretDiagram" fill="none" stroke="#fc0107" stroke-width="6.86" stroke-linecap="round" stroke-linejoin="bevel" points="2369.06,204.832 2402.4,238.167"/>
<polyline class="FretDiagram" fill="none" stroke="#fc0107" stroke-width="6.86" stroke-linecap="round" stroke-linejoin="bevel" points="2369.06,238.167 2402.4,204.832"/>
<polyline class="FretDiagram" fill="none" stroke="#fc0107" stroke-width="6.86" stroke-linecap="round" stroke-linejoin="bevel" points="2410.73,204.832 2444.07,238.167"/>
<polyline class="FretDiagram" fill="none" stroke="#fc0107" stroke-width="6.86" stroke-linecap="round" stroke-linejoin="bevel" points="2410.73,238.167 2444.07,204.832"/>
<polyline class="FretDiagram" fill="none" stroke="#fc0107" stroke-width="6.86" stroke-linecap="round" stroke-linejoin="bevel" points="2494.07,204.832 2527.41,238.167"/>
<polyline class="FretDiagram" fill="none" stroke="#fc0107" stroke-width="6.86" stroke-linecap="round" stroke-linejoin="bevel" points="2494.07,238.167 2527.41,204.832"/>
<path class="FretDiagram" fill="#fc0107" d="M2361.48,258.829 L2361.48,267.094 L2333.46,267.094 L2330.8,285.904 C2334.53,283.181 2338.68,281.819 2343.24,281.819 C2349.7,281.819 2354.94,283.893 2358.97,288.041 C2362.99,292.19 2365,297.589 2365,304.239 C2365,311.332 2362.84,317.127 2358.54,321.624 C2354.23,326.121 2348.69,328.369 2341.91,328.369 C2339.32,328.369 2336.93,328.084 2334.74,327.514 C2332.56,326.944 2330.75,326.263 2329.33,325.471 C2327.9,324.68 2326.6,323.635 2325.43,322.336 C2324.26,321.038 2323.37,319.898 2322.77,318.916 C2322.17,317.935 2321.6,316.7 2321.06,315.211 C2320.52,313.723 2320.19,312.694 2320.06,312.124 C2319.94,311.554 2319.78,310.731 2319.59,309.654 L2327.95,309.654 C2329.91,317.191 2334.5,320.959 2341.72,320.959 C2346.28,320.959 2349.88,319.566 2352.51,316.779 C2355.13,313.992 2356.45,310.192 2356.45,305.379 C2356.45,300.376 2355.12,296.433 2352.46,293.551 C2349.8,290.67 2346.22,289.229 2341.72,289.229 C2339.13,289.229 2336.91,289.688 2335.07,290.606 C2333.24,291.525 2331.34,293.156 2329.37,295.499 L2321.68,295.499 L2326.71,258.829 L2361.48,258.829 "/>
<polyline class="FretDiagram" fill="#fc0107" stroke="#fc0107" stroke-width="4.76" stroke-linejoin="bevel" points="3265.49,269.121 3478.6,269.121"/>
<polyline class="FretDiagram" fill="#fc0107" stroke="#fc0107" stroke-width="4.76" stroke-linejoin="bevel" points="3267.87,257.216 3267.87,483.421"/>
<polyline class="FretDiagram" fill="#fc0107" stroke="#fc0107" stroke-width="4.76" stroke-linejoin="bevel" points="3309.54,257.216 3309.54,483.421"/>
<polyline class="FretDiagram" fill="#fc0107" stroke="#fc0107" stroke-width="4.76" stroke-linejoin="bevel" points="3351.21,257.216 3351.21,483.421"/>
<polyline class="FretDiagram" fill="#fc0107" stroke="#fc0107" stroke-width="4.76" stroke-linejoin="bevel" points="3392.88,257.216 3392.88,483.421"/>
<polyline class="FretDiagram" fill="#fc0107" stroke="#fc0107" stroke-width="4.76" stroke-linejoin="bevel" points="3434.55,257.216 3434.55,483.421"/>
<polyline class="FretDiagram" fill="#fc0107" stroke="#fc0107" stroke-width="4.76" stroke-linejoin="bevel" points="3476.22,257.216 3476.22,483.421"/>
<polyline class="FretDiagram" fill="#fc0107" stroke="#fc0107" stroke-width="4.76" stroke-linejoin="bevel" points="3267.87,316.743 3476.22,316.743"/>
<polyline class="FretDiagram" fill="#fc0107" stroke="#fc0107" stroke-width="4.76" stroke-linejoin="bevel" points="3267.87,364.365 3476.22,364.365"/>
<polyline class="FretDiagram" fill="#fc0107" stroke="#fc0107" stroke-width="4.76" stroke-linejoin="bevel" points="3267.87,411.987 3476.22,411.987"/>
<polyline class="FretDiagram" fill="#fc0107" stroke="#fc0107" stroke-width="4.76" stroke-linejoin="bevel" points="3267.87,459.61 3476.22,459.61"/>
<path class="FretDiagram" fill="#fc0107" fill-rule="evenodd" d="M3365.79,292.932 C3365.79,300.987 3359.26,307.517 3351.21,307.517 C3343.15,307.517 3336.62,300.987 3336.62,292.932 C3336.62,284.878 3343.15,278.348 3351.21,278.348 C3359.26,278.348 3365.79,284.878 3365.79,292.932"/>
<path class="FretDiagram" fill="#fc0107" fill-rule="evenodd" d="M3449.13,292.932 C3449.13,300.987 3442.6,307.517 3434.55,307.517 C3426.49,307.517 3419.96,300.987 3419.96,292.932 C3419.96,284.878 3426.49,278.348 3434.55,278.348 C3442.6,278.348 3449.13,284.878 3449.13,292.932"/>
<path class="FretDiagram" fill="#fc0107" fill-rule="evenodd" d="M3490.8,388.176 C3490.8,396.231 3484.27,402.761 3476.22,402.761 C3468.16,402.761 3461.63,396.231 3461.63,388.176 C3461.63,380.122 3468.16,373.592 3476.22,373.592 C3484.27,373.592 3490.8,380.122 3490.8,388.176"/>
<polyline class="FretDiagram" fill="none" stroke="#fc0107" stroke-width="6.86" stroke-linecap="round" stroke-linejoin="bevel" points="3251.2,204.832 3284.54,238.167"/>
<polyline class="FretDiagram" fill="none" stroke="#fc0107" stroke-width="6.86" stroke-linecap="round" stroke-linejoin="bevel" points="3251.2,238.167 3284.54,204.832"/>
<polyline class="FretDiagram" fill="none" stroke="#fc0107" stroke-width="6.86" stroke-linecap="round" stroke-linejoin="bevel" points="3292.87,204.832 3326.21,238.167"/>
<polyline class="FretDiagram" fill="none" stroke="#fc0107" stroke-width="6.86" stroke-linecap="round" stroke-linejoin="bevel" points="3292.87,238.167 3326.21,204.832"/>
<polyline class="FretDiagram" fill="none" stroke="#fc0107" stroke-width="6.86" stroke-linecap="round" stroke-linejoin="bevel" points="3376.21,204.832 3409.55,238.167"/>
<polyline class="FretDiagram" fill="none" stroke="#fc0107" stroke-width="6.86" stroke-linecap="round" stroke-linejoin="bevel" points="3376.21,238.167 3409.55,204.832"/>
<path class="FretDiagram" fill="#fc0107" d="M3243.62,258.829 L3243.62,267.094 L3215.6,267.094 L3212.94,285.904 C3216.67,283.181 3220.82,281.819 3225.38,281.819 C3231.84,281.819 3237.08,283.893 3241.1,288.041 C3245.13,292.19 3247.14,297.589 3247.14,304.239 C3247.14,311.332 3244.98,317.127 3240.68,321.624 C3236.37,326.121 3230.83,328.369 3224.05,328.369 C3221.46,328.369 3219.06,328.084 3216.88,327.514 C3214.69,326.944 3212.89,326.263 3211.46,325.471 C3210.04,324.68 3208.74,323.635 3207.57,322.336 C3206.4,321.038 3205.51,319.898 3204.91,318.916 C3204.31,317.935 3203.74,316.7 3203.2,315.211 C3202.66,313.723 3202.33,312.694 3202.2,312.124 C3202.08,311.554 3201.92,310.731 3201.73,309.654 L3210.09,309.654 C3212.05,317.191 3216.64,320.959 3223.86,320.959 C3228.42,320.959 3232.02,319.566 3234.64,316.779 C3237.27,313.992 3238.59,310.192 3238.59,305.379 C3238.59,300.376 3237.26,296.433 3234.6,293.551 C3231.94,290.67 3228.36,289.229 3223.86,289.229 C3221.27,289.229 3219.05,289.688 3217.21,290.606 C3215.38,291.525 3213.48,293.156 3211.51,295.499 L3203.82,295.499 L3208.85,258.829 L3243.62,258.829 "/>
<path class="Bracket" transform="matrix(8.6315,0,0,9.28435,76.1283,2361.92)" d="M0.92002,-50 C2.69004,-51.88 6.2,-55.8 6.2,-63 C6.2,-72.1 2.25996,-81.32 2.25996,-86.97 C2.25996,-93.06 5.84004,-98.84 5.95,-99 C6.05996,-99.16 6.05,-99.39 5.94004,-99.46 C5.82998,-99.53 5.62002,-99.47 5.49004,-99.32 C5.35996,-99.17 0,-93.75 0,-85.6 C0,-76.75 3.5,-70.58 3.5,-59.07 C3.5,-56.89 2.55996,-53.36 0.1,-50.33 C-0.0799805,-50.17 -0.1,-49.89 0.0599609,-49.7 L0.0700195,-49.69 L0.1,-49.66 C2.55996,-46.63 3.5,-43.1 3.5,-40.92 C3.5,-29.4 0,-23.24 0,-14.39 C0,-6.25 5.35996,-0.8 5.49004,-0.659961 C5.62002,-0.52002 5.8,-0.42998 5.94004,-0.52002 C6.07998,-0.609961 6.07998,-0.77998 5.95,-0.97998 C5.82002,-1.17998 2.25996,-6.92002 2.25996,-13.01 C2.25996,-18.66 6.2,-27.9 6.2,-37 C6.2,-44.3 2.69004,-48.12 0.92002,-50"/>
</svg>
