<?xml version="1.0" encoding="UTF-8" standalone="no"?>
<svg width="4209.44px" height="2976.38px" viewBox="0 0 4209.44 2976.38"
 xmlns="http://www.w3.org/2000/svg" xmlns:xlink="http://www.w3.org/1999/xlink" version="1.2" baseProfile="tiny">
<title>Accords (5)</title>
<desc>Generated by MuseScore 3.6.2</desc>
<polyline class="StaffLines" fill="none" stroke="#000000" stroke-width="6.55" stroke-linejoin="bevel" points="153.819,600.095 4138.58,600.095"/>
<polyline class="StaffLines" fill="none" stroke="#000000" stroke-width="6.55" stroke-linejoin="bevel" points="153.819,689.386 4138.58,689.386"/>
<polyline class="StaffLines" fill="none" stroke="#000000" stroke-width="6.55" stroke-linejoin="bevel" points="153.819,778.677 4138.58,778.677"/>
<polyline class="StaffLines" fill="none" stroke="#000000" stroke-width="6.55" stroke-linejoin="bevel" points="153.819,867.969 4138.58,867.969"/>
<polyline class="StaffLines" fill="none" stroke="#000000" stroke-width="6.55" stroke-linejoin="bevel" points="153.819,957.26 4138.58,957.26"/>
<polyline class="StaffLines" fill="none" stroke="#000000" stroke-width="6.55" stroke-linejoin="bevel" points="153.819,1046.55 4138.58,1046.55"/>
<polyline class="StaffLines" fill="none" stroke="#000000" stroke-width="6.55" stroke-linejoin="bevel" points="153.819,1433.48 4138.58,1433.48"/>
<polyline class="StaffLines" fill="none" stroke="#000000" stroke-width="6.55" stroke-linejoin="bevel" points="153.819,1493.01 4138.58,1493.01"/>
<polyline class="StaffLines" fill="none" stroke="#000000" stroke-width="6.55" stroke-linejoin="bevel" points="153.819,1552.54 4138.58,1552.54"/>
<polyline class="StaffLines" fill="none" stroke="#000000" stroke-width="6.55" stroke-linejoin="bevel" points="153.819,1612.06 4138.58,1612.06"/>
<polyline class="StaffLines" fill="none" stroke="#000000" stroke-width="6.55" stroke-linejoin="bevel" points="153.819,1671.59 4138.58,1671.59"/>
<polyline class="StaffLines" fill="none" stroke="#000000" stroke-width="6.55" stroke-linejoin="bevel" points="153.819,2123.81 4138.58,2123.81"/>
<polyline class="StaffLines" fill="none" stroke="#000000" stroke-width="6.55" stroke-linejoin="bevel" points="153.819,2183.33 4138.58,2183.33"/>
<polyline class="StaffLines" fill="none" stroke="#000000" stroke-width="6.55" stroke-linejoin="bevel" points="153.819,2242.86 4138.58,2242.86"/>
<polyline class="StaffLines" fill="none" stroke="#000000" stroke-width="6.55" stroke-linejoin="bevel" points="153.819,2302.39 4138.58,2302.39"/>
<polyline class="StaffLines" fill="none" stroke="#000000" stroke-width="6.55" stroke-linejoin="bevel" points="153.819,2361.92 4138.58,2361.92"/>
<polyline class="BarLine" fill="none" stroke="#000000" stroke-width="10.71" stroke-linejoin="bevel" points="159.176,2120.53 159.176,2365.19"/>
<polyline class="BarLine" fill="none" stroke="#000000" stroke-width="10.71" stroke-linejoin="bevel" points="1386.46,2120.53 1386.46,2365.19"/>
<polyline class="BarLine" fill="none" stroke="#000000" stroke-width="10.71" stroke-linejoin="bevel" points="2273.13,2120.53 2273.13,2365.19"/>
<polyline class="BarLine" fill="none" stroke="#000000" stroke-width="10.71" stroke-linejoin="bevel" points="3203.39,2120.53 3203.39,2365.19"/>
<polyline class="BarLine" fill="none" stroke="#000000" stroke-width="10.71" stroke-linejoin="bevel" points="4080.54,2120.53 4080.54,2365.19"/>
<polyline class="BarLine" fill="none" stroke="#000000" stroke-width="32.74" stroke-linejoin="bevel" points="4122.21,2120.53 4122.21,2365.19"/>
<polyline class="BarLine" fill="none" stroke="#000000" stroke-width="10.71" stroke-linejoin="bevel" points="159.176,1430.21 159.176,2123.81"/>
<polyline class="BarLine" fill="none" stroke="#000000" stroke-width="10.71" stroke-linejoin="bevel" points="1386.46,1430.21 1386.46,1674.86"/>
<polyline class="BarLine" fill="none" stroke="#000000" stroke-width="10.71" stroke-linejoin="bevel" points="2273.13,1430.21 2273.13,1674.86"/>
<polyline class="BarLine" fill="none" stroke="#000000" stroke-width="10.71" stroke-linejoin="bevel" points="3203.39,1430.21 3203.39,1674.86"/>
<polyline class="BarLine" fill="none" stroke="#000000" stroke-width="10.71" stroke-linejoin="bevel" points="4080.54,1430.21 4080.54,1674.86"/>
<polyline class="BarLine" fill="none" stroke="#000000" stroke-width="32.74" stroke-linejoin="bevel" points="4122.21,1430.21 4122.21,1674.86"/>
<polyline class="BarLine" fill="none" stroke="#000000" stroke-width="10.71" stroke-linejoin="bevel" points="159.176,596.821 159.176,1433.48"/>
<polyline class="BarLine" fill="none" stroke="#000000" stroke-width="10.71" stroke-linejoin="bevel" points="1386.46,596.821 1386.46,1049.83"/>
<polyline class="BarLine" fill="none" stroke="#000000" stroke-width="10.71" stroke-linejoin="bevel" points="2273.13,596.821 2273.13,1049.83"/>
<polyline class="BarLine" fill="none" stroke="#000000" stroke-width="10.71" stroke-linejoin="bevel" points="3203.39,596.821 3203.39,1049.83"/>
<polyline class="BarLine" fill="none" stroke="#000000" stroke-width="10.71" stroke-linejoin="bevel" points="4080.54,596.821 4080.54,1049.83"/>
<polyline class="BarLine" fill="none" stroke="#000000" stroke-width="32.74" stroke-linejoin="bevel" points="4122.21,596.821 4122.21,1049.83"/>
<path class="Accidental" transform="matrix(2.3811,0,0,2.3811,519.076,2064.28)" d="M23.3,-10.6 C23.9,-10.7 24.4,-11.4 24.4,-12 L24.4,-17.9 C24.4,-18.7 23.8,-19.3 23,-19.3 L22.8,-19.3 L19.5,-18.6 L19.5,-33.5 L16.7,-33.5 L16.7,-18 L7.8,-16.2 L7.8,-30.3 L5,-30.3 L5,-15.6 L1.1,-14.8 C0.5,-14.7 0,-14 0,-13.4 L0,-13.2 L0,-7.4 L0,-7.6 C0,-6.8 0.6,-6.2 1.4,-6.2 L1.7,-6.2 L5,-6.9 L5,9.6 L1.1,10.4 C0.5,10.5 0,11.2 0,11.8 L0,17.6 C0,18.4 0.6,19 1.4,19 L1.7,19 L5,18.3 L5,33.2 L7.8,33.2 L7.8,17.7 L16.7,15.9 L16.7,30 L19.5,30 L19.5,15.3 L23.3,14.6 C23.9,14.5 24.4,13.8 24.4,13.2 L24.4,7.3 C24.4,6.5 23.8,5.9 23,5.9 L22.8,5.9 L19.5,6.6 L19.5,-9.9 L23.3,-10.6 M7.8,9.1 L7.8,-7.5 L16.7,-9.3 L16.7,7.2 L7.8,9.1 "/>
<path class="Accidental" transform="matrix(2.3811,0,0,2.3811,2336,2064.28)" d="M23.3,-10.6 C23.9,-10.7 24.4,-11.4 24.4,-12 L24.4,-17.9 C24.4,-18.7 23.8,-19.3 23,-19.3 L22.8,-19.3 L19.5,-18.6 L19.5,-33.5 L16.7,-33.5 L16.7,-18 L7.8,-16.2 L7.8,-30.3 L5,-30.3 L5,-15.6 L1.1,-14.8 C0.5,-14.7 0,-14 0,-13.4 L0,-13.2 L0,-7.4 L0,-7.6 C0,-6.8 0.6,-6.2 1.4,-6.2 L1.7,-6.2 L5,-6.9 L5,9.6 L1.1,10.4 C0.5,10.5 0,11.2 0,11.8 L0,17.6 C0,18.4 0.6,19 1.4,19 L1.7,19 L5,18.3 L5,33.2 L7.8,33.2 L7.8,17.7 L16.7,15.9 L16.7,30 L19.5,30 L19.5,15.3 L23.3,14.6 C23.9,14.5 24.4,13.8 24.4,13.2 L24.4,7.3 C24.4,6.5 23.8,5.9 23,5.9 L22.8,5.9 L19.5,6.6 L19.5,-9.9 L23.3,-10.6 M7.8,9.1 L7.8,-7.5 L16.7,-9.3 L16.7,7.2 L7.8,9.1 "/>
<polyline class="LedgerLine" fill="none" stroke="#000000" stroke-width="9.52" stroke-linejoin="bevel" points="592.053,2064.28 722.53,2064.28"/>
<polyline class="LedgerLine" fill="none" stroke="#000000" stroke-width="9.52" stroke-linejoin="bevel" points="1469.21,2064.28 1599.68,2064.28"/>
<polyline class="LedgerLine" fill="none" stroke="#000000" stroke-width="9.52" stroke-linejoin="bevel" points="2408.98,2064.28 2539.45,2064.28"/>
<polyline class="LedgerLine" fill="none" stroke="#000000" stroke-width="9.52" stroke-linejoin="bevel" points="3286.13,2064.28 3416.61,2064.28"/>
<path class="Note" transform="matrix(2.3811,0,0,2.3811,612.888,2064.28)" d="M18.7,-13.6 C4.9,-13.6 0,-6.6 0,-0.1 C0,6.4 4.9,13.4 18.7,13.4 C32.5,13.4 37.3,6.4 37.3,-0.1 C37.3,-6.6 32.5,-13.6 18.7,-13.6 M10.4,-4.5 C10.3,-4.9 10.3,-5.3 10.3,-5.7 C10.3,-6.5 10.5,-7.3 10.9,-8 C11.6,-9 12.8,-9.7 14.3,-10 C15.6,-10.3 16.3,-10.5 18.9,-10.5 L19,-10.5 C23,-10.5 24.3,-6.8 25.4,-3 L25.7,-2 C26.5,0.6 26.9,2.8 26.9,4.5 C26.9,5.7 26.7,6.8 26.3,7.6 C25.7,8.7 24.7,9.4 23,9.8 C22.1,10 20.6,10.1 20.6,10.1 C20.1,10.1 19.7,10.2 19.3,10.2 C16.1,10.2 14.1,9 12.7,4.7 C11.5,1 11.3,-0.1 10.4,-4.5"/>
<path class="Note" transform="matrix(2.3811,0,0,2.3811,1490.04,2064.28)" d="M18.7,-13.6 C4.9,-13.6 0,-6.6 0,-0.1 C0,6.4 4.9,13.4 18.7,13.4 C32.5,13.4 37.3,6.4 37.3,-0.1 C37.3,-6.6 32.5,-13.6 18.7,-13.6 M10.4,-4.5 C10.3,-4.9 10.3,-5.3 10.3,-5.7 C10.3,-6.5 10.5,-7.3 10.9,-8 C11.6,-9 12.8,-9.7 14.3,-10 C15.6,-10.3 16.3,-10.5 18.9,-10.5 L19,-10.5 C23,-10.5 24.3,-6.8 25.4,-3 L25.7,-2 C26.5,0.6 26.9,2.8 26.9,4.5 C26.9,5.7 26.7,6.8 26.3,7.6 C25.7,8.7 24.7,9.4 23,9.8 C22.1,10 20.6,10.1 20.6,10.1 C20.1,10.1 19.7,10.2 19.3,10.2 C16.1,10.2 14.1,9 12.7,4.7 C11.5,1 11.3,-0.1 10.4,-4.5"/>
<path class="Note" transform="matrix(2.3811,0,0,2.3811,2429.81,2064.28)" d="M18.7,-13.6 C4.9,-13.6 0,-6.6 0,-0.1 C0,6.4 4.9,13.4 18.7,13.4 C32.5,13.4 37.3,6.4 37.3,-0.1 C37.3,-6.6 32.5,-13.6 18.7,-13.6 M10.4,-4.5 C10.3,-4.9 10.3,-5.3 10.3,-5.7 C10.3,-6.5 10.5,-7.3 10.9,-8 C11.6,-9 12.8,-9.7 14.3,-10 C15.6,-10.3 16.3,-10.5 18.9,-10.5 L19,-10.5 C23,-10.5 24.3,-6.8 25.4,-3 L25.7,-2 C26.5,0.6 26.9,2.8 26.9,4.5 C26.9,5.7 26.7,6.8 26.3,7.6 C25.7,8.7 24.7,9.4 23,9.8 C22.1,10 20.6,10.1 20.6,10.1 C20.1,10.1 19.7,10.2 19.3,10.2 C16.1,10.2 14.1,9 12.7,4.7 C11.5,1 11.3,-0.1 10.4,-4.5"/>
<path class="Note" transform="matrix(2.3811,0,0,2.3811,3306.96,2064.28)" d="M18.7,-13.6 C4.9,-13.6 0,-6.6 0,-0.1 C0,6.4 4.9,13.4 18.7,13.4 C32.5,13.4 37.3,6.4 37.3,-0.1 C37.3,-6.6 32.5,-13.6 18.7,-13.6 M10.4,-4.5 C10.3,-4.9 10.3,-5.3 10.3,-5.7 C10.3,-6.5 10.5,-7.3 10.9,-8 C11.6,-9 12.8,-9.7 14.3,-10 C15.6,-10.3 16.3,-10.5 18.9,-10.5 L19,-10.5 C23,-10.5 24.3,-6.8 25.4,-3 L25.7,-2 C26.5,0.6 26.9,2.8 26.9,4.5 C26.9,5.7 26.7,6.8 26.3,7.6 C25.7,8.7 24.7,9.4 23,9.8 C22.1,10 20.6,10.1 20.6,10.1 C20.1,10.1 19.7,10.2 19.3,10.2 C16.1,10.2 14.1,9 12.7,4.7 C11.5,1 11.3,-0.1 10.4,-4.5"/>
<path class="Note" transform="matrix(2.3811,0,0,2.3811,612.888,1582.3)" d="M18.7,-13.6 C4.9,-13.6 0,-6.6 0,-0.1 C0,6.4 4.9,13.4 18.7,13.4 C32.5,13.4 37.3,6.4 37.3,-0.1 C37.3,-6.6 32.5,-13.6 18.7,-13.6 M10.4,-4.5 C10.3,-4.9 10.3,-5.3 10.3,-5.7 C10.3,-6.5 10.5,-7.3 10.9,-8 C11.6,-9 12.8,-9.7 14.3,-10 C15.6,-10.3 16.3,-10.5 18.9,-10.5 L19,-10.5 C23,-10.5 24.3,-6.8 25.4,-3 L25.7,-2 C26.5,0.6 26.9,2.8 26.9,4.5 C26.9,5.7 26.7,6.8 26.3,7.6 C25.7,8.7 24.7,9.4 23,9.8 C22.1,10 20.6,10.1 20.6,10.1 C20.1,10.1 19.7,10.2 19.3,10.2 C16.1,10.2 14.1,9 12.7,4.7 C11.5,1 11.3,-0.1 10.4,-4.5"/>
<path class="Note" transform="matrix(2.3811,0,0,2.3811,612.888,1463.24)" d="M18.7,-13.6 C4.9,-13.6 0,-6.6 0,-0.1 C0,6.4 4.9,13.4 18.7,13.4 C32.5,13.4 37.3,6.4 37.3,-0.1 C37.3,-6.6 32.5,-13.6 18.7,-13.6 M10.4,-4.5 C10.3,-4.9 10.3,-5.3 10.3,-5.7 C10.3,-6.5 10.5,-7.3 10.9,-8 C11.6,-9 12.8,-9.7 14.3,-10 C15.6,-10.3 16.3,-10.5 18.9,-10.5 L19,-10.5 C23,-10.5 24.3,-6.8 25.4,-3 L25.7,-2 C26.5,0.6 26.9,2.8 26.9,4.5 C26.9,5.7 26.7,6.8 26.3,7.6 C25.7,8.7 24.7,9.4 23,9.8 C22.1,10 20.6,10.1 20.6,10.1 C20.1,10.1 19.7,10.2 19.3,10.2 C16.1,10.2 14.1,9 12.7,4.7 C11.5,1 11.3,-0.1 10.4,-4.5"/>
<path class="Note" transform="matrix(2.3811,0,0,2.3811,1490.04,1582.3)" d="M18.7,-13.6 C4.9,-13.6 0,-6.6 0,-0.1 C0,6.4 4.9,13.4 18.7,13.4 C32.5,13.4 37.3,6.4 37.3,-0.1 C37.3,-6.6 32.5,-13.6 18.7,-13.6 M10.4,-4.5 C10.3,-4.9 10.3,-5.3 10.3,-5.7 C10.3,-6.5 10.5,-7.3 10.9,-8 C11.6,-9 12.8,-9.7 14.3,-10 C15.6,-10.3 16.3,-10.5 18.9,-10.5 L19,-10.5 C23,-10.5 24.3,-6.8 25.4,-3 L25.7,-2 C26.5,0.6 26.9,2.8 26.9,4.5 C26.9,5.7 26.7,6.8 26.3,7.6 C25.7,8.7 24.7,9.4 23,9.8 C22.1,10 20.6,10.1 20.6,10.1 C20.1,10.1 19.7,10.2 19.3,10.2 C16.1,10.2 14.1,9 12.7,4.7 C11.5,1 11.3,-0.1 10.4,-4.5"/>
<path class="Note" transform="matrix(2.3811,0,0,2.3811,1490.04,1463.24)" d="M18.7,-13.6 C4.9,-13.6 0,-6.6 0,-0.1 C0,6.4 4.9,13.4 18.7,13.4 C32.5,13.4 37.3,6.4 37.3,-0.1 C37.3,-6.6 32.5,-13.6 18.7,-13.6 M10.4,-4.5 C10.3,-4.9 10.3,-5.3 10.3,-5.7 C10.3,-6.5 10.5,-7.3 10.9,-8 C11.6,-9 12.8,-9.7 14.3,-10 C15.6,-10.3 16.3,-10.5 18.9,-10.5 L19,-10.5 C23,-10.5 24.3,-6.8 25.4,-3 L25.7,-2 C26.5,0.6 26.9,2.8 26.9,4.5 C26.9,5.7 26.7,6.8 26.3,7.6 C25.7,8.7 24.7,9.4 23,9.8 C22.1,10 20.6,10.1 20.6,10.1 C20.1,10.1 19.7,10.2 19.3,10.2 C16.1,10.2 14.1,9 12.7,4.7 C11.5,1 11.3,-0.1 10.4,-4.5"/>
<path class="Note" transform="matrix(2.3811,0,0,2.3811,2429.81,1582.3)" d="M18.7,-13.6 C4.9,-13.6 0,-6.6 0,-0.1 C0,6.4 4.9,13.4 18.7,13.4 C32.5,13.4 37.3,6.4 37.3,-0.1 C37.3,-6.6 32.5,-13.6 18.7,-13.6 M10.4,-4.5 C10.3,-4.9 10.3,-5.3 10.3,-5.7 C10.3,-6.5 10.5,-7.3 10.9,-8 C11.6,-9 12.8,-9.7 14.3,-10 C15.6,-10.3 16.3,-10.5 18.9,-10.5 L19,-10.5 C23,-10.5 24.3,-6.8 25.4,-3 L25.7,-2 C26.5,0.6 26.9,2.8 26.9,4.5 C26.9,5.7 26.7,6.8 26.3,7.6 C25.7,8.7 24.7,9.4 23,9.8 C22.1,10 20.6,10.1 20.6,10.1 C20.1,10.1 19.7,10.2 19.3,10.2 C16.1,10.2 14.1,9 12.7,4.7 C11.5,1 11.3,-0.1 10.4,-4.5"/>
<path class="Note" transform="matrix(2.3811,0,0,2.3811,2429.81,1463.24)" d="M18.7,-13.6 C4.9,-13.6 0,-6.6 0,-0.1 C0,6.4 4.9,13.4 18.7,13.4 C32.5,13.4 37.3,6.4 37.3,-0.1 C37.3,-6.6 32.5,-13.6 18.7,-13.6 M10.4,-4.5 C10.3,-4.9 10.3,-5.3 10.3,-5.7 C10.3,-6.5 10.5,-7.3 10.9,-8 C11.6,-9 12.8,-9.7 14.3,-10 C15.6,-10.3 16.3,-10.5 18.9,-10.5 L19,-10.5 C23,-10.5 24.3,-6.8 25.4,-3 L25.7,-2 C26.5,0.6 26.9,2.8 26.9,4.5 C26.9,5.7 26.7,6.8 26.3,7.6 C25.7,8.7 24.7,9.4 23,9.8 C22.1,10 20.6,10.1 20.6,10.1 C20.1,10.1 19.7,10.2 19.3,10.2 C16.1,10.2 14.1,9 12.7,4.7 C11.5,1 11.3,-0.1 10.4,-4.5"/>
<path class="Note" transform="matrix(2.3811,0,0,2.3811,3306.96,1582.3)" d="M18.7,-13.6 C4.9,-13.6 0,-6.6 0,-0.1 C0,6.4 4.9,13.4 18.7,13.4 C32.5,13.4 37.3,6.4 37.3,-0.1 C37.3,-6.6 32.5,-13.6 18.7,-13.6 M10.4,-4.5 C10.3,-4.9 10.3,-5.3 10.3,-5.7 C10.3,-6.5 10.5,-7.3 10.9,-8 C11.6,-9 12.8,-9.7 14.3,-10 C15.6,-10.3 16.3,-10.5 18.9,-10.5 L19,-10.5 C23,-10.5 24.3,-6.8 25.4,-3 L25.7,-2 C26.5,0.6 26.9,2.8 26.9,4.5 C26.9,5.7 26.7,6.8 26.3,7.6 C25.7,8.7 24.7,9.4 23,9.8 C22.1,10 20.6,10.1 20.6,10.1 C20.1,10.1 19.7,10.2 19.3,10.2 C16.1,10.2 14.1,9 12.7,4.7 C11.5,1 11.3,-0.1 10.4,-4.5"/>
<path class="Note" transform="matrix(2.3811,0,0,2.3811,3306.96,1463.24)" d="M18.7,-13.6 C4.9,-13.6 0,-6.6 0,-0.1 C0,6.4 4.9,13.4 18.7,13.4 C32.5,13.4 37.3,6.4 37.3,-0.1 C37.3,-6.6 32.5,-13.6 18.7,-13.6 M10.4,-4.5 C10.3,-4.9 10.3,-5.3 10.3,-5.7 C10.3,-6.5 10.5,-7.3 10.9,-8 C11.6,-9 12.8,-9.7 14.3,-10 C15.6,-10.3 16.3,-10.5 18.9,-10.5 L19,-10.5 C23,-10.5 24.3,-6.8 25.4,-3 L25.7,-2 C26.5,0.6 26.9,2.8 26.9,4.5 C26.9,5.7 26.7,6.8 26.3,7.6 C25.7,8.7 24.7,9.4 23,9.8 C22.1,10 20.6,10.1 20.6,10.1 C20.1,10.1 19.7,10.2 19.3,10.2 C16.1,10.2 14.1,9 12.7,4.7 C11.5,1 11.3,-0.1 10.4,-4.5"/>
<path class="Note" d="M706.582,602.857 C710.921,599.913 714.058,597.472 715.995,595.535 C719.559,591.739 721.341,588.253 721.341,585.076 C721.341,581.435 719.327,579.614 715.298,579.614 C707.473,579.614 699.106,586.51 690.196,600.3 C687.485,604.484 681.519,618.119 672.3,641.206 C679.66,648.799 683.34,653.098 683.34,654.106 C683.34,655.5 682.449,656.197 680.667,656.197 C679.273,656.197 675.438,653.834 669.162,649.109 C662.344,664.991 652.002,678.549 638.134,689.782 C623.956,701.249 607.028,706.982 587.35,706.982 C579.835,706.982 570.422,705.238 559.11,701.752 C550.046,698.963 545.514,694.508 545.514,688.388 C545.514,679.323 549,674.791 555.973,674.791 C560.156,674.791 562.248,676.728 562.248,680.602 C562.248,681.841 561.28,683.158 559.343,684.553 C558.336,685.25 557.832,686.606 557.832,688.62 C557.832,691.022 560.505,693.501 565.851,696.058 C571.661,698.847 580.183,700.241 591.417,700.241 C605.905,700.241 619.889,693.966 633.369,681.415 C645.61,670.027 654.403,656.778 659.749,641.671 C657.657,639.967 655.411,638.107 653.009,636.093 C645.571,631.677 641.853,627.145 641.853,622.496 C641.853,620.559 643.131,619.591 645.688,619.591 C649.096,619.591 653.706,622.496 659.517,628.307 C660.756,629.546 661.918,630.708 663.003,631.793 C665.715,624.356 670.053,614.904 676.019,603.438 C686.788,582.675 699.881,572.293 715.298,572.293 C720.799,572.293 725.137,573.339 728.314,575.431 C731.49,577.523 733.078,580.389 733.078,584.03 C733.078,589.841 730.948,594.761 726.687,598.789 C722.271,602.973 717.661,605.065 712.858,605.065 C708.674,605.065 706.582,604.329 706.582,602.857"/>
<path class="Note" d="M705.769,805.03 C705.769,813.94 695.62,833.502 675.321,863.717 C667.264,875.725 655.682,884.518 640.574,890.097 C629.418,894.28 616.519,896.372 601.876,896.372 C597.15,896.372 592.967,895.403 589.325,893.467 C585.297,891.375 583.282,889.089 583.282,886.61 C583.282,880.18 586.73,876.965 593.625,876.965 C594.632,876.965 595.136,877.584 595.136,878.824 C595.136,879.909 594.632,881.11 593.625,882.427 C592.386,884.054 591.766,885.254 591.766,886.029 C591.766,888.353 595.252,889.515 602.225,889.515 C617.874,889.515 630.232,887.617 639.296,883.821 C648.748,879.947 658.161,870.069 667.535,854.187 L670.208,849.19 C665.715,852.599 661.26,854.304 656.844,854.304 C645.843,854.304 640.342,849.849 640.342,840.939 C640.342,831.333 646.811,821.222 659.749,810.608 C669.898,802.396 678.924,798.29 686.826,798.29 C690.777,798.29 694.07,799.336 696.704,801.428 C697.634,800.73 698.796,800.382 700.191,800.382 C703.909,800.382 705.769,801.931 705.769,805.03 M671.603,846.75 L693.566,806.192 C691.862,805.805 689.964,805.611 687.872,805.611 C680.357,805.611 673.075,809.988 666.025,818.743 C657.812,828.97 653.706,837.143 653.706,843.264 C653.706,847.292 656.379,849.306 661.725,849.306 C664.281,849.306 667.574,848.454 671.603,846.75"/>
<path class="Note" d="M706.582,692.148 C710.921,689.204 714.058,686.764 715.995,684.827 C719.559,681.03 721.341,677.544 721.341,674.368 C721.341,670.726 719.327,668.906 715.298,668.906 C707.473,668.906 699.106,675.801 690.196,689.591 C687.485,693.775 681.519,707.41 672.3,730.498 C679.66,738.09 683.34,742.39 683.34,743.397 C683.34,744.791 682.449,745.489 680.667,745.489 C679.273,745.489 675.438,743.126 669.162,738.4 C662.344,754.282 652.002,767.84 638.134,779.074 C623.956,790.54 607.028,796.273 587.35,796.273 C579.835,796.273 570.422,794.53 559.11,791.043 C550.046,788.254 545.514,783.8 545.514,777.679 C545.514,768.615 549,764.083 555.973,764.083 C560.156,764.083 562.248,766.019 562.248,769.893 C562.248,771.133 561.28,772.45 559.343,773.844 C558.336,774.541 557.832,775.897 557.832,777.912 C557.832,780.313 560.505,782.792 565.851,785.349 C571.661,788.138 580.183,789.533 591.417,789.533 C605.905,789.533 619.889,783.257 633.369,770.707 C645.61,759.318 654.403,746.07 659.749,730.962 C657.657,729.258 655.411,727.399 653.009,725.384 C645.571,720.968 641.853,716.436 641.853,711.788 C641.853,709.851 643.131,708.882 645.688,708.882 C649.096,708.882 653.706,711.788 659.517,717.598 C660.756,718.838 661.918,720 663.003,721.084 C665.715,713.647 670.053,704.195 676.019,692.729 C686.788,671.966 699.881,661.584 715.298,661.584 C720.799,661.584 725.137,662.63 728.314,664.722 C731.49,666.814 733.078,669.68 733.078,673.322 C733.078,679.132 730.948,684.052 726.687,688.081 C722.271,692.264 717.661,694.356 712.858,694.356 C708.674,694.356 706.582,693.62 706.582,692.148"/>
<path class="Note" d="M1583.74,602.857 C1588.07,599.913 1591.21,597.472 1593.15,595.535 C1596.71,591.739 1598.49,588.253 1598.49,585.076 C1598.49,581.435 1596.48,579.614 1592.45,579.614 C1584.63,579.614 1576.26,586.51 1567.35,600.3 C1564.64,604.484 1558.67,618.119 1549.45,641.206 C1556.81,648.799 1560.49,653.098 1560.49,654.106 C1560.49,655.5 1559.6,656.197 1557.82,656.197 C1556.43,656.197 1552.59,653.834 1546.32,649.109 C1539.5,664.991 1529.16,678.549 1515.29,689.782 C1501.11,701.249 1484.18,706.982 1464.5,706.982 C1456.99,706.982 1447.57,705.238 1436.26,701.752 C1427.2,698.963 1422.67,694.508 1422.67,688.388 C1422.67,679.323 1426.15,674.791 1433.13,674.791 C1437.31,674.791 1439.4,676.728 1439.4,680.602 C1439.4,681.841 1438.43,683.158 1436.5,684.553 C1435.49,685.25 1434.99,686.606 1434.99,688.62 C1434.99,691.022 1437.66,693.501 1443,696.058 C1448.81,698.847 1457.34,700.241 1468.57,700.241 C1483.06,700.241 1497.04,693.966 1510.52,681.415 C1522.76,670.027 1531.56,656.778 1536.9,641.671 C1534.81,639.967 1532.56,638.107 1530.16,636.093 C1522.72,631.677 1519.01,627.145 1519.01,622.496 C1519.01,620.559 1520.28,619.591 1522.84,619.591 C1526.25,619.591 1530.86,622.496 1536.67,628.307 C1537.91,629.546 1539.07,630.708 1540.16,631.793 C1542.87,624.356 1547.21,614.904 1553.17,603.438 C1563.94,582.675 1577.03,572.293 1592.45,572.293 C1597.95,572.293 1602.29,573.339 1605.47,575.431 C1608.64,577.523 1610.23,580.389 1610.23,584.03 C1610.23,589.841 1608.1,594.761 1603.84,598.789 C1599.42,602.973 1594.81,605.065 1590.01,605.065 C1585.83,605.065 1583.74,604.329 1583.74,602.857"/>
<path class="Note" d="M1583.74,781.439 C1588.07,778.495 1591.21,776.055 1593.15,774.118 C1596.71,770.322 1598.49,766.835 1598.49,763.659 C1598.49,760.018 1596.48,758.197 1592.45,758.197 C1584.63,758.197 1576.26,765.092 1567.35,778.883 C1564.64,783.066 1558.67,796.702 1549.45,819.789 C1556.81,827.381 1560.49,831.681 1560.49,832.688 C1560.49,834.083 1559.6,834.78 1557.82,834.78 C1556.43,834.78 1552.59,832.417 1546.32,827.691 C1539.5,843.573 1529.16,857.131 1515.29,868.365 C1501.11,879.831 1484.18,885.564 1464.5,885.564 C1456.99,885.564 1447.57,883.821 1436.26,880.335 C1427.2,877.546 1422.67,873.091 1422.67,866.971 C1422.67,857.906 1426.15,853.374 1433.13,853.374 C1437.31,853.374 1439.4,855.311 1439.4,859.184 C1439.4,860.424 1438.43,861.741 1436.5,863.136 C1435.49,863.833 1434.99,865.189 1434.99,867.203 C1434.99,869.605 1437.66,872.084 1443,874.64 C1448.81,877.43 1457.34,878.824 1468.57,878.824 C1483.06,878.824 1497.04,872.549 1510.52,859.998 C1522.76,848.609 1531.56,835.361 1536.9,820.254 C1534.81,818.549 1532.56,816.69 1530.16,814.676 C1522.72,810.26 1519.01,805.727 1519.01,801.079 C1519.01,799.142 1520.28,798.174 1522.84,798.174 C1526.25,798.174 1530.86,801.079 1536.67,806.889 C1537.91,808.129 1539.07,809.291 1540.16,810.376 C1542.87,802.938 1547.21,793.486 1553.17,782.02 C1563.94,761.257 1577.03,750.876 1592.45,750.876 C1597.95,750.876 1602.29,751.922 1605.47,754.014 C1608.64,756.105 1610.23,758.972 1610.23,762.613 C1610.23,768.424 1608.1,773.343 1603.84,777.372 C1599.42,781.555 1594.81,783.647 1590.01,783.647 C1585.83,783.647 1583.74,782.911 1583.74,781.439"/>
<path class="Note" d="M1583.74,692.148 C1588.07,689.204 1591.21,686.764 1593.15,684.827 C1596.71,681.03 1598.49,677.544 1598.49,674.368 C1598.49,670.726 1596.48,668.906 1592.45,668.906 C1584.63,668.906 1576.26,675.801 1567.35,689.591 C1564.64,693.775 1558.67,707.41 1549.45,730.498 C1556.81,738.09 1560.49,742.39 1560.49,743.397 C1560.49,744.791 1559.6,745.489 1557.82,745.489 C1556.43,745.489 1552.59,743.126 1546.32,738.4 C1539.5,754.282 1529.16,767.84 1515.29,779.074 C1501.11,790.54 1484.18,796.273 1464.5,796.273 C1456.99,796.273 1447.57,794.53 1436.26,791.043 C1427.2,788.254 1422.67,783.8 1422.67,777.679 C1422.67,768.615 1426.15,764.083 1433.13,764.083 C1437.31,764.083 1439.4,766.019 1439.4,769.893 C1439.4,771.133 1438.43,772.45 1436.5,773.844 C1435.49,774.541 1434.99,775.897 1434.99,777.912 C1434.99,780.313 1437.66,782.792 1443,785.349 C1448.81,788.138 1457.34,789.533 1468.57,789.533 C1483.06,789.533 1497.04,783.257 1510.52,770.707 C1522.76,759.318 1531.56,746.07 1536.9,730.962 C1534.81,729.258 1532.56,727.399 1530.16,725.384 C1522.72,720.968 1519.01,716.436 1519.01,711.788 C1519.01,709.851 1520.28,708.882 1522.84,708.882 C1526.25,708.882 1530.86,711.788 1536.67,717.598 C1537.91,718.838 1539.07,720 1540.16,721.084 C1542.87,713.647 1547.21,704.195 1553.17,692.729 C1563.94,671.966 1577.03,661.584 1592.45,661.584 C1597.95,661.584 1602.29,662.63 1605.47,664.722 C1608.64,666.814 1610.23,669.68 1610.23,673.322 C1610.23,679.132 1608.1,684.052 1603.84,688.081 C1599.42,692.264 1594.81,694.356 1590.01,694.356 C1585.83,694.356 1583.74,693.62 1583.74,692.148"/>
<path class="Note" d="M2523.5,602.857 C2527.84,599.913 2530.98,597.472 2532.92,595.535 C2536.48,591.739 2538.26,588.253 2538.26,585.076 C2538.26,581.435 2536.25,579.614 2532.22,579.614 C2524.4,579.614 2516.03,586.51 2507.12,600.3 C2504.41,604.484 2498.44,618.119 2489.22,641.206 C2496.58,648.799 2500.26,653.098 2500.26,654.106 C2500.26,655.5 2499.37,656.197 2497.59,656.197 C2496.19,656.197 2492.36,653.834 2486.08,649.109 C2479.27,664.991 2468.92,678.549 2455.06,689.782 C2440.88,701.249 2423.95,706.982 2404.27,706.982 C2396.76,706.982 2387.34,705.238 2376.03,701.752 C2366.97,698.963 2362.44,694.508 2362.44,688.388 C2362.44,679.323 2365.92,674.791 2372.89,674.791 C2377.08,674.791 2379.17,676.728 2379.17,680.602 C2379.17,681.841 2378.2,683.158 2376.27,684.553 C2375.26,685.25 2374.75,686.606 2374.75,688.62 C2374.75,691.022 2377.43,693.501 2382.77,696.058 C2388.58,698.847 2397.11,700.241 2408.34,700.241 C2422.83,700.241 2436.81,693.966 2450.29,681.415 C2462.53,670.027 2471.33,656.778 2476.67,641.671 C2474.58,639.967 2472.33,638.107 2469.93,636.093 C2462.49,631.677 2458.77,627.145 2458.77,622.496 C2458.77,620.559 2460.05,619.591 2462.61,619.591 C2466.02,619.591 2470.63,622.496 2476.44,628.307 C2477.68,629.546 2478.84,630.708 2479.93,631.793 C2482.64,624.356 2486.98,614.904 2492.94,603.438 C2503.71,582.675 2516.8,572.293 2532.22,572.293 C2537.72,572.293 2542.06,573.339 2545.24,575.431 C2548.41,577.523 2550,580.389 2550,584.03 C2550,589.841 2547.87,594.761 2543.61,598.789 C2539.19,602.973 2534.58,605.065 2529.78,605.065 C2525.6,605.065 2523.5,604.329 2523.5,602.857"/>
<path class="Note" d="M2522.69,805.03 C2522.69,813.94 2512.54,833.502 2492.24,863.717 C2484.19,875.725 2472.6,884.518 2457.5,890.097 C2446.34,894.28 2433.44,896.372 2418.8,896.372 C2414.07,896.372 2409.89,895.403 2406.25,893.467 C2402.22,891.375 2400.2,889.089 2400.2,886.61 C2400.2,880.18 2403.65,876.965 2410.55,876.965 C2411.55,876.965 2412.06,877.584 2412.06,878.824 C2412.06,879.909 2411.55,881.11 2410.55,882.427 C2409.31,884.054 2408.69,885.254 2408.69,886.029 C2408.69,888.353 2412.17,889.515 2419.15,889.515 C2434.8,889.515 2447.15,887.617 2456.22,883.821 C2465.67,879.947 2475.08,870.069 2484.46,854.187 L2487.13,849.19 C2482.64,852.599 2478.18,854.304 2473.77,854.304 C2462.76,854.304 2457.26,849.849 2457.26,840.939 C2457.26,831.333 2463.73,821.222 2476.67,810.608 C2486.82,802.396 2495.85,798.29 2503.75,798.29 C2507.7,798.29 2510.99,799.336 2513.63,801.428 C2514.56,800.73 2515.72,800.382 2517.11,800.382 C2520.83,800.382 2522.69,801.931 2522.69,805.03 M2488.52,846.75 L2510.49,806.192 C2508.78,805.805 2506.89,805.611 2504.79,805.611 C2497.28,805.611 2490,809.988 2482.95,818.743 C2474.73,828.97 2470.63,837.143 2470.63,843.264 C2470.63,847.292 2473.3,849.306 2478.65,849.306 C2481.2,849.306 2484.5,848.454 2488.52,846.75"/>
<path class="Note" d="M2450.87,594.913 C2446.69,594.913 2444.6,593.015 2444.6,589.219 C2444.6,582.788 2445.57,578.062 2447.5,575.041 C2455.56,563.11 2473.07,540.797 2500.03,508.103 C2512.19,493.306 2527.88,485.907 2547.1,485.907 C2554.53,485.907 2559.68,486.953 2562.55,489.045 C2566.97,492.299 2569.18,496.211 2569.18,500.782 C2569.18,505.585 2565.3,510.931 2557.55,516.819 C2550.19,522.397 2543.22,525.186 2536.64,525.186 C2534.08,525.186 2532.8,524.915 2532.8,524.373 C2532.8,523.598 2534.04,522.785 2536.52,521.932 C2539.85,520.693 2543.42,518.175 2547.21,514.379 C2551.55,509.963 2553.72,505.973 2553.72,502.409 C2553.72,500.007 2552.05,497.722 2548.72,495.553 C2545.78,493.693 2541.01,492.764 2534.43,492.764 C2524.82,492.764 2512.7,502.448 2498.05,521.816 C2488.29,534.754 2480.39,546.143 2474.35,555.982 C2477.29,554.355 2480.82,552.38 2484.92,550.056 C2489.96,547.189 2494.3,545.756 2497.94,545.756 C2507,545.756 2511.53,549.01 2511.53,555.517 C2511.53,561.948 2507.82,568.998 2500.38,576.668 C2495.11,582.091 2492.48,586.12 2492.48,588.754 C2492.48,591.465 2495.11,592.821 2500.38,592.821 C2503.01,592.821 2505.72,591.891 2508.51,590.032 C2511.3,588.25 2513.36,587.359 2514.67,587.359 C2515.76,587.359 2516.3,588.056 2516.3,589.451 C2516.3,591.698 2514.13,594.061 2509.79,596.54 C2502.51,600.723 2496.66,602.815 2492.24,602.815 C2484.42,602.815 2480.51,598.632 2480.51,590.264 C2480.51,584.996 2483.53,579.147 2489.57,572.717 C2493.99,567.991 2496.19,563.304 2496.19,558.655 C2496.19,554.626 2494.03,552.612 2489.69,552.612 C2487.98,552.612 2482.33,554.626 2472.72,558.655 C2469.85,563.458 2467.45,567.875 2465.52,571.903 C2458.15,587.243 2453.27,594.913 2450.87,594.913"/>
<path class="Note" d="M3400.66,602.857 C3405,599.913 3408.13,597.472 3410.07,595.535 C3413.63,591.739 3415.42,588.253 3415.42,585.076 C3415.42,581.435 3413.4,579.614 3409.37,579.614 C3401.55,579.614 3393.18,586.51 3384.27,600.3 C3381.56,604.484 3375.59,618.119 3366.38,641.206 C3373.74,648.799 3377.42,653.098 3377.42,654.106 C3377.42,655.5 3376.52,656.197 3374.74,656.197 C3373.35,656.197 3369.51,653.834 3363.24,649.109 C3356.42,664.991 3346.08,678.549 3332.21,689.782 C3318.03,701.249 3301.1,706.982 3281.43,706.982 C3273.91,706.982 3264.5,705.238 3253.19,701.752 C3244.12,698.963 3239.59,694.508 3239.59,688.388 C3239.59,679.323 3243.08,674.791 3250.05,674.791 C3254.23,674.791 3256.32,676.728 3256.32,680.602 C3256.32,681.841 3255.36,683.158 3253.42,684.553 C3252.41,685.25 3251.91,686.606 3251.91,688.62 C3251.91,691.022 3254.58,693.501 3259.93,696.058 C3265.74,698.847 3274.26,700.241 3285.49,700.241 C3299.98,700.241 3313.96,693.966 3327.44,681.415 C3339.69,670.027 3348.48,656.778 3353.82,641.671 C3351.73,639.967 3349.49,638.107 3347.08,636.093 C3339.65,631.677 3335.93,627.145 3335.93,622.496 C3335.93,620.559 3337.21,619.591 3339.76,619.591 C3343.17,619.591 3347.78,622.496 3353.59,628.307 C3354.83,629.546 3355.99,630.708 3357.08,631.793 C3359.79,624.356 3364.13,614.904 3370.09,603.438 C3380.86,582.675 3393.96,572.293 3409.37,572.293 C3414.87,572.293 3419.21,573.339 3422.39,575.431 C3425.57,577.523 3427.15,580.389 3427.15,584.03 C3427.15,589.841 3425.02,594.761 3420.76,598.789 C3416.35,602.973 3411.74,605.065 3406.93,605.065 C3402.75,605.065 3400.66,604.329 3400.66,602.857"/>
<path class="Note" d="M3400.66,781.439 C3405,778.495 3408.13,776.055 3410.07,774.118 C3413.63,770.322 3415.42,766.835 3415.42,763.659 C3415.42,760.018 3413.4,758.197 3409.37,758.197 C3401.55,758.197 3393.18,765.092 3384.27,778.883 C3381.56,783.066 3375.59,796.702 3366.38,819.789 C3373.74,827.381 3377.42,831.681 3377.42,832.688 C3377.42,834.083 3376.52,834.78 3374.74,834.78 C3373.35,834.78 3369.51,832.417 3363.24,827.691 C3356.42,843.573 3346.08,857.131 3332.21,868.365 C3318.03,879.831 3301.1,885.564 3281.43,885.564 C3273.91,885.564 3264.5,883.821 3253.19,880.335 C3244.12,877.546 3239.59,873.091 3239.59,866.971 C3239.59,857.906 3243.08,853.374 3250.05,853.374 C3254.23,853.374 3256.32,855.311 3256.32,859.184 C3256.32,860.424 3255.36,861.741 3253.42,863.136 C3252.41,863.833 3251.91,865.189 3251.91,867.203 C3251.91,869.605 3254.58,872.084 3259.93,874.64 C3265.74,877.43 3274.26,878.824 3285.49,878.824 C3299.98,878.824 3313.96,872.549 3327.44,859.998 C3339.69,848.609 3348.48,835.361 3353.82,820.254 C3351.73,818.549 3349.49,816.69 3347.08,814.676 C3339.65,810.26 3335.93,805.727 3335.93,801.079 C3335.93,799.142 3337.21,798.174 3339.76,798.174 C3343.17,798.174 3347.78,801.079 3353.59,806.889 C3354.83,808.129 3355.99,809.291 3357.08,810.376 C3359.79,802.938 3364.13,793.486 3370.09,782.02 C3380.86,761.257 3393.96,750.876 3409.37,750.876 C3414.87,750.876 3419.21,751.922 3422.39,754.014 C3425.57,756.105 3427.15,758.972 3427.15,762.613 C3427.15,768.424 3425.02,773.343 3420.76,777.372 C3416.35,781.555 3411.74,783.647 3406.93,783.647 C3402.75,783.647 3400.66,782.911 3400.66,781.439"/>
<path class="Note" d="M3328.03,594.913 C3323.84,594.913 3321.75,593.015 3321.75,589.219 C3321.75,582.788 3322.72,578.062 3324.66,575.041 C3332.71,563.11 3350.22,540.797 3377.18,508.103 C3389.35,493.306 3405.03,485.907 3424.25,485.907 C3431.69,485.907 3436.84,486.953 3439.7,489.045 C3444.12,492.299 3446.33,496.211 3446.33,500.782 C3446.33,505.585 3442.45,510.931 3434.71,516.819 C3427.35,522.397 3420.37,525.186 3413.79,525.186 C3411.23,525.186 3409.95,524.915 3409.95,524.373 C3409.95,523.598 3411.19,522.785 3413.67,521.932 C3417,520.693 3420.57,518.175 3424.36,514.379 C3428.7,509.963 3430.87,505.973 3430.87,502.409 C3430.87,500.007 3429.21,497.722 3425.88,495.553 C3422.93,493.693 3418.17,492.764 3411.58,492.764 C3401.97,492.764 3389.85,502.448 3375.21,521.816 C3365.45,534.754 3357.54,546.143 3351.5,555.982 C3354.44,554.355 3357.97,552.38 3362.08,550.056 C3367.11,547.189 3371.45,545.756 3375.09,545.756 C3384.16,545.756 3388.69,549.01 3388.69,555.517 C3388.69,561.948 3384.97,568.998 3377.53,576.668 C3372.26,582.091 3369.63,586.12 3369.63,588.754 C3369.63,591.465 3372.26,592.821 3377.53,592.821 C3380.17,592.821 3382.88,591.891 3385.67,590.032 C3388.46,588.25 3390.51,587.359 3391.83,587.359 C3392.91,587.359 3393.45,588.056 3393.45,589.451 C3393.45,591.698 3391.28,594.061 3386.94,596.54 C3379.66,600.723 3373.81,602.815 3369.4,602.815 C3361.57,602.815 3357.66,598.632 3357.66,590.264 C3357.66,584.996 3360.68,579.147 3366.72,572.717 C3371.14,567.991 3373.35,563.304 3373.35,558.655 C3373.35,554.626 3371.18,552.612 3366.84,552.612 C3365.14,552.612 3359.48,554.626 3349.87,558.655 C3347.01,563.458 3344.61,567.875 3342.67,571.903 C3335.31,587.243 3330.43,594.913 3328.03,594.913"/>
<path class="Clef" transform="matrix(2.3811,0,0,2.3811,212.156,2183.33)" d="M25.4,-25.1 C17.8,-25.1 11.7,-20.7 11.6,-20.7 C5.8,-16.4 3.5,-11.3 2.6,-7.8 C2.1,-6 1.9,-4.2 1.9,-2.5 C1.9,-0.1 2.3,2.1 3.2,4 C4.4,6.7 6.7,8.6 9.7,9.6 C10.9,10 12.2,10.2 13.5,10.2 C15.7,10.2 18,9.6 19.9,8.5 C23,6.8 24.9,3.2 24.9,-0.7 C24.9,-4.2 23.1,-7.4 20.1,-9.3 C18,-10.7 16,-11.1 14.3,-11.1 C13.1,-11.1 12,-10.9 11.1,-10.6 C10.1,-10.2 8.4,-9.2 7.6,-8.5 C7.9,-10.4 9.1,-13.3 10.2,-14.9 C11.3,-16.5 13.5,-18.5 15.2,-19.4 C17.7,-20.8 20.9,-21.4 24.4,-21.4 C34.6,-21.4 39.6,-13.2 39.6,3.6 C39.6,12.9 36.1,21.8 33.1,27.7 C29.8,34.3 25.4,40.6 21.5,44.1 C11.1,53.6 1.3,58.1 1.2,58.1 C1.2,58.1 -0.3,59 0.1,60.5 C0.4,61.5 1.3,61.7 1.9,61.7 C2,61.7 2.3,61.6 2.4,61.6 C2.5,61.6 13.9,56.9 23,49.8 C28.1,46.1 32.7,42.1 36.7,37.8 C40.3,33.9 43.4,29.7 45.9,25.5 C50.3,18 52.8,10.2 52.8,3.5 C52.8,-4.8 50.6,-11.7 46.5,-16.6 C41.8,-22.2 34.7,-25.1 25.4,-25.1 M56.8,-12.4 C56.8,-9.6 59,-7.4 61.6,-7.4 C64.2,-7.4 66.4,-9.6 66.4,-12.4 C66.4,-15.2 64.2,-17.5 61.6,-17.5 C59,-17.5 56.8,-15.2 56.8,-12.4 M56.8,12.3 C56.8,15.1 59,17.4 61.6,17.4 C64.2,17.4 66.4,15.1 66.4,12.3 C66.4,9.5 64.2,7.2 61.6,7.2 C59,7.2 56.8,9.5 56.8,12.3"/>
<path class="Clef" transform="matrix(2.3811,0,0,2.3811,212.156,1612.06)" d="M63.37,-5.89004 C62.14,-11.32 59.5,-15.14 58.72,-16.1801 C55.5301,-20.45 51.52,-23.3 46.8301,-24.65 C43.72,-25.54 40.72,-25.65 38.3,-25.47 C37.2601,-31.4801 36.2601,-37.3601 35.35,-42.8101 C40.79,-48.97 44.42,-54.77 46.69,-59.07 C50.1601,-65.65 51.3101,-70.2301 51.3601,-70.4301 C53.0801,-75.64 53.44,-83.34 52.34,-91.55 C51.3301,-99.1 49.24,-105.81 46.89,-109.06 C45.8601,-110.49 44.8101,-111.22 43.77,-111.22 C42.55,-111.22 40.04,-109.98 37.15,-107.21 C34.85,-105.01 31.5801,-101.12 29.02,-95.1101 C26.02,-88.05 25.8101,-78.5601 26.1601,-71.84 C26.54,-64.57 27.65,-58.8801 27.6601,-58.8301 C27.6801,-58.74 27.94,-57.24 28.39,-54.67 C28.1601,-54.44 27.92,-54.22 27.67,-53.9801 C26.6301,-52.9801 25.44,-51.84 24.0601,-50.4601 C23.2,-49.6 22.25,-48.69 21.25,-47.72 C12.79,-39.57 0,-27.25 0,-8.1 C0,-3.4 0.9,1.01992 2.68008,5.02998 C4.27002,8.62998 6.57002,11.91 9.5,14.78 C17.2301,22.33 27.82,25.5399 34.8801,25.38 C37.8301,25.31 40.4601,25.0699 42.85,24.6199 C44.6801,34.2199 45.82,41.25 45.8601,46.5899 C45.9,53.1 44.25,57.0699 40.35,59.8399 C37.92,61.5699 35.1101,62.5199 32.0101,62.6699 C29.42,62.7899 27.1601,62.3199 25.7301,61.91 L25.72,61.91 C25.72,61.91 25.4301,61.83 25.42,61.63 C25.4101,61.45 25.7601,61.4 25.77,61.4 L25.79,61.4 C27.7101,60.96 31.2801,59.73 33.64,56.43 C35.44,53.91 36.3101,49.2899 34.47,45.35 C33.3601,42.96 30.85,40.01 25.2301,39.56 C22.74,39.36 20.47,39.8699 18.47,41.0699 C16.6601,42.15 15.1601,43.7899 14.1101,45.7899 C11.65,50.4899 12.1101,56.2199 15.24,60.06 C18.2,63.68 22.82,65.9899 28.25,66.5699 C29.1,66.66 29.95,66.7 30.8,66.7 C31.5101,66.7 32.22,66.6699 32.92,66.61 C31.72,66.9399 30.64,67.4899 29.77,68.25 C28.2801,69.5399 27.44,71.38 27.44,73.41 C27.44,75.28 28.0601,76.65 29.55,78.0399 C28.4101,78.5 27.55,78.98 26.79,79.56 C25.25,80.73 24.34,82.46 24.34,84.1899 C24.34,87.45 27.3,89.63 31.72,89.63 C37.1301,89.63 40.9101,86.63 40.9101,82.35 C40.9101,80.1199 39.9101,78.18 38.0801,76.83 C41.0101,75.6199 42.37,73.9399 42.37,71.56 C42.39,70.05 41.69,68.61 40.49,67.6899 C39.2801,66.7399 37.62,66.2399 35.69,66.2399 L35.5101,66.2399 C38.2801,65.7 40.92,64.7 43.2101,63.28 C46.87,60.71 48.99,56.73 49.67,51.1 C50.2301,46.46 49.84,40.55 48.44,32.48 C48.0801,30.3899 47.54,27.36 46.8801,23.6 C52.6301,21.68 56.79,18.11 60.5601,12.26 C63.85,6.51992 64.8,0.419922 63.37,-5.89004 M32.39,87.5399 C30.19,87.5399 28.7301,86.1199 28.7301,84.01 C28.7301,82.11 29.65,80.5 31.32,79.4699 C31.6801,79.66 31.77,79.71 32.1101,79.88 C33.3,80.48 33.3,80.48 33.55,80.63 L33.5601,80.6399 C35.47,81.73 36.25,82.76 36.25,84.18 C36.24,86.0899 34.59,87.5399 32.39,87.5399 M38.3101,71.63 C38.3101,73.2699 37.7301,74.3399 36.1801,75.53 C34.74,74.78 34.35,74.56 33.9801,74.3399 L33.8801,74.28 C32.3301,73.3399 31.85,72.66 31.85,71.4 C31.85,69.6 33.2301,68.3399 35.19,68.3399 C37.17,68.35 38.3101,69.55 38.3101,71.63 M33.15,-83.8101 C34.9301,-89.55 37.67,-92.8 39.6601,-94.5301 C41.4101,-96.05 43.0601,-96.7601 43.9801,-96.7601 C44.12,-96.7601 44.24,-96.74 44.34,-96.7101 C44.8,-96.57 45.3301,-96 45.8,-95.1301 C48.1101,-90.84 47.37,-84.1301 46.0301,-79.69 C44.4,-74.29 41.4801,-68.6801 32.69,-59.0601 C32.52,-60.17 32.3601,-61.22 32.2101,-62.2 C30.95,-70.49 31.27,-77.7601 33.15,-83.8101 M29.15,20.31 C24.5101,19.0899 20.0801,16.5899 16.32,13.0899 C15.0101,11.86 13.14,9.68994 11.67,6.3 C10.3101,3.13994 9.65,-0.290039 9.7,-3.88008 C9.77002,-8.57002 11.0801,-13.39 13.59,-18.1801 C16.5101,-23.7601 21.07,-29.29 27.1301,-34.62 C28.5801,-35.9 29.95,-37.1801 31.24,-38.4601 C32,-34.2 32.8301,-29.5101 33.7101,-24.6301 C29.8601,-23.3601 25.1101,-20.2101 22,-14.5601 C18.47,-7.99004 18.6101,-2.47002 19.34,1.00996 C20.2801,5.46992 22.8101,9.22998 26.27,11.3199 C27.2,11.88 31.3301,14.01 33.17,13.43 C33.54,13.31 33.8101,13.0899 33.95,12.76 C34.4601,11.5899 33.44,10.95 31.8801,9.98994 C31.2801,9.61992 30.6101,9.2 29.8801,8.66992 C26.5601,6.17998 25.1101,1.72998 26.1801,-2.65 C26.7601,-5.05 28.04,-7.21006 29.8801,-8.91006 C31.55,-10.4601 33.59,-11.5601 35.97,-12.2 C38.0101,-0.960059 40.07,10.1899 41.7101,18.55 C41.84,19.2399 41.9801,19.91 42.1101,20.58 C37.7101,21.51 33.37,21.4199 29.15,20.31 M54.9,10.1 C53.7301,13.28 51.27,17.35 46.14,19.41 C46.07,18.9899 45.99,18.56 45.9101,18.13 C44.3601,9.36992 42.4301,-1.61006 40.47,-12.87 C50.82,-13.35 55.09,-5.91006 55.9801,-1.08008 C56.45,1.45 56.45,5.88994 54.9,10.1"/>
<path class="FiguredBass" d="M660.077,2497.1 C655.5,2497.1 652.454,2498.94 650.939,2502.62 C649.423,2506.3 648.666,2511.51 648.666,2518.25 L648.666,2529.2 C651.882,2527.9 654.665,2527.22 657.015,2527.16 C665.056,2527.16 671.38,2528.94 675.987,2532.49 C680.595,2536.05 682.899,2541.34 682.899,2548.36 C682.899,2555.38 680.564,2560.68 675.895,2564.27 C671.225,2567.86 664.932,2569.65 657.015,2569.65 C648.913,2569.65 642.574,2565.89 637.997,2558.38 C633.42,2550.86 631.132,2541.94 631.132,2531.61 C631.132,2521.35 633.791,2512.44 639.11,2504.89 C644.429,2497.35 651.418,2493.58 660.077,2493.58 C665.767,2493.58 670.684,2495.01 674.828,2497.89 C678.972,2500.77 681.044,2504.55 681.044,2509.25 C681.044,2511.98 680.054,2514.33 678.075,2516.31 C676.096,2518.28 673.73,2519.27 670.978,2519.27 C668.225,2519.27 665.86,2518.28 663.881,2516.31 C661.901,2514.33 660.912,2511.98 660.912,2509.25 C660.912,2506.6 661.901,2504.24 663.881,2502.2 C664.561,2501.4 665.52,2500.72 666.757,2500.16 C666.447,2499.36 665.829,2498.74 664.901,2498.31 C663.54,2497.5 661.932,2497.1 660.077,2497.1 M664.623,2535.05 C663.509,2532.14 661.066,2530.69 657.294,2530.69 C653.521,2530.69 651.186,2532.14 650.289,2535.05 C649.392,2537.95 648.944,2542.37 648.944,2548.31 C648.944,2555.3 649.392,2560 650.289,2562.41 C651.186,2564.83 653.521,2566.03 657.294,2566.03 C661.066,2566.03 663.509,2564.58 664.623,2561.67 C665.736,2558.76 666.293,2554.33 666.293,2548.36 C666.293,2542.39 665.736,2537.95 664.623,2535.05"/>
<path class="FiguredBass" d="M648.571,2649.98 L648.571,2660 L648.571,2661.67 C648.571,2665.44 648.726,2668.78 649.035,2671.69 C652.004,2669.15 654.323,2667.08 655.993,2665.47 C657.663,2663.87 659.286,2661.67 660.863,2658.89 C662.441,2656.1 663.229,2653.34 663.229,2650.58 C663.229,2647.83 662.642,2645.43 661.466,2643.39 C660.291,2641.35 658.683,2640.33 656.642,2640.33 C654.292,2640.33 652.39,2641.28 650.937,2643.16 C649.483,2645.05 648.695,2647.32 648.571,2649.98 M642.17,2677.16 L640.407,2594.97 C641.706,2594.16 643.066,2593.74 644.489,2593.71 C645.911,2593.68 647.272,2594.1 648.571,2594.97 L647.55,2639.13 C651.633,2635.72 656.24,2634.02 661.374,2634.02 C665.208,2634.02 668.425,2635.57 671.022,2638.66 C673.62,2641.75 674.919,2645.37 674.919,2649.52 C674.919,2652.36 674.115,2655.07 672.507,2657.63 C670.898,2660.2 669.198,2662.26 667.404,2663.8 C665.61,2665.35 662.874,2667.48 659.194,2670.2 C655.514,2672.93 653.302,2674.6 652.56,2675.21 C652.065,2675.65 651.401,2676.42 650.566,2677.53 C649.731,2678.65 648.942,2679.5 648.2,2680.09 C647.458,2680.67 646.623,2680.97 645.695,2680.97 C644.705,2680.97 643.87,2680.61 643.19,2679.9 C642.51,2679.19 642.17,2678.28 642.17,2677.16"/>
<path class="FiguredBass" d="M1537.23,2497.1 C1532.65,2497.1 1529.61,2498.94 1528.09,2502.62 C1526.58,2506.3 1525.82,2511.51 1525.82,2518.25 L1525.82,2529.2 C1529.04,2527.9 1531.82,2527.22 1534.17,2527.16 C1542.21,2527.16 1548.53,2528.94 1553.14,2532.49 C1557.75,2536.05 1560.05,2541.34 1560.05,2548.36 C1560.05,2555.38 1557.72,2560.68 1553.05,2564.27 C1548.38,2567.86 1542.09,2569.65 1534.17,2569.65 C1526.07,2569.65 1519.73,2565.89 1515.15,2558.38 C1510.57,2550.86 1508.28,2541.94 1508.28,2531.61 C1508.28,2521.35 1510.94,2512.44 1516.26,2504.89 C1521.58,2497.35 1528.57,2493.58 1537.23,2493.58 C1542.92,2493.58 1547.84,2495.01 1551.98,2497.89 C1556.12,2500.77 1558.2,2504.55 1558.2,2509.25 C1558.2,2511.98 1557.21,2514.33 1555.23,2516.31 C1553.25,2518.28 1550.88,2519.27 1548.13,2519.27 C1545.38,2519.27 1543.01,2518.28 1541.03,2516.31 C1539.05,2514.33 1538.07,2511.98 1538.07,2509.25 C1538.07,2506.6 1539.05,2504.24 1541.03,2502.2 C1541.71,2501.4 1542.67,2500.72 1543.91,2500.16 C1543.6,2499.36 1542.98,2498.74 1542.05,2498.31 C1540.69,2497.5 1539.09,2497.1 1537.23,2497.1 M1541.78,2535.05 C1540.66,2532.14 1538.22,2530.69 1534.45,2530.69 C1530.67,2530.69 1528.34,2532.14 1527.44,2535.05 C1526.55,2537.95 1526.1,2542.37 1526.1,2548.31 C1526.1,2555.3 1526.55,2560 1527.44,2562.41 C1528.34,2564.83 1530.67,2566.03 1534.45,2566.03 C1538.22,2566.03 1540.66,2564.58 1541.78,2561.67 C1542.89,2558.76 1543.45,2554.33 1543.45,2548.36 C1543.45,2542.39 1542.89,2537.95 1541.78,2535.05"/>
<path class="FiguredBass" d="M1528.42,2665.75 L1528.42,2685.14 C1528.42,2687.06 1527.44,2688.02 1525.49,2688.02 C1523.55,2688.02 1522.57,2687.06 1522.57,2685.14 L1522.57,2668.26 L1519.6,2669.46 C1519.29,2669.59 1518.89,2669.65 1518.4,2669.65 C1517.59,2669.65 1516.88,2669.34 1516.26,2668.72 C1515.64,2668.1 1515.34,2667.39 1515.34,2666.59 L1515.34,2657.12 C1515.34,2655.76 1515.99,2654.8 1517.28,2654.25 L1522.57,2652.02 L1522.57,2632.54 L1519.6,2633.74 C1519.42,2633.81 1519.17,2633.84 1518.86,2633.84 C1518.74,2633.84 1518.58,2633.84 1518.4,2633.84 C1517.47,2633.71 1516.73,2633.37 1516.17,2632.82 C1515.61,2632.26 1515.34,2631.61 1515.34,2630.87 L1515.34,2621.41 C1515.34,2620.11 1515.99,2619.18 1517.28,2618.62 L1522.57,2616.4 L1522.57,2596.64 C1522.57,2594.72 1523.55,2593.76 1525.49,2593.76 C1527.44,2593.76 1528.42,2594.72 1528.42,2596.64 L1528.42,2613.98 L1540.38,2608.97 L1540.38,2589.58 C1540.38,2587.67 1541.34,2586.71 1543.26,2586.71 C1545.18,2586.71 1546.14,2587.67 1546.14,2589.58 L1546.14,2606.66 L1549.38,2605.26 C1549.69,2605.14 1550.03,2605.08 1550.4,2605.08 C1551.21,2605.08 1551.93,2605.39 1552.58,2606.01 C1553.23,2606.62 1553.56,2607.34 1553.56,2608.14 L1553.56,2617.6 C1553.56,2618.96 1552.88,2619.92 1551.52,2620.48 L1546.14,2622.7 L1546.14,2642.28 L1549.38,2640.98 C1549.57,2640.92 1549.79,2640.89 1550.03,2640.89 C1550.16,2640.89 1550.28,2640.89 1550.4,2640.89 C1551.46,2641.07 1552.24,2641.41 1552.77,2641.91 C1553.3,2642.4 1553.56,2643.05 1553.56,2643.86 L1553.56,2653.32 C1553.56,2654.62 1552.88,2655.55 1551.52,2656.1 L1546.14,2658.33 L1546.14,2678.09 C1546.14,2680.01 1545.18,2680.97 1543.26,2680.97 C1541.34,2680.97 1540.38,2680.01 1540.38,2678.09 L1540.38,2660.74 L1528.42,2665.75 M1528.42,2649.61 L1540.38,2644.69 L1540.38,2625.12 L1528.42,2630.13 L1528.42,2649.61 "/>
<path class="FiguredBass" d="M2477,2497.1 C2472.42,2497.1 2469.38,2498.94 2467.86,2502.62 C2466.35,2506.3 2465.59,2511.51 2465.59,2518.25 L2465.59,2529.2 C2468.8,2527.9 2471.59,2527.22 2473.94,2527.16 C2481.98,2527.16 2488.3,2528.94 2492.91,2532.49 C2497.52,2536.05 2499.82,2541.34 2499.82,2548.36 C2499.82,2555.38 2497.49,2560.68 2492.82,2564.27 C2488.15,2567.86 2481.85,2569.65 2473.94,2569.65 C2465.84,2569.65 2459.5,2565.89 2454.92,2558.38 C2450.34,2550.86 2448.05,2541.94 2448.05,2531.61 C2448.05,2521.35 2450.71,2512.44 2456.03,2504.89 C2461.35,2497.35 2468.34,2493.58 2477,2493.58 C2482.69,2493.58 2487.61,2495.01 2491.75,2497.89 C2495.89,2500.77 2497.97,2504.55 2497.97,2509.25 C2497.97,2511.98 2496.98,2514.33 2495,2516.31 C2493.02,2518.28 2490.65,2519.27 2487.9,2519.27 C2485.15,2519.27 2482.78,2518.28 2480.8,2516.31 C2478.82,2514.33 2477.83,2511.98 2477.83,2509.25 C2477.83,2506.6 2478.82,2504.24 2480.8,2502.2 C2481.48,2501.4 2482.44,2500.72 2483.68,2500.16 C2483.37,2499.36 2482.75,2498.74 2481.82,2498.31 C2480.46,2497.5 2478.85,2497.1 2477,2497.1 M2481.54,2535.05 C2480.43,2532.14 2477.99,2530.69 2474.22,2530.69 C2470.44,2530.69 2468.11,2532.14 2467.21,2535.05 C2466.31,2537.95 2465.87,2542.37 2465.87,2548.31 C2465.87,2555.3 2466.31,2560 2467.21,2562.41 C2468.11,2564.83 2470.44,2566.03 2474.22,2566.03 C2477.99,2566.03 2480.43,2564.58 2481.54,2561.67 C2482.66,2558.76 2483.21,2554.33 2483.21,2548.36 C2483.21,2542.39 2482.66,2537.95 2481.54,2535.05"/>
<path class="FiguredBass" d="M3354.15,2497.1 C3349.58,2497.1 3346.53,2498.94 3345.01,2502.62 C3343.5,2506.3 3342.74,2511.51 3342.74,2518.25 L3342.74,2529.2 C3345.96,2527.9 3348.74,2527.22 3351.09,2527.16 C3359.13,2527.16 3365.46,2528.94 3370.06,2532.49 C3374.67,2536.05 3376.97,2541.34 3376.97,2548.36 C3376.97,2555.38 3374.64,2560.68 3369.97,2564.27 C3365.3,2567.86 3359.01,2569.65 3351.09,2569.65 C3342.99,2569.65 3336.65,2565.89 3332.07,2558.38 C3327.5,2550.86 3325.21,2541.94 3325.21,2531.61 C3325.21,2521.35 3327.87,2512.44 3333.19,2504.89 C3338.5,2497.35 3345.49,2493.58 3354.15,2493.58 C3359.84,2493.58 3364.76,2495.01 3368.9,2497.89 C3373.05,2500.77 3375.12,2504.55 3375.12,2509.25 C3375.12,2511.98 3374.13,2514.33 3372.15,2516.31 C3370.17,2518.28 3367.81,2519.27 3365.05,2519.27 C3362.3,2519.27 3359.94,2518.28 3357.96,2516.31 C3355.98,2514.33 3354.99,2511.98 3354.99,2509.25 C3354.99,2506.6 3355.98,2504.24 3357.96,2502.2 C3358.64,2501.4 3359.59,2500.72 3360.83,2500.16 C3360.52,2499.36 3359.9,2498.74 3358.98,2498.31 C3357.62,2497.5 3356.01,2497.1 3354.15,2497.1 M3358.7,2535.05 C3357.58,2532.14 3355.14,2530.69 3351.37,2530.69 C3347.6,2530.69 3345.26,2532.14 3344.36,2535.05 C3343.47,2537.95 3343.02,2542.37 3343.02,2548.31 C3343.02,2555.3 3343.47,2560 3344.36,2562.41 C3345.26,2564.83 3347.6,2566.03 3351.37,2566.03 C3355.14,2566.03 3357.58,2564.58 3358.7,2561.67 C3359.81,2558.76 3360.37,2554.33 3360.37,2548.36 C3360.37,2542.39 3359.81,2537.95 3358.7,2535.05"/>
<path class="FiguredBass" d="M671.952,1838.97 C671.952,1839.96 672.508,1840.92 673.622,1841.84 C674.735,1842.77 675.957,1843.65 677.286,1844.49 C678.616,1845.32 679.838,1846.9 680.951,1849.22 C682.064,1851.54 682.621,1854.46 682.621,1857.99 C682.621,1864.79 680.054,1870.05 674.921,1873.76 C669.787,1877.47 663.293,1879.33 655.438,1879.33 C649.13,1879.33 643.64,1877.75 638.971,1874.59 C634.301,1871.44 631.966,1867.3 631.966,1862.16 C631.966,1859.44 632.956,1857.08 634.935,1855.07 C636.914,1853.06 639.28,1852.05 642.032,1852.05 C644.785,1852.05 647.119,1853.04 649.037,1855.02 C650.954,1857 651.913,1859.38 651.913,1862.16 C651.913,1863.4 650.892,1864.74 648.851,1866.2 C646.81,1867.65 645.79,1869 645.79,1870.23 C645.79,1872.15 646.733,1873.56 648.619,1874.45 C650.506,1875.35 652.779,1875.8 655.438,1875.8 C658.902,1875.8 661.36,1874.08 662.814,1870.65 C664.267,1867.22 664.994,1863 664.994,1857.99 L664.994,1855.58 C664.994,1852.24 664.886,1849.7 664.669,1847.97 C664.453,1846.24 663.772,1844.69 662.628,1843.33 C661.484,1841.97 659.737,1841.29 657.386,1841.29 L645.233,1841.29 C643.811,1841.29 643.099,1840.52 643.099,1838.97 C643.099,1837.55 643.811,1836.84 645.233,1836.84 L657.386,1836.84 C659.922,1836.84 661.901,1835.88 663.324,1833.96 C663.819,1833.28 664.221,1832.17 664.53,1830.62 C664.839,1828.58 664.994,1825.64 664.994,1821.81 L664.994,1820.6 C664.994,1811.38 661.592,1806.78 654.789,1806.78 C648.789,1806.78 645.79,1808.45 645.79,1811.79 C645.79,1812.9 646.702,1814.09 648.527,1815.36 C650.351,1816.63 651.263,1817.82 651.263,1818.93 C651.263,1821.34 650.413,1823.41 648.712,1825.15 C647.011,1826.88 644.939,1827.74 642.496,1827.74 C640.053,1827.74 637.997,1826.88 636.327,1825.15 C634.657,1823.41 633.822,1821.34 633.822,1818.93 C633.822,1814.17 635.894,1810.36 640.038,1807.52 C644.182,1804.67 649.099,1803.25 654.789,1803.25 C662.272,1803.25 668.426,1804.69 673.251,1807.57 C678.075,1810.44 680.487,1814.79 680.487,1820.6 C680.487,1824.74 680.054,1827.96 679.188,1830.25 C678.322,1832.54 677.333,1833.93 676.219,1834.42 C675.106,1834.92 674.117,1835.49 673.251,1836.14 C672.385,1836.79 671.952,1837.73 671.952,1838.97"/>
<path class="FiguredBass" d="M660.077,1912.53 C655.5,1912.53 652.454,1914.37 650.939,1918.05 C649.423,1921.73 648.666,1926.94 648.666,1933.68 L648.666,1944.63 C651.882,1943.33 654.665,1942.65 657.015,1942.59 C665.056,1942.59 671.38,1944.36 675.987,1947.92 C680.595,1951.48 682.899,1956.76 682.899,1963.78 C682.899,1970.8 680.564,1976.11 675.895,1979.69 C671.225,1983.28 664.932,1985.08 657.015,1985.08 C648.913,1985.08 642.574,1981.32 637.997,1973.8 C633.42,1966.29 631.132,1957.37 631.132,1947.04 C631.132,1936.77 633.791,1927.87 639.11,1920.32 C644.429,1912.77 651.418,1909 660.077,1909 C665.767,1909 670.684,1910.44 674.828,1913.32 C678.972,1916.19 681.044,1919.98 681.044,1924.68 C681.044,1927.4 680.054,1929.75 678.075,1931.73 C676.096,1933.71 673.73,1934.7 670.978,1934.7 C668.225,1934.7 665.86,1933.71 663.881,1931.73 C661.901,1929.75 660.912,1927.4 660.912,1924.68 C660.912,1922.02 661.901,1919.67 663.881,1917.63 C664.561,1916.83 665.52,1916.14 666.757,1915.59 C666.447,1914.78 665.829,1914.17 664.901,1913.73 C663.54,1912.93 661.932,1912.53 660.077,1912.53 M664.623,1950.47 C663.509,1947.56 661.066,1946.11 657.294,1946.11 C653.521,1946.11 651.186,1947.56 650.289,1950.47 C649.392,1953.38 648.944,1957.8 648.944,1963.74 C648.944,1970.73 649.392,1975.43 650.289,1977.84 C651.186,1980.25 653.521,1981.46 657.294,1981.46 C661.066,1981.46 663.509,1980 664.623,1977.1 C665.736,1974.19 666.293,1969.75 666.293,1963.78 C666.293,1957.82 665.736,1953.38 664.623,1950.47"/>
<path class="FiguredBass" d="M1549.11,1838.97 C1549.11,1839.96 1549.66,1840.92 1550.78,1841.84 C1551.89,1842.77 1553.11,1843.65 1554.44,1844.49 C1555.77,1845.32 1556.99,1846.9 1558.1,1849.22 C1559.22,1851.54 1559.77,1854.46 1559.77,1857.99 C1559.77,1864.79 1557.21,1870.05 1552.07,1873.76 C1546.94,1877.47 1540.45,1879.33 1532.59,1879.33 C1526.28,1879.33 1520.79,1877.75 1516.12,1874.59 C1511.45,1871.44 1509.12,1867.3 1509.12,1862.16 C1509.12,1859.44 1510.11,1857.08 1512.09,1855.07 C1514.07,1853.06 1516.43,1852.05 1519.19,1852.05 C1521.94,1852.05 1524.27,1853.04 1526.19,1855.02 C1528.11,1857 1529.07,1859.38 1529.07,1862.16 C1529.07,1863.4 1528.05,1864.74 1526,1866.2 C1523.96,1867.65 1522.94,1869 1522.94,1870.23 C1522.94,1872.15 1523.89,1873.56 1525.77,1874.45 C1527.66,1875.35 1529.93,1875.8 1532.59,1875.8 C1536.06,1875.8 1538.51,1874.08 1539.97,1870.65 C1541.42,1867.22 1542.15,1863 1542.15,1857.99 L1542.15,1855.58 C1542.15,1852.24 1542.04,1849.7 1541.82,1847.97 C1541.61,1846.24 1540.93,1844.69 1539.78,1843.33 C1538.64,1841.97 1536.89,1841.29 1534.54,1841.29 L1522.39,1841.29 C1520.96,1841.29 1520.25,1840.52 1520.25,1838.97 C1520.25,1837.55 1520.96,1836.84 1522.39,1836.84 L1534.54,1836.84 C1537.08,1836.84 1539.05,1835.88 1540.48,1833.96 C1540.97,1833.28 1541.37,1832.17 1541.68,1830.62 C1541.99,1828.58 1542.15,1825.64 1542.15,1821.81 L1542.15,1820.6 C1542.15,1811.38 1538.75,1806.78 1531.94,1806.78 C1525.94,1806.78 1522.94,1808.45 1522.94,1811.79 C1522.94,1812.9 1523.86,1814.09 1525.68,1815.36 C1527.5,1816.63 1528.42,1817.82 1528.42,1818.93 C1528.42,1821.34 1527.57,1823.41 1525.87,1825.15 C1524.16,1826.88 1522.09,1827.74 1519.65,1827.74 C1517.21,1827.74 1515.15,1826.88 1513.48,1825.15 C1511.81,1823.41 1510.98,1821.34 1510.98,1818.93 C1510.98,1814.17 1513.05,1810.36 1517.19,1807.52 C1521.33,1804.67 1526.25,1803.25 1531.94,1803.25 C1539.43,1803.25 1545.58,1804.69 1550.4,1807.57 C1555.23,1810.44 1557.64,1814.79 1557.64,1820.6 C1557.64,1824.74 1557.21,1827.96 1556.34,1830.25 C1555.48,1832.54 1554.49,1833.93 1553.37,1834.42 C1552.26,1834.92 1551.27,1835.49 1550.4,1836.14 C1549.54,1836.79 1549.11,1837.73 1549.11,1838.97"/>
<path class="FiguredBass" d="M1537.23,1912.53 C1532.65,1912.53 1529.61,1914.37 1528.09,1918.05 C1526.58,1921.73 1525.82,1926.94 1525.82,1933.68 L1525.82,1944.63 C1529.04,1943.33 1531.82,1942.65 1534.17,1942.59 C1542.21,1942.59 1548.53,1944.36 1553.14,1947.92 C1557.75,1951.48 1560.05,1956.76 1560.05,1963.78 C1560.05,1970.8 1557.72,1976.11 1553.05,1979.69 C1548.38,1983.28 1542.09,1985.08 1534.17,1985.08 C1526.07,1985.08 1519.73,1981.32 1515.15,1973.8 C1510.57,1966.29 1508.28,1957.37 1508.28,1947.04 C1508.28,1936.77 1510.94,1927.87 1516.26,1920.32 C1521.58,1912.77 1528.57,1909 1537.23,1909 C1542.92,1909 1547.84,1910.44 1551.98,1913.32 C1556.12,1916.19 1558.2,1919.98 1558.2,1924.68 C1558.2,1927.4 1557.21,1929.75 1555.23,1931.73 C1553.25,1933.71 1550.88,1934.7 1548.13,1934.7 C1545.38,1934.7 1543.01,1933.71 1541.03,1931.73 C1539.05,1929.75 1538.07,1927.4 1538.07,1924.68 C1538.07,1922.02 1539.05,1919.67 1541.03,1917.63 C1541.71,1916.83 1542.67,1916.14 1543.91,1915.59 C1543.6,1914.78 1542.98,1914.17 1542.05,1913.73 C1540.69,1912.93 1539.09,1912.53 1537.23,1912.53 M1541.78,1950.47 C1540.66,1947.56 1538.22,1946.11 1534.45,1946.11 C1530.67,1946.11 1528.34,1947.56 1527.44,1950.47 C1526.55,1953.38 1526.1,1957.8 1526.1,1963.74 C1526.1,1970.73 1526.55,1975.43 1527.44,1977.84 C1528.34,1980.25 1530.67,1981.46 1534.45,1981.46 C1538.22,1981.46 1540.66,1980 1541.78,1977.1 C1542.89,1974.19 1543.45,1969.75 1543.45,1963.78 C1543.45,1957.82 1542.89,1953.38 1541.78,1950.47"/>
<path class="FiguredBass" d="M2488.87,1838.97 C2488.87,1839.96 2489.43,1840.92 2490.54,1841.84 C2491.66,1842.77 2492.88,1843.65 2494.21,1844.49 C2495.54,1845.32 2496.76,1846.9 2497.87,1849.22 C2498.99,1851.54 2499.54,1854.46 2499.54,1857.99 C2499.54,1864.79 2496.98,1870.05 2491.84,1873.76 C2486.71,1877.47 2480.22,1879.33 2472.36,1879.33 C2466.05,1879.33 2460.56,1877.75 2455.89,1874.59 C2451.22,1871.44 2448.89,1867.3 2448.89,1862.16 C2448.89,1859.44 2449.88,1857.08 2451.86,1855.07 C2453.84,1853.06 2456.2,1852.05 2458.95,1852.05 C2461.71,1852.05 2464.04,1853.04 2465.96,1855.02 C2467.88,1857 2468.83,1859.38 2468.83,1862.16 C2468.83,1863.4 2467.81,1864.74 2465.77,1866.2 C2463.73,1867.65 2462.71,1869 2462.71,1870.23 C2462.71,1872.15 2463.66,1873.56 2465.54,1874.45 C2467.43,1875.35 2469.7,1875.8 2472.36,1875.8 C2475.82,1875.8 2478.28,1874.08 2479.74,1870.65 C2481.19,1867.22 2481.92,1863 2481.92,1857.99 L2481.92,1855.58 C2481.92,1852.24 2481.81,1849.7 2481.59,1847.97 C2481.37,1846.24 2480.69,1844.69 2479.55,1843.33 C2478.41,1841.97 2476.66,1841.29 2474.31,1841.29 L2462.16,1841.29 C2460.73,1841.29 2460.02,1840.52 2460.02,1838.97 C2460.02,1837.55 2460.73,1836.84 2462.16,1836.84 L2474.31,1836.84 C2476.84,1836.84 2478.82,1835.88 2480.25,1833.96 C2480.74,1833.28 2481.14,1832.17 2481.45,1830.62 C2481.76,1828.58 2481.92,1825.64 2481.92,1821.81 L2481.92,1820.6 C2481.92,1811.38 2478.51,1806.78 2471.71,1806.78 C2465.71,1806.78 2462.71,1808.45 2462.71,1811.79 C2462.71,1812.9 2463.62,1814.09 2465.45,1815.36 C2467.27,1816.63 2468.19,1817.82 2468.19,1818.93 C2468.19,1821.34 2467.34,1823.41 2465.63,1825.15 C2463.93,1826.88 2461.86,1827.74 2459.42,1827.74 C2456.98,1827.74 2454.92,1826.88 2453.25,1825.15 C2451.58,1823.41 2450.74,1821.34 2450.74,1818.93 C2450.74,1814.17 2452.82,1810.36 2456.96,1807.52 C2461.1,1804.67 2466.02,1803.25 2471.71,1803.25 C2479.19,1803.25 2485.35,1804.69 2490.17,1807.57 C2495,1810.44 2497.41,1814.79 2497.41,1820.6 C2497.41,1824.74 2496.98,1827.96 2496.11,1830.25 C2495.24,1832.54 2494.25,1833.93 2493.14,1834.42 C2492.03,1834.92 2491.04,1835.49 2490.17,1836.14 C2489.31,1836.79 2488.87,1837.73 2488.87,1838.97"/>
<path class="FiguredBass" d="M2477,1912.53 C2472.42,1912.53 2469.38,1914.37 2467.86,1918.05 C2466.35,1921.73 2465.59,1926.94 2465.59,1933.68 L2465.59,1944.63 C2468.8,1943.33 2471.59,1942.65 2473.94,1942.59 C2481.98,1942.59 2488.3,1944.36 2492.91,1947.92 C2497.52,1951.48 2499.82,1956.76 2499.82,1963.78 C2499.82,1970.8 2497.49,1976.11 2492.82,1979.69 C2488.15,1983.28 2481.85,1985.08 2473.94,1985.08 C2465.84,1985.08 2459.5,1981.32 2454.92,1973.8 C2450.34,1966.29 2448.05,1957.37 2448.05,1947.04 C2448.05,1936.77 2450.71,1927.87 2456.03,1920.32 C2461.35,1912.77 2468.34,1909 2477,1909 C2482.69,1909 2487.61,1910.44 2491.75,1913.32 C2495.89,1916.19 2497.97,1919.98 2497.97,1924.68 C2497.97,1927.4 2496.98,1929.75 2495,1931.73 C2493.02,1933.71 2490.65,1934.7 2487.9,1934.7 C2485.15,1934.7 2482.78,1933.71 2480.8,1931.73 C2478.82,1929.75 2477.83,1927.4 2477.83,1924.68 C2477.83,1922.02 2478.82,1919.67 2480.8,1917.63 C2481.48,1916.83 2482.44,1916.14 2483.68,1915.59 C2483.37,1914.78 2482.75,1914.17 2481.82,1913.73 C2480.46,1912.93 2478.85,1912.53 2477,1912.53 M2481.54,1950.47 C2480.43,1947.56 2477.99,1946.11 2474.22,1946.11 C2470.44,1946.11 2468.11,1947.56 2467.21,1950.47 C2466.31,1953.38 2465.87,1957.8 2465.87,1963.74 C2465.87,1970.73 2466.31,1975.43 2467.21,1977.84 C2468.11,1980.25 2470.44,1981.46 2474.22,1981.46 C2477.99,1981.46 2480.43,1980 2481.54,1977.1 C2482.66,1974.19 2483.21,1969.75 2483.21,1963.78 C2483.21,1957.82 2482.66,1953.38 2481.54,1950.47"/>
<path class="FiguredBass" d="M3366.03,1838.97 C3366.03,1839.96 3366.58,1840.92 3367.7,1841.84 C3368.81,1842.77 3370.03,1843.65 3371.36,1844.49 C3372.69,1845.32 3373.91,1846.9 3375.03,1849.22 C3376.14,1851.54 3376.7,1854.46 3376.7,1857.99 C3376.7,1864.79 3374.13,1870.05 3369,1873.76 C3363.86,1877.47 3357.37,1879.33 3349.51,1879.33 C3343.21,1879.33 3337.72,1877.75 3333.05,1874.59 C3328.38,1871.44 3326.04,1867.3 3326.04,1862.16 C3326.04,1859.44 3327.03,1857.08 3329.01,1855.07 C3330.99,1853.06 3333.36,1852.05 3336.11,1852.05 C3338.86,1852.05 3341.19,1853.04 3343.11,1855.02 C3345.03,1857 3345.99,1859.38 3345.99,1862.16 C3345.99,1863.4 3344.97,1864.74 3342.93,1866.2 C3340.89,1867.65 3339.87,1869 3339.87,1870.23 C3339.87,1872.15 3340.81,1873.56 3342.69,1874.45 C3344.58,1875.35 3346.85,1875.8 3349.51,1875.8 C3352.98,1875.8 3355.44,1874.08 3356.89,1870.65 C3358.34,1867.22 3359.07,1863 3359.07,1857.99 L3359.07,1855.58 C3359.07,1852.24 3358.96,1849.7 3358.74,1847.97 C3358.53,1846.24 3357.85,1844.69 3356.7,1843.33 C3355.56,1841.97 3353.81,1841.29 3351.46,1841.29 L3339.31,1841.29 C3337.89,1841.29 3337.17,1840.52 3337.17,1838.97 C3337.17,1837.55 3337.89,1836.84 3339.31,1836.84 L3351.46,1836.84 C3354,1836.84 3355.98,1835.88 3357.4,1833.96 C3357.89,1833.28 3358.3,1832.17 3358.61,1830.62 C3358.91,1828.58 3359.07,1825.64 3359.07,1821.81 L3359.07,1820.6 C3359.07,1811.38 3355.67,1806.78 3348.86,1806.78 C3342.86,1806.78 3339.87,1808.45 3339.87,1811.79 C3339.87,1812.9 3340.78,1814.09 3342.6,1815.36 C3344.43,1816.63 3345.34,1817.82 3345.34,1818.93 C3345.34,1821.34 3344.49,1823.41 3342.79,1825.15 C3341.09,1826.88 3339.01,1827.74 3336.57,1827.74 C3334.13,1827.74 3332.07,1826.88 3330.4,1825.15 C3328.73,1823.41 3327.9,1821.34 3327.9,1818.93 C3327.9,1814.17 3329.97,1810.36 3334.11,1807.52 C3338.26,1804.67 3343.17,1803.25 3348.86,1803.25 C3356.35,1803.25 3362.5,1804.69 3367.33,1807.57 C3372.15,1810.44 3374.56,1814.79 3374.56,1820.6 C3374.56,1824.74 3374.13,1827.96 3373.26,1830.25 C3372.4,1832.54 3371.41,1833.93 3370.29,1834.42 C3369.18,1834.92 3368.19,1835.49 3367.33,1836.14 C3366.46,1836.79 3366.03,1837.73 3366.03,1838.97"/>
<path class="FiguredBass" d="M3354.15,1912.53 C3349.58,1912.53 3346.53,1914.37 3345.01,1918.05 C3343.5,1921.73 3342.74,1926.94 3342.74,1933.68 L3342.74,1944.63 C3345.96,1943.33 3348.74,1942.65 3351.09,1942.59 C3359.13,1942.59 3365.46,1944.36 3370.06,1947.92 C3374.67,1951.48 3376.97,1956.76 3376.97,1963.78 C3376.97,1970.8 3374.64,1976.11 3369.97,1979.69 C3365.3,1983.28 3359.01,1985.08 3351.09,1985.08 C3342.99,1985.08 3336.65,1981.32 3332.07,1973.8 C3327.5,1966.29 3325.21,1957.37 3325.21,1947.04 C3325.21,1936.77 3327.87,1927.87 3333.19,1920.32 C3338.5,1912.77 3345.49,1909 3354.15,1909 C3359.84,1909 3364.76,1910.44 3368.9,1913.32 C3373.05,1916.19 3375.12,1919.98 3375.12,1924.68 C3375.12,1927.4 3374.13,1929.75 3372.15,1931.73 C3370.17,1933.71 3367.81,1934.7 3365.05,1934.7 C3362.3,1934.7 3359.94,1933.71 3357.96,1931.73 C3355.98,1929.75 3354.99,1927.4 3354.99,1924.68 C3354.99,1922.02 3355.98,1919.67 3357.96,1917.63 C3358.64,1916.83 3359.59,1916.14 3360.83,1915.59 C3360.52,1914.78 3359.9,1914.17 3358.98,1913.73 C3357.62,1912.93 3356.01,1912.53 3354.15,1912.53 M3358.7,1950.47 C3357.58,1947.56 3355.14,1946.11 3351.37,1946.11 C3347.6,1946.11 3345.26,1947.56 3344.36,1950.47 C3343.47,1953.38 3343.02,1957.8 3343.02,1963.74 C3343.02,1970.73 3343.47,1975.43 3344.36,1977.84 C3345.26,1980.25 3347.6,1981.46 3351.37,1981.46 C3355.14,1981.46 3357.58,1980 3358.7,1977.1 C3359.81,1974.19 3360.37,1969.75 3360.37,1963.78 C3360.37,1957.82 3359.81,1953.38 3358.7,1950.47"/>
<polyline class="FretDiagram" stroke="#fc0107" stroke-width="4.76" stroke-linejoin="bevel" points="556.458,209.594 769.566,209.594"/>
<polyline class="FretDiagram" stroke="#fc0107" stroke-width="4.76" stroke-linejoin="bevel" points="558.839,197.688 558.839,423.893"/>
<polyline class="FretDiagram" stroke="#fc0107" stroke-width="4.76" stroke-linejoin="bevel" points="600.508,197.688 600.508,423.893"/>
<polyline class="FretDiagram" stroke="#fc0107" stroke-width="4.76" stroke-linejoin="bevel" points="642.177,197.688 642.177,423.893"/>
<polyline class="FretDiagram" stroke="#fc0107" stroke-width="4.76" stroke-linejoin="bevel" points="683.847,197.688 683.847,423.893"/>
<polyline class="FretDiagram" stroke="#fc0107" stroke-width="4.76" stroke-linejoin="bevel" points="725.516,197.688 725.516,423.893"/>
<polyline class="FretDiagram" stroke="#fc0107" stroke-width="4.76" stroke-linejoin="bevel" points="767.185,197.688 767.185,423.893"/>
<polyline class="FretDiagram" stroke="#fc0107" stroke-width="4.76" stroke-linejoin="bevel" points="558.839,257.216 767.185,257.216"/>
<polyline class="FretDiagram" stroke="#fc0107" stroke-width="4.76" stroke-linejoin="bevel" points="558.839,304.838 767.185,304.838"/>
<polyline class="FretDiagram" stroke="#fc0107" stroke-width="4.76" stroke-linejoin="bevel" points="558.839,352.46 767.185,352.46"/>
<polyline class="FretDiagram" stroke="#fc0107" stroke-width="4.76" stroke-linejoin="bevel" points="558.839,400.082 767.185,400.082"/>
<path class="FretDiagram" fill="#fc0107" fill-rule="evenodd" d="M656.762,281.027 C656.762,289.082 650.232,295.611 642.177,295.611 C634.123,295.611 627.593,289.082 627.593,281.027 C627.593,272.972 634.123,266.443 642.177,266.443 C650.232,266.443 656.762,272.972 656.762,281.027"/>
<path class="FretDiagram" fill="#fc0107" fill-rule="evenodd" d="M698.431,233.405 C698.431,241.459 691.901,247.989 683.847,247.989 C675.792,247.989 669.262,241.459 669.262,233.405 C669.262,225.35 675.792,218.821 683.847,218.821 C691.901,218.821 698.431,225.35 698.431,233.405"/>
<path class="FretDiagram" fill="#fc0107" fill-rule="evenodd" d="M740.1,233.405 C740.1,241.459 733.571,247.989 725.516,247.989 C717.461,247.989 710.932,241.459 710.932,233.405 C710.932,225.35 717.461,218.821 725.516,218.821 C733.571,218.821 740.1,225.35 740.1,233.405"/>
<polyline class="FretDiagram" fill="none" stroke="#fc0107" stroke-width="6.86" stroke-linecap="round" stroke-linejoin="bevel" points="542.171,145.304 575.506,178.639"/>
<polyline class="FretDiagram" fill="none" stroke="#fc0107" stroke-width="6.86" stroke-linecap="round" stroke-linejoin="bevel" points="542.171,178.639 575.506,145.304"/>
<polyline class="FretDiagram" fill="none" stroke="#fc0107" stroke-width="6.86" stroke-linecap="round" stroke-linejoin="bevel" points="583.84,145.304 617.176,178.639"/>
<polyline class="FretDiagram" fill="none" stroke="#fc0107" stroke-width="6.86" stroke-linecap="round" stroke-linejoin="bevel" points="583.84,178.639 617.176,145.304"/>
<polyline class="FretDiagram" fill="none" stroke="#fc0107" stroke-width="6.86" stroke-linecap="round" stroke-linejoin="bevel" points="750.517,145.304 783.853,178.639"/>
<polyline class="FretDiagram" fill="none" stroke="#fc0107" stroke-width="6.86" stroke-linecap="round" stroke-linejoin="bevel" points="750.517,178.639 783.853,145.304"/>
<path class="FretDiagram" fill="#fc0107" d="M534.59,199.301 L534.59,207.566 L506.565,207.566 L503.905,226.376 C507.642,223.653 511.79,222.291 516.35,222.291 C522.81,222.291 528.051,224.365 532.072,228.514 C536.094,232.662 538.105,238.061 538.105,244.711 C538.105,251.805 535.952,257.6 531.645,262.096 C527.338,266.593 521.797,268.841 515.02,268.841 C512.423,268.841 510.032,268.556 507.847,267.986 C505.662,267.416 503.857,266.735 502.432,265.944 C501.007,265.152 499.709,264.107 498.537,262.809 C497.366,261.51 496.479,260.37 495.877,259.389 C495.276,258.407 494.706,257.172 494.167,255.684 C493.629,254.195 493.297,253.166 493.17,252.596 C493.043,252.026 492.885,251.203 492.695,250.126 L501.055,250.126 C503.018,257.663 507.61,261.431 514.83,261.431 C519.39,261.431 522.984,260.038 525.612,257.251 C528.241,254.465 529.555,250.665 529.555,245.851 C529.555,240.848 528.225,236.905 525.565,234.024 C522.905,231.142 519.327,229.701 514.83,229.701 C512.233,229.701 510.017,230.16 508.18,231.079 C506.343,231.997 504.443,233.628 502.48,235.971 L494.785,235.971 L499.82,199.301 L534.59,199.301 "/>
<polyline class="FretDiagram" fill="#fc0107" stroke="#fc0107" stroke-width="4.76" stroke-linejoin="bevel" points="1433.61,206.022 1646.72,206.022"/>
<polyline class="FretDiagram" fill="#fc0107" stroke="#fc0107" stroke-width="4.76" stroke-linejoin="bevel" points="1435.99,194.117 1435.99,420.321"/>
<polyline class="FretDiagram" fill="#fc0107" stroke="#fc0107" stroke-width="4.76" stroke-linejoin="bevel" points="1477.66,194.117 1477.66,420.321"/>
<polyline class="FretDiagram" fill="#fc0107" stroke="#fc0107" stroke-width="4.76" stroke-linejoin="bevel" points="1519.33,194.117 1519.33,420.321"/>
<polyline class="FretDiagram" fill="#fc0107" stroke="#fc0107" stroke-width="4.76" stroke-linejoin="bevel" points="1561,194.117 1561,420.321"/>
<polyline class="FretDiagram" fill="#fc0107" stroke="#fc0107" stroke-width="4.76" stroke-linejoin="bevel" points="1602.67,194.117 1602.67,420.321"/>
<polyline class="FretDiagram" fill="#fc0107" stroke="#fc0107" stroke-width="4.76" stroke-linejoin="bevel" points="1644.34,194.117 1644.34,420.321"/>
<polyline class="FretDiagram" fill="#fc0107" stroke="#fc0107" stroke-width="4.76" stroke-linejoin="bevel" points="1435.99,253.644 1644.34,253.644"/>
<polyline class="FretDiagram" fill="#fc0107" stroke="#fc0107" stroke-width="4.76" stroke-linejoin="bevel" points="1435.99,301.266 1644.34,301.266"/>
<polyline class="FretDiagram" fill="#fc0107" stroke="#fc0107" stroke-width="4.76" stroke-linejoin="bevel" points="1435.99,348.888 1644.34,348.888"/>
<polyline class="FretDiagram" fill="#fc0107" stroke="#fc0107" stroke-width="4.76" stroke-linejoin="bevel" points="1435.99,396.51 1644.34,396.51"/>
<path class="FretDiagram" fill="#fc0107" fill-rule="evenodd" d="M1533.91,229.833 C1533.91,237.888 1527.39,244.417 1519.33,244.417 C1511.28,244.417 1504.75,237.888 1504.75,229.833 C1504.75,221.778 1511.28,215.249 1519.33,215.249 C1527.39,215.249 1533.91,221.778 1533.91,229.833"/>
<path class="FretDiagram" fill="#fc0107" fill-rule="evenodd" d="M1575.58,229.833 C1575.58,237.888 1569.05,244.417 1561,244.417 C1552.95,244.417 1546.42,237.888 1546.42,229.833 C1546.42,221.778 1552.95,215.249 1561,215.249 C1569.05,215.249 1575.58,221.778 1575.58,229.833"/>
<path class="FretDiagram" fill="#fc0107" fill-rule="evenodd" d="M1617.25,229.833 C1617.25,237.888 1610.72,244.417 1602.67,244.417 C1594.61,244.417 1588.08,237.888 1588.08,229.833 C1588.08,221.778 1594.61,215.249 1602.67,215.249 C1610.72,215.249 1617.25,221.778 1617.25,229.833"/>
<polyline class="FretDiagram" fill="none" stroke="#fc0107" stroke-width="6.86" stroke-linecap="round" stroke-linejoin="bevel" points="1419.32,141.732 1452.66,175.068"/>
<polyline class="FretDiagram" fill="none" stroke="#fc0107" stroke-width="6.86" stroke-linecap="round" stroke-linejoin="bevel" points="1419.32,175.068 1452.66,141.732"/>
<polyline class="FretDiagram" fill="none" stroke="#fc0107" stroke-width="6.86" stroke-linecap="round" stroke-linejoin="bevel" points="1460.99,141.732 1494.33,175.068"/>
<polyline class="FretDiagram" fill="none" stroke="#fc0107" stroke-width="6.86" stroke-linecap="round" stroke-linejoin="bevel" points="1460.99,175.068 1494.33,141.732"/>
<polyline class="FretDiagram" fill="none" stroke="#fc0107" stroke-width="6.86" stroke-linecap="round" stroke-linejoin="bevel" points="1627.67,141.732 1661.01,175.068"/>
<polyline class="FretDiagram" fill="none" stroke="#fc0107" stroke-width="6.86" stroke-linecap="round" stroke-linejoin="bevel" points="1627.67,175.068 1661.01,141.732"/>
<path class="FretDiagram" fill="#fc0107" d="M1411.74,195.73 L1411.74,203.995 L1383.72,203.995 L1381.06,222.805 C1384.79,220.081 1388.94,218.72 1393.5,218.72 C1399.96,218.72 1405.2,220.794 1409.23,224.942 C1413.25,229.09 1415.26,234.49 1415.26,241.14 C1415.26,248.233 1413.1,254.028 1408.8,258.525 C1404.49,263.021 1398.95,265.27 1392.17,265.27 C1389.58,265.27 1387.19,264.985 1385,264.415 C1382.82,263.845 1381.01,263.164 1379.59,262.372 C1378.16,261.58 1376.86,260.535 1375.69,259.237 C1374.52,257.939 1373.63,256.799 1373.03,255.817 C1372.43,254.835 1371.86,253.6 1371.32,252.112 C1370.78,250.624 1370.45,249.595 1370.32,249.025 C1370.2,248.455 1370.04,247.631 1369.85,246.555 L1378.21,246.555 C1380.17,254.091 1384.76,257.86 1391.98,257.86 C1396.54,257.86 1400.14,256.466 1402.77,253.68 C1405.39,250.893 1406.71,247.093 1406.71,242.28 C1406.71,237.276 1405.38,233.334 1402.72,230.452 C1400.06,227.57 1396.48,226.13 1391.98,226.13 C1389.39,226.13 1387.17,226.589 1385.33,227.507 C1383.5,228.425 1381.6,230.056 1379.63,232.4 L1371.94,232.4 L1376.97,195.73 L1411.74,195.73 "/>
<polyline class="FretDiagram" fill="#fc0107" stroke="#fc0107" stroke-width="4.76" stroke-linejoin="bevel" points="2373.38,269.121 2586.49,269.121"/>
<polyline class="FretDiagram" fill="#fc0107" stroke="#fc0107" stroke-width="4.76" stroke-linejoin="bevel" points="2375.76,257.216 2375.76,483.421"/>
<polyline class="FretDiagram" fill="#fc0107" stroke="#fc0107" stroke-width="4.76" stroke-linejoin="bevel" points="2417.43,257.216 2417.43,483.421"/>
<polyline class="FretDiagram" fill="#fc0107" stroke="#fc0107" stroke-width="4.76" stroke-linejoin="bevel" points="2459.1,257.216 2459.1,483.421"/>
<polyline class="FretDiagram" fill="#fc0107" stroke="#fc0107" stroke-width="4.76" stroke-linejoin="bevel" points="2500.77,257.216 2500.77,483.421"/>
<polyline class="FretDiagram" fill="#fc0107" stroke="#fc0107" stroke-width="4.76" stroke-linejoin="bevel" points="2542.44,257.216 2542.44,483.421"/>
<polyline class="FretDiagram" fill="#fc0107" stroke="#fc0107" stroke-width="4.76" stroke-linejoin="bevel" points="2584.11,257.216 2584.11,483.421"/>
<polyline class="FretDiagram" fill="#fc0107" stroke="#fc0107" stroke-width="4.76" stroke-linejoin="bevel" points="2375.76,316.743 2584.11,316.743"/>
<polyline class="FretDiagram" fill="#fc0107" stroke="#fc0107" stroke-width="4.76" stroke-linejoin="bevel" points="2375.76,364.365 2584.11,364.365"/>
<polyline class="FretDiagram" fill="#fc0107" stroke="#fc0107" stroke-width="4.76" stroke-linejoin="bevel" points="2375.76,411.987 2584.11,411.987"/>
<polyline class="FretDiagram" fill="#fc0107" stroke="#fc0107" stroke-width="4.76" stroke-linejoin="bevel" points="2375.76,459.61 2584.11,459.61"/>
<path class="FretDiagram" fill="#fc0107" fill-rule="evenodd" d="M2473.68,340.554 C2473.68,348.609 2467.15,355.139 2459.1,355.139 C2451.04,355.139 2444.52,348.609 2444.52,340.554 C2444.52,332.5 2451.04,325.97 2459.1,325.97 C2467.15,325.97 2473.68,332.5 2473.68,340.554"/>
<path class="FretDiagram" fill="#fc0107" fill-rule="evenodd" d="M2557.02,292.932 C2557.02,300.987 2550.49,307.517 2542.44,307.517 C2534.38,307.517 2527.85,300.987 2527.85,292.932 C2527.85,284.878 2534.38,278.348 2542.44,278.348 C2550.49,278.348 2557.02,284.878 2557.02,292.932"/>
<path class="FretDiagram" fill="#fc0107" fill-rule="evenodd" d="M2598.69,388.176 C2598.69,396.231 2592.16,402.761 2584.11,402.761 C2576.05,402.761 2569.52,396.231 2569.52,388.176 C2569.52,380.122 2576.05,373.592 2584.11,373.592 C2592.16,373.592 2598.69,380.122 2598.69,388.176"/>
<polyline class="FretDiagram" fill="none" stroke="#fc0107" stroke-width="6.86" stroke-linecap="round" stroke-linejoin="bevel" points="2359.09,204.832 2392.43,238.167"/>
<polyline class="FretDiagram" fill="none" stroke="#fc0107" stroke-width="6.86" stroke-linecap="round" stroke-linejoin="bevel" points="2359.09,238.167 2392.43,204.832"/>
<polyline class="FretDiagram" fill="none" stroke="#fc0107" stroke-width="6.86" stroke-linecap="round" stroke-linejoin="bevel" points="2400.76,204.832 2434.1,238.167"/>
<polyline class="FretDiagram" fill="none" stroke="#fc0107" stroke-width="6.86" stroke-linecap="round" stroke-linejoin="bevel" points="2400.76,238.167 2434.1,204.832"/>
<polyline class="FretDiagram" fill="none" stroke="#fc0107" stroke-width="6.86" stroke-linecap="round" stroke-linejoin="bevel" points="2484.1,204.832 2517.44,238.167"/>
<polyline class="FretDiagram" fill="none" stroke="#fc0107" stroke-width="6.86" stroke-linecap="round" stroke-linejoin="bevel" points="2484.1,238.167 2517.44,204.832"/>
<path class="FretDiagram" fill="#fc0107" d="M2351.51,258.829 L2351.51,267.094 L2323.49,267.094 L2320.83,285.904 C2324.56,283.181 2328.71,281.819 2333.27,281.819 C2339.73,281.819 2344.97,283.893 2348.99,288.041 C2353.02,292.19 2355.03,297.589 2355.03,304.239 C2355.03,311.332 2352.87,317.127 2348.57,321.624 C2344.26,326.121 2338.72,328.369 2331.94,328.369 C2329.35,328.369 2326.95,328.084 2324.77,327.514 C2322.58,326.944 2320.78,326.263 2319.35,325.471 C2317.93,324.68 2316.63,323.635 2315.46,322.336 C2314.29,321.038 2313.4,319.898 2312.8,318.916 C2312.2,317.935 2311.63,316.7 2311.09,315.211 C2310.55,313.723 2310.22,312.694 2310.09,312.124 C2309.97,311.554 2309.81,310.731 2309.62,309.654 L2317.98,309.654 C2319.94,317.191 2324.53,320.959 2331.75,320.959 C2336.31,320.959 2339.91,319.566 2342.53,316.779 C2345.16,313.992 2346.48,310.192 2346.48,305.379 C2346.48,300.376 2345.15,296.433 2342.49,293.551 C2339.83,290.67 2336.25,289.229 2331.75,289.229 C2329.16,289.229 2326.94,289.688 2325.1,290.606 C2323.27,291.525 2321.37,293.156 2319.4,295.499 L2311.71,295.499 L2316.74,258.829 L2351.51,258.829 "/>
<polyline class="FretDiagram" fill="#fc0107" stroke="#fc0107" stroke-width="4.76" stroke-linejoin="bevel" points="3250.53,269.121 3463.64,269.121"/>
<polyline class="FretDiagram" fill="#fc0107" stroke="#fc0107" stroke-width="4.76" stroke-linejoin="bevel" points="3252.91,257.216 3252.91,483.421"/>
<polyline class="FretDiagram" fill="#fc0107" stroke="#fc0107" stroke-width="4.76" stroke-linejoin="bevel" points="3294.58,257.216 3294.58,483.421"/>
<polyline class="FretDiagram" fill="#fc0107" stroke="#fc0107" stroke-width="4.76" stroke-linejoin="bevel" points="3336.25,257.216 3336.25,483.421"/>
<polyline class="FretDiagram" fill="#fc0107" stroke="#fc0107" stroke-width="4.76" stroke-linejoin="bevel" points="3377.92,257.216 3377.92,483.421"/>
<polyline class="FretDiagram" fill="#fc0107" stroke="#fc0107" stroke-width="4.76" stroke-linejoin="bevel" points="3419.59,257.216 3419.59,483.421"/>
<polyline class="FretDiagram" fill="#fc0107" stroke="#fc0107" stroke-width="4.76" stroke-linejoin="bevel" points="3461.26,257.216 3461.26,483.421"/>
<polyline class="FretDiagram" fill="#fc0107" stroke="#fc0107" stroke-width="4.76" stroke-linejoin="bevel" points="3252.91,316.743 3461.26,316.743"/>
<polyline class="FretDiagram" fill="#fc0107" stroke="#fc0107" stroke-width="4.76" stroke-linejoin="bevel" points="3252.91,364.365 3461.26,364.365"/>
<polyline class="FretDiagram" fill="#fc0107" stroke="#fc0107" stroke-width="4.76" stroke-linejoin="bevel" points="3252.91,411.987 3461.26,411.987"/>
<polyline class="FretDiagram" fill="#fc0107" stroke="#fc0107" stroke-width="4.76" stroke-linejoin="bevel" points="3252.91,459.61 3461.26,459.61"/>
<path class="FretDiagram" fill="#fc0107" fill-rule="evenodd" d="M3350.84,292.932 C3350.84,300.987 3344.31,307.517 3336.25,307.517 C3328.2,307.517 3321.67,300.987 3321.67,292.932 C3321.67,284.878 3328.2,278.348 3336.25,278.348 C3344.31,278.348 3350.84,284.878 3350.84,292.932"/>
<path class="FretDiagram" fill="#fc0107" fill-rule="evenodd" d="M3434.18,292.932 C3434.18,300.987 3427.65,307.517 3419.59,307.517 C3411.54,307.517 3405.01,300.987 3405.01,292.932 C3405.01,284.878 3411.54,278.348 3419.59,278.348 C3427.65,278.348 3434.18,284.878 3434.18,292.932"/>
<path class="FretDiagram" fill="#fc0107" fill-rule="evenodd" d="M3475.84,388.176 C3475.84,396.231 3469.32,402.761 3461.26,402.761 C3453.21,402.761 3446.68,396.231 3446.68,388.176 C3446.68,380.122 3453.21,373.592 3461.26,373.592 C3469.32,373.592 3475.84,380.122 3475.84,388.176"/>
<polyline class="FretDiagram" fill="none" stroke="#fc0107" stroke-width="6.86" stroke-linecap="round" stroke-linejoin="bevel" points="3236.25,204.832 3269.58,238.167"/>
<polyline class="FretDiagram" fill="none" stroke="#fc0107" stroke-width="6.86" stroke-linecap="round" stroke-linejoin="bevel" points="3236.25,238.167 3269.58,204.832"/>
<polyline class="FretDiagram" fill="none" stroke="#fc0107" stroke-width="6.86" stroke-linecap="round" stroke-linejoin="bevel" points="3277.92,204.832 3311.25,238.167"/>
<polyline class="FretDiagram" fill="none" stroke="#fc0107" stroke-width="6.86" stroke-linecap="round" stroke-linejoin="bevel" points="3277.92,238.167 3311.25,204.832"/>
<polyline class="FretDiagram" fill="none" stroke="#fc0107" stroke-width="6.86" stroke-linecap="round" stroke-linejoin="bevel" points="3361.25,204.832 3394.59,238.167"/>
<polyline class="FretDiagram" fill="none" stroke="#fc0107" stroke-width="6.86" stroke-linecap="round" stroke-linejoin="bevel" points="3361.25,238.167 3394.59,204.832"/>
<path class="FretDiagram" fill="#fc0107" d="M3228.67,258.829 L3228.67,267.094 L3200.64,267.094 L3197.98,285.904 C3201.72,283.181 3205.87,281.819 3210.43,281.819 C3216.89,281.819 3222.13,283.893 3226.15,288.041 C3230.17,292.19 3232.18,297.589 3232.18,304.239 C3232.18,311.332 3230.03,317.127 3225.72,321.624 C3221.41,326.121 3215.87,328.369 3209.1,328.369 C3206.5,328.369 3204.11,328.084 3201.92,327.514 C3199.74,326.944 3197.93,326.263 3196.51,325.471 C3195.08,324.68 3193.78,323.635 3192.61,322.336 C3191.44,321.038 3190.55,319.898 3189.95,318.916 C3189.35,317.935 3188.78,316.7 3188.24,315.211 C3187.7,313.723 3187.37,312.694 3187.25,312.124 C3187.12,311.554 3186.96,310.731 3186.77,309.654 L3195.13,309.654 C3197.09,317.191 3201.69,320.959 3208.91,320.959 C3213.47,320.959 3217.06,319.566 3219.69,316.779 C3222.32,313.992 3223.63,310.192 3223.63,305.379 C3223.63,300.376 3222.3,296.433 3219.64,293.551 C3216.98,290.67 3213.4,289.229 3208.91,289.229 C3206.31,289.229 3204.09,289.688 3202.26,290.606 C3200.42,291.525 3198.52,293.156 3196.56,295.499 L3188.86,295.499 L3193.9,258.829 L3228.67,258.829 "/>
<path class="Bracket" transform="matrix(8.6315,0,0,9.28435,76.1283,2361.92)" d="M0.92002,-50 C2.69004,-51.88 6.2,-55.8 6.2,-63 C6.2,-72.1 2.25996,-81.32 2.25996,-86.97 C2.25996,-93.06 5.84004,-98.84 5.95,-99 C6.05996,-99.16 6.05,-99.39 5.94004,-99.46 C5.82998,-99.53 5.62002,-99.47 5.49004,-99.32 C5.35996,-99.17 0,-93.75 0,-85.6 C0,-76.75 3.5,-70.58 3.5,-59.07 C3.5,-56.89 2.55996,-53.36 0.1,-50.33 C-0.0799805,-50.17 -0.1,-49.89 0.0599609,-49.7 L0.0700195,-49.69 L0.1,-49.66 C2.55996,-46.63 3.5,-43.1 3.5,-40.92 C3.5,-29.4 0,-23.24 0,-14.39 C0,-6.25 5.35996,-0.8 5.49004,-0.659961 C5.62002,-0.52002 5.8,-0.42998 5.94004,-0.52002 C6.07998,-0.609961 6.07998,-0.77998 5.95,-0.97998 C5.82002,-1.17998 2.25996,-6.92002 2.25996,-13.01 C2.25996,-18.66 6.2,-27.9 6.2,-37 C6.2,-44.3 2.69004,-48.12 0.92002,-50"/>
</svg>
