<?xml version="1.0" encoding="UTF-8" standalone="no"?>
<svg width="4209.45px" height="2976.38px" viewBox="0 0 4209.45 2976.38"
 xmlns="http://www.w3.org/2000/svg" xmlns:xlink="http://www.w3.org/1999/xlink" version="1.2" baseProfile="tiny">
<title>Diagrammes Accords Glissants (7)</title>
<desc>Generated by MuseScore 3.6.2</desc>
<polyline class="StaffLines" fill="none" stroke="#000000" stroke-width="6.55" stroke-linejoin="bevel" points="153.819,562.22 4138.58,562.22"/>
<polyline class="StaffLines" fill="none" stroke="#000000" stroke-width="6.55" stroke-linejoin="bevel" points="153.819,651.511 4138.58,651.511"/>
<polyline class="StaffLines" fill="none" stroke="#000000" stroke-width="6.55" stroke-linejoin="bevel" points="153.819,740.803 4138.58,740.803"/>
<polyline class="StaffLines" fill="none" stroke="#000000" stroke-width="6.55" stroke-linejoin="bevel" points="153.819,830.094 4138.58,830.094"/>
<polyline class="StaffLines" fill="none" stroke="#000000" stroke-width="6.55" stroke-linejoin="bevel" points="153.819,919.385 4138.58,919.385"/>
<polyline class="StaffLines" fill="none" stroke="#000000" stroke-width="6.55" stroke-linejoin="bevel" points="153.819,1008.68 4138.58,1008.68"/>
<polyline class="StaffLines" fill="none" stroke="#000000" stroke-width="6.55" stroke-linejoin="bevel" points="153.819,1395.61 4138.58,1395.61"/>
<polyline class="StaffLines" fill="none" stroke="#000000" stroke-width="6.55" stroke-linejoin="bevel" points="153.819,1455.13 4138.58,1455.13"/>
<polyline class="StaffLines" fill="none" stroke="#000000" stroke-width="6.55" stroke-linejoin="bevel" points="153.819,1514.66 4138.58,1514.66"/>
<polyline class="StaffLines" fill="none" stroke="#000000" stroke-width="6.55" stroke-linejoin="bevel" points="153.819,1574.19 4138.58,1574.19"/>
<polyline class="StaffLines" fill="none" stroke="#000000" stroke-width="6.55" stroke-linejoin="bevel" points="153.819,1633.72 4138.58,1633.72"/>
<polyline class="StaffLines" fill="none" stroke="#000000" stroke-width="6.55" stroke-linejoin="bevel" points="153.819,2234.41 4138.58,2234.41"/>
<polyline class="StaffLines" fill="none" stroke="#000000" stroke-width="6.55" stroke-linejoin="bevel" points="153.819,2293.93 4138.58,2293.93"/>
<polyline class="StaffLines" fill="none" stroke="#000000" stroke-width="6.55" stroke-linejoin="bevel" points="153.819,2353.46 4138.58,2353.46"/>
<polyline class="StaffLines" fill="none" stroke="#000000" stroke-width="6.55" stroke-linejoin="bevel" points="153.819,2412.99 4138.58,2412.99"/>
<polyline class="StaffLines" fill="none" stroke="#000000" stroke-width="6.55" stroke-linejoin="bevel" points="153.819,2472.52 4138.58,2472.52"/>
<polyline class="BarLine" fill="none" stroke="#000000" stroke-width="10.71" stroke-linejoin="bevel" points="159.176,2231.13 159.176,2475.79"/>
<polyline class="BarLine" fill="none" stroke="#000000" stroke-width="10.71" stroke-linejoin="bevel" points="1658.55,2231.13 1658.55,2475.79"/>
<polyline class="BarLine" fill="none" stroke="#000000" stroke-width="10.71" stroke-linejoin="bevel" points="2875.26,2231.13 2875.26,2475.79"/>
<polyline class="BarLine" fill="none" stroke="#000000" stroke-width="10.71" stroke-linejoin="bevel" points="4100.49,2231.13 4100.49,2475.79"/>
<polyline class="BarLine" fill="none" stroke="#000000" stroke-width="10.71" stroke-linejoin="bevel" points="4133.23,2231.13 4133.23,2475.79"/>
<polyline class="BarLine" fill="none" stroke="#000000" stroke-width="10.71" stroke-linejoin="bevel" points="159.176,1392.33 159.176,2234.41"/>
<polyline class="BarLine" fill="none" stroke="#000000" stroke-width="10.71" stroke-linejoin="bevel" points="1658.55,1392.33 1658.55,1636.99"/>
<polyline class="BarLine" fill="none" stroke="#000000" stroke-width="10.71" stroke-linejoin="bevel" points="2875.26,1392.33 2875.26,1636.99"/>
<polyline class="BarLine" fill="none" stroke="#000000" stroke-width="10.71" stroke-linejoin="bevel" points="4100.49,1392.33 4100.49,1636.99"/>
<polyline class="BarLine" fill="none" stroke="#000000" stroke-width="10.71" stroke-linejoin="bevel" points="4133.23,1392.33 4133.23,1636.99"/>
<polyline class="BarLine" fill="none" stroke="#000000" stroke-width="10.71" stroke-linejoin="bevel" points="159.176,558.946 159.176,1395.61"/>
<polyline class="BarLine" fill="none" stroke="#000000" stroke-width="10.71" stroke-linejoin="bevel" points="1658.55,558.946 1658.55,1011.95"/>
<polyline class="BarLine" fill="none" stroke="#000000" stroke-width="10.71" stroke-linejoin="bevel" points="2875.26,558.946 2875.26,1011.95"/>
<polyline class="BarLine" fill="none" stroke="#000000" stroke-width="10.71" stroke-linejoin="bevel" points="4100.49,558.946 4100.49,1011.95"/>
<polyline class="BarLine" fill="none" stroke="#000000" stroke-width="10.71" stroke-linejoin="bevel" points="4133.23,558.946 4133.23,1011.95"/>
<path class="Accidental" transform="matrix(2.3811,0,0,2.3811,504.71,1425.37)" d="M20.1,-7.9 C19.5,-11.8 17.1,-15.5 12,-15.5 C7,-15.5 4.1,-12.4 3.6,-11.8 L4,-43.9 C4,-44.7 3.4,-45.3 2.6,-45.3 L1.4,-45.3 C0.6,-45.3 0,-44.7 0,-43.9 L0.5,16.2 C0.5,17 1.1,17.6 1.9,17.6 C2.1,17.6 2.5,17.5 2.7,17.4 C3.1,17.2 9.6,14 15,7.9 C18.8,3.6 20.3,-1.3 20.3,-5.4 C20.3,-6.3 20.2,-7.1 20.1,-7.9 M13.2,-4 C13.2,-2.5 12.8,2.1 10.3,5.9 C8.6,8.5 5.2,11.2 3.3,12.7 L3.6,-6.8 C3.8,-7.7 5.3,-10.6 9.3,-10.6 C12.9,-10.6 13.2,-7.2 13.2,-5.1 L13.2,-4 "/>
<path class="Accidental" transform="matrix(2.3811,0,0,2.3811,1721.42,1514.66)" d="M20.1,-7.9 C19.5,-11.8 17.1,-15.5 12,-15.5 C7,-15.5 4.1,-12.4 3.6,-11.8 L4,-43.9 C4,-44.7 3.4,-45.3 2.6,-45.3 L1.4,-45.3 C0.6,-45.3 0,-44.7 0,-43.9 L0.5,16.2 C0.5,17 1.1,17.6 1.9,17.6 C2.1,17.6 2.5,17.5 2.7,17.4 C3.1,17.2 9.6,14 15,7.9 C18.8,3.6 20.3,-1.3 20.3,-5.4 C20.3,-6.3 20.2,-7.1 20.1,-7.9 M13.2,-4 C13.2,-2.5 12.8,2.1 10.3,5.9 C8.6,8.5 5.2,11.2 3.3,12.7 L3.6,-6.8 C3.8,-7.7 5.3,-10.6 9.3,-10.6 C12.9,-10.6 13.2,-7.2 13.2,-5.1 L13.2,-4 "/>
<polyline class="LedgerLine" fill="none" stroke="#000000" stroke-width="9.52" stroke-linejoin="bevel" points="635.066,2174.88 765.543,2174.88"/>
<polyline class="Stem" fill="none" stroke="#000000" stroke-width="6.55" stroke-linejoin="bevel" points="2972.71,1403.61 2972.71,1745.33"/>
<polyline class="Stem" fill="none" stroke="#000000" stroke-width="6.55" stroke-linejoin="bevel" points="3535.56,1403.61 3535.56,1745.33"/>
<path class="Note" transform="matrix(2.3811,0,0,2.3811,655.901,2174.88)" d="M18.7,-13.6 C4.9,-13.6 0,-6.6 0,-0.1 C0,6.4 4.9,13.4 18.7,13.4 C32.5,13.4 37.3,6.4 37.3,-0.1 C37.3,-6.6 32.5,-13.6 18.7,-13.6 M10.4,-4.5 C10.3,-4.9 10.3,-5.3 10.3,-5.7 C10.3,-6.5 10.5,-7.3 10.9,-8 C11.6,-9 12.8,-9.7 14.3,-10 C15.6,-10.3 16.3,-10.5 18.9,-10.5 L19,-10.5 C23,-10.5 24.3,-6.8 25.4,-3 L25.7,-2 C26.5,0.6 26.9,2.8 26.9,4.5 C26.9,5.7 26.7,6.8 26.3,7.6 C25.7,8.7 24.7,9.4 23,9.8 C22.1,10 20.6,10.1 20.6,10.1 C20.1,10.1 19.7,10.2 19.3,10.2 C16.1,10.2 14.1,9 12.7,4.7 C11.5,1 11.3,-0.1 10.4,-4.5"/>
<path class="Note" transform="matrix(2.3811,0,0,2.3811,1872.61,2264.17)" d="M18.7,-13.6 C4.9,-13.6 0,-6.6 0,-0.1 C0,6.4 4.9,13.4 18.7,13.4 C32.5,13.4 37.3,6.4 37.3,-0.1 C37.3,-6.6 32.5,-13.6 18.7,-13.6 M10.4,-4.5 C10.3,-4.9 10.3,-5.3 10.3,-5.7 C10.3,-6.5 10.5,-7.3 10.9,-8 C11.6,-9 12.8,-9.7 14.3,-10 C15.6,-10.3 16.3,-10.5 18.9,-10.5 L19,-10.5 C23,-10.5 24.3,-6.8 25.4,-3 L25.7,-2 C26.5,0.6 26.9,2.8 26.9,4.5 C26.9,5.7 26.7,6.8 26.3,7.6 C25.7,8.7 24.7,9.4 23,9.8 C22.1,10 20.6,10.1 20.6,10.1 C20.1,10.1 19.7,10.2 19.3,10.2 C16.1,10.2 14.1,9 12.7,4.7 C11.5,1 11.3,-0.1 10.4,-4.5"/>
<path class="Note" transform="matrix(2.3811,0,0,2.3811,2963.72,2353.46)" d="M18.7,-13.6 C4.9,-13.6 0,-6.6 0,-0.1 C0,6.4 4.9,13.4 18.7,13.4 C32.5,13.4 37.3,6.4 37.3,-0.1 C37.3,-6.6 32.5,-13.6 18.7,-13.6 M10.4,-4.5 C10.3,-4.9 10.3,-5.3 10.3,-5.7 C10.3,-6.5 10.5,-7.3 10.9,-8 C11.6,-9 12.8,-9.7 14.3,-10 C15.6,-10.3 16.3,-10.5 18.9,-10.5 L19,-10.5 C23,-10.5 24.3,-6.8 25.4,-3 L25.7,-2 C26.5,0.6 26.9,2.8 26.9,4.5 C26.9,5.7 26.7,6.8 26.3,7.6 C25.7,8.7 24.7,9.4 23,9.8 C22.1,10 20.6,10.1 20.6,10.1 C20.1,10.1 19.7,10.2 19.3,10.2 C16.1,10.2 14.1,9 12.7,4.7 C11.5,1 11.3,-0.1 10.4,-4.5"/>
<path class="Note" transform="matrix(2.3811,0,0,2.3811,655.901,1544.42)" d="M18.7,-13.6 C4.9,-13.6 0,-6.6 0,-0.1 C0,6.4 4.9,13.4 18.7,13.4 C32.5,13.4 37.3,6.4 37.3,-0.1 C37.3,-6.6 32.5,-13.6 18.7,-13.6 M10.4,-4.5 C10.3,-4.9 10.3,-5.3 10.3,-5.7 C10.3,-6.5 10.5,-7.3 10.9,-8 C11.6,-9 12.8,-9.7 14.3,-10 C15.6,-10.3 16.3,-10.5 18.9,-10.5 L19,-10.5 C23,-10.5 24.3,-6.8 25.4,-3 L25.7,-2 C26.5,0.6 26.9,2.8 26.9,4.5 C26.9,5.7 26.7,6.8 26.3,7.6 C25.7,8.7 24.7,9.4 23,9.8 C22.1,10 20.6,10.1 20.6,10.1 C20.1,10.1 19.7,10.2 19.3,10.2 C16.1,10.2 14.1,9 12.7,4.7 C11.5,1 11.3,-0.1 10.4,-4.5"/>
<path class="Note" transform="matrix(2.3811,0,0,2.3811,573.641,1425.37)" d="M18.7,-13.6 C4.9,-13.6 0,-6.6 0,-0.1 C0,6.4 4.9,13.4 18.7,13.4 C32.5,13.4 37.3,6.4 37.3,-0.1 C37.3,-6.6 32.5,-13.6 18.7,-13.6 M10.4,-4.5 C10.3,-4.9 10.3,-5.3 10.3,-5.7 C10.3,-6.5 10.5,-7.3 10.9,-8 C11.6,-9 12.8,-9.7 14.3,-10 C15.6,-10.3 16.3,-10.5 18.9,-10.5 L19,-10.5 C23,-10.5 24.3,-6.8 25.4,-3 L25.7,-2 C26.5,0.6 26.9,2.8 26.9,4.5 C26.9,5.7 26.7,6.8 26.3,7.6 C25.7,8.7 24.7,9.4 23,9.8 C22.1,10 20.6,10.1 20.6,10.1 C20.1,10.1 19.7,10.2 19.3,10.2 C16.1,10.2 14.1,9 12.7,4.7 C11.5,1 11.3,-0.1 10.4,-4.5"/>
<path class="Note" transform="matrix(2.3811,0,0,2.3811,655.901,1395.61)" d="M18.7,-13.6 C4.9,-13.6 0,-6.6 0,-0.1 C0,6.4 4.9,13.4 18.7,13.4 C32.5,13.4 37.3,6.4 37.3,-0.1 C37.3,-6.6 32.5,-13.6 18.7,-13.6 M10.4,-4.5 C10.3,-4.9 10.3,-5.3 10.3,-5.7 C10.3,-6.5 10.5,-7.3 10.9,-8 C11.6,-9 12.8,-9.7 14.3,-10 C15.6,-10.3 16.3,-10.5 18.9,-10.5 L19,-10.5 C23,-10.5 24.3,-6.8 25.4,-3 L25.7,-2 C26.5,0.6 26.9,2.8 26.9,4.5 C26.9,5.7 26.7,6.8 26.3,7.6 C25.7,8.7 24.7,9.4 23,9.8 C22.1,10 20.6,10.1 20.6,10.1 C20.1,10.1 19.7,10.2 19.3,10.2 C16.1,10.2 14.1,9 12.7,4.7 C11.5,1 11.3,-0.1 10.4,-4.5"/>
<path class="Note" transform="matrix(2.3811,0,0,2.3811,1790.35,1514.66)" d="M18.7,-13.6 C4.9,-13.6 0,-6.6 0,-0.1 C0,6.4 4.9,13.4 18.7,13.4 C32.5,13.4 37.3,6.4 37.3,-0.1 C37.3,-6.6 32.5,-13.6 18.7,-13.6 M10.4,-4.5 C10.3,-4.9 10.3,-5.3 10.3,-5.7 C10.3,-6.5 10.5,-7.3 10.9,-8 C11.6,-9 12.8,-9.7 14.3,-10 C15.6,-10.3 16.3,-10.5 18.9,-10.5 L19,-10.5 C23,-10.5 24.3,-6.8 25.4,-3 L25.7,-2 C26.5,0.6 26.9,2.8 26.9,4.5 C26.9,5.7 26.7,6.8 26.3,7.6 C25.7,8.7 24.7,9.4 23,9.8 C22.1,10 20.6,10.1 20.6,10.1 C20.1,10.1 19.7,10.2 19.3,10.2 C16.1,10.2 14.1,9 12.7,4.7 C11.5,1 11.3,-0.1 10.4,-4.5"/>
<path class="Note" transform="matrix(2.3811,0,0,2.3811,1872.61,1484.9)" d="M18.7,-13.6 C4.9,-13.6 0,-6.6 0,-0.1 C0,6.4 4.9,13.4 18.7,13.4 C32.5,13.4 37.3,6.4 37.3,-0.1 C37.3,-6.6 32.5,-13.6 18.7,-13.6 M10.4,-4.5 C10.3,-4.9 10.3,-5.3 10.3,-5.7 C10.3,-6.5 10.5,-7.3 10.9,-8 C11.6,-9 12.8,-9.7 14.3,-10 C15.6,-10.3 16.3,-10.5 18.9,-10.5 L19,-10.5 C23,-10.5 24.3,-6.8 25.4,-3 L25.7,-2 C26.5,0.6 26.9,2.8 26.9,4.5 C26.9,5.7 26.7,6.8 26.3,7.6 C25.7,8.7 24.7,9.4 23,9.8 C22.1,10 20.6,10.1 20.6,10.1 C20.1,10.1 19.7,10.2 19.3,10.2 C16.1,10.2 14.1,9 12.7,4.7 C11.5,1 11.3,-0.1 10.4,-4.5"/>
<path class="Note" transform="matrix(2.3811,0,0,2.3811,1872.61,1425.37)" d="M18.7,-13.6 C4.9,-13.6 0,-6.6 0,-0.1 C0,6.4 4.9,13.4 18.7,13.4 C32.5,13.4 37.3,6.4 37.3,-0.1 C37.3,-6.6 32.5,-13.6 18.7,-13.6 M10.4,-4.5 C10.3,-4.9 10.3,-5.3 10.3,-5.7 C10.3,-6.5 10.5,-7.3 10.9,-8 C11.6,-9 12.8,-9.7 14.3,-10 C15.6,-10.3 16.3,-10.5 18.9,-10.5 L19,-10.5 C23,-10.5 24.3,-6.8 25.4,-3 L25.7,-2 C26.5,0.6 26.9,2.8 26.9,4.5 C26.9,5.7 26.7,6.8 26.3,7.6 C25.7,8.7 24.7,9.4 23,9.8 C22.1,10 20.6,10.1 20.6,10.1 C20.1,10.1 19.7,10.2 19.3,10.2 C16.1,10.2 14.1,9 12.7,4.7 C11.5,1 11.3,-0.1 10.4,-4.5"/>
<path class="Note" transform="matrix(2.3811,0,0,2.3811,2969.44,1574.19)" d="M31.5,-8.1 C29.7,-11.4 25.9,-13.2 21.3,-13.2 C17.9,-13.2 14.2,-12.2 10.6,-10.3 C4,-6.8 0,-0.9 0,4.2 C0,5.6 0.3,7 1,8.3 C2.8,11.6 6.6,13.3 11.2,13.3 C14.6,13.3 18.3,12.4 21.9,10.5 C28.5,7 32.5,1.1 32.5,-4 C32.5,-5.4 32.2,-6.8 31.5,-8.1 M27.2,-1.3 C25.5,0.4 22.1,2.5 18.5,4.5 C14.9,6.5 11.3,8 8.9,8.5 C8.4,8.6 7.9,8.7 7.4,8.7 C5.8,8.7 4.6,8.1 3.9,6.8 C3.6,6.3 3.4,5.7 3.4,5.1 C3.4,4 4.1,2.7 5.2,1.6 C6.9,-0.1 10.2,-2.2 13.8,-4.2 C17.4,-6.2 21,-7.7 23.4,-8.2 C23.9,-8.3 24.4,-8.4 24.9,-8.4 C26.5,-8.4 27.8,-7.8 28.5,-6.5 C28.8,-6 28.9,-5.4 28.9,-4.8 C28.9,-3.7 28.3,-2.5 27.2,-1.3"/>
<path class="Note" transform="matrix(2.3811,0,0,2.3811,2969.44,1514.66)" d="M31.5,-8.1 C29.7,-11.4 25.9,-13.2 21.3,-13.2 C17.9,-13.2 14.2,-12.2 10.6,-10.3 C4,-6.8 0,-0.9 0,4.2 C0,5.6 0.3,7 1,8.3 C2.8,11.6 6.6,13.3 11.2,13.3 C14.6,13.3 18.3,12.4 21.9,10.5 C28.5,7 32.5,1.1 32.5,-4 C32.5,-5.4 32.2,-6.8 31.5,-8.1 M27.2,-1.3 C25.5,0.4 22.1,2.5 18.5,4.5 C14.9,6.5 11.3,8 8.9,8.5 C8.4,8.6 7.9,8.7 7.4,8.7 C5.8,8.7 4.6,8.1 3.9,6.8 C3.6,6.3 3.4,5.7 3.4,5.1 C3.4,4 4.1,2.7 5.2,1.6 C6.9,-0.1 10.2,-2.2 13.8,-4.2 C17.4,-6.2 21,-7.7 23.4,-8.2 C23.9,-8.3 24.4,-8.4 24.9,-8.4 C26.5,-8.4 27.8,-7.8 28.5,-6.5 C28.8,-6 28.9,-5.4 28.9,-4.8 C28.9,-3.7 28.3,-2.5 27.2,-1.3"/>
<path class="Note" transform="matrix(2.3811,0,0,2.3811,2969.44,1395.61)" d="M31.5,-8.1 C29.7,-11.4 25.9,-13.2 21.3,-13.2 C17.9,-13.2 14.2,-12.2 10.6,-10.3 C4,-6.8 0,-0.9 0,4.2 C0,5.6 0.3,7 1,8.3 C2.8,11.6 6.6,13.3 11.2,13.3 C14.6,13.3 18.3,12.4 21.9,10.5 C28.5,7 32.5,1.1 32.5,-4 C32.5,-5.4 32.2,-6.8 31.5,-8.1 M27.2,-1.3 C25.5,0.4 22.1,2.5 18.5,4.5 C14.9,6.5 11.3,8 8.9,8.5 C8.4,8.6 7.9,8.7 7.4,8.7 C5.8,8.7 4.6,8.1 3.9,6.8 C3.6,6.3 3.4,5.7 3.4,5.1 C3.4,4 4.1,2.7 5.2,1.6 C6.9,-0.1 10.2,-2.2 13.8,-4.2 C17.4,-6.2 21,-7.7 23.4,-8.2 C23.9,-8.3 24.4,-8.4 24.9,-8.4 C26.5,-8.4 27.8,-7.8 28.5,-6.5 C28.8,-6 28.9,-5.4 28.9,-4.8 C28.9,-3.7 28.3,-2.5 27.2,-1.3"/>
<path class="Note" transform="matrix(2.3811,0,0,2.3811,3532.28,1574.19)" d="M31.5,-8.1 C29.7,-11.4 25.9,-13.2 21.3,-13.2 C17.9,-13.2 14.2,-12.2 10.6,-10.3 C4,-6.8 0,-0.9 0,4.2 C0,5.6 0.3,7 1,8.3 C2.8,11.6 6.6,13.3 11.2,13.3 C14.6,13.3 18.3,12.4 21.9,10.5 C28.5,7 32.5,1.1 32.5,-4 C32.5,-5.4 32.2,-6.8 31.5,-8.1 M27.2,-1.3 C25.5,0.4 22.1,2.5 18.5,4.5 C14.9,6.5 11.3,8 8.9,8.5 C8.4,8.6 7.9,8.7 7.4,8.7 C5.8,8.7 4.6,8.1 3.9,6.8 C3.6,6.3 3.4,5.7 3.4,5.1 C3.4,4 4.1,2.7 5.2,1.6 C6.9,-0.1 10.2,-2.2 13.8,-4.2 C17.4,-6.2 21,-7.7 23.4,-8.2 C23.9,-8.3 24.4,-8.4 24.9,-8.4 C26.5,-8.4 27.8,-7.8 28.5,-6.5 C28.8,-6 28.9,-5.4 28.9,-4.8 C28.9,-3.7 28.3,-2.5 27.2,-1.3"/>
<path class="Note" transform="matrix(2.3811,0,0,2.3811,3532.28,1514.66)" d="M31.5,-8.1 C29.7,-11.4 25.9,-13.2 21.3,-13.2 C17.9,-13.2 14.2,-12.2 10.6,-10.3 C4,-6.8 0,-0.9 0,4.2 C0,5.6 0.3,7 1,8.3 C2.8,11.6 6.6,13.3 11.2,13.3 C14.6,13.3 18.3,12.4 21.9,10.5 C28.5,7 32.5,1.1 32.5,-4 C32.5,-5.4 32.2,-6.8 31.5,-8.1 M27.2,-1.3 C25.5,0.4 22.1,2.5 18.5,4.5 C14.9,6.5 11.3,8 8.9,8.5 C8.4,8.6 7.9,8.7 7.4,8.7 C5.8,8.7 4.6,8.1 3.9,6.8 C3.6,6.3 3.4,5.7 3.4,5.1 C3.4,4 4.1,2.7 5.2,1.6 C6.9,-0.1 10.2,-2.2 13.8,-4.2 C17.4,-6.2 21,-7.7 23.4,-8.2 C23.9,-8.3 24.4,-8.4 24.9,-8.4 C26.5,-8.4 27.8,-7.8 28.5,-6.5 C28.8,-6 28.9,-5.4 28.9,-4.8 C28.9,-3.7 28.3,-2.5 27.2,-1.3"/>
<path class="Note" transform="matrix(2.3811,0,0,2.3811,3532.28,1455.13)" d="M31.5,-8.1 C29.7,-11.4 25.9,-13.2 21.3,-13.2 C17.9,-13.2 14.2,-12.2 10.6,-10.3 C4,-6.8 0,-0.9 0,4.2 C0,5.6 0.3,7 1,8.3 C2.8,11.6 6.6,13.3 11.2,13.3 C14.6,13.3 18.3,12.4 21.9,10.5 C28.5,7 32.5,1.1 32.5,-4 C32.5,-5.4 32.2,-6.8 31.5,-8.1 M27.2,-1.3 C25.5,0.4 22.1,2.5 18.5,4.5 C14.9,6.5 11.3,8 8.9,8.5 C8.4,8.6 7.9,8.7 7.4,8.7 C5.8,8.7 4.6,8.1 3.9,6.8 C3.6,6.3 3.4,5.7 3.4,5.1 C3.4,4 4.1,2.7 5.2,1.6 C6.9,-0.1 10.2,-2.2 13.8,-4.2 C17.4,-6.2 21,-7.7 23.4,-8.2 C23.9,-8.3 24.4,-8.4 24.9,-8.4 C26.5,-8.4 27.8,-7.8 28.5,-6.5 C28.8,-6 28.9,-5.4 28.9,-4.8 C28.9,-3.7 28.3,-2.5 27.2,-1.3"/>
<path class="Note" transform="matrix(2.3811,0,0,2.3811,3532.28,1395.61)" d="M31.5,-8.1 C29.7,-11.4 25.9,-13.2 21.3,-13.2 C17.9,-13.2 14.2,-12.2 10.6,-10.3 C4,-6.8 0,-0.9 0,4.2 C0,5.6 0.3,7 1,8.3 C2.8,11.6 6.6,13.3 11.2,13.3 C14.6,13.3 18.3,12.4 21.9,10.5 C28.5,7 32.5,1.1 32.5,-4 C32.5,-5.4 32.2,-6.8 31.5,-8.1 M27.2,-1.3 C25.5,0.4 22.1,2.5 18.5,4.5 C14.9,6.5 11.3,8 8.9,8.5 C8.4,8.6 7.9,8.7 7.4,8.7 C5.8,8.7 4.6,8.1 3.9,6.8 C3.6,6.3 3.4,5.7 3.4,5.1 C3.4,4 4.1,2.7 5.2,1.6 C6.9,-0.1 10.2,-2.2 13.8,-4.2 C17.4,-6.2 21,-7.7 23.4,-8.2 C23.9,-8.3 24.4,-8.4 24.9,-8.4 C26.5,-8.4 27.8,-7.8 28.5,-6.5 C28.8,-6 28.9,-5.4 28.9,-4.8 C28.9,-3.7 28.3,-2.5 27.2,-1.3"/>
<path class="Note" d="M749.595,564.982 C753.933,562.038 757.071,559.598 759.008,557.661 C762.572,553.865 764.354,550.378 764.354,547.202 C764.354,543.561 762.339,541.74 758.311,541.74 C750.486,541.74 742.119,548.635 733.209,562.425 C730.498,566.609 724.532,580.244 715.313,603.332 C722.673,610.924 726.353,615.224 726.353,616.231 C726.353,617.626 725.462,618.323 723.68,618.323 C722.285,618.323 718.45,615.96 712.175,611.234 C705.357,627.116 695.015,640.674 681.147,651.908 C666.969,663.374 650.041,669.107 630.362,669.107 C622.848,669.107 613.434,667.364 602.123,663.878 C593.059,661.089 588.527,656.634 588.527,650.513 C588.527,641.449 592.013,636.917 598.986,636.917 C603.169,636.917 605.261,638.854 605.261,642.727 C605.261,643.967 604.293,645.284 602.356,646.678 C601.348,647.376 600.845,648.731 600.845,650.746 C600.845,653.147 603.518,655.627 608.863,658.183 C614.674,660.972 623.196,662.367 634.43,662.367 C648.918,662.367 662.902,656.091 676.382,643.541 C688.623,632.152 697.416,618.904 702.762,603.797 C700.67,602.092 698.423,600.233 696.022,598.218 C688.584,593.802 684.865,589.27 684.865,584.622 C684.865,582.685 686.144,581.716 688.7,581.716 C692.109,581.716 696.719,584.622 702.529,590.432 C703.769,591.672 704.931,592.834 706.016,593.919 C708.727,586.481 713.066,577.029 719.031,565.563 C729.8,544.8 742.893,534.419 758.311,534.419 C763.811,534.419 768.15,535.465 771.326,537.556 C774.503,539.648 776.091,542.515 776.091,546.156 C776.091,551.966 773.96,556.886 769.699,560.915 C765.283,565.098 760.674,567.19 755.87,567.19 C751.687,567.19 749.595,566.454 749.595,564.982"/>
<path class="Note" d="M749.595,743.565 C753.933,740.621 757.071,738.18 759.008,736.244 C762.572,732.447 764.354,728.961 764.354,725.785 C764.354,722.143 762.339,720.323 758.311,720.323 C750.486,720.323 742.119,727.218 733.209,741.008 C730.498,745.192 724.532,758.827 715.313,781.914 C722.673,789.507 726.353,793.807 726.353,794.814 C726.353,796.208 725.462,796.906 723.68,796.906 C722.285,796.906 718.45,794.543 712.175,789.817 C705.357,805.699 695.015,819.257 681.147,830.491 C666.969,841.957 650.041,847.69 630.362,847.69 C622.848,847.69 613.434,845.947 602.123,842.46 C593.059,839.671 588.527,835.216 588.527,829.096 C588.527,820.032 592.013,815.499 598.986,815.499 C603.169,815.499 605.261,817.436 605.261,821.31 C605.261,822.549 604.293,823.867 602.356,825.261 C601.348,825.958 600.845,827.314 600.845,829.328 C600.845,831.73 603.518,834.209 608.863,836.766 C614.674,839.555 623.196,840.95 634.43,840.95 C648.918,840.95 662.902,834.674 676.382,822.123 C688.623,810.735 697.416,797.487 702.762,782.379 C700.67,780.675 698.423,778.815 696.022,776.801 C688.584,772.385 684.865,767.853 684.865,763.204 C684.865,761.268 686.144,760.299 688.7,760.299 C692.109,760.299 696.719,763.204 702.529,769.015 C703.769,770.255 704.931,771.417 706.016,772.501 C708.727,765.064 713.066,755.612 719.031,744.146 C729.8,723.383 742.893,713.001 758.311,713.001 C763.811,713.001 768.15,714.047 771.326,716.139 C774.503,718.231 776.091,721.097 776.091,724.739 C776.091,730.549 773.96,735.469 769.699,739.497 C765.283,743.681 760.674,745.773 755.87,745.773 C751.687,745.773 749.595,745.037 749.595,743.565"/>
<path class="Note" d="M748.781,499.282 C748.781,508.191 738.632,527.753 718.334,557.968 C710.277,569.977 698.695,578.77 683.587,584.348 C672.431,588.532 659.531,590.623 644.889,590.623 C640.163,590.623 635.979,589.655 632.338,587.718 C628.309,585.626 626.295,583.341 626.295,580.862 C626.295,574.431 629.743,571.216 636.638,571.216 C637.645,571.216 638.149,571.836 638.149,573.076 C638.149,574.16 637.645,575.361 636.638,576.678 C635.398,578.305 634.779,579.506 634.779,580.281 C634.779,582.605 638.265,583.767 645.237,583.767 C660.887,583.767 673.244,581.869 682.309,578.073 C691.761,574.199 701.174,564.321 710.548,548.439 L713.221,543.442 C708.727,546.851 704.273,548.555 699.857,548.555 C688.855,548.555 683.355,544.1 683.355,535.191 C683.355,525.584 689.824,515.474 702.762,504.86 C712.911,496.647 721.937,492.541 729.839,492.541 C733.79,492.541 737.083,493.587 739.717,495.679 C740.647,494.982 741.809,494.633 743.203,494.633 C746.922,494.633 748.781,496.183 748.781,499.282 M714.615,541.001 L736.579,500.444 C734.875,500.056 732.977,499.863 730.885,499.863 C723.37,499.863 716.087,504.24 709.037,512.994 C700.825,523.221 696.719,531.395 696.719,537.515 C696.719,541.544 699.392,543.558 704.737,543.558 C707.294,543.558 710.587,542.706 714.615,541.001"/>
<path class="Note" d="M748.781,677.864 C748.781,686.774 738.632,706.336 718.334,736.551 C710.277,748.559 698.695,757.353 683.587,762.931 C672.431,767.114 659.531,769.206 644.889,769.206 C640.163,769.206 635.979,768.238 632.338,766.301 C628.309,764.209 626.295,761.924 626.295,759.444 C626.295,753.014 629.743,749.799 636.638,749.799 C637.645,749.799 638.149,750.419 638.149,751.658 C638.149,752.743 637.645,753.944 636.638,755.261 C635.398,756.888 634.779,758.089 634.779,758.863 C634.779,761.188 638.265,762.35 645.237,762.35 C660.887,762.35 673.244,760.452 682.309,756.655 C691.761,752.782 701.174,742.904 710.548,727.022 L713.221,722.024 C708.727,725.433 704.273,727.138 699.857,727.138 C688.855,727.138 683.355,722.683 683.355,713.773 C683.355,704.167 689.824,694.056 702.762,683.442 C712.911,675.23 721.937,671.124 729.839,671.124 C733.79,671.124 737.083,672.17 739.717,674.262 C740.647,673.564 741.809,673.216 743.203,673.216 C746.922,673.216 748.781,674.765 748.781,677.864 M714.615,719.584 L736.579,679.026 C734.875,678.639 732.977,678.445 730.885,678.445 C723.37,678.445 716.087,682.823 709.037,691.577 C700.825,701.804 696.719,709.977 696.719,716.098 C696.719,720.126 699.392,722.141 704.737,722.141 C707.294,722.141 710.587,721.288 714.615,719.584"/>
<path class="Note" d="M1966.3,832.856 C1970.64,829.912 1973.78,827.472 1975.71,825.535 C1979.28,821.739 1981.06,818.252 1981.06,815.076 C1981.06,811.435 1979.05,809.614 1975.02,809.614 C1967.19,809.614 1958.83,816.509 1949.92,830.299 C1947.2,834.483 1941.24,848.119 1932.02,871.206 C1939.38,878.798 1943.06,883.098 1943.06,884.105 C1943.06,885.5 1942.17,886.197 1940.39,886.197 C1938.99,886.197 1935.16,883.834 1928.88,879.108 C1922.06,894.99 1911.72,908.548 1897.85,919.782 C1883.68,931.248 1866.75,936.981 1847.07,936.981 C1839.55,936.981 1830.14,935.238 1818.83,931.752 C1809.77,928.963 1805.23,924.508 1805.23,918.387 C1805.23,909.323 1808.72,904.791 1815.69,904.791 C1819.88,904.791 1821.97,906.728 1821.97,910.601 C1821.97,911.841 1821,913.158 1819.06,914.552 C1818.06,915.25 1817.55,916.605 1817.55,918.62 C1817.55,921.022 1820.22,923.501 1825.57,926.057 C1831.38,928.846 1839.9,930.241 1851.14,930.241 C1865.62,930.241 1879.61,923.966 1893.09,911.415 C1905.33,900.026 1914.12,886.778 1919.47,871.671 C1917.38,869.966 1915.13,868.107 1912.73,866.092 C1905.29,861.676 1901.57,857.144 1901.57,852.496 C1901.57,850.559 1902.85,849.591 1905.41,849.591 C1908.82,849.591 1913.43,852.496 1919.24,858.306 C1920.48,859.546 1921.64,860.708 1922.72,861.793 C1925.43,854.355 1929.77,844.903 1935.74,833.437 C1946.51,812.674 1959.6,802.293 1975.02,802.293 C1980.52,802.293 1984.86,803.339 1988.03,805.43 C1991.21,807.522 1992.8,810.389 1992.8,814.03 C1992.8,819.841 1990.67,824.76 1986.41,828.789 C1981.99,832.972 1977.38,835.064 1972.58,835.064 C1968.39,835.064 1966.3,834.328 1966.3,832.856"/>
<path class="Note" d="M1965.49,588.573 C1965.49,597.482 1955.34,617.045 1935.04,647.259 C1926.98,659.268 1915.4,668.061 1900.29,673.639 C1889.14,677.823 1876.24,679.915 1861.6,679.915 C1856.87,679.915 1852.69,678.946 1849.04,677.009 C1845.02,674.918 1843,672.632 1843,670.153 C1843,663.723 1846.45,660.508 1853.34,660.508 C1854.35,660.508 1854.86,661.127 1854.86,662.367 C1854.86,663.452 1854.35,664.652 1853.34,665.969 C1852.1,667.596 1851.49,668.797 1851.49,669.572 C1851.49,671.896 1854.97,673.058 1861.94,673.058 C1877.59,673.058 1889.95,671.16 1899.02,667.364 C1908.47,663.49 1917.88,653.612 1927.25,637.73 L1929.93,632.733 C1925.43,636.142 1920.98,637.846 1916.56,637.846 C1905.56,637.846 1900.06,633.392 1900.06,624.482 C1900.06,614.875 1906.53,604.765 1919.47,594.151 C1929.62,585.939 1938.64,581.833 1946.55,581.833 C1950.5,581.833 1953.79,582.879 1956.42,584.97 C1957.35,584.273 1958.52,583.925 1959.91,583.925 C1963.63,583.925 1965.49,585.474 1965.49,588.573 M1931.32,630.293 L1953.29,589.735 C1951.58,589.348 1949.68,589.154 1947.59,589.154 C1940.08,589.154 1932.79,593.531 1925.74,602.286 C1917.53,612.512 1913.43,620.686 1913.43,626.806 C1913.43,630.835 1916.1,632.849 1921.44,632.849 C1924,632.849 1927.29,631.997 1931.32,630.293"/>
<path class="Note" d="M1966.3,743.565 C1970.64,740.621 1973.78,738.18 1975.71,736.244 C1979.28,732.447 1981.06,728.961 1981.06,725.785 C1981.06,722.143 1979.05,720.323 1975.02,720.323 C1967.19,720.323 1958.83,727.218 1949.92,741.008 C1947.2,745.192 1941.24,758.827 1932.02,781.914 C1939.38,789.507 1943.06,793.807 1943.06,794.814 C1943.06,796.208 1942.17,796.906 1940.39,796.906 C1938.99,796.906 1935.16,794.543 1928.88,789.817 C1922.06,805.699 1911.72,819.257 1897.85,830.491 C1883.68,841.957 1866.75,847.69 1847.07,847.69 C1839.55,847.69 1830.14,845.947 1818.83,842.46 C1809.77,839.671 1805.23,835.216 1805.23,829.096 C1805.23,820.032 1808.72,815.499 1815.69,815.499 C1819.88,815.499 1821.97,817.436 1821.97,821.31 C1821.97,822.549 1821,823.867 1819.06,825.261 C1818.06,825.958 1817.55,827.314 1817.55,829.328 C1817.55,831.73 1820.22,834.209 1825.57,836.766 C1831.38,839.555 1839.9,840.95 1851.14,840.95 C1865.62,840.95 1879.61,834.674 1893.09,822.123 C1905.33,810.735 1914.12,797.487 1919.47,782.379 C1917.38,780.675 1915.13,778.815 1912.73,776.801 C1905.29,772.385 1901.57,767.853 1901.57,763.204 C1901.57,761.268 1902.85,760.299 1905.41,760.299 C1908.82,760.299 1913.43,763.204 1919.24,769.015 C1920.48,770.255 1921.64,771.417 1922.72,772.501 C1925.43,765.064 1929.77,755.612 1935.74,744.146 C1946.51,723.383 1959.6,713.001 1975.02,713.001 C1980.52,713.001 1984.86,714.047 1988.03,716.139 C1991.21,718.231 1992.8,721.097 1992.8,724.739 C1992.8,730.549 1990.67,735.469 1986.41,739.497 C1981.99,743.681 1977.38,745.773 1972.58,745.773 C1968.39,745.773 1966.3,745.037 1966.3,743.565"/>
<path class="Note" d="M1966.3,654.273 C1970.64,651.329 1973.78,648.889 1975.71,646.952 C1979.28,643.156 1981.06,639.67 1981.06,636.493 C1981.06,632.852 1979.05,631.031 1975.02,631.031 C1967.19,631.031 1958.83,637.926 1949.92,651.717 C1947.2,655.9 1941.24,669.536 1932.02,692.623 C1939.38,700.216 1943.06,704.515 1943.06,705.522 C1943.06,706.917 1942.17,707.614 1940.39,707.614 C1938.99,707.614 1935.16,705.251 1928.88,700.525 C1922.06,716.408 1911.72,729.966 1897.85,741.199 C1883.68,752.665 1866.75,758.398 1847.07,758.398 C1839.55,758.398 1830.14,756.655 1818.83,753.169 C1809.77,750.38 1805.23,745.925 1805.23,739.805 C1805.23,730.74 1808.72,726.208 1815.69,726.208 C1819.88,726.208 1821.97,728.145 1821.97,732.019 C1821.97,733.258 1821,734.575 1819.06,735.97 C1818.06,736.667 1817.55,738.023 1817.55,740.037 C1817.55,742.439 1820.22,744.918 1825.57,747.475 C1831.38,750.264 1839.9,751.658 1851.14,751.658 C1865.62,751.658 1879.61,745.383 1893.09,732.832 C1905.33,721.443 1914.12,708.195 1919.47,693.088 C1917.38,691.383 1915.13,689.524 1912.73,687.51 C1905.29,683.094 1901.57,678.562 1901.57,673.913 C1901.57,671.976 1902.85,671.008 1905.41,671.008 C1908.82,671.008 1913.43,673.913 1919.24,679.724 C1920.48,680.963 1921.64,682.125 1922.72,683.21 C1925.43,675.772 1929.77,666.321 1935.74,654.855 C1946.51,634.091 1959.6,623.71 1975.02,623.71 C1980.52,623.71 1984.86,624.756 1988.03,626.848 C1991.21,628.939 1992.8,631.806 1992.8,635.447 C1992.8,641.258 1990.67,646.177 1986.41,650.206 C1981.99,654.39 1977.38,656.481 1972.58,656.481 C1968.39,656.481 1966.3,655.745 1966.3,654.273"/>
<path class="Note" d="M3057.41,922.147 C3061.75,919.203 3064.89,916.763 3066.83,914.826 C3070.39,911.03 3072.17,907.544 3072.17,904.367 C3072.17,900.726 3070.16,898.905 3066.13,898.905 C3058.31,898.905 3049.94,905.8 3041.03,919.591 C3038.32,923.774 3032.35,937.41 3023.13,960.497 C3030.49,968.09 3034.17,972.389 3034.17,973.396 C3034.17,974.791 3033.28,975.488 3031.5,975.488 C3030.1,975.488 3026.27,973.125 3019.99,968.399 C3013.18,984.282 3002.83,997.84 2988.97,1009.07 C2974.79,1020.54 2957.86,1026.27 2938.18,1026.27 C2930.67,1026.27 2921.25,1024.53 2909.94,1021.04 C2900.88,1018.25 2896.35,1013.8 2896.35,1007.68 C2896.35,998.614 2899.83,994.082 2906.81,994.082 C2910.99,994.082 2913.08,996.019 2913.08,999.893 C2913.08,1001.13 2912.11,1002.45 2910.18,1003.84 C2909.17,1004.54 2908.66,1005.9 2908.66,1007.91 C2908.66,1010.31 2911.34,1012.79 2916.68,1015.35 C2922.49,1018.14 2931.02,1019.53 2942.25,1019.53 C2956.74,1019.53 2970.72,1013.26 2984.2,1000.71 C2996.44,989.317 3005.24,976.069 3010.58,960.962 C3008.49,959.258 3006.24,957.398 3003.84,955.384 C2996.4,950.968 2992.68,946.436 2992.68,941.787 C2992.68,939.85 2993.96,938.882 2996.52,938.882 C2999.93,938.882 3004.54,941.787 3010.35,947.598 C3011.59,948.837 3012.75,949.999 3013.84,951.084 C3016.55,943.646 3020.89,934.195 3026.85,922.729 C3037.62,901.966 3050.71,891.584 3066.13,891.584 C3071.63,891.584 3075.97,892.63 3079.15,894.722 C3082.32,896.813 3083.91,899.68 3083.91,903.321 C3083.91,909.132 3081.78,914.051 3077.52,918.08 C3073.1,922.264 3068.49,924.355 3063.69,924.355 C3059.51,924.355 3057.41,923.619 3057.41,922.147"/>
<path class="Note" d="M2931.45,591.711 C2931.76,580.012 2938.23,569.631 2950.86,560.566 C2962.09,552.509 2974.37,548.48 2987.7,548.48 C3006.37,548.48 3022.83,555.801 3037.09,570.444 C3046.15,579.818 3050.68,591.439 3050.68,605.307 C3050.68,617.781 3047.35,627.349 3040.69,634.011 C3032.55,642.224 3023.95,646.33 3014.89,646.33 C3008.69,646.33 3003.89,644.935 3000.48,642.146 C2994.9,637.575 2992.11,631.455 2992.11,623.785 C2992.11,613.868 2997.07,604.804 3006.99,596.591 C3015.12,589.851 3023.3,585.435 3031.51,583.343 C3029.34,579.625 3026.59,576.138 3023.26,572.884 C3012.88,562.735 3001.1,557.661 2987.93,557.661 C2974.22,557.661 2962.87,560.644 2953.88,566.609 C2944.58,572.73 2937.11,581.097 2931.45,591.711 M3034.41,589.503 C3030.15,593.454 3025.89,597.676 3021.63,602.17 C3013.26,611.002 3009.08,619.369 3009.08,627.271 C3009.08,635.716 3011.02,639.938 3014.89,639.938 C3018.38,639.938 3023.26,635.174 3029.53,625.644 C3034.57,618.052 3037.09,611.079 3037.09,604.726 C3037.09,599.303 3036.2,594.229 3034.41,589.503"/>
<path class="Note" d="M3078.33,798.649 C3071.98,808.643 3061.95,816.933 3048.23,823.518 C3036.3,829.251 3025.15,832.118 3014.77,832.118 C3006.48,832.118 2999.58,830.452 2994.08,827.12 C2988.11,823.479 2985.13,819.141 2985.13,814.105 C2985.13,802.716 2988.11,792.916 2994.08,784.703 C3002.21,773.547 3010.43,767.969 3018.72,767.969 C3024.6,767.969 3028.79,769.131 3031.27,771.455 C3034.68,774.477 3036.38,778.622 3036.38,783.89 C3036.38,791.327 3030.84,797.797 3019.76,803.297 C3008.99,808.643 3001.52,812.129 2997.33,813.756 C2998.26,815.693 2999.46,817.436 3000.94,818.986 C3004.58,822.859 3009.54,824.796 3015.81,824.796 C3023.71,824.796 3034.33,821.891 3047.65,816.08 C3060.44,810.425 3070.66,804.614 3078.33,798.649 M2995.71,808.411 C3001.52,805.466 3006.82,802.019 3011.63,798.068 C3018.75,792.257 3022.32,785.982 3022.32,779.242 C3022.32,775.445 3020.58,773.547 3017.09,773.547 C3014.15,773.547 3010.12,776.917 3005,783.658 C2998.57,792.025 2995.36,798.842 2995.36,804.111 C2995.36,805.583 2995.47,807.016 2995.71,808.411"/>
<path class="Note" d="M3056.6,677.864 C3056.6,686.774 3046.45,706.336 3026.15,736.551 C3018.1,748.559 3006.51,757.353 2991.41,762.931 C2980.25,767.114 2967.35,769.206 2952.71,769.206 C2947.98,769.206 2943.8,768.238 2940.16,766.301 C2936.13,764.209 2934.11,761.924 2934.11,759.444 C2934.11,753.014 2937.56,749.799 2944.46,749.799 C2945.46,749.799 2945.97,750.419 2945.97,751.658 C2945.97,752.743 2945.46,753.944 2944.46,755.261 C2943.22,756.888 2942.6,758.089 2942.6,758.863 C2942.6,761.188 2946.08,762.35 2953.06,762.35 C2968.71,762.35 2981.06,760.452 2990.13,756.655 C2999.58,752.782 3008.99,742.904 3018.37,727.022 L3021.04,722.024 C3016.55,725.433 3012.09,727.138 3007.68,727.138 C2996.67,727.138 2991.17,722.683 2991.17,713.773 C2991.17,704.167 2997.64,694.056 3010.58,683.442 C3020.73,675.23 3029.76,671.124 3037.66,671.124 C3041.61,671.124 3044.9,672.17 3047.54,674.262 C3048.47,673.564 3049.63,673.216 3051.02,673.216 C3054.74,673.216 3056.6,674.765 3056.6,677.864 M3022.43,719.584 L3044.4,679.026 C3042.69,678.639 3040.8,678.445 3038.7,678.445 C3031.19,678.445 3023.91,682.823 3016.86,691.577 C3008.64,701.804 3004.54,709.977 3004.54,716.098 C3004.54,720.126 3007.21,722.141 3012.56,722.141 C3015.11,722.141 3018.41,721.288 3022.43,719.584"/>
<path class="Note" d="M3620.26,922.147 C3624.6,919.203 3627.73,916.763 3629.67,914.826 C3633.23,911.03 3635.02,907.544 3635.02,904.367 C3635.02,900.726 3633,898.905 3628.97,898.905 C3621.15,898.905 3612.78,905.8 3603.87,919.591 C3601.16,923.774 3595.2,937.41 3585.98,960.497 C3593.34,968.09 3597.02,972.389 3597.02,973.396 C3597.02,974.791 3596.12,975.488 3594.34,975.488 C3592.95,975.488 3589.11,973.125 3582.84,968.399 C3576.02,984.282 3565.68,997.84 3551.81,1009.07 C3537.63,1020.54 3520.7,1026.27 3501.03,1026.27 C3493.51,1026.27 3484.1,1024.53 3472.79,1021.04 C3463.72,1018.25 3459.19,1013.8 3459.19,1007.68 C3459.19,998.614 3462.68,994.082 3469.65,994.082 C3473.83,994.082 3475.92,996.019 3475.92,999.893 C3475.92,1001.13 3474.96,1002.45 3473.02,1003.84 C3472.01,1004.54 3471.51,1005.9 3471.51,1007.91 C3471.51,1010.31 3474.18,1012.79 3479.53,1015.35 C3485.34,1018.14 3493.86,1019.53 3505.09,1019.53 C3519.58,1019.53 3533.56,1013.26 3547.05,1000.71 C3559.29,989.317 3568.08,976.069 3573.43,960.962 C3571.33,959.258 3569.09,957.398 3566.68,955.384 C3559.25,950.968 3555.53,946.436 3555.53,941.787 C3555.53,939.85 3556.81,938.882 3559.36,938.882 C3562.77,938.882 3567.38,941.787 3573.19,947.598 C3574.43,948.837 3575.59,949.999 3576.68,951.084 C3579.39,943.646 3583.73,934.195 3589.69,922.729 C3600.46,901.966 3613.56,891.584 3628.97,891.584 C3634.47,891.584 3638.81,892.63 3641.99,894.722 C3645.17,896.813 3646.75,899.68 3646.75,903.321 C3646.75,909.132 3644.62,914.051 3640.36,918.08 C3635.95,922.264 3631.34,924.355 3626.53,924.355 C3622.35,924.355 3620.26,923.619 3620.26,922.147"/>
<path class="Note" d="M3620.26,832.856 C3624.6,829.912 3627.73,827.472 3629.67,825.535 C3633.23,821.739 3635.02,818.252 3635.02,815.076 C3635.02,811.435 3633,809.614 3628.97,809.614 C3621.15,809.614 3612.78,816.509 3603.87,830.299 C3601.16,834.483 3595.2,848.119 3585.98,871.206 C3593.34,878.798 3597.02,883.098 3597.02,884.105 C3597.02,885.5 3596.12,886.197 3594.34,886.197 C3592.95,886.197 3589.11,883.834 3582.84,879.108 C3576.02,894.99 3565.68,908.548 3551.81,919.782 C3537.63,931.248 3520.7,936.981 3501.03,936.981 C3493.51,936.981 3484.1,935.238 3472.79,931.752 C3463.72,928.963 3459.19,924.508 3459.19,918.387 C3459.19,909.323 3462.68,904.791 3469.65,904.791 C3473.83,904.791 3475.92,906.728 3475.92,910.601 C3475.92,911.841 3474.96,913.158 3473.02,914.552 C3472.01,915.25 3471.51,916.605 3471.51,918.62 C3471.51,921.022 3474.18,923.501 3479.53,926.057 C3485.34,928.846 3493.86,930.241 3505.09,930.241 C3519.58,930.241 3533.56,923.966 3547.05,911.415 C3559.29,900.026 3568.08,886.778 3573.43,871.671 C3571.33,869.966 3569.09,868.107 3566.68,866.092 C3559.25,861.676 3555.53,857.144 3555.53,852.496 C3555.53,850.559 3556.81,849.591 3559.36,849.591 C3562.77,849.591 3567.38,852.496 3573.19,858.306 C3574.43,859.546 3575.59,860.708 3576.68,861.793 C3579.39,854.355 3583.73,844.903 3589.69,833.437 C3600.46,812.674 3613.56,802.293 3628.97,802.293 C3634.47,802.293 3638.81,803.339 3641.99,805.43 C3645.17,807.522 3646.75,810.389 3646.75,814.03 C3646.75,819.841 3644.62,824.76 3640.36,828.789 C3635.95,832.972 3631.34,835.064 3626.53,835.064 C3622.35,835.064 3620.26,834.328 3620.26,832.856"/>
<path class="Note" d="M3547.63,646.33 C3543.44,646.33 3541.35,644.432 3541.35,640.635 C3541.35,634.205 3542.32,629.479 3544.26,626.458 C3552.31,614.527 3569.82,592.214 3596.78,559.52 C3608.95,544.723 3624.64,537.324 3643.85,537.324 C3651.29,537.324 3656.44,538.37 3659.3,540.462 C3663.72,543.716 3665.93,547.628 3665.93,552.199 C3665.93,557.002 3662.06,562.348 3654.31,568.236 C3646.95,573.814 3639.98,576.603 3633.39,576.603 C3630.83,576.603 3629.55,576.332 3629.55,575.79 C3629.55,575.015 3630.79,574.202 3633.27,573.349 C3636.61,572.11 3640.17,569.592 3643.97,565.796 C3648.3,561.38 3650.47,557.39 3650.47,553.826 C3650.47,551.424 3648.81,549.139 3645.48,546.969 C3642.53,545.11 3637.77,544.18 3631.18,544.18 C3621.58,544.18 3609.45,553.865 3594.81,573.233 C3585.05,586.171 3577.14,597.56 3571.1,607.399 C3574.04,605.772 3577.57,603.797 3581.68,601.472 C3586.71,598.606 3591.05,597.173 3594.69,597.173 C3603.76,597.173 3608.29,600.426 3608.29,606.934 C3608.29,613.365 3604.57,620.415 3597.13,628.085 C3591.86,633.508 3589.23,637.536 3589.23,640.171 C3589.23,642.882 3591.86,644.238 3597.13,644.238 C3599.77,644.238 3602.48,643.308 3605.27,641.449 C3608.06,639.667 3610.11,638.776 3611.43,638.776 C3612.51,638.776 3613.05,639.473 3613.05,640.868 C3613.05,643.115 3610.88,645.478 3606.55,647.957 C3599.26,652.14 3593.41,654.232 3589,654.232 C3581.17,654.232 3577.26,650.049 3577.26,641.681 C3577.26,636.413 3580.28,630.564 3586.32,624.133 C3590.74,619.408 3592.95,614.72 3592.95,610.072 C3592.95,606.043 3590.78,604.029 3586.44,604.029 C3584.74,604.029 3579.08,606.043 3569.47,610.072 C3566.61,614.875 3564.21,619.291 3562.27,623.32 C3554.91,638.66 3550.03,646.33 3547.63,646.33"/>
<path class="Note" d="M3547.63,824.912 C3543.44,824.912 3541.35,823.014 3541.35,819.218 C3541.35,812.788 3542.32,808.062 3544.26,805.04 C3552.31,793.109 3569.82,770.797 3596.78,738.103 C3608.95,723.305 3624.64,715.907 3643.85,715.907 C3651.29,715.907 3656.44,716.952 3659.3,719.044 C3663.72,722.298 3665.93,726.211 3665.93,730.782 C3665.93,735.585 3662.06,740.931 3654.31,746.819 C3646.95,752.397 3639.98,755.186 3633.39,755.186 C3630.83,755.186 3629.55,754.915 3629.55,754.372 C3629.55,753.598 3630.79,752.784 3633.27,751.932 C3636.61,750.692 3640.17,748.174 3643.97,744.378 C3648.3,739.962 3650.47,735.972 3650.47,732.409 C3650.47,730.007 3648.81,727.721 3645.48,725.552 C3642.53,723.693 3637.77,722.763 3631.18,722.763 C3621.58,722.763 3609.45,732.447 3594.81,751.816 C3585.05,764.754 3577.14,776.143 3571.1,785.982 C3574.04,784.355 3577.57,782.379 3581.68,780.055 C3586.71,777.188 3591.05,775.755 3594.69,775.755 C3603.76,775.755 3608.29,779.009 3608.29,785.517 C3608.29,791.947 3604.57,798.997 3597.13,806.667 C3591.86,812.091 3589.23,816.119 3589.23,818.753 C3589.23,821.465 3591.86,822.821 3597.13,822.821 C3599.77,822.821 3602.48,821.891 3605.27,820.032 C3608.06,818.25 3610.11,817.359 3611.43,817.359 C3612.51,817.359 3613.05,818.056 3613.05,819.451 C3613.05,821.697 3610.88,824.06 3606.55,826.539 C3599.26,830.723 3593.41,832.815 3589,832.815 C3581.17,832.815 3577.26,828.631 3577.26,820.264 C3577.26,814.996 3580.28,809.147 3586.32,802.716 C3590.74,797.99 3592.95,793.303 3592.95,788.655 C3592.95,784.626 3590.78,782.612 3586.44,782.612 C3584.74,782.612 3579.08,784.626 3569.47,788.655 C3566.61,793.458 3564.21,797.874 3562.27,801.903 C3554.91,817.243 3550.03,824.912 3547.63,824.912"/>
<path class="Note" d="M3620.26,475.691 C3624.6,472.747 3627.73,470.306 3629.67,468.369 C3633.23,464.573 3635.02,461.087 3635.02,457.911 C3635.02,454.269 3633,452.449 3628.97,452.449 C3621.15,452.449 3612.78,459.344 3603.87,473.134 C3601.16,477.318 3595.2,490.953 3585.98,514.04 C3593.34,521.633 3597.02,525.933 3597.02,526.94 C3597.02,528.334 3596.12,529.032 3594.34,529.032 C3592.95,529.032 3589.11,526.669 3582.84,521.943 C3576.02,537.825 3565.68,551.383 3551.81,562.617 C3537.63,574.083 3520.7,579.816 3501.03,579.816 C3493.51,579.816 3484.1,578.073 3472.79,574.586 C3463.72,571.797 3459.19,567.342 3459.19,561.222 C3459.19,552.158 3462.68,547.625 3469.65,547.625 C3473.83,547.625 3475.92,549.562 3475.92,553.436 C3475.92,554.675 3474.96,555.993 3473.02,557.387 C3472.01,558.084 3471.51,559.44 3471.51,561.454 C3471.51,563.856 3474.18,566.335 3479.53,568.892 C3485.34,571.681 3493.86,573.076 3505.09,573.076 C3519.58,573.076 3533.56,566.8 3547.05,554.249 C3559.29,542.861 3568.08,529.613 3573.43,514.505 C3571.33,512.801 3569.09,510.941 3566.68,508.927 C3559.25,504.511 3555.53,499.979 3555.53,495.33 C3555.53,493.394 3556.81,492.425 3559.36,492.425 C3562.77,492.425 3567.38,495.33 3573.19,501.141 C3574.43,502.381 3575.59,503.543 3576.68,504.627 C3579.39,497.19 3583.73,487.738 3589.69,476.272 C3600.46,455.509 3613.56,445.127 3628.97,445.127 C3634.47,445.127 3638.81,446.173 3641.99,448.265 C3645.17,450.357 3646.75,453.223 3646.75,456.865 C3646.75,462.675 3644.62,467.595 3640.36,471.623 C3635.95,475.807 3631.34,477.899 3626.53,477.899 C3622.35,477.899 3620.26,477.163 3620.26,475.691"/>
<path class="Note" d="M3619.44,677.864 C3619.44,686.774 3609.3,706.336 3589,736.551 C3580.94,748.559 3569.36,757.353 3554.25,762.931 C3543.09,767.114 3530.19,769.206 3515.55,769.206 C3510.83,769.206 3506.64,768.238 3503,766.301 C3498.97,764.209 3496.96,761.924 3496.96,759.444 C3496.96,753.014 3500.41,749.799 3507.3,749.799 C3508.31,749.799 3508.81,750.419 3508.81,751.658 C3508.81,752.743 3508.31,753.944 3507.3,755.261 C3506.06,756.888 3505.44,758.089 3505.44,758.863 C3505.44,761.188 3508.93,762.35 3515.9,762.35 C3531.55,762.35 3543.91,760.452 3552.97,756.655 C3562.42,752.782 3571.84,742.904 3581.21,727.022 L3583.88,722.024 C3579.39,725.433 3574.94,727.138 3570.52,727.138 C3559.52,727.138 3554.02,722.683 3554.02,713.773 C3554.02,704.167 3560.49,694.056 3573.43,683.442 C3583.57,675.23 3592.6,671.124 3600.5,671.124 C3604.45,671.124 3607.75,672.17 3610.38,674.262 C3611.31,673.564 3612.47,673.216 3613.87,673.216 C3617.59,673.216 3619.44,674.765 3619.44,677.864 M3585.28,719.584 L3607.24,679.026 C3605.54,678.639 3603.64,678.445 3601.55,678.445 C3594.03,678.445 3586.75,682.823 3579.7,691.577 C3571.49,701.804 3567.38,709.977 3567.38,716.098 C3567.38,720.126 3570.05,722.141 3575.4,722.141 C3577.96,722.141 3581.25,721.288 3585.28,719.584"/>
<path class="Clef" transform="matrix(2.3811,0,0,2.3811,203.482,2293.93)" d="M25.4,-25.1 C17.8,-25.1 11.7,-20.7 11.6,-20.7 C5.8,-16.4 3.5,-11.3 2.6,-7.8 C2.1,-6 1.9,-4.2 1.9,-2.5 C1.9,-0.1 2.3,2.1 3.2,4 C4.4,6.7 6.7,8.6 9.7,9.6 C10.9,10 12.2,10.2 13.5,10.2 C15.7,10.2 18,9.6 19.9,8.5 C23,6.8 24.9,3.2 24.9,-0.7 C24.9,-4.2 23.1,-7.4 20.1,-9.3 C18,-10.7 16,-11.1 14.3,-11.1 C13.1,-11.1 12,-10.9 11.1,-10.6 C10.1,-10.2 8.4,-9.2 7.6,-8.5 C7.9,-10.4 9.1,-13.3 10.2,-14.9 C11.3,-16.5 13.5,-18.5 15.2,-19.4 C17.7,-20.8 20.9,-21.4 24.4,-21.4 C34.6,-21.4 39.6,-13.2 39.6,3.6 C39.6,12.9 36.1,21.8 33.1,27.7 C29.8,34.3 25.4,40.6 21.5,44.1 C11.1,53.6 1.3,58.1 1.2,58.1 C1.2,58.1 -0.3,59 0.1,60.5 C0.4,61.5 1.3,61.7 1.9,61.7 C2,61.7 2.3,61.6 2.4,61.6 C2.5,61.6 13.9,56.9 23,49.8 C28.1,46.1 32.7,42.1 36.7,37.8 C40.3,33.9 43.4,29.7 45.9,25.5 C50.3,18 52.8,10.2 52.8,3.5 C52.8,-4.8 50.6,-11.7 46.5,-16.6 C41.8,-22.2 34.7,-25.1 25.4,-25.1 M56.8,-12.4 C56.8,-9.6 59,-7.4 61.6,-7.4 C64.2,-7.4 66.4,-9.6 66.4,-12.4 C66.4,-15.2 64.2,-17.5 61.6,-17.5 C59,-17.5 56.8,-15.2 56.8,-12.4 M56.8,12.3 C56.8,15.1 59,17.4 61.6,17.4 C64.2,17.4 66.4,15.1 66.4,12.3 C66.4,9.5 64.2,7.2 61.6,7.2 C59,7.2 56.8,9.5 56.8,12.3"/>
<path class="Clef" transform="matrix(2.3811,0,0,2.3811,203.482,1574.19)" d="M63.37,-5.89004 C62.14,-11.32 59.5,-15.14 58.72,-16.1801 C55.5301,-20.45 51.52,-23.3 46.8301,-24.65 C43.72,-25.54 40.72,-25.65 38.3,-25.47 C37.2601,-31.4801 36.2601,-37.3601 35.35,-42.8101 C40.79,-48.97 44.42,-54.77 46.69,-59.07 C50.1601,-65.65 51.3101,-70.2301 51.3601,-70.4301 C53.0801,-75.64 53.44,-83.34 52.34,-91.55 C51.3301,-99.1 49.24,-105.81 46.89,-109.06 C45.8601,-110.49 44.8101,-111.22 43.77,-111.22 C42.55,-111.22 40.04,-109.98 37.15,-107.21 C34.85,-105.01 31.5801,-101.12 29.02,-95.1101 C26.02,-88.05 25.8101,-78.5601 26.1601,-71.84 C26.54,-64.57 27.65,-58.8801 27.6601,-58.8301 C27.6801,-58.74 27.94,-57.24 28.39,-54.67 C28.1601,-54.44 27.92,-54.22 27.67,-53.9801 C26.6301,-52.9801 25.44,-51.84 24.0601,-50.4601 C23.2,-49.6 22.25,-48.69 21.25,-47.72 C12.79,-39.57 0,-27.25 0,-8.1 C0,-3.4 0.9,1.01992 2.68008,5.02998 C4.27002,8.62998 6.57002,11.91 9.5,14.78 C17.2301,22.33 27.82,25.5399 34.8801,25.38 C37.8301,25.31 40.4601,25.0699 42.85,24.6199 C44.6801,34.2199 45.82,41.25 45.8601,46.5899 C45.9,53.1 44.25,57.0699 40.35,59.8399 C37.92,61.5699 35.1101,62.5199 32.0101,62.6699 C29.42,62.7899 27.1601,62.3199 25.7301,61.91 L25.72,61.91 C25.72,61.91 25.4301,61.83 25.42,61.63 C25.4101,61.45 25.7601,61.4 25.77,61.4 L25.79,61.4 C27.7101,60.96 31.2801,59.73 33.64,56.43 C35.44,53.91 36.3101,49.2899 34.47,45.35 C33.3601,42.96 30.85,40.01 25.2301,39.56 C22.74,39.36 20.47,39.8699 18.47,41.0699 C16.6601,42.15 15.1601,43.7899 14.1101,45.7899 C11.65,50.4899 12.1101,56.2199 15.24,60.06 C18.2,63.68 22.82,65.9899 28.25,66.5699 C29.1,66.66 29.95,66.7 30.8,66.7 C31.5101,66.7 32.22,66.6699 32.92,66.61 C31.72,66.9399 30.64,67.4899 29.77,68.25 C28.2801,69.5399 27.44,71.38 27.44,73.41 C27.44,75.28 28.0601,76.65 29.55,78.0399 C28.4101,78.5 27.55,78.98 26.79,79.56 C25.25,80.73 24.34,82.46 24.34,84.1899 C24.34,87.45 27.3,89.63 31.72,89.63 C37.1301,89.63 40.9101,86.63 40.9101,82.35 C40.9101,80.1199 39.9101,78.18 38.0801,76.83 C41.0101,75.6199 42.37,73.9399 42.37,71.56 C42.39,70.05 41.69,68.61 40.49,67.6899 C39.2801,66.7399 37.62,66.2399 35.69,66.2399 L35.5101,66.2399 C38.2801,65.7 40.92,64.7 43.2101,63.28 C46.87,60.71 48.99,56.73 49.67,51.1 C50.2301,46.46 49.84,40.55 48.44,32.48 C48.0801,30.3899 47.54,27.36 46.8801,23.6 C52.6301,21.68 56.79,18.11 60.5601,12.26 C63.85,6.51992 64.8,0.419922 63.37,-5.89004 M32.39,87.5399 C30.19,87.5399 28.7301,86.1199 28.7301,84.01 C28.7301,82.11 29.65,80.5 31.32,79.4699 C31.6801,79.66 31.77,79.71 32.1101,79.88 C33.3,80.48 33.3,80.48 33.55,80.63 L33.5601,80.6399 C35.47,81.73 36.25,82.76 36.25,84.18 C36.24,86.0899 34.59,87.5399 32.39,87.5399 M38.3101,71.63 C38.3101,73.2699 37.7301,74.3399 36.1801,75.53 C34.74,74.78 34.35,74.56 33.9801,74.3399 L33.8801,74.28 C32.3301,73.3399 31.85,72.66 31.85,71.4 C31.85,69.6 33.2301,68.3399 35.19,68.3399 C37.17,68.35 38.3101,69.55 38.3101,71.63 M33.15,-83.8101 C34.9301,-89.55 37.67,-92.8 39.6601,-94.5301 C41.4101,-96.05 43.0601,-96.7601 43.9801,-96.7601 C44.12,-96.7601 44.24,-96.74 44.34,-96.7101 C44.8,-96.57 45.3301,-96 45.8,-95.1301 C48.1101,-90.84 47.37,-84.1301 46.0301,-79.69 C44.4,-74.29 41.4801,-68.6801 32.69,-59.0601 C32.52,-60.17 32.3601,-61.22 32.2101,-62.2 C30.95,-70.49 31.27,-77.7601 33.15,-83.8101 M29.15,20.31 C24.5101,19.0899 20.0801,16.5899 16.32,13.0899 C15.0101,11.86 13.14,9.68994 11.67,6.3 C10.3101,3.13994 9.65,-0.290039 9.7,-3.88008 C9.77002,-8.57002 11.0801,-13.39 13.59,-18.1801 C16.5101,-23.7601 21.07,-29.29 27.1301,-34.62 C28.5801,-35.9 29.95,-37.1801 31.24,-38.4601 C32,-34.2 32.8301,-29.5101 33.7101,-24.6301 C29.8601,-23.3601 25.1101,-20.2101 22,-14.5601 C18.47,-7.99004 18.6101,-2.47002 19.34,1.00996 C20.2801,5.46992 22.8101,9.22998 26.27,11.3199 C27.2,11.88 31.3301,14.01 33.17,13.43 C33.54,13.31 33.8101,13.0899 33.95,12.76 C34.4601,11.5899 33.44,10.95 31.8801,9.98994 C31.2801,9.61992 30.6101,9.2 29.8801,8.66992 C26.5601,6.17998 25.1101,1.72998 26.1801,-2.65 C26.7601,-5.05 28.04,-7.21006 29.8801,-8.91006 C31.55,-10.4601 33.59,-11.5601 35.97,-12.2 C38.0101,-0.960059 40.07,10.1899 41.7101,18.55 C41.84,19.2399 41.9801,19.91 42.1101,20.58 C37.7101,21.51 33.37,21.4199 29.15,20.31 M54.9,10.1 C53.7301,13.28 51.27,17.35 46.14,19.41 C46.07,18.9899 45.99,18.56 45.9101,18.13 C44.3601,9.36992 42.4301,-1.61006 40.47,-12.87 C50.82,-13.35 55.09,-5.91006 55.9801,-1.08008 C56.45,1.45 56.45,5.88994 54.9,10.1"/>
<path class="FiguredBass" d="M649.666,2661.97 C648.985,2662.72 648.089,2663.09 646.975,2663.09 C645.862,2663.09 644.95,2662.7 644.239,2661.93 C643.527,2661.16 643.172,2660.27 643.172,2659.28 L643.172,2646.02 L629.905,2646.02 C628.792,2646.02 627.88,2645.63 627.168,2644.86 C626.457,2644.08 626.101,2643.2 626.101,2642.21 C626.101,2641.22 626.457,2640.34 627.168,2639.57 C627.88,2638.8 628.792,2638.41 629.905,2638.41 L643.172,2638.41 L643.172,2625.14 C643.172,2624.15 643.527,2623.27 644.239,2622.5 C644.95,2621.73 645.862,2621.34 646.975,2621.34 C648.089,2621.34 649.001,2621.73 649.712,2622.5 C650.423,2623.27 650.779,2624.15 650.779,2625.14 L650.779,2638.41 L664.046,2638.41 C665.159,2638.41 666.071,2638.8 666.783,2639.57 C667.494,2640.34 667.849,2641.22 667.849,2642.21 C667.849,2643.2 667.494,2644.08 666.783,2644.86 C666.071,2645.63 665.159,2646.02 664.046,2646.02 L650.779,2646.02 L650.779,2659.28 C650.779,2660.27 650.408,2661.17 649.666,2661.97 M703.09,2607.7 C698.513,2607.7 695.467,2609.54 693.951,2613.22 C692.436,2616.9 691.679,2622.11 691.679,2628.85 L691.679,2639.8 C694.895,2638.5 697.678,2637.82 700.028,2637.76 C708.068,2637.76 714.393,2639.54 719,2643.1 C723.608,2646.65 725.912,2651.94 725.912,2658.96 C725.912,2665.98 723.577,2671.28 718.908,2674.87 C714.238,2678.46 707.945,2680.25 700.028,2680.25 C691.926,2680.25 685.586,2676.49 681.01,2668.98 C676.433,2661.46 674.144,2652.54 674.144,2642.21 C674.144,2631.95 676.804,2623.04 682.123,2615.5 C687.442,2607.95 694.431,2604.18 703.09,2604.18 C708.78,2604.18 713.697,2605.61 717.841,2608.49 C721.984,2611.37 724.056,2615.15 724.056,2619.86 C724.056,2622.58 723.067,2624.93 721.088,2626.91 C719.109,2628.89 716.743,2629.87 713.991,2629.87 C711.238,2629.87 708.873,2628.89 706.893,2626.91 C704.914,2624.93 703.925,2622.58 703.925,2619.86 C703.925,2617.2 704.914,2614.85 706.893,2612.8 C707.574,2612 708.532,2611.32 709.769,2610.76 C709.46,2609.96 708.842,2609.34 707.914,2608.91 C706.553,2608.1 704.945,2607.7 703.09,2607.7 M707.636,2645.65 C706.522,2642.74 704.079,2641.29 700.306,2641.29 C696.534,2641.29 694.199,2642.74 693.302,2645.65 C692.405,2648.55 691.957,2652.98 691.957,2658.91 C691.957,2665.9 692.405,2670.6 693.302,2673.01 C694.199,2675.43 696.534,2676.63 700.306,2676.63 C704.079,2676.63 706.522,2675.18 707.636,2672.27 C708.749,2669.37 709.305,2664.93 709.305,2658.96 C709.305,2652.99 708.749,2648.55 707.636,2645.65"/>
<path class="FiguredBass" d="M1866.37,2661.97 C1865.69,2662.72 1864.8,2663.09 1863.68,2663.09 C1862.57,2663.09 1861.66,2662.7 1860.95,2661.93 C1860.23,2661.16 1859.88,2660.27 1859.88,2659.28 L1859.88,2646.02 L1846.61,2646.02 C1845.5,2646.02 1844.59,2645.63 1843.87,2644.86 C1843.16,2644.08 1842.81,2643.2 1842.81,2642.21 C1842.81,2641.22 1843.16,2640.34 1843.87,2639.57 C1844.59,2638.8 1845.5,2638.41 1846.61,2638.41 L1859.88,2638.41 L1859.88,2625.14 C1859.88,2624.15 1860.23,2623.27 1860.95,2622.5 C1861.66,2621.73 1862.57,2621.34 1863.68,2621.34 C1864.8,2621.34 1865.71,2621.73 1866.42,2622.5 C1867.13,2623.27 1867.49,2624.15 1867.49,2625.14 L1867.49,2638.41 L1880.75,2638.41 C1881.87,2638.41 1882.78,2638.8 1883.49,2639.57 C1884.2,2640.34 1884.56,2641.22 1884.56,2642.21 C1884.56,2643.2 1884.2,2644.08 1883.49,2644.86 C1882.78,2645.63 1881.87,2646.02 1880.75,2646.02 L1867.49,2646.02 L1867.49,2659.28 C1867.49,2660.27 1867.11,2661.17 1866.37,2661.97 M1919.8,2607.7 C1915.22,2607.7 1912.17,2609.54 1910.66,2613.22 C1909.14,2616.9 1908.39,2622.11 1908.39,2628.85 L1908.39,2639.8 C1911.6,2638.5 1914.38,2637.82 1916.73,2637.76 C1924.78,2637.76 1931.1,2639.54 1935.71,2643.1 C1940.31,2646.65 1942.62,2651.94 1942.62,2658.96 C1942.62,2665.98 1940.28,2671.28 1935.61,2674.87 C1930.94,2678.46 1924.65,2680.25 1916.73,2680.25 C1908.63,2680.25 1902.29,2676.49 1897.72,2668.98 C1893.14,2661.46 1890.85,2652.54 1890.85,2642.21 C1890.85,2631.95 1893.51,2623.04 1898.83,2615.5 C1904.15,2607.95 1911.14,2604.18 1919.8,2604.18 C1925.49,2604.18 1930.4,2605.61 1934.55,2608.49 C1938.69,2611.37 1940.76,2615.15 1940.76,2619.86 C1940.76,2622.58 1939.77,2624.93 1937.79,2626.91 C1935.82,2628.89 1933.45,2629.87 1930.7,2629.87 C1927.94,2629.87 1925.58,2628.89 1923.6,2626.91 C1921.62,2624.93 1920.63,2622.58 1920.63,2619.86 C1920.63,2617.2 1921.62,2614.85 1923.6,2612.8 C1924.28,2612 1925.24,2611.32 1926.48,2610.76 C1926.17,2609.96 1925.55,2609.34 1924.62,2608.91 C1923.26,2608.1 1921.65,2607.7 1919.8,2607.7 M1924.34,2645.65 C1923.23,2642.74 1920.79,2641.29 1917.01,2641.29 C1913.24,2641.29 1910.91,2642.74 1910.01,2645.65 C1909.11,2648.55 1908.66,2652.98 1908.66,2658.91 C1908.66,2665.9 1909.11,2670.6 1910.01,2673.01 C1910.91,2675.43 1913.24,2676.63 1917.01,2676.63 C1920.79,2676.63 1923.23,2675.18 1924.34,2672.27 C1925.46,2669.37 1926.01,2664.93 1926.01,2658.96 C1926.01,2652.99 1925.46,2648.55 1924.34,2645.65"/>
<path class="FiguredBass" d="M2957.49,2661.97 C2956.8,2662.72 2955.91,2663.09 2954.79,2663.09 C2953.68,2663.09 2952.77,2662.7 2952.06,2661.93 C2951.35,2661.16 2950.99,2660.27 2950.99,2659.28 L2950.99,2646.02 L2937.72,2646.02 C2936.61,2646.02 2935.7,2645.63 2934.99,2644.86 C2934.28,2644.08 2933.92,2643.2 2933.92,2642.21 C2933.92,2641.22 2934.28,2640.34 2934.99,2639.57 C2935.7,2638.8 2936.61,2638.41 2937.72,2638.41 L2950.99,2638.41 L2950.99,2625.14 C2950.99,2624.15 2951.35,2623.27 2952.06,2622.5 C2952.77,2621.73 2953.68,2621.34 2954.79,2621.34 C2955.91,2621.34 2956.82,2621.73 2957.53,2622.5 C2958.24,2623.27 2958.6,2624.15 2958.6,2625.14 L2958.6,2638.41 L2971.87,2638.41 C2972.98,2638.41 2973.89,2638.8 2974.6,2639.57 C2975.31,2640.34 2975.67,2641.22 2975.67,2642.21 C2975.67,2643.2 2975.31,2644.08 2974.6,2644.86 C2973.89,2645.63 2972.98,2646.02 2971.87,2646.02 L2958.6,2646.02 L2958.6,2659.28 C2958.6,2660.27 2958.23,2661.17 2957.49,2661.97 M3010.91,2607.7 C3006.33,2607.7 3003.29,2609.54 3001.77,2613.22 C3000.26,2616.9 2999.5,2622.11 2999.5,2628.85 L2999.5,2639.8 C3002.71,2638.5 3005.5,2637.82 3007.85,2637.76 C3015.89,2637.76 3022.21,2639.54 3026.82,2643.1 C3031.43,2646.65 3033.73,2651.94 3033.73,2658.96 C3033.73,2665.98 3031.4,2671.28 3026.73,2674.87 C3022.06,2678.46 3015.76,2680.25 3007.85,2680.25 C2999.75,2680.25 2993.41,2676.49 2988.83,2668.98 C2984.25,2661.46 2981.96,2652.54 2981.96,2642.21 C2981.96,2631.95 2984.62,2623.04 2989.94,2615.5 C2995.26,2607.95 3002.25,2604.18 3010.91,2604.18 C3016.6,2604.18 3021.52,2605.61 3025.66,2608.49 C3029.8,2611.37 3031.88,2615.15 3031.88,2619.86 C3031.88,2622.58 3030.89,2624.93 3028.91,2626.91 C3026.93,2628.89 3024.56,2629.87 3021.81,2629.87 C3019.06,2629.87 3016.69,2628.89 3014.71,2626.91 C3012.73,2624.93 3011.74,2622.58 3011.74,2619.86 C3011.74,2617.2 3012.73,2614.85 3014.71,2612.8 C3015.39,2612 3016.35,2611.32 3017.59,2610.76 C3017.28,2609.96 3016.66,2609.34 3015.73,2608.91 C3014.37,2608.1 3012.76,2607.7 3010.91,2607.7 M3015.46,2645.65 C3014.34,2642.74 3011.9,2641.29 3008.13,2641.29 C3004.35,2641.29 3002.02,2642.74 3001.12,2645.65 C3000.22,2648.55 2999.78,2652.98 2999.78,2658.91 C2999.78,2665.9 3000.22,2670.6 3001.12,2673.01 C3002.02,2675.43 3004.35,2676.63 3008.13,2676.63 C3011.9,2676.63 3014.34,2675.18 3015.46,2672.27 C3016.57,2669.37 3017.12,2664.93 3017.12,2658.96 C3017.12,2652.99 3016.57,2648.55 3015.46,2645.65"/>
<path class="FiguredBass" d="M702.44,1767.32 C704.79,1767.32 707.264,1766.98 709.862,1766.3 L714.037,1765.19 C714.841,1765.19 715.475,1765.5 715.939,1766.12 C716.403,1766.74 716.356,1767.29 715.8,1767.79 L672.66,1817.98 L697.987,1817.98 L697.987,1798.13 C697.987,1796.7 698.374,1795.61 699.147,1794.83 C699.92,1794.06 700.909,1793.44 702.116,1792.98 C703.322,1792.51 704.899,1791.14 706.847,1788.85 C708.795,1786.56 710.666,1783.47 712.46,1779.57 C712.769,1778.95 713.233,1778.64 713.851,1778.64 C715.15,1778.64 715.8,1779.35 715.8,1780.78 L715.8,1817.98 L726.747,1817.98 C728.293,1817.98 729.066,1818.69 729.066,1820.11 C729.066,1821.66 728.293,1822.43 726.747,1822.43 L715.8,1822.43 L715.8,1823.64 C715.8,1827.47 716.82,1830.81 718.861,1833.66 C720.902,1836.5 723.531,1837.93 726.747,1837.93 C727.984,1837.93 728.602,1838.48 728.602,1839.6 C728.602,1840.83 727.984,1841.45 726.747,1841.45 C724.52,1841.45 721.211,1841.13 716.82,1840.48 C712.429,1839.83 709.104,1839.5 706.847,1839.5 C704.589,1839.5 701.265,1839.83 696.874,1840.48 C692.483,1841.13 689.174,1841.45 686.947,1841.45 C685.71,1841.45 685.092,1840.83 685.092,1839.6 C685.092,1838.48 685.71,1837.93 686.947,1837.93 C690.163,1837.93 692.807,1836.5 694.879,1833.66 C696.951,1830.81 697.987,1827.47 697.987,1823.64 L697.987,1822.43 L672.66,1822.43 C671.052,1822.43 669.861,1822.05 669.088,1821.27 C668.315,1820.5 667.929,1819.71 667.929,1818.91 C667.929,1818.6 668.655,1817.53 670.109,1815.71 C671.562,1813.88 673.34,1811.45 675.443,1808.42 C677.546,1805.39 679.633,1801.94 681.705,1798.08 C683.777,1794.21 685.54,1789.58 686.993,1784.16 C688.447,1778.75 689.174,1773.29 689.174,1767.79 C689.174,1766.18 689.854,1765.38 691.215,1765.38 C691.4,1765.38 692.05,1765.53 693.163,1765.84 C694.276,1766.15 695.699,1766.47 697.43,1766.81 C699.162,1767.15 700.832,1767.32 702.44,1767.32"/>
<path class="FiguredBass" d="M714.965,1906.84 C714.965,1907.83 715.521,1908.79 716.635,1909.72 C717.748,1910.65 718.969,1911.53 720.299,1912.36 C721.629,1913.2 722.85,1914.78 723.964,1917.1 C725.077,1919.42 725.634,1922.34 725.634,1925.86 C725.634,1932.67 723.067,1937.92 717.933,1941.63 C712.8,1945.35 706.306,1947.2 698.451,1947.2 C692.142,1947.2 686.653,1945.62 681.984,1942.47 C677.314,1939.32 674.979,1935.17 674.979,1930.04 C674.979,1927.32 675.969,1924.95 677.948,1922.94 C679.927,1920.93 682.293,1919.93 685.045,1919.93 C687.797,1919.93 690.132,1920.92 692.05,1922.89 C693.967,1924.87 694.926,1927.25 694.926,1930.04 C694.926,1931.27 693.905,1932.62 691.864,1934.07 C689.823,1935.53 688.803,1936.87 688.803,1938.11 C688.803,1940.03 689.746,1941.43 691.632,1942.33 C693.519,1943.23 695.791,1943.68 698.451,1943.68 C701.915,1943.68 704.373,1941.96 705.826,1938.53 C707.28,1935.09 708.007,1930.87 708.007,1925.86 L708.007,1923.45 C708.007,1920.11 707.898,1917.58 707.682,1915.84 C707.465,1914.11 706.785,1912.57 705.641,1911.2 C704.497,1909.84 702.749,1909.16 700.399,1909.16 L688.246,1909.16 C686.823,1909.16 686.112,1908.39 686.112,1906.84 C686.112,1905.42 686.823,1904.71 688.246,1904.71 L700.399,1904.71 C702.935,1904.71 704.914,1903.75 706.337,1901.83 C706.831,1901.15 707.234,1900.04 707.543,1898.49 C707.852,1896.45 708.007,1893.52 708.007,1889.68 L708.007,1888.48 C708.007,1879.26 704.605,1874.65 697.802,1874.65 C691.802,1874.65 688.803,1876.32 688.803,1879.66 C688.803,1880.78 689.715,1881.97 691.539,1883.23 C693.364,1884.5 694.276,1885.69 694.276,1886.81 C694.276,1889.22 693.426,1891.29 691.725,1893.02 C690.024,1894.75 687.952,1895.62 685.509,1895.62 C683.066,1895.62 681.01,1894.75 679.34,1893.02 C677.67,1891.29 676.835,1889.22 676.835,1886.81 C676.835,1882.04 678.907,1878.24 683.051,1875.39 C687.194,1872.55 692.111,1871.13 697.802,1871.13 C705.285,1871.13 711.439,1872.56 716.263,1875.44 C721.088,1878.32 723.5,1882.66 723.5,1888.48 C723.5,1892.62 723.067,1895.84 722.201,1898.12 C721.335,1900.41 720.345,1901.8 719.232,1902.3 C718.119,1902.79 717.129,1903.37 716.263,1904.01 C715.398,1904.66 714.965,1905.61 714.965,1906.84"/>
<path class="FiguredBass" d="M703.09,1980.4 C698.513,1980.4 695.467,1982.24 693.951,1985.92 C692.436,1989.6 691.679,1994.81 691.679,2001.55 L691.679,2012.5 C694.895,2011.2 697.678,2010.52 700.028,2010.46 C708.068,2010.46 714.393,2012.24 719,2015.8 C723.608,2019.35 725.912,2024.64 725.912,2031.66 C725.912,2038.68 723.577,2043.98 718.908,2047.57 C714.238,2051.16 707.945,2052.95 700.028,2052.95 C691.926,2052.95 685.586,2049.19 681.01,2041.68 C676.433,2034.16 674.144,2025.24 674.144,2014.91 C674.144,2004.65 676.804,1995.74 682.123,1988.2 C687.442,1980.65 694.431,1976.88 703.09,1976.88 C708.78,1976.88 713.697,1978.31 717.841,1981.19 C721.984,1984.07 724.056,1987.85 724.056,1992.56 C724.056,1995.28 723.067,1997.63 721.088,1999.61 C719.109,2001.59 716.743,2002.57 713.991,2002.57 C711.238,2002.57 708.873,2001.59 706.893,1999.61 C704.914,1997.63 703.925,1995.28 703.925,1992.56 C703.925,1989.9 704.914,1987.55 706.893,1985.5 C707.574,1984.7 708.532,1984.02 709.769,1983.46 C709.46,1982.66 708.842,1982.04 707.914,1981.61 C706.553,1980.8 704.945,1980.4 703.09,1980.4 M707.636,2018.35 C706.522,2015.44 704.079,2013.99 700.306,2013.99 C696.534,2013.99 694.199,2015.44 693.302,2018.35 C692.405,2021.25 691.957,2025.68 691.957,2031.61 C691.957,2038.6 692.405,2043.3 693.302,2045.71 C694.199,2048.13 696.534,2049.33 700.306,2049.33 C704.079,2049.33 706.522,2047.88 707.636,2044.97 C708.749,2042.07 709.305,2037.63 709.305,2031.66 C709.305,2025.69 708.749,2021.25 707.636,2018.35"/>
<path class="FiguredBass" d="M1919.8,1768.9 C1915.22,1768.9 1912.17,1770.74 1910.66,1774.42 C1909.14,1778.1 1908.39,1783.31 1908.39,1790.05 L1908.39,1801 C1911.6,1799.7 1914.38,1799.02 1916.73,1798.96 C1924.78,1798.96 1931.1,1800.74 1935.71,1804.3 C1940.31,1807.85 1942.62,1813.14 1942.62,1820.16 C1942.62,1827.18 1940.28,1832.48 1935.61,1836.07 C1930.94,1839.66 1924.65,1841.45 1916.73,1841.45 C1908.63,1841.45 1902.29,1837.69 1897.72,1830.18 C1893.14,1822.66 1890.85,1813.74 1890.85,1803.41 C1890.85,1793.15 1893.51,1784.24 1898.83,1776.7 C1904.15,1769.15 1911.14,1765.38 1919.8,1765.38 C1925.49,1765.38 1930.4,1766.81 1934.55,1769.69 C1938.69,1772.57 1940.76,1776.35 1940.76,1781.06 C1940.76,1783.78 1939.77,1786.13 1937.79,1788.11 C1935.82,1790.09 1933.45,1791.07 1930.7,1791.07 C1927.94,1791.07 1925.58,1790.09 1923.6,1788.11 C1921.62,1786.13 1920.63,1783.78 1920.63,1781.06 C1920.63,1778.4 1921.62,1776.05 1923.6,1774 C1924.28,1773.2 1925.24,1772.52 1926.48,1771.96 C1926.17,1771.16 1925.55,1770.54 1924.62,1770.11 C1923.26,1769.3 1921.65,1768.9 1919.8,1768.9 M1924.34,1806.85 C1923.23,1803.94 1920.79,1802.49 1917.01,1802.49 C1913.24,1802.49 1910.91,1803.94 1910.01,1806.85 C1909.11,1809.75 1908.66,1814.18 1908.66,1820.11 C1908.66,1827.1 1909.11,1831.8 1910.01,1834.21 C1910.91,1836.63 1913.24,1837.83 1917.01,1837.83 C1920.79,1837.83 1923.23,1836.38 1924.34,1833.47 C1925.46,1830.57 1926.01,1826.13 1926.01,1820.16 C1926.01,1814.19 1925.46,1809.75 1924.34,1806.85"/>
<path class="FiguredBass" d="M1919.15,1873.07 C1921.5,1873.07 1923.97,1872.73 1926.57,1872.05 L1930.74,1870.94 C1931.55,1870.94 1932.18,1871.25 1932.65,1871.87 C1933.11,1872.49 1933.06,1873.04 1932.51,1873.54 L1889.37,1923.73 L1914.69,1923.73 L1914.69,1903.88 C1914.69,1902.45 1915.08,1901.36 1915.85,1900.58 C1916.63,1899.81 1917.62,1899.19 1918.82,1898.73 C1920.03,1898.26 1921.61,1896.89 1923.55,1894.6 C1925.5,1892.31 1927.37,1889.22 1929.17,1885.32 C1929.48,1884.7 1929.94,1884.39 1930.56,1884.39 C1931.86,1884.39 1932.51,1885.1 1932.51,1886.53 L1932.51,1923.73 L1943.45,1923.73 C1945,1923.73 1945.77,1924.44 1945.77,1925.86 C1945.77,1927.41 1945,1928.18 1943.45,1928.18 L1932.51,1928.18 L1932.51,1929.39 C1932.51,1933.22 1933.53,1936.56 1935.57,1939.41 C1937.61,1942.25 1940.24,1943.68 1943.45,1943.68 C1944.69,1943.68 1945.31,1944.23 1945.31,1945.35 C1945.31,1946.58 1944.69,1947.2 1943.45,1947.2 C1941.23,1947.2 1937.92,1946.88 1933.53,1946.23 C1929.14,1945.58 1925.81,1945.25 1923.55,1945.25 C1921.3,1945.25 1917.97,1945.58 1913.58,1946.23 C1909.19,1946.88 1905.88,1947.2 1903.65,1947.2 C1902.42,1947.2 1901.8,1946.58 1901.8,1945.35 C1901.8,1944.23 1902.42,1943.68 1903.65,1943.68 C1906.87,1943.68 1909.51,1942.25 1911.59,1939.41 C1913.66,1936.56 1914.69,1933.22 1914.69,1929.39 L1914.69,1928.18 L1889.37,1928.18 C1887.76,1928.18 1886.57,1927.8 1885.79,1927.02 C1885.02,1926.25 1884.64,1925.46 1884.64,1924.66 C1884.64,1924.35 1885.36,1923.28 1886.82,1921.46 C1888.27,1919.63 1890.05,1917.2 1892.15,1914.17 C1894.25,1911.14 1896.34,1907.69 1898.41,1903.83 C1900.48,1899.96 1902.25,1895.33 1903.7,1889.91 C1905.15,1884.5 1905.88,1879.04 1905.88,1873.54 C1905.88,1871.93 1906.56,1871.13 1907.92,1871.13 C1908.11,1871.13 1908.76,1871.28 1909.87,1871.59 C1910.98,1871.9 1912.41,1872.22 1914.14,1872.56 C1915.87,1872.9 1917.54,1873.07 1919.15,1873.07"/>
<path class="FiguredBass" d="M1931.67,2012.59 C1931.67,2013.58 1932.23,2014.54 1933.34,2015.47 C1934.45,2016.4 1935.68,2017.28 1937.01,2018.11 C1938.34,2018.95 1939.56,2020.53 1940.67,2022.85 C1941.78,2025.17 1942.34,2028.09 1942.34,2031.61 C1942.34,2038.42 1939.77,2043.67 1934.64,2047.38 C1929.51,2051.1 1923.01,2052.95 1915.16,2052.95 C1908.85,2052.95 1903.36,2051.37 1898.69,2048.22 C1894.02,2045.07 1891.69,2040.92 1891.69,2035.79 C1891.69,2033.07 1892.68,2030.7 1894.65,2028.69 C1896.63,2026.68 1899,2025.68 1901.75,2025.68 C1904.5,2025.68 1906.84,2026.67 1908.76,2028.64 C1910.67,2030.62 1911.63,2033 1911.63,2035.79 C1911.63,2037.02 1910.61,2038.37 1908.57,2039.82 C1906.53,2041.28 1905.51,2042.62 1905.51,2043.86 C1905.51,2045.78 1906.45,2047.18 1908.34,2048.08 C1910.23,2048.98 1912.5,2049.43 1915.16,2049.43 C1918.62,2049.43 1921.08,2047.71 1922.53,2044.28 C1923.99,2040.84 1924.71,2036.62 1924.71,2031.61 L1924.71,2029.2 C1924.71,2025.86 1924.61,2023.33 1924.39,2021.59 C1924.17,2019.86 1923.49,2018.32 1922.35,2016.95 C1921.2,2015.59 1919.46,2014.91 1917.11,2014.91 L1904.95,2014.91 C1903.53,2014.91 1902.82,2014.14 1902.82,2012.59 C1902.82,2011.17 1903.53,2010.46 1904.95,2010.46 L1917.11,2010.46 C1919.64,2010.46 1921.62,2009.5 1923.04,2007.58 C1923.54,2006.9 1923.94,2005.79 1924.25,2004.24 C1924.56,2002.2 1924.71,1999.27 1924.71,1995.43 L1924.71,1994.23 C1924.71,1985.01 1921.31,1980.4 1914.51,1980.4 C1908.51,1980.4 1905.51,1982.07 1905.51,1985.41 C1905.51,1986.53 1906.42,1987.72 1908.25,1988.98 C1910.07,1990.25 1910.98,1991.44 1910.98,1992.56 C1910.98,1994.97 1910.13,1997.04 1908.43,1998.77 C1906.73,2000.5 1904.66,2001.37 1902.22,2001.37 C1899.77,2001.37 1897.72,2000.5 1896.05,1998.77 C1894.38,1997.04 1893.54,1994.97 1893.54,1992.56 C1893.54,1987.79 1895.61,1983.99 1899.76,1981.14 C1903.9,1978.3 1908.82,1976.88 1914.51,1976.88 C1921.99,1976.88 1928.15,1978.31 1932.97,1981.19 C1937.79,1984.07 1940.21,1988.41 1940.21,1994.23 C1940.21,1998.37 1939.77,2001.59 1938.91,2003.87 C1938.04,2006.16 1937.05,2007.55 1935.94,2008.05 C1934.83,2008.54 1933.84,2009.12 1932.97,2009.76 C1932.1,2010.41 1931.67,2011.36 1931.67,2012.59"/>
<path class="FiguredBass" d="M3022.78,1826.69 C3022.78,1827.68 3023.34,1828.64 3024.45,1829.57 C3025.57,1830.5 3026.79,1831.38 3028.12,1832.21 C3029.45,1833.05 3030.67,1834.62 3031.78,1836.94 C3032.9,1839.26 3033.45,1842.18 3033.45,1845.71 C3033.45,1852.51 3030.89,1857.77 3025.75,1861.48 C3020.62,1865.19 3014.13,1867.05 3006.27,1867.05 C2999.96,1867.05 2994.47,1865.47 2989.8,1862.32 C2985.13,1859.16 2982.8,1855.02 2982.8,1849.88 C2982.8,1847.16 2983.79,1844.8 2985.77,1842.79 C2987.75,1840.78 2990.11,1839.77 2992.86,1839.77 C2995.62,1839.77 2997.95,1840.76 2999.87,1842.74 C3001.79,1844.72 3002.75,1847.1 3002.75,1849.88 C3002.75,1851.12 3001.72,1852.47 2999.68,1853.92 C2997.64,1855.37 2996.62,1856.72 2996.62,1857.96 C2996.62,1859.87 2997.57,1861.28 2999.45,1862.18 C3001.34,1863.07 3003.61,1863.52 3006.27,1863.52 C3009.73,1863.52 3012.19,1861.81 3013.65,1858.37 C3015.1,1854.94 3015.83,1850.72 3015.83,1845.71 L3015.83,1843.3 C3015.83,1839.96 3015.72,1837.42 3015.5,1835.69 C3015.28,1833.96 3014.6,1832.41 3013.46,1831.05 C3012.32,1829.69 3010.57,1829.01 3008.22,1829.01 L2996.07,1829.01 C2994.64,1829.01 2993.93,1828.24 2993.93,1826.69 C2993.93,1825.27 2994.64,1824.56 2996.07,1824.56 L3008.22,1824.56 C3010.75,1824.56 3012.73,1823.6 3014.16,1821.68 C3014.65,1821 3015.05,1819.89 3015.36,1818.34 C3015.67,1816.3 3015.83,1813.36 3015.83,1809.53 L3015.83,1808.32 C3015.83,1799.11 3012.42,1794.5 3005.62,1794.5 C2999.62,1794.5 2996.62,1796.17 2996.62,1799.51 C2996.62,1800.62 2997.53,1801.81 2999.36,1803.08 C3001.18,1804.35 3002.1,1805.54 3002.1,1806.65 C3002.1,1809.06 3001.25,1811.14 2999.54,1812.87 C2997.84,1814.6 2995.77,1815.47 2993.33,1815.47 C2990.89,1815.47 2988.83,1814.6 2987.16,1812.87 C2985.49,1811.14 2984.65,1809.06 2984.65,1806.65 C2984.65,1801.89 2986.73,1798.09 2990.87,1795.24 C2995.01,1792.4 2999.93,1790.97 3005.62,1790.97 C3013.1,1790.97 3019.26,1792.41 3024.08,1795.29 C3028.91,1798.16 3031.32,1802.51 3031.32,1808.32 C3031.32,1812.47 3030.89,1815.68 3030.02,1817.97 C3029.15,1820.26 3028.17,1821.65 3027.05,1822.15 C3025.94,1822.64 3024.95,1823.21 3024.08,1823.86 C3023.22,1824.51 3022.78,1825.45 3022.78,1826.69"/>
<path class="FiguredBass" d="M3010.91,1900.25 C3006.33,1900.25 3003.29,1902.09 3001.77,1905.77 C3000.26,1909.45 2999.5,1914.66 2999.5,1921.4 L2999.5,1932.35 C3002.71,1931.05 3005.5,1930.37 3007.85,1930.31 C3015.89,1930.31 3022.21,1932.09 3026.82,1935.64 C3031.43,1939.2 3033.73,1944.49 3033.73,1951.51 C3033.73,1958.53 3031.4,1963.83 3026.73,1967.42 C3022.06,1971 3015.76,1972.8 3007.85,1972.8 C2999.75,1972.8 2993.41,1969.04 2988.83,1961.53 C2984.25,1954.01 2981.96,1945.09 2981.96,1934.76 C2981.96,1924.49 2984.62,1915.59 2989.94,1908.04 C2995.26,1900.5 3002.25,1896.72 3010.91,1896.72 C3016.6,1896.72 3021.52,1898.16 3025.66,1901.04 C3029.8,1903.91 3031.88,1907.7 3031.88,1912.4 C3031.88,1915.12 3030.89,1917.47 3028.91,1919.45 C3026.93,1921.43 3024.56,1922.42 3021.81,1922.42 C3019.06,1922.42 3016.69,1921.43 3014.71,1919.45 C3012.73,1917.47 3011.74,1915.12 3011.74,1912.4 C3011.74,1909.74 3012.73,1907.39 3014.71,1905.35 C3015.39,1904.55 3016.35,1903.87 3017.59,1903.31 C3017.28,1902.51 3016.66,1901.89 3015.73,1901.46 C3014.37,1900.65 3012.76,1900.25 3010.91,1900.25 M3015.46,1938.19 C3014.34,1935.29 3011.9,1933.83 3008.13,1933.83 C3004.35,1933.83 3002.02,1935.29 3001.12,1938.19 C3000.22,1941.1 2999.78,1945.52 2999.78,1951.46 C2999.78,1958.45 3000.22,1963.15 3001.12,1965.56 C3002.02,1967.97 3004.35,1969.18 3008.13,1969.18 C3011.9,1969.18 3014.34,1967.73 3015.46,1964.82 C3016.57,1961.91 3017.12,1957.47 3017.12,1951.51 C3017.12,1945.54 3016.57,1941.1 3015.46,1938.19"/>
<path class="FiguredBass" d="M3010.26,2004.42 C3012.61,2004.42 3015.08,2004.08 3017.68,2003.4 L3021.86,2002.29 C3022.66,2002.29 3023.29,2002.6 3023.76,2003.22 C3024.22,2003.83 3024.18,2004.39 3023.62,2004.89 L2980.48,2055.08 L3005.81,2055.08 L3005.81,2035.22 C3005.81,2033.8 3006.19,2032.7 3006.97,2031.93 C3007.74,2031.16 3008.73,2030.54 3009.94,2030.07 C3011.14,2029.61 3012.72,2028.23 3014.67,2025.95 C3016.61,2023.66 3018.49,2020.56 3020.28,2016.67 C3020.59,2016.05 3021.05,2015.74 3021.67,2015.74 C3022.97,2015.74 3023.62,2016.45 3023.62,2017.87 L3023.62,2055.08 L3034.57,2055.08 C3036.11,2055.08 3036.89,2055.79 3036.89,2057.21 C3036.89,2058.76 3036.11,2059.53 3034.57,2059.53 L3023.62,2059.53 L3023.62,2060.74 C3023.62,2064.57 3024.64,2067.91 3026.68,2070.75 C3028.72,2073.6 3031.35,2075.02 3034.57,2075.02 C3035.8,2075.02 3036.42,2075.58 3036.42,2076.69 C3036.42,2077.93 3035.8,2078.55 3034.57,2078.55 C3032.34,2078.55 3029.03,2078.22 3024.64,2077.57 C3020.25,2076.92 3016.92,2076.6 3014.67,2076.6 C3012.41,2076.6 3009.08,2076.92 3004.69,2077.57 C3000.3,2078.22 2996.99,2078.55 2994.77,2078.55 C2993.53,2078.55 2992.91,2077.93 2992.91,2076.69 C2992.91,2075.58 2993.53,2075.02 2994.77,2075.02 C2997.98,2075.02 3000.63,2073.6 3002.7,2070.75 C3004.77,2067.91 3005.81,2064.57 3005.81,2060.74 L3005.81,2059.53 L2980.48,2059.53 C2978.87,2059.53 2977.68,2059.14 2976.91,2058.37 C2976.13,2057.6 2975.75,2056.81 2975.75,2056 C2975.75,2055.69 2976.47,2054.63 2977.93,2052.8 C2979.38,2050.98 2981.16,2048.55 2983.26,2045.52 C2985.37,2042.49 2987.45,2039.04 2989.52,2035.18 C2991.6,2031.31 2993.36,2026.67 2994.81,2021.26 C2996.27,2015.85 2996.99,2010.39 2996.99,2004.89 C2996.99,2003.28 2997.67,2002.47 2999.03,2002.47 C2999.22,2002.47 2999.87,2002.63 3000.98,2002.94 C3002.1,2003.25 3003.52,2003.57 3005.25,2003.91 C3006.98,2004.25 3008.65,2004.42 3010.26,2004.42"/>
<path class="FiguredBass" d="M3585.63,1826.69 C3585.63,1827.68 3586.18,1828.64 3587.3,1829.57 C3588.41,1830.5 3589.63,1831.38 3590.96,1832.21 C3592.29,1833.05 3593.51,1834.62 3594.63,1836.94 C3595.74,1839.26 3596.3,1842.18 3596.3,1845.71 C3596.3,1852.51 3593.73,1857.77 3588.6,1861.48 C3583.46,1865.19 3576.97,1867.05 3569.11,1867.05 C3562.81,1867.05 3557.32,1865.47 3552.65,1862.32 C3547.98,1859.16 3545.64,1855.02 3545.64,1849.88 C3545.64,1847.16 3546.63,1844.8 3548.61,1842.79 C3550.59,1840.78 3552.96,1839.77 3555.71,1839.77 C3558.46,1839.77 3560.8,1840.76 3562.71,1842.74 C3564.63,1844.72 3565.59,1847.1 3565.59,1849.88 C3565.59,1851.12 3564.57,1852.47 3562.53,1853.92 C3560.49,1855.37 3559.47,1856.72 3559.47,1857.96 C3559.47,1859.87 3560.41,1861.28 3562.3,1862.18 C3564.18,1863.07 3566.45,1863.52 3569.11,1863.52 C3572.58,1863.52 3575.04,1861.81 3576.49,1858.37 C3577.94,1854.94 3578.67,1850.72 3578.67,1845.71 L3578.67,1843.3 C3578.67,1839.96 3578.56,1837.42 3578.35,1835.69 C3578.13,1833.96 3577.45,1832.41 3576.3,1831.05 C3575.16,1829.69 3573.41,1829.01 3571.06,1829.01 L3558.91,1829.01 C3557.49,1829.01 3556.78,1828.24 3556.78,1826.69 C3556.78,1825.27 3557.49,1824.56 3558.91,1824.56 L3571.06,1824.56 C3573.6,1824.56 3575.58,1823.6 3577,1821.68 C3577.49,1821 3577.9,1819.89 3578.21,1818.34 C3578.52,1816.3 3578.67,1813.36 3578.67,1809.53 L3578.67,1808.32 C3578.67,1799.11 3575.27,1794.5 3568.46,1794.5 C3562.47,1794.5 3559.47,1796.17 3559.47,1799.51 C3559.47,1800.62 3560.38,1801.81 3562.2,1803.08 C3564.03,1804.35 3564.94,1805.54 3564.94,1806.65 C3564.94,1809.06 3564.09,1811.14 3562.39,1812.87 C3560.69,1814.6 3558.62,1815.47 3556.17,1815.47 C3553.73,1815.47 3551.67,1814.6 3550,1812.87 C3548.33,1811.14 3547.5,1809.06 3547.5,1806.65 C3547.5,1801.89 3549.57,1798.09 3553.71,1795.24 C3557.86,1792.4 3562.77,1790.97 3568.46,1790.97 C3575.95,1790.97 3582.1,1792.41 3586.93,1795.29 C3591.75,1798.16 3594.16,1802.51 3594.16,1808.32 C3594.16,1812.47 3593.73,1815.68 3592.86,1817.97 C3592,1820.26 3591.01,1821.65 3589.9,1822.15 C3588.78,1822.64 3587.79,1823.21 3586.93,1823.86 C3586.06,1824.51 3585.63,1825.45 3585.63,1826.69"/>
<path class="FiguredBass" d="M3582.1,1929.01 C3587.05,1923.63 3589.52,1918.43 3589.52,1913.42 C3589.52,1909.34 3587.78,1906.12 3584.28,1903.77 C3580.79,1901.42 3576.6,1900.25 3571.71,1900.25 C3568.25,1900.25 3565.48,1901.33 3563.41,1903.5 C3561.34,1905.66 3560.3,1908.17 3560.3,1911.01 C3560.3,1914.47 3561.82,1917.1 3564.85,1918.9 L3582.1,1929.01 M3586.65,1931.61 C3595.06,1936.49 3599.27,1942.92 3599.27,1950.9 C3599.27,1956.9 3596.7,1962.05 3591.57,1966.35 C3586.43,1970.65 3579.41,1972.8 3570.51,1972.8 C3563.02,1972.8 3556.51,1970.82 3550.98,1966.86 C3545.44,1962.9 3542.67,1957.77 3542.67,1951.46 C3542.67,1949.11 3543.35,1946.73 3544.71,1944.32 C3546.08,1941.9 3547.34,1940.1 3548.52,1938.89 C3549.69,1937.68 3551.61,1935.81 3554.27,1933.28 C3548.09,1929.01 3544.99,1923.63 3544.99,1917.13 C3544.99,1911.57 3547.37,1906.77 3552.14,1902.75 C3556.9,1898.73 3563.42,1896.72 3571.71,1896.72 C3578.33,1896.72 3584.07,1898.22 3588.92,1901.22 C3593.78,1904.22 3596.2,1908.29 3596.2,1913.42 C3596.2,1918.93 3593.02,1924.99 3586.65,1931.61 M3558.82,1935.97 C3552.51,1941.47 3549.35,1946.64 3549.35,1951.46 C3549.35,1956.53 3551.46,1960.77 3555.66,1964.17 C3559.87,1967.57 3564.82,1969.27 3570.51,1969.27 C3574.46,1969.27 3577.63,1968 3580.01,1965.47 C3582.4,1962.93 3583.59,1960 3583.59,1956.66 C3583.59,1952.39 3581.82,1949.23 3578.3,1947.19 L3558.82,1935.97 "/>
<path class="FiguredBass" d="M3573.75,2006 C3569.18,2006 3566.13,2007.84 3564.61,2011.52 C3563.1,2015.2 3562.34,2020.41 3562.34,2027.15 L3562.34,2038.1 C3565.56,2036.8 3568.34,2036.12 3570.69,2036.06 C3578.73,2036.06 3585.06,2037.84 3589.66,2041.39 C3594.27,2044.95 3596.58,2050.24 3596.58,2057.26 C3596.58,2064.28 3594.24,2069.58 3589.57,2073.17 C3584.9,2076.75 3578.61,2078.55 3570.69,2078.55 C3562.59,2078.55 3556.25,2074.79 3551.67,2067.28 C3547.1,2059.76 3544.81,2050.84 3544.81,2040.51 C3544.81,2030.24 3547.47,2021.34 3552.79,2013.79 C3558.1,2006.25 3565.09,2002.47 3573.75,2002.47 C3579.44,2002.47 3584.36,2003.91 3588.5,2006.79 C3592.65,2009.66 3594.72,2013.45 3594.72,2018.15 C3594.72,2020.87 3593.73,2023.22 3591.75,2025.2 C3589.77,2027.18 3587.41,2028.17 3584.65,2028.17 C3581.9,2028.17 3579.54,2027.18 3577.56,2025.2 C3575.58,2023.22 3574.59,2020.87 3574.59,2018.15 C3574.59,2015.49 3575.58,2013.14 3577.56,2011.1 C3578.24,2010.3 3579.2,2009.62 3580.43,2009.06 C3580.12,2008.26 3579.5,2007.64 3578.58,2007.21 C3577.22,2006.4 3575.61,2006 3573.75,2006 M3578.3,2043.94 C3577.19,2041.04 3574.74,2039.58 3570.97,2039.58 C3567.2,2039.58 3564.86,2041.04 3563.97,2043.94 C3563.07,2046.85 3562.62,2051.27 3562.62,2057.21 C3562.62,2064.2 3563.07,2068.9 3563.97,2071.31 C3564.86,2073.72 3567.2,2074.93 3570.97,2074.93 C3574.74,2074.93 3577.19,2073.48 3578.3,2070.57 C3579.41,2067.66 3579.97,2063.22 3579.97,2057.26 C3579.97,2051.29 3579.41,2046.85 3578.3,2043.94"/>
<path class="FiguredBass" d="M3573.1,2110.17 C3575.45,2110.17 3577.93,2109.83 3580.53,2109.15 L3584.7,2108.04 C3585.5,2108.04 3586.14,2108.35 3586.6,2108.97 C3587.07,2109.58 3587.02,2110.14 3586.46,2110.64 L3543.32,2160.83 L3568.65,2160.83 L3568.65,2140.97 C3568.65,2139.55 3569.04,2138.45 3569.81,2137.68 C3570.58,2136.91 3571.57,2136.29 3572.78,2135.82 C3573.98,2135.36 3575.56,2133.98 3577.51,2131.7 C3579.46,2129.41 3581.33,2126.31 3583.12,2122.42 C3583.43,2121.8 3583.9,2121.49 3584.51,2121.49 C3585.81,2121.49 3586.46,2122.2 3586.46,2123.62 L3586.46,2160.83 L3597.41,2160.83 C3598.96,2160.83 3599.73,2161.54 3599.73,2162.96 C3599.73,2164.51 3598.96,2165.28 3597.41,2165.28 L3586.46,2165.28 L3586.46,2166.49 C3586.46,2170.32 3587.48,2173.66 3589.52,2176.5 C3591.57,2179.35 3594.19,2180.77 3597.41,2180.77 C3598.65,2180.77 3599.27,2181.33 3599.27,2182.44 C3599.27,2183.68 3598.65,2184.3 3597.41,2184.3 C3595.18,2184.3 3591.87,2183.97 3587.48,2183.32 C3583.09,2182.67 3579.77,2182.35 3577.51,2182.35 C3575.25,2182.35 3571.93,2182.67 3567.54,2183.32 C3563.15,2183.97 3559.84,2184.3 3557.61,2184.3 C3556.37,2184.3 3555.75,2183.68 3555.75,2182.44 C3555.75,2181.33 3556.37,2180.77 3557.61,2180.77 C3560.83,2180.77 3563.47,2179.35 3565.54,2176.5 C3567.61,2173.66 3568.65,2170.32 3568.65,2166.49 L3568.65,2165.28 L3543.32,2165.28 C3541.71,2165.28 3540.52,2164.89 3539.75,2164.12 C3538.98,2163.35 3538.59,2162.56 3538.59,2161.75 C3538.59,2161.44 3539.32,2160.38 3540.77,2158.55 C3542.23,2156.73 3544,2154.3 3546.11,2151.27 C3548.21,2148.24 3550.3,2144.79 3552.37,2140.93 C3554.44,2137.06 3556.2,2132.42 3557.66,2127.01 C3559.11,2121.6 3559.84,2116.14 3559.84,2110.64 C3559.84,2109.03 3560.52,2108.22 3561.88,2108.22 C3562.06,2108.22 3562.71,2108.38 3563.83,2108.69 C3564.94,2109 3566.36,2109.32 3568.09,2109.66 C3569.83,2110 3571.5,2110.17 3573.1,2110.17"/>
<polyline class="FretDiagram" stroke="#fc0107" stroke-width="4.76" stroke-linejoin="bevel" points="599.47,231.247 812.579,231.247"/>
<polyline class="FretDiagram" stroke="#fc0107" stroke-width="4.76" stroke-linejoin="bevel" points="601.851,219.341 601.851,445.546"/>
<polyline class="FretDiagram" stroke="#fc0107" stroke-width="4.76" stroke-linejoin="bevel" points="643.521,219.341 643.521,445.546"/>
<polyline class="FretDiagram" stroke="#fc0107" stroke-width="4.76" stroke-linejoin="bevel" points="685.19,219.341 685.19,445.546"/>
<polyline class="FretDiagram" stroke="#fc0107" stroke-width="4.76" stroke-linejoin="bevel" points="726.859,219.341 726.859,445.546"/>
<polyline class="FretDiagram" stroke="#fc0107" stroke-width="4.76" stroke-linejoin="bevel" points="768.529,219.341 768.529,445.546"/>
<polyline class="FretDiagram" stroke="#fc0107" stroke-width="4.76" stroke-linejoin="bevel" points="810.198,219.341 810.198,445.546"/>
<polyline class="FretDiagram" stroke="#fc0107" stroke-width="4.76" stroke-linejoin="bevel" points="601.851,278.869 810.198,278.869"/>
<polyline class="FretDiagram" stroke="#fc0107" stroke-width="4.76" stroke-linejoin="bevel" points="601.851,326.491 810.198,326.491"/>
<polyline class="FretDiagram" stroke="#fc0107" stroke-width="4.76" stroke-linejoin="bevel" points="601.851,374.113 810.198,374.113"/>
<polyline class="FretDiagram" stroke="#fc0107" stroke-width="4.76" stroke-linejoin="bevel" points="601.851,421.735 810.198,421.735"/>
<path class="FretDiagram" fill="#fc0107" fill-rule="evenodd" d="M699.774,255.058 C699.774,263.113 693.245,269.642 685.19,269.642 C677.135,269.642 670.606,263.113 670.606,255.058 C670.606,247.003 677.135,240.474 685.19,240.474 C693.245,240.474 699.774,247.003 699.774,255.058"/>
<path class="FretDiagram" fill="#fc0107" fill-rule="evenodd" d="M741.444,302.68 C741.444,310.735 734.914,317.264 726.859,317.264 C718.805,317.264 712.275,310.735 712.275,302.68 C712.275,294.625 718.805,288.096 726.859,288.096 C734.914,288.096 741.444,294.625 741.444,302.68"/>
<path class="FretDiagram" fill="#fc0107" fill-rule="evenodd" d="M783.113,255.058 C783.113,263.113 776.583,269.642 768.529,269.642 C760.474,269.642 753.944,263.113 753.944,255.058 C753.944,247.003 760.474,240.474 768.529,240.474 C776.583,240.474 783.113,247.003 783.113,255.058"/>
<path class="FretDiagram" fill="#fc0107" fill-rule="evenodd" d="M824.782,302.68 C824.782,310.735 818.253,317.264 810.198,317.264 C802.143,317.264 795.614,310.735 795.614,302.68 C795.614,294.625 802.143,288.096 810.198,288.096 C818.253,288.096 824.782,294.625 824.782,302.68"/>
<polyline class="FretDiagram" fill="none" stroke="#fc0107" stroke-width="6.86" stroke-linecap="round" stroke-linejoin="bevel" points="585.184,166.957 618.519,200.293"/>
<polyline class="FretDiagram" fill="none" stroke="#fc0107" stroke-width="6.86" stroke-linecap="round" stroke-linejoin="bevel" points="585.184,200.293 618.519,166.957"/>
<polyline class="FretDiagram" fill="none" stroke="#fc0107" stroke-width="6.86" stroke-linecap="round" stroke-linejoin="bevel" points="626.853,166.957 660.188,200.293"/>
<polyline class="FretDiagram" fill="none" stroke="#fc0107" stroke-width="6.86" stroke-linecap="round" stroke-linejoin="bevel" points="626.853,200.293 660.188,166.957"/>
<path class="FretDiagram" fill="#fc0107" d="M577.603,220.954 L577.603,229.219 L549.578,229.219 L546.918,248.029 C550.654,245.306 554.803,243.944 559.363,243.944 C565.823,243.944 571.064,246.019 575.085,250.167 C579.107,254.315 581.118,259.714 581.118,266.364 C581.118,273.458 578.964,279.253 574.658,283.749 C570.351,288.246 564.809,290.494 558.033,290.494 C555.436,290.494 553.045,290.209 550.86,289.639 C548.675,289.069 546.87,288.389 545.445,287.597 C544.02,286.805 542.722,285.76 541.55,284.462 C540.379,283.164 539.492,282.024 538.89,281.042 C538.289,280.06 537.719,278.825 537.18,277.337 C536.642,275.849 536.309,274.819 536.183,274.249 C536.056,273.679 535.898,272.856 535.708,271.779 L544.068,271.779 C546.031,279.316 550.623,283.084 557.843,283.084 C562.403,283.084 565.997,281.691 568.625,278.904 C571.254,276.118 572.568,272.318 572.568,267.504 C572.568,262.501 571.238,258.559 568.578,255.677 C565.918,252.795 562.339,251.354 557.843,251.354 C555.246,251.354 553.029,251.814 551.193,252.732 C549.356,253.65 547.456,255.281 545.493,257.624 L537.798,257.624 L542.833,220.954 L577.603,220.954 "/>
<polyline class="FretDiagram" fill="#fc0107" stroke="#fc02ff" stroke-width="4.76" stroke-linejoin="bevel" points="1816.18,231.247 2029.29,231.247"/>
<polyline class="FretDiagram" fill="#fc0107" stroke="#fc02ff" stroke-width="4.76" stroke-linejoin="bevel" points="1818.56,219.341 1818.56,445.546"/>
<polyline class="FretDiagram" fill="#fc0107" stroke="#fc02ff" stroke-width="4.76" stroke-linejoin="bevel" points="1860.23,219.341 1860.23,445.546"/>
<polyline class="FretDiagram" fill="#fc0107" stroke="#fc02ff" stroke-width="4.76" stroke-linejoin="bevel" points="1901.9,219.341 1901.9,445.546"/>
<polyline class="FretDiagram" fill="#fc0107" stroke="#fc02ff" stroke-width="4.76" stroke-linejoin="bevel" points="1943.57,219.341 1943.57,445.546"/>
<polyline class="FretDiagram" fill="#fc0107" stroke="#fc02ff" stroke-width="4.76" stroke-linejoin="bevel" points="1985.24,219.341 1985.24,445.546"/>
<polyline class="FretDiagram" fill="#fc0107" stroke="#fc02ff" stroke-width="4.76" stroke-linejoin="bevel" points="2026.9,219.341 2026.9,445.546"/>
<polyline class="FretDiagram" fill="#fc0107" stroke="#fc02ff" stroke-width="4.76" stroke-linejoin="bevel" points="1818.56,278.869 2026.9,278.869"/>
<polyline class="FretDiagram" fill="#fc0107" stroke="#fc02ff" stroke-width="4.76" stroke-linejoin="bevel" points="1818.56,326.491 2026.9,326.491"/>
<polyline class="FretDiagram" fill="#fc0107" stroke="#fc02ff" stroke-width="4.76" stroke-linejoin="bevel" points="1818.56,374.113 2026.9,374.113"/>
<polyline class="FretDiagram" fill="#fc0107" stroke="#fc02ff" stroke-width="4.76" stroke-linejoin="bevel" points="1818.56,421.735 2026.9,421.735"/>
<path class="FretDiagram" fill="#fc02ff" fill-rule="evenodd" d="M1999.82,302.68 C1999.82,310.735 1993.29,317.264 1985.24,317.264 C1977.18,317.264 1970.65,310.735 1970.65,302.68 C1970.65,294.625 1977.18,288.096 1985.24,288.096 C1993.29,288.096 1999.82,294.625 1999.82,302.68"/>
<polyline class="FretDiagram" fill="none" stroke="#fc02ff" stroke-width="6.86" stroke-linecap="round" stroke-linejoin="bevel" points="1801.89,166.957 1835.23,200.293"/>
<polyline class="FretDiagram" fill="none" stroke="#fc02ff" stroke-width="6.86" stroke-linecap="round" stroke-linejoin="bevel" points="1801.89,200.293 1835.23,166.957"/>
<path class="FretDiagram" fill="none" stroke="#fc02ff" stroke-width="6.86" stroke-linecap="round" stroke-linejoin="bevel" fill-rule="evenodd" d="M1876.9,183.625 C1876.9,192.83 1869.43,200.293 1860.23,200.293 C1851.02,200.293 1843.56,192.83 1843.56,183.625 C1843.56,174.419 1851.02,166.957 1860.23,166.957 C1869.43,166.957 1876.9,174.419 1876.9,183.625"/>
<path class="FretDiagram" fill="none" stroke="#fc02ff" stroke-width="6.86" stroke-linecap="round" stroke-linejoin="bevel" fill-rule="evenodd" d="M1918.56,183.625 C1918.56,192.83 1911.1,200.293 1901.9,200.293 C1892.69,200.293 1885.23,192.83 1885.23,183.625 C1885.23,174.419 1892.69,166.957 1901.9,166.957 C1911.1,166.957 1918.56,174.419 1918.56,183.625"/>
<path class="FretDiagram" fill="none" stroke="#fc02ff" stroke-width="6.86" stroke-linecap="round" stroke-linejoin="bevel" fill-rule="evenodd" d="M1960.23,183.625 C1960.23,192.83 1952.77,200.293 1943.57,200.293 C1934.36,200.293 1926.9,192.83 1926.9,183.625 C1926.9,174.419 1934.36,166.957 1943.57,166.957 C1952.77,166.957 1960.23,174.419 1960.23,183.625"/>
<polyline class="FretDiagram" fill="none" stroke="#fc02ff" stroke-width="6.86" stroke-linecap="round" stroke-linejoin="bevel" points="2010.24,166.957 2043.57,200.293"/>
<polyline class="FretDiagram" fill="none" stroke="#fc02ff" stroke-width="6.86" stroke-linecap="round" stroke-linejoin="bevel" points="2010.24,200.293 2043.57,166.957"/>
<polyline class="FretDiagram" fill="none" stroke="#fc02ff" stroke-width="29.17" stroke-linecap="round" stroke-linejoin="bevel" points="1860.23,255.058 2026.9,255.058"/>
<path class="FretDiagram" fill="#fc02ff" d="M1794.31,220.954 L1794.31,229.219 L1766.28,229.219 L1763.62,248.029 C1767.36,245.306 1771.51,243.944 1776.07,243.944 C1782.53,243.944 1787.77,246.019 1791.79,250.167 C1795.81,254.315 1797.82,259.714 1797.82,266.364 C1797.82,273.458 1795.67,279.253 1791.36,283.749 C1787.06,288.246 1781.52,290.494 1774.74,290.494 C1772.14,290.494 1769.75,290.209 1767.57,289.639 C1765.38,289.069 1763.58,288.389 1762.15,287.597 C1760.73,286.805 1759.43,285.76 1758.26,284.462 C1757.09,283.164 1756.2,282.024 1755.6,281.042 C1755,280.06 1754.43,278.825 1753.89,277.337 C1753.35,275.849 1753.02,274.819 1752.89,274.249 C1752.76,273.679 1752.6,272.856 1752.41,271.779 L1760.77,271.779 C1762.74,279.316 1767.33,283.084 1774.55,283.084 C1779.11,283.084 1782.7,281.691 1785.33,278.904 C1787.96,276.118 1789.27,272.318 1789.27,267.504 C1789.27,262.501 1787.94,258.559 1785.28,255.677 C1782.62,252.795 1779.05,251.354 1774.55,251.354 C1771.95,251.354 1769.74,251.814 1767.9,252.732 C1766.06,253.65 1764.16,255.281 1762.2,257.624 L1754.5,257.624 L1759.54,220.954 L1794.31,220.954 "/>
<polyline class="FretDiagram" fill="#fc02ff" stroke="#0000ff" stroke-width="4.76" stroke-linejoin="bevel" points="2901.57,231.247 3114.68,231.247"/>
<polyline class="FretDiagram" fill="#fc02ff" stroke="#0000ff" stroke-width="4.76" stroke-linejoin="bevel" points="2903.95,219.341 2903.95,445.546"/>
<polyline class="FretDiagram" fill="#fc02ff" stroke="#0000ff" stroke-width="4.76" stroke-linejoin="bevel" points="2945.62,219.341 2945.62,445.546"/>
<polyline class="FretDiagram" fill="#fc02ff" stroke="#0000ff" stroke-width="4.76" stroke-linejoin="bevel" points="2987.29,219.341 2987.29,445.546"/>
<polyline class="FretDiagram" fill="#fc02ff" stroke="#0000ff" stroke-width="4.76" stroke-linejoin="bevel" points="3028.96,219.341 3028.96,445.546"/>
<polyline class="FretDiagram" fill="#fc02ff" stroke="#0000ff" stroke-width="4.76" stroke-linejoin="bevel" points="3070.63,219.341 3070.63,445.546"/>
<polyline class="FretDiagram" fill="#fc02ff" stroke="#0000ff" stroke-width="4.76" stroke-linejoin="bevel" points="3112.3,219.341 3112.3,445.546"/>
<polyline class="FretDiagram" fill="#fc02ff" stroke="#0000ff" stroke-width="4.76" stroke-linejoin="bevel" points="2903.95,278.869 3112.3,278.869"/>
<polyline class="FretDiagram" fill="#fc02ff" stroke="#0000ff" stroke-width="4.76" stroke-linejoin="bevel" points="2903.95,326.491 3112.3,326.491"/>
<polyline class="FretDiagram" fill="#fc02ff" stroke="#0000ff" stroke-width="4.76" stroke-linejoin="bevel" points="2903.95,374.113 3112.3,374.113"/>
<polyline class="FretDiagram" fill="#fc02ff" stroke="#0000ff" stroke-width="4.76" stroke-linejoin="bevel" points="2903.95,421.735 3112.3,421.735"/>
<path class="FretDiagram" fill="#0000ff" fill-rule="evenodd" d="M2918.54,350.302 C2918.54,358.357 2912.01,364.886 2903.95,364.886 C2895.9,364.886 2889.37,358.357 2889.37,350.302 C2889.37,342.247 2895.9,335.718 2903.95,335.718 C2912.01,335.718 2918.54,342.247 2918.54,350.302"/>
<path class="FretDiagram" fill="#0000ff" fill-rule="evenodd" d="M3001.87,302.68 C3001.87,310.735 2995.34,317.264 2987.29,317.264 C2979.23,317.264 2972.71,310.735 2972.71,302.68 C2972.71,294.625 2979.23,288.096 2987.29,288.096 C2995.34,288.096 3001.87,294.625 3001.87,302.68"/>
<path class="FretDiagram" fill="#0000ff" fill-rule="evenodd" d="M3043.54,397.924 C3043.54,405.979 3037.01,412.508 3028.96,412.508 C3020.9,412.508 3014.37,405.979 3014.37,397.924 C3014.37,389.869 3020.9,383.34 3028.96,383.34 C3037.01,383.34 3043.54,389.869 3043.54,397.924"/>
<path class="FretDiagram" fill="#0000ff" fill-rule="evenodd" d="M3085.21,255.058 C3085.21,263.113 3078.68,269.642 3070.63,269.642 C3062.57,269.642 3056.04,263.113 3056.04,255.058 C3056.04,247.003 3062.57,240.474 3070.63,240.474 C3078.68,240.474 3085.21,247.003 3085.21,255.058"/>
<polyline class="FretDiagram" fill="none" stroke="#0000ff" stroke-width="6.86" stroke-linecap="round" stroke-linejoin="bevel" points="2928.95,166.957 2962.29,200.293"/>
<polyline class="FretDiagram" fill="none" stroke="#0000ff" stroke-width="6.86" stroke-linecap="round" stroke-linejoin="bevel" points="2928.95,200.293 2962.29,166.957"/>
<polyline class="FretDiagram" fill="none" stroke="#0000ff" stroke-width="6.86" stroke-linecap="round" stroke-linejoin="bevel" points="3095.63,166.957 3128.96,200.293"/>
<polyline class="FretDiagram" fill="none" stroke="#0000ff" stroke-width="6.86" stroke-linecap="round" stroke-linejoin="bevel" points="3095.63,200.293 3128.96,166.957"/>
<path class="FretDiagram" fill="#0000ff" d="M2860.13,228.269 C2855.32,228.269 2852.01,229.584 2850.2,232.212 C2848.4,234.84 2847.43,238.339 2847.31,242.709 L2838.95,242.709 C2839.26,228.206 2846.29,220.954 2860.04,220.954 C2866.43,220.954 2871.45,222.601 2875.09,225.894 C2878.74,229.188 2880.56,233.716 2880.56,239.479 C2880.56,246.319 2877.42,250.974 2871.15,253.444 C2875.21,254.838 2878.12,256.785 2879.89,259.287 C2881.67,261.789 2882.55,265.193 2882.55,269.499 C2882.55,275.896 2880.48,280.994 2876.33,284.794 C2872.18,288.594 2866.66,290.494 2859.75,290.494 C2845.95,290.494 2838.54,283.243 2837.52,268.739 L2845.88,268.739 C2846.2,273.616 2847.5,277.226 2849.78,279.569 C2852.06,281.913 2855.48,283.084 2860.04,283.084 C2864.41,283.084 2867.83,281.897 2870.3,279.522 C2872.77,277.147 2874,273.838 2874,269.594 C2874,261.424 2869.35,257.339 2860.04,257.339 L2856.52,257.434 L2855.48,257.434 L2855.48,250.309 C2861.49,250.183 2865.75,249.423 2868.25,248.029 C2870.76,246.636 2872.01,243.881 2872.01,239.764 C2872.01,236.218 2870.95,233.415 2868.82,231.357 C2866.7,229.299 2863.81,228.269 2860.13,228.269"/>
<polyline class="FretDiagram" fill="#0000ff" stroke="#0000ff" stroke-width="4.76" stroke-linejoin="bevel" points="3464.41,206.022 3677.52,206.022"/>
<polyline class="FretDiagram" fill="#0000ff" stroke="#0000ff" stroke-width="4.76" stroke-linejoin="bevel" points="3466.79,194.117 3466.79,420.321"/>
<polyline class="FretDiagram" fill="#0000ff" stroke="#0000ff" stroke-width="4.76" stroke-linejoin="bevel" points="3508.46,194.117 3508.46,420.321"/>
<polyline class="FretDiagram" fill="#0000ff" stroke="#0000ff" stroke-width="4.76" stroke-linejoin="bevel" points="3550.13,194.117 3550.13,420.321"/>
<polyline class="FretDiagram" fill="#0000ff" stroke="#0000ff" stroke-width="4.76" stroke-linejoin="bevel" points="3591.8,194.117 3591.8,420.321"/>
<polyline class="FretDiagram" fill="#0000ff" stroke="#0000ff" stroke-width="4.76" stroke-linejoin="bevel" points="3633.47,194.117 3633.47,420.321"/>
<polyline class="FretDiagram" fill="#0000ff" stroke="#0000ff" stroke-width="4.76" stroke-linejoin="bevel" points="3675.14,194.117 3675.14,420.321"/>
<polyline class="FretDiagram" fill="#0000ff" stroke="#0000ff" stroke-width="4.76" stroke-linejoin="bevel" points="3466.79,253.644 3675.14,253.644"/>
<polyline class="FretDiagram" fill="#0000ff" stroke="#0000ff" stroke-width="4.76" stroke-linejoin="bevel" points="3466.79,301.266 3675.14,301.266"/>
<polyline class="FretDiagram" fill="#0000ff" stroke="#0000ff" stroke-width="4.76" stroke-linejoin="bevel" points="3466.79,348.888 3675.14,348.888"/>
<polyline class="FretDiagram" fill="#0000ff" stroke="#0000ff" stroke-width="4.76" stroke-linejoin="bevel" points="3466.79,396.51 3675.14,396.51"/>
<path class="FretDiagram" fill="#0000ff" fill-rule="evenodd" d="M3564.72,325.077 C3564.72,333.132 3558.19,339.661 3550.13,339.661 C3542.08,339.661 3535.55,333.132 3535.55,325.077 C3535.55,317.023 3542.08,310.493 3550.13,310.493 C3558.19,310.493 3564.72,317.023 3564.72,325.077"/>
<path class="FretDiagram" fill="#0000ff" fill-rule="evenodd" d="M3606.39,277.455 C3606.39,285.51 3599.86,292.039 3591.8,292.039 C3583.75,292.039 3577.22,285.51 3577.22,277.455 C3577.22,269.4 3583.75,262.871 3591.8,262.871 C3599.86,262.871 3606.39,269.4 3606.39,277.455"/>
<path class="FretDiagram" fill="#0000ff" fill-rule="evenodd" d="M3648.06,325.077 C3648.06,333.132 3641.53,339.661 3633.47,339.661 C3625.42,339.661 3618.89,333.132 3618.89,325.077 C3618.89,317.023 3625.42,310.493 3633.47,310.493 C3641.53,310.493 3648.06,317.023 3648.06,325.077"/>
<polyline class="FretDiagram" fill="none" stroke="#0000ff" stroke-width="29.17" stroke-linecap="round" stroke-linejoin="bevel" points="3466.79,229.833 3675.14,229.833"/>
<path class="FretDiagram" fill="#0000ff" d="M3442.55,195.73 L3442.55,203.995 L3414.52,203.995 L3411.86,222.805 C3415.6,220.081 3419.75,218.72 3424.31,218.72 C3430.77,218.72 3436.01,220.794 3440.03,224.942 C3444.05,229.09 3446.06,234.49 3446.06,241.14 C3446.06,248.233 3443.91,254.028 3439.6,258.525 C3435.29,263.021 3429.75,265.27 3422.98,265.27 C3420.38,265.27 3417.99,264.985 3415.8,264.415 C3413.62,263.845 3411.81,263.164 3410.39,262.372 C3408.96,261.58 3407.66,260.535 3406.49,259.237 C3405.32,257.939 3404.43,256.799 3403.83,255.817 C3403.23,254.835 3402.66,253.6 3402.12,252.112 C3401.58,250.624 3401.25,249.595 3401.13,249.025 C3401,248.455 3400.84,247.631 3400.65,246.555 L3409.01,246.555 C3410.97,254.091 3415.57,257.86 3422.79,257.86 C3427.35,257.86 3430.94,256.466 3433.57,253.68 C3436.2,250.893 3437.51,247.093 3437.51,242.28 C3437.51,237.276 3436.18,233.334 3433.52,230.452 C3430.86,227.57 3427.28,226.13 3422.79,226.13 C3420.19,226.13 3417.97,226.589 3416.14,227.507 C3414.3,228.425 3412.4,230.056 3410.44,232.4 L3402.74,232.4 L3407.78,195.73 L3442.55,195.73 "/>
<path class="Bracket" transform="matrix(8.6315,0,0,10.7691,76.1285,2472.52)" d="M0.92002,-50 C2.69004,-51.88 6.2,-55.8 6.2,-63 C6.2,-72.1 2.25996,-81.32 2.25996,-86.97 C2.25996,-93.06 5.84004,-98.84 5.95,-99 C6.05996,-99.16 6.05,-99.39 5.94004,-99.46 C5.82998,-99.53 5.62002,-99.47 5.49004,-99.32 C5.35996,-99.17 0,-93.75 0,-85.6 C0,-76.75 3.5,-70.58 3.5,-59.07 C3.5,-56.89 2.55996,-53.36 0.1,-50.33 C-0.0799805,-50.17 -0.1,-49.89 0.0599609,-49.7 L0.0700195,-49.69 L0.1,-49.66 C2.55996,-46.63 3.5,-43.1 3.5,-40.92 C3.5,-29.4 0,-23.24 0,-14.39 C0,-6.25 5.35996,-0.8 5.49004,-0.659961 C5.62002,-0.52002 5.8,-0.42998 5.94004,-0.52002 C6.07998,-0.609961 6.07998,-0.77998 5.95,-0.97998 C5.82002,-1.17998 2.25996,-6.92002 2.25996,-13.01 C2.25996,-18.66 6.2,-27.9 6.2,-37 C6.2,-44.3 2.69004,-48.12 0.92002,-50"/>
</svg>
