<?xml version="1.0" encoding="UTF-8" standalone="no"?>
<svg width="4209.45px" height="2976.38px" viewBox="0 0 4209.45 2976.38"
 xmlns="http://www.w3.org/2000/svg" xmlns:xlink="http://www.w3.org/1999/xlink" version="1.2" baseProfile="tiny">
<title>Diagrammes Accords Glissants (6)</title>
<desc>Generated by MuseScore 3.6.2</desc>
<polyline class="StaffLines" fill="none" stroke="#000000" stroke-width="6.55" stroke-linejoin="bevel" points="153.819,571.298 4138.58,571.298"/>
<polyline class="StaffLines" fill="none" stroke="#000000" stroke-width="6.55" stroke-linejoin="bevel" points="153.819,660.589 4138.58,660.589"/>
<polyline class="StaffLines" fill="none" stroke="#000000" stroke-width="6.55" stroke-linejoin="bevel" points="153.819,749.881 4138.58,749.881"/>
<polyline class="StaffLines" fill="none" stroke="#000000" stroke-width="6.55" stroke-linejoin="bevel" points="153.819,839.172 4138.58,839.172"/>
<polyline class="StaffLines" fill="none" stroke="#000000" stroke-width="6.55" stroke-linejoin="bevel" points="153.819,928.463 4138.58,928.463"/>
<polyline class="StaffLines" fill="none" stroke="#000000" stroke-width="6.55" stroke-linejoin="bevel" points="153.819,1017.75 4138.58,1017.75"/>
<polyline class="StaffLines" fill="none" stroke="#000000" stroke-width="6.55" stroke-linejoin="bevel" points="153.819,1404.68 4138.58,1404.68"/>
<polyline class="StaffLines" fill="none" stroke="#000000" stroke-width="6.55" stroke-linejoin="bevel" points="153.819,1464.21 4138.58,1464.21"/>
<polyline class="StaffLines" fill="none" stroke="#000000" stroke-width="6.55" stroke-linejoin="bevel" points="153.819,1523.74 4138.58,1523.74"/>
<polyline class="StaffLines" fill="none" stroke="#000000" stroke-width="6.55" stroke-linejoin="bevel" points="153.819,1583.27 4138.58,1583.27"/>
<polyline class="StaffLines" fill="none" stroke="#000000" stroke-width="6.55" stroke-linejoin="bevel" points="153.819,1642.79 4138.58,1642.79"/>
<polyline class="StaffLines" fill="none" stroke="#000000" stroke-width="6.55" stroke-linejoin="bevel" points="153.819,2200.76 4138.58,2200.76"/>
<polyline class="StaffLines" fill="none" stroke="#000000" stroke-width="6.55" stroke-linejoin="bevel" points="153.819,2260.29 4138.58,2260.29"/>
<polyline class="StaffLines" fill="none" stroke="#000000" stroke-width="6.55" stroke-linejoin="bevel" points="153.819,2319.81 4138.58,2319.81"/>
<polyline class="StaffLines" fill="none" stroke="#000000" stroke-width="6.55" stroke-linejoin="bevel" points="153.819,2379.34 4138.58,2379.34"/>
<polyline class="StaffLines" fill="none" stroke="#000000" stroke-width="6.55" stroke-linejoin="bevel" points="153.819,2438.87 4138.58,2438.87"/>
<path class="Symbol" transform="matrix(2.3811,0,0,2.3811,578.264,1553.5)" d="M0,-0.1 C0,7.7 4,14 10.4,18.1 L10.9,17.4 C7.5,14.8 6.3,13.3 5.2,10.1 C4.2,7.2 3.7,4 3.7,-0.2 C3.7,-8.1 4.8,-12.3 10.9,-17.4 L10.5,-18.1 C3.9,-13.6 0,-8.5 0,-0.1"/>
<path class="Symbol" transform="matrix(2.3811,0,0,2.3811,693.022,1553.5)" d="M3.7,-0.2 C3.7,4 3.2,7.2 2.2,10.1 C1,13.3 -0.2,14.8 -3.6,17.4 L-3,18.1 C3.4,14.1 7.3,7.6 7.3,-0.1 C7.3,-8.4 3.4,-13.8 -3.2,-18.1 L-3.6,-17.4 C2.6,-12.4 3.7,-8.1 3.7,-0.2"/>
<path class="Symbol" transform="matrix(2.3811,0,0,2.3811,589.1,626.09)" d="M0,-0.1 C0,7.7 4,14 10.4,18.1 L10.9,17.4 C7.5,14.8 6.3,13.3 5.2,10.1 C4.2,7.2 3.7,4 3.7,-0.2 C3.7,-8.1 4.8,-12.3 10.9,-17.4 L10.5,-18.1 C3.9,-13.6 0,-8.5 0,-0.1"/>
<path class="Symbol" transform="matrix(2.3811,0,0,2.3811,694.11,614.59)" d="M3.7,-0.2 C3.7,4 3.2,7.2 2.2,10.1 C1,13.3 -0.2,14.8 -3.6,17.4 L-3,18.1 C3.4,14.1 7.3,7.6 7.3,-0.1 C7.3,-8.4 3.4,-13.8 -3.2,-18.1 L-3.6,-17.4 C2.6,-12.4 3.7,-8.1 3.7,-0.2"/>
<polyline class="BarLine" fill="none" stroke="#000000" stroke-width="10.71" stroke-linejoin="bevel" points="159.176,2197.48 159.176,2442.14"/>
<polyline class="BarLine" fill="none" stroke="#000000" stroke-width="10.71" stroke-linejoin="bevel" points="1597.23,2197.48 1597.23,2442.14"/>
<polyline class="BarLine" fill="none" stroke="#000000" stroke-width="10.71" stroke-linejoin="bevel" points="2705.24,2197.48 2705.24,2442.14"/>
<polyline class="BarLine" fill="none" stroke="#000000" stroke-width="10.71" stroke-linejoin="bevel" points="4100.49,2197.48 4100.49,2442.14"/>
<polyline class="BarLine" fill="none" stroke="#000000" stroke-width="10.71" stroke-linejoin="bevel" points="4133.23,2197.48 4133.23,2442.14"/>
<polyline class="BarLine" fill="none" stroke="#000000" stroke-width="10.71" stroke-linejoin="bevel" points="159.176,1401.41 159.176,2200.76"/>
<polyline class="BarLine" fill="none" stroke="#000000" stroke-width="10.71" stroke-linejoin="bevel" points="1597.23,1401.41 1597.23,1646.07"/>
<polyline class="BarLine" fill="none" stroke="#000000" stroke-width="10.71" stroke-linejoin="bevel" points="2705.24,1401.41 2705.24,1646.07"/>
<polyline class="BarLine" fill="none" stroke="#000000" stroke-width="10.71" stroke-linejoin="bevel" points="4100.49,1401.41 4100.49,1646.07"/>
<polyline class="BarLine" fill="none" stroke="#000000" stroke-width="10.71" stroke-linejoin="bevel" points="4133.23,1401.41 4133.23,1646.07"/>
<polyline class="BarLine" fill="none" stroke="#000000" stroke-width="10.71" stroke-linejoin="bevel" points="159.176,568.024 159.176,1404.68"/>
<polyline class="BarLine" fill="none" stroke="#000000" stroke-width="10.71" stroke-linejoin="bevel" points="1597.23,568.024 1597.23,1021.03"/>
<polyline class="BarLine" fill="none" stroke="#000000" stroke-width="10.71" stroke-linejoin="bevel" points="2705.24,568.024 2705.24,1021.03"/>
<polyline class="BarLine" fill="none" stroke="#000000" stroke-width="10.71" stroke-linejoin="bevel" points="4100.49,568.024 4100.49,1021.03"/>
<polyline class="BarLine" fill="none" stroke="#000000" stroke-width="10.71" stroke-linejoin="bevel" points="4133.23,568.024 4133.23,1021.03"/>
<path class="Accidental" transform="matrix(2.3811,0,0,2.3811,510.402,2141.23)" d="M23.3,-10.6 C23.9,-10.7 24.4,-11.4 24.4,-12 L24.4,-17.9 C24.4,-18.7 23.8,-19.3 23,-19.3 L22.8,-19.3 L19.5,-18.6 L19.5,-33.5 L16.7,-33.5 L16.7,-18 L7.8,-16.2 L7.8,-30.3 L5,-30.3 L5,-15.6 L1.1,-14.8 C0.5,-14.7 0,-14 0,-13.4 L0,-13.2 L0,-7.4 L0,-7.6 C0,-6.8 0.6,-6.2 1.4,-6.2 L1.7,-6.2 L5,-6.9 L5,9.6 L1.1,10.4 C0.5,10.5 0,11.2 0,11.8 L0,17.6 C0,18.4 0.6,19 1.4,19 L1.7,19 L5,18.3 L5,33.2 L7.8,33.2 L7.8,17.7 L16.7,15.9 L16.7,30 L19.5,30 L19.5,15.3 L23.3,14.6 C23.9,14.5 24.4,13.8 24.4,13.2 L24.4,7.3 C24.4,6.5 23.8,5.9 23,5.9 L22.8,5.9 L19.5,6.6 L19.5,-9.9 L23.3,-10.6 M7.8,9.1 L7.8,-7.5 L16.7,-9.3 L16.7,7.2 L7.8,9.1 "/>
<path class="Accidental" transform="matrix(2.3811,0,0,2.3811,1660.1,2230.52)" d="M23.3,-10.6 C23.9,-10.7 24.4,-11.4 24.4,-12 L24.4,-17.9 C24.4,-18.7 23.8,-19.3 23,-19.3 L22.8,-19.3 L19.5,-18.6 L19.5,-33.5 L16.7,-33.5 L16.7,-18 L7.8,-16.2 L7.8,-30.3 L5,-30.3 L5,-15.6 L1.1,-14.8 C0.5,-14.7 0,-14 0,-13.4 L0,-13.2 L0,-7.4 L0,-7.6 C0,-6.8 0.6,-6.2 1.4,-6.2 L1.7,-6.2 L5,-6.9 L5,9.6 L1.1,10.4 C0.5,10.5 0,11.2 0,11.8 L0,17.6 C0,18.4 0.6,19 1.4,19 L1.7,19 L5,18.3 L5,33.2 L7.8,33.2 L7.8,17.7 L16.7,15.9 L16.7,30 L19.5,30 L19.5,15.3 L23.3,14.6 C23.9,14.5 24.4,13.8 24.4,13.2 L24.4,7.3 C24.4,6.5 23.8,5.9 23,5.9 L22.8,5.9 L19.5,6.6 L19.5,-9.9 L23.3,-10.6 M7.8,9.1 L7.8,-7.5 L16.7,-9.3 L16.7,7.2 L7.8,9.1 "/>
<path class="Accidental" transform="matrix(2.3811,0,0,2.3811,2768.11,2319.81)" d="M23.3,-10.6 C23.9,-10.7 24.4,-11.4 24.4,-12 L24.4,-17.9 C24.4,-18.7 23.8,-19.3 23,-19.3 L22.8,-19.3 L19.5,-18.6 L19.5,-33.5 L16.7,-33.5 L16.7,-18 L7.8,-16.2 L7.8,-30.3 L5,-30.3 L5,-15.6 L1.1,-14.8 C0.5,-14.7 0,-14 0,-13.4 L0,-13.2 L0,-7.4 L0,-7.6 C0,-6.8 0.6,-6.2 1.4,-6.2 L1.7,-6.2 L5,-6.9 L5,9.6 L1.1,10.4 C0.5,10.5 0,11.2 0,11.8 L0,17.6 C0,18.4 0.6,19 1.4,19 L1.7,19 L5,18.3 L5,33.2 L7.8,33.2 L7.8,17.7 L16.7,15.9 L16.7,30 L19.5,30 L19.5,15.3 L23.3,14.6 C23.9,14.5 24.4,13.8 24.4,13.2 L24.4,7.3 C24.4,6.5 23.8,5.9 23,5.9 L22.8,5.9 L19.5,6.6 L19.5,-9.9 L23.3,-10.6 M7.8,9.1 L7.8,-7.5 L16.7,-9.3 L16.7,7.2 L7.8,9.1 "/>
<path class="Accidental" transform="matrix(2.3811,0,0,2.3811,2773.83,1404.68)" d="M23.3,-10.6 C23.9,-10.7 24.4,-11.4 24.4,-12 L24.4,-17.9 C24.4,-18.7 23.8,-19.3 23,-19.3 L22.8,-19.3 L19.5,-18.6 L19.5,-33.5 L16.7,-33.5 L16.7,-18 L7.8,-16.2 L7.8,-30.3 L5,-30.3 L5,-15.6 L1.1,-14.8 C0.5,-14.7 0,-14 0,-13.4 L0,-13.2 L0,-7.4 L0,-7.6 C0,-6.8 0.6,-6.2 1.4,-6.2 L1.7,-6.2 L5,-6.9 L5,9.6 L1.1,10.4 C0.5,10.5 0,11.2 0,11.8 L0,17.6 C0,18.4 0.6,19 1.4,19 L1.7,19 L5,18.3 L5,33.2 L7.8,33.2 L7.8,17.7 L16.7,15.9 L16.7,30 L19.5,30 L19.5,15.3 L23.3,14.6 C23.9,14.5 24.4,13.8 24.4,13.2 L24.4,7.3 C24.4,6.5 23.8,5.9 23,5.9 L22.8,5.9 L19.5,6.6 L19.5,-9.9 L23.3,-10.6 M7.8,9.1 L7.8,-7.5 L16.7,-9.3 L16.7,7.2 L7.8,9.1 "/>
<path class="Accidental" transform="matrix(2.3811,0,0,2.3811,3397.99,1613.03)" d="M23.3,-10.6 C23.9,-10.7 24.4,-11.4 24.4,-12 L24.4,-17.9 C24.4,-18.7 23.8,-19.3 23,-19.3 L22.8,-19.3 L19.5,-18.6 L19.5,-33.5 L16.7,-33.5 L16.7,-18 L7.8,-16.2 L7.8,-30.3 L5,-30.3 L5,-15.6 L1.1,-14.8 C0.5,-14.7 0,-14 0,-13.4 L0,-13.2 L0,-7.4 L0,-7.6 C0,-6.8 0.6,-6.2 1.4,-6.2 L1.7,-6.2 L5,-6.9 L5,9.6 L1.1,10.4 C0.5,10.5 0,11.2 0,11.8 L0,17.6 C0,18.4 0.6,19 1.4,19 L1.7,19 L5,18.3 L5,33.2 L7.8,33.2 L7.8,17.7 L16.7,15.9 L16.7,30 L19.5,30 L19.5,15.3 L23.3,14.6 C23.9,14.5 24.4,13.8 24.4,13.2 L24.4,7.3 C24.4,6.5 23.8,5.9 23,5.9 L22.8,5.9 L19.5,6.6 L19.5,-9.9 L23.3,-10.6 M7.8,9.1 L7.8,-7.5 L16.7,-9.3 L16.7,7.2 L7.8,9.1 "/>
<polyline class="LedgerLine" fill="none" stroke="#000000" stroke-width="9.52" stroke-linejoin="bevel" points="583.379,2141.23 713.856,2141.23"/>
<polyline class="Stem" fill="none" stroke="#000000" stroke-width="6.55" stroke-linejoin="bevel" points="2850.08,1412.68 2850.08,1732.09"/>
<polyline class="Stem" fill="none" stroke="#000000" stroke-width="6.55" stroke-linejoin="bevel" points="3545.06,1605.41 3545.06,1337.72"/>
<polyline class="Stem" fill="none" stroke="#000000" stroke-width="6.55" stroke-linejoin="bevel" points="2891.45,377.833 2891.45,288.542"/>
<polyline class="Stem" fill="none" stroke="#000000" stroke-width="6.55" stroke-linejoin="bevel" points="3515.61,377.833 3515.61,288.542"/>
<path class="Note" transform="matrix(2.3811,0,0,2.3811,604.214,2141.23)" d="M18.7,-13.6 C4.9,-13.6 0,-6.6 0,-0.1 C0,6.4 4.9,13.4 18.7,13.4 C32.5,13.4 37.3,6.4 37.3,-0.1 C37.3,-6.6 32.5,-13.6 18.7,-13.6 M10.4,-4.5 C10.3,-4.9 10.3,-5.3 10.3,-5.7 C10.3,-6.5 10.5,-7.3 10.9,-8 C11.6,-9 12.8,-9.7 14.3,-10 C15.6,-10.3 16.3,-10.5 18.9,-10.5 L19,-10.5 C23,-10.5 24.3,-6.8 25.4,-3 L25.7,-2 C26.5,0.6 26.9,2.8 26.9,4.5 C26.9,5.7 26.7,6.8 26.3,7.6 C25.7,8.7 24.7,9.4 23,9.8 C22.1,10 20.6,10.1 20.6,10.1 C20.1,10.1 19.7,10.2 19.3,10.2 C16.1,10.2 14.1,9 12.7,4.7 C11.5,1 11.3,-0.1 10.4,-4.5"/>
<path class="Note" transform="matrix(2.3811,0,0,2.3811,1733.08,2230.52)" d="M18.7,-13.6 C4.9,-13.6 0,-6.6 0,-0.1 C0,6.4 4.9,13.4 18.7,13.4 C32.5,13.4 37.3,6.4 37.3,-0.1 C37.3,-6.6 32.5,-13.6 18.7,-13.6 M10.4,-4.5 C10.3,-4.9 10.3,-5.3 10.3,-5.7 C10.3,-6.5 10.5,-7.3 10.9,-8 C11.6,-9 12.8,-9.7 14.3,-10 C15.6,-10.3 16.3,-10.5 18.9,-10.5 L19,-10.5 C23,-10.5 24.3,-6.8 25.4,-3 L25.7,-2 C26.5,0.6 26.9,2.8 26.9,4.5 C26.9,5.7 26.7,6.8 26.3,7.6 C25.7,8.7 24.7,9.4 23,9.8 C22.1,10 20.6,10.1 20.6,10.1 C20.1,10.1 19.7,10.2 19.3,10.2 C16.1,10.2 14.1,9 12.7,4.7 C11.5,1 11.3,-0.1 10.4,-4.5"/>
<path class="Note" transform="matrix(2.3811,0,0,2.3811,2841.09,2319.81)" d="M18.7,-13.6 C4.9,-13.6 0,-6.6 0,-0.1 C0,6.4 4.9,13.4 18.7,13.4 C32.5,13.4 37.3,6.4 37.3,-0.1 C37.3,-6.6 32.5,-13.6 18.7,-13.6 M10.4,-4.5 C10.3,-4.9 10.3,-5.3 10.3,-5.7 C10.3,-6.5 10.5,-7.3 10.9,-8 C11.6,-9 12.8,-9.7 14.3,-10 C15.6,-10.3 16.3,-10.5 18.9,-10.5 L19,-10.5 C23,-10.5 24.3,-6.8 25.4,-3 L25.7,-2 C26.5,0.6 26.9,2.8 26.9,4.5 C26.9,5.7 26.7,6.8 26.3,7.6 C25.7,8.7 24.7,9.4 23,9.8 C22.1,10 20.6,10.1 20.6,10.1 C20.1,10.1 19.7,10.2 19.3,10.2 C16.1,10.2 14.1,9 12.7,4.7 C11.5,1 11.3,-0.1 10.4,-4.5"/>
<path class="Note" transform="matrix(2.3811,0,0,2.3811,604.214,1553.5)" d="M18.7,-13.6 C4.9,-13.6 0,-6.6 0,-0.1 C0,6.4 4.9,13.4 18.7,13.4 C32.5,13.4 37.3,6.4 37.3,-0.1 C37.3,-6.6 32.5,-13.6 18.7,-13.6 M10.4,-4.5 C10.3,-4.9 10.3,-5.3 10.3,-5.7 C10.3,-6.5 10.5,-7.3 10.9,-8 C11.6,-9 12.8,-9.7 14.3,-10 C15.6,-10.3 16.3,-10.5 18.9,-10.5 L19,-10.5 C23,-10.5 24.3,-6.8 25.4,-3 L25.7,-2 C26.5,0.6 26.9,2.8 26.9,4.5 C26.9,5.7 26.7,6.8 26.3,7.6 C25.7,8.7 24.7,9.4 23,9.8 C22.1,10 20.6,10.1 20.6,10.1 C20.1,10.1 19.7,10.2 19.3,10.2 C16.1,10.2 14.1,9 12.7,4.7 C11.5,1 11.3,-0.1 10.4,-4.5"/>
<path class="Note" transform="matrix(2.3811,0,0,2.3811,604.214,1434.45)" d="M18.7,-13.6 C4.9,-13.6 0,-6.6 0,-0.1 C0,6.4 4.9,13.4 18.7,13.4 C32.5,13.4 37.3,6.4 37.3,-0.1 C37.3,-6.6 32.5,-13.6 18.7,-13.6 M10.4,-4.5 C10.3,-4.9 10.3,-5.3 10.3,-5.7 C10.3,-6.5 10.5,-7.3 10.9,-8 C11.6,-9 12.8,-9.7 14.3,-10 C15.6,-10.3 16.3,-10.5 18.9,-10.5 L19,-10.5 C23,-10.5 24.3,-6.8 25.4,-3 L25.7,-2 C26.5,0.6 26.9,2.8 26.9,4.5 C26.9,5.7 26.7,6.8 26.3,7.6 C25.7,8.7 24.7,9.4 23,9.8 C22.1,10 20.6,10.1 20.6,10.1 C20.1,10.1 19.7,10.2 19.3,10.2 C16.1,10.2 14.1,9 12.7,4.7 C11.5,1 11.3,-0.1 10.4,-4.5"/>
<path class="Note" transform="matrix(2.3811,0,0,2.3811,604.214,1374.92)" d="M18.7,-13.6 C4.9,-13.6 0,-6.6 0,-0.1 C0,6.4 4.9,13.4 18.7,13.4 C32.5,13.4 37.3,6.4 37.3,-0.1 C37.3,-6.6 32.5,-13.6 18.7,-13.6 M10.4,-4.5 C10.3,-4.9 10.3,-5.3 10.3,-5.7 C10.3,-6.5 10.5,-7.3 10.9,-8 C11.6,-9 12.8,-9.7 14.3,-10 C15.6,-10.3 16.3,-10.5 18.9,-10.5 L19,-10.5 C23,-10.5 24.3,-6.8 25.4,-3 L25.7,-2 C26.5,0.6 26.9,2.8 26.9,4.5 C26.9,5.7 26.7,6.8 26.3,7.6 C25.7,8.7 24.7,9.4 23,9.8 C22.1,10 20.6,10.1 20.6,10.1 C20.1,10.1 19.7,10.2 19.3,10.2 C16.1,10.2 14.1,9 12.7,4.7 C11.5,1 11.3,-0.1 10.4,-4.5"/>
<path class="Note" transform="matrix(2.3811,0,0,2.3811,1733.08,1523.74)" d="M18.7,-13.6 C4.9,-13.6 0,-6.6 0,-0.1 C0,6.4 4.9,13.4 18.7,13.4 C32.5,13.4 37.3,6.4 37.3,-0.1 C37.3,-6.6 32.5,-13.6 18.7,-13.6 M10.4,-4.5 C10.3,-4.9 10.3,-5.3 10.3,-5.7 C10.3,-6.5 10.5,-7.3 10.9,-8 C11.6,-9 12.8,-9.7 14.3,-10 C15.6,-10.3 16.3,-10.5 18.9,-10.5 L19,-10.5 C23,-10.5 24.3,-6.8 25.4,-3 L25.7,-2 C26.5,0.6 26.9,2.8 26.9,4.5 C26.9,5.7 26.7,6.8 26.3,7.6 C25.7,8.7 24.7,9.4 23,9.8 C22.1,10 20.6,10.1 20.6,10.1 C20.1,10.1 19.7,10.2 19.3,10.2 C16.1,10.2 14.1,9 12.7,4.7 C11.5,1 11.3,-0.1 10.4,-4.5"/>
<path class="Note" transform="matrix(2.3811,0,0,2.3811,1650.82,1464.21)" d="M18.7,-13.6 C4.9,-13.6 0,-6.6 0,-0.1 C0,6.4 4.9,13.4 18.7,13.4 C32.5,13.4 37.3,6.4 37.3,-0.1 C37.3,-6.6 32.5,-13.6 18.7,-13.6 M10.4,-4.5 C10.3,-4.9 10.3,-5.3 10.3,-5.7 C10.3,-6.5 10.5,-7.3 10.9,-8 C11.6,-9 12.8,-9.7 14.3,-10 C15.6,-10.3 16.3,-10.5 18.9,-10.5 L19,-10.5 C23,-10.5 24.3,-6.8 25.4,-3 L25.7,-2 C26.5,0.6 26.9,2.8 26.9,4.5 C26.9,5.7 26.7,6.8 26.3,7.6 C25.7,8.7 24.7,9.4 23,9.8 C22.1,10 20.6,10.1 20.6,10.1 C20.1,10.1 19.7,10.2 19.3,10.2 C16.1,10.2 14.1,9 12.7,4.7 C11.5,1 11.3,-0.1 10.4,-4.5"/>
<path class="Note" transform="matrix(2.3811,0,0,2.3811,1733.08,1434.45)" d="M18.7,-13.6 C4.9,-13.6 0,-6.6 0,-0.1 C0,6.4 4.9,13.4 18.7,13.4 C32.5,13.4 37.3,6.4 37.3,-0.1 C37.3,-6.6 32.5,-13.6 18.7,-13.6 M10.4,-4.5 C10.3,-4.9 10.3,-5.3 10.3,-5.7 C10.3,-6.5 10.5,-7.3 10.9,-8 C11.6,-9 12.8,-9.7 14.3,-10 C15.6,-10.3 16.3,-10.5 18.9,-10.5 L19,-10.5 C23,-10.5 24.3,-6.8 25.4,-3 L25.7,-2 C26.5,0.6 26.9,2.8 26.9,4.5 C26.9,5.7 26.7,6.8 26.3,7.6 C25.7,8.7 24.7,9.4 23,9.8 C22.1,10 20.6,10.1 20.6,10.1 C20.1,10.1 19.7,10.2 19.3,10.2 C16.1,10.2 14.1,9 12.7,4.7 C11.5,1 11.3,-0.1 10.4,-4.5"/>
<path class="Note" transform="matrix(2.3811,0,0,2.3811,2775.99,1553.5)" d="M31.5,-8.1 C29.7,-11.4 25.9,-13.2 21.3,-13.2 C17.9,-13.2 14.2,-12.2 10.6,-10.3 C4,-6.8 0,-0.9 0,4.2 C0,5.6 0.3,7 1,8.3 C2.8,11.6 6.6,13.3 11.2,13.3 C14.6,13.3 18.3,12.4 21.9,10.5 C28.5,7 32.5,1.1 32.5,-4 C32.5,-5.4 32.2,-6.8 31.5,-8.1 M27.2,-1.3 C25.5,0.4 22.1,2.5 18.5,4.5 C14.9,6.5 11.3,8 8.9,8.5 C8.4,8.6 7.9,8.7 7.4,8.7 C5.8,8.7 4.6,8.1 3.9,6.8 C3.6,6.3 3.4,5.7 3.4,5.1 C3.4,4 4.1,2.7 5.2,1.6 C6.9,-0.1 10.2,-2.2 13.8,-4.2 C17.4,-6.2 21,-7.7 23.4,-8.2 C23.9,-8.3 24.4,-8.4 24.9,-8.4 C26.5,-8.4 27.8,-7.8 28.5,-6.5 C28.8,-6 28.9,-5.4 28.9,-4.8 C28.9,-3.7 28.3,-2.5 27.2,-1.3"/>
<path class="Note" transform="matrix(2.3811,0,0,2.3811,2846.81,1523.74)" d="M31.5,-8.1 C29.7,-11.4 25.9,-13.2 21.3,-13.2 C17.9,-13.2 14.2,-12.2 10.6,-10.3 C4,-6.8 0,-0.9 0,4.2 C0,5.6 0.3,7 1,8.3 C2.8,11.6 6.6,13.3 11.2,13.3 C14.6,13.3 18.3,12.4 21.9,10.5 C28.5,7 32.5,1.1 32.5,-4 C32.5,-5.4 32.2,-6.8 31.5,-8.1 M27.2,-1.3 C25.5,0.4 22.1,2.5 18.5,4.5 C14.9,6.5 11.3,8 8.9,8.5 C8.4,8.6 7.9,8.7 7.4,8.7 C5.8,8.7 4.6,8.1 3.9,6.8 C3.6,6.3 3.4,5.7 3.4,5.1 C3.4,4 4.1,2.7 5.2,1.6 C6.9,-0.1 10.2,-2.2 13.8,-4.2 C17.4,-6.2 21,-7.7 23.4,-8.2 C23.9,-8.3 24.4,-8.4 24.9,-8.4 C26.5,-8.4 27.8,-7.8 28.5,-6.5 C28.8,-6 28.9,-5.4 28.9,-4.8 C28.9,-3.7 28.3,-2.5 27.2,-1.3"/>
<path class="Note" transform="matrix(2.3811,0,0,2.3811,2846.81,1404.68)" d="M31.5,-8.1 C29.7,-11.4 25.9,-13.2 21.3,-13.2 C17.9,-13.2 14.2,-12.2 10.6,-10.3 C4,-6.8 0,-0.9 0,4.2 C0,5.6 0.3,7 1,8.3 C2.8,11.6 6.6,13.3 11.2,13.3 C14.6,13.3 18.3,12.4 21.9,10.5 C28.5,7 32.5,1.1 32.5,-4 C32.5,-5.4 32.2,-6.8 31.5,-8.1 M27.2,-1.3 C25.5,0.4 22.1,2.5 18.5,4.5 C14.9,6.5 11.3,8 8.9,8.5 C8.4,8.6 7.9,8.7 7.4,8.7 C5.8,8.7 4.6,8.1 3.9,6.8 C3.6,6.3 3.4,5.7 3.4,5.1 C3.4,4 4.1,2.7 5.2,1.6 C6.9,-0.1 10.2,-2.2 13.8,-4.2 C17.4,-6.2 21,-7.7 23.4,-8.2 C23.9,-8.3 24.4,-8.4 24.9,-8.4 C26.5,-8.4 27.8,-7.8 28.5,-6.5 C28.8,-6 28.9,-5.4 28.9,-4.8 C28.9,-3.7 28.3,-2.5 27.2,-1.3"/>
<path class="Note" transform="matrix(2.3811,0,0,2.3811,3470.97,1613.03)" d="M31.5,-8.1 C29.7,-11.4 25.9,-13.2 21.3,-13.2 C17.9,-13.2 14.2,-12.2 10.6,-10.3 C4,-6.8 0,-0.9 0,4.2 C0,5.6 0.3,7 1,8.3 C2.8,11.6 6.6,13.3 11.2,13.3 C14.6,13.3 18.3,12.4 21.9,10.5 C28.5,7 32.5,1.1 32.5,-4 C32.5,-5.4 32.2,-6.8 31.5,-8.1 M27.2,-1.3 C25.5,0.4 22.1,2.5 18.5,4.5 C14.9,6.5 11.3,8 8.9,8.5 C8.4,8.6 7.9,8.7 7.4,8.7 C5.8,8.7 4.6,8.1 3.9,6.8 C3.6,6.3 3.4,5.7 3.4,5.1 C3.4,4 4.1,2.7 5.2,1.6 C6.9,-0.1 10.2,-2.2 13.8,-4.2 C17.4,-6.2 21,-7.7 23.4,-8.2 C23.9,-8.3 24.4,-8.4 24.9,-8.4 C26.5,-8.4 27.8,-7.8 28.5,-6.5 C28.8,-6 28.9,-5.4 28.9,-4.8 C28.9,-3.7 28.3,-2.5 27.2,-1.3"/>
<path class="Note" transform="matrix(2.3811,0,0,2.3811,3470.97,1553.5)" d="M31.5,-8.1 C29.7,-11.4 25.9,-13.2 21.3,-13.2 C17.9,-13.2 14.2,-12.2 10.6,-10.3 C4,-6.8 0,-0.9 0,4.2 C0,5.6 0.3,7 1,8.3 C2.8,11.6 6.6,13.3 11.2,13.3 C14.6,13.3 18.3,12.4 21.9,10.5 C28.5,7 32.5,1.1 32.5,-4 C32.5,-5.4 32.2,-6.8 31.5,-8.1 M27.2,-1.3 C25.5,0.4 22.1,2.5 18.5,4.5 C14.9,6.5 11.3,8 8.9,8.5 C8.4,8.6 7.9,8.7 7.4,8.7 C5.8,8.7 4.6,8.1 3.9,6.8 C3.6,6.3 3.4,5.7 3.4,5.1 C3.4,4 4.1,2.7 5.2,1.6 C6.9,-0.1 10.2,-2.2 13.8,-4.2 C17.4,-6.2 21,-7.7 23.4,-8.2 C23.9,-8.3 24.4,-8.4 24.9,-8.4 C26.5,-8.4 27.8,-7.8 28.5,-6.5 C28.8,-6 28.9,-5.4 28.9,-4.8 C28.9,-3.7 28.3,-2.5 27.2,-1.3"/>
<path class="Note" transform="matrix(2.3811,0,0,2.3811,3541.79,1523.74)" d="M31.5,-8.1 C29.7,-11.4 25.9,-13.2 21.3,-13.2 C17.9,-13.2 14.2,-12.2 10.6,-10.3 C4,-6.8 0,-0.9 0,4.2 C0,5.6 0.3,7 1,8.3 C2.8,11.6 6.6,13.3 11.2,13.3 C14.6,13.3 18.3,12.4 21.9,10.5 C28.5,7 32.5,1.1 32.5,-4 C32.5,-5.4 32.2,-6.8 31.5,-8.1 M27.2,-1.3 C25.5,0.4 22.1,2.5 18.5,4.5 C14.9,6.5 11.3,8 8.9,8.5 C8.4,8.6 7.9,8.7 7.4,8.7 C5.8,8.7 4.6,8.1 3.9,6.8 C3.6,6.3 3.4,5.7 3.4,5.1 C3.4,4 4.1,2.7 5.2,1.6 C6.9,-0.1 10.2,-2.2 13.8,-4.2 C17.4,-6.2 21,-7.7 23.4,-8.2 C23.9,-8.3 24.4,-8.4 24.9,-8.4 C26.5,-8.4 27.8,-7.8 28.5,-6.5 C28.8,-6 28.9,-5.4 28.9,-4.8 C28.9,-3.7 28.3,-2.5 27.2,-1.3"/>
<path class="Note" d="M697.908,574.06 C702.247,571.116 705.384,568.676 707.321,566.739 C710.885,562.943 712.667,559.456 712.667,556.28 C712.667,552.639 710.653,550.818 706.624,550.818 C698.799,550.818 690.432,557.713 681.523,571.503 C678.811,575.687 672.845,589.322 663.626,612.41 C670.986,620.002 674.666,624.302 674.666,625.309 C674.666,626.704 673.775,627.401 671.993,627.401 C670.599,627.401 666.764,625.038 660.488,620.312 C653.671,636.194 643.328,649.752 629.46,660.986 C615.282,672.452 598.354,678.185 578.676,678.185 C571.161,678.185 561.748,676.442 550.437,672.956 C541.372,670.167 536.84,665.712 536.84,659.591 C536.84,650.527 540.326,645.995 547.299,645.995 C551.482,645.995 553.574,647.931 553.574,651.805 C553.574,653.045 552.606,654.362 550.669,655.756 C549.662,656.454 549.158,657.809 549.158,659.824 C549.158,662.225 551.831,664.705 557.177,667.261 C562.987,670.05 571.509,671.445 582.743,671.445 C597.231,671.445 611.215,665.169 624.695,652.619 C636.936,641.23 645.73,627.982 651.075,612.875 C648.983,611.17 646.737,609.311 644.335,607.296 C636.898,602.88 633.179,598.348 633.179,593.7 C633.179,591.763 634.457,590.794 637.014,590.794 C640.423,590.794 645.032,593.7 650.843,599.51 C652.082,600.75 653.245,601.912 654.329,602.997 C657.041,595.559 661.379,586.107 667.345,574.641 C678.114,553.878 691.207,543.497 706.624,543.497 C712.125,543.497 716.463,544.542 719.64,546.634 C722.816,548.726 724.404,551.593 724.404,555.234 C724.404,561.044 722.274,565.964 718.013,569.993 C713.597,574.176 708.987,576.268 704.184,576.268 C700,576.268 697.908,575.532 697.908,574.06"/>
<path class="Note" d="M697.095,776.234 C697.095,785.143 686.946,804.705 666.648,834.92 C658.59,846.929 647.008,855.722 631.9,861.3 C620.744,865.484 607.845,867.575 593.202,867.575 C588.476,867.575 584.293,866.607 580.651,864.67 C576.623,862.578 574.608,860.293 574.608,857.814 C574.608,851.383 578.056,848.168 584.951,848.168 C585.958,848.168 586.462,848.788 586.462,850.028 C586.462,851.112 585.958,852.313 584.951,853.63 C583.712,855.257 583.092,856.458 583.092,857.233 C583.092,859.557 586.578,860.719 593.551,860.719 C609.201,860.719 621.558,858.821 630.622,855.025 C640.074,851.151 649.487,841.273 658.861,825.391 L661.534,820.394 C657.041,823.803 652.586,825.507 648.17,825.507 C637.169,825.507 631.668,821.052 631.668,812.143 C631.668,802.536 638.137,792.426 651.075,781.812 C661.224,773.599 670.25,769.493 678.152,769.493 C682.104,769.493 685.396,770.539 688.03,772.631 C688.96,771.934 690.122,771.585 691.517,771.585 C695.235,771.585 697.095,773.135 697.095,776.234 M662.929,817.953 L684.893,777.396 C683.188,777.008 681.29,776.815 679.198,776.815 C671.683,776.815 664.401,781.192 657.351,789.946 C649.138,800.173 645.032,808.347 645.032,814.467 C645.032,818.496 647.705,820.51 653.051,820.51 C655.607,820.51 658.9,819.658 662.929,817.953"/>
<path class="Note" d="M625.276,566.116 C621.093,566.116 619.001,564.218 619.001,560.422 C619.001,553.992 619.969,549.266 621.906,546.244 C629.964,534.313 647.473,512.001 674.434,479.307 C686.597,464.509 702.286,457.111 721.499,457.111 C728.937,457.111 734.089,458.156 736.955,460.248 C741.371,463.502 743.579,467.415 743.579,471.986 C743.579,476.789 739.705,482.135 731.958,488.023 C724.598,493.601 717.625,496.39 711.04,496.39 C708.483,496.39 707.205,496.119 707.205,495.576 C707.205,494.802 708.445,493.988 710.924,493.136 C714.255,491.896 717.819,489.378 721.615,485.582 C725.954,481.166 728.123,477.176 728.123,473.612 C728.123,471.211 726.457,468.925 723.126,466.756 C720.182,464.897 715.417,463.967 708.832,463.967 C699.225,463.967 687.101,473.651 672.458,493.02 C662.696,505.958 654.794,517.347 648.751,527.186 C651.695,525.559 655.22,523.583 659.326,521.259 C664.362,518.392 668.701,516.959 672.342,516.959 C681.406,516.959 685.939,520.213 685.939,526.721 C685.939,533.151 682.22,540.201 674.782,547.871 C669.514,553.294 666.88,557.323 666.88,559.957 C666.88,562.669 669.514,564.025 674.782,564.025 C677.416,564.025 680.128,563.095 682.917,561.236 C685.706,559.454 687.759,558.563 689.076,558.563 C690.161,558.563 690.703,559.26 690.703,560.654 C690.703,562.901 688.534,565.264 684.195,567.743 C676.913,571.927 671.064,574.019 666.648,574.019 C658.823,574.019 654.91,569.835 654.91,561.468 C654.91,556.2 657.932,550.35 663.975,543.92 C668.391,539.194 670.599,534.507 670.599,529.859 C670.599,525.83 668.429,523.816 664.091,523.816 C662.386,523.816 656.731,525.83 647.124,529.859 C644.258,534.662 641.856,539.078 639.919,543.107 C632.559,558.446 627.678,566.116 625.276,566.116"/>
<path class="Note" d="M654.562,679.04 C658.358,679.04 660.256,681.945 660.256,687.756 C660.256,691.939 658.28,696.743 654.329,702.166 C650.843,707.047 649.1,714.6 649.1,724.827 C649.1,729.708 650.378,732.962 652.935,734.589 C654.717,735.828 658.048,736.487 662.929,736.564 C668.197,736.564 675.673,733.891 685.357,728.546 L687.217,730.405 C684.738,733.582 681.755,736.448 678.269,739.005 C673.078,742.801 667.771,744.699 662.348,744.699 C654.523,744.699 648.596,743.576 644.567,741.329 C639.532,738.54 637.014,735.054 637.014,730.87 C637.014,719.326 638.486,707.279 641.43,694.728 C642.514,690.157 644.877,685.974 648.519,682.178 C650.61,680.086 652.625,679.04 654.562,679.04"/>
<path class="Note" d="M1825.96,865.525 C1825.96,874.434 1815.81,893.997 1795.51,924.211 C1787.45,936.22 1775.87,945.013 1760.76,950.591 C1749.61,954.775 1736.71,956.867 1722.06,956.867 C1717.34,956.867 1713.15,955.898 1709.51,953.961 C1705.48,951.87 1703.47,949.584 1703.47,947.105 C1703.47,940.675 1706.92,937.459 1713.81,937.459 C1714.82,937.459 1715.32,938.079 1715.32,939.319 C1715.32,940.403 1714.82,941.604 1713.81,942.921 C1712.57,944.548 1711.95,945.749 1711.95,946.524 C1711.95,948.848 1715.44,950.01 1722.41,950.01 C1738.06,950.01 1750.42,948.112 1759.48,944.316 C1768.94,940.442 1778.35,930.564 1787.72,914.682 L1790.4,909.685 C1785.9,913.094 1781.45,914.798 1777.03,914.798 C1766.03,914.798 1760.53,910.344 1760.53,901.434 C1760.53,891.827 1767,881.717 1779.94,871.103 C1790.09,862.891 1799.11,858.785 1807.01,858.785 C1810.97,858.785 1814.26,859.831 1816.89,861.922 C1817.82,861.225 1818.98,860.876 1820.38,860.876 C1824.1,860.876 1825.96,862.426 1825.96,865.525 M1791.79,907.245 L1813.75,866.687 C1812.05,866.3 1810.15,866.106 1808.06,866.106 C1800.55,866.106 1793.26,870.483 1786.21,879.238 C1778,889.464 1773.89,897.638 1773.89,903.758 C1773.89,907.787 1776.57,909.801 1781.91,909.801 C1784.47,909.801 1787.76,908.949 1791.79,907.245"/>
<path class="Note" d="M1754.14,655.408 C1749.95,655.408 1747.86,653.51 1747.86,649.713 C1747.86,643.283 1748.83,638.557 1750.77,635.536 C1758.83,623.605 1776.33,601.292 1803.3,568.598 C1815.46,553.801 1831.15,546.402 1850.36,546.402 C1857.8,546.402 1862.95,547.448 1865.82,549.54 C1870.23,552.793 1872.44,556.706 1872.44,561.277 C1872.44,566.08 1868.57,571.426 1860.82,577.314 C1853.46,582.892 1846.49,585.681 1839.9,585.681 C1837.35,585.681 1836.07,585.41 1836.07,584.868 C1836.07,584.093 1837.31,583.279 1839.79,582.427 C1843.12,581.188 1846.68,578.67 1850.48,574.874 C1854.82,570.458 1856.99,566.468 1856.99,562.904 C1856.99,560.502 1855.32,558.217 1851.99,556.047 C1849.04,554.188 1844.28,553.258 1837.69,553.258 C1828.09,553.258 1815.96,562.943 1801.32,582.311 C1791.56,595.249 1783.66,606.638 1777.61,616.477 C1780.56,614.85 1784.08,612.875 1788.19,610.55 C1793.22,607.684 1797.56,606.251 1801.2,606.251 C1810.27,606.251 1814.8,609.504 1814.8,616.012 C1814.8,622.443 1811.08,629.493 1803.64,637.163 C1798.38,642.586 1795.74,646.614 1795.74,649.249 C1795.74,651.96 1798.38,653.316 1803.64,653.316 C1806.28,653.316 1808.99,652.386 1811.78,650.527 C1814.57,648.745 1816.62,647.854 1817.94,647.854 C1819.02,647.854 1819.57,648.551 1819.57,649.946 C1819.57,652.193 1817.4,654.556 1813.06,657.035 C1805.77,661.218 1799.93,663.31 1795.51,663.31 C1787.68,663.31 1783.77,659.126 1783.77,650.759 C1783.77,645.491 1786.79,639.642 1792.84,633.211 C1797.25,628.486 1799.46,623.798 1799.46,619.15 C1799.46,615.121 1797.29,613.107 1792.95,613.107 C1791.25,613.107 1785.59,615.121 1775.99,619.15 C1773.12,623.953 1770.72,628.369 1768.78,632.398 C1761.42,647.738 1756.54,655.408 1754.14,655.408"/>
<path class="Note" d="M1826.77,484.769 C1831.11,481.825 1834.25,479.384 1836.18,477.447 C1839.75,473.651 1841.53,470.165 1841.53,466.988 C1841.53,463.347 1839.51,461.527 1835.49,461.527 C1827.66,461.527 1819.29,468.422 1810.38,482.212 C1807.67,486.396 1801.71,500.031 1792.49,523.118 C1799.85,530.711 1803.53,535.011 1803.53,536.018 C1803.53,537.412 1802.64,538.11 1800.86,538.11 C1799.46,538.11 1795.63,535.747 1789.35,531.021 C1782.53,546.903 1772.19,560.461 1758.32,571.695 C1744.14,583.161 1727.22,588.894 1707.54,588.894 C1700.02,588.894 1690.61,587.151 1679.3,583.664 C1670.23,580.875 1665.7,576.42 1665.7,570.3 C1665.7,561.236 1669.19,556.703 1676.16,556.703 C1680.34,556.703 1682.44,558.64 1682.44,562.514 C1682.44,563.753 1681.47,565.07 1679.53,566.465 C1678.52,567.162 1678.02,568.518 1678.02,570.532 C1678.02,572.934 1680.69,575.413 1686.04,577.97 C1691.85,580.759 1700.37,582.154 1711.61,582.154 C1726.09,582.154 1740.08,575.878 1753.56,563.327 C1765.8,551.939 1774.59,538.691 1779.94,523.583 C1777.85,521.879 1775.6,520.019 1773.2,518.005 C1765.76,513.589 1762.04,509.057 1762.04,504.408 C1762.04,502.472 1763.32,501.503 1765.88,501.503 C1769.28,501.503 1773.89,504.408 1779.7,510.219 C1780.94,511.459 1782.11,512.621 1783.19,513.705 C1785.9,506.268 1790.24,496.816 1796.21,485.35 C1806.98,464.587 1820.07,454.205 1835.49,454.205 C1840.99,454.205 1845.33,455.251 1848.5,457.343 C1851.68,459.435 1853.27,462.301 1853.27,465.943 C1853.27,471.753 1851.14,476.673 1846.87,480.701 C1842.46,484.885 1837.85,486.977 1833.05,486.977 C1828.86,486.977 1826.77,486.241 1826.77,484.769"/>
<path class="Note" d="M1826.77,663.351 C1831.11,660.407 1834.25,657.967 1836.18,656.03 C1839.75,652.234 1841.53,648.748 1841.53,645.571 C1841.53,641.93 1839.51,640.109 1835.49,640.109 C1827.66,640.109 1819.29,647.004 1810.38,660.795 C1807.67,664.978 1801.71,678.614 1792.49,701.701 C1799.85,709.293 1803.53,713.593 1803.53,714.6 C1803.53,715.995 1802.64,716.692 1800.86,716.692 C1799.46,716.692 1795.63,714.329 1789.35,709.603 C1782.53,725.486 1772.19,739.043 1758.32,750.277 C1744.14,761.743 1727.22,767.476 1707.54,767.476 C1700.02,767.476 1690.61,765.733 1679.3,762.247 C1670.23,759.458 1665.7,755.003 1665.7,748.883 C1665.7,739.818 1669.19,735.286 1676.16,735.286 C1680.34,735.286 1682.44,737.223 1682.44,741.097 C1682.44,742.336 1681.47,743.653 1679.53,745.048 C1678.52,745.745 1678.02,747.101 1678.02,749.115 C1678.02,751.517 1680.69,753.996 1686.04,756.553 C1691.85,759.342 1700.37,760.736 1711.61,760.736 C1726.09,760.736 1740.08,754.461 1753.56,741.91 C1765.8,730.521 1774.59,717.273 1779.94,702.166 C1777.85,700.461 1775.6,698.602 1773.2,696.588 C1765.76,692.172 1762.04,687.639 1762.04,682.991 C1762.04,681.054 1763.32,680.086 1765.88,680.086 C1769.28,680.086 1773.89,682.991 1779.7,688.802 C1780.94,690.041 1782.11,691.203 1783.19,692.288 C1785.9,684.85 1790.24,675.399 1796.21,663.932 C1806.98,643.169 1820.07,632.788 1835.49,632.788 C1840.99,632.788 1845.33,633.834 1848.5,635.926 C1851.68,638.017 1853.27,640.884 1853.27,644.525 C1853.27,650.336 1851.14,655.255 1846.87,659.284 C1842.46,663.468 1837.85,665.559 1833.05,665.559 C1828.86,665.559 1826.77,664.823 1826.77,663.351"/>
<path class="Note" d="M2933.97,954.816 C2933.97,963.726 2923.82,983.288 2903.52,1013.5 C2895.46,1025.51 2883.88,1034.3 2868.77,1039.88 C2857.62,1044.07 2844.72,1046.16 2830.08,1046.16 C2825.35,1046.16 2821.17,1045.19 2817.53,1043.25 C2813.5,1041.16 2811.48,1038.88 2811.48,1036.4 C2811.48,1029.97 2814.93,1026.75 2821.83,1026.75 C2822.83,1026.75 2823.34,1027.37 2823.34,1028.61 C2823.34,1029.69 2822.83,1030.9 2821.83,1032.21 C2820.59,1033.84 2819.97,1035.04 2819.97,1035.82 C2819.97,1038.14 2823.45,1039.3 2830.43,1039.3 C2846.08,1039.3 2858.43,1037.4 2867.5,1033.61 C2876.95,1029.73 2886.36,1019.86 2895.74,1003.97 L2898.41,998.976 C2893.92,1002.39 2889.46,1004.09 2885.04,1004.09 C2874.04,1004.09 2868.54,999.635 2868.54,990.725 C2868.54,981.119 2875.01,971.008 2887.95,960.394 C2898.1,952.182 2907.12,948.076 2915.03,948.076 C2918.98,948.076 2922.27,949.122 2924.9,951.214 C2925.83,950.516 2927,950.168 2928.39,950.168 C2932.11,950.168 2933.97,951.717 2933.97,954.816 M2899.8,996.536 L2921.77,955.978 C2920.06,955.591 2918.16,955.397 2916.07,955.397 C2908.56,955.397 2901.28,959.775 2894.23,968.529 C2886.01,978.756 2881.91,986.929 2881.91,993.05 C2881.91,997.078 2884.58,999.093 2889.93,999.093 C2892.48,999.093 2895.77,998.24 2899.8,996.536"/>
<path class="Note" d="M2934.78,574.06 C2939.12,571.116 2942.26,568.676 2944.2,566.739 C2947.76,562.943 2949.54,559.456 2949.54,556.28 C2949.54,552.639 2947.53,550.818 2943.5,550.818 C2935.67,550.818 2927.31,557.713 2918.4,571.503 C2915.69,575.687 2909.72,589.322 2900.5,612.41 C2907.86,620.002 2911.54,624.302 2911.54,625.309 C2911.54,626.704 2910.65,627.401 2908.87,627.401 C2907.47,627.401 2903.64,625.038 2897.36,620.312 C2890.55,636.194 2880.2,649.752 2866.33,660.986 C2852.16,672.452 2835.23,678.185 2815.55,678.185 C2808.04,678.185 2798.62,676.442 2787.31,672.956 C2778.25,670.167 2773.71,665.712 2773.71,659.591 C2773.71,650.527 2777.2,645.995 2784.17,645.995 C2788.36,645.995 2790.45,647.931 2790.45,651.805 C2790.45,653.045 2789.48,654.362 2787.54,655.756 C2786.54,656.454 2786.03,657.809 2786.03,659.824 C2786.03,662.225 2788.71,664.705 2794.05,667.261 C2799.86,670.05 2808.38,671.445 2819.62,671.445 C2834.11,671.445 2848.09,665.169 2861.57,652.619 C2873.81,641.23 2882.6,627.982 2887.95,612.875 C2885.86,611.17 2883.61,609.311 2881.21,607.296 C2873.77,602.88 2870.05,598.348 2870.05,593.7 C2870.05,591.763 2871.33,590.794 2873.89,590.794 C2877.3,590.794 2881.91,593.7 2887.72,599.51 C2888.96,600.75 2890.12,601.912 2891.2,602.997 C2893.92,595.559 2898.25,586.107 2904.22,574.641 C2914.99,553.878 2928.08,543.497 2943.5,543.497 C2949,543.497 2953.34,544.542 2956.51,546.634 C2959.69,548.726 2961.28,551.593 2961.28,555.234 C2961.28,561.044 2959.15,565.964 2954.89,569.993 C2950.47,574.176 2945.86,576.268 2941.06,576.268 C2936.87,576.268 2934.78,575.532 2934.78,574.06"/>
<path class="Note" d="M2955.7,807.727 C2949.35,817.721 2939.31,826.011 2925.6,832.596 C2913.67,838.329 2902.51,841.195 2892.13,841.195 C2883.84,841.195 2876.95,839.53 2871.45,836.198 C2865.48,832.557 2862.5,828.219 2862.5,823.183 C2862.5,811.794 2865.48,801.994 2871.45,793.781 C2879.58,782.625 2887.79,777.047 2896.08,777.047 C2901.97,777.047 2906.16,778.209 2908.64,780.533 C2912.04,783.555 2913.75,787.7 2913.75,792.968 C2913.75,800.405 2908.21,806.875 2897.13,812.375 C2886.36,817.721 2878.89,821.207 2874.7,822.834 C2875.63,824.771 2876.83,826.514 2878.3,828.064 C2881.95,831.937 2886.9,833.874 2893.18,833.874 C2901.08,833.874 2911.7,830.969 2925.02,825.158 C2937.8,819.503 2948.03,813.692 2955.7,807.727 M2873.07,817.488 C2878.89,814.544 2884.19,811.097 2889,807.146 C2896.12,801.335 2899.69,795.06 2899.69,788.32 C2899.69,784.523 2897.94,782.625 2894.46,782.625 C2891.51,782.625 2887.48,785.995 2882.37,792.736 C2875.94,801.103 2872.73,807.92 2872.73,813.189 C2872.73,814.661 2872.84,816.094 2873.07,817.488"/>
<path class="Note" d="M2862.15,744.699 C2857.97,744.699 2855.88,742.801 2855.88,739.005 C2855.88,732.574 2856.84,727.848 2858.78,724.827 C2866.84,712.896 2884.35,690.584 2911.31,657.889 C2923.47,643.092 2939.16,635.693 2958.37,635.693 C2965.81,635.693 2970.96,636.739 2973.83,638.831 C2978.25,642.085 2980.45,645.997 2980.45,650.568 C2980.45,655.372 2976.58,660.717 2968.83,666.605 C2961.47,672.183 2954.5,674.973 2947.91,674.973 C2945.36,674.973 2944.08,674.701 2944.08,674.159 C2944.08,673.384 2945.32,672.571 2947.8,671.719 C2951.13,670.479 2954.69,667.961 2958.49,664.165 C2962.83,659.749 2965,655.759 2965,652.195 C2965,649.793 2963.33,647.508 2960,645.339 C2957.06,643.479 2952.29,642.55 2945.71,642.55 C2936.1,642.55 2923.98,652.234 2909.33,671.602 C2899.57,684.541 2891.67,695.929 2885.63,705.768 C2888.57,704.141 2892.09,702.166 2896.2,699.842 C2901.24,696.975 2905.58,695.542 2909.22,695.542 C2918.28,695.542 2922.81,698.796 2922.81,705.304 C2922.81,711.734 2919.09,718.784 2911.66,726.454 C2906.39,731.877 2903.75,735.906 2903.75,738.54 C2903.75,741.251 2906.39,742.607 2911.66,742.607 C2914.29,742.607 2917,741.678 2919.79,739.818 C2922.58,738.036 2924.63,737.145 2925.95,737.145 C2927.04,737.145 2927.58,737.843 2927.58,739.237 C2927.58,741.484 2925.41,743.847 2921.07,746.326 C2913.79,750.51 2907.94,752.601 2903.52,752.601 C2895.7,752.601 2891.78,748.418 2891.78,740.051 C2891.78,734.782 2894.81,728.933 2900.85,722.503 C2905.27,717.777 2907.47,713.09 2907.47,708.441 C2907.47,704.413 2905.3,702.398 2900.97,702.398 C2899.26,702.398 2893.61,704.413 2884,708.441 C2881.13,713.245 2878.73,717.661 2876.79,721.689 C2869.43,737.029 2864.55,744.699 2862.15,744.699"/>
<path class="Note" d="M3558.13,954.816 C3558.13,963.726 3547.98,983.288 3527.68,1013.5 C3519.62,1025.51 3508.04,1034.3 3492.93,1039.88 C3481.78,1044.07 3468.88,1046.16 3454.24,1046.16 C3449.51,1046.16 3445.33,1045.19 3441.69,1043.25 C3437.66,1041.16 3435.64,1038.88 3435.64,1036.4 C3435.64,1029.97 3439.09,1026.75 3445.99,1026.75 C3446.99,1026.75 3447.5,1027.37 3447.5,1028.61 C3447.5,1029.69 3446.99,1030.9 3445.99,1032.21 C3444.75,1033.84 3444.13,1035.04 3444.13,1035.82 C3444.13,1038.14 3447.61,1039.3 3454.58,1039.3 C3470.23,1039.3 3482.59,1037.4 3491.66,1033.61 C3501.11,1029.73 3510.52,1019.86 3519.9,1003.97 L3522.57,998.976 C3518.07,1002.39 3513.62,1004.09 3509.2,1004.09 C3498.2,1004.09 3492.7,999.635 3492.7,990.725 C3492.7,981.119 3499.17,971.008 3512.11,960.394 C3522.26,952.182 3531.28,948.076 3539.19,948.076 C3543.14,948.076 3546.43,949.122 3549.06,951.214 C3549.99,950.516 3551.16,950.168 3552.55,950.168 C3556.27,950.168 3558.13,951.717 3558.13,954.816 M3523.96,996.536 L3545.93,955.978 C3544.22,955.591 3542.32,955.397 3540.23,955.397 C3532.72,955.397 3525.43,959.775 3518.38,968.529 C3510.17,978.756 3506.07,986.929 3506.07,993.05 C3506.07,997.078 3508.74,999.093 3514.08,999.093 C3516.64,999.093 3519.93,998.24 3523.96,996.536"/>
<path class="Note" d="M3579.86,897.018 C3573.51,907.012 3563.47,915.302 3549.76,921.887 C3537.83,927.62 3526.67,930.487 3516.29,930.487 C3508,930.487 3501.11,928.821 3495.61,925.49 C3489.64,921.848 3486.66,917.51 3486.66,912.474 C3486.66,901.085 3489.64,891.285 3495.61,883.073 C3503.74,871.917 3511.95,866.338 3520.24,866.338 C3526.13,866.338 3530.32,867.5 3532.79,869.825 C3536.2,872.846 3537.91,876.991 3537.91,882.259 C3537.91,889.697 3532.37,896.166 3521.29,901.667 C3510.52,907.012 3503.04,910.499 3498.86,912.125 C3499.79,914.062 3500.99,915.806 3502.46,917.355 C3506.1,921.229 3511.06,923.166 3517.34,923.166 C3525.24,923.166 3535.85,920.26 3549.18,914.45 C3561.96,908.794 3572.19,902.984 3579.86,897.018 M3497.23,906.78 C3503.04,903.836 3508.35,900.388 3513.16,896.437 C3520.28,890.626 3523.85,884.351 3523.85,877.611 C3523.85,873.815 3522.1,871.917 3518.62,871.917 C3515.67,871.917 3511.64,875.287 3506.53,882.027 C3500.1,890.394 3496.89,897.212 3496.89,902.48 C3496.89,903.952 3497,905.385 3497.23,906.78"/>
<path class="Note" d="M3558.94,574.06 C3563.28,571.116 3566.42,568.676 3568.36,566.739 C3571.92,562.943 3573.7,559.456 3573.7,556.28 C3573.7,552.639 3571.69,550.818 3567.66,550.818 C3559.83,550.818 3551.47,557.713 3542.56,571.503 C3539.84,575.687 3533.88,589.322 3524.66,612.41 C3532.02,620.002 3535.7,624.302 3535.7,625.309 C3535.7,626.704 3534.81,627.401 3533.03,627.401 C3531.63,627.401 3527.8,625.038 3521.52,620.312 C3514.7,636.194 3504.36,649.752 3490.49,660.986 C3476.32,672.452 3459.39,678.185 3439.71,678.185 C3432.19,678.185 3422.78,676.442 3411.47,672.956 C3402.41,670.167 3397.87,665.712 3397.87,659.591 C3397.87,650.527 3401.36,645.995 3408.33,645.995 C3412.52,645.995 3414.61,647.931 3414.61,651.805 C3414.61,653.045 3413.64,654.362 3411.7,655.756 C3410.7,656.454 3410.19,657.809 3410.19,659.824 C3410.19,662.225 3412.87,664.705 3418.21,667.261 C3424.02,670.05 3432.54,671.445 3443.78,671.445 C3458.26,671.445 3472.25,665.169 3485.73,652.619 C3497.97,641.23 3506.76,627.982 3512.11,612.875 C3510.02,611.17 3507.77,609.311 3505.37,607.296 C3497.93,602.88 3494.21,598.348 3494.21,593.7 C3494.21,591.763 3495.49,590.794 3498.05,590.794 C3501.46,590.794 3506.07,593.7 3511.88,599.51 C3513.12,600.75 3514.28,601.912 3515.36,602.997 C3518.07,595.559 3522.41,586.107 3528.38,574.641 C3539.15,553.878 3552.24,543.497 3567.66,543.497 C3573.16,543.497 3577.5,544.542 3580.67,546.634 C3583.85,548.726 3585.44,551.593 3585.44,555.234 C3585.44,561.044 3583.31,565.964 3579.05,569.993 C3574.63,574.176 3570.02,576.268 3565.22,576.268 C3561.03,576.268 3558.94,575.532 3558.94,574.06"/>
<path class="Note" d="M3579.86,807.727 C3573.51,817.721 3563.47,826.011 3549.76,832.596 C3537.83,838.329 3526.67,841.195 3516.29,841.195 C3508,841.195 3501.11,839.53 3495.61,836.198 C3489.64,832.557 3486.66,828.219 3486.66,823.183 C3486.66,811.794 3489.64,801.994 3495.61,793.781 C3503.74,782.625 3511.95,777.047 3520.24,777.047 C3526.13,777.047 3530.32,778.209 3532.79,780.533 C3536.2,783.555 3537.91,787.7 3537.91,792.968 C3537.91,800.405 3532.37,806.875 3521.29,812.375 C3510.52,817.721 3503.04,821.207 3498.86,822.834 C3499.79,824.771 3500.99,826.514 3502.46,828.064 C3506.1,831.937 3511.06,833.874 3517.34,833.874 C3525.24,833.874 3535.85,830.969 3549.18,825.158 C3561.96,819.503 3572.19,813.692 3579.86,807.727 M3497.23,817.488 C3503.04,814.544 3508.35,811.097 3513.16,807.146 C3520.28,801.335 3523.85,795.06 3523.85,788.32 C3523.85,784.523 3522.1,782.625 3518.62,782.625 C3515.67,782.625 3511.64,785.995 3506.53,792.736 C3500.1,801.103 3496.89,807.92 3496.89,813.189 C3496.89,814.661 3497,816.094 3497.23,817.488"/>
<path class="Clef" transform="matrix(2.3811,0,0,2.3811,203.482,2260.29)" d="M25.4,-25.1 C17.8,-25.1 11.7,-20.7 11.6,-20.7 C5.8,-16.4 3.5,-11.3 2.6,-7.8 C2.1,-6 1.9,-4.2 1.9,-2.5 C1.9,-0.1 2.3,2.1 3.2,4 C4.4,6.7 6.7,8.6 9.7,9.6 C10.9,10 12.2,10.2 13.5,10.2 C15.7,10.2 18,9.6 19.9,8.5 C23,6.8 24.9,3.2 24.9,-0.7 C24.9,-4.2 23.1,-7.4 20.1,-9.3 C18,-10.7 16,-11.1 14.3,-11.1 C13.1,-11.1 12,-10.9 11.1,-10.6 C10.1,-10.2 8.4,-9.2 7.6,-8.5 C7.9,-10.4 9.1,-13.3 10.2,-14.9 C11.3,-16.5 13.5,-18.5 15.2,-19.4 C17.7,-20.8 20.9,-21.4 24.4,-21.4 C34.6,-21.4 39.6,-13.2 39.6,3.6 C39.6,12.9 36.1,21.8 33.1,27.7 C29.8,34.3 25.4,40.6 21.5,44.1 C11.1,53.6 1.3,58.1 1.2,58.1 C1.2,58.1 -0.3,59 0.1,60.5 C0.4,61.5 1.3,61.7 1.9,61.7 C2,61.7 2.3,61.6 2.4,61.6 C2.5,61.6 13.9,56.9 23,49.8 C28.1,46.1 32.7,42.1 36.7,37.8 C40.3,33.9 43.4,29.7 45.9,25.5 C50.3,18 52.8,10.2 52.8,3.5 C52.8,-4.8 50.6,-11.7 46.5,-16.6 C41.8,-22.2 34.7,-25.1 25.4,-25.1 M56.8,-12.4 C56.8,-9.6 59,-7.4 61.6,-7.4 C64.2,-7.4 66.4,-9.6 66.4,-12.4 C66.4,-15.2 64.2,-17.5 61.6,-17.5 C59,-17.5 56.8,-15.2 56.8,-12.4 M56.8,12.3 C56.8,15.1 59,17.4 61.6,17.4 C64.2,17.4 66.4,15.1 66.4,12.3 C66.4,9.5 64.2,7.2 61.6,7.2 C59,7.2 56.8,9.5 56.8,12.3"/>
<path class="Clef" transform="matrix(2.3811,0,0,2.3811,203.482,1583.27)" d="M63.37,-5.89004 C62.14,-11.32 59.5,-15.14 58.72,-16.1801 C55.5301,-20.45 51.52,-23.3 46.8301,-24.65 C43.72,-25.54 40.72,-25.65 38.3,-25.47 C37.2601,-31.4801 36.2601,-37.3601 35.35,-42.8101 C40.79,-48.97 44.42,-54.77 46.69,-59.07 C50.1601,-65.65 51.3101,-70.2301 51.3601,-70.4301 C53.0801,-75.64 53.44,-83.34 52.34,-91.55 C51.3301,-99.1 49.24,-105.81 46.89,-109.06 C45.8601,-110.49 44.8101,-111.22 43.77,-111.22 C42.55,-111.22 40.04,-109.98 37.15,-107.21 C34.85,-105.01 31.5801,-101.12 29.02,-95.1101 C26.02,-88.05 25.8101,-78.5601 26.1601,-71.84 C26.54,-64.57 27.65,-58.8801 27.6601,-58.8301 C27.6801,-58.74 27.94,-57.24 28.39,-54.67 C28.1601,-54.44 27.92,-54.22 27.67,-53.9801 C26.6301,-52.9801 25.44,-51.84 24.0601,-50.4601 C23.2,-49.6 22.25,-48.69 21.25,-47.72 C12.79,-39.57 0,-27.25 0,-8.1 C0,-3.4 0.9,1.01992 2.68008,5.02998 C4.27002,8.62998 6.57002,11.91 9.5,14.78 C17.2301,22.33 27.82,25.5399 34.8801,25.38 C37.8301,25.31 40.4601,25.0699 42.85,24.6199 C44.6801,34.2199 45.82,41.25 45.8601,46.5899 C45.9,53.1 44.25,57.0699 40.35,59.8399 C37.92,61.5699 35.1101,62.5199 32.0101,62.6699 C29.42,62.7899 27.1601,62.3199 25.7301,61.91 L25.72,61.91 C25.72,61.91 25.4301,61.83 25.42,61.63 C25.4101,61.45 25.7601,61.4 25.77,61.4 L25.79,61.4 C27.7101,60.96 31.2801,59.73 33.64,56.43 C35.44,53.91 36.3101,49.2899 34.47,45.35 C33.3601,42.96 30.85,40.01 25.2301,39.56 C22.74,39.36 20.47,39.8699 18.47,41.0699 C16.6601,42.15 15.1601,43.7899 14.1101,45.7899 C11.65,50.4899 12.1101,56.2199 15.24,60.06 C18.2,63.68 22.82,65.9899 28.25,66.5699 C29.1,66.66 29.95,66.7 30.8,66.7 C31.5101,66.7 32.22,66.6699 32.92,66.61 C31.72,66.9399 30.64,67.4899 29.77,68.25 C28.2801,69.5399 27.44,71.38 27.44,73.41 C27.44,75.28 28.0601,76.65 29.55,78.0399 C28.4101,78.5 27.55,78.98 26.79,79.56 C25.25,80.73 24.34,82.46 24.34,84.1899 C24.34,87.45 27.3,89.63 31.72,89.63 C37.1301,89.63 40.9101,86.63 40.9101,82.35 C40.9101,80.1199 39.9101,78.18 38.0801,76.83 C41.0101,75.6199 42.37,73.9399 42.37,71.56 C42.39,70.05 41.69,68.61 40.49,67.6899 C39.2801,66.7399 37.62,66.2399 35.69,66.2399 L35.5101,66.2399 C38.2801,65.7 40.92,64.7 43.2101,63.28 C46.87,60.71 48.99,56.73 49.67,51.1 C50.2301,46.46 49.84,40.55 48.44,32.48 C48.0801,30.3899 47.54,27.36 46.8801,23.6 C52.6301,21.68 56.79,18.11 60.5601,12.26 C63.85,6.51992 64.8,0.419922 63.37,-5.89004 M32.39,87.5399 C30.19,87.5399 28.7301,86.1199 28.7301,84.01 C28.7301,82.11 29.65,80.5 31.32,79.4699 C31.6801,79.66 31.77,79.71 32.1101,79.88 C33.3,80.48 33.3,80.48 33.55,80.63 L33.5601,80.6399 C35.47,81.73 36.25,82.76 36.25,84.18 C36.24,86.0899 34.59,87.5399 32.39,87.5399 M38.3101,71.63 C38.3101,73.2699 37.7301,74.3399 36.1801,75.53 C34.74,74.78 34.35,74.56 33.9801,74.3399 L33.8801,74.28 C32.3301,73.3399 31.85,72.66 31.85,71.4 C31.85,69.6 33.2301,68.3399 35.19,68.3399 C37.17,68.35 38.3101,69.55 38.3101,71.63 M33.15,-83.8101 C34.9301,-89.55 37.67,-92.8 39.6601,-94.5301 C41.4101,-96.05 43.0601,-96.7601 43.9801,-96.7601 C44.12,-96.7601 44.24,-96.74 44.34,-96.7101 C44.8,-96.57 45.3301,-96 45.8,-95.1301 C48.1101,-90.84 47.37,-84.1301 46.0301,-79.69 C44.4,-74.29 41.4801,-68.6801 32.69,-59.0601 C32.52,-60.17 32.3601,-61.22 32.2101,-62.2 C30.95,-70.49 31.27,-77.7601 33.15,-83.8101 M29.15,20.31 C24.5101,19.0899 20.0801,16.5899 16.32,13.0899 C15.0101,11.86 13.14,9.68994 11.67,6.3 C10.3101,3.13994 9.65,-0.290039 9.7,-3.88008 C9.77002,-8.57002 11.0801,-13.39 13.59,-18.1801 C16.5101,-23.7601 21.07,-29.29 27.1301,-34.62 C28.5801,-35.9 29.95,-37.1801 31.24,-38.4601 C32,-34.2 32.8301,-29.5101 33.7101,-24.6301 C29.8601,-23.3601 25.1101,-20.2101 22,-14.5601 C18.47,-7.99004 18.6101,-2.47002 19.34,1.00996 C20.2801,5.46992 22.8101,9.22998 26.27,11.3199 C27.2,11.88 31.3301,14.01 33.17,13.43 C33.54,13.31 33.8101,13.0899 33.95,12.76 C34.4601,11.5899 33.44,10.95 31.8801,9.98994 C31.2801,9.61992 30.6101,9.2 29.8801,8.66992 C26.5601,6.17998 25.1101,1.72998 26.1801,-2.65 C26.7601,-5.05 28.04,-7.21006 29.8801,-8.91006 C31.55,-10.4601 33.59,-11.5601 35.97,-12.2 C38.0101,-0.960059 40.07,10.1899 41.7101,18.55 C41.84,19.2399 41.9801,19.91 42.1101,20.58 C37.7101,21.51 33.37,21.4199 29.15,20.31 M54.9,10.1 C53.7301,13.28 51.27,17.35 46.14,19.41 C46.07,18.9899 45.99,18.56 45.9101,18.13 C44.3601,9.36992 42.4301,-1.61006 40.47,-12.87 C50.82,-13.35 55.09,-5.91006 55.9801,-1.08008 C56.45,1.45 56.45,5.88994 54.9,10.1"/>
<path class="FiguredBass" d="M651.403,2574.05 C646.826,2574.05 643.78,2575.89 642.265,2579.57 C640.749,2583.25 639.992,2588.47 639.992,2595.21 L639.992,2606.15 C643.208,2604.86 645.991,2604.18 648.341,2604.11 C656.382,2604.11 662.706,2605.89 667.314,2609.45 C671.921,2613 674.225,2618.29 674.225,2625.31 C674.225,2632.33 671.89,2637.64 667.221,2641.22 C662.551,2644.81 656.258,2646.6 648.341,2646.6 C640.239,2646.6 633.9,2642.85 629.323,2635.33 C624.746,2627.82 622.458,2618.9 622.458,2608.57 C622.458,2598.3 625.117,2589.39 630.436,2581.85 C635.755,2574.3 642.744,2570.53 651.403,2570.53 C657.093,2570.53 662.01,2571.97 666.154,2574.84 C670.298,2577.72 672.37,2581.51 672.37,2586.21 C672.37,2588.93 671.38,2591.28 669.401,2593.26 C667.422,2595.24 665.056,2596.23 662.304,2596.23 C659.552,2596.23 657.186,2595.24 655.207,2593.26 C653.228,2591.28 652.238,2588.93 652.238,2586.21 C652.238,2583.55 653.228,2581.2 655.207,2579.16 C655.887,2578.35 656.846,2577.67 658.083,2577.12 C657.773,2576.31 657.155,2575.69 656.227,2575.26 C654.867,2574.46 653.258,2574.05 651.403,2574.05 M655.949,2612 C654.836,2609.09 652.393,2607.64 648.62,2607.64 C644.847,2607.64 642.512,2609.09 641.615,2612 C640.719,2614.91 640.27,2619.33 640.27,2625.27 C640.27,2632.25 640.719,2636.96 641.615,2639.37 C642.512,2641.78 644.847,2642.99 648.62,2642.99 C652.393,2642.99 654.836,2641.53 655.949,2638.63 C657.062,2635.72 657.619,2631.28 657.619,2625.31 C657.619,2619.34 657.062,2614.91 655.949,2612"/>
<path class="FiguredBass" d="M628.766,2676.28 L633.219,2676.93 C634.395,2677.11 635.848,2677.3 637.58,2677.49 C641.847,2677.98 645.96,2678.23 649.919,2678.23 C653.877,2678.23 658.052,2677.98 662.443,2677.49 C664.175,2677.3 665.69,2677.11 666.989,2676.93 L671.535,2676.28 C672.463,2676.28 673.174,2676.59 673.669,2677.21 C674.04,2677.7 673.978,2678.2 673.483,2678.69 C663.835,2688.15 650.506,2692.89 633.498,2692.89 C632.817,2692.89 632.214,2693.13 631.689,2693.63 C631.163,2694.12 630.9,2694.74 630.9,2695.48 L630.9,2707.27 C635.291,2702.94 640.61,2700.77 646.857,2700.77 C655.578,2700.77 662.381,2702.81 667.267,2706.89 C672.586,2702.87 675.369,2697.74 675.617,2691.49 C675.679,2689.52 676.328,2687.91 677.565,2686.67 C678.926,2685.43 680.565,2684.81 682.482,2684.81 C684.399,2684.81 686.023,2685.46 687.353,2686.76 C688.682,2688.06 689.347,2689.64 689.347,2691.49 C689.347,2701.08 683.688,2708.35 672.37,2713.3 C674.225,2716.95 675.153,2721.4 675.153,2726.66 C675.153,2733.64 672.37,2739.67 666.803,2744.75 C661.237,2749.82 654.588,2752.35 646.857,2752.35 C640.177,2752.35 634.379,2750.84 629.462,2747.81 C624.545,2744.78 622.087,2740.57 622.087,2735.19 C622.087,2732.47 623.076,2730.1 625.055,2728.09 C627.034,2726.08 629.4,2725.08 632.152,2725.08 C634.905,2725.08 637.24,2726.07 639.157,2728.05 C641.074,2730.03 642.033,2732.41 642.033,2735.19 C642.033,2736.43 641.012,2737.77 638.971,2739.23 C636.93,2740.68 635.91,2742.02 635.91,2743.26 C635.91,2746.97 639.559,2748.83 646.857,2748.83 C653.97,2748.83 657.526,2741.44 657.526,2726.66 C657.526,2723.38 657.34,2720.5 656.969,2718.03 C649.486,2719.57 640.116,2720.78 628.859,2721.65 C627.313,2721.77 626.54,2721 626.54,2719.33 C626.54,2717.97 627.313,2717.22 628.859,2717.1 C640.239,2716.17 649.207,2714.69 655.763,2712.65 C654.032,2707.7 651.063,2705.19 646.857,2705.13 C640.487,2705.13 636.034,2706.43 633.498,2709.03 C630.962,2711.63 629.385,2712.92 628.766,2712.92 C627.282,2712.92 626.54,2712.15 626.54,2710.61 L626.54,2678.69 C626.54,2678.07 626.756,2677.52 627.189,2677.02 C627.684,2676.53 628.21,2676.28 628.766,2676.28"/>
<path class="FiguredBass" d="M1780.26,2574.05 C1775.69,2574.05 1772.64,2575.89 1771.13,2579.57 C1769.61,2583.25 1768.85,2588.47 1768.85,2595.21 L1768.85,2606.15 C1772.07,2604.86 1774.85,2604.18 1777.2,2604.11 C1785.24,2604.11 1791.57,2605.89 1796.18,2609.45 C1800.78,2613 1803.09,2618.29 1803.09,2625.31 C1803.09,2632.33 1800.75,2637.64 1796.08,2641.22 C1791.41,2644.81 1785.12,2646.6 1777.2,2646.6 C1769.1,2646.6 1762.76,2642.85 1758.18,2635.33 C1753.61,2627.82 1751.32,2618.9 1751.32,2608.57 C1751.32,2598.3 1753.98,2589.39 1759.3,2581.85 C1764.62,2574.3 1771.61,2570.53 1780.26,2570.53 C1785.96,2570.53 1790.87,2571.97 1795.02,2574.84 C1799.16,2577.72 1801.23,2581.51 1801.23,2586.21 C1801.23,2588.93 1800.24,2591.28 1798.26,2593.26 C1796.28,2595.24 1793.92,2596.23 1791.17,2596.23 C1788.41,2596.23 1786.05,2595.24 1784.07,2593.26 C1782.09,2591.28 1781.1,2588.93 1781.1,2586.21 C1781.1,2583.55 1782.09,2581.2 1784.07,2579.16 C1784.75,2578.35 1785.71,2577.67 1786.94,2577.12 C1786.64,2576.31 1786.02,2575.69 1785.09,2575.26 C1783.73,2574.46 1782.12,2574.05 1780.26,2574.05 M1784.81,2612 C1783.7,2609.09 1781.25,2607.64 1777.48,2607.64 C1773.71,2607.64 1771.37,2609.09 1770.48,2612 C1769.58,2614.91 1769.13,2619.33 1769.13,2625.27 C1769.13,2632.25 1769.58,2636.96 1770.48,2639.37 C1771.37,2641.78 1773.71,2642.99 1777.48,2642.99 C1781.25,2642.99 1783.7,2641.53 1784.81,2638.63 C1785.92,2635.72 1786.48,2631.28 1786.48,2625.31 C1786.48,2619.34 1785.92,2614.91 1784.81,2612"/>
<path class="FiguredBass" d="M1757.63,2676.28 L1762.08,2676.93 C1763.26,2677.11 1764.71,2677.3 1766.44,2677.49 C1770.71,2677.98 1774.82,2678.23 1778.78,2678.23 C1782.74,2678.23 1786.91,2677.98 1791.3,2677.49 C1793.04,2677.3 1794.55,2677.11 1795.85,2676.93 L1800.4,2676.28 C1801.32,2676.28 1802.04,2676.59 1802.53,2677.21 C1802.9,2677.7 1802.84,2678.2 1802.35,2678.69 C1792.7,2688.15 1779.37,2692.89 1762.36,2692.89 C1761.68,2692.89 1761.08,2693.13 1760.55,2693.63 C1760.02,2694.12 1759.76,2694.74 1759.76,2695.48 L1759.76,2707.27 C1764.15,2702.94 1769.47,2700.77 1775.72,2700.77 C1784.44,2700.77 1791.24,2702.81 1796.13,2706.89 C1801.45,2702.87 1804.23,2697.74 1804.48,2691.49 C1804.54,2689.52 1805.19,2687.91 1806.43,2686.67 C1807.79,2685.43 1809.43,2684.81 1811.34,2684.81 C1813.26,2684.81 1814.88,2685.46 1816.21,2686.76 C1817.54,2688.06 1818.21,2689.64 1818.21,2691.49 C1818.21,2701.08 1812.55,2708.35 1801.23,2713.3 C1803.09,2716.95 1804.01,2721.4 1804.01,2726.66 C1804.01,2733.64 1801.23,2739.67 1795.67,2744.75 C1790.1,2749.82 1783.45,2752.35 1775.72,2752.35 C1769.04,2752.35 1763.24,2750.84 1758.32,2747.81 C1753.41,2744.78 1750.95,2740.57 1750.95,2735.19 C1750.95,2732.47 1751.94,2730.1 1753.92,2728.09 C1755.9,2726.08 1758.26,2725.08 1761.01,2725.08 C1763.77,2725.08 1766.1,2726.07 1768.02,2728.05 C1769.94,2730.03 1770.89,2732.41 1770.89,2735.19 C1770.89,2736.43 1769.87,2737.77 1767.83,2739.23 C1765.79,2740.68 1764.77,2742.02 1764.77,2743.26 C1764.77,2746.97 1768.42,2748.83 1775.72,2748.83 C1782.83,2748.83 1786.39,2741.44 1786.39,2726.66 C1786.39,2723.38 1786.2,2720.5 1785.83,2718.03 C1778.35,2719.57 1768.98,2720.78 1757.72,2721.65 C1756.17,2721.77 1755.4,2721 1755.4,2719.33 C1755.4,2717.97 1756.17,2717.22 1757.72,2717.1 C1769.1,2716.17 1778.07,2714.69 1784.63,2712.65 C1782.89,2707.7 1779.92,2705.19 1775.72,2705.13 C1769.35,2705.13 1764.9,2706.43 1762.36,2709.03 C1759.82,2711.63 1758.25,2712.92 1757.63,2712.92 C1756.14,2712.92 1755.4,2712.15 1755.4,2710.61 L1755.4,2678.69 C1755.4,2678.07 1755.62,2677.52 1756.05,2677.02 C1756.55,2676.53 1757.07,2676.28 1757.63,2676.28"/>
<path class="FiguredBass" d="M2888.28,2574.05 C2883.7,2574.05 2880.65,2575.89 2879.14,2579.57 C2877.62,2583.25 2876.87,2588.47 2876.87,2595.21 L2876.87,2606.15 C2880.08,2604.86 2882.87,2604.18 2885.22,2604.11 C2893.26,2604.11 2899.58,2605.89 2904.19,2609.45 C2908.8,2613 2911.1,2618.29 2911.1,2625.31 C2911.1,2632.33 2908.76,2637.64 2904.1,2641.22 C2899.43,2644.81 2893.13,2646.6 2885.22,2646.6 C2877.11,2646.6 2870.77,2642.85 2866.2,2635.33 C2861.62,2627.82 2859.33,2618.9 2859.33,2608.57 C2859.33,2598.3 2861.99,2589.39 2867.31,2581.85 C2872.63,2574.3 2879.62,2570.53 2888.28,2570.53 C2893.97,2570.53 2898.88,2571.97 2903.03,2574.84 C2907.17,2577.72 2909.24,2581.51 2909.24,2586.21 C2909.24,2588.93 2908.25,2591.28 2906.28,2593.26 C2904.3,2595.24 2901.93,2596.23 2899.18,2596.23 C2896.43,2596.23 2894.06,2595.24 2892.08,2593.26 C2890.1,2591.28 2889.11,2588.93 2889.11,2586.21 C2889.11,2583.55 2890.1,2581.2 2892.08,2579.16 C2892.76,2578.35 2893.72,2577.67 2894.96,2577.12 C2894.65,2576.31 2894.03,2575.69 2893.1,2575.26 C2891.74,2574.46 2890.13,2574.05 2888.28,2574.05 M2892.82,2612 C2891.71,2609.09 2889.27,2607.64 2885.49,2607.64 C2881.72,2607.64 2879.39,2609.09 2878.49,2612 C2877.59,2614.91 2877.14,2619.33 2877.14,2625.27 C2877.14,2632.25 2877.59,2636.96 2878.49,2639.37 C2879.39,2641.78 2881.72,2642.99 2885.49,2642.99 C2889.27,2642.99 2891.71,2641.53 2892.82,2638.63 C2893.94,2635.72 2894.49,2631.28 2894.49,2625.31 C2894.49,2619.34 2893.94,2614.91 2892.82,2612"/>
<path class="FiguredBass" d="M2865.64,2676.28 L2870.09,2676.93 C2871.27,2677.11 2872.72,2677.3 2874.45,2677.49 C2878.72,2677.98 2882.83,2678.23 2886.79,2678.23 C2890.75,2678.23 2894.93,2677.98 2899.32,2677.49 C2901.05,2677.3 2902.56,2677.11 2903.86,2676.93 L2908.41,2676.28 C2909.34,2676.28 2910.05,2676.59 2910.54,2677.21 C2910.91,2677.7 2910.85,2678.2 2910.36,2678.69 C2900.71,2688.15 2887.38,2692.89 2870.37,2692.89 C2869.69,2692.89 2869.09,2693.13 2868.56,2693.63 C2868.04,2694.12 2867.77,2694.74 2867.77,2695.48 L2867.77,2707.27 C2872.17,2702.94 2877.48,2700.77 2883.73,2700.77 C2892.45,2700.77 2899.26,2702.81 2904.14,2706.89 C2909.46,2702.87 2912.24,2697.74 2912.49,2691.49 C2912.55,2689.52 2913.2,2687.91 2914.44,2686.67 C2915.8,2685.43 2917.44,2684.81 2919.36,2684.81 C2921.27,2684.81 2922.9,2685.46 2924.23,2686.76 C2925.56,2688.06 2926.22,2689.64 2926.22,2691.49 C2926.22,2701.08 2920.56,2708.35 2909.24,2713.3 C2911.1,2716.95 2912.03,2721.4 2912.03,2726.66 C2912.03,2733.64 2909.24,2739.67 2903.68,2744.75 C2898.11,2749.82 2891.46,2752.35 2883.73,2752.35 C2877.05,2752.35 2871.25,2750.84 2866.34,2747.81 C2861.42,2744.78 2858.96,2740.57 2858.96,2735.19 C2858.96,2732.47 2859.95,2730.1 2861.93,2728.09 C2863.91,2726.08 2866.27,2725.08 2869.03,2725.08 C2871.78,2725.08 2874.11,2726.07 2876.03,2728.05 C2877.95,2730.03 2878.91,2732.41 2878.91,2735.19 C2878.91,2736.43 2877.89,2737.77 2875.85,2739.23 C2873.8,2740.68 2872.78,2742.02 2872.78,2743.26 C2872.78,2746.97 2876.43,2748.83 2883.73,2748.83 C2890.84,2748.83 2894.4,2741.44 2894.4,2726.66 C2894.4,2723.38 2894.21,2720.5 2893.84,2718.03 C2886.36,2719.57 2876.99,2720.78 2865.73,2721.65 C2864.19,2721.77 2863.41,2721 2863.41,2719.33 C2863.41,2717.97 2864.19,2717.22 2865.73,2717.1 C2877.11,2716.17 2886.08,2714.69 2892.64,2712.65 C2890.91,2707.7 2887.94,2705.19 2883.73,2705.13 C2877.36,2705.13 2872.91,2706.43 2870.37,2709.03 C2867.84,2711.63 2866.26,2712.92 2865.64,2712.92 C2864.16,2712.92 2863.41,2712.15 2863.41,2710.61 L2863.41,2678.69 C2863.41,2678.07 2863.63,2677.52 2864.06,2677.02 C2864.56,2676.53 2865.08,2676.28 2865.64,2676.28"/>
<path class="FiguredBass" d="M628.766,1774.45 C628.766,1774.45 630.251,1774.67 633.219,1775.1 C634.518,1775.29 635.972,1775.48 637.58,1775.66 C641.847,1776.16 645.96,1776.4 649.919,1776.4 C653.877,1776.4 658.052,1776.16 662.443,1775.66 C664.175,1775.48 665.69,1775.29 666.989,1775.1 L671.535,1774.45 C672.463,1774.45 673.158,1774.76 673.622,1775.38 C674.086,1776 674.04,1776.5 673.483,1776.87 C664.02,1786.33 650.692,1791.06 633.498,1791.06 C632.817,1791.06 632.214,1791.31 631.689,1791.8 C631.163,1792.3 630.9,1792.92 630.9,1793.66 L630.9,1808.22 C635.291,1803.89 640.61,1801.73 646.857,1801.73 C655.887,1801.73 662.86,1803.76 667.777,1807.81 C672.694,1811.86 675.153,1818 675.153,1826.22 C675.153,1833.21 672.37,1839.01 666.803,1843.62 C661.237,1848.23 654.588,1850.53 646.857,1850.53 C640.177,1850.53 634.379,1849.01 629.462,1845.98 C624.545,1842.95 622.087,1838.75 622.087,1833.37 C622.087,1830.64 623.076,1828.28 625.055,1826.27 C627.034,1824.26 629.4,1823.25 632.152,1823.25 C634.905,1823.25 637.24,1824.24 639.157,1826.22 C641.074,1828.2 642.033,1830.58 642.033,1833.37 C642.033,1834.6 641.012,1835.95 638.971,1837.4 C636.93,1838.85 635.91,1840.2 635.91,1841.44 C635.91,1845.15 639.559,1847 646.857,1847 C653.97,1847 657.526,1840.08 657.526,1826.22 C657.526,1812.86 653.97,1806.15 646.857,1806.09 C640.487,1806.09 636.034,1807.39 633.498,1809.99 C630.962,1812.58 629.385,1813.88 628.766,1813.88 C627.22,1813.88 626.478,1813.11 626.54,1811.56 L626.54,1776.87 C626.54,1776.19 626.756,1775.61 627.189,1775.15 C627.622,1774.69 628.148,1774.45 628.766,1774.45"/>
<path class="FiguredBass" d="M663.278,1915.92 C663.278,1916.91 663.835,1917.87 664.948,1918.8 C666.061,1919.73 667.283,1920.61 668.612,1921.44 C669.942,1922.28 671.164,1923.85 672.277,1926.17 C673.39,1928.49 673.947,1931.42 673.947,1934.94 C673.947,1941.74 671.38,1947 666.247,1950.71 C661.113,1954.42 654.619,1956.28 646.764,1956.28 C640.456,1956.28 634.967,1954.7 630.297,1951.55 C625.627,1948.39 623.293,1944.25 623.293,1939.12 C623.293,1936.39 624.282,1934.03 626.261,1932.02 C628.241,1930.01 630.606,1929 633.359,1929 C636.111,1929 638.446,1929.99 640.363,1931.97 C642.28,1933.95 643.239,1936.33 643.239,1939.12 C643.239,1940.35 642.218,1941.7 640.177,1943.15 C638.136,1944.6 637.116,1945.95 637.116,1947.19 C637.116,1949.1 638.059,1950.51 639.945,1951.41 C641.832,1952.31 644.105,1952.75 646.764,1952.75 C650.228,1952.75 652.686,1951.04 654.14,1947.6 C655.593,1944.17 656.32,1939.95 656.32,1934.94 L656.32,1932.53 C656.32,1929.19 656.212,1926.65 655.995,1924.92 C655.779,1923.19 655.098,1921.64 653.954,1920.28 C652.81,1918.92 651.063,1918.24 648.713,1918.24 L636.559,1918.24 C635.137,1918.24 634.425,1917.47 634.425,1915.92 C634.425,1914.5 635.137,1913.79 636.559,1913.79 L648.713,1913.79 C651.248,1913.79 653.228,1912.83 654.65,1910.91 C655.145,1910.23 655.547,1909.12 655.856,1907.57 C656.165,1905.53 656.32,1902.59 656.32,1898.76 L656.32,1897.55 C656.32,1888.34 652.918,1883.73 646.115,1883.73 C640.116,1883.73 637.116,1885.4 637.116,1888.74 C637.116,1889.85 638.028,1891.04 639.853,1892.31 C641.677,1893.58 642.589,1894.77 642.589,1895.88 C642.589,1898.3 641.739,1900.37 640.038,1902.1 C638.337,1903.83 636.265,1904.7 633.822,1904.7 C631.379,1904.7 629.323,1903.83 627.653,1902.1 C625.983,1900.37 625.148,1898.3 625.148,1895.88 C625.148,1891.12 627.22,1887.32 631.364,1884.47 C635.508,1881.63 640.425,1880.2 646.115,1880.2 C653.599,1880.2 659.753,1881.64 664.577,1884.52 C669.401,1887.39 671.813,1891.74 671.813,1897.55 C671.813,1901.7 671.38,1904.91 670.514,1907.2 C669.648,1909.49 668.659,1910.88 667.546,1911.38 C666.432,1911.87 665.443,1912.44 664.577,1913.09 C663.711,1913.74 663.278,1914.69 663.278,1915.92"/>
<path class="FiguredBass" d="M651.403,1989.48 C646.826,1989.48 643.78,1991.32 642.265,1995 C640.749,1998.68 639.992,2003.89 639.992,2010.63 L639.992,2021.58 C643.208,2020.28 645.991,2019.6 648.341,2019.54 C656.382,2019.54 662.706,2021.32 667.314,2024.87 C671.921,2028.43 674.225,2033.72 674.225,2040.74 C674.225,2047.76 671.89,2053.06 667.221,2056.65 C662.551,2060.24 656.258,2062.03 648.341,2062.03 C640.239,2062.03 633.9,2058.27 629.323,2050.76 C624.746,2043.24 622.458,2034.32 622.458,2023.99 C622.458,2013.72 625.117,2004.82 630.436,1997.27 C635.755,1989.73 642.744,1985.95 651.403,1985.95 C657.093,1985.95 662.01,1987.39 666.154,1990.27 C670.298,1993.14 672.37,1996.93 672.37,2001.63 C672.37,2004.35 671.38,2006.71 669.401,2008.68 C667.422,2010.66 665.056,2011.65 662.304,2011.65 C659.552,2011.65 657.186,2010.66 655.207,2008.68 C653.228,2006.71 652.238,2004.35 652.238,2001.63 C652.238,1998.97 653.228,1996.62 655.207,1994.58 C655.887,1993.78 656.846,1993.1 658.083,1992.54 C657.773,1991.74 657.155,1991.12 656.227,1990.69 C654.867,1989.88 653.258,1989.48 651.403,1989.48 M655.949,2027.42 C654.836,2024.52 652.393,2023.06 648.62,2023.06 C644.847,2023.06 642.512,2024.52 641.615,2027.42 C640.719,2030.33 640.27,2034.75 640.27,2040.69 C640.27,2047.68 640.719,2052.38 641.615,2054.79 C642.512,2057.2 644.847,2058.41 648.62,2058.41 C652.393,2058.41 654.836,2056.96 655.949,2054.05 C657.062,2051.14 657.619,2046.71 657.619,2040.74 C657.619,2034.77 657.062,2030.33 655.949,2027.42"/>
<path class="FiguredBass" d="M1780.26,1777.98 C1775.69,1777.98 1772.64,1779.82 1771.13,1783.5 C1769.61,1787.18 1768.85,1792.39 1768.85,1799.13 L1768.85,1810.08 C1772.07,1808.78 1774.85,1808.1 1777.2,1808.04 C1785.24,1808.04 1791.57,1809.82 1796.18,1813.37 C1800.78,1816.93 1803.09,1822.22 1803.09,1829.24 C1803.09,1836.26 1800.75,1841.56 1796.08,1845.15 C1791.41,1848.74 1785.12,1850.53 1777.2,1850.53 C1769.1,1850.53 1762.76,1846.77 1758.18,1839.26 C1753.61,1831.74 1751.32,1822.82 1751.32,1812.49 C1751.32,1802.22 1753.98,1793.32 1759.3,1785.77 C1764.62,1778.23 1771.61,1774.45 1780.26,1774.45 C1785.96,1774.45 1790.87,1775.89 1795.02,1778.77 C1799.16,1781.64 1801.23,1785.43 1801.23,1790.13 C1801.23,1792.85 1800.24,1795.21 1798.26,1797.18 C1796.28,1799.16 1793.92,1800.15 1791.17,1800.15 C1788.41,1800.15 1786.05,1799.16 1784.07,1797.18 C1782.09,1795.21 1781.1,1792.85 1781.1,1790.13 C1781.1,1787.47 1782.09,1785.12 1784.07,1783.08 C1784.75,1782.28 1785.71,1781.6 1786.94,1781.04 C1786.64,1780.24 1786.02,1779.62 1785.09,1779.19 C1783.73,1778.38 1782.12,1777.98 1780.26,1777.98 M1784.81,1815.92 C1783.7,1813.02 1781.25,1811.56 1777.48,1811.56 C1773.71,1811.56 1771.37,1813.02 1770.48,1815.92 C1769.58,1818.83 1769.13,1823.25 1769.13,1829.19 C1769.13,1836.18 1769.58,1840.88 1770.48,1843.29 C1771.37,1845.7 1773.71,1846.91 1777.48,1846.91 C1781.25,1846.91 1783.7,1845.46 1784.81,1842.55 C1785.92,1839.64 1786.48,1835.21 1786.48,1829.24 C1786.48,1823.27 1785.92,1818.83 1784.81,1815.92"/>
<path class="FiguredBass" d="M1757.63,1880.2 C1757.63,1880.2 1759.11,1880.42 1762.08,1880.85 C1763.38,1881.04 1764.83,1881.23 1766.44,1881.41 C1770.71,1881.91 1774.82,1882.15 1778.78,1882.15 C1782.74,1882.15 1786.91,1881.91 1791.3,1881.41 C1793.04,1881.23 1794.55,1881.04 1795.85,1880.85 L1800.4,1880.2 C1801.32,1880.2 1802.02,1880.51 1802.48,1881.13 C1802.95,1881.75 1802.9,1882.25 1802.35,1882.62 C1792.88,1892.08 1779.55,1896.81 1762.36,1896.81 C1761.68,1896.81 1761.08,1897.06 1760.55,1897.55 C1760.02,1898.05 1759.76,1898.67 1759.76,1899.41 L1759.76,1913.97 C1764.15,1909.64 1769.47,1907.48 1775.72,1907.48 C1784.75,1907.48 1791.72,1909.51 1796.64,1913.56 C1801.56,1917.61 1804.01,1923.75 1804.01,1931.97 C1804.01,1938.96 1801.23,1944.76 1795.67,1949.37 C1790.1,1953.98 1783.45,1956.28 1775.72,1956.28 C1769.04,1956.28 1763.24,1954.76 1758.32,1951.73 C1753.41,1948.7 1750.95,1944.5 1750.95,1939.12 C1750.95,1936.39 1751.94,1934.03 1753.92,1932.02 C1755.9,1930.01 1758.26,1929 1761.01,1929 C1763.77,1929 1766.1,1929.99 1768.02,1931.97 C1769.94,1933.95 1770.89,1936.33 1770.89,1939.12 C1770.89,1940.35 1769.87,1941.7 1767.83,1943.15 C1765.79,1944.6 1764.77,1945.95 1764.77,1947.19 C1764.77,1950.9 1768.42,1952.75 1775.72,1952.75 C1782.83,1952.75 1786.39,1945.83 1786.39,1931.97 C1786.39,1918.61 1782.83,1911.9 1775.72,1911.84 C1769.35,1911.84 1764.9,1913.14 1762.36,1915.74 C1759.82,1918.33 1758.25,1919.63 1757.63,1919.63 C1756.08,1919.63 1755.34,1918.86 1755.4,1917.31 L1755.4,1882.62 C1755.4,1881.94 1755.62,1881.36 1756.05,1880.9 C1756.48,1880.44 1757.01,1880.2 1757.63,1880.2"/>
<path class="FiguredBass" d="M1792.14,2021.67 C1792.14,2022.66 1792.7,2023.62 1793.81,2024.55 C1794.92,2025.48 1796.14,2026.36 1797.47,2027.19 C1798.8,2028.03 1800.03,2029.6 1801.14,2031.92 C1802.25,2034.24 1802.81,2037.17 1802.81,2040.69 C1802.81,2047.49 1800.24,2052.75 1795.11,2056.46 C1789.98,2060.17 1783.48,2062.03 1775.63,2062.03 C1769.32,2062.03 1763.83,2060.45 1759.16,2057.3 C1754.49,2054.14 1752.15,2050 1752.15,2044.87 C1752.15,2042.14 1753.14,2039.78 1755.12,2037.77 C1757.1,2035.76 1759.47,2034.75 1762.22,2034.75 C1764.97,2034.75 1767.31,2035.74 1769.22,2037.72 C1771.14,2039.7 1772.1,2042.08 1772.1,2044.87 C1772.1,2046.1 1771.08,2047.45 1769.04,2048.9 C1767,2050.35 1765.98,2051.7 1765.98,2052.94 C1765.98,2054.85 1766.92,2056.26 1768.81,2057.16 C1770.69,2058.06 1772.97,2058.5 1775.63,2058.5 C1779.09,2058.5 1781.55,2056.79 1783,2053.35 C1784.46,2049.92 1785.18,2045.7 1785.18,2040.69 L1785.18,2038.28 C1785.18,2034.94 1785.07,2032.4 1784.86,2030.67 C1784.64,2028.94 1783.96,2027.39 1782.82,2026.03 C1781.67,2024.67 1779.92,2023.99 1777.57,2023.99 L1765.42,2023.99 C1764,2023.99 1763.29,2023.22 1763.29,2021.67 C1763.29,2020.25 1764,2019.54 1765.42,2019.54 L1777.57,2019.54 C1780.11,2019.54 1782.09,2018.58 1783.51,2016.66 C1784.01,2015.98 1784.41,2014.87 1784.72,2013.32 C1785.03,2011.28 1785.18,2008.34 1785.18,2004.51 L1785.18,2003.3 C1785.18,1994.09 1781.78,1989.48 1774.98,1989.48 C1768.98,1989.48 1765.98,1991.15 1765.98,1994.49 C1765.98,1995.6 1766.89,1996.79 1768.71,1998.06 C1770.54,1999.33 1771.45,2000.52 1771.45,2001.63 C1771.45,2004.05 1770.6,2006.12 1768.9,2007.85 C1767.2,2009.58 1765.13,2010.45 1762.68,2010.45 C1760.24,2010.45 1758.18,2009.58 1756.51,2007.85 C1754.85,2006.12 1754.01,2004.05 1754.01,2001.63 C1754.01,1996.87 1756.08,1993.07 1760.23,1990.22 C1764.37,1987.38 1769.29,1985.95 1774.98,1985.95 C1782.46,1985.95 1788.61,1987.39 1793.44,1990.27 C1798.26,1993.14 1800.68,1997.49 1800.68,2003.3 C1800.68,2007.45 1800.24,2010.66 1799.38,2012.95 C1798.51,2015.24 1797.52,2016.63 1796.41,2017.13 C1795.29,2017.62 1794.3,2018.19 1793.44,2018.84 C1792.57,2019.49 1792.14,2020.44 1792.14,2021.67"/>
<path class="FiguredBass" d="M2900.15,1813.45 C2900.15,1814.44 2900.71,1815.39 2901.82,1816.32 C2902.94,1817.25 2904.16,1818.13 2905.49,1818.97 C2906.82,1819.8 2908.04,1821.38 2909.15,1823.7 C2910.26,1826.02 2910.82,1828.94 2910.82,1832.47 C2910.82,1839.27 2908.25,1844.53 2903.12,1848.24 C2897.99,1851.95 2891.49,1853.8 2883.64,1853.8 C2877.33,1853.8 2871.84,1852.23 2867.17,1849.07 C2862.5,1845.92 2860.17,1841.77 2860.17,1836.64 C2860.17,1833.92 2861.16,1831.55 2863.14,1829.54 C2865.11,1827.53 2867.48,1826.53 2870.23,1826.53 C2872.99,1826.53 2875.32,1827.52 2877.24,1829.5 C2879.15,1831.48 2880.11,1833.86 2880.11,1836.64 C2880.11,1837.88 2879.09,1839.22 2877.05,1840.68 C2875.01,1842.13 2873.99,1843.47 2873.99,1844.71 C2873.99,1846.63 2874.93,1848.04 2876.82,1848.93 C2878.71,1849.83 2880.98,1850.28 2883.64,1850.28 C2887.1,1850.28 2889.56,1848.56 2891.01,1845.13 C2892.47,1841.7 2893.19,1837.47 2893.19,1832.47 L2893.19,1830.05 C2893.19,1826.71 2893.09,1824.18 2892.87,1822.45 C2892.65,1820.71 2891.97,1819.17 2890.83,1817.81 C2889.68,1816.45 2887.94,1815.77 2885.59,1815.77 L2873.43,1815.77 C2872.01,1815.77 2871.3,1814.99 2871.3,1813.45 C2871.3,1812.02 2872.01,1811.31 2873.43,1811.31 L2885.59,1811.31 C2888.12,1811.31 2890.1,1810.35 2891.52,1808.44 C2892.02,1807.76 2892.42,1806.64 2892.73,1805.1 C2893.04,1803.06 2893.19,1800.12 2893.19,1796.28 L2893.19,1795.08 C2893.19,1785.86 2889.79,1781.25 2882.99,1781.25 C2876.99,1781.25 2873.99,1782.92 2873.99,1786.26 C2873.99,1787.38 2874.9,1788.57 2876.73,1789.84 C2878.55,1791.1 2879.46,1792.29 2879.46,1793.41 C2879.46,1795.82 2878.61,1797.89 2876.91,1799.62 C2875.21,1801.35 2873.14,1802.22 2870.7,1802.22 C2868.25,1802.22 2866.2,1801.35 2864.53,1799.62 C2862.86,1797.89 2862.02,1795.82 2862.02,1793.41 C2862.02,1788.65 2864.09,1784.84 2868.24,1782 C2872.38,1779.15 2877.3,1777.73 2882.99,1777.73 C2890.47,1777.73 2896.63,1779.17 2901.45,1782.04 C2906.28,1784.92 2908.69,1789.26 2908.69,1795.08 C2908.69,1799.22 2908.25,1802.44 2907.39,1804.73 C2906.52,1807.01 2905.53,1808.41 2904.42,1808.9 C2903.31,1809.4 2902.32,1809.97 2901.45,1810.62 C2900.59,1811.27 2900.15,1812.21 2900.15,1813.45"/>
<path class="FiguredBass" d="M2888.28,1887 C2883.7,1887 2880.65,1888.84 2879.14,1892.52 C2877.62,1896.2 2876.87,1901.41 2876.87,1908.16 L2876.87,1919.1 C2880.08,1917.8 2882.87,1917.12 2885.22,1917.06 C2893.26,1917.06 2899.58,1918.84 2904.19,1922.4 C2908.8,1925.95 2911.1,1931.24 2911.1,1938.26 C2911.1,1945.28 2908.76,1950.58 2904.1,1954.17 C2899.43,1957.76 2893.13,1959.55 2885.22,1959.55 C2877.11,1959.55 2870.77,1955.8 2866.2,1948.28 C2861.62,1940.77 2859.33,1931.84 2859.33,1921.52 C2859.33,1911.25 2861.99,1902.34 2867.31,1894.8 C2872.63,1887.25 2879.62,1883.48 2888.28,1883.48 C2893.97,1883.48 2898.88,1884.92 2903.03,1887.79 C2907.17,1890.67 2909.24,1894.46 2909.24,1899.16 C2909.24,1901.88 2908.25,1904.23 2906.28,1906.21 C2904.3,1908.19 2901.93,1909.18 2899.18,1909.18 C2896.43,1909.18 2894.06,1908.19 2892.08,1906.21 C2890.1,1904.23 2889.11,1901.88 2889.11,1899.16 C2889.11,1896.5 2890.1,1894.15 2892.08,1892.11 C2892.76,1891.3 2893.72,1890.62 2894.96,1890.07 C2894.65,1889.26 2894.03,1888.64 2893.1,1888.21 C2891.74,1887.41 2890.13,1887 2888.28,1887 M2892.82,1924.95 C2891.71,1922.04 2889.27,1920.59 2885.49,1920.59 C2881.72,1920.59 2879.39,1922.04 2878.49,1924.95 C2877.59,1927.86 2877.14,1932.28 2877.14,1938.22 C2877.14,1945.2 2877.59,1949.9 2878.49,1952.32 C2879.39,1954.73 2881.72,1955.93 2885.49,1955.93 C2889.27,1955.93 2891.71,1954.48 2892.82,1951.57 C2893.94,1948.67 2894.49,1944.23 2894.49,1938.26 C2894.49,1932.29 2893.94,1927.86 2892.82,1924.95"/>
<path class="FiguredBass" d="M2865.64,1989.23 C2865.64,1989.23 2867.13,1989.45 2870.09,1989.88 C2871.39,1990.06 2872.85,1990.25 2874.45,1990.43 C2878.72,1990.93 2882.83,1991.18 2886.79,1991.18 C2890.75,1991.18 2894.93,1990.93 2899.32,1990.43 C2901.05,1990.25 2902.56,1990.06 2903.86,1989.88 L2908.41,1989.23 C2909.34,1989.23 2910.03,1989.54 2910.5,1990.16 C2910.96,1990.77 2910.91,1991.27 2910.36,1991.64 C2900.89,2001.1 2887.57,2005.84 2870.37,2005.84 C2869.69,2005.84 2869.09,2006.08 2868.56,2006.58 C2868.04,2007.07 2867.77,2007.69 2867.77,2008.43 L2867.77,2023 C2872.17,2018.67 2877.48,2016.5 2883.73,2016.5 C2892.76,2016.5 2899.73,2018.53 2904.65,2022.58 C2909.57,2026.63 2912.03,2032.77 2912.03,2041 C2912.03,2047.99 2909.24,2053.78 2903.68,2058.39 C2898.11,2063 2891.46,2065.3 2883.73,2065.3 C2877.05,2065.3 2871.25,2063.79 2866.34,2060.76 C2861.42,2057.73 2858.96,2053.52 2858.96,2048.14 C2858.96,2045.42 2859.95,2043.05 2861.93,2041.04 C2863.91,2039.03 2866.27,2038.03 2869.03,2038.03 C2871.78,2038.03 2874.11,2039.02 2876.03,2041 C2877.95,2042.98 2878.91,2045.36 2878.91,2048.14 C2878.91,2049.38 2877.89,2050.72 2875.85,2052.18 C2873.8,2053.63 2872.78,2054.97 2872.78,2056.21 C2872.78,2059.92 2876.43,2061.78 2883.73,2061.78 C2890.84,2061.78 2894.4,2054.85 2894.4,2041 C2894.4,2027.64 2890.84,2020.93 2883.73,2020.86 C2877.36,2020.86 2872.91,2022.16 2870.37,2024.76 C2867.84,2027.36 2866.26,2028.66 2865.64,2028.66 C2864.09,2028.66 2863.35,2027.88 2863.41,2026.34 L2863.41,1991.64 C2863.41,1990.96 2863.63,1990.39 2864.06,1989.92 C2864.5,1989.46 2865.02,1989.23 2865.64,1989.23"/>
<path class="FiguredBass" d="M3512.44,1777.98 C3507.86,1777.98 3504.81,1779.82 3503.3,1783.5 C3501.78,1787.18 3501.03,1792.39 3501.03,1799.13 L3501.03,1810.08 C3504.24,1808.78 3507.03,1808.1 3509.38,1808.04 C3517.42,1808.04 3523.74,1809.82 3528.35,1813.37 C3532.96,1816.93 3535.26,1822.22 3535.26,1829.24 C3535.26,1836.26 3532.92,1841.56 3528.25,1845.15 C3523.59,1848.74 3517.29,1850.53 3509.38,1850.53 C3501.27,1850.53 3494.93,1846.77 3490.36,1839.26 C3485.78,1831.74 3483.49,1822.82 3483.49,1812.49 C3483.49,1802.22 3486.15,1793.32 3491.47,1785.77 C3496.79,1778.23 3503.78,1774.45 3512.44,1774.45 C3518.13,1774.45 3523.04,1775.89 3527.19,1778.77 C3531.33,1781.64 3533.4,1785.43 3533.4,1790.13 C3533.4,1792.85 3532.41,1795.21 3530.43,1797.18 C3528.46,1799.16 3526.09,1800.15 3523.34,1800.15 C3520.59,1800.15 3518.22,1799.16 3516.24,1797.18 C3514.26,1795.21 3513.27,1792.85 3513.27,1790.13 C3513.27,1787.47 3514.26,1785.12 3516.24,1783.08 C3516.92,1782.28 3517.88,1781.6 3519.12,1781.04 C3518.81,1780.24 3518.19,1779.62 3517.26,1779.19 C3515.9,1778.38 3514.29,1777.98 3512.44,1777.98 M3516.98,1815.92 C3515.87,1813.02 3513.43,1811.56 3509.65,1811.56 C3505.88,1811.56 3503.55,1813.02 3502.65,1815.92 C3501.75,1818.83 3501.3,1823.25 3501.3,1829.19 C3501.3,1836.18 3501.75,1840.88 3502.65,1843.29 C3503.55,1845.7 3505.88,1846.91 3509.65,1846.91 C3513.43,1846.91 3515.87,1845.46 3516.98,1842.55 C3518.1,1839.64 3518.65,1835.21 3518.65,1829.24 C3518.65,1823.27 3518.1,1818.83 3516.98,1815.92"/>
<path class="FiguredBass" d="M3489.8,1880.2 C3489.8,1880.2 3491.28,1880.42 3494.25,1880.85 C3495.55,1881.04 3497.01,1881.23 3498.61,1881.41 C3502.88,1881.91 3506.99,1882.15 3510.95,1882.15 C3514.91,1882.15 3519.09,1881.91 3523.48,1881.41 C3525.21,1881.23 3526.72,1881.04 3528.02,1880.85 L3532.57,1880.2 C3533.5,1880.2 3534.19,1880.51 3534.66,1881.13 C3535.12,1881.75 3535.07,1882.25 3534.52,1882.62 C3525.05,1892.08 3511.73,1896.81 3494.53,1896.81 C3493.85,1896.81 3493.25,1897.06 3492.72,1897.55 C3492.2,1898.05 3491.93,1898.67 3491.93,1899.41 L3491.93,1913.97 C3496.33,1909.64 3501.64,1907.48 3507.89,1907.48 C3516.92,1907.48 3523.89,1909.51 3528.81,1913.56 C3533.73,1917.61 3536.19,1923.75 3536.19,1931.97 C3536.19,1938.96 3533.4,1944.76 3527.84,1949.37 C3522.27,1953.98 3515.62,1956.28 3507.89,1956.28 C3501.21,1956.28 3495.41,1954.76 3490.5,1951.73 C3485.58,1948.7 3483.12,1944.5 3483.12,1939.12 C3483.12,1936.39 3484.11,1934.03 3486.09,1932.02 C3488.07,1930.01 3490.43,1929 3493.19,1929 C3495.94,1929 3498.27,1929.99 3500.19,1931.97 C3502.11,1933.95 3503.07,1936.33 3503.07,1939.12 C3503.07,1940.35 3502.05,1941.7 3500.01,1943.15 C3497.96,1944.6 3496.94,1945.95 3496.94,1947.19 C3496.94,1950.9 3500.59,1952.75 3507.89,1952.75 C3515,1952.75 3518.56,1945.83 3518.56,1931.97 C3518.56,1918.61 3515,1911.9 3507.89,1911.84 C3501.52,1911.84 3497.07,1913.14 3494.53,1915.74 C3492,1918.33 3490.42,1919.63 3489.8,1919.63 C3488.25,1919.63 3487.51,1918.86 3487.57,1917.31 L3487.57,1882.62 C3487.57,1881.94 3487.79,1881.36 3488.22,1880.9 C3488.66,1880.44 3489.18,1880.2 3489.8,1880.2"/>
<path class="FiguredBass" d="M3524.31,2021.67 C3524.31,2022.66 3524.87,2023.62 3525.98,2024.55 C3527.1,2025.48 3528.32,2026.36 3529.65,2027.19 C3530.98,2028.03 3532.2,2029.6 3533.31,2031.92 C3534.42,2034.24 3534.98,2037.17 3534.98,2040.69 C3534.98,2047.49 3532.41,2052.75 3527.28,2056.46 C3522.15,2060.17 3515.65,2062.03 3507.8,2062.03 C3501.49,2062.03 3496,2060.45 3491.33,2057.3 C3486.66,2054.14 3484.33,2050 3484.33,2044.87 C3484.33,2042.14 3485.32,2039.78 3487.3,2037.77 C3489.27,2035.76 3491.64,2034.75 3494.39,2034.75 C3497.14,2034.75 3499.48,2035.74 3501.4,2037.72 C3503.31,2039.7 3504.27,2042.08 3504.27,2044.87 C3504.27,2046.1 3503.25,2047.45 3501.21,2048.9 C3499.17,2050.35 3498.15,2051.7 3498.15,2052.94 C3498.15,2054.85 3499.09,2056.26 3500.98,2057.16 C3502.87,2058.06 3505.14,2058.5 3507.8,2058.5 C3511.26,2058.5 3513.72,2056.79 3515.17,2053.35 C3516.63,2049.92 3517.35,2045.7 3517.35,2040.69 L3517.35,2038.28 C3517.35,2034.94 3517.25,2032.4 3517.03,2030.67 C3516.81,2028.94 3516.13,2027.39 3514.99,2026.03 C3513.84,2024.67 3512.1,2023.99 3509.75,2023.99 L3497.59,2023.99 C3496.17,2023.99 3495.46,2023.22 3495.46,2021.67 C3495.46,2020.25 3496.17,2019.54 3497.59,2019.54 L3509.75,2019.54 C3512.28,2019.54 3514.26,2018.58 3515.68,2016.66 C3516.18,2015.98 3516.58,2014.87 3516.89,2013.32 C3517.2,2011.28 3517.35,2008.34 3517.35,2004.51 L3517.35,2003.3 C3517.35,1994.09 3513.95,1989.48 3507.15,1989.48 C3501.15,1989.48 3498.15,1991.15 3498.15,1994.49 C3498.15,1995.6 3499.06,1996.79 3500.89,1998.06 C3502.71,1999.33 3503.62,2000.52 3503.62,2001.63 C3503.62,2004.05 3502.77,2006.12 3501.07,2007.85 C3499.37,2009.58 3497.3,2010.45 3494.86,2010.45 C3492.41,2010.45 3490.36,2009.58 3488.69,2007.85 C3487.02,2006.12 3486.18,2004.05 3486.18,2001.63 C3486.18,1996.87 3488.25,1993.07 3492.4,1990.22 C3496.54,1987.38 3501.46,1985.95 3507.15,1985.95 C3514.63,1985.95 3520.79,1987.39 3525.61,1990.27 C3530.43,1993.14 3532.85,1997.49 3532.85,2003.3 C3532.85,2007.45 3532.41,2010.66 3531.55,2012.95 C3530.68,2015.24 3529.69,2016.63 3528.58,2017.13 C3527.47,2017.62 3526.48,2018.19 3525.61,2018.84 C3524.74,2019.49 3524.31,2020.44 3524.31,2021.67"/>
<polyline class="FretDiagram" stroke="#fc0107" stroke-width="4.76" stroke-linejoin="bevel" points="547.784,206.022 760.892,206.022"/>
<polyline class="FretDiagram" stroke="#fc0107" stroke-width="4.76" stroke-linejoin="bevel" points="550.165,194.117 550.165,420.321"/>
<polyline class="FretDiagram" stroke="#fc0107" stroke-width="4.76" stroke-linejoin="bevel" points="591.834,194.117 591.834,420.321"/>
<polyline class="FretDiagram" stroke="#fc0107" stroke-width="4.76" stroke-linejoin="bevel" points="633.503,194.117 633.503,420.321"/>
<polyline class="FretDiagram" stroke="#fc0107" stroke-width="4.76" stroke-linejoin="bevel" points="675.173,194.117 675.173,420.321"/>
<polyline class="FretDiagram" stroke="#fc0107" stroke-width="4.76" stroke-linejoin="bevel" points="716.842,194.117 716.842,420.321"/>
<polyline class="FretDiagram" stroke="#fc0107" stroke-width="4.76" stroke-linejoin="bevel" points="758.511,194.117 758.511,420.321"/>
<polyline class="FretDiagram" stroke="#fc0107" stroke-width="4.76" stroke-linejoin="bevel" points="550.165,253.644 758.511,253.644"/>
<polyline class="FretDiagram" stroke="#fc0107" stroke-width="4.76" stroke-linejoin="bevel" points="550.165,301.266 758.511,301.266"/>
<polyline class="FretDiagram" stroke="#fc0107" stroke-width="4.76" stroke-linejoin="bevel" points="550.165,348.888 758.511,348.888"/>
<polyline class="FretDiagram" stroke="#fc0107" stroke-width="4.76" stroke-linejoin="bevel" points="550.165,396.51 758.511,396.51"/>
<path class="FretDiagram" fill="#fc0107" fill-rule="evenodd" d="M648.088,277.455 C648.088,285.51 641.558,292.039 633.503,292.039 C625.449,292.039 618.919,285.51 618.919,277.455 C618.919,269.4 625.449,262.871 633.503,262.871 C641.558,262.871 648.088,269.4 648.088,277.455"/>
<path class="FretDiagram" fill="#fc0107" fill-rule="evenodd" d="M689.757,372.699 C689.757,380.754 683.227,387.283 675.173,387.283 C667.118,387.283 660.588,380.754 660.588,372.699 C660.588,364.645 667.118,358.115 675.173,358.115 C683.227,358.115 689.757,364.645 689.757,372.699"/>
<path class="FretDiagram" fill="#fc0107" fill-rule="evenodd" d="M731.426,229.833 C731.426,237.888 724.897,244.417 716.842,244.417 C708.787,244.417 702.258,237.888 702.258,229.833 C702.258,221.778 708.787,215.249 716.842,215.249 C724.897,215.249 731.426,221.778 731.426,229.833"/>
<path class="FretDiagram" fill="#fc0107" fill-rule="evenodd" d="M773.096,325.077 C773.096,333.132 766.566,339.661 758.511,339.661 C750.457,339.661 743.927,333.132 743.927,325.077 C743.927,317.023 750.457,310.493 758.511,310.493 C766.566,310.493 773.096,317.023 773.096,325.077"/>
<polyline class="FretDiagram" fill="none" stroke="#fc0107" stroke-width="6.86" stroke-linecap="round" stroke-linejoin="bevel" points="533.497,141.732 566.833,175.068"/>
<polyline class="FretDiagram" fill="none" stroke="#fc0107" stroke-width="6.86" stroke-linecap="round" stroke-linejoin="bevel" points="533.497,175.068 566.833,141.732"/>
<polyline class="FretDiagram" fill="none" stroke="#fc0107" stroke-width="6.86" stroke-linecap="round" stroke-linejoin="bevel" points="575.166,141.732 608.502,175.068"/>
<polyline class="FretDiagram" fill="none" stroke="#fc0107" stroke-width="6.86" stroke-linecap="round" stroke-linejoin="bevel" points="575.166,175.068 608.502,141.732"/>
<path class="FretDiagram" fill="#fc0107" d="M525.916,195.73 L525.916,203.995 L497.891,203.995 L495.231,222.805 C498.968,220.081 503.116,218.72 507.676,218.72 C514.136,218.72 519.377,220.794 523.399,224.942 C527.42,229.09 529.431,234.49 529.431,241.14 C529.431,248.233 527.278,254.028 522.971,258.525 C518.664,263.021 513.123,265.27 506.346,265.27 C503.749,265.27 501.359,264.985 499.174,264.415 C496.989,263.845 495.184,263.164 493.759,262.372 C492.334,261.58 491.035,260.535 489.864,259.237 C488.692,257.939 487.805,256.799 487.204,255.817 C486.602,254.835 486.032,253.6 485.494,252.112 C484.955,250.624 484.623,249.595 484.496,249.025 C484.369,248.455 484.211,247.631 484.021,246.555 L492.381,246.555 C494.344,254.091 498.936,257.86 506.156,257.86 C510.716,257.86 514.31,256.466 516.939,253.68 C519.567,250.893 520.881,247.093 520.881,242.28 C520.881,237.276 519.551,233.334 516.891,230.452 C514.231,227.57 510.653,226.13 506.156,226.13 C503.559,226.13 501.343,226.589 499.506,227.507 C497.669,228.425 495.769,230.056 493.806,232.4 L486.111,232.4 L491.146,195.73 L525.916,195.73 "/>
<polyline class="FretDiagram" fill="#fc0107" stroke="#fc02ff" stroke-width="4.76" stroke-linejoin="bevel" points="1676.65,210.561 1889.75,210.561"/>
<polyline class="FretDiagram" fill="#fc0107" stroke="#fc02ff" stroke-width="4.76" stroke-linejoin="bevel" points="1679.03,198.656 1679.03,424.86"/>
<polyline class="FretDiagram" fill="#fc0107" stroke="#fc02ff" stroke-width="4.76" stroke-linejoin="bevel" points="1720.7,198.656 1720.7,424.86"/>
<polyline class="FretDiagram" fill="#fc0107" stroke="#fc02ff" stroke-width="4.76" stroke-linejoin="bevel" points="1762.37,198.656 1762.37,424.86"/>
<polyline class="FretDiagram" fill="#fc0107" stroke="#fc02ff" stroke-width="4.76" stroke-linejoin="bevel" points="1804.03,198.656 1804.03,424.86"/>
<polyline class="FretDiagram" fill="#fc0107" stroke="#fc02ff" stroke-width="4.76" stroke-linejoin="bevel" points="1845.7,198.656 1845.7,424.86"/>
<polyline class="FretDiagram" fill="#fc0107" stroke="#fc02ff" stroke-width="4.76" stroke-linejoin="bevel" points="1887.37,198.656 1887.37,424.86"/>
<polyline class="FretDiagram" fill="#fc0107" stroke="#fc02ff" stroke-width="4.76" stroke-linejoin="bevel" points="1679.03,258.183 1887.37,258.183"/>
<polyline class="FretDiagram" fill="#fc0107" stroke="#fc02ff" stroke-width="4.76" stroke-linejoin="bevel" points="1679.03,305.805 1887.37,305.805"/>
<polyline class="FretDiagram" fill="#fc0107" stroke="#fc02ff" stroke-width="4.76" stroke-linejoin="bevel" points="1679.03,353.427 1887.37,353.427"/>
<polyline class="FretDiagram" fill="#fc0107" stroke="#fc02ff" stroke-width="4.76" stroke-linejoin="bevel" points="1679.03,401.049 1887.37,401.049"/>
<path class="FretDiagram" fill="#fc02ff" fill-rule="evenodd" d="M1735.28,281.994 C1735.28,290.049 1728.75,296.578 1720.7,296.578 C1712.64,296.578 1706.11,290.049 1706.11,281.994 C1706.11,273.939 1712.64,267.41 1720.7,267.41 C1728.75,267.41 1735.28,273.939 1735.28,281.994"/>
<path class="FretDiagram" fill="#fc02ff" fill-rule="evenodd" d="M1860.29,329.616 C1860.29,337.671 1853.76,344.2 1845.7,344.2 C1837.65,344.2 1831.12,337.671 1831.12,329.616 C1831.12,321.561 1837.65,315.032 1845.7,315.032 C1853.76,315.032 1860.29,321.561 1860.29,329.616"/>
<polyline class="FretDiagram" fill="none" stroke="#fc02ff" stroke-width="6.86" stroke-linecap="round" stroke-linejoin="bevel" points="1662.36,146.271 1695.69,179.607"/>
<polyline class="FretDiagram" fill="none" stroke="#fc02ff" stroke-width="6.86" stroke-linecap="round" stroke-linejoin="bevel" points="1662.36,179.607 1695.69,146.271"/>
<polyline class="FretDiagram" fill="none" stroke="#fc02ff" stroke-width="6.86" stroke-linecap="round" stroke-linejoin="bevel" points="1745.7,146.271 1779.03,179.607"/>
<polyline class="FretDiagram" fill="none" stroke="#fc02ff" stroke-width="6.86" stroke-linecap="round" stroke-linejoin="bevel" points="1745.7,179.607 1779.03,146.271"/>
<path class="FretDiagram" fill="none" stroke="#fc02ff" stroke-width="6.86" stroke-linecap="round" stroke-linejoin="bevel" fill-rule="evenodd" d="M1820.7,162.939 C1820.7,172.144 1813.24,179.607 1804.03,179.607 C1794.83,179.607 1787.37,172.144 1787.37,162.939 C1787.37,153.734 1794.83,146.271 1804.03,146.271 C1813.24,146.271 1820.7,153.734 1820.7,162.939"/>
<path class="FretDiagram" fill="none" stroke="#fc02ff" stroke-width="6.86" stroke-linecap="round" stroke-linejoin="bevel" fill-rule="evenodd" d="M1904.04,162.939 C1904.04,172.144 1896.58,179.607 1887.37,179.607 C1878.17,179.607 1870.71,172.144 1870.71,162.939 C1870.71,153.734 1878.17,146.271 1887.37,146.271 C1896.58,146.271 1904.04,153.734 1904.04,162.939"/>
<polyline class="FretDiagram" fill="none" stroke="#fc02ff" stroke-width="29.17" stroke-linecap="round" stroke-linejoin="bevel" points="1720.7,234.372 1887.37,234.372"/>
<path class="FretDiagram" fill="#fc02ff" d="M1654.78,200.269 L1654.78,208.534 L1626.75,208.534 L1624.09,227.344 C1627.83,224.62 1631.98,223.259 1636.54,223.259 C1643,223.259 1648.24,225.333 1652.26,229.481 C1656.28,233.629 1658.29,239.029 1658.29,245.679 C1658.29,252.772 1656.14,258.567 1651.83,263.064 C1647.53,267.56 1641.98,269.809 1635.21,269.809 C1632.61,269.809 1630.22,269.524 1628.04,268.954 C1625.85,268.384 1624.05,267.703 1622.62,266.911 C1621.2,266.119 1619.9,265.074 1618.73,263.776 C1617.55,262.478 1616.67,261.338 1616.07,260.356 C1615.46,259.374 1614.89,258.139 1614.36,256.651 C1613.82,255.163 1613.48,254.134 1613.36,253.564 C1613.23,252.994 1613.07,252.17 1612.88,251.094 L1621.24,251.094 C1623.21,258.63 1627.8,262.399 1635.02,262.399 C1639.58,262.399 1643.17,261.005 1645.8,258.219 C1648.43,255.432 1649.74,251.632 1649.74,246.819 C1649.74,241.815 1648.41,237.873 1645.75,234.991 C1643.09,232.109 1639.51,230.669 1635.02,230.669 C1632.42,230.669 1630.2,231.128 1628.37,232.046 C1626.53,232.964 1624.63,234.595 1622.67,236.939 L1614.97,236.939 L1620.01,200.269 L1654.78,200.269 "/>
<polyline class="FretDiagram" fill="#fc02ff" stroke="#0000ff" stroke-width="4.76" stroke-linejoin="bevel" points="2749.17,210.561 2962.28,210.561"/>
<polyline class="FretDiagram" fill="#fc02ff" stroke="#0000ff" stroke-width="4.76" stroke-linejoin="bevel" points="2751.56,198.656 2751.56,424.86"/>
<polyline class="FretDiagram" fill="#fc02ff" stroke="#0000ff" stroke-width="4.76" stroke-linejoin="bevel" points="2793.22,198.656 2793.22,424.86"/>
<polyline class="FretDiagram" fill="#fc02ff" stroke="#0000ff" stroke-width="4.76" stroke-linejoin="bevel" points="2834.89,198.656 2834.89,424.86"/>
<polyline class="FretDiagram" fill="#fc02ff" stroke="#0000ff" stroke-width="4.76" stroke-linejoin="bevel" points="2876.56,198.656 2876.56,424.86"/>
<polyline class="FretDiagram" fill="#fc02ff" stroke="#0000ff" stroke-width="4.76" stroke-linejoin="bevel" points="2918.23,198.656 2918.23,424.86"/>
<polyline class="FretDiagram" fill="#fc02ff" stroke="#0000ff" stroke-width="4.76" stroke-linejoin="bevel" points="2959.9,198.656 2959.9,424.86"/>
<polyline class="FretDiagram" fill="#fc02ff" stroke="#0000ff" stroke-width="4.76" stroke-linejoin="bevel" points="2751.56,258.183 2959.9,258.183"/>
<polyline class="FretDiagram" fill="#fc02ff" stroke="#0000ff" stroke-width="4.76" stroke-linejoin="bevel" points="2751.56,305.805 2959.9,305.805"/>
<polyline class="FretDiagram" fill="#fc02ff" stroke="#0000ff" stroke-width="4.76" stroke-linejoin="bevel" points="2751.56,353.427 2959.9,353.427"/>
<polyline class="FretDiagram" fill="#fc02ff" stroke="#0000ff" stroke-width="4.76" stroke-linejoin="bevel" points="2751.56,401.049 2959.9,401.049"/>
<path class="FretDiagram" fill="#0000ff" fill-rule="evenodd" d="M2766.14,329.616 C2766.14,337.671 2759.61,344.2 2751.56,344.2 C2743.5,344.2 2736.97,337.671 2736.97,329.616 C2736.97,321.561 2743.5,315.032 2751.56,315.032 C2759.61,315.032 2766.14,321.561 2766.14,329.616"/>
<path class="FretDiagram" fill="#0000ff" fill-rule="evenodd" d="M2849.48,234.372 C2849.48,242.427 2842.95,248.956 2834.89,248.956 C2826.84,248.956 2820.31,242.427 2820.31,234.372 C2820.31,226.317 2826.84,219.788 2834.89,219.788 C2842.95,219.788 2849.48,226.317 2849.48,234.372"/>
<path class="FretDiagram" fill="#0000ff" fill-rule="evenodd" d="M2891.15,377.238 C2891.15,385.293 2884.62,391.822 2876.56,391.822 C2868.51,391.822 2861.98,385.293 2861.98,377.238 C2861.98,369.184 2868.51,362.654 2876.56,362.654 C2884.62,362.654 2891.15,369.184 2891.15,377.238"/>
<path class="FretDiagram" fill="#0000ff" fill-rule="evenodd" d="M2932.82,281.994 C2932.82,290.049 2926.29,296.578 2918.23,296.578 C2910.18,296.578 2903.65,290.049 2903.65,281.994 C2903.65,273.939 2910.18,267.41 2918.23,267.41 C2926.29,267.41 2932.82,273.939 2932.82,281.994"/>
<polyline class="FretDiagram" fill="none" stroke="#0000ff" stroke-width="6.86" stroke-linecap="round" stroke-linejoin="bevel" points="2776.56,146.271 2809.89,179.607"/>
<polyline class="FretDiagram" fill="none" stroke="#0000ff" stroke-width="6.86" stroke-linecap="round" stroke-linejoin="bevel" points="2776.56,179.607 2809.89,146.271"/>
<polyline class="FretDiagram" fill="none" stroke="#0000ff" stroke-width="6.86" stroke-linecap="round" stroke-linejoin="bevel" points="2943.23,146.271 2976.57,179.607"/>
<polyline class="FretDiagram" fill="none" stroke="#0000ff" stroke-width="6.86" stroke-linecap="round" stroke-linejoin="bevel" points="2943.23,179.607 2976.57,146.271"/>
<path class="FretDiagram" fill="#0000ff" d="M2713.15,251.474 L2684.75,251.474 L2684.75,242.639 L2715.34,200.269 L2721.51,200.269 L2721.51,243.969 L2731.49,243.969 L2731.49,251.474 L2721.51,251.474 L2721.51,267.624 L2713.15,267.624 L2713.15,251.474 M2713.15,243.969 L2713.15,214.519 L2692.06,243.969 L2713.15,243.969 "/>
<polyline class="FretDiagram" fill="#0000ff" stroke="#0000ff" stroke-width="4.76" stroke-linejoin="bevel" points="3373.33,210.561 3586.44,210.561"/>
<polyline class="FretDiagram" fill="#0000ff" stroke="#0000ff" stroke-width="4.76" stroke-linejoin="bevel" points="3375.71,198.656 3375.71,424.86"/>
<polyline class="FretDiagram" fill="#0000ff" stroke="#0000ff" stroke-width="4.76" stroke-linejoin="bevel" points="3417.38,198.656 3417.38,424.86"/>
<polyline class="FretDiagram" fill="#0000ff" stroke="#0000ff" stroke-width="4.76" stroke-linejoin="bevel" points="3459.05,198.656 3459.05,424.86"/>
<polyline class="FretDiagram" fill="#0000ff" stroke="#0000ff" stroke-width="4.76" stroke-linejoin="bevel" points="3500.72,198.656 3500.72,424.86"/>
<polyline class="FretDiagram" fill="#0000ff" stroke="#0000ff" stroke-width="4.76" stroke-linejoin="bevel" points="3542.39,198.656 3542.39,424.86"/>
<polyline class="FretDiagram" fill="#0000ff" stroke="#0000ff" stroke-width="4.76" stroke-linejoin="bevel" points="3584.06,198.656 3584.06,424.86"/>
<polyline class="FretDiagram" fill="#0000ff" stroke="#0000ff" stroke-width="4.76" stroke-linejoin="bevel" points="3375.71,258.183 3584.06,258.183"/>
<polyline class="FretDiagram" fill="#0000ff" stroke="#0000ff" stroke-width="4.76" stroke-linejoin="bevel" points="3375.71,305.805 3584.06,305.805"/>
<polyline class="FretDiagram" fill="#0000ff" stroke="#0000ff" stroke-width="4.76" stroke-linejoin="bevel" points="3375.71,353.427 3584.06,353.427"/>
<polyline class="FretDiagram" fill="#0000ff" stroke="#0000ff" stroke-width="4.76" stroke-linejoin="bevel" points="3375.71,401.049 3584.06,401.049"/>
<path class="FretDiagram" fill="#0000ff" fill-rule="evenodd" d="M3390.3,329.616 C3390.3,337.671 3383.77,344.2 3375.71,344.2 C3367.66,344.2 3361.13,337.671 3361.13,329.616 C3361.13,321.561 3367.66,315.032 3375.71,315.032 C3383.77,315.032 3390.3,321.561 3390.3,329.616"/>
<path class="FretDiagram" fill="#0000ff" fill-rule="evenodd" d="M3431.97,234.372 C3431.97,242.427 3425.44,248.956 3417.38,248.956 C3409.33,248.956 3402.8,242.427 3402.8,234.372 C3402.8,226.317 3409.33,219.788 3417.38,219.788 C3425.44,219.788 3431.97,226.317 3431.97,234.372"/>
<path class="FretDiagram" fill="#0000ff" fill-rule="evenodd" d="M3473.64,234.372 C3473.64,242.427 3467.11,248.956 3459.05,248.956 C3451,248.956 3444.47,242.427 3444.47,234.372 C3444.47,226.317 3451,219.788 3459.05,219.788 C3467.11,219.788 3473.64,226.317 3473.64,234.372"/>
<path class="FretDiagram" fill="#0000ff" fill-rule="evenodd" d="M3556.98,281.994 C3556.98,290.049 3550.45,296.578 3542.39,296.578 C3534.34,296.578 3527.81,290.049 3527.81,281.994 C3527.81,273.939 3534.34,267.41 3542.39,267.41 C3550.45,267.41 3556.98,273.939 3556.98,281.994"/>
<polyline class="FretDiagram" fill="none" stroke="#0000ff" stroke-width="6.86" stroke-linecap="round" stroke-linejoin="bevel" points="3484.05,146.271 3517.39,179.607"/>
<polyline class="FretDiagram" fill="none" stroke="#0000ff" stroke-width="6.86" stroke-linecap="round" stroke-linejoin="bevel" points="3484.05,179.607 3517.39,146.271"/>
<polyline class="FretDiagram" fill="none" stroke="#0000ff" stroke-width="6.86" stroke-linecap="round" stroke-linejoin="bevel" points="3567.39,146.271 3600.73,179.607"/>
<polyline class="FretDiagram" fill="none" stroke="#0000ff" stroke-width="6.86" stroke-linecap="round" stroke-linejoin="bevel" points="3567.39,179.607 3600.73,146.271"/>
<path class="FretDiagram" fill="#0000ff" d="M3337.31,251.474 L3308.91,251.474 L3308.91,242.639 L3339.5,200.269 L3345.67,200.269 L3345.67,243.969 L3355.65,243.969 L3355.65,251.474 L3345.67,251.474 L3345.67,267.624 L3337.31,267.624 L3337.31,251.474 M3337.31,243.969 L3337.31,214.519 L3316.22,243.969 L3337.31,243.969 "/>
<path class="Bracket" transform="matrix(8.6315,0,0,10.3419,76.1285,2438.87)" d="M0.92002,-50 C2.69004,-51.88 6.2,-55.8 6.2,-63 C6.2,-72.1 2.25996,-81.32 2.25996,-86.97 C2.25996,-93.06 5.84004,-98.84 5.95,-99 C6.05996,-99.16 6.05,-99.39 5.94004,-99.46 C5.82998,-99.53 5.62002,-99.47 5.49004,-99.32 C5.35996,-99.17 0,-93.75 0,-85.6 C0,-76.75 3.5,-70.58 3.5,-59.07 C3.5,-56.89 2.55996,-53.36 0.1,-50.33 C-0.0799805,-50.17 -0.1,-49.89 0.0599609,-49.7 L0.0700195,-49.69 L0.1,-49.66 C2.55996,-46.63 3.5,-43.1 3.5,-40.92 C3.5,-29.4 0,-23.24 0,-14.39 C0,-6.25 5.35996,-0.8 5.49004,-0.659961 C5.62002,-0.52002 5.8,-0.42998 5.94004,-0.52002 C6.07998,-0.609961 6.07998,-0.77998 5.95,-0.97998 C5.82002,-1.17998 2.25996,-6.92002 2.25996,-13.01 C2.25996,-18.66 6.2,-27.9 6.2,-37 C6.2,-44.3 2.69004,-48.12 0.92002,-50"/>
</svg>
