<?xml version="1.0" encoding="UTF-8" standalone="no"?>
<svg width="850.394px" height="566.929px" viewBox="0 0 850.394 566.929"
 xmlns="http://www.w3.org/2000/svg" xmlns:xlink="http://www.w3.org/1999/xlink" version="1.2" baseProfile="tiny">
<title>Diagrammes Accords Glissants (6)</title>
<desc>Generated by MuseScore 3.6.2</desc>
<polyline class="StaffLines" fill="none" stroke="#000000" stroke-width="1.25" stroke-linejoin="bevel" points="43.4803,110.169 822.047,110.169"/>
<polyline class="StaffLines" fill="none" stroke="#000000" stroke-width="1.25" stroke-linejoin="bevel" points="43.4803,127.176 822.047,127.176"/>
<polyline class="StaffLines" fill="none" stroke="#000000" stroke-width="1.25" stroke-linejoin="bevel" points="43.4803,144.184 822.047,144.184"/>
<polyline class="StaffLines" fill="none" stroke="#000000" stroke-width="1.25" stroke-linejoin="bevel" points="43.4803,161.192 822.047,161.192"/>
<polyline class="StaffLines" fill="none" stroke="#000000" stroke-width="1.25" stroke-linejoin="bevel" points="43.4803,178.2 822.047,178.2"/>
<polyline class="StaffLines" fill="none" stroke="#000000" stroke-width="1.25" stroke-linejoin="bevel" points="43.4803,195.208 822.047,195.208"/>
<polyline class="StaffLines" fill="none" stroke="#000000" stroke-width="1.25" stroke-linejoin="bevel" points="43.4803,268.909 822.047,268.909"/>
<polyline class="StaffLines" fill="none" stroke="#000000" stroke-width="1.25" stroke-linejoin="bevel" points="43.4803,280.247 822.047,280.247"/>
<polyline class="StaffLines" fill="none" stroke="#000000" stroke-width="1.25" stroke-linejoin="bevel" points="43.4803,291.586 822.047,291.586"/>
<polyline class="StaffLines" fill="none" stroke="#000000" stroke-width="1.25" stroke-linejoin="bevel" points="43.4803,302.924 822.047,302.924"/>
<polyline class="StaffLines" fill="none" stroke="#000000" stroke-width="1.25" stroke-linejoin="bevel" points="43.4803,314.263 822.047,314.263"/>
<polyline class="StaffLines" fill="none" stroke="#000000" stroke-width="1.25" stroke-linejoin="bevel" points="43.4803,414.538 822.047,414.538"/>
<polyline class="StaffLines" fill="none" stroke="#000000" stroke-width="1.25" stroke-linejoin="bevel" points="43.4803,425.876 822.047,425.876"/>
<polyline class="StaffLines" fill="none" stroke="#000000" stroke-width="1.25" stroke-linejoin="bevel" points="43.4803,437.215 822.047,437.215"/>
<polyline class="StaffLines" fill="none" stroke="#000000" stroke-width="1.25" stroke-linejoin="bevel" points="43.4803,448.554 822.047,448.554"/>
<polyline class="StaffLines" fill="none" stroke="#000000" stroke-width="1.25" stroke-linejoin="bevel" points="43.4803,459.892 822.047,459.892"/>
<path class="Symbol" transform="matrix(0.453543,0,0,0.453543,111.969,302.924)" d="M0,-0.1 C0,7.7 4,14 10.4,18.1 L10.9,17.4 C7.5,14.8 6.3,13.3 5.2,10.1 C4.2,7.2 3.7,4 3.7,-0.2 C3.7,-8.1 4.8,-12.3 10.9,-17.4 L10.5,-18.1 C3.9,-13.6 0,-8.5 0,-0.1"/>
<path class="Symbol" transform="matrix(0.453543,0,0,0.453543,133.828,302.924)" d="M3.7,-0.2 C3.7,4 3.2,7.2 2.2,10.1 C1,13.3 -0.2,14.8 -3.6,17.4 L-3,18.1 C3.4,14.1 7.3,7.6 7.3,-0.1 C7.3,-8.4 3.4,-13.8 -3.2,-18.1 L-3.6,-17.4 C2.6,-12.4 3.7,-8.1 3.7,-0.2"/>
<path class="Symbol" transform="matrix(0.453543,0,0,0.453543,112.02,120.605)" d="M0,-0.1 C0,7.7 4,14 10.4,18.1 L10.9,17.4 C7.5,14.8 6.3,13.3 5.2,10.1 C4.2,7.2 3.7,4 3.7,-0.2 C3.7,-8.1 4.8,-12.3 10.9,-17.4 L10.5,-18.1 C3.9,-13.6 0,-8.5 0,-0.1"/>
<path class="Symbol" transform="matrix(0.453543,0,0,0.453543,136.047,118.415)" d="M3.7,-0.2 C3.7,4 3.2,7.2 2.2,10.1 C1,13.3 -0.2,14.8 -3.6,17.4 L-3,18.1 C3.4,14.1 7.3,7.6 7.3,-0.1 C7.3,-8.4 3.4,-13.8 -3.2,-18.1 L-3.6,-17.4 C2.6,-12.4 3.7,-8.1 3.7,-0.2"/>
<polyline class="BarLine" fill="none" stroke="#000000" stroke-width="2.04" stroke-linejoin="bevel" points="44.5008,413.914 44.5008,460.516"/>
<polyline class="BarLine" fill="none" stroke="#000000" stroke-width="2.04" stroke-linejoin="bevel" points="335.178,413.914 335.178,460.516"/>
<polyline class="BarLine" fill="none" stroke="#000000" stroke-width="2.04" stroke-linejoin="bevel" points="575.347,413.914 575.347,460.516"/>
<polyline class="BarLine" fill="none" stroke="#000000" stroke-width="2.04" stroke-linejoin="bevel" points="814.791,413.914 814.791,460.516"/>
<polyline class="BarLine" fill="none" stroke="#000000" stroke-width="2.04" stroke-linejoin="bevel" points="821.027,413.914 821.027,460.516"/>
<polyline class="BarLine" fill="none" stroke="#000000" stroke-width="2.04" stroke-linejoin="bevel" points="44.5008,268.285 44.5008,414.538"/>
<polyline class="BarLine" fill="none" stroke="#000000" stroke-width="2.04" stroke-linejoin="bevel" points="335.178,268.285 335.178,314.887"/>
<polyline class="BarLine" fill="none" stroke="#000000" stroke-width="2.04" stroke-linejoin="bevel" points="575.347,268.285 575.347,314.887"/>
<polyline class="BarLine" fill="none" stroke="#000000" stroke-width="2.04" stroke-linejoin="bevel" points="814.791,268.285 814.791,314.887"/>
<polyline class="BarLine" fill="none" stroke="#000000" stroke-width="2.04" stroke-linejoin="bevel" points="821.027,268.285 821.027,314.887"/>
<polyline class="BarLine" fill="none" stroke="#000000" stroke-width="2.04" stroke-linejoin="bevel" points="44.5008,109.545 44.5008,268.909"/>
<polyline class="BarLine" fill="none" stroke="#000000" stroke-width="2.04" stroke-linejoin="bevel" points="335.178,109.545 335.178,195.831"/>
<polyline class="BarLine" fill="none" stroke="#000000" stroke-width="2.04" stroke-linejoin="bevel" points="575.347,109.545 575.347,195.831"/>
<polyline class="BarLine" fill="none" stroke="#000000" stroke-width="2.04" stroke-linejoin="bevel" points="814.791,109.545 814.791,195.831"/>
<polyline class="BarLine" fill="none" stroke="#000000" stroke-width="2.04" stroke-linejoin="bevel" points="821.027,109.545 821.027,195.831"/>
<path class="Accidental" transform="matrix(0.453543,0,0,0.453543,347.152,425.876)" d="M23.3,-10.6 C23.9,-10.7 24.4,-11.4 24.4,-12 L24.4,-17.9 C24.4,-18.7 23.8,-19.3 23,-19.3 L22.8,-19.3 L19.5,-18.6 L19.5,-33.5 L16.7,-33.5 L16.7,-18 L7.8,-16.2 L7.8,-30.3 L5,-30.3 L5,-15.6 L1.1,-14.8 C0.5,-14.7 0,-14 0,-13.4 L0,-13.2 L0,-7.4 L0,-7.6 C0,-6.8 0.6,-6.2 1.4,-6.2 L1.7,-6.2 L5,-6.9 L5,9.6 L1.1,10.4 C0.5,10.5 0,11.2 0,11.8 L0,17.6 C0,18.4 0.6,19 1.4,19 L1.7,19 L5,18.3 L5,33.2 L7.8,33.2 L7.8,17.7 L16.7,15.9 L16.7,30 L19.5,30 L19.5,15.3 L23.3,14.6 C23.9,14.5 24.4,13.8 24.4,13.2 L24.4,7.3 C24.4,6.5 23.8,5.9 23,5.9 L22.8,5.9 L19.5,6.6 L19.5,-9.9 L23.3,-10.6 M7.8,9.1 L7.8,-7.5 L16.7,-9.3 L16.7,7.2 L7.8,9.1 "/>
<path class="Accidental" transform="matrix(0.453543,0,0,0.453543,586.596,442.884)" d="M23.3,-10.6 C23.9,-10.7 24.4,-11.4 24.4,-12 L24.4,-17.9 C24.4,-18.7 23.8,-19.3 23,-19.3 L22.8,-19.3 L19.5,-18.6 L19.5,-33.5 L16.7,-33.5 L16.7,-18 L7.8,-16.2 L7.8,-30.3 L5,-30.3 L5,-15.6 L1.1,-14.8 C0.5,-14.7 0,-14 0,-13.4 L0,-13.2 L0,-7.4 L0,-7.6 C0,-6.8 0.6,-6.2 1.4,-6.2 L1.7,-6.2 L5,-6.9 L5,9.6 L1.1,10.4 C0.5,10.5 0,11.2 0,11.8 L0,17.6 C0,18.4 0.6,19 1.4,19 L1.7,19 L5,18.3 L5,33.2 L7.8,33.2 L7.8,17.7 L16.7,15.9 L16.7,30 L19.5,30 L19.5,15.3 L23.3,14.6 C23.9,14.5 24.4,13.8 24.4,13.2 L24.4,7.3 C24.4,6.5 23.8,5.9 23,5.9 L22.8,5.9 L19.5,6.6 L19.5,-9.9 L23.3,-10.6 M7.8,9.1 L7.8,-7.5 L16.7,-9.3 L16.7,7.2 L7.8,9.1 "/>
<path class="Note" transform="matrix(0.453543,0,0,0.453543,116.912,408.869)" d="M18.7,-13.6 C4.9,-13.6 0,-6.6 0,-0.1 C0,6.4 4.9,13.4 18.7,13.4 C32.5,13.4 37.3,6.4 37.3,-0.1 C37.3,-6.6 32.5,-13.6 18.7,-13.6 M10.4,-4.5 C10.3,-4.9 10.3,-5.3 10.3,-5.7 C10.3,-6.5 10.5,-7.3 10.9,-8 C11.6,-9 12.8,-9.7 14.3,-10 C15.6,-10.3 16.3,-10.5 18.9,-10.5 L19,-10.5 C23,-10.5 24.3,-6.8 25.4,-3 L25.7,-2 C26.5,0.6 26.9,2.8 26.9,4.5 C26.9,5.7 26.7,6.8 26.3,7.6 C25.7,8.7 24.7,9.4 23,9.8 C22.1,10 20.6,10.1 20.6,10.1 C20.1,10.1 19.7,10.2 19.3,10.2 C16.1,10.2 14.1,9 12.7,4.7 C11.5,1 11.3,-0.1 10.4,-4.5"/>
<path class="Note" transform="matrix(0.453543,0,0,0.453543,361.053,425.876)" d="M18.7,-13.6 C4.9,-13.6 0,-6.6 0,-0.1 C0,6.4 4.9,13.4 18.7,13.4 C32.5,13.4 37.3,6.4 37.3,-0.1 C37.3,-6.6 32.5,-13.6 18.7,-13.6 M10.4,-4.5 C10.3,-4.9 10.3,-5.3 10.3,-5.7 C10.3,-6.5 10.5,-7.3 10.9,-8 C11.6,-9 12.8,-9.7 14.3,-10 C15.6,-10.3 16.3,-10.5 18.9,-10.5 L19,-10.5 C23,-10.5 24.3,-6.8 25.4,-3 L25.7,-2 C26.5,0.6 26.9,2.8 26.9,4.5 C26.9,5.7 26.7,6.8 26.3,7.6 C25.7,8.7 24.7,9.4 23,9.8 C22.1,10 20.6,10.1 20.6,10.1 C20.1,10.1 19.7,10.2 19.3,10.2 C16.1,10.2 14.1,9 12.7,4.7 C11.5,1 11.3,-0.1 10.4,-4.5"/>
<path class="Note" transform="matrix(0.453543,0,0,0.453543,600.496,442.884)" d="M18.7,-13.6 C4.9,-13.6 0,-6.6 0,-0.1 C0,6.4 4.9,13.4 18.7,13.4 C32.5,13.4 37.3,6.4 37.3,-0.1 C37.3,-6.6 32.5,-13.6 18.7,-13.6 M10.4,-4.5 C10.3,-4.9 10.3,-5.3 10.3,-5.7 C10.3,-6.5 10.5,-7.3 10.9,-8 C11.6,-9 12.8,-9.7 14.3,-10 C15.6,-10.3 16.3,-10.5 18.9,-10.5 L19,-10.5 C23,-10.5 24.3,-6.8 25.4,-3 L25.7,-2 C26.5,0.6 26.9,2.8 26.9,4.5 C26.9,5.7 26.7,6.8 26.3,7.6 C25.7,8.7 24.7,9.4 23,9.8 C22.1,10 20.6,10.1 20.6,10.1 C20.1,10.1 19.7,10.2 19.3,10.2 C16.1,10.2 14.1,9 12.7,4.7 C11.5,1 11.3,-0.1 10.4,-4.5"/>
<path class="Note" transform="matrix(0.453543,0,0,0.453543,116.912,302.924)" d="M18.7,-13.6 C4.9,-13.6 0,-6.6 0,-0.1 C0,6.4 4.9,13.4 18.7,13.4 C32.5,13.4 37.3,6.4 37.3,-0.1 C37.3,-6.6 32.5,-13.6 18.7,-13.6 M10.4,-4.5 C10.3,-4.9 10.3,-5.3 10.3,-5.7 C10.3,-6.5 10.5,-7.3 10.9,-8 C11.6,-9 12.8,-9.7 14.3,-10 C15.6,-10.3 16.3,-10.5 18.9,-10.5 L19,-10.5 C23,-10.5 24.3,-6.8 25.4,-3 L25.7,-2 C26.5,0.6 26.9,2.8 26.9,4.5 C26.9,5.7 26.7,6.8 26.3,7.6 C25.7,8.7 24.7,9.4 23,9.8 C22.1,10 20.6,10.1 20.6,10.1 C20.1,10.1 19.7,10.2 19.3,10.2 C16.1,10.2 14.1,9 12.7,4.7 C11.5,1 11.3,-0.1 10.4,-4.5"/>
<path class="Note" transform="matrix(0.453543,0,0,0.453543,116.912,280.247)" d="M18.7,-13.6 C4.9,-13.6 0,-6.6 0,-0.1 C0,6.4 4.9,13.4 18.7,13.4 C32.5,13.4 37.3,6.4 37.3,-0.1 C37.3,-6.6 32.5,-13.6 18.7,-13.6 M10.4,-4.5 C10.3,-4.9 10.3,-5.3 10.3,-5.7 C10.3,-6.5 10.5,-7.3 10.9,-8 C11.6,-9 12.8,-9.7 14.3,-10 C15.6,-10.3 16.3,-10.5 18.9,-10.5 L19,-10.5 C23,-10.5 24.3,-6.8 25.4,-3 L25.7,-2 C26.5,0.6 26.9,2.8 26.9,4.5 C26.9,5.7 26.7,6.8 26.3,7.6 C25.7,8.7 24.7,9.4 23,9.8 C22.1,10 20.6,10.1 20.6,10.1 C20.1,10.1 19.7,10.2 19.3,10.2 C16.1,10.2 14.1,9 12.7,4.7 C11.5,1 11.3,-0.1 10.4,-4.5"/>
<path class="Note" transform="matrix(0.453543,0,0,0.453543,116.912,268.909)" d="M18.7,-13.6 C4.9,-13.6 0,-6.6 0,-0.1 C0,6.4 4.9,13.4 18.7,13.4 C32.5,13.4 37.3,6.4 37.3,-0.1 C37.3,-6.6 32.5,-13.6 18.7,-13.6 M10.4,-4.5 C10.3,-4.9 10.3,-5.3 10.3,-5.7 C10.3,-6.5 10.5,-7.3 10.9,-8 C11.6,-9 12.8,-9.7 14.3,-10 C15.6,-10.3 16.3,-10.5 18.9,-10.5 L19,-10.5 C23,-10.5 24.3,-6.8 25.4,-3 L25.7,-2 C26.5,0.6 26.9,2.8 26.9,4.5 C26.9,5.7 26.7,6.8 26.3,7.6 C25.7,8.7 24.7,9.4 23,9.8 C22.1,10 20.6,10.1 20.6,10.1 C20.1,10.1 19.7,10.2 19.3,10.2 C16.1,10.2 14.1,9 12.7,4.7 C11.5,1 11.3,-0.1 10.4,-4.5"/>
<path class="Note" transform="matrix(0.453543,0,0,0.453543,361.053,297.255)" d="M18.7,-13.6 C4.9,-13.6 0,-6.6 0,-0.1 C0,6.4 4.9,13.4 18.7,13.4 C32.5,13.4 37.3,6.4 37.3,-0.1 C37.3,-6.6 32.5,-13.6 18.7,-13.6 M10.4,-4.5 C10.3,-4.9 10.3,-5.3 10.3,-5.7 C10.3,-6.5 10.5,-7.3 10.9,-8 C11.6,-9 12.8,-9.7 14.3,-10 C15.6,-10.3 16.3,-10.5 18.9,-10.5 L19,-10.5 C23,-10.5 24.3,-6.8 25.4,-3 L25.7,-2 C26.5,0.6 26.9,2.8 26.9,4.5 C26.9,5.7 26.7,6.8 26.3,7.6 C25.7,8.7 24.7,9.4 23,9.8 C22.1,10 20.6,10.1 20.6,10.1 C20.1,10.1 19.7,10.2 19.3,10.2 C16.1,10.2 14.1,9 12.7,4.7 C11.5,1 11.3,-0.1 10.4,-4.5"/>
<path class="Note" transform="matrix(0.453543,0,0,0.453543,345.384,285.917)" d="M18.7,-13.6 C4.9,-13.6 0,-6.6 0,-0.1 C0,6.4 4.9,13.4 18.7,13.4 C32.5,13.4 37.3,6.4 37.3,-0.1 C37.3,-6.6 32.5,-13.6 18.7,-13.6 M10.4,-4.5 C10.3,-4.9 10.3,-5.3 10.3,-5.7 C10.3,-6.5 10.5,-7.3 10.9,-8 C11.6,-9 12.8,-9.7 14.3,-10 C15.6,-10.3 16.3,-10.5 18.9,-10.5 L19,-10.5 C23,-10.5 24.3,-6.8 25.4,-3 L25.7,-2 C26.5,0.6 26.9,2.8 26.9,4.5 C26.9,5.7 26.7,6.8 26.3,7.6 C25.7,8.7 24.7,9.4 23,9.8 C22.1,10 20.6,10.1 20.6,10.1 C20.1,10.1 19.7,10.2 19.3,10.2 C16.1,10.2 14.1,9 12.7,4.7 C11.5,1 11.3,-0.1 10.4,-4.5"/>
<path class="Note" transform="matrix(0.453543,0,0,0.453543,361.053,280.247)" d="M18.7,-13.6 C4.9,-13.6 0,-6.6 0,-0.1 C0,6.4 4.9,13.4 18.7,13.4 C32.5,13.4 37.3,6.4 37.3,-0.1 C37.3,-6.6 32.5,-13.6 18.7,-13.6 M10.4,-4.5 C10.3,-4.9 10.3,-5.3 10.3,-5.7 C10.3,-6.5 10.5,-7.3 10.9,-8 C11.6,-9 12.8,-9.7 14.3,-10 C15.6,-10.3 16.3,-10.5 18.9,-10.5 L19,-10.5 C23,-10.5 24.3,-6.8 25.4,-3 L25.7,-2 C26.5,0.6 26.9,2.8 26.9,4.5 C26.9,5.7 26.7,6.8 26.3,7.6 C25.7,8.7 24.7,9.4 23,9.8 C22.1,10 20.6,10.1 20.6,10.1 C20.1,10.1 19.7,10.2 19.3,10.2 C16.1,10.2 14.1,9 12.7,4.7 C11.5,1 11.3,-0.1 10.4,-4.5"/>
<path class="Note" transform="matrix(0.453543,0,0,0.453543,584.827,302.924)" d="M18.7,-13.6 C4.9,-13.6 0,-6.6 0,-0.1 C0,6.4 4.9,13.4 18.7,13.4 C32.5,13.4 37.3,6.4 37.3,-0.1 C37.3,-6.6 32.5,-13.6 18.7,-13.6 M10.4,-4.5 C10.3,-4.9 10.3,-5.3 10.3,-5.7 C10.3,-6.5 10.5,-7.3 10.9,-8 C11.6,-9 12.8,-9.7 14.3,-10 C15.6,-10.3 16.3,-10.5 18.9,-10.5 L19,-10.5 C23,-10.5 24.3,-6.8 25.4,-3 L25.7,-2 C26.5,0.6 26.9,2.8 26.9,4.5 C26.9,5.7 26.7,6.8 26.3,7.6 C25.7,8.7 24.7,9.4 23,9.8 C22.1,10 20.6,10.1 20.6,10.1 C20.1,10.1 19.7,10.2 19.3,10.2 C16.1,10.2 14.1,9 12.7,4.7 C11.5,1 11.3,-0.1 10.4,-4.5"/>
<path class="Note" transform="matrix(0.453543,0,0,0.453543,600.496,297.255)" d="M18.7,-13.6 C4.9,-13.6 0,-6.6 0,-0.1 C0,6.4 4.9,13.4 18.7,13.4 C32.5,13.4 37.3,6.4 37.3,-0.1 C37.3,-6.6 32.5,-13.6 18.7,-13.6 M10.4,-4.5 C10.3,-4.9 10.3,-5.3 10.3,-5.7 C10.3,-6.5 10.5,-7.3 10.9,-8 C11.6,-9 12.8,-9.7 14.3,-10 C15.6,-10.3 16.3,-10.5 18.9,-10.5 L19,-10.5 C23,-10.5 24.3,-6.8 25.4,-3 L25.7,-2 C26.5,0.6 26.9,2.8 26.9,4.5 C26.9,5.7 26.7,6.8 26.3,7.6 C25.7,8.7 24.7,9.4 23,9.8 C22.1,10 20.6,10.1 20.6,10.1 C20.1,10.1 19.7,10.2 19.3,10.2 C16.1,10.2 14.1,9 12.7,4.7 C11.5,1 11.3,-0.1 10.4,-4.5"/>
<path class="Note" transform="matrix(0.453543,0,0,0.453543,600.496,274.578)" d="M18.7,-13.6 C4.9,-13.6 0,-6.6 0,-0.1 C0,6.4 4.9,13.4 18.7,13.4 C32.5,13.4 37.3,6.4 37.3,-0.1 C37.3,-6.6 32.5,-13.6 18.7,-13.6 M10.4,-4.5 C10.3,-4.9 10.3,-5.3 10.3,-5.7 C10.3,-6.5 10.5,-7.3 10.9,-8 C11.6,-9 12.8,-9.7 14.3,-10 C15.6,-10.3 16.3,-10.5 18.9,-10.5 L19,-10.5 C23,-10.5 24.3,-6.8 25.4,-3 L25.7,-2 C26.5,0.6 26.9,2.8 26.9,4.5 C26.9,5.7 26.7,6.8 26.3,7.6 C25.7,8.7 24.7,9.4 23,9.8 C22.1,10 20.6,10.1 20.6,10.1 C20.1,10.1 19.7,10.2 19.3,10.2 C16.1,10.2 14.1,9 12.7,4.7 C11.5,1 11.3,-0.1 10.4,-4.5"/>
<path class="Note" d="M110.674,110.501 C110.734,108.24 111.984,106.233 114.425,104.481 C116.596,102.924 118.97,102.145 121.545,102.145 C125.154,102.145 128.336,103.56 131.091,106.39 C132.843,108.202 133.719,110.448 133.719,113.129 C133.719,115.539 133.075,117.389 131.787,118.676 C130.215,120.264 128.553,121.057 126.801,121.057 C125.603,121.057 124.675,120.788 124.016,120.249 C122.938,119.365 122.399,118.182 122.399,116.7 C122.399,114.783 123.357,113.031 125.274,111.444 C126.846,110.141 128.426,109.288 130.013,108.883 C129.594,108.165 129.062,107.491 128.418,106.862 C126.412,104.9 124.136,103.92 121.59,103.92 C118.94,103.92 116.746,104.496 115.009,105.649 C113.212,106.832 111.767,108.449 110.674,110.501 M130.575,110.074 C129.751,110.838 128.927,111.654 128.104,112.522 C126.487,114.229 125.678,115.846 125.678,117.374 C125.678,119.006 126.052,119.822 126.801,119.822 C127.475,119.822 128.418,118.901 129.631,117.059 C130.604,115.592 131.091,114.244 131.091,113.016 C131.091,111.968 130.919,110.987 130.575,110.074"/>
<path class="Note" d="M139.033,149.997 C137.806,151.928 135.866,153.531 133.216,154.803 C130.91,155.912 128.754,156.466 126.747,156.466 C125.145,156.466 123.812,156.144 122.749,155.5 C121.596,154.796 121.02,153.957 121.02,152.984 C121.02,150.783 121.596,148.889 122.749,147.302 C124.321,145.145 125.909,144.067 127.511,144.067 C128.649,144.067 129.458,144.292 129.937,144.741 C130.596,145.325 130.925,146.126 130.925,147.144 C130.925,148.582 129.854,149.832 127.713,150.895 C125.632,151.928 124.187,152.602 123.378,152.917 C123.558,153.291 123.79,153.628 124.074,153.927 C124.778,154.676 125.737,155.051 126.949,155.051 C128.477,155.051 130.528,154.489 133.104,153.366 C135.574,152.273 137.551,151.15 139.033,149.997 M123.064,151.884 C124.187,151.315 125.212,150.648 126.141,149.885 C127.518,148.761 128.207,147.549 128.207,146.246 C128.207,145.512 127.87,145.145 127.196,145.145 C126.627,145.145 125.849,145.797 124.861,147.099 C123.618,148.717 122.996,150.034 122.996,151.052 C122.996,151.337 123.019,151.614 123.064,151.884"/>
<path class="Note" d="M134.99,88.3267 C135.829,87.7577 136.435,87.286 136.81,86.9117 C137.499,86.1779 137.843,85.5041 137.843,84.8902 C137.843,84.1864 137.454,83.8345 136.675,83.8345 C135.163,83.8345 133.545,85.1672 131.823,87.8326 C131.299,88.6412 130.146,91.2766 128.364,95.7388 C129.787,97.2063 130.498,98.0373 130.498,98.232 C130.498,98.5015 130.326,98.6363 129.982,98.6363 C129.712,98.6363 128.971,98.1796 127.758,97.2662 C126.44,100.336 124.441,102.956 121.761,105.127 C119.021,107.344 115.749,108.452 111.946,108.452 C110.493,108.452 108.674,108.115 106.488,107.441 C104.736,106.902 103.86,106.041 103.86,104.858 C103.86,103.106 104.533,102.23 105.881,102.23 C106.69,102.23 107.094,102.604 107.094,103.353 C107.094,103.593 106.907,103.847 106.532,104.117 C106.338,104.252 106.24,104.514 106.24,104.903 C106.24,105.367 106.757,105.846 107.79,106.34 C108.913,106.879 110.56,107.149 112.732,107.149 C115.532,107.149 118.235,105.936 120.84,103.51 C123.206,101.309 124.905,98.7486 125.939,95.8287 C125.534,95.4992 125.1,95.1399 124.636,94.7505 C123.198,93.897 122.48,93.021 122.48,92.1226 C122.48,91.7483 122.727,91.5611 123.221,91.5611 C123.88,91.5611 124.771,92.1226 125.894,93.2457 C126.133,93.4852 126.358,93.7098 126.568,93.9195 C127.092,92.482 127.93,90.6552 129.083,88.439 C131.165,84.426 133.695,82.4195 136.675,82.4195 C137.738,82.4195 138.577,82.6216 139.191,83.0259 C139.805,83.4302 140.112,83.9843 140.112,84.688 C140.112,85.8111 139.7,86.7619 138.876,87.5406 C138.023,88.3492 137.132,88.7535 136.203,88.7535 C135.395,88.7535 134.99,88.6112 134.99,88.3267"/>
<path class="Note" d="M134.833,126.902 C134.833,128.624 132.872,132.405 128.948,138.245 C127.391,140.566 125.153,142.265 122.233,143.343 C120.076,144.152 117.583,144.556 114.753,144.556 C113.84,144.556 113.031,144.369 112.327,143.995 C111.549,143.591 111.159,143.149 111.159,142.67 C111.159,141.427 111.826,140.805 113.158,140.805 C113.353,140.805 113.45,140.925 113.45,141.165 C113.45,141.374 113.353,141.606 113.158,141.861 C112.919,142.175 112.799,142.408 112.799,142.557 C112.799,143.007 113.473,143.231 114.821,143.231 C117.845,143.231 120.234,142.864 121.986,142.131 C123.812,141.382 125.632,139.473 127.444,136.403 L127.96,135.437 C127.092,136.096 126.231,136.425 125.377,136.425 C123.251,136.425 122.188,135.564 122.188,133.842 C122.188,131.986 123.438,130.032 125.939,127.98 C127.9,126.393 129.645,125.599 131.172,125.599 C131.936,125.599 132.572,125.801 133.081,126.206 C133.261,126.071 133.486,126.004 133.755,126.004 C134.474,126.004 134.833,126.303 134.833,126.902 M128.23,134.966 L132.475,127.127 C132.145,127.052 131.779,127.014 131.374,127.014 C129.922,127.014 128.514,127.86 127.152,129.552 C125.564,131.529 124.771,133.109 124.771,134.292 C124.771,135.07 125.287,135.46 126.321,135.46 C126.815,135.46 127.451,135.295 128.23,134.966"/>
<path class="Note" d="M383.174,167.005 C381.946,168.936 380.007,170.539 377.357,171.811 C375.051,172.919 372.895,173.473 370.888,173.473 C369.286,173.473 367.953,173.151 366.89,172.508 C365.737,171.804 365.161,170.965 365.161,169.992 C365.161,167.791 365.737,165.897 366.89,164.309 C368.462,162.153 370.05,161.075 371.652,161.075 C372.79,161.075 373.598,161.3 374.078,161.749 C374.737,162.333 375.066,163.134 375.066,164.152 C375.066,165.59 373.995,166.84 371.854,167.903 C369.773,168.936 368.328,169.61 367.519,169.925 C367.699,170.299 367.931,170.636 368.215,170.935 C368.919,171.684 369.877,172.058 371.09,172.058 C372.618,172.058 374.669,171.497 377.245,170.374 C379.715,169.281 381.692,168.158 383.174,167.005 M367.205,168.891 C368.328,168.322 369.353,167.656 370.282,166.892 C371.659,165.769 372.348,164.556 372.348,163.254 C372.348,162.52 372.011,162.153 371.337,162.153 C370.768,162.153 369.99,162.804 369.001,164.107 C367.759,165.724 367.137,167.042 367.137,168.06 C367.137,168.345 367.16,168.622 367.205,168.891"/>
<path class="Note" d="M379.131,105.335 C379.97,104.766 380.576,104.294 380.951,103.92 C381.64,103.186 381.984,102.512 381.984,101.898 C381.984,101.194 381.595,100.842 380.816,100.842 C379.304,100.842 377.686,102.175 375.964,104.84 C375.44,105.649 374.287,108.284 372.505,112.747 C373.928,114.214 374.639,115.045 374.639,115.24 C374.639,115.509 374.467,115.644 374.123,115.644 C373.853,115.644 373.112,115.187 371.899,114.274 C370.581,117.344 368.582,119.964 365.902,122.135 C363.162,124.352 359.89,125.46 356.086,125.46 C354.634,125.46 352.815,125.123 350.628,124.449 C348.876,123.91 348.001,123.049 348.001,121.866 C348.001,120.114 348.674,119.238 350.022,119.238 C350.831,119.238 351.235,119.612 351.235,120.361 C351.235,120.601 351.048,120.855 350.673,121.125 C350.479,121.259 350.381,121.521 350.381,121.911 C350.381,122.375 350.898,122.854 351.931,123.348 C353.054,123.887 354.701,124.157 356.873,124.157 C359.673,124.157 362.376,122.944 364.981,120.518 C367.347,118.317 369.046,115.756 370.08,112.837 C369.675,112.507 369.241,112.148 368.777,111.758 C367.339,110.905 366.621,110.029 366.621,109.13 C366.621,108.756 366.868,108.569 367.362,108.569 C368.021,108.569 368.912,109.13 370.035,110.254 C370.274,110.493 370.499,110.718 370.709,110.927 C371.233,109.49 372.071,107.663 373.224,105.447 C375.306,101.434 377.836,99.4274 380.816,99.4274 C381.879,99.4274 382.718,99.6295 383.332,100.034 C383.945,100.438 384.252,100.992 384.252,101.696 C384.252,102.819 383.841,103.77 383.017,104.548 C382.164,105.357 381.273,105.761 380.344,105.761 C379.536,105.761 379.131,105.619 379.131,105.335"/>
<path class="Note" d="M354.815,93.4927 C354.875,91.2317 356.125,89.2251 358.566,87.4732 C360.737,85.9159 363.111,85.1373 365.686,85.1373 C369.295,85.1373 372.477,86.5523 375.232,89.3824 C376.984,91.1942 377.86,93.4403 377.86,96.1207 C377.86,98.5315 377.216,100.381 375.928,101.669 C374.356,103.256 372.694,104.049 370.942,104.049 C369.744,104.049 368.816,103.78 368.157,103.241 C367.079,102.357 366.54,101.174 366.54,99.6919 C366.54,97.7753 367.498,96.0233 369.415,94.4361 C370.987,93.1333 372.567,92.2798 374.154,91.8755 C373.735,91.1568 373.203,90.483 372.559,89.8541 C370.553,87.8925 368.277,86.9117 365.731,86.9117 C363.081,86.9117 360.887,87.4882 359.15,88.6412 C357.353,89.8241 355.908,91.4413 354.815,93.4927 M374.715,93.066 C373.892,93.8296 373.068,94.6457 372.245,95.5142 C370.628,97.2212 369.819,98.8384 369.819,100.366 C369.819,101.998 370.193,102.814 370.942,102.814 C371.616,102.814 372.559,101.893 373.772,100.051 C374.745,98.5839 375.232,97.2362 375.232,96.0083 C375.232,94.9602 375.06,93.9794 374.715,93.066"/>
<path class="Note" d="M354.815,127.508 C354.875,125.247 356.125,123.241 358.566,121.489 C360.737,119.932 363.111,119.153 365.686,119.153 C369.295,119.153 372.477,120.568 375.232,123.398 C376.984,125.21 377.86,127.456 377.86,130.136 C377.86,132.547 377.216,134.396 375.928,135.684 C374.356,137.271 372.694,138.065 370.942,138.065 C369.744,138.065 368.816,137.796 368.157,137.257 C367.079,136.373 366.54,135.19 366.54,133.708 C366.54,131.791 367.498,130.039 369.415,128.452 C370.987,127.149 372.567,126.296 374.154,125.891 C373.735,125.173 373.203,124.499 372.559,123.87 C370.553,121.908 368.277,120.927 365.731,120.927 C363.081,120.927 360.887,121.504 359.15,122.657 C357.353,123.84 355.908,125.457 354.815,127.508 M374.715,127.082 C373.892,127.845 373.068,128.661 372.245,129.53 C370.628,131.237 369.819,132.854 369.819,134.382 C369.819,136.014 370.193,136.83 370.942,136.83 C371.616,136.83 372.559,135.909 373.772,134.067 C374.745,132.6 375.232,131.252 375.232,130.024 C375.232,128.976 375.06,127.995 374.715,127.082"/>
<path class="Note" d="M622.618,184.013 C621.39,185.944 619.451,187.546 616.8,188.819 C614.494,189.927 612.338,190.481 610.331,190.481 C608.729,190.481 607.397,190.159 606.333,189.515 C605.18,188.812 604.604,187.973 604.604,187 C604.604,184.799 605.18,182.904 606.333,181.317 C607.906,179.161 609.493,178.083 611.095,178.083 C612.233,178.083 613.042,178.307 613.521,178.757 C614.18,179.341 614.509,180.142 614.509,181.16 C614.509,182.598 613.439,183.848 611.297,184.911 C609.216,185.944 607.771,186.618 606.962,186.932 C607.142,187.307 607.374,187.644 607.659,187.943 C608.362,188.692 609.321,189.066 610.534,189.066 C612.061,189.066 614.112,188.505 616.688,187.382 C619.159,186.289 621.135,185.166 622.618,184.013 M606.648,185.899 C607.771,185.33 608.797,184.664 609.725,183.9 C611.103,182.777 611.791,181.564 611.791,180.262 C611.791,179.528 611.454,179.161 610.781,179.161 C610.212,179.161 609.433,179.812 608.445,181.115 C607.202,182.732 606.58,184.05 606.58,185.068 C606.58,185.353 606.603,185.63 606.648,185.899"/>
<path class="Note" d="M594.258,110.501 C594.318,108.24 595.568,106.233 598.009,104.481 C600.18,102.924 602.554,102.145 605.129,102.145 C608.738,102.145 611.92,103.56 614.675,106.39 C616.427,108.202 617.303,110.448 617.303,113.129 C617.303,115.539 616.659,117.389 615.372,118.676 C613.799,120.264 612.137,121.057 610.385,121.057 C609.187,121.057 608.259,120.788 607.6,120.249 C606.522,119.365 605.983,118.182 605.983,116.7 C605.983,114.783 606.941,113.031 608.858,111.444 C610.43,110.141 612.01,109.288 613.597,108.883 C613.178,108.165 612.646,107.491 612.002,106.862 C609.996,104.9 607.72,103.92 605.174,103.92 C602.524,103.92 600.33,104.496 598.593,105.649 C596.796,106.832 595.351,108.449 594.258,110.501 M614.159,110.074 C613.335,110.838 612.512,111.654 611.688,112.522 C610.071,114.229 609.262,115.846 609.262,117.374 C609.262,119.006 609.637,119.822 610.385,119.822 C611.059,119.822 612.002,118.901 613.215,117.059 C614.189,115.592 614.675,114.244 614.675,113.016 C614.675,111.968 614.503,110.987 614.159,110.074"/>
<path class="Note" d="M607.142,155.073 C606.408,155.073 606.041,154.287 606.041,152.715 L606.041,146.134 C606.041,145.505 606.348,145.19 606.962,145.19 C607.232,145.19 607.434,145.213 607.569,145.258 C608.048,144.419 608.834,143.715 609.927,143.146 C611.454,142.353 613.004,141.956 614.577,141.956 C615.819,141.956 616.441,142.42 616.441,143.348 C616.441,144.127 616.022,144.516 615.183,144.516 C614.584,144.516 614.015,144.382 613.476,144.112 C612.997,143.872 612.488,143.753 611.949,143.753 C611.02,143.753 609.65,144.359 607.838,145.572 C608.093,146.785 608.22,148.2 608.22,149.817 C608.22,153.321 607.861,155.073 607.142,155.073"/>
<path class="Note" d="M618.575,122.342 C619.413,121.773 620.02,121.302 620.394,120.927 C621.083,120.194 621.427,119.52 621.427,118.906 C621.427,118.202 621.038,117.85 620.259,117.85 C618.747,117.85 617.13,119.183 615.408,121.848 C614.884,122.657 613.731,125.292 611.949,129.755 C613.371,131.222 614.082,132.053 614.082,132.248 C614.082,132.517 613.91,132.652 613.566,132.652 C613.296,132.652 612.555,132.195 611.342,131.282 C610.024,134.352 608.025,136.972 605.345,139.143 C602.605,141.359 599.333,142.467 595.53,142.467 C594.077,142.467 592.258,142.131 590.072,141.457 C588.32,140.918 587.444,140.057 587.444,138.874 C587.444,137.122 588.118,136.246 589.465,136.246 C590.274,136.246 590.678,136.62 590.678,137.369 C590.678,137.608 590.491,137.863 590.117,138.132 C589.922,138.267 589.825,138.529 589.825,138.919 C589.825,139.383 590.341,139.862 591.374,140.356 C592.497,140.895 594.145,141.165 596.316,141.165 C599.116,141.165 601.819,139.952 604.424,137.526 C606.79,135.325 608.49,132.764 609.523,129.844 C609.119,129.515 608.684,129.156 608.22,128.766 C606.783,127.913 606.064,127.037 606.064,126.138 C606.064,125.764 606.311,125.577 606.805,125.577 C607.464,125.577 608.355,126.138 609.478,127.261 C609.717,127.501 609.942,127.726 610.152,127.935 C610.676,126.498 611.514,124.671 612.667,122.455 C614.749,118.442 617.279,116.435 620.259,116.435 C621.322,116.435 622.161,116.637 622.775,117.042 C623.389,117.446 623.696,118 623.696,118.704 C623.696,119.827 623.284,120.778 622.46,121.556 C621.607,122.365 620.716,122.769 619.787,122.769 C618.979,122.769 618.575,122.627 618.575,122.342"/>
<path class="Clef" transform="matrix(0.453543,0,0,0.453543,54.5921,425.876)" d="M25.4,-25.1 C17.8,-25.1 11.7,-20.7 11.6,-20.7 C5.8,-16.4 3.5,-11.3 2.6,-7.8 C2.1,-6 1.9,-4.2 1.9,-2.5 C1.9,-0.1 2.3,2.1 3.2,4 C4.4,6.7 6.7,8.6 9.7,9.6 C10.9,10 12.2,10.2 13.5,10.2 C15.7,10.2 18,9.6 19.9,8.5 C23,6.8 24.9,3.2 24.9,-0.7 C24.9,-4.2 23.1,-7.4 20.1,-9.3 C18,-10.7 16,-11.1 14.3,-11.1 C13.1,-11.1 12,-10.9 11.1,-10.6 C10.1,-10.2 8.4,-9.2 7.6,-8.5 C7.9,-10.4 9.1,-13.3 10.2,-14.9 C11.3,-16.5 13.5,-18.5 15.2,-19.4 C17.7,-20.8 20.9,-21.4 24.4,-21.4 C34.6,-21.4 39.6,-13.2 39.6,3.6 C39.6,12.9 36.1,21.8 33.1,27.7 C29.8,34.3 25.4,40.6 21.5,44.1 C11.1,53.6 1.3,58.1 1.2,58.1 C1.2,58.1 -0.3,59 0.1,60.5 C0.4,61.5 1.3,61.7 1.9,61.7 C2,61.7 2.3,61.6 2.4,61.6 C2.5,61.6 13.9,56.9 23,49.8 C28.1,46.1 32.7,42.1 36.7,37.8 C40.3,33.9 43.4,29.7 45.9,25.5 C50.3,18 52.8,10.2 52.8,3.5 C52.8,-4.8 50.6,-11.7 46.5,-16.6 C41.8,-22.2 34.7,-25.1 25.4,-25.1 M56.8,-12.4 C56.8,-9.6 59,-7.4 61.6,-7.4 C64.2,-7.4 66.4,-9.6 66.4,-12.4 C66.4,-15.2 64.2,-17.5 61.6,-17.5 C59,-17.5 56.8,-15.2 56.8,-12.4 M56.8,12.3 C56.8,15.1 59,17.4 61.6,17.4 C64.2,17.4 66.4,15.1 66.4,12.3 C66.4,9.5 64.2,7.2 61.6,7.2 C59,7.2 56.8,9.5 56.8,12.3"/>
<path class="Clef" transform="matrix(0.453543,0,0,0.453543,54.5921,302.924)" d="M63.37,-5.89004 C62.14,-11.32 59.5,-15.14 58.72,-16.1801 C55.5301,-20.45 51.52,-23.3 46.8301,-24.65 C43.72,-25.54 40.72,-25.65 38.3,-25.47 C37.2601,-31.4801 36.2601,-37.3601 35.35,-42.8101 C40.79,-48.97 44.42,-54.77 46.69,-59.07 C50.1601,-65.65 51.3101,-70.2301 51.3601,-70.4301 C53.0801,-75.64 53.44,-83.34 52.34,-91.55 C51.3301,-99.1 49.24,-105.81 46.89,-109.06 C45.8601,-110.49 44.8101,-111.22 43.77,-111.22 C42.55,-111.22 40.04,-109.98 37.15,-107.21 C34.85,-105.01 31.5801,-101.12 29.02,-95.1101 C26.02,-88.05 25.8101,-78.5601 26.1601,-71.84 C26.54,-64.57 27.65,-58.8801 27.6601,-58.8301 C27.6801,-58.74 27.94,-57.24 28.39,-54.67 C28.1601,-54.44 27.92,-54.22 27.67,-53.9801 C26.6301,-52.9801 25.44,-51.84 24.0601,-50.4601 C23.2,-49.6 22.25,-48.69 21.25,-47.72 C12.79,-39.57 0,-27.25 0,-8.1 C0,-3.4 0.9,1.01992 2.68008,5.02998 C4.27002,8.62998 6.57002,11.91 9.5,14.78 C17.2301,22.33 27.82,25.5399 34.8801,25.38 C37.8301,25.31 40.4601,25.0699 42.85,24.6199 C44.6801,34.2199 45.82,41.25 45.8601,46.5899 C45.9,53.1 44.25,57.0699 40.35,59.8399 C37.92,61.5699 35.1101,62.5199 32.0101,62.6699 C29.42,62.7899 27.1601,62.3199 25.7301,61.91 L25.72,61.91 C25.72,61.91 25.4301,61.83 25.42,61.63 C25.4101,61.45 25.7601,61.4 25.77,61.4 L25.79,61.4 C27.7101,60.96 31.2801,59.73 33.64,56.43 C35.44,53.91 36.3101,49.2899 34.47,45.35 C33.3601,42.96 30.85,40.01 25.2301,39.56 C22.74,39.36 20.47,39.8699 18.47,41.0699 C16.6601,42.15 15.1601,43.7899 14.1101,45.7899 C11.65,50.4899 12.1101,56.2199 15.24,60.06 C18.2,63.68 22.82,65.9899 28.25,66.5699 C29.1,66.66 29.95,66.7 30.8,66.7 C31.5101,66.7 32.22,66.6699 32.92,66.61 C31.72,66.9399 30.64,67.4899 29.77,68.25 C28.2801,69.5399 27.44,71.38 27.44,73.41 C27.44,75.28 28.0601,76.65 29.55,78.0399 C28.4101,78.5 27.55,78.98 26.79,79.56 C25.25,80.73 24.34,82.46 24.34,84.1899 C24.34,87.45 27.3,89.63 31.72,89.63 C37.1301,89.63 40.9101,86.63 40.9101,82.35 C40.9101,80.1199 39.9101,78.18 38.0801,76.83 C41.0101,75.6199 42.37,73.9399 42.37,71.56 C42.39,70.05 41.69,68.61 40.49,67.6899 C39.2801,66.7399 37.62,66.2399 35.69,66.2399 L35.5101,66.2399 C38.2801,65.7 40.92,64.7 43.2101,63.28 C46.87,60.71 48.99,56.73 49.67,51.1 C50.2301,46.46 49.84,40.55 48.44,32.48 C48.0801,30.3899 47.54,27.36 46.8801,23.6 C52.6301,21.68 56.79,18.11 60.5601,12.26 C63.85,6.51992 64.8,0.419922 63.37,-5.89004 M32.39,87.5399 C30.19,87.5399 28.7301,86.1199 28.7301,84.01 C28.7301,82.11 29.65,80.5 31.32,79.4699 C31.6801,79.66 31.77,79.71 32.1101,79.88 C33.3,80.48 33.3,80.48 33.55,80.63 L33.5601,80.6399 C35.47,81.73 36.25,82.76 36.25,84.18 C36.24,86.0899 34.59,87.5399 32.39,87.5399 M38.3101,71.63 C38.3101,73.2699 37.7301,74.3399 36.1801,75.53 C34.74,74.78 34.35,74.56 33.9801,74.3399 L33.8801,74.28 C32.3301,73.3399 31.85,72.66 31.85,71.4 C31.85,69.6 33.2301,68.3399 35.19,68.3399 C37.17,68.35 38.3101,69.55 38.3101,71.63 M33.15,-83.8101 C34.9301,-89.55 37.67,-92.8 39.6601,-94.5301 C41.4101,-96.05 43.0601,-96.7601 43.9801,-96.7601 C44.12,-96.7601 44.24,-96.74 44.34,-96.7101 C44.8,-96.57 45.3301,-96 45.8,-95.1301 C48.1101,-90.84 47.37,-84.1301 46.0301,-79.69 C44.4,-74.29 41.4801,-68.6801 32.69,-59.0601 C32.52,-60.17 32.3601,-61.22 32.2101,-62.2 C30.95,-70.49 31.27,-77.7601 33.15,-83.8101 M29.15,20.31 C24.5101,19.0899 20.0801,16.5899 16.32,13.0899 C15.0101,11.86 13.14,9.68994 11.67,6.3 C10.3101,3.13994 9.65,-0.290039 9.7,-3.88008 C9.77002,-8.57002 11.0801,-13.39 13.59,-18.1801 C16.5101,-23.7601 21.07,-29.29 27.1301,-34.62 C28.5801,-35.9 29.95,-37.1801 31.24,-38.4601 C32,-34.2 32.8301,-29.5101 33.7101,-24.6301 C29.8601,-23.3601 25.1101,-20.2101 22,-14.5601 C18.47,-7.99004 18.6101,-2.47002 19.34,1.00996 C20.2801,5.46992 22.8101,9.22998 26.27,11.3199 C27.2,11.88 31.3301,14.01 33.17,13.43 C33.54,13.31 33.8101,13.0899 33.95,12.76 C34.4601,11.5899 33.44,10.95 31.8801,9.98994 C31.2801,9.61992 30.6101,9.2 29.8801,8.66992 C26.5601,6.17998 25.1101,1.72998 26.1801,-2.65 C26.7601,-5.05 28.04,-7.21006 29.8801,-8.91006 C31.55,-10.4601 33.59,-11.5601 35.97,-12.2 C38.0101,-0.960059 40.07,10.1899 41.7101,18.55 C41.84,19.2399 41.9801,19.91 42.1101,20.58 C37.7101,21.51 33.37,21.4199 29.15,20.31 M54.9,10.1 C53.7301,13.28 51.27,17.35 46.14,19.41 C46.07,18.9899 45.99,18.56 45.9101,18.13 C44.3601,9.36992 42.4301,-1.61006 40.47,-12.87 C50.82,-13.35 55.09,-5.91006 55.9801,-1.08008 C56.45,1.45 56.45,5.88994 54.9,10.1"/>
<path class="FiguredBass" d="M125.901,485.62 C125.034,485.62 124.457,485.969 124.169,486.666 C123.882,487.363 123.739,488.351 123.739,489.628 L123.739,491.702 C124.348,491.456 124.876,491.327 125.321,491.315 C126.844,491.315 128.043,491.652 128.916,492.326 C129.789,493 130.225,494.002 130.225,495.332 C130.225,496.662 129.783,497.667 128.898,498.347 C128.013,499.026 126.821,499.366 125.321,499.366 C123.786,499.366 122.585,498.654 121.717,497.23 C120.85,495.807 120.417,494.116 120.417,492.159 C120.417,490.214 120.92,488.526 121.928,487.097 C122.936,485.667 124.26,484.952 125.901,484.952 C126.979,484.952 127.911,485.225 128.696,485.77 C129.481,486.314 129.874,487.032 129.874,487.923 C129.874,488.438 129.686,488.884 129.311,489.259 C128.936,489.634 128.488,489.821 127.966,489.821 C127.445,489.821 126.997,489.634 126.622,489.259 C126.247,488.884 126.059,488.438 126.059,487.923 C126.059,487.419 126.247,486.974 126.622,486.587 C126.751,486.435 126.932,486.306 127.167,486.2 C127.108,486.048 126.991,485.931 126.815,485.849 C126.557,485.696 126.252,485.62 125.901,485.62 M126.762,492.81 C126.551,492.259 126.088,491.983 125.374,491.983 C124.659,491.983 124.216,492.259 124.046,492.81 C123.877,493.36 123.792,494.198 123.792,495.323 C123.792,496.647 123.877,497.538 124.046,497.995 C124.216,498.452 124.659,498.681 125.374,498.681 C126.088,498.681 126.551,498.405 126.762,497.854 C126.973,497.304 127.079,496.463 127.079,495.332 C127.079,494.201 126.973,493.36 126.762,492.81"/>
<path class="FiguredBass" d="M121.612,504.983 L122.456,505.106 C122.678,505.142 122.954,505.177 123.282,505.212 C124.09,505.306 124.87,505.353 125.62,505.353 C126.37,505.353 127.161,505.306 127.993,505.212 C128.321,505.177 128.608,505.142 128.854,505.106 L129.715,504.983 C129.891,504.983 130.026,505.042 130.12,505.159 C130.19,505.253 130.178,505.347 130.085,505.44 C128.256,507.233 125.731,508.13 122.508,508.13 C122.379,508.13 122.265,508.177 122.166,508.271 C122.066,508.364 122.016,508.481 122.016,508.622 L122.016,510.854 C122.848,510.034 123.856,509.624 125.04,509.624 C126.692,509.624 127.981,510.011 128.907,510.784 C129.915,510.022 130.442,509.05 130.489,507.866 C130.501,507.491 130.624,507.187 130.858,506.952 C131.116,506.718 131.426,506.601 131.79,506.601 C132.153,506.601 132.461,506.724 132.712,506.97 C132.964,507.216 133.09,507.515 133.09,507.866 C133.09,509.683 132.018,511.06 129.874,511.997 C130.225,512.688 130.401,513.532 130.401,514.528 C130.401,515.853 129.874,516.995 128.819,517.956 C127.764,518.917 126.504,519.397 125.04,519.397 C123.774,519.397 122.675,519.11 121.744,518.536 C120.812,517.962 120.346,517.165 120.346,516.146 C120.346,515.63 120.534,515.182 120.909,514.801 C121.284,514.42 121.732,514.229 122.253,514.229 C122.775,514.229 123.217,514.417 123.581,514.792 C123.944,515.167 124.126,515.618 124.126,516.146 C124.126,516.38 123.932,516.635 123.545,516.91 C123.159,517.186 122.965,517.44 122.965,517.675 C122.965,518.378 123.657,518.729 125.04,518.729 C126.387,518.729 127.061,517.329 127.061,514.528 C127.061,513.907 127.026,513.362 126.956,512.894 C125.538,513.187 123.762,513.415 121.629,513.579 C121.336,513.603 121.19,513.456 121.19,513.14 C121.19,512.882 121.336,512.741 121.629,512.718 C123.786,512.542 125.485,512.261 126.727,511.874 C126.399,510.937 125.836,510.462 125.04,510.45 C123.833,510.45 122.989,510.696 122.508,511.188 C122.028,511.681 121.729,511.927 121.612,511.927 C121.331,511.927 121.19,511.78 121.19,511.487 L121.19,505.44 C121.19,505.323 121.231,505.218 121.313,505.124 C121.407,505.03 121.506,504.983 121.612,504.983"/>
<path class="FiguredBass" d="M370.042,485.62 C369.175,485.62 368.598,485.969 368.31,486.666 C368.023,487.363 367.88,488.351 367.88,489.628 L367.88,491.702 C368.489,491.456 369.016,491.327 369.462,491.315 C370.985,491.315 372.183,491.652 373.057,492.326 C373.93,493 374.366,494.002 374.366,495.332 C374.366,496.662 373.924,497.667 373.039,498.347 C372.154,499.026 370.962,499.366 369.462,499.366 C367.927,499.366 366.725,498.654 365.858,497.23 C364.991,495.807 364.557,494.116 364.557,492.159 C364.557,490.214 365.061,488.526 366.069,487.097 C367.077,485.667 368.401,484.952 370.042,484.952 C371.12,484.952 372.052,485.225 372.837,485.77 C373.622,486.314 374.015,487.032 374.015,487.923 C374.015,488.438 373.827,488.884 373.452,489.259 C373.077,489.634 372.629,489.821 372.107,489.821 C371.586,489.821 371.138,489.634 370.763,489.259 C370.388,488.884 370.2,488.438 370.2,487.923 C370.2,487.419 370.388,486.974 370.763,486.587 C370.891,486.435 371.073,486.306 371.307,486.2 C371.249,486.048 371.132,485.931 370.956,485.849 C370.698,485.696 370.393,485.62 370.042,485.62 M370.903,492.81 C370.692,492.259 370.229,491.983 369.515,491.983 C368.8,491.983 368.357,492.259 368.187,492.81 C368.017,493.36 367.932,494.198 367.932,495.323 C367.932,496.647 368.017,497.538 368.187,497.995 C368.357,498.452 368.8,498.681 369.515,498.681 C370.229,498.681 370.692,498.405 370.903,497.854 C371.114,497.304 371.22,496.463 371.22,495.332 C371.22,494.201 371.114,493.36 370.903,492.81"/>
<path class="FiguredBass" d="M365.753,504.983 L366.597,505.106 C366.819,505.142 367.095,505.177 367.423,505.212 C368.231,505.306 369.011,505.353 369.761,505.353 C370.511,505.353 371.302,505.306 372.134,505.212 C372.462,505.177 372.749,505.142 372.995,505.106 L373.856,504.983 C374.032,504.983 374.167,505.042 374.261,505.159 C374.331,505.253 374.319,505.347 374.225,505.44 C372.397,507.233 369.872,508.13 366.649,508.13 C366.52,508.13 366.406,508.177 366.307,508.271 C366.207,508.364 366.157,508.481 366.157,508.622 L366.157,510.854 C366.989,510.034 367.997,509.624 369.181,509.624 C370.833,509.624 372.122,510.011 373.048,510.784 C374.056,510.022 374.583,509.05 374.63,507.866 C374.641,507.491 374.765,507.187 374.999,506.952 C375.257,506.718 375.567,506.601 375.931,506.601 C376.294,506.601 376.601,506.724 376.853,506.97 C377.105,507.216 377.231,507.515 377.231,507.866 C377.231,509.683 376.159,511.06 374.015,511.997 C374.366,512.688 374.542,513.532 374.542,514.528 C374.542,515.853 374.015,516.995 372.96,517.956 C371.905,518.917 370.645,519.397 369.181,519.397 C367.915,519.397 366.816,519.11 365.885,518.536 C364.953,517.962 364.487,517.165 364.487,516.146 C364.487,515.63 364.675,515.182 365.05,514.801 C365.425,514.42 365.873,514.229 366.394,514.229 C366.916,514.229 367.358,514.417 367.722,514.792 C368.085,515.167 368.266,515.618 368.266,516.146 C368.266,516.38 368.073,516.635 367.686,516.91 C367.3,517.186 367.106,517.44 367.106,517.675 C367.106,518.378 367.798,518.729 369.181,518.729 C370.528,518.729 371.202,517.329 371.202,514.528 C371.202,513.907 371.167,513.362 371.097,512.894 C369.679,513.187 367.903,513.415 365.77,513.579 C365.477,513.603 365.331,513.456 365.331,513.14 C365.331,512.882 365.477,512.741 365.77,512.718 C367.927,512.542 369.626,512.261 370.868,511.874 C370.54,510.937 369.977,510.462 369.181,510.45 C367.974,510.45 367.13,510.696 366.649,511.188 C366.169,511.681 365.87,511.927 365.753,511.927 C365.472,511.927 365.331,511.78 365.331,511.487 L365.331,505.44 C365.331,505.323 365.372,505.218 365.454,505.124 C365.548,505.03 365.647,504.983 365.753,504.983"/>
<path class="FiguredBass" d="M609.485,485.62 C608.618,485.62 608.041,485.969 607.754,486.666 C607.467,487.363 607.323,488.351 607.323,489.628 L607.323,491.702 C607.932,491.456 608.46,491.327 608.905,491.315 C610.428,491.315 611.627,491.652 612.5,492.326 C613.373,493 613.809,494.002 613.809,495.332 C613.809,496.662 613.367,497.667 612.482,498.347 C611.597,499.026 610.405,499.366 608.905,499.366 C607.37,499.366 606.169,498.654 605.301,497.23 C604.434,495.807 604.001,494.116 604.001,492.159 C604.001,490.214 604.505,488.526 605.512,487.097 C606.52,485.667 607.844,484.952 609.485,484.952 C610.563,484.952 611.495,485.225 612.28,485.77 C613.065,486.314 613.458,487.032 613.458,487.923 C613.458,488.438 613.27,488.884 612.895,489.259 C612.52,489.634 612.072,489.821 611.551,489.821 C611.029,489.821 610.581,489.634 610.206,489.259 C609.831,488.884 609.643,488.438 609.643,487.923 C609.643,487.419 609.831,486.974 610.206,486.587 C610.335,486.435 610.516,486.306 610.751,486.2 C610.692,486.048 610.575,485.931 610.399,485.849 C610.141,485.696 609.837,485.62 609.485,485.62 M610.346,492.81 C610.135,492.259 609.673,491.983 608.958,491.983 C608.243,491.983 607.801,492.259 607.631,492.81 C607.461,493.36 607.376,494.198 607.376,495.323 C607.376,496.647 607.461,497.538 607.631,497.995 C607.801,498.452 608.243,498.681 608.958,498.681 C609.673,498.681 610.135,498.405 610.346,497.854 C610.557,497.304 610.663,496.463 610.663,495.332 C610.663,494.201 610.557,493.36 610.346,492.81"/>
<path class="FiguredBass" d="M605.196,504.983 L606.04,505.106 C606.262,505.142 606.538,505.177 606.866,505.212 C607.675,505.306 608.454,505.353 609.204,505.353 C609.954,505.353 610.745,505.306 611.577,505.212 C611.905,505.177 612.192,505.142 612.438,505.106 L613.3,504.983 C613.475,504.983 613.61,505.042 613.704,505.159 C613.774,505.253 613.762,505.347 613.669,505.44 C611.841,507.233 609.315,508.13 606.093,508.13 C605.964,508.13 605.849,508.177 605.75,508.271 C605.65,508.364 605.6,508.481 605.6,508.622 L605.6,510.854 C606.432,510.034 607.44,509.624 608.624,509.624 C610.276,509.624 611.565,510.011 612.491,510.784 C613.499,510.022 614.026,509.05 614.073,507.866 C614.085,507.491 614.208,507.187 614.442,506.952 C614.7,506.718 615.01,506.601 615.374,506.601 C615.737,506.601 616.045,506.724 616.297,506.97 C616.549,507.216 616.675,507.515 616.675,507.866 C616.675,509.683 615.602,511.06 613.458,511.997 C613.809,512.688 613.985,513.532 613.985,514.528 C613.985,515.853 613.458,516.995 612.403,517.956 C611.348,518.917 610.089,519.397 608.624,519.397 C607.358,519.397 606.259,519.11 605.328,518.536 C604.396,517.962 603.93,517.165 603.93,516.146 C603.93,515.63 604.118,515.182 604.493,514.801 C604.868,514.42 605.316,514.229 605.838,514.229 C606.359,514.229 606.801,514.417 607.165,514.792 C607.528,515.167 607.71,515.618 607.71,516.146 C607.71,516.38 607.516,516.635 607.13,516.91 C606.743,517.186 606.55,517.44 606.55,517.675 C606.55,518.378 607.241,518.729 608.624,518.729 C609.971,518.729 610.645,517.329 610.645,514.528 C610.645,513.907 610.61,513.362 610.54,512.894 C609.122,513.187 607.346,513.415 605.214,513.579 C604.921,513.603 604.774,513.456 604.774,513.14 C604.774,512.882 604.921,512.741 605.214,512.718 C607.37,512.542 609.069,512.261 610.311,511.874 C609.983,510.937 609.421,510.462 608.624,510.45 C607.417,510.45 606.573,510.696 606.093,511.188 C605.612,511.681 605.313,511.927 605.196,511.927 C604.915,511.927 604.774,511.78 604.774,511.487 L604.774,505.44 C604.774,505.323 604.815,505.218 604.897,505.124 C604.991,505.03 605.091,504.983 605.196,504.983"/>
<path class="FiguredBass" d="M121.612,339.323 C121.612,339.323 121.893,339.364 122.456,339.446 C122.702,339.481 122.977,339.516 123.282,339.551 C124.09,339.645 124.87,339.692 125.62,339.692 C126.37,339.692 127.161,339.645 127.993,339.551 C128.321,339.516 128.608,339.481 128.854,339.446 L129.715,339.323 C129.891,339.323 130.023,339.382 130.111,339.499 C130.199,339.616 130.19,339.71 130.085,339.78 C128.292,341.573 125.766,342.469 122.508,342.469 C122.379,342.469 122.265,342.516 122.166,342.61 C122.066,342.704 122.016,342.821 122.016,342.962 L122.016,345.721 C122.848,344.901 123.856,344.491 125.04,344.491 C126.751,344.491 128.072,344.875 129.003,345.642 C129.935,346.41 130.401,347.573 130.401,349.132 C130.401,350.456 129.874,351.554 128.819,352.427 C127.764,353.301 126.504,353.737 125.04,353.737 C123.774,353.737 122.675,353.45 121.744,352.876 C120.812,352.301 120.346,351.505 120.346,350.485 C120.346,349.969 120.534,349.521 120.909,349.14 C121.284,348.759 121.732,348.569 122.253,348.569 C122.775,348.569 123.217,348.757 123.581,349.132 C123.944,349.507 124.126,349.958 124.126,350.485 C124.126,350.719 123.932,350.974 123.545,351.25 C123.159,351.525 122.965,351.78 122.965,352.014 C122.965,352.718 123.657,353.069 125.04,353.069 C126.387,353.069 127.061,351.757 127.061,349.132 C127.061,346.6 126.387,345.329 125.04,345.317 C123.833,345.317 122.989,345.563 122.508,346.055 C122.028,346.548 121.729,346.794 121.612,346.794 C121.319,346.794 121.178,346.647 121.19,346.354 L121.19,339.78 C121.19,339.651 121.231,339.543 121.313,339.455 C121.395,339.367 121.495,339.323 121.612,339.323"/>
<path class="FiguredBass" d="M128.151,366.122 C128.151,366.309 128.256,366.491 128.467,366.667 C128.678,366.843 128.91,367.009 129.162,367.168 C129.414,367.326 129.645,367.625 129.856,368.064 C130.067,368.504 130.172,369.057 130.172,369.725 C130.172,371.014 129.686,372.01 128.713,372.714 C127.741,373.417 126.51,373.768 125.022,373.768 C123.827,373.768 122.787,373.469 121.902,372.872 C121.017,372.274 120.575,371.489 120.575,370.516 C120.575,370.001 120.762,369.552 121.137,369.172 C121.512,368.791 121.961,368.6 122.482,368.6 C123.003,368.6 123.446,368.788 123.809,369.163 C124.172,369.538 124.354,369.989 124.354,370.516 C124.354,370.751 124.161,371.006 123.774,371.281 C123.387,371.556 123.194,371.811 123.194,372.046 C123.194,372.409 123.373,372.676 123.73,372.845 C124.087,373.015 124.518,373.1 125.022,373.1 C125.678,373.1 126.144,372.775 126.419,372.125 C126.695,371.474 126.833,370.675 126.833,369.725 L126.833,369.268 C126.833,368.635 126.812,368.155 126.771,367.827 C126.73,367.499 126.601,367.206 126.384,366.948 C126.168,366.69 125.836,366.561 125.391,366.561 L123.088,366.561 C122.819,366.561 122.684,366.415 122.684,366.122 C122.684,365.852 122.819,365.718 123.088,365.718 L125.391,365.718 C125.872,365.718 126.247,365.536 126.516,365.173 C126.61,365.044 126.686,364.833 126.745,364.54 C126.803,364.153 126.833,363.596 126.833,362.87 L126.833,362.641 C126.833,360.895 126.188,360.022 124.899,360.022 C123.762,360.022 123.194,360.339 123.194,360.971 C123.194,361.182 123.367,361.408 123.712,361.648 C124.058,361.888 124.231,362.114 124.231,362.325 C124.231,362.782 124.07,363.175 123.748,363.503 C123.425,363.831 123.033,363.995 122.57,363.995 C122.107,363.995 121.717,363.831 121.401,363.503 C121.085,363.175 120.926,362.782 120.926,362.325 C120.926,361.423 121.319,360.702 122.104,360.163 C122.889,359.624 123.821,359.354 124.899,359.354 C126.317,359.354 127.483,359.627 128.397,360.172 C129.311,360.717 129.768,361.54 129.768,362.641 C129.768,363.426 129.686,364.036 129.522,364.469 C129.358,364.903 129.17,365.167 128.96,365.26 C128.749,365.354 128.561,365.463 128.397,365.586 C128.233,365.709 128.151,365.887 128.151,366.122"/>
<path class="FiguredBass" d="M125.901,380.053 C125.034,380.053 124.457,380.402 124.169,381.099 C123.882,381.797 123.739,382.784 123.739,384.061 L123.739,386.135 C124.348,385.889 124.876,385.76 125.321,385.749 C126.844,385.749 128.043,386.086 128.916,386.759 C129.789,387.433 130.225,388.435 130.225,389.765 C130.225,391.095 129.783,392.1 128.898,392.78 C128.013,393.46 126.821,393.8 125.321,393.8 C123.786,393.8 122.585,393.088 121.717,391.664 C120.85,390.24 120.417,388.55 120.417,386.593 C120.417,384.647 120.92,382.96 121.928,381.53 C122.936,380.1 124.26,379.385 125.901,379.385 C126.979,379.385 127.911,379.658 128.696,380.203 C129.481,380.748 129.874,381.466 129.874,382.356 C129.874,382.872 129.686,383.317 129.311,383.692 C128.936,384.067 128.488,384.255 127.966,384.255 C127.445,384.255 126.997,384.067 126.622,383.692 C126.247,383.317 126.059,382.872 126.059,382.356 C126.059,381.852 126.247,381.407 126.622,381.02 C126.751,380.868 126.932,380.739 127.167,380.634 C127.108,380.481 126.991,380.364 126.815,380.282 C126.557,380.13 126.252,380.053 125.901,380.053 M126.762,387.243 C126.551,386.692 126.088,386.417 125.374,386.417 C124.659,386.417 124.216,386.692 124.046,387.243 C123.877,387.794 123.792,388.632 123.792,389.757 C123.792,391.081 123.877,391.971 124.046,392.428 C124.216,392.885 124.659,393.114 125.374,393.114 C126.088,393.114 126.551,392.839 126.762,392.288 C126.973,391.737 127.079,390.896 127.079,389.765 C127.079,388.634 126.973,387.794 126.762,387.243"/>
<path class="FiguredBass" d="M370.042,339.991 C369.175,339.991 368.598,340.34 368.31,341.037 C368.023,341.734 367.88,342.721 367.88,343.999 L367.88,346.073 C368.489,345.827 369.016,345.698 369.462,345.686 C370.985,345.686 372.183,346.023 373.057,346.697 C373.93,347.371 374.366,348.373 374.366,349.703 C374.366,351.033 373.924,352.038 373.039,352.718 C372.154,353.397 370.962,353.737 369.462,353.737 C367.927,353.737 366.725,353.025 365.858,351.601 C364.991,350.177 364.557,348.487 364.557,346.53 C364.557,344.585 365.061,342.897 366.069,341.468 C367.077,340.038 368.401,339.323 370.042,339.323 C371.12,339.323 372.052,339.595 372.837,340.14 C373.622,340.685 374.015,341.403 374.015,342.294 C374.015,342.809 373.827,343.255 373.452,343.63 C373.077,344.005 372.629,344.192 372.107,344.192 C371.586,344.192 371.138,344.005 370.763,343.63 C370.388,343.255 370.2,342.809 370.2,342.294 C370.2,341.79 370.388,341.344 370.763,340.958 C370.891,340.805 371.073,340.676 371.307,340.571 C371.249,340.419 371.132,340.301 370.956,340.219 C370.698,340.067 370.393,339.991 370.042,339.991 M370.903,347.18 C370.692,346.63 370.229,346.354 369.515,346.354 C368.8,346.354 368.357,346.63 368.187,347.18 C368.017,347.731 367.932,348.569 367.932,349.694 C367.932,351.018 368.017,351.909 368.187,352.366 C368.357,352.823 368.8,353.051 369.515,353.051 C370.229,353.051 370.692,352.776 370.903,352.225 C371.114,351.675 371.22,350.834 371.22,349.703 C371.22,348.572 371.114,347.731 370.903,347.18"/>
<path class="FiguredBass" d="M365.753,359.354 C365.753,359.354 366.034,359.395 366.597,359.477 C366.843,359.512 367.118,359.548 367.423,359.583 C368.231,359.676 369.011,359.723 369.761,359.723 C370.511,359.723 371.302,359.676 372.134,359.583 C372.462,359.548 372.749,359.512 372.995,359.477 L373.856,359.354 C374.032,359.354 374.164,359.413 374.252,359.53 C374.34,359.647 374.331,359.741 374.225,359.811 C372.432,361.604 369.907,362.501 366.649,362.501 C366.52,362.501 366.406,362.548 366.307,362.641 C366.207,362.735 366.157,362.852 366.157,362.993 L366.157,365.753 C366.989,364.932 367.997,364.522 369.181,364.522 C370.891,364.522 372.213,364.906 373.144,365.674 C374.076,366.441 374.542,367.604 374.542,369.163 C374.542,370.487 374.015,371.586 372.96,372.459 C371.905,373.332 370.645,373.768 369.181,373.768 C367.915,373.768 366.816,373.481 365.885,372.907 C364.953,372.333 364.487,371.536 364.487,370.516 C364.487,370.001 364.675,369.552 365.05,369.172 C365.425,368.791 365.873,368.6 366.394,368.6 C366.916,368.6 367.358,368.788 367.722,369.163 C368.085,369.538 368.266,369.989 368.266,370.516 C368.266,370.751 368.073,371.006 367.686,371.281 C367.3,371.556 367.106,371.811 367.106,372.046 C367.106,372.749 367.798,373.1 369.181,373.1 C370.528,373.1 371.202,371.788 371.202,369.163 C371.202,366.632 370.528,365.36 369.181,365.348 C367.974,365.348 367.13,365.594 366.649,366.087 C366.169,366.579 365.87,366.825 365.753,366.825 C365.46,366.825 365.319,366.678 365.331,366.385 L365.331,359.811 C365.331,359.682 365.372,359.574 365.454,359.486 C365.536,359.398 365.636,359.354 365.753,359.354"/>
<path class="FiguredBass" d="M372.292,386.153 C372.292,386.341 372.397,386.522 372.608,386.698 C372.819,386.874 373.051,387.041 373.303,387.199 C373.555,387.357 373.786,387.656 373.997,388.095 C374.208,388.535 374.313,389.089 374.313,389.757 C374.313,391.046 373.827,392.042 372.854,392.745 C371.882,393.448 370.651,393.8 369.163,393.8 C367.968,393.8 366.928,393.501 366.043,392.903 C365.158,392.305 364.716,391.52 364.716,390.548 C364.716,390.032 364.903,389.584 365.278,389.203 C365.653,388.822 366.101,388.632 366.623,388.632 C367.144,388.632 367.587,388.819 367.95,389.194 C368.313,389.569 368.495,390.02 368.495,390.548 C368.495,390.782 368.302,391.037 367.915,391.312 C367.528,391.588 367.335,391.843 367.335,392.077 C367.335,392.44 367.514,392.707 367.871,392.877 C368.228,393.047 368.659,393.132 369.163,393.132 C369.819,393.132 370.285,392.806 370.56,392.156 C370.836,391.506 370.974,390.706 370.974,389.757 L370.974,389.3 C370.974,388.667 370.953,388.186 370.912,387.858 C370.871,387.53 370.742,387.237 370.525,386.979 C370.308,386.721 369.977,386.593 369.532,386.593 L367.229,386.593 C366.96,386.593 366.825,386.446 366.825,386.153 C366.825,385.884 366.96,385.749 367.229,385.749 L369.532,385.749 C370.013,385.749 370.388,385.567 370.657,385.204 C370.751,385.075 370.827,384.864 370.886,384.571 C370.944,384.184 370.974,383.628 370.974,382.901 L370.974,382.673 C370.974,380.926 370.329,380.053 369.04,380.053 C367.903,380.053 367.335,380.37 367.335,381.003 C367.335,381.214 367.508,381.439 367.853,381.679 C368.199,381.92 368.372,382.145 368.372,382.356 C368.372,382.813 368.211,383.206 367.889,383.534 C367.566,383.862 367.174,384.026 366.711,384.026 C366.248,384.026 365.858,383.862 365.542,383.534 C365.225,383.206 365.067,382.813 365.067,382.356 C365.067,381.454 365.46,380.733 366.245,380.194 C367.03,379.655 367.962,379.385 369.04,379.385 C370.458,379.385 371.624,379.658 372.538,380.203 C373.452,380.748 373.909,381.571 373.909,382.673 C373.909,383.458 373.827,384.067 373.663,384.501 C373.499,384.934 373.311,385.198 373.1,385.292 C372.89,385.385 372.702,385.494 372.538,385.617 C372.374,385.74 372.292,385.919 372.292,386.153"/>
<path class="FiguredBass" d="M611.735,346.091 C611.735,346.278 611.841,346.46 612.051,346.635 C612.262,346.811 612.494,346.978 612.746,347.136 C612.998,347.295 613.229,347.593 613.44,348.033 C613.651,348.472 613.757,349.026 613.757,349.694 C613.757,350.983 613.27,351.979 612.298,352.682 C611.325,353.385 610.094,353.737 608.606,353.737 C607.411,353.737 606.371,353.438 605.486,352.841 C604.601,352.243 604.159,351.458 604.159,350.485 C604.159,349.969 604.346,349.521 604.721,349.14 C605.096,348.759 605.545,348.569 606.066,348.569 C606.588,348.569 607.03,348.757 607.393,349.132 C607.757,349.507 607.938,349.958 607.938,350.485 C607.938,350.719 607.745,350.974 607.358,351.25 C606.971,351.525 606.778,351.78 606.778,352.014 C606.778,352.378 606.957,352.644 607.314,352.814 C607.672,352.984 608.102,353.069 608.606,353.069 C609.262,353.069 609.728,352.744 610.004,352.093 C610.279,351.443 610.417,350.643 610.417,349.694 L610.417,349.237 C610.417,348.604 610.396,348.124 610.355,347.796 C610.314,347.468 610.185,347.175 609.968,346.917 C609.752,346.659 609.421,346.53 608.975,346.53 L606.673,346.53 C606.403,346.53 606.268,346.384 606.268,346.091 C606.268,345.821 606.403,345.686 606.673,345.686 L608.975,345.686 C609.456,345.686 609.831,345.505 610.1,345.141 C610.194,345.012 610.27,344.801 610.329,344.509 C610.387,344.122 610.417,343.565 610.417,342.839 L610.417,342.61 C610.417,340.864 609.772,339.991 608.483,339.991 C607.346,339.991 606.778,340.307 606.778,340.94 C606.778,341.151 606.951,341.377 607.297,341.617 C607.642,341.857 607.815,342.083 607.815,342.294 C607.815,342.751 607.654,343.143 607.332,343.471 C607.009,343.8 606.617,343.964 606.154,343.964 C605.691,343.964 605.301,343.8 604.985,343.471 C604.669,343.143 604.51,342.751 604.51,342.294 C604.51,341.391 604.903,340.671 605.688,340.132 C606.473,339.593 607.405,339.323 608.483,339.323 C609.901,339.323 611.067,339.595 611.981,340.14 C612.895,340.685 613.352,341.509 613.352,342.61 C613.352,343.395 613.27,344.005 613.106,344.438 C612.942,344.872 612.755,345.135 612.544,345.229 C612.333,345.323 612.145,345.431 611.981,345.554 C611.817,345.677 611.735,345.856 611.735,346.091"/>
<path class="FiguredBass" d="M609.485,360.022 C608.618,360.022 608.041,360.371 607.754,361.068 C607.467,361.765 607.323,362.753 607.323,364.03 L607.323,366.104 C607.932,365.858 608.46,365.729 608.905,365.718 C610.428,365.718 611.627,366.054 612.5,366.728 C613.373,367.402 613.809,368.404 613.809,369.734 C613.809,371.064 613.367,372.069 612.482,372.749 C611.597,373.428 610.405,373.768 608.905,373.768 C607.37,373.768 606.169,373.056 605.301,371.633 C604.434,370.209 604.001,368.518 604.001,366.561 C604.001,364.616 604.505,362.928 605.512,361.499 C606.52,360.069 607.844,359.354 609.485,359.354 C610.563,359.354 611.495,359.627 612.28,360.172 C613.065,360.717 613.458,361.434 613.458,362.325 C613.458,362.841 613.27,363.286 612.895,363.661 C612.52,364.036 612.072,364.223 611.551,364.223 C611.029,364.223 610.581,364.036 610.206,363.661 C609.831,363.286 609.643,362.841 609.643,362.325 C609.643,361.821 609.831,361.376 610.206,360.989 C610.335,360.837 610.516,360.708 610.751,360.602 C610.692,360.45 610.575,360.333 610.399,360.251 C610.141,360.098 609.837,360.022 609.485,360.022 M610.346,367.212 C610.135,366.661 609.673,366.385 608.958,366.385 C608.243,366.385 607.801,366.661 607.631,367.212 C607.461,367.762 607.376,368.6 607.376,369.725 C607.376,371.05 607.461,371.94 607.631,372.397 C607.801,372.854 608.243,373.083 608.958,373.083 C609.673,373.083 610.135,372.807 610.346,372.257 C610.557,371.706 610.663,370.865 610.663,369.734 C610.663,368.603 610.557,367.762 610.346,367.212"/>
<path class="FiguredBass" d="M605.196,379.385 C605.196,379.385 605.477,379.426 606.04,379.509 C606.286,379.544 606.561,379.579 606.866,379.614 C607.675,379.708 608.454,379.755 609.204,379.755 C609.954,379.755 610.745,379.708 611.577,379.614 C611.905,379.579 612.192,379.544 612.438,379.509 L613.3,379.385 C613.475,379.385 613.607,379.444 613.695,379.561 C613.783,379.678 613.774,379.772 613.669,379.843 C611.876,381.635 609.35,382.532 606.093,382.532 C605.964,382.532 605.849,382.579 605.75,382.673 C605.65,382.766 605.6,382.884 605.6,383.024 L605.6,385.784 C606.432,384.964 607.44,384.553 608.624,384.553 C610.335,384.553 611.656,384.937 612.588,385.705 C613.519,386.472 613.985,387.635 613.985,389.194 C613.985,390.518 613.458,391.617 612.403,392.49 C611.348,393.363 610.089,393.8 608.624,393.8 C607.358,393.8 606.259,393.512 605.328,392.938 C604.396,392.364 603.93,391.567 603.93,390.548 C603.93,390.032 604.118,389.584 604.493,389.203 C604.868,388.822 605.316,388.632 605.838,388.632 C606.359,388.632 606.801,388.819 607.165,389.194 C607.528,389.569 607.71,390.02 607.71,390.548 C607.71,390.782 607.516,391.037 607.13,391.312 C606.743,391.588 606.55,391.843 606.55,392.077 C606.55,392.78 607.241,393.132 608.624,393.132 C609.971,393.132 610.645,391.819 610.645,389.194 C610.645,386.663 609.971,385.391 608.624,385.38 C607.417,385.38 606.573,385.626 606.093,386.118 C605.612,386.61 605.313,386.856 605.196,386.856 C604.903,386.856 604.762,386.71 604.774,386.417 L604.774,379.843 C604.774,379.714 604.815,379.605 604.897,379.517 C604.979,379.429 605.079,379.385 605.196,379.385"/>
<polyline class="FretDiagram" stroke="#fc0107" stroke-width="0.91" stroke-linejoin="bevel" points="106.163,40.5921 146.755,40.5921"/>
<polyline class="FretDiagram" stroke="#fc0107" stroke-width="0.91" stroke-linejoin="bevel" points="106.617,38.3244 106.617,81.411"/>
<polyline class="FretDiagram" stroke="#fc0107" stroke-width="0.91" stroke-linejoin="bevel" points="114.554,38.3244 114.554,81.411"/>
<polyline class="FretDiagram" stroke="#fc0107" stroke-width="0.91" stroke-linejoin="bevel" points="122.491,38.3244 122.491,81.411"/>
<polyline class="FretDiagram" stroke="#fc0107" stroke-width="0.91" stroke-linejoin="bevel" points="130.428,38.3244 130.428,81.411"/>
<polyline class="FretDiagram" stroke="#fc0107" stroke-width="0.91" stroke-linejoin="bevel" points="138.365,38.3244 138.365,81.411"/>
<polyline class="FretDiagram" stroke="#fc0107" stroke-width="0.91" stroke-linejoin="bevel" points="146.302,38.3244 146.302,81.411"/>
<polyline class="FretDiagram" stroke="#fc0107" stroke-width="0.91" stroke-linejoin="bevel" points="106.617,49.663 146.302,49.663"/>
<polyline class="FretDiagram" stroke="#fc0107" stroke-width="0.91" stroke-linejoin="bevel" points="106.617,58.7339 146.302,58.7339"/>
<polyline class="FretDiagram" stroke="#fc0107" stroke-width="0.91" stroke-linejoin="bevel" points="106.617,67.8047 146.302,67.8047"/>
<polyline class="FretDiagram" stroke="#fc0107" stroke-width="0.91" stroke-linejoin="bevel" points="106.617,76.8756 146.302,76.8756"/>
<path class="FretDiagram" fill="#fc0107" fill-rule="evenodd" d="M125.269,54.1984 C125.269,55.7326 124.025,56.9764 122.491,56.9764 C120.957,56.9764 119.713,55.7326 119.713,54.1984 C119.713,52.6642 120.957,51.4205 122.491,51.4205 C124.025,51.4205 125.269,52.6642 125.269,54.1984"/>
<path class="FretDiagram" fill="#fc0107" fill-rule="evenodd" d="M133.206,72.3402 C133.206,73.8744 131.962,75.1181 130.428,75.1181 C128.894,75.1181 127.65,73.8744 127.65,72.3402 C127.65,70.8059 128.894,69.5622 130.428,69.5622 C131.962,69.5622 133.206,70.8059 133.206,72.3402"/>
<path class="FretDiagram" fill="#fc0107" fill-rule="evenodd" d="M141.143,45.1276 C141.143,46.6618 139.899,47.9055 138.365,47.9055 C136.831,47.9055 135.587,46.6618 135.587,45.1276 C135.587,43.5933 136.831,42.3496 138.365,42.3496 C139.899,42.3496 141.143,43.5933 141.143,45.1276"/>
<path class="FretDiagram" fill="#fc0107" fill-rule="evenodd" d="M149.08,63.2693 C149.08,64.8035 147.836,66.0472 146.302,66.0472 C144.768,66.0472 143.524,64.8035 143.524,63.2693 C143.524,61.7351 144.768,60.4913 146.302,60.4913 C147.836,60.4913 149.08,61.7351 149.08,63.2693"/>
<polyline class="FretDiagram" fill="none" stroke="#fc0107" stroke-width="1.31" stroke-linecap="round" stroke-linejoin="bevel" points="103.442,28.3465 109.792,34.6961"/>
<polyline class="FretDiagram" fill="none" stroke="#fc0107" stroke-width="1.31" stroke-linecap="round" stroke-linejoin="bevel" points="103.442,34.6961 109.792,28.3465"/>
<polyline class="FretDiagram" fill="none" stroke="#fc0107" stroke-width="1.31" stroke-linecap="round" stroke-linejoin="bevel" points="111.379,28.3465 117.729,34.6961"/>
<polyline class="FretDiagram" fill="none" stroke="#fc0107" stroke-width="1.31" stroke-linecap="round" stroke-linejoin="bevel" points="111.379,34.6961 117.729,28.3465"/>
<path class="FretDiagram" fill="#fc0107" d="M98.3049,40.0599 C97.3929,40.0599 96.7659,40.3089 96.4239,40.8069 C96.0819,41.3049 95.8989,41.9679 95.8749,42.7959 L94.2909,42.7959 C94.3509,40.0479 95.6829,38.6739 98.2869,38.6739 C99.4989,38.6739 100.45,38.9859 101.14,39.6099 C101.83,40.2339 102.175,41.0919 102.175,42.1839 C102.175,43.4799 101.581,44.3619 100.393,44.8299 C101.161,45.0939 101.713,45.4629 102.049,45.9369 C102.385,46.4109 102.553,47.0559 102.553,47.8719 C102.553,49.0839 102.16,50.0499 101.374,50.7699 C100.588,51.4899 99.5409,51.8499 98.2329,51.8499 C95.6169,51.8499 94.2129,50.4759 94.0209,47.7279 L95.6049,47.7279 C95.6649,48.6519 95.9109,49.3359 96.3429,49.7799 C96.7749,50.2239 97.4229,50.4459 98.2869,50.4459 C99.1149,50.4459 99.7629,50.2209 100.231,49.7709 C100.699,49.3209 100.933,48.6939 100.933,47.8899 C100.933,46.3419 100.051,45.5679 98.2869,45.5679 L97.6209,45.5859 L97.4229,45.5859 L97.4229,44.2359 C98.5629,44.2119 99.3699,44.0679 99.8439,43.8039 C100.318,43.5399 100.555,43.0179 100.555,42.2379 C100.555,41.5659 100.354,41.0349 99.9519,40.6449 C99.5499,40.2549 99.0009,40.0599 98.3049,40.0599"/>
<polyline class="FretDiagram" fill="#fc0107" stroke="#fc02ff" stroke-width="0.91" stroke-linejoin="bevel" points="350.304,41.4567 390.896,41.4567"/>
<polyline class="FretDiagram" fill="#fc0107" stroke="#fc02ff" stroke-width="0.91" stroke-linejoin="bevel" points="350.758,39.189 350.758,82.2756"/>
<polyline class="FretDiagram" fill="#fc0107" stroke="#fc02ff" stroke-width="0.91" stroke-linejoin="bevel" points="358.695,39.189 358.695,82.2756"/>
<polyline class="FretDiagram" fill="#fc0107" stroke="#fc02ff" stroke-width="0.91" stroke-linejoin="bevel" points="366.632,39.189 366.632,82.2756"/>
<polyline class="FretDiagram" fill="#fc0107" stroke="#fc02ff" stroke-width="0.91" stroke-linejoin="bevel" points="374.569,39.189 374.569,82.2756"/>
<polyline class="FretDiagram" fill="#fc0107" stroke="#fc02ff" stroke-width="0.91" stroke-linejoin="bevel" points="382.506,39.189 382.506,82.2756"/>
<polyline class="FretDiagram" fill="#fc0107" stroke="#fc02ff" stroke-width="0.91" stroke-linejoin="bevel" points="390.443,39.189 390.443,82.2756"/>
<polyline class="FretDiagram" fill="#fc0107" stroke="#fc02ff" stroke-width="0.91" stroke-linejoin="bevel" points="350.758,50.5276 390.443,50.5276"/>
<polyline class="FretDiagram" fill="#fc0107" stroke="#fc02ff" stroke-width="0.91" stroke-linejoin="bevel" points="350.758,59.5984 390.443,59.5984"/>
<polyline class="FretDiagram" fill="#fc0107" stroke="#fc02ff" stroke-width="0.91" stroke-linejoin="bevel" points="350.758,68.6693 390.443,68.6693"/>
<polyline class="FretDiagram" fill="#fc0107" stroke="#fc02ff" stroke-width="0.91" stroke-linejoin="bevel" points="350.758,77.7402 390.443,77.7402"/>
<path class="FretDiagram" fill="#fc02ff" fill-rule="evenodd" d="M361.473,55.063 C361.473,56.5972 360.229,57.8409 358.695,57.8409 C357.16,57.8409 355.917,56.5972 355.917,55.063 C355.917,53.5288 357.16,52.285 358.695,52.285 C360.229,52.285 361.473,53.5288 361.473,55.063"/>
<path class="FretDiagram" fill="#fc02ff" fill-rule="evenodd" d="M385.284,64.1339 C385.284,65.6681 384.04,66.9118 382.506,66.9118 C380.971,66.9118 379.728,65.6681 379.728,64.1339 C379.728,62.5996 380.971,61.3559 382.506,61.3559 C384.04,61.3559 385.284,62.5996 385.284,64.1339"/>
<polyline class="FretDiagram" fill="none" stroke="#fc02ff" stroke-width="1.31" stroke-linecap="round" stroke-linejoin="bevel" points="347.583,29.211 353.932,35.5606"/>
<polyline class="FretDiagram" fill="none" stroke="#fc02ff" stroke-width="1.31" stroke-linecap="round" stroke-linejoin="bevel" points="347.583,35.5606 353.932,29.211"/>
<polyline class="FretDiagram" fill="none" stroke="#fc02ff" stroke-width="1.31" stroke-linecap="round" stroke-linejoin="bevel" points="363.457,29.211 369.806,35.5606"/>
<polyline class="FretDiagram" fill="none" stroke="#fc02ff" stroke-width="1.31" stroke-linecap="round" stroke-linejoin="bevel" points="363.457,35.5606 369.806,29.211"/>
<path class="FretDiagram" fill="none" stroke="#fc02ff" stroke-width="1.31" stroke-linecap="round" stroke-linejoin="bevel" fill-rule="evenodd" d="M377.743,32.3858 C377.743,34.1392 376.322,35.5606 374.569,35.5606 C372.815,35.5606 371.394,34.1392 371.394,32.3858 C371.394,30.6324 372.815,29.211 374.569,29.211 C376.322,29.211 377.743,30.6324 377.743,32.3858"/>
<path class="FretDiagram" fill="none" stroke="#fc02ff" stroke-width="1.31" stroke-linecap="round" stroke-linejoin="bevel" fill-rule="evenodd" d="M393.618,32.3858 C393.618,34.1392 392.196,35.5606 390.443,35.5606 C388.689,35.5606 387.268,34.1392 387.268,32.3858 C387.268,30.6324 388.689,29.211 390.443,29.211 C392.196,29.211 393.618,30.6324 393.618,32.3858"/>
<polyline class="FretDiagram" fill="none" stroke="#fc02ff" stroke-width="5.56" stroke-linecap="round" stroke-linejoin="bevel" points="358.695,45.9921 390.443,45.9921"/>
<path class="FretDiagram" fill="#fc02ff" d="M342.446,40.9244 C341.534,40.9244 340.907,41.1734 340.565,41.6714 C340.223,42.1694 340.04,42.8324 340.016,43.6604 L338.432,43.6604 C338.492,40.9124 339.824,39.5384 342.428,39.5384 C343.64,39.5384 344.591,39.8504 345.281,40.4744 C345.971,41.0984 346.316,41.9564 346.316,43.0484 C346.316,44.3444 345.722,45.2264 344.534,45.6944 C345.302,45.9584 345.854,46.3274 346.19,46.8014 C346.526,47.2754 346.694,47.9204 346.694,48.7364 C346.694,49.9484 346.301,50.9144 345.515,51.6344 C344.729,52.3544 343.682,52.7144 342.374,52.7144 C339.758,52.7144 338.354,51.3404 338.162,48.5924 L339.746,48.5924 C339.806,49.5164 340.052,50.2004 340.484,50.6444 C340.916,51.0884 341.564,51.3104 342.428,51.3104 C343.256,51.3104 343.904,51.0854 344.372,50.6354 C344.84,50.1854 345.074,49.5584 345.074,48.7544 C345.074,47.2064 344.192,46.4324 342.428,46.4324 L341.762,46.4504 L341.564,46.4504 L341.564,45.1004 C342.704,45.0764 343.511,44.9324 343.985,44.6684 C344.459,44.4044 344.696,43.8824 344.696,43.1024 C344.696,42.4304 344.495,41.8994 344.093,41.5094 C343.691,41.1194 343.142,40.9244 342.446,40.9244"/>
<polyline class="FretDiagram" fill="#fc02ff" stroke="#0000ff" stroke-width="0.91" stroke-linejoin="bevel" points="584.078,41.4567 624.67,41.4567"/>
<polyline class="FretDiagram" fill="#fc02ff" stroke="#0000ff" stroke-width="0.91" stroke-linejoin="bevel" points="584.532,39.189 584.532,82.2756"/>
<polyline class="FretDiagram" fill="#fc02ff" stroke="#0000ff" stroke-width="0.91" stroke-linejoin="bevel" points="592.469,39.189 592.469,82.2756"/>
<polyline class="FretDiagram" fill="#fc02ff" stroke="#0000ff" stroke-width="0.91" stroke-linejoin="bevel" points="600.406,39.189 600.406,82.2756"/>
<polyline class="FretDiagram" fill="#fc02ff" stroke="#0000ff" stroke-width="0.91" stroke-linejoin="bevel" points="608.343,39.189 608.343,82.2756"/>
<polyline class="FretDiagram" fill="#fc02ff" stroke="#0000ff" stroke-width="0.91" stroke-linejoin="bevel" points="616.28,39.189 616.28,82.2756"/>
<polyline class="FretDiagram" fill="#fc02ff" stroke="#0000ff" stroke-width="0.91" stroke-linejoin="bevel" points="624.217,39.189 624.217,82.2756"/>
<polyline class="FretDiagram" fill="#fc02ff" stroke="#0000ff" stroke-width="0.91" stroke-linejoin="bevel" points="584.532,50.5276 624.217,50.5276"/>
<polyline class="FretDiagram" fill="#fc02ff" stroke="#0000ff" stroke-width="0.91" stroke-linejoin="bevel" points="584.532,59.5984 624.217,59.5984"/>
<polyline class="FretDiagram" fill="#fc02ff" stroke="#0000ff" stroke-width="0.91" stroke-linejoin="bevel" points="584.532,68.6693 624.217,68.6693"/>
<polyline class="FretDiagram" fill="#fc02ff" stroke="#0000ff" stroke-width="0.91" stroke-linejoin="bevel" points="584.532,77.7402 624.217,77.7402"/>
<path class="FretDiagram" fill="#0000ff" fill-rule="evenodd" d="M587.31,64.1339 C587.31,65.6681 586.066,66.9118 584.532,66.9118 C582.997,66.9118 581.754,65.6681 581.754,64.1339 C581.754,62.5996 582.997,61.3559 584.532,61.3559 C586.066,61.3559 587.31,62.5996 587.31,64.1339"/>
<path class="FretDiagram" fill="#0000ff" fill-rule="evenodd" d="M603.184,45.9921 C603.184,47.5263 601.94,48.7701 600.406,48.7701 C598.871,48.7701 597.628,47.5263 597.628,45.9921 C597.628,44.4579 598.871,43.2142 600.406,43.2142 C601.94,43.2142 603.184,44.4579 603.184,45.9921"/>
<path class="FretDiagram" fill="#0000ff" fill-rule="evenodd" d="M611.121,73.2047 C611.121,74.7389 609.877,75.9827 608.343,75.9827 C606.808,75.9827 605.565,74.7389 605.565,73.2047 C605.565,71.6705 606.808,70.4268 608.343,70.4268 C609.877,70.4268 611.121,71.6705 611.121,73.2047"/>
<path class="FretDiagram" fill="#0000ff" fill-rule="evenodd" d="M619.058,55.063 C619.058,56.5972 617.814,57.8409 616.28,57.8409 C614.745,57.8409 613.502,56.5972 613.502,55.063 C613.502,53.5288 614.745,52.285 616.28,52.285 C617.814,52.285 619.058,53.5288 619.058,55.063"/>
<polyline class="FretDiagram" fill="none" stroke="#0000ff" stroke-width="1.31" stroke-linecap="round" stroke-linejoin="bevel" points="589.294,29.211 595.643,35.5606"/>
<polyline class="FretDiagram" fill="none" stroke="#0000ff" stroke-width="1.31" stroke-linecap="round" stroke-linejoin="bevel" points="589.294,35.5606 595.643,29.211"/>
<polyline class="FretDiagram" fill="none" stroke="#0000ff" stroke-width="1.31" stroke-linecap="round" stroke-linejoin="bevel" points="621.042,29.211 627.391,35.5606"/>
<polyline class="FretDiagram" fill="none" stroke="#0000ff" stroke-width="1.31" stroke-linecap="round" stroke-linejoin="bevel" points="621.042,35.5606 627.391,29.211"/>
<path class="FretDiagram" fill="#0000ff" d="M572.26,43.9664 C572.344,41.0144 573.748,39.5384 576.472,39.5384 C577.684,39.5384 578.668,39.8864 579.424,40.5824 C580.18,41.2784 580.558,42.1784 580.558,43.2824 C580.558,44.8664 579.658,46.1504 577.858,47.1344 L576.058,48.1064 C575.278,48.5264 574.72,48.9344 574.384,49.3304 C574.048,49.7264 573.838,50.1944 573.754,50.7344 L580.468,50.7344 L580.468,52.3004 L571.972,52.3004 C572.044,50.8964 572.326,49.8134 572.818,49.0514 C573.31,48.2894 574.222,47.5304 575.554,46.7744 L577.21,45.8384 C578.362,45.1784 578.938,44.3384 578.938,43.3184 C578.938,42.6344 578.698,42.0644 578.218,41.6084 C577.738,41.1524 577.138,40.9244 576.418,40.9244 C574.822,40.9244 573.964,41.9384 573.844,43.9664 L572.26,43.9664 "/>
<path class="Bracket" transform="matrix(1.64409,0,0,1.90984,28.6821,459.892)" d="M0.92002,-50 C2.69004,-51.88 6.2,-55.8 6.2,-63 C6.2,-72.1 2.25996,-81.32 2.25996,-86.97 C2.25996,-93.06 5.84004,-98.84 5.95,-99 C6.05996,-99.16 6.05,-99.39 5.94004,-99.46 C5.82998,-99.53 5.62002,-99.47 5.49004,-99.32 C5.35996,-99.17 0,-93.75 0,-85.6 C0,-76.75 3.5,-70.58 3.5,-59.07 C3.5,-56.89 2.55996,-53.36 0.1,-50.33 C-0.0799805,-50.17 -0.1,-49.89 0.0599609,-49.7 L0.0700195,-49.69 L0.1,-49.66 C2.55996,-46.63 3.5,-43.1 3.5,-40.92 C3.5,-29.4 0,-23.24 0,-14.39 C0,-6.25 5.35996,-0.8 5.49004,-0.659961 C5.62002,-0.52002 5.8,-0.42998 5.94004,-0.52002 C6.07998,-0.609961 6.07998,-0.77998 5.95,-0.97998 C5.82002,-1.17998 2.25996,-6.92002 2.25996,-13.01 C2.25996,-18.66 6.2,-27.9 6.2,-37 C6.2,-44.3 2.69004,-48.12 0.92002,-50"/>
</svg>
