<?xml version="1.0" encoding="UTF-8" standalone="no"?>
<svg width="4209.44px" height="2976.38px" viewBox="0 0 4209.44 2976.38"
 xmlns="http://www.w3.org/2000/svg" xmlns:xlink="http://www.w3.org/1999/xlink" version="1.2" baseProfile="tiny">
<title>Diagrammes (9)</title>
<desc>Generated by MuseScore 3.6.2</desc>
<polyline class="StaffLines" fill="none" stroke="#000000" stroke-width="6.55" stroke-linejoin="bevel" points="153.819,558.425 4138.58,558.425"/>
<polyline class="StaffLines" fill="none" stroke="#000000" stroke-width="6.55" stroke-linejoin="bevel" points="153.819,647.717 4138.58,647.717"/>
<polyline class="StaffLines" fill="none" stroke="#000000" stroke-width="6.55" stroke-linejoin="bevel" points="153.819,737.008 4138.58,737.008"/>
<polyline class="StaffLines" fill="none" stroke="#000000" stroke-width="6.55" stroke-linejoin="bevel" points="153.819,826.299 4138.58,826.299"/>
<polyline class="StaffLines" fill="none" stroke="#000000" stroke-width="6.55" stroke-linejoin="bevel" points="153.819,915.591 4138.58,915.591"/>
<polyline class="StaffLines" fill="none" stroke="#000000" stroke-width="6.55" stroke-linejoin="bevel" points="153.819,1004.88 4138.58,1004.88"/>
<polyline class="StaffLines" fill="none" stroke="#000000" stroke-width="6.55" stroke-linejoin="bevel" points="153.819,1391.81 4138.58,1391.81"/>
<polyline class="StaffLines" fill="none" stroke="#000000" stroke-width="6.55" stroke-linejoin="bevel" points="153.819,1451.34 4138.58,1451.34"/>
<polyline class="StaffLines" fill="none" stroke="#000000" stroke-width="6.55" stroke-linejoin="bevel" points="153.819,1510.87 4138.58,1510.87"/>
<polyline class="StaffLines" fill="none" stroke="#000000" stroke-width="6.55" stroke-linejoin="bevel" points="153.819,1570.39 4138.58,1570.39"/>
<polyline class="StaffLines" fill="none" stroke="#000000" stroke-width="6.55" stroke-linejoin="bevel" points="153.819,1629.92 4138.58,1629.92"/>
<polyline class="StaffLines" fill="none" stroke="#000000" stroke-width="6.55" stroke-linejoin="bevel" points="153.819,2187.89 4138.58,2187.89"/>
<polyline class="StaffLines" fill="none" stroke="#000000" stroke-width="6.55" stroke-linejoin="bevel" points="153.819,2247.41 4138.58,2247.41"/>
<polyline class="StaffLines" fill="none" stroke="#000000" stroke-width="6.55" stroke-linejoin="bevel" points="153.819,2306.94 4138.58,2306.94"/>
<polyline class="StaffLines" fill="none" stroke="#000000" stroke-width="6.55" stroke-linejoin="bevel" points="153.819,2366.47 4138.58,2366.47"/>
<polyline class="StaffLines" fill="none" stroke="#000000" stroke-width="6.55" stroke-linejoin="bevel" points="153.819,2426 4138.58,2426"/>
<polyline class="BarLine" fill="none" stroke="#000000" stroke-width="10.71" stroke-linejoin="bevel" points="159.176,2184.61 159.176,2429.27"/>
<polyline class="BarLine" fill="none" stroke="#000000" stroke-width="10.71" stroke-linejoin="bevel" points="1660.52,2184.61 1660.52,2429.27"/>
<polyline class="BarLine" fill="none" stroke="#000000" stroke-width="10.71" stroke-linejoin="bevel" points="2870.53,2184.61 2870.53,2429.27"/>
<polyline class="BarLine" fill="none" stroke="#000000" stroke-width="10.71" stroke-linejoin="bevel" points="4080.54,2184.61 4080.54,2429.27"/>
<polyline class="BarLine" fill="none" stroke="#000000" stroke-width="32.74" stroke-linejoin="bevel" points="4122.21,2184.61 4122.21,2429.27"/>
<polyline class="BarLine" fill="none" stroke="#000000" stroke-width="10.71" stroke-linejoin="bevel" points="159.176,1388.54 159.176,2187.89"/>
<polyline class="BarLine" fill="none" stroke="#000000" stroke-width="10.71" stroke-linejoin="bevel" points="1660.52,1388.54 1660.52,1633.2"/>
<polyline class="BarLine" fill="none" stroke="#000000" stroke-width="10.71" stroke-linejoin="bevel" points="2870.53,1388.54 2870.53,1633.2"/>
<polyline class="BarLine" fill="none" stroke="#000000" stroke-width="10.71" stroke-linejoin="bevel" points="4080.54,1388.54 4080.54,1633.2"/>
<polyline class="BarLine" fill="none" stroke="#000000" stroke-width="32.74" stroke-linejoin="bevel" points="4122.21,1388.54 4122.21,1633.2"/>
<polyline class="BarLine" fill="none" stroke="#000000" stroke-width="10.71" stroke-linejoin="bevel" points="159.176,555.151 159.176,1391.81"/>
<polyline class="BarLine" fill="none" stroke="#000000" stroke-width="10.71" stroke-linejoin="bevel" points="1660.52,555.151 1660.52,1008.16"/>
<polyline class="BarLine" fill="none" stroke="#000000" stroke-width="10.71" stroke-linejoin="bevel" points="2870.53,555.151 2870.53,1008.16"/>
<polyline class="BarLine" fill="none" stroke="#000000" stroke-width="10.71" stroke-linejoin="bevel" points="4080.54,555.151 4080.54,1008.16"/>
<polyline class="BarLine" fill="none" stroke="#000000" stroke-width="32.74" stroke-linejoin="bevel" points="4122.21,555.151 4122.21,1008.16"/>
<path class="Accidental" transform="matrix(2.3811,0,0,2.3811,513.384,1391.81)" d="M23.3,-10.6 C23.9,-10.7 24.4,-11.4 24.4,-12 L24.4,-17.9 C24.4,-18.7 23.8,-19.3 23,-19.3 L22.8,-19.3 L19.5,-18.6 L19.5,-33.5 L16.7,-33.5 L16.7,-18 L7.8,-16.2 L7.8,-30.3 L5,-30.3 L5,-15.6 L1.1,-14.8 C0.5,-14.7 0,-14 0,-13.4 L0,-13.2 L0,-7.4 L0,-7.6 C0,-6.8 0.6,-6.2 1.4,-6.2 L1.7,-6.2 L5,-6.9 L5,9.6 L1.1,10.4 C0.5,10.5 0,11.2 0,11.8 L0,17.6 C0,18.4 0.6,19 1.4,19 L1.7,19 L5,18.3 L5,33.2 L7.8,33.2 L7.8,17.7 L16.7,15.9 L16.7,30 L19.5,30 L19.5,15.3 L23.3,14.6 C23.9,14.5 24.4,13.8 24.4,13.2 L24.4,7.3 C24.4,6.5 23.8,5.9 23,5.9 L22.8,5.9 L19.5,6.6 L19.5,-9.9 L23.3,-10.6 M7.8,9.1 L7.8,-7.5 L16.7,-9.3 L16.7,7.2 L7.8,9.1 "/>
<path class="Accidental" transform="matrix(2.3811,0,0,2.3811,1723.39,1481.1)" d="M23.3,-10.6 C23.9,-10.7 24.4,-11.4 24.4,-12 L24.4,-17.9 C24.4,-18.7 23.8,-19.3 23,-19.3 L22.8,-19.3 L19.5,-18.6 L19.5,-33.5 L16.7,-33.5 L16.7,-18 L7.8,-16.2 L7.8,-30.3 L5,-30.3 L5,-15.6 L1.1,-14.8 C0.5,-14.7 0,-14 0,-13.4 L0,-13.2 L0,-7.4 L0,-7.6 C0,-6.8 0.6,-6.2 1.4,-6.2 L1.7,-6.2 L5,-6.9 L5,9.6 L1.1,10.4 C0.5,10.5 0,11.2 0,11.8 L0,17.6 C0,18.4 0.6,19 1.4,19 L1.7,19 L5,18.3 L5,33.2 L7.8,33.2 L7.8,17.7 L16.7,15.9 L16.7,30 L19.5,30 L19.5,15.3 L23.3,14.6 C23.9,14.5 24.4,13.8 24.4,13.2 L24.4,7.3 C24.4,6.5 23.8,5.9 23,5.9 L22.8,5.9 L19.5,6.6 L19.5,-9.9 L23.3,-10.6 M7.8,9.1 L7.8,-7.5 L16.7,-9.3 L16.7,7.2 L7.8,9.1 "/>
<path class="Accidental" transform="matrix(2.3811,0,0,2.3811,2933.4,1570.39)" d="M23.3,-10.6 C23.9,-10.7 24.4,-11.4 24.4,-12 L24.4,-17.9 C24.4,-18.7 23.8,-19.3 23,-19.3 L22.8,-19.3 L19.5,-18.6 L19.5,-33.5 L16.7,-33.5 L16.7,-18 L7.8,-16.2 L7.8,-30.3 L5,-30.3 L5,-15.6 L1.1,-14.8 C0.5,-14.7 0,-14 0,-13.4 L0,-13.2 L0,-7.4 L0,-7.6 C0,-6.8 0.6,-6.2 1.4,-6.2 L1.7,-6.2 L5,-6.9 L5,9.6 L1.1,10.4 C0.5,10.5 0,11.2 0,11.8 L0,17.6 C0,18.4 0.6,19 1.4,19 L1.7,19 L5,18.3 L5,33.2 L7.8,33.2 L7.8,17.7 L16.7,15.9 L16.7,30 L19.5,30 L19.5,15.3 L23.3,14.6 C23.9,14.5 24.4,13.8 24.4,13.2 L24.4,7.3 C24.4,6.5 23.8,5.9 23,5.9 L22.8,5.9 L19.5,6.6 L19.5,-9.9 L23.3,-10.6 M7.8,9.1 L7.8,-7.5 L16.7,-9.3 L16.7,7.2 L7.8,9.1 "/>
<polyline class="LedgerLine" fill="none" stroke="#000000" stroke-width="9.52" stroke-linejoin="bevel" points="565.526,2128.36 696.003,2128.36"/>
<path class="Note" transform="matrix(2.3811,0,0,2.3811,586.361,2128.36)" d="M18.7,-13.6 C4.9,-13.6 0,-6.6 0,-0.1 C0,6.4 4.9,13.4 18.7,13.4 C32.5,13.4 37.3,6.4 37.3,-0.1 C37.3,-6.6 32.5,-13.6 18.7,-13.6 M10.4,-4.5 C10.3,-4.9 10.3,-5.3 10.3,-5.7 C10.3,-6.5 10.5,-7.3 10.9,-8 C11.6,-9 12.8,-9.7 14.3,-10 C15.6,-10.3 16.3,-10.5 18.9,-10.5 L19,-10.5 C23,-10.5 24.3,-6.8 25.4,-3 L25.7,-2 C26.5,0.6 26.9,2.8 26.9,4.5 C26.9,5.7 26.7,6.8 26.3,7.6 C25.7,8.7 24.7,9.4 23,9.8 C22.1,10 20.6,10.1 20.6,10.1 C20.1,10.1 19.7,10.2 19.3,10.2 C16.1,10.2 14.1,9 12.7,4.7 C11.5,1 11.3,-0.1 10.4,-4.5"/>
<path class="Note" transform="matrix(2.3811,0,0,2.3811,1796.37,2217.65)" d="M18.7,-13.6 C4.9,-13.6 0,-6.6 0,-0.1 C0,6.4 4.9,13.4 18.7,13.4 C32.5,13.4 37.3,6.4 37.3,-0.1 C37.3,-6.6 32.5,-13.6 18.7,-13.6 M10.4,-4.5 C10.3,-4.9 10.3,-5.3 10.3,-5.7 C10.3,-6.5 10.5,-7.3 10.9,-8 C11.6,-9 12.8,-9.7 14.3,-10 C15.6,-10.3 16.3,-10.5 18.9,-10.5 L19,-10.5 C23,-10.5 24.3,-6.8 25.4,-3 L25.7,-2 C26.5,0.6 26.9,2.8 26.9,4.5 C26.9,5.7 26.7,6.8 26.3,7.6 C25.7,8.7 24.7,9.4 23,9.8 C22.1,10 20.6,10.1 20.6,10.1 C20.1,10.1 19.7,10.2 19.3,10.2 C16.1,10.2 14.1,9 12.7,4.7 C11.5,1 11.3,-0.1 10.4,-4.5"/>
<path class="Note" transform="matrix(2.3811,0,0,2.3811,3006.38,2306.94)" d="M18.7,-13.6 C4.9,-13.6 0,-6.6 0,-0.1 C0,6.4 4.9,13.4 18.7,13.4 C32.5,13.4 37.3,6.4 37.3,-0.1 C37.3,-6.6 32.5,-13.6 18.7,-13.6 M10.4,-4.5 C10.3,-4.9 10.3,-5.3 10.3,-5.7 C10.3,-6.5 10.5,-7.3 10.9,-8 C11.6,-9 12.8,-9.7 14.3,-10 C15.6,-10.3 16.3,-10.5 18.9,-10.5 L19,-10.5 C23,-10.5 24.3,-6.8 25.4,-3 L25.7,-2 C26.5,0.6 26.9,2.8 26.9,4.5 C26.9,5.7 26.7,6.8 26.3,7.6 C25.7,8.7 24.7,9.4 23,9.8 C22.1,10 20.6,10.1 20.6,10.1 C20.1,10.1 19.7,10.2 19.3,10.2 C16.1,10.2 14.1,9 12.7,4.7 C11.5,1 11.3,-0.1 10.4,-4.5"/>
<path class="Note" transform="matrix(2.3811,0,0,2.3811,586.361,1540.63)" d="M18.7,-13.6 C4.9,-13.6 0,-6.6 0,-0.1 C0,6.4 4.9,13.4 18.7,13.4 C32.5,13.4 37.3,6.4 37.3,-0.1 C37.3,-6.6 32.5,-13.6 18.7,-13.6 M10.4,-4.5 C10.3,-4.9 10.3,-5.3 10.3,-5.7 C10.3,-6.5 10.5,-7.3 10.9,-8 C11.6,-9 12.8,-9.7 14.3,-10 C15.6,-10.3 16.3,-10.5 18.9,-10.5 L19,-10.5 C23,-10.5 24.3,-6.8 25.4,-3 L25.7,-2 C26.5,0.6 26.9,2.8 26.9,4.5 C26.9,5.7 26.7,6.8 26.3,7.6 C25.7,8.7 24.7,9.4 23,9.8 C22.1,10 20.6,10.1 20.6,10.1 C20.1,10.1 19.7,10.2 19.3,10.2 C16.1,10.2 14.1,9 12.7,4.7 C11.5,1 11.3,-0.1 10.4,-4.5"/>
<path class="Note" transform="matrix(2.3811,0,0,2.3811,586.361,1451.34)" d="M18.7,-13.6 C4.9,-13.6 0,-6.6 0,-0.1 C0,6.4 4.9,13.4 18.7,13.4 C32.5,13.4 37.3,6.4 37.3,-0.1 C37.3,-6.6 32.5,-13.6 18.7,-13.6 M10.4,-4.5 C10.3,-4.9 10.3,-5.3 10.3,-5.7 C10.3,-6.5 10.5,-7.3 10.9,-8 C11.6,-9 12.8,-9.7 14.3,-10 C15.6,-10.3 16.3,-10.5 18.9,-10.5 L19,-10.5 C23,-10.5 24.3,-6.8 25.4,-3 L25.7,-2 C26.5,0.6 26.9,2.8 26.9,4.5 C26.9,5.7 26.7,6.8 26.3,7.6 C25.7,8.7 24.7,9.4 23,9.8 C22.1,10 20.6,10.1 20.6,10.1 C20.1,10.1 19.7,10.2 19.3,10.2 C16.1,10.2 14.1,9 12.7,4.7 C11.5,1 11.3,-0.1 10.4,-4.5"/>
<path class="Note" transform="matrix(2.3811,0,0,2.3811,586.361,1391.81)" d="M18.7,-13.6 C4.9,-13.6 0,-6.6 0,-0.1 C0,6.4 4.9,13.4 18.7,13.4 C32.5,13.4 37.3,6.4 37.3,-0.1 C37.3,-6.6 32.5,-13.6 18.7,-13.6 M10.4,-4.5 C10.3,-4.9 10.3,-5.3 10.3,-5.7 C10.3,-6.5 10.5,-7.3 10.9,-8 C11.6,-9 12.8,-9.7 14.3,-10 C15.6,-10.3 16.3,-10.5 18.9,-10.5 L19,-10.5 C23,-10.5 24.3,-6.8 25.4,-3 L25.7,-2 C26.5,0.6 26.9,2.8 26.9,4.5 C26.9,5.7 26.7,6.8 26.3,7.6 C25.7,8.7 24.7,9.4 23,9.8 C22.1,10 20.6,10.1 20.6,10.1 C20.1,10.1 19.7,10.2 19.3,10.2 C16.1,10.2 14.1,9 12.7,4.7 C11.5,1 11.3,-0.1 10.4,-4.5"/>
<path class="Note" transform="matrix(2.3811,0,0,2.3811,1796.37,1540.63)" d="M18.7,-13.6 C4.9,-13.6 0,-6.6 0,-0.1 C0,6.4 4.9,13.4 18.7,13.4 C32.5,13.4 37.3,6.4 37.3,-0.1 C37.3,-6.6 32.5,-13.6 18.7,-13.6 M10.4,-4.5 C10.3,-4.9 10.3,-5.3 10.3,-5.7 C10.3,-6.5 10.5,-7.3 10.9,-8 C11.6,-9 12.8,-9.7 14.3,-10 C15.6,-10.3 16.3,-10.5 18.9,-10.5 L19,-10.5 C23,-10.5 24.3,-6.8 25.4,-3 L25.7,-2 C26.5,0.6 26.9,2.8 26.9,4.5 C26.9,5.7 26.7,6.8 26.3,7.6 C25.7,8.7 24.7,9.4 23,9.8 C22.1,10 20.6,10.1 20.6,10.1 C20.1,10.1 19.7,10.2 19.3,10.2 C16.1,10.2 14.1,9 12.7,4.7 C11.5,1 11.3,-0.1 10.4,-4.5"/>
<path class="Note" transform="matrix(2.3811,0,0,2.3811,1796.37,1481.1)" d="M18.7,-13.6 C4.9,-13.6 0,-6.6 0,-0.1 C0,6.4 4.9,13.4 18.7,13.4 C32.5,13.4 37.3,6.4 37.3,-0.1 C37.3,-6.6 32.5,-13.6 18.7,-13.6 M10.4,-4.5 C10.3,-4.9 10.3,-5.3 10.3,-5.7 C10.3,-6.5 10.5,-7.3 10.9,-8 C11.6,-9 12.8,-9.7 14.3,-10 C15.6,-10.3 16.3,-10.5 18.9,-10.5 L19,-10.5 C23,-10.5 24.3,-6.8 25.4,-3 L25.7,-2 C26.5,0.6 26.9,2.8 26.9,4.5 C26.9,5.7 26.7,6.8 26.3,7.6 C25.7,8.7 24.7,9.4 23,9.8 C22.1,10 20.6,10.1 20.6,10.1 C20.1,10.1 19.7,10.2 19.3,10.2 C16.1,10.2 14.1,9 12.7,4.7 C11.5,1 11.3,-0.1 10.4,-4.5"/>
<path class="Note" transform="matrix(2.3811,0,0,2.3811,1796.37,1421.57)" d="M18.7,-13.6 C4.9,-13.6 0,-6.6 0,-0.1 C0,6.4 4.9,13.4 18.7,13.4 C32.5,13.4 37.3,6.4 37.3,-0.1 C37.3,-6.6 32.5,-13.6 18.7,-13.6 M10.4,-4.5 C10.3,-4.9 10.3,-5.3 10.3,-5.7 C10.3,-6.5 10.5,-7.3 10.9,-8 C11.6,-9 12.8,-9.7 14.3,-10 C15.6,-10.3 16.3,-10.5 18.9,-10.5 L19,-10.5 C23,-10.5 24.3,-6.8 25.4,-3 L25.7,-2 C26.5,0.6 26.9,2.8 26.9,4.5 C26.9,5.7 26.7,6.8 26.3,7.6 C25.7,8.7 24.7,9.4 23,9.8 C22.1,10 20.6,10.1 20.6,10.1 C20.1,10.1 19.7,10.2 19.3,10.2 C16.1,10.2 14.1,9 12.7,4.7 C11.5,1 11.3,-0.1 10.4,-4.5"/>
<path class="Note" transform="matrix(2.3811,0,0,2.3811,3006.38,1570.39)" d="M18.7,-13.6 C4.9,-13.6 0,-6.6 0,-0.1 C0,6.4 4.9,13.4 18.7,13.4 C32.5,13.4 37.3,6.4 37.3,-0.1 C37.3,-6.6 32.5,-13.6 18.7,-13.6 M10.4,-4.5 C10.3,-4.9 10.3,-5.3 10.3,-5.7 C10.3,-6.5 10.5,-7.3 10.9,-8 C11.6,-9 12.8,-9.7 14.3,-10 C15.6,-10.3 16.3,-10.5 18.9,-10.5 L19,-10.5 C23,-10.5 24.3,-6.8 25.4,-3 L25.7,-2 C26.5,0.6 26.9,2.8 26.9,4.5 C26.9,5.7 26.7,6.8 26.3,7.6 C25.7,8.7 24.7,9.4 23,9.8 C22.1,10 20.6,10.1 20.6,10.1 C20.1,10.1 19.7,10.2 19.3,10.2 C16.1,10.2 14.1,9 12.7,4.7 C11.5,1 11.3,-0.1 10.4,-4.5"/>
<path class="Note" transform="matrix(2.3811,0,0,2.3811,3006.38,1510.87)" d="M18.7,-13.6 C4.9,-13.6 0,-6.6 0,-0.1 C0,6.4 4.9,13.4 18.7,13.4 C32.5,13.4 37.3,6.4 37.3,-0.1 C37.3,-6.6 32.5,-13.6 18.7,-13.6 M10.4,-4.5 C10.3,-4.9 10.3,-5.3 10.3,-5.7 C10.3,-6.5 10.5,-7.3 10.9,-8 C11.6,-9 12.8,-9.7 14.3,-10 C15.6,-10.3 16.3,-10.5 18.9,-10.5 L19,-10.5 C23,-10.5 24.3,-6.8 25.4,-3 L25.7,-2 C26.5,0.6 26.9,2.8 26.9,4.5 C26.9,5.7 26.7,6.8 26.3,7.6 C25.7,8.7 24.7,9.4 23,9.8 C22.1,10 20.6,10.1 20.6,10.1 C20.1,10.1 19.7,10.2 19.3,10.2 C16.1,10.2 14.1,9 12.7,4.7 C11.5,1 11.3,-0.1 10.4,-4.5"/>
<path class="Note" transform="matrix(2.3811,0,0,2.3811,3006.38,1421.57)" d="M18.7,-13.6 C4.9,-13.6 0,-6.6 0,-0.1 C0,6.4 4.9,13.4 18.7,13.4 C32.5,13.4 37.3,6.4 37.3,-0.1 C37.3,-6.6 32.5,-13.6 18.7,-13.6 M10.4,-4.5 C10.3,-4.9 10.3,-5.3 10.3,-5.7 C10.3,-6.5 10.5,-7.3 10.9,-8 C11.6,-9 12.8,-9.7 14.3,-10 C15.6,-10.3 16.3,-10.5 18.9,-10.5 L19,-10.5 C23,-10.5 24.3,-6.8 25.4,-3 L25.7,-2 C26.5,0.6 26.9,2.8 26.9,4.5 C26.9,5.7 26.7,6.8 26.3,7.6 C25.7,8.7 24.7,9.4 23,9.8 C22.1,10 20.6,10.1 20.6,10.1 C20.1,10.1 19.7,10.2 19.3,10.2 C16.1,10.2 14.1,9 12.7,4.7 C11.5,1 11.3,-0.1 10.4,-4.5"/>
<path class="Note" d="M680.055,561.187 C684.394,558.243 687.531,555.803 689.468,553.866 C693.032,550.07 694.814,546.583 694.814,543.407 C694.814,539.766 692.8,537.945 688.771,537.945 C680.946,537.945 672.579,544.84 663.669,558.631 C660.958,562.814 654.992,576.45 645.773,599.537 C653.133,607.129 656.813,611.429 656.813,612.436 C656.813,613.831 655.922,614.528 654.14,614.528 C652.746,614.528 648.911,612.165 642.635,607.439 C635.818,623.321 625.475,636.879 611.607,648.113 C597.429,659.579 580.501,665.312 560.823,665.312 C553.308,665.312 543.895,663.569 532.583,660.083 C523.519,657.294 518.987,652.839 518.987,646.719 C518.987,637.654 522.473,633.122 529.446,633.122 C533.629,633.122 535.721,635.059 535.721,638.932 C535.721,640.172 534.753,641.489 532.816,642.884 C531.809,643.581 531.305,644.937 531.305,646.951 C531.305,649.353 533.978,651.832 539.324,654.388 C545.134,657.178 553.656,658.572 564.89,658.572 C579.378,658.572 593.362,652.297 606.842,639.746 C619.083,628.357 627.876,615.109 633.222,600.002 C631.13,598.297 628.884,596.438 626.482,594.424 C619.044,590.008 615.326,585.475 615.326,580.827 C615.326,578.89 616.604,577.922 619.161,577.922 C622.569,577.922 627.179,580.827 632.99,586.638 C634.229,587.877 635.391,589.039 636.476,590.124 C639.188,582.686 643.526,573.235 649.492,561.768 C660.261,541.005 673.354,530.624 688.771,530.624 C694.272,530.624 698.61,531.67 701.787,533.762 C704.963,535.853 706.551,538.72 706.551,542.361 C706.551,548.172 704.421,553.091 700.16,557.12 C695.744,561.304 691.134,563.395 686.331,563.395 C682.147,563.395 680.055,562.659 680.055,561.187"/>
<path class="Note" d="M680.055,739.77 C684.394,736.826 687.531,734.386 689.468,732.449 C693.032,728.652 694.814,725.166 694.814,721.99 C694.814,718.348 692.8,716.528 688.771,716.528 C680.946,716.528 672.579,723.423 663.669,737.213 C660.958,741.397 654.992,755.032 645.773,778.12 C653.133,785.712 656.813,790.012 656.813,791.019 C656.813,792.414 655.922,793.111 654.14,793.111 C652.746,793.111 648.911,790.748 642.635,786.022 C635.818,801.904 625.475,815.462 611.607,826.696 C597.429,838.162 580.501,843.895 560.823,843.895 C553.308,843.895 543.895,842.152 532.583,838.666 C523.519,835.876 518.987,831.422 518.987,825.301 C518.987,816.237 522.473,811.705 529.446,811.705 C533.629,811.705 535.721,813.641 535.721,817.515 C535.721,818.755 534.753,820.072 532.816,821.466 C531.809,822.164 531.305,823.519 531.305,825.534 C531.305,827.935 533.978,830.415 539.324,832.971 C545.134,835.76 553.656,837.155 564.89,837.155 C579.378,837.155 593.362,830.879 606.842,818.329 C619.083,806.94 627.876,793.692 633.222,778.584 C631.13,776.88 628.884,775.021 626.482,773.006 C619.044,768.59 615.326,764.058 615.326,759.41 C615.326,757.473 616.604,756.504 619.161,756.504 C622.569,756.504 627.179,759.41 632.99,765.22 C634.229,766.46 635.391,767.622 636.476,768.707 C639.188,761.269 643.526,751.817 649.492,740.351 C660.261,719.588 673.354,709.207 688.771,709.207 C694.272,709.207 698.61,710.252 701.787,712.344 C704.963,714.436 706.551,717.303 706.551,720.944 C706.551,726.754 704.421,731.674 700.16,735.703 C695.744,739.886 691.134,741.978 686.331,741.978 C682.147,741.978 680.055,741.242 680.055,739.77"/>
<path class="Note" d="M680.055,471.896 C684.394,468.952 687.531,466.512 689.468,464.575 C693.032,460.778 694.814,457.292 694.814,454.116 C694.814,450.474 692.8,448.654 688.771,448.654 C680.946,448.654 672.579,455.549 663.669,469.339 C660.958,473.523 654.992,487.158 645.773,510.246 C653.133,517.838 656.813,522.138 656.813,523.145 C656.813,524.54 655.922,525.237 654.14,525.237 C652.746,525.237 648.911,522.874 642.635,518.148 C635.818,534.03 625.475,547.588 611.607,558.822 C597.429,570.288 580.501,576.021 560.823,576.021 C553.308,576.021 543.895,574.278 532.583,570.791 C523.519,568.002 518.987,563.548 518.987,557.427 C518.987,548.363 522.473,543.831 529.446,543.831 C533.629,543.831 535.721,545.767 535.721,549.641 C535.721,550.881 534.753,552.198 532.816,553.592 C531.809,554.29 531.305,555.645 531.305,557.66 C531.305,560.061 533.978,562.541 539.324,565.097 C545.134,567.886 553.656,569.281 564.89,569.281 C579.378,569.281 593.362,563.005 606.842,550.455 C619.083,539.066 627.876,525.818 633.222,510.71 C631.13,509.006 628.884,507.147 626.482,505.132 C619.044,500.716 615.326,496.184 615.326,491.536 C615.326,489.599 616.604,488.63 619.161,488.63 C622.569,488.63 627.179,491.536 632.99,497.346 C634.229,498.586 635.391,499.748 636.476,500.832 C639.188,493.395 643.526,483.943 649.492,472.477 C660.261,451.714 673.354,441.332 688.771,441.332 C694.272,441.332 698.61,442.378 701.787,444.47 C704.963,446.562 706.551,449.429 706.551,453.07 C706.551,458.88 704.421,463.8 700.16,467.829 C695.744,472.012 691.134,474.104 686.331,474.104 C682.147,474.104 680.055,473.368 680.055,471.896"/>
<path class="Note" d="M607.423,731.826 C603.24,731.826 601.148,729.928 601.148,726.132 C601.148,719.702 602.116,714.976 604.053,711.954 C612.11,700.023 629.62,677.711 656.581,645.017 C668.744,630.219 684.432,622.82 703.646,622.82 C711.083,622.82 716.235,623.866 719.102,625.958 C723.518,629.212 725.726,633.124 725.726,637.695 C725.726,642.499 721.852,647.845 714.105,653.733 C706.745,659.311 699.772,662.1 693.187,662.1 C690.63,662.1 689.352,661.829 689.352,661.286 C689.352,660.512 690.592,659.698 693.071,658.846 C696.402,657.606 699.966,655.088 703.762,651.292 C708.101,646.876 710.27,642.886 710.27,639.322 C710.27,636.921 708.604,634.635 705.273,632.466 C702.329,630.607 697.564,629.677 690.979,629.677 C681.372,629.677 669.248,639.361 654.605,658.73 C644.843,671.668 636.941,683.056 630.898,692.896 C633.842,691.269 637.367,689.293 641.473,686.969 C646.509,684.102 650.847,682.669 654.489,682.669 C663.553,682.669 668.085,685.923 668.085,692.431 C668.085,698.861 664.367,705.911 656.929,713.581 C651.661,719.004 649.027,723.033 649.027,725.667 C649.027,728.379 651.661,729.735 656.929,729.735 C659.563,729.735 662.275,728.805 665.064,726.945 C667.853,725.164 669.906,724.273 671.223,724.273 C672.308,724.273 672.85,724.97 672.85,726.364 C672.85,728.611 670.681,730.974 666.342,733.453 C659.06,737.637 653.21,739.729 648.794,739.729 C640.97,739.729 637.057,735.545 637.057,727.178 C637.057,721.91 640.079,716.06 646.122,709.63 C650.538,704.904 652.746,700.217 652.746,695.568 C652.746,691.54 650.576,689.526 646.238,689.526 C644.533,689.526 638.878,691.54 629.271,695.568 C626.404,700.372 624.003,704.788 622.066,708.817 C614.706,724.156 609.825,731.826 607.423,731.826"/>
<path class="Note" d="M1890.06,829.061 C1894.4,826.117 1897.54,823.677 1899.48,821.74 C1903.04,817.944 1904.82,814.457 1904.82,811.281 C1904.82,807.64 1902.81,805.819 1898.78,805.819 C1890.95,805.819 1882.59,812.714 1873.68,826.505 C1870.96,830.688 1865,844.324 1855.78,867.411 C1863.14,875.003 1866.82,879.303 1866.82,880.31 C1866.82,881.705 1865.93,882.402 1864.15,882.402 C1862.75,882.402 1858.92,880.039 1852.64,875.313 C1845.82,891.195 1835.48,904.753 1821.61,915.987 C1807.44,927.453 1790.51,933.186 1770.83,933.186 C1763.31,933.186 1753.9,931.443 1742.59,927.957 C1733.53,925.168 1728.99,920.713 1728.99,914.593 C1728.99,905.528 1732.48,900.996 1739.45,900.996 C1743.64,900.996 1745.73,902.933 1745.73,906.806 C1745.73,908.046 1744.76,909.363 1742.82,910.758 C1741.82,911.455 1741.31,912.811 1741.31,914.825 C1741.31,917.227 1743.99,919.706 1749.33,922.263 C1755.14,925.052 1763.66,926.446 1774.9,926.446 C1789.38,926.446 1803.37,920.171 1816.85,907.62 C1829.09,896.231 1837.88,882.983 1843.23,867.876 C1841.14,866.171 1838.89,864.312 1836.49,862.298 C1829.05,857.882 1825.33,853.349 1825.33,848.701 C1825.33,846.764 1826.61,845.796 1829.17,845.796 C1832.58,845.796 1837.19,848.701 1843,854.512 C1844.24,855.751 1845.4,856.913 1846.48,857.998 C1849.19,850.56 1853.53,841.109 1859.5,829.642 C1870.27,808.879 1883.36,798.498 1898.78,798.498 C1904.28,798.498 1908.62,799.544 1911.79,801.636 C1914.97,803.727 1916.56,806.594 1916.56,810.235 C1916.56,816.046 1914.43,820.965 1910.17,824.994 C1905.75,829.178 1901.14,831.269 1896.34,831.269 C1892.15,831.269 1890.06,830.533 1890.06,829.061"/>
<path class="Note" d="M1890.06,561.187 C1894.4,558.243 1897.54,555.803 1899.48,553.866 C1903.04,550.07 1904.82,546.583 1904.82,543.407 C1904.82,539.766 1902.81,537.945 1898.78,537.945 C1890.95,537.945 1882.59,544.84 1873.68,558.631 C1870.96,562.814 1865,576.45 1855.78,599.537 C1863.14,607.129 1866.82,611.429 1866.82,612.436 C1866.82,613.831 1865.93,614.528 1864.15,614.528 C1862.75,614.528 1858.92,612.165 1852.64,607.439 C1845.82,623.321 1835.48,636.879 1821.61,648.113 C1807.44,659.579 1790.51,665.312 1770.83,665.312 C1763.31,665.312 1753.9,663.569 1742.59,660.083 C1733.53,657.294 1728.99,652.839 1728.99,646.719 C1728.99,637.654 1732.48,633.122 1739.45,633.122 C1743.64,633.122 1745.73,635.059 1745.73,638.932 C1745.73,640.172 1744.76,641.489 1742.82,642.884 C1741.82,643.581 1741.31,644.937 1741.31,646.951 C1741.31,649.353 1743.99,651.832 1749.33,654.388 C1755.14,657.178 1763.66,658.572 1774.9,658.572 C1789.38,658.572 1803.37,652.297 1816.85,639.746 C1829.09,628.357 1837.88,615.109 1843.23,600.002 C1841.14,598.297 1838.89,596.438 1836.49,594.424 C1829.05,590.008 1825.33,585.475 1825.33,580.827 C1825.33,578.89 1826.61,577.922 1829.17,577.922 C1832.58,577.922 1837.19,580.827 1843,586.638 C1844.24,587.877 1845.4,589.039 1846.48,590.124 C1849.19,582.686 1853.53,573.235 1859.5,561.768 C1870.27,541.005 1883.36,530.624 1898.78,530.624 C1904.28,530.624 1908.62,531.67 1911.79,533.762 C1914.97,535.853 1916.56,538.72 1916.56,542.361 C1916.56,548.172 1914.43,553.091 1910.17,557.12 C1905.75,561.304 1901.14,563.395 1896.34,563.395 C1892.15,563.395 1890.06,562.659 1890.06,561.187"/>
<path class="Note" d="M1889.25,763.361 C1889.25,772.27 1879.1,791.832 1858.8,822.047 C1850.74,834.056 1839.16,842.849 1824.05,848.427 C1812.9,852.611 1800,854.703 1785.36,854.703 C1780.63,854.703 1776.45,853.734 1772.81,851.797 C1768.78,849.706 1766.76,847.42 1766.76,844.941 C1766.76,838.511 1770.21,835.295 1777.11,835.295 C1778.11,835.295 1778.62,835.915 1778.62,837.155 C1778.62,838.239 1778.11,839.44 1777.11,840.757 C1775.87,842.384 1775.25,843.585 1775.25,844.36 C1775.25,846.684 1778.73,847.846 1785.7,847.846 C1801.35,847.846 1813.71,845.948 1822.78,842.152 C1832.23,838.278 1841.64,828.4 1851.02,812.518 L1853.69,807.521 C1849.19,810.93 1844.74,812.634 1840.32,812.634 C1829.32,812.634 1823.82,808.179 1823.82,799.27 C1823.82,789.663 1830.29,779.553 1843.23,768.939 C1853.38,760.727 1862.4,756.621 1870.31,756.621 C1874.26,756.621 1877.55,757.666 1880.18,759.758 C1881.11,759.061 1882.28,758.712 1883.67,758.712 C1887.39,758.712 1889.25,760.262 1889.25,763.361 M1855.08,805.081 L1877.05,764.523 C1875.34,764.136 1873.44,763.942 1871.35,763.942 C1863.84,763.942 1856.55,768.319 1849.5,777.074 C1841.29,787.3 1837.19,795.474 1837.19,801.594 C1837.19,805.623 1839.86,807.637 1845.2,807.637 C1847.76,807.637 1851.05,806.785 1855.08,805.081"/>
<path class="Note" d="M1890.06,650.479 C1894.4,647.535 1897.54,645.094 1899.48,643.157 C1903.04,639.361 1904.82,635.875 1904.82,632.698 C1904.82,629.057 1902.81,627.236 1898.78,627.236 C1890.95,627.236 1882.59,634.132 1873.68,647.922 C1870.96,652.106 1865,665.741 1855.78,688.828 C1863.14,696.421 1866.82,700.721 1866.82,701.728 C1866.82,703.122 1865.93,703.819 1864.15,703.819 C1862.75,703.819 1858.92,701.457 1852.64,696.731 C1845.82,712.613 1835.48,726.171 1821.61,737.404 C1807.44,748.871 1790.51,754.604 1770.83,754.604 C1763.31,754.604 1753.9,752.86 1742.59,749.374 C1733.53,746.585 1728.99,742.13 1728.99,736.01 C1728.99,726.945 1732.48,722.413 1739.45,722.413 C1743.64,722.413 1745.73,724.35 1745.73,728.224 C1745.73,729.463 1744.76,730.78 1742.82,732.175 C1741.82,732.872 1741.31,734.228 1741.31,736.242 C1741.31,738.644 1743.99,741.123 1749.33,743.68 C1755.14,746.469 1763.66,747.863 1774.9,747.863 C1789.38,747.863 1803.37,741.588 1816.85,729.037 C1829.09,717.649 1837.88,704.401 1843.23,689.293 C1841.14,687.589 1838.89,685.729 1836.49,683.715 C1829.05,679.299 1825.33,674.767 1825.33,670.118 C1825.33,668.181 1826.61,667.213 1829.17,667.213 C1832.58,667.213 1837.19,670.118 1843,675.929 C1844.24,677.168 1845.4,678.331 1846.48,679.415 C1849.19,671.978 1853.53,662.526 1859.5,651.06 C1870.27,630.297 1883.36,619.915 1898.78,619.915 C1904.28,619.915 1908.62,620.961 1911.79,623.053 C1914.97,625.145 1916.56,628.011 1916.56,631.652 C1916.56,637.463 1914.43,642.383 1910.17,646.411 C1905.75,650.595 1901.14,652.687 1896.34,652.687 C1892.15,652.687 1890.06,651.951 1890.06,650.479"/>
<path class="Note" d="M3100.07,918.353 C3104.41,915.409 3107.55,912.968 3109.48,911.031 C3113.05,907.235 3114.83,903.749 3114.83,900.572 C3114.83,896.931 3112.81,895.11 3108.79,895.11 C3100.96,895.11 3092.59,902.006 3083.68,915.796 C3080.97,919.98 3075.01,933.615 3065.79,956.702 C3073.15,964.295 3076.83,968.595 3076.83,969.602 C3076.83,970.996 3075.94,971.693 3074.15,971.693 C3072.76,971.693 3068.92,969.331 3062.65,964.605 C3055.83,980.487 3045.49,994.045 3031.62,1005.28 C3017.44,1016.74 3000.52,1022.48 2980.84,1022.48 C2973.32,1022.48 2963.91,1020.73 2952.6,1017.25 C2943.53,1014.46 2939,1010 2939,1003.88 C2939,994.819 2942.49,990.287 2949.46,990.287 C2953.64,990.287 2955.74,992.224 2955.74,996.098 C2955.74,997.337 2954.77,998.654 2952.83,1000.05 C2951.82,1000.75 2951.32,1002.1 2951.32,1004.12 C2951.32,1006.52 2953.99,1009 2959.34,1011.55 C2965.15,1014.34 2973.67,1015.74 2984.9,1015.74 C2999.39,1015.74 3013.38,1009.46 3026.86,996.911 C3039.1,985.523 3047.89,972.275 3053.24,957.167 C3051.14,955.463 3048.9,953.603 3046.5,951.589 C3039.06,947.173 3035.34,942.641 3035.34,937.992 C3035.34,936.055 3036.62,935.087 3039.17,935.087 C3042.58,935.087 3047.19,937.992 3053,943.803 C3054.24,945.042 3055.41,946.205 3056.49,947.289 C3059.2,939.852 3063.54,930.4 3069.51,918.934 C3080.27,898.171 3093.37,887.789 3108.79,887.789 C3114.29,887.789 3118.62,888.835 3121.8,890.927 C3124.98,893.019 3126.57,895.885 3126.57,899.526 C3126.57,905.337 3124.44,910.257 3120.17,914.285 C3115.76,918.469 3111.15,920.561 3106.34,920.561 C3102.16,920.561 3100.07,919.825 3100.07,918.353"/>
<path class="Note" d="M3120.99,616.271 C3114.63,626.265 3104.6,634.555 3090.89,641.14 C3078.96,646.874 3067.8,649.74 3057.42,649.74 C3049.13,649.74 3042.24,648.074 3036.73,644.743 C3030.77,641.102 3027.79,636.763 3027.79,631.727 C3027.79,620.339 3030.77,610.538 3036.73,602.326 C3044.87,591.17 3053.08,585.592 3061.37,585.592 C3067.26,585.592 3071.44,586.754 3073.92,589.078 C3077.33,592.099 3079.04,596.244 3079.04,601.513 C3079.04,608.95 3073.5,615.419 3062.42,620.92 C3051.65,626.265 3044.17,629.752 3039.99,631.379 C3040.92,633.316 3042.12,635.059 3043.59,636.608 C3047.23,640.482 3052.19,642.419 3058.47,642.419 C3066.37,642.419 3076.98,639.513 3090.31,633.703 C3103.09,628.047 3113.32,622.237 3120.99,616.271 M3038.36,626.033 C3044.17,623.089 3049.48,619.641 3054.28,615.69 C3061.41,609.88 3064.97,603.604 3064.97,596.864 C3064.97,593.068 3063.23,591.17 3059.74,591.17 C3056.8,591.17 3052.77,594.54 3047.66,601.28 C3041.23,609.647 3038.01,616.465 3038.01,621.733 C3038.01,623.205 3038.13,624.638 3038.36,626.033"/>
<path class="Note" d="M3120.99,794.854 C3114.63,804.848 3104.6,813.138 3090.89,819.723 C3078.96,825.456 3067.8,828.323 3057.42,828.323 C3049.13,828.323 3042.24,826.657 3036.73,823.326 C3030.77,819.684 3027.79,815.346 3027.79,810.31 C3027.79,798.921 3030.77,789.121 3036.73,780.909 C3044.87,769.752 3053.08,764.174 3061.37,764.174 C3067.26,764.174 3071.44,765.336 3073.92,767.661 C3077.33,770.682 3079.04,774.827 3079.04,780.095 C3079.04,787.533 3073.5,794.002 3062.42,799.502 C3051.65,804.848 3044.17,808.334 3039.99,809.961 C3040.92,811.898 3042.12,813.641 3043.59,815.191 C3047.23,819.065 3052.19,821.001 3058.47,821.001 C3066.37,821.001 3076.98,818.096 3090.31,812.286 C3103.09,806.63 3113.32,800.819 3120.99,794.854 M3038.36,804.616 C3044.17,801.672 3049.48,798.224 3054.28,794.273 C3061.41,788.462 3064.97,782.187 3064.97,775.447 C3064.97,771.651 3063.23,769.752 3059.74,769.752 C3056.8,769.752 3052.77,773.123 3047.66,779.863 C3041.23,788.23 3038.01,795.048 3038.01,800.316 C3038.01,801.788 3038.13,803.221 3038.36,804.616"/>
<path class="Note" d="M3100.07,650.479 C3104.41,647.535 3107.55,645.094 3109.48,643.157 C3113.05,639.361 3114.83,635.875 3114.83,632.698 C3114.83,629.057 3112.81,627.236 3108.79,627.236 C3100.96,627.236 3092.59,634.132 3083.68,647.922 C3080.97,652.106 3075.01,665.741 3065.79,688.828 C3073.15,696.421 3076.83,700.721 3076.83,701.728 C3076.83,703.122 3075.94,703.819 3074.15,703.819 C3072.76,703.819 3068.92,701.457 3062.65,696.731 C3055.83,712.613 3045.49,726.171 3031.62,737.404 C3017.44,748.871 3000.52,754.604 2980.84,754.604 C2973.32,754.604 2963.91,752.86 2952.6,749.374 C2943.53,746.585 2939,742.13 2939,736.01 C2939,726.945 2942.49,722.413 2949.46,722.413 C2953.64,722.413 2955.74,724.35 2955.74,728.224 C2955.74,729.463 2954.77,730.78 2952.83,732.175 C2951.82,732.872 2951.32,734.228 2951.32,736.242 C2951.32,738.644 2953.99,741.123 2959.34,743.68 C2965.15,746.469 2973.67,747.863 2984.9,747.863 C2999.39,747.863 3013.38,741.588 3026.86,729.037 C3039.1,717.649 3047.89,704.401 3053.24,689.293 C3051.14,687.589 3048.9,685.729 3046.5,683.715 C3039.06,679.299 3035.34,674.767 3035.34,670.118 C3035.34,668.181 3036.62,667.213 3039.17,667.213 C3042.58,667.213 3047.19,670.118 3053,675.929 C3054.24,677.168 3055.41,678.331 3056.49,679.415 C3059.2,671.978 3063.54,662.526 3069.51,651.06 C3080.27,630.297 3093.37,619.915 3108.79,619.915 C3114.29,619.915 3118.62,620.961 3121.8,623.053 C3124.98,625.145 3126.57,628.011 3126.57,631.652 C3126.57,637.463 3124.44,642.383 3120.17,646.411 C3115.76,650.595 3111.15,652.687 3106.34,652.687 C3102.16,652.687 3100.07,651.951 3100.07,650.479"/>
<path class="Clef" transform="matrix(2.3811,0,0,2.3811,212.156,2247.41)" d="M25.4,-25.1 C17.8,-25.1 11.7,-20.7 11.6,-20.7 C5.8,-16.4 3.5,-11.3 2.6,-7.8 C2.1,-6 1.9,-4.2 1.9,-2.5 C1.9,-0.1 2.3,2.1 3.2,4 C4.4,6.7 6.7,8.6 9.7,9.6 C10.9,10 12.2,10.2 13.5,10.2 C15.7,10.2 18,9.6 19.9,8.5 C23,6.8 24.9,3.2 24.9,-0.7 C24.9,-4.2 23.1,-7.4 20.1,-9.3 C18,-10.7 16,-11.1 14.3,-11.1 C13.1,-11.1 12,-10.9 11.1,-10.6 C10.1,-10.2 8.4,-9.2 7.6,-8.5 C7.9,-10.4 9.1,-13.3 10.2,-14.9 C11.3,-16.5 13.5,-18.5 15.2,-19.4 C17.7,-20.8 20.9,-21.4 24.4,-21.4 C34.6,-21.4 39.6,-13.2 39.6,3.6 C39.6,12.9 36.1,21.8 33.1,27.7 C29.8,34.3 25.4,40.6 21.5,44.1 C11.1,53.6 1.3,58.1 1.2,58.1 C1.2,58.1 -0.3,59 0.1,60.5 C0.4,61.5 1.3,61.7 1.9,61.7 C2,61.7 2.3,61.6 2.4,61.6 C2.5,61.6 13.9,56.9 23,49.8 C28.1,46.1 32.7,42.1 36.7,37.8 C40.3,33.9 43.4,29.7 45.9,25.5 C50.3,18 52.8,10.2 52.8,3.5 C52.8,-4.8 50.6,-11.7 46.5,-16.6 C41.8,-22.2 34.7,-25.1 25.4,-25.1 M56.8,-12.4 C56.8,-9.6 59,-7.4 61.6,-7.4 C64.2,-7.4 66.4,-9.6 66.4,-12.4 C66.4,-15.2 64.2,-17.5 61.6,-17.5 C59,-17.5 56.8,-15.2 56.8,-12.4 M56.8,12.3 C56.8,15.1 59,17.4 61.6,17.4 C64.2,17.4 66.4,15.1 66.4,12.3 C66.4,9.5 64.2,7.2 61.6,7.2 C59,7.2 56.8,9.5 56.8,12.3"/>
<path class="Clef" transform="matrix(2.3811,0,0,2.3811,212.156,1570.39)" d="M63.37,-5.89004 C62.14,-11.32 59.5,-15.14 58.72,-16.1801 C55.5301,-20.45 51.52,-23.3 46.8301,-24.65 C43.72,-25.54 40.72,-25.65 38.3,-25.47 C37.2601,-31.4801 36.2601,-37.3601 35.35,-42.8101 C40.79,-48.97 44.42,-54.77 46.69,-59.07 C50.1601,-65.65 51.3101,-70.2301 51.3601,-70.4301 C53.0801,-75.64 53.44,-83.34 52.34,-91.55 C51.3301,-99.1 49.24,-105.81 46.89,-109.06 C45.8601,-110.49 44.8101,-111.22 43.77,-111.22 C42.55,-111.22 40.04,-109.98 37.15,-107.21 C34.85,-105.01 31.5801,-101.12 29.02,-95.1101 C26.02,-88.05 25.8101,-78.5601 26.1601,-71.84 C26.54,-64.57 27.65,-58.8801 27.6601,-58.8301 C27.6801,-58.74 27.94,-57.24 28.39,-54.67 C28.1601,-54.44 27.92,-54.22 27.67,-53.9801 C26.6301,-52.9801 25.44,-51.84 24.0601,-50.4601 C23.2,-49.6 22.25,-48.69 21.25,-47.72 C12.79,-39.57 0,-27.25 0,-8.1 C0,-3.4 0.9,1.01992 2.68008,5.02998 C4.27002,8.62998 6.57002,11.91 9.5,14.78 C17.2301,22.33 27.82,25.5399 34.8801,25.38 C37.8301,25.31 40.4601,25.0699 42.85,24.6199 C44.6801,34.2199 45.82,41.25 45.8601,46.5899 C45.9,53.1 44.25,57.0699 40.35,59.8399 C37.92,61.5699 35.1101,62.5199 32.0101,62.6699 C29.42,62.7899 27.1601,62.3199 25.7301,61.91 L25.72,61.91 C25.72,61.91 25.4301,61.83 25.42,61.63 C25.4101,61.45 25.7601,61.4 25.77,61.4 L25.79,61.4 C27.7101,60.96 31.2801,59.73 33.64,56.43 C35.44,53.91 36.3101,49.2899 34.47,45.35 C33.3601,42.96 30.85,40.01 25.2301,39.56 C22.74,39.36 20.47,39.8699 18.47,41.0699 C16.6601,42.15 15.1601,43.7899 14.1101,45.7899 C11.65,50.4899 12.1101,56.2199 15.24,60.06 C18.2,63.68 22.82,65.9899 28.25,66.5699 C29.1,66.66 29.95,66.7 30.8,66.7 C31.5101,66.7 32.22,66.6699 32.92,66.61 C31.72,66.9399 30.64,67.4899 29.77,68.25 C28.2801,69.5399 27.44,71.38 27.44,73.41 C27.44,75.28 28.0601,76.65 29.55,78.0399 C28.4101,78.5 27.55,78.98 26.79,79.56 C25.25,80.73 24.34,82.46 24.34,84.1899 C24.34,87.45 27.3,89.63 31.72,89.63 C37.1301,89.63 40.9101,86.63 40.9101,82.35 C40.9101,80.1199 39.9101,78.18 38.0801,76.83 C41.0101,75.6199 42.37,73.9399 42.37,71.56 C42.39,70.05 41.69,68.61 40.49,67.6899 C39.2801,66.7399 37.62,66.2399 35.69,66.2399 L35.5101,66.2399 C38.2801,65.7 40.92,64.7 43.2101,63.28 C46.87,60.71 48.99,56.73 49.67,51.1 C50.2301,46.46 49.84,40.55 48.44,32.48 C48.0801,30.3899 47.54,27.36 46.8801,23.6 C52.6301,21.68 56.79,18.11 60.5601,12.26 C63.85,6.51992 64.8,0.419922 63.37,-5.89004 M32.39,87.5399 C30.19,87.5399 28.7301,86.1199 28.7301,84.01 C28.7301,82.11 29.65,80.5 31.32,79.4699 C31.6801,79.66 31.77,79.71 32.1101,79.88 C33.3,80.48 33.3,80.48 33.55,80.63 L33.5601,80.6399 C35.47,81.73 36.25,82.76 36.25,84.18 C36.24,86.0899 34.59,87.5399 32.39,87.5399 M38.3101,71.63 C38.3101,73.2699 37.7301,74.3399 36.1801,75.53 C34.74,74.78 34.35,74.56 33.9801,74.3399 L33.8801,74.28 C32.3301,73.3399 31.85,72.66 31.85,71.4 C31.85,69.6 33.2301,68.3399 35.19,68.3399 C37.17,68.35 38.3101,69.55 38.3101,71.63 M33.15,-83.8101 C34.9301,-89.55 37.67,-92.8 39.6601,-94.5301 C41.4101,-96.05 43.0601,-96.7601 43.9801,-96.7601 C44.12,-96.7601 44.24,-96.74 44.34,-96.7101 C44.8,-96.57 45.3301,-96 45.8,-95.1301 C48.1101,-90.84 47.37,-84.1301 46.0301,-79.69 C44.4,-74.29 41.4801,-68.6801 32.69,-59.0601 C32.52,-60.17 32.3601,-61.22 32.2101,-62.2 C30.95,-70.49 31.27,-77.7601 33.15,-83.8101 M29.15,20.31 C24.5101,19.0899 20.0801,16.5899 16.32,13.0899 C15.0101,11.86 13.14,9.68994 11.67,6.3 C10.3101,3.13994 9.65,-0.290039 9.7,-3.88008 C9.77002,-8.57002 11.0801,-13.39 13.59,-18.1801 C16.5101,-23.7601 21.07,-29.29 27.1301,-34.62 C28.5801,-35.9 29.95,-37.1801 31.24,-38.4601 C32,-34.2 32.8301,-29.5101 33.7101,-24.6301 C29.8601,-23.3601 25.1101,-20.2101 22,-14.5601 C18.47,-7.99004 18.6101,-2.47002 19.34,1.00996 C20.2801,5.46992 22.8101,9.22998 26.27,11.3199 C27.2,11.88 31.3301,14.01 33.17,13.43 C33.54,13.31 33.8101,13.0899 33.95,12.76 C34.4601,11.5899 33.44,10.95 31.8801,9.98994 C31.2801,9.61992 30.6101,9.2 29.8801,8.66992 C26.5601,6.17998 25.1101,1.72998 26.1801,-2.65 C26.7601,-5.05 28.04,-7.21006 29.8801,-8.91006 C31.55,-10.4601 33.59,-11.5601 35.97,-12.2 C38.0101,-0.960059 40.07,10.1899 41.7101,18.55 C41.84,19.2399 41.9801,19.91 42.1101,20.58 C37.7101,21.51 33.37,21.4199 29.15,20.31 M54.9,10.1 C53.7301,13.28 51.27,17.35 46.14,19.41 C46.07,18.9899 45.99,18.56 45.9101,18.13 C44.3601,9.36992 42.4301,-1.61006 40.47,-12.87 C50.82,-13.35 55.09,-5.91006 55.9801,-1.08008 C56.45,1.45 56.45,5.88994 54.9,10.1"/>
<path class="FiguredBass" d="M580.126,2615.45 C579.446,2616.2 578.549,2616.57 577.436,2616.57 C576.322,2616.57 575.41,2616.18 574.699,2615.41 C573.988,2614.64 573.632,2613.75 573.632,2612.76 L573.632,2599.5 L560.365,2599.5 C559.252,2599.5 558.34,2599.11 557.628,2598.34 C556.917,2597.56 556.562,2596.68 556.562,2595.69 C556.562,2594.7 556.917,2593.82 557.628,2593.05 C558.34,2592.28 559.252,2591.89 560.365,2591.89 L573.632,2591.89 L573.632,2578.62 C573.632,2577.63 573.988,2576.75 574.699,2575.98 C575.41,2575.21 576.322,2574.82 577.436,2574.82 C578.549,2574.82 579.461,2575.21 580.172,2575.98 C580.884,2576.75 581.239,2577.63 581.239,2578.62 L581.239,2591.89 L594.506,2591.89 C595.619,2591.89 596.531,2592.28 597.243,2593.05 C597.954,2593.82 598.31,2594.7 598.31,2595.69 C598.31,2596.68 597.954,2597.56 597.243,2598.34 C596.531,2599.11 595.619,2599.5 594.506,2599.5 L581.239,2599.5 L581.239,2612.76 C581.239,2613.75 580.868,2614.65 580.126,2615.45 M632.9,2559.6 C635.251,2559.6 637.725,2559.26 640.322,2558.58 L644.497,2557.47 C645.301,2557.47 645.935,2557.78 646.399,2558.4 C646.863,2559.02 646.816,2559.57 646.26,2560.07 L603.12,2610.26 L628.447,2610.26 L628.447,2590.41 C628.447,2588.98 628.834,2587.89 629.607,2587.11 C630.38,2586.34 631.37,2585.72 632.576,2585.26 C633.782,2584.79 635.359,2583.42 637.307,2581.13 C639.255,2578.84 641.126,2575.75 642.92,2571.85 C643.229,2571.23 643.693,2570.92 644.312,2570.92 C645.61,2570.92 646.26,2571.63 646.26,2573.06 L646.26,2610.26 L657.207,2610.26 C658.753,2610.26 659.526,2610.97 659.526,2612.39 C659.526,2613.94 658.753,2614.71 657.207,2614.71 L646.26,2614.71 L646.26,2615.92 C646.26,2619.75 647.28,2623.09 649.321,2625.94 C651.362,2628.78 653.991,2630.21 657.207,2630.21 C658.444,2630.21 659.063,2630.76 659.063,2631.88 C659.063,2633.11 658.444,2633.73 657.207,2633.73 C654.981,2633.73 651.672,2633.41 647.28,2632.76 C642.889,2632.11 639.565,2631.78 637.307,2631.78 C635.05,2631.78 631.725,2632.11 627.334,2632.76 C622.943,2633.41 619.634,2633.73 617.407,2633.73 C616.17,2633.73 615.552,2633.11 615.552,2631.88 C615.552,2630.76 616.17,2630.21 617.407,2630.21 C620.623,2630.21 623.267,2628.78 625.339,2625.94 C627.411,2623.09 628.447,2619.75 628.447,2615.92 L628.447,2614.71 L603.12,2614.71 C601.512,2614.71 600.322,2614.33 599.548,2613.55 C598.775,2612.78 598.389,2611.99 598.389,2611.19 C598.389,2610.88 599.115,2609.81 600.569,2607.99 C602.022,2606.16 603.801,2603.73 605.903,2600.7 C608.006,2597.67 610.094,2594.22 612.166,2590.36 C614.238,2586.49 616,2581.86 617.454,2576.44 C618.907,2571.03 619.634,2565.57 619.634,2560.07 C619.634,2558.46 620.314,2557.66 621.675,2557.66 C621.86,2557.66 622.51,2557.81 623.623,2558.12 C624.736,2558.43 626.159,2558.75 627.891,2559.09 C629.622,2559.43 631.292,2559.6 632.9,2559.6"/>
<path class="FiguredBass" d="M1790.13,2615.45 C1789.45,2616.2 1788.56,2616.57 1787.44,2616.57 C1786.33,2616.57 1785.42,2616.18 1784.71,2615.41 C1783.99,2614.64 1783.64,2613.75 1783.64,2612.76 L1783.64,2599.5 L1770.37,2599.5 C1769.26,2599.5 1768.35,2599.11 1767.64,2598.34 C1766.92,2597.56 1766.57,2596.68 1766.57,2595.69 C1766.57,2594.7 1766.92,2593.82 1767.64,2593.05 C1768.35,2592.28 1769.26,2591.89 1770.37,2591.89 L1783.64,2591.89 L1783.64,2578.62 C1783.64,2577.63 1783.99,2576.75 1784.71,2575.98 C1785.42,2575.21 1786.33,2574.82 1787.44,2574.82 C1788.56,2574.82 1789.47,2575.21 1790.18,2575.98 C1790.89,2576.75 1791.25,2577.63 1791.25,2578.62 L1791.25,2591.89 L1804.51,2591.89 C1805.63,2591.89 1806.54,2592.28 1807.25,2593.05 C1807.96,2593.82 1808.32,2594.7 1808.32,2595.69 C1808.32,2596.68 1807.96,2597.56 1807.25,2598.34 C1806.54,2599.11 1805.63,2599.5 1804.51,2599.5 L1791.25,2599.5 L1791.25,2612.76 C1791.25,2613.75 1790.88,2614.65 1790.13,2615.45 M1842.91,2559.6 C1845.26,2559.6 1847.73,2559.26 1850.33,2558.58 L1854.5,2557.47 C1855.31,2557.47 1855.94,2557.78 1856.41,2558.4 C1856.87,2559.02 1856.82,2559.57 1856.27,2560.07 L1813.13,2610.26 L1838.45,2610.26 L1838.45,2590.41 C1838.45,2588.98 1838.84,2587.89 1839.61,2587.11 C1840.39,2586.34 1841.38,2585.72 1842.58,2585.26 C1843.79,2584.79 1845.37,2583.42 1847.31,2581.13 C1849.26,2578.84 1851.13,2575.75 1852.93,2571.85 C1853.24,2571.23 1853.7,2570.92 1854.32,2570.92 C1855.62,2570.92 1856.27,2571.63 1856.27,2573.06 L1856.27,2610.26 L1867.21,2610.26 C1868.76,2610.26 1869.53,2610.97 1869.53,2612.39 C1869.53,2613.94 1868.76,2614.71 1867.21,2614.71 L1856.27,2614.71 L1856.27,2615.92 C1856.27,2619.75 1857.29,2623.09 1859.33,2625.94 C1861.37,2628.78 1864,2630.21 1867.21,2630.21 C1868.45,2630.21 1869.07,2630.76 1869.07,2631.88 C1869.07,2633.11 1868.45,2633.73 1867.21,2633.73 C1864.99,2633.73 1861.68,2633.41 1857.29,2632.76 C1852.9,2632.11 1849.57,2631.78 1847.31,2631.78 C1845.06,2631.78 1841.73,2632.11 1837.34,2632.76 C1832.95,2633.41 1829.64,2633.73 1827.41,2633.73 C1826.18,2633.73 1825.56,2633.11 1825.56,2631.88 C1825.56,2630.76 1826.18,2630.21 1827.41,2630.21 C1830.63,2630.21 1833.27,2628.78 1835.35,2625.94 C1837.42,2623.09 1838.45,2619.75 1838.45,2615.92 L1838.45,2614.71 L1813.13,2614.71 C1811.52,2614.71 1810.33,2614.33 1809.56,2613.55 C1808.78,2612.78 1808.4,2611.99 1808.4,2611.19 C1808.4,2610.88 1809.12,2609.81 1810.58,2607.99 C1812.03,2606.16 1813.81,2603.73 1815.91,2600.7 C1818.01,2597.67 1820.1,2594.22 1822.17,2590.36 C1824.24,2586.49 1826.01,2581.86 1827.46,2576.44 C1828.91,2571.03 1829.64,2565.57 1829.64,2560.07 C1829.64,2558.46 1830.32,2557.66 1831.68,2557.66 C1831.87,2557.66 1832.52,2557.81 1833.63,2558.12 C1834.74,2558.43 1836.17,2558.75 1837.9,2559.09 C1839.63,2559.43 1841.3,2559.6 1842.91,2559.6"/>
<path class="FiguredBass" d="M3000.14,2615.45 C2999.46,2616.2 2998.56,2616.57 2997.45,2616.57 C2996.34,2616.57 2995.42,2616.18 2994.71,2615.41 C2994,2614.64 2993.65,2613.75 2993.65,2612.76 L2993.65,2599.5 L2980.38,2599.5 C2979.27,2599.5 2978.35,2599.11 2977.64,2598.34 C2976.93,2597.56 2976.58,2596.68 2976.58,2595.69 C2976.58,2594.7 2976.93,2593.82 2977.64,2593.05 C2978.35,2592.28 2979.27,2591.89 2980.38,2591.89 L2993.65,2591.89 L2993.65,2578.62 C2993.65,2577.63 2994,2576.75 2994.71,2575.98 C2995.42,2575.21 2996.34,2574.82 2997.45,2574.82 C2998.56,2574.82 2999.48,2575.21 3000.19,2575.98 C3000.9,2576.75 3001.25,2577.63 3001.25,2578.62 L3001.25,2591.89 L3014.52,2591.89 C3015.63,2591.89 3016.55,2592.28 3017.26,2593.05 C3017.97,2593.82 3018.32,2594.7 3018.32,2595.69 C3018.32,2596.68 3017.97,2597.56 3017.26,2598.34 C3016.55,2599.11 3015.63,2599.5 3014.52,2599.5 L3001.25,2599.5 L3001.25,2612.76 C3001.25,2613.75 3000.88,2614.65 3000.14,2615.45 M3052.91,2559.6 C3055.27,2559.6 3057.74,2559.26 3060.34,2558.58 L3064.51,2557.47 C3065.32,2557.47 3065.95,2557.78 3066.41,2558.4 C3066.88,2559.02 3066.83,2559.57 3066.27,2560.07 L3023.13,2610.26 L3048.46,2610.26 L3048.46,2590.41 C3048.46,2588.98 3048.85,2587.89 3049.62,2587.11 C3050.39,2586.34 3051.38,2585.72 3052.59,2585.26 C3053.8,2584.79 3055.37,2583.42 3057.32,2581.13 C3059.27,2578.84 3061.14,2575.75 3062.93,2571.85 C3063.24,2571.23 3063.71,2570.92 3064.33,2570.92 C3065.62,2570.92 3066.27,2571.63 3066.27,2573.06 L3066.27,2610.26 L3077.22,2610.26 C3078.77,2610.26 3079.54,2610.97 3079.54,2612.39 C3079.54,2613.94 3078.77,2614.71 3077.22,2614.71 L3066.27,2614.71 L3066.27,2615.92 C3066.27,2619.75 3067.29,2623.09 3069.34,2625.94 C3071.38,2628.78 3074.01,2630.21 3077.22,2630.21 C3078.46,2630.21 3079.08,2630.76 3079.08,2631.88 C3079.08,2633.11 3078.46,2633.73 3077.22,2633.73 C3074.99,2633.73 3071.69,2633.41 3067.29,2632.76 C3062.9,2632.11 3059.58,2631.78 3057.32,2631.78 C3055.06,2631.78 3051.74,2632.11 3047.35,2632.76 C3042.96,2633.41 3039.65,2633.73 3037.42,2633.73 C3036.18,2633.73 3035.57,2633.11 3035.57,2631.88 C3035.57,2630.76 3036.18,2630.21 3037.42,2630.21 C3040.64,2630.21 3043.28,2628.78 3045.35,2625.94 C3047.43,2623.09 3048.46,2619.75 3048.46,2615.92 L3048.46,2614.71 L3023.13,2614.71 C3021.53,2614.71 3020.34,2614.33 3019.56,2613.55 C3018.79,2612.78 3018.4,2611.99 3018.4,2611.19 C3018.4,2610.88 3019.13,2609.81 3020.58,2607.99 C3022.04,2606.16 3023.81,2603.73 3025.92,2600.7 C3028.02,2597.67 3030.11,2594.22 3032.18,2590.36 C3034.25,2586.49 3036.01,2581.86 3037.47,2576.44 C3038.92,2571.03 3039.65,2565.57 3039.65,2560.07 C3039.65,2558.46 3040.33,2557.66 3041.69,2557.66 C3041.87,2557.66 3042.52,2557.81 3043.64,2558.12 C3044.75,2558.43 3046.17,2558.75 3047.91,2559.09 C3049.64,2559.43 3051.31,2559.6 3052.91,2559.6"/>
<path class="FiguredBass" d="M632.9,1763.53 C635.251,1763.53 637.725,1763.19 640.322,1762.51 L644.497,1761.4 C645.301,1761.4 645.935,1761.71 646.399,1762.32 C646.863,1762.94 646.816,1763.5 646.26,1763.99 L603.12,1814.18 L628.447,1814.18 L628.447,1794.33 C628.447,1792.91 628.834,1791.81 629.607,1791.04 C630.38,1790.26 631.37,1789.65 632.576,1789.18 C633.782,1788.72 635.359,1787.34 637.307,1785.05 C639.255,1782.77 641.126,1779.67 642.92,1775.78 C643.229,1775.16 643.693,1774.85 644.312,1774.85 C645.61,1774.85 646.26,1775.56 646.26,1776.98 L646.26,1814.18 L657.207,1814.18 C658.753,1814.18 659.526,1814.9 659.526,1816.32 C659.526,1817.86 658.753,1818.64 657.207,1818.64 L646.26,1818.64 L646.26,1819.84 C646.26,1823.68 647.28,1827.02 649.321,1829.86 C651.362,1832.71 653.991,1834.13 657.207,1834.13 C658.444,1834.13 659.063,1834.69 659.063,1835.8 C659.063,1837.04 658.444,1837.66 657.207,1837.66 C654.981,1837.66 651.672,1837.33 647.28,1836.68 C642.889,1836.03 639.565,1835.71 637.307,1835.71 C635.05,1835.71 631.725,1836.03 627.334,1836.68 C622.943,1837.33 619.634,1837.66 617.407,1837.66 C616.17,1837.66 615.552,1837.04 615.552,1835.8 C615.552,1834.69 616.17,1834.13 617.407,1834.13 C620.623,1834.13 623.267,1832.71 625.339,1829.86 C627.411,1827.02 628.447,1823.68 628.447,1819.84 L628.447,1818.64 L603.12,1818.64 C601.512,1818.64 600.322,1818.25 599.548,1817.48 C598.775,1816.7 598.389,1815.92 598.389,1815.11 C598.389,1814.8 599.115,1813.74 600.569,1811.91 C602.022,1810.09 603.801,1807.66 605.903,1804.63 C608.006,1801.6 610.094,1798.15 612.166,1794.28 C614.238,1790.42 616,1785.78 617.454,1780.37 C618.907,1774.96 619.634,1769.5 619.634,1763.99 C619.634,1762.39 620.314,1761.58 621.675,1761.58 C621.86,1761.58 622.51,1761.74 623.623,1762.05 C624.736,1762.36 626.159,1762.68 627.891,1763.02 C629.622,1763.36 631.292,1763.53 632.9,1763.53"/>
<path class="FiguredBass" d="M637.725,1943.41 C631.725,1943.41 627.365,1941.74 624.644,1938.4 C623.654,1937.16 622.386,1936.02 620.84,1934.96 C619.294,1933.91 617.593,1933.39 615.737,1933.39 C613.325,1933.39 611.161,1934.14 609.243,1935.66 C607.326,1937.17 606.367,1939.2 606.367,1941.74 C606.367,1942.85 605.811,1943.41 604.697,1943.41 C603.46,1943.41 602.842,1942.85 602.842,1941.74 C602.842,1937.96 603.723,1934.52 605.486,1931.39 C607.249,1928.27 609.46,1925.64 612.119,1923.51 C614.779,1921.37 617.655,1919.08 620.747,1916.64 C623.84,1914.2 626.7,1911.83 629.329,1909.54 C631.957,1907.26 634.153,1904.36 635.916,1900.87 C637.678,1897.38 638.56,1893.56 638.56,1889.41 C638.56,1884.22 637.709,1879.83 636.008,1876.24 C634.308,1872.65 631.633,1870.86 627.983,1870.86 C625.881,1870.86 624.056,1871.37 622.51,1872.39 C620.964,1873.41 620.191,1874.75 620.191,1876.42 C620.191,1877.72 621.072,1879.42 622.835,1881.53 C624.597,1883.63 625.479,1885.39 625.479,1886.81 C625.479,1889.78 624.474,1892.27 622.463,1894.28 C620.453,1896.29 618.026,1897.3 615.181,1897.3 C612.212,1897.3 609.723,1896.26 607.712,1894.19 C605.702,1892.12 604.697,1889.66 604.697,1886.81 C604.697,1881.12 606.97,1876.45 611.516,1872.81 C616.062,1869.16 621.551,1867.33 627.983,1867.33 C635.591,1867.33 642.224,1869.39 647.883,1873.5 C653.543,1877.61 656.372,1882.92 656.372,1889.41 C656.372,1893.8 655.584,1897.61 654.006,1900.82 C652.429,1904.04 650.172,1906.64 647.234,1908.62 C644.296,1910.6 641.358,1912.28 638.42,1913.67 C635.483,1915.06 632.035,1916.56 628.076,1918.17 C624.118,1919.78 620.933,1921.36 618.521,1922.9 C619.819,1922.59 621.149,1922.44 622.51,1922.44 C627.087,1922.44 631.849,1923.92 636.797,1926.89 C641.745,1929.86 645.641,1931.35 648.486,1931.35 C650.094,1931.35 651.409,1931.05 652.429,1930.46 C653.45,1929.88 654.115,1929.23 654.424,1928.52 C654.733,1927.8 655.089,1927.14 655.491,1926.52 C655.893,1925.9 656.341,1925.59 656.836,1925.59 C658.073,1925.59 658.691,1926.21 658.691,1927.45 C658.691,1930.11 656.774,1933.43 652.94,1937.42 C649.105,1941.41 644.033,1943.41 637.725,1943.41"/>
<path class="FiguredBass" d="M633.55,1976.61 C628.973,1976.61 625.927,1978.45 624.412,1982.13 C622.896,1985.81 622.139,1991.02 622.139,1997.76 L622.139,2008.71 C625.355,2007.41 628.138,2006.73 630.488,2006.67 C638.529,2006.67 644.853,2008.44 649.461,2012 C654.068,2015.56 656.372,2020.84 656.372,2027.86 C656.372,2034.88 654.037,2040.19 649.368,2043.78 C644.698,2047.36 638.405,2049.16 630.488,2049.16 C622.386,2049.16 616.047,2045.4 611.47,2037.88 C606.893,2030.37 604.605,2021.45 604.605,2011.12 C604.605,2000.85 607.264,1991.95 612.583,1984.4 C617.902,1976.85 624.891,1973.08 633.55,1973.08 C639.24,1973.08 644.157,1974.52 648.301,1977.4 C652.445,1980.27 654.517,1984.06 654.517,1988.76 C654.517,1991.48 653.527,1993.83 651.548,1995.81 C649.569,1997.79 647.203,1998.78 644.451,1998.78 C641.698,1998.78 639.333,1997.79 637.354,1995.81 C635.374,1993.83 634.385,1991.48 634.385,1988.76 C634.385,1986.1 635.374,1983.75 637.354,1981.71 C638.034,1980.91 638.993,1980.23 640.23,1979.67 C639.92,1978.86 639.302,1978.25 638.374,1977.81 C637.013,1977.01 635.405,1976.61 633.55,1976.61 M638.096,2014.55 C636.982,2011.64 634.539,2010.19 630.767,2010.19 C626.994,2010.19 624.659,2011.64 623.762,2014.55 C622.865,2017.46 622.417,2021.88 622.417,2027.82 C622.417,2034.81 622.865,2039.51 623.762,2041.92 C624.659,2044.33 626.994,2045.54 630.767,2045.54 C634.539,2045.54 636.982,2044.08 638.096,2041.18 C639.209,2038.27 639.766,2033.83 639.766,2027.86 C639.766,2021.9 639.209,2017.46 638.096,2014.55"/>
<path class="FiguredBass" d="M1843.56,1765.11 C1838.98,1765.11 1835.93,1766.95 1834.42,1770.63 C1832.9,1774.31 1832.15,1779.52 1832.15,1786.26 L1832.15,1797.21 C1835.36,1795.91 1838.15,1795.23 1840.5,1795.17 C1848.54,1795.17 1854.86,1796.94 1859.47,1800.5 C1864.08,1804.06 1866.38,1809.34 1866.38,1816.36 C1866.38,1823.38 1864.04,1828.69 1859.37,1832.28 C1854.71,1835.86 1848.41,1837.66 1840.5,1837.66 C1832.39,1837.66 1826.05,1833.9 1821.48,1826.38 C1816.9,1818.87 1814.61,1809.95 1814.61,1799.62 C1814.61,1789.35 1817.27,1780.45 1822.59,1772.9 C1827.91,1765.35 1834.9,1761.58 1843.56,1761.58 C1849.25,1761.58 1854.16,1763.02 1858.31,1765.9 C1862.45,1768.77 1864.52,1772.56 1864.52,1777.26 C1864.52,1779.98 1863.53,1782.33 1861.56,1784.31 C1859.58,1786.29 1857.21,1787.28 1854.46,1787.28 C1851.71,1787.28 1849.34,1786.29 1847.36,1784.31 C1845.38,1782.33 1844.39,1779.98 1844.39,1777.26 C1844.39,1774.6 1845.38,1772.25 1847.36,1770.21 C1848.04,1769.41 1849,1768.73 1850.24,1768.17 C1849.93,1767.36 1849.31,1766.75 1848.38,1766.31 C1847.02,1765.51 1845.41,1765.11 1843.56,1765.11 M1848.1,1803.05 C1846.99,1800.14 1844.55,1798.69 1840.77,1798.69 C1837,1798.69 1834.67,1800.14 1833.77,1803.05 C1832.87,1805.96 1832.42,1810.38 1832.42,1816.32 C1832.42,1823.31 1832.87,1828.01 1833.77,1830.42 C1834.67,1832.83 1837,1834.04 1840.77,1834.04 C1844.55,1834.04 1846.99,1832.58 1848.1,1829.68 C1849.22,1826.77 1849.77,1822.33 1849.77,1816.36 C1849.77,1810.4 1849.22,1805.96 1848.1,1803.05"/>
<path class="FiguredBass" d="M1842.91,1869.28 C1845.26,1869.28 1847.73,1868.94 1850.33,1868.26 L1854.5,1867.15 C1855.31,1867.15 1855.94,1867.46 1856.41,1868.07 C1856.87,1868.69 1856.82,1869.25 1856.27,1869.74 L1813.13,1919.93 L1838.45,1919.93 L1838.45,1900.08 C1838.45,1898.66 1838.84,1897.56 1839.61,1896.79 C1840.39,1896.01 1841.38,1895.4 1842.58,1894.93 C1843.79,1894.47 1845.37,1893.09 1847.31,1890.8 C1849.26,1888.52 1851.13,1885.42 1852.93,1881.53 C1853.24,1880.91 1853.7,1880.6 1854.32,1880.6 C1855.62,1880.6 1856.27,1881.31 1856.27,1882.73 L1856.27,1919.93 L1867.21,1919.93 C1868.76,1919.93 1869.53,1920.65 1869.53,1922.07 C1869.53,1923.61 1868.76,1924.39 1867.21,1924.39 L1856.27,1924.39 L1856.27,1925.59 C1856.27,1929.43 1857.29,1932.77 1859.33,1935.61 C1861.37,1938.46 1864,1939.88 1867.21,1939.88 C1868.45,1939.88 1869.07,1940.44 1869.07,1941.55 C1869.07,1942.79 1868.45,1943.41 1867.21,1943.41 C1864.99,1943.41 1861.68,1943.08 1857.29,1942.43 C1852.9,1941.78 1849.57,1941.46 1847.31,1941.46 C1845.06,1941.46 1841.73,1941.78 1837.34,1942.43 C1832.95,1943.08 1829.64,1943.41 1827.41,1943.41 C1826.18,1943.41 1825.56,1942.79 1825.56,1941.55 C1825.56,1940.44 1826.18,1939.88 1827.41,1939.88 C1830.63,1939.88 1833.27,1938.46 1835.35,1935.61 C1837.42,1932.77 1838.45,1929.43 1838.45,1925.59 L1838.45,1924.39 L1813.13,1924.39 C1811.52,1924.39 1810.33,1924 1809.56,1923.23 C1808.78,1922.45 1808.4,1921.67 1808.4,1920.86 C1808.4,1920.55 1809.12,1919.49 1810.58,1917.66 C1812.03,1915.84 1813.81,1913.41 1815.91,1910.38 C1818.01,1907.35 1820.1,1903.9 1822.17,1900.03 C1824.24,1896.17 1826.01,1891.53 1827.46,1886.12 C1828.91,1880.71 1829.64,1875.25 1829.64,1869.74 C1829.64,1868.14 1830.32,1867.33 1831.68,1867.33 C1831.87,1867.33 1832.52,1867.49 1833.63,1867.8 C1834.74,1868.11 1836.17,1868.43 1837.9,1868.77 C1839.63,1869.11 1841.3,1869.28 1842.91,1869.28"/>
<path class="FiguredBass" d="M1847.73,2049.16 C1841.73,2049.16 1837.37,2047.49 1834.65,2044.15 C1833.66,2042.91 1832.39,2041.77 1830.85,2040.71 C1829.3,2039.66 1827.6,2039.14 1825.74,2039.14 C1823.33,2039.14 1821.17,2039.89 1819.25,2041.41 C1817.33,2042.92 1816.37,2044.95 1816.37,2047.49 C1816.37,2048.6 1815.82,2049.16 1814.7,2049.16 C1813.47,2049.16 1812.85,2048.6 1812.85,2047.49 C1812.85,2043.71 1813.73,2040.27 1815.49,2037.14 C1817.26,2034.02 1819.47,2031.39 1822.13,2029.26 C1824.79,2027.12 1827.66,2024.83 1830.75,2022.39 C1833.85,2019.95 1836.71,2017.58 1839.34,2015.29 C1841.96,2013.01 1844.16,2010.11 1845.92,2006.62 C1847.69,2003.13 1848.57,1999.31 1848.57,1995.16 C1848.57,1989.97 1847.72,1985.58 1846.02,1981.99 C1844.31,1978.4 1841.64,1976.61 1837.99,1976.61 C1835.89,1976.61 1834.06,1977.12 1832.52,1978.14 C1830.97,1979.16 1830.2,1980.5 1830.2,1982.17 C1830.2,1983.47 1831.08,1985.17 1832.84,1987.28 C1834.6,1989.38 1835.49,1991.14 1835.49,1992.56 C1835.49,1995.53 1834.48,1998.02 1832.47,2000.03 C1830.46,2002.04 1828.03,2003.05 1825.19,2003.05 C1822.22,2003.05 1819.73,2002.01 1817.72,1999.94 C1815.71,1997.87 1814.7,1995.41 1814.7,1992.56 C1814.7,1986.87 1816.98,1982.2 1821.52,1978.56 C1826.07,1974.91 1831.56,1973.08 1837.99,1973.08 C1845.6,1973.08 1852.23,1975.14 1857.89,1979.25 C1863.55,1983.36 1866.38,1988.67 1866.38,1995.16 C1866.38,1999.55 1865.59,2003.36 1864.01,2006.57 C1862.44,2009.79 1860.18,2012.39 1857.24,2014.37 C1854.3,2016.35 1851.37,2018.03 1848.43,2019.42 C1845.49,2020.81 1842.04,2022.31 1838.08,2023.92 C1834.13,2025.53 1830.94,2027.11 1828.53,2028.65 C1829.83,2028.34 1831.16,2028.19 1832.52,2028.19 C1837.09,2028.19 1841.86,2029.67 1846.8,2032.64 C1851.75,2035.61 1855.65,2037.1 1858.49,2037.1 C1860.1,2037.1 1861.42,2036.8 1862.44,2036.21 C1863.46,2035.63 1864.12,2034.98 1864.43,2034.27 C1864.74,2033.55 1865.1,2032.89 1865.5,2032.27 C1865.9,2031.65 1866.35,2031.34 1866.84,2031.34 C1868.08,2031.34 1868.7,2031.96 1868.7,2033.2 C1868.7,2035.86 1866.78,2039.18 1862.95,2043.17 C1859.11,2047.16 1854.04,2049.16 1847.73,2049.16"/>
<path class="FiguredBass" d="M3057.74,1837.66 C3051.74,1837.66 3047.38,1835.99 3044.66,1832.65 C3043.67,1831.41 3042.4,1830.27 3040.85,1829.21 C3039.31,1828.16 3037.61,1827.64 3035.75,1827.64 C3033.34,1827.64 3031.17,1828.39 3029.26,1829.91 C3027.34,1831.42 3026.38,1833.45 3026.38,1835.99 C3026.38,1837.1 3025.82,1837.66 3024.71,1837.66 C3023.47,1837.66 3022.86,1837.1 3022.86,1835.99 C3022.86,1832.21 3023.74,1828.77 3025.5,1825.64 C3027.26,1822.52 3029.47,1819.89 3032.13,1817.76 C3034.79,1815.62 3037.67,1813.33 3040.76,1810.89 C3043.85,1808.45 3046.71,1806.08 3049.34,1803.79 C3051.97,1801.51 3054.17,1798.61 3055.93,1795.12 C3057.69,1791.63 3058.57,1787.81 3058.57,1783.66 C3058.57,1778.47 3057.72,1774.08 3056.02,1770.49 C3054.32,1766.9 3051.65,1765.11 3048,1765.11 C3045.89,1765.11 3044.07,1765.62 3042.52,1766.64 C3040.98,1767.66 3040.2,1769 3040.2,1770.67 C3040.2,1771.97 3041.09,1773.67 3042.85,1775.78 C3044.61,1777.88 3045.49,1779.64 3045.49,1781.06 C3045.49,1784.03 3044.49,1786.52 3042.48,1788.53 C3040.47,1790.54 3038.04,1791.55 3035.2,1791.55 C3032.23,1791.55 3029.74,1790.51 3027.73,1788.44 C3025.72,1786.37 3024.71,1783.91 3024.71,1781.06 C3024.71,1775.37 3026.98,1770.7 3031.53,1767.06 C3036.08,1763.41 3041.57,1761.58 3048,1761.58 C3055.61,1761.58 3062.24,1763.64 3067.9,1767.75 C3073.56,1771.86 3076.39,1777.17 3076.39,1783.66 C3076.39,1788.05 3075.6,1791.86 3074.02,1795.07 C3072.44,1798.29 3070.19,1800.89 3067.25,1802.87 C3064.31,1804.85 3061.37,1806.53 3058.43,1807.92 C3055.5,1809.31 3052.05,1810.81 3048.09,1812.42 C3044.13,1814.03 3040.95,1815.61 3038.53,1817.15 C3039.83,1816.84 3041.16,1816.69 3042.52,1816.69 C3047.1,1816.69 3051.86,1818.17 3056.81,1821.14 C3061.76,1824.11 3065.66,1825.6 3068.5,1825.6 C3070.11,1825.6 3071.42,1825.3 3072.44,1824.71 C3073.46,1824.13 3074.13,1823.48 3074.44,1822.77 C3074.75,1822.05 3075.1,1821.39 3075.51,1820.77 C3075.91,1820.15 3076.36,1819.84 3076.85,1819.84 C3078.09,1819.84 3078.71,1820.46 3078.71,1821.7 C3078.71,1824.36 3076.79,1827.68 3072.95,1831.67 C3069.12,1835.66 3064.05,1837.66 3057.74,1837.66"/>
<path class="FiguredBass" d="M3053.56,1870.86 C3048.99,1870.86 3045.94,1872.7 3044.43,1876.38 C3042.91,1880.06 3042.15,1885.27 3042.15,1892.01 L3042.15,1902.96 C3045.37,1901.66 3048.15,1900.98 3050.5,1900.92 C3058.54,1900.92 3064.87,1902.69 3069.47,1906.25 C3074.08,1909.81 3076.39,1915.09 3076.39,1922.11 C3076.39,1929.13 3074.05,1934.44 3069.38,1938.03 C3064.71,1941.61 3058.42,1943.41 3050.5,1943.41 C3042.4,1943.41 3036.06,1939.65 3031.48,1932.13 C3026.91,1924.62 3024.62,1915.7 3024.62,1905.37 C3024.62,1895.1 3027.28,1886.2 3032.6,1878.65 C3037.92,1871.1 3044.91,1867.33 3053.56,1867.33 C3059.25,1867.33 3064.17,1868.77 3068.32,1871.65 C3072.46,1874.52 3074.53,1878.31 3074.53,1883.01 C3074.53,1885.73 3073.54,1888.08 3071.56,1890.06 C3069.58,1892.04 3067.22,1893.03 3064.47,1893.03 C3061.71,1893.03 3059.35,1892.04 3057.37,1890.06 C3055.39,1888.08 3054.4,1885.73 3054.4,1883.01 C3054.4,1880.35 3055.39,1878 3057.37,1875.96 C3058.05,1875.16 3059.01,1874.48 3060.24,1873.92 C3059.93,1873.11 3059.32,1872.5 3058.39,1872.06 C3057.03,1871.26 3055.42,1870.86 3053.56,1870.86 M3058.11,1908.8 C3057,1905.89 3054.55,1904.44 3050.78,1904.44 C3047.01,1904.44 3044.67,1905.89 3043.78,1908.8 C3042.88,1911.71 3042.43,1916.13 3042.43,1922.07 C3042.43,1929.06 3042.88,1933.76 3043.78,1936.17 C3044.67,1938.58 3047.01,1939.79 3050.78,1939.79 C3054.55,1939.79 3057,1938.33 3058.11,1935.43 C3059.22,1932.52 3059.78,1928.08 3059.78,1922.11 C3059.78,1916.15 3059.22,1911.71 3058.11,1908.8"/>
<path class="FiguredBass" d="M3052.91,1975.03 C3055.27,1975.03 3057.74,1974.69 3060.34,1974.01 L3064.51,1972.9 C3065.32,1972.9 3065.95,1973.21 3066.41,1973.82 C3066.88,1974.44 3066.83,1975 3066.27,1975.49 L3023.13,2025.68 L3048.46,2025.68 L3048.46,2005.83 C3048.46,2004.41 3048.85,2003.31 3049.62,2002.54 C3050.39,2001.76 3051.38,2001.15 3052.59,2000.68 C3053.8,2000.22 3055.37,1998.84 3057.32,1996.55 C3059.27,1994.27 3061.14,1991.17 3062.93,1987.28 C3063.24,1986.66 3063.71,1986.35 3064.33,1986.35 C3065.62,1986.35 3066.27,1987.06 3066.27,1988.48 L3066.27,2025.68 L3077.22,2025.68 C3078.77,2025.68 3079.54,2026.4 3079.54,2027.82 C3079.54,2029.36 3078.77,2030.14 3077.22,2030.14 L3066.27,2030.14 L3066.27,2031.34 C3066.27,2035.18 3067.29,2038.52 3069.34,2041.36 C3071.38,2044.21 3074.01,2045.63 3077.22,2045.63 C3078.46,2045.63 3079.08,2046.19 3079.08,2047.3 C3079.08,2048.54 3078.46,2049.16 3077.22,2049.16 C3074.99,2049.16 3071.69,2048.83 3067.29,2048.18 C3062.9,2047.53 3059.58,2047.21 3057.32,2047.21 C3055.06,2047.21 3051.74,2047.53 3047.35,2048.18 C3042.96,2048.83 3039.65,2049.16 3037.42,2049.16 C3036.18,2049.16 3035.57,2048.54 3035.57,2047.3 C3035.57,2046.19 3036.18,2045.63 3037.42,2045.63 C3040.64,2045.63 3043.28,2044.21 3045.35,2041.36 C3047.43,2038.52 3048.46,2035.18 3048.46,2031.34 L3048.46,2030.14 L3023.13,2030.14 C3021.53,2030.14 3020.34,2029.75 3019.56,2028.98 C3018.79,2028.2 3018.4,2027.42 3018.4,2026.61 C3018.4,2026.3 3019.13,2025.24 3020.58,2023.41 C3022.04,2021.59 3023.81,2019.16 3025.92,2016.13 C3028.02,2013.1 3030.11,2009.65 3032.18,2005.78 C3034.25,2001.92 3036.01,1997.28 3037.47,1991.87 C3038.92,1986.46 3039.65,1981 3039.65,1975.49 C3039.65,1973.89 3040.33,1973.08 3041.69,1973.08 C3041.87,1973.08 3042.52,1973.24 3043.64,1973.55 C3044.75,1973.86 3046.17,1974.18 3047.91,1974.52 C3049.64,1974.86 3051.31,1975.03 3052.91,1975.03"/>
<polyline class="FretDiagram" stroke="#fc0107" stroke-width="4.76" stroke-linejoin="bevel" points="529.931,227.452 743.039,227.452"/>
<polyline class="FretDiagram" stroke="#fc0107" stroke-width="4.76" stroke-linejoin="bevel" points="532.312,215.547 532.312,441.751"/>
<polyline class="FretDiagram" stroke="#fc0107" stroke-width="4.76" stroke-linejoin="bevel" points="573.981,215.547 573.981,441.751"/>
<polyline class="FretDiagram" stroke="#fc0107" stroke-width="4.76" stroke-linejoin="bevel" points="615.65,215.547 615.65,441.751"/>
<polyline class="FretDiagram" stroke="#fc0107" stroke-width="4.76" stroke-linejoin="bevel" points="657.32,215.547 657.32,441.751"/>
<polyline class="FretDiagram" stroke="#fc0107" stroke-width="4.76" stroke-linejoin="bevel" points="698.989,215.547 698.989,441.751"/>
<polyline class="FretDiagram" stroke="#fc0107" stroke-width="4.76" stroke-linejoin="bevel" points="740.658,215.547 740.658,441.751"/>
<polyline class="FretDiagram" stroke="#fc0107" stroke-width="4.76" stroke-linejoin="bevel" points="532.312,275.074 740.658,275.074"/>
<polyline class="FretDiagram" stroke="#fc0107" stroke-width="4.76" stroke-linejoin="bevel" points="532.312,322.696 740.658,322.696"/>
<polyline class="FretDiagram" stroke="#fc0107" stroke-width="4.76" stroke-linejoin="bevel" points="532.312,370.318 740.658,370.318"/>
<polyline class="FretDiagram" stroke="#fc0107" stroke-width="4.76" stroke-linejoin="bevel" points="532.312,417.94 740.658,417.94"/>
<path class="FretDiagram" fill="#fc0107" fill-rule="evenodd" d="M671.904,346.507 C671.904,354.562 665.374,361.091 657.32,361.091 C649.265,361.091 642.735,354.562 642.735,346.507 C642.735,338.453 649.265,331.923 657.32,331.923 C665.374,331.923 671.904,338.453 671.904,346.507"/>
<polyline class="FretDiagram" fill="none" stroke="#fc0107" stroke-width="6.86" stroke-linecap="round" stroke-linejoin="bevel" points="515.644,163.162 548.979,196.498"/>
<polyline class="FretDiagram" fill="none" stroke="#fc0107" stroke-width="6.86" stroke-linecap="round" stroke-linejoin="bevel" points="515.644,196.498 548.979,163.162"/>
<polyline class="FretDiagram" fill="none" stroke="#fc0107" stroke-width="6.86" stroke-linecap="round" stroke-linejoin="bevel" points="557.313,163.162 590.649,196.498"/>
<polyline class="FretDiagram" fill="none" stroke="#fc0107" stroke-width="6.86" stroke-linecap="round" stroke-linejoin="bevel" points="557.313,196.498 590.649,163.162"/>
<path class="FretDiagram" fill="none" stroke="#fc0107" stroke-width="6.86" stroke-linecap="round" stroke-linejoin="bevel" fill-rule="evenodd" d="M632.318,179.83 C632.318,189.035 624.856,196.498 615.65,196.498 C606.445,196.498 598.983,189.035 598.983,179.83 C598.983,170.625 606.445,163.162 615.65,163.162 C624.856,163.162 632.318,170.625 632.318,179.83"/>
<path class="FretDiagram" fill="none" stroke="#fc0107" stroke-width="6.86" stroke-linecap="round" stroke-linejoin="bevel" fill-rule="evenodd" d="M715.657,179.83 C715.657,189.035 708.194,196.498 698.989,196.498 C689.784,196.498 682.321,189.035 682.321,179.83 C682.321,170.625 689.784,163.162 698.989,163.162 C708.194,163.162 715.657,170.625 715.657,179.83"/>
<path class="FretDiagram" fill="none" stroke="#fc0107" stroke-width="6.86" stroke-linecap="round" stroke-linejoin="bevel" fill-rule="evenodd" d="M757.326,179.83 C757.326,189.035 749.864,196.498 740.658,196.498 C731.453,196.498 723.99,189.035 723.99,179.83 C723.99,170.625 731.453,163.162 740.658,163.162 C749.864,163.162 757.326,170.625 757.326,179.83"/>
<polyline class="FretDiagram" fill="none" stroke="#fc0107" stroke-width="29.17" stroke-linecap="round" stroke-linejoin="bevel" points="615.65,251.263 740.658,251.263"/>
<path class="FretDiagram" fill="#fc0107" d="M508.063,217.16 L508.063,225.425 L480.038,225.425 L477.378,244.235 C481.115,241.511 485.263,240.15 489.823,240.15 C496.283,240.15 501.524,242.224 505.545,246.372 C509.567,250.52 511.578,255.92 511.578,262.57 C511.578,269.663 509.425,275.458 505.118,279.955 C500.811,284.451 495.27,286.7 488.493,286.7 C485.896,286.7 483.505,286.415 481.32,285.845 C479.135,285.275 477.33,284.594 475.905,283.802 C474.48,283.01 473.182,281.965 472.01,280.667 C470.839,279.369 469.952,278.229 469.35,277.247 C468.749,276.265 468.179,275.03 467.64,273.542 C467.102,272.054 466.77,271.025 466.643,270.455 C466.516,269.885 466.358,269.061 466.168,267.985 L474.528,267.985 C476.491,275.521 481.083,279.29 488.303,279.29 C492.863,279.29 496.457,277.896 499.085,275.11 C501.714,272.323 503.028,268.523 503.028,263.71 C503.028,258.706 501.698,254.764 499.038,251.882 C496.378,249 492.8,247.56 488.303,247.56 C485.706,247.56 483.49,248.019 481.653,248.937 C479.816,249.855 477.916,251.486 475.953,253.83 L468.258,253.83 L473.293,217.16 L508.063,217.16 "/>
<polyline class="FretDiagram" fill="#fc0107" stroke="#fc02ff" stroke-width="4.76" stroke-linejoin="bevel" points="1739.94,227.452 1953.05,227.452"/>
<polyline class="FretDiagram" fill="#fc0107" stroke="#fc02ff" stroke-width="4.76" stroke-linejoin="bevel" points="1742.32,215.547 1742.32,441.751"/>
<polyline class="FretDiagram" fill="#fc0107" stroke="#fc02ff" stroke-width="4.76" stroke-linejoin="bevel" points="1783.99,215.547 1783.99,441.751"/>
<polyline class="FretDiagram" fill="#fc0107" stroke="#fc02ff" stroke-width="4.76" stroke-linejoin="bevel" points="1825.66,215.547 1825.66,441.751"/>
<polyline class="FretDiagram" fill="#fc0107" stroke="#fc02ff" stroke-width="4.76" stroke-linejoin="bevel" points="1867.33,215.547 1867.33,441.751"/>
<polyline class="FretDiagram" fill="#fc0107" stroke="#fc02ff" stroke-width="4.76" stroke-linejoin="bevel" points="1909,215.547 1909,441.751"/>
<polyline class="FretDiagram" fill="#fc0107" stroke="#fc02ff" stroke-width="4.76" stroke-linejoin="bevel" points="1950.67,215.547 1950.67,441.751"/>
<polyline class="FretDiagram" fill="#fc0107" stroke="#fc02ff" stroke-width="4.76" stroke-linejoin="bevel" points="1742.32,275.074 1950.67,275.074"/>
<polyline class="FretDiagram" fill="#fc0107" stroke="#fc02ff" stroke-width="4.76" stroke-linejoin="bevel" points="1742.32,322.696 1950.67,322.696"/>
<polyline class="FretDiagram" fill="#fc0107" stroke="#fc02ff" stroke-width="4.76" stroke-linejoin="bevel" points="1742.32,370.318 1950.67,370.318"/>
<polyline class="FretDiagram" fill="#fc0107" stroke="#fc02ff" stroke-width="4.76" stroke-linejoin="bevel" points="1742.32,417.94 1950.67,417.94"/>
<path class="FretDiagram" fill="#fc02ff" fill-rule="evenodd" d="M1840.24,298.885 C1840.24,306.94 1833.71,313.469 1825.66,313.469 C1817.6,313.469 1811.07,306.94 1811.07,298.885 C1811.07,290.83 1817.6,284.301 1825.66,284.301 C1833.71,284.301 1840.24,290.83 1840.24,298.885"/>
<polyline class="FretDiagram" fill="none" stroke="#fc02ff" stroke-width="6.86" stroke-linecap="round" stroke-linejoin="bevel" points="1725.65,163.162 1758.99,196.498"/>
<polyline class="FretDiagram" fill="none" stroke="#fc02ff" stroke-width="6.86" stroke-linecap="round" stroke-linejoin="bevel" points="1725.65,196.498 1758.99,163.162"/>
<polyline class="FretDiagram" fill="none" stroke="#fc02ff" stroke-width="6.86" stroke-linecap="round" stroke-linejoin="bevel" points="1934,163.162 1967.33,196.498"/>
<polyline class="FretDiagram" fill="none" stroke="#fc02ff" stroke-width="6.86" stroke-linecap="round" stroke-linejoin="bevel" points="1934,196.498 1967.33,163.162"/>
<polyline class="FretDiagram" fill="none" stroke="#fc02ff" stroke-width="29.17" stroke-linecap="round" stroke-linejoin="bevel" points="1783.99,251.263 1950.67,251.263"/>
<path class="FretDiagram" fill="#fc02ff" d="M1718.07,217.16 L1718.07,225.425 L1690.05,225.425 L1687.39,244.235 C1691.12,241.511 1695.27,240.15 1699.83,240.15 C1706.29,240.15 1711.53,242.224 1715.55,246.372 C1719.57,250.52 1721.59,255.92 1721.59,262.57 C1721.59,269.663 1719.43,275.458 1715.13,279.955 C1710.82,284.451 1705.28,286.7 1698.5,286.7 C1695.9,286.7 1693.51,286.415 1691.33,285.845 C1689.14,285.275 1687.34,284.594 1685.91,283.802 C1684.49,283.01 1683.19,281.965 1682.02,280.667 C1680.85,279.369 1679.96,278.229 1679.36,277.247 C1678.76,276.265 1678.19,275.03 1677.65,273.542 C1677.11,272.054 1676.78,271.025 1676.65,270.455 C1676.52,269.885 1676.37,269.061 1676.18,267.985 L1684.54,267.985 C1686.5,275.521 1691.09,279.29 1698.31,279.29 C1702.87,279.29 1706.46,277.896 1709.09,275.11 C1711.72,272.323 1713.04,268.523 1713.04,263.71 C1713.04,258.706 1711.71,254.764 1709.05,251.882 C1706.39,249 1702.81,247.56 1698.31,247.56 C1695.71,247.56 1693.5,248.019 1691.66,248.937 C1689.82,249.855 1687.92,251.486 1685.96,253.83 L1678.27,253.83 L1683.3,217.16 L1718.07,217.16 "/>
<polyline class="FretDiagram" fill="#fc02ff" stroke="#0000ff" stroke-width="4.76" stroke-linejoin="bevel" points="2949.94,227.452 3163.05,227.452"/>
<polyline class="FretDiagram" fill="#fc02ff" stroke="#0000ff" stroke-width="4.76" stroke-linejoin="bevel" points="2952.33,215.547 2952.33,441.751"/>
<polyline class="FretDiagram" fill="#fc02ff" stroke="#0000ff" stroke-width="4.76" stroke-linejoin="bevel" points="2994,215.547 2994,441.751"/>
<polyline class="FretDiagram" fill="#fc02ff" stroke="#0000ff" stroke-width="4.76" stroke-linejoin="bevel" points="3035.66,215.547 3035.66,441.751"/>
<polyline class="FretDiagram" fill="#fc02ff" stroke="#0000ff" stroke-width="4.76" stroke-linejoin="bevel" points="3077.33,215.547 3077.33,441.751"/>
<polyline class="FretDiagram" fill="#fc02ff" stroke="#0000ff" stroke-width="4.76" stroke-linejoin="bevel" points="3119,215.547 3119,441.751"/>
<polyline class="FretDiagram" fill="#fc02ff" stroke="#0000ff" stroke-width="4.76" stroke-linejoin="bevel" points="3160.67,215.547 3160.67,441.751"/>
<polyline class="FretDiagram" fill="#fc02ff" stroke="#0000ff" stroke-width="4.76" stroke-linejoin="bevel" points="2952.33,275.074 3160.67,275.074"/>
<polyline class="FretDiagram" fill="#fc02ff" stroke="#0000ff" stroke-width="4.76" stroke-linejoin="bevel" points="2952.33,322.696 3160.67,322.696"/>
<polyline class="FretDiagram" fill="#fc02ff" stroke="#0000ff" stroke-width="4.76" stroke-linejoin="bevel" points="2952.33,370.318 3160.67,370.318"/>
<polyline class="FretDiagram" fill="#fc02ff" stroke="#0000ff" stroke-width="4.76" stroke-linejoin="bevel" points="2952.33,417.94 3160.67,417.94"/>
<path class="FretDiagram" fill="#0000ff" fill-rule="evenodd" d="M2966.91,298.885 C2966.91,306.94 2960.38,313.469 2952.33,313.469 C2944.27,313.469 2937.74,306.94 2937.74,298.885 C2937.74,290.83 2944.27,284.301 2952.33,284.301 C2960.38,284.301 2966.91,290.83 2966.91,298.885"/>
<path class="FretDiagram" fill="#0000ff" fill-rule="evenodd" d="M3091.92,298.885 C3091.92,306.94 3085.39,313.469 3077.33,313.469 C3069.28,313.469 3062.75,306.94 3062.75,298.885 C3062.75,290.83 3069.28,284.301 3077.33,284.301 C3085.39,284.301 3091.92,290.83 3091.92,298.885"/>
<polyline class="FretDiagram" fill="none" stroke="#0000ff" stroke-width="6.86" stroke-linecap="round" stroke-linejoin="bevel" points="2977.33,163.162 3010.66,196.498"/>
<polyline class="FretDiagram" fill="none" stroke="#0000ff" stroke-width="6.86" stroke-linecap="round" stroke-linejoin="bevel" points="2977.33,196.498 3010.66,163.162"/>
<path class="FretDiagram" fill="none" stroke="#0000ff" stroke-width="6.86" stroke-linecap="round" stroke-linejoin="bevel" fill-rule="evenodd" d="M3052.33,179.83 C3052.33,189.035 3044.87,196.498 3035.66,196.498 C3026.46,196.498 3019,189.035 3019,179.83 C3019,170.625 3026.46,163.162 3035.66,163.162 C3044.87,163.162 3052.33,170.625 3052.33,179.83"/>
<path class="FretDiagram" fill="none" stroke="#0000ff" stroke-width="6.86" stroke-linecap="round" stroke-linejoin="bevel" fill-rule="evenodd" d="M3135.67,179.83 C3135.67,189.035 3128.21,196.498 3119,196.498 C3109.8,196.498 3102.34,189.035 3102.34,179.83 C3102.34,170.625 3109.8,163.162 3119,163.162 C3128.21,163.162 3135.67,170.625 3135.67,179.83"/>
<polyline class="FretDiagram" fill="none" stroke="#0000ff" stroke-width="6.86" stroke-linecap="round" stroke-linejoin="bevel" points="3144,163.162 3177.34,196.498"/>
<polyline class="FretDiagram" fill="none" stroke="#0000ff" stroke-width="6.86" stroke-linecap="round" stroke-linejoin="bevel" points="3144,196.498 3177.34,163.162"/>
<polyline class="FretDiagram" fill="none" stroke="#0000ff" stroke-width="29.17" stroke-linecap="round" stroke-linejoin="bevel" points="3035.66,251.263 3160.67,251.263"/>
<path class="FretDiagram" fill="#0000ff" d="M2913.92,268.365 L2885.52,268.365 L2885.52,259.53 L2916.11,217.16 L2922.28,217.16 L2922.28,260.86 L2932.26,260.86 L2932.26,268.365 L2922.28,268.365 L2922.28,284.515 L2913.92,284.515 L2913.92,268.365 M2913.92,260.86 L2913.92,231.41 L2892.83,260.86 L2913.92,260.86 "/>
<path class="Bracket" transform="matrix(8.6315,0,0,10.3419,76.1283,2426)" d="M0.92002,-50 C2.69004,-51.88 6.2,-55.8 6.2,-63 C6.2,-72.1 2.25996,-81.32 2.25996,-86.97 C2.25996,-93.06 5.84004,-98.84 5.95,-99 C6.05996,-99.16 6.05,-99.39 5.94004,-99.46 C5.82998,-99.53 5.62002,-99.47 5.49004,-99.32 C5.35996,-99.17 0,-93.75 0,-85.6 C0,-76.75 3.5,-70.58 3.5,-59.07 C3.5,-56.89 2.55996,-53.36 0.1,-50.33 C-0.0799805,-50.17 -0.1,-49.89 0.0599609,-49.7 L0.0700195,-49.69 L0.1,-49.66 C2.55996,-46.63 3.5,-43.1 3.5,-40.92 C3.5,-29.4 0,-23.24 0,-14.39 C0,-6.25 5.35996,-0.8 5.49004,-0.659961 C5.62002,-0.52002 5.8,-0.42998 5.94004,-0.52002 C6.07998,-0.609961 6.07998,-0.77998 5.95,-0.97998 C5.82002,-1.17998 2.25996,-6.92002 2.25996,-13.01 C2.25996,-18.66 6.2,-27.9 6.2,-37 C6.2,-44.3 2.69004,-48.12 0.92002,-50"/>
</svg>
