<?xml version="1.0" encoding="UTF-8" standalone="no"?>
<svg width="4209.44px" height="850.392px" viewBox="0 0 4209.44 850.392"
 xmlns="http://www.w3.org/2000/svg" xmlns:xlink="http://www.w3.org/1999/xlink" version="1.2" baseProfile="tiny">
<title>Exemples (5)</title>
<desc>Generated by MuseScore 3.6.2</desc>
<polyline class="StaffLines" fill="none" stroke="#000000" stroke-width="4.68" stroke-linejoin="bevel" points="70.866,325.984 4138.58,325.984"/>
<polyline class="StaffLines" fill="none" stroke="#000000" stroke-width="4.68" stroke-linejoin="bevel" points="70.866,368.504 4138.58,368.504"/>
<polyline class="StaffLines" fill="none" stroke="#000000" stroke-width="4.68" stroke-linejoin="bevel" points="70.866,411.024 4138.58,411.024"/>
<polyline class="StaffLines" fill="none" stroke="#000000" stroke-width="4.68" stroke-linejoin="bevel" points="70.866,453.543 4138.58,453.543"/>
<polyline class="StaffLines" fill="none" stroke="#000000" stroke-width="4.68" stroke-linejoin="bevel" points="70.866,496.063 4138.58,496.063"/>
<polyline class="BarLine" fill="none" stroke="#000000" stroke-width="7.65" stroke-linejoin="bevel" points="792.309,323.646 792.309,498.402"/>
<polyline class="BarLine" fill="none" stroke="#000000" stroke-width="7.65" stroke-linejoin="bevel" points="1337.16,323.646 1337.16,498.402"/>
<polyline class="BarLine" fill="none" stroke="#000000" stroke-width="7.65" stroke-linejoin="bevel" points="1882.01,323.646 1882.01,498.402"/>
<polyline class="BarLine" fill="none" stroke="#000000" stroke-width="7.65" stroke-linejoin="bevel" points="2426.87,323.646 2426.87,498.402"/>
<polyline class="BarLine" fill="none" stroke="#000000" stroke-width="7.65" stroke-linejoin="bevel" points="2971.72,323.646 2971.72,498.402"/>
<polyline class="BarLine" fill="none" stroke="#000000" stroke-width="7.65" stroke-linejoin="bevel" points="3569.82,323.646 3569.82,498.402"/>
<polyline class="BarLine" fill="none" stroke="#000000" stroke-width="7.65" stroke-linejoin="bevel" points="4097.12,323.646 4097.12,498.402"/>
<polyline class="BarLine" fill="none" stroke="#000000" stroke-width="23.39" stroke-linejoin="bevel" points="4126.89,323.646 4126.89,498.402"/>
<path class="Note" transform="matrix(1.70079,0,0,1.70079,324.111,474.803)" d="M18.7,-13.6 C4.9,-13.6 0,-6.6 0,-0.1 C0,6.4 4.9,13.4 18.7,13.4 C32.5,13.4 37.3,6.4 37.3,-0.1 C37.3,-6.6 32.5,-13.6 18.7,-13.6 M10.4,-4.5 C10.3,-4.9 10.3,-5.3 10.3,-5.7 C10.3,-6.5 10.5,-7.3 10.9,-8 C11.6,-9 12.8,-9.7 14.3,-10 C15.6,-10.3 16.3,-10.5 18.9,-10.5 L19,-10.5 C23,-10.5 24.3,-6.8 25.4,-3 L25.7,-2 C26.5,0.6 26.9,2.8 26.9,4.5 C26.9,5.7 26.7,6.8 26.3,7.6 C25.7,8.7 24.7,9.4 23,9.8 C22.1,10 20.6,10.1 20.6,10.1 C20.1,10.1 19.7,10.2 19.3,10.2 C16.1,10.2 14.1,9 12.7,4.7 C11.5,1 11.3,-0.1 10.4,-4.5"/>
<path class="Note" transform="matrix(1.70079,0,0,1.70079,855.497,411.024)" d="M18.7,-13.6 C4.9,-13.6 0,-6.6 0,-0.1 C0,6.4 4.9,13.4 18.7,13.4 C32.5,13.4 37.3,6.4 37.3,-0.1 C37.3,-6.6 32.5,-13.6 18.7,-13.6 M10.4,-4.5 C10.3,-4.9 10.3,-5.3 10.3,-5.7 C10.3,-6.5 10.5,-7.3 10.9,-8 C11.6,-9 12.8,-9.7 14.3,-10 C15.6,-10.3 16.3,-10.5 18.9,-10.5 L19,-10.5 C23,-10.5 24.3,-6.8 25.4,-3 L25.7,-2 C26.5,0.6 26.9,2.8 26.9,4.5 C26.9,5.7 26.7,6.8 26.3,7.6 C25.7,8.7 24.7,9.4 23,9.8 C22.1,10 20.6,10.1 20.6,10.1 C20.1,10.1 19.7,10.2 19.3,10.2 C16.1,10.2 14.1,9 12.7,4.7 C11.5,1 11.3,-0.1 10.4,-4.5"/>
<path class="Note" transform="matrix(1.70079,0,0,1.70079,1400.35,389.764)" d="M18.7,-13.6 C4.9,-13.6 0,-6.6 0,-0.1 C0,6.4 4.9,13.4 18.7,13.4 C32.5,13.4 37.3,6.4 37.3,-0.1 C37.3,-6.6 32.5,-13.6 18.7,-13.6 M10.4,-4.5 C10.3,-4.9 10.3,-5.3 10.3,-5.7 C10.3,-6.5 10.5,-7.3 10.9,-8 C11.6,-9 12.8,-9.7 14.3,-10 C15.6,-10.3 16.3,-10.5 18.9,-10.5 L19,-10.5 C23,-10.5 24.3,-6.8 25.4,-3 L25.7,-2 C26.5,0.6 26.9,2.8 26.9,4.5 C26.9,5.7 26.7,6.8 26.3,7.6 C25.7,8.7 24.7,9.4 23,9.8 C22.1,10 20.6,10.1 20.6,10.1 C20.1,10.1 19.7,10.2 19.3,10.2 C16.1,10.2 14.1,9 12.7,4.7 C11.5,1 11.3,-0.1 10.4,-4.5"/>
<path class="Note" transform="matrix(1.70079,0,0,1.70079,1945.2,389.764)" d="M18.7,-13.6 C4.9,-13.6 0,-6.6 0,-0.1 C0,6.4 4.9,13.4 18.7,13.4 C32.5,13.4 37.3,6.4 37.3,-0.1 C37.3,-6.6 32.5,-13.6 18.7,-13.6 M10.4,-4.5 C10.3,-4.9 10.3,-5.3 10.3,-5.7 C10.3,-6.5 10.5,-7.3 10.9,-8 C11.6,-9 12.8,-9.7 14.3,-10 C15.6,-10.3 16.3,-10.5 18.9,-10.5 L19,-10.5 C23,-10.5 24.3,-6.8 25.4,-3 L25.7,-2 C26.5,0.6 26.9,2.8 26.9,4.5 C26.9,5.7 26.7,6.8 26.3,7.6 C25.7,8.7 24.7,9.4 23,9.8 C22.1,10 20.6,10.1 20.6,10.1 C20.1,10.1 19.7,10.2 19.3,10.2 C16.1,10.2 14.1,9 12.7,4.7 C11.5,1 11.3,-0.1 10.4,-4.5"/>
<path class="Note" transform="matrix(1.70079,0,0,1.70079,2490.06,389.764)" d="M18.7,-13.6 C4.9,-13.6 0,-6.6 0,-0.1 C0,6.4 4.9,13.4 18.7,13.4 C32.5,13.4 37.3,6.4 37.3,-0.1 C37.3,-6.6 32.5,-13.6 18.7,-13.6 M10.4,-4.5 C10.3,-4.9 10.3,-5.3 10.3,-5.7 C10.3,-6.5 10.5,-7.3 10.9,-8 C11.6,-9 12.8,-9.7 14.3,-10 C15.6,-10.3 16.3,-10.5 18.9,-10.5 L19,-10.5 C23,-10.5 24.3,-6.8 25.4,-3 L25.7,-2 C26.5,0.6 26.9,2.8 26.9,4.5 C26.9,5.7 26.7,6.8 26.3,7.6 C25.7,8.7 24.7,9.4 23,9.8 C22.1,10 20.6,10.1 20.6,10.1 C20.1,10.1 19.7,10.2 19.3,10.2 C16.1,10.2 14.1,9 12.7,4.7 C11.5,1 11.3,-0.1 10.4,-4.5"/>
<path class="Note" transform="matrix(1.70079,0,0,1.70079,3034.91,389.764)" d="M18.7,-13.6 C4.9,-13.6 0,-6.6 0,-0.1 C0,6.4 4.9,13.4 18.7,13.4 C32.5,13.4 37.3,6.4 37.3,-0.1 C37.3,-6.6 32.5,-13.6 18.7,-13.6 M10.4,-4.5 C10.3,-4.9 10.3,-5.3 10.3,-5.7 C10.3,-6.5 10.5,-7.3 10.9,-8 C11.6,-9 12.8,-9.7 14.3,-10 C15.6,-10.3 16.3,-10.5 18.9,-10.5 L19,-10.5 C23,-10.5 24.3,-6.8 25.4,-3 L25.7,-2 C26.5,0.6 26.9,2.8 26.9,4.5 C26.9,5.7 26.7,6.8 26.3,7.6 C25.7,8.7 24.7,9.4 23,9.8 C22.1,10 20.6,10.1 20.6,10.1 C20.1,10.1 19.7,10.2 19.3,10.2 C16.1,10.2 14.1,9 12.7,4.7 C11.5,1 11.3,-0.1 10.4,-4.5"/>
<path class="Note" transform="matrix(1.70079,0,0,1.70079,3628.92,474.803)" d="M18.7,-13.6 C4.9,-13.6 0,-6.6 0,-0.1 C0,6.4 4.9,13.4 18.7,13.4 C32.5,13.4 37.3,6.4 37.3,-0.1 C37.3,-6.6 32.5,-13.6 18.7,-13.6 M10.4,-4.5 C10.3,-4.9 10.3,-5.3 10.3,-5.7 C10.3,-6.5 10.5,-7.3 10.9,-8 C11.6,-9 12.8,-9.7 14.3,-10 C15.6,-10.3 16.3,-10.5 18.9,-10.5 L19,-10.5 C23,-10.5 24.3,-6.8 25.4,-3 L25.7,-2 C26.5,0.6 26.9,2.8 26.9,4.5 C26.9,5.7 26.7,6.8 26.3,7.6 C25.7,8.7 24.7,9.4 23,9.8 C22.1,10 20.6,10.1 20.6,10.1 C20.1,10.1 19.7,10.2 19.3,10.2 C16.1,10.2 14.1,9 12.7,4.7 C11.5,1 11.3,-0.1 10.4,-4.5"/>
<path class="Clef" transform="matrix(1.70079,0,0,1.70079,104.882,368.504)" d="M25.4,-25.1 C17.8,-25.1 11.7,-20.7 11.6,-20.7 C5.8,-16.4 3.5,-11.3 2.6,-7.8 C2.1,-6 1.9,-4.2 1.9,-2.5 C1.9,-0.1 2.3,2.1 3.2,4 C4.4,6.7 6.7,8.6 9.7,9.6 C10.9,10 12.2,10.2 13.5,10.2 C15.7,10.2 18,9.6 19.9,8.5 C23,6.8 24.9,3.2 24.9,-0.7 C24.9,-4.2 23.1,-7.4 20.1,-9.3 C18,-10.7 16,-11.1 14.3,-11.1 C13.1,-11.1 12,-10.9 11.1,-10.6 C10.1,-10.2 8.4,-9.2 7.6,-8.5 C7.9,-10.4 9.1,-13.3 10.2,-14.9 C11.3,-16.5 13.5,-18.5 15.2,-19.4 C17.7,-20.8 20.9,-21.4 24.4,-21.4 C34.6,-21.4 39.6,-13.2 39.6,3.6 C39.6,12.9 36.1,21.8 33.1,27.7 C29.8,34.3 25.4,40.6 21.5,44.1 C11.1,53.6 1.3,58.1 1.2,58.1 C1.2,58.1 -0.3,59 0.1,60.5 C0.4,61.5 1.3,61.7 1.9,61.7 C2,61.7 2.3,61.6 2.4,61.6 C2.5,61.6 13.9,56.9 23,49.8 C28.1,46.1 32.7,42.1 36.7,37.8 C40.3,33.9 43.4,29.7 45.9,25.5 C50.3,18 52.8,10.2 52.8,3.5 C52.8,-4.8 50.6,-11.7 46.5,-16.6 C41.8,-22.2 34.7,-25.1 25.4,-25.1 M56.8,-12.4 C56.8,-9.6 59,-7.4 61.6,-7.4 C64.2,-7.4 66.4,-9.6 66.4,-12.4 C66.4,-15.2 64.2,-17.5 61.6,-17.5 C59,-17.5 56.8,-15.2 56.8,-12.4 M56.8,12.3 C56.8,15.1 59,17.4 61.6,17.4 C64.2,17.4 66.4,15.1 66.4,12.3 C66.4,9.5 64.2,7.2 61.6,7.2 C59,7.2 56.8,9.5 56.8,12.3"/>
<path class="FiguredBass" d="M1427.75,637.681 L1427.75,651.559 C1427.75,652.932 1427.05,653.618 1425.66,653.618 C1424.26,653.618 1423.57,652.932 1423.57,651.559 L1423.57,639.473 L1421.44,640.337 C1421.22,640.425 1420.93,640.47 1420.58,640.47 C1420,640.47 1419.49,640.248 1419.05,639.806 C1418.61,639.363 1418.39,638.854 1418.39,638.278 L1418.39,631.505 C1418.39,630.531 1418.85,629.845 1419.78,629.446 L1423.57,627.852 L1423.57,613.907 L1421.44,614.77 C1421.31,614.815 1421.13,614.837 1420.91,614.837 C1420.82,614.837 1420.71,614.837 1420.58,614.837 C1419.91,614.748 1419.38,614.505 1418.99,614.106 C1418.59,613.708 1418.39,613.243 1418.39,612.712 L1418.39,605.938 C1418.39,605.009 1418.85,604.345 1419.78,603.946 L1423.57,602.352 L1423.57,588.208 C1423.57,586.835 1424.26,586.149 1425.66,586.149 C1427.05,586.149 1427.75,586.835 1427.75,588.208 L1427.75,600.626 L1436.32,597.04 L1436.32,583.161 C1436.32,581.789 1437,581.102 1438.38,581.102 C1439.75,581.102 1440.43,581.789 1440.43,583.161 L1440.43,595.38 L1442.76,594.384 C1442.98,594.295 1443.22,594.251 1443.49,594.251 C1444.06,594.251 1444.58,594.472 1445.05,594.915 C1445.51,595.358 1445.75,595.867 1445.75,596.442 L1445.75,603.216 C1445.75,604.19 1445.26,604.876 1444.29,605.274 L1440.43,606.868 L1440.43,620.88 L1442.76,619.95 C1442.89,619.906 1443.05,619.884 1443.22,619.884 C1443.31,619.884 1443.4,619.884 1443.49,619.884 C1444.24,620.016 1444.81,620.26 1445.18,620.614 C1445.56,620.968 1445.75,621.433 1445.75,622.009 L1445.75,628.782 C1445.75,629.712 1445.26,630.376 1444.29,630.774 L1440.43,632.368 L1440.43,646.513 C1440.43,647.885 1439.75,648.571 1438.38,648.571 C1437,648.571 1436.32,647.885 1436.32,646.513 L1436.32,634.095 L1427.75,637.681 M1427.75,626.126 L1436.32,622.606 L1436.32,608.595 L1427.75,612.181 L1427.75,626.126 "/>
<path class="FiguredBass" d="M1978.91,592.657 C1975.64,592.657 1973.46,593.974 1972.37,596.608 C1971.29,599.242 1970.74,602.972 1970.74,607.798 L1970.74,615.634 C1973.05,614.704 1975.04,614.217 1976.72,614.173 C1982.48,614.173 1987,615.445 1990.3,617.991 C1993.6,620.537 1995.25,624.322 1995.25,629.347 C1995.25,634.371 1993.58,638.167 1990.23,640.735 C1986.89,643.303 1982.39,644.587 1976.72,644.587 C1970.92,644.587 1966.38,641.897 1963.11,636.518 C1959.83,631.139 1958.19,624.753 1958.19,617.36 C1958.19,610.011 1960.1,603.636 1963.9,598.235 C1967.71,592.834 1972.71,590.134 1978.91,590.134 C1982.99,590.134 1986.5,591.163 1989.47,593.222 C1992.44,595.28 1993.92,597.992 1993.92,601.356 C1993.92,603.304 1993.21,604.986 1991.8,606.403 C1990.38,607.82 1988.69,608.528 1986.72,608.528 C1984.75,608.528 1983.05,607.82 1981.64,606.403 C1980.22,604.986 1979.51,603.304 1979.51,601.356 C1979.51,599.453 1980.22,597.77 1981.64,596.309 C1982.12,595.734 1982.81,595.247 1983.69,594.848 C1983.47,594.273 1983.03,593.83 1982.37,593.52 C1981.39,592.945 1980.24,592.657 1978.91,592.657 M1982.17,619.817 C1981.37,617.736 1979.62,616.696 1976.92,616.696 C1974.22,616.696 1972.55,617.736 1971.91,619.817 C1971.26,621.898 1970.94,625.063 1970.94,629.313 C1970.94,634.316 1971.26,637.681 1971.91,639.407 C1972.55,641.134 1974.22,641.997 1976.92,641.997 C1979.62,641.997 1981.37,640.957 1982.17,638.876 C1982.96,636.795 1983.36,633.619 1983.36,629.347 C1983.36,625.074 1982.96,621.898 1982.17,619.817"/>
<path class="FiguredBass" d="M1978.45,667.231 C1980.13,667.231 1981.9,666.988 1983.76,666.501 L1986.75,665.704 C1987.32,665.704 1987.78,665.925 1988.11,666.368 C1988.44,666.811 1988.41,667.209 1988.01,667.563 L1957.13,703.489 L1975.26,703.489 L1975.26,689.278 C1975.26,688.26 1975.54,687.474 1976.09,686.921 C1976.64,686.367 1977.35,685.925 1978.22,685.593 C1979.08,685.261 1980.21,684.276 1981.6,682.638 C1983,681 1984.34,678.786 1985.62,675.997 C1985.84,675.554 1986.17,675.333 1986.62,675.333 C1987.55,675.333 1988.01,675.842 1988.01,676.86 L1988.01,703.489 L1995.85,703.489 C1996.95,703.489 1997.51,703.998 1997.51,705.016 C1997.51,706.123 1996.95,706.677 1995.85,706.677 L1988.01,706.677 L1988.01,707.54 C1988.01,710.285 1988.74,712.675 1990.2,714.712 C1991.66,716.748 1993.54,717.766 1995.85,717.766 C1996.73,717.766 1997.17,718.165 1997.17,718.962 C1997.17,719.847 1996.73,720.29 1995.85,720.29 C1994.25,720.29 1991.88,720.057 1988.74,719.593 C1985.6,719.128 1983.22,718.895 1981.6,718.895 C1979.99,718.895 1977.61,719.128 1974.46,719.593 C1971.32,720.057 1968.95,720.29 1967.36,720.29 C1966.47,720.29 1966.03,719.847 1966.03,718.962 C1966.03,718.165 1966.47,717.766 1967.36,717.766 C1969.66,717.766 1971.55,716.748 1973.04,714.712 C1974.52,712.675 1975.26,710.285 1975.26,707.54 L1975.26,706.677 L1957.13,706.677 C1955.98,706.677 1955.13,706.4 1954.57,705.847 C1954.02,705.293 1953.74,704.729 1953.74,704.153 C1953.74,703.932 1954.26,703.168 1955.3,701.862 C1956.35,700.556 1957.62,698.819 1959.12,696.649 C1960.63,694.48 1962.12,692.012 1963.61,689.245 C1965.09,686.478 1966.35,683.158 1967.39,679.284 C1968.43,675.41 1968.95,671.503 1968.95,667.563 C1968.95,666.412 1969.44,665.837 1970.41,665.837 C1970.55,665.837 1971.01,665.947 1971.81,666.169 C1972.6,666.39 1973.62,666.623 1974.86,666.866 C1976.1,667.11 1977.3,667.231 1978.45,667.231"/>
<path class="FiguredBass" d="M2523.3,591.528 C2524.98,591.528 2526.75,591.285 2528.61,590.798 L2531.6,590.001 C2532.18,590.001 2532.63,590.222 2532.96,590.665 C2533.29,591.108 2533.26,591.506 2532.86,591.86 L2501.98,627.786 L2520.11,627.786 L2520.11,613.575 C2520.11,612.557 2520.39,611.771 2520.94,611.218 C2521.5,610.664 2522.2,610.222 2523.07,609.889 C2523.93,609.557 2525.06,608.572 2526.45,606.934 C2527.85,605.296 2529.19,603.083 2530.47,600.294 C2530.69,599.851 2531.03,599.63 2531.47,599.63 C2532.4,599.63 2532.86,600.139 2532.86,601.157 L2532.86,627.786 L2540.7,627.786 C2541.81,627.786 2542.36,628.295 2542.36,629.313 C2542.36,630.42 2541.81,630.973 2540.7,630.973 L2532.86,630.973 L2532.86,631.837 C2532.86,634.582 2533.59,636.972 2535.05,639.009 C2536.52,641.045 2538.4,642.063 2540.7,642.063 C2541.58,642.063 2542.03,642.462 2542.03,643.259 C2542.03,644.144 2541.58,644.587 2540.7,644.587 C2539.11,644.587 2536.74,644.354 2533.59,643.889 C2530.45,643.425 2528.07,643.192 2526.45,643.192 C2524.84,643.192 2522.46,643.425 2519.32,643.889 C2516.17,644.354 2513.8,644.587 2512.21,644.587 C2511.33,644.587 2510.88,644.144 2510.88,643.259 C2510.88,642.462 2511.33,642.063 2512.21,642.063 C2514.51,642.063 2516.41,641.045 2517.89,639.009 C2519.37,636.972 2520.11,634.582 2520.11,631.837 L2520.11,630.973 L2501.98,630.973 C2500.83,630.973 2499.98,630.697 2499.43,630.143 C2498.87,629.59 2498.6,629.026 2498.6,628.45 C2498.6,628.229 2499.12,627.465 2500.16,626.159 C2501.2,624.853 2502.47,623.115 2503.98,620.946 C2505.48,618.777 2506.98,616.309 2508.46,613.542 C2509.94,610.775 2511.2,607.455 2512.24,603.581 C2513.28,599.707 2513.8,595.8 2513.8,591.86 C2513.8,590.709 2514.29,590.134 2515.27,590.134 C2515.4,590.134 2515.86,590.244 2516.66,590.466 C2517.46,590.687 2518.48,590.919 2519.71,591.163 C2520.95,591.406 2522.15,591.528 2523.3,591.528"/>
<path class="FiguredBass" d="M3062.31,637.681 L3062.31,651.559 C3062.31,652.932 3061.61,653.618 3060.22,653.618 C3058.82,653.618 3058.13,652.932 3058.13,651.559 L3058.13,639.473 L3056,640.337 C3055.78,640.425 3055.49,640.47 3055.14,640.47 C3054.56,640.47 3054.05,640.248 3053.61,639.806 C3053.17,639.363 3052.95,638.854 3052.95,638.278 L3052.95,631.505 C3052.95,630.531 3053.41,629.845 3054.34,629.446 L3058.13,627.852 L3058.13,613.907 L3056,614.77 C3055.87,614.815 3055.69,614.837 3055.47,614.837 C3055.38,614.837 3055.27,614.837 3055.14,614.837 C3054.47,614.748 3053.94,614.505 3053.54,614.106 C3053.15,613.708 3052.95,613.243 3052.95,612.712 L3052.95,605.938 C3052.95,605.009 3053.41,604.345 3054.34,603.946 L3058.13,602.352 L3058.13,588.208 C3058.13,586.835 3058.82,586.149 3060.22,586.149 C3061.61,586.149 3062.31,586.835 3062.31,588.208 L3062.31,600.626 L3070.88,597.04 L3070.88,583.161 C3070.88,581.789 3071.56,581.102 3072.93,581.102 C3074.31,581.102 3074.99,581.789 3074.99,583.161 L3074.99,595.38 L3077.32,594.384 C3077.54,594.295 3077.78,594.251 3078.05,594.251 C3078.62,594.251 3079.14,594.472 3079.61,594.915 C3080.07,595.358 3080.31,595.867 3080.31,596.442 L3080.31,603.216 C3080.31,604.19 3079.82,604.876 3078.85,605.274 L3074.99,606.868 L3074.99,620.88 L3077.32,619.95 C3077.45,619.906 3077.61,619.884 3077.78,619.884 C3077.87,619.884 3077.96,619.884 3078.05,619.884 C3078.8,620.016 3079.37,620.26 3079.74,620.614 C3080.12,620.968 3080.31,621.433 3080.31,622.009 L3080.31,628.782 C3080.31,629.712 3079.82,630.376 3078.85,630.774 L3074.99,632.368 L3074.99,646.513 C3074.99,647.885 3074.31,648.571 3072.93,648.571 C3071.56,648.571 3070.88,647.885 3070.88,646.513 L3070.88,634.095 L3062.31,637.681 M3062.31,626.126 L3070.88,622.606 L3070.88,608.595 L3062.31,612.181 L3062.31,626.126 "/>
<path class="FiguredBass" d="M3315.58,595.048 C3315.72,595.048 3316,594.76 3316.45,594.184 C3318.35,591.484 3321.01,590.134 3324.41,590.134 C3327.16,590.134 3329.75,591.152 3332.18,593.188 C3334.62,595.225 3336.63,596.243 3338.23,596.243 C3339.95,596.243 3341.59,595.734 3343.14,594.716 C3344.69,593.697 3345.92,592.679 3346.83,591.661 C3347.73,590.643 3348.32,590.134 3348.59,590.134 C3349.03,590.134 3349.43,590.278 3349.78,590.565 C3350.14,590.853 3350.31,591.218 3350.31,591.661 C3350.31,591.971 3349.41,593.498 3347.59,596.243 C3345.78,598.988 3343.76,602.164 3341.55,605.772 C3339.33,609.38 3337.32,613.885 3335.5,619.286 C3333.69,624.687 3332.78,629.845 3332.78,634.759 C3332.78,636.662 3332.98,638.854 3333.38,641.333 C3333.69,643.236 3333.69,644.321 3333.38,644.587 C3333.16,644.808 3332.78,644.919 3332.25,644.919 C3332.03,644.919 3331,644.631 3329.16,644.056 C3327.33,643.48 3325.57,643.192 3323.88,643.192 C3322.38,643.192 3320.64,643.48 3318.67,644.056 C3316.7,644.631 3315.6,644.919 3315.38,644.919 C3314.9,644.919 3314.5,644.72 3314.19,644.321 C3313.88,643.923 3313.83,643.502 3314.06,643.059 C3316.67,636.817 3319.84,630.741 3323.58,624.831 C3327.33,618.921 3332.01,612.114 3337.63,604.411 C3335.5,605.562 3333.36,606.138 3331.19,606.138 C3328.89,606.138 3326.56,605.108 3324.22,603.05 C3321.87,600.991 3319.94,599.962 3318.44,599.962 C3317.33,599.962 3316.37,600.593 3315.55,601.854 C3314.73,603.116 3314.32,605.009 3314.32,607.532 L3314.32,615.7 C3314.32,616.807 3313.81,617.36 3312.79,617.36 C3311.69,617.36 3311.13,616.807 3311.13,615.7 L3311.13,591.794 C3311.13,590.687 3311.69,590.134 3312.79,590.134 C3313.81,590.134 3314.32,590.687 3314.32,591.794 L3314.32,593.321 C3314.32,593.675 3314.41,593.985 3314.59,594.251 C3315.12,594.782 3315.45,595.048 3315.58,595.048"/>
<path class="FiguredBass" d="M3332.06,707.208 C3331.57,707.739 3330.93,708.005 3330.13,708.005 C3329.33,708.005 3328.68,707.728 3328.17,707.175 C3327.66,706.621 3327.41,705.99 3327.41,705.282 L3327.41,695.786 L3317.91,695.786 C3317.11,695.786 3316.46,695.509 3315.95,694.956 C3315.44,694.403 3315.19,693.772 3315.19,693.063 C3315.19,692.355 3315.44,691.724 3315.95,691.171 C3316.46,690.617 3317.11,690.341 3317.91,690.341 L3327.41,690.341 L3327.41,680.845 C3327.41,680.136 3327.66,679.505 3328.17,678.952 C3328.68,678.399 3329.33,678.122 3330.13,678.122 C3330.93,678.122 3331.58,678.399 3332.09,678.952 C3332.6,679.505 3332.85,680.136 3332.85,680.845 L3332.85,690.341 L3342.35,690.341 C3343.15,690.341 3343.8,690.617 3344.31,691.171 C3344.82,691.724 3345.07,692.355 3345.07,693.063 C3345.07,693.772 3344.82,694.403 3344.31,694.956 C3343.8,695.509 3343.15,695.786 3342.35,695.786 L3332.85,695.786 L3332.85,705.282 C3332.85,705.99 3332.59,706.632 3332.06,707.208"/>
<path class="StaffText" d="M364.142,196.278 L360.912,196.278 L357.512,201.293 C351.307,196.788 348.162,195.598 342.297,195.598 C334.222,195.598 327.337,198.998 321.642,205.798 C316.202,212.258 313.652,219.398 313.652,228.153 C313.652,246.513 325.637,259.518 342.382,259.518 C355.982,259.518 364.652,251.528 366.607,237.248 L362.612,236.568 C360.317,249.233 353.857,255.523 343.402,255.523 C330.822,255.523 324.872,246.853 324.872,228.493 C324.872,218.803 326.147,212.428 329.037,207.328 C331.672,202.568 336.857,199.593 342.382,199.593 C348.332,199.593 353.602,202.738 356.832,208.178 C358.447,210.983 359.637,214.128 361.677,220.843 L365.417,220.843 L364.142,196.278 M408.169,230.873 C408.169,225.518 407.234,222.798 404.769,220.758 C401.964,218.463 397.799,217.358 392.359,217.358 C382.754,217.358 375.784,221.863 375.784,228.068 C375.784,231.213 377.739,233.253 380.714,233.253 C383.434,233.253 385.304,231.468 385.304,228.918 C385.304,227.813 384.879,226.623 384.029,225.433 C383.519,224.838 383.434,224.668 383.434,224.243 C383.434,222.543 386.834,221.013 390.914,221.013 C393.634,221.013 396.609,221.863 397.969,223.138 C399.584,224.498 400.179,226.538 400.179,230.363 L400.179,233.678 C391.339,235.208 388.534,235.888 384.369,237.503 C376.974,240.223 373.489,244.133 373.489,249.573 C373.489,255.693 378.249,259.518 385.814,259.518 C391.679,259.518 396.949,257.138 400.604,252.803 C401.964,257.138 404.089,258.838 408.084,258.838 C411.909,258.838 415.904,256.373 415.904,253.908 C415.904,253.313 415.564,252.888 415.054,252.888 C414.714,252.888 414.374,252.973 413.779,253.228 C412.589,253.738 412.079,253.823 411.399,253.823 C409.019,253.823 408.169,252.293 408.169,247.958 L408.169,230.873 M400.179,241.243 C400.179,246.343 399.924,247.533 398.479,249.743 C396.354,252.888 392.529,255.013 388.789,255.013 C384.879,255.013 382.074,252.208 382.074,248.383 C382.074,244.813 383.859,242.263 387.599,240.478 C390.234,239.288 393.549,238.438 400.179,237.333 L400.179,241.243 M449.299,258.838 L464.089,258.243 L464.089,254.588 L462.559,254.588 C457.714,254.333 457.289,253.823 457.289,248.383 L457.289,195.598 L440.629,196.533 L440.629,200.188 L445.644,200.188 C448.874,200.273 449.299,200.783 449.299,204.438 L449.299,223.648 C446.154,219.313 442.499,217.358 437.569,217.358 C427.964,217.358 420.654,226.623 420.654,238.863 C420.654,250.933 427.709,259.518 437.569,259.518 C442.924,259.518 446.579,257.223 449.299,252.123 L449.299,258.838 M439.269,221.948 C442.754,221.948 446.069,224.498 447.599,228.408 C448.704,230.958 449.214,234.443 449.214,238.608 C449.214,248.553 445.304,254.928 439.184,254.928 C433.149,254.928 429.579,249.318 429.579,239.883 C429.579,234.783 430.089,230.958 431.194,228.153 C432.639,224.328 435.784,221.948 439.269,221.948 M505.305,239.118 C505.39,226.368 498.165,217.358 487.795,217.358 C476.915,217.358 468.755,226.793 468.755,239.543 C468.755,251.528 476.49,259.518 487.965,259.518 C496.125,259.518 501.82,255.523 505.305,247.448 L502.33,245.833 C498.845,252.378 495.275,254.928 489.58,254.928 C485.245,254.928 482.1,253.143 479.89,249.318 C478.36,246.768 477.68,243.793 477.765,239.118 L505.305,239.118 M477.85,235.463 C477.85,232.828 478.19,230.958 479.04,228.578 C480.825,223.478 483.545,221.013 487.71,221.013 C492.81,221.013 496.21,225.518 496.21,232.403 C496.21,234.783 495.445,235.463 492.725,235.463 L477.85,235.463 M525.28,218.633 L510.575,219.568 L510.575,223.223 L513.635,223.223 C516.865,223.308 517.29,223.818 517.29,227.473 L517.29,247.788 L517.29,249.828 L517.29,251.783 C517.205,253.058 517.12,253.568 516.78,253.993 C516.185,254.758 514.57,255.098 510.915,255.183 L510.575,255.183 L510.575,258.243 L532.08,258.243 L532.08,255.183 L531.74,255.183 C526.045,255.013 525.28,254.588 525.28,251.528 L525.28,247.788 L525.28,238.948 C525.28,234.783 525.875,230.958 526.81,229.003 C528.595,225.178 532.42,222.543 536.075,222.543 C538.285,222.543 540.835,223.733 542.11,225.518 C543.385,227.388 543.98,229.938 543.98,234.018 L543.98,247.788 L543.98,251.783 C543.895,253.058 543.81,253.568 543.47,253.993 C542.875,254.758 541.175,255.098 537.52,255.183 L537.18,255.183 L537.18,258.243 L558.685,258.243 L558.685,255.183 L558.345,255.183 C552.735,255.013 551.97,254.588 551.97,251.528 L551.97,247.788 L551.97,234.443 C551.97,228.323 551.715,226.793 550.185,223.903 C548.06,219.823 543.81,217.358 538.71,217.358 C533.185,217.358 529.02,219.908 525.28,225.518 L525.28,218.633 M593.097,245.748 C590.377,251.868 587.487,254.333 583.067,254.333 C576.267,254.333 572.017,248.128 572.017,238.183 C572.017,227.813 576.182,221.013 582.472,221.013 C585.022,221.013 587.232,222.203 587.232,223.563 C587.232,223.818 587.147,224.073 586.722,224.583 C585.362,226.198 585.022,227.048 585.022,228.493 C585.022,231.298 587.147,233.253 590.122,233.253 C593.182,233.253 595.307,230.873 595.307,227.473 C595.307,221.693 589.612,217.358 582.047,217.358 C570.997,217.358 563.092,226.368 563.092,239.118 C563.092,251.188 570.317,259.518 580.857,259.518 C588.422,259.518 592.757,256.033 596.412,247.023 L593.097,245.748 M637.461,239.118 C637.546,226.368 630.321,217.358 619.951,217.358 C609.071,217.358 600.911,226.793 600.911,239.543 C600.911,251.528 608.646,259.518 620.121,259.518 C628.281,259.518 633.976,255.523 637.461,247.448 L634.486,245.833 C631.001,252.378 627.431,254.928 621.736,254.928 C617.401,254.928 614.256,253.143 612.046,249.318 C610.516,246.768 609.836,243.793 609.921,239.118 L637.461,239.118 M610.006,235.463 C610.006,232.828 610.346,230.958 611.196,228.578 C612.981,223.478 615.701,221.013 619.866,221.013 C624.966,221.013 628.366,225.518 628.366,232.403 C628.366,234.783 627.601,235.463 624.881,235.463 L610.006,235.463 M696.956,245.748 C694.236,251.868 691.346,254.333 686.926,254.333 C680.126,254.333 675.876,248.128 675.876,238.183 C675.876,227.813 680.041,221.013 686.331,221.013 C688.881,221.013 691.091,222.203 691.091,223.563 C691.091,223.818 691.006,224.073 690.581,224.583 C689.221,226.198 688.881,227.048 688.881,228.493 C688.881,231.298 691.006,233.253 693.981,233.253 C697.041,233.253 699.166,230.873 699.166,227.473 C699.166,221.693 693.471,217.358 685.906,217.358 C674.856,217.358 666.951,226.368 666.951,239.118 C666.951,251.188 674.176,259.518 684.716,259.518 C692.281,259.518 696.616,256.033 700.271,247.023 L696.956,245.748 M723.138,217.358 C712.683,217.358 704.608,226.623 704.608,238.523 C704.608,250.168 712.768,259.518 722.968,259.518 C733.168,259.518 741.328,250.168 741.328,238.438 C741.328,226.793 733.168,217.358 723.138,217.358 M723.138,221.013 C729.088,221.013 732.403,227.218 732.403,238.438 C732.403,249.743 729.088,255.863 722.968,255.863 C716.848,255.863 713.533,249.743 713.533,238.523 C713.533,226.963 716.763,221.013 723.138,221.013 M761.303,218.633 L746.173,219.568 L746.173,223.223 L749.658,223.223 C752.888,223.308 753.313,223.818 753.313,227.473 L753.313,247.788 L753.313,251.103 L753.313,251.783 C753.228,253.058 753.143,253.568 752.803,253.993 C752.208,254.758 750.593,255.098 746.938,255.183 L746.598,255.183 L746.598,258.243 L768.018,258.243 L768.018,255.183 L767.678,255.183 C762.068,255.013 761.303,254.588 761.303,251.443 L761.303,247.788 L761.303,235.718 C761.303,228.153 765.468,222.543 770.993,222.543 C775.838,222.543 778.303,226.028 778.303,232.913 L778.303,247.788 L778.303,251.868 C778.218,252.973 778.133,253.568 777.708,253.993 C777.198,254.758 775.498,255.098 771.843,255.183 L771.503,255.183 L771.503,258.243 L793.008,258.243 L793.008,255.183 L792.668,255.183 C787.058,255.013 786.293,254.588 786.293,251.528 L786.293,247.788 L786.293,236.483 C786.293,227.983 790.118,222.543 796.068,222.543 C800.913,222.543 803.293,226.198 803.293,233.848 L803.293,247.788 L803.293,251.783 C803.208,252.973 803.123,253.568 802.698,253.993 C802.188,254.758 800.488,255.098 796.833,255.183 L796.493,255.183 L796.493,258.243 L817.998,258.243 L817.998,255.183 L817.658,255.183 C812.048,255.013 811.283,254.588 811.283,251.443 L811.283,247.788 L811.283,232.148 C811.283,226.878 810.773,225.093 808.563,222.203 C806.098,219.058 802.613,217.358 798.533,217.358 C793.008,217.358 788.928,219.993 785.273,225.858 C783.828,220.758 779.238,217.358 773.543,217.358 C768.358,217.358 764.618,219.823 761.303,225.178 L761.303,218.633 M834.318,218.633 L819.613,219.568 L819.613,223.223 L822.673,223.223 C825.903,223.308 826.328,223.818 826.328,227.473 L826.328,264.958 L826.328,269.038 C826.243,270.228 826.158,270.738 825.818,271.163 C825.223,271.928 823.608,272.268 819.953,272.353 L819.613,272.353 L819.613,275.413 L841.713,275.413 L841.713,272.353 L840.778,272.353 C835.083,272.183 834.318,271.758 834.318,268.698 L834.318,264.958 L834.318,252.633 C837.123,257.563 840.268,259.518 845.538,259.518 C850.723,259.518 854.973,257.308 858.033,253.143 C861.008,249.063 862.708,243.793 862.708,238.268 C862.708,232.743 861.008,227.558 857.863,223.478 C854.718,219.398 850.808,217.358 846.048,217.358 C840.778,217.358 837.293,219.568 834.318,224.668 L834.318,218.633 M844.518,221.948 C850.383,221.948 853.783,227.813 853.783,237.758 C853.783,248.723 850.383,254.928 844.263,254.928 C838.143,254.928 834.233,248.638 834.233,238.863 C834.233,228.238 838.058,221.948 844.518,221.948 M883.354,195.598 L867.629,196.533 L867.629,200.188 L871.794,200.188 C874.939,200.273 875.364,200.783 875.364,204.438 L875.364,247.788 L875.364,251.783 C875.279,253.058 875.194,253.568 874.854,253.993 C874.259,254.758 872.644,255.098 868.989,255.183 L868.394,255.183 L868.394,258.243 L890.409,258.243 L890.409,255.183 L889.814,255.183 C884.119,255.013 883.354,254.588 883.354,251.528 L883.354,247.788 L883.354,195.598 M932.305,239.118 C932.39,226.368 925.165,217.358 914.795,217.358 C903.915,217.358 895.755,226.793 895.755,239.543 C895.755,251.528 903.49,259.518 914.965,259.518 C923.125,259.518 928.82,255.523 932.305,247.448 L929.33,245.833 C925.845,252.378 922.275,254.928 916.58,254.928 C912.245,254.928 909.1,253.143 906.89,249.318 C905.36,246.768 904.68,243.793 904.765,239.118 L932.305,239.118 M904.85,235.463 C904.85,232.828 905.19,230.958 906.04,228.578 C907.825,223.478 910.545,221.013 914.71,221.013 C919.81,221.013 923.21,225.518 923.21,232.403 C923.21,234.783 922.445,235.463 919.725,235.463 L904.85,235.463 M950.067,218.633 L950.067,201.803 L946.582,201.803 C945.732,212.853 941.992,218.463 935.107,218.973 L935.107,222.288 L942.077,222.288 L942.077,243.963 C942.077,249.913 942.247,252.038 943.097,253.993 C944.457,257.563 947.857,259.518 952.787,259.518 C960.437,259.518 965.367,253.738 965.367,244.728 C965.367,244.218 965.367,243.623 965.282,242.773 L961.712,242.773 C961.457,250.423 959.247,254.333 955.082,254.333 C953.127,254.333 951.427,253.313 950.832,251.868 C950.322,250.678 950.067,248.553 950.067,245.493 L950.067,222.288 L962.562,222.288 L962.562,218.633 L950.067,218.633 M1006.76,239.118 C1006.84,226.368 999.618,217.358 989.248,217.358 C978.368,217.358 970.208,226.793 970.208,239.543 C970.208,251.528 977.943,259.518 989.418,259.518 C997.578,259.518 1003.27,255.523 1006.76,247.448 L1003.78,245.833 C1000.3,252.378 996.728,254.928 991.033,254.928 C986.698,254.928 983.553,253.143 981.343,249.318 C979.813,246.768 979.133,243.793 979.218,239.118 L1006.76,239.118 M979.303,235.463 C979.303,232.828 979.643,230.958 980.493,228.578 C982.278,223.478 984.998,221.013 989.163,221.013 C994.263,221.013 997.663,225.518 997.663,232.403 C997.663,234.783 996.898,235.463 994.178,235.463 L979.303,235.463 M1057.07,195.683 C1051.89,198.828 1049.25,201.038 1046.36,204.438 C1039.9,212.088 1036.42,221.863 1036.42,232.148 C1036.42,241.838 1039.48,250.933 1045.17,258.498 C1048.4,262.578 1051.29,265.128 1057.07,268.698 L1057.07,265.553 C1048.57,257.988 1045.17,248.553 1045.17,232.148 C1045.17,215.743 1048.57,206.308 1057.07,198.828 L1057.07,195.683 M1099.82,218.633 L1095.83,224.413 C1092.43,219.653 1088.26,217.358 1082.91,217.358 C1072.54,217.358 1064.72,226.793 1064.72,239.373 C1064.72,251.018 1072.03,259.518 1081.97,259.518 C1087.24,259.518 1090.13,257.988 1093.53,253.313 L1093.53,264.958 L1093.53,269.038 C1093.45,270.228 1093.36,270.738 1093.02,271.163 C1092.43,271.928 1090.81,272.268 1087.07,272.353 L1086.14,272.353 L1086.14,275.413 L1108.24,275.413 L1108.24,272.353 L1107.9,272.353 C1102.29,272.183 1101.52,271.758 1101.52,268.698 L1101.52,264.958 L1101.52,231.978 C1101.61,227.133 1101.61,226.793 1101.61,225.858 C1101.78,224.243 1102.03,223.053 1102.97,218.633 L1099.82,218.633 M1083.67,221.013 C1087.07,221.013 1090.13,223.223 1091.75,226.793 C1093.02,229.598 1093.53,232.573 1093.53,237.503 C1093.53,249.148 1090.3,254.928 1083.67,254.928 C1077.3,254.928 1073.64,249.063 1073.64,238.863 C1073.64,226.878 1076.96,221.013 1083.67,221.013 M1142.82,258.838 L1158.29,258.243 L1158.29,254.588 L1156.16,254.588 C1151.23,254.418 1150.81,253.908 1150.81,248.383 L1150.81,218.633 L1134.83,219.568 L1134.83,223.223 L1139.16,223.223 C1142.39,223.308 1142.82,223.818 1142.82,227.473 L1142.82,237.928 C1142.82,242.773 1142.31,245.663 1141.03,248.383 C1139.25,252.208 1135.85,254.333 1131.68,254.333 C1129.05,254.333 1126.84,253.398 1125.73,251.698 C1124.63,250.083 1124.46,249.233 1124.46,244.558 L1124.46,218.633 L1109.58,219.568 L1109.58,223.223 L1112.81,223.223 C1116.04,223.308 1116.47,223.818 1116.47,227.473 L1116.47,245.833 C1116.47,250.168 1116.81,252.123 1118.08,254.078 C1120.38,257.563 1124.46,259.518 1129.56,259.518 C1135.17,259.518 1139.08,257.223 1142.82,251.783 L1142.82,258.838 M1198.14,230.873 C1198.14,225.518 1197.2,222.798 1194.74,220.758 C1191.93,218.463 1187.77,217.358 1182.33,217.358 C1172.72,217.358 1165.75,221.863 1165.75,228.068 C1165.75,231.213 1167.71,233.253 1170.68,233.253 C1173.4,233.253 1175.27,231.468 1175.27,228.918 C1175.27,227.813 1174.85,226.623 1174,225.433 C1173.49,224.838 1173.4,224.668 1173.4,224.243 C1173.4,222.543 1176.8,221.013 1180.88,221.013 C1183.6,221.013 1186.58,221.863 1187.94,223.138 C1189.55,224.498 1190.15,226.538 1190.15,230.363 L1190.15,233.678 C1181.31,235.208 1178.5,235.888 1174.34,237.503 C1166.94,240.223 1163.46,244.133 1163.46,249.573 C1163.46,255.693 1168.22,259.518 1175.78,259.518 C1181.65,259.518 1186.92,257.138 1190.57,252.803 C1191.93,257.138 1194.06,258.838 1198.05,258.838 C1201.88,258.838 1205.87,256.373 1205.87,253.908 C1205.87,253.313 1205.53,252.888 1205.02,252.888 C1204.68,252.888 1204.34,252.973 1203.75,253.228 C1202.56,253.738 1202.05,253.823 1201.37,253.823 C1198.99,253.823 1198.14,252.293 1198.14,247.958 L1198.14,230.873 M1190.15,241.243 C1190.15,246.343 1189.89,247.533 1188.45,249.743 C1186.32,252.888 1182.5,255.013 1178.76,255.013 C1174.85,255.013 1172.04,252.208 1172.04,248.383 C1172.04,244.813 1173.83,242.263 1177.57,240.478 C1180.2,239.288 1183.52,238.438 1190.15,237.333 L1190.15,241.243 M1223.8,218.633 L1208.75,219.568 L1208.75,223.223 L1212.24,223.223 C1215.47,223.308 1215.89,223.818 1215.89,227.473 L1215.89,247.788 L1215.89,251.783 C1215.81,253.058 1215.72,253.568 1215.38,253.993 C1214.79,254.758 1213.09,255.098 1209.43,255.183 L1209.09,255.183 L1209.09,258.243 L1231.79,258.243 L1231.79,255.183 L1230.26,255.183 C1224.56,255.013 1223.8,254.588 1223.8,251.528 L1223.8,247.788 L1223.8,246.938 C1223.88,232.658 1228.98,221.778 1235.61,221.438 C1234.42,222.798 1234.08,223.648 1234.08,225.263 C1234.08,227.983 1236.04,229.938 1238.76,229.938 C1241.9,229.938 1243.94,227.643 1243.94,224.243 C1243.94,220.078 1241.05,217.358 1236.55,217.358 C1231.19,217.358 1226.6,221.608 1223.8,229.173 L1223.8,218.633 M1262.8,218.633 L1262.8,201.803 L1259.32,201.803 C1258.47,212.853 1254.73,218.463 1247.84,218.973 L1247.84,222.288 L1254.81,222.288 L1254.81,243.963 C1254.81,249.913 1254.98,252.038 1255.83,253.993 C1257.19,257.563 1260.59,259.518 1265.52,259.518 C1273.17,259.518 1278.1,253.738 1278.1,244.728 C1278.1,244.218 1278.1,243.623 1278.02,242.773 L1274.45,242.773 C1274.19,250.423 1271.98,254.333 1267.82,254.333 C1265.86,254.333 1264.16,253.313 1263.57,251.868 C1263.06,250.678 1262.8,248.553 1262.8,245.493 L1262.8,222.288 L1275.3,222.288 L1275.3,218.633 L1262.8,218.633 M1319.49,239.118 C1319.58,226.368 1312.35,217.358 1301.98,217.358 C1291.1,217.358 1282.94,226.793 1282.94,239.543 C1282.94,251.528 1290.68,259.518 1302.15,259.518 C1310.31,259.518 1316.01,255.523 1319.49,247.448 L1316.52,245.833 C1313.03,252.378 1309.46,254.928 1303.77,254.928 C1299.43,254.928 1296.29,253.143 1294.08,249.318 C1292.55,246.768 1291.87,243.793 1291.95,239.118 L1319.49,239.118 M1292.04,235.463 C1292.04,232.828 1292.38,230.958 1293.23,228.578 C1295.01,223.478 1297.73,221.013 1301.9,221.013 C1307,221.013 1310.4,225.518 1310.4,232.403 C1310.4,234.783 1309.63,235.463 1306.91,235.463 L1292.04,235.463 M1385.62,239.118 C1385.7,226.368 1378.48,217.358 1368.11,217.358 C1357.23,217.358 1349.07,226.793 1349.07,239.543 C1349.07,251.528 1356.8,259.518 1368.28,259.518 C1376.44,259.518 1382.13,255.523 1385.62,247.448 L1382.64,245.833 C1379.16,252.378 1375.59,254.928 1369.89,254.928 C1365.56,254.928 1362.41,253.143 1360.2,249.318 C1358.67,246.768 1357.99,243.793 1358.08,239.118 L1385.62,239.118 M1358.16,235.463 C1358.16,232.828 1358.5,230.958 1359.35,228.578 C1361.14,223.478 1363.86,221.013 1368.02,221.013 C1373.12,221.013 1376.52,225.518 1376.52,232.403 C1376.52,234.783 1375.76,235.463 1373.04,235.463 L1358.16,235.463 M1403.38,218.633 L1403.38,201.803 L1399.89,201.803 C1399.04,212.853 1395.3,218.463 1388.42,218.973 L1388.42,222.288 L1395.39,222.288 L1395.39,243.963 C1395.39,249.913 1395.56,252.038 1396.41,253.993 C1397.77,257.563 1401.17,259.518 1406.1,259.518 C1413.75,259.518 1418.68,253.738 1418.68,244.728 C1418.68,244.218 1418.68,243.623 1418.59,242.773 L1415.02,242.773 C1414.77,250.423 1412.56,254.333 1408.39,254.333 C1406.44,254.333 1404.74,253.313 1404.14,251.868 C1403.63,250.678 1403.38,248.553 1403.38,245.493 L1403.38,222.288 L1415.87,222.288 L1415.87,218.633 L1403.38,218.633 M1476.73,217.698 L1473.75,217.698 L1471.29,220.758 C1468.23,218.378 1465.17,217.358 1460.92,217.358 C1453.44,217.358 1448.51,222.203 1448.51,229.683 C1448.51,232.998 1449.61,235.803 1451.48,237.503 C1453.44,239.288 1455.39,240.138 1460.49,241.328 L1465,242.348 C1471.71,243.963 1474.09,245.663 1474.09,249.063 C1474.09,253.058 1470.61,255.863 1465.68,255.863 C1458.45,255.863 1453.35,251.273 1451.31,242.773 L1447.91,242.773 L1447.91,258.838 L1450.89,258.838 L1453.86,255.353 C1457.35,258.158 1461.17,259.518 1465.51,259.518 C1473.84,259.518 1479.36,254.333 1479.36,246.428 C1479.36,242.688 1478.17,239.798 1475.79,237.843 C1473.75,236.058 1472.05,235.378 1466.87,234.273 L1462.62,233.338 C1457.94,232.318 1457.94,232.318 1456.41,231.468 C1454.54,230.618 1453.44,228.833 1453.44,226.963 C1453.44,223.478 1456.67,221.098 1461.34,221.098 C1464.57,221.098 1467.21,222.203 1469.59,224.498 C1471.46,226.368 1472.39,228.068 1473.75,231.978 L1476.73,231.978 L1476.73,217.698 M1500.43,218.633 L1484.45,219.568 L1484.45,223.223 L1488.79,223.223 C1492.02,223.308 1492.44,223.818 1492.44,227.473 L1492.44,247.788 L1492.44,251.783 C1492.36,253.058 1492.27,253.568 1491.93,253.993 C1491.34,254.758 1489.72,255.098 1486.07,255.183 L1485.47,255.183 L1485.47,258.243 L1507.49,258.243 L1507.49,255.183 L1506.89,255.183 C1501.2,255.013 1500.43,254.588 1500.43,251.528 L1500.43,247.788 L1500.43,218.633 M1496.44,197.468 C1493.72,197.468 1491.51,199.678 1491.51,202.398 C1491.51,205.118 1493.72,207.328 1496.35,207.328 C1499.16,207.328 1501.37,205.118 1501.37,202.398 C1501.37,199.678 1499.16,197.468 1496.44,197.468 M1535.95,236.568 L1545.64,225.263 C1547.77,222.798 1549.72,221.693 1552.02,221.693 L1552.78,221.693 L1552.78,218.633 L1535.19,218.633 L1535.19,221.693 L1536.8,221.693 C1539.35,221.693 1540.63,222.288 1540.63,223.563 C1540.63,224.413 1540.03,225.603 1538.93,226.963 L1533.57,233.423 L1527.03,225.093 C1526.52,224.413 1526.18,223.733 1526.18,223.223 C1526.18,222.118 1527.28,221.693 1529.92,221.693 L1531.11,221.693 L1531.11,218.633 L1510.96,218.633 L1510.96,221.693 C1514.11,221.948 1515.3,222.713 1518.02,226.283 L1528.39,239.288 L1518.61,250.678 C1515.72,253.908 1513.26,255.268 1510.96,255.183 L1510.45,255.183 L1510.45,258.243 L1528.39,258.243 L1528.39,255.183 L1527.11,255.183 C1525.16,255.183 1524.73,255.098 1524.14,254.843 C1523.46,254.418 1522.95,253.653 1522.95,252.888 C1522.95,252.293 1523.2,251.528 1523.63,251.018 L1530.77,242.518 L1537.23,251.103 C1537.82,251.953 1538.33,253.058 1538.33,253.653 C1538.33,254.758 1537.06,255.183 1533.83,255.183 L1533.23,255.183 L1533.23,258.243 L1554.65,258.243 L1554.65,255.183 L1554.06,255.183 C1551.08,255.183 1549.13,254.078 1546.66,251.018 L1535.95,236.568 M1571.82,218.633 L1571.82,201.803 L1568.33,201.803 C1567.48,212.853 1563.74,218.463 1556.86,218.973 L1556.86,222.288 L1563.83,222.288 L1563.83,243.963 C1563.83,249.913 1564,252.038 1564.85,253.993 C1566.21,257.563 1569.61,259.518 1574.54,259.518 C1582.19,259.518 1587.12,253.738 1587.12,244.728 C1587.12,244.218 1587.12,243.623 1587.03,242.773 L1583.46,242.773 C1583.21,250.423 1581,254.333 1576.83,254.333 C1574.88,254.333 1573.18,253.313 1572.58,251.868 C1572.07,250.678 1571.82,248.553 1571.82,245.493 L1571.82,222.288 L1584.31,222.288 L1584.31,218.633 L1571.82,218.633 M1628.51,239.118 C1628.59,226.368 1621.37,217.358 1611,217.358 C1600.12,217.358 1591.96,226.793 1591.96,239.543 C1591.96,251.528 1599.69,259.518 1611.17,259.518 C1619.33,259.518 1625.02,255.523 1628.51,247.448 L1625.53,245.833 C1622.05,252.378 1618.48,254.928 1612.78,254.928 C1608.45,254.928 1605.3,253.143 1603.09,249.318 C1601.56,246.768 1600.88,243.793 1600.97,239.118 L1628.51,239.118 M1601.05,235.463 C1601.05,232.828 1601.39,230.958 1602.24,228.578 C1604.03,223.478 1606.75,221.013 1610.91,221.013 C1616.01,221.013 1619.41,225.518 1619.41,232.403 C1619.41,234.783 1618.65,235.463 1615.93,235.463 L1601.05,235.463 M1638.46,273.883 C1646.11,268.613 1649.59,263.428 1649.59,257.478 C1649.59,252.378 1646.79,249.063 1642.62,249.063 C1639.48,249.063 1637.1,251.273 1637.1,254.163 C1637.1,257.223 1639.39,259.178 1642.96,259.178 C1643.39,259.178 1643.98,259.178 1644.24,259.093 L1644.49,259.093 C1644.92,259.093 1645.09,259.348 1645.09,259.858 C1645.09,263.428 1642.2,267.423 1636.5,271.418 L1638.46,273.883 M1716.48,218.633 L1712.48,224.413 C1709.08,219.653 1704.92,217.358 1699.56,217.358 C1689.19,217.358 1681.37,226.793 1681.37,239.373 C1681.37,251.018 1688.68,259.518 1698.63,259.518 C1703.9,259.518 1706.79,257.988 1710.19,253.313 L1710.19,264.958 L1710.19,269.038 C1710.1,270.228 1710.02,270.738 1709.68,271.163 C1709.08,271.928 1707.47,272.268 1703.73,272.353 L1702.79,272.353 L1702.79,275.413 L1724.89,275.413 L1724.89,272.353 L1724.55,272.353 C1718.94,272.183 1718.18,271.758 1718.18,268.698 L1718.18,264.958 L1718.18,231.978 C1718.26,227.133 1718.26,226.793 1718.26,225.858 C1718.43,224.243 1718.69,223.053 1719.62,218.633 L1716.48,218.633 M1700.33,221.013 C1703.73,221.013 1706.79,223.223 1708.4,226.793 C1709.68,229.598 1710.19,232.573 1710.19,237.503 C1710.19,249.148 1706.96,254.928 1700.33,254.928 C1693.95,254.928 1690.3,249.063 1690.3,238.863 C1690.3,226.878 1693.61,221.013 1700.33,221.013 M1759.47,258.838 L1774.94,258.243 L1774.94,254.588 L1772.82,254.588 C1767.89,254.418 1767.46,253.908 1767.46,248.383 L1767.46,218.633 L1751.48,219.568 L1751.48,223.223 L1755.82,223.223 C1759.05,223.308 1759.47,223.818 1759.47,227.473 L1759.47,237.928 C1759.47,242.773 1758.96,245.663 1757.69,248.383 C1755.9,252.208 1752.5,254.333 1748.34,254.333 C1745.7,254.333 1743.49,253.398 1742.39,251.698 C1741.28,250.083 1741.11,249.233 1741.11,244.558 L1741.11,218.633 L1726.24,219.568 L1726.24,223.223 L1729.47,223.223 C1732.7,223.308 1733.12,223.818 1733.12,227.473 L1733.12,245.833 C1733.12,250.168 1733.46,252.123 1734.74,254.078 C1737.03,257.563 1741.11,259.518 1746.21,259.518 C1751.82,259.518 1755.73,257.223 1759.47,251.783 L1759.47,258.838 M1814.79,230.873 C1814.79,225.518 1813.86,222.798 1811.39,220.758 C1808.59,218.463 1804.42,217.358 1798.98,217.358 C1789.38,217.358 1782.41,221.863 1782.41,228.068 C1782.41,231.213 1784.36,233.253 1787.34,233.253 C1790.06,233.253 1791.93,231.468 1791.93,228.918 C1791.93,227.813 1791.5,226.623 1790.65,225.433 C1790.14,224.838 1790.06,224.668 1790.06,224.243 C1790.06,222.543 1793.46,221.013 1797.54,221.013 C1800.26,221.013 1803.23,221.863 1804.59,223.138 C1806.21,224.498 1806.8,226.538 1806.8,230.363 L1806.8,233.678 C1797.96,235.208 1795.16,235.888 1790.99,237.503 C1783.6,240.223 1780.11,244.133 1780.11,249.573 C1780.11,255.693 1784.87,259.518 1792.44,259.518 C1798.3,259.518 1803.57,257.138 1807.23,252.803 C1808.59,257.138 1810.71,258.838 1814.71,258.838 C1818.53,258.838 1822.53,256.373 1822.53,253.908 C1822.53,253.313 1822.19,252.888 1821.68,252.888 C1821.34,252.888 1821,252.973 1820.4,253.228 C1819.21,253.738 1818.7,253.823 1818.02,253.823 C1815.64,253.823 1814.79,252.293 1814.79,247.958 L1814.79,230.873 M1806.8,241.243 C1806.8,246.343 1806.55,247.533 1805.1,249.743 C1802.98,252.888 1799.15,255.013 1795.41,255.013 C1791.5,255.013 1788.7,252.208 1788.7,248.383 C1788.7,244.813 1790.48,242.263 1794.22,240.478 C1796.86,239.288 1800.17,238.438 1806.8,237.333 L1806.8,241.243 M1840.45,218.633 L1825.41,219.568 L1825.41,223.223 L1828.89,223.223 C1832.12,223.308 1832.55,223.818 1832.55,227.473 L1832.55,247.788 L1832.55,251.783 C1832.46,253.058 1832.38,253.568 1832.04,253.993 C1831.44,254.758 1829.74,255.098 1826.09,255.183 L1825.75,255.183 L1825.75,258.243 L1848.44,258.243 L1848.44,255.183 L1846.91,255.183 C1841.22,255.013 1840.45,254.588 1840.45,251.528 L1840.45,247.788 L1840.45,246.938 C1840.54,232.658 1845.64,221.778 1852.27,221.438 C1851.08,222.798 1850.74,223.648 1850.74,225.263 C1850.74,227.983 1852.69,229.938 1855.41,229.938 C1858.56,229.938 1860.6,227.643 1860.6,224.243 C1860.6,220.078 1857.71,217.358 1853.2,217.358 C1847.85,217.358 1843.26,221.608 1840.45,229.173 L1840.45,218.633 M1879.46,218.633 L1879.46,201.803 L1875.97,201.803 C1875.12,212.853 1871.38,218.463 1864.5,218.973 L1864.5,222.288 L1871.47,222.288 L1871.47,243.963 C1871.47,249.913 1871.64,252.038 1872.49,253.993 C1873.85,257.563 1877.25,259.518 1882.18,259.518 C1889.83,259.518 1894.76,253.738 1894.76,244.728 C1894.76,244.218 1894.76,243.623 1894.67,242.773 L1891.1,242.773 C1890.85,250.423 1888.64,254.333 1884.47,254.333 C1882.52,254.333 1880.82,253.313 1880.22,251.868 C1879.71,250.678 1879.46,248.553 1879.46,245.493 L1879.46,222.288 L1891.95,222.288 L1891.95,218.633 L1879.46,218.633 M1936.15,239.118 C1936.23,226.368 1929.01,217.358 1918.64,217.358 C1907.76,217.358 1899.6,226.793 1899.6,239.543 C1899.6,251.528 1907.33,259.518 1918.81,259.518 C1926.97,259.518 1932.66,255.523 1936.15,247.448 L1933.17,245.833 C1929.69,252.378 1926.12,254.928 1920.42,254.928 C1916.09,254.928 1912.94,253.143 1910.73,249.318 C1909.2,246.768 1908.52,243.793 1908.61,239.118 L1936.15,239.118 M1908.69,235.463 C1908.69,232.828 1909.03,230.958 1909.88,228.578 C1911.67,223.478 1914.39,221.013 1918.55,221.013 C1923.65,221.013 1927.05,225.518 1927.05,232.403 C1927.05,234.783 1926.29,235.463 1923.57,235.463 L1908.69,235.463 M2002.27,239.118 C2002.36,226.368 1995.13,217.358 1984.76,217.358 C1973.88,217.358 1965.72,226.793 1965.72,239.543 C1965.72,251.528 1973.46,259.518 1984.93,259.518 C1993.09,259.518 1998.79,255.523 2002.27,247.448 L1999.3,245.833 C1995.81,252.378 1992.24,254.928 1986.55,254.928 C1982.21,254.928 1979.07,253.143 1976.86,249.318 C1975.33,246.768 1974.65,243.793 1974.73,239.118 L2002.27,239.118 M1974.82,235.463 C1974.82,232.828 1975.16,230.958 1976.01,228.578 C1977.79,223.478 1980.51,221.013 1984.68,221.013 C1989.78,221.013 1993.18,225.518 1993.18,232.403 C1993.18,234.783 1992.41,235.463 1989.69,235.463 L1974.82,235.463 M2020.04,218.633 L2020.04,201.803 L2016.55,201.803 C2015.7,212.853 2011.96,218.463 2005.08,218.973 L2005.08,222.288 L2012.05,222.288 L2012.05,243.963 C2012.05,249.913 2012.22,252.038 2013.07,253.993 C2014.43,257.563 2017.83,259.518 2022.76,259.518 C2030.41,259.518 2035.34,253.738 2035.34,244.728 C2035.34,244.218 2035.34,243.623 2035.25,242.773 L2031.68,242.773 C2031.43,250.423 2029.22,254.333 2025.05,254.333 C2023.1,254.333 2021.4,253.313 2020.8,251.868 C2020.29,250.678 2020.04,248.553 2020.04,245.493 L2020.04,222.288 L2032.53,222.288 L2032.53,218.633 L2020.04,218.633 M2093.38,217.698 L2090.41,217.698 L2087.94,220.758 C2084.88,218.378 2081.82,217.358 2077.57,217.358 C2070.09,217.358 2065.16,222.203 2065.16,229.683 C2065.16,232.998 2066.27,235.803 2068.14,237.503 C2070.09,239.288 2072.05,240.138 2077.15,241.328 L2081.65,242.348 C2088.37,243.963 2090.75,245.663 2090.75,249.063 C2090.75,253.058 2087.26,255.863 2082.33,255.863 C2075.11,255.863 2070.01,251.273 2067.97,242.773 L2064.57,242.773 L2064.57,258.838 L2067.54,258.838 L2070.52,255.353 C2074,258.158 2077.83,259.518 2082.16,259.518 C2090.49,259.518 2096.02,254.333 2096.02,246.428 C2096.02,242.688 2094.83,239.798 2092.45,237.843 C2090.41,236.058 2088.71,235.378 2083.52,234.273 L2079.27,233.338 C2074.6,232.318 2074.6,232.318 2073.07,231.468 C2071.2,230.618 2070.09,228.833 2070.09,226.963 C2070.09,223.478 2073.32,221.098 2078,221.098 C2081.23,221.098 2083.86,222.203 2086.24,224.498 C2088.11,226.368 2089.05,228.068 2090.41,231.978 L2093.38,231.978 L2093.38,217.698 M2139.1,239.118 C2139.19,226.368 2131.96,217.358 2121.59,217.358 C2110.71,217.358 2102.55,226.793 2102.55,239.543 C2102.55,251.528 2110.29,259.518 2121.76,259.518 C2129.92,259.518 2135.62,255.523 2139.1,247.448 L2136.13,245.833 C2132.64,252.378 2129.07,254.928 2123.38,254.928 C2119.04,254.928 2115.9,253.143 2113.69,249.318 C2112.16,246.768 2111.48,243.793 2111.56,239.118 L2139.1,239.118 M2111.65,235.463 C2111.65,232.828 2111.99,230.958 2112.84,228.578 C2114.62,223.478 2117.34,221.013 2121.51,221.013 C2126.61,221.013 2130.01,225.518 2130.01,232.403 C2130.01,234.783 2129.24,235.463 2126.52,235.463 L2111.65,235.463 M2159.16,218.633 L2144.46,219.568 L2144.46,223.223 L2147.52,223.223 C2150.75,223.308 2151.17,223.818 2151.17,227.473 L2151.17,264.958 L2151.17,269.038 C2151.09,270.228 2151,270.738 2150.66,271.163 C2150.07,271.928 2148.45,272.268 2144.8,272.353 L2144.46,272.353 L2144.46,275.413 L2166.56,275.413 L2166.56,272.353 L2165.62,272.353 C2159.93,272.183 2159.16,271.758 2159.16,268.698 L2159.16,264.958 L2159.16,252.633 C2161.97,257.563 2165.11,259.518 2170.38,259.518 C2175.57,259.518 2179.82,257.308 2182.88,253.143 C2185.85,249.063 2187.55,243.793 2187.55,238.268 C2187.55,232.743 2185.85,227.558 2182.71,223.478 C2179.56,219.398 2175.65,217.358 2170.89,217.358 C2165.62,217.358 2162.14,219.568 2159.16,224.668 L2159.16,218.633 M2169.36,221.948 C2175.23,221.948 2178.63,227.813 2178.63,237.758 C2178.63,248.723 2175.23,254.928 2169.11,254.928 C2162.99,254.928 2159.08,248.638 2159.08,238.863 C2159.08,228.238 2162.9,221.948 2169.36,221.948 M2205.74,218.633 L2205.74,201.803 L2202.25,201.803 C2201.4,212.853 2197.66,218.463 2190.78,218.973 L2190.78,222.288 L2197.75,222.288 L2197.75,243.963 C2197.75,249.913 2197.92,252.038 2198.77,253.993 C2200.13,257.563 2203.53,259.518 2208.46,259.518 C2216.11,259.518 2221.04,253.738 2221.04,244.728 C2221.04,244.218 2221.04,243.623 2220.95,242.773 L2217.38,242.773 C2217.13,250.423 2214.92,254.333 2210.75,254.333 C2208.8,254.333 2207.1,253.313 2206.5,251.868 C2205.99,250.678 2205.74,248.553 2205.74,245.493 L2205.74,222.288 L2218.23,222.288 L2218.23,218.633 L2205.74,218.633 M2239.82,218.633 L2223.84,219.568 L2223.84,223.223 L2228.18,223.223 C2231.41,223.308 2231.83,223.818 2231.83,227.473 L2231.83,247.788 L2231.83,251.783 C2231.75,253.058 2231.66,253.568 2231.32,253.993 C2230.73,254.758 2229.11,255.098 2225.46,255.183 L2224.86,255.183 L2224.86,258.243 L2246.88,258.243 L2246.88,255.183 L2246.28,255.183 C2240.59,255.013 2239.82,254.588 2239.82,251.528 L2239.82,247.788 L2239.82,218.633 M2235.83,197.468 C2233.11,197.468 2230.9,199.678 2230.9,202.398 C2230.9,205.118 2233.11,207.328 2235.74,207.328 C2238.55,207.328 2240.76,205.118 2240.76,202.398 C2240.76,199.678 2238.55,197.468 2235.83,197.468 M2288.6,239.118 C2288.69,226.368 2281.46,217.358 2271.09,217.358 C2260.21,217.358 2252.05,226.793 2252.05,239.543 C2252.05,251.528 2259.79,259.518 2271.26,259.518 C2279.42,259.518 2285.12,255.523 2288.6,247.448 L2285.63,245.833 C2282.14,252.378 2278.57,254.928 2272.88,254.928 C2268.54,254.928 2265.4,253.143 2263.19,249.318 C2261.66,246.768 2260.98,243.793 2261.06,239.118 L2288.6,239.118 M2261.15,235.463 C2261.15,232.828 2261.49,230.958 2262.34,228.578 C2264.12,223.478 2266.84,221.013 2271.01,221.013 C2276.11,221.013 2279.51,225.518 2279.51,232.403 C2279.51,234.783 2278.74,235.463 2276.02,235.463 L2261.15,235.463 M2308.66,218.633 L2293.53,219.568 L2293.53,223.223 L2297.02,223.223 C2300.25,223.308 2300.67,223.818 2300.67,227.473 L2300.67,247.788 L2300.67,251.103 L2300.67,251.783 C2300.59,253.058 2300.5,253.568 2300.16,253.993 C2299.57,254.758 2297.95,255.098 2294.3,255.183 L2293.96,255.183 L2293.96,258.243 L2315.38,258.243 L2315.38,255.183 L2315.04,255.183 C2309.43,255.013 2308.66,254.588 2308.66,251.443 L2308.66,247.788 L2308.66,235.718 C2308.66,228.153 2312.83,222.543 2318.35,222.543 C2323.2,222.543 2325.66,226.028 2325.66,232.913 L2325.66,247.788 L2325.66,251.868 C2325.58,252.973 2325.49,253.568 2325.07,253.993 C2324.56,254.758 2322.86,255.098 2319.2,255.183 L2318.86,255.183 L2318.86,258.243 L2340.37,258.243 L2340.37,255.183 L2340.03,255.183 C2334.42,255.013 2333.65,254.588 2333.65,251.528 L2333.65,247.788 L2333.65,236.483 C2333.65,227.983 2337.48,222.543 2343.43,222.543 C2348.27,222.543 2350.65,226.198 2350.65,233.848 L2350.65,247.788 L2350.65,251.783 C2350.57,252.973 2350.48,253.568 2350.06,253.993 C2349.55,254.758 2347.85,255.098 2344.19,255.183 L2343.85,255.183 L2343.85,258.243 L2365.36,258.243 L2365.36,255.183 L2365.02,255.183 C2359.41,255.013 2358.64,254.588 2358.64,251.443 L2358.64,247.788 L2358.64,232.148 C2358.64,226.878 2358.13,225.093 2355.92,222.203 C2353.46,219.058 2349.97,217.358 2345.89,217.358 C2340.37,217.358 2336.29,219.993 2332.63,225.858 C2331.19,220.758 2326.6,217.358 2320.9,217.358 C2315.72,217.358 2311.98,219.823 2308.66,225.178 L2308.66,218.633 M2406.66,239.118 C2406.75,226.368 2399.52,217.358 2389.15,217.358 C2378.27,217.358 2370.11,226.793 2370.11,239.543 C2370.11,251.528 2377.85,259.518 2389.32,259.518 C2397.48,259.518 2403.18,255.523 2406.66,247.448 L2403.69,245.833 C2400.2,252.378 2396.63,254.928 2390.94,254.928 C2386.6,254.928 2383.46,253.143 2381.25,249.318 C2379.72,246.768 2379.04,243.793 2379.12,239.118 L2406.66,239.118 M2379.21,235.463 C2379.21,232.828 2379.55,230.958 2380.4,228.578 C2382.18,223.478 2384.9,221.013 2389.07,221.013 C2394.17,221.013 2397.57,225.518 2397.57,232.403 C2397.57,234.783 2396.8,235.463 2394.08,235.463 L2379.21,235.463 M2414.23,268.698 C2419.41,265.553 2422.05,263.343 2424.94,259.858 C2431.4,252.293 2434.88,242.518 2434.88,232.148 C2434.88,222.458 2431.82,213.363 2426.13,205.883 C2422.9,201.718 2420.01,199.253 2414.23,195.683 L2414.23,198.828 C2422.73,206.308 2426.13,215.743 2426.13,232.148 C2426.13,248.553 2422.73,258.073 2414.23,265.553 L2414.23,268.698 "/>
</svg>
