<?xml version="1.0" encoding="UTF-8" standalone="no"?>
<svg width="4209.45px" height="2976.38px" viewBox="0 0 4209.45 2976.38"
 xmlns="http://www.w3.org/2000/svg" xmlns:xlink="http://www.w3.org/1999/xlink" version="1.2" baseProfile="tiny">
<title>La Mineur (13)</title>
<desc>Generated by MuseScore 3.6.2</desc>
<polyline class="StaffLines" fill="none" stroke="#000000" stroke-width="6.55" stroke-linejoin="bevel" points="153.819,558.425 4138.58,558.425"/>
<polyline class="StaffLines" fill="none" stroke="#000000" stroke-width="6.55" stroke-linejoin="bevel" points="153.819,647.717 4138.58,647.717"/>
<polyline class="StaffLines" fill="none" stroke="#000000" stroke-width="6.55" stroke-linejoin="bevel" points="153.819,737.008 4138.58,737.008"/>
<polyline class="StaffLines" fill="none" stroke="#000000" stroke-width="6.55" stroke-linejoin="bevel" points="153.819,826.299 4138.58,826.299"/>
<polyline class="StaffLines" fill="none" stroke="#000000" stroke-width="6.55" stroke-linejoin="bevel" points="153.819,915.591 4138.58,915.591"/>
<polyline class="StaffLines" fill="none" stroke="#000000" stroke-width="6.55" stroke-linejoin="bevel" points="153.819,1004.88 4138.58,1004.88"/>
<polyline class="StaffLines" fill="none" stroke="#000000" stroke-width="6.55" stroke-linejoin="bevel" points="153.819,1391.81 4138.58,1391.81"/>
<polyline class="StaffLines" fill="none" stroke="#000000" stroke-width="6.55" stroke-linejoin="bevel" points="153.819,1451.34 4138.58,1451.34"/>
<polyline class="StaffLines" fill="none" stroke="#000000" stroke-width="6.55" stroke-linejoin="bevel" points="153.819,1510.87 4138.58,1510.87"/>
<polyline class="StaffLines" fill="none" stroke="#000000" stroke-width="6.55" stroke-linejoin="bevel" points="153.819,1570.39 4138.58,1570.39"/>
<polyline class="StaffLines" fill="none" stroke="#000000" stroke-width="6.55" stroke-linejoin="bevel" points="153.819,1629.92 4138.58,1629.92"/>
<polyline class="StaffLines" fill="none" stroke="#000000" stroke-width="6.55" stroke-linejoin="bevel" points="153.819,2016.85 4138.58,2016.85"/>
<polyline class="StaffLines" fill="none" stroke="#000000" stroke-width="6.55" stroke-linejoin="bevel" points="153.819,2076.38 4138.58,2076.38"/>
<polyline class="StaffLines" fill="none" stroke="#000000" stroke-width="6.55" stroke-linejoin="bevel" points="153.819,2135.91 4138.58,2135.91"/>
<polyline class="StaffLines" fill="none" stroke="#000000" stroke-width="6.55" stroke-linejoin="bevel" points="153.819,2195.43 4138.58,2195.43"/>
<polyline class="StaffLines" fill="none" stroke="#000000" stroke-width="6.55" stroke-linejoin="bevel" points="153.819,2254.96 4138.58,2254.96"/>
<path class="Symbol" transform="matrix(2.3811,0,0,2.3811,2999.58,1629.92)" d="M0,-0.1 C0,7.7 4,14 10.4,18.1 L10.9,17.4 C7.5,14.8 6.3,13.3 5.2,10.1 C4.2,7.2 3.7,4 3.7,-0.2 C3.7,-8.1 4.8,-12.3 10.9,-17.4 L10.5,-18.1 C3.9,-13.6 0,-8.5 0,-0.1"/>
<path class="Symbol" transform="matrix(2.3811,0,0,2.3811,3114.34,1629.92)" d="M3.7,-0.2 C3.7,4 3.2,7.2 2.2,10.1 C1,13.3 -0.2,14.8 -3.6,17.4 L-3,18.1 C3.4,14.1 7.3,7.6 7.3,-0.1 C7.3,-8.4 3.4,-13.8 -3.2,-18.1 L-3.6,-17.4 C2.6,-12.4 3.7,-8.1 3.7,-0.2"/>
<path class="Symbol" transform="matrix(2.3811,0,0,2.3811,3010.42,617.953)" d="M0,-0.1 C0,7.7 4,14 10.4,18.1 L10.9,17.4 C7.5,14.8 6.3,13.3 5.2,10.1 C4.2,7.2 3.7,4 3.7,-0.2 C3.7,-8.1 4.8,-12.3 10.9,-17.4 L10.5,-18.1 C3.9,-13.6 0,-8.5 0,-0.1"/>
<path class="Symbol" transform="matrix(2.3811,0,0,2.3811,3115.43,617.953)" d="M3.7,-0.2 C3.7,4 3.2,7.2 2.2,10.1 C1,13.3 -0.2,14.8 -3.6,17.4 L-3,18.1 C3.4,14.1 7.3,7.6 7.3,-0.1 C7.3,-8.4 3.4,-13.8 -3.2,-18.1 L-3.6,-17.4 C2.6,-12.4 3.7,-8.1 3.7,-0.2"/>
<polyline class="BarLine" fill="none" stroke="#000000" stroke-width="10.71" stroke-linejoin="bevel" points="159.176,2013.58 159.176,2258.23"/>
<polyline class="BarLine" fill="none" stroke="#000000" stroke-width="10.71" stroke-linejoin="bevel" points="1070.41,2013.58 1070.41,2258.23"/>
<polyline class="BarLine" fill="none" stroke="#000000" stroke-width="10.71" stroke-linejoin="bevel" points="1638.75,2013.58 1638.75,2258.23"/>
<polyline class="BarLine" fill="none" stroke="#000000" stroke-width="10.71" stroke-linejoin="bevel" points="1671.49,2013.58 1671.49,2258.23"/>
<polyline class="BarLine" fill="none" stroke="#000000" stroke-width="10.71" stroke-linejoin="bevel" points="2288.61,2013.58 2288.61,2258.23"/>
<polyline class="BarLine" fill="none" stroke="#000000" stroke-width="10.71" stroke-linejoin="bevel" points="2856.95,2013.58 2856.95,2258.23"/>
<polyline class="BarLine" fill="none" stroke="#000000" stroke-width="10.71" stroke-linejoin="bevel" points="2889.69,2013.58 2889.69,2258.23"/>
<polyline class="BarLine" fill="none" stroke="#000000" stroke-width="10.71" stroke-linejoin="bevel" points="3526.42,2013.58 3526.42,2258.23"/>
<polyline class="BarLine" fill="none" stroke="#000000" stroke-width="10.71" stroke-linejoin="bevel" points="4100.49,2013.58 4100.49,2258.23"/>
<polyline class="BarLine" fill="none" stroke="#000000" stroke-width="10.71" stroke-linejoin="bevel" points="4133.23,2013.58 4133.23,2258.23"/>
<polyline class="BarLine" fill="none" stroke="#000000" stroke-width="10.71" stroke-linejoin="bevel" points="159.176,1388.54 159.176,2016.85"/>
<polyline class="BarLine" fill="none" stroke="#000000" stroke-width="10.71" stroke-linejoin="bevel" points="1070.41,1388.54 1070.41,1633.2"/>
<polyline class="BarLine" fill="none" stroke="#000000" stroke-width="10.71" stroke-linejoin="bevel" points="1638.75,1388.54 1638.75,1633.2"/>
<polyline class="BarLine" fill="none" stroke="#000000" stroke-width="10.71" stroke-linejoin="bevel" points="1671.49,1388.54 1671.49,1633.2"/>
<polyline class="BarLine" fill="none" stroke="#000000" stroke-width="10.71" stroke-linejoin="bevel" points="2288.61,1388.54 2288.61,1633.2"/>
<polyline class="BarLine" fill="none" stroke="#000000" stroke-width="10.71" stroke-linejoin="bevel" points="2856.95,1388.54 2856.95,1633.2"/>
<polyline class="BarLine" fill="none" stroke="#000000" stroke-width="10.71" stroke-linejoin="bevel" points="2889.69,1388.54 2889.69,1633.2"/>
<polyline class="BarLine" fill="none" stroke="#000000" stroke-width="10.71" stroke-linejoin="bevel" points="3526.42,1388.54 3526.42,1633.2"/>
<polyline class="BarLine" fill="none" stroke="#000000" stroke-width="10.71" stroke-linejoin="bevel" points="4100.49,1388.54 4100.49,1633.2"/>
<polyline class="BarLine" fill="none" stroke="#000000" stroke-width="10.71" stroke-linejoin="bevel" points="4133.23,1388.54 4133.23,1633.2"/>
<polyline class="BarLine" fill="none" stroke="#000000" stroke-width="10.71" stroke-linejoin="bevel" points="159.176,555.151 159.176,1391.81"/>
<polyline class="BarLine" fill="none" stroke="#000000" stroke-width="10.71" stroke-linejoin="bevel" points="1070.41,555.151 1070.41,1008.16"/>
<polyline class="BarLine" fill="none" stroke="#000000" stroke-width="10.71" stroke-linejoin="bevel" points="1638.75,555.151 1638.75,1008.16"/>
<polyline class="BarLine" fill="none" stroke="#000000" stroke-width="10.71" stroke-linejoin="bevel" points="1671.49,555.151 1671.49,1008.16"/>
<polyline class="BarLine" fill="none" stroke="#000000" stroke-width="10.71" stroke-linejoin="bevel" points="2288.61,555.151 2288.61,1008.16"/>
<polyline class="BarLine" fill="none" stroke="#000000" stroke-width="10.71" stroke-linejoin="bevel" points="2856.95,555.151 2856.95,1008.16"/>
<polyline class="BarLine" fill="none" stroke="#000000" stroke-width="10.71" stroke-linejoin="bevel" points="2889.69,555.151 2889.69,1008.16"/>
<polyline class="BarLine" fill="none" stroke="#000000" stroke-width="10.71" stroke-linejoin="bevel" points="3526.42,555.151 3526.42,1008.16"/>
<polyline class="BarLine" fill="none" stroke="#000000" stroke-width="10.71" stroke-linejoin="bevel" points="4100.49,555.151 4100.49,1008.16"/>
<polyline class="BarLine" fill="none" stroke="#000000" stroke-width="10.71" stroke-linejoin="bevel" points="4133.23,555.151 4133.23,1008.16"/>
<path class="Accidental" transform="matrix(2.3811,0,0,2.3811,2952.56,2046.61)" d="M23.3,-10.6 C23.9,-10.7 24.4,-11.4 24.4,-12 L24.4,-17.9 C24.4,-18.7 23.8,-19.3 23,-19.3 L22.8,-19.3 L19.5,-18.6 L19.5,-33.5 L16.7,-33.5 L16.7,-18 L7.8,-16.2 L7.8,-30.3 L5,-30.3 L5,-15.6 L1.1,-14.8 C0.5,-14.7 0,-14 0,-13.4 L0,-13.2 L0,-7.4 L0,-7.6 C0,-6.8 0.6,-6.2 1.4,-6.2 L1.7,-6.2 L5,-6.9 L5,9.6 L1.1,10.4 C0.5,10.5 0,11.2 0,11.8 L0,17.6 C0,18.4 0.6,19 1.4,19 L1.7,19 L5,18.3 L5,33.2 L7.8,33.2 L7.8,17.7 L16.7,15.9 L16.7,30 L19.5,30 L19.5,15.3 L23.3,14.6 C23.9,14.5 24.4,13.8 24.4,13.2 L24.4,7.3 C24.4,6.5 23.8,5.9 23,5.9 L22.8,5.9 L19.5,6.6 L19.5,-9.9 L23.3,-10.6 M7.8,9.1 L7.8,-7.5 L16.7,-9.3 L16.7,7.2 L7.8,9.1 "/>
<path class="Accidental" transform="matrix(2.3811,0,0,2.3811,504.71,1570.39)" d="M23.3,-10.6 C23.9,-10.7 24.4,-11.4 24.4,-12 L24.4,-17.9 C24.4,-18.7 23.8,-19.3 23,-19.3 L22.8,-19.3 L19.5,-18.6 L19.5,-33.5 L16.7,-33.5 L16.7,-18 L7.8,-16.2 L7.8,-30.3 L5,-30.3 L5,-15.6 L1.1,-14.8 C0.5,-14.7 0,-14 0,-13.4 L0,-13.2 L0,-7.4 L0,-7.6 C0,-6.8 0.6,-6.2 1.4,-6.2 L1.7,-6.2 L5,-6.9 L5,9.6 L1.1,10.4 C0.5,10.5 0,11.2 0,11.8 L0,17.6 C0,18.4 0.6,19 1.4,19 L1.7,19 L5,18.3 L5,33.2 L7.8,33.2 L7.8,17.7 L16.7,15.9 L16.7,30 L19.5,30 L19.5,15.3 L23.3,14.6 C23.9,14.5 24.4,13.8 24.4,13.2 L24.4,7.3 C24.4,6.5 23.8,5.9 23,5.9 L22.8,5.9 L19.5,6.6 L19.5,-9.9 L23.3,-10.6 M7.8,9.1 L7.8,-7.5 L16.7,-9.3 L16.7,7.2 L7.8,9.1 "/>
<path class="Accidental" transform="matrix(2.3811,0,0,2.3811,1722.91,1570.39)" d="M23.3,-10.6 C23.9,-10.7 24.4,-11.4 24.4,-12 L24.4,-17.9 C24.4,-18.7 23.8,-19.3 23,-19.3 L22.8,-19.3 L19.5,-18.6 L19.5,-33.5 L16.7,-33.5 L16.7,-18 L7.8,-16.2 L7.8,-30.3 L5,-30.3 L5,-15.6 L1.1,-14.8 C0.5,-14.7 0,-14 0,-13.4 L0,-13.2 L0,-7.4 L0,-7.6 C0,-6.8 0.6,-6.2 1.4,-6.2 L1.7,-6.2 L5,-6.9 L5,9.6 L1.1,10.4 C0.5,10.5 0,11.2 0,11.8 L0,17.6 C0,18.4 0.6,19 1.4,19 L1.7,19 L5,18.3 L5,33.2 L7.8,33.2 L7.8,17.7 L16.7,15.9 L16.7,30 L19.5,30 L19.5,15.3 L23.3,14.6 C23.9,14.5 24.4,13.8 24.4,13.2 L24.4,7.3 C24.4,6.5 23.8,5.9 23,5.9 L22.8,5.9 L19.5,6.6 L19.5,-9.9 L23.3,-10.6 M7.8,9.1 L7.8,-7.5 L16.7,-9.3 L16.7,7.2 L7.8,9.1 "/>
<path class="Note" transform="matrix(2.3811,0,0,2.3811,577.687,2106.14)" d="M18.7,-13.6 C4.9,-13.6 0,-6.6 0,-0.1 C0,6.4 4.9,13.4 18.7,13.4 C32.5,13.4 37.3,6.4 37.3,-0.1 C37.3,-6.6 32.5,-13.6 18.7,-13.6 M10.4,-4.5 C10.3,-4.9 10.3,-5.3 10.3,-5.7 C10.3,-6.5 10.5,-7.3 10.9,-8 C11.6,-9 12.8,-9.7 14.3,-10 C15.6,-10.3 16.3,-10.5 18.9,-10.5 L19,-10.5 C23,-10.5 24.3,-6.8 25.4,-3 L25.7,-2 C26.5,0.6 26.9,2.8 26.9,4.5 C26.9,5.7 26.7,6.8 26.3,7.6 C25.7,8.7 24.7,9.4 23,9.8 C22.1,10 20.6,10.1 20.6,10.1 C20.1,10.1 19.7,10.2 19.3,10.2 C16.1,10.2 14.1,9 12.7,4.7 C11.5,1 11.3,-0.1 10.4,-4.5"/>
<path class="Note" transform="matrix(2.3811,0,0,2.3811,1153.15,2225.2)" d="M18.7,-13.6 C4.9,-13.6 0,-6.6 0,-0.1 C0,6.4 4.9,13.4 18.7,13.4 C32.5,13.4 37.3,6.4 37.3,-0.1 C37.3,-6.6 32.5,-13.6 18.7,-13.6 M10.4,-4.5 C10.3,-4.9 10.3,-5.3 10.3,-5.7 C10.3,-6.5 10.5,-7.3 10.9,-8 C11.6,-9 12.8,-9.7 14.3,-10 C15.6,-10.3 16.3,-10.5 18.9,-10.5 L19,-10.5 C23,-10.5 24.3,-6.8 25.4,-3 L25.7,-2 C26.5,0.6 26.9,2.8 26.9,4.5 C26.9,5.7 26.7,6.8 26.3,7.6 C25.7,8.7 24.7,9.4 23,9.8 C22.1,10 20.6,10.1 20.6,10.1 C20.1,10.1 19.7,10.2 19.3,10.2 C16.1,10.2 14.1,9 12.7,4.7 C11.5,1 11.3,-0.1 10.4,-4.5"/>
<path class="Note" transform="matrix(2.3811,0,0,2.3811,1795.89,2106.14)" d="M18.7,-13.6 C4.9,-13.6 0,-6.6 0,-0.1 C0,6.4 4.9,13.4 18.7,13.4 C32.5,13.4 37.3,6.4 37.3,-0.1 C37.3,-6.6 32.5,-13.6 18.7,-13.6 M10.4,-4.5 C10.3,-4.9 10.3,-5.3 10.3,-5.7 C10.3,-6.5 10.5,-7.3 10.9,-8 C11.6,-9 12.8,-9.7 14.3,-10 C15.6,-10.3 16.3,-10.5 18.9,-10.5 L19,-10.5 C23,-10.5 24.3,-6.8 25.4,-3 L25.7,-2 C26.5,0.6 26.9,2.8 26.9,4.5 C26.9,5.7 26.7,6.8 26.3,7.6 C25.7,8.7 24.7,9.4 23,9.8 C22.1,10 20.6,10.1 20.6,10.1 C20.1,10.1 19.7,10.2 19.3,10.2 C16.1,10.2 14.1,9 12.7,4.7 C11.5,1 11.3,-0.1 10.4,-4.5"/>
<path class="Note" transform="matrix(2.3811,0,0,2.3811,2371.35,2225.2)" d="M18.7,-13.6 C4.9,-13.6 0,-6.6 0,-0.1 C0,6.4 4.9,13.4 18.7,13.4 C32.5,13.4 37.3,6.4 37.3,-0.1 C37.3,-6.6 32.5,-13.6 18.7,-13.6 M10.4,-4.5 C10.3,-4.9 10.3,-5.3 10.3,-5.7 C10.3,-6.5 10.5,-7.3 10.9,-8 C11.6,-9 12.8,-9.7 14.3,-10 C15.6,-10.3 16.3,-10.5 18.9,-10.5 L19,-10.5 C23,-10.5 24.3,-6.8 25.4,-3 L25.7,-2 C26.5,0.6 26.9,2.8 26.9,4.5 C26.9,5.7 26.7,6.8 26.3,7.6 C25.7,8.7 24.7,9.4 23,9.8 C22.1,10 20.6,10.1 20.6,10.1 C20.1,10.1 19.7,10.2 19.3,10.2 C16.1,10.2 14.1,9 12.7,4.7 C11.5,1 11.3,-0.1 10.4,-4.5"/>
<path class="Note" transform="matrix(2.3811,0,0,2.3811,3025.53,2046.61)" d="M18.7,-13.6 C4.9,-13.6 0,-6.6 0,-0.1 C0,6.4 4.9,13.4 18.7,13.4 C32.5,13.4 37.3,6.4 37.3,-0.1 C37.3,-6.6 32.5,-13.6 18.7,-13.6 M10.4,-4.5 C10.3,-4.9 10.3,-5.3 10.3,-5.7 C10.3,-6.5 10.5,-7.3 10.9,-8 C11.6,-9 12.8,-9.7 14.3,-10 C15.6,-10.3 16.3,-10.5 18.9,-10.5 L19,-10.5 C23,-10.5 24.3,-6.8 25.4,-3 L25.7,-2 C26.5,0.6 26.9,2.8 26.9,4.5 C26.9,5.7 26.7,6.8 26.3,7.6 C25.7,8.7 24.7,9.4 23,9.8 C22.1,10 20.6,10.1 20.6,10.1 C20.1,10.1 19.7,10.2 19.3,10.2 C16.1,10.2 14.1,9 12.7,4.7 C11.5,1 11.3,-0.1 10.4,-4.5"/>
<path class="Note" transform="matrix(2.3811,0,0,2.3811,3614.89,2016.85)" d="M18.7,-13.6 C4.9,-13.6 0,-6.6 0,-0.1 C0,6.4 4.9,13.4 18.7,13.4 C32.5,13.4 37.3,6.4 37.3,-0.1 C37.3,-6.6 32.5,-13.6 18.7,-13.6 M10.4,-4.5 C10.3,-4.9 10.3,-5.3 10.3,-5.7 C10.3,-6.5 10.5,-7.3 10.9,-8 C11.6,-9 12.8,-9.7 14.3,-10 C15.6,-10.3 16.3,-10.5 18.9,-10.5 L19,-10.5 C23,-10.5 24.3,-6.8 25.4,-3 L25.7,-2 C26.5,0.6 26.9,2.8 26.9,4.5 C26.9,5.7 26.7,6.8 26.3,7.6 C25.7,8.7 24.7,9.4 23,9.8 C22.1,10 20.6,10.1 20.6,10.1 C20.1,10.1 19.7,10.2 19.3,10.2 C16.1,10.2 14.1,9 12.7,4.7 C11.5,1 11.3,-0.1 10.4,-4.5"/>
<path class="Note" transform="matrix(2.3811,0,0,2.3811,577.687,1570.39)" d="M18.7,-13.6 C4.9,-13.6 0,-6.6 0,-0.1 C0,6.4 4.9,13.4 18.7,13.4 C32.5,13.4 37.3,6.4 37.3,-0.1 C37.3,-6.6 32.5,-13.6 18.7,-13.6 M10.4,-4.5 C10.3,-4.9 10.3,-5.3 10.3,-5.7 C10.3,-6.5 10.5,-7.3 10.9,-8 C11.6,-9 12.8,-9.7 14.3,-10 C15.6,-10.3 16.3,-10.5 18.9,-10.5 L19,-10.5 C23,-10.5 24.3,-6.8 25.4,-3 L25.7,-2 C26.5,0.6 26.9,2.8 26.9,4.5 C26.9,5.7 26.7,6.8 26.3,7.6 C25.7,8.7 24.7,9.4 23,9.8 C22.1,10 20.6,10.1 20.6,10.1 C20.1,10.1 19.7,10.2 19.3,10.2 C16.1,10.2 14.1,9 12.7,4.7 C11.5,1 11.3,-0.1 10.4,-4.5"/>
<path class="Note" transform="matrix(2.3811,0,0,2.3811,577.687,1510.87)" d="M18.7,-13.6 C4.9,-13.6 0,-6.6 0,-0.1 C0,6.4 4.9,13.4 18.7,13.4 C32.5,13.4 37.3,6.4 37.3,-0.1 C37.3,-6.6 32.5,-13.6 18.7,-13.6 M10.4,-4.5 C10.3,-4.9 10.3,-5.3 10.3,-5.7 C10.3,-6.5 10.5,-7.3 10.9,-8 C11.6,-9 12.8,-9.7 14.3,-10 C15.6,-10.3 16.3,-10.5 18.9,-10.5 L19,-10.5 C23,-10.5 24.3,-6.8 25.4,-3 L25.7,-2 C26.5,0.6 26.9,2.8 26.9,4.5 C26.9,5.7 26.7,6.8 26.3,7.6 C25.7,8.7 24.7,9.4 23,9.8 C22.1,10 20.6,10.1 20.6,10.1 C20.1,10.1 19.7,10.2 19.3,10.2 C16.1,10.2 14.1,9 12.7,4.7 C11.5,1 11.3,-0.1 10.4,-4.5"/>
<path class="Note" transform="matrix(2.3811,0,0,2.3811,577.687,1451.34)" d="M18.7,-13.6 C4.9,-13.6 0,-6.6 0,-0.1 C0,6.4 4.9,13.4 18.7,13.4 C32.5,13.4 37.3,6.4 37.3,-0.1 C37.3,-6.6 32.5,-13.6 18.7,-13.6 M10.4,-4.5 C10.3,-4.9 10.3,-5.3 10.3,-5.7 C10.3,-6.5 10.5,-7.3 10.9,-8 C11.6,-9 12.8,-9.7 14.3,-10 C15.6,-10.3 16.3,-10.5 18.9,-10.5 L19,-10.5 C23,-10.5 24.3,-6.8 25.4,-3 L25.7,-2 C26.5,0.6 26.9,2.8 26.9,4.5 C26.9,5.7 26.7,6.8 26.3,7.6 C25.7,8.7 24.7,9.4 23,9.8 C22.1,10 20.6,10.1 20.6,10.1 C20.1,10.1 19.7,10.2 19.3,10.2 C16.1,10.2 14.1,9 12.7,4.7 C11.5,1 11.3,-0.1 10.4,-4.5"/>
<path class="Note" transform="matrix(2.3811,0,0,2.3811,1153.15,1629.92)" d="M18.7,-13.6 C4.9,-13.6 0,-6.6 0,-0.1 C0,6.4 4.9,13.4 18.7,13.4 C32.5,13.4 37.3,6.4 37.3,-0.1 C37.3,-6.6 32.5,-13.6 18.7,-13.6 M10.4,-4.5 C10.3,-4.9 10.3,-5.3 10.3,-5.7 C10.3,-6.5 10.5,-7.3 10.9,-8 C11.6,-9 12.8,-9.7 14.3,-10 C15.6,-10.3 16.3,-10.5 18.9,-10.5 L19,-10.5 C23,-10.5 24.3,-6.8 25.4,-3 L25.7,-2 C26.5,0.6 26.9,2.8 26.9,4.5 C26.9,5.7 26.7,6.8 26.3,7.6 C25.7,8.7 24.7,9.4 23,9.8 C22.1,10 20.6,10.1 20.6,10.1 C20.1,10.1 19.7,10.2 19.3,10.2 C16.1,10.2 14.1,9 12.7,4.7 C11.5,1 11.3,-0.1 10.4,-4.5"/>
<path class="Note" transform="matrix(2.3811,0,0,2.3811,1153.15,1540.63)" d="M18.7,-13.6 C4.9,-13.6 0,-6.6 0,-0.1 C0,6.4 4.9,13.4 18.7,13.4 C32.5,13.4 37.3,6.4 37.3,-0.1 C37.3,-6.6 32.5,-13.6 18.7,-13.6 M10.4,-4.5 C10.3,-4.9 10.3,-5.3 10.3,-5.7 C10.3,-6.5 10.5,-7.3 10.9,-8 C11.6,-9 12.8,-9.7 14.3,-10 C15.6,-10.3 16.3,-10.5 18.9,-10.5 L19,-10.5 C23,-10.5 24.3,-6.8 25.4,-3 L25.7,-2 C26.5,0.6 26.9,2.8 26.9,4.5 C26.9,5.7 26.7,6.8 26.3,7.6 C25.7,8.7 24.7,9.4 23,9.8 C22.1,10 20.6,10.1 20.6,10.1 C20.1,10.1 19.7,10.2 19.3,10.2 C16.1,10.2 14.1,9 12.7,4.7 C11.5,1 11.3,-0.1 10.4,-4.5"/>
<path class="Note" transform="matrix(2.3811,0,0,2.3811,1153.15,1481.1)" d="M18.7,-13.6 C4.9,-13.6 0,-6.6 0,-0.1 C0,6.4 4.9,13.4 18.7,13.4 C32.5,13.4 37.3,6.4 37.3,-0.1 C37.3,-6.6 32.5,-13.6 18.7,-13.6 M10.4,-4.5 C10.3,-4.9 10.3,-5.3 10.3,-5.7 C10.3,-6.5 10.5,-7.3 10.9,-8 C11.6,-9 12.8,-9.7 14.3,-10 C15.6,-10.3 16.3,-10.5 18.9,-10.5 L19,-10.5 C23,-10.5 24.3,-6.8 25.4,-3 L25.7,-2 C26.5,0.6 26.9,2.8 26.9,4.5 C26.9,5.7 26.7,6.8 26.3,7.6 C25.7,8.7 24.7,9.4 23,9.8 C22.1,10 20.6,10.1 20.6,10.1 C20.1,10.1 19.7,10.2 19.3,10.2 C16.1,10.2 14.1,9 12.7,4.7 C11.5,1 11.3,-0.1 10.4,-4.5"/>
<path class="Note" transform="matrix(2.3811,0,0,2.3811,1795.89,1629.92)" d="M18.7,-13.6 C4.9,-13.6 0,-6.6 0,-0.1 C0,6.4 4.9,13.4 18.7,13.4 C32.5,13.4 37.3,6.4 37.3,-0.1 C37.3,-6.6 32.5,-13.6 18.7,-13.6 M10.4,-4.5 C10.3,-4.9 10.3,-5.3 10.3,-5.7 C10.3,-6.5 10.5,-7.3 10.9,-8 C11.6,-9 12.8,-9.7 14.3,-10 C15.6,-10.3 16.3,-10.5 18.9,-10.5 L19,-10.5 C23,-10.5 24.3,-6.8 25.4,-3 L25.7,-2 C26.5,0.6 26.9,2.8 26.9,4.5 C26.9,5.7 26.7,6.8 26.3,7.6 C25.7,8.7 24.7,9.4 23,9.8 C22.1,10 20.6,10.1 20.6,10.1 C20.1,10.1 19.7,10.2 19.3,10.2 C16.1,10.2 14.1,9 12.7,4.7 C11.5,1 11.3,-0.1 10.4,-4.5"/>
<path class="Note" transform="matrix(2.3811,0,0,2.3811,1795.89,1570.39)" d="M18.7,-13.6 C4.9,-13.6 0,-6.6 0,-0.1 C0,6.4 4.9,13.4 18.7,13.4 C32.5,13.4 37.3,6.4 37.3,-0.1 C37.3,-6.6 32.5,-13.6 18.7,-13.6 M10.4,-4.5 C10.3,-4.9 10.3,-5.3 10.3,-5.7 C10.3,-6.5 10.5,-7.3 10.9,-8 C11.6,-9 12.8,-9.7 14.3,-10 C15.6,-10.3 16.3,-10.5 18.9,-10.5 L19,-10.5 C23,-10.5 24.3,-6.8 25.4,-3 L25.7,-2 C26.5,0.6 26.9,2.8 26.9,4.5 C26.9,5.7 26.7,6.8 26.3,7.6 C25.7,8.7 24.7,9.4 23,9.8 C22.1,10 20.6,10.1 20.6,10.1 C20.1,10.1 19.7,10.2 19.3,10.2 C16.1,10.2 14.1,9 12.7,4.7 C11.5,1 11.3,-0.1 10.4,-4.5"/>
<path class="Note" transform="matrix(2.3811,0,0,2.3811,1795.89,1451.34)" d="M18.7,-13.6 C4.9,-13.6 0,-6.6 0,-0.1 C0,6.4 4.9,13.4 18.7,13.4 C32.5,13.4 37.3,6.4 37.3,-0.1 C37.3,-6.6 32.5,-13.6 18.7,-13.6 M10.4,-4.5 C10.3,-4.9 10.3,-5.3 10.3,-5.7 C10.3,-6.5 10.5,-7.3 10.9,-8 C11.6,-9 12.8,-9.7 14.3,-10 C15.6,-10.3 16.3,-10.5 18.9,-10.5 L19,-10.5 C23,-10.5 24.3,-6.8 25.4,-3 L25.7,-2 C26.5,0.6 26.9,2.8 26.9,4.5 C26.9,5.7 26.7,6.8 26.3,7.6 C25.7,8.7 24.7,9.4 23,9.8 C22.1,10 20.6,10.1 20.6,10.1 C20.1,10.1 19.7,10.2 19.3,10.2 C16.1,10.2 14.1,9 12.7,4.7 C11.5,1 11.3,-0.1 10.4,-4.5"/>
<path class="Note" transform="matrix(2.3811,0,0,2.3811,2371.35,1629.92)" d="M18.7,-13.6 C4.9,-13.6 0,-6.6 0,-0.1 C0,6.4 4.9,13.4 18.7,13.4 C32.5,13.4 37.3,6.4 37.3,-0.1 C37.3,-6.6 32.5,-13.6 18.7,-13.6 M10.4,-4.5 C10.3,-4.9 10.3,-5.3 10.3,-5.7 C10.3,-6.5 10.5,-7.3 10.9,-8 C11.6,-9 12.8,-9.7 14.3,-10 C15.6,-10.3 16.3,-10.5 18.9,-10.5 L19,-10.5 C23,-10.5 24.3,-6.8 25.4,-3 L25.7,-2 C26.5,0.6 26.9,2.8 26.9,4.5 C26.9,5.7 26.7,6.8 26.3,7.6 C25.7,8.7 24.7,9.4 23,9.8 C22.1,10 20.6,10.1 20.6,10.1 C20.1,10.1 19.7,10.2 19.3,10.2 C16.1,10.2 14.1,9 12.7,4.7 C11.5,1 11.3,-0.1 10.4,-4.5"/>
<path class="Note" transform="matrix(2.3811,0,0,2.3811,2371.35,1540.63)" d="M18.7,-13.6 C4.9,-13.6 0,-6.6 0,-0.1 C0,6.4 4.9,13.4 18.7,13.4 C32.5,13.4 37.3,6.4 37.3,-0.1 C37.3,-6.6 32.5,-13.6 18.7,-13.6 M10.4,-4.5 C10.3,-4.9 10.3,-5.3 10.3,-5.7 C10.3,-6.5 10.5,-7.3 10.9,-8 C11.6,-9 12.8,-9.7 14.3,-10 C15.6,-10.3 16.3,-10.5 18.9,-10.5 L19,-10.5 C23,-10.5 24.3,-6.8 25.4,-3 L25.7,-2 C26.5,0.6 26.9,2.8 26.9,4.5 C26.9,5.7 26.7,6.8 26.3,7.6 C25.7,8.7 24.7,9.4 23,9.8 C22.1,10 20.6,10.1 20.6,10.1 C20.1,10.1 19.7,10.2 19.3,10.2 C16.1,10.2 14.1,9 12.7,4.7 C11.5,1 11.3,-0.1 10.4,-4.5"/>
<path class="Note" transform="matrix(2.3811,0,0,2.3811,2371.35,1481.1)" d="M18.7,-13.6 C4.9,-13.6 0,-6.6 0,-0.1 C0,6.4 4.9,13.4 18.7,13.4 C32.5,13.4 37.3,6.4 37.3,-0.1 C37.3,-6.6 32.5,-13.6 18.7,-13.6 M10.4,-4.5 C10.3,-4.9 10.3,-5.3 10.3,-5.7 C10.3,-6.5 10.5,-7.3 10.9,-8 C11.6,-9 12.8,-9.7 14.3,-10 C15.6,-10.3 16.3,-10.5 18.9,-10.5 L19,-10.5 C23,-10.5 24.3,-6.8 25.4,-3 L25.7,-2 C26.5,0.6 26.9,2.8 26.9,4.5 C26.9,5.7 26.7,6.8 26.3,7.6 C25.7,8.7 24.7,9.4 23,9.8 C22.1,10 20.6,10.1 20.6,10.1 C20.1,10.1 19.7,10.2 19.3,10.2 C16.1,10.2 14.1,9 12.7,4.7 C11.5,1 11.3,-0.1 10.4,-4.5"/>
<path class="Note" transform="matrix(2.3811,0,0,2.3811,3025.53,1629.92)" d="M18.7,-13.6 C4.9,-13.6 0,-6.6 0,-0.1 C0,6.4 4.9,13.4 18.7,13.4 C32.5,13.4 37.3,6.4 37.3,-0.1 C37.3,-6.6 32.5,-13.6 18.7,-13.6 M10.4,-4.5 C10.3,-4.9 10.3,-5.3 10.3,-5.7 C10.3,-6.5 10.5,-7.3 10.9,-8 C11.6,-9 12.8,-9.7 14.3,-10 C15.6,-10.3 16.3,-10.5 18.9,-10.5 L19,-10.5 C23,-10.5 24.3,-6.8 25.4,-3 L25.7,-2 C26.5,0.6 26.9,2.8 26.9,4.5 C26.9,5.7 26.7,6.8 26.3,7.6 C25.7,8.7 24.7,9.4 23,9.8 C22.1,10 20.6,10.1 20.6,10.1 C20.1,10.1 19.7,10.2 19.3,10.2 C16.1,10.2 14.1,9 12.7,4.7 C11.5,1 11.3,-0.1 10.4,-4.5"/>
<path class="Note" transform="matrix(2.3811,0,0,2.3811,3025.53,1510.87)" d="M18.7,-13.6 C4.9,-13.6 0,-6.6 0,-0.1 C0,6.4 4.9,13.4 18.7,13.4 C32.5,13.4 37.3,6.4 37.3,-0.1 C37.3,-6.6 32.5,-13.6 18.7,-13.6 M10.4,-4.5 C10.3,-4.9 10.3,-5.3 10.3,-5.7 C10.3,-6.5 10.5,-7.3 10.9,-8 C11.6,-9 12.8,-9.7 14.3,-10 C15.6,-10.3 16.3,-10.5 18.9,-10.5 L19,-10.5 C23,-10.5 24.3,-6.8 25.4,-3 L25.7,-2 C26.5,0.6 26.9,2.8 26.9,4.5 C26.9,5.7 26.7,6.8 26.3,7.6 C25.7,8.7 24.7,9.4 23,9.8 C22.1,10 20.6,10.1 20.6,10.1 C20.1,10.1 19.7,10.2 19.3,10.2 C16.1,10.2 14.1,9 12.7,4.7 C11.5,1 11.3,-0.1 10.4,-4.5"/>
<path class="Note" transform="matrix(2.3811,0,0,2.3811,3025.53,1451.34)" d="M18.7,-13.6 C4.9,-13.6 0,-6.6 0,-0.1 C0,6.4 4.9,13.4 18.7,13.4 C32.5,13.4 37.3,6.4 37.3,-0.1 C37.3,-6.6 32.5,-13.6 18.7,-13.6 M10.4,-4.5 C10.3,-4.9 10.3,-5.3 10.3,-5.7 C10.3,-6.5 10.5,-7.3 10.9,-8 C11.6,-9 12.8,-9.7 14.3,-10 C15.6,-10.3 16.3,-10.5 18.9,-10.5 L19,-10.5 C23,-10.5 24.3,-6.8 25.4,-3 L25.7,-2 C26.5,0.6 26.9,2.8 26.9,4.5 C26.9,5.7 26.7,6.8 26.3,7.6 C25.7,8.7 24.7,9.4 23,9.8 C22.1,10 20.6,10.1 20.6,10.1 C20.1,10.1 19.7,10.2 19.3,10.2 C16.1,10.2 14.1,9 12.7,4.7 C11.5,1 11.3,-0.1 10.4,-4.5"/>
<path class="Note" transform="matrix(2.3811,0,0,2.3811,3614.89,1629.92)" d="M18.7,-13.6 C4.9,-13.6 0,-6.6 0,-0.1 C0,6.4 4.9,13.4 18.7,13.4 C32.5,13.4 37.3,6.4 37.3,-0.1 C37.3,-6.6 32.5,-13.6 18.7,-13.6 M10.4,-4.5 C10.3,-4.9 10.3,-5.3 10.3,-5.7 C10.3,-6.5 10.5,-7.3 10.9,-8 C11.6,-9 12.8,-9.7 14.3,-10 C15.6,-10.3 16.3,-10.5 18.9,-10.5 L19,-10.5 C23,-10.5 24.3,-6.8 25.4,-3 L25.7,-2 C26.5,0.6 26.9,2.8 26.9,4.5 C26.9,5.7 26.7,6.8 26.3,7.6 C25.7,8.7 24.7,9.4 23,9.8 C22.1,10 20.6,10.1 20.6,10.1 C20.1,10.1 19.7,10.2 19.3,10.2 C16.1,10.2 14.1,9 12.7,4.7 C11.5,1 11.3,-0.1 10.4,-4.5"/>
<path class="Note" transform="matrix(2.3811,0,0,2.3811,3614.89,1540.63)" d="M18.7,-13.6 C4.9,-13.6 0,-6.6 0,-0.1 C0,6.4 4.9,13.4 18.7,13.4 C32.5,13.4 37.3,6.4 37.3,-0.1 C37.3,-6.6 32.5,-13.6 18.7,-13.6 M10.4,-4.5 C10.3,-4.9 10.3,-5.3 10.3,-5.7 C10.3,-6.5 10.5,-7.3 10.9,-8 C11.6,-9 12.8,-9.7 14.3,-10 C15.6,-10.3 16.3,-10.5 18.9,-10.5 L19,-10.5 C23,-10.5 24.3,-6.8 25.4,-3 L25.7,-2 C26.5,0.6 26.9,2.8 26.9,4.5 C26.9,5.7 26.7,6.8 26.3,7.6 C25.7,8.7 24.7,9.4 23,9.8 C22.1,10 20.6,10.1 20.6,10.1 C20.1,10.1 19.7,10.2 19.3,10.2 C16.1,10.2 14.1,9 12.7,4.7 C11.5,1 11.3,-0.1 10.4,-4.5"/>
<path class="Note" transform="matrix(2.3811,0,0,2.3811,3614.89,1481.1)" d="M18.7,-13.6 C4.9,-13.6 0,-6.6 0,-0.1 C0,6.4 4.9,13.4 18.7,13.4 C32.5,13.4 37.3,6.4 37.3,-0.1 C37.3,-6.6 32.5,-13.6 18.7,-13.6 M10.4,-4.5 C10.3,-4.9 10.3,-5.3 10.3,-5.7 C10.3,-6.5 10.5,-7.3 10.9,-8 C11.6,-9 12.8,-9.7 14.3,-10 C15.6,-10.3 16.3,-10.5 18.9,-10.5 L19,-10.5 C23,-10.5 24.3,-6.8 25.4,-3 L25.7,-2 C26.5,0.6 26.9,2.8 26.9,4.5 C26.9,5.7 26.7,6.8 26.3,7.6 C25.7,8.7 24.7,9.4 23,9.8 C22.1,10 20.6,10.1 20.6,10.1 C20.1,10.1 19.7,10.2 19.3,10.2 C16.1,10.2 14.1,9 12.7,4.7 C11.5,1 11.3,-0.1 10.4,-4.5"/>
<path class="Note" d="M612.23,910.409 C608.434,910.409 606.536,906.342 606.536,898.207 L606.536,864.157 C606.536,860.903 608.124,859.276 611.3,859.276 C612.695,859.276 613.741,859.392 614.438,859.625 C616.917,855.286 620.984,851.645 626.64,848.701 C634.542,844.595 642.561,842.542 650.696,842.542 C657.126,842.542 660.341,844.943 660.341,849.747 C660.341,853.775 658.172,855.79 653.833,855.79 C650.734,855.79 647.79,855.093 645.001,853.698 C642.522,852.458 639.888,851.839 637.099,851.839 C632.296,851.839 625.207,854.976 615.832,861.252 C617.15,867.527 617.808,874.848 617.808,883.216 C617.808,901.344 615.949,910.409 612.23,910.409"/>
<path class="Note" d="M692.299,616.271 C685.946,626.265 675.914,634.555 662.201,641.14 C650.27,646.873 639.113,649.74 628.732,649.74 C620.442,649.74 613.547,648.074 608.046,644.743 C602.081,641.102 599.098,636.763 599.098,631.727 C599.098,620.339 602.081,610.538 608.046,602.326 C616.181,591.17 624.393,585.592 632.683,585.592 C638.571,585.592 642.755,586.754 645.234,589.078 C648.643,592.099 650.347,596.244 650.347,601.512 C650.347,608.95 644.808,615.419 633.729,620.92 C622.96,626.265 615.484,629.752 611.3,631.379 C612.23,633.315 613.431,635.059 614.903,636.608 C618.544,640.482 623.502,642.419 629.778,642.419 C637.68,642.419 648.294,639.513 661.62,633.703 C674.403,628.047 684.629,622.237 692.299,616.271 M609.673,626.033 C615.484,623.089 620.791,619.641 625.594,615.69 C632.722,609.88 636.286,603.604 636.286,596.864 C636.286,593.068 634.542,591.17 631.056,591.17 C628.112,591.17 624.083,594.54 618.97,601.28 C612.54,609.647 609.325,616.465 609.325,621.733 C609.325,623.205 609.441,624.638 609.673,626.033"/>
<path class="Note" d="M612.23,553.244 C608.434,553.244 606.536,549.176 606.536,541.041 L606.536,506.992 C606.536,503.738 608.124,502.111 611.3,502.111 C612.695,502.111 613.741,502.227 614.438,502.459 C616.917,498.121 620.984,494.48 626.64,491.536 C634.542,487.429 642.561,485.376 650.696,485.376 C657.126,485.376 660.341,487.778 660.341,492.581 C660.341,496.61 658.172,498.624 653.833,498.624 C650.734,498.624 647.79,497.927 645.001,496.533 C642.522,495.293 639.888,494.673 637.099,494.673 C632.296,494.673 625.207,497.811 615.832,504.086 C617.15,510.362 617.808,517.683 617.808,526.05 C617.808,544.179 615.949,553.244 612.23,553.244"/>
<path class="Note" d="M692.299,794.854 C685.946,804.848 675.914,813.138 662.201,819.723 C650.27,825.456 639.113,828.323 628.732,828.323 C620.442,828.323 613.547,826.657 608.046,823.326 C602.081,819.684 599.098,815.346 599.098,810.31 C599.098,798.921 602.081,789.121 608.046,780.909 C616.181,769.752 624.393,764.174 632.683,764.174 C638.571,764.174 642.755,765.336 645.234,767.661 C648.643,770.682 650.347,774.827 650.347,780.095 C650.347,787.533 644.808,794.002 633.729,799.502 C622.96,804.848 615.484,808.334 611.3,809.961 C612.23,811.898 613.431,813.641 614.903,815.191 C618.544,819.065 623.502,821.001 629.778,821.001 C637.68,821.001 648.294,818.096 661.62,812.286 C674.403,806.63 684.629,800.819 692.299,794.854 M609.673,804.616 C615.484,801.672 620.791,798.224 625.594,794.273 C632.722,788.462 636.286,782.187 636.286,775.447 C636.286,771.65 634.542,769.752 631.056,769.752 C628.112,769.752 624.083,773.122 618.97,779.863 C612.54,788.23 609.325,795.048 609.325,800.316 C609.325,801.788 609.441,803.221 609.673,804.616"/>
<path class="Note" d="M545.418,677.207 C545.728,665.509 552.197,655.127 564.825,646.063 C576.059,638.005 588.338,633.977 601.664,633.977 C620.335,633.977 636.798,641.298 651.053,655.94 C660.118,665.315 664.65,676.936 664.65,690.804 C664.65,703.277 661.319,712.845 654.656,719.508 C646.521,727.72 637.922,731.826 628.857,731.826 C622.659,731.826 617.856,730.432 614.447,727.643 C608.869,723.072 606.08,716.951 606.08,709.281 C606.08,699.365 611.038,690.3 620.955,682.088 C629.09,675.348 637.263,670.932 645.475,668.84 C643.306,665.121 640.556,661.635 637.224,658.381 C626.843,648.232 615.067,643.157 601.896,643.157 C588.183,643.157 576.833,646.14 567.846,652.106 C558.55,658.226 551.073,666.593 545.418,677.207 M648.381,674.999 C644.12,678.95 639.858,683.173 635.597,687.666 C627.23,696.498 623.047,704.865 623.047,712.768 C623.047,721.212 624.983,725.435 628.857,725.435 C632.343,725.435 637.224,720.67 643.5,711.141 C648.536,703.548 651.053,696.576 651.053,690.223 C651.053,684.8 650.162,679.725 648.381,674.999"/>
<path class="Note" d="M1231.97,941.13 C1236.54,941.13 1238.82,943.996 1238.82,949.73 C1238.82,953.758 1236.31,959.762 1231.27,967.742 C1227.24,974.173 1225.23,980.448 1225.23,986.568 C1225.23,990.055 1230.3,991.798 1240.45,991.798 C1248.82,991.798 1260.48,987.266 1275.43,978.201 C1260.4,992.689 1247.35,999.933 1236.27,999.933 C1226.27,999.933 1219.3,998.422 1215.35,995.4 C1214.34,994.626 1213.49,993.696 1212.79,992.611 C1208.92,997.337 1202.45,999.7 1193.39,999.7 C1184.71,999.7 1178.05,997.918 1173.4,994.355 C1170.3,991.953 1168.75,988.118 1168.75,982.85 C1168.75,974.482 1173.71,965.341 1183.62,955.424 C1194.24,944.81 1206.52,939.503 1220.46,939.503 C1223.95,939.503 1226.51,940.781 1228.13,943.338 C1229.45,941.866 1230.73,941.13 1231.97,941.13 M1211.17,987.382 C1211.09,986.762 1211.05,986.142 1211.05,985.523 C1211.05,985.213 1215,974.405 1222.9,953.1 C1223.68,951.008 1224.45,949.226 1225.23,947.754 C1222.21,947.134 1219.22,946.824 1216.28,946.824 C1210.86,946.824 1203.65,951.434 1194.66,960.653 C1186.61,968.866 1182.58,975.954 1182.58,981.92 C1182.58,988.505 1185.72,991.798 1191.99,991.798 C1199.58,991.798 1205.98,990.326 1211.17,987.382"/>
<path class="Note" d="M1231.97,583.965 C1236.54,583.965 1238.82,586.831 1238.82,592.564 C1238.82,596.593 1236.31,602.597 1231.27,610.577 C1227.24,617.007 1225.23,623.283 1225.23,629.403 C1225.23,632.889 1230.3,634.633 1240.45,634.633 C1248.82,634.633 1260.48,630.1 1275.43,621.036 C1260.4,635.524 1247.35,642.767 1236.27,642.767 C1226.27,642.767 1219.3,641.257 1215.35,638.235 C1214.34,637.46 1213.49,636.531 1212.79,635.446 C1208.92,640.172 1202.45,642.535 1193.39,642.535 C1184.71,642.535 1178.05,640.753 1173.4,637.189 C1170.3,634.787 1168.75,630.953 1168.75,625.684 C1168.75,617.317 1173.71,608.175 1183.62,598.259 C1194.24,587.645 1206.52,582.338 1220.46,582.338 C1223.95,582.338 1226.51,583.616 1228.13,586.173 C1229.45,584.701 1230.73,583.965 1231.97,583.965 M1211.17,630.217 C1211.09,629.597 1211.05,628.977 1211.05,628.357 C1211.05,628.047 1215,617.24 1222.9,595.934 C1223.68,593.843 1224.45,592.061 1225.23,590.589 C1222.21,589.969 1219.22,589.659 1216.28,589.659 C1210.86,589.659 1203.65,594.269 1194.66,603.488 C1186.61,611.7 1182.58,618.789 1182.58,624.755 C1182.58,631.34 1185.72,634.633 1191.99,634.633 C1199.58,634.633 1205.98,633.161 1211.17,630.217"/>
<path class="Note" d="M1231.97,494.673 C1236.54,494.673 1238.82,497.54 1238.82,503.273 C1238.82,507.301 1236.31,513.306 1231.27,521.286 C1227.24,527.716 1225.23,533.991 1225.23,540.112 C1225.23,543.598 1230.3,545.341 1240.45,545.341 C1248.82,545.341 1260.48,540.809 1275.43,531.745 C1260.4,546.232 1247.35,553.476 1236.27,553.476 C1226.27,553.476 1219.3,551.965 1215.35,548.944 C1214.34,548.169 1213.49,547.239 1212.79,546.155 C1208.92,550.881 1202.45,553.244 1193.39,553.244 C1184.71,553.244 1178.05,551.462 1173.4,547.898 C1170.3,545.496 1168.75,541.661 1168.75,536.393 C1168.75,528.026 1173.71,518.884 1183.62,508.967 C1194.24,498.353 1206.52,493.046 1220.46,493.046 C1223.95,493.046 1226.51,494.325 1228.13,496.881 C1229.45,495.409 1230.73,494.673 1231.97,494.673 M1211.17,540.925 C1211.09,540.305 1211.05,539.686 1211.05,539.066 C1211.05,538.756 1215,527.948 1222.9,506.643 C1223.68,504.551 1224.45,502.769 1225.23,501.297 C1222.21,500.677 1219.22,500.368 1216.28,500.368 C1210.86,500.368 1203.65,504.977 1194.66,514.197 C1186.61,522.409 1182.58,529.498 1182.58,535.463 C1182.58,542.049 1185.72,545.341 1191.99,545.341 C1199.58,545.341 1205.98,543.869 1211.17,540.925"/>
<path class="Note" d="M1239.06,670.351 C1249.52,663.765 1257.11,658.381 1261.83,654.197 C1270.51,646.527 1274.85,638.78 1274.85,630.955 C1274.85,621.813 1268.73,617.242 1256.49,617.242 C1243.63,617.242 1230.23,626.5 1216.28,645.017 C1206.83,657.567 1200.13,669.421 1196.18,680.577 C1201.06,677.401 1206.21,675.813 1211.63,675.813 C1216.74,675.813 1220.81,678.098 1223.83,682.669 C1225.93,685.845 1226.97,691.269 1226.97,698.939 C1226.97,705.834 1223.33,713.93 1216.05,723.227 C1211.55,728.96 1206.56,731.826 1201.06,731.826 C1194.08,731.826 1189.2,730.432 1186.41,727.643 C1182.46,723.691 1180.49,715.867 1180.49,704.168 C1180.49,684.49 1188.43,665.121 1204.31,646.063 C1222.21,624.602 1239.37,613.872 1255.79,613.872 C1268.5,613.872 1277.99,616.855 1284.26,622.82 C1287.9,626.307 1289.73,631.343 1289.73,637.928 C1289.73,645.288 1282.48,653.5 1267.99,662.565 C1260.4,667.368 1250.76,669.963 1239.06,670.351 M1194.66,685.458 C1192.73,691.966 1191.76,698.203 1191.76,704.168 C1191.76,718.346 1194.01,725.435 1198.5,725.435 C1202.76,725.435 1206.09,722.413 1208.49,716.37 C1211.28,709.552 1212.68,701.999 1212.68,693.709 C1212.68,686.349 1210.24,682.669 1205.36,682.669 C1201.95,682.669 1198.38,683.599 1194.66,685.458"/>
<path class="Note" d="M1830.43,910.409 C1826.64,910.409 1824.74,906.342 1824.74,898.207 L1824.74,864.157 C1824.74,860.903 1826.33,859.276 1829.5,859.276 C1830.9,859.276 1831.94,859.392 1832.64,859.625 C1835.12,855.286 1839.19,851.645 1844.84,848.701 C1852.75,844.595 1860.76,842.542 1868.9,842.542 C1875.33,842.542 1878.54,844.943 1878.54,849.747 C1878.54,853.775 1876.38,855.79 1872.04,855.79 C1868.94,855.79 1865.99,855.093 1863.2,853.698 C1860.73,852.458 1858.09,851.839 1855.3,851.839 C1850.5,851.839 1843.41,854.976 1834.04,861.252 C1835.35,867.527 1836.01,874.848 1836.01,883.216 C1836.01,901.344 1834.15,910.409 1830.43,910.409"/>
<path class="Note" d="M1910.5,616.271 C1904.15,626.265 1894.12,634.555 1880.4,641.14 C1868.47,646.873 1857.32,649.74 1846.94,649.74 C1838.65,649.74 1831.75,648.074 1826.25,644.743 C1820.28,641.102 1817.3,636.763 1817.3,631.727 C1817.3,620.339 1820.28,610.538 1826.25,602.326 C1834.38,591.17 1842.6,585.592 1850.89,585.592 C1856.77,585.592 1860.96,586.754 1863.44,589.078 C1866.85,592.099 1868.55,596.244 1868.55,601.512 C1868.55,608.95 1863.01,615.419 1851.93,620.92 C1841.16,626.265 1833.69,629.752 1829.5,631.379 C1830.43,633.315 1831.63,635.059 1833.11,636.608 C1836.75,640.482 1841.71,642.419 1847.98,642.419 C1855.88,642.419 1866.5,639.513 1879.82,633.703 C1892.61,628.047 1902.83,622.237 1910.5,616.271 M1827.88,626.033 C1833.69,623.089 1838.99,619.641 1843.8,615.69 C1850.93,609.88 1854.49,603.604 1854.49,596.864 C1854.49,593.068 1852.75,591.17 1849.26,591.17 C1846.32,591.17 1842.29,594.54 1837.17,601.28 C1830.74,609.647 1827.53,616.465 1827.53,621.733 C1827.53,623.205 1827.64,624.638 1827.88,626.033"/>
<path class="Note" d="M1763.62,677.207 C1763.93,665.509 1770.4,655.127 1783.03,646.063 C1794.26,638.005 1806.54,633.977 1819.87,633.977 C1838.54,633.977 1855,641.298 1869.26,655.94 C1878.32,665.315 1882.85,676.936 1882.85,690.804 C1882.85,703.277 1879.52,712.845 1872.86,719.508 C1864.72,727.72 1856.13,731.826 1847.06,731.826 C1840.86,731.826 1836.06,730.432 1832.65,727.643 C1827.07,723.072 1824.28,716.951 1824.28,709.281 C1824.28,699.365 1829.24,690.3 1839.16,682.088 C1847.29,675.348 1855.47,670.932 1863.68,668.84 C1861.51,665.121 1858.76,661.635 1855.43,658.381 C1845.05,648.232 1833.27,643.157 1820.1,643.157 C1806.39,643.157 1795.04,646.14 1786.05,652.106 C1776.75,658.226 1769.28,666.593 1763.62,677.207 M1866.58,674.999 C1862.32,678.95 1858.06,683.173 1853.8,687.666 C1845.43,696.498 1841.25,704.865 1841.25,712.768 C1841.25,721.212 1843.19,725.435 1847.06,725.435 C1850.55,725.435 1855.43,720.67 1861.7,711.141 C1866.74,703.548 1869.26,696.576 1869.26,690.223 C1869.26,684.8 1868.37,679.725 1866.58,674.999"/>
<path class="Note" d="M2450.17,941.13 C2454.74,941.13 2457.03,943.996 2457.03,949.73 C2457.03,953.758 2454.51,959.762 2449.47,967.742 C2445.45,974.173 2443.43,980.448 2443.43,986.568 C2443.43,990.055 2448.51,991.798 2458.66,991.798 C2467.02,991.798 2478.68,987.266 2493.63,978.201 C2478.6,992.689 2465.55,999.933 2454.47,999.933 C2444.48,999.933 2437.51,998.422 2433.55,995.4 C2432.55,994.626 2431.69,993.696 2431,992.611 C2427.12,997.337 2420.65,999.7 2411.59,999.7 C2402.91,999.7 2396.25,997.918 2391.6,994.355 C2388.5,991.953 2386.95,988.118 2386.95,982.85 C2386.95,974.482 2391.91,965.341 2401.83,955.424 C2412.44,944.81 2424.72,939.503 2438.67,939.503 C2442.15,939.503 2444.71,940.781 2446.34,943.338 C2447.65,941.866 2448.93,941.13 2450.17,941.13 M2429.37,987.382 C2429.29,986.762 2429.25,986.142 2429.25,985.523 C2429.25,985.213 2433.21,974.405 2441.11,953.1 C2441.88,951.008 2442.66,949.226 2443.43,947.754 C2440.41,947.134 2437.43,946.824 2434.48,946.824 C2429.06,946.824 2421.86,951.434 2412.87,960.653 C2404.81,968.866 2400.78,975.954 2400.78,981.92 C2400.78,988.505 2403.92,991.798 2410.2,991.798 C2417.79,991.798 2424.18,990.326 2429.37,987.382"/>
<path class="Note" d="M2450.17,583.965 C2454.74,583.965 2457.03,586.831 2457.03,592.564 C2457.03,596.593 2454.51,602.597 2449.47,610.577 C2445.45,617.007 2443.43,623.283 2443.43,629.403 C2443.43,632.889 2448.51,634.633 2458.66,634.633 C2467.02,634.633 2478.68,630.1 2493.63,621.036 C2478.6,635.524 2465.55,642.767 2454.47,642.767 C2444.48,642.767 2437.51,641.257 2433.55,638.235 C2432.55,637.46 2431.69,636.531 2431,635.446 C2427.12,640.172 2420.65,642.535 2411.59,642.535 C2402.91,642.535 2396.25,640.753 2391.6,637.189 C2388.5,634.787 2386.95,630.953 2386.95,625.684 C2386.95,617.317 2391.91,608.175 2401.83,598.259 C2412.44,587.645 2424.72,582.338 2438.67,582.338 C2442.15,582.338 2444.71,583.616 2446.34,586.173 C2447.65,584.701 2448.93,583.965 2450.17,583.965 M2429.37,630.217 C2429.29,629.597 2429.25,628.977 2429.25,628.357 C2429.25,628.047 2433.21,617.24 2441.11,595.934 C2441.88,593.843 2442.66,592.061 2443.43,590.589 C2440.41,589.969 2437.43,589.659 2434.48,589.659 C2429.06,589.659 2421.86,594.269 2412.87,603.488 C2404.81,611.7 2400.78,618.789 2400.78,624.755 C2400.78,631.34 2403.92,634.633 2410.2,634.633 C2417.79,634.633 2424.18,633.161 2429.37,630.217"/>
<path class="Note" d="M2450.17,494.673 C2454.74,494.673 2457.03,497.54 2457.03,503.273 C2457.03,507.301 2454.51,513.306 2449.47,521.286 C2445.45,527.716 2443.43,533.991 2443.43,540.112 C2443.43,543.598 2448.51,545.341 2458.66,545.341 C2467.02,545.341 2478.68,540.809 2493.63,531.745 C2478.6,546.232 2465.55,553.476 2454.47,553.476 C2444.48,553.476 2437.51,551.965 2433.55,548.944 C2432.55,548.169 2431.69,547.239 2431,546.155 C2427.12,550.881 2420.65,553.244 2411.59,553.244 C2402.91,553.244 2396.25,551.462 2391.6,547.898 C2388.5,545.496 2386.95,541.661 2386.95,536.393 C2386.95,528.026 2391.91,518.884 2401.83,508.967 C2412.44,498.353 2424.72,493.046 2438.67,493.046 C2442.15,493.046 2444.71,494.325 2446.34,496.881 C2447.65,495.409 2448.93,494.673 2450.17,494.673 M2429.37,540.925 C2429.29,540.305 2429.25,539.686 2429.25,539.066 C2429.25,538.756 2433.21,527.948 2441.11,506.643 C2441.88,504.551 2442.66,502.769 2443.43,501.297 C2440.41,500.677 2437.43,500.368 2434.48,500.368 C2429.06,500.368 2421.86,504.977 2412.87,514.197 C2404.81,522.409 2400.78,529.498 2400.78,535.463 C2400.78,542.049 2403.92,545.341 2410.2,545.341 C2417.79,545.341 2424.18,543.869 2429.37,540.925"/>
<path class="Note" d="M2457.26,670.351 C2467.72,663.765 2475.31,658.381 2480.04,654.197 C2488.72,646.527 2493.05,638.78 2493.05,630.955 C2493.05,621.813 2486.93,617.242 2474.69,617.242 C2461.83,617.242 2448.43,626.5 2434.48,645.017 C2425.03,657.567 2418.33,669.421 2414.38,680.577 C2419.26,677.401 2424.41,675.813 2429.84,675.813 C2434.95,675.813 2439.02,678.098 2442.04,682.669 C2444.13,685.845 2445.17,691.269 2445.17,698.939 C2445.17,705.834 2441.53,713.93 2434.25,723.227 C2429.76,728.96 2424.76,731.826 2419.26,731.826 C2412.29,731.826 2407.41,730.432 2404.62,727.643 C2400.67,723.691 2398.69,715.867 2398.69,704.168 C2398.69,684.49 2406.63,665.121 2422.51,646.063 C2440.41,624.602 2457.57,613.872 2474,613.872 C2486.7,613.872 2496.19,616.855 2502.47,622.82 C2506.11,626.307 2507.93,631.343 2507.93,637.928 C2507.93,645.288 2500.69,653.5 2486.2,662.565 C2478.6,667.368 2468.96,669.963 2457.26,670.351 M2412.87,685.458 C2410.93,691.966 2409.96,698.203 2409.96,704.168 C2409.96,718.346 2412.21,725.435 2416.7,725.435 C2420.96,725.435 2424.3,722.413 2426.7,716.37 C2429.49,709.552 2430.88,701.999 2430.88,693.709 C2430.88,686.349 2428.44,682.669 2423.56,682.669 C2420.15,682.669 2416.59,683.599 2412.87,685.458"/>
<path class="Note" d="M3104.35,583.965 C3108.92,583.965 3111.21,586.831 3111.21,592.564 C3111.21,596.593 3108.69,602.597 3103.66,610.577 C3099.63,617.007 3097.61,623.283 3097.61,629.403 C3097.61,632.889 3102.69,634.633 3112.84,634.633 C3121.2,634.633 3132.86,630.1 3147.82,621.036 C3132.79,635.524 3119.73,642.767 3108.65,642.767 C3098.66,642.767 3091.69,641.257 3087.74,638.235 C3086.73,637.46 3085.88,636.531 3085.18,635.446 C3081.31,640.172 3074.84,642.535 3065.77,642.535 C3057.09,642.535 3050.43,640.753 3045.78,637.189 C3042.68,634.787 3041.14,630.953 3041.14,625.684 C3041.14,617.317 3046.09,608.175 3056.01,598.259 C3066.62,587.645 3078.9,582.338 3092.85,582.338 C3096.34,582.338 3098.89,583.616 3100.52,586.173 C3101.84,584.701 3103.11,583.965 3104.35,583.965 M3083.55,630.217 C3083.47,629.597 3083.44,628.977 3083.44,628.357 C3083.44,628.047 3087.39,617.24 3095.29,595.934 C3096.06,593.843 3096.84,592.061 3097.61,590.589 C3094.59,589.969 3091.61,589.659 3088.67,589.659 C3083.24,589.659 3076.04,594.269 3067.05,603.488 C3058.99,611.7 3054.96,618.789 3054.96,624.755 C3054.96,631.34 3058.1,634.633 3064.38,634.633 C3071.97,634.633 3078.36,633.161 3083.55,630.217"/>
<path class="Note" d="M3111.44,759.642 C3121.9,753.057 3129.49,747.672 3134.22,743.489 C3142.9,735.819 3147.24,728.071 3147.24,720.246 C3147.24,711.105 3141.12,706.534 3128.87,706.534 C3116.01,706.534 3102.61,715.792 3088.67,734.308 C3079.21,746.859 3072.51,758.712 3068.56,769.869 C3073.44,766.692 3078.59,765.104 3084.02,765.104 C3089.13,765.104 3093.2,767.389 3096.22,771.96 C3098.31,775.137 3099.36,780.56 3099.36,788.23 C3099.36,795.125 3095.72,803.221 3088.43,812.518 C3083.94,818.251 3078.94,821.118 3073.44,821.118 C3066.47,821.118 3061.59,819.723 3058.8,816.934 C3054.85,812.983 3052.87,805.158 3052.87,793.459 C3052.87,773.781 3060.81,754.412 3076.7,735.354 C3094.59,713.894 3111.75,703.163 3128.18,703.163 C3140.88,703.163 3150.37,706.146 3156.65,712.112 C3160.29,715.598 3162.11,720.634 3162.11,727.219 C3162.11,734.579 3154.87,742.791 3140.38,751.856 C3132.79,756.659 3123.14,759.255 3111.44,759.642 M3067.05,774.749 C3065.11,781.257 3064.14,787.494 3064.14,793.459 C3064.14,807.637 3066.39,814.726 3070.89,814.726 C3075.15,814.726 3078.48,811.704 3080.88,805.662 C3083.67,798.844 3085.06,791.29 3085.06,783 C3085.06,775.64 3082.62,771.96 3077.74,771.96 C3074.33,771.96 3070.77,772.89 3067.05,774.749"/>
<path class="Note" d="M3060.08,553.244 C3056.28,553.244 3054.38,549.176 3054.38,541.041 L3054.38,506.992 C3054.38,503.738 3055.97,502.111 3059.15,502.111 C3060.54,502.111 3061.59,502.227 3062.29,502.459 C3064.76,498.121 3068.83,494.48 3074.49,491.536 C3082.39,487.429 3090.41,485.376 3098.54,485.376 C3104.97,485.376 3108.19,487.778 3108.19,492.581 C3108.19,496.61 3106.02,498.624 3101.68,498.624 C3098.58,498.624 3095.64,497.927 3092.85,496.533 C3090.37,495.293 3087.74,494.673 3084.95,494.673 C3080.14,494.673 3073.05,497.811 3063.68,504.086 C3065,510.362 3065.66,517.683 3065.66,526.05 C3065.66,544.179 3063.8,553.244 3060.08,553.244"/>
<path class="Note" d="M2993.27,677.207 C2993.58,665.509 3000.04,655.127 3012.67,646.063 C3023.91,638.005 3036.19,633.977 3049.51,633.977 C3068.18,633.977 3084.65,641.298 3098.9,655.94 C3107.97,665.315 3112.5,676.936 3112.5,690.804 C3112.5,703.277 3109.17,712.845 3102.5,719.508 C3094.37,727.72 3085.77,731.826 3076.7,731.826 C3070.51,731.826 3065.7,730.432 3062.29,727.643 C3056.72,723.072 3053.93,716.951 3053.93,709.281 C3053.93,699.365 3058.89,690.3 3068.8,682.088 C3076.94,675.348 3085.11,670.932 3093.32,668.84 C3091.15,665.121 3088.4,661.635 3085.07,658.381 C3074.69,648.232 3062.91,643.157 3049.74,643.157 C3036.03,643.157 3024.68,646.14 3015.69,652.106 C3006.4,658.226 2998.92,666.593 2993.27,677.207 M3096.23,674.999 C3091.97,678.95 3087.71,683.173 3083.44,687.666 C3075.08,696.498 3070.89,704.865 3070.89,712.768 C3070.89,721.212 3072.83,725.435 3076.7,725.435 C3080.19,725.435 3085.07,720.67 3091.35,711.141 C3096.38,703.548 3098.9,696.576 3098.9,690.223 C3098.9,684.8 3098.01,679.725 3096.23,674.999"/>
<path class="Note" d="M3693.71,583.965 C3698.28,583.965 3700.56,586.831 3700.56,592.564 C3700.56,596.593 3698.04,602.597 3693.01,610.577 C3688.98,617.007 3686.97,623.283 3686.97,629.403 C3686.97,632.889 3692.04,634.633 3702.19,634.633 C3710.56,634.633 3722.22,630.1 3737.17,621.036 C3722.14,635.524 3709.08,642.767 3698.01,642.767 C3688.01,642.767 3681.04,641.257 3677.09,638.235 C3676.08,637.46 3675.23,636.531 3674.53,635.446 C3670.66,640.172 3664.19,642.535 3655.12,642.535 C3646.45,642.535 3639.78,640.753 3635.14,637.189 C3632.04,634.787 3630.49,630.953 3630.49,625.684 C3630.49,617.317 3635.45,608.175 3645.36,598.259 C3655.98,587.645 3668.26,582.338 3682.2,582.338 C3685.69,582.338 3688.24,583.616 3689.87,586.173 C3691.19,584.701 3692.47,583.965 3693.71,583.965 M3672.9,630.217 C3672.83,629.597 3672.79,628.977 3672.79,628.357 C3672.79,628.047 3676.74,617.24 3684.64,595.934 C3685.42,593.843 3686.19,592.061 3686.97,590.589 C3683.94,589.969 3680.96,589.659 3678.02,589.659 C3672.59,589.659 3665.39,594.269 3656.4,603.488 C3648.35,611.7 3644.32,618.789 3644.32,624.755 C3644.32,631.34 3647.45,634.633 3653.73,634.633 C3661.32,634.633 3667.71,633.161 3672.9,630.217"/>
<path class="Note" d="M3693.71,494.673 C3698.28,494.673 3700.56,497.54 3700.56,503.273 C3700.56,507.301 3698.04,513.306 3693.01,521.286 C3688.98,527.716 3686.97,533.991 3686.97,540.112 C3686.97,543.598 3692.04,545.341 3702.19,545.341 C3710.56,545.341 3722.22,540.809 3737.17,531.745 C3722.14,546.232 3709.08,553.476 3698.01,553.476 C3688.01,553.476 3681.04,551.965 3677.09,548.944 C3676.08,548.169 3675.23,547.239 3674.53,546.155 C3670.66,550.881 3664.19,553.244 3655.12,553.244 C3646.45,553.244 3639.78,551.462 3635.14,547.898 C3632.04,545.496 3630.49,541.661 3630.49,536.393 C3630.49,528.026 3635.45,518.884 3645.36,508.967 C3655.98,498.353 3668.26,493.046 3682.2,493.046 C3685.69,493.046 3688.24,494.325 3689.87,496.881 C3691.19,495.409 3692.47,494.673 3693.71,494.673 M3672.9,540.925 C3672.83,540.305 3672.79,539.686 3672.79,539.066 C3672.79,538.756 3676.74,527.948 3684.64,506.643 C3685.42,504.551 3686.19,502.769 3686.97,501.297 C3683.94,500.677 3680.96,500.368 3678.02,500.368 C3672.59,500.368 3665.39,504.977 3656.4,514.197 C3648.35,522.409 3644.32,529.498 3644.32,535.463 C3644.32,542.049 3647.45,545.341 3653.73,545.341 C3661.32,545.341 3667.71,543.869 3672.9,540.925"/>
<path class="Note" d="M3649.43,821.118 C3645.63,821.118 3643.74,817.05 3643.74,808.915 L3643.74,774.866 C3643.74,771.612 3645.32,769.985 3648.5,769.985 C3649.89,769.985 3650.94,770.101 3651.64,770.333 C3654.12,765.995 3658.18,762.354 3663.84,759.41 C3671.74,755.303 3679.76,753.25 3687.9,753.25 C3694.33,753.25 3697.54,755.652 3697.54,760.455 C3697.54,764.484 3695.37,766.498 3691.03,766.498 C3687.93,766.498 3684.99,765.801 3682.2,764.407 C3679.72,763.167 3677.09,762.547 3674.3,762.547 C3669.5,762.547 3662.41,765.685 3653.03,771.96 C3654.35,778.236 3655.01,785.557 3655.01,793.924 C3655.01,812.053 3653.15,821.118 3649.43,821.118"/>
<path class="Note" d="M3700.8,670.351 C3711.25,663.765 3718.85,658.381 3723.57,654.197 C3732.25,646.527 3736.59,638.78 3736.59,630.955 C3736.59,621.813 3730.47,617.242 3718.23,617.242 C3705.37,617.242 3691.96,626.5 3678.02,645.017 C3668.57,657.567 3661.86,669.421 3657.91,680.577 C3662.79,677.401 3667.95,675.813 3673.37,675.813 C3678.48,675.813 3682.55,678.098 3685.57,682.669 C3687.66,685.845 3688.71,691.269 3688.71,698.939 C3688.71,705.834 3685.07,713.93 3677.79,723.227 C3673.29,728.96 3668.29,731.826 3662.79,731.826 C3655.82,731.826 3650.94,730.432 3648.15,727.643 C3644.2,723.691 3642.22,715.867 3642.22,704.168 C3642.22,684.49 3650.17,665.121 3666.05,646.063 C3683.94,624.602 3701.11,613.872 3717.53,613.872 C3730.24,613.872 3739.73,616.855 3746,622.82 C3749.64,626.307 3751.46,631.343 3751.46,637.928 C3751.46,645.288 3744.22,653.5 3729.73,662.565 C3722.14,667.368 3712.49,669.963 3700.8,670.351 M3656.4,685.458 C3654.47,691.966 3653.5,698.203 3653.5,704.168 C3653.5,718.346 3655.74,725.435 3660.24,725.435 C3664.5,725.435 3667.83,722.413 3670.23,716.37 C3673.02,709.552 3674.42,701.999 3674.42,693.709 C3674.42,686.349 3671.97,682.669 3667.09,682.669 C3663.69,682.669 3660.12,683.599 3656.4,685.458"/>
<path class="Clef" transform="matrix(2.3811,0,0,2.3811,203.482,2076.38)" d="M25.4,-25.1 C17.8,-25.1 11.7,-20.7 11.6,-20.7 C5.8,-16.4 3.5,-11.3 2.6,-7.8 C2.1,-6 1.9,-4.2 1.9,-2.5 C1.9,-0.1 2.3,2.1 3.2,4 C4.4,6.7 6.7,8.6 9.7,9.6 C10.9,10 12.2,10.2 13.5,10.2 C15.7,10.2 18,9.6 19.9,8.5 C23,6.8 24.9,3.2 24.9,-0.7 C24.9,-4.2 23.1,-7.4 20.1,-9.3 C18,-10.7 16,-11.1 14.3,-11.1 C13.1,-11.1 12,-10.9 11.1,-10.6 C10.1,-10.2 8.4,-9.2 7.6,-8.5 C7.9,-10.4 9.1,-13.3 10.2,-14.9 C11.3,-16.5 13.5,-18.5 15.2,-19.4 C17.7,-20.8 20.9,-21.4 24.4,-21.4 C34.6,-21.4 39.6,-13.2 39.6,3.6 C39.6,12.9 36.1,21.8 33.1,27.7 C29.8,34.3 25.4,40.6 21.5,44.1 C11.1,53.6 1.3,58.1 1.2,58.1 C1.2,58.1 -0.3,59 0.1,60.5 C0.4,61.5 1.3,61.7 1.9,61.7 C2,61.7 2.3,61.6 2.4,61.6 C2.5,61.6 13.9,56.9 23,49.8 C28.1,46.1 32.7,42.1 36.7,37.8 C40.3,33.9 43.4,29.7 45.9,25.5 C50.3,18 52.8,10.2 52.8,3.5 C52.8,-4.8 50.6,-11.7 46.5,-16.6 C41.8,-22.2 34.7,-25.1 25.4,-25.1 M56.8,-12.4 C56.8,-9.6 59,-7.4 61.6,-7.4 C64.2,-7.4 66.4,-9.6 66.4,-12.4 C66.4,-15.2 64.2,-17.5 61.6,-17.5 C59,-17.5 56.8,-15.2 56.8,-12.4 M56.8,12.3 C56.8,15.1 59,17.4 61.6,17.4 C64.2,17.4 66.4,15.1 66.4,12.3 C66.4,9.5 64.2,7.2 61.6,7.2 C59,7.2 56.8,9.5 56.8,12.3"/>
<path class="Clef" transform="matrix(2.3811,0,0,2.3811,203.482,1570.39)" d="M63.37,-5.89004 C62.14,-11.32 59.5,-15.14 58.72,-16.1801 C55.5301,-20.45 51.52,-23.3 46.8301,-24.65 C43.72,-25.54 40.72,-25.65 38.3,-25.47 C37.2601,-31.4801 36.2601,-37.3601 35.35,-42.8101 C40.79,-48.97 44.42,-54.77 46.69,-59.07 C50.1601,-65.65 51.3101,-70.2301 51.3601,-70.4301 C53.0801,-75.64 53.44,-83.34 52.34,-91.55 C51.3301,-99.1 49.24,-105.81 46.89,-109.06 C45.8601,-110.49 44.8101,-111.22 43.77,-111.22 C42.55,-111.22 40.04,-109.98 37.15,-107.21 C34.85,-105.01 31.5801,-101.12 29.02,-95.1101 C26.02,-88.05 25.8101,-78.5601 26.1601,-71.84 C26.54,-64.57 27.65,-58.8801 27.6601,-58.8301 C27.6801,-58.74 27.94,-57.24 28.39,-54.67 C28.1601,-54.44 27.92,-54.22 27.67,-53.9801 C26.6301,-52.9801 25.44,-51.84 24.0601,-50.4601 C23.2,-49.6 22.25,-48.69 21.25,-47.72 C12.79,-39.57 0,-27.25 0,-8.1 C0,-3.4 0.9,1.01992 2.68008,5.02998 C4.27002,8.62998 6.57002,11.91 9.5,14.78 C17.2301,22.33 27.82,25.5399 34.8801,25.38 C37.8301,25.31 40.4601,25.0699 42.85,24.6199 C44.6801,34.2199 45.82,41.25 45.8601,46.5899 C45.9,53.1 44.25,57.0699 40.35,59.8399 C37.92,61.5699 35.1101,62.5199 32.0101,62.6699 C29.42,62.7899 27.1601,62.3199 25.7301,61.91 L25.72,61.91 C25.72,61.91 25.4301,61.83 25.42,61.63 C25.4101,61.45 25.7601,61.4 25.77,61.4 L25.79,61.4 C27.7101,60.96 31.2801,59.73 33.64,56.43 C35.44,53.91 36.3101,49.2899 34.47,45.35 C33.3601,42.96 30.85,40.01 25.2301,39.56 C22.74,39.36 20.47,39.8699 18.47,41.0699 C16.6601,42.15 15.1601,43.7899 14.1101,45.7899 C11.65,50.4899 12.1101,56.2199 15.24,60.06 C18.2,63.68 22.82,65.9899 28.25,66.5699 C29.1,66.66 29.95,66.7 30.8,66.7 C31.5101,66.7 32.22,66.6699 32.92,66.61 C31.72,66.9399 30.64,67.4899 29.77,68.25 C28.2801,69.5399 27.44,71.38 27.44,73.41 C27.44,75.28 28.0601,76.65 29.55,78.0399 C28.4101,78.5 27.55,78.98 26.79,79.56 C25.25,80.73 24.34,82.46 24.34,84.1899 C24.34,87.45 27.3,89.63 31.72,89.63 C37.1301,89.63 40.9101,86.63 40.9101,82.35 C40.9101,80.1199 39.9101,78.18 38.0801,76.83 C41.0101,75.6199 42.37,73.9399 42.37,71.56 C42.39,70.05 41.69,68.61 40.49,67.6899 C39.2801,66.7399 37.62,66.2399 35.69,66.2399 L35.5101,66.2399 C38.2801,65.7 40.92,64.7 43.2101,63.28 C46.87,60.71 48.99,56.73 49.67,51.1 C50.2301,46.46 49.84,40.55 48.44,32.48 C48.0801,30.3899 47.54,27.36 46.8801,23.6 C52.6301,21.68 56.79,18.11 60.5601,12.26 C63.85,6.51992 64.8,0.419922 63.37,-5.89004 M32.39,87.5399 C30.19,87.5399 28.7301,86.1199 28.7301,84.01 C28.7301,82.11 29.65,80.5 31.32,79.4699 C31.6801,79.66 31.77,79.71 32.1101,79.88 C33.3,80.48 33.3,80.48 33.55,80.63 L33.5601,80.6399 C35.47,81.73 36.25,82.76 36.25,84.18 C36.24,86.0899 34.59,87.5399 32.39,87.5399 M38.3101,71.63 C38.3101,73.2699 37.7301,74.3399 36.1801,75.53 C34.74,74.78 34.35,74.56 33.9801,74.3399 L33.8801,74.28 C32.3301,73.3399 31.85,72.66 31.85,71.4 C31.85,69.6 33.2301,68.3399 35.19,68.3399 C37.17,68.35 38.3101,69.55 38.3101,71.63 M33.15,-83.8101 C34.9301,-89.55 37.67,-92.8 39.6601,-94.5301 C41.4101,-96.05 43.0601,-96.7601 43.9801,-96.7601 C44.12,-96.7601 44.24,-96.74 44.34,-96.7101 C44.8,-96.57 45.3301,-96 45.8,-95.1301 C48.1101,-90.84 47.37,-84.1301 46.0301,-79.69 C44.4,-74.29 41.4801,-68.6801 32.69,-59.0601 C32.52,-60.17 32.3601,-61.22 32.2101,-62.2 C30.95,-70.49 31.27,-77.7601 33.15,-83.8101 M29.15,20.31 C24.5101,19.0899 20.0801,16.5899 16.32,13.0899 C15.0101,11.86 13.14,9.68994 11.67,6.3 C10.3101,3.13994 9.65,-0.290039 9.7,-3.88008 C9.77002,-8.57002 11.0801,-13.39 13.59,-18.1801 C16.5101,-23.7601 21.07,-29.29 27.1301,-34.62 C28.5801,-35.9 29.95,-37.1801 31.24,-38.4601 C32,-34.2 32.8301,-29.5101 33.7101,-24.6301 C29.8601,-23.3601 25.1101,-20.2101 22,-14.5601 C18.47,-7.99004 18.6101,-2.47002 19.34,1.00996 C20.2801,5.46992 22.8101,9.22998 26.27,11.3199 C27.2,11.88 31.3301,14.01 33.17,13.43 C33.54,13.31 33.8101,13.0899 33.95,12.76 C34.4601,11.5899 33.44,10.95 31.8801,9.98994 C31.2801,9.61992 30.6101,9.2 29.8801,8.66992 C26.5601,6.17998 25.1101,1.72998 26.1801,-2.65 C26.7601,-5.05 28.04,-7.21006 29.8801,-8.91006 C31.55,-10.4601 33.59,-11.5601 35.97,-12.2 C38.0101,-0.960059 40.07,10.1899 41.7101,18.55 C41.84,19.2399 41.9801,19.91 42.1101,20.58 C37.7101,21.51 33.37,21.4199 29.15,20.31 M54.9,10.1 C53.7301,13.28 51.27,17.35 46.14,19.41 C46.07,18.9899 45.99,18.56 45.9101,18.13 C44.3601,9.36992 42.4301,-1.61006 40.47,-12.87 C50.82,-13.35 55.09,-5.91006 55.9801,-1.08008 C56.45,1.45 56.45,5.88994 54.9,10.1"/>
<path class="FiguredBass" d="M601.775,2393.49 C601.961,2393.49 602.363,2393.08 602.981,2392.28 C605.641,2388.51 609.352,2386.62 614.114,2386.62 C617.949,2386.62 621.567,2388.04 624.969,2390.89 C628.37,2393.73 631.185,2395.16 633.411,2395.16 C635.823,2395.16 638.112,2394.45 640.276,2393.02 C642.441,2391.6 644.157,2390.18 645.425,2388.76 C646.693,2387.33 647.513,2386.62 647.884,2386.62 C648.502,2386.62 649.059,2386.82 649.554,2387.22 C650.049,2387.63 650.296,2388.14 650.296,2388.76 C650.296,2389.19 649.028,2391.32 646.492,2395.16 C643.956,2398.99 641.142,2403.43 638.05,2408.47 C634.957,2413.51 632.143,2419.8 629.607,2427.35 C627.072,2434.89 625.804,2442.1 625.804,2448.96 C625.804,2451.62 626.082,2454.69 626.639,2458.15 C627.072,2460.81 627.072,2462.32 626.639,2462.7 C626.329,2463 625.804,2463.16 625.062,2463.16 C624.752,2463.16 623.314,2462.76 620.748,2461.95 C618.181,2461.15 615.722,2460.75 613.372,2460.75 C611.269,2460.75 608.842,2461.15 606.089,2461.95 C603.337,2462.76 601.806,2463.16 601.497,2463.16 C600.817,2463.16 600.26,2462.88 599.827,2462.32 C599.394,2461.77 599.332,2461.18 599.642,2460.56 C603.291,2451.84 607.728,2443.35 612.955,2435.1 C618.181,2426.84 624.721,2417.33 632.576,2406.57 C629.607,2408.18 626.608,2408.98 623.577,2408.98 C620.361,2408.98 617.114,2407.54 613.836,2404.67 C610.558,2401.79 607.868,2400.35 605.765,2400.35 C604.218,2400.35 602.873,2401.23 601.729,2403 C600.585,2404.76 600.013,2407.4 600.013,2410.93 L600.013,2422.34 C600.013,2423.89 599.301,2424.66 597.879,2424.66 C596.333,2424.66 595.56,2423.89 595.56,2422.34 L595.56,2388.94 C595.56,2387.39 596.333,2386.62 597.879,2386.62 C599.301,2386.62 600.013,2387.39 600.013,2388.94 L600.013,2391.07 C600.013,2391.57 600.136,2392 600.384,2392.37 C601.126,2393.12 601.59,2393.49 601.775,2393.49"/>
<path class="FiguredBass" d="M602.239,2492.37 C602.239,2492.37 603.724,2492.59 606.692,2493.02 C607.991,2493.21 609.445,2493.39 611.053,2493.58 C615.32,2494.07 619.433,2494.32 623.392,2494.32 C627.35,2494.32 631.525,2494.07 635.916,2493.58 C637.648,2493.39 639.163,2493.21 640.462,2493.02 L645.008,2492.37 C645.936,2492.37 646.631,2492.68 647.095,2493.3 C647.559,2493.92 647.513,2494.41 646.956,2494.78 C637.493,2504.25 624.165,2508.98 606.971,2508.98 C606.29,2508.98 605.687,2509.23 605.162,2509.72 C604.636,2510.21 604.373,2510.83 604.373,2511.58 L604.373,2526.14 C608.764,2521.81 614.083,2519.65 620.33,2519.65 C629.36,2519.65 636.334,2521.67 641.251,2525.72 C646.168,2529.77 648.626,2535.91 648.626,2544.14 C648.626,2551.13 645.843,2556.93 640.276,2561.53 C634.71,2566.14 628.061,2568.45 620.33,2568.45 C613.65,2568.45 607.852,2566.93 602.935,2563.9 C598.018,2560.87 595.56,2556.66 595.56,2551.28 C595.56,2548.56 596.549,2546.2 598.528,2544.19 C600.508,2542.18 602.873,2541.17 605.626,2541.17 C608.378,2541.17 610.713,2542.16 612.63,2544.14 C614.547,2546.12 615.506,2548.5 615.506,2551.28 C615.506,2552.52 614.485,2553.86 612.444,2555.32 C610.403,2556.77 609.383,2558.12 609.383,2559.35 C609.383,2563.06 613.032,2564.92 620.33,2564.92 C627.443,2564.92 630.999,2557.99 630.999,2544.14 C630.999,2530.78 627.443,2524.07 620.33,2524.01 C613.96,2524.01 609.507,2525.31 606.971,2527.9 C604.435,2530.5 602.858,2531.8 602.239,2531.8 C600.693,2531.8 599.951,2531.03 600.013,2529.48 L600.013,2494.78 C600.013,2494.1 600.229,2493.53 600.662,2493.07 C601.095,2492.6 601.621,2492.37 602.239,2492.37"/>
<path class="FiguredBass" d="M624.788,2655.92 C624.108,2656.66 623.211,2657.03 622.098,2657.03 C620.984,2657.03 620.072,2656.65 619.361,2655.87 C618.65,2655.1 618.294,2654.22 618.294,2653.23 L618.294,2639.96 L605.027,2639.96 C603.914,2639.96 603.002,2639.58 602.291,2638.8 C601.579,2638.03 601.224,2637.15 601.224,2636.16 C601.224,2635.17 601.579,2634.29 602.291,2633.51 C603.002,2632.74 603.914,2632.35 605.027,2632.35 L618.294,2632.35 L618.294,2619.09 C618.294,2618.1 618.65,2617.22 619.361,2616.44 C620.072,2615.67 620.984,2615.28 622.098,2615.28 C623.211,2615.28 624.123,2615.67 624.834,2616.44 C625.546,2617.22 625.901,2618.1 625.901,2619.09 L625.901,2632.35 L639.168,2632.35 C640.281,2632.35 641.194,2632.74 641.905,2633.51 C642.616,2634.29 642.972,2635.17 642.972,2636.16 C642.972,2637.15 642.616,2638.03 641.905,2638.8 C641.194,2639.58 640.281,2639.96 639.168,2639.96 L625.901,2639.96 L625.901,2653.23 C625.901,2654.22 625.53,2655.12 624.788,2655.92"/>
<path class="FiguredBass" d="M1819.98,2393.49 C1820.16,2393.49 1820.57,2393.08 1821.19,2392.28 C1823.84,2388.51 1827.56,2386.62 1832.32,2386.62 C1836.15,2386.62 1839.77,2388.04 1843.17,2390.89 C1846.57,2393.73 1849.39,2395.16 1851.61,2395.16 C1854.03,2395.16 1856.32,2394.45 1858.48,2393.02 C1860.64,2391.6 1862.36,2390.18 1863.63,2388.76 C1864.9,2387.33 1865.72,2386.62 1866.09,2386.62 C1866.71,2386.62 1867.26,2386.82 1867.76,2387.22 C1868.25,2387.63 1868.5,2388.14 1868.5,2388.76 C1868.5,2389.19 1867.23,2391.32 1864.7,2395.16 C1862.16,2398.99 1859.35,2403.43 1856.25,2408.47 C1853.16,2413.51 1850.35,2419.8 1847.81,2427.35 C1845.28,2434.89 1844.01,2442.1 1844.01,2448.96 C1844.01,2451.62 1844.29,2454.69 1844.84,2458.15 C1845.28,2460.81 1845.28,2462.32 1844.84,2462.7 C1844.53,2463 1844.01,2463.16 1843.27,2463.16 C1842.96,2463.16 1841.52,2462.76 1838.95,2461.95 C1836.38,2461.15 1833.93,2460.75 1831.58,2460.75 C1829.47,2460.75 1827.05,2461.15 1824.29,2461.95 C1821.54,2462.76 1820.01,2463.16 1819.7,2463.16 C1819.02,2463.16 1818.46,2462.88 1818.03,2462.32 C1817.6,2461.77 1817.54,2461.18 1817.85,2460.56 C1821.49,2451.84 1825.93,2443.35 1831.16,2435.1 C1836.38,2426.84 1842.92,2417.33 1850.78,2406.57 C1847.81,2408.18 1844.81,2408.98 1841.78,2408.98 C1838.56,2408.98 1835.32,2407.54 1832.04,2404.67 C1828.76,2401.79 1826.07,2400.35 1823.97,2400.35 C1822.42,2400.35 1821.08,2401.23 1819.93,2403 C1818.79,2404.76 1818.22,2407.4 1818.22,2410.93 L1818.22,2422.34 C1818.22,2423.89 1817.51,2424.66 1816.08,2424.66 C1814.54,2424.66 1813.76,2423.89 1813.76,2422.34 L1813.76,2388.94 C1813.76,2387.39 1814.54,2386.62 1816.08,2386.62 C1817.51,2386.62 1818.22,2387.39 1818.22,2388.94 L1818.22,2391.07 C1818.22,2391.57 1818.34,2392 1818.59,2392.37 C1819.33,2393.12 1819.79,2393.49 1819.98,2393.49"/>
<path class="FiguredBass" d="M1851.43,2524.66 C1856.38,2519.28 1858.85,2514.08 1858.85,2509.07 C1858.85,2504.99 1857.1,2501.77 1853.61,2499.42 C1850.11,2497.07 1845.92,2495.9 1841.04,2495.9 C1837.57,2495.9 1834.81,2496.98 1832.74,2499.14 C1830.66,2501.31 1829.63,2503.81 1829.63,2506.66 C1829.63,2510.12 1831.14,2512.75 1834.17,2514.54 L1851.43,2524.66 M1855.98,2527.25 C1864.39,2532.14 1868.59,2538.57 1868.59,2546.55 C1868.59,2552.55 1866.03,2557.7 1860.89,2562 C1855.76,2566.3 1848.74,2568.45 1839.83,2568.45 C1832.35,2568.45 1825.84,2566.47 1820.3,2562.51 C1814.77,2558.55 1812,2553.42 1812,2547.11 C1812,2544.76 1812.68,2542.38 1814.04,2539.96 C1815.4,2537.55 1816.67,2535.74 1817.85,2534.54 C1819.02,2533.33 1820.94,2531.46 1823.6,2528.92 C1817.41,2524.66 1814.32,2519.28 1814.32,2512.78 C1814.32,2507.21 1816.7,2502.42 1821.46,2498.4 C1826.23,2494.38 1832.75,2492.37 1841.04,2492.37 C1847.66,2492.37 1853.39,2493.87 1858.25,2496.87 C1863.1,2499.87 1865.53,2503.94 1865.53,2509.07 C1865.53,2514.57 1862.35,2520.64 1855.98,2527.25 M1828.14,2531.61 C1821.83,2537.12 1818.68,2542.28 1818.68,2547.11 C1818.68,2552.18 1820.78,2556.42 1824.99,2559.82 C1829.19,2563.22 1834.14,2564.92 1839.83,2564.92 C1843.79,2564.92 1846.96,2563.65 1849.34,2561.12 C1851.72,2558.58 1852.91,2555.64 1852.91,2552.3 C1852.91,2548.04 1851.15,2544.88 1847.63,2542.84 L1828.14,2531.61 "/>
<path class="FiguredBass" d="M1842.99,2655.92 C1842.31,2656.66 1841.41,2657.03 1840.3,2657.03 C1839.19,2657.03 1838.28,2656.65 1837.56,2655.87 C1836.85,2655.1 1836.5,2654.22 1836.5,2653.23 L1836.5,2639.96 L1823.23,2639.96 C1822.12,2639.96 1821.21,2639.58 1820.49,2638.8 C1819.78,2638.03 1819.43,2637.15 1819.43,2636.16 C1819.43,2635.17 1819.78,2634.29 1820.49,2633.51 C1821.21,2632.74 1822.12,2632.35 1823.23,2632.35 L1836.5,2632.35 L1836.5,2619.09 C1836.5,2618.1 1836.85,2617.22 1837.56,2616.44 C1838.28,2615.67 1839.19,2615.28 1840.3,2615.28 C1841.41,2615.28 1842.33,2615.67 1843.04,2616.44 C1843.75,2617.22 1844.1,2618.1 1844.1,2619.09 L1844.1,2632.35 L1857.37,2632.35 C1858.48,2632.35 1859.4,2632.74 1860.11,2633.51 C1860.82,2634.29 1861.18,2635.17 1861.18,2636.16 C1861.18,2637.15 1860.82,2638.03 1860.11,2638.8 C1859.4,2639.58 1858.48,2639.96 1857.37,2639.96 L1844.1,2639.96 L1844.1,2653.23 C1844.1,2654.22 1843.73,2655.12 1842.99,2655.92"/>
<path class="FiguredBass" d="M3072.72,2390.15 C3068.15,2390.15 3065.1,2391.99 3063.59,2395.67 C3062.07,2399.35 3061.31,2404.56 3061.31,2411.3 L3061.31,2422.25 C3064.53,2420.95 3067.31,2420.27 3069.66,2420.21 C3077.7,2420.21 3084.03,2421.98 3088.63,2425.54 C3093.24,2429.1 3095.55,2434.38 3095.55,2441.4 C3095.55,2448.42 3093.21,2453.73 3088.54,2457.31 C3083.87,2460.9 3077.58,2462.7 3069.66,2462.7 C3061.56,2462.7 3055.22,2458.94 3050.64,2451.42 C3046.07,2443.91 3043.78,2434.99 3043.78,2424.66 C3043.78,2414.39 3046.44,2405.49 3051.76,2397.94 C3057.08,2390.39 3064.06,2386.62 3072.72,2386.62 C3078.41,2386.62 3083.33,2388.06 3087.47,2390.94 C3091.62,2393.81 3093.69,2397.6 3093.69,2402.3 C3093.69,2405.02 3092.7,2407.37 3090.72,2409.35 C3088.74,2411.33 3086.38,2412.32 3083.62,2412.32 C3080.87,2412.32 3078.51,2411.33 3076.53,2409.35 C3074.55,2407.37 3073.56,2405.02 3073.56,2402.3 C3073.56,2399.64 3074.55,2397.29 3076.53,2395.25 C3077.21,2394.45 3078.17,2393.76 3079.4,2393.21 C3079.09,2392.4 3078.48,2391.79 3077.55,2391.35 C3076.19,2390.55 3074.58,2390.15 3072.72,2390.15 M3077.27,2428.09 C3076.16,2425.18 3073.71,2423.73 3069.94,2423.73 C3066.17,2423.73 3063.83,2425.18 3062.94,2428.09 C3062.04,2431 3061.59,2435.42 3061.59,2441.36 C3061.59,2448.35 3062.04,2453.05 3062.94,2455.46 C3063.83,2457.87 3066.17,2459.08 3069.94,2459.08 C3073.71,2459.08 3076.16,2457.62 3077.27,2454.72 C3078.38,2451.81 3078.94,2447.37 3078.94,2441.4 C3078.94,2435.44 3078.38,2431 3077.27,2428.09"/>
<path class="FiguredBass" d="M3050.09,2492.37 L3054.54,2493.02 C3055.72,2493.21 3057.17,2493.39 3058.9,2493.58 C3063.17,2494.07 3067.28,2494.32 3071.24,2494.32 C3075.2,2494.32 3079.37,2494.07 3083.76,2493.58 C3085.5,2493.39 3087.01,2493.21 3088.31,2493.02 L3092.86,2492.37 C3093.78,2492.37 3094.49,2492.68 3094.99,2493.3 C3095.36,2493.79 3095.3,2494.29 3094.8,2494.78 C3085.16,2504.25 3071.83,2508.98 3054.82,2508.98 C3054.14,2508.98 3053.53,2509.23 3053.01,2509.72 C3052.48,2510.21 3052.22,2510.83 3052.22,2511.58 L3052.22,2523.36 C3056.61,2519.03 3061.93,2516.86 3068.18,2516.86 C3076.9,2516.86 3083.7,2518.9 3088.59,2522.99 C3093.91,2518.97 3096.69,2513.83 3096.94,2507.59 C3097,2505.61 3097.65,2504 3098.89,2502.76 C3100.25,2501.52 3101.89,2500.91 3103.8,2500.91 C3105.72,2500.91 3107.34,2501.56 3108.67,2502.85 C3110,2504.15 3110.67,2505.73 3110.67,2507.59 C3110.67,2517.17 3105.01,2524.44 3093.69,2529.39 C3095.55,2533.04 3096.47,2537.49 3096.47,2542.75 C3096.47,2549.74 3093.69,2555.77 3088.12,2560.84 C3082.56,2565.91 3075.91,2568.45 3068.18,2568.45 C3061.5,2568.45 3055.7,2566.93 3050.78,2563.9 C3045.87,2560.87 3043.41,2556.66 3043.41,2551.28 C3043.41,2548.56 3044.4,2546.2 3046.38,2544.19 C3048.36,2542.18 3050.72,2541.17 3053.47,2541.17 C3056.23,2541.17 3058.56,2542.16 3060.48,2544.14 C3062.39,2546.12 3063.35,2548.5 3063.35,2551.28 C3063.35,2552.52 3062.33,2553.86 3060.29,2555.32 C3058.25,2556.77 3057.23,2558.12 3057.23,2559.35 C3057.23,2563.06 3060.88,2564.92 3068.18,2564.92 C3075.29,2564.92 3078.85,2557.53 3078.85,2542.75 C3078.85,2539.47 3078.66,2536.59 3078.29,2534.12 C3070.81,2535.67 3061.44,2536.87 3050.18,2537.74 C3048.63,2537.86 3047.86,2537.09 3047.86,2535.42 C3047.86,2534.06 3048.63,2533.32 3050.18,2533.19 C3061.56,2532.26 3070.53,2530.78 3077.08,2528.74 C3075.35,2523.79 3072.38,2521.29 3068.18,2521.22 C3061.81,2521.22 3057.35,2522.52 3054.82,2525.12 C3052.28,2527.72 3050.71,2529.02 3050.09,2529.02 C3048.6,2529.02 3047.86,2528.24 3047.86,2526.7 L3047.86,2494.78 C3047.86,2494.16 3048.08,2493.61 3048.51,2493.11 C3049,2492.62 3049.53,2492.37 3050.09,2492.37"/>
<polyline class="FretDiagram" stroke="#fc02ff" stroke-width="4.76" stroke-linejoin="bevel" points="521.257,227.452 734.365,227.452"/>
<polyline class="FretDiagram" stroke="#fc02ff" stroke-width="4.76" stroke-linejoin="bevel" points="523.638,227.452 523.638,441.751"/>
<polyline class="FretDiagram" stroke="#fc02ff" stroke-width="4.76" stroke-linejoin="bevel" points="565.307,227.452 565.307,441.751"/>
<polyline class="FretDiagram" stroke="#fc02ff" stroke-width="4.76" stroke-linejoin="bevel" points="606.976,227.452 606.976,441.751"/>
<polyline class="FretDiagram" stroke="#fc02ff" stroke-width="4.76" stroke-linejoin="bevel" points="648.646,227.452 648.646,441.751"/>
<polyline class="FretDiagram" stroke="#fc02ff" stroke-width="4.76" stroke-linejoin="bevel" points="690.315,227.452 690.315,441.751"/>
<polyline class="FretDiagram" stroke="#fc02ff" stroke-width="4.76" stroke-linejoin="bevel" points="731.984,227.452 731.984,441.751"/>
<polyline class="FretDiagram" stroke="#fc02ff" stroke-width="4.76" stroke-linejoin="bevel" points="523.638,275.074 731.984,275.074"/>
<polyline class="FretDiagram" stroke="#fc02ff" stroke-width="4.76" stroke-linejoin="bevel" points="523.638,322.696 731.984,322.696"/>
<polyline class="FretDiagram" stroke="#fc02ff" stroke-width="4.76" stroke-linejoin="bevel" points="523.638,370.318 731.984,370.318"/>
<polyline class="FretDiagram" stroke="#fc02ff" stroke-width="4.76" stroke-linejoin="bevel" points="523.638,417.94 731.984,417.94"/>
<path class="FretDiagram" fill="#fc02ff" fill-rule="evenodd" d="M621.561,346.507 C621.561,354.562 615.031,361.091 606.976,361.091 C598.922,361.091 592.392,354.562 592.392,346.507 C592.392,338.452 598.922,331.923 606.976,331.923 C615.031,331.923 621.561,338.452 621.561,346.507"/>
<path class="FretDiagram" fill="#fc02ff" fill-rule="evenodd" d="M663.23,298.885 C663.23,306.94 656.7,313.469 648.646,313.469 C640.591,313.469 634.061,306.94 634.061,298.885 C634.061,290.83 640.591,284.301 648.646,284.301 C656.7,284.301 663.23,290.83 663.23,298.885"/>
<path class="FretDiagram" fill="#fc02ff" fill-rule="evenodd" d="M704.899,346.507 C704.899,354.562 698.37,361.091 690.315,361.091 C682.26,361.091 675.731,354.562 675.731,346.507 C675.731,338.452 682.26,331.923 690.315,331.923 C698.37,331.923 704.899,338.452 704.899,346.507"/>
<polyline class="FretDiagram" fill="none" stroke="#fc02ff" stroke-width="6.86" stroke-linecap="round" stroke-linejoin="bevel" points="506.97,163.162 540.306,196.498"/>
<polyline class="FretDiagram" fill="none" stroke="#fc02ff" stroke-width="6.86" stroke-linecap="round" stroke-linejoin="bevel" points="506.97,196.498 540.306,163.162"/>
<path class="FretDiagram" fill="none" stroke="#fc02ff" stroke-width="6.86" stroke-linecap="round" stroke-linejoin="bevel" fill-rule="evenodd" d="M581.975,179.83 C581.975,189.035 574.512,196.498 565.307,196.498 C556.102,196.498 548.639,189.035 548.639,179.83 C548.639,170.625 556.102,163.162 565.307,163.162 C574.512,163.162 581.975,170.625 581.975,179.83"/>
<path class="FretDiagram" fill="none" stroke="#fc02ff" stroke-width="6.86" stroke-linecap="round" stroke-linejoin="bevel" fill-rule="evenodd" d="M748.652,179.83 C748.652,189.035 741.19,196.498 731.984,196.498 C722.779,196.498 715.317,189.035 715.317,179.83 C715.317,170.625 722.779,163.162 731.984,163.162 C741.19,163.162 748.652,170.625 748.652,179.83"/>
<polyline class="FretDiagram" fill="none" stroke="#fc02ff" stroke-width="29.17" stroke-linecap="round" stroke-linejoin="bevel" points="565.307,251.263 731.984,251.263"/>
<polyline class="FretDiagram" fill="#fc02ff" stroke="#fc02ff" stroke-width="4.76" stroke-linejoin="bevel" points="1739.46,227.452 1952.57,227.452"/>
<polyline class="FretDiagram" fill="#fc02ff" stroke="#fc02ff" stroke-width="4.76" stroke-linejoin="bevel" points="1741.84,215.546 1741.84,441.751"/>
<polyline class="FretDiagram" fill="#fc02ff" stroke="#fc02ff" stroke-width="4.76" stroke-linejoin="bevel" points="1783.51,215.546 1783.51,441.751"/>
<polyline class="FretDiagram" fill="#fc02ff" stroke="#fc02ff" stroke-width="4.76" stroke-linejoin="bevel" points="1825.18,215.546 1825.18,441.751"/>
<polyline class="FretDiagram" fill="#fc02ff" stroke="#fc02ff" stroke-width="4.76" stroke-linejoin="bevel" points="1866.85,215.546 1866.85,441.751"/>
<polyline class="FretDiagram" fill="#fc02ff" stroke="#fc02ff" stroke-width="4.76" stroke-linejoin="bevel" points="1908.52,215.546 1908.52,441.751"/>
<polyline class="FretDiagram" fill="#fc02ff" stroke="#fc02ff" stroke-width="4.76" stroke-linejoin="bevel" points="1950.19,215.546 1950.19,441.751"/>
<polyline class="FretDiagram" fill="#fc02ff" stroke="#fc02ff" stroke-width="4.76" stroke-linejoin="bevel" points="1741.84,275.074 1950.19,275.074"/>
<polyline class="FretDiagram" fill="#fc02ff" stroke="#fc02ff" stroke-width="4.76" stroke-linejoin="bevel" points="1741.84,322.696 1950.19,322.696"/>
<polyline class="FretDiagram" fill="#fc02ff" stroke="#fc02ff" stroke-width="4.76" stroke-linejoin="bevel" points="1741.84,370.318 1950.19,370.318"/>
<polyline class="FretDiagram" fill="#fc02ff" stroke="#fc02ff" stroke-width="4.76" stroke-linejoin="bevel" points="1741.84,417.94 1950.19,417.94"/>
<path class="FretDiagram" fill="#fc02ff" fill-rule="evenodd" d="M1798.09,251.263 C1798.09,259.318 1791.57,265.847 1783.51,265.847 C1775.46,265.847 1768.93,259.318 1768.93,251.263 C1768.93,243.208 1775.46,236.679 1783.51,236.679 C1791.57,236.679 1798.09,243.208 1798.09,251.263"/>
<path class="FretDiagram" fill="#fc02ff" fill-rule="evenodd" d="M1881.43,298.885 C1881.43,306.94 1874.9,313.469 1866.85,313.469 C1858.79,313.469 1852.27,306.94 1852.27,298.885 C1852.27,290.83 1858.79,284.301 1866.85,284.301 C1874.9,284.301 1881.43,290.83 1881.43,298.885"/>
<path class="FretDiagram" fill="#fc02ff" fill-rule="evenodd" d="M1923.1,346.507 C1923.1,354.562 1916.57,361.091 1908.52,361.091 C1900.46,361.091 1893.93,354.562 1893.93,346.507 C1893.93,338.452 1900.46,331.923 1908.52,331.923 C1916.57,331.923 1923.1,338.452 1923.1,346.507"/>
<polyline class="FretDiagram" fill="none" stroke="#fc02ff" stroke-width="6.86" stroke-linecap="round" stroke-linejoin="bevel" points="1725.17,163.162 1758.51,196.498"/>
<polyline class="FretDiagram" fill="none" stroke="#fc02ff" stroke-width="6.86" stroke-linecap="round" stroke-linejoin="bevel" points="1725.17,196.498 1758.51,163.162"/>
<polyline class="FretDiagram" fill="none" stroke="#fc02ff" stroke-width="6.86" stroke-linecap="round" stroke-linejoin="bevel" points="1808.51,163.162 1841.85,196.498"/>
<polyline class="FretDiagram" fill="none" stroke="#fc02ff" stroke-width="6.86" stroke-linecap="round" stroke-linejoin="bevel" points="1808.51,196.498 1841.85,163.162"/>
<polyline class="FretDiagram" fill="none" stroke="#fc02ff" stroke-width="6.86" stroke-linecap="round" stroke-linejoin="bevel" points="1933.52,163.162 1966.86,196.498"/>
<polyline class="FretDiagram" fill="none" stroke="#fc02ff" stroke-width="6.86" stroke-linecap="round" stroke-linejoin="bevel" points="1933.52,196.498 1966.86,163.162"/>
<path class="FretDiagram" fill="#fc02ff" d="M1677.12,240.529 C1677.57,224.949 1684.98,217.159 1699.35,217.159 C1705.75,217.159 1710.94,218.996 1714.93,222.669 C1718.92,226.343 1720.92,231.093 1720.92,236.919 C1720.92,245.279 1716.17,252.056 1706.67,257.249 L1697.17,262.379 C1693.05,264.596 1690.11,266.749 1688.33,268.839 C1686.56,270.929 1685.45,273.399 1685.01,276.249 L1720.44,276.249 L1720.44,284.514 L1675.6,284.514 C1675.98,277.104 1677.47,271.389 1680.07,267.367 C1682.66,263.345 1687.48,259.339 1694.51,255.349 L1703.25,250.409 C1709.33,246.926 1712.37,242.493 1712.37,237.109 C1712.37,233.499 1711.1,230.491 1708.57,228.084 C1706.03,225.678 1702.87,224.474 1699.07,224.474 C1690.64,224.474 1686.12,229.826 1685.48,240.529 L1677.12,240.529 "/>
<polyline class="FretDiagram" fill="#fc02ff" stroke="#fc0107" stroke-width="11.91" stroke-linejoin="bevel" points="2969.1,227.452 3182.21,227.452"/>
<polyline class="FretDiagram" fill="#fc02ff" stroke="#fc0107" stroke-width="4.76" stroke-linejoin="bevel" points="2971.49,227.452 2971.49,441.751"/>
<polyline class="FretDiagram" fill="#fc02ff" stroke="#fc0107" stroke-width="4.76" stroke-linejoin="bevel" points="3013.15,227.452 3013.15,441.751"/>
<polyline class="FretDiagram" fill="#fc02ff" stroke="#fc0107" stroke-width="4.76" stroke-linejoin="bevel" points="3054.82,227.452 3054.82,441.751"/>
<polyline class="FretDiagram" fill="#fc02ff" stroke="#fc0107" stroke-width="4.76" stroke-linejoin="bevel" points="3096.49,227.452 3096.49,441.751"/>
<polyline class="FretDiagram" fill="#fc02ff" stroke="#fc0107" stroke-width="4.76" stroke-linejoin="bevel" points="3138.16,227.452 3138.16,441.751"/>
<polyline class="FretDiagram" fill="#fc02ff" stroke="#fc0107" stroke-width="4.76" stroke-linejoin="bevel" points="3179.83,227.452 3179.83,441.751"/>
<polyline class="FretDiagram" fill="#fc02ff" stroke="#fc0107" stroke-width="4.76" stroke-linejoin="bevel" points="2971.49,275.074 3179.83,275.074"/>
<polyline class="FretDiagram" fill="#fc02ff" stroke="#fc0107" stroke-width="4.76" stroke-linejoin="bevel" points="2971.49,322.696 3179.83,322.696"/>
<polyline class="FretDiagram" fill="#fc02ff" stroke="#fc0107" stroke-width="4.76" stroke-linejoin="bevel" points="2971.49,370.318 3179.83,370.318"/>
<polyline class="FretDiagram" fill="#fc02ff" stroke="#fc0107" stroke-width="4.76" stroke-linejoin="bevel" points="2971.49,417.94 3179.83,417.94"/>
<path class="FretDiagram" fill="#fc0107" fill-rule="evenodd" d="M3069.41,251.263 C3069.41,259.318 3062.88,265.847 3054.82,265.847 C3046.77,265.847 3040.24,259.318 3040.24,251.263 C3040.24,243.208 3046.77,236.679 3054.82,236.679 C3062.88,236.679 3069.41,243.208 3069.41,251.263"/>
<path class="FretDiagram" fill="#fc0107" fill-rule="evenodd" d="M3111.08,346.507 C3111.08,354.562 3104.55,361.091 3096.49,361.091 C3088.44,361.091 3081.91,354.562 3081.91,346.507 C3081.91,338.452 3088.44,331.923 3096.49,331.923 C3104.55,331.923 3111.08,338.452 3111.08,346.507"/>
<path class="FretDiagram" fill="#fc0107" fill-rule="evenodd" d="M3194.42,298.885 C3194.42,306.94 3187.89,313.469 3179.83,313.469 C3171.78,313.469 3165.25,306.94 3165.25,298.885 C3165.25,290.83 3171.78,284.301 3179.83,284.301 C3187.89,284.301 3194.42,290.83 3194.42,298.885"/>
<polyline class="FretDiagram" fill="none" stroke="#fc0107" stroke-width="6.86" stroke-linecap="round" stroke-linejoin="bevel" points="2954.82,163.162 2988.15,196.498"/>
<polyline class="FretDiagram" fill="none" stroke="#fc0107" stroke-width="6.86" stroke-linecap="round" stroke-linejoin="bevel" points="2954.82,196.498 2988.15,163.162"/>
<polyline class="FretDiagram" fill="none" stroke="#fc0107" stroke-width="6.86" stroke-linecap="round" stroke-linejoin="bevel" points="2996.49,163.162 3029.82,196.498"/>
<polyline class="FretDiagram" fill="none" stroke="#fc0107" stroke-width="6.86" stroke-linecap="round" stroke-linejoin="bevel" points="2996.49,196.498 3029.82,163.162"/>
<path class="FretDiagram" fill="none" stroke="#fc0107" stroke-width="6.86" stroke-linecap="round" stroke-linejoin="bevel" fill-rule="evenodd" d="M3154.83,179.83 C3154.83,189.035 3147.37,196.498 3138.16,196.498 C3128.96,196.498 3121.49,189.035 3121.49,179.83 C3121.49,170.625 3128.96,163.162 3138.16,163.162 C3147.37,163.162 3154.83,170.625 3154.83,179.83"/>
<path class="Bracket" transform="matrix(8.6315,0,0,8.6315,76.1285,2254.96)" d="M0.92002,-50 C2.69004,-51.88 6.2,-55.8 6.2,-63 C6.2,-72.1 2.25996,-81.32 2.25996,-86.97 C2.25996,-93.06 5.84004,-98.84 5.95,-99 C6.05996,-99.16 6.05,-99.39 5.94004,-99.46 C5.82998,-99.53 5.62002,-99.47 5.49004,-99.32 C5.35996,-99.17 0,-93.75 0,-85.6 C0,-76.75 3.5,-70.58 3.5,-59.07 C3.5,-56.89 2.55996,-53.36 0.1,-50.33 C-0.0799805,-50.17 -0.1,-49.89 0.0599609,-49.7 L0.0700195,-49.69 L0.1,-49.66 C2.55996,-46.63 3.5,-43.1 3.5,-40.92 C3.5,-29.4 0,-23.24 0,-14.39 C0,-6.25 5.35996,-0.8 5.49004,-0.659961 C5.62002,-0.52002 5.8,-0.42998 5.94004,-0.52002 C6.07998,-0.609961 6.07998,-0.77998 5.95,-0.97998 C5.82002,-1.17998 2.25996,-6.92002 2.25996,-13.01 C2.25996,-18.66 6.2,-27.9 6.2,-37 C6.2,-44.3 2.69004,-48.12 0.92002,-50"/>
</svg>
