<?xml version="1.0" encoding="UTF-8" standalone="no"?>
<svg width="850.392px" height="566.928px" viewBox="0 0 850.392 566.928"
 xmlns="http://www.w3.org/2000/svg" xmlns:xlink="http://www.w3.org/1999/xlink" version="1.2" baseProfile="tiny">
<title>La Mineur (27)</title>
<desc>Generated by MuseScore 3.6.2</desc>
<polyline class="StaffLines" fill="none" stroke="#000000" stroke-width="1.25" stroke-linejoin="bevel" points="29.3071,107.717 836.219,107.717"/>
<polyline class="StaffLines" fill="none" stroke="#000000" stroke-width="1.25" stroke-linejoin="bevel" points="29.3071,119.055 836.219,119.055"/>
<polyline class="StaffLines" fill="none" stroke="#000000" stroke-width="1.25" stroke-linejoin="bevel" points="29.3071,130.394 836.219,130.394"/>
<polyline class="StaffLines" fill="none" stroke="#000000" stroke-width="1.25" stroke-linejoin="bevel" points="29.3071,141.732 836.219,141.732"/>
<polyline class="StaffLines" fill="none" stroke="#000000" stroke-width="1.25" stroke-linejoin="bevel" points="29.3071,153.071 836.219,153.071"/>
<polyline class="StaffLines" fill="none" stroke="#000000" stroke-width="1.25" stroke-linejoin="bevel" points="29.3071,260.787 836.219,260.787"/>
<polyline class="StaffLines" fill="none" stroke="#000000" stroke-width="1.25" stroke-linejoin="bevel" points="29.3071,272.125 836.219,272.125"/>
<polyline class="StaffLines" fill="none" stroke="#000000" stroke-width="1.25" stroke-linejoin="bevel" points="29.3071,283.464 836.219,283.464"/>
<polyline class="StaffLines" fill="none" stroke="#000000" stroke-width="1.25" stroke-linejoin="bevel" points="29.3071,294.803 836.219,294.803"/>
<polyline class="StaffLines" fill="none" stroke="#000000" stroke-width="1.25" stroke-linejoin="bevel" points="29.3071,306.141 836.219,306.141"/>
<polyline class="StaffLines" fill="none" stroke="#000000" stroke-width="1.25" stroke-linejoin="bevel" points="29.3071,413.857 836.219,413.857"/>
<polyline class="StaffLines" fill="none" stroke="#000000" stroke-width="1.25" stroke-linejoin="bevel" points="29.3071,425.196 836.219,425.196"/>
<polyline class="StaffLines" fill="none" stroke="#000000" stroke-width="1.25" stroke-linejoin="bevel" points="29.3071,436.534 836.219,436.534"/>
<polyline class="StaffLines" fill="none" stroke="#000000" stroke-width="1.25" stroke-linejoin="bevel" points="29.3071,447.873 836.219,447.873"/>
<polyline class="StaffLines" fill="none" stroke="#000000" stroke-width="1.25" stroke-linejoin="bevel" points="29.3071,459.211 836.219,459.211"/>
<polyline class="BarLine" fill="none" stroke="#000000" stroke-width="2.04" stroke-linejoin="bevel" points="30.3276,107.093 30.3276,153.695"/>
<polyline class="BarLine" fill="none" stroke="#000000" stroke-width="2.04" stroke-linejoin="bevel" points="266.29,107.093 266.29,153.695"/>
<polyline class="BarLine" fill="none" stroke="#000000" stroke-width="2.04" stroke-linejoin="bevel" points="454.142,107.093 454.142,153.695"/>
<polyline class="BarLine" fill="none" stroke="#000000" stroke-width="2.04" stroke-linejoin="bevel" points="641.993,107.093 641.993,153.695"/>
<polyline class="BarLine" fill="none" stroke="#000000" stroke-width="2.04" stroke-linejoin="bevel" points="825.164,107.093 825.164,153.695"/>
<polyline class="BarLine" fill="none" stroke="#000000" stroke-width="6.24" stroke-linejoin="bevel" points="833.101,107.093 833.101,153.695"/>
<polyline class="BarLine" fill="none" stroke="#000000" stroke-width="2.04" stroke-linejoin="bevel" points="30.3276,260.163 30.3276,306.765"/>
<polyline class="BarLine" fill="none" stroke="#000000" stroke-width="2.04" stroke-linejoin="bevel" points="185.193,260.163 185.193,306.765"/>
<polyline class="BarLine" fill="none" stroke="#000000" stroke-width="2.04" stroke-linejoin="bevel" points="292.165,260.163 292.165,306.765"/>
<polyline class="BarLine" fill="none" stroke="#000000" stroke-width="2.04" stroke-linejoin="bevel" points="399.137,260.163 399.137,306.765"/>
<polyline class="BarLine" fill="none" stroke="#000000" stroke-width="2.04" stroke-linejoin="bevel" points="506.109,260.163 506.109,306.765"/>
<polyline class="BarLine" fill="none" stroke="#000000" stroke-width="2.04" stroke-linejoin="bevel" points="616.118,260.163 616.118,306.765"/>
<polyline class="BarLine" fill="none" stroke="#000000" stroke-width="2.04" stroke-linejoin="bevel" points="723.09,260.163 723.09,306.765"/>
<polyline class="BarLine" fill="none" stroke="#000000" stroke-width="2.04" stroke-linejoin="bevel" points="825.164,260.163 825.164,306.765"/>
<polyline class="BarLine" fill="none" stroke="#000000" stroke-width="6.24" stroke-linejoin="bevel" points="833.101,260.163 833.101,306.765"/>
<polyline class="BarLine" fill="none" stroke="#000000" stroke-width="2.04" stroke-linejoin="bevel" points="30.3276,413.233 30.3276,459.835"/>
<polyline class="BarLine" fill="none" stroke="#000000" stroke-width="2.04" stroke-linejoin="bevel" points="160.83,413.233 160.83,459.835"/>
<polyline class="BarLine" fill="none" stroke="#000000" stroke-width="2.04" stroke-linejoin="bevel" points="243.222,413.233 243.222,459.835"/>
<polyline class="BarLine" fill="none" stroke="#000000" stroke-width="2.04" stroke-linejoin="bevel" points="329.74,413.233 329.74,459.835"/>
<polyline class="BarLine" fill="none" stroke="#000000" stroke-width="2.04" stroke-linejoin="bevel" points="416.259,413.233 416.259,459.835"/>
<polyline class="BarLine" fill="none" stroke="#000000" stroke-width="2.04" stroke-linejoin="bevel" points="498.65,413.233 498.65,459.835"/>
<polyline class="BarLine" fill="none" stroke="#000000" stroke-width="2.04" stroke-linejoin="bevel" points="581.856,413.233 581.856,459.835"/>
<polyline class="BarLine" fill="none" stroke="#000000" stroke-width="2.04" stroke-linejoin="bevel" points="665.061,413.233 665.061,459.835"/>
<polyline class="BarLine" fill="none" stroke="#000000" stroke-width="2.04" stroke-linejoin="bevel" points="747.453,413.233 747.453,459.835"/>
<polyline class="BarLine" fill="none" stroke="#000000" stroke-width="2.04" stroke-linejoin="bevel" points="825.164,413.233 825.164,459.835"/>
<polyline class="BarLine" fill="none" stroke="#000000" stroke-width="6.24" stroke-linejoin="bevel" points="833.101,413.233 833.101,459.835"/>
<path class="Accidental" transform="matrix(0.453543,0,0,0.453543,515.905,306.141)" d="M23.3,-10.6 C23.9,-10.7 24.4,-11.4 24.4,-12 L24.4,-17.9 C24.4,-18.7 23.8,-19.3 23,-19.3 L22.8,-19.3 L19.5,-18.6 L19.5,-33.5 L16.7,-33.5 L16.7,-18 L7.8,-16.2 L7.8,-30.3 L5,-30.3 L5,-15.6 L1.1,-14.8 C0.5,-14.7 0,-14 0,-13.4 L0,-13.2 L0,-7.4 L0,-7.6 C0,-6.8 0.6,-6.2 1.4,-6.2 L1.7,-6.2 L5,-6.9 L5,9.6 L1.1,10.4 C0.5,10.5 0,11.2 0,11.8 L0,17.6 C0,18.4 0.6,19 1.4,19 L1.7,19 L5,18.3 L5,33.2 L7.8,33.2 L7.8,17.7 L16.7,15.9 L16.7,30 L19.5,30 L19.5,15.3 L23.3,14.6 C23.9,14.5 24.4,13.8 24.4,13.2 L24.4,7.3 C24.4,6.5 23.8,5.9 23,5.9 L22.8,5.9 L19.5,6.6 L19.5,-9.9 L23.3,-10.6 M7.8,9.1 L7.8,-7.5 L16.7,-9.3 L16.7,7.2 L7.8,9.1 "/>
<path class="Accidental" transform="matrix(0.453543,0,0,0.453543,255.197,425.196)" d="M23.3,-10.6 C23.9,-10.7 24.4,-11.4 24.4,-12 L24.4,-17.9 C24.4,-18.7 23.8,-19.3 23,-19.3 L22.8,-19.3 L19.5,-18.6 L19.5,-33.5 L16.7,-33.5 L16.7,-18 L7.8,-16.2 L7.8,-30.3 L5,-30.3 L5,-15.6 L1.1,-14.8 C0.5,-14.7 0,-14 0,-13.4 L0,-13.2 L0,-7.4 L0,-7.6 C0,-6.8 0.6,-6.2 1.4,-6.2 L1.7,-6.2 L5,-6.9 L5,9.6 L1.1,10.4 C0.5,10.5 0,11.2 0,11.8 L0,17.6 C0,18.4 0.6,19 1.4,19 L1.7,19 L5,18.3 L5,33.2 L7.8,33.2 L7.8,17.7 L16.7,15.9 L16.7,30 L19.5,30 L19.5,15.3 L23.3,14.6 C23.9,14.5 24.4,13.8 24.4,13.2 L24.4,7.3 C24.4,6.5 23.8,5.9 23,5.9 L22.8,5.9 L19.5,6.6 L19.5,-9.9 L23.3,-10.6 M7.8,9.1 L7.8,-7.5 L16.7,-9.3 L16.7,7.2 L7.8,9.1 "/>
<path class="Accidental" transform="matrix(0.453543,0,0,0.453543,341.715,419.526)" d="M23.3,-10.6 C23.9,-10.7 24.4,-11.4 24.4,-12 L24.4,-17.9 C24.4,-18.7 23.8,-19.3 23,-19.3 L22.8,-19.3 L19.5,-18.6 L19.5,-33.5 L16.7,-33.5 L16.7,-18 L7.8,-16.2 L7.8,-30.3 L5,-30.3 L5,-15.6 L1.1,-14.8 C0.5,-14.7 0,-14 0,-13.4 L0,-13.2 L0,-7.4 L0,-7.6 C0,-6.8 0.6,-6.2 1.4,-6.2 L1.7,-6.2 L5,-6.9 L5,9.6 L1.1,10.4 C0.5,10.5 0,11.2 0,11.8 L0,17.6 C0,18.4 0.6,19 1.4,19 L1.7,19 L5,18.3 L5,33.2 L7.8,33.2 L7.8,17.7 L16.7,15.9 L16.7,30 L19.5,30 L19.5,15.3 L23.3,14.6 C23.9,14.5 24.4,13.8 24.4,13.2 L24.4,7.3 C24.4,6.5 23.8,5.9 23,5.9 L22.8,5.9 L19.5,6.6 L19.5,-9.9 L23.3,-10.6 M7.8,9.1 L7.8,-7.5 L16.7,-9.3 L16.7,7.2 L7.8,9.1 "/>
<path class="Accidental" transform="matrix(0.453543,0,0,0.453543,510.625,419.526)" d="M16.6,-18.3 C16.4,-18.5 16.1,-18.6 15.8,-18.6 C15.7,-18.6 15.5,-18.5 15.4,-18.5 L2.8,-15 L2.8,-32.5 L0,-32.5 L0,17 C0,17.8 0.6,18.3 1.4,18.3 L1.8,18.3 L14.4,14.8 L14.4,32.3 L17.1,32.3 L17.1,-17.2 C17.1,-17.6 16.9,-18.1 16.6,-18.3 M14.4,6.5 L2.8,9.7 L2.8,-6.7 L14.4,-10 L14.4,6.5 "/>
<path class="Accidental" transform="matrix(0.453543,0,0,0.453543,593.83,425.196)" d="M16.6,-18.3 C16.4,-18.5 16.1,-18.6 15.8,-18.6 C15.7,-18.6 15.5,-18.5 15.4,-18.5 L2.8,-15 L2.8,-32.5 L0,-32.5 L0,17 C0,17.8 0.6,18.3 1.4,18.3 L1.8,18.3 L14.4,14.8 L14.4,32.3 L17.1,32.3 L17.1,-17.2 C17.1,-17.6 16.9,-18.1 16.6,-18.3 M14.4,6.5 L2.8,9.7 L2.8,-6.7 L14.4,-10 L14.4,6.5 "/>
<polyline class="LedgerLine" fill="none" stroke="#000000" stroke-width="1.81" stroke-linejoin="bevel" points="414.898,317.48 439.751,317.48"/>
<polyline class="LedgerLine" fill="none" stroke="#000000" stroke-width="1.81" stroke-linejoin="bevel" points="631.879,317.48 656.731,317.48"/>
<path class="Note" transform="matrix(0.453543,0,0,0.453543,98.8799,147.402)" d="M18.7,-13.6 C4.9,-13.6 0,-6.6 0,-0.1 C0,6.4 4.9,13.4 18.7,13.4 C32.5,13.4 37.3,6.4 37.3,-0.1 C37.3,-6.6 32.5,-13.6 18.7,-13.6 M10.4,-4.5 C10.3,-4.9 10.3,-5.3 10.3,-5.7 C10.3,-6.5 10.5,-7.3 10.9,-8 C11.6,-9 12.8,-9.7 14.3,-10 C15.6,-10.3 16.3,-10.5 18.9,-10.5 L19,-10.5 C23,-10.5 24.3,-6.8 25.4,-3 L25.7,-2 C26.5,0.6 26.9,2.8 26.9,4.5 C26.9,5.7 26.7,6.8 26.3,7.6 C25.7,8.7 24.7,9.4 23,9.8 C22.1,10 20.6,10.1 20.6,10.1 C20.1,10.1 19.7,10.2 19.3,10.2 C16.1,10.2 14.1,9 12.7,4.7 C11.5,1 11.3,-0.1 10.4,-4.5"/>
<path class="Note" transform="matrix(0.453543,0,0,0.453543,283.14,130.394)" d="M18.7,-13.6 C4.9,-13.6 0,-6.6 0,-0.1 C0,6.4 4.9,13.4 18.7,13.4 C32.5,13.4 37.3,6.4 37.3,-0.1 C37.3,-6.6 32.5,-13.6 18.7,-13.6 M10.4,-4.5 C10.3,-4.9 10.3,-5.3 10.3,-5.7 C10.3,-6.5 10.5,-7.3 10.9,-8 C11.6,-9 12.8,-9.7 14.3,-10 C15.6,-10.3 16.3,-10.5 18.9,-10.5 L19,-10.5 C23,-10.5 24.3,-6.8 25.4,-3 L25.7,-2 C26.5,0.6 26.9,2.8 26.9,4.5 C26.9,5.7 26.7,6.8 26.3,7.6 C25.7,8.7 24.7,9.4 23,9.8 C22.1,10 20.6,10.1 20.6,10.1 C20.1,10.1 19.7,10.2 19.3,10.2 C16.1,10.2 14.1,9 12.7,4.7 C11.5,1 11.3,-0.1 10.4,-4.5"/>
<path class="Note" transform="matrix(0.453543,0,0,0.453543,470.992,124.724)" d="M18.7,-13.6 C4.9,-13.6 0,-6.6 0,-0.1 C0,6.4 4.9,13.4 18.7,13.4 C32.5,13.4 37.3,6.4 37.3,-0.1 C37.3,-6.6 32.5,-13.6 18.7,-13.6 M10.4,-4.5 C10.3,-4.9 10.3,-5.3 10.3,-5.7 C10.3,-6.5 10.5,-7.3 10.9,-8 C11.6,-9 12.8,-9.7 14.3,-10 C15.6,-10.3 16.3,-10.5 18.9,-10.5 L19,-10.5 C23,-10.5 24.3,-6.8 25.4,-3 L25.7,-2 C26.5,0.6 26.9,2.8 26.9,4.5 C26.9,5.7 26.7,6.8 26.3,7.6 C25.7,8.7 24.7,9.4 23,9.8 C22.1,10 20.6,10.1 20.6,10.1 C20.1,10.1 19.7,10.2 19.3,10.2 C16.1,10.2 14.1,9 12.7,4.7 C11.5,1 11.3,-0.1 10.4,-4.5"/>
<path class="Note" transform="matrix(0.453543,0,0,0.453543,657.754,147.402)" d="M18.7,-13.6 C4.9,-13.6 0,-6.6 0,-0.1 C0,6.4 4.9,13.4 18.7,13.4 C32.5,13.4 37.3,6.4 37.3,-0.1 C37.3,-6.6 32.5,-13.6 18.7,-13.6 M10.4,-4.5 C10.3,-4.9 10.3,-5.3 10.3,-5.7 C10.3,-6.5 10.5,-7.3 10.9,-8 C11.6,-9 12.8,-9.7 14.3,-10 C15.6,-10.3 16.3,-10.5 18.9,-10.5 L19,-10.5 C23,-10.5 24.3,-6.8 25.4,-3 L25.7,-2 C26.5,0.6 26.9,2.8 26.9,4.5 C26.9,5.7 26.7,6.8 26.3,7.6 C25.7,8.7 24.7,9.4 23,9.8 C22.1,10 20.6,10.1 20.6,10.1 C20.1,10.1 19.7,10.2 19.3,10.2 C16.1,10.2 14.1,9 12.7,4.7 C11.5,1 11.3,-0.1 10.4,-4.5"/>
<path class="Note" transform="matrix(0.453543,0,0,0.453543,98.8799,300.472)" d="M18.7,-13.6 C4.9,-13.6 0,-6.6 0,-0.1 C0,6.4 4.9,13.4 18.7,13.4 C32.5,13.4 37.3,6.4 37.3,-0.1 C37.3,-6.6 32.5,-13.6 18.7,-13.6 M10.4,-4.5 C10.3,-4.9 10.3,-5.3 10.3,-5.7 C10.3,-6.5 10.5,-7.3 10.9,-8 C11.6,-9 12.8,-9.7 14.3,-10 C15.6,-10.3 16.3,-10.5 18.9,-10.5 L19,-10.5 C23,-10.5 24.3,-6.8 25.4,-3 L25.7,-2 C26.5,0.6 26.9,2.8 26.9,4.5 C26.9,5.7 26.7,6.8 26.3,7.6 C25.7,8.7 24.7,9.4 23,9.8 C22.1,10 20.6,10.1 20.6,10.1 C20.1,10.1 19.7,10.2 19.3,10.2 C16.1,10.2 14.1,9 12.7,4.7 C11.5,1 11.3,-0.1 10.4,-4.5"/>
<path class="Note" transform="matrix(0.453543,0,0,0.453543,200.953,289.133)" d="M18.7,-13.6 C4.9,-13.6 0,-6.6 0,-0.1 C0,6.4 4.9,13.4 18.7,13.4 C32.5,13.4 37.3,6.4 37.3,-0.1 C37.3,-6.6 32.5,-13.6 18.7,-13.6 M10.4,-4.5 C10.3,-4.9 10.3,-5.3 10.3,-5.7 C10.3,-6.5 10.5,-7.3 10.9,-8 C11.6,-9 12.8,-9.7 14.3,-10 C15.6,-10.3 16.3,-10.5 18.9,-10.5 L19,-10.5 C23,-10.5 24.3,-6.8 25.4,-3 L25.7,-2 C26.5,0.6 26.9,2.8 26.9,4.5 C26.9,5.7 26.7,6.8 26.3,7.6 C25.7,8.7 24.7,9.4 23,9.8 C22.1,10 20.6,10.1 20.6,10.1 C20.1,10.1 19.7,10.2 19.3,10.2 C16.1,10.2 14.1,9 12.7,4.7 C11.5,1 11.3,-0.1 10.4,-4.5"/>
<path class="Note" transform="matrix(0.453543,0,0,0.453543,307.926,300.472)" d="M18.7,-13.6 C4.9,-13.6 0,-6.6 0,-0.1 C0,6.4 4.9,13.4 18.7,13.4 C32.5,13.4 37.3,6.4 37.3,-0.1 C37.3,-6.6 32.5,-13.6 18.7,-13.6 M10.4,-4.5 C10.3,-4.9 10.3,-5.3 10.3,-5.7 C10.3,-6.5 10.5,-7.3 10.9,-8 C11.6,-9 12.8,-9.7 14.3,-10 C15.6,-10.3 16.3,-10.5 18.9,-10.5 L19,-10.5 C23,-10.5 24.3,-6.8 25.4,-3 L25.7,-2 C26.5,0.6 26.9,2.8 26.9,4.5 C26.9,5.7 26.7,6.8 26.3,7.6 C25.7,8.7 24.7,9.4 23,9.8 C22.1,10 20.6,10.1 20.6,10.1 C20.1,10.1 19.7,10.2 19.3,10.2 C16.1,10.2 14.1,9 12.7,4.7 C11.5,1 11.3,-0.1 10.4,-4.5"/>
<path class="Note" transform="matrix(0.453543,0,0,0.453543,418.866,317.48)" d="M18.7,-13.6 C4.9,-13.6 0,-6.6 0,-0.1 C0,6.4 4.9,13.4 18.7,13.4 C32.5,13.4 37.3,6.4 37.3,-0.1 C37.3,-6.6 32.5,-13.6 18.7,-13.6 M10.4,-4.5 C10.3,-4.9 10.3,-5.3 10.3,-5.7 C10.3,-6.5 10.5,-7.3 10.9,-8 C11.6,-9 12.8,-9.7 14.3,-10 C15.6,-10.3 16.3,-10.5 18.9,-10.5 L19,-10.5 C23,-10.5 24.3,-6.8 25.4,-3 L25.7,-2 C26.5,0.6 26.9,2.8 26.9,4.5 C26.9,5.7 26.7,6.8 26.3,7.6 C25.7,8.7 24.7,9.4 23,9.8 C22.1,10 20.6,10.1 20.6,10.1 C20.1,10.1 19.7,10.2 19.3,10.2 C16.1,10.2 14.1,9 12.7,4.7 C11.5,1 11.3,-0.1 10.4,-4.5"/>
<path class="Note" transform="matrix(0.453543,0,0,0.453543,529.805,306.141)" d="M18.7,-13.6 C4.9,-13.6 0,-6.6 0,-0.1 C0,6.4 4.9,13.4 18.7,13.4 C32.5,13.4 37.3,6.4 37.3,-0.1 C37.3,-6.6 32.5,-13.6 18.7,-13.6 M10.4,-4.5 C10.3,-4.9 10.3,-5.3 10.3,-5.7 C10.3,-6.5 10.5,-7.3 10.9,-8 C11.6,-9 12.8,-9.7 14.3,-10 C15.6,-10.3 16.3,-10.5 18.9,-10.5 L19,-10.5 C23,-10.5 24.3,-6.8 25.4,-3 L25.7,-2 C26.5,0.6 26.9,2.8 26.9,4.5 C26.9,5.7 26.7,6.8 26.3,7.6 C25.7,8.7 24.7,9.4 23,9.8 C22.1,10 20.6,10.1 20.6,10.1 C20.1,10.1 19.7,10.2 19.3,10.2 C16.1,10.2 14.1,9 12.7,4.7 C11.5,1 11.3,-0.1 10.4,-4.5"/>
<path class="Note" transform="matrix(0.453543,0,0,0.453543,635.847,317.48)" d="M18.7,-13.6 C4.9,-13.6 0,-6.6 0,-0.1 C0,6.4 4.9,13.4 18.7,13.4 C32.5,13.4 37.3,6.4 37.3,-0.1 C37.3,-6.6 32.5,-13.6 18.7,-13.6 M10.4,-4.5 C10.3,-4.9 10.3,-5.3 10.3,-5.7 C10.3,-6.5 10.5,-7.3 10.9,-8 C11.6,-9 12.8,-9.7 14.3,-10 C15.6,-10.3 16.3,-10.5 18.9,-10.5 L19,-10.5 C23,-10.5 24.3,-6.8 25.4,-3 L25.7,-2 C26.5,0.6 26.9,2.8 26.9,4.5 C26.9,5.7 26.7,6.8 26.3,7.6 C25.7,8.7 24.7,9.4 23,9.8 C22.1,10 20.6,10.1 20.6,10.1 C20.1,10.1 19.7,10.2 19.3,10.2 C16.1,10.2 14.1,9 12.7,4.7 C11.5,1 11.3,-0.1 10.4,-4.5"/>
<path class="Note" transform="matrix(0.453543,0,0,0.453543,738.851,300.472)" d="M18.7,-13.6 C4.9,-13.6 0,-6.6 0,-0.1 C0,6.4 4.9,13.4 18.7,13.4 C32.5,13.4 37.3,6.4 37.3,-0.1 C37.3,-6.6 32.5,-13.6 18.7,-13.6 M10.4,-4.5 C10.3,-4.9 10.3,-5.3 10.3,-5.7 C10.3,-6.5 10.5,-7.3 10.9,-8 C11.6,-9 12.8,-9.7 14.3,-10 C15.6,-10.3 16.3,-10.5 18.9,-10.5 L19,-10.5 C23,-10.5 24.3,-6.8 25.4,-3 L25.7,-2 C26.5,0.6 26.9,2.8 26.9,4.5 C26.9,5.7 26.7,6.8 26.3,7.6 C25.7,8.7 24.7,9.4 23,9.8 C22.1,10 20.6,10.1 20.6,10.1 C20.1,10.1 19.7,10.2 19.3,10.2 C16.1,10.2 14.1,9 12.7,4.7 C11.5,1 11.3,-0.1 10.4,-4.5"/>
<path class="Note" transform="matrix(0.453543,0,0,0.453543,98.8799,453.542)" d="M18.7,-13.6 C4.9,-13.6 0,-6.6 0,-0.1 C0,6.4 4.9,13.4 18.7,13.4 C32.5,13.4 37.3,6.4 37.3,-0.1 C37.3,-6.6 32.5,-13.6 18.7,-13.6 M10.4,-4.5 C10.3,-4.9 10.3,-5.3 10.3,-5.7 C10.3,-6.5 10.5,-7.3 10.9,-8 C11.6,-9 12.8,-9.7 14.3,-10 C15.6,-10.3 16.3,-10.5 18.9,-10.5 L19,-10.5 C23,-10.5 24.3,-6.8 25.4,-3 L25.7,-2 C26.5,0.6 26.9,2.8 26.9,4.5 C26.9,5.7 26.7,6.8 26.3,7.6 C25.7,8.7 24.7,9.4 23,9.8 C22.1,10 20.6,10.1 20.6,10.1 C20.1,10.1 19.7,10.2 19.3,10.2 C16.1,10.2 14.1,9 12.7,4.7 C11.5,1 11.3,-0.1 10.4,-4.5"/>
<path class="Note" transform="matrix(0.453543,0,0,0.453543,177.681,430.865)" d="M18.7,-13.6 C4.9,-13.6 0,-6.6 0,-0.1 C0,6.4 4.9,13.4 18.7,13.4 C32.5,13.4 37.3,6.4 37.3,-0.1 C37.3,-6.6 32.5,-13.6 18.7,-13.6 M10.4,-4.5 C10.3,-4.9 10.3,-5.3 10.3,-5.7 C10.3,-6.5 10.5,-7.3 10.9,-8 C11.6,-9 12.8,-9.7 14.3,-10 C15.6,-10.3 16.3,-10.5 18.9,-10.5 L19,-10.5 C23,-10.5 24.3,-6.8 25.4,-3 L25.7,-2 C26.5,0.6 26.9,2.8 26.9,4.5 C26.9,5.7 26.7,6.8 26.3,7.6 C25.7,8.7 24.7,9.4 23,9.8 C22.1,10 20.6,10.1 20.6,10.1 C20.1,10.1 19.7,10.2 19.3,10.2 C16.1,10.2 14.1,9 12.7,4.7 C11.5,1 11.3,-0.1 10.4,-4.5"/>
<path class="Note" transform="matrix(0.453543,0,0,0.453543,269.097,425.196)" d="M18.7,-13.6 C4.9,-13.6 0,-6.6 0,-0.1 C0,6.4 4.9,13.4 18.7,13.4 C32.5,13.4 37.3,6.4 37.3,-0.1 C37.3,-6.6 32.5,-13.6 18.7,-13.6 M10.4,-4.5 C10.3,-4.9 10.3,-5.3 10.3,-5.7 C10.3,-6.5 10.5,-7.3 10.9,-8 C11.6,-9 12.8,-9.7 14.3,-10 C15.6,-10.3 16.3,-10.5 18.9,-10.5 L19,-10.5 C23,-10.5 24.3,-6.8 25.4,-3 L25.7,-2 C26.5,0.6 26.9,2.8 26.9,4.5 C26.9,5.7 26.7,6.8 26.3,7.6 C25.7,8.7 24.7,9.4 23,9.8 C22.1,10 20.6,10.1 20.6,10.1 C20.1,10.1 19.7,10.2 19.3,10.2 C16.1,10.2 14.1,9 12.7,4.7 C11.5,1 11.3,-0.1 10.4,-4.5"/>
<path class="Note" transform="matrix(0.453543,0,0,0.453543,355.615,419.526)" d="M18.7,-13.6 C4.9,-13.6 0,-6.6 0,-0.1 C0,6.4 4.9,13.4 18.7,13.4 C32.5,13.4 37.3,6.4 37.3,-0.1 C37.3,-6.6 32.5,-13.6 18.7,-13.6 M10.4,-4.5 C10.3,-4.9 10.3,-5.3 10.3,-5.7 C10.3,-6.5 10.5,-7.3 10.9,-8 C11.6,-9 12.8,-9.7 14.3,-10 C15.6,-10.3 16.3,-10.5 18.9,-10.5 L19,-10.5 C23,-10.5 24.3,-6.8 25.4,-3 L25.7,-2 C26.5,0.6 26.9,2.8 26.9,4.5 C26.9,5.7 26.7,6.8 26.3,7.6 C25.7,8.7 24.7,9.4 23,9.8 C22.1,10 20.6,10.1 20.6,10.1 C20.1,10.1 19.7,10.2 19.3,10.2 C16.1,10.2 14.1,9 12.7,4.7 C11.5,1 11.3,-0.1 10.4,-4.5"/>
<path class="Note" transform="matrix(0.453543,0,0,0.453543,433.109,413.857)" d="M18.7,-13.6 C4.9,-13.6 0,-6.6 0,-0.1 C0,6.4 4.9,13.4 18.7,13.4 C32.5,13.4 37.3,6.4 37.3,-0.1 C37.3,-6.6 32.5,-13.6 18.7,-13.6 M10.4,-4.5 C10.3,-4.9 10.3,-5.3 10.3,-5.7 C10.3,-6.5 10.5,-7.3 10.9,-8 C11.6,-9 12.8,-9.7 14.3,-10 C15.6,-10.3 16.3,-10.5 18.9,-10.5 L19,-10.5 C23,-10.5 24.3,-6.8 25.4,-3 L25.7,-2 C26.5,0.6 26.9,2.8 26.9,4.5 C26.9,5.7 26.7,6.8 26.3,7.6 C25.7,8.7 24.7,9.4 23,9.8 C22.1,10 20.6,10.1 20.6,10.1 C20.1,10.1 19.7,10.2 19.3,10.2 C16.1,10.2 14.1,9 12.7,4.7 C11.5,1 11.3,-0.1 10.4,-4.5"/>
<path class="Note" transform="matrix(0.453543,0,0,0.453543,521.212,419.526)" d="M18.7,-13.6 C4.9,-13.6 0,-6.6 0,-0.1 C0,6.4 4.9,13.4 18.7,13.4 C32.5,13.4 37.3,6.4 37.3,-0.1 C37.3,-6.6 32.5,-13.6 18.7,-13.6 M10.4,-4.5 C10.3,-4.9 10.3,-5.3 10.3,-5.7 C10.3,-6.5 10.5,-7.3 10.9,-8 C11.6,-9 12.8,-9.7 14.3,-10 C15.6,-10.3 16.3,-10.5 18.9,-10.5 L19,-10.5 C23,-10.5 24.3,-6.8 25.4,-3 L25.7,-2 C26.5,0.6 26.9,2.8 26.9,4.5 C26.9,5.7 26.7,6.8 26.3,7.6 C25.7,8.7 24.7,9.4 23,9.8 C22.1,10 20.6,10.1 20.6,10.1 C20.1,10.1 19.7,10.2 19.3,10.2 C16.1,10.2 14.1,9 12.7,4.7 C11.5,1 11.3,-0.1 10.4,-4.5"/>
<path class="Note" transform="matrix(0.453543,0,0,0.453543,604.418,425.196)" d="M18.7,-13.6 C4.9,-13.6 0,-6.6 0,-0.1 C0,6.4 4.9,13.4 18.7,13.4 C32.5,13.4 37.3,6.4 37.3,-0.1 C37.3,-6.6 32.5,-13.6 18.7,-13.6 M10.4,-4.5 C10.3,-4.9 10.3,-5.3 10.3,-5.7 C10.3,-6.5 10.5,-7.3 10.9,-8 C11.6,-9 12.8,-9.7 14.3,-10 C15.6,-10.3 16.3,-10.5 18.9,-10.5 L19,-10.5 C23,-10.5 24.3,-6.8 25.4,-3 L25.7,-2 C26.5,0.6 26.9,2.8 26.9,4.5 C26.9,5.7 26.7,6.8 26.3,7.6 C25.7,8.7 24.7,9.4 23,9.8 C22.1,10 20.6,10.1 20.6,10.1 C20.1,10.1 19.7,10.2 19.3,10.2 C16.1,10.2 14.1,9 12.7,4.7 C11.5,1 11.3,-0.1 10.4,-4.5"/>
<path class="Note" transform="matrix(0.453543,0,0,0.453543,681.911,430.865)" d="M18.7,-13.6 C4.9,-13.6 0,-6.6 0,-0.1 C0,6.4 4.9,13.4 18.7,13.4 C32.5,13.4 37.3,6.4 37.3,-0.1 C37.3,-6.6 32.5,-13.6 18.7,-13.6 M10.4,-4.5 C10.3,-4.9 10.3,-5.3 10.3,-5.7 C10.3,-6.5 10.5,-7.3 10.9,-8 C11.6,-9 12.8,-9.7 14.3,-10 C15.6,-10.3 16.3,-10.5 18.9,-10.5 L19,-10.5 C23,-10.5 24.3,-6.8 25.4,-3 L25.7,-2 C26.5,0.6 26.9,2.8 26.9,4.5 C26.9,5.7 26.7,6.8 26.3,7.6 C25.7,8.7 24.7,9.4 23,9.8 C22.1,10 20.6,10.1 20.6,10.1 C20.1,10.1 19.7,10.2 19.3,10.2 C16.1,10.2 14.1,9 12.7,4.7 C11.5,1 11.3,-0.1 10.4,-4.5"/>
<path class="Note" transform="matrix(0.453543,0,0,0.453543,763.213,453.542)" d="M18.7,-13.6 C4.9,-13.6 0,-6.6 0,-0.1 C0,6.4 4.9,13.4 18.7,13.4 C32.5,13.4 37.3,6.4 37.3,-0.1 C37.3,-6.6 32.5,-13.6 18.7,-13.6 M10.4,-4.5 C10.3,-4.9 10.3,-5.3 10.3,-5.7 C10.3,-6.5 10.5,-7.3 10.9,-8 C11.6,-9 12.8,-9.7 14.3,-10 C15.6,-10.3 16.3,-10.5 18.9,-10.5 L19,-10.5 C23,-10.5 24.3,-6.8 25.4,-3 L25.7,-2 C26.5,0.6 26.9,2.8 26.9,4.5 C26.9,5.7 26.7,6.8 26.3,7.6 C25.7,8.7 24.7,9.4 23,9.8 C22.1,10 20.6,10.1 20.6,10.1 C20.1,10.1 19.7,10.2 19.3,10.2 C16.1,10.2 14.1,9 12.7,4.7 C11.5,1 11.3,-0.1 10.4,-4.5"/>
<path class="Clef" transform="matrix(0.453543,0,0,0.453543,40.4189,119.055)" d="M25.4,-25.1 C17.8,-25.1 11.7,-20.7 11.6,-20.7 C5.8,-16.4 3.5,-11.3 2.6,-7.8 C2.1,-6 1.9,-4.2 1.9,-2.5 C1.9,-0.1 2.3,2.1 3.2,4 C4.4,6.7 6.7,8.6 9.7,9.6 C10.9,10 12.2,10.2 13.5,10.2 C15.7,10.2 18,9.6 19.9,8.5 C23,6.8 24.9,3.2 24.9,-0.7 C24.9,-4.2 23.1,-7.4 20.1,-9.3 C18,-10.7 16,-11.1 14.3,-11.1 C13.1,-11.1 12,-10.9 11.1,-10.6 C10.1,-10.2 8.4,-9.2 7.6,-8.5 C7.9,-10.4 9.1,-13.3 10.2,-14.9 C11.3,-16.5 13.5,-18.5 15.2,-19.4 C17.7,-20.8 20.9,-21.4 24.4,-21.4 C34.6,-21.4 39.6,-13.2 39.6,3.6 C39.6,12.9 36.1,21.8 33.1,27.7 C29.8,34.3 25.4,40.6 21.5,44.1 C11.1,53.6 1.3,58.1 1.2,58.1 C1.2,58.1 -0.3,59 0.1,60.5 C0.4,61.5 1.3,61.7 1.9,61.7 C2,61.7 2.3,61.6 2.4,61.6 C2.5,61.6 13.9,56.9 23,49.8 C28.1,46.1 32.7,42.1 36.7,37.8 C40.3,33.9 43.4,29.7 45.9,25.5 C50.3,18 52.8,10.2 52.8,3.5 C52.8,-4.8 50.6,-11.7 46.5,-16.6 C41.8,-22.2 34.7,-25.1 25.4,-25.1 M56.8,-12.4 C56.8,-9.6 59,-7.4 61.6,-7.4 C64.2,-7.4 66.4,-9.6 66.4,-12.4 C66.4,-15.2 64.2,-17.5 61.6,-17.5 C59,-17.5 56.8,-15.2 56.8,-12.4 M56.8,12.3 C56.8,15.1 59,17.4 61.6,17.4 C64.2,17.4 66.4,15.1 66.4,12.3 C66.4,9.5 64.2,7.2 61.6,7.2 C59,7.2 56.8,9.5 56.8,12.3"/>
<path class="Clef" transform="matrix(0.453543,0,0,0.453543,40.4189,272.125)" d="M25.4,-25.1 C17.8,-25.1 11.7,-20.7 11.6,-20.7 C5.8,-16.4 3.5,-11.3 2.6,-7.8 C2.1,-6 1.9,-4.2 1.9,-2.5 C1.9,-0.1 2.3,2.1 3.2,4 C4.4,6.7 6.7,8.6 9.7,9.6 C10.9,10 12.2,10.2 13.5,10.2 C15.7,10.2 18,9.6 19.9,8.5 C23,6.8 24.9,3.2 24.9,-0.7 C24.9,-4.2 23.1,-7.4 20.1,-9.3 C18,-10.7 16,-11.1 14.3,-11.1 C13.1,-11.1 12,-10.9 11.1,-10.6 C10.1,-10.2 8.4,-9.2 7.6,-8.5 C7.9,-10.4 9.1,-13.3 10.2,-14.9 C11.3,-16.5 13.5,-18.5 15.2,-19.4 C17.7,-20.8 20.9,-21.4 24.4,-21.4 C34.6,-21.4 39.6,-13.2 39.6,3.6 C39.6,12.9 36.1,21.8 33.1,27.7 C29.8,34.3 25.4,40.6 21.5,44.1 C11.1,53.6 1.3,58.1 1.2,58.1 C1.2,58.1 -0.3,59 0.1,60.5 C0.4,61.5 1.3,61.7 1.9,61.7 C2,61.7 2.3,61.6 2.4,61.6 C2.5,61.6 13.9,56.9 23,49.8 C28.1,46.1 32.7,42.1 36.7,37.8 C40.3,33.9 43.4,29.7 45.9,25.5 C50.3,18 52.8,10.2 52.8,3.5 C52.8,-4.8 50.6,-11.7 46.5,-16.6 C41.8,-22.2 34.7,-25.1 25.4,-25.1 M56.8,-12.4 C56.8,-9.6 59,-7.4 61.6,-7.4 C64.2,-7.4 66.4,-9.6 66.4,-12.4 C66.4,-15.2 64.2,-17.5 61.6,-17.5 C59,-17.5 56.8,-15.2 56.8,-12.4 M56.8,12.3 C56.8,15.1 59,17.4 61.6,17.4 C64.2,17.4 66.4,15.1 66.4,12.3 C66.4,9.5 64.2,7.2 61.6,7.2 C59,7.2 56.8,9.5 56.8,12.3"/>
<path class="Clef" transform="matrix(0.453543,0,0,0.453543,40.4189,425.196)" d="M25.4,-25.1 C17.8,-25.1 11.7,-20.7 11.6,-20.7 C5.8,-16.4 3.5,-11.3 2.6,-7.8 C2.1,-6 1.9,-4.2 1.9,-2.5 C1.9,-0.1 2.3,2.1 3.2,4 C4.4,6.7 6.7,8.6 9.7,9.6 C10.9,10 12.2,10.2 13.5,10.2 C15.7,10.2 18,9.6 19.9,8.5 C23,6.8 24.9,3.2 24.9,-0.7 C24.9,-4.2 23.1,-7.4 20.1,-9.3 C18,-10.7 16,-11.1 14.3,-11.1 C13.1,-11.1 12,-10.9 11.1,-10.6 C10.1,-10.2 8.4,-9.2 7.6,-8.5 C7.9,-10.4 9.1,-13.3 10.2,-14.9 C11.3,-16.5 13.5,-18.5 15.2,-19.4 C17.7,-20.8 20.9,-21.4 24.4,-21.4 C34.6,-21.4 39.6,-13.2 39.6,3.6 C39.6,12.9 36.1,21.8 33.1,27.7 C29.8,34.3 25.4,40.6 21.5,44.1 C11.1,53.6 1.3,58.1 1.2,58.1 C1.2,58.1 -0.3,59 0.1,60.5 C0.4,61.5 1.3,61.7 1.9,61.7 C2,61.7 2.3,61.6 2.4,61.6 C2.5,61.6 13.9,56.9 23,49.8 C28.1,46.1 32.7,42.1 36.7,37.8 C40.3,33.9 43.4,29.7 45.9,25.5 C50.3,18 52.8,10.2 52.8,3.5 C52.8,-4.8 50.6,-11.7 46.5,-16.6 C41.8,-22.2 34.7,-25.1 25.4,-25.1 M56.8,-12.4 C56.8,-9.6 59,-7.4 61.6,-7.4 C64.2,-7.4 66.4,-9.6 66.4,-12.4 C66.4,-15.2 64.2,-17.5 61.6,-17.5 C59,-17.5 56.8,-15.2 56.8,-12.4 M56.8,12.3 C56.8,15.1 59,17.4 61.6,17.4 C64.2,17.4 66.4,15.1 66.4,12.3 C66.4,9.5 64.2,7.2 61.6,7.2 C59,7.2 56.8,9.5 56.8,12.3"/>
<path class="FiguredBass" d="M478.311,190.717 L478.311,194.391 C478.311,194.754 478.126,194.936 477.757,194.936 C477.388,194.936 477.203,194.754 477.203,194.391 L477.203,191.191 L476.641,191.42 C476.582,191.443 476.506,191.455 476.412,191.455 C476.26,191.455 476.125,191.396 476.008,191.279 C475.891,191.162 475.832,191.027 475.832,190.875 L475.832,189.082 C475.832,188.824 475.955,188.643 476.202,188.537 L477.203,188.115 L477.203,184.424 L476.641,184.652 C476.606,184.664 476.559,184.67 476.5,184.67 C476.477,184.67 476.448,184.67 476.412,184.67 C476.237,184.646 476.096,184.582 475.991,184.477 C475.885,184.371 475.832,184.248 475.832,184.107 L475.832,182.314 C475.832,182.068 475.955,181.893 476.202,181.787 L477.203,181.365 L477.203,177.621 C477.203,177.258 477.388,177.076 477.757,177.076 C478.126,177.076 478.311,177.258 478.311,177.621 L478.311,180.908 L480.578,179.959 L480.578,176.285 C480.578,175.922 480.76,175.74 481.123,175.74 C481.487,175.74 481.668,175.922 481.668,176.285 L481.668,179.52 L482.284,179.256 C482.342,179.232 482.407,179.221 482.477,179.221 C482.629,179.221 482.767,179.279 482.89,179.396 C483.013,179.514 483.075,179.648 483.075,179.801 L483.075,181.594 C483.075,181.852 482.946,182.033 482.688,182.139 L481.668,182.561 L481.668,186.27 L482.284,186.023 C482.319,186.012 482.36,186.006 482.407,186.006 C482.43,186.006 482.453,186.006 482.477,186.006 C482.676,186.041 482.826,186.105 482.925,186.199 C483.025,186.293 483.075,186.416 483.075,186.568 L483.075,188.361 C483.075,188.607 482.946,188.783 482.688,188.889 L481.668,189.311 L481.668,193.055 C481.668,193.418 481.487,193.6 481.123,193.6 C480.76,193.6 480.578,193.418 480.578,193.055 L480.578,189.768 L478.311,190.717 M478.311,187.658 L480.578,186.727 L480.578,183.018 L478.311,183.967 L478.311,187.658 "/>
<path class="FiguredBass" d="M209.943,331.869 C209.075,331.869 208.498,332.218 208.211,332.915 C207.924,333.612 207.78,334.6 207.78,335.877 L207.78,337.951 C208.39,337.705 208.917,337.576 209.363,337.564 C210.886,337.564 212.084,337.901 212.957,338.575 C213.83,339.249 214.267,340.251 214.267,341.581 C214.267,342.911 213.824,343.916 212.94,344.596 C212.055,345.275 210.863,345.615 209.363,345.615 C207.827,345.615 206.626,344.903 205.759,343.479 C204.892,342.056 204.458,340.365 204.458,338.408 C204.458,336.463 204.962,334.775 205.97,333.346 C206.978,331.916 208.302,331.201 209.943,331.201 C211.021,331.201 211.952,331.474 212.738,332.019 C213.523,332.563 213.915,333.281 213.915,334.172 C213.915,334.687 213.728,335.133 213.353,335.508 C212.978,335.883 212.529,336.07 212.008,336.07 C211.487,336.07 211.038,335.883 210.663,335.508 C210.288,335.133 210.101,334.687 210.101,334.172 C210.101,333.668 210.288,333.223 210.663,332.836 C210.792,332.684 210.974,332.555 211.208,332.449 C211.15,332.297 211.032,332.18 210.857,332.098 C210.599,331.945 210.294,331.869 209.943,331.869 M210.804,339.059 C210.593,338.508 210.13,338.232 209.415,338.232 C208.7,338.232 208.258,338.508 208.088,339.059 C207.918,339.609 207.833,340.447 207.833,341.572 C207.833,342.896 207.918,343.787 208.088,344.244 C208.258,344.701 208.7,344.93 209.415,344.93 C210.13,344.93 210.593,344.654 210.804,344.103 C211.015,343.553 211.12,342.712 211.12,341.581 C211.12,340.45 211.015,339.609 210.804,339.059"/>
<path class="FiguredBass" d="M426.185,344.241 L426.185,347.914 C426.185,348.278 426.001,348.459 425.632,348.459 C425.263,348.459 425.078,348.278 425.078,347.914 L425.078,344.715 L424.516,344.944 C424.457,344.967 424.381,344.979 424.287,344.979 C424.135,344.979 424,344.92 423.883,344.803 C423.766,344.686 423.707,344.551 423.707,344.399 L423.707,342.606 C423.707,342.348 423.83,342.166 424.076,342.061 L425.078,341.639 L425.078,337.948 L424.516,338.176 C424.48,338.188 424.434,338.194 424.375,338.194 C424.351,338.194 424.322,338.194 424.287,338.194 C424.111,338.17 423.971,338.106 423.865,338 C423.76,337.895 423.707,337.772 423.707,337.631 L423.707,335.838 C423.707,335.592 423.83,335.416 424.076,335.311 L425.078,334.889 L425.078,331.145 C425.078,330.782 425.263,330.6 425.632,330.6 C426.001,330.6 426.185,330.782 426.185,331.145 L426.185,334.432 L428.453,333.483 L428.453,329.809 C428.453,329.446 428.635,329.264 428.998,329.264 C429.361,329.264 429.543,329.446 429.543,329.809 L429.543,333.043 L430.158,332.78 C430.217,332.756 430.281,332.745 430.351,332.745 C430.504,332.745 430.642,332.803 430.765,332.92 C430.888,333.037 430.949,333.172 430.949,333.325 L430.949,335.118 C430.949,335.375 430.82,335.557 430.562,335.662 L429.543,336.084 L429.543,339.793 L430.158,339.547 C430.193,339.536 430.234,339.53 430.281,339.53 C430.305,339.53 430.328,339.53 430.351,339.53 C430.551,339.565 430.7,339.629 430.8,339.723 C430.899,339.817 430.949,339.94 430.949,340.092 L430.949,341.885 C430.949,342.131 430.82,342.307 430.562,342.412 L429.543,342.834 L429.543,346.579 C429.543,346.942 429.361,347.123 428.998,347.123 C428.635,347.123 428.453,346.942 428.453,346.579 L428.453,343.291 L426.185,344.241 M426.185,341.182 L428.453,340.25 L428.453,336.541 L426.185,337.491 L426.185,341.182 "/>
<path class="FiguredBass" d="M538.794,331.869 C537.927,331.869 537.35,332.218 537.063,332.915 C536.776,333.612 536.632,334.6 536.632,335.877 L536.632,337.951 C537.242,337.705 537.769,337.576 538.214,337.564 C539.738,337.564 540.936,337.901 541.809,338.575 C542.682,339.249 543.118,340.251 543.118,341.581 C543.118,342.911 542.676,343.916 541.791,344.596 C540.907,345.275 539.714,345.615 538.214,345.615 C536.679,345.615 535.478,344.903 534.611,343.479 C533.743,342.056 533.31,340.365 533.31,338.408 C533.31,336.463 533.814,334.775 534.822,333.346 C535.829,331.916 537.154,331.201 538.794,331.201 C539.872,331.201 540.804,331.474 541.589,332.019 C542.374,332.563 542.767,333.281 542.767,334.172 C542.767,334.687 542.579,335.133 542.204,335.508 C541.829,335.883 541.381,336.07 540.86,336.07 C540.338,336.07 539.89,335.883 539.515,335.508 C539.14,335.133 538.952,334.687 538.952,334.172 C538.952,333.668 539.14,333.223 539.515,332.836 C539.644,332.684 539.826,332.555 540.06,332.449 C540.001,332.297 539.884,332.18 539.708,332.098 C539.451,331.945 539.146,331.869 538.794,331.869 M539.656,339.059 C539.445,338.508 538.982,338.232 538.267,338.232 C537.552,338.232 537.11,338.508 536.94,339.059 C536.77,339.609 536.685,340.447 536.685,341.572 C536.685,342.896 536.77,343.787 536.94,344.244 C537.11,344.701 537.552,344.93 538.267,344.93 C538.982,344.93 539.445,344.654 539.656,344.103 C539.867,343.553 539.972,342.712 539.972,341.581 C539.972,340.45 539.867,339.609 539.656,339.059"/>
<path class="FiguredBass" d="M643.166,344.241 L643.166,347.914 C643.166,348.278 642.982,348.459 642.613,348.459 C642.244,348.459 642.059,348.278 642.059,347.914 L642.059,344.715 L641.496,344.944 C641.438,344.967 641.362,344.979 641.268,344.979 C641.116,344.979 640.981,344.92 640.864,344.803 C640.746,344.686 640.688,344.551 640.688,344.399 L640.688,342.606 C640.688,342.348 640.811,342.166 641.057,342.061 L642.059,341.639 L642.059,337.948 L641.496,338.176 C641.461,338.188 641.414,338.194 641.356,338.194 C641.332,338.194 641.303,338.194 641.268,338.194 C641.092,338.17 640.952,338.106 640.846,338 C640.741,337.895 640.688,337.772 640.688,337.631 L640.688,335.838 C640.688,335.592 640.811,335.416 641.057,335.311 L642.059,334.889 L642.059,331.145 C642.059,330.782 642.244,330.6 642.613,330.6 C642.982,330.6 643.166,330.782 643.166,331.145 L643.166,334.432 L645.434,333.483 L645.434,329.809 C645.434,329.446 645.616,329.264 645.979,329.264 C646.342,329.264 646.524,329.446 646.524,329.809 L646.524,333.043 L647.139,332.78 C647.198,332.756 647.262,332.745 647.332,332.745 C647.485,332.745 647.622,332.803 647.745,332.92 C647.869,333.037 647.93,333.172 647.93,333.325 L647.93,335.118 C647.93,335.375 647.801,335.557 647.543,335.662 L646.524,336.084 L646.524,339.793 L647.139,339.547 C647.174,339.536 647.215,339.53 647.262,339.53 C647.286,339.53 647.309,339.53 647.332,339.53 C647.532,339.565 647.681,339.629 647.781,339.723 C647.88,339.817 647.93,339.94 647.93,340.092 L647.93,341.885 C647.93,342.131 647.801,342.307 647.543,342.412 L646.524,342.834 L646.524,346.579 C646.524,346.942 646.342,347.123 645.979,347.123 C645.616,347.123 645.434,346.942 645.434,346.579 L645.434,343.291 L643.166,344.241 M643.166,341.182 L645.434,340.25 L645.434,336.541 L643.166,337.491 L643.166,341.182 "/>
<path class="FiguredBass" d="M185,496.857 L185,500.531 C185,500.894 184.815,501.076 184.446,501.076 C184.077,501.076 183.892,500.894 183.892,500.531 L183.892,497.332 L183.33,497.56 C183.271,497.584 183.195,497.596 183.101,497.596 C182.949,497.596 182.814,497.537 182.697,497.42 C182.58,497.303 182.521,497.168 182.521,497.016 L182.521,495.223 C182.521,494.965 182.644,494.783 182.891,494.678 L183.892,494.256 L183.892,490.564 L183.33,490.793 C183.295,490.805 183.248,490.81 183.189,490.81 C183.166,490.81 183.137,490.81 183.101,490.81 C182.926,490.787 182.785,490.723 182.68,490.617 C182.574,490.512 182.521,490.389 182.521,490.248 L182.521,488.455 C182.521,488.209 182.644,488.033 182.891,487.928 L183.892,487.506 L183.892,483.762 C183.892,483.398 184.077,483.217 184.446,483.217 C184.815,483.217 185,483.398 185,483.762 L185,487.049 L187.267,486.1 L187.267,482.426 C187.267,482.062 187.449,481.881 187.812,481.881 C188.176,481.881 188.357,482.062 188.357,482.426 L188.357,485.66 L188.973,485.396 C189.031,485.373 189.096,485.361 189.166,485.361 C189.318,485.361 189.456,485.42 189.579,485.537 C189.702,485.654 189.764,485.789 189.764,485.941 L189.764,487.734 C189.764,487.992 189.635,488.174 189.377,488.279 L188.357,488.701 L188.357,492.41 L188.973,492.164 C189.008,492.152 189.049,492.146 189.096,492.146 C189.119,492.146 189.142,492.146 189.166,492.146 C189.365,492.182 189.515,492.246 189.614,492.34 C189.714,492.434 189.764,492.557 189.764,492.709 L189.764,494.502 C189.764,494.748 189.635,494.924 189.377,495.029 L188.357,495.451 L188.357,499.195 C188.357,499.559 188.176,499.74 187.812,499.74 C187.449,499.74 187.267,499.559 187.267,499.195 L187.267,495.908 L185,496.857 M185,493.799 L187.267,492.867 L187.267,489.158 L185,490.107 L185,493.799 "/>
<path class="FiguredBass" d="M278.087,484.939 C277.219,484.939 276.642,485.288 276.355,485.985 C276.068,486.683 275.924,487.67 275.924,488.947 L275.924,491.021 C276.534,490.775 277.061,490.646 277.506,490.635 C279.03,490.635 280.228,490.972 281.101,491.645 C281.974,492.319 282.411,493.321 282.411,494.651 C282.411,495.981 281.968,496.986 281.084,497.666 C280.199,498.346 279.006,498.685 277.506,498.685 C275.971,498.685 274.77,497.974 273.903,496.55 C273.036,495.126 272.602,493.435 272.602,491.478 C272.602,489.533 273.106,487.846 274.114,486.416 C275.122,484.986 276.446,484.271 278.087,484.271 C279.165,484.271 280.096,484.544 280.881,485.089 C281.667,485.634 282.059,486.352 282.059,487.242 C282.059,487.758 281.872,488.203 281.497,488.578 C281.122,488.953 280.673,489.141 280.152,489.141 C279.63,489.141 279.182,488.953 278.807,488.578 C278.432,488.203 278.245,487.758 278.245,487.242 C278.245,486.738 278.432,486.293 278.807,485.906 C278.936,485.754 279.118,485.625 279.352,485.519 C279.294,485.367 279.176,485.25 279.001,485.168 C278.743,485.016 278.438,484.939 278.087,484.939 M278.948,492.129 C278.737,491.578 278.274,491.303 277.559,491.303 C276.844,491.303 276.402,491.578 276.232,492.129 C276.062,492.68 275.977,493.518 275.977,494.643 C275.977,495.967 276.062,496.857 276.232,497.314 C276.402,497.771 276.844,498 277.559,498 C278.274,498 278.737,497.725 278.948,497.174 C279.159,496.623 279.264,495.782 279.264,494.651 C279.264,493.52 279.159,492.68 278.948,492.129"/>
<path class="FiguredBass" d="M364.605,484.939 C363.737,484.939 363.16,485.288 362.873,485.985 C362.586,486.683 362.442,487.67 362.442,488.947 L362.442,491.021 C363.052,490.775 363.579,490.646 364.025,490.635 C365.548,490.635 366.746,490.972 367.619,491.645 C368.492,492.319 368.929,493.321 368.929,494.651 C368.929,495.981 368.486,496.986 367.602,497.666 C366.717,498.346 365.525,498.685 364.025,498.685 C362.489,498.685 361.288,497.974 360.421,496.55 C359.554,495.126 359.12,493.435 359.12,491.478 C359.12,489.533 359.624,487.846 360.632,486.416 C361.64,484.986 362.964,484.271 364.605,484.271 C365.683,484.271 366.614,484.544 367.4,485.089 C368.185,485.634 368.577,486.352 368.577,487.242 C368.577,487.758 368.39,488.203 368.015,488.578 C367.64,488.953 367.192,489.141 366.67,489.141 C366.149,489.141 365.7,488.953 365.325,488.578 C364.95,488.203 364.763,487.758 364.763,487.242 C364.763,486.738 364.95,486.293 365.325,485.906 C365.454,485.754 365.636,485.625 365.87,485.519 C365.812,485.367 365.694,485.25 365.519,485.168 C365.261,485.016 364.956,484.939 364.605,484.939 M365.466,492.129 C365.255,491.578 364.792,491.303 364.077,491.303 C363.362,491.303 362.92,491.578 362.75,492.129 C362.58,492.68 362.495,493.518 362.495,494.643 C362.495,495.967 362.58,496.857 362.75,497.314 C362.92,497.771 363.362,498 364.077,498 C364.792,498 365.255,497.725 365.466,497.174 C365.677,496.623 365.782,495.782 365.782,494.651 C365.782,493.52 365.677,492.68 365.466,492.129"/>
<path class="FiguredBass" d="M530.202,484.939 C529.334,484.939 528.757,485.288 528.47,485.985 C528.183,486.683 528.039,487.67 528.039,488.947 L528.039,491.021 C528.649,490.775 529.176,490.646 529.622,490.635 C531.145,490.635 532.343,490.972 533.216,491.645 C534.089,492.319 534.526,493.321 534.526,494.651 C534.526,495.981 534.083,496.986 533.199,497.666 C532.314,498.346 531.122,498.685 529.622,498.685 C528.086,498.685 526.885,497.974 526.018,496.55 C525.151,495.126 524.717,493.435 524.717,491.478 C524.717,489.533 525.221,487.846 526.229,486.416 C527.237,484.986 528.561,484.271 530.202,484.271 C531.28,484.271 532.211,484.544 532.997,485.089 C533.782,485.634 534.174,486.352 534.174,487.242 C534.174,487.758 533.987,488.203 533.612,488.578 C533.237,488.953 532.788,489.141 532.267,489.141 C531.746,489.141 531.297,488.953 530.922,488.578 C530.547,488.203 530.36,487.758 530.36,487.242 C530.36,486.738 530.547,486.293 530.922,485.906 C531.051,485.754 531.233,485.625 531.467,485.519 C531.409,485.367 531.291,485.25 531.116,485.168 C530.858,485.016 530.553,484.939 530.202,484.939 M531.063,492.129 C530.852,491.578 530.389,491.303 529.674,491.303 C528.959,491.303 528.517,491.578 528.347,492.129 C528.177,492.68 528.092,493.518 528.092,494.643 C528.092,495.967 528.177,496.857 528.347,497.314 C528.517,497.771 528.959,498 529.674,498 C530.389,498 530.852,497.725 531.063,497.174 C531.274,496.623 531.379,495.782 531.379,494.651 C531.379,493.52 531.274,492.68 531.063,492.129"/>
<path class="FiguredBass" d="M613.407,484.939 C612.539,484.939 611.962,485.288 611.675,485.985 C611.388,486.683 611.245,487.67 611.245,488.947 L611.245,491.021 C611.854,490.775 612.381,490.646 612.827,490.635 C614.35,490.635 615.548,490.972 616.421,491.645 C617.294,492.319 617.731,493.321 617.731,494.651 C617.731,495.981 617.289,496.986 616.404,497.666 C615.519,498.346 614.327,498.685 612.827,498.685 C611.291,498.685 610.09,497.974 609.223,496.55 C608.356,495.126 607.922,493.435 607.922,491.478 C607.922,489.533 608.426,487.846 609.434,486.416 C610.442,484.986 611.766,484.271 613.407,484.271 C614.485,484.271 615.416,484.544 616.202,485.089 C616.987,485.634 617.379,486.352 617.379,487.242 C617.379,487.758 617.192,488.203 616.817,488.578 C616.442,488.953 615.994,489.141 615.472,489.141 C614.951,489.141 614.502,488.953 614.127,488.578 C613.752,488.203 613.565,487.758 613.565,487.242 C613.565,486.738 613.752,486.293 614.127,485.906 C614.256,485.754 614.438,485.625 614.672,485.519 C614.614,485.367 614.497,485.25 614.321,485.168 C614.063,485.016 613.758,484.939 613.407,484.939 M614.268,492.129 C614.057,491.578 613.594,491.303 612.879,491.303 C612.164,491.303 611.722,491.578 611.552,492.129 C611.382,492.68 611.297,493.518 611.297,494.643 C611.297,495.967 611.382,496.857 611.552,497.314 C611.722,497.771 612.164,498 612.879,498 C613.594,498 614.057,497.725 614.268,497.174 C614.479,496.623 614.584,495.782 614.584,494.651 C614.584,493.52 614.479,492.68 614.268,492.129"/>
<path class="FiguredBass" d="M689.23,496.857 L689.23,500.531 C689.23,500.894 689.045,501.076 688.676,501.076 C688.307,501.076 688.123,500.894 688.123,500.531 L688.123,497.332 L687.56,497.56 C687.502,497.584 687.425,497.596 687.332,497.596 C687.179,497.596 687.044,497.537 686.927,497.42 C686.81,497.303 686.752,497.168 686.752,497.016 L686.752,495.223 C686.752,494.965 686.875,494.783 687.121,494.678 L688.123,494.256 L688.123,490.564 L687.56,490.793 C687.525,490.805 687.478,490.81 687.419,490.81 C687.396,490.81 687.367,490.81 687.332,490.81 C687.156,490.787 687.015,490.723 686.91,490.617 C686.804,490.512 686.752,490.389 686.752,490.248 L686.752,488.455 C686.752,488.209 686.875,488.033 687.121,487.928 L688.123,487.506 L688.123,483.762 C688.123,483.398 688.307,483.217 688.676,483.217 C689.045,483.217 689.23,483.398 689.23,483.762 L689.23,487.049 L691.498,486.1 L691.498,482.426 C691.498,482.062 691.679,481.881 692.043,481.881 C692.406,481.881 692.587,482.062 692.587,482.426 L692.587,485.66 L693.203,485.396 C693.261,485.373 693.326,485.361 693.396,485.361 C693.548,485.361 693.686,485.42 693.809,485.537 C693.932,485.654 693.994,485.789 693.994,485.941 L693.994,487.734 C693.994,487.992 693.865,488.174 693.607,488.279 L692.587,488.701 L692.587,492.41 L693.203,492.164 C693.238,492.152 693.279,492.146 693.326,492.146 C693.349,492.146 693.373,492.146 693.396,492.146 C693.595,492.182 693.745,492.246 693.844,492.34 C693.944,492.434 693.994,492.557 693.994,492.709 L693.994,494.502 C693.994,494.748 693.865,494.924 693.607,495.029 L692.587,495.451 L692.587,499.195 C692.587,499.559 692.406,499.74 692.043,499.74 C691.679,499.74 691.498,499.559 691.498,499.195 L691.498,495.908 L689.23,496.857 M689.23,493.799 L691.498,492.867 L691.498,489.158 L689.23,490.107 L689.23,493.799 "/>
</svg>
