<?xml version="1.0" encoding="UTF-8" standalone="no"?>
<svg width="4209.44px" height="2976.38px" viewBox="0 0 4209.44 2976.38"
 xmlns="http://www.w3.org/2000/svg" xmlns:xlink="http://www.w3.org/1999/xlink" version="1.2" baseProfile="tiny">
<title>La Mineur (12)</title>
<desc>Generated by MuseScore 3.6.2</desc>
<polyline class="StaffLines" fill="none" stroke="#000000" stroke-width="6.55" stroke-linejoin="bevel" points="153.819,558.425 4138.58,558.425"/>
<polyline class="StaffLines" fill="none" stroke="#000000" stroke-width="6.55" stroke-linejoin="bevel" points="153.819,647.717 4138.58,647.717"/>
<polyline class="StaffLines" fill="none" stroke="#000000" stroke-width="6.55" stroke-linejoin="bevel" points="153.819,737.008 4138.58,737.008"/>
<polyline class="StaffLines" fill="none" stroke="#000000" stroke-width="6.55" stroke-linejoin="bevel" points="153.819,826.299 4138.58,826.299"/>
<polyline class="StaffLines" fill="none" stroke="#000000" stroke-width="6.55" stroke-linejoin="bevel" points="153.819,915.591 4138.58,915.591"/>
<polyline class="StaffLines" fill="none" stroke="#000000" stroke-width="6.55" stroke-linejoin="bevel" points="153.819,1004.88 4138.58,1004.88"/>
<polyline class="StaffLines" fill="none" stroke="#000000" stroke-width="6.55" stroke-linejoin="bevel" points="153.819,1391.81 4138.58,1391.81"/>
<polyline class="StaffLines" fill="none" stroke="#000000" stroke-width="6.55" stroke-linejoin="bevel" points="153.819,1451.34 4138.58,1451.34"/>
<polyline class="StaffLines" fill="none" stroke="#000000" stroke-width="6.55" stroke-linejoin="bevel" points="153.819,1510.87 4138.58,1510.87"/>
<polyline class="StaffLines" fill="none" stroke="#000000" stroke-width="6.55" stroke-linejoin="bevel" points="153.819,1570.39 4138.58,1570.39"/>
<polyline class="StaffLines" fill="none" stroke="#000000" stroke-width="6.55" stroke-linejoin="bevel" points="153.819,1629.92 4138.58,1629.92"/>
<polyline class="StaffLines" fill="none" stroke="#000000" stroke-width="6.55" stroke-linejoin="bevel" points="153.819,2158.12 4138.58,2158.12"/>
<polyline class="StaffLines" fill="none" stroke="#000000" stroke-width="6.55" stroke-linejoin="bevel" points="153.819,2217.65 4138.58,2217.65"/>
<polyline class="StaffLines" fill="none" stroke="#000000" stroke-width="6.55" stroke-linejoin="bevel" points="153.819,2277.18 4138.58,2277.18"/>
<polyline class="StaffLines" fill="none" stroke="#000000" stroke-width="6.55" stroke-linejoin="bevel" points="153.819,2336.7 4138.58,2336.7"/>
<polyline class="StaffLines" fill="none" stroke="#000000" stroke-width="6.55" stroke-linejoin="bevel" points="153.819,2396.23 4138.58,2396.23"/>
<polyline class="BarLine" fill="none" stroke="#000000" stroke-width="10.71" stroke-linejoin="bevel" points="159.176,2154.85 159.176,2399.51"/>
<polyline class="BarLine" fill="none" stroke="#000000" stroke-width="10.71" stroke-linejoin="bevel" points="1348.16,2154.85 1348.16,2399.51"/>
<polyline class="BarLine" fill="none" stroke="#000000" stroke-width="10.71" stroke-linejoin="bevel" points="2233.11,2154.85 2233.11,2399.51"/>
<polyline class="BarLine" fill="none" stroke="#000000" stroke-width="10.71" stroke-linejoin="bevel" points="3195.58,2154.85 3195.58,2399.51"/>
<polyline class="BarLine" fill="none" stroke="#000000" stroke-width="10.71" stroke-linejoin="bevel" points="4080.54,2154.85 4080.54,2399.51"/>
<polyline class="BarLine" fill="none" stroke="#000000" stroke-width="32.74" stroke-linejoin="bevel" points="4122.21,2154.85 4122.21,2399.51"/>
<polyline class="BarLine" fill="none" stroke="#000000" stroke-width="10.71" stroke-linejoin="bevel" points="159.176,1388.54 159.176,2158.12"/>
<polyline class="BarLine" fill="none" stroke="#000000" stroke-width="10.71" stroke-linejoin="bevel" points="1348.16,1388.54 1348.16,1633.2"/>
<polyline class="BarLine" fill="none" stroke="#000000" stroke-width="10.71" stroke-linejoin="bevel" points="2233.11,1388.54 2233.11,1633.2"/>
<polyline class="BarLine" fill="none" stroke="#000000" stroke-width="10.71" stroke-linejoin="bevel" points="3195.58,1388.54 3195.58,1633.2"/>
<polyline class="BarLine" fill="none" stroke="#000000" stroke-width="10.71" stroke-linejoin="bevel" points="4080.54,1388.54 4080.54,1633.2"/>
<polyline class="BarLine" fill="none" stroke="#000000" stroke-width="32.74" stroke-linejoin="bevel" points="4122.21,1388.54 4122.21,1633.2"/>
<polyline class="BarLine" fill="none" stroke="#000000" stroke-width="10.71" stroke-linejoin="bevel" points="159.176,555.151 159.176,1391.81"/>
<polyline class="BarLine" fill="none" stroke="#000000" stroke-width="10.71" stroke-linejoin="bevel" points="1348.16,555.151 1348.16,1008.16"/>
<polyline class="BarLine" fill="none" stroke="#000000" stroke-width="10.71" stroke-linejoin="bevel" points="2233.11,555.151 2233.11,1008.16"/>
<polyline class="BarLine" fill="none" stroke="#000000" stroke-width="10.71" stroke-linejoin="bevel" points="3195.58,555.151 3195.58,1008.16"/>
<polyline class="BarLine" fill="none" stroke="#000000" stroke-width="10.71" stroke-linejoin="bevel" points="4080.54,555.151 4080.54,1008.16"/>
<polyline class="BarLine" fill="none" stroke="#000000" stroke-width="32.74" stroke-linejoin="bevel" points="4122.21,555.151 4122.21,1008.16"/>
<path class="Accidental" transform="matrix(2.3811,0,0,2.3811,1411.02,2187.89)" d="M23.3,-10.6 C23.9,-10.7 24.4,-11.4 24.4,-12 L24.4,-17.9 C24.4,-18.7 23.8,-19.3 23,-19.3 L22.8,-19.3 L19.5,-18.6 L19.5,-33.5 L16.7,-33.5 L16.7,-18 L7.8,-16.2 L7.8,-30.3 L5,-30.3 L5,-15.6 L1.1,-14.8 C0.5,-14.7 0,-14 0,-13.4 L0,-13.2 L0,-7.4 L0,-7.6 C0,-6.8 0.6,-6.2 1.4,-6.2 L1.7,-6.2 L5,-6.9 L5,9.6 L1.1,10.4 C0.5,10.5 0,11.2 0,11.8 L0,17.6 C0,18.4 0.6,19 1.4,19 L1.7,19 L5,18.3 L5,33.2 L7.8,33.2 L7.8,17.7 L16.7,15.9 L16.7,30 L19.5,30 L19.5,15.3 L23.3,14.6 C23.9,14.5 24.4,13.8 24.4,13.2 L24.4,7.3 C24.4,6.5 23.8,5.9 23,5.9 L22.8,5.9 L19.5,6.6 L19.5,-9.9 L23.3,-10.6 M7.8,9.1 L7.8,-7.5 L16.7,-9.3 L16.7,7.2 L7.8,9.1 "/>
<path class="Accidental" transform="matrix(2.3811,0,0,2.3811,513.384,1570.39)" d="M23.3,-10.6 C23.9,-10.7 24.4,-11.4 24.4,-12 L24.4,-17.9 C24.4,-18.7 23.8,-19.3 23,-19.3 L22.8,-19.3 L19.5,-18.6 L19.5,-33.5 L16.7,-33.5 L16.7,-18 L7.8,-16.2 L7.8,-30.3 L5,-30.3 L5,-15.6 L1.1,-14.8 C0.5,-14.7 0,-14 0,-13.4 L0,-13.2 L0,-7.4 L0,-7.6 C0,-6.8 0.6,-6.2 1.4,-6.2 L1.7,-6.2 L5,-6.9 L5,9.6 L1.1,10.4 C0.5,10.5 0,11.2 0,11.8 L0,17.6 C0,18.4 0.6,19 1.4,19 L1.7,19 L5,18.3 L5,33.2 L7.8,33.2 L7.8,17.7 L16.7,15.9 L16.7,30 L19.5,30 L19.5,15.3 L23.3,14.6 C23.9,14.5 24.4,13.8 24.4,13.2 L24.4,7.3 C24.4,6.5 23.8,5.9 23,5.9 L22.8,5.9 L19.5,6.6 L19.5,-9.9 L23.3,-10.6 M7.8,9.1 L7.8,-7.5 L16.7,-9.3 L16.7,7.2 L7.8,9.1 "/>
<path class="Accidental" transform="matrix(2.3811,0,0,2.3811,2295.98,1570.39)" d="M23.3,-10.6 C23.9,-10.7 24.4,-11.4 24.4,-12 L24.4,-17.9 C24.4,-18.7 23.8,-19.3 23,-19.3 L22.8,-19.3 L19.5,-18.6 L19.5,-33.5 L16.7,-33.5 L16.7,-18 L7.8,-16.2 L7.8,-30.3 L5,-30.3 L5,-15.6 L1.1,-14.8 C0.5,-14.7 0,-14 0,-13.4 L0,-13.2 L0,-7.4 L0,-7.6 C0,-6.8 0.6,-6.2 1.4,-6.2 L1.7,-6.2 L5,-6.9 L5,9.6 L1.1,10.4 C0.5,10.5 0,11.2 0,11.8 L0,17.6 C0,18.4 0.6,19 1.4,19 L1.7,19 L5,18.3 L5,33.2 L7.8,33.2 L7.8,17.7 L16.7,15.9 L16.7,30 L19.5,30 L19.5,15.3 L23.3,14.6 C23.9,14.5 24.4,13.8 24.4,13.2 L24.4,7.3 C24.4,6.5 23.8,5.9 23,5.9 L22.8,5.9 L19.5,6.6 L19.5,-9.9 L23.3,-10.6 M7.8,9.1 L7.8,-7.5 L16.7,-9.3 L16.7,7.2 L7.8,9.1 "/>
<path class="Accidental" transform="matrix(2.3811,0,0,2.3811,3258.45,1570.39)" d="M23.3,-10.6 C23.9,-10.7 24.4,-11.4 24.4,-12 L24.4,-17.9 C24.4,-18.7 23.8,-19.3 23,-19.3 L22.8,-19.3 L19.5,-18.6 L19.5,-33.5 L16.7,-33.5 L16.7,-18 L7.8,-16.2 L7.8,-30.3 L5,-30.3 L5,-15.6 L1.1,-14.8 C0.5,-14.7 0,-14 0,-13.4 L0,-13.2 L0,-7.4 L0,-7.6 C0,-6.8 0.6,-6.2 1.4,-6.2 L1.7,-6.2 L5,-6.9 L5,9.6 L1.1,10.4 C0.5,10.5 0,11.2 0,11.8 L0,17.6 C0,18.4 0.6,19 1.4,19 L1.7,19 L5,18.3 L5,33.2 L7.8,33.2 L7.8,17.7 L16.7,15.9 L16.7,30 L19.5,30 L19.5,15.3 L23.3,14.6 C23.9,14.5 24.4,13.8 24.4,13.2 L24.4,7.3 C24.4,6.5 23.8,5.9 23,5.9 L22.8,5.9 L19.5,6.6 L19.5,-9.9 L23.3,-10.6 M7.8,9.1 L7.8,-7.5 L16.7,-9.3 L16.7,7.2 L7.8,9.1 "/>
<path class="Note" transform="matrix(2.3811,0,0,2.3811,586.361,2247.41)" d="M18.7,-13.6 C4.9,-13.6 0,-6.6 0,-0.1 C0,6.4 4.9,13.4 18.7,13.4 C32.5,13.4 37.3,6.4 37.3,-0.1 C37.3,-6.6 32.5,-13.6 18.7,-13.6 M10.4,-4.5 C10.3,-4.9 10.3,-5.3 10.3,-5.7 C10.3,-6.5 10.5,-7.3 10.9,-8 C11.6,-9 12.8,-9.7 14.3,-10 C15.6,-10.3 16.3,-10.5 18.9,-10.5 L19,-10.5 C23,-10.5 24.3,-6.8 25.4,-3 L25.7,-2 C26.5,0.6 26.9,2.8 26.9,4.5 C26.9,5.7 26.7,6.8 26.3,7.6 C25.7,8.7 24.7,9.4 23,9.8 C22.1,10 20.6,10.1 20.6,10.1 C20.1,10.1 19.7,10.2 19.3,10.2 C16.1,10.2 14.1,9 12.7,4.7 C11.5,1 11.3,-0.1 10.4,-4.5"/>
<path class="Note" transform="matrix(2.3811,0,0,2.3811,1484,2187.89)" d="M18.7,-13.6 C4.9,-13.6 0,-6.6 0,-0.1 C0,6.4 4.9,13.4 18.7,13.4 C32.5,13.4 37.3,6.4 37.3,-0.1 C37.3,-6.6 32.5,-13.6 18.7,-13.6 M10.4,-4.5 C10.3,-4.9 10.3,-5.3 10.3,-5.7 C10.3,-6.5 10.5,-7.3 10.9,-8 C11.6,-9 12.8,-9.7 14.3,-10 C15.6,-10.3 16.3,-10.5 18.9,-10.5 L19,-10.5 C23,-10.5 24.3,-6.8 25.4,-3 L25.7,-2 C26.5,0.6 26.9,2.8 26.9,4.5 C26.9,5.7 26.7,6.8 26.3,7.6 C25.7,8.7 24.7,9.4 23,9.8 C22.1,10 20.6,10.1 20.6,10.1 C20.1,10.1 19.7,10.2 19.3,10.2 C16.1,10.2 14.1,9 12.7,4.7 C11.5,1 11.3,-0.1 10.4,-4.5"/>
<path class="Note" transform="matrix(2.3811,0,0,2.3811,2446.46,2128.36)" d="M18.7,-13.6 C4.9,-13.6 0,-6.6 0,-0.1 C0,6.4 4.9,13.4 18.7,13.4 C32.5,13.4 37.3,6.4 37.3,-0.1 C37.3,-6.6 32.5,-13.6 18.7,-13.6 M10.4,-4.5 C10.3,-4.9 10.3,-5.3 10.3,-5.7 C10.3,-6.5 10.5,-7.3 10.9,-8 C11.6,-9 12.8,-9.7 14.3,-10 C15.6,-10.3 16.3,-10.5 18.9,-10.5 L19,-10.5 C23,-10.5 24.3,-6.8 25.4,-3 L25.7,-2 C26.5,0.6 26.9,2.8 26.9,4.5 C26.9,5.7 26.7,6.8 26.3,7.6 C25.7,8.7 24.7,9.4 23,9.8 C22.1,10 20.6,10.1 20.6,10.1 C20.1,10.1 19.7,10.2 19.3,10.2 C16.1,10.2 14.1,9 12.7,4.7 C11.5,1 11.3,-0.1 10.4,-4.5"/>
<path class="Note" transform="matrix(2.3811,0,0,2.3811,3331.42,2277.18)" d="M18.7,-13.6 C4.9,-13.6 0,-6.6 0,-0.1 C0,6.4 4.9,13.4 18.7,13.4 C32.5,13.4 37.3,6.4 37.3,-0.1 C37.3,-6.6 32.5,-13.6 18.7,-13.6 M10.4,-4.5 C10.3,-4.9 10.3,-5.3 10.3,-5.7 C10.3,-6.5 10.5,-7.3 10.9,-8 C11.6,-9 12.8,-9.7 14.3,-10 C15.6,-10.3 16.3,-10.5 18.9,-10.5 L19,-10.5 C23,-10.5 24.3,-6.8 25.4,-3 L25.7,-2 C26.5,0.6 26.9,2.8 26.9,4.5 C26.9,5.7 26.7,6.8 26.3,7.6 C25.7,8.7 24.7,9.4 23,9.8 C22.1,10 20.6,10.1 20.6,10.1 C20.1,10.1 19.7,10.2 19.3,10.2 C16.1,10.2 14.1,9 12.7,4.7 C11.5,1 11.3,-0.1 10.4,-4.5"/>
<path class="Note" transform="matrix(2.3811,0,0,2.3811,586.361,1570.39)" d="M18.7,-13.6 C4.9,-13.6 0,-6.6 0,-0.1 C0,6.4 4.9,13.4 18.7,13.4 C32.5,13.4 37.3,6.4 37.3,-0.1 C37.3,-6.6 32.5,-13.6 18.7,-13.6 M10.4,-4.5 C10.3,-4.9 10.3,-5.3 10.3,-5.7 C10.3,-6.5 10.5,-7.3 10.9,-8 C11.6,-9 12.8,-9.7 14.3,-10 C15.6,-10.3 16.3,-10.5 18.9,-10.5 L19,-10.5 C23,-10.5 24.3,-6.8 25.4,-3 L25.7,-2 C26.5,0.6 26.9,2.8 26.9,4.5 C26.9,5.7 26.7,6.8 26.3,7.6 C25.7,8.7 24.7,9.4 23,9.8 C22.1,10 20.6,10.1 20.6,10.1 C20.1,10.1 19.7,10.2 19.3,10.2 C16.1,10.2 14.1,9 12.7,4.7 C11.5,1 11.3,-0.1 10.4,-4.5"/>
<path class="Note" transform="matrix(2.3811,0,0,2.3811,586.361,1510.87)" d="M18.7,-13.6 C4.9,-13.6 0,-6.6 0,-0.1 C0,6.4 4.9,13.4 18.7,13.4 C32.5,13.4 37.3,6.4 37.3,-0.1 C37.3,-6.6 32.5,-13.6 18.7,-13.6 M10.4,-4.5 C10.3,-4.9 10.3,-5.3 10.3,-5.7 C10.3,-6.5 10.5,-7.3 10.9,-8 C11.6,-9 12.8,-9.7 14.3,-10 C15.6,-10.3 16.3,-10.5 18.9,-10.5 L19,-10.5 C23,-10.5 24.3,-6.8 25.4,-3 L25.7,-2 C26.5,0.6 26.9,2.8 26.9,4.5 C26.9,5.7 26.7,6.8 26.3,7.6 C25.7,8.7 24.7,9.4 23,9.8 C22.1,10 20.6,10.1 20.6,10.1 C20.1,10.1 19.7,10.2 19.3,10.2 C16.1,10.2 14.1,9 12.7,4.7 C11.5,1 11.3,-0.1 10.4,-4.5"/>
<path class="Note" transform="matrix(2.3811,0,0,2.3811,586.361,1451.34)" d="M18.7,-13.6 C4.9,-13.6 0,-6.6 0,-0.1 C0,6.4 4.9,13.4 18.7,13.4 C32.5,13.4 37.3,6.4 37.3,-0.1 C37.3,-6.6 32.5,-13.6 18.7,-13.6 M10.4,-4.5 C10.3,-4.9 10.3,-5.3 10.3,-5.7 C10.3,-6.5 10.5,-7.3 10.9,-8 C11.6,-9 12.8,-9.7 14.3,-10 C15.6,-10.3 16.3,-10.5 18.9,-10.5 L19,-10.5 C23,-10.5 24.3,-6.8 25.4,-3 L25.7,-2 C26.5,0.6 26.9,2.8 26.9,4.5 C26.9,5.7 26.7,6.8 26.3,7.6 C25.7,8.7 24.7,9.4 23,9.8 C22.1,10 20.6,10.1 20.6,10.1 C20.1,10.1 19.7,10.2 19.3,10.2 C16.1,10.2 14.1,9 12.7,4.7 C11.5,1 11.3,-0.1 10.4,-4.5"/>
<path class="Note" transform="matrix(2.3811,0,0,2.3811,1484,1510.87)" d="M18.7,-13.6 C4.9,-13.6 0,-6.6 0,-0.1 C0,6.4 4.9,13.4 18.7,13.4 C32.5,13.4 37.3,6.4 37.3,-0.1 C37.3,-6.6 32.5,-13.6 18.7,-13.6 M10.4,-4.5 C10.3,-4.9 10.3,-5.3 10.3,-5.7 C10.3,-6.5 10.5,-7.3 10.9,-8 C11.6,-9 12.8,-9.7 14.3,-10 C15.6,-10.3 16.3,-10.5 18.9,-10.5 L19,-10.5 C23,-10.5 24.3,-6.8 25.4,-3 L25.7,-2 C26.5,0.6 26.9,2.8 26.9,4.5 C26.9,5.7 26.7,6.8 26.3,7.6 C25.7,8.7 24.7,9.4 23,9.8 C22.1,10 20.6,10.1 20.6,10.1 C20.1,10.1 19.7,10.2 19.3,10.2 C16.1,10.2 14.1,9 12.7,4.7 C11.5,1 11.3,-0.1 10.4,-4.5"/>
<path class="Note" transform="matrix(2.3811,0,0,2.3811,1401.74,1451.34)" d="M18.7,-13.6 C4.9,-13.6 0,-6.6 0,-0.1 C0,6.4 4.9,13.4 18.7,13.4 C32.5,13.4 37.3,6.4 37.3,-0.1 C37.3,-6.6 32.5,-13.6 18.7,-13.6 M10.4,-4.5 C10.3,-4.9 10.3,-5.3 10.3,-5.7 C10.3,-6.5 10.5,-7.3 10.9,-8 C11.6,-9 12.8,-9.7 14.3,-10 C15.6,-10.3 16.3,-10.5 18.9,-10.5 L19,-10.5 C23,-10.5 24.3,-6.8 25.4,-3 L25.7,-2 C26.5,0.6 26.9,2.8 26.9,4.5 C26.9,5.7 26.7,6.8 26.3,7.6 C25.7,8.7 24.7,9.4 23,9.8 C22.1,10 20.6,10.1 20.6,10.1 C20.1,10.1 19.7,10.2 19.3,10.2 C16.1,10.2 14.1,9 12.7,4.7 C11.5,1 11.3,-0.1 10.4,-4.5"/>
<path class="Note" transform="matrix(2.3811,0,0,2.3811,1484,1421.57)" d="M18.7,-13.6 C4.9,-13.6 0,-6.6 0,-0.1 C0,6.4 4.9,13.4 18.7,13.4 C32.5,13.4 37.3,6.4 37.3,-0.1 C37.3,-6.6 32.5,-13.6 18.7,-13.6 M10.4,-4.5 C10.3,-4.9 10.3,-5.3 10.3,-5.7 C10.3,-6.5 10.5,-7.3 10.9,-8 C11.6,-9 12.8,-9.7 14.3,-10 C15.6,-10.3 16.3,-10.5 18.9,-10.5 L19,-10.5 C23,-10.5 24.3,-6.8 25.4,-3 L25.7,-2 C26.5,0.6 26.9,2.8 26.9,4.5 C26.9,5.7 26.7,6.8 26.3,7.6 C25.7,8.7 24.7,9.4 23,9.8 C22.1,10 20.6,10.1 20.6,10.1 C20.1,10.1 19.7,10.2 19.3,10.2 C16.1,10.2 14.1,9 12.7,4.7 C11.5,1 11.3,-0.1 10.4,-4.5"/>
<path class="Note" transform="matrix(2.3811,0,0,2.3811,2446.46,1570.39)" d="M18.7,-13.6 C4.9,-13.6 0,-6.6 0,-0.1 C0,6.4 4.9,13.4 18.7,13.4 C32.5,13.4 37.3,6.4 37.3,-0.1 C37.3,-6.6 32.5,-13.6 18.7,-13.6 M10.4,-4.5 C10.3,-4.9 10.3,-5.3 10.3,-5.7 C10.3,-6.5 10.5,-7.3 10.9,-8 C11.6,-9 12.8,-9.7 14.3,-10 C15.6,-10.3 16.3,-10.5 18.9,-10.5 L19,-10.5 C23,-10.5 24.3,-6.8 25.4,-3 L25.7,-2 C26.5,0.6 26.9,2.8 26.9,4.5 C26.9,5.7 26.7,6.8 26.3,7.6 C25.7,8.7 24.7,9.4 23,9.8 C22.1,10 20.6,10.1 20.6,10.1 C20.1,10.1 19.7,10.2 19.3,10.2 C16.1,10.2 14.1,9 12.7,4.7 C11.5,1 11.3,-0.1 10.4,-4.5"/>
<path class="Note" transform="matrix(2.3811,0,0,2.3811,2364.21,1451.34)" d="M18.7,-13.6 C4.9,-13.6 0,-6.6 0,-0.1 C0,6.4 4.9,13.4 18.7,13.4 C32.5,13.4 37.3,6.4 37.3,-0.1 C37.3,-6.6 32.5,-13.6 18.7,-13.6 M10.4,-4.5 C10.3,-4.9 10.3,-5.3 10.3,-5.7 C10.3,-6.5 10.5,-7.3 10.9,-8 C11.6,-9 12.8,-9.7 14.3,-10 C15.6,-10.3 16.3,-10.5 18.9,-10.5 L19,-10.5 C23,-10.5 24.3,-6.8 25.4,-3 L25.7,-2 C26.5,0.6 26.9,2.8 26.9,4.5 C26.9,5.7 26.7,6.8 26.3,7.6 C25.7,8.7 24.7,9.4 23,9.8 C22.1,10 20.6,10.1 20.6,10.1 C20.1,10.1 19.7,10.2 19.3,10.2 C16.1,10.2 14.1,9 12.7,4.7 C11.5,1 11.3,-0.1 10.4,-4.5"/>
<path class="Note" transform="matrix(2.3811,0,0,2.3811,2446.46,1421.57)" d="M18.7,-13.6 C4.9,-13.6 0,-6.6 0,-0.1 C0,6.4 4.9,13.4 18.7,13.4 C32.5,13.4 37.3,6.4 37.3,-0.1 C37.3,-6.6 32.5,-13.6 18.7,-13.6 M10.4,-4.5 C10.3,-4.9 10.3,-5.3 10.3,-5.7 C10.3,-6.5 10.5,-7.3 10.9,-8 C11.6,-9 12.8,-9.7 14.3,-10 C15.6,-10.3 16.3,-10.5 18.9,-10.5 L19,-10.5 C23,-10.5 24.3,-6.8 25.4,-3 L25.7,-2 C26.5,0.6 26.9,2.8 26.9,4.5 C26.9,5.7 26.7,6.8 26.3,7.6 C25.7,8.7 24.7,9.4 23,9.8 C22.1,10 20.6,10.1 20.6,10.1 C20.1,10.1 19.7,10.2 19.3,10.2 C16.1,10.2 14.1,9 12.7,4.7 C11.5,1 11.3,-0.1 10.4,-4.5"/>
<path class="Note" transform="matrix(2.3811,0,0,2.3811,3331.42,1570.39)" d="M18.7,-13.6 C4.9,-13.6 0,-6.6 0,-0.1 C0,6.4 4.9,13.4 18.7,13.4 C32.5,13.4 37.3,6.4 37.3,-0.1 C37.3,-6.6 32.5,-13.6 18.7,-13.6 M10.4,-4.5 C10.3,-4.9 10.3,-5.3 10.3,-5.7 C10.3,-6.5 10.5,-7.3 10.9,-8 C11.6,-9 12.8,-9.7 14.3,-10 C15.6,-10.3 16.3,-10.5 18.9,-10.5 L19,-10.5 C23,-10.5 24.3,-6.8 25.4,-3 L25.7,-2 C26.5,0.6 26.9,2.8 26.9,4.5 C26.9,5.7 26.7,6.8 26.3,7.6 C25.7,8.7 24.7,9.4 23,9.8 C22.1,10 20.6,10.1 20.6,10.1 C20.1,10.1 19.7,10.2 19.3,10.2 C16.1,10.2 14.1,9 12.7,4.7 C11.5,1 11.3,-0.1 10.4,-4.5"/>
<path class="Note" transform="matrix(2.3811,0,0,2.3811,3331.42,1510.87)" d="M18.7,-13.6 C4.9,-13.6 0,-6.6 0,-0.1 C0,6.4 4.9,13.4 18.7,13.4 C32.5,13.4 37.3,6.4 37.3,-0.1 C37.3,-6.6 32.5,-13.6 18.7,-13.6 M10.4,-4.5 C10.3,-4.9 10.3,-5.3 10.3,-5.7 C10.3,-6.5 10.5,-7.3 10.9,-8 C11.6,-9 12.8,-9.7 14.3,-10 C15.6,-10.3 16.3,-10.5 18.9,-10.5 L19,-10.5 C23,-10.5 24.3,-6.8 25.4,-3 L25.7,-2 C26.5,0.6 26.9,2.8 26.9,4.5 C26.9,5.7 26.7,6.8 26.3,7.6 C25.7,8.7 24.7,9.4 23,9.8 C22.1,10 20.6,10.1 20.6,10.1 C20.1,10.1 19.7,10.2 19.3,10.2 C16.1,10.2 14.1,9 12.7,4.7 C11.5,1 11.3,-0.1 10.4,-4.5"/>
<path class="Note" transform="matrix(2.3811,0,0,2.3811,3331.42,1421.57)" d="M18.7,-13.6 C4.9,-13.6 0,-6.6 0,-0.1 C0,6.4 4.9,13.4 18.7,13.4 C32.5,13.4 37.3,6.4 37.3,-0.1 C37.3,-6.6 32.5,-13.6 18.7,-13.6 M10.4,-4.5 C10.3,-4.9 10.3,-5.3 10.3,-5.7 C10.3,-6.5 10.5,-7.3 10.9,-8 C11.6,-9 12.8,-9.7 14.3,-10 C15.6,-10.3 16.3,-10.5 18.9,-10.5 L19,-10.5 C23,-10.5 24.3,-6.8 25.4,-3 L25.7,-2 C26.5,0.6 26.9,2.8 26.9,4.5 C26.9,5.7 26.7,6.8 26.3,7.6 C25.7,8.7 24.7,9.4 23,9.8 C22.1,10 20.6,10.1 20.6,10.1 C20.1,10.1 19.7,10.2 19.3,10.2 C16.1,10.2 14.1,9 12.7,4.7 C11.5,1 11.3,-0.1 10.4,-4.5"/>
<path class="Note" d="M620.904,910.409 C617.108,910.409 615.209,906.342 615.209,898.207 L615.209,864.157 C615.209,860.903 616.798,859.276 619.974,859.276 C621.369,859.276 622.415,859.392 623.112,859.625 C625.591,855.286 629.658,851.645 635.314,848.701 C643.216,844.595 651.235,842.542 659.37,842.542 C665.8,842.542 669.015,844.943 669.015,849.747 C669.015,853.776 666.846,855.79 662.507,855.79 C659.408,855.79 656.464,855.093 653.675,853.698 C651.196,852.458 648.562,851.839 645.773,851.839 C640.97,851.839 633.881,854.976 624.506,861.252 C625.823,867.527 626.482,874.848 626.482,883.216 C626.482,901.345 624.623,910.409 620.904,910.409"/>
<path class="Note" d="M700.973,616.271 C694.62,626.265 684.587,634.555 670.874,641.14 C658.944,646.874 647.787,649.74 637.406,649.74 C629.116,649.74 622.221,648.074 616.72,644.743 C610.755,641.102 607.772,636.763 607.772,631.727 C607.772,620.339 610.755,610.538 616.72,602.326 C624.855,591.17 633.067,585.592 641.357,585.592 C647.245,585.592 651.429,586.754 653.908,589.078 C657.317,592.099 659.021,596.244 659.021,601.513 C659.021,608.95 653.482,615.419 642.403,620.92 C631.634,626.265 624.158,629.752 619.974,631.379 C620.904,633.316 622.105,635.059 623.577,636.608 C627.218,640.482 632.176,642.419 638.452,642.419 C646.354,642.419 656.968,639.513 670.293,633.703 C683.077,628.047 693.303,622.237 700.973,616.271 M618.347,626.033 C624.158,623.089 629.465,619.641 634.268,615.69 C641.396,609.88 644.959,603.604 644.959,596.864 C644.959,593.068 643.216,591.17 639.73,591.17 C636.786,591.17 632.757,594.54 627.644,601.28 C621.214,609.647 617.999,616.465 617.999,621.733 C617.999,623.205 618.115,624.638 618.347,626.033"/>
<path class="Note" d="M620.904,553.244 C617.108,553.244 615.209,549.176 615.209,541.041 L615.209,506.992 C615.209,503.738 616.798,502.111 619.974,502.111 C621.369,502.111 622.415,502.227 623.112,502.459 C625.591,498.121 629.658,494.48 635.314,491.536 C643.216,487.43 651.235,485.376 659.37,485.376 C665.8,485.376 669.015,487.778 669.015,492.582 C669.015,496.61 666.846,498.624 662.507,498.624 C659.408,498.624 656.464,497.927 653.675,496.533 C651.196,495.293 648.562,494.673 645.773,494.673 C640.97,494.673 633.881,497.811 624.506,504.086 C625.823,510.362 626.482,517.683 626.482,526.05 C626.482,544.179 624.623,553.244 620.904,553.244"/>
<path class="Note" d="M700.973,794.854 C694.62,804.848 684.587,813.138 670.874,819.723 C658.944,825.456 647.787,828.323 637.406,828.323 C629.116,828.323 622.221,826.657 616.72,823.326 C610.755,819.684 607.772,815.346 607.772,810.31 C607.772,798.921 610.755,789.121 616.72,780.909 C624.855,769.752 633.067,764.174 641.357,764.174 C647.245,764.174 651.429,765.336 653.908,767.661 C657.317,770.682 659.021,774.827 659.021,780.095 C659.021,787.533 653.482,794.002 642.403,799.502 C631.634,804.848 624.158,808.334 619.974,809.961 C620.904,811.898 622.105,813.641 623.577,815.191 C627.218,819.065 632.176,821.001 638.452,821.001 C646.354,821.001 656.968,818.096 670.293,812.286 C683.077,806.63 693.303,800.819 700.973,794.854 M618.347,804.616 C624.158,801.672 629.465,798.224 634.268,794.273 C641.396,788.462 644.959,782.187 644.959,775.447 C644.959,771.651 643.216,769.752 639.73,769.752 C636.786,769.752 632.757,773.123 627.644,779.863 C621.214,788.23 617.999,795.048 617.999,800.316 C617.999,801.788 618.115,803.221 618.347,804.616"/>
<path class="Note" d="M554.092,677.207 C554.401,665.509 560.871,655.127 573.499,646.063 C584.733,638.005 597.012,633.977 610.338,633.977 C629.009,633.977 645.472,641.298 659.727,655.941 C668.792,665.315 673.324,676.936 673.324,690.804 C673.324,703.277 669.993,712.845 663.33,719.508 C655.195,727.72 646.595,731.826 637.531,731.826 C631.333,731.826 626.53,730.432 623.121,727.643 C617.543,723.072 614.754,716.951 614.754,709.281 C614.754,699.365 619.712,690.3 629.629,682.088 C637.763,675.348 645.937,670.932 654.149,668.84 C651.98,665.121 649.23,661.635 645.898,658.381 C635.517,648.232 623.741,643.157 610.57,643.157 C596.857,643.157 585.507,646.14 576.52,652.106 C567.223,658.226 559.747,666.593 554.092,677.207 M657.054,674.999 C652.793,678.95 648.532,683.173 644.271,687.666 C635.904,696.498 631.72,704.865 631.72,712.768 C631.72,721.212 633.657,725.435 637.531,725.435 C641.017,725.435 645.898,720.67 652.174,711.141 C657.209,703.548 659.727,696.576 659.727,690.223 C659.727,684.8 658.836,679.725 657.054,674.999"/>
<path class="Note" d="M1576.88,852.652 C1576.88,861.562 1566.73,881.124 1546.43,911.339 C1538.38,923.347 1526.79,932.14 1511.69,937.719 C1500.53,941.902 1487.63,943.994 1472.99,943.994 C1468.26,943.994 1464.08,943.026 1460.44,941.089 C1456.41,938.997 1454.39,936.711 1454.39,934.232 C1454.39,927.802 1457.84,924.587 1464.74,924.587 C1465.74,924.587 1466.25,925.207 1466.25,926.446 C1466.25,927.531 1465.74,928.732 1464.74,930.049 C1463.5,931.676 1462.88,932.876 1462.88,933.651 C1462.88,935.975 1466.36,937.138 1473.34,937.138 C1488.99,937.138 1501.34,935.239 1510.41,931.443 C1519.86,927.569 1529.27,917.692 1538.65,901.809 L1541.32,896.812 C1536.83,900.221 1532.37,901.926 1527.96,901.926 C1516.95,901.926 1511.45,897.471 1511.45,888.561 C1511.45,878.955 1517.92,868.844 1530.86,858.23 C1541.01,850.018 1550.04,845.912 1557.94,845.912 C1561.89,845.912 1565.18,846.958 1567.82,849.05 C1568.75,848.352 1569.91,848.004 1571.3,848.004 C1575.02,848.004 1576.88,849.553 1576.88,852.652 M1542.71,894.372 L1564.68,853.814 C1562.97,853.427 1561.08,853.233 1558.98,853.233 C1551.47,853.233 1544.19,857.61 1537.14,866.365 C1528.92,876.592 1524.82,884.765 1524.82,890.886 C1524.82,894.914 1527.49,896.929 1532.84,896.929 C1535.39,896.929 1538.69,896.076 1542.71,894.372"/>
<path class="Note" d="M1505.06,642.535 C1500.88,642.535 1498.79,640.637 1498.79,636.841 C1498.79,630.41 1499.75,625.684 1501.69,622.663 C1509.75,610.732 1527.26,588.419 1554.22,555.725 C1566.38,540.928 1582.07,533.529 1601.28,533.529 C1608.72,533.529 1613.87,534.575 1616.74,536.667 C1621.16,539.921 1623.36,543.833 1623.36,548.404 C1623.36,553.207 1619.49,558.553 1611.74,564.441 C1604.38,570.019 1597.41,572.808 1590.83,572.808 C1588.27,572.808 1586.99,572.537 1586.99,571.995 C1586.99,571.22 1588.23,570.407 1590.71,569.555 C1594.04,568.315 1597.6,565.797 1601.4,562.001 C1605.74,557.585 1607.91,553.595 1607.91,550.031 C1607.91,547.629 1606.24,545.344 1602.91,543.175 C1599.97,541.315 1595.2,540.386 1588.62,540.386 C1579.01,540.386 1566.89,550.07 1552.24,569.438 C1542.48,582.376 1534.58,593.765 1528.54,603.604 C1531.48,601.977 1535.01,600.002 1539.11,597.678 C1544.15,594.811 1548.49,593.378 1552.13,593.378 C1561.19,593.378 1565.72,596.632 1565.72,603.139 C1565.72,609.57 1562,616.62 1554.57,624.29 C1549.3,629.713 1546.67,633.742 1546.67,636.376 C1546.67,639.087 1549.3,640.443 1554.57,640.443 C1557.2,640.443 1559.91,639.513 1562.7,637.654 C1565.49,635.872 1567.54,634.981 1568.86,634.981 C1569.95,634.981 1570.49,635.679 1570.49,637.073 C1570.49,639.32 1568.32,641.683 1563.98,644.162 C1556.7,648.346 1550.85,650.437 1546.43,650.437 C1538.61,650.437 1534.7,646.254 1534.7,637.887 C1534.7,632.618 1537.72,626.769 1543.76,620.339 C1548.18,615.613 1550.38,610.926 1550.38,606.277 C1550.38,602.249 1548.21,600.234 1543.88,600.234 C1542.17,600.234 1536.52,602.249 1526.91,606.277 C1524.04,611.081 1521.64,615.497 1519.7,619.525 C1512.34,634.865 1507.46,642.535 1505.06,642.535"/>
<path class="Note" d="M1577.69,471.896 C1582.03,468.952 1585.17,466.512 1587.11,464.575 C1590.67,460.778 1592.45,457.292 1592.45,454.116 C1592.45,450.474 1590.44,448.654 1586.41,448.654 C1578.58,448.654 1570.22,455.549 1561.31,469.339 C1558.6,473.523 1552.63,487.158 1543.41,510.246 C1550.77,517.838 1554.45,522.138 1554.45,523.145 C1554.45,524.54 1553.56,525.237 1551.78,525.237 C1550.38,525.237 1546.55,522.874 1540.27,518.148 C1533.46,534.03 1523.11,547.588 1509.25,558.822 C1495.07,570.288 1478.14,576.021 1458.46,576.021 C1450.95,576.021 1441.53,574.278 1430.22,570.791 C1421.16,568.002 1416.63,563.548 1416.63,557.427 C1416.63,548.363 1420.11,543.831 1427.08,543.831 C1431.27,543.831 1433.36,545.767 1433.36,549.641 C1433.36,550.881 1432.39,552.198 1430.45,553.592 C1429.45,554.29 1428.94,555.645 1428.94,557.66 C1428.94,560.061 1431.62,562.541 1436.96,565.097 C1442.77,567.886 1451.29,569.281 1462.53,569.281 C1477.02,569.281 1491,563.005 1504.48,550.455 C1516.72,539.066 1525.51,525.818 1530.86,510.71 C1528.77,509.006 1526.52,507.147 1524.12,505.132 C1516.68,500.716 1512.96,496.184 1512.96,491.536 C1512.96,489.599 1514.24,488.63 1516.8,488.63 C1520.21,488.63 1524.82,491.536 1530.63,497.346 C1531.87,498.586 1533.03,499.748 1534.11,500.832 C1536.83,493.395 1541.16,483.943 1547.13,472.477 C1557.9,451.714 1570.99,441.332 1586.41,441.332 C1591.91,441.332 1596.25,442.378 1599.42,444.47 C1602.6,446.562 1604.19,449.429 1604.19,453.07 C1604.19,458.88 1602.06,463.8 1597.8,467.829 C1593.38,472.012 1588.77,474.104 1583.97,474.104 C1579.79,474.104 1577.69,473.368 1577.69,471.896"/>
<path class="Note" d="M1577.69,650.479 C1582.03,647.535 1585.17,645.094 1587.11,643.157 C1590.67,639.361 1592.45,635.875 1592.45,632.698 C1592.45,629.057 1590.44,627.236 1586.41,627.236 C1578.58,627.236 1570.22,634.132 1561.31,647.922 C1558.6,652.106 1552.63,665.741 1543.41,688.828 C1550.77,696.421 1554.45,700.721 1554.45,701.728 C1554.45,703.122 1553.56,703.819 1551.78,703.819 C1550.38,703.819 1546.55,701.457 1540.27,696.731 C1533.46,712.613 1523.11,726.171 1509.25,737.404 C1495.07,748.871 1478.14,754.604 1458.46,754.604 C1450.95,754.604 1441.53,752.86 1430.22,749.374 C1421.16,746.585 1416.63,742.13 1416.63,736.01 C1416.63,726.945 1420.11,722.413 1427.08,722.413 C1431.27,722.413 1433.36,724.35 1433.36,728.224 C1433.36,729.463 1432.39,730.78 1430.45,732.175 C1429.45,732.872 1428.94,734.228 1428.94,736.242 C1428.94,738.644 1431.62,741.123 1436.96,743.68 C1442.77,746.469 1451.29,747.863 1462.53,747.863 C1477.02,747.863 1491,741.588 1504.48,729.037 C1516.72,717.649 1525.51,704.401 1530.86,689.293 C1528.77,687.589 1526.52,685.729 1524.12,683.715 C1516.68,679.299 1512.96,674.767 1512.96,670.118 C1512.96,668.181 1514.24,667.213 1516.8,667.213 C1520.21,667.213 1524.82,670.118 1530.63,675.929 C1531.87,677.168 1533.03,678.331 1534.11,679.415 C1536.83,671.978 1541.16,662.526 1547.13,651.06 C1557.9,630.297 1570.99,619.915 1586.41,619.915 C1591.91,619.915 1596.25,620.961 1599.42,623.053 C1602.6,625.145 1604.19,628.011 1604.19,631.652 C1604.19,637.463 1602.06,642.383 1597.8,646.411 C1593.38,650.595 1588.77,652.687 1583.97,652.687 C1579.79,652.687 1577.69,651.951 1577.69,650.479"/>
<path class="Note" d="M2561.08,616.271 C2554.72,626.265 2544.69,634.555 2530.98,641.14 C2519.05,646.874 2507.89,649.74 2497.51,649.74 C2489.22,649.74 2482.32,648.074 2476.82,644.743 C2470.86,641.102 2467.88,636.763 2467.88,631.727 C2467.88,620.339 2470.86,610.538 2476.82,602.326 C2484.96,591.17 2493.17,585.592 2501.46,585.592 C2507.35,585.592 2511.53,586.754 2514.01,589.078 C2517.42,592.099 2519.12,596.244 2519.12,601.513 C2519.12,608.95 2513.59,615.419 2502.51,620.92 C2491.74,626.265 2484.26,629.752 2480.08,631.379 C2481.01,633.316 2482.21,635.059 2483.68,636.608 C2487.32,640.482 2492.28,642.419 2498.56,642.419 C2506.46,642.419 2517.07,639.513 2530.4,633.703 C2543.18,628.047 2553.41,622.237 2561.08,616.271 M2478.45,626.033 C2484.26,623.089 2489.57,619.641 2494.37,615.69 C2501.5,609.88 2505.06,603.604 2505.06,596.864 C2505.06,593.068 2503.32,591.17 2499.83,591.17 C2496.89,591.17 2492.86,594.54 2487.75,601.28 C2481.32,609.647 2478.1,616.465 2478.1,621.733 C2478.1,623.205 2478.22,624.638 2478.45,626.033"/>
<path class="Note" d="M2561.08,794.854 C2554.72,804.848 2544.69,813.138 2530.98,819.723 C2519.05,825.456 2507.89,828.323 2497.51,828.323 C2489.22,828.323 2482.32,826.657 2476.82,823.326 C2470.86,819.684 2467.88,815.346 2467.88,810.31 C2467.88,798.921 2470.86,789.121 2476.82,780.909 C2484.96,769.752 2493.17,764.174 2501.46,764.174 C2507.35,764.174 2511.53,765.336 2514.01,767.661 C2517.42,770.682 2519.12,774.827 2519.12,780.095 C2519.12,787.533 2513.59,794.002 2502.51,799.502 C2491.74,804.848 2484.26,808.334 2480.08,809.961 C2481.01,811.898 2482.21,813.641 2483.68,815.191 C2487.32,819.065 2492.28,821.001 2498.56,821.001 C2506.46,821.001 2517.07,818.096 2530.4,812.286 C2543.18,806.63 2553.41,800.819 2561.08,794.854 M2478.45,804.616 C2484.26,801.672 2489.57,798.224 2494.37,794.273 C2501.5,788.462 2505.06,782.187 2505.06,775.447 C2505.06,771.651 2503.32,769.752 2499.83,769.752 C2496.89,769.752 2492.86,773.123 2487.75,779.863 C2481.32,788.23 2478.1,795.048 2478.1,800.316 C2478.1,801.788 2478.22,803.221 2478.45,804.616"/>
<path class="Note" d="M2540.16,471.896 C2544.5,468.952 2547.64,466.512 2549.57,464.575 C2553.14,460.778 2554.92,457.292 2554.92,454.116 C2554.92,450.474 2552.9,448.654 2548.87,448.654 C2541.05,448.654 2532.68,455.549 2523.77,469.339 C2521.06,473.523 2515.1,487.158 2505.88,510.246 C2513.24,517.838 2516.92,522.138 2516.92,523.145 C2516.92,524.54 2516.03,525.237 2514.24,525.237 C2512.85,525.237 2509.01,522.874 2502.74,518.148 C2495.92,534.03 2485.58,547.588 2471.71,558.822 C2457.53,570.288 2440.6,576.021 2420.93,576.021 C2413.41,576.021 2404,574.278 2392.69,570.791 C2383.62,568.002 2379.09,563.548 2379.09,557.427 C2379.09,548.363 2382.58,543.831 2389.55,543.831 C2393.73,543.831 2395.82,545.767 2395.82,549.641 C2395.82,550.881 2394.86,552.198 2392.92,553.592 C2391.91,554.29 2391.41,555.645 2391.41,557.66 C2391.41,560.061 2394.08,562.541 2399.43,565.097 C2405.24,567.886 2413.76,569.281 2424.99,569.281 C2439.48,569.281 2453.47,563.005 2466.95,550.455 C2479.19,539.066 2487.98,525.818 2493.33,510.71 C2491.23,509.006 2488.99,507.147 2486.59,505.132 C2479.15,500.716 2475.43,496.184 2475.43,491.536 C2475.43,489.599 2476.71,488.63 2479.26,488.63 C2482.67,488.63 2487.28,491.536 2493.09,497.346 C2494.33,498.586 2495.5,499.748 2496.58,500.832 C2499.29,493.395 2503.63,483.943 2509.6,472.477 C2520.36,451.714 2533.46,441.332 2548.87,441.332 C2554.38,441.332 2558.71,442.378 2561.89,444.47 C2565.07,446.562 2566.66,449.429 2566.66,453.07 C2566.66,458.88 2564.52,463.8 2560.26,467.829 C2555.85,472.012 2551.24,474.104 2546.43,474.104 C2542.25,474.104 2540.16,473.368 2540.16,471.896"/>
<path class="Note" d="M2540.16,650.479 C2544.5,647.535 2547.64,645.094 2549.57,643.157 C2553.14,639.361 2554.92,635.875 2554.92,632.698 C2554.92,629.057 2552.9,627.236 2548.87,627.236 C2541.05,627.236 2532.68,634.132 2523.77,647.922 C2521.06,652.106 2515.1,665.741 2505.88,688.828 C2513.24,696.421 2516.92,700.721 2516.92,701.728 C2516.92,703.122 2516.03,703.819 2514.24,703.819 C2512.85,703.819 2509.01,701.457 2502.74,696.731 C2495.92,712.613 2485.58,726.171 2471.71,737.404 C2457.53,748.871 2440.6,754.604 2420.93,754.604 C2413.41,754.604 2404,752.86 2392.69,749.374 C2383.62,746.585 2379.09,742.13 2379.09,736.01 C2379.09,726.945 2382.58,722.413 2389.55,722.413 C2393.73,722.413 2395.82,724.35 2395.82,728.224 C2395.82,729.463 2394.86,730.78 2392.92,732.175 C2391.91,732.872 2391.41,734.228 2391.41,736.242 C2391.41,738.644 2394.08,741.123 2399.43,743.68 C2405.24,746.469 2413.76,747.863 2424.99,747.863 C2439.48,747.863 2453.47,741.588 2466.95,729.037 C2479.19,717.649 2487.98,704.401 2493.33,689.293 C2491.23,687.589 2488.99,685.729 2486.59,683.715 C2479.15,679.299 2475.43,674.767 2475.43,670.118 C2475.43,668.181 2476.71,667.213 2479.26,667.213 C2482.67,667.213 2487.28,670.118 2493.09,675.929 C2494.33,677.168 2495.5,678.331 2496.58,679.415 C2499.29,671.978 2503.63,662.526 2509.6,651.06 C2520.36,630.297 2533.46,619.915 2548.87,619.915 C2554.38,619.915 2558.71,620.961 2561.89,623.053 C2565.07,625.145 2566.66,628.011 2566.66,631.652 C2566.66,637.463 2564.52,642.383 2560.26,646.411 C2555.85,650.595 2551.24,652.687 2546.43,652.687 C2542.25,652.687 2540.16,651.951 2540.16,650.479"/>
<path class="Note" d="M3425.12,918.353 C3429.46,915.409 3432.59,912.968 3434.53,911.031 C3438.09,907.235 3439.88,903.749 3439.88,900.572 C3439.88,896.931 3437.86,895.11 3433.83,895.11 C3426.01,895.11 3417.64,902.006 3408.73,915.796 C3406.02,919.98 3400.05,933.615 3390.84,956.702 C3398.2,964.295 3401.88,968.595 3401.88,969.602 C3401.88,970.996 3400.98,971.693 3399.2,971.693 C3397.81,971.693 3393.97,969.331 3387.7,964.605 C3380.88,980.487 3370.54,994.045 3356.67,1005.28 C3342.49,1016.74 3325.56,1022.48 3305.89,1022.48 C3298.37,1022.48 3288.96,1020.73 3277.65,1017.25 C3268.58,1014.46 3264.05,1010 3264.05,1003.88 C3264.05,994.819 3267.54,990.287 3274.51,990.287 C3278.69,990.287 3280.78,992.224 3280.78,996.098 C3280.78,997.337 3279.82,998.654 3277.88,1000.05 C3276.87,1000.75 3276.37,1002.1 3276.37,1004.12 C3276.37,1006.52 3279.04,1009 3284.39,1011.55 C3290.2,1014.34 3298.72,1015.74 3309.95,1015.74 C3324.44,1015.74 3338.42,1009.46 3351.9,996.911 C3364.15,985.523 3372.94,972.275 3378.28,957.167 C3376.19,955.463 3373.95,953.603 3371.54,951.589 C3364.11,947.173 3360.39,942.641 3360.39,937.992 C3360.39,936.055 3361.67,935.087 3364.22,935.087 C3367.63,935.087 3372.24,937.992 3378.05,943.803 C3379.29,945.042 3380.45,946.205 3381.54,947.289 C3384.25,939.852 3388.59,930.4 3394.55,918.934 C3405.32,898.171 3418.42,887.789 3433.83,887.789 C3439.33,887.789 3443.67,888.835 3446.85,890.927 C3450.03,893.019 3451.61,895.885 3451.61,899.526 C3451.61,905.337 3449.48,910.257 3445.22,914.285 C3440.81,918.469 3436.2,920.561 3431.39,920.561 C3427.21,920.561 3425.12,919.825 3425.12,918.353"/>
<path class="Note" d="M3446.04,616.271 C3439.68,626.265 3429.65,634.555 3415.94,641.14 C3404.01,646.874 3392.85,649.74 3382.47,649.74 C3374.18,649.74 3367.28,648.074 3361.78,644.743 C3355.82,641.102 3352.83,636.763 3352.83,631.727 C3352.83,620.339 3355.82,610.538 3361.78,602.326 C3369.92,591.17 3378.13,585.592 3386.42,585.592 C3392.31,585.592 3396.49,586.754 3398.97,589.078 C3402.38,592.099 3404.08,596.244 3404.08,601.513 C3404.08,608.95 3398.54,615.419 3387.47,620.92 C3376.7,626.265 3369.22,629.752 3365.04,631.379 C3365.97,633.316 3367.17,635.059 3368.64,636.608 C3372.28,640.482 3377.24,642.419 3383.51,642.419 C3391.42,642.419 3402.03,639.513 3415.36,633.703 C3428.14,628.047 3438.37,622.237 3446.04,616.271 M3363.41,626.033 C3369.22,623.089 3374.53,619.641 3379.33,615.69 C3386.46,609.88 3390.02,603.604 3390.02,596.864 C3390.02,593.068 3388.28,591.17 3384.79,591.17 C3381.85,591.17 3377.82,594.54 3372.71,601.28 C3366.28,609.647 3363.06,616.465 3363.06,621.733 C3363.06,623.205 3363.18,624.638 3363.41,626.033"/>
<path class="Note" d="M3446.04,794.854 C3439.68,804.848 3429.65,813.138 3415.94,819.723 C3404.01,825.456 3392.85,828.323 3382.47,828.323 C3374.18,828.323 3367.28,826.657 3361.78,823.326 C3355.82,819.684 3352.83,815.346 3352.83,810.31 C3352.83,798.921 3355.82,789.121 3361.78,780.909 C3369.92,769.752 3378.13,764.174 3386.42,764.174 C3392.31,764.174 3396.49,765.336 3398.97,767.661 C3402.38,770.682 3404.08,774.827 3404.08,780.095 C3404.08,787.533 3398.54,794.002 3387.47,799.502 C3376.7,804.848 3369.22,808.334 3365.04,809.961 C3365.97,811.898 3367.17,813.641 3368.64,815.191 C3372.28,819.065 3377.24,821.001 3383.51,821.001 C3391.42,821.001 3402.03,818.096 3415.36,812.286 C3428.14,806.63 3438.37,800.819 3446.04,794.854 M3363.41,804.616 C3369.22,801.672 3374.53,798.224 3379.33,794.273 C3386.46,788.462 3390.02,782.187 3390.02,775.447 C3390.02,771.651 3388.28,769.752 3384.79,769.752 C3381.85,769.752 3377.82,773.123 3372.71,779.863 C3366.28,788.23 3363.06,795.048 3363.06,800.316 C3363.06,801.788 3363.18,803.221 3363.41,804.616"/>
<path class="Note" d="M3425.12,650.479 C3429.46,647.535 3432.59,645.094 3434.53,643.157 C3438.09,639.361 3439.88,635.875 3439.88,632.698 C3439.88,629.057 3437.86,627.236 3433.83,627.236 C3426.01,627.236 3417.64,634.132 3408.73,647.922 C3406.02,652.106 3400.05,665.741 3390.84,688.828 C3398.2,696.421 3401.88,700.721 3401.88,701.728 C3401.88,703.122 3400.98,703.819 3399.2,703.819 C3397.81,703.819 3393.97,701.457 3387.7,696.731 C3380.88,712.613 3370.54,726.171 3356.67,737.404 C3342.49,748.871 3325.56,754.604 3305.89,754.604 C3298.37,754.604 3288.96,752.86 3277.65,749.374 C3268.58,746.585 3264.05,742.13 3264.05,736.01 C3264.05,726.945 3267.54,722.413 3274.51,722.413 C3278.69,722.413 3280.78,724.35 3280.78,728.224 C3280.78,729.463 3279.82,730.78 3277.88,732.175 C3276.87,732.872 3276.37,734.228 3276.37,736.242 C3276.37,738.644 3279.04,741.123 3284.39,743.68 C3290.2,746.469 3298.72,747.863 3309.95,747.863 C3324.44,747.863 3338.42,741.588 3351.9,729.037 C3364.15,717.649 3372.94,704.401 3378.28,689.293 C3376.19,687.589 3373.95,685.729 3371.54,683.715 C3364.11,679.299 3360.39,674.767 3360.39,670.118 C3360.39,668.181 3361.67,667.213 3364.22,667.213 C3367.63,667.213 3372.24,670.118 3378.05,675.929 C3379.29,677.168 3380.45,678.331 3381.54,679.415 C3384.25,671.978 3388.59,662.526 3394.55,651.06 C3405.32,630.297 3418.42,619.915 3433.83,619.915 C3439.33,619.915 3443.67,620.961 3446.85,623.053 C3450.03,625.145 3451.61,628.011 3451.61,631.652 C3451.61,637.463 3449.48,642.383 3445.22,646.411 C3440.81,650.595 3436.2,652.687 3431.39,652.687 C3427.21,652.687 3425.12,651.951 3425.12,650.479"/>
<path class="Clef" transform="matrix(2.3811,0,0,2.3811,212.156,2217.65)" d="M25.4,-25.1 C17.8,-25.1 11.7,-20.7 11.6,-20.7 C5.8,-16.4 3.5,-11.3 2.6,-7.8 C2.1,-6 1.9,-4.2 1.9,-2.5 C1.9,-0.1 2.3,2.1 3.2,4 C4.4,6.7 6.7,8.6 9.7,9.6 C10.9,10 12.2,10.2 13.5,10.2 C15.7,10.2 18,9.6 19.9,8.5 C23,6.8 24.9,3.2 24.9,-0.7 C24.9,-4.2 23.1,-7.4 20.1,-9.3 C18,-10.7 16,-11.1 14.3,-11.1 C13.1,-11.1 12,-10.9 11.1,-10.6 C10.1,-10.2 8.4,-9.2 7.6,-8.5 C7.9,-10.4 9.1,-13.3 10.2,-14.9 C11.3,-16.5 13.5,-18.5 15.2,-19.4 C17.7,-20.8 20.9,-21.4 24.4,-21.4 C34.6,-21.4 39.6,-13.2 39.6,3.6 C39.6,12.9 36.1,21.8 33.1,27.7 C29.8,34.3 25.4,40.6 21.5,44.1 C11.1,53.6 1.3,58.1 1.2,58.1 C1.2,58.1 -0.3,59 0.1,60.5 C0.4,61.5 1.3,61.7 1.9,61.7 C2,61.7 2.3,61.6 2.4,61.6 C2.5,61.6 13.9,56.9 23,49.8 C28.1,46.1 32.7,42.1 36.7,37.8 C40.3,33.9 43.4,29.7 45.9,25.5 C50.3,18 52.8,10.2 52.8,3.5 C52.8,-4.8 50.6,-11.7 46.5,-16.6 C41.8,-22.2 34.7,-25.1 25.4,-25.1 M56.8,-12.4 C56.8,-9.6 59,-7.4 61.6,-7.4 C64.2,-7.4 66.4,-9.6 66.4,-12.4 C66.4,-15.2 64.2,-17.5 61.6,-17.5 C59,-17.5 56.8,-15.2 56.8,-12.4 M56.8,12.3 C56.8,15.1 59,17.4 61.6,17.4 C64.2,17.4 66.4,15.1 66.4,12.3 C66.4,9.5 64.2,7.2 61.6,7.2 C59,7.2 56.8,9.5 56.8,12.3"/>
<path class="Clef" transform="matrix(2.3811,0,0,2.3811,212.156,1570.39)" d="M63.37,-5.89004 C62.14,-11.32 59.5,-15.14 58.72,-16.1801 C55.5301,-20.45 51.52,-23.3 46.8301,-24.65 C43.72,-25.54 40.72,-25.65 38.3,-25.47 C37.2601,-31.4801 36.2601,-37.3601 35.35,-42.8101 C40.79,-48.97 44.42,-54.77 46.69,-59.07 C50.1601,-65.65 51.3101,-70.2301 51.3601,-70.4301 C53.0801,-75.64 53.44,-83.34 52.34,-91.55 C51.3301,-99.1 49.24,-105.81 46.89,-109.06 C45.8601,-110.49 44.8101,-111.22 43.77,-111.22 C42.55,-111.22 40.04,-109.98 37.15,-107.21 C34.85,-105.01 31.5801,-101.12 29.02,-95.1101 C26.02,-88.05 25.8101,-78.5601 26.1601,-71.84 C26.54,-64.57 27.65,-58.8801 27.6601,-58.8301 C27.6801,-58.74 27.94,-57.24 28.39,-54.67 C28.1601,-54.44 27.92,-54.22 27.67,-53.9801 C26.6301,-52.9801 25.44,-51.84 24.0601,-50.4601 C23.2,-49.6 22.25,-48.69 21.25,-47.72 C12.79,-39.57 0,-27.25 0,-8.1 C0,-3.4 0.9,1.01992 2.68008,5.02998 C4.27002,8.62998 6.57002,11.91 9.5,14.78 C17.2301,22.33 27.82,25.5399 34.8801,25.38 C37.8301,25.31 40.4601,25.0699 42.85,24.6199 C44.6801,34.2199 45.82,41.25 45.8601,46.5899 C45.9,53.1 44.25,57.0699 40.35,59.8399 C37.92,61.5699 35.1101,62.5199 32.0101,62.6699 C29.42,62.7899 27.1601,62.3199 25.7301,61.91 L25.72,61.91 C25.72,61.91 25.4301,61.83 25.42,61.63 C25.4101,61.45 25.7601,61.4 25.77,61.4 L25.79,61.4 C27.7101,60.96 31.2801,59.73 33.64,56.43 C35.44,53.91 36.3101,49.2899 34.47,45.35 C33.3601,42.96 30.85,40.01 25.2301,39.56 C22.74,39.36 20.47,39.8699 18.47,41.0699 C16.6601,42.15 15.1601,43.7899 14.1101,45.7899 C11.65,50.4899 12.1101,56.2199 15.24,60.06 C18.2,63.68 22.82,65.9899 28.25,66.5699 C29.1,66.66 29.95,66.7 30.8,66.7 C31.5101,66.7 32.22,66.6699 32.92,66.61 C31.72,66.9399 30.64,67.4899 29.77,68.25 C28.2801,69.5399 27.44,71.38 27.44,73.41 C27.44,75.28 28.0601,76.65 29.55,78.0399 C28.4101,78.5 27.55,78.98 26.79,79.56 C25.25,80.73 24.34,82.46 24.34,84.1899 C24.34,87.45 27.3,89.63 31.72,89.63 C37.1301,89.63 40.9101,86.63 40.9101,82.35 C40.9101,80.1199 39.9101,78.18 38.0801,76.83 C41.0101,75.6199 42.37,73.9399 42.37,71.56 C42.39,70.05 41.69,68.61 40.49,67.6899 C39.2801,66.7399 37.62,66.2399 35.69,66.2399 L35.5101,66.2399 C38.2801,65.7 40.92,64.7 43.2101,63.28 C46.87,60.71 48.99,56.73 49.67,51.1 C50.2301,46.46 49.84,40.55 48.44,32.48 C48.0801,30.3899 47.54,27.36 46.8801,23.6 C52.6301,21.68 56.79,18.11 60.5601,12.26 C63.85,6.51992 64.8,0.419922 63.37,-5.89004 M32.39,87.5399 C30.19,87.5399 28.7301,86.1199 28.7301,84.01 C28.7301,82.11 29.65,80.5 31.32,79.4699 C31.6801,79.66 31.77,79.71 32.1101,79.88 C33.3,80.48 33.3,80.48 33.55,80.63 L33.5601,80.6399 C35.47,81.73 36.25,82.76 36.25,84.18 C36.24,86.0899 34.59,87.5399 32.39,87.5399 M38.3101,71.63 C38.3101,73.2699 37.7301,74.3399 36.1801,75.53 C34.74,74.78 34.35,74.56 33.9801,74.3399 L33.8801,74.28 C32.3301,73.3399 31.85,72.66 31.85,71.4 C31.85,69.6 33.2301,68.3399 35.19,68.3399 C37.17,68.35 38.3101,69.55 38.3101,71.63 M33.15,-83.8101 C34.9301,-89.55 37.67,-92.8 39.6601,-94.5301 C41.4101,-96.05 43.0601,-96.7601 43.9801,-96.7601 C44.12,-96.7601 44.24,-96.74 44.34,-96.7101 C44.8,-96.57 45.3301,-96 45.8,-95.1301 C48.1101,-90.84 47.37,-84.1301 46.0301,-79.69 C44.4,-74.29 41.4801,-68.6801 32.69,-59.0601 C32.52,-60.17 32.3601,-61.22 32.2101,-62.2 C30.95,-70.49 31.27,-77.7601 33.15,-83.8101 M29.15,20.31 C24.5101,19.0899 20.0801,16.5899 16.32,13.0899 C15.0101,11.86 13.14,9.68994 11.67,6.3 C10.3101,3.13994 9.65,-0.290039 9.7,-3.88008 C9.77002,-8.57002 11.0801,-13.39 13.59,-18.1801 C16.5101,-23.7601 21.07,-29.29 27.1301,-34.62 C28.5801,-35.9 29.95,-37.1801 31.24,-38.4601 C32,-34.2 32.8301,-29.5101 33.7101,-24.6301 C29.8601,-23.3601 25.1101,-20.2101 22,-14.5601 C18.47,-7.99004 18.6101,-2.47002 19.34,1.00996 C20.2801,5.46992 22.8101,9.22998 26.27,11.3199 C27.2,11.88 31.3301,14.01 33.17,13.43 C33.54,13.31 33.8101,13.0899 33.95,12.76 C34.4601,11.5899 33.44,10.95 31.8801,9.98994 C31.2801,9.61992 30.6101,9.2 29.8801,8.66992 C26.5601,6.17998 25.1101,1.72998 26.1801,-2.65 C26.7601,-5.05 28.04,-7.21006 29.8801,-8.91006 C31.55,-10.4601 33.59,-11.5601 35.97,-12.2 C38.0101,-0.960059 40.07,10.1899 41.7101,18.55 C41.84,19.2399 41.9801,19.91 42.1101,20.58 C37.7101,21.51 33.37,21.4199 29.15,20.31 M54.9,10.1 C53.7301,13.28 51.27,17.35 46.14,19.41 C46.07,18.9899 45.99,18.56 45.9101,18.13 C44.3601,9.36992 42.4301,-1.61006 40.47,-12.87 C50.82,-13.35 55.09,-5.91006 55.9801,-1.08008 C56.45,1.45 56.45,5.88994 54.9,10.1"/>
<path class="FiguredBass" d="M610.449,2534.76 C610.635,2534.76 611.037,2534.36 611.655,2533.55 C614.315,2529.78 618.026,2527.89 622.788,2527.89 C626.623,2527.89 630.241,2529.32 633.643,2532.16 C637.044,2535.01 639.858,2536.43 642.085,2536.43 C644.497,2536.43 646.786,2535.72 648.95,2534.29 C651.115,2532.87 652.831,2531.45 654.099,2530.03 C655.367,2528.6 656.187,2527.89 656.558,2527.89 C657.176,2527.89 657.733,2528.09 658.228,2528.5 C658.722,2528.9 658.97,2529.41 658.97,2530.03 C658.97,2530.46 657.702,2532.59 655.166,2536.43 C652.63,2540.26 649.816,2544.7 646.724,2549.74 C643.631,2554.78 640.817,2561.07 638.281,2568.62 C635.746,2576.17 634.478,2583.37 634.478,2590.24 C634.478,2592.9 634.756,2595.96 635.313,2599.42 C635.746,2602.08 635.746,2603.6 635.313,2603.97 C635.003,2604.28 634.478,2604.43 633.735,2604.43 C633.426,2604.43 631.988,2604.03 629.421,2603.22 C626.855,2602.42 624.396,2602.02 622.046,2602.02 C619.943,2602.02 617.516,2602.42 614.763,2603.22 C612.011,2604.03 610.48,2604.43 610.171,2604.43 C609.491,2604.43 608.934,2604.15 608.501,2603.6 C608.068,2603.04 608.006,2602.45 608.316,2601.83 C611.965,2593.11 616.402,2584.62 621.628,2576.37 C626.855,2568.11 633.395,2558.6 641.25,2547.84 C638.281,2549.45 635.282,2550.25 632.251,2550.25 C629.035,2550.25 625.788,2548.81 622.51,2545.94 C619.232,2543.06 616.541,2541.62 614.439,2541.62 C612.892,2541.62 611.547,2542.5 610.403,2544.27 C609.259,2546.03 608.687,2548.67 608.687,2552.2 L608.687,2563.61 C608.687,2565.16 607.975,2565.93 606.553,2565.93 C605.007,2565.93 604.233,2565.16 604.233,2563.61 L604.233,2530.21 C604.233,2528.67 605.007,2527.89 606.553,2527.89 C607.975,2527.89 608.687,2528.67 608.687,2530.21 L608.687,2532.35 C608.687,2532.84 608.81,2533.27 609.058,2533.64 C609.8,2534.39 610.264,2534.76 610.449,2534.76"/>
<path class="FiguredBass" d="M633.462,2691.44 C632.782,2692.18 631.885,2692.55 630.772,2692.55 C629.658,2692.55 628.746,2692.17 628.035,2691.39 C627.323,2690.62 626.968,2689.74 626.968,2688.75 L626.968,2675.48 L613.701,2675.48 C612.588,2675.48 611.676,2675.1 610.964,2674.32 C610.253,2673.55 609.898,2672.67 609.898,2671.68 C609.898,2670.69 610.253,2669.81 610.964,2669.04 C611.676,2668.26 612.588,2667.88 613.701,2667.88 L626.968,2667.88 L626.968,2654.61 C626.968,2653.62 627.323,2652.74 628.035,2651.97 C628.746,2651.19 629.658,2650.81 630.772,2650.81 C631.885,2650.81 632.797,2651.19 633.508,2651.97 C634.22,2652.74 634.575,2653.62 634.575,2654.61 L634.575,2667.88 L647.842,2667.88 C648.955,2667.88 649.867,2668.26 650.579,2669.04 C651.29,2669.81 651.646,2670.69 651.646,2671.68 C651.646,2672.67 651.29,2673.55 650.579,2674.32 C649.867,2675.1 648.955,2675.48 647.842,2675.48 L634.575,2675.48 L634.575,2688.75 C634.575,2689.74 634.204,2690.64 633.462,2691.44"/>
<path class="FiguredBass" d="M1531.19,2531.42 C1526.61,2531.42 1523.57,2533.26 1522.05,2536.94 C1520.53,2540.62 1519.78,2545.83 1519.78,2552.57 L1519.78,2563.52 C1522.99,2562.22 1525.78,2561.54 1528.13,2561.48 C1536.17,2561.48 1542.49,2563.26 1547.1,2566.81 C1551.71,2570.37 1554.01,2575.66 1554.01,2582.68 C1554.01,2589.7 1551.68,2595 1547.01,2598.59 C1542.34,2602.17 1536.04,2603.97 1528.13,2603.97 C1520.02,2603.97 1513.68,2600.21 1509.11,2592.7 C1504.53,2585.18 1502.24,2576.26 1502.24,2565.93 C1502.24,2555.66 1504.9,2546.76 1510.22,2539.21 C1515.54,2531.67 1522.53,2527.89 1531.19,2527.89 C1536.88,2527.89 1541.8,2529.33 1545.94,2532.21 C1550.08,2535.08 1552.15,2538.87 1552.15,2543.57 C1552.15,2546.29 1551.17,2548.64 1549.19,2550.62 C1547.21,2552.6 1544.84,2553.59 1542.09,2553.59 C1539.34,2553.59 1536.97,2552.6 1534.99,2550.62 C1533.01,2548.64 1532.02,2546.29 1532.02,2543.57 C1532.02,2540.91 1533.01,2538.56 1534.99,2536.52 C1535.67,2535.72 1536.63,2535.04 1537.87,2534.48 C1537.56,2533.68 1536.94,2533.06 1536.01,2532.62 C1534.65,2531.82 1533.04,2531.42 1531.19,2531.42 M1535.73,2569.36 C1534.62,2566.46 1532.18,2565 1528.4,2565 C1524.63,2565 1522.3,2566.46 1521.4,2569.36 C1520.5,2572.27 1520.06,2576.69 1520.06,2582.63 C1520.06,2589.62 1520.5,2594.32 1521.4,2596.73 C1522.3,2599.14 1524.63,2600.35 1528.4,2600.35 C1532.18,2600.35 1534.62,2598.9 1535.73,2595.99 C1536.85,2593.08 1537.4,2588.64 1537.4,2582.68 C1537.4,2576.71 1536.85,2572.27 1535.73,2569.36"/>
<path class="FiguredBass" d="M1508.55,2633.64 L1513,2634.29 C1514.18,2634.48 1515.63,2634.66 1517.36,2634.85 C1521.63,2635.34 1525.75,2635.59 1529.7,2635.59 C1533.66,2635.59 1537.84,2635.34 1542.23,2634.85 C1543.96,2634.66 1545.48,2634.48 1546.77,2634.29 L1551.32,2633.64 C1552.25,2633.64 1552.96,2633.95 1553.45,2634.57 C1553.82,2635.07 1553.76,2635.56 1553.27,2636.06 C1543.62,2645.52 1530.29,2650.25 1513.28,2650.25 C1512.6,2650.25 1512,2650.5 1511.47,2650.99 C1510.95,2651.49 1510.69,2652.1 1510.69,2652.85 L1510.69,2664.63 C1515.08,2660.3 1520.4,2658.14 1526.64,2658.14 C1535.36,2658.14 1542.17,2660.18 1547.05,2664.26 C1552.37,2660.24 1555.15,2655.1 1555.4,2648.86 C1555.46,2646.88 1556.11,2645.27 1557.35,2644.03 C1558.71,2642.8 1560.35,2642.18 1562.27,2642.18 C1564.18,2642.18 1565.81,2642.83 1567.14,2644.13 C1568.47,2645.43 1569.13,2647 1569.13,2648.86 C1569.13,2658.44 1563.47,2665.71 1552.15,2670.66 C1554.01,2674.31 1554.94,2678.76 1554.94,2684.02 C1554.94,2691.01 1552.15,2697.04 1546.59,2702.11 C1541.02,2707.18 1534.37,2709.72 1526.64,2709.72 C1519.96,2709.72 1514.16,2708.2 1509.25,2705.17 C1504.33,2702.14 1501.87,2697.93 1501.87,2692.55 C1501.87,2689.83 1502.86,2687.47 1504.84,2685.46 C1506.82,2683.45 1509.19,2682.44 1511.94,2682.44 C1514.69,2682.44 1517.02,2683.43 1518.94,2685.41 C1520.86,2687.39 1521.82,2689.77 1521.82,2692.55 C1521.82,2693.79 1520.8,2695.14 1518.76,2696.59 C1516.72,2698.04 1515.69,2699.39 1515.69,2700.63 C1515.69,2704.34 1519.34,2706.19 1526.64,2706.19 C1533.75,2706.19 1537.31,2698.8 1537.31,2684.02 C1537.31,2680.74 1537.13,2677.86 1536.75,2675.39 C1529.27,2676.94 1519.9,2678.14 1508.64,2679.01 C1507.1,2679.13 1506.32,2678.36 1506.32,2676.69 C1506.32,2675.33 1507.1,2674.59 1508.64,2674.46 C1520.02,2673.54 1528.99,2672.05 1535.55,2670.01 C1533.82,2665.06 1530.85,2662.56 1526.64,2662.5 C1520.27,2662.5 1515.82,2663.79 1513.28,2666.39 C1510.75,2668.99 1509.17,2670.29 1508.55,2670.29 C1507.07,2670.29 1506.32,2669.52 1506.32,2667.97 L1506.32,2636.06 C1506.32,2635.44 1506.54,2634.88 1506.97,2634.39 C1507.47,2633.89 1507.99,2633.64 1508.55,2633.64"/>
<path class="FiguredBass" d="M2440.23,2585.69 C2439.55,2586.43 2438.65,2586.8 2437.54,2586.8 C2436.43,2586.8 2435.51,2586.42 2434.8,2585.64 C2434.09,2584.87 2433.74,2583.99 2433.74,2583 L2433.74,2569.73 L2420.47,2569.73 C2419.36,2569.73 2418.44,2569.35 2417.73,2568.57 C2417.02,2567.8 2416.67,2566.92 2416.67,2565.93 C2416.67,2564.94 2417.02,2564.06 2417.73,2563.29 C2418.44,2562.51 2419.36,2562.13 2420.47,2562.13 L2433.74,2562.13 L2433.74,2548.86 C2433.74,2547.87 2434.09,2546.99 2434.8,2546.22 C2435.51,2545.44 2436.43,2545.06 2437.54,2545.06 C2438.65,2545.06 2439.56,2545.44 2440.28,2546.22 C2440.99,2546.99 2441.34,2547.87 2441.34,2548.86 L2441.34,2562.13 L2454.61,2562.13 C2455.72,2562.13 2456.64,2562.51 2457.35,2563.29 C2458.06,2564.06 2458.41,2564.94 2458.41,2565.93 C2458.41,2566.92 2458.06,2567.8 2457.35,2568.57 C2456.64,2569.35 2455.72,2569.73 2454.61,2569.73 L2441.34,2569.73 L2441.34,2583 C2441.34,2583.99 2440.97,2584.89 2440.23,2585.69 M2493.65,2531.42 C2489.08,2531.42 2486.03,2533.26 2484.52,2536.94 C2483,2540.62 2482.24,2545.83 2482.24,2552.57 L2482.24,2563.52 C2485.46,2562.22 2488.24,2561.54 2490.59,2561.48 C2498.63,2561.48 2504.96,2563.26 2509.56,2566.81 C2514.17,2570.37 2516.48,2575.66 2516.48,2582.68 C2516.48,2589.7 2514.14,2595 2509.47,2598.59 C2504.8,2602.17 2498.51,2603.97 2490.59,2603.97 C2482.49,2603.97 2476.15,2600.21 2471.57,2592.7 C2467,2585.18 2464.71,2576.26 2464.71,2565.93 C2464.71,2555.66 2467.37,2546.76 2472.69,2539.21 C2478.01,2531.67 2484.99,2527.89 2493.65,2527.89 C2499.34,2527.89 2504.26,2529.33 2508.4,2532.21 C2512.55,2535.08 2514.62,2538.87 2514.62,2543.57 C2514.62,2546.29 2513.63,2548.64 2511.65,2550.62 C2509.67,2552.6 2507.31,2553.59 2504.55,2553.59 C2501.8,2553.59 2499.44,2552.6 2497.46,2550.62 C2495.48,2548.64 2494.49,2546.29 2494.49,2543.57 C2494.49,2540.91 2495.48,2538.56 2497.46,2536.52 C2498.14,2535.72 2499.1,2535.04 2500.33,2534.48 C2500.02,2533.68 2499.41,2533.06 2498.48,2532.62 C2497.12,2531.82 2495.51,2531.42 2493.65,2531.42 M2498.2,2569.36 C2497.09,2566.46 2494.64,2565 2490.87,2565 C2487.1,2565 2484.76,2566.46 2483.87,2569.36 C2482.97,2572.27 2482.52,2576.69 2482.52,2582.63 C2482.52,2589.62 2482.97,2594.32 2483.87,2596.73 C2484.76,2599.14 2487.1,2600.35 2490.87,2600.35 C2494.64,2600.35 2497.09,2598.9 2498.2,2595.99 C2499.31,2593.08 2499.87,2588.64 2499.87,2582.68 C2499.87,2576.71 2499.31,2572.27 2498.2,2569.36"/>
<path class="FiguredBass" d="M3325.19,2585.69 C3324.51,2586.43 3323.61,2586.8 3322.5,2586.8 C3321.38,2586.8 3320.47,2586.42 3319.76,2585.64 C3319.05,2584.87 3318.69,2583.99 3318.69,2583 L3318.69,2569.73 L3305.43,2569.73 C3304.31,2569.73 3303.4,2569.35 3302.69,2568.57 C3301.98,2567.8 3301.62,2566.92 3301.62,2565.93 C3301.62,2564.94 3301.98,2564.06 3302.69,2563.29 C3303.4,2562.51 3304.31,2562.13 3305.43,2562.13 L3318.69,2562.13 L3318.69,2548.86 C3318.69,2547.87 3319.05,2546.99 3319.76,2546.22 C3320.47,2545.44 3321.38,2545.06 3322.5,2545.06 C3323.61,2545.06 3324.52,2545.44 3325.24,2546.22 C3325.95,2546.99 3326.3,2547.87 3326.3,2548.86 L3326.3,2562.13 L3339.57,2562.13 C3340.68,2562.13 3341.59,2562.51 3342.31,2563.29 C3343.02,2564.06 3343.37,2564.94 3343.37,2565.93 C3343.37,2566.92 3343.02,2567.8 3342.31,2568.57 C3341.59,2569.35 3340.68,2569.73 3339.57,2569.73 L3326.3,2569.73 L3326.3,2583 C3326.3,2583.99 3325.93,2584.89 3325.19,2585.69 M3377.96,2529.84 C3380.31,2529.84 3382.79,2529.5 3385.38,2528.82 L3389.56,2527.71 C3390.36,2527.71 3391,2528.02 3391.46,2528.64 C3391.93,2529.25 3391.88,2529.81 3391.32,2530.31 L3348.18,2580.5 L3373.51,2580.5 L3373.51,2560.64 C3373.51,2559.22 3373.9,2558.12 3374.67,2557.35 C3375.44,2556.58 3376.43,2555.96 3377.64,2555.49 C3378.84,2555.03 3380.42,2553.65 3382.37,2551.36 C3384.32,2549.08 3386.19,2545.98 3387.98,2542.09 C3388.29,2541.47 3388.76,2541.16 3389.37,2541.16 C3390.67,2541.16 3391.32,2541.87 3391.32,2543.29 L3391.32,2580.5 L3402.27,2580.5 C3403.82,2580.5 3404.59,2581.21 3404.59,2582.63 C3404.59,2584.18 3403.82,2584.95 3402.27,2584.95 L3391.32,2584.95 L3391.32,2586.15 C3391.32,2589.99 3392.34,2593.33 3394.38,2596.17 C3396.43,2599.02 3399.05,2600.44 3402.27,2600.44 C3403.51,2600.44 3404.13,2601 3404.13,2602.11 C3404.13,2603.35 3403.51,2603.97 3402.27,2603.97 C3400.04,2603.97 3396.73,2603.64 3392.34,2602.99 C3387.95,2602.34 3384.63,2602.02 3382.37,2602.02 C3380.11,2602.02 3376.79,2602.34 3372.4,2602.99 C3368.01,2603.64 3364.7,2603.97 3362.47,2603.97 C3361.23,2603.97 3360.61,2603.35 3360.61,2602.11 C3360.61,2601 3361.23,2600.44 3362.47,2600.44 C3365.69,2600.44 3368.33,2599.02 3370.4,2596.17 C3372.47,2593.33 3373.51,2589.99 3373.51,2586.15 L3373.51,2584.95 L3348.18,2584.95 C3346.57,2584.95 3345.38,2584.56 3344.61,2583.79 C3343.84,2583.02 3343.45,2582.23 3343.45,2581.42 C3343.45,2581.11 3344.18,2580.05 3345.63,2578.22 C3347.09,2576.4 3348.86,2573.97 3350.97,2570.94 C3353.07,2567.91 3355.16,2564.46 3357.23,2560.6 C3359.3,2556.73 3361.06,2552.09 3362.52,2546.68 C3363.97,2541.27 3364.7,2535.81 3364.7,2530.31 C3364.7,2528.7 3365.38,2527.89 3366.74,2527.89 C3366.92,2527.89 3367.57,2528.05 3368.69,2528.36 C3369.8,2528.67 3371.22,2528.99 3372.95,2529.33 C3374.69,2529.67 3376.36,2529.84 3377.96,2529.84"/>
<path class="FiguredBass" d="M610.449,1768.45 C610.635,1768.45 611.037,1768.05 611.655,1767.24 C614.315,1763.47 618.026,1761.58 622.788,1761.58 C626.623,1761.58 630.241,1763 633.643,1765.85 C637.044,1768.69 639.858,1770.12 642.085,1770.12 C644.497,1770.12 646.786,1769.41 648.95,1767.98 C651.115,1766.56 652.831,1765.14 654.099,1763.72 C655.367,1762.29 656.187,1761.58 656.558,1761.58 C657.176,1761.58 657.733,1761.78 658.228,1762.18 C658.722,1762.59 658.97,1763.1 658.97,1763.72 C658.97,1764.15 657.702,1766.28 655.166,1770.12 C652.63,1773.95 649.816,1778.39 646.724,1783.43 C643.631,1788.47 640.817,1794.76 638.281,1802.31 C635.746,1809.86 634.478,1817.06 634.478,1823.93 C634.478,1826.59 634.756,1829.65 635.313,1833.11 C635.746,1835.77 635.746,1837.29 635.313,1837.66 C635.003,1837.97 634.478,1838.12 633.735,1838.12 C633.426,1838.12 631.988,1837.72 629.421,1836.91 C626.855,1836.11 624.396,1835.71 622.046,1835.71 C619.943,1835.71 617.516,1836.11 614.763,1836.91 C612.011,1837.72 610.48,1838.12 610.171,1838.12 C609.491,1838.12 608.934,1837.84 608.501,1837.29 C608.068,1836.73 608.006,1836.14 608.316,1835.52 C611.965,1826.8 616.402,1818.31 621.628,1810.06 C626.855,1801.8 633.395,1792.29 641.25,1781.53 C638.281,1783.14 635.282,1783.94 632.251,1783.94 C629.035,1783.94 625.788,1782.5 622.51,1779.63 C619.232,1776.75 616.541,1775.31 614.439,1775.31 C612.892,1775.31 611.547,1776.19 610.403,1777.96 C609.259,1779.72 608.687,1782.36 608.687,1785.89 L608.687,1797.3 C608.687,1798.85 607.975,1799.62 606.553,1799.62 C605.007,1799.62 604.233,1798.85 604.233,1797.3 L604.233,1763.9 C604.233,1762.36 605.007,1761.58 606.553,1761.58 C607.975,1761.58 608.687,1762.36 608.687,1763.9 L608.687,1766.04 C608.687,1766.53 608.81,1766.96 609.058,1767.33 C609.8,1768.08 610.264,1768.45 610.449,1768.45"/>
<path class="FiguredBass" d="M610.913,1867.33 C610.913,1867.33 612.398,1867.55 615.366,1867.98 C616.665,1868.17 618.119,1868.35 619.727,1868.54 C623.994,1869.03 628.107,1869.28 632.066,1869.28 C636.024,1869.28 640.199,1869.03 644.59,1868.54 C646.322,1868.35 647.837,1868.17 649.136,1867.98 L653.682,1867.33 C654.609,1867.33 655.305,1867.64 655.769,1868.26 C656.233,1868.88 656.187,1869.37 655.63,1869.74 C646.167,1879.21 632.839,1883.94 615.645,1883.94 C614.964,1883.94 614.361,1884.19 613.836,1884.68 C613.31,1885.18 613.047,1885.79 613.047,1886.54 L613.047,1901.1 C617.438,1896.77 622.757,1894.61 629.004,1894.61 C638.034,1894.61 645.007,1896.63 649.924,1900.68 C654.841,1904.74 657.3,1910.87 657.3,1919.1 C657.3,1926.09 654.517,1931.89 648.95,1936.49 C643.384,1941.1 636.735,1943.41 629.004,1943.41 C622.324,1943.41 616.526,1941.89 611.609,1938.86 C606.692,1935.83 604.233,1931.62 604.233,1926.24 C604.233,1923.52 605.223,1921.16 607.202,1919.15 C609.181,1917.14 611.547,1916.13 614.299,1916.13 C617.052,1916.13 619.386,1917.12 621.304,1919.1 C623.221,1921.08 624.18,1923.46 624.18,1926.24 C624.18,1927.48 623.159,1928.83 621.118,1930.28 C619.077,1931.73 618.057,1933.08 618.057,1934.31 C618.057,1938.03 621.706,1939.88 629.004,1939.88 C636.117,1939.88 639.673,1932.95 639.673,1919.1 C639.673,1905.74 636.117,1899.03 629.004,1898.97 C622.634,1898.97 618.18,1900.27 615.645,1902.86 C613.109,1905.46 611.532,1906.76 610.913,1906.76 C609.367,1906.76 608.625,1905.99 608.687,1904.44 L608.687,1869.74 C608.687,1869.06 608.903,1868.49 609.336,1868.03 C609.769,1867.56 610.295,1867.33 610.913,1867.33"/>
<path class="FiguredBass" d="M633.462,2030.88 C632.782,2031.62 631.885,2031.99 630.772,2031.99 C629.658,2031.99 628.746,2031.61 628.035,2030.83 C627.323,2030.06 626.968,2029.18 626.968,2028.19 L626.968,2014.92 L613.701,2014.92 C612.588,2014.92 611.676,2014.54 610.964,2013.76 C610.253,2012.99 609.898,2012.11 609.898,2011.12 C609.898,2010.13 610.253,2009.25 610.964,2008.47 C611.676,2007.7 612.588,2007.32 613.701,2007.32 L626.968,2007.32 L626.968,1994.05 C626.968,1993.06 627.323,1992.18 628.035,1991.4 C628.746,1990.63 629.658,1990.25 630.772,1990.25 C631.885,1990.25 632.797,1990.63 633.508,1991.4 C634.22,1992.18 634.575,1993.06 634.575,1994.05 L634.575,2007.32 L647.842,2007.32 C648.955,2007.32 649.867,2007.7 650.579,2008.47 C651.29,2009.25 651.646,2010.13 651.646,2011.12 C651.646,2012.11 651.29,2012.99 650.579,2013.76 C649.867,2014.54 648.955,2014.92 647.842,2014.92 L634.575,2014.92 L634.575,2028.19 C634.575,2029.18 634.204,2030.08 633.462,2030.88"/>
<path class="FiguredBass" d="M1531.19,1765.11 C1526.61,1765.11 1523.57,1766.95 1522.05,1770.63 C1520.53,1774.31 1519.78,1779.52 1519.78,1786.26 L1519.78,1797.21 C1522.99,1795.91 1525.78,1795.23 1528.13,1795.17 C1536.17,1795.17 1542.49,1796.94 1547.1,1800.5 C1551.71,1804.06 1554.01,1809.34 1554.01,1816.36 C1554.01,1823.38 1551.68,1828.69 1547.01,1832.28 C1542.34,1835.86 1536.04,1837.66 1528.13,1837.66 C1520.02,1837.66 1513.68,1833.9 1509.11,1826.38 C1504.53,1818.87 1502.24,1809.95 1502.24,1799.62 C1502.24,1789.35 1504.9,1780.45 1510.22,1772.9 C1515.54,1765.35 1522.53,1761.58 1531.19,1761.58 C1536.88,1761.58 1541.8,1763.02 1545.94,1765.9 C1550.08,1768.77 1552.15,1772.56 1552.15,1777.26 C1552.15,1779.98 1551.17,1782.33 1549.19,1784.31 C1547.21,1786.29 1544.84,1787.28 1542.09,1787.28 C1539.34,1787.28 1536.97,1786.29 1534.99,1784.31 C1533.01,1782.33 1532.02,1779.98 1532.02,1777.26 C1532.02,1774.6 1533.01,1772.25 1534.99,1770.21 C1535.67,1769.41 1536.63,1768.73 1537.87,1768.17 C1537.56,1767.36 1536.94,1766.75 1536.01,1766.31 C1534.65,1765.51 1533.04,1765.11 1531.19,1765.11 M1535.73,1803.05 C1534.62,1800.14 1532.18,1798.69 1528.4,1798.69 C1524.63,1798.69 1522.3,1800.14 1521.4,1803.05 C1520.5,1805.96 1520.06,1810.38 1520.06,1816.32 C1520.06,1823.31 1520.5,1828.01 1521.4,1830.42 C1522.3,1832.83 1524.63,1834.04 1528.4,1834.04 C1532.18,1834.04 1534.62,1832.58 1535.73,1829.68 C1536.85,1826.77 1537.4,1822.33 1537.4,1816.36 C1537.4,1810.4 1536.85,1805.96 1535.73,1803.05"/>
<path class="FiguredBass" d="M1508.55,1867.33 L1513,1867.98 C1514.18,1868.17 1515.63,1868.35 1517.36,1868.54 C1521.63,1869.03 1525.75,1869.28 1529.7,1869.28 C1533.66,1869.28 1537.84,1869.03 1542.23,1868.54 C1543.96,1868.35 1545.48,1868.17 1546.77,1867.98 L1551.32,1867.33 C1552.25,1867.33 1552.96,1867.64 1553.45,1868.26 C1553.82,1868.75 1553.76,1869.25 1553.27,1869.74 C1543.62,1879.21 1530.29,1883.94 1513.28,1883.94 C1512.6,1883.94 1512,1884.19 1511.47,1884.68 C1510.95,1885.18 1510.69,1885.79 1510.69,1886.54 L1510.69,1898.32 C1515.08,1893.99 1520.4,1891.82 1526.64,1891.82 C1535.36,1891.82 1542.17,1893.87 1547.05,1897.95 C1552.37,1893.93 1555.15,1888.79 1555.4,1882.55 C1555.46,1880.57 1556.11,1878.96 1557.35,1877.72 C1558.71,1876.49 1560.35,1875.87 1562.27,1875.87 C1564.18,1875.87 1565.81,1876.52 1567.14,1877.82 C1568.47,1879.11 1569.13,1880.69 1569.13,1882.55 C1569.13,1892.13 1563.47,1899.4 1552.15,1904.35 C1554.01,1908 1554.94,1912.45 1554.94,1917.71 C1554.94,1924.7 1552.15,1930.73 1546.59,1935.8 C1541.02,1940.87 1534.37,1943.41 1526.64,1943.41 C1519.96,1943.41 1514.16,1941.89 1509.25,1938.86 C1504.33,1935.83 1501.87,1931.62 1501.87,1926.24 C1501.87,1923.52 1502.86,1921.16 1504.84,1919.15 C1506.82,1917.14 1509.19,1916.13 1511.94,1916.13 C1514.69,1916.13 1517.02,1917.12 1518.94,1919.1 C1520.86,1921.08 1521.82,1923.46 1521.82,1926.24 C1521.82,1927.48 1520.8,1928.83 1518.76,1930.28 C1516.72,1931.73 1515.69,1933.08 1515.69,1934.31 C1515.69,1938.03 1519.34,1939.88 1526.64,1939.88 C1533.75,1939.88 1537.31,1932.49 1537.31,1917.71 C1537.31,1914.43 1537.13,1911.55 1536.75,1909.08 C1529.27,1910.63 1519.9,1911.83 1508.64,1912.7 C1507.1,1912.82 1506.32,1912.05 1506.32,1910.38 C1506.32,1909.02 1507.1,1908.28 1508.64,1908.15 C1520.02,1907.22 1528.99,1905.74 1535.55,1903.7 C1533.82,1898.75 1530.85,1896.25 1526.64,1896.18 C1520.27,1896.18 1515.82,1897.48 1513.28,1900.08 C1510.75,1902.68 1509.17,1903.98 1508.55,1903.98 C1507.07,1903.98 1506.32,1903.2 1506.32,1901.66 L1506.32,1869.74 C1506.32,1869.13 1506.54,1868.57 1506.97,1868.07 C1507.47,1867.58 1507.99,1867.33 1508.55,1867.33"/>
<path class="FiguredBass" d="M1543.06,2008.8 C1543.06,2009.79 1543.62,2010.75 1544.73,2011.68 C1545.85,2012.6 1547.07,2013.48 1548.4,2014.32 C1549.73,2015.15 1550.95,2016.73 1552.06,2019.05 C1553.18,2021.37 1553.73,2024.29 1553.73,2027.82 C1553.73,2034.62 1551.17,2039.88 1546.03,2043.59 C1540.9,2047.3 1534.4,2049.16 1526.55,2049.16 C1520.24,2049.16 1514.75,2047.58 1510.08,2044.42 C1505.41,2041.27 1503.08,2037.13 1503.08,2031.99 C1503.08,2029.27 1504.07,2026.91 1506.05,2024.9 C1508.03,2022.89 1510.39,2021.88 1513.14,2021.88 C1515.9,2021.88 1518.23,2022.87 1520.15,2024.85 C1522.07,2026.83 1523.02,2029.21 1523.02,2031.99 C1523.02,2033.23 1522,2034.58 1519.96,2036.03 C1517.92,2037.48 1516.9,2038.83 1516.9,2040.06 C1516.9,2041.98 1517.84,2043.39 1519.73,2044.29 C1521.62,2045.18 1523.89,2045.63 1526.55,2045.63 C1530.01,2045.63 1532.47,2043.91 1533.92,2040.48 C1535.38,2037.05 1536.11,2032.83 1536.11,2027.82 L1536.11,2025.41 C1536.11,2022.07 1536,2019.53 1535.78,2017.8 C1535.56,2016.07 1534.88,2014.52 1533.74,2013.16 C1532.6,2011.8 1530.85,2011.12 1528.5,2011.12 L1516.34,2011.12 C1514.92,2011.12 1514.21,2010.35 1514.21,2008.8 C1514.21,2007.38 1514.92,2006.67 1516.34,2006.67 L1528.5,2006.67 C1531.03,2006.67 1533.01,2005.71 1534.44,2003.79 C1534.93,2003.11 1535.33,2002 1535.64,2000.45 C1535.95,1998.41 1536.11,1995.47 1536.11,1991.64 L1536.11,1990.43 C1536.11,1981.22 1532.7,1976.61 1525.9,1976.61 C1519.9,1976.61 1516.9,1978.28 1516.9,1981.62 C1516.9,1982.73 1517.81,1983.92 1519.64,1985.19 C1521.46,1986.46 1522.37,1987.65 1522.37,1988.76 C1522.37,1991.17 1521.52,1993.24 1519.82,1994.98 C1518.12,1996.71 1516.05,1997.57 1513.61,1997.57 C1511.16,1997.57 1509.11,1996.71 1507.44,1994.98 C1505.77,1993.24 1504.93,1991.17 1504.93,1988.76 C1504.93,1984 1507.01,1980.19 1511.15,1977.35 C1515.29,1974.5 1520.21,1973.08 1525.9,1973.08 C1533.38,1973.08 1539.54,1974.52 1544.36,1977.4 C1549.19,1980.27 1551.6,1984.62 1551.6,1990.43 C1551.6,1994.57 1551.17,1997.79 1550.3,2000.08 C1549.43,2002.37 1548.44,2003.76 1547.33,2004.25 C1546.22,2004.75 1545.23,2005.32 1544.36,2005.97 C1543.5,2006.62 1543.06,2007.56 1543.06,2008.8"/>
<path class="FiguredBass" d="M2493,1763.53 C2495.35,1763.53 2497.83,1763.19 2500.43,1762.51 L2504.6,1761.4 C2505.4,1761.4 2506.04,1761.71 2506.5,1762.32 C2506.97,1762.94 2506.92,1763.5 2506.36,1763.99 L2463.22,1814.18 L2488.55,1814.18 L2488.55,1794.33 C2488.55,1792.91 2488.94,1791.81 2489.71,1791.04 C2490.48,1790.26 2491.47,1789.65 2492.68,1789.18 C2493.89,1788.72 2495.46,1787.34 2497.41,1785.05 C2499.36,1782.77 2501.23,1779.67 2503.02,1775.78 C2503.33,1775.16 2503.8,1774.85 2504.42,1774.85 C2505.71,1774.85 2506.36,1775.56 2506.36,1776.98 L2506.36,1814.18 L2517.31,1814.18 C2518.86,1814.18 2519.63,1814.9 2519.63,1816.32 C2519.63,1817.86 2518.86,1818.64 2517.31,1818.64 L2506.36,1818.64 L2506.36,1819.84 C2506.36,1823.68 2507.38,1827.02 2509.43,1829.86 C2511.47,1832.71 2514.09,1834.13 2517.31,1834.13 C2518.55,1834.13 2519.17,1834.69 2519.17,1835.8 C2519.17,1837.04 2518.55,1837.66 2517.31,1837.66 C2515.08,1837.66 2511.78,1837.33 2507.38,1836.68 C2502.99,1836.03 2499.67,1835.71 2497.41,1835.71 C2495.15,1835.71 2491.83,1836.03 2487.44,1836.68 C2483.05,1837.33 2479.74,1837.66 2477.51,1837.66 C2476.27,1837.66 2475.66,1837.04 2475.66,1835.8 C2475.66,1834.69 2476.27,1834.13 2477.51,1834.13 C2480.73,1834.13 2483.37,1832.71 2485.44,1829.86 C2487.52,1827.02 2488.55,1823.68 2488.55,1819.84 L2488.55,1818.64 L2463.22,1818.64 C2461.62,1818.64 2460.43,1818.25 2459.65,1817.48 C2458.88,1816.7 2458.49,1815.92 2458.49,1815.11 C2458.49,1814.8 2459.22,1813.74 2460.67,1811.91 C2462.13,1810.09 2463.9,1807.66 2466.01,1804.63 C2468.11,1801.6 2470.2,1798.15 2472.27,1794.28 C2474.34,1790.42 2476.1,1785.78 2477.56,1780.37 C2479.01,1774.96 2479.74,1769.5 2479.74,1763.99 C2479.74,1762.39 2480.42,1761.58 2481.78,1761.58 C2481.96,1761.58 2482.61,1761.74 2483.73,1762.05 C2484.84,1762.36 2486.26,1762.68 2487.99,1763.02 C2489.73,1763.36 2491.4,1763.53 2493,1763.53"/>
<path class="FiguredBass" d="M2505.53,1903.05 C2505.53,1904.04 2506.09,1905 2507.2,1905.93 C2508.31,1906.85 2509.53,1907.73 2510.86,1908.57 C2512.19,1909.4 2513.41,1910.98 2514.53,1913.3 C2515.64,1915.62 2516.2,1918.54 2516.2,1922.07 C2516.2,1928.87 2513.63,1934.13 2508.5,1937.84 C2503.36,1941.55 2496.87,1943.41 2489.02,1943.41 C2482.71,1943.41 2477.22,1941.83 2472.55,1938.67 C2467.88,1935.52 2465.54,1931.38 2465.54,1926.24 C2465.54,1923.52 2466.53,1921.16 2468.51,1919.15 C2470.49,1917.14 2472.86,1916.13 2475.61,1916.13 C2478.36,1916.13 2480.7,1917.12 2482.61,1919.1 C2484.53,1921.08 2485.49,1923.46 2485.49,1926.24 C2485.49,1927.48 2484.47,1928.83 2482.43,1930.28 C2480.39,1931.73 2479.37,1933.08 2479.37,1934.31 C2479.37,1936.23 2480.31,1937.64 2482.2,1938.54 C2484.08,1939.43 2486.36,1939.88 2489.02,1939.88 C2492.48,1939.88 2494.94,1938.16 2496.39,1934.73 C2497.84,1931.3 2498.57,1927.08 2498.57,1922.07 L2498.57,1919.66 C2498.57,1916.32 2498.46,1913.78 2498.25,1912.05 C2498.03,1910.32 2497.35,1908.77 2496.2,1907.41 C2495.06,1906.05 2493.31,1905.37 2490.96,1905.37 L2478.81,1905.37 C2477.39,1905.37 2476.68,1904.6 2476.68,1903.05 C2476.68,1901.63 2477.39,1900.92 2478.81,1900.92 L2490.96,1900.92 C2493.5,1900.92 2495.48,1899.96 2496.9,1898.04 C2497.4,1897.36 2497.8,1896.25 2498.11,1894.7 C2498.42,1892.66 2498.57,1889.72 2498.57,1885.89 L2498.57,1884.68 C2498.57,1875.47 2495.17,1870.86 2488.37,1870.86 C2482.37,1870.86 2479.37,1872.53 2479.37,1875.87 C2479.37,1876.98 2480.28,1878.17 2482.1,1879.44 C2483.93,1880.71 2484.84,1881.9 2484.84,1883.01 C2484.84,1885.42 2483.99,1887.49 2482.29,1889.23 C2480.59,1890.96 2478.52,1891.82 2476.07,1891.82 C2473.63,1891.82 2471.57,1890.96 2469.9,1889.23 C2468.23,1887.49 2467.4,1885.42 2467.4,1883.01 C2467.4,1878.25 2469.47,1874.44 2473.61,1871.6 C2477.76,1868.75 2482.68,1867.33 2488.37,1867.33 C2495.85,1867.33 2502,1868.77 2506.83,1871.65 C2511.65,1874.52 2514.06,1878.87 2514.06,1884.68 C2514.06,1888.82 2513.63,1892.04 2512.77,1894.33 C2511.9,1896.62 2510.91,1898.01 2509.8,1898.5 C2508.68,1899 2507.69,1899.57 2506.83,1900.22 C2505.96,1900.87 2505.53,1901.81 2505.53,1903.05"/>
<path class="FiguredBass" d="M2440.23,2030.88 C2439.55,2031.62 2438.65,2031.99 2437.54,2031.99 C2436.43,2031.99 2435.51,2031.61 2434.8,2030.83 C2434.09,2030.06 2433.74,2029.18 2433.74,2028.19 L2433.74,2014.92 L2420.47,2014.92 C2419.36,2014.92 2418.44,2014.54 2417.73,2013.76 C2417.02,2012.99 2416.67,2012.11 2416.67,2011.12 C2416.67,2010.13 2417.02,2009.25 2417.73,2008.47 C2418.44,2007.7 2419.36,2007.32 2420.47,2007.32 L2433.74,2007.32 L2433.74,1994.05 C2433.74,1993.06 2434.09,1992.18 2434.8,1991.4 C2435.51,1990.63 2436.43,1990.25 2437.54,1990.25 C2438.65,1990.25 2439.56,1990.63 2440.28,1991.4 C2440.99,1992.18 2441.34,1993.06 2441.34,1994.05 L2441.34,2007.32 L2454.61,2007.32 C2455.72,2007.32 2456.64,2007.7 2457.35,2008.47 C2458.06,2009.25 2458.41,2010.13 2458.41,2011.12 C2458.41,2012.11 2458.06,2012.99 2457.35,2013.76 C2456.64,2014.54 2455.72,2014.92 2454.61,2014.92 L2441.34,2014.92 L2441.34,2028.19 C2441.34,2029.18 2440.97,2030.08 2440.23,2030.88 M2493.65,1976.61 C2489.08,1976.61 2486.03,1978.45 2484.52,1982.13 C2483,1985.81 2482.24,1991.02 2482.24,1997.76 L2482.24,2008.71 C2485.46,2007.41 2488.24,2006.73 2490.59,2006.67 C2498.63,2006.67 2504.96,2008.44 2509.56,2012 C2514.17,2015.56 2516.48,2020.84 2516.48,2027.86 C2516.48,2034.88 2514.14,2040.19 2509.47,2043.78 C2504.8,2047.36 2498.51,2049.16 2490.59,2049.16 C2482.49,2049.16 2476.15,2045.4 2471.57,2037.88 C2467,2030.37 2464.71,2021.45 2464.71,2011.12 C2464.71,2000.85 2467.37,1991.95 2472.69,1984.4 C2478.01,1976.85 2484.99,1973.08 2493.65,1973.08 C2499.34,1973.08 2504.26,1974.52 2508.4,1977.4 C2512.55,1980.27 2514.62,1984.06 2514.62,1988.76 C2514.62,1991.48 2513.63,1993.83 2511.65,1995.81 C2509.67,1997.79 2507.31,1998.78 2504.55,1998.78 C2501.8,1998.78 2499.44,1997.79 2497.46,1995.81 C2495.48,1993.83 2494.49,1991.48 2494.49,1988.76 C2494.49,1986.1 2495.48,1983.75 2497.46,1981.71 C2498.14,1980.91 2499.1,1980.23 2500.33,1979.67 C2500.02,1978.86 2499.41,1978.25 2498.48,1977.81 C2497.12,1977.01 2495.51,1976.61 2493.65,1976.61 M2498.2,2014.55 C2497.09,2011.64 2494.64,2010.19 2490.87,2010.19 C2487.1,2010.19 2484.76,2011.64 2483.87,2014.55 C2482.97,2017.46 2482.52,2021.88 2482.52,2027.82 C2482.52,2034.81 2482.97,2039.51 2483.87,2041.92 C2484.76,2044.33 2487.1,2045.54 2490.87,2045.54 C2494.64,2045.54 2497.09,2044.08 2498.2,2041.18 C2499.31,2038.27 2499.87,2033.83 2499.87,2027.86 C2499.87,2021.9 2499.31,2017.46 2498.2,2014.55"/>
<path class="FiguredBass" d="M3382.79,1837.66 C3376.79,1837.66 3372.43,1835.99 3369.71,1832.65 C3368.72,1831.41 3367.45,1830.27 3365.9,1829.21 C3364.36,1828.16 3362.66,1827.64 3360.8,1827.64 C3358.39,1827.64 3356.22,1828.39 3354.31,1829.91 C3352.39,1831.42 3351.43,1833.45 3351.43,1835.99 C3351.43,1837.1 3350.87,1837.66 3349.76,1837.66 C3348.52,1837.66 3347.9,1837.1 3347.9,1835.99 C3347.9,1832.21 3348.79,1828.77 3350.55,1825.64 C3352.31,1822.52 3354.52,1819.89 3357.18,1817.76 C3359.84,1815.62 3362.72,1813.33 3365.81,1810.89 C3368.9,1808.45 3371.76,1806.08 3374.39,1803.79 C3377.02,1801.51 3379.22,1798.61 3380.98,1795.12 C3382.74,1791.63 3383.62,1787.81 3383.62,1783.66 C3383.62,1778.47 3382.77,1774.08 3381.07,1770.49 C3379.37,1766.9 3376.7,1765.11 3373.05,1765.11 C3370.94,1765.11 3369.12,1765.62 3367.57,1766.64 C3366.03,1767.66 3365.25,1769 3365.25,1770.67 C3365.25,1771.97 3366.13,1773.67 3367.9,1775.78 C3369.66,1777.88 3370.54,1779.64 3370.54,1781.06 C3370.54,1784.03 3369.54,1786.52 3367.53,1788.53 C3365.52,1790.54 3363.09,1791.55 3360.24,1791.55 C3357.27,1791.55 3354.79,1790.51 3352.78,1788.44 C3350.77,1786.37 3349.76,1783.91 3349.76,1781.06 C3349.76,1775.37 3352.03,1770.7 3356.58,1767.06 C3361.12,1763.41 3366.61,1761.58 3373.05,1761.58 C3380.65,1761.58 3387.29,1763.64 3392.95,1767.75 C3398.61,1771.86 3401.43,1777.17 3401.43,1783.66 C3401.43,1788.05 3400.65,1791.86 3399.07,1795.07 C3397.49,1798.29 3395.23,1800.89 3392.3,1802.87 C3389.36,1804.85 3386.42,1806.53 3383.48,1807.92 C3380.55,1809.31 3377.1,1810.81 3373.14,1812.42 C3369.18,1814.03 3366,1815.61 3363.58,1817.15 C3364.88,1816.84 3366.21,1816.69 3367.57,1816.69 C3372.15,1816.69 3376.91,1818.17 3381.86,1821.14 C3386.81,1824.11 3390.7,1825.6 3393.55,1825.6 C3395.16,1825.6 3396.47,1825.3 3397.49,1824.71 C3398.51,1824.13 3399.18,1823.48 3399.49,1822.77 C3399.8,1822.05 3400.15,1821.39 3400.55,1820.77 C3400.96,1820.15 3401.4,1819.84 3401.9,1819.84 C3403.14,1819.84 3403.75,1820.46 3403.75,1821.7 C3403.75,1824.36 3401.84,1827.68 3398,1831.67 C3394.17,1835.66 3389.1,1837.66 3382.79,1837.66"/>
<path class="FiguredBass" d="M3378.61,1870.86 C3374.04,1870.86 3370.99,1872.7 3369.47,1876.38 C3367.96,1880.06 3367.2,1885.27 3367.2,1892.01 L3367.2,1902.96 C3370.42,1901.66 3373.2,1900.98 3375.55,1900.92 C3383.59,1900.92 3389.92,1902.69 3394.52,1906.25 C3399.13,1909.81 3401.43,1915.09 3401.43,1922.11 C3401.43,1929.13 3399.1,1934.44 3394.43,1938.03 C3389.76,1941.61 3383.47,1943.41 3375.55,1943.41 C3367.45,1943.41 3361.11,1939.65 3356.53,1932.13 C3351.96,1924.62 3349.67,1915.7 3349.67,1905.37 C3349.67,1895.1 3352.33,1886.2 3357.65,1878.65 C3362.96,1871.1 3369.95,1867.33 3378.61,1867.33 C3384.3,1867.33 3389.22,1868.77 3393.36,1871.65 C3397.51,1874.52 3399.58,1878.31 3399.58,1883.01 C3399.58,1885.73 3398.59,1888.08 3396.61,1890.06 C3394.63,1892.04 3392.27,1893.03 3389.51,1893.03 C3386.76,1893.03 3384.4,1892.04 3382.42,1890.06 C3380.44,1888.08 3379.45,1885.73 3379.45,1883.01 C3379.45,1880.35 3380.44,1878 3382.42,1875.96 C3383.1,1875.16 3384.06,1874.48 3385.29,1873.92 C3384.98,1873.11 3384.36,1872.5 3383.44,1872.06 C3382.08,1871.26 3380.47,1870.86 3378.61,1870.86 M3383.16,1908.8 C3382.05,1905.89 3379.6,1904.44 3375.83,1904.44 C3372.06,1904.44 3369.72,1905.89 3368.82,1908.8 C3367.93,1911.71 3367.48,1916.13 3367.48,1922.07 C3367.48,1929.06 3367.93,1933.76 3368.82,1936.17 C3369.72,1938.58 3372.06,1939.79 3375.83,1939.79 C3379.6,1939.79 3382.05,1938.33 3383.16,1935.43 C3384.27,1932.52 3384.83,1928.08 3384.83,1922.11 C3384.83,1916.15 3384.27,1911.71 3383.16,1908.8"/>
<path class="FiguredBass" d="M3325.19,2030.88 C3324.51,2031.62 3323.61,2031.99 3322.5,2031.99 C3321.38,2031.99 3320.47,2031.61 3319.76,2030.83 C3319.05,2030.06 3318.69,2029.18 3318.69,2028.19 L3318.69,2014.92 L3305.43,2014.92 C3304.31,2014.92 3303.4,2014.54 3302.69,2013.76 C3301.98,2012.99 3301.62,2012.11 3301.62,2011.12 C3301.62,2010.13 3301.98,2009.25 3302.69,2008.47 C3303.4,2007.7 3304.31,2007.32 3305.43,2007.32 L3318.69,2007.32 L3318.69,1994.05 C3318.69,1993.06 3319.05,1992.18 3319.76,1991.4 C3320.47,1990.63 3321.38,1990.25 3322.5,1990.25 C3323.61,1990.25 3324.52,1990.63 3325.24,1991.4 C3325.95,1992.18 3326.3,1993.06 3326.3,1994.05 L3326.3,2007.32 L3339.57,2007.32 C3340.68,2007.32 3341.59,2007.7 3342.31,2008.47 C3343.02,2009.25 3343.37,2010.13 3343.37,2011.12 C3343.37,2012.11 3343.02,2012.99 3342.31,2013.76 C3341.59,2014.54 3340.68,2014.92 3339.57,2014.92 L3326.3,2014.92 L3326.3,2028.19 C3326.3,2029.18 3325.93,2030.08 3325.19,2030.88 M3377.96,1975.03 C3380.31,1975.03 3382.79,1974.69 3385.38,1974.01 L3389.56,1972.9 C3390.36,1972.9 3391,1973.21 3391.46,1973.82 C3391.93,1974.44 3391.88,1975 3391.32,1975.49 L3348.18,2025.68 L3373.51,2025.68 L3373.51,2005.83 C3373.51,2004.41 3373.9,2003.31 3374.67,2002.54 C3375.44,2001.76 3376.43,2001.15 3377.64,2000.68 C3378.84,2000.22 3380.42,1998.84 3382.37,1996.55 C3384.32,1994.27 3386.19,1991.17 3387.98,1987.28 C3388.29,1986.66 3388.76,1986.35 3389.37,1986.35 C3390.67,1986.35 3391.32,1987.06 3391.32,1988.48 L3391.32,2025.68 L3402.27,2025.68 C3403.82,2025.68 3404.59,2026.4 3404.59,2027.82 C3404.59,2029.36 3403.82,2030.14 3402.27,2030.14 L3391.32,2030.14 L3391.32,2031.34 C3391.32,2035.18 3392.34,2038.52 3394.38,2041.36 C3396.43,2044.21 3399.05,2045.63 3402.27,2045.63 C3403.51,2045.63 3404.13,2046.19 3404.13,2047.3 C3404.13,2048.54 3403.51,2049.16 3402.27,2049.16 C3400.04,2049.16 3396.73,2048.83 3392.34,2048.18 C3387.95,2047.53 3384.63,2047.21 3382.37,2047.21 C3380.11,2047.21 3376.79,2047.53 3372.4,2048.18 C3368.01,2048.83 3364.7,2049.16 3362.47,2049.16 C3361.23,2049.16 3360.61,2048.54 3360.61,2047.3 C3360.61,2046.19 3361.23,2045.63 3362.47,2045.63 C3365.69,2045.63 3368.33,2044.21 3370.4,2041.36 C3372.47,2038.52 3373.51,2035.18 3373.51,2031.34 L3373.51,2030.14 L3348.18,2030.14 C3346.57,2030.14 3345.38,2029.75 3344.61,2028.98 C3343.84,2028.2 3343.45,2027.42 3343.45,2026.61 C3343.45,2026.3 3344.18,2025.24 3345.63,2023.41 C3347.09,2021.59 3348.86,2019.16 3350.97,2016.13 C3353.07,2013.1 3355.16,2009.65 3357.23,2005.78 C3359.3,2001.92 3361.06,1997.28 3362.52,1991.87 C3363.97,1986.46 3364.7,1981 3364.7,1975.49 C3364.7,1973.89 3365.38,1973.08 3366.74,1973.08 C3366.92,1973.08 3367.57,1973.24 3368.69,1973.55 C3369.8,1973.86 3371.22,1974.18 3372.95,1974.52 C3374.69,1974.86 3376.36,1975.03 3377.96,1975.03"/>
<polyline class="FretDiagram" stroke="#fc02ff" stroke-width="4.76" stroke-linejoin="bevel" points="529.931,227.452 743.039,227.452"/>
<polyline class="FretDiagram" stroke="#fc02ff" stroke-width="4.76" stroke-linejoin="bevel" points="532.312,215.547 532.312,441.751"/>
<polyline class="FretDiagram" stroke="#fc02ff" stroke-width="4.76" stroke-linejoin="bevel" points="573.981,215.547 573.981,441.751"/>
<polyline class="FretDiagram" stroke="#fc02ff" stroke-width="4.76" stroke-linejoin="bevel" points="615.65,215.547 615.65,441.751"/>
<polyline class="FretDiagram" stroke="#fc02ff" stroke-width="4.76" stroke-linejoin="bevel" points="657.32,215.547 657.32,441.751"/>
<polyline class="FretDiagram" stroke="#fc02ff" stroke-width="4.76" stroke-linejoin="bevel" points="698.989,215.547 698.989,441.751"/>
<polyline class="FretDiagram" stroke="#fc02ff" stroke-width="4.76" stroke-linejoin="bevel" points="740.658,215.547 740.658,441.751"/>
<polyline class="FretDiagram" stroke="#fc02ff" stroke-width="4.76" stroke-linejoin="bevel" points="532.312,275.074 740.658,275.074"/>
<polyline class="FretDiagram" stroke="#fc02ff" stroke-width="4.76" stroke-linejoin="bevel" points="532.312,322.696 740.658,322.696"/>
<polyline class="FretDiagram" stroke="#fc02ff" stroke-width="4.76" stroke-linejoin="bevel" points="532.312,370.318 740.658,370.318"/>
<polyline class="FretDiagram" stroke="#fc02ff" stroke-width="4.76" stroke-linejoin="bevel" points="532.312,417.94 740.658,417.94"/>
<path class="FretDiagram" fill="#fc02ff" fill-rule="evenodd" d="M630.235,346.507 C630.235,354.562 623.705,361.091 615.65,361.091 C607.596,361.091 601.066,354.562 601.066,346.507 C601.066,338.453 607.596,331.923 615.65,331.923 C623.705,331.923 630.235,338.453 630.235,346.507"/>
<path class="FretDiagram" fill="#fc02ff" fill-rule="evenodd" d="M671.904,298.885 C671.904,306.94 665.374,313.469 657.32,313.469 C649.265,313.469 642.735,306.94 642.735,298.885 C642.735,290.83 649.265,284.301 657.32,284.301 C665.374,284.301 671.904,290.83 671.904,298.885"/>
<path class="FretDiagram" fill="#fc02ff" fill-rule="evenodd" d="M713.573,346.507 C713.573,354.562 707.044,361.091 698.989,361.091 C690.934,361.091 684.405,354.562 684.405,346.507 C684.405,338.453 690.934,331.923 698.989,331.923 C707.044,331.923 713.573,338.453 713.573,346.507"/>
<polyline class="FretDiagram" fill="none" stroke="#fc02ff" stroke-width="6.86" stroke-linecap="round" stroke-linejoin="bevel" points="515.644,163.162 548.979,196.498"/>
<polyline class="FretDiagram" fill="none" stroke="#fc02ff" stroke-width="6.86" stroke-linecap="round" stroke-linejoin="bevel" points="515.644,196.498 548.979,163.162"/>
<path class="FretDiagram" fill="none" stroke="#fc02ff" stroke-width="6.86" stroke-linecap="round" stroke-linejoin="bevel" fill-rule="evenodd" d="M590.649,179.83 C590.649,189.035 583.186,196.498 573.981,196.498 C564.776,196.498 557.313,189.035 557.313,179.83 C557.313,170.625 564.776,163.162 573.981,163.162 C583.186,163.162 590.649,170.625 590.649,179.83"/>
<path class="FretDiagram" fill="none" stroke="#fc02ff" stroke-width="6.86" stroke-linecap="round" stroke-linejoin="bevel" fill-rule="evenodd" d="M757.326,179.83 C757.326,189.035 749.864,196.498 740.658,196.498 C731.453,196.498 723.99,189.035 723.99,179.83 C723.99,170.625 731.453,163.162 740.658,163.162 C749.864,163.162 757.326,170.625 757.326,179.83"/>
<polyline class="FretDiagram" fill="none" stroke="#fc02ff" stroke-width="29.17" stroke-linecap="round" stroke-linejoin="bevel" points="573.981,251.263 740.658,251.263"/>
<path class="FretDiagram" fill="#fc02ff" d="M467.593,240.53 C468.036,224.95 475.446,217.16 489.823,217.16 C496.22,217.16 501.413,218.996 505.403,222.67 C509.393,226.343 511.388,231.093 511.388,236.92 C511.388,245.28 506.638,252.056 497.138,257.25 L487.638,262.38 C483.521,264.596 480.576,266.75 478.803,268.84 C477.03,270.93 475.921,273.4 475.478,276.25 L510.913,276.25 L510.913,284.515 L466.073,284.515 C466.453,277.105 467.941,271.389 470.538,267.367 C473.135,263.345 477.948,259.34 484.978,255.35 L493.718,250.41 C499.798,246.926 502.838,242.493 502.838,237.11 C502.838,233.5 501.571,230.491 499.038,228.085 C496.505,225.678 493.338,224.475 489.538,224.475 C481.115,224.475 476.586,229.826 475.953,240.53 L467.593,240.53 "/>
<polyline class="FretDiagram" fill="#fc02ff" stroke="#fc02ff" stroke-width="4.76" stroke-linejoin="bevel" points="1427.57,227.452 1640.68,227.452"/>
<polyline class="FretDiagram" fill="#fc02ff" stroke="#fc02ff" stroke-width="4.76" stroke-linejoin="bevel" points="1429.95,215.547 1429.95,441.751"/>
<polyline class="FretDiagram" fill="#fc02ff" stroke="#fc02ff" stroke-width="4.76" stroke-linejoin="bevel" points="1471.62,215.547 1471.62,441.751"/>
<polyline class="FretDiagram" fill="#fc02ff" stroke="#fc02ff" stroke-width="4.76" stroke-linejoin="bevel" points="1513.29,215.547 1513.29,441.751"/>
<polyline class="FretDiagram" fill="#fc02ff" stroke="#fc02ff" stroke-width="4.76" stroke-linejoin="bevel" points="1554.96,215.547 1554.96,441.751"/>
<polyline class="FretDiagram" fill="#fc02ff" stroke="#fc02ff" stroke-width="4.76" stroke-linejoin="bevel" points="1596.63,215.547 1596.63,441.751"/>
<polyline class="FretDiagram" fill="#fc02ff" stroke="#fc02ff" stroke-width="4.76" stroke-linejoin="bevel" points="1638.3,215.547 1638.3,441.751"/>
<polyline class="FretDiagram" fill="#fc02ff" stroke="#fc02ff" stroke-width="4.76" stroke-linejoin="bevel" points="1429.95,275.074 1638.3,275.074"/>
<polyline class="FretDiagram" fill="#fc02ff" stroke="#fc02ff" stroke-width="4.76" stroke-linejoin="bevel" points="1429.95,322.696 1638.3,322.696"/>
<polyline class="FretDiagram" fill="#fc02ff" stroke="#fc02ff" stroke-width="4.76" stroke-linejoin="bevel" points="1429.95,370.318 1638.3,370.318"/>
<polyline class="FretDiagram" fill="#fc02ff" stroke="#fc02ff" stroke-width="4.76" stroke-linejoin="bevel" points="1429.95,417.94 1638.3,417.94"/>
<path class="FretDiagram" fill="#fc02ff" fill-rule="evenodd" d="M1486.2,298.885 C1486.2,306.94 1479.67,313.469 1471.62,313.469 C1463.56,313.469 1457.03,306.94 1457.03,298.885 C1457.03,290.83 1463.56,284.301 1471.62,284.301 C1479.67,284.301 1486.2,290.83 1486.2,298.885"/>
<path class="FretDiagram" fill="#fc02ff" fill-rule="evenodd" d="M1611.21,346.507 C1611.21,354.562 1604.68,361.091 1596.63,361.091 C1588.57,361.091 1582.04,354.562 1582.04,346.507 C1582.04,338.453 1588.57,331.923 1596.63,331.923 C1604.68,331.923 1611.21,338.453 1611.21,346.507"/>
<polyline class="FretDiagram" fill="none" stroke="#fc02ff" stroke-width="6.86" stroke-linecap="round" stroke-linejoin="bevel" points="1413.28,163.162 1446.62,196.498"/>
<polyline class="FretDiagram" fill="none" stroke="#fc02ff" stroke-width="6.86" stroke-linecap="round" stroke-linejoin="bevel" points="1413.28,196.498 1446.62,163.162"/>
<polyline class="FretDiagram" fill="none" stroke="#fc02ff" stroke-width="6.86" stroke-linecap="round" stroke-linejoin="bevel" points="1496.62,163.162 1529.96,196.498"/>
<polyline class="FretDiagram" fill="none" stroke="#fc02ff" stroke-width="6.86" stroke-linecap="round" stroke-linejoin="bevel" points="1496.62,196.498 1529.96,163.162"/>
<path class="FretDiagram" fill="none" stroke="#fc02ff" stroke-width="6.86" stroke-linecap="round" stroke-linejoin="bevel" fill-rule="evenodd" d="M1571.63,179.83 C1571.63,189.035 1564.16,196.498 1554.96,196.498 C1545.75,196.498 1538.29,189.035 1538.29,179.83 C1538.29,170.625 1545.75,163.162 1554.96,163.162 C1564.16,163.162 1571.63,170.625 1571.63,179.83"/>
<path class="FretDiagram" fill="none" stroke="#fc02ff" stroke-width="6.86" stroke-linecap="round" stroke-linejoin="bevel" fill-rule="evenodd" d="M1654.96,179.83 C1654.96,189.035 1647.5,196.498 1638.3,196.498 C1629.09,196.498 1621.63,189.035 1621.63,179.83 C1621.63,170.625 1629.09,163.162 1638.3,163.162 C1647.5,163.162 1654.96,170.625 1654.96,179.83"/>
<polyline class="FretDiagram" fill="none" stroke="#fc02ff" stroke-width="29.17" stroke-linecap="round" stroke-linejoin="bevel" points="1471.62,251.263 1638.3,251.263"/>
<path class="FretDiagram" fill="#fc02ff" d="M1405.7,217.16 L1405.7,225.425 L1377.68,225.425 L1375.02,244.235 C1378.75,241.511 1382.9,240.15 1387.46,240.15 C1393.92,240.15 1399.16,242.224 1403.18,246.372 C1407.21,250.52 1409.22,255.92 1409.22,262.57 C1409.22,269.663 1407.06,275.458 1402.76,279.955 C1398.45,284.451 1392.91,286.7 1386.13,286.7 C1383.53,286.7 1381.14,286.415 1378.96,285.845 C1376.77,285.275 1374.97,284.594 1373.54,283.802 C1372.12,283.01 1370.82,281.965 1369.65,280.667 C1368.48,279.369 1367.59,278.229 1366.99,277.247 C1366.39,276.265 1365.82,275.03 1365.28,273.542 C1364.74,272.054 1364.41,271.025 1364.28,270.455 C1364.15,269.885 1364,269.061 1363.81,267.985 L1372.17,267.985 C1374.13,275.521 1378.72,279.29 1385.94,279.29 C1390.5,279.29 1394.1,277.896 1396.72,275.11 C1399.35,272.323 1400.67,268.523 1400.67,263.71 C1400.67,258.706 1399.34,254.764 1396.68,251.882 C1394.02,249 1390.44,247.56 1385.94,247.56 C1383.34,247.56 1381.13,248.019 1379.29,248.937 C1377.45,249.855 1375.55,251.486 1373.59,253.83 L1365.9,253.83 L1370.93,217.16 L1405.7,217.16 "/>
<polyline class="FretDiagram" fill="#fc02ff" stroke="#fc0107" stroke-width="4.76" stroke-linejoin="bevel" points="2390.03,227.452 2603.14,227.452"/>
<polyline class="FretDiagram" fill="#fc02ff" stroke="#fc0107" stroke-width="4.76" stroke-linejoin="bevel" points="2392.42,215.547 2392.42,441.751"/>
<polyline class="FretDiagram" fill="#fc02ff" stroke="#fc0107" stroke-width="4.76" stroke-linejoin="bevel" points="2434.08,215.547 2434.08,441.751"/>
<polyline class="FretDiagram" fill="#fc02ff" stroke="#fc0107" stroke-width="4.76" stroke-linejoin="bevel" points="2475.75,215.547 2475.75,441.751"/>
<polyline class="FretDiagram" fill="#fc02ff" stroke="#fc0107" stroke-width="4.76" stroke-linejoin="bevel" points="2517.42,215.547 2517.42,441.751"/>
<polyline class="FretDiagram" fill="#fc02ff" stroke="#fc0107" stroke-width="4.76" stroke-linejoin="bevel" points="2559.09,215.547 2559.09,441.751"/>
<polyline class="FretDiagram" fill="#fc02ff" stroke="#fc0107" stroke-width="4.76" stroke-linejoin="bevel" points="2600.76,215.547 2600.76,441.751"/>
<polyline class="FretDiagram" fill="#fc02ff" stroke="#fc0107" stroke-width="4.76" stroke-linejoin="bevel" points="2392.42,275.074 2600.76,275.074"/>
<polyline class="FretDiagram" fill="#fc02ff" stroke="#fc0107" stroke-width="4.76" stroke-linejoin="bevel" points="2392.42,322.696 2600.76,322.696"/>
<polyline class="FretDiagram" fill="#fc02ff" stroke="#fc0107" stroke-width="4.76" stroke-linejoin="bevel" points="2392.42,370.318 2600.76,370.318"/>
<polyline class="FretDiagram" fill="#fc02ff" stroke="#fc0107" stroke-width="4.76" stroke-linejoin="bevel" points="2392.42,417.94 2600.76,417.94"/>
<path class="FretDiagram" fill="#fc0107" fill-rule="evenodd" d="M2490.34,251.263 C2490.34,259.318 2483.81,265.847 2475.75,265.847 C2467.7,265.847 2461.17,259.318 2461.17,251.263 C2461.17,243.208 2467.7,236.679 2475.75,236.679 C2483.81,236.679 2490.34,243.208 2490.34,251.263"/>
<path class="FretDiagram" fill="#fc0107" fill-rule="evenodd" d="M2532.01,298.885 C2532.01,306.94 2525.48,313.469 2517.42,313.469 C2509.37,313.469 2502.84,306.94 2502.84,298.885 C2502.84,290.83 2509.37,284.301 2517.42,284.301 C2525.48,284.301 2532.01,290.83 2532.01,298.885"/>
<path class="FretDiagram" fill="#fc0107" fill-rule="evenodd" d="M2573.68,251.263 C2573.68,259.318 2567.15,265.847 2559.09,265.847 C2551.04,265.847 2544.51,259.318 2544.51,251.263 C2544.51,243.208 2551.04,236.679 2559.09,236.679 C2567.15,236.679 2573.68,243.208 2573.68,251.263"/>
<path class="FretDiagram" fill="#fc0107" fill-rule="evenodd" d="M2615.35,298.885 C2615.35,306.94 2608.82,313.469 2600.76,313.469 C2592.71,313.469 2586.18,306.94 2586.18,298.885 C2586.18,290.83 2592.71,284.301 2600.76,284.301 C2608.82,284.301 2615.35,290.83 2615.35,298.885"/>
<polyline class="FretDiagram" fill="none" stroke="#fc0107" stroke-width="6.86" stroke-linecap="round" stroke-linejoin="bevel" points="2375.75,163.162 2409.08,196.498"/>
<polyline class="FretDiagram" fill="none" stroke="#fc0107" stroke-width="6.86" stroke-linecap="round" stroke-linejoin="bevel" points="2375.75,196.498 2409.08,163.162"/>
<polyline class="FretDiagram" fill="none" stroke="#fc0107" stroke-width="6.86" stroke-linecap="round" stroke-linejoin="bevel" points="2417.42,163.162 2450.75,196.498"/>
<polyline class="FretDiagram" fill="none" stroke="#fc0107" stroke-width="6.86" stroke-linecap="round" stroke-linejoin="bevel" points="2417.42,196.498 2450.75,163.162"/>
<path class="FretDiagram" fill="#fc0107" d="M2354.01,268.365 L2325.61,268.365 L2325.61,259.53 L2356.2,217.16 L2362.37,217.16 L2362.37,260.86 L2372.35,260.86 L2372.35,268.365 L2362.37,268.365 L2362.37,284.515 L2354.01,284.515 L2354.01,268.365 M2354.01,260.86 L2354.01,231.41 L2332.92,260.86 L2354.01,260.86 "/>
<polyline class="FretDiagram" fill="#fc0107" stroke="#0000ff" stroke-width="4.76" stroke-linejoin="bevel" points="3274.99,227.452 3488.1,227.452"/>
<polyline class="FretDiagram" fill="#fc0107" stroke="#0000ff" stroke-width="4.76" stroke-linejoin="bevel" points="3277.37,215.547 3277.37,441.751"/>
<polyline class="FretDiagram" fill="#fc0107" stroke="#0000ff" stroke-width="4.76" stroke-linejoin="bevel" points="3319.04,215.547 3319.04,441.751"/>
<polyline class="FretDiagram" fill="#fc0107" stroke="#0000ff" stroke-width="4.76" stroke-linejoin="bevel" points="3360.71,215.547 3360.71,441.751"/>
<polyline class="FretDiagram" fill="#fc0107" stroke="#0000ff" stroke-width="4.76" stroke-linejoin="bevel" points="3402.38,215.547 3402.38,441.751"/>
<polyline class="FretDiagram" fill="#fc0107" stroke="#0000ff" stroke-width="4.76" stroke-linejoin="bevel" points="3444.05,215.547 3444.05,441.751"/>
<polyline class="FretDiagram" fill="#fc0107" stroke="#0000ff" stroke-width="4.76" stroke-linejoin="bevel" points="3485.72,215.547 3485.72,441.751"/>
<polyline class="FretDiagram" fill="#fc0107" stroke="#0000ff" stroke-width="4.76" stroke-linejoin="bevel" points="3277.37,275.074 3485.72,275.074"/>
<polyline class="FretDiagram" fill="#fc0107" stroke="#0000ff" stroke-width="4.76" stroke-linejoin="bevel" points="3277.37,322.696 3485.72,322.696"/>
<polyline class="FretDiagram" fill="#fc0107" stroke="#0000ff" stroke-width="4.76" stroke-linejoin="bevel" points="3277.37,370.318 3485.72,370.318"/>
<polyline class="FretDiagram" fill="#fc0107" stroke="#0000ff" stroke-width="4.76" stroke-linejoin="bevel" points="3277.37,417.94 3485.72,417.94"/>
<path class="FretDiagram" fill="#0000ff" fill-rule="evenodd" d="M3291.96,298.885 C3291.96,306.94 3285.43,313.469 3277.37,313.469 C3269.32,313.469 3262.79,306.94 3262.79,298.885 C3262.79,290.83 3269.32,284.301 3277.37,284.301 C3285.43,284.301 3291.96,290.83 3291.96,298.885"/>
<path class="FretDiagram" fill="#0000ff" fill-rule="evenodd" d="M3416.97,298.885 C3416.97,306.94 3410.44,313.469 3402.38,313.469 C3394.33,313.469 3387.8,306.94 3387.8,298.885 C3387.8,290.83 3394.33,284.301 3402.38,284.301 C3410.44,284.301 3416.97,290.83 3416.97,298.885"/>
<polyline class="FretDiagram" fill="none" stroke="#0000ff" stroke-width="6.86" stroke-linecap="round" stroke-linejoin="bevel" points="3302.38,163.162 3335.71,196.498"/>
<polyline class="FretDiagram" fill="none" stroke="#0000ff" stroke-width="6.86" stroke-linecap="round" stroke-linejoin="bevel" points="3302.38,196.498 3335.71,163.162"/>
<path class="FretDiagram" fill="none" stroke="#0000ff" stroke-width="6.86" stroke-linecap="round" stroke-linejoin="bevel" fill-rule="evenodd" d="M3377.38,179.83 C3377.38,189.035 3369.92,196.498 3360.71,196.498 C3351.51,196.498 3344.05,189.035 3344.05,179.83 C3344.05,170.625 3351.51,163.162 3360.71,163.162 C3369.92,163.162 3377.38,170.625 3377.38,179.83"/>
<path class="FretDiagram" fill="none" stroke="#0000ff" stroke-width="6.86" stroke-linecap="round" stroke-linejoin="bevel" fill-rule="evenodd" d="M3460.72,179.83 C3460.72,189.035 3453.26,196.498 3444.05,196.498 C3434.85,196.498 3427.38,189.035 3427.38,179.83 C3427.38,170.625 3434.85,163.162 3444.05,163.162 C3453.26,163.162 3460.72,170.625 3460.72,179.83"/>
<polyline class="FretDiagram" fill="none" stroke="#0000ff" stroke-width="6.86" stroke-linecap="round" stroke-linejoin="bevel" points="3469.05,163.162 3502.39,196.498"/>
<polyline class="FretDiagram" fill="none" stroke="#0000ff" stroke-width="6.86" stroke-linecap="round" stroke-linejoin="bevel" points="3469.05,196.498 3502.39,163.162"/>
<polyline class="FretDiagram" fill="none" stroke="#0000ff" stroke-width="29.17" stroke-linecap="round" stroke-linejoin="bevel" points="3360.71,251.263 3485.72,251.263"/>
<path class="FretDiagram" fill="#0000ff" d="M3238.97,268.365 L3210.57,268.365 L3210.57,259.53 L3241.16,217.16 L3247.33,217.16 L3247.33,260.86 L3257.31,260.86 L3257.31,268.365 L3247.33,268.365 L3247.33,284.515 L3238.97,284.515 L3238.97,268.365 M3238.97,260.86 L3238.97,231.41 L3217.88,260.86 L3238.97,260.86 "/>
<path class="Bracket" transform="matrix(8.6315,0,0,10.0442,76.1283,2396.23)" d="M0.92002,-50 C2.69004,-51.88 6.2,-55.8 6.2,-63 C6.2,-72.1 2.25996,-81.32 2.25996,-86.97 C2.25996,-93.06 5.84004,-98.84 5.95,-99 C6.05996,-99.16 6.05,-99.39 5.94004,-99.46 C5.82998,-99.53 5.62002,-99.47 5.49004,-99.32 C5.35996,-99.17 0,-93.75 0,-85.6 C0,-76.75 3.5,-70.58 3.5,-59.07 C3.5,-56.89 2.55996,-53.36 0.1,-50.33 C-0.0799805,-50.17 -0.1,-49.89 0.0599609,-49.7 L0.0700195,-49.69 L0.1,-49.66 C2.55996,-46.63 3.5,-43.1 3.5,-40.92 C3.5,-29.4 0,-23.24 0,-14.39 C0,-6.25 5.35996,-0.8 5.49004,-0.659961 C5.62002,-0.52002 5.8,-0.42998 5.94004,-0.52002 C6.07998,-0.609961 6.07998,-0.77998 5.95,-0.97998 C5.82002,-1.17998 2.25996,-6.92002 2.25996,-13.01 C2.25996,-18.66 6.2,-27.9 6.2,-37 C6.2,-44.3 2.69004,-48.12 0.92002,-50"/>
</svg>
