<?xml version="1.0" encoding="UTF-8" standalone="no"?>
<svg width="4209.44px" height="2976.38px" viewBox="0 0 4209.44 2976.38"
 xmlns="http://www.w3.org/2000/svg" xmlns:xlink="http://www.w3.org/1999/xlink" version="1.2" baseProfile="tiny">
<title>La Mineur (20)</title>
<desc>Generated by MuseScore 3.6.2</desc>
<polyline class="StaffLines" fill="none" stroke="#000000" stroke-width="6.55" stroke-linejoin="bevel" points="153.819,558.425 4138.58,558.425"/>
<polyline class="StaffLines" fill="none" stroke="#000000" stroke-width="6.55" stroke-linejoin="bevel" points="153.819,647.717 4138.58,647.717"/>
<polyline class="StaffLines" fill="none" stroke="#000000" stroke-width="6.55" stroke-linejoin="bevel" points="153.819,737.008 4138.58,737.008"/>
<polyline class="StaffLines" fill="none" stroke="#000000" stroke-width="6.55" stroke-linejoin="bevel" points="153.819,826.299 4138.58,826.299"/>
<polyline class="StaffLines" fill="none" stroke="#000000" stroke-width="6.55" stroke-linejoin="bevel" points="153.819,915.591 4138.58,915.591"/>
<polyline class="StaffLines" fill="none" stroke="#000000" stroke-width="6.55" stroke-linejoin="bevel" points="153.819,1004.88 4138.58,1004.88"/>
<polyline class="StaffLines" fill="none" stroke="#000000" stroke-width="6.55" stroke-linejoin="bevel" points="153.819,1391.81 4138.58,1391.81"/>
<polyline class="StaffLines" fill="none" stroke="#000000" stroke-width="6.55" stroke-linejoin="bevel" points="153.819,1451.34 4138.58,1451.34"/>
<polyline class="StaffLines" fill="none" stroke="#000000" stroke-width="6.55" stroke-linejoin="bevel" points="153.819,1510.87 4138.58,1510.87"/>
<polyline class="StaffLines" fill="none" stroke="#000000" stroke-width="6.55" stroke-linejoin="bevel" points="153.819,1570.39 4138.58,1570.39"/>
<polyline class="StaffLines" fill="none" stroke="#000000" stroke-width="6.55" stroke-linejoin="bevel" points="153.819,1629.92 4138.58,1629.92"/>
<polyline class="StaffLines" fill="none" stroke="#000000" stroke-width="6.55" stroke-linejoin="bevel" points="153.819,2128.36 4138.58,2128.36"/>
<polyline class="StaffLines" fill="none" stroke="#000000" stroke-width="6.55" stroke-linejoin="bevel" points="153.819,2187.89 4138.58,2187.89"/>
<polyline class="StaffLines" fill="none" stroke="#000000" stroke-width="6.55" stroke-linejoin="bevel" points="153.819,2247.41 4138.58,2247.41"/>
<polyline class="StaffLines" fill="none" stroke="#000000" stroke-width="6.55" stroke-linejoin="bevel" points="153.819,2306.94 4138.58,2306.94"/>
<polyline class="StaffLines" fill="none" stroke="#000000" stroke-width="6.55" stroke-linejoin="bevel" points="153.819,2366.47 4138.58,2366.47"/>
<path class="Symbol" transform="matrix(2.3811,0,0,2.3811,3164.46,1600.16)" d="M0,-0.1 C0,7.7 4,14 10.4,18.1 L10.9,17.4 C7.5,14.8 6.3,13.3 5.2,10.1 C4.2,7.2 3.7,4 3.7,-0.2 C3.7,-8.1 4.8,-12.3 10.9,-17.4 L10.5,-18.1 C3.9,-13.6 0,-8.5 0,-0.1"/>
<path class="Symbol" transform="matrix(2.3811,0,0,2.3811,3279.22,1600.16)" d="M3.7,-0.2 C3.7,4 3.2,7.2 2.2,10.1 C1,13.3 -0.2,14.8 -3.6,17.4 L-3,18.1 C3.4,14.1 7.3,7.6 7.3,-0.1 C7.3,-8.4 3.4,-13.8 -3.2,-18.1 L-3.6,-17.4 C2.6,-12.4 3.7,-8.1 3.7,-0.2"/>
<path class="Symbol" transform="matrix(2.3811,0,0,2.3811,3677.44,1629.92)" d="M0,-0.1 C0,7.7 4,14 10.4,18.1 L10.9,17.4 C7.5,14.8 6.3,13.3 5.2,10.1 C4.2,7.2 3.7,4 3.7,-0.2 C3.7,-8.1 4.8,-12.3 10.9,-17.4 L10.5,-18.1 C3.9,-13.6 0,-8.5 0,-0.1"/>
<path class="Symbol" transform="matrix(2.3811,0,0,2.3811,3792.2,1629.92)" d="M3.7,-0.2 C3.7,4 3.2,7.2 2.2,10.1 C1,13.3 -0.2,14.8 -3.6,17.4 L-3,18.1 C3.4,14.1 7.3,7.6 7.3,-0.1 C7.3,-8.4 3.4,-13.8 -3.2,-18.1 L-3.6,-17.4 C2.6,-12.4 3.7,-8.1 3.7,-0.2"/>
<path class="Symbol" transform="matrix(2.3811,0,0,2.3811,3175.29,617.953)" d="M0,-0.1 C0,7.7 4,14 10.4,18.1 L10.9,17.4 C7.5,14.8 6.3,13.3 5.2,10.1 C4.2,7.2 3.7,4 3.7,-0.2 C3.7,-8.1 4.8,-12.3 10.9,-17.4 L10.5,-18.1 C3.9,-13.6 0,-8.5 0,-0.1"/>
<path class="Symbol" transform="matrix(2.3811,0,0,2.3811,3280.3,617.953)" d="M3.7,-0.2 C3.7,4 3.2,7.2 2.2,10.1 C1,13.3 -0.2,14.8 -3.6,17.4 L-3,18.1 C3.4,14.1 7.3,7.6 7.3,-0.1 C7.3,-8.4 3.4,-13.8 -3.2,-18.1 L-3.6,-17.4 C2.6,-12.4 3.7,-8.1 3.7,-0.2"/>
<path class="Symbol" transform="matrix(2.3811,0,0,2.3811,3688.28,617.953)" d="M0,-0.1 C0,7.7 4,14 10.4,18.1 L10.9,17.4 C7.5,14.8 6.3,13.3 5.2,10.1 C4.2,7.2 3.7,4 3.7,-0.2 C3.7,-8.1 4.8,-12.3 10.9,-17.4 L10.5,-18.1 C3.9,-13.6 0,-8.5 0,-0.1"/>
<path class="Symbol" transform="matrix(2.3811,0,0,2.3811,3793.29,617.953)" d="M3.7,-0.2 C3.7,4 3.2,7.2 2.2,10.1 C1,13.3 -0.2,14.8 -3.6,17.4 L-3,18.1 C3.4,14.1 7.3,7.6 7.3,-0.1 C7.3,-8.4 3.4,-13.8 -3.2,-18.1 L-3.6,-17.4 C2.6,-12.4 3.7,-8.1 3.7,-0.2"/>
<polyline class="BarLine" fill="none" stroke="#000000" stroke-width="10.71" stroke-linejoin="bevel" points="159.176,2125.08 159.176,2369.74"/>
<polyline class="BarLine" fill="none" stroke="#000000" stroke-width="10.71" stroke-linejoin="bevel" points="973.948,2125.08 973.948,2369.74"/>
<polyline class="BarLine" fill="none" stroke="#000000" stroke-width="10.71" stroke-linejoin="bevel" points="1480.65,2125.08 1480.65,2369.74"/>
<polyline class="BarLine" fill="none" stroke="#000000" stroke-width="10.71" stroke-linejoin="bevel" points="1513.39,2125.08 1513.39,2369.74"/>
<polyline class="BarLine" fill="none" stroke="#000000" stroke-width="10.71" stroke-linejoin="bevel" points="2092.41,2125.08 2092.41,2369.74"/>
<polyline class="BarLine" fill="none" stroke="#000000" stroke-width="10.71" stroke-linejoin="bevel" points="2578.66,2125.08 2578.66,2369.74"/>
<polyline class="BarLine" fill="none" stroke="#000000" stroke-width="10.71" stroke-linejoin="bevel" points="2611.4,2125.08 2611.4,2369.74"/>
<polyline class="BarLine" fill="none" stroke="#000000" stroke-width="10.71" stroke-linejoin="bevel" points="3081.71,2125.08 3081.71,2369.74"/>
<polyline class="BarLine" fill="none" stroke="#000000" stroke-width="10.71" stroke-linejoin="bevel" points="3567.55,2125.08 3567.55,2369.74"/>
<polyline class="BarLine" fill="none" stroke="#000000" stroke-width="10.71" stroke-linejoin="bevel" points="4080.54,2125.08 4080.54,2369.74"/>
<polyline class="BarLine" fill="none" stroke="#000000" stroke-width="32.74" stroke-linejoin="bevel" points="4122.21,2125.08 4122.21,2369.74"/>
<polyline class="BarLine" fill="none" stroke="#000000" stroke-width="10.71" stroke-linejoin="bevel" points="159.176,1388.54 159.176,2128.36"/>
<polyline class="BarLine" fill="none" stroke="#000000" stroke-width="10.71" stroke-linejoin="bevel" points="973.948,1388.54 973.948,1633.2"/>
<polyline class="BarLine" fill="none" stroke="#000000" stroke-width="10.71" stroke-linejoin="bevel" points="1480.65,1388.54 1480.65,1633.2"/>
<polyline class="BarLine" fill="none" stroke="#000000" stroke-width="10.71" stroke-linejoin="bevel" points="1513.39,1388.54 1513.39,1633.2"/>
<polyline class="BarLine" fill="none" stroke="#000000" stroke-width="10.71" stroke-linejoin="bevel" points="2092.41,1388.54 2092.41,1633.2"/>
<polyline class="BarLine" fill="none" stroke="#000000" stroke-width="10.71" stroke-linejoin="bevel" points="2578.66,1388.54 2578.66,1633.2"/>
<polyline class="BarLine" fill="none" stroke="#000000" stroke-width="10.71" stroke-linejoin="bevel" points="2611.4,1388.54 2611.4,1633.2"/>
<polyline class="BarLine" fill="none" stroke="#000000" stroke-width="10.71" stroke-linejoin="bevel" points="3081.71,1388.54 3081.71,1633.2"/>
<polyline class="BarLine" fill="none" stroke="#000000" stroke-width="10.71" stroke-linejoin="bevel" points="3567.55,1388.54 3567.55,1633.2"/>
<polyline class="BarLine" fill="none" stroke="#000000" stroke-width="10.71" stroke-linejoin="bevel" points="4080.54,1388.54 4080.54,1633.2"/>
<polyline class="BarLine" fill="none" stroke="#000000" stroke-width="32.74" stroke-linejoin="bevel" points="4122.21,1388.54 4122.21,1633.2"/>
<polyline class="BarLine" fill="none" stroke="#000000" stroke-width="10.71" stroke-linejoin="bevel" points="159.176,555.151 159.176,1391.81"/>
<polyline class="BarLine" fill="none" stroke="#000000" stroke-width="10.71" stroke-linejoin="bevel" points="973.948,555.151 973.948,1008.16"/>
<polyline class="BarLine" fill="none" stroke="#000000" stroke-width="10.71" stroke-linejoin="bevel" points="1480.65,555.151 1480.65,1008.16"/>
<polyline class="BarLine" fill="none" stroke="#000000" stroke-width="10.71" stroke-linejoin="bevel" points="1513.39,555.151 1513.39,1008.16"/>
<polyline class="BarLine" fill="none" stroke="#000000" stroke-width="10.71" stroke-linejoin="bevel" points="2092.41,555.151 2092.41,1008.16"/>
<polyline class="BarLine" fill="none" stroke="#000000" stroke-width="10.71" stroke-linejoin="bevel" points="2578.66,555.151 2578.66,1008.16"/>
<polyline class="BarLine" fill="none" stroke="#000000" stroke-width="10.71" stroke-linejoin="bevel" points="2611.4,555.151 2611.4,1008.16"/>
<polyline class="BarLine" fill="none" stroke="#000000" stroke-width="10.71" stroke-linejoin="bevel" points="3081.71,555.151 3081.71,1008.16"/>
<polyline class="BarLine" fill="none" stroke="#000000" stroke-width="10.71" stroke-linejoin="bevel" points="3567.55,555.151 3567.55,1008.16"/>
<polyline class="BarLine" fill="none" stroke="#000000" stroke-width="10.71" stroke-linejoin="bevel" points="4080.54,555.151 4080.54,1008.16"/>
<polyline class="BarLine" fill="none" stroke="#000000" stroke-width="32.74" stroke-linejoin="bevel" points="4122.21,555.151 4122.21,1008.16"/>
<path class="Accidental" transform="matrix(2.3811,0,0,2.3811,1576.26,2187.89)" d="M16.6,-18.3 C16.4,-18.5 16.1,-18.6 15.8,-18.6 C15.7,-18.6 15.5,-18.5 15.4,-18.5 L2.8,-15 L2.8,-32.5 L0,-32.5 L0,17 C0,17.8 0.6,18.3 1.4,18.3 L1.8,18.3 L14.4,14.8 L14.4,32.3 L17.1,32.3 L17.1,-17.2 C17.1,-17.6 16.9,-18.1 16.6,-18.3 M14.4,6.5 L2.8,9.7 L2.8,-6.7 L14.4,-10 L14.4,6.5 "/>
<path class="Accidental" transform="matrix(2.3811,0,0,2.3811,3630.42,2158.12)" d="M23.3,-10.6 C23.9,-10.7 24.4,-11.4 24.4,-12 L24.4,-17.9 C24.4,-18.7 23.8,-19.3 23,-19.3 L22.8,-19.3 L19.5,-18.6 L19.5,-33.5 L16.7,-33.5 L16.7,-18 L7.8,-16.2 L7.8,-30.3 L5,-30.3 L5,-15.6 L1.1,-14.8 C0.5,-14.7 0,-14 0,-13.4 L0,-13.2 L0,-7.4 L0,-7.6 C0,-6.8 0.6,-6.2 1.4,-6.2 L1.7,-6.2 L5,-6.9 L5,9.6 L1.1,10.4 C0.5,10.5 0,11.2 0,11.8 L0,17.6 C0,18.4 0.6,19 1.4,19 L1.7,19 L5,18.3 L5,33.2 L7.8,33.2 L7.8,17.7 L16.7,15.9 L16.7,30 L19.5,30 L19.5,15.3 L23.3,14.6 C23.9,14.5 24.4,13.8 24.4,13.2 L24.4,7.3 C24.4,6.5 23.8,5.9 23,5.9 L22.8,5.9 L19.5,6.6 L19.5,-9.9 L23.3,-10.6 M7.8,9.1 L7.8,-7.5 L16.7,-9.3 L16.7,7.2 L7.8,9.1 "/>
<path class="Accidental" transform="matrix(2.3811,0,0,2.3811,1025.37,1570.39)" d="M23.3,-10.6 C23.9,-10.7 24.4,-11.4 24.4,-12 L24.4,-17.9 C24.4,-18.7 23.8,-19.3 23,-19.3 L22.8,-19.3 L19.5,-18.6 L19.5,-33.5 L16.7,-33.5 L16.7,-18 L7.8,-16.2 L7.8,-30.3 L5,-30.3 L5,-15.6 L1.1,-14.8 C0.5,-14.7 0,-14 0,-13.4 L0,-13.2 L0,-7.4 L0,-7.6 C0,-6.8 0.6,-6.2 1.4,-6.2 L1.7,-6.2 L5,-6.9 L5,9.6 L1.1,10.4 C0.5,10.5 0,11.2 0,11.8 L0,17.6 C0,18.4 0.6,19 1.4,19 L1.7,19 L5,18.3 L5,33.2 L7.8,33.2 L7.8,17.7 L16.7,15.9 L16.7,30 L19.5,30 L19.5,15.3 L23.3,14.6 C23.9,14.5 24.4,13.8 24.4,13.2 L24.4,7.3 C24.4,6.5 23.8,5.9 23,5.9 L22.8,5.9 L19.5,6.6 L19.5,-9.9 L23.3,-10.6 M7.8,9.1 L7.8,-7.5 L16.7,-9.3 L16.7,7.2 L7.8,9.1 "/>
<path class="Accidental" transform="matrix(2.3811,0,0,2.3811,2143.83,1570.39)" d="M23.3,-10.6 C23.9,-10.7 24.4,-11.4 24.4,-12 L24.4,-17.9 C24.4,-18.7 23.8,-19.3 23,-19.3 L22.8,-19.3 L19.5,-18.6 L19.5,-33.5 L16.7,-33.5 L16.7,-18 L7.8,-16.2 L7.8,-30.3 L5,-30.3 L5,-15.6 L1.1,-14.8 C0.5,-14.7 0,-14 0,-13.4 L0,-13.2 L0,-7.4 L0,-7.6 C0,-6.8 0.6,-6.2 1.4,-6.2 L1.7,-6.2 L5,-6.9 L5,9.6 L1.1,10.4 C0.5,10.5 0,11.2 0,11.8 L0,17.6 C0,18.4 0.6,19 1.4,19 L1.7,19 L5,18.3 L5,33.2 L7.8,33.2 L7.8,17.7 L16.7,15.9 L16.7,30 L19.5,30 L19.5,15.3 L23.3,14.6 C23.9,14.5 24.4,13.8 24.4,13.2 L24.4,7.3 C24.4,6.5 23.8,5.9 23,5.9 L22.8,5.9 L19.5,6.6 L19.5,-9.9 L23.3,-10.6 M7.8,9.1 L7.8,-7.5 L16.7,-9.3 L16.7,7.2 L7.8,9.1 "/>
<polyline class="LedgerLine" fill="none" stroke="#000000" stroke-width="9.52" stroke-linejoin="bevel" points="1077.52,2426 1207.99,2426"/>
<path class="Note" transform="matrix(2.3811,0,0,2.3811,513.384,2396.23)" d="M18.7,-13.6 C4.9,-13.6 0,-6.6 0,-0.1 C0,6.4 4.9,13.4 18.7,13.4 C32.5,13.4 37.3,6.4 37.3,-0.1 C37.3,-6.6 32.5,-13.6 18.7,-13.6 M10.4,-4.5 C10.3,-4.9 10.3,-5.3 10.3,-5.7 C10.3,-6.5 10.5,-7.3 10.9,-8 C11.6,-9 12.8,-9.7 14.3,-10 C15.6,-10.3 16.3,-10.5 18.9,-10.5 L19,-10.5 C23,-10.5 24.3,-6.8 25.4,-3 L25.7,-2 C26.5,0.6 26.9,2.8 26.9,4.5 C26.9,5.7 26.7,6.8 26.3,7.6 C25.7,8.7 24.7,9.4 23,9.8 C22.1,10 20.6,10.1 20.6,10.1 C20.1,10.1 19.7,10.2 19.3,10.2 C16.1,10.2 14.1,9 12.7,4.7 C11.5,1 11.3,-0.1 10.4,-4.5"/>
<path class="Note" transform="matrix(2.3811,0,0,2.3811,1098.35,2426)" d="M18.7,-13.6 C4.9,-13.6 0,-6.6 0,-0.1 C0,6.4 4.9,13.4 18.7,13.4 C32.5,13.4 37.3,6.4 37.3,-0.1 C37.3,-6.6 32.5,-13.6 18.7,-13.6 M10.4,-4.5 C10.3,-4.9 10.3,-5.3 10.3,-5.7 C10.3,-6.5 10.5,-7.3 10.9,-8 C11.6,-9 12.8,-9.7 14.3,-10 C15.6,-10.3 16.3,-10.5 18.9,-10.5 L19,-10.5 C23,-10.5 24.3,-6.8 25.4,-3 L25.7,-2 C26.5,0.6 26.9,2.8 26.9,4.5 C26.9,5.7 26.7,6.8 26.3,7.6 C25.7,8.7 24.7,9.4 23,9.8 C22.1,10 20.6,10.1 20.6,10.1 C20.1,10.1 19.7,10.2 19.3,10.2 C16.1,10.2 14.1,9 12.7,4.7 C11.5,1 11.3,-0.1 10.4,-4.5"/>
<path class="Note" transform="matrix(2.3811,0,0,2.3811,1631.84,2187.89)" d="M18.7,-13.6 C4.9,-13.6 0,-6.6 0,-0.1 C0,6.4 4.9,13.4 18.7,13.4 C32.5,13.4 37.3,6.4 37.3,-0.1 C37.3,-6.6 32.5,-13.6 18.7,-13.6 M10.4,-4.5 C10.3,-4.9 10.3,-5.3 10.3,-5.7 C10.3,-6.5 10.5,-7.3 10.9,-8 C11.6,-9 12.8,-9.7 14.3,-10 C15.6,-10.3 16.3,-10.5 18.9,-10.5 L19,-10.5 C23,-10.5 24.3,-6.8 25.4,-3 L25.7,-2 C26.5,0.6 26.9,2.8 26.9,4.5 C26.9,5.7 26.7,6.8 26.3,7.6 C25.7,8.7 24.7,9.4 23,9.8 C22.1,10 20.6,10.1 20.6,10.1 C20.1,10.1 19.7,10.2 19.3,10.2 C16.1,10.2 14.1,9 12.7,4.7 C11.5,1 11.3,-0.1 10.4,-4.5"/>
<path class="Note" transform="matrix(2.3811,0,0,2.3811,2216.81,2217.65)" d="M18.7,-13.6 C4.9,-13.6 0,-6.6 0,-0.1 C0,6.4 4.9,13.4 18.7,13.4 C32.5,13.4 37.3,6.4 37.3,-0.1 C37.3,-6.6 32.5,-13.6 18.7,-13.6 M10.4,-4.5 C10.3,-4.9 10.3,-5.3 10.3,-5.7 C10.3,-6.5 10.5,-7.3 10.9,-8 C11.6,-9 12.8,-9.7 14.3,-10 C15.6,-10.3 16.3,-10.5 18.9,-10.5 L19,-10.5 C23,-10.5 24.3,-6.8 25.4,-3 L25.7,-2 C26.5,0.6 26.9,2.8 26.9,4.5 C26.9,5.7 26.7,6.8 26.3,7.6 C25.7,8.7 24.7,9.4 23,9.8 C22.1,10 20.6,10.1 20.6,10.1 C20.1,10.1 19.7,10.2 19.3,10.2 C16.1,10.2 14.1,9 12.7,4.7 C11.5,1 11.3,-0.1 10.4,-4.5"/>
<path class="Note" transform="matrix(2.3811,0,0,2.3811,2699.86,2128.36)" d="M18.7,-13.6 C4.9,-13.6 0,-6.6 0,-0.1 C0,6.4 4.9,13.4 18.7,13.4 C32.5,13.4 37.3,6.4 37.3,-0.1 C37.3,-6.6 32.5,-13.6 18.7,-13.6 M10.4,-4.5 C10.3,-4.9 10.3,-5.3 10.3,-5.7 C10.3,-6.5 10.5,-7.3 10.9,-8 C11.6,-9 12.8,-9.7 14.3,-10 C15.6,-10.3 16.3,-10.5 18.9,-10.5 L19,-10.5 C23,-10.5 24.3,-6.8 25.4,-3 L25.7,-2 C26.5,0.6 26.9,2.8 26.9,4.5 C26.9,5.7 26.7,6.8 26.3,7.6 C25.7,8.7 24.7,9.4 23,9.8 C22.1,10 20.6,10.1 20.6,10.1 C20.1,10.1 19.7,10.2 19.3,10.2 C16.1,10.2 14.1,9 12.7,4.7 C11.5,1 11.3,-0.1 10.4,-4.5"/>
<path class="Note" transform="matrix(2.3811,0,0,2.3811,3190.41,2128.36)" d="M18.7,-13.6 C4.9,-13.6 0,-6.6 0,-0.1 C0,6.4 4.9,13.4 18.7,13.4 C32.5,13.4 37.3,6.4 37.3,-0.1 C37.3,-6.6 32.5,-13.6 18.7,-13.6 M10.4,-4.5 C10.3,-4.9 10.3,-5.3 10.3,-5.7 C10.3,-6.5 10.5,-7.3 10.9,-8 C11.6,-9 12.8,-9.7 14.3,-10 C15.6,-10.3 16.3,-10.5 18.9,-10.5 L19,-10.5 C23,-10.5 24.3,-6.8 25.4,-3 L25.7,-2 C26.5,0.6 26.9,2.8 26.9,4.5 C26.9,5.7 26.7,6.8 26.3,7.6 C25.7,8.7 24.7,9.4 23,9.8 C22.1,10 20.6,10.1 20.6,10.1 C20.1,10.1 19.7,10.2 19.3,10.2 C16.1,10.2 14.1,9 12.7,4.7 C11.5,1 11.3,-0.1 10.4,-4.5"/>
<path class="Note" transform="matrix(2.3811,0,0,2.3811,3703.4,2158.12)" d="M18.7,-13.6 C4.9,-13.6 0,-6.6 0,-0.1 C0,6.4 4.9,13.4 18.7,13.4 C32.5,13.4 37.3,6.4 37.3,-0.1 C37.3,-6.6 32.5,-13.6 18.7,-13.6 M10.4,-4.5 C10.3,-4.9 10.3,-5.3 10.3,-5.7 C10.3,-6.5 10.5,-7.3 10.9,-8 C11.6,-9 12.8,-9.7 14.3,-10 C15.6,-10.3 16.3,-10.5 18.9,-10.5 L19,-10.5 C23,-10.5 24.3,-6.8 25.4,-3 L25.7,-2 C26.5,0.6 26.9,2.8 26.9,4.5 C26.9,5.7 26.7,6.8 26.3,7.6 C25.7,8.7 24.7,9.4 23,9.8 C22.1,10 20.6,10.1 20.6,10.1 C20.1,10.1 19.7,10.2 19.3,10.2 C16.1,10.2 14.1,9 12.7,4.7 C11.5,1 11.3,-0.1 10.4,-4.5"/>
<path class="Note" transform="matrix(2.3811,0,0,2.3811,513.384,1659.69)" d="M18.7,-13.6 C4.9,-13.6 0,-6.6 0,-0.1 C0,6.4 4.9,13.4 18.7,13.4 C32.5,13.4 37.3,6.4 37.3,-0.1 C37.3,-6.6 32.5,-13.6 18.7,-13.6 M10.4,-4.5 C10.3,-4.9 10.3,-5.3 10.3,-5.7 C10.3,-6.5 10.5,-7.3 10.9,-8 C11.6,-9 12.8,-9.7 14.3,-10 C15.6,-10.3 16.3,-10.5 18.9,-10.5 L19,-10.5 C23,-10.5 24.3,-6.8 25.4,-3 L25.7,-2 C26.5,0.6 26.9,2.8 26.9,4.5 C26.9,5.7 26.7,6.8 26.3,7.6 C25.7,8.7 24.7,9.4 23,9.8 C22.1,10 20.6,10.1 20.6,10.1 C20.1,10.1 19.7,10.2 19.3,10.2 C16.1,10.2 14.1,9 12.7,4.7 C11.5,1 11.3,-0.1 10.4,-4.5"/>
<path class="Note" transform="matrix(2.3811,0,0,2.3811,513.384,1540.63)" d="M18.7,-13.6 C4.9,-13.6 0,-6.6 0,-0.1 C0,6.4 4.9,13.4 18.7,13.4 C32.5,13.4 37.3,6.4 37.3,-0.1 C37.3,-6.6 32.5,-13.6 18.7,-13.6 M10.4,-4.5 C10.3,-4.9 10.3,-5.3 10.3,-5.7 C10.3,-6.5 10.5,-7.3 10.9,-8 C11.6,-9 12.8,-9.7 14.3,-10 C15.6,-10.3 16.3,-10.5 18.9,-10.5 L19,-10.5 C23,-10.5 24.3,-6.8 25.4,-3 L25.7,-2 C26.5,0.6 26.9,2.8 26.9,4.5 C26.9,5.7 26.7,6.8 26.3,7.6 C25.7,8.7 24.7,9.4 23,9.8 C22.1,10 20.6,10.1 20.6,10.1 C20.1,10.1 19.7,10.2 19.3,10.2 C16.1,10.2 14.1,9 12.7,4.7 C11.5,1 11.3,-0.1 10.4,-4.5"/>
<path class="Note" transform="matrix(2.3811,0,0,2.3811,595.643,1510.87)" d="M18.7,-13.6 C4.9,-13.6 0,-6.6 0,-0.1 C0,6.4 4.9,13.4 18.7,13.4 C32.5,13.4 37.3,6.4 37.3,-0.1 C37.3,-6.6 32.5,-13.6 18.7,-13.6 M10.4,-4.5 C10.3,-4.9 10.3,-5.3 10.3,-5.7 C10.3,-6.5 10.5,-7.3 10.9,-8 C11.6,-9 12.8,-9.7 14.3,-10 C15.6,-10.3 16.3,-10.5 18.9,-10.5 L19,-10.5 C23,-10.5 24.3,-6.8 25.4,-3 L25.7,-2 C26.5,0.6 26.9,2.8 26.9,4.5 C26.9,5.7 26.7,6.8 26.3,7.6 C25.7,8.7 24.7,9.4 23,9.8 C22.1,10 20.6,10.1 20.6,10.1 C20.1,10.1 19.7,10.2 19.3,10.2 C16.1,10.2 14.1,9 12.7,4.7 C11.5,1 11.3,-0.1 10.4,-4.5"/>
<path class="Note" transform="matrix(2.3811,0,0,2.3811,1098.35,1629.92)" d="M18.7,-13.6 C4.9,-13.6 0,-6.6 0,-0.1 C0,6.4 4.9,13.4 18.7,13.4 C32.5,13.4 37.3,6.4 37.3,-0.1 C37.3,-6.6 32.5,-13.6 18.7,-13.6 M10.4,-4.5 C10.3,-4.9 10.3,-5.3 10.3,-5.7 C10.3,-6.5 10.5,-7.3 10.9,-8 C11.6,-9 12.8,-9.7 14.3,-10 C15.6,-10.3 16.3,-10.5 18.9,-10.5 L19,-10.5 C23,-10.5 24.3,-6.8 25.4,-3 L25.7,-2 C26.5,0.6 26.9,2.8 26.9,4.5 C26.9,5.7 26.7,6.8 26.3,7.6 C25.7,8.7 24.7,9.4 23,9.8 C22.1,10 20.6,10.1 20.6,10.1 C20.1,10.1 19.7,10.2 19.3,10.2 C16.1,10.2 14.1,9 12.7,4.7 C11.5,1 11.3,-0.1 10.4,-4.5"/>
<path class="Note" transform="matrix(2.3811,0,0,2.3811,1098.35,1570.39)" d="M18.7,-13.6 C4.9,-13.6 0,-6.6 0,-0.1 C0,6.4 4.9,13.4 18.7,13.4 C32.5,13.4 37.3,6.4 37.3,-0.1 C37.3,-6.6 32.5,-13.6 18.7,-13.6 M10.4,-4.5 C10.3,-4.9 10.3,-5.3 10.3,-5.7 C10.3,-6.5 10.5,-7.3 10.9,-8 C11.6,-9 12.8,-9.7 14.3,-10 C15.6,-10.3 16.3,-10.5 18.9,-10.5 L19,-10.5 C23,-10.5 24.3,-6.8 25.4,-3 L25.7,-2 C26.5,0.6 26.9,2.8 26.9,4.5 C26.9,5.7 26.7,6.8 26.3,7.6 C25.7,8.7 24.7,9.4 23,9.8 C22.1,10 20.6,10.1 20.6,10.1 C20.1,10.1 19.7,10.2 19.3,10.2 C16.1,10.2 14.1,9 12.7,4.7 C11.5,1 11.3,-0.1 10.4,-4.5"/>
<path class="Note" transform="matrix(2.3811,0,0,2.3811,1098.35,1510.87)" d="M18.7,-13.6 C4.9,-13.6 0,-6.6 0,-0.1 C0,6.4 4.9,13.4 18.7,13.4 C32.5,13.4 37.3,6.4 37.3,-0.1 C37.3,-6.6 32.5,-13.6 18.7,-13.6 M10.4,-4.5 C10.3,-4.9 10.3,-5.3 10.3,-5.7 C10.3,-6.5 10.5,-7.3 10.9,-8 C11.6,-9 12.8,-9.7 14.3,-10 C15.6,-10.3 16.3,-10.5 18.9,-10.5 L19,-10.5 C23,-10.5 24.3,-6.8 25.4,-3 L25.7,-2 C26.5,0.6 26.9,2.8 26.9,4.5 C26.9,5.7 26.7,6.8 26.3,7.6 C25.7,8.7 24.7,9.4 23,9.8 C22.1,10 20.6,10.1 20.6,10.1 C20.1,10.1 19.7,10.2 19.3,10.2 C16.1,10.2 14.1,9 12.7,4.7 C11.5,1 11.3,-0.1 10.4,-4.5"/>
<path class="Note" transform="matrix(2.3811,0,0,2.3811,1631.84,1540.63)" d="M18.7,-13.6 C4.9,-13.6 0,-6.6 0,-0.1 C0,6.4 4.9,13.4 18.7,13.4 C32.5,13.4 37.3,6.4 37.3,-0.1 C37.3,-6.6 32.5,-13.6 18.7,-13.6 M10.4,-4.5 C10.3,-4.9 10.3,-5.3 10.3,-5.7 C10.3,-6.5 10.5,-7.3 10.9,-8 C11.6,-9 12.8,-9.7 14.3,-10 C15.6,-10.3 16.3,-10.5 18.9,-10.5 L19,-10.5 C23,-10.5 24.3,-6.8 25.4,-3 L25.7,-2 C26.5,0.6 26.9,2.8 26.9,4.5 C26.9,5.7 26.7,6.8 26.3,7.6 C25.7,8.7 24.7,9.4 23,9.8 C22.1,10 20.6,10.1 20.6,10.1 C20.1,10.1 19.7,10.2 19.3,10.2 C16.1,10.2 14.1,9 12.7,4.7 C11.5,1 11.3,-0.1 10.4,-4.5"/>
<path class="Note" transform="matrix(2.3811,0,0,2.3811,1714.1,1510.87)" d="M18.7,-13.6 C4.9,-13.6 0,-6.6 0,-0.1 C0,6.4 4.9,13.4 18.7,13.4 C32.5,13.4 37.3,6.4 37.3,-0.1 C37.3,-6.6 32.5,-13.6 18.7,-13.6 M10.4,-4.5 C10.3,-4.9 10.3,-5.3 10.3,-5.7 C10.3,-6.5 10.5,-7.3 10.9,-8 C11.6,-9 12.8,-9.7 14.3,-10 C15.6,-10.3 16.3,-10.5 18.9,-10.5 L19,-10.5 C23,-10.5 24.3,-6.8 25.4,-3 L25.7,-2 C26.5,0.6 26.9,2.8 26.9,4.5 C26.9,5.7 26.7,6.8 26.3,7.6 C25.7,8.7 24.7,9.4 23,9.8 C22.1,10 20.6,10.1 20.6,10.1 C20.1,10.1 19.7,10.2 19.3,10.2 C16.1,10.2 14.1,9 12.7,4.7 C11.5,1 11.3,-0.1 10.4,-4.5"/>
<path class="Note" transform="matrix(2.3811,0,0,2.3811,2216.81,1629.92)" d="M18.7,-13.6 C4.9,-13.6 0,-6.6 0,-0.1 C0,6.4 4.9,13.4 18.7,13.4 C32.5,13.4 37.3,6.4 37.3,-0.1 C37.3,-6.6 32.5,-13.6 18.7,-13.6 M10.4,-4.5 C10.3,-4.9 10.3,-5.3 10.3,-5.7 C10.3,-6.5 10.5,-7.3 10.9,-8 C11.6,-9 12.8,-9.7 14.3,-10 C15.6,-10.3 16.3,-10.5 18.9,-10.5 L19,-10.5 C23,-10.5 24.3,-6.8 25.4,-3 L25.7,-2 C26.5,0.6 26.9,2.8 26.9,4.5 C26.9,5.7 26.7,6.8 26.3,7.6 C25.7,8.7 24.7,9.4 23,9.8 C22.1,10 20.6,10.1 20.6,10.1 C20.1,10.1 19.7,10.2 19.3,10.2 C16.1,10.2 14.1,9 12.7,4.7 C11.5,1 11.3,-0.1 10.4,-4.5"/>
<path class="Note" transform="matrix(2.3811,0,0,2.3811,2216.81,1570.39)" d="M18.7,-13.6 C4.9,-13.6 0,-6.6 0,-0.1 C0,6.4 4.9,13.4 18.7,13.4 C32.5,13.4 37.3,6.4 37.3,-0.1 C37.3,-6.6 32.5,-13.6 18.7,-13.6 M10.4,-4.5 C10.3,-4.9 10.3,-5.3 10.3,-5.7 C10.3,-6.5 10.5,-7.3 10.9,-8 C11.6,-9 12.8,-9.7 14.3,-10 C15.6,-10.3 16.3,-10.5 18.9,-10.5 L19,-10.5 C23,-10.5 24.3,-6.8 25.4,-3 L25.7,-2 C26.5,0.6 26.9,2.8 26.9,4.5 C26.9,5.7 26.7,6.8 26.3,7.6 C25.7,8.7 24.7,9.4 23,9.8 C22.1,10 20.6,10.1 20.6,10.1 C20.1,10.1 19.7,10.2 19.3,10.2 C16.1,10.2 14.1,9 12.7,4.7 C11.5,1 11.3,-0.1 10.4,-4.5"/>
<path class="Note" transform="matrix(2.3811,0,0,2.3811,2216.81,1510.87)" d="M18.7,-13.6 C4.9,-13.6 0,-6.6 0,-0.1 C0,6.4 4.9,13.4 18.7,13.4 C32.5,13.4 37.3,6.4 37.3,-0.1 C37.3,-6.6 32.5,-13.6 18.7,-13.6 M10.4,-4.5 C10.3,-4.9 10.3,-5.3 10.3,-5.7 C10.3,-6.5 10.5,-7.3 10.9,-8 C11.6,-9 12.8,-9.7 14.3,-10 C15.6,-10.3 16.3,-10.5 18.9,-10.5 L19,-10.5 C23,-10.5 24.3,-6.8 25.4,-3 L25.7,-2 C26.5,0.6 26.9,2.8 26.9,4.5 C26.9,5.7 26.7,6.8 26.3,7.6 C25.7,8.7 24.7,9.4 23,9.8 C22.1,10 20.6,10.1 20.6,10.1 C20.1,10.1 19.7,10.2 19.3,10.2 C16.1,10.2 14.1,9 12.7,4.7 C11.5,1 11.3,-0.1 10.4,-4.5"/>
<path class="Note" transform="matrix(2.3811,0,0,2.3811,2699.86,1629.92)" d="M18.7,-13.6 C4.9,-13.6 0,-6.6 0,-0.1 C0,6.4 4.9,13.4 18.7,13.4 C32.5,13.4 37.3,6.4 37.3,-0.1 C37.3,-6.6 32.5,-13.6 18.7,-13.6 M10.4,-4.5 C10.3,-4.9 10.3,-5.3 10.3,-5.7 C10.3,-6.5 10.5,-7.3 10.9,-8 C11.6,-9 12.8,-9.7 14.3,-10 C15.6,-10.3 16.3,-10.5 18.9,-10.5 L19,-10.5 C23,-10.5 24.3,-6.8 25.4,-3 L25.7,-2 C26.5,0.6 26.9,2.8 26.9,4.5 C26.9,5.7 26.7,6.8 26.3,7.6 C25.7,8.7 24.7,9.4 23,9.8 C22.1,10 20.6,10.1 20.6,10.1 C20.1,10.1 19.7,10.2 19.3,10.2 C16.1,10.2 14.1,9 12.7,4.7 C11.5,1 11.3,-0.1 10.4,-4.5"/>
<path class="Note" transform="matrix(2.3811,0,0,2.3811,2699.86,1540.63)" d="M18.7,-13.6 C4.9,-13.6 0,-6.6 0,-0.1 C0,6.4 4.9,13.4 18.7,13.4 C32.5,13.4 37.3,6.4 37.3,-0.1 C37.3,-6.6 32.5,-13.6 18.7,-13.6 M10.4,-4.5 C10.3,-4.9 10.3,-5.3 10.3,-5.7 C10.3,-6.5 10.5,-7.3 10.9,-8 C11.6,-9 12.8,-9.7 14.3,-10 C15.6,-10.3 16.3,-10.5 18.9,-10.5 L19,-10.5 C23,-10.5 24.3,-6.8 25.4,-3 L25.7,-2 C26.5,0.6 26.9,2.8 26.9,4.5 C26.9,5.7 26.7,6.8 26.3,7.6 C25.7,8.7 24.7,9.4 23,9.8 C22.1,10 20.6,10.1 20.6,10.1 C20.1,10.1 19.7,10.2 19.3,10.2 C16.1,10.2 14.1,9 12.7,4.7 C11.5,1 11.3,-0.1 10.4,-4.5"/>
<path class="Note" transform="matrix(2.3811,0,0,2.3811,2699.86,1481.1)" d="M18.7,-13.6 C4.9,-13.6 0,-6.6 0,-0.1 C0,6.4 4.9,13.4 18.7,13.4 C32.5,13.4 37.3,6.4 37.3,-0.1 C37.3,-6.6 32.5,-13.6 18.7,-13.6 M10.4,-4.5 C10.3,-4.9 10.3,-5.3 10.3,-5.7 C10.3,-6.5 10.5,-7.3 10.9,-8 C11.6,-9 12.8,-9.7 14.3,-10 C15.6,-10.3 16.3,-10.5 18.9,-10.5 L19,-10.5 C23,-10.5 24.3,-6.8 25.4,-3 L25.7,-2 C26.5,0.6 26.9,2.8 26.9,4.5 C26.9,5.7 26.7,6.8 26.3,7.6 C25.7,8.7 24.7,9.4 23,9.8 C22.1,10 20.6,10.1 20.6,10.1 C20.1,10.1 19.7,10.2 19.3,10.2 C16.1,10.2 14.1,9 12.7,4.7 C11.5,1 11.3,-0.1 10.4,-4.5"/>
<path class="Note" transform="matrix(2.3811,0,0,2.3811,3190.41,1600.16)" d="M18.7,-13.6 C4.9,-13.6 0,-6.6 0,-0.1 C0,6.4 4.9,13.4 18.7,13.4 C32.5,13.4 37.3,6.4 37.3,-0.1 C37.3,-6.6 32.5,-13.6 18.7,-13.6 M10.4,-4.5 C10.3,-4.9 10.3,-5.3 10.3,-5.7 C10.3,-6.5 10.5,-7.3 10.9,-8 C11.6,-9 12.8,-9.7 14.3,-10 C15.6,-10.3 16.3,-10.5 18.9,-10.5 L19,-10.5 C23,-10.5 24.3,-6.8 25.4,-3 L25.7,-2 C26.5,0.6 26.9,2.8 26.9,4.5 C26.9,5.7 26.7,6.8 26.3,7.6 C25.7,8.7 24.7,9.4 23,9.8 C22.1,10 20.6,10.1 20.6,10.1 C20.1,10.1 19.7,10.2 19.3,10.2 C16.1,10.2 14.1,9 12.7,4.7 C11.5,1 11.3,-0.1 10.4,-4.5"/>
<path class="Note" transform="matrix(2.3811,0,0,2.3811,3190.41,1510.87)" d="M18.7,-13.6 C4.9,-13.6 0,-6.6 0,-0.1 C0,6.4 4.9,13.4 18.7,13.4 C32.5,13.4 37.3,6.4 37.3,-0.1 C37.3,-6.6 32.5,-13.6 18.7,-13.6 M10.4,-4.5 C10.3,-4.9 10.3,-5.3 10.3,-5.7 C10.3,-6.5 10.5,-7.3 10.9,-8 C11.6,-9 12.8,-9.7 14.3,-10 C15.6,-10.3 16.3,-10.5 18.9,-10.5 L19,-10.5 C23,-10.5 24.3,-6.8 25.4,-3 L25.7,-2 C26.5,0.6 26.9,2.8 26.9,4.5 C26.9,5.7 26.7,6.8 26.3,7.6 C25.7,8.7 24.7,9.4 23,9.8 C22.1,10 20.6,10.1 20.6,10.1 C20.1,10.1 19.7,10.2 19.3,10.2 C16.1,10.2 14.1,9 12.7,4.7 C11.5,1 11.3,-0.1 10.4,-4.5"/>
<path class="Note" transform="matrix(2.3811,0,0,2.3811,3190.41,1451.34)" d="M18.7,-13.6 C4.9,-13.6 0,-6.6 0,-0.1 C0,6.4 4.9,13.4 18.7,13.4 C32.5,13.4 37.3,6.4 37.3,-0.1 C37.3,-6.6 32.5,-13.6 18.7,-13.6 M10.4,-4.5 C10.3,-4.9 10.3,-5.3 10.3,-5.7 C10.3,-6.5 10.5,-7.3 10.9,-8 C11.6,-9 12.8,-9.7 14.3,-10 C15.6,-10.3 16.3,-10.5 18.9,-10.5 L19,-10.5 C23,-10.5 24.3,-6.8 25.4,-3 L25.7,-2 C26.5,0.6 26.9,2.8 26.9,4.5 C26.9,5.7 26.7,6.8 26.3,7.6 C25.7,8.7 24.7,9.4 23,9.8 C22.1,10 20.6,10.1 20.6,10.1 C20.1,10.1 19.7,10.2 19.3,10.2 C16.1,10.2 14.1,9 12.7,4.7 C11.5,1 11.3,-0.1 10.4,-4.5"/>
<path class="Note" transform="matrix(2.3811,0,0,2.3811,3703.4,1629.92)" d="M18.7,-13.6 C4.9,-13.6 0,-6.6 0,-0.1 C0,6.4 4.9,13.4 18.7,13.4 C32.5,13.4 37.3,6.4 37.3,-0.1 C37.3,-6.6 32.5,-13.6 18.7,-13.6 M10.4,-4.5 C10.3,-4.9 10.3,-5.3 10.3,-5.7 C10.3,-6.5 10.5,-7.3 10.9,-8 C11.6,-9 12.8,-9.7 14.3,-10 C15.6,-10.3 16.3,-10.5 18.9,-10.5 L19,-10.5 C23,-10.5 24.3,-6.8 25.4,-3 L25.7,-2 C26.5,0.6 26.9,2.8 26.9,4.5 C26.9,5.7 26.7,6.8 26.3,7.6 C25.7,8.7 24.7,9.4 23,9.8 C22.1,10 20.6,10.1 20.6,10.1 C20.1,10.1 19.7,10.2 19.3,10.2 C16.1,10.2 14.1,9 12.7,4.7 C11.5,1 11.3,-0.1 10.4,-4.5"/>
<path class="Note" transform="matrix(2.3811,0,0,2.3811,3703.4,1510.87)" d="M18.7,-13.6 C4.9,-13.6 0,-6.6 0,-0.1 C0,6.4 4.9,13.4 18.7,13.4 C32.5,13.4 37.3,6.4 37.3,-0.1 C37.3,-6.6 32.5,-13.6 18.7,-13.6 M10.4,-4.5 C10.3,-4.9 10.3,-5.3 10.3,-5.7 C10.3,-6.5 10.5,-7.3 10.9,-8 C11.6,-9 12.8,-9.7 14.3,-10 C15.6,-10.3 16.3,-10.5 18.9,-10.5 L19,-10.5 C23,-10.5 24.3,-6.8 25.4,-3 L25.7,-2 C26.5,0.6 26.9,2.8 26.9,4.5 C26.9,5.7 26.7,6.8 26.3,7.6 C25.7,8.7 24.7,9.4 23,9.8 C22.1,10 20.6,10.1 20.6,10.1 C20.1,10.1 19.7,10.2 19.3,10.2 C16.1,10.2 14.1,9 12.7,4.7 C11.5,1 11.3,-0.1 10.4,-4.5"/>
<path class="Note" transform="matrix(2.3811,0,0,2.3811,3703.4,1451.34)" d="M18.7,-13.6 C4.9,-13.6 0,-6.6 0,-0.1 C0,6.4 4.9,13.4 18.7,13.4 C32.5,13.4 37.3,6.4 37.3,-0.1 C37.3,-6.6 32.5,-13.6 18.7,-13.6 M10.4,-4.5 C10.3,-4.9 10.3,-5.3 10.3,-5.7 C10.3,-6.5 10.5,-7.3 10.9,-8 C11.6,-9 12.8,-9.7 14.3,-10 C15.6,-10.3 16.3,-10.5 18.9,-10.5 L19,-10.5 C23,-10.5 24.3,-6.8 25.4,-3 L25.7,-2 C26.5,0.6 26.9,2.8 26.9,4.5 C26.9,5.7 26.7,6.8 26.3,7.6 C25.7,8.7 24.7,9.4 23,9.8 C22.1,10 20.6,10.1 20.6,10.1 C20.1,10.1 19.7,10.2 19.3,10.2 C16.1,10.2 14.1,9 12.7,4.7 C11.5,1 11.3,-0.1 10.4,-4.5"/>
<path class="Note" d="M519.859,1105.33 C519.472,1106.02 518.89,1106.37 518.116,1106.37 C517.418,1106.37 516.528,1106.06 515.443,1105.44 C513.816,1104.51 513.002,1103.58 513.002,1102.65 C513.002,1102.34 513.119,1101.96 513.351,1101.49 C531.093,1075.92 542.171,1054.39 546.587,1036.88 C546.897,1036.34 547.44,1036.06 548.214,1036.06 C549.222,1036.06 550.655,1036.61 552.514,1037.69 C555.071,1039.16 556.349,1040.48 556.349,1041.64 C556.349,1041.95 556.272,1042.22 556.117,1042.46 C550.229,1059.19 538.143,1080.15 519.859,1105.33 M603.408,1059.89 C607.979,1059.89 610.264,1062.75 610.264,1068.49 C610.264,1072.52 607.746,1078.52 602.71,1086.5 C598.682,1092.93 596.668,1099.21 596.668,1105.33 C596.668,1108.81 601.742,1110.56 611.891,1110.56 C620.258,1110.56 631.918,1106.02 646.871,1096.96 C631.841,1111.45 618.786,1118.69 607.708,1118.69 C597.713,1118.69 590.741,1117.18 586.79,1114.16 C585.782,1113.38 584.93,1112.45 584.233,1111.37 C580.359,1116.09 573.89,1118.46 564.826,1118.46 C556.149,1118.46 549.486,1116.68 544.837,1113.11 C541.738,1110.71 540.189,1106.88 540.189,1101.61 C540.189,1093.24 545.147,1084.1 555.064,1074.18 C565.678,1063.57 577.958,1058.26 591.903,1058.26 C595.389,1058.26 597.946,1059.54 599.573,1062.1 C600.89,1060.62 602.168,1059.89 603.408,1059.89 M582.606,1106.14 C582.529,1105.52 582.49,1104.9 582.49,1104.28 C582.49,1103.97 586.441,1093.16 594.343,1071.86 C595.118,1069.77 595.893,1067.98 596.668,1066.51 C593.646,1065.89 590.663,1065.58 587.719,1065.58 C582.296,1065.58 575.091,1070.19 566.104,1079.41 C558.047,1087.62 554.018,1094.71 554.018,1100.68 C554.018,1107.26 557.156,1110.56 563.431,1110.56 C571.024,1110.56 577.415,1109.08 582.606,1106.14"/>
<path class="Note" d="M592.203,851.839 C596.774,851.839 599.06,854.705 599.06,860.438 C599.06,864.467 596.542,870.471 591.506,878.451 C587.477,884.881 585.463,891.157 585.463,897.277 C585.463,900.763 590.537,902.507 600.686,902.507 C609.054,902.507 620.714,897.974 635.666,888.91 C620.636,903.398 607.582,910.641 596.503,910.641 C586.509,910.641 579.536,909.131 575.585,906.109 C574.578,905.334 573.726,904.405 573.028,903.32 C569.155,908.046 562.686,910.409 553.621,910.409 C544.944,910.409 538.281,908.627 533.633,905.063 C530.534,902.662 528.984,898.827 528.984,893.558 C528.984,885.191 533.943,876.049 543.859,866.133 C554.473,855.519 566.753,850.212 580.698,850.212 C584.185,850.212 586.741,851.49 588.368,854.047 C589.685,852.575 590.964,851.839 592.203,851.839 M571.401,898.091 C571.324,897.471 571.285,896.851 571.285,896.231 C571.285,895.921 575.236,885.114 583.139,863.808 C583.913,861.717 584.688,859.935 585.463,858.463 C582.441,857.843 579.459,857.533 576.515,857.533 C571.091,857.533 563.886,862.143 554.899,871.362 C546.842,879.574 542.813,886.663 542.813,892.629 C542.813,899.214 545.951,902.507 552.227,902.507 C559.819,902.507 566.211,901.035 571.401,898.091"/>
<path class="Note" d="M547.927,821.118 C544.13,821.118 542.232,817.05 542.232,808.916 L542.232,774.866 C542.232,771.612 543.821,769.985 546.997,769.985 C548.392,769.985 549.437,770.101 550.135,770.333 C552.614,765.995 556.681,762.354 562.337,759.41 C570.239,755.304 578.258,753.25 586.393,753.25 C592.823,753.25 596.038,755.652 596.038,760.456 C596.038,764.484 593.869,766.499 589.53,766.499 C586.431,766.499 583.487,765.801 580.698,764.407 C578.219,763.167 575.585,762.547 572.796,762.547 C567.992,762.547 560.904,765.685 551.529,771.96 C552.846,778.236 553.505,785.557 553.505,793.924 C553.505,812.053 551.645,821.118 547.927,821.118"/>
<path class="Note" d="M592.203,673.256 C596.774,673.256 599.06,676.123 599.06,681.856 C599.06,685.884 596.542,691.888 591.506,699.868 C587.477,706.299 585.463,712.574 585.463,718.694 C585.463,722.181 590.537,723.924 600.686,723.924 C609.054,723.924 620.714,719.392 635.666,710.327 C620.636,724.815 607.582,732.059 596.503,732.059 C586.509,732.059 579.536,730.548 575.585,727.527 C574.578,726.752 573.726,725.822 573.028,724.737 C569.155,729.463 562.686,731.826 553.621,731.826 C544.944,731.826 538.281,730.044 533.633,726.481 C530.534,724.079 528.984,720.244 528.984,714.976 C528.984,706.609 533.943,697.467 543.859,687.55 C554.473,676.936 566.753,671.629 580.698,671.629 C584.185,671.629 586.741,672.907 588.368,675.464 C589.685,673.992 590.964,673.256 592.203,673.256 M571.401,719.508 C571.324,718.888 571.285,718.268 571.285,717.649 C571.285,717.339 575.236,706.531 583.139,685.226 C583.913,683.134 584.688,681.352 585.463,679.88 C582.441,679.26 579.459,678.95 576.515,678.95 C571.091,678.95 563.886,683.56 554.899,692.779 C546.842,700.992 542.813,708.081 542.813,714.046 C542.813,720.631 545.951,723.924 552.227,723.924 C559.819,723.924 566.211,722.452 571.401,719.508"/>
<path class="Note" d="M1094.37,1098.35 C1093.98,1099.05 1093.4,1099.4 1092.63,1099.4 C1091.93,1099.4 1091.04,1099.09 1089.96,1098.47 C1088.33,1097.54 1087.52,1096.61 1087.52,1095.68 C1087.52,1095.37 1087.63,1094.98 1087.86,1094.52 C1105.61,1068.95 1116.68,1047.41 1121.1,1029.91 C1121.41,1029.36 1121.95,1029.09 1122.73,1029.09 C1123.73,1029.09 1125.17,1029.63 1127.03,1030.72 C1129.58,1032.19 1130.86,1033.51 1130.86,1034.67 C1130.86,1034.98 1130.78,1035.25 1130.63,1035.48 C1124.74,1052.22 1112.66,1073.17 1094.37,1098.35 M1115.29,1105.33 C1114.9,1106.02 1114.32,1106.37 1113.55,1106.37 C1112.85,1106.37 1111.96,1106.06 1110.87,1105.44 C1109.25,1104.51 1108.43,1103.58 1108.43,1102.65 C1108.43,1102.34 1108.55,1101.96 1108.78,1101.49 C1126.52,1075.92 1137.6,1054.39 1142.02,1036.88 C1142.33,1036.34 1142.87,1036.06 1143.64,1036.06 C1144.65,1036.06 1146.09,1036.61 1147.94,1037.69 C1150.5,1039.16 1151.78,1040.48 1151.78,1041.64 C1151.78,1041.95 1151.7,1042.22 1151.55,1042.46 C1145.66,1059.19 1133.57,1080.15 1115.29,1105.33 M1198.84,1059.89 C1203.41,1059.89 1205.7,1062.75 1205.7,1068.49 C1205.7,1072.52 1203.18,1078.52 1198.14,1086.5 C1194.12,1092.93 1192.1,1099.21 1192.1,1105.33 C1192.1,1108.81 1197.18,1110.56 1207.33,1110.56 C1215.69,1110.56 1227.35,1106.02 1242.31,1096.96 C1227.28,1111.45 1214.22,1118.69 1203.14,1118.69 C1193.15,1118.69 1186.18,1117.18 1182.22,1114.16 C1181.22,1113.38 1180.36,1112.45 1179.67,1111.37 C1175.79,1116.09 1169.32,1118.46 1160.26,1118.46 C1151.58,1118.46 1144.92,1116.68 1140.27,1113.11 C1137.17,1110.71 1135.62,1106.88 1135.62,1101.61 C1135.62,1093.24 1140.58,1084.1 1150.5,1074.18 C1161.11,1063.57 1173.39,1058.26 1187.34,1058.26 C1190.82,1058.26 1193.38,1059.54 1195.01,1062.1 C1196.32,1060.62 1197.6,1059.89 1198.84,1059.89 M1178.04,1106.14 C1177.96,1105.52 1177.92,1104.9 1177.92,1104.28 C1177.92,1103.97 1181.88,1093.16 1189.78,1071.86 C1190.55,1069.77 1191.33,1067.98 1192.1,1066.51 C1189.08,1065.89 1186.1,1065.58 1183.15,1065.58 C1177.73,1065.58 1170.53,1070.19 1161.54,1079.41 C1153.48,1087.62 1149.45,1094.71 1149.45,1100.68 C1149.45,1107.26 1152.59,1110.56 1158.87,1110.56 C1166.46,1110.56 1172.85,1109.08 1178.04,1106.14"/>
<path class="Note" d="M1177.17,583.965 C1181.74,583.965 1184.03,586.831 1184.03,592.564 C1184.03,596.593 1181.51,602.597 1176.47,610.577 C1172.44,617.007 1170.43,623.283 1170.43,629.403 C1170.43,632.889 1175.5,634.633 1185.65,634.633 C1194.02,634.633 1205.68,630.1 1220.63,621.036 C1205.6,635.524 1192.55,642.767 1181.47,642.767 C1171.48,642.767 1164.5,641.257 1160.55,638.235 C1159.54,637.46 1158.69,636.531 1158,635.446 C1154.12,640.172 1147.65,642.535 1138.59,642.535 C1129.91,642.535 1123.25,640.753 1118.6,637.189 C1115.5,634.788 1113.95,630.953 1113.95,625.684 C1113.95,617.317 1118.91,608.175 1128.83,598.259 C1139.44,587.645 1151.72,582.338 1165.67,582.338 C1169.15,582.338 1171.71,583.616 1173.34,586.173 C1174.65,584.701 1175.93,583.965 1177.17,583.965 M1156.37,630.217 C1156.29,629.597 1156.25,628.977 1156.25,628.357 C1156.25,628.047 1160.2,617.24 1168.11,595.934 C1168.88,593.843 1169.66,592.061 1170.43,590.589 C1167.41,589.969 1164.43,589.659 1161.48,589.659 C1156.06,589.659 1148.85,594.269 1139.87,603.488 C1131.81,611.7 1127.78,618.789 1127.78,624.755 C1127.78,631.34 1130.92,634.633 1137.19,634.633 C1144.79,634.633 1151.18,633.161 1156.37,630.217"/>
<path class="Note" d="M1184.26,759.642 C1194.72,753.057 1202.31,747.672 1207.04,743.489 C1215.71,735.819 1220.05,728.071 1220.05,720.247 C1220.05,711.105 1213.93,706.534 1201.69,706.534 C1188.83,706.534 1175.43,715.792 1161.48,734.308 C1152.03,746.859 1145.33,758.712 1141.38,769.869 C1146.26,766.692 1151.41,765.104 1156.83,765.104 C1161.95,765.104 1166.01,767.389 1169.04,771.96 C1171.13,775.137 1172.17,780.56 1172.17,788.23 C1172.17,795.125 1168.53,803.221 1161.25,812.518 C1156.76,818.251 1151.76,821.118 1146.26,821.118 C1139.29,821.118 1134.4,819.723 1131.62,816.934 C1127.66,812.983 1125.69,805.158 1125.69,793.459 C1125.69,773.781 1133.63,754.413 1149.51,735.354 C1167.41,713.894 1184.57,703.164 1200.99,703.164 C1213.7,703.164 1223.19,706.146 1229.47,712.112 C1233.11,715.598 1234.93,720.634 1234.93,727.219 C1234.93,734.579 1227.68,742.791 1213.2,751.856 C1205.6,756.659 1195.96,759.255 1184.26,759.642 M1139.87,774.749 C1137.93,781.257 1136.96,787.494 1136.96,793.459 C1136.96,807.637 1139.21,814.726 1143.7,814.726 C1147.96,814.726 1151.29,811.705 1153.7,805.662 C1156.48,798.844 1157.88,791.29 1157.88,783 C1157.88,775.64 1155.44,771.96 1150.56,771.96 C1147.15,771.96 1143.59,772.89 1139.87,774.749"/>
<path class="Note" d="M1177.17,673.256 C1181.74,673.256 1184.03,676.123 1184.03,681.856 C1184.03,685.884 1181.51,691.888 1176.47,699.868 C1172.44,706.299 1170.43,712.574 1170.43,718.694 C1170.43,722.181 1175.5,723.924 1185.65,723.924 C1194.02,723.924 1205.68,719.392 1220.63,710.327 C1205.6,724.815 1192.55,732.059 1181.47,732.059 C1171.48,732.059 1164.5,730.548 1160.55,727.527 C1159.54,726.752 1158.69,725.822 1158,724.737 C1154.12,729.463 1147.65,731.826 1138.59,731.826 C1129.91,731.826 1123.25,730.044 1118.6,726.481 C1115.5,724.079 1113.95,720.244 1113.95,714.976 C1113.95,706.609 1118.91,697.467 1128.83,687.55 C1139.44,676.936 1151.72,671.629 1165.67,671.629 C1169.15,671.629 1171.71,672.907 1173.34,675.464 C1174.65,673.992 1175.93,673.256 1177.17,673.256 M1156.37,719.508 C1156.29,718.888 1156.25,718.268 1156.25,717.649 C1156.25,717.339 1160.2,706.531 1168.11,685.226 C1168.88,683.134 1169.66,681.352 1170.43,679.88 C1167.41,679.26 1164.43,678.95 1161.48,678.95 C1156.06,678.95 1148.85,683.56 1139.87,692.779 C1131.81,700.992 1127.78,708.081 1127.78,714.046 C1127.78,720.631 1130.92,723.924 1137.19,723.924 C1144.79,723.924 1151.18,722.452 1156.37,719.508"/>
<path class="Note" d="M1599.57,855.79 C1599.88,844.091 1606.35,833.71 1618.98,824.645 C1630.21,816.588 1642.49,812.559 1655.82,812.559 C1674.49,812.559 1690.95,819.881 1705.21,834.523 C1714.27,843.898 1718.8,855.519 1718.8,869.387 C1718.8,881.86 1715.47,891.428 1708.81,898.091 C1700.68,906.303 1692.08,910.409 1683.01,910.409 C1676.81,910.409 1672.01,909.014 1668.6,906.225 C1663.02,901.654 1660.23,895.534 1660.23,887.864 C1660.23,877.947 1665.19,868.883 1675.11,860.671 C1683.24,853.93 1691.42,849.514 1699.63,847.423 C1697.46,843.704 1694.71,840.218 1691.38,836.964 C1681,826.815 1669.22,821.74 1656.05,821.74 C1642.34,821.74 1630.99,824.723 1622,830.688 C1612.7,836.809 1605.23,845.176 1599.57,855.79 M1702.54,853.582 C1698.27,857.533 1694.01,861.755 1689.75,866.249 C1681.38,875.081 1677.2,883.448 1677.2,891.35 C1677.2,899.795 1679.14,904.017 1683.01,904.017 C1686.5,904.017 1691.38,899.253 1697.65,889.723 C1702.69,882.131 1705.21,875.158 1705.21,868.805 C1705.21,863.382 1704.32,858.308 1702.54,853.582"/>
<path class="Note" d="M1666.38,821.118 C1662.59,821.118 1660.69,817.05 1660.69,808.916 L1660.69,774.866 C1660.69,771.612 1662.28,769.985 1665.45,769.985 C1666.85,769.985 1667.9,770.101 1668.59,770.333 C1671.07,765.995 1675.14,762.354 1680.79,759.41 C1688.7,755.304 1696.72,753.25 1704.85,753.25 C1711.28,753.25 1714.5,755.652 1714.5,760.456 C1714.5,764.484 1712.33,766.499 1707.99,766.499 C1704.89,766.499 1701.95,765.801 1699.16,764.407 C1696.68,763.167 1694.04,762.547 1691.25,762.547 C1686.45,762.547 1679.36,765.685 1669.99,771.96 C1671.3,778.236 1671.96,785.557 1671.96,793.924 C1671.96,812.053 1670.1,821.118 1666.38,821.118"/>
<path class="Note" d="M1710.66,673.256 C1715.23,673.256 1717.52,676.123 1717.52,681.856 C1717.52,685.884 1715,691.888 1709.96,699.868 C1705.93,706.299 1703.92,712.574 1703.92,718.694 C1703.92,722.181 1709,723.924 1719.14,723.924 C1727.51,723.924 1739.17,719.392 1754.12,710.327 C1739.09,724.815 1726.04,732.059 1714.96,732.059 C1704.97,732.059 1697.99,730.548 1694.04,727.527 C1693.04,726.752 1692.18,725.822 1691.49,724.737 C1687.61,729.463 1681.14,731.826 1672.08,731.826 C1663.4,731.826 1656.74,730.044 1652.09,726.481 C1648.99,724.079 1647.44,720.244 1647.44,714.976 C1647.44,706.609 1652.4,697.467 1662.32,687.55 C1672.93,676.936 1685.21,671.629 1699.16,671.629 C1702.64,671.629 1705.2,672.907 1706.83,675.464 C1708.14,673.992 1709.42,673.256 1710.66,673.256 M1689.86,719.508 C1689.78,718.888 1689.74,718.268 1689.74,717.649 C1689.74,717.339 1693.69,706.531 1701.6,685.226 C1702.37,683.134 1703.15,681.352 1703.92,679.88 C1700.9,679.26 1697.92,678.95 1694.97,678.95 C1689.55,678.95 1682.34,683.56 1673.36,692.779 C1665.3,700.992 1661.27,708.081 1661.27,714.046 C1661.27,720.631 1664.41,723.924 1670.68,723.924 C1678.28,723.924 1684.67,722.452 1689.86,719.508"/>
<path class="Note" d="M2295.63,583.965 C2300.2,583.965 2302.48,586.831 2302.48,592.564 C2302.48,596.593 2299.97,602.597 2294.93,610.577 C2290.9,617.007 2288.89,623.283 2288.89,629.403 C2288.89,632.889 2293.96,634.633 2304.11,634.633 C2312.48,634.633 2324.14,630.1 2339.09,621.036 C2324.06,635.524 2311.01,642.767 2299.93,642.767 C2289.93,642.767 2282.96,641.257 2279.01,638.235 C2278,637.46 2277.15,636.531 2276.45,635.446 C2272.58,640.172 2266.11,642.535 2257.05,642.535 C2248.37,642.535 2241.71,640.753 2237.06,637.189 C2233.96,634.788 2232.41,630.953 2232.41,625.684 C2232.41,617.317 2237.37,608.175 2247.28,598.259 C2257.9,587.645 2270.18,582.338 2284.12,582.338 C2287.61,582.338 2290.17,583.616 2291.79,586.173 C2293.11,584.701 2294.39,583.965 2295.63,583.965 M2274.83,630.217 C2274.75,629.597 2274.71,628.977 2274.71,628.357 C2274.71,628.047 2278.66,617.24 2286.56,595.934 C2287.34,593.843 2288.11,592.061 2288.89,590.589 C2285.87,589.969 2282.88,589.659 2279.94,589.659 C2274.52,589.659 2267.31,594.269 2258.32,603.488 C2250.27,611.7 2246.24,618.789 2246.24,624.755 C2246.24,631.34 2249.38,634.633 2255.65,634.633 C2263.24,634.633 2269.64,633.161 2274.83,630.217"/>
<path class="Note" d="M2251.35,910.409 C2247.56,910.409 2245.66,906.342 2245.66,898.207 L2245.66,864.157 C2245.66,860.903 2247.25,859.276 2250.42,859.276 C2251.82,859.276 2252.86,859.392 2253.56,859.625 C2256.04,855.286 2260.11,851.645 2265.76,848.701 C2273.66,844.595 2281.68,842.542 2289.82,842.542 C2296.25,842.542 2299.46,844.943 2299.46,849.747 C2299.46,853.776 2297.29,855.79 2292.96,855.79 C2289.86,855.79 2286.91,855.093 2284.12,853.698 C2281.64,852.458 2279.01,851.839 2276.22,851.839 C2271.42,851.839 2264.33,854.976 2254.95,861.252 C2256.27,867.527 2256.93,874.848 2256.93,883.216 C2256.93,901.345 2255.07,910.409 2251.35,910.409"/>
<path class="Note" d="M2302.72,759.642 C2313.18,753.057 2320.77,747.672 2325.49,743.489 C2334.17,735.819 2338.51,728.071 2338.51,720.247 C2338.51,711.105 2332.39,706.534 2320.15,706.534 C2307.29,706.534 2293.88,715.792 2279.94,734.308 C2270.49,746.859 2263.79,758.712 2259.84,769.869 C2264.72,766.692 2269.87,765.104 2275.29,765.104 C2280.4,765.104 2284.47,767.389 2287.49,771.96 C2289.59,775.137 2290.63,780.56 2290.63,788.23 C2290.63,795.125 2286.99,803.221 2279.71,812.518 C2275.21,818.251 2270.22,821.118 2264.72,821.118 C2257.74,821.118 2252.86,819.723 2250.07,816.934 C2246.12,812.983 2244.15,805.158 2244.15,793.459 C2244.15,773.781 2252.09,754.413 2267.97,735.354 C2285.87,713.894 2303.03,703.164 2319.45,703.164 C2332.16,703.164 2341.65,706.146 2347.92,712.112 C2351.56,715.598 2353.38,720.634 2353.38,727.219 C2353.38,734.579 2346.14,742.791 2331.65,751.856 C2324.06,756.659 2314.42,759.255 2302.72,759.642 M2258.32,774.749 C2256.39,781.257 2255.42,787.494 2255.42,793.459 C2255.42,807.637 2257.67,814.726 2262.16,814.726 C2266.42,814.726 2269.75,811.705 2272.15,805.662 C2274.94,798.844 2276.34,791.29 2276.34,783 C2276.34,775.64 2273.9,771.96 2269.02,771.96 C2265.61,771.96 2262.04,772.89 2258.32,774.749"/>
<path class="Note" d="M2295.63,673.256 C2300.2,673.256 2302.48,676.123 2302.48,681.856 C2302.48,685.884 2299.97,691.888 2294.93,699.868 C2290.9,706.299 2288.89,712.574 2288.89,718.694 C2288.89,722.181 2293.96,723.924 2304.11,723.924 C2312.48,723.924 2324.14,719.392 2339.09,710.327 C2324.06,724.815 2311.01,732.059 2299.93,732.059 C2289.93,732.059 2282.96,730.548 2279.01,727.527 C2278,726.752 2277.15,725.822 2276.45,724.737 C2272.58,729.463 2266.11,731.826 2257.05,731.826 C2248.37,731.826 2241.71,730.044 2237.06,726.481 C2233.96,724.079 2232.41,720.244 2232.41,714.976 C2232.41,706.609 2237.37,697.467 2247.28,687.55 C2257.9,676.936 2270.18,671.629 2284.12,671.629 C2287.61,671.629 2290.17,672.907 2291.79,675.464 C2293.11,673.992 2294.39,673.256 2295.63,673.256 M2274.83,719.508 C2274.75,718.888 2274.71,718.268 2274.71,717.649 C2274.71,717.339 2278.66,706.531 2286.56,685.226 C2287.34,683.134 2288.11,681.352 2288.89,679.88 C2285.87,679.26 2282.88,678.95 2279.94,678.95 C2274.52,678.95 2267.31,683.56 2258.32,692.779 C2250.27,700.992 2246.24,708.081 2246.24,714.046 C2246.24,720.631 2249.38,723.924 2255.65,723.924 C2263.24,723.924 2269.64,722.452 2274.83,719.508"/>
<path class="Note" d="M2778.68,583.965 C2783.25,583.965 2785.54,586.831 2785.54,592.564 C2785.54,596.593 2783.02,602.597 2777.99,610.577 C2773.96,617.007 2771.94,623.283 2771.94,629.403 C2771.94,632.889 2777.02,634.633 2787.17,634.633 C2795.53,634.633 2807.19,630.1 2822.15,621.036 C2807.12,635.524 2794.06,642.767 2782.98,642.767 C2772.99,642.767 2766.02,641.257 2762.07,638.235 C2761.06,637.46 2760.21,636.531 2759.51,635.446 C2755.64,640.172 2749.17,642.535 2740.1,642.535 C2731.42,642.535 2724.76,640.753 2720.11,637.189 C2717.01,634.788 2715.47,630.953 2715.47,625.684 C2715.47,617.317 2720.42,608.175 2730.34,598.259 C2740.95,587.645 2753.23,582.338 2767.18,582.338 C2770.67,582.338 2773.22,583.616 2774.85,586.173 C2776.17,584.701 2777.44,583.965 2778.68,583.965 M2757.88,630.217 C2757.8,629.597 2757.77,628.977 2757.77,628.357 C2757.77,628.047 2761.72,617.24 2769.62,595.934 C2770.39,593.843 2771.17,592.061 2771.94,590.589 C2768.92,589.969 2765.94,589.659 2763,589.659 C2757.57,589.659 2750.37,594.269 2741.38,603.488 C2733.32,611.7 2729.29,618.789 2729.29,624.755 C2729.29,631.34 2732.43,634.633 2738.71,634.633 C2746.3,634.633 2752.69,633.161 2757.88,630.217"/>
<path class="Note" d="M2778.68,494.673 C2783.25,494.673 2785.54,497.54 2785.54,503.273 C2785.54,507.302 2783.02,513.306 2777.99,521.286 C2773.96,527.716 2771.94,533.991 2771.94,540.112 C2771.94,543.598 2777.02,545.341 2787.17,545.341 C2795.53,545.341 2807.19,540.809 2822.15,531.745 C2807.12,546.232 2794.06,553.476 2782.98,553.476 C2772.99,553.476 2766.02,551.965 2762.07,548.944 C2761.06,548.169 2760.21,547.239 2759.51,546.155 C2755.64,550.881 2749.17,553.244 2740.1,553.244 C2731.42,553.244 2724.76,551.462 2720.11,547.898 C2717.01,545.496 2715.47,541.661 2715.47,536.393 C2715.47,528.026 2720.42,518.884 2730.34,508.967 C2740.95,498.353 2753.23,493.046 2767.18,493.046 C2770.67,493.046 2773.22,494.325 2774.85,496.881 C2776.17,495.409 2777.44,494.673 2778.68,494.673 M2757.88,540.925 C2757.8,540.305 2757.77,539.686 2757.77,539.066 C2757.77,538.756 2761.72,527.948 2769.62,506.643 C2770.39,504.551 2771.17,502.769 2771.94,501.297 C2768.92,500.678 2765.94,500.368 2763,500.368 C2757.57,500.368 2750.37,504.977 2741.38,514.197 C2733.32,522.409 2729.29,529.498 2729.29,535.463 C2729.29,542.049 2732.43,545.341 2738.71,545.341 C2746.3,545.341 2752.69,543.869 2757.88,540.925"/>
<path class="Note" d="M2734.41,821.118 C2730.61,821.118 2728.71,817.05 2728.71,808.916 L2728.71,774.866 C2728.71,771.612 2730.3,769.985 2733.48,769.985 C2734.87,769.985 2735.92,770.101 2736.62,770.333 C2739.09,765.995 2743.16,762.354 2748.82,759.41 C2756.72,755.304 2764.74,753.25 2772.87,753.25 C2779.3,753.25 2782.52,755.652 2782.52,760.456 C2782.52,764.484 2780.35,766.499 2776.01,766.499 C2772.91,766.499 2769.97,765.801 2767.18,764.407 C2764.7,763.167 2762.07,762.547 2759.28,762.547 C2754.47,762.547 2747.38,765.685 2738.01,771.96 C2739.33,778.236 2739.99,785.557 2739.99,793.924 C2739.99,812.053 2738.13,821.118 2734.41,821.118"/>
<path class="Note" d="M2785.77,670.351 C2796.23,663.765 2803.82,658.381 2808.55,654.197 C2817.23,646.527 2821.57,638.78 2821.57,630.955 C2821.57,621.813 2815.45,617.242 2803.2,617.242 C2790.34,617.242 2776.94,626.5 2763,645.017 C2753.54,657.568 2746.84,669.421 2742.89,680.577 C2747.77,677.401 2752.92,675.813 2758.35,675.813 C2763.46,675.813 2767.53,678.098 2770.55,682.669 C2772.64,685.846 2773.69,691.269 2773.69,698.939 C2773.69,705.834 2770.05,713.93 2762.76,723.227 C2758.27,728.96 2753.27,731.826 2747.77,731.826 C2740.8,731.826 2735.92,730.432 2733.13,727.643 C2729.18,723.692 2727.2,715.867 2727.2,704.168 C2727.2,684.49 2735.14,665.121 2751.03,646.063 C2768.92,624.602 2786.08,613.872 2802.51,613.872 C2815.21,613.872 2824.7,616.855 2830.98,622.82 C2834.62,626.307 2836.44,631.343 2836.44,637.928 C2836.44,645.288 2829.2,653.5 2814.71,662.565 C2807.12,667.368 2797.47,669.963 2785.77,670.351 M2741.38,685.458 C2739.44,691.966 2738.47,698.203 2738.47,704.168 C2738.47,718.346 2740.72,725.435 2745.22,725.435 C2749.48,725.435 2752.81,722.413 2755.21,716.37 C2758,709.553 2759.39,701.999 2759.39,693.709 C2759.39,686.349 2756.95,682.669 2752.07,682.669 C2748.66,682.669 2745.1,683.599 2741.38,685.458"/>
<path class="Note" d="M3276.32,581.059 C3286.78,574.474 3294.37,569.09 3299.09,564.906 C3307.77,557.236 3312.11,549.489 3312.11,541.664 C3312.11,532.522 3305.99,527.951 3293.75,527.951 C3280.89,527.951 3267.48,537.209 3253.54,555.725 C3244.09,568.276 3237.39,580.13 3233.43,591.286 C3238.32,588.11 3243.47,586.521 3248.89,586.521 C3254,586.521 3258.07,588.807 3261.09,593.378 C3263.18,596.554 3264.23,601.977 3264.23,609.647 C3264.23,616.542 3260.59,624.638 3253.31,633.935 C3248.81,639.668 3243.82,642.535 3238.32,642.535 C3231.34,642.535 3226.46,641.14 3223.67,638.351 C3219.72,634.4 3217.75,626.575 3217.75,614.877 C3217.75,595.198 3225.69,575.83 3241.57,556.771 C3259.47,535.311 3276.63,524.581 3293.05,524.581 C3305.76,524.581 3315.25,527.564 3321.52,533.529 C3325.16,537.015 3326.98,542.051 3326.98,548.637 C3326.98,555.997 3319.74,564.209 3305.25,573.273 C3297.66,578.077 3288.01,580.672 3276.32,581.059 M3231.92,596.167 C3229.99,602.675 3229.02,608.911 3229.02,614.877 C3229.02,629.055 3231.27,636.143 3235.76,636.143 C3240.02,636.143 3243.35,633.122 3245.75,627.079 C3248.54,620.261 3249.94,612.707 3249.94,604.418 C3249.94,597.058 3247.5,593.378 3242.62,593.378 C3239.21,593.378 3235.64,594.307 3231.92,596.167"/>
<path class="Note" d="M3224.95,821.118 C3221.15,821.118 3219.26,817.05 3219.26,808.916 L3219.26,774.866 C3219.26,771.612 3220.84,769.985 3224.02,769.985 C3225.42,769.985 3226.46,770.101 3227.16,770.333 C3229.64,765.995 3233.71,762.354 3239.36,759.41 C3247.26,755.304 3255.28,753.25 3263.42,753.25 C3269.85,753.25 3273.06,755.652 3273.06,760.456 C3273.06,764.484 3270.89,766.499 3266.55,766.499 C3263.46,766.499 3260.51,765.801 3257.72,764.407 C3255.24,763.167 3252.61,762.547 3249.82,762.547 C3245.02,762.547 3237.93,765.685 3228.55,771.96 C3229.87,778.236 3230.53,785.557 3230.53,793.924 C3230.53,812.053 3228.67,821.118 3224.95,821.118"/>
<path class="Note" d="M3224.95,553.244 C3221.15,553.244 3219.26,549.176 3219.26,541.041 L3219.26,506.992 C3219.26,503.738 3220.84,502.111 3224.02,502.111 C3225.42,502.111 3226.46,502.227 3227.16,502.459 C3229.64,498.121 3233.71,494.48 3239.36,491.536 C3247.26,487.43 3255.28,485.376 3263.42,485.376 C3269.85,485.376 3273.06,487.778 3273.06,492.582 C3273.06,496.61 3270.89,498.624 3266.55,498.624 C3263.46,498.624 3260.51,497.927 3257.72,496.533 C3255.24,495.293 3252.61,494.673 3249.82,494.673 C3245.02,494.673 3237.93,497.811 3228.55,504.086 C3229.87,510.362 3230.53,517.683 3230.53,526.05 C3230.53,544.179 3228.67,553.244 3224.95,553.244"/>
<path class="Note" d="M3158.14,677.207 C3158.45,665.509 3164.92,655.127 3177.55,646.063 C3188.78,638.005 3201.06,633.977 3214.38,633.977 C3233.06,633.977 3249.52,641.298 3263.77,655.941 C3272.84,665.315 3277.37,676.936 3277.37,690.804 C3277.37,703.277 3274.04,712.845 3267.38,719.508 C3259.24,727.72 3250.64,731.826 3241.58,731.826 C3235.38,731.826 3230.58,730.432 3227.17,727.643 C3221.59,723.072 3218.8,716.951 3218.8,709.281 C3218.8,699.365 3223.76,690.3 3233.68,682.088 C3241.81,675.348 3249.98,670.932 3258.2,668.84 C3256.03,665.121 3253.28,661.635 3249.95,658.381 C3239.56,648.232 3227.79,643.157 3214.62,643.157 C3200.9,643.157 3189.55,646.14 3180.57,652.106 C3171.27,658.226 3163.79,666.593 3158.14,677.207 M3261.1,674.999 C3256.84,678.95 3252.58,683.173 3248.32,687.666 C3239.95,696.498 3235.77,704.865 3235.77,712.768 C3235.77,721.212 3237.7,725.435 3241.58,725.435 C3245.06,725.435 3249.95,720.67 3256.22,711.141 C3261.26,703.548 3263.77,696.576 3263.77,690.223 C3263.77,684.8 3262.88,679.725 3261.1,674.999"/>
<path class="Note" d="M3782.21,583.965 C3786.79,583.965 3789.07,586.831 3789.07,592.564 C3789.07,596.593 3786.55,602.597 3781.52,610.577 C3777.49,617.007 3775.47,623.283 3775.47,629.403 C3775.47,632.889 3780.55,634.633 3790.7,634.633 C3799.07,634.633 3810.72,630.1 3825.68,621.036 C3810.65,635.524 3797.59,642.767 3786.51,642.767 C3776.52,642.767 3769.55,641.257 3765.6,638.235 C3764.59,637.46 3763.74,636.531 3763.04,635.446 C3759.17,640.172 3752.7,642.535 3743.63,642.535 C3734.96,642.535 3728.29,640.753 3723.64,637.189 C3720.55,634.788 3719,630.953 3719,625.684 C3719,617.317 3723.95,608.175 3733.87,598.259 C3744.48,587.645 3756.76,582.338 3770.71,582.338 C3774.2,582.338 3776.75,583.616 3778.38,586.173 C3779.7,584.701 3780.97,583.965 3782.21,583.965 M3761.41,630.217 C3761.34,629.597 3761.3,628.977 3761.3,628.357 C3761.3,628.047 3765.25,617.24 3773.15,595.934 C3773.92,593.843 3774.7,592.061 3775.47,590.589 C3772.45,589.969 3769.47,589.659 3766.53,589.659 C3761.1,589.659 3753.9,594.269 3744.91,603.488 C3736.85,611.7 3732.82,618.789 3732.82,624.755 C3732.82,631.34 3735.96,634.633 3742.24,634.633 C3749.83,634.633 3756.22,633.161 3761.41,630.217"/>
<path class="Note" d="M3789.3,759.642 C3799.76,753.057 3807.35,747.672 3812.08,743.489 C3820.76,735.819 3825.1,728.071 3825.1,720.247 C3825.1,711.105 3818.98,706.534 3806.74,706.534 C3793.87,706.534 3780.47,715.792 3766.53,734.308 C3757.07,746.859 3750.37,758.712 3746.42,769.869 C3751.3,766.692 3756.45,765.104 3761.88,765.104 C3766.99,765.104 3771.06,767.389 3774.08,771.96 C3776.17,775.137 3777.22,780.56 3777.22,788.23 C3777.22,795.125 3773.58,803.221 3766.29,812.518 C3761.8,818.251 3756.8,821.118 3751.3,821.118 C3744.33,821.118 3739.45,819.723 3736.66,816.934 C3732.71,812.983 3730.73,805.158 3730.73,793.459 C3730.73,773.781 3738.67,754.413 3754.56,735.354 C3772.45,713.894 3789.61,703.164 3806.04,703.164 C3818.74,703.164 3828.23,706.146 3834.51,712.112 C3838.15,715.598 3839.97,720.634 3839.97,727.219 C3839.97,734.579 3832.73,742.791 3818.24,751.856 C3810.65,756.659 3801,759.255 3789.3,759.642 M3744.91,774.749 C3742.97,781.257 3742.01,787.494 3742.01,793.459 C3742.01,807.637 3744.25,814.726 3748.75,814.726 C3753.01,814.726 3756.34,811.705 3758.74,805.662 C3761.53,798.844 3762.92,791.29 3762.92,783 C3762.92,775.64 3760.48,771.96 3755.6,771.96 C3752.19,771.96 3748.63,772.89 3744.91,774.749"/>
<path class="Note" d="M3737.94,553.244 C3734.14,553.244 3732.24,549.176 3732.24,541.041 L3732.24,506.992 C3732.24,503.738 3733.83,502.111 3737.01,502.111 C3738.4,502.111 3739.45,502.227 3740.15,502.459 C3742.63,498.121 3746.69,494.48 3752.35,491.536 C3760.25,487.43 3768.27,485.376 3776.4,485.376 C3782.83,485.376 3786.05,487.778 3786.05,492.582 C3786.05,496.61 3783.88,498.624 3779.54,498.624 C3776.44,498.624 3773.5,497.927 3770.71,496.533 C3768.23,495.293 3765.6,494.673 3762.81,494.673 C3758,494.673 3750.92,497.811 3741.54,504.086 C3742.86,510.362 3743.52,517.683 3743.52,526.05 C3743.52,544.179 3741.66,553.244 3737.94,553.244"/>
<path class="Note" d="M3671.13,677.207 C3671.44,665.509 3677.9,655.127 3690.53,646.063 C3701.77,638.005 3714.05,633.977 3727.37,633.977 C3746.04,633.977 3762.51,641.298 3776.76,655.941 C3785.83,665.315 3790.36,676.936 3790.36,690.804 C3790.36,703.277 3787.03,712.845 3780.36,719.508 C3772.23,727.72 3763.63,731.826 3754.57,731.826 C3748.37,731.826 3743.56,730.432 3740.16,727.643 C3734.58,723.072 3731.79,716.951 3731.79,709.281 C3731.79,699.365 3736.75,690.3 3746.66,682.088 C3754.8,675.348 3762.97,670.932 3771.18,668.84 C3769.01,665.121 3766.26,661.635 3762.93,658.381 C3752.55,648.232 3740.77,643.157 3727.6,643.157 C3713.89,643.157 3702.54,646.14 3693.55,652.106 C3684.26,658.226 3676.78,666.593 3671.13,677.207 M3774.09,674.999 C3769.83,678.95 3765.57,683.173 3761.31,687.666 C3752.94,696.498 3748.75,704.865 3748.75,712.768 C3748.75,721.212 3750.69,725.435 3754.57,725.435 C3758.05,725.435 3762.93,720.67 3769.21,711.141 C3774.24,703.548 3776.76,696.576 3776.76,690.223 C3776.76,684.8 3775.87,679.725 3774.09,674.999"/>
<path class="Clef" transform="matrix(2.3811,0,0,2.3811,212.156,2187.89)" d="M25.4,-25.1 C17.8,-25.1 11.7,-20.7 11.6,-20.7 C5.8,-16.4 3.5,-11.3 2.6,-7.8 C2.1,-6 1.9,-4.2 1.9,-2.5 C1.9,-0.1 2.3,2.1 3.2,4 C4.4,6.7 6.7,8.6 9.7,9.6 C10.9,10 12.2,10.2 13.5,10.2 C15.7,10.2 18,9.6 19.9,8.5 C23,6.8 24.9,3.2 24.9,-0.7 C24.9,-4.2 23.1,-7.4 20.1,-9.3 C18,-10.7 16,-11.1 14.3,-11.1 C13.1,-11.1 12,-10.9 11.1,-10.6 C10.1,-10.2 8.4,-9.2 7.6,-8.5 C7.9,-10.4 9.1,-13.3 10.2,-14.9 C11.3,-16.5 13.5,-18.5 15.2,-19.4 C17.7,-20.8 20.9,-21.4 24.4,-21.4 C34.6,-21.4 39.6,-13.2 39.6,3.6 C39.6,12.9 36.1,21.8 33.1,27.7 C29.8,34.3 25.4,40.6 21.5,44.1 C11.1,53.6 1.3,58.1 1.2,58.1 C1.2,58.1 -0.3,59 0.1,60.5 C0.4,61.5 1.3,61.7 1.9,61.7 C2,61.7 2.3,61.6 2.4,61.6 C2.5,61.6 13.9,56.9 23,49.8 C28.1,46.1 32.7,42.1 36.7,37.8 C40.3,33.9 43.4,29.7 45.9,25.5 C50.3,18 52.8,10.2 52.8,3.5 C52.8,-4.8 50.6,-11.7 46.5,-16.6 C41.8,-22.2 34.7,-25.1 25.4,-25.1 M56.8,-12.4 C56.8,-9.6 59,-7.4 61.6,-7.4 C64.2,-7.4 66.4,-9.6 66.4,-12.4 C66.4,-15.2 64.2,-17.5 61.6,-17.5 C59,-17.5 56.8,-15.2 56.8,-12.4 M56.8,12.3 C56.8,15.1 59,17.4 61.6,17.4 C64.2,17.4 66.4,15.1 66.4,12.3 C66.4,9.5 64.2,7.2 61.6,7.2 C59,7.2 56.8,9.5 56.8,12.3"/>
<path class="Clef" transform="matrix(2.3811,0,0,2.3811,212.156,1570.39)" d="M63.37,-5.89004 C62.14,-11.32 59.5,-15.14 58.72,-16.1801 C55.5301,-20.45 51.52,-23.3 46.8301,-24.65 C43.72,-25.54 40.72,-25.65 38.3,-25.47 C37.2601,-31.4801 36.2601,-37.3601 35.35,-42.8101 C40.79,-48.97 44.42,-54.77 46.69,-59.07 C50.1601,-65.65 51.3101,-70.2301 51.3601,-70.4301 C53.0801,-75.64 53.44,-83.34 52.34,-91.55 C51.3301,-99.1 49.24,-105.81 46.89,-109.06 C45.8601,-110.49 44.8101,-111.22 43.77,-111.22 C42.55,-111.22 40.04,-109.98 37.15,-107.21 C34.85,-105.01 31.5801,-101.12 29.02,-95.1101 C26.02,-88.05 25.8101,-78.5601 26.1601,-71.84 C26.54,-64.57 27.65,-58.8801 27.6601,-58.8301 C27.6801,-58.74 27.94,-57.24 28.39,-54.67 C28.1601,-54.44 27.92,-54.22 27.67,-53.9801 C26.6301,-52.9801 25.44,-51.84 24.0601,-50.4601 C23.2,-49.6 22.25,-48.69 21.25,-47.72 C12.79,-39.57 0,-27.25 0,-8.1 C0,-3.4 0.9,1.01992 2.68008,5.02998 C4.27002,8.62998 6.57002,11.91 9.5,14.78 C17.2301,22.33 27.82,25.5399 34.8801,25.38 C37.8301,25.31 40.4601,25.0699 42.85,24.6199 C44.6801,34.2199 45.82,41.25 45.8601,46.5899 C45.9,53.1 44.25,57.0699 40.35,59.8399 C37.92,61.5699 35.1101,62.5199 32.0101,62.6699 C29.42,62.7899 27.1601,62.3199 25.7301,61.91 L25.72,61.91 C25.72,61.91 25.4301,61.83 25.42,61.63 C25.4101,61.45 25.7601,61.4 25.77,61.4 L25.79,61.4 C27.7101,60.96 31.2801,59.73 33.64,56.43 C35.44,53.91 36.3101,49.2899 34.47,45.35 C33.3601,42.96 30.85,40.01 25.2301,39.56 C22.74,39.36 20.47,39.8699 18.47,41.0699 C16.6601,42.15 15.1601,43.7899 14.1101,45.7899 C11.65,50.4899 12.1101,56.2199 15.24,60.06 C18.2,63.68 22.82,65.9899 28.25,66.5699 C29.1,66.66 29.95,66.7 30.8,66.7 C31.5101,66.7 32.22,66.6699 32.92,66.61 C31.72,66.9399 30.64,67.4899 29.77,68.25 C28.2801,69.5399 27.44,71.38 27.44,73.41 C27.44,75.28 28.0601,76.65 29.55,78.0399 C28.4101,78.5 27.55,78.98 26.79,79.56 C25.25,80.73 24.34,82.46 24.34,84.1899 C24.34,87.45 27.3,89.63 31.72,89.63 C37.1301,89.63 40.9101,86.63 40.9101,82.35 C40.9101,80.1199 39.9101,78.18 38.0801,76.83 C41.0101,75.6199 42.37,73.9399 42.37,71.56 C42.39,70.05 41.69,68.61 40.49,67.6899 C39.2801,66.7399 37.62,66.2399 35.69,66.2399 L35.5101,66.2399 C38.2801,65.7 40.92,64.7 43.2101,63.28 C46.87,60.71 48.99,56.73 49.67,51.1 C50.2301,46.46 49.84,40.55 48.44,32.48 C48.0801,30.3899 47.54,27.36 46.8801,23.6 C52.6301,21.68 56.79,18.11 60.5601,12.26 C63.85,6.51992 64.8,0.419922 63.37,-5.89004 M32.39,87.5399 C30.19,87.5399 28.7301,86.1199 28.7301,84.01 C28.7301,82.11 29.65,80.5 31.32,79.4699 C31.6801,79.66 31.77,79.71 32.1101,79.88 C33.3,80.48 33.3,80.48 33.55,80.63 L33.5601,80.6399 C35.47,81.73 36.25,82.76 36.25,84.18 C36.24,86.0899 34.59,87.5399 32.39,87.5399 M38.3101,71.63 C38.3101,73.2699 37.7301,74.3399 36.1801,75.53 C34.74,74.78 34.35,74.56 33.9801,74.3399 L33.8801,74.28 C32.3301,73.3399 31.85,72.66 31.85,71.4 C31.85,69.6 33.2301,68.3399 35.19,68.3399 C37.17,68.35 38.3101,69.55 38.3101,71.63 M33.15,-83.8101 C34.9301,-89.55 37.67,-92.8 39.6601,-94.5301 C41.4101,-96.05 43.0601,-96.7601 43.9801,-96.7601 C44.12,-96.7601 44.24,-96.74 44.34,-96.7101 C44.8,-96.57 45.3301,-96 45.8,-95.1301 C48.1101,-90.84 47.37,-84.1301 46.0301,-79.69 C44.4,-74.29 41.4801,-68.6801 32.69,-59.0601 C32.52,-60.17 32.3601,-61.22 32.2101,-62.2 C30.95,-70.49 31.27,-77.7601 33.15,-83.8101 M29.15,20.31 C24.5101,19.0899 20.0801,16.5899 16.32,13.0899 C15.0101,11.86 13.14,9.68994 11.67,6.3 C10.3101,3.13994 9.65,-0.290039 9.7,-3.88008 C9.77002,-8.57002 11.0801,-13.39 13.59,-18.1801 C16.5101,-23.7601 21.07,-29.29 27.1301,-34.62 C28.5801,-35.9 29.95,-37.1801 31.24,-38.4601 C32,-34.2 32.8301,-29.5101 33.7101,-24.6301 C29.8601,-23.3601 25.1101,-20.2101 22,-14.5601 C18.47,-7.99004 18.6101,-2.47002 19.34,1.00996 C20.2801,5.46992 22.8101,9.22998 26.27,11.3199 C27.2,11.88 31.3301,14.01 33.17,13.43 C33.54,13.31 33.8101,13.0899 33.95,12.76 C34.4601,11.5899 33.44,10.95 31.8801,9.98994 C31.2801,9.61992 30.6101,9.2 29.8801,8.66992 C26.5601,6.17998 25.1101,1.72998 26.1801,-2.65 C26.7601,-5.05 28.04,-7.21006 29.8801,-8.91006 C31.55,-10.4601 33.59,-11.5601 35.97,-12.2 C38.0101,-0.960059 40.07,10.1899 41.7101,18.55 C41.84,19.2399 41.9801,19.91 42.1101,20.58 C37.7101,21.51 33.37,21.4199 29.15,20.31 M54.9,10.1 C53.7301,13.28 51.27,17.35 46.14,19.41 C46.07,18.9899 45.99,18.56 45.9101,18.13 C44.3601,9.36992 42.4301,-1.61006 40.47,-12.87 C50.82,-13.35 55.09,-5.91006 55.9801,-1.08008 C56.45,1.45 56.45,5.88994 54.9,10.1"/>
<path class="FiguredBass" d="M559.923,2500.08 C562.274,2500.08 564.748,2499.74 567.345,2499.06 L571.52,2497.94 C572.324,2497.94 572.958,2498.25 573.422,2498.87 C573.886,2499.49 573.839,2500.05 573.283,2500.54 L530.143,2550.73 L555.47,2550.73 L555.47,2530.88 C555.47,2529.46 555.857,2528.36 556.63,2527.58 C557.403,2526.81 558.393,2526.19 559.599,2525.73 C560.805,2525.27 562.382,2523.89 564.33,2521.6 C566.278,2519.31 568.149,2516.22 569.943,2512.32 C570.252,2511.71 570.716,2511.4 571.335,2511.4 C572.633,2511.4 573.283,2512.11 573.283,2513.53 L573.283,2550.73 L584.23,2550.73 C585.776,2550.73 586.549,2551.44 586.549,2552.87 C586.549,2554.41 585.776,2555.18 584.23,2555.18 L573.283,2555.18 L573.283,2556.39 C573.283,2560.23 574.303,2563.57 576.344,2566.41 C578.385,2569.26 581.014,2570.68 584.23,2570.68 C585.467,2570.68 586.086,2571.23 586.086,2572.35 C586.086,2573.58 585.467,2574.2 584.23,2574.2 C582.003,2574.2 578.695,2573.88 574.303,2573.23 C569.912,2572.58 566.588,2572.26 564.33,2572.26 C562.073,2572.26 558.748,2572.58 554.357,2573.23 C549.966,2573.88 546.657,2574.2 544.43,2574.2 C543.193,2574.2 542.575,2573.58 542.575,2572.35 C542.575,2571.23 543.193,2570.68 544.43,2570.68 C547.646,2570.68 550.29,2569.26 552.362,2566.41 C554.434,2563.57 555.47,2560.23 555.47,2556.39 L555.47,2555.18 L530.143,2555.18 C528.535,2555.18 527.344,2554.8 526.571,2554.03 C525.798,2553.25 525.412,2552.46 525.412,2551.66 C525.412,2551.35 526.138,2550.28 527.592,2548.46 C529.045,2546.63 530.823,2544.21 532.926,2541.18 C535.029,2538.15 537.117,2534.7 539.189,2530.83 C541.26,2526.97 543.023,2522.33 544.477,2516.92 C545.93,2511.5 546.657,2506.05 546.657,2500.54 C546.657,2498.93 547.337,2498.13 548.698,2498.13 C548.883,2498.13 549.533,2498.28 550.646,2498.59 C551.759,2498.9 553.182,2499.23 554.914,2499.57 C556.645,2499.91 558.315,2500.08 559.923,2500.08"/>
<path class="FiguredBass" d="M572.448,2639.6 C572.448,2640.59 573.004,2641.55 574.118,2642.47 C575.231,2643.4 576.453,2644.28 577.782,2645.12 C579.112,2645.95 580.334,2647.53 581.447,2649.85 C582.56,2652.17 583.117,2655.09 583.117,2658.62 C583.117,2665.42 580.55,2670.68 575.417,2674.39 C570.283,2678.1 563.789,2679.95 555.934,2679.95 C549.626,2679.95 544.136,2678.38 539.467,2675.22 C534.797,2672.07 532.462,2667.92 532.462,2662.79 C532.462,2660.07 533.452,2657.7 535.431,2655.69 C537.41,2653.68 539.776,2652.68 542.528,2652.68 C545.281,2652.68 547.615,2653.67 549.533,2655.65 C551.45,2657.63 552.409,2660.01 552.409,2662.79 C552.409,2664.03 551.388,2665.37 549.347,2666.83 C547.306,2668.28 546.286,2669.62 546.286,2670.86 C546.286,2672.78 547.229,2674.19 549.115,2675.08 C551.002,2675.98 553.275,2676.43 555.934,2676.43 C559.398,2676.43 561.856,2674.71 563.31,2671.28 C564.763,2667.85 565.49,2663.63 565.49,2658.62 L565.49,2656.2 C565.49,2652.86 565.382,2650.33 565.165,2648.6 C564.949,2646.86 564.268,2645.32 563.124,2643.96 C561.98,2642.6 560.233,2641.92 557.882,2641.92 L545.729,2641.92 C544.307,2641.92 543.595,2641.14 543.595,2639.6 C543.595,2638.17 544.307,2637.46 545.729,2637.46 L557.882,2637.46 C560.418,2637.46 562.397,2636.5 563.82,2634.59 C564.315,2633.91 564.717,2632.79 565.026,2631.25 C565.335,2629.21 565.49,2626.27 565.49,2622.43 L565.49,2621.23 C565.49,2612.01 562.088,2607.4 555.285,2607.4 C549.285,2607.4 546.286,2609.07 546.286,2612.41 C546.286,2613.53 547.198,2614.72 549.023,2615.99 C550.847,2617.25 551.759,2618.44 551.759,2619.56 C551.759,2621.97 550.909,2624.04 549.208,2625.77 C547.507,2627.51 545.435,2628.37 542.992,2628.37 C540.549,2628.37 538.493,2627.51 536.823,2625.77 C535.153,2624.04 534.318,2621.97 534.318,2619.56 C534.318,2614.8 536.39,2610.99 540.534,2608.15 C544.678,2605.3 549.595,2603.88 555.285,2603.88 C562.768,2603.88 568.922,2605.32 573.747,2608.19 C578.571,2611.07 580.983,2615.41 580.983,2621.23 C580.983,2625.37 580.55,2628.59 579.684,2630.88 C578.818,2633.16 577.829,2634.56 576.715,2635.05 C575.602,2635.55 574.613,2636.12 573.747,2636.77 C572.881,2637.42 572.448,2638.36 572.448,2639.6"/>
<path class="FiguredBass" d="M1136.73,2566.94 L1136.73,2586.33 C1136.73,2588.24 1135.75,2589.2 1133.8,2589.2 C1131.86,2589.2 1130.88,2588.24 1130.88,2586.33 L1130.88,2569.44 L1127.91,2570.65 C1127.6,2570.77 1127.2,2570.83 1126.71,2570.83 C1125.9,2570.83 1125.19,2570.52 1124.57,2569.9 C1123.95,2569.29 1123.65,2568.58 1123.65,2567.77 L1123.65,2558.31 C1123.65,2556.95 1124.29,2555.99 1125.59,2555.43 L1130.88,2553.21 L1130.88,2533.72 L1127.91,2534.93 C1127.73,2534.99 1127.48,2535.02 1127.17,2535.02 C1127.05,2535.02 1126.89,2535.02 1126.71,2535.02 C1125.78,2534.9 1125.04,2534.56 1124.48,2534 C1123.92,2533.44 1123.65,2532.8 1123.65,2532.05 L1123.65,2522.59 C1123.65,2521.29 1124.29,2520.36 1125.59,2519.81 L1130.88,2517.58 L1130.88,2497.82 C1130.88,2495.9 1131.86,2494.94 1133.8,2494.94 C1135.75,2494.94 1136.73,2495.9 1136.73,2497.82 L1136.73,2515.17 L1148.69,2510.16 L1148.69,2490.77 C1148.69,2488.85 1149.65,2487.89 1151.57,2487.89 C1153.49,2487.89 1154.45,2488.85 1154.45,2490.77 L1154.45,2507.84 L1157.69,2506.45 C1158,2506.32 1158.34,2506.26 1158.71,2506.26 C1159.52,2506.26 1160.24,2506.57 1160.89,2507.19 C1161.54,2507.81 1161.87,2508.52 1161.87,2509.32 L1161.87,2518.79 C1161.87,2520.15 1161.19,2521.11 1159.83,2521.66 L1154.45,2523.89 L1154.45,2543.46 L1157.69,2542.17 C1157.88,2542.1 1158.1,2542.07 1158.34,2542.07 C1158.47,2542.07 1158.59,2542.07 1158.71,2542.07 C1159.77,2542.26 1160.55,2542.6 1161.08,2543.09 C1161.61,2543.59 1161.87,2544.24 1161.87,2545.04 L1161.87,2554.5 C1161.87,2555.8 1161.19,2556.73 1159.83,2557.29 L1154.45,2559.51 L1154.45,2579.27 C1154.45,2581.19 1153.49,2582.15 1151.57,2582.15 C1149.65,2582.15 1148.69,2581.19 1148.69,2579.27 L1148.69,2561.93 L1136.73,2566.94 M1136.73,2550.79 L1148.69,2545.88 L1148.69,2526.3 L1136.73,2531.31 L1136.73,2550.79 "/>
<path class="FiguredBass" d="M1678.38,2500.08 C1680.73,2500.08 1683.21,2499.74 1685.8,2499.06 L1689.98,2497.94 C1690.78,2497.94 1691.42,2498.25 1691.88,2498.87 C1692.34,2499.49 1692.3,2500.05 1691.74,2500.54 L1648.6,2550.73 L1673.93,2550.73 L1673.93,2530.88 C1673.93,2529.46 1674.31,2528.36 1675.09,2527.58 C1675.86,2526.81 1676.85,2526.19 1678.06,2525.73 C1679.26,2525.27 1680.84,2523.89 1682.79,2521.6 C1684.74,2519.31 1686.61,2516.22 1688.4,2512.32 C1688.71,2511.71 1689.17,2511.4 1689.79,2511.4 C1691.09,2511.4 1691.74,2512.11 1691.74,2513.53 L1691.74,2550.73 L1702.69,2550.73 C1704.23,2550.73 1705.01,2551.44 1705.01,2552.87 C1705.01,2554.41 1704.23,2555.18 1702.69,2555.18 L1691.74,2555.18 L1691.74,2556.39 C1691.74,2560.23 1692.76,2563.57 1694.8,2566.41 C1696.84,2569.26 1699.47,2570.68 1702.69,2570.68 C1703.92,2570.68 1704.54,2571.23 1704.54,2572.35 C1704.54,2573.58 1703.92,2574.2 1702.69,2574.2 C1700.46,2574.2 1697.15,2573.88 1692.76,2573.23 C1688.37,2572.58 1685.05,2572.26 1682.79,2572.26 C1680.53,2572.26 1677.21,2572.58 1672.81,2573.23 C1668.42,2573.88 1665.11,2574.2 1662.89,2574.2 C1661.65,2574.2 1661.03,2573.58 1661.03,2572.35 C1661.03,2571.23 1661.65,2570.68 1662.89,2570.68 C1666.1,2570.68 1668.75,2569.26 1670.82,2566.41 C1672.89,2563.57 1673.93,2560.23 1673.93,2556.39 L1673.93,2555.18 L1648.6,2555.18 C1646.99,2555.18 1645.8,2554.8 1645.03,2554.03 C1644.26,2553.25 1643.87,2552.46 1643.87,2551.66 C1643.87,2551.35 1644.6,2550.28 1646.05,2548.46 C1647.5,2546.63 1649.28,2544.21 1651.38,2541.18 C1653.49,2538.15 1655.57,2534.7 1657.65,2530.83 C1659.72,2526.97 1661.48,2522.33 1662.93,2516.92 C1664.39,2511.5 1665.11,2506.05 1665.11,2500.54 C1665.11,2498.93 1665.79,2498.13 1667.16,2498.13 C1667.34,2498.13 1667.99,2498.28 1669.1,2498.59 C1670.22,2498.9 1671.64,2499.23 1673.37,2499.57 C1675.1,2499.91 1676.77,2500.08 1678.38,2500.08"/>
<path class="FiguredBass" d="M1690.91,2639.6 C1690.91,2640.59 1691.46,2641.55 1692.58,2642.47 C1693.69,2643.4 1694.91,2644.28 1696.24,2645.12 C1697.57,2645.95 1698.79,2647.53 1699.9,2649.85 C1701.02,2652.17 1701.57,2655.09 1701.57,2658.62 C1701.57,2665.42 1699.01,2670.68 1693.87,2674.39 C1688.74,2678.1 1682.25,2679.95 1674.39,2679.95 C1668.08,2679.95 1662.59,2678.38 1657.92,2675.22 C1653.26,2672.07 1650.92,2667.92 1650.92,2662.79 C1650.92,2660.07 1651.91,2657.7 1653.89,2655.69 C1655.87,2653.68 1658.23,2652.68 1660.99,2652.68 C1663.74,2652.68 1666.07,2653.67 1667.99,2655.65 C1669.91,2657.63 1670.87,2660.01 1670.87,2662.79 C1670.87,2664.03 1669.85,2665.37 1667.81,2666.83 C1665.76,2668.28 1664.74,2669.62 1664.74,2670.86 C1664.74,2672.78 1665.69,2674.19 1667.57,2675.08 C1669.46,2675.98 1671.73,2676.43 1674.39,2676.43 C1677.86,2676.43 1680.31,2674.71 1681.77,2671.28 C1683.22,2667.85 1683.95,2663.63 1683.95,2658.62 L1683.95,2656.2 C1683.95,2652.86 1683.84,2650.33 1683.62,2648.6 C1683.41,2646.86 1682.73,2645.32 1681.58,2643.96 C1680.44,2642.6 1678.69,2641.92 1676.34,2641.92 L1664.19,2641.92 C1662.76,2641.92 1662.05,2641.14 1662.05,2639.6 C1662.05,2638.17 1662.76,2637.46 1664.19,2637.46 L1676.34,2637.46 C1678.88,2637.46 1680.86,2636.5 1682.28,2634.59 C1682.77,2633.91 1683.17,2632.79 1683.48,2631.25 C1683.79,2629.21 1683.95,2626.27 1683.95,2622.43 L1683.95,2621.23 C1683.95,2612.01 1680.55,2607.4 1673.74,2607.4 C1667.74,2607.4 1664.74,2609.07 1664.74,2612.41 C1664.74,2613.53 1665.66,2614.72 1667.48,2615.99 C1669.3,2617.25 1670.22,2618.44 1670.22,2619.56 C1670.22,2621.97 1669.37,2624.04 1667.67,2625.77 C1665.97,2627.51 1663.89,2628.37 1661.45,2628.37 C1659.01,2628.37 1656.95,2627.51 1655.28,2625.77 C1653.61,2624.04 1652.78,2621.97 1652.78,2619.56 C1652.78,2614.8 1654.85,2610.99 1658.99,2608.15 C1663.14,2605.3 1668.05,2603.88 1673.74,2603.88 C1681.23,2603.88 1687.38,2605.32 1692.2,2608.19 C1697.03,2611.07 1699.44,2615.41 1699.44,2621.23 C1699.44,2625.37 1699.01,2628.59 1698.14,2630.88 C1697.28,2633.16 1696.29,2634.56 1695.17,2635.05 C1694.06,2635.55 1693.07,2636.12 1692.2,2636.77 C1691.34,2637.42 1690.91,2638.36 1690.91,2639.6"/>
<path class="FiguredBass" d="M2255.18,2564.55 L2255.18,2583.94 C2255.18,2585.86 2254.21,2586.82 2252.26,2586.82 C2250.31,2586.82 2249.34,2585.86 2249.34,2583.94 L2249.34,2567.06 L2246.37,2568.27 C2246.06,2568.39 2245.66,2568.45 2245.16,2568.45 C2244.36,2568.45 2243.65,2568.14 2243.03,2567.52 C2242.41,2566.91 2242.1,2566.19 2242.1,2565.39 L2242.1,2555.93 C2242.1,2554.57 2242.75,2553.61 2244.05,2553.05 L2249.34,2550.82 L2249.34,2531.34 L2246.37,2532.55 C2246.19,2532.61 2245.94,2532.64 2245.63,2532.64 C2245.5,2532.64 2245.35,2532.64 2245.16,2532.64 C2244.24,2532.52 2243.49,2532.18 2242.94,2531.62 C2242.38,2531.06 2242.1,2530.41 2242.1,2529.67 L2242.1,2520.21 C2242.1,2518.91 2242.75,2517.98 2244.05,2517.43 L2249.34,2515.2 L2249.34,2495.44 C2249.34,2493.52 2250.31,2492.56 2252.26,2492.56 C2254.21,2492.56 2255.18,2493.52 2255.18,2495.44 L2255.18,2512.79 L2267.15,2507.78 L2267.15,2488.39 C2267.15,2486.47 2268.11,2485.51 2270.03,2485.51 C2271.95,2485.51 2272.9,2486.47 2272.9,2488.39 L2272.9,2505.46 L2276.15,2504.07 C2276.46,2503.94 2276.8,2503.88 2277.17,2503.88 C2277.98,2503.88 2278.7,2504.19 2279.35,2504.81 C2280,2505.43 2280.33,2506.14 2280.33,2506.94 L2280.33,2516.41 C2280.33,2517.77 2279.65,2518.72 2278.28,2519.28 L2272.9,2521.51 L2272.9,2541.08 L2276.15,2539.78 C2276.34,2539.72 2276.55,2539.69 2276.8,2539.69 C2276.92,2539.69 2277.05,2539.69 2277.17,2539.69 C2278.22,2539.88 2279.01,2540.22 2279.54,2540.71 C2280.06,2541.21 2280.33,2541.86 2280.33,2542.66 L2280.33,2552.12 C2280.33,2553.42 2279.65,2554.35 2278.28,2554.91 L2272.9,2557.13 L2272.9,2576.89 C2272.9,2578.81 2271.95,2579.77 2270.03,2579.77 C2268.11,2579.77 2267.15,2578.81 2267.15,2576.89 L2267.15,2559.55 L2255.18,2564.55 M2255.18,2548.41 L2267.15,2543.5 L2267.15,2523.92 L2255.18,2528.93 L2255.18,2548.41 "/>
<path class="FiguredBass" d="M3241.77,2574.2 C3235.77,2574.2 3231.41,2572.53 3228.69,2569.19 C3227.7,2567.96 3226.43,2566.81 3224.89,2565.76 C3223.34,2564.71 3221.64,2564.18 3219.78,2564.18 C3217.37,2564.18 3215.21,2564.94 3213.29,2566.46 C3211.37,2567.97 3210.41,2570 3210.41,2572.53 C3210.41,2573.65 3209.86,2574.2 3208.74,2574.2 C3207.51,2574.2 3206.89,2573.65 3206.89,2572.53 C3206.89,2568.76 3207.77,2565.31 3209.53,2562.19 C3211.3,2559.07 3213.51,2556.44 3216.17,2554.3 C3218.83,2552.17 3221.7,2549.88 3224.79,2547.44 C3227.89,2545 3230.75,2542.63 3233.38,2540.34 C3236,2538.05 3238.2,2535.16 3239.96,2531.67 C3241.73,2528.17 3242.61,2524.35 3242.61,2520.21 C3242.61,2515.01 3241.76,2510.62 3240.06,2507.04 C3238.35,2503.45 3235.68,2501.65 3232.03,2501.65 C3229.93,2501.65 3228.1,2502.16 3226.56,2503.19 C3225.01,2504.21 3224.24,2505.55 3224.24,2507.22 C3224.24,2508.52 3225.12,2510.22 3226.88,2512.32 C3228.64,2514.43 3229.53,2516.19 3229.53,2517.61 C3229.53,2520.58 3228.52,2523.07 3226.51,2525.08 C3224.5,2527.09 3222.07,2528.09 3219.23,2528.09 C3216.26,2528.09 3213.77,2527.06 3211.76,2524.99 C3209.75,2522.92 3208.74,2520.46 3208.74,2517.61 C3208.74,2511.92 3211.02,2507.25 3215.56,2503.6 C3220.11,2499.95 3225.6,2498.13 3232.03,2498.13 C3239.64,2498.13 3246.27,2500.19 3251.93,2504.3 C3257.59,2508.41 3260.42,2513.72 3260.42,2520.21 C3260.42,2524.6 3259.63,2528.4 3258.05,2531.62 C3256.48,2534.84 3254.22,2537.43 3251.28,2539.41 C3248.34,2541.39 3245.41,2543.08 3242.47,2544.47 C3239.53,2545.86 3236.08,2547.36 3232.12,2548.97 C3228.17,2550.58 3224.98,2552.15 3222.57,2553.7 C3223.87,2553.39 3225.2,2553.24 3226.56,2553.24 C3231.13,2553.24 3235.9,2554.72 3240.84,2557.69 C3245.79,2560.66 3249.69,2562.14 3252.53,2562.14 C3254.14,2562.14 3255.46,2561.85 3256.48,2561.26 C3257.5,2560.67 3258.16,2560.02 3258.47,2559.31 C3258.78,2558.6 3259.14,2557.94 3259.54,2557.32 C3259.94,2556.7 3260.39,2556.39 3260.88,2556.39 C3262.12,2556.39 3262.74,2557.01 3262.74,2558.25 C3262.74,2560.91 3260.82,2564.23 3256.99,2568.22 C3253.15,2572.21 3248.08,2574.2 3241.77,2574.2"/>
<path class="FiguredBass" d="M3750.58,2501.65 C3746.01,2501.65 3742.96,2503.49 3741.45,2507.17 C3739.93,2510.85 3739.17,2516.07 3739.17,2522.81 L3739.17,2533.75 C3742.39,2532.46 3745.17,2531.78 3747.52,2531.71 C3755.56,2531.71 3761.89,2533.49 3766.49,2537.05 C3771.1,2540.6 3773.41,2545.89 3773.41,2552.91 C3773.41,2559.93 3771.07,2565.24 3766.4,2568.82 C3761.73,2572.41 3755.44,2574.2 3747.52,2574.2 C3739.42,2574.2 3733.08,2570.45 3728.5,2562.93 C3723.93,2555.42 3721.64,2546.5 3721.64,2536.17 C3721.64,2525.9 3724.3,2516.99 3729.62,2509.45 C3734.94,2501.9 3741.93,2498.13 3750.58,2498.13 C3756.27,2498.13 3761.19,2499.57 3765.34,2502.44 C3769.48,2505.32 3771.55,2509.11 3771.55,2513.81 C3771.55,2516.53 3770.56,2518.88 3768.58,2520.86 C3766.6,2522.84 3764.24,2523.83 3761.49,2523.83 C3758.73,2523.83 3756.37,2522.84 3754.39,2520.86 C3752.41,2518.88 3751.42,2516.53 3751.42,2513.81 C3751.42,2511.15 3752.41,2508.8 3754.39,2506.76 C3755.07,2505.95 3756.03,2505.27 3757.26,2504.72 C3756.95,2503.91 3756.34,2503.29 3755.41,2502.86 C3754.05,2502.06 3752.44,2501.65 3750.58,2501.65 M3755.13,2539.6 C3754.02,2536.69 3751.57,2535.24 3747.8,2535.24 C3744.03,2535.24 3741.69,2536.69 3740.8,2539.6 C3739.9,2542.51 3739.45,2546.93 3739.45,2552.87 C3739.45,2559.85 3739.9,2564.55 3740.8,2566.97 C3741.69,2569.38 3744.03,2570.59 3747.8,2570.59 C3751.57,2570.59 3754.02,2569.13 3755.13,2566.22 C3756.24,2563.32 3756.8,2558.88 3756.8,2552.91 C3756.8,2546.94 3756.24,2542.51 3755.13,2539.6"/>
<path class="FiguredBass" d="M3727.95,2603.88 L3732.4,2604.53 C3733.58,2604.71 3735.03,2604.9 3736.76,2605.09 C3741.03,2605.58 3745.14,2605.83 3749.1,2605.83 C3753.06,2605.83 3757.23,2605.58 3761.62,2605.09 C3763.36,2604.9 3764.87,2604.71 3766.17,2604.53 L3770.72,2603.88 C3771.64,2603.88 3772.36,2604.19 3772.85,2604.81 C3773.22,2605.3 3773.16,2605.8 3772.66,2606.29 C3763.02,2615.75 3749.69,2620.49 3732.68,2620.49 C3732,2620.49 3731.4,2620.73 3730.87,2621.23 C3730.34,2621.72 3730.08,2622.34 3730.08,2623.08 L3730.08,2634.87 C3734.47,2630.54 3739.79,2628.37 3746.04,2628.37 C3754.76,2628.37 3761.56,2630.41 3766.45,2634.49 C3771.77,2630.47 3774.55,2625.34 3774.8,2619.09 C3774.86,2617.11 3775.51,2615.51 3776.75,2614.27 C3778.11,2613.03 3779.75,2612.41 3781.66,2612.41 C3783.58,2612.41 3785.2,2613.06 3786.53,2614.36 C3787.86,2615.66 3788.53,2617.24 3788.53,2619.09 C3788.53,2628.68 3782.87,2635.95 3771.55,2640.9 C3773.41,2644.54 3774.33,2649 3774.33,2654.26 C3774.33,2661.24 3771.55,2667.27 3765.98,2672.35 C3760.42,2677.42 3753.77,2679.95 3746.04,2679.95 C3739.36,2679.95 3733.56,2678.44 3728.64,2675.41 C3723.73,2672.38 3721.27,2668.17 3721.27,2662.79 C3721.27,2660.07 3722.26,2657.7 3724.24,2655.69 C3726.22,2653.68 3728.58,2652.68 3731.33,2652.68 C3734.09,2652.68 3736.42,2653.67 3738.34,2655.65 C3740.26,2657.63 3741.21,2660.01 3741.21,2662.79 C3741.21,2664.03 3740.19,2665.37 3738.15,2666.83 C3736.11,2668.28 3735.09,2669.62 3735.09,2670.86 C3735.09,2674.57 3738.74,2676.43 3746.04,2676.43 C3753.15,2676.43 3756.71,2669.04 3756.71,2654.26 C3756.71,2650.98 3756.52,2648.1 3756.15,2645.63 C3748.67,2647.17 3739.3,2648.38 3728.04,2649.25 C3726.49,2649.37 3725.72,2648.6 3725.72,2646.93 C3725.72,2645.57 3726.49,2644.82 3728.04,2644.7 C3739.42,2643.77 3748.39,2642.29 3754.94,2640.25 C3753.21,2635.3 3750.24,2632.79 3746.04,2632.73 C3739.67,2632.73 3735.21,2634.03 3732.68,2636.63 C3730.14,2639.23 3728.57,2640.52 3727.95,2640.52 C3726.46,2640.52 3725.72,2639.75 3725.72,2638.21 L3725.72,2606.29 C3725.72,2605.67 3725.94,2605.12 3726.37,2604.62 C3726.87,2604.13 3727.39,2603.88 3727.95,2603.88"/>
<path class="FiguredBass" d="M559.923,1763.53 C562.274,1763.53 564.748,1763.19 567.345,1762.51 L571.52,1761.4 C572.324,1761.4 572.958,1761.71 573.422,1762.32 C573.886,1762.94 573.839,1763.5 573.283,1763.99 L530.143,1814.18 L555.47,1814.18 L555.47,1794.33 C555.47,1792.91 555.857,1791.81 556.63,1791.04 C557.403,1790.26 558.393,1789.65 559.599,1789.18 C560.805,1788.72 562.382,1787.34 564.33,1785.05 C566.278,1782.77 568.149,1779.67 569.943,1775.78 C570.252,1775.16 570.716,1774.85 571.335,1774.85 C572.633,1774.85 573.283,1775.56 573.283,1776.98 L573.283,1814.18 L584.23,1814.18 C585.776,1814.18 586.549,1814.9 586.549,1816.32 C586.549,1817.86 585.776,1818.64 584.23,1818.64 L573.283,1818.64 L573.283,1819.84 C573.283,1823.68 574.303,1827.02 576.344,1829.86 C578.385,1832.71 581.014,1834.13 584.23,1834.13 C585.467,1834.13 586.086,1834.69 586.086,1835.8 C586.086,1837.04 585.467,1837.66 584.23,1837.66 C582.003,1837.66 578.695,1837.33 574.303,1836.68 C569.912,1836.03 566.588,1835.71 564.33,1835.71 C562.073,1835.71 558.748,1836.03 554.357,1836.68 C549.966,1837.33 546.657,1837.66 544.43,1837.66 C543.193,1837.66 542.575,1837.04 542.575,1835.8 C542.575,1834.69 543.193,1834.13 544.43,1834.13 C547.646,1834.13 550.29,1832.71 552.362,1829.86 C554.434,1827.02 555.47,1823.68 555.47,1819.84 L555.47,1818.64 L530.143,1818.64 C528.535,1818.64 527.344,1818.25 526.571,1817.48 C525.798,1816.7 525.412,1815.92 525.412,1815.11 C525.412,1814.8 526.138,1813.74 527.592,1811.91 C529.045,1810.09 530.823,1807.66 532.926,1804.63 C535.029,1801.6 537.117,1798.15 539.189,1794.28 C541.26,1790.42 543.023,1785.78 544.477,1780.37 C545.93,1774.96 546.657,1769.5 546.657,1763.99 C546.657,1762.39 547.337,1761.58 548.698,1761.58 C548.883,1761.58 549.533,1761.74 550.646,1762.05 C551.759,1762.36 553.182,1762.68 554.914,1763.02 C556.645,1763.36 558.315,1763.53 559.923,1763.53"/>
<path class="FiguredBass" d="M572.448,1903.05 C572.448,1904.04 573.004,1905 574.118,1905.93 C575.231,1906.85 576.453,1907.73 577.782,1908.57 C579.112,1909.4 580.334,1910.98 581.447,1913.3 C582.56,1915.62 583.117,1918.54 583.117,1922.07 C583.117,1928.87 580.55,1934.13 575.417,1937.84 C570.283,1941.55 563.789,1943.41 555.934,1943.41 C549.626,1943.41 544.136,1941.83 539.467,1938.67 C534.797,1935.52 532.462,1931.38 532.462,1926.24 C532.462,1923.52 533.452,1921.16 535.431,1919.15 C537.41,1917.14 539.776,1916.13 542.528,1916.13 C545.281,1916.13 547.615,1917.12 549.533,1919.1 C551.45,1921.08 552.409,1923.46 552.409,1926.24 C552.409,1927.48 551.388,1928.83 549.347,1930.28 C547.306,1931.73 546.286,1933.08 546.286,1934.31 C546.286,1936.23 547.229,1937.64 549.115,1938.54 C551.002,1939.43 553.275,1939.88 555.934,1939.88 C559.398,1939.88 561.856,1938.16 563.31,1934.73 C564.763,1931.3 565.49,1927.08 565.49,1922.07 L565.49,1919.66 C565.49,1916.32 565.382,1913.78 565.165,1912.05 C564.949,1910.32 564.268,1908.77 563.124,1907.41 C561.98,1906.05 560.233,1905.37 557.882,1905.37 L545.729,1905.37 C544.307,1905.37 543.595,1904.6 543.595,1903.05 C543.595,1901.63 544.307,1900.92 545.729,1900.92 L557.882,1900.92 C560.418,1900.92 562.397,1899.96 563.82,1898.04 C564.315,1897.36 564.717,1896.25 565.026,1894.7 C565.335,1892.66 565.49,1889.72 565.49,1885.89 L565.49,1884.68 C565.49,1875.47 562.088,1870.86 555.285,1870.86 C549.285,1870.86 546.286,1872.53 546.286,1875.87 C546.286,1876.98 547.198,1878.17 549.023,1879.44 C550.847,1880.71 551.759,1881.9 551.759,1883.01 C551.759,1885.42 550.909,1887.49 549.208,1889.23 C547.507,1890.96 545.435,1891.82 542.992,1891.82 C540.549,1891.82 538.493,1890.96 536.823,1889.23 C535.153,1887.49 534.318,1885.42 534.318,1883.01 C534.318,1878.25 536.39,1874.44 540.534,1871.6 C544.678,1868.75 549.595,1867.33 555.285,1867.33 C562.768,1867.33 568.922,1868.77 573.747,1871.65 C578.571,1874.52 580.983,1878.87 580.983,1884.68 C580.983,1888.82 580.55,1892.04 579.684,1894.33 C578.818,1896.62 577.829,1898.01 576.715,1898.5 C575.602,1899 574.613,1899.57 573.747,1900.22 C572.881,1900.87 572.448,1901.81 572.448,1903.05"/>
<path class="FiguredBass" d="M560.573,1976.61 C555.996,1976.61 552.95,1978.45 551.435,1982.13 C549.919,1985.81 549.162,1991.02 549.162,1997.76 L549.162,2008.71 C552.378,2007.41 555.161,2006.73 557.511,2006.67 C565.552,2006.67 571.876,2008.44 576.483,2012 C581.091,2015.56 583.395,2020.84 583.395,2027.86 C583.395,2034.88 581.06,2040.19 576.391,2043.78 C571.721,2047.36 565.428,2049.16 557.511,2049.16 C549.409,2049.16 543.07,2045.4 538.493,2037.88 C533.916,2030.37 531.627,2021.45 531.627,2011.12 C531.627,2000.85 534.287,1991.95 539.606,1984.4 C544.925,1976.85 551.914,1973.08 560.573,1973.08 C566.263,1973.08 571.18,1974.52 575.324,1977.4 C579.468,1980.27 581.54,1984.06 581.54,1988.76 C581.54,1991.48 580.55,1993.83 578.571,1995.81 C576.592,1997.79 574.226,1998.78 571.474,1998.78 C568.721,1998.78 566.356,1997.79 564.377,1995.81 C562.397,1993.83 561.408,1991.48 561.408,1988.76 C561.408,1986.1 562.397,1983.75 564.377,1981.71 C565.057,1980.91 566.016,1980.23 567.252,1979.67 C566.943,1978.86 566.325,1978.25 565.397,1977.81 C564.036,1977.01 562.428,1976.61 560.573,1976.61 M565.119,2014.55 C564.005,2011.64 561.562,2010.19 557.79,2010.19 C554.017,2010.19 551.682,2011.64 550.785,2014.55 C549.888,2017.46 549.44,2021.88 549.44,2027.82 C549.44,2034.81 549.888,2039.51 550.785,2041.92 C551.682,2044.33 554.017,2045.54 557.79,2045.54 C561.562,2045.54 564.005,2044.08 565.119,2041.18 C566.232,2038.27 566.789,2033.83 566.789,2027.86 C566.789,2021.9 566.232,2017.46 565.119,2014.55"/>
<path class="FiguredBass" d="M3236.95,1763.53 C3239.3,1763.53 3241.77,1763.19 3244.37,1762.51 L3248.54,1761.4 C3249.35,1761.4 3249.98,1761.71 3250.45,1762.32 C3250.91,1762.94 3250.86,1763.5 3250.31,1763.99 L3207.17,1814.18 L3232.49,1814.18 L3232.49,1794.33 C3232.49,1792.91 3232.88,1791.81 3233.65,1791.04 C3234.43,1790.26 3235.42,1789.65 3236.62,1789.18 C3237.83,1788.72 3239.41,1787.34 3241.35,1785.05 C3243.3,1782.77 3245.17,1779.67 3246.97,1775.78 C3247.28,1775.16 3247.74,1774.85 3248.36,1774.85 C3249.66,1774.85 3250.31,1775.56 3250.31,1776.98 L3250.31,1814.18 L3261.25,1814.18 C3262.8,1814.18 3263.57,1814.9 3263.57,1816.32 C3263.57,1817.86 3262.8,1818.64 3261.25,1818.64 L3250.31,1818.64 L3250.31,1819.84 C3250.31,1823.68 3251.33,1827.02 3253.37,1829.86 C3255.41,1832.71 3258.04,1834.13 3261.25,1834.13 C3262.49,1834.13 3263.11,1834.69 3263.11,1835.8 C3263.11,1837.04 3262.49,1837.66 3261.25,1837.66 C3259.03,1837.66 3255.72,1837.33 3251.33,1836.68 C3246.94,1836.03 3243.61,1835.71 3241.35,1835.71 C3239.1,1835.71 3235.77,1836.03 3231.38,1836.68 C3226.99,1837.33 3223.68,1837.66 3221.45,1837.66 C3220.22,1837.66 3219.6,1837.04 3219.6,1835.8 C3219.6,1834.69 3220.22,1834.13 3221.45,1834.13 C3224.67,1834.13 3227.31,1832.71 3229.39,1829.86 C3231.46,1827.02 3232.49,1823.68 3232.49,1819.84 L3232.49,1818.64 L3207.17,1818.64 C3205.56,1818.64 3204.37,1818.25 3203.6,1817.48 C3202.82,1816.7 3202.44,1815.92 3202.44,1815.11 C3202.44,1814.8 3203.16,1813.74 3204.62,1811.91 C3206.07,1810.09 3207.85,1807.66 3209.95,1804.63 C3212.05,1801.6 3214.14,1798.15 3216.21,1794.28 C3218.28,1790.42 3220.05,1785.78 3221.5,1780.37 C3222.95,1774.96 3223.68,1769.5 3223.68,1763.99 C3223.68,1762.39 3224.36,1761.58 3225.72,1761.58 C3225.91,1761.58 3226.56,1761.74 3227.67,1762.05 C3228.78,1762.36 3230.21,1762.68 3231.94,1763.02 C3233.67,1763.36 3235.34,1763.53 3236.95,1763.53"/>
<path class="FiguredBass" d="M3241.77,1943.41 C3235.77,1943.41 3231.41,1941.74 3228.69,1938.4 C3227.7,1937.16 3226.43,1936.02 3224.89,1934.96 C3223.34,1933.91 3221.64,1933.39 3219.78,1933.39 C3217.37,1933.39 3215.21,1934.14 3213.29,1935.66 C3211.37,1937.17 3210.41,1939.2 3210.41,1941.74 C3210.41,1942.85 3209.86,1943.41 3208.74,1943.41 C3207.51,1943.41 3206.89,1942.85 3206.89,1941.74 C3206.89,1937.96 3207.77,1934.52 3209.53,1931.39 C3211.3,1928.27 3213.51,1925.64 3216.17,1923.51 C3218.83,1921.37 3221.7,1919.08 3224.79,1916.64 C3227.89,1914.2 3230.75,1911.83 3233.38,1909.54 C3236,1907.26 3238.2,1904.36 3239.96,1900.87 C3241.73,1897.38 3242.61,1893.56 3242.61,1889.41 C3242.61,1884.22 3241.76,1879.83 3240.06,1876.24 C3238.35,1872.65 3235.68,1870.86 3232.03,1870.86 C3229.93,1870.86 3228.1,1871.37 3226.56,1872.39 C3225.01,1873.41 3224.24,1874.75 3224.24,1876.42 C3224.24,1877.72 3225.12,1879.42 3226.88,1881.53 C3228.64,1883.63 3229.53,1885.39 3229.53,1886.81 C3229.53,1889.78 3228.52,1892.27 3226.51,1894.28 C3224.5,1896.29 3222.07,1897.3 3219.23,1897.3 C3216.26,1897.3 3213.77,1896.26 3211.76,1894.19 C3209.75,1892.12 3208.74,1889.66 3208.74,1886.81 C3208.74,1881.12 3211.02,1876.45 3215.56,1872.81 C3220.11,1869.16 3225.6,1867.33 3232.03,1867.33 C3239.64,1867.33 3246.27,1869.39 3251.93,1873.5 C3257.59,1877.61 3260.42,1882.92 3260.42,1889.41 C3260.42,1893.8 3259.63,1897.61 3258.05,1900.82 C3256.48,1904.04 3254.22,1906.64 3251.28,1908.62 C3248.34,1910.6 3245.41,1912.28 3242.47,1913.67 C3239.53,1915.06 3236.08,1916.56 3232.12,1918.17 C3228.17,1919.78 3224.98,1921.36 3222.57,1922.9 C3223.87,1922.59 3225.2,1922.44 3226.56,1922.44 C3231.13,1922.44 3235.9,1923.92 3240.84,1926.89 C3245.79,1929.86 3249.69,1931.35 3252.53,1931.35 C3254.14,1931.35 3255.46,1931.05 3256.48,1930.46 C3257.5,1929.88 3258.16,1929.23 3258.47,1928.52 C3258.78,1927.8 3259.14,1927.14 3259.54,1926.52 C3259.94,1925.9 3260.39,1925.59 3260.88,1925.59 C3262.12,1925.59 3262.74,1926.21 3262.74,1927.45 C3262.74,1930.11 3260.82,1933.43 3256.99,1937.42 C3253.15,1941.41 3248.08,1943.41 3241.77,1943.41"/>
<path class="FiguredBass" d="M3198.54,2052.22 C3196.93,2051.23 3195.26,2050.04 3193.53,2048.65 C3191.8,2047.25 3189.84,2045.32 3187.64,2042.85 C3185.45,2040.37 3183.51,2037.73 3181.84,2034.92 C3180.17,2032.1 3178.77,2028.72 3177.62,2024.76 C3176.48,2020.8 3175.91,2016.69 3175.91,2012.42 C3175.91,2007.96 3176.48,2003.74 3177.62,1999.75 C3178.77,1995.77 3180.11,1992.46 3181.66,1989.83 C3183.2,1987.2 3185.17,1984.66 3187.55,1982.22 C3189.93,1979.78 3191.89,1977.97 3193.44,1976.79 C3194.99,1975.62 3196.78,1974.38 3198.82,1973.08 L3199.66,1974.57 C3196.93,1976.79 3194.74,1978.8 3193.07,1980.6 C3191.4,1982.39 3189.79,1984.72 3188.24,1987.6 C3186.7,1990.48 3185.59,1993.91 3184.9,1997.9 C3184.22,2001.89 3183.88,2006.63 3183.88,2012.14 C3183.88,2017.89 3184.22,2022.84 3184.9,2026.98 C3185.59,2031.13 3186.7,2034.67 3188.24,2037.61 C3189.79,2040.54 3191.4,2042.94 3193.07,2044.8 C3194.74,2046.65 3196.93,2048.63 3199.66,2050.73 L3198.54,2052.22 M3237.6,1976.61 C3233.02,1976.61 3229.97,1978.45 3228.46,1982.13 C3226.94,1985.81 3226.19,1991.02 3226.19,1997.76 L3226.19,2008.71 C3229.4,2007.41 3232.19,2006.73 3234.54,2006.67 C3242.58,2006.67 3248.9,2008.44 3253.51,2012 C3258.12,2015.56 3260.42,2020.84 3260.42,2027.86 C3260.42,2034.88 3258.08,2040.19 3253.41,2043.78 C3248.75,2047.36 3242.45,2049.16 3234.54,2049.16 C3226.43,2049.16 3220.09,2045.4 3215.52,2037.88 C3210.94,2030.37 3208.65,2021.45 3208.65,2011.12 C3208.65,2000.85 3211.31,1991.95 3216.63,1984.4 C3221.95,1976.85 3228.94,1973.08 3237.6,1973.08 C3243.29,1973.08 3248.2,1974.52 3252.35,1977.4 C3256.49,1980.27 3258.56,1984.06 3258.56,1988.76 C3258.56,1991.48 3257.57,1993.83 3255.6,1995.81 C3253.62,1997.79 3251.25,1998.78 3248.5,1998.78 C3245.75,1998.78 3243.38,1997.79 3241.4,1995.81 C3239.42,1993.83 3238.43,1991.48 3238.43,1988.76 C3238.43,1986.1 3239.42,1983.75 3241.4,1981.71 C3242.08,1980.91 3243.04,1980.23 3244.28,1979.67 C3243.97,1978.86 3243.35,1978.25 3242.42,1977.81 C3241.06,1977.01 3239.45,1976.61 3237.6,1976.61 M3242.14,2014.55 C3241.03,2011.64 3238.59,2010.19 3234.81,2010.19 C3231.04,2010.19 3228.71,2011.64 3227.81,2014.55 C3226.91,2017.46 3226.46,2021.88 3226.46,2027.82 C3226.46,2034.81 3226.91,2039.51 3227.81,2041.92 C3228.71,2044.33 3231.04,2045.54 3234.81,2045.54 C3238.59,2045.54 3241.03,2044.08 3242.14,2041.18 C3243.26,2038.27 3243.81,2033.83 3243.81,2027.86 C3243.81,2021.9 3243.26,2017.46 3242.14,2014.55 M3271.08,1973.08 C3272.69,1974.07 3274.36,1975.26 3276.09,1976.65 C3277.83,1978.05 3279.79,1979.98 3281.99,1982.45 C3284.18,1984.93 3286.11,1987.57 3287.78,1990.38 C3289.45,1993.2 3290.86,1996.58 3292,2000.54 C3293.15,2004.5 3293.72,2008.61 3293.72,2012.88 C3293.72,2017.33 3293.15,2021.56 3292,2025.55 C3290.86,2029.53 3289.52,2032.84 3287.97,2035.47 C3286.42,2038.1 3284.46,2040.64 3282.08,2043.08 C3279.7,2045.52 3277.73,2047.33 3276.19,2048.51 C3274.64,2049.68 3272.85,2050.92 3270.81,2052.22 L3269.97,2050.73 C3272.69,2048.57 3274.89,2046.56 3276.56,2044.7 C3278.23,2042.85 3279.84,2040.48 3281.38,2037.61 C3282.93,2034.73 3284.04,2031.3 3284.72,2027.31 C3285.4,2023.32 3285.74,2018.6 3285.74,2013.16 C3285.74,2005.68 3285.06,1999.43 3283.7,1994.42 C3282.34,1989.41 3280.64,1985.58 3278.6,1982.92 C3276.56,1980.26 3273.68,1977.47 3269.97,1974.57 L3271.08,1973.08 "/>
<polyline class="FretDiagram" stroke="#fc0107" stroke-width="4.76" stroke-linejoin="bevel" points="3133.98,227.452 3347.09,227.452"/>
<polyline class="FretDiagram" stroke="#fc0107" stroke-width="4.76" stroke-linejoin="bevel" points="3136.36,215.547 3136.36,441.751"/>
<polyline class="FretDiagram" stroke="#fc0107" stroke-width="4.76" stroke-linejoin="bevel" points="3178.03,215.547 3178.03,441.751"/>
<polyline class="FretDiagram" stroke="#fc0107" stroke-width="4.76" stroke-linejoin="bevel" points="3219.7,215.547 3219.7,441.751"/>
<polyline class="FretDiagram" stroke="#fc0107" stroke-width="4.76" stroke-linejoin="bevel" points="3261.37,215.547 3261.37,441.751"/>
<polyline class="FretDiagram" stroke="#fc0107" stroke-width="4.76" stroke-linejoin="bevel" points="3303.04,215.547 3303.04,441.751"/>
<polyline class="FretDiagram" stroke="#fc0107" stroke-width="4.76" stroke-linejoin="bevel" points="3344.71,215.547 3344.71,441.751"/>
<polyline class="FretDiagram" stroke="#fc0107" stroke-width="4.76" stroke-linejoin="bevel" points="3136.36,275.074 3344.71,275.074"/>
<polyline class="FretDiagram" stroke="#fc0107" stroke-width="4.76" stroke-linejoin="bevel" points="3136.36,322.696 3344.71,322.696"/>
<polyline class="FretDiagram" stroke="#fc0107" stroke-width="4.76" stroke-linejoin="bevel" points="3136.36,370.318 3344.71,370.318"/>
<polyline class="FretDiagram" stroke="#fc0107" stroke-width="4.76" stroke-linejoin="bevel" points="3136.36,417.94 3344.71,417.94"/>
<path class="FretDiagram" fill="#fc0107" fill-rule="evenodd" d="M3234.28,298.885 C3234.28,306.94 3227.75,313.469 3219.7,313.469 C3211.64,313.469 3205.11,306.94 3205.11,298.885 C3205.11,290.83 3211.64,284.301 3219.7,284.301 C3227.75,284.301 3234.28,290.83 3234.28,298.885"/>
<path class="FretDiagram" fill="#fc0107" fill-rule="evenodd" d="M3275.95,346.507 C3275.95,354.562 3269.42,361.091 3261.37,361.091 C3253.31,361.091 3246.78,354.562 3246.78,346.507 C3246.78,338.453 3253.31,331.923 3261.37,331.923 C3269.42,331.923 3275.95,338.453 3275.95,346.507"/>
<path class="FretDiagram" fill="#fc0107" fill-rule="evenodd" d="M3317.62,251.263 C3317.62,259.318 3311.09,265.847 3303.04,265.847 C3294.98,265.847 3288.45,259.318 3288.45,251.263 C3288.45,243.208 3294.98,236.679 3303.04,236.679 C3311.09,236.679 3317.62,243.208 3317.62,251.263"/>
<path class="FretDiagram" fill="#fc0107" fill-rule="evenodd" d="M3359.29,298.885 C3359.29,306.94 3352.76,313.469 3344.71,313.469 C3336.65,313.469 3330.12,306.94 3330.12,298.885 C3330.12,290.83 3336.65,284.301 3344.71,284.301 C3352.76,284.301 3359.29,290.83 3359.29,298.885"/>
<polyline class="FretDiagram" fill="none" stroke="#fc0107" stroke-width="6.86" stroke-linecap="round" stroke-linejoin="bevel" points="3119.69,163.162 3153.03,196.498"/>
<polyline class="FretDiagram" fill="none" stroke="#fc0107" stroke-width="6.86" stroke-linecap="round" stroke-linejoin="bevel" points="3119.69,196.498 3153.03,163.162"/>
<polyline class="FretDiagram" fill="none" stroke="#fc0107" stroke-width="6.86" stroke-linecap="round" stroke-linejoin="bevel" points="3161.36,163.162 3194.7,196.498"/>
<polyline class="FretDiagram" fill="none" stroke="#fc0107" stroke-width="6.86" stroke-linecap="round" stroke-linejoin="bevel" points="3161.36,196.498 3194.7,163.162"/>
<path class="FretDiagram" fill="#fc0107" d="M3071.64,240.53 C3072.08,224.95 3079.49,217.16 3093.87,217.16 C3100.27,217.16 3105.46,218.996 3109.45,222.67 C3113.44,226.343 3115.44,231.093 3115.44,236.92 C3115.44,245.28 3110.69,252.056 3101.19,257.25 L3091.69,262.38 C3087.57,264.596 3084.62,266.75 3082.85,268.84 C3081.08,270.93 3079.97,273.4 3079.53,276.25 L3114.96,276.25 L3114.96,284.515 L3070.12,284.515 C3070.5,277.105 3071.99,271.389 3074.59,267.367 C3077.18,263.345 3082,259.34 3089.03,255.35 L3097.77,250.41 C3103.85,246.926 3106.89,242.493 3106.89,237.11 C3106.89,233.5 3105.62,230.491 3103.09,228.085 C3100.55,225.678 3097.39,224.475 3093.59,224.475 C3085.16,224.475 3080.63,229.826 3080,240.53 L3071.64,240.53 "/>
<path class="Bracket" transform="matrix(8.6315,0,0,9.74657,76.1283,2366.47)" d="M0.92002,-50 C2.69004,-51.88 6.2,-55.8 6.2,-63 C6.2,-72.1 2.25996,-81.32 2.25996,-86.97 C2.25996,-93.06 5.84004,-98.84 5.95,-99 C6.05996,-99.16 6.05,-99.39 5.94004,-99.46 C5.82998,-99.53 5.62002,-99.47 5.49004,-99.32 C5.35996,-99.17 0,-93.75 0,-85.6 C0,-76.75 3.5,-70.58 3.5,-59.07 C3.5,-56.89 2.55996,-53.36 0.1,-50.33 C-0.0799805,-50.17 -0.1,-49.89 0.0599609,-49.7 L0.0700195,-49.69 L0.1,-49.66 C2.55996,-46.63 3.5,-43.1 3.5,-40.92 C3.5,-29.4 0,-23.24 0,-14.39 C0,-6.25 5.35996,-0.8 5.49004,-0.659961 C5.62002,-0.52002 5.8,-0.42998 5.94004,-0.52002 C6.07998,-0.609961 6.07998,-0.77998 5.95,-0.97998 C5.82002,-1.17998 2.25996,-6.92002 2.25996,-13.01 C2.25996,-18.66 6.2,-27.9 6.2,-37 C6.2,-44.3 2.69004,-48.12 0.92002,-50"/>
</svg>
