<?xml version="1.0" encoding="UTF-8" standalone="no"?>
<svg width="850.394px" height="566.929px" viewBox="0 0 850.394 566.929"
 xmlns="http://www.w3.org/2000/svg" xmlns:xlink="http://www.w3.org/1999/xlink" version="1.2" baseProfile="tiny">
<title>La Mineur (31)</title>
<desc>Generated by MuseScore 3.6.2</desc>
<polyline class="StaffLines" fill="none" stroke="#000000" stroke-width="1.25" stroke-linejoin="bevel" points="29.3071,107.717 836.22,107.717"/>
<polyline class="StaffLines" fill="none" stroke="#000000" stroke-width="1.25" stroke-linejoin="bevel" points="29.3071,119.055 836.22,119.055"/>
<polyline class="StaffLines" fill="none" stroke="#000000" stroke-width="1.25" stroke-linejoin="bevel" points="29.3071,130.394 836.22,130.394"/>
<polyline class="StaffLines" fill="none" stroke="#000000" stroke-width="1.25" stroke-linejoin="bevel" points="29.3071,141.732 836.22,141.732"/>
<polyline class="StaffLines" fill="none" stroke="#000000" stroke-width="1.25" stroke-linejoin="bevel" points="29.3071,153.071 836.22,153.071"/>
<polyline class="StaffLines" fill="none" stroke="#000000" stroke-width="1.25" stroke-linejoin="bevel" points="29.3071,260.787 836.22,260.787"/>
<polyline class="StaffLines" fill="none" stroke="#000000" stroke-width="1.25" stroke-linejoin="bevel" points="29.3071,272.126 836.22,272.126"/>
<polyline class="StaffLines" fill="none" stroke="#000000" stroke-width="1.25" stroke-linejoin="bevel" points="29.3071,283.465 836.22,283.465"/>
<polyline class="StaffLines" fill="none" stroke="#000000" stroke-width="1.25" stroke-linejoin="bevel" points="29.3071,294.803 836.22,294.803"/>
<polyline class="StaffLines" fill="none" stroke="#000000" stroke-width="1.25" stroke-linejoin="bevel" points="29.3071,306.142 836.22,306.142"/>
<polyline class="StaffLines" fill="none" stroke="#000000" stroke-width="1.25" stroke-linejoin="bevel" points="29.3071,413.858 836.22,413.858"/>
<polyline class="StaffLines" fill="none" stroke="#000000" stroke-width="1.25" stroke-linejoin="bevel" points="29.3071,425.197 836.22,425.197"/>
<polyline class="StaffLines" fill="none" stroke="#000000" stroke-width="1.25" stroke-linejoin="bevel" points="29.3071,436.535 836.22,436.535"/>
<polyline class="StaffLines" fill="none" stroke="#000000" stroke-width="1.25" stroke-linejoin="bevel" points="29.3071,447.874 836.22,447.874"/>
<polyline class="StaffLines" fill="none" stroke="#000000" stroke-width="1.25" stroke-linejoin="bevel" points="29.3071,459.213 836.22,459.213"/>
<polyline class="BarLine" fill="none" stroke="#000000" stroke-width="2.04" stroke-linejoin="bevel" points="30.3276,260.164 30.3276,306.765"/>
<polyline class="BarLine" fill="none" stroke="#000000" stroke-width="2.04" stroke-linejoin="bevel" points="171.867,260.164 171.867,306.765"/>
<polyline class="BarLine" fill="none" stroke="#000000" stroke-width="2.04" stroke-linejoin="bevel" points="265.606,260.164 265.606,306.765"/>
<polyline class="BarLine" fill="none" stroke="#000000" stroke-width="2.04" stroke-linejoin="bevel" points="359.344,260.164 359.344,306.765"/>
<polyline class="BarLine" fill="none" stroke="#000000" stroke-width="2.04" stroke-linejoin="bevel" points="452.865,260.164 452.865,306.765"/>
<polyline class="BarLine" fill="none" stroke="#000000" stroke-width="2.04" stroke-linejoin="bevel" points="546.386,260.164 546.386,306.765"/>
<polyline class="BarLine" fill="none" stroke="#000000" stroke-width="2.04" stroke-linejoin="bevel" points="644.033,260.164 644.033,306.765"/>
<polyline class="BarLine" fill="none" stroke="#000000" stroke-width="2.04" stroke-linejoin="bevel" points="741.679,260.164 741.679,306.765"/>
<polyline class="BarLine" fill="none" stroke="#000000" stroke-width="2.04" stroke-linejoin="bevel" points="835.2,260.164 835.2,306.765"/>
<polyline class="BarLine" fill="none" stroke="#000000" stroke-width="2.04" stroke-linejoin="bevel" points="30.3276,413.235 30.3276,459.836"/>
<polyline class="BarLine" fill="none" stroke="#000000" stroke-width="2.04" stroke-linejoin="bevel" points="170.963,413.235 170.963,459.836"/>
<polyline class="BarLine" fill="none" stroke="#000000" stroke-width="2.04" stroke-linejoin="bevel" points="265.607,413.235 265.607,459.836"/>
<polyline class="BarLine" fill="none" stroke="#000000" stroke-width="2.04" stroke-linejoin="bevel" points="360.252,413.235 360.252,459.836"/>
<polyline class="BarLine" fill="none" stroke="#000000" stroke-width="2.04" stroke-linejoin="bevel" points="454.084,413.235 454.084,459.836"/>
<polyline class="BarLine" fill="none" stroke="#000000" stroke-width="2.04" stroke-linejoin="bevel" points="547.915,413.235 547.915,459.836"/>
<polyline class="BarLine" fill="none" stroke="#000000" stroke-width="2.04" stroke-linejoin="bevel" points="641.965,413.235 641.965,459.836"/>
<polyline class="BarLine" fill="none" stroke="#000000" stroke-width="2.04" stroke-linejoin="bevel" points="736.014,413.235 736.014,459.836"/>
<polyline class="BarLine" fill="none" stroke="#000000" stroke-width="2.04" stroke-linejoin="bevel" points="825.165,413.235 825.165,459.836"/>
<polyline class="BarLine" fill="none" stroke="#000000" stroke-width="6.24" stroke-linejoin="bevel" points="833.102,413.235 833.102,459.836"/>
<polyline class="BarLine" fill="none" stroke="#000000" stroke-width="2.04" stroke-linejoin="bevel" points="30.3276,107.093 30.3276,153.694"/>
<polyline class="BarLine" fill="none" stroke="#000000" stroke-width="2.04" stroke-linejoin="bevel" points="143.81,107.093 143.81,153.694"/>
<polyline class="BarLine" fill="none" stroke="#000000" stroke-width="2.04" stroke-linejoin="bevel" points="210.581,107.093 210.581,153.694"/>
<polyline class="BarLine" fill="none" stroke="#000000" stroke-width="2.04" stroke-linejoin="bevel" points="277.352,107.093 277.352,153.694"/>
<polyline class="BarLine" fill="none" stroke="#000000" stroke-width="2.04" stroke-linejoin="bevel" points="344.123,107.093 344.123,153.694"/>
<polyline class="BarLine" fill="none" stroke="#000000" stroke-width="2.04" stroke-linejoin="bevel" points="415.021,107.093 415.021,153.694"/>
<polyline class="BarLine" fill="none" stroke="#000000" stroke-width="2.04" stroke-linejoin="bevel" points="481.792,107.093 481.792,153.694"/>
<polyline class="BarLine" fill="none" stroke="#000000" stroke-width="2.04" stroke-linejoin="bevel" points="548.563,107.093 548.563,153.694"/>
<polyline class="BarLine" fill="none" stroke="#000000" stroke-width="2.04" stroke-linejoin="bevel" points="615.334,107.093 615.334,153.694"/>
<polyline class="BarLine" fill="none" stroke="#000000" stroke-width="2.04" stroke-linejoin="bevel" points="682.105,107.093 682.105,153.694"/>
<polyline class="BarLine" fill="none" stroke="#000000" stroke-width="2.04" stroke-linejoin="bevel" points="763.075,107.093 763.075,153.694"/>
<polyline class="BarLine" fill="none" stroke="#000000" stroke-width="2.04" stroke-linejoin="bevel" points="825.165,107.093 825.165,153.694"/>
<polyline class="BarLine" fill="none" stroke="#000000" stroke-width="6.24" stroke-linejoin="bevel" points="833.102,107.093 833.102,153.694"/>
<path class="Accidental" transform="matrix(0.453543,0,0,0.453543,558.36,272.126)" d="M23.3,-10.6 C23.9,-10.7 24.4,-11.4 24.4,-12 L24.4,-17.9 C24.4,-18.7 23.8,-19.3 23,-19.3 L22.8,-19.3 L19.5,-18.6 L19.5,-33.5 L16.7,-33.5 L16.7,-18 L7.8,-16.2 L7.8,-30.3 L5,-30.3 L5,-15.6 L1.1,-14.8 C0.5,-14.7 0,-14 0,-13.4 L0,-13.2 L0,-7.4 L0,-7.6 C0,-6.8 0.6,-6.2 1.4,-6.2 L1.7,-6.2 L5,-6.9 L5,9.6 L1.1,10.4 C0.5,10.5 0,11.2 0,11.8 L0,17.6 C0,18.4 0.6,19 1.4,19 L1.7,19 L5,18.3 L5,33.2 L7.8,33.2 L7.8,17.7 L16.7,15.9 L16.7,30 L19.5,30 L19.5,15.3 L23.3,14.6 C23.9,14.5 24.4,13.8 24.4,13.2 L24.4,7.3 C24.4,6.5 23.8,5.9 23,5.9 L22.8,5.9 L19.5,6.6 L19.5,-9.9 L23.3,-10.6 M7.8,9.1 L7.8,-7.5 L16.7,-9.3 L16.7,7.2 L7.8,9.1 "/>
<path class="Accidental" transform="matrix(0.453543,0,0,0.453543,656.007,266.457)" d="M23.3,-10.6 C23.9,-10.7 24.4,-11.4 24.4,-12 L24.4,-17.9 C24.4,-18.7 23.8,-19.3 23,-19.3 L22.8,-19.3 L19.5,-18.6 L19.5,-33.5 L16.7,-33.5 L16.7,-18 L7.8,-16.2 L7.8,-30.3 L5,-30.3 L5,-15.6 L1.1,-14.8 C0.5,-14.7 0,-14 0,-13.4 L0,-13.2 L0,-7.4 L0,-7.6 C0,-6.8 0.6,-6.2 1.4,-6.2 L1.7,-6.2 L5,-6.9 L5,9.6 L1.1,10.4 C0.5,10.5 0,11.2 0,11.8 L0,17.6 C0,18.4 0.6,19 1.4,19 L1.7,19 L5,18.3 L5,33.2 L7.8,33.2 L7.8,17.7 L16.7,15.9 L16.7,30 L19.5,30 L19.5,15.3 L23.3,14.6 C23.9,14.5 24.4,13.8 24.4,13.2 L24.4,7.3 C24.4,6.5 23.8,5.9 23,5.9 L22.8,5.9 L19.5,6.6 L19.5,-9.9 L23.3,-10.6 M7.8,9.1 L7.8,-7.5 L16.7,-9.3 L16.7,7.2 L7.8,9.1 "/>
<path class="Accidental" transform="matrix(0.453543,0,0,0.453543,182.937,419.528)" d="M16.6,-18.3 C16.4,-18.5 16.1,-18.6 15.8,-18.6 C15.7,-18.6 15.5,-18.5 15.4,-18.5 L2.8,-15 L2.8,-32.5 L0,-32.5 L0,17 C0,17.8 0.6,18.3 1.4,18.3 L1.8,18.3 L14.4,14.8 L14.4,32.3 L17.1,32.3 L17.1,-17.2 C17.1,-17.6 16.9,-18.1 16.6,-18.3 M14.4,6.5 L2.8,9.7 L2.8,-6.7 L14.4,-10 L14.4,6.5 "/>
<path class="Accidental" transform="matrix(0.453543,0,0,0.453543,277.582,425.197)" d="M16.6,-18.3 C16.4,-18.5 16.1,-18.6 15.8,-18.6 C15.7,-18.6 15.5,-18.5 15.4,-18.5 L2.8,-15 L2.8,-32.5 L0,-32.5 L0,17 C0,17.8 0.6,18.3 1.4,18.3 L1.8,18.3 L14.4,14.8 L14.4,32.3 L17.1,32.3 L17.1,-17.2 C17.1,-17.6 16.9,-18.1 16.6,-18.3 M14.4,6.5 L2.8,9.7 L2.8,-6.7 L14.4,-10 L14.4,6.5 "/>
<path class="Accidental" transform="matrix(0.453543,0,0,0.453543,356.098,113.386)" d="M23.3,-10.6 C23.9,-10.7 24.4,-11.4 24.4,-12 L24.4,-17.9 C24.4,-18.7 23.8,-19.3 23,-19.3 L22.8,-19.3 L19.5,-18.6 L19.5,-33.5 L16.7,-33.5 L16.7,-18 L7.8,-16.2 L7.8,-30.3 L5,-30.3 L5,-15.6 L1.1,-14.8 C0.5,-14.7 0,-14 0,-13.4 L0,-13.2 L0,-7.4 L0,-7.6 C0,-6.8 0.6,-6.2 1.4,-6.2 L1.7,-6.2 L5,-6.9 L5,9.6 L1.1,10.4 C0.5,10.5 0,11.2 0,11.8 L0,17.6 C0,18.4 0.6,19 1.4,19 L1.7,19 L5,18.3 L5,33.2 L7.8,33.2 L7.8,17.7 L16.7,15.9 L16.7,30 L19.5,30 L19.5,15.3 L23.3,14.6 C23.9,14.5 24.4,13.8 24.4,13.2 L24.4,7.3 C24.4,6.5 23.8,5.9 23,5.9 L22.8,5.9 L19.5,6.6 L19.5,-9.9 L23.3,-10.6 M7.8,9.1 L7.8,-7.5 L16.7,-9.3 L16.7,7.2 L7.8,9.1 "/>
<path class="Note" transform="matrix(0.453543,0,0,0.453543,98.7881,300.472)" d="M18.7,-13.6 C4.9,-13.6 0,-6.6 0,-0.1 C0,6.4 4.9,13.4 18.7,13.4 C32.5,13.4 37.3,6.4 37.3,-0.1 C37.3,-6.6 32.5,-13.6 18.7,-13.6 M10.4,-4.5 C10.3,-4.9 10.3,-5.3 10.3,-5.7 C10.3,-6.5 10.5,-7.3 10.9,-8 C11.6,-9 12.8,-9.7 14.3,-10 C15.6,-10.3 16.3,-10.5 18.9,-10.5 L19,-10.5 C23,-10.5 24.3,-6.8 25.4,-3 L25.7,-2 C26.5,0.6 26.9,2.8 26.9,4.5 C26.9,5.7 26.7,6.8 26.3,7.6 C25.7,8.7 24.7,9.4 23,9.8 C22.1,10 20.6,10.1 20.6,10.1 C20.1,10.1 19.7,10.2 19.3,10.2 C16.1,10.2 14.1,9 12.7,4.7 C11.5,1 11.3,-0.1 10.4,-4.5"/>
<path class="Note" transform="matrix(0.453543,0,0,0.453543,187.628,294.803)" d="M18.7,-13.6 C4.9,-13.6 0,-6.6 0,-0.1 C0,6.4 4.9,13.4 18.7,13.4 C32.5,13.4 37.3,6.4 37.3,-0.1 C37.3,-6.6 32.5,-13.6 18.7,-13.6 M10.4,-4.5 C10.3,-4.9 10.3,-5.3 10.3,-5.7 C10.3,-6.5 10.5,-7.3 10.9,-8 C11.6,-9 12.8,-9.7 14.3,-10 C15.6,-10.3 16.3,-10.5 18.9,-10.5 L19,-10.5 C23,-10.5 24.3,-6.8 25.4,-3 L25.7,-2 C26.5,0.6 26.9,2.8 26.9,4.5 C26.9,5.7 26.7,6.8 26.3,7.6 C25.7,8.7 24.7,9.4 23,9.8 C22.1,10 20.6,10.1 20.6,10.1 C20.1,10.1 19.7,10.2 19.3,10.2 C16.1,10.2 14.1,9 12.7,4.7 C11.5,1 11.3,-0.1 10.4,-4.5"/>
<path class="Note" transform="matrix(0.453543,0,0,0.453543,281.367,289.134)" d="M18.7,-13.6 C4.9,-13.6 0,-6.6 0,-0.1 C0,6.4 4.9,13.4 18.7,13.4 C32.5,13.4 37.3,6.4 37.3,-0.1 C37.3,-6.6 32.5,-13.6 18.7,-13.6 M10.4,-4.5 C10.3,-4.9 10.3,-5.3 10.3,-5.7 C10.3,-6.5 10.5,-7.3 10.9,-8 C11.6,-9 12.8,-9.7 14.3,-10 C15.6,-10.3 16.3,-10.5 18.9,-10.5 L19,-10.5 C23,-10.5 24.3,-6.8 25.4,-3 L25.7,-2 C26.5,0.6 26.9,2.8 26.9,4.5 C26.9,5.7 26.7,6.8 26.3,7.6 C25.7,8.7 24.7,9.4 23,9.8 C22.1,10 20.6,10.1 20.6,10.1 C20.1,10.1 19.7,10.2 19.3,10.2 C16.1,10.2 14.1,9 12.7,4.7 C11.5,1 11.3,-0.1 10.4,-4.5"/>
<path class="Note" transform="matrix(0.453543,0,0,0.453543,376.195,283.465)" d="M18.7,-13.6 C4.9,-13.6 0,-6.6 0,-0.1 C0,6.4 4.9,13.4 18.7,13.4 C32.5,13.4 37.3,6.4 37.3,-0.1 C37.3,-6.6 32.5,-13.6 18.7,-13.6 M10.4,-4.5 C10.3,-4.9 10.3,-5.3 10.3,-5.7 C10.3,-6.5 10.5,-7.3 10.9,-8 C11.6,-9 12.8,-9.7 14.3,-10 C15.6,-10.3 16.3,-10.5 18.9,-10.5 L19,-10.5 C23,-10.5 24.3,-6.8 25.4,-3 L25.7,-2 C26.5,0.6 26.9,2.8 26.9,4.5 C26.9,5.7 26.7,6.8 26.3,7.6 C25.7,8.7 24.7,9.4 23,9.8 C22.1,10 20.6,10.1 20.6,10.1 C20.1,10.1 19.7,10.2 19.3,10.2 C16.1,10.2 14.1,9 12.7,4.7 C11.5,1 11.3,-0.1 10.4,-4.5"/>
<path class="Note" transform="matrix(0.453543,0,0,0.453543,469.715,277.795)" d="M18.7,-13.6 C4.9,-13.6 0,-6.6 0,-0.1 C0,6.4 4.9,13.4 18.7,13.4 C32.5,13.4 37.3,6.4 37.3,-0.1 C37.3,-6.6 32.5,-13.6 18.7,-13.6 M10.4,-4.5 C10.3,-4.9 10.3,-5.3 10.3,-5.7 C10.3,-6.5 10.5,-7.3 10.9,-8 C11.6,-9 12.8,-9.7 14.3,-10 C15.6,-10.3 16.3,-10.5 18.9,-10.5 L19,-10.5 C23,-10.5 24.3,-6.8 25.4,-3 L25.7,-2 C26.5,0.6 26.9,2.8 26.9,4.5 C26.9,5.7 26.7,6.8 26.3,7.6 C25.7,8.7 24.7,9.4 23,9.8 C22.1,10 20.6,10.1 20.6,10.1 C20.1,10.1 19.7,10.2 19.3,10.2 C16.1,10.2 14.1,9 12.7,4.7 C11.5,1 11.3,-0.1 10.4,-4.5"/>
<path class="Note" transform="matrix(0.453543,0,0,0.453543,572.261,272.126)" d="M18.7,-13.6 C4.9,-13.6 0,-6.6 0,-0.1 C0,6.4 4.9,13.4 18.7,13.4 C32.5,13.4 37.3,6.4 37.3,-0.1 C37.3,-6.6 32.5,-13.6 18.7,-13.6 M10.4,-4.5 C10.3,-4.9 10.3,-5.3 10.3,-5.7 C10.3,-6.5 10.5,-7.3 10.9,-8 C11.6,-9 12.8,-9.7 14.3,-10 C15.6,-10.3 16.3,-10.5 18.9,-10.5 L19,-10.5 C23,-10.5 24.3,-6.8 25.4,-3 L25.7,-2 C26.5,0.6 26.9,2.8 26.9,4.5 C26.9,5.7 26.7,6.8 26.3,7.6 C25.7,8.7 24.7,9.4 23,9.8 C22.1,10 20.6,10.1 20.6,10.1 C20.1,10.1 19.7,10.2 19.3,10.2 C16.1,10.2 14.1,9 12.7,4.7 C11.5,1 11.3,-0.1 10.4,-4.5"/>
<path class="Note" transform="matrix(0.453543,0,0,0.453543,669.908,266.457)" d="M18.7,-13.6 C4.9,-13.6 0,-6.6 0,-0.1 C0,6.4 4.9,13.4 18.7,13.4 C32.5,13.4 37.3,6.4 37.3,-0.1 C37.3,-6.6 32.5,-13.6 18.7,-13.6 M10.4,-4.5 C10.3,-4.9 10.3,-5.3 10.3,-5.7 C10.3,-6.5 10.5,-7.3 10.9,-8 C11.6,-9 12.8,-9.7 14.3,-10 C15.6,-10.3 16.3,-10.5 18.9,-10.5 L19,-10.5 C23,-10.5 24.3,-6.8 25.4,-3 L25.7,-2 C26.5,0.6 26.9,2.8 26.9,4.5 C26.9,5.7 26.7,6.8 26.3,7.6 C25.7,8.7 24.7,9.4 23,9.8 C22.1,10 20.6,10.1 20.6,10.1 C20.1,10.1 19.7,10.2 19.3,10.2 C16.1,10.2 14.1,9 12.7,4.7 C11.5,1 11.3,-0.1 10.4,-4.5"/>
<path class="Note" transform="matrix(0.453543,0,0,0.453543,758.53,260.787)" d="M18.7,-13.6 C4.9,-13.6 0,-6.6 0,-0.1 C0,6.4 4.9,13.4 18.7,13.4 C32.5,13.4 37.3,6.4 37.3,-0.1 C37.3,-6.6 32.5,-13.6 18.7,-13.6 M10.4,-4.5 C10.3,-4.9 10.3,-5.3 10.3,-5.7 C10.3,-6.5 10.5,-7.3 10.9,-8 C11.6,-9 12.8,-9.7 14.3,-10 C15.6,-10.3 16.3,-10.5 18.9,-10.5 L19,-10.5 C23,-10.5 24.3,-6.8 25.4,-3 L25.7,-2 C26.5,0.6 26.9,2.8 26.9,4.5 C26.9,5.7 26.7,6.8 26.3,7.6 C25.7,8.7 24.7,9.4 23,9.8 C22.1,10 20.6,10.1 20.6,10.1 C20.1,10.1 19.7,10.2 19.3,10.2 C16.1,10.2 14.1,9 12.7,4.7 C11.5,1 11.3,-0.1 10.4,-4.5"/>
<path class="Note" transform="matrix(0.453543,0,0,0.453543,98.8799,413.858)" d="M18.7,-13.6 C4.9,-13.6 0,-6.6 0,-0.1 C0,6.4 4.9,13.4 18.7,13.4 C32.5,13.4 37.3,6.4 37.3,-0.1 C37.3,-6.6 32.5,-13.6 18.7,-13.6 M10.4,-4.5 C10.3,-4.9 10.3,-5.3 10.3,-5.7 C10.3,-6.5 10.5,-7.3 10.9,-8 C11.6,-9 12.8,-9.7 14.3,-10 C15.6,-10.3 16.3,-10.5 18.9,-10.5 L19,-10.5 C23,-10.5 24.3,-6.8 25.4,-3 L25.7,-2 C26.5,0.6 26.9,2.8 26.9,4.5 C26.9,5.7 26.7,6.8 26.3,7.6 C25.7,8.7 24.7,9.4 23,9.8 C22.1,10 20.6,10.1 20.6,10.1 C20.1,10.1 19.7,10.2 19.3,10.2 C16.1,10.2 14.1,9 12.7,4.7 C11.5,1 11.3,-0.1 10.4,-4.5"/>
<path class="Note" transform="matrix(0.453543,0,0,0.453543,193.525,419.528)" d="M18.7,-13.6 C4.9,-13.6 0,-6.6 0,-0.1 C0,6.4 4.9,13.4 18.7,13.4 C32.5,13.4 37.3,6.4 37.3,-0.1 C37.3,-6.6 32.5,-13.6 18.7,-13.6 M10.4,-4.5 C10.3,-4.9 10.3,-5.3 10.3,-5.7 C10.3,-6.5 10.5,-7.3 10.9,-8 C11.6,-9 12.8,-9.7 14.3,-10 C15.6,-10.3 16.3,-10.5 18.9,-10.5 L19,-10.5 C23,-10.5 24.3,-6.8 25.4,-3 L25.7,-2 C26.5,0.6 26.9,2.8 26.9,4.5 C26.9,5.7 26.7,6.8 26.3,7.6 C25.7,8.7 24.7,9.4 23,9.8 C22.1,10 20.6,10.1 20.6,10.1 C20.1,10.1 19.7,10.2 19.3,10.2 C16.1,10.2 14.1,9 12.7,4.7 C11.5,1 11.3,-0.1 10.4,-4.5"/>
<path class="Note" transform="matrix(0.453543,0,0,0.453543,288.169,425.197)" d="M18.7,-13.6 C4.9,-13.6 0,-6.6 0,-0.1 C0,6.4 4.9,13.4 18.7,13.4 C32.5,13.4 37.3,6.4 37.3,-0.1 C37.3,-6.6 32.5,-13.6 18.7,-13.6 M10.4,-4.5 C10.3,-4.9 10.3,-5.3 10.3,-5.7 C10.3,-6.5 10.5,-7.3 10.9,-8 C11.6,-9 12.8,-9.7 14.3,-10 C15.6,-10.3 16.3,-10.5 18.9,-10.5 L19,-10.5 C23,-10.5 24.3,-6.8 25.4,-3 L25.7,-2 C26.5,0.6 26.9,2.8 26.9,4.5 C26.9,5.7 26.7,6.8 26.3,7.6 C25.7,8.7 24.7,9.4 23,9.8 C22.1,10 20.6,10.1 20.6,10.1 C20.1,10.1 19.7,10.2 19.3,10.2 C16.1,10.2 14.1,9 12.7,4.7 C11.5,1 11.3,-0.1 10.4,-4.5"/>
<path class="Note" transform="matrix(0.453543,0,0,0.453543,377.102,430.866)" d="M18.7,-13.6 C4.9,-13.6 0,-6.6 0,-0.1 C0,6.4 4.9,13.4 18.7,13.4 C32.5,13.4 37.3,6.4 37.3,-0.1 C37.3,-6.6 32.5,-13.6 18.7,-13.6 M10.4,-4.5 C10.3,-4.9 10.3,-5.3 10.3,-5.7 C10.3,-6.5 10.5,-7.3 10.9,-8 C11.6,-9 12.8,-9.7 14.3,-10 C15.6,-10.3 16.3,-10.5 18.9,-10.5 L19,-10.5 C23,-10.5 24.3,-6.8 25.4,-3 L25.7,-2 C26.5,0.6 26.9,2.8 26.9,4.5 C26.9,5.7 26.7,6.8 26.3,7.6 C25.7,8.7 24.7,9.4 23,9.8 C22.1,10 20.6,10.1 20.6,10.1 C20.1,10.1 19.7,10.2 19.3,10.2 C16.1,10.2 14.1,9 12.7,4.7 C11.5,1 11.3,-0.1 10.4,-4.5"/>
<path class="Note" transform="matrix(0.453543,0,0,0.453543,470.934,436.535)" d="M18.7,-13.6 C4.9,-13.6 0,-6.6 0,-0.1 C0,6.4 4.9,13.4 18.7,13.4 C32.5,13.4 37.3,6.4 37.3,-0.1 C37.3,-6.6 32.5,-13.6 18.7,-13.6 M10.4,-4.5 C10.3,-4.9 10.3,-5.3 10.3,-5.7 C10.3,-6.5 10.5,-7.3 10.9,-8 C11.6,-9 12.8,-9.7 14.3,-10 C15.6,-10.3 16.3,-10.5 18.9,-10.5 L19,-10.5 C23,-10.5 24.3,-6.8 25.4,-3 L25.7,-2 C26.5,0.6 26.9,2.8 26.9,4.5 C26.9,5.7 26.7,6.8 26.3,7.6 C25.7,8.7 24.7,9.4 23,9.8 C22.1,10 20.6,10.1 20.6,10.1 C20.1,10.1 19.7,10.2 19.3,10.2 C16.1,10.2 14.1,9 12.7,4.7 C11.5,1 11.3,-0.1 10.4,-4.5"/>
<path class="Note" transform="matrix(0.453543,0,0,0.453543,563.676,442.205)" d="M18.7,-13.6 C4.9,-13.6 0,-6.6 0,-0.1 C0,6.4 4.9,13.4 18.7,13.4 C32.5,13.4 37.3,6.4 37.3,-0.1 C37.3,-6.6 32.5,-13.6 18.7,-13.6 M10.4,-4.5 C10.3,-4.9 10.3,-5.3 10.3,-5.7 C10.3,-6.5 10.5,-7.3 10.9,-8 C11.6,-9 12.8,-9.7 14.3,-10 C15.6,-10.3 16.3,-10.5 18.9,-10.5 L19,-10.5 C23,-10.5 24.3,-6.8 25.4,-3 L25.7,-2 C26.5,0.6 26.9,2.8 26.9,4.5 C26.9,5.7 26.7,6.8 26.3,7.6 C25.7,8.7 24.7,9.4 23,9.8 C22.1,10 20.6,10.1 20.6,10.1 C20.1,10.1 19.7,10.2 19.3,10.2 C16.1,10.2 14.1,9 12.7,4.7 C11.5,1 11.3,-0.1 10.4,-4.5"/>
<path class="Note" transform="matrix(0.453543,0,0,0.453543,657.726,447.874)" d="M18.7,-13.6 C4.9,-13.6 0,-6.6 0,-0.1 C0,6.4 4.9,13.4 18.7,13.4 C32.5,13.4 37.3,6.4 37.3,-0.1 C37.3,-6.6 32.5,-13.6 18.7,-13.6 M10.4,-4.5 C10.3,-4.9 10.3,-5.3 10.3,-5.7 C10.3,-6.5 10.5,-7.3 10.9,-8 C11.6,-9 12.8,-9.7 14.3,-10 C15.6,-10.3 16.3,-10.5 18.9,-10.5 L19,-10.5 C23,-10.5 24.3,-6.8 25.4,-3 L25.7,-2 C26.5,0.6 26.9,2.8 26.9,4.5 C26.9,5.7 26.7,6.8 26.3,7.6 C25.7,8.7 24.7,9.4 23,9.8 C22.1,10 20.6,10.1 20.6,10.1 C20.1,10.1 19.7,10.2 19.3,10.2 C16.1,10.2 14.1,9 12.7,4.7 C11.5,1 11.3,-0.1 10.4,-4.5"/>
<path class="Note" transform="matrix(0.453543,0,0,0.453543,751.775,453.543)" d="M18.7,-13.6 C4.9,-13.6 0,-6.6 0,-0.1 C0,6.4 4.9,13.4 18.7,13.4 C32.5,13.4 37.3,6.4 37.3,-0.1 C37.3,-6.6 32.5,-13.6 18.7,-13.6 M10.4,-4.5 C10.3,-4.9 10.3,-5.3 10.3,-5.7 C10.3,-6.5 10.5,-7.3 10.9,-8 C11.6,-9 12.8,-9.7 14.3,-10 C15.6,-10.3 16.3,-10.5 18.9,-10.5 L19,-10.5 C23,-10.5 24.3,-6.8 25.4,-3 L25.7,-2 C26.5,0.6 26.9,2.8 26.9,4.5 C26.9,5.7 26.7,6.8 26.3,7.6 C25.7,8.7 24.7,9.4 23,9.8 C22.1,10 20.6,10.1 20.6,10.1 C20.1,10.1 19.7,10.2 19.3,10.2 C16.1,10.2 14.1,9 12.7,4.7 C11.5,1 11.3,-0.1 10.4,-4.5"/>
<path class="Note" transform="matrix(0.453543,0,0,0.453543,98.7881,107.717)" d="M18.7,-13.6 C4.9,-13.6 0,-6.6 0,-0.1 C0,6.4 4.9,13.4 18.7,13.4 C32.5,13.4 37.3,6.4 37.3,-0.1 C37.3,-6.6 32.5,-13.6 18.7,-13.6 M10.4,-4.5 C10.3,-4.9 10.3,-5.3 10.3,-5.7 C10.3,-6.5 10.5,-7.3 10.9,-8 C11.6,-9 12.8,-9.7 14.3,-10 C15.6,-10.3 16.3,-10.5 18.9,-10.5 L19,-10.5 C23,-10.5 24.3,-6.8 25.4,-3 L25.7,-2 C26.5,0.6 26.9,2.8 26.9,4.5 C26.9,5.7 26.7,6.8 26.3,7.6 C25.7,8.7 24.7,9.4 23,9.8 C22.1,10 20.6,10.1 20.6,10.1 C20.1,10.1 19.7,10.2 19.3,10.2 C16.1,10.2 14.1,9 12.7,4.7 C11.5,1 11.3,-0.1 10.4,-4.5"/>
<path class="Note" transform="matrix(0.453543,0,0,0.453543,160.661,107.717)" d="M18.7,-13.6 C4.9,-13.6 0,-6.6 0,-0.1 C0,6.4 4.9,13.4 18.7,13.4 C32.5,13.4 37.3,6.4 37.3,-0.1 C37.3,-6.6 32.5,-13.6 18.7,-13.6 M10.4,-4.5 C10.3,-4.9 10.3,-5.3 10.3,-5.7 C10.3,-6.5 10.5,-7.3 10.9,-8 C11.6,-9 12.8,-9.7 14.3,-10 C15.6,-10.3 16.3,-10.5 18.9,-10.5 L19,-10.5 C23,-10.5 24.3,-6.8 25.4,-3 L25.7,-2 C26.5,0.6 26.9,2.8 26.9,4.5 C26.9,5.7 26.7,6.8 26.3,7.6 C25.7,8.7 24.7,9.4 23,9.8 C22.1,10 20.6,10.1 20.6,10.1 C20.1,10.1 19.7,10.2 19.3,10.2 C16.1,10.2 14.1,9 12.7,4.7 C11.5,1 11.3,-0.1 10.4,-4.5"/>
<path class="Note" transform="matrix(0.453543,0,0,0.453543,227.432,107.717)" d="M18.7,-13.6 C4.9,-13.6 0,-6.6 0,-0.1 C0,6.4 4.9,13.4 18.7,13.4 C32.5,13.4 37.3,6.4 37.3,-0.1 C37.3,-6.6 32.5,-13.6 18.7,-13.6 M10.4,-4.5 C10.3,-4.9 10.3,-5.3 10.3,-5.7 C10.3,-6.5 10.5,-7.3 10.9,-8 C11.6,-9 12.8,-9.7 14.3,-10 C15.6,-10.3 16.3,-10.5 18.9,-10.5 L19,-10.5 C23,-10.5 24.3,-6.8 25.4,-3 L25.7,-2 C26.5,0.6 26.9,2.8 26.9,4.5 C26.9,5.7 26.7,6.8 26.3,7.6 C25.7,8.7 24.7,9.4 23,9.8 C22.1,10 20.6,10.1 20.6,10.1 C20.1,10.1 19.7,10.2 19.3,10.2 C16.1,10.2 14.1,9 12.7,4.7 C11.5,1 11.3,-0.1 10.4,-4.5"/>
<path class="Note" transform="matrix(0.453543,0,0,0.453543,294.203,107.717)" d="M18.7,-13.6 C4.9,-13.6 0,-6.6 0,-0.1 C0,6.4 4.9,13.4 18.7,13.4 C32.5,13.4 37.3,6.4 37.3,-0.1 C37.3,-6.6 32.5,-13.6 18.7,-13.6 M10.4,-4.5 C10.3,-4.9 10.3,-5.3 10.3,-5.7 C10.3,-6.5 10.5,-7.3 10.9,-8 C11.6,-9 12.8,-9.7 14.3,-10 C15.6,-10.3 16.3,-10.5 18.9,-10.5 L19,-10.5 C23,-10.5 24.3,-6.8 25.4,-3 L25.7,-2 C26.5,0.6 26.9,2.8 26.9,4.5 C26.9,5.7 26.7,6.8 26.3,7.6 C25.7,8.7 24.7,9.4 23,9.8 C22.1,10 20.6,10.1 20.6,10.1 C20.1,10.1 19.7,10.2 19.3,10.2 C16.1,10.2 14.1,9 12.7,4.7 C11.5,1 11.3,-0.1 10.4,-4.5"/>
<path class="Note" transform="matrix(0.453543,0,0,0.453543,369.998,113.386)" d="M18.7,-13.6 C4.9,-13.6 0,-6.6 0,-0.1 C0,6.4 4.9,13.4 18.7,13.4 C32.5,13.4 37.3,6.4 37.3,-0.1 C37.3,-6.6 32.5,-13.6 18.7,-13.6 M10.4,-4.5 C10.3,-4.9 10.3,-5.3 10.3,-5.7 C10.3,-6.5 10.5,-7.3 10.9,-8 C11.6,-9 12.8,-9.7 14.3,-10 C15.6,-10.3 16.3,-10.5 18.9,-10.5 L19,-10.5 C23,-10.5 24.3,-6.8 25.4,-3 L25.7,-2 C26.5,0.6 26.9,2.8 26.9,4.5 C26.9,5.7 26.7,6.8 26.3,7.6 C25.7,8.7 24.7,9.4 23,9.8 C22.1,10 20.6,10.1 20.6,10.1 C20.1,10.1 19.7,10.2 19.3,10.2 C16.1,10.2 14.1,9 12.7,4.7 C11.5,1 11.3,-0.1 10.4,-4.5"/>
<path class="Note" transform="matrix(0.453543,0,0,0.453543,431.871,107.717)" d="M18.7,-13.6 C4.9,-13.6 0,-6.6 0,-0.1 C0,6.4 4.9,13.4 18.7,13.4 C32.5,13.4 37.3,6.4 37.3,-0.1 C37.3,-6.6 32.5,-13.6 18.7,-13.6 M10.4,-4.5 C10.3,-4.9 10.3,-5.3 10.3,-5.7 C10.3,-6.5 10.5,-7.3 10.9,-8 C11.6,-9 12.8,-9.7 14.3,-10 C15.6,-10.3 16.3,-10.5 18.9,-10.5 L19,-10.5 C23,-10.5 24.3,-6.8 25.4,-3 L25.7,-2 C26.5,0.6 26.9,2.8 26.9,4.5 C26.9,5.7 26.7,6.8 26.3,7.6 C25.7,8.7 24.7,9.4 23,9.8 C22.1,10 20.6,10.1 20.6,10.1 C20.1,10.1 19.7,10.2 19.3,10.2 C16.1,10.2 14.1,9 12.7,4.7 C11.5,1 11.3,-0.1 10.4,-4.5"/>
<path class="Note" transform="matrix(0.453543,0,0,0.453543,498.642,124.724)" d="M18.7,-13.6 C4.9,-13.6 0,-6.6 0,-0.1 C0,6.4 4.9,13.4 18.7,13.4 C32.5,13.4 37.3,6.4 37.3,-0.1 C37.3,-6.6 32.5,-13.6 18.7,-13.6 M10.4,-4.5 C10.3,-4.9 10.3,-5.3 10.3,-5.7 C10.3,-6.5 10.5,-7.3 10.9,-8 C11.6,-9 12.8,-9.7 14.3,-10 C15.6,-10.3 16.3,-10.5 18.9,-10.5 L19,-10.5 C23,-10.5 24.3,-6.8 25.4,-3 L25.7,-2 C26.5,0.6 26.9,2.8 26.9,4.5 C26.9,5.7 26.7,6.8 26.3,7.6 C25.7,8.7 24.7,9.4 23,9.8 C22.1,10 20.6,10.1 20.6,10.1 C20.1,10.1 19.7,10.2 19.3,10.2 C16.1,10.2 14.1,9 12.7,4.7 C11.5,1 11.3,-0.1 10.4,-4.5"/>
<path class="Note" transform="matrix(0.453543,0,0,0.453543,565.413,124.724)" d="M18.7,-13.6 C4.9,-13.6 0,-6.6 0,-0.1 C0,6.4 4.9,13.4 18.7,13.4 C32.5,13.4 37.3,6.4 37.3,-0.1 C37.3,-6.6 32.5,-13.6 18.7,-13.6 M10.4,-4.5 C10.3,-4.9 10.3,-5.3 10.3,-5.7 C10.3,-6.5 10.5,-7.3 10.9,-8 C11.6,-9 12.8,-9.7 14.3,-10 C15.6,-10.3 16.3,-10.5 18.9,-10.5 L19,-10.5 C23,-10.5 24.3,-6.8 25.4,-3 L25.7,-2 C26.5,0.6 26.9,2.8 26.9,4.5 C26.9,5.7 26.7,6.8 26.3,7.6 C25.7,8.7 24.7,9.4 23,9.8 C22.1,10 20.6,10.1 20.6,10.1 C20.1,10.1 19.7,10.2 19.3,10.2 C16.1,10.2 14.1,9 12.7,4.7 C11.5,1 11.3,-0.1 10.4,-4.5"/>
<path class="Note" transform="matrix(0.453543,0,0,0.453543,632.184,124.724)" d="M18.7,-13.6 C4.9,-13.6 0,-6.6 0,-0.1 C0,6.4 4.9,13.4 18.7,13.4 C32.5,13.4 37.3,6.4 37.3,-0.1 C37.3,-6.6 32.5,-13.6 18.7,-13.6 M10.4,-4.5 C10.3,-4.9 10.3,-5.3 10.3,-5.7 C10.3,-6.5 10.5,-7.3 10.9,-8 C11.6,-9 12.8,-9.7 14.3,-10 C15.6,-10.3 16.3,-10.5 18.9,-10.5 L19,-10.5 C23,-10.5 24.3,-6.8 25.4,-3 L25.7,-2 C26.5,0.6 26.9,2.8 26.9,4.5 C26.9,5.7 26.7,6.8 26.3,7.6 C25.7,8.7 24.7,9.4 23,9.8 C22.1,10 20.6,10.1 20.6,10.1 C20.1,10.1 19.7,10.2 19.3,10.2 C16.1,10.2 14.1,9 12.7,4.7 C11.5,1 11.3,-0.1 10.4,-4.5"/>
<path class="Note" transform="matrix(0.453543,0,0,0.453543,698.955,124.724)" d="M18.7,-13.6 C4.9,-13.6 0,-6.6 0,-0.1 C0,6.4 4.9,13.4 18.7,13.4 C32.5,13.4 37.3,6.4 37.3,-0.1 C37.3,-6.6 32.5,-13.6 18.7,-13.6 M10.4,-4.5 C10.3,-4.9 10.3,-5.3 10.3,-5.7 C10.3,-6.5 10.5,-7.3 10.9,-8 C11.6,-9 12.8,-9.7 14.3,-10 C15.6,-10.3 16.3,-10.5 18.9,-10.5 L19,-10.5 C23,-10.5 24.3,-6.8 25.4,-3 L25.7,-2 C26.5,0.6 26.9,2.8 26.9,4.5 C26.9,5.7 26.7,6.8 26.3,7.6 C25.7,8.7 24.7,9.4 23,9.8 C22.1,10 20.6,10.1 20.6,10.1 C20.1,10.1 19.7,10.2 19.3,10.2 C16.1,10.2 14.1,9 12.7,4.7 C11.5,1 11.3,-0.1 10.4,-4.5"/>
<path class="Note" transform="matrix(0.453543,0,0,0.453543,778.836,147.402)" d="M18.7,-13.6 C4.9,-13.6 0,-6.6 0,-0.1 C0,6.4 4.9,13.4 18.7,13.4 C32.5,13.4 37.3,6.4 37.3,-0.1 C37.3,-6.6 32.5,-13.6 18.7,-13.6 M10.4,-4.5 C10.3,-4.9 10.3,-5.3 10.3,-5.7 C10.3,-6.5 10.5,-7.3 10.9,-8 C11.6,-9 12.8,-9.7 14.3,-10 C15.6,-10.3 16.3,-10.5 18.9,-10.5 L19,-10.5 C23,-10.5 24.3,-6.8 25.4,-3 L25.7,-2 C26.5,0.6 26.9,2.8 26.9,4.5 C26.9,5.7 26.7,6.8 26.3,7.6 C25.7,8.7 24.7,9.4 23,9.8 C22.1,10 20.6,10.1 20.6,10.1 C20.1,10.1 19.7,10.2 19.3,10.2 C16.1,10.2 14.1,9 12.7,4.7 C11.5,1 11.3,-0.1 10.4,-4.5"/>
<path class="Clef" transform="matrix(0.453543,0,0,0.453543,40.3271,272.126)" d="M25.4,-25.1 C17.8,-25.1 11.7,-20.7 11.6,-20.7 C5.8,-16.4 3.5,-11.3 2.6,-7.8 C2.1,-6 1.9,-4.2 1.9,-2.5 C1.9,-0.1 2.3,2.1 3.2,4 C4.4,6.7 6.7,8.6 9.7,9.6 C10.9,10 12.2,10.2 13.5,10.2 C15.7,10.2 18,9.6 19.9,8.5 C23,6.8 24.9,3.2 24.9,-0.7 C24.9,-4.2 23.1,-7.4 20.1,-9.3 C18,-10.7 16,-11.1 14.3,-11.1 C13.1,-11.1 12,-10.9 11.1,-10.6 C10.1,-10.2 8.4,-9.2 7.6,-8.5 C7.9,-10.4 9.1,-13.3 10.2,-14.9 C11.3,-16.5 13.5,-18.5 15.2,-19.4 C17.7,-20.8 20.9,-21.4 24.4,-21.4 C34.6,-21.4 39.6,-13.2 39.6,3.6 C39.6,12.9 36.1,21.8 33.1,27.7 C29.8,34.3 25.4,40.6 21.5,44.1 C11.1,53.6 1.3,58.1 1.2,58.1 C1.2,58.1 -0.3,59 0.1,60.5 C0.4,61.5 1.3,61.7 1.9,61.7 C2,61.7 2.3,61.6 2.4,61.6 C2.5,61.6 13.9,56.9 23,49.8 C28.1,46.1 32.7,42.1 36.7,37.8 C40.3,33.9 43.4,29.7 45.9,25.5 C50.3,18 52.8,10.2 52.8,3.5 C52.8,-4.8 50.6,-11.7 46.5,-16.6 C41.8,-22.2 34.7,-25.1 25.4,-25.1 M56.8,-12.4 C56.8,-9.6 59,-7.4 61.6,-7.4 C64.2,-7.4 66.4,-9.6 66.4,-12.4 C66.4,-15.2 64.2,-17.5 61.6,-17.5 C59,-17.5 56.8,-15.2 56.8,-12.4 M56.8,12.3 C56.8,15.1 59,17.4 61.6,17.4 C64.2,17.4 66.4,15.1 66.4,12.3 C66.4,9.5 64.2,7.2 61.6,7.2 C59,7.2 56.8,9.5 56.8,12.3"/>
<path class="Clef" transform="matrix(0.453543,0,0,0.453543,40.4189,425.197)" d="M25.4,-25.1 C17.8,-25.1 11.7,-20.7 11.6,-20.7 C5.8,-16.4 3.5,-11.3 2.6,-7.8 C2.1,-6 1.9,-4.2 1.9,-2.5 C1.9,-0.1 2.3,2.1 3.2,4 C4.4,6.7 6.7,8.6 9.7,9.6 C10.9,10 12.2,10.2 13.5,10.2 C15.7,10.2 18,9.6 19.9,8.5 C23,6.8 24.9,3.2 24.9,-0.7 C24.9,-4.2 23.1,-7.4 20.1,-9.3 C18,-10.7 16,-11.1 14.3,-11.1 C13.1,-11.1 12,-10.9 11.1,-10.6 C10.1,-10.2 8.4,-9.2 7.6,-8.5 C7.9,-10.4 9.1,-13.3 10.2,-14.9 C11.3,-16.5 13.5,-18.5 15.2,-19.4 C17.7,-20.8 20.9,-21.4 24.4,-21.4 C34.6,-21.4 39.6,-13.2 39.6,3.6 C39.6,12.9 36.1,21.8 33.1,27.7 C29.8,34.3 25.4,40.6 21.5,44.1 C11.1,53.6 1.3,58.1 1.2,58.1 C1.2,58.1 -0.3,59 0.1,60.5 C0.4,61.5 1.3,61.7 1.9,61.7 C2,61.7 2.3,61.6 2.4,61.6 C2.5,61.6 13.9,56.9 23,49.8 C28.1,46.1 32.7,42.1 36.7,37.8 C40.3,33.9 43.4,29.7 45.9,25.5 C50.3,18 52.8,10.2 52.8,3.5 C52.8,-4.8 50.6,-11.7 46.5,-16.6 C41.8,-22.2 34.7,-25.1 25.4,-25.1 M56.8,-12.4 C56.8,-9.6 59,-7.4 61.6,-7.4 C64.2,-7.4 66.4,-9.6 66.4,-12.4 C66.4,-15.2 64.2,-17.5 61.6,-17.5 C59,-17.5 56.8,-15.2 56.8,-12.4 M56.8,12.3 C56.8,15.1 59,17.4 61.6,17.4 C64.2,17.4 66.4,15.1 66.4,12.3 C66.4,9.5 64.2,7.2 61.6,7.2 C59,7.2 56.8,9.5 56.8,12.3"/>
<path class="Clef" transform="matrix(0.453543,0,0,0.453543,40.3271,119.055)" d="M25.4,-25.1 C17.8,-25.1 11.7,-20.7 11.6,-20.7 C5.8,-16.4 3.5,-11.3 2.6,-7.8 C2.1,-6 1.9,-4.2 1.9,-2.5 C1.9,-0.1 2.3,2.1 3.2,4 C4.4,6.7 6.7,8.6 9.7,9.6 C10.9,10 12.2,10.2 13.5,10.2 C15.7,10.2 18,9.6 19.9,8.5 C23,6.8 24.9,3.2 24.9,-0.7 C24.9,-4.2 23.1,-7.4 20.1,-9.3 C18,-10.7 16,-11.1 14.3,-11.1 C13.1,-11.1 12,-10.9 11.1,-10.6 C10.1,-10.2 8.4,-9.2 7.6,-8.5 C7.9,-10.4 9.1,-13.3 10.2,-14.9 C11.3,-16.5 13.5,-18.5 15.2,-19.4 C17.7,-20.8 20.9,-21.4 24.4,-21.4 C34.6,-21.4 39.6,-13.2 39.6,3.6 C39.6,12.9 36.1,21.8 33.1,27.7 C29.8,34.3 25.4,40.6 21.5,44.1 C11.1,53.6 1.3,58.1 1.2,58.1 C1.2,58.1 -0.3,59 0.1,60.5 C0.4,61.5 1.3,61.7 1.9,61.7 C2,61.7 2.3,61.6 2.4,61.6 C2.5,61.6 13.9,56.9 23,49.8 C28.1,46.1 32.7,42.1 36.7,37.8 C40.3,33.9 43.4,29.7 45.9,25.5 C50.3,18 52.8,10.2 52.8,3.5 C52.8,-4.8 50.6,-11.7 46.5,-16.6 C41.8,-22.2 34.7,-25.1 25.4,-25.1 M56.8,-12.4 C56.8,-9.6 59,-7.4 61.6,-7.4 C64.2,-7.4 66.4,-9.6 66.4,-12.4 C66.4,-15.2 64.2,-17.5 61.6,-17.5 C59,-17.5 56.8,-15.2 56.8,-12.4 M56.8,12.3 C56.8,15.1 59,17.4 61.6,17.4 C64.2,17.4 66.4,15.1 66.4,12.3 C66.4,9.5 64.2,7.2 61.6,7.2 C59,7.2 56.8,9.5 56.8,12.3"/>
<path class="FiguredBass" d="M169.65,178.799 C168.782,178.799 168.205,179.147 167.918,179.845 C167.631,180.542 167.488,181.529 167.488,182.807 L167.488,184.881 C168.097,184.635 168.624,184.506 169.07,184.494 C170.593,184.494 171.791,184.831 172.664,185.505 C173.537,186.179 173.974,187.181 173.974,188.511 C173.974,189.841 173.531,190.846 172.647,191.525 C171.762,192.205 170.57,192.545 169.07,192.545 C167.534,192.545 166.333,191.833 165.466,190.409 C164.599,188.985 164.165,187.295 164.165,185.338 C164.165,183.393 164.669,181.705 165.677,180.275 C166.685,178.846 168.009,178.131 169.65,178.131 C170.728,178.131 171.659,178.403 172.445,178.948 C173.23,179.493 173.622,180.211 173.622,181.102 C173.622,181.617 173.435,182.062 173.06,182.437 C172.685,182.812 172.237,183 171.715,183 C171.194,183 170.745,182.812 170.37,182.437 C169.995,182.062 169.808,181.617 169.808,181.102 C169.808,180.598 169.995,180.152 170.37,179.766 C170.499,179.613 170.681,179.484 170.915,179.379 C170.857,179.227 170.739,179.109 170.564,179.027 C170.306,178.875 170.001,178.799 169.65,178.799 M170.511,185.988 C170.3,185.437 169.837,185.162 169.122,185.162 C168.407,185.162 167.965,185.437 167.795,185.988 C167.625,186.539 167.54,187.377 167.54,188.502 C167.54,189.826 167.625,190.717 167.795,191.174 C167.965,191.631 168.407,191.859 169.122,191.859 C169.837,191.859 170.3,191.584 170.511,191.033 C170.722,190.482 170.827,189.642 170.827,188.511 C170.827,187.38 170.722,186.539 170.511,185.988"/>
<path class="FiguredBass" d="M169.527,198.531 C169.972,198.531 170.441,198.467 170.933,198.338 L171.724,198.127 C171.876,198.127 171.996,198.186 172.084,198.303 C172.172,198.42 172.163,198.525 172.058,198.619 L163.884,208.129 L168.683,208.129 L168.683,204.367 C168.683,204.098 168.756,203.89 168.903,203.743 C169.049,203.597 169.237,203.479 169.465,203.392 C169.694,203.304 169.992,203.043 170.362,202.609 C170.731,202.176 171.085,201.59 171.425,200.852 C171.484,200.734 171.572,200.676 171.689,200.676 C171.935,200.676 172.058,200.811 172.058,201.08 L172.058,208.129 L174.132,208.129 C174.425,208.129 174.572,208.264 174.572,208.533 C174.572,208.826 174.425,208.973 174.132,208.973 L172.058,208.973 L172.058,209.201 C172.058,209.928 172.251,210.561 172.638,211.1 C173.025,211.639 173.523,211.908 174.132,211.908 C174.366,211.908 174.484,212.014 174.484,212.225 C174.484,212.459 174.366,212.576 174.132,212.576 C173.71,212.576 173.083,212.515 172.251,212.392 C171.419,212.269 170.789,212.207 170.362,212.207 C169.934,212.207 169.304,212.269 168.472,212.392 C167.64,212.515 167.013,212.576 166.591,212.576 C166.357,212.576 166.239,212.459 166.239,212.225 C166.239,212.014 166.357,211.908 166.591,211.908 C167.2,211.908 167.701,211.639 168.094,211.1 C168.487,210.561 168.683,209.928 168.683,209.201 L168.683,208.973 L163.884,208.973 C163.579,208.973 163.354,208.899 163.207,208.753 C163.061,208.606 162.988,208.457 162.988,208.305 C162.988,208.246 163.125,208.044 163.401,207.698 C163.676,207.353 164.013,206.893 164.411,206.318 C164.81,205.744 165.205,205.091 165.598,204.358 C165.99,203.626 166.324,202.747 166.6,201.722 C166.875,200.696 167.013,199.662 167.013,198.619 C167.013,198.314 167.142,198.162 167.4,198.162 C167.435,198.162 167.558,198.191 167.769,198.25 C167.98,198.309 168.249,198.37 168.577,198.435 C168.905,198.499 169.222,198.531 169.527,198.531"/>
<path class="FiguredBass" d="M238.671,184.898 C238.671,185.086 238.776,185.268 238.987,185.443 C239.198,185.619 239.429,185.786 239.681,185.944 C239.933,186.103 240.165,186.401 240.376,186.841 C240.587,187.28 240.692,187.834 240.692,188.502 C240.692,189.791 240.206,190.787 239.233,191.49 C238.261,192.193 237.03,192.545 235.542,192.545 C234.346,192.545 233.306,192.246 232.422,191.648 C231.537,191.051 231.095,190.266 231.095,189.293 C231.095,188.777 231.282,188.329 231.657,187.948 C232.032,187.567 232.48,187.377 233.002,187.377 C233.523,187.377 233.966,187.564 234.329,187.939 C234.692,188.314 234.874,188.766 234.874,189.293 C234.874,189.527 234.68,189.782 234.294,190.058 C233.907,190.333 233.714,190.588 233.714,190.822 C233.714,191.186 233.892,191.452 234.25,191.622 C234.607,191.792 235.038,191.877 235.542,191.877 C236.198,191.877 236.664,191.552 236.939,190.901 C237.215,190.251 237.352,189.451 237.352,188.502 L237.352,188.045 C237.352,187.412 237.332,186.932 237.291,186.604 C237.25,186.275 237.121,185.982 236.904,185.725 C236.687,185.467 236.356,185.338 235.911,185.338 L233.608,185.338 C233.339,185.338 233.204,185.191 233.204,184.898 C233.204,184.629 233.339,184.494 233.608,184.494 L235.911,184.494 C236.391,184.494 236.766,184.312 237.036,183.949 C237.13,183.82 237.206,183.609 237.264,183.316 C237.323,182.93 237.352,182.373 237.352,181.646 L237.352,181.418 C237.352,179.672 236.708,178.799 235.419,178.799 C234.282,178.799 233.714,179.115 233.714,179.748 C233.714,179.959 233.886,180.185 234.232,180.425 C234.578,180.665 234.751,180.891 234.751,181.102 C234.751,181.559 234.59,181.951 234.267,182.279 C233.945,182.607 233.553,182.771 233.09,182.771 C232.627,182.771 232.237,182.607 231.921,182.279 C231.604,181.951 231.446,181.559 231.446,181.102 C231.446,180.199 231.839,179.479 232.624,178.939 C233.409,178.4 234.341,178.131 235.419,178.131 C236.837,178.131 238.003,178.403 238.917,178.948 C239.831,179.493 240.288,180.316 240.288,181.418 C240.288,182.203 240.206,182.812 240.042,183.246 C239.878,183.68 239.69,183.943 239.479,184.037 C239.268,184.131 239.081,184.239 238.917,184.362 C238.753,184.485 238.671,184.664 238.671,184.898"/>
<path class="FiguredBass" d="M303.983,192.545 C302.846,192.545 302.02,192.229 301.504,191.596 C301.317,191.361 301.076,191.145 300.784,190.945 C300.491,190.746 300.168,190.646 299.817,190.646 C299.36,190.646 298.95,190.79 298.586,191.077 C298.223,191.364 298.041,191.748 298.041,192.229 C298.041,192.439 297.936,192.545 297.725,192.545 C297.491,192.545 297.373,192.439 297.373,192.229 C297.373,191.514 297.54,190.86 297.874,190.269 C298.208,189.677 298.627,189.179 299.131,188.774 C299.635,188.37 300.18,187.937 300.766,187.474 C301.352,187.011 301.894,186.562 302.392,186.129 C302.89,185.695 303.306,185.147 303.64,184.485 C303.974,183.823 304.141,183.1 304.141,182.314 C304.141,181.33 303.98,180.498 303.658,179.818 C303.335,179.139 302.828,178.799 302.137,178.799 C301.739,178.799 301.393,178.895 301.1,179.089 C300.807,179.282 300.66,179.537 300.66,179.854 C300.66,180.1 300.827,180.422 301.161,180.82 C301.495,181.219 301.662,181.553 301.662,181.822 C301.662,182.385 301.472,182.856 301.091,183.237 C300.71,183.618 300.25,183.809 299.711,183.809 C299.149,183.809 298.677,183.612 298.296,183.22 C297.915,182.827 297.725,182.361 297.725,181.822 C297.725,180.744 298.156,179.859 299.017,179.168 C299.878,178.477 300.918,178.131 302.137,178.131 C303.578,178.131 304.835,178.52 305.908,179.3 C306.98,180.079 307.516,181.084 307.516,182.314 C307.516,183.146 307.367,183.867 307.068,184.477 C306.769,185.086 306.341,185.578 305.784,185.953 C305.228,186.328 304.671,186.647 304.115,186.911 C303.558,187.175 302.905,187.459 302.155,187.764 C301.405,188.068 300.801,188.367 300.344,188.66 C300.59,188.602 300.842,188.572 301.1,188.572 C301.967,188.572 302.869,188.854 303.807,189.416 C304.744,189.979 305.483,190.26 306.022,190.26 C306.326,190.26 306.576,190.204 306.769,190.093 C306.962,189.981 307.088,189.858 307.147,189.724 C307.205,189.589 307.273,189.463 307.349,189.346 C307.425,189.229 307.51,189.17 307.604,189.17 C307.838,189.17 307.955,189.287 307.955,189.521 C307.955,190.025 307.592,190.655 306.866,191.411 C306.139,192.167 305.178,192.545 303.983,192.545"/>
<path class="FiguredBass" d="M378.988,178.799 C378.12,178.799 377.543,179.147 377.256,179.845 C376.969,180.542 376.825,181.529 376.825,182.807 L376.825,184.881 C377.435,184.635 377.962,184.506 378.407,184.494 C379.931,184.494 381.129,184.831 382.002,185.505 C382.875,186.179 383.312,187.181 383.312,188.511 C383.312,189.841 382.869,190.846 381.985,191.525 C381.1,192.205 379.907,192.545 378.407,192.545 C376.872,192.545 375.671,191.833 374.804,190.409 C373.937,188.985 373.503,187.295 373.503,185.338 C373.503,183.393 374.007,181.705 375.015,180.275 C376.023,178.846 377.347,178.131 378.988,178.131 C380.066,178.131 380.997,178.403 381.782,178.948 C382.568,179.493 382.96,180.211 382.96,181.102 C382.96,181.617 382.773,182.062 382.398,182.437 C382.023,182.812 381.574,183 381.053,183 C380.532,183 380.083,182.812 379.708,182.437 C379.333,182.062 379.146,181.617 379.146,181.102 C379.146,180.598 379.333,180.152 379.708,179.766 C379.837,179.613 380.019,179.484 380.253,179.379 C380.195,179.227 380.077,179.109 379.902,179.027 C379.644,178.875 379.339,178.799 378.988,178.799 M379.849,185.988 C379.638,185.437 379.175,185.162 378.46,185.162 C377.745,185.162 377.303,185.437 377.133,185.988 C376.963,186.539 376.878,187.377 376.878,188.502 C376.878,189.826 376.963,190.717 377.133,191.174 C377.303,191.631 377.745,191.859 378.46,191.859 C379.175,191.859 379.638,191.584 379.849,191.033 C380.06,190.482 380.165,189.642 380.165,188.511 C380.165,187.38 380.06,186.539 379.849,185.988"/>
<path class="FiguredBass" d="M374.699,198.162 L375.542,198.285 C375.765,198.32 376.04,198.355 376.368,198.391 C377.177,198.484 377.956,198.531 378.706,198.531 C379.456,198.531 380.247,198.484 381.079,198.391 C381.407,198.355 381.695,198.32 381.941,198.285 L382.802,198.162 C382.978,198.162 383.113,198.221 383.206,198.338 C383.277,198.432 383.265,198.525 383.171,198.619 C381.343,200.412 378.818,201.309 375.595,201.309 C375.466,201.309 375.352,201.355 375.252,201.449 C375.153,201.543 375.103,201.66 375.103,201.801 L375.103,204.033 C375.935,203.213 376.943,202.803 378.126,202.803 C379.779,202.803 381.068,203.189 381.993,203.963 C383.001,203.201 383.529,202.229 383.575,201.045 C383.587,200.67 383.71,200.365 383.945,200.131 C384.202,199.896 384.513,199.779 384.876,199.779 C385.24,199.779 385.547,199.902 385.799,200.148 C386.051,200.395 386.177,200.693 386.177,201.045 C386.177,202.861 385.105,204.238 382.96,205.176 C383.312,205.867 383.488,206.711 383.488,207.707 C383.488,209.031 382.96,210.174 381.906,211.135 C380.851,212.096 379.591,212.576 378.126,212.576 C376.861,212.576 375.762,212.289 374.83,211.715 C373.899,211.141 373.433,210.344 373.433,209.324 C373.433,208.809 373.62,208.36 373.995,207.979 C374.37,207.599 374.819,207.408 375.34,207.408 C375.862,207.408 376.304,207.596 376.667,207.971 C377.031,208.346 377.212,208.797 377.212,209.324 C377.212,209.559 377.019,209.813 376.632,210.089 C376.245,210.364 376.052,210.619 376.052,210.854 C376.052,211.557 376.743,211.908 378.126,211.908 C379.474,211.908 380.148,210.508 380.148,207.707 C380.148,207.086 380.113,206.541 380.042,206.072 C378.624,206.365 376.849,206.594 374.716,206.758 C374.423,206.781 374.277,206.635 374.277,206.318 C374.277,206.061 374.423,205.92 374.716,205.896 C376.872,205.721 378.572,205.439 379.814,205.053 C379.486,204.115 378.923,203.641 378.126,203.629 C376.919,203.629 376.075,203.875 375.595,204.367 C375.115,204.859 374.816,205.105 374.699,205.105 C374.417,205.105 374.277,204.959 374.277,204.666 L374.277,198.619 C374.277,198.502 374.318,198.396 374.4,198.303 C374.493,198.209 374.593,198.162 374.699,198.162"/>
<path class="FiguredBass" d="M505.961,190.717 L505.961,194.391 C505.961,194.754 505.777,194.936 505.407,194.936 C505.038,194.936 504.854,194.754 504.854,194.391 L504.854,191.191 L504.291,191.42 C504.233,191.443 504.156,191.455 504.063,191.455 C503.91,191.455 503.776,191.396 503.658,191.279 C503.541,191.162 503.483,191.027 503.483,190.875 L503.483,189.082 C503.483,188.824 503.606,188.643 503.852,188.537 L504.854,188.115 L504.854,184.424 L504.291,184.652 C504.256,184.664 504.209,184.67 504.151,184.67 C504.127,184.67 504.098,184.67 504.063,184.67 C503.887,184.646 503.746,184.582 503.641,184.477 C503.535,184.371 503.483,184.248 503.483,184.107 L503.483,182.314 C503.483,182.068 503.606,181.893 503.852,181.787 L504.854,181.365 L504.854,177.621 C504.854,177.258 505.038,177.076 505.407,177.076 C505.777,177.076 505.961,177.258 505.961,177.621 L505.961,180.908 L508.229,179.959 L508.229,176.285 C508.229,175.922 508.41,175.74 508.774,175.74 C509.137,175.74 509.319,175.922 509.319,176.285 L509.319,179.52 L509.934,179.256 C509.992,179.232 510.057,179.221 510.127,179.221 C510.279,179.221 510.417,179.279 510.54,179.396 C510.663,179.514 510.725,179.648 510.725,179.801 L510.725,181.594 C510.725,181.852 510.596,182.033 510.338,182.139 L509.319,182.561 L509.319,186.27 L509.934,186.023 C509.969,186.012 510.01,186.006 510.057,186.006 C510.08,186.006 510.104,186.006 510.127,186.006 C510.326,186.041 510.476,186.105 510.575,186.199 C510.675,186.293 510.725,186.416 510.725,186.568 L510.725,188.361 C510.725,188.607 510.596,188.783 510.338,188.889 L509.319,189.311 L509.319,193.055 C509.319,193.418 509.137,193.6 508.774,193.6 C508.41,193.6 508.229,193.418 508.229,193.055 L508.229,189.768 L505.961,190.717 M505.961,187.658 L508.229,186.727 L508.229,183.018 L505.961,183.967 L505.961,187.658 "/>
<path class="FiguredBass" d="M574.402,178.799 C573.535,178.799 572.958,179.147 572.671,179.845 C572.384,180.542 572.24,181.529 572.24,182.807 L572.24,184.881 C572.849,184.635 573.377,184.506 573.822,184.494 C575.345,184.494 576.544,184.831 577.417,185.505 C578.29,186.179 578.726,187.181 578.726,188.511 C578.726,189.841 578.284,190.846 577.399,191.525 C576.514,192.205 575.322,192.545 573.822,192.545 C572.287,192.545 571.086,191.833 570.219,190.409 C569.351,188.985 568.918,187.295 568.918,185.338 C568.918,183.393 569.422,181.705 570.429,180.275 C571.437,178.846 572.761,178.131 574.402,178.131 C575.48,178.131 576.412,178.403 577.197,178.948 C577.982,179.493 578.375,180.211 578.375,181.102 C578.375,181.617 578.187,182.062 577.812,182.437 C577.437,182.812 576.989,183 576.468,183 C575.946,183 575.498,182.812 575.123,182.437 C574.748,182.062 574.56,181.617 574.56,181.102 C574.56,180.598 574.748,180.152 575.123,179.766 C575.252,179.613 575.433,179.484 575.668,179.379 C575.609,179.227 575.492,179.109 575.316,179.027 C575.058,178.875 574.754,178.799 574.402,178.799 M575.263,185.988 C575.052,185.437 574.59,185.162 573.875,185.162 C573.16,185.162 572.718,185.437 572.548,185.988 C572.378,186.539 572.293,187.377 572.293,188.502 C572.293,189.826 572.378,190.717 572.548,191.174 C572.718,191.631 573.16,191.859 573.875,191.859 C574.59,191.859 575.052,191.584 575.263,191.033 C575.474,190.482 575.58,189.642 575.58,188.511 C575.58,187.38 575.474,186.539 575.263,185.988"/>
<path class="FiguredBass" d="M574.279,198.531 C574.724,198.531 575.193,198.467 575.685,198.338 L576.476,198.127 C576.629,198.127 576.749,198.186 576.837,198.303 C576.925,198.42 576.916,198.525 576.81,198.619 L568.636,208.129 L573.435,208.129 L573.435,204.367 C573.435,204.098 573.509,203.89 573.655,203.743 C573.802,203.597 573.989,203.479 574.218,203.392 C574.446,203.304 574.745,203.043 575.114,202.609 C575.483,202.176 575.838,201.59 576.177,200.852 C576.236,200.734 576.324,200.676 576.441,200.676 C576.687,200.676 576.81,200.811 576.81,201.08 L576.81,208.129 L578.885,208.129 C579.177,208.129 579.324,208.264 579.324,208.533 C579.324,208.826 579.177,208.973 578.885,208.973 L576.81,208.973 L576.81,209.201 C576.81,209.928 577.004,210.561 577.39,211.1 C577.777,211.639 578.275,211.908 578.885,211.908 C579.119,211.908 579.236,212.014 579.236,212.225 C579.236,212.459 579.119,212.576 578.885,212.576 C578.463,212.576 577.836,212.515 577.004,212.392 C576.172,212.269 575.542,212.207 575.114,212.207 C574.686,212.207 574.056,212.269 573.224,212.392 C572.392,212.515 571.765,212.576 571.344,212.576 C571.109,212.576 570.992,212.459 570.992,212.225 C570.992,212.014 571.109,211.908 571.344,211.908 C571.953,211.908 572.454,211.639 572.846,211.1 C573.239,210.561 573.435,209.928 573.435,209.201 L573.435,208.973 L568.636,208.973 C568.332,208.973 568.106,208.899 567.96,208.753 C567.813,208.606 567.74,208.457 567.74,208.305 C567.74,208.246 567.878,208.044 568.153,207.698 C568.428,207.353 568.765,206.893 569.164,206.318 C569.562,205.744 569.958,205.091 570.35,204.358 C570.743,203.626 571.077,202.747 571.352,201.722 C571.628,200.696 571.765,199.662 571.765,198.619 C571.765,198.314 571.894,198.162 572.152,198.162 C572.187,198.162 572.31,198.191 572.521,198.25 C572.732,198.309 573.002,198.37 573.33,198.435 C573.658,198.499 573.974,198.531 574.279,198.531"/>
<path class="FiguredBass" d="M641.05,178.5 C641.495,178.5 641.964,178.436 642.456,178.307 L643.247,178.096 C643.4,178.096 643.52,178.154 643.608,178.271 C643.696,178.389 643.687,178.494 643.581,178.588 L635.408,188.098 L640.206,188.098 L640.206,184.336 C640.206,184.066 640.28,183.858 640.426,183.712 C640.573,183.565 640.76,183.448 640.989,183.36 C641.217,183.272 641.516,183.012 641.885,182.578 C642.254,182.145 642.609,181.559 642.949,180.82 C643.007,180.703 643.095,180.645 643.212,180.645 C643.458,180.645 643.581,180.779 643.581,181.049 L643.581,188.098 L645.656,188.098 C645.949,188.098 646.095,188.232 646.095,188.502 C646.095,188.795 645.949,188.941 645.656,188.941 L643.581,188.941 L643.581,189.17 C643.581,189.896 643.775,190.529 644.161,191.068 C644.548,191.607 645.046,191.877 645.656,191.877 C645.89,191.877 646.007,191.982 646.007,192.193 C646.007,192.428 645.89,192.545 645.656,192.545 C645.234,192.545 644.607,192.483 643.775,192.36 C642.943,192.237 642.313,192.176 641.885,192.176 C641.457,192.176 640.827,192.237 639.995,192.36 C639.163,192.483 638.536,192.545 638.115,192.545 C637.88,192.545 637.763,192.428 637.763,192.193 C637.763,191.982 637.88,191.877 638.115,191.877 C638.724,191.877 639.225,191.607 639.617,191.068 C640.01,190.529 640.206,189.896 640.206,189.17 L640.206,188.941 L635.408,188.941 C635.103,188.941 634.877,188.868 634.731,188.722 C634.584,188.575 634.511,188.426 634.511,188.273 C634.511,188.215 634.649,188.013 634.924,187.667 C635.2,187.321 635.536,186.861 635.935,186.287 C636.333,185.713 636.729,185.06 637.121,184.327 C637.514,183.595 637.848,182.716 638.123,181.69 C638.399,180.665 638.536,179.631 638.536,178.588 C638.536,178.283 638.665,178.131 638.923,178.131 C638.958,178.131 639.081,178.16 639.292,178.219 C639.503,178.277 639.773,178.339 640.101,178.403 C640.429,178.468 640.745,178.5 641.05,178.5"/>
<path class="FiguredBass" d="M706.274,190.717 L706.274,194.391 C706.274,194.754 706.09,194.936 705.721,194.936 C705.351,194.936 705.167,194.754 705.167,194.391 L705.167,191.191 L704.604,191.42 C704.546,191.443 704.47,191.455 704.376,191.455 C704.223,191.455 704.089,191.396 703.972,191.279 C703.854,191.162 703.796,191.027 703.796,190.875 L703.796,189.082 C703.796,188.824 703.919,188.643 704.165,188.537 L705.167,188.115 L705.167,184.424 L704.604,184.652 C704.569,184.664 704.522,184.67 704.464,184.67 C704.44,184.67 704.411,184.67 704.376,184.67 C704.2,184.646 704.059,184.582 703.954,184.477 C703.848,184.371 703.796,184.248 703.796,184.107 L703.796,182.314 C703.796,182.068 703.919,181.893 704.165,181.787 L705.167,181.365 L705.167,177.621 C705.167,177.258 705.351,177.076 705.721,177.076 C706.09,177.076 706.274,177.258 706.274,177.621 L706.274,180.908 L708.542,179.959 L708.542,176.285 C708.542,175.922 708.723,175.74 709.087,175.74 C709.45,175.74 709.632,175.922 709.632,176.285 L709.632,179.52 L710.247,179.256 C710.306,179.232 710.37,179.221 710.44,179.221 C710.593,179.221 710.73,179.279 710.853,179.396 C710.976,179.514 711.038,179.648 711.038,179.801 L711.038,181.594 C711.038,181.852 710.909,182.033 710.651,182.139 L709.632,182.561 L709.632,186.27 L710.247,186.023 C710.282,186.012 710.323,186.006 710.37,186.006 C710.393,186.006 710.417,186.006 710.44,186.006 C710.64,186.041 710.789,186.105 710.889,186.199 C710.988,186.293 711.038,186.416 711.038,186.568 L711.038,188.361 C711.038,188.607 710.909,188.783 710.651,188.889 L709.632,189.311 L709.632,193.055 C709.632,193.418 709.45,193.6 709.087,193.6 C708.723,193.6 708.542,193.418 708.542,193.055 L708.542,189.768 L706.274,190.717 M706.274,187.658 L708.542,186.727 L708.542,183.018 L706.274,183.967 L706.274,187.658 "/>
<path class="FiguredBass" d="M733.833,179.432 C733.868,179.432 733.944,179.355 734.061,179.203 C734.565,178.488 735.268,178.131 736.171,178.131 C736.897,178.131 737.583,178.4 738.227,178.939 C738.872,179.479 739.405,179.748 739.827,179.748 C740.284,179.748 740.717,179.613 741.128,179.344 C741.538,179.074 741.863,178.805 742.103,178.535 C742.343,178.266 742.499,178.131 742.569,178.131 C742.686,178.131 742.792,178.169 742.885,178.245 C742.979,178.321 743.026,178.418 743.026,178.535 C743.026,178.617 742.786,179.021 742.305,179.748 C741.825,180.475 741.292,181.315 740.706,182.27 C740.12,183.226 739.587,184.418 739.106,185.848 C738.626,187.277 738.385,188.643 738.385,189.943 C738.385,190.447 738.438,191.027 738.544,191.684 C738.626,192.187 738.626,192.475 738.544,192.545 C738.485,192.604 738.385,192.633 738.245,192.633 C738.186,192.633 737.914,192.557 737.427,192.404 C736.941,192.252 736.475,192.176 736.03,192.176 C735.631,192.176 735.172,192.252 734.65,192.404 C734.129,192.557 733.839,192.633 733.78,192.633 C733.651,192.633 733.546,192.58 733.464,192.475 C733.381,192.369 733.37,192.258 733.428,192.141 C734.12,190.488 734.961,188.88 735.951,187.315 C736.941,185.751 738.18,183.949 739.669,181.91 C739.106,182.215 738.538,182.367 737.964,182.367 C737.354,182.367 736.739,182.095 736.118,181.55 C735.497,181.005 734.987,180.732 734.589,180.732 C734.296,180.732 734.041,180.899 733.824,181.233 C733.607,181.567 733.499,182.068 733.499,182.736 L733.499,184.898 C733.499,185.191 733.364,185.338 733.094,185.338 C732.801,185.338 732.655,185.191 732.655,184.898 L732.655,178.57 C732.655,178.277 732.801,178.131 733.094,178.131 C733.364,178.131 733.499,178.277 733.499,178.57 L733.499,178.975 C733.499,179.068 733.522,179.15 733.569,179.221 C733.71,179.361 733.798,179.432 733.833,179.432"/>
<path class="FiguredBass" d="M738.19,209.113 C738.061,209.254 737.891,209.324 737.68,209.324 C737.469,209.324 737.297,209.251 737.162,209.104 C737.027,208.958 736.96,208.791 736.96,208.604 L736.96,206.09 L734.446,206.09 C734.235,206.09 734.062,206.017 733.927,205.87 C733.793,205.724 733.725,205.557 733.725,205.369 C733.725,205.182 733.793,205.015 733.927,204.868 C734.062,204.722 734.235,204.648 734.446,204.648 L736.96,204.648 L736.96,202.135 C736.96,201.947 737.027,201.78 737.162,201.634 C737.297,201.487 737.469,201.414 737.68,201.414 C737.891,201.414 738.064,201.487 738.199,201.634 C738.334,201.78 738.401,201.947 738.401,202.135 L738.401,204.648 L740.915,204.648 C741.126,204.648 741.298,204.722 741.433,204.868 C741.568,205.015 741.635,205.182 741.635,205.369 C741.635,205.557 741.568,205.724 741.433,205.87 C741.298,206.017 741.126,206.09 740.915,206.09 L738.401,206.09 L738.401,208.604 C738.401,208.791 738.331,208.961 738.19,209.113"/>
<path class="StaffText" d="M107.885,232.498 C105.838,232.498 104.09,233.142 102.687,234.43 C100.916,236.063 99.8814,238.547 99.8814,241.169 C99.8814,243.745 100.939,246.252 102.687,247.862 C104.067,249.127 105.815,249.794 107.793,249.794 C112.301,249.794 115.705,246.068 115.705,241.146 C115.705,236.27 112.301,232.498 107.885,232.498 M107.862,233.579 C109.403,233.579 110.691,234.292 111.519,235.557 C112.37,236.914 112.669,238.317 112.669,241.146 C112.669,243.952 112.37,245.355 111.519,246.735 C110.691,248.023 109.426,248.713 107.793,248.713 C106.16,248.713 104.895,248.046 104.067,246.735 C103.193,245.355 102.917,243.952 102.917,241.1 C102.917,238.317 103.216,236.937 104.067,235.557 C104.918,234.223 106.137,233.579 107.862,233.579 M125.638,246.068 C124.902,247.724 124.12,248.391 122.924,248.391 C121.084,248.391 119.934,246.712 119.934,244.021 C119.934,241.215 121.061,239.375 122.763,239.375 C123.453,239.375 124.051,239.697 124.051,240.065 C124.051,240.134 124.028,240.203 123.913,240.341 C123.545,240.778 123.453,241.008 123.453,241.399 C123.453,242.158 124.028,242.687 124.833,242.687 C125.661,242.687 126.236,242.043 126.236,241.123 C126.236,239.559 124.695,238.386 122.648,238.386 C119.658,238.386 117.519,240.824 117.519,244.274 C117.519,247.54 119.474,249.794 122.326,249.794 C124.373,249.794 125.546,248.851 126.535,246.413 L125.638,246.068 M131.449,238.731 L131.449,234.177 L130.506,234.177 C130.276,237.167 129.264,238.685 127.401,238.823 L127.401,239.72 L129.287,239.72 L129.287,245.585 C129.287,247.195 129.333,247.77 129.563,248.299 C129.931,249.265 130.851,249.794 132.185,249.794 C134.255,249.794 135.589,248.23 135.589,245.792 C135.589,245.654 135.589,245.493 135.566,245.263 L134.6,245.263 C134.531,247.333 133.933,248.391 132.806,248.391 C132.277,248.391 131.817,248.115 131.656,247.724 C131.518,247.402 131.449,246.827 131.449,245.999 L131.449,239.72 L134.83,239.72 L134.83,238.731 L131.449,238.731 M146.367,242.043 C146.367,240.594 146.114,239.858 145.447,239.306 C144.688,238.685 143.561,238.386 142.089,238.386 C139.49,238.386 137.604,239.605 137.604,241.284 C137.604,242.135 138.133,242.687 138.938,242.687 C139.674,242.687 140.18,242.204 140.18,241.514 C140.18,241.215 140.065,240.893 139.835,240.571 C139.697,240.41 139.674,240.364 139.674,240.249 C139.674,239.789 140.594,239.375 141.698,239.375 C142.434,239.375 143.239,239.605 143.607,239.95 C144.044,240.318 144.205,240.87 144.205,241.905 L144.205,242.802 C141.813,243.216 141.054,243.4 139.927,243.837 C137.926,244.573 136.983,245.631 136.983,247.103 C136.983,248.759 138.271,249.794 140.318,249.794 C141.905,249.794 143.331,249.15 144.32,247.977 C144.688,249.15 145.263,249.61 146.344,249.61 C147.379,249.61 148.46,248.943 148.46,248.276 C148.46,248.115 148.368,248 148.23,248 C148.138,248 148.046,248.023 147.885,248.092 C147.563,248.23 147.425,248.253 147.241,248.253 C146.597,248.253 146.367,247.839 146.367,246.666 L146.367,242.043 M144.205,244.849 C144.205,246.229 144.136,246.551 143.745,247.149 C143.17,248 142.135,248.575 141.123,248.575 C140.065,248.575 139.306,247.816 139.306,246.781 C139.306,245.815 139.789,245.125 140.801,244.642 C141.514,244.32 142.411,244.09 144.205,243.791 L144.205,244.849 M154.819,246.666 L152.197,240.594 C152.128,240.41 152.082,240.226 152.082,240.088 C152.082,239.697 152.381,239.559 153.324,239.559 L153.646,239.559 L153.646,238.731 L148.218,238.731 L148.218,239.559 L148.402,239.559 C149.276,239.559 149.598,239.789 149.92,240.548 L153.876,249.794 L154.681,249.794 L157.947,241.721 C158.591,240.157 159.143,239.628 160.086,239.559 L160.178,239.559 L160.178,238.731 L155.578,238.731 L155.578,239.559 L155.9,239.559 C156.705,239.559 157.142,239.835 157.142,240.364 C157.142,240.64 157.073,240.985 156.935,241.33 L154.819,246.666 M170.526,244.274 C170.549,240.824 168.594,238.386 165.788,238.386 C162.844,238.386 160.636,240.939 160.636,244.389 C160.636,247.632 162.729,249.794 165.834,249.794 C168.042,249.794 169.583,248.713 170.526,246.528 L169.721,246.091 C168.778,247.862 167.812,248.552 166.271,248.552 C165.098,248.552 164.247,248.069 163.649,247.034 C163.235,246.344 163.051,245.539 163.074,244.274 L170.526,244.274 M163.097,243.285 C163.097,242.572 163.189,242.066 163.419,241.422 C163.902,240.042 164.638,239.375 165.765,239.375 C167.145,239.375 168.065,240.594 168.065,242.457 C168.065,243.101 167.858,243.285 167.122,243.285 L163.097,243.285 "/>
<path class="StaffText" d="M115.015,91.9981 C114.9,93.4701 114.67,94.0221 114.095,94.0221 C113.428,94.0221 112.876,93.0561 112.094,90.5491 C114.486,88.5711 115.728,85.9951 115.728,83.0511 C115.728,78.3131 112.209,74.5871 107.77,74.5871 C105.884,74.5871 104.274,75.1851 102.871,76.4501 C100.985,78.1291 99.8814,80.6361 99.8814,83.2581 C99.8814,88.0881 103.423,91.8831 107.931,91.8831 C108.713,91.8831 109.219,91.8141 109.978,91.5381 C110.07,94.2981 111.22,95.8851 113.106,95.8851 C114.946,95.8851 116.073,94.4131 116.05,91.9981 L115.015,91.9981 M111.496,88.8011 C110.898,86.6391 109.495,85.4431 107.563,85.4431 C105.631,85.4431 104.251,86.7311 104.251,88.5711 C104.251,88.6401 104.251,88.8011 104.274,88.9851 C103.354,87.7661 102.917,85.9261 102.917,83.2581 C102.917,81.0041 103.308,79.0951 104.09,77.6921 C104.803,76.4041 106.137,75.6681 107.793,75.6681 C109.541,75.6681 111.036,76.5191 111.749,77.9451 C112.416,79.2331 112.692,80.8201 112.692,83.1891 C112.692,85.8801 112.37,87.3751 111.496,88.8011 M109.886,90.2961 C109.196,90.6641 108.621,90.8021 107.724,90.8021 C106.206,90.8021 105.309,90.0661 105.309,88.8011 C105.309,87.4441 106.183,86.5241 107.448,86.5241 C109.081,86.5241 109.886,87.7891 109.886,90.2961 M126.322,91.6991 L130.508,91.5381 L130.508,90.5491 L129.933,90.5491 C128.599,90.5031 128.484,90.3651 128.484,88.8701 L128.484,80.8201 L124.16,81.0731 L124.16,82.0621 L125.333,82.0621 C126.207,82.0851 126.322,82.2231 126.322,83.2121 L126.322,86.0411 C126.322,87.3521 126.184,88.1341 125.839,88.8701 C125.356,89.9051 124.436,90.4801 123.309,90.4801 C122.596,90.4801 121.998,90.2271 121.699,89.7671 C121.4,89.3301 121.354,89.1001 121.354,87.8351 L121.354,80.8201 L117.329,81.0731 L117.329,82.0621 L118.203,82.0621 C119.077,82.0851 119.192,82.2231 119.192,83.2121 L119.192,88.1801 C119.192,89.3531 119.284,89.8821 119.629,90.4111 C120.25,91.3541 121.354,91.8831 122.734,91.8831 C124.252,91.8831 125.31,91.2621 126.322,89.7901 L126.322,91.6991 M141.289,84.1321 C141.289,82.6831 141.036,81.9471 140.369,81.3951 C139.61,80.7741 138.483,80.4751 137.011,80.4751 C134.412,80.4751 132.526,81.6941 132.526,83.3731 C132.526,84.2241 133.055,84.7761 133.86,84.7761 C134.596,84.7761 135.102,84.2931 135.102,83.6031 C135.102,83.3041 134.987,82.9821 134.757,82.6601 C134.619,82.4991 134.596,82.4531 134.596,82.3381 C134.596,81.8781 135.516,81.4641 136.62,81.4641 C137.356,81.4641 138.161,81.6941 138.529,82.0391 C138.966,82.4071 139.127,82.9591 139.127,83.9941 L139.127,84.8911 C136.735,85.3051 135.976,85.4891 134.849,85.9261 C132.848,86.6621 131.905,87.7201 131.905,89.1921 C131.905,90.8481 133.193,91.8831 135.24,91.8831 C136.827,91.8831 138.253,91.2391 139.242,90.0661 C139.61,91.2391 140.185,91.6991 141.266,91.6991 C142.301,91.6991 143.382,91.0321 143.382,90.3651 C143.382,90.2041 143.29,90.0891 143.152,90.0891 C143.06,90.0891 142.968,90.1121 142.807,90.1811 C142.485,90.3191 142.347,90.3421 142.163,90.3421 C141.519,90.3421 141.289,89.9281 141.289,88.7551 L141.289,84.1321 M139.127,86.9381 C139.127,88.3181 139.058,88.6401 138.667,89.2381 C138.092,90.0891 137.057,90.6641 136.045,90.6641 C134.987,90.6641 134.228,89.9051 134.228,88.8701 C134.228,87.9041 134.711,87.2141 135.723,86.7311 C136.436,86.4091 137.333,86.1791 139.127,85.8801 L139.127,86.9381 M148.229,80.8201 L144.158,81.0731 L144.158,82.0621 L145.101,82.0621 C145.975,82.0851 146.09,82.2231 146.09,83.2121 L146.09,88.7091 L146.09,89.7901 C146.067,90.1351 146.044,90.2731 145.952,90.3881 C145.791,90.5951 145.331,90.6871 144.342,90.7101 L144.25,90.7101 L144.25,91.5381 L150.391,91.5381 L150.391,90.7101 L149.977,90.7101 C148.436,90.6641 148.229,90.5491 148.229,89.7211 L148.229,88.7091 L148.229,88.4791 C148.252,84.6151 149.632,81.6711 151.426,81.5791 C151.104,81.9471 151.012,82.1771 151.012,82.6141 C151.012,83.3501 151.541,83.8791 152.277,83.8791 C153.128,83.8791 153.68,83.2581 153.68,82.3381 C153.68,81.2111 152.898,80.4751 151.679,80.4751 C150.23,80.4751 148.988,81.6251 148.229,83.6721 L148.229,80.8201 M158.777,80.8201 L158.777,76.2661 L157.834,76.2661 C157.604,79.2561 156.592,80.7741 154.729,80.9121 L154.729,81.8091 L156.615,81.8091 L156.615,87.6741 C156.615,89.2841 156.661,89.8591 156.891,90.3881 C157.259,91.3541 158.179,91.8831 159.513,91.8831 C161.583,91.8831 162.917,90.3191 162.917,87.8811 C162.917,87.7431 162.917,87.5821 162.894,87.3521 L161.928,87.3521 C161.859,89.4221 161.261,90.4801 160.134,90.4801 C159.605,90.4801 159.145,90.2041 158.984,89.8131 C158.846,89.4911 158.777,88.9161 158.777,88.0881 L158.777,81.8091 L162.158,81.8091 L162.158,80.8201 L158.777,80.8201 M174.104,86.3631 C174.127,82.9131 172.172,80.4751 169.366,80.4751 C166.422,80.4751 164.214,83.0281 164.214,86.4781 C164.214,89.7211 166.307,91.8831 169.412,91.8831 C171.62,91.8831 173.161,90.8021 174.104,88.6171 L173.299,88.1801 C172.356,89.9511 171.39,90.6411 169.849,90.6411 C168.676,90.6411 167.825,90.1581 167.227,89.1231 C166.813,88.4331 166.629,87.6281 166.652,86.3631 L174.104,86.3631 M166.675,85.3741 C166.675,84.6611 166.767,84.1551 166.997,83.5111 C167.48,82.1311 168.216,81.4641 169.343,81.4641 C170.723,81.4641 171.643,82.6831 171.643,84.5461 C171.643,85.1901 171.436,85.3741 170.7,85.3741 L166.675,85.3741 M191.995,86.3631 C192.018,82.9131 190.063,80.4751 187.257,80.4751 C184.313,80.4751 182.105,83.0281 182.105,86.4781 C182.105,89.7211 184.198,91.8831 187.303,91.8831 C189.511,91.8831 191.052,90.8021 191.995,88.6171 L191.19,88.1801 C190.247,89.9511 189.281,90.6411 187.74,90.6411 C186.567,90.6411 185.716,90.1581 185.118,89.1231 C184.704,88.4331 184.52,87.6281 184.543,86.3631 L191.995,86.3631 M184.566,85.3741 C184.566,84.6611 184.658,84.1551 184.888,83.5111 C185.371,82.1311 186.107,81.4641 187.234,81.4641 C188.614,81.4641 189.534,82.6831 189.534,84.5461 C189.534,85.1901 189.327,85.3741 188.591,85.3741 L184.566,85.3741 M196.808,80.8201 L196.808,76.2661 L195.865,76.2661 C195.635,79.2561 194.623,80.7741 192.76,80.9121 L192.76,81.8091 L194.646,81.8091 L194.646,87.6741 C194.646,89.2841 194.692,89.8591 194.922,90.3881 C195.29,91.3541 196.21,91.8831 197.544,91.8831 C199.614,91.8831 200.948,90.3191 200.948,87.8811 C200.948,87.7431 200.948,87.5821 200.925,87.3521 L199.959,87.3521 C199.89,89.4221 199.292,90.4801 198.165,90.4801 C197.636,90.4801 197.176,90.2041 197.015,89.8131 C196.877,89.4911 196.808,88.9161 196.808,88.0881 L196.808,81.8091 L200.189,81.8091 L200.189,80.8201 L196.808,80.8201 M220.233,74.7941 L219.382,74.7941 L218.462,76.1741 C217.358,75.1391 215.909,74.5871 214.276,74.5871 C211.24,74.5871 209.239,76.4961 209.239,79.3941 C209.239,81.9011 210.481,83.1431 213.862,84.0171 L216.047,84.5691 C217.749,85.0061 217.91,85.0521 218.393,85.4201 C219.083,85.9491 219.451,86.7081 219.451,87.6051 C219.451,88.5251 219.106,89.2841 218.416,89.9281 C217.657,90.5721 216.898,90.8251 215.633,90.8251 C213.931,90.8251 212.712,90.2961 211.631,89.1001 C210.665,88.0421 210.182,86.9381 209.837,85.1671 L208.848,85.1671 L208.94,91.7221 L209.837,91.7221 L210.872,90.1581 C212.413,91.4231 213.678,91.8831 215.702,91.8831 C219.083,91.8831 221.245,89.9051 221.245,86.8231 C221.245,85.3741 220.785,84.1781 219.865,83.3041 C219.244,82.7061 218.347,82.3151 216.507,81.8551 L214.046,81.2341 C211.999,80.7051 211.033,79.8081 211.033,78.4051 C211.033,76.7951 212.344,75.6911 214.299,75.6911 C215.909,75.6911 217.22,76.3811 218.14,77.6921 C218.807,78.6351 219.244,79.6011 219.52,80.7741 L220.509,80.7741 L220.233,74.7941 M226.694,80.8201 L222.37,81.0731 L222.37,82.0621 L223.543,82.0621 C224.417,82.0851 224.532,82.2231 224.532,83.2121 L224.532,88.7091 L224.532,89.7901 C224.509,90.1351 224.486,90.2731 224.394,90.3881 C224.233,90.5951 223.796,90.6871 222.807,90.7101 L222.646,90.7101 L222.646,91.5381 L228.603,91.5381 L228.603,90.7101 L228.442,90.7101 C226.901,90.6641 226.694,90.5491 226.694,89.7211 L226.694,88.7091 L226.694,80.8201 M225.613,75.0931 C224.877,75.0931 224.279,75.6911 224.279,76.4271 C224.279,77.1631 224.877,77.7611 225.59,77.7611 C226.349,77.7611 226.947,77.1631 226.947,76.4271 C226.947,75.6911 226.349,75.0931 225.613,75.0931 M236.297,85.6731 L238.919,82.6141 C239.494,81.9471 240.023,81.6481 240.644,81.6481 L240.851,81.6481 L240.851,80.8201 L236.09,80.8201 L236.09,81.6481 L236.527,81.6481 C237.217,81.6481 237.562,81.8091 237.562,82.1541 C237.562,82.3841 237.401,82.7061 237.102,83.0741 L235.653,84.8221 L233.882,82.5681 C233.744,82.3841 233.652,82.2001 233.652,82.0621 C233.652,81.7631 233.951,81.6481 234.664,81.6481 L234.986,81.6481 L234.986,80.8201 L229.535,80.8201 L229.535,81.6481 C230.386,81.7171 230.708,81.9241 231.444,82.8901 L234.25,86.4091 L231.605,89.4911 C230.823,90.3651 230.156,90.7331 229.535,90.7101 L229.397,90.7101 L229.397,91.5381 L234.25,91.5381 L234.25,90.7101 L233.905,90.7101 C233.376,90.7101 233.261,90.6871 233.1,90.6181 C232.916,90.5031 232.778,90.2961 232.778,90.0891 C232.778,89.9281 232.847,89.7211 232.962,89.5831 L234.894,87.2831 L236.642,89.6061 C236.803,89.8361 236.941,90.1351 236.941,90.2961 C236.941,90.5951 236.596,90.7101 235.722,90.7101 L235.561,90.7101 L235.561,91.5381 L241.357,91.5381 L241.357,90.7101 L241.196,90.7101 C240.391,90.7101 239.862,90.4111 239.195,89.5831 L236.297,85.6731 M245.996,80.8201 L245.996,76.2661 L245.053,76.2661 C244.823,79.2561 243.811,80.7741 241.948,80.9121 L241.948,81.8091 L243.834,81.8091 L243.834,87.6741 C243.834,89.2841 243.88,89.8591 244.11,90.3881 C244.478,91.3541 245.398,91.8831 246.732,91.8831 C248.802,91.8831 250.136,90.3191 250.136,87.8811 C250.136,87.7431 250.136,87.5821 250.113,87.3521 L249.147,87.3521 C249.078,89.4221 248.48,90.4801 247.353,90.4801 C246.824,90.4801 246.364,90.2041 246.203,89.8131 C246.065,89.4911 245.996,88.9161 245.996,88.0881 L245.996,81.8091 L249.377,81.8091 L249.377,80.8201 L245.996,80.8201 M261.323,86.3631 C261.346,82.9131 259.391,80.4751 256.585,80.4751 C253.641,80.4751 251.433,83.0281 251.433,86.4781 C251.433,89.7211 253.526,91.8831 256.631,91.8831 C258.839,91.8831 260.38,90.8021 261.323,88.6171 L260.518,88.1801 C259.575,89.9511 258.609,90.6411 257.068,90.6411 C255.895,90.6411 255.044,90.1581 254.446,89.1231 C254.032,88.4331 253.848,87.6281 253.871,86.3631 L261.323,86.3631 M253.894,85.3741 C253.894,84.6611 253.986,84.1551 254.216,83.5111 C254.699,82.1311 255.435,81.4641 256.562,81.4641 C257.942,81.4641 258.862,82.6831 258.862,84.5461 C258.862,85.1901 258.655,85.3741 257.919,85.3741 L253.894,85.3741 "/>
</svg>
