<?xml version="1.0" encoding="UTF-8" standalone="no"?>
<svg width="850.394px" height="566.929px" viewBox="0 0 850.394 566.929"
 xmlns="http://www.w3.org/2000/svg" xmlns:xlink="http://www.w3.org/1999/xlink" version="1.2" baseProfile="tiny">
<title>La Mineur (17)</title>
<desc>Generated by MuseScore 3.6.2</desc>
<polyline class="StaffLines" fill="none" stroke="#000000" stroke-width="1.25" stroke-linejoin="bevel" points="29.3071,107.717 836.22,107.717"/>
<polyline class="StaffLines" fill="none" stroke="#000000" stroke-width="1.25" stroke-linejoin="bevel" points="29.3071,124.724 836.22,124.724"/>
<polyline class="StaffLines" fill="none" stroke="#000000" stroke-width="1.25" stroke-linejoin="bevel" points="29.3071,141.732 836.22,141.732"/>
<polyline class="StaffLines" fill="none" stroke="#000000" stroke-width="1.25" stroke-linejoin="bevel" points="29.3071,158.74 836.22,158.74"/>
<polyline class="StaffLines" fill="none" stroke="#000000" stroke-width="1.25" stroke-linejoin="bevel" points="29.3071,175.748 836.22,175.748"/>
<polyline class="StaffLines" fill="none" stroke="#000000" stroke-width="1.25" stroke-linejoin="bevel" points="29.3071,192.756 836.22,192.756"/>
<polyline class="StaffLines" fill="none" stroke="#000000" stroke-width="1.25" stroke-linejoin="bevel" points="29.3071,266.457 836.22,266.457"/>
<polyline class="StaffLines" fill="none" stroke="#000000" stroke-width="1.25" stroke-linejoin="bevel" points="29.3071,277.795 836.22,277.795"/>
<polyline class="StaffLines" fill="none" stroke="#000000" stroke-width="1.25" stroke-linejoin="bevel" points="29.3071,289.134 836.22,289.134"/>
<polyline class="StaffLines" fill="none" stroke="#000000" stroke-width="1.25" stroke-linejoin="bevel" points="29.3071,300.472 836.22,300.472"/>
<polyline class="StaffLines" fill="none" stroke="#000000" stroke-width="1.25" stroke-linejoin="bevel" points="29.3071,311.811 836.22,311.811"/>
<polyline class="StaffLines" fill="none" stroke="#000000" stroke-width="1.25" stroke-linejoin="bevel" points="29.3071,406.417 836.22,406.417"/>
<polyline class="StaffLines" fill="none" stroke="#000000" stroke-width="1.25" stroke-linejoin="bevel" points="29.3071,417.755 836.22,417.755"/>
<polyline class="StaffLines" fill="none" stroke="#000000" stroke-width="1.25" stroke-linejoin="bevel" points="29.3071,429.094 836.22,429.094"/>
<polyline class="StaffLines" fill="none" stroke="#000000" stroke-width="1.25" stroke-linejoin="bevel" points="29.3071,440.432 836.22,440.432"/>
<polyline class="StaffLines" fill="none" stroke="#000000" stroke-width="1.25" stroke-linejoin="bevel" points="29.3071,451.771 836.22,451.771"/>
<polyline class="BarLine" fill="none" stroke="#000000" stroke-width="2.04" stroke-linejoin="bevel" points="30.3276,405.793 30.3276,452.395"/>
<polyline class="BarLine" fill="none" stroke="#000000" stroke-width="2.04" stroke-linejoin="bevel" points="259.276,405.793 259.276,452.395"/>
<polyline class="BarLine" fill="none" stroke="#000000" stroke-width="2.04" stroke-linejoin="bevel" points="454.06,405.793 454.06,452.395"/>
<polyline class="BarLine" fill="none" stroke="#000000" stroke-width="2.04" stroke-linejoin="bevel" points="647.827,405.793 647.827,452.395"/>
<polyline class="BarLine" fill="none" stroke="#000000" stroke-width="2.04" stroke-linejoin="bevel" points="825.165,405.793 825.165,452.395"/>
<polyline class="BarLine" fill="none" stroke="#000000" stroke-width="6.24" stroke-linejoin="bevel" points="833.102,405.793 833.102,452.395"/>
<polyline class="BarLine" fill="none" stroke="#000000" stroke-width="2.04" stroke-linejoin="bevel" points="30.3276,265.833 30.3276,406.417"/>
<polyline class="BarLine" fill="none" stroke="#000000" stroke-width="2.04" stroke-linejoin="bevel" points="259.276,265.833 259.276,312.435"/>
<polyline class="BarLine" fill="none" stroke="#000000" stroke-width="2.04" stroke-linejoin="bevel" points="454.06,265.833 454.06,312.435"/>
<polyline class="BarLine" fill="none" stroke="#000000" stroke-width="2.04" stroke-linejoin="bevel" points="647.827,265.833 647.827,312.435"/>
<polyline class="BarLine" fill="none" stroke="#000000" stroke-width="2.04" stroke-linejoin="bevel" points="825.165,265.833 825.165,312.435"/>
<polyline class="BarLine" fill="none" stroke="#000000" stroke-width="6.24" stroke-linejoin="bevel" points="833.102,265.833 833.102,312.435"/>
<polyline class="BarLine" fill="none" stroke="#000000" stroke-width="2.04" stroke-linejoin="bevel" points="30.3276,107.093 30.3276,266.457"/>
<polyline class="BarLine" fill="none" stroke="#000000" stroke-width="2.04" stroke-linejoin="bevel" points="259.276,107.093 259.276,193.38"/>
<polyline class="BarLine" fill="none" stroke="#000000" stroke-width="2.04" stroke-linejoin="bevel" points="454.06,107.093 454.06,193.38"/>
<polyline class="BarLine" fill="none" stroke="#000000" stroke-width="2.04" stroke-linejoin="bevel" points="647.827,107.093 647.827,193.38"/>
<polyline class="BarLine" fill="none" stroke="#000000" stroke-width="2.04" stroke-linejoin="bevel" points="825.165,107.093 825.165,193.38"/>
<polyline class="BarLine" fill="none" stroke="#000000" stroke-width="6.24" stroke-linejoin="bevel" points="833.102,107.093 833.102,193.38"/>
<path class="Note" transform="matrix(0.453543,0,0,0.453543,98.7881,440.432)" d="M18.7,-13.6 C4.9,-13.6 0,-6.6 0,-0.1 C0,6.4 4.9,13.4 18.7,13.4 C32.5,13.4 37.3,6.4 37.3,-0.1 C37.3,-6.6 32.5,-13.6 18.7,-13.6 M10.4,-4.5 C10.3,-4.9 10.3,-5.3 10.3,-5.7 C10.3,-6.5 10.5,-7.3 10.9,-8 C11.6,-9 12.8,-9.7 14.3,-10 C15.6,-10.3 16.3,-10.5 18.9,-10.5 L19,-10.5 C23,-10.5 24.3,-6.8 25.4,-3 L25.7,-2 C26.5,0.6 26.9,2.8 26.9,4.5 C26.9,5.7 26.7,6.8 26.3,7.6 C25.7,8.7 24.7,9.4 23,9.8 C22.1,10 20.6,10.1 20.6,10.1 C20.1,10.1 19.7,10.2 19.3,10.2 C16.1,10.2 14.1,9 12.7,4.7 C11.5,1 11.3,-0.1 10.4,-4.5"/>
<path class="Note" transform="matrix(0.453543,0,0,0.453543,276.126,429.094)" d="M18.7,-13.6 C4.9,-13.6 0,-6.6 0,-0.1 C0,6.4 4.9,13.4 18.7,13.4 C32.5,13.4 37.3,6.4 37.3,-0.1 C37.3,-6.6 32.5,-13.6 18.7,-13.6 M10.4,-4.5 C10.3,-4.9 10.3,-5.3 10.3,-5.7 C10.3,-6.5 10.5,-7.3 10.9,-8 C11.6,-9 12.8,-9.7 14.3,-10 C15.6,-10.3 16.3,-10.5 18.9,-10.5 L19,-10.5 C23,-10.5 24.3,-6.8 25.4,-3 L25.7,-2 C26.5,0.6 26.9,2.8 26.9,4.5 C26.9,5.7 26.7,6.8 26.3,7.6 C25.7,8.7 24.7,9.4 23,9.8 C22.1,10 20.6,10.1 20.6,10.1 C20.1,10.1 19.7,10.2 19.3,10.2 C16.1,10.2 14.1,9 12.7,4.7 C11.5,1 11.3,-0.1 10.4,-4.5"/>
<path class="Note" transform="matrix(0.453543,0,0,0.453543,469.893,457.44)" d="M18.7,-13.6 C4.9,-13.6 0,-6.6 0,-0.1 C0,6.4 4.9,13.4 18.7,13.4 C32.5,13.4 37.3,6.4 37.3,-0.1 C37.3,-6.6 32.5,-13.6 18.7,-13.6 M10.4,-4.5 C10.3,-4.9 10.3,-5.3 10.3,-5.7 C10.3,-6.5 10.5,-7.3 10.9,-8 C11.6,-9 12.8,-9.7 14.3,-10 C15.6,-10.3 16.3,-10.5 18.9,-10.5 L19,-10.5 C23,-10.5 24.3,-6.8 25.4,-3 L25.7,-2 C26.5,0.6 26.9,2.8 26.9,4.5 C26.9,5.7 26.7,6.8 26.3,7.6 C25.7,8.7 24.7,9.4 23,9.8 C22.1,10 20.6,10.1 20.6,10.1 C20.1,10.1 19.7,10.2 19.3,10.2 C16.1,10.2 14.1,9 12.7,4.7 C11.5,1 11.3,-0.1 10.4,-4.5"/>
<path class="Note" transform="matrix(0.453543,0,0,0.453543,664.677,406.417)" d="M18.7,-13.6 C4.9,-13.6 0,-6.6 0,-0.1 C0,6.4 4.9,13.4 18.7,13.4 C32.5,13.4 37.3,6.4 37.3,-0.1 C37.3,-6.6 32.5,-13.6 18.7,-13.6 M10.4,-4.5 C10.3,-4.9 10.3,-5.3 10.3,-5.7 C10.3,-6.5 10.5,-7.3 10.9,-8 C11.6,-9 12.8,-9.7 14.3,-10 C15.6,-10.3 16.3,-10.5 18.9,-10.5 L19,-10.5 C23,-10.5 24.3,-6.8 25.4,-3 L25.7,-2 C26.5,0.6 26.9,2.8 26.9,4.5 C26.9,5.7 26.7,6.8 26.3,7.6 C25.7,8.7 24.7,9.4 23,9.8 C22.1,10 20.6,10.1 20.6,10.1 C20.1,10.1 19.7,10.2 19.3,10.2 C16.1,10.2 14.1,9 12.7,4.7 C11.5,1 11.3,-0.1 10.4,-4.5"/>
<path class="Note" transform="matrix(0.453543,0,0,0.453543,98.7881,306.142)" d="M18.7,-13.6 C4.9,-13.6 0,-6.6 0,-0.1 C0,6.4 4.9,13.4 18.7,13.4 C32.5,13.4 37.3,6.4 37.3,-0.1 C37.3,-6.6 32.5,-13.6 18.7,-13.6 M10.4,-4.5 C10.3,-4.9 10.3,-5.3 10.3,-5.7 C10.3,-6.5 10.5,-7.3 10.9,-8 C11.6,-9 12.8,-9.7 14.3,-10 C15.6,-10.3 16.3,-10.5 18.9,-10.5 L19,-10.5 C23,-10.5 24.3,-6.8 25.4,-3 L25.7,-2 C26.5,0.6 26.9,2.8 26.9,4.5 C26.9,5.7 26.7,6.8 26.3,7.6 C25.7,8.7 24.7,9.4 23,9.8 C22.1,10 20.6,10.1 20.6,10.1 C20.1,10.1 19.7,10.2 19.3,10.2 C16.1,10.2 14.1,9 12.7,4.7 C11.5,1 11.3,-0.1 10.4,-4.5"/>
<path class="Note" transform="matrix(0.453543,0,0,0.453543,98.7881,294.803)" d="M18.7,-13.6 C4.9,-13.6 0,-6.6 0,-0.1 C0,6.4 4.9,13.4 18.7,13.4 C32.5,13.4 37.3,6.4 37.3,-0.1 C37.3,-6.6 32.5,-13.6 18.7,-13.6 M10.4,-4.5 C10.3,-4.9 10.3,-5.3 10.3,-5.7 C10.3,-6.5 10.5,-7.3 10.9,-8 C11.6,-9 12.8,-9.7 14.3,-10 C15.6,-10.3 16.3,-10.5 18.9,-10.5 L19,-10.5 C23,-10.5 24.3,-6.8 25.4,-3 L25.7,-2 C26.5,0.6 26.9,2.8 26.9,4.5 C26.9,5.7 26.7,6.8 26.3,7.6 C25.7,8.7 24.7,9.4 23,9.8 C22.1,10 20.6,10.1 20.6,10.1 C20.1,10.1 19.7,10.2 19.3,10.2 C16.1,10.2 14.1,9 12.7,4.7 C11.5,1 11.3,-0.1 10.4,-4.5"/>
<path class="Note" transform="matrix(0.453543,0,0,0.453543,98.7881,277.795)" d="M18.7,-13.6 C4.9,-13.6 0,-6.6 0,-0.1 C0,6.4 4.9,13.4 18.7,13.4 C32.5,13.4 37.3,6.4 37.3,-0.1 C37.3,-6.6 32.5,-13.6 18.7,-13.6 M10.4,-4.5 C10.3,-4.9 10.3,-5.3 10.3,-5.7 C10.3,-6.5 10.5,-7.3 10.9,-8 C11.6,-9 12.8,-9.7 14.3,-10 C15.6,-10.3 16.3,-10.5 18.9,-10.5 L19,-10.5 C23,-10.5 24.3,-6.8 25.4,-3 L25.7,-2 C26.5,0.6 26.9,2.8 26.9,4.5 C26.9,5.7 26.7,6.8 26.3,7.6 C25.7,8.7 24.7,9.4 23,9.8 C22.1,10 20.6,10.1 20.6,10.1 C20.1,10.1 19.7,10.2 19.3,10.2 C16.1,10.2 14.1,9 12.7,4.7 C11.5,1 11.3,-0.1 10.4,-4.5"/>
<path class="Note" transform="matrix(0.453543,0,0,0.453543,276.126,306.142)" d="M18.7,-13.6 C4.9,-13.6 0,-6.6 0,-0.1 C0,6.4 4.9,13.4 18.7,13.4 C32.5,13.4 37.3,6.4 37.3,-0.1 C37.3,-6.6 32.5,-13.6 18.7,-13.6 M10.4,-4.5 C10.3,-4.9 10.3,-5.3 10.3,-5.7 C10.3,-6.5 10.5,-7.3 10.9,-8 C11.6,-9 12.8,-9.7 14.3,-10 C15.6,-10.3 16.3,-10.5 18.9,-10.5 L19,-10.5 C23,-10.5 24.3,-6.8 25.4,-3 L25.7,-2 C26.5,0.6 26.9,2.8 26.9,4.5 C26.9,5.7 26.7,6.8 26.3,7.6 C25.7,8.7 24.7,9.4 23,9.8 C22.1,10 20.6,10.1 20.6,10.1 C20.1,10.1 19.7,10.2 19.3,10.2 C16.1,10.2 14.1,9 12.7,4.7 C11.5,1 11.3,-0.1 10.4,-4.5"/>
<path class="Note" transform="matrix(0.453543,0,0,0.453543,276.126,294.803)" d="M18.7,-13.6 C4.9,-13.6 0,-6.6 0,-0.1 C0,6.4 4.9,13.4 18.7,13.4 C32.5,13.4 37.3,6.4 37.3,-0.1 C37.3,-6.6 32.5,-13.6 18.7,-13.6 M10.4,-4.5 C10.3,-4.9 10.3,-5.3 10.3,-5.7 C10.3,-6.5 10.5,-7.3 10.9,-8 C11.6,-9 12.8,-9.7 14.3,-10 C15.6,-10.3 16.3,-10.5 18.9,-10.5 L19,-10.5 C23,-10.5 24.3,-6.8 25.4,-3 L25.7,-2 C26.5,0.6 26.9,2.8 26.9,4.5 C26.9,5.7 26.7,6.8 26.3,7.6 C25.7,8.7 24.7,9.4 23,9.8 C22.1,10 20.6,10.1 20.6,10.1 C20.1,10.1 19.7,10.2 19.3,10.2 C16.1,10.2 14.1,9 12.7,4.7 C11.5,1 11.3,-0.1 10.4,-4.5"/>
<path class="Note" transform="matrix(0.453543,0,0,0.453543,291.795,289.134)" d="M18.7,-13.6 C4.9,-13.6 0,-6.6 0,-0.1 C0,6.4 4.9,13.4 18.7,13.4 C32.5,13.4 37.3,6.4 37.3,-0.1 C37.3,-6.6 32.5,-13.6 18.7,-13.6 M10.4,-4.5 C10.3,-4.9 10.3,-5.3 10.3,-5.7 C10.3,-6.5 10.5,-7.3 10.9,-8 C11.6,-9 12.8,-9.7 14.3,-10 C15.6,-10.3 16.3,-10.5 18.9,-10.5 L19,-10.5 C23,-10.5 24.3,-6.8 25.4,-3 L25.7,-2 C26.5,0.6 26.9,2.8 26.9,4.5 C26.9,5.7 26.7,6.8 26.3,7.6 C25.7,8.7 24.7,9.4 23,9.8 C22.1,10 20.6,10.1 20.6,10.1 C20.1,10.1 19.7,10.2 19.3,10.2 C16.1,10.2 14.1,9 12.7,4.7 C11.5,1 11.3,-0.1 10.4,-4.5"/>
<path class="Note" transform="matrix(0.453543,0,0,0.453543,469.893,317.48)" d="M18.7,-13.6 C4.9,-13.6 0,-6.6 0,-0.1 C0,6.4 4.9,13.4 18.7,13.4 C32.5,13.4 37.3,6.4 37.3,-0.1 C37.3,-6.6 32.5,-13.6 18.7,-13.6 M10.4,-4.5 C10.3,-4.9 10.3,-5.3 10.3,-5.7 C10.3,-6.5 10.5,-7.3 10.9,-8 C11.6,-9 12.8,-9.7 14.3,-10 C15.6,-10.3 16.3,-10.5 18.9,-10.5 L19,-10.5 C23,-10.5 24.3,-6.8 25.4,-3 L25.7,-2 C26.5,0.6 26.9,2.8 26.9,4.5 C26.9,5.7 26.7,6.8 26.3,7.6 C25.7,8.7 24.7,9.4 23,9.8 C22.1,10 20.6,10.1 20.6,10.1 C20.1,10.1 19.7,10.2 19.3,10.2 C16.1,10.2 14.1,9 12.7,4.7 C11.5,1 11.3,-0.1 10.4,-4.5"/>
<path class="Note" transform="matrix(0.453543,0,0,0.453543,469.893,294.803)" d="M18.7,-13.6 C4.9,-13.6 0,-6.6 0,-0.1 C0,6.4 4.9,13.4 18.7,13.4 C32.5,13.4 37.3,6.4 37.3,-0.1 C37.3,-6.6 32.5,-13.6 18.7,-13.6 M10.4,-4.5 C10.3,-4.9 10.3,-5.3 10.3,-5.7 C10.3,-6.5 10.5,-7.3 10.9,-8 C11.6,-9 12.8,-9.7 14.3,-10 C15.6,-10.3 16.3,-10.5 18.9,-10.5 L19,-10.5 C23,-10.5 24.3,-6.8 25.4,-3 L25.7,-2 C26.5,0.6 26.9,2.8 26.9,4.5 C26.9,5.7 26.7,6.8 26.3,7.6 C25.7,8.7 24.7,9.4 23,9.8 C22.1,10 20.6,10.1 20.6,10.1 C20.1,10.1 19.7,10.2 19.3,10.2 C16.1,10.2 14.1,9 12.7,4.7 C11.5,1 11.3,-0.1 10.4,-4.5"/>
<path class="Note" transform="matrix(0.453543,0,0,0.453543,485.562,289.134)" d="M18.7,-13.6 C4.9,-13.6 0,-6.6 0,-0.1 C0,6.4 4.9,13.4 18.7,13.4 C32.5,13.4 37.3,6.4 37.3,-0.1 C37.3,-6.6 32.5,-13.6 18.7,-13.6 M10.4,-4.5 C10.3,-4.9 10.3,-5.3 10.3,-5.7 C10.3,-6.5 10.5,-7.3 10.9,-8 C11.6,-9 12.8,-9.7 14.3,-10 C15.6,-10.3 16.3,-10.5 18.9,-10.5 L19,-10.5 C23,-10.5 24.3,-6.8 25.4,-3 L25.7,-2 C26.5,0.6 26.9,2.8 26.9,4.5 C26.9,5.7 26.7,6.8 26.3,7.6 C25.7,8.7 24.7,9.4 23,9.8 C22.1,10 20.6,10.1 20.6,10.1 C20.1,10.1 19.7,10.2 19.3,10.2 C16.1,10.2 14.1,9 12.7,4.7 C11.5,1 11.3,-0.1 10.4,-4.5"/>
<path class="Note" transform="matrix(0.453543,0,0,0.453543,664.677,306.142)" d="M18.7,-13.6 C4.9,-13.6 0,-6.6 0,-0.1 C0,6.4 4.9,13.4 18.7,13.4 C32.5,13.4 37.3,6.4 37.3,-0.1 C37.3,-6.6 32.5,-13.6 18.7,-13.6 M10.4,-4.5 C10.3,-4.9 10.3,-5.3 10.3,-5.7 C10.3,-6.5 10.5,-7.3 10.9,-8 C11.6,-9 12.8,-9.7 14.3,-10 C15.6,-10.3 16.3,-10.5 18.9,-10.5 L19,-10.5 C23,-10.5 24.3,-6.8 25.4,-3 L25.7,-2 C26.5,0.6 26.9,2.8 26.9,4.5 C26.9,5.7 26.7,6.8 26.3,7.6 C25.7,8.7 24.7,9.4 23,9.8 C22.1,10 20.6,10.1 20.6,10.1 C20.1,10.1 19.7,10.2 19.3,10.2 C16.1,10.2 14.1,9 12.7,4.7 C11.5,1 11.3,-0.1 10.4,-4.5"/>
<path class="Note" transform="matrix(0.453543,0,0,0.453543,664.677,289.134)" d="M18.7,-13.6 C4.9,-13.6 0,-6.6 0,-0.1 C0,6.4 4.9,13.4 18.7,13.4 C32.5,13.4 37.3,6.4 37.3,-0.1 C37.3,-6.6 32.5,-13.6 18.7,-13.6 M10.4,-4.5 C10.3,-4.9 10.3,-5.3 10.3,-5.7 C10.3,-6.5 10.5,-7.3 10.9,-8 C11.6,-9 12.8,-9.7 14.3,-10 C15.6,-10.3 16.3,-10.5 18.9,-10.5 L19,-10.5 C23,-10.5 24.3,-6.8 25.4,-3 L25.7,-2 C26.5,0.6 26.9,2.8 26.9,4.5 C26.9,5.7 26.7,6.8 26.3,7.6 C25.7,8.7 24.7,9.4 23,9.8 C22.1,10 20.6,10.1 20.6,10.1 C20.1,10.1 19.7,10.2 19.3,10.2 C16.1,10.2 14.1,9 12.7,4.7 C11.5,1 11.3,-0.1 10.4,-4.5"/>
<path class="Note" transform="matrix(0.453543,0,0,0.453543,664.677,277.795)" d="M18.7,-13.6 C4.9,-13.6 0,-6.6 0,-0.1 C0,6.4 4.9,13.4 18.7,13.4 C32.5,13.4 37.3,6.4 37.3,-0.1 C37.3,-6.6 32.5,-13.6 18.7,-13.6 M10.4,-4.5 C10.3,-4.9 10.3,-5.3 10.3,-5.7 C10.3,-6.5 10.5,-7.3 10.9,-8 C11.6,-9 12.8,-9.7 14.3,-10 C15.6,-10.3 16.3,-10.5 18.9,-10.5 L19,-10.5 C23,-10.5 24.3,-6.8 25.4,-3 L25.7,-2 C26.5,0.6 26.9,2.8 26.9,4.5 C26.9,5.7 26.7,6.8 26.3,7.6 C25.7,8.7 24.7,9.4 23,9.8 C22.1,10 20.6,10.1 20.6,10.1 C20.1,10.1 19.7,10.2 19.3,10.2 C16.1,10.2 14.1,9 12.7,4.7 C11.5,1 11.3,-0.1 10.4,-4.5"/>
<path class="Note" d="M105.434,186.637 C104.7,186.637 104.334,185.851 104.334,184.278 L104.334,177.697 C104.334,177.068 104.64,176.754 105.254,176.754 C105.524,176.754 105.726,176.776 105.861,176.821 C106.34,175.983 107.126,175.279 108.219,174.71 C109.747,173.916 111.296,173.52 112.869,173.52 C114.111,173.52 114.733,173.984 114.733,174.912 C114.733,175.691 114.314,176.08 113.475,176.08 C112.876,176.08 112.307,175.945 111.768,175.676 C111.289,175.436 110.78,175.316 110.241,175.316 C109.312,175.316 107.942,175.923 106.13,177.136 C106.385,178.349 106.512,179.764 106.512,181.381 C106.512,184.885 106.153,186.637 105.434,186.637"/>
<path class="Note" d="M115.362,106.723 C117.383,105.451 118.851,104.41 119.764,103.601 C121.441,102.119 122.28,100.622 122.28,99.1092 C122.28,97.3422 121.097,96.4588 118.731,96.4588 C116.245,96.4588 113.655,98.2482 110.959,101.827 C109.133,104.253 107.837,106.544 107.074,108.7 C108.017,108.086 109.013,107.779 110.061,107.779 C111.049,107.779 111.835,108.221 112.419,109.104 C112.824,109.718 113.026,110.766 113.026,112.249 C113.026,113.582 112.322,115.146 110.915,116.943 C110.046,118.051 109.08,118.605 108.017,118.605 C106.669,118.605 105.726,118.336 105.187,117.797 C104.423,117.033 104.042,115.521 104.042,113.26 C104.042,109.456 105.576,105.713 108.646,102.029 C112.105,97.8813 115.422,95.8074 118.596,95.8074 C121.052,95.8074 122.886,96.3839 124.099,97.5369 C124.803,98.2107 125.155,99.184 125.155,100.457 C125.155,101.879 123.755,103.467 120.955,105.219 C119.487,106.147 117.623,106.649 115.362,106.723 M106.782,109.643 C106.407,110.901 106.22,112.107 106.22,113.26 C106.22,116 106.654,117.37 107.523,117.37 C108.347,117.37 108.99,116.786 109.455,115.618 C109.994,114.3 110.263,112.84 110.263,111.238 C110.263,109.816 109.792,109.104 108.848,109.104 C108.189,109.104 107.5,109.284 106.782,109.643"/>
<path class="Note" d="M105.434,152.621 C104.7,152.621 104.334,151.835 104.334,150.263 L104.334,143.682 C104.334,143.053 104.64,142.738 105.254,142.738 C105.524,142.738 105.726,142.761 105.861,142.806 C106.34,141.967 107.126,141.263 108.219,140.694 C109.747,139.901 111.296,139.504 112.869,139.504 C114.111,139.504 114.733,139.968 114.733,140.896 C114.733,141.675 114.314,142.064 113.475,142.064 C112.876,142.064 112.307,141.93 111.768,141.66 C111.289,141.42 110.78,141.301 110.241,141.301 C109.312,141.301 107.942,141.907 106.13,143.12 C106.385,144.333 106.512,145.748 106.512,147.365 C106.512,150.869 106.153,152.621 105.434,152.621"/>
<path class="Note" d="M92.5504,125.057 C92.6103,122.795 93.8606,120.789 96.3014,119.037 C98.4726,117.48 100.846,116.701 103.421,116.701 C107.03,116.701 110.212,118.116 112.967,120.946 C114.719,122.758 115.595,125.004 115.595,127.684 C115.595,130.095 114.951,131.945 113.664,133.232 C112.091,134.82 110.429,135.613 108.677,135.613 C107.479,135.613 106.551,135.344 105.892,134.805 C104.814,133.921 104.275,132.738 104.275,131.256 C104.275,129.339 105.233,127.587 107.15,126 C108.722,124.697 110.302,123.844 111.889,123.439 C111.47,122.721 110.938,122.047 110.295,121.418 C108.288,119.456 106.012,118.475 103.466,118.475 C100.816,118.475 98.6223,119.052 96.8854,120.205 C95.0885,121.388 93.6435,123.005 92.5504,125.057 M112.451,124.63 C111.627,125.393 110.804,126.209 109.98,127.078 C108.363,128.785 107.554,130.402 107.554,131.93 C107.554,133.562 107.929,134.378 108.677,134.378 C109.351,134.378 110.295,133.457 111.507,131.615 C112.481,130.148 112.967,128.8 112.967,127.572 C112.967,126.524 112.795,125.543 112.451,124.63"/>
<path class="Note" d="M291.33,158.309 C292.213,158.309 292.655,158.863 292.655,159.971 C292.655,160.749 292.168,161.91 291.195,163.452 C290.416,164.695 290.027,165.908 290.027,167.091 C290.027,167.765 291.008,168.102 292.97,168.102 C294.587,168.102 296.84,167.226 299.73,165.474 C296.825,168.274 294.302,169.674 292.161,169.674 C290.229,169.674 288.882,169.382 288.118,168.798 C287.923,168.648 287.759,168.468 287.624,168.259 C286.875,169.172 285.625,169.629 283.873,169.629 C282.196,169.629 280.908,169.284 280.01,168.596 C279.411,168.131 279.111,167.39 279.111,166.372 C279.111,164.755 280.069,162.988 281.986,161.071 C284.038,159.02 286.411,157.994 289.106,157.994 C289.78,157.994 290.274,158.241 290.589,158.735 C290.843,158.451 291.09,158.309 291.33,158.309 M287.309,167.248 C287.294,167.128 287.287,167.008 287.287,166.889 C287.287,166.829 288.051,164.74 289.578,160.622 C289.728,160.218 289.877,159.873 290.027,159.589 C289.443,159.469 288.867,159.409 288.298,159.409 C287.249,159.409 285.857,160.3 284.12,162.082 C282.563,163.669 281.784,165.039 281.784,166.192 C281.784,167.465 282.39,168.102 283.603,168.102 C285.071,168.102 286.306,167.817 287.309,167.248"/>
<path class="Note" d="M292.7,106.723 C294.721,105.451 296.189,104.41 297.102,103.601 C298.779,102.119 299.618,100.622 299.618,99.1092 C299.618,97.3422 298.435,96.4588 296.069,96.4588 C293.583,96.4588 290.993,98.2482 288.298,101.827 C286.471,104.253 285.176,106.544 284.412,108.7 C285.355,108.086 286.351,107.779 287.399,107.779 C288.388,107.779 289.174,108.221 289.758,109.104 C290.162,109.718 290.364,110.766 290.364,112.249 C290.364,113.582 289.66,115.146 288.253,116.943 C287.384,118.051 286.418,118.605 285.355,118.605 C284.008,118.605 283.064,118.336 282.525,117.797 C281.762,117.033 281.38,115.521 281.38,113.26 C281.38,109.456 282.915,105.713 285.984,102.029 C289.443,97.8813 292.76,95.8074 295.934,95.8074 C298.39,95.8074 300.224,96.3839 301.437,97.5369 C302.141,98.2107 302.493,99.184 302.493,100.457 C302.493,101.879 301.093,103.467 298.293,105.219 C296.825,106.147 294.961,106.649 292.7,106.723 M284.12,109.643 C283.746,110.901 283.558,112.107 283.558,113.26 C283.558,116 283.993,117.37 284.861,117.37 C285.685,117.37 286.329,116.786 286.793,115.618 C287.332,114.3 287.601,112.84 287.601,111.238 C287.601,109.816 287.13,109.104 286.186,109.104 C285.527,109.104 284.839,109.284 284.12,109.643"/>
<path class="Note" d="M291.33,90.2771 C292.213,90.2771 292.655,90.8311 292.655,91.9392 C292.655,92.7178 292.168,93.8783 291.195,95.4206 C290.416,96.6635 290.027,97.8764 290.027,99.0593 C290.027,99.7331 291.008,100.07 292.97,100.07 C294.587,100.07 296.84,99.1941 299.73,97.4421 C296.825,100.242 294.302,101.642 292.161,101.642 C290.229,101.642 288.882,101.35 288.118,100.766 C287.923,100.617 287.759,100.437 287.624,100.227 C286.875,101.141 285.625,101.597 283.873,101.597 C282.196,101.597 280.908,101.253 280.01,100.564 C279.411,100.1 279.111,99.3588 279.111,98.3406 C279.111,96.7234 280.069,94.9564 281.986,93.0398 C284.038,90.9883 286.411,89.9626 289.106,89.9626 C289.78,89.9626 290.274,90.2097 290.589,90.7038 C290.843,90.4193 291.09,90.2771 291.33,90.2771 M287.309,99.2165 C287.294,99.0967 287.287,98.977 287.287,98.8572 C287.287,98.7973 288.051,96.7084 289.578,92.5906 C289.728,92.1863 289.877,91.8419 290.027,91.5574 C289.443,91.4376 288.867,91.3777 288.298,91.3777 C287.249,91.3777 285.857,92.2686 284.12,94.0505 C282.563,95.6378 281.784,97.0079 281.784,98.1609 C281.784,99.4337 282.39,100.07 283.603,100.07 C285.071,100.07 286.306,99.7855 287.309,99.2165"/>
<path class="Note" d="M291.33,124.293 C292.213,124.293 292.655,124.847 292.655,125.955 C292.655,126.734 292.168,127.894 291.195,129.436 C290.416,130.679 290.027,131.892 290.027,133.075 C290.027,133.749 291.008,134.086 292.97,134.086 C294.587,134.086 296.84,133.21 299.73,131.458 C296.825,134.258 294.302,135.658 292.161,135.658 C290.229,135.658 288.882,135.366 288.118,134.782 C287.923,134.632 287.759,134.453 287.624,134.243 C286.875,135.156 285.625,135.613 283.873,135.613 C282.196,135.613 280.908,135.269 280.01,134.58 C279.411,134.116 279.111,133.375 279.111,132.356 C279.111,130.739 280.069,128.972 281.986,127.056 C284.038,125.004 286.411,123.978 289.106,123.978 C289.78,123.978 290.274,124.225 290.589,124.72 C290.843,124.435 291.09,124.293 291.33,124.293 M287.309,133.232 C287.294,133.112 287.287,132.993 287.287,132.873 C287.287,132.813 288.051,130.724 289.578,126.606 C289.728,126.202 289.877,125.858 290.027,125.573 C289.443,125.453 288.867,125.393 288.298,125.393 C287.249,125.393 285.857,126.284 284.12,128.066 C282.563,129.654 281.784,131.024 281.784,132.177 C281.784,133.449 282.39,134.086 283.603,134.086 C285.071,134.086 286.306,133.801 287.309,133.232"/>
<path class="Note" d="M471.146,206.719 C471.071,206.854 470.959,206.921 470.809,206.921 C470.674,206.921 470.502,206.861 470.292,206.742 C469.978,206.562 469.821,206.382 469.821,206.203 C469.821,206.143 469.843,206.068 469.888,205.978 C473.317,201.037 475.458,196.874 476.312,193.49 C476.372,193.385 476.477,193.332 476.626,193.332 C476.821,193.332 477.098,193.437 477.457,193.647 C477.952,193.931 478.199,194.186 478.199,194.411 C478.199,194.47 478.184,194.523 478.154,194.568 C477.016,197.802 474.68,201.853 471.146,206.719 M487.288,197.937 C488.172,197.937 488.614,198.491 488.614,199.599 C488.614,200.378 488.127,201.538 487.154,203.08 C486.375,204.323 485.986,205.536 485.986,206.719 C485.986,207.393 486.967,207.73 488.928,207.73 C490.545,207.73 492.799,206.854 495.689,205.102 C492.784,207.902 490.261,209.302 488.12,209.302 C486.188,209.302 484.84,209.01 484.077,208.426 C483.882,208.276 483.717,208.097 483.582,207.887 C482.834,208.801 481.583,209.257 479.831,209.257 C478.154,209.257 476.867,208.913 475.968,208.224 C475.369,207.76 475.07,207.019 475.07,206 C475.07,204.383 476.028,202.616 477.945,200.7 C479.996,198.648 482.37,197.622 485.065,197.622 C485.739,197.622 486.233,197.87 486.547,198.364 C486.802,198.079 487.049,197.937 487.288,197.937 M483.268,206.876 C483.253,206.757 483.246,206.637 483.246,206.517 C483.246,206.457 484.009,204.368 485.537,200.25 C485.686,199.846 485.836,199.502 485.986,199.217 C485.402,199.097 484.825,199.038 484.256,199.038 C483.208,199.038 481.816,199.928 480.079,201.71 C478.521,203.298 477.743,204.668 477.743,205.821 C477.743,207.094 478.349,207.73 479.562,207.73 C481.029,207.73 482.265,207.445 483.268,206.876"/>
<path class="Note" d="M485.097,158.309 C485.98,158.309 486.422,158.863 486.422,159.971 C486.422,160.749 485.936,161.91 484.962,163.452 C484.184,164.695 483.794,165.908 483.794,167.091 C483.794,167.765 484.775,168.102 486.737,168.102 C488.354,168.102 490.607,167.226 493.497,165.474 C490.592,168.274 488.069,169.674 485.928,169.674 C483.996,169.674 482.649,169.382 481.885,168.798 C481.69,168.648 481.526,168.468 481.391,168.259 C480.642,169.172 479.392,169.629 477.64,169.629 C475.963,169.629 474.675,169.284 473.777,168.596 C473.178,168.131 472.878,167.39 472.878,166.372 C472.878,164.755 473.837,162.988 475.753,161.071 C477.805,159.02 480.178,157.994 482.873,157.994 C483.547,157.994 484.041,158.241 484.356,158.735 C484.61,158.451 484.857,158.309 485.097,158.309 M481.076,167.248 C481.061,167.128 481.054,167.008 481.054,166.889 C481.054,166.829 481.818,164.74 483.345,160.622 C483.495,160.218 483.645,159.873 483.794,159.589 C483.21,159.469 482.634,159.409 482.065,159.409 C481.017,159.409 479.624,160.3 477.887,162.082 C476.33,163.669 475.551,165.039 475.551,166.192 C475.551,167.465 476.158,168.102 477.37,168.102 C478.838,168.102 480.073,167.817 481.076,167.248"/>
<path class="Note" d="M476.539,152.621 C475.806,152.621 475.439,151.835 475.439,150.263 L475.439,143.682 C475.439,143.053 475.746,142.738 476.36,142.738 C476.629,142.738 476.831,142.761 476.966,142.806 C477.445,141.967 478.231,141.263 479.325,140.694 C480.852,139.901 482.402,139.504 483.974,139.504 C485.217,139.504 485.838,139.968 485.838,140.896 C485.838,141.675 485.419,142.064 484.58,142.064 C483.981,142.064 483.412,141.93 482.873,141.66 C482.394,141.42 481.885,141.301 481.346,141.301 C480.418,141.301 479.047,141.907 477.236,143.12 C477.49,144.333 477.617,145.748 477.617,147.365 C477.617,150.869 477.258,152.621 476.539,152.621"/>
<path class="Note" d="M485.097,124.293 C485.98,124.293 486.422,124.847 486.422,125.955 C486.422,126.734 485.936,127.894 484.962,129.436 C484.184,130.679 483.794,131.892 483.794,133.075 C483.794,133.749 484.775,134.086 486.737,134.086 C488.354,134.086 490.607,133.21 493.497,131.458 C490.592,134.258 488.069,135.658 485.928,135.658 C483.996,135.658 482.649,135.366 481.885,134.782 C481.69,134.632 481.526,134.453 481.391,134.243 C480.642,135.156 479.392,135.613 477.64,135.613 C475.963,135.613 474.675,135.269 473.777,134.58 C473.178,134.116 472.878,133.375 472.878,132.356 C472.878,130.739 473.837,128.972 475.753,127.056 C477.805,125.004 480.178,123.978 482.873,123.978 C483.547,123.978 484.041,124.225 484.356,124.72 C484.61,124.435 484.857,124.293 485.097,124.293 M481.076,133.232 C481.061,133.112 481.054,132.993 481.054,132.873 C481.054,132.813 481.818,130.724 483.345,126.606 C483.495,126.202 483.645,125.858 483.794,125.573 C483.21,125.453 482.634,125.393 482.065,125.393 C481.017,125.393 479.624,126.284 477.887,128.066 C476.33,129.654 475.551,131.024 475.551,132.177 C475.551,133.449 476.158,134.086 477.37,134.086 C478.838,134.086 480.073,133.801 481.076,133.232"/>
<path class="Note" d="M681.251,106.723 C683.273,105.451 684.74,104.41 685.653,103.601 C687.331,102.119 688.169,100.622 688.169,99.1092 C688.169,97.3422 686.986,96.4588 684.62,96.4588 C682.135,96.4588 679.544,98.2482 676.849,101.827 C675.022,104.253 673.727,106.544 672.963,108.7 C673.906,108.086 674.902,107.779 675.95,107.779 C676.939,107.779 677.725,108.221 678.309,109.104 C678.713,109.718 678.915,110.766 678.915,112.249 C678.915,113.582 678.211,115.146 676.804,116.943 C675.935,118.051 674.97,118.605 673.906,118.605 C672.559,118.605 671.615,118.336 671.076,117.797 C670.313,117.033 669.931,115.521 669.931,113.26 C669.931,109.456 671.466,105.713 674.535,102.029 C677.994,97.8813 681.311,95.8074 684.485,95.8074 C686.941,95.8074 688.776,96.3839 689.988,97.5369 C690.692,98.2107 691.044,99.184 691.044,100.457 C691.044,101.879 689.644,103.467 686.844,105.219 C685.376,106.147 683.512,106.649 681.251,106.723 M672.671,109.643 C672.297,110.901 672.11,112.107 672.11,113.26 C672.11,116 672.544,117.37 673.412,117.37 C674.236,117.37 674.88,116.786 675.344,115.618 C675.883,114.3 676.152,112.84 676.152,111.238 C676.152,109.816 675.681,109.104 674.737,109.104 C674.079,109.104 673.39,109.284 672.671,109.643"/>
<path class="Note" d="M671.323,152.621 C670.59,152.621 670.223,151.835 670.223,150.263 L670.223,143.682 C670.223,143.053 670.53,142.738 671.144,142.738 C671.413,142.738 671.615,142.761 671.75,142.806 C672.229,141.967 673.015,141.263 674.109,140.694 C675.636,139.901 677.186,139.504 678.758,139.504 C680.001,139.504 680.622,139.968 680.622,140.896 C680.622,141.675 680.203,142.064 679.364,142.064 C678.765,142.064 678.196,141.93 677.657,141.66 C677.178,141.42 676.669,141.301 676.13,141.301 C675.202,141.301 673.832,141.907 672.02,143.12 C672.274,144.333 672.401,145.748 672.401,147.365 C672.401,150.869 672.042,152.621 671.323,152.621"/>
<path class="Note" d="M671.323,101.597 C670.59,101.597 670.223,100.811 670.223,99.239 L670.223,92.6579 C670.223,92.029 670.53,91.7146 671.144,91.7146 C671.413,91.7146 671.615,91.737 671.75,91.782 C672.229,90.9434 673.015,90.2396 674.109,89.6706 C675.636,88.877 677.186,88.4802 678.758,88.4802 C680.001,88.4802 680.622,88.9444 680.622,89.8728 C680.622,90.6514 680.203,91.0408 679.364,91.0408 C678.765,91.0408 678.196,90.906 677.657,90.6365 C677.178,90.3969 676.669,90.2771 676.13,90.2771 C675.202,90.2771 673.832,90.8835 672.02,92.0964 C672.274,93.3093 672.401,94.7243 672.401,96.3415 C672.401,99.8454 672.042,101.597 671.323,101.597"/>
<path class="Note" d="M658.44,125.057 C658.5,122.795 659.75,120.789 662.191,119.037 C664.362,117.48 666.735,116.701 669.311,116.701 C672.919,116.701 676.101,118.116 678.857,120.946 C680.609,122.758 681.485,125.004 681.485,127.684 C681.485,130.095 680.841,131.945 679.553,133.232 C677.981,134.82 676.319,135.613 674.567,135.613 C673.369,135.613 672.44,135.344 671.781,134.805 C670.703,133.921 670.164,132.738 670.164,131.256 C670.164,129.339 671.123,127.587 673.039,126 C674.612,124.697 676.191,123.844 677.779,123.439 C677.359,122.721 676.828,122.047 676.184,121.418 C674.177,119.456 671.901,118.475 669.356,118.475 C666.705,118.475 664.512,119.052 662.775,120.205 C660.978,121.388 659.533,123.005 658.44,125.057 M678.34,124.63 C677.517,125.393 676.693,126.209 675.869,127.078 C674.252,128.785 673.444,130.402 673.444,131.93 C673.444,133.562 673.818,134.378 674.567,134.378 C675.24,134.378 676.184,133.457 677.397,131.615 C678.37,130.148 678.857,128.8 678.857,127.572 C678.857,126.524 678.684,125.543 678.34,124.63"/>
<path class="Clef" transform="matrix(0.453543,0,0,0.453543,40.3271,417.755)" d="M25.4,-25.1 C17.8,-25.1 11.7,-20.7 11.6,-20.7 C5.8,-16.4 3.5,-11.3 2.6,-7.8 C2.1,-6 1.9,-4.2 1.9,-2.5 C1.9,-0.1 2.3,2.1 3.2,4 C4.4,6.7 6.7,8.6 9.7,9.6 C10.9,10 12.2,10.2 13.5,10.2 C15.7,10.2 18,9.6 19.9,8.5 C23,6.8 24.9,3.2 24.9,-0.7 C24.9,-4.2 23.1,-7.4 20.1,-9.3 C18,-10.7 16,-11.1 14.3,-11.1 C13.1,-11.1 12,-10.9 11.1,-10.6 C10.1,-10.2 8.4,-9.2 7.6,-8.5 C7.9,-10.4 9.1,-13.3 10.2,-14.9 C11.3,-16.5 13.5,-18.5 15.2,-19.4 C17.7,-20.8 20.9,-21.4 24.4,-21.4 C34.6,-21.4 39.6,-13.2 39.6,3.6 C39.6,12.9 36.1,21.8 33.1,27.7 C29.8,34.3 25.4,40.6 21.5,44.1 C11.1,53.6 1.3,58.1 1.2,58.1 C1.2,58.1 -0.3,59 0.1,60.5 C0.4,61.5 1.3,61.7 1.9,61.7 C2,61.7 2.3,61.6 2.4,61.6 C2.5,61.6 13.9,56.9 23,49.8 C28.1,46.1 32.7,42.1 36.7,37.8 C40.3,33.9 43.4,29.7 45.9,25.5 C50.3,18 52.8,10.2 52.8,3.5 C52.8,-4.8 50.6,-11.7 46.5,-16.6 C41.8,-22.2 34.7,-25.1 25.4,-25.1 M56.8,-12.4 C56.8,-9.6 59,-7.4 61.6,-7.4 C64.2,-7.4 66.4,-9.6 66.4,-12.4 C66.4,-15.2 64.2,-17.5 61.6,-17.5 C59,-17.5 56.8,-15.2 56.8,-12.4 M56.8,12.3 C56.8,15.1 59,17.4 61.6,17.4 C64.2,17.4 66.4,15.1 66.4,12.3 C66.4,9.5 64.2,7.2 61.6,7.2 C59,7.2 56.8,9.5 56.8,12.3"/>
<path class="Clef" transform="matrix(0.453543,0,0,0.453543,40.3271,300.472)" d="M63.37,-5.89004 C62.14,-11.32 59.5,-15.14 58.72,-16.1801 C55.5301,-20.45 51.52,-23.3 46.8301,-24.65 C43.72,-25.54 40.72,-25.65 38.3,-25.47 C37.2601,-31.4801 36.2601,-37.3601 35.35,-42.8101 C40.79,-48.97 44.42,-54.77 46.69,-59.07 C50.1601,-65.65 51.3101,-70.2301 51.3601,-70.4301 C53.0801,-75.64 53.44,-83.34 52.34,-91.55 C51.3301,-99.1 49.24,-105.81 46.89,-109.06 C45.8601,-110.49 44.8101,-111.22 43.77,-111.22 C42.55,-111.22 40.04,-109.98 37.15,-107.21 C34.85,-105.01 31.5801,-101.12 29.02,-95.1101 C26.02,-88.05 25.8101,-78.5601 26.1601,-71.84 C26.54,-64.57 27.65,-58.8801 27.6601,-58.8301 C27.6801,-58.74 27.94,-57.24 28.39,-54.67 C28.1601,-54.44 27.92,-54.22 27.67,-53.9801 C26.6301,-52.9801 25.44,-51.84 24.0601,-50.4601 C23.2,-49.6 22.25,-48.69 21.25,-47.72 C12.79,-39.57 0,-27.25 0,-8.1 C0,-3.4 0.9,1.01992 2.68008,5.02998 C4.27002,8.62998 6.57002,11.91 9.5,14.78 C17.2301,22.33 27.82,25.5399 34.8801,25.38 C37.8301,25.31 40.4601,25.0699 42.85,24.6199 C44.6801,34.2199 45.82,41.25 45.8601,46.5899 C45.9,53.1 44.25,57.0699 40.35,59.8399 C37.92,61.5699 35.1101,62.5199 32.0101,62.6699 C29.42,62.7899 27.1601,62.3199 25.7301,61.91 L25.72,61.91 C25.72,61.91 25.4301,61.83 25.42,61.63 C25.4101,61.45 25.7601,61.4 25.77,61.4 L25.79,61.4 C27.7101,60.96 31.2801,59.73 33.64,56.43 C35.44,53.91 36.3101,49.2899 34.47,45.35 C33.3601,42.96 30.85,40.01 25.2301,39.56 C22.74,39.36 20.47,39.8699 18.47,41.0699 C16.6601,42.15 15.1601,43.7899 14.1101,45.7899 C11.65,50.4899 12.1101,56.2199 15.24,60.06 C18.2,63.68 22.82,65.9899 28.25,66.5699 C29.1,66.66 29.95,66.7 30.8,66.7 C31.5101,66.7 32.22,66.6699 32.92,66.61 C31.72,66.9399 30.64,67.4899 29.77,68.25 C28.2801,69.5399 27.44,71.38 27.44,73.41 C27.44,75.28 28.0601,76.65 29.55,78.0399 C28.4101,78.5 27.55,78.98 26.79,79.56 C25.25,80.73 24.34,82.46 24.34,84.1899 C24.34,87.45 27.3,89.63 31.72,89.63 C37.1301,89.63 40.9101,86.63 40.9101,82.35 C40.9101,80.1199 39.9101,78.18 38.0801,76.83 C41.0101,75.6199 42.37,73.9399 42.37,71.56 C42.39,70.05 41.69,68.61 40.49,67.6899 C39.2801,66.7399 37.62,66.2399 35.69,66.2399 L35.5101,66.2399 C38.2801,65.7 40.92,64.7 43.2101,63.28 C46.87,60.71 48.99,56.73 49.67,51.1 C50.2301,46.46 49.84,40.55 48.44,32.48 C48.0801,30.3899 47.54,27.36 46.8801,23.6 C52.6301,21.68 56.79,18.11 60.5601,12.26 C63.85,6.51992 64.8,0.419922 63.37,-5.89004 M32.39,87.5399 C30.19,87.5399 28.7301,86.1199 28.7301,84.01 C28.7301,82.11 29.65,80.5 31.32,79.4699 C31.6801,79.66 31.77,79.71 32.1101,79.88 C33.3,80.48 33.3,80.48 33.55,80.63 L33.5601,80.6399 C35.47,81.73 36.25,82.76 36.25,84.18 C36.24,86.0899 34.59,87.5399 32.39,87.5399 M38.3101,71.63 C38.3101,73.2699 37.7301,74.3399 36.1801,75.53 C34.74,74.78 34.35,74.56 33.9801,74.3399 L33.8801,74.28 C32.3301,73.3399 31.85,72.66 31.85,71.4 C31.85,69.6 33.2301,68.3399 35.19,68.3399 C37.17,68.35 38.3101,69.55 38.3101,71.63 M33.15,-83.8101 C34.9301,-89.55 37.67,-92.8 39.6601,-94.5301 C41.4101,-96.05 43.0601,-96.7601 43.9801,-96.7601 C44.12,-96.7601 44.24,-96.74 44.34,-96.7101 C44.8,-96.57 45.3301,-96 45.8,-95.1301 C48.1101,-90.84 47.37,-84.1301 46.0301,-79.69 C44.4,-74.29 41.4801,-68.6801 32.69,-59.0601 C32.52,-60.17 32.3601,-61.22 32.2101,-62.2 C30.95,-70.49 31.27,-77.7601 33.15,-83.8101 M29.15,20.31 C24.5101,19.0899 20.0801,16.5899 16.32,13.0899 C15.0101,11.86 13.14,9.68994 11.67,6.3 C10.3101,3.13994 9.65,-0.290039 9.7,-3.88008 C9.77002,-8.57002 11.0801,-13.39 13.59,-18.1801 C16.5101,-23.7601 21.07,-29.29 27.1301,-34.62 C28.5801,-35.9 29.95,-37.1801 31.24,-38.4601 C32,-34.2 32.8301,-29.5101 33.7101,-24.6301 C29.8601,-23.3601 25.1101,-20.2101 22,-14.5601 C18.47,-7.99004 18.6101,-2.47002 19.34,1.00996 C20.2801,5.46992 22.8101,9.22998 26.27,11.3199 C27.2,11.88 31.3301,14.01 33.17,13.43 C33.54,13.31 33.8101,13.0899 33.95,12.76 C34.4601,11.5899 33.44,10.95 31.8801,9.98994 C31.2801,9.61992 30.6101,9.2 29.8801,8.66992 C26.5601,6.17998 25.1101,1.72998 26.1801,-2.65 C26.7601,-5.05 28.04,-7.21006 29.8801,-8.91006 C31.55,-10.4601 33.59,-11.5601 35.97,-12.2 C38.0101,-0.960059 40.07,10.1899 41.7101,18.55 C41.84,19.2399 41.9801,19.91 42.1101,20.58 C37.7101,21.51 33.37,21.4199 29.15,20.31 M54.9,10.1 C53.7301,13.28 51.27,17.35 46.14,19.41 C46.07,18.9899 45.99,18.56 45.9101,18.13 C44.3601,9.36992 42.4301,-1.61006 40.47,-12.87 C50.82,-13.35 55.09,-5.91006 55.9801,-1.08008 C56.45,1.45 56.45,5.88994 54.9,10.1"/>
<path class="FiguredBass" d="M103.4,478.132 C103.435,478.132 103.512,478.056 103.629,477.903 C104.133,477.188 104.836,476.831 105.738,476.831 C106.465,476.831 107.15,477.1 107.795,477.639 C108.439,478.179 108.973,478.448 109.394,478.448 C109.851,478.448 110.285,478.313 110.695,478.044 C111.105,477.774 111.431,477.505 111.671,477.235 C111.911,476.966 112.066,476.831 112.137,476.831 C112.254,476.831 112.359,476.869 112.453,476.945 C112.547,477.021 112.594,477.118 112.594,477.235 C112.594,477.317 112.353,477.722 111.873,478.448 C111.392,479.175 110.859,480.015 110.273,480.971 C109.687,481.926 109.154,483.118 108.674,484.548 C108.193,485.977 107.953,487.343 107.953,488.643 C107.953,489.147 108.006,489.727 108.111,490.384 C108.193,490.888 108.193,491.175 108.111,491.245 C108.053,491.304 107.953,491.333 107.812,491.333 C107.754,491.333 107.481,491.257 106.995,491.104 C106.509,490.952 106.043,490.876 105.598,490.876 C105.199,490.876 104.739,490.952 104.218,491.104 C103.696,491.257 103.406,491.333 103.348,491.333 C103.219,491.333 103.113,491.28 103.031,491.175 C102.949,491.069 102.937,490.958 102.996,490.841 C103.687,489.188 104.528,487.58 105.518,486.015 C106.509,484.451 107.748,482.649 109.236,480.61 C108.674,480.915 108.105,481.067 107.531,481.067 C106.922,481.067 106.306,480.795 105.685,480.25 C105.064,479.705 104.555,479.432 104.156,479.432 C103.863,479.432 103.608,479.599 103.391,479.933 C103.175,480.267 103.066,480.768 103.066,481.436 L103.066,483.598 C103.066,483.891 102.931,484.038 102.662,484.038 C102.369,484.038 102.223,483.891 102.223,483.598 L102.223,477.27 C102.223,476.977 102.369,476.831 102.662,476.831 C102.931,476.831 103.066,476.977 103.066,477.27 L103.066,477.675 C103.066,477.768 103.09,477.85 103.137,477.921 C103.277,478.061 103.365,478.132 103.4,478.132"/>
<path class="FiguredBass" d="M285.115,477.499 C284.248,477.499 283.671,477.847 283.384,478.545 C283.097,479.242 282.953,480.229 282.953,481.507 L282.953,483.581 C283.563,483.335 284.09,483.206 284.535,483.194 C286.059,483.194 287.257,483.531 288.13,484.205 C289.003,484.879 289.44,485.881 289.44,487.211 C289.44,488.541 288.997,489.546 288.112,490.225 C287.228,490.905 286.035,491.245 284.535,491.245 C283,491.245 281.799,490.533 280.932,489.109 C280.065,487.685 279.631,485.995 279.631,484.038 C279.631,482.093 280.135,480.405 281.143,478.975 C282.151,477.546 283.475,476.831 285.115,476.831 C286.194,476.831 287.125,477.103 287.91,477.648 C288.695,478.193 289.088,478.911 289.088,479.802 C289.088,480.317 288.901,480.763 288.526,481.138 C288.151,481.513 287.702,481.7 287.181,481.7 C286.659,481.7 286.211,481.513 285.836,481.138 C285.461,480.763 285.274,480.317 285.274,479.802 C285.274,479.298 285.461,478.852 285.836,478.466 C285.965,478.313 286.147,478.184 286.381,478.079 C286.322,477.927 286.205,477.809 286.029,477.727 C285.772,477.575 285.467,477.499 285.115,477.499 M285.977,484.688 C285.766,484.138 285.303,483.862 284.588,483.862 C283.873,483.862 283.431,484.138 283.261,484.688 C283.091,485.239 283.006,486.077 283.006,487.202 C283.006,488.526 283.091,489.417 283.261,489.874 C283.431,490.331 283.873,490.559 284.588,490.559 C285.303,490.559 285.766,490.284 285.977,489.733 C286.188,489.182 286.293,488.342 286.293,487.211 C286.293,486.08 286.188,485.239 285.977,484.688"/>
<path class="FiguredBass" d="M280.826,496.862 C280.826,496.862 281.108,496.903 281.67,496.985 C281.916,497.02 282.192,497.056 282.496,497.091 C283.305,497.184 284.084,497.231 284.834,497.231 C285.584,497.231 286.375,497.184 287.207,497.091 C287.535,497.056 287.822,497.02 288.069,496.985 L288.93,496.862 C289.106,496.862 289.237,496.921 289.325,497.038 C289.413,497.155 289.404,497.249 289.299,497.319 C287.506,499.112 284.981,500.009 281.723,500.009 C281.594,500.009 281.48,500.056 281.38,500.149 C281.28,500.243 281.231,500.36 281.231,500.501 L281.231,503.261 C282.063,502.44 283.07,502.03 284.254,502.03 C285.965,502.03 287.286,502.414 288.218,503.181 C289.15,503.949 289.615,505.112 289.615,506.671 C289.615,507.995 289.088,509.094 288.033,509.967 C286.979,510.84 285.719,511.276 284.254,511.276 C282.988,511.276 281.89,510.989 280.958,510.415 C280.027,509.841 279.561,509.044 279.561,508.024 C279.561,507.509 279.748,507.06 280.123,506.68 C280.498,506.299 280.946,506.108 281.468,506.108 C281.989,506.108 282.432,506.296 282.795,506.671 C283.158,507.046 283.34,507.497 283.34,508.024 C283.34,508.259 283.147,508.514 282.76,508.789 C282.373,509.064 282.18,509.319 282.18,509.554 C282.18,510.257 282.871,510.608 284.254,510.608 C285.602,510.608 286.276,509.296 286.276,506.671 C286.276,504.139 285.602,502.868 284.254,502.856 C283.047,502.856 282.203,503.102 281.723,503.595 C281.242,504.087 280.944,504.333 280.826,504.333 C280.533,504.333 280.393,504.186 280.404,503.893 L280.404,497.319 C280.404,497.19 280.445,497.082 280.527,496.994 C280.61,496.906 280.709,496.862 280.826,496.862"/>
<path class="FiguredBass" d="M478.759,477.2 C479.205,477.2 479.673,477.136 480.166,477.007 L480.957,476.796 C481.109,476.796 481.229,476.854 481.317,476.972 C481.405,477.089 481.396,477.194 481.291,477.288 L473.117,486.798 L477.916,486.798 L477.916,483.036 C477.916,482.766 477.989,482.558 478.135,482.412 C478.282,482.265 478.469,482.148 478.698,482.06 C478.926,481.972 479.225,481.712 479.594,481.278 C479.964,480.845 480.318,480.259 480.658,479.52 C480.716,479.403 480.804,479.345 480.922,479.345 C481.168,479.345 481.291,479.479 481.291,479.749 L481.291,486.798 L483.365,486.798 C483.658,486.798 483.804,486.932 483.804,487.202 C483.804,487.495 483.658,487.641 483.365,487.641 L481.291,487.641 L481.291,487.87 C481.291,488.597 481.484,489.229 481.871,489.768 C482.257,490.307 482.756,490.577 483.365,490.577 C483.599,490.577 483.716,490.682 483.716,490.893 C483.716,491.128 483.599,491.245 483.365,491.245 C482.943,491.245 482.316,491.183 481.484,491.06 C480.652,490.937 480.022,490.876 479.594,490.876 C479.167,490.876 478.537,490.937 477.705,491.06 C476.873,491.183 476.246,491.245 475.824,491.245 C475.59,491.245 475.472,491.128 475.472,490.893 C475.472,490.682 475.59,490.577 475.824,490.577 C476.433,490.577 476.934,490.307 477.327,489.768 C477.719,489.229 477.916,488.597 477.916,487.87 L477.916,487.641 L473.117,487.641 C472.812,487.641 472.587,487.568 472.44,487.422 C472.294,487.275 472.22,487.126 472.22,486.973 C472.22,486.915 472.358,486.713 472.633,486.367 C472.909,486.021 473.246,485.561 473.644,484.987 C474.043,484.413 474.438,483.76 474.831,483.027 C475.223,482.295 475.557,481.416 475.833,480.39 C476.108,479.365 476.246,478.331 476.246,477.288 C476.246,476.983 476.375,476.831 476.632,476.831 C476.668,476.831 476.791,476.86 477.002,476.919 C477.213,476.977 477.482,477.039 477.81,477.103 C478.138,477.168 478.455,477.2 478.759,477.2"/>
<path class="FiguredBass" d="M481.132,503.63 C481.132,503.817 481.238,503.999 481.449,504.175 C481.66,504.35 481.891,504.517 482.143,504.676 C482.395,504.834 482.627,505.133 482.838,505.572 C483.048,506.012 483.154,506.565 483.154,507.233 C483.154,508.522 482.668,509.518 481.695,510.222 C480.722,510.925 479.492,511.276 478.004,511.276 C476.808,511.276 475.768,510.977 474.883,510.38 C473.999,509.782 473.556,508.997 473.556,508.024 C473.556,507.509 473.744,507.06 474.119,506.68 C474.494,506.299 474.942,506.108 475.464,506.108 C475.985,506.108 476.427,506.296 476.791,506.671 C477.154,507.046 477.336,507.497 477.336,508.024 C477.336,508.259 477.142,508.514 476.756,508.789 C476.369,509.064 476.175,509.319 476.175,509.554 C476.175,509.917 476.354,510.183 476.712,510.353 C477.069,510.523 477.5,510.608 478.004,510.608 C478.66,510.608 479.126,510.283 479.401,509.633 C479.676,508.982 479.814,508.182 479.814,507.233 L479.814,506.776 C479.814,506.143 479.794,505.663 479.753,505.335 C479.712,505.007 479.583,504.714 479.366,504.456 C479.149,504.198 478.818,504.069 478.373,504.069 L476.07,504.069 C475.8,504.069 475.666,503.923 475.666,503.63 C475.666,503.36 475.8,503.225 476.07,503.225 L478.373,503.225 C478.853,503.225 479.228,503.044 479.498,502.681 C479.591,502.552 479.668,502.341 479.726,502.048 C479.785,501.661 479.814,501.104 479.814,500.378 L479.814,500.149 C479.814,498.403 479.17,497.53 477.881,497.53 C476.744,497.53 476.175,497.847 476.175,498.479 C476.175,498.69 476.348,498.916 476.694,499.156 C477.04,499.396 477.213,499.622 477.213,499.833 C477.213,500.29 477.051,500.682 476.729,501.011 C476.407,501.339 476.014,501.503 475.551,501.503 C475.089,501.503 474.699,501.339 474.382,501.011 C474.066,500.682 473.908,500.29 473.908,499.833 C473.908,498.931 474.3,498.21 475.086,497.671 C475.871,497.132 476.802,496.862 477.881,496.862 C479.298,496.862 480.465,497.135 481.379,497.68 C482.293,498.224 482.75,499.048 482.75,500.149 C482.75,500.934 482.668,501.544 482.504,501.977 C482.34,502.411 482.152,502.675 481.941,502.768 C481.73,502.862 481.543,502.971 481.379,503.094 C481.215,503.217 481.132,503.395 481.132,503.63"/>
<path class="FiguredBass" d="M674.458,491.245 C673.321,491.245 672.495,490.929 671.979,490.296 C671.791,490.061 671.551,489.845 671.258,489.645 C670.965,489.446 670.643,489.347 670.291,489.347 C669.834,489.347 669.424,489.49 669.061,489.777 C668.698,490.064 668.516,490.448 668.516,490.929 C668.516,491.139 668.411,491.245 668.2,491.245 C667.965,491.245 667.848,491.139 667.848,490.929 C667.848,490.214 668.015,489.56 668.349,488.969 C668.683,488.377 669.102,487.879 669.606,487.474 C670.11,487.07 670.655,486.637 671.241,486.174 C671.827,485.711 672.369,485.263 672.867,484.829 C673.365,484.395 673.781,483.847 674.115,483.185 C674.449,482.523 674.616,481.8 674.616,481.014 C674.616,480.03 674.455,479.198 674.132,478.518 C673.81,477.839 673.303,477.499 672.612,477.499 C672.213,477.499 671.868,477.596 671.575,477.789 C671.282,477.982 671.135,478.237 671.135,478.554 C671.135,478.8 671.302,479.122 671.636,479.52 C671.97,479.919 672.137,480.253 672.137,480.522 C672.137,481.085 671.947,481.556 671.566,481.937 C671.185,482.318 670.725,482.509 670.186,482.509 C669.624,482.509 669.152,482.312 668.771,481.92 C668.39,481.527 668.2,481.061 668.2,480.522 C668.2,479.444 668.63,478.559 669.492,477.868 C670.353,477.177 671.393,476.831 672.612,476.831 C674.053,476.831 675.31,477.221 676.382,478 C677.455,478.779 677.991,479.784 677.991,481.014 C677.991,481.847 677.841,482.567 677.542,483.177 C677.244,483.786 676.816,484.278 676.259,484.653 C675.703,485.028 675.146,485.347 674.589,485.611 C674.033,485.875 673.379,486.159 672.629,486.464 C671.879,486.768 671.276,487.067 670.819,487.36 C671.065,487.302 671.317,487.272 671.575,487.272 C672.442,487.272 673.344,487.554 674.282,488.116 C675.219,488.679 675.958,488.96 676.497,488.96 C676.801,488.96 677.05,488.904 677.244,488.793 C677.437,488.681 677.563,488.558 677.622,488.424 C677.68,488.289 677.748,488.163 677.824,488.046 C677.9,487.929 677.985,487.87 678.079,487.87 C678.313,487.87 678.43,487.987 678.43,488.222 C678.43,488.725 678.067,489.355 677.34,490.111 C676.614,490.867 675.653,491.245 674.458,491.245"/>
<path class="FiguredBass" d="M110.027,343.639 C110.027,343.826 110.133,344.008 110.344,344.184 C110.555,344.359 110.786,344.526 111.038,344.684 C111.29,344.843 111.521,345.142 111.732,345.581 C111.943,346.02 112.049,346.574 112.049,347.242 C112.049,348.531 111.562,349.527 110.59,350.23 C109.617,350.934 108.387,351.285 106.898,351.285 C105.703,351.285 104.663,350.986 103.778,350.389 C102.893,349.791 102.451,349.006 102.451,348.033 C102.451,347.517 102.639,347.069 103.014,346.688 C103.389,346.308 103.837,346.117 104.358,346.117 C104.88,346.117 105.322,346.305 105.685,346.68 C106.049,347.055 106.23,347.506 106.23,348.033 C106.23,348.267 106.037,348.522 105.65,348.798 C105.264,349.073 105.07,349.328 105.07,349.562 C105.07,349.926 105.249,350.192 105.606,350.362 C105.964,350.532 106.394,350.617 106.898,350.617 C107.555,350.617 108.02,350.292 108.296,349.642 C108.571,348.991 108.709,348.191 108.709,347.242 L108.709,346.785 C108.709,346.152 108.688,345.672 108.647,345.344 C108.606,345.016 108.477,344.723 108.261,344.465 C108.044,344.207 107.713,344.078 107.267,344.078 L104.965,344.078 C104.695,344.078 104.56,343.932 104.56,343.639 C104.56,343.369 104.695,343.234 104.965,343.234 L107.267,343.234 C107.748,343.234 108.123,343.053 108.392,342.689 C108.486,342.56 108.562,342.35 108.621,342.057 C108.68,341.67 108.709,341.113 108.709,340.387 L108.709,340.158 C108.709,338.412 108.064,337.539 106.775,337.539 C105.639,337.539 105.07,337.855 105.07,338.488 C105.07,338.699 105.243,338.925 105.589,339.165 C105.934,339.405 106.107,339.631 106.107,339.842 C106.107,340.299 105.946,340.691 105.624,341.019 C105.302,341.348 104.909,341.512 104.446,341.512 C103.983,341.512 103.594,341.348 103.277,341.019 C102.961,340.691 102.803,340.299 102.803,339.842 C102.803,338.939 103.195,338.219 103.98,337.68 C104.765,337.141 105.697,336.871 106.775,336.871 C108.193,336.871 109.359,337.143 110.273,337.688 C111.187,338.233 111.644,339.057 111.644,340.158 C111.644,340.943 111.562,341.553 111.398,341.986 C111.234,342.42 111.047,342.684 110.836,342.777 C110.625,342.871 110.437,342.979 110.273,343.102 C110.109,343.225 110.027,343.404 110.027,343.639"/>
<path class="FiguredBass" d="M103.4,358.203 C103.435,358.203 103.512,358.127 103.629,357.975 C104.133,357.26 104.836,356.902 105.738,356.902 C106.465,356.902 107.15,357.172 107.795,357.711 C108.439,358.25 108.973,358.519 109.394,358.519 C109.851,358.519 110.285,358.385 110.695,358.115 C111.105,357.846 111.431,357.576 111.671,357.307 C111.911,357.037 112.066,356.902 112.137,356.902 C112.254,356.902 112.359,356.94 112.453,357.017 C112.547,357.093 112.594,357.189 112.594,357.307 C112.594,357.389 112.353,357.793 111.873,358.519 C111.392,359.246 110.859,360.087 110.273,361.042 C109.687,361.997 109.154,363.189 108.674,364.619 C108.193,366.049 107.953,367.414 107.953,368.715 C107.953,369.219 108.006,369.799 108.111,370.455 C108.193,370.959 108.193,371.246 108.111,371.316 C108.053,371.375 107.953,371.404 107.812,371.404 C107.754,371.404 107.481,371.328 106.995,371.176 C106.509,371.023 106.043,370.947 105.598,370.947 C105.199,370.947 104.739,371.023 104.218,371.176 C103.696,371.328 103.406,371.404 103.348,371.404 C103.219,371.404 103.113,371.351 103.031,371.246 C102.949,371.141 102.937,371.029 102.996,370.912 C103.687,369.26 104.528,367.651 105.518,366.087 C106.509,364.522 107.748,362.721 109.236,360.682 C108.674,360.986 108.105,361.139 107.531,361.139 C106.922,361.139 106.306,360.866 105.685,360.321 C105.064,359.776 104.555,359.504 104.156,359.504 C103.863,359.504 103.608,359.671 103.391,360.005 C103.175,360.339 103.066,360.84 103.066,361.508 L103.066,363.67 C103.066,363.963 102.931,364.109 102.662,364.109 C102.369,364.109 102.223,363.963 102.223,363.67 L102.223,357.342 C102.223,357.049 102.369,356.902 102.662,356.902 C102.931,356.902 103.066,357.049 103.066,357.342 L103.066,357.746 C103.066,357.84 103.09,357.922 103.137,357.992 C103.277,358.133 103.365,358.203 103.4,358.203"/>
<path class="FiguredBass" d="M103.488,376.934 C103.488,376.934 103.769,376.975 104.332,377.057 C104.578,377.092 104.853,377.127 105.158,377.162 C105.967,377.256 106.746,377.303 107.496,377.303 C108.246,377.303 109.037,377.256 109.869,377.162 C110.197,377.127 110.484,377.092 110.73,377.057 L111.592,376.934 C111.767,376.934 111.899,376.992 111.987,377.109 C112.075,377.226 112.066,377.32 111.961,377.391 C110.168,379.184 107.642,380.08 104.385,380.08 C104.256,380.08 104.141,380.127 104.042,380.221 C103.942,380.314 103.892,380.432 103.892,380.572 L103.892,383.332 C104.724,382.512 105.732,382.101 106.916,382.101 C108.627,382.101 109.948,382.485 110.88,383.253 C111.811,384.02 112.277,385.184 112.277,386.742 C112.277,388.066 111.75,389.165 110.695,390.038 C109.64,390.911 108.381,391.348 106.916,391.348 C105.65,391.348 104.552,391.06 103.62,390.486 C102.688,389.912 102.223,389.115 102.223,388.096 C102.223,387.58 102.41,387.132 102.785,386.751 C103.16,386.37 103.608,386.18 104.13,386.18 C104.651,386.18 105.094,386.367 105.457,386.742 C105.82,387.117 106.002,387.568 106.002,388.096 C106.002,388.33 105.808,388.585 105.422,388.86 C105.035,389.136 104.842,389.391 104.842,389.625 C104.842,390.328 105.533,390.68 106.916,390.68 C108.264,390.68 108.937,389.367 108.937,386.742 C108.937,384.211 108.264,382.939 106.916,382.928 C105.709,382.928 104.865,383.174 104.385,383.666 C103.904,384.158 103.605,384.404 103.488,384.404 C103.195,384.404 103.055,384.258 103.066,383.965 L103.066,377.391 C103.066,377.262 103.107,377.153 103.189,377.065 C103.271,376.977 103.371,376.934 103.488,376.934"/>
<path class="FiguredBass" d="M285.115,337.539 C284.248,337.539 283.671,337.888 283.384,338.585 C283.097,339.282 282.953,340.269 282.953,341.547 L282.953,343.621 C283.563,343.375 284.09,343.246 284.535,343.234 C286.059,343.234 287.257,343.571 288.13,344.245 C289.003,344.919 289.44,345.921 289.44,347.251 C289.44,348.581 288.997,349.586 288.112,350.266 C287.228,350.945 286.035,351.285 284.535,351.285 C283,351.285 281.799,350.573 280.932,349.149 C280.065,347.725 279.631,346.035 279.631,344.078 C279.631,342.133 280.135,340.445 281.143,339.016 C282.151,337.586 283.475,336.871 285.115,336.871 C286.194,336.871 287.125,337.143 287.91,337.688 C288.695,338.233 289.088,338.951 289.088,339.842 C289.088,340.357 288.901,340.803 288.526,341.178 C288.151,341.553 287.702,341.74 287.181,341.74 C286.659,341.74 286.211,341.553 285.836,341.178 C285.461,340.803 285.274,340.357 285.274,339.842 C285.274,339.338 285.461,338.892 285.836,338.506 C285.965,338.353 286.147,338.225 286.381,338.119 C286.322,337.967 286.205,337.85 286.029,337.767 C285.772,337.615 285.467,337.539 285.115,337.539 M285.977,344.728 C285.766,344.178 285.303,343.902 284.588,343.902 C283.873,343.902 283.431,344.178 283.261,344.728 C283.091,345.279 283.006,346.117 283.006,347.242 C283.006,348.566 283.091,349.457 283.261,349.914 C283.431,350.371 283.873,350.6 284.588,350.6 C285.303,350.6 285.766,350.324 285.977,349.773 C286.188,349.223 286.293,348.382 286.293,347.251 C286.293,346.12 286.188,345.279 285.977,344.728"/>
<path class="FiguredBass" d="M280.826,356.902 C280.826,356.902 281.108,356.943 281.67,357.025 C281.916,357.06 282.192,357.096 282.496,357.131 C283.305,357.225 284.084,357.271 284.834,357.271 C285.584,357.271 286.375,357.225 287.207,357.131 C287.535,357.096 287.822,357.06 288.069,357.025 L288.93,356.902 C289.106,356.902 289.237,356.961 289.325,357.078 C289.413,357.195 289.404,357.289 289.299,357.359 C287.506,359.152 284.981,360.049 281.723,360.049 C281.594,360.049 281.48,360.096 281.38,360.189 C281.28,360.283 281.231,360.4 281.231,360.541 L281.231,363.301 C282.063,362.48 283.07,362.07 284.254,362.07 C285.965,362.07 287.286,362.454 288.218,363.222 C289.15,363.989 289.615,365.152 289.615,366.711 C289.615,368.035 289.088,369.134 288.033,370.007 C286.979,370.88 285.719,371.316 284.254,371.316 C282.988,371.316 281.89,371.029 280.958,370.455 C280.027,369.881 279.561,369.084 279.561,368.064 C279.561,367.549 279.748,367.1 280.123,366.72 C280.498,366.339 280.946,366.148 281.468,366.148 C281.989,366.148 282.432,366.336 282.795,366.711 C283.158,367.086 283.34,367.537 283.34,368.064 C283.34,368.299 283.147,368.554 282.76,368.829 C282.373,369.104 282.18,369.359 282.18,369.594 C282.18,370.297 282.871,370.648 284.254,370.648 C285.602,370.648 286.276,369.336 286.276,366.711 C286.276,364.18 285.602,362.908 284.254,362.896 C283.047,362.896 282.203,363.142 281.723,363.635 C281.242,364.127 280.944,364.373 280.826,364.373 C280.533,364.373 280.393,364.226 280.404,363.934 L280.404,357.359 C280.404,357.23 280.445,357.122 280.527,357.034 C280.61,356.946 280.709,356.902 280.826,356.902"/>
<path class="FiguredBass" d="M287.365,383.701 C287.365,383.889 287.471,384.07 287.682,384.246 C287.893,384.422 288.124,384.589 288.376,384.747 C288.628,384.905 288.86,385.204 289.07,385.643 C289.281,386.083 289.387,386.637 289.387,387.305 C289.387,388.594 288.901,389.59 287.928,390.293 C286.955,390.996 285.725,391.348 284.236,391.348 C283.041,391.348 282.001,391.049 281.116,390.451 C280.232,389.853 279.789,389.068 279.789,388.096 C279.789,387.58 279.977,387.132 280.352,386.751 C280.727,386.37 281.175,386.18 281.696,386.18 C282.218,386.18 282.66,386.367 283.024,386.742 C283.387,387.117 283.569,387.568 283.569,388.096 C283.569,388.33 283.375,388.585 282.988,388.86 C282.602,389.136 282.408,389.391 282.408,389.625 C282.408,389.988 282.587,390.255 282.944,390.425 C283.302,390.595 283.733,390.68 284.236,390.68 C284.893,390.68 285.359,390.354 285.634,389.704 C285.909,389.054 286.047,388.254 286.047,387.305 L286.047,386.848 C286.047,386.215 286.027,385.734 285.986,385.406 C285.944,385.078 285.816,384.785 285.599,384.527 C285.382,384.269 285.051,384.141 284.606,384.141 L282.303,384.141 C282.033,384.141 281.899,383.994 281.899,383.701 C281.899,383.432 282.033,383.297 282.303,383.297 L284.606,383.297 C285.086,383.297 285.461,383.115 285.731,382.752 C285.824,382.623 285.901,382.412 285.959,382.119 C286.018,381.732 286.047,381.176 286.047,380.449 L286.047,380.221 C286.047,378.475 285.402,377.601 284.113,377.601 C282.977,377.601 282.408,377.918 282.408,378.551 C282.408,378.762 282.581,378.987 282.927,379.227 C283.273,379.468 283.445,379.693 283.445,379.904 C283.445,380.361 283.284,380.754 282.962,381.082 C282.64,381.41 282.247,381.574 281.784,381.574 C281.321,381.574 280.932,381.41 280.615,381.082 C280.299,380.754 280.141,380.361 280.141,379.904 C280.141,379.002 280.533,378.281 281.319,377.742 C282.104,377.203 283.035,376.934 284.113,376.934 C285.531,376.934 286.697,377.206 287.611,377.751 C288.526,378.296 288.983,379.119 288.983,380.221 C288.983,381.006 288.901,381.615 288.736,382.049 C288.572,382.482 288.385,382.746 288.174,382.84 C287.963,382.934 287.776,383.042 287.611,383.165 C287.447,383.288 287.365,383.467 287.365,383.701"/>
<path class="FiguredBass" d="M478.759,337.24 C479.205,337.24 479.673,337.176 480.166,337.047 L480.957,336.836 C481.109,336.836 481.229,336.894 481.317,337.012 C481.405,337.129 481.396,337.234 481.291,337.328 L473.117,346.838 L477.916,346.838 L477.916,343.076 C477.916,342.807 477.989,342.599 478.135,342.452 C478.282,342.306 478.469,342.188 478.698,342.1 C478.926,342.013 479.225,341.752 479.594,341.318 C479.964,340.885 480.318,340.299 480.658,339.56 C480.716,339.443 480.804,339.385 480.922,339.385 C481.168,339.385 481.291,339.519 481.291,339.789 L481.291,346.838 L483.365,346.838 C483.658,346.838 483.804,346.973 483.804,347.242 C483.804,347.535 483.658,347.682 483.365,347.682 L481.291,347.682 L481.291,347.91 C481.291,348.637 481.484,349.269 481.871,349.809 C482.257,350.348 482.756,350.617 483.365,350.617 C483.599,350.617 483.716,350.723 483.716,350.934 C483.716,351.168 483.599,351.285 483.365,351.285 C482.943,351.285 482.316,351.224 481.484,351.1 C480.652,350.977 480.022,350.916 479.594,350.916 C479.167,350.916 478.537,350.977 477.705,351.1 C476.873,351.224 476.246,351.285 475.824,351.285 C475.59,351.285 475.472,351.168 475.472,350.934 C475.472,350.723 475.59,350.617 475.824,350.617 C476.433,350.617 476.934,350.348 477.327,349.809 C477.719,349.269 477.916,348.637 477.916,347.91 L477.916,347.682 L473.117,347.682 C472.812,347.682 472.587,347.608 472.44,347.462 C472.294,347.315 472.22,347.166 472.22,347.014 C472.22,346.955 472.358,346.753 472.633,346.407 C472.909,346.061 473.246,345.601 473.644,345.027 C474.043,344.453 474.438,343.8 474.831,343.067 C475.223,342.335 475.557,341.456 475.833,340.431 C476.108,339.405 476.246,338.371 476.246,337.328 C476.246,337.023 476.375,336.871 476.632,336.871 C476.668,336.871 476.791,336.9 477.002,336.959 C477.213,337.017 477.482,337.079 477.81,337.143 C478.138,337.208 478.455,337.24 478.759,337.24"/>
<path class="FiguredBass" d="M481.132,363.67 C481.132,363.857 481.238,364.039 481.449,364.215 C481.66,364.391 481.891,364.558 482.143,364.716 C482.395,364.874 482.627,365.173 482.838,365.612 C483.048,366.052 483.154,366.605 483.154,367.273 C483.154,368.562 482.668,369.559 481.695,370.262 C480.722,370.965 479.492,371.316 478.004,371.316 C476.808,371.316 475.768,371.017 474.883,370.42 C473.999,369.822 473.556,369.037 473.556,368.064 C473.556,367.549 473.744,367.1 474.119,366.72 C474.494,366.339 474.942,366.148 475.464,366.148 C475.985,366.148 476.427,366.336 476.791,366.711 C477.154,367.086 477.336,367.537 477.336,368.064 C477.336,368.299 477.142,368.554 476.756,368.829 C476.369,369.104 476.175,369.359 476.175,369.594 C476.175,369.957 476.354,370.224 476.712,370.393 C477.069,370.563 477.5,370.648 478.004,370.648 C478.66,370.648 479.126,370.323 479.401,369.673 C479.676,369.022 479.814,368.223 479.814,367.273 L479.814,366.816 C479.814,366.184 479.794,365.703 479.753,365.375 C479.712,365.047 479.583,364.754 479.366,364.496 C479.149,364.238 478.818,364.109 478.373,364.109 L476.07,364.109 C475.8,364.109 475.666,363.963 475.666,363.67 C475.666,363.4 475.8,363.266 476.07,363.266 L478.373,363.266 C478.853,363.266 479.228,363.084 479.498,362.721 C479.591,362.592 479.668,362.381 479.726,362.088 C479.785,361.701 479.814,361.144 479.814,360.418 L479.814,360.189 C479.814,358.443 479.17,357.57 477.881,357.57 C476.744,357.57 476.175,357.887 476.175,358.519 C476.175,358.73 476.348,358.956 476.694,359.196 C477.04,359.436 477.213,359.662 477.213,359.873 C477.213,360.33 477.051,360.723 476.729,361.051 C476.407,361.379 476.014,361.543 475.551,361.543 C475.089,361.543 474.699,361.379 474.382,361.051 C474.066,360.723 473.908,360.33 473.908,359.873 C473.908,358.971 474.3,358.25 475.086,357.711 C475.871,357.172 476.802,356.902 477.881,356.902 C479.298,356.902 480.465,357.175 481.379,357.72 C482.293,358.265 482.75,359.088 482.75,360.189 C482.75,360.975 482.668,361.584 482.504,362.017 C482.34,362.451 482.152,362.715 481.941,362.809 C481.73,362.902 481.543,363.011 481.379,363.134 C481.215,363.257 481.132,363.435 481.132,363.67"/>
<path class="FiguredBass" d="M478.882,377.601 C478.015,377.601 477.438,377.95 477.151,378.647 C476.864,379.345 476.72,380.332 476.72,381.609 L476.72,383.684 C477.33,383.437 477.857,383.309 478.302,383.297 C479.826,383.297 481.024,383.634 481.897,384.308 C482.77,384.981 483.207,385.983 483.207,387.313 C483.207,388.643 482.764,389.648 481.88,390.328 C480.995,391.008 479.802,391.348 478.302,391.348 C476.767,391.348 475.566,390.636 474.699,389.212 C473.832,387.788 473.398,386.098 473.398,384.141 C473.398,382.195 473.902,380.508 474.91,379.078 C475.918,377.648 477.242,376.934 478.882,376.934 C479.961,376.934 480.892,377.206 481.677,377.751 C482.463,378.296 482.855,379.014 482.855,379.904 C482.855,380.42 482.668,380.865 482.293,381.24 C481.918,381.615 481.469,381.803 480.948,381.803 C480.426,381.803 479.978,381.615 479.603,381.24 C479.228,380.865 479.041,380.42 479.041,379.904 C479.041,379.4 479.228,378.955 479.603,378.568 C479.732,378.416 479.914,378.287 480.148,378.182 C480.09,378.029 479.972,377.912 479.797,377.83 C479.539,377.678 479.234,377.601 478.882,377.601 M479.744,384.791 C479.533,384.24 479.07,383.965 478.355,383.965 C477.64,383.965 477.198,384.24 477.028,384.791 C476.858,385.342 476.773,386.18 476.773,387.305 C476.773,388.629 476.858,389.519 477.028,389.976 C477.198,390.434 477.64,390.662 478.355,390.662 C479.07,390.662 479.533,390.387 479.744,389.836 C479.955,389.285 480.06,388.444 480.06,387.313 C480.06,386.183 479.955,385.342 479.744,384.791"/>
<path class="FiguredBass" d="M673.543,337.24 C673.989,337.24 674.458,337.176 674.95,337.047 L675.741,336.836 C675.893,336.836 676.013,336.894 676.101,337.012 C676.189,337.129 676.18,337.234 676.075,337.328 L667.901,346.838 L672.7,346.838 L672.7,343.076 C672.7,342.807 672.773,342.599 672.919,342.452 C673.066,342.306 673.253,342.188 673.482,342.1 C673.71,342.013 674.009,341.752 674.378,341.318 C674.748,340.885 675.102,340.299 675.442,339.56 C675.5,339.443 675.588,339.385 675.706,339.385 C675.952,339.385 676.075,339.519 676.075,339.789 L676.075,346.838 L678.149,346.838 C678.442,346.838 678.588,346.973 678.588,347.242 C678.588,347.535 678.442,347.682 678.149,347.682 L676.075,347.682 L676.075,347.91 C676.075,348.637 676.268,349.269 676.655,349.809 C677.041,350.348 677.54,350.617 678.149,350.617 C678.383,350.617 678.5,350.723 678.5,350.934 C678.5,351.168 678.383,351.285 678.149,351.285 C677.727,351.285 677.1,351.224 676.268,351.1 C675.436,350.977 674.806,350.916 674.378,350.916 C673.951,350.916 673.321,350.977 672.489,351.1 C671.657,351.224 671.03,351.285 670.608,351.285 C670.374,351.285 670.256,351.168 670.256,350.934 C670.256,350.723 670.374,350.617 670.608,350.617 C671.217,350.617 671.718,350.348 672.111,349.809 C672.503,349.269 672.7,348.637 672.7,347.91 L672.7,347.682 L667.901,347.682 C667.596,347.682 667.371,347.608 667.224,347.462 C667.078,347.315 667.004,347.166 667.004,347.014 C667.004,346.955 667.142,346.753 667.417,346.407 C667.693,346.061 668.03,345.601 668.428,345.027 C668.827,344.453 669.222,343.8 669.615,343.067 C670.007,342.335 670.341,341.456 670.617,340.431 C670.892,339.405 671.03,338.371 671.03,337.328 C671.03,337.023 671.159,336.871 671.416,336.871 C671.452,336.871 671.575,336.9 671.786,336.959 C671.997,337.017 672.266,337.079 672.594,337.143 C672.922,337.208 673.239,337.24 673.543,337.24"/>
<path class="FiguredBass" d="M674.458,371.316 C673.321,371.316 672.495,371 671.979,370.367 C671.791,370.133 671.551,369.916 671.258,369.717 C670.965,369.517 670.643,369.418 670.291,369.418 C669.834,369.418 669.424,369.561 669.061,369.849 C668.698,370.136 668.516,370.519 668.516,371 C668.516,371.211 668.411,371.316 668.2,371.316 C667.965,371.316 667.848,371.211 667.848,371 C667.848,370.285 668.015,369.632 668.349,369.04 C668.683,368.448 669.102,367.95 669.606,367.546 C670.11,367.142 670.655,366.708 671.241,366.245 C671.827,365.782 672.369,365.334 672.867,364.9 C673.365,364.467 673.781,363.919 674.115,363.257 C674.449,362.595 674.616,361.871 674.616,361.086 C674.616,360.101 674.455,359.269 674.132,358.59 C673.81,357.91 673.303,357.57 672.612,357.57 C672.213,357.57 671.868,357.667 671.575,357.86 C671.282,358.054 671.135,358.309 671.135,358.625 C671.135,358.871 671.302,359.193 671.636,359.592 C671.97,359.99 672.137,360.324 672.137,360.594 C672.137,361.156 671.947,361.628 671.566,362.009 C671.185,362.39 670.725,362.58 670.186,362.58 C669.624,362.58 669.152,362.384 668.771,361.991 C668.39,361.599 668.2,361.133 668.2,360.594 C668.2,359.516 668.63,358.631 669.492,357.939 C670.353,357.248 671.393,356.902 672.612,356.902 C674.053,356.902 675.31,357.292 676.382,358.071 C677.455,358.85 677.991,359.855 677.991,361.086 C677.991,361.918 677.841,362.639 677.542,363.248 C677.244,363.857 676.816,364.35 676.259,364.725 C675.703,365.1 675.146,365.419 674.589,365.683 C674.033,365.946 673.379,366.23 672.629,366.535 C671.879,366.84 671.276,367.139 670.819,367.432 C671.065,367.373 671.317,367.344 671.575,367.344 C672.442,367.344 673.344,367.625 674.282,368.187 C675.219,368.75 675.958,369.031 676.497,369.031 C676.801,369.031 677.05,368.975 677.244,368.864 C677.437,368.753 677.563,368.63 677.622,368.495 C677.68,368.36 677.748,368.234 677.824,368.117 C677.9,368 677.985,367.941 678.079,367.941 C678.313,367.941 678.43,368.059 678.43,368.293 C678.43,368.797 678.067,369.427 677.34,370.183 C676.614,370.938 675.653,371.316 674.458,371.316"/>
<path class="FiguredBass" d="M673.666,377.601 C672.799,377.601 672.222,377.95 671.935,378.647 C671.648,379.345 671.504,380.332 671.504,381.609 L671.504,383.684 C672.114,383.437 672.641,383.309 673.086,383.297 C674.61,383.297 675.808,383.634 676.681,384.308 C677.554,384.981 677.991,385.983 677.991,387.313 C677.991,388.643 677.548,389.648 676.664,390.328 C675.779,391.008 674.586,391.348 673.086,391.348 C671.551,391.348 670.35,390.636 669.483,389.212 C668.616,387.788 668.182,386.098 668.182,384.141 C668.182,382.195 668.686,380.508 669.694,379.078 C670.702,377.648 672.026,376.934 673.666,376.934 C674.745,376.934 675.676,377.206 676.461,377.751 C677.247,378.296 677.639,379.014 677.639,379.904 C677.639,380.42 677.452,380.865 677.077,381.24 C676.702,381.615 676.253,381.803 675.732,381.803 C675.21,381.803 674.762,381.615 674.387,381.24 C674.012,380.865 673.825,380.42 673.825,379.904 C673.825,379.4 674.012,378.955 674.387,378.568 C674.516,378.416 674.698,378.287 674.932,378.182 C674.874,378.029 674.756,377.912 674.581,377.83 C674.323,377.678 674.018,377.601 673.666,377.601 M674.528,384.791 C674.317,384.24 673.854,383.965 673.139,383.965 C672.424,383.965 671.982,384.24 671.812,384.791 C671.642,385.342 671.557,386.18 671.557,387.305 C671.557,388.629 671.642,389.519 671.812,389.976 C671.982,390.434 672.424,390.662 673.139,390.662 C673.854,390.662 674.317,390.387 674.528,389.836 C674.739,389.285 674.844,388.444 674.844,387.313 C674.844,386.183 674.739,385.342 674.528,384.791"/>
<polyline class="FretDiagram" stroke="#0000ff" stroke-width="2.27" stroke-linejoin="bevel" points="88.0395,44.674 128.632,44.674"/>
<polyline class="FretDiagram" stroke="#0000ff" stroke-width="0.91" stroke-linejoin="bevel" points="88.493,44.674 88.493,85.4929"/>
<polyline class="FretDiagram" stroke="#0000ff" stroke-width="0.91" stroke-linejoin="bevel" points="96.43,44.674 96.43,85.4929"/>
<polyline class="FretDiagram" stroke="#0000ff" stroke-width="0.91" stroke-linejoin="bevel" points="104.367,44.674 104.367,85.4929"/>
<polyline class="FretDiagram" stroke="#0000ff" stroke-width="0.91" stroke-linejoin="bevel" points="112.304,44.674 112.304,85.4929"/>
<polyline class="FretDiagram" stroke="#0000ff" stroke-width="0.91" stroke-linejoin="bevel" points="120.241,44.674 120.241,85.4929"/>
<polyline class="FretDiagram" stroke="#0000ff" stroke-width="0.91" stroke-linejoin="bevel" points="128.178,44.674 128.178,85.4929"/>
<polyline class="FretDiagram" stroke="#0000ff" stroke-width="0.91" stroke-linejoin="bevel" points="88.493,53.7449 128.178,53.7449"/>
<polyline class="FretDiagram" stroke="#0000ff" stroke-width="0.91" stroke-linejoin="bevel" points="88.493,62.8157 128.178,62.8157"/>
<polyline class="FretDiagram" stroke="#0000ff" stroke-width="0.91" stroke-linejoin="bevel" points="88.493,71.8866 128.178,71.8866"/>
<polyline class="FretDiagram" stroke="#0000ff" stroke-width="0.91" stroke-linejoin="bevel" points="88.493,80.9575 128.178,80.9575"/>
<path class="FretDiagram" fill="#0000ff" fill-rule="evenodd" d="M91.271,58.2803 C91.271,59.8145 90.0272,61.0583 88.493,61.0583 C86.9588,61.0583 85.715,59.8145 85.715,58.2803 C85.715,56.7461 86.9588,55.5024 88.493,55.5024 C90.0272,55.5024 91.271,56.7461 91.271,58.2803"/>
<path class="FretDiagram" fill="#0000ff" fill-rule="evenodd" d="M107.145,58.2803 C107.145,59.8145 105.901,61.0583 104.367,61.0583 C102.833,61.0583 101.589,59.8145 101.589,58.2803 C101.589,56.7461 102.833,55.5024 104.367,55.5024 C105.901,55.5024 107.145,56.7461 107.145,58.2803"/>
<path class="FretDiagram" fill="#0000ff" fill-rule="evenodd" d="M115.082,67.3512 C115.082,68.8854 113.838,70.1291 112.304,70.1291 C110.77,70.1291 109.526,68.8854 109.526,67.3512 C109.526,65.817 110.77,64.5732 112.304,64.5732 C113.838,64.5732 115.082,65.817 115.082,67.3512"/>
<path class="FretDiagram" fill="#0000ff" fill-rule="evenodd" d="M123.019,49.2094 C123.019,50.7437 121.775,51.9874 120.241,51.9874 C118.707,51.9874 117.463,50.7437 117.463,49.2094 C117.463,47.6752 118.707,46.4315 120.241,46.4315 C121.775,46.4315 123.019,47.6752 123.019,49.2094"/>
<polyline class="FretDiagram" fill="none" stroke="#0000ff" stroke-width="1.31" stroke-linecap="round" stroke-linejoin="bevel" points="93.2552,32.4283 99.6048,38.778"/>
<polyline class="FretDiagram" fill="none" stroke="#0000ff" stroke-width="1.31" stroke-linecap="round" stroke-linejoin="bevel" points="93.2552,38.778 99.6048,32.4283"/>
<polyline class="FretDiagram" fill="none" stroke="#0000ff" stroke-width="1.31" stroke-linecap="round" stroke-linejoin="bevel" points="125.003,32.4283 131.353,38.778"/>
<polyline class="FretDiagram" fill="none" stroke="#0000ff" stroke-width="1.31" stroke-linecap="round" stroke-linejoin="bevel" points="125.003,38.778 131.353,32.4283"/>
<polyline class="FretDiagram" fill="#0000ff" stroke="#fc02ff" stroke-width="2.27" stroke-linejoin="bevel" points="265.378,44.674 305.97,44.674"/>
<polyline class="FretDiagram" fill="#0000ff" stroke="#fc02ff" stroke-width="0.91" stroke-linejoin="bevel" points="265.831,44.674 265.831,85.4929"/>
<polyline class="FretDiagram" fill="#0000ff" stroke="#fc02ff" stroke-width="0.91" stroke-linejoin="bevel" points="273.768,44.674 273.768,85.4929"/>
<polyline class="FretDiagram" fill="#0000ff" stroke="#fc02ff" stroke-width="0.91" stroke-linejoin="bevel" points="281.705,44.674 281.705,85.4929"/>
<polyline class="FretDiagram" fill="#0000ff" stroke="#fc02ff" stroke-width="0.91" stroke-linejoin="bevel" points="289.642,44.674 289.642,85.4929"/>
<polyline class="FretDiagram" fill="#0000ff" stroke="#fc02ff" stroke-width="0.91" stroke-linejoin="bevel" points="297.579,44.674 297.579,85.4929"/>
<polyline class="FretDiagram" fill="#0000ff" stroke="#fc02ff" stroke-width="0.91" stroke-linejoin="bevel" points="305.516,44.674 305.516,85.4929"/>
<polyline class="FretDiagram" fill="#0000ff" stroke="#fc02ff" stroke-width="0.91" stroke-linejoin="bevel" points="265.831,53.7449 305.516,53.7449"/>
<polyline class="FretDiagram" fill="#0000ff" stroke="#fc02ff" stroke-width="0.91" stroke-linejoin="bevel" points="265.831,62.8157 305.516,62.8157"/>
<polyline class="FretDiagram" fill="#0000ff" stroke="#fc02ff" stroke-width="0.91" stroke-linejoin="bevel" points="265.831,71.8866 305.516,71.8866"/>
<polyline class="FretDiagram" fill="#0000ff" stroke="#fc02ff" stroke-width="0.91" stroke-linejoin="bevel" points="265.831,80.9575 305.516,80.9575"/>
<path class="FretDiagram" fill="#fc02ff" fill-rule="evenodd" d="M300.357,49.2094 C300.357,50.7437 299.113,51.9874 297.579,51.9874 C296.045,51.9874 294.801,50.7437 294.801,49.2094 C294.801,47.6752 296.045,46.4315 297.579,46.4315 C299.113,46.4315 300.357,47.6752 300.357,49.2094"/>
<polyline class="FretDiagram" fill="none" stroke="#fc02ff" stroke-width="1.31" stroke-linecap="round" stroke-linejoin="bevel" points="262.656,32.4283 269.006,38.778"/>
<polyline class="FretDiagram" fill="none" stroke="#fc02ff" stroke-width="1.31" stroke-linecap="round" stroke-linejoin="bevel" points="262.656,38.778 269.006,32.4283"/>
<path class="FretDiagram" fill="none" stroke="#fc02ff" stroke-width="1.31" stroke-linecap="round" stroke-linejoin="bevel" fill-rule="evenodd" d="M276.943,35.6031 C276.943,37.3565 275.522,38.778 273.768,38.778 C272.015,38.778 270.593,37.3565 270.593,35.6031 C270.593,33.8498 272.015,32.4283 273.768,32.4283 C275.522,32.4283 276.943,33.8498 276.943,35.6031"/>
<polyline class="FretDiagram" fill="none" stroke="#fc02ff" stroke-width="1.31" stroke-linecap="round" stroke-linejoin="bevel" points="278.53,32.4283 284.88,38.778"/>
<polyline class="FretDiagram" fill="none" stroke="#fc02ff" stroke-width="1.31" stroke-linecap="round" stroke-linejoin="bevel" points="278.53,38.778 284.88,32.4283"/>
<path class="FretDiagram" fill="none" stroke="#fc02ff" stroke-width="1.31" stroke-linecap="round" stroke-linejoin="bevel" fill-rule="evenodd" d="M292.817,35.6031 C292.817,37.3565 291.396,38.778 289.642,38.778 C287.889,38.778 286.467,37.3565 286.467,35.6031 C286.467,33.8498 287.889,32.4283 289.642,32.4283 C291.396,32.4283 292.817,33.8498 292.817,35.6031"/>
<path class="FretDiagram" fill="none" stroke="#fc02ff" stroke-width="1.31" stroke-linecap="round" stroke-linejoin="bevel" fill-rule="evenodd" d="M308.691,35.6031 C308.691,37.3565 307.27,38.778 305.516,38.778 C303.763,38.778 302.341,37.3565 302.341,35.6031 C302.341,33.8498 303.763,32.4283 305.516,32.4283 C307.27,32.4283 308.691,33.8498 308.691,35.6031"/>
<polyline class="FretDiagram" fill="#fc02ff" stroke="#fc0107" stroke-width="0.91" stroke-linejoin="bevel" points="653.929,44.674 694.521,44.674"/>
<polyline class="FretDiagram" fill="#fc02ff" stroke="#fc0107" stroke-width="0.91" stroke-linejoin="bevel" points="654.382,42.4063 654.382,85.4929"/>
<polyline class="FretDiagram" fill="#fc02ff" stroke="#fc0107" stroke-width="0.91" stroke-linejoin="bevel" points="662.319,42.4063 662.319,85.4929"/>
<polyline class="FretDiagram" fill="#fc02ff" stroke="#fc0107" stroke-width="0.91" stroke-linejoin="bevel" points="670.256,42.4063 670.256,85.4929"/>
<polyline class="FretDiagram" fill="#fc02ff" stroke="#fc0107" stroke-width="0.91" stroke-linejoin="bevel" points="678.193,42.4063 678.193,85.4929"/>
<polyline class="FretDiagram" fill="#fc02ff" stroke="#fc0107" stroke-width="0.91" stroke-linejoin="bevel" points="686.13,42.4063 686.13,85.4929"/>
<polyline class="FretDiagram" fill="#fc02ff" stroke="#fc0107" stroke-width="0.91" stroke-linejoin="bevel" points="694.067,42.4063 694.067,85.4929"/>
<polyline class="FretDiagram" fill="#fc02ff" stroke="#fc0107" stroke-width="0.91" stroke-linejoin="bevel" points="654.382,53.7449 694.067,53.7449"/>
<polyline class="FretDiagram" fill="#fc02ff" stroke="#fc0107" stroke-width="0.91" stroke-linejoin="bevel" points="654.382,62.8157 694.067,62.8157"/>
<polyline class="FretDiagram" fill="#fc02ff" stroke="#fc0107" stroke-width="0.91" stroke-linejoin="bevel" points="654.382,71.8866 694.067,71.8866"/>
<polyline class="FretDiagram" fill="#fc02ff" stroke="#fc0107" stroke-width="0.91" stroke-linejoin="bevel" points="654.382,80.9575 694.067,80.9575"/>
<path class="FretDiagram" fill="#fc0107" fill-rule="evenodd" d="M673.034,58.2803 C673.034,59.8145 671.791,61.0583 670.256,61.0583 C668.722,61.0583 667.478,59.8145 667.478,58.2803 C667.478,56.7461 668.722,55.5024 670.256,55.5024 C671.791,55.5024 673.034,56.7461 673.034,58.2803"/>
<path class="FretDiagram" fill="#fc0107" fill-rule="evenodd" d="M680.971,67.3512 C680.971,68.8854 679.728,70.1291 678.193,70.1291 C676.659,70.1291 675.415,68.8854 675.415,67.3512 C675.415,65.817 676.659,64.5732 678.193,64.5732 C679.728,64.5732 680.971,65.817 680.971,67.3512"/>
<path class="FretDiagram" fill="#fc0107" fill-rule="evenodd" d="M688.908,49.2094 C688.908,50.7437 687.665,51.9874 686.13,51.9874 C684.596,51.9874 683.352,50.7437 683.352,49.2094 C683.352,47.6752 684.596,46.4315 686.13,46.4315 C687.665,46.4315 688.908,47.6752 688.908,49.2094"/>
<path class="FretDiagram" fill="#fc0107" fill-rule="evenodd" d="M696.845,58.2803 C696.845,59.8145 695.602,61.0583 694.067,61.0583 C692.533,61.0583 691.289,59.8145 691.289,58.2803 C691.289,56.7461 692.533,55.5024 694.067,55.5024 C695.602,55.5024 696.845,56.7461 696.845,58.2803"/>
<polyline class="FretDiagram" fill="none" stroke="#fc0107" stroke-width="1.31" stroke-linecap="round" stroke-linejoin="bevel" points="651.207,32.4283 657.557,38.778"/>
<polyline class="FretDiagram" fill="none" stroke="#fc0107" stroke-width="1.31" stroke-linecap="round" stroke-linejoin="bevel" points="651.207,38.778 657.557,32.4283"/>
<polyline class="FretDiagram" fill="none" stroke="#fc0107" stroke-width="1.31" stroke-linecap="round" stroke-linejoin="bevel" points="659.144,32.4283 665.494,38.778"/>
<polyline class="FretDiagram" fill="none" stroke="#fc0107" stroke-width="1.31" stroke-linecap="round" stroke-linejoin="bevel" points="659.144,38.778 665.494,32.4283"/>
<path class="FretDiagram" fill="#fc0107" d="M642.11,47.1838 C642.194,44.2318 643.598,42.7558 646.322,42.7558 C647.534,42.7558 648.518,43.1038 649.274,43.7998 C650.03,44.4958 650.408,45.3958 650.408,46.4998 C650.408,48.0838 649.508,49.3678 647.708,50.3518 L645.908,51.3238 C645.128,51.7438 644.57,52.1518 644.234,52.5478 C643.898,52.9438 643.688,53.4118 643.604,53.9518 L650.318,53.9518 L650.318,55.5178 L641.822,55.5178 C641.894,54.1138 642.176,53.0308 642.668,52.2688 C643.16,51.5068 644.072,50.7478 645.404,49.9918 L647.06,49.0558 C648.212,48.3958 648.788,47.5558 648.788,46.5358 C648.788,45.8518 648.548,45.2818 648.068,44.8258 C647.588,44.3698 646.988,44.1418 646.268,44.1418 C644.672,44.1418 643.814,45.1558 643.694,47.1838 L642.11,47.1838 "/>
<path class="Bracket" transform="matrix(1.64409,0,0,1.85314,14.5089,451.771)" d="M0.92002,-50 C2.69004,-51.88 6.2,-55.8 6.2,-63 C6.2,-72.1 2.25996,-81.32 2.25996,-86.97 C2.25996,-93.06 5.84004,-98.84 5.95,-99 C6.05996,-99.16 6.05,-99.39 5.94004,-99.46 C5.82998,-99.53 5.62002,-99.47 5.49004,-99.32 C5.35996,-99.17 0,-93.75 0,-85.6 C0,-76.75 3.5,-70.58 3.5,-59.07 C3.5,-56.89 2.55996,-53.36 0.1,-50.33 C-0.0799805,-50.17 -0.1,-49.89 0.0599609,-49.7 L0.0700195,-49.69 L0.1,-49.66 C2.55996,-46.63 3.5,-43.1 3.5,-40.92 C3.5,-29.4 0,-23.24 0,-14.39 C0,-6.25 5.35996,-0.8 5.49004,-0.659961 C5.62002,-0.52002 5.8,-0.42998 5.94004,-0.52002 C6.07998,-0.609961 6.07998,-0.77998 5.95,-0.97998 C5.82002,-1.17998 2.25996,-6.92002 2.25996,-13.01 C2.25996,-18.66 6.2,-27.9 6.2,-37 C6.2,-44.3 2.69004,-48.12 0.92002,-50"/>
</svg>
