<?xml version="1.0" encoding="UTF-8" standalone="no"?>
<svg width="4209.44px" height="2976.38px" viewBox="0 0 4209.44 2976.38"
 xmlns="http://www.w3.org/2000/svg" xmlns:xlink="http://www.w3.org/1999/xlink" version="1.2" baseProfile="tiny">
<title>La Mineur (11)</title>
<desc>Generated by MuseScore 3.6.2</desc>
<polyline class="StaffLines" fill="none" stroke="#000000" stroke-width="6.55" stroke-linejoin="bevel" points="153.819,558.425 4138.58,558.425"/>
<polyline class="StaffLines" fill="none" stroke="#000000" stroke-width="6.55" stroke-linejoin="bevel" points="153.819,647.717 4138.58,647.717"/>
<polyline class="StaffLines" fill="none" stroke="#000000" stroke-width="6.55" stroke-linejoin="bevel" points="153.819,737.008 4138.58,737.008"/>
<polyline class="StaffLines" fill="none" stroke="#000000" stroke-width="6.55" stroke-linejoin="bevel" points="153.819,826.299 4138.58,826.299"/>
<polyline class="StaffLines" fill="none" stroke="#000000" stroke-width="6.55" stroke-linejoin="bevel" points="153.819,915.591 4138.58,915.591"/>
<polyline class="StaffLines" fill="none" stroke="#000000" stroke-width="6.55" stroke-linejoin="bevel" points="153.819,1004.88 4138.58,1004.88"/>
<polyline class="StaffLines" fill="none" stroke="#000000" stroke-width="6.55" stroke-linejoin="bevel" points="153.819,1391.81 4138.58,1391.81"/>
<polyline class="StaffLines" fill="none" stroke="#000000" stroke-width="6.55" stroke-linejoin="bevel" points="153.819,1451.34 4138.58,1451.34"/>
<polyline class="StaffLines" fill="none" stroke="#000000" stroke-width="6.55" stroke-linejoin="bevel" points="153.819,1510.87 4138.58,1510.87"/>
<polyline class="StaffLines" fill="none" stroke="#000000" stroke-width="6.55" stroke-linejoin="bevel" points="153.819,1570.39 4138.58,1570.39"/>
<polyline class="StaffLines" fill="none" stroke="#000000" stroke-width="6.55" stroke-linejoin="bevel" points="153.819,1629.92 4138.58,1629.92"/>
<polyline class="StaffLines" fill="none" stroke="#000000" stroke-width="6.55" stroke-linejoin="bevel" points="153.819,2099.26 4138.58,2099.26"/>
<polyline class="StaffLines" fill="none" stroke="#000000" stroke-width="6.55" stroke-linejoin="bevel" points="153.819,2158.79 4138.58,2158.79"/>
<polyline class="StaffLines" fill="none" stroke="#000000" stroke-width="6.55" stroke-linejoin="bevel" points="153.819,2218.32 4138.58,2218.32"/>
<polyline class="StaffLines" fill="none" stroke="#000000" stroke-width="6.55" stroke-linejoin="bevel" points="153.819,2277.85 4138.58,2277.85"/>
<polyline class="StaffLines" fill="none" stroke="#000000" stroke-width="6.55" stroke-linejoin="bevel" points="153.819,2337.37 4138.58,2337.37"/>
<polyline class="BarLine" fill="none" stroke="#000000" stroke-width="10.71" stroke-linejoin="bevel" points="159.176,2095.99 159.176,2340.65"/>
<polyline class="BarLine" fill="none" stroke="#000000" stroke-width="10.71" stroke-linejoin="bevel" points="1365.52,2095.99 1365.52,2340.65"/>
<polyline class="BarLine" fill="none" stroke="#000000" stroke-width="10.71" stroke-linejoin="bevel" points="2280.53,2095.99 2280.53,2340.65"/>
<polyline class="BarLine" fill="none" stroke="#000000" stroke-width="10.71" stroke-linejoin="bevel" points="3184.09,2095.99 3184.09,2340.65"/>
<polyline class="BarLine" fill="none" stroke="#000000" stroke-width="10.71" stroke-linejoin="bevel" points="4080.54,2095.99 4080.54,2340.65"/>
<polyline class="BarLine" fill="none" stroke="#000000" stroke-width="32.74" stroke-linejoin="bevel" points="4122.21,2095.99 4122.21,2340.65"/>
<polyline class="BarLine" fill="none" stroke="#000000" stroke-width="10.71" stroke-linejoin="bevel" points="159.176,1388.54 159.176,2099.26"/>
<polyline class="BarLine" fill="none" stroke="#000000" stroke-width="10.71" stroke-linejoin="bevel" points="1365.52,1388.54 1365.52,1633.2"/>
<polyline class="BarLine" fill="none" stroke="#000000" stroke-width="10.71" stroke-linejoin="bevel" points="2280.53,1388.54 2280.53,1633.2"/>
<polyline class="BarLine" fill="none" stroke="#000000" stroke-width="10.71" stroke-linejoin="bevel" points="3184.09,1388.54 3184.09,1633.2"/>
<polyline class="BarLine" fill="none" stroke="#000000" stroke-width="10.71" stroke-linejoin="bevel" points="4080.54,1388.54 4080.54,1633.2"/>
<polyline class="BarLine" fill="none" stroke="#000000" stroke-width="32.74" stroke-linejoin="bevel" points="4122.21,1388.54 4122.21,1633.2"/>
<polyline class="BarLine" fill="none" stroke="#000000" stroke-width="10.71" stroke-linejoin="bevel" points="159.176,555.151 159.176,1391.81"/>
<polyline class="BarLine" fill="none" stroke="#000000" stroke-width="10.71" stroke-linejoin="bevel" points="1365.52,555.151 1365.52,1008.16"/>
<polyline class="BarLine" fill="none" stroke="#000000" stroke-width="10.71" stroke-linejoin="bevel" points="2280.53,555.151 2280.53,1008.16"/>
<polyline class="BarLine" fill="none" stroke="#000000" stroke-width="10.71" stroke-linejoin="bevel" points="3184.09,555.151 3184.09,1008.16"/>
<polyline class="BarLine" fill="none" stroke="#000000" stroke-width="10.71" stroke-linejoin="bevel" points="4080.54,555.151 4080.54,1008.16"/>
<polyline class="BarLine" fill="none" stroke="#000000" stroke-width="32.74" stroke-linejoin="bevel" points="4122.21,555.151 4122.21,1008.16"/>
<path class="Accidental" transform="matrix(2.3811,0,0,2.3811,1428.39,2129.03)" d="M23.3,-10.6 C23.9,-10.7 24.4,-11.4 24.4,-12 L24.4,-17.9 C24.4,-18.7 23.8,-19.3 23,-19.3 L22.8,-19.3 L19.5,-18.6 L19.5,-33.5 L16.7,-33.5 L16.7,-18 L7.8,-16.2 L7.8,-30.3 L5,-30.3 L5,-15.6 L1.1,-14.8 C0.5,-14.7 0,-14 0,-13.4 L0,-13.2 L0,-7.4 L0,-7.6 C0,-6.8 0.6,-6.2 1.4,-6.2 L1.7,-6.2 L5,-6.9 L5,9.6 L1.1,10.4 C0.5,10.5 0,11.2 0,11.8 L0,17.6 C0,18.4 0.6,19 1.4,19 L1.7,19 L5,18.3 L5,33.2 L7.8,33.2 L7.8,17.7 L16.7,15.9 L16.7,30 L19.5,30 L19.5,15.3 L23.3,14.6 C23.9,14.5 24.4,13.8 24.4,13.2 L24.4,7.3 C24.4,6.5 23.8,5.9 23,5.9 L22.8,5.9 L19.5,6.6 L19.5,-9.9 L23.3,-10.6 M7.8,9.1 L7.8,-7.5 L16.7,-9.3 L16.7,7.2 L7.8,9.1 "/>
<path class="Accidental" transform="matrix(2.3811,0,0,2.3811,513.384,1570.39)" d="M23.3,-10.6 C23.9,-10.7 24.4,-11.4 24.4,-12 L24.4,-17.9 C24.4,-18.7 23.8,-19.3 23,-19.3 L22.8,-19.3 L19.5,-18.6 L19.5,-33.5 L16.7,-33.5 L16.7,-18 L7.8,-16.2 L7.8,-30.3 L5,-30.3 L5,-15.6 L1.1,-14.8 C0.5,-14.7 0,-14 0,-13.4 L0,-13.2 L0,-7.4 L0,-7.6 C0,-6.8 0.6,-6.2 1.4,-6.2 L1.7,-6.2 L5,-6.9 L5,9.6 L1.1,10.4 C0.5,10.5 0,11.2 0,11.8 L0,17.6 C0,18.4 0.6,19 1.4,19 L1.7,19 L5,18.3 L5,33.2 L7.8,33.2 L7.8,17.7 L16.7,15.9 L16.7,30 L19.5,30 L19.5,15.3 L23.3,14.6 C23.9,14.5 24.4,13.8 24.4,13.2 L24.4,7.3 C24.4,6.5 23.8,5.9 23,5.9 L22.8,5.9 L19.5,6.6 L19.5,-9.9 L23.3,-10.6 M7.8,9.1 L7.8,-7.5 L16.7,-9.3 L16.7,7.2 L7.8,9.1 "/>
<path class="Accidental" transform="matrix(2.3811,0,0,2.3811,2331.96,1570.39)" d="M23.3,-10.6 C23.9,-10.7 24.4,-11.4 24.4,-12 L24.4,-17.9 C24.4,-18.7 23.8,-19.3 23,-19.3 L22.8,-19.3 L19.5,-18.6 L19.5,-33.5 L16.7,-33.5 L16.7,-18 L7.8,-16.2 L7.8,-30.3 L5,-30.3 L5,-15.6 L1.1,-14.8 C0.5,-14.7 0,-14 0,-13.4 L0,-13.2 L0,-7.4 L0,-7.6 C0,-6.8 0.6,-6.2 1.4,-6.2 L1.7,-6.2 L5,-6.9 L5,9.6 L1.1,10.4 C0.5,10.5 0,11.2 0,11.8 L0,17.6 C0,18.4 0.6,19 1.4,19 L1.7,19 L5,18.3 L5,33.2 L7.8,33.2 L7.8,17.7 L16.7,15.9 L16.7,30 L19.5,30 L19.5,15.3 L23.3,14.6 C23.9,14.5 24.4,13.8 24.4,13.2 L24.4,7.3 C24.4,6.5 23.8,5.9 23,5.9 L22.8,5.9 L19.5,6.6 L19.5,-9.9 L23.3,-10.6 M7.8,9.1 L7.8,-7.5 L16.7,-9.3 L16.7,7.2 L7.8,9.1 "/>
<path class="Accidental" transform="matrix(2.3811,0,0,2.3811,3235.52,1570.39)" d="M23.3,-10.6 C23.9,-10.7 24.4,-11.4 24.4,-12 L24.4,-17.9 C24.4,-18.7 23.8,-19.3 23,-19.3 L22.8,-19.3 L19.5,-18.6 L19.5,-33.5 L16.7,-33.5 L16.7,-18 L7.8,-16.2 L7.8,-30.3 L5,-30.3 L5,-15.6 L1.1,-14.8 C0.5,-14.7 0,-14 0,-13.4 L0,-13.2 L0,-7.4 L0,-7.6 C0,-6.8 0.6,-6.2 1.4,-6.2 L1.7,-6.2 L5,-6.9 L5,9.6 L1.1,10.4 C0.5,10.5 0,11.2 0,11.8 L0,17.6 C0,18.4 0.6,19 1.4,19 L1.7,19 L5,18.3 L5,33.2 L7.8,33.2 L7.8,17.7 L16.7,15.9 L16.7,30 L19.5,30 L19.5,15.3 L23.3,14.6 C23.9,14.5 24.4,13.8 24.4,13.2 L24.4,7.3 C24.4,6.5 23.8,5.9 23,5.9 L22.8,5.9 L19.5,6.6 L19.5,-9.9 L23.3,-10.6 M7.8,9.1 L7.8,-7.5 L16.7,-9.3 L16.7,7.2 L7.8,9.1 "/>
<path class="Note" transform="matrix(2.3811,0,0,2.3811,586.361,2188.56)" d="M18.7,-13.6 C4.9,-13.6 0,-6.6 0,-0.1 C0,6.4 4.9,13.4 18.7,13.4 C32.5,13.4 37.3,6.4 37.3,-0.1 C37.3,-6.6 32.5,-13.6 18.7,-13.6 M10.4,-4.5 C10.3,-4.9 10.3,-5.3 10.3,-5.7 C10.3,-6.5 10.5,-7.3 10.9,-8 C11.6,-9 12.8,-9.7 14.3,-10 C15.6,-10.3 16.3,-10.5 18.9,-10.5 L19,-10.5 C23,-10.5 24.3,-6.8 25.4,-3 L25.7,-2 C26.5,0.6 26.9,2.8 26.9,4.5 C26.9,5.7 26.7,6.8 26.3,7.6 C25.7,8.7 24.7,9.4 23,9.8 C22.1,10 20.6,10.1 20.6,10.1 C20.1,10.1 19.7,10.2 19.3,10.2 C16.1,10.2 14.1,9 12.7,4.7 C11.5,1 11.3,-0.1 10.4,-4.5"/>
<path class="Note" transform="matrix(2.3811,0,0,2.3811,1501.37,2129.03)" d="M18.7,-13.6 C4.9,-13.6 0,-6.6 0,-0.1 C0,6.4 4.9,13.4 18.7,13.4 C32.5,13.4 37.3,6.4 37.3,-0.1 C37.3,-6.6 32.5,-13.6 18.7,-13.6 M10.4,-4.5 C10.3,-4.9 10.3,-5.3 10.3,-5.7 C10.3,-6.5 10.5,-7.3 10.9,-8 C11.6,-9 12.8,-9.7 14.3,-10 C15.6,-10.3 16.3,-10.5 18.9,-10.5 L19,-10.5 C23,-10.5 24.3,-6.8 25.4,-3 L25.7,-2 C26.5,0.6 26.9,2.8 26.9,4.5 C26.9,5.7 26.7,6.8 26.3,7.6 C25.7,8.7 24.7,9.4 23,9.8 C22.1,10 20.6,10.1 20.6,10.1 C20.1,10.1 19.7,10.2 19.3,10.2 C16.1,10.2 14.1,9 12.7,4.7 C11.5,1 11.3,-0.1 10.4,-4.5"/>
<path class="Note" transform="matrix(2.3811,0,0,2.3811,2404.93,2277.85)" d="M18.7,-13.6 C4.9,-13.6 0,-6.6 0,-0.1 C0,6.4 4.9,13.4 18.7,13.4 C32.5,13.4 37.3,6.4 37.3,-0.1 C37.3,-6.6 32.5,-13.6 18.7,-13.6 M10.4,-4.5 C10.3,-4.9 10.3,-5.3 10.3,-5.7 C10.3,-6.5 10.5,-7.3 10.9,-8 C11.6,-9 12.8,-9.7 14.3,-10 C15.6,-10.3 16.3,-10.5 18.9,-10.5 L19,-10.5 C23,-10.5 24.3,-6.8 25.4,-3 L25.7,-2 C26.5,0.6 26.9,2.8 26.9,4.5 C26.9,5.7 26.7,6.8 26.3,7.6 C25.7,8.7 24.7,9.4 23,9.8 C22.1,10 20.6,10.1 20.6,10.1 C20.1,10.1 19.7,10.2 19.3,10.2 C16.1,10.2 14.1,9 12.7,4.7 C11.5,1 11.3,-0.1 10.4,-4.5"/>
<path class="Note" transform="matrix(2.3811,0,0,2.3811,3308.5,2218.32)" d="M18.7,-13.6 C4.9,-13.6 0,-6.6 0,-0.1 C0,6.4 4.9,13.4 18.7,13.4 C32.5,13.4 37.3,6.4 37.3,-0.1 C37.3,-6.6 32.5,-13.6 18.7,-13.6 M10.4,-4.5 C10.3,-4.9 10.3,-5.3 10.3,-5.7 C10.3,-6.5 10.5,-7.3 10.9,-8 C11.6,-9 12.8,-9.7 14.3,-10 C15.6,-10.3 16.3,-10.5 18.9,-10.5 L19,-10.5 C23,-10.5 24.3,-6.8 25.4,-3 L25.7,-2 C26.5,0.6 26.9,2.8 26.9,4.5 C26.9,5.7 26.7,6.8 26.3,7.6 C25.7,8.7 24.7,9.4 23,9.8 C22.1,10 20.6,10.1 20.6,10.1 C20.1,10.1 19.7,10.2 19.3,10.2 C16.1,10.2 14.1,9 12.7,4.7 C11.5,1 11.3,-0.1 10.4,-4.5"/>
<path class="Note" transform="matrix(2.3811,0,0,2.3811,586.361,1570.39)" d="M18.7,-13.6 C4.9,-13.6 0,-6.6 0,-0.1 C0,6.4 4.9,13.4 18.7,13.4 C32.5,13.4 37.3,6.4 37.3,-0.1 C37.3,-6.6 32.5,-13.6 18.7,-13.6 M10.4,-4.5 C10.3,-4.9 10.3,-5.3 10.3,-5.7 C10.3,-6.5 10.5,-7.3 10.9,-8 C11.6,-9 12.8,-9.7 14.3,-10 C15.6,-10.3 16.3,-10.5 18.9,-10.5 L19,-10.5 C23,-10.5 24.3,-6.8 25.4,-3 L25.7,-2 C26.5,0.6 26.9,2.8 26.9,4.5 C26.9,5.7 26.7,6.8 26.3,7.6 C25.7,8.7 24.7,9.4 23,9.8 C22.1,10 20.6,10.1 20.6,10.1 C20.1,10.1 19.7,10.2 19.3,10.2 C16.1,10.2 14.1,9 12.7,4.7 C11.5,1 11.3,-0.1 10.4,-4.5"/>
<path class="Note" transform="matrix(2.3811,0,0,2.3811,586.361,1510.87)" d="M18.7,-13.6 C4.9,-13.6 0,-6.6 0,-0.1 C0,6.4 4.9,13.4 18.7,13.4 C32.5,13.4 37.3,6.4 37.3,-0.1 C37.3,-6.6 32.5,-13.6 18.7,-13.6 M10.4,-4.5 C10.3,-4.9 10.3,-5.3 10.3,-5.7 C10.3,-6.5 10.5,-7.3 10.9,-8 C11.6,-9 12.8,-9.7 14.3,-10 C15.6,-10.3 16.3,-10.5 18.9,-10.5 L19,-10.5 C23,-10.5 24.3,-6.8 25.4,-3 L25.7,-2 C26.5,0.6 26.9,2.8 26.9,4.5 C26.9,5.7 26.7,6.8 26.3,7.6 C25.7,8.7 24.7,9.4 23,9.8 C22.1,10 20.6,10.1 20.6,10.1 C20.1,10.1 19.7,10.2 19.3,10.2 C16.1,10.2 14.1,9 12.7,4.7 C11.5,1 11.3,-0.1 10.4,-4.5"/>
<path class="Note" transform="matrix(2.3811,0,0,2.3811,586.361,1451.34)" d="M18.7,-13.6 C4.9,-13.6 0,-6.6 0,-0.1 C0,6.4 4.9,13.4 18.7,13.4 C32.5,13.4 37.3,6.4 37.3,-0.1 C37.3,-6.6 32.5,-13.6 18.7,-13.6 M10.4,-4.5 C10.3,-4.9 10.3,-5.3 10.3,-5.7 C10.3,-6.5 10.5,-7.3 10.9,-8 C11.6,-9 12.8,-9.7 14.3,-10 C15.6,-10.3 16.3,-10.5 18.9,-10.5 L19,-10.5 C23,-10.5 24.3,-6.8 25.4,-3 L25.7,-2 C26.5,0.6 26.9,2.8 26.9,4.5 C26.9,5.7 26.7,6.8 26.3,7.6 C25.7,8.7 24.7,9.4 23,9.8 C22.1,10 20.6,10.1 20.6,10.1 C20.1,10.1 19.7,10.2 19.3,10.2 C16.1,10.2 14.1,9 12.7,4.7 C11.5,1 11.3,-0.1 10.4,-4.5"/>
<path class="Note" transform="matrix(2.3811,0,0,2.3811,1501.37,1629.92)" d="M18.7,-13.6 C4.9,-13.6 0,-6.6 0,-0.1 C0,6.4 4.9,13.4 18.7,13.4 C32.5,13.4 37.3,6.4 37.3,-0.1 C37.3,-6.6 32.5,-13.6 18.7,-13.6 M10.4,-4.5 C10.3,-4.9 10.3,-5.3 10.3,-5.7 C10.3,-6.5 10.5,-7.3 10.9,-8 C11.6,-9 12.8,-9.7 14.3,-10 C15.6,-10.3 16.3,-10.5 18.9,-10.5 L19,-10.5 C23,-10.5 24.3,-6.8 25.4,-3 L25.7,-2 C26.5,0.6 26.9,2.8 26.9,4.5 C26.9,5.7 26.7,6.8 26.3,7.6 C25.7,8.7 24.7,9.4 23,9.8 C22.1,10 20.6,10.1 20.6,10.1 C20.1,10.1 19.7,10.2 19.3,10.2 C16.1,10.2 14.1,9 12.7,4.7 C11.5,1 11.3,-0.1 10.4,-4.5"/>
<path class="Note" transform="matrix(2.3811,0,0,2.3811,1501.37,1510.87)" d="M18.7,-13.6 C4.9,-13.6 0,-6.6 0,-0.1 C0,6.4 4.9,13.4 18.7,13.4 C32.5,13.4 37.3,6.4 37.3,-0.1 C37.3,-6.6 32.5,-13.6 18.7,-13.6 M10.4,-4.5 C10.3,-4.9 10.3,-5.3 10.3,-5.7 C10.3,-6.5 10.5,-7.3 10.9,-8 C11.6,-9 12.8,-9.7 14.3,-10 C15.6,-10.3 16.3,-10.5 18.9,-10.5 L19,-10.5 C23,-10.5 24.3,-6.8 25.4,-3 L25.7,-2 C26.5,0.6 26.9,2.8 26.9,4.5 C26.9,5.7 26.7,6.8 26.3,7.6 C25.7,8.7 24.7,9.4 23,9.8 C22.1,10 20.6,10.1 20.6,10.1 C20.1,10.1 19.7,10.2 19.3,10.2 C16.1,10.2 14.1,9 12.7,4.7 C11.5,1 11.3,-0.1 10.4,-4.5"/>
<path class="Note" transform="matrix(2.3811,0,0,2.3811,1501.37,1451.34)" d="M18.7,-13.6 C4.9,-13.6 0,-6.6 0,-0.1 C0,6.4 4.9,13.4 18.7,13.4 C32.5,13.4 37.3,6.4 37.3,-0.1 C37.3,-6.6 32.5,-13.6 18.7,-13.6 M10.4,-4.5 C10.3,-4.9 10.3,-5.3 10.3,-5.7 C10.3,-6.5 10.5,-7.3 10.9,-8 C11.6,-9 12.8,-9.7 14.3,-10 C15.6,-10.3 16.3,-10.5 18.9,-10.5 L19,-10.5 C23,-10.5 24.3,-6.8 25.4,-3 L25.7,-2 C26.5,0.6 26.9,2.8 26.9,4.5 C26.9,5.7 26.7,6.8 26.3,7.6 C25.7,8.7 24.7,9.4 23,9.8 C22.1,10 20.6,10.1 20.6,10.1 C20.1,10.1 19.7,10.2 19.3,10.2 C16.1,10.2 14.1,9 12.7,4.7 C11.5,1 11.3,-0.1 10.4,-4.5"/>
<path class="Note" transform="matrix(2.3811,0,0,2.3811,2404.93,1629.92)" d="M18.7,-13.6 C4.9,-13.6 0,-6.6 0,-0.1 C0,6.4 4.9,13.4 18.7,13.4 C32.5,13.4 37.3,6.4 37.3,-0.1 C37.3,-6.6 32.5,-13.6 18.7,-13.6 M10.4,-4.5 C10.3,-4.9 10.3,-5.3 10.3,-5.7 C10.3,-6.5 10.5,-7.3 10.9,-8 C11.6,-9 12.8,-9.7 14.3,-10 C15.6,-10.3 16.3,-10.5 18.9,-10.5 L19,-10.5 C23,-10.5 24.3,-6.8 25.4,-3 L25.7,-2 C26.5,0.6 26.9,2.8 26.9,4.5 C26.9,5.7 26.7,6.8 26.3,7.6 C25.7,8.7 24.7,9.4 23,9.8 C22.1,10 20.6,10.1 20.6,10.1 C20.1,10.1 19.7,10.2 19.3,10.2 C16.1,10.2 14.1,9 12.7,4.7 C11.5,1 11.3,-0.1 10.4,-4.5"/>
<path class="Note" transform="matrix(2.3811,0,0,2.3811,2404.93,1570.39)" d="M18.7,-13.6 C4.9,-13.6 0,-6.6 0,-0.1 C0,6.4 4.9,13.4 18.7,13.4 C32.5,13.4 37.3,6.4 37.3,-0.1 C37.3,-6.6 32.5,-13.6 18.7,-13.6 M10.4,-4.5 C10.3,-4.9 10.3,-5.3 10.3,-5.7 C10.3,-6.5 10.5,-7.3 10.9,-8 C11.6,-9 12.8,-9.7 14.3,-10 C15.6,-10.3 16.3,-10.5 18.9,-10.5 L19,-10.5 C23,-10.5 24.3,-6.8 25.4,-3 L25.7,-2 C26.5,0.6 26.9,2.8 26.9,4.5 C26.9,5.7 26.7,6.8 26.3,7.6 C25.7,8.7 24.7,9.4 23,9.8 C22.1,10 20.6,10.1 20.6,10.1 C20.1,10.1 19.7,10.2 19.3,10.2 C16.1,10.2 14.1,9 12.7,4.7 C11.5,1 11.3,-0.1 10.4,-4.5"/>
<path class="Note" transform="matrix(2.3811,0,0,2.3811,2404.93,1451.34)" d="M18.7,-13.6 C4.9,-13.6 0,-6.6 0,-0.1 C0,6.4 4.9,13.4 18.7,13.4 C32.5,13.4 37.3,6.4 37.3,-0.1 C37.3,-6.6 32.5,-13.6 18.7,-13.6 M10.4,-4.5 C10.3,-4.9 10.3,-5.3 10.3,-5.7 C10.3,-6.5 10.5,-7.3 10.9,-8 C11.6,-9 12.8,-9.7 14.3,-10 C15.6,-10.3 16.3,-10.5 18.9,-10.5 L19,-10.5 C23,-10.5 24.3,-6.8 25.4,-3 L25.7,-2 C26.5,0.6 26.9,2.8 26.9,4.5 C26.9,5.7 26.7,6.8 26.3,7.6 C25.7,8.7 24.7,9.4 23,9.8 C22.1,10 20.6,10.1 20.6,10.1 C20.1,10.1 19.7,10.2 19.3,10.2 C16.1,10.2 14.1,9 12.7,4.7 C11.5,1 11.3,-0.1 10.4,-4.5"/>
<path class="Note" transform="matrix(2.3811,0,0,2.3811,3308.5,1629.92)" d="M18.7,-13.6 C4.9,-13.6 0,-6.6 0,-0.1 C0,6.4 4.9,13.4 18.7,13.4 C32.5,13.4 37.3,6.4 37.3,-0.1 C37.3,-6.6 32.5,-13.6 18.7,-13.6 M10.4,-4.5 C10.3,-4.9 10.3,-5.3 10.3,-5.7 C10.3,-6.5 10.5,-7.3 10.9,-8 C11.6,-9 12.8,-9.7 14.3,-10 C15.6,-10.3 16.3,-10.5 18.9,-10.5 L19,-10.5 C23,-10.5 24.3,-6.8 25.4,-3 L25.7,-2 C26.5,0.6 26.9,2.8 26.9,4.5 C26.9,5.7 26.7,6.8 26.3,7.6 C25.7,8.7 24.7,9.4 23,9.8 C22.1,10 20.6,10.1 20.6,10.1 C20.1,10.1 19.7,10.2 19.3,10.2 C16.1,10.2 14.1,9 12.7,4.7 C11.5,1 11.3,-0.1 10.4,-4.5"/>
<path class="Note" transform="matrix(2.3811,0,0,2.3811,3308.5,1570.39)" d="M18.7,-13.6 C4.9,-13.6 0,-6.6 0,-0.1 C0,6.4 4.9,13.4 18.7,13.4 C32.5,13.4 37.3,6.4 37.3,-0.1 C37.3,-6.6 32.5,-13.6 18.7,-13.6 M10.4,-4.5 C10.3,-4.9 10.3,-5.3 10.3,-5.7 C10.3,-6.5 10.5,-7.3 10.9,-8 C11.6,-9 12.8,-9.7 14.3,-10 C15.6,-10.3 16.3,-10.5 18.9,-10.5 L19,-10.5 C23,-10.5 24.3,-6.8 25.4,-3 L25.7,-2 C26.5,0.6 26.9,2.8 26.9,4.5 C26.9,5.7 26.7,6.8 26.3,7.6 C25.7,8.7 24.7,9.4 23,9.8 C22.1,10 20.6,10.1 20.6,10.1 C20.1,10.1 19.7,10.2 19.3,10.2 C16.1,10.2 14.1,9 12.7,4.7 C11.5,1 11.3,-0.1 10.4,-4.5"/>
<path class="Note" transform="matrix(2.3811,0,0,2.3811,3308.5,1510.87)" d="M18.7,-13.6 C4.9,-13.6 0,-6.6 0,-0.1 C0,6.4 4.9,13.4 18.7,13.4 C32.5,13.4 37.3,6.4 37.3,-0.1 C37.3,-6.6 32.5,-13.6 18.7,-13.6 M10.4,-4.5 C10.3,-4.9 10.3,-5.3 10.3,-5.7 C10.3,-6.5 10.5,-7.3 10.9,-8 C11.6,-9 12.8,-9.7 14.3,-10 C15.6,-10.3 16.3,-10.5 18.9,-10.5 L19,-10.5 C23,-10.5 24.3,-6.8 25.4,-3 L25.7,-2 C26.5,0.6 26.9,2.8 26.9,4.5 C26.9,5.7 26.7,6.8 26.3,7.6 C25.7,8.7 24.7,9.4 23,9.8 C22.1,10 20.6,10.1 20.6,10.1 C20.1,10.1 19.7,10.2 19.3,10.2 C16.1,10.2 14.1,9 12.7,4.7 C11.5,1 11.3,-0.1 10.4,-4.5"/>
<path class="Note" d="M620.904,910.409 C617.108,910.409 615.209,906.342 615.209,898.207 L615.209,864.157 C615.209,860.903 616.798,859.276 619.974,859.276 C621.369,859.276 622.415,859.392 623.112,859.625 C625.591,855.286 629.658,851.645 635.314,848.701 C643.216,844.595 651.235,842.542 659.37,842.542 C665.8,842.542 669.015,844.943 669.015,849.747 C669.015,853.776 666.846,855.79 662.507,855.79 C659.408,855.79 656.464,855.093 653.675,853.698 C651.196,852.458 648.562,851.839 645.773,851.839 C640.97,851.839 633.881,854.976 624.506,861.252 C625.823,867.527 626.482,874.848 626.482,883.216 C626.482,901.345 624.623,910.409 620.904,910.409"/>
<path class="Note" d="M700.973,616.271 C694.62,626.265 684.587,634.555 670.874,641.14 C658.944,646.874 647.787,649.74 637.406,649.74 C629.116,649.74 622.221,648.074 616.72,644.743 C610.755,641.102 607.772,636.763 607.772,631.727 C607.772,620.339 610.755,610.538 616.72,602.326 C624.855,591.17 633.067,585.592 641.357,585.592 C647.245,585.592 651.429,586.754 653.908,589.078 C657.317,592.099 659.021,596.244 659.021,601.513 C659.021,608.95 653.482,615.419 642.403,620.92 C631.634,626.265 624.158,629.752 619.974,631.379 C620.904,633.316 622.105,635.059 623.577,636.608 C627.218,640.482 632.176,642.419 638.452,642.419 C646.354,642.419 656.968,639.513 670.293,633.703 C683.077,628.047 693.303,622.237 700.973,616.271 M618.347,626.033 C624.158,623.089 629.465,619.641 634.268,615.69 C641.396,609.88 644.959,603.604 644.959,596.864 C644.959,593.068 643.216,591.17 639.73,591.17 C636.786,591.17 632.757,594.54 627.644,601.28 C621.214,609.647 617.999,616.465 617.999,621.733 C617.999,623.205 618.115,624.638 618.347,626.033"/>
<path class="Note" d="M620.904,553.244 C617.108,553.244 615.209,549.176 615.209,541.041 L615.209,506.992 C615.209,503.738 616.798,502.111 619.974,502.111 C621.369,502.111 622.415,502.227 623.112,502.459 C625.591,498.121 629.658,494.48 635.314,491.536 C643.216,487.43 651.235,485.376 659.37,485.376 C665.8,485.376 669.015,487.778 669.015,492.582 C669.015,496.61 666.846,498.624 662.507,498.624 C659.408,498.624 656.464,497.927 653.675,496.533 C651.196,495.293 648.562,494.673 645.773,494.673 C640.97,494.673 633.881,497.811 624.506,504.086 C625.823,510.362 626.482,517.683 626.482,526.05 C626.482,544.179 624.623,553.244 620.904,553.244"/>
<path class="Note" d="M700.973,794.854 C694.62,804.848 684.587,813.138 670.874,819.723 C658.944,825.456 647.787,828.323 637.406,828.323 C629.116,828.323 622.221,826.657 616.72,823.326 C610.755,819.684 607.772,815.346 607.772,810.31 C607.772,798.921 610.755,789.121 616.72,780.909 C624.855,769.752 633.067,764.174 641.357,764.174 C647.245,764.174 651.429,765.336 653.908,767.661 C657.317,770.682 659.021,774.827 659.021,780.095 C659.021,787.533 653.482,794.002 642.403,799.502 C631.634,804.848 624.158,808.334 619.974,809.961 C620.904,811.898 622.105,813.641 623.577,815.191 C627.218,819.065 632.176,821.001 638.452,821.001 C646.354,821.001 656.968,818.096 670.293,812.286 C683.077,806.63 693.303,800.819 700.973,794.854 M618.347,804.616 C624.158,801.672 629.465,798.224 634.268,794.273 C641.396,788.462 644.959,782.187 644.959,775.447 C644.959,771.651 643.216,769.752 639.73,769.752 C636.786,769.752 632.757,773.123 627.644,779.863 C621.214,788.23 617.999,795.048 617.999,800.316 C617.999,801.788 618.115,803.221 618.347,804.616"/>
<path class="Note" d="M554.092,677.207 C554.401,665.509 560.871,655.127 573.499,646.063 C584.733,638.005 597.012,633.977 610.338,633.977 C629.009,633.977 645.472,641.298 659.727,655.941 C668.792,665.315 673.324,676.936 673.324,690.804 C673.324,703.277 669.993,712.845 663.33,719.508 C655.195,727.72 646.595,731.826 637.531,731.826 C631.333,731.826 626.53,730.432 623.121,727.643 C617.543,723.072 614.754,716.951 614.754,709.281 C614.754,699.365 619.712,690.3 629.629,682.088 C637.763,675.348 645.937,670.932 654.149,668.84 C651.98,665.121 649.23,661.635 645.898,658.381 C635.517,648.232 623.741,643.157 610.57,643.157 C596.857,643.157 585.507,646.14 576.52,652.106 C567.223,658.226 559.747,666.593 554.092,677.207 M657.054,674.999 C652.793,678.95 648.532,683.173 644.271,687.666 C635.904,696.498 631.72,704.865 631.72,712.768 C631.72,721.212 633.657,725.435 637.531,725.435 C641.017,725.435 645.898,720.67 652.174,711.141 C657.209,703.548 659.727,696.576 659.727,690.223 C659.727,684.8 658.836,679.725 657.054,674.999"/>
<path class="Note" d="M1580.19,583.965 C1584.76,583.965 1587.04,586.831 1587.04,592.564 C1587.04,596.593 1584.52,602.597 1579.49,610.577 C1575.46,617.007 1573.45,623.283 1573.45,629.403 C1573.45,632.889 1578.52,634.633 1588.67,634.633 C1597.04,634.633 1608.7,630.1 1623.65,621.036 C1608.62,635.524 1595.56,642.767 1584.49,642.767 C1574.49,642.767 1567.52,641.257 1563.57,638.235 C1562.56,637.46 1561.71,636.531 1561.01,635.446 C1557.14,640.172 1550.67,642.535 1541.6,642.535 C1532.93,642.535 1526.26,640.753 1521.62,637.189 C1518.52,634.788 1516.97,630.953 1516.97,625.684 C1516.97,617.317 1521.93,608.175 1531.84,598.259 C1542.46,587.645 1554.74,582.338 1568.68,582.338 C1572.17,582.338 1574.72,583.616 1576.35,586.173 C1577.67,584.701 1578.95,583.965 1580.19,583.965 M1559.38,630.217 C1559.31,629.597 1559.27,628.977 1559.27,628.357 C1559.27,628.047 1563.22,617.24 1571.12,595.934 C1571.9,593.843 1572.67,592.061 1573.45,590.589 C1570.42,589.969 1567.44,589.659 1564.5,589.659 C1559.07,589.659 1551.87,594.269 1542.88,603.488 C1534.83,611.7 1530.8,618.789 1530.8,624.755 C1530.8,631.34 1533.93,634.633 1540.21,634.633 C1547.8,634.633 1554.19,633.161 1559.38,630.217"/>
<path class="Note" d="M1587.27,759.642 C1597.73,753.057 1605.33,747.672 1610.05,743.489 C1618.73,735.819 1623.07,728.071 1623.07,720.247 C1623.07,711.105 1616.95,706.534 1604.71,706.534 C1591.85,706.534 1578.44,715.792 1564.5,734.308 C1555.05,746.859 1548.34,758.712 1544.39,769.869 C1549.27,766.692 1554.43,765.104 1559.85,765.104 C1564.96,765.104 1569.03,767.389 1572.05,771.96 C1574.14,775.137 1575.19,780.56 1575.19,788.23 C1575.19,795.125 1571.55,803.221 1564.27,812.518 C1559.77,818.251 1554.77,821.118 1549.27,821.118 C1542.3,821.118 1537.42,819.723 1534.63,816.934 C1530.68,812.983 1528.7,805.158 1528.7,793.459 C1528.7,773.781 1536.65,754.413 1552.53,735.354 C1570.42,713.894 1587.58,703.164 1604.01,703.164 C1616.71,703.164 1626.21,706.146 1632.48,712.112 C1636.12,715.598 1637.94,720.634 1637.94,727.219 C1637.94,734.579 1630.7,742.791 1616.21,751.856 C1608.62,756.659 1598.97,759.255 1587.27,759.642 M1542.88,774.749 C1540.95,781.257 1539.98,787.494 1539.98,793.459 C1539.98,807.637 1542.22,814.726 1546.72,814.726 C1550.98,814.726 1554.31,811.705 1556.71,805.662 C1559.5,798.844 1560.89,791.29 1560.89,783 C1560.89,775.64 1558.45,771.96 1553.57,771.96 C1550.16,771.96 1546.6,772.89 1542.88,774.749"/>
<path class="Note" d="M1535.91,553.244 C1532.11,553.244 1530.22,549.176 1530.22,541.041 L1530.22,506.992 C1530.22,503.738 1531.8,502.111 1534.98,502.111 C1536.37,502.111 1537.42,502.227 1538.12,502.459 C1540.6,498.121 1544.66,494.48 1550.32,491.536 C1558.22,487.43 1566.24,485.376 1574.38,485.376 C1580.81,485.376 1584.02,487.778 1584.02,492.582 C1584.02,496.61 1581.85,498.624 1577.51,498.624 C1574.41,498.624 1571.47,497.927 1568.68,496.533 C1566.2,495.293 1563.57,494.673 1560.78,494.673 C1555.98,494.673 1548.89,497.811 1539.51,504.086 C1540.83,510.362 1541.49,517.683 1541.49,526.05 C1541.49,544.179 1539.63,553.244 1535.91,553.244"/>
<path class="Note" d="M1469.1,677.207 C1469.41,665.509 1475.88,655.127 1488.5,646.063 C1499.74,638.005 1512.02,633.977 1525.34,633.977 C1544.01,633.977 1560.48,641.298 1574.73,655.941 C1583.8,665.315 1588.33,676.936 1588.33,690.804 C1588.33,703.277 1585,712.845 1578.34,719.508 C1570.2,727.72 1561.6,731.826 1552.54,731.826 C1546.34,731.826 1541.54,730.432 1538.13,727.643 C1532.55,723.072 1529.76,716.951 1529.76,709.281 C1529.76,699.365 1534.72,690.3 1544.63,682.088 C1552.77,675.348 1560.94,670.932 1569.16,668.84 C1566.99,665.121 1564.24,661.635 1560.9,658.381 C1550.52,648.232 1538.75,643.157 1525.58,643.157 C1511.86,643.157 1500.51,646.14 1491.53,652.106 C1482.23,658.226 1474.75,666.593 1469.1,677.207 M1572.06,674.999 C1567.8,678.95 1563.54,683.173 1559.28,687.666 C1550.91,696.498 1546.73,704.865 1546.73,712.768 C1546.73,721.212 1548.66,725.435 1552.54,725.435 C1556.02,725.435 1560.9,720.67 1567.18,711.141 C1572.22,703.548 1574.73,696.576 1574.73,690.223 C1574.73,684.8 1573.84,679.725 1572.06,674.999"/>
<path class="Note" d="M2439.48,999.7 C2435.68,999.7 2433.78,995.633 2433.78,987.498 L2433.78,953.448 C2433.78,950.194 2435.37,948.568 2438.55,948.568 C2439.94,948.568 2440.99,948.684 2441.68,948.916 C2444.16,944.578 2448.23,940.936 2453.89,937.992 C2461.79,933.886 2469.81,931.833 2477.94,931.833 C2484.37,931.833 2487.59,934.235 2487.59,939.038 C2487.59,943.067 2485.42,945.081 2481.08,945.081 C2477.98,945.081 2475.04,944.384 2472.25,942.989 C2469.77,941.75 2467.13,941.13 2464.34,941.13 C2459.54,941.13 2452.45,944.268 2443.08,950.543 C2444.39,956.818 2445.05,964.14 2445.05,972.507 C2445.05,990.636 2443.19,999.7 2439.48,999.7"/>
<path class="Note" d="M2483.75,583.965 C2488.32,583.965 2490.61,586.831 2490.61,592.564 C2490.61,596.593 2488.09,602.597 2483.05,610.577 C2479.03,617.007 2477.01,623.283 2477.01,629.403 C2477.01,632.889 2482.09,634.633 2492.23,634.633 C2500.6,634.633 2512.26,630.1 2527.21,621.036 C2512.18,635.524 2499.13,642.767 2488.05,642.767 C2478.06,642.767 2471.08,641.257 2467.13,638.235 C2466.13,637.46 2465.27,636.531 2464.58,635.446 C2460.7,640.172 2454.23,642.535 2445.17,642.535 C2436.49,642.535 2429.83,640.753 2425.18,637.189 C2422.08,634.788 2420.53,630.953 2420.53,625.684 C2420.53,617.317 2425.49,608.175 2435.41,598.259 C2446.02,587.645 2458.3,582.338 2472.25,582.338 C2475.73,582.338 2478.29,583.616 2479.92,586.173 C2481.23,584.701 2482.51,583.965 2483.75,583.965 M2462.95,630.217 C2462.87,629.597 2462.83,628.977 2462.83,628.357 C2462.83,628.047 2466.78,617.24 2474.69,595.934 C2475.46,593.843 2476.24,592.061 2477.01,590.589 C2473.99,589.969 2471.01,589.659 2468.06,589.659 C2462.64,589.659 2455.43,594.269 2446.45,603.488 C2438.39,611.7 2434.36,618.789 2434.36,624.755 C2434.36,631.34 2437.5,634.633 2443.77,634.633 C2451.37,634.633 2457.76,633.161 2462.95,630.217"/>
<path class="Note" d="M2490.84,759.642 C2501.3,753.057 2508.89,747.672 2513.62,743.489 C2522.29,735.819 2526.63,728.071 2526.63,720.247 C2526.63,711.105 2520.51,706.534 2508.27,706.534 C2495.41,706.534 2482.01,715.792 2468.06,734.308 C2458.61,746.859 2451.91,758.712 2447.96,769.869 C2452.84,766.692 2457.99,765.104 2463.41,765.104 C2468.53,765.104 2472.6,767.389 2475.62,771.96 C2477.71,775.137 2478.75,780.56 2478.75,788.23 C2478.75,795.125 2475.11,803.221 2467.83,812.518 C2463.34,818.251 2458.34,821.118 2452.84,821.118 C2445.87,821.118 2440.99,819.723 2438.2,816.934 C2434.25,812.983 2432.27,805.158 2432.27,793.459 C2432.27,773.781 2440.21,754.413 2456.09,735.354 C2473.99,713.894 2491.15,703.164 2507.57,703.164 C2520.28,703.164 2529.77,706.146 2536.05,712.112 C2539.69,715.598 2541.51,720.634 2541.51,727.219 C2541.51,734.579 2534.26,742.791 2519.78,751.856 C2512.18,756.659 2502.54,759.255 2490.84,759.642 M2446.45,774.749 C2444.51,781.257 2443.54,787.494 2443.54,793.459 C2443.54,807.637 2445.79,814.726 2450.28,814.726 C2454.54,814.726 2457.88,811.705 2460.28,805.662 C2463.07,798.844 2464.46,791.29 2464.46,783 C2464.46,775.64 2462.02,771.96 2457.14,771.96 C2453.73,771.96 2450.17,772.89 2446.45,774.749"/>
<path class="Note" d="M2372.66,677.207 C2372.97,665.509 2379.44,655.127 2392.07,646.063 C2403.3,638.005 2415.58,633.977 2428.91,633.977 C2447.58,633.977 2464.04,641.298 2478.3,655.941 C2487.36,665.315 2491.9,676.936 2491.9,690.804 C2491.9,703.277 2488.56,712.845 2481.9,719.508 C2473.77,727.72 2465.17,731.826 2456.1,731.826 C2449.9,731.826 2445.1,730.432 2441.69,727.643 C2436.11,723.072 2433.32,716.951 2433.32,709.281 C2433.32,699.365 2438.28,690.3 2448.2,682.088 C2456.33,675.348 2464.51,670.932 2472.72,668.84 C2470.55,665.121 2467.8,661.635 2464.47,658.381 C2454.09,648.232 2442.31,643.157 2429.14,643.157 C2415.43,643.157 2404.08,646.14 2395.09,652.106 C2385.79,658.226 2378.32,666.593 2372.66,677.207 M2475.63,674.999 C2471.36,678.95 2467.1,683.173 2462.84,687.666 C2454.48,696.498 2450.29,704.865 2450.29,712.768 C2450.29,721.212 2452.23,725.435 2456.1,725.435 C2459.59,725.435 2464.47,720.67 2470.74,711.141 C2475.78,703.548 2478.3,696.576 2478.3,690.223 C2478.3,684.8 2477.41,679.725 2475.63,674.999"/>
<path class="Note" d="M3387.32,851.839 C3391.89,851.839 3394.17,854.705 3394.17,860.438 C3394.17,864.467 3391.66,870.471 3386.62,878.451 C3382.59,884.881 3380.58,891.157 3380.58,897.277 C3380.58,900.763 3385.65,902.507 3395.8,902.507 C3404.17,902.507 3415.83,897.974 3430.78,888.91 C3415.75,903.398 3402.7,910.641 3391.62,910.641 C3381.62,910.641 3374.65,909.131 3370.7,906.109 C3369.69,905.334 3368.84,904.405 3368.14,903.32 C3364.27,908.046 3357.8,910.409 3348.73,910.409 C3340.06,910.409 3333.39,908.627 3328.75,905.063 C3325.65,902.662 3324.1,898.827 3324.1,893.558 C3324.1,885.191 3329.06,876.049 3338.97,866.133 C3349.59,855.519 3361.87,850.212 3375.81,850.212 C3379.3,850.212 3381.85,851.49 3383.48,854.047 C3384.8,852.575 3386.08,851.839 3387.32,851.839 M3366.52,898.091 C3366.44,897.471 3366.4,896.851 3366.4,896.231 C3366.4,895.921 3370.35,885.114 3378.25,863.808 C3379.03,861.717 3379.8,859.935 3380.58,858.463 C3377.56,857.843 3374.57,857.533 3371.63,857.533 C3366.21,857.533 3359,862.143 3350.01,871.362 C3341.96,879.574 3337.93,886.663 3337.93,892.629 C3337.93,899.214 3341.06,902.507 3347.34,902.507 C3354.93,902.507 3361.32,901.035 3366.52,898.091"/>
<path class="Note" d="M3387.32,583.965 C3391.89,583.965 3394.17,586.831 3394.17,592.564 C3394.17,596.593 3391.66,602.597 3386.62,610.577 C3382.59,617.007 3380.58,623.283 3380.58,629.403 C3380.58,632.889 3385.65,634.633 3395.8,634.633 C3404.17,634.633 3415.83,630.1 3430.78,621.036 C3415.75,635.524 3402.7,642.767 3391.62,642.767 C3381.62,642.767 3374.65,641.257 3370.7,638.235 C3369.69,637.46 3368.84,636.531 3368.14,635.446 C3364.27,640.172 3357.8,642.535 3348.73,642.535 C3340.06,642.535 3333.39,640.753 3328.75,637.189 C3325.65,634.788 3324.1,630.953 3324.1,625.684 C3324.1,617.317 3329.06,608.175 3338.97,598.259 C3349.59,587.645 3361.87,582.338 3375.81,582.338 C3379.3,582.338 3381.85,583.616 3383.48,586.173 C3384.8,584.701 3386.08,583.965 3387.32,583.965 M3366.52,630.217 C3366.44,629.597 3366.4,628.977 3366.4,628.357 C3366.4,628.047 3370.35,617.24 3378.25,595.934 C3379.03,593.843 3379.8,592.061 3380.58,590.589 C3377.56,589.969 3374.57,589.659 3371.63,589.659 C3366.21,589.659 3359,594.269 3350.01,603.488 C3341.96,611.7 3337.93,618.789 3337.93,624.755 C3337.93,631.34 3341.06,634.633 3347.34,634.633 C3354.93,634.633 3361.32,633.161 3366.52,630.217"/>
<path class="Note" d="M3394.41,759.642 C3404.86,753.057 3412.46,747.672 3417.18,743.489 C3425.86,735.819 3430.2,728.071 3430.2,720.247 C3430.2,711.105 3424.08,706.534 3411.84,706.534 C3398.98,706.534 3385.57,715.792 3371.63,734.308 C3362.18,746.859 3355.47,758.712 3351.52,769.869 C3356.4,766.692 3361.56,765.104 3366.98,765.104 C3372.09,765.104 3376.16,767.389 3379.18,771.96 C3381.27,775.137 3382.32,780.56 3382.32,788.23 C3382.32,795.125 3378.68,803.221 3371.4,812.518 C3366.9,818.251 3361.91,821.118 3356.4,821.118 C3349.43,821.118 3344.55,819.723 3341.76,816.934 C3337.81,812.983 3335.84,805.158 3335.84,793.459 C3335.84,773.781 3343.78,754.413 3359.66,735.354 C3377.56,713.894 3394.72,703.164 3411.14,703.164 C3423.85,703.164 3433.34,706.146 3439.61,712.112 C3443.25,715.598 3445.07,720.634 3445.07,727.219 C3445.07,734.579 3437.83,742.791 3423.34,751.856 C3415.75,756.659 3406.1,759.255 3394.41,759.642 M3350.01,774.749 C3348.08,781.257 3347.11,787.494 3347.11,793.459 C3347.11,807.637 3349.35,814.726 3353.85,814.726 C3358.11,814.726 3361.44,811.705 3363.84,805.662 C3366.63,798.844 3368.03,791.29 3368.03,783 C3368.03,775.64 3365.59,771.96 3360.7,771.96 C3357.3,771.96 3353.73,772.89 3350.01,774.749"/>
<path class="Note" d="M3387.32,673.256 C3391.89,673.256 3394.17,676.123 3394.17,681.856 C3394.17,685.884 3391.66,691.888 3386.62,699.868 C3382.59,706.299 3380.58,712.574 3380.58,718.694 C3380.58,722.181 3385.65,723.924 3395.8,723.924 C3404.17,723.924 3415.83,719.392 3430.78,710.327 C3415.75,724.815 3402.7,732.059 3391.62,732.059 C3381.62,732.059 3374.65,730.548 3370.7,727.527 C3369.69,726.752 3368.84,725.822 3368.14,724.737 C3364.27,729.463 3357.8,731.826 3348.73,731.826 C3340.06,731.826 3333.39,730.044 3328.75,726.481 C3325.65,724.079 3324.1,720.244 3324.1,714.976 C3324.1,706.609 3329.06,697.467 3338.97,687.55 C3349.59,676.936 3361.87,671.629 3375.81,671.629 C3379.3,671.629 3381.85,672.907 3383.48,675.464 C3384.8,673.992 3386.08,673.256 3387.32,673.256 M3366.52,719.508 C3366.44,718.888 3366.4,718.268 3366.4,717.649 C3366.4,717.339 3370.35,706.531 3378.25,685.226 C3379.03,683.134 3379.8,681.352 3380.58,679.88 C3377.56,679.26 3374.57,678.95 3371.63,678.95 C3366.21,678.95 3359,683.56 3350.01,692.779 C3341.96,700.992 3337.93,708.081 3337.93,714.046 C3337.93,720.631 3341.06,723.924 3347.34,723.924 C3354.93,723.924 3361.32,722.452 3366.52,719.508"/>
<path class="Clef" transform="matrix(2.3811,0,0,2.3811,212.156,2158.79)" d="M25.4,-25.1 C17.8,-25.1 11.7,-20.7 11.6,-20.7 C5.8,-16.4 3.5,-11.3 2.6,-7.8 C2.1,-6 1.9,-4.2 1.9,-2.5 C1.9,-0.1 2.3,2.1 3.2,4 C4.4,6.7 6.7,8.6 9.7,9.6 C10.9,10 12.2,10.2 13.5,10.2 C15.7,10.2 18,9.6 19.9,8.5 C23,6.8 24.9,3.2 24.9,-0.7 C24.9,-4.2 23.1,-7.4 20.1,-9.3 C18,-10.7 16,-11.1 14.3,-11.1 C13.1,-11.1 12,-10.9 11.1,-10.6 C10.1,-10.2 8.4,-9.2 7.6,-8.5 C7.9,-10.4 9.1,-13.3 10.2,-14.9 C11.3,-16.5 13.5,-18.5 15.2,-19.4 C17.7,-20.8 20.9,-21.4 24.4,-21.4 C34.6,-21.4 39.6,-13.2 39.6,3.6 C39.6,12.9 36.1,21.8 33.1,27.7 C29.8,34.3 25.4,40.6 21.5,44.1 C11.1,53.6 1.3,58.1 1.2,58.1 C1.2,58.1 -0.3,59 0.1,60.5 C0.4,61.5 1.3,61.7 1.9,61.7 C2,61.7 2.3,61.6 2.4,61.6 C2.5,61.6 13.9,56.9 23,49.8 C28.1,46.1 32.7,42.1 36.7,37.8 C40.3,33.9 43.4,29.7 45.9,25.5 C50.3,18 52.8,10.2 52.8,3.5 C52.8,-4.8 50.6,-11.7 46.5,-16.6 C41.8,-22.2 34.7,-25.1 25.4,-25.1 M56.8,-12.4 C56.8,-9.6 59,-7.4 61.6,-7.4 C64.2,-7.4 66.4,-9.6 66.4,-12.4 C66.4,-15.2 64.2,-17.5 61.6,-17.5 C59,-17.5 56.8,-15.2 56.8,-12.4 M56.8,12.3 C56.8,15.1 59,17.4 61.6,17.4 C64.2,17.4 66.4,15.1 66.4,12.3 C66.4,9.5 64.2,7.2 61.6,7.2 C59,7.2 56.8,9.5 56.8,12.3"/>
<path class="Clef" transform="matrix(2.3811,0,0,2.3811,212.156,1570.39)" d="M63.37,-5.89004 C62.14,-11.32 59.5,-15.14 58.72,-16.1801 C55.5301,-20.45 51.52,-23.3 46.8301,-24.65 C43.72,-25.54 40.72,-25.65 38.3,-25.47 C37.2601,-31.4801 36.2601,-37.3601 35.35,-42.8101 C40.79,-48.97 44.42,-54.77 46.69,-59.07 C50.1601,-65.65 51.3101,-70.2301 51.3601,-70.4301 C53.0801,-75.64 53.44,-83.34 52.34,-91.55 C51.3301,-99.1 49.24,-105.81 46.89,-109.06 C45.8601,-110.49 44.8101,-111.22 43.77,-111.22 C42.55,-111.22 40.04,-109.98 37.15,-107.21 C34.85,-105.01 31.5801,-101.12 29.02,-95.1101 C26.02,-88.05 25.8101,-78.5601 26.1601,-71.84 C26.54,-64.57 27.65,-58.8801 27.6601,-58.8301 C27.6801,-58.74 27.94,-57.24 28.39,-54.67 C28.1601,-54.44 27.92,-54.22 27.67,-53.9801 C26.6301,-52.9801 25.44,-51.84 24.0601,-50.4601 C23.2,-49.6 22.25,-48.69 21.25,-47.72 C12.79,-39.57 0,-27.25 0,-8.1 C0,-3.4 0.9,1.01992 2.68008,5.02998 C4.27002,8.62998 6.57002,11.91 9.5,14.78 C17.2301,22.33 27.82,25.5399 34.8801,25.38 C37.8301,25.31 40.4601,25.0699 42.85,24.6199 C44.6801,34.2199 45.82,41.25 45.8601,46.5899 C45.9,53.1 44.25,57.0699 40.35,59.8399 C37.92,61.5699 35.1101,62.5199 32.0101,62.6699 C29.42,62.7899 27.1601,62.3199 25.7301,61.91 L25.72,61.91 C25.72,61.91 25.4301,61.83 25.42,61.63 C25.4101,61.45 25.7601,61.4 25.77,61.4 L25.79,61.4 C27.7101,60.96 31.2801,59.73 33.64,56.43 C35.44,53.91 36.3101,49.2899 34.47,45.35 C33.3601,42.96 30.85,40.01 25.2301,39.56 C22.74,39.36 20.47,39.8699 18.47,41.0699 C16.6601,42.15 15.1601,43.7899 14.1101,45.7899 C11.65,50.4899 12.1101,56.2199 15.24,60.06 C18.2,63.68 22.82,65.9899 28.25,66.5699 C29.1,66.66 29.95,66.7 30.8,66.7 C31.5101,66.7 32.22,66.6699 32.92,66.61 C31.72,66.9399 30.64,67.4899 29.77,68.25 C28.2801,69.5399 27.44,71.38 27.44,73.41 C27.44,75.28 28.0601,76.65 29.55,78.0399 C28.4101,78.5 27.55,78.98 26.79,79.56 C25.25,80.73 24.34,82.46 24.34,84.1899 C24.34,87.45 27.3,89.63 31.72,89.63 C37.1301,89.63 40.9101,86.63 40.9101,82.35 C40.9101,80.1199 39.9101,78.18 38.0801,76.83 C41.0101,75.6199 42.37,73.9399 42.37,71.56 C42.39,70.05 41.69,68.61 40.49,67.6899 C39.2801,66.7399 37.62,66.2399 35.69,66.2399 L35.5101,66.2399 C38.2801,65.7 40.92,64.7 43.2101,63.28 C46.87,60.71 48.99,56.73 49.67,51.1 C50.2301,46.46 49.84,40.55 48.44,32.48 C48.0801,30.3899 47.54,27.36 46.8801,23.6 C52.6301,21.68 56.79,18.11 60.5601,12.26 C63.85,6.51992 64.8,0.419922 63.37,-5.89004 M32.39,87.5399 C30.19,87.5399 28.7301,86.1199 28.7301,84.01 C28.7301,82.11 29.65,80.5 31.32,79.4699 C31.6801,79.66 31.77,79.71 32.1101,79.88 C33.3,80.48 33.3,80.48 33.55,80.63 L33.5601,80.6399 C35.47,81.73 36.25,82.76 36.25,84.18 C36.24,86.0899 34.59,87.5399 32.39,87.5399 M38.3101,71.63 C38.3101,73.2699 37.7301,74.3399 36.1801,75.53 C34.74,74.78 34.35,74.56 33.9801,74.3399 L33.8801,74.28 C32.3301,73.3399 31.85,72.66 31.85,71.4 C31.85,69.6 33.2301,68.3399 35.19,68.3399 C37.17,68.35 38.3101,69.55 38.3101,71.63 M33.15,-83.8101 C34.9301,-89.55 37.67,-92.8 39.6601,-94.5301 C41.4101,-96.05 43.0601,-96.7601 43.9801,-96.7601 C44.12,-96.7601 44.24,-96.74 44.34,-96.7101 C44.8,-96.57 45.3301,-96 45.8,-95.1301 C48.1101,-90.84 47.37,-84.1301 46.0301,-79.69 C44.4,-74.29 41.4801,-68.6801 32.69,-59.0601 C32.52,-60.17 32.3601,-61.22 32.2101,-62.2 C30.95,-70.49 31.27,-77.7601 33.15,-83.8101 M29.15,20.31 C24.5101,19.0899 20.0801,16.5899 16.32,13.0899 C15.0101,11.86 13.14,9.68994 11.67,6.3 C10.3101,3.13994 9.65,-0.290039 9.7,-3.88008 C9.77002,-8.57002 11.0801,-13.39 13.59,-18.1801 C16.5101,-23.7601 21.07,-29.29 27.1301,-34.62 C28.5801,-35.9 29.95,-37.1801 31.24,-38.4601 C32,-34.2 32.8301,-29.5101 33.7101,-24.6301 C29.8601,-23.3601 25.1101,-20.2101 22,-14.5601 C18.47,-7.99004 18.6101,-2.47002 19.34,1.00996 C20.2801,5.46992 22.8101,9.22998 26.27,11.3199 C27.2,11.88 31.3301,14.01 33.17,13.43 C33.54,13.31 33.8101,13.0899 33.95,12.76 C34.4601,11.5899 33.44,10.95 31.8801,9.98994 C31.2801,9.61992 30.6101,9.2 29.8801,8.66992 C26.5601,6.17998 25.1101,1.72998 26.1801,-2.65 C26.7601,-5.05 28.04,-7.21006 29.8801,-8.91006 C31.55,-10.4601 33.59,-11.5601 35.97,-12.2 C38.0101,-0.960059 40.07,10.1899 41.7101,18.55 C41.84,19.2399 41.9801,19.91 42.1101,20.58 C37.7101,21.51 33.37,21.4199 29.15,20.31 M54.9,10.1 C53.7301,13.28 51.27,17.35 46.14,19.41 C46.07,18.9899 45.99,18.56 45.9101,18.13 C44.3601,9.36992 42.4301,-1.61006 40.47,-12.87 C50.82,-13.35 55.09,-5.91006 55.9801,-1.08008 C56.45,1.45 56.45,5.88994 54.9,10.1"/>
<path class="FiguredBass" d="M610.449,2475.9 C610.635,2475.9 611.037,2475.5 611.655,2474.69 C614.315,2470.92 618.026,2469.04 622.788,2469.04 C626.623,2469.04 630.241,2470.46 633.643,2473.3 C637.044,2476.15 639.858,2477.57 642.085,2477.57 C644.497,2477.57 646.786,2476.86 648.95,2475.44 C651.115,2474.01 652.831,2472.59 654.099,2471.17 C655.367,2469.75 656.187,2469.04 656.558,2469.04 C657.176,2469.04 657.733,2469.24 658.228,2469.64 C658.722,2470.04 658.97,2470.55 658.97,2471.17 C658.97,2471.6 657.702,2473.74 655.166,2477.57 C652.63,2481.4 649.816,2485.84 646.724,2490.88 C643.631,2495.92 640.817,2502.22 638.281,2509.76 C635.746,2517.31 634.478,2524.51 634.478,2531.38 C634.478,2534.04 634.756,2537.1 635.313,2540.56 C635.746,2543.22 635.746,2544.74 635.313,2545.11 C635.003,2545.42 634.478,2545.57 633.735,2545.57 C633.426,2545.57 631.988,2545.17 629.421,2544.37 C626.855,2543.56 624.396,2543.16 622.046,2543.16 C619.943,2543.16 617.516,2543.56 614.763,2544.37 C612.011,2545.17 610.48,2545.57 610.171,2545.57 C609.491,2545.57 608.934,2545.29 608.501,2544.74 C608.068,2544.18 608.006,2543.59 608.316,2542.98 C611.965,2534.25 616.402,2525.77 621.628,2517.51 C626.855,2509.25 633.395,2499.74 641.25,2488.98 C638.281,2490.59 635.282,2491.39 632.251,2491.39 C629.035,2491.39 625.788,2489.96 622.51,2487.08 C619.232,2484.2 616.541,2482.77 614.439,2482.77 C612.892,2482.77 611.547,2483.65 610.403,2485.41 C609.259,2487.17 608.687,2489.82 608.687,2493.34 L608.687,2504.75 C608.687,2506.3 607.975,2507.07 606.553,2507.07 C605.007,2507.07 604.233,2506.3 604.233,2504.75 L604.233,2471.35 C604.233,2469.81 605.007,2469.04 606.553,2469.04 C607.975,2469.04 608.687,2469.81 608.687,2471.35 L608.687,2473.49 C608.687,2473.98 608.81,2474.42 609.058,2474.79 C609.8,2475.53 610.264,2475.9 610.449,2475.9"/>
<path class="FiguredBass" d="M633.462,2632.58 C632.782,2633.33 631.885,2633.7 630.772,2633.7 C629.658,2633.7 628.746,2633.31 628.035,2632.54 C627.323,2631.76 626.968,2630.88 626.968,2629.89 L626.968,2616.63 L613.701,2616.63 C612.588,2616.63 611.676,2616.24 610.964,2615.47 C610.253,2614.69 609.898,2613.81 609.898,2612.82 C609.898,2611.83 610.253,2610.95 610.964,2610.18 C611.676,2609.41 612.588,2609.02 613.701,2609.02 L626.968,2609.02 L626.968,2595.75 C626.968,2594.76 627.323,2593.88 628.035,2593.11 C628.746,2592.33 629.658,2591.95 630.772,2591.95 C631.885,2591.95 632.797,2592.33 633.508,2593.11 C634.22,2593.88 634.575,2594.76 634.575,2595.75 L634.575,2609.02 L647.842,2609.02 C648.955,2609.02 649.867,2609.41 650.579,2610.18 C651.29,2610.95 651.646,2611.83 651.646,2612.82 C651.646,2613.81 651.29,2614.69 650.579,2615.47 C649.867,2616.24 648.955,2616.63 647.842,2616.63 L634.575,2616.63 L634.575,2629.89 C634.575,2630.88 634.204,2631.78 633.462,2632.58"/>
<path class="FiguredBass" d="M1548.56,2472.56 C1543.98,2472.56 1540.93,2474.4 1539.42,2478.08 C1537.9,2481.76 1537.14,2486.97 1537.14,2493.71 L1537.14,2504.66 C1540.36,2503.36 1543.14,2502.68 1545.49,2502.62 C1553.53,2502.62 1559.86,2504.4 1564.47,2507.95 C1569.07,2511.51 1571.38,2516.8 1571.38,2523.82 C1571.38,2530.84 1569.04,2536.14 1564.37,2539.73 C1559.7,2543.32 1553.41,2545.11 1545.49,2545.11 C1537.39,2545.11 1531.05,2541.35 1526.48,2533.84 C1521.9,2526.32 1519.61,2517.4 1519.61,2507.07 C1519.61,2496.81 1522.27,2487.9 1527.59,2480.35 C1532.91,2472.81 1539.9,2469.04 1548.56,2469.04 C1554.25,2469.04 1559.16,2470.47 1563.31,2473.35 C1567.45,2476.23 1569.52,2480.01 1569.52,2484.71 C1569.52,2487.44 1568.53,2489.79 1566.55,2491.76 C1564.57,2493.74 1562.21,2494.73 1559.46,2494.73 C1556.7,2494.73 1554.34,2493.74 1552.36,2491.76 C1550.38,2489.79 1549.39,2487.44 1549.39,2484.71 C1549.39,2482.05 1550.38,2479.7 1552.36,2477.66 C1553.04,2476.86 1554,2476.18 1555.24,2475.62 C1554.93,2474.82 1554.31,2474.2 1553.38,2473.77 C1552.02,2472.96 1550.41,2472.56 1548.56,2472.56 M1553.1,2510.5 C1551.99,2507.6 1549.55,2506.14 1545.77,2506.14 C1542,2506.14 1539.66,2507.6 1538.77,2510.5 C1537.87,2513.41 1537.42,2517.83 1537.42,2523.77 C1537.42,2530.76 1537.87,2535.46 1538.77,2537.87 C1539.66,2540.29 1542,2541.49 1545.77,2541.49 C1549.55,2541.49 1551.99,2540.04 1553.1,2537.13 C1554.21,2534.22 1554.77,2529.79 1554.77,2523.82 C1554.77,2517.85 1554.21,2513.41 1553.1,2510.5"/>
<path class="FiguredBass" d="M1525.92,2574.79 L1530.37,2575.43 C1531.55,2575.62 1533,2575.81 1534.73,2575.99 C1539,2576.49 1543.11,2576.73 1547.07,2576.73 C1551.03,2576.73 1555.2,2576.49 1559.6,2575.99 C1561.33,2575.81 1562.84,2575.62 1564.14,2575.43 L1568.69,2574.79 C1569.62,2574.79 1570.33,2575.09 1570.82,2575.71 C1571.19,2576.21 1571.13,2576.7 1570.64,2577.2 C1560.99,2586.66 1547.66,2591.39 1530.65,2591.39 C1529.97,2591.39 1529.37,2591.64 1528.84,2592.13 C1528.32,2592.63 1528.05,2593.25 1528.05,2593.99 L1528.05,2605.77 C1532.44,2601.44 1537.76,2599.28 1544.01,2599.28 C1552.73,2599.28 1559.53,2601.32 1564.42,2605.4 C1569.74,2601.38 1572.52,2596.25 1572.77,2590 C1572.83,2588.02 1573.48,2586.41 1574.72,2585.18 C1576.08,2583.94 1577.72,2583.32 1579.63,2583.32 C1581.55,2583.32 1583.18,2583.97 1584.51,2585.27 C1585.84,2586.57 1586.5,2588.14 1586.5,2590 C1586.5,2599.59 1580.84,2606.85 1569.52,2611.8 C1571.38,2615.45 1572.31,2619.9 1572.31,2625.16 C1572.31,2632.15 1569.52,2638.18 1563.96,2643.25 C1558.39,2648.32 1551.74,2650.86 1544.01,2650.86 C1537.33,2650.86 1531.53,2649.34 1526.61,2646.31 C1521.7,2643.28 1519.24,2639.08 1519.24,2633.7 C1519.24,2630.97 1520.23,2628.61 1522.21,2626.6 C1524.19,2624.59 1526.55,2623.58 1529.31,2623.58 C1532.06,2623.58 1534.39,2624.57 1536.31,2626.55 C1538.23,2628.53 1539.19,2630.91 1539.19,2633.7 C1539.19,2634.93 1538.17,2636.28 1536.12,2637.73 C1534.08,2639.19 1533.06,2640.53 1533.06,2641.77 C1533.06,2645.48 1536.71,2647.33 1544.01,2647.33 C1551.12,2647.33 1554.68,2639.94 1554.68,2625.16 C1554.68,2621.88 1554.49,2619.01 1554.12,2616.53 C1546.64,2618.08 1537.27,2619.29 1526.01,2620.15 C1524.47,2620.27 1523.69,2619.5 1523.69,2617.83 C1523.69,2616.47 1524.47,2615.73 1526.01,2615.61 C1537.39,2614.68 1546.36,2613.19 1552.92,2611.15 C1551.18,2606.2 1548.22,2603.7 1544.01,2603.64 C1537.64,2603.64 1533.19,2604.94 1530.65,2607.53 C1528.11,2610.13 1526.54,2611.43 1525.92,2611.43 C1524.43,2611.43 1523.69,2610.66 1523.69,2609.11 L1523.69,2577.2 C1523.69,2576.58 1523.91,2576.02 1524.34,2575.53 C1524.84,2575.03 1525.36,2574.79 1525.92,2574.79"/>
<path class="FiguredBass" d="M2398.7,2526.83 C2398.02,2527.58 2397.12,2527.95 2396.01,2527.95 C2394.89,2527.95 2393.98,2527.56 2393.27,2526.79 C2392.56,2526.01 2392.2,2525.13 2392.2,2524.14 L2392.2,2510.88 L2378.94,2510.88 C2377.82,2510.88 2376.91,2510.49 2376.2,2509.72 C2375.49,2508.94 2375.13,2508.06 2375.13,2507.07 C2375.13,2506.08 2375.49,2505.2 2376.2,2504.43 C2376.91,2503.66 2377.82,2503.27 2378.94,2503.27 L2392.2,2503.27 L2392.2,2490 C2392.2,2489.01 2392.56,2488.13 2393.27,2487.36 C2393.98,2486.58 2394.89,2486.2 2396.01,2486.2 C2397.12,2486.2 2398.03,2486.58 2398.74,2487.36 C2399.45,2488.13 2399.81,2489.01 2399.81,2490 L2399.81,2503.27 L2413.08,2503.27 C2414.19,2503.27 2415.1,2503.66 2415.81,2504.43 C2416.53,2505.2 2416.88,2506.08 2416.88,2507.07 C2416.88,2508.06 2416.53,2508.94 2415.81,2509.72 C2415.1,2510.49 2414.19,2510.88 2413.08,2510.88 L2399.81,2510.88 L2399.81,2524.14 C2399.81,2525.13 2399.44,2526.03 2398.7,2526.83 M2452.12,2472.56 C2447.54,2472.56 2444.5,2474.4 2442.98,2478.08 C2441.47,2481.76 2440.71,2486.97 2440.71,2493.71 L2440.71,2504.66 C2443.93,2503.36 2446.71,2502.68 2449.06,2502.62 C2457.1,2502.62 2463.42,2504.4 2468.03,2507.95 C2472.64,2511.51 2474.94,2516.8 2474.94,2523.82 C2474.94,2530.84 2472.61,2536.14 2467.94,2539.73 C2463.27,2543.32 2456.98,2545.11 2449.06,2545.11 C2440.96,2545.11 2434.62,2541.35 2430.04,2533.84 C2425.46,2526.32 2423.18,2517.4 2423.18,2507.07 C2423.18,2496.81 2425.84,2487.9 2431.15,2480.35 C2436.47,2472.81 2443.46,2469.04 2452.12,2469.04 C2457.81,2469.04 2462.73,2470.47 2466.87,2473.35 C2471.02,2476.23 2473.09,2480.01 2473.09,2484.71 C2473.09,2487.44 2472.1,2489.79 2470.12,2491.76 C2468.14,2493.74 2465.77,2494.73 2463.02,2494.73 C2460.27,2494.73 2457.9,2493.74 2455.92,2491.76 C2453.95,2489.79 2452.96,2487.44 2452.96,2484.71 C2452.96,2482.05 2453.95,2479.7 2455.92,2477.66 C2456.61,2476.86 2457.56,2476.18 2458.8,2475.62 C2458.49,2474.82 2457.87,2474.2 2456.95,2473.77 C2455.58,2472.96 2453.98,2472.56 2452.12,2472.56 M2456.67,2510.5 C2455.55,2507.6 2453.11,2506.14 2449.34,2506.14 C2445.57,2506.14 2443.23,2507.6 2442.33,2510.5 C2441.44,2513.41 2440.99,2517.83 2440.99,2523.77 C2440.99,2530.76 2441.44,2535.46 2442.33,2537.87 C2443.23,2540.29 2445.57,2541.49 2449.34,2541.49 C2453.11,2541.49 2455.55,2540.04 2456.67,2537.13 C2457.78,2534.22 2458.34,2529.79 2458.34,2523.82 C2458.34,2517.85 2457.78,2513.41 2456.67,2510.5"/>
<path class="FiguredBass" d="M3302.26,2526.83 C3301.58,2527.58 3300.69,2527.95 3299.57,2527.95 C3298.46,2527.95 3297.55,2527.56 3296.84,2526.79 C3296.12,2526.01 3295.77,2525.13 3295.77,2524.14 L3295.77,2510.88 L3282.5,2510.88 C3281.39,2510.88 3280.48,2510.49 3279.77,2509.72 C3279.05,2508.94 3278.7,2508.06 3278.7,2507.07 C3278.7,2506.08 3279.05,2505.2 3279.77,2504.43 C3280.48,2503.66 3281.39,2503.27 3282.5,2503.27 L3295.77,2503.27 L3295.77,2490 C3295.77,2489.01 3296.12,2488.13 3296.84,2487.36 C3297.55,2486.58 3298.46,2486.2 3299.57,2486.2 C3300.69,2486.2 3301.6,2486.58 3302.31,2487.36 C3303.02,2488.13 3303.38,2489.01 3303.38,2490 L3303.38,2503.27 L3316.64,2503.27 C3317.76,2503.27 3318.67,2503.66 3319.38,2504.43 C3320.09,2505.2 3320.45,2506.08 3320.45,2507.07 C3320.45,2508.06 3320.09,2508.94 3319.38,2509.72 C3318.67,2510.49 3317.76,2510.88 3316.64,2510.88 L3303.38,2510.88 L3303.38,2524.14 C3303.38,2525.13 3303,2526.03 3302.26,2526.83 M3355.04,2470.98 C3357.39,2470.98 3359.86,2470.64 3362.46,2469.96 L3366.63,2468.85 C3367.44,2468.85 3368.07,2469.16 3368.54,2469.78 C3369,2470.4 3368.95,2470.95 3368.4,2471.45 L3325.26,2521.64 L3350.58,2521.64 L3350.58,2501.78 C3350.58,2500.36 3350.97,2499.26 3351.74,2498.49 C3352.52,2497.72 3353.51,2497.1 3354.71,2496.64 C3355.92,2496.17 3357.5,2494.8 3359.44,2492.51 C3361.39,2490.22 3363.26,2487.13 3365.06,2483.23 C3365.37,2482.61 3365.83,2482.3 3366.45,2482.3 C3367.75,2482.3 3368.4,2483.01 3368.4,2484.44 L3368.4,2521.64 L3379.34,2521.64 C3380.89,2521.64 3381.66,2522.35 3381.66,2523.77 C3381.66,2525.32 3380.89,2526.09 3379.34,2526.09 L3368.4,2526.09 L3368.4,2527.3 C3368.4,2531.13 3369.42,2534.47 3371.46,2537.32 C3373.5,2540.16 3376.13,2541.58 3379.34,2541.58 C3380.58,2541.58 3381.2,2542.14 3381.2,2543.25 C3381.2,2544.49 3380.58,2545.11 3379.34,2545.11 C3377.12,2545.11 3373.81,2544.78 3369.42,2544.14 C3365.03,2543.49 3361.7,2543.16 3359.44,2543.16 C3357.19,2543.16 3353.86,2543.49 3349.47,2544.14 C3345.08,2544.78 3341.77,2545.11 3339.54,2545.11 C3338.31,2545.11 3337.69,2544.49 3337.69,2543.25 C3337.69,2542.14 3338.31,2541.58 3339.54,2541.58 C3342.76,2541.58 3345.4,2540.16 3347.48,2537.32 C3349.55,2534.47 3350.58,2531.13 3350.58,2527.3 L3350.58,2526.09 L3325.26,2526.09 C3323.65,2526.09 3322.46,2525.7 3321.69,2524.93 C3320.91,2524.16 3320.53,2523.37 3320.53,2522.57 C3320.53,2522.26 3321.25,2521.19 3322.71,2519.36 C3324.16,2517.54 3325.94,2515.11 3328.04,2512.08 C3330.14,2509.05 3332.23,2505.6 3334.3,2501.74 C3336.37,2497.87 3338.14,2493.23 3339.59,2487.82 C3341.04,2482.41 3341.77,2476.95 3341.77,2471.45 C3341.77,2469.84 3342.45,2469.04 3343.81,2469.04 C3344,2469.04 3344.65,2469.19 3345.76,2469.5 C3346.87,2469.81 3348.3,2470.13 3350.03,2470.47 C3351.76,2470.81 3353.43,2470.98 3355.04,2470.98"/>
<path class="FiguredBass" d="M610.449,1768.45 C610.635,1768.45 611.037,1768.05 611.655,1767.24 C614.315,1763.47 618.026,1761.58 622.788,1761.58 C626.623,1761.58 630.241,1763 633.643,1765.85 C637.044,1768.69 639.858,1770.12 642.085,1770.12 C644.497,1770.12 646.786,1769.41 648.95,1767.98 C651.115,1766.56 652.831,1765.14 654.099,1763.72 C655.367,1762.29 656.187,1761.58 656.558,1761.58 C657.176,1761.58 657.733,1761.78 658.228,1762.18 C658.722,1762.59 658.97,1763.1 658.97,1763.72 C658.97,1764.15 657.702,1766.28 655.166,1770.12 C652.63,1773.95 649.816,1778.39 646.724,1783.43 C643.631,1788.47 640.817,1794.76 638.281,1802.31 C635.746,1809.86 634.478,1817.06 634.478,1823.93 C634.478,1826.59 634.756,1829.65 635.313,1833.11 C635.746,1835.77 635.746,1837.29 635.313,1837.66 C635.003,1837.97 634.478,1838.12 633.735,1838.12 C633.426,1838.12 631.988,1837.72 629.421,1836.91 C626.855,1836.11 624.396,1835.71 622.046,1835.71 C619.943,1835.71 617.516,1836.11 614.763,1836.91 C612.011,1837.72 610.48,1838.12 610.171,1838.12 C609.491,1838.12 608.934,1837.84 608.501,1837.29 C608.068,1836.73 608.006,1836.14 608.316,1835.52 C611.965,1826.8 616.402,1818.31 621.628,1810.06 C626.855,1801.8 633.395,1792.29 641.25,1781.53 C638.281,1783.14 635.282,1783.94 632.251,1783.94 C629.035,1783.94 625.788,1782.5 622.51,1779.63 C619.232,1776.75 616.541,1775.31 614.439,1775.31 C612.892,1775.31 611.547,1776.19 610.403,1777.96 C609.259,1779.72 608.687,1782.36 608.687,1785.89 L608.687,1797.3 C608.687,1798.85 607.975,1799.62 606.553,1799.62 C605.007,1799.62 604.233,1798.85 604.233,1797.3 L604.233,1763.9 C604.233,1762.36 605.007,1761.58 606.553,1761.58 C607.975,1761.58 608.687,1762.36 608.687,1763.9 L608.687,1766.04 C608.687,1766.53 608.81,1766.96 609.058,1767.33 C609.8,1768.08 610.264,1768.45 610.449,1768.45"/>
<path class="FiguredBass" d="M610.913,1867.33 C610.913,1867.33 612.398,1867.55 615.366,1867.98 C616.665,1868.17 618.119,1868.35 619.727,1868.54 C623.994,1869.03 628.107,1869.28 632.066,1869.28 C636.024,1869.28 640.199,1869.03 644.59,1868.54 C646.322,1868.35 647.837,1868.17 649.136,1867.98 L653.682,1867.33 C654.609,1867.33 655.305,1867.64 655.769,1868.26 C656.233,1868.88 656.187,1869.37 655.63,1869.74 C646.167,1879.21 632.839,1883.94 615.645,1883.94 C614.964,1883.94 614.361,1884.19 613.836,1884.68 C613.31,1885.18 613.047,1885.79 613.047,1886.54 L613.047,1901.1 C617.438,1896.77 622.757,1894.61 629.004,1894.61 C638.034,1894.61 645.007,1896.63 649.924,1900.68 C654.841,1904.74 657.3,1910.87 657.3,1919.1 C657.3,1926.09 654.517,1931.89 648.95,1936.49 C643.384,1941.1 636.735,1943.41 629.004,1943.41 C622.324,1943.41 616.526,1941.89 611.609,1938.86 C606.692,1935.83 604.233,1931.62 604.233,1926.24 C604.233,1923.52 605.223,1921.16 607.202,1919.15 C609.181,1917.14 611.547,1916.13 614.299,1916.13 C617.052,1916.13 619.386,1917.12 621.304,1919.1 C623.221,1921.08 624.18,1923.46 624.18,1926.24 C624.18,1927.48 623.159,1928.83 621.118,1930.28 C619.077,1931.73 618.057,1933.08 618.057,1934.31 C618.057,1938.03 621.706,1939.88 629.004,1939.88 C636.117,1939.88 639.673,1932.95 639.673,1919.1 C639.673,1905.74 636.117,1899.03 629.004,1898.97 C622.634,1898.97 618.18,1900.27 615.645,1902.86 C613.109,1905.46 611.532,1906.76 610.913,1906.76 C609.367,1906.76 608.625,1905.99 608.687,1904.44 L608.687,1869.74 C608.687,1869.06 608.903,1868.49 609.336,1868.03 C609.769,1867.56 610.295,1867.33 610.913,1867.33"/>
<path class="FiguredBass" d="M633.462,2030.88 C632.782,2031.62 631.885,2031.99 630.772,2031.99 C629.658,2031.99 628.746,2031.61 628.035,2030.83 C627.323,2030.06 626.968,2029.18 626.968,2028.19 L626.968,2014.92 L613.701,2014.92 C612.588,2014.92 611.676,2014.54 610.964,2013.76 C610.253,2012.99 609.898,2012.11 609.898,2011.12 C609.898,2010.13 610.253,2009.25 610.964,2008.47 C611.676,2007.7 612.588,2007.32 613.701,2007.32 L626.968,2007.32 L626.968,1994.05 C626.968,1993.06 627.323,1992.18 628.035,1991.4 C628.746,1990.63 629.658,1990.25 630.772,1990.25 C631.885,1990.25 632.797,1990.63 633.508,1991.4 C634.22,1992.18 634.575,1993.06 634.575,1994.05 L634.575,2007.32 L647.842,2007.32 C648.955,2007.32 649.867,2007.7 650.579,2008.47 C651.29,2009.25 651.646,2010.13 651.646,2011.12 C651.646,2012.11 651.29,2012.99 650.579,2013.76 C649.867,2014.54 648.955,2014.92 647.842,2014.92 L634.575,2014.92 L634.575,2028.19 C634.575,2029.18 634.204,2030.08 633.462,2030.88"/>
<path class="FiguredBass" d="M1525.92,1761.58 L1530.37,1762.23 C1531.55,1762.42 1533,1762.6 1534.73,1762.79 C1539,1763.28 1543.11,1763.53 1547.07,1763.53 C1551.03,1763.53 1555.2,1763.28 1559.6,1762.79 C1561.33,1762.6 1562.84,1762.42 1564.14,1762.23 L1568.69,1761.58 C1569.62,1761.58 1570.33,1761.89 1570.82,1762.51 C1571.19,1763 1571.13,1763.5 1570.64,1763.99 C1560.99,1773.46 1547.66,1778.19 1530.65,1778.19 C1529.97,1778.19 1529.37,1778.44 1528.84,1778.93 C1528.32,1779.43 1528.05,1780.04 1528.05,1780.79 L1528.05,1792.57 C1532.44,1788.24 1537.76,1786.07 1544.01,1786.07 C1552.73,1786.07 1559.53,1788.12 1564.42,1792.2 C1569.74,1788.18 1572.52,1783.04 1572.77,1776.8 C1572.83,1774.82 1573.48,1773.21 1574.72,1771.97 C1576.08,1770.74 1577.72,1770.12 1579.63,1770.12 C1581.55,1770.12 1583.18,1770.77 1584.51,1772.07 C1585.84,1773.36 1586.5,1774.94 1586.5,1776.8 C1586.5,1786.38 1580.84,1793.65 1569.52,1798.6 C1571.38,1802.25 1572.31,1806.7 1572.31,1811.96 C1572.31,1818.95 1569.52,1824.98 1563.96,1830.05 C1558.39,1835.12 1551.74,1837.66 1544.01,1837.66 C1537.33,1837.66 1531.53,1836.14 1526.61,1833.11 C1521.7,1830.08 1519.24,1825.87 1519.24,1820.49 C1519.24,1817.77 1520.23,1815.41 1522.21,1813.4 C1524.19,1811.39 1526.55,1810.38 1529.31,1810.38 C1532.06,1810.38 1534.39,1811.37 1536.31,1813.35 C1538.23,1815.33 1539.19,1817.71 1539.19,1820.49 C1539.19,1821.73 1538.17,1823.08 1536.12,1824.53 C1534.08,1825.98 1533.06,1827.33 1533.06,1828.56 C1533.06,1832.28 1536.71,1834.13 1544.01,1834.13 C1551.12,1834.13 1554.68,1826.74 1554.68,1811.96 C1554.68,1808.68 1554.49,1805.8 1554.12,1803.33 C1546.64,1804.88 1537.27,1806.08 1526.01,1806.95 C1524.47,1807.07 1523.69,1806.3 1523.69,1804.63 C1523.69,1803.27 1524.47,1802.53 1526.01,1802.4 C1537.39,1801.47 1546.36,1799.99 1552.92,1797.95 C1551.18,1793 1548.22,1790.5 1544.01,1790.43 C1537.64,1790.43 1533.19,1791.73 1530.65,1794.33 C1528.11,1796.93 1526.54,1798.23 1525.92,1798.23 C1524.43,1798.23 1523.69,1797.45 1523.69,1795.91 L1523.69,1763.99 C1523.69,1763.38 1523.91,1762.82 1524.34,1762.32 C1524.84,1761.83 1525.36,1761.58 1525.92,1761.58"/>
<path class="FiguredBass" d="M1560.43,1903.05 C1560.43,1904.04 1560.99,1905 1562.1,1905.93 C1563.21,1906.85 1564.44,1907.73 1565.77,1908.57 C1567.09,1909.4 1568.32,1910.98 1569.43,1913.3 C1570.54,1915.62 1571.1,1918.54 1571.1,1922.07 C1571.1,1928.87 1568.53,1934.13 1563.4,1937.84 C1558.27,1941.55 1551.77,1943.41 1543.92,1943.41 C1537.61,1943.41 1532.12,1941.83 1527.45,1938.67 C1522.78,1935.52 1520.45,1931.38 1520.45,1926.24 C1520.45,1923.52 1521.43,1921.16 1523.41,1919.15 C1525.39,1917.14 1527.76,1916.13 1530.51,1916.13 C1533.26,1916.13 1535.6,1917.12 1537.52,1919.1 C1539.43,1921.08 1540.39,1923.46 1540.39,1926.24 C1540.39,1927.48 1539.37,1928.83 1537.33,1930.28 C1535.29,1931.73 1534.27,1933.08 1534.27,1934.31 C1534.27,1936.23 1535.21,1937.64 1537.1,1938.54 C1538.98,1939.43 1541.26,1939.88 1543.92,1939.88 C1547.38,1939.88 1549.84,1938.16 1551.29,1934.73 C1552.75,1931.3 1553.47,1927.08 1553.47,1922.07 L1553.47,1919.66 C1553.47,1916.32 1553.36,1913.78 1553.15,1912.05 C1552.93,1910.32 1552.25,1908.77 1551.11,1907.41 C1549.96,1906.05 1548.22,1905.37 1545.87,1905.37 L1533.71,1905.37 C1532.29,1905.37 1531.58,1904.6 1531.58,1903.05 C1531.58,1901.63 1532.29,1900.92 1533.71,1900.92 L1545.87,1900.92 C1548.4,1900.92 1550.38,1899.96 1551.8,1898.04 C1552.3,1897.36 1552.7,1896.25 1553.01,1894.7 C1553.32,1892.66 1553.47,1889.72 1553.47,1885.89 L1553.47,1884.68 C1553.47,1875.47 1550.07,1870.86 1543.27,1870.86 C1537.27,1870.86 1534.27,1872.53 1534.27,1875.87 C1534.27,1876.98 1535.18,1878.17 1537.01,1879.44 C1538.83,1880.71 1539.74,1881.9 1539.74,1883.01 C1539.74,1885.42 1538.89,1887.49 1537.19,1889.23 C1535.49,1890.96 1533.42,1891.82 1530.98,1891.82 C1528.53,1891.82 1526.48,1890.96 1524.81,1889.23 C1523.14,1887.49 1522.3,1885.42 1522.3,1883.01 C1522.3,1878.25 1524.37,1874.44 1528.52,1871.6 C1532.66,1868.75 1537.58,1867.33 1543.27,1867.33 C1550.75,1867.33 1556.91,1868.77 1561.73,1871.65 C1566.55,1874.52 1568.97,1878.87 1568.97,1884.68 C1568.97,1888.82 1568.53,1892.04 1567.67,1894.33 C1566.8,1896.62 1565.81,1898.01 1564.7,1898.5 C1563.59,1899 1562.6,1899.57 1561.73,1900.22 C1560.86,1900.87 1560.43,1901.81 1560.43,1903.05"/>
<path class="FiguredBass" d="M1548.56,1976.61 C1543.98,1976.61 1540.93,1978.45 1539.42,1982.13 C1537.9,1985.81 1537.14,1991.02 1537.14,1997.76 L1537.14,2008.71 C1540.36,2007.41 1543.14,2006.73 1545.49,2006.67 C1553.53,2006.67 1559.86,2008.44 1564.47,2012 C1569.07,2015.56 1571.38,2020.84 1571.38,2027.86 C1571.38,2034.88 1569.04,2040.19 1564.37,2043.78 C1559.7,2047.36 1553.41,2049.16 1545.49,2049.16 C1537.39,2049.16 1531.05,2045.4 1526.48,2037.88 C1521.9,2030.37 1519.61,2021.45 1519.61,2011.12 C1519.61,2000.85 1522.27,1991.95 1527.59,1984.4 C1532.91,1976.85 1539.9,1973.08 1548.56,1973.08 C1554.25,1973.08 1559.16,1974.52 1563.31,1977.4 C1567.45,1980.27 1569.52,1984.06 1569.52,1988.76 C1569.52,1991.48 1568.53,1993.83 1566.55,1995.81 C1564.57,1997.79 1562.21,1998.78 1559.46,1998.78 C1556.7,1998.78 1554.34,1997.79 1552.36,1995.81 C1550.38,1993.83 1549.39,1991.48 1549.39,1988.76 C1549.39,1986.1 1550.38,1983.75 1552.36,1981.71 C1553.04,1980.91 1554,1980.23 1555.24,1979.67 C1554.93,1978.86 1554.31,1978.25 1553.38,1977.81 C1552.02,1977.01 1550.41,1976.61 1548.56,1976.61 M1553.1,2014.55 C1551.99,2011.64 1549.55,2010.19 1545.77,2010.19 C1542,2010.19 1539.66,2011.64 1538.77,2014.55 C1537.87,2017.46 1537.42,2021.88 1537.42,2027.82 C1537.42,2034.81 1537.87,2039.51 1538.77,2041.92 C1539.66,2044.33 1542,2045.54 1545.77,2045.54 C1549.55,2045.54 1551.99,2044.08 1553.1,2041.18 C1554.21,2038.27 1554.77,2033.83 1554.77,2027.86 C1554.77,2021.9 1554.21,2017.46 1553.1,2014.55"/>
<path class="FiguredBass" d="M2464,1797.3 C2464,1798.29 2464.55,1799.25 2465.67,1800.18 C2466.78,1801.1 2468,1801.98 2469.33,1802.82 C2470.66,1803.65 2471.88,1805.23 2473,1807.55 C2474.11,1809.87 2474.67,1812.79 2474.67,1816.32 C2474.67,1823.12 2472.1,1828.38 2466.96,1832.09 C2461.83,1835.8 2455.34,1837.66 2447.48,1837.66 C2441.17,1837.66 2435.68,1836.08 2431.02,1832.92 C2426.35,1829.77 2424.01,1825.63 2424.01,1820.49 C2424.01,1817.77 2425,1815.41 2426.98,1813.4 C2428.96,1811.39 2431.32,1810.38 2434.08,1810.38 C2436.83,1810.38 2439.16,1811.37 2441.08,1813.35 C2443,1815.33 2443.96,1817.71 2443.96,1820.49 C2443.96,1821.73 2442.94,1823.08 2440.9,1824.53 C2438.85,1825.98 2437.83,1827.33 2437.83,1828.56 C2437.83,1830.48 2438.78,1831.89 2440.66,1832.79 C2442.55,1833.68 2444.82,1834.13 2447.48,1834.13 C2450.95,1834.13 2453.4,1832.41 2454.86,1828.98 C2456.31,1825.55 2457.04,1821.33 2457.04,1816.32 L2457.04,1813.91 C2457.04,1810.57 2456.93,1808.03 2456.71,1806.3 C2456.5,1804.57 2455.82,1803.02 2454.67,1801.66 C2453.53,1800.3 2451.78,1799.62 2449.43,1799.62 L2437.28,1799.62 C2435.85,1799.62 2435.14,1798.85 2435.14,1797.3 C2435.14,1795.88 2435.85,1795.17 2437.28,1795.17 L2449.43,1795.17 C2451.97,1795.17 2453.95,1794.21 2455.37,1792.29 C2455.86,1791.61 2456.26,1790.5 2456.57,1788.95 C2456.88,1786.91 2457.04,1783.97 2457.04,1780.14 L2457.04,1778.93 C2457.04,1769.72 2453.64,1765.11 2446.83,1765.11 C2440.83,1765.11 2437.83,1766.78 2437.83,1770.12 C2437.83,1771.23 2438.75,1772.42 2440.57,1773.69 C2442.4,1774.96 2443.31,1776.15 2443.31,1777.26 C2443.31,1779.67 2442.46,1781.74 2440.76,1783.48 C2439.06,1785.21 2436.98,1786.07 2434.54,1786.07 C2432.1,1786.07 2430.04,1785.21 2428.37,1783.48 C2426.7,1781.74 2425.87,1779.67 2425.87,1777.26 C2425.87,1772.5 2427.94,1768.69 2432.08,1765.85 C2436.23,1763 2441.14,1761.58 2446.83,1761.58 C2454.32,1761.58 2460.47,1763.02 2465.29,1765.9 C2470.12,1768.77 2472.53,1773.12 2472.53,1778.93 C2472.53,1783.07 2472.1,1786.29 2471.23,1788.58 C2470.37,1790.87 2469.38,1792.26 2468.26,1792.75 C2467.15,1793.25 2466.16,1793.82 2465.29,1794.47 C2464.43,1795.12 2464,1796.06 2464,1797.3"/>
<path class="FiguredBass" d="M2398.7,1925.13 C2398.02,1925.87 2397.12,1926.24 2396.01,1926.24 C2394.89,1926.24 2393.98,1925.86 2393.27,1925.08 C2392.56,1924.31 2392.2,1923.43 2392.2,1922.44 L2392.2,1909.17 L2378.94,1909.17 C2377.82,1909.17 2376.91,1908.79 2376.2,1908.01 C2375.49,1907.24 2375.13,1906.36 2375.13,1905.37 C2375.13,1904.38 2375.49,1903.5 2376.2,1902.72 C2376.91,1901.95 2377.82,1901.57 2378.94,1901.57 L2392.2,1901.57 L2392.2,1888.3 C2392.2,1887.31 2392.56,1886.43 2393.27,1885.65 C2393.98,1884.88 2394.89,1884.5 2396.01,1884.5 C2397.12,1884.5 2398.03,1884.88 2398.74,1885.65 C2399.45,1886.43 2399.81,1887.31 2399.81,1888.3 L2399.81,1901.57 L2413.08,1901.57 C2414.19,1901.57 2415.1,1901.95 2415.81,1902.72 C2416.53,1903.5 2416.88,1904.38 2416.88,1905.37 C2416.88,1906.36 2416.53,1907.24 2415.81,1908.01 C2415.1,1908.79 2414.19,1909.17 2413.08,1909.17 L2399.81,1909.17 L2399.81,1922.44 C2399.81,1923.43 2399.44,1924.33 2398.7,1925.13 M2452.12,1870.86 C2447.54,1870.86 2444.5,1872.7 2442.98,1876.38 C2441.47,1880.06 2440.71,1885.27 2440.71,1892.01 L2440.71,1902.96 C2443.93,1901.66 2446.71,1900.98 2449.06,1900.92 C2457.1,1900.92 2463.42,1902.69 2468.03,1906.25 C2472.64,1909.81 2474.94,1915.09 2474.94,1922.11 C2474.94,1929.13 2472.61,1934.44 2467.94,1938.03 C2463.27,1941.61 2456.98,1943.41 2449.06,1943.41 C2440.96,1943.41 2434.62,1939.65 2430.04,1932.13 C2425.46,1924.62 2423.18,1915.7 2423.18,1905.37 C2423.18,1895.1 2425.84,1886.2 2431.15,1878.65 C2436.47,1871.1 2443.46,1867.33 2452.12,1867.33 C2457.81,1867.33 2462.73,1868.77 2466.87,1871.65 C2471.02,1874.52 2473.09,1878.31 2473.09,1883.01 C2473.09,1885.73 2472.1,1888.08 2470.12,1890.06 C2468.14,1892.04 2465.77,1893.03 2463.02,1893.03 C2460.27,1893.03 2457.9,1892.04 2455.92,1890.06 C2453.95,1888.08 2452.96,1885.73 2452.96,1883.01 C2452.96,1880.35 2453.95,1878 2455.92,1875.96 C2456.61,1875.16 2457.56,1874.48 2458.8,1873.92 C2458.49,1873.11 2457.87,1872.5 2456.95,1872.06 C2455.58,1871.26 2453.98,1870.86 2452.12,1870.86 M2456.67,1908.8 C2455.55,1905.89 2453.11,1904.44 2449.34,1904.44 C2445.57,1904.44 2443.23,1905.89 2442.33,1908.8 C2441.44,1911.71 2440.99,1916.13 2440.99,1922.07 C2440.99,1929.06 2441.44,1933.76 2442.33,1936.17 C2443.23,1938.58 2445.57,1939.79 2449.34,1939.79 C2453.11,1939.79 2455.55,1938.33 2456.67,1935.43 C2457.78,1932.52 2458.34,1928.08 2458.34,1922.11 C2458.34,1916.15 2457.78,1911.71 2456.67,1908.8"/>
<path class="FiguredBass" d="M2451.47,1975.03 C2453.82,1975.03 2456.3,1974.69 2458.89,1974.01 L2463.07,1972.9 C2463.87,1972.9 2464.51,1973.21 2464.97,1973.82 C2465.43,1974.44 2465.39,1975 2464.83,1975.49 L2421.69,2025.68 L2447.02,2025.68 L2447.02,2005.83 C2447.02,2004.41 2447.41,2003.31 2448.18,2002.54 C2448.95,2001.76 2449.94,2001.15 2451.15,2000.68 C2452.35,2000.22 2453.93,1998.84 2455.88,1996.55 C2457.83,1994.27 2459.7,1991.17 2461.49,1987.28 C2461.8,1986.66 2462.26,1986.35 2462.88,1986.35 C2464.18,1986.35 2464.83,1987.06 2464.83,1988.48 L2464.83,2025.68 L2475.78,2025.68 C2477.32,2025.68 2478.1,2026.4 2478.1,2027.82 C2478.1,2029.36 2477.32,2030.14 2475.78,2030.14 L2464.83,2030.14 L2464.83,2031.34 C2464.83,2035.18 2465.85,2038.52 2467.89,2041.36 C2469.93,2044.21 2472.56,2045.63 2475.78,2045.63 C2477.02,2045.63 2477.63,2046.19 2477.63,2047.3 C2477.63,2048.54 2477.02,2049.16 2475.78,2049.16 C2473.55,2049.16 2470.24,2048.83 2465.85,2048.18 C2461.46,2047.53 2458.14,2047.21 2455.88,2047.21 C2453.62,2047.21 2450.3,2047.53 2445.91,2048.18 C2441.51,2048.83 2438.21,2049.16 2435.98,2049.16 C2434.74,2049.16 2434.12,2048.54 2434.12,2047.3 C2434.12,2046.19 2434.74,2045.63 2435.98,2045.63 C2439.19,2045.63 2441.84,2044.21 2443.91,2041.36 C2445.98,2038.52 2447.02,2035.18 2447.02,2031.34 L2447.02,2030.14 L2421.69,2030.14 C2420.08,2030.14 2418.89,2029.75 2418.12,2028.98 C2417.35,2028.2 2416.96,2027.42 2416.96,2026.61 C2416.96,2026.3 2417.69,2025.24 2419.14,2023.41 C2420.59,2021.59 2422.37,2019.16 2424.47,2016.13 C2426.58,2013.1 2428.66,2009.65 2430.74,2005.78 C2432.81,2001.92 2434.57,1997.28 2436.02,1991.87 C2437.48,1986.46 2438.21,1981 2438.21,1975.49 C2438.21,1973.89 2438.89,1973.08 2440.25,1973.08 C2440.43,1973.08 2441.08,1973.24 2442.19,1973.55 C2443.31,1973.86 2444.73,1974.18 2446.46,1974.52 C2448.19,1974.86 2449.86,1975.03 2451.47,1975.03"/>
<path class="FiguredBass" d="M3355.69,1765.11 C3351.11,1765.11 3348.06,1766.95 3346.55,1770.63 C3345.03,1774.31 3344.28,1779.52 3344.28,1786.26 L3344.28,1797.21 C3347.49,1795.91 3350.27,1795.23 3352.62,1795.17 C3360.67,1795.17 3366.99,1796.94 3371.6,1800.5 C3376.2,1804.06 3378.51,1809.34 3378.51,1816.36 C3378.51,1823.38 3376.17,1828.69 3371.5,1832.28 C3366.83,1835.86 3360.54,1837.66 3352.62,1837.66 C3344.52,1837.66 3338.18,1833.9 3333.61,1826.38 C3329.03,1818.87 3326.74,1809.95 3326.74,1799.62 C3326.74,1789.35 3329.4,1780.45 3334.72,1772.9 C3340.04,1765.35 3347.03,1761.58 3355.69,1761.58 C3361.38,1761.58 3366.29,1763.02 3370.44,1765.9 C3374.58,1768.77 3376.65,1772.56 3376.65,1777.26 C3376.65,1779.98 3375.66,1782.33 3373.68,1784.31 C3371.71,1786.29 3369.34,1787.28 3366.59,1787.28 C3363.84,1787.28 3361.47,1786.29 3359.49,1784.31 C3357.51,1782.33 3356.52,1779.98 3356.52,1777.26 C3356.52,1774.6 3357.51,1772.25 3359.49,1770.21 C3360.17,1769.41 3361.13,1768.73 3362.37,1768.17 C3362.06,1767.36 3361.44,1766.75 3360.51,1766.31 C3359.15,1765.51 3357.54,1765.11 3355.69,1765.11 M3360.23,1803.05 C3359.12,1800.14 3356.68,1798.69 3352.9,1798.69 C3349.13,1798.69 3346.8,1800.14 3345.9,1803.05 C3345,1805.96 3344.55,1810.38 3344.55,1816.32 C3344.55,1823.31 3345,1828.01 3345.9,1830.42 C3346.8,1832.83 3349.13,1834.04 3352.9,1834.04 C3356.68,1834.04 3359.12,1832.58 3360.23,1829.68 C3361.35,1826.77 3361.9,1822.33 3361.9,1816.36 C3361.9,1810.4 3361.35,1805.96 3360.23,1803.05"/>
<path class="FiguredBass" d="M3302.26,1925.13 C3301.58,1925.87 3300.69,1926.24 3299.57,1926.24 C3298.46,1926.24 3297.55,1925.86 3296.84,1925.08 C3296.12,1924.31 3295.77,1923.43 3295.77,1922.44 L3295.77,1909.17 L3282.5,1909.17 C3281.39,1909.17 3280.48,1908.79 3279.77,1908.01 C3279.05,1907.24 3278.7,1906.36 3278.7,1905.37 C3278.7,1904.38 3279.05,1903.5 3279.77,1902.72 C3280.48,1901.95 3281.39,1901.57 3282.5,1901.57 L3295.77,1901.57 L3295.77,1888.3 C3295.77,1887.31 3296.12,1886.43 3296.84,1885.65 C3297.55,1884.88 3298.46,1884.5 3299.57,1884.5 C3300.69,1884.5 3301.6,1884.88 3302.31,1885.65 C3303.02,1886.43 3303.38,1887.31 3303.38,1888.3 L3303.38,1901.57 L3316.64,1901.57 C3317.76,1901.57 3318.67,1901.95 3319.38,1902.72 C3320.09,1903.5 3320.45,1904.38 3320.45,1905.37 C3320.45,1906.36 3320.09,1907.24 3319.38,1908.01 C3318.67,1908.79 3317.76,1909.17 3316.64,1909.17 L3303.38,1909.17 L3303.38,1922.44 C3303.38,1923.43 3303,1924.33 3302.26,1925.13 M3355.04,1869.28 C3357.39,1869.28 3359.86,1868.94 3362.46,1868.26 L3366.63,1867.15 C3367.44,1867.15 3368.07,1867.46 3368.54,1868.07 C3369,1868.69 3368.95,1869.25 3368.4,1869.74 L3325.26,1919.93 L3350.58,1919.93 L3350.58,1900.08 C3350.58,1898.66 3350.97,1897.56 3351.74,1896.79 C3352.52,1896.01 3353.51,1895.4 3354.71,1894.93 C3355.92,1894.47 3357.5,1893.09 3359.44,1890.8 C3361.39,1888.52 3363.26,1885.42 3365.06,1881.53 C3365.37,1880.91 3365.83,1880.6 3366.45,1880.6 C3367.75,1880.6 3368.4,1881.31 3368.4,1882.73 L3368.4,1919.93 L3379.34,1919.93 C3380.89,1919.93 3381.66,1920.65 3381.66,1922.07 C3381.66,1923.61 3380.89,1924.39 3379.34,1924.39 L3368.4,1924.39 L3368.4,1925.59 C3368.4,1929.43 3369.42,1932.77 3371.46,1935.61 C3373.5,1938.46 3376.13,1939.88 3379.34,1939.88 C3380.58,1939.88 3381.2,1940.44 3381.2,1941.55 C3381.2,1942.79 3380.58,1943.41 3379.34,1943.41 C3377.12,1943.41 3373.81,1943.08 3369.42,1942.43 C3365.03,1941.78 3361.7,1941.46 3359.44,1941.46 C3357.19,1941.46 3353.86,1941.78 3349.47,1942.43 C3345.08,1943.08 3341.77,1943.41 3339.54,1943.41 C3338.31,1943.41 3337.69,1942.79 3337.69,1941.55 C3337.69,1940.44 3338.31,1939.88 3339.54,1939.88 C3342.76,1939.88 3345.4,1938.46 3347.48,1935.61 C3349.55,1932.77 3350.58,1929.43 3350.58,1925.59 L3350.58,1924.39 L3325.26,1924.39 C3323.65,1924.39 3322.46,1924 3321.69,1923.23 C3320.91,1922.45 3320.53,1921.67 3320.53,1920.86 C3320.53,1920.55 3321.25,1919.49 3322.71,1917.66 C3324.16,1915.84 3325.94,1913.41 3328.04,1910.38 C3330.14,1907.35 3332.23,1903.9 3334.3,1900.03 C3336.37,1896.17 3338.14,1891.53 3339.59,1886.12 C3341.04,1880.71 3341.77,1875.25 3341.77,1869.74 C3341.77,1868.14 3342.45,1867.33 3343.81,1867.33 C3344,1867.33 3344.65,1867.49 3345.76,1867.8 C3346.87,1868.11 3348.3,1868.43 3350.03,1868.77 C3351.76,1869.11 3353.43,1869.28 3355.04,1869.28"/>
<path class="FiguredBass" d="M3359.86,2049.16 C3353.86,2049.16 3349.5,2047.49 3346.78,2044.15 C3345.79,2042.91 3344.52,2041.77 3342.98,2040.71 C3341.43,2039.66 3339.73,2039.14 3337.87,2039.14 C3335.46,2039.14 3333.3,2039.89 3331.38,2041.41 C3329.46,2042.92 3328.5,2044.95 3328.5,2047.49 C3328.5,2048.6 3327.95,2049.16 3326.83,2049.16 C3325.6,2049.16 3324.98,2048.6 3324.98,2047.49 C3324.98,2043.71 3325.86,2040.27 3327.62,2037.14 C3329.39,2034.02 3331.6,2031.39 3334.26,2029.26 C3336.92,2027.12 3339.79,2024.83 3342.88,2022.39 C3345.98,2019.95 3348.84,2017.58 3351.47,2015.29 C3354.09,2013.01 3356.29,2010.11 3358.05,2006.62 C3359.81,2003.13 3360.7,1999.31 3360.7,1995.16 C3360.7,1989.97 3359.85,1985.58 3358.15,1981.99 C3356.44,1978.4 3353.77,1976.61 3350.12,1976.61 C3348.02,1976.61 3346.19,1977.12 3344.65,1978.14 C3343.1,1979.16 3342.33,1980.5 3342.33,1982.17 C3342.33,1983.47 3343.21,1985.17 3344.97,1987.28 C3346.73,1989.38 3347.62,1991.14 3347.62,1992.56 C3347.62,1995.53 3346.61,1998.02 3344.6,2000.03 C3342.59,2002.04 3340.16,2003.05 3337.32,2003.05 C3334.35,2003.05 3331.86,2002.01 3329.85,1999.94 C3327.84,1997.87 3326.83,1995.41 3326.83,1992.56 C3326.83,1986.87 3329.11,1982.2 3333.65,1978.56 C3338.2,1974.91 3343.69,1973.08 3350.12,1973.08 C3357.73,1973.08 3364.36,1975.14 3370.02,1979.25 C3375.68,1983.36 3378.51,1988.67 3378.51,1995.16 C3378.51,1999.55 3377.72,2003.36 3376.14,2006.57 C3374.57,2009.79 3372.31,2012.39 3369.37,2014.37 C3366.43,2016.35 3363.49,2018.03 3360.56,2019.42 C3357.62,2020.81 3354.17,2022.31 3350.21,2023.92 C3346.25,2025.53 3343.07,2027.11 3340.66,2028.65 C3341.96,2028.34 3343.29,2028.19 3344.65,2028.19 C3349.22,2028.19 3353.99,2029.67 3358.93,2032.64 C3363.88,2035.61 3367.78,2037.1 3370.62,2037.1 C3372.23,2037.1 3373.55,2036.8 3374.57,2036.21 C3375.59,2035.63 3376.25,2034.98 3376.56,2034.27 C3376.87,2033.55 3377.23,2032.89 3377.63,2032.27 C3378.03,2031.65 3378.48,2031.34 3378.97,2031.34 C3380.21,2031.34 3380.83,2031.96 3380.83,2033.2 C3380.83,2035.86 3378.91,2039.18 3375.08,2043.17 C3371.24,2047.16 3366.17,2049.16 3359.86,2049.16"/>
<polyline class="FretDiagram" stroke="#fc02ff" stroke-width="4.76" stroke-linejoin="bevel" points="529.931,227.452 743.039,227.452"/>
<polyline class="FretDiagram" stroke="#fc02ff" stroke-width="4.76" stroke-linejoin="bevel" points="532.312,215.547 532.312,441.751"/>
<polyline class="FretDiagram" stroke="#fc02ff" stroke-width="4.76" stroke-linejoin="bevel" points="573.981,215.547 573.981,441.751"/>
<polyline class="FretDiagram" stroke="#fc02ff" stroke-width="4.76" stroke-linejoin="bevel" points="615.65,215.547 615.65,441.751"/>
<polyline class="FretDiagram" stroke="#fc02ff" stroke-width="4.76" stroke-linejoin="bevel" points="657.32,215.547 657.32,441.751"/>
<polyline class="FretDiagram" stroke="#fc02ff" stroke-width="4.76" stroke-linejoin="bevel" points="698.989,215.547 698.989,441.751"/>
<polyline class="FretDiagram" stroke="#fc02ff" stroke-width="4.76" stroke-linejoin="bevel" points="740.658,215.547 740.658,441.751"/>
<polyline class="FretDiagram" stroke="#fc02ff" stroke-width="4.76" stroke-linejoin="bevel" points="532.312,275.074 740.658,275.074"/>
<polyline class="FretDiagram" stroke="#fc02ff" stroke-width="4.76" stroke-linejoin="bevel" points="532.312,322.696 740.658,322.696"/>
<polyline class="FretDiagram" stroke="#fc02ff" stroke-width="4.76" stroke-linejoin="bevel" points="532.312,370.318 740.658,370.318"/>
<polyline class="FretDiagram" stroke="#fc02ff" stroke-width="4.76" stroke-linejoin="bevel" points="532.312,417.94 740.658,417.94"/>
<path class="FretDiagram" fill="#fc02ff" fill-rule="evenodd" d="M630.235,346.507 C630.235,354.562 623.705,361.091 615.65,361.091 C607.596,361.091 601.066,354.562 601.066,346.507 C601.066,338.453 607.596,331.923 615.65,331.923 C623.705,331.923 630.235,338.453 630.235,346.507"/>
<path class="FretDiagram" fill="#fc02ff" fill-rule="evenodd" d="M671.904,298.885 C671.904,306.94 665.374,313.469 657.32,313.469 C649.265,313.469 642.735,306.94 642.735,298.885 C642.735,290.83 649.265,284.301 657.32,284.301 C665.374,284.301 671.904,290.83 671.904,298.885"/>
<path class="FretDiagram" fill="#fc02ff" fill-rule="evenodd" d="M713.573,346.507 C713.573,354.562 707.044,361.091 698.989,361.091 C690.934,361.091 684.405,354.562 684.405,346.507 C684.405,338.453 690.934,331.923 698.989,331.923 C707.044,331.923 713.573,338.453 713.573,346.507"/>
<polyline class="FretDiagram" fill="none" stroke="#fc02ff" stroke-width="6.86" stroke-linecap="round" stroke-linejoin="bevel" points="515.644,163.162 548.979,196.498"/>
<polyline class="FretDiagram" fill="none" stroke="#fc02ff" stroke-width="6.86" stroke-linecap="round" stroke-linejoin="bevel" points="515.644,196.498 548.979,163.162"/>
<path class="FretDiagram" fill="none" stroke="#fc02ff" stroke-width="6.86" stroke-linecap="round" stroke-linejoin="bevel" fill-rule="evenodd" d="M590.649,179.83 C590.649,189.035 583.186,196.498 573.981,196.498 C564.776,196.498 557.313,189.035 557.313,179.83 C557.313,170.625 564.776,163.162 573.981,163.162 C583.186,163.162 590.649,170.625 590.649,179.83"/>
<path class="FretDiagram" fill="none" stroke="#fc02ff" stroke-width="6.86" stroke-linecap="round" stroke-linejoin="bevel" fill-rule="evenodd" d="M757.326,179.83 C757.326,189.035 749.864,196.498 740.658,196.498 C731.453,196.498 723.99,189.035 723.99,179.83 C723.99,170.625 731.453,163.162 740.658,163.162 C749.864,163.162 757.326,170.625 757.326,179.83"/>
<polyline class="FretDiagram" fill="none" stroke="#fc02ff" stroke-width="29.17" stroke-linecap="round" stroke-linejoin="bevel" points="573.981,251.263 740.658,251.263"/>
<path class="FretDiagram" fill="#fc02ff" d="M467.593,240.53 C468.036,224.95 475.446,217.16 489.823,217.16 C496.22,217.16 501.413,218.996 505.403,222.67 C509.393,226.343 511.388,231.093 511.388,236.92 C511.388,245.28 506.638,252.056 497.138,257.25 L487.638,262.38 C483.521,264.596 480.576,266.75 478.803,268.84 C477.03,270.93 475.921,273.4 475.478,276.25 L510.913,276.25 L510.913,284.515 L466.073,284.515 C466.453,277.105 467.941,271.389 470.538,267.367 C473.135,263.345 477.948,259.34 484.978,255.35 L493.718,250.41 C499.798,246.926 502.838,242.493 502.838,237.11 C502.838,233.5 501.571,230.491 499.038,228.085 C496.505,225.678 493.338,224.475 489.538,224.475 C481.115,224.475 476.586,229.826 475.953,240.53 L467.593,240.53 "/>
<polyline class="FretDiagram" fill="#fc02ff" stroke="#fc0107" stroke-width="11.91" stroke-linejoin="bevel" points="1444.94,227.452 1658.05,227.452"/>
<polyline class="FretDiagram" fill="#fc02ff" stroke="#fc0107" stroke-width="4.76" stroke-linejoin="bevel" points="1447.32,227.452 1447.32,441.751"/>
<polyline class="FretDiagram" fill="#fc02ff" stroke="#fc0107" stroke-width="4.76" stroke-linejoin="bevel" points="1488.99,227.452 1488.99,441.751"/>
<polyline class="FretDiagram" fill="#fc02ff" stroke="#fc0107" stroke-width="4.76" stroke-linejoin="bevel" points="1530.66,227.452 1530.66,441.751"/>
<polyline class="FretDiagram" fill="#fc02ff" stroke="#fc0107" stroke-width="4.76" stroke-linejoin="bevel" points="1572.33,227.452 1572.33,441.751"/>
<polyline class="FretDiagram" fill="#fc02ff" stroke="#fc0107" stroke-width="4.76" stroke-linejoin="bevel" points="1613.99,227.452 1613.99,441.751"/>
<polyline class="FretDiagram" fill="#fc02ff" stroke="#fc0107" stroke-width="4.76" stroke-linejoin="bevel" points="1655.66,227.452 1655.66,441.751"/>
<polyline class="FretDiagram" fill="#fc02ff" stroke="#fc0107" stroke-width="4.76" stroke-linejoin="bevel" points="1447.32,275.074 1655.66,275.074"/>
<polyline class="FretDiagram" fill="#fc02ff" stroke="#fc0107" stroke-width="4.76" stroke-linejoin="bevel" points="1447.32,322.696 1655.66,322.696"/>
<polyline class="FretDiagram" fill="#fc02ff" stroke="#fc0107" stroke-width="4.76" stroke-linejoin="bevel" points="1447.32,370.318 1655.66,370.318"/>
<polyline class="FretDiagram" fill="#fc02ff" stroke="#fc0107" stroke-width="4.76" stroke-linejoin="bevel" points="1447.32,417.94 1655.66,417.94"/>
<path class="FretDiagram" fill="#fc0107" fill-rule="evenodd" d="M1545.24,251.263 C1545.24,259.318 1538.71,265.847 1530.66,265.847 C1522.6,265.847 1516.07,259.318 1516.07,251.263 C1516.07,243.208 1522.6,236.679 1530.66,236.679 C1538.71,236.679 1545.24,243.208 1545.24,251.263"/>
<path class="FretDiagram" fill="#fc0107" fill-rule="evenodd" d="M1586.91,346.507 C1586.91,354.562 1580.38,361.091 1572.33,361.091 C1564.27,361.091 1557.74,354.562 1557.74,346.507 C1557.74,338.453 1564.27,331.923 1572.33,331.923 C1580.38,331.923 1586.91,338.453 1586.91,346.507"/>
<path class="FretDiagram" fill="#fc0107" fill-rule="evenodd" d="M1670.25,298.885 C1670.25,306.94 1663.72,313.469 1655.66,313.469 C1647.61,313.469 1641.08,306.94 1641.08,298.885 C1641.08,290.83 1647.61,284.301 1655.66,284.301 C1663.72,284.301 1670.25,290.83 1670.25,298.885"/>
<polyline class="FretDiagram" fill="none" stroke="#fc0107" stroke-width="6.86" stroke-linecap="round" stroke-linejoin="bevel" points="1430.65,163.162 1463.99,196.498"/>
<polyline class="FretDiagram" fill="none" stroke="#fc0107" stroke-width="6.86" stroke-linecap="round" stroke-linejoin="bevel" points="1430.65,196.498 1463.99,163.162"/>
<polyline class="FretDiagram" fill="none" stroke="#fc0107" stroke-width="6.86" stroke-linecap="round" stroke-linejoin="bevel" points="1472.32,163.162 1505.65,196.498"/>
<polyline class="FretDiagram" fill="none" stroke="#fc0107" stroke-width="6.86" stroke-linecap="round" stroke-linejoin="bevel" points="1472.32,196.498 1505.65,163.162"/>
<path class="FretDiagram" fill="none" stroke="#fc0107" stroke-width="6.86" stroke-linecap="round" stroke-linejoin="bevel" fill-rule="evenodd" d="M1630.66,179.83 C1630.66,189.035 1623.2,196.498 1613.99,196.498 C1604.79,196.498 1597.33,189.035 1597.33,179.83 C1597.33,170.625 1604.79,163.162 1613.99,163.162 C1623.2,163.162 1630.66,170.625 1630.66,179.83"/>
<polyline class="FretDiagram" fill="#fc0107" stroke="#0000ff" stroke-width="11.91" stroke-linejoin="bevel" points="2348.5,227.452 2561.61,227.452"/>
<polyline class="FretDiagram" fill="#fc0107" stroke="#0000ff" stroke-width="4.76" stroke-linejoin="bevel" points="2350.88,227.452 2350.88,441.751"/>
<polyline class="FretDiagram" fill="#fc0107" stroke="#0000ff" stroke-width="4.76" stroke-linejoin="bevel" points="2392.55,227.452 2392.55,441.751"/>
<polyline class="FretDiagram" fill="#fc0107" stroke="#0000ff" stroke-width="4.76" stroke-linejoin="bevel" points="2434.22,227.452 2434.22,441.751"/>
<polyline class="FretDiagram" fill="#fc0107" stroke="#0000ff" stroke-width="4.76" stroke-linejoin="bevel" points="2475.89,227.452 2475.89,441.751"/>
<polyline class="FretDiagram" fill="#fc0107" stroke="#0000ff" stroke-width="4.76" stroke-linejoin="bevel" points="2517.56,227.452 2517.56,441.751"/>
<polyline class="FretDiagram" fill="#fc0107" stroke="#0000ff" stroke-width="4.76" stroke-linejoin="bevel" points="2559.23,227.452 2559.23,441.751"/>
<polyline class="FretDiagram" fill="#fc0107" stroke="#0000ff" stroke-width="4.76" stroke-linejoin="bevel" points="2350.88,275.074 2559.23,275.074"/>
<polyline class="FretDiagram" fill="#fc0107" stroke="#0000ff" stroke-width="4.76" stroke-linejoin="bevel" points="2350.88,322.696 2559.23,322.696"/>
<polyline class="FretDiagram" fill="#fc0107" stroke="#0000ff" stroke-width="4.76" stroke-linejoin="bevel" points="2350.88,370.318 2559.23,370.318"/>
<polyline class="FretDiagram" fill="#fc0107" stroke="#0000ff" stroke-width="4.76" stroke-linejoin="bevel" points="2350.88,417.94 2559.23,417.94"/>
<path class="FretDiagram" fill="#0000ff" fill-rule="evenodd" d="M2365.47,298.885 C2365.47,306.94 2358.94,313.469 2350.88,313.469 C2342.83,313.469 2336.3,306.94 2336.3,298.885 C2336.3,290.83 2342.83,284.301 2350.88,284.301 C2358.94,284.301 2365.47,290.83 2365.47,298.885"/>
<path class="FretDiagram" fill="#0000ff" fill-rule="evenodd" d="M2448.81,251.263 C2448.81,259.318 2442.28,265.847 2434.22,265.847 C2426.17,265.847 2419.64,259.318 2419.64,251.263 C2419.64,243.208 2426.17,236.679 2434.22,236.679 C2442.28,236.679 2448.81,243.208 2448.81,251.263"/>
<path class="FretDiagram" fill="#0000ff" fill-rule="evenodd" d="M2490.48,346.507 C2490.48,354.562 2483.95,361.091 2475.89,361.091 C2467.84,361.091 2461.31,354.562 2461.31,346.507 C2461.31,338.453 2467.84,331.923 2475.89,331.923 C2483.95,331.923 2490.48,338.453 2490.48,346.507"/>
<polyline class="FretDiagram" fill="none" stroke="#0000ff" stroke-width="6.86" stroke-linecap="round" stroke-linejoin="bevel" points="2375.88,163.162 2409.22,196.498"/>
<polyline class="FretDiagram" fill="none" stroke="#0000ff" stroke-width="6.86" stroke-linecap="round" stroke-linejoin="bevel" points="2375.88,196.498 2409.22,163.162"/>
<path class="FretDiagram" fill="none" stroke="#0000ff" stroke-width="6.86" stroke-linecap="round" stroke-linejoin="bevel" fill-rule="evenodd" d="M2534.23,179.83 C2534.23,189.035 2526.77,196.498 2517.56,196.498 C2508.35,196.498 2500.89,189.035 2500.89,179.83 C2500.89,170.625 2508.35,163.162 2517.56,163.162 C2526.77,163.162 2534.23,170.625 2534.23,179.83"/>
<polyline class="FretDiagram" fill="none" stroke="#0000ff" stroke-width="6.86" stroke-linecap="round" stroke-linejoin="bevel" points="2542.56,163.162 2575.9,196.498"/>
<polyline class="FretDiagram" fill="none" stroke="#0000ff" stroke-width="6.86" stroke-linecap="round" stroke-linejoin="bevel" points="2542.56,196.498 2575.9,163.162"/>
<polyline class="FretDiagram" fill="#0000ff" stroke="#fc02ff" stroke-width="11.91" stroke-linejoin="bevel" points="3252.07,227.452 3465.18,227.452"/>
<polyline class="FretDiagram" fill="#0000ff" stroke="#fc02ff" stroke-width="4.76" stroke-linejoin="bevel" points="3254.45,227.452 3254.45,441.751"/>
<polyline class="FretDiagram" fill="#0000ff" stroke="#fc02ff" stroke-width="4.76" stroke-linejoin="bevel" points="3296.12,227.452 3296.12,441.751"/>
<polyline class="FretDiagram" fill="#0000ff" stroke="#fc02ff" stroke-width="4.76" stroke-linejoin="bevel" points="3337.79,227.452 3337.79,441.751"/>
<polyline class="FretDiagram" fill="#0000ff" stroke="#fc02ff" stroke-width="4.76" stroke-linejoin="bevel" points="3379.46,227.452 3379.46,441.751"/>
<polyline class="FretDiagram" fill="#0000ff" stroke="#fc02ff" stroke-width="4.76" stroke-linejoin="bevel" points="3421.13,227.452 3421.13,441.751"/>
<polyline class="FretDiagram" fill="#0000ff" stroke="#fc02ff" stroke-width="4.76" stroke-linejoin="bevel" points="3462.79,227.452 3462.79,441.751"/>
<polyline class="FretDiagram" fill="#0000ff" stroke="#fc02ff" stroke-width="4.76" stroke-linejoin="bevel" points="3254.45,275.074 3462.79,275.074"/>
<polyline class="FretDiagram" fill="#0000ff" stroke="#fc02ff" stroke-width="4.76" stroke-linejoin="bevel" points="3254.45,322.696 3462.79,322.696"/>
<polyline class="FretDiagram" fill="#0000ff" stroke="#fc02ff" stroke-width="4.76" stroke-linejoin="bevel" points="3254.45,370.318 3462.79,370.318"/>
<polyline class="FretDiagram" fill="#0000ff" stroke="#fc02ff" stroke-width="4.76" stroke-linejoin="bevel" points="3254.45,417.94 3462.79,417.94"/>
<path class="FretDiagram" fill="#fc02ff" fill-rule="evenodd" d="M3352.37,251.263 C3352.37,259.318 3345.84,265.847 3337.79,265.847 C3329.73,265.847 3323.2,259.318 3323.2,251.263 C3323.2,243.208 3329.73,236.679 3337.79,236.679 C3345.84,236.679 3352.37,243.208 3352.37,251.263"/>
<polyline class="FretDiagram" fill="none" stroke="#fc02ff" stroke-width="6.86" stroke-linecap="round" stroke-linejoin="bevel" points="3237.78,163.162 3271.12,196.498"/>
<polyline class="FretDiagram" fill="none" stroke="#fc02ff" stroke-width="6.86" stroke-linecap="round" stroke-linejoin="bevel" points="3237.78,196.498 3271.12,163.162"/>
<path class="FretDiagram" fill="none" stroke="#fc02ff" stroke-width="6.86" stroke-linecap="round" stroke-linejoin="bevel" fill-rule="evenodd" d="M3312.79,179.83 C3312.79,189.035 3305.32,196.498 3296.12,196.498 C3286.91,196.498 3279.45,189.035 3279.45,179.83 C3279.45,170.625 3286.91,163.162 3296.12,163.162 C3305.32,163.162 3312.79,170.625 3312.79,179.83"/>
<path class="FretDiagram" fill="none" stroke="#fc02ff" stroke-width="6.86" stroke-linecap="round" stroke-linejoin="bevel" fill-rule="evenodd" d="M3396.12,179.83 C3396.12,189.035 3388.66,196.498 3379.46,196.498 C3370.25,196.498 3362.79,189.035 3362.79,179.83 C3362.79,170.625 3370.25,163.162 3379.46,163.162 C3388.66,163.162 3396.12,170.625 3396.12,179.83"/>
<path class="FretDiagram" fill="none" stroke="#fc02ff" stroke-width="6.86" stroke-linecap="round" stroke-linejoin="bevel" fill-rule="evenodd" d="M3437.79,179.83 C3437.79,189.035 3430.33,196.498 3421.13,196.498 C3411.92,196.498 3404.46,189.035 3404.46,179.83 C3404.46,170.625 3411.92,163.162 3421.13,163.162 C3430.33,163.162 3437.79,170.625 3437.79,179.83"/>
<polyline class="FretDiagram" fill="none" stroke="#fc02ff" stroke-width="6.86" stroke-linecap="round" stroke-linejoin="bevel" points="3446.13,163.162 3479.46,196.498"/>
<polyline class="FretDiagram" fill="none" stroke="#fc02ff" stroke-width="6.86" stroke-linecap="round" stroke-linejoin="bevel" points="3446.13,196.498 3479.46,163.162"/>
<path class="Bracket" transform="matrix(8.6315,0,0,9.45563,76.1283,2337.37)" d="M0.92002,-50 C2.69004,-51.88 6.2,-55.8 6.2,-63 C6.2,-72.1 2.25996,-81.32 2.25996,-86.97 C2.25996,-93.06 5.84004,-98.84 5.95,-99 C6.05996,-99.16 6.05,-99.39 5.94004,-99.46 C5.82998,-99.53 5.62002,-99.47 5.49004,-99.32 C5.35996,-99.17 0,-93.75 0,-85.6 C0,-76.75 3.5,-70.58 3.5,-59.07 C3.5,-56.89 2.55996,-53.36 0.1,-50.33 C-0.0799805,-50.17 -0.1,-49.89 0.0599609,-49.7 L0.0700195,-49.69 L0.1,-49.66 C2.55996,-46.63 3.5,-43.1 3.5,-40.92 C3.5,-29.4 0,-23.24 0,-14.39 C0,-6.25 5.35996,-0.8 5.49004,-0.659961 C5.62002,-0.52002 5.8,-0.42998 5.94004,-0.52002 C6.07998,-0.609961 6.07998,-0.77998 5.95,-0.97998 C5.82002,-1.17998 2.25996,-6.92002 2.25996,-13.01 C2.25996,-18.66 6.2,-27.9 6.2,-37 C6.2,-44.3 2.69004,-48.12 0.92002,-50"/>
</svg>
