<?xml version="1.0" encoding="UTF-8" standalone="no"?>
<svg width="850.392px" height="566.928px" viewBox="0 0 850.392 566.928"
 xmlns="http://www.w3.org/2000/svg" xmlns:xlink="http://www.w3.org/1999/xlink" version="1.2" baseProfile="tiny">
<title>La Mineur (31)</title>
<desc>Generated by MuseScore 3.6.2</desc>
<polyline class="StaffLines" fill="none" stroke="#000000" stroke-width="1.25" stroke-linejoin="bevel" points="29.3071,107.717 836.219,107.717"/>
<polyline class="StaffLines" fill="none" stroke="#000000" stroke-width="1.25" stroke-linejoin="bevel" points="29.3071,119.055 836.219,119.055"/>
<polyline class="StaffLines" fill="none" stroke="#000000" stroke-width="1.25" stroke-linejoin="bevel" points="29.3071,130.394 836.219,130.394"/>
<polyline class="StaffLines" fill="none" stroke="#000000" stroke-width="1.25" stroke-linejoin="bevel" points="29.3071,141.732 836.219,141.732"/>
<polyline class="StaffLines" fill="none" stroke="#000000" stroke-width="1.25" stroke-linejoin="bevel" points="29.3071,153.071 836.219,153.071"/>
<polyline class="StaffLines" fill="none" stroke="#000000" stroke-width="1.25" stroke-linejoin="bevel" points="29.3071,260.787 836.219,260.787"/>
<polyline class="StaffLines" fill="none" stroke="#000000" stroke-width="1.25" stroke-linejoin="bevel" points="29.3071,272.125 836.219,272.125"/>
<polyline class="StaffLines" fill="none" stroke="#000000" stroke-width="1.25" stroke-linejoin="bevel" points="29.3071,283.464 836.219,283.464"/>
<polyline class="StaffLines" fill="none" stroke="#000000" stroke-width="1.25" stroke-linejoin="bevel" points="29.3071,294.803 836.219,294.803"/>
<polyline class="StaffLines" fill="none" stroke="#000000" stroke-width="1.25" stroke-linejoin="bevel" points="29.3071,306.141 836.219,306.141"/>
<polyline class="StaffLines" fill="none" stroke="#000000" stroke-width="1.25" stroke-linejoin="bevel" points="29.3071,413.857 836.219,413.857"/>
<polyline class="StaffLines" fill="none" stroke="#000000" stroke-width="1.25" stroke-linejoin="bevel" points="29.3071,425.196 836.219,425.196"/>
<polyline class="StaffLines" fill="none" stroke="#000000" stroke-width="1.25" stroke-linejoin="bevel" points="29.3071,436.534 836.219,436.534"/>
<polyline class="StaffLines" fill="none" stroke="#000000" stroke-width="1.25" stroke-linejoin="bevel" points="29.3071,447.873 836.219,447.873"/>
<polyline class="StaffLines" fill="none" stroke="#000000" stroke-width="1.25" stroke-linejoin="bevel" points="29.3071,459.211 836.219,459.211"/>
<polyline class="BarLine" fill="none" stroke="#000000" stroke-width="2.04" stroke-linejoin="bevel" points="30.3276,260.163 30.3276,306.765"/>
<polyline class="BarLine" fill="none" stroke="#000000" stroke-width="2.04" stroke-linejoin="bevel" points="171.948,260.163 171.948,306.765"/>
<polyline class="BarLine" fill="none" stroke="#000000" stroke-width="2.04" stroke-linejoin="bevel" points="265.674,260.163 265.674,306.765"/>
<polyline class="BarLine" fill="none" stroke="#000000" stroke-width="2.04" stroke-linejoin="bevel" points="359.401,260.163 359.401,306.765"/>
<polyline class="BarLine" fill="none" stroke="#000000" stroke-width="2.04" stroke-linejoin="bevel" points="452.91,260.163 452.91,306.765"/>
<polyline class="BarLine" fill="none" stroke="#000000" stroke-width="2.04" stroke-linejoin="bevel" points="546.419,260.163 546.419,306.765"/>
<polyline class="BarLine" fill="none" stroke="#000000" stroke-width="2.04" stroke-linejoin="bevel" points="644.054,260.163 644.054,306.765"/>
<polyline class="BarLine" fill="none" stroke="#000000" stroke-width="2.04" stroke-linejoin="bevel" points="741.689,260.163 741.689,306.765"/>
<polyline class="BarLine" fill="none" stroke="#000000" stroke-width="2.04" stroke-linejoin="bevel" points="835.198,260.163 835.198,306.765"/>
<polyline class="BarLine" fill="none" stroke="#000000" stroke-width="2.04" stroke-linejoin="bevel" points="30.3276,413.233 30.3276,459.835"/>
<polyline class="BarLine" fill="none" stroke="#000000" stroke-width="2.04" stroke-linejoin="bevel" points="170.962,413.233 170.962,459.835"/>
<polyline class="BarLine" fill="none" stroke="#000000" stroke-width="2.04" stroke-linejoin="bevel" points="265.607,413.233 265.607,459.835"/>
<polyline class="BarLine" fill="none" stroke="#000000" stroke-width="2.04" stroke-linejoin="bevel" points="360.252,413.233 360.252,459.835"/>
<polyline class="BarLine" fill="none" stroke="#000000" stroke-width="2.04" stroke-linejoin="bevel" points="454.083,413.233 454.083,459.835"/>
<polyline class="BarLine" fill="none" stroke="#000000" stroke-width="2.04" stroke-linejoin="bevel" points="547.914,413.233 547.914,459.835"/>
<polyline class="BarLine" fill="none" stroke="#000000" stroke-width="2.04" stroke-linejoin="bevel" points="641.964,413.233 641.964,459.835"/>
<polyline class="BarLine" fill="none" stroke="#000000" stroke-width="2.04" stroke-linejoin="bevel" points="736.013,413.233 736.013,459.835"/>
<polyline class="BarLine" fill="none" stroke="#000000" stroke-width="2.04" stroke-linejoin="bevel" points="825.164,413.233 825.164,459.835"/>
<polyline class="BarLine" fill="none" stroke="#000000" stroke-width="6.24" stroke-linejoin="bevel" points="833.101,413.233 833.101,459.835"/>
<polyline class="BarLine" fill="none" stroke="#000000" stroke-width="2.04" stroke-linejoin="bevel" points="30.3276,107.093 30.3276,153.695"/>
<polyline class="BarLine" fill="none" stroke="#000000" stroke-width="2.04" stroke-linejoin="bevel" points="143.894,107.093 143.894,153.695"/>
<polyline class="BarLine" fill="none" stroke="#000000" stroke-width="2.04" stroke-linejoin="bevel" points="210.656,107.093 210.656,153.695"/>
<polyline class="BarLine" fill="none" stroke="#000000" stroke-width="2.04" stroke-linejoin="bevel" points="277.419,107.093 277.419,153.695"/>
<polyline class="BarLine" fill="none" stroke="#000000" stroke-width="2.04" stroke-linejoin="bevel" points="344.181,107.093 344.181,153.695"/>
<polyline class="BarLine" fill="none" stroke="#000000" stroke-width="2.04" stroke-linejoin="bevel" points="415.07,107.093 415.07,153.695"/>
<polyline class="BarLine" fill="none" stroke="#000000" stroke-width="2.04" stroke-linejoin="bevel" points="481.833,107.093 481.833,153.695"/>
<polyline class="BarLine" fill="none" stroke="#000000" stroke-width="2.04" stroke-linejoin="bevel" points="548.595,107.093 548.595,153.695"/>
<polyline class="BarLine" fill="none" stroke="#000000" stroke-width="2.04" stroke-linejoin="bevel" points="615.358,107.093 615.358,153.695"/>
<polyline class="BarLine" fill="none" stroke="#000000" stroke-width="2.04" stroke-linejoin="bevel" points="682.12,107.093 682.12,153.695"/>
<polyline class="BarLine" fill="none" stroke="#000000" stroke-width="2.04" stroke-linejoin="bevel" points="763.082,107.093 763.082,153.695"/>
<polyline class="BarLine" fill="none" stroke="#000000" stroke-width="2.04" stroke-linejoin="bevel" points="825.164,107.093 825.164,153.695"/>
<polyline class="BarLine" fill="none" stroke="#000000" stroke-width="6.24" stroke-linejoin="bevel" points="833.101,107.093 833.101,153.695"/>
<path class="Accidental" transform="matrix(0.453543,0,0,0.453543,558.394,272.125)" d="M23.3,-10.6 C23.9,-10.7 24.4,-11.4 24.4,-12 L24.4,-17.9 C24.4,-18.7 23.8,-19.3 23,-19.3 L22.8,-19.3 L19.5,-18.6 L19.5,-33.5 L16.7,-33.5 L16.7,-18 L7.8,-16.2 L7.8,-30.3 L5,-30.3 L5,-15.6 L1.1,-14.8 C0.5,-14.7 0,-14 0,-13.4 L0,-13.2 L0,-7.4 L0,-7.6 C0,-6.8 0.6,-6.2 1.4,-6.2 L1.7,-6.2 L5,-6.9 L5,9.6 L1.1,10.4 C0.5,10.5 0,11.2 0,11.8 L0,17.6 C0,18.4 0.6,19 1.4,19 L1.7,19 L5,18.3 L5,33.2 L7.8,33.2 L7.8,17.7 L16.7,15.9 L16.7,30 L19.5,30 L19.5,15.3 L23.3,14.6 C23.9,14.5 24.4,13.8 24.4,13.2 L24.4,7.3 C24.4,6.5 23.8,5.9 23,5.9 L22.8,5.9 L19.5,6.6 L19.5,-9.9 L23.3,-10.6 M7.8,9.1 L7.8,-7.5 L16.7,-9.3 L16.7,7.2 L7.8,9.1 "/>
<path class="Accidental" transform="matrix(0.453543,0,0,0.453543,656.029,266.456)" d="M23.3,-10.6 C23.9,-10.7 24.4,-11.4 24.4,-12 L24.4,-17.9 C24.4,-18.7 23.8,-19.3 23,-19.3 L22.8,-19.3 L19.5,-18.6 L19.5,-33.5 L16.7,-33.5 L16.7,-18 L7.8,-16.2 L7.8,-30.3 L5,-30.3 L5,-15.6 L1.1,-14.8 C0.5,-14.7 0,-14 0,-13.4 L0,-13.2 L0,-7.4 L0,-7.6 C0,-6.8 0.6,-6.2 1.4,-6.2 L1.7,-6.2 L5,-6.9 L5,9.6 L1.1,10.4 C0.5,10.5 0,11.2 0,11.8 L0,17.6 C0,18.4 0.6,19 1.4,19 L1.7,19 L5,18.3 L5,33.2 L7.8,33.2 L7.8,17.7 L16.7,15.9 L16.7,30 L19.5,30 L19.5,15.3 L23.3,14.6 C23.9,14.5 24.4,13.8 24.4,13.2 L24.4,7.3 C24.4,6.5 23.8,5.9 23,5.9 L22.8,5.9 L19.5,6.6 L19.5,-9.9 L23.3,-10.6 M7.8,9.1 L7.8,-7.5 L16.7,-9.3 L16.7,7.2 L7.8,9.1 "/>
<path class="Accidental" transform="matrix(0.453543,0,0,0.453543,182.937,419.526)" d="M16.6,-18.3 C16.4,-18.5 16.1,-18.6 15.8,-18.6 C15.7,-18.6 15.5,-18.5 15.4,-18.5 L2.8,-15 L2.8,-32.5 L0,-32.5 L0,17 C0,17.8 0.6,18.3 1.4,18.3 L1.8,18.3 L14.4,14.8 L14.4,32.3 L17.1,32.3 L17.1,-17.2 C17.1,-17.6 16.9,-18.1 16.6,-18.3 M14.4,6.5 L2.8,9.7 L2.8,-6.7 L14.4,-10 L14.4,6.5 "/>
<path class="Accidental" transform="matrix(0.453543,0,0,0.453543,277.582,425.196)" d="M16.6,-18.3 C16.4,-18.5 16.1,-18.6 15.8,-18.6 C15.7,-18.6 15.5,-18.5 15.4,-18.5 L2.8,-15 L2.8,-32.5 L0,-32.5 L0,17 C0,17.8 0.6,18.3 1.4,18.3 L1.8,18.3 L14.4,14.8 L14.4,32.3 L17.1,32.3 L17.1,-17.2 C17.1,-17.6 16.9,-18.1 16.6,-18.3 M14.4,6.5 L2.8,9.7 L2.8,-6.7 L14.4,-10 L14.4,6.5 "/>
<path class="Accidental" transform="matrix(0.453543,0,0,0.453543,356.156,113.386)" d="M23.3,-10.6 C23.9,-10.7 24.4,-11.4 24.4,-12 L24.4,-17.9 C24.4,-18.7 23.8,-19.3 23,-19.3 L22.8,-19.3 L19.5,-18.6 L19.5,-33.5 L16.7,-33.5 L16.7,-18 L7.8,-16.2 L7.8,-30.3 L5,-30.3 L5,-15.6 L1.1,-14.8 C0.5,-14.7 0,-14 0,-13.4 L0,-13.2 L0,-7.4 L0,-7.6 C0,-6.8 0.6,-6.2 1.4,-6.2 L1.7,-6.2 L5,-6.9 L5,9.6 L1.1,10.4 C0.5,10.5 0,11.2 0,11.8 L0,17.6 C0,18.4 0.6,19 1.4,19 L1.7,19 L5,18.3 L5,33.2 L7.8,33.2 L7.8,17.7 L16.7,15.9 L16.7,30 L19.5,30 L19.5,15.3 L23.3,14.6 C23.9,14.5 24.4,13.8 24.4,13.2 L24.4,7.3 C24.4,6.5 23.8,5.9 23,5.9 L22.8,5.9 L19.5,6.6 L19.5,-9.9 L23.3,-10.6 M7.8,9.1 L7.8,-7.5 L16.7,-9.3 L16.7,7.2 L7.8,9.1 "/>
<path class="Note" transform="matrix(0.453543,0,0,0.453543,98.8799,300.472)" d="M18.7,-13.6 C4.9,-13.6 0,-6.6 0,-0.1 C0,6.4 4.9,13.4 18.7,13.4 C32.5,13.4 37.3,6.4 37.3,-0.1 C37.3,-6.6 32.5,-13.6 18.7,-13.6 M10.4,-4.5 C10.3,-4.9 10.3,-5.3 10.3,-5.7 C10.3,-6.5 10.5,-7.3 10.9,-8 C11.6,-9 12.8,-9.7 14.3,-10 C15.6,-10.3 16.3,-10.5 18.9,-10.5 L19,-10.5 C23,-10.5 24.3,-6.8 25.4,-3 L25.7,-2 C26.5,0.6 26.9,2.8 26.9,4.5 C26.9,5.7 26.7,6.8 26.3,7.6 C25.7,8.7 24.7,9.4 23,9.8 C22.1,10 20.6,10.1 20.6,10.1 C20.1,10.1 19.7,10.2 19.3,10.2 C16.1,10.2 14.1,9 12.7,4.7 C11.5,1 11.3,-0.1 10.4,-4.5"/>
<path class="Note" transform="matrix(0.453543,0,0,0.453543,187.708,294.803)" d="M18.7,-13.6 C4.9,-13.6 0,-6.6 0,-0.1 C0,6.4 4.9,13.4 18.7,13.4 C32.5,13.4 37.3,6.4 37.3,-0.1 C37.3,-6.6 32.5,-13.6 18.7,-13.6 M10.4,-4.5 C10.3,-4.9 10.3,-5.3 10.3,-5.7 C10.3,-6.5 10.5,-7.3 10.9,-8 C11.6,-9 12.8,-9.7 14.3,-10 C15.6,-10.3 16.3,-10.5 18.9,-10.5 L19,-10.5 C23,-10.5 24.3,-6.8 25.4,-3 L25.7,-2 C26.5,0.6 26.9,2.8 26.9,4.5 C26.9,5.7 26.7,6.8 26.3,7.6 C25.7,8.7 24.7,9.4 23,9.8 C22.1,10 20.6,10.1 20.6,10.1 C20.1,10.1 19.7,10.2 19.3,10.2 C16.1,10.2 14.1,9 12.7,4.7 C11.5,1 11.3,-0.1 10.4,-4.5"/>
<path class="Note" transform="matrix(0.453543,0,0,0.453543,281.435,289.133)" d="M18.7,-13.6 C4.9,-13.6 0,-6.6 0,-0.1 C0,6.4 4.9,13.4 18.7,13.4 C32.5,13.4 37.3,6.4 37.3,-0.1 C37.3,-6.6 32.5,-13.6 18.7,-13.6 M10.4,-4.5 C10.3,-4.9 10.3,-5.3 10.3,-5.7 C10.3,-6.5 10.5,-7.3 10.9,-8 C11.6,-9 12.8,-9.7 14.3,-10 C15.6,-10.3 16.3,-10.5 18.9,-10.5 L19,-10.5 C23,-10.5 24.3,-6.8 25.4,-3 L25.7,-2 C26.5,0.6 26.9,2.8 26.9,4.5 C26.9,5.7 26.7,6.8 26.3,7.6 C25.7,8.7 24.7,9.4 23,9.8 C22.1,10 20.6,10.1 20.6,10.1 C20.1,10.1 19.7,10.2 19.3,10.2 C16.1,10.2 14.1,9 12.7,4.7 C11.5,1 11.3,-0.1 10.4,-4.5"/>
<path class="Note" transform="matrix(0.453543,0,0,0.453543,376.251,283.464)" d="M18.7,-13.6 C4.9,-13.6 0,-6.6 0,-0.1 C0,6.4 4.9,13.4 18.7,13.4 C32.5,13.4 37.3,6.4 37.3,-0.1 C37.3,-6.6 32.5,-13.6 18.7,-13.6 M10.4,-4.5 C10.3,-4.9 10.3,-5.3 10.3,-5.7 C10.3,-6.5 10.5,-7.3 10.9,-8 C11.6,-9 12.8,-9.7 14.3,-10 C15.6,-10.3 16.3,-10.5 18.9,-10.5 L19,-10.5 C23,-10.5 24.3,-6.8 25.4,-3 L25.7,-2 C26.5,0.6 26.9,2.8 26.9,4.5 C26.9,5.7 26.7,6.8 26.3,7.6 C25.7,8.7 24.7,9.4 23,9.8 C22.1,10 20.6,10.1 20.6,10.1 C20.1,10.1 19.7,10.2 19.3,10.2 C16.1,10.2 14.1,9 12.7,4.7 C11.5,1 11.3,-0.1 10.4,-4.5"/>
<path class="Note" transform="matrix(0.453543,0,0,0.453543,469.76,277.795)" d="M18.7,-13.6 C4.9,-13.6 0,-6.6 0,-0.1 C0,6.4 4.9,13.4 18.7,13.4 C32.5,13.4 37.3,6.4 37.3,-0.1 C37.3,-6.6 32.5,-13.6 18.7,-13.6 M10.4,-4.5 C10.3,-4.9 10.3,-5.3 10.3,-5.7 C10.3,-6.5 10.5,-7.3 10.9,-8 C11.6,-9 12.8,-9.7 14.3,-10 C15.6,-10.3 16.3,-10.5 18.9,-10.5 L19,-10.5 C23,-10.5 24.3,-6.8 25.4,-3 L25.7,-2 C26.5,0.6 26.9,2.8 26.9,4.5 C26.9,5.7 26.7,6.8 26.3,7.6 C25.7,8.7 24.7,9.4 23,9.8 C22.1,10 20.6,10.1 20.6,10.1 C20.1,10.1 19.7,10.2 19.3,10.2 C16.1,10.2 14.1,9 12.7,4.7 C11.5,1 11.3,-0.1 10.4,-4.5"/>
<path class="Note" transform="matrix(0.453543,0,0,0.453543,572.294,272.125)" d="M18.7,-13.6 C4.9,-13.6 0,-6.6 0,-0.1 C0,6.4 4.9,13.4 18.7,13.4 C32.5,13.4 37.3,6.4 37.3,-0.1 C37.3,-6.6 32.5,-13.6 18.7,-13.6 M10.4,-4.5 C10.3,-4.9 10.3,-5.3 10.3,-5.7 C10.3,-6.5 10.5,-7.3 10.9,-8 C11.6,-9 12.8,-9.7 14.3,-10 C15.6,-10.3 16.3,-10.5 18.9,-10.5 L19,-10.5 C23,-10.5 24.3,-6.8 25.4,-3 L25.7,-2 C26.5,0.6 26.9,2.8 26.9,4.5 C26.9,5.7 26.7,6.8 26.3,7.6 C25.7,8.7 24.7,9.4 23,9.8 C22.1,10 20.6,10.1 20.6,10.1 C20.1,10.1 19.7,10.2 19.3,10.2 C16.1,10.2 14.1,9 12.7,4.7 C11.5,1 11.3,-0.1 10.4,-4.5"/>
<path class="Note" transform="matrix(0.453543,0,0,0.453543,669.929,266.456)" d="M18.7,-13.6 C4.9,-13.6 0,-6.6 0,-0.1 C0,6.4 4.9,13.4 18.7,13.4 C32.5,13.4 37.3,6.4 37.3,-0.1 C37.3,-6.6 32.5,-13.6 18.7,-13.6 M10.4,-4.5 C10.3,-4.9 10.3,-5.3 10.3,-5.7 C10.3,-6.5 10.5,-7.3 10.9,-8 C11.6,-9 12.8,-9.7 14.3,-10 C15.6,-10.3 16.3,-10.5 18.9,-10.5 L19,-10.5 C23,-10.5 24.3,-6.8 25.4,-3 L25.7,-2 C26.5,0.6 26.9,2.8 26.9,4.5 C26.9,5.7 26.7,6.8 26.3,7.6 C25.7,8.7 24.7,9.4 23,9.8 C22.1,10 20.6,10.1 20.6,10.1 C20.1,10.1 19.7,10.2 19.3,10.2 C16.1,10.2 14.1,9 12.7,4.7 C11.5,1 11.3,-0.1 10.4,-4.5"/>
<path class="Note" transform="matrix(0.453543,0,0,0.453543,758.54,260.787)" d="M18.7,-13.6 C4.9,-13.6 0,-6.6 0,-0.1 C0,6.4 4.9,13.4 18.7,13.4 C32.5,13.4 37.3,6.4 37.3,-0.1 C37.3,-6.6 32.5,-13.6 18.7,-13.6 M10.4,-4.5 C10.3,-4.9 10.3,-5.3 10.3,-5.7 C10.3,-6.5 10.5,-7.3 10.9,-8 C11.6,-9 12.8,-9.7 14.3,-10 C15.6,-10.3 16.3,-10.5 18.9,-10.5 L19,-10.5 C23,-10.5 24.3,-6.8 25.4,-3 L25.7,-2 C26.5,0.6 26.9,2.8 26.9,4.5 C26.9,5.7 26.7,6.8 26.3,7.6 C25.7,8.7 24.7,9.4 23,9.8 C22.1,10 20.6,10.1 20.6,10.1 C20.1,10.1 19.7,10.2 19.3,10.2 C16.1,10.2 14.1,9 12.7,4.7 C11.5,1 11.3,-0.1 10.4,-4.5"/>
<path class="Note" transform="matrix(0.453543,0,0,0.453543,98.8799,413.857)" d="M18.7,-13.6 C4.9,-13.6 0,-6.6 0,-0.1 C0,6.4 4.9,13.4 18.7,13.4 C32.5,13.4 37.3,6.4 37.3,-0.1 C37.3,-6.6 32.5,-13.6 18.7,-13.6 M10.4,-4.5 C10.3,-4.9 10.3,-5.3 10.3,-5.7 C10.3,-6.5 10.5,-7.3 10.9,-8 C11.6,-9 12.8,-9.7 14.3,-10 C15.6,-10.3 16.3,-10.5 18.9,-10.5 L19,-10.5 C23,-10.5 24.3,-6.8 25.4,-3 L25.7,-2 C26.5,0.6 26.9,2.8 26.9,4.5 C26.9,5.7 26.7,6.8 26.3,7.6 C25.7,8.7 24.7,9.4 23,9.8 C22.1,10 20.6,10.1 20.6,10.1 C20.1,10.1 19.7,10.2 19.3,10.2 C16.1,10.2 14.1,9 12.7,4.7 C11.5,1 11.3,-0.1 10.4,-4.5"/>
<path class="Note" transform="matrix(0.453543,0,0,0.453543,193.525,419.526)" d="M18.7,-13.6 C4.9,-13.6 0,-6.6 0,-0.1 C0,6.4 4.9,13.4 18.7,13.4 C32.5,13.4 37.3,6.4 37.3,-0.1 C37.3,-6.6 32.5,-13.6 18.7,-13.6 M10.4,-4.5 C10.3,-4.9 10.3,-5.3 10.3,-5.7 C10.3,-6.5 10.5,-7.3 10.9,-8 C11.6,-9 12.8,-9.7 14.3,-10 C15.6,-10.3 16.3,-10.5 18.9,-10.5 L19,-10.5 C23,-10.5 24.3,-6.8 25.4,-3 L25.7,-2 C26.5,0.6 26.9,2.8 26.9,4.5 C26.9,5.7 26.7,6.8 26.3,7.6 C25.7,8.7 24.7,9.4 23,9.8 C22.1,10 20.6,10.1 20.6,10.1 C20.1,10.1 19.7,10.2 19.3,10.2 C16.1,10.2 14.1,9 12.7,4.7 C11.5,1 11.3,-0.1 10.4,-4.5"/>
<path class="Note" transform="matrix(0.453543,0,0,0.453543,288.169,425.196)" d="M18.7,-13.6 C4.9,-13.6 0,-6.6 0,-0.1 C0,6.4 4.9,13.4 18.7,13.4 C32.5,13.4 37.3,6.4 37.3,-0.1 C37.3,-6.6 32.5,-13.6 18.7,-13.6 M10.4,-4.5 C10.3,-4.9 10.3,-5.3 10.3,-5.7 C10.3,-6.5 10.5,-7.3 10.9,-8 C11.6,-9 12.8,-9.7 14.3,-10 C15.6,-10.3 16.3,-10.5 18.9,-10.5 L19,-10.5 C23,-10.5 24.3,-6.8 25.4,-3 L25.7,-2 C26.5,0.6 26.9,2.8 26.9,4.5 C26.9,5.7 26.7,6.8 26.3,7.6 C25.7,8.7 24.7,9.4 23,9.8 C22.1,10 20.6,10.1 20.6,10.1 C20.1,10.1 19.7,10.2 19.3,10.2 C16.1,10.2 14.1,9 12.7,4.7 C11.5,1 11.3,-0.1 10.4,-4.5"/>
<path class="Note" transform="matrix(0.453543,0,0,0.453543,377.102,430.865)" d="M18.7,-13.6 C4.9,-13.6 0,-6.6 0,-0.1 C0,6.4 4.9,13.4 18.7,13.4 C32.5,13.4 37.3,6.4 37.3,-0.1 C37.3,-6.6 32.5,-13.6 18.7,-13.6 M10.4,-4.5 C10.3,-4.9 10.3,-5.3 10.3,-5.7 C10.3,-6.5 10.5,-7.3 10.9,-8 C11.6,-9 12.8,-9.7 14.3,-10 C15.6,-10.3 16.3,-10.5 18.9,-10.5 L19,-10.5 C23,-10.5 24.3,-6.8 25.4,-3 L25.7,-2 C26.5,0.6 26.9,2.8 26.9,4.5 C26.9,5.7 26.7,6.8 26.3,7.6 C25.7,8.7 24.7,9.4 23,9.8 C22.1,10 20.6,10.1 20.6,10.1 C20.1,10.1 19.7,10.2 19.3,10.2 C16.1,10.2 14.1,9 12.7,4.7 C11.5,1 11.3,-0.1 10.4,-4.5"/>
<path class="Note" transform="matrix(0.453543,0,0,0.453543,470.933,436.534)" d="M18.7,-13.6 C4.9,-13.6 0,-6.6 0,-0.1 C0,6.4 4.9,13.4 18.7,13.4 C32.5,13.4 37.3,6.4 37.3,-0.1 C37.3,-6.6 32.5,-13.6 18.7,-13.6 M10.4,-4.5 C10.3,-4.9 10.3,-5.3 10.3,-5.7 C10.3,-6.5 10.5,-7.3 10.9,-8 C11.6,-9 12.8,-9.7 14.3,-10 C15.6,-10.3 16.3,-10.5 18.9,-10.5 L19,-10.5 C23,-10.5 24.3,-6.8 25.4,-3 L25.7,-2 C26.5,0.6 26.9,2.8 26.9,4.5 C26.9,5.7 26.7,6.8 26.3,7.6 C25.7,8.7 24.7,9.4 23,9.8 C22.1,10 20.6,10.1 20.6,10.1 C20.1,10.1 19.7,10.2 19.3,10.2 C16.1,10.2 14.1,9 12.7,4.7 C11.5,1 11.3,-0.1 10.4,-4.5"/>
<path class="Note" transform="matrix(0.453543,0,0,0.453543,563.675,442.204)" d="M18.7,-13.6 C4.9,-13.6 0,-6.6 0,-0.1 C0,6.4 4.9,13.4 18.7,13.4 C32.5,13.4 37.3,6.4 37.3,-0.1 C37.3,-6.6 32.5,-13.6 18.7,-13.6 M10.4,-4.5 C10.3,-4.9 10.3,-5.3 10.3,-5.7 C10.3,-6.5 10.5,-7.3 10.9,-8 C11.6,-9 12.8,-9.7 14.3,-10 C15.6,-10.3 16.3,-10.5 18.9,-10.5 L19,-10.5 C23,-10.5 24.3,-6.8 25.4,-3 L25.7,-2 C26.5,0.6 26.9,2.8 26.9,4.5 C26.9,5.7 26.7,6.8 26.3,7.6 C25.7,8.7 24.7,9.4 23,9.8 C22.1,10 20.6,10.1 20.6,10.1 C20.1,10.1 19.7,10.2 19.3,10.2 C16.1,10.2 14.1,9 12.7,4.7 C11.5,1 11.3,-0.1 10.4,-4.5"/>
<path class="Note" transform="matrix(0.453543,0,0,0.453543,657.724,447.873)" d="M18.7,-13.6 C4.9,-13.6 0,-6.6 0,-0.1 C0,6.4 4.9,13.4 18.7,13.4 C32.5,13.4 37.3,6.4 37.3,-0.1 C37.3,-6.6 32.5,-13.6 18.7,-13.6 M10.4,-4.5 C10.3,-4.9 10.3,-5.3 10.3,-5.7 C10.3,-6.5 10.5,-7.3 10.9,-8 C11.6,-9 12.8,-9.7 14.3,-10 C15.6,-10.3 16.3,-10.5 18.9,-10.5 L19,-10.5 C23,-10.5 24.3,-6.8 25.4,-3 L25.7,-2 C26.5,0.6 26.9,2.8 26.9,4.5 C26.9,5.7 26.7,6.8 26.3,7.6 C25.7,8.7 24.7,9.4 23,9.8 C22.1,10 20.6,10.1 20.6,10.1 C20.1,10.1 19.7,10.2 19.3,10.2 C16.1,10.2 14.1,9 12.7,4.7 C11.5,1 11.3,-0.1 10.4,-4.5"/>
<path class="Note" transform="matrix(0.453543,0,0,0.453543,751.774,453.542)" d="M18.7,-13.6 C4.9,-13.6 0,-6.6 0,-0.1 C0,6.4 4.9,13.4 18.7,13.4 C32.5,13.4 37.3,6.4 37.3,-0.1 C37.3,-6.6 32.5,-13.6 18.7,-13.6 M10.4,-4.5 C10.3,-4.9 10.3,-5.3 10.3,-5.7 C10.3,-6.5 10.5,-7.3 10.9,-8 C11.6,-9 12.8,-9.7 14.3,-10 C15.6,-10.3 16.3,-10.5 18.9,-10.5 L19,-10.5 C23,-10.5 24.3,-6.8 25.4,-3 L25.7,-2 C26.5,0.6 26.9,2.8 26.9,4.5 C26.9,5.7 26.7,6.8 26.3,7.6 C25.7,8.7 24.7,9.4 23,9.8 C22.1,10 20.6,10.1 20.6,10.1 C20.1,10.1 19.7,10.2 19.3,10.2 C16.1,10.2 14.1,9 12.7,4.7 C11.5,1 11.3,-0.1 10.4,-4.5"/>
<path class="Note" transform="matrix(0.453543,0,0,0.453543,98.8799,107.717)" d="M18.7,-13.6 C4.9,-13.6 0,-6.6 0,-0.1 C0,6.4 4.9,13.4 18.7,13.4 C32.5,13.4 37.3,6.4 37.3,-0.1 C37.3,-6.6 32.5,-13.6 18.7,-13.6 M10.4,-4.5 C10.3,-4.9 10.3,-5.3 10.3,-5.7 C10.3,-6.5 10.5,-7.3 10.9,-8 C11.6,-9 12.8,-9.7 14.3,-10 C15.6,-10.3 16.3,-10.5 18.9,-10.5 L19,-10.5 C23,-10.5 24.3,-6.8 25.4,-3 L25.7,-2 C26.5,0.6 26.9,2.8 26.9,4.5 C26.9,5.7 26.7,6.8 26.3,7.6 C25.7,8.7 24.7,9.4 23,9.8 C22.1,10 20.6,10.1 20.6,10.1 C20.1,10.1 19.7,10.2 19.3,10.2 C16.1,10.2 14.1,9 12.7,4.7 C11.5,1 11.3,-0.1 10.4,-4.5"/>
<path class="Note" transform="matrix(0.453543,0,0,0.453543,160.744,107.717)" d="M18.7,-13.6 C4.9,-13.6 0,-6.6 0,-0.1 C0,6.4 4.9,13.4 18.7,13.4 C32.5,13.4 37.3,6.4 37.3,-0.1 C37.3,-6.6 32.5,-13.6 18.7,-13.6 M10.4,-4.5 C10.3,-4.9 10.3,-5.3 10.3,-5.7 C10.3,-6.5 10.5,-7.3 10.9,-8 C11.6,-9 12.8,-9.7 14.3,-10 C15.6,-10.3 16.3,-10.5 18.9,-10.5 L19,-10.5 C23,-10.5 24.3,-6.8 25.4,-3 L25.7,-2 C26.5,0.6 26.9,2.8 26.9,4.5 C26.9,5.7 26.7,6.8 26.3,7.6 C25.7,8.7 24.7,9.4 23,9.8 C22.1,10 20.6,10.1 20.6,10.1 C20.1,10.1 19.7,10.2 19.3,10.2 C16.1,10.2 14.1,9 12.7,4.7 C11.5,1 11.3,-0.1 10.4,-4.5"/>
<path class="Note" transform="matrix(0.453543,0,0,0.453543,227.506,107.717)" d="M18.7,-13.6 C4.9,-13.6 0,-6.6 0,-0.1 C0,6.4 4.9,13.4 18.7,13.4 C32.5,13.4 37.3,6.4 37.3,-0.1 C37.3,-6.6 32.5,-13.6 18.7,-13.6 M10.4,-4.5 C10.3,-4.9 10.3,-5.3 10.3,-5.7 C10.3,-6.5 10.5,-7.3 10.9,-8 C11.6,-9 12.8,-9.7 14.3,-10 C15.6,-10.3 16.3,-10.5 18.9,-10.5 L19,-10.5 C23,-10.5 24.3,-6.8 25.4,-3 L25.7,-2 C26.5,0.6 26.9,2.8 26.9,4.5 C26.9,5.7 26.7,6.8 26.3,7.6 C25.7,8.7 24.7,9.4 23,9.8 C22.1,10 20.6,10.1 20.6,10.1 C20.1,10.1 19.7,10.2 19.3,10.2 C16.1,10.2 14.1,9 12.7,4.7 C11.5,1 11.3,-0.1 10.4,-4.5"/>
<path class="Note" transform="matrix(0.453543,0,0,0.453543,294.269,107.717)" d="M18.7,-13.6 C4.9,-13.6 0,-6.6 0,-0.1 C0,6.4 4.9,13.4 18.7,13.4 C32.5,13.4 37.3,6.4 37.3,-0.1 C37.3,-6.6 32.5,-13.6 18.7,-13.6 M10.4,-4.5 C10.3,-4.9 10.3,-5.3 10.3,-5.7 C10.3,-6.5 10.5,-7.3 10.9,-8 C11.6,-9 12.8,-9.7 14.3,-10 C15.6,-10.3 16.3,-10.5 18.9,-10.5 L19,-10.5 C23,-10.5 24.3,-6.8 25.4,-3 L25.7,-2 C26.5,0.6 26.9,2.8 26.9,4.5 C26.9,5.7 26.7,6.8 26.3,7.6 C25.7,8.7 24.7,9.4 23,9.8 C22.1,10 20.6,10.1 20.6,10.1 C20.1,10.1 19.7,10.2 19.3,10.2 C16.1,10.2 14.1,9 12.7,4.7 C11.5,1 11.3,-0.1 10.4,-4.5"/>
<path class="Note" transform="matrix(0.453543,0,0,0.453543,370.056,113.386)" d="M18.7,-13.6 C4.9,-13.6 0,-6.6 0,-0.1 C0,6.4 4.9,13.4 18.7,13.4 C32.5,13.4 37.3,6.4 37.3,-0.1 C37.3,-6.6 32.5,-13.6 18.7,-13.6 M10.4,-4.5 C10.3,-4.9 10.3,-5.3 10.3,-5.7 C10.3,-6.5 10.5,-7.3 10.9,-8 C11.6,-9 12.8,-9.7 14.3,-10 C15.6,-10.3 16.3,-10.5 18.9,-10.5 L19,-10.5 C23,-10.5 24.3,-6.8 25.4,-3 L25.7,-2 C26.5,0.6 26.9,2.8 26.9,4.5 C26.9,5.7 26.7,6.8 26.3,7.6 C25.7,8.7 24.7,9.4 23,9.8 C22.1,10 20.6,10.1 20.6,10.1 C20.1,10.1 19.7,10.2 19.3,10.2 C16.1,10.2 14.1,9 12.7,4.7 C11.5,1 11.3,-0.1 10.4,-4.5"/>
<path class="Note" transform="matrix(0.453543,0,0,0.453543,431.92,107.717)" d="M18.7,-13.6 C4.9,-13.6 0,-6.6 0,-0.1 C0,6.4 4.9,13.4 18.7,13.4 C32.5,13.4 37.3,6.4 37.3,-0.1 C37.3,-6.6 32.5,-13.6 18.7,-13.6 M10.4,-4.5 C10.3,-4.9 10.3,-5.3 10.3,-5.7 C10.3,-6.5 10.5,-7.3 10.9,-8 C11.6,-9 12.8,-9.7 14.3,-10 C15.6,-10.3 16.3,-10.5 18.9,-10.5 L19,-10.5 C23,-10.5 24.3,-6.8 25.4,-3 L25.7,-2 C26.5,0.6 26.9,2.8 26.9,4.5 C26.9,5.7 26.7,6.8 26.3,7.6 C25.7,8.7 24.7,9.4 23,9.8 C22.1,10 20.6,10.1 20.6,10.1 C20.1,10.1 19.7,10.2 19.3,10.2 C16.1,10.2 14.1,9 12.7,4.7 C11.5,1 11.3,-0.1 10.4,-4.5"/>
<path class="Note" transform="matrix(0.453543,0,0,0.453543,498.683,124.724)" d="M18.7,-13.6 C4.9,-13.6 0,-6.6 0,-0.1 C0,6.4 4.9,13.4 18.7,13.4 C32.5,13.4 37.3,6.4 37.3,-0.1 C37.3,-6.6 32.5,-13.6 18.7,-13.6 M10.4,-4.5 C10.3,-4.9 10.3,-5.3 10.3,-5.7 C10.3,-6.5 10.5,-7.3 10.9,-8 C11.6,-9 12.8,-9.7 14.3,-10 C15.6,-10.3 16.3,-10.5 18.9,-10.5 L19,-10.5 C23,-10.5 24.3,-6.8 25.4,-3 L25.7,-2 C26.5,0.6 26.9,2.8 26.9,4.5 C26.9,5.7 26.7,6.8 26.3,7.6 C25.7,8.7 24.7,9.4 23,9.8 C22.1,10 20.6,10.1 20.6,10.1 C20.1,10.1 19.7,10.2 19.3,10.2 C16.1,10.2 14.1,9 12.7,4.7 C11.5,1 11.3,-0.1 10.4,-4.5"/>
<path class="Note" transform="matrix(0.453543,0,0,0.453543,565.445,124.724)" d="M18.7,-13.6 C4.9,-13.6 0,-6.6 0,-0.1 C0,6.4 4.9,13.4 18.7,13.4 C32.5,13.4 37.3,6.4 37.3,-0.1 C37.3,-6.6 32.5,-13.6 18.7,-13.6 M10.4,-4.5 C10.3,-4.9 10.3,-5.3 10.3,-5.7 C10.3,-6.5 10.5,-7.3 10.9,-8 C11.6,-9 12.8,-9.7 14.3,-10 C15.6,-10.3 16.3,-10.5 18.9,-10.5 L19,-10.5 C23,-10.5 24.3,-6.8 25.4,-3 L25.7,-2 C26.5,0.6 26.9,2.8 26.9,4.5 C26.9,5.7 26.7,6.8 26.3,7.6 C25.7,8.7 24.7,9.4 23,9.8 C22.1,10 20.6,10.1 20.6,10.1 C20.1,10.1 19.7,10.2 19.3,10.2 C16.1,10.2 14.1,9 12.7,4.7 C11.5,1 11.3,-0.1 10.4,-4.5"/>
<path class="Note" transform="matrix(0.453543,0,0,0.453543,632.208,124.724)" d="M18.7,-13.6 C4.9,-13.6 0,-6.6 0,-0.1 C0,6.4 4.9,13.4 18.7,13.4 C32.5,13.4 37.3,6.4 37.3,-0.1 C37.3,-6.6 32.5,-13.6 18.7,-13.6 M10.4,-4.5 C10.3,-4.9 10.3,-5.3 10.3,-5.7 C10.3,-6.5 10.5,-7.3 10.9,-8 C11.6,-9 12.8,-9.7 14.3,-10 C15.6,-10.3 16.3,-10.5 18.9,-10.5 L19,-10.5 C23,-10.5 24.3,-6.8 25.4,-3 L25.7,-2 C26.5,0.6 26.9,2.8 26.9,4.5 C26.9,5.7 26.7,6.8 26.3,7.6 C25.7,8.7 24.7,9.4 23,9.8 C22.1,10 20.6,10.1 20.6,10.1 C20.1,10.1 19.7,10.2 19.3,10.2 C16.1,10.2 14.1,9 12.7,4.7 C11.5,1 11.3,-0.1 10.4,-4.5"/>
<path class="Note" transform="matrix(0.453543,0,0,0.453543,698.97,124.724)" d="M18.7,-13.6 C4.9,-13.6 0,-6.6 0,-0.1 C0,6.4 4.9,13.4 18.7,13.4 C32.5,13.4 37.3,6.4 37.3,-0.1 C37.3,-6.6 32.5,-13.6 18.7,-13.6 M10.4,-4.5 C10.3,-4.9 10.3,-5.3 10.3,-5.7 C10.3,-6.5 10.5,-7.3 10.9,-8 C11.6,-9 12.8,-9.7 14.3,-10 C15.6,-10.3 16.3,-10.5 18.9,-10.5 L19,-10.5 C23,-10.5 24.3,-6.8 25.4,-3 L25.7,-2 C26.5,0.6 26.9,2.8 26.9,4.5 C26.9,5.7 26.7,6.8 26.3,7.6 C25.7,8.7 24.7,9.4 23,9.8 C22.1,10 20.6,10.1 20.6,10.1 C20.1,10.1 19.7,10.2 19.3,10.2 C16.1,10.2 14.1,9 12.7,4.7 C11.5,1 11.3,-0.1 10.4,-4.5"/>
<path class="Note" transform="matrix(0.453543,0,0,0.453543,778.843,147.402)" d="M18.7,-13.6 C4.9,-13.6 0,-6.6 0,-0.1 C0,6.4 4.9,13.4 18.7,13.4 C32.5,13.4 37.3,6.4 37.3,-0.1 C37.3,-6.6 32.5,-13.6 18.7,-13.6 M10.4,-4.5 C10.3,-4.9 10.3,-5.3 10.3,-5.7 C10.3,-6.5 10.5,-7.3 10.9,-8 C11.6,-9 12.8,-9.7 14.3,-10 C15.6,-10.3 16.3,-10.5 18.9,-10.5 L19,-10.5 C23,-10.5 24.3,-6.8 25.4,-3 L25.7,-2 C26.5,0.6 26.9,2.8 26.9,4.5 C26.9,5.7 26.7,6.8 26.3,7.6 C25.7,8.7 24.7,9.4 23,9.8 C22.1,10 20.6,10.1 20.6,10.1 C20.1,10.1 19.7,10.2 19.3,10.2 C16.1,10.2 14.1,9 12.7,4.7 C11.5,1 11.3,-0.1 10.4,-4.5"/>
<path class="Clef" transform="matrix(0.453543,0,0,0.453543,40.4189,272.125)" d="M25.4,-25.1 C17.8,-25.1 11.7,-20.7 11.6,-20.7 C5.8,-16.4 3.5,-11.3 2.6,-7.8 C2.1,-6 1.9,-4.2 1.9,-2.5 C1.9,-0.1 2.3,2.1 3.2,4 C4.4,6.7 6.7,8.6 9.7,9.6 C10.9,10 12.2,10.2 13.5,10.2 C15.7,10.2 18,9.6 19.9,8.5 C23,6.8 24.9,3.2 24.9,-0.7 C24.9,-4.2 23.1,-7.4 20.1,-9.3 C18,-10.7 16,-11.1 14.3,-11.1 C13.1,-11.1 12,-10.9 11.1,-10.6 C10.1,-10.2 8.4,-9.2 7.6,-8.5 C7.9,-10.4 9.1,-13.3 10.2,-14.9 C11.3,-16.5 13.5,-18.5 15.2,-19.4 C17.7,-20.8 20.9,-21.4 24.4,-21.4 C34.6,-21.4 39.6,-13.2 39.6,3.6 C39.6,12.9 36.1,21.8 33.1,27.7 C29.8,34.3 25.4,40.6 21.5,44.1 C11.1,53.6 1.3,58.1 1.2,58.1 C1.2,58.1 -0.3,59 0.1,60.5 C0.4,61.5 1.3,61.7 1.9,61.7 C2,61.7 2.3,61.6 2.4,61.6 C2.5,61.6 13.9,56.9 23,49.8 C28.1,46.1 32.7,42.1 36.7,37.8 C40.3,33.9 43.4,29.7 45.9,25.5 C50.3,18 52.8,10.2 52.8,3.5 C52.8,-4.8 50.6,-11.7 46.5,-16.6 C41.8,-22.2 34.7,-25.1 25.4,-25.1 M56.8,-12.4 C56.8,-9.6 59,-7.4 61.6,-7.4 C64.2,-7.4 66.4,-9.6 66.4,-12.4 C66.4,-15.2 64.2,-17.5 61.6,-17.5 C59,-17.5 56.8,-15.2 56.8,-12.4 M56.8,12.3 C56.8,15.1 59,17.4 61.6,17.4 C64.2,17.4 66.4,15.1 66.4,12.3 C66.4,9.5 64.2,7.2 61.6,7.2 C59,7.2 56.8,9.5 56.8,12.3"/>
<path class="Clef" transform="matrix(0.453543,0,0,0.453543,40.4189,425.196)" d="M25.4,-25.1 C17.8,-25.1 11.7,-20.7 11.6,-20.7 C5.8,-16.4 3.5,-11.3 2.6,-7.8 C2.1,-6 1.9,-4.2 1.9,-2.5 C1.9,-0.1 2.3,2.1 3.2,4 C4.4,6.7 6.7,8.6 9.7,9.6 C10.9,10 12.2,10.2 13.5,10.2 C15.7,10.2 18,9.6 19.9,8.5 C23,6.8 24.9,3.2 24.9,-0.7 C24.9,-4.2 23.1,-7.4 20.1,-9.3 C18,-10.7 16,-11.1 14.3,-11.1 C13.1,-11.1 12,-10.9 11.1,-10.6 C10.1,-10.2 8.4,-9.2 7.6,-8.5 C7.9,-10.4 9.1,-13.3 10.2,-14.9 C11.3,-16.5 13.5,-18.5 15.2,-19.4 C17.7,-20.8 20.9,-21.4 24.4,-21.4 C34.6,-21.4 39.6,-13.2 39.6,3.6 C39.6,12.9 36.1,21.8 33.1,27.7 C29.8,34.3 25.4,40.6 21.5,44.1 C11.1,53.6 1.3,58.1 1.2,58.1 C1.2,58.1 -0.3,59 0.1,60.5 C0.4,61.5 1.3,61.7 1.9,61.7 C2,61.7 2.3,61.6 2.4,61.6 C2.5,61.6 13.9,56.9 23,49.8 C28.1,46.1 32.7,42.1 36.7,37.8 C40.3,33.9 43.4,29.7 45.9,25.5 C50.3,18 52.8,10.2 52.8,3.5 C52.8,-4.8 50.6,-11.7 46.5,-16.6 C41.8,-22.2 34.7,-25.1 25.4,-25.1 M56.8,-12.4 C56.8,-9.6 59,-7.4 61.6,-7.4 C64.2,-7.4 66.4,-9.6 66.4,-12.4 C66.4,-15.2 64.2,-17.5 61.6,-17.5 C59,-17.5 56.8,-15.2 56.8,-12.4 M56.8,12.3 C56.8,15.1 59,17.4 61.6,17.4 C64.2,17.4 66.4,15.1 66.4,12.3 C66.4,9.5 64.2,7.2 61.6,7.2 C59,7.2 56.8,9.5 56.8,12.3"/>
<path class="Clef" transform="matrix(0.453543,0,0,0.453543,40.4189,119.055)" d="M25.4,-25.1 C17.8,-25.1 11.7,-20.7 11.6,-20.7 C5.8,-16.4 3.5,-11.3 2.6,-7.8 C2.1,-6 1.9,-4.2 1.9,-2.5 C1.9,-0.1 2.3,2.1 3.2,4 C4.4,6.7 6.7,8.6 9.7,9.6 C10.9,10 12.2,10.2 13.5,10.2 C15.7,10.2 18,9.6 19.9,8.5 C23,6.8 24.9,3.2 24.9,-0.7 C24.9,-4.2 23.1,-7.4 20.1,-9.3 C18,-10.7 16,-11.1 14.3,-11.1 C13.1,-11.1 12,-10.9 11.1,-10.6 C10.1,-10.2 8.4,-9.2 7.6,-8.5 C7.9,-10.4 9.1,-13.3 10.2,-14.9 C11.3,-16.5 13.5,-18.5 15.2,-19.4 C17.7,-20.8 20.9,-21.4 24.4,-21.4 C34.6,-21.4 39.6,-13.2 39.6,3.6 C39.6,12.9 36.1,21.8 33.1,27.7 C29.8,34.3 25.4,40.6 21.5,44.1 C11.1,53.6 1.3,58.1 1.2,58.1 C1.2,58.1 -0.3,59 0.1,60.5 C0.4,61.5 1.3,61.7 1.9,61.7 C2,61.7 2.3,61.6 2.4,61.6 C2.5,61.6 13.9,56.9 23,49.8 C28.1,46.1 32.7,42.1 36.7,37.8 C40.3,33.9 43.4,29.7 45.9,25.5 C50.3,18 52.8,10.2 52.8,3.5 C52.8,-4.8 50.6,-11.7 46.5,-16.6 C41.8,-22.2 34.7,-25.1 25.4,-25.1 M56.8,-12.4 C56.8,-9.6 59,-7.4 61.6,-7.4 C64.2,-7.4 66.4,-9.6 66.4,-12.4 C66.4,-15.2 64.2,-17.5 61.6,-17.5 C59,-17.5 56.8,-15.2 56.8,-12.4 M56.8,12.3 C56.8,15.1 59,17.4 61.6,17.4 C64.2,17.4 66.4,15.1 66.4,12.3 C66.4,9.5 64.2,7.2 61.6,7.2 C59,7.2 56.8,9.5 56.8,12.3"/>
<path class="FiguredBass" d="M169.733,178.799 C168.866,178.799 168.289,179.147 168.002,179.845 C167.714,180.542 167.571,181.529 167.571,182.807 L167.571,184.881 C168.18,184.635 168.708,184.506 169.153,184.494 C170.676,184.494 171.875,184.831 172.748,185.505 C173.621,186.179 174.057,187.181 174.057,188.511 C174.057,189.841 173.615,190.846 172.73,191.525 C171.845,192.205 170.653,192.545 169.153,192.545 C167.618,192.545 166.417,191.833 165.549,190.409 C164.682,188.985 164.249,187.295 164.249,185.338 C164.249,183.393 164.753,181.705 165.76,180.275 C166.768,178.846 168.092,178.131 169.733,178.131 C170.811,178.131 171.743,178.403 172.528,178.948 C173.313,179.493 173.706,180.211 173.706,181.102 C173.706,181.617 173.518,182.062 173.143,182.437 C172.768,182.812 172.32,183 171.798,183 C171.277,183 170.829,182.812 170.454,182.437 C170.079,182.062 169.891,181.617 169.891,181.102 C169.891,180.598 170.079,180.152 170.454,179.766 C170.583,179.613 170.764,179.484 170.999,179.379 C170.94,179.227 170.823,179.109 170.647,179.027 C170.389,178.875 170.085,178.799 169.733,178.799 M170.594,185.988 C170.383,185.437 169.92,185.162 169.206,185.162 C168.491,185.162 168.048,185.437 167.878,185.988 C167.709,186.539 167.624,187.377 167.624,188.502 C167.624,189.826 167.709,190.717 167.878,191.174 C168.048,191.631 168.491,191.859 169.206,191.859 C169.92,191.859 170.383,191.584 170.594,191.033 C170.805,190.482 170.911,189.642 170.911,188.511 C170.911,187.38 170.805,186.539 170.594,185.988"/>
<path class="FiguredBass" d="M169.61,198.531 C170.055,198.531 170.524,198.467 171.016,198.338 L171.807,198.127 C171.96,198.127 172.08,198.186 172.168,198.303 C172.255,198.42 172.247,198.525 172.141,198.619 L163.967,208.129 L168.766,208.129 L168.766,204.367 C168.766,204.098 168.839,203.89 168.986,203.743 C169.132,203.597 169.32,203.479 169.548,203.392 C169.777,203.304 170.076,203.043 170.445,202.609 C170.814,202.176 171.169,201.59 171.508,200.852 C171.567,200.734 171.655,200.676 171.772,200.676 C172.018,200.676 172.141,200.811 172.141,201.08 L172.141,208.129 L174.215,208.129 C174.508,208.129 174.655,208.264 174.655,208.533 C174.655,208.826 174.508,208.973 174.215,208.973 L172.141,208.973 L172.141,209.201 C172.141,209.928 172.335,210.561 172.721,211.1 C173.108,211.639 173.606,211.908 174.215,211.908 C174.45,211.908 174.567,212.014 174.567,212.225 C174.567,212.459 174.45,212.576 174.215,212.576 C173.794,212.576 173.167,212.515 172.335,212.392 C171.503,212.269 170.873,212.207 170.445,212.207 C170.017,212.207 169.387,212.269 168.555,212.392 C167.723,212.515 167.096,212.576 166.674,212.576 C166.44,212.576 166.323,212.459 166.323,212.225 C166.323,212.014 166.44,211.908 166.674,211.908 C167.284,211.908 167.785,211.639 168.177,211.1 C168.57,210.561 168.766,209.928 168.766,209.201 L168.766,208.973 L163.967,208.973 C163.663,208.973 163.437,208.899 163.291,208.753 C163.144,208.606 163.071,208.457 163.071,208.305 C163.071,208.246 163.209,208.044 163.484,207.698 C163.759,207.353 164.096,206.893 164.495,206.318 C164.893,205.744 165.289,205.091 165.681,204.358 C166.074,203.626 166.408,202.747 166.683,201.722 C166.959,200.696 167.096,199.662 167.096,198.619 C167.096,198.314 167.225,198.162 167.483,198.162 C167.518,198.162 167.641,198.191 167.852,198.25 C168.063,198.309 168.333,198.37 168.661,198.435 C168.989,198.499 169.305,198.531 169.61,198.531"/>
<path class="FiguredBass" d="M238.746,184.898 C238.746,185.086 238.851,185.268 239.062,185.443 C239.273,185.619 239.504,185.786 239.756,185.944 C240.008,186.103 240.24,186.401 240.451,186.841 C240.662,187.28 240.767,187.834 240.767,188.502 C240.767,189.791 240.281,190.787 239.308,191.49 C238.335,192.193 237.105,192.545 235.617,192.545 C234.421,192.545 233.381,192.246 232.497,191.648 C231.612,191.051 231.169,190.266 231.169,189.293 C231.169,188.777 231.357,188.329 231.732,187.948 C232.107,187.567 232.555,187.377 233.077,187.377 C233.598,187.377 234.04,187.564 234.404,187.939 C234.767,188.314 234.949,188.766 234.949,189.293 C234.949,189.527 234.755,189.782 234.369,190.058 C233.982,190.333 233.788,190.588 233.788,190.822 C233.788,191.186 233.967,191.452 234.325,191.622 C234.682,191.792 235.113,191.877 235.617,191.877 C236.273,191.877 236.739,191.552 237.014,190.901 C237.289,190.251 237.427,189.451 237.427,188.502 L237.427,188.045 C237.427,187.412 237.407,186.932 237.366,186.604 C237.325,186.275 237.196,185.982 236.979,185.725 C236.762,185.467 236.431,185.338 235.986,185.338 L233.683,185.338 C233.413,185.338 233.279,185.191 233.279,184.898 C233.279,184.629 233.413,184.494 233.683,184.494 L235.986,184.494 C236.466,184.494 236.841,184.312 237.111,183.949 C237.205,183.82 237.281,183.609 237.339,183.316 C237.398,182.93 237.427,182.373 237.427,181.646 L237.427,181.418 C237.427,179.672 236.783,178.799 235.494,178.799 C234.357,178.799 233.788,179.115 233.788,179.748 C233.788,179.959 233.961,180.185 234.307,180.425 C234.653,180.665 234.826,180.891 234.826,181.102 C234.826,181.559 234.664,181.951 234.342,182.279 C234.02,182.607 233.627,182.771 233.164,182.771 C232.702,182.771 232.312,182.607 231.996,182.279 C231.679,181.951 231.521,181.559 231.521,181.102 C231.521,180.199 231.913,179.479 232.699,178.939 C233.484,178.4 234.415,178.131 235.494,178.131 C236.912,178.131 238.078,178.403 238.992,178.948 C239.906,179.493 240.363,180.316 240.363,181.418 C240.363,182.203 240.281,182.812 240.117,183.246 C239.953,183.68 239.765,183.943 239.554,184.037 C239.343,184.131 239.156,184.239 238.992,184.362 C238.828,184.485 238.746,184.664 238.746,184.898"/>
<path class="FiguredBass" d="M304.049,192.545 C302.912,192.545 302.086,192.229 301.571,191.596 C301.383,191.361 301.143,191.145 300.85,190.945 C300.557,190.746 300.235,190.646 299.883,190.646 C299.426,190.646 299.016,190.79 298.653,191.077 C298.289,191.364 298.108,191.748 298.108,192.229 C298.108,192.439 298.002,192.545 297.791,192.545 C297.557,192.545 297.44,192.439 297.44,192.229 C297.44,191.514 297.607,190.86 297.941,190.269 C298.275,189.677 298.694,189.179 299.198,188.774 C299.701,188.37 300.246,187.937 300.832,187.474 C301.418,187.011 301.96,186.562 302.458,186.129 C302.956,185.695 303.372,185.147 303.706,184.485 C304.04,183.823 304.207,183.1 304.207,182.314 C304.207,181.33 304.046,180.498 303.724,179.818 C303.402,179.139 302.895,178.799 302.203,178.799 C301.805,178.799 301.459,178.896 301.166,179.089 C300.873,179.282 300.727,179.537 300.727,179.854 C300.727,180.1 300.894,180.422 301.228,180.82 C301.562,181.219 301.729,181.553 301.729,181.822 C301.729,182.385 301.538,182.856 301.157,183.237 C300.777,183.618 300.317,183.809 299.778,183.809 C299.215,183.809 298.743,183.612 298.363,183.22 C297.982,182.827 297.791,182.361 297.791,181.822 C297.791,180.744 298.222,179.859 299.083,179.168 C299.945,178.477 300.985,178.131 302.203,178.131 C303.645,178.131 304.902,178.521 305.974,179.3 C307.046,180.079 307.582,181.084 307.582,182.314 C307.582,183.146 307.433,183.867 307.134,184.477 C306.835,185.086 306.407,185.578 305.851,185.953 C305.294,186.328 304.738,186.647 304.181,186.911 C303.624,187.175 302.971,187.459 302.221,187.764 C301.471,188.068 300.867,188.367 300.41,188.66 C300.657,188.602 300.908,188.572 301.166,188.572 C302.033,188.572 302.936,188.854 303.873,189.416 C304.811,189.979 305.549,190.26 306.088,190.26 C306.393,190.26 306.642,190.204 306.835,190.093 C307.029,189.981 307.155,189.858 307.213,189.724 C307.272,189.589 307.339,189.463 307.415,189.346 C307.491,189.229 307.576,189.17 307.67,189.17 C307.905,189.17 308.022,189.287 308.022,189.521 C308.022,190.025 307.658,190.655 306.932,191.411 C306.205,192.167 305.244,192.545 304.049,192.545"/>
<path class="FiguredBass" d="M379.045,178.799 C378.178,178.799 377.601,179.147 377.314,179.845 C377.027,180.542 376.883,181.529 376.883,182.807 L376.883,184.881 C377.493,184.635 378.02,184.506 378.465,184.494 C379.989,184.494 381.187,184.831 382.06,185.505 C382.933,186.179 383.37,187.181 383.37,188.511 C383.37,189.841 382.927,190.846 382.043,191.525 C381.158,192.205 379.965,192.545 378.465,192.545 C376.93,192.545 375.729,191.833 374.862,190.409 C373.995,188.985 373.561,187.295 373.561,185.338 C373.561,183.393 374.065,181.705 375.073,180.275 C376.081,178.846 377.405,178.131 379.045,178.131 C380.124,178.131 381.055,178.403 381.84,178.948 C382.626,179.493 383.018,180.211 383.018,181.102 C383.018,181.617 382.831,182.062 382.456,182.437 C382.081,182.812 381.632,183 381.111,183 C380.589,183 380.141,182.812 379.766,182.437 C379.391,182.062 379.204,181.617 379.204,181.102 C379.204,180.598 379.391,180.152 379.766,179.766 C379.895,179.613 380.077,179.484 380.311,179.379 C380.252,179.227 380.135,179.109 379.959,179.027 C379.702,178.875 379.397,178.799 379.045,178.799 M379.907,185.988 C379.696,185.437 379.233,185.162 378.518,185.162 C377.803,185.162 377.361,185.437 377.191,185.988 C377.021,186.539 376.936,187.377 376.936,188.502 C376.936,189.826 377.021,190.717 377.191,191.174 C377.361,191.631 377.803,191.859 378.518,191.859 C379.233,191.859 379.696,191.584 379.907,191.033 C380.118,190.482 380.223,189.642 380.223,188.511 C380.223,187.38 380.118,186.539 379.907,185.988"/>
<path class="FiguredBass" d="M374.756,198.162 L375.6,198.285 C375.823,198.32 376.098,198.355 376.426,198.391 C377.235,198.484 378.014,198.531 378.764,198.531 C379.514,198.531 380.305,198.484 381.137,198.391 C381.465,198.355 381.752,198.32 381.999,198.285 L382.86,198.162 C383.036,198.162 383.17,198.221 383.264,198.338 C383.334,198.432 383.323,198.525 383.229,198.619 C381.401,200.412 378.876,201.309 375.653,201.309 C375.524,201.309 375.41,201.355 375.31,201.449 C375.21,201.543 375.161,201.66 375.161,201.801 L375.161,204.033 C375.993,203.213 377.001,202.803 378.184,202.803 C379.836,202.803 381.126,203.189 382.051,203.963 C383.059,203.201 383.586,202.229 383.633,201.045 C383.645,200.67 383.768,200.365 384.002,200.131 C384.26,199.896 384.571,199.779 384.934,199.779 C385.297,199.779 385.605,199.902 385.857,200.148 C386.109,200.395 386.235,200.693 386.235,201.045 C386.235,202.861 385.163,204.238 383.018,205.176 C383.37,205.867 383.545,206.711 383.545,207.707 C383.545,209.031 383.018,210.174 381.963,211.135 C380.909,212.096 379.649,212.576 378.184,212.576 C376.918,212.576 375.82,212.289 374.888,211.715 C373.957,211.141 373.491,210.344 373.491,209.324 C373.491,208.809 373.678,208.36 374.053,207.979 C374.428,207.599 374.876,207.408 375.398,207.408 C375.919,207.408 376.362,207.596 376.725,207.971 C377.088,208.346 377.27,208.797 377.27,209.324 C377.27,209.559 377.077,209.813 376.69,210.089 C376.303,210.364 376.11,210.619 376.11,210.854 C376.11,211.557 376.801,211.908 378.184,211.908 C379.532,211.908 380.206,210.508 380.206,207.707 C380.206,207.086 380.17,206.541 380.1,206.072 C378.682,206.365 376.907,206.594 374.774,206.758 C374.481,206.781 374.334,206.635 374.334,206.318 C374.334,206.061 374.481,205.92 374.774,205.896 C376.93,205.721 378.629,205.439 379.872,205.053 C379.543,204.115 378.981,203.641 378.184,203.629 C376.977,203.629 376.133,203.875 375.653,204.367 C375.172,204.859 374.874,205.105 374.756,205.105 C374.475,205.105 374.334,204.959 374.334,204.666 L374.334,198.619 C374.334,198.502 374.376,198.396 374.458,198.303 C374.551,198.209 374.651,198.162 374.756,198.162"/>
<path class="FiguredBass" d="M506.002,190.717 L506.002,194.391 C506.002,194.754 505.817,194.936 505.448,194.936 C505.079,194.936 504.895,194.754 504.895,194.391 L504.895,191.191 L504.332,191.42 C504.273,191.443 504.197,191.455 504.104,191.455 C503.951,191.455 503.816,191.396 503.699,191.279 C503.582,191.162 503.523,191.027 503.523,190.875 L503.523,189.082 C503.523,188.824 503.647,188.643 503.893,188.537 L504.895,188.115 L504.895,184.424 L504.332,184.652 C504.297,184.664 504.25,184.67 504.191,184.67 C504.168,184.67 504.139,184.67 504.104,184.67 C503.928,184.646 503.787,184.582 503.682,184.477 C503.576,184.371 503.523,184.248 503.523,184.107 L503.523,182.314 C503.523,182.068 503.647,181.893 503.893,181.787 L504.895,181.365 L504.895,177.621 C504.895,177.258 505.079,177.076 505.448,177.076 C505.817,177.076 506.002,177.258 506.002,177.621 L506.002,180.908 L508.27,179.959 L508.27,176.285 C508.27,175.922 508.451,175.74 508.814,175.74 C509.178,175.74 509.359,175.922 509.359,176.285 L509.359,179.52 L509.975,179.256 C510.033,179.232 510.098,179.221 510.168,179.221 C510.32,179.221 510.458,179.279 510.581,179.396 C510.704,179.514 510.766,179.648 510.766,179.801 L510.766,181.594 C510.766,181.852 510.637,182.033 510.379,182.139 L509.359,182.561 L509.359,186.27 L509.975,186.023 C510.01,186.012 510.051,186.006 510.098,186.006 C510.121,186.006 510.145,186.006 510.168,186.006 C510.367,186.041 510.517,186.105 510.616,186.199 C510.716,186.293 510.766,186.416 510.766,186.568 L510.766,188.361 C510.766,188.607 510.637,188.783 510.379,188.889 L509.359,189.311 L509.359,193.055 C509.359,193.418 509.178,193.6 508.814,193.6 C508.451,193.6 508.27,193.418 508.27,193.055 L508.27,189.768 L506.002,190.717 M506.002,187.658 L508.27,186.727 L508.27,183.018 L506.002,183.967 L506.002,187.658 "/>
<path class="FiguredBass" d="M574.434,178.799 C573.567,178.799 572.99,179.147 572.703,179.845 C572.416,180.542 572.272,181.529 572.272,182.807 L572.272,184.881 C572.882,184.635 573.409,184.506 573.854,184.494 C575.378,184.494 576.576,184.831 577.449,185.505 C578.322,186.179 578.759,187.181 578.759,188.511 C578.759,189.841 578.316,190.846 577.432,191.525 C576.547,192.205 575.354,192.545 573.854,192.545 C572.319,192.545 571.118,191.833 570.251,190.409 C569.384,188.985 568.95,187.295 568.95,185.338 C568.95,183.393 569.454,181.705 570.462,180.275 C571.47,178.846 572.794,178.131 574.434,178.131 C575.513,178.131 576.444,178.403 577.229,178.948 C578.015,179.493 578.407,180.211 578.407,181.102 C578.407,181.617 578.22,182.062 577.845,182.437 C577.47,182.812 577.021,183 576.5,183 C575.978,183 575.53,182.812 575.155,182.437 C574.78,182.062 574.593,181.617 574.593,181.102 C574.593,180.598 574.78,180.152 575.155,179.766 C575.284,179.613 575.466,179.484 575.7,179.379 C575.641,179.227 575.524,179.109 575.349,179.027 C575.091,178.875 574.786,178.799 574.434,178.799 M575.296,185.988 C575.085,185.437 574.622,185.162 573.907,185.162 C573.192,185.162 572.75,185.437 572.58,185.988 C572.41,186.539 572.325,187.377 572.325,188.502 C572.325,189.826 572.41,190.717 572.58,191.174 C572.75,191.631 573.192,191.859 573.907,191.859 C574.622,191.859 575.085,191.584 575.296,191.033 C575.507,190.482 575.612,189.642 575.612,188.511 C575.612,187.38 575.507,186.539 575.296,185.988"/>
<path class="FiguredBass" d="M574.311,198.531 C574.757,198.531 575.225,198.467 575.718,198.338 L576.509,198.127 C576.661,198.127 576.781,198.186 576.869,198.303 C576.957,198.42 576.948,198.525 576.843,198.619 L568.669,208.129 L573.468,208.129 L573.468,204.367 C573.468,204.098 573.541,203.89 573.687,203.743 C573.834,203.597 574.021,203.479 574.25,203.392 C574.478,203.304 574.777,203.043 575.146,202.609 C575.516,202.176 575.87,201.59 576.21,200.852 C576.268,200.734 576.356,200.676 576.474,200.676 C576.72,200.676 576.843,200.811 576.843,201.08 L576.843,208.129 L578.917,208.129 C579.21,208.129 579.356,208.264 579.356,208.533 C579.356,208.826 579.21,208.973 578.917,208.973 L576.843,208.973 L576.843,209.201 C576.843,209.928 577.036,210.561 577.423,211.1 C577.809,211.639 578.308,211.908 578.917,211.908 C579.151,211.908 579.268,212.014 579.268,212.225 C579.268,212.459 579.151,212.576 578.917,212.576 C578.495,212.576 577.868,212.515 577.036,212.392 C576.204,212.269 575.574,212.207 575.146,212.207 C574.719,212.207 574.089,212.269 573.257,212.392 C572.425,212.515 571.798,212.576 571.376,212.576 C571.141,212.576 571.024,212.459 571.024,212.225 C571.024,212.014 571.141,211.908 571.376,211.908 C571.985,211.908 572.486,211.639 572.879,211.1 C573.271,210.561 573.468,209.928 573.468,209.201 L573.468,208.973 L568.669,208.973 C568.364,208.973 568.139,208.899 567.992,208.753 C567.846,208.606 567.772,208.457 567.772,208.305 C567.772,208.246 567.91,208.044 568.185,207.698 C568.461,207.353 568.798,206.893 569.196,206.318 C569.595,205.744 569.99,205.091 570.383,204.358 C570.775,203.626 571.109,202.747 571.385,201.722 C571.66,200.696 571.798,199.662 571.798,198.619 C571.798,198.314 571.927,198.162 572.184,198.162 C572.22,198.162 572.343,198.191 572.554,198.25 C572.765,198.309 573.034,198.37 573.362,198.435 C573.69,198.499 574.007,198.531 574.311,198.531"/>
<path class="FiguredBass" d="M641.074,178.5 C641.519,178.5 641.988,178.436 642.48,178.307 L643.271,178.096 C643.424,178.096 643.544,178.154 643.632,178.271 C643.719,178.389 643.711,178.494 643.605,178.588 L635.431,188.098 L640.23,188.098 L640.23,184.336 C640.23,184.066 640.303,183.858 640.45,183.712 C640.596,183.565 640.784,183.448 641.012,183.36 C641.241,183.272 641.54,183.012 641.909,182.578 C642.278,182.145 642.633,181.559 642.972,180.82 C643.031,180.703 643.119,180.645 643.236,180.645 C643.482,180.645 643.605,180.779 643.605,181.049 L643.605,188.098 L645.679,188.098 C645.972,188.098 646.119,188.232 646.119,188.502 C646.119,188.795 645.972,188.941 645.679,188.941 L643.605,188.941 L643.605,189.17 C643.605,189.896 643.799,190.529 644.185,191.068 C644.572,191.607 645.07,191.877 645.679,191.877 C645.914,191.877 646.031,191.982 646.031,192.193 C646.031,192.428 645.914,192.545 645.679,192.545 C645.258,192.545 644.631,192.483 643.799,192.36 C642.967,192.237 642.337,192.176 641.909,192.176 C641.481,192.176 640.851,192.237 640.019,192.36 C639.187,192.483 638.56,192.545 638.138,192.545 C637.904,192.545 637.787,192.428 637.787,192.193 C637.787,191.982 637.904,191.877 638.138,191.877 C638.748,191.877 639.249,191.607 639.641,191.068 C640.034,190.529 640.23,189.896 640.23,189.17 L640.23,188.941 L635.431,188.941 C635.127,188.941 634.901,188.868 634.755,188.722 C634.608,188.575 634.535,188.426 634.535,188.273 C634.535,188.215 634.673,188.013 634.948,187.667 C635.223,187.321 635.56,186.861 635.959,186.287 C636.357,185.713 636.753,185.06 637.145,184.327 C637.538,183.595 637.872,182.716 638.147,181.69 C638.423,180.665 638.56,179.631 638.56,178.588 C638.56,178.283 638.689,178.131 638.947,178.131 C638.982,178.131 639.105,178.16 639.316,178.219 C639.527,178.277 639.797,178.339 640.125,178.403 C640.453,178.468 640.769,178.5 641.074,178.5"/>
<path class="FiguredBass" d="M706.29,190.717 L706.29,194.391 C706.29,194.754 706.105,194.936 705.736,194.936 C705.367,194.936 705.182,194.754 705.182,194.391 L705.182,191.191 L704.62,191.42 C704.561,191.443 704.485,191.455 704.391,191.455 C704.239,191.455 704.104,191.396 703.987,191.279 C703.87,191.162 703.811,191.027 703.811,190.875 L703.811,189.082 C703.811,188.824 703.934,188.643 704.18,188.537 L705.182,188.115 L705.182,184.424 L704.62,184.652 C704.585,184.664 704.538,184.67 704.479,184.67 C704.456,184.67 704.426,184.67 704.391,184.67 C704.215,184.646 704.075,184.582 703.969,184.477 C703.864,184.371 703.811,184.248 703.811,184.107 L703.811,182.314 C703.811,182.068 703.934,181.893 704.18,181.787 L705.182,181.365 L705.182,177.621 C705.182,177.258 705.367,177.076 705.736,177.076 C706.105,177.076 706.29,177.258 706.29,177.621 L706.29,180.908 L708.557,179.959 L708.557,176.285 C708.557,175.922 708.739,175.74 709.102,175.74 C709.465,175.74 709.647,175.922 709.647,176.285 L709.647,179.52 L710.262,179.256 C710.321,179.232 710.385,179.221 710.456,179.221 C710.608,179.221 710.746,179.279 710.869,179.396 C710.992,179.514 711.053,179.648 711.053,179.801 L711.053,181.594 C711.053,181.852 710.924,182.033 710.667,182.139 L709.647,182.561 L709.647,186.27 L710.262,186.023 C710.297,186.012 710.338,186.006 710.385,186.006 C710.409,186.006 710.432,186.006 710.456,186.006 C710.655,186.041 710.804,186.105 710.904,186.199 C711.003,186.293 711.053,186.416 711.053,186.568 L711.053,188.361 C711.053,188.607 710.924,188.783 710.667,188.889 L709.647,189.311 L709.647,193.055 C709.647,193.418 709.465,193.6 709.102,193.6 C708.739,193.6 708.557,193.418 708.557,193.055 L708.557,189.768 L706.29,190.717 M706.29,187.658 L708.557,186.727 L708.557,183.018 L706.29,183.967 L706.29,187.658 "/>
<path class="FiguredBass" d="M733.84,179.432 C733.875,179.432 733.951,179.355 734.068,179.203 C734.572,178.488 735.275,178.131 736.177,178.131 C736.904,178.131 737.59,178.4 738.234,178.939 C738.879,179.479 739.412,179.748 739.834,179.748 C740.291,179.748 740.724,179.613 741.134,179.344 C741.545,179.074 741.87,178.805 742.11,178.535 C742.35,178.266 742.506,178.131 742.576,178.131 C742.693,178.131 742.799,178.169 742.892,178.245 C742.986,178.321 743.033,178.418 743.033,178.535 C743.033,178.617 742.793,179.021 742.312,179.748 C741.832,180.475 741.299,181.315 740.713,182.271 C740.127,183.226 739.593,184.418 739.113,185.848 C738.632,187.277 738.392,188.643 738.392,189.943 C738.392,190.447 738.445,191.027 738.55,191.684 C738.632,192.187 738.632,192.475 738.55,192.545 C738.492,192.604 738.392,192.633 738.252,192.633 C738.193,192.633 737.921,192.557 737.434,192.404 C736.948,192.252 736.482,192.176 736.037,192.176 C735.638,192.176 735.178,192.252 734.657,192.404 C734.135,192.557 733.845,192.633 733.787,192.633 C733.658,192.633 733.552,192.58 733.47,192.475 C733.388,192.369 733.377,192.258 733.435,192.141 C734.127,190.488 734.967,188.88 735.958,187.315 C736.948,185.751 738.187,183.949 739.675,181.91 C739.113,182.215 738.545,182.367 737.97,182.367 C737.361,182.367 736.746,182.095 736.125,181.55 C735.504,181.005 734.994,180.732 734.595,180.732 C734.302,180.732 734.048,180.899 733.831,181.233 C733.614,181.567 733.506,182.068 733.506,182.736 L733.506,184.898 C733.506,185.191 733.371,185.338 733.101,185.338 C732.808,185.338 732.662,185.191 732.662,184.898 L732.662,178.57 C732.662,178.277 732.808,178.131 733.101,178.131 C733.371,178.131 733.506,178.277 733.506,178.57 L733.506,178.975 C733.506,179.068 733.529,179.15 733.576,179.221 C733.716,179.361 733.804,179.432 733.84,179.432"/>
<path class="FiguredBass" d="M738.197,209.113 C738.068,209.254 737.898,209.324 737.687,209.324 C737.476,209.324 737.303,209.251 737.169,209.104 C737.034,208.958 736.966,208.791 736.966,208.604 L736.966,206.09 L734.453,206.09 C734.242,206.09 734.069,206.017 733.934,205.87 C733.799,205.724 733.732,205.557 733.732,205.369 C733.732,205.182 733.799,205.015 733.934,204.868 C734.069,204.722 734.242,204.648 734.453,204.648 L736.966,204.648 L736.966,202.135 C736.966,201.947 737.034,201.78 737.169,201.634 C737.303,201.487 737.476,201.414 737.687,201.414 C737.898,201.414 738.071,201.487 738.206,201.634 C738.34,201.78 738.408,201.947 738.408,202.135 L738.408,204.648 L740.922,204.648 C741.132,204.648 741.305,204.722 741.44,204.868 C741.575,205.015 741.642,205.182 741.642,205.369 C741.642,205.557 741.575,205.724 741.44,205.87 C741.305,206.017 741.132,206.09 740.922,206.09 L738.408,206.09 L738.408,208.604 C738.408,208.791 738.338,208.961 738.197,209.113"/>
<path class="StaffText" d="M107.977,232.497 C105.93,232.497 104.182,233.141 102.779,234.429 C101.008,236.062 99.9732,238.546 99.9732,241.168 C99.9732,243.744 101.031,246.251 102.779,247.861 C104.159,249.126 105.907,249.793 107.885,249.793 C112.393,249.793 115.797,246.067 115.797,241.145 C115.797,236.269 112.393,232.497 107.977,232.497 M107.954,233.578 C109.495,233.578 110.783,234.291 111.611,235.556 C112.462,236.913 112.761,238.316 112.761,241.145 C112.761,243.951 112.462,245.354 111.611,246.734 C110.783,248.022 109.518,248.712 107.885,248.712 C106.252,248.712 104.987,248.045 104.159,246.734 C103.285,245.354 103.009,243.951 103.009,241.099 C103.009,238.316 103.308,236.936 104.159,235.556 C105.01,234.222 106.229,233.578 107.954,233.578 M125.73,246.067 C124.994,247.723 124.212,248.39 123.016,248.39 C121.176,248.39 120.026,246.711 120.026,244.02 C120.026,241.214 121.153,239.374 122.855,239.374 C123.545,239.374 124.143,239.696 124.143,240.064 C124.143,240.133 124.12,240.202 124.005,240.34 C123.637,240.777 123.545,241.007 123.545,241.398 C123.545,242.157 124.12,242.686 124.925,242.686 C125.753,242.686 126.328,242.042 126.328,241.122 C126.328,239.558 124.787,238.385 122.74,238.385 C119.75,238.385 117.611,240.823 117.611,244.273 C117.611,247.539 119.566,249.793 122.418,249.793 C124.465,249.793 125.638,248.85 126.627,246.412 L125.73,246.067 M131.541,238.73 L131.541,234.176 L130.598,234.176 C130.368,237.166 129.356,238.684 127.493,238.822 L127.493,239.719 L129.379,239.719 L129.379,245.584 C129.379,247.194 129.425,247.769 129.655,248.298 C130.023,249.264 130.943,249.793 132.277,249.793 C134.347,249.793 135.681,248.229 135.681,245.791 C135.681,245.653 135.681,245.492 135.658,245.262 L134.692,245.262 C134.623,247.332 134.025,248.39 132.898,248.39 C132.369,248.39 131.909,248.114 131.748,247.723 C131.61,247.401 131.541,246.826 131.541,245.998 L131.541,239.719 L134.922,239.719 L134.922,238.73 L131.541,238.73 M146.459,242.042 C146.459,240.593 146.206,239.857 145.539,239.305 C144.78,238.684 143.653,238.385 142.181,238.385 C139.582,238.385 137.696,239.604 137.696,241.283 C137.696,242.134 138.225,242.686 139.03,242.686 C139.766,242.686 140.272,242.203 140.272,241.513 C140.272,241.214 140.157,240.892 139.927,240.57 C139.789,240.409 139.766,240.363 139.766,240.248 C139.766,239.788 140.686,239.374 141.79,239.374 C142.526,239.374 143.331,239.604 143.699,239.949 C144.136,240.317 144.297,240.869 144.297,241.904 L144.297,242.801 C141.905,243.215 141.146,243.399 140.019,243.836 C138.018,244.572 137.075,245.63 137.075,247.102 C137.075,248.758 138.363,249.793 140.41,249.793 C141.997,249.793 143.423,249.149 144.412,247.976 C144.78,249.149 145.355,249.609 146.436,249.609 C147.471,249.609 148.552,248.942 148.552,248.275 C148.552,248.114 148.46,247.999 148.322,247.999 C148.23,247.999 148.138,248.022 147.977,248.091 C147.655,248.229 147.517,248.252 147.333,248.252 C146.689,248.252 146.459,247.838 146.459,246.665 L146.459,242.042 M144.297,244.848 C144.297,246.228 144.228,246.55 143.837,247.148 C143.262,247.999 142.227,248.574 141.215,248.574 C140.157,248.574 139.398,247.815 139.398,246.78 C139.398,245.814 139.881,245.124 140.893,244.641 C141.606,244.319 142.503,244.089 144.297,243.79 L144.297,244.848 M154.911,246.665 L152.289,240.593 C152.22,240.409 152.174,240.225 152.174,240.087 C152.174,239.696 152.473,239.558 153.416,239.558 L153.738,239.558 L153.738,238.73 L148.31,238.73 L148.31,239.558 L148.494,239.558 C149.368,239.558 149.69,239.788 150.012,240.547 L153.968,249.793 L154.773,249.793 L158.039,241.72 C158.683,240.156 159.235,239.627 160.178,239.558 L160.27,239.558 L160.27,238.73 L155.67,238.73 L155.67,239.558 L155.992,239.558 C156.797,239.558 157.234,239.834 157.234,240.363 C157.234,240.639 157.165,240.984 157.027,241.329 L154.911,246.665 M170.618,244.273 C170.641,240.823 168.686,238.385 165.88,238.385 C162.936,238.385 160.728,240.938 160.728,244.388 C160.728,247.631 162.821,249.793 165.926,249.793 C168.134,249.793 169.675,248.712 170.618,246.527 L169.813,246.09 C168.87,247.861 167.904,248.551 166.363,248.551 C165.19,248.551 164.339,248.068 163.741,247.033 C163.327,246.343 163.143,245.538 163.166,244.273 L170.618,244.273 M163.189,243.284 C163.189,242.571 163.281,242.065 163.511,241.421 C163.994,240.041 164.73,239.374 165.857,239.374 C167.237,239.374 168.157,240.593 168.157,242.456 C168.157,243.1 167.95,243.284 167.214,243.284 L163.189,243.284 "/>
<path class="StaffText" d="M115.107,91.9982 C114.992,93.4702 114.762,94.0222 114.187,94.0222 C113.52,94.0222 112.968,93.0562 112.186,90.5492 C114.578,88.5712 115.82,85.9952 115.82,83.0512 C115.82,78.3132 112.301,74.5872 107.862,74.5872 C105.976,74.5872 104.366,75.1852 102.963,76.4502 C101.077,78.1292 99.9732,80.6362 99.9732,83.2582 C99.9732,88.0882 103.515,91.8832 108.023,91.8832 C108.805,91.8832 109.311,91.8142 110.07,91.5382 C110.162,94.2982 111.312,95.8852 113.198,95.8852 C115.038,95.8852 116.165,94.4132 116.142,91.9982 L115.107,91.9982 M111.588,88.8012 C110.99,86.6392 109.587,85.4432 107.655,85.4432 C105.723,85.4432 104.343,86.7312 104.343,88.5712 C104.343,88.6402 104.343,88.8012 104.366,88.9852 C103.446,87.7662 103.009,85.9262 103.009,83.2582 C103.009,81.0042 103.4,79.0952 104.182,77.6922 C104.895,76.4042 106.229,75.6682 107.885,75.6682 C109.633,75.6682 111.128,76.5192 111.841,77.9452 C112.508,79.2332 112.784,80.8202 112.784,83.1892 C112.784,85.8802 112.462,87.3752 111.588,88.8012 M109.978,90.2962 C109.288,90.6642 108.713,90.8022 107.816,90.8022 C106.298,90.8022 105.401,90.0662 105.401,88.8012 C105.401,87.4442 106.275,86.5242 107.54,86.5242 C109.173,86.5242 109.978,87.7892 109.978,90.2962 M126.414,91.6992 L130.6,91.5382 L130.6,90.5492 L130.025,90.5492 C128.691,90.5032 128.576,90.3652 128.576,88.8702 L128.576,80.8202 L124.252,81.0732 L124.252,82.0622 L125.425,82.0622 C126.299,82.0852 126.414,82.2232 126.414,83.2122 L126.414,86.0412 C126.414,87.3522 126.276,88.1342 125.931,88.8702 C125.448,89.9052 124.528,90.4802 123.401,90.4802 C122.688,90.4802 122.09,90.2272 121.791,89.7672 C121.492,89.3302 121.446,89.1002 121.446,87.8352 L121.446,80.8202 L117.421,81.0732 L117.421,82.0622 L118.295,82.0622 C119.169,82.0852 119.284,82.2232 119.284,83.2122 L119.284,88.1802 C119.284,89.3532 119.376,89.8822 119.721,90.4112 C120.342,91.3542 121.446,91.8832 122.826,91.8832 C124.344,91.8832 125.402,91.2622 126.414,89.7902 L126.414,91.6992 M141.381,84.1322 C141.381,82.6832 141.128,81.9472 140.461,81.3952 C139.702,80.7742 138.575,80.4752 137.103,80.4752 C134.504,80.4752 132.618,81.6942 132.618,83.3732 C132.618,84.2242 133.147,84.7762 133.952,84.7762 C134.688,84.7762 135.194,84.2932 135.194,83.6032 C135.194,83.3042 135.079,82.9822 134.849,82.6602 C134.711,82.4992 134.688,82.4532 134.688,82.3382 C134.688,81.8782 135.608,81.4642 136.712,81.4642 C137.448,81.4642 138.253,81.6942 138.621,82.0392 C139.058,82.4072 139.219,82.9592 139.219,83.9942 L139.219,84.8912 C136.827,85.3052 136.068,85.4892 134.941,85.9262 C132.94,86.6622 131.997,87.7202 131.997,89.1922 C131.997,90.8482 133.285,91.8832 135.332,91.8832 C136.919,91.8832 138.345,91.2392 139.334,90.0662 C139.702,91.2392 140.277,91.6992 141.358,91.6992 C142.393,91.6992 143.474,91.0322 143.474,90.3652 C143.474,90.2042 143.382,90.0892 143.244,90.0892 C143.152,90.0892 143.06,90.1122 142.899,90.1812 C142.577,90.3192 142.439,90.3422 142.255,90.3422 C141.611,90.3422 141.381,89.9282 141.381,88.7552 L141.381,84.1322 M139.219,86.9382 C139.219,88.3182 139.15,88.6402 138.759,89.2382 C138.184,90.0892 137.149,90.6642 136.137,90.6642 C135.079,90.6642 134.32,89.9052 134.32,88.8702 C134.32,87.9042 134.803,87.2142 135.815,86.7312 C136.528,86.4092 137.425,86.1792 139.219,85.8802 L139.219,86.9382 M148.32,80.8202 L144.249,81.0732 L144.249,82.0622 L145.192,82.0622 C146.066,82.0852 146.181,82.2232 146.181,83.2122 L146.181,88.7092 L146.181,89.7902 C146.158,90.1352 146.135,90.2732 146.043,90.3882 C145.882,90.5952 145.422,90.6872 144.433,90.7102 L144.341,90.7102 L144.341,91.5382 L150.482,91.5382 L150.482,90.7102 L150.068,90.7102 C148.527,90.6642 148.32,90.5492 148.32,89.7212 L148.32,88.7092 L148.32,88.4792 C148.343,84.6152 149.723,81.6712 151.517,81.5792 C151.195,81.9472 151.103,82.1772 151.103,82.6142 C151.103,83.3502 151.632,83.8792 152.368,83.8792 C153.219,83.8792 153.771,83.2582 153.771,82.3382 C153.771,81.2112 152.989,80.4752 151.77,80.4752 C150.321,80.4752 149.079,81.6252 148.32,83.6722 L148.32,80.8202 M158.869,80.8202 L158.869,76.2662 L157.926,76.2662 C157.696,79.2562 156.684,80.7742 154.821,80.9122 L154.821,81.8092 L156.707,81.8092 L156.707,87.6742 C156.707,89.2842 156.753,89.8592 156.983,90.3882 C157.351,91.3542 158.271,91.8832 159.605,91.8832 C161.675,91.8832 163.009,90.3192 163.009,87.8812 C163.009,87.7432 163.009,87.5822 162.986,87.3522 L162.02,87.3522 C161.951,89.4222 161.353,90.4802 160.226,90.4802 C159.697,90.4802 159.237,90.2042 159.076,89.8132 C158.938,89.4912 158.869,88.9162 158.869,88.0882 L158.869,81.8092 L162.25,81.8092 L162.25,80.8202 L158.869,80.8202 M174.196,86.3632 C174.219,82.9132 172.264,80.4752 169.458,80.4752 C166.514,80.4752 164.306,83.0282 164.306,86.4782 C164.306,89.7212 166.399,91.8832 169.504,91.8832 C171.712,91.8832 173.253,90.8022 174.196,88.6172 L173.391,88.1802 C172.448,89.9512 171.482,90.6412 169.941,90.6412 C168.768,90.6412 167.917,90.1582 167.319,89.1232 C166.905,88.4332 166.721,87.6282 166.744,86.3632 L174.196,86.3632 M166.767,85.3742 C166.767,84.6612 166.859,84.1552 167.089,83.5112 C167.572,82.1312 168.308,81.4642 169.435,81.4642 C170.815,81.4642 171.735,82.6832 171.735,84.5462 C171.735,85.1902 171.528,85.3742 170.792,85.3742 L166.767,85.3742 M192.086,86.3632 C192.109,82.9132 190.154,80.4752 187.348,80.4752 C184.404,80.4752 182.196,83.0282 182.196,86.4782 C182.196,89.7212 184.289,91.8832 187.394,91.8832 C189.602,91.8832 191.143,90.8022 192.086,88.6172 L191.281,88.1802 C190.338,89.9512 189.372,90.6412 187.831,90.6412 C186.658,90.6412 185.807,90.1582 185.209,89.1232 C184.795,88.4332 184.611,87.6282 184.634,86.3632 L192.086,86.3632 M184.657,85.3742 C184.657,84.6612 184.749,84.1552 184.979,83.5112 C185.462,82.1312 186.198,81.4642 187.325,81.4642 C188.705,81.4642 189.625,82.6832 189.625,84.5462 C189.625,85.1902 189.418,85.3742 188.682,85.3742 L184.657,85.3742 M196.9,80.8202 L196.9,76.2662 L195.957,76.2662 C195.727,79.2562 194.715,80.7742 192.852,80.9122 L192.852,81.8092 L194.738,81.8092 L194.738,87.6742 C194.738,89.2842 194.784,89.8592 195.014,90.3882 C195.382,91.3542 196.302,91.8832 197.636,91.8832 C199.706,91.8832 201.04,90.3192 201.04,87.8812 C201.04,87.7432 201.04,87.5822 201.017,87.3522 L200.051,87.3522 C199.982,89.4222 199.384,90.4802 198.257,90.4802 C197.728,90.4802 197.268,90.2042 197.107,89.8132 C196.969,89.4912 196.9,88.9162 196.9,88.0882 L196.9,81.8092 L200.281,81.8092 L200.281,80.8202 L196.9,80.8202 M220.324,74.7942 L219.473,74.7942 L218.553,76.1742 C217.449,75.1392 216,74.5872 214.367,74.5872 C211.331,74.5872 209.33,76.4962 209.33,79.3942 C209.33,81.9012 210.572,83.1432 213.953,84.0172 L216.138,84.5692 C217.84,85.0062 218.001,85.0522 218.484,85.4202 C219.174,85.9492 219.542,86.7082 219.542,87.6052 C219.542,88.5252 219.197,89.2842 218.507,89.9282 C217.748,90.5722 216.989,90.8252 215.724,90.8252 C214.022,90.8252 212.803,90.2962 211.722,89.1002 C210.756,88.0422 210.273,86.9382 209.928,85.1672 L208.939,85.1672 L209.031,91.7222 L209.928,91.7222 L210.963,90.1582 C212.504,91.4232 213.769,91.8832 215.793,91.8832 C219.174,91.8832 221.336,89.9052 221.336,86.8232 C221.336,85.3742 220.876,84.1782 219.956,83.3042 C219.335,82.7062 218.438,82.3152 216.598,81.8552 L214.137,81.2342 C212.09,80.7052 211.124,79.8082 211.124,78.4052 C211.124,76.7952 212.435,75.6912 214.39,75.6912 C216,75.6912 217.311,76.3812 218.231,77.6922 C218.898,78.6352 219.335,79.6012 219.611,80.7742 L220.6,80.7742 L220.324,74.7942 M226.786,80.8202 L222.462,81.0732 L222.462,82.0622 L223.635,82.0622 C224.509,82.0852 224.624,82.2232 224.624,83.2122 L224.624,88.7092 L224.624,89.7902 C224.601,90.1352 224.578,90.2732 224.486,90.3882 C224.325,90.5952 223.888,90.6872 222.899,90.7102 L222.738,90.7102 L222.738,91.5382 L228.695,91.5382 L228.695,90.7102 L228.534,90.7102 C226.993,90.6642 226.786,90.5492 226.786,89.7212 L226.786,88.7092 L226.786,80.8202 M225.705,75.0932 C224.969,75.0932 224.371,75.6912 224.371,76.4272 C224.371,77.1632 224.969,77.7612 225.682,77.7612 C226.441,77.7612 227.039,77.1632 227.039,76.4272 C227.039,75.6912 226.441,75.0932 225.705,75.0932 M236.389,85.6732 L239.011,82.6142 C239.586,81.9472 240.115,81.6482 240.736,81.6482 L240.943,81.6482 L240.943,80.8202 L236.182,80.8202 L236.182,81.6482 L236.619,81.6482 C237.309,81.6482 237.654,81.8092 237.654,82.1542 C237.654,82.3842 237.493,82.7062 237.194,83.0742 L235.745,84.8222 L233.974,82.5682 C233.836,82.3842 233.744,82.2002 233.744,82.0622 C233.744,81.7632 234.043,81.6482 234.756,81.6482 L235.078,81.6482 L235.078,80.8202 L229.627,80.8202 L229.627,81.6482 C230.478,81.7172 230.8,81.9242 231.536,82.8902 L234.342,86.4092 L231.697,89.4912 C230.915,90.3652 230.248,90.7332 229.627,90.7102 L229.489,90.7102 L229.489,91.5382 L234.342,91.5382 L234.342,90.7102 L233.997,90.7102 C233.468,90.7102 233.353,90.6872 233.192,90.6182 C233.008,90.5032 232.87,90.2962 232.87,90.0892 C232.87,89.9282 232.939,89.7212 233.054,89.5832 L234.986,87.2832 L236.734,89.6062 C236.895,89.8362 237.033,90.1352 237.033,90.2962 C237.033,90.5952 236.688,90.7102 235.814,90.7102 L235.653,90.7102 L235.653,91.5382 L241.449,91.5382 L241.449,90.7102 L241.288,90.7102 C240.483,90.7102 239.954,90.4112 239.287,89.5832 L236.389,85.6732 M246.088,80.8202 L246.088,76.2662 L245.145,76.2662 C244.915,79.2562 243.903,80.7742 242.04,80.9122 L242.04,81.8092 L243.926,81.8092 L243.926,87.6742 C243.926,89.2842 243.972,89.8592 244.202,90.3882 C244.57,91.3542 245.49,91.8832 246.824,91.8832 C248.894,91.8832 250.228,90.3192 250.228,87.8812 C250.228,87.7432 250.228,87.5822 250.205,87.3522 L249.239,87.3522 C249.17,89.4222 248.572,90.4802 247.445,90.4802 C246.916,90.4802 246.456,90.2042 246.295,89.8132 C246.157,89.4912 246.088,88.9162 246.088,88.0882 L246.088,81.8092 L249.469,81.8092 L249.469,80.8202 L246.088,80.8202 M261.414,86.3632 C261.437,82.9132 259.482,80.4752 256.676,80.4752 C253.732,80.4752 251.524,83.0282 251.524,86.4782 C251.524,89.7212 253.617,91.8832 256.722,91.8832 C258.93,91.8832 260.471,90.8022 261.414,88.6172 L260.609,88.1802 C259.666,89.9512 258.7,90.6412 257.159,90.6412 C255.986,90.6412 255.135,90.1582 254.537,89.1232 C254.123,88.4332 253.939,87.6282 253.962,86.3632 L261.414,86.3632 M253.985,85.3742 C253.985,84.6612 254.077,84.1552 254.307,83.5112 C254.79,82.1312 255.526,81.4642 256.653,81.4642 C258.033,81.4642 258.953,82.6832 258.953,84.5462 C258.953,85.1902 258.746,85.3742 258.01,85.3742 L253.985,85.3742 "/>
</svg>
