<?xml version="1.0" encoding="UTF-8" standalone="no"?>
<svg width="4209.44px" height="2976.38px" viewBox="0 0 4209.44 2976.38"
 xmlns="http://www.w3.org/2000/svg" xmlns:xlink="http://www.w3.org/1999/xlink" version="1.2" baseProfile="tiny">
<title>La Mineur (18)</title>
<desc>Generated by MuseScore 3.6.2</desc>
<polyline class="StaffLines" fill="none" stroke="#000000" stroke-width="6.55" stroke-linejoin="bevel" points="153.819,558.425 4138.58,558.425"/>
<polyline class="StaffLines" fill="none" stroke="#000000" stroke-width="6.55" stroke-linejoin="bevel" points="153.819,647.717 4138.58,647.717"/>
<polyline class="StaffLines" fill="none" stroke="#000000" stroke-width="6.55" stroke-linejoin="bevel" points="153.819,737.008 4138.58,737.008"/>
<polyline class="StaffLines" fill="none" stroke="#000000" stroke-width="6.55" stroke-linejoin="bevel" points="153.819,826.299 4138.58,826.299"/>
<polyline class="StaffLines" fill="none" stroke="#000000" stroke-width="6.55" stroke-linejoin="bevel" points="153.819,915.591 4138.58,915.591"/>
<polyline class="StaffLines" fill="none" stroke="#000000" stroke-width="6.55" stroke-linejoin="bevel" points="153.819,1004.88 4138.58,1004.88"/>
<polyline class="StaffLines" fill="none" stroke="#000000" stroke-width="6.55" stroke-linejoin="bevel" points="153.819,1391.81 4138.58,1391.81"/>
<polyline class="StaffLines" fill="none" stroke="#000000" stroke-width="6.55" stroke-linejoin="bevel" points="153.819,1451.34 4138.58,1451.34"/>
<polyline class="StaffLines" fill="none" stroke="#000000" stroke-width="6.55" stroke-linejoin="bevel" points="153.819,1510.87 4138.58,1510.87"/>
<polyline class="StaffLines" fill="none" stroke="#000000" stroke-width="6.55" stroke-linejoin="bevel" points="153.819,1570.39 4138.58,1570.39"/>
<polyline class="StaffLines" fill="none" stroke="#000000" stroke-width="6.55" stroke-linejoin="bevel" points="153.819,1629.92 4138.58,1629.92"/>
<polyline class="StaffLines" fill="none" stroke="#000000" stroke-width="6.55" stroke-linejoin="bevel" points="153.819,2158.12 4138.58,2158.12"/>
<polyline class="StaffLines" fill="none" stroke="#000000" stroke-width="6.55" stroke-linejoin="bevel" points="153.819,2217.65 4138.58,2217.65"/>
<polyline class="StaffLines" fill="none" stroke="#000000" stroke-width="6.55" stroke-linejoin="bevel" points="153.819,2277.18 4138.58,2277.18"/>
<polyline class="StaffLines" fill="none" stroke="#000000" stroke-width="6.55" stroke-linejoin="bevel" points="153.819,2336.7 4138.58,2336.7"/>
<polyline class="StaffLines" fill="none" stroke="#000000" stroke-width="6.55" stroke-linejoin="bevel" points="153.819,2396.23 4138.58,2396.23"/>
<polyline class="BarLine" fill="none" stroke="#000000" stroke-width="10.71" stroke-linejoin="bevel" points="159.176,2154.85 159.176,2399.51"/>
<polyline class="BarLine" fill="none" stroke="#000000" stroke-width="10.71" stroke-linejoin="bevel" points="1298.79,2154.85 1298.79,2399.51"/>
<polyline class="BarLine" fill="none" stroke="#000000" stroke-width="10.71" stroke-linejoin="bevel" points="2249.24,2154.85 2249.24,2399.51"/>
<polyline class="BarLine" fill="none" stroke="#000000" stroke-width="10.71" stroke-linejoin="bevel" points="3212.36,2154.85 3212.36,2399.51"/>
<polyline class="BarLine" fill="none" stroke="#000000" stroke-width="10.71" stroke-linejoin="bevel" points="4080.54,2154.85 4080.54,2399.51"/>
<polyline class="BarLine" fill="none" stroke="#000000" stroke-width="32.74" stroke-linejoin="bevel" points="4122.21,2154.85 4122.21,2399.51"/>
<polyline class="BarLine" fill="none" stroke="#000000" stroke-width="10.71" stroke-linejoin="bevel" points="159.176,1388.54 159.176,2158.12"/>
<polyline class="BarLine" fill="none" stroke="#000000" stroke-width="10.71" stroke-linejoin="bevel" points="1298.79,1388.54 1298.79,1633.2"/>
<polyline class="BarLine" fill="none" stroke="#000000" stroke-width="10.71" stroke-linejoin="bevel" points="2249.24,1388.54 2249.24,1633.2"/>
<polyline class="BarLine" fill="none" stroke="#000000" stroke-width="10.71" stroke-linejoin="bevel" points="3212.36,1388.54 3212.36,1633.2"/>
<polyline class="BarLine" fill="none" stroke="#000000" stroke-width="10.71" stroke-linejoin="bevel" points="4080.54,1388.54 4080.54,1633.2"/>
<polyline class="BarLine" fill="none" stroke="#000000" stroke-width="32.74" stroke-linejoin="bevel" points="4122.21,1388.54 4122.21,1633.2"/>
<polyline class="BarLine" fill="none" stroke="#000000" stroke-width="10.71" stroke-linejoin="bevel" points="159.176,555.151 159.176,1391.81"/>
<polyline class="BarLine" fill="none" stroke="#000000" stroke-width="10.71" stroke-linejoin="bevel" points="1298.79,555.151 1298.79,1008.16"/>
<polyline class="BarLine" fill="none" stroke="#000000" stroke-width="10.71" stroke-linejoin="bevel" points="2249.24,555.151 2249.24,1008.16"/>
<polyline class="BarLine" fill="none" stroke="#000000" stroke-width="10.71" stroke-linejoin="bevel" points="3212.36,555.151 3212.36,1008.16"/>
<polyline class="BarLine" fill="none" stroke="#000000" stroke-width="10.71" stroke-linejoin="bevel" points="4080.54,555.151 4080.54,1008.16"/>
<polyline class="BarLine" fill="none" stroke="#000000" stroke-width="32.74" stroke-linejoin="bevel" points="4122.21,555.151 4122.21,1008.16"/>
<path class="Note" transform="matrix(2.3811,0,0,2.3811,519.076,2128.36)" d="M18.7,-13.6 C4.9,-13.6 0,-6.6 0,-0.1 C0,6.4 4.9,13.4 18.7,13.4 C32.5,13.4 37.3,6.4 37.3,-0.1 C37.3,-6.6 32.5,-13.6 18.7,-13.6 M10.4,-4.5 C10.3,-4.9 10.3,-5.3 10.3,-5.7 C10.3,-6.5 10.5,-7.3 10.9,-8 C11.6,-9 12.8,-9.7 14.3,-10 C15.6,-10.3 16.3,-10.5 18.9,-10.5 L19,-10.5 C23,-10.5 24.3,-6.8 25.4,-3 L25.7,-2 C26.5,0.6 26.9,2.8 26.9,4.5 C26.9,5.7 26.7,6.8 26.3,7.6 C25.7,8.7 24.7,9.4 23,9.8 C22.1,10 20.6,10.1 20.6,10.1 C20.1,10.1 19.7,10.2 19.3,10.2 C16.1,10.2 14.1,9 12.7,4.7 C11.5,1 11.3,-0.1 10.4,-4.5"/>
<path class="Note" transform="matrix(2.3811,0,0,2.3811,1469.52,2277.18)" d="M18.7,-13.6 C4.9,-13.6 0,-6.6 0,-0.1 C0,6.4 4.9,13.4 18.7,13.4 C32.5,13.4 37.3,6.4 37.3,-0.1 C37.3,-6.6 32.5,-13.6 18.7,-13.6 M10.4,-4.5 C10.3,-4.9 10.3,-5.3 10.3,-5.7 C10.3,-6.5 10.5,-7.3 10.9,-8 C11.6,-9 12.8,-9.7 14.3,-10 C15.6,-10.3 16.3,-10.5 18.9,-10.5 L19,-10.5 C23,-10.5 24.3,-6.8 25.4,-3 L25.7,-2 C26.5,0.6 26.9,2.8 26.9,4.5 C26.9,5.7 26.7,6.8 26.3,7.6 C25.7,8.7 24.7,9.4 23,9.8 C22.1,10 20.6,10.1 20.6,10.1 C20.1,10.1 19.7,10.2 19.3,10.2 C16.1,10.2 14.1,9 12.7,4.7 C11.5,1 11.3,-0.1 10.4,-4.5"/>
<path class="Note" transform="matrix(2.3811,0,0,2.3811,2419.96,2217.65)" d="M18.7,-13.6 C4.9,-13.6 0,-6.6 0,-0.1 C0,6.4 4.9,13.4 18.7,13.4 C32.5,13.4 37.3,6.4 37.3,-0.1 C37.3,-6.6 32.5,-13.6 18.7,-13.6 M10.4,-4.5 C10.3,-4.9 10.3,-5.3 10.3,-5.7 C10.3,-6.5 10.5,-7.3 10.9,-8 C11.6,-9 12.8,-9.7 14.3,-10 C15.6,-10.3 16.3,-10.5 18.9,-10.5 L19,-10.5 C23,-10.5 24.3,-6.8 25.4,-3 L25.7,-2 C26.5,0.6 26.9,2.8 26.9,4.5 C26.9,5.7 26.7,6.8 26.3,7.6 C25.7,8.7 24.7,9.4 23,9.8 C22.1,10 20.6,10.1 20.6,10.1 C20.1,10.1 19.7,10.2 19.3,10.2 C16.1,10.2 14.1,9 12.7,4.7 C11.5,1 11.3,-0.1 10.4,-4.5"/>
<path class="Note" transform="matrix(2.3811,0,0,2.3811,3300.82,2158.12)" d="M18.7,-13.6 C4.9,-13.6 0,-6.6 0,-0.1 C0,6.4 4.9,13.4 18.7,13.4 C32.5,13.4 37.3,6.4 37.3,-0.1 C37.3,-6.6 32.5,-13.6 18.7,-13.6 M10.4,-4.5 C10.3,-4.9 10.3,-5.3 10.3,-5.7 C10.3,-6.5 10.5,-7.3 10.9,-8 C11.6,-9 12.8,-9.7 14.3,-10 C15.6,-10.3 16.3,-10.5 18.9,-10.5 L19,-10.5 C23,-10.5 24.3,-6.8 25.4,-3 L25.7,-2 C26.5,0.6 26.9,2.8 26.9,4.5 C26.9,5.7 26.7,6.8 26.3,7.6 C25.7,8.7 24.7,9.4 23,9.8 C22.1,10 20.6,10.1 20.6,10.1 C20.1,10.1 19.7,10.2 19.3,10.2 C16.1,10.2 14.1,9 12.7,4.7 C11.5,1 11.3,-0.1 10.4,-4.5"/>
<path class="Note" transform="matrix(2.3811,0,0,2.3811,519.076,1540.63)" d="M18.7,-13.6 C4.9,-13.6 0,-6.6 0,-0.1 C0,6.4 4.9,13.4 18.7,13.4 C32.5,13.4 37.3,6.4 37.3,-0.1 C37.3,-6.6 32.5,-13.6 18.7,-13.6 M10.4,-4.5 C10.3,-4.9 10.3,-5.3 10.3,-5.7 C10.3,-6.5 10.5,-7.3 10.9,-8 C11.6,-9 12.8,-9.7 14.3,-10 C15.6,-10.3 16.3,-10.5 18.9,-10.5 L19,-10.5 C23,-10.5 24.3,-6.8 25.4,-3 L25.7,-2 C26.5,0.6 26.9,2.8 26.9,4.5 C26.9,5.7 26.7,6.8 26.3,7.6 C25.7,8.7 24.7,9.4 23,9.8 C22.1,10 20.6,10.1 20.6,10.1 C20.1,10.1 19.7,10.2 19.3,10.2 C16.1,10.2 14.1,9 12.7,4.7 C11.5,1 11.3,-0.1 10.4,-4.5"/>
<path class="Note" transform="matrix(2.3811,0,0,2.3811,519.076,1451.34)" d="M18.7,-13.6 C4.9,-13.6 0,-6.6 0,-0.1 C0,6.4 4.9,13.4 18.7,13.4 C32.5,13.4 37.3,6.4 37.3,-0.1 C37.3,-6.6 32.5,-13.6 18.7,-13.6 M10.4,-4.5 C10.3,-4.9 10.3,-5.3 10.3,-5.7 C10.3,-6.5 10.5,-7.3 10.9,-8 C11.6,-9 12.8,-9.7 14.3,-10 C15.6,-10.3 16.3,-10.5 18.9,-10.5 L19,-10.5 C23,-10.5 24.3,-6.8 25.4,-3 L25.7,-2 C26.5,0.6 26.9,2.8 26.9,4.5 C26.9,5.7 26.7,6.8 26.3,7.6 C25.7,8.7 24.7,9.4 23,9.8 C22.1,10 20.6,10.1 20.6,10.1 C20.1,10.1 19.7,10.2 19.3,10.2 C16.1,10.2 14.1,9 12.7,4.7 C11.5,1 11.3,-0.1 10.4,-4.5"/>
<path class="Note" transform="matrix(2.3811,0,0,2.3811,519.076,1391.81)" d="M18.7,-13.6 C4.9,-13.6 0,-6.6 0,-0.1 C0,6.4 4.9,13.4 18.7,13.4 C32.5,13.4 37.3,6.4 37.3,-0.1 C37.3,-6.6 32.5,-13.6 18.7,-13.6 M10.4,-4.5 C10.3,-4.9 10.3,-5.3 10.3,-5.7 C10.3,-6.5 10.5,-7.3 10.9,-8 C11.6,-9 12.8,-9.7 14.3,-10 C15.6,-10.3 16.3,-10.5 18.9,-10.5 L19,-10.5 C23,-10.5 24.3,-6.8 25.4,-3 L25.7,-2 C26.5,0.6 26.9,2.8 26.9,4.5 C26.9,5.7 26.7,6.8 26.3,7.6 C25.7,8.7 24.7,9.4 23,9.8 C22.1,10 20.6,10.1 20.6,10.1 C20.1,10.1 19.7,10.2 19.3,10.2 C16.1,10.2 14.1,9 12.7,4.7 C11.5,1 11.3,-0.1 10.4,-4.5"/>
<path class="Note" transform="matrix(2.3811,0,0,2.3811,1387.26,1540.63)" d="M18.7,-13.6 C4.9,-13.6 0,-6.6 0,-0.1 C0,6.4 4.9,13.4 18.7,13.4 C32.5,13.4 37.3,6.4 37.3,-0.1 C37.3,-6.6 32.5,-13.6 18.7,-13.6 M10.4,-4.5 C10.3,-4.9 10.3,-5.3 10.3,-5.7 C10.3,-6.5 10.5,-7.3 10.9,-8 C11.6,-9 12.8,-9.7 14.3,-10 C15.6,-10.3 16.3,-10.5 18.9,-10.5 L19,-10.5 C23,-10.5 24.3,-6.8 25.4,-3 L25.7,-2 C26.5,0.6 26.9,2.8 26.9,4.5 C26.9,5.7 26.7,6.8 26.3,7.6 C25.7,8.7 24.7,9.4 23,9.8 C22.1,10 20.6,10.1 20.6,10.1 C20.1,10.1 19.7,10.2 19.3,10.2 C16.1,10.2 14.1,9 12.7,4.7 C11.5,1 11.3,-0.1 10.4,-4.5"/>
<path class="Note" transform="matrix(2.3811,0,0,2.3811,1469.52,1510.87)" d="M18.7,-13.6 C4.9,-13.6 0,-6.6 0,-0.1 C0,6.4 4.9,13.4 18.7,13.4 C32.5,13.4 37.3,6.4 37.3,-0.1 C37.3,-6.6 32.5,-13.6 18.7,-13.6 M10.4,-4.5 C10.3,-4.9 10.3,-5.3 10.3,-5.7 C10.3,-6.5 10.5,-7.3 10.9,-8 C11.6,-9 12.8,-9.7 14.3,-10 C15.6,-10.3 16.3,-10.5 18.9,-10.5 L19,-10.5 C23,-10.5 24.3,-6.8 25.4,-3 L25.7,-2 C26.5,0.6 26.9,2.8 26.9,4.5 C26.9,5.7 26.7,6.8 26.3,7.6 C25.7,8.7 24.7,9.4 23,9.8 C22.1,10 20.6,10.1 20.6,10.1 C20.1,10.1 19.7,10.2 19.3,10.2 C16.1,10.2 14.1,9 12.7,4.7 C11.5,1 11.3,-0.1 10.4,-4.5"/>
<path class="Note" transform="matrix(2.3811,0,0,2.3811,1469.52,1391.81)" d="M18.7,-13.6 C4.9,-13.6 0,-6.6 0,-0.1 C0,6.4 4.9,13.4 18.7,13.4 C32.5,13.4 37.3,6.4 37.3,-0.1 C37.3,-6.6 32.5,-13.6 18.7,-13.6 M10.4,-4.5 C10.3,-4.9 10.3,-5.3 10.3,-5.7 C10.3,-6.5 10.5,-7.3 10.9,-8 C11.6,-9 12.8,-9.7 14.3,-10 C15.6,-10.3 16.3,-10.5 18.9,-10.5 L19,-10.5 C23,-10.5 24.3,-6.8 25.4,-3 L25.7,-2 C26.5,0.6 26.9,2.8 26.9,4.5 C26.9,5.7 26.7,6.8 26.3,7.6 C25.7,8.7 24.7,9.4 23,9.8 C22.1,10 20.6,10.1 20.6,10.1 C20.1,10.1 19.7,10.2 19.3,10.2 C16.1,10.2 14.1,9 12.7,4.7 C11.5,1 11.3,-0.1 10.4,-4.5"/>
<path class="Note" transform="matrix(2.3811,0,0,2.3811,2337.7,1540.63)" d="M18.7,-13.6 C4.9,-13.6 0,-6.6 0,-0.1 C0,6.4 4.9,13.4 18.7,13.4 C32.5,13.4 37.3,6.4 37.3,-0.1 C37.3,-6.6 32.5,-13.6 18.7,-13.6 M10.4,-4.5 C10.3,-4.9 10.3,-5.3 10.3,-5.7 C10.3,-6.5 10.5,-7.3 10.9,-8 C11.6,-9 12.8,-9.7 14.3,-10 C15.6,-10.3 16.3,-10.5 18.9,-10.5 L19,-10.5 C23,-10.5 24.3,-6.8 25.4,-3 L25.7,-2 C26.5,0.6 26.9,2.8 26.9,4.5 C26.9,5.7 26.7,6.8 26.3,7.6 C25.7,8.7 24.7,9.4 23,9.8 C22.1,10 20.6,10.1 20.6,10.1 C20.1,10.1 19.7,10.2 19.3,10.2 C16.1,10.2 14.1,9 12.7,4.7 C11.5,1 11.3,-0.1 10.4,-4.5"/>
<path class="Note" transform="matrix(2.3811,0,0,2.3811,2419.96,1510.87)" d="M18.7,-13.6 C4.9,-13.6 0,-6.6 0,-0.1 C0,6.4 4.9,13.4 18.7,13.4 C32.5,13.4 37.3,6.4 37.3,-0.1 C37.3,-6.6 32.5,-13.6 18.7,-13.6 M10.4,-4.5 C10.3,-4.9 10.3,-5.3 10.3,-5.7 C10.3,-6.5 10.5,-7.3 10.9,-8 C11.6,-9 12.8,-9.7 14.3,-10 C15.6,-10.3 16.3,-10.5 18.9,-10.5 L19,-10.5 C23,-10.5 24.3,-6.8 25.4,-3 L25.7,-2 C26.5,0.6 26.9,2.8 26.9,4.5 C26.9,5.7 26.7,6.8 26.3,7.6 C25.7,8.7 24.7,9.4 23,9.8 C22.1,10 20.6,10.1 20.6,10.1 C20.1,10.1 19.7,10.2 19.3,10.2 C16.1,10.2 14.1,9 12.7,4.7 C11.5,1 11.3,-0.1 10.4,-4.5"/>
<path class="Note" transform="matrix(2.3811,0,0,2.3811,2419.96,1451.34)" d="M18.7,-13.6 C4.9,-13.6 0,-6.6 0,-0.1 C0,6.4 4.9,13.4 18.7,13.4 C32.5,13.4 37.3,6.4 37.3,-0.1 C37.3,-6.6 32.5,-13.6 18.7,-13.6 M10.4,-4.5 C10.3,-4.9 10.3,-5.3 10.3,-5.7 C10.3,-6.5 10.5,-7.3 10.9,-8 C11.6,-9 12.8,-9.7 14.3,-10 C15.6,-10.3 16.3,-10.5 18.9,-10.5 L19,-10.5 C23,-10.5 24.3,-6.8 25.4,-3 L25.7,-2 C26.5,0.6 26.9,2.8 26.9,4.5 C26.9,5.7 26.7,6.8 26.3,7.6 C25.7,8.7 24.7,9.4 23,9.8 C22.1,10 20.6,10.1 20.6,10.1 C20.1,10.1 19.7,10.2 19.3,10.2 C16.1,10.2 14.1,9 12.7,4.7 C11.5,1 11.3,-0.1 10.4,-4.5"/>
<path class="Note" transform="matrix(2.3811,0,0,2.3811,3300.82,1510.87)" d="M18.7,-13.6 C4.9,-13.6 0,-6.6 0,-0.1 C0,6.4 4.9,13.4 18.7,13.4 C32.5,13.4 37.3,6.4 37.3,-0.1 C37.3,-6.6 32.5,-13.6 18.7,-13.6 M10.4,-4.5 C10.3,-4.9 10.3,-5.3 10.3,-5.7 C10.3,-6.5 10.5,-7.3 10.9,-8 C11.6,-9 12.8,-9.7 14.3,-10 C15.6,-10.3 16.3,-10.5 18.9,-10.5 L19,-10.5 C23,-10.5 24.3,-6.8 25.4,-3 L25.7,-2 C26.5,0.6 26.9,2.8 26.9,4.5 C26.9,5.7 26.7,6.8 26.3,7.6 C25.7,8.7 24.7,9.4 23,9.8 C22.1,10 20.6,10.1 20.6,10.1 C20.1,10.1 19.7,10.2 19.3,10.2 C16.1,10.2 14.1,9 12.7,4.7 C11.5,1 11.3,-0.1 10.4,-4.5"/>
<path class="Note" transform="matrix(2.3811,0,0,2.3811,3300.82,1451.34)" d="M18.7,-13.6 C4.9,-13.6 0,-6.6 0,-0.1 C0,6.4 4.9,13.4 18.7,13.4 C32.5,13.4 37.3,6.4 37.3,-0.1 C37.3,-6.6 32.5,-13.6 18.7,-13.6 M10.4,-4.5 C10.3,-4.9 10.3,-5.3 10.3,-5.7 C10.3,-6.5 10.5,-7.3 10.9,-8 C11.6,-9 12.8,-9.7 14.3,-10 C15.6,-10.3 16.3,-10.5 18.9,-10.5 L19,-10.5 C23,-10.5 24.3,-6.8 25.4,-3 L25.7,-2 C26.5,0.6 26.9,2.8 26.9,4.5 C26.9,5.7 26.7,6.8 26.3,7.6 C25.7,8.7 24.7,9.4 23,9.8 C22.1,10 20.6,10.1 20.6,10.1 C20.1,10.1 19.7,10.2 19.3,10.2 C16.1,10.2 14.1,9 12.7,4.7 C11.5,1 11.3,-0.1 10.4,-4.5"/>
<path class="Note" transform="matrix(2.3811,0,0,2.3811,3300.82,1391.81)" d="M18.7,-13.6 C4.9,-13.6 0,-6.6 0,-0.1 C0,6.4 4.9,13.4 18.7,13.4 C32.5,13.4 37.3,6.4 37.3,-0.1 C37.3,-6.6 32.5,-13.6 18.7,-13.6 M10.4,-4.5 C10.3,-4.9 10.3,-5.3 10.3,-5.7 C10.3,-6.5 10.5,-7.3 10.9,-8 C11.6,-9 12.8,-9.7 14.3,-10 C15.6,-10.3 16.3,-10.5 18.9,-10.5 L19,-10.5 C23,-10.5 24.3,-6.8 25.4,-3 L25.7,-2 C26.5,0.6 26.9,2.8 26.9,4.5 C26.9,5.7 26.7,6.8 26.3,7.6 C25.7,8.7 24.7,9.4 23,9.8 C22.1,10 20.6,10.1 20.6,10.1 C20.1,10.1 19.7,10.2 19.3,10.2 C16.1,10.2 14.1,9 12.7,4.7 C11.5,1 11.3,-0.1 10.4,-4.5"/>
<path class="Note" d="M612.77,561.187 C617.109,558.243 620.247,555.803 622.183,553.866 C625.747,550.07 627.529,546.583 627.529,543.407 C627.529,539.766 625.515,537.945 621.486,537.945 C613.661,537.945 605.294,544.84 596.385,558.631 C593.673,562.814 587.708,576.45 578.488,599.537 C585.848,607.129 589.528,611.429 589.528,612.436 C589.528,613.831 588.637,614.528 586.855,614.528 C585.461,614.528 581.626,612.165 575.35,607.439 C568.533,623.321 558.19,636.879 544.322,648.113 C530.144,659.579 513.216,665.312 493.538,665.312 C486.023,665.312 476.61,663.569 465.299,660.083 C456.234,657.294 451.702,652.839 451.702,646.719 C451.702,637.654 455.188,633.122 462.161,633.122 C466.345,633.122 468.436,635.059 468.436,638.932 C468.436,640.172 467.468,641.489 465.531,642.884 C464.524,643.581 464.02,644.937 464.02,646.951 C464.02,649.353 466.693,651.832 472.039,654.388 C477.85,657.178 486.372,658.572 497.605,658.572 C512.093,658.572 526.077,652.297 539.558,639.746 C551.798,628.357 560.592,615.109 565.937,600.002 C563.846,598.297 561.599,596.438 559.197,594.424 C551.76,590.008 548.041,585.475 548.041,580.827 C548.041,578.89 549.319,577.922 551.876,577.922 C555.285,577.922 559.894,580.827 565.705,586.638 C566.945,587.877 568.107,589.039 569.191,590.124 C571.903,582.686 576.241,573.235 582.207,561.768 C592.976,541.005 606.069,530.624 621.486,530.624 C626.987,530.624 631.325,531.67 634.502,533.762 C637.678,535.853 639.267,538.72 639.267,542.361 C639.267,548.172 637.136,553.091 632.875,557.12 C628.459,561.304 623.849,563.395 619.046,563.395 C614.862,563.395 612.77,562.659 612.77,561.187"/>
<path class="Note" d="M633.688,794.854 C627.336,804.848 617.303,813.138 603.59,819.723 C591.659,825.456 580.503,828.323 570.121,828.323 C561.831,828.323 554.936,826.657 549.435,823.326 C543.47,819.684 540.487,815.346 540.487,810.31 C540.487,798.921 543.47,789.121 549.435,780.909 C557.57,769.752 565.782,764.174 574.072,764.174 C579.96,764.174 584.144,765.336 586.623,767.661 C590.032,770.682 591.736,774.827 591.736,780.095 C591.736,787.533 586.197,794.002 575.118,799.502 C564.349,804.848 556.873,808.334 552.689,809.961 C553.619,811.898 554.82,813.641 556.292,815.191 C559.933,819.065 564.892,821.001 571.167,821.001 C579.069,821.001 589.683,818.096 603.009,812.286 C615.792,806.63 626.018,800.819 633.688,794.854 M551.062,804.616 C556.873,801.672 562.18,798.224 566.983,794.273 C574.111,788.462 577.675,782.187 577.675,775.447 C577.675,771.651 575.932,769.752 572.445,769.752 C569.501,769.752 565.473,773.123 560.359,779.863 C553.929,788.23 550.714,795.048 550.714,800.316 C550.714,801.788 550.83,803.221 551.062,804.616"/>
<path class="Note" d="M612.77,471.896 C617.109,468.952 620.247,466.512 622.183,464.575 C625.747,460.778 627.529,457.292 627.529,454.116 C627.529,450.474 625.515,448.654 621.486,448.654 C613.661,448.654 605.294,455.549 596.385,469.339 C593.673,473.523 587.708,487.158 578.488,510.246 C585.848,517.838 589.528,522.138 589.528,523.145 C589.528,524.54 588.637,525.237 586.855,525.237 C585.461,525.237 581.626,522.874 575.35,518.148 C568.533,534.03 558.19,547.588 544.322,558.822 C530.144,570.288 513.216,576.021 493.538,576.021 C486.023,576.021 476.61,574.278 465.299,570.791 C456.234,568.002 451.702,563.548 451.702,557.427 C451.702,548.363 455.188,543.831 462.161,543.831 C466.345,543.831 468.436,545.767 468.436,549.641 C468.436,550.881 467.468,552.198 465.531,553.592 C464.524,554.29 464.02,555.645 464.02,557.66 C464.02,560.061 466.693,562.541 472.039,565.097 C477.85,567.886 486.372,569.281 497.605,569.281 C512.093,569.281 526.077,563.005 539.558,550.455 C551.798,539.066 560.592,525.818 565.937,510.71 C563.846,509.006 561.599,507.147 559.197,505.132 C551.76,500.716 548.041,496.184 548.041,491.536 C548.041,489.599 549.319,488.63 551.876,488.63 C555.285,488.63 559.894,491.536 565.705,497.346 C566.945,498.586 568.107,499.748 569.191,500.832 C571.903,493.395 576.241,483.943 582.207,472.477 C592.976,451.714 606.069,441.332 621.486,441.332 C626.987,441.332 631.325,442.378 634.502,444.47 C637.678,446.562 639.267,449.429 639.267,453.07 C639.267,458.88 637.136,463.8 632.875,467.829 C628.459,472.012 623.849,474.104 619.046,474.104 C614.862,474.104 612.77,473.368 612.77,471.896"/>
<path class="Note" d="M611.957,674.069 C611.957,682.979 601.808,702.541 581.51,732.756 C573.452,744.764 561.87,753.558 546.763,759.136 C535.606,763.319 522.707,765.411 508.064,765.411 C503.338,765.411 499.155,764.443 495.514,762.506 C491.485,760.414 489.471,758.129 489.471,755.65 C489.471,749.219 492.918,746.004 499.813,746.004 C500.821,746.004 501.324,746.624 501.324,747.863 C501.324,748.948 500.821,750.149 499.813,751.466 C498.574,753.093 497.954,754.294 497.954,755.068 C497.954,757.393 501.44,758.555 508.413,758.555 C524.063,758.555 536.42,756.657 545.484,752.86 C554.936,748.987 564.349,739.109 573.724,723.227 L576.396,718.23 C571.903,721.638 567.448,723.343 563.032,723.343 C552.031,723.343 546.53,718.888 546.53,709.979 C546.53,700.372 552.999,690.262 565.937,679.648 C576.086,671.435 585.112,667.329 593.015,667.329 C596.966,667.329 600.258,668.375 602.892,670.467 C603.822,669.77 604.984,669.421 606.379,669.421 C610.098,669.421 611.957,670.971 611.957,674.069 M577.791,715.789 L599.755,675.232 C598.05,674.844 596.152,674.651 594.06,674.651 C586.545,674.651 579.263,679.028 572.213,687.782 C564.001,698.009 559.894,706.182 559.894,712.303 C559.894,716.332 562.567,718.346 567.913,718.346 C570.47,718.346 573.762,717.494 577.791,715.789"/>
<path class="Note" d="M1563.21,918.353 C1567.55,915.409 1570.69,912.968 1572.62,911.031 C1576.19,907.235 1577.97,903.749 1577.97,900.572 C1577.97,896.931 1575.96,895.11 1571.93,895.11 C1564.1,895.11 1555.74,902.006 1546.83,915.796 C1544.11,919.98 1538.15,933.615 1528.93,956.702 C1536.29,964.295 1539.97,968.595 1539.97,969.602 C1539.97,970.996 1539.08,971.693 1537.3,971.693 C1535.9,971.693 1532.07,969.331 1525.79,964.605 C1518.97,980.487 1508.63,994.045 1494.76,1005.28 C1480.59,1016.74 1463.66,1022.48 1443.98,1022.48 C1436.46,1022.48 1427.05,1020.73 1415.74,1017.25 C1406.68,1014.46 1402.14,1010 1402.14,1003.88 C1402.14,994.819 1405.63,990.287 1412.6,990.287 C1416.79,990.287 1418.88,992.224 1418.88,996.098 C1418.88,997.337 1417.91,998.654 1415.97,1000.05 C1414.97,1000.75 1414.46,1002.1 1414.46,1004.12 C1414.46,1006.52 1417.13,1009 1422.48,1011.55 C1428.29,1014.34 1436.81,1015.74 1448.05,1015.74 C1462.53,1015.74 1476.52,1009.46 1490,996.911 C1502.24,985.523 1511.03,972.275 1516.38,957.167 C1514.29,955.463 1512.04,953.603 1509.64,951.589 C1502.2,947.173 1498.48,942.641 1498.48,937.992 C1498.48,936.055 1499.76,935.087 1502.32,935.087 C1505.73,935.087 1510.34,937.992 1516.15,943.803 C1517.39,945.042 1518.55,946.205 1519.63,947.289 C1522.34,939.852 1526.68,930.4 1532.65,918.934 C1543.42,898.171 1556.51,887.789 1571.93,887.789 C1577.43,887.789 1581.77,888.835 1584.94,890.927 C1588.12,893.019 1589.71,895.885 1589.71,899.526 C1589.71,905.337 1587.58,910.257 1583.32,914.285 C1578.9,918.469 1574.29,920.561 1569.49,920.561 C1565.3,920.561 1563.21,919.825 1563.21,918.353"/>
<path class="Note" d="M1563.21,561.187 C1567.55,558.243 1570.69,555.803 1572.62,553.866 C1576.19,550.07 1577.97,546.583 1577.97,543.407 C1577.97,539.766 1575.96,537.945 1571.93,537.945 C1564.1,537.945 1555.74,544.84 1546.83,558.631 C1544.11,562.814 1538.15,576.45 1528.93,599.537 C1536.29,607.129 1539.97,611.429 1539.97,612.436 C1539.97,613.831 1539.08,614.528 1537.3,614.528 C1535.9,614.528 1532.07,612.165 1525.79,607.439 C1518.97,623.321 1508.63,636.879 1494.76,648.113 C1480.59,659.579 1463.66,665.312 1443.98,665.312 C1436.46,665.312 1427.05,663.569 1415.74,660.083 C1406.68,657.294 1402.14,652.839 1402.14,646.719 C1402.14,637.654 1405.63,633.122 1412.6,633.122 C1416.79,633.122 1418.88,635.059 1418.88,638.932 C1418.88,640.172 1417.91,641.489 1415.97,642.884 C1414.97,643.581 1414.46,644.937 1414.46,646.951 C1414.46,649.353 1417.13,651.832 1422.48,654.388 C1428.29,657.178 1436.81,658.572 1448.05,658.572 C1462.53,658.572 1476.52,652.297 1490,639.746 C1502.24,628.357 1511.03,615.109 1516.38,600.002 C1514.29,598.297 1512.04,596.438 1509.64,594.424 C1502.2,590.008 1498.48,585.475 1498.48,580.827 C1498.48,578.89 1499.76,577.922 1502.32,577.922 C1505.73,577.922 1510.34,580.827 1516.15,586.638 C1517.39,587.877 1518.55,589.039 1519.63,590.124 C1522.34,582.686 1526.68,573.235 1532.65,561.768 C1543.42,541.005 1556.51,530.624 1571.93,530.624 C1577.43,530.624 1581.77,531.67 1584.94,533.762 C1588.12,535.853 1589.71,538.72 1589.71,542.361 C1589.71,548.172 1587.58,553.091 1583.32,557.12 C1578.9,561.304 1574.29,563.395 1569.49,563.395 C1565.3,563.395 1563.21,562.659 1563.21,561.187"/>
<path class="Note" d="M1584.13,794.854 C1577.78,804.848 1567.74,813.138 1554.03,819.723 C1542.1,825.456 1530.94,828.323 1520.56,828.323 C1512.27,828.323 1505.38,826.657 1499.88,823.326 C1493.91,819.684 1490.93,815.346 1490.93,810.31 C1490.93,798.921 1493.91,789.121 1499.88,780.909 C1508.01,769.752 1516.22,764.174 1524.51,764.174 C1530.4,764.174 1534.59,765.336 1537.06,767.661 C1540.47,770.682 1542.18,774.827 1542.18,780.095 C1542.18,787.533 1536.64,794.002 1525.56,799.502 C1514.79,804.848 1507.31,808.334 1503.13,809.961 C1504.06,811.898 1505.26,813.641 1506.73,815.191 C1510.37,819.065 1515.33,821.001 1521.61,821.001 C1529.51,821.001 1540.12,818.096 1553.45,812.286 C1566.23,806.63 1576.46,800.819 1584.13,794.854 M1501.5,804.616 C1507.31,801.672 1512.62,798.224 1517.42,794.273 C1524.55,788.462 1528.12,782.187 1528.12,775.447 C1528.12,771.651 1526.37,769.752 1522.89,769.752 C1519.94,769.752 1515.91,773.123 1510.8,779.863 C1504.37,788.23 1501.16,795.048 1501.16,800.316 C1501.16,801.788 1501.27,803.221 1501.5,804.616"/>
<path class="Note" d="M1562.4,674.069 C1562.4,682.979 1552.25,702.541 1531.95,732.756 C1523.89,744.764 1512.31,753.558 1497.2,759.136 C1486.05,763.319 1473.15,765.411 1458.51,765.411 C1453.78,765.411 1449.6,764.443 1445.96,762.506 C1441.93,760.414 1439.91,758.129 1439.91,755.65 C1439.91,749.219 1443.36,746.004 1450.25,746.004 C1451.26,746.004 1451.77,746.624 1451.77,747.863 C1451.77,748.948 1451.26,750.149 1450.25,751.466 C1449.02,753.093 1448.4,754.294 1448.4,755.068 C1448.4,757.393 1451.88,758.555 1458.85,758.555 C1474.5,758.555 1486.86,756.657 1495.93,752.86 C1505.38,748.987 1514.79,739.109 1524.17,723.227 L1526.84,718.23 C1522.34,721.638 1517.89,723.343 1513.47,723.343 C1502.47,723.343 1496.97,718.888 1496.97,709.979 C1496.97,700.372 1503.44,690.262 1516.38,679.648 C1526.53,671.435 1535.55,667.329 1543.46,667.329 C1547.41,667.329 1550.7,668.375 1553.33,670.467 C1554.26,669.77 1555.43,669.421 1556.82,669.421 C1560.54,669.421 1562.4,670.971 1562.4,674.069 M1528.23,715.789 L1550.2,675.232 C1548.49,674.844 1546.59,674.651 1544.5,674.651 C1536.99,674.651 1529.7,679.028 1522.65,687.782 C1514.44,698.009 1510.34,706.182 1510.34,712.303 C1510.34,716.332 1513.01,718.346 1518.35,718.346 C1520.91,718.346 1524.2,717.494 1528.23,715.789"/>
<path class="Note" d="M2387.69,855.79 C2388,844.091 2394.47,833.71 2407.1,824.645 C2418.33,816.588 2430.61,812.559 2443.94,812.559 C2462.61,812.559 2479.07,819.881 2493.33,834.523 C2502.39,843.898 2506.92,855.519 2506.92,869.387 C2506.92,881.86 2503.59,891.428 2496.93,898.091 C2488.79,906.303 2480.19,910.409 2471.13,910.409 C2464.93,910.409 2460.13,909.014 2456.72,906.225 C2451.14,901.654 2448.35,895.534 2448.35,887.864 C2448.35,877.947 2453.31,868.883 2463.23,860.671 C2471.36,853.93 2479.54,849.514 2487.75,847.423 C2485.58,843.704 2482.83,840.218 2479.5,836.964 C2469.11,826.815 2457.34,821.74 2444.17,821.74 C2430.46,821.74 2419.11,824.723 2410.12,830.688 C2400.82,836.809 2393.35,845.176 2387.69,855.79 M2490.65,853.582 C2486.39,857.533 2482.13,861.755 2477.87,866.249 C2469.5,875.081 2465.32,883.448 2465.32,891.35 C2465.32,899.795 2467.26,904.017 2471.13,904.017 C2474.62,904.017 2479.5,899.253 2485.77,889.723 C2490.81,882.131 2493.33,875.158 2493.33,868.805 C2493.33,863.382 2492.43,858.308 2490.65,853.582"/>
<path class="Note" d="M2513.65,561.187 C2517.99,558.243 2521.13,555.803 2523.07,553.866 C2526.63,550.07 2528.41,546.583 2528.41,543.407 C2528.41,539.766 2526.4,537.945 2522.37,537.945 C2514.54,537.945 2506.18,544.84 2497.27,558.631 C2494.56,562.814 2488.59,576.45 2479.37,599.537 C2486.73,607.129 2490.41,611.429 2490.41,612.436 C2490.41,613.831 2489.52,614.528 2487.74,614.528 C2486.34,614.528 2482.51,612.165 2476.23,607.439 C2469.42,623.321 2459.07,636.879 2445.21,648.113 C2431.03,659.579 2414.1,665.312 2394.42,665.312 C2386.91,665.312 2377.49,663.569 2366.18,660.083 C2357.12,657.294 2352.59,652.839 2352.59,646.719 C2352.59,637.654 2356.07,633.122 2363.04,633.122 C2367.23,633.122 2369.32,635.059 2369.32,638.932 C2369.32,640.172 2368.35,641.489 2366.41,642.884 C2365.41,643.581 2364.9,644.937 2364.9,646.951 C2364.9,649.353 2367.58,651.832 2372.92,654.388 C2378.73,657.178 2387.25,658.572 2398.49,658.572 C2412.98,658.572 2426.96,652.297 2440.44,639.746 C2452.68,628.357 2461.47,615.109 2466.82,600.002 C2464.73,598.297 2462.48,596.438 2460.08,594.424 C2452.64,590.008 2448.92,585.475 2448.92,580.827 C2448.92,578.89 2450.2,577.922 2452.76,577.922 C2456.17,577.922 2460.78,580.827 2466.59,586.638 C2467.83,587.877 2468.99,589.039 2470.07,590.124 C2472.79,582.686 2477.12,573.235 2483.09,561.768 C2493.86,541.005 2506.95,530.624 2522.37,530.624 C2527.87,530.624 2532.21,531.67 2535.38,533.762 C2538.56,535.853 2540.15,538.72 2540.15,542.361 C2540.15,548.172 2538.02,553.091 2533.76,557.12 C2529.34,561.304 2524.73,563.395 2519.93,563.395 C2515.75,563.395 2513.65,562.659 2513.65,561.187"/>
<path class="Note" d="M2534.57,794.854 C2528.22,804.848 2518.19,813.138 2504.47,819.723 C2492.54,825.456 2481.39,828.323 2471,828.323 C2462.71,828.323 2455.82,826.657 2450.32,823.326 C2444.35,819.684 2441.37,815.346 2441.37,810.31 C2441.37,798.921 2444.35,789.121 2450.32,780.909 C2458.45,769.752 2466.67,764.174 2474.96,764.174 C2480.84,764.174 2485.03,765.336 2487.51,767.661 C2490.91,770.682 2492.62,774.827 2492.62,780.095 C2492.62,787.533 2487.08,794.002 2476,799.502 C2465.23,804.848 2457.76,808.334 2453.57,809.961 C2454.5,811.898 2455.7,813.641 2457.17,815.191 C2460.82,819.065 2465.77,821.001 2472.05,821.001 C2479.95,821.001 2490.57,818.096 2503.89,812.286 C2516.67,806.63 2526.9,800.819 2534.57,794.854 M2451.95,804.616 C2457.76,801.672 2463.06,798.224 2467.87,794.273 C2474.99,788.462 2478.56,782.187 2478.56,775.447 C2478.56,771.651 2476.81,769.752 2473.33,769.752 C2470.38,769.752 2466.36,773.123 2461.24,779.863 C2454.81,788.23 2451.6,795.048 2451.6,800.316 C2451.6,801.788 2451.71,803.221 2451.95,804.616"/>
<path class="Note" d="M2387.69,677.207 C2388,665.509 2394.47,655.127 2407.1,646.063 C2418.33,638.005 2430.61,633.977 2443.94,633.977 C2462.61,633.977 2479.07,641.298 2493.33,655.941 C2502.39,665.315 2506.92,676.936 2506.92,690.804 C2506.92,703.277 2503.59,712.845 2496.93,719.508 C2488.79,727.72 2480.19,731.826 2471.13,731.826 C2464.93,731.826 2460.13,730.432 2456.72,727.643 C2451.14,723.072 2448.35,716.951 2448.35,709.281 C2448.35,699.365 2453.31,690.3 2463.23,682.088 C2471.36,675.348 2479.54,670.932 2487.75,668.84 C2485.58,665.121 2482.83,661.635 2479.5,658.381 C2469.11,648.232 2457.34,643.157 2444.17,643.157 C2430.46,643.157 2419.11,646.14 2410.12,652.106 C2400.82,658.226 2393.35,666.593 2387.69,677.207 M2490.65,674.999 C2486.39,678.95 2482.13,683.173 2477.87,687.666 C2469.5,696.498 2465.32,704.865 2465.32,712.768 C2465.32,721.212 2467.26,725.435 2471.13,725.435 C2474.62,725.435 2479.5,720.67 2485.77,711.141 C2490.81,703.548 2493.33,696.576 2493.33,690.223 C2493.33,684.8 2492.43,679.725 2490.65,674.999"/>
<path class="Note" d="M3321.88,910.409 C3317.7,910.409 3315.61,908.511 3315.61,904.715 C3315.61,898.284 3316.58,893.558 3318.51,890.537 C3326.57,878.606 3344.08,856.293 3371.04,823.599 C3383.2,808.802 3398.89,801.403 3418.11,801.403 C3425.54,801.403 3430.69,802.449 3433.56,804.541 C3437.98,807.795 3440.19,811.707 3440.19,816.278 C3440.19,821.082 3436.31,826.427 3428.56,832.315 C3421.2,837.893 3414.23,840.682 3407.65,840.682 C3405.09,840.682 3403.81,840.411 3403.81,839.869 C3403.81,839.094 3405.05,838.281 3407.53,837.429 C3410.86,836.189 3414.43,833.671 3418.22,829.875 C3422.56,825.459 3424.73,821.469 3424.73,817.905 C3424.73,815.503 3423.06,813.218 3419.73,811.049 C3416.79,809.189 3412.02,808.26 3405.44,808.26 C3395.83,808.26 3383.71,817.944 3369.06,837.312 C3359.3,850.25 3351.4,861.639 3345.36,871.478 C3348.3,869.851 3351.83,867.876 3355.93,865.552 C3360.97,862.685 3365.31,861.252 3368.95,861.252 C3378.01,861.252 3382.54,864.506 3382.54,871.013 C3382.54,877.444 3378.83,884.494 3371.39,892.164 C3366.12,897.587 3363.49,901.616 3363.49,904.25 C3363.49,906.961 3366.12,908.317 3371.39,908.317 C3374.02,908.317 3376.73,907.388 3379.52,905.528 C3382.31,903.746 3384.37,902.855 3385.68,902.855 C3386.77,902.855 3387.31,903.553 3387.31,904.947 C3387.31,907.194 3385.14,909.557 3380.8,912.036 C3373.52,916.22 3367.67,918.311 3363.25,918.311 C3355.43,918.311 3351.52,914.128 3351.52,905.761 C3351.52,900.492 3354.54,894.643 3360.58,888.213 C3365,883.487 3367.21,878.8 3367.21,874.151 C3367.21,870.123 3365.04,868.108 3360.7,868.108 C3358.99,868.108 3353.34,870.123 3343.73,874.151 C3340.86,878.955 3338.46,883.371 3336.53,887.399 C3329.17,902.739 3324.28,910.409 3321.88,910.409"/>
<path class="Note" d="M3321.88,642.535 C3317.7,642.535 3315.61,640.637 3315.61,636.841 C3315.61,630.41 3316.58,625.684 3318.51,622.663 C3326.57,610.732 3344.08,588.419 3371.04,555.725 C3383.2,540.928 3398.89,533.529 3418.11,533.529 C3425.54,533.529 3430.69,534.575 3433.56,536.667 C3437.98,539.921 3440.19,543.833 3440.19,548.404 C3440.19,553.207 3436.31,558.553 3428.56,564.441 C3421.2,570.019 3414.23,572.808 3407.65,572.808 C3405.09,572.808 3403.81,572.537 3403.81,571.995 C3403.81,571.22 3405.05,570.407 3407.53,569.555 C3410.86,568.315 3414.43,565.797 3418.22,562.001 C3422.56,557.585 3424.73,553.595 3424.73,550.031 C3424.73,547.629 3423.06,545.344 3419.73,543.175 C3416.79,541.315 3412.02,540.386 3405.44,540.386 C3395.83,540.386 3383.71,550.07 3369.06,569.438 C3359.3,582.376 3351.4,593.765 3345.36,603.604 C3348.3,601.977 3351.83,600.002 3355.93,597.678 C3360.97,594.811 3365.31,593.378 3368.95,593.378 C3378.01,593.378 3382.54,596.632 3382.54,603.139 C3382.54,609.57 3378.83,616.62 3371.39,624.29 C3366.12,629.713 3363.49,633.742 3363.49,636.376 C3363.49,639.087 3366.12,640.443 3371.39,640.443 C3374.02,640.443 3376.73,639.513 3379.52,637.654 C3382.31,635.872 3384.37,634.981 3385.68,634.981 C3386.77,634.981 3387.31,635.679 3387.31,637.073 C3387.31,639.32 3385.14,641.683 3380.8,644.162 C3373.52,648.346 3367.67,650.437 3363.25,650.437 C3355.43,650.437 3351.52,646.254 3351.52,637.887 C3351.52,632.618 3354.54,626.769 3360.58,620.339 C3365,615.613 3367.21,610.926 3367.21,606.277 C3367.21,602.249 3365.04,600.234 3360.7,600.234 C3358.99,600.234 3353.34,602.249 3343.73,606.277 C3340.86,611.081 3338.46,615.497 3336.53,619.525 C3329.17,634.865 3324.28,642.535 3321.88,642.535"/>
<path class="Note" d="M3394.51,471.896 C3398.85,468.952 3401.99,466.512 3403.93,464.575 C3407.49,460.778 3409.27,457.292 3409.27,454.116 C3409.27,450.474 3407.26,448.654 3403.23,448.654 C3395.41,448.654 3387.04,455.549 3378.13,469.339 C3375.42,473.523 3369.45,487.158 3360.23,510.246 C3367.59,517.838 3371.27,522.138 3371.27,523.145 C3371.27,524.54 3370.38,525.237 3368.6,525.237 C3367.21,525.237 3363.37,522.874 3357.09,518.148 C3350.28,534.03 3339.93,547.588 3326.07,558.822 C3311.89,570.288 3294.96,576.021 3275.28,576.021 C3267.77,576.021 3258.35,574.278 3247.04,570.791 C3237.98,568.002 3233.45,563.548 3233.45,557.427 C3233.45,548.363 3236.93,543.831 3243.91,543.831 C3248.09,543.831 3250.18,545.767 3250.18,549.641 C3250.18,550.881 3249.21,552.198 3247.28,553.592 C3246.27,554.29 3245.76,555.645 3245.76,557.66 C3245.76,560.061 3248.44,562.541 3253.78,565.097 C3259.59,567.886 3268.12,569.281 3279.35,569.281 C3293.84,569.281 3307.82,563.005 3321.3,550.455 C3333.54,539.066 3342.34,525.818 3347.68,510.71 C3345.59,509.006 3343.34,507.147 3340.94,505.132 C3333.5,500.716 3329.79,496.184 3329.79,491.536 C3329.79,489.599 3331.06,488.63 3333.62,488.63 C3337.03,488.63 3341.64,491.536 3347.45,497.346 C3348.69,498.586 3349.85,499.748 3350.94,500.832 C3353.65,493.395 3357.99,483.943 3363.95,472.477 C3374.72,451.714 3387.81,441.332 3403.23,441.332 C3408.73,441.332 3413.07,442.378 3416.25,444.47 C3419.42,446.562 3421.01,449.429 3421.01,453.07 C3421.01,458.88 3418.88,463.8 3414.62,467.829 C3410.2,472.012 3405.59,474.104 3400.79,474.104 C3396.61,474.104 3394.51,473.368 3394.51,471.896"/>
<path class="Note" d="M3393.7,674.069 C3393.7,682.979 3383.55,702.541 3363.25,732.756 C3355.2,744.764 3343.61,753.558 3328.51,759.136 C3317.35,763.319 3304.45,765.411 3289.81,765.411 C3285.08,765.411 3280.9,764.443 3277.26,762.506 C3273.23,760.414 3271.21,758.129 3271.21,755.65 C3271.21,749.219 3274.66,746.004 3281.56,746.004 C3282.56,746.004 3283.07,746.624 3283.07,747.863 C3283.07,748.948 3282.56,750.149 3281.56,751.466 C3280.32,753.093 3279.7,754.294 3279.7,755.068 C3279.7,757.393 3283.18,758.555 3290.16,758.555 C3305.81,758.555 3318.16,756.657 3327.23,752.86 C3336.68,748.987 3346.09,739.109 3355.47,723.227 L3358.14,718.23 C3353.65,721.638 3349.19,723.343 3344.78,723.343 C3333.78,723.343 3328.27,718.888 3328.27,709.979 C3328.27,700.372 3334.74,690.262 3347.68,679.648 C3357.83,671.435 3366.86,667.329 3374.76,667.329 C3378.71,667.329 3382,668.375 3384.64,670.467 C3385.57,669.77 3386.73,669.421 3388.12,669.421 C3391.84,669.421 3393.7,670.971 3393.7,674.069 M3359.54,715.789 L3381.5,675.232 C3379.79,674.844 3377.9,674.651 3375.8,674.651 C3368.29,674.651 3361.01,679.028 3353.96,687.782 C3345.74,698.009 3341.64,706.182 3341.64,712.303 C3341.64,716.332 3344.31,718.346 3349.66,718.346 C3352.21,718.346 3355.51,717.494 3359.54,715.789"/>
<path class="Clef" transform="matrix(2.3811,0,0,2.3811,212.156,2217.65)" d="M25.4,-25.1 C17.8,-25.1 11.7,-20.7 11.6,-20.7 C5.8,-16.4 3.5,-11.3 2.6,-7.8 C2.1,-6 1.9,-4.2 1.9,-2.5 C1.9,-0.1 2.3,2.1 3.2,4 C4.4,6.7 6.7,8.6 9.7,9.6 C10.9,10 12.2,10.2 13.5,10.2 C15.7,10.2 18,9.6 19.9,8.5 C23,6.8 24.9,3.2 24.9,-0.7 C24.9,-4.2 23.1,-7.4 20.1,-9.3 C18,-10.7 16,-11.1 14.3,-11.1 C13.1,-11.1 12,-10.9 11.1,-10.6 C10.1,-10.2 8.4,-9.2 7.6,-8.5 C7.9,-10.4 9.1,-13.3 10.2,-14.9 C11.3,-16.5 13.5,-18.5 15.2,-19.4 C17.7,-20.8 20.9,-21.4 24.4,-21.4 C34.6,-21.4 39.6,-13.2 39.6,3.6 C39.6,12.9 36.1,21.8 33.1,27.7 C29.8,34.3 25.4,40.6 21.5,44.1 C11.1,53.6 1.3,58.1 1.2,58.1 C1.2,58.1 -0.3,59 0.1,60.5 C0.4,61.5 1.3,61.7 1.9,61.7 C2,61.7 2.3,61.6 2.4,61.6 C2.5,61.6 13.9,56.9 23,49.8 C28.1,46.1 32.7,42.1 36.7,37.8 C40.3,33.9 43.4,29.7 45.9,25.5 C50.3,18 52.8,10.2 52.8,3.5 C52.8,-4.8 50.6,-11.7 46.5,-16.6 C41.8,-22.2 34.7,-25.1 25.4,-25.1 M56.8,-12.4 C56.8,-9.6 59,-7.4 61.6,-7.4 C64.2,-7.4 66.4,-9.6 66.4,-12.4 C66.4,-15.2 64.2,-17.5 61.6,-17.5 C59,-17.5 56.8,-15.2 56.8,-12.4 M56.8,12.3 C56.8,15.1 59,17.4 61.6,17.4 C64.2,17.4 66.4,15.1 66.4,12.3 C66.4,9.5 64.2,7.2 61.6,7.2 C59,7.2 56.8,9.5 56.8,12.3"/>
<path class="Clef" transform="matrix(2.3811,0,0,2.3811,212.156,1570.39)" d="M63.37,-5.89004 C62.14,-11.32 59.5,-15.14 58.72,-16.1801 C55.5301,-20.45 51.52,-23.3 46.8301,-24.65 C43.72,-25.54 40.72,-25.65 38.3,-25.47 C37.2601,-31.4801 36.2601,-37.3601 35.35,-42.8101 C40.79,-48.97 44.42,-54.77 46.69,-59.07 C50.1601,-65.65 51.3101,-70.2301 51.3601,-70.4301 C53.0801,-75.64 53.44,-83.34 52.34,-91.55 C51.3301,-99.1 49.24,-105.81 46.89,-109.06 C45.8601,-110.49 44.8101,-111.22 43.77,-111.22 C42.55,-111.22 40.04,-109.98 37.15,-107.21 C34.85,-105.01 31.5801,-101.12 29.02,-95.1101 C26.02,-88.05 25.8101,-78.5601 26.1601,-71.84 C26.54,-64.57 27.65,-58.8801 27.6601,-58.8301 C27.6801,-58.74 27.94,-57.24 28.39,-54.67 C28.1601,-54.44 27.92,-54.22 27.67,-53.9801 C26.6301,-52.9801 25.44,-51.84 24.0601,-50.4601 C23.2,-49.6 22.25,-48.69 21.25,-47.72 C12.79,-39.57 0,-27.25 0,-8.1 C0,-3.4 0.9,1.01992 2.68008,5.02998 C4.27002,8.62998 6.57002,11.91 9.5,14.78 C17.2301,22.33 27.82,25.5399 34.8801,25.38 C37.8301,25.31 40.4601,25.0699 42.85,24.6199 C44.6801,34.2199 45.82,41.25 45.8601,46.5899 C45.9,53.1 44.25,57.0699 40.35,59.8399 C37.92,61.5699 35.1101,62.5199 32.0101,62.6699 C29.42,62.7899 27.1601,62.3199 25.7301,61.91 L25.72,61.91 C25.72,61.91 25.4301,61.83 25.42,61.63 C25.4101,61.45 25.7601,61.4 25.77,61.4 L25.79,61.4 C27.7101,60.96 31.2801,59.73 33.64,56.43 C35.44,53.91 36.3101,49.2899 34.47,45.35 C33.3601,42.96 30.85,40.01 25.2301,39.56 C22.74,39.36 20.47,39.8699 18.47,41.0699 C16.6601,42.15 15.1601,43.7899 14.1101,45.7899 C11.65,50.4899 12.1101,56.2199 15.24,60.06 C18.2,63.68 22.82,65.9899 28.25,66.5699 C29.1,66.66 29.95,66.7 30.8,66.7 C31.5101,66.7 32.22,66.6699 32.92,66.61 C31.72,66.9399 30.64,67.4899 29.77,68.25 C28.2801,69.5399 27.44,71.38 27.44,73.41 C27.44,75.28 28.0601,76.65 29.55,78.0399 C28.4101,78.5 27.55,78.98 26.79,79.56 C25.25,80.73 24.34,82.46 24.34,84.1899 C24.34,87.45 27.3,89.63 31.72,89.63 C37.1301,89.63 40.9101,86.63 40.9101,82.35 C40.9101,80.1199 39.9101,78.18 38.0801,76.83 C41.0101,75.6199 42.37,73.9399 42.37,71.56 C42.39,70.05 41.69,68.61 40.49,67.6899 C39.2801,66.7399 37.62,66.2399 35.69,66.2399 L35.5101,66.2399 C38.2801,65.7 40.92,64.7 43.2101,63.28 C46.87,60.71 48.99,56.73 49.67,51.1 C50.2301,46.46 49.84,40.55 48.44,32.48 C48.0801,30.3899 47.54,27.36 46.8801,23.6 C52.6301,21.68 56.79,18.11 60.5601,12.26 C63.85,6.51992 64.8,0.419922 63.37,-5.89004 M32.39,87.5399 C30.19,87.5399 28.7301,86.1199 28.7301,84.01 C28.7301,82.11 29.65,80.5 31.32,79.4699 C31.6801,79.66 31.77,79.71 32.1101,79.88 C33.3,80.48 33.3,80.48 33.55,80.63 L33.5601,80.6399 C35.47,81.73 36.25,82.76 36.25,84.18 C36.24,86.0899 34.59,87.5399 32.39,87.5399 M38.3101,71.63 C38.3101,73.2699 37.7301,74.3399 36.1801,75.53 C34.74,74.78 34.35,74.56 33.9801,74.3399 L33.8801,74.28 C32.3301,73.3399 31.85,72.66 31.85,71.4 C31.85,69.6 33.2301,68.3399 35.19,68.3399 C37.17,68.35 38.3101,69.55 38.3101,71.63 M33.15,-83.8101 C34.9301,-89.55 37.67,-92.8 39.6601,-94.5301 C41.4101,-96.05 43.0601,-96.7601 43.9801,-96.7601 C44.12,-96.7601 44.24,-96.74 44.34,-96.7101 C44.8,-96.57 45.3301,-96 45.8,-95.1301 C48.1101,-90.84 47.37,-84.1301 46.0301,-79.69 C44.4,-74.29 41.4801,-68.6801 32.69,-59.0601 C32.52,-60.17 32.3601,-61.22 32.2101,-62.2 C30.95,-70.49 31.27,-77.7601 33.15,-83.8101 M29.15,20.31 C24.5101,19.0899 20.0801,16.5899 16.32,13.0899 C15.0101,11.86 13.14,9.68994 11.67,6.3 C10.3101,3.13994 9.65,-0.290039 9.7,-3.88008 C9.77002,-8.57002 11.0801,-13.39 13.59,-18.1801 C16.5101,-23.7601 21.07,-29.29 27.1301,-34.62 C28.5801,-35.9 29.95,-37.1801 31.24,-38.4601 C32,-34.2 32.8301,-29.5101 33.7101,-24.6301 C29.8601,-23.3601 25.1101,-20.2101 22,-14.5601 C18.47,-7.99004 18.6101,-2.47002 19.34,1.00996 C20.2801,5.46992 22.8101,9.22998 26.27,11.3199 C27.2,11.88 31.3301,14.01 33.17,13.43 C33.54,13.31 33.8101,13.0899 33.95,12.76 C34.4601,11.5899 33.44,10.95 31.8801,9.98994 C31.2801,9.61992 30.6101,9.2 29.8801,8.66992 C26.5601,6.17998 25.1101,1.72998 26.1801,-2.65 C26.7601,-5.05 28.04,-7.21006 29.8801,-8.91006 C31.55,-10.4601 33.59,-11.5601 35.97,-12.2 C38.0101,-0.960059 40.07,10.1899 41.7101,18.55 C41.84,19.2399 41.9801,19.91 42.1101,20.58 C37.7101,21.51 33.37,21.4199 29.15,20.31 M54.9,10.1 C53.7301,13.28 51.27,17.35 46.14,19.41 C46.07,18.9899 45.99,18.56 45.9101,18.13 C44.3601,9.36992 42.4301,-1.61006 40.47,-12.87 C50.82,-13.35 55.09,-5.91006 55.9801,-1.08008 C56.45,1.45 56.45,5.88994 54.9,10.1"/>
<path class="FiguredBass" d="M543.165,2534.76 C543.35,2534.76 543.752,2534.36 544.371,2533.55 C547.03,2529.78 550.741,2527.89 555.503,2527.89 C559.338,2527.89 562.956,2529.32 566.358,2532.16 C569.76,2535.01 572.574,2536.43 574.8,2536.43 C577.212,2536.43 579.501,2535.72 581.666,2534.29 C583.83,2532.87 585.547,2531.45 586.814,2530.03 C588.082,2528.6 588.902,2527.89 589.273,2527.89 C589.891,2527.89 590.448,2528.09 590.943,2528.5 C591.438,2528.9 591.685,2529.41 591.685,2530.03 C591.685,2530.46 590.417,2532.59 587.881,2536.43 C585.346,2540.26 582.531,2544.7 579.439,2549.74 C576.347,2554.78 573.532,2561.07 570.997,2568.62 C568.461,2576.17 567.193,2583.37 567.193,2590.24 C567.193,2592.9 567.471,2595.96 568.028,2599.42 C568.461,2602.08 568.461,2603.6 568.028,2603.97 C567.719,2604.28 567.193,2604.43 566.451,2604.43 C566.141,2604.43 564.703,2604.03 562.137,2603.22 C559.57,2602.42 557.111,2602.02 554.761,2602.02 C552.658,2602.02 550.231,2602.42 547.479,2603.22 C544.726,2604.03 543.195,2604.43 542.886,2604.43 C542.206,2604.43 541.649,2604.15 541.216,2603.6 C540.783,2603.04 540.722,2602.45 541.031,2601.83 C544.68,2593.11 549.118,2584.62 554.344,2576.37 C559.57,2568.11 566.111,2558.6 573.965,2547.84 C570.997,2549.45 567.997,2550.25 564.966,2550.25 C561.75,2550.25 558.503,2548.81 555.225,2545.94 C551.947,2543.06 549.257,2541.62 547.154,2541.62 C545.608,2541.62 544.262,2542.5 543.118,2544.27 C541.974,2546.03 541.402,2548.67 541.402,2552.2 L541.402,2563.61 C541.402,2565.16 540.691,2565.93 539.268,2565.93 C537.722,2565.93 536.949,2565.16 536.949,2563.61 L536.949,2530.21 C536.949,2528.67 537.722,2527.89 539.268,2527.89 C540.691,2527.89 541.402,2528.67 541.402,2530.21 L541.402,2532.35 C541.402,2532.84 541.526,2533.27 541.773,2533.64 C542.515,2534.39 542.979,2534.76 543.165,2534.76"/>
<path class="FiguredBass" d="M1516.71,2531.42 C1512.13,2531.42 1509.08,2533.26 1507.57,2536.94 C1506.05,2540.62 1505.3,2545.83 1505.3,2552.57 L1505.3,2563.52 C1508.51,2562.22 1511.29,2561.54 1513.65,2561.48 C1521.69,2561.48 1528.01,2563.26 1532.62,2566.81 C1537.23,2570.37 1539.53,2575.66 1539.53,2582.68 C1539.53,2589.7 1537.19,2595 1532.52,2598.59 C1527.85,2602.17 1521.56,2603.97 1513.65,2603.97 C1505.54,2603.97 1499.2,2600.21 1494.63,2592.7 C1490.05,2585.18 1487.76,2576.26 1487.76,2565.93 C1487.76,2555.66 1490.42,2546.76 1495.74,2539.21 C1501.06,2531.67 1508.05,2527.89 1516.71,2527.89 C1522.4,2527.89 1527.31,2529.33 1531.46,2532.21 C1535.6,2535.08 1537.67,2538.87 1537.67,2543.57 C1537.67,2546.29 1536.68,2548.64 1534.7,2550.62 C1532.73,2552.6 1530.36,2553.59 1527.61,2553.59 C1524.86,2553.59 1522.49,2552.6 1520.51,2550.62 C1518.53,2548.64 1517.54,2546.29 1517.54,2543.57 C1517.54,2540.91 1518.53,2538.56 1520.51,2536.52 C1521.19,2535.72 1522.15,2535.04 1523.39,2534.48 C1523.08,2533.68 1522.46,2533.06 1521.53,2532.62 C1520.17,2531.82 1518.56,2531.42 1516.71,2531.42 M1521.25,2569.36 C1520.14,2566.46 1517.7,2565 1513.92,2565 C1510.15,2565 1507.82,2566.46 1506.92,2569.36 C1506.02,2572.27 1505.57,2576.69 1505.57,2582.63 C1505.57,2589.62 1506.02,2594.32 1506.92,2596.73 C1507.82,2599.14 1510.15,2600.35 1513.92,2600.35 C1517.7,2600.35 1520.14,2598.9 1521.25,2595.99 C1522.37,2593.08 1522.92,2588.64 1522.92,2582.68 C1522.92,2576.71 1522.37,2572.27 1521.25,2569.36"/>
<path class="FiguredBass" d="M1494.07,2633.64 C1494.07,2633.64 1495.55,2633.86 1498.52,2634.29 C1499.82,2634.48 1501.28,2634.66 1502.88,2634.85 C1507.15,2635.34 1511.26,2635.59 1515.22,2635.59 C1519.18,2635.59 1523.36,2635.34 1527.75,2634.85 C1529.48,2634.66 1530.99,2634.48 1532.29,2634.29 L1536.84,2633.64 C1537.77,2633.64 1538.46,2633.95 1538.93,2634.57 C1539.39,2635.19 1539.34,2635.68 1538.79,2636.06 C1529.32,2645.52 1516,2650.25 1498.8,2650.25 C1498.12,2650.25 1497.52,2650.5 1496.99,2650.99 C1496.47,2651.49 1496.2,2652.1 1496.2,2652.85 L1496.2,2667.41 C1500.59,2663.08 1505.91,2660.92 1512.16,2660.92 C1521.19,2660.92 1528.16,2662.94 1533.08,2666.99 C1538,2671.05 1540.46,2677.18 1540.46,2685.41 C1540.46,2692.4 1537.67,2698.2 1532.11,2702.81 C1526.54,2707.41 1519.89,2709.72 1512.16,2709.72 C1505.48,2709.72 1499.68,2708.2 1494.77,2705.17 C1489.85,2702.14 1487.39,2697.93 1487.39,2692.55 C1487.39,2689.83 1488.38,2687.47 1490.36,2685.46 C1492.34,2683.45 1494.7,2682.44 1497.46,2682.44 C1500.21,2682.44 1502.54,2683.43 1504.46,2685.41 C1506.38,2687.39 1507.34,2689.77 1507.34,2692.55 C1507.34,2693.79 1506.32,2695.14 1504.27,2696.59 C1502.23,2698.04 1501.21,2699.39 1501.21,2700.63 C1501.21,2704.34 1504.86,2706.19 1512.16,2706.19 C1519.27,2706.19 1522.83,2699.26 1522.83,2685.41 C1522.83,2672.05 1519.27,2665.34 1512.16,2665.28 C1505.79,2665.28 1501.34,2666.58 1498.8,2669.18 C1496.27,2671.77 1494.69,2673.07 1494.07,2673.07 C1492.52,2673.07 1491.78,2672.3 1491.84,2670.75 L1491.84,2636.06 C1491.84,2635.37 1492.06,2634.8 1492.49,2634.34 C1492.93,2633.87 1493.45,2633.64 1494.07,2633.64"/>
<path class="FiguredBass" d="M2466.5,2529.84 C2468.85,2529.84 2471.32,2529.5 2473.92,2528.82 L2478.1,2527.71 C2478.9,2527.71 2479.53,2528.02 2480,2528.64 C2480.46,2529.25 2480.41,2529.81 2479.86,2530.31 L2436.72,2580.5 L2462.05,2580.5 L2462.05,2560.64 C2462.05,2559.22 2462.43,2558.12 2463.21,2557.35 C2463.98,2556.58 2464.97,2555.96 2466.17,2555.49 C2467.38,2555.03 2468.96,2553.65 2470.91,2551.36 C2472.85,2549.08 2474.72,2545.98 2476.52,2542.09 C2476.83,2541.47 2477.29,2541.16 2477.91,2541.16 C2479.21,2541.16 2479.86,2541.87 2479.86,2543.29 L2479.86,2580.5 L2490.81,2580.5 C2492.35,2580.5 2493.12,2581.21 2493.12,2582.63 C2493.12,2584.18 2492.35,2584.95 2490.81,2584.95 L2479.86,2584.95 L2479.86,2586.15 C2479.86,2589.99 2480.88,2593.33 2482.92,2596.17 C2484.96,2599.02 2487.59,2600.44 2490.81,2600.44 C2492.04,2600.44 2492.66,2601 2492.66,2602.11 C2492.66,2603.35 2492.04,2603.97 2490.81,2603.97 C2488.58,2603.97 2485.27,2603.64 2480.88,2602.99 C2476.49,2602.34 2473.16,2602.02 2470.91,2602.02 C2468.65,2602.02 2465.32,2602.34 2460.93,2602.99 C2456.54,2603.64 2453.23,2603.97 2451.01,2603.97 C2449.77,2603.97 2449.15,2603.35 2449.15,2602.11 C2449.15,2601 2449.77,2600.44 2451.01,2600.44 C2454.22,2600.44 2456.87,2599.02 2458.94,2596.17 C2461.01,2593.33 2462.05,2589.99 2462.05,2586.15 L2462.05,2584.95 L2436.72,2584.95 C2435.11,2584.95 2433.92,2584.56 2433.15,2583.79 C2432.37,2583.02 2431.99,2582.23 2431.99,2581.42 C2431.99,2581.11 2432.71,2580.05 2434.17,2578.22 C2435.62,2576.4 2437.4,2573.97 2439.5,2570.94 C2441.6,2567.91 2443.69,2564.46 2445.76,2560.6 C2447.84,2556.73 2449.6,2552.09 2451.05,2546.68 C2452.51,2541.27 2453.23,2535.81 2453.23,2530.31 C2453.23,2528.7 2453.91,2527.89 2455.27,2527.89 C2455.46,2527.89 2456.11,2528.05 2457.22,2528.36 C2458.33,2528.67 2459.76,2528.99 2461.49,2529.33 C2463.22,2529.67 2464.89,2529.84 2466.5,2529.84"/>
<path class="FiguredBass" d="M2479.02,2669.36 C2479.02,2670.35 2479.58,2671.31 2480.69,2672.24 C2481.81,2673.16 2483.03,2674.05 2484.36,2674.88 C2485.69,2675.72 2486.91,2677.29 2488.02,2679.61 C2489.14,2681.93 2489.69,2684.85 2489.69,2688.38 C2489.69,2695.18 2487.13,2700.44 2481.99,2704.15 C2476.86,2707.86 2470.36,2709.72 2462.51,2709.72 C2456.2,2709.72 2450.71,2708.14 2446.04,2704.99 C2441.37,2701.83 2439.04,2697.69 2439.04,2692.55 C2439.04,2689.83 2440.03,2687.47 2442.01,2685.46 C2443.99,2683.45 2446.35,2682.44 2449.1,2682.44 C2451.86,2682.44 2454.19,2683.43 2456.11,2685.41 C2458.03,2687.39 2458.98,2689.77 2458.98,2692.55 C2458.98,2693.79 2457.96,2695.14 2455.92,2696.59 C2453.88,2698.04 2452.86,2699.39 2452.86,2700.63 C2452.86,2702.54 2453.8,2703.95 2455.69,2704.85 C2457.58,2705.74 2459.85,2706.19 2462.51,2706.19 C2465.97,2706.19 2468.43,2704.48 2469.88,2701.04 C2471.34,2697.61 2472.07,2693.39 2472.07,2688.38 L2472.07,2685.97 C2472.07,2682.63 2471.96,2680.09 2471.74,2678.36 C2471.52,2676.63 2470.84,2675.08 2469.7,2673.72 C2468.56,2672.36 2466.81,2671.68 2464.46,2671.68 L2452.3,2671.68 C2450.88,2671.68 2450.17,2670.91 2450.17,2669.36 C2450.17,2667.94 2450.88,2667.23 2452.3,2667.23 L2464.46,2667.23 C2466.99,2667.23 2468.97,2666.27 2470.4,2664.35 C2470.89,2663.67 2471.29,2662.56 2471.6,2661.01 C2471.91,2658.97 2472.07,2656.03 2472.07,2652.2 L2472.07,2650.99 C2472.07,2641.78 2468.66,2637.17 2461.86,2637.17 C2455.86,2637.17 2452.86,2638.84 2452.86,2642.18 C2452.86,2643.29 2453.77,2644.48 2455.6,2645.75 C2457.42,2647.02 2458.33,2648.21 2458.33,2649.32 C2458.33,2651.73 2457.48,2653.81 2455.78,2655.54 C2454.08,2657.27 2452.01,2658.14 2449.57,2658.14 C2447.12,2658.14 2445.07,2657.27 2443.4,2655.54 C2441.73,2653.81 2440.89,2651.73 2440.89,2649.32 C2440.89,2644.56 2442.97,2640.76 2447.11,2637.91 C2451.25,2635.07 2456.17,2633.64 2461.86,2633.64 C2469.34,2633.64 2475.5,2635.08 2480.32,2637.96 C2485.15,2640.83 2487.56,2645.18 2487.56,2650.99 C2487.56,2655.14 2487.13,2658.35 2486.26,2660.64 C2485.39,2662.93 2484.4,2664.32 2483.29,2664.81 C2482.18,2665.31 2481.19,2665.88 2480.32,2666.53 C2479.46,2667.18 2479.02,2668.12 2479.02,2669.36"/>
<path class="FiguredBass" d="M3352.18,2603.97 C3346.18,2603.97 3341.82,2602.3 3339.1,2598.96 C3338.11,2597.72 3336.85,2596.58 3335.3,2595.52 C3333.75,2594.47 3332.05,2593.95 3330.2,2593.95 C3327.78,2593.95 3325.62,2594.71 3323.7,2596.22 C3321.79,2597.74 3320.83,2599.76 3320.83,2602.3 C3320.83,2603.41 3320.27,2603.97 3319.16,2603.97 C3317.92,2603.97 3317.3,2603.41 3317.3,2602.3 C3317.3,2598.52 3318.18,2595.08 3319.95,2591.95 C3321.71,2588.83 3323.92,2586.2 3326.58,2584.07 C3329.24,2581.93 3332.11,2579.65 3335.21,2577.2 C3338.3,2574.76 3341.16,2572.39 3343.79,2570.1 C3346.42,2567.82 3348.61,2564.93 3350.38,2561.43 C3352.14,2557.94 3353.02,2554.12 3353.02,2549.97 C3353.02,2544.78 3352.17,2540.39 3350.47,2536.8 C3348.77,2533.21 3346.09,2531.42 3342.44,2531.42 C3340.34,2531.42 3338.52,2531.93 3336.97,2532.95 C3335.42,2533.97 3334.65,2535.31 3334.65,2536.98 C3334.65,2538.28 3335.53,2539.98 3337.29,2542.09 C3339.06,2544.19 3339.94,2545.95 3339.94,2547.38 C3339.94,2550.34 3338.93,2552.83 3336.92,2554.84 C3334.91,2556.85 3332.49,2557.86 3329.64,2557.86 C3326.67,2557.86 3324.18,2556.82 3322.17,2554.75 C3320.16,2552.68 3319.16,2550.22 3319.16,2547.38 C3319.16,2541.69 3321.43,2537.02 3325.98,2533.37 C3330.52,2529.72 3336.01,2527.89 3342.44,2527.89 C3350.05,2527.89 3356.68,2529.95 3362.34,2534.06 C3368,2538.18 3370.83,2543.48 3370.83,2549.97 C3370.83,2554.36 3370.04,2558.17 3368.47,2561.38 C3366.89,2564.6 3364.63,2567.2 3361.69,2569.18 C3358.76,2571.16 3355.82,2572.84 3352.88,2574.23 C3349.94,2575.62 3346.49,2577.12 3342.54,2578.73 C3338.58,2580.34 3335.39,2581.92 3332.98,2583.46 C3334.28,2583.15 3335.61,2583 3336.97,2583 C3341.55,2583 3346.31,2584.48 3351.26,2587.45 C3356.2,2590.42 3360.1,2591.91 3362.95,2591.91 C3364.55,2591.91 3365.87,2591.61 3366.89,2591.03 C3367.91,2590.44 3368.57,2589.79 3368.88,2589.08 C3369.19,2588.37 3369.55,2587.7 3369.95,2587.08 C3370.35,2586.46 3370.8,2586.15 3371.3,2586.15 C3372.53,2586.15 3373.15,2586.77 3373.15,2588.01 C3373.15,2590.67 3371.23,2593.99 3367.4,2597.98 C3363.56,2601.97 3358.49,2603.97 3352.18,2603.97"/>
<path class="FiguredBass" d="M543.628,1761.58 C543.628,1761.58 545.113,1761.8 548.082,1762.23 C549.38,1762.42 550.834,1762.6 552.442,1762.79 C556.709,1763.28 560.822,1763.53 564.781,1763.53 C568.739,1763.53 572.914,1763.28 577.305,1762.79 C579.037,1762.6 580.552,1762.42 581.851,1762.23 L586.397,1761.58 C587.325,1761.58 588.021,1761.89 588.484,1762.51 C588.948,1763.13 588.902,1763.62 588.345,1763.99 C578.882,1773.46 565.554,1778.19 548.36,1778.19 C547.68,1778.19 547.076,1778.44 546.551,1778.93 C546.025,1779.43 545.762,1780.04 545.762,1780.79 L545.762,1795.35 C550.153,1791.02 555.472,1788.86 561.719,1788.86 C570.749,1788.86 577.723,1790.88 582.64,1794.93 C587.557,1798.99 590.015,1805.12 590.015,1813.35 C590.015,1820.34 587.232,1826.14 581.666,1830.74 C576.099,1835.35 569.45,1837.66 561.719,1837.66 C555.04,1837.66 549.241,1836.14 544.324,1833.11 C539.407,1830.08 536.949,1825.87 536.949,1820.49 C536.949,1817.77 537.938,1815.41 539.917,1813.4 C541.897,1811.39 544.262,1810.38 547.015,1810.38 C549.767,1810.38 552.102,1811.37 554.019,1813.35 C555.936,1815.33 556.895,1817.71 556.895,1820.49 C556.895,1821.73 555.875,1823.08 553.833,1824.53 C551.792,1825.98 550.772,1827.33 550.772,1828.56 C550.772,1832.28 554.421,1834.13 561.719,1834.13 C568.832,1834.13 572.388,1827.2 572.388,1813.35 C572.388,1799.99 568.832,1793.28 561.719,1793.22 C555.349,1793.22 550.896,1794.52 548.36,1797.11 C545.824,1799.71 544.247,1801.01 543.628,1801.01 C542.082,1801.01 541.34,1800.24 541.402,1798.69 L541.402,1763.99 C541.402,1763.31 541.618,1762.74 542.051,1762.28 C542.484,1761.81 543.01,1761.58 543.628,1761.58"/>
<path class="FiguredBass" d="M578.14,1903.05 C578.14,1904.04 578.697,1905 579.81,1905.93 C580.923,1906.85 582.145,1907.73 583.475,1908.57 C584.804,1909.4 586.026,1910.98 587.139,1913.3 C588.252,1915.62 588.809,1918.54 588.809,1922.07 C588.809,1928.87 586.242,1934.13 581.109,1937.84 C575.975,1941.55 569.481,1943.41 561.626,1943.41 C555.318,1943.41 549.829,1941.83 545.159,1938.67 C540.49,1935.52 538.155,1931.38 538.155,1926.24 C538.155,1923.52 539.144,1921.16 541.124,1919.15 C543.103,1917.14 545.468,1916.13 548.221,1916.13 C550.973,1916.13 553.308,1917.12 555.225,1919.1 C557.142,1921.08 558.101,1923.46 558.101,1926.24 C558.101,1927.48 557.081,1928.83 555.04,1930.28 C552.999,1931.73 551.978,1933.08 551.978,1934.31 C551.978,1936.23 552.921,1937.64 554.808,1938.54 C556.694,1939.43 558.967,1939.88 561.626,1939.88 C565.09,1939.88 567.548,1938.16 569.002,1934.73 C570.455,1931.3 571.182,1927.08 571.182,1922.07 L571.182,1919.66 C571.182,1916.32 571.074,1913.78 570.857,1912.05 C570.641,1910.32 569.961,1908.77 568.816,1907.41 C567.672,1906.05 565.925,1905.37 563.575,1905.37 L551.421,1905.37 C549.999,1905.37 549.288,1904.6 549.288,1903.05 C549.288,1901.63 549.999,1900.92 551.421,1900.92 L563.575,1900.92 C566.111,1900.92 568.09,1899.96 569.512,1898.04 C570.007,1897.36 570.409,1896.25 570.718,1894.7 C571.028,1892.66 571.182,1889.72 571.182,1885.89 L571.182,1884.68 C571.182,1875.47 567.78,1870.86 560.977,1870.86 C554.978,1870.86 551.978,1872.53 551.978,1875.87 C551.978,1876.98 552.89,1878.17 554.715,1879.44 C556.539,1880.71 557.452,1881.9 557.452,1883.01 C557.452,1885.42 556.601,1887.49 554.9,1889.23 C553.2,1890.96 551.128,1891.82 548.685,1891.82 C546.242,1891.82 544.185,1890.96 542.515,1889.23 C540.845,1887.49 540.01,1885.42 540.01,1883.01 C540.01,1878.25 542.082,1874.44 546.226,1871.6 C550.37,1868.75 555.287,1867.33 560.977,1867.33 C568.461,1867.33 574.615,1868.77 579.439,1871.65 C584.263,1874.52 586.675,1878.87 586.675,1884.68 C586.675,1888.82 586.242,1892.04 585.376,1894.33 C584.511,1896.62 583.521,1898.01 582.408,1898.5 C581.294,1899 580.305,1899.57 579.439,1900.22 C578.573,1900.87 578.14,1901.81 578.14,1903.05"/>
<path class="FiguredBass" d="M543.165,1979.95 C543.35,1979.95 543.752,1979.55 544.371,1978.74 C547.03,1974.97 550.741,1973.08 555.503,1973.08 C559.338,1973.08 562.956,1974.5 566.358,1977.35 C569.76,1980.19 572.574,1981.62 574.8,1981.62 C577.212,1981.62 579.501,1980.91 581.666,1979.48 C583.83,1978.06 585.547,1976.64 586.814,1975.22 C588.082,1973.79 588.902,1973.08 589.273,1973.08 C589.891,1973.08 590.448,1973.28 590.943,1973.68 C591.438,1974.09 591.685,1974.6 591.685,1975.22 C591.685,1975.65 590.417,1977.78 587.881,1981.62 C585.346,1985.45 582.531,1989.89 579.439,1994.93 C576.347,1999.97 573.532,2006.26 570.997,2013.81 C568.461,2021.36 567.193,2028.56 567.193,2035.43 C567.193,2038.09 567.471,2041.15 568.028,2044.61 C568.461,2047.27 568.461,2048.79 568.028,2049.16 C567.719,2049.47 567.193,2049.62 566.451,2049.62 C566.141,2049.62 564.703,2049.22 562.137,2048.41 C559.57,2047.61 557.111,2047.21 554.761,2047.21 C552.658,2047.21 550.231,2047.61 547.479,2048.41 C544.726,2049.22 543.195,2049.62 542.886,2049.62 C542.206,2049.62 541.649,2049.34 541.216,2048.79 C540.783,2048.23 540.722,2047.64 541.031,2047.02 C544.68,2038.3 549.118,2029.81 554.344,2021.56 C559.57,2013.3 566.111,2003.79 573.965,1993.03 C570.997,1994.64 567.997,1995.44 564.966,1995.44 C561.75,1995.44 558.503,1994 555.225,1991.13 C551.947,1988.25 549.257,1986.81 547.154,1986.81 C545.608,1986.81 544.262,1987.69 543.118,1989.46 C541.974,1991.22 541.402,1993.86 541.402,1997.39 L541.402,2008.8 C541.402,2010.35 540.691,2011.12 539.268,2011.12 C537.722,2011.12 536.949,2010.35 536.949,2008.8 L536.949,1975.4 C536.949,1973.86 537.722,1973.08 539.268,1973.08 C540.691,1973.08 541.402,1973.86 541.402,1975.4 L541.402,1977.54 C541.402,1978.03 541.526,1978.46 541.773,1978.83 C542.515,1979.58 542.979,1979.95 543.165,1979.95"/>
<path class="FiguredBass" d="M1528.58,1797.3 C1528.58,1798.29 1529.14,1799.25 1530.25,1800.18 C1531.36,1801.1 1532.59,1801.98 1533.92,1802.82 C1535.25,1803.65 1536.47,1805.23 1537.58,1807.55 C1538.69,1809.87 1539.25,1812.79 1539.25,1816.32 C1539.25,1823.12 1536.68,1828.38 1531.55,1832.09 C1526.42,1835.8 1519.92,1837.66 1512.07,1837.66 C1505.76,1837.66 1500.27,1836.08 1495.6,1832.92 C1490.93,1829.77 1488.6,1825.63 1488.6,1820.49 C1488.6,1817.77 1489.59,1815.41 1491.57,1813.4 C1493.54,1811.39 1495.91,1810.38 1498.66,1810.38 C1501.41,1810.38 1503.75,1811.37 1505.67,1813.35 C1507.58,1815.33 1508.54,1817.71 1508.54,1820.49 C1508.54,1821.73 1507.52,1823.08 1505.48,1824.53 C1503.44,1825.98 1502.42,1827.33 1502.42,1828.56 C1502.42,1830.48 1503.36,1831.89 1505.25,1832.79 C1507.14,1833.68 1509.41,1834.13 1512.07,1834.13 C1515.53,1834.13 1517.99,1832.41 1519.44,1828.98 C1520.9,1825.55 1521.62,1821.33 1521.62,1816.32 L1521.62,1813.91 C1521.62,1810.57 1521.52,1808.03 1521.3,1806.3 C1521.08,1804.57 1520.4,1803.02 1519.26,1801.66 C1518.11,1800.3 1516.37,1799.62 1514.02,1799.62 L1501.86,1799.62 C1500.44,1799.62 1499.73,1798.85 1499.73,1797.3 C1499.73,1795.88 1500.44,1795.17 1501.86,1795.17 L1514.02,1795.17 C1516.55,1795.17 1518.53,1794.21 1519.95,1792.29 C1520.45,1791.61 1520.85,1790.5 1521.16,1788.95 C1521.47,1786.91 1521.62,1783.97 1521.62,1780.14 L1521.62,1778.93 C1521.62,1769.72 1518.22,1765.11 1511.42,1765.11 C1505.42,1765.11 1502.42,1766.78 1502.42,1770.12 C1502.42,1771.23 1503.33,1772.42 1505.16,1773.69 C1506.98,1774.96 1507.89,1776.15 1507.89,1777.26 C1507.89,1779.67 1507.04,1781.74 1505.34,1783.48 C1503.64,1785.21 1501.57,1786.07 1499.13,1786.07 C1496.68,1786.07 1494.63,1785.21 1492.96,1783.48 C1491.29,1781.74 1490.45,1779.67 1490.45,1777.26 C1490.45,1772.5 1492.52,1768.69 1496.67,1765.85 C1500.81,1763 1505.73,1761.58 1511.42,1761.58 C1518.9,1761.58 1525.06,1763.02 1529.88,1765.9 C1534.7,1768.77 1537.12,1773.12 1537.12,1778.93 C1537.12,1783.07 1536.68,1786.29 1535.82,1788.58 C1534.95,1790.87 1533.96,1792.26 1532.85,1792.75 C1531.74,1793.25 1530.75,1793.82 1529.88,1794.47 C1529.01,1795.12 1528.58,1796.06 1528.58,1797.3"/>
<path class="FiguredBass" d="M1516.71,1870.86 C1512.13,1870.86 1509.08,1872.7 1507.57,1876.38 C1506.05,1880.06 1505.3,1885.27 1505.3,1892.01 L1505.3,1902.96 C1508.51,1901.66 1511.29,1900.98 1513.65,1900.92 C1521.69,1900.92 1528.01,1902.69 1532.62,1906.25 C1537.23,1909.81 1539.53,1915.09 1539.53,1922.11 C1539.53,1929.13 1537.19,1934.44 1532.52,1938.03 C1527.85,1941.61 1521.56,1943.41 1513.65,1943.41 C1505.54,1943.41 1499.2,1939.65 1494.63,1932.13 C1490.05,1924.62 1487.76,1915.7 1487.76,1905.37 C1487.76,1895.1 1490.42,1886.2 1495.74,1878.65 C1501.06,1871.1 1508.05,1867.33 1516.71,1867.33 C1522.4,1867.33 1527.31,1868.77 1531.46,1871.65 C1535.6,1874.52 1537.67,1878.31 1537.67,1883.01 C1537.67,1885.73 1536.68,1888.08 1534.7,1890.06 C1532.73,1892.04 1530.36,1893.03 1527.61,1893.03 C1524.86,1893.03 1522.49,1892.04 1520.51,1890.06 C1518.53,1888.08 1517.54,1885.73 1517.54,1883.01 C1517.54,1880.35 1518.53,1878 1520.51,1875.96 C1521.19,1875.16 1522.15,1874.48 1523.39,1873.92 C1523.08,1873.11 1522.46,1872.5 1521.53,1872.06 C1520.17,1871.26 1518.56,1870.86 1516.71,1870.86 M1521.25,1908.8 C1520.14,1905.89 1517.7,1904.44 1513.92,1904.44 C1510.15,1904.44 1507.82,1905.89 1506.92,1908.8 C1506.02,1911.71 1505.57,1916.13 1505.57,1922.07 C1505.57,1929.06 1506.02,1933.76 1506.92,1936.17 C1507.82,1938.58 1510.15,1939.79 1513.92,1939.79 C1517.7,1939.79 1520.14,1938.33 1521.25,1935.43 C1522.37,1932.52 1522.92,1928.08 1522.92,1922.11 C1522.92,1916.15 1522.37,1911.71 1521.25,1908.8"/>
<path class="FiguredBass" d="M1494.07,1973.08 C1494.07,1973.08 1495.55,1973.3 1498.52,1973.73 C1499.82,1973.92 1501.28,1974.1 1502.88,1974.29 C1507.15,1974.78 1511.26,1975.03 1515.22,1975.03 C1519.18,1975.03 1523.36,1974.78 1527.75,1974.29 C1529.48,1974.1 1530.99,1973.92 1532.29,1973.73 L1536.84,1973.08 C1537.77,1973.08 1538.46,1973.39 1538.93,1974.01 C1539.39,1974.63 1539.34,1975.12 1538.79,1975.49 C1529.32,1984.96 1516,1989.69 1498.8,1989.69 C1498.12,1989.69 1497.52,1989.94 1496.99,1990.43 C1496.47,1990.93 1496.2,1991.54 1496.2,1992.29 L1496.2,2006.85 C1500.59,2002.52 1505.91,2000.36 1512.16,2000.36 C1521.19,2000.36 1528.16,2002.38 1533.08,2006.43 C1538,2010.49 1540.46,2016.62 1540.46,2024.85 C1540.46,2031.84 1537.67,2037.64 1532.11,2042.24 C1526.54,2046.85 1519.89,2049.16 1512.16,2049.16 C1505.48,2049.16 1499.68,2047.64 1494.77,2044.61 C1489.85,2041.58 1487.39,2037.37 1487.39,2031.99 C1487.39,2029.27 1488.38,2026.91 1490.36,2024.9 C1492.34,2022.89 1494.7,2021.88 1497.46,2021.88 C1500.21,2021.88 1502.54,2022.87 1504.46,2024.85 C1506.38,2026.83 1507.34,2029.21 1507.34,2031.99 C1507.34,2033.23 1506.32,2034.58 1504.27,2036.03 C1502.23,2037.48 1501.21,2038.83 1501.21,2040.06 C1501.21,2043.78 1504.86,2045.63 1512.16,2045.63 C1519.27,2045.63 1522.83,2038.7 1522.83,2024.85 C1522.83,2011.49 1519.27,2004.78 1512.16,2004.72 C1505.79,2004.72 1501.34,2006.02 1498.8,2008.61 C1496.27,2011.21 1494.69,2012.51 1494.07,2012.51 C1492.52,2012.51 1491.78,2011.74 1491.84,2010.19 L1491.84,1975.49 C1491.84,1974.81 1492.06,1974.24 1492.49,1973.78 C1492.93,1973.31 1493.45,1973.08 1494.07,1973.08"/>
<path class="FiguredBass" d="M2467.15,1765.11 C2462.57,1765.11 2459.53,1766.95 2458.01,1770.63 C2456.49,1774.31 2455.74,1779.52 2455.74,1786.26 L2455.74,1797.21 C2458.95,1795.91 2461.74,1795.23 2464.09,1795.17 C2472.13,1795.17 2478.45,1796.94 2483.06,1800.5 C2487.67,1804.06 2489.97,1809.34 2489.97,1816.36 C2489.97,1823.38 2487.64,1828.69 2482.97,1832.28 C2478.3,1835.86 2472,1837.66 2464.09,1837.66 C2455.98,1837.66 2449.64,1833.9 2445.07,1826.38 C2440.49,1818.87 2438.2,1809.95 2438.2,1799.62 C2438.2,1789.35 2440.86,1780.45 2446.18,1772.9 C2451.5,1765.35 2458.49,1761.58 2467.15,1761.58 C2472.84,1761.58 2477.76,1763.02 2481.9,1765.9 C2486.04,1768.77 2488.11,1772.56 2488.11,1777.26 C2488.11,1779.98 2487.13,1782.33 2485.15,1784.31 C2483.17,1786.29 2480.8,1787.28 2478.05,1787.28 C2475.3,1787.28 2472.93,1786.29 2470.95,1784.31 C2468.97,1782.33 2467.98,1779.98 2467.98,1777.26 C2467.98,1774.6 2468.97,1772.25 2470.95,1770.21 C2471.63,1769.41 2472.59,1768.73 2473.83,1768.17 C2473.52,1767.36 2472.9,1766.75 2471.97,1766.31 C2470.61,1765.51 2469,1765.11 2467.15,1765.11 M2471.69,1803.05 C2470.58,1800.14 2468.14,1798.69 2464.36,1798.69 C2460.59,1798.69 2458.26,1800.14 2457.36,1803.05 C2456.46,1805.96 2456.02,1810.38 2456.02,1816.32 C2456.02,1823.31 2456.46,1828.01 2457.36,1830.42 C2458.26,1832.83 2460.59,1834.04 2464.36,1834.04 C2468.14,1834.04 2470.58,1832.58 2471.69,1829.68 C2472.81,1826.77 2473.36,1822.33 2473.36,1816.36 C2473.36,1810.4 2472.81,1805.96 2471.69,1803.05"/>
<path class="FiguredBass" d="M2466.5,1869.28 C2468.85,1869.28 2471.32,1868.94 2473.92,1868.26 L2478.1,1867.15 C2478.9,1867.15 2479.53,1867.46 2480,1868.07 C2480.46,1868.69 2480.41,1869.25 2479.86,1869.74 L2436.72,1919.93 L2462.05,1919.93 L2462.05,1900.08 C2462.05,1898.66 2462.43,1897.56 2463.21,1896.79 C2463.98,1896.01 2464.97,1895.4 2466.17,1894.93 C2467.38,1894.47 2468.96,1893.09 2470.91,1890.8 C2472.85,1888.52 2474.72,1885.42 2476.52,1881.53 C2476.83,1880.91 2477.29,1880.6 2477.91,1880.6 C2479.21,1880.6 2479.86,1881.31 2479.86,1882.73 L2479.86,1919.93 L2490.81,1919.93 C2492.35,1919.93 2493.12,1920.65 2493.12,1922.07 C2493.12,1923.61 2492.35,1924.39 2490.81,1924.39 L2479.86,1924.39 L2479.86,1925.59 C2479.86,1929.43 2480.88,1932.77 2482.92,1935.61 C2484.96,1938.46 2487.59,1939.88 2490.81,1939.88 C2492.04,1939.88 2492.66,1940.44 2492.66,1941.55 C2492.66,1942.79 2492.04,1943.41 2490.81,1943.41 C2488.58,1943.41 2485.27,1943.08 2480.88,1942.43 C2476.49,1941.78 2473.16,1941.46 2470.91,1941.46 C2468.65,1941.46 2465.32,1941.78 2460.93,1942.43 C2456.54,1943.08 2453.23,1943.41 2451.01,1943.41 C2449.77,1943.41 2449.15,1942.79 2449.15,1941.55 C2449.15,1940.44 2449.77,1939.88 2451.01,1939.88 C2454.22,1939.88 2456.87,1938.46 2458.94,1935.61 C2461.01,1932.77 2462.05,1929.43 2462.05,1925.59 L2462.05,1924.39 L2436.72,1924.39 C2435.11,1924.39 2433.92,1924 2433.15,1923.23 C2432.37,1922.45 2431.99,1921.67 2431.99,1920.86 C2431.99,1920.55 2432.71,1919.49 2434.17,1917.66 C2435.62,1915.84 2437.4,1913.41 2439.5,1910.38 C2441.6,1907.35 2443.69,1903.9 2445.76,1900.03 C2447.84,1896.17 2449.6,1891.53 2451.05,1886.12 C2452.51,1880.71 2453.23,1875.25 2453.23,1869.74 C2453.23,1868.14 2453.91,1867.33 2455.27,1867.33 C2455.46,1867.33 2456.11,1867.49 2457.22,1867.8 C2458.33,1868.11 2459.76,1868.43 2461.49,1868.77 C2463.22,1869.11 2464.89,1869.28 2466.5,1869.28"/>
<path class="FiguredBass" d="M2479.02,2008.8 C2479.02,2009.79 2479.58,2010.75 2480.69,2011.68 C2481.81,2012.6 2483.03,2013.48 2484.36,2014.32 C2485.69,2015.15 2486.91,2016.73 2488.02,2019.05 C2489.14,2021.37 2489.69,2024.29 2489.69,2027.82 C2489.69,2034.62 2487.13,2039.88 2481.99,2043.59 C2476.86,2047.3 2470.36,2049.16 2462.51,2049.16 C2456.2,2049.16 2450.71,2047.58 2446.04,2044.42 C2441.37,2041.27 2439.04,2037.13 2439.04,2031.99 C2439.04,2029.27 2440.03,2026.91 2442.01,2024.9 C2443.99,2022.89 2446.35,2021.88 2449.1,2021.88 C2451.86,2021.88 2454.19,2022.87 2456.11,2024.85 C2458.03,2026.83 2458.98,2029.21 2458.98,2031.99 C2458.98,2033.23 2457.96,2034.58 2455.92,2036.03 C2453.88,2037.48 2452.86,2038.83 2452.86,2040.06 C2452.86,2041.98 2453.8,2043.39 2455.69,2044.29 C2457.58,2045.18 2459.85,2045.63 2462.51,2045.63 C2465.97,2045.63 2468.43,2043.91 2469.88,2040.48 C2471.34,2037.05 2472.07,2032.83 2472.07,2027.82 L2472.07,2025.41 C2472.07,2022.07 2471.96,2019.53 2471.74,2017.8 C2471.52,2016.07 2470.84,2014.52 2469.7,2013.16 C2468.56,2011.8 2466.81,2011.12 2464.46,2011.12 L2452.3,2011.12 C2450.88,2011.12 2450.17,2010.35 2450.17,2008.8 C2450.17,2007.38 2450.88,2006.67 2452.3,2006.67 L2464.46,2006.67 C2466.99,2006.67 2468.97,2005.71 2470.4,2003.79 C2470.89,2003.11 2471.29,2002 2471.6,2000.45 C2471.91,1998.41 2472.07,1995.47 2472.07,1991.64 L2472.07,1990.43 C2472.07,1981.22 2468.66,1976.61 2461.86,1976.61 C2455.86,1976.61 2452.86,1978.28 2452.86,1981.62 C2452.86,1982.73 2453.77,1983.92 2455.6,1985.19 C2457.42,1986.46 2458.33,1987.65 2458.33,1988.76 C2458.33,1991.17 2457.48,1993.24 2455.78,1994.98 C2454.08,1996.71 2452.01,1997.57 2449.57,1997.57 C2447.12,1997.57 2445.07,1996.71 2443.4,1994.98 C2441.73,1993.24 2440.89,1991.17 2440.89,1988.76 C2440.89,1984 2442.97,1980.19 2447.11,1977.35 C2451.25,1974.5 2456.17,1973.08 2461.86,1973.08 C2469.34,1973.08 2475.5,1974.52 2480.32,1977.4 C2485.15,1980.27 2487.56,1984.62 2487.56,1990.43 C2487.56,1994.57 2487.13,1997.79 2486.26,2000.08 C2485.39,2002.37 2484.4,2003.76 2483.29,2004.25 C2482.18,2004.75 2481.19,2005.32 2480.32,2005.97 C2479.46,2006.62 2479.02,2007.56 2479.02,2008.8"/>
<path class="FiguredBass" d="M3348.01,1765.11 C3343.43,1765.11 3340.39,1766.95 3338.87,1770.63 C3337.36,1774.31 3336.6,1779.52 3336.6,1786.26 L3336.6,1797.21 C3339.81,1795.91 3342.6,1795.23 3344.95,1795.17 C3352.99,1795.17 3359.31,1796.94 3363.92,1800.5 C3368.53,1804.06 3370.83,1809.34 3370.83,1816.36 C3370.83,1823.38 3368.5,1828.69 3363.83,1832.28 C3359.16,1835.86 3352.86,1837.66 3344.95,1837.66 C3336.85,1837.66 3330.51,1833.9 3325.93,1826.38 C3321.35,1818.87 3319.06,1809.95 3319.06,1799.62 C3319.06,1789.35 3321.72,1780.45 3327.04,1772.9 C3332.36,1765.35 3339.35,1761.58 3348.01,1761.58 C3353.7,1761.58 3358.62,1763.02 3362.76,1765.9 C3366.9,1768.77 3368.98,1772.56 3368.98,1777.26 C3368.98,1779.98 3367.99,1782.33 3366.01,1784.31 C3364.03,1786.29 3361.66,1787.28 3358.91,1787.28 C3356.16,1787.28 3353.79,1786.29 3351.81,1784.31 C3349.83,1782.33 3348.84,1779.98 3348.84,1777.26 C3348.84,1774.6 3349.83,1772.25 3351.81,1770.21 C3352.49,1769.41 3353.45,1768.73 3354.69,1768.17 C3354.38,1767.36 3353.76,1766.75 3352.83,1766.31 C3351.47,1765.51 3349.86,1765.11 3348.01,1765.11 M3352.56,1803.05 C3351.44,1800.14 3349,1798.69 3345.23,1798.69 C3341.45,1798.69 3339.12,1800.14 3338.22,1803.05 C3337.32,1805.96 3336.88,1810.38 3336.88,1816.32 C3336.88,1823.31 3337.32,1828.01 3338.22,1830.42 C3339.12,1832.83 3341.45,1834.04 3345.23,1834.04 C3349,1834.04 3351.44,1832.58 3352.56,1829.68 C3353.67,1826.77 3354.23,1822.33 3354.23,1816.36 C3354.23,1810.4 3353.67,1805.96 3352.56,1803.05"/>
<path class="FiguredBass" d="M3347.36,1869.28 C3349.71,1869.28 3352.18,1868.94 3354.78,1868.26 L3358.96,1867.15 C3359.76,1867.15 3360.39,1867.46 3360.86,1868.07 C3361.32,1868.69 3361.28,1869.25 3360.72,1869.74 L3317.58,1919.93 L3342.91,1919.93 L3342.91,1900.08 C3342.91,1898.66 3343.29,1897.56 3344.07,1896.79 C3344.84,1896.01 3345.83,1895.4 3347.04,1894.93 C3348.24,1894.47 3349.82,1893.09 3351.77,1890.8 C3353.71,1888.52 3355.59,1885.42 3357.38,1881.53 C3357.69,1880.91 3358.15,1880.6 3358.77,1880.6 C3360.07,1880.6 3360.72,1881.31 3360.72,1882.73 L3360.72,1919.93 L3371.67,1919.93 C3373.21,1919.93 3373.99,1920.65 3373.99,1922.07 C3373.99,1923.61 3373.21,1924.39 3371.67,1924.39 L3360.72,1924.39 L3360.72,1925.59 C3360.72,1929.43 3361.74,1932.77 3363.78,1935.61 C3365.82,1938.46 3368.45,1939.88 3371.67,1939.88 C3372.9,1939.88 3373.52,1940.44 3373.52,1941.55 C3373.52,1942.79 3372.9,1943.41 3371.67,1943.41 C3369.44,1943.41 3366.13,1943.08 3361.74,1942.43 C3357.35,1941.78 3354.02,1941.46 3351.77,1941.46 C3349.51,1941.46 3346.18,1941.78 3341.79,1942.43 C3337.4,1943.08 3334.09,1943.41 3331.87,1943.41 C3330.63,1943.41 3330.01,1942.79 3330.01,1941.55 C3330.01,1940.44 3330.63,1939.88 3331.87,1939.88 C3335.08,1939.88 3337.73,1938.46 3339.8,1935.61 C3341.87,1932.77 3342.91,1929.43 3342.91,1925.59 L3342.91,1924.39 L3317.58,1924.39 C3315.97,1924.39 3314.78,1924 3314.01,1923.23 C3313.23,1922.45 3312.85,1921.67 3312.85,1920.86 C3312.85,1920.55 3313.57,1919.49 3315.03,1917.66 C3316.48,1915.84 3318.26,1913.41 3320.36,1910.38 C3322.47,1907.35 3324.55,1903.9 3326.63,1900.03 C3328.7,1896.17 3330.46,1891.53 3331.91,1886.12 C3333.37,1880.71 3334.09,1875.25 3334.09,1869.74 C3334.09,1868.14 3334.77,1867.33 3336.13,1867.33 C3336.32,1867.33 3336.97,1867.49 3338.08,1867.8 C3339.2,1868.11 3340.62,1868.43 3342.35,1868.77 C3344.08,1869.11 3345.75,1869.28 3347.36,1869.28"/>
<path class="FiguredBass" d="M3352.18,2049.16 C3346.18,2049.16 3341.82,2047.49 3339.1,2044.15 C3338.11,2042.91 3336.85,2041.77 3335.3,2040.71 C3333.75,2039.66 3332.05,2039.14 3330.2,2039.14 C3327.78,2039.14 3325.62,2039.89 3323.7,2041.41 C3321.79,2042.92 3320.83,2044.95 3320.83,2047.49 C3320.83,2048.6 3320.27,2049.16 3319.16,2049.16 C3317.92,2049.16 3317.3,2048.6 3317.3,2047.49 C3317.3,2043.71 3318.18,2040.27 3319.95,2037.14 C3321.71,2034.02 3323.92,2031.39 3326.58,2029.26 C3329.24,2027.12 3332.11,2024.83 3335.21,2022.39 C3338.3,2019.95 3341.16,2017.58 3343.79,2015.29 C3346.42,2013.01 3348.61,2010.11 3350.38,2006.62 C3352.14,2003.13 3353.02,1999.31 3353.02,1995.16 C3353.02,1989.97 3352.17,1985.58 3350.47,1981.99 C3348.77,1978.4 3346.09,1976.61 3342.44,1976.61 C3340.34,1976.61 3338.52,1977.12 3336.97,1978.14 C3335.42,1979.16 3334.65,1980.5 3334.65,1982.17 C3334.65,1983.47 3335.53,1985.17 3337.29,1987.28 C3339.06,1989.38 3339.94,1991.14 3339.94,1992.56 C3339.94,1995.53 3338.93,1998.02 3336.92,2000.03 C3334.91,2002.04 3332.49,2003.05 3329.64,2003.05 C3326.67,2003.05 3324.18,2002.01 3322.17,1999.94 C3320.16,1997.87 3319.16,1995.41 3319.16,1992.56 C3319.16,1986.87 3321.43,1982.2 3325.98,1978.56 C3330.52,1974.91 3336.01,1973.08 3342.44,1973.08 C3350.05,1973.08 3356.68,1975.14 3362.34,1979.25 C3368,1983.36 3370.83,1988.67 3370.83,1995.16 C3370.83,1999.55 3370.04,2003.36 3368.47,2006.57 C3366.89,2009.79 3364.63,2012.39 3361.69,2014.37 C3358.76,2016.35 3355.82,2018.03 3352.88,2019.42 C3349.94,2020.81 3346.49,2022.31 3342.54,2023.92 C3338.58,2025.53 3335.39,2027.11 3332.98,2028.65 C3334.28,2028.34 3335.61,2028.19 3336.97,2028.19 C3341.55,2028.19 3346.31,2029.67 3351.26,2032.64 C3356.2,2035.61 3360.1,2037.1 3362.95,2037.1 C3364.55,2037.1 3365.87,2036.8 3366.89,2036.21 C3367.91,2035.63 3368.57,2034.98 3368.88,2034.27 C3369.19,2033.55 3369.55,2032.89 3369.95,2032.27 C3370.35,2031.65 3370.8,2031.34 3371.3,2031.34 C3372.53,2031.34 3373.15,2031.96 3373.15,2033.2 C3373.15,2035.86 3371.23,2039.18 3367.4,2043.17 C3363.56,2047.16 3358.49,2049.16 3352.18,2049.16"/>
<polyline class="FretDiagram" stroke="#fc0107" stroke-width="4.76" stroke-linejoin="bevel" points="462.646,227.452 675.755,227.452"/>
<polyline class="FretDiagram" stroke="#fc0107" stroke-width="4.76" stroke-linejoin="bevel" points="465.027,215.547 465.027,441.751"/>
<polyline class="FretDiagram" stroke="#fc0107" stroke-width="4.76" stroke-linejoin="bevel" points="506.696,215.547 506.696,441.751"/>
<polyline class="FretDiagram" stroke="#fc0107" stroke-width="4.76" stroke-linejoin="bevel" points="548.366,215.547 548.366,441.751"/>
<polyline class="FretDiagram" stroke="#fc0107" stroke-width="4.76" stroke-linejoin="bevel" points="590.035,215.547 590.035,441.751"/>
<polyline class="FretDiagram" stroke="#fc0107" stroke-width="4.76" stroke-linejoin="bevel" points="631.704,215.547 631.704,441.751"/>
<polyline class="FretDiagram" stroke="#fc0107" stroke-width="4.76" stroke-linejoin="bevel" points="673.373,215.547 673.373,441.751"/>
<polyline class="FretDiagram" stroke="#fc0107" stroke-width="4.76" stroke-linejoin="bevel" points="465.027,275.074 673.373,275.074"/>
<polyline class="FretDiagram" stroke="#fc0107" stroke-width="4.76" stroke-linejoin="bevel" points="465.027,322.696 673.373,322.696"/>
<polyline class="FretDiagram" stroke="#fc0107" stroke-width="4.76" stroke-linejoin="bevel" points="465.027,370.318 673.373,370.318"/>
<polyline class="FretDiagram" stroke="#fc0107" stroke-width="4.76" stroke-linejoin="bevel" points="465.027,417.94 673.373,417.94"/>
<path class="FretDiagram" fill="#fc0107" fill-rule="evenodd" d="M562.95,251.263 C562.95,259.318 556.42,265.847 548.366,265.847 C540.311,265.847 533.781,259.318 533.781,251.263 C533.781,243.208 540.311,236.679 548.366,236.679 C556.42,236.679 562.95,243.208 562.95,251.263"/>
<path class="FretDiagram" fill="#fc0107" fill-rule="evenodd" d="M604.619,346.507 C604.619,354.562 598.09,361.091 590.035,361.091 C581.98,361.091 575.451,354.562 575.451,346.507 C575.451,338.453 581.98,331.923 590.035,331.923 C598.09,331.923 604.619,338.453 604.619,346.507"/>
<path class="FretDiagram" fill="#fc0107" fill-rule="evenodd" d="M646.288,298.885 C646.288,306.94 639.759,313.469 631.704,313.469 C623.649,313.469 617.12,306.94 617.12,298.885 C617.12,290.83 623.649,284.301 631.704,284.301 C639.759,284.301 646.288,290.83 646.288,298.885"/>
<path class="FretDiagram" fill="#fc0107" fill-rule="evenodd" d="M687.958,298.885 C687.958,306.94 681.428,313.469 673.373,313.469 C665.319,313.469 658.789,306.94 658.789,298.885 C658.789,290.83 665.319,284.301 673.373,284.301 C681.428,284.301 687.958,290.83 687.958,298.885"/>
<polyline class="FretDiagram" fill="none" stroke="#fc0107" stroke-width="6.86" stroke-linecap="round" stroke-linejoin="bevel" points="448.359,163.162 481.695,196.498"/>
<polyline class="FretDiagram" fill="none" stroke="#fc0107" stroke-width="6.86" stroke-linecap="round" stroke-linejoin="bevel" points="448.359,196.498 481.695,163.162"/>
<polyline class="FretDiagram" fill="none" stroke="#fc0107" stroke-width="6.86" stroke-linecap="round" stroke-linejoin="bevel" points="490.029,163.162 523.364,196.498"/>
<polyline class="FretDiagram" fill="none" stroke="#fc0107" stroke-width="6.86" stroke-linecap="round" stroke-linejoin="bevel" points="490.029,196.498 523.364,163.162"/>
<path class="FretDiagram" fill="#fc0107" d="M426.623,268.365 L398.218,268.365 L398.218,259.53 L428.808,217.16 L434.983,217.16 L434.983,260.86 L444.958,260.86 L444.958,268.365 L434.983,268.365 L434.983,284.515 L426.623,284.515 L426.623,268.365 M426.623,260.86 L426.623,231.41 L405.533,260.86 L426.623,260.86 "/>
<polyline class="FretDiagram" fill="#fc0107" stroke="#0000ff" stroke-width="4.76" stroke-linejoin="bevel" points="1413.09,227.452 1626.2,227.452"/>
<polyline class="FretDiagram" fill="#fc0107" stroke="#0000ff" stroke-width="4.76" stroke-linejoin="bevel" points="1415.47,215.547 1415.47,441.751"/>
<polyline class="FretDiagram" fill="#fc0107" stroke="#0000ff" stroke-width="4.76" stroke-linejoin="bevel" points="1457.14,215.547 1457.14,441.751"/>
<polyline class="FretDiagram" fill="#fc0107" stroke="#0000ff" stroke-width="4.76" stroke-linejoin="bevel" points="1498.81,215.547 1498.81,441.751"/>
<polyline class="FretDiagram" fill="#fc0107" stroke="#0000ff" stroke-width="4.76" stroke-linejoin="bevel" points="1540.48,215.547 1540.48,441.751"/>
<polyline class="FretDiagram" fill="#fc0107" stroke="#0000ff" stroke-width="4.76" stroke-linejoin="bevel" points="1582.15,215.547 1582.15,441.751"/>
<polyline class="FretDiagram" fill="#fc0107" stroke="#0000ff" stroke-width="4.76" stroke-linejoin="bevel" points="1623.81,215.547 1623.81,441.751"/>
<polyline class="FretDiagram" fill="#fc0107" stroke="#0000ff" stroke-width="4.76" stroke-linejoin="bevel" points="1415.47,275.074 1623.81,275.074"/>
<polyline class="FretDiagram" fill="#fc0107" stroke="#0000ff" stroke-width="4.76" stroke-linejoin="bevel" points="1415.47,322.696 1623.81,322.696"/>
<polyline class="FretDiagram" fill="#fc0107" stroke="#0000ff" stroke-width="4.76" stroke-linejoin="bevel" points="1415.47,370.318 1623.81,370.318"/>
<polyline class="FretDiagram" fill="#fc0107" stroke="#0000ff" stroke-width="4.76" stroke-linejoin="bevel" points="1415.47,417.94 1623.81,417.94"/>
<path class="FretDiagram" fill="#0000ff" fill-rule="evenodd" d="M1430.05,298.885 C1430.05,306.94 1423.52,313.469 1415.47,313.469 C1407.41,313.469 1400.88,306.94 1400.88,298.885 C1400.88,290.83 1407.41,284.301 1415.47,284.301 C1423.52,284.301 1430.05,290.83 1430.05,298.885"/>
<path class="FretDiagram" fill="#0000ff" fill-rule="evenodd" d="M1513.39,251.263 C1513.39,259.318 1506.86,265.847 1498.81,265.847 C1490.75,265.847 1484.22,259.318 1484.22,251.263 C1484.22,243.208 1490.75,236.679 1498.81,236.679 C1506.86,236.679 1513.39,243.208 1513.39,251.263"/>
<path class="FretDiagram" fill="#0000ff" fill-rule="evenodd" d="M1555.06,346.507 C1555.06,354.562 1548.53,361.091 1540.48,361.091 C1532.42,361.091 1525.89,354.562 1525.89,346.507 C1525.89,338.453 1532.42,331.923 1540.48,331.923 C1548.53,331.923 1555.06,338.453 1555.06,346.507"/>
<path class="FretDiagram" fill="#0000ff" fill-rule="evenodd" d="M1596.73,298.885 C1596.73,306.94 1590.2,313.469 1582.15,313.469 C1574.09,313.469 1567.56,306.94 1567.56,298.885 C1567.56,290.83 1574.09,284.301 1582.15,284.301 C1590.2,284.301 1596.73,290.83 1596.73,298.885"/>
<polyline class="FretDiagram" fill="none" stroke="#0000ff" stroke-width="6.86" stroke-linecap="round" stroke-linejoin="bevel" points="1440.47,163.162 1473.81,196.498"/>
<polyline class="FretDiagram" fill="none" stroke="#0000ff" stroke-width="6.86" stroke-linecap="round" stroke-linejoin="bevel" points="1440.47,196.498 1473.81,163.162"/>
<polyline class="FretDiagram" fill="none" stroke="#0000ff" stroke-width="6.86" stroke-linecap="round" stroke-linejoin="bevel" points="1607.15,163.162 1640.48,196.498"/>
<polyline class="FretDiagram" fill="none" stroke="#0000ff" stroke-width="6.86" stroke-linecap="round" stroke-linejoin="bevel" points="1607.15,196.498 1640.48,163.162"/>
<path class="FretDiagram" fill="#0000ff" d="M1377.06,268.365 L1348.66,268.365 L1348.66,259.53 L1379.25,217.16 L1385.42,217.16 L1385.42,260.86 L1395.4,260.86 L1395.4,268.365 L1385.42,268.365 L1385.42,284.515 L1377.06,284.515 L1377.06,268.365 M1377.06,260.86 L1377.06,231.41 L1355.97,260.86 L1377.06,260.86 "/>
<polyline class="FretDiagram" fill="#0000ff" stroke="#fc02ff" stroke-width="4.76" stroke-linejoin="bevel" points="2363.53,227.452 2576.64,227.452"/>
<polyline class="FretDiagram" fill="#0000ff" stroke="#fc02ff" stroke-width="4.76" stroke-linejoin="bevel" points="2365.91,215.547 2365.91,441.751"/>
<polyline class="FretDiagram" fill="#0000ff" stroke="#fc02ff" stroke-width="4.76" stroke-linejoin="bevel" points="2407.58,215.547 2407.58,441.751"/>
<polyline class="FretDiagram" fill="#0000ff" stroke="#fc02ff" stroke-width="4.76" stroke-linejoin="bevel" points="2449.25,215.547 2449.25,441.751"/>
<polyline class="FretDiagram" fill="#0000ff" stroke="#fc02ff" stroke-width="4.76" stroke-linejoin="bevel" points="2490.92,215.547 2490.92,441.751"/>
<polyline class="FretDiagram" fill="#0000ff" stroke="#fc02ff" stroke-width="4.76" stroke-linejoin="bevel" points="2532.59,215.547 2532.59,441.751"/>
<polyline class="FretDiagram" fill="#0000ff" stroke="#fc02ff" stroke-width="4.76" stroke-linejoin="bevel" points="2574.26,215.547 2574.26,441.751"/>
<polyline class="FretDiagram" fill="#0000ff" stroke="#fc02ff" stroke-width="4.76" stroke-linejoin="bevel" points="2365.91,275.074 2574.26,275.074"/>
<polyline class="FretDiagram" fill="#0000ff" stroke="#fc02ff" stroke-width="4.76" stroke-linejoin="bevel" points="2365.91,322.696 2574.26,322.696"/>
<polyline class="FretDiagram" fill="#0000ff" stroke="#fc02ff" stroke-width="4.76" stroke-linejoin="bevel" points="2365.91,370.318 2574.26,370.318"/>
<polyline class="FretDiagram" fill="#0000ff" stroke="#fc02ff" stroke-width="4.76" stroke-linejoin="bevel" points="2365.91,417.94 2574.26,417.94"/>
<path class="FretDiagram" fill="#fc02ff" fill-rule="evenodd" d="M2463.83,298.885 C2463.83,306.94 2457.3,313.469 2449.25,313.469 C2441.19,313.469 2434.66,306.94 2434.66,298.885 C2434.66,290.83 2441.19,284.301 2449.25,284.301 C2457.3,284.301 2463.83,290.83 2463.83,298.885"/>
<path class="FretDiagram" fill="#fc02ff" fill-rule="evenodd" d="M2547.17,346.507 C2547.17,354.562 2540.64,361.091 2532.59,361.091 C2524.53,361.091 2518,354.562 2518,346.507 C2518,338.453 2524.53,331.923 2532.59,331.923 C2540.64,331.923 2547.17,338.453 2547.17,346.507"/>
<polyline class="FretDiagram" fill="none" stroke="#fc02ff" stroke-width="6.86" stroke-linecap="round" stroke-linejoin="bevel" points="2349.24,163.162 2382.58,196.498"/>
<polyline class="FretDiagram" fill="none" stroke="#fc02ff" stroke-width="6.86" stroke-linecap="round" stroke-linejoin="bevel" points="2349.24,196.498 2382.58,163.162"/>
<path class="FretDiagram" fill="none" stroke="#fc02ff" stroke-width="6.86" stroke-linecap="round" stroke-linejoin="bevel" fill-rule="evenodd" d="M2424.25,179.83 C2424.25,189.035 2416.78,196.498 2407.58,196.498 C2398.37,196.498 2390.91,189.035 2390.91,179.83 C2390.91,170.625 2398.37,163.162 2407.58,163.162 C2416.78,163.162 2424.25,170.625 2424.25,179.83"/>
<path class="FretDiagram" fill="none" stroke="#fc02ff" stroke-width="6.86" stroke-linecap="round" stroke-linejoin="bevel" fill-rule="evenodd" d="M2507.59,179.83 C2507.59,189.035 2500.12,196.498 2490.92,196.498 C2481.71,196.498 2474.25,189.035 2474.25,179.83 C2474.25,170.625 2481.71,163.162 2490.92,163.162 C2500.12,163.162 2507.59,170.625 2507.59,179.83"/>
<polyline class="FretDiagram" fill="none" stroke="#fc02ff" stroke-width="6.86" stroke-linecap="round" stroke-linejoin="bevel" points="2557.59,163.162 2590.92,196.498"/>
<polyline class="FretDiagram" fill="none" stroke="#fc02ff" stroke-width="6.86" stroke-linecap="round" stroke-linejoin="bevel" points="2557.59,196.498 2590.92,163.162"/>
<polyline class="FretDiagram" fill="none" stroke="#fc02ff" stroke-width="29.17" stroke-linecap="round" stroke-linejoin="bevel" points="2407.58,251.263 2574.26,251.263"/>
<path class="FretDiagram" fill="#fc02ff" d="M2322.09,224.475 C2317.28,224.475 2313.97,225.789 2312.16,228.417 C2310.36,231.045 2309.39,234.545 2309.27,238.915 L2300.91,238.915 C2301.22,224.411 2308.25,217.16 2322,217.16 C2328.39,217.16 2333.41,218.806 2337.05,222.1 C2340.7,225.393 2342.52,229.921 2342.52,235.685 C2342.52,242.525 2339.38,247.18 2333.11,249.65 C2337.16,251.043 2340.08,252.99 2341.85,255.492 C2343.62,257.994 2344.51,261.398 2344.51,265.705 C2344.51,272.101 2342.44,277.2 2338.29,281 C2334.14,284.8 2328.61,286.7 2321.71,286.7 C2307.9,286.7 2300.49,279.448 2299.48,264.945 L2307.84,264.945 C2308.16,269.821 2309.46,273.431 2311.74,275.775 C2314.02,278.118 2317.44,279.29 2322,279.29 C2326.37,279.29 2329.79,278.102 2332.26,275.727 C2334.73,273.352 2335.96,270.043 2335.96,265.8 C2335.96,257.63 2331.31,253.545 2322,253.545 L2318.48,253.64 L2317.44,253.64 L2317.44,246.515 C2323.45,246.388 2327.71,245.628 2330.21,244.235 C2332.72,242.841 2333.97,240.086 2333.97,235.97 C2333.97,232.423 2332.91,229.62 2330.78,227.562 C2328.66,225.504 2325.76,224.475 2322.09,224.475"/>
<polyline class="FretDiagram" fill="#fc02ff" stroke="#fc02ff" stroke-width="4.76" stroke-linejoin="bevel" points="3244.39,227.452 3457.5,227.452"/>
<polyline class="FretDiagram" fill="#fc02ff" stroke="#fc02ff" stroke-width="4.76" stroke-linejoin="bevel" points="3246.77,215.547 3246.77,441.751"/>
<polyline class="FretDiagram" fill="#fc02ff" stroke="#fc02ff" stroke-width="4.76" stroke-linejoin="bevel" points="3288.44,215.547 3288.44,441.751"/>
<polyline class="FretDiagram" fill="#fc02ff" stroke="#fc02ff" stroke-width="4.76" stroke-linejoin="bevel" points="3330.11,215.547 3330.11,441.751"/>
<polyline class="FretDiagram" fill="#fc02ff" stroke="#fc02ff" stroke-width="4.76" stroke-linejoin="bevel" points="3371.78,215.547 3371.78,441.751"/>
<polyline class="FretDiagram" fill="#fc02ff" stroke="#fc02ff" stroke-width="4.76" stroke-linejoin="bevel" points="3413.45,215.547 3413.45,441.751"/>
<polyline class="FretDiagram" fill="#fc02ff" stroke="#fc02ff" stroke-width="4.76" stroke-linejoin="bevel" points="3455.12,215.547 3455.12,441.751"/>
<polyline class="FretDiagram" fill="#fc02ff" stroke="#fc02ff" stroke-width="4.76" stroke-linejoin="bevel" points="3246.77,275.074 3455.12,275.074"/>
<polyline class="FretDiagram" fill="#fc02ff" stroke="#fc02ff" stroke-width="4.76" stroke-linejoin="bevel" points="3246.77,322.696 3455.12,322.696"/>
<polyline class="FretDiagram" fill="#fc02ff" stroke="#fc02ff" stroke-width="4.76" stroke-linejoin="bevel" points="3246.77,370.318 3455.12,370.318"/>
<polyline class="FretDiagram" fill="#fc02ff" stroke="#fc02ff" stroke-width="4.76" stroke-linejoin="bevel" points="3246.77,417.94 3455.12,417.94"/>
<path class="FretDiagram" fill="#fc02ff" fill-rule="evenodd" d="M3303.02,346.507 C3303.02,354.562 3296.5,361.091 3288.44,361.091 C3280.39,361.091 3273.86,354.562 3273.86,346.507 C3273.86,338.453 3280.39,331.923 3288.44,331.923 C3296.5,331.923 3303.02,338.453 3303.02,346.507"/>
<path class="FretDiagram" fill="#fc02ff" fill-rule="evenodd" d="M3386.36,298.885 C3386.36,306.94 3379.83,313.469 3371.78,313.469 C3363.72,313.469 3357.19,306.94 3357.19,298.885 C3357.19,290.83 3363.72,284.301 3371.78,284.301 C3379.83,284.301 3386.36,290.83 3386.36,298.885"/>
<path class="FretDiagram" fill="#fc02ff" fill-rule="evenodd" d="M3428.03,346.507 C3428.03,354.562 3421.5,361.091 3413.45,361.091 C3405.39,361.091 3398.86,354.562 3398.86,346.507 C3398.86,338.453 3405.39,331.923 3413.45,331.923 C3421.5,331.923 3428.03,338.453 3428.03,346.507"/>
<path class="FretDiagram" fill="#fc02ff" fill-rule="evenodd" d="M3469.7,251.263 C3469.7,259.318 3463.17,265.847 3455.12,265.847 C3447.06,265.847 3440.53,259.318 3440.53,251.263 C3440.53,243.208 3447.06,236.679 3455.12,236.679 C3463.17,236.679 3469.7,243.208 3469.7,251.263"/>
<polyline class="FretDiagram" fill="none" stroke="#fc02ff" stroke-width="6.86" stroke-linecap="round" stroke-linejoin="bevel" points="3230.1,163.162 3263.44,196.498"/>
<polyline class="FretDiagram" fill="none" stroke="#fc02ff" stroke-width="6.86" stroke-linecap="round" stroke-linejoin="bevel" points="3230.1,196.498 3263.44,163.162"/>
<polyline class="FretDiagram" fill="none" stroke="#fc02ff" stroke-width="6.86" stroke-linecap="round" stroke-linejoin="bevel" points="3313.44,163.162 3346.78,196.498"/>
<polyline class="FretDiagram" fill="none" stroke="#fc02ff" stroke-width="6.86" stroke-linecap="round" stroke-linejoin="bevel" points="3313.44,196.498 3346.78,163.162"/>
<path class="FretDiagram" fill="#fc02ff" d="M3222.52,217.16 L3222.52,225.425 L3194.5,225.425 L3191.84,244.235 C3195.57,241.511 3199.72,240.15 3204.28,240.15 C3210.74,240.15 3215.98,242.224 3220,246.372 C3224.03,250.52 3226.04,255.92 3226.04,262.57 C3226.04,269.663 3223.88,275.458 3219.58,279.955 C3215.27,284.451 3209.73,286.7 3202.95,286.7 C3200.36,286.7 3197.96,286.415 3195.78,285.845 C3193.59,285.275 3191.79,284.594 3190.36,283.802 C3188.94,283.01 3187.64,281.965 3186.47,280.667 C3185.3,279.369 3184.41,278.229 3183.81,277.247 C3183.21,276.265 3182.64,275.03 3182.1,273.542 C3181.56,272.054 3181.23,271.025 3181.1,270.455 C3180.98,269.885 3180.82,269.061 3180.63,267.985 L3188.99,267.985 C3190.95,275.521 3195.54,279.29 3202.76,279.29 C3207.32,279.29 3210.92,277.896 3213.54,275.11 C3216.17,272.323 3217.49,268.523 3217.49,263.71 C3217.49,258.706 3216.16,254.764 3213.5,251.882 C3210.84,249 3207.26,247.56 3202.76,247.56 C3200.17,247.56 3197.95,248.019 3196.11,248.937 C3194.28,249.855 3192.38,251.486 3190.41,253.83 L3182.72,253.83 L3187.75,217.16 L3222.52,217.16 "/>
<path class="Bracket" transform="matrix(8.6315,0,0,10.0442,76.1283,2396.23)" d="M0.92002,-50 C2.69004,-51.88 6.2,-55.8 6.2,-63 C6.2,-72.1 2.25996,-81.32 2.25996,-86.97 C2.25996,-93.06 5.84004,-98.84 5.95,-99 C6.05996,-99.16 6.05,-99.39 5.94004,-99.46 C5.82998,-99.53 5.62002,-99.47 5.49004,-99.32 C5.35996,-99.17 0,-93.75 0,-85.6 C0,-76.75 3.5,-70.58 3.5,-59.07 C3.5,-56.89 2.55996,-53.36 0.1,-50.33 C-0.0799805,-50.17 -0.1,-49.89 0.0599609,-49.7 L0.0700195,-49.69 L0.1,-49.66 C2.55996,-46.63 3.5,-43.1 3.5,-40.92 C3.5,-29.4 0,-23.24 0,-14.39 C0,-6.25 5.35996,-0.8 5.49004,-0.659961 C5.62002,-0.52002 5.8,-0.42998 5.94004,-0.52002 C6.07998,-0.609961 6.07998,-0.77998 5.95,-0.97998 C5.82002,-1.17998 2.25996,-6.92002 2.25996,-13.01 C2.25996,-18.66 6.2,-27.9 6.2,-37 C6.2,-44.3 2.69004,-48.12 0.92002,-50"/>
</svg>
