<?xml version="1.0" encoding="UTF-8" standalone="no"?>
<svg width="850.392px" height="566.928px" viewBox="0 0 850.392 566.928"
 xmlns="http://www.w3.org/2000/svg" xmlns:xlink="http://www.w3.org/1999/xlink" version="1.2" baseProfile="tiny">
<title>La Mineur (12)</title>
<desc>Generated by MuseScore 3.6.2</desc>
<polyline class="StaffLines" fill="none" stroke="#000000" stroke-width="1.25" stroke-linejoin="bevel" points="29.3071,107.717 836.219,107.717"/>
<polyline class="StaffLines" fill="none" stroke="#000000" stroke-width="1.25" stroke-linejoin="bevel" points="29.3071,124.724 836.219,124.724"/>
<polyline class="StaffLines" fill="none" stroke="#000000" stroke-width="1.25" stroke-linejoin="bevel" points="29.3071,141.732 836.219,141.732"/>
<polyline class="StaffLines" fill="none" stroke="#000000" stroke-width="1.25" stroke-linejoin="bevel" points="29.3071,158.74 836.219,158.74"/>
<polyline class="StaffLines" fill="none" stroke="#000000" stroke-width="1.25" stroke-linejoin="bevel" points="29.3071,175.748 836.219,175.748"/>
<polyline class="StaffLines" fill="none" stroke="#000000" stroke-width="1.25" stroke-linejoin="bevel" points="29.3071,192.756 836.219,192.756"/>
<polyline class="StaffLines" fill="none" stroke="#000000" stroke-width="1.25" stroke-linejoin="bevel" points="29.3071,266.457 836.219,266.457"/>
<polyline class="StaffLines" fill="none" stroke="#000000" stroke-width="1.25" stroke-linejoin="bevel" points="29.3071,277.795 836.219,277.795"/>
<polyline class="StaffLines" fill="none" stroke="#000000" stroke-width="1.25" stroke-linejoin="bevel" points="29.3071,289.134 836.219,289.134"/>
<polyline class="StaffLines" fill="none" stroke="#000000" stroke-width="1.25" stroke-linejoin="bevel" points="29.3071,300.472 836.219,300.472"/>
<polyline class="StaffLines" fill="none" stroke="#000000" stroke-width="1.25" stroke-linejoin="bevel" points="29.3071,311.811 836.219,311.811"/>
<polyline class="StaffLines" fill="none" stroke="#000000" stroke-width="1.25" stroke-linejoin="bevel" points="29.3071,412.086 836.219,412.086"/>
<polyline class="StaffLines" fill="none" stroke="#000000" stroke-width="1.25" stroke-linejoin="bevel" points="29.3071,423.424 836.219,423.424"/>
<polyline class="StaffLines" fill="none" stroke="#000000" stroke-width="1.25" stroke-linejoin="bevel" points="29.3071,434.763 836.219,434.763"/>
<polyline class="StaffLines" fill="none" stroke="#000000" stroke-width="1.25" stroke-linejoin="bevel" points="29.3071,446.102 836.219,446.102"/>
<polyline class="StaffLines" fill="none" stroke="#000000" stroke-width="1.25" stroke-linejoin="bevel" points="29.3071,457.44 836.219,457.44"/>
<polyline class="BarLine" fill="none" stroke="#000000" stroke-width="2.04" stroke-linejoin="bevel" points="30.3276,411.462 30.3276,458.064"/>
<polyline class="BarLine" fill="none" stroke="#000000" stroke-width="2.04" stroke-linejoin="bevel" points="268.777,411.462 268.777,458.064"/>
<polyline class="BarLine" fill="none" stroke="#000000" stroke-width="2.04" stroke-linejoin="bevel" points="449.318,411.462 449.318,458.064"/>
<polyline class="BarLine" fill="none" stroke="#000000" stroke-width="2.04" stroke-linejoin="bevel" points="644.623,411.462 644.623,458.064"/>
<polyline class="BarLine" fill="none" stroke="#000000" stroke-width="2.04" stroke-linejoin="bevel" points="825.164,411.462 825.164,458.064"/>
<polyline class="BarLine" fill="none" stroke="#000000" stroke-width="6.24" stroke-linejoin="bevel" points="833.101,411.462 833.101,458.064"/>
<polyline class="BarLine" fill="none" stroke="#000000" stroke-width="2.04" stroke-linejoin="bevel" points="30.3276,265.833 30.3276,412.086"/>
<polyline class="BarLine" fill="none" stroke="#000000" stroke-width="2.04" stroke-linejoin="bevel" points="268.777,265.833 268.777,312.435"/>
<polyline class="BarLine" fill="none" stroke="#000000" stroke-width="2.04" stroke-linejoin="bevel" points="449.318,265.833 449.318,312.435"/>
<polyline class="BarLine" fill="none" stroke="#000000" stroke-width="2.04" stroke-linejoin="bevel" points="644.623,265.833 644.623,312.435"/>
<polyline class="BarLine" fill="none" stroke="#000000" stroke-width="2.04" stroke-linejoin="bevel" points="825.164,265.833 825.164,312.435"/>
<polyline class="BarLine" fill="none" stroke="#000000" stroke-width="6.24" stroke-linejoin="bevel" points="833.101,265.833 833.101,312.435"/>
<polyline class="BarLine" fill="none" stroke="#000000" stroke-width="2.04" stroke-linejoin="bevel" points="30.3276,107.093 30.3276,266.457"/>
<polyline class="BarLine" fill="none" stroke="#000000" stroke-width="2.04" stroke-linejoin="bevel" points="268.777,107.093 268.777,193.38"/>
<polyline class="BarLine" fill="none" stroke="#000000" stroke-width="2.04" stroke-linejoin="bevel" points="449.318,107.093 449.318,193.38"/>
<polyline class="BarLine" fill="none" stroke="#000000" stroke-width="2.04" stroke-linejoin="bevel" points="644.623,107.093 644.623,193.38"/>
<polyline class="BarLine" fill="none" stroke="#000000" stroke-width="2.04" stroke-linejoin="bevel" points="825.164,107.093 825.164,193.38"/>
<polyline class="BarLine" fill="none" stroke="#000000" stroke-width="6.24" stroke-linejoin="bevel" points="833.101,107.093 833.101,193.38"/>
<path class="Accidental" transform="matrix(0.453543,0,0,0.453543,280.752,417.755)" d="M23.3,-10.6 C23.9,-10.7 24.4,-11.4 24.4,-12 L24.4,-17.9 C24.4,-18.7 23.8,-19.3 23,-19.3 L22.8,-19.3 L19.5,-18.6 L19.5,-33.5 L16.7,-33.5 L16.7,-18 L7.8,-16.2 L7.8,-30.3 L5,-30.3 L5,-15.6 L1.1,-14.8 C0.5,-14.7 0,-14 0,-13.4 L0,-13.2 L0,-7.4 L0,-7.6 C0,-6.8 0.6,-6.2 1.4,-6.2 L1.7,-6.2 L5,-6.9 L5,9.6 L1.1,10.4 C0.5,10.5 0,11.2 0,11.8 L0,17.6 C0,18.4 0.6,19 1.4,19 L1.7,19 L5,18.3 L5,33.2 L7.8,33.2 L7.8,17.7 L16.7,15.9 L16.7,30 L19.5,30 L19.5,15.3 L23.3,14.6 C23.9,14.5 24.4,13.8 24.4,13.2 L24.4,7.3 C24.4,6.5 23.8,5.9 23,5.9 L22.8,5.9 L19.5,6.6 L19.5,-9.9 L23.3,-10.6 M7.8,9.1 L7.8,-7.5 L16.7,-9.3 L16.7,7.2 L7.8,9.1 "/>
<path class="Accidental" transform="matrix(0.453543,0,0,0.453543,97.7957,300.472)" d="M23.3,-10.6 C23.9,-10.7 24.4,-11.4 24.4,-12 L24.4,-17.9 C24.4,-18.7 23.8,-19.3 23,-19.3 L22.8,-19.3 L19.5,-18.6 L19.5,-33.5 L16.7,-33.5 L16.7,-18 L7.8,-16.2 L7.8,-30.3 L5,-30.3 L5,-15.6 L1.1,-14.8 C0.5,-14.7 0,-14 0,-13.4 L0,-13.2 L0,-7.4 L0,-7.6 C0,-6.8 0.6,-6.2 1.4,-6.2 L1.7,-6.2 L5,-6.9 L5,9.6 L1.1,10.4 C0.5,10.5 0,11.2 0,11.8 L0,17.6 C0,18.4 0.6,19 1.4,19 L1.7,19 L5,18.3 L5,33.2 L7.8,33.2 L7.8,17.7 L16.7,15.9 L16.7,30 L19.5,30 L19.5,15.3 L23.3,14.6 C23.9,14.5 24.4,13.8 24.4,13.2 L24.4,7.3 C24.4,6.5 23.8,5.9 23,5.9 L22.8,5.9 L19.5,6.6 L19.5,-9.9 L23.3,-10.6 M7.8,9.1 L7.8,-7.5 L16.7,-9.3 L16.7,7.2 L7.8,9.1 "/>
<path class="Accidental" transform="matrix(0.453543,0,0,0.453543,461.293,300.472)" d="M23.3,-10.6 C23.9,-10.7 24.4,-11.4 24.4,-12 L24.4,-17.9 C24.4,-18.7 23.8,-19.3 23,-19.3 L22.8,-19.3 L19.5,-18.6 L19.5,-33.5 L16.7,-33.5 L16.7,-18 L7.8,-16.2 L7.8,-30.3 L5,-30.3 L5,-15.6 L1.1,-14.8 C0.5,-14.7 0,-14 0,-13.4 L0,-13.2 L0,-7.4 L0,-7.6 C0,-6.8 0.6,-6.2 1.4,-6.2 L1.7,-6.2 L5,-6.9 L5,9.6 L1.1,10.4 C0.5,10.5 0,11.2 0,11.8 L0,17.6 C0,18.4 0.6,19 1.4,19 L1.7,19 L5,18.3 L5,33.2 L7.8,33.2 L7.8,17.7 L16.7,15.9 L16.7,30 L19.5,30 L19.5,15.3 L23.3,14.6 C23.9,14.5 24.4,13.8 24.4,13.2 L24.4,7.3 C24.4,6.5 23.8,5.9 23,5.9 L22.8,5.9 L19.5,6.6 L19.5,-9.9 L23.3,-10.6 M7.8,9.1 L7.8,-7.5 L16.7,-9.3 L16.7,7.2 L7.8,9.1 "/>
<path class="Accidental" transform="matrix(0.453543,0,0,0.453543,656.597,300.472)" d="M23.3,-10.6 C23.9,-10.7 24.4,-11.4 24.4,-12 L24.4,-17.9 C24.4,-18.7 23.8,-19.3 23,-19.3 L22.8,-19.3 L19.5,-18.6 L19.5,-33.5 L16.7,-33.5 L16.7,-18 L7.8,-16.2 L7.8,-30.3 L5,-30.3 L5,-15.6 L1.1,-14.8 C0.5,-14.7 0,-14 0,-13.4 L0,-13.2 L0,-7.4 L0,-7.6 C0,-6.8 0.6,-6.2 1.4,-6.2 L1.7,-6.2 L5,-6.9 L5,9.6 L1.1,10.4 C0.5,10.5 0,11.2 0,11.8 L0,17.6 C0,18.4 0.6,19 1.4,19 L1.7,19 L5,18.3 L5,33.2 L7.8,33.2 L7.8,17.7 L16.7,15.9 L16.7,30 L19.5,30 L19.5,15.3 L23.3,14.6 C23.9,14.5 24.4,13.8 24.4,13.2 L24.4,7.3 C24.4,6.5 23.8,5.9 23,5.9 L22.8,5.9 L19.5,6.6 L19.5,-9.9 L23.3,-10.6 M7.8,9.1 L7.8,-7.5 L16.7,-9.3 L16.7,7.2 L7.8,9.1 "/>
<path class="Note" transform="matrix(0.453543,0,0,0.453543,111.696,429.094)" d="M18.7,-13.6 C4.9,-13.6 0,-6.6 0,-0.1 C0,6.4 4.9,13.4 18.7,13.4 C32.5,13.4 37.3,6.4 37.3,-0.1 C37.3,-6.6 32.5,-13.6 18.7,-13.6 M10.4,-4.5 C10.3,-4.9 10.3,-5.3 10.3,-5.7 C10.3,-6.5 10.5,-7.3 10.9,-8 C11.6,-9 12.8,-9.7 14.3,-10 C15.6,-10.3 16.3,-10.5 18.9,-10.5 L19,-10.5 C23,-10.5 24.3,-6.8 25.4,-3 L25.7,-2 C26.5,0.6 26.9,2.8 26.9,4.5 C26.9,5.7 26.7,6.8 26.3,7.6 C25.7,8.7 24.7,9.4 23,9.8 C22.1,10 20.6,10.1 20.6,10.1 C20.1,10.1 19.7,10.2 19.3,10.2 C16.1,10.2 14.1,9 12.7,4.7 C11.5,1 11.3,-0.1 10.4,-4.5"/>
<path class="Note" transform="matrix(0.453543,0,0,0.453543,294.652,417.755)" d="M18.7,-13.6 C4.9,-13.6 0,-6.6 0,-0.1 C0,6.4 4.9,13.4 18.7,13.4 C32.5,13.4 37.3,6.4 37.3,-0.1 C37.3,-6.6 32.5,-13.6 18.7,-13.6 M10.4,-4.5 C10.3,-4.9 10.3,-5.3 10.3,-5.7 C10.3,-6.5 10.5,-7.3 10.9,-8 C11.6,-9 12.8,-9.7 14.3,-10 C15.6,-10.3 16.3,-10.5 18.9,-10.5 L19,-10.5 C23,-10.5 24.3,-6.8 25.4,-3 L25.7,-2 C26.5,0.6 26.9,2.8 26.9,4.5 C26.9,5.7 26.7,6.8 26.3,7.6 C25.7,8.7 24.7,9.4 23,9.8 C22.1,10 20.6,10.1 20.6,10.1 C20.1,10.1 19.7,10.2 19.3,10.2 C16.1,10.2 14.1,9 12.7,4.7 C11.5,1 11.3,-0.1 10.4,-4.5"/>
<path class="Note" transform="matrix(0.453543,0,0,0.453543,489.957,406.417)" d="M18.7,-13.6 C4.9,-13.6 0,-6.6 0,-0.1 C0,6.4 4.9,13.4 18.7,13.4 C32.5,13.4 37.3,6.4 37.3,-0.1 C37.3,-6.6 32.5,-13.6 18.7,-13.6 M10.4,-4.5 C10.3,-4.9 10.3,-5.3 10.3,-5.7 C10.3,-6.5 10.5,-7.3 10.9,-8 C11.6,-9 12.8,-9.7 14.3,-10 C15.6,-10.3 16.3,-10.5 18.9,-10.5 L19,-10.5 C23,-10.5 24.3,-6.8 25.4,-3 L25.7,-2 C26.5,0.6 26.9,2.8 26.9,4.5 C26.9,5.7 26.7,6.8 26.3,7.6 C25.7,8.7 24.7,9.4 23,9.8 C22.1,10 20.6,10.1 20.6,10.1 C20.1,10.1 19.7,10.2 19.3,10.2 C16.1,10.2 14.1,9 12.7,4.7 C11.5,1 11.3,-0.1 10.4,-4.5"/>
<path class="Note" transform="matrix(0.453543,0,0,0.453543,670.498,434.763)" d="M18.7,-13.6 C4.9,-13.6 0,-6.6 0,-0.1 C0,6.4 4.9,13.4 18.7,13.4 C32.5,13.4 37.3,6.4 37.3,-0.1 C37.3,-6.6 32.5,-13.6 18.7,-13.6 M10.4,-4.5 C10.3,-4.9 10.3,-5.3 10.3,-5.7 C10.3,-6.5 10.5,-7.3 10.9,-8 C11.6,-9 12.8,-9.7 14.3,-10 C15.6,-10.3 16.3,-10.5 18.9,-10.5 L19,-10.5 C23,-10.5 24.3,-6.8 25.4,-3 L25.7,-2 C26.5,0.6 26.9,2.8 26.9,4.5 C26.9,5.7 26.7,6.8 26.3,7.6 C25.7,8.7 24.7,9.4 23,9.8 C22.1,10 20.6,10.1 20.6,10.1 C20.1,10.1 19.7,10.2 19.3,10.2 C16.1,10.2 14.1,9 12.7,4.7 C11.5,1 11.3,-0.1 10.4,-4.5"/>
<path class="Note" transform="matrix(0.453543,0,0,0.453543,111.696,300.472)" d="M18.7,-13.6 C4.9,-13.6 0,-6.6 0,-0.1 C0,6.4 4.9,13.4 18.7,13.4 C32.5,13.4 37.3,6.4 37.3,-0.1 C37.3,-6.6 32.5,-13.6 18.7,-13.6 M10.4,-4.5 C10.3,-4.9 10.3,-5.3 10.3,-5.7 C10.3,-6.5 10.5,-7.3 10.9,-8 C11.6,-9 12.8,-9.7 14.3,-10 C15.6,-10.3 16.3,-10.5 18.9,-10.5 L19,-10.5 C23,-10.5 24.3,-6.8 25.4,-3 L25.7,-2 C26.5,0.6 26.9,2.8 26.9,4.5 C26.9,5.7 26.7,6.8 26.3,7.6 C25.7,8.7 24.7,9.4 23,9.8 C22.1,10 20.6,10.1 20.6,10.1 C20.1,10.1 19.7,10.2 19.3,10.2 C16.1,10.2 14.1,9 12.7,4.7 C11.5,1 11.3,-0.1 10.4,-4.5"/>
<path class="Note" transform="matrix(0.453543,0,0,0.453543,111.696,289.134)" d="M18.7,-13.6 C4.9,-13.6 0,-6.6 0,-0.1 C0,6.4 4.9,13.4 18.7,13.4 C32.5,13.4 37.3,6.4 37.3,-0.1 C37.3,-6.6 32.5,-13.6 18.7,-13.6 M10.4,-4.5 C10.3,-4.9 10.3,-5.3 10.3,-5.7 C10.3,-6.5 10.5,-7.3 10.9,-8 C11.6,-9 12.8,-9.7 14.3,-10 C15.6,-10.3 16.3,-10.5 18.9,-10.5 L19,-10.5 C23,-10.5 24.3,-6.8 25.4,-3 L25.7,-2 C26.5,0.6 26.9,2.8 26.9,4.5 C26.9,5.7 26.7,6.8 26.3,7.6 C25.7,8.7 24.7,9.4 23,9.8 C22.1,10 20.6,10.1 20.6,10.1 C20.1,10.1 19.7,10.2 19.3,10.2 C16.1,10.2 14.1,9 12.7,4.7 C11.5,1 11.3,-0.1 10.4,-4.5"/>
<path class="Note" transform="matrix(0.453543,0,0,0.453543,111.696,277.795)" d="M18.7,-13.6 C4.9,-13.6 0,-6.6 0,-0.1 C0,6.4 4.9,13.4 18.7,13.4 C32.5,13.4 37.3,6.4 37.3,-0.1 C37.3,-6.6 32.5,-13.6 18.7,-13.6 M10.4,-4.5 C10.3,-4.9 10.3,-5.3 10.3,-5.7 C10.3,-6.5 10.5,-7.3 10.9,-8 C11.6,-9 12.8,-9.7 14.3,-10 C15.6,-10.3 16.3,-10.5 18.9,-10.5 L19,-10.5 C23,-10.5 24.3,-6.8 25.4,-3 L25.7,-2 C26.5,0.6 26.9,2.8 26.9,4.5 C26.9,5.7 26.7,6.8 26.3,7.6 C25.7,8.7 24.7,9.4 23,9.8 C22.1,10 20.6,10.1 20.6,10.1 C20.1,10.1 19.7,10.2 19.3,10.2 C16.1,10.2 14.1,9 12.7,4.7 C11.5,1 11.3,-0.1 10.4,-4.5"/>
<path class="Note" transform="matrix(0.453543,0,0,0.453543,294.652,289.134)" d="M18.7,-13.6 C4.9,-13.6 0,-6.6 0,-0.1 C0,6.4 4.9,13.4 18.7,13.4 C32.5,13.4 37.3,6.4 37.3,-0.1 C37.3,-6.6 32.5,-13.6 18.7,-13.6 M10.4,-4.5 C10.3,-4.9 10.3,-5.3 10.3,-5.7 C10.3,-6.5 10.5,-7.3 10.9,-8 C11.6,-9 12.8,-9.7 14.3,-10 C15.6,-10.3 16.3,-10.5 18.9,-10.5 L19,-10.5 C23,-10.5 24.3,-6.8 25.4,-3 L25.7,-2 C26.5,0.6 26.9,2.8 26.9,4.5 C26.9,5.7 26.7,6.8 26.3,7.6 C25.7,8.7 24.7,9.4 23,9.8 C22.1,10 20.6,10.1 20.6,10.1 C20.1,10.1 19.7,10.2 19.3,10.2 C16.1,10.2 14.1,9 12.7,4.7 C11.5,1 11.3,-0.1 10.4,-4.5"/>
<path class="Note" transform="matrix(0.453543,0,0,0.453543,278.984,277.795)" d="M18.7,-13.6 C4.9,-13.6 0,-6.6 0,-0.1 C0,6.4 4.9,13.4 18.7,13.4 C32.5,13.4 37.3,6.4 37.3,-0.1 C37.3,-6.6 32.5,-13.6 18.7,-13.6 M10.4,-4.5 C10.3,-4.9 10.3,-5.3 10.3,-5.7 C10.3,-6.5 10.5,-7.3 10.9,-8 C11.6,-9 12.8,-9.7 14.3,-10 C15.6,-10.3 16.3,-10.5 18.9,-10.5 L19,-10.5 C23,-10.5 24.3,-6.8 25.4,-3 L25.7,-2 C26.5,0.6 26.9,2.8 26.9,4.5 C26.9,5.7 26.7,6.8 26.3,7.6 C25.7,8.7 24.7,9.4 23,9.8 C22.1,10 20.6,10.1 20.6,10.1 C20.1,10.1 19.7,10.2 19.3,10.2 C16.1,10.2 14.1,9 12.7,4.7 C11.5,1 11.3,-0.1 10.4,-4.5"/>
<path class="Note" transform="matrix(0.453543,0,0,0.453543,294.652,272.126)" d="M18.7,-13.6 C4.9,-13.6 0,-6.6 0,-0.1 C0,6.4 4.9,13.4 18.7,13.4 C32.5,13.4 37.3,6.4 37.3,-0.1 C37.3,-6.6 32.5,-13.6 18.7,-13.6 M10.4,-4.5 C10.3,-4.9 10.3,-5.3 10.3,-5.7 C10.3,-6.5 10.5,-7.3 10.9,-8 C11.6,-9 12.8,-9.7 14.3,-10 C15.6,-10.3 16.3,-10.5 18.9,-10.5 L19,-10.5 C23,-10.5 24.3,-6.8 25.4,-3 L25.7,-2 C26.5,0.6 26.9,2.8 26.9,4.5 C26.9,5.7 26.7,6.8 26.3,7.6 C25.7,8.7 24.7,9.4 23,9.8 C22.1,10 20.6,10.1 20.6,10.1 C20.1,10.1 19.7,10.2 19.3,10.2 C16.1,10.2 14.1,9 12.7,4.7 C11.5,1 11.3,-0.1 10.4,-4.5"/>
<path class="Note" transform="matrix(0.453543,0,0,0.453543,489.957,300.472)" d="M18.7,-13.6 C4.9,-13.6 0,-6.6 0,-0.1 C0,6.4 4.9,13.4 18.7,13.4 C32.5,13.4 37.3,6.4 37.3,-0.1 C37.3,-6.6 32.5,-13.6 18.7,-13.6 M10.4,-4.5 C10.3,-4.9 10.3,-5.3 10.3,-5.7 C10.3,-6.5 10.5,-7.3 10.9,-8 C11.6,-9 12.8,-9.7 14.3,-10 C15.6,-10.3 16.3,-10.5 18.9,-10.5 L19,-10.5 C23,-10.5 24.3,-6.8 25.4,-3 L25.7,-2 C26.5,0.6 26.9,2.8 26.9,4.5 C26.9,5.7 26.7,6.8 26.3,7.6 C25.7,8.7 24.7,9.4 23,9.8 C22.1,10 20.6,10.1 20.6,10.1 C20.1,10.1 19.7,10.2 19.3,10.2 C16.1,10.2 14.1,9 12.7,4.7 C11.5,1 11.3,-0.1 10.4,-4.5"/>
<path class="Note" transform="matrix(0.453543,0,0,0.453543,474.288,277.795)" d="M18.7,-13.6 C4.9,-13.6 0,-6.6 0,-0.1 C0,6.4 4.9,13.4 18.7,13.4 C32.5,13.4 37.3,6.4 37.3,-0.1 C37.3,-6.6 32.5,-13.6 18.7,-13.6 M10.4,-4.5 C10.3,-4.9 10.3,-5.3 10.3,-5.7 C10.3,-6.5 10.5,-7.3 10.9,-8 C11.6,-9 12.8,-9.7 14.3,-10 C15.6,-10.3 16.3,-10.5 18.9,-10.5 L19,-10.5 C23,-10.5 24.3,-6.8 25.4,-3 L25.7,-2 C26.5,0.6 26.9,2.8 26.9,4.5 C26.9,5.7 26.7,6.8 26.3,7.6 C25.7,8.7 24.7,9.4 23,9.8 C22.1,10 20.6,10.1 20.6,10.1 C20.1,10.1 19.7,10.2 19.3,10.2 C16.1,10.2 14.1,9 12.7,4.7 C11.5,1 11.3,-0.1 10.4,-4.5"/>
<path class="Note" transform="matrix(0.453543,0,0,0.453543,489.957,272.126)" d="M18.7,-13.6 C4.9,-13.6 0,-6.6 0,-0.1 C0,6.4 4.9,13.4 18.7,13.4 C32.5,13.4 37.3,6.4 37.3,-0.1 C37.3,-6.6 32.5,-13.6 18.7,-13.6 M10.4,-4.5 C10.3,-4.9 10.3,-5.3 10.3,-5.7 C10.3,-6.5 10.5,-7.3 10.9,-8 C11.6,-9 12.8,-9.7 14.3,-10 C15.6,-10.3 16.3,-10.5 18.9,-10.5 L19,-10.5 C23,-10.5 24.3,-6.8 25.4,-3 L25.7,-2 C26.5,0.6 26.9,2.8 26.9,4.5 C26.9,5.7 26.7,6.8 26.3,7.6 C25.7,8.7 24.7,9.4 23,9.8 C22.1,10 20.6,10.1 20.6,10.1 C20.1,10.1 19.7,10.2 19.3,10.2 C16.1,10.2 14.1,9 12.7,4.7 C11.5,1 11.3,-0.1 10.4,-4.5"/>
<path class="Note" transform="matrix(0.453543,0,0,0.453543,670.498,300.472)" d="M18.7,-13.6 C4.9,-13.6 0,-6.6 0,-0.1 C0,6.4 4.9,13.4 18.7,13.4 C32.5,13.4 37.3,6.4 37.3,-0.1 C37.3,-6.6 32.5,-13.6 18.7,-13.6 M10.4,-4.5 C10.3,-4.9 10.3,-5.3 10.3,-5.7 C10.3,-6.5 10.5,-7.3 10.9,-8 C11.6,-9 12.8,-9.7 14.3,-10 C15.6,-10.3 16.3,-10.5 18.9,-10.5 L19,-10.5 C23,-10.5 24.3,-6.8 25.4,-3 L25.7,-2 C26.5,0.6 26.9,2.8 26.9,4.5 C26.9,5.7 26.7,6.8 26.3,7.6 C25.7,8.7 24.7,9.4 23,9.8 C22.1,10 20.6,10.1 20.6,10.1 C20.1,10.1 19.7,10.2 19.3,10.2 C16.1,10.2 14.1,9 12.7,4.7 C11.5,1 11.3,-0.1 10.4,-4.5"/>
<path class="Note" transform="matrix(0.453543,0,0,0.453543,670.498,289.134)" d="M18.7,-13.6 C4.9,-13.6 0,-6.6 0,-0.1 C0,6.4 4.9,13.4 18.7,13.4 C32.5,13.4 37.3,6.4 37.3,-0.1 C37.3,-6.6 32.5,-13.6 18.7,-13.6 M10.4,-4.5 C10.3,-4.9 10.3,-5.3 10.3,-5.7 C10.3,-6.5 10.5,-7.3 10.9,-8 C11.6,-9 12.8,-9.7 14.3,-10 C15.6,-10.3 16.3,-10.5 18.9,-10.5 L19,-10.5 C23,-10.5 24.3,-6.8 25.4,-3 L25.7,-2 C26.5,0.6 26.9,2.8 26.9,4.5 C26.9,5.7 26.7,6.8 26.3,7.6 C25.7,8.7 24.7,9.4 23,9.8 C22.1,10 20.6,10.1 20.6,10.1 C20.1,10.1 19.7,10.2 19.3,10.2 C16.1,10.2 14.1,9 12.7,4.7 C11.5,1 11.3,-0.1 10.4,-4.5"/>
<path class="Note" transform="matrix(0.453543,0,0,0.453543,670.498,272.126)" d="M18.7,-13.6 C4.9,-13.6 0,-6.6 0,-0.1 C0,6.4 4.9,13.4 18.7,13.4 C32.5,13.4 37.3,6.4 37.3,-0.1 C37.3,-6.6 32.5,-13.6 18.7,-13.6 M10.4,-4.5 C10.3,-4.9 10.3,-5.3 10.3,-5.7 C10.3,-6.5 10.5,-7.3 10.9,-8 C11.6,-9 12.8,-9.7 14.3,-10 C15.6,-10.3 16.3,-10.5 18.9,-10.5 L19,-10.5 C23,-10.5 24.3,-6.8 25.4,-3 L25.7,-2 C26.5,0.6 26.9,2.8 26.9,4.5 C26.9,5.7 26.7,6.8 26.3,7.6 C25.7,8.7 24.7,9.4 23,9.8 C22.1,10 20.6,10.1 20.6,10.1 C20.1,10.1 19.7,10.2 19.3,10.2 C16.1,10.2 14.1,9 12.7,4.7 C11.5,1 11.3,-0.1 10.4,-4.5"/>
<path class="Note" d="M118.342,169.629 C117.608,169.629 117.241,168.843 117.241,167.271 L117.241,160.689 C117.241,160.061 117.548,159.746 118.162,159.746 C118.432,159.746 118.634,159.769 118.769,159.813 C119.248,158.975 120.034,158.271 121.127,157.702 C122.655,156.909 124.204,156.512 125.777,156.512 C127.019,156.512 127.641,156.976 127.641,157.904 C127.641,158.683 127.222,159.072 126.383,159.072 C125.784,159.072 125.215,158.937 124.676,158.668 C124.197,158.428 123.688,158.309 123.149,158.309 C122.22,158.309 120.85,158.915 119.038,160.128 C119.293,161.341 119.42,162.756 119.42,164.373 C119.42,167.877 119.061,169.629 118.342,169.629"/>
<path class="Note" d="M133.818,113.529 C132.59,115.461 130.651,117.063 128,118.336 C125.694,119.444 123.538,119.998 121.532,119.998 C119.929,119.998 118.597,119.676 117.533,119.032 C116.38,118.328 115.804,117.49 115.804,116.516 C115.804,114.315 116.38,112.421 117.533,110.834 C119.106,108.678 120.693,107.599 122.295,107.599 C123.433,107.599 124.242,107.824 124.721,108.273 C125.38,108.857 125.709,109.658 125.709,110.677 C125.709,112.114 124.639,113.364 122.497,114.428 C120.416,115.461 118.971,116.135 118.162,116.449 C118.342,116.823 118.574,117.16 118.859,117.46 C119.562,118.208 120.521,118.583 121.734,118.583 C123.261,118.583 125.312,118.021 127.888,116.898 C130.359,115.805 132.335,114.682 133.818,113.529 M117.848,115.416 C118.971,114.847 119.997,114.18 120.925,113.417 C122.303,112.294 122.991,111.081 122.991,109.778 C122.991,109.044 122.655,108.678 121.981,108.678 C121.412,108.678 120.633,109.329 119.645,110.632 C118.402,112.249 117.781,113.567 117.781,114.585 C117.781,114.869 117.803,115.146 117.848,115.416"/>
<path class="Note" d="M118.342,101.597 C117.608,101.597 117.241,100.811 117.241,99.239 L117.241,92.658 C117.241,92.0291 117.548,91.7146 118.162,91.7146 C118.432,91.7146 118.634,91.7371 118.769,91.782 C119.248,90.9434 120.034,90.2397 121.127,89.6707 C122.655,88.877 124.204,88.4802 125.777,88.4802 C127.019,88.4802 127.641,88.9444 127.641,89.8728 C127.641,90.6514 127.222,91.0408 126.383,91.0408 C125.784,91.0408 125.215,90.906 124.676,90.6365 C124.197,90.3969 123.688,90.2771 123.149,90.2771 C122.22,90.2771 120.85,90.8835 119.038,92.0964 C119.293,93.3093 119.42,94.7244 119.42,96.3416 C119.42,99.8455 119.061,101.597 118.342,101.597"/>
<path class="Note" d="M133.818,147.545 C132.59,149.477 130.651,151.079 128,152.352 C125.694,153.46 123.538,154.014 121.532,154.014 C119.929,154.014 118.597,153.692 117.533,153.048 C116.38,152.344 115.804,151.505 115.804,150.532 C115.804,148.331 116.38,146.437 117.533,144.85 C119.106,142.693 120.693,141.615 122.295,141.615 C123.433,141.615 124.242,141.84 124.721,142.289 C125.38,142.873 125.709,143.674 125.709,144.692 C125.709,146.13 124.639,147.38 122.497,148.443 C120.416,149.477 118.971,150.15 118.162,150.465 C118.342,150.839 118.574,151.176 118.859,151.476 C119.562,152.224 120.521,152.599 121.734,152.599 C123.261,152.599 125.312,152.037 127.888,150.914 C130.359,149.821 132.335,148.698 133.818,147.545 M117.848,149.432 C118.971,148.863 119.997,148.196 120.925,147.433 C122.303,146.31 122.991,145.097 122.991,143.794 C122.991,143.06 122.655,142.693 121.981,142.693 C121.412,142.693 120.633,143.345 119.645,144.647 C118.402,146.265 117.781,147.582 117.781,148.601 C117.781,148.885 117.803,149.162 117.848,149.432"/>
<path class="Note" d="M105.458,125.057 C105.518,122.795 106.769,120.789 109.209,119.037 C111.381,117.48 113.754,116.701 116.329,116.701 C119.938,116.701 123.12,118.116 125.875,120.946 C127.627,122.758 128.503,125.004 128.503,127.684 C128.503,130.095 127.859,131.945 126.572,133.232 C124.999,134.82 123.337,135.613 121.585,135.613 C120.387,135.613 119.459,135.344 118.8,134.805 C117.722,133.921 117.183,132.738 117.183,131.256 C117.183,129.339 118.141,127.587 120.058,126 C121.63,124.697 123.21,123.844 124.797,123.439 C124.378,122.721 123.846,122.047 123.203,121.418 C121.196,119.456 118.92,118.475 116.374,118.475 C113.724,118.475 111.53,119.052 109.793,120.205 C107.996,121.388 106.551,123.005 105.458,125.057 M125.359,124.63 C124.535,125.393 123.712,126.21 122.888,127.078 C121.271,128.785 120.462,130.402 120.462,131.93 C120.462,133.562 120.837,134.378 121.585,134.378 C122.259,134.378 123.203,133.457 124.415,131.615 C125.389,130.148 125.875,128.8 125.875,127.572 C125.875,126.524 125.703,125.543 125.359,124.63"/>
<path class="Note" d="M312.574,158.466 C312.574,160.188 310.612,163.969 306.689,169.809 C305.132,172.13 302.893,173.829 299.973,174.907 C297.817,175.716 295.324,176.12 292.494,176.12 C291.58,176.12 290.772,175.933 290.068,175.559 C289.289,175.154 288.9,174.713 288.9,174.233 C288.9,172.991 289.566,172.369 290.899,172.369 C291.094,172.369 291.191,172.489 291.191,172.729 C291.191,172.938 291.094,173.17 290.899,173.425 C290.659,173.739 290.539,173.971 290.539,174.121 C290.539,174.57 291.213,174.795 292.561,174.795 C295.586,174.795 297.974,174.428 299.726,173.694 C301.553,172.946 303.372,171.036 305.184,167.967 L305.701,167.001 C304.832,167.66 303.971,167.989 303.118,167.989 C300.991,167.989 299.928,167.128 299.928,165.406 C299.928,163.549 301.178,161.595 303.679,159.544 C305.641,157.957 307.385,157.163 308.913,157.163 C309.676,157.163 310.313,157.365 310.822,157.77 C311.001,157.635 311.226,157.567 311.496,157.567 C312.214,157.567 312.574,157.867 312.574,158.466 M305.97,166.529 L310.215,158.69 C309.886,158.616 309.519,158.578 309.115,158.578 C307.662,158.578 306.255,159.424 304.892,161.116 C303.305,163.093 302.511,164.673 302.511,165.855 C302.511,166.634 303.028,167.023 304.061,167.023 C304.555,167.023 305.192,166.859 305.97,166.529"/>
<path class="Note" d="M298.693,118.605 C297.884,118.605 297.48,118.238 297.48,117.505 C297.48,116.262 297.667,115.348 298.041,114.764 C299.599,112.458 302.983,108.146 308.194,101.827 C310.545,98.9669 313.577,97.5369 317.29,97.5369 C318.728,97.5369 319.724,97.7391 320.278,98.1434 C321.131,98.7723 321.558,99.5285 321.558,100.412 C321.558,101.34 320.809,102.374 319.312,103.512 C317.889,104.59 316.542,105.129 315.269,105.129 C314.775,105.129 314.528,105.076 314.528,104.971 C314.528,104.822 314.767,104.665 315.247,104.5 C315.89,104.26 316.579,103.774 317.313,103.04 C318.151,102.186 318.571,101.415 318.571,100.726 C318.571,100.262 318.249,99.8205 317.605,99.4012 C317.036,99.0418 316.115,98.8621 314.842,98.8621 C312.985,98.8621 310.642,100.734 307.812,104.477 C305.925,106.978 304.398,109.179 303.23,111.081 C303.799,110.766 304.48,110.385 305.274,109.935 C306.247,109.381 307.086,109.104 307.789,109.104 C309.541,109.104 310.417,109.733 310.417,110.991 C310.417,112.234 309.699,113.596 308.261,115.079 C307.243,116.127 306.734,116.906 306.734,117.415 C306.734,117.939 307.243,118.201 308.261,118.201 C308.77,118.201 309.294,118.021 309.833,117.662 C310.373,117.318 310.769,117.145 311.024,117.145 C311.234,117.145 311.338,117.28 311.338,117.55 C311.338,117.984 310.919,118.441 310.081,118.92 C308.673,119.728 307.542,120.133 306.689,120.133 C305.177,120.133 304.42,119.324 304.42,117.707 C304.42,116.689 305.004,115.558 306.172,114.315 C307.026,113.402 307.453,112.496 307.453,111.597 C307.453,110.819 307.033,110.43 306.195,110.43 C305.865,110.43 304.772,110.819 302.915,111.597 C302.361,112.526 301.897,113.379 301.523,114.158 C300.1,117.123 299.157,118.605 298.693,118.605"/>
<path class="Note" d="M312.731,85.8748 C313.569,85.3057 314.176,84.8341 314.55,84.4597 C315.239,83.726 315.583,83.0522 315.583,82.4382 C315.583,81.7345 315.194,81.3826 314.415,81.3826 C312.903,81.3826 311.286,82.7152 309.564,85.3806 C309.04,86.1892 307.887,88.8246 306.105,93.2869 C307.527,94.7543 308.239,95.5854 308.239,95.78 C308.239,96.0496 308.067,96.1843 307.722,96.1843 C307.453,96.1843 306.711,95.7276 305.498,94.8142 C304.181,97.8839 302.182,100.504 299.501,102.676 C296.761,104.892 293.489,106 289.686,106 C288.234,106 286.414,105.663 284.228,104.989 C282.476,104.45 281.6,103.589 281.6,102.406 C281.6,100.654 282.274,99.7781 283.622,99.7781 C284.43,99.7781 284.834,100.152 284.834,100.901 C284.834,101.141 284.647,101.395 284.273,101.665 C284.078,101.8 283.981,102.062 283.981,102.451 C283.981,102.915 284.498,103.394 285.531,103.888 C286.654,104.427 288.301,104.697 290.472,104.697 C293.272,104.697 295.975,103.484 298.581,101.058 C300.946,98.8572 302.646,96.2966 303.679,93.3767 C303.275,93.0473 302.841,92.6879 302.376,92.2986 C300.939,91.4451 300.22,90.5691 300.22,89.6707 C300.22,89.2963 300.467,89.1091 300.961,89.1091 C301.62,89.1091 302.511,89.6707 303.634,90.7937 C303.874,91.0333 304.098,91.2579 304.308,91.4675 C304.832,90.03 305.671,88.2032 306.824,85.9871 C308.905,81.974 311.436,79.9675 314.415,79.9675 C315.479,79.9675 316.317,80.1697 316.931,80.574 C317.545,80.9783 317.852,81.5323 317.852,82.2361 C317.852,83.3591 317.44,84.31 316.617,85.0886 C315.763,85.8972 314.872,86.3015 313.944,86.3015 C313.135,86.3015 312.731,86.1593 312.731,85.8748"/>
<path class="Note" d="M312.731,119.891 C313.569,119.321 314.176,118.85 314.55,118.475 C315.239,117.742 315.583,117.068 315.583,116.454 C315.583,115.75 315.194,115.398 314.415,115.398 C312.903,115.398 311.286,116.731 309.564,119.396 C309.04,120.205 307.887,122.84 306.105,127.303 C307.527,128.77 308.239,129.601 308.239,129.796 C308.239,130.065 308.067,130.2 307.722,130.2 C307.453,130.2 306.711,129.743 305.498,128.83 C304.181,131.9 302.182,134.52 299.501,136.691 C296.761,138.907 293.489,140.016 289.686,140.016 C288.234,140.016 286.414,139.679 284.228,139.005 C282.476,138.466 281.6,137.605 281.6,136.422 C281.6,134.67 282.274,133.794 283.622,133.794 C284.43,133.794 284.834,134.168 284.834,134.917 C284.834,135.156 284.647,135.411 284.273,135.681 C284.078,135.815 283.981,136.077 283.981,136.467 C283.981,136.931 284.498,137.41 285.531,137.904 C286.654,138.443 288.301,138.713 290.472,138.713 C293.272,138.713 295.975,137.5 298.581,135.074 C300.946,132.873 302.646,130.312 303.679,127.392 C303.275,127.063 302.841,126.704 302.376,126.314 C300.939,125.461 300.22,124.585 300.22,123.686 C300.22,123.312 300.467,123.125 300.961,123.125 C301.62,123.125 302.511,123.686 303.634,124.809 C303.874,125.049 304.098,125.274 304.308,125.483 C304.832,124.046 305.671,122.219 306.824,120.003 C308.905,115.99 311.436,113.983 314.415,113.983 C315.479,113.983 316.317,114.185 316.931,114.59 C317.545,114.994 317.852,115.548 317.852,116.252 C317.852,117.375 317.44,118.326 316.617,119.104 C315.763,119.913 314.872,120.317 313.944,120.317 C313.135,120.317 312.731,120.175 312.731,119.891"/>
<path class="Note" d="M512.078,113.529 C510.85,115.461 508.911,117.063 506.261,118.336 C503.955,119.444 501.799,119.998 499.792,119.998 C498.19,119.998 496.857,119.676 495.794,119.032 C494.641,118.328 494.064,117.49 494.064,116.516 C494.064,114.315 494.641,112.421 495.794,110.834 C497.366,108.678 498.953,107.599 500.556,107.599 C501.694,107.599 502.502,107.824 502.981,108.273 C503.64,108.857 503.97,109.658 503.97,110.677 C503.97,112.114 502.899,113.364 500.758,114.428 C498.676,115.461 497.231,116.135 496.423,116.449 C496.603,116.823 496.835,117.16 497.119,117.46 C497.823,118.208 498.781,118.583 499.994,118.583 C501.522,118.583 503.573,118.021 506.148,116.898 C508.619,115.805 510.596,114.682 512.078,113.529 M496.108,115.416 C497.231,114.847 498.257,114.18 499.186,113.417 C500.563,112.294 501.252,111.081 501.252,109.778 C501.252,109.044 500.915,108.678 500.241,108.678 C499.672,108.678 498.894,109.329 497.905,110.632 C496.662,112.249 496.041,113.567 496.041,114.585 C496.041,114.869 496.063,115.146 496.108,115.416"/>
<path class="Note" d="M512.078,147.545 C510.85,149.477 508.911,151.079 506.261,152.352 C503.955,153.46 501.799,154.014 499.792,154.014 C498.19,154.014 496.857,153.692 495.794,153.048 C494.641,152.344 494.064,151.505 494.064,150.532 C494.064,148.331 494.641,146.437 495.794,144.85 C497.366,142.693 498.953,141.615 500.556,141.615 C501.694,141.615 502.502,141.84 502.981,142.289 C503.64,142.873 503.97,143.674 503.97,144.692 C503.97,146.13 502.899,147.38 500.758,148.443 C498.676,149.477 497.231,150.15 496.423,150.465 C496.603,150.839 496.835,151.176 497.119,151.476 C497.823,152.224 498.781,152.599 499.994,152.599 C501.522,152.599 503.573,152.037 506.148,150.914 C508.619,149.821 510.596,148.698 512.078,147.545 M496.108,149.432 C497.231,148.863 498.257,148.196 499.186,147.433 C500.563,146.31 501.252,145.097 501.252,143.794 C501.252,143.06 500.915,142.693 500.241,142.693 C499.672,142.693 498.894,143.345 497.905,144.647 C496.662,146.265 496.041,147.582 496.041,148.601 C496.041,148.885 496.063,149.162 496.108,149.432"/>
<path class="Note" d="M508.035,85.8748 C508.874,85.3057 509.48,84.8341 509.855,84.4597 C510.543,83.726 510.888,83.0522 510.888,82.4382 C510.888,81.7345 510.498,81.3826 509.72,81.3826 C508.207,81.3826 506.59,82.7152 504.868,85.3806 C504.344,86.1892 503.191,88.8246 501.409,93.2869 C502.832,94.7543 503.543,95.5854 503.543,95.78 C503.543,96.0496 503.371,96.1843 503.026,96.1843 C502.757,96.1843 502.016,95.7276 500.803,94.8142 C499.485,97.8839 497.486,100.504 494.806,102.676 C492.065,104.892 488.794,106 484.99,106 C483.538,106 481.718,105.663 479.532,104.989 C477.78,104.45 476.904,103.589 476.904,102.406 C476.904,100.654 477.578,99.7781 478.926,99.7781 C479.734,99.7781 480.139,100.152 480.139,100.901 C480.139,101.141 479.952,101.395 479.577,101.665 C479.383,101.8 479.285,102.062 479.285,102.451 C479.285,102.915 479.802,103.394 480.835,103.888 C481.958,104.427 483.605,104.697 485.776,104.697 C488.577,104.697 491.279,103.484 493.885,101.058 C496.251,98.8572 497.95,96.2966 498.983,93.3767 C498.579,93.0473 498.145,92.6879 497.681,92.2986 C496.243,91.4451 495.524,90.5691 495.524,89.6707 C495.524,89.2963 495.772,89.1091 496.266,89.1091 C496.924,89.1091 497.815,89.6707 498.938,90.7937 C499.178,91.0333 499.403,91.2579 499.612,91.4675 C500.136,90.03 500.975,88.2032 502.128,85.9871 C504.209,81.974 506.74,79.9675 509.72,79.9675 C510.783,79.9675 511.621,80.1697 512.235,80.574 C512.849,80.9783 513.156,81.5323 513.156,82.2361 C513.156,83.3591 512.744,84.31 511.921,85.0886 C511.067,85.8972 510.176,86.3015 509.248,86.3015 C508.439,86.3015 508.035,86.1593 508.035,85.8748"/>
<path class="Note" d="M508.035,119.891 C508.874,119.321 509.48,118.85 509.855,118.475 C510.543,117.742 510.888,117.068 510.888,116.454 C510.888,115.75 510.498,115.398 509.72,115.398 C508.207,115.398 506.59,116.731 504.868,119.396 C504.344,120.205 503.191,122.84 501.409,127.303 C502.832,128.77 503.543,129.601 503.543,129.796 C503.543,130.065 503.371,130.2 503.026,130.2 C502.757,130.2 502.016,129.743 500.803,128.83 C499.485,131.9 497.486,134.52 494.806,136.691 C492.065,138.907 488.794,140.016 484.99,140.016 C483.538,140.016 481.718,139.679 479.532,139.005 C477.78,138.466 476.904,137.605 476.904,136.422 C476.904,134.67 477.578,133.794 478.926,133.794 C479.734,133.794 480.139,134.168 480.139,134.917 C480.139,135.156 479.952,135.411 479.577,135.681 C479.383,135.815 479.285,136.077 479.285,136.467 C479.285,136.931 479.802,137.41 480.835,137.904 C481.958,138.443 483.605,138.713 485.776,138.713 C488.577,138.713 491.279,137.5 493.885,135.074 C496.251,132.873 497.95,130.312 498.983,127.392 C498.579,127.063 498.145,126.704 497.681,126.314 C496.243,125.461 495.524,124.585 495.524,123.686 C495.524,123.312 495.772,123.125 496.266,123.125 C496.924,123.125 497.815,123.686 498.938,124.809 C499.178,125.049 499.403,125.274 499.612,125.483 C500.136,124.046 500.975,122.219 502.128,120.003 C504.209,115.99 506.74,113.983 509.72,113.983 C510.783,113.983 511.621,114.185 512.235,114.59 C512.849,114.994 513.156,115.548 513.156,116.252 C513.156,117.375 512.744,118.326 511.921,119.104 C511.067,119.913 510.176,120.317 509.248,120.317 C508.439,120.317 508.035,120.175 508.035,119.891"/>
<path class="Note" d="M688.576,170.914 C689.415,170.345 690.021,169.873 690.396,169.499 C691.084,168.765 691.429,168.092 691.429,167.478 C691.429,166.774 691.039,166.422 690.261,166.422 C688.748,166.422 687.131,167.755 685.409,170.42 C684.885,171.229 683.732,173.864 681.95,178.326 C683.373,179.794 684.084,180.625 684.084,180.819 C684.084,181.089 683.912,181.224 683.567,181.224 C683.298,181.224 682.557,180.767 681.344,179.854 C680.026,182.923 678.027,185.544 675.347,187.715 C672.607,189.931 669.335,191.039 665.531,191.039 C664.079,191.039 662.26,190.702 660.073,190.028 C658.321,189.489 657.445,188.628 657.445,187.445 C657.445,185.693 658.119,184.817 659.467,184.817 C660.275,184.817 660.68,185.192 660.68,185.94 C660.68,186.18 660.493,186.435 660.118,186.704 C659.924,186.839 659.826,187.101 659.826,187.49 C659.826,187.954 660.343,188.434 661.376,188.928 C662.499,189.467 664.146,189.736 666.317,189.736 C669.118,189.736 671.82,188.523 674.426,186.098 C676.792,183.897 678.491,181.336 679.524,178.416 C679.12,178.087 678.686,177.727 678.222,177.338 C676.784,176.484 676.066,175.608 676.066,174.71 C676.066,174.336 676.313,174.148 676.807,174.148 C677.466,174.148 678.357,174.71 679.48,175.833 C679.719,176.073 679.944,176.297 680.153,176.507 C680.677,175.069 681.516,173.243 682.669,171.026 C684.75,167.013 687.281,165.007 690.261,165.007 C691.324,165.007 692.163,165.209 692.776,165.613 C693.39,166.018 693.697,166.572 693.697,167.275 C693.697,168.398 693.286,169.349 692.462,170.128 C691.608,170.937 690.718,171.341 689.789,171.341 C688.981,171.341 688.576,171.199 688.576,170.914"/>
<path class="Note" d="M692.619,113.529 C691.391,115.461 689.452,117.063 686.802,118.336 C684.496,119.444 682.34,119.998 680.333,119.998 C678.731,119.998 677.398,119.676 676.335,119.032 C675.182,118.328 674.606,117.49 674.606,116.516 C674.606,114.315 675.182,112.421 676.335,110.834 C677.907,108.678 679.495,107.599 681.097,107.599 C682.235,107.599 683.043,107.824 683.523,108.273 C684.181,108.857 684.511,109.658 684.511,110.677 C684.511,112.114 683.44,113.364 681.299,114.428 C679.218,115.461 677.773,116.135 676.964,116.449 C677.144,116.823 677.376,117.16 677.66,117.46 C678.364,118.208 679.322,118.583 680.535,118.583 C682.063,118.583 684.114,118.021 686.69,116.898 C689.16,115.805 691.137,114.682 692.619,113.529 M676.649,115.416 C677.773,114.847 678.798,114.18 679.727,113.417 C681.104,112.294 681.793,111.081 681.793,109.778 C681.793,109.044 681.456,108.678 680.782,108.678 C680.213,108.678 679.435,109.329 678.446,110.632 C677.204,112.249 676.582,113.567 676.582,114.585 C676.582,114.869 676.605,115.146 676.649,115.416"/>
<path class="Note" d="M692.619,147.545 C691.391,149.477 689.452,151.079 686.802,152.352 C684.496,153.46 682.34,154.014 680.333,154.014 C678.731,154.014 677.398,153.692 676.335,153.048 C675.182,152.344 674.606,151.505 674.606,150.532 C674.606,148.331 675.182,146.437 676.335,144.85 C677.907,142.693 679.495,141.615 681.097,141.615 C682.235,141.615 683.043,141.84 683.523,142.289 C684.181,142.873 684.511,143.674 684.511,144.692 C684.511,146.13 683.44,147.38 681.299,148.443 C679.218,149.477 677.773,150.15 676.964,150.465 C677.144,150.839 677.376,151.176 677.66,151.476 C678.364,152.224 679.322,152.599 680.535,152.599 C682.063,152.599 684.114,152.037 686.69,150.914 C689.16,149.821 691.137,148.698 692.619,147.545 M676.649,149.432 C677.773,148.863 678.798,148.196 679.727,147.433 C681.104,146.31 681.793,145.097 681.793,143.794 C681.793,143.06 681.456,142.693 680.782,142.693 C680.213,142.693 679.435,143.345 678.446,144.647 C677.204,146.265 676.582,147.582 676.582,148.601 C676.582,148.885 676.605,149.162 676.649,149.432"/>
<path class="Note" d="M688.576,119.891 C689.415,119.321 690.021,118.85 690.396,118.475 C691.084,117.742 691.429,117.068 691.429,116.454 C691.429,115.75 691.039,115.398 690.261,115.398 C688.748,115.398 687.131,116.731 685.409,119.396 C684.885,120.205 683.732,122.84 681.95,127.303 C683.373,128.77 684.084,129.601 684.084,129.796 C684.084,130.065 683.912,130.2 683.567,130.2 C683.298,130.2 682.557,129.743 681.344,128.83 C680.026,131.9 678.027,134.52 675.347,136.691 C672.607,138.907 669.335,140.016 665.531,140.016 C664.079,140.016 662.26,139.679 660.073,139.005 C658.321,138.466 657.445,137.605 657.445,136.422 C657.445,134.67 658.119,133.794 659.467,133.794 C660.275,133.794 660.68,134.168 660.68,134.917 C660.68,135.156 660.493,135.411 660.118,135.681 C659.924,135.815 659.826,136.077 659.826,136.467 C659.826,136.931 660.343,137.41 661.376,137.904 C662.499,138.443 664.146,138.713 666.317,138.713 C669.118,138.713 671.82,137.5 674.426,135.074 C676.792,132.873 678.491,130.312 679.524,127.392 C679.12,127.063 678.686,126.704 678.222,126.314 C676.784,125.461 676.066,124.585 676.066,123.686 C676.066,123.312 676.313,123.125 676.807,123.125 C677.466,123.125 678.357,123.686 679.48,124.809 C679.719,125.049 679.944,125.274 680.153,125.483 C680.677,124.046 681.516,122.219 682.669,120.003 C684.75,115.99 687.281,113.983 690.261,113.983 C691.324,113.983 692.163,114.185 692.776,114.59 C693.39,114.994 693.697,115.548 693.697,116.252 C693.697,117.375 693.286,118.326 692.462,119.104 C691.608,119.913 690.718,120.317 689.789,120.317 C688.981,120.317 688.576,120.175 688.576,119.891"/>
<path class="Clef" transform="matrix(0.453543,0,0,0.453543,40.4189,423.424)" d="M25.4,-25.1 C17.8,-25.1 11.7,-20.7 11.6,-20.7 C5.8,-16.4 3.5,-11.3 2.6,-7.8 C2.1,-6 1.9,-4.2 1.9,-2.5 C1.9,-0.1 2.3,2.1 3.2,4 C4.4,6.7 6.7,8.6 9.7,9.6 C10.9,10 12.2,10.2 13.5,10.2 C15.7,10.2 18,9.6 19.9,8.5 C23,6.8 24.9,3.2 24.9,-0.7 C24.9,-4.2 23.1,-7.4 20.1,-9.3 C18,-10.7 16,-11.1 14.3,-11.1 C13.1,-11.1 12,-10.9 11.1,-10.6 C10.1,-10.2 8.4,-9.2 7.6,-8.5 C7.9,-10.4 9.1,-13.3 10.2,-14.9 C11.3,-16.5 13.5,-18.5 15.2,-19.4 C17.7,-20.8 20.9,-21.4 24.4,-21.4 C34.6,-21.4 39.6,-13.2 39.6,3.6 C39.6,12.9 36.1,21.8 33.1,27.7 C29.8,34.3 25.4,40.6 21.5,44.1 C11.1,53.6 1.3,58.1 1.2,58.1 C1.2,58.1 -0.3,59 0.1,60.5 C0.4,61.5 1.3,61.7 1.9,61.7 C2,61.7 2.3,61.6 2.4,61.6 C2.5,61.6 13.9,56.9 23,49.8 C28.1,46.1 32.7,42.1 36.7,37.8 C40.3,33.9 43.4,29.7 45.9,25.5 C50.3,18 52.8,10.2 52.8,3.5 C52.8,-4.8 50.6,-11.7 46.5,-16.6 C41.8,-22.2 34.7,-25.1 25.4,-25.1 M56.8,-12.4 C56.8,-9.6 59,-7.4 61.6,-7.4 C64.2,-7.4 66.4,-9.6 66.4,-12.4 C66.4,-15.2 64.2,-17.5 61.6,-17.5 C59,-17.5 56.8,-15.2 56.8,-12.4 M56.8,12.3 C56.8,15.1 59,17.4 61.6,17.4 C64.2,17.4 66.4,15.1 66.4,12.3 C66.4,9.5 64.2,7.2 61.6,7.2 C59,7.2 56.8,9.5 56.8,12.3"/>
<path class="Clef" transform="matrix(0.453543,0,0,0.453543,40.4189,300.472)" d="M63.37,-5.89004 C62.14,-11.32 59.5,-15.14 58.72,-16.1801 C55.5301,-20.45 51.52,-23.3 46.8301,-24.65 C43.72,-25.54 40.72,-25.65 38.3,-25.47 C37.2601,-31.4801 36.2601,-37.3601 35.35,-42.8101 C40.79,-48.97 44.42,-54.77 46.69,-59.07 C50.1601,-65.65 51.3101,-70.2301 51.3601,-70.4301 C53.0801,-75.64 53.44,-83.34 52.34,-91.55 C51.3301,-99.1 49.24,-105.81 46.89,-109.06 C45.8601,-110.49 44.8101,-111.22 43.77,-111.22 C42.55,-111.22 40.04,-109.98 37.15,-107.21 C34.85,-105.01 31.5801,-101.12 29.02,-95.1101 C26.02,-88.05 25.8101,-78.5601 26.1601,-71.84 C26.54,-64.57 27.65,-58.8801 27.6601,-58.8301 C27.6801,-58.74 27.94,-57.24 28.39,-54.67 C28.1601,-54.44 27.92,-54.22 27.67,-53.9801 C26.6301,-52.9801 25.44,-51.84 24.0601,-50.4601 C23.2,-49.6 22.25,-48.69 21.25,-47.72 C12.79,-39.57 0,-27.25 0,-8.1 C0,-3.4 0.9,1.01992 2.68008,5.02998 C4.27002,8.62998 6.57002,11.91 9.5,14.78 C17.2301,22.33 27.82,25.5399 34.8801,25.38 C37.8301,25.31 40.4601,25.0699 42.85,24.6199 C44.6801,34.2199 45.82,41.25 45.8601,46.5899 C45.9,53.1 44.25,57.0699 40.35,59.8399 C37.92,61.5699 35.1101,62.5199 32.0101,62.6699 C29.42,62.7899 27.1601,62.3199 25.7301,61.91 L25.72,61.91 C25.72,61.91 25.4301,61.83 25.42,61.63 C25.4101,61.45 25.7601,61.4 25.77,61.4 L25.79,61.4 C27.7101,60.96 31.2801,59.73 33.64,56.43 C35.44,53.91 36.3101,49.2899 34.47,45.35 C33.3601,42.96 30.85,40.01 25.2301,39.56 C22.74,39.36 20.47,39.8699 18.47,41.0699 C16.6601,42.15 15.1601,43.7899 14.1101,45.7899 C11.65,50.4899 12.1101,56.2199 15.24,60.06 C18.2,63.68 22.82,65.9899 28.25,66.5699 C29.1,66.66 29.95,66.7 30.8,66.7 C31.5101,66.7 32.22,66.6699 32.92,66.61 C31.72,66.9399 30.64,67.4899 29.77,68.25 C28.2801,69.5399 27.44,71.38 27.44,73.41 C27.44,75.28 28.0601,76.65 29.55,78.0399 C28.4101,78.5 27.55,78.98 26.79,79.56 C25.25,80.73 24.34,82.46 24.34,84.1899 C24.34,87.45 27.3,89.63 31.72,89.63 C37.1301,89.63 40.9101,86.63 40.9101,82.35 C40.9101,80.1199 39.9101,78.18 38.0801,76.83 C41.0101,75.6199 42.37,73.9399 42.37,71.56 C42.39,70.05 41.69,68.61 40.49,67.6899 C39.2801,66.7399 37.62,66.2399 35.69,66.2399 L35.5101,66.2399 C38.2801,65.7 40.92,64.7 43.2101,63.28 C46.87,60.71 48.99,56.73 49.67,51.1 C50.2301,46.46 49.84,40.55 48.44,32.48 C48.0801,30.3899 47.54,27.36 46.8801,23.6 C52.6301,21.68 56.79,18.11 60.5601,12.26 C63.85,6.51992 64.8,0.419922 63.37,-5.89004 M32.39,87.5399 C30.19,87.5399 28.7301,86.1199 28.7301,84.01 C28.7301,82.11 29.65,80.5 31.32,79.4699 C31.6801,79.66 31.77,79.71 32.1101,79.88 C33.3,80.48 33.3,80.48 33.55,80.63 L33.5601,80.6399 C35.47,81.73 36.25,82.76 36.25,84.18 C36.24,86.0899 34.59,87.5399 32.39,87.5399 M38.3101,71.63 C38.3101,73.2699 37.7301,74.3399 36.1801,75.53 C34.74,74.78 34.35,74.56 33.9801,74.3399 L33.8801,74.28 C32.3301,73.3399 31.85,72.66 31.85,71.4 C31.85,69.6 33.2301,68.3399 35.19,68.3399 C37.17,68.35 38.3101,69.55 38.3101,71.63 M33.15,-83.8101 C34.9301,-89.55 37.67,-92.8 39.6601,-94.5301 C41.4101,-96.05 43.0601,-96.7601 43.9801,-96.7601 C44.12,-96.7601 44.24,-96.74 44.34,-96.7101 C44.8,-96.57 45.3301,-96 45.8,-95.1301 C48.1101,-90.84 47.37,-84.1301 46.0301,-79.69 C44.4,-74.29 41.4801,-68.6801 32.69,-59.0601 C32.52,-60.17 32.3601,-61.22 32.2101,-62.2 C30.95,-70.49 31.27,-77.7601 33.15,-83.8101 M29.15,20.31 C24.5101,19.0899 20.0801,16.5899 16.32,13.0899 C15.0101,11.86 13.14,9.68994 11.67,6.3 C10.3101,3.13994 9.65,-0.290039 9.7,-3.88008 C9.77002,-8.57002 11.0801,-13.39 13.59,-18.1801 C16.5101,-23.7601 21.07,-29.29 27.1301,-34.62 C28.5801,-35.9 29.95,-37.1801 31.24,-38.4601 C32,-34.2 32.8301,-29.5101 33.7101,-24.6301 C29.8601,-23.3601 25.1101,-20.2101 22,-14.5601 C18.47,-7.99004 18.6101,-2.47002 19.34,1.00996 C20.2801,5.46992 22.8101,9.22998 26.27,11.3199 C27.2,11.88 31.3301,14.01 33.17,13.43 C33.54,13.31 33.8101,13.0899 33.95,12.76 C34.4601,11.5899 33.44,10.95 31.8801,9.98994 C31.2801,9.61992 30.6101,9.2 29.8801,8.66992 C26.5601,6.17998 25.1101,1.72998 26.1801,-2.65 C26.7601,-5.05 28.04,-7.21006 29.8801,-8.91006 C31.55,-10.4601 33.59,-11.5601 35.97,-12.2 C38.0101,-0.960059 40.07,10.1899 41.7101,18.55 C41.84,19.2399 41.9801,19.91 42.1101,20.58 C37.7101,21.51 33.37,21.4199 29.15,20.31 M54.9,10.1 C53.7301,13.28 51.27,17.35 46.14,19.41 C46.07,18.9899 45.99,18.56 45.9101,18.13 C44.3601,9.36992 42.4301,-1.61006 40.47,-12.87 C50.82,-13.35 55.09,-5.91006 55.9801,-1.08008 C56.45,1.45 56.45,5.88994 54.9,10.1"/>
<path class="FiguredBass" d="M116.308,483.801 C116.343,483.801 116.42,483.725 116.537,483.572 C117.041,482.858 117.744,482.5 118.646,482.5 C119.373,482.5 120.058,482.77 120.703,483.309 C121.347,483.848 121.881,484.117 122.302,484.117 C122.759,484.117 123.193,483.983 123.603,483.713 C124.013,483.444 124.339,483.174 124.579,482.904 C124.819,482.635 124.974,482.5 125.045,482.5 C125.162,482.5 125.267,482.538 125.361,482.614 C125.455,482.691 125.502,482.787 125.502,482.904 C125.502,482.987 125.261,483.391 124.781,484.117 C124.3,484.844 123.767,485.685 123.181,486.64 C122.595,487.595 122.062,488.787 121.582,490.217 C121.101,491.647 120.861,493.012 120.861,494.313 C120.861,494.817 120.914,495.397 121.019,496.053 C121.101,496.557 121.101,496.844 121.019,496.914 C120.961,496.973 120.861,497.002 120.72,497.002 C120.662,497.002 120.389,496.926 119.903,496.774 C119.417,496.621 118.951,496.545 118.506,496.545 C118.107,496.545 117.647,496.621 117.126,496.774 C116.604,496.926 116.314,497.002 116.256,497.002 C116.127,497.002 116.021,496.949 115.939,496.844 C115.857,496.738 115.845,496.627 115.904,496.51 C116.595,494.858 117.436,493.249 118.426,491.685 C119.417,490.12 120.656,488.319 122.144,486.279 C121.582,486.584 121.013,486.737 120.439,486.737 C119.83,486.737 119.214,486.464 118.593,485.919 C117.972,485.374 117.463,485.102 117.064,485.102 C116.771,485.102 116.516,485.269 116.299,485.603 C116.083,485.937 115.974,486.438 115.974,487.106 L115.974,489.268 C115.974,489.561 115.839,489.707 115.57,489.707 C115.277,489.707 115.131,489.561 115.131,489.268 L115.131,482.94 C115.131,482.647 115.277,482.5 115.57,482.5 C115.839,482.5 115.974,482.647 115.974,482.94 L115.974,483.344 C115.974,483.438 115.998,483.52 116.045,483.59 C116.185,483.731 116.273,483.801 116.308,483.801"/>
<path class="FiguredBass" d="M120.666,513.483 C120.537,513.623 120.367,513.694 120.156,513.694 C119.945,513.694 119.772,513.62 119.637,513.474 C119.503,513.327 119.435,513.16 119.435,512.973 L119.435,510.459 L116.922,510.459 C116.711,510.459 116.538,510.386 116.403,510.239 C116.268,510.093 116.201,509.926 116.201,509.738 C116.201,509.551 116.268,509.384 116.403,509.238 C116.538,509.091 116.711,509.018 116.922,509.018 L119.435,509.018 L119.435,506.504 C119.435,506.317 119.503,506.15 119.637,506.003 C119.772,505.857 119.945,505.783 120.156,505.783 C120.367,505.783 120.54,505.857 120.674,506.003 C120.809,506.15 120.877,506.317 120.877,506.504 L120.877,509.018 L123.39,509.018 C123.601,509.018 123.774,509.091 123.909,509.238 C124.044,509.384 124.111,509.551 124.111,509.738 C124.111,509.926 124.044,510.093 123.909,510.239 C123.774,510.386 123.601,510.459 123.39,510.459 L120.877,510.459 L120.877,512.973 C120.877,513.16 120.806,513.33 120.666,513.483"/>
<path class="FiguredBass" d="M303.641,483.168 C302.774,483.168 302.197,483.517 301.91,484.214 C301.623,484.911 301.479,485.899 301.479,487.176 L301.479,489.25 C302.089,489.004 302.616,488.875 303.061,488.863 C304.585,488.863 305.783,489.2 306.656,489.874 C307.529,490.548 307.966,491.55 307.966,492.88 C307.966,494.21 307.523,495.215 306.638,495.895 C305.754,496.574 304.561,496.914 303.061,496.914 C301.526,496.914 300.325,496.202 299.458,494.779 C298.591,493.355 298.157,491.664 298.157,489.707 C298.157,487.762 298.661,486.074 299.669,484.645 C300.677,483.215 302.001,482.5 303.641,482.5 C304.72,482.5 305.651,482.773 306.436,483.318 C307.221,483.863 307.614,484.58 307.614,485.471 C307.614,485.987 307.427,486.432 307.052,486.807 C306.677,487.182 306.228,487.369 305.707,487.369 C305.185,487.369 304.737,487.182 304.362,486.807 C303.987,486.432 303.8,485.987 303.8,485.471 C303.8,484.967 303.987,484.522 304.362,484.135 C304.491,483.983 304.673,483.854 304.907,483.748 C304.848,483.596 304.731,483.479 304.555,483.397 C304.298,483.244 303.993,483.168 303.641,483.168 M304.503,490.358 C304.292,489.807 303.829,489.531 303.114,489.531 C302.399,489.531 301.957,489.807 301.787,490.358 C301.617,490.908 301.532,491.746 301.532,492.871 C301.532,494.196 301.617,495.086 301.787,495.543 C301.957,496 302.399,496.229 303.114,496.229 C303.829,496.229 304.292,495.953 304.503,495.403 C304.714,494.852 304.819,494.011 304.819,492.88 C304.819,491.749 304.714,490.908 304.503,490.358"/>
<path class="FiguredBass" d="M299.352,502.531 L300.196,502.654 C300.419,502.69 300.694,502.725 301.022,502.76 C301.831,502.854 302.61,502.901 303.36,502.901 C304.11,502.901 304.901,502.854 305.733,502.76 C306.061,502.725 306.348,502.69 306.595,502.654 L307.456,502.531 C307.632,502.531 307.766,502.59 307.86,502.707 C307.93,502.801 307.919,502.895 307.825,502.988 C305.997,504.781 303.471,505.678 300.249,505.678 C300.12,505.678 300.006,505.725 299.906,505.819 C299.806,505.912 299.757,506.029 299.757,506.17 L299.757,508.403 C300.589,507.582 301.596,507.172 302.78,507.172 C304.432,507.172 305.721,507.559 306.647,508.332 C307.655,507.571 308.182,506.598 308.229,505.414 C308.241,505.039 308.364,504.735 308.598,504.5 C308.856,504.266 309.167,504.149 309.53,504.149 C309.893,504.149 310.201,504.272 310.453,504.518 C310.705,504.764 310.831,505.063 310.831,505.414 C310.831,507.231 309.759,508.608 307.614,509.545 C307.966,510.237 308.141,511.08 308.141,512.076 C308.141,513.401 307.614,514.543 306.559,515.504 C305.505,516.465 304.245,516.946 302.78,516.946 C301.514,516.946 300.416,516.658 299.484,516.084 C298.553,515.51 298.087,514.713 298.087,513.694 C298.087,513.178 298.274,512.73 298.649,512.349 C299.024,511.968 299.472,511.778 299.994,511.778 C300.515,511.778 300.958,511.965 301.321,512.34 C301.684,512.715 301.866,513.166 301.866,513.694 C301.866,513.928 301.673,514.183 301.286,514.458 C300.899,514.734 300.706,514.988 300.706,515.223 C300.706,515.926 301.397,516.278 302.78,516.278 C304.128,516.278 304.802,514.877 304.802,512.076 C304.802,511.455 304.766,510.91 304.696,510.442 C303.278,510.735 301.503,510.963 299.37,511.127 C299.077,511.151 298.93,511.004 298.93,510.688 C298.93,510.43 299.077,510.289 299.37,510.266 C301.526,510.09 303.225,509.809 304.468,509.422 C304.139,508.485 303.577,508.01 302.78,507.998 C301.573,507.998 300.729,508.244 300.249,508.737 C299.768,509.229 299.47,509.475 299.352,509.475 C299.071,509.475 298.93,509.328 298.93,509.035 L298.93,502.988 C298.93,502.871 298.971,502.766 299.054,502.672 C299.147,502.578 299.247,502.531 299.352,502.531"/>
<path class="FiguredBass" d="M488.825,493.451 C488.696,493.592 488.526,493.662 488.315,493.662 C488.104,493.662 487.931,493.589 487.796,493.443 C487.661,493.296 487.594,493.129 487.594,492.942 L487.594,490.428 L485.08,490.428 C484.869,490.428 484.697,490.355 484.562,490.208 C484.427,490.062 484.36,489.895 484.36,489.707 C484.36,489.52 484.427,489.353 484.562,489.206 C484.697,489.06 484.869,488.987 485.08,488.987 L487.594,488.987 L487.594,486.473 C487.594,486.285 487.661,486.118 487.796,485.972 C487.931,485.825 488.104,485.752 488.315,485.752 C488.526,485.752 488.699,485.825 488.833,485.972 C488.968,486.118 489.036,486.285 489.036,486.473 L489.036,488.987 L491.549,488.987 C491.76,488.987 491.933,489.06 492.068,489.206 C492.203,489.353 492.27,489.52 492.27,489.707 C492.27,489.895 492.203,490.062 492.068,490.208 C491.933,490.355 491.76,490.428 491.549,490.428 L489.036,490.428 L489.036,492.942 C489.036,493.129 488.965,493.299 488.825,493.451 M498.946,483.168 C498.078,483.168 497.501,483.517 497.214,484.214 C496.927,484.911 496.784,485.899 496.784,487.176 L496.784,489.25 C497.393,489.004 497.92,488.875 498.366,488.863 C499.889,488.863 501.087,489.2 501.96,489.874 C502.833,490.548 503.27,491.55 503.27,492.88 C503.27,494.21 502.828,495.215 501.943,495.895 C501.058,496.574 499.866,496.914 498.366,496.914 C496.83,496.914 495.629,496.202 494.762,494.779 C493.895,493.355 493.461,491.664 493.461,489.707 C493.461,487.762 493.965,486.074 494.973,484.645 C495.981,483.215 497.305,482.5 498.946,482.5 C500.024,482.5 500.955,482.773 501.741,483.318 C502.526,483.863 502.918,484.58 502.918,485.471 C502.918,485.987 502.731,486.432 502.356,486.807 C501.981,487.182 501.533,487.369 501.011,487.369 C500.49,487.369 500.041,487.182 499.666,486.807 C499.291,486.432 499.104,485.987 499.104,485.471 C499.104,484.967 499.291,484.522 499.666,484.135 C499.795,483.983 499.977,483.854 500.211,483.748 C500.153,483.596 500.036,483.479 499.86,483.397 C499.602,483.244 499.297,483.168 498.946,483.168 M499.807,490.358 C499.596,489.807 499.133,489.531 498.418,489.531 C497.703,489.531 497.261,489.807 497.091,490.358 C496.921,490.908 496.836,491.746 496.836,492.871 C496.836,494.196 496.921,495.086 497.091,495.543 C497.261,496 497.703,496.229 498.418,496.229 C499.133,496.229 499.596,495.953 499.807,495.403 C500.018,494.852 500.123,494.011 500.123,492.88 C500.123,491.749 500.018,490.908 499.807,490.358"/>
<path class="FiguredBass" d="M669.366,493.451 C669.237,493.592 669.067,493.662 668.856,493.662 C668.645,493.662 668.472,493.589 668.337,493.443 C668.203,493.296 668.135,493.129 668.135,492.942 L668.135,490.428 L665.622,490.428 C665.411,490.428 665.238,490.355 665.103,490.208 C664.968,490.062 664.901,489.895 664.901,489.707 C664.901,489.52 664.968,489.353 665.103,489.206 C665.238,489.06 665.411,488.987 665.622,488.987 L668.135,488.987 L668.135,486.473 C668.135,486.285 668.203,486.118 668.337,485.972 C668.472,485.825 668.645,485.752 668.856,485.752 C669.067,485.752 669.24,485.825 669.374,485.972 C669.509,486.118 669.577,486.285 669.577,486.473 L669.577,488.987 L672.09,488.987 C672.301,488.987 672.474,489.06 672.609,489.206 C672.744,489.353 672.811,489.52 672.811,489.707 C672.811,489.895 672.744,490.062 672.609,490.208 C672.474,490.355 672.301,490.428 672.09,490.428 L669.577,490.428 L669.577,492.942 C669.577,493.129 669.506,493.299 669.366,493.451 M679.364,482.869 C679.809,482.869 680.278,482.805 680.77,482.676 L681.561,482.465 C681.713,482.465 681.833,482.524 681.921,482.641 C682.009,482.758 682,482.863 681.895,482.957 L673.721,492.467 L678.52,492.467 L678.52,488.705 C678.52,488.436 678.593,488.228 678.74,488.081 C678.886,487.935 679.074,487.818 679.302,487.73 C679.531,487.642 679.83,487.381 680.199,486.947 C680.568,486.514 680.922,485.928 681.262,485.19 C681.321,485.072 681.409,485.014 681.526,485.014 C681.772,485.014 681.895,485.149 681.895,485.418 L681.895,492.467 L683.969,492.467 C684.262,492.467 684.409,492.602 684.409,492.871 C684.409,493.164 684.262,493.311 683.969,493.311 L681.895,493.311 L681.895,493.539 C681.895,494.266 682.088,494.899 682.475,495.438 C682.862,495.977 683.36,496.246 683.969,496.246 C684.204,496.246 684.321,496.352 684.321,496.563 C684.321,496.797 684.204,496.914 683.969,496.914 C683.547,496.914 682.92,496.853 682.088,496.73 C681.256,496.607 680.626,496.545 680.199,496.545 C679.771,496.545 679.141,496.607 678.309,496.73 C677.477,496.853 676.85,496.914 676.428,496.914 C676.194,496.914 676.077,496.797 676.077,496.563 C676.077,496.352 676.194,496.246 676.428,496.246 C677.038,496.246 677.539,495.977 677.931,495.438 C678.324,494.899 678.52,494.266 678.52,493.539 L678.52,493.311 L673.721,493.311 C673.416,493.311 673.191,493.238 673.044,493.091 C672.898,492.945 672.825,492.795 672.825,492.643 C672.825,492.584 672.962,492.382 673.238,492.036 C673.513,491.691 673.85,491.231 674.248,490.656 C674.647,490.082 675.042,489.429 675.435,488.696 C675.828,487.964 676.162,487.085 676.437,486.06 C676.712,485.034 676.85,484 676.85,482.957 C676.85,482.653 676.979,482.5 677.237,482.5 C677.272,482.5 677.395,482.529 677.606,482.588 C677.817,482.647 678.086,482.708 678.414,482.773 C678.743,482.837 679.059,482.869 679.364,482.869"/>
<path class="FiguredBass" d="M116.308,338.172 C116.343,338.172 116.42,338.096 116.537,337.943 C117.041,337.228 117.744,336.871 118.646,336.871 C119.373,336.871 120.058,337.141 120.703,337.68 C121.347,338.219 121.881,338.488 122.302,338.488 C122.759,338.488 123.193,338.353 123.603,338.084 C124.013,337.814 124.339,337.545 124.579,337.275 C124.819,337.006 124.974,336.871 125.045,336.871 C125.162,336.871 125.267,336.909 125.361,336.985 C125.455,337.061 125.502,337.158 125.502,337.275 C125.502,337.357 125.261,337.762 124.781,338.488 C124.3,339.215 123.767,340.056 123.181,341.011 C122.595,341.966 122.062,343.158 121.582,344.588 C121.101,346.018 120.861,347.383 120.861,348.684 C120.861,349.187 120.914,349.768 121.019,350.424 C121.101,350.928 121.101,351.215 121.019,351.285 C120.961,351.344 120.861,351.373 120.72,351.373 C120.662,351.373 120.389,351.297 119.903,351.144 C119.417,350.992 118.951,350.916 118.506,350.916 C118.107,350.916 117.647,350.992 117.126,351.144 C116.604,351.297 116.314,351.373 116.256,351.373 C116.127,351.373 116.021,351.32 115.939,351.215 C115.857,351.109 115.845,350.998 115.904,350.881 C116.595,349.228 117.436,347.62 118.426,346.056 C119.417,344.491 120.656,342.689 122.144,340.65 C121.582,340.955 121.013,341.107 120.439,341.107 C119.83,341.107 119.214,340.835 118.593,340.29 C117.972,339.745 117.463,339.473 117.064,339.473 C116.771,339.473 116.516,339.64 116.299,339.974 C116.083,340.308 115.974,340.809 115.974,341.476 L115.974,343.639 C115.974,343.932 115.839,344.078 115.57,344.078 C115.277,344.078 115.131,343.932 115.131,343.639 L115.131,337.31 C115.131,337.018 115.277,336.871 115.57,336.871 C115.839,336.871 115.974,337.018 115.974,337.31 L115.974,337.715 C115.974,337.809 115.998,337.891 116.045,337.961 C116.185,338.101 116.273,338.172 116.308,338.172"/>
<path class="FiguredBass" d="M116.396,356.902 C116.396,356.902 116.677,356.943 117.24,357.025 C117.486,357.06 117.761,357.096 118.066,357.131 C118.875,357.225 119.654,357.271 120.404,357.271 C121.154,357.271 121.945,357.225 122.777,357.131 C123.105,357.096 123.392,357.06 123.638,357.025 L124.5,356.902 C124.675,356.902 124.807,356.961 124.895,357.078 C124.983,357.195 124.974,357.289 124.869,357.359 C123.076,359.152 120.55,360.049 117.293,360.049 C117.164,360.049 117.049,360.096 116.95,360.189 C116.85,360.283 116.8,360.4 116.8,360.541 L116.8,363.301 C117.632,362.48 118.64,362.07 119.824,362.07 C121.535,362.07 122.856,362.454 123.788,363.222 C124.719,363.989 125.185,365.152 125.185,366.711 C125.185,368.035 124.658,369.134 123.603,370.007 C122.548,370.88 121.289,371.316 119.824,371.316 C118.558,371.316 117.46,371.029 116.528,370.455 C115.596,369.881 115.131,369.084 115.131,368.064 C115.131,367.549 115.318,367.101 115.693,366.72 C116.068,366.339 116.516,366.148 117.038,366.148 C117.559,366.148 118.002,366.336 118.365,366.711 C118.728,367.086 118.91,367.537 118.91,368.064 C118.91,368.299 118.716,368.554 118.33,368.829 C117.943,369.104 117.75,369.359 117.75,369.594 C117.75,370.297 118.441,370.648 119.824,370.648 C121.172,370.648 121.845,369.336 121.845,366.711 C121.845,364.18 121.172,362.908 119.824,362.896 C118.617,362.896 117.773,363.143 117.293,363.635 C116.812,364.127 116.513,364.373 116.396,364.373 C116.103,364.373 115.963,364.226 115.974,363.934 L115.974,357.359 C115.974,357.23 116.015,357.122 116.097,357.034 C116.179,356.946 116.279,356.902 116.396,356.902"/>
<path class="FiguredBass" d="M120.666,387.885 C120.537,388.025 120.367,388.096 120.156,388.096 C119.945,388.096 119.772,388.022 119.637,387.876 C119.503,387.729 119.435,387.562 119.435,387.375 L119.435,384.861 L116.922,384.861 C116.711,384.861 116.538,384.788 116.403,384.642 C116.268,384.495 116.201,384.328 116.201,384.141 C116.201,383.953 116.268,383.786 116.403,383.64 C116.538,383.493 116.711,383.42 116.922,383.42 L119.435,383.42 L119.435,380.906 C119.435,380.719 119.503,380.552 119.637,380.405 C119.772,380.259 119.945,380.185 120.156,380.185 C120.367,380.185 120.54,380.259 120.674,380.405 C120.809,380.552 120.877,380.719 120.877,380.906 L120.877,383.42 L123.39,383.42 C123.601,383.42 123.774,383.493 123.909,383.64 C124.044,383.786 124.111,383.953 124.111,384.141 C124.111,384.328 124.044,384.495 123.909,384.642 C123.774,384.788 123.601,384.861 123.39,384.861 L120.877,384.861 L120.877,387.375 C120.877,387.562 120.806,387.732 120.666,387.885"/>
<path class="FiguredBass" d="M303.641,337.539 C302.774,337.539 302.197,337.888 301.91,338.585 C301.623,339.282 301.479,340.269 301.479,341.547 L301.479,343.621 C302.089,343.375 302.616,343.246 303.061,343.234 C304.585,343.234 305.783,343.571 306.656,344.245 C307.529,344.919 307.966,345.921 307.966,347.251 C307.966,348.581 307.523,349.586 306.638,350.266 C305.754,350.945 304.561,351.285 303.061,351.285 C301.526,351.285 300.325,350.573 299.458,349.149 C298.591,347.726 298.157,346.035 298.157,344.078 C298.157,342.133 298.661,340.445 299.669,339.016 C300.677,337.586 302.001,336.871 303.641,336.871 C304.72,336.871 305.651,337.143 306.436,337.688 C307.221,338.233 307.614,338.951 307.614,339.842 C307.614,340.357 307.427,340.803 307.052,341.178 C306.677,341.553 306.228,341.74 305.707,341.74 C305.185,341.74 304.737,341.553 304.362,341.178 C303.987,340.803 303.8,340.357 303.8,339.842 C303.8,339.338 303.987,338.893 304.362,338.506 C304.491,338.353 304.673,338.225 304.907,338.119 C304.848,337.967 304.731,337.85 304.555,337.768 C304.298,337.615 303.993,337.539 303.641,337.539 M304.503,344.728 C304.292,344.178 303.829,343.902 303.114,343.902 C302.399,343.902 301.957,344.178 301.787,344.728 C301.617,345.279 301.532,346.117 301.532,347.242 C301.532,348.566 301.617,349.457 301.787,349.914 C301.957,350.371 302.399,350.6 303.114,350.6 C303.829,350.6 304.292,350.324 304.503,349.773 C304.714,349.223 304.819,348.382 304.819,347.251 C304.819,346.12 304.714,345.279 304.503,344.728"/>
<path class="FiguredBass" d="M299.352,356.902 L300.196,357.025 C300.419,357.06 300.694,357.096 301.022,357.131 C301.831,357.225 302.61,357.271 303.36,357.271 C304.11,357.271 304.901,357.225 305.733,357.131 C306.061,357.096 306.348,357.06 306.595,357.025 L307.456,356.902 C307.632,356.902 307.766,356.961 307.86,357.078 C307.93,357.172 307.919,357.266 307.825,357.359 C305.997,359.152 303.471,360.049 300.249,360.049 C300.12,360.049 300.006,360.096 299.906,360.189 C299.806,360.283 299.757,360.4 299.757,360.541 L299.757,362.773 C300.589,361.953 301.596,361.543 302.78,361.543 C304.432,361.543 305.721,361.93 306.647,362.703 C307.655,361.941 308.182,360.969 308.229,359.785 C308.241,359.41 308.364,359.105 308.598,358.871 C308.856,358.637 309.167,358.519 309.53,358.519 C309.893,358.519 310.201,358.643 310.453,358.889 C310.705,359.135 310.831,359.434 310.831,359.785 C310.831,361.601 309.759,362.978 307.614,363.916 C307.966,364.607 308.141,365.451 308.141,366.447 C308.141,367.771 307.614,368.914 306.559,369.875 C305.505,370.836 304.245,371.316 302.78,371.316 C301.514,371.316 300.416,371.029 299.484,370.455 C298.553,369.881 298.087,369.084 298.087,368.064 C298.087,367.549 298.274,367.101 298.649,366.72 C299.024,366.339 299.472,366.148 299.994,366.148 C300.515,366.148 300.958,366.336 301.321,366.711 C301.684,367.086 301.866,367.537 301.866,368.064 C301.866,368.299 301.673,368.554 301.286,368.829 C300.899,369.104 300.706,369.359 300.706,369.594 C300.706,370.297 301.397,370.648 302.78,370.648 C304.128,370.648 304.802,369.248 304.802,366.447 C304.802,365.826 304.766,365.281 304.696,364.812 C303.278,365.105 301.503,365.334 299.37,365.498 C299.077,365.521 298.93,365.375 298.93,365.059 C298.93,364.801 299.077,364.66 299.37,364.637 C301.526,364.461 303.225,364.18 304.468,363.793 C304.139,362.855 303.577,362.381 302.78,362.369 C301.573,362.369 300.729,362.615 300.249,363.107 C299.768,363.6 299.47,363.846 299.352,363.846 C299.071,363.846 298.93,363.699 298.93,363.406 L298.93,357.359 C298.93,357.242 298.971,357.137 299.054,357.043 C299.147,356.949 299.247,356.902 299.352,356.902"/>
<path class="FiguredBass" d="M305.891,383.701 C305.891,383.889 305.997,384.07 306.208,384.246 C306.419,384.422 306.65,384.589 306.902,384.747 C307.154,384.905 307.386,385.204 307.596,385.643 C307.807,386.083 307.913,386.637 307.913,387.305 C307.913,388.594 307.427,389.59 306.454,390.293 C305.481,390.996 304.251,391.348 302.762,391.348 C301.567,391.348 300.527,391.049 299.642,390.451 C298.758,389.853 298.315,389.068 298.315,388.096 C298.315,387.58 298.503,387.132 298.878,386.751 C299.253,386.37 299.701,386.18 300.222,386.18 C300.744,386.18 301.186,386.367 301.55,386.742 C301.913,387.117 302.095,387.568 302.095,388.096 C302.095,388.33 301.901,388.585 301.514,388.86 C301.128,389.136 300.934,389.391 300.934,389.625 C300.934,389.988 301.113,390.255 301.47,390.425 C301.828,390.595 302.259,390.68 302.762,390.68 C303.419,390.68 303.885,390.354 304.16,389.704 C304.435,389.054 304.573,388.254 304.573,387.305 L304.573,386.848 C304.573,386.215 304.553,385.734 304.512,385.406 C304.47,385.078 304.342,384.785 304.125,384.527 C303.908,384.269 303.577,384.141 303.132,384.141 L300.829,384.141 C300.559,384.141 300.425,383.994 300.425,383.701 C300.425,383.432 300.559,383.297 300.829,383.297 L303.132,383.297 C303.612,383.297 303.987,383.115 304.257,382.752 C304.35,382.623 304.427,382.412 304.485,382.119 C304.544,381.732 304.573,381.176 304.573,380.449 L304.573,380.221 C304.573,378.475 303.929,377.601 302.639,377.601 C301.503,377.601 300.934,377.918 300.934,378.551 C300.934,378.762 301.107,378.987 301.453,379.227 C301.799,379.468 301.971,379.693 301.971,379.904 C301.971,380.361 301.81,380.754 301.488,381.082 C301.166,381.41 300.773,381.574 300.31,381.574 C299.847,381.574 299.458,381.41 299.141,381.082 C298.825,380.754 298.667,380.361 298.667,379.904 C298.667,379.002 299.059,378.281 299.845,377.742 C300.63,377.203 301.561,376.934 302.639,376.934 C304.057,376.934 305.223,377.206 306.137,377.751 C307.052,378.296 307.509,379.119 307.509,380.221 C307.509,381.006 307.427,381.615 307.262,382.049 C307.098,382.482 306.911,382.746 306.7,382.84 C306.489,382.934 306.302,383.042 306.137,383.165 C305.973,383.288 305.891,383.467 305.891,383.701"/>
<path class="FiguredBass" d="M498.823,337.24 C499.268,337.24 499.737,337.176 500.229,337.047 L501.02,336.836 C501.172,336.836 501.292,336.894 501.38,337.012 C501.468,337.129 501.459,337.234 501.354,337.328 L493.18,346.838 L497.979,346.838 L497.979,343.076 C497.979,342.807 498.052,342.599 498.199,342.452 C498.345,342.306 498.533,342.188 498.761,342.101 C498.99,342.013 499.288,341.752 499.658,341.318 C500.027,340.885 500.381,340.299 500.721,339.56 C500.78,339.443 500.868,339.385 500.985,339.385 C501.231,339.385 501.354,339.519 501.354,339.789 L501.354,346.838 L503.428,346.838 C503.721,346.838 503.868,346.973 503.868,347.242 C503.868,347.535 503.721,347.682 503.428,347.682 L501.354,347.682 L501.354,347.91 C501.354,348.637 501.547,349.269 501.934,349.809 C502.321,350.348 502.819,350.617 503.428,350.617 C503.662,350.617 503.78,350.723 503.78,350.934 C503.78,351.168 503.662,351.285 503.428,351.285 C503.006,351.285 502.379,351.224 501.547,351.101 C500.715,350.977 500.085,350.916 499.658,350.916 C499.23,350.916 498.6,350.977 497.768,351.101 C496.936,351.224 496.309,351.285 495.887,351.285 C495.653,351.285 495.536,351.168 495.536,350.934 C495.536,350.723 495.653,350.617 495.887,350.617 C496.496,350.617 496.997,350.348 497.39,349.809 C497.783,349.269 497.979,348.637 497.979,347.91 L497.979,347.682 L493.18,347.682 C492.875,347.682 492.65,347.608 492.503,347.462 C492.357,347.315 492.284,347.166 492.284,347.014 C492.284,346.955 492.421,346.753 492.697,346.407 C492.972,346.061 493.309,345.601 493.707,345.027 C494.106,344.453 494.501,343.8 494.894,343.067 C495.286,342.335 495.62,341.456 495.896,340.431 C496.171,339.405 496.309,338.371 496.309,337.328 C496.309,337.023 496.438,336.871 496.696,336.871 C496.731,336.871 496.854,336.9 497.065,336.959 C497.276,337.018 497.545,337.079 497.873,337.143 C498.202,337.208 498.518,337.24 498.823,337.24"/>
<path class="FiguredBass" d="M501.196,363.67 C501.196,363.857 501.301,364.039 501.512,364.215 C501.723,364.391 501.954,364.558 502.206,364.716 C502.458,364.874 502.69,365.173 502.901,365.612 C503.112,366.052 503.217,366.605 503.217,367.273 C503.217,368.562 502.731,369.559 501.758,370.262 C500.786,370.965 499.555,371.316 498.067,371.316 C496.871,371.316 495.831,371.018 494.947,370.42 C494.062,369.822 493.619,369.037 493.619,368.064 C493.619,367.549 493.807,367.101 494.182,366.72 C494.557,366.339 495.005,366.148 495.527,366.148 C496.048,366.148 496.491,366.336 496.854,366.711 C497.217,367.086 497.399,367.537 497.399,368.064 C497.399,368.299 497.205,368.554 496.819,368.829 C496.432,369.104 496.239,369.359 496.239,369.594 C496.239,369.957 496.417,370.224 496.775,370.393 C497.132,370.563 497.563,370.648 498.067,370.648 C498.723,370.648 499.189,370.323 499.464,369.673 C499.74,369.022 499.877,368.223 499.877,367.273 L499.877,366.816 C499.877,366.184 499.857,365.703 499.816,365.375 C499.775,365.047 499.646,364.754 499.429,364.496 C499.212,364.238 498.881,364.109 498.436,364.109 L496.133,364.109 C495.864,364.109 495.729,363.963 495.729,363.67 C495.729,363.4 495.864,363.266 496.133,363.266 L498.436,363.266 C498.916,363.266 499.291,363.084 499.561,362.721 C499.655,362.592 499.731,362.381 499.789,362.088 C499.848,361.701 499.877,361.144 499.877,360.418 L499.877,360.189 C499.877,358.443 499.233,357.57 497.944,357.57 C496.807,357.57 496.239,357.887 496.239,358.519 C496.239,358.73 496.411,358.956 496.757,359.196 C497.103,359.436 497.276,359.662 497.276,359.873 C497.276,360.33 497.115,360.723 496.792,361.051 C496.47,361.379 496.078,361.543 495.615,361.543 C495.152,361.543 494.762,361.379 494.446,361.051 C494.129,360.723 493.971,360.33 493.971,359.873 C493.971,358.971 494.364,358.25 495.149,357.711 C495.934,357.172 496.866,356.902 497.944,356.902 C499.362,356.902 500.528,357.175 501.442,357.72 C502.356,358.265 502.813,359.088 502.813,360.189 C502.813,360.975 502.731,361.584 502.567,362.018 C502.403,362.451 502.215,362.715 502.004,362.809 C501.793,362.902 501.606,363.011 501.442,363.134 C501.278,363.257 501.196,363.435 501.196,363.67"/>
<path class="FiguredBass" d="M488.825,387.885 C488.696,388.025 488.526,388.096 488.315,388.096 C488.104,388.096 487.931,388.022 487.796,387.876 C487.661,387.729 487.594,387.562 487.594,387.375 L487.594,384.861 L485.08,384.861 C484.869,384.861 484.697,384.788 484.562,384.642 C484.427,384.495 484.36,384.328 484.36,384.141 C484.36,383.953 484.427,383.786 484.562,383.64 C484.697,383.493 484.869,383.42 485.08,383.42 L487.594,383.42 L487.594,380.906 C487.594,380.719 487.661,380.552 487.796,380.405 C487.931,380.259 488.104,380.185 488.315,380.185 C488.526,380.185 488.699,380.259 488.833,380.405 C488.968,380.552 489.036,380.719 489.036,380.906 L489.036,383.42 L491.549,383.42 C491.76,383.42 491.933,383.493 492.068,383.64 C492.203,383.786 492.27,383.953 492.27,384.141 C492.27,384.328 492.203,384.495 492.068,384.642 C491.933,384.788 491.76,384.861 491.549,384.861 L489.036,384.861 L489.036,387.375 C489.036,387.562 488.965,387.732 488.825,387.885 M498.946,377.601 C498.078,377.601 497.501,377.95 497.214,378.647 C496.927,379.345 496.784,380.332 496.784,381.609 L496.784,383.684 C497.393,383.437 497.92,383.309 498.366,383.297 C499.889,383.297 501.087,383.634 501.96,384.308 C502.833,384.981 503.27,385.983 503.27,387.313 C503.27,388.643 502.828,389.648 501.943,390.328 C501.058,391.008 499.866,391.348 498.366,391.348 C496.83,391.348 495.629,390.636 494.762,389.212 C493.895,387.788 493.461,386.098 493.461,384.141 C493.461,382.195 493.965,380.508 494.973,379.078 C495.981,377.648 497.305,376.934 498.946,376.934 C500.024,376.934 500.955,377.206 501.741,377.751 C502.526,378.296 502.918,379.014 502.918,379.904 C502.918,380.42 502.731,380.865 502.356,381.24 C501.981,381.615 501.533,381.803 501.011,381.803 C500.49,381.803 500.041,381.615 499.666,381.24 C499.291,380.865 499.104,380.42 499.104,379.904 C499.104,379.4 499.291,378.955 499.666,378.568 C499.795,378.416 499.977,378.287 500.211,378.182 C500.153,378.029 500.036,377.912 499.86,377.83 C499.602,377.678 499.297,377.601 498.946,377.601 M499.807,384.791 C499.596,384.24 499.133,383.965 498.418,383.965 C497.703,383.965 497.261,384.24 497.091,384.791 C496.921,385.342 496.836,386.18 496.836,387.305 C496.836,388.629 496.921,389.519 497.091,389.976 C497.261,390.434 497.703,390.662 498.418,390.662 C499.133,390.662 499.596,390.387 499.807,389.836 C500.018,389.285 500.123,388.444 500.123,387.313 C500.123,386.183 500.018,385.342 499.807,384.791"/>
<path class="FiguredBass" d="M680.278,351.285 C679.141,351.285 678.315,350.969 677.799,350.336 C677.612,350.101 677.372,349.885 677.079,349.685 C676.786,349.486 676.463,349.387 676.112,349.387 C675.655,349.387 675.245,349.53 674.881,349.817 C674.518,350.104 674.336,350.488 674.336,350.969 C674.336,351.18 674.231,351.285 674.02,351.285 C673.786,351.285 673.668,351.18 673.668,350.969 C673.668,350.254 673.835,349.601 674.169,349.009 C674.503,348.417 674.922,347.919 675.426,347.515 C675.93,347.11 676.475,346.677 677.061,346.214 C677.647,345.751 678.189,345.303 678.687,344.869 C679.185,344.435 679.601,343.888 679.935,343.226 C680.269,342.563 680.436,341.84 680.436,341.055 C680.436,340.07 680.275,339.238 679.953,338.559 C679.63,337.879 679.123,337.539 678.432,337.539 C678.034,337.539 677.688,337.636 677.395,337.829 C677.102,338.022 676.956,338.277 676.956,338.594 C676.956,338.84 677.122,339.162 677.456,339.56 C677.79,339.959 677.957,340.293 677.957,340.562 C677.957,341.125 677.767,341.597 677.386,341.977 C677.005,342.358 676.545,342.549 676.006,342.549 C675.444,342.549 674.972,342.352 674.591,341.96 C674.21,341.567 674.02,341.101 674.02,340.562 C674.02,339.484 674.451,338.6 675.312,337.908 C676.173,337.217 677.213,336.871 678.432,336.871 C679.873,336.871 681.13,337.261 682.203,338.04 C683.275,338.819 683.811,339.824 683.811,341.055 C683.811,341.887 683.662,342.607 683.363,343.217 C683.064,343.826 682.636,344.318 682.08,344.693 C681.523,345.068 680.966,345.388 680.41,345.651 C679.853,345.915 679.2,346.199 678.45,346.504 C677.7,346.809 677.096,347.107 676.639,347.4 C676.885,347.342 677.137,347.312 677.395,347.312 C678.262,347.312 679.164,347.594 680.102,348.156 C681.039,348.719 681.778,349 682.317,349 C682.622,349 682.871,348.944 683.064,348.833 C683.257,348.722 683.383,348.599 683.442,348.464 C683.5,348.329 683.568,348.203 683.644,348.086 C683.72,347.969 683.805,347.91 683.899,347.91 C684.133,347.91 684.25,348.027 684.25,348.262 C684.25,348.766 683.887,349.395 683.161,350.151 C682.434,350.907 681.473,351.285 680.278,351.285"/>
<path class="FiguredBass" d="M679.487,357.57 C678.62,357.57 678.042,357.919 677.755,358.616 C677.468,359.313 677.325,360.301 677.325,361.578 L677.325,363.652 C677.934,363.406 678.461,363.277 678.907,363.266 C680.43,363.266 681.628,363.602 682.501,364.276 C683.374,364.95 683.811,365.952 683.811,367.282 C683.811,368.612 683.369,369.617 682.484,370.297 C681.599,370.976 680.407,371.316 678.907,371.316 C677.372,371.316 676.17,370.604 675.303,369.181 C674.436,367.757 674.002,366.066 674.002,364.109 C674.002,362.164 674.506,360.476 675.514,359.047 C676.522,357.617 677.846,356.902 679.487,356.902 C680.565,356.902 681.497,357.175 682.282,357.72 C683.067,358.265 683.459,358.982 683.459,359.873 C683.459,360.389 683.272,360.834 682.897,361.209 C682.522,361.584 682.074,361.771 681.552,361.771 C681.031,361.771 680.582,361.584 680.207,361.209 C679.832,360.834 679.645,360.389 679.645,359.873 C679.645,359.369 679.832,358.924 680.207,358.537 C680.336,358.385 680.518,358.256 680.752,358.15 C680.694,357.998 680.577,357.881 680.401,357.799 C680.143,357.646 679.838,357.57 679.487,357.57 M680.348,364.76 C680.137,364.209 679.674,363.934 678.959,363.934 C678.245,363.934 677.802,364.209 677.632,364.76 C677.462,365.31 677.377,366.148 677.377,367.273 C677.377,368.598 677.462,369.488 677.632,369.945 C677.802,370.402 678.245,370.631 678.959,370.631 C679.674,370.631 680.137,370.355 680.348,369.805 C680.559,369.254 680.664,368.413 680.664,367.282 C680.664,366.151 680.559,365.31 680.348,364.76"/>
<path class="FiguredBass" d="M669.366,387.885 C669.237,388.025 669.067,388.096 668.856,388.096 C668.645,388.096 668.472,388.022 668.337,387.876 C668.203,387.729 668.135,387.562 668.135,387.375 L668.135,384.861 L665.622,384.861 C665.411,384.861 665.238,384.788 665.103,384.642 C664.968,384.495 664.901,384.328 664.901,384.141 C664.901,383.953 664.968,383.786 665.103,383.64 C665.238,383.493 665.411,383.42 665.622,383.42 L668.135,383.42 L668.135,380.906 C668.135,380.719 668.203,380.552 668.337,380.405 C668.472,380.259 668.645,380.185 668.856,380.185 C669.067,380.185 669.24,380.259 669.374,380.405 C669.509,380.552 669.577,380.719 669.577,380.906 L669.577,383.42 L672.09,383.42 C672.301,383.42 672.474,383.493 672.609,383.64 C672.744,383.786 672.811,383.953 672.811,384.141 C672.811,384.328 672.744,384.495 672.609,384.642 C672.474,384.788 672.301,384.861 672.09,384.861 L669.577,384.861 L669.577,387.375 C669.577,387.562 669.506,387.732 669.366,387.885 M679.364,377.303 C679.809,377.303 680.278,377.238 680.77,377.109 L681.561,376.898 C681.713,376.898 681.833,376.957 681.921,377.074 C682.009,377.191 682,377.297 681.895,377.391 L673.721,386.9 L678.52,386.9 L678.52,383.139 C678.52,382.869 678.593,382.661 678.74,382.515 C678.886,382.368 679.074,382.251 679.302,382.163 C679.531,382.075 679.83,381.814 680.199,381.381 C680.568,380.947 680.922,380.361 681.262,379.623 C681.321,379.506 681.409,379.447 681.526,379.447 C681.772,379.447 681.895,379.582 681.895,379.851 L681.895,386.9 L683.969,386.9 C684.262,386.9 684.409,387.035 684.409,387.305 C684.409,387.598 684.262,387.744 683.969,387.744 L681.895,387.744 L681.895,387.973 C681.895,388.699 682.088,389.332 682.475,389.871 C682.862,390.41 683.36,390.68 683.969,390.68 C684.204,390.68 684.321,390.785 684.321,390.996 C684.321,391.23 684.204,391.348 683.969,391.348 C683.547,391.348 682.92,391.286 682.088,391.163 C681.256,391.04 680.626,390.978 680.199,390.978 C679.771,390.978 679.141,391.04 678.309,391.163 C677.477,391.286 676.85,391.348 676.428,391.348 C676.194,391.348 676.077,391.23 676.077,390.996 C676.077,390.785 676.194,390.68 676.428,390.68 C677.038,390.68 677.539,390.41 677.931,389.871 C678.324,389.332 678.52,388.699 678.52,387.973 L678.52,387.744 L673.721,387.744 C673.416,387.744 673.191,387.671 673.044,387.524 C672.898,387.378 672.825,387.228 672.825,387.076 C672.825,387.018 672.962,386.815 673.238,386.47 C673.513,386.124 673.85,385.664 674.248,385.09 C674.647,384.516 675.042,383.862 675.435,383.13 C675.828,382.397 676.162,381.518 676.437,380.493 C676.712,379.468 676.85,378.434 676.85,377.391 C676.85,377.086 676.979,376.934 677.237,376.934 C677.272,376.934 677.395,376.963 677.606,377.021 C677.817,377.08 678.086,377.142 678.414,377.206 C678.743,377.27 679.059,377.303 679.364,377.303"/>
<polyline class="FretDiagram" stroke="#fc02ff" stroke-width="0.91" stroke-linejoin="bevel" points="100.947,44.674 141.54,44.674"/>
<polyline class="FretDiagram" stroke="#fc02ff" stroke-width="0.91" stroke-linejoin="bevel" points="101.401,42.4063 101.401,85.4929"/>
<polyline class="FretDiagram" stroke="#fc02ff" stroke-width="0.91" stroke-linejoin="bevel" points="109.338,42.4063 109.338,85.4929"/>
<polyline class="FretDiagram" stroke="#fc02ff" stroke-width="0.91" stroke-linejoin="bevel" points="117.275,42.4063 117.275,85.4929"/>
<polyline class="FretDiagram" stroke="#fc02ff" stroke-width="0.91" stroke-linejoin="bevel" points="125.212,42.4063 125.212,85.4929"/>
<polyline class="FretDiagram" stroke="#fc02ff" stroke-width="0.91" stroke-linejoin="bevel" points="133.149,42.4063 133.149,85.4929"/>
<polyline class="FretDiagram" stroke="#fc02ff" stroke-width="0.91" stroke-linejoin="bevel" points="141.086,42.4063 141.086,85.4929"/>
<polyline class="FretDiagram" stroke="#fc02ff" stroke-width="0.91" stroke-linejoin="bevel" points="101.401,53.7449 141.086,53.7449"/>
<polyline class="FretDiagram" stroke="#fc02ff" stroke-width="0.91" stroke-linejoin="bevel" points="101.401,62.8158 141.086,62.8158"/>
<polyline class="FretDiagram" stroke="#fc02ff" stroke-width="0.91" stroke-linejoin="bevel" points="101.401,71.8866 141.086,71.8866"/>
<polyline class="FretDiagram" stroke="#fc02ff" stroke-width="0.91" stroke-linejoin="bevel" points="101.401,80.9575 141.086,80.9575"/>
<path class="FretDiagram" fill="#fc02ff" fill-rule="evenodd" d="M120.053,67.3512 C120.053,68.8854 118.809,70.1291 117.275,70.1291 C115.741,70.1291 114.497,68.8854 114.497,67.3512 C114.497,65.817 115.741,64.5732 117.275,64.5732 C118.809,64.5732 120.053,65.817 120.053,67.3512"/>
<path class="FretDiagram" fill="#fc02ff" fill-rule="evenodd" d="M127.99,58.2803 C127.99,59.8146 126.746,61.0583 125.212,61.0583 C123.678,61.0583 122.434,59.8146 122.434,58.2803 C122.434,56.7461 123.678,55.5024 125.212,55.5024 C126.746,55.5024 127.99,56.7461 127.99,58.2803"/>
<path class="FretDiagram" fill="#fc02ff" fill-rule="evenodd" d="M135.927,67.3512 C135.927,68.8854 134.683,70.1291 133.149,70.1291 C131.615,70.1291 130.371,68.8854 130.371,67.3512 C130.371,65.817 131.615,64.5732 133.149,64.5732 C134.683,64.5732 135.927,65.817 135.927,67.3512"/>
<polyline class="FretDiagram" fill="none" stroke="#fc02ff" stroke-width="1.31" stroke-linecap="round" stroke-linejoin="bevel" points="98.2262,32.4284 104.576,38.778"/>
<polyline class="FretDiagram" fill="none" stroke="#fc02ff" stroke-width="1.31" stroke-linecap="round" stroke-linejoin="bevel" points="98.2262,38.778 104.576,32.4284"/>
<path class="FretDiagram" fill="none" stroke="#fc02ff" stroke-width="1.31" stroke-linecap="round" stroke-linejoin="bevel" fill-rule="evenodd" d="M112.513,35.6032 C112.513,37.3566 111.091,38.778 109.338,38.778 C107.585,38.778 106.163,37.3566 106.163,35.6032 C106.163,33.8498 107.585,32.4284 109.338,32.4284 C111.091,32.4284 112.513,33.8498 112.513,35.6032"/>
<path class="FretDiagram" fill="none" stroke="#fc02ff" stroke-width="1.31" stroke-linecap="round" stroke-linejoin="bevel" fill-rule="evenodd" d="M144.261,35.6032 C144.261,37.3566 142.839,38.778 141.086,38.778 C139.333,38.778 137.911,37.3566 137.911,35.6032 C137.911,33.8498 139.333,32.4284 141.086,32.4284 C142.839,32.4284 144.261,33.8498 144.261,35.6032"/>
<polyline class="FretDiagram" fill="none" stroke="#fc02ff" stroke-width="5.56" stroke-linecap="round" stroke-linejoin="bevel" points="109.338,49.2095 141.086,49.2095"/>
<path class="FretDiagram" fill="#fc02ff" d="M89.1291,47.1838 C89.2131,44.2318 90.6171,42.7558 93.3411,42.7558 C94.5531,42.7558 95.5371,43.1038 96.2931,43.7998 C97.0491,44.4958 97.4271,45.3958 97.4271,46.4998 C97.4271,48.0838 96.5271,49.3678 94.7271,50.3518 L92.9271,51.3238 C92.1471,51.7438 91.5891,52.1518 91.2531,52.5478 C90.9171,52.9438 90.7071,53.4118 90.6231,53.9518 L97.3371,53.9518 L97.3371,55.5178 L88.8411,55.5178 C88.9131,54.1138 89.1951,53.0308 89.6871,52.2688 C90.1791,51.5068 91.0911,50.7478 92.4231,49.9918 L94.0791,49.0558 C95.2311,48.3958 95.8071,47.5558 95.8071,46.5358 C95.8071,45.8518 95.5671,45.2818 95.0871,44.8258 C94.6071,44.3698 94.0071,44.1418 93.2871,44.1418 C91.6911,44.1418 90.8331,45.1558 90.7131,47.1838 L89.1291,47.1838 "/>
<polyline class="FretDiagram" fill="#fc02ff" stroke="#fc02ff" stroke-width="0.91" stroke-linejoin="bevel" points="283.904,44.674 324.496,44.674"/>
<polyline class="FretDiagram" fill="#fc02ff" stroke="#fc02ff" stroke-width="0.91" stroke-linejoin="bevel" points="284.357,42.4063 284.357,85.4929"/>
<polyline class="FretDiagram" fill="#fc02ff" stroke="#fc02ff" stroke-width="0.91" stroke-linejoin="bevel" points="292.294,42.4063 292.294,85.4929"/>
<polyline class="FretDiagram" fill="#fc02ff" stroke="#fc02ff" stroke-width="0.91" stroke-linejoin="bevel" points="300.231,42.4063 300.231,85.4929"/>
<polyline class="FretDiagram" fill="#fc02ff" stroke="#fc02ff" stroke-width="0.91" stroke-linejoin="bevel" points="308.168,42.4063 308.168,85.4929"/>
<polyline class="FretDiagram" fill="#fc02ff" stroke="#fc02ff" stroke-width="0.91" stroke-linejoin="bevel" points="316.105,42.4063 316.105,85.4929"/>
<polyline class="FretDiagram" fill="#fc02ff" stroke="#fc02ff" stroke-width="0.91" stroke-linejoin="bevel" points="324.042,42.4063 324.042,85.4929"/>
<polyline class="FretDiagram" fill="#fc02ff" stroke="#fc02ff" stroke-width="0.91" stroke-linejoin="bevel" points="284.357,53.7449 324.042,53.7449"/>
<polyline class="FretDiagram" fill="#fc02ff" stroke="#fc02ff" stroke-width="0.91" stroke-linejoin="bevel" points="284.357,62.8158 324.042,62.8158"/>
<polyline class="FretDiagram" fill="#fc02ff" stroke="#fc02ff" stroke-width="0.91" stroke-linejoin="bevel" points="284.357,71.8866 324.042,71.8866"/>
<polyline class="FretDiagram" fill="#fc02ff" stroke="#fc02ff" stroke-width="0.91" stroke-linejoin="bevel" points="284.357,80.9575 324.042,80.9575"/>
<path class="FretDiagram" fill="#fc02ff" fill-rule="evenodd" d="M295.072,58.2803 C295.072,59.8146 293.828,61.0583 292.294,61.0583 C290.76,61.0583 289.516,59.8146 289.516,58.2803 C289.516,56.7461 290.76,55.5024 292.294,55.5024 C293.828,55.5024 295.072,56.7461 295.072,58.2803"/>
<path class="FretDiagram" fill="#fc02ff" fill-rule="evenodd" d="M318.883,67.3512 C318.883,68.8854 317.639,70.1291 316.105,70.1291 C314.571,70.1291 313.327,68.8854 313.327,67.3512 C313.327,65.817 314.571,64.5732 316.105,64.5732 C317.639,64.5732 318.883,65.817 318.883,67.3512"/>
<polyline class="FretDiagram" fill="none" stroke="#fc02ff" stroke-width="1.31" stroke-linecap="round" stroke-linejoin="bevel" points="281.182,32.4284 287.532,38.778"/>
<polyline class="FretDiagram" fill="none" stroke="#fc02ff" stroke-width="1.31" stroke-linecap="round" stroke-linejoin="bevel" points="281.182,38.778 287.532,32.4284"/>
<polyline class="FretDiagram" fill="none" stroke="#fc02ff" stroke-width="1.31" stroke-linecap="round" stroke-linejoin="bevel" points="297.056,32.4284 303.406,38.778"/>
<polyline class="FretDiagram" fill="none" stroke="#fc02ff" stroke-width="1.31" stroke-linecap="round" stroke-linejoin="bevel" points="297.056,38.778 303.406,32.4284"/>
<path class="FretDiagram" fill="none" stroke="#fc02ff" stroke-width="1.31" stroke-linecap="round" stroke-linejoin="bevel" fill-rule="evenodd" d="M311.343,35.6032 C311.343,37.3566 309.922,38.778 308.168,38.778 C306.415,38.778 304.993,37.3566 304.993,35.6032 C304.993,33.8498 306.415,32.4284 308.168,32.4284 C309.922,32.4284 311.343,33.8498 311.343,35.6032"/>
<path class="FretDiagram" fill="none" stroke="#fc02ff" stroke-width="1.31" stroke-linecap="round" stroke-linejoin="bevel" fill-rule="evenodd" d="M327.217,35.6032 C327.217,37.3566 325.796,38.778 324.042,38.778 C322.289,38.778 320.867,37.3566 320.867,35.6032 C320.867,33.8498 322.289,32.4284 324.042,32.4284 C325.796,32.4284 327.217,33.8498 327.217,35.6032"/>
<polyline class="FretDiagram" fill="none" stroke="#fc02ff" stroke-width="5.56" stroke-linecap="round" stroke-linejoin="bevel" points="292.294,49.2095 324.042,49.2095"/>
<path class="FretDiagram" fill="#fc02ff" d="M279.753,42.7558 L279.753,44.3218 L274.443,44.3218 L273.939,47.8858 C274.647,47.3698 275.433,47.1118 276.297,47.1118 C277.521,47.1118 278.514,47.5048 279.276,48.2908 C280.038,49.0768 280.419,50.0998 280.419,51.3598 C280.419,52.7038 280.011,53.8018 279.195,54.6538 C278.379,55.5058 277.329,55.9318 276.045,55.9318 C275.553,55.9318 275.1,55.8778 274.686,55.7698 C274.272,55.6618 273.93,55.5328 273.66,55.3828 C273.39,55.2328 273.144,55.0348 272.922,54.7888 C272.7,54.5428 272.532,54.3268 272.418,54.1408 C272.304,53.9548 272.196,53.7208 272.094,53.4388 C271.992,53.1568 271.929,52.9618 271.905,52.8538 C271.881,52.7458 271.851,52.5898 271.815,52.3858 L273.399,52.3858 C273.771,53.8138 274.641,54.5278 276.009,54.5278 C276.873,54.5278 277.554,54.2638 278.052,53.7358 C278.55,53.2078 278.799,52.4878 278.799,51.5758 C278.799,50.6278 278.547,49.8808 278.043,49.3348 C277.539,48.7888 276.861,48.5158 276.009,48.5158 C275.517,48.5158 275.097,48.6028 274.749,48.7768 C274.401,48.9508 274.041,49.2598 273.669,49.7038 L272.211,49.7038 L273.165,42.7558 L279.753,42.7558 "/>
<polyline class="FretDiagram" fill="#fc02ff" stroke="#fc0107" stroke-width="0.91" stroke-linejoin="bevel" points="479.208,44.674 519.8,44.674"/>
<polyline class="FretDiagram" fill="#fc02ff" stroke="#fc0107" stroke-width="0.91" stroke-linejoin="bevel" points="479.661,42.4063 479.661,85.4929"/>
<polyline class="FretDiagram" fill="#fc02ff" stroke="#fc0107" stroke-width="0.91" stroke-linejoin="bevel" points="487.598,42.4063 487.598,85.4929"/>
<polyline class="FretDiagram" fill="#fc02ff" stroke="#fc0107" stroke-width="0.91" stroke-linejoin="bevel" points="495.535,42.4063 495.535,85.4929"/>
<polyline class="FretDiagram" fill="#fc02ff" stroke="#fc0107" stroke-width="0.91" stroke-linejoin="bevel" points="503.472,42.4063 503.472,85.4929"/>
<polyline class="FretDiagram" fill="#fc02ff" stroke="#fc0107" stroke-width="0.91" stroke-linejoin="bevel" points="511.41,42.4063 511.41,85.4929"/>
<polyline class="FretDiagram" fill="#fc02ff" stroke="#fc0107" stroke-width="0.91" stroke-linejoin="bevel" points="519.347,42.4063 519.347,85.4929"/>
<polyline class="FretDiagram" fill="#fc02ff" stroke="#fc0107" stroke-width="0.91" stroke-linejoin="bevel" points="479.661,53.7449 519.347,53.7449"/>
<polyline class="FretDiagram" fill="#fc02ff" stroke="#fc0107" stroke-width="0.91" stroke-linejoin="bevel" points="479.661,62.8158 519.347,62.8158"/>
<polyline class="FretDiagram" fill="#fc02ff" stroke="#fc0107" stroke-width="0.91" stroke-linejoin="bevel" points="479.661,71.8866 519.347,71.8866"/>
<polyline class="FretDiagram" fill="#fc02ff" stroke="#fc0107" stroke-width="0.91" stroke-linejoin="bevel" points="479.661,80.9575 519.347,80.9575"/>
<path class="FretDiagram" fill="#fc0107" fill-rule="evenodd" d="M498.313,49.2095 C498.313,50.7437 497.07,51.9874 495.535,51.9874 C494.001,51.9874 492.758,50.7437 492.758,49.2095 C492.758,47.6752 494.001,46.4315 495.535,46.4315 C497.07,46.4315 498.313,47.6752 498.313,49.2095"/>
<path class="FretDiagram" fill="#fc0107" fill-rule="evenodd" d="M506.25,58.2803 C506.25,59.8146 505.007,61.0583 503.472,61.0583 C501.938,61.0583 500.695,59.8146 500.695,58.2803 C500.695,56.7461 501.938,55.5024 503.472,55.5024 C505.007,55.5024 506.25,56.7461 506.25,58.2803"/>
<path class="FretDiagram" fill="#fc0107" fill-rule="evenodd" d="M514.187,49.2095 C514.187,50.7437 512.944,51.9874 511.41,51.9874 C509.875,51.9874 508.632,50.7437 508.632,49.2095 C508.632,47.6752 509.875,46.4315 511.41,46.4315 C512.944,46.4315 514.187,47.6752 514.187,49.2095"/>
<path class="FretDiagram" fill="#fc0107" fill-rule="evenodd" d="M522.124,58.2803 C522.124,59.8146 520.881,61.0583 519.347,61.0583 C517.812,61.0583 516.569,59.8146 516.569,58.2803 C516.569,56.7461 517.812,55.5024 519.347,55.5024 C520.881,55.5024 522.124,56.7461 522.124,58.2803"/>
<polyline class="FretDiagram" fill="none" stroke="#fc0107" stroke-width="1.31" stroke-linecap="round" stroke-linejoin="bevel" points="476.487,32.4284 482.836,38.778"/>
<polyline class="FretDiagram" fill="none" stroke="#fc0107" stroke-width="1.31" stroke-linecap="round" stroke-linejoin="bevel" points="476.487,38.778 482.836,32.4284"/>
<polyline class="FretDiagram" fill="none" stroke="#fc0107" stroke-width="1.31" stroke-linecap="round" stroke-linejoin="bevel" points="484.424,32.4284 490.773,38.778"/>
<polyline class="FretDiagram" fill="none" stroke="#fc0107" stroke-width="1.31" stroke-linecap="round" stroke-linejoin="bevel" points="484.424,38.778 490.773,32.4284"/>
<path class="FretDiagram" fill="#fc0107" d="M472.376,52.4578 L466.994,52.4578 L466.994,50.7838 L472.79,42.7558 L473.96,42.7558 L473.96,51.0358 L475.85,51.0358 L475.85,52.4578 L473.96,52.4578 L473.96,55.5178 L472.376,55.5178 L472.376,52.4578 M472.376,51.0358 L472.376,45.4558 L468.38,51.0358 L472.376,51.0358 "/>
<polyline class="FretDiagram" fill="#fc0107" stroke="#0000ff" stroke-width="0.91" stroke-linejoin="bevel" points="659.749,44.674 700.341,44.674"/>
<polyline class="FretDiagram" fill="#fc0107" stroke="#0000ff" stroke-width="0.91" stroke-linejoin="bevel" points="660.203,42.4063 660.203,85.4929"/>
<polyline class="FretDiagram" fill="#fc0107" stroke="#0000ff" stroke-width="0.91" stroke-linejoin="bevel" points="668.14,42.4063 668.14,85.4929"/>
<polyline class="FretDiagram" fill="#fc0107" stroke="#0000ff" stroke-width="0.91" stroke-linejoin="bevel" points="676.077,42.4063 676.077,85.4929"/>
<polyline class="FretDiagram" fill="#fc0107" stroke="#0000ff" stroke-width="0.91" stroke-linejoin="bevel" points="684.014,42.4063 684.014,85.4929"/>
<polyline class="FretDiagram" fill="#fc0107" stroke="#0000ff" stroke-width="0.91" stroke-linejoin="bevel" points="691.951,42.4063 691.951,85.4929"/>
<polyline class="FretDiagram" fill="#fc0107" stroke="#0000ff" stroke-width="0.91" stroke-linejoin="bevel" points="699.888,42.4063 699.888,85.4929"/>
<polyline class="FretDiagram" fill="#fc0107" stroke="#0000ff" stroke-width="0.91" stroke-linejoin="bevel" points="660.203,53.7449 699.888,53.7449"/>
<polyline class="FretDiagram" fill="#fc0107" stroke="#0000ff" stroke-width="0.91" stroke-linejoin="bevel" points="660.203,62.8158 699.888,62.8158"/>
<polyline class="FretDiagram" fill="#fc0107" stroke="#0000ff" stroke-width="0.91" stroke-linejoin="bevel" points="660.203,71.8866 699.888,71.8866"/>
<polyline class="FretDiagram" fill="#fc0107" stroke="#0000ff" stroke-width="0.91" stroke-linejoin="bevel" points="660.203,80.9575 699.888,80.9575"/>
<path class="FretDiagram" fill="#0000ff" fill-rule="evenodd" d="M662.981,58.2803 C662.981,59.8146 661.737,61.0583 660.203,61.0583 C658.668,61.0583 657.425,59.8146 657.425,58.2803 C657.425,56.7461 658.668,55.5024 660.203,55.5024 C661.737,55.5024 662.981,56.7461 662.981,58.2803"/>
<path class="FretDiagram" fill="#0000ff" fill-rule="evenodd" d="M686.792,58.2803 C686.792,59.8146 685.548,61.0583 684.014,61.0583 C682.479,61.0583 681.236,59.8146 681.236,58.2803 C681.236,56.7461 682.479,55.5024 684.014,55.5024 C685.548,55.5024 686.792,56.7461 686.792,58.2803"/>
<polyline class="FretDiagram" fill="none" stroke="#0000ff" stroke-width="1.31" stroke-linecap="round" stroke-linejoin="bevel" points="664.965,32.4284 671.314,38.778"/>
<polyline class="FretDiagram" fill="none" stroke="#0000ff" stroke-width="1.31" stroke-linecap="round" stroke-linejoin="bevel" points="664.965,38.778 671.314,32.4284"/>
<path class="FretDiagram" fill="none" stroke="#0000ff" stroke-width="1.31" stroke-linecap="round" stroke-linejoin="bevel" fill-rule="evenodd" d="M679.251,35.6032 C679.251,37.3566 677.83,38.778 676.077,38.778 C674.323,38.778 672.902,37.3566 672.902,35.6032 C672.902,33.8498 674.323,32.4284 676.077,32.4284 C677.83,32.4284 679.251,33.8498 679.251,35.6032"/>
<path class="FretDiagram" fill="none" stroke="#0000ff" stroke-width="1.31" stroke-linecap="round" stroke-linejoin="bevel" fill-rule="evenodd" d="M695.125,35.6032 C695.125,37.3566 693.704,38.778 691.951,38.778 C690.197,38.778 688.776,37.3566 688.776,35.6032 C688.776,33.8498 690.197,32.4284 691.951,32.4284 C693.704,32.4284 695.125,33.8498 695.125,35.6032"/>
<polyline class="FretDiagram" fill="none" stroke="#0000ff" stroke-width="1.31" stroke-linecap="round" stroke-linejoin="bevel" points="696.713,32.4284 703.062,38.778"/>
<polyline class="FretDiagram" fill="none" stroke="#0000ff" stroke-width="1.31" stroke-linecap="round" stroke-linejoin="bevel" points="696.713,38.778 703.062,32.4284"/>
<polyline class="FretDiagram" fill="none" stroke="#0000ff" stroke-width="5.56" stroke-linecap="round" stroke-linejoin="bevel" points="676.077,49.2095 699.888,49.2095"/>
<path class="FretDiagram" fill="#0000ff" d="M652.917,52.4578 L647.535,52.4578 L647.535,50.7838 L653.331,42.7558 L654.501,42.7558 L654.501,51.0358 L656.391,51.0358 L656.391,52.4578 L654.501,52.4578 L654.501,55.5178 L652.917,55.5178 L652.917,52.4578 M652.917,51.0358 L652.917,45.4558 L648.921,51.0358 L652.917,51.0358 "/>
<path class="Bracket" transform="matrix(1.64409,0,0,1.90984,14.5089,457.44)" d="M0.92002,-50 C2.69004,-51.88 6.2,-55.8 6.2,-63 C6.2,-72.1 2.25996,-81.32 2.25996,-86.97 C2.25996,-93.06 5.84004,-98.84 5.95,-99 C6.05996,-99.16 6.05,-99.39 5.94004,-99.46 C5.82998,-99.53 5.62002,-99.47 5.49004,-99.32 C5.35996,-99.17 0,-93.75 0,-85.6 C0,-76.75 3.5,-70.58 3.5,-59.07 C3.5,-56.89 2.55996,-53.36 0.1,-50.33 C-0.0799805,-50.17 -0.1,-49.89 0.0599609,-49.7 L0.0700195,-49.69 L0.1,-49.66 C2.55996,-46.63 3.5,-43.1 3.5,-40.92 C3.5,-29.4 0,-23.24 0,-14.39 C0,-6.25 5.35996,-0.8 5.49004,-0.659961 C5.62002,-0.52002 5.8,-0.42998 5.94004,-0.52002 C6.07998,-0.609961 6.07998,-0.77998 5.95,-0.97998 C5.82002,-1.17998 2.25996,-6.92002 2.25996,-13.01 C2.25996,-18.66 6.2,-27.9 6.2,-37 C6.2,-44.3 2.69004,-48.12 0.92002,-50"/>
</svg>
