<?xml version="1.0" encoding="UTF-8" standalone="no"?>
<svg width="4209.44px" height="2976.38px" viewBox="0 0 4209.44 2976.38"
 xmlns="http://www.w3.org/2000/svg" xmlns:xlink="http://www.w3.org/1999/xlink" version="1.2" baseProfile="tiny">
<title>LaMineur (7)</title>
<desc>Generated by MuseScore 3.6.2</desc>
<polyline class="StaffLines" fill="none" stroke="#000000" stroke-width="6.55" stroke-linejoin="bevel" points="153.819,558.425 4138.58,558.425"/>
<polyline class="StaffLines" fill="none" stroke="#000000" stroke-width="6.55" stroke-linejoin="bevel" points="153.819,647.717 4138.58,647.717"/>
<polyline class="StaffLines" fill="none" stroke="#000000" stroke-width="6.55" stroke-linejoin="bevel" points="153.819,737.008 4138.58,737.008"/>
<polyline class="StaffLines" fill="none" stroke="#000000" stroke-width="6.55" stroke-linejoin="bevel" points="153.819,826.299 4138.58,826.299"/>
<polyline class="StaffLines" fill="none" stroke="#000000" stroke-width="6.55" stroke-linejoin="bevel" points="153.819,915.591 4138.58,915.591"/>
<polyline class="StaffLines" fill="none" stroke="#000000" stroke-width="6.55" stroke-linejoin="bevel" points="153.819,1004.88 4138.58,1004.88"/>
<polyline class="StaffLines" fill="none" stroke="#000000" stroke-width="6.55" stroke-linejoin="bevel" points="153.819,1391.81 4138.58,1391.81"/>
<polyline class="StaffLines" fill="none" stroke="#000000" stroke-width="6.55" stroke-linejoin="bevel" points="153.819,1451.34 4138.58,1451.34"/>
<polyline class="StaffLines" fill="none" stroke="#000000" stroke-width="6.55" stroke-linejoin="bevel" points="153.819,1510.87 4138.58,1510.87"/>
<polyline class="StaffLines" fill="none" stroke="#000000" stroke-width="6.55" stroke-linejoin="bevel" points="153.819,1570.39 4138.58,1570.39"/>
<polyline class="StaffLines" fill="none" stroke="#000000" stroke-width="6.55" stroke-linejoin="bevel" points="153.819,1629.92 4138.58,1629.92"/>
<polyline class="StaffLines" fill="none" stroke="#000000" stroke-width="6.55" stroke-linejoin="bevel" points="153.819,2016.85 4138.58,2016.85"/>
<polyline class="StaffLines" fill="none" stroke="#000000" stroke-width="6.55" stroke-linejoin="bevel" points="153.819,2076.38 4138.58,2076.38"/>
<polyline class="StaffLines" fill="none" stroke="#000000" stroke-width="6.55" stroke-linejoin="bevel" points="153.819,2135.91 4138.58,2135.91"/>
<polyline class="StaffLines" fill="none" stroke="#000000" stroke-width="6.55" stroke-linejoin="bevel" points="153.819,2195.43 4138.58,2195.43"/>
<polyline class="StaffLines" fill="none" stroke="#000000" stroke-width="6.55" stroke-linejoin="bevel" points="153.819,2254.96 4138.58,2254.96"/>
<polyline class="BarLine" fill="none" stroke="#000000" stroke-width="10.71" stroke-linejoin="bevel" points="159.176,2013.58 159.176,2258.23"/>
<polyline class="BarLine" fill="none" stroke="#000000" stroke-width="10.71" stroke-linejoin="bevel" points="915.071,2013.58 915.071,2258.23"/>
<polyline class="BarLine" fill="none" stroke="#000000" stroke-width="10.71" stroke-linejoin="bevel" points="1355.64,2013.58 1355.64,2258.23"/>
<polyline class="BarLine" fill="none" stroke="#000000" stroke-width="10.71" stroke-linejoin="bevel" points="1388.38,2013.58 1388.38,2258.23"/>
<polyline class="BarLine" fill="none" stroke="#000000" stroke-width="10.71" stroke-linejoin="bevel" points="1821.04,2013.58 1821.04,2258.23"/>
<polyline class="BarLine" fill="none" stroke="#000000" stroke-width="10.71" stroke-linejoin="bevel" points="2272.27,2013.58 2272.27,2258.23"/>
<polyline class="BarLine" fill="none" stroke="#000000" stroke-width="10.71" stroke-linejoin="bevel" points="2305.01,2013.58 2305.01,2258.23"/>
<polyline class="BarLine" fill="none" stroke="#000000" stroke-width="10.71" stroke-linejoin="bevel" points="2728.19,2013.58 2728.19,2258.23"/>
<polyline class="BarLine" fill="none" stroke="#000000" stroke-width="10.71" stroke-linejoin="bevel" points="3181.3,2013.58 3181.3,2258.23"/>
<polyline class="BarLine" fill="none" stroke="#000000" stroke-width="10.71" stroke-linejoin="bevel" points="3214.04,2013.58 3214.04,2258.23"/>
<polyline class="BarLine" fill="none" stroke="#000000" stroke-width="10.71" stroke-linejoin="bevel" points="3647.87,2013.58 3647.87,2258.23"/>
<polyline class="BarLine" fill="none" stroke="#000000" stroke-width="10.71" stroke-linejoin="bevel" points="4080.54,2013.58 4080.54,2258.23"/>
<polyline class="BarLine" fill="none" stroke="#000000" stroke-width="32.74" stroke-linejoin="bevel" points="4122.21,2013.58 4122.21,2258.23"/>
<polyline class="BarLine" fill="none" stroke="#000000" stroke-width="10.71" stroke-linejoin="bevel" points="159.176,1388.54 159.176,2016.85"/>
<polyline class="BarLine" fill="none" stroke="#000000" stroke-width="10.71" stroke-linejoin="bevel" points="915.071,1388.54 915.071,1633.2"/>
<polyline class="BarLine" fill="none" stroke="#000000" stroke-width="10.71" stroke-linejoin="bevel" points="1355.64,1388.54 1355.64,1633.2"/>
<polyline class="BarLine" fill="none" stroke="#000000" stroke-width="10.71" stroke-linejoin="bevel" points="1388.38,1388.54 1388.38,1633.2"/>
<polyline class="BarLine" fill="none" stroke="#000000" stroke-width="10.71" stroke-linejoin="bevel" points="1821.04,1388.54 1821.04,1633.2"/>
<polyline class="BarLine" fill="none" stroke="#000000" stroke-width="10.71" stroke-linejoin="bevel" points="2272.27,1388.54 2272.27,1633.2"/>
<polyline class="BarLine" fill="none" stroke="#000000" stroke-width="10.71" stroke-linejoin="bevel" points="2305.01,1388.54 2305.01,1633.2"/>
<polyline class="BarLine" fill="none" stroke="#000000" stroke-width="10.71" stroke-linejoin="bevel" points="2728.19,1388.54 2728.19,1633.2"/>
<polyline class="BarLine" fill="none" stroke="#000000" stroke-width="10.71" stroke-linejoin="bevel" points="3181.3,1388.54 3181.3,1633.2"/>
<polyline class="BarLine" fill="none" stroke="#000000" stroke-width="10.71" stroke-linejoin="bevel" points="3214.04,1388.54 3214.04,1633.2"/>
<polyline class="BarLine" fill="none" stroke="#000000" stroke-width="10.71" stroke-linejoin="bevel" points="3647.87,1388.54 3647.87,1633.2"/>
<polyline class="BarLine" fill="none" stroke="#000000" stroke-width="10.71" stroke-linejoin="bevel" points="4080.54,1388.54 4080.54,1633.2"/>
<polyline class="BarLine" fill="none" stroke="#000000" stroke-width="32.74" stroke-linejoin="bevel" points="4122.21,1388.54 4122.21,1633.2"/>
<polyline class="BarLine" fill="none" stroke="#000000" stroke-width="10.71" stroke-linejoin="bevel" points="159.176,555.151 159.176,1391.81"/>
<polyline class="BarLine" fill="none" stroke="#000000" stroke-width="10.71" stroke-linejoin="bevel" points="915.071,555.151 915.071,1008.16"/>
<polyline class="BarLine" fill="none" stroke="#000000" stroke-width="10.71" stroke-linejoin="bevel" points="1355.64,555.151 1355.64,1008.16"/>
<polyline class="BarLine" fill="none" stroke="#000000" stroke-width="10.71" stroke-linejoin="bevel" points="1388.38,555.151 1388.38,1008.16"/>
<polyline class="BarLine" fill="none" stroke="#000000" stroke-width="10.71" stroke-linejoin="bevel" points="1821.04,555.151 1821.04,1008.16"/>
<polyline class="BarLine" fill="none" stroke="#000000" stroke-width="10.71" stroke-linejoin="bevel" points="2272.27,555.151 2272.27,1008.16"/>
<polyline class="BarLine" fill="none" stroke="#000000" stroke-width="10.71" stroke-linejoin="bevel" points="2305.01,555.151 2305.01,1008.16"/>
<polyline class="BarLine" fill="none" stroke="#000000" stroke-width="10.71" stroke-linejoin="bevel" points="2728.19,555.151 2728.19,1008.16"/>
<polyline class="BarLine" fill="none" stroke="#000000" stroke-width="10.71" stroke-linejoin="bevel" points="3181.3,555.151 3181.3,1008.16"/>
<polyline class="BarLine" fill="none" stroke="#000000" stroke-width="10.71" stroke-linejoin="bevel" points="3214.04,555.151 3214.04,1008.16"/>
<polyline class="BarLine" fill="none" stroke="#000000" stroke-width="10.71" stroke-linejoin="bevel" points="3647.87,555.151 3647.87,1008.16"/>
<polyline class="BarLine" fill="none" stroke="#000000" stroke-width="10.71" stroke-linejoin="bevel" points="4080.54,555.151 4080.54,1008.16"/>
<polyline class="BarLine" fill="none" stroke="#000000" stroke-width="32.74" stroke-linejoin="bevel" points="4122.21,555.151 4122.21,1008.16"/>
<path class="Accidental" transform="matrix(2.3811,0,0,2.3811,966.497,2284.72)" d="M23.3,-10.6 C23.9,-10.7 24.4,-11.4 24.4,-12 L24.4,-17.9 C24.4,-18.7 23.8,-19.3 23,-19.3 L22.8,-19.3 L19.5,-18.6 L19.5,-33.5 L16.7,-33.5 L16.7,-18 L7.8,-16.2 L7.8,-30.3 L5,-30.3 L5,-15.6 L1.1,-14.8 C0.5,-14.7 0,-14 0,-13.4 L0,-13.2 L0,-7.4 L0,-7.6 C0,-6.8 0.6,-6.2 1.4,-6.2 L1.7,-6.2 L5,-6.9 L5,9.6 L1.1,10.4 C0.5,10.5 0,11.2 0,11.8 L0,17.6 C0,18.4 0.6,19 1.4,19 L1.7,19 L5,18.3 L5,33.2 L7.8,33.2 L7.8,17.7 L16.7,15.9 L16.7,30 L19.5,30 L19.5,15.3 L23.3,14.6 C23.9,14.5 24.4,13.8 24.4,13.2 L24.4,7.3 C24.4,6.5 23.8,5.9 23,5.9 L22.8,5.9 L19.5,6.6 L19.5,-9.9 L23.3,-10.6 M7.8,9.1 L7.8,-7.5 L16.7,-9.3 L16.7,7.2 L7.8,9.1 "/>
<path class="Accidental" transform="matrix(2.3811,0,0,2.3811,1883.91,2076.38)" d="M23.3,-10.6 C23.9,-10.7 24.4,-11.4 24.4,-12 L24.4,-17.9 C24.4,-18.7 23.8,-19.3 23,-19.3 L22.8,-19.3 L19.5,-18.6 L19.5,-33.5 L16.7,-33.5 L16.7,-18 L7.8,-16.2 L7.8,-30.3 L5,-30.3 L5,-15.6 L1.1,-14.8 C0.5,-14.7 0,-14 0,-13.4 L0,-13.2 L0,-7.4 L0,-7.6 C0,-6.8 0.6,-6.2 1.4,-6.2 L1.7,-6.2 L5,-6.9 L5,9.6 L1.1,10.4 C0.5,10.5 0,11.2 0,11.8 L0,17.6 C0,18.4 0.6,19 1.4,19 L1.7,19 L5,18.3 L5,33.2 L7.8,33.2 L7.8,17.7 L16.7,15.9 L16.7,30 L19.5,30 L19.5,15.3 L23.3,14.6 C23.9,14.5 24.4,13.8 24.4,13.2 L24.4,7.3 C24.4,6.5 23.8,5.9 23,5.9 L22.8,5.9 L19.5,6.6 L19.5,-9.9 L23.3,-10.6 M7.8,9.1 L7.8,-7.5 L16.7,-9.3 L16.7,7.2 L7.8,9.1 "/>
<path class="Accidental" transform="matrix(2.3811,0,0,2.3811,2356.44,2284.72)" d="M16.6,-18.3 C16.4,-18.5 16.1,-18.6 15.8,-18.6 C15.7,-18.6 15.5,-18.5 15.4,-18.5 L2.8,-15 L2.8,-32.5 L0,-32.5 L0,17 C0,17.8 0.6,18.3 1.4,18.3 L1.8,18.3 L14.4,14.8 L14.4,32.3 L17.1,32.3 L17.1,-17.2 C17.1,-17.6 16.9,-18.1 16.6,-18.3 M14.4,6.5 L2.8,9.7 L2.8,-6.7 L14.4,-10 L14.4,6.5 "/>
<path class="Accidental" transform="matrix(2.3811,0,0,2.3811,3276.91,2076.38)" d="M16.6,-18.3 C16.4,-18.5 16.1,-18.6 15.8,-18.6 C15.7,-18.6 15.5,-18.5 15.4,-18.5 L2.8,-15 L2.8,-32.5 L0,-32.5 L0,17 C0,17.8 0.6,18.3 1.4,18.3 L1.8,18.3 L14.4,14.8 L14.4,32.3 L17.1,32.3 L17.1,-17.2 C17.1,-17.6 16.9,-18.1 16.6,-18.3 M14.4,6.5 L2.8,9.7 L2.8,-6.7 L14.4,-10 L14.4,6.5 "/>
<path class="Accidental" transform="matrix(2.3811,0,0,2.3811,513.384,1570.39)" d="M23.3,-10.6 C23.9,-10.7 24.4,-11.4 24.4,-12 L24.4,-17.9 C24.4,-18.7 23.8,-19.3 23,-19.3 L22.8,-19.3 L19.5,-18.6 L19.5,-33.5 L16.7,-33.5 L16.7,-18 L7.8,-16.2 L7.8,-30.3 L5,-30.3 L5,-15.6 L1.1,-14.8 C0.5,-14.7 0,-14 0,-13.4 L0,-13.2 L0,-7.4 L0,-7.6 C0,-6.8 0.6,-6.2 1.4,-6.2 L1.7,-6.2 L5,-6.9 L5,9.6 L1.1,10.4 C0.5,10.5 0,11.2 0,11.8 L0,17.6 C0,18.4 0.6,19 1.4,19 L1.7,19 L5,18.3 L5,33.2 L7.8,33.2 L7.8,17.7 L16.7,15.9 L16.7,30 L19.5,30 L19.5,15.3 L23.3,14.6 C23.9,14.5 24.4,13.8 24.4,13.2 L24.4,7.3 C24.4,6.5 23.8,5.9 23,5.9 L22.8,5.9 L19.5,6.6 L19.5,-9.9 L23.3,-10.6 M7.8,9.1 L7.8,-7.5 L16.7,-9.3 L16.7,7.2 L7.8,9.1 "/>
<path class="Accidental" transform="matrix(2.3811,0,0,2.3811,1439.81,1570.39)" d="M23.3,-10.6 C23.9,-10.7 24.4,-11.4 24.4,-12 L24.4,-17.9 C24.4,-18.7 23.8,-19.3 23,-19.3 L22.8,-19.3 L19.5,-18.6 L19.5,-33.5 L16.7,-33.5 L16.7,-18 L7.8,-16.2 L7.8,-30.3 L5,-30.3 L5,-15.6 L1.1,-14.8 C0.5,-14.7 0,-14 0,-13.4 L0,-13.2 L0,-7.4 L0,-7.6 C0,-6.8 0.6,-6.2 1.4,-6.2 L1.7,-6.2 L5,-6.9 L5,9.6 L1.1,10.4 C0.5,10.5 0,11.2 0,11.8 L0,17.6 C0,18.4 0.6,19 1.4,19 L1.7,19 L5,18.3 L5,33.2 L7.8,33.2 L7.8,17.7 L16.7,15.9 L16.7,30 L19.5,30 L19.5,15.3 L23.3,14.6 C23.9,14.5 24.4,13.8 24.4,13.2 L24.4,7.3 C24.4,6.5 23.8,5.9 23,5.9 L22.8,5.9 L19.5,6.6 L19.5,-9.9 L23.3,-10.6 M7.8,9.1 L7.8,-7.5 L16.7,-9.3 L16.7,7.2 L7.8,9.1 "/>
<path class="Accidental" transform="matrix(2.3811,0,0,2.3811,2779.61,1570.39)" d="M23.3,-10.6 C23.9,-10.7 24.4,-11.4 24.4,-12 L24.4,-17.9 C24.4,-18.7 23.8,-19.3 23,-19.3 L22.8,-19.3 L19.5,-18.6 L19.5,-33.5 L16.7,-33.5 L16.7,-18 L7.8,-16.2 L7.8,-30.3 L5,-30.3 L5,-15.6 L1.1,-14.8 C0.5,-14.7 0,-14 0,-13.4 L0,-13.2 L0,-7.4 L0,-7.6 C0,-6.8 0.6,-6.2 1.4,-6.2 L1.7,-6.2 L5,-6.9 L5,9.6 L1.1,10.4 C0.5,10.5 0,11.2 0,11.8 L0,17.6 C0,18.4 0.6,19 1.4,19 L1.7,19 L5,18.3 L5,33.2 L7.8,33.2 L7.8,17.7 L16.7,15.9 L16.7,30 L19.5,30 L19.5,15.3 L23.3,14.6 C23.9,14.5 24.4,13.8 24.4,13.2 L24.4,7.3 C24.4,6.5 23.8,5.9 23,5.9 L22.8,5.9 L19.5,6.6 L19.5,-9.9 L23.3,-10.6 M7.8,9.1 L7.8,-7.5 L16.7,-9.3 L16.7,7.2 L7.8,9.1 "/>
<path class="Accidental" transform="matrix(2.3811,0,0,2.3811,3699.3,1570.39)" d="M23.3,-10.6 C23.9,-10.7 24.4,-11.4 24.4,-12 L24.4,-17.9 C24.4,-18.7 23.8,-19.3 23,-19.3 L22.8,-19.3 L19.5,-18.6 L19.5,-33.5 L16.7,-33.5 L16.7,-18 L7.8,-16.2 L7.8,-30.3 L5,-30.3 L5,-15.6 L1.1,-14.8 C0.5,-14.7 0,-14 0,-13.4 L0,-13.2 L0,-7.4 L0,-7.6 C0,-6.8 0.6,-6.2 1.4,-6.2 L1.7,-6.2 L5,-6.9 L5,9.6 L1.1,10.4 C0.5,10.5 0,11.2 0,11.8 L0,17.6 C0,18.4 0.6,19 1.4,19 L1.7,19 L5,18.3 L5,33.2 L7.8,33.2 L7.8,17.7 L16.7,15.9 L16.7,30 L19.5,30 L19.5,15.3 L23.3,14.6 C23.9,14.5 24.4,13.8 24.4,13.2 L24.4,7.3 C24.4,6.5 23.8,5.9 23,5.9 L22.8,5.9 L19.5,6.6 L19.5,-9.9 L23.3,-10.6 M7.8,9.1 L7.8,-7.5 L16.7,-9.3 L16.7,7.2 L7.8,9.1 "/>
<polyline class="LedgerLine" fill="none" stroke="#000000" stroke-width="9.52" stroke-linejoin="bevel" points="565.526,2314.49 696.003,2314.49"/>
<polyline class="LedgerLine" fill="none" stroke="#000000" stroke-width="9.52" stroke-linejoin="bevel" points="2831.75,2314.49 2962.23,2314.49"/>
<path class="Note" transform="matrix(2.3811,0,0,2.3811,586.361,2314.49)" d="M18.7,-13.6 C4.9,-13.6 0,-6.6 0,-0.1 C0,6.4 4.9,13.4 18.7,13.4 C32.5,13.4 37.3,6.4 37.3,-0.1 C37.3,-6.6 32.5,-13.6 18.7,-13.6 M10.4,-4.5 C10.3,-4.9 10.3,-5.3 10.3,-5.7 C10.3,-6.5 10.5,-7.3 10.9,-8 C11.6,-9 12.8,-9.7 14.3,-10 C15.6,-10.3 16.3,-10.5 18.9,-10.5 L19,-10.5 C23,-10.5 24.3,-6.8 25.4,-3 L25.7,-2 C26.5,0.6 26.9,2.8 26.9,4.5 C26.9,5.7 26.7,6.8 26.3,7.6 C25.7,8.7 24.7,9.4 23,9.8 C22.1,10 20.6,10.1 20.6,10.1 C20.1,10.1 19.7,10.2 19.3,10.2 C16.1,10.2 14.1,9 12.7,4.7 C11.5,1 11.3,-0.1 10.4,-4.5"/>
<path class="Note" transform="matrix(2.3811,0,0,2.3811,1039.47,2284.72)" d="M18.7,-13.6 C4.9,-13.6 0,-6.6 0,-0.1 C0,6.4 4.9,13.4 18.7,13.4 C32.5,13.4 37.3,6.4 37.3,-0.1 C37.3,-6.6 32.5,-13.6 18.7,-13.6 M10.4,-4.5 C10.3,-4.9 10.3,-5.3 10.3,-5.7 C10.3,-6.5 10.5,-7.3 10.9,-8 C11.6,-9 12.8,-9.7 14.3,-10 C15.6,-10.3 16.3,-10.5 18.9,-10.5 L19,-10.5 C23,-10.5 24.3,-6.8 25.4,-3 L25.7,-2 C26.5,0.6 26.9,2.8 26.9,4.5 C26.9,5.7 26.7,6.8 26.3,7.6 C25.7,8.7 24.7,9.4 23,9.8 C22.1,10 20.6,10.1 20.6,10.1 C20.1,10.1 19.7,10.2 19.3,10.2 C16.1,10.2 14.1,9 12.7,4.7 C11.5,1 11.3,-0.1 10.4,-4.5"/>
<path class="Note" transform="matrix(2.3811,0,0,2.3811,1512.78,2106.14)" d="M18.7,-13.6 C4.9,-13.6 0,-6.6 0,-0.1 C0,6.4 4.9,13.4 18.7,13.4 C32.5,13.4 37.3,6.4 37.3,-0.1 C37.3,-6.6 32.5,-13.6 18.7,-13.6 M10.4,-4.5 C10.3,-4.9 10.3,-5.3 10.3,-5.7 C10.3,-6.5 10.5,-7.3 10.9,-8 C11.6,-9 12.8,-9.7 14.3,-10 C15.6,-10.3 16.3,-10.5 18.9,-10.5 L19,-10.5 C23,-10.5 24.3,-6.8 25.4,-3 L25.7,-2 C26.5,0.6 26.9,2.8 26.9,4.5 C26.9,5.7 26.7,6.8 26.3,7.6 C25.7,8.7 24.7,9.4 23,9.8 C22.1,10 20.6,10.1 20.6,10.1 C20.1,10.1 19.7,10.2 19.3,10.2 C16.1,10.2 14.1,9 12.7,4.7 C11.5,1 11.3,-0.1 10.4,-4.5"/>
<path class="Note" transform="matrix(2.3811,0,0,2.3811,1956.89,2076.38)" d="M18.7,-13.6 C4.9,-13.6 0,-6.6 0,-0.1 C0,6.4 4.9,13.4 18.7,13.4 C32.5,13.4 37.3,6.4 37.3,-0.1 C37.3,-6.6 32.5,-13.6 18.7,-13.6 M10.4,-4.5 C10.3,-4.9 10.3,-5.3 10.3,-5.7 C10.3,-6.5 10.5,-7.3 10.9,-8 C11.6,-9 12.8,-9.7 14.3,-10 C15.6,-10.3 16.3,-10.5 18.9,-10.5 L19,-10.5 C23,-10.5 24.3,-6.8 25.4,-3 L25.7,-2 C26.5,0.6 26.9,2.8 26.9,4.5 C26.9,5.7 26.7,6.8 26.3,7.6 C25.7,8.7 24.7,9.4 23,9.8 C22.1,10 20.6,10.1 20.6,10.1 C20.1,10.1 19.7,10.2 19.3,10.2 C16.1,10.2 14.1,9 12.7,4.7 C11.5,1 11.3,-0.1 10.4,-4.5"/>
<path class="Note" transform="matrix(2.3811,0,0,2.3811,2412.02,2284.72)" d="M18.7,-13.6 C4.9,-13.6 0,-6.6 0,-0.1 C0,6.4 4.9,13.4 18.7,13.4 C32.5,13.4 37.3,6.4 37.3,-0.1 C37.3,-6.6 32.5,-13.6 18.7,-13.6 M10.4,-4.5 C10.3,-4.9 10.3,-5.3 10.3,-5.7 C10.3,-6.5 10.5,-7.3 10.9,-8 C11.6,-9 12.8,-9.7 14.3,-10 C15.6,-10.3 16.3,-10.5 18.9,-10.5 L19,-10.5 C23,-10.5 24.3,-6.8 25.4,-3 L25.7,-2 C26.5,0.6 26.9,2.8 26.9,4.5 C26.9,5.7 26.7,6.8 26.3,7.6 C25.7,8.7 24.7,9.4 23,9.8 C22.1,10 20.6,10.1 20.6,10.1 C20.1,10.1 19.7,10.2 19.3,10.2 C16.1,10.2 14.1,9 12.7,4.7 C11.5,1 11.3,-0.1 10.4,-4.5"/>
<path class="Note" transform="matrix(2.3811,0,0,2.3811,2852.59,2314.49)" d="M18.7,-13.6 C4.9,-13.6 0,-6.6 0,-0.1 C0,6.4 4.9,13.4 18.7,13.4 C32.5,13.4 37.3,6.4 37.3,-0.1 C37.3,-6.6 32.5,-13.6 18.7,-13.6 M10.4,-4.5 C10.3,-4.9 10.3,-5.3 10.3,-5.7 C10.3,-6.5 10.5,-7.3 10.9,-8 C11.6,-9 12.8,-9.7 14.3,-10 C15.6,-10.3 16.3,-10.5 18.9,-10.5 L19,-10.5 C23,-10.5 24.3,-6.8 25.4,-3 L25.7,-2 C26.5,0.6 26.9,2.8 26.9,4.5 C26.9,5.7 26.7,6.8 26.3,7.6 C25.7,8.7 24.7,9.4 23,9.8 C22.1,10 20.6,10.1 20.6,10.1 C20.1,10.1 19.7,10.2 19.3,10.2 C16.1,10.2 14.1,9 12.7,4.7 C11.5,1 11.3,-0.1 10.4,-4.5"/>
<path class="Note" transform="matrix(2.3811,0,0,2.3811,3332.49,2076.38)" d="M18.7,-13.6 C4.9,-13.6 0,-6.6 0,-0.1 C0,6.4 4.9,13.4 18.7,13.4 C32.5,13.4 37.3,6.4 37.3,-0.1 C37.3,-6.6 32.5,-13.6 18.7,-13.6 M10.4,-4.5 C10.3,-4.9 10.3,-5.3 10.3,-5.7 C10.3,-6.5 10.5,-7.3 10.9,-8 C11.6,-9 12.8,-9.7 14.3,-10 C15.6,-10.3 16.3,-10.5 18.9,-10.5 L19,-10.5 C23,-10.5 24.3,-6.8 25.4,-3 L25.7,-2 C26.5,0.6 26.9,2.8 26.9,4.5 C26.9,5.7 26.7,6.8 26.3,7.6 C25.7,8.7 24.7,9.4 23,9.8 C22.1,10 20.6,10.1 20.6,10.1 C20.1,10.1 19.7,10.2 19.3,10.2 C16.1,10.2 14.1,9 12.7,4.7 C11.5,1 11.3,-0.1 10.4,-4.5"/>
<path class="Note" transform="matrix(2.3811,0,0,2.3811,3772.28,2106.14)" d="M18.7,-13.6 C4.9,-13.6 0,-6.6 0,-0.1 C0,6.4 4.9,13.4 18.7,13.4 C32.5,13.4 37.3,6.4 37.3,-0.1 C37.3,-6.6 32.5,-13.6 18.7,-13.6 M10.4,-4.5 C10.3,-4.9 10.3,-5.3 10.3,-5.7 C10.3,-6.5 10.5,-7.3 10.9,-8 C11.6,-9 12.8,-9.7 14.3,-10 C15.6,-10.3 16.3,-10.5 18.9,-10.5 L19,-10.5 C23,-10.5 24.3,-6.8 25.4,-3 L25.7,-2 C26.5,0.6 26.9,2.8 26.9,4.5 C26.9,5.7 26.7,6.8 26.3,7.6 C25.7,8.7 24.7,9.4 23,9.8 C22.1,10 20.6,10.1 20.6,10.1 C20.1,10.1 19.7,10.2 19.3,10.2 C16.1,10.2 14.1,9 12.7,4.7 C11.5,1 11.3,-0.1 10.4,-4.5"/>
<path class="Note" transform="matrix(2.3811,0,0,2.3811,586.361,1629.92)" d="M18.7,-13.6 C4.9,-13.6 0,-6.6 0,-0.1 C0,6.4 4.9,13.4 18.7,13.4 C32.5,13.4 37.3,6.4 37.3,-0.1 C37.3,-6.6 32.5,-13.6 18.7,-13.6 M10.4,-4.5 C10.3,-4.9 10.3,-5.3 10.3,-5.7 C10.3,-6.5 10.5,-7.3 10.9,-8 C11.6,-9 12.8,-9.7 14.3,-10 C15.6,-10.3 16.3,-10.5 18.9,-10.5 L19,-10.5 C23,-10.5 24.3,-6.8 25.4,-3 L25.7,-2 C26.5,0.6 26.9,2.8 26.9,4.5 C26.9,5.7 26.7,6.8 26.3,7.6 C25.7,8.7 24.7,9.4 23,9.8 C22.1,10 20.6,10.1 20.6,10.1 C20.1,10.1 19.7,10.2 19.3,10.2 C16.1,10.2 14.1,9 12.7,4.7 C11.5,1 11.3,-0.1 10.4,-4.5"/>
<path class="Note" transform="matrix(2.3811,0,0,2.3811,586.361,1570.39)" d="M18.7,-13.6 C4.9,-13.6 0,-6.6 0,-0.1 C0,6.4 4.9,13.4 18.7,13.4 C32.5,13.4 37.3,6.4 37.3,-0.1 C37.3,-6.6 32.5,-13.6 18.7,-13.6 M10.4,-4.5 C10.3,-4.9 10.3,-5.3 10.3,-5.7 C10.3,-6.5 10.5,-7.3 10.9,-8 C11.6,-9 12.8,-9.7 14.3,-10 C15.6,-10.3 16.3,-10.5 18.9,-10.5 L19,-10.5 C23,-10.5 24.3,-6.8 25.4,-3 L25.7,-2 C26.5,0.6 26.9,2.8 26.9,4.5 C26.9,5.7 26.7,6.8 26.3,7.6 C25.7,8.7 24.7,9.4 23,9.8 C22.1,10 20.6,10.1 20.6,10.1 C20.1,10.1 19.7,10.2 19.3,10.2 C16.1,10.2 14.1,9 12.7,4.7 C11.5,1 11.3,-0.1 10.4,-4.5"/>
<path class="Note" transform="matrix(2.3811,0,0,2.3811,586.361,1510.87)" d="M18.7,-13.6 C4.9,-13.6 0,-6.6 0,-0.1 C0,6.4 4.9,13.4 18.7,13.4 C32.5,13.4 37.3,6.4 37.3,-0.1 C37.3,-6.6 32.5,-13.6 18.7,-13.6 M10.4,-4.5 C10.3,-4.9 10.3,-5.3 10.3,-5.7 C10.3,-6.5 10.5,-7.3 10.9,-8 C11.6,-9 12.8,-9.7 14.3,-10 C15.6,-10.3 16.3,-10.5 18.9,-10.5 L19,-10.5 C23,-10.5 24.3,-6.8 25.4,-3 L25.7,-2 C26.5,0.6 26.9,2.8 26.9,4.5 C26.9,5.7 26.7,6.8 26.3,7.6 C25.7,8.7 24.7,9.4 23,9.8 C22.1,10 20.6,10.1 20.6,10.1 C20.1,10.1 19.7,10.2 19.3,10.2 C16.1,10.2 14.1,9 12.7,4.7 C11.5,1 11.3,-0.1 10.4,-4.5"/>
<path class="Note" transform="matrix(2.3811,0,0,2.3811,1039.47,1659.69)" d="M18.7,-13.6 C4.9,-13.6 0,-6.6 0,-0.1 C0,6.4 4.9,13.4 18.7,13.4 C32.5,13.4 37.3,6.4 37.3,-0.1 C37.3,-6.6 32.5,-13.6 18.7,-13.6 M10.4,-4.5 C10.3,-4.9 10.3,-5.3 10.3,-5.7 C10.3,-6.5 10.5,-7.3 10.9,-8 C11.6,-9 12.8,-9.7 14.3,-10 C15.6,-10.3 16.3,-10.5 18.9,-10.5 L19,-10.5 C23,-10.5 24.3,-6.8 25.4,-3 L25.7,-2 C26.5,0.6 26.9,2.8 26.9,4.5 C26.9,5.7 26.7,6.8 26.3,7.6 C25.7,8.7 24.7,9.4 23,9.8 C22.1,10 20.6,10.1 20.6,10.1 C20.1,10.1 19.7,10.2 19.3,10.2 C16.1,10.2 14.1,9 12.7,4.7 C11.5,1 11.3,-0.1 10.4,-4.5"/>
<path class="Note" transform="matrix(2.3811,0,0,2.3811,1039.47,1540.63)" d="M18.7,-13.6 C4.9,-13.6 0,-6.6 0,-0.1 C0,6.4 4.9,13.4 18.7,13.4 C32.5,13.4 37.3,6.4 37.3,-0.1 C37.3,-6.6 32.5,-13.6 18.7,-13.6 M10.4,-4.5 C10.3,-4.9 10.3,-5.3 10.3,-5.7 C10.3,-6.5 10.5,-7.3 10.9,-8 C11.6,-9 12.8,-9.7 14.3,-10 C15.6,-10.3 16.3,-10.5 18.9,-10.5 L19,-10.5 C23,-10.5 24.3,-6.8 25.4,-3 L25.7,-2 C26.5,0.6 26.9,2.8 26.9,4.5 C26.9,5.7 26.7,6.8 26.3,7.6 C25.7,8.7 24.7,9.4 23,9.8 C22.1,10 20.6,10.1 20.6,10.1 C20.1,10.1 19.7,10.2 19.3,10.2 C16.1,10.2 14.1,9 12.7,4.7 C11.5,1 11.3,-0.1 10.4,-4.5"/>
<path class="Note" transform="matrix(2.3811,0,0,2.3811,1512.78,1629.92)" d="M18.7,-13.6 C4.9,-13.6 0,-6.6 0,-0.1 C0,6.4 4.9,13.4 18.7,13.4 C32.5,13.4 37.3,6.4 37.3,-0.1 C37.3,-6.6 32.5,-13.6 18.7,-13.6 M10.4,-4.5 C10.3,-4.9 10.3,-5.3 10.3,-5.7 C10.3,-6.5 10.5,-7.3 10.9,-8 C11.6,-9 12.8,-9.7 14.3,-10 C15.6,-10.3 16.3,-10.5 18.9,-10.5 L19,-10.5 C23,-10.5 24.3,-6.8 25.4,-3 L25.7,-2 C26.5,0.6 26.9,2.8 26.9,4.5 C26.9,5.7 26.7,6.8 26.3,7.6 C25.7,8.7 24.7,9.4 23,9.8 C22.1,10 20.6,10.1 20.6,10.1 C20.1,10.1 19.7,10.2 19.3,10.2 C16.1,10.2 14.1,9 12.7,4.7 C11.5,1 11.3,-0.1 10.4,-4.5"/>
<path class="Note" transform="matrix(2.3811,0,0,2.3811,1512.78,1570.39)" d="M18.7,-13.6 C4.9,-13.6 0,-6.6 0,-0.1 C0,6.4 4.9,13.4 18.7,13.4 C32.5,13.4 37.3,6.4 37.3,-0.1 C37.3,-6.6 32.5,-13.6 18.7,-13.6 M10.4,-4.5 C10.3,-4.9 10.3,-5.3 10.3,-5.7 C10.3,-6.5 10.5,-7.3 10.9,-8 C11.6,-9 12.8,-9.7 14.3,-10 C15.6,-10.3 16.3,-10.5 18.9,-10.5 L19,-10.5 C23,-10.5 24.3,-6.8 25.4,-3 L25.7,-2 C26.5,0.6 26.9,2.8 26.9,4.5 C26.9,5.7 26.7,6.8 26.3,7.6 C25.7,8.7 24.7,9.4 23,9.8 C22.1,10 20.6,10.1 20.6,10.1 C20.1,10.1 19.7,10.2 19.3,10.2 C16.1,10.2 14.1,9 12.7,4.7 C11.5,1 11.3,-0.1 10.4,-4.5"/>
<path class="Note" transform="matrix(2.3811,0,0,2.3811,1512.78,1510.87)" d="M18.7,-13.6 C4.9,-13.6 0,-6.6 0,-0.1 C0,6.4 4.9,13.4 18.7,13.4 C32.5,13.4 37.3,6.4 37.3,-0.1 C37.3,-6.6 32.5,-13.6 18.7,-13.6 M10.4,-4.5 C10.3,-4.9 10.3,-5.3 10.3,-5.7 C10.3,-6.5 10.5,-7.3 10.9,-8 C11.6,-9 12.8,-9.7 14.3,-10 C15.6,-10.3 16.3,-10.5 18.9,-10.5 L19,-10.5 C23,-10.5 24.3,-6.8 25.4,-3 L25.7,-2 C26.5,0.6 26.9,2.8 26.9,4.5 C26.9,5.7 26.7,6.8 26.3,7.6 C25.7,8.7 24.7,9.4 23,9.8 C22.1,10 20.6,10.1 20.6,10.1 C20.1,10.1 19.7,10.2 19.3,10.2 C16.1,10.2 14.1,9 12.7,4.7 C11.5,1 11.3,-0.1 10.4,-4.5"/>
<path class="Note" transform="matrix(2.3811,0,0,2.3811,1956.89,1540.63)" d="M18.7,-13.6 C4.9,-13.6 0,-6.6 0,-0.1 C0,6.4 4.9,13.4 18.7,13.4 C32.5,13.4 37.3,6.4 37.3,-0.1 C37.3,-6.6 32.5,-13.6 18.7,-13.6 M10.4,-4.5 C10.3,-4.9 10.3,-5.3 10.3,-5.7 C10.3,-6.5 10.5,-7.3 10.9,-8 C11.6,-9 12.8,-9.7 14.3,-10 C15.6,-10.3 16.3,-10.5 18.9,-10.5 L19,-10.5 C23,-10.5 24.3,-6.8 25.4,-3 L25.7,-2 C26.5,0.6 26.9,2.8 26.9,4.5 C26.9,5.7 26.7,6.8 26.3,7.6 C25.7,8.7 24.7,9.4 23,9.8 C22.1,10 20.6,10.1 20.6,10.1 C20.1,10.1 19.7,10.2 19.3,10.2 C16.1,10.2 14.1,9 12.7,4.7 C11.5,1 11.3,-0.1 10.4,-4.5"/>
<path class="Note" transform="matrix(2.3811,0,0,2.3811,1956.89,1451.34)" d="M18.7,-13.6 C4.9,-13.6 0,-6.6 0,-0.1 C0,6.4 4.9,13.4 18.7,13.4 C32.5,13.4 37.3,6.4 37.3,-0.1 C37.3,-6.6 32.5,-13.6 18.7,-13.6 M10.4,-4.5 C10.3,-4.9 10.3,-5.3 10.3,-5.7 C10.3,-6.5 10.5,-7.3 10.9,-8 C11.6,-9 12.8,-9.7 14.3,-10 C15.6,-10.3 16.3,-10.5 18.9,-10.5 L19,-10.5 C23,-10.5 24.3,-6.8 25.4,-3 L25.7,-2 C26.5,0.6 26.9,2.8 26.9,4.5 C26.9,5.7 26.7,6.8 26.3,7.6 C25.7,8.7 24.7,9.4 23,9.8 C22.1,10 20.6,10.1 20.6,10.1 C20.1,10.1 19.7,10.2 19.3,10.2 C16.1,10.2 14.1,9 12.7,4.7 C11.5,1 11.3,-0.1 10.4,-4.5"/>
<path class="Note" transform="matrix(2.3811,0,0,2.3811,2412.02,1659.69)" d="M18.7,-13.6 C4.9,-13.6 0,-6.6 0,-0.1 C0,6.4 4.9,13.4 18.7,13.4 C32.5,13.4 37.3,6.4 37.3,-0.1 C37.3,-6.6 32.5,-13.6 18.7,-13.6 M10.4,-4.5 C10.3,-4.9 10.3,-5.3 10.3,-5.7 C10.3,-6.5 10.5,-7.3 10.9,-8 C11.6,-9 12.8,-9.7 14.3,-10 C15.6,-10.3 16.3,-10.5 18.9,-10.5 L19,-10.5 C23,-10.5 24.3,-6.8 25.4,-3 L25.7,-2 C26.5,0.6 26.9,2.8 26.9,4.5 C26.9,5.7 26.7,6.8 26.3,7.6 C25.7,8.7 24.7,9.4 23,9.8 C22.1,10 20.6,10.1 20.6,10.1 C20.1,10.1 19.7,10.2 19.3,10.2 C16.1,10.2 14.1,9 12.7,4.7 C11.5,1 11.3,-0.1 10.4,-4.5"/>
<path class="Note" transform="matrix(2.3811,0,0,2.3811,2412.02,1540.63)" d="M18.7,-13.6 C4.9,-13.6 0,-6.6 0,-0.1 C0,6.4 4.9,13.4 18.7,13.4 C32.5,13.4 37.3,6.4 37.3,-0.1 C37.3,-6.6 32.5,-13.6 18.7,-13.6 M10.4,-4.5 C10.3,-4.9 10.3,-5.3 10.3,-5.7 C10.3,-6.5 10.5,-7.3 10.9,-8 C11.6,-9 12.8,-9.7 14.3,-10 C15.6,-10.3 16.3,-10.5 18.9,-10.5 L19,-10.5 C23,-10.5 24.3,-6.8 25.4,-3 L25.7,-2 C26.5,0.6 26.9,2.8 26.9,4.5 C26.9,5.7 26.7,6.8 26.3,7.6 C25.7,8.7 24.7,9.4 23,9.8 C22.1,10 20.6,10.1 20.6,10.1 C20.1,10.1 19.7,10.2 19.3,10.2 C16.1,10.2 14.1,9 12.7,4.7 C11.5,1 11.3,-0.1 10.4,-4.5"/>
<path class="Note" transform="matrix(2.3811,0,0,2.3811,2852.59,1629.92)" d="M18.7,-13.6 C4.9,-13.6 0,-6.6 0,-0.1 C0,6.4 4.9,13.4 18.7,13.4 C32.5,13.4 37.3,6.4 37.3,-0.1 C37.3,-6.6 32.5,-13.6 18.7,-13.6 M10.4,-4.5 C10.3,-4.9 10.3,-5.3 10.3,-5.7 C10.3,-6.5 10.5,-7.3 10.9,-8 C11.6,-9 12.8,-9.7 14.3,-10 C15.6,-10.3 16.3,-10.5 18.9,-10.5 L19,-10.5 C23,-10.5 24.3,-6.8 25.4,-3 L25.7,-2 C26.5,0.6 26.9,2.8 26.9,4.5 C26.9,5.7 26.7,6.8 26.3,7.6 C25.7,8.7 24.7,9.4 23,9.8 C22.1,10 20.6,10.1 20.6,10.1 C20.1,10.1 19.7,10.2 19.3,10.2 C16.1,10.2 14.1,9 12.7,4.7 C11.5,1 11.3,-0.1 10.4,-4.5"/>
<path class="Note" transform="matrix(2.3811,0,0,2.3811,2852.59,1570.39)" d="M18.7,-13.6 C4.9,-13.6 0,-6.6 0,-0.1 C0,6.4 4.9,13.4 18.7,13.4 C32.5,13.4 37.3,6.4 37.3,-0.1 C37.3,-6.6 32.5,-13.6 18.7,-13.6 M10.4,-4.5 C10.3,-4.9 10.3,-5.3 10.3,-5.7 C10.3,-6.5 10.5,-7.3 10.9,-8 C11.6,-9 12.8,-9.7 14.3,-10 C15.6,-10.3 16.3,-10.5 18.9,-10.5 L19,-10.5 C23,-10.5 24.3,-6.8 25.4,-3 L25.7,-2 C26.5,0.6 26.9,2.8 26.9,4.5 C26.9,5.7 26.7,6.8 26.3,7.6 C25.7,8.7 24.7,9.4 23,9.8 C22.1,10 20.6,10.1 20.6,10.1 C20.1,10.1 19.7,10.2 19.3,10.2 C16.1,10.2 14.1,9 12.7,4.7 C11.5,1 11.3,-0.1 10.4,-4.5"/>
<path class="Note" transform="matrix(2.3811,0,0,2.3811,2852.59,1510.87)" d="M18.7,-13.6 C4.9,-13.6 0,-6.6 0,-0.1 C0,6.4 4.9,13.4 18.7,13.4 C32.5,13.4 37.3,6.4 37.3,-0.1 C37.3,-6.6 32.5,-13.6 18.7,-13.6 M10.4,-4.5 C10.3,-4.9 10.3,-5.3 10.3,-5.7 C10.3,-6.5 10.5,-7.3 10.9,-8 C11.6,-9 12.8,-9.7 14.3,-10 C15.6,-10.3 16.3,-10.5 18.9,-10.5 L19,-10.5 C23,-10.5 24.3,-6.8 25.4,-3 L25.7,-2 C26.5,0.6 26.9,2.8 26.9,4.5 C26.9,5.7 26.7,6.8 26.3,7.6 C25.7,8.7 24.7,9.4 23,9.8 C22.1,10 20.6,10.1 20.6,10.1 C20.1,10.1 19.7,10.2 19.3,10.2 C16.1,10.2 14.1,9 12.7,4.7 C11.5,1 11.3,-0.1 10.4,-4.5"/>
<path class="Note" transform="matrix(2.3811,0,0,2.3811,3332.49,1540.63)" d="M18.7,-13.6 C4.9,-13.6 0,-6.6 0,-0.1 C0,6.4 4.9,13.4 18.7,13.4 C32.5,13.4 37.3,6.4 37.3,-0.1 C37.3,-6.6 32.5,-13.6 18.7,-13.6 M10.4,-4.5 C10.3,-4.9 10.3,-5.3 10.3,-5.7 C10.3,-6.5 10.5,-7.3 10.9,-8 C11.6,-9 12.8,-9.7 14.3,-10 C15.6,-10.3 16.3,-10.5 18.9,-10.5 L19,-10.5 C23,-10.5 24.3,-6.8 25.4,-3 L25.7,-2 C26.5,0.6 26.9,2.8 26.9,4.5 C26.9,5.7 26.7,6.8 26.3,7.6 C25.7,8.7 24.7,9.4 23,9.8 C22.1,10 20.6,10.1 20.6,10.1 C20.1,10.1 19.7,10.2 19.3,10.2 C16.1,10.2 14.1,9 12.7,4.7 C11.5,1 11.3,-0.1 10.4,-4.5"/>
<path class="Note" transform="matrix(2.3811,0,0,2.3811,3332.49,1451.34)" d="M18.7,-13.6 C4.9,-13.6 0,-6.6 0,-0.1 C0,6.4 4.9,13.4 18.7,13.4 C32.5,13.4 37.3,6.4 37.3,-0.1 C37.3,-6.6 32.5,-13.6 18.7,-13.6 M10.4,-4.5 C10.3,-4.9 10.3,-5.3 10.3,-5.7 C10.3,-6.5 10.5,-7.3 10.9,-8 C11.6,-9 12.8,-9.7 14.3,-10 C15.6,-10.3 16.3,-10.5 18.9,-10.5 L19,-10.5 C23,-10.5 24.3,-6.8 25.4,-3 L25.7,-2 C26.5,0.6 26.9,2.8 26.9,4.5 C26.9,5.7 26.7,6.8 26.3,7.6 C25.7,8.7 24.7,9.4 23,9.8 C22.1,10 20.6,10.1 20.6,10.1 C20.1,10.1 19.7,10.2 19.3,10.2 C16.1,10.2 14.1,9 12.7,4.7 C11.5,1 11.3,-0.1 10.4,-4.5"/>
<path class="Note" transform="matrix(2.3811,0,0,2.3811,3772.28,1629.92)" d="M18.7,-13.6 C4.9,-13.6 0,-6.6 0,-0.1 C0,6.4 4.9,13.4 18.7,13.4 C32.5,13.4 37.3,6.4 37.3,-0.1 C37.3,-6.6 32.5,-13.6 18.7,-13.6 M10.4,-4.5 C10.3,-4.9 10.3,-5.3 10.3,-5.7 C10.3,-6.5 10.5,-7.3 10.9,-8 C11.6,-9 12.8,-9.7 14.3,-10 C15.6,-10.3 16.3,-10.5 18.9,-10.5 L19,-10.5 C23,-10.5 24.3,-6.8 25.4,-3 L25.7,-2 C26.5,0.6 26.9,2.8 26.9,4.5 C26.9,5.7 26.7,6.8 26.3,7.6 C25.7,8.7 24.7,9.4 23,9.8 C22.1,10 20.6,10.1 20.6,10.1 C20.1,10.1 19.7,10.2 19.3,10.2 C16.1,10.2 14.1,9 12.7,4.7 C11.5,1 11.3,-0.1 10.4,-4.5"/>
<path class="Note" transform="matrix(2.3811,0,0,2.3811,3772.28,1570.39)" d="M18.7,-13.6 C4.9,-13.6 0,-6.6 0,-0.1 C0,6.4 4.9,13.4 18.7,13.4 C32.5,13.4 37.3,6.4 37.3,-0.1 C37.3,-6.6 32.5,-13.6 18.7,-13.6 M10.4,-4.5 C10.3,-4.9 10.3,-5.3 10.3,-5.7 C10.3,-6.5 10.5,-7.3 10.9,-8 C11.6,-9 12.8,-9.7 14.3,-10 C15.6,-10.3 16.3,-10.5 18.9,-10.5 L19,-10.5 C23,-10.5 24.3,-6.8 25.4,-3 L25.7,-2 C26.5,0.6 26.9,2.8 26.9,4.5 C26.9,5.7 26.7,6.8 26.3,7.6 C25.7,8.7 24.7,9.4 23,9.8 C22.1,10 20.6,10.1 20.6,10.1 C20.1,10.1 19.7,10.2 19.3,10.2 C16.1,10.2 14.1,9 12.7,4.7 C11.5,1 11.3,-0.1 10.4,-4.5"/>
<path class="Note" transform="matrix(2.3811,0,0,2.3811,3772.28,1510.87)" d="M18.7,-13.6 C4.9,-13.6 0,-6.6 0,-0.1 C0,6.4 4.9,13.4 18.7,13.4 C32.5,13.4 37.3,6.4 37.3,-0.1 C37.3,-6.6 32.5,-13.6 18.7,-13.6 M10.4,-4.5 C10.3,-4.9 10.3,-5.3 10.3,-5.7 C10.3,-6.5 10.5,-7.3 10.9,-8 C11.6,-9 12.8,-9.7 14.3,-10 C15.6,-10.3 16.3,-10.5 18.9,-10.5 L19,-10.5 C23,-10.5 24.3,-6.8 25.4,-3 L25.7,-2 C26.5,0.6 26.9,2.8 26.9,4.5 C26.9,5.7 26.7,6.8 26.3,7.6 C25.7,8.7 24.7,9.4 23,9.8 C22.1,10 20.6,10.1 20.6,10.1 C20.1,10.1 19.7,10.2 19.3,10.2 C16.1,10.2 14.1,9 12.7,4.7 C11.5,1 11.3,-0.1 10.4,-4.5"/>
<path class="Note" d="M582.381,1098.35 C581.994,1099.05 581.413,1099.4 580.638,1099.4 C579.941,1099.4 579.05,1099.09 577.965,1098.47 C576.338,1097.54 575.525,1096.61 575.525,1095.68 C575.525,1095.37 575.641,1094.98 575.874,1094.52 C593.615,1068.95 604.694,1047.41 609.11,1029.91 C609.42,1029.36 609.962,1029.09 610.737,1029.09 C611.744,1029.09 613.177,1029.63 615.037,1030.72 C617.593,1032.19 618.872,1033.51 618.872,1034.67 C618.872,1034.98 618.794,1035.25 618.639,1035.48 C612.751,1052.22 600.665,1073.17 582.381,1098.35 M603.299,1105.33 C602.912,1106.02 602.331,1106.37 601.556,1106.37 C600.859,1106.37 599.968,1106.06 598.883,1105.44 C597.256,1104.51 596.443,1103.58 596.443,1102.65 C596.443,1102.34 596.559,1101.96 596.792,1101.49 C614.533,1075.92 625.612,1054.39 630.028,1036.88 C630.338,1036.34 630.88,1036.06 631.655,1036.06 C632.662,1036.06 634.095,1036.61 635.955,1037.69 C638.511,1039.16 639.79,1040.48 639.79,1041.64 C639.79,1041.95 639.712,1042.22 639.557,1042.46 C633.669,1059.19 621.583,1080.15 603.299,1105.33 M686.852,1059.89 C691.423,1059.89 693.709,1062.75 693.709,1068.49 C693.709,1072.52 691.191,1078.52 686.155,1086.5 C682.126,1092.93 680.112,1099.21 680.112,1105.33 C680.112,1108.81 685.186,1110.56 695.336,1110.56 C703.703,1110.56 715.363,1106.02 730.315,1096.96 C715.285,1111.45 702.231,1118.69 691.152,1118.69 C681.158,1118.69 674.185,1117.18 670.234,1114.16 C669.227,1113.38 668.375,1112.45 667.677,1111.37 C663.804,1116.09 657.335,1118.46 648.27,1118.46 C639.593,1118.46 632.93,1116.68 628.282,1113.11 C625.183,1110.71 623.633,1106.88 623.633,1101.61 C623.633,1093.24 628.592,1084.1 638.508,1074.18 C649.122,1063.57 661.402,1058.26 675.347,1058.26 C678.834,1058.26 681.39,1059.54 683.017,1062.1 C684.334,1060.62 685.613,1059.89 686.852,1059.89 M666.05,1106.14 C665.973,1105.52 665.934,1104.9 665.934,1104.28 C665.934,1103.97 669.885,1093.16 677.788,1071.86 C678.562,1069.77 679.337,1067.98 680.112,1066.51 C677.09,1065.89 674.108,1065.58 671.164,1065.58 C665.741,1065.58 658.535,1070.19 649.548,1079.41 C641.491,1087.62 637.463,1094.71 637.463,1100.68 C637.463,1107.26 640.6,1110.56 646.876,1110.56 C654.468,1110.56 660.86,1109.08 666.05,1106.14"/>
<path class="Note" d="M665.18,583.965 C669.751,583.965 672.037,586.831 672.037,592.564 C672.037,596.593 669.519,602.597 664.483,610.577 C660.454,617.007 658.44,623.283 658.44,629.403 C658.44,632.889 663.514,634.633 673.664,634.633 C682.031,634.633 693.691,630.1 708.643,621.036 C693.613,635.524 680.559,642.767 669.48,642.767 C659.486,642.767 652.513,641.257 648.562,638.235 C647.555,637.46 646.703,636.531 646.005,635.446 C642.132,640.172 635.663,642.535 626.598,642.535 C617.921,642.535 611.258,640.753 606.61,637.189 C603.511,634.788 601.961,630.953 601.961,625.684 C601.961,617.317 606.92,608.175 616.836,598.259 C627.45,587.645 639.73,582.338 653.675,582.338 C657.162,582.338 659.718,583.616 661.345,586.173 C662.662,584.701 663.941,583.965 665.18,583.965 M644.378,630.217 C644.301,629.597 644.262,628.977 644.262,628.357 C644.262,628.047 648.213,617.24 656.116,595.934 C656.89,593.843 657.665,592.061 658.44,590.589 C655.418,589.969 652.436,589.659 649.492,589.659 C644.069,589.659 636.863,594.269 627.876,603.488 C619.819,611.7 615.791,618.789 615.791,624.755 C615.791,631.34 618.928,634.633 625.204,634.633 C632.796,634.633 639.188,633.161 644.378,630.217"/>
<path class="Note" d="M672.269,759.642 C682.728,753.057 690.32,747.672 695.046,743.489 C703.723,735.819 708.062,728.071 708.062,720.247 C708.062,711.105 701.942,706.534 689.701,706.534 C676.84,706.534 663.437,715.792 649.492,734.308 C640.04,746.859 633.338,758.712 629.387,769.869 C634.268,766.692 639.42,765.104 644.843,765.104 C649.957,765.104 654.024,767.389 657.045,771.96 C659.137,775.137 660.183,780.56 660.183,788.23 C660.183,795.125 656.542,803.221 649.259,812.518 C644.766,818.251 639.769,821.118 634.268,821.118 C627.295,821.118 622.415,819.723 619.625,816.934 C615.674,812.983 613.699,805.158 613.699,793.459 C613.699,773.781 621.64,754.413 637.522,735.354 C655.418,713.894 672.579,703.164 689.003,703.164 C701.709,703.164 711.2,706.146 717.475,712.112 C721.116,715.598 722.937,720.634 722.937,727.219 C722.937,734.579 715.693,742.791 701.206,751.856 C693.613,756.659 683.968,759.255 672.269,759.642 M627.876,774.749 C625.94,781.257 624.971,787.494 624.971,793.459 C624.971,807.637 627.218,814.726 631.711,814.726 C635.972,814.726 639.304,811.705 641.706,805.662 C644.495,798.844 645.889,791.29 645.889,783 C645.889,775.64 643.449,771.96 638.568,771.96 C635.159,771.96 631.595,772.89 627.876,774.749"/>
<path class="Note" d="M665.18,673.256 C669.751,673.256 672.037,676.123 672.037,681.856 C672.037,685.884 669.519,691.888 664.483,699.868 C660.454,706.299 658.44,712.574 658.44,718.694 C658.44,722.181 663.514,723.924 673.664,723.924 C682.031,723.924 693.691,719.392 708.643,710.327 C693.613,724.815 680.559,732.059 669.48,732.059 C659.486,732.059 652.513,730.548 648.562,727.527 C647.555,726.752 646.703,725.822 646.005,724.737 C642.132,729.463 635.663,731.826 626.598,731.826 C617.921,731.826 611.258,730.044 606.61,726.481 C603.511,724.079 601.961,720.244 601.961,714.976 C601.961,706.609 606.92,697.467 616.836,687.55 C627.45,676.936 639.73,671.629 653.675,671.629 C657.162,671.629 659.718,672.907 661.345,675.464 C662.662,673.992 663.941,673.256 665.18,673.256 M644.378,719.508 C644.301,718.888 644.262,718.268 644.262,717.649 C644.262,717.339 648.213,706.531 656.116,685.226 C656.89,683.134 657.665,681.352 658.44,679.88 C655.418,679.26 652.436,678.95 649.492,678.95 C644.069,678.95 636.863,683.56 627.876,692.779 C619.819,700.992 615.791,708.081 615.791,714.046 C615.791,720.631 618.928,723.924 625.204,723.924 C632.796,723.924 639.188,722.452 644.378,719.508"/>
<path class="Note" d="M1045.95,1105.33 C1045.56,1106.02 1044.98,1106.37 1044.21,1106.37 C1043.51,1106.37 1042.62,1106.06 1041.53,1105.44 C1039.91,1104.51 1039.09,1103.58 1039.09,1102.65 C1039.09,1102.34 1039.21,1101.96 1039.44,1101.49 C1057.18,1075.92 1068.26,1054.39 1072.68,1036.88 C1072.99,1036.34 1073.53,1036.06 1074.3,1036.06 C1075.31,1036.06 1076.75,1036.61 1078.6,1037.69 C1081.16,1039.16 1082.44,1040.48 1082.44,1041.64 C1082.44,1041.95 1082.36,1042.22 1082.21,1042.46 C1076.32,1059.19 1064.23,1080.15 1045.95,1105.33 M1136.59,1056.98 C1147.05,1050.4 1154.64,1045.01 1159.36,1040.83 C1168.04,1033.16 1172.38,1025.41 1172.38,1017.59 C1172.38,1008.44 1166.26,1003.87 1154.02,1003.87 C1141.16,1003.87 1127.75,1013.13 1113.81,1031.65 C1104.36,1044.2 1097.66,1056.05 1093.71,1067.21 C1098.59,1064.03 1103.74,1062.44 1109.16,1062.44 C1114.27,1062.44 1118.34,1064.73 1121.36,1069.3 C1123.46,1072.48 1124.5,1077.9 1124.5,1085.57 C1124.5,1092.47 1120.86,1100.56 1113.58,1109.86 C1109.08,1115.59 1104.09,1118.46 1098.59,1118.46 C1091.61,1118.46 1086.73,1117.06 1083.94,1114.27 C1079.99,1110.32 1078.02,1102.5 1078.02,1090.8 C1078.02,1071.12 1085.96,1051.75 1101.84,1032.69 C1119.74,1011.23 1136.9,1000.5 1153.32,1000.5 C1166.03,1000.5 1175.52,1003.49 1181.79,1009.45 C1185.43,1012.94 1187.25,1017.97 1187.25,1024.56 C1187.25,1031.92 1180.01,1040.13 1165.52,1049.2 C1157.93,1054 1148.29,1056.59 1136.59,1056.98 M1092.19,1072.09 C1090.26,1078.6 1089.29,1084.83 1089.29,1090.8 C1089.29,1104.98 1091.54,1112.07 1096.03,1112.07 C1100.29,1112.07 1103.62,1109.04 1106.02,1103 C1108.81,1096.18 1110.21,1088.63 1110.21,1080.34 C1110.21,1072.98 1107.77,1069.3 1102.89,1069.3 C1099.48,1069.3 1095.91,1070.23 1092.19,1072.09"/>
<path class="Note" d="M1118.29,851.839 C1122.86,851.839 1125.15,854.705 1125.15,860.438 C1125.15,864.467 1122.63,870.471 1117.6,878.451 C1113.57,884.881 1111.55,891.157 1111.55,897.277 C1111.55,900.763 1116.63,902.507 1126.78,902.507 C1135.14,902.507 1146.8,897.974 1161.76,888.91 C1146.73,903.398 1133.67,910.641 1122.59,910.641 C1112.6,910.641 1105.63,909.131 1101.68,906.109 C1100.67,905.334 1099.82,904.405 1099.12,903.32 C1095.24,908.046 1088.78,910.409 1079.71,910.409 C1071.03,910.409 1064.37,908.627 1059.72,905.063 C1056.62,902.662 1055.07,898.827 1055.07,893.558 C1055.07,885.191 1060.03,876.049 1069.95,866.133 C1080.56,855.519 1092.84,850.212 1106.79,850.212 C1110.27,850.212 1112.83,851.49 1114.46,854.047 C1115.78,852.575 1117.05,851.839 1118.29,851.839 M1097.49,898.091 C1097.41,897.471 1097.38,896.851 1097.38,896.231 C1097.38,895.921 1101.33,885.114 1109.23,863.808 C1110,861.717 1110.78,859.935 1111.55,858.463 C1108.53,857.843 1105.55,857.533 1102.6,857.533 C1097.18,857.533 1089.98,862.143 1080.99,871.362 C1072.93,879.574 1068.9,886.663 1068.9,892.629 C1068.9,899.214 1072.04,902.507 1078.32,902.507 C1085.91,902.507 1092.3,901.035 1097.49,898.091"/>
<path class="Note" d="M1074.02,821.118 C1070.22,821.118 1068.32,817.05 1068.32,808.916 L1068.32,774.866 C1068.32,771.612 1069.91,769.985 1073.09,769.985 C1074.48,769.985 1075.53,770.101 1076.23,770.333 C1078.7,765.995 1082.77,762.354 1088.43,759.41 C1096.33,755.304 1104.35,753.25 1112.48,753.25 C1118.91,753.25 1122.13,755.652 1122.13,760.456 C1122.13,764.484 1119.96,766.499 1115.62,766.499 C1112.52,766.499 1109.58,765.801 1106.79,764.407 C1104.31,763.167 1101.68,762.547 1098.89,762.547 C1094.08,762.547 1086.99,765.685 1077.62,771.96 C1078.94,778.236 1079.6,785.557 1079.6,793.924 C1079.6,812.053 1077.74,821.118 1074.02,821.118"/>
<path class="Note" d="M1591.6,583.965 C1596.17,583.965 1598.46,586.831 1598.46,592.564 C1598.46,596.593 1595.94,602.597 1590.9,610.577 C1586.88,617.007 1584.86,623.283 1584.86,629.403 C1584.86,632.889 1589.94,634.633 1600.08,634.633 C1608.45,634.633 1620.11,630.1 1635.06,621.036 C1620.03,635.524 1606.98,642.767 1595.9,642.767 C1585.91,642.767 1578.93,641.257 1574.98,638.235 C1573.98,637.46 1573.12,636.531 1572.43,635.446 C1568.55,640.172 1562.08,642.535 1553.02,642.535 C1544.34,642.535 1537.68,640.753 1533.03,637.189 C1529.93,634.788 1528.38,630.953 1528.38,625.684 C1528.38,617.317 1533.34,608.175 1543.26,598.259 C1553.87,587.645 1566.15,582.338 1580.1,582.338 C1583.58,582.338 1586.14,583.616 1587.77,586.173 C1589.08,584.701 1590.36,583.965 1591.6,583.965 M1570.8,630.217 C1570.72,629.597 1570.68,628.977 1570.68,628.357 C1570.68,628.047 1574.63,617.24 1582.54,595.934 C1583.31,593.843 1584.09,592.061 1584.86,590.589 C1581.84,589.969 1578.86,589.659 1575.91,589.659 C1570.49,589.659 1563.28,594.269 1554.3,603.488 C1546.24,611.7 1542.21,618.789 1542.21,624.755 C1542.21,631.34 1545.35,634.633 1551.62,634.633 C1559.22,634.633 1565.61,633.161 1570.8,630.217"/>
<path class="Note" d="M1547.32,910.409 C1543.53,910.409 1541.63,906.342 1541.63,898.207 L1541.63,864.157 C1541.63,860.903 1543.22,859.276 1546.4,859.276 C1547.79,859.276 1548.84,859.392 1549.53,859.625 C1552.01,855.286 1556.08,851.645 1561.74,848.701 C1569.64,844.595 1577.66,842.542 1585.79,842.542 C1592.22,842.542 1595.44,844.943 1595.44,849.747 C1595.44,853.776 1593.27,855.79 1588.93,855.79 C1585.83,855.79 1582.89,855.093 1580.1,853.698 C1577.62,852.458 1574.98,851.839 1572.19,851.839 C1567.39,851.839 1560.3,854.976 1550.93,861.252 C1552.24,867.527 1552.9,874.848 1552.9,883.216 C1552.9,901.345 1551.04,910.409 1547.32,910.409"/>
<path class="Note" d="M1598.69,759.642 C1609.15,753.057 1616.74,747.672 1621.47,743.489 C1630.14,735.819 1634.48,728.071 1634.48,720.247 C1634.48,711.105 1628.36,706.534 1616.12,706.534 C1603.26,706.534 1589.86,715.792 1575.91,734.308 C1566.46,746.859 1559.76,758.712 1555.81,769.869 C1560.69,766.692 1565.84,765.104 1571.26,765.104 C1576.38,765.104 1580.45,767.389 1583.47,771.96 C1585.56,775.137 1586.6,780.56 1586.6,788.23 C1586.6,795.125 1582.96,803.221 1575.68,812.518 C1571.19,818.251 1566.19,821.118 1560.69,821.118 C1553.72,821.118 1548.84,819.723 1546.05,816.934 C1542.1,812.983 1540.12,805.158 1540.12,793.459 C1540.12,773.781 1548.06,754.413 1563.94,735.354 C1581.84,713.894 1599,703.164 1615.42,703.164 C1628.13,703.164 1637.62,706.146 1643.9,712.112 C1647.54,715.598 1649.36,720.634 1649.36,727.219 C1649.36,734.579 1642.11,742.791 1627.63,751.856 C1620.03,756.659 1610.39,759.255 1598.69,759.642 M1554.3,774.749 C1552.36,781.257 1551.39,787.494 1551.39,793.459 C1551.39,807.637 1553.64,814.726 1558.13,814.726 C1562.39,814.726 1565.73,811.705 1568.13,805.662 C1570.92,798.844 1572.31,791.29 1572.31,783 C1572.31,775.64 1569.87,771.96 1564.99,771.96 C1561.58,771.96 1558.02,772.89 1554.3,774.749"/>
<path class="Note" d="M1591.6,673.256 C1596.17,673.256 1598.46,676.123 1598.46,681.856 C1598.46,685.884 1595.94,691.888 1590.9,699.868 C1586.88,706.299 1584.86,712.574 1584.86,718.694 C1584.86,722.181 1589.94,723.924 1600.08,723.924 C1608.45,723.924 1620.11,719.392 1635.06,710.327 C1620.03,724.815 1606.98,732.059 1595.9,732.059 C1585.91,732.059 1578.93,730.548 1574.98,727.527 C1573.98,726.752 1573.12,725.822 1572.43,724.737 C1568.55,729.463 1562.08,731.826 1553.02,731.826 C1544.34,731.826 1537.68,730.044 1533.03,726.481 C1529.93,724.079 1528.38,720.244 1528.38,714.976 C1528.38,706.609 1533.34,697.467 1543.26,687.55 C1553.87,676.936 1566.15,671.629 1580.1,671.629 C1583.58,671.629 1586.14,672.907 1587.77,675.464 C1589.08,673.992 1590.36,673.256 1591.6,673.256 M1570.8,719.508 C1570.72,718.888 1570.68,718.268 1570.68,717.649 C1570.68,717.339 1574.63,706.531 1582.54,685.226 C1583.31,683.134 1584.09,681.352 1584.86,679.88 C1581.84,679.26 1578.86,678.95 1575.91,678.95 C1570.49,678.95 1563.28,683.56 1554.3,692.779 C1546.24,700.992 1542.21,708.081 1542.21,714.046 C1542.21,720.631 1545.35,723.924 1551.62,723.924 C1559.22,723.924 1565.61,722.452 1570.8,719.508"/>
<path class="Note" d="M2071.5,884.145 C2065.15,894.139 2055.11,902.429 2041.4,909.014 C2029.47,914.748 2018.31,917.614 2007.93,917.614 C1999.64,917.614 1992.75,915.948 1987.25,912.617 C1981.28,908.976 1978.3,904.637 1978.3,899.601 C1978.3,888.213 1981.28,878.412 1987.25,870.2 C1995.38,859.044 2003.59,853.466 2011.88,853.466 C2017.77,853.466 2021.96,854.628 2024.43,856.952 C2027.84,859.973 2029.55,864.118 2029.55,869.387 C2029.55,876.824 2024.01,883.293 2012.93,888.794 C2002.16,894.139 1994.68,897.626 1990.5,899.253 C1991.43,901.19 1992.63,902.933 1994.1,904.482 C1997.75,908.356 2002.7,910.293 2008.98,910.293 C2016.88,910.293 2027.5,907.388 2040.82,901.577 C2053.6,895.921 2063.83,890.111 2071.5,884.145 M1988.87,893.907 C1994.68,890.963 1999.99,887.515 2004.8,883.564 C2011.92,877.754 2015.49,871.478 2015.49,864.738 C2015.49,860.942 2013.74,859.044 2010.26,859.044 C2007.31,859.044 2003.28,862.414 1998.17,869.154 C1991.74,877.521 1988.53,884.339 1988.53,889.607 C1988.53,891.079 1988.64,892.513 1988.87,893.907"/>
<path class="Note" d="M2035.71,494.673 C2040.28,494.673 2042.56,497.54 2042.56,503.273 C2042.56,507.302 2040.05,513.306 2035.01,521.286 C2030.98,527.716 2028.97,533.991 2028.97,540.112 C2028.97,543.598 2034.04,545.341 2044.19,545.341 C2052.56,545.341 2064.22,540.809 2079.17,531.745 C2064.14,546.232 2051.09,553.476 2040.01,553.476 C2030.01,553.476 2023.04,551.965 2019.09,548.944 C2018.08,548.169 2017.23,547.239 2016.53,546.155 C2012.66,550.881 2006.19,553.244 1997.13,553.244 C1988.45,553.244 1981.79,551.462 1977.14,547.898 C1974.04,545.496 1972.49,541.661 1972.49,536.393 C1972.49,528.026 1977.45,518.884 1987.36,508.967 C1997.98,498.353 2010.26,493.046 2024.2,493.046 C2027.69,493.046 2030.25,494.325 2031.87,496.881 C2033.19,495.409 2034.47,494.673 2035.71,494.673 M2014.91,540.925 C2014.83,540.305 2014.79,539.686 2014.79,539.066 C2014.79,538.756 2018.74,527.948 2026.64,506.643 C2027.42,504.551 2028.19,502.769 2028.97,501.297 C2025.95,500.678 2022.96,500.368 2020.02,500.368 C2014.6,500.368 2007.39,504.977 1998.4,514.197 C1990.35,522.409 1986.32,529.498 1986.32,535.463 C1986.32,542.049 1989.46,545.341 1995.73,545.341 C2003.32,545.341 2009.71,543.869 2014.91,540.925"/>
<path class="Note" d="M1924.62,677.207 C1924.93,665.509 1931.4,655.127 1944.03,646.063 C1955.26,638.005 1967.54,633.977 1980.86,633.977 C1999.54,633.977 2016,641.298 2030.25,655.941 C2039.32,665.315 2043.85,676.936 2043.85,690.804 C2043.85,703.277 2040.52,712.845 2033.86,719.508 C2025.72,727.72 2017.12,731.826 2008.06,731.826 C2001.86,731.826 1997.06,730.432 1993.65,727.643 C1988.07,723.072 1985.28,716.951 1985.28,709.281 C1985.28,699.365 1990.24,690.3 2000.16,682.088 C2008.29,675.348 2016.46,670.932 2024.68,668.84 C2022.51,665.121 2019.76,661.635 2016.43,658.381 C2006.04,648.232 1994.27,643.157 1981.1,643.157 C1967.38,643.157 1956.03,646.14 1947.05,652.106 C1937.75,658.226 1930.27,666.593 1924.62,677.207 M2027.58,674.999 C2023.32,678.95 2019.06,683.173 2014.8,687.666 C2006.43,696.498 2002.25,704.865 2002.25,712.768 C2002.25,721.212 2004.18,725.435 2008.06,725.435 C2011.54,725.435 2016.43,720.67 2022.7,711.141 C2027.74,703.548 2030.25,696.576 2030.25,690.223 C2030.25,684.8 2029.36,679.725 2027.58,674.999"/>
<path class="Note" d="M2418.5,1105.33 C2418.11,1106.02 2417.53,1106.37 2416.75,1106.37 C2416.06,1106.37 2415.17,1106.06 2414.08,1105.44 C2412.45,1104.51 2411.64,1103.58 2411.64,1102.65 C2411.64,1102.34 2411.76,1101.96 2411.99,1101.49 C2429.73,1075.92 2440.81,1054.39 2445.23,1036.88 C2445.53,1036.34 2446.08,1036.06 2446.85,1036.06 C2447.86,1036.06 2449.29,1036.61 2451.15,1037.69 C2453.71,1039.16 2454.99,1040.48 2454.99,1041.64 C2454.99,1041.95 2454.91,1042.22 2454.75,1042.46 C2448.87,1059.19 2436.78,1080.15 2418.5,1105.33 M2502.05,1059.89 C2506.62,1059.89 2508.9,1062.75 2508.9,1068.49 C2508.9,1072.52 2506.38,1078.52 2501.35,1086.5 C2497.32,1092.93 2495.31,1099.21 2495.31,1105.33 C2495.31,1108.81 2500.38,1110.56 2510.53,1110.56 C2518.9,1110.56 2530.56,1106.02 2545.51,1096.96 C2530.48,1111.45 2517.42,1118.69 2506.35,1118.69 C2496.35,1118.69 2489.38,1117.18 2485.43,1114.16 C2484.42,1113.38 2483.57,1112.45 2482.87,1111.37 C2479,1116.09 2472.53,1118.46 2463.46,1118.46 C2454.79,1118.46 2448.12,1116.68 2443.48,1113.11 C2440.38,1110.71 2438.83,1106.88 2438.83,1101.61 C2438.83,1093.24 2443.78,1084.1 2453.7,1074.18 C2464.32,1063.57 2476.6,1058.26 2490.54,1058.26 C2494.03,1058.26 2496.58,1059.54 2498.21,1062.1 C2499.53,1060.62 2500.81,1059.89 2502.05,1059.89 M2481.24,1106.14 C2481.17,1105.52 2481.13,1104.9 2481.13,1104.28 C2481.13,1103.97 2485.08,1093.16 2492.98,1071.86 C2493.76,1069.77 2494.53,1067.98 2495.31,1066.51 C2492.28,1065.89 2489.3,1065.58 2486.36,1065.58 C2480.93,1065.58 2473.73,1070.19 2464.74,1079.41 C2456.68,1087.62 2452.66,1094.71 2452.66,1100.68 C2452.66,1107.26 2455.79,1110.56 2462.07,1110.56 C2469.66,1110.56 2476.05,1109.08 2481.24,1106.14"/>
<path class="Note" d="M2490.84,851.839 C2495.41,851.839 2497.7,854.705 2497.7,860.438 C2497.7,864.467 2495.18,870.471 2490.14,878.451 C2486.11,884.881 2484.1,891.157 2484.1,897.277 C2484.1,900.763 2489.18,902.507 2499.32,902.507 C2507.69,902.507 2519.35,897.974 2534.3,888.91 C2519.27,903.398 2506.22,910.641 2495.14,910.641 C2485.15,910.641 2478.17,909.131 2474.22,906.109 C2473.22,905.334 2472.36,904.405 2471.67,903.32 C2467.79,908.046 2461.32,910.409 2452.26,910.409 C2443.58,910.409 2436.92,908.627 2432.27,905.063 C2429.17,902.662 2427.62,898.827 2427.62,893.558 C2427.62,885.191 2432.58,876.049 2442.5,866.133 C2453.11,855.519 2465.39,850.212 2479.34,850.212 C2482.82,850.212 2485.38,851.49 2487.01,854.047 C2488.32,852.575 2489.6,851.839 2490.84,851.839 M2470.04,898.091 C2469.96,897.471 2469.92,896.851 2469.92,896.231 C2469.92,895.921 2473.87,885.114 2481.78,863.808 C2482.55,861.717 2483.33,859.935 2484.1,858.463 C2481.08,857.843 2478.1,857.533 2475.15,857.533 C2469.73,857.533 2462.52,862.143 2453.54,871.362 C2445.48,879.574 2441.45,886.663 2441.45,892.629 C2441.45,899.214 2444.59,902.507 2450.86,902.507 C2458.46,902.507 2464.85,901.035 2470.04,898.091"/>
<path class="Note" d="M2446.56,821.118 C2442.77,821.118 2440.87,817.05 2440.87,808.916 L2440.87,774.866 C2440.87,771.612 2442.46,769.985 2445.63,769.985 C2447.03,769.985 2448.08,770.101 2448.77,770.333 C2451.25,765.995 2455.32,762.354 2460.97,759.41 C2468.88,755.304 2476.9,753.25 2485.03,753.25 C2491.46,753.25 2494.68,755.652 2494.68,760.456 C2494.68,764.484 2492.51,766.499 2488.17,766.499 C2485.07,766.499 2482.12,765.801 2479.34,764.407 C2476.86,763.167 2474.22,762.547 2471.43,762.547 C2466.63,762.547 2459.54,765.685 2450.17,771.96 C2451.48,778.236 2452.14,785.557 2452.14,793.924 C2452.14,812.053 2450.28,821.118 2446.56,821.118"/>
<path class="Note" d="M2848.61,1098.35 C2848.22,1099.05 2847.64,1099.4 2846.87,1099.4 C2846.17,1099.4 2845.28,1099.09 2844.19,1098.47 C2842.57,1097.54 2841.75,1096.61 2841.75,1095.68 C2841.75,1095.37 2841.87,1094.98 2842.1,1094.52 C2859.84,1068.95 2870.92,1047.41 2875.34,1029.91 C2875.65,1029.36 2876.19,1029.09 2876.97,1029.09 C2877.97,1029.09 2879.41,1029.63 2881.27,1030.72 C2883.82,1032.19 2885.1,1033.51 2885.1,1034.67 C2885.1,1034.98 2885.02,1035.25 2884.87,1035.48 C2878.98,1052.22 2866.89,1073.17 2848.61,1098.35 M2869.53,1105.33 C2869.14,1106.02 2868.56,1106.37 2867.78,1106.37 C2867.09,1106.37 2866.2,1106.06 2865.11,1105.44 C2863.48,1104.51 2862.67,1103.58 2862.67,1102.65 C2862.67,1102.34 2862.79,1101.96 2863.02,1101.49 C2880.76,1075.92 2891.84,1054.39 2896.26,1036.88 C2896.57,1036.34 2897.11,1036.06 2897.88,1036.06 C2898.89,1036.06 2900.32,1036.61 2902.18,1037.69 C2904.74,1039.16 2906.02,1040.48 2906.02,1041.64 C2906.02,1041.95 2905.94,1042.22 2905.79,1042.46 C2899.9,1059.19 2887.81,1080.15 2869.53,1105.33 M2953.08,1059.89 C2957.65,1059.89 2959.94,1062.75 2959.94,1068.49 C2959.94,1072.52 2957.42,1078.52 2952.38,1086.5 C2948.35,1092.93 2946.34,1099.21 2946.34,1105.33 C2946.34,1108.81 2951.41,1110.56 2961.56,1110.56 C2969.93,1110.56 2981.59,1106.02 2996.54,1096.96 C2981.51,1111.45 2968.46,1118.69 2957.38,1118.69 C2947.39,1118.69 2940.41,1117.18 2936.46,1114.16 C2935.46,1113.38 2934.6,1112.45 2933.91,1111.37 C2930.03,1116.09 2923.56,1118.46 2914.5,1118.46 C2905.82,1118.46 2899.16,1116.68 2894.51,1113.11 C2891.41,1110.71 2889.86,1106.88 2889.86,1101.61 C2889.86,1093.24 2894.82,1084.1 2904.74,1074.18 C2915.35,1063.57 2927.63,1058.26 2941.58,1058.26 C2945.06,1058.26 2947.62,1059.54 2949.25,1062.1 C2950.56,1060.62 2951.84,1059.89 2953.08,1059.89 M2932.28,1106.14 C2932.2,1105.52 2932.16,1104.9 2932.16,1104.28 C2932.16,1103.97 2936.11,1093.16 2944.02,1071.86 C2944.79,1069.77 2945.57,1067.98 2946.34,1066.51 C2943.32,1065.89 2940.34,1065.58 2937.39,1065.58 C2931.97,1065.58 2924.76,1070.19 2915.78,1079.41 C2907.72,1087.62 2903.69,1094.71 2903.69,1100.68 C2903.69,1107.26 2906.83,1110.56 2913.1,1110.56 C2920.7,1110.56 2927.09,1109.08 2932.28,1106.14"/>
<path class="Note" d="M2931.41,583.965 C2935.98,583.965 2938.27,586.831 2938.27,592.564 C2938.27,596.593 2935.75,602.597 2930.71,610.577 C2926.68,617.007 2924.67,623.283 2924.67,629.403 C2924.67,632.889 2929.74,634.633 2939.89,634.633 C2948.26,634.633 2959.92,630.1 2974.87,621.036 C2959.84,635.524 2946.79,642.767 2935.71,642.767 C2925.71,642.767 2918.74,641.257 2914.79,638.235 C2913.78,637.46 2912.93,636.531 2912.23,635.446 C2908.36,640.172 2901.89,642.535 2892.83,642.535 C2884.15,642.535 2877.49,640.753 2872.84,637.189 C2869.74,634.788 2868.19,630.953 2868.19,625.684 C2868.19,617.317 2873.15,608.175 2883.06,598.259 C2893.68,587.645 2905.96,582.338 2919.9,582.338 C2923.39,582.338 2925.95,583.616 2927.57,586.173 C2928.89,584.701 2930.17,583.965 2931.41,583.965 M2910.61,630.217 C2910.53,629.597 2910.49,628.977 2910.49,628.357 C2910.49,628.047 2914.44,617.24 2922.34,595.934 C2923.12,593.843 2923.89,592.061 2924.67,590.589 C2921.65,589.969 2918.66,589.659 2915.72,589.659 C2910.3,589.659 2903.09,594.269 2894.1,603.488 C2886.05,611.7 2882.02,618.789 2882.02,624.755 C2882.02,631.34 2885.16,634.633 2891.43,634.633 C2899.02,634.633 2905.42,633.161 2910.61,630.217"/>
<path class="Note" d="M2938.5,759.642 C2948.96,753.057 2956.55,747.672 2961.27,743.489 C2969.95,735.819 2974.29,728.071 2974.29,720.247 C2974.29,711.105 2968.17,706.534 2955.93,706.534 C2943.07,706.534 2929.67,715.792 2915.72,734.308 C2906.27,746.859 2899.57,758.712 2895.62,769.869 C2900.5,766.692 2905.65,765.104 2911.07,765.104 C2916.18,765.104 2920.25,767.389 2923.27,771.96 C2925.37,775.137 2926.41,780.56 2926.41,788.23 C2926.41,795.125 2922.77,803.221 2915.49,812.518 C2910.99,818.251 2906,821.118 2900.5,821.118 C2893.52,821.118 2888.64,819.723 2885.85,816.934 C2881.9,812.983 2879.93,805.158 2879.93,793.459 C2879.93,773.781 2887.87,754.413 2903.75,735.354 C2921.65,713.894 2938.81,703.164 2955.23,703.164 C2967.94,703.164 2977.43,706.146 2983.7,712.112 C2987.34,715.598 2989.17,720.634 2989.17,727.219 C2989.17,734.579 2981.92,742.791 2967.43,751.856 C2959.84,756.659 2950.2,759.255 2938.5,759.642 M2894.1,774.749 C2892.17,781.257 2891.2,787.494 2891.2,793.459 C2891.2,807.637 2893.45,814.726 2897.94,814.726 C2902.2,814.726 2905.53,811.705 2907.93,805.662 C2910.72,798.844 2912.12,791.29 2912.12,783 C2912.12,775.64 2909.68,771.96 2904.8,771.96 C2901.39,771.96 2897.82,772.89 2894.1,774.749"/>
<path class="Note" d="M2931.41,673.256 C2935.98,673.256 2938.27,676.123 2938.27,681.856 C2938.27,685.884 2935.75,691.888 2930.71,699.868 C2926.68,706.299 2924.67,712.574 2924.67,718.694 C2924.67,722.181 2929.74,723.924 2939.89,723.924 C2948.26,723.924 2959.92,719.392 2974.87,710.327 C2959.84,724.815 2946.79,732.059 2935.71,732.059 C2925.71,732.059 2918.74,730.548 2914.79,727.527 C2913.78,726.752 2912.93,725.822 2912.23,724.737 C2908.36,729.463 2901.89,731.826 2892.83,731.826 C2884.15,731.826 2877.49,730.044 2872.84,726.481 C2869.74,724.079 2868.19,720.244 2868.19,714.976 C2868.19,706.609 2873.15,697.467 2883.06,687.55 C2893.68,676.936 2905.96,671.629 2919.9,671.629 C2923.39,671.629 2925.95,672.907 2927.57,675.464 C2928.89,673.992 2930.17,673.256 2931.41,673.256 M2910.61,719.508 C2910.53,718.888 2910.49,718.268 2910.49,717.649 C2910.49,717.339 2914.44,706.531 2922.34,685.226 C2923.12,683.134 2923.89,681.352 2924.67,679.88 C2921.65,679.26 2918.66,678.95 2915.72,678.95 C2910.3,678.95 2903.09,683.56 2894.1,692.779 C2886.05,700.992 2882.02,708.081 2882.02,714.046 C2882.02,720.631 2885.16,723.924 2891.43,723.924 C2899.02,723.924 2905.42,722.452 2910.61,719.508"/>
<path class="Note" d="M3300.22,855.79 C3300.53,844.091 3307,833.71 3319.63,824.645 C3330.86,816.588 3343.14,812.559 3356.47,812.559 C3375.14,812.559 3391.6,819.881 3405.86,834.523 C3414.92,843.898 3419.45,855.519 3419.45,869.387 C3419.45,881.86 3416.12,891.428 3409.46,898.091 C3401.32,906.303 3392.72,910.409 3383.66,910.409 C3377.46,910.409 3372.66,909.014 3369.25,906.225 C3363.67,901.654 3360.88,895.534 3360.88,887.864 C3360.88,877.947 3365.84,868.883 3375.76,860.671 C3383.89,853.93 3392.07,849.514 3400.28,847.423 C3398.11,843.704 3395.36,840.218 3392.03,836.964 C3381.65,826.815 3369.87,821.74 3356.7,821.74 C3342.99,821.74 3331.64,824.723 3322.65,830.688 C3313.35,836.809 3305.88,845.176 3300.22,855.79 M3403.18,853.582 C3398.92,857.533 3394.66,861.755 3390.4,866.249 C3382.03,875.081 3377.85,883.448 3377.85,891.35 C3377.85,899.795 3379.79,904.017 3383.66,904.017 C3387.15,904.017 3392.03,899.253 3398.3,889.723 C3403.34,882.131 3405.86,875.158 3405.86,868.805 C3405.86,863.382 3404.97,858.308 3403.18,853.582"/>
<path class="Note" d="M3411.31,494.673 C3415.88,494.673 3418.17,497.54 3418.17,503.273 C3418.17,507.302 3415.65,513.306 3410.61,521.286 C3406.58,527.716 3404.57,533.991 3404.57,540.112 C3404.57,543.598 3409.64,545.341 3419.79,545.341 C3428.16,545.341 3439.82,540.809 3454.77,531.745 C3439.74,546.232 3426.69,553.476 3415.61,553.476 C3405.61,553.476 3398.64,551.965 3394.69,548.944 C3393.68,548.169 3392.83,547.239 3392.13,546.155 C3388.26,550.881 3381.79,553.244 3372.73,553.244 C3364.05,553.244 3357.39,551.462 3352.74,547.898 C3349.64,545.496 3348.09,541.661 3348.09,536.393 C3348.09,528.026 3353.05,518.884 3362.97,508.967 C3373.58,498.353 3385.86,493.046 3399.8,493.046 C3403.29,493.046 3405.85,494.325 3407.47,496.881 C3408.79,495.409 3410.07,494.673 3411.31,494.673 M3390.51,540.925 C3390.43,540.305 3390.39,539.686 3390.39,539.066 C3390.39,538.756 3394.34,527.948 3402.24,506.643 C3403.02,504.551 3403.79,502.769 3404.57,501.297 C3401.55,500.678 3398.56,500.368 3395.62,500.368 C3390.2,500.368 3382.99,504.977 3374.01,514.197 C3365.95,522.409 3361.92,529.498 3361.92,535.463 C3361.92,542.049 3365.06,545.341 3371.33,545.341 C3378.93,545.341 3385.32,543.869 3390.51,540.925"/>
<path class="Note" d="M3300.22,677.207 C3300.53,665.509 3307,655.127 3319.63,646.063 C3330.86,638.005 3343.14,633.977 3356.47,633.977 C3375.14,633.977 3391.6,641.298 3405.86,655.941 C3414.92,665.315 3419.45,676.936 3419.45,690.804 C3419.45,703.277 3416.12,712.845 3409.46,719.508 C3401.32,727.72 3392.72,731.826 3383.66,731.826 C3377.46,731.826 3372.66,730.432 3369.25,727.643 C3363.67,723.072 3360.88,716.951 3360.88,709.281 C3360.88,699.365 3365.84,690.3 3375.76,682.088 C3383.89,675.348 3392.07,670.932 3400.28,668.84 C3398.11,665.121 3395.36,661.635 3392.03,658.381 C3381.65,648.232 3369.87,643.157 3356.7,643.157 C3342.99,643.157 3331.64,646.14 3322.65,652.106 C3313.35,658.226 3305.88,666.593 3300.22,677.207 M3403.18,674.999 C3398.92,678.95 3394.66,683.173 3390.4,687.666 C3382.03,696.498 3377.85,704.865 3377.85,712.768 C3377.85,721.212 3379.79,725.435 3383.66,725.435 C3387.15,725.435 3392.03,720.67 3398.3,711.141 C3403.34,703.548 3405.86,696.576 3405.86,690.223 C3405.86,684.8 3404.97,679.725 3403.18,674.999"/>
<path class="Note" d="M3851.1,583.965 C3855.67,583.965 3857.95,586.831 3857.95,592.564 C3857.95,596.593 3855.43,602.597 3850.4,610.577 C3846.37,617.007 3844.36,623.283 3844.36,629.403 C3844.36,632.889 3849.43,634.633 3859.58,634.633 C3867.95,634.633 3879.61,630.1 3894.56,621.036 C3879.53,635.524 3866.47,642.767 3855.4,642.767 C3845.4,642.767 3838.43,641.257 3834.48,638.235 C3833.47,637.46 3832.62,636.531 3831.92,635.446 C3828.05,640.172 3821.58,642.535 3812.51,642.535 C3803.84,642.535 3797.17,640.753 3792.53,637.189 C3789.43,634.788 3787.88,630.953 3787.88,625.684 C3787.88,617.317 3792.84,608.175 3802.75,598.259 C3813.37,587.645 3825.65,582.338 3839.59,582.338 C3843.08,582.338 3845.63,583.616 3847.26,586.173 C3848.58,584.701 3849.86,583.965 3851.1,583.965 M3830.29,630.217 C3830.22,629.597 3830.18,628.977 3830.18,628.357 C3830.18,628.047 3834.13,617.24 3842.03,595.934 C3842.81,593.843 3843.58,592.061 3844.36,590.589 C3841.33,589.969 3838.35,589.659 3835.41,589.659 C3829.98,589.659 3822.78,594.269 3813.79,603.488 C3805.73,611.7 3801.71,618.789 3801.71,624.755 C3801.71,631.34 3804.84,634.633 3811.12,634.633 C3818.71,634.633 3825.1,633.161 3830.29,630.217"/>
<path class="Note" d="M3806.82,910.409 C3803.02,910.409 3801.12,906.342 3801.12,898.207 L3801.12,864.157 C3801.12,860.903 3802.71,859.276 3805.89,859.276 C3807.28,859.276 3808.33,859.392 3809.03,859.625 C3811.51,855.286 3815.57,851.645 3821.23,848.701 C3829.13,844.595 3837.15,842.542 3845.29,842.542 C3851.72,842.542 3854.93,844.943 3854.93,849.747 C3854.93,853.776 3852.76,855.79 3848.42,855.79 C3845.32,855.79 3842.38,855.093 3839.59,853.698 C3837.11,852.458 3834.48,851.839 3831.69,851.839 C3826.89,851.839 3819.8,854.976 3810.42,861.252 C3811.74,867.527 3812.4,874.848 3812.4,883.216 C3812.4,901.345 3810.54,910.409 3806.82,910.409"/>
<path class="Note" d="M3858.18,759.642 C3868.64,753.057 3876.24,747.672 3880.96,743.489 C3889.64,735.819 3893.98,728.071 3893.98,720.247 C3893.98,711.105 3887.86,706.534 3875.62,706.534 C3862.76,706.534 3849.35,715.792 3835.41,734.308 C3825.96,746.859 3819.25,758.712 3815.3,769.869 C3820.18,766.692 3825.34,765.104 3830.76,765.104 C3835.87,765.104 3839.94,767.389 3842.96,771.96 C3845.05,775.137 3846.1,780.56 3846.1,788.23 C3846.1,795.125 3842.46,803.221 3835.17,812.518 C3830.68,818.251 3825.68,821.118 3820.18,821.118 C3813.21,821.118 3808.33,819.723 3805.54,816.934 C3801.59,812.983 3799.61,805.158 3799.61,793.459 C3799.61,773.781 3807.56,754.413 3823.44,735.354 C3841.33,713.894 3858.49,703.164 3874.92,703.164 C3887.62,703.164 3897.12,706.146 3903.39,712.112 C3907.03,715.598 3908.85,720.634 3908.85,727.219 C3908.85,734.579 3901.61,742.791 3887.12,751.856 C3879.53,756.659 3869.88,759.255 3858.18,759.642 M3813.79,774.749 C3811.86,781.257 3810.89,787.494 3810.89,793.459 C3810.89,807.637 3813.13,814.726 3817.63,814.726 C3821.89,814.726 3825.22,811.705 3827.62,805.662 C3830.41,798.844 3831.8,791.29 3831.8,783 C3831.8,775.64 3829.36,771.96 3824.48,771.96 C3821.07,771.96 3817.51,772.89 3813.79,774.749"/>
<path class="Note" d="M3851.1,673.256 C3855.67,673.256 3857.95,676.123 3857.95,681.856 C3857.95,685.884 3855.43,691.888 3850.4,699.868 C3846.37,706.299 3844.36,712.574 3844.36,718.694 C3844.36,722.181 3849.43,723.924 3859.58,723.924 C3867.95,723.924 3879.61,719.392 3894.56,710.327 C3879.53,724.815 3866.47,732.059 3855.4,732.059 C3845.4,732.059 3838.43,730.548 3834.48,727.527 C3833.47,726.752 3832.62,725.822 3831.92,724.737 C3828.05,729.463 3821.58,731.826 3812.51,731.826 C3803.84,731.826 3797.17,730.044 3792.53,726.481 C3789.43,724.079 3787.88,720.244 3787.88,714.976 C3787.88,706.609 3792.84,697.467 3802.75,687.55 C3813.37,676.936 3825.65,671.629 3839.59,671.629 C3843.08,671.629 3845.63,672.907 3847.26,675.464 C3848.58,673.992 3849.86,673.256 3851.1,673.256 M3830.29,719.508 C3830.22,718.888 3830.18,718.268 3830.18,717.649 C3830.18,717.339 3834.13,706.531 3842.03,685.226 C3842.81,683.134 3843.58,681.352 3844.36,679.88 C3841.33,679.26 3838.35,678.95 3835.41,678.95 C3829.98,678.95 3822.78,683.56 3813.79,692.779 C3805.73,700.992 3801.71,708.081 3801.71,714.046 C3801.71,720.631 3804.84,723.924 3811.12,723.924 C3818.71,723.924 3825.1,722.452 3830.29,719.508"/>
<path class="Clef" transform="matrix(2.3811,0,0,2.3811,212.156,2076.38)" d="M25.4,-25.1 C17.8,-25.1 11.7,-20.7 11.6,-20.7 C5.8,-16.4 3.5,-11.3 2.6,-7.8 C2.1,-6 1.9,-4.2 1.9,-2.5 C1.9,-0.1 2.3,2.1 3.2,4 C4.4,6.7 6.7,8.6 9.7,9.6 C10.9,10 12.2,10.2 13.5,10.2 C15.7,10.2 18,9.6 19.9,8.5 C23,6.8 24.9,3.2 24.9,-0.7 C24.9,-4.2 23.1,-7.4 20.1,-9.3 C18,-10.7 16,-11.1 14.3,-11.1 C13.1,-11.1 12,-10.9 11.1,-10.6 C10.1,-10.2 8.4,-9.2 7.6,-8.5 C7.9,-10.4 9.1,-13.3 10.2,-14.9 C11.3,-16.5 13.5,-18.5 15.2,-19.4 C17.7,-20.8 20.9,-21.4 24.4,-21.4 C34.6,-21.4 39.6,-13.2 39.6,3.6 C39.6,12.9 36.1,21.8 33.1,27.7 C29.8,34.3 25.4,40.6 21.5,44.1 C11.1,53.6 1.3,58.1 1.2,58.1 C1.2,58.1 -0.3,59 0.1,60.5 C0.4,61.5 1.3,61.7 1.9,61.7 C2,61.7 2.3,61.6 2.4,61.6 C2.5,61.6 13.9,56.9 23,49.8 C28.1,46.1 32.7,42.1 36.7,37.8 C40.3,33.9 43.4,29.7 45.9,25.5 C50.3,18 52.8,10.2 52.8,3.5 C52.8,-4.8 50.6,-11.7 46.5,-16.6 C41.8,-22.2 34.7,-25.1 25.4,-25.1 M56.8,-12.4 C56.8,-9.6 59,-7.4 61.6,-7.4 C64.2,-7.4 66.4,-9.6 66.4,-12.4 C66.4,-15.2 64.2,-17.5 61.6,-17.5 C59,-17.5 56.8,-15.2 56.8,-12.4 M56.8,12.3 C56.8,15.1 59,17.4 61.6,17.4 C64.2,17.4 66.4,15.1 66.4,12.3 C66.4,9.5 64.2,7.2 61.6,7.2 C59,7.2 56.8,9.5 56.8,12.3"/>
<path class="Clef" transform="matrix(2.3811,0,0,2.3811,212.156,1570.39)" d="M63.37,-5.89004 C62.14,-11.32 59.5,-15.14 58.72,-16.1801 C55.5301,-20.45 51.52,-23.3 46.8301,-24.65 C43.72,-25.54 40.72,-25.65 38.3,-25.47 C37.2601,-31.4801 36.2601,-37.3601 35.35,-42.8101 C40.79,-48.97 44.42,-54.77 46.69,-59.07 C50.1601,-65.65 51.3101,-70.2301 51.3601,-70.4301 C53.0801,-75.64 53.44,-83.34 52.34,-91.55 C51.3301,-99.1 49.24,-105.81 46.89,-109.06 C45.8601,-110.49 44.8101,-111.22 43.77,-111.22 C42.55,-111.22 40.04,-109.98 37.15,-107.21 C34.85,-105.01 31.5801,-101.12 29.02,-95.1101 C26.02,-88.05 25.8101,-78.5601 26.1601,-71.84 C26.54,-64.57 27.65,-58.8801 27.6601,-58.8301 C27.6801,-58.74 27.94,-57.24 28.39,-54.67 C28.1601,-54.44 27.92,-54.22 27.67,-53.9801 C26.6301,-52.9801 25.44,-51.84 24.0601,-50.4601 C23.2,-49.6 22.25,-48.69 21.25,-47.72 C12.79,-39.57 0,-27.25 0,-8.1 C0,-3.4 0.9,1.01992 2.68008,5.02998 C4.27002,8.62998 6.57002,11.91 9.5,14.78 C17.2301,22.33 27.82,25.5399 34.8801,25.38 C37.8301,25.31 40.4601,25.0699 42.85,24.6199 C44.6801,34.2199 45.82,41.25 45.8601,46.5899 C45.9,53.1 44.25,57.0699 40.35,59.8399 C37.92,61.5699 35.1101,62.5199 32.0101,62.6699 C29.42,62.7899 27.1601,62.3199 25.7301,61.91 L25.72,61.91 C25.72,61.91 25.4301,61.83 25.42,61.63 C25.4101,61.45 25.7601,61.4 25.77,61.4 L25.79,61.4 C27.7101,60.96 31.2801,59.73 33.64,56.43 C35.44,53.91 36.3101,49.2899 34.47,45.35 C33.3601,42.96 30.85,40.01 25.2301,39.56 C22.74,39.36 20.47,39.8699 18.47,41.0699 C16.6601,42.15 15.1601,43.7899 14.1101,45.7899 C11.65,50.4899 12.1101,56.2199 15.24,60.06 C18.2,63.68 22.82,65.9899 28.25,66.5699 C29.1,66.66 29.95,66.7 30.8,66.7 C31.5101,66.7 32.22,66.6699 32.92,66.61 C31.72,66.9399 30.64,67.4899 29.77,68.25 C28.2801,69.5399 27.44,71.38 27.44,73.41 C27.44,75.28 28.0601,76.65 29.55,78.0399 C28.4101,78.5 27.55,78.98 26.79,79.56 C25.25,80.73 24.34,82.46 24.34,84.1899 C24.34,87.45 27.3,89.63 31.72,89.63 C37.1301,89.63 40.9101,86.63 40.9101,82.35 C40.9101,80.1199 39.9101,78.18 38.0801,76.83 C41.0101,75.6199 42.37,73.9399 42.37,71.56 C42.39,70.05 41.69,68.61 40.49,67.6899 C39.2801,66.7399 37.62,66.2399 35.69,66.2399 L35.5101,66.2399 C38.2801,65.7 40.92,64.7 43.2101,63.28 C46.87,60.71 48.99,56.73 49.67,51.1 C50.2301,46.46 49.84,40.55 48.44,32.48 C48.0801,30.3899 47.54,27.36 46.8801,23.6 C52.6301,21.68 56.79,18.11 60.5601,12.26 C63.85,6.51992 64.8,0.419922 63.37,-5.89004 M32.39,87.5399 C30.19,87.5399 28.7301,86.1199 28.7301,84.01 C28.7301,82.11 29.65,80.5 31.32,79.4699 C31.6801,79.66 31.77,79.71 32.1101,79.88 C33.3,80.48 33.3,80.48 33.55,80.63 L33.5601,80.6399 C35.47,81.73 36.25,82.76 36.25,84.18 C36.24,86.0899 34.59,87.5399 32.39,87.5399 M38.3101,71.63 C38.3101,73.2699 37.7301,74.3399 36.1801,75.53 C34.74,74.78 34.35,74.56 33.9801,74.3399 L33.8801,74.28 C32.3301,73.3399 31.85,72.66 31.85,71.4 C31.85,69.6 33.2301,68.3399 35.19,68.3399 C37.17,68.35 38.3101,69.55 38.3101,71.63 M33.15,-83.8101 C34.9301,-89.55 37.67,-92.8 39.6601,-94.5301 C41.4101,-96.05 43.0601,-96.7601 43.9801,-96.7601 C44.12,-96.7601 44.24,-96.74 44.34,-96.7101 C44.8,-96.57 45.3301,-96 45.8,-95.1301 C48.1101,-90.84 47.37,-84.1301 46.0301,-79.69 C44.4,-74.29 41.4801,-68.6801 32.69,-59.0601 C32.52,-60.17 32.3601,-61.22 32.2101,-62.2 C30.95,-70.49 31.27,-77.7601 33.15,-83.8101 M29.15,20.31 C24.5101,19.0899 20.0801,16.5899 16.32,13.0899 C15.0101,11.86 13.14,9.68994 11.67,6.3 C10.3101,3.13994 9.65,-0.290039 9.7,-3.88008 C9.77002,-8.57002 11.0801,-13.39 13.59,-18.1801 C16.5101,-23.7601 21.07,-29.29 27.1301,-34.62 C28.5801,-35.9 29.95,-37.1801 31.24,-38.4601 C32,-34.2 32.8301,-29.5101 33.7101,-24.6301 C29.8601,-23.3601 25.1101,-20.2101 22,-14.5601 C18.47,-7.99004 18.6101,-2.47002 19.34,1.00996 C20.2801,5.46992 22.8101,9.22998 26.27,11.3199 C27.2,11.88 31.3301,14.01 33.17,13.43 C33.54,13.31 33.8101,13.0899 33.95,12.76 C34.4601,11.5899 33.44,10.95 31.8801,9.98994 C31.2801,9.61992 30.6101,9.2 29.8801,8.66992 C26.5601,6.17998 25.1101,1.72998 26.1801,-2.65 C26.7601,-5.05 28.04,-7.21006 29.8801,-8.91006 C31.55,-10.4601 33.59,-11.5601 35.97,-12.2 C38.0101,-0.960059 40.07,10.1899 41.7101,18.55 C41.84,19.2399 41.9801,19.91 42.1101,20.58 C37.7101,21.51 33.37,21.4199 29.15,20.31 M54.9,10.1 C53.7301,13.28 51.27,17.35 46.14,19.41 C46.07,18.9899 45.99,18.56 45.9101,18.13 C44.3601,9.36992 42.4301,-1.61006 40.47,-12.87 C50.82,-13.35 55.09,-5.91006 55.9801,-1.08008 C56.45,1.45 56.45,5.88994 54.9,10.1"/>
<path class="FiguredBass" d="M1086.66,2390.15 C1082.09,2390.15 1079.04,2391.99 1077.52,2395.67 C1076.01,2399.35 1075.25,2404.56 1075.25,2411.3 L1075.25,2422.25 C1078.47,2420.95 1081.25,2420.27 1083.6,2420.21 C1091.64,2420.21 1097.97,2421.98 1102.57,2425.54 C1107.18,2429.1 1109.49,2434.38 1109.49,2441.4 C1109.49,2448.42 1107.15,2453.73 1102.48,2457.31 C1097.81,2460.9 1091.52,2462.7 1083.6,2462.7 C1075.5,2462.7 1069.16,2458.94 1064.58,2451.42 C1060.01,2443.91 1057.72,2434.99 1057.72,2424.66 C1057.72,2414.39 1060.38,2405.49 1065.7,2397.94 C1071.02,2390.39 1078,2386.62 1086.66,2386.62 C1092.35,2386.62 1097.27,2388.06 1101.41,2390.94 C1105.56,2393.81 1107.63,2397.6 1107.63,2402.3 C1107.63,2405.02 1106.64,2407.37 1104.66,2409.35 C1102.68,2411.33 1100.32,2412.32 1097.56,2412.32 C1094.81,2412.32 1092.45,2411.33 1090.47,2409.35 C1088.49,2407.37 1087.5,2405.02 1087.5,2402.3 C1087.5,2399.64 1088.49,2397.29 1090.47,2395.25 C1091.15,2394.45 1092.11,2393.76 1093.34,2393.21 C1093.03,2392.4 1092.42,2391.79 1091.49,2391.35 C1090.13,2390.55 1088.52,2390.15 1086.66,2390.15 M1091.21,2428.09 C1090.1,2425.18 1087.65,2423.73 1083.88,2423.73 C1080.11,2423.73 1077.77,2425.18 1076.88,2428.09 C1075.98,2431 1075.53,2435.42 1075.53,2441.36 C1075.53,2448.35 1075.98,2453.05 1076.88,2455.46 C1077.77,2457.87 1080.11,2459.08 1083.88,2459.08 C1087.65,2459.08 1090.1,2457.62 1091.21,2454.72 C1092.32,2451.81 1092.88,2447.37 1092.88,2441.4 C1092.88,2435.44 1092.32,2431 1091.21,2428.09"/>
<path class="FiguredBass" d="M2004.08,2390.15 C1999.5,2390.15 1996.45,2391.99 1994.94,2395.67 C1993.42,2399.35 1992.67,2404.56 1992.67,2411.3 L1992.67,2422.25 C1995.88,2420.95 1998.67,2420.27 2001.02,2420.21 C2009.06,2420.21 2015.38,2421.98 2019.99,2425.54 C2024.6,2429.1 2026.9,2434.38 2026.9,2441.4 C2026.9,2448.42 2024.56,2453.73 2019.89,2457.31 C2015.23,2460.9 2008.93,2462.7 2001.02,2462.7 C1992.91,2462.7 1986.57,2458.94 1982,2451.42 C1977.42,2443.91 1975.13,2434.99 1975.13,2424.66 C1975.13,2414.39 1977.79,2405.49 1983.11,2397.94 C1988.43,2390.39 1995.42,2386.62 2004.08,2386.62 C2009.77,2386.62 2014.68,2388.06 2018.83,2390.94 C2022.97,2393.81 2025.04,2397.6 2025.04,2402.3 C2025.04,2405.02 2024.05,2407.37 2022.08,2409.35 C2020.1,2411.33 2017.73,2412.32 2014.98,2412.32 C2012.23,2412.32 2009.86,2411.33 2007.88,2409.35 C2005.9,2407.37 2004.91,2405.02 2004.91,2402.3 C2004.91,2399.64 2005.9,2397.29 2007.88,2395.25 C2008.56,2394.45 2009.52,2393.76 2010.76,2393.21 C2010.45,2392.4 2009.83,2391.79 2008.9,2391.35 C2007.54,2390.55 2005.93,2390.15 2004.08,2390.15 M2008.62,2428.09 C2007.51,2425.18 2005.07,2423.73 2001.29,2423.73 C1997.52,2423.73 1995.19,2425.18 1994.29,2428.09 C1993.39,2431 1992.94,2435.42 1992.94,2441.36 C1992.94,2448.35 1993.39,2453.05 1994.29,2455.46 C1995.19,2457.87 1997.52,2459.08 2001.29,2459.08 C2005.07,2459.08 2007.51,2457.62 2008.62,2454.72 C2009.74,2451.81 2010.29,2447.37 2010.29,2441.4 C2010.29,2435.44 2009.74,2431 2008.62,2428.09"/>
<path class="FiguredBass" d="M2459.21,2390.15 C2454.63,2390.15 2451.59,2391.99 2450.07,2395.67 C2448.56,2399.35 2447.8,2404.56 2447.8,2411.3 L2447.8,2422.25 C2451.02,2420.95 2453.8,2420.27 2456.15,2420.21 C2464.19,2420.21 2470.51,2421.98 2475.12,2425.54 C2479.73,2429.1 2482.03,2434.38 2482.03,2441.4 C2482.03,2448.42 2479.7,2453.73 2475.03,2457.31 C2470.36,2460.9 2464.07,2462.7 2456.15,2462.7 C2448.05,2462.7 2441.71,2458.94 2437.13,2451.42 C2432.55,2443.91 2430.27,2434.99 2430.27,2424.66 C2430.27,2414.39 2432.92,2405.49 2438.24,2397.94 C2443.56,2390.39 2450.55,2386.62 2459.21,2386.62 C2464.9,2386.62 2469.82,2388.06 2473.96,2390.94 C2478.11,2393.81 2480.18,2397.6 2480.18,2402.3 C2480.18,2405.02 2479.19,2407.37 2477.21,2409.35 C2475.23,2411.33 2472.86,2412.32 2470.11,2412.32 C2467.36,2412.32 2464.99,2411.33 2463.01,2409.35 C2461.04,2407.37 2460.05,2405.02 2460.05,2402.3 C2460.05,2399.64 2461.04,2397.29 2463.01,2395.25 C2463.69,2394.45 2464.65,2393.76 2465.89,2393.21 C2465.58,2392.4 2464.96,2391.79 2464.03,2391.35 C2462.67,2390.55 2461.07,2390.15 2459.21,2390.15 M2463.76,2428.09 C2462.64,2425.18 2460.2,2423.73 2456.43,2423.73 C2452.65,2423.73 2450.32,2425.18 2449.42,2428.09 C2448.53,2431 2448.08,2435.42 2448.08,2441.36 C2448.08,2448.35 2448.53,2453.05 2449.42,2455.46 C2450.32,2457.87 2452.65,2459.08 2456.43,2459.08 C2460.2,2459.08 2462.64,2457.62 2463.76,2454.72 C2464.87,2451.81 2465.43,2447.37 2465.43,2441.4 C2465.43,2435.44 2464.87,2431 2463.76,2428.09"/>
<path class="FiguredBass" d="M2890.96,2455.43 L2890.96,2474.82 C2890.96,2476.74 2889.99,2477.69 2888.04,2477.69 C2886.09,2477.69 2885.12,2476.74 2885.12,2474.82 L2885.12,2457.93 L2882.15,2459.14 C2881.84,2459.26 2881.44,2459.32 2880.95,2459.32 C2880.14,2459.32 2879.43,2459.02 2878.81,2458.4 C2878.19,2457.78 2877.88,2457.07 2877.88,2456.26 L2877.88,2446.8 C2877.88,2445.44 2878.53,2444.48 2879.83,2443.92 L2885.12,2441.7 L2885.12,2422.22 L2882.15,2423.42 C2881.97,2423.48 2881.72,2423.51 2881.41,2423.51 C2881.29,2423.51 2881.13,2423.51 2880.95,2423.51 C2880.02,2423.39 2879.28,2423.05 2878.72,2422.49 C2878.16,2421.94 2877.88,2421.29 2877.88,2420.55 L2877.88,2411.08 C2877.88,2409.78 2878.53,2408.86 2879.83,2408.3 L2885.12,2406.07 L2885.12,2386.31 C2885.12,2384.39 2886.09,2383.44 2888.04,2383.44 C2889.99,2383.44 2890.96,2384.39 2890.96,2386.31 L2890.96,2403.66 L2902.93,2398.65 L2902.93,2379.26 C2902.93,2377.34 2903.89,2376.39 2905.81,2376.39 C2907.73,2376.39 2908.68,2377.34 2908.68,2379.26 L2908.68,2396.33 L2911.93,2394.94 C2912.24,2394.82 2912.58,2394.75 2912.95,2394.75 C2913.76,2394.75 2914.48,2395.06 2915.13,2395.68 C2915.78,2396.3 2916.11,2397.01 2916.11,2397.82 L2916.11,2407.28 C2916.11,2408.64 2915.43,2409.6 2914.07,2410.15 L2908.68,2412.38 L2908.68,2431.96 L2911.93,2430.66 C2912.12,2430.6 2912.33,2430.56 2912.58,2430.56 C2912.7,2430.56 2912.83,2430.56 2912.95,2430.56 C2914,2430.75 2914.79,2431.09 2915.32,2431.59 C2915.84,2432.08 2916.11,2432.73 2916.11,2433.53 L2916.11,2443 C2916.11,2444.3 2915.43,2445.22 2914.07,2445.78 L2908.68,2448.01 L2908.68,2467.77 C2908.68,2469.68 2907.73,2470.64 2905.81,2470.64 C2903.89,2470.64 2902.93,2469.68 2902.93,2467.77 L2902.93,2450.42 L2890.96,2455.43 M2890.96,2439.29 L2902.93,2434.37 L2902.93,2414.79 L2890.96,2419.8 L2890.96,2439.29 "/>
<path class="FiguredBass" d="M3379.68,2390.15 C3375.1,2390.15 3372.06,2391.99 3370.54,2395.67 C3369.03,2399.35 3368.27,2404.56 3368.27,2411.3 L3368.27,2422.25 C3371.48,2420.95 3374.27,2420.27 3376.62,2420.21 C3384.66,2420.21 3390.98,2421.98 3395.59,2425.54 C3400.2,2429.1 3402.5,2434.38 3402.5,2441.4 C3402.5,2448.42 3400.17,2453.73 3395.5,2457.31 C3390.83,2460.9 3384.53,2462.7 3376.62,2462.7 C3368.52,2462.7 3362.18,2458.94 3357.6,2451.42 C3353.02,2443.91 3350.73,2434.99 3350.73,2424.66 C3350.73,2414.39 3353.39,2405.49 3358.71,2397.94 C3364.03,2390.39 3371.02,2386.62 3379.68,2386.62 C3385.37,2386.62 3390.29,2388.06 3394.43,2390.94 C3398.57,2393.81 3400.65,2397.6 3400.65,2402.3 C3400.65,2405.02 3399.66,2407.37 3397.68,2409.35 C3395.7,2411.33 3393.33,2412.32 3390.58,2412.32 C3387.83,2412.32 3385.46,2411.33 3383.48,2409.35 C3381.5,2407.37 3380.51,2405.02 3380.51,2402.3 C3380.51,2399.64 3381.5,2397.29 3383.48,2395.25 C3384.16,2394.45 3385.12,2393.76 3386.36,2393.21 C3386.05,2392.4 3385.43,2391.79 3384.5,2391.35 C3383.14,2390.55 3381.53,2390.15 3379.68,2390.15 M3384.22,2428.09 C3383.11,2425.18 3380.67,2423.73 3376.9,2423.73 C3373.12,2423.73 3370.79,2425.18 3369.89,2428.09 C3368.99,2431 3368.55,2435.42 3368.55,2441.36 C3368.55,2448.35 3368.99,2453.05 3369.89,2455.46 C3370.79,2457.87 3373.12,2459.08 3376.9,2459.08 C3380.67,2459.08 3383.11,2457.62 3384.22,2454.72 C3385.34,2451.81 3385.89,2447.37 3385.89,2441.4 C3385.89,2435.44 3385.34,2431 3384.22,2428.09"/>
<path class="FiguredBass" d="M3810.65,2453.05 L3810.65,2472.44 C3810.65,2474.35 3809.68,2475.31 3807.73,2475.31 C3805.78,2475.31 3804.81,2474.35 3804.81,2472.44 L3804.81,2455.55 L3801.84,2456.76 C3801.53,2456.88 3801.13,2456.94 3800.63,2456.94 C3799.83,2456.94 3799.12,2456.63 3798.5,2456.02 C3797.88,2455.4 3797.57,2454.69 3797.57,2453.88 L3797.57,2444.42 C3797.57,2443.06 3798.22,2442.1 3799.52,2441.54 L3804.81,2439.32 L3804.81,2419.83 L3801.84,2421.04 C3801.65,2421.1 3801.41,2421.13 3801.1,2421.13 C3800.97,2421.13 3800.82,2421.13 3800.63,2421.13 C3799.7,2421.01 3798.96,2420.67 3798.41,2420.11 C3797.85,2419.56 3797.57,2418.91 3797.57,2418.16 L3797.57,2408.7 C3797.57,2407.4 3798.22,2406.47 3799.52,2405.92 L3804.81,2403.69 L3804.81,2383.93 C3804.81,2382.01 3805.78,2381.05 3807.73,2381.05 C3809.68,2381.05 3810.65,2382.01 3810.65,2383.93 L3810.65,2401.28 L3822.62,2396.27 L3822.62,2376.88 C3822.62,2374.96 3823.58,2374 3825.5,2374 C3827.41,2374 3828.37,2374.96 3828.37,2376.88 L3828.37,2393.95 L3831.62,2392.56 C3831.93,2392.44 3832.27,2392.37 3832.64,2392.37 C3833.44,2392.37 3834.17,2392.68 3834.82,2393.3 C3835.47,2393.92 3835.79,2394.63 3835.79,2395.43 L3835.79,2404.9 C3835.79,2406.26 3835.11,2407.22 3833.75,2407.77 L3828.37,2410 L3828.37,2429.58 L3831.62,2428.28 C3831.8,2428.21 3832.02,2428.18 3832.27,2428.18 C3832.39,2428.18 3832.52,2428.18 3832.64,2428.18 C3833.69,2428.37 3834.48,2428.71 3835,2429.2 C3835.53,2429.7 3835.79,2430.35 3835.79,2431.15 L3835.79,2440.62 C3835.79,2441.91 3835.11,2442.84 3833.75,2443.4 L3828.37,2445.63 L3828.37,2465.39 C3828.37,2467.3 3827.41,2468.26 3825.5,2468.26 C3823.58,2468.26 3822.62,2467.3 3822.62,2465.39 L3822.62,2448.04 L3810.65,2453.05 M3810.65,2436.9 L3822.62,2431.99 L3822.62,2412.41 L3810.65,2417.42 L3810.65,2436.9 "/>
<path class="FiguredBass" d="M1098.54,1797.3 C1098.54,1798.29 1099.09,1799.25 1100.21,1800.18 C1101.32,1801.1 1102.54,1801.98 1103.87,1802.82 C1105.2,1803.65 1106.42,1805.23 1107.54,1807.55 C1108.65,1809.87 1109.21,1812.79 1109.21,1816.32 C1109.21,1823.12 1106.64,1828.38 1101.51,1832.09 C1096.37,1835.8 1089.88,1837.66 1082.02,1837.66 C1075.72,1837.66 1070.23,1836.08 1065.56,1832.92 C1060.89,1829.77 1058.55,1825.63 1058.55,1820.49 C1058.55,1817.77 1059.54,1815.41 1061.52,1813.4 C1063.5,1811.39 1065.87,1810.38 1068.62,1810.38 C1071.37,1810.38 1073.71,1811.37 1075.62,1813.35 C1077.54,1815.33 1078.5,1817.71 1078.5,1820.49 C1078.5,1821.73 1077.48,1823.08 1075.44,1824.53 C1073.4,1825.98 1072.38,1827.33 1072.38,1828.56 C1072.38,1830.48 1073.32,1831.89 1075.21,1832.79 C1077.09,1833.68 1079.36,1834.13 1082.02,1834.13 C1085.49,1834.13 1087.95,1832.41 1089.4,1828.98 C1090.85,1825.55 1091.58,1821.33 1091.58,1816.32 L1091.58,1813.91 C1091.58,1810.57 1091.47,1808.03 1091.26,1806.3 C1091.04,1804.57 1090.36,1803.02 1089.21,1801.66 C1088.07,1800.3 1086.32,1799.62 1083.97,1799.62 L1071.82,1799.62 C1070.4,1799.62 1069.69,1798.85 1069.69,1797.3 C1069.69,1795.88 1070.4,1795.17 1071.82,1795.17 L1083.97,1795.17 C1086.51,1795.17 1088.49,1794.21 1089.91,1792.29 C1090.4,1791.61 1090.81,1790.5 1091.12,1788.95 C1091.43,1786.91 1091.58,1783.97 1091.58,1780.14 L1091.58,1778.93 C1091.58,1769.72 1088.18,1765.11 1081.38,1765.11 C1075.38,1765.11 1072.38,1766.78 1072.38,1770.12 C1072.38,1771.23 1073.29,1772.42 1075.11,1773.69 C1076.94,1774.96 1077.85,1776.15 1077.85,1777.26 C1077.85,1779.67 1077,1781.74 1075.3,1783.48 C1073.6,1785.21 1071.53,1786.07 1069.08,1786.07 C1066.64,1786.07 1064.58,1785.21 1062.91,1783.48 C1061.24,1781.74 1060.41,1779.67 1060.41,1777.26 C1060.41,1772.5 1062.48,1768.69 1066.62,1765.85 C1070.77,1763 1075.68,1761.58 1081.38,1761.58 C1088.86,1761.58 1095.01,1763.02 1099.84,1765.9 C1104.66,1768.77 1107.07,1773.12 1107.07,1778.93 C1107.07,1783.07 1106.64,1786.29 1105.77,1788.58 C1104.91,1790.87 1103.92,1792.26 1102.81,1792.75 C1101.69,1793.25 1100.7,1793.82 1099.84,1794.47 C1098.97,1795.12 1098.54,1796.06 1098.54,1797.3"/>
<path class="FiguredBass" d="M1086.66,1870.86 C1082.09,1870.86 1079.04,1872.7 1077.52,1876.38 C1076.01,1880.06 1075.25,1885.27 1075.25,1892.01 L1075.25,1902.96 C1078.47,1901.66 1081.25,1900.98 1083.6,1900.92 C1091.64,1900.92 1097.97,1902.69 1102.57,1906.25 C1107.18,1909.81 1109.49,1915.09 1109.49,1922.11 C1109.49,1929.13 1107.15,1934.44 1102.48,1938.03 C1097.81,1941.61 1091.52,1943.41 1083.6,1943.41 C1075.5,1943.41 1069.16,1939.65 1064.58,1932.13 C1060.01,1924.62 1057.72,1915.7 1057.72,1905.37 C1057.72,1895.1 1060.38,1886.2 1065.7,1878.65 C1071.02,1871.1 1078,1867.33 1086.66,1867.33 C1092.35,1867.33 1097.27,1868.77 1101.41,1871.65 C1105.56,1874.52 1107.63,1878.31 1107.63,1883.01 C1107.63,1885.73 1106.64,1888.08 1104.66,1890.06 C1102.68,1892.04 1100.32,1893.03 1097.56,1893.03 C1094.81,1893.03 1092.45,1892.04 1090.47,1890.06 C1088.49,1888.08 1087.5,1885.73 1087.5,1883.01 C1087.5,1880.35 1088.49,1878 1090.47,1875.96 C1091.15,1875.16 1092.11,1874.48 1093.34,1873.92 C1093.03,1873.11 1092.42,1872.5 1091.49,1872.06 C1090.13,1871.26 1088.52,1870.86 1086.66,1870.86 M1091.21,1908.8 C1090.1,1905.89 1087.65,1904.44 1083.88,1904.44 C1080.11,1904.44 1077.77,1905.89 1076.88,1908.8 C1075.98,1911.71 1075.53,1916.13 1075.53,1922.07 C1075.53,1929.06 1075.98,1933.76 1076.88,1936.17 C1077.77,1938.58 1080.11,1939.79 1083.88,1939.79 C1087.65,1939.79 1090.1,1938.33 1091.21,1935.43 C1092.32,1932.52 1092.88,1928.08 1092.88,1922.11 C1092.88,1916.15 1092.32,1911.71 1091.21,1908.8"/>
<path class="FiguredBass" d="M2004.08,1765.11 C1999.5,1765.11 1996.45,1766.95 1994.94,1770.63 C1993.42,1774.31 1992.67,1779.52 1992.67,1786.26 L1992.67,1797.21 C1995.88,1795.91 1998.67,1795.23 2001.02,1795.17 C2009.06,1795.17 2015.38,1796.94 2019.99,1800.5 C2024.6,1804.06 2026.9,1809.34 2026.9,1816.36 C2026.9,1823.38 2024.56,1828.69 2019.89,1832.28 C2015.23,1835.86 2008.93,1837.66 2001.02,1837.66 C1992.91,1837.66 1986.57,1833.9 1982,1826.38 C1977.42,1818.87 1975.13,1809.95 1975.13,1799.62 C1975.13,1789.35 1977.79,1780.45 1983.11,1772.9 C1988.43,1765.35 1995.42,1761.58 2004.08,1761.58 C2009.77,1761.58 2014.68,1763.02 2018.83,1765.9 C2022.97,1768.77 2025.04,1772.56 2025.04,1777.26 C2025.04,1779.98 2024.05,1782.33 2022.08,1784.31 C2020.1,1786.29 2017.73,1787.28 2014.98,1787.28 C2012.23,1787.28 2009.86,1786.29 2007.88,1784.31 C2005.9,1782.33 2004.91,1779.98 2004.91,1777.26 C2004.91,1774.6 2005.9,1772.25 2007.88,1770.21 C2008.56,1769.41 2009.52,1768.73 2010.76,1768.17 C2010.45,1767.36 2009.83,1766.75 2008.9,1766.31 C2007.54,1765.51 2005.93,1765.11 2004.08,1765.11 M2008.62,1803.05 C2007.51,1800.14 2005.07,1798.69 2001.29,1798.69 C1997.52,1798.69 1995.19,1800.14 1994.29,1803.05 C1993.39,1805.96 1992.94,1810.38 1992.94,1816.32 C1992.94,1823.31 1993.39,1828.01 1994.29,1830.42 C1995.19,1832.83 1997.52,1834.04 2001.29,1834.04 C2005.07,1834.04 2007.51,1832.58 2008.62,1829.68 C2009.74,1826.77 2010.29,1822.33 2010.29,1816.36 C2010.29,1810.4 2009.74,1805.96 2008.62,1803.05"/>
<path class="FiguredBass" d="M2015.95,1903.05 C2015.95,1904.04 2016.51,1905 2017.62,1905.93 C2018.74,1906.85 2019.96,1907.73 2021.29,1908.57 C2022.62,1909.4 2023.84,1910.98 2024.95,1913.3 C2026.06,1915.62 2026.62,1918.54 2026.62,1922.07 C2026.62,1928.87 2024.05,1934.13 2018.92,1937.84 C2013.79,1941.55 2007.29,1943.41 1999.44,1943.41 C1993.13,1943.41 1987.64,1941.83 1982.97,1938.67 C1978.3,1935.52 1975.97,1931.38 1975.97,1926.24 C1975.97,1923.52 1976.96,1921.16 1978.94,1919.15 C1980.91,1917.14 1983.28,1916.13 1986.03,1916.13 C1988.78,1916.13 1991.12,1917.12 1993.04,1919.1 C1994.95,1921.08 1995.91,1923.46 1995.91,1926.24 C1995.91,1927.48 1994.89,1928.83 1992.85,1930.28 C1990.81,1931.73 1989.79,1933.08 1989.79,1934.31 C1989.79,1936.23 1990.73,1937.64 1992.62,1938.54 C1994.51,1939.43 1996.78,1939.88 1999.44,1939.88 C2002.9,1939.88 2005.36,1938.16 2006.81,1934.73 C2008.27,1931.3 2008.99,1927.08 2008.99,1922.07 L2008.99,1919.66 C2008.99,1916.32 2008.89,1913.78 2008.67,1912.05 C2008.45,1910.32 2007.77,1908.77 2006.63,1907.41 C2005.48,1906.05 2003.74,1905.37 2001.39,1905.37 L1989.23,1905.37 C1987.81,1905.37 1987.1,1904.6 1987.1,1903.05 C1987.1,1901.63 1987.81,1900.92 1989.23,1900.92 L2001.39,1900.92 C2003.92,1900.92 2005.9,1899.96 2007.32,1898.04 C2007.82,1897.36 2008.22,1896.25 2008.53,1894.7 C2008.84,1892.66 2008.99,1889.72 2008.99,1885.89 L2008.99,1884.68 C2008.99,1875.47 2005.59,1870.86 1998.79,1870.86 C1992.79,1870.86 1989.79,1872.53 1989.79,1875.87 C1989.79,1876.98 1990.7,1878.17 1992.53,1879.44 C1994.35,1880.71 1995.26,1881.9 1995.26,1883.01 C1995.26,1885.42 1994.41,1887.49 1992.71,1889.23 C1991.01,1890.96 1988.94,1891.82 1986.5,1891.82 C1984.05,1891.82 1982,1890.96 1980.33,1889.23 C1978.66,1887.49 1977.82,1885.42 1977.82,1883.01 C1977.82,1878.25 1979.89,1874.44 1984.04,1871.6 C1988.18,1868.75 1993.1,1867.33 1998.79,1867.33 C2006.27,1867.33 2012.43,1868.77 2017.25,1871.65 C2022.08,1874.52 2024.49,1878.87 2024.49,1884.68 C2024.49,1888.82 2024.05,1892.04 2023.19,1894.33 C2022.32,1896.62 2021.33,1898.01 2020.22,1898.5 C2019.11,1899 2018.12,1899.57 2017.25,1900.22 C2016.38,1900.87 2015.95,1901.81 2015.95,1903.05"/>
<path class="FiguredBass" d="M2471.09,1797.3 C2471.09,1798.29 2471.64,1799.25 2472.76,1800.18 C2473.87,1801.1 2475.09,1801.98 2476.42,1802.82 C2477.75,1803.65 2478.97,1805.23 2480.08,1807.55 C2481.2,1809.87 2481.75,1812.79 2481.75,1816.32 C2481.75,1823.12 2479.19,1828.38 2474.05,1832.09 C2468.92,1835.8 2462.43,1837.66 2454.57,1837.66 C2448.26,1837.66 2442.77,1836.08 2438.1,1832.92 C2433.43,1829.77 2431.1,1825.63 2431.1,1820.49 C2431.1,1817.77 2432.09,1815.41 2434.07,1813.4 C2436.05,1811.39 2438.41,1810.38 2441.17,1810.38 C2443.92,1810.38 2446.25,1811.37 2448.17,1813.35 C2450.09,1815.33 2451.05,1817.71 2451.05,1820.49 C2451.05,1821.73 2450.03,1823.08 2447.98,1824.53 C2445.94,1825.98 2444.92,1827.33 2444.92,1828.56 C2444.92,1830.48 2445.87,1831.89 2447.75,1832.79 C2449.64,1833.68 2451.91,1834.13 2454.57,1834.13 C2458.04,1834.13 2460.49,1832.41 2461.95,1828.98 C2463.4,1825.55 2464.13,1821.33 2464.13,1816.32 L2464.13,1813.91 C2464.13,1810.57 2464.02,1808.03 2463.8,1806.3 C2463.59,1804.57 2462.91,1803.02 2461.76,1801.66 C2460.62,1800.3 2458.87,1799.62 2456.52,1799.62 L2444.37,1799.62 C2442.94,1799.62 2442.23,1798.85 2442.23,1797.3 C2442.23,1795.88 2442.94,1795.17 2444.37,1795.17 L2456.52,1795.17 C2459.06,1795.17 2461.04,1794.21 2462.46,1792.29 C2462.95,1791.61 2463.35,1790.5 2463.66,1788.95 C2463.97,1786.91 2464.13,1783.97 2464.13,1780.14 L2464.13,1778.93 C2464.13,1769.72 2460.73,1765.11 2453.92,1765.11 C2447.92,1765.11 2444.92,1766.78 2444.92,1770.12 C2444.92,1771.23 2445.84,1772.42 2447.66,1773.69 C2449.48,1774.96 2450.4,1776.15 2450.4,1777.26 C2450.4,1779.67 2449.55,1781.74 2447.85,1783.48 C2446.14,1785.21 2444.07,1786.07 2441.63,1786.07 C2439.19,1786.07 2437.13,1785.21 2435.46,1783.48 C2433.79,1781.74 2432.96,1779.67 2432.96,1777.26 C2432.96,1772.5 2435.03,1768.69 2439.17,1765.85 C2443.32,1763 2448.23,1761.58 2453.92,1761.58 C2461.41,1761.58 2467.56,1763.02 2472.38,1765.9 C2477.21,1768.77 2479.62,1773.12 2479.62,1778.93 C2479.62,1783.07 2479.19,1786.29 2478.32,1788.58 C2477.46,1790.87 2476.47,1792.26 2475.35,1792.75 C2474.24,1793.25 2473.25,1793.82 2472.38,1794.47 C2471.52,1795.12 2471.09,1796.06 2471.09,1797.3"/>
<path class="FiguredBass" d="M2459.21,1870.86 C2454.63,1870.86 2451.59,1872.7 2450.07,1876.38 C2448.56,1880.06 2447.8,1885.27 2447.8,1892.01 L2447.8,1902.96 C2451.02,1901.66 2453.8,1900.98 2456.15,1900.92 C2464.19,1900.92 2470.51,1902.69 2475.12,1906.25 C2479.73,1909.81 2482.03,1915.09 2482.03,1922.11 C2482.03,1929.13 2479.7,1934.44 2475.03,1938.03 C2470.36,1941.61 2464.07,1943.41 2456.15,1943.41 C2448.05,1943.41 2441.71,1939.65 2437.13,1932.13 C2432.55,1924.62 2430.27,1915.7 2430.27,1905.37 C2430.27,1895.1 2432.92,1886.2 2438.24,1878.65 C2443.56,1871.1 2450.55,1867.33 2459.21,1867.33 C2464.9,1867.33 2469.82,1868.77 2473.96,1871.65 C2478.11,1874.52 2480.18,1878.31 2480.18,1883.01 C2480.18,1885.73 2479.19,1888.08 2477.21,1890.06 C2475.23,1892.04 2472.86,1893.03 2470.11,1893.03 C2467.36,1893.03 2464.99,1892.04 2463.01,1890.06 C2461.04,1888.08 2460.05,1885.73 2460.05,1883.01 C2460.05,1880.35 2461.04,1878 2463.01,1875.96 C2463.69,1875.16 2464.65,1874.48 2465.89,1873.92 C2465.58,1873.11 2464.96,1872.5 2464.03,1872.06 C2462.67,1871.26 2461.07,1870.86 2459.21,1870.86 M2463.76,1908.8 C2462.64,1905.89 2460.2,1904.44 2456.43,1904.44 C2452.65,1904.44 2450.32,1905.89 2449.42,1908.8 C2448.53,1911.71 2448.08,1916.13 2448.08,1922.07 C2448.08,1929.06 2448.53,1933.76 2449.42,1936.17 C2450.32,1938.58 2452.65,1939.79 2456.43,1939.79 C2460.2,1939.79 2462.64,1938.33 2463.76,1935.43 C2464.87,1932.52 2465.43,1928.08 2465.43,1922.11 C2465.43,1916.15 2464.87,1911.71 2463.76,1908.8"/>
<path class="FiguredBass" d="M3379.68,1765.11 C3375.1,1765.11 3372.06,1766.95 3370.54,1770.63 C3369.03,1774.31 3368.27,1779.52 3368.27,1786.26 L3368.27,1797.21 C3371.48,1795.91 3374.27,1795.23 3376.62,1795.17 C3384.66,1795.17 3390.98,1796.94 3395.59,1800.5 C3400.2,1804.06 3402.5,1809.34 3402.5,1816.36 C3402.5,1823.38 3400.17,1828.69 3395.5,1832.28 C3390.83,1835.86 3384.53,1837.66 3376.62,1837.66 C3368.52,1837.66 3362.18,1833.9 3357.6,1826.38 C3353.02,1818.87 3350.73,1809.95 3350.73,1799.62 C3350.73,1789.35 3353.39,1780.45 3358.71,1772.9 C3364.03,1765.35 3371.02,1761.58 3379.68,1761.58 C3385.37,1761.58 3390.29,1763.02 3394.43,1765.9 C3398.57,1768.77 3400.65,1772.56 3400.65,1777.26 C3400.65,1779.98 3399.66,1782.33 3397.68,1784.31 C3395.7,1786.29 3393.33,1787.28 3390.58,1787.28 C3387.83,1787.28 3385.46,1786.29 3383.48,1784.31 C3381.5,1782.33 3380.51,1779.98 3380.51,1777.26 C3380.51,1774.6 3381.5,1772.25 3383.48,1770.21 C3384.16,1769.41 3385.12,1768.73 3386.36,1768.17 C3386.05,1767.36 3385.43,1766.75 3384.5,1766.31 C3383.14,1765.51 3381.53,1765.11 3379.68,1765.11 M3384.22,1803.05 C3383.11,1800.14 3380.67,1798.69 3376.9,1798.69 C3373.12,1798.69 3370.79,1800.14 3369.89,1803.05 C3368.99,1805.96 3368.55,1810.38 3368.55,1816.32 C3368.55,1823.31 3368.99,1828.01 3369.89,1830.42 C3370.79,1832.83 3373.12,1834.04 3376.9,1834.04 C3380.67,1834.04 3383.11,1832.58 3384.22,1829.68 C3385.34,1826.77 3385.89,1822.33 3385.89,1816.36 C3385.89,1810.4 3385.34,1805.96 3384.22,1803.05"/>
<path class="FiguredBass" d="M3391.55,1903.05 C3391.55,1904.04 3392.11,1905 3393.22,1905.93 C3394.34,1906.85 3395.56,1907.73 3396.89,1908.57 C3398.22,1909.4 3399.44,1910.98 3400.55,1913.3 C3401.67,1915.62 3402.22,1918.54 3402.22,1922.07 C3402.22,1928.87 3399.66,1934.13 3394.52,1937.84 C3389.39,1941.55 3382.9,1943.41 3375.04,1943.41 C3368.73,1943.41 3363.24,1941.83 3358.57,1938.67 C3353.9,1935.52 3351.57,1931.38 3351.57,1926.24 C3351.57,1923.52 3352.56,1921.16 3354.54,1919.15 C3356.52,1917.14 3358.88,1916.13 3361.63,1916.13 C3364.39,1916.13 3366.72,1917.12 3368.64,1919.1 C3370.56,1921.08 3371.51,1923.46 3371.51,1926.24 C3371.51,1927.48 3370.49,1928.83 3368.45,1930.28 C3366.41,1931.73 3365.39,1933.08 3365.39,1934.31 C3365.39,1936.23 3366.33,1937.64 3368.22,1938.54 C3370.11,1939.43 3372.38,1939.88 3375.04,1939.88 C3378.5,1939.88 3380.96,1938.16 3382.42,1934.73 C3383.87,1931.3 3384.6,1927.08 3384.6,1922.07 L3384.6,1919.66 C3384.6,1916.32 3384.49,1913.78 3384.27,1912.05 C3384.05,1910.32 3383.37,1908.77 3382.23,1907.41 C3381.09,1906.05 3379.34,1905.37 3376.99,1905.37 L3364.84,1905.37 C3363.41,1905.37 3362.7,1904.6 3362.7,1903.05 C3362.7,1901.63 3363.41,1900.92 3364.84,1900.92 L3376.99,1900.92 C3379.52,1900.92 3381.5,1899.96 3382.93,1898.04 C3383.42,1897.36 3383.82,1896.25 3384.13,1894.7 C3384.44,1892.66 3384.6,1889.72 3384.6,1885.89 L3384.6,1884.68 C3384.6,1875.47 3381.19,1870.86 3374.39,1870.86 C3368.39,1870.86 3365.39,1872.53 3365.39,1875.87 C3365.39,1876.98 3366.3,1878.17 3368.13,1879.44 C3369.95,1880.71 3370.87,1881.9 3370.87,1883.01 C3370.87,1885.42 3370.02,1887.49 3368.31,1889.23 C3366.61,1890.96 3364.54,1891.82 3362.1,1891.82 C3359.66,1891.82 3357.6,1890.96 3355.93,1889.23 C3354.26,1887.49 3353.42,1885.42 3353.42,1883.01 C3353.42,1878.25 3355.5,1874.44 3359.64,1871.6 C3363.78,1868.75 3368.7,1867.33 3374.39,1867.33 C3381.87,1867.33 3388.03,1868.77 3392.85,1871.65 C3397.68,1874.52 3400.09,1878.87 3400.09,1884.68 C3400.09,1888.82 3399.66,1892.04 3398.79,1894.33 C3397.92,1896.62 3396.93,1898.01 3395.82,1898.5 C3394.71,1899 3393.72,1899.57 3392.85,1900.22 C3391.99,1900.87 3391.55,1901.81 3391.55,1903.05"/>
<path class="Bracket" transform="matrix(8.6315,0,0,8.6315,76.1283,2254.96)" d="M0.92002,-50 C2.69004,-51.88 6.2,-55.8 6.2,-63 C6.2,-72.1 2.25996,-81.32 2.25996,-86.97 C2.25996,-93.06 5.84004,-98.84 5.95,-99 C6.05996,-99.16 6.05,-99.39 5.94004,-99.46 C5.82998,-99.53 5.62002,-99.47 5.49004,-99.32 C5.35996,-99.17 0,-93.75 0,-85.6 C0,-76.75 3.5,-70.58 3.5,-59.07 C3.5,-56.89 2.55996,-53.36 0.1,-50.33 C-0.0799805,-50.17 -0.1,-49.89 0.0599609,-49.7 L0.0700195,-49.69 L0.1,-49.66 C2.55996,-46.63 3.5,-43.1 3.5,-40.92 C3.5,-29.4 0,-23.24 0,-14.39 C0,-6.25 5.35996,-0.8 5.49004,-0.659961 C5.62002,-0.52002 5.8,-0.42998 5.94004,-0.52002 C6.07998,-0.609961 6.07998,-0.77998 5.95,-0.97998 C5.82002,-1.17998 2.25996,-6.92002 2.25996,-13.01 C2.25996,-18.66 6.2,-27.9 6.2,-37 C6.2,-44.3 2.69004,-48.12 0.92002,-50"/>
</svg>
