<?xml version="1.0" encoding="UTF-8" standalone="no"?>
<svg width="4209.44px" height="2976.38px" viewBox="0 0 4209.44 2976.38"
 xmlns="http://www.w3.org/2000/svg" xmlns:xlink="http://www.w3.org/1999/xlink" version="1.2" baseProfile="tiny">
<title>LaMineur (24)</title>
<desc>Generated by MuseScore 3.6.2</desc>
<polyline class="StaffLines" fill="none" stroke="#000000" stroke-width="6.55" stroke-linejoin="bevel" points="153.819,558.425 4138.58,558.425"/>
<polyline class="StaffLines" fill="none" stroke="#000000" stroke-width="6.55" stroke-linejoin="bevel" points="153.819,647.717 4138.58,647.717"/>
<polyline class="StaffLines" fill="none" stroke="#000000" stroke-width="6.55" stroke-linejoin="bevel" points="153.819,737.008 4138.58,737.008"/>
<polyline class="StaffLines" fill="none" stroke="#000000" stroke-width="6.55" stroke-linejoin="bevel" points="153.819,826.299 4138.58,826.299"/>
<polyline class="StaffLines" fill="none" stroke="#000000" stroke-width="6.55" stroke-linejoin="bevel" points="153.819,915.591 4138.58,915.591"/>
<polyline class="StaffLines" fill="none" stroke="#000000" stroke-width="6.55" stroke-linejoin="bevel" points="153.819,1004.88 4138.58,1004.88"/>
<polyline class="StaffLines" fill="none" stroke="#000000" stroke-width="6.55" stroke-linejoin="bevel" points="153.819,1391.81 4138.58,1391.81"/>
<polyline class="StaffLines" fill="none" stroke="#000000" stroke-width="6.55" stroke-linejoin="bevel" points="153.819,1451.34 4138.58,1451.34"/>
<polyline class="StaffLines" fill="none" stroke="#000000" stroke-width="6.55" stroke-linejoin="bevel" points="153.819,1510.87 4138.58,1510.87"/>
<polyline class="StaffLines" fill="none" stroke="#000000" stroke-width="6.55" stroke-linejoin="bevel" points="153.819,1570.39 4138.58,1570.39"/>
<polyline class="StaffLines" fill="none" stroke="#000000" stroke-width="6.55" stroke-linejoin="bevel" points="153.819,1629.92 4138.58,1629.92"/>
<polyline class="StaffLines" fill="none" stroke="#000000" stroke-width="6.55" stroke-linejoin="bevel" points="153.819,2158.12 4138.58,2158.12"/>
<polyline class="StaffLines" fill="none" stroke="#000000" stroke-width="6.55" stroke-linejoin="bevel" points="153.819,2217.65 4138.58,2217.65"/>
<polyline class="StaffLines" fill="none" stroke="#000000" stroke-width="6.55" stroke-linejoin="bevel" points="153.819,2277.18 4138.58,2277.18"/>
<polyline class="StaffLines" fill="none" stroke="#000000" stroke-width="6.55" stroke-linejoin="bevel" points="153.819,2336.7 4138.58,2336.7"/>
<polyline class="StaffLines" fill="none" stroke="#000000" stroke-width="6.55" stroke-linejoin="bevel" points="153.819,2396.23 4138.58,2396.23"/>
<polyline class="BarLine" fill="none" stroke="#000000" stroke-width="10.71" stroke-linejoin="bevel" points="159.176,2154.85 159.176,2399.51"/>
<polyline class="BarLine" fill="none" stroke="#000000" stroke-width="10.71" stroke-linejoin="bevel" points="991.067,2154.85 991.067,2399.51"/>
<polyline class="BarLine" fill="none" stroke="#000000" stroke-width="10.71" stroke-linejoin="bevel" points="1676.41,2154.85 1676.41,2399.51"/>
<polyline class="BarLine" fill="none" stroke="#000000" stroke-width="10.71" stroke-linejoin="bevel" points="2236.86,2154.85 2236.86,2399.51"/>
<polyline class="BarLine" fill="none" stroke="#000000" stroke-width="10.71" stroke-linejoin="bevel" points="2269.6,2154.85 2269.6,2399.51"/>
<polyline class="BarLine" fill="none" stroke="#000000" stroke-width="10.71" stroke-linejoin="bevel" points="2854.69,2154.85 2854.69,2399.51"/>
<polyline class="BarLine" fill="none" stroke="#000000" stroke-width="10.71" stroke-linejoin="bevel" points="3540.03,2154.85 3540.03,2399.51"/>
<polyline class="BarLine" fill="none" stroke="#000000" stroke-width="10.71" stroke-linejoin="bevel" points="4100.48,2154.85 4100.48,2399.51"/>
<polyline class="BarLine" fill="none" stroke="#000000" stroke-width="10.71" stroke-linejoin="bevel" points="4133.22,2154.85 4133.22,2399.51"/>
<polyline class="BarLine" fill="none" stroke="#000000" stroke-width="10.71" stroke-linejoin="bevel" points="159.176,1388.54 159.176,2158.12"/>
<polyline class="BarLine" fill="none" stroke="#000000" stroke-width="10.71" stroke-linejoin="bevel" points="991.067,1388.54 991.067,1633.2"/>
<polyline class="BarLine" fill="none" stroke="#000000" stroke-width="10.71" stroke-linejoin="bevel" points="1676.41,1388.54 1676.41,1633.2"/>
<polyline class="BarLine" fill="none" stroke="#000000" stroke-width="10.71" stroke-linejoin="bevel" points="2236.86,1388.54 2236.86,1633.2"/>
<polyline class="BarLine" fill="none" stroke="#000000" stroke-width="10.71" stroke-linejoin="bevel" points="2269.6,1388.54 2269.6,1633.2"/>
<polyline class="BarLine" fill="none" stroke="#000000" stroke-width="10.71" stroke-linejoin="bevel" points="2854.69,1388.54 2854.69,1633.2"/>
<polyline class="BarLine" fill="none" stroke="#000000" stroke-width="10.71" stroke-linejoin="bevel" points="3540.03,1388.54 3540.03,1633.2"/>
<polyline class="BarLine" fill="none" stroke="#000000" stroke-width="10.71" stroke-linejoin="bevel" points="4100.48,1388.54 4100.48,1633.2"/>
<polyline class="BarLine" fill="none" stroke="#000000" stroke-width="10.71" stroke-linejoin="bevel" points="4133.22,1388.54 4133.22,1633.2"/>
<polyline class="BarLine" fill="none" stroke="#000000" stroke-width="10.71" stroke-linejoin="bevel" points="159.176,555.151 159.176,1391.81"/>
<polyline class="BarLine" fill="none" stroke="#000000" stroke-width="10.71" stroke-linejoin="bevel" points="991.067,555.151 991.067,1008.16"/>
<polyline class="BarLine" fill="none" stroke="#000000" stroke-width="10.71" stroke-linejoin="bevel" points="1676.41,555.151 1676.41,1008.16"/>
<polyline class="BarLine" fill="none" stroke="#000000" stroke-width="10.71" stroke-linejoin="bevel" points="2236.86,555.151 2236.86,1008.16"/>
<polyline class="BarLine" fill="none" stroke="#000000" stroke-width="10.71" stroke-linejoin="bevel" points="2269.6,555.151 2269.6,1008.16"/>
<polyline class="BarLine" fill="none" stroke="#000000" stroke-width="10.71" stroke-linejoin="bevel" points="2854.69,555.151 2854.69,1008.16"/>
<polyline class="BarLine" fill="none" stroke="#000000" stroke-width="10.71" stroke-linejoin="bevel" points="3540.03,555.151 3540.03,1008.16"/>
<polyline class="BarLine" fill="none" stroke="#000000" stroke-width="10.71" stroke-linejoin="bevel" points="4100.48,555.151 4100.48,1008.16"/>
<polyline class="BarLine" fill="none" stroke="#000000" stroke-width="10.71" stroke-linejoin="bevel" points="4133.22,555.151 4133.22,1008.16"/>
<path class="Accidental" transform="matrix(2.3811,0,0,2.3811,1053.93,1570.39)" d="M23.3,-10.6 C23.9,-10.7 24.4,-11.4 24.4,-12 L24.4,-17.9 C24.4,-18.7 23.8,-19.3 23,-19.3 L22.8,-19.3 L19.5,-18.6 L19.5,-33.5 L16.7,-33.5 L16.7,-18 L7.8,-16.2 L7.8,-30.3 L5,-30.3 L5,-15.6 L1.1,-14.8 C0.5,-14.7 0,-14 0,-13.4 L0,-13.2 L0,-7.4 L0,-7.6 C0,-6.8 0.6,-6.2 1.4,-6.2 L1.7,-6.2 L5,-6.9 L5,9.6 L1.1,10.4 C0.5,10.5 0,11.2 0,11.8 L0,17.6 C0,18.4 0.6,19 1.4,19 L1.7,19 L5,18.3 L5,33.2 L7.8,33.2 L7.8,17.7 L16.7,15.9 L16.7,30 L19.5,30 L19.5,15.3 L23.3,14.6 C23.9,14.5 24.4,13.8 24.4,13.2 L24.4,7.3 C24.4,6.5 23.8,5.9 23,5.9 L22.8,5.9 L19.5,6.6 L19.5,-9.9 L23.3,-10.6 M7.8,9.1 L7.8,-7.5 L16.7,-9.3 L16.7,7.2 L7.8,9.1 "/>
<path class="Accidental" transform="matrix(2.3811,0,0,2.3811,2917.55,1570.39)" d="M23.3,-10.6 C23.9,-10.7 24.4,-11.4 24.4,-12 L24.4,-17.9 C24.4,-18.7 23.8,-19.3 23,-19.3 L22.8,-19.3 L19.5,-18.6 L19.5,-33.5 L16.7,-33.5 L16.7,-18 L7.8,-16.2 L7.8,-30.3 L5,-30.3 L5,-15.6 L1.1,-14.8 C0.5,-14.7 0,-14 0,-13.4 L0,-13.2 L0,-7.4 L0,-7.6 C0,-6.8 0.6,-6.2 1.4,-6.2 L1.7,-6.2 L5,-6.9 L5,9.6 L1.1,10.4 C0.5,10.5 0,11.2 0,11.8 L0,17.6 C0,18.4 0.6,19 1.4,19 L1.7,19 L5,18.3 L5,33.2 L7.8,33.2 L7.8,17.7 L16.7,15.9 L16.7,30 L19.5,30 L19.5,15.3 L23.3,14.6 C23.9,14.5 24.4,13.8 24.4,13.2 L24.4,7.3 C24.4,6.5 23.8,5.9 23,5.9 L22.8,5.9 L19.5,6.6 L19.5,-9.9 L23.3,-10.6 M7.8,9.1 L7.8,-7.5 L16.7,-9.3 L16.7,7.2 L7.8,9.1 "/>
<path class="Note" transform="matrix(2.3811,0,0,2.3811,519.076,2128.36)" d="M18.7,-13.6 C4.9,-13.6 0,-6.6 0,-0.1 C0,6.4 4.9,13.4 18.7,13.4 C32.5,13.4 37.3,6.4 37.3,-0.1 C37.3,-6.6 32.5,-13.6 18.7,-13.6 M10.4,-4.5 C10.3,-4.9 10.3,-5.3 10.3,-5.7 C10.3,-6.5 10.5,-7.3 10.9,-8 C11.6,-9 12.8,-9.7 14.3,-10 C15.6,-10.3 16.3,-10.5 18.9,-10.5 L19,-10.5 C23,-10.5 24.3,-6.8 25.4,-3 L25.7,-2 C26.5,0.6 26.9,2.8 26.9,4.5 C26.9,5.7 26.7,6.8 26.3,7.6 C25.7,8.7 24.7,9.4 23,9.8 C22.1,10 20.6,10.1 20.6,10.1 C20.1,10.1 19.7,10.2 19.3,10.2 C16.1,10.2 14.1,9 12.7,4.7 C11.5,1 11.3,-0.1 10.4,-4.5"/>
<path class="Note" transform="matrix(2.3811,0,0,2.3811,1204.42,2128.36)" d="M18.7,-13.6 C4.9,-13.6 0,-6.6 0,-0.1 C0,6.4 4.9,13.4 18.7,13.4 C32.5,13.4 37.3,6.4 37.3,-0.1 C37.3,-6.6 32.5,-13.6 18.7,-13.6 M10.4,-4.5 C10.3,-4.9 10.3,-5.3 10.3,-5.7 C10.3,-6.5 10.5,-7.3 10.9,-8 C11.6,-9 12.8,-9.7 14.3,-10 C15.6,-10.3 16.3,-10.5 18.9,-10.5 L19,-10.5 C23,-10.5 24.3,-6.8 25.4,-3 L25.7,-2 C26.5,0.6 26.9,2.8 26.9,4.5 C26.9,5.7 26.7,6.8 26.3,7.6 C25.7,8.7 24.7,9.4 23,9.8 C22.1,10 20.6,10.1 20.6,10.1 C20.1,10.1 19.7,10.2 19.3,10.2 C16.1,10.2 14.1,9 12.7,4.7 C11.5,1 11.3,-0.1 10.4,-4.5"/>
<path class="Note" transform="matrix(2.3811,0,0,2.3811,1764.87,2158.12)" d="M18.7,-13.6 C4.9,-13.6 0,-6.6 0,-0.1 C0,6.4 4.9,13.4 18.7,13.4 C32.5,13.4 37.3,6.4 37.3,-0.1 C37.3,-6.6 32.5,-13.6 18.7,-13.6 M10.4,-4.5 C10.3,-4.9 10.3,-5.3 10.3,-5.7 C10.3,-6.5 10.5,-7.3 10.9,-8 C11.6,-9 12.8,-9.7 14.3,-10 C15.6,-10.3 16.3,-10.5 18.9,-10.5 L19,-10.5 C23,-10.5 24.3,-6.8 25.4,-3 L25.7,-2 C26.5,0.6 26.9,2.8 26.9,4.5 C26.9,5.7 26.7,6.8 26.3,7.6 C25.7,8.7 24.7,9.4 23,9.8 C22.1,10 20.6,10.1 20.6,10.1 C20.1,10.1 19.7,10.2 19.3,10.2 C16.1,10.2 14.1,9 12.7,4.7 C11.5,1 11.3,-0.1 10.4,-4.5"/>
<path class="Note" transform="matrix(2.3811,0,0,2.3811,2358.07,2128.36)" d="M18.7,-13.6 C4.9,-13.6 0,-6.6 0,-0.1 C0,6.4 4.9,13.4 18.7,13.4 C32.5,13.4 37.3,6.4 37.3,-0.1 C37.3,-6.6 32.5,-13.6 18.7,-13.6 M10.4,-4.5 C10.3,-4.9 10.3,-5.3 10.3,-5.7 C10.3,-6.5 10.5,-7.3 10.9,-8 C11.6,-9 12.8,-9.7 14.3,-10 C15.6,-10.3 16.3,-10.5 18.9,-10.5 L19,-10.5 C23,-10.5 24.3,-6.8 25.4,-3 L25.7,-2 C26.5,0.6 26.9,2.8 26.9,4.5 C26.9,5.7 26.7,6.8 26.3,7.6 C25.7,8.7 24.7,9.4 23,9.8 C22.1,10 20.6,10.1 20.6,10.1 C20.1,10.1 19.7,10.2 19.3,10.2 C16.1,10.2 14.1,9 12.7,4.7 C11.5,1 11.3,-0.1 10.4,-4.5"/>
<path class="Note" transform="matrix(2.3811,0,0,2.3811,3068.04,2247.41)" d="M18.7,-13.6 C4.9,-13.6 0,-6.6 0,-0.1 C0,6.4 4.9,13.4 18.7,13.4 C32.5,13.4 37.3,6.4 37.3,-0.1 C37.3,-6.6 32.5,-13.6 18.7,-13.6 M10.4,-4.5 C10.3,-4.9 10.3,-5.3 10.3,-5.7 C10.3,-6.5 10.5,-7.3 10.9,-8 C11.6,-9 12.8,-9.7 14.3,-10 C15.6,-10.3 16.3,-10.5 18.9,-10.5 L19,-10.5 C23,-10.5 24.3,-6.8 25.4,-3 L25.7,-2 C26.5,0.6 26.9,2.8 26.9,4.5 C26.9,5.7 26.7,6.8 26.3,7.6 C25.7,8.7 24.7,9.4 23,9.8 C22.1,10 20.6,10.1 20.6,10.1 C20.1,10.1 19.7,10.2 19.3,10.2 C16.1,10.2 14.1,9 12.7,4.7 C11.5,1 11.3,-0.1 10.4,-4.5"/>
<path class="Note" transform="matrix(2.3811,0,0,2.3811,3628.49,2158.12)" d="M18.7,-13.6 C4.9,-13.6 0,-6.6 0,-0.1 C0,6.4 4.9,13.4 18.7,13.4 C32.5,13.4 37.3,6.4 37.3,-0.1 C37.3,-6.6 32.5,-13.6 18.7,-13.6 M10.4,-4.5 C10.3,-4.9 10.3,-5.3 10.3,-5.7 C10.3,-6.5 10.5,-7.3 10.9,-8 C11.6,-9 12.8,-9.7 14.3,-10 C15.6,-10.3 16.3,-10.5 18.9,-10.5 L19,-10.5 C23,-10.5 24.3,-6.8 25.4,-3 L25.7,-2 C26.5,0.6 26.9,2.8 26.9,4.5 C26.9,5.7 26.7,6.8 26.3,7.6 C25.7,8.7 24.7,9.4 23,9.8 C22.1,10 20.6,10.1 20.6,10.1 C20.1,10.1 19.7,10.2 19.3,10.2 C16.1,10.2 14.1,9 12.7,4.7 C11.5,1 11.3,-0.1 10.4,-4.5"/>
<path class="Note" transform="matrix(2.3811,0,0,2.3811,519.076,1540.63)" d="M18.7,-13.6 C4.9,-13.6 0,-6.6 0,-0.1 C0,6.4 4.9,13.4 18.7,13.4 C32.5,13.4 37.3,6.4 37.3,-0.1 C37.3,-6.6 32.5,-13.6 18.7,-13.6 M10.4,-4.5 C10.3,-4.9 10.3,-5.3 10.3,-5.7 C10.3,-6.5 10.5,-7.3 10.9,-8 C11.6,-9 12.8,-9.7 14.3,-10 C15.6,-10.3 16.3,-10.5 18.9,-10.5 L19,-10.5 C23,-10.5 24.3,-6.8 25.4,-3 L25.7,-2 C26.5,0.6 26.9,2.8 26.9,4.5 C26.9,5.7 26.7,6.8 26.3,7.6 C25.7,8.7 24.7,9.4 23,9.8 C22.1,10 20.6,10.1 20.6,10.1 C20.1,10.1 19.7,10.2 19.3,10.2 C16.1,10.2 14.1,9 12.7,4.7 C11.5,1 11.3,-0.1 10.4,-4.5"/>
<path class="Note" transform="matrix(2.3811,0,0,2.3811,519.076,1451.34)" d="M18.7,-13.6 C4.9,-13.6 0,-6.6 0,-0.1 C0,6.4 4.9,13.4 18.7,13.4 C32.5,13.4 37.3,6.4 37.3,-0.1 C37.3,-6.6 32.5,-13.6 18.7,-13.6 M10.4,-4.5 C10.3,-4.9 10.3,-5.3 10.3,-5.7 C10.3,-6.5 10.5,-7.3 10.9,-8 C11.6,-9 12.8,-9.7 14.3,-10 C15.6,-10.3 16.3,-10.5 18.9,-10.5 L19,-10.5 C23,-10.5 24.3,-6.8 25.4,-3 L25.7,-2 C26.5,0.6 26.9,2.8 26.9,4.5 C26.9,5.7 26.7,6.8 26.3,7.6 C25.7,8.7 24.7,9.4 23,9.8 C22.1,10 20.6,10.1 20.6,10.1 C20.1,10.1 19.7,10.2 19.3,10.2 C16.1,10.2 14.1,9 12.7,4.7 C11.5,1 11.3,-0.1 10.4,-4.5"/>
<path class="Note" transform="matrix(2.3811,0,0,2.3811,519.076,1391.81)" d="M18.7,-13.6 C4.9,-13.6 0,-6.6 0,-0.1 C0,6.4 4.9,13.4 18.7,13.4 C32.5,13.4 37.3,6.4 37.3,-0.1 C37.3,-6.6 32.5,-13.6 18.7,-13.6 M10.4,-4.5 C10.3,-4.9 10.3,-5.3 10.3,-5.7 C10.3,-6.5 10.5,-7.3 10.9,-8 C11.6,-9 12.8,-9.7 14.3,-10 C15.6,-10.3 16.3,-10.5 18.9,-10.5 L19,-10.5 C23,-10.5 24.3,-6.8 25.4,-3 L25.7,-2 C26.5,0.6 26.9,2.8 26.9,4.5 C26.9,5.7 26.7,6.8 26.3,7.6 C25.7,8.7 24.7,9.4 23,9.8 C22.1,10 20.6,10.1 20.6,10.1 C20.1,10.1 19.7,10.2 19.3,10.2 C16.1,10.2 14.1,9 12.7,4.7 C11.5,1 11.3,-0.1 10.4,-4.5"/>
<path class="Note" transform="matrix(2.3811,0,0,2.3811,1204.42,1570.39)" d="M18.7,-13.6 C4.9,-13.6 0,-6.6 0,-0.1 C0,6.4 4.9,13.4 18.7,13.4 C32.5,13.4 37.3,6.4 37.3,-0.1 C37.3,-6.6 32.5,-13.6 18.7,-13.6 M10.4,-4.5 C10.3,-4.9 10.3,-5.3 10.3,-5.7 C10.3,-6.5 10.5,-7.3 10.9,-8 C11.6,-9 12.8,-9.7 14.3,-10 C15.6,-10.3 16.3,-10.5 18.9,-10.5 L19,-10.5 C23,-10.5 24.3,-6.8 25.4,-3 L25.7,-2 C26.5,0.6 26.9,2.8 26.9,4.5 C26.9,5.7 26.7,6.8 26.3,7.6 C25.7,8.7 24.7,9.4 23,9.8 C22.1,10 20.6,10.1 20.6,10.1 C20.1,10.1 19.7,10.2 19.3,10.2 C16.1,10.2 14.1,9 12.7,4.7 C11.5,1 11.3,-0.1 10.4,-4.5"/>
<path class="Note" transform="matrix(2.3811,0,0,2.3811,1122.16,1451.34)" d="M18.7,-13.6 C4.9,-13.6 0,-6.6 0,-0.1 C0,6.4 4.9,13.4 18.7,13.4 C32.5,13.4 37.3,6.4 37.3,-0.1 C37.3,-6.6 32.5,-13.6 18.7,-13.6 M10.4,-4.5 C10.3,-4.9 10.3,-5.3 10.3,-5.7 C10.3,-6.5 10.5,-7.3 10.9,-8 C11.6,-9 12.8,-9.7 14.3,-10 C15.6,-10.3 16.3,-10.5 18.9,-10.5 L19,-10.5 C23,-10.5 24.3,-6.8 25.4,-3 L25.7,-2 C26.5,0.6 26.9,2.8 26.9,4.5 C26.9,5.7 26.7,6.8 26.3,7.6 C25.7,8.7 24.7,9.4 23,9.8 C22.1,10 20.6,10.1 20.6,10.1 C20.1,10.1 19.7,10.2 19.3,10.2 C16.1,10.2 14.1,9 12.7,4.7 C11.5,1 11.3,-0.1 10.4,-4.5"/>
<path class="Note" transform="matrix(2.3811,0,0,2.3811,1204.42,1421.57)" d="M18.7,-13.6 C4.9,-13.6 0,-6.6 0,-0.1 C0,6.4 4.9,13.4 18.7,13.4 C32.5,13.4 37.3,6.4 37.3,-0.1 C37.3,-6.6 32.5,-13.6 18.7,-13.6 M10.4,-4.5 C10.3,-4.9 10.3,-5.3 10.3,-5.7 C10.3,-6.5 10.5,-7.3 10.9,-8 C11.6,-9 12.8,-9.7 14.3,-10 C15.6,-10.3 16.3,-10.5 18.9,-10.5 L19,-10.5 C23,-10.5 24.3,-6.8 25.4,-3 L25.7,-2 C26.5,0.6 26.9,2.8 26.9,4.5 C26.9,5.7 26.7,6.8 26.3,7.6 C25.7,8.7 24.7,9.4 23,9.8 C22.1,10 20.6,10.1 20.6,10.1 C20.1,10.1 19.7,10.2 19.3,10.2 C16.1,10.2 14.1,9 12.7,4.7 C11.5,1 11.3,-0.1 10.4,-4.5"/>
<path class="Note" transform="matrix(2.3811,0,0,2.3811,1764.87,1540.63)" d="M18.7,-13.6 C4.9,-13.6 0,-6.6 0,-0.1 C0,6.4 4.9,13.4 18.7,13.4 C32.5,13.4 37.3,6.4 37.3,-0.1 C37.3,-6.6 32.5,-13.6 18.7,-13.6 M10.4,-4.5 C10.3,-4.9 10.3,-5.3 10.3,-5.7 C10.3,-6.5 10.5,-7.3 10.9,-8 C11.6,-9 12.8,-9.7 14.3,-10 C15.6,-10.3 16.3,-10.5 18.9,-10.5 L19,-10.5 C23,-10.5 24.3,-6.8 25.4,-3 L25.7,-2 C26.5,0.6 26.9,2.8 26.9,4.5 C26.9,5.7 26.7,6.8 26.3,7.6 C25.7,8.7 24.7,9.4 23,9.8 C22.1,10 20.6,10.1 20.6,10.1 C20.1,10.1 19.7,10.2 19.3,10.2 C16.1,10.2 14.1,9 12.7,4.7 C11.5,1 11.3,-0.1 10.4,-4.5"/>
<path class="Note" transform="matrix(2.3811,0,0,2.3811,1764.87,1481.1)" d="M18.7,-13.6 C4.9,-13.6 0,-6.6 0,-0.1 C0,6.4 4.9,13.4 18.7,13.4 C32.5,13.4 37.3,6.4 37.3,-0.1 C37.3,-6.6 32.5,-13.6 18.7,-13.6 M10.4,-4.5 C10.3,-4.9 10.3,-5.3 10.3,-5.7 C10.3,-6.5 10.5,-7.3 10.9,-8 C11.6,-9 12.8,-9.7 14.3,-10 C15.6,-10.3 16.3,-10.5 18.9,-10.5 L19,-10.5 C23,-10.5 24.3,-6.8 25.4,-3 L25.7,-2 C26.5,0.6 26.9,2.8 26.9,4.5 C26.9,5.7 26.7,6.8 26.3,7.6 C25.7,8.7 24.7,9.4 23,9.8 C22.1,10 20.6,10.1 20.6,10.1 C20.1,10.1 19.7,10.2 19.3,10.2 C16.1,10.2 14.1,9 12.7,4.7 C11.5,1 11.3,-0.1 10.4,-4.5"/>
<path class="Note" transform="matrix(2.3811,0,0,2.3811,1764.87,1421.57)" d="M18.7,-13.6 C4.9,-13.6 0,-6.6 0,-0.1 C0,6.4 4.9,13.4 18.7,13.4 C32.5,13.4 37.3,6.4 37.3,-0.1 C37.3,-6.6 32.5,-13.6 18.7,-13.6 M10.4,-4.5 C10.3,-4.9 10.3,-5.3 10.3,-5.7 C10.3,-6.5 10.5,-7.3 10.9,-8 C11.6,-9 12.8,-9.7 14.3,-10 C15.6,-10.3 16.3,-10.5 18.9,-10.5 L19,-10.5 C23,-10.5 24.3,-6.8 25.4,-3 L25.7,-2 C26.5,0.6 26.9,2.8 26.9,4.5 C26.9,5.7 26.7,6.8 26.3,7.6 C25.7,8.7 24.7,9.4 23,9.8 C22.1,10 20.6,10.1 20.6,10.1 C20.1,10.1 19.7,10.2 19.3,10.2 C16.1,10.2 14.1,9 12.7,4.7 C11.5,1 11.3,-0.1 10.4,-4.5"/>
<path class="Note" transform="matrix(2.3811,0,0,2.3811,2358.07,1540.63)" d="M18.7,-13.6 C4.9,-13.6 0,-6.6 0,-0.1 C0,6.4 4.9,13.4 18.7,13.4 C32.5,13.4 37.3,6.4 37.3,-0.1 C37.3,-6.6 32.5,-13.6 18.7,-13.6 M10.4,-4.5 C10.3,-4.9 10.3,-5.3 10.3,-5.7 C10.3,-6.5 10.5,-7.3 10.9,-8 C11.6,-9 12.8,-9.7 14.3,-10 C15.6,-10.3 16.3,-10.5 18.9,-10.5 L19,-10.5 C23,-10.5 24.3,-6.8 25.4,-3 L25.7,-2 C26.5,0.6 26.9,2.8 26.9,4.5 C26.9,5.7 26.7,6.8 26.3,7.6 C25.7,8.7 24.7,9.4 23,9.8 C22.1,10 20.6,10.1 20.6,10.1 C20.1,10.1 19.7,10.2 19.3,10.2 C16.1,10.2 14.1,9 12.7,4.7 C11.5,1 11.3,-0.1 10.4,-4.5"/>
<path class="Note" transform="matrix(2.3811,0,0,2.3811,2358.07,1451.34)" d="M18.7,-13.6 C4.9,-13.6 0,-6.6 0,-0.1 C0,6.4 4.9,13.4 18.7,13.4 C32.5,13.4 37.3,6.4 37.3,-0.1 C37.3,-6.6 32.5,-13.6 18.7,-13.6 M10.4,-4.5 C10.3,-4.9 10.3,-5.3 10.3,-5.7 C10.3,-6.5 10.5,-7.3 10.9,-8 C11.6,-9 12.8,-9.7 14.3,-10 C15.6,-10.3 16.3,-10.5 18.9,-10.5 L19,-10.5 C23,-10.5 24.3,-6.8 25.4,-3 L25.7,-2 C26.5,0.6 26.9,2.8 26.9,4.5 C26.9,5.7 26.7,6.8 26.3,7.6 C25.7,8.7 24.7,9.4 23,9.8 C22.1,10 20.6,10.1 20.6,10.1 C20.1,10.1 19.7,10.2 19.3,10.2 C16.1,10.2 14.1,9 12.7,4.7 C11.5,1 11.3,-0.1 10.4,-4.5"/>
<path class="Note" transform="matrix(2.3811,0,0,2.3811,2358.07,1391.81)" d="M18.7,-13.6 C4.9,-13.6 0,-6.6 0,-0.1 C0,6.4 4.9,13.4 18.7,13.4 C32.5,13.4 37.3,6.4 37.3,-0.1 C37.3,-6.6 32.5,-13.6 18.7,-13.6 M10.4,-4.5 C10.3,-4.9 10.3,-5.3 10.3,-5.7 C10.3,-6.5 10.5,-7.3 10.9,-8 C11.6,-9 12.8,-9.7 14.3,-10 C15.6,-10.3 16.3,-10.5 18.9,-10.5 L19,-10.5 C23,-10.5 24.3,-6.8 25.4,-3 L25.7,-2 C26.5,0.6 26.9,2.8 26.9,4.5 C26.9,5.7 26.7,6.8 26.3,7.6 C25.7,8.7 24.7,9.4 23,9.8 C22.1,10 20.6,10.1 20.6,10.1 C20.1,10.1 19.7,10.2 19.3,10.2 C16.1,10.2 14.1,9 12.7,4.7 C11.5,1 11.3,-0.1 10.4,-4.5"/>
<path class="Note" transform="matrix(2.3811,0,0,2.3811,3068.04,1570.39)" d="M18.7,-13.6 C4.9,-13.6 0,-6.6 0,-0.1 C0,6.4 4.9,13.4 18.7,13.4 C32.5,13.4 37.3,6.4 37.3,-0.1 C37.3,-6.6 32.5,-13.6 18.7,-13.6 M10.4,-4.5 C10.3,-4.9 10.3,-5.3 10.3,-5.7 C10.3,-6.5 10.5,-7.3 10.9,-8 C11.6,-9 12.8,-9.7 14.3,-10 C15.6,-10.3 16.3,-10.5 18.9,-10.5 L19,-10.5 C23,-10.5 24.3,-6.8 25.4,-3 L25.7,-2 C26.5,0.6 26.9,2.8 26.9,4.5 C26.9,5.7 26.7,6.8 26.3,7.6 C25.7,8.7 24.7,9.4 23,9.8 C22.1,10 20.6,10.1 20.6,10.1 C20.1,10.1 19.7,10.2 19.3,10.2 C16.1,10.2 14.1,9 12.7,4.7 C11.5,1 11.3,-0.1 10.4,-4.5"/>
<path class="Note" transform="matrix(2.3811,0,0,2.3811,2985.78,1451.34)" d="M18.7,-13.6 C4.9,-13.6 0,-6.6 0,-0.1 C0,6.4 4.9,13.4 18.7,13.4 C32.5,13.4 37.3,6.4 37.3,-0.1 C37.3,-6.6 32.5,-13.6 18.7,-13.6 M10.4,-4.5 C10.3,-4.9 10.3,-5.3 10.3,-5.7 C10.3,-6.5 10.5,-7.3 10.9,-8 C11.6,-9 12.8,-9.7 14.3,-10 C15.6,-10.3 16.3,-10.5 18.9,-10.5 L19,-10.5 C23,-10.5 24.3,-6.8 25.4,-3 L25.7,-2 C26.5,0.6 26.9,2.8 26.9,4.5 C26.9,5.7 26.7,6.8 26.3,7.6 C25.7,8.7 24.7,9.4 23,9.8 C22.1,10 20.6,10.1 20.6,10.1 C20.1,10.1 19.7,10.2 19.3,10.2 C16.1,10.2 14.1,9 12.7,4.7 C11.5,1 11.3,-0.1 10.4,-4.5"/>
<path class="Note" transform="matrix(2.3811,0,0,2.3811,3068.04,1421.57)" d="M18.7,-13.6 C4.9,-13.6 0,-6.6 0,-0.1 C0,6.4 4.9,13.4 18.7,13.4 C32.5,13.4 37.3,6.4 37.3,-0.1 C37.3,-6.6 32.5,-13.6 18.7,-13.6 M10.4,-4.5 C10.3,-4.9 10.3,-5.3 10.3,-5.7 C10.3,-6.5 10.5,-7.3 10.9,-8 C11.6,-9 12.8,-9.7 14.3,-10 C15.6,-10.3 16.3,-10.5 18.9,-10.5 L19,-10.5 C23,-10.5 24.3,-6.8 25.4,-3 L25.7,-2 C26.5,0.6 26.9,2.8 26.9,4.5 C26.9,5.7 26.7,6.8 26.3,7.6 C25.7,8.7 24.7,9.4 23,9.8 C22.1,10 20.6,10.1 20.6,10.1 C20.1,10.1 19.7,10.2 19.3,10.2 C16.1,10.2 14.1,9 12.7,4.7 C11.5,1 11.3,-0.1 10.4,-4.5"/>
<path class="Note" transform="matrix(2.3811,0,0,2.3811,3628.49,1540.63)" d="M18.7,-13.6 C4.9,-13.6 0,-6.6 0,-0.1 C0,6.4 4.9,13.4 18.7,13.4 C32.5,13.4 37.3,6.4 37.3,-0.1 C37.3,-6.6 32.5,-13.6 18.7,-13.6 M10.4,-4.5 C10.3,-4.9 10.3,-5.3 10.3,-5.7 C10.3,-6.5 10.5,-7.3 10.9,-8 C11.6,-9 12.8,-9.7 14.3,-10 C15.6,-10.3 16.3,-10.5 18.9,-10.5 L19,-10.5 C23,-10.5 24.3,-6.8 25.4,-3 L25.7,-2 C26.5,0.6 26.9,2.8 26.9,4.5 C26.9,5.7 26.7,6.8 26.3,7.6 C25.7,8.7 24.7,9.4 23,9.8 C22.1,10 20.6,10.1 20.6,10.1 C20.1,10.1 19.7,10.2 19.3,10.2 C16.1,10.2 14.1,9 12.7,4.7 C11.5,1 11.3,-0.1 10.4,-4.5"/>
<path class="Note" transform="matrix(2.3811,0,0,2.3811,3628.49,1481.1)" d="M18.7,-13.6 C4.9,-13.6 0,-6.6 0,-0.1 C0,6.4 4.9,13.4 18.7,13.4 C32.5,13.4 37.3,6.4 37.3,-0.1 C37.3,-6.6 32.5,-13.6 18.7,-13.6 M10.4,-4.5 C10.3,-4.9 10.3,-5.3 10.3,-5.7 C10.3,-6.5 10.5,-7.3 10.9,-8 C11.6,-9 12.8,-9.7 14.3,-10 C15.6,-10.3 16.3,-10.5 18.9,-10.5 L19,-10.5 C23,-10.5 24.3,-6.8 25.4,-3 L25.7,-2 C26.5,0.6 26.9,2.8 26.9,4.5 C26.9,5.7 26.7,6.8 26.3,7.6 C25.7,8.7 24.7,9.4 23,9.8 C22.1,10 20.6,10.1 20.6,10.1 C20.1,10.1 19.7,10.2 19.3,10.2 C16.1,10.2 14.1,9 12.7,4.7 C11.5,1 11.3,-0.1 10.4,-4.5"/>
<path class="Note" transform="matrix(2.3811,0,0,2.3811,3628.49,1421.57)" d="M18.7,-13.6 C4.9,-13.6 0,-6.6 0,-0.1 C0,6.4 4.9,13.4 18.7,13.4 C32.5,13.4 37.3,6.4 37.3,-0.1 C37.3,-6.6 32.5,-13.6 18.7,-13.6 M10.4,-4.5 C10.3,-4.9 10.3,-5.3 10.3,-5.7 C10.3,-6.5 10.5,-7.3 10.9,-8 C11.6,-9 12.8,-9.7 14.3,-10 C15.6,-10.3 16.3,-10.5 18.9,-10.5 L19,-10.5 C23,-10.5 24.3,-6.8 25.4,-3 L25.7,-2 C26.5,0.6 26.9,2.8 26.9,4.5 C26.9,5.7 26.7,6.8 26.3,7.6 C25.7,8.7 24.7,9.4 23,9.8 C22.1,10 20.6,10.1 20.6,10.1 C20.1,10.1 19.7,10.2 19.3,10.2 C16.1,10.2 14.1,9 12.7,4.7 C11.5,1 11.3,-0.1 10.4,-4.5"/>
<path class="Note" d="M612.77,561.187 C617.109,558.243 620.247,555.803 622.183,553.866 C625.747,550.07 627.529,546.583 627.529,543.407 C627.529,539.766 625.515,537.945 621.486,537.945 C613.661,537.945 605.294,544.84 596.385,558.631 C593.673,562.814 587.708,576.45 578.488,599.537 C585.848,607.129 589.528,611.429 589.528,612.436 C589.528,613.831 588.637,614.528 586.855,614.528 C585.461,614.528 581.626,612.165 575.35,607.439 C568.533,623.321 558.19,636.879 544.322,648.113 C530.144,659.579 513.216,665.312 493.538,665.312 C486.023,665.312 476.61,663.569 465.299,660.083 C456.234,657.294 451.702,652.839 451.702,646.719 C451.702,637.654 455.188,633.122 462.161,633.122 C466.345,633.122 468.436,635.059 468.436,638.932 C468.436,640.172 467.468,641.489 465.531,642.884 C464.524,643.581 464.02,644.937 464.02,646.951 C464.02,649.353 466.693,651.832 472.039,654.388 C477.85,657.178 486.372,658.572 497.605,658.572 C512.093,658.572 526.077,652.297 539.558,639.746 C551.798,628.357 560.592,615.109 565.937,600.002 C563.846,598.297 561.599,596.438 559.197,594.424 C551.76,590.008 548.041,585.475 548.041,580.827 C548.041,578.89 549.319,577.922 551.876,577.922 C555.285,577.922 559.894,580.827 565.705,586.638 C566.945,587.877 568.107,589.039 569.191,590.124 C571.903,582.686 576.241,573.235 582.207,561.768 C592.976,541.005 606.069,530.624 621.486,530.624 C626.987,530.624 631.325,531.67 634.502,533.762 C637.678,535.853 639.267,538.72 639.267,542.361 C639.267,548.172 637.136,553.091 632.875,557.12 C628.459,561.304 623.849,563.395 619.046,563.395 C614.862,563.395 612.77,562.659 612.77,561.187"/>
<path class="Note" d="M633.688,794.854 C627.336,804.848 617.303,813.138 603.59,819.723 C591.659,825.456 580.503,828.323 570.121,828.323 C561.831,828.323 554.936,826.657 549.435,823.326 C543.47,819.684 540.487,815.346 540.487,810.31 C540.487,798.921 543.47,789.121 549.435,780.909 C557.57,769.752 565.782,764.174 574.072,764.174 C579.96,764.174 584.144,765.336 586.623,767.661 C590.032,770.682 591.736,774.827 591.736,780.095 C591.736,787.533 586.197,794.002 575.118,799.502 C564.349,804.848 556.873,808.334 552.689,809.961 C553.619,811.898 554.82,813.641 556.292,815.191 C559.933,819.065 564.892,821.001 571.167,821.001 C579.069,821.001 589.683,818.096 603.009,812.286 C615.792,806.63 626.018,800.819 633.688,794.854 M551.062,804.616 C556.873,801.672 562.18,798.224 566.983,794.273 C574.111,788.462 577.675,782.187 577.675,775.447 C577.675,771.651 575.932,769.752 572.445,769.752 C569.501,769.752 565.473,773.123 560.359,779.863 C553.929,788.23 550.714,795.048 550.714,800.316 C550.714,801.788 550.83,803.221 551.062,804.616"/>
<path class="Note" d="M612.77,471.896 C617.109,468.952 620.247,466.512 622.183,464.575 C625.747,460.778 627.529,457.292 627.529,454.116 C627.529,450.474 625.515,448.654 621.486,448.654 C613.661,448.654 605.294,455.549 596.385,469.339 C593.673,473.523 587.708,487.158 578.488,510.246 C585.848,517.838 589.528,522.138 589.528,523.145 C589.528,524.54 588.637,525.237 586.855,525.237 C585.461,525.237 581.626,522.874 575.35,518.148 C568.533,534.03 558.19,547.588 544.322,558.822 C530.144,570.288 513.216,576.021 493.538,576.021 C486.023,576.021 476.61,574.278 465.299,570.791 C456.234,568.002 451.702,563.548 451.702,557.427 C451.702,548.363 455.188,543.831 462.161,543.831 C466.345,543.831 468.436,545.767 468.436,549.641 C468.436,550.881 467.468,552.198 465.531,553.592 C464.524,554.29 464.02,555.645 464.02,557.66 C464.02,560.061 466.693,562.541 472.039,565.097 C477.85,567.886 486.372,569.281 497.605,569.281 C512.093,569.281 526.077,563.005 539.558,550.455 C551.798,539.066 560.592,525.818 565.937,510.71 C563.846,509.006 561.599,507.147 559.197,505.132 C551.76,500.716 548.041,496.184 548.041,491.536 C548.041,489.599 549.319,488.63 551.876,488.63 C555.285,488.63 559.894,491.536 565.705,497.346 C566.945,498.586 568.107,499.748 569.191,500.832 C571.903,493.395 576.241,483.943 582.207,472.477 C592.976,451.714 606.069,441.332 621.486,441.332 C626.987,441.332 631.325,442.378 634.502,444.47 C637.678,446.562 639.267,449.429 639.267,453.07 C639.267,458.88 637.136,463.8 632.875,467.829 C628.459,472.012 623.849,474.104 619.046,474.104 C614.862,474.104 612.77,473.368 612.77,471.896"/>
<path class="Note" d="M611.957,674.069 C611.957,682.979 601.808,702.541 581.51,732.756 C573.452,744.764 561.87,753.558 546.763,759.136 C535.606,763.319 522.707,765.411 508.064,765.411 C503.338,765.411 499.155,764.443 495.514,762.506 C491.485,760.414 489.471,758.129 489.471,755.65 C489.471,749.219 492.918,746.004 499.813,746.004 C500.821,746.004 501.324,746.624 501.324,747.863 C501.324,748.948 500.821,750.149 499.813,751.466 C498.574,753.093 497.954,754.294 497.954,755.068 C497.954,757.393 501.44,758.555 508.413,758.555 C524.063,758.555 536.42,756.657 545.484,752.86 C554.936,748.987 564.349,739.109 573.724,723.227 L576.396,718.23 C571.903,721.638 567.448,723.343 563.032,723.343 C552.031,723.343 546.53,718.888 546.53,709.979 C546.53,700.372 552.999,690.262 565.937,679.648 C576.086,671.435 585.112,667.329 593.015,667.329 C596.966,667.329 600.258,668.375 602.892,670.467 C603.822,669.77 604.984,669.421 606.379,669.421 C610.098,669.421 611.957,670.971 611.957,674.069 M577.791,715.789 L599.755,675.232 C598.05,674.844 596.152,674.651 594.06,674.651 C586.545,674.651 579.263,679.028 572.213,687.782 C564.001,698.009 559.894,706.182 559.894,712.303 C559.894,716.332 562.567,718.346 567.913,718.346 C570.47,718.346 573.762,717.494 577.791,715.789"/>
<path class="Note" d="M1319.03,616.271 C1312.68,626.265 1302.64,634.555 1288.93,641.14 C1277,646.874 1265.84,649.74 1255.46,649.74 C1247.17,649.74 1240.28,648.074 1234.78,644.743 C1228.81,641.102 1225.83,636.763 1225.83,631.727 C1225.83,620.339 1228.81,610.538 1234.78,602.326 C1242.91,591.17 1251.12,585.592 1259.41,585.592 C1265.3,585.592 1269.48,586.754 1271.96,589.078 C1275.37,592.099 1277.08,596.244 1277.08,601.513 C1277.08,608.95 1271.54,615.419 1260.46,620.92 C1249.69,626.265 1242.21,629.752 1238.03,631.379 C1238.96,633.316 1240.16,635.059 1241.63,636.608 C1245.27,640.482 1250.23,642.419 1256.51,642.419 C1264.41,642.419 1275.02,639.513 1288.35,633.703 C1301.13,628.047 1311.36,622.237 1319.03,616.271 M1236.4,626.033 C1242.21,623.089 1247.52,619.641 1252.32,615.69 C1259.45,609.88 1263.02,603.604 1263.02,596.864 C1263.02,593.068 1261.27,591.17 1257.79,591.17 C1254.84,591.17 1250.81,594.54 1245.7,601.28 C1239.27,609.647 1236.05,616.465 1236.05,621.733 C1236.05,623.205 1236.17,624.638 1236.4,626.033"/>
<path class="Note" d="M1319.03,794.854 C1312.68,804.848 1302.64,813.138 1288.93,819.723 C1277,825.456 1265.84,828.323 1255.46,828.323 C1247.17,828.323 1240.28,826.657 1234.78,823.326 C1228.81,819.684 1225.83,815.346 1225.83,810.31 C1225.83,798.921 1228.81,789.121 1234.78,780.909 C1242.91,769.752 1251.12,764.174 1259.41,764.174 C1265.3,764.174 1269.48,765.336 1271.96,767.661 C1275.37,770.682 1277.08,774.827 1277.08,780.095 C1277.08,787.533 1271.54,794.002 1260.46,799.502 C1249.69,804.848 1242.21,808.334 1238.03,809.961 C1238.96,811.898 1240.16,813.641 1241.63,815.191 C1245.27,819.065 1250.23,821.001 1256.51,821.001 C1264.41,821.001 1275.02,818.096 1288.35,812.286 C1301.13,806.63 1311.36,800.819 1319.03,794.854 M1236.4,804.616 C1242.21,801.672 1247.52,798.224 1252.32,794.273 C1259.45,788.462 1263.02,782.187 1263.02,775.447 C1263.02,771.651 1261.27,769.752 1257.79,769.752 C1254.84,769.752 1250.81,773.123 1245.7,779.863 C1239.27,788.23 1236.05,795.048 1236.05,800.316 C1236.05,801.788 1236.17,803.221 1236.4,804.616"/>
<path class="Note" d="M1298.11,471.896 C1302.45,468.952 1305.59,466.512 1307.52,464.575 C1311.09,460.778 1312.87,457.292 1312.87,454.116 C1312.87,450.474 1310.86,448.654 1306.83,448.654 C1299,448.654 1290.64,455.549 1281.73,469.339 C1279.01,473.523 1273.05,487.158 1263.83,510.246 C1271.19,517.838 1274.87,522.138 1274.87,523.145 C1274.87,524.54 1273.98,525.237 1272.2,525.237 C1270.8,525.237 1266.97,522.874 1260.69,518.148 C1253.87,534.03 1243.53,547.588 1229.66,558.822 C1215.49,570.288 1198.56,576.021 1178.88,576.021 C1171.36,576.021 1161.95,574.278 1150.64,570.791 C1141.58,568.002 1137.04,563.548 1137.04,557.427 C1137.04,548.363 1140.53,543.831 1147.5,543.831 C1151.69,543.831 1153.78,545.767 1153.78,549.641 C1153.78,550.881 1152.81,552.198 1150.87,553.592 C1149.86,554.29 1149.36,555.645 1149.36,557.66 C1149.36,560.061 1152.03,562.541 1157.38,565.097 C1163.19,567.886 1171.71,569.281 1182.95,569.281 C1197.43,569.281 1211.42,563.005 1224.9,550.455 C1237.14,539.066 1245.93,525.818 1251.28,510.71 C1249.19,509.006 1246.94,507.147 1244.54,505.132 C1237.1,500.716 1233.38,496.184 1233.38,491.536 C1233.38,489.599 1234.66,488.63 1237.22,488.63 C1240.63,488.63 1245.24,491.536 1251.05,497.346 C1252.29,498.586 1253.45,499.748 1254.53,500.832 C1257.24,493.395 1261.58,483.943 1267.55,472.477 C1278.32,451.714 1291.41,441.332 1306.83,441.332 C1312.33,441.332 1316.67,442.378 1319.84,444.47 C1323.02,446.562 1324.61,449.429 1324.61,453.07 C1324.61,458.88 1322.48,463.8 1318.22,467.829 C1313.8,472.012 1309.19,474.104 1304.39,474.104 C1300.2,474.104 1298.11,473.368 1298.11,471.896"/>
<path class="Note" d="M1298.11,650.479 C1302.45,647.535 1305.59,645.094 1307.52,643.157 C1311.09,639.361 1312.87,635.875 1312.87,632.698 C1312.87,629.057 1310.86,627.236 1306.83,627.236 C1299,627.236 1290.64,634.132 1281.73,647.922 C1279.01,652.106 1273.05,665.741 1263.83,688.828 C1271.19,696.421 1274.87,700.721 1274.87,701.728 C1274.87,703.122 1273.98,703.819 1272.2,703.819 C1270.8,703.819 1266.97,701.457 1260.69,696.731 C1253.87,712.613 1243.53,726.171 1229.66,737.404 C1215.49,748.871 1198.56,754.604 1178.88,754.604 C1171.36,754.604 1161.95,752.86 1150.64,749.374 C1141.58,746.585 1137.04,742.13 1137.04,736.01 C1137.04,726.945 1140.53,722.413 1147.5,722.413 C1151.69,722.413 1153.78,724.35 1153.78,728.224 C1153.78,729.463 1152.81,730.78 1150.87,732.175 C1149.86,732.872 1149.36,734.228 1149.36,736.242 C1149.36,738.644 1152.03,741.123 1157.38,743.68 C1163.19,746.469 1171.71,747.863 1182.95,747.863 C1197.43,747.863 1211.42,741.588 1224.9,729.037 C1237.14,717.649 1245.93,704.401 1251.28,689.293 C1249.19,687.589 1246.94,685.729 1244.54,683.715 C1237.1,679.299 1233.38,674.767 1233.38,670.118 C1233.38,668.181 1234.66,667.213 1237.22,667.213 C1240.63,667.213 1245.24,670.118 1251.05,675.929 C1252.29,677.168 1253.45,678.331 1254.53,679.415 C1257.24,671.978 1261.58,662.526 1267.55,651.06 C1278.32,630.297 1291.41,619.915 1306.83,619.915 C1312.33,619.915 1316.67,620.961 1319.84,623.053 C1323.02,625.145 1324.61,628.011 1324.61,631.652 C1324.61,637.463 1322.48,642.383 1318.22,646.411 C1313.8,650.595 1309.19,652.687 1304.39,652.687 C1300.2,652.687 1298.11,651.951 1298.11,650.479"/>
<path class="Note" d="M1858.57,561.187 C1862.9,558.243 1866.04,555.803 1867.98,553.866 C1871.54,550.07 1873.32,546.583 1873.32,543.407 C1873.32,539.766 1871.31,537.945 1867.28,537.945 C1859.46,537.945 1851.09,544.84 1842.18,558.631 C1839.47,562.814 1833.5,576.45 1824.28,599.537 C1831.64,607.129 1835.32,611.429 1835.32,612.436 C1835.32,613.831 1834.43,614.528 1832.65,614.528 C1831.26,614.528 1827.42,612.165 1821.15,607.439 C1814.33,623.321 1803.99,636.879 1790.12,648.113 C1775.94,659.579 1759.01,665.312 1739.33,665.312 C1731.82,665.312 1722.4,663.569 1711.09,660.083 C1702.03,657.294 1697.5,652.839 1697.5,646.719 C1697.5,637.654 1700.98,633.122 1707.96,633.122 C1712.14,633.122 1714.23,635.059 1714.23,638.932 C1714.23,640.172 1713.26,641.489 1711.33,642.884 C1710.32,643.581 1709.82,644.937 1709.82,646.951 C1709.82,649.353 1712.49,651.832 1717.83,654.388 C1723.64,657.178 1732.17,658.572 1743.4,658.572 C1757.89,658.572 1771.87,652.297 1785.35,639.746 C1797.59,628.357 1806.39,615.109 1811.73,600.002 C1809.64,598.297 1807.39,596.438 1804.99,594.424 C1797.55,590.008 1793.84,585.475 1793.84,580.827 C1793.84,578.89 1795.11,577.922 1797.67,577.922 C1801.08,577.922 1805.69,580.827 1811.5,586.638 C1812.74,587.877 1813.9,589.039 1814.99,590.124 C1817.7,582.686 1822.04,573.235 1828,561.768 C1838.77,541.005 1851.86,530.624 1867.28,530.624 C1872.78,530.624 1877.12,531.67 1880.3,533.762 C1883.47,535.853 1885.06,538.72 1885.06,542.361 C1885.06,548.172 1882.93,553.091 1878.67,557.12 C1874.25,561.304 1869.64,563.395 1864.84,563.395 C1860.66,563.395 1858.57,562.659 1858.57,561.187"/>
<path class="Note" d="M1785.93,910.409 C1781.75,910.409 1779.66,908.511 1779.66,904.715 C1779.66,898.284 1780.63,893.558 1782.56,890.537 C1790.62,878.606 1808.13,856.293 1835.09,823.599 C1847.25,808.802 1862.94,801.403 1882.16,801.403 C1889.59,801.403 1894.75,802.449 1897.61,804.541 C1902.03,807.795 1904.24,811.707 1904.24,816.278 C1904.24,821.082 1900.36,826.427 1892.62,832.315 C1885.26,837.893 1878.28,840.682 1871.7,840.682 C1869.14,840.682 1867.86,840.411 1867.86,839.869 C1867.86,839.094 1869.1,838.281 1871.58,837.429 C1874.91,836.189 1878.48,833.671 1882.27,829.875 C1886.61,825.459 1888.78,821.469 1888.78,817.905 C1888.78,815.503 1887.11,813.218 1883.78,811.049 C1880.84,809.189 1876.07,808.26 1869.49,808.26 C1859.88,808.26 1847.76,817.944 1833.12,837.312 C1823.35,850.25 1815.45,861.639 1809.41,871.478 C1812.35,869.851 1815.88,867.876 1819.98,865.552 C1825.02,862.685 1829.36,861.252 1833,861.252 C1842.06,861.252 1846.6,864.506 1846.6,871.013 C1846.6,877.444 1842.88,884.494 1835.44,892.164 C1830.17,897.587 1827.54,901.616 1827.54,904.25 C1827.54,906.961 1830.17,908.317 1835.44,908.317 C1838.07,908.317 1840.79,907.388 1843.57,905.528 C1846.36,903.746 1848.42,902.855 1849.73,902.855 C1850.82,902.855 1851.36,903.553 1851.36,904.947 C1851.36,907.194 1849.19,909.557 1844.85,912.036 C1837.57,916.22 1831.72,918.311 1827.3,918.311 C1819.48,918.311 1815.57,914.128 1815.57,905.761 C1815.57,900.492 1818.59,894.643 1824.63,888.213 C1829.05,883.487 1831.26,878.8 1831.26,874.151 C1831.26,870.123 1829.09,868.108 1824.75,868.108 C1823.04,868.108 1817.39,870.123 1807.78,874.151 C1804.91,878.955 1802.51,883.371 1800.58,887.399 C1793.22,902.739 1788.34,910.409 1785.93,910.409"/>
<path class="Note" d="M1858.57,739.77 C1862.9,736.826 1866.04,734.386 1867.98,732.449 C1871.54,728.652 1873.32,725.166 1873.32,721.99 C1873.32,718.348 1871.31,716.528 1867.28,716.528 C1859.46,716.528 1851.09,723.423 1842.18,737.213 C1839.47,741.397 1833.5,755.032 1824.28,778.12 C1831.64,785.712 1835.32,790.012 1835.32,791.019 C1835.32,792.414 1834.43,793.111 1832.65,793.111 C1831.26,793.111 1827.42,790.748 1821.15,786.022 C1814.33,801.904 1803.99,815.462 1790.12,826.696 C1775.94,838.162 1759.01,843.895 1739.33,843.895 C1731.82,843.895 1722.4,842.152 1711.09,838.666 C1702.03,835.876 1697.5,831.422 1697.5,825.301 C1697.5,816.237 1700.98,811.705 1707.96,811.705 C1712.14,811.705 1714.23,813.641 1714.23,817.515 C1714.23,818.755 1713.26,820.072 1711.33,821.466 C1710.32,822.164 1709.82,823.519 1709.82,825.534 C1709.82,827.935 1712.49,830.415 1717.83,832.971 C1723.64,835.76 1732.17,837.155 1743.4,837.155 C1757.89,837.155 1771.87,830.879 1785.35,818.329 C1797.59,806.94 1806.39,793.692 1811.73,778.584 C1809.64,776.88 1807.39,775.021 1804.99,773.006 C1797.55,768.59 1793.84,764.058 1793.84,759.41 C1793.84,757.473 1795.11,756.504 1797.67,756.504 C1801.08,756.504 1805.69,759.41 1811.5,765.22 C1812.74,766.46 1813.9,767.622 1814.99,768.707 C1817.7,761.269 1822.04,751.817 1828,740.351 C1838.77,719.588 1851.86,709.207 1867.28,709.207 C1872.78,709.207 1877.12,710.252 1880.3,712.344 C1883.47,714.436 1885.06,717.303 1885.06,720.944 C1885.06,726.754 1882.93,731.674 1878.67,735.703 C1874.25,739.886 1869.64,741.978 1864.84,741.978 C1860.66,741.978 1858.57,741.242 1858.57,739.77"/>
<path class="Note" d="M1858.57,650.479 C1862.9,647.535 1866.04,645.094 1867.98,643.157 C1871.54,639.361 1873.32,635.875 1873.32,632.698 C1873.32,629.057 1871.31,627.236 1867.28,627.236 C1859.46,627.236 1851.09,634.132 1842.18,647.922 C1839.47,652.106 1833.5,665.741 1824.28,688.828 C1831.64,696.421 1835.32,700.721 1835.32,701.728 C1835.32,703.122 1834.43,703.819 1832.65,703.819 C1831.26,703.819 1827.42,701.457 1821.15,696.731 C1814.33,712.613 1803.99,726.171 1790.12,737.404 C1775.94,748.871 1759.01,754.604 1739.33,754.604 C1731.82,754.604 1722.4,752.86 1711.09,749.374 C1702.03,746.585 1697.5,742.13 1697.5,736.01 C1697.5,726.945 1700.98,722.413 1707.96,722.413 C1712.14,722.413 1714.23,724.35 1714.23,728.224 C1714.23,729.463 1713.26,730.78 1711.33,732.175 C1710.32,732.872 1709.82,734.228 1709.82,736.242 C1709.82,738.644 1712.49,741.123 1717.83,743.68 C1723.64,746.469 1732.17,747.863 1743.4,747.863 C1757.89,747.863 1771.87,741.588 1785.35,729.037 C1797.59,717.649 1806.39,704.401 1811.73,689.293 C1809.64,687.589 1807.39,685.729 1804.99,683.715 C1797.55,679.299 1793.84,674.767 1793.84,670.118 C1793.84,668.181 1795.11,667.213 1797.67,667.213 C1801.08,667.213 1805.69,670.118 1811.5,675.929 C1812.74,677.168 1813.9,678.331 1814.99,679.415 C1817.7,671.978 1822.04,662.526 1828,651.06 C1838.77,630.297 1851.86,619.915 1867.28,619.915 C1872.78,619.915 1877.12,620.961 1880.3,623.053 C1883.47,625.145 1885.06,628.011 1885.06,631.652 C1885.06,637.463 1882.93,642.383 1878.67,646.411 C1874.25,650.595 1869.64,652.687 1864.84,652.687 C1860.66,652.687 1858.57,651.951 1858.57,650.479"/>
<path class="Note" d="M2451.76,561.187 C2456.1,558.243 2459.24,555.803 2461.17,553.866 C2464.74,550.07 2466.52,546.583 2466.52,543.407 C2466.52,539.766 2464.5,537.945 2460.48,537.945 C2452.65,537.945 2444.28,544.84 2435.37,558.631 C2432.66,562.814 2426.7,576.45 2417.48,599.537 C2424.84,607.129 2428.52,611.429 2428.52,612.436 C2428.52,613.831 2427.63,614.528 2425.84,614.528 C2424.45,614.528 2420.62,612.165 2414.34,607.439 C2407.52,623.321 2397.18,636.879 2383.31,648.113 C2369.13,659.579 2352.21,665.312 2332.53,665.312 C2325.01,665.312 2315.6,663.569 2304.29,660.083 C2295.22,657.294 2290.69,652.839 2290.69,646.719 C2290.69,637.654 2294.18,633.122 2301.15,633.122 C2305.33,633.122 2307.43,635.059 2307.43,638.932 C2307.43,640.172 2306.46,641.489 2304.52,642.884 C2303.51,643.581 2303.01,644.937 2303.01,646.951 C2303.01,649.353 2305.68,651.832 2311.03,654.388 C2316.84,657.178 2325.36,658.572 2336.59,658.572 C2351.08,658.572 2365.07,652.297 2378.55,639.746 C2390.79,628.357 2399.58,615.109 2404.93,600.002 C2402.83,598.297 2400.59,596.438 2398.19,594.424 C2390.75,590.008 2387.03,585.475 2387.03,580.827 C2387.03,578.89 2388.31,577.922 2390.87,577.922 C2394.27,577.922 2398.88,580.827 2404.69,586.638 C2405.93,587.877 2407.1,589.039 2408.18,590.124 C2410.89,582.686 2415.23,573.235 2421.2,561.768 C2431.97,541.005 2445.06,530.624 2460.48,530.624 C2465.98,530.624 2470.31,531.67 2473.49,533.762 C2476.67,535.853 2478.26,538.72 2478.26,542.361 C2478.26,548.172 2476.13,553.091 2471.86,557.12 C2467.45,561.304 2462.84,563.395 2458.03,563.395 C2453.85,563.395 2451.76,562.659 2451.76,561.187"/>
<path class="Note" d="M2472.68,794.854 C2466.32,804.848 2456.29,813.138 2442.58,819.723 C2430.65,825.456 2419.49,828.323 2409.11,828.323 C2400.82,828.323 2393.93,826.657 2388.42,823.326 C2382.46,819.684 2379.48,815.346 2379.48,810.31 C2379.48,798.921 2382.46,789.121 2388.42,780.909 C2396.56,769.752 2404.77,764.174 2413.06,764.174 C2418.95,764.174 2423.13,765.336 2425.61,767.661 C2429.02,770.682 2430.73,774.827 2430.73,780.095 C2430.73,787.533 2425.19,794.002 2414.11,799.502 C2403.34,804.848 2395.86,808.334 2391.68,809.961 C2392.61,811.898 2393.81,813.641 2395.28,815.191 C2398.92,819.065 2403.88,821.001 2410.16,821.001 C2418.06,821.001 2428.67,818.096 2442,812.286 C2454.78,806.63 2465.01,800.819 2472.68,794.854 M2390.05,804.616 C2395.86,801.672 2401.17,798.224 2405.97,794.273 C2413.1,788.462 2416.66,782.187 2416.66,775.447 C2416.66,771.651 2414.92,769.752 2411.43,769.752 C2408.49,769.752 2404.46,773.123 2399.35,779.863 C2392.92,788.23 2389.7,795.048 2389.7,800.316 C2389.7,801.788 2389.82,803.221 2390.05,804.616"/>
<path class="Note" d="M2451.76,471.896 C2456.1,468.952 2459.24,466.512 2461.17,464.575 C2464.74,460.778 2466.52,457.292 2466.52,454.116 C2466.52,450.474 2464.5,448.654 2460.48,448.654 C2452.65,448.654 2444.28,455.549 2435.37,469.339 C2432.66,473.523 2426.7,487.158 2417.48,510.246 C2424.84,517.838 2428.52,522.138 2428.52,523.145 C2428.52,524.54 2427.63,525.237 2425.84,525.237 C2424.45,525.237 2420.62,522.874 2414.34,518.148 C2407.52,534.03 2397.18,547.588 2383.31,558.822 C2369.13,570.288 2352.21,576.021 2332.53,576.021 C2325.01,576.021 2315.6,574.278 2304.29,570.791 C2295.22,568.002 2290.69,563.548 2290.69,557.427 C2290.69,548.363 2294.18,543.831 2301.15,543.831 C2305.33,543.831 2307.43,545.767 2307.43,549.641 C2307.43,550.881 2306.46,552.198 2304.52,553.592 C2303.51,554.29 2303.01,555.645 2303.01,557.66 C2303.01,560.061 2305.68,562.541 2311.03,565.097 C2316.84,567.886 2325.36,569.281 2336.59,569.281 C2351.08,569.281 2365.07,563.005 2378.55,550.455 C2390.79,539.066 2399.58,525.818 2404.93,510.71 C2402.83,509.006 2400.59,507.147 2398.19,505.132 C2390.75,500.716 2387.03,496.184 2387.03,491.536 C2387.03,489.599 2388.31,488.63 2390.87,488.63 C2394.27,488.63 2398.88,491.536 2404.69,497.346 C2405.93,498.586 2407.1,499.748 2408.18,500.832 C2410.89,493.395 2415.23,483.943 2421.2,472.477 C2431.97,451.714 2445.06,441.332 2460.48,441.332 C2465.98,441.332 2470.31,442.378 2473.49,444.47 C2476.67,446.562 2478.26,449.429 2478.26,453.07 C2478.26,458.88 2476.13,463.8 2471.86,467.829 C2467.45,472.012 2462.84,474.104 2458.03,474.104 C2453.85,474.104 2451.76,473.368 2451.76,471.896"/>
<path class="Note" d="M2450.95,674.069 C2450.95,682.979 2440.8,702.541 2420.5,732.756 C2412.44,744.764 2400.86,753.558 2385.75,759.136 C2374.6,763.319 2361.7,765.411 2347.05,765.411 C2342.33,765.411 2338.14,764.443 2334.5,762.506 C2330.47,760.414 2328.46,758.129 2328.46,755.65 C2328.46,749.219 2331.91,746.004 2338.8,746.004 C2339.81,746.004 2340.31,746.624 2340.31,747.863 C2340.31,748.948 2339.81,750.149 2338.8,751.466 C2337.56,753.093 2336.94,754.294 2336.94,755.068 C2336.94,757.393 2340.43,758.555 2347.4,758.555 C2363.05,758.555 2375.41,756.657 2384.47,752.86 C2393.93,748.987 2403.34,739.109 2412.71,723.227 L2415.39,718.23 C2410.89,721.638 2406.44,723.343 2402.02,723.343 C2391.02,723.343 2385.52,718.888 2385.52,709.979 C2385.52,700.372 2391.99,690.262 2404.93,679.648 C2415.08,671.435 2424.1,667.329 2432,667.329 C2435.95,667.329 2439.25,668.375 2441.88,670.467 C2442.81,669.77 2443.97,669.421 2445.37,669.421 C2449.09,669.421 2450.95,670.971 2450.95,674.069 M2416.78,715.789 L2438.74,675.232 C2437.04,674.844 2435.14,674.651 2433.05,674.651 C2425.53,674.651 2418.25,679.028 2411.2,687.782 C2402.99,698.009 2398.88,706.182 2398.88,712.303 C2398.88,716.332 2401.56,718.346 2406.9,718.346 C2409.46,718.346 2412.75,717.494 2416.78,715.789"/>
<path class="Note" d="M3089.1,999.7 C3084.91,999.7 3082.82,997.802 3082.82,994.006 C3082.82,987.576 3083.79,982.85 3085.73,979.828 C3093.79,967.897 3111.29,945.585 3138.26,912.891 C3150.42,898.093 3166.11,890.694 3185.32,890.694 C3192.76,890.694 3197.91,891.74 3200.78,893.832 C3205.19,897.086 3207.4,900.999 3207.4,905.569 C3207.4,910.373 3203.53,915.719 3195.78,921.607 C3188.42,927.185 3181.45,929.974 3174.86,929.974 C3172.31,929.974 3171.03,929.703 3171.03,929.16 C3171.03,928.386 3172.27,927.572 3174.75,926.72 C3178.08,925.48 3181.64,922.962 3185.44,919.166 C3189.78,914.75 3191.94,910.76 3191.94,907.196 C3191.94,904.795 3190.28,902.509 3186.95,900.34 C3184,898.481 3179.24,897.551 3172.65,897.551 C3163.05,897.551 3150.92,907.235 3136.28,926.604 C3126.52,939.542 3118.62,950.93 3112.57,960.77 C3115.52,959.143 3119.04,957.167 3123.15,954.843 C3128.18,951.976 3132.52,950.543 3136.16,950.543 C3145.23,950.543 3149.76,953.797 3149.76,960.305 C3149.76,966.735 3146.04,973.785 3138.6,981.455 C3133.34,986.878 3130.7,990.907 3130.7,993.541 C3130.7,996.253 3133.34,997.609 3138.6,997.609 C3141.24,997.609 3143.95,996.679 3146.74,994.819 C3149.53,993.038 3151.58,992.147 3152.9,992.147 C3153.98,992.147 3154.53,992.844 3154.53,994.238 C3154.53,996.485 3152.36,998.848 3148.02,1001.33 C3140.73,1005.51 3134.89,1007.6 3130.47,1007.6 C3122.64,1007.6 3118.73,1003.42 3118.73,995.052 C3118.73,989.784 3121.75,983.934 3127.8,977.504 C3132.21,972.778 3134.42,968.091 3134.42,963.443 C3134.42,959.414 3132.25,957.4 3127.91,957.4 C3126.21,957.4 3120.55,959.414 3110.95,963.443 C3108.08,968.246 3105.68,972.662 3103.74,976.691 C3096.38,992.03 3091.5,999.7 3089.1,999.7"/>
<path class="Note" d="M3160.92,852.652 C3160.92,861.562 3150.77,881.124 3130.47,911.339 C3122.41,923.347 3110.83,932.14 3095.72,937.719 C3084.57,941.902 3071.67,943.994 3057.02,943.994 C3052.3,943.994 3048.11,943.026 3044.47,941.089 C3040.44,938.997 3038.43,936.711 3038.43,934.232 C3038.43,927.802 3041.88,924.587 3048.77,924.587 C3049.78,924.587 3050.28,925.207 3050.28,926.446 C3050.28,927.531 3049.78,928.732 3048.77,930.049 C3047.53,931.676 3046.91,932.876 3046.91,933.651 C3046.91,935.975 3050.4,937.138 3057.37,937.138 C3073.02,937.138 3085.38,935.239 3094.44,931.443 C3103.9,927.569 3113.31,917.692 3122.68,901.809 L3125.36,896.812 C3120.86,900.221 3116.41,901.926 3111.99,901.926 C3100.99,901.926 3095.49,897.471 3095.49,888.561 C3095.49,878.955 3101.96,868.844 3114.9,858.23 C3125.05,850.018 3134.07,845.912 3141.97,845.912 C3145.93,845.912 3149.22,846.958 3151.85,849.05 C3152.78,848.352 3153.94,848.004 3155.34,848.004 C3159.06,848.004 3160.92,849.553 3160.92,852.652 M3126.75,894.372 L3148.71,853.814 C3147.01,853.427 3145.11,853.233 3143.02,853.233 C3135.51,853.233 3128.22,857.61 3121.17,866.365 C3112.96,876.592 3108.85,884.765 3108.85,890.886 C3108.85,894.914 3111.53,896.929 3116.87,896.929 C3119.43,896.929 3122.72,896.076 3126.75,894.372"/>
<path class="Note" d="M3089.1,821.118 C3084.91,821.118 3082.82,819.22 3082.82,815.423 C3082.82,808.993 3083.79,804.267 3085.73,801.246 C3093.79,789.315 3111.29,767.002 3138.26,734.308 C3150.42,719.511 3166.11,712.112 3185.32,712.112 C3192.76,712.112 3197.91,713.158 3200.78,715.249 C3205.19,718.503 3207.4,722.416 3207.4,726.987 C3207.4,731.79 3203.53,737.136 3195.78,743.024 C3188.42,748.602 3181.45,751.391 3174.86,751.391 C3172.31,751.391 3171.03,751.12 3171.03,750.578 C3171.03,749.803 3172.27,748.989 3174.75,748.137 C3178.08,746.898 3181.64,744.38 3185.44,740.583 C3189.78,736.167 3191.94,732.178 3191.94,728.614 C3191.94,726.212 3190.28,723.927 3186.95,721.757 C3184,719.898 3179.24,718.968 3172.65,718.968 C3163.05,718.968 3150.92,728.652 3136.28,748.021 C3126.52,760.959 3118.62,772.348 3112.57,782.187 C3115.52,780.56 3119.04,778.584 3123.15,776.26 C3128.18,773.394 3132.52,771.96 3136.16,771.96 C3145.23,771.96 3149.76,775.214 3149.76,781.722 C3149.76,788.152 3146.04,795.203 3138.6,802.873 C3133.34,808.296 3130.7,812.324 3130.7,814.958 C3130.7,817.67 3133.34,819.026 3138.6,819.026 C3141.24,819.026 3143.95,818.096 3146.74,816.237 C3149.53,814.455 3151.58,813.564 3152.9,813.564 C3153.98,813.564 3154.53,814.261 3154.53,815.656 C3154.53,817.902 3152.36,820.265 3148.02,822.745 C3140.73,826.928 3134.89,829.02 3130.47,829.02 C3122.64,829.02 3118.73,824.836 3118.73,816.469 C3118.73,811.201 3121.75,805.352 3127.8,798.921 C3132.21,794.195 3134.42,789.508 3134.42,784.86 C3134.42,780.831 3132.25,778.817 3127.91,778.817 C3126.21,778.817 3120.55,780.831 3110.95,784.86 C3108.08,789.663 3105.68,794.079 3103.74,798.108 C3096.38,813.448 3091.5,821.118 3089.1,821.118"/>
<path class="Note" d="M3161.73,650.479 C3166.07,647.535 3169.21,645.094 3171.14,643.157 C3174.71,639.361 3176.49,635.875 3176.49,632.698 C3176.49,629.057 3174.47,627.236 3170.45,627.236 C3162.62,627.236 3154.25,634.132 3145.34,647.922 C3142.63,652.106 3136.67,665.741 3127.45,688.828 C3134.81,696.421 3138.49,700.721 3138.49,701.728 C3138.49,703.122 3137.6,703.819 3135.82,703.819 C3134.42,703.819 3130.59,701.457 3124.31,696.731 C3117.49,712.613 3107.15,726.171 3093.28,737.404 C3079.1,748.871 3062.18,754.604 3042.5,754.604 C3034.98,754.604 3025.57,752.86 3014.26,749.374 C3005.19,746.585 3000.66,742.13 3000.66,736.01 C3000.66,726.945 3004.15,722.413 3011.12,722.413 C3015.3,722.413 3017.4,724.35 3017.4,728.224 C3017.4,729.463 3016.43,730.78 3014.49,732.175 C3013.48,732.872 3012.98,734.228 3012.98,736.242 C3012.98,738.644 3015.65,741.123 3021,743.68 C3026.81,746.469 3035.33,747.863 3046.57,747.863 C3061.05,747.863 3075.04,741.588 3088.52,729.037 C3100.76,717.649 3109.55,704.401 3114.9,689.293 C3112.81,687.589 3110.56,685.729 3108.16,683.715 C3100.72,679.299 3097,674.767 3097,670.118 C3097,668.181 3098.28,667.213 3100.84,667.213 C3104.24,667.213 3108.85,670.118 3114.66,675.929 C3115.9,677.168 3117.07,678.331 3118.15,679.415 C3120.86,671.978 3125.2,662.526 3131.17,651.06 C3141.94,630.297 3155.03,619.915 3170.45,619.915 C3175.95,619.915 3180.29,620.961 3183.46,623.053 C3186.64,625.145 3188.23,628.011 3188.23,631.652 C3188.23,637.463 3186.1,642.383 3181.83,646.411 C3177.42,650.595 3172.81,652.687 3168.01,652.687 C3163.82,652.687 3161.73,651.951 3161.73,650.479"/>
<path class="Note" d="M3722.18,561.187 C3726.52,558.243 3729.66,555.803 3731.6,553.866 C3735.16,550.07 3736.94,546.583 3736.94,543.407 C3736.94,539.766 3734.93,537.945 3730.9,537.945 C3723.08,537.945 3714.71,544.84 3705.8,558.631 C3703.09,562.814 3697.12,576.45 3687.9,599.537 C3695.26,607.129 3698.94,611.429 3698.94,612.436 C3698.94,613.831 3698.05,614.528 3696.27,614.528 C3694.87,614.528 3691.04,612.165 3684.76,607.439 C3677.95,623.321 3667.6,636.879 3653.74,648.113 C3639.56,659.579 3622.63,665.312 3602.95,665.312 C3595.44,665.312 3586.02,663.569 3574.71,660.083 C3565.65,657.294 3561.12,652.839 3561.12,646.719 C3561.12,637.654 3564.6,633.122 3571.57,633.122 C3575.76,633.122 3577.85,635.059 3577.85,638.932 C3577.85,640.172 3576.88,641.489 3574.94,642.884 C3573.94,643.581 3573.43,644.937 3573.43,646.951 C3573.43,649.353 3576.11,651.832 3581.45,654.388 C3587.26,657.178 3595.79,658.572 3607.02,658.572 C3621.51,658.572 3635.49,652.297 3648.97,639.746 C3661.21,628.357 3670.01,615.109 3675.35,600.002 C3673.26,598.297 3671.01,596.438 3668.61,594.424 C3661.17,590.008 3657.45,585.475 3657.45,580.827 C3657.45,578.89 3658.73,577.922 3661.29,577.922 C3664.7,577.922 3669.31,580.827 3675.12,586.638 C3676.36,587.877 3677.52,589.039 3678.61,590.124 C3681.32,582.686 3685.66,573.235 3691.62,561.768 C3702.39,541.005 3715.48,530.624 3730.9,530.624 C3736.4,530.624 3740.74,531.67 3743.92,533.762 C3747.09,535.853 3748.68,538.72 3748.68,542.361 C3748.68,548.172 3746.55,553.091 3742.29,557.12 C3737.87,561.304 3733.26,563.395 3728.46,563.395 C3724.28,563.395 3722.18,562.659 3722.18,561.187"/>
<path class="Note" d="M3649.55,910.409 C3645.37,910.409 3643.28,908.511 3643.28,904.715 C3643.28,898.284 3644.25,893.558 3646.18,890.537 C3654.24,878.606 3671.75,856.293 3698.71,823.599 C3710.87,808.802 3726.56,801.403 3745.77,801.403 C3753.21,801.403 3758.36,802.449 3761.23,804.541 C3765.65,807.795 3767.86,811.707 3767.86,816.278 C3767.86,821.082 3763.98,826.427 3756.23,832.315 C3748.87,837.893 3741.9,840.682 3735.32,840.682 C3732.76,840.682 3731.48,840.411 3731.48,839.869 C3731.48,839.094 3732.72,838.281 3735.2,837.429 C3738.53,836.189 3742.09,833.671 3745.89,829.875 C3750.23,825.459 3752.4,821.469 3752.4,817.905 C3752.4,815.503 3750.73,813.218 3747.4,811.049 C3744.46,809.189 3739.69,808.26 3733.11,808.26 C3723.5,808.26 3711.38,817.944 3696.73,837.312 C3686.97,850.25 3679.07,861.639 3673.03,871.478 C3675.97,869.851 3679.5,867.876 3683.6,865.552 C3688.64,862.685 3692.98,861.252 3696.62,861.252 C3705.68,861.252 3710.21,864.506 3710.21,871.013 C3710.21,877.444 3706.5,884.494 3699.06,892.164 C3693.79,897.587 3691.16,901.616 3691.16,904.25 C3691.16,906.961 3693.79,908.317 3699.06,908.317 C3701.69,908.317 3704.4,907.388 3707.19,905.528 C3709.98,903.746 3712.04,902.855 3713.35,902.855 C3714.44,902.855 3714.98,903.553 3714.98,904.947 C3714.98,907.194 3712.81,909.557 3708.47,912.036 C3701.19,916.22 3695.34,918.311 3690.92,918.311 C3683.1,918.311 3679.19,914.128 3679.19,905.761 C3679.19,900.492 3682.21,894.643 3688.25,888.213 C3692.67,883.487 3694.87,878.8 3694.87,874.151 C3694.87,870.123 3692.71,868.108 3688.37,868.108 C3686.66,868.108 3681.01,870.123 3671.4,874.151 C3668.53,878.955 3666.13,883.371 3664.19,887.399 C3656.83,902.739 3651.95,910.409 3649.55,910.409"/>
<path class="Note" d="M3722.18,739.77 C3726.52,736.826 3729.66,734.386 3731.6,732.449 C3735.16,728.652 3736.94,725.166 3736.94,721.99 C3736.94,718.348 3734.93,716.528 3730.9,716.528 C3723.08,716.528 3714.71,723.423 3705.8,737.213 C3703.09,741.397 3697.12,755.032 3687.9,778.12 C3695.26,785.712 3698.94,790.012 3698.94,791.019 C3698.94,792.414 3698.05,793.111 3696.27,793.111 C3694.87,793.111 3691.04,790.748 3684.76,786.022 C3677.95,801.904 3667.6,815.462 3653.74,826.696 C3639.56,838.162 3622.63,843.895 3602.95,843.895 C3595.44,843.895 3586.02,842.152 3574.71,838.666 C3565.65,835.876 3561.12,831.422 3561.12,825.301 C3561.12,816.237 3564.6,811.705 3571.57,811.705 C3575.76,811.705 3577.85,813.641 3577.85,817.515 C3577.85,818.755 3576.88,820.072 3574.94,821.466 C3573.94,822.164 3573.43,823.519 3573.43,825.534 C3573.43,827.935 3576.11,830.415 3581.45,832.971 C3587.26,835.76 3595.79,837.155 3607.02,837.155 C3621.51,837.155 3635.49,830.879 3648.97,818.329 C3661.21,806.94 3670.01,793.692 3675.35,778.584 C3673.26,776.88 3671.01,775.021 3668.61,773.006 C3661.17,768.59 3657.45,764.058 3657.45,759.41 C3657.45,757.473 3658.73,756.504 3661.29,756.504 C3664.7,756.504 3669.31,759.41 3675.12,765.22 C3676.36,766.46 3677.52,767.622 3678.61,768.707 C3681.32,761.269 3685.66,751.817 3691.62,740.351 C3702.39,719.588 3715.48,709.207 3730.9,709.207 C3736.4,709.207 3740.74,710.252 3743.92,712.344 C3747.09,714.436 3748.68,717.303 3748.68,720.944 C3748.68,726.754 3746.55,731.674 3742.29,735.703 C3737.87,739.886 3733.26,741.978 3728.46,741.978 C3724.28,741.978 3722.18,741.242 3722.18,739.77"/>
<path class="Note" d="M3722.18,650.479 C3726.52,647.535 3729.66,645.094 3731.6,643.157 C3735.16,639.361 3736.94,635.875 3736.94,632.698 C3736.94,629.057 3734.93,627.236 3730.9,627.236 C3723.08,627.236 3714.71,634.132 3705.8,647.922 C3703.09,652.106 3697.12,665.741 3687.9,688.828 C3695.26,696.421 3698.94,700.721 3698.94,701.728 C3698.94,703.122 3698.05,703.819 3696.27,703.819 C3694.87,703.819 3691.04,701.457 3684.76,696.731 C3677.95,712.613 3667.6,726.171 3653.74,737.404 C3639.56,748.871 3622.63,754.604 3602.95,754.604 C3595.44,754.604 3586.02,752.86 3574.71,749.374 C3565.65,746.585 3561.12,742.13 3561.12,736.01 C3561.12,726.945 3564.6,722.413 3571.57,722.413 C3575.76,722.413 3577.85,724.35 3577.85,728.224 C3577.85,729.463 3576.88,730.78 3574.94,732.175 C3573.94,732.872 3573.43,734.228 3573.43,736.242 C3573.43,738.644 3576.11,741.123 3581.45,743.68 C3587.26,746.469 3595.79,747.863 3607.02,747.863 C3621.51,747.863 3635.49,741.588 3648.97,729.037 C3661.21,717.649 3670.01,704.401 3675.35,689.293 C3673.26,687.589 3671.01,685.729 3668.61,683.715 C3661.17,679.299 3657.45,674.767 3657.45,670.118 C3657.45,668.181 3658.73,667.213 3661.29,667.213 C3664.7,667.213 3669.31,670.118 3675.12,675.929 C3676.36,677.168 3677.52,678.331 3678.61,679.415 C3681.32,671.978 3685.66,662.526 3691.62,651.06 C3702.39,630.297 3715.48,619.915 3730.9,619.915 C3736.4,619.915 3740.74,620.961 3743.92,623.053 C3747.09,625.145 3748.68,628.011 3748.68,631.652 C3748.68,637.463 3746.55,642.383 3742.29,646.411 C3737.87,650.595 3733.26,652.687 3728.46,652.687 C3724.28,652.687 3722.18,651.951 3722.18,650.479"/>
<path class="Clef" transform="matrix(2.3811,0,0,2.3811,212.156,2217.65)" d="M25.4,-25.1 C17.8,-25.1 11.7,-20.7 11.6,-20.7 C5.8,-16.4 3.5,-11.3 2.6,-7.8 C2.1,-6 1.9,-4.2 1.9,-2.5 C1.9,-0.1 2.3,2.1 3.2,4 C4.4,6.7 6.7,8.6 9.7,9.6 C10.9,10 12.2,10.2 13.5,10.2 C15.7,10.2 18,9.6 19.9,8.5 C23,6.8 24.9,3.2 24.9,-0.7 C24.9,-4.2 23.1,-7.4 20.1,-9.3 C18,-10.7 16,-11.1 14.3,-11.1 C13.1,-11.1 12,-10.9 11.1,-10.6 C10.1,-10.2 8.4,-9.2 7.6,-8.5 C7.9,-10.4 9.1,-13.3 10.2,-14.9 C11.3,-16.5 13.5,-18.5 15.2,-19.4 C17.7,-20.8 20.9,-21.4 24.4,-21.4 C34.6,-21.4 39.6,-13.2 39.6,3.6 C39.6,12.9 36.1,21.8 33.1,27.7 C29.8,34.3 25.4,40.6 21.5,44.1 C11.1,53.6 1.3,58.1 1.2,58.1 C1.2,58.1 -0.3,59 0.1,60.5 C0.4,61.5 1.3,61.7 1.9,61.7 C2,61.7 2.3,61.6 2.4,61.6 C2.5,61.6 13.9,56.9 23,49.8 C28.1,46.1 32.7,42.1 36.7,37.8 C40.3,33.9 43.4,29.7 45.9,25.5 C50.3,18 52.8,10.2 52.8,3.5 C52.8,-4.8 50.6,-11.7 46.5,-16.6 C41.8,-22.2 34.7,-25.1 25.4,-25.1 M56.8,-12.4 C56.8,-9.6 59,-7.4 61.6,-7.4 C64.2,-7.4 66.4,-9.6 66.4,-12.4 C66.4,-15.2 64.2,-17.5 61.6,-17.5 C59,-17.5 56.8,-15.2 56.8,-12.4 M56.8,12.3 C56.8,15.1 59,17.4 61.6,17.4 C64.2,17.4 66.4,15.1 66.4,12.3 C66.4,9.5 64.2,7.2 61.6,7.2 C59,7.2 56.8,9.5 56.8,12.3"/>
<path class="Clef" transform="matrix(2.3811,0,0,2.3811,212.156,1570.39)" d="M63.37,-5.89004 C62.14,-11.32 59.5,-15.14 58.72,-16.1801 C55.5301,-20.45 51.52,-23.3 46.8301,-24.65 C43.72,-25.54 40.72,-25.65 38.3,-25.47 C37.2601,-31.4801 36.2601,-37.3601 35.35,-42.8101 C40.79,-48.97 44.42,-54.77 46.69,-59.07 C50.1601,-65.65 51.3101,-70.2301 51.3601,-70.4301 C53.0801,-75.64 53.44,-83.34 52.34,-91.55 C51.3301,-99.1 49.24,-105.81 46.89,-109.06 C45.8601,-110.49 44.8101,-111.22 43.77,-111.22 C42.55,-111.22 40.04,-109.98 37.15,-107.21 C34.85,-105.01 31.5801,-101.12 29.02,-95.1101 C26.02,-88.05 25.8101,-78.5601 26.1601,-71.84 C26.54,-64.57 27.65,-58.8801 27.6601,-58.8301 C27.6801,-58.74 27.94,-57.24 28.39,-54.67 C28.1601,-54.44 27.92,-54.22 27.67,-53.9801 C26.6301,-52.9801 25.44,-51.84 24.0601,-50.4601 C23.2,-49.6 22.25,-48.69 21.25,-47.72 C12.79,-39.57 0,-27.25 0,-8.1 C0,-3.4 0.9,1.01992 2.68008,5.02998 C4.27002,8.62998 6.57002,11.91 9.5,14.78 C17.2301,22.33 27.82,25.5399 34.8801,25.38 C37.8301,25.31 40.4601,25.0699 42.85,24.6199 C44.6801,34.2199 45.82,41.25 45.8601,46.5899 C45.9,53.1 44.25,57.0699 40.35,59.8399 C37.92,61.5699 35.1101,62.5199 32.0101,62.6699 C29.42,62.7899 27.1601,62.3199 25.7301,61.91 L25.72,61.91 C25.72,61.91 25.4301,61.83 25.42,61.63 C25.4101,61.45 25.7601,61.4 25.77,61.4 L25.79,61.4 C27.7101,60.96 31.2801,59.73 33.64,56.43 C35.44,53.91 36.3101,49.2899 34.47,45.35 C33.3601,42.96 30.85,40.01 25.2301,39.56 C22.74,39.36 20.47,39.8699 18.47,41.0699 C16.6601,42.15 15.1601,43.7899 14.1101,45.7899 C11.65,50.4899 12.1101,56.2199 15.24,60.06 C18.2,63.68 22.82,65.9899 28.25,66.5699 C29.1,66.66 29.95,66.7 30.8,66.7 C31.5101,66.7 32.22,66.6699 32.92,66.61 C31.72,66.9399 30.64,67.4899 29.77,68.25 C28.2801,69.5399 27.44,71.38 27.44,73.41 C27.44,75.28 28.0601,76.65 29.55,78.0399 C28.4101,78.5 27.55,78.98 26.79,79.56 C25.25,80.73 24.34,82.46 24.34,84.1899 C24.34,87.45 27.3,89.63 31.72,89.63 C37.1301,89.63 40.9101,86.63 40.9101,82.35 C40.9101,80.1199 39.9101,78.18 38.0801,76.83 C41.0101,75.6199 42.37,73.9399 42.37,71.56 C42.39,70.05 41.69,68.61 40.49,67.6899 C39.2801,66.7399 37.62,66.2399 35.69,66.2399 L35.5101,66.2399 C38.2801,65.7 40.92,64.7 43.2101,63.28 C46.87,60.71 48.99,56.73 49.67,51.1 C50.2301,46.46 49.84,40.55 48.44,32.48 C48.0801,30.3899 47.54,27.36 46.8801,23.6 C52.6301,21.68 56.79,18.11 60.5601,12.26 C63.85,6.51992 64.8,0.419922 63.37,-5.89004 M32.39,87.5399 C30.19,87.5399 28.7301,86.1199 28.7301,84.01 C28.7301,82.11 29.65,80.5 31.32,79.4699 C31.6801,79.66 31.77,79.71 32.1101,79.88 C33.3,80.48 33.3,80.48 33.55,80.63 L33.5601,80.6399 C35.47,81.73 36.25,82.76 36.25,84.18 C36.24,86.0899 34.59,87.5399 32.39,87.5399 M38.3101,71.63 C38.3101,73.2699 37.7301,74.3399 36.1801,75.53 C34.74,74.78 34.35,74.56 33.9801,74.3399 L33.8801,74.28 C32.3301,73.3399 31.85,72.66 31.85,71.4 C31.85,69.6 33.2301,68.3399 35.19,68.3399 C37.17,68.35 38.3101,69.55 38.3101,71.63 M33.15,-83.8101 C34.9301,-89.55 37.67,-92.8 39.6601,-94.5301 C41.4101,-96.05 43.0601,-96.7601 43.9801,-96.7601 C44.12,-96.7601 44.24,-96.74 44.34,-96.7101 C44.8,-96.57 45.3301,-96 45.8,-95.1301 C48.1101,-90.84 47.37,-84.1301 46.0301,-79.69 C44.4,-74.29 41.4801,-68.6801 32.69,-59.0601 C32.52,-60.17 32.3601,-61.22 32.2101,-62.2 C30.95,-70.49 31.27,-77.7601 33.15,-83.8101 M29.15,20.31 C24.5101,19.0899 20.0801,16.5899 16.32,13.0899 C15.0101,11.86 13.14,9.68994 11.67,6.3 C10.3101,3.13994 9.65,-0.290039 9.7,-3.88008 C9.77002,-8.57002 11.0801,-13.39 13.59,-18.1801 C16.5101,-23.7601 21.07,-29.29 27.1301,-34.62 C28.5801,-35.9 29.95,-37.1801 31.24,-38.4601 C32,-34.2 32.8301,-29.5101 33.7101,-24.6301 C29.8601,-23.3601 25.1101,-20.2101 22,-14.5601 C18.47,-7.99004 18.6101,-2.47002 19.34,1.00996 C20.2801,5.46992 22.8101,9.22998 26.27,11.3199 C27.2,11.88 31.3301,14.01 33.17,13.43 C33.54,13.31 33.8101,13.0899 33.95,12.76 C34.4601,11.5899 33.44,10.95 31.8801,9.98994 C31.2801,9.61992 30.6101,9.2 29.8801,8.66992 C26.5601,6.17998 25.1101,1.72998 26.1801,-2.65 C26.7601,-5.05 28.04,-7.21006 29.8801,-8.91006 C31.55,-10.4601 33.59,-11.5601 35.97,-12.2 C38.0101,-0.960059 40.07,10.1899 41.7101,18.55 C41.84,19.2399 41.9801,19.91 42.1101,20.58 C37.7101,21.51 33.37,21.4199 29.15,20.31 M54.9,10.1 C53.7301,13.28 51.27,17.35 46.14,19.41 C46.07,18.9899 45.99,18.56 45.9101,18.13 C44.3601,9.36992 42.4301,-1.61006 40.47,-12.87 C50.82,-13.35 55.09,-5.91006 55.9801,-1.08008 C56.45,1.45 56.45,5.88994 54.9,10.1"/>
<path class="FiguredBass" d="M543.165,2534.76 C543.35,2534.76 543.752,2534.36 544.371,2533.55 C547.03,2529.78 550.741,2527.89 555.503,2527.89 C559.338,2527.89 562.956,2529.32 566.358,2532.16 C569.76,2535.01 572.574,2536.43 574.8,2536.43 C577.212,2536.43 579.501,2535.72 581.666,2534.29 C583.83,2532.87 585.547,2531.45 586.814,2530.03 C588.082,2528.6 588.902,2527.89 589.273,2527.89 C589.891,2527.89 590.448,2528.09 590.943,2528.5 C591.438,2528.9 591.685,2529.41 591.685,2530.03 C591.685,2530.46 590.417,2532.59 587.881,2536.43 C585.346,2540.26 582.531,2544.7 579.439,2549.74 C576.347,2554.78 573.532,2561.07 570.997,2568.62 C568.461,2576.17 567.193,2583.37 567.193,2590.24 C567.193,2592.9 567.471,2595.96 568.028,2599.42 C568.461,2602.08 568.461,2603.6 568.028,2603.97 C567.719,2604.28 567.193,2604.43 566.451,2604.43 C566.141,2604.43 564.703,2604.03 562.137,2603.22 C559.57,2602.42 557.111,2602.02 554.761,2602.02 C552.658,2602.02 550.231,2602.42 547.479,2603.22 C544.726,2604.03 543.195,2604.43 542.886,2604.43 C542.206,2604.43 541.649,2604.15 541.216,2603.6 C540.783,2603.04 540.722,2602.45 541.031,2601.83 C544.68,2593.11 549.118,2584.62 554.344,2576.37 C559.57,2568.11 566.111,2558.6 573.965,2547.84 C570.997,2549.45 567.997,2550.25 564.966,2550.25 C561.75,2550.25 558.503,2548.81 555.225,2545.94 C551.947,2543.06 549.257,2541.62 547.154,2541.62 C545.608,2541.62 544.262,2542.5 543.118,2544.27 C541.974,2546.03 541.402,2548.67 541.402,2552.2 L541.402,2563.61 C541.402,2565.16 540.691,2565.93 539.268,2565.93 C537.722,2565.93 536.949,2565.16 536.949,2563.61 L536.949,2530.21 C536.949,2528.67 537.722,2527.89 539.268,2527.89 C540.691,2527.89 541.402,2528.67 541.402,2530.21 L541.402,2532.35 C541.402,2532.84 541.526,2533.27 541.773,2533.64 C542.515,2534.39 542.979,2534.76 543.165,2534.76"/>
<path class="FiguredBass" d="M1198.18,2585.69 C1197.5,2586.43 1196.61,2586.8 1195.49,2586.8 C1194.38,2586.8 1193.47,2586.42 1192.76,2585.64 C1192.04,2584.87 1191.69,2583.99 1191.69,2583 L1191.69,2569.73 L1178.42,2569.73 C1177.31,2569.73 1176.4,2569.35 1175.68,2568.57 C1174.97,2567.8 1174.62,2566.92 1174.62,2565.93 C1174.62,2564.94 1174.97,2564.06 1175.68,2563.29 C1176.4,2562.51 1177.31,2562.13 1178.42,2562.13 L1191.69,2562.13 L1191.69,2548.86 C1191.69,2547.87 1192.04,2546.99 1192.76,2546.22 C1193.47,2545.44 1194.38,2545.06 1195.49,2545.06 C1196.61,2545.06 1197.52,2545.44 1198.23,2546.22 C1198.94,2546.99 1199.3,2547.87 1199.3,2548.86 L1199.3,2562.13 L1212.56,2562.13 C1213.68,2562.13 1214.59,2562.51 1215.3,2563.29 C1216.01,2564.06 1216.37,2564.94 1216.37,2565.93 C1216.37,2566.92 1216.01,2567.8 1215.3,2568.57 C1214.59,2569.35 1213.68,2569.73 1212.56,2569.73 L1199.3,2569.73 L1199.3,2583 C1199.3,2583.99 1198.92,2584.89 1198.18,2585.69 M1251.61,2531.42 C1247.03,2531.42 1243.98,2533.26 1242.47,2536.94 C1240.95,2540.62 1240.19,2545.83 1240.19,2552.57 L1240.19,2563.52 C1243.41,2562.22 1246.19,2561.54 1248.54,2561.48 C1256.58,2561.48 1262.91,2563.26 1267.52,2566.81 C1272.12,2570.37 1274.43,2575.66 1274.43,2582.68 C1274.43,2589.7 1272.09,2595 1267.42,2598.59 C1262.75,2602.17 1256.46,2603.97 1248.54,2603.97 C1240.44,2603.97 1234.1,2600.21 1229.53,2592.7 C1224.95,2585.18 1222.66,2576.26 1222.66,2565.93 C1222.66,2555.66 1225.32,2546.76 1230.64,2539.21 C1235.96,2531.67 1242.95,2527.89 1251.61,2527.89 C1257.3,2527.89 1262.21,2529.33 1266.36,2532.21 C1270.5,2535.08 1272.57,2538.87 1272.57,2543.57 C1272.57,2546.29 1271.58,2548.64 1269.6,2550.62 C1267.62,2552.6 1265.26,2553.59 1262.51,2553.59 C1259.75,2553.59 1257.39,2552.6 1255.41,2550.62 C1253.43,2548.64 1252.44,2546.29 1252.44,2543.57 C1252.44,2540.91 1253.43,2538.56 1255.41,2536.52 C1256.09,2535.72 1257.05,2535.04 1258.29,2534.48 C1257.98,2533.68 1257.36,2533.06 1256.43,2532.62 C1255.07,2531.82 1253.46,2531.42 1251.61,2531.42 M1256.15,2569.36 C1255.04,2566.46 1252.6,2565 1248.82,2565 C1245.05,2565 1242.72,2566.46 1241.82,2569.36 C1240.92,2572.27 1240.47,2576.69 1240.47,2582.63 C1240.47,2589.62 1240.92,2594.32 1241.82,2596.73 C1242.72,2599.14 1245.05,2600.35 1248.82,2600.35 C1252.6,2600.35 1255.04,2598.9 1256.15,2595.99 C1257.27,2593.08 1257.82,2588.64 1257.82,2582.68 C1257.82,2576.71 1257.27,2572.27 1256.15,2569.36"/>
<path class="FiguredBass" d="M2382.15,2534.76 C2382.34,2534.76 2382.74,2534.36 2383.36,2533.55 C2386.02,2529.78 2389.73,2527.89 2394.49,2527.89 C2398.33,2527.89 2401.95,2529.32 2405.35,2532.16 C2408.75,2535.01 2411.56,2536.43 2413.79,2536.43 C2416.2,2536.43 2418.49,2535.72 2420.65,2534.29 C2422.82,2532.87 2424.54,2531.45 2425.8,2530.03 C2427.07,2528.6 2427.89,2527.89 2428.26,2527.89 C2428.88,2527.89 2429.44,2528.09 2429.93,2528.5 C2430.43,2528.9 2430.67,2529.41 2430.67,2530.03 C2430.67,2530.46 2429.41,2532.59 2426.87,2536.43 C2424.33,2540.26 2421.52,2544.7 2418.43,2549.74 C2415.34,2554.78 2412.52,2561.07 2409.99,2568.62 C2407.45,2576.17 2406.18,2583.37 2406.18,2590.24 C2406.18,2592.9 2406.46,2595.96 2407.02,2599.42 C2407.45,2602.08 2407.45,2603.6 2407.02,2603.97 C2406.71,2604.28 2406.18,2604.43 2405.44,2604.43 C2405.13,2604.43 2403.69,2604.03 2401.13,2603.22 C2398.56,2602.42 2396.1,2602.02 2393.75,2602.02 C2391.65,2602.02 2389.22,2602.42 2386.47,2603.22 C2383.72,2604.03 2382.18,2604.43 2381.88,2604.43 C2381.2,2604.43 2380.64,2604.15 2380.21,2603.6 C2379.77,2603.04 2379.71,2602.45 2380.02,2601.83 C2383.67,2593.11 2388.11,2584.62 2393.33,2576.37 C2398.56,2568.11 2405.1,2558.6 2412.95,2547.84 C2409.99,2549.45 2406.99,2550.25 2403.96,2550.25 C2400.74,2550.25 2397.49,2548.81 2394.21,2545.94 C2390.94,2543.06 2388.25,2541.62 2386.14,2541.62 C2384.6,2541.62 2383.25,2542.5 2382.11,2544.27 C2380.96,2546.03 2380.39,2548.67 2380.39,2552.2 L2380.39,2563.61 C2380.39,2565.16 2379.68,2565.93 2378.26,2565.93 C2376.71,2565.93 2375.94,2565.16 2375.94,2563.61 L2375.94,2530.21 C2375.94,2528.67 2376.71,2527.89 2378.26,2527.89 C2379.68,2527.89 2380.39,2528.67 2380.39,2530.21 L2380.39,2532.35 C2380.39,2532.84 2380.51,2533.27 2380.76,2533.64 C2381.5,2534.39 2381.97,2534.76 2382.15,2534.76"/>
<path class="FiguredBass" d="M3092.12,2534.76 C3092.31,2534.76 3092.71,2534.36 3093.33,2533.55 C3095.99,2529.78 3099.7,2527.89 3104.46,2527.89 C3108.3,2527.89 3111.92,2529.32 3115.32,2532.16 C3118.72,2535.01 3121.53,2536.43 3123.76,2536.43 C3126.17,2536.43 3128.46,2535.72 3130.63,2534.29 C3132.79,2532.87 3134.51,2531.45 3135.77,2530.03 C3137.04,2528.6 3137.86,2527.89 3138.23,2527.89 C3138.85,2527.89 3139.41,2528.09 3139.9,2528.5 C3140.4,2528.9 3140.64,2529.41 3140.64,2530.03 C3140.64,2530.46 3139.38,2532.59 3136.84,2536.43 C3134.31,2540.26 3131.49,2544.7 3128.4,2549.74 C3125.31,2554.78 3122.49,2561.07 3119.96,2568.62 C3117.42,2576.17 3116.15,2583.37 3116.15,2590.24 C3116.15,2592.9 3116.43,2595.96 3116.99,2599.42 C3117.42,2602.08 3117.42,2603.6 3116.99,2603.97 C3116.68,2604.28 3116.15,2604.43 3115.41,2604.43 C3115.1,2604.43 3113.66,2604.03 3111.1,2603.22 C3108.53,2602.42 3106.07,2602.02 3103.72,2602.02 C3101.62,2602.02 3099.19,2602.42 3096.44,2603.22 C3093.69,2604.03 3092.16,2604.43 3091.85,2604.43 C3091.17,2604.43 3090.61,2604.15 3090.18,2603.6 C3089.74,2603.04 3089.68,2602.45 3089.99,2601.83 C3093.64,2593.11 3098.08,2584.62 3103.3,2576.37 C3108.53,2568.11 3115.07,2558.6 3122.93,2547.84 C3119.96,2549.45 3116.96,2550.25 3113.93,2550.25 C3110.71,2550.25 3107.46,2548.81 3104.18,2545.94 C3100.91,2543.06 3098.22,2541.62 3096.11,2541.62 C3094.57,2541.62 3093.22,2542.5 3092.08,2544.27 C3090.93,2546.03 3090.36,2548.67 3090.36,2552.2 L3090.36,2563.61 C3090.36,2565.16 3089.65,2565.93 3088.23,2565.93 C3086.68,2565.93 3085.91,2565.16 3085.91,2563.61 L3085.91,2530.21 C3085.91,2528.67 3086.68,2527.89 3088.23,2527.89 C3089.65,2527.89 3090.36,2528.67 3090.36,2530.21 L3090.36,2532.35 C3090.36,2532.84 3090.49,2533.27 3090.73,2533.64 C3091.47,2534.39 3091.94,2534.76 3092.12,2534.76"/>
<path class="FiguredBass" d="M3115.14,2691.44 C3114.46,2692.18 3113.56,2692.55 3112.45,2692.55 C3111.33,2692.55 3110.42,2692.17 3109.71,2691.39 C3109,2690.62 3108.64,2689.74 3108.64,2688.75 L3108.64,2675.48 L3095.38,2675.48 C3094.26,2675.48 3093.35,2675.1 3092.64,2674.32 C3091.93,2673.55 3091.57,2672.67 3091.57,2671.68 C3091.57,2670.69 3091.93,2669.81 3092.64,2669.04 C3093.35,2668.26 3094.26,2667.88 3095.38,2667.88 L3108.64,2667.88 L3108.64,2654.61 C3108.64,2653.62 3109,2652.74 3109.71,2651.97 C3110.42,2651.19 3111.33,2650.81 3112.45,2650.81 C3113.56,2650.81 3114.47,2651.19 3115.18,2651.97 C3115.89,2652.74 3116.25,2653.62 3116.25,2654.61 L3116.25,2667.88 L3129.52,2667.88 C3130.63,2667.88 3131.54,2668.26 3132.25,2669.04 C3132.96,2669.81 3133.32,2670.69 3133.32,2671.68 C3133.32,2672.67 3132.96,2673.55 3132.25,2674.32 C3131.54,2675.1 3130.63,2675.48 3129.52,2675.48 L3116.25,2675.48 L3116.25,2688.75 C3116.25,2689.74 3115.88,2690.64 3115.14,2691.44"/>
<path class="FiguredBass" d="M543.628,1761.58 C543.628,1761.58 545.113,1761.8 548.082,1762.23 C549.38,1762.42 550.834,1762.6 552.442,1762.79 C556.709,1763.28 560.822,1763.53 564.781,1763.53 C568.739,1763.53 572.914,1763.28 577.305,1762.79 C579.037,1762.6 580.552,1762.42 581.851,1762.23 L586.397,1761.58 C587.325,1761.58 588.021,1761.89 588.484,1762.51 C588.948,1763.13 588.902,1763.62 588.345,1763.99 C578.882,1773.46 565.554,1778.19 548.36,1778.19 C547.68,1778.19 547.076,1778.44 546.551,1778.93 C546.025,1779.43 545.762,1780.04 545.762,1780.79 L545.762,1795.35 C550.153,1791.02 555.472,1788.86 561.719,1788.86 C570.749,1788.86 577.723,1790.88 582.64,1794.93 C587.557,1798.99 590.015,1805.12 590.015,1813.35 C590.015,1820.34 587.232,1826.14 581.666,1830.74 C576.099,1835.35 569.45,1837.66 561.719,1837.66 C555.04,1837.66 549.241,1836.14 544.324,1833.11 C539.407,1830.08 536.949,1825.87 536.949,1820.49 C536.949,1817.77 537.938,1815.41 539.917,1813.4 C541.897,1811.39 544.262,1810.38 547.015,1810.38 C549.767,1810.38 552.102,1811.37 554.019,1813.35 C555.936,1815.33 556.895,1817.71 556.895,1820.49 C556.895,1821.73 555.875,1823.08 553.833,1824.53 C551.792,1825.98 550.772,1827.33 550.772,1828.56 C550.772,1832.28 554.421,1834.13 561.719,1834.13 C568.832,1834.13 572.388,1827.2 572.388,1813.35 C572.388,1799.99 568.832,1793.28 561.719,1793.22 C555.349,1793.22 550.896,1794.52 548.36,1797.11 C545.824,1799.71 544.247,1801.01 543.628,1801.01 C542.082,1801.01 541.34,1800.24 541.402,1798.69 L541.402,1763.99 C541.402,1763.31 541.618,1762.74 542.051,1762.28 C542.484,1761.81 543.01,1761.58 543.628,1761.58"/>
<path class="FiguredBass" d="M578.14,1903.05 C578.14,1904.04 578.697,1905 579.81,1905.93 C580.923,1906.85 582.145,1907.73 583.475,1908.57 C584.804,1909.4 586.026,1910.98 587.139,1913.3 C588.252,1915.62 588.809,1918.54 588.809,1922.07 C588.809,1928.87 586.242,1934.13 581.109,1937.84 C575.975,1941.55 569.481,1943.41 561.626,1943.41 C555.318,1943.41 549.829,1941.83 545.159,1938.67 C540.49,1935.52 538.155,1931.38 538.155,1926.24 C538.155,1923.52 539.144,1921.16 541.124,1919.15 C543.103,1917.14 545.468,1916.13 548.221,1916.13 C550.973,1916.13 553.308,1917.12 555.225,1919.1 C557.142,1921.08 558.101,1923.46 558.101,1926.24 C558.101,1927.48 557.081,1928.83 555.04,1930.28 C552.999,1931.73 551.978,1933.08 551.978,1934.31 C551.978,1936.23 552.921,1937.64 554.808,1938.54 C556.694,1939.43 558.967,1939.88 561.626,1939.88 C565.09,1939.88 567.548,1938.16 569.002,1934.73 C570.455,1931.3 571.182,1927.08 571.182,1922.07 L571.182,1919.66 C571.182,1916.32 571.074,1913.78 570.857,1912.05 C570.641,1910.32 569.961,1908.77 568.816,1907.41 C567.672,1906.05 565.925,1905.37 563.575,1905.37 L551.421,1905.37 C549.999,1905.37 549.288,1904.6 549.288,1903.05 C549.288,1901.63 549.999,1900.92 551.421,1900.92 L563.575,1900.92 C566.111,1900.92 568.09,1899.96 569.512,1898.04 C570.007,1897.36 570.409,1896.25 570.718,1894.7 C571.028,1892.66 571.182,1889.72 571.182,1885.89 L571.182,1884.68 C571.182,1875.47 567.78,1870.86 560.977,1870.86 C554.978,1870.86 551.978,1872.53 551.978,1875.87 C551.978,1876.98 552.89,1878.17 554.715,1879.44 C556.539,1880.71 557.452,1881.9 557.452,1883.01 C557.452,1885.42 556.601,1887.49 554.9,1889.23 C553.2,1890.96 551.128,1891.82 548.685,1891.82 C546.242,1891.82 544.185,1890.96 542.515,1889.23 C540.845,1887.49 540.01,1885.42 540.01,1883.01 C540.01,1878.25 542.082,1874.44 546.226,1871.6 C550.37,1868.75 555.287,1867.33 560.977,1867.33 C568.461,1867.33 574.615,1868.77 579.439,1871.65 C584.263,1874.52 586.675,1878.87 586.675,1884.68 C586.675,1888.82 586.242,1892.04 585.376,1894.33 C584.511,1896.62 583.521,1898.01 582.408,1898.5 C581.294,1899 580.305,1899.57 579.439,1900.22 C578.573,1900.87 578.14,1901.81 578.14,1903.05"/>
<path class="FiguredBass" d="M543.165,1979.95 C543.35,1979.95 543.752,1979.55 544.371,1978.74 C547.03,1974.97 550.741,1973.08 555.503,1973.08 C559.338,1973.08 562.956,1974.5 566.358,1977.35 C569.76,1980.19 572.574,1981.62 574.8,1981.62 C577.212,1981.62 579.501,1980.91 581.666,1979.48 C583.83,1978.06 585.547,1976.64 586.814,1975.22 C588.082,1973.79 588.902,1973.08 589.273,1973.08 C589.891,1973.08 590.448,1973.28 590.943,1973.68 C591.438,1974.09 591.685,1974.6 591.685,1975.22 C591.685,1975.65 590.417,1977.78 587.881,1981.62 C585.346,1985.45 582.531,1989.89 579.439,1994.93 C576.347,1999.97 573.532,2006.26 570.997,2013.81 C568.461,2021.36 567.193,2028.56 567.193,2035.43 C567.193,2038.09 567.471,2041.15 568.028,2044.61 C568.461,2047.27 568.461,2048.79 568.028,2049.16 C567.719,2049.47 567.193,2049.62 566.451,2049.62 C566.141,2049.62 564.703,2049.22 562.137,2048.41 C559.57,2047.61 557.111,2047.21 554.761,2047.21 C552.658,2047.21 550.231,2047.61 547.479,2048.41 C544.726,2049.22 543.195,2049.62 542.886,2049.62 C542.206,2049.62 541.649,2049.34 541.216,2048.79 C540.783,2048.23 540.722,2047.64 541.031,2047.02 C544.68,2038.3 549.118,2029.81 554.344,2021.56 C559.57,2013.3 566.111,2003.79 573.965,1993.03 C570.997,1994.64 567.997,1995.44 564.966,1995.44 C561.75,1995.44 558.503,1994 555.225,1991.13 C551.947,1988.25 549.257,1986.81 547.154,1986.81 C545.608,1986.81 544.262,1987.69 543.118,1989.46 C541.974,1991.22 541.402,1993.86 541.402,1997.39 L541.402,2008.8 C541.402,2010.35 540.691,2011.12 539.268,2011.12 C537.722,2011.12 536.949,2010.35 536.949,2008.8 L536.949,1975.4 C536.949,1973.86 537.722,1973.08 539.268,1973.08 C540.691,1973.08 541.402,1973.86 541.402,1975.4 L541.402,1977.54 C541.402,1978.03 541.526,1978.46 541.773,1978.83 C542.515,1979.58 542.979,1979.95 543.165,1979.95"/>
<path class="FiguredBass" d="M2382.62,1761.58 C2382.62,1761.58 2384.1,1761.8 2387.07,1762.23 C2388.37,1762.42 2389.82,1762.6 2391.43,1762.79 C2395.7,1763.28 2399.81,1763.53 2403.77,1763.53 C2407.73,1763.53 2411.9,1763.28 2416.29,1762.79 C2418.03,1762.6 2419.54,1762.42 2420.84,1762.23 L2425.39,1761.58 C2426.31,1761.58 2427.01,1761.89 2427.47,1762.51 C2427.94,1763.13 2427.89,1763.62 2427.33,1763.99 C2417.87,1773.46 2404.54,1778.19 2387.35,1778.19 C2386.67,1778.19 2386.07,1778.44 2385.54,1778.93 C2385.01,1779.43 2384.75,1780.04 2384.75,1780.79 L2384.75,1795.35 C2389.14,1791.02 2394.46,1788.86 2400.71,1788.86 C2409.74,1788.86 2416.71,1790.88 2421.63,1794.93 C2426.55,1798.99 2429,1805.12 2429,1813.35 C2429,1820.34 2426.22,1826.14 2420.65,1830.74 C2415.09,1835.35 2408.44,1837.66 2400.71,1837.66 C2394.03,1837.66 2388.23,1836.14 2383.31,1833.11 C2378.4,1830.08 2375.94,1825.87 2375.94,1820.49 C2375.94,1817.77 2376.93,1815.41 2378.91,1813.4 C2380.89,1811.39 2383.25,1810.38 2386,1810.38 C2388.76,1810.38 2391.09,1811.37 2393.01,1813.35 C2394.93,1815.33 2395.88,1817.71 2395.88,1820.49 C2395.88,1821.73 2394.86,1823.08 2392.82,1824.53 C2390.78,1825.98 2389.76,1827.33 2389.76,1828.56 C2389.76,1832.28 2393.41,1834.13 2400.71,1834.13 C2407.82,1834.13 2411.38,1827.2 2411.38,1813.35 C2411.38,1799.99 2407.82,1793.28 2400.71,1793.22 C2394.34,1793.22 2389.88,1794.52 2387.35,1797.11 C2384.81,1799.71 2383.24,1801.01 2382.62,1801.01 C2381.07,1801.01 2380.33,1800.24 2380.39,1798.69 L2380.39,1763.99 C2380.39,1763.31 2380.61,1762.74 2381.04,1762.28 C2381.47,1761.81 2382,1761.58 2382.62,1761.58"/>
<path class="FiguredBass" d="M2417.13,1903.05 C2417.13,1904.04 2417.69,1905 2418.8,1905.93 C2419.91,1906.85 2421.13,1907.73 2422.46,1908.57 C2423.79,1909.4 2425.02,1910.98 2426.13,1913.3 C2427.24,1915.62 2427.8,1918.54 2427.8,1922.07 C2427.8,1928.87 2425.23,1934.13 2420.1,1937.84 C2414.96,1941.55 2408.47,1943.41 2400.62,1943.41 C2394.31,1943.41 2388.82,1941.83 2384.15,1938.67 C2379.48,1935.52 2377.14,1931.38 2377.14,1926.24 C2377.14,1923.52 2378.13,1921.16 2380.11,1919.15 C2382.09,1917.14 2384.46,1916.13 2387.21,1916.13 C2389.96,1916.13 2392.3,1917.12 2394.21,1919.1 C2396.13,1921.08 2397.09,1923.46 2397.09,1926.24 C2397.09,1927.48 2396.07,1928.83 2394.03,1930.28 C2391.99,1931.73 2390.97,1933.08 2390.97,1934.31 C2390.97,1936.23 2391.91,1937.64 2393.8,1938.54 C2395.68,1939.43 2397.96,1939.88 2400.62,1939.88 C2404.08,1939.88 2406.54,1938.16 2407.99,1934.73 C2409.44,1931.3 2410.17,1927.08 2410.17,1922.07 L2410.17,1919.66 C2410.17,1916.32 2410.06,1913.78 2409.85,1912.05 C2409.63,1910.32 2408.95,1908.77 2407.81,1907.41 C2406.66,1906.05 2404.91,1905.37 2402.56,1905.37 L2390.41,1905.37 C2388.99,1905.37 2388.28,1904.6 2388.28,1903.05 C2388.28,1901.63 2388.99,1900.92 2390.41,1900.92 L2402.56,1900.92 C2405.1,1900.92 2407.08,1899.96 2408.5,1898.04 C2409,1897.36 2409.4,1896.25 2409.71,1894.7 C2410.02,1892.66 2410.17,1889.72 2410.17,1885.89 L2410.17,1884.68 C2410.17,1875.47 2406.77,1870.86 2399.97,1870.86 C2393.97,1870.86 2390.97,1872.53 2390.97,1875.87 C2390.97,1876.98 2391.88,1878.17 2393.7,1879.44 C2395.53,1880.71 2396.44,1881.9 2396.44,1883.01 C2396.44,1885.42 2395.59,1887.49 2393.89,1889.23 C2392.19,1890.96 2390.12,1891.82 2387.67,1891.82 C2385.23,1891.82 2383.17,1890.96 2381.5,1889.23 C2379.83,1887.49 2379,1885.42 2379,1883.01 C2379,1878.25 2381.07,1874.44 2385.22,1871.6 C2389.36,1868.75 2394.28,1867.33 2399.97,1867.33 C2407.45,1867.33 2413.6,1868.77 2418.43,1871.65 C2423.25,1874.52 2425.66,1878.87 2425.66,1884.68 C2425.66,1888.82 2425.23,1892.04 2424.37,1894.33 C2423.5,1896.62 2422.51,1898.01 2421.4,1898.5 C2420.28,1899 2419.29,1899.57 2418.43,1900.22 C2417.56,1900.87 2417.13,1901.81 2417.13,1903.05"/>
<path class="FiguredBass" d="M2382.15,1979.95 C2382.34,1979.95 2382.74,1979.55 2383.36,1978.74 C2386.02,1974.97 2389.73,1973.08 2394.49,1973.08 C2398.33,1973.08 2401.95,1974.5 2405.35,1977.35 C2408.75,1980.19 2411.56,1981.62 2413.79,1981.62 C2416.2,1981.62 2418.49,1980.91 2420.65,1979.48 C2422.82,1978.06 2424.54,1976.64 2425.8,1975.22 C2427.07,1973.79 2427.89,1973.08 2428.26,1973.08 C2428.88,1973.08 2429.44,1973.28 2429.93,1973.68 C2430.43,1974.09 2430.67,1974.6 2430.67,1975.22 C2430.67,1975.65 2429.41,1977.78 2426.87,1981.62 C2424.33,1985.45 2421.52,1989.89 2418.43,1994.93 C2415.34,1999.97 2412.52,2006.26 2409.99,2013.81 C2407.45,2021.36 2406.18,2028.56 2406.18,2035.43 C2406.18,2038.09 2406.46,2041.15 2407.02,2044.61 C2407.45,2047.27 2407.45,2048.79 2407.02,2049.16 C2406.71,2049.47 2406.18,2049.62 2405.44,2049.62 C2405.13,2049.62 2403.69,2049.22 2401.13,2048.41 C2398.56,2047.61 2396.1,2047.21 2393.75,2047.21 C2391.65,2047.21 2389.22,2047.61 2386.47,2048.41 C2383.72,2049.22 2382.18,2049.62 2381.88,2049.62 C2381.2,2049.62 2380.64,2049.34 2380.21,2048.79 C2379.77,2048.23 2379.71,2047.64 2380.02,2047.02 C2383.67,2038.3 2388.11,2029.81 2393.33,2021.56 C2398.56,2013.3 2405.1,2003.79 2412.95,1993.03 C2409.99,1994.64 2406.99,1995.44 2403.96,1995.44 C2400.74,1995.44 2397.49,1994 2394.21,1991.13 C2390.94,1988.25 2388.25,1986.81 2386.14,1986.81 C2384.6,1986.81 2383.25,1987.69 2382.11,1989.46 C2380.96,1991.22 2380.39,1993.86 2380.39,1997.39 L2380.39,2008.8 C2380.39,2010.35 2379.68,2011.12 2378.26,2011.12 C2376.71,2011.12 2375.94,2010.35 2375.94,2008.8 L2375.94,1975.4 C2375.94,1973.86 2376.71,1973.08 2378.26,1973.08 C2379.68,1973.08 2380.39,1973.86 2380.39,1975.4 L2380.39,1977.54 C2380.39,1978.03 2380.51,1978.46 2380.76,1978.83 C2381.5,1979.58 2381.97,1979.95 2382.15,1979.95"/>
<polyline class="FretDiagram" stroke="#fc0107" stroke-width="4.76" stroke-linejoin="bevel" points="462.646,227.452 675.755,227.452"/>
<polyline class="FretDiagram" stroke="#fc0107" stroke-width="4.76" stroke-linejoin="bevel" points="465.027,215.547 465.027,441.751"/>
<polyline class="FretDiagram" stroke="#fc0107" stroke-width="4.76" stroke-linejoin="bevel" points="506.696,215.547 506.696,441.751"/>
<polyline class="FretDiagram" stroke="#fc0107" stroke-width="4.76" stroke-linejoin="bevel" points="548.366,215.547 548.366,441.751"/>
<polyline class="FretDiagram" stroke="#fc0107" stroke-width="4.76" stroke-linejoin="bevel" points="590.035,215.547 590.035,441.751"/>
<polyline class="FretDiagram" stroke="#fc0107" stroke-width="4.76" stroke-linejoin="bevel" points="631.704,215.547 631.704,441.751"/>
<polyline class="FretDiagram" stroke="#fc0107" stroke-width="4.76" stroke-linejoin="bevel" points="673.373,215.547 673.373,441.751"/>
<polyline class="FretDiagram" stroke="#fc0107" stroke-width="4.76" stroke-linejoin="bevel" points="465.027,275.074 673.373,275.074"/>
<polyline class="FretDiagram" stroke="#fc0107" stroke-width="4.76" stroke-linejoin="bevel" points="465.027,322.696 673.373,322.696"/>
<polyline class="FretDiagram" stroke="#fc0107" stroke-width="4.76" stroke-linejoin="bevel" points="465.027,370.318 673.373,370.318"/>
<polyline class="FretDiagram" stroke="#fc0107" stroke-width="4.76" stroke-linejoin="bevel" points="465.027,417.94 673.373,417.94"/>
<path class="FretDiagram" fill="#fc0107" fill-rule="evenodd" d="M562.95,251.263 C562.95,259.318 556.42,265.847 548.366,265.847 C540.311,265.847 533.781,259.318 533.781,251.263 C533.781,243.208 540.311,236.679 548.366,236.679 C556.42,236.679 562.95,243.208 562.95,251.263"/>
<path class="FretDiagram" fill="#fc0107" fill-rule="evenodd" d="M604.619,346.507 C604.619,354.562 598.09,361.091 590.035,361.091 C581.98,361.091 575.451,354.562 575.451,346.507 C575.451,338.453 581.98,331.923 590.035,331.923 C598.09,331.923 604.619,338.453 604.619,346.507"/>
<path class="FretDiagram" fill="#fc0107" fill-rule="evenodd" d="M646.288,298.885 C646.288,306.94 639.759,313.469 631.704,313.469 C623.649,313.469 617.12,306.94 617.12,298.885 C617.12,290.83 623.649,284.301 631.704,284.301 C639.759,284.301 646.288,290.83 646.288,298.885"/>
<path class="FretDiagram" fill="#fc0107" fill-rule="evenodd" d="M687.958,298.885 C687.958,306.94 681.428,313.469 673.373,313.469 C665.319,313.469 658.789,306.94 658.789,298.885 C658.789,290.83 665.319,284.301 673.373,284.301 C681.428,284.301 687.958,290.83 687.958,298.885"/>
<polyline class="FretDiagram" fill="none" stroke="#fc0107" stroke-width="6.86" stroke-linecap="round" stroke-linejoin="bevel" points="448.359,163.162 481.695,196.498"/>
<polyline class="FretDiagram" fill="none" stroke="#fc0107" stroke-width="6.86" stroke-linecap="round" stroke-linejoin="bevel" points="448.359,196.498 481.695,163.162"/>
<polyline class="FretDiagram" fill="none" stroke="#fc0107" stroke-width="6.86" stroke-linecap="round" stroke-linejoin="bevel" points="490.029,163.162 523.364,196.498"/>
<polyline class="FretDiagram" fill="none" stroke="#fc0107" stroke-width="6.86" stroke-linecap="round" stroke-linejoin="bevel" points="490.029,196.498 523.364,163.162"/>
<path class="FretDiagram" fill="#fc0107" d="M426.623,268.365 L398.218,268.365 L398.218,259.53 L428.808,217.16 L434.983,217.16 L434.983,260.86 L444.958,260.86 L444.958,268.365 L434.983,268.365 L434.983,284.515 L426.623,284.515 L426.623,268.365 M426.623,260.86 L426.623,231.41 L405.533,260.86 L426.623,260.86 "/>
<path class="Bracket" transform="matrix(8.6315,0,0,10.0442,76.1283,2396.23)" d="M0.92002,-50 C2.69004,-51.88 6.2,-55.8 6.2,-63 C6.2,-72.1 2.25996,-81.32 2.25996,-86.97 C2.25996,-93.06 5.84004,-98.84 5.95,-99 C6.05996,-99.16 6.05,-99.39 5.94004,-99.46 C5.82998,-99.53 5.62002,-99.47 5.49004,-99.32 C5.35996,-99.17 0,-93.75 0,-85.6 C0,-76.75 3.5,-70.58 3.5,-59.07 C3.5,-56.89 2.55996,-53.36 0.1,-50.33 C-0.0799805,-50.17 -0.1,-49.89 0.0599609,-49.7 L0.0700195,-49.69 L0.1,-49.66 C2.55996,-46.63 3.5,-43.1 3.5,-40.92 C3.5,-29.4 0,-23.24 0,-14.39 C0,-6.25 5.35996,-0.8 5.49004,-0.659961 C5.62002,-0.52002 5.8,-0.42998 5.94004,-0.52002 C6.07998,-0.609961 6.07998,-0.77998 5.95,-0.97998 C5.82002,-1.17998 2.25996,-6.92002 2.25996,-13.01 C2.25996,-18.66 6.2,-27.9 6.2,-37 C6.2,-44.3 2.69004,-48.12 0.92002,-50"/>
</svg>
