<?xml version="1.0" encoding="UTF-8" standalone="no"?>
<svg width="4209.44px" height="2976.38px" viewBox="0 0 4209.44 2976.38"
 xmlns="http://www.w3.org/2000/svg" xmlns:xlink="http://www.w3.org/1999/xlink" version="1.2" baseProfile="tiny">
<title>LaMineur (10)</title>
<desc>Generated by MuseScore 3.6.2</desc>
<polyline class="StaffLines" fill="none" stroke="#000000" stroke-width="6.55" stroke-linejoin="bevel" points="153.819,558.425 4138.58,558.425"/>
<polyline class="StaffLines" fill="none" stroke="#000000" stroke-width="6.55" stroke-linejoin="bevel" points="153.819,647.717 4138.58,647.717"/>
<polyline class="StaffLines" fill="none" stroke="#000000" stroke-width="6.55" stroke-linejoin="bevel" points="153.819,737.008 4138.58,737.008"/>
<polyline class="StaffLines" fill="none" stroke="#000000" stroke-width="6.55" stroke-linejoin="bevel" points="153.819,826.299 4138.58,826.299"/>
<polyline class="StaffLines" fill="none" stroke="#000000" stroke-width="6.55" stroke-linejoin="bevel" points="153.819,915.591 4138.58,915.591"/>
<polyline class="StaffLines" fill="none" stroke="#000000" stroke-width="6.55" stroke-linejoin="bevel" points="153.819,1004.88 4138.58,1004.88"/>
<polyline class="StaffLines" fill="none" stroke="#000000" stroke-width="6.55" stroke-linejoin="bevel" points="153.819,1391.81 4138.58,1391.81"/>
<polyline class="StaffLines" fill="none" stroke="#000000" stroke-width="6.55" stroke-linejoin="bevel" points="153.819,1451.34 4138.58,1451.34"/>
<polyline class="StaffLines" fill="none" stroke="#000000" stroke-width="6.55" stroke-linejoin="bevel" points="153.819,1510.87 4138.58,1510.87"/>
<polyline class="StaffLines" fill="none" stroke="#000000" stroke-width="6.55" stroke-linejoin="bevel" points="153.819,1570.39 4138.58,1570.39"/>
<polyline class="StaffLines" fill="none" stroke="#000000" stroke-width="6.55" stroke-linejoin="bevel" points="153.819,1629.92 4138.58,1629.92"/>
<polyline class="StaffLines" fill="none" stroke="#000000" stroke-width="6.55" stroke-linejoin="bevel" points="153.819,2099.26 4138.58,2099.26"/>
<polyline class="StaffLines" fill="none" stroke="#000000" stroke-width="6.55" stroke-linejoin="bevel" points="153.819,2158.79 4138.58,2158.79"/>
<polyline class="StaffLines" fill="none" stroke="#000000" stroke-width="6.55" stroke-linejoin="bevel" points="153.819,2218.32 4138.58,2218.32"/>
<polyline class="StaffLines" fill="none" stroke="#000000" stroke-width="6.55" stroke-linejoin="bevel" points="153.819,2277.85 4138.58,2277.85"/>
<polyline class="StaffLines" fill="none" stroke="#000000" stroke-width="6.55" stroke-linejoin="bevel" points="153.819,2337.37 4138.58,2337.37"/>
<path class="Symbol" transform="matrix(2.3811,0,0,2.3811,1662.8,2188.56)" d="M0,-0.1 C0,7.7 4,14 10.4,18.1 L10.9,17.4 C7.5,14.8 6.3,13.3 5.2,10.1 C4.2,7.2 3.7,4 3.7,-0.2 C3.7,-8.1 4.8,-12.3 10.9,-17.4 L10.5,-18.1 C3.9,-13.6 0,-8.5 0,-0.1"/>
<path class="Symbol" transform="matrix(2.3811,0,0,2.3811,1777.56,2188.56)" d="M3.7,-0.2 C3.7,4 3.2,7.2 2.2,10.1 C1,13.3 -0.2,14.8 -3.6,17.4 L-3,18.1 C3.4,14.1 7.3,7.6 7.3,-0.1 C7.3,-8.4 3.4,-13.8 -3.2,-18.1 L-3.6,-17.4 C2.6,-12.4 3.7,-8.1 3.7,-0.2"/>
<path class="Symbol" transform="matrix(2.3811,0,0,2.3811,1662.8,1629.92)" d="M0,-0.1 C0,7.7 4,14 10.4,18.1 L10.9,17.4 C7.5,14.8 6.3,13.3 5.2,10.1 C4.2,7.2 3.7,4 3.7,-0.2 C3.7,-8.1 4.8,-12.3 10.9,-17.4 L10.5,-18.1 C3.9,-13.6 0,-8.5 0,-0.1"/>
<path class="Symbol" transform="matrix(2.3811,0,0,2.3811,1777.56,1629.92)" d="M3.7,-0.2 C3.7,4 3.2,7.2 2.2,10.1 C1,13.3 -0.2,14.8 -3.6,17.4 L-3,18.1 C3.4,14.1 7.3,7.6 7.3,-0.1 C7.3,-8.4 3.4,-13.8 -3.2,-18.1 L-3.6,-17.4 C2.6,-12.4 3.7,-8.1 3.7,-0.2"/>
<path class="Symbol" transform="matrix(2.3811,0,0,2.3811,1673.64,885.827)" d="M0,-0.1 C0,7.7 4,14 10.4,18.1 L10.9,17.4 C7.5,14.8 6.3,13.3 5.2,10.1 C4.2,7.2 3.7,4 3.7,-0.2 C3.7,-8.1 4.8,-12.3 10.9,-17.4 L10.5,-18.1 C3.9,-13.6 0,-8.5 0,-0.1"/>
<path class="Symbol" transform="matrix(2.3811,0,0,2.3811,1778.65,885.827)" d="M3.7,-0.2 C3.7,4 3.2,7.2 2.2,10.1 C1,13.3 -0.2,14.8 -3.6,17.4 L-3,18.1 C3.4,14.1 7.3,7.6 7.3,-0.1 C7.3,-8.4 3.4,-13.8 -3.2,-18.1 L-3.6,-17.4 C2.6,-12.4 3.7,-8.1 3.7,-0.2"/>
<path class="Symbol" transform="matrix(2.3811,0,0,2.3811,1673.64,617.953)" d="M0,-0.1 C0,7.7 4,14 10.4,18.1 L10.9,17.4 C7.5,14.8 6.3,13.3 5.2,10.1 C4.2,7.2 3.7,4 3.7,-0.2 C3.7,-8.1 4.8,-12.3 10.9,-17.4 L10.5,-18.1 C3.9,-13.6 0,-8.5 0,-0.1"/>
<path class="Symbol" transform="matrix(2.3811,0,0,2.3811,1778.65,617.953)" d="M3.7,-0.2 C3.7,4 3.2,7.2 2.2,10.1 C1,13.3 -0.2,14.8 -3.6,17.4 L-3,18.1 C3.4,14.1 7.3,7.6 7.3,-0.1 C7.3,-8.4 3.4,-13.8 -3.2,-18.1 L-3.6,-17.4 C2.6,-12.4 3.7,-8.1 3.7,-0.2"/>
<path class="Symbol" transform="matrix(2.3811,0,0,2.3811,1673.64,528.661)" d="M0,-0.1 C0,7.7 4,14 10.4,18.1 L10.9,17.4 C7.5,14.8 6.3,13.3 5.2,10.1 C4.2,7.2 3.7,4 3.7,-0.2 C3.7,-8.1 4.8,-12.3 10.9,-17.4 L10.5,-18.1 C3.9,-13.6 0,-8.5 0,-0.1"/>
<path class="Symbol" transform="matrix(2.3811,0,0,2.3811,1778.65,528.661)" d="M3.7,-0.2 C3.7,4 3.2,7.2 2.2,10.1 C1,13.3 -0.2,14.8 -3.6,17.4 L-3,18.1 C3.4,14.1 7.3,7.6 7.3,-0.1 C7.3,-8.4 3.4,-13.8 -3.2,-18.1 L-3.6,-17.4 C2.6,-12.4 3.7,-8.1 3.7,-0.2"/>
<polyline class="BarLine" fill="none" stroke="#000000" stroke-width="10.71" stroke-linejoin="bevel" points="159.176,2095.99 159.176,2340.65"/>
<polyline class="BarLine" fill="none" stroke="#000000" stroke-width="10.71" stroke-linejoin="bevel" points="987.365,2095.99 987.365,2340.65"/>
<polyline class="BarLine" fill="none" stroke="#000000" stroke-width="10.71" stroke-linejoin="bevel" points="1580.06,2095.99 1580.06,2340.65"/>
<polyline class="BarLine" fill="none" stroke="#000000" stroke-width="10.71" stroke-linejoin="bevel" points="2172.33,2095.99 2172.33,2340.65"/>
<polyline class="BarLine" fill="none" stroke="#000000" stroke-width="10.71" stroke-linejoin="bevel" points="2827.8,2095.99 2827.8,2340.65"/>
<polyline class="BarLine" fill="none" stroke="#000000" stroke-width="10.71" stroke-linejoin="bevel" points="3549.45,2095.99 3549.45,2340.65"/>
<polyline class="BarLine" fill="none" stroke="#000000" stroke-width="10.71" stroke-linejoin="bevel" points="4100.48,2095.99 4100.48,2340.65"/>
<polyline class="BarLine" fill="none" stroke="#000000" stroke-width="10.71" stroke-linejoin="bevel" points="4133.22,2095.99 4133.22,2340.65"/>
<polyline class="BarLine" fill="none" stroke="#000000" stroke-width="10.71" stroke-linejoin="bevel" points="159.176,1388.54 159.176,2099.26"/>
<polyline class="BarLine" fill="none" stroke="#000000" stroke-width="10.71" stroke-linejoin="bevel" points="987.365,1388.54 987.365,1633.2"/>
<polyline class="BarLine" fill="none" stroke="#000000" stroke-width="10.71" stroke-linejoin="bevel" points="1580.06,1388.54 1580.06,1633.2"/>
<polyline class="BarLine" fill="none" stroke="#000000" stroke-width="10.71" stroke-linejoin="bevel" points="2172.33,1388.54 2172.33,1633.2"/>
<polyline class="BarLine" fill="none" stroke="#000000" stroke-width="10.71" stroke-linejoin="bevel" points="2827.8,1388.54 2827.8,1633.2"/>
<polyline class="BarLine" fill="none" stroke="#000000" stroke-width="10.71" stroke-linejoin="bevel" points="3549.45,1388.54 3549.45,1633.2"/>
<polyline class="BarLine" fill="none" stroke="#000000" stroke-width="10.71" stroke-linejoin="bevel" points="4100.48,1388.54 4100.48,1633.2"/>
<polyline class="BarLine" fill="none" stroke="#000000" stroke-width="10.71" stroke-linejoin="bevel" points="4133.22,1388.54 4133.22,1633.2"/>
<polyline class="BarLine" fill="none" stroke="#000000" stroke-width="10.71" stroke-linejoin="bevel" points="159.176,555.151 159.176,1391.81"/>
<polyline class="BarLine" fill="none" stroke="#000000" stroke-width="10.71" stroke-linejoin="bevel" points="987.365,555.151 987.365,1008.16"/>
<polyline class="BarLine" fill="none" stroke="#000000" stroke-width="10.71" stroke-linejoin="bevel" points="1580.06,555.151 1580.06,1008.16"/>
<polyline class="BarLine" fill="none" stroke="#000000" stroke-width="10.71" stroke-linejoin="bevel" points="2172.33,555.151 2172.33,1008.16"/>
<polyline class="BarLine" fill="none" stroke="#000000" stroke-width="10.71" stroke-linejoin="bevel" points="2827.8,555.151 2827.8,1008.16"/>
<polyline class="BarLine" fill="none" stroke="#000000" stroke-width="10.71" stroke-linejoin="bevel" points="3549.45,555.151 3549.45,1008.16"/>
<polyline class="BarLine" fill="none" stroke="#000000" stroke-width="10.71" stroke-linejoin="bevel" points="4100.48,555.151 4100.48,1008.16"/>
<polyline class="BarLine" fill="none" stroke="#000000" stroke-width="10.71" stroke-linejoin="bevel" points="4133.22,555.151 4133.22,1008.16"/>
<path class="Accidental" transform="matrix(2.3811,0,0,2.3811,1038.79,1570.39)" d="M23.3,-10.6 C23.9,-10.7 24.4,-11.4 24.4,-12 L24.4,-17.9 C24.4,-18.7 23.8,-19.3 23,-19.3 L22.8,-19.3 L19.5,-18.6 L19.5,-33.5 L16.7,-33.5 L16.7,-18 L7.8,-16.2 L7.8,-30.3 L5,-30.3 L5,-15.6 L1.1,-14.8 C0.5,-14.7 0,-14 0,-13.4 L0,-13.2 L0,-7.4 L0,-7.6 C0,-6.8 0.6,-6.2 1.4,-6.2 L1.7,-6.2 L5,-6.9 L5,9.6 L1.1,10.4 C0.5,10.5 0,11.2 0,11.8 L0,17.6 C0,18.4 0.6,19 1.4,19 L1.7,19 L5,18.3 L5,33.2 L7.8,33.2 L7.8,17.7 L16.7,15.9 L16.7,30 L19.5,30 L19.5,15.3 L23.3,14.6 C23.9,14.5 24.4,13.8 24.4,13.2 L24.4,7.3 C24.4,6.5 23.8,5.9 23,5.9 L22.8,5.9 L19.5,6.6 L19.5,-9.9 L23.3,-10.6 M7.8,9.1 L7.8,-7.5 L16.7,-9.3 L16.7,7.2 L7.8,9.1 "/>
<path class="Accidental" transform="matrix(2.3811,0,0,2.3811,2884.94,1570.39)" d="M23.3,-10.6 C23.9,-10.7 24.4,-11.4 24.4,-12 L24.4,-17.9 C24.4,-18.7 23.8,-19.3 23,-19.3 L22.8,-19.3 L19.5,-18.6 L19.5,-33.5 L16.7,-33.5 L16.7,-18 L7.8,-16.2 L7.8,-30.3 L5,-30.3 L5,-15.6 L1.1,-14.8 C0.5,-14.7 0,-14 0,-13.4 L0,-13.2 L0,-7.4 L0,-7.6 C0,-6.8 0.6,-6.2 1.4,-6.2 L1.7,-6.2 L5,-6.9 L5,9.6 L1.1,10.4 C0.5,10.5 0,11.2 0,11.8 L0,17.6 C0,18.4 0.6,19 1.4,19 L1.7,19 L5,18.3 L5,33.2 L7.8,33.2 L7.8,17.7 L16.7,15.9 L16.7,30 L19.5,30 L19.5,15.3 L23.3,14.6 C23.9,14.5 24.4,13.8 24.4,13.2 L24.4,7.3 C24.4,6.5 23.8,5.9 23,5.9 L22.8,5.9 L19.5,6.6 L19.5,-9.9 L23.3,-10.6 M7.8,9.1 L7.8,-7.5 L16.7,-9.3 L16.7,7.2 L7.8,9.1 "/>
<polyline class="Stem" fill="none" stroke="#000000" stroke-width="6.55" stroke-linejoin="bevel" points="3032.01,1622.3 3032.01,1324.84"/>
<polyline class="Stem" fill="none" stroke="#000000" stroke-width="6.55" stroke-linejoin="bevel" points="3254.28,1459.34 3254.28,1652.24"/>
<path class="Note" transform="matrix(2.3811,0,0,2.3811,519.076,2307.61)" d="M18.7,-13.6 C4.9,-13.6 0,-6.6 0,-0.1 C0,6.4 4.9,13.4 18.7,13.4 C32.5,13.4 37.3,6.4 37.3,-0.1 C37.3,-6.6 32.5,-13.6 18.7,-13.6 M10.4,-4.5 C10.3,-4.9 10.3,-5.3 10.3,-5.7 C10.3,-6.5 10.5,-7.3 10.9,-8 C11.6,-9 12.8,-9.7 14.3,-10 C15.6,-10.3 16.3,-10.5 18.9,-10.5 L19,-10.5 C23,-10.5 24.3,-6.8 25.4,-3 L25.7,-2 C26.5,0.6 26.9,2.8 26.9,4.5 C26.9,5.7 26.7,6.8 26.3,7.6 C25.7,8.7 24.7,9.4 23,9.8 C22.1,10 20.6,10.1 20.6,10.1 C20.1,10.1 19.7,10.2 19.3,10.2 C16.1,10.2 14.1,9 12.7,4.7 C11.5,1 11.3,-0.1 10.4,-4.5"/>
<path class="Note" transform="matrix(2.3811,0,0,2.3811,1111.77,2188.56)" d="M18.7,-13.6 C4.9,-13.6 0,-6.6 0,-0.1 C0,6.4 4.9,13.4 18.7,13.4 C32.5,13.4 37.3,6.4 37.3,-0.1 C37.3,-6.6 32.5,-13.6 18.7,-13.6 M10.4,-4.5 C10.3,-4.9 10.3,-5.3 10.3,-5.7 C10.3,-6.5 10.5,-7.3 10.9,-8 C11.6,-9 12.8,-9.7 14.3,-10 C15.6,-10.3 16.3,-10.5 18.9,-10.5 L19,-10.5 C23,-10.5 24.3,-6.8 25.4,-3 L25.7,-2 C26.5,0.6 26.9,2.8 26.9,4.5 C26.9,5.7 26.7,6.8 26.3,7.6 C25.7,8.7 24.7,9.4 23,9.8 C22.1,10 20.6,10.1 20.6,10.1 C20.1,10.1 19.7,10.2 19.3,10.2 C16.1,10.2 14.1,9 12.7,4.7 C11.5,1 11.3,-0.1 10.4,-4.5"/>
<path class="Note" transform="matrix(2.3811,0,0,2.3811,1688.75,2188.56)" d="M18.7,-13.6 C4.9,-13.6 0,-6.6 0,-0.1 C0,6.4 4.9,13.4 18.7,13.4 C32.5,13.4 37.3,6.4 37.3,-0.1 C37.3,-6.6 32.5,-13.6 18.7,-13.6 M10.4,-4.5 C10.3,-4.9 10.3,-5.3 10.3,-5.7 C10.3,-6.5 10.5,-7.3 10.9,-8 C11.6,-9 12.8,-9.7 14.3,-10 C15.6,-10.3 16.3,-10.5 18.9,-10.5 L19,-10.5 C23,-10.5 24.3,-6.8 25.4,-3 L25.7,-2 C26.5,0.6 26.9,2.8 26.9,4.5 C26.9,5.7 26.7,6.8 26.3,7.6 C25.7,8.7 24.7,9.4 23,9.8 C22.1,10 20.6,10.1 20.6,10.1 C20.1,10.1 19.7,10.2 19.3,10.2 C16.1,10.2 14.1,9 12.7,4.7 C11.5,1 11.3,-0.1 10.4,-4.5"/>
<path class="Note" transform="matrix(2.3811,0,0,2.3811,2260.8,2188.56)" d="M18.7,-13.6 C4.9,-13.6 0,-6.6 0,-0.1 C0,6.4 4.9,13.4 18.7,13.4 C32.5,13.4 37.3,6.4 37.3,-0.1 C37.3,-6.6 32.5,-13.6 18.7,-13.6 M10.4,-4.5 C10.3,-4.9 10.3,-5.3 10.3,-5.7 C10.3,-6.5 10.5,-7.3 10.9,-8 C11.6,-9 12.8,-9.7 14.3,-10 C15.6,-10.3 16.3,-10.5 18.9,-10.5 L19,-10.5 C23,-10.5 24.3,-6.8 25.4,-3 L25.7,-2 C26.5,0.6 26.9,2.8 26.9,4.5 C26.9,5.7 26.7,6.8 26.3,7.6 C25.7,8.7 24.7,9.4 23,9.8 C22.1,10 20.6,10.1 20.6,10.1 C20.1,10.1 19.7,10.2 19.3,10.2 C16.1,10.2 14.1,9 12.7,4.7 C11.5,1 11.3,-0.1 10.4,-4.5"/>
<path class="Note" transform="matrix(2.3811,0,0,2.3811,2952.2,2188.56)" d="M18.7,-13.6 C4.9,-13.6 0,-6.6 0,-0.1 C0,6.4 4.9,13.4 18.7,13.4 C32.5,13.4 37.3,6.4 37.3,-0.1 C37.3,-6.6 32.5,-13.6 18.7,-13.6 M10.4,-4.5 C10.3,-4.9 10.3,-5.3 10.3,-5.7 C10.3,-6.5 10.5,-7.3 10.9,-8 C11.6,-9 12.8,-9.7 14.3,-10 C15.6,-10.3 16.3,-10.5 18.9,-10.5 L19,-10.5 C23,-10.5 24.3,-6.8 25.4,-3 L25.7,-2 C26.5,0.6 26.9,2.8 26.9,4.5 C26.9,5.7 26.7,6.8 26.3,7.6 C25.7,8.7 24.7,9.4 23,9.8 C22.1,10 20.6,10.1 20.6,10.1 C20.1,10.1 19.7,10.2 19.3,10.2 C16.1,10.2 14.1,9 12.7,4.7 C11.5,1 11.3,-0.1 10.4,-4.5"/>
<path class="Note" transform="matrix(2.3811,0,0,2.3811,3632.19,2307.61)" d="M18.7,-13.6 C4.9,-13.6 0,-6.6 0,-0.1 C0,6.4 4.9,13.4 18.7,13.4 C32.5,13.4 37.3,6.4 37.3,-0.1 C37.3,-6.6 32.5,-13.6 18.7,-13.6 M10.4,-4.5 C10.3,-4.9 10.3,-5.3 10.3,-5.7 C10.3,-6.5 10.5,-7.3 10.9,-8 C11.6,-9 12.8,-9.7 14.3,-10 C15.6,-10.3 16.3,-10.5 18.9,-10.5 L19,-10.5 C23,-10.5 24.3,-6.8 25.4,-3 L25.7,-2 C26.5,0.6 26.9,2.8 26.9,4.5 C26.9,5.7 26.7,6.8 26.3,7.6 C25.7,8.7 24.7,9.4 23,9.8 C22.1,10 20.6,10.1 20.6,10.1 C20.1,10.1 19.7,10.2 19.3,10.2 C16.1,10.2 14.1,9 12.7,4.7 C11.5,1 11.3,-0.1 10.4,-4.5"/>
<path class="Note" transform="matrix(2.3811,0,0,2.3811,519.076,1629.92)" d="M18.7,-13.6 C4.9,-13.6 0,-6.6 0,-0.1 C0,6.4 4.9,13.4 18.7,13.4 C32.5,13.4 37.3,6.4 37.3,-0.1 C37.3,-6.6 32.5,-13.6 18.7,-13.6 M10.4,-4.5 C10.3,-4.9 10.3,-5.3 10.3,-5.7 C10.3,-6.5 10.5,-7.3 10.9,-8 C11.6,-9 12.8,-9.7 14.3,-10 C15.6,-10.3 16.3,-10.5 18.9,-10.5 L19,-10.5 C23,-10.5 24.3,-6.8 25.4,-3 L25.7,-2 C26.5,0.6 26.9,2.8 26.9,4.5 C26.9,5.7 26.7,6.8 26.3,7.6 C25.7,8.7 24.7,9.4 23,9.8 C22.1,10 20.6,10.1 20.6,10.1 C20.1,10.1 19.7,10.2 19.3,10.2 C16.1,10.2 14.1,9 12.7,4.7 C11.5,1 11.3,-0.1 10.4,-4.5"/>
<path class="Note" transform="matrix(2.3811,0,0,2.3811,519.076,1540.63)" d="M18.7,-13.6 C4.9,-13.6 0,-6.6 0,-0.1 C0,6.4 4.9,13.4 18.7,13.4 C32.5,13.4 37.3,6.4 37.3,-0.1 C37.3,-6.6 32.5,-13.6 18.7,-13.6 M10.4,-4.5 C10.3,-4.9 10.3,-5.3 10.3,-5.7 C10.3,-6.5 10.5,-7.3 10.9,-8 C11.6,-9 12.8,-9.7 14.3,-10 C15.6,-10.3 16.3,-10.5 18.9,-10.5 L19,-10.5 C23,-10.5 24.3,-6.8 25.4,-3 L25.7,-2 C26.5,0.6 26.9,2.8 26.9,4.5 C26.9,5.7 26.7,6.8 26.3,7.6 C25.7,8.7 24.7,9.4 23,9.8 C22.1,10 20.6,10.1 20.6,10.1 C20.1,10.1 19.7,10.2 19.3,10.2 C16.1,10.2 14.1,9 12.7,4.7 C11.5,1 11.3,-0.1 10.4,-4.5"/>
<path class="Note" transform="matrix(2.3811,0,0,2.3811,519.076,1481.1)" d="M18.7,-13.6 C4.9,-13.6 0,-6.6 0,-0.1 C0,6.4 4.9,13.4 18.7,13.4 C32.5,13.4 37.3,6.4 37.3,-0.1 C37.3,-6.6 32.5,-13.6 18.7,-13.6 M10.4,-4.5 C10.3,-4.9 10.3,-5.3 10.3,-5.7 C10.3,-6.5 10.5,-7.3 10.9,-8 C11.6,-9 12.8,-9.7 14.3,-10 C15.6,-10.3 16.3,-10.5 18.9,-10.5 L19,-10.5 C23,-10.5 24.3,-6.8 25.4,-3 L25.7,-2 C26.5,0.6 26.9,2.8 26.9,4.5 C26.9,5.7 26.7,6.8 26.3,7.6 C25.7,8.7 24.7,9.4 23,9.8 C22.1,10 20.6,10.1 20.6,10.1 C20.1,10.1 19.7,10.2 19.3,10.2 C16.1,10.2 14.1,9 12.7,4.7 C11.5,1 11.3,-0.1 10.4,-4.5"/>
<path class="Note" transform="matrix(2.3811,0,0,2.3811,1111.77,1629.92)" d="M18.7,-13.6 C4.9,-13.6 0,-6.6 0,-0.1 C0,6.4 4.9,13.4 18.7,13.4 C32.5,13.4 37.3,6.4 37.3,-0.1 C37.3,-6.6 32.5,-13.6 18.7,-13.6 M10.4,-4.5 C10.3,-4.9 10.3,-5.3 10.3,-5.7 C10.3,-6.5 10.5,-7.3 10.9,-8 C11.6,-9 12.8,-9.7 14.3,-10 C15.6,-10.3 16.3,-10.5 18.9,-10.5 L19,-10.5 C23,-10.5 24.3,-6.8 25.4,-3 L25.7,-2 C26.5,0.6 26.9,2.8 26.9,4.5 C26.9,5.7 26.7,6.8 26.3,7.6 C25.7,8.7 24.7,9.4 23,9.8 C22.1,10 20.6,10.1 20.6,10.1 C20.1,10.1 19.7,10.2 19.3,10.2 C16.1,10.2 14.1,9 12.7,4.7 C11.5,1 11.3,-0.1 10.4,-4.5"/>
<path class="Note" transform="matrix(2.3811,0,0,2.3811,1111.77,1570.39)" d="M18.7,-13.6 C4.9,-13.6 0,-6.6 0,-0.1 C0,6.4 4.9,13.4 18.7,13.4 C32.5,13.4 37.3,6.4 37.3,-0.1 C37.3,-6.6 32.5,-13.6 18.7,-13.6 M10.4,-4.5 C10.3,-4.9 10.3,-5.3 10.3,-5.7 C10.3,-6.5 10.5,-7.3 10.9,-8 C11.6,-9 12.8,-9.7 14.3,-10 C15.6,-10.3 16.3,-10.5 18.9,-10.5 L19,-10.5 C23,-10.5 24.3,-6.8 25.4,-3 L25.7,-2 C26.5,0.6 26.9,2.8 26.9,4.5 C26.9,5.7 26.7,6.8 26.3,7.6 C25.7,8.7 24.7,9.4 23,9.8 C22.1,10 20.6,10.1 20.6,10.1 C20.1,10.1 19.7,10.2 19.3,10.2 C16.1,10.2 14.1,9 12.7,4.7 C11.5,1 11.3,-0.1 10.4,-4.5"/>
<path class="Note" transform="matrix(2.3811,0,0,2.3811,1111.77,1510.87)" d="M18.7,-13.6 C4.9,-13.6 0,-6.6 0,-0.1 C0,6.4 4.9,13.4 18.7,13.4 C32.5,13.4 37.3,6.4 37.3,-0.1 C37.3,-6.6 32.5,-13.6 18.7,-13.6 M10.4,-4.5 C10.3,-4.9 10.3,-5.3 10.3,-5.7 C10.3,-6.5 10.5,-7.3 10.9,-8 C11.6,-9 12.8,-9.7 14.3,-10 C15.6,-10.3 16.3,-10.5 18.9,-10.5 L19,-10.5 C23,-10.5 24.3,-6.8 25.4,-3 L25.7,-2 C26.5,0.6 26.9,2.8 26.9,4.5 C26.9,5.7 26.7,6.8 26.3,7.6 C25.7,8.7 24.7,9.4 23,9.8 C22.1,10 20.6,10.1 20.6,10.1 C20.1,10.1 19.7,10.2 19.3,10.2 C16.1,10.2 14.1,9 12.7,4.7 C11.5,1 11.3,-0.1 10.4,-4.5"/>
<path class="Note" transform="matrix(2.3811,0,0,2.3811,1688.75,1629.92)" d="M18.7,-13.6 C4.9,-13.6 0,-6.6 0,-0.1 C0,6.4 4.9,13.4 18.7,13.4 C32.5,13.4 37.3,6.4 37.3,-0.1 C37.3,-6.6 32.5,-13.6 18.7,-13.6 M10.4,-4.5 C10.3,-4.9 10.3,-5.3 10.3,-5.7 C10.3,-6.5 10.5,-7.3 10.9,-8 C11.6,-9 12.8,-9.7 14.3,-10 C15.6,-10.3 16.3,-10.5 18.9,-10.5 L19,-10.5 C23,-10.5 24.3,-6.8 25.4,-3 L25.7,-2 C26.5,0.6 26.9,2.8 26.9,4.5 C26.9,5.7 26.7,6.8 26.3,7.6 C25.7,8.7 24.7,9.4 23,9.8 C22.1,10 20.6,10.1 20.6,10.1 C20.1,10.1 19.7,10.2 19.3,10.2 C16.1,10.2 14.1,9 12.7,4.7 C11.5,1 11.3,-0.1 10.4,-4.5"/>
<path class="Note" transform="matrix(2.3811,0,0,2.3811,1688.75,1540.63)" d="M18.7,-13.6 C4.9,-13.6 0,-6.6 0,-0.1 C0,6.4 4.9,13.4 18.7,13.4 C32.5,13.4 37.3,6.4 37.3,-0.1 C37.3,-6.6 32.5,-13.6 18.7,-13.6 M10.4,-4.5 C10.3,-4.9 10.3,-5.3 10.3,-5.7 C10.3,-6.5 10.5,-7.3 10.9,-8 C11.6,-9 12.8,-9.7 14.3,-10 C15.6,-10.3 16.3,-10.5 18.9,-10.5 L19,-10.5 C23,-10.5 24.3,-6.8 25.4,-3 L25.7,-2 C26.5,0.6 26.9,2.8 26.9,4.5 C26.9,5.7 26.7,6.8 26.3,7.6 C25.7,8.7 24.7,9.4 23,9.8 C22.1,10 20.6,10.1 20.6,10.1 C20.1,10.1 19.7,10.2 19.3,10.2 C16.1,10.2 14.1,9 12.7,4.7 C11.5,1 11.3,-0.1 10.4,-4.5"/>
<path class="Note" transform="matrix(2.3811,0,0,2.3811,1688.75,1481.1)" d="M18.7,-13.6 C4.9,-13.6 0,-6.6 0,-0.1 C0,6.4 4.9,13.4 18.7,13.4 C32.5,13.4 37.3,6.4 37.3,-0.1 C37.3,-6.6 32.5,-13.6 18.7,-13.6 M10.4,-4.5 C10.3,-4.9 10.3,-5.3 10.3,-5.7 C10.3,-6.5 10.5,-7.3 10.9,-8 C11.6,-9 12.8,-9.7 14.3,-10 C15.6,-10.3 16.3,-10.5 18.9,-10.5 L19,-10.5 C23,-10.5 24.3,-6.8 25.4,-3 L25.7,-2 C26.5,0.6 26.9,2.8 26.9,4.5 C26.9,5.7 26.7,6.8 26.3,7.6 C25.7,8.7 24.7,9.4 23,9.8 C22.1,10 20.6,10.1 20.6,10.1 C20.1,10.1 19.7,10.2 19.3,10.2 C16.1,10.2 14.1,9 12.7,4.7 C11.5,1 11.3,-0.1 10.4,-4.5"/>
<path class="Note" transform="matrix(2.3811,0,0,2.3811,2260.8,1629.92)" d="M18.7,-13.6 C4.9,-13.6 0,-6.6 0,-0.1 C0,6.4 4.9,13.4 18.7,13.4 C32.5,13.4 37.3,6.4 37.3,-0.1 C37.3,-6.6 32.5,-13.6 18.7,-13.6 M10.4,-4.5 C10.3,-4.9 10.3,-5.3 10.3,-5.7 C10.3,-6.5 10.5,-7.3 10.9,-8 C11.6,-9 12.8,-9.7 14.3,-10 C15.6,-10.3 16.3,-10.5 18.9,-10.5 L19,-10.5 C23,-10.5 24.3,-6.8 25.4,-3 L25.7,-2 C26.5,0.6 26.9,2.8 26.9,4.5 C26.9,5.7 26.7,6.8 26.3,7.6 C25.7,8.7 24.7,9.4 23,9.8 C22.1,10 20.6,10.1 20.6,10.1 C20.1,10.1 19.7,10.2 19.3,10.2 C16.1,10.2 14.1,9 12.7,4.7 C11.5,1 11.3,-0.1 10.4,-4.5"/>
<path class="Note" transform="matrix(2.3811,0,0,2.3811,2260.8,1540.63)" d="M18.7,-13.6 C4.9,-13.6 0,-6.6 0,-0.1 C0,6.4 4.9,13.4 18.7,13.4 C32.5,13.4 37.3,6.4 37.3,-0.1 C37.3,-6.6 32.5,-13.6 18.7,-13.6 M10.4,-4.5 C10.3,-4.9 10.3,-5.3 10.3,-5.7 C10.3,-6.5 10.5,-7.3 10.9,-8 C11.6,-9 12.8,-9.7 14.3,-10 C15.6,-10.3 16.3,-10.5 18.9,-10.5 L19,-10.5 C23,-10.5 24.3,-6.8 25.4,-3 L25.7,-2 C26.5,0.6 26.9,2.8 26.9,4.5 C26.9,5.7 26.7,6.8 26.3,7.6 C25.7,8.7 24.7,9.4 23,9.8 C22.1,10 20.6,10.1 20.6,10.1 C20.1,10.1 19.7,10.2 19.3,10.2 C16.1,10.2 14.1,9 12.7,4.7 C11.5,1 11.3,-0.1 10.4,-4.5"/>
<path class="Note" transform="matrix(2.3811,0,0,2.3811,2343.06,1510.87)" d="M18.7,-13.6 C4.9,-13.6 0,-6.6 0,-0.1 C0,6.4 4.9,13.4 18.7,13.4 C32.5,13.4 37.3,6.4 37.3,-0.1 C37.3,-6.6 32.5,-13.6 18.7,-13.6 M10.4,-4.5 C10.3,-4.9 10.3,-5.3 10.3,-5.7 C10.3,-6.5 10.5,-7.3 10.9,-8 C11.6,-9 12.8,-9.7 14.3,-10 C15.6,-10.3 16.3,-10.5 18.9,-10.5 L19,-10.5 C23,-10.5 24.3,-6.8 25.4,-3 L25.7,-2 C26.5,0.6 26.9,2.8 26.9,4.5 C26.9,5.7 26.7,6.8 26.3,7.6 C25.7,8.7 24.7,9.4 23,9.8 C22.1,10 20.6,10.1 20.6,10.1 C20.1,10.1 19.7,10.2 19.3,10.2 C16.1,10.2 14.1,9 12.7,4.7 C11.5,1 11.3,-0.1 10.4,-4.5"/>
<path class="Note" transform="matrix(2.3811,0,0,2.3811,2957.92,1629.92)" d="M31.5,-8.1 C29.7,-11.4 25.9,-13.2 21.3,-13.2 C17.9,-13.2 14.2,-12.2 10.6,-10.3 C4,-6.8 0,-0.9 0,4.2 C0,5.6 0.3,7 1,8.3 C2.8,11.6 6.6,13.3 11.2,13.3 C14.6,13.3 18.3,12.4 21.9,10.5 C28.5,7 32.5,1.1 32.5,-4 C32.5,-5.4 32.2,-6.8 31.5,-8.1 M27.2,-1.3 C25.5,0.4 22.1,2.5 18.5,4.5 C14.9,6.5 11.3,8 8.9,8.5 C8.4,8.6 7.9,8.7 7.4,8.7 C5.8,8.7 4.6,8.1 3.9,6.8 C3.6,6.3 3.4,5.7 3.4,5.1 C3.4,4 4.1,2.7 5.2,1.6 C6.9,-0.1 10.2,-2.2 13.8,-4.2 C17.4,-6.2 21,-7.7 23.4,-8.2 C23.9,-8.3 24.4,-8.4 24.9,-8.4 C26.5,-8.4 27.8,-7.8 28.5,-6.5 C28.8,-6 28.9,-5.4 28.9,-4.8 C28.9,-3.7 28.3,-2.5 27.2,-1.3"/>
<path class="Note" transform="matrix(2.3811,0,0,2.3811,2957.92,1570.39)" d="M31.5,-8.1 C29.7,-11.4 25.9,-13.2 21.3,-13.2 C17.9,-13.2 14.2,-12.2 10.6,-10.3 C4,-6.8 0,-0.9 0,4.2 C0,5.6 0.3,7 1,8.3 C2.8,11.6 6.6,13.3 11.2,13.3 C14.6,13.3 18.3,12.4 21.9,10.5 C28.5,7 32.5,1.1 32.5,-4 C32.5,-5.4 32.2,-6.8 31.5,-8.1 M27.2,-1.3 C25.5,0.4 22.1,2.5 18.5,4.5 C14.9,6.5 11.3,8 8.9,8.5 C8.4,8.6 7.9,8.7 7.4,8.7 C5.8,8.7 4.6,8.1 3.9,6.8 C3.6,6.3 3.4,5.7 3.4,5.1 C3.4,4 4.1,2.7 5.2,1.6 C6.9,-0.1 10.2,-2.2 13.8,-4.2 C17.4,-6.2 21,-7.7 23.4,-8.2 C23.9,-8.3 24.4,-8.4 24.9,-8.4 C26.5,-8.4 27.8,-7.8 28.5,-6.5 C28.8,-6 28.9,-5.4 28.9,-4.8 C28.9,-3.7 28.3,-2.5 27.2,-1.3"/>
<path class="Note" transform="matrix(2.3811,0,0,2.3811,2957.92,1510.87)" d="M31.5,-8.1 C29.7,-11.4 25.9,-13.2 21.3,-13.2 C17.9,-13.2 14.2,-12.2 10.6,-10.3 C4,-6.8 0,-0.9 0,4.2 C0,5.6 0.3,7 1,8.3 C2.8,11.6 6.6,13.3 11.2,13.3 C14.6,13.3 18.3,12.4 21.9,10.5 C28.5,7 32.5,1.1 32.5,-4 C32.5,-5.4 32.2,-6.8 31.5,-8.1 M27.2,-1.3 C25.5,0.4 22.1,2.5 18.5,4.5 C14.9,6.5 11.3,8 8.9,8.5 C8.4,8.6 7.9,8.7 7.4,8.7 C5.8,8.7 4.6,8.1 3.9,6.8 C3.6,6.3 3.4,5.7 3.4,5.1 C3.4,4 4.1,2.7 5.2,1.6 C6.9,-0.1 10.2,-2.2 13.8,-4.2 C17.4,-6.2 21,-7.7 23.4,-8.2 C23.9,-8.3 24.4,-8.4 24.9,-8.4 C26.5,-8.4 27.8,-7.8 28.5,-6.5 C28.8,-6 28.9,-5.4 28.9,-4.8 C28.9,-3.7 28.3,-2.5 27.2,-1.3"/>
<path class="Note" transform="matrix(2.3811,0,0,2.3811,3251.01,1451.34)" d="M31.5,-8.1 C29.7,-11.4 25.9,-13.2 21.3,-13.2 C17.9,-13.2 14.2,-12.2 10.6,-10.3 C4,-6.8 0,-0.9 0,4.2 C0,5.6 0.3,7 1,8.3 C2.8,11.6 6.6,13.3 11.2,13.3 C14.6,13.3 18.3,12.4 21.9,10.5 C28.5,7 32.5,1.1 32.5,-4 C32.5,-5.4 32.2,-6.8 31.5,-8.1 M27.2,-1.3 C25.5,0.4 22.1,2.5 18.5,4.5 C14.9,6.5 11.3,8 8.9,8.5 C8.4,8.6 7.9,8.7 7.4,8.7 C5.8,8.7 4.6,8.1 3.9,6.8 C3.6,6.3 3.4,5.7 3.4,5.1 C3.4,4 4.1,2.7 5.2,1.6 C6.9,-0.1 10.2,-2.2 13.8,-4.2 C17.4,-6.2 21,-7.7 23.4,-8.2 C23.9,-8.3 24.4,-8.4 24.9,-8.4 C26.5,-8.4 27.8,-7.8 28.5,-6.5 C28.8,-6 28.9,-5.4 28.9,-4.8 C28.9,-3.7 28.3,-2.5 27.2,-1.3"/>
<path class="Note" transform="matrix(2.3811,0,0,2.3811,3632.19,1629.92)" d="M18.7,-13.6 C4.9,-13.6 0,-6.6 0,-0.1 C0,6.4 4.9,13.4 18.7,13.4 C32.5,13.4 37.3,6.4 37.3,-0.1 C37.3,-6.6 32.5,-13.6 18.7,-13.6 M10.4,-4.5 C10.3,-4.9 10.3,-5.3 10.3,-5.7 C10.3,-6.5 10.5,-7.3 10.9,-8 C11.6,-9 12.8,-9.7 14.3,-10 C15.6,-10.3 16.3,-10.5 18.9,-10.5 L19,-10.5 C23,-10.5 24.3,-6.8 25.4,-3 L25.7,-2 C26.5,0.6 26.9,2.8 26.9,4.5 C26.9,5.7 26.7,6.8 26.3,7.6 C25.7,8.7 24.7,9.4 23,9.8 C22.1,10 20.6,10.1 20.6,10.1 C20.1,10.1 19.7,10.2 19.3,10.2 C16.1,10.2 14.1,9 12.7,4.7 C11.5,1 11.3,-0.1 10.4,-4.5"/>
<path class="Note" transform="matrix(2.3811,0,0,2.3811,3632.19,1540.63)" d="M18.7,-13.6 C4.9,-13.6 0,-6.6 0,-0.1 C0,6.4 4.9,13.4 18.7,13.4 C32.5,13.4 37.3,6.4 37.3,-0.1 C37.3,-6.6 32.5,-13.6 18.7,-13.6 M10.4,-4.5 C10.3,-4.9 10.3,-5.3 10.3,-5.7 C10.3,-6.5 10.5,-7.3 10.9,-8 C11.6,-9 12.8,-9.7 14.3,-10 C15.6,-10.3 16.3,-10.5 18.9,-10.5 L19,-10.5 C23,-10.5 24.3,-6.8 25.4,-3 L25.7,-2 C26.5,0.6 26.9,2.8 26.9,4.5 C26.9,5.7 26.7,6.8 26.3,7.6 C25.7,8.7 24.7,9.4 23,9.8 C22.1,10 20.6,10.1 20.6,10.1 C20.1,10.1 19.7,10.2 19.3,10.2 C16.1,10.2 14.1,9 12.7,4.7 C11.5,1 11.3,-0.1 10.4,-4.5"/>
<path class="Note" transform="matrix(2.3811,0,0,2.3811,3632.19,1481.1)" d="M18.7,-13.6 C4.9,-13.6 0,-6.6 0,-0.1 C0,6.4 4.9,13.4 18.7,13.4 C32.5,13.4 37.3,6.4 37.3,-0.1 C37.3,-6.6 32.5,-13.6 18.7,-13.6 M10.4,-4.5 C10.3,-4.9 10.3,-5.3 10.3,-5.7 C10.3,-6.5 10.5,-7.3 10.9,-8 C11.6,-9 12.8,-9.7 14.3,-10 C15.6,-10.3 16.3,-10.5 18.9,-10.5 L19,-10.5 C23,-10.5 24.3,-6.8 25.4,-3 L25.7,-2 C26.5,0.6 26.9,2.8 26.9,4.5 C26.9,5.7 26.7,6.8 26.3,7.6 C25.7,8.7 24.7,9.4 23,9.8 C22.1,10 20.6,10.1 20.6,10.1 C20.1,10.1 19.7,10.2 19.3,10.2 C16.1,10.2 14.1,9 12.7,4.7 C11.5,1 11.3,-0.1 10.4,-4.5"/>
<path class="Note" d="M597.895,941.13 C602.466,941.13 604.752,943.997 604.752,949.73 C604.752,953.758 602.234,959.763 597.198,967.742 C593.17,974.173 591.155,980.448 591.155,986.568 C591.155,990.055 596.23,991.798 606.379,991.798 C614.746,991.798 626.406,987.266 641.358,978.201 C626.328,992.689 613.274,999.933 602.195,999.933 C592.201,999.933 585.228,998.422 581.277,995.401 C580.27,994.626 579.418,993.696 578.721,992.611 C574.847,997.337 568.378,999.7 559.313,999.7 C550.636,999.7 543.974,997.918 539.325,994.355 C536.226,991.953 534.677,988.118 534.677,982.85 C534.677,974.483 539.635,965.341 549.552,955.424 C560.166,944.81 572.445,939.503 586.391,939.503 C589.877,939.503 592.433,940.781 594.06,943.338 C595.378,941.866 596.656,941.13 597.895,941.13 M577.094,987.382 C577.016,986.762 576.977,986.142 576.977,985.523 C576.977,985.213 580.929,974.405 588.831,953.1 C589.606,951.008 590.38,949.226 591.155,947.754 C588.134,947.134 585.151,946.824 582.207,946.824 C576.784,946.824 569.579,951.434 560.592,960.653 C552.534,968.866 548.506,975.955 548.506,981.92 C548.506,988.505 551.643,991.798 557.919,991.798 C565.511,991.798 571.903,990.326 577.094,987.382"/>
<path class="Note" d="M597.895,583.965 C602.466,583.965 604.752,586.831 604.752,592.564 C604.752,596.593 602.234,602.597 597.198,610.577 C593.17,617.007 591.155,623.283 591.155,629.403 C591.155,632.889 596.23,634.633 606.379,634.633 C614.746,634.633 626.406,630.1 641.358,621.036 C626.328,635.524 613.274,642.767 602.195,642.767 C592.201,642.767 585.228,641.257 581.277,638.235 C580.27,637.46 579.418,636.531 578.721,635.446 C574.847,640.172 568.378,642.535 559.313,642.535 C550.636,642.535 543.974,640.753 539.325,637.189 C536.226,634.788 534.677,630.953 534.677,625.684 C534.677,617.317 539.635,608.175 549.552,598.259 C560.166,587.645 572.445,582.338 586.391,582.338 C589.877,582.338 592.433,583.616 594.06,586.173 C595.378,584.701 596.656,583.965 597.895,583.965 M577.094,630.217 C577.016,629.597 576.977,628.977 576.977,628.357 C576.977,628.047 580.929,617.24 588.831,595.934 C589.606,593.843 590.38,592.061 591.155,590.589 C588.134,589.969 585.151,589.659 582.207,589.659 C576.784,589.659 569.579,594.269 560.592,603.488 C552.534,611.7 548.506,618.789 548.506,624.755 C548.506,631.34 551.643,634.633 557.919,634.633 C565.511,634.633 571.903,633.161 577.094,630.217"/>
<path class="Note" d="M597.895,494.673 C602.466,494.673 604.752,497.54 604.752,503.273 C604.752,507.302 602.234,513.306 597.198,521.286 C593.17,527.716 591.155,533.991 591.155,540.112 C591.155,543.598 596.23,545.341 606.379,545.341 C614.746,545.341 626.406,540.809 641.358,531.745 C626.328,546.232 613.274,553.476 602.195,553.476 C592.201,553.476 585.228,551.965 581.277,548.944 C580.27,548.169 579.418,547.239 578.721,546.155 C574.847,550.881 568.378,553.244 559.313,553.244 C550.636,553.244 543.974,551.462 539.325,547.898 C536.226,545.496 534.677,541.661 534.677,536.393 C534.677,528.026 539.635,518.884 549.552,508.967 C560.166,498.353 572.445,493.046 586.391,493.046 C589.877,493.046 592.433,494.325 594.06,496.881 C595.378,495.409 596.656,494.673 597.895,494.673 M577.094,540.925 C577.016,540.305 576.977,539.686 576.977,539.066 C576.977,538.756 580.929,527.948 588.831,506.643 C589.606,504.551 590.38,502.769 591.155,501.297 C588.134,500.678 585.151,500.368 582.207,500.368 C576.784,500.368 569.579,504.977 560.592,514.197 C552.534,522.409 548.506,529.498 548.506,535.463 C548.506,542.049 551.643,545.341 557.919,545.341 C565.511,545.341 571.903,543.869 577.094,540.925"/>
<path class="Note" d="M604.984,670.351 C615.443,663.765 623.036,658.381 627.762,654.197 C636.439,646.527 640.777,638.78 640.777,630.955 C640.777,621.813 634.657,617.242 622.416,617.242 C609.555,617.242 596.152,626.5 582.207,645.017 C572.755,657.568 566.054,669.421 562.102,680.577 C566.983,677.401 572.135,675.813 577.558,675.813 C582.672,675.813 586.739,678.098 589.761,682.669 C591.852,685.846 592.898,691.269 592.898,698.939 C592.898,705.834 589.257,713.93 581.975,723.227 C577.481,728.96 572.484,731.826 566.983,731.826 C560.011,731.826 555.13,730.432 552.341,727.643 C548.39,723.692 546.414,715.867 546.414,704.168 C546.414,684.49 554.355,665.121 570.237,646.063 C588.134,624.602 605.294,613.872 621.719,613.872 C634.424,613.872 643.915,616.855 650.19,622.82 C653.832,626.307 655.652,631.343 655.652,637.928 C655.652,645.288 648.408,653.5 633.921,662.565 C626.328,667.368 616.683,669.963 604.984,670.351 M560.592,685.458 C558.655,691.966 557.686,698.203 557.686,704.168 C557.686,718.346 559.933,725.435 564.427,725.435 C568.688,725.435 572.019,722.413 574.421,716.37 C577.21,709.553 578.604,701.999 578.604,693.709 C578.604,686.349 576.164,682.669 571.283,682.669 C567.874,682.669 564.31,683.599 560.592,685.458"/>
<path class="Note" d="M1190.59,583.965 C1195.16,583.965 1197.44,586.831 1197.44,592.564 C1197.44,596.593 1194.93,602.597 1189.89,610.577 C1185.86,617.007 1183.85,623.283 1183.85,629.403 C1183.85,632.889 1188.92,634.633 1199.07,634.633 C1207.44,634.633 1219.1,630.1 1234.05,621.036 C1219.02,635.524 1205.97,642.767 1194.89,642.767 C1184.89,642.767 1177.92,641.257 1173.97,638.235 C1172.96,637.46 1172.11,636.531 1171.41,635.446 C1167.54,640.172 1161.07,642.535 1152.01,642.535 C1143.33,642.535 1136.67,640.753 1132.02,637.189 C1128.92,634.788 1127.37,630.953 1127.37,625.684 C1127.37,617.317 1132.33,608.175 1142.24,598.259 C1152.86,587.645 1165.14,582.338 1179.08,582.338 C1182.57,582.338 1185.13,583.616 1186.75,586.173 C1188.07,584.701 1189.35,583.965 1190.59,583.965 M1169.79,630.217 C1169.71,629.597 1169.67,628.977 1169.67,628.357 C1169.67,628.047 1173.62,617.24 1181.52,595.934 C1182.3,593.843 1183.07,592.061 1183.85,590.589 C1180.83,589.969 1177.84,589.659 1174.9,589.659 C1169.48,589.659 1162.27,594.269 1153.28,603.488 C1145.23,611.7 1141.2,618.789 1141.2,624.755 C1141.2,631.34 1144.34,634.633 1150.61,634.633 C1158.2,634.633 1164.6,633.161 1169.79,630.217"/>
<path class="Note" d="M1146.31,910.409 C1142.52,910.409 1140.62,906.342 1140.62,898.207 L1140.62,864.157 C1140.62,860.903 1142.21,859.276 1145.38,859.276 C1146.78,859.276 1147.82,859.392 1148.52,859.625 C1151,855.286 1155.07,851.645 1160.72,848.701 C1168.62,844.595 1176.64,842.542 1184.78,842.542 C1191.21,842.542 1194.42,844.943 1194.42,849.747 C1194.42,853.776 1192.25,855.79 1187.92,855.79 C1184.82,855.79 1181.87,855.093 1179.08,853.698 C1176.6,852.458 1173.97,851.839 1171.18,851.839 C1166.38,851.839 1159.29,854.976 1149.91,861.252 C1151.23,867.527 1151.89,874.848 1151.89,883.216 C1151.89,901.345 1150.03,910.409 1146.31,910.409"/>
<path class="Note" d="M1197.68,759.642 C1208.14,753.057 1215.73,747.672 1220.45,743.489 C1229.13,735.819 1233.47,728.071 1233.47,720.247 C1233.47,711.105 1227.35,706.534 1215.11,706.534 C1202.25,706.534 1188.84,715.792 1174.9,734.308 C1165.45,746.859 1158.75,758.712 1154.79,769.869 C1159.68,766.692 1164.83,765.104 1170.25,765.104 C1175.36,765.104 1179.43,767.389 1182.45,771.96 C1184.54,775.137 1185.59,780.56 1185.59,788.23 C1185.59,795.125 1181.95,803.221 1174.67,812.518 C1170.17,818.251 1165.18,821.118 1159.68,821.118 C1152.7,821.118 1147.82,819.723 1145.03,816.934 C1141.08,812.983 1139.11,805.158 1139.11,793.459 C1139.11,773.781 1147.05,754.413 1162.93,735.354 C1180.83,713.894 1197.99,703.164 1214.41,703.164 C1227.12,703.164 1236.61,706.146 1242.88,712.112 C1246.52,715.598 1248.34,720.634 1248.34,727.219 C1248.34,734.579 1241.1,742.791 1226.61,751.856 C1219.02,756.659 1209.38,759.255 1197.68,759.642 M1153.28,774.749 C1151.35,781.257 1150.38,787.494 1150.38,793.459 C1150.38,807.637 1152.63,814.726 1157.12,814.726 C1161.38,814.726 1164.71,811.705 1167.11,805.662 C1169.9,798.844 1171.3,791.29 1171.3,783 C1171.3,775.64 1168.86,771.96 1163.98,771.96 C1160.57,771.96 1157,772.89 1153.28,774.749"/>
<path class="Note" d="M1190.59,673.256 C1195.16,673.256 1197.44,676.123 1197.44,681.856 C1197.44,685.884 1194.93,691.888 1189.89,699.868 C1185.86,706.299 1183.85,712.574 1183.85,718.694 C1183.85,722.181 1188.92,723.924 1199.07,723.924 C1207.44,723.924 1219.1,719.392 1234.05,710.327 C1219.02,724.815 1205.97,732.059 1194.89,732.059 C1184.89,732.059 1177.92,730.548 1173.97,727.527 C1172.96,726.752 1172.11,725.822 1171.41,724.737 C1167.54,729.463 1161.07,731.826 1152.01,731.826 C1143.33,731.826 1136.67,730.044 1132.02,726.481 C1128.92,724.079 1127.37,720.244 1127.37,714.976 C1127.37,706.609 1132.33,697.467 1142.24,687.55 C1152.86,676.936 1165.14,671.629 1179.08,671.629 C1182.57,671.629 1185.13,672.907 1186.75,675.464 C1188.07,673.992 1189.35,673.256 1190.59,673.256 M1169.79,719.508 C1169.71,718.888 1169.67,718.268 1169.67,717.649 C1169.67,717.339 1173.62,706.531 1181.52,685.226 C1182.3,683.134 1183.07,681.352 1183.85,679.88 C1180.83,679.26 1177.84,678.95 1174.9,678.95 C1169.48,678.95 1162.27,683.56 1153.28,692.779 C1145.23,700.992 1141.2,708.081 1141.2,714.046 C1141.2,720.631 1144.34,723.924 1150.61,723.924 C1158.2,723.924 1164.6,722.452 1169.79,719.508"/>
<path class="Note" d="M1723.29,910.409 C1719.5,910.409 1717.6,906.342 1717.6,898.207 L1717.6,864.157 C1717.6,860.903 1719.19,859.276 1722.36,859.276 C1723.76,859.276 1724.81,859.392 1725.5,859.625 C1727.98,855.286 1732.05,851.645 1737.7,848.701 C1745.61,844.595 1753.63,842.542 1761.76,842.542 C1768.19,842.542 1771.41,844.943 1771.41,849.747 C1771.41,853.776 1769.24,855.79 1764.9,855.79 C1761.8,855.79 1758.85,855.093 1756.07,853.698 C1753.59,852.458 1750.95,851.839 1748.16,851.839 C1743.36,851.839 1736.27,854.976 1726.9,861.252 C1728.21,867.527 1728.87,874.848 1728.87,883.216 C1728.87,901.345 1727.01,910.409 1723.29,910.409"/>
<path class="Note" d="M1767.57,583.965 C1772.14,583.965 1774.43,586.831 1774.43,592.564 C1774.43,596.593 1771.91,602.597 1766.87,610.577 C1762.84,617.007 1760.83,623.283 1760.83,629.403 C1760.83,632.889 1765.91,634.633 1776.05,634.633 C1784.42,634.633 1796.08,630.1 1811.03,621.036 C1796,635.524 1782.95,642.767 1771.87,642.767 C1761.88,642.767 1754.9,641.257 1750.95,638.235 C1749.95,637.46 1749.09,636.531 1748.4,635.446 C1744.52,640.172 1738.05,642.535 1728.99,642.535 C1720.31,642.535 1713.65,640.753 1709,637.189 C1705.9,634.788 1704.35,630.953 1704.35,625.684 C1704.35,617.317 1709.31,608.175 1719.23,598.259 C1729.84,587.645 1742.12,582.338 1756.07,582.338 C1759.55,582.338 1762.11,583.616 1763.74,586.173 C1765.05,584.701 1766.33,583.965 1767.57,583.965 M1746.77,630.217 C1746.69,629.597 1746.65,628.977 1746.65,628.357 C1746.65,628.047 1750.6,617.24 1758.51,595.934 C1759.28,593.843 1760.06,592.061 1760.83,590.589 C1757.81,589.969 1754.83,589.659 1751.88,589.659 C1746.46,589.659 1739.25,594.269 1730.27,603.488 C1722.21,611.7 1718.18,618.789 1718.18,624.755 C1718.18,631.34 1721.32,634.633 1727.59,634.633 C1735.19,634.633 1741.58,633.161 1746.77,630.217"/>
<path class="Note" d="M1723.29,821.118 C1719.5,821.118 1717.6,817.05 1717.6,808.916 L1717.6,774.866 C1717.6,771.612 1719.19,769.985 1722.36,769.985 C1723.76,769.985 1724.81,770.101 1725.5,770.333 C1727.98,765.995 1732.05,762.354 1737.7,759.41 C1745.61,755.304 1753.63,753.25 1761.76,753.25 C1768.19,753.25 1771.41,755.652 1771.41,760.456 C1771.41,764.484 1769.24,766.499 1764.9,766.499 C1761.8,766.499 1758.85,765.801 1756.07,764.407 C1753.59,763.167 1750.95,762.547 1748.16,762.547 C1743.36,762.547 1736.27,765.685 1726.9,771.96 C1728.21,778.236 1728.87,785.557 1728.87,793.924 C1728.87,812.053 1727.01,821.118 1723.29,821.118"/>
<path class="Note" d="M1767.57,494.673 C1772.14,494.673 1774.43,497.54 1774.43,503.273 C1774.43,507.302 1771.91,513.306 1766.87,521.286 C1762.84,527.716 1760.83,533.991 1760.83,540.112 C1760.83,543.598 1765.91,545.341 1776.05,545.341 C1784.42,545.341 1796.08,540.809 1811.03,531.745 C1796,546.232 1782.95,553.476 1771.87,553.476 C1761.88,553.476 1754.9,551.965 1750.95,548.944 C1749.95,548.169 1749.09,547.239 1748.4,546.155 C1744.52,550.881 1738.05,553.244 1728.99,553.244 C1720.31,553.244 1713.65,551.462 1709,547.898 C1705.9,545.496 1704.35,541.661 1704.35,536.393 C1704.35,528.026 1709.31,518.884 1719.23,508.967 C1729.84,498.353 1742.12,493.046 1756.07,493.046 C1759.55,493.046 1762.11,494.325 1763.74,496.881 C1765.05,495.409 1766.33,494.673 1767.57,494.673 M1746.77,540.925 C1746.69,540.305 1746.65,539.686 1746.65,539.066 C1746.65,538.756 1750.6,527.948 1758.51,506.643 C1759.28,504.551 1760.06,502.769 1760.83,501.297 C1757.81,500.678 1754.83,500.368 1751.88,500.368 C1746.46,500.368 1739.25,504.977 1730.27,514.197 C1722.21,522.409 1718.18,529.498 1718.18,535.463 C1718.18,542.049 1721.32,545.341 1727.59,545.341 C1735.19,545.341 1741.58,543.869 1746.77,540.925"/>
<path class="Note" d="M1774.66,670.351 C1785.12,663.765 1792.71,658.381 1797.44,654.197 C1806.11,646.527 1810.45,638.78 1810.45,630.955 C1810.45,621.813 1804.33,617.242 1792.09,617.242 C1779.23,617.242 1765.83,626.5 1751.88,645.017 C1742.43,657.568 1735.73,669.421 1731.78,680.577 C1736.66,677.401 1741.81,675.813 1747.23,675.813 C1752.35,675.813 1756.41,678.098 1759.44,682.669 C1761.53,685.846 1762.57,691.269 1762.57,698.939 C1762.57,705.834 1758.93,713.93 1751.65,723.227 C1747.16,728.96 1742.16,731.826 1736.66,731.826 C1729.69,731.826 1724.81,730.432 1722.02,727.643 C1718.06,723.692 1716.09,715.867 1716.09,704.168 C1716.09,684.49 1724.03,665.121 1739.91,646.063 C1757.81,624.602 1774.97,613.872 1791.39,613.872 C1804.1,613.872 1813.59,616.855 1819.87,622.82 C1823.51,626.307 1825.33,631.343 1825.33,637.928 C1825.33,645.288 1818.08,653.5 1803.6,662.565 C1796,667.368 1786.36,669.963 1774.66,670.351 M1730.27,685.458 C1728.33,691.966 1727.36,698.203 1727.36,704.168 C1727.36,718.346 1729.61,725.435 1734.1,725.435 C1738.36,725.435 1741.69,722.413 1744.1,716.37 C1746.89,709.553 1748.28,701.999 1748.28,693.709 C1748.28,686.349 1745.84,682.669 1740.96,682.669 C1737.55,682.669 1733.99,683.599 1730.27,685.458"/>
<path class="Note" d="M2339.61,583.965 C2344.19,583.965 2346.47,586.831 2346.47,592.564 C2346.47,596.593 2343.95,602.597 2338.92,610.577 C2334.89,617.007 2332.87,623.283 2332.87,629.403 C2332.87,632.889 2337.95,634.633 2348.1,634.633 C2356.47,634.633 2368.13,630.1 2383.08,621.036 C2368.05,635.524 2354.99,642.767 2343.91,642.767 C2333.92,642.767 2326.95,641.257 2323,638.235 C2321.99,637.46 2321.14,636.531 2320.44,635.446 C2316.57,640.172 2310.1,642.535 2301.03,642.535 C2292.36,642.535 2285.69,640.753 2281.04,637.189 C2277.95,634.788 2276.4,630.953 2276.4,625.684 C2276.4,617.317 2281.35,608.175 2291.27,598.259 C2301.88,587.645 2314.16,582.338 2328.11,582.338 C2331.6,582.338 2334.15,583.616 2335.78,586.173 C2337.1,584.701 2338.38,583.965 2339.61,583.965 M2318.81,630.217 C2318.74,629.597 2318.7,628.977 2318.7,628.357 C2318.7,628.047 2322.65,617.24 2330.55,595.934 C2331.33,593.843 2332.1,592.061 2332.87,590.589 C2329.85,589.969 2326.87,589.659 2323.93,589.659 C2318.5,589.659 2311.3,594.269 2302.31,603.488 C2294.25,611.7 2290.23,618.789 2290.23,624.755 C2290.23,631.34 2293.36,634.633 2299.64,634.633 C2307.23,634.633 2313.62,633.161 2318.81,630.217"/>
<path class="Note" d="M2295.34,910.409 C2291.54,910.409 2289.64,906.342 2289.64,898.207 L2289.64,864.157 C2289.64,860.903 2291.23,859.276 2294.41,859.276 C2295.8,859.276 2296.85,859.392 2297.55,859.625 C2300.03,855.286 2304.09,851.645 2309.75,848.701 C2317.65,844.595 2325.67,842.542 2333.8,842.542 C2340.23,842.542 2343.45,844.943 2343.45,849.747 C2343.45,853.776 2341.28,855.79 2336.94,855.79 C2333.84,855.79 2330.9,855.093 2328.11,853.698 C2325.63,852.458 2323,851.839 2320.21,851.839 C2315.4,851.839 2308.32,854.976 2298.94,861.252 C2300.26,867.527 2300.92,874.848 2300.92,883.216 C2300.92,901.345 2299.06,910.409 2295.34,910.409"/>
<path class="Note" d="M2295.34,821.118 C2291.54,821.118 2289.64,817.05 2289.64,808.916 L2289.64,774.866 C2289.64,771.612 2291.23,769.985 2294.41,769.985 C2295.8,769.985 2296.85,770.101 2297.55,770.333 C2300.03,765.995 2304.09,762.354 2309.75,759.41 C2317.65,755.304 2325.67,753.25 2333.8,753.25 C2340.23,753.25 2343.45,755.652 2343.45,760.456 C2343.45,764.484 2341.28,766.499 2336.94,766.499 C2333.84,766.499 2330.9,765.801 2328.11,764.407 C2325.63,763.167 2323,762.547 2320.21,762.547 C2315.4,762.547 2308.32,765.685 2298.94,771.96 C2300.26,778.236 2300.92,785.557 2300.92,793.924 C2300.92,812.053 2299.06,821.118 2295.34,821.118"/>
<path class="Note" d="M2339.61,494.673 C2344.19,494.673 2346.47,497.54 2346.47,503.273 C2346.47,507.302 2343.95,513.306 2338.92,521.286 C2334.89,527.716 2332.87,533.991 2332.87,540.112 C2332.87,543.598 2337.95,545.341 2348.1,545.341 C2356.47,545.341 2368.13,540.809 2383.08,531.745 C2368.05,546.232 2354.99,553.476 2343.91,553.476 C2333.92,553.476 2326.95,551.965 2323,548.944 C2321.99,548.169 2321.14,547.239 2320.44,546.155 C2316.57,550.881 2310.1,553.244 2301.03,553.244 C2292.36,553.244 2285.69,551.462 2281.04,547.898 C2277.95,545.496 2276.4,541.661 2276.4,536.393 C2276.4,528.026 2281.35,518.884 2291.27,508.967 C2301.88,498.353 2314.16,493.046 2328.11,493.046 C2331.6,493.046 2334.15,494.325 2335.78,496.881 C2337.1,495.409 2338.38,494.673 2339.61,494.673 M2318.81,540.925 C2318.74,540.305 2318.7,539.686 2318.7,539.066 C2318.7,538.756 2322.65,527.948 2330.55,506.643 C2331.33,504.551 2332.1,502.769 2332.87,501.297 C2329.85,500.678 2326.87,500.368 2323.93,500.368 C2318.5,500.368 2311.3,504.977 2302.31,514.197 C2294.25,522.409 2290.23,529.498 2290.23,535.463 C2290.23,542.049 2293.36,545.341 2299.64,545.341 C2307.23,545.341 2313.62,543.869 2318.81,540.925"/>
<path class="Note" d="M2339.61,673.256 C2344.19,673.256 2346.47,676.123 2346.47,681.856 C2346.47,685.884 2343.95,691.888 2338.92,699.868 C2334.89,706.299 2332.87,712.574 2332.87,718.694 C2332.87,722.181 2337.95,723.924 2348.1,723.924 C2356.47,723.924 2368.13,719.392 2383.08,710.327 C2368.05,724.815 2354.99,732.059 2343.91,732.059 C2333.92,732.059 2326.95,730.548 2323,727.527 C2321.99,726.752 2321.14,725.822 2320.44,724.737 C2316.57,729.463 2310.1,731.826 2301.03,731.826 C2292.36,731.826 2285.69,730.044 2281.04,726.481 C2277.95,724.079 2276.4,720.244 2276.4,714.976 C2276.4,706.609 2281.35,697.467 2291.27,687.55 C2301.88,676.936 2314.16,671.629 2328.11,671.629 C2331.6,671.629 2334.15,672.907 2335.78,675.464 C2337.1,673.992 2338.38,673.256 2339.61,673.256 M2318.81,719.508 C2318.74,718.888 2318.7,718.268 2318.7,717.649 C2318.7,717.339 2322.65,706.531 2330.55,685.226 C2331.33,683.134 2332.1,681.352 2332.87,679.88 C2329.85,679.26 2326.87,678.95 2323.93,678.95 C2318.5,678.95 2311.3,683.56 2302.31,692.779 C2294.25,700.992 2290.23,708.081 2290.23,714.046 C2290.23,720.631 2293.36,723.924 2299.64,723.924 C2307.23,723.924 2313.62,722.452 2318.81,719.508"/>
<path class="Note" d="M3031.02,583.965 C3035.59,583.965 3037.88,586.831 3037.88,592.564 C3037.88,596.593 3035.36,602.597 3030.32,610.577 C3026.29,617.007 3024.28,623.283 3024.28,629.403 C3024.28,632.889 3029.35,634.633 3039.5,634.633 C3047.87,634.633 3059.53,630.1 3074.48,621.036 C3059.45,635.524 3046.4,642.767 3035.32,642.767 C3025.32,642.767 3018.35,641.257 3014.4,638.235 C3013.39,637.46 3012.54,636.531 3011.84,635.446 C3007.97,640.172 3001.5,642.535 2992.44,642.535 C2983.76,642.535 2977.1,640.753 2972.45,637.189 C2969.35,634.788 2967.8,630.953 2967.8,625.684 C2967.8,617.317 2972.76,608.175 2982.68,598.259 C2993.29,587.645 3005.57,582.338 3019.51,582.338 C3023,582.338 3025.56,583.616 3027.18,586.173 C3028.5,584.701 3029.78,583.965 3031.02,583.965 M3010.22,630.217 C3010.14,629.597 3010.1,628.977 3010.1,628.357 C3010.1,628.047 3014.05,617.24 3021.95,595.934 C3022.73,593.843 3023.5,592.061 3024.28,590.589 C3021.26,589.969 3018.27,589.659 3015.33,589.659 C3009.91,589.659 3002.7,594.269 2993.72,603.488 C2985.66,611.7 2981.63,618.789 2981.63,624.755 C2981.63,631.34 2984.77,634.633 2991.04,634.633 C2998.63,634.633 3005.03,633.161 3010.22,630.217"/>
<path class="Note" d="M2986.74,910.409 C2982.95,910.409 2981.05,906.342 2981.05,898.207 L2981.05,864.157 C2981.05,860.903 2982.64,859.276 2985.81,859.276 C2987.21,859.276 2988.25,859.392 2988.95,859.625 C2991.43,855.286 2995.5,851.645 3001.15,848.701 C3009.05,844.595 3017.07,842.542 3025.21,842.542 C3031.64,842.542 3034.85,844.943 3034.85,849.747 C3034.85,853.776 3032.68,855.79 3028.35,855.79 C3025.25,855.79 3022.3,855.093 3019.51,853.698 C3017.03,852.458 3014.4,851.839 3011.61,851.839 C3006.81,851.839 2999.72,854.976 2990.35,861.252 C2991.66,867.527 2992.32,874.848 2992.32,883.216 C2992.32,901.345 2990.46,910.409 2986.74,910.409"/>
<path class="Note" d="M3038.11,759.642 C3048.57,753.057 3056.16,747.672 3060.89,743.489 C3069.56,735.819 3073.9,728.071 3073.9,720.247 C3073.9,711.105 3067.78,706.534 3055.54,706.534 C3042.68,706.534 3029.28,715.792 3015.33,734.308 C3005.88,746.859 2999.18,758.712 2995.23,769.869 C3000.11,766.692 3005.26,765.104 3010.68,765.104 C3015.8,765.104 3019.86,767.389 3022.88,771.96 C3024.98,775.137 3026.02,780.56 3026.02,788.23 C3026.02,795.125 3022.38,803.221 3015.1,812.518 C3010.6,818.251 3005.61,821.118 3000.11,821.118 C2993.13,821.118 2988.25,819.723 2985.46,816.934 C2981.51,812.983 2979.54,805.158 2979.54,793.459 C2979.54,773.781 2987.48,754.413 3003.36,735.354 C3021.26,713.894 3038.42,703.164 3054.84,703.164 C3067.55,703.164 3077.04,706.146 3083.31,712.112 C3086.96,715.598 3088.78,720.634 3088.78,727.219 C3088.78,734.579 3081.53,742.791 3067.04,751.856 C3059.45,756.659 3049.81,759.255 3038.11,759.642 M2993.72,774.749 C2991.78,781.257 2990.81,787.494 2990.81,793.459 C2990.81,807.637 2993.06,814.726 2997.55,814.726 C3001.81,814.726 3005.14,811.705 3007.54,805.662 C3010.33,798.844 3011.73,791.29 3011.73,783 C3011.73,775.64 3009.29,771.96 3004.41,771.96 C3001,771.96 2997.43,772.89 2993.72,774.749"/>
<path class="Note" d="M3031.02,673.256 C3035.59,673.256 3037.88,676.123 3037.88,681.856 C3037.88,685.884 3035.36,691.888 3030.32,699.868 C3026.29,706.299 3024.28,712.574 3024.28,718.694 C3024.28,722.181 3029.35,723.924 3039.5,723.924 C3047.87,723.924 3059.53,719.392 3074.48,710.327 C3059.45,724.815 3046.4,732.059 3035.32,732.059 C3025.32,732.059 3018.35,730.548 3014.4,727.527 C3013.39,726.752 3012.54,725.822 3011.84,724.737 C3007.97,729.463 3001.5,731.826 2992.44,731.826 C2983.76,731.826 2977.1,730.044 2972.45,726.481 C2969.35,724.079 2967.8,720.244 2967.8,714.976 C2967.8,706.609 2972.76,697.467 2982.68,687.55 C2993.29,676.936 3005.57,671.629 3019.51,671.629 C3023,671.629 3025.56,672.907 3027.18,675.464 C3028.5,673.992 3029.78,673.256 3031.02,673.256 M3010.22,719.508 C3010.14,718.888 3010.1,718.268 3010.1,717.649 C3010.1,717.339 3014.05,706.531 3021.95,685.226 C3022.73,683.134 3023.5,681.352 3024.28,679.88 C3021.26,679.26 3018.27,678.95 3015.33,678.95 C3009.91,678.95 3002.7,683.56 2993.72,692.779 C2985.66,700.992 2981.63,708.081 2981.63,714.046 C2981.63,720.631 2984.77,723.924 2991.04,723.924 C2998.63,723.924 3005.03,722.452 3010.22,719.508"/>
<path class="Note" d="M3213.02,677.207 C3213.33,665.509 3219.79,655.127 3232.42,646.063 C3243.66,638.005 3255.94,633.977 3269.26,633.977 C3287.93,633.977 3304.4,641.298 3318.65,655.941 C3327.72,665.315 3332.25,676.936 3332.25,690.804 C3332.25,703.277 3328.92,712.845 3322.25,719.508 C3314.12,727.72 3305.52,731.826 3296.45,731.826 C3290.26,731.826 3285.45,730.432 3282.04,727.643 C3276.47,723.072 3273.68,716.951 3273.68,709.281 C3273.68,699.365 3278.64,690.3 3288.55,682.088 C3296.69,675.348 3304.86,670.932 3313.07,668.84 C3310.9,665.121 3308.15,661.635 3304.82,658.381 C3294.44,648.232 3282.66,643.157 3269.49,643.157 C3255.78,643.157 3244.43,646.14 3235.44,652.106 C3226.15,658.226 3218.67,666.593 3213.02,677.207 M3315.98,674.999 C3311.72,678.95 3307.46,683.173 3303.2,687.666 C3294.83,696.498 3290.64,704.865 3290.64,712.768 C3290.64,721.212 3292.58,725.435 3296.45,725.435 C3299.94,725.435 3304.82,720.67 3311.1,711.141 C3316.13,703.548 3318.65,696.576 3318.65,690.223 C3318.65,684.8 3317.76,679.725 3315.98,674.999"/>
<path class="Note" d="M3711.01,941.13 C3715.58,941.13 3717.87,943.997 3717.87,949.73 C3717.87,953.758 3715.35,959.763 3710.31,967.742 C3706.28,974.173 3704.27,980.448 3704.27,986.568 C3704.27,990.055 3709.34,991.798 3719.49,991.798 C3727.86,991.798 3739.52,987.266 3754.47,978.201 C3739.44,992.689 3726.39,999.933 3715.31,999.933 C3705.32,999.933 3698.34,998.422 3694.39,995.401 C3693.39,994.626 3692.53,993.696 3691.84,992.611 C3687.96,997.337 3681.49,999.7 3672.43,999.7 C3663.75,999.7 3657.09,997.918 3652.44,994.355 C3649.34,991.953 3647.79,988.118 3647.79,982.85 C3647.79,974.483 3652.75,965.341 3662.67,955.424 C3673.28,944.81 3685.56,939.503 3699.51,939.503 C3702.99,939.503 3705.55,940.781 3707.18,943.338 C3708.49,941.866 3709.77,941.13 3711.01,941.13 M3690.21,987.382 C3690.13,986.762 3690.09,986.142 3690.09,985.523 C3690.09,985.213 3694.04,974.405 3701.95,953.1 C3702.72,951.008 3703.5,949.226 3704.27,947.754 C3701.25,947.134 3698.27,946.824 3695.32,946.824 C3689.9,946.824 3682.69,951.434 3673.71,960.653 C3665.65,968.866 3661.62,975.955 3661.62,981.92 C3661.62,988.505 3664.76,991.798 3671.03,991.798 C3678.63,991.798 3685.02,990.326 3690.21,987.382"/>
<path class="Note" d="M3711.01,583.965 C3715.58,583.965 3717.87,586.831 3717.87,592.564 C3717.87,596.593 3715.35,602.597 3710.31,610.577 C3706.28,617.007 3704.27,623.283 3704.27,629.403 C3704.27,632.889 3709.34,634.633 3719.49,634.633 C3727.86,634.633 3739.52,630.1 3754.47,621.036 C3739.44,635.524 3726.39,642.767 3715.31,642.767 C3705.32,642.767 3698.34,641.257 3694.39,638.235 C3693.39,637.46 3692.53,636.531 3691.84,635.446 C3687.96,640.172 3681.49,642.535 3672.43,642.535 C3663.75,642.535 3657.09,640.753 3652.44,637.189 C3649.34,634.788 3647.79,630.953 3647.79,625.684 C3647.79,617.317 3652.75,608.175 3662.67,598.259 C3673.28,587.645 3685.56,582.338 3699.51,582.338 C3702.99,582.338 3705.55,583.616 3707.18,586.173 C3708.49,584.701 3709.77,583.965 3711.01,583.965 M3690.21,630.217 C3690.13,629.597 3690.09,628.977 3690.09,628.357 C3690.09,628.047 3694.04,617.24 3701.95,595.934 C3702.72,593.843 3703.5,592.061 3704.27,590.589 C3701.25,589.969 3698.27,589.659 3695.32,589.659 C3689.9,589.659 3682.69,594.269 3673.71,603.488 C3665.65,611.7 3661.62,618.789 3661.62,624.755 C3661.62,631.34 3664.76,634.633 3671.03,634.633 C3678.63,634.633 3685.02,633.161 3690.21,630.217"/>
<path class="Note" d="M3711.01,494.673 C3715.58,494.673 3717.87,497.54 3717.87,503.273 C3717.87,507.302 3715.35,513.306 3710.31,521.286 C3706.28,527.716 3704.27,533.991 3704.27,540.112 C3704.27,543.598 3709.34,545.341 3719.49,545.341 C3727.86,545.341 3739.52,540.809 3754.47,531.745 C3739.44,546.232 3726.39,553.476 3715.31,553.476 C3705.32,553.476 3698.34,551.965 3694.39,548.944 C3693.39,548.169 3692.53,547.239 3691.84,546.155 C3687.96,550.881 3681.49,553.244 3672.43,553.244 C3663.75,553.244 3657.09,551.462 3652.44,547.898 C3649.34,545.496 3647.79,541.661 3647.79,536.393 C3647.79,528.026 3652.75,518.884 3662.67,508.967 C3673.28,498.353 3685.56,493.046 3699.51,493.046 C3702.99,493.046 3705.55,494.325 3707.18,496.881 C3708.49,495.409 3709.77,494.673 3711.01,494.673 M3690.21,540.925 C3690.13,540.305 3690.09,539.686 3690.09,539.066 C3690.09,538.756 3694.04,527.948 3701.95,506.643 C3702.72,504.551 3703.5,502.769 3704.27,501.297 C3701.25,500.678 3698.27,500.368 3695.32,500.368 C3689.9,500.368 3682.69,504.977 3673.71,514.197 C3665.65,522.409 3661.62,529.498 3661.62,535.463 C3661.62,542.049 3664.76,545.341 3671.03,545.341 C3678.63,545.341 3685.02,543.869 3690.21,540.925"/>
<path class="Note" d="M3718.1,670.351 C3728.56,663.765 3736.15,658.381 3740.88,654.197 C3749.55,646.527 3753.89,638.78 3753.89,630.955 C3753.89,621.813 3747.77,617.242 3735.53,617.242 C3722.67,617.242 3709.27,626.5 3695.32,645.017 C3685.87,657.568 3679.17,669.421 3675.22,680.577 C3680.1,677.401 3685.25,675.813 3690.67,675.813 C3695.79,675.813 3699.85,678.098 3702.88,682.669 C3704.97,685.846 3706.01,691.269 3706.01,698.939 C3706.01,705.834 3702.37,713.93 3695.09,723.227 C3690.6,728.96 3685.6,731.826 3680.1,731.826 C3673.13,731.826 3668.24,730.432 3665.46,727.643 C3661.5,723.692 3659.53,715.867 3659.53,704.168 C3659.53,684.49 3667.47,665.121 3683.35,646.063 C3701.25,624.602 3718.41,613.872 3734.83,613.872 C3747.54,613.872 3757.03,616.855 3763.31,622.82 C3766.95,626.307 3768.77,631.343 3768.77,637.928 C3768.77,645.288 3761.52,653.5 3747.04,662.565 C3739.44,667.368 3729.8,669.963 3718.1,670.351 M3673.71,685.458 C3671.77,691.966 3670.8,698.203 3670.8,704.168 C3670.8,718.346 3673.05,725.435 3677.54,725.435 C3681.8,725.435 3685.13,722.413 3687.54,716.37 C3690.32,709.553 3691.72,701.999 3691.72,693.709 C3691.72,686.349 3689.28,682.669 3684.4,682.669 C3680.99,682.669 3677.43,683.599 3673.71,685.458"/>
<path class="Clef" transform="matrix(2.3811,0,0,2.3811,212.156,2158.79)" d="M25.4,-25.1 C17.8,-25.1 11.7,-20.7 11.6,-20.7 C5.8,-16.4 3.5,-11.3 2.6,-7.8 C2.1,-6 1.9,-4.2 1.9,-2.5 C1.9,-0.1 2.3,2.1 3.2,4 C4.4,6.7 6.7,8.6 9.7,9.6 C10.9,10 12.2,10.2 13.5,10.2 C15.7,10.2 18,9.6 19.9,8.5 C23,6.8 24.9,3.2 24.9,-0.7 C24.9,-4.2 23.1,-7.4 20.1,-9.3 C18,-10.7 16,-11.1 14.3,-11.1 C13.1,-11.1 12,-10.9 11.1,-10.6 C10.1,-10.2 8.4,-9.2 7.6,-8.5 C7.9,-10.4 9.1,-13.3 10.2,-14.9 C11.3,-16.5 13.5,-18.5 15.2,-19.4 C17.7,-20.8 20.9,-21.4 24.4,-21.4 C34.6,-21.4 39.6,-13.2 39.6,3.6 C39.6,12.9 36.1,21.8 33.1,27.7 C29.8,34.3 25.4,40.6 21.5,44.1 C11.1,53.6 1.3,58.1 1.2,58.1 C1.2,58.1 -0.3,59 0.1,60.5 C0.4,61.5 1.3,61.7 1.9,61.7 C2,61.7 2.3,61.6 2.4,61.6 C2.5,61.6 13.9,56.9 23,49.8 C28.1,46.1 32.7,42.1 36.7,37.8 C40.3,33.9 43.4,29.7 45.9,25.5 C50.3,18 52.8,10.2 52.8,3.5 C52.8,-4.8 50.6,-11.7 46.5,-16.6 C41.8,-22.2 34.7,-25.1 25.4,-25.1 M56.8,-12.4 C56.8,-9.6 59,-7.4 61.6,-7.4 C64.2,-7.4 66.4,-9.6 66.4,-12.4 C66.4,-15.2 64.2,-17.5 61.6,-17.5 C59,-17.5 56.8,-15.2 56.8,-12.4 M56.8,12.3 C56.8,15.1 59,17.4 61.6,17.4 C64.2,17.4 66.4,15.1 66.4,12.3 C66.4,9.5 64.2,7.2 61.6,7.2 C59,7.2 56.8,9.5 56.8,12.3"/>
<path class="Clef" transform="matrix(2.3811,0,0,2.3811,212.156,1570.39)" d="M63.37,-5.89004 C62.14,-11.32 59.5,-15.14 58.72,-16.1801 C55.5301,-20.45 51.52,-23.3 46.8301,-24.65 C43.72,-25.54 40.72,-25.65 38.3,-25.47 C37.2601,-31.4801 36.2601,-37.3601 35.35,-42.8101 C40.79,-48.97 44.42,-54.77 46.69,-59.07 C50.1601,-65.65 51.3101,-70.2301 51.3601,-70.4301 C53.0801,-75.64 53.44,-83.34 52.34,-91.55 C51.3301,-99.1 49.24,-105.81 46.89,-109.06 C45.8601,-110.49 44.8101,-111.22 43.77,-111.22 C42.55,-111.22 40.04,-109.98 37.15,-107.21 C34.85,-105.01 31.5801,-101.12 29.02,-95.1101 C26.02,-88.05 25.8101,-78.5601 26.1601,-71.84 C26.54,-64.57 27.65,-58.8801 27.6601,-58.8301 C27.6801,-58.74 27.94,-57.24 28.39,-54.67 C28.1601,-54.44 27.92,-54.22 27.67,-53.9801 C26.6301,-52.9801 25.44,-51.84 24.0601,-50.4601 C23.2,-49.6 22.25,-48.69 21.25,-47.72 C12.79,-39.57 0,-27.25 0,-8.1 C0,-3.4 0.9,1.01992 2.68008,5.02998 C4.27002,8.62998 6.57002,11.91 9.5,14.78 C17.2301,22.33 27.82,25.5399 34.8801,25.38 C37.8301,25.31 40.4601,25.0699 42.85,24.6199 C44.6801,34.2199 45.82,41.25 45.8601,46.5899 C45.9,53.1 44.25,57.0699 40.35,59.8399 C37.92,61.5699 35.1101,62.5199 32.0101,62.6699 C29.42,62.7899 27.1601,62.3199 25.7301,61.91 L25.72,61.91 C25.72,61.91 25.4301,61.83 25.42,61.63 C25.4101,61.45 25.7601,61.4 25.77,61.4 L25.79,61.4 C27.7101,60.96 31.2801,59.73 33.64,56.43 C35.44,53.91 36.3101,49.2899 34.47,45.35 C33.3601,42.96 30.85,40.01 25.2301,39.56 C22.74,39.36 20.47,39.8699 18.47,41.0699 C16.6601,42.15 15.1601,43.7899 14.1101,45.7899 C11.65,50.4899 12.1101,56.2199 15.24,60.06 C18.2,63.68 22.82,65.9899 28.25,66.5699 C29.1,66.66 29.95,66.7 30.8,66.7 C31.5101,66.7 32.22,66.6699 32.92,66.61 C31.72,66.9399 30.64,67.4899 29.77,68.25 C28.2801,69.5399 27.44,71.38 27.44,73.41 C27.44,75.28 28.0601,76.65 29.55,78.0399 C28.4101,78.5 27.55,78.98 26.79,79.56 C25.25,80.73 24.34,82.46 24.34,84.1899 C24.34,87.45 27.3,89.63 31.72,89.63 C37.1301,89.63 40.9101,86.63 40.9101,82.35 C40.9101,80.1199 39.9101,78.18 38.0801,76.83 C41.0101,75.6199 42.37,73.9399 42.37,71.56 C42.39,70.05 41.69,68.61 40.49,67.6899 C39.2801,66.7399 37.62,66.2399 35.69,66.2399 L35.5101,66.2399 C38.2801,65.7 40.92,64.7 43.2101,63.28 C46.87,60.71 48.99,56.73 49.67,51.1 C50.2301,46.46 49.84,40.55 48.44,32.48 C48.0801,30.3899 47.54,27.36 46.8801,23.6 C52.6301,21.68 56.79,18.11 60.5601,12.26 C63.85,6.51992 64.8,0.419922 63.37,-5.89004 M32.39,87.5399 C30.19,87.5399 28.7301,86.1199 28.7301,84.01 C28.7301,82.11 29.65,80.5 31.32,79.4699 C31.6801,79.66 31.77,79.71 32.1101,79.88 C33.3,80.48 33.3,80.48 33.55,80.63 L33.5601,80.6399 C35.47,81.73 36.25,82.76 36.25,84.18 C36.24,86.0899 34.59,87.5399 32.39,87.5399 M38.3101,71.63 C38.3101,73.2699 37.7301,74.3399 36.1801,75.53 C34.74,74.78 34.35,74.56 33.9801,74.3399 L33.8801,74.28 C32.3301,73.3399 31.85,72.66 31.85,71.4 C31.85,69.6 33.2301,68.3399 35.19,68.3399 C37.17,68.35 38.3101,69.55 38.3101,71.63 M33.15,-83.8101 C34.9301,-89.55 37.67,-92.8 39.6601,-94.5301 C41.4101,-96.05 43.0601,-96.7601 43.9801,-96.7601 C44.12,-96.7601 44.24,-96.74 44.34,-96.7101 C44.8,-96.57 45.3301,-96 45.8,-95.1301 C48.1101,-90.84 47.37,-84.1301 46.0301,-79.69 C44.4,-74.29 41.4801,-68.6801 32.69,-59.0601 C32.52,-60.17 32.3601,-61.22 32.2101,-62.2 C30.95,-70.49 31.27,-77.7601 33.15,-83.8101 M29.15,20.31 C24.5101,19.0899 20.0801,16.5899 16.32,13.0899 C15.0101,11.86 13.14,9.68994 11.67,6.3 C10.3101,3.13994 9.65,-0.290039 9.7,-3.88008 C9.77002,-8.57002 11.0801,-13.39 13.59,-18.1801 C16.5101,-23.7601 21.07,-29.29 27.1301,-34.62 C28.5801,-35.9 29.95,-37.1801 31.24,-38.4601 C32,-34.2 32.8301,-29.5101 33.7101,-24.6301 C29.8601,-23.3601 25.1101,-20.2101 22,-14.5601 C18.47,-7.99004 18.6101,-2.47002 19.34,1.00996 C20.2801,5.46992 22.8101,9.22998 26.27,11.3199 C27.2,11.88 31.3301,14.01 33.17,13.43 C33.54,13.31 33.8101,13.0899 33.95,12.76 C34.4601,11.5899 33.44,10.95 31.8801,9.98994 C31.2801,9.61992 30.6101,9.2 29.8801,8.66992 C26.5601,6.17998 25.1101,1.72998 26.1801,-2.65 C26.7601,-5.05 28.04,-7.21006 29.8801,-8.91006 C31.55,-10.4601 33.59,-11.5601 35.97,-12.2 C38.0101,-0.960059 40.07,10.1899 41.7101,18.55 C41.84,19.2399 41.9801,19.91 42.1101,20.58 C37.7101,21.51 33.37,21.4199 29.15,20.31 M54.9,10.1 C53.7301,13.28 51.27,17.35 46.14,19.41 C46.07,18.9899 45.99,18.56 45.9101,18.13 C44.3601,9.36992 42.4301,-1.61006 40.47,-12.87 C50.82,-13.35 55.09,-5.91006 55.9801,-1.08008 C56.45,1.45 56.45,5.88994 54.9,10.1"/>
<path class="FiguredBass" d="M1150.14,2535.46 L1150.14,2554.85 C1150.14,2556.77 1149.17,2557.73 1147.22,2557.73 C1145.27,2557.73 1144.3,2556.77 1144.3,2554.85 L1144.3,2537.97 L1141.33,2539.17 C1141.02,2539.3 1140.62,2539.36 1140.12,2539.36 C1139.32,2539.36 1138.61,2539.05 1137.99,2538.43 C1137.37,2537.81 1137.06,2537.1 1137.06,2536.3 L1137.06,2526.83 C1137.06,2525.47 1137.71,2524.51 1139.01,2523.96 L1144.3,2521.73 L1144.3,2502.25 L1141.33,2503.45 C1141.15,2503.52 1140.9,2503.55 1140.59,2503.55 C1140.46,2503.55 1140.31,2503.55 1140.12,2503.55 C1139.2,2503.42 1138.45,2503.08 1137.9,2502.53 C1137.34,2501.97 1137.06,2501.32 1137.06,2500.58 L1137.06,2491.12 C1137.06,2489.82 1137.71,2488.89 1139.01,2488.33 L1144.3,2486.11 L1144.3,2466.34 C1144.3,2464.43 1145.27,2463.47 1147.22,2463.47 C1149.17,2463.47 1150.14,2464.43 1150.14,2466.34 L1150.14,2483.69 L1162.11,2478.68 L1162.11,2459.29 C1162.11,2457.38 1163.07,2456.42 1164.99,2456.42 C1166.91,2456.42 1167.86,2457.38 1167.86,2459.29 L1167.86,2476.36 L1171.11,2474.97 C1171.42,2474.85 1171.76,2474.79 1172.13,2474.79 C1172.94,2474.79 1173.66,2475.1 1174.31,2475.71 C1174.96,2476.33 1175.29,2477.04 1175.29,2477.85 L1175.29,2487.31 C1175.29,2488.67 1174.61,2489.63 1173.24,2490.19 L1167.86,2492.41 L1167.86,2511.99 L1171.11,2510.69 C1171.3,2510.63 1171.51,2510.6 1171.76,2510.6 C1171.88,2510.6 1172.01,2510.6 1172.13,2510.6 C1173.18,2510.78 1173.97,2511.12 1174.5,2511.62 C1175.02,2512.11 1175.29,2512.76 1175.29,2513.57 L1175.29,2523.03 C1175.29,2524.33 1174.61,2525.26 1173.24,2525.81 L1167.86,2528.04 L1167.86,2547.8 C1167.86,2549.72 1166.91,2550.68 1164.99,2550.68 C1163.07,2550.68 1162.11,2549.72 1162.11,2547.8 L1162.11,2530.45 L1150.14,2535.46 M1150.14,2519.32 L1162.11,2514.4 L1162.11,2494.83 L1150.14,2499.84 L1150.14,2519.32 "/>
<path class="FiguredBass" d="M1735.94,2472.56 C1731.36,2472.56 1728.32,2474.4 1726.8,2478.08 C1725.29,2481.76 1724.53,2486.97 1724.53,2493.71 L1724.53,2504.66 C1727.75,2503.36 1730.53,2502.68 1732.88,2502.62 C1740.92,2502.62 1747.24,2504.4 1751.85,2507.95 C1756.46,2511.51 1758.76,2516.8 1758.76,2523.82 C1758.76,2530.84 1756.43,2536.14 1751.76,2539.73 C1747.09,2543.32 1740.8,2545.11 1732.88,2545.11 C1724.78,2545.11 1718.44,2541.35 1713.86,2533.84 C1709.28,2526.32 1707,2517.4 1707,2507.07 C1707,2496.81 1709.65,2487.9 1714.97,2480.35 C1720.29,2472.81 1727.28,2469.04 1735.94,2469.04 C1741.63,2469.04 1746.55,2470.47 1750.69,2473.35 C1754.84,2476.23 1756.91,2480.01 1756.91,2484.71 C1756.91,2487.44 1755.92,2489.79 1753.94,2491.76 C1751.96,2493.74 1749.59,2494.73 1746.84,2494.73 C1744.09,2494.73 1741.72,2493.74 1739.74,2491.76 C1737.77,2489.79 1736.78,2487.44 1736.78,2484.71 C1736.78,2482.05 1737.77,2479.7 1739.74,2477.66 C1740.42,2476.86 1741.38,2476.18 1742.62,2475.62 C1742.31,2474.82 1741.69,2474.2 1740.76,2473.77 C1739.4,2472.96 1737.8,2472.56 1735.94,2472.56 M1740.49,2510.5 C1739.37,2507.6 1736.93,2506.14 1733.16,2506.14 C1729.38,2506.14 1727.05,2507.6 1726.15,2510.5 C1725.26,2513.41 1724.81,2517.83 1724.81,2523.77 C1724.81,2530.76 1725.26,2535.46 1726.15,2537.87 C1727.05,2540.29 1729.38,2541.49 1733.16,2541.49 C1736.93,2541.49 1739.37,2540.04 1740.49,2537.13 C1741.6,2534.22 1742.16,2529.79 1742.16,2523.82 C1742.16,2517.85 1741.6,2513.41 1740.49,2510.5"/>
<path class="FiguredBass" d="M1735.29,2576.73 C1737.64,2576.73 1740.12,2576.39 1742.71,2575.71 L1746.89,2574.6 C1747.69,2574.6 1748.33,2574.91 1748.79,2575.53 C1749.25,2576.15 1749.21,2576.7 1748.65,2577.2 L1705.51,2627.39 L1730.84,2627.39 L1730.84,2607.53 C1730.84,2606.11 1731.22,2605.01 1732,2604.24 C1732.77,2603.47 1733.76,2602.85 1734.97,2602.39 C1736.17,2601.92 1737.75,2600.55 1739.7,2598.26 C1741.65,2595.97 1743.52,2592.88 1745.31,2588.98 C1745.62,2588.36 1746.08,2588.05 1746.7,2588.05 C1748,2588.05 1748.65,2588.76 1748.65,2590.19 L1748.65,2627.39 L1759.6,2627.39 C1761.14,2627.39 1761.92,2628.1 1761.92,2629.52 C1761.92,2631.07 1761.14,2631.84 1759.6,2631.84 L1748.65,2631.84 L1748.65,2633.05 C1748.65,2636.88 1749.67,2640.22 1751.71,2643.07 C1753.75,2645.91 1756.38,2647.33 1759.6,2647.33 C1760.83,2647.33 1761.45,2647.89 1761.45,2649 C1761.45,2650.24 1760.83,2650.86 1759.6,2650.86 C1757.37,2650.86 1754.06,2650.53 1749.67,2649.89 C1745.28,2649.24 1741.96,2648.91 1739.7,2648.91 C1737.44,2648.91 1734.12,2649.24 1729.72,2649.89 C1725.33,2650.53 1722.02,2650.86 1719.8,2650.86 C1718.56,2650.86 1717.94,2650.24 1717.94,2649 C1717.94,2647.89 1718.56,2647.33 1719.8,2647.33 C1723.01,2647.33 1725.66,2645.91 1727.73,2643.07 C1729.8,2640.22 1730.84,2636.88 1730.84,2633.05 L1730.84,2631.84 L1705.51,2631.84 C1703.9,2631.84 1702.71,2631.45 1701.94,2630.68 C1701.17,2629.91 1700.78,2629.12 1700.78,2628.32 C1700.78,2628.01 1701.51,2626.94 1702.96,2625.11 C1704.41,2623.29 1706.19,2620.86 1708.29,2617.83 C1710.4,2614.8 1712.48,2611.35 1714.56,2607.49 C1716.63,2603.62 1718.39,2598.98 1719.84,2593.57 C1721.3,2588.16 1722.02,2582.7 1722.02,2577.2 C1722.02,2575.59 1722.7,2574.79 1724.07,2574.79 C1724.25,2574.79 1724.9,2574.94 1726.01,2575.25 C1727.13,2575.56 1728.55,2575.88 1730.28,2576.22 C1732.01,2576.56 1733.68,2576.73 1735.29,2576.73"/>
<path class="FiguredBass" d="M2307.34,2470.98 C2309.69,2470.98 2312.16,2470.64 2314.76,2469.96 L2318.93,2468.85 C2319.74,2468.85 2320.37,2469.16 2320.83,2469.78 C2321.3,2470.4 2321.25,2470.95 2320.69,2471.45 L2277.55,2521.64 L2302.88,2521.64 L2302.88,2501.78 C2302.88,2500.36 2303.27,2499.26 2304.04,2498.49 C2304.81,2497.72 2305.8,2497.1 2307.01,2496.64 C2308.22,2496.17 2309.79,2494.8 2311.74,2492.51 C2313.69,2490.22 2315.56,2487.13 2317.35,2483.23 C2317.66,2482.61 2318.13,2482.3 2318.75,2482.3 C2320.04,2482.3 2320.69,2483.01 2320.69,2484.44 L2320.69,2521.64 L2331.64,2521.64 C2333.19,2521.64 2333.96,2522.35 2333.96,2523.77 C2333.96,2525.32 2333.19,2526.09 2331.64,2526.09 L2320.69,2526.09 L2320.69,2527.3 C2320.69,2531.13 2321.71,2534.47 2323.76,2537.32 C2325.8,2540.16 2328.43,2541.58 2331.64,2541.58 C2332.88,2541.58 2333.5,2542.14 2333.5,2543.25 C2333.5,2544.49 2332.88,2545.11 2331.64,2545.11 C2329.42,2545.11 2326.11,2544.78 2321.71,2544.14 C2317.32,2543.49 2314,2543.16 2311.74,2543.16 C2309.48,2543.16 2306.16,2543.49 2301.77,2544.14 C2297.38,2544.78 2294.07,2545.11 2291.84,2545.11 C2290.6,2545.11 2289.99,2544.49 2289.99,2543.25 C2289.99,2542.14 2290.6,2541.58 2291.84,2541.58 C2295.06,2541.58 2297.7,2540.16 2299.77,2537.32 C2301.85,2534.47 2302.88,2531.13 2302.88,2527.3 L2302.88,2526.09 L2277.55,2526.09 C2275.95,2526.09 2274.76,2525.7 2273.98,2524.93 C2273.21,2524.16 2272.82,2523.37 2272.82,2522.57 C2272.82,2522.26 2273.55,2521.19 2275,2519.36 C2276.46,2517.54 2278.24,2515.11 2280.34,2512.08 C2282.44,2509.05 2284.53,2505.6 2286.6,2501.74 C2288.67,2497.87 2290.43,2493.23 2291.89,2487.82 C2293.34,2482.41 2294.07,2476.95 2294.07,2471.45 C2294.07,2469.84 2294.75,2469.04 2296.11,2469.04 C2296.29,2469.04 2296.94,2469.19 2298.06,2469.5 C2299.17,2469.81 2300.59,2470.13 2302.33,2470.47 C2304.06,2470.81 2305.73,2470.98 2307.34,2470.98"/>
<path class="FiguredBass" d="M2990.58,2535.46 L2990.58,2554.85 C2990.58,2556.77 2989.6,2557.73 2987.65,2557.73 C2985.7,2557.73 2984.73,2556.77 2984.73,2554.85 L2984.73,2537.97 L2981.76,2539.17 C2981.45,2539.3 2981.05,2539.36 2980.56,2539.36 C2979.75,2539.36 2979.04,2539.05 2978.42,2538.43 C2977.8,2537.81 2977.49,2537.1 2977.49,2536.3 L2977.49,2526.83 C2977.49,2525.47 2978.14,2524.51 2979.44,2523.96 L2984.73,2521.73 L2984.73,2502.25 L2981.76,2503.45 C2981.58,2503.52 2981.33,2503.55 2981.02,2503.55 C2980.9,2503.55 2980.74,2503.55 2980.56,2503.55 C2979.63,2503.42 2978.89,2503.08 2978.33,2502.53 C2977.77,2501.97 2977.49,2501.32 2977.49,2500.58 L2977.49,2491.12 C2977.49,2489.82 2978.14,2488.89 2979.44,2488.33 L2984.73,2486.11 L2984.73,2466.34 C2984.73,2464.43 2985.7,2463.47 2987.65,2463.47 C2989.6,2463.47 2990.58,2464.43 2990.58,2466.34 L2990.58,2483.69 L3002.54,2478.68 L3002.54,2459.29 C3002.54,2457.38 3003.5,2456.42 3005.42,2456.42 C3007.34,2456.42 3008.29,2457.38 3008.29,2459.29 L3008.29,2476.36 L3011.54,2474.97 C3011.85,2474.85 3012.19,2474.79 3012.56,2474.79 C3013.37,2474.79 3014.09,2475.1 3014.74,2475.71 C3015.39,2476.33 3015.72,2477.04 3015.72,2477.85 L3015.72,2487.31 C3015.72,2488.67 3015.04,2489.63 3013.68,2490.19 L3008.29,2492.41 L3008.29,2511.99 L3011.54,2510.69 C3011.73,2510.63 3011.94,2510.6 3012.19,2510.6 C3012.31,2510.6 3012.44,2510.6 3012.56,2510.6 C3013.61,2510.78 3014.4,2511.12 3014.93,2511.62 C3015.45,2512.11 3015.72,2512.76 3015.72,2513.57 L3015.72,2523.03 C3015.72,2524.33 3015.04,2525.26 3013.68,2525.81 L3008.29,2528.04 L3008.29,2547.8 C3008.29,2549.72 3007.34,2550.68 3005.42,2550.68 C3003.5,2550.68 3002.54,2549.72 3002.54,2547.8 L3002.54,2530.45 L2990.58,2535.46 M2990.58,2519.32 L3002.54,2514.4 L3002.54,2494.83 L2990.58,2499.84 L2990.58,2519.32 "/>
<path class="FiguredBass" d="M3269.37,2475.9 C3269.56,2475.9 3269.96,2475.5 3270.58,2474.69 C3273.24,2470.92 3276.95,2469.04 3281.71,2469.04 C3285.55,2469.04 3289.16,2470.46 3292.57,2473.3 C3295.97,2476.15 3298.78,2477.57 3301.01,2477.57 C3303.42,2477.57 3305.71,2476.86 3307.87,2475.44 C3310.04,2474.01 3311.76,2472.59 3313.02,2471.17 C3314.29,2469.75 3315.11,2469.04 3315.48,2469.04 C3316.1,2469.04 3316.66,2469.24 3317.15,2469.64 C3317.65,2470.04 3317.89,2470.55 3317.89,2471.17 C3317.89,2471.6 3316.63,2473.74 3314.09,2477.57 C3311.55,2481.4 3308.74,2485.84 3305.65,2490.88 C3302.56,2495.92 3299.74,2502.22 3297.21,2509.76 C3294.67,2517.31 3293.4,2524.51 3293.4,2531.38 C3293.4,2534.04 3293.68,2537.1 3294.24,2540.56 C3294.67,2543.22 3294.67,2544.74 3294.24,2545.11 C3293.93,2545.42 3293.4,2545.57 3292.66,2545.57 C3292.35,2545.57 3290.91,2545.17 3288.35,2544.37 C3285.78,2543.56 3283.32,2543.16 3280.97,2543.16 C3278.87,2543.16 3276.44,2543.56 3273.69,2544.37 C3270.93,2545.17 3269.4,2545.57 3269.09,2545.57 C3268.41,2545.57 3267.86,2545.29 3267.42,2544.74 C3266.99,2544.18 3266.93,2543.59 3267.24,2542.98 C3270.89,2534.25 3275.33,2525.77 3280.55,2517.51 C3285.78,2509.25 3292.32,2499.74 3300.17,2488.98 C3297.21,2490.59 3294.21,2491.39 3291.17,2491.39 C3287.96,2491.39 3284.71,2489.96 3281.43,2487.08 C3278.16,2484.2 3275.47,2482.77 3273.36,2482.77 C3271.82,2482.77 3270.47,2483.65 3269.33,2485.41 C3268.18,2487.17 3267.61,2489.82 3267.61,2493.34 L3267.61,2504.75 C3267.61,2506.3 3266.9,2507.07 3265.48,2507.07 C3263.93,2507.07 3263.16,2506.3 3263.16,2504.75 L3263.16,2471.35 C3263.16,2469.81 3263.93,2469.04 3265.48,2469.04 C3266.9,2469.04 3267.61,2469.81 3267.61,2471.35 L3267.61,2473.49 C3267.61,2473.98 3267.73,2474.42 3267.98,2474.79 C3268.72,2475.53 3269.19,2475.9 3269.37,2475.9"/>
<path class="FiguredBass" d="M3283.66,2641.21 L3283.66,2660.6 C3283.66,2662.52 3282.69,2663.48 3280.74,2663.48 C3278.79,2663.48 3277.82,2662.52 3277.82,2660.6 L3277.82,2643.72 L3274.85,2644.92 C3274.54,2645.05 3274.14,2645.11 3273.64,2645.11 C3272.84,2645.11 3272.13,2644.8 3271.51,2644.18 C3270.89,2643.56 3270.58,2642.85 3270.58,2642.05 L3270.58,2632.58 C3270.58,2631.22 3271.23,2630.26 3272.53,2629.71 L3277.82,2627.48 L3277.82,2608 L3274.85,2609.2 C3274.66,2609.27 3274.41,2609.3 3274.1,2609.3 C3273.98,2609.3 3273.83,2609.3 3273.64,2609.3 C3272.71,2609.17 3271.97,2608.83 3271.41,2608.28 C3270.86,2607.72 3270.58,2607.07 3270.58,2606.33 L3270.58,2596.87 C3270.58,2595.57 3271.23,2594.64 3272.53,2594.08 L3277.82,2591.86 L3277.82,2572.09 C3277.82,2570.18 3278.79,2569.22 3280.74,2569.22 C3282.69,2569.22 3283.66,2570.18 3283.66,2572.09 L3283.66,2589.44 L3295.63,2584.43 L3295.63,2565.04 C3295.63,2563.13 3296.59,2562.17 3298.5,2562.17 C3300.42,2562.17 3301.38,2563.13 3301.38,2565.04 L3301.38,2582.11 L3304.63,2580.72 C3304.94,2580.6 3305.28,2580.54 3305.65,2580.54 C3306.45,2580.54 3307.18,2580.85 3307.83,2581.46 C3308.48,2582.08 3308.8,2582.79 3308.8,2583.6 L3308.8,2593.06 C3308.8,2594.42 3308.12,2595.38 3306.76,2595.94 L3301.38,2598.16 L3301.38,2617.74 L3304.63,2616.44 C3304.81,2616.38 3305.03,2616.35 3305.28,2616.35 C3305.4,2616.35 3305.52,2616.35 3305.65,2616.35 C3306.7,2616.53 3307.49,2616.87 3308.01,2617.37 C3308.54,2617.86 3308.8,2618.51 3308.8,2619.32 L3308.8,2628.78 C3308.8,2630.08 3308.12,2631.01 3306.76,2631.56 L3301.38,2633.79 L3301.38,2653.55 C3301.38,2655.47 3300.42,2656.43 3298.5,2656.43 C3296.59,2656.43 3295.63,2655.47 3295.63,2653.55 L3295.63,2636.2 L3283.66,2641.21 M3283.66,2625.07 L3295.63,2620.15 L3295.63,2600.58 L3283.66,2605.59 L3283.66,2625.07 "/>
<path class="FiguredBass" d="M1735.94,1765.11 C1731.36,1765.11 1728.32,1766.95 1726.8,1770.63 C1725.29,1774.31 1724.53,1779.52 1724.53,1786.26 L1724.53,1797.21 C1727.75,1795.91 1730.53,1795.23 1732.88,1795.17 C1740.92,1795.17 1747.24,1796.94 1751.85,1800.5 C1756.46,1804.06 1758.76,1809.34 1758.76,1816.36 C1758.76,1823.38 1756.43,1828.69 1751.76,1832.28 C1747.09,1835.86 1740.8,1837.66 1732.88,1837.66 C1724.78,1837.66 1718.44,1833.9 1713.86,1826.38 C1709.28,1818.87 1707,1809.95 1707,1799.62 C1707,1789.35 1709.65,1780.45 1714.97,1772.9 C1720.29,1765.35 1727.28,1761.58 1735.94,1761.58 C1741.63,1761.58 1746.55,1763.02 1750.69,1765.9 C1754.84,1768.77 1756.91,1772.56 1756.91,1777.26 C1756.91,1779.98 1755.92,1782.33 1753.94,1784.31 C1751.96,1786.29 1749.59,1787.28 1746.84,1787.28 C1744.09,1787.28 1741.72,1786.29 1739.74,1784.31 C1737.77,1782.33 1736.78,1779.98 1736.78,1777.26 C1736.78,1774.6 1737.77,1772.25 1739.74,1770.21 C1740.42,1769.41 1741.38,1768.73 1742.62,1768.17 C1742.31,1767.36 1741.69,1766.75 1740.76,1766.31 C1739.4,1765.51 1737.8,1765.11 1735.94,1765.11 M1740.49,1803.05 C1739.37,1800.14 1736.93,1798.69 1733.16,1798.69 C1729.38,1798.69 1727.05,1800.14 1726.15,1803.05 C1725.26,1805.96 1724.81,1810.38 1724.81,1816.32 C1724.81,1823.31 1725.26,1828.01 1726.15,1830.42 C1727.05,1832.83 1729.38,1834.04 1733.16,1834.04 C1736.93,1834.04 1739.37,1832.58 1740.49,1829.68 C1741.6,1826.77 1742.16,1822.33 1742.16,1816.36 C1742.16,1810.4 1741.6,1805.96 1740.49,1803.05"/>
<path class="FiguredBass" d="M1735.29,1869.28 C1737.64,1869.28 1740.12,1868.94 1742.71,1868.26 L1746.89,1867.15 C1747.69,1867.15 1748.33,1867.46 1748.79,1868.07 C1749.25,1868.69 1749.21,1869.25 1748.65,1869.74 L1705.51,1919.93 L1730.84,1919.93 L1730.84,1900.08 C1730.84,1898.66 1731.22,1897.56 1732,1896.79 C1732.77,1896.01 1733.76,1895.4 1734.97,1894.93 C1736.17,1894.47 1737.75,1893.09 1739.7,1890.8 C1741.65,1888.52 1743.52,1885.42 1745.31,1881.53 C1745.62,1880.91 1746.08,1880.6 1746.7,1880.6 C1748,1880.6 1748.65,1881.31 1748.65,1882.73 L1748.65,1919.93 L1759.6,1919.93 C1761.14,1919.93 1761.92,1920.65 1761.92,1922.07 C1761.92,1923.61 1761.14,1924.39 1759.6,1924.39 L1748.65,1924.39 L1748.65,1925.59 C1748.65,1929.43 1749.67,1932.77 1751.71,1935.61 C1753.75,1938.46 1756.38,1939.88 1759.6,1939.88 C1760.83,1939.88 1761.45,1940.44 1761.45,1941.55 C1761.45,1942.79 1760.83,1943.41 1759.6,1943.41 C1757.37,1943.41 1754.06,1943.08 1749.67,1942.43 C1745.28,1941.78 1741.96,1941.46 1739.7,1941.46 C1737.44,1941.46 1734.12,1941.78 1729.72,1942.43 C1725.33,1943.08 1722.02,1943.41 1719.8,1943.41 C1718.56,1943.41 1717.94,1942.79 1717.94,1941.55 C1717.94,1940.44 1718.56,1939.88 1719.8,1939.88 C1723.01,1939.88 1725.66,1938.46 1727.73,1935.61 C1729.8,1932.77 1730.84,1929.43 1730.84,1925.59 L1730.84,1924.39 L1705.51,1924.39 C1703.9,1924.39 1702.71,1924 1701.94,1923.23 C1701.17,1922.45 1700.78,1921.67 1700.78,1920.86 C1700.78,1920.55 1701.51,1919.49 1702.96,1917.66 C1704.41,1915.84 1706.19,1913.41 1708.29,1910.38 C1710.4,1907.35 1712.48,1903.9 1714.56,1900.03 C1716.63,1896.17 1718.39,1891.53 1719.84,1886.12 C1721.3,1880.71 1722.02,1875.25 1722.02,1869.74 C1722.02,1868.14 1722.7,1867.33 1724.07,1867.33 C1724.25,1867.33 1724.9,1867.49 1726.01,1867.8 C1727.13,1868.11 1728.55,1868.43 1730.28,1868.77 C1732.01,1869.11 1733.68,1869.28 1735.29,1869.28"/>
<path class="FiguredBass" d="M1744.29,2005.37 C1749.24,1999.99 1751.71,1994.79 1751.71,1989.78 C1751.71,1985.7 1749.96,1982.48 1746.47,1980.13 C1742.98,1977.78 1738.79,1976.61 1733.9,1976.61 C1730.44,1976.61 1727.67,1977.69 1725.6,1979.85 C1723.52,1982.02 1722.49,1984.52 1722.49,1987.37 C1722.49,1990.83 1724,1993.46 1727.03,1995.25 L1744.29,2005.37 M1748.84,2007.96 C1757.25,2012.85 1761.45,2019.28 1761.45,2027.26 C1761.45,2033.26 1758.89,2038.41 1753.75,2042.71 C1748.62,2047.01 1741.6,2049.16 1732.69,2049.16 C1725.21,2049.16 1718.7,2047.18 1713.16,2043.22 C1707.63,2039.26 1704.86,2034.13 1704.86,2027.82 C1704.86,2025.47 1705.54,2023.09 1706.9,2020.67 C1708.26,2018.26 1709.53,2016.45 1710.71,2015.25 C1711.88,2014.04 1713.8,2012.17 1716.46,2009.63 C1710.27,2005.37 1707.18,1999.99 1707.18,1993.49 C1707.18,1987.93 1709.56,1983.13 1714.32,1979.11 C1719.09,1975.09 1725.61,1973.08 1733.9,1973.08 C1740.52,1973.08 1746.25,1974.58 1751.11,1977.58 C1755.96,1980.58 1758.39,1984.65 1758.39,1989.78 C1758.39,1995.29 1755.21,2001.35 1748.84,2007.96 M1721,2012.33 C1714.7,2017.83 1711.54,2022.99 1711.54,2027.82 C1711.54,2032.89 1713.64,2037.13 1717.85,2040.53 C1722.06,2043.93 1727,2045.63 1732.69,2045.63 C1736.65,2045.63 1739.82,2044.36 1742.2,2041.83 C1744.58,2039.29 1745.77,2036.35 1745.77,2033.01 C1745.77,2028.75 1744.01,2025.59 1740.49,2023.55 L1721,2012.33 "/>
<path class="FiguredBass" d="M2285.35,1761.58 C2285.35,1761.58 2286.83,1761.8 2289.8,1762.23 C2291.1,1762.42 2292.55,1762.6 2294.16,1762.79 C2298.43,1763.28 2302.54,1763.53 2306.5,1763.53 C2310.46,1763.53 2314.63,1763.28 2319.02,1762.79 C2320.76,1762.6 2322.27,1762.42 2323.57,1762.23 L2328.12,1761.58 C2329.04,1761.58 2329.74,1761.89 2330.2,1762.51 C2330.67,1763.13 2330.62,1763.62 2330.06,1763.99 C2320.6,1773.46 2307.27,1778.19 2290.08,1778.19 C2289.4,1778.19 2288.8,1778.44 2288.27,1778.93 C2287.74,1779.43 2287.48,1780.04 2287.48,1780.79 L2287.48,1795.35 C2291.87,1791.02 2297.19,1788.86 2303.44,1788.86 C2312.47,1788.86 2319.44,1790.88 2324.36,1794.93 C2329.28,1798.99 2331.73,1805.12 2331.73,1813.35 C2331.73,1820.34 2328.95,1826.14 2323.38,1830.74 C2317.82,1835.35 2311.17,1837.66 2303.44,1837.66 C2296.76,1837.66 2290.96,1836.14 2286.04,1833.11 C2281.13,1830.08 2278.67,1825.87 2278.67,1820.49 C2278.67,1817.77 2279.66,1815.41 2281.64,1813.4 C2283.62,1811.39 2285.98,1810.38 2288.73,1810.38 C2291.49,1810.38 2293.82,1811.37 2295.74,1813.35 C2297.66,1815.33 2298.61,1817.71 2298.61,1820.49 C2298.61,1821.73 2297.59,1823.08 2295.55,1824.53 C2293.51,1825.98 2292.49,1827.33 2292.49,1828.56 C2292.49,1832.28 2296.14,1834.13 2303.44,1834.13 C2310.55,1834.13 2314.11,1827.2 2314.11,1813.35 C2314.11,1799.99 2310.55,1793.28 2303.44,1793.22 C2297.07,1793.22 2292.61,1794.52 2290.08,1797.11 C2287.54,1799.71 2285.97,1801.01 2285.35,1801.01 C2283.8,1801.01 2283.06,1800.24 2283.12,1798.69 L2283.12,1763.99 C2283.12,1763.31 2283.34,1762.74 2283.77,1762.28 C2284.2,1761.81 2284.73,1761.58 2285.35,1761.58"/>
<path class="FiguredBass" d="M2307.34,1869.28 C2309.69,1869.28 2312.16,1868.94 2314.76,1868.26 L2318.93,1867.15 C2319.74,1867.15 2320.37,1867.46 2320.83,1868.07 C2321.3,1868.69 2321.25,1869.25 2320.69,1869.74 L2277.55,1919.93 L2302.88,1919.93 L2302.88,1900.08 C2302.88,1898.66 2303.27,1897.56 2304.04,1896.79 C2304.81,1896.01 2305.8,1895.4 2307.01,1894.93 C2308.22,1894.47 2309.79,1893.09 2311.74,1890.8 C2313.69,1888.52 2315.56,1885.42 2317.35,1881.53 C2317.66,1880.91 2318.13,1880.6 2318.75,1880.6 C2320.04,1880.6 2320.69,1881.31 2320.69,1882.73 L2320.69,1919.93 L2331.64,1919.93 C2333.19,1919.93 2333.96,1920.65 2333.96,1922.07 C2333.96,1923.61 2333.19,1924.39 2331.64,1924.39 L2320.69,1924.39 L2320.69,1925.59 C2320.69,1929.43 2321.71,1932.77 2323.76,1935.61 C2325.8,1938.46 2328.43,1939.88 2331.64,1939.88 C2332.88,1939.88 2333.5,1940.44 2333.5,1941.55 C2333.5,1942.79 2332.88,1943.41 2331.64,1943.41 C2329.42,1943.41 2326.11,1943.08 2321.71,1942.43 C2317.32,1941.78 2314,1941.46 2311.74,1941.46 C2309.48,1941.46 2306.16,1941.78 2301.77,1942.43 C2297.38,1943.08 2294.07,1943.41 2291.84,1943.41 C2290.6,1943.41 2289.99,1942.79 2289.99,1941.55 C2289.99,1940.44 2290.6,1939.88 2291.84,1939.88 C2295.06,1939.88 2297.7,1938.46 2299.77,1935.61 C2301.85,1932.77 2302.88,1929.43 2302.88,1925.59 L2302.88,1924.39 L2277.55,1924.39 C2275.95,1924.39 2274.76,1924 2273.98,1923.23 C2273.21,1922.45 2272.82,1921.67 2272.82,1920.86 C2272.82,1920.55 2273.55,1919.49 2275,1917.66 C2276.46,1915.84 2278.24,1913.41 2280.34,1910.38 C2282.44,1907.35 2284.53,1903.9 2286.6,1900.03 C2288.67,1896.17 2290.43,1891.53 2291.89,1886.12 C2293.34,1880.71 2294.07,1875.25 2294.07,1869.74 C2294.07,1868.14 2294.75,1867.33 2296.11,1867.33 C2296.29,1867.33 2296.94,1867.49 2298.06,1867.8 C2299.17,1868.11 2300.59,1868.43 2302.33,1868.77 C2304.06,1869.11 2305.73,1869.28 2307.34,1869.28"/>
<path class="FiguredBass" d="M2316.33,2005.37 C2321.28,1999.99 2323.76,1994.79 2323.76,1989.78 C2323.76,1985.7 2322.01,1982.48 2318.51,1980.13 C2315.02,1977.78 2310.83,1976.61 2305.94,1976.61 C2302.48,1976.61 2299.71,1977.69 2297.64,1979.85 C2295.57,1982.02 2294.53,1984.52 2294.53,1987.37 C2294.53,1990.83 2296.05,1993.46 2299.08,1995.25 L2316.33,2005.37 M2320.88,2007.96 C2329.29,2012.85 2333.5,2019.28 2333.5,2027.26 C2333.5,2033.26 2330.93,2038.41 2325.8,2042.71 C2320.66,2047.01 2313.64,2049.16 2304.74,2049.16 C2297.25,2049.16 2290.74,2047.18 2285.21,2043.22 C2279.67,2039.26 2276.91,2034.13 2276.91,2027.82 C2276.91,2025.47 2277.59,2023.09 2278.95,2020.67 C2280.31,2018.26 2281.57,2016.45 2282.75,2015.25 C2283.93,2014.04 2285.84,2012.17 2288.5,2009.63 C2282.32,2005.37 2279.22,1999.99 2279.22,1993.49 C2279.22,1987.93 2281.61,1983.13 2286.37,1979.11 C2291.13,1975.09 2297.66,1973.08 2305.94,1973.08 C2312.56,1973.08 2318.3,1974.58 2323.15,1977.58 C2328.01,1980.58 2330.44,1984.65 2330.44,1989.78 C2330.44,1995.29 2327.25,2001.35 2320.88,2007.96 M2293.05,2012.33 C2286.74,2017.83 2283.59,2022.99 2283.59,2027.82 C2283.59,2032.89 2285.69,2037.13 2289.89,2040.53 C2294.1,2043.93 2299.05,2045.63 2304.74,2045.63 C2308.7,2045.63 2311.87,2044.36 2314.25,2041.83 C2316.63,2039.29 2317.82,2036.35 2317.82,2033.01 C2317.82,2028.75 2316.06,2025.59 2312.53,2023.55 L2293.05,2012.33 "/>
<path class="FiguredBass" d="M3269.37,1768.45 C3269.56,1768.45 3269.96,1768.05 3270.58,1767.24 C3273.24,1763.47 3276.95,1761.58 3281.71,1761.58 C3285.55,1761.58 3289.16,1763 3292.57,1765.85 C3295.97,1768.69 3298.78,1770.12 3301.01,1770.12 C3303.42,1770.12 3305.71,1769.41 3307.87,1767.98 C3310.04,1766.56 3311.76,1765.14 3313.02,1763.72 C3314.29,1762.29 3315.11,1761.58 3315.48,1761.58 C3316.1,1761.58 3316.66,1761.78 3317.15,1762.18 C3317.65,1762.59 3317.89,1763.1 3317.89,1763.72 C3317.89,1764.15 3316.63,1766.28 3314.09,1770.12 C3311.55,1773.95 3308.74,1778.39 3305.65,1783.43 C3302.56,1788.47 3299.74,1794.76 3297.21,1802.31 C3294.67,1809.86 3293.4,1817.06 3293.4,1823.93 C3293.4,1826.59 3293.68,1829.65 3294.24,1833.11 C3294.67,1835.77 3294.67,1837.29 3294.24,1837.66 C3293.93,1837.97 3293.4,1838.12 3292.66,1838.12 C3292.35,1838.12 3290.91,1837.72 3288.35,1836.91 C3285.78,1836.11 3283.32,1835.71 3280.97,1835.71 C3278.87,1835.71 3276.44,1836.11 3273.69,1836.91 C3270.93,1837.72 3269.4,1838.12 3269.09,1838.12 C3268.41,1838.12 3267.86,1837.84 3267.42,1837.29 C3266.99,1836.73 3266.93,1836.14 3267.24,1835.52 C3270.89,1826.8 3275.33,1818.31 3280.55,1810.06 C3285.78,1801.8 3292.32,1792.29 3300.17,1781.53 C3297.21,1783.14 3294.21,1783.94 3291.17,1783.94 C3287.96,1783.94 3284.71,1782.5 3281.43,1779.63 C3278.16,1776.75 3275.47,1775.31 3273.36,1775.31 C3271.82,1775.31 3270.47,1776.19 3269.33,1777.96 C3268.18,1779.72 3267.61,1782.36 3267.61,1785.89 L3267.61,1797.3 C3267.61,1798.85 3266.9,1799.62 3265.48,1799.62 C3263.93,1799.62 3263.16,1798.85 3263.16,1797.3 L3263.16,1763.9 C3263.16,1762.36 3263.93,1761.58 3265.48,1761.58 C3266.9,1761.58 3267.61,1762.36 3267.61,1763.9 L3267.61,1766.04 C3267.61,1766.53 3267.73,1766.96 3267.98,1767.33 C3268.72,1768.08 3269.19,1768.45 3269.37,1768.45"/>
<path class="FiguredBass" d="M3304.35,1903.05 C3304.35,1904.04 3304.91,1905 3306.02,1905.93 C3307.13,1906.85 3308.35,1907.73 3309.68,1908.57 C3311.01,1909.4 3312.23,1910.98 3313.35,1913.3 C3314.46,1915.62 3315.02,1918.54 3315.02,1922.07 C3315.02,1928.87 3312.45,1934.13 3307.32,1937.84 C3302.18,1941.55 3295.69,1943.41 3287.84,1943.41 C3281.53,1943.41 3276.04,1941.83 3271.37,1938.67 C3266.7,1935.52 3264.36,1931.38 3264.36,1926.24 C3264.36,1923.52 3265.35,1921.16 3267.33,1919.15 C3269.31,1917.14 3271.68,1916.13 3274.43,1916.13 C3277.18,1916.13 3279.52,1917.12 3281.43,1919.1 C3283.35,1921.08 3284.31,1923.46 3284.31,1926.24 C3284.31,1927.48 3283.29,1928.83 3281.25,1930.28 C3279.21,1931.73 3278.19,1933.08 3278.19,1934.31 C3278.19,1936.23 3279.13,1937.64 3281.02,1938.54 C3282.9,1939.43 3285.18,1939.88 3287.84,1939.88 C3291.3,1939.88 3293.76,1938.16 3295.21,1934.73 C3296.66,1931.3 3297.39,1927.08 3297.39,1922.07 L3297.39,1919.66 C3297.39,1916.32 3297.28,1913.78 3297.07,1912.05 C3296.85,1910.32 3296.17,1908.77 3295.03,1907.41 C3293.88,1906.05 3292.13,1905.37 3289.78,1905.37 L3277.63,1905.37 C3276.21,1905.37 3275.5,1904.6 3275.5,1903.05 C3275.5,1901.63 3276.21,1900.92 3277.63,1900.92 L3289.78,1900.92 C3292.32,1900.92 3294.3,1899.96 3295.72,1898.04 C3296.22,1897.36 3296.62,1896.25 3296.93,1894.7 C3297.24,1892.66 3297.39,1889.72 3297.39,1885.89 L3297.39,1884.68 C3297.39,1875.47 3293.99,1870.86 3287.19,1870.86 C3281.19,1870.86 3278.19,1872.53 3278.19,1875.87 C3278.19,1876.98 3279.1,1878.17 3280.92,1879.44 C3282.75,1880.71 3283.66,1881.9 3283.66,1883.01 C3283.66,1885.42 3282.81,1887.49 3281.11,1889.23 C3279.41,1890.96 3277.34,1891.82 3274.89,1891.82 C3272.45,1891.82 3270.39,1890.96 3268.72,1889.23 C3267.05,1887.49 3266.22,1885.42 3266.22,1883.01 C3266.22,1878.25 3268.29,1874.44 3272.43,1871.6 C3276.58,1868.75 3281.5,1867.33 3287.19,1867.33 C3294.67,1867.33 3300.82,1868.77 3305.65,1871.65 C3310.47,1874.52 3312.88,1878.87 3312.88,1884.68 C3312.88,1888.82 3312.45,1892.04 3311.59,1894.33 C3310.72,1896.62 3309.73,1898.01 3308.62,1898.5 C3307.5,1899 3306.51,1899.57 3305.65,1900.22 C3304.78,1900.87 3304.35,1901.81 3304.35,1903.05"/>
<path class="FiguredBass" d="M3300.82,2005.37 C3305.77,1999.99 3308.25,1994.79 3308.25,1989.78 C3308.25,1985.7 3306.5,1982.48 3303,1980.13 C3299.51,1977.78 3295.32,1976.61 3290.43,1976.61 C3286.97,1976.61 3284.2,1977.69 3282.13,1979.85 C3280.06,1982.02 3279.02,1984.52 3279.02,1987.37 C3279.02,1990.83 3280.54,1993.46 3283.57,1995.25 L3300.82,2005.37 M3305.37,2007.96 C3313.78,2012.85 3317.99,2019.28 3317.99,2027.26 C3317.99,2033.26 3315.42,2038.41 3310.29,2042.71 C3305.15,2047.01 3298.13,2049.16 3289.23,2049.16 C3281.74,2049.16 3275.23,2047.18 3269.7,2043.22 C3264.16,2039.26 3261.39,2034.13 3261.39,2027.82 C3261.39,2025.47 3262.08,2023.09 3263.44,2020.67 C3264.8,2018.26 3266.06,2016.45 3267.24,2015.25 C3268.41,2014.04 3270.33,2012.17 3272.99,2009.63 C3266.81,2005.37 3263.71,1999.99 3263.71,1993.49 C3263.71,1987.93 3266.1,1983.13 3270.86,1979.11 C3275.62,1975.09 3282.15,1973.08 3290.43,1973.08 C3297.05,1973.08 3302.79,1974.58 3307.64,1977.58 C3312.5,1980.58 3314.92,1984.65 3314.92,1989.78 C3314.92,1995.29 3311.74,2001.35 3305.37,2007.96 M3277.54,2012.33 C3271.23,2017.83 3268.07,2022.99 3268.07,2027.82 C3268.07,2032.89 3270.18,2037.13 3274.38,2040.53 C3278.59,2043.93 3283.54,2045.63 3289.23,2045.63 C3293.19,2045.63 3296.35,2044.36 3298.74,2041.83 C3301.12,2039.29 3302.31,2036.35 3302.31,2033.01 C3302.31,2028.75 3300.55,2025.59 3297.02,2023.55 L3277.54,2012.33 "/>
<polyline class="FretDiagram" stroke="#fc02ff" stroke-width="11.91" stroke-linejoin="bevel" points="1632.32,227.452 1845.43,227.452"/>
<polyline class="FretDiagram" stroke="#fc02ff" stroke-width="4.76" stroke-linejoin="bevel" points="1634.7,227.452 1634.7,441.751"/>
<polyline class="FretDiagram" stroke="#fc02ff" stroke-width="4.76" stroke-linejoin="bevel" points="1676.37,227.452 1676.37,441.751"/>
<polyline class="FretDiagram" stroke="#fc02ff" stroke-width="4.76" stroke-linejoin="bevel" points="1718.04,227.452 1718.04,441.751"/>
<polyline class="FretDiagram" stroke="#fc02ff" stroke-width="4.76" stroke-linejoin="bevel" points="1759.71,227.452 1759.71,441.751"/>
<polyline class="FretDiagram" stroke="#fc02ff" stroke-width="4.76" stroke-linejoin="bevel" points="1801.38,227.452 1801.38,441.751"/>
<polyline class="FretDiagram" stroke="#fc02ff" stroke-width="4.76" stroke-linejoin="bevel" points="1843.05,227.452 1843.05,441.751"/>
<polyline class="FretDiagram" stroke="#fc02ff" stroke-width="4.76" stroke-linejoin="bevel" points="1634.7,275.074 1843.05,275.074"/>
<polyline class="FretDiagram" stroke="#fc02ff" stroke-width="4.76" stroke-linejoin="bevel" points="1634.7,322.696 1843.05,322.696"/>
<polyline class="FretDiagram" stroke="#fc02ff" stroke-width="4.76" stroke-linejoin="bevel" points="1634.7,370.318 1843.05,370.318"/>
<polyline class="FretDiagram" stroke="#fc02ff" stroke-width="4.76" stroke-linejoin="bevel" points="1634.7,417.94 1843.05,417.94"/>
<path class="FretDiagram" fill="#fc02ff" fill-rule="evenodd" d="M1690.96,298.885 C1690.96,306.94 1684.43,313.469 1676.37,313.469 C1668.32,313.469 1661.79,306.94 1661.79,298.885 C1661.79,290.83 1668.32,284.301 1676.37,284.301 C1684.43,284.301 1690.96,290.83 1690.96,298.885"/>
<path class="FretDiagram" fill="#fc02ff" fill-rule="evenodd" d="M1732.63,298.885 C1732.63,306.94 1726.1,313.469 1718.04,313.469 C1709.99,313.469 1703.46,306.94 1703.46,298.885 C1703.46,290.83 1709.99,284.301 1718.04,284.301 C1726.1,284.301 1732.63,290.83 1732.63,298.885"/>
<path class="FretDiagram" fill="#fc02ff" fill-rule="evenodd" d="M1774.29,251.263 C1774.29,259.318 1767.76,265.847 1759.71,265.847 C1751.66,265.847 1745.13,259.318 1745.13,251.263 C1745.13,243.208 1751.66,236.679 1759.71,236.679 C1767.76,236.679 1774.29,243.208 1774.29,251.263"/>
<polyline class="FretDiagram" fill="none" stroke="#fc02ff" stroke-width="6.86" stroke-linecap="round" stroke-linejoin="bevel" points="1618.03,163.162 1651.37,196.498"/>
<polyline class="FretDiagram" fill="none" stroke="#fc02ff" stroke-width="6.86" stroke-linecap="round" stroke-linejoin="bevel" points="1618.03,196.498 1651.37,163.162"/>
<path class="FretDiagram" fill="none" stroke="#fc02ff" stroke-width="6.86" stroke-linecap="round" stroke-linejoin="bevel" fill-rule="evenodd" d="M1818.05,179.83 C1818.05,189.035 1810.58,196.498 1801.38,196.498 C1792.17,196.498 1784.71,189.035 1784.71,179.83 C1784.71,170.625 1792.17,163.162 1801.38,163.162 C1810.58,163.162 1818.05,170.625 1818.05,179.83"/>
<path class="FretDiagram" fill="none" stroke="#fc02ff" stroke-width="6.86" stroke-linecap="round" stroke-linejoin="bevel" fill-rule="evenodd" d="M1859.72,179.83 C1859.72,189.035 1852.25,196.498 1843.05,196.498 C1833.84,196.498 1826.38,189.035 1826.38,179.83 C1826.38,170.625 1833.84,163.162 1843.05,163.162 C1852.25,163.162 1859.72,170.625 1859.72,179.83"/>
<polyline class="FretDiagram" fill="#fc02ff" stroke="#fc02ff" stroke-width="11.91" stroke-linejoin="bevel" points="2204.37,227.452 2417.47,227.452"/>
<polyline class="FretDiagram" fill="#fc02ff" stroke="#fc02ff" stroke-width="4.76" stroke-linejoin="bevel" points="2206.75,227.452 2206.75,441.751"/>
<polyline class="FretDiagram" fill="#fc02ff" stroke="#fc02ff" stroke-width="4.76" stroke-linejoin="bevel" points="2248.42,227.452 2248.42,441.751"/>
<polyline class="FretDiagram" fill="#fc02ff" stroke="#fc02ff" stroke-width="4.76" stroke-linejoin="bevel" points="2290.08,227.452 2290.08,441.751"/>
<polyline class="FretDiagram" fill="#fc02ff" stroke="#fc02ff" stroke-width="4.76" stroke-linejoin="bevel" points="2331.75,227.452 2331.75,441.751"/>
<polyline class="FretDiagram" fill="#fc02ff" stroke="#fc02ff" stroke-width="4.76" stroke-linejoin="bevel" points="2373.42,227.452 2373.42,441.751"/>
<polyline class="FretDiagram" fill="#fc02ff" stroke="#fc02ff" stroke-width="4.76" stroke-linejoin="bevel" points="2415.09,227.452 2415.09,441.751"/>
<polyline class="FretDiagram" fill="#fc02ff" stroke="#fc02ff" stroke-width="4.76" stroke-linejoin="bevel" points="2206.75,275.074 2415.09,275.074"/>
<polyline class="FretDiagram" fill="#fc02ff" stroke="#fc02ff" stroke-width="4.76" stroke-linejoin="bevel" points="2206.75,322.696 2415.09,322.696"/>
<polyline class="FretDiagram" fill="#fc02ff" stroke="#fc02ff" stroke-width="4.76" stroke-linejoin="bevel" points="2206.75,370.318 2415.09,370.318"/>
<polyline class="FretDiagram" fill="#fc02ff" stroke="#fc02ff" stroke-width="4.76" stroke-linejoin="bevel" points="2206.75,417.94 2415.09,417.94"/>
<path class="FretDiagram" fill="#fc02ff" fill-rule="evenodd" d="M2263,298.885 C2263,306.94 2256.47,313.469 2248.42,313.469 C2240.36,313.469 2233.83,306.94 2233.83,298.885 C2233.83,290.83 2240.36,284.301 2248.42,284.301 C2256.47,284.301 2263,290.83 2263,298.885"/>
<path class="FretDiagram" fill="#fc02ff" fill-rule="evenodd" d="M2304.67,298.885 C2304.67,306.94 2298.14,313.469 2290.08,313.469 C2282.03,313.469 2275.5,306.94 2275.5,298.885 C2275.5,290.83 2282.03,284.301 2290.08,284.301 C2298.14,284.301 2304.67,290.83 2304.67,298.885"/>
<polyline class="FretDiagram" fill="none" stroke="#fc02ff" stroke-width="6.86" stroke-linecap="round" stroke-linejoin="bevel" points="2190.08,163.162 2223.41,196.498"/>
<polyline class="FretDiagram" fill="none" stroke="#fc02ff" stroke-width="6.86" stroke-linecap="round" stroke-linejoin="bevel" points="2190.08,196.498 2223.41,163.162"/>
<path class="FretDiagram" fill="none" stroke="#fc02ff" stroke-width="6.86" stroke-linecap="round" stroke-linejoin="bevel" fill-rule="evenodd" d="M2348.42,179.83 C2348.42,189.035 2340.96,196.498 2331.75,196.498 C2322.55,196.498 2315.09,189.035 2315.09,179.83 C2315.09,170.625 2322.55,163.162 2331.75,163.162 C2340.96,163.162 2348.42,170.625 2348.42,179.83"/>
<path class="FretDiagram" fill="none" stroke="#fc02ff" stroke-width="6.86" stroke-linecap="round" stroke-linejoin="bevel" fill-rule="evenodd" d="M2390.09,179.83 C2390.09,189.035 2382.63,196.498 2373.42,196.498 C2364.22,196.498 2356.76,189.035 2356.76,179.83 C2356.76,170.625 2364.22,163.162 2373.42,163.162 C2382.63,163.162 2390.09,170.625 2390.09,179.83"/>
<path class="FretDiagram" fill="none" stroke="#fc02ff" stroke-width="6.86" stroke-linecap="round" stroke-linejoin="bevel" fill-rule="evenodd" d="M2431.76,179.83 C2431.76,189.035 2424.3,196.498 2415.09,196.498 C2405.89,196.498 2398.43,189.035 2398.43,179.83 C2398.43,170.625 2405.89,163.162 2415.09,163.162 C2424.3,163.162 2431.76,170.625 2431.76,179.83"/>
<polyline class="FretDiagram" fill="#fc02ff" stroke="#fc02ff" stroke-width="11.91" stroke-linejoin="bevel" points="3183.13,227.452 3396.24,227.452"/>
<polyline class="FretDiagram" fill="#fc02ff" stroke="#fc02ff" stroke-width="4.76" stroke-linejoin="bevel" points="3185.52,227.452 3185.52,441.751"/>
<polyline class="FretDiagram" fill="#fc02ff" stroke="#fc02ff" stroke-width="4.76" stroke-linejoin="bevel" points="3227.18,227.452 3227.18,441.751"/>
<polyline class="FretDiagram" fill="#fc02ff" stroke="#fc02ff" stroke-width="4.76" stroke-linejoin="bevel" points="3268.85,227.452 3268.85,441.751"/>
<polyline class="FretDiagram" fill="#fc02ff" stroke="#fc02ff" stroke-width="4.76" stroke-linejoin="bevel" points="3310.52,227.452 3310.52,441.751"/>
<polyline class="FretDiagram" fill="#fc02ff" stroke="#fc02ff" stroke-width="4.76" stroke-linejoin="bevel" points="3352.19,227.452 3352.19,441.751"/>
<polyline class="FretDiagram" fill="#fc02ff" stroke="#fc02ff" stroke-width="4.76" stroke-linejoin="bevel" points="3393.86,227.452 3393.86,441.751"/>
<polyline class="FretDiagram" fill="#fc02ff" stroke="#fc02ff" stroke-width="4.76" stroke-linejoin="bevel" points="3185.52,275.074 3393.86,275.074"/>
<polyline class="FretDiagram" fill="#fc02ff" stroke="#fc02ff" stroke-width="4.76" stroke-linejoin="bevel" points="3185.52,322.696 3393.86,322.696"/>
<polyline class="FretDiagram" fill="#fc02ff" stroke="#fc02ff" stroke-width="4.76" stroke-linejoin="bevel" points="3185.52,370.318 3393.86,370.318"/>
<polyline class="FretDiagram" fill="#fc02ff" stroke="#fc02ff" stroke-width="4.76" stroke-linejoin="bevel" points="3185.52,417.94 3393.86,417.94"/>
<path class="FretDiagram" fill="#fc02ff" fill-rule="evenodd" d="M3241.77,298.885 C3241.77,306.94 3235.24,313.469 3227.18,313.469 C3219.13,313.469 3212.6,306.94 3212.6,298.885 C3212.6,290.83 3219.13,284.301 3227.18,284.301 C3235.24,284.301 3241.77,290.83 3241.77,298.885"/>
<path class="FretDiagram" fill="#fc02ff" fill-rule="evenodd" d="M3283.44,251.263 C3283.44,259.318 3276.91,265.847 3268.85,265.847 C3260.8,265.847 3254.27,259.318 3254.27,251.263 C3254.27,243.208 3260.8,236.679 3268.85,236.679 C3276.91,236.679 3283.44,243.208 3283.44,251.263"/>
<path class="FretDiagram" fill="#fc02ff" fill-rule="evenodd" d="M3325.11,346.507 C3325.11,354.562 3318.58,361.091 3310.52,361.091 C3302.47,361.091 3295.94,354.562 3295.94,346.507 C3295.94,338.453 3302.47,331.923 3310.52,331.923 C3318.58,331.923 3325.11,338.453 3325.11,346.507"/>
<polyline class="FretDiagram" fill="none" stroke="#fc02ff" stroke-width="6.86" stroke-linecap="round" stroke-linejoin="bevel" points="3168.85,163.162 3202.18,196.498"/>
<polyline class="FretDiagram" fill="none" stroke="#fc02ff" stroke-width="6.86" stroke-linecap="round" stroke-linejoin="bevel" points="3168.85,196.498 3202.18,163.162"/>
<path class="FretDiagram" fill="none" stroke="#fc02ff" stroke-width="6.86" stroke-linecap="round" stroke-linejoin="bevel" fill-rule="evenodd" d="M3368.86,179.83 C3368.86,189.035 3361.4,196.498 3352.19,196.498 C3342.99,196.498 3335.52,189.035 3335.52,179.83 C3335.52,170.625 3342.99,163.162 3352.19,163.162 C3361.4,163.162 3368.86,170.625 3368.86,179.83"/>
<polyline class="FretDiagram" fill="none" stroke="#fc02ff" stroke-width="6.86" stroke-linecap="round" stroke-linejoin="bevel" points="3377.19,163.162 3410.53,196.498"/>
<polyline class="FretDiagram" fill="none" stroke="#fc02ff" stroke-width="6.86" stroke-linecap="round" stroke-linejoin="bevel" points="3377.19,196.498 3410.53,163.162"/>
<path class="Bracket" transform="matrix(8.6315,0,0,9.45563,76.1283,2337.37)" d="M0.92002,-50 C2.69004,-51.88 6.2,-55.8 6.2,-63 C6.2,-72.1 2.25996,-81.32 2.25996,-86.97 C2.25996,-93.06 5.84004,-98.84 5.95,-99 C6.05996,-99.16 6.05,-99.39 5.94004,-99.46 C5.82998,-99.53 5.62002,-99.47 5.49004,-99.32 C5.35996,-99.17 0,-93.75 0,-85.6 C0,-76.75 3.5,-70.58 3.5,-59.07 C3.5,-56.89 2.55996,-53.36 0.1,-50.33 C-0.0799805,-50.17 -0.1,-49.89 0.0599609,-49.7 L0.0700195,-49.69 L0.1,-49.66 C2.55996,-46.63 3.5,-43.1 3.5,-40.92 C3.5,-29.4 0,-23.24 0,-14.39 C0,-6.25 5.35996,-0.8 5.49004,-0.659961 C5.62002,-0.52002 5.8,-0.42998 5.94004,-0.52002 C6.07998,-0.609961 6.07998,-0.77998 5.95,-0.97998 C5.82002,-1.17998 2.25996,-6.92002 2.25996,-13.01 C2.25996,-18.66 6.2,-27.9 6.2,-37 C6.2,-44.3 2.69004,-48.12 0.92002,-50"/>
</svg>
