<?xml version="1.0" encoding="UTF-8" standalone="no"?>
<svg width="4209.44px" height="2976.38px" viewBox="0 0 4209.44 2976.38"
 xmlns="http://www.w3.org/2000/svg" xmlns:xlink="http://www.w3.org/1999/xlink" version="1.2" baseProfile="tiny">
<title>LaMineur (15)</title>
<desc>Generated by MuseScore 3.6.2</desc>
<polyline class="StaffLines" fill="none" stroke="#000000" stroke-width="6.55" stroke-linejoin="bevel" points="153.819,558.425 4138.58,558.425"/>
<polyline class="StaffLines" fill="none" stroke="#000000" stroke-width="6.55" stroke-linejoin="bevel" points="153.819,647.717 4138.58,647.717"/>
<polyline class="StaffLines" fill="none" stroke="#000000" stroke-width="6.55" stroke-linejoin="bevel" points="153.819,737.008 4138.58,737.008"/>
<polyline class="StaffLines" fill="none" stroke="#000000" stroke-width="6.55" stroke-linejoin="bevel" points="153.819,826.299 4138.58,826.299"/>
<polyline class="StaffLines" fill="none" stroke="#000000" stroke-width="6.55" stroke-linejoin="bevel" points="153.819,915.591 4138.58,915.591"/>
<polyline class="StaffLines" fill="none" stroke="#000000" stroke-width="6.55" stroke-linejoin="bevel" points="153.819,1004.88 4138.58,1004.88"/>
<polyline class="StaffLines" fill="none" stroke="#000000" stroke-width="6.55" stroke-linejoin="bevel" points="153.819,1391.81 4138.58,1391.81"/>
<polyline class="StaffLines" fill="none" stroke="#000000" stroke-width="6.55" stroke-linejoin="bevel" points="153.819,1451.34 4138.58,1451.34"/>
<polyline class="StaffLines" fill="none" stroke="#000000" stroke-width="6.55" stroke-linejoin="bevel" points="153.819,1510.87 4138.58,1510.87"/>
<polyline class="StaffLines" fill="none" stroke="#000000" stroke-width="6.55" stroke-linejoin="bevel" points="153.819,1570.39 4138.58,1570.39"/>
<polyline class="StaffLines" fill="none" stroke="#000000" stroke-width="6.55" stroke-linejoin="bevel" points="153.819,1629.92 4138.58,1629.92"/>
<polyline class="StaffLines" fill="none" stroke="#000000" stroke-width="6.55" stroke-linejoin="bevel" points="153.819,2099.26 4138.58,2099.26"/>
<polyline class="StaffLines" fill="none" stroke="#000000" stroke-width="6.55" stroke-linejoin="bevel" points="153.819,2158.79 4138.58,2158.79"/>
<polyline class="StaffLines" fill="none" stroke="#000000" stroke-width="6.55" stroke-linejoin="bevel" points="153.819,2218.32 4138.58,2218.32"/>
<polyline class="StaffLines" fill="none" stroke="#000000" stroke-width="6.55" stroke-linejoin="bevel" points="153.819,2277.85 4138.58,2277.85"/>
<polyline class="StaffLines" fill="none" stroke="#000000" stroke-width="6.55" stroke-linejoin="bevel" points="153.819,2337.37 4138.58,2337.37"/>
<path class="Symbol" transform="matrix(2.3811,0,0,2.3811,2397.66,1629.92)" d="M0,-0.1 C0,7.7 4,14 10.4,18.1 L10.9,17.4 C7.5,14.8 6.3,13.3 5.2,10.1 C4.2,7.2 3.7,4 3.7,-0.2 C3.7,-8.1 4.8,-12.3 10.9,-17.4 L10.5,-18.1 C3.9,-13.6 0,-8.5 0,-0.1"/>
<path class="Symbol" transform="matrix(2.3811,0,0,2.3811,2512.42,1629.92)" d="M3.7,-0.2 C3.7,4 3.2,7.2 2.2,10.1 C1,13.3 -0.2,14.8 -3.6,17.4 L-3,18.1 C3.4,14.1 7.3,7.6 7.3,-0.1 C7.3,-8.4 3.4,-13.8 -3.2,-18.1 L-3.6,-17.4 C2.6,-12.4 3.7,-8.1 3.7,-0.2"/>
<path class="Symbol" transform="matrix(2.3811,0,0,2.3811,2408.5,617.953)" d="M0,-0.1 C0,7.7 4,14 10.4,18.1 L10.9,17.4 C7.5,14.8 6.3,13.3 5.2,10.1 C4.2,7.2 3.7,4 3.7,-0.2 C3.7,-8.1 4.8,-12.3 10.9,-17.4 L10.5,-18.1 C3.9,-13.6 0,-8.5 0,-0.1"/>
<path class="Symbol" transform="matrix(2.3811,0,0,2.3811,2513.51,617.953)" d="M3.7,-0.2 C3.7,4 3.2,7.2 2.2,10.1 C1,13.3 -0.2,14.8 -3.6,17.4 L-3,18.1 C3.4,14.1 7.3,7.6 7.3,-0.1 C7.3,-8.4 3.4,-13.8 -3.2,-18.1 L-3.6,-17.4 C2.6,-12.4 3.7,-8.1 3.7,-0.2"/>
<polyline class="BarLine" fill="none" stroke="#000000" stroke-width="10.71" stroke-linejoin="bevel" points="159.176,2095.99 159.176,2340.65"/>
<polyline class="BarLine" fill="none" stroke="#000000" stroke-width="10.71" stroke-linejoin="bevel" points="1385.73,2095.99 1385.73,2340.65"/>
<polyline class="BarLine" fill="none" stroke="#000000" stroke-width="10.71" stroke-linejoin="bevel" points="2255.03,2095.99 2255.03,2340.65"/>
<polyline class="BarLine" fill="none" stroke="#000000" stroke-width="10.71" stroke-linejoin="bevel" points="2287.77,2095.99 2287.77,2340.65"/>
<polyline class="BarLine" fill="none" stroke="#000000" stroke-width="10.71" stroke-linejoin="bevel" points="3225.46,2095.99 3225.46,2340.65"/>
<polyline class="BarLine" fill="none" stroke="#000000" stroke-width="10.71" stroke-linejoin="bevel" points="4100.48,2095.99 4100.48,2340.65"/>
<polyline class="BarLine" fill="none" stroke="#000000" stroke-width="10.71" stroke-linejoin="bevel" points="4133.22,2095.99 4133.22,2340.65"/>
<polyline class="BarLine" fill="none" stroke="#000000" stroke-width="10.71" stroke-linejoin="bevel" points="159.176,1388.54 159.176,2099.26"/>
<polyline class="BarLine" fill="none" stroke="#000000" stroke-width="10.71" stroke-linejoin="bevel" points="1385.73,1388.54 1385.73,1633.2"/>
<polyline class="BarLine" fill="none" stroke="#000000" stroke-width="10.71" stroke-linejoin="bevel" points="2255.03,1388.54 2255.03,1633.2"/>
<polyline class="BarLine" fill="none" stroke="#000000" stroke-width="10.71" stroke-linejoin="bevel" points="2287.77,1388.54 2287.77,1633.2"/>
<polyline class="BarLine" fill="none" stroke="#000000" stroke-width="10.71" stroke-linejoin="bevel" points="3225.46,1388.54 3225.46,1633.2"/>
<polyline class="BarLine" fill="none" stroke="#000000" stroke-width="10.71" stroke-linejoin="bevel" points="4100.48,1388.54 4100.48,1633.2"/>
<polyline class="BarLine" fill="none" stroke="#000000" stroke-width="10.71" stroke-linejoin="bevel" points="4133.22,1388.54 4133.22,1633.2"/>
<polyline class="BarLine" fill="none" stroke="#000000" stroke-width="10.71" stroke-linejoin="bevel" points="159.176,555.151 159.176,1391.81"/>
<polyline class="BarLine" fill="none" stroke="#000000" stroke-width="10.71" stroke-linejoin="bevel" points="1385.73,555.151 1385.73,1008.16"/>
<polyline class="BarLine" fill="none" stroke="#000000" stroke-width="10.71" stroke-linejoin="bevel" points="2255.03,555.151 2255.03,1008.16"/>
<polyline class="BarLine" fill="none" stroke="#000000" stroke-width="10.71" stroke-linejoin="bevel" points="2287.77,555.151 2287.77,1008.16"/>
<polyline class="BarLine" fill="none" stroke="#000000" stroke-width="10.71" stroke-linejoin="bevel" points="3225.46,555.151 3225.46,1008.16"/>
<polyline class="BarLine" fill="none" stroke="#000000" stroke-width="10.71" stroke-linejoin="bevel" points="4100.48,555.151 4100.48,1008.16"/>
<polyline class="BarLine" fill="none" stroke="#000000" stroke-width="10.71" stroke-linejoin="bevel" points="4133.22,555.151 4133.22,1008.16"/>
<path class="Accidental" transform="matrix(2.3811,0,0,2.3811,519.076,2337.37)" d="M23.3,-10.6 C23.9,-10.7 24.4,-11.4 24.4,-12 L24.4,-17.9 C24.4,-18.7 23.8,-19.3 23,-19.3 L22.8,-19.3 L19.5,-18.6 L19.5,-33.5 L16.7,-33.5 L16.7,-18 L7.8,-16.2 L7.8,-30.3 L5,-30.3 L5,-15.6 L1.1,-14.8 C0.5,-14.7 0,-14 0,-13.4 L0,-13.2 L0,-7.4 L0,-7.6 C0,-6.8 0.6,-6.2 1.4,-6.2 L1.7,-6.2 L5,-6.9 L5,9.6 L1.1,10.4 C0.5,10.5 0,11.2 0,11.8 L0,17.6 C0,18.4 0.6,19 1.4,19 L1.7,19 L5,18.3 L5,33.2 L7.8,33.2 L7.8,17.7 L16.7,15.9 L16.7,30 L19.5,30 L19.5,15.3 L23.3,14.6 C23.9,14.5 24.4,13.8 24.4,13.2 L24.4,7.3 C24.4,6.5 23.8,5.9 23,5.9 L22.8,5.9 L19.5,6.6 L19.5,-9.9 L23.3,-10.6 M7.8,9.1 L7.8,-7.5 L16.7,-9.3 L16.7,7.2 L7.8,9.1 "/>
<path class="Accidental" transform="matrix(2.3811,0,0,2.3811,2350.64,2129.03)" d="M23.3,-10.6 C23.9,-10.7 24.4,-11.4 24.4,-12 L24.4,-17.9 C24.4,-18.7 23.8,-19.3 23,-19.3 L22.8,-19.3 L19.5,-18.6 L19.5,-33.5 L16.7,-33.5 L16.7,-18 L7.8,-16.2 L7.8,-30.3 L5,-30.3 L5,-15.6 L1.1,-14.8 C0.5,-14.7 0,-14 0,-13.4 L0,-13.2 L0,-7.4 L0,-7.6 C0,-6.8 0.6,-6.2 1.4,-6.2 L1.7,-6.2 L5,-6.9 L5,9.6 L1.1,10.4 C0.5,10.5 0,11.2 0,11.8 L0,17.6 C0,18.4 0.6,19 1.4,19 L1.7,19 L5,18.3 L5,33.2 L7.8,33.2 L7.8,17.7 L16.7,15.9 L16.7,30 L19.5,30 L19.5,15.3 L23.3,14.6 C23.9,14.5 24.4,13.8 24.4,13.2 L24.4,7.3 C24.4,6.5 23.8,5.9 23,5.9 L22.8,5.9 L19.5,6.6 L19.5,-9.9 L23.3,-10.6 M7.8,9.1 L7.8,-7.5 L16.7,-9.3 L16.7,7.2 L7.8,9.1 "/>
<path class="Note" transform="matrix(2.3811,0,0,2.3811,592.053,2337.37)" d="M18.7,-13.6 C4.9,-13.6 0,-6.6 0,-0.1 C0,6.4 4.9,13.4 18.7,13.4 C32.5,13.4 37.3,6.4 37.3,-0.1 C37.3,-6.6 32.5,-13.6 18.7,-13.6 M10.4,-4.5 C10.3,-4.9 10.3,-5.3 10.3,-5.7 C10.3,-6.5 10.5,-7.3 10.9,-8 C11.6,-9 12.8,-9.7 14.3,-10 C15.6,-10.3 16.3,-10.5 18.9,-10.5 L19,-10.5 C23,-10.5 24.3,-6.8 25.4,-3 L25.7,-2 C26.5,0.6 26.9,2.8 26.9,4.5 C26.9,5.7 26.7,6.8 26.3,7.6 C25.7,8.7 24.7,9.4 23,9.8 C22.1,10 20.6,10.1 20.6,10.1 C20.1,10.1 19.7,10.2 19.3,10.2 C16.1,10.2 14.1,9 12.7,4.7 C11.5,1 11.3,-0.1 10.4,-4.5"/>
<path class="Note" transform="matrix(2.3811,0,0,2.3811,1468.47,2307.61)" d="M18.7,-13.6 C4.9,-13.6 0,-6.6 0,-0.1 C0,6.4 4.9,13.4 18.7,13.4 C32.5,13.4 37.3,6.4 37.3,-0.1 C37.3,-6.6 32.5,-13.6 18.7,-13.6 M10.4,-4.5 C10.3,-4.9 10.3,-5.3 10.3,-5.7 C10.3,-6.5 10.5,-7.3 10.9,-8 C11.6,-9 12.8,-9.7 14.3,-10 C15.6,-10.3 16.3,-10.5 18.9,-10.5 L19,-10.5 C23,-10.5 24.3,-6.8 25.4,-3 L25.7,-2 C26.5,0.6 26.9,2.8 26.9,4.5 C26.9,5.7 26.7,6.8 26.3,7.6 C25.7,8.7 24.7,9.4 23,9.8 C22.1,10 20.6,10.1 20.6,10.1 C20.1,10.1 19.7,10.2 19.3,10.2 C16.1,10.2 14.1,9 12.7,4.7 C11.5,1 11.3,-0.1 10.4,-4.5"/>
<path class="Note" transform="matrix(2.3811,0,0,2.3811,2423.61,2129.03)" d="M18.7,-13.6 C4.9,-13.6 0,-6.6 0,-0.1 C0,6.4 4.9,13.4 18.7,13.4 C32.5,13.4 37.3,6.4 37.3,-0.1 C37.3,-6.6 32.5,-13.6 18.7,-13.6 M10.4,-4.5 C10.3,-4.9 10.3,-5.3 10.3,-5.7 C10.3,-6.5 10.5,-7.3 10.9,-8 C11.6,-9 12.8,-9.7 14.3,-10 C15.6,-10.3 16.3,-10.5 18.9,-10.5 L19,-10.5 C23,-10.5 24.3,-6.8 25.4,-3 L25.7,-2 C26.5,0.6 26.9,2.8 26.9,4.5 C26.9,5.7 26.7,6.8 26.3,7.6 C25.7,8.7 24.7,9.4 23,9.8 C22.1,10 20.6,10.1 20.6,10.1 C20.1,10.1 19.7,10.2 19.3,10.2 C16.1,10.2 14.1,9 12.7,4.7 C11.5,1 11.3,-0.1 10.4,-4.5"/>
<path class="Note" transform="matrix(2.3811,0,0,2.3811,3313.92,2099.26)" d="M18.7,-13.6 C4.9,-13.6 0,-6.6 0,-0.1 C0,6.4 4.9,13.4 18.7,13.4 C32.5,13.4 37.3,6.4 37.3,-0.1 C37.3,-6.6 32.5,-13.6 18.7,-13.6 M10.4,-4.5 C10.3,-4.9 10.3,-5.3 10.3,-5.7 C10.3,-6.5 10.5,-7.3 10.9,-8 C11.6,-9 12.8,-9.7 14.3,-10 C15.6,-10.3 16.3,-10.5 18.9,-10.5 L19,-10.5 C23,-10.5 24.3,-6.8 25.4,-3 L25.7,-2 C26.5,0.6 26.9,2.8 26.9,4.5 C26.9,5.7 26.7,6.8 26.3,7.6 C25.7,8.7 24.7,9.4 23,9.8 C22.1,10 20.6,10.1 20.6,10.1 C20.1,10.1 19.7,10.2 19.3,10.2 C16.1,10.2 14.1,9 12.7,4.7 C11.5,1 11.3,-0.1 10.4,-4.5"/>
<path class="Note" transform="matrix(2.3811,0,0,2.3811,592.053,1629.92)" d="M18.7,-13.6 C4.9,-13.6 0,-6.6 0,-0.1 C0,6.4 4.9,13.4 18.7,13.4 C32.5,13.4 37.3,6.4 37.3,-0.1 C37.3,-6.6 32.5,-13.6 18.7,-13.6 M10.4,-4.5 C10.3,-4.9 10.3,-5.3 10.3,-5.7 C10.3,-6.5 10.5,-7.3 10.9,-8 C11.6,-9 12.8,-9.7 14.3,-10 C15.6,-10.3 16.3,-10.5 18.9,-10.5 L19,-10.5 C23,-10.5 24.3,-6.8 25.4,-3 L25.7,-2 C26.5,0.6 26.9,2.8 26.9,4.5 C26.9,5.7 26.7,6.8 26.3,7.6 C25.7,8.7 24.7,9.4 23,9.8 C22.1,10 20.6,10.1 20.6,10.1 C20.1,10.1 19.7,10.2 19.3,10.2 C16.1,10.2 14.1,9 12.7,4.7 C11.5,1 11.3,-0.1 10.4,-4.5"/>
<path class="Note" transform="matrix(2.3811,0,0,2.3811,592.053,1510.87)" d="M18.7,-13.6 C4.9,-13.6 0,-6.6 0,-0.1 C0,6.4 4.9,13.4 18.7,13.4 C32.5,13.4 37.3,6.4 37.3,-0.1 C37.3,-6.6 32.5,-13.6 18.7,-13.6 M10.4,-4.5 C10.3,-4.9 10.3,-5.3 10.3,-5.7 C10.3,-6.5 10.5,-7.3 10.9,-8 C11.6,-9 12.8,-9.7 14.3,-10 C15.6,-10.3 16.3,-10.5 18.9,-10.5 L19,-10.5 C23,-10.5 24.3,-6.8 25.4,-3 L25.7,-2 C26.5,0.6 26.9,2.8 26.9,4.5 C26.9,5.7 26.7,6.8 26.3,7.6 C25.7,8.7 24.7,9.4 23,9.8 C22.1,10 20.6,10.1 20.6,10.1 C20.1,10.1 19.7,10.2 19.3,10.2 C16.1,10.2 14.1,9 12.7,4.7 C11.5,1 11.3,-0.1 10.4,-4.5"/>
<path class="Note" transform="matrix(2.3811,0,0,2.3811,592.053,1451.34)" d="M18.7,-13.6 C4.9,-13.6 0,-6.6 0,-0.1 C0,6.4 4.9,13.4 18.7,13.4 C32.5,13.4 37.3,6.4 37.3,-0.1 C37.3,-6.6 32.5,-13.6 18.7,-13.6 M10.4,-4.5 C10.3,-4.9 10.3,-5.3 10.3,-5.7 C10.3,-6.5 10.5,-7.3 10.9,-8 C11.6,-9 12.8,-9.7 14.3,-10 C15.6,-10.3 16.3,-10.5 18.9,-10.5 L19,-10.5 C23,-10.5 24.3,-6.8 25.4,-3 L25.7,-2 C26.5,0.6 26.9,2.8 26.9,4.5 C26.9,5.7 26.7,6.8 26.3,7.6 C25.7,8.7 24.7,9.4 23,9.8 C22.1,10 20.6,10.1 20.6,10.1 C20.1,10.1 19.7,10.2 19.3,10.2 C16.1,10.2 14.1,9 12.7,4.7 C11.5,1 11.3,-0.1 10.4,-4.5"/>
<path class="Note" transform="matrix(2.3811,0,0,2.3811,1468.47,1629.92)" d="M18.7,-13.6 C4.9,-13.6 0,-6.6 0,-0.1 C0,6.4 4.9,13.4 18.7,13.4 C32.5,13.4 37.3,6.4 37.3,-0.1 C37.3,-6.6 32.5,-13.6 18.7,-13.6 M10.4,-4.5 C10.3,-4.9 10.3,-5.3 10.3,-5.7 C10.3,-6.5 10.5,-7.3 10.9,-8 C11.6,-9 12.8,-9.7 14.3,-10 C15.6,-10.3 16.3,-10.5 18.9,-10.5 L19,-10.5 C23,-10.5 24.3,-6.8 25.4,-3 L25.7,-2 C26.5,0.6 26.9,2.8 26.9,4.5 C26.9,5.7 26.7,6.8 26.3,7.6 C25.7,8.7 24.7,9.4 23,9.8 C22.1,10 20.6,10.1 20.6,10.1 C20.1,10.1 19.7,10.2 19.3,10.2 C16.1,10.2 14.1,9 12.7,4.7 C11.5,1 11.3,-0.1 10.4,-4.5"/>
<path class="Note" transform="matrix(2.3811,0,0,2.3811,1468.47,1540.63)" d="M18.7,-13.6 C4.9,-13.6 0,-6.6 0,-0.1 C0,6.4 4.9,13.4 18.7,13.4 C32.5,13.4 37.3,6.4 37.3,-0.1 C37.3,-6.6 32.5,-13.6 18.7,-13.6 M10.4,-4.5 C10.3,-4.9 10.3,-5.3 10.3,-5.7 C10.3,-6.5 10.5,-7.3 10.9,-8 C11.6,-9 12.8,-9.7 14.3,-10 C15.6,-10.3 16.3,-10.5 18.9,-10.5 L19,-10.5 C23,-10.5 24.3,-6.8 25.4,-3 L25.7,-2 C26.5,0.6 26.9,2.8 26.9,4.5 C26.9,5.7 26.7,6.8 26.3,7.6 C25.7,8.7 24.7,9.4 23,9.8 C22.1,10 20.6,10.1 20.6,10.1 C20.1,10.1 19.7,10.2 19.3,10.2 C16.1,10.2 14.1,9 12.7,4.7 C11.5,1 11.3,-0.1 10.4,-4.5"/>
<path class="Note" transform="matrix(2.3811,0,0,2.3811,1468.47,1481.1)" d="M18.7,-13.6 C4.9,-13.6 0,-6.6 0,-0.1 C0,6.4 4.9,13.4 18.7,13.4 C32.5,13.4 37.3,6.4 37.3,-0.1 C37.3,-6.6 32.5,-13.6 18.7,-13.6 M10.4,-4.5 C10.3,-4.9 10.3,-5.3 10.3,-5.7 C10.3,-6.5 10.5,-7.3 10.9,-8 C11.6,-9 12.8,-9.7 14.3,-10 C15.6,-10.3 16.3,-10.5 18.9,-10.5 L19,-10.5 C23,-10.5 24.3,-6.8 25.4,-3 L25.7,-2 C26.5,0.6 26.9,2.8 26.9,4.5 C26.9,5.7 26.7,6.8 26.3,7.6 C25.7,8.7 24.7,9.4 23,9.8 C22.1,10 20.6,10.1 20.6,10.1 C20.1,10.1 19.7,10.2 19.3,10.2 C16.1,10.2 14.1,9 12.7,4.7 C11.5,1 11.3,-0.1 10.4,-4.5"/>
<path class="Note" transform="matrix(2.3811,0,0,2.3811,2423.61,1629.92)" d="M18.7,-13.6 C4.9,-13.6 0,-6.6 0,-0.1 C0,6.4 4.9,13.4 18.7,13.4 C32.5,13.4 37.3,6.4 37.3,-0.1 C37.3,-6.6 32.5,-13.6 18.7,-13.6 M10.4,-4.5 C10.3,-4.9 10.3,-5.3 10.3,-5.7 C10.3,-6.5 10.5,-7.3 10.9,-8 C11.6,-9 12.8,-9.7 14.3,-10 C15.6,-10.3 16.3,-10.5 18.9,-10.5 L19,-10.5 C23,-10.5 24.3,-6.8 25.4,-3 L25.7,-2 C26.5,0.6 26.9,2.8 26.9,4.5 C26.9,5.7 26.7,6.8 26.3,7.6 C25.7,8.7 24.7,9.4 23,9.8 C22.1,10 20.6,10.1 20.6,10.1 C20.1,10.1 19.7,10.2 19.3,10.2 C16.1,10.2 14.1,9 12.7,4.7 C11.5,1 11.3,-0.1 10.4,-4.5"/>
<path class="Note" transform="matrix(2.3811,0,0,2.3811,2423.61,1510.87)" d="M18.7,-13.6 C4.9,-13.6 0,-6.6 0,-0.1 C0,6.4 4.9,13.4 18.7,13.4 C32.5,13.4 37.3,6.4 37.3,-0.1 C37.3,-6.6 32.5,-13.6 18.7,-13.6 M10.4,-4.5 C10.3,-4.9 10.3,-5.3 10.3,-5.7 C10.3,-6.5 10.5,-7.3 10.9,-8 C11.6,-9 12.8,-9.7 14.3,-10 C15.6,-10.3 16.3,-10.5 18.9,-10.5 L19,-10.5 C23,-10.5 24.3,-6.8 25.4,-3 L25.7,-2 C26.5,0.6 26.9,2.8 26.9,4.5 C26.9,5.7 26.7,6.8 26.3,7.6 C25.7,8.7 24.7,9.4 23,9.8 C22.1,10 20.6,10.1 20.6,10.1 C20.1,10.1 19.7,10.2 19.3,10.2 C16.1,10.2 14.1,9 12.7,4.7 C11.5,1 11.3,-0.1 10.4,-4.5"/>
<path class="Note" transform="matrix(2.3811,0,0,2.3811,2423.61,1451.34)" d="M18.7,-13.6 C4.9,-13.6 0,-6.6 0,-0.1 C0,6.4 4.9,13.4 18.7,13.4 C32.5,13.4 37.3,6.4 37.3,-0.1 C37.3,-6.6 32.5,-13.6 18.7,-13.6 M10.4,-4.5 C10.3,-4.9 10.3,-5.3 10.3,-5.7 C10.3,-6.5 10.5,-7.3 10.9,-8 C11.6,-9 12.8,-9.7 14.3,-10 C15.6,-10.3 16.3,-10.5 18.9,-10.5 L19,-10.5 C23,-10.5 24.3,-6.8 25.4,-3 L25.7,-2 C26.5,0.6 26.9,2.8 26.9,4.5 C26.9,5.7 26.7,6.8 26.3,7.6 C25.7,8.7 24.7,9.4 23,9.8 C22.1,10 20.6,10.1 20.6,10.1 C20.1,10.1 19.7,10.2 19.3,10.2 C16.1,10.2 14.1,9 12.7,4.7 C11.5,1 11.3,-0.1 10.4,-4.5"/>
<path class="Note" transform="matrix(2.3811,0,0,2.3811,3313.92,1629.92)" d="M18.7,-13.6 C4.9,-13.6 0,-6.6 0,-0.1 C0,6.4 4.9,13.4 18.7,13.4 C32.5,13.4 37.3,6.4 37.3,-0.1 C37.3,-6.6 32.5,-13.6 18.7,-13.6 M10.4,-4.5 C10.3,-4.9 10.3,-5.3 10.3,-5.7 C10.3,-6.5 10.5,-7.3 10.9,-8 C11.6,-9 12.8,-9.7 14.3,-10 C15.6,-10.3 16.3,-10.5 18.9,-10.5 L19,-10.5 C23,-10.5 24.3,-6.8 25.4,-3 L25.7,-2 C26.5,0.6 26.9,2.8 26.9,4.5 C26.9,5.7 26.7,6.8 26.3,7.6 C25.7,8.7 24.7,9.4 23,9.8 C22.1,10 20.6,10.1 20.6,10.1 C20.1,10.1 19.7,10.2 19.3,10.2 C16.1,10.2 14.1,9 12.7,4.7 C11.5,1 11.3,-0.1 10.4,-4.5"/>
<path class="Note" transform="matrix(2.3811,0,0,2.3811,3313.92,1540.63)" d="M18.7,-13.6 C4.9,-13.6 0,-6.6 0,-0.1 C0,6.4 4.9,13.4 18.7,13.4 C32.5,13.4 37.3,6.4 37.3,-0.1 C37.3,-6.6 32.5,-13.6 18.7,-13.6 M10.4,-4.5 C10.3,-4.9 10.3,-5.3 10.3,-5.7 C10.3,-6.5 10.5,-7.3 10.9,-8 C11.6,-9 12.8,-9.7 14.3,-10 C15.6,-10.3 16.3,-10.5 18.9,-10.5 L19,-10.5 C23,-10.5 24.3,-6.8 25.4,-3 L25.7,-2 C26.5,0.6 26.9,2.8 26.9,4.5 C26.9,5.7 26.7,6.8 26.3,7.6 C25.7,8.7 24.7,9.4 23,9.8 C22.1,10 20.6,10.1 20.6,10.1 C20.1,10.1 19.7,10.2 19.3,10.2 C16.1,10.2 14.1,9 12.7,4.7 C11.5,1 11.3,-0.1 10.4,-4.5"/>
<path class="Note" transform="matrix(2.3811,0,0,2.3811,3313.92,1481.1)" d="M18.7,-13.6 C4.9,-13.6 0,-6.6 0,-0.1 C0,6.4 4.9,13.4 18.7,13.4 C32.5,13.4 37.3,6.4 37.3,-0.1 C37.3,-6.6 32.5,-13.6 18.7,-13.6 M10.4,-4.5 C10.3,-4.9 10.3,-5.3 10.3,-5.7 C10.3,-6.5 10.5,-7.3 10.9,-8 C11.6,-9 12.8,-9.7 14.3,-10 C15.6,-10.3 16.3,-10.5 18.9,-10.5 L19,-10.5 C23,-10.5 24.3,-6.8 25.4,-3 L25.7,-2 C26.5,0.6 26.9,2.8 26.9,4.5 C26.9,5.7 26.7,6.8 26.3,7.6 C25.7,8.7 24.7,9.4 23,9.8 C22.1,10 20.6,10.1 20.6,10.1 C20.1,10.1 19.7,10.2 19.3,10.2 C16.1,10.2 14.1,9 12.7,4.7 C11.5,1 11.3,-0.1 10.4,-4.5"/>
<path class="Note" d="M677.961,1056.98 C688.42,1050.4 696.013,1045.01 700.739,1040.83 C709.416,1033.16 713.754,1025.41 713.754,1017.59 C713.754,1008.44 707.634,1003.87 695.393,1003.87 C682.532,1003.87 669.129,1013.13 655.184,1031.65 C645.732,1044.2 639.031,1056.05 635.08,1067.21 C639.96,1064.03 645.112,1062.44 650.536,1062.44 C655.649,1062.44 659.716,1064.73 662.738,1069.3 C664.83,1072.48 665.875,1077.9 665.875,1085.57 C665.875,1092.47 662.234,1100.56 654.952,1109.86 C650.458,1115.59 645.461,1118.46 639.96,1118.46 C632.988,1118.46 628.107,1117.06 625.318,1114.27 C621.367,1110.32 619.391,1102.5 619.391,1090.8 C619.391,1071.12 627.332,1051.75 643.214,1032.69 C661.111,1011.23 678.271,1000.5 694.696,1000.5 C707.401,1000.5 716.892,1003.49 723.167,1009.45 C726.809,1012.94 728.629,1017.97 728.629,1024.56 C728.629,1031.92 721.385,1040.13 706.898,1049.2 C699.305,1054 689.66,1056.59 677.961,1056.98 M633.569,1072.09 C631.632,1078.6 630.663,1084.83 630.663,1090.8 C630.663,1104.98 632.91,1112.07 637.404,1112.07 C641.665,1112.07 644.996,1109.04 647.398,1103 C650.187,1096.18 651.581,1088.63 651.581,1080.34 C651.581,1072.98 649.141,1069.3 644.26,1069.3 C640.851,1069.3 637.288,1070.23 633.569,1072.09"/>
<path class="Note" d="M670.872,583.965 C675.443,583.965 677.729,586.831 677.729,592.564 C677.729,596.593 675.211,602.597 670.175,610.577 C666.147,617.007 664.132,623.283 664.132,629.403 C664.132,632.889 669.207,634.633 679.356,634.633 C687.723,634.633 699.383,630.1 714.335,621.036 C699.305,635.524 686.251,642.767 675.172,642.767 C665.178,642.767 658.205,641.257 654.254,638.235 C653.247,637.46 652.395,636.531 651.698,635.446 C647.824,640.172 641.355,642.535 632.29,642.535 C623.613,642.535 616.951,640.753 612.302,637.189 C609.203,634.788 607.654,630.953 607.654,625.684 C607.654,617.317 612.612,608.175 622.529,598.259 C633.143,587.645 645.422,582.338 659.368,582.338 C662.854,582.338 665.411,583.616 667.038,586.173 C668.355,584.701 669.633,583.965 670.872,583.965 M650.071,630.217 C649.993,629.597 649.955,628.977 649.955,628.357 C649.955,628.047 653.906,617.24 661.808,595.934 C662.583,593.843 663.358,592.061 664.132,590.589 C661.111,589.969 658.128,589.659 655.184,589.659 C649.761,589.659 642.556,594.269 633.569,603.488 C625.511,611.7 621.483,618.789 621.483,624.755 C621.483,631.34 624.621,634.633 630.896,634.633 C638.488,634.633 644.88,633.161 650.071,630.217"/>
<path class="Note" d="M626.596,553.244 C622.8,553.244 620.902,549.176 620.902,541.041 L620.902,506.992 C620.902,503.738 622.49,502.111 625.666,502.111 C627.061,502.111 628.107,502.227 628.804,502.459 C631.283,498.121 635.351,494.48 641.006,491.536 C648.909,487.43 656.927,485.376 665.062,485.376 C671.492,485.376 674.707,487.778 674.707,492.582 C674.707,496.61 672.538,498.624 668.2,498.624 C665.101,498.624 662.157,497.927 659.368,496.533 C656.888,495.293 654.254,494.673 651.465,494.673 C646.662,494.673 639.573,497.811 630.199,504.086 C631.516,510.362 632.174,517.683 632.174,526.05 C632.174,544.179 630.315,553.244 626.596,553.244"/>
<path class="Note" d="M559.784,677.207 C560.094,665.509 566.563,655.127 579.191,646.063 C590.425,638.005 602.704,633.977 616.03,633.977 C634.701,633.977 651.164,641.298 665.42,655.941 C674.484,665.315 679.016,676.936 679.016,690.804 C679.016,703.277 675.685,712.845 669.022,719.508 C660.887,727.72 652.288,731.826 643.223,731.826 C637.025,731.826 632.222,730.432 628.813,727.643 C623.235,723.072 620.446,716.951 620.446,709.281 C620.446,699.365 625.404,690.3 635.321,682.088 C643.456,675.348 651.629,670.932 659.841,668.84 C657.672,665.121 654.922,661.635 651.591,658.381 C641.209,648.232 629.433,643.157 616.262,643.157 C602.55,643.157 591.2,646.14 582.213,652.106 C572.916,658.226 565.439,666.593 559.784,677.207 M662.747,674.999 C658.486,678.95 654.225,683.173 649.964,687.666 C641.596,696.498 637.413,704.865 637.413,712.768 C637.413,721.212 639.35,725.435 643.223,725.435 C646.71,725.435 651.591,720.67 657.866,711.141 C662.902,703.548 665.42,696.576 665.42,690.223 C665.42,684.8 664.529,679.725 662.747,674.999"/>
<path class="Note" d="M1547.29,941.13 C1551.86,941.13 1554.15,943.997 1554.15,949.73 C1554.15,953.758 1551.63,959.763 1546.6,967.742 C1542.57,974.173 1540.55,980.448 1540.55,986.568 C1540.55,990.055 1545.63,991.798 1555.78,991.798 C1564.14,991.798 1575.8,987.266 1590.76,978.201 C1575.73,992.689 1562.67,999.933 1551.59,999.933 C1541.6,999.933 1534.63,998.422 1530.67,995.401 C1529.67,994.626 1528.82,993.696 1528.12,992.611 C1524.24,997.337 1517.78,999.7 1508.71,999.7 C1500.03,999.7 1493.37,997.918 1488.72,994.355 C1485.62,991.953 1484.07,988.118 1484.07,982.85 C1484.07,974.483 1489.03,965.341 1498.95,955.424 C1509.56,944.81 1521.84,939.503 1535.79,939.503 C1539.27,939.503 1541.83,940.781 1543.46,943.338 C1544.77,941.866 1546.05,941.13 1547.29,941.13 M1526.49,987.382 C1526.41,986.762 1526.37,986.142 1526.37,985.523 C1526.37,985.213 1530.33,974.405 1538.23,953.1 C1539,951.008 1539.78,949.226 1540.55,947.754 C1537.53,947.134 1534.55,946.824 1531.6,946.824 C1526.18,946.824 1518.98,951.434 1509.99,960.653 C1501.93,968.866 1497.9,975.955 1497.9,981.92 C1497.9,988.505 1501.04,991.798 1507.32,991.798 C1514.91,991.798 1521.3,990.326 1526.49,987.382"/>
<path class="Note" d="M1547.29,583.965 C1551.86,583.965 1554.15,586.831 1554.15,592.564 C1554.15,596.593 1551.63,602.597 1546.6,610.577 C1542.57,617.007 1540.55,623.283 1540.55,629.403 C1540.55,632.889 1545.63,634.633 1555.78,634.633 C1564.14,634.633 1575.8,630.1 1590.76,621.036 C1575.73,635.524 1562.67,642.767 1551.59,642.767 C1541.6,642.767 1534.63,641.257 1530.67,638.235 C1529.67,637.46 1528.82,636.531 1528.12,635.446 C1524.24,640.172 1517.78,642.535 1508.71,642.535 C1500.03,642.535 1493.37,640.753 1488.72,637.189 C1485.62,634.788 1484.07,630.953 1484.07,625.684 C1484.07,617.317 1489.03,608.175 1498.95,598.259 C1509.56,587.645 1521.84,582.338 1535.79,582.338 C1539.27,582.338 1541.83,583.616 1543.46,586.173 C1544.77,584.701 1546.05,583.965 1547.29,583.965 M1526.49,630.217 C1526.41,629.597 1526.37,628.977 1526.37,628.357 C1526.37,628.047 1530.33,617.24 1538.23,595.934 C1539,593.843 1539.78,592.061 1540.55,590.589 C1537.53,589.969 1534.55,589.659 1531.6,589.659 C1526.18,589.659 1518.98,594.269 1509.99,603.488 C1501.93,611.7 1497.9,618.789 1497.9,624.755 C1497.9,631.34 1501.04,634.633 1507.32,634.633 C1514.91,634.633 1521.3,633.161 1526.49,630.217"/>
<path class="Note" d="M1547.29,494.673 C1551.86,494.673 1554.15,497.54 1554.15,503.273 C1554.15,507.302 1551.63,513.306 1546.6,521.286 C1542.57,527.716 1540.55,533.991 1540.55,540.112 C1540.55,543.598 1545.63,545.341 1555.78,545.341 C1564.14,545.341 1575.8,540.809 1590.76,531.745 C1575.73,546.232 1562.67,553.476 1551.59,553.476 C1541.6,553.476 1534.63,551.965 1530.67,548.944 C1529.67,548.169 1528.82,547.239 1528.12,546.155 C1524.24,550.881 1517.78,553.244 1508.71,553.244 C1500.03,553.244 1493.37,551.462 1488.72,547.898 C1485.62,545.496 1484.07,541.661 1484.07,536.393 C1484.07,528.026 1489.03,518.884 1498.95,508.967 C1509.56,498.353 1521.84,493.046 1535.79,493.046 C1539.27,493.046 1541.83,494.325 1543.46,496.881 C1544.77,495.409 1546.05,494.673 1547.29,494.673 M1526.49,540.925 C1526.41,540.305 1526.37,539.686 1526.37,539.066 C1526.37,538.756 1530.33,527.948 1538.23,506.643 C1539,504.551 1539.78,502.769 1540.55,501.297 C1537.53,500.678 1534.55,500.368 1531.6,500.368 C1526.18,500.368 1518.98,504.977 1509.99,514.197 C1501.93,522.409 1497.9,529.498 1497.9,535.463 C1497.9,542.049 1501.04,545.341 1507.32,545.341 C1514.91,545.341 1521.3,543.869 1526.49,540.925"/>
<path class="Note" d="M1554.38,670.351 C1564.84,663.765 1572.43,658.381 1577.16,654.197 C1585.84,646.527 1590.17,638.78 1590.17,630.955 C1590.17,621.813 1584.05,617.242 1571.81,617.242 C1558.95,617.242 1545.55,626.5 1531.6,645.017 C1522.15,657.568 1515.45,669.421 1511.5,680.577 C1516.38,677.401 1521.53,675.813 1526.96,675.813 C1532.07,675.813 1536.14,678.098 1539.16,682.669 C1541.25,685.846 1542.3,691.269 1542.3,698.939 C1542.3,705.834 1538.65,713.93 1531.37,723.227 C1526.88,728.96 1521.88,731.826 1516.38,731.826 C1509.41,731.826 1504.53,730.432 1501.74,727.643 C1497.79,723.692 1495.81,715.867 1495.81,704.168 C1495.81,684.49 1503.75,665.121 1519.63,646.063 C1537.53,624.602 1554.69,613.872 1571.12,613.872 C1583.82,613.872 1593.31,616.855 1599.59,622.82 C1603.23,626.307 1605.05,631.343 1605.05,637.928 C1605.05,645.288 1597.81,653.5 1583.32,662.565 C1575.73,667.368 1566.08,669.963 1554.38,670.351 M1509.99,685.458 C1508.05,691.966 1507.08,698.203 1507.08,704.168 C1507.08,718.346 1509.33,725.435 1513.82,725.435 C1518.09,725.435 1521.42,722.413 1523.82,716.37 C1526.61,709.553 1528,701.999 1528,693.709 C1528,686.349 1525.56,682.669 1520.68,682.669 C1517.27,682.669 1513.71,683.599 1509.99,685.458"/>
<path class="Note" d="M2502.43,583.965 C2507,583.965 2509.29,586.831 2509.29,592.564 C2509.29,596.593 2506.77,602.597 2501.74,610.577 C2497.71,617.007 2495.69,623.283 2495.69,629.403 C2495.69,632.889 2500.77,634.633 2510.92,634.633 C2519.28,634.633 2530.94,630.1 2545.9,621.036 C2530.87,635.524 2517.81,642.767 2506.73,642.767 C2496.74,642.767 2489.77,641.257 2485.81,638.235 C2484.81,637.46 2483.96,636.531 2483.26,635.446 C2479.38,640.172 2472.92,642.535 2463.85,642.535 C2455.17,642.535 2448.51,640.753 2443.86,637.189 C2440.76,634.788 2439.21,630.953 2439.21,625.684 C2439.21,617.317 2444.17,608.175 2454.09,598.259 C2464.7,587.645 2476.98,582.338 2490.93,582.338 C2494.41,582.338 2496.97,583.616 2498.6,586.173 C2499.91,584.701 2501.19,583.965 2502.43,583.965 M2481.63,630.217 C2481.55,629.597 2481.51,628.977 2481.51,628.357 C2481.51,628.047 2485.47,617.24 2493.37,595.934 C2494.14,593.843 2494.92,592.061 2495.69,590.589 C2492.67,589.969 2489.69,589.659 2486.74,589.659 C2481.32,589.659 2474.12,594.269 2465.13,603.488 C2457.07,611.7 2453.04,618.789 2453.04,624.755 C2453.04,631.34 2456.18,634.633 2462.46,634.633 C2470.05,634.633 2476.44,633.161 2481.63,630.217"/>
<path class="Note" d="M2509.52,759.642 C2519.98,753.057 2527.57,747.672 2532.3,743.489 C2540.98,735.819 2545.31,728.071 2545.31,720.247 C2545.31,711.105 2539.19,706.534 2526.95,706.534 C2514.09,706.534 2500.69,715.792 2486.74,734.308 C2477.29,746.859 2470.59,758.712 2466.64,769.869 C2471.52,766.692 2476.67,765.104 2482.1,765.104 C2487.21,765.104 2491.28,767.389 2494.3,771.96 C2496.39,775.137 2497.44,780.56 2497.44,788.23 C2497.44,795.125 2493.79,803.221 2486.51,812.518 C2482.02,818.251 2477.02,821.118 2471.52,821.118 C2464.55,821.118 2459.67,819.723 2456.88,816.934 C2452.93,812.983 2450.95,805.158 2450.95,793.459 C2450.95,773.781 2458.89,754.413 2474.77,735.354 C2492.67,713.894 2509.83,703.164 2526.26,703.164 C2538.96,703.164 2548.45,706.146 2554.73,712.112 C2558.37,715.598 2560.19,720.634 2560.19,727.219 C2560.19,734.579 2552.95,742.791 2538.46,751.856 C2530.87,756.659 2521.22,759.255 2509.52,759.642 M2465.13,774.749 C2463.19,781.257 2462.22,787.494 2462.22,793.459 C2462.22,807.637 2464.47,814.726 2468.96,814.726 C2473.23,814.726 2476.56,811.705 2478.96,805.662 C2481.75,798.844 2483.14,791.29 2483.14,783 C2483.14,775.64 2480.7,771.96 2475.82,771.96 C2472.41,771.96 2468.85,772.89 2465.13,774.749"/>
<path class="Note" d="M2458.16,553.244 C2454.36,553.244 2452.46,549.176 2452.46,541.041 L2452.46,506.992 C2452.46,503.738 2454.05,502.111 2457.23,502.111 C2458.62,502.111 2459.67,502.227 2460.36,502.459 C2462.84,498.121 2466.91,494.48 2472.57,491.536 C2480.47,487.43 2488.49,485.376 2496.62,485.376 C2503.05,485.376 2506.27,487.778 2506.27,492.582 C2506.27,496.61 2504.1,498.624 2499.76,498.624 C2496.66,498.624 2493.72,497.927 2490.93,496.533 C2488.45,495.293 2485.81,494.673 2483.03,494.673 C2478.22,494.673 2471.13,497.811 2461.76,504.086 C2463.08,510.362 2463.73,517.683 2463.73,526.05 C2463.73,544.179 2461.88,553.244 2458.16,553.244"/>
<path class="Note" d="M2391.34,677.207 C2391.65,665.509 2398.12,655.127 2410.75,646.063 C2421.99,638.005 2434.26,633.977 2447.59,633.977 C2466.26,633.977 2482.72,641.298 2496.98,655.941 C2506.04,665.315 2510.58,676.936 2510.58,690.804 C2510.58,703.277 2507.25,712.845 2500.58,719.508 C2492.45,727.72 2483.85,731.826 2474.78,731.826 C2468.59,731.826 2463.78,730.432 2460.37,727.643 C2454.8,723.072 2452.01,716.951 2452.01,709.281 C2452.01,699.365 2456.96,690.3 2466.88,682.088 C2475.02,675.348 2483.19,670.932 2491.4,668.84 C2489.23,665.121 2486.48,661.635 2483.15,658.381 C2472.77,648.232 2460.99,643.157 2447.82,643.157 C2434.11,643.157 2422.76,646.14 2413.77,652.106 C2404.48,658.226 2397,666.593 2391.34,677.207 M2494.31,674.999 C2490.05,678.95 2485.78,683.173 2481.52,687.666 C2473.16,696.498 2468.97,704.865 2468.97,712.768 C2468.97,721.212 2470.91,725.435 2474.78,725.435 C2478.27,725.435 2483.15,720.67 2489.43,711.141 C2494.46,703.548 2496.98,696.576 2496.98,690.223 C2496.98,684.8 2496.09,679.725 2494.31,674.999"/>
<path class="Note" d="M3392.74,583.965 C3397.31,583.965 3399.6,586.831 3399.6,592.564 C3399.6,596.593 3397.08,602.597 3392.05,610.577 C3388.02,617.007 3386,623.283 3386,629.403 C3386,632.889 3391.08,634.633 3401.23,634.633 C3409.59,634.633 3421.25,630.1 3436.21,621.036 C3421.18,635.524 3408.12,642.767 3397.04,642.767 C3387.05,642.767 3380.08,641.257 3376.13,638.235 C3375.12,637.46 3374.27,636.531 3373.57,635.446 C3369.7,640.172 3363.23,642.535 3354.16,642.535 C3345.48,642.535 3338.82,640.753 3334.17,637.189 C3331.07,634.788 3329.52,630.953 3329.52,625.684 C3329.52,617.317 3334.48,608.175 3344.4,598.259 C3355.01,587.645 3367.29,582.338 3381.24,582.338 C3384.73,582.338 3387.28,583.616 3388.91,586.173 C3390.23,584.701 3391.5,583.965 3392.74,583.965 M3371.94,630.217 C3371.86,629.597 3371.83,628.977 3371.83,628.357 C3371.83,628.047 3375.78,617.24 3383.68,595.934 C3384.45,593.843 3385.23,592.061 3386,590.589 C3382.98,589.969 3380,589.659 3377.06,589.659 C3371.63,589.659 3364.43,594.269 3355.44,603.488 C3347.38,611.7 3343.35,618.789 3343.35,624.755 C3343.35,631.34 3346.49,634.633 3352.77,634.633 C3360.36,634.633 3366.75,633.161 3371.94,630.217"/>
<path class="Note" d="M3392.74,494.673 C3397.31,494.673 3399.6,497.54 3399.6,503.273 C3399.6,507.302 3397.08,513.306 3392.05,521.286 C3388.02,527.716 3386,533.991 3386,540.112 C3386,543.598 3391.08,545.341 3401.23,545.341 C3409.59,545.341 3421.25,540.809 3436.21,531.745 C3421.18,546.232 3408.12,553.476 3397.04,553.476 C3387.05,553.476 3380.08,551.965 3376.13,548.944 C3375.12,548.169 3374.27,547.239 3373.57,546.155 C3369.7,550.881 3363.23,553.244 3354.16,553.244 C3345.48,553.244 3338.82,551.462 3334.17,547.898 C3331.07,545.496 3329.52,541.661 3329.52,536.393 C3329.52,528.026 3334.48,518.884 3344.4,508.967 C3355.01,498.353 3367.29,493.046 3381.24,493.046 C3384.73,493.046 3387.28,494.325 3388.91,496.881 C3390.23,495.409 3391.5,494.673 3392.74,494.673 M3371.94,540.925 C3371.86,540.305 3371.83,539.686 3371.83,539.066 C3371.83,538.756 3375.78,527.948 3383.68,506.643 C3384.45,504.551 3385.23,502.769 3386,501.297 C3382.98,500.678 3380,500.368 3377.06,500.368 C3371.63,500.368 3364.43,504.977 3355.44,514.197 C3347.38,522.409 3343.35,529.498 3343.35,535.463 C3343.35,542.049 3346.49,545.341 3352.77,545.341 C3360.36,545.341 3366.75,543.869 3371.94,540.925"/>
<path class="Note" d="M3348.47,821.118 C3344.67,821.118 3342.77,817.05 3342.77,808.916 L3342.77,774.866 C3342.77,771.612 3344.36,769.985 3347.54,769.985 C3348.93,769.985 3349.98,770.101 3350.68,770.333 C3353.15,765.995 3357.22,762.354 3362.88,759.41 C3370.78,755.304 3378.8,753.25 3386.93,753.25 C3393.36,753.25 3396.58,755.652 3396.58,760.456 C3396.58,764.484 3394.41,766.499 3390.07,766.499 C3386.97,766.499 3384.03,765.801 3381.24,764.407 C3378.76,763.167 3376.13,762.547 3373.34,762.547 C3368.53,762.547 3361.44,765.685 3352.07,771.96 C3353.39,778.236 3354.05,785.557 3354.05,793.924 C3354.05,812.053 3352.19,821.118 3348.47,821.118"/>
<path class="Note" d="M3399.83,670.351 C3410.29,663.765 3417.88,658.381 3422.61,654.197 C3431.29,646.527 3435.63,638.78 3435.63,630.955 C3435.63,621.813 3429.5,617.242 3417.26,617.242 C3404.4,617.242 3391,626.5 3377.06,645.017 C3367.6,657.568 3360.9,669.421 3356.95,680.577 C3361.83,677.401 3366.98,675.813 3372.41,675.813 C3377.52,675.813 3381.59,678.098 3384.61,682.669 C3386.7,685.846 3387.75,691.269 3387.75,698.939 C3387.75,705.834 3384.11,713.93 3376.82,723.227 C3372.33,728.96 3367.33,731.826 3361.83,731.826 C3354.86,731.826 3349.98,730.432 3347.19,727.643 C3343.24,723.692 3341.26,715.867 3341.26,704.168 C3341.26,684.49 3349.2,665.121 3365.09,646.063 C3382.98,624.602 3400.14,613.872 3416.57,613.872 C3429.27,613.872 3438.76,616.855 3445.04,622.82 C3448.68,626.307 3450.5,631.343 3450.5,637.928 C3450.5,645.288 3443.26,653.5 3428.77,662.565 C3421.18,667.368 3411.53,669.963 3399.83,670.351 M3355.44,685.458 C3353.5,691.966 3352.53,698.203 3352.53,704.168 C3352.53,718.346 3354.78,725.435 3359.27,725.435 C3363.54,725.435 3366.87,722.413 3369.27,716.37 C3372.06,709.553 3373.45,701.999 3373.45,693.709 C3373.45,686.349 3371.01,682.669 3366.13,682.669 C3362.72,682.669 3359.16,683.599 3355.44,685.458"/>
<path class="Clef" transform="matrix(2.3811,0,0,2.3811,212.156,2158.79)" d="M25.4,-25.1 C17.8,-25.1 11.7,-20.7 11.6,-20.7 C5.8,-16.4 3.5,-11.3 2.6,-7.8 C2.1,-6 1.9,-4.2 1.9,-2.5 C1.9,-0.1 2.3,2.1 3.2,4 C4.4,6.7 6.7,8.6 9.7,9.6 C10.9,10 12.2,10.2 13.5,10.2 C15.7,10.2 18,9.6 19.9,8.5 C23,6.8 24.9,3.2 24.9,-0.7 C24.9,-4.2 23.1,-7.4 20.1,-9.3 C18,-10.7 16,-11.1 14.3,-11.1 C13.1,-11.1 12,-10.9 11.1,-10.6 C10.1,-10.2 8.4,-9.2 7.6,-8.5 C7.9,-10.4 9.1,-13.3 10.2,-14.9 C11.3,-16.5 13.5,-18.5 15.2,-19.4 C17.7,-20.8 20.9,-21.4 24.4,-21.4 C34.6,-21.4 39.6,-13.2 39.6,3.6 C39.6,12.9 36.1,21.8 33.1,27.7 C29.8,34.3 25.4,40.6 21.5,44.1 C11.1,53.6 1.3,58.1 1.2,58.1 C1.2,58.1 -0.3,59 0.1,60.5 C0.4,61.5 1.3,61.7 1.9,61.7 C2,61.7 2.3,61.6 2.4,61.6 C2.5,61.6 13.9,56.9 23,49.8 C28.1,46.1 32.7,42.1 36.7,37.8 C40.3,33.9 43.4,29.7 45.9,25.5 C50.3,18 52.8,10.2 52.8,3.5 C52.8,-4.8 50.6,-11.7 46.5,-16.6 C41.8,-22.2 34.7,-25.1 25.4,-25.1 M56.8,-12.4 C56.8,-9.6 59,-7.4 61.6,-7.4 C64.2,-7.4 66.4,-9.6 66.4,-12.4 C66.4,-15.2 64.2,-17.5 61.6,-17.5 C59,-17.5 56.8,-15.2 56.8,-12.4 M56.8,12.3 C56.8,15.1 59,17.4 61.6,17.4 C64.2,17.4 66.4,15.1 66.4,12.3 C66.4,9.5 64.2,7.2 61.6,7.2 C59,7.2 56.8,9.5 56.8,12.3"/>
<path class="Clef" transform="matrix(2.3811,0,0,2.3811,212.156,1570.39)" d="M63.37,-5.89004 C62.14,-11.32 59.5,-15.14 58.72,-16.1801 C55.5301,-20.45 51.52,-23.3 46.8301,-24.65 C43.72,-25.54 40.72,-25.65 38.3,-25.47 C37.2601,-31.4801 36.2601,-37.3601 35.35,-42.8101 C40.79,-48.97 44.42,-54.77 46.69,-59.07 C50.1601,-65.65 51.3101,-70.2301 51.3601,-70.4301 C53.0801,-75.64 53.44,-83.34 52.34,-91.55 C51.3301,-99.1 49.24,-105.81 46.89,-109.06 C45.8601,-110.49 44.8101,-111.22 43.77,-111.22 C42.55,-111.22 40.04,-109.98 37.15,-107.21 C34.85,-105.01 31.5801,-101.12 29.02,-95.1101 C26.02,-88.05 25.8101,-78.5601 26.1601,-71.84 C26.54,-64.57 27.65,-58.8801 27.6601,-58.8301 C27.6801,-58.74 27.94,-57.24 28.39,-54.67 C28.1601,-54.44 27.92,-54.22 27.67,-53.9801 C26.6301,-52.9801 25.44,-51.84 24.0601,-50.4601 C23.2,-49.6 22.25,-48.69 21.25,-47.72 C12.79,-39.57 0,-27.25 0,-8.1 C0,-3.4 0.9,1.01992 2.68008,5.02998 C4.27002,8.62998 6.57002,11.91 9.5,14.78 C17.2301,22.33 27.82,25.5399 34.8801,25.38 C37.8301,25.31 40.4601,25.0699 42.85,24.6199 C44.6801,34.2199 45.82,41.25 45.8601,46.5899 C45.9,53.1 44.25,57.0699 40.35,59.8399 C37.92,61.5699 35.1101,62.5199 32.0101,62.6699 C29.42,62.7899 27.1601,62.3199 25.7301,61.91 L25.72,61.91 C25.72,61.91 25.4301,61.83 25.42,61.63 C25.4101,61.45 25.7601,61.4 25.77,61.4 L25.79,61.4 C27.7101,60.96 31.2801,59.73 33.64,56.43 C35.44,53.91 36.3101,49.2899 34.47,45.35 C33.3601,42.96 30.85,40.01 25.2301,39.56 C22.74,39.36 20.47,39.8699 18.47,41.0699 C16.6601,42.15 15.1601,43.7899 14.1101,45.7899 C11.65,50.4899 12.1101,56.2199 15.24,60.06 C18.2,63.68 22.82,65.9899 28.25,66.5699 C29.1,66.66 29.95,66.7 30.8,66.7 C31.5101,66.7 32.22,66.6699 32.92,66.61 C31.72,66.9399 30.64,67.4899 29.77,68.25 C28.2801,69.5399 27.44,71.38 27.44,73.41 C27.44,75.28 28.0601,76.65 29.55,78.0399 C28.4101,78.5 27.55,78.98 26.79,79.56 C25.25,80.73 24.34,82.46 24.34,84.1899 C24.34,87.45 27.3,89.63 31.72,89.63 C37.1301,89.63 40.9101,86.63 40.9101,82.35 C40.9101,80.1199 39.9101,78.18 38.0801,76.83 C41.0101,75.6199 42.37,73.9399 42.37,71.56 C42.39,70.05 41.69,68.61 40.49,67.6899 C39.2801,66.7399 37.62,66.2399 35.69,66.2399 L35.5101,66.2399 C38.2801,65.7 40.92,64.7 43.2101,63.28 C46.87,60.71 48.99,56.73 49.67,51.1 C50.2301,46.46 49.84,40.55 48.44,32.48 C48.0801,30.3899 47.54,27.36 46.8801,23.6 C52.6301,21.68 56.79,18.11 60.5601,12.26 C63.85,6.51992 64.8,0.419922 63.37,-5.89004 M32.39,87.5399 C30.19,87.5399 28.7301,86.1199 28.7301,84.01 C28.7301,82.11 29.65,80.5 31.32,79.4699 C31.6801,79.66 31.77,79.71 32.1101,79.88 C33.3,80.48 33.3,80.48 33.55,80.63 L33.5601,80.6399 C35.47,81.73 36.25,82.76 36.25,84.18 C36.24,86.0899 34.59,87.5399 32.39,87.5399 M38.3101,71.63 C38.3101,73.2699 37.7301,74.3399 36.1801,75.53 C34.74,74.78 34.35,74.56 33.9801,74.3399 L33.8801,74.28 C32.3301,73.3399 31.85,72.66 31.85,71.4 C31.85,69.6 33.2301,68.3399 35.19,68.3399 C37.17,68.35 38.3101,69.55 38.3101,71.63 M33.15,-83.8101 C34.9301,-89.55 37.67,-92.8 39.6601,-94.5301 C41.4101,-96.05 43.0601,-96.7601 43.9801,-96.7601 C44.12,-96.7601 44.24,-96.74 44.34,-96.7101 C44.8,-96.57 45.3301,-96 45.8,-95.1301 C48.1101,-90.84 47.37,-84.1301 46.0301,-79.69 C44.4,-74.29 41.4801,-68.6801 32.69,-59.0601 C32.52,-60.17 32.3601,-61.22 32.2101,-62.2 C30.95,-70.49 31.27,-77.7601 33.15,-83.8101 M29.15,20.31 C24.5101,19.0899 20.0801,16.5899 16.32,13.0899 C15.0101,11.86 13.14,9.68994 11.67,6.3 C10.3101,3.13994 9.65,-0.290039 9.7,-3.88008 C9.77002,-8.57002 11.0801,-13.39 13.59,-18.1801 C16.5101,-23.7601 21.07,-29.29 27.1301,-34.62 C28.5801,-35.9 29.95,-37.1801 31.24,-38.4601 C32,-34.2 32.8301,-29.5101 33.7101,-24.6301 C29.8601,-23.3601 25.1101,-20.2101 22,-14.5601 C18.47,-7.99004 18.6101,-2.47002 19.34,1.00996 C20.2801,5.46992 22.8101,9.22998 26.27,11.3199 C27.2,11.88 31.3301,14.01 33.17,13.43 C33.54,13.31 33.8101,13.0899 33.95,12.76 C34.4601,11.5899 33.44,10.95 31.8801,9.98994 C31.2801,9.61992 30.6101,9.2 29.8801,8.66992 C26.5601,6.17998 25.1101,1.72998 26.1801,-2.65 C26.7601,-5.05 28.04,-7.21006 29.8801,-8.91006 C31.55,-10.4601 33.59,-11.5601 35.97,-12.2 C38.0101,-0.960059 40.07,10.1899 41.7101,18.55 C41.84,19.2399 41.9801,19.91 42.1101,20.58 C37.7101,21.51 33.37,21.4199 29.15,20.31 M54.9,10.1 C53.7301,13.28 51.27,17.35 46.14,19.41 C46.07,18.9899 45.99,18.56 45.9101,18.13 C44.3601,9.36992 42.4301,-1.61006 40.47,-12.87 C50.82,-13.35 55.09,-5.91006 55.9801,-1.08008 C56.45,1.45 56.45,5.88994 54.9,10.1"/>
<path class="FiguredBass" d="M639.242,2472.56 C634.665,2472.56 631.619,2474.4 630.104,2478.08 C628.589,2481.76 627.831,2486.97 627.831,2493.71 L627.831,2504.66 C631.047,2503.36 633.83,2502.68 636.181,2502.62 C644.221,2502.62 650.545,2504.4 655.153,2507.95 C659.761,2511.51 662.064,2516.8 662.064,2523.82 C662.064,2530.84 659.73,2536.14 655.06,2539.73 C650.39,2543.32 644.097,2545.11 636.181,2545.11 C628.078,2545.11 621.739,2541.35 617.162,2533.84 C612.585,2526.32 610.297,2517.4 610.297,2507.07 C610.297,2496.81 612.956,2487.9 618.275,2480.35 C623.594,2472.81 630.583,2469.04 639.242,2469.04 C644.932,2469.04 649.849,2470.47 653.993,2473.35 C658.137,2476.23 660.209,2480.01 660.209,2484.71 C660.209,2487.44 659.219,2489.79 657.24,2491.76 C655.261,2493.74 652.895,2494.73 650.143,2494.73 C647.391,2494.73 645.025,2493.74 643.046,2491.76 C641.067,2489.79 640.077,2487.44 640.077,2484.71 C640.077,2482.05 641.067,2479.7 643.046,2477.66 C643.726,2476.86 644.685,2476.18 645.922,2475.62 C645.613,2474.82 644.994,2474.2 644.066,2473.77 C642.706,2472.96 641.098,2472.56 639.242,2472.56 M643.788,2510.5 C642.675,2507.6 640.232,2506.14 636.459,2506.14 C632.686,2506.14 630.351,2507.6 629.455,2510.5 C628.558,2513.41 628.109,2517.83 628.109,2523.77 C628.109,2530.76 628.558,2535.46 629.455,2537.87 C630.351,2540.29 632.686,2541.49 636.459,2541.49 C640.232,2541.49 642.675,2540.04 643.788,2537.13 C644.901,2534.22 645.458,2529.79 645.458,2523.82 C645.458,2517.85 644.901,2513.41 643.788,2510.5"/>
<path class="FiguredBass" d="M616.605,2574.79 L621.059,2575.43 C622.234,2575.62 623.687,2575.81 625.419,2575.99 C629.687,2576.49 633.799,2576.73 637.758,2576.73 C641.716,2576.73 645.891,2576.49 650.282,2575.99 C652.014,2575.81 653.529,2575.62 654.828,2575.43 L659.374,2574.79 C660.302,2574.79 661.013,2575.09 661.508,2575.71 C661.879,2576.21 661.817,2576.7 661.322,2577.2 C651.674,2586.66 638.345,2591.39 621.337,2591.39 C620.657,2591.39 620.054,2591.64 619.528,2592.13 C619.002,2592.63 618.739,2593.25 618.739,2593.99 L618.739,2605.77 C623.131,2601.44 628.45,2599.28 634.696,2599.28 C643.417,2599.28 650.22,2601.32 655.106,2605.4 C660.425,2601.38 663.209,2596.25 663.456,2590 C663.518,2588.02 664.167,2586.41 665.404,2585.18 C666.765,2583.94 668.404,2583.32 670.321,2583.32 C672.239,2583.32 673.862,2583.97 675.192,2585.27 C676.522,2586.57 677.187,2588.14 677.187,2590 C677.187,2599.59 671.527,2606.85 660.209,2611.8 C662.064,2615.45 662.992,2619.9 662.992,2625.16 C662.992,2632.15 660.209,2638.18 654.643,2643.25 C649.076,2648.32 642.427,2650.86 634.696,2650.86 C628.017,2650.86 622.218,2649.34 617.301,2646.31 C612.384,2643.28 609.926,2639.08 609.926,2633.7 C609.926,2630.97 610.915,2628.61 612.895,2626.6 C614.874,2624.59 617.239,2623.58 619.992,2623.58 C622.744,2623.58 625.079,2624.57 626.996,2626.55 C628.913,2628.53 629.872,2630.91 629.872,2633.7 C629.872,2634.93 628.852,2636.28 626.811,2637.73 C624.77,2639.19 623.749,2640.53 623.749,2641.77 C623.749,2645.48 627.398,2647.33 634.696,2647.33 C641.809,2647.33 645.365,2639.94 645.365,2625.16 C645.365,2621.88 645.18,2619.01 644.809,2616.53 C637.325,2618.08 627.955,2619.29 616.698,2620.15 C615.152,2620.27 614.379,2619.5 614.379,2617.83 C614.379,2616.47 615.152,2615.73 616.698,2615.61 C628.078,2614.68 637.047,2613.19 643.603,2611.15 C641.871,2606.2 638.902,2603.7 634.696,2603.64 C628.326,2603.64 623.873,2604.94 621.337,2607.53 C618.801,2610.13 617.224,2611.43 616.605,2611.43 C615.121,2611.43 614.379,2610.66 614.379,2609.11 L614.379,2577.2 C614.379,2576.58 614.595,2576.02 615.028,2575.53 C615.523,2575.03 616.049,2574.79 616.605,2574.79"/>
<path class="FiguredBass" d="M2470.8,2472.56 C2466.23,2472.56 2463.18,2474.4 2461.66,2478.08 C2460.15,2481.76 2459.39,2486.97 2459.39,2493.71 L2459.39,2504.66 C2462.61,2503.36 2465.39,2502.68 2467.74,2502.62 C2475.78,2502.62 2482.11,2504.4 2486.71,2507.95 C2491.32,2511.51 2493.62,2516.8 2493.62,2523.82 C2493.62,2530.84 2491.29,2536.14 2486.62,2539.73 C2481.95,2543.32 2475.66,2545.11 2467.74,2545.11 C2459.64,2545.11 2453.3,2541.35 2448.72,2533.84 C2444.15,2526.32 2441.86,2517.4 2441.86,2507.07 C2441.86,2496.81 2444.52,2487.9 2449.84,2480.35 C2455.15,2472.81 2462.14,2469.04 2470.8,2469.04 C2476.49,2469.04 2481.41,2470.47 2485.55,2473.35 C2489.7,2476.23 2491.77,2480.01 2491.77,2484.71 C2491.77,2487.44 2490.78,2489.79 2488.8,2491.76 C2486.82,2493.74 2484.46,2494.73 2481.7,2494.73 C2478.95,2494.73 2476.59,2493.74 2474.61,2491.76 C2472.63,2489.79 2471.64,2487.44 2471.64,2484.71 C2471.64,2482.05 2472.63,2479.7 2474.61,2477.66 C2475.29,2476.86 2476.25,2476.18 2477.48,2475.62 C2477.17,2474.82 2476.55,2474.2 2475.63,2473.77 C2474.27,2472.96 2472.66,2472.56 2470.8,2472.56 M2475.35,2510.5 C2474.24,2507.6 2471.79,2506.14 2468.02,2506.14 C2464.25,2506.14 2461.91,2507.6 2461.01,2510.5 C2460.12,2513.41 2459.67,2517.83 2459.67,2523.77 C2459.67,2530.76 2460.12,2535.46 2461.01,2537.87 C2461.91,2540.29 2464.25,2541.49 2468.02,2541.49 C2471.79,2541.49 2474.24,2540.04 2475.35,2537.13 C2476.46,2534.22 2477.02,2529.79 2477.02,2523.82 C2477.02,2517.85 2476.46,2513.41 2475.35,2510.5"/>
<path class="FiguredBass" d="M2448.17,2574.79 L2452.62,2575.43 C2453.79,2575.62 2455.25,2575.81 2456.98,2575.99 C2461.25,2576.49 2465.36,2576.73 2469.32,2576.73 C2473.28,2576.73 2477.45,2576.49 2481.84,2575.99 C2483.57,2575.81 2485.09,2575.62 2486.39,2575.43 L2490.93,2574.79 C2491.86,2574.79 2492.57,2575.09 2493.07,2575.71 C2493.44,2576.21 2493.38,2576.7 2492.88,2577.2 C2483.23,2586.66 2469.91,2591.39 2452.9,2591.39 C2452.22,2591.39 2451.61,2591.64 2451.09,2592.13 C2450.56,2592.63 2450.3,2593.25 2450.3,2593.99 L2450.3,2605.77 C2454.69,2601.44 2460.01,2599.28 2466.26,2599.28 C2474.98,2599.28 2481.78,2601.32 2486.67,2605.4 C2491.99,2601.38 2494.77,2596.25 2495.02,2590 C2495.08,2588.02 2495.73,2586.41 2496.96,2585.18 C2498.33,2583.94 2499.96,2583.32 2501.88,2583.32 C2503.8,2583.32 2505.42,2583.97 2506.75,2585.27 C2508.08,2586.57 2508.75,2588.14 2508.75,2590 C2508.75,2599.59 2503.09,2606.85 2491.77,2611.8 C2493.62,2615.45 2494.55,2619.9 2494.55,2625.16 C2494.55,2632.15 2491.77,2638.18 2486.2,2643.25 C2480.64,2648.32 2473.99,2650.86 2466.26,2650.86 C2459.58,2650.86 2453.78,2649.34 2448.86,2646.31 C2443.94,2643.28 2441.49,2639.08 2441.49,2633.7 C2441.49,2630.97 2442.48,2628.61 2444.45,2626.6 C2446.43,2624.59 2448.8,2623.58 2451.55,2623.58 C2454.3,2623.58 2456.64,2624.57 2458.56,2626.55 C2460.47,2628.53 2461.43,2630.91 2461.43,2633.7 C2461.43,2634.93 2460.41,2636.28 2458.37,2637.73 C2456.33,2639.19 2455.31,2640.53 2455.31,2641.77 C2455.31,2645.48 2458.96,2647.33 2466.26,2647.33 C2473.37,2647.33 2476.93,2639.94 2476.93,2625.16 C2476.93,2621.88 2476.74,2619.01 2476.37,2616.53 C2468.89,2618.08 2459.52,2619.29 2448.26,2620.15 C2446.71,2620.27 2445.94,2619.5 2445.94,2617.83 C2445.94,2616.47 2446.71,2615.73 2448.26,2615.61 C2459.64,2614.68 2468.61,2613.19 2475.16,2611.15 C2473.43,2606.2 2470.46,2603.7 2466.26,2603.64 C2459.89,2603.64 2455.43,2604.94 2452.9,2607.53 C2450.36,2610.13 2448.78,2611.43 2448.17,2611.43 C2446.68,2611.43 2445.94,2610.66 2445.94,2609.11 L2445.94,2577.2 C2445.94,2576.58 2446.16,2576.02 2446.59,2575.53 C2447.08,2575.03 2447.61,2574.79 2448.17,2574.79"/>
<path class="FiguredBass" d="M616.605,1761.58 C616.605,1761.58 618.09,1761.8 621.059,1762.23 C622.357,1762.42 623.811,1762.6 625.419,1762.79 C629.687,1763.28 633.799,1763.53 637.758,1763.53 C641.716,1763.53 645.891,1763.28 650.282,1762.79 C652.014,1762.6 653.529,1762.42 654.828,1762.23 L659.374,1761.58 C660.302,1761.58 660.998,1761.89 661.461,1762.51 C661.925,1763.13 661.879,1763.62 661.322,1763.99 C651.859,1773.46 638.531,1778.19 621.337,1778.19 C620.657,1778.19 620.054,1778.44 619.528,1778.93 C619.002,1779.43 618.739,1780.04 618.739,1780.79 L618.739,1795.35 C623.131,1791.02 628.45,1788.86 634.696,1788.86 C643.726,1788.86 650.7,1790.88 655.617,1794.93 C660.534,1798.99 662.992,1805.12 662.992,1813.35 C662.992,1820.34 660.209,1826.14 654.643,1830.74 C649.076,1835.35 642.427,1837.66 634.696,1837.66 C628.017,1837.66 622.218,1836.14 617.301,1833.11 C612.384,1830.08 609.926,1825.87 609.926,1820.49 C609.926,1817.77 610.915,1815.41 612.895,1813.4 C614.874,1811.39 617.239,1810.38 619.992,1810.38 C622.744,1810.38 625.079,1811.37 626.996,1813.35 C628.913,1815.33 629.872,1817.71 629.872,1820.49 C629.872,1821.73 628.852,1823.08 626.811,1824.53 C624.77,1825.98 623.749,1827.33 623.749,1828.56 C623.749,1832.28 627.398,1834.13 634.696,1834.13 C641.809,1834.13 645.365,1827.2 645.365,1813.35 C645.365,1799.99 641.809,1793.28 634.696,1793.22 C628.326,1793.22 623.873,1794.52 621.337,1797.11 C618.801,1799.71 617.224,1801.01 616.605,1801.01 C615.059,1801.01 614.317,1800.24 614.379,1798.69 L614.379,1763.99 C614.379,1763.31 614.595,1762.74 615.028,1762.28 C615.461,1761.81 615.987,1761.58 616.605,1761.58"/>
<path class="FiguredBass" d="M651.117,1903.05 C651.117,1904.04 651.674,1905 652.787,1905.93 C653.9,1906.85 655.122,1907.73 656.452,1908.57 C657.781,1909.4 659.003,1910.98 660.116,1913.3 C661.23,1915.62 661.786,1918.54 661.786,1922.07 C661.786,1928.87 659.219,1934.13 654.086,1937.84 C648.952,1941.55 642.458,1943.41 634.604,1943.41 C628.295,1943.41 622.806,1941.83 618.136,1938.67 C613.467,1935.52 611.132,1931.38 611.132,1926.24 C611.132,1923.52 612.121,1921.16 614.101,1919.15 C616.08,1917.14 618.445,1916.13 621.198,1916.13 C623.95,1916.13 626.285,1917.12 628.202,1919.1 C630.119,1921.08 631.078,1923.46 631.078,1926.24 C631.078,1927.48 630.058,1928.83 628.017,1930.28 C625.976,1931.73 624.955,1933.08 624.955,1934.31 C624.955,1936.23 625.898,1937.64 627.785,1938.54 C629.671,1939.43 631.944,1939.88 634.604,1939.88 C638.067,1939.88 640.526,1938.16 641.979,1934.73 C643.432,1931.3 644.159,1927.08 644.159,1922.07 L644.159,1919.66 C644.159,1916.32 644.051,1913.78 643.834,1912.05 C643.618,1910.32 642.938,1908.77 641.793,1907.41 C640.649,1906.05 638.902,1905.37 636.552,1905.37 L624.398,1905.37 C622.976,1905.37 622.265,1904.6 622.265,1903.05 C622.265,1901.63 622.976,1900.92 624.398,1900.92 L636.552,1900.92 C639.088,1900.92 641.067,1899.96 642.489,1898.04 C642.984,1897.36 643.386,1896.25 643.695,1894.7 C644.005,1892.66 644.159,1889.72 644.159,1885.89 L644.159,1884.68 C644.159,1875.47 640.757,1870.86 633.954,1870.86 C627.955,1870.86 624.955,1872.53 624.955,1875.87 C624.955,1876.98 625.867,1878.17 627.692,1879.44 C629.516,1880.71 630.429,1881.9 630.429,1883.01 C630.429,1885.42 629.578,1887.49 627.877,1889.23 C626.177,1890.96 624.105,1891.82 621.662,1891.82 C619.219,1891.82 617.162,1890.96 615.492,1889.23 C613.822,1887.49 612.987,1885.42 612.987,1883.01 C612.987,1878.25 615.059,1874.44 619.203,1871.6 C623.347,1868.75 628.264,1867.33 633.954,1867.33 C641.438,1867.33 647.592,1868.77 652.416,1871.65 C657.24,1874.52 659.652,1878.87 659.652,1884.68 C659.652,1888.82 659.219,1892.04 658.354,1894.33 C657.488,1896.62 656.498,1898.01 655.385,1898.5 C654.271,1899 653.282,1899.57 652.416,1900.22 C651.55,1900.87 651.117,1901.81 651.117,1903.05"/>
<path class="FiguredBass" d="M639.242,1976.61 C634.665,1976.61 631.619,1978.45 630.104,1982.13 C628.589,1985.81 627.831,1991.02 627.831,1997.76 L627.831,2008.71 C631.047,2007.41 633.83,2006.73 636.181,2006.67 C644.221,2006.67 650.545,2008.44 655.153,2012 C659.761,2015.56 662.064,2020.84 662.064,2027.86 C662.064,2034.88 659.73,2040.19 655.06,2043.78 C650.39,2047.36 644.097,2049.16 636.181,2049.16 C628.078,2049.16 621.739,2045.4 617.162,2037.88 C612.585,2030.37 610.297,2021.45 610.297,2011.12 C610.297,2000.85 612.956,1991.95 618.275,1984.4 C623.594,1976.85 630.583,1973.08 639.242,1973.08 C644.932,1973.08 649.849,1974.52 653.993,1977.4 C658.137,1980.27 660.209,1984.06 660.209,1988.76 C660.209,1991.48 659.219,1993.83 657.24,1995.81 C655.261,1997.79 652.895,1998.78 650.143,1998.78 C647.391,1998.78 645.025,1997.79 643.046,1995.81 C641.067,1993.83 640.077,1991.48 640.077,1988.76 C640.077,1986.1 641.067,1983.75 643.046,1981.71 C643.726,1980.91 644.685,1980.23 645.922,1979.67 C645.613,1978.86 644.994,1978.25 644.066,1977.81 C642.706,1977.01 641.098,1976.61 639.242,1976.61 M643.788,2014.55 C642.675,2011.64 640.232,2010.19 636.459,2010.19 C632.686,2010.19 630.351,2011.64 629.455,2014.55 C628.558,2017.46 628.109,2021.88 628.109,2027.82 C628.109,2034.81 628.558,2039.51 629.455,2041.92 C630.351,2044.33 632.686,2045.54 636.459,2045.54 C640.232,2045.54 642.675,2044.08 643.788,2041.18 C644.901,2038.27 645.458,2033.83 645.458,2027.86 C645.458,2021.9 644.901,2017.46 643.788,2014.55"/>
<path class="FiguredBass" d="M2448.17,1761.58 C2448.17,1761.58 2449.65,1761.8 2452.62,1762.23 C2453.92,1762.42 2455.37,1762.6 2456.98,1762.79 C2461.25,1763.28 2465.36,1763.53 2469.32,1763.53 C2473.28,1763.53 2477.45,1763.28 2481.84,1762.79 C2483.57,1762.6 2485.09,1762.42 2486.39,1762.23 L2490.93,1761.58 C2491.86,1761.58 2492.56,1761.89 2493.02,1762.51 C2493.49,1763.13 2493.44,1763.62 2492.88,1763.99 C2483.42,1773.46 2470.09,1778.19 2452.9,1778.19 C2452.22,1778.19 2451.61,1778.44 2451.09,1778.93 C2450.56,1779.43 2450.3,1780.04 2450.3,1780.79 L2450.3,1795.35 C2454.69,1791.02 2460.01,1788.86 2466.26,1788.86 C2475.29,1788.86 2482.26,1790.88 2487.18,1794.93 C2492.09,1798.99 2494.55,1805.12 2494.55,1813.35 C2494.55,1820.34 2491.77,1826.14 2486.2,1830.74 C2480.64,1835.35 2473.99,1837.66 2466.26,1837.66 C2459.58,1837.66 2453.78,1836.14 2448.86,1833.11 C2443.94,1830.08 2441.49,1825.87 2441.49,1820.49 C2441.49,1817.77 2442.48,1815.41 2444.45,1813.4 C2446.43,1811.39 2448.8,1810.38 2451.55,1810.38 C2454.3,1810.38 2456.64,1811.37 2458.56,1813.35 C2460.47,1815.33 2461.43,1817.71 2461.43,1820.49 C2461.43,1821.73 2460.41,1823.08 2458.37,1824.53 C2456.33,1825.98 2455.31,1827.33 2455.31,1828.56 C2455.31,1832.28 2458.96,1834.13 2466.26,1834.13 C2473.37,1834.13 2476.93,1827.2 2476.93,1813.35 C2476.93,1799.99 2473.37,1793.28 2466.26,1793.22 C2459.89,1793.22 2455.43,1794.52 2452.9,1797.11 C2450.36,1799.71 2448.78,1801.01 2448.17,1801.01 C2446.62,1801.01 2445.88,1800.24 2445.94,1798.69 L2445.94,1763.99 C2445.94,1763.31 2446.16,1762.74 2446.59,1762.28 C2447.02,1761.81 2447.55,1761.58 2448.17,1761.58"/>
<path class="FiguredBass" d="M2482.68,1903.05 C2482.68,1904.04 2483.23,1905 2484.35,1905.93 C2485.46,1906.85 2486.68,1907.73 2488.01,1908.57 C2489.34,1909.4 2490.56,1910.98 2491.68,1913.3 C2492.79,1915.62 2493.35,1918.54 2493.35,1922.07 C2493.35,1928.87 2490.78,1934.13 2485.65,1937.84 C2480.51,1941.55 2474.02,1943.41 2466.16,1943.41 C2459.86,1943.41 2454.37,1941.83 2449.7,1938.67 C2445.03,1935.52 2442.69,1931.38 2442.69,1926.24 C2442.69,1923.52 2443.68,1921.16 2445.66,1919.15 C2447.64,1917.14 2450.01,1916.13 2452.76,1916.13 C2455.51,1916.13 2457.85,1917.12 2459.76,1919.1 C2461.68,1921.08 2462.64,1923.46 2462.64,1926.24 C2462.64,1927.48 2461.62,1928.83 2459.58,1930.28 C2457.54,1931.73 2456.52,1933.08 2456.52,1934.31 C2456.52,1936.23 2457.46,1937.64 2459.35,1938.54 C2461.23,1939.43 2463.5,1939.88 2466.16,1939.88 C2469.63,1939.88 2472.09,1938.16 2473.54,1934.73 C2474.99,1931.3 2475.72,1927.08 2475.72,1922.07 L2475.72,1919.66 C2475.72,1916.32 2475.61,1913.78 2475.39,1912.05 C2475.18,1910.32 2474.5,1908.77 2473.35,1907.41 C2472.21,1906.05 2470.46,1905.37 2468.11,1905.37 L2455.96,1905.37 C2454.54,1905.37 2453.83,1904.6 2453.83,1903.05 C2453.83,1901.63 2454.54,1900.92 2455.96,1900.92 L2468.11,1900.92 C2470.65,1900.92 2472.63,1899.96 2474.05,1898.04 C2474.54,1897.36 2474.95,1896.25 2475.26,1894.7 C2475.56,1892.66 2475.72,1889.72 2475.72,1885.89 L2475.72,1884.68 C2475.72,1875.47 2472.32,1870.86 2465.51,1870.86 C2459.52,1870.86 2456.52,1872.53 2456.52,1875.87 C2456.52,1876.98 2457.43,1878.17 2459.25,1879.44 C2461.08,1880.71 2461.99,1881.9 2461.99,1883.01 C2461.99,1885.42 2461.14,1887.49 2459.44,1889.23 C2457.74,1890.96 2455.67,1891.82 2453.22,1891.82 C2450.78,1891.82 2448.72,1890.96 2447.05,1889.23 C2445.38,1887.49 2444.55,1885.42 2444.55,1883.01 C2444.55,1878.25 2446.62,1874.44 2450.76,1871.6 C2454.91,1868.75 2459.82,1867.33 2465.51,1867.33 C2473,1867.33 2479.15,1868.77 2483.98,1871.65 C2488.8,1874.52 2491.21,1878.87 2491.21,1884.68 C2491.21,1888.82 2490.78,1892.04 2489.91,1894.33 C2489.05,1896.62 2488.06,1898.01 2486.95,1898.5 C2485.83,1899 2484.84,1899.57 2483.98,1900.22 C2483.11,1900.87 2482.68,1901.81 2482.68,1903.05"/>
<path class="FiguredBass" d="M2470.8,1976.61 C2466.23,1976.61 2463.18,1978.45 2461.66,1982.13 C2460.15,1985.81 2459.39,1991.02 2459.39,1997.76 L2459.39,2008.71 C2462.61,2007.41 2465.39,2006.73 2467.74,2006.67 C2475.78,2006.67 2482.11,2008.44 2486.71,2012 C2491.32,2015.56 2493.62,2020.84 2493.62,2027.86 C2493.62,2034.88 2491.29,2040.19 2486.62,2043.78 C2481.95,2047.36 2475.66,2049.16 2467.74,2049.16 C2459.64,2049.16 2453.3,2045.4 2448.72,2037.88 C2444.15,2030.37 2441.86,2021.45 2441.86,2011.12 C2441.86,2000.85 2444.52,1991.95 2449.84,1984.4 C2455.15,1976.85 2462.14,1973.08 2470.8,1973.08 C2476.49,1973.08 2481.41,1974.52 2485.55,1977.4 C2489.7,1980.27 2491.77,1984.06 2491.77,1988.76 C2491.77,1991.48 2490.78,1993.83 2488.8,1995.81 C2486.82,1997.79 2484.46,1998.78 2481.7,1998.78 C2478.95,1998.78 2476.59,1997.79 2474.61,1995.81 C2472.63,1993.83 2471.64,1991.48 2471.64,1988.76 C2471.64,1986.1 2472.63,1983.75 2474.61,1981.71 C2475.29,1980.91 2476.25,1980.23 2477.48,1979.67 C2477.17,1978.86 2476.55,1978.25 2475.63,1977.81 C2474.27,1977.01 2472.66,1976.61 2470.8,1976.61 M2475.35,2014.55 C2474.24,2011.64 2471.79,2010.19 2468.02,2010.19 C2464.25,2010.19 2461.91,2011.64 2461.01,2014.55 C2460.12,2017.46 2459.67,2021.88 2459.67,2027.82 C2459.67,2034.81 2460.12,2039.51 2461.01,2041.92 C2461.91,2044.33 2464.25,2045.54 2468.02,2045.54 C2471.79,2045.54 2474.24,2044.08 2475.35,2041.18 C2476.46,2038.27 2477.02,2033.83 2477.02,2027.86 C2477.02,2021.9 2476.46,2017.46 2475.35,2014.55"/>
<polyline class="FretDiagram" stroke="#fc0107" stroke-width="11.91" stroke-linejoin="bevel" points="2367.18,227.452 2580.29,227.452"/>
<polyline class="FretDiagram" stroke="#fc0107" stroke-width="4.76" stroke-linejoin="bevel" points="2369.56,227.452 2369.56,441.751"/>
<polyline class="FretDiagram" stroke="#fc0107" stroke-width="4.76" stroke-linejoin="bevel" points="2411.23,227.452 2411.23,441.751"/>
<polyline class="FretDiagram" stroke="#fc0107" stroke-width="4.76" stroke-linejoin="bevel" points="2452.9,227.452 2452.9,441.751"/>
<polyline class="FretDiagram" stroke="#fc0107" stroke-width="4.76" stroke-linejoin="bevel" points="2494.57,227.452 2494.57,441.751"/>
<polyline class="FretDiagram" stroke="#fc0107" stroke-width="4.76" stroke-linejoin="bevel" points="2536.24,227.452 2536.24,441.751"/>
<polyline class="FretDiagram" stroke="#fc0107" stroke-width="4.76" stroke-linejoin="bevel" points="2577.91,227.452 2577.91,441.751"/>
<polyline class="FretDiagram" stroke="#fc0107" stroke-width="4.76" stroke-linejoin="bevel" points="2369.56,275.074 2577.91,275.074"/>
<polyline class="FretDiagram" stroke="#fc0107" stroke-width="4.76" stroke-linejoin="bevel" points="2369.56,322.696 2577.91,322.696"/>
<polyline class="FretDiagram" stroke="#fc0107" stroke-width="4.76" stroke-linejoin="bevel" points="2369.56,370.318 2577.91,370.318"/>
<polyline class="FretDiagram" stroke="#fc0107" stroke-width="4.76" stroke-linejoin="bevel" points="2369.56,417.94 2577.91,417.94"/>
<path class="FretDiagram" fill="#fc0107" fill-rule="evenodd" d="M2467.49,251.263 C2467.49,259.318 2460.96,265.847 2452.9,265.847 C2444.85,265.847 2438.32,259.318 2438.32,251.263 C2438.32,243.208 2444.85,236.679 2452.9,236.679 C2460.96,236.679 2467.49,243.208 2467.49,251.263"/>
<path class="FretDiagram" fill="#fc0107" fill-rule="evenodd" d="M2509.16,346.507 C2509.16,354.562 2502.63,361.091 2494.57,361.091 C2486.52,361.091 2479.99,354.562 2479.99,346.507 C2479.99,338.453 2486.52,331.923 2494.57,331.923 C2502.63,331.923 2509.16,338.453 2509.16,346.507"/>
<path class="FretDiagram" fill="#fc0107" fill-rule="evenodd" d="M2592.5,298.885 C2592.5,306.94 2585.97,313.469 2577.91,313.469 C2569.86,313.469 2563.33,306.94 2563.33,298.885 C2563.33,290.83 2569.86,284.301 2577.91,284.301 C2585.97,284.301 2592.5,290.83 2592.5,298.885"/>
<polyline class="FretDiagram" fill="none" stroke="#fc0107" stroke-width="6.86" stroke-linecap="round" stroke-linejoin="bevel" points="2352.9,163.162 2386.23,196.498"/>
<polyline class="FretDiagram" fill="none" stroke="#fc0107" stroke-width="6.86" stroke-linecap="round" stroke-linejoin="bevel" points="2352.9,196.498 2386.23,163.162"/>
<polyline class="FretDiagram" fill="none" stroke="#fc0107" stroke-width="6.86" stroke-linecap="round" stroke-linejoin="bevel" points="2394.57,163.162 2427.9,196.498"/>
<polyline class="FretDiagram" fill="none" stroke="#fc0107" stroke-width="6.86" stroke-linecap="round" stroke-linejoin="bevel" points="2394.57,196.498 2427.9,163.162"/>
<path class="FretDiagram" fill="none" stroke="#fc0107" stroke-width="6.86" stroke-linecap="round" stroke-linejoin="bevel" fill-rule="evenodd" d="M2552.91,179.83 C2552.91,189.035 2545.45,196.498 2536.24,196.498 C2527.04,196.498 2519.57,189.035 2519.57,179.83 C2519.57,170.625 2527.04,163.162 2536.24,163.162 C2545.45,163.162 2552.91,170.625 2552.91,179.83"/>
<path class="Bracket" transform="matrix(8.6315,0,0,9.45563,76.1283,2337.37)" d="M0.92002,-50 C2.69004,-51.88 6.2,-55.8 6.2,-63 C6.2,-72.1 2.25996,-81.32 2.25996,-86.97 C2.25996,-93.06 5.84004,-98.84 5.95,-99 C6.05996,-99.16 6.05,-99.39 5.94004,-99.46 C5.82998,-99.53 5.62002,-99.47 5.49004,-99.32 C5.35996,-99.17 0,-93.75 0,-85.6 C0,-76.75 3.5,-70.58 3.5,-59.07 C3.5,-56.89 2.55996,-53.36 0.1,-50.33 C-0.0799805,-50.17 -0.1,-49.89 0.0599609,-49.7 L0.0700195,-49.69 L0.1,-49.66 C2.55996,-46.63 3.5,-43.1 3.5,-40.92 C3.5,-29.4 0,-23.24 0,-14.39 C0,-6.25 5.35996,-0.8 5.49004,-0.659961 C5.62002,-0.52002 5.8,-0.42998 5.94004,-0.52002 C6.07998,-0.609961 6.07998,-0.77998 5.95,-0.97998 C5.82002,-1.17998 2.25996,-6.92002 2.25996,-13.01 C2.25996,-18.66 6.2,-27.9 6.2,-37 C6.2,-44.3 2.69004,-48.12 0.92002,-50"/>
</svg>
