<?xml version="1.0" encoding="UTF-8" standalone="no"?>
<svg width="4209.44px" height="2976.38px" viewBox="0 0 4209.44 2976.38"
 xmlns="http://www.w3.org/2000/svg" xmlns:xlink="http://www.w3.org/1999/xlink" version="1.2" baseProfile="tiny">
<title>LaMineur (6)</title>
<desc>Generated by MuseScore 3.6.2</desc>
<polyline class="StaffLines" fill="none" stroke="#000000" stroke-width="6.55" stroke-linejoin="bevel" points="153.819,558.425 4138.58,558.425"/>
<polyline class="StaffLines" fill="none" stroke="#000000" stroke-width="6.55" stroke-linejoin="bevel" points="153.819,647.717 4138.58,647.717"/>
<polyline class="StaffLines" fill="none" stroke="#000000" stroke-width="6.55" stroke-linejoin="bevel" points="153.819,737.008 4138.58,737.008"/>
<polyline class="StaffLines" fill="none" stroke="#000000" stroke-width="6.55" stroke-linejoin="bevel" points="153.819,826.299 4138.58,826.299"/>
<polyline class="StaffLines" fill="none" stroke="#000000" stroke-width="6.55" stroke-linejoin="bevel" points="153.819,915.591 4138.58,915.591"/>
<polyline class="StaffLines" fill="none" stroke="#000000" stroke-width="6.55" stroke-linejoin="bevel" points="153.819,1004.88 4138.58,1004.88"/>
<polyline class="StaffLines" fill="none" stroke="#000000" stroke-width="6.55" stroke-linejoin="bevel" points="153.819,1391.81 4138.58,1391.81"/>
<polyline class="StaffLines" fill="none" stroke="#000000" stroke-width="6.55" stroke-linejoin="bevel" points="153.819,1451.34 4138.58,1451.34"/>
<polyline class="StaffLines" fill="none" stroke="#000000" stroke-width="6.55" stroke-linejoin="bevel" points="153.819,1510.87 4138.58,1510.87"/>
<polyline class="StaffLines" fill="none" stroke="#000000" stroke-width="6.55" stroke-linejoin="bevel" points="153.819,1570.39 4138.58,1570.39"/>
<polyline class="StaffLines" fill="none" stroke="#000000" stroke-width="6.55" stroke-linejoin="bevel" points="153.819,1629.92 4138.58,1629.92"/>
<polyline class="StaffLines" fill="none" stroke="#000000" stroke-width="6.55" stroke-linejoin="bevel" points="153.819,2016.85 4138.58,2016.85"/>
<polyline class="StaffLines" fill="none" stroke="#000000" stroke-width="6.55" stroke-linejoin="bevel" points="153.819,2076.38 4138.58,2076.38"/>
<polyline class="StaffLines" fill="none" stroke="#000000" stroke-width="6.55" stroke-linejoin="bevel" points="153.819,2135.91 4138.58,2135.91"/>
<polyline class="StaffLines" fill="none" stroke="#000000" stroke-width="6.55" stroke-linejoin="bevel" points="153.819,2195.43 4138.58,2195.43"/>
<polyline class="StaffLines" fill="none" stroke="#000000" stroke-width="6.55" stroke-linejoin="bevel" points="153.819,2254.96 4138.58,2254.96"/>
<polyline class="BarLine" fill="none" stroke="#000000" stroke-width="10.71" stroke-linejoin="bevel" points="159.176,2013.58 159.176,2258.23"/>
<polyline class="BarLine" fill="none" stroke="#000000" stroke-width="10.71" stroke-linejoin="bevel" points="937.408,2013.58 937.408,2258.23"/>
<polyline class="BarLine" fill="none" stroke="#000000" stroke-width="10.71" stroke-linejoin="bevel" points="1400.31,2013.58 1400.31,2258.23"/>
<polyline class="BarLine" fill="none" stroke="#000000" stroke-width="10.71" stroke-linejoin="bevel" points="1855.32,2013.58 1855.32,2258.23"/>
<polyline class="BarLine" fill="none" stroke="#000000" stroke-width="10.71" stroke-linejoin="bevel" points="2268.66,2013.58 2268.66,2258.23"/>
<polyline class="BarLine" fill="none" stroke="#000000" stroke-width="10.71" stroke-linejoin="bevel" points="2301.4,2013.58 2301.4,2258.23"/>
<polyline class="BarLine" fill="none" stroke="#000000" stroke-width="10.71" stroke-linejoin="bevel" points="2740.46,2013.58 2740.46,2258.23"/>
<polyline class="BarLine" fill="none" stroke="#000000" stroke-width="10.71" stroke-linejoin="bevel" points="3179.52,2013.58 3179.52,2258.23"/>
<polyline class="BarLine" fill="none" stroke="#000000" stroke-width="10.71" stroke-linejoin="bevel" points="3625.03,2013.58 3625.03,2258.23"/>
<polyline class="BarLine" fill="none" stroke="#000000" stroke-width="10.71" stroke-linejoin="bevel" points="4100.48,2013.58 4100.48,2258.23"/>
<polyline class="BarLine" fill="none" stroke="#000000" stroke-width="10.71" stroke-linejoin="bevel" points="4133.22,2013.58 4133.22,2258.23"/>
<polyline class="BarLine" fill="none" stroke="#000000" stroke-width="10.71" stroke-linejoin="bevel" points="159.176,1388.54 159.176,2016.85"/>
<polyline class="BarLine" fill="none" stroke="#000000" stroke-width="10.71" stroke-linejoin="bevel" points="937.408,1388.54 937.408,1633.2"/>
<polyline class="BarLine" fill="none" stroke="#000000" stroke-width="10.71" stroke-linejoin="bevel" points="1400.31,1388.54 1400.31,1633.2"/>
<polyline class="BarLine" fill="none" stroke="#000000" stroke-width="10.71" stroke-linejoin="bevel" points="1855.32,1388.54 1855.32,1633.2"/>
<polyline class="BarLine" fill="none" stroke="#000000" stroke-width="10.71" stroke-linejoin="bevel" points="2268.66,1388.54 2268.66,1633.2"/>
<polyline class="BarLine" fill="none" stroke="#000000" stroke-width="10.71" stroke-linejoin="bevel" points="2301.4,1388.54 2301.4,1633.2"/>
<polyline class="BarLine" fill="none" stroke="#000000" stroke-width="10.71" stroke-linejoin="bevel" points="2740.46,1388.54 2740.46,1633.2"/>
<polyline class="BarLine" fill="none" stroke="#000000" stroke-width="10.71" stroke-linejoin="bevel" points="3179.52,1388.54 3179.52,1633.2"/>
<polyline class="BarLine" fill="none" stroke="#000000" stroke-width="10.71" stroke-linejoin="bevel" points="3625.03,1388.54 3625.03,1633.2"/>
<polyline class="BarLine" fill="none" stroke="#000000" stroke-width="10.71" stroke-linejoin="bevel" points="4100.48,1388.54 4100.48,1633.2"/>
<polyline class="BarLine" fill="none" stroke="#000000" stroke-width="10.71" stroke-linejoin="bevel" points="4133.22,1388.54 4133.22,1633.2"/>
<polyline class="BarLine" fill="none" stroke="#000000" stroke-width="10.71" stroke-linejoin="bevel" points="159.176,555.151 159.176,1391.81"/>
<polyline class="BarLine" fill="none" stroke="#000000" stroke-width="10.71" stroke-linejoin="bevel" points="937.408,555.151 937.408,1008.16"/>
<polyline class="BarLine" fill="none" stroke="#000000" stroke-width="10.71" stroke-linejoin="bevel" points="1400.31,555.151 1400.31,1008.16"/>
<polyline class="BarLine" fill="none" stroke="#000000" stroke-width="10.71" stroke-linejoin="bevel" points="1855.32,555.151 1855.32,1008.16"/>
<polyline class="BarLine" fill="none" stroke="#000000" stroke-width="10.71" stroke-linejoin="bevel" points="2268.66,555.151 2268.66,1008.16"/>
<polyline class="BarLine" fill="none" stroke="#000000" stroke-width="10.71" stroke-linejoin="bevel" points="2301.4,555.151 2301.4,1008.16"/>
<polyline class="BarLine" fill="none" stroke="#000000" stroke-width="10.71" stroke-linejoin="bevel" points="2740.46,555.151 2740.46,1008.16"/>
<polyline class="BarLine" fill="none" stroke="#000000" stroke-width="10.71" stroke-linejoin="bevel" points="3179.52,555.151 3179.52,1008.16"/>
<polyline class="BarLine" fill="none" stroke="#000000" stroke-width="10.71" stroke-linejoin="bevel" points="3625.03,555.151 3625.03,1008.16"/>
<polyline class="BarLine" fill="none" stroke="#000000" stroke-width="10.71" stroke-linejoin="bevel" points="4100.48,555.151 4100.48,1008.16"/>
<polyline class="BarLine" fill="none" stroke="#000000" stroke-width="10.71" stroke-linejoin="bevel" points="4133.22,555.151 4133.22,1008.16"/>
<path class="Accidental" transform="matrix(2.3811,0,0,2.3811,988.834,2284.72)" d="M23.3,-10.6 C23.9,-10.7 24.4,-11.4 24.4,-12 L24.4,-17.9 C24.4,-18.7 23.8,-19.3 23,-19.3 L22.8,-19.3 L19.5,-18.6 L19.5,-33.5 L16.7,-33.5 L16.7,-18 L7.8,-16.2 L7.8,-30.3 L5,-30.3 L5,-15.6 L1.1,-14.8 C0.5,-14.7 0,-14 0,-13.4 L0,-13.2 L0,-7.4 L0,-7.6 C0,-6.8 0.6,-6.2 1.4,-6.2 L1.7,-6.2 L5,-6.9 L5,9.6 L1.1,10.4 C0.5,10.5 0,11.2 0,11.8 L0,17.6 C0,18.4 0.6,19 1.4,19 L1.7,19 L5,18.3 L5,33.2 L7.8,33.2 L7.8,17.7 L16.7,15.9 L16.7,30 L19.5,30 L19.5,15.3 L23.3,14.6 C23.9,14.5 24.4,13.8 24.4,13.2 L24.4,7.3 C24.4,6.5 23.8,5.9 23,5.9 L22.8,5.9 L19.5,6.6 L19.5,-9.9 L23.3,-10.6 M7.8,9.1 L7.8,-7.5 L16.7,-9.3 L16.7,7.2 L7.8,9.1 "/>
<path class="Accidental" transform="matrix(2.3811,0,0,2.3811,1451.74,2254.96)" d="M23.3,-10.6 C23.9,-10.7 24.4,-11.4 24.4,-12 L24.4,-17.9 C24.4,-18.7 23.8,-19.3 23,-19.3 L22.8,-19.3 L19.5,-18.6 L19.5,-33.5 L16.7,-33.5 L16.7,-18 L7.8,-16.2 L7.8,-30.3 L5,-30.3 L5,-15.6 L1.1,-14.8 C0.5,-14.7 0,-14 0,-13.4 L0,-13.2 L0,-7.4 L0,-7.6 C0,-6.8 0.6,-6.2 1.4,-6.2 L1.7,-6.2 L5,-6.9 L5,9.6 L1.1,10.4 C0.5,10.5 0,11.2 0,11.8 L0,17.6 C0,18.4 0.6,19 1.4,19 L1.7,19 L5,18.3 L5,33.2 L7.8,33.2 L7.8,17.7 L16.7,15.9 L16.7,30 L19.5,30 L19.5,15.3 L23.3,14.6 C23.9,14.5 24.4,13.8 24.4,13.2 L24.4,7.3 C24.4,6.5 23.8,5.9 23,5.9 L22.8,5.9 L19.5,6.6 L19.5,-9.9 L23.3,-10.6 M7.8,9.1 L7.8,-7.5 L16.7,-9.3 L16.7,7.2 L7.8,9.1 "/>
<path class="Accidental" transform="matrix(2.3811,0,0,2.3811,2791.88,2254.96)" d="M16.6,-18.3 C16.4,-18.5 16.1,-18.6 15.8,-18.6 C15.7,-18.6 15.5,-18.5 15.4,-18.5 L2.8,-15 L2.8,-32.5 L0,-32.5 L0,17 C0,17.8 0.6,18.3 1.4,18.3 L1.8,18.3 L14.4,14.8 L14.4,32.3 L17.1,32.3 L17.1,-17.2 C17.1,-17.6 16.9,-18.1 16.6,-18.3 M14.4,6.5 L2.8,9.7 L2.8,-6.7 L14.4,-10 L14.4,6.5 "/>
<path class="Accidental" transform="matrix(2.3811,0,0,2.3811,3230.94,2284.72)" d="M16.6,-18.3 C16.4,-18.5 16.1,-18.6 15.8,-18.6 C15.7,-18.6 15.5,-18.5 15.4,-18.5 L2.8,-15 L2.8,-32.5 L0,-32.5 L0,17 C0,17.8 0.6,18.3 1.4,18.3 L1.8,18.3 L14.4,14.8 L14.4,32.3 L17.1,32.3 L17.1,-17.2 C17.1,-17.6 16.9,-18.1 16.6,-18.3 M14.4,6.5 L2.8,9.7 L2.8,-6.7 L14.4,-10 L14.4,6.5 "/>
<path class="Accidental" transform="matrix(2.3811,0,0,2.3811,513.384,1570.39)" d="M23.3,-10.6 C23.9,-10.7 24.4,-11.4 24.4,-12 L24.4,-17.9 C24.4,-18.7 23.8,-19.3 23,-19.3 L22.8,-19.3 L19.5,-18.6 L19.5,-33.5 L16.7,-33.5 L16.7,-18 L7.8,-16.2 L7.8,-30.3 L5,-30.3 L5,-15.6 L1.1,-14.8 C0.5,-14.7 0,-14 0,-13.4 L0,-13.2 L0,-7.4 L0,-7.6 C0,-6.8 0.6,-6.2 1.4,-6.2 L1.7,-6.2 L5,-6.9 L5,9.6 L1.1,10.4 C0.5,10.5 0,11.2 0,11.8 L0,17.6 C0,18.4 0.6,19 1.4,19 L1.7,19 L5,18.3 L5,33.2 L7.8,33.2 L7.8,17.7 L16.7,15.9 L16.7,30 L19.5,30 L19.5,15.3 L23.3,14.6 C23.9,14.5 24.4,13.8 24.4,13.2 L24.4,7.3 C24.4,6.5 23.8,5.9 23,5.9 L22.8,5.9 L19.5,6.6 L19.5,-9.9 L23.3,-10.6 M7.8,9.1 L7.8,-7.5 L16.7,-9.3 L16.7,7.2 L7.8,9.1 "/>
<path class="Accidental" transform="matrix(2.3811,0,0,2.3811,3676.46,1570.39)" d="M23.3,-10.6 C23.9,-10.7 24.4,-11.4 24.4,-12 L24.4,-17.9 C24.4,-18.7 23.8,-19.3 23,-19.3 L22.8,-19.3 L19.5,-18.6 L19.5,-33.5 L16.7,-33.5 L16.7,-18 L7.8,-16.2 L7.8,-30.3 L5,-30.3 L5,-15.6 L1.1,-14.8 C0.5,-14.7 0,-14 0,-13.4 L0,-13.2 L0,-7.4 L0,-7.6 C0,-6.8 0.6,-6.2 1.4,-6.2 L1.7,-6.2 L5,-6.9 L5,9.6 L1.1,10.4 C0.5,10.5 0,11.2 0,11.8 L0,17.6 C0,18.4 0.6,19 1.4,19 L1.7,19 L5,18.3 L5,33.2 L7.8,33.2 L7.8,17.7 L16.7,15.9 L16.7,30 L19.5,30 L19.5,15.3 L23.3,14.6 C23.9,14.5 24.4,13.8 24.4,13.2 L24.4,7.3 C24.4,6.5 23.8,5.9 23,5.9 L22.8,5.9 L19.5,6.6 L19.5,-9.9 L23.3,-10.6 M7.8,9.1 L7.8,-7.5 L16.7,-9.3 L16.7,7.2 L7.8,9.1 "/>
<polyline class="LedgerLine" fill="none" stroke="#000000" stroke-width="9.52" stroke-linejoin="bevel" points="565.526,2314.49 696.003,2314.49"/>
<polyline class="LedgerLine" fill="none" stroke="#000000" stroke-width="9.52" stroke-linejoin="bevel" points="3728.6,2314.49 3859.08,2314.49"/>
<path class="Note" transform="matrix(2.3811,0,0,2.3811,586.361,2314.49)" d="M18.7,-13.6 C4.9,-13.6 0,-6.6 0,-0.1 C0,6.4 4.9,13.4 18.7,13.4 C32.5,13.4 37.3,6.4 37.3,-0.1 C37.3,-6.6 32.5,-13.6 18.7,-13.6 M10.4,-4.5 C10.3,-4.9 10.3,-5.3 10.3,-5.7 C10.3,-6.5 10.5,-7.3 10.9,-8 C11.6,-9 12.8,-9.7 14.3,-10 C15.6,-10.3 16.3,-10.5 18.9,-10.5 L19,-10.5 C23,-10.5 24.3,-6.8 25.4,-3 L25.7,-2 C26.5,0.6 26.9,2.8 26.9,4.5 C26.9,5.7 26.7,6.8 26.3,7.6 C25.7,8.7 24.7,9.4 23,9.8 C22.1,10 20.6,10.1 20.6,10.1 C20.1,10.1 19.7,10.2 19.3,10.2 C16.1,10.2 14.1,9 12.7,4.7 C11.5,1 11.3,-0.1 10.4,-4.5"/>
<path class="Note" transform="matrix(2.3811,0,0,2.3811,1061.81,2284.72)" d="M18.7,-13.6 C4.9,-13.6 0,-6.6 0,-0.1 C0,6.4 4.9,13.4 18.7,13.4 C32.5,13.4 37.3,6.4 37.3,-0.1 C37.3,-6.6 32.5,-13.6 18.7,-13.6 M10.4,-4.5 C10.3,-4.9 10.3,-5.3 10.3,-5.7 C10.3,-6.5 10.5,-7.3 10.9,-8 C11.6,-9 12.8,-9.7 14.3,-10 C15.6,-10.3 16.3,-10.5 18.9,-10.5 L19,-10.5 C23,-10.5 24.3,-6.8 25.4,-3 L25.7,-2 C26.5,0.6 26.9,2.8 26.9,4.5 C26.9,5.7 26.7,6.8 26.3,7.6 C25.7,8.7 24.7,9.4 23,9.8 C22.1,10 20.6,10.1 20.6,10.1 C20.1,10.1 19.7,10.2 19.3,10.2 C16.1,10.2 14.1,9 12.7,4.7 C11.5,1 11.3,-0.1 10.4,-4.5"/>
<path class="Note" transform="matrix(2.3811,0,0,2.3811,1524.72,2254.96)" d="M18.7,-13.6 C4.9,-13.6 0,-6.6 0,-0.1 C0,6.4 4.9,13.4 18.7,13.4 C32.5,13.4 37.3,6.4 37.3,-0.1 C37.3,-6.6 32.5,-13.6 18.7,-13.6 M10.4,-4.5 C10.3,-4.9 10.3,-5.3 10.3,-5.7 C10.3,-6.5 10.5,-7.3 10.9,-8 C11.6,-9 12.8,-9.7 14.3,-10 C15.6,-10.3 16.3,-10.5 18.9,-10.5 L19,-10.5 C23,-10.5 24.3,-6.8 25.4,-3 L25.7,-2 C26.5,0.6 26.9,2.8 26.9,4.5 C26.9,5.7 26.7,6.8 26.3,7.6 C25.7,8.7 24.7,9.4 23,9.8 C22.1,10 20.6,10.1 20.6,10.1 C20.1,10.1 19.7,10.2 19.3,10.2 C16.1,10.2 14.1,9 12.7,4.7 C11.5,1 11.3,-0.1 10.4,-4.5"/>
<path class="Note" transform="matrix(2.3811,0,0,2.3811,1938.06,2225.2)" d="M18.7,-13.6 C4.9,-13.6 0,-6.6 0,-0.1 C0,6.4 4.9,13.4 18.7,13.4 C32.5,13.4 37.3,6.4 37.3,-0.1 C37.3,-6.6 32.5,-13.6 18.7,-13.6 M10.4,-4.5 C10.3,-4.9 10.3,-5.3 10.3,-5.7 C10.3,-6.5 10.5,-7.3 10.9,-8 C11.6,-9 12.8,-9.7 14.3,-10 C15.6,-10.3 16.3,-10.5 18.9,-10.5 L19,-10.5 C23,-10.5 24.3,-6.8 25.4,-3 L25.7,-2 C26.5,0.6 26.9,2.8 26.9,4.5 C26.9,5.7 26.7,6.8 26.3,7.6 C25.7,8.7 24.7,9.4 23,9.8 C22.1,10 20.6,10.1 20.6,10.1 C20.1,10.1 19.7,10.2 19.3,10.2 C16.1,10.2 14.1,9 12.7,4.7 C11.5,1 11.3,-0.1 10.4,-4.5"/>
<path class="Note" transform="matrix(2.3811,0,0,2.3811,2384.14,2225.2)" d="M18.7,-13.6 C4.9,-13.6 0,-6.6 0,-0.1 C0,6.4 4.9,13.4 18.7,13.4 C32.5,13.4 37.3,6.4 37.3,-0.1 C37.3,-6.6 32.5,-13.6 18.7,-13.6 M10.4,-4.5 C10.3,-4.9 10.3,-5.3 10.3,-5.7 C10.3,-6.5 10.5,-7.3 10.9,-8 C11.6,-9 12.8,-9.7 14.3,-10 C15.6,-10.3 16.3,-10.5 18.9,-10.5 L19,-10.5 C23,-10.5 24.3,-6.8 25.4,-3 L25.7,-2 C26.5,0.6 26.9,2.8 26.9,4.5 C26.9,5.7 26.7,6.8 26.3,7.6 C25.7,8.7 24.7,9.4 23,9.8 C22.1,10 20.6,10.1 20.6,10.1 C20.1,10.1 19.7,10.2 19.3,10.2 C16.1,10.2 14.1,9 12.7,4.7 C11.5,1 11.3,-0.1 10.4,-4.5"/>
<path class="Note" transform="matrix(2.3811,0,0,2.3811,2847.47,2254.96)" d="M18.7,-13.6 C4.9,-13.6 0,-6.6 0,-0.1 C0,6.4 4.9,13.4 18.7,13.4 C32.5,13.4 37.3,6.4 37.3,-0.1 C37.3,-6.6 32.5,-13.6 18.7,-13.6 M10.4,-4.5 C10.3,-4.9 10.3,-5.3 10.3,-5.7 C10.3,-6.5 10.5,-7.3 10.9,-8 C11.6,-9 12.8,-9.7 14.3,-10 C15.6,-10.3 16.3,-10.5 18.9,-10.5 L19,-10.5 C23,-10.5 24.3,-6.8 25.4,-3 L25.7,-2 C26.5,0.6 26.9,2.8 26.9,4.5 C26.9,5.7 26.7,6.8 26.3,7.6 C25.7,8.7 24.7,9.4 23,9.8 C22.1,10 20.6,10.1 20.6,10.1 C20.1,10.1 19.7,10.2 19.3,10.2 C16.1,10.2 14.1,9 12.7,4.7 C11.5,1 11.3,-0.1 10.4,-4.5"/>
<path class="Note" transform="matrix(2.3811,0,0,2.3811,3286.53,2284.72)" d="M18.7,-13.6 C4.9,-13.6 0,-6.6 0,-0.1 C0,6.4 4.9,13.4 18.7,13.4 C32.5,13.4 37.3,6.4 37.3,-0.1 C37.3,-6.6 32.5,-13.6 18.7,-13.6 M10.4,-4.5 C10.3,-4.9 10.3,-5.3 10.3,-5.7 C10.3,-6.5 10.5,-7.3 10.9,-8 C11.6,-9 12.8,-9.7 14.3,-10 C15.6,-10.3 16.3,-10.5 18.9,-10.5 L19,-10.5 C23,-10.5 24.3,-6.8 25.4,-3 L25.7,-2 C26.5,0.6 26.9,2.8 26.9,4.5 C26.9,5.7 26.7,6.8 26.3,7.6 C25.7,8.7 24.7,9.4 23,9.8 C22.1,10 20.6,10.1 20.6,10.1 C20.1,10.1 19.7,10.2 19.3,10.2 C16.1,10.2 14.1,9 12.7,4.7 C11.5,1 11.3,-0.1 10.4,-4.5"/>
<path class="Note" transform="matrix(2.3811,0,0,2.3811,3749.43,2314.49)" d="M18.7,-13.6 C4.9,-13.6 0,-6.6 0,-0.1 C0,6.4 4.9,13.4 18.7,13.4 C32.5,13.4 37.3,6.4 37.3,-0.1 C37.3,-6.6 32.5,-13.6 18.7,-13.6 M10.4,-4.5 C10.3,-4.9 10.3,-5.3 10.3,-5.7 C10.3,-6.5 10.5,-7.3 10.9,-8 C11.6,-9 12.8,-9.7 14.3,-10 C15.6,-10.3 16.3,-10.5 18.9,-10.5 L19,-10.5 C23,-10.5 24.3,-6.8 25.4,-3 L25.7,-2 C26.5,0.6 26.9,2.8 26.9,4.5 C26.9,5.7 26.7,6.8 26.3,7.6 C25.7,8.7 24.7,9.4 23,9.8 C22.1,10 20.6,10.1 20.6,10.1 C20.1,10.1 19.7,10.2 19.3,10.2 C16.1,10.2 14.1,9 12.7,4.7 C11.5,1 11.3,-0.1 10.4,-4.5"/>
<path class="Note" transform="matrix(2.3811,0,0,2.3811,586.361,1629.92)" d="M18.7,-13.6 C4.9,-13.6 0,-6.6 0,-0.1 C0,6.4 4.9,13.4 18.7,13.4 C32.5,13.4 37.3,6.4 37.3,-0.1 C37.3,-6.6 32.5,-13.6 18.7,-13.6 M10.4,-4.5 C10.3,-4.9 10.3,-5.3 10.3,-5.7 C10.3,-6.5 10.5,-7.3 10.9,-8 C11.6,-9 12.8,-9.7 14.3,-10 C15.6,-10.3 16.3,-10.5 18.9,-10.5 L19,-10.5 C23,-10.5 24.3,-6.8 25.4,-3 L25.7,-2 C26.5,0.6 26.9,2.8 26.9,4.5 C26.9,5.7 26.7,6.8 26.3,7.6 C25.7,8.7 24.7,9.4 23,9.8 C22.1,10 20.6,10.1 20.6,10.1 C20.1,10.1 19.7,10.2 19.3,10.2 C16.1,10.2 14.1,9 12.7,4.7 C11.5,1 11.3,-0.1 10.4,-4.5"/>
<path class="Note" transform="matrix(2.3811,0,0,2.3811,586.361,1570.39)" d="M18.7,-13.6 C4.9,-13.6 0,-6.6 0,-0.1 C0,6.4 4.9,13.4 18.7,13.4 C32.5,13.4 37.3,6.4 37.3,-0.1 C37.3,-6.6 32.5,-13.6 18.7,-13.6 M10.4,-4.5 C10.3,-4.9 10.3,-5.3 10.3,-5.7 C10.3,-6.5 10.5,-7.3 10.9,-8 C11.6,-9 12.8,-9.7 14.3,-10 C15.6,-10.3 16.3,-10.5 18.9,-10.5 L19,-10.5 C23,-10.5 24.3,-6.8 25.4,-3 L25.7,-2 C26.5,0.6 26.9,2.8 26.9,4.5 C26.9,5.7 26.7,6.8 26.3,7.6 C25.7,8.7 24.7,9.4 23,9.8 C22.1,10 20.6,10.1 20.6,10.1 C20.1,10.1 19.7,10.2 19.3,10.2 C16.1,10.2 14.1,9 12.7,4.7 C11.5,1 11.3,-0.1 10.4,-4.5"/>
<path class="Note" transform="matrix(2.3811,0,0,2.3811,586.361,1510.87)" d="M18.7,-13.6 C4.9,-13.6 0,-6.6 0,-0.1 C0,6.4 4.9,13.4 18.7,13.4 C32.5,13.4 37.3,6.4 37.3,-0.1 C37.3,-6.6 32.5,-13.6 18.7,-13.6 M10.4,-4.5 C10.3,-4.9 10.3,-5.3 10.3,-5.7 C10.3,-6.5 10.5,-7.3 10.9,-8 C11.6,-9 12.8,-9.7 14.3,-10 C15.6,-10.3 16.3,-10.5 18.9,-10.5 L19,-10.5 C23,-10.5 24.3,-6.8 25.4,-3 L25.7,-2 C26.5,0.6 26.9,2.8 26.9,4.5 C26.9,5.7 26.7,6.8 26.3,7.6 C25.7,8.7 24.7,9.4 23,9.8 C22.1,10 20.6,10.1 20.6,10.1 C20.1,10.1 19.7,10.2 19.3,10.2 C16.1,10.2 14.1,9 12.7,4.7 C11.5,1 11.3,-0.1 10.4,-4.5"/>
<path class="Note" transform="matrix(2.3811,0,0,2.3811,1061.81,1659.69)" d="M18.7,-13.6 C4.9,-13.6 0,-6.6 0,-0.1 C0,6.4 4.9,13.4 18.7,13.4 C32.5,13.4 37.3,6.4 37.3,-0.1 C37.3,-6.6 32.5,-13.6 18.7,-13.6 M10.4,-4.5 C10.3,-4.9 10.3,-5.3 10.3,-5.7 C10.3,-6.5 10.5,-7.3 10.9,-8 C11.6,-9 12.8,-9.7 14.3,-10 C15.6,-10.3 16.3,-10.5 18.9,-10.5 L19,-10.5 C23,-10.5 24.3,-6.8 25.4,-3 L25.7,-2 C26.5,0.6 26.9,2.8 26.9,4.5 C26.9,5.7 26.7,6.8 26.3,7.6 C25.7,8.7 24.7,9.4 23,9.8 C22.1,10 20.6,10.1 20.6,10.1 C20.1,10.1 19.7,10.2 19.3,10.2 C16.1,10.2 14.1,9 12.7,4.7 C11.5,1 11.3,-0.1 10.4,-4.5"/>
<path class="Note" transform="matrix(2.3811,0,0,2.3811,1061.81,1540.63)" d="M18.7,-13.6 C4.9,-13.6 0,-6.6 0,-0.1 C0,6.4 4.9,13.4 18.7,13.4 C32.5,13.4 37.3,6.4 37.3,-0.1 C37.3,-6.6 32.5,-13.6 18.7,-13.6 M10.4,-4.5 C10.3,-4.9 10.3,-5.3 10.3,-5.7 C10.3,-6.5 10.5,-7.3 10.9,-8 C11.6,-9 12.8,-9.7 14.3,-10 C15.6,-10.3 16.3,-10.5 18.9,-10.5 L19,-10.5 C23,-10.5 24.3,-6.8 25.4,-3 L25.7,-2 C26.5,0.6 26.9,2.8 26.9,4.5 C26.9,5.7 26.7,6.8 26.3,7.6 C25.7,8.7 24.7,9.4 23,9.8 C22.1,10 20.6,10.1 20.6,10.1 C20.1,10.1 19.7,10.2 19.3,10.2 C16.1,10.2 14.1,9 12.7,4.7 C11.5,1 11.3,-0.1 10.4,-4.5"/>
<path class="Note" transform="matrix(2.3811,0,0,2.3811,1524.72,1629.92)" d="M18.7,-13.6 C4.9,-13.6 0,-6.6 0,-0.1 C0,6.4 4.9,13.4 18.7,13.4 C32.5,13.4 37.3,6.4 37.3,-0.1 C37.3,-6.6 32.5,-13.6 18.7,-13.6 M10.4,-4.5 C10.3,-4.9 10.3,-5.3 10.3,-5.7 C10.3,-6.5 10.5,-7.3 10.9,-8 C11.6,-9 12.8,-9.7 14.3,-10 C15.6,-10.3 16.3,-10.5 18.9,-10.5 L19,-10.5 C23,-10.5 24.3,-6.8 25.4,-3 L25.7,-2 C26.5,0.6 26.9,2.8 26.9,4.5 C26.9,5.7 26.7,6.8 26.3,7.6 C25.7,8.7 24.7,9.4 23,9.8 C22.1,10 20.6,10.1 20.6,10.1 C20.1,10.1 19.7,10.2 19.3,10.2 C16.1,10.2 14.1,9 12.7,4.7 C11.5,1 11.3,-0.1 10.4,-4.5"/>
<path class="Note" transform="matrix(2.3811,0,0,2.3811,1524.72,1510.87)" d="M18.7,-13.6 C4.9,-13.6 0,-6.6 0,-0.1 C0,6.4 4.9,13.4 18.7,13.4 C32.5,13.4 37.3,6.4 37.3,-0.1 C37.3,-6.6 32.5,-13.6 18.7,-13.6 M10.4,-4.5 C10.3,-4.9 10.3,-5.3 10.3,-5.7 C10.3,-6.5 10.5,-7.3 10.9,-8 C11.6,-9 12.8,-9.7 14.3,-10 C15.6,-10.3 16.3,-10.5 18.9,-10.5 L19,-10.5 C23,-10.5 24.3,-6.8 25.4,-3 L25.7,-2 C26.5,0.6 26.9,2.8 26.9,4.5 C26.9,5.7 26.7,6.8 26.3,7.6 C25.7,8.7 24.7,9.4 23,9.8 C22.1,10 20.6,10.1 20.6,10.1 C20.1,10.1 19.7,10.2 19.3,10.2 C16.1,10.2 14.1,9 12.7,4.7 C11.5,1 11.3,-0.1 10.4,-4.5"/>
<path class="Note" transform="matrix(2.3811,0,0,2.3811,1938.06,1629.92)" d="M18.7,-13.6 C4.9,-13.6 0,-6.6 0,-0.1 C0,6.4 4.9,13.4 18.7,13.4 C32.5,13.4 37.3,6.4 37.3,-0.1 C37.3,-6.6 32.5,-13.6 18.7,-13.6 M10.4,-4.5 C10.3,-4.9 10.3,-5.3 10.3,-5.7 C10.3,-6.5 10.5,-7.3 10.9,-8 C11.6,-9 12.8,-9.7 14.3,-10 C15.6,-10.3 16.3,-10.5 18.9,-10.5 L19,-10.5 C23,-10.5 24.3,-6.8 25.4,-3 L25.7,-2 C26.5,0.6 26.9,2.8 26.9,4.5 C26.9,5.7 26.7,6.8 26.3,7.6 C25.7,8.7 24.7,9.4 23,9.8 C22.1,10 20.6,10.1 20.6,10.1 C20.1,10.1 19.7,10.2 19.3,10.2 C16.1,10.2 14.1,9 12.7,4.7 C11.5,1 11.3,-0.1 10.4,-4.5"/>
<path class="Note" transform="matrix(2.3811,0,0,2.3811,1938.06,1540.63)" d="M18.7,-13.6 C4.9,-13.6 0,-6.6 0,-0.1 C0,6.4 4.9,13.4 18.7,13.4 C32.5,13.4 37.3,6.4 37.3,-0.1 C37.3,-6.6 32.5,-13.6 18.7,-13.6 M10.4,-4.5 C10.3,-4.9 10.3,-5.3 10.3,-5.7 C10.3,-6.5 10.5,-7.3 10.9,-8 C11.6,-9 12.8,-9.7 14.3,-10 C15.6,-10.3 16.3,-10.5 18.9,-10.5 L19,-10.5 C23,-10.5 24.3,-6.8 25.4,-3 L25.7,-2 C26.5,0.6 26.9,2.8 26.9,4.5 C26.9,5.7 26.7,6.8 26.3,7.6 C25.7,8.7 24.7,9.4 23,9.8 C22.1,10 20.6,10.1 20.6,10.1 C20.1,10.1 19.7,10.2 19.3,10.2 C16.1,10.2 14.1,9 12.7,4.7 C11.5,1 11.3,-0.1 10.4,-4.5"/>
<path class="Note" transform="matrix(2.3811,0,0,2.3811,1938.06,1481.1)" d="M18.7,-13.6 C4.9,-13.6 0,-6.6 0,-0.1 C0,6.4 4.9,13.4 18.7,13.4 C32.5,13.4 37.3,6.4 37.3,-0.1 C37.3,-6.6 32.5,-13.6 18.7,-13.6 M10.4,-4.5 C10.3,-4.9 10.3,-5.3 10.3,-5.7 C10.3,-6.5 10.5,-7.3 10.9,-8 C11.6,-9 12.8,-9.7 14.3,-10 C15.6,-10.3 16.3,-10.5 18.9,-10.5 L19,-10.5 C23,-10.5 24.3,-6.8 25.4,-3 L25.7,-2 C26.5,0.6 26.9,2.8 26.9,4.5 C26.9,5.7 26.7,6.8 26.3,7.6 C25.7,8.7 24.7,9.4 23,9.8 C22.1,10 20.6,10.1 20.6,10.1 C20.1,10.1 19.7,10.2 19.3,10.2 C16.1,10.2 14.1,9 12.7,4.7 C11.5,1 11.3,-0.1 10.4,-4.5"/>
<path class="Note" transform="matrix(2.3811,0,0,2.3811,2384.14,1629.92)" d="M18.7,-13.6 C4.9,-13.6 0,-6.6 0,-0.1 C0,6.4 4.9,13.4 18.7,13.4 C32.5,13.4 37.3,6.4 37.3,-0.1 C37.3,-6.6 32.5,-13.6 18.7,-13.6 M10.4,-4.5 C10.3,-4.9 10.3,-5.3 10.3,-5.7 C10.3,-6.5 10.5,-7.3 10.9,-8 C11.6,-9 12.8,-9.7 14.3,-10 C15.6,-10.3 16.3,-10.5 18.9,-10.5 L19,-10.5 C23,-10.5 24.3,-6.8 25.4,-3 L25.7,-2 C26.5,0.6 26.9,2.8 26.9,4.5 C26.9,5.7 26.7,6.8 26.3,7.6 C25.7,8.7 24.7,9.4 23,9.8 C22.1,10 20.6,10.1 20.6,10.1 C20.1,10.1 19.7,10.2 19.3,10.2 C16.1,10.2 14.1,9 12.7,4.7 C11.5,1 11.3,-0.1 10.4,-4.5"/>
<path class="Note" transform="matrix(2.3811,0,0,2.3811,2384.14,1540.63)" d="M18.7,-13.6 C4.9,-13.6 0,-6.6 0,-0.1 C0,6.4 4.9,13.4 18.7,13.4 C32.5,13.4 37.3,6.4 37.3,-0.1 C37.3,-6.6 32.5,-13.6 18.7,-13.6 M10.4,-4.5 C10.3,-4.9 10.3,-5.3 10.3,-5.7 C10.3,-6.5 10.5,-7.3 10.9,-8 C11.6,-9 12.8,-9.7 14.3,-10 C15.6,-10.3 16.3,-10.5 18.9,-10.5 L19,-10.5 C23,-10.5 24.3,-6.8 25.4,-3 L25.7,-2 C26.5,0.6 26.9,2.8 26.9,4.5 C26.9,5.7 26.7,6.8 26.3,7.6 C25.7,8.7 24.7,9.4 23,9.8 C22.1,10 20.6,10.1 20.6,10.1 C20.1,10.1 19.7,10.2 19.3,10.2 C16.1,10.2 14.1,9 12.7,4.7 C11.5,1 11.3,-0.1 10.4,-4.5"/>
<path class="Note" transform="matrix(2.3811,0,0,2.3811,2384.14,1481.1)" d="M18.7,-13.6 C4.9,-13.6 0,-6.6 0,-0.1 C0,6.4 4.9,13.4 18.7,13.4 C32.5,13.4 37.3,6.4 37.3,-0.1 C37.3,-6.6 32.5,-13.6 18.7,-13.6 M10.4,-4.5 C10.3,-4.9 10.3,-5.3 10.3,-5.7 C10.3,-6.5 10.5,-7.3 10.9,-8 C11.6,-9 12.8,-9.7 14.3,-10 C15.6,-10.3 16.3,-10.5 18.9,-10.5 L19,-10.5 C23,-10.5 24.3,-6.8 25.4,-3 L25.7,-2 C26.5,0.6 26.9,2.8 26.9,4.5 C26.9,5.7 26.7,6.8 26.3,7.6 C25.7,8.7 24.7,9.4 23,9.8 C22.1,10 20.6,10.1 20.6,10.1 C20.1,10.1 19.7,10.2 19.3,10.2 C16.1,10.2 14.1,9 12.7,4.7 C11.5,1 11.3,-0.1 10.4,-4.5"/>
<path class="Note" transform="matrix(2.3811,0,0,2.3811,2847.47,1629.92)" d="M18.7,-13.6 C4.9,-13.6 0,-6.6 0,-0.1 C0,6.4 4.9,13.4 18.7,13.4 C32.5,13.4 37.3,6.4 37.3,-0.1 C37.3,-6.6 32.5,-13.6 18.7,-13.6 M10.4,-4.5 C10.3,-4.9 10.3,-5.3 10.3,-5.7 C10.3,-6.5 10.5,-7.3 10.9,-8 C11.6,-9 12.8,-9.7 14.3,-10 C15.6,-10.3 16.3,-10.5 18.9,-10.5 L19,-10.5 C23,-10.5 24.3,-6.8 25.4,-3 L25.7,-2 C26.5,0.6 26.9,2.8 26.9,4.5 C26.9,5.7 26.7,6.8 26.3,7.6 C25.7,8.7 24.7,9.4 23,9.8 C22.1,10 20.6,10.1 20.6,10.1 C20.1,10.1 19.7,10.2 19.3,10.2 C16.1,10.2 14.1,9 12.7,4.7 C11.5,1 11.3,-0.1 10.4,-4.5"/>
<path class="Note" transform="matrix(2.3811,0,0,2.3811,2847.47,1510.87)" d="M18.7,-13.6 C4.9,-13.6 0,-6.6 0,-0.1 C0,6.4 4.9,13.4 18.7,13.4 C32.5,13.4 37.3,6.4 37.3,-0.1 C37.3,-6.6 32.5,-13.6 18.7,-13.6 M10.4,-4.5 C10.3,-4.9 10.3,-5.3 10.3,-5.7 C10.3,-6.5 10.5,-7.3 10.9,-8 C11.6,-9 12.8,-9.7 14.3,-10 C15.6,-10.3 16.3,-10.5 18.9,-10.5 L19,-10.5 C23,-10.5 24.3,-6.8 25.4,-3 L25.7,-2 C26.5,0.6 26.9,2.8 26.9,4.5 C26.9,5.7 26.7,6.8 26.3,7.6 C25.7,8.7 24.7,9.4 23,9.8 C22.1,10 20.6,10.1 20.6,10.1 C20.1,10.1 19.7,10.2 19.3,10.2 C16.1,10.2 14.1,9 12.7,4.7 C11.5,1 11.3,-0.1 10.4,-4.5"/>
<path class="Note" transform="matrix(2.3811,0,0,2.3811,3286.53,1659.69)" d="M18.7,-13.6 C4.9,-13.6 0,-6.6 0,-0.1 C0,6.4 4.9,13.4 18.7,13.4 C32.5,13.4 37.3,6.4 37.3,-0.1 C37.3,-6.6 32.5,-13.6 18.7,-13.6 M10.4,-4.5 C10.3,-4.9 10.3,-5.3 10.3,-5.7 C10.3,-6.5 10.5,-7.3 10.9,-8 C11.6,-9 12.8,-9.7 14.3,-10 C15.6,-10.3 16.3,-10.5 18.9,-10.5 L19,-10.5 C23,-10.5 24.3,-6.8 25.4,-3 L25.7,-2 C26.5,0.6 26.9,2.8 26.9,4.5 C26.9,5.7 26.7,6.8 26.3,7.6 C25.7,8.7 24.7,9.4 23,9.8 C22.1,10 20.6,10.1 20.6,10.1 C20.1,10.1 19.7,10.2 19.3,10.2 C16.1,10.2 14.1,9 12.7,4.7 C11.5,1 11.3,-0.1 10.4,-4.5"/>
<path class="Note" transform="matrix(2.3811,0,0,2.3811,3286.53,1540.63)" d="M18.7,-13.6 C4.9,-13.6 0,-6.6 0,-0.1 C0,6.4 4.9,13.4 18.7,13.4 C32.5,13.4 37.3,6.4 37.3,-0.1 C37.3,-6.6 32.5,-13.6 18.7,-13.6 M10.4,-4.5 C10.3,-4.9 10.3,-5.3 10.3,-5.7 C10.3,-6.5 10.5,-7.3 10.9,-8 C11.6,-9 12.8,-9.7 14.3,-10 C15.6,-10.3 16.3,-10.5 18.9,-10.5 L19,-10.5 C23,-10.5 24.3,-6.8 25.4,-3 L25.7,-2 C26.5,0.6 26.9,2.8 26.9,4.5 C26.9,5.7 26.7,6.8 26.3,7.6 C25.7,8.7 24.7,9.4 23,9.8 C22.1,10 20.6,10.1 20.6,10.1 C20.1,10.1 19.7,10.2 19.3,10.2 C16.1,10.2 14.1,9 12.7,4.7 C11.5,1 11.3,-0.1 10.4,-4.5"/>
<path class="Note" transform="matrix(2.3811,0,0,2.3811,3749.43,1629.92)" d="M18.7,-13.6 C4.9,-13.6 0,-6.6 0,-0.1 C0,6.4 4.9,13.4 18.7,13.4 C32.5,13.4 37.3,6.4 37.3,-0.1 C37.3,-6.6 32.5,-13.6 18.7,-13.6 M10.4,-4.5 C10.3,-4.9 10.3,-5.3 10.3,-5.7 C10.3,-6.5 10.5,-7.3 10.9,-8 C11.6,-9 12.8,-9.7 14.3,-10 C15.6,-10.3 16.3,-10.5 18.9,-10.5 L19,-10.5 C23,-10.5 24.3,-6.8 25.4,-3 L25.7,-2 C26.5,0.6 26.9,2.8 26.9,4.5 C26.9,5.7 26.7,6.8 26.3,7.6 C25.7,8.7 24.7,9.4 23,9.8 C22.1,10 20.6,10.1 20.6,10.1 C20.1,10.1 19.7,10.2 19.3,10.2 C16.1,10.2 14.1,9 12.7,4.7 C11.5,1 11.3,-0.1 10.4,-4.5"/>
<path class="Note" transform="matrix(2.3811,0,0,2.3811,3749.43,1570.39)" d="M18.7,-13.6 C4.9,-13.6 0,-6.6 0,-0.1 C0,6.4 4.9,13.4 18.7,13.4 C32.5,13.4 37.3,6.4 37.3,-0.1 C37.3,-6.6 32.5,-13.6 18.7,-13.6 M10.4,-4.5 C10.3,-4.9 10.3,-5.3 10.3,-5.7 C10.3,-6.5 10.5,-7.3 10.9,-8 C11.6,-9 12.8,-9.7 14.3,-10 C15.6,-10.3 16.3,-10.5 18.9,-10.5 L19,-10.5 C23,-10.5 24.3,-6.8 25.4,-3 L25.7,-2 C26.5,0.6 26.9,2.8 26.9,4.5 C26.9,5.7 26.7,6.8 26.3,7.6 C25.7,8.7 24.7,9.4 23,9.8 C22.1,10 20.6,10.1 20.6,10.1 C20.1,10.1 19.7,10.2 19.3,10.2 C16.1,10.2 14.1,9 12.7,4.7 C11.5,1 11.3,-0.1 10.4,-4.5"/>
<path class="Note" transform="matrix(2.3811,0,0,2.3811,3749.43,1510.87)" d="M18.7,-13.6 C4.9,-13.6 0,-6.6 0,-0.1 C0,6.4 4.9,13.4 18.7,13.4 C32.5,13.4 37.3,6.4 37.3,-0.1 C37.3,-6.6 32.5,-13.6 18.7,-13.6 M10.4,-4.5 C10.3,-4.9 10.3,-5.3 10.3,-5.7 C10.3,-6.5 10.5,-7.3 10.9,-8 C11.6,-9 12.8,-9.7 14.3,-10 C15.6,-10.3 16.3,-10.5 18.9,-10.5 L19,-10.5 C23,-10.5 24.3,-6.8 25.4,-3 L25.7,-2 C26.5,0.6 26.9,2.8 26.9,4.5 C26.9,5.7 26.7,6.8 26.3,7.6 C25.7,8.7 24.7,9.4 23,9.8 C22.1,10 20.6,10.1 20.6,10.1 C20.1,10.1 19.7,10.2 19.3,10.2 C16.1,10.2 14.1,9 12.7,4.7 C11.5,1 11.3,-0.1 10.4,-4.5"/>
<path class="Note" d="M582.381,1098.35 C581.994,1099.05 581.413,1099.4 580.638,1099.4 C579.941,1099.4 579.05,1099.09 577.965,1098.47 C576.338,1097.54 575.525,1096.61 575.525,1095.68 C575.525,1095.37 575.641,1094.98 575.874,1094.52 C593.615,1068.95 604.694,1047.41 609.11,1029.91 C609.42,1029.36 609.962,1029.09 610.737,1029.09 C611.744,1029.09 613.177,1029.63 615.037,1030.72 C617.593,1032.19 618.872,1033.51 618.872,1034.67 C618.872,1034.98 618.794,1035.25 618.639,1035.48 C612.751,1052.22 600.665,1073.17 582.381,1098.35 M603.299,1105.33 C602.912,1106.02 602.331,1106.37 601.556,1106.37 C600.859,1106.37 599.968,1106.06 598.883,1105.44 C597.256,1104.51 596.443,1103.58 596.443,1102.65 C596.443,1102.34 596.559,1101.96 596.792,1101.49 C614.533,1075.92 625.612,1054.39 630.028,1036.88 C630.338,1036.34 630.88,1036.06 631.655,1036.06 C632.662,1036.06 634.095,1036.61 635.955,1037.69 C638.511,1039.16 639.79,1040.48 639.79,1041.64 C639.79,1041.95 639.712,1042.22 639.557,1042.46 C633.669,1059.19 621.583,1080.15 603.299,1105.33 M686.852,1059.89 C691.423,1059.89 693.709,1062.75 693.709,1068.49 C693.709,1072.52 691.191,1078.52 686.155,1086.5 C682.126,1092.93 680.112,1099.21 680.112,1105.33 C680.112,1108.81 685.186,1110.56 695.336,1110.56 C703.703,1110.56 715.363,1106.02 730.315,1096.96 C715.285,1111.45 702.231,1118.69 691.152,1118.69 C681.158,1118.69 674.185,1117.18 670.234,1114.16 C669.227,1113.38 668.375,1112.45 667.677,1111.37 C663.804,1116.09 657.335,1118.46 648.27,1118.46 C639.593,1118.46 632.93,1116.68 628.282,1113.11 C625.183,1110.71 623.633,1106.88 623.633,1101.61 C623.633,1093.24 628.592,1084.1 638.508,1074.18 C649.122,1063.57 661.402,1058.26 675.347,1058.26 C678.834,1058.26 681.39,1059.54 683.017,1062.1 C684.334,1060.62 685.613,1059.89 686.852,1059.89 M666.05,1106.14 C665.973,1105.52 665.934,1104.9 665.934,1104.28 C665.934,1103.97 669.885,1093.16 677.788,1071.86 C678.562,1069.77 679.337,1067.98 680.112,1066.51 C677.09,1065.89 674.108,1065.58 671.164,1065.58 C665.741,1065.58 658.535,1070.19 649.548,1079.41 C641.491,1087.62 637.463,1094.71 637.463,1100.68 C637.463,1107.26 640.6,1110.56 646.876,1110.56 C654.468,1110.56 660.86,1109.08 666.05,1106.14"/>
<path class="Note" d="M665.18,583.965 C669.751,583.965 672.037,586.831 672.037,592.564 C672.037,596.593 669.519,602.597 664.483,610.577 C660.454,617.007 658.44,623.283 658.44,629.403 C658.44,632.889 663.514,634.633 673.664,634.633 C682.031,634.633 693.691,630.1 708.643,621.036 C693.613,635.524 680.559,642.767 669.48,642.767 C659.486,642.767 652.513,641.257 648.562,638.235 C647.555,637.46 646.703,636.531 646.005,635.446 C642.132,640.172 635.663,642.535 626.598,642.535 C617.921,642.535 611.258,640.753 606.61,637.189 C603.511,634.788 601.961,630.953 601.961,625.684 C601.961,617.317 606.92,608.175 616.836,598.259 C627.45,587.645 639.73,582.338 653.675,582.338 C657.162,582.338 659.718,583.616 661.345,586.173 C662.662,584.701 663.941,583.965 665.18,583.965 M644.378,630.217 C644.301,629.597 644.262,628.977 644.262,628.357 C644.262,628.047 648.213,617.24 656.116,595.934 C656.89,593.843 657.665,592.061 658.44,590.589 C655.418,589.969 652.436,589.659 649.492,589.659 C644.069,589.659 636.863,594.269 627.876,603.488 C619.819,611.7 615.791,618.789 615.791,624.755 C615.791,631.34 618.928,634.633 625.204,634.633 C632.796,634.633 639.188,633.161 644.378,630.217"/>
<path class="Note" d="M672.269,759.642 C682.728,753.057 690.32,747.672 695.046,743.489 C703.723,735.819 708.062,728.071 708.062,720.247 C708.062,711.105 701.942,706.534 689.701,706.534 C676.84,706.534 663.437,715.792 649.492,734.308 C640.04,746.859 633.338,758.712 629.387,769.869 C634.268,766.692 639.42,765.104 644.843,765.104 C649.957,765.104 654.024,767.389 657.045,771.96 C659.137,775.137 660.183,780.56 660.183,788.23 C660.183,795.125 656.542,803.221 649.259,812.518 C644.766,818.251 639.769,821.118 634.268,821.118 C627.295,821.118 622.415,819.723 619.625,816.934 C615.674,812.983 613.699,805.158 613.699,793.459 C613.699,773.781 621.64,754.413 637.522,735.354 C655.418,713.894 672.579,703.164 689.003,703.164 C701.709,703.164 711.2,706.146 717.475,712.112 C721.116,715.598 722.937,720.634 722.937,727.219 C722.937,734.579 715.693,742.791 701.206,751.856 C693.613,756.659 683.968,759.255 672.269,759.642 M627.876,774.749 C625.94,781.257 624.971,787.494 624.971,793.459 C624.971,807.637 627.218,814.726 631.711,814.726 C635.972,814.726 639.304,811.705 641.706,805.662 C644.495,798.844 645.889,791.29 645.889,783 C645.889,775.64 643.449,771.96 638.568,771.96 C635.159,771.96 631.595,772.89 627.876,774.749"/>
<path class="Note" d="M665.18,673.256 C669.751,673.256 672.037,676.123 672.037,681.856 C672.037,685.884 669.519,691.888 664.483,699.868 C660.454,706.299 658.44,712.574 658.44,718.694 C658.44,722.181 663.514,723.924 673.664,723.924 C682.031,723.924 693.691,719.392 708.643,710.327 C693.613,724.815 680.559,732.059 669.48,732.059 C659.486,732.059 652.513,730.548 648.562,727.527 C647.555,726.752 646.703,725.822 646.005,724.737 C642.132,729.463 635.663,731.826 626.598,731.826 C617.921,731.826 611.258,730.044 606.61,726.481 C603.511,724.079 601.961,720.244 601.961,714.976 C601.961,706.609 606.92,697.467 616.836,687.55 C627.45,676.936 639.73,671.629 653.675,671.629 C657.162,671.629 659.718,672.907 661.345,675.464 C662.662,673.992 663.941,673.256 665.18,673.256 M644.378,719.508 C644.301,718.888 644.262,718.268 644.262,717.649 C644.262,717.339 648.213,706.531 656.116,685.226 C656.89,683.134 657.665,681.352 658.44,679.88 C655.418,679.26 652.436,678.95 649.492,678.95 C644.069,678.95 636.863,683.56 627.876,692.779 C619.819,700.992 615.791,708.081 615.791,714.046 C615.791,720.631 618.928,723.924 625.204,723.924 C632.796,723.924 639.188,722.452 644.378,719.508"/>
<path class="Note" d="M1068.29,1105.33 C1067.9,1106.02 1067.32,1106.37 1066.54,1106.37 C1065.85,1106.37 1064.95,1106.06 1063.87,1105.44 C1062.24,1104.51 1061.43,1103.58 1061.43,1102.65 C1061.43,1102.34 1061.55,1101.96 1061.78,1101.49 C1079.52,1075.92 1090.6,1054.39 1095.01,1036.88 C1095.32,1036.34 1095.87,1036.06 1096.64,1036.06 C1097.65,1036.06 1099.08,1036.61 1100.94,1037.69 C1103.5,1039.16 1104.78,1040.48 1104.78,1041.64 C1104.78,1041.95 1104.7,1042.22 1104.54,1042.46 C1098.66,1059.19 1086.57,1080.15 1068.29,1105.33 M1158.92,1056.98 C1169.38,1050.4 1176.98,1045.01 1181.7,1040.83 C1190.38,1033.16 1194.72,1025.41 1194.72,1017.59 C1194.72,1008.44 1188.6,1003.87 1176.36,1003.87 C1163.49,1003.87 1150.09,1013.13 1136.15,1031.65 C1126.69,1044.2 1119.99,1056.05 1116.04,1067.21 C1120.92,1064.03 1126.07,1062.44 1131.5,1062.44 C1136.61,1062.44 1140.68,1064.73 1143.7,1069.3 C1145.79,1072.48 1146.84,1077.9 1146.84,1085.57 C1146.84,1092.47 1143.2,1100.56 1135.91,1109.86 C1131.42,1115.59 1126.42,1118.46 1120.92,1118.46 C1113.95,1118.46 1109.07,1117.06 1106.28,1114.27 C1102.33,1110.32 1100.35,1102.5 1100.35,1090.8 C1100.35,1071.12 1108.29,1051.75 1124.18,1032.69 C1142.07,1011.23 1159.23,1000.5 1175.66,1000.5 C1188.36,1000.5 1197.85,1003.49 1204.13,1009.45 C1207.77,1012.94 1209.59,1017.97 1209.59,1024.56 C1209.59,1031.92 1202.35,1040.13 1187.86,1049.2 C1180.27,1054 1170.62,1056.59 1158.92,1056.98 M1114.53,1072.09 C1112.59,1078.6 1111.63,1084.83 1111.63,1090.8 C1111.63,1104.98 1113.87,1112.07 1118.37,1112.07 C1122.63,1112.07 1125.96,1109.04 1128.36,1103 C1131.15,1096.18 1132.54,1088.63 1132.54,1080.34 C1132.54,1072.98 1130.1,1069.3 1125.22,1069.3 C1121.81,1069.3 1118.25,1070.23 1114.53,1072.09"/>
<path class="Note" d="M1140.63,851.839 C1145.2,851.839 1147.49,854.705 1147.49,860.438 C1147.49,864.467 1144.97,870.471 1139.93,878.451 C1135.9,884.881 1133.89,891.157 1133.89,897.277 C1133.89,900.763 1138.96,902.507 1149.11,902.507 C1157.48,902.507 1169.14,897.974 1184.09,888.91 C1169.06,903.398 1156.01,910.641 1144.93,910.641 C1134.94,910.641 1127.96,909.131 1124.01,906.109 C1123.01,905.334 1122.15,904.405 1121.46,903.32 C1117.58,908.046 1111.11,910.409 1102.05,910.409 C1093.37,910.409 1086.71,908.627 1082.06,905.063 C1078.96,902.662 1077.41,898.827 1077.41,893.558 C1077.41,885.191 1082.37,876.049 1092.29,866.133 C1102.9,855.519 1115.18,850.212 1129.13,850.212 C1132.61,850.212 1135.17,851.49 1136.8,854.047 C1138.11,852.575 1139.39,851.839 1140.63,851.839 M1119.83,898.091 C1119.75,897.471 1119.71,896.851 1119.71,896.231 C1119.71,895.921 1123.66,885.114 1131.57,863.808 C1132.34,861.717 1133.12,859.935 1133.89,858.463 C1130.87,857.843 1127.89,857.533 1124.94,857.533 C1119.52,857.533 1112.31,862.143 1103.33,871.362 C1095.27,879.574 1091.24,886.663 1091.24,892.629 C1091.24,899.214 1094.38,902.507 1100.65,902.507 C1108.25,902.507 1114.64,901.035 1119.83,898.091"/>
<path class="Note" d="M1096.35,821.118 C1092.56,821.118 1090.66,817.05 1090.66,808.916 L1090.66,774.866 C1090.66,771.612 1092.25,769.985 1095.42,769.985 C1096.82,769.985 1097.86,770.101 1098.56,770.333 C1101.04,765.995 1105.11,762.354 1110.76,759.41 C1118.67,755.304 1126.69,753.25 1134.82,753.25 C1141.25,753.25 1144.47,755.652 1144.47,760.456 C1144.47,764.484 1142.3,766.499 1137.96,766.499 C1134.86,766.499 1131.91,765.801 1129.13,764.407 C1126.65,763.167 1124.01,762.547 1121.22,762.547 C1116.42,762.547 1109.33,765.685 1099.96,771.96 C1101.27,778.236 1101.93,785.557 1101.93,793.924 C1101.93,812.053 1100.07,821.118 1096.35,821.118"/>
<path class="Note" d="M1610.62,1056.98 C1621.08,1050.4 1628.68,1045.01 1633.4,1040.83 C1642.08,1033.16 1646.42,1025.41 1646.42,1017.59 C1646.42,1008.44 1640.3,1003.87 1628.06,1003.87 C1615.2,1003.87 1601.79,1013.13 1587.85,1031.65 C1578.39,1044.2 1571.69,1056.05 1567.74,1067.21 C1572.62,1064.03 1577.78,1062.44 1583.2,1062.44 C1588.31,1062.44 1592.38,1064.73 1595.4,1069.3 C1597.49,1072.48 1598.54,1077.9 1598.54,1085.57 C1598.54,1092.47 1594.9,1100.56 1587.61,1109.86 C1583.12,1115.59 1578.12,1118.46 1572.62,1118.46 C1565.65,1118.46 1560.77,1117.06 1557.98,1114.27 C1554.03,1110.32 1552.05,1102.5 1552.05,1090.8 C1552.05,1071.12 1559.99,1051.75 1575.88,1032.69 C1593.77,1011.23 1610.93,1000.5 1627.36,1000.5 C1640.06,1000.5 1649.55,1003.49 1655.83,1009.45 C1659.47,1012.94 1661.29,1017.97 1661.29,1024.56 C1661.29,1031.92 1654.05,1040.13 1639.56,1049.2 C1631.97,1054 1622.32,1056.59 1610.62,1056.98 M1566.23,1072.09 C1564.29,1078.6 1563.33,1084.83 1563.33,1090.8 C1563.33,1104.98 1565.57,1112.07 1570.07,1112.07 C1574.33,1112.07 1577.66,1109.04 1580.06,1103 C1582.85,1096.18 1584.24,1088.63 1584.24,1080.34 C1584.24,1072.98 1581.8,1069.3 1576.92,1069.3 C1573.51,1069.3 1569.95,1070.23 1566.23,1072.09"/>
<path class="Note" d="M1603.54,583.965 C1608.11,583.965 1610.39,586.831 1610.39,592.564 C1610.39,596.593 1607.87,602.597 1602.84,610.577 C1598.81,617.007 1596.79,623.283 1596.79,629.403 C1596.79,632.889 1601.87,634.633 1612.02,634.633 C1620.39,634.633 1632.05,630.1 1647,621.036 C1631.97,635.524 1618.91,642.767 1607.84,642.767 C1597.84,642.767 1590.87,641.257 1586.92,638.235 C1585.91,637.46 1585.06,636.531 1584.36,635.446 C1580.49,640.172 1574.02,642.535 1564.95,642.535 C1556.28,642.535 1549.61,640.753 1544.96,637.189 C1541.87,634.788 1540.32,630.953 1540.32,625.684 C1540.32,617.317 1545.27,608.175 1555.19,598.259 C1565.81,587.645 1578.09,582.338 1592.03,582.338 C1595.52,582.338 1598.07,583.616 1599.7,586.173 C1601.02,584.701 1602.3,583.965 1603.54,583.965 M1582.73,630.217 C1582.66,629.597 1582.62,628.977 1582.62,628.357 C1582.62,628.047 1586.57,617.24 1594.47,595.934 C1595.25,593.843 1596.02,592.061 1596.79,590.589 C1593.77,589.969 1590.79,589.659 1587.85,589.659 C1582.42,589.659 1575.22,594.269 1566.23,603.488 C1558.17,611.7 1554.15,618.789 1554.15,624.755 C1554.15,631.34 1557.28,634.633 1563.56,634.633 C1571.15,634.633 1577.54,633.161 1582.73,630.217"/>
<path class="Note" d="M1603.54,673.256 C1608.11,673.256 1610.39,676.123 1610.39,681.856 C1610.39,685.884 1607.87,691.888 1602.84,699.868 C1598.81,706.299 1596.79,712.574 1596.79,718.694 C1596.79,722.181 1601.87,723.924 1612.02,723.924 C1620.39,723.924 1632.05,719.392 1647,710.327 C1631.97,724.815 1618.91,732.059 1607.84,732.059 C1597.84,732.059 1590.87,730.548 1586.92,727.527 C1585.91,726.752 1585.06,725.822 1584.36,724.737 C1580.49,729.463 1574.02,731.826 1564.95,731.826 C1556.28,731.826 1549.61,730.044 1544.96,726.481 C1541.87,724.079 1540.32,720.244 1540.32,714.976 C1540.32,706.609 1545.27,697.467 1555.19,687.55 C1565.81,676.936 1578.09,671.629 1592.03,671.629 C1595.52,671.629 1598.07,672.907 1599.7,675.464 C1601.02,673.992 1602.3,673.256 1603.54,673.256 M1582.73,719.508 C1582.66,718.888 1582.62,718.268 1582.62,717.649 C1582.62,717.339 1586.57,706.531 1594.47,685.226 C1595.25,683.134 1596.02,681.352 1596.79,679.88 C1593.77,679.26 1590.79,678.95 1587.85,678.95 C1582.42,678.95 1575.22,683.56 1566.23,692.779 C1558.17,700.992 1554.15,708.081 1554.15,714.046 C1554.15,720.631 1557.28,723.924 1563.56,723.924 C1571.15,723.924 1577.54,722.452 1582.73,719.508"/>
<path class="Note" d="M2016.88,941.13 C2021.45,941.13 2023.73,943.997 2023.73,949.73 C2023.73,953.758 2021.22,959.763 2016.18,967.742 C2012.15,974.173 2010.14,980.448 2010.14,986.568 C2010.14,990.055 2015.21,991.798 2025.36,991.798 C2033.73,991.798 2045.39,987.266 2060.34,978.201 C2045.31,992.689 2032.26,999.933 2021.18,999.933 C2011.18,999.933 2004.21,998.422 2000.26,995.401 C1999.25,994.626 1998.4,993.696 1997.7,992.611 C1993.83,997.337 1987.36,999.7 1978.3,999.7 C1969.62,999.7 1962.96,997.918 1958.31,994.355 C1955.21,991.953 1953.66,988.118 1953.66,982.85 C1953.66,974.483 1958.62,965.341 1968.53,955.424 C1979.15,944.81 1991.43,939.503 2005.37,939.503 C2008.86,939.503 2011.42,940.781 2013.04,943.338 C2014.36,941.866 2015.64,941.13 2016.88,941.13 M1996.08,987.382 C1996,986.762 1995.96,986.142 1995.96,985.523 C1995.96,985.213 1999.91,974.405 2007.81,953.1 C2008.59,951.008 2009.36,949.226 2010.14,947.754 C2007.12,947.134 2004.13,946.824 2001.19,946.824 C1995.77,946.824 1988.56,951.434 1979.57,960.653 C1971.52,968.866 1967.49,975.955 1967.49,981.92 C1967.49,988.505 1970.63,991.798 1976.9,991.798 C1984.49,991.798 1990.89,990.326 1996.08,987.382"/>
<path class="Note" d="M2016.88,583.965 C2021.45,583.965 2023.73,586.831 2023.73,592.564 C2023.73,596.593 2021.22,602.597 2016.18,610.577 C2012.15,617.007 2010.14,623.283 2010.14,629.403 C2010.14,632.889 2015.21,634.633 2025.36,634.633 C2033.73,634.633 2045.39,630.1 2060.34,621.036 C2045.31,635.524 2032.26,642.767 2021.18,642.767 C2011.18,642.767 2004.21,641.257 2000.26,638.235 C1999.25,637.46 1998.4,636.531 1997.7,635.446 C1993.83,640.172 1987.36,642.535 1978.3,642.535 C1969.62,642.535 1962.96,640.753 1958.31,637.189 C1955.21,634.788 1953.66,630.953 1953.66,625.684 C1953.66,617.317 1958.62,608.175 1968.53,598.259 C1979.15,587.645 1991.43,582.338 2005.37,582.338 C2008.86,582.338 2011.42,583.616 2013.04,586.173 C2014.36,584.701 2015.64,583.965 2016.88,583.965 M1996.08,630.217 C1996,629.597 1995.96,628.977 1995.96,628.357 C1995.96,628.047 1999.91,617.24 2007.81,595.934 C2008.59,593.843 2009.36,592.061 2010.14,590.589 C2007.12,589.969 2004.13,589.659 2001.19,589.659 C1995.77,589.659 1988.56,594.269 1979.57,603.488 C1971.52,611.7 1967.49,618.789 1967.49,624.755 C1967.49,631.34 1970.63,634.633 1976.9,634.633 C1984.49,634.633 1990.89,633.161 1996.08,630.217"/>
<path class="Note" d="M2016.88,494.673 C2021.45,494.673 2023.73,497.54 2023.73,503.273 C2023.73,507.302 2021.22,513.306 2016.18,521.286 C2012.15,527.716 2010.14,533.991 2010.14,540.112 C2010.14,543.598 2015.21,545.341 2025.36,545.341 C2033.73,545.341 2045.39,540.809 2060.34,531.745 C2045.31,546.232 2032.26,553.476 2021.18,553.476 C2011.18,553.476 2004.21,551.965 2000.26,548.944 C1999.25,548.169 1998.4,547.239 1997.7,546.155 C1993.83,550.881 1987.36,553.244 1978.3,553.244 C1969.62,553.244 1962.96,551.462 1958.31,547.898 C1955.21,545.496 1953.66,541.661 1953.66,536.393 C1953.66,528.026 1958.62,518.884 1968.53,508.967 C1979.15,498.353 1991.43,493.046 2005.37,493.046 C2008.86,493.046 2011.42,494.325 2013.04,496.881 C2014.36,495.409 2015.64,494.673 2016.88,494.673 M1996.08,540.925 C1996,540.305 1995.96,539.686 1995.96,539.066 C1995.96,538.756 1999.91,527.948 2007.81,506.643 C2008.59,504.551 2009.36,502.769 2010.14,501.297 C2007.12,500.678 2004.13,500.368 2001.19,500.368 C1995.77,500.368 1988.56,504.977 1979.57,514.197 C1971.52,522.409 1967.49,529.498 1967.49,535.463 C1967.49,542.049 1970.63,545.341 1976.9,545.341 C1984.49,545.341 1990.89,543.869 1996.08,540.925"/>
<path class="Note" d="M1972.6,821.118 C1968.81,821.118 1966.91,817.05 1966.91,808.916 L1966.91,774.866 C1966.91,771.612 1968.5,769.985 1971.67,769.985 C1973.07,769.985 1974.11,770.101 1974.81,770.333 C1977.29,765.995 1981.36,762.354 1987.01,759.41 C1994.91,755.304 2002.93,753.25 2011.07,753.25 C2017.5,753.25 2020.71,755.652 2020.71,760.456 C2020.71,764.484 2018.54,766.499 2014.2,766.499 C2011.11,766.499 2008.16,765.801 2005.37,764.407 C2002.89,763.167 2000.26,762.547 1997.47,762.547 C1992.67,762.547 1985.58,765.685 1976.2,771.96 C1977.52,778.236 1978.18,785.557 1978.18,793.924 C1978.18,812.053 1976.32,821.118 1972.6,821.118"/>
<path class="Note" d="M2023.97,670.351 C2034.43,663.765 2042.02,658.381 2046.74,654.197 C2055.42,646.527 2059.76,638.78 2059.76,630.955 C2059.76,621.813 2053.64,617.242 2041.4,617.242 C2028.54,617.242 2015.13,626.5 2001.19,645.017 C1991.74,657.568 1985.04,669.421 1981.08,680.577 C1985.97,677.401 1991.12,675.813 1996.54,675.813 C2001.65,675.813 2005.72,678.098 2008.74,682.669 C2010.83,685.846 2011.88,691.269 2011.88,698.939 C2011.88,705.834 2008.24,713.93 2000.96,723.227 C1996.46,728.96 1991.47,731.826 1985.97,731.826 C1978.99,731.826 1974.11,730.432 1971.32,727.643 C1967.37,723.692 1965.4,715.867 1965.4,704.168 C1965.4,684.49 1973.34,665.121 1989.22,646.063 C2007.12,624.602 2024.28,613.872 2040.7,613.872 C2053.41,613.872 2062.9,616.855 2069.17,622.82 C2072.81,626.307 2074.63,631.343 2074.63,637.928 C2074.63,645.288 2067.39,653.5 2052.9,662.565 C2045.31,667.368 2035.67,669.963 2023.97,670.351 M1979.57,685.458 C1977.64,691.966 1976.67,698.203 1976.67,704.168 C1976.67,718.346 1978.92,725.435 1983.41,725.435 C1987.67,725.435 1991,722.413 1993.4,716.37 C1996.19,709.553 1997.59,701.999 1997.59,693.709 C1997.59,686.349 1995.15,682.669 1990.27,682.669 C1986.86,682.669 1983.29,683.599 1979.57,685.458"/>
<path class="Note" d="M2462.96,941.13 C2467.53,941.13 2469.82,943.997 2469.82,949.73 C2469.82,953.758 2467.3,959.763 2462.26,967.742 C2458.23,974.173 2456.22,980.448 2456.22,986.568 C2456.22,990.055 2461.29,991.798 2471.44,991.798 C2479.81,991.798 2491.47,987.266 2506.42,978.201 C2491.39,992.689 2478.34,999.933 2467.26,999.933 C2457.27,999.933 2450.29,998.422 2446.34,995.401 C2445.34,994.626 2444.48,993.696 2443.79,992.611 C2439.91,997.337 2433.44,999.7 2424.38,999.7 C2415.7,999.7 2409.04,997.918 2404.39,994.355 C2401.29,991.953 2399.74,988.118 2399.74,982.85 C2399.74,974.483 2404.7,965.341 2414.62,955.424 C2425.23,944.81 2437.51,939.503 2451.46,939.503 C2454.94,939.503 2457.5,940.781 2459.13,943.338 C2460.44,941.866 2461.72,941.13 2462.96,941.13 M2442.16,987.382 C2442.08,986.762 2442.04,986.142 2442.04,985.523 C2442.04,985.213 2445.99,974.405 2453.9,953.1 C2454.67,951.008 2455.45,949.226 2456.22,947.754 C2453.2,947.134 2450.22,946.824 2447.27,946.824 C2441.85,946.824 2434.64,951.434 2425.66,960.653 C2417.6,968.866 2413.57,975.955 2413.57,981.92 C2413.57,988.505 2416.71,991.798 2422.98,991.798 C2430.58,991.798 2436.97,990.326 2442.16,987.382"/>
<path class="Note" d="M2462.96,583.965 C2467.53,583.965 2469.82,586.831 2469.82,592.564 C2469.82,596.593 2467.3,602.597 2462.26,610.577 C2458.23,617.007 2456.22,623.283 2456.22,629.403 C2456.22,632.889 2461.29,634.633 2471.44,634.633 C2479.81,634.633 2491.47,630.1 2506.42,621.036 C2491.39,635.524 2478.34,642.767 2467.26,642.767 C2457.27,642.767 2450.29,641.257 2446.34,638.235 C2445.34,637.46 2444.48,636.531 2443.79,635.446 C2439.91,640.172 2433.44,642.535 2424.38,642.535 C2415.7,642.535 2409.04,640.753 2404.39,637.189 C2401.29,634.788 2399.74,630.953 2399.74,625.684 C2399.74,617.317 2404.7,608.175 2414.62,598.259 C2425.23,587.645 2437.51,582.338 2451.46,582.338 C2454.94,582.338 2457.5,583.616 2459.13,586.173 C2460.44,584.701 2461.72,583.965 2462.96,583.965 M2442.16,630.217 C2442.08,629.597 2442.04,628.977 2442.04,628.357 C2442.04,628.047 2445.99,617.24 2453.9,595.934 C2454.67,593.843 2455.45,592.061 2456.22,590.589 C2453.2,589.969 2450.22,589.659 2447.27,589.659 C2441.85,589.659 2434.64,594.269 2425.66,603.488 C2417.6,611.7 2413.57,618.789 2413.57,624.755 C2413.57,631.34 2416.71,634.633 2422.98,634.633 C2430.58,634.633 2436.97,633.161 2442.16,630.217"/>
<path class="Note" d="M2462.96,494.673 C2467.53,494.673 2469.82,497.54 2469.82,503.273 C2469.82,507.302 2467.3,513.306 2462.26,521.286 C2458.23,527.716 2456.22,533.991 2456.22,540.112 C2456.22,543.598 2461.29,545.341 2471.44,545.341 C2479.81,545.341 2491.47,540.809 2506.42,531.745 C2491.39,546.232 2478.34,553.476 2467.26,553.476 C2457.27,553.476 2450.29,551.965 2446.34,548.944 C2445.34,548.169 2444.48,547.239 2443.79,546.155 C2439.91,550.881 2433.44,553.244 2424.38,553.244 C2415.7,553.244 2409.04,551.462 2404.39,547.898 C2401.29,545.496 2399.74,541.661 2399.74,536.393 C2399.74,528.026 2404.7,518.884 2414.62,508.967 C2425.23,498.353 2437.51,493.046 2451.46,493.046 C2454.94,493.046 2457.5,494.325 2459.13,496.881 C2460.44,495.409 2461.72,494.673 2462.96,494.673 M2442.16,540.925 C2442.08,540.305 2442.04,539.686 2442.04,539.066 C2442.04,538.756 2445.99,527.948 2453.9,506.643 C2454.67,504.551 2455.45,502.769 2456.22,501.297 C2453.2,500.678 2450.22,500.368 2447.27,500.368 C2441.85,500.368 2434.64,504.977 2425.66,514.197 C2417.6,522.409 2413.57,529.498 2413.57,535.463 C2413.57,542.049 2416.71,545.341 2422.98,545.341 C2430.58,545.341 2436.97,543.869 2442.16,540.925"/>
<path class="Note" d="M2470.05,670.351 C2480.51,663.765 2488.1,658.381 2492.83,654.197 C2501.5,646.527 2505.84,638.78 2505.84,630.955 C2505.84,621.813 2499.72,617.242 2487.48,617.242 C2474.62,617.242 2461.22,626.5 2447.27,645.017 C2437.82,657.568 2431.12,669.421 2427.17,680.577 C2432.05,677.401 2437.2,675.813 2442.62,675.813 C2447.74,675.813 2451.8,678.098 2454.83,682.669 C2456.92,685.846 2457.96,691.269 2457.96,698.939 C2457.96,705.834 2454.32,713.93 2447.04,723.227 C2442.55,728.96 2437.55,731.826 2432.05,731.826 C2425.08,731.826 2420.19,730.432 2417.41,727.643 C2413.45,723.692 2411.48,715.867 2411.48,704.168 C2411.48,684.49 2419.42,665.121 2435.3,646.063 C2453.2,624.602 2470.36,613.872 2486.78,613.872 C2499.49,613.872 2508.98,616.855 2515.26,622.82 C2518.9,626.307 2520.72,631.343 2520.72,637.928 C2520.72,645.288 2513.47,653.5 2498.99,662.565 C2491.39,667.368 2481.75,669.963 2470.05,670.351 M2425.66,685.458 C2423.72,691.966 2422.75,698.203 2422.75,704.168 C2422.75,718.346 2425,725.435 2429.49,725.435 C2433.75,725.435 2437.08,722.413 2439.49,716.37 C2442.27,709.553 2443.67,701.999 2443.67,693.709 C2443.67,686.349 2441.23,682.669 2436.35,682.669 C2432.94,682.669 2429.38,683.599 2425.66,685.458"/>
<path class="Note" d="M2926.29,1059.89 C2930.86,1059.89 2933.14,1062.75 2933.14,1068.49 C2933.14,1072.52 2930.63,1078.52 2925.59,1086.5 C2921.56,1092.93 2919.55,1099.21 2919.55,1105.33 C2919.55,1108.81 2924.62,1110.56 2934.77,1110.56 C2943.14,1110.56 2954.8,1106.02 2969.75,1096.96 C2954.72,1111.45 2941.67,1118.69 2930.59,1118.69 C2920.59,1118.69 2913.62,1117.18 2909.67,1114.16 C2908.66,1113.38 2907.81,1112.45 2907.11,1111.37 C2903.24,1116.09 2896.77,1118.46 2887.71,1118.46 C2879.03,1118.46 2872.37,1116.68 2867.72,1113.11 C2864.62,1110.71 2863.07,1106.88 2863.07,1101.61 C2863.07,1093.24 2868.03,1084.1 2877.94,1074.18 C2888.56,1063.57 2900.84,1058.26 2914.78,1058.26 C2918.27,1058.26 2920.83,1059.54 2922.45,1062.1 C2923.77,1060.62 2925.05,1059.89 2926.29,1059.89 M2905.49,1106.14 C2905.41,1105.52 2905.37,1104.9 2905.37,1104.28 C2905.37,1103.97 2909.32,1093.16 2917.22,1071.86 C2918,1069.77 2918.77,1067.98 2919.55,1066.51 C2916.53,1065.89 2913.54,1065.58 2910.6,1065.58 C2905.18,1065.58 2897.97,1070.19 2888.98,1079.41 C2880.93,1087.62 2876.9,1094.71 2876.9,1100.68 C2876.9,1107.26 2880.04,1110.56 2886.31,1110.56 C2893.9,1110.56 2900.3,1109.08 2905.49,1106.14"/>
<path class="Note" d="M2926.29,583.965 C2930.86,583.965 2933.14,586.831 2933.14,592.564 C2933.14,596.593 2930.63,602.597 2925.59,610.577 C2921.56,617.007 2919.55,623.283 2919.55,629.403 C2919.55,632.889 2924.62,634.633 2934.77,634.633 C2943.14,634.633 2954.8,630.1 2969.75,621.036 C2954.72,635.524 2941.67,642.767 2930.59,642.767 C2920.59,642.767 2913.62,641.257 2909.67,638.235 C2908.66,637.46 2907.81,636.531 2907.11,635.446 C2903.24,640.172 2896.77,642.535 2887.71,642.535 C2879.03,642.535 2872.37,640.753 2867.72,637.189 C2864.62,634.788 2863.07,630.953 2863.07,625.684 C2863.07,617.317 2868.03,608.175 2877.94,598.259 C2888.56,587.645 2900.84,582.338 2914.78,582.338 C2918.27,582.338 2920.83,583.616 2922.45,586.173 C2923.77,584.701 2925.05,583.965 2926.29,583.965 M2905.49,630.217 C2905.41,629.597 2905.37,628.977 2905.37,628.357 C2905.37,628.047 2909.32,617.24 2917.22,595.934 C2918,593.843 2918.77,592.061 2919.55,590.589 C2916.53,589.969 2913.54,589.659 2910.6,589.659 C2905.18,589.659 2897.97,594.269 2888.98,603.488 C2880.93,611.7 2876.9,618.789 2876.9,624.755 C2876.9,631.34 2880.04,634.633 2886.31,634.633 C2893.9,634.633 2900.3,633.161 2905.49,630.217"/>
<path class="Note" d="M2926.29,673.256 C2930.86,673.256 2933.14,676.123 2933.14,681.856 C2933.14,685.884 2930.63,691.888 2925.59,699.868 C2921.56,706.299 2919.55,712.574 2919.55,718.694 C2919.55,722.181 2924.62,723.924 2934.77,723.924 C2943.14,723.924 2954.8,719.392 2969.75,710.327 C2954.72,724.815 2941.67,732.059 2930.59,732.059 C2920.59,732.059 2913.62,730.548 2909.67,727.527 C2908.66,726.752 2907.81,725.822 2907.11,724.737 C2903.24,729.463 2896.77,731.826 2887.71,731.826 C2879.03,731.826 2872.37,730.044 2867.72,726.481 C2864.62,724.079 2863.07,720.244 2863.07,714.976 C2863.07,706.609 2868.03,697.467 2877.94,687.55 C2888.56,676.936 2900.84,671.629 2914.78,671.629 C2918.27,671.629 2920.83,672.907 2922.45,675.464 C2923.77,673.992 2925.05,673.256 2926.29,673.256 M2905.49,719.508 C2905.41,718.888 2905.37,718.268 2905.37,717.649 C2905.37,717.339 2909.32,706.531 2917.22,685.226 C2918,683.134 2918.77,681.352 2919.55,679.88 C2916.53,679.26 2913.54,678.95 2910.6,678.95 C2905.18,678.95 2897.97,683.56 2888.98,692.779 C2880.93,700.992 2876.9,708.081 2876.9,714.046 C2876.9,720.631 2880.04,723.924 2886.31,723.924 C2893.9,723.924 2900.3,722.452 2905.49,719.508"/>
<path class="Note" d="M3293,1105.33 C3292.62,1106.02 3292.04,1106.37 3291.26,1106.37 C3290.56,1106.37 3289.67,1106.06 3288.59,1105.44 C3286.96,1104.51 3286.15,1103.58 3286.15,1102.65 C3286.15,1102.34 3286.26,1101.96 3286.5,1101.49 C3304.24,1075.92 3315.32,1054.39 3319.73,1036.88 C3320.04,1036.34 3320.58,1036.06 3321.36,1036.06 C3322.37,1036.06 3323.8,1036.61 3325.66,1037.69 C3328.22,1039.16 3329.49,1040.48 3329.49,1041.64 C3329.49,1041.95 3329.42,1042.22 3329.26,1042.46 C3323.37,1059.19 3311.29,1080.15 3293,1105.33 M3376.55,1059.89 C3381.12,1059.89 3383.41,1062.75 3383.41,1068.49 C3383.41,1072.52 3380.89,1078.52 3375.86,1086.5 C3371.83,1092.93 3369.81,1099.21 3369.81,1105.33 C3369.81,1108.81 3374.89,1110.56 3385.04,1110.56 C3393.4,1110.56 3405.06,1106.02 3420.02,1096.96 C3404.99,1111.45 3391.93,1118.69 3380.85,1118.69 C3370.86,1118.69 3363.89,1117.18 3359.93,1114.16 C3358.93,1113.38 3358.07,1112.45 3357.38,1111.37 C3353.5,1116.09 3347.03,1118.46 3337.97,1118.46 C3329.29,1118.46 3322.63,1116.68 3317.98,1113.11 C3314.88,1110.71 3313.33,1106.88 3313.33,1101.61 C3313.33,1093.24 3318.29,1084.1 3328.21,1074.18 C3338.82,1063.57 3351.1,1058.26 3365.05,1058.26 C3368.53,1058.26 3371.09,1059.54 3372.72,1062.1 C3374.03,1060.62 3375.31,1059.89 3376.55,1059.89 M3355.75,1106.14 C3355.67,1105.52 3355.63,1104.9 3355.63,1104.28 C3355.63,1103.97 3359.59,1093.16 3367.49,1071.86 C3368.26,1069.77 3369.04,1067.98 3369.81,1066.51 C3366.79,1065.89 3363.81,1065.58 3360.86,1065.58 C3355.44,1065.58 3348.24,1070.19 3339.25,1079.41 C3331.19,1087.62 3327.16,1094.71 3327.16,1100.68 C3327.16,1107.26 3330.3,1110.56 3336.58,1110.56 C3344.17,1110.56 3350.56,1109.08 3355.75,1106.14"/>
<path class="Note" d="M3365.35,851.839 C3369.92,851.839 3372.2,854.705 3372.2,860.438 C3372.2,864.467 3369.69,870.471 3364.65,878.451 C3360.62,884.881 3358.61,891.157 3358.61,897.277 C3358.61,900.763 3363.68,902.507 3373.83,902.507 C3382.2,902.507 3393.86,897.974 3408.81,888.91 C3393.78,903.398 3380.73,910.641 3369.65,910.641 C3359.65,910.641 3352.68,909.131 3348.73,906.109 C3347.72,905.334 3346.87,904.405 3346.17,903.32 C3342.3,908.046 3335.83,910.409 3326.77,910.409 C3318.09,910.409 3311.43,908.627 3306.78,905.063 C3303.68,902.662 3302.13,898.827 3302.13,893.558 C3302.13,885.191 3307.09,876.049 3317,866.133 C3327.62,855.519 3339.9,850.212 3353.84,850.212 C3357.33,850.212 3359.89,851.49 3361.51,854.047 C3362.83,852.575 3364.11,851.839 3365.35,851.839 M3344.55,898.091 C3344.47,897.471 3344.43,896.851 3344.43,896.231 C3344.43,895.921 3348.38,885.114 3356.28,863.808 C3357.06,861.717 3357.83,859.935 3358.61,858.463 C3355.59,857.843 3352.6,857.533 3349.66,857.533 C3344.24,857.533 3337.03,862.143 3328.04,871.362 C3319.99,879.574 3315.96,886.663 3315.96,892.629 C3315.96,899.214 3319.1,902.507 3325.37,902.507 C3332.96,902.507 3339.36,901.035 3344.55,898.091"/>
<path class="Note" d="M3321.07,821.118 C3317.28,821.118 3315.38,817.05 3315.38,808.916 L3315.38,774.866 C3315.38,771.612 3316.97,769.985 3320.14,769.985 C3321.54,769.985 3322.58,770.101 3323.28,770.333 C3325.76,765.995 3329.83,762.354 3335.48,759.41 C3343.38,755.304 3351.4,753.25 3359.54,753.25 C3365.97,753.25 3369.18,755.652 3369.18,760.456 C3369.18,764.484 3367.01,766.499 3362.68,766.499 C3359.58,766.499 3356.63,765.801 3353.84,764.407 C3351.36,763.167 3348.73,762.547 3345.94,762.547 C3341.14,762.547 3334.05,765.685 3324.67,771.96 C3325.99,778.236 3326.65,785.557 3326.65,793.924 C3326.65,812.053 3324.79,821.118 3321.07,821.118"/>
<path class="Note" d="M3745.45,1098.35 C3745.07,1099.05 3744.49,1099.4 3743.71,1099.4 C3743.01,1099.4 3742.12,1099.09 3741.04,1098.47 C3739.41,1097.54 3738.6,1096.61 3738.6,1095.68 C3738.6,1095.37 3738.71,1094.98 3738.95,1094.52 C3756.69,1068.95 3767.77,1047.41 3772.18,1029.91 C3772.49,1029.36 3773.03,1029.09 3773.81,1029.09 C3774.82,1029.09 3776.25,1029.63 3778.11,1030.72 C3780.67,1032.19 3781.94,1033.51 3781.94,1034.67 C3781.94,1034.98 3781.87,1035.25 3781.71,1035.48 C3775.82,1052.22 3763.74,1073.17 3745.45,1098.35 M3766.37,1105.33 C3765.98,1106.02 3765.4,1106.37 3764.63,1106.37 C3763.93,1106.37 3763.04,1106.06 3761.96,1105.44 C3760.33,1104.51 3759.52,1103.58 3759.52,1102.65 C3759.52,1102.34 3759.63,1101.96 3759.86,1101.49 C3777.61,1075.92 3788.68,1054.39 3793.1,1036.88 C3793.41,1036.34 3793.95,1036.06 3794.73,1036.06 C3795.73,1036.06 3797.17,1036.61 3799.03,1037.69 C3801.58,1039.16 3802.86,1040.48 3802.86,1041.64 C3802.86,1041.95 3802.78,1042.22 3802.63,1042.46 C3796.74,1059.19 3784.66,1080.15 3766.37,1105.33 M3849.92,1059.89 C3854.5,1059.89 3856.78,1062.75 3856.78,1068.49 C3856.78,1072.52 3854.26,1078.52 3849.23,1086.5 C3845.2,1092.93 3843.18,1099.21 3843.18,1105.33 C3843.18,1108.81 3848.26,1110.56 3858.41,1110.56 C3866.78,1110.56 3878.44,1106.02 3893.39,1096.96 C3878.36,1111.45 3865.3,1118.69 3854.22,1118.69 C3844.23,1118.69 3837.26,1117.18 3833.31,1114.16 C3832.3,1113.38 3831.45,1112.45 3830.75,1111.37 C3826.88,1116.09 3820.41,1118.46 3811.34,1118.46 C3802.67,1118.46 3796,1116.68 3791.35,1113.11 C3788.26,1110.71 3786.71,1106.88 3786.71,1101.61 C3786.71,1093.24 3791.66,1084.1 3801.58,1074.18 C3812.19,1063.57 3824.47,1058.26 3838.42,1058.26 C3841.91,1058.26 3844.46,1059.54 3846.09,1062.1 C3847.41,1060.62 3848.69,1059.89 3849.92,1059.89 M3829.12,1106.14 C3829.05,1105.52 3829.01,1104.9 3829.01,1104.28 C3829.01,1103.97 3832.96,1093.16 3840.86,1071.86 C3841.63,1069.77 3842.41,1067.98 3843.18,1066.51 C3840.16,1065.89 3837.18,1065.58 3834.24,1065.58 C3828.81,1065.58 3821.61,1070.19 3812.62,1079.41 C3804.56,1087.62 3800.54,1094.71 3800.54,1100.68 C3800.54,1107.26 3803.67,1110.56 3809.95,1110.56 C3817.54,1110.56 3823.93,1109.08 3829.12,1106.14"/>
<path class="Note" d="M3828.25,583.965 C3832.82,583.965 3835.11,586.831 3835.11,592.564 C3835.11,596.593 3832.59,602.597 3827.56,610.577 C3823.53,617.007 3821.51,623.283 3821.51,629.403 C3821.51,632.889 3826.59,634.633 3836.74,634.633 C3845.1,634.633 3856.76,630.1 3871.72,621.036 C3856.69,635.524 3843.63,642.767 3832.55,642.767 C3822.56,642.767 3815.59,641.257 3811.63,638.235 C3810.63,637.46 3809.78,636.531 3809.08,635.446 C3805.2,640.172 3798.74,642.535 3789.67,642.535 C3780.99,642.535 3774.33,640.753 3769.68,637.189 C3766.58,634.788 3765.03,630.953 3765.03,625.684 C3765.03,617.317 3769.99,608.175 3779.91,598.259 C3790.52,587.645 3802.8,582.338 3816.75,582.338 C3820.23,582.338 3822.79,583.616 3824.42,586.173 C3825.73,584.701 3827.01,583.965 3828.25,583.965 M3807.45,630.217 C3807.37,629.597 3807.33,628.977 3807.33,628.357 C3807.33,628.047 3811.29,617.24 3819.19,595.934 C3819.96,593.843 3820.74,592.061 3821.51,590.589 C3818.49,589.969 3815.51,589.659 3812.56,589.659 C3807.14,589.659 3799.94,594.269 3790.95,603.488 C3782.89,611.7 3778.86,618.789 3778.86,624.755 C3778.86,631.34 3782,634.633 3788.28,634.633 C3795.87,634.633 3802.26,633.161 3807.45,630.217"/>
<path class="Note" d="M3835.34,759.642 C3845.8,753.057 3853.39,747.672 3858.12,743.489 C3866.8,735.819 3871.13,728.071 3871.13,720.247 C3871.13,711.105 3865.01,706.534 3852.77,706.534 C3839.91,706.534 3826.51,715.792 3812.56,734.308 C3803.11,746.859 3796.41,758.712 3792.46,769.869 C3797.34,766.692 3802.49,765.104 3807.92,765.104 C3813.03,765.104 3817.1,767.389 3820.12,771.96 C3822.21,775.137 3823.26,780.56 3823.26,788.23 C3823.26,795.125 3819.61,803.221 3812.33,812.518 C3807.84,818.251 3802.84,821.118 3797.34,821.118 C3790.37,821.118 3785.49,819.723 3782.7,816.934 C3778.75,812.983 3776.77,805.158 3776.77,793.459 C3776.77,773.781 3784.71,754.413 3800.59,735.354 C3818.49,713.894 3835.65,703.164 3852.08,703.164 C3864.78,703.164 3874.27,706.146 3880.55,712.112 C3884.19,715.598 3886.01,720.634 3886.01,727.219 C3886.01,734.579 3878.77,742.791 3864.28,751.856 C3856.69,756.659 3847.04,759.255 3835.34,759.642 M3790.95,774.749 C3789.01,781.257 3788.04,787.494 3788.04,793.459 C3788.04,807.637 3790.29,814.726 3794.78,814.726 C3799.05,814.726 3802.38,811.705 3804.78,805.662 C3807.57,798.844 3808.96,791.29 3808.96,783 C3808.96,775.64 3806.52,771.96 3801.64,771.96 C3798.23,771.96 3794.67,772.89 3790.95,774.749"/>
<path class="Note" d="M3828.25,673.256 C3832.82,673.256 3835.11,676.123 3835.11,681.856 C3835.11,685.884 3832.59,691.888 3827.56,699.868 C3823.53,706.299 3821.51,712.574 3821.51,718.694 C3821.51,722.181 3826.59,723.924 3836.74,723.924 C3845.1,723.924 3856.76,719.392 3871.72,710.327 C3856.69,724.815 3843.63,732.059 3832.55,732.059 C3822.56,732.059 3815.59,730.548 3811.63,727.527 C3810.63,726.752 3809.78,725.822 3809.08,724.737 C3805.2,729.463 3798.74,731.826 3789.67,731.826 C3780.99,731.826 3774.33,730.044 3769.68,726.481 C3766.58,724.079 3765.03,720.244 3765.03,714.976 C3765.03,706.609 3769.99,697.467 3779.91,687.55 C3790.52,676.936 3802.8,671.629 3816.75,671.629 C3820.23,671.629 3822.79,672.907 3824.42,675.464 C3825.73,673.992 3827.01,673.256 3828.25,673.256 M3807.45,719.508 C3807.37,718.888 3807.33,718.268 3807.33,717.649 C3807.33,717.339 3811.29,706.531 3819.19,685.226 C3819.96,683.134 3820.74,681.352 3821.51,679.88 C3818.49,679.26 3815.51,678.95 3812.56,678.95 C3807.14,678.95 3799.94,683.56 3790.95,692.779 C3782.89,700.992 3778.86,708.081 3778.86,714.046 C3778.86,720.631 3782,723.924 3788.28,723.924 C3795.87,723.924 3802.26,722.452 3807.45,719.508"/>
<path class="Clef" transform="matrix(2.3811,0,0,2.3811,212.156,2076.38)" d="M25.4,-25.1 C17.8,-25.1 11.7,-20.7 11.6,-20.7 C5.8,-16.4 3.5,-11.3 2.6,-7.8 C2.1,-6 1.9,-4.2 1.9,-2.5 C1.9,-0.1 2.3,2.1 3.2,4 C4.4,6.7 6.7,8.6 9.7,9.6 C10.9,10 12.2,10.2 13.5,10.2 C15.7,10.2 18,9.6 19.9,8.5 C23,6.8 24.9,3.2 24.9,-0.7 C24.9,-4.2 23.1,-7.4 20.1,-9.3 C18,-10.7 16,-11.1 14.3,-11.1 C13.1,-11.1 12,-10.9 11.1,-10.6 C10.1,-10.2 8.4,-9.2 7.6,-8.5 C7.9,-10.4 9.1,-13.3 10.2,-14.9 C11.3,-16.5 13.5,-18.5 15.2,-19.4 C17.7,-20.8 20.9,-21.4 24.4,-21.4 C34.6,-21.4 39.6,-13.2 39.6,3.6 C39.6,12.9 36.1,21.8 33.1,27.7 C29.8,34.3 25.4,40.6 21.5,44.1 C11.1,53.6 1.3,58.1 1.2,58.1 C1.2,58.1 -0.3,59 0.1,60.5 C0.4,61.5 1.3,61.7 1.9,61.7 C2,61.7 2.3,61.6 2.4,61.6 C2.5,61.6 13.9,56.9 23,49.8 C28.1,46.1 32.7,42.1 36.7,37.8 C40.3,33.9 43.4,29.7 45.9,25.5 C50.3,18 52.8,10.2 52.8,3.5 C52.8,-4.8 50.6,-11.7 46.5,-16.6 C41.8,-22.2 34.7,-25.1 25.4,-25.1 M56.8,-12.4 C56.8,-9.6 59,-7.4 61.6,-7.4 C64.2,-7.4 66.4,-9.6 66.4,-12.4 C66.4,-15.2 64.2,-17.5 61.6,-17.5 C59,-17.5 56.8,-15.2 56.8,-12.4 M56.8,12.3 C56.8,15.1 59,17.4 61.6,17.4 C64.2,17.4 66.4,15.1 66.4,12.3 C66.4,9.5 64.2,7.2 61.6,7.2 C59,7.2 56.8,9.5 56.8,12.3"/>
<path class="Clef" transform="matrix(2.3811,0,0,2.3811,212.156,1570.39)" d="M63.37,-5.89004 C62.14,-11.32 59.5,-15.14 58.72,-16.1801 C55.5301,-20.45 51.52,-23.3 46.8301,-24.65 C43.72,-25.54 40.72,-25.65 38.3,-25.47 C37.2601,-31.4801 36.2601,-37.3601 35.35,-42.8101 C40.79,-48.97 44.42,-54.77 46.69,-59.07 C50.1601,-65.65 51.3101,-70.2301 51.3601,-70.4301 C53.0801,-75.64 53.44,-83.34 52.34,-91.55 C51.3301,-99.1 49.24,-105.81 46.89,-109.06 C45.8601,-110.49 44.8101,-111.22 43.77,-111.22 C42.55,-111.22 40.04,-109.98 37.15,-107.21 C34.85,-105.01 31.5801,-101.12 29.02,-95.1101 C26.02,-88.05 25.8101,-78.5601 26.1601,-71.84 C26.54,-64.57 27.65,-58.8801 27.6601,-58.8301 C27.6801,-58.74 27.94,-57.24 28.39,-54.67 C28.1601,-54.44 27.92,-54.22 27.67,-53.9801 C26.6301,-52.9801 25.44,-51.84 24.0601,-50.4601 C23.2,-49.6 22.25,-48.69 21.25,-47.72 C12.79,-39.57 0,-27.25 0,-8.1 C0,-3.4 0.9,1.01992 2.68008,5.02998 C4.27002,8.62998 6.57002,11.91 9.5,14.78 C17.2301,22.33 27.82,25.5399 34.8801,25.38 C37.8301,25.31 40.4601,25.0699 42.85,24.6199 C44.6801,34.2199 45.82,41.25 45.8601,46.5899 C45.9,53.1 44.25,57.0699 40.35,59.8399 C37.92,61.5699 35.1101,62.5199 32.0101,62.6699 C29.42,62.7899 27.1601,62.3199 25.7301,61.91 L25.72,61.91 C25.72,61.91 25.4301,61.83 25.42,61.63 C25.4101,61.45 25.7601,61.4 25.77,61.4 L25.79,61.4 C27.7101,60.96 31.2801,59.73 33.64,56.43 C35.44,53.91 36.3101,49.2899 34.47,45.35 C33.3601,42.96 30.85,40.01 25.2301,39.56 C22.74,39.36 20.47,39.8699 18.47,41.0699 C16.6601,42.15 15.1601,43.7899 14.1101,45.7899 C11.65,50.4899 12.1101,56.2199 15.24,60.06 C18.2,63.68 22.82,65.9899 28.25,66.5699 C29.1,66.66 29.95,66.7 30.8,66.7 C31.5101,66.7 32.22,66.6699 32.92,66.61 C31.72,66.9399 30.64,67.4899 29.77,68.25 C28.2801,69.5399 27.44,71.38 27.44,73.41 C27.44,75.28 28.0601,76.65 29.55,78.0399 C28.4101,78.5 27.55,78.98 26.79,79.56 C25.25,80.73 24.34,82.46 24.34,84.1899 C24.34,87.45 27.3,89.63 31.72,89.63 C37.1301,89.63 40.9101,86.63 40.9101,82.35 C40.9101,80.1199 39.9101,78.18 38.0801,76.83 C41.0101,75.6199 42.37,73.9399 42.37,71.56 C42.39,70.05 41.69,68.61 40.49,67.6899 C39.2801,66.7399 37.62,66.2399 35.69,66.2399 L35.5101,66.2399 C38.2801,65.7 40.92,64.7 43.2101,63.28 C46.87,60.71 48.99,56.73 49.67,51.1 C50.2301,46.46 49.84,40.55 48.44,32.48 C48.0801,30.3899 47.54,27.36 46.8801,23.6 C52.6301,21.68 56.79,18.11 60.5601,12.26 C63.85,6.51992 64.8,0.419922 63.37,-5.89004 M32.39,87.5399 C30.19,87.5399 28.7301,86.1199 28.7301,84.01 C28.7301,82.11 29.65,80.5 31.32,79.4699 C31.6801,79.66 31.77,79.71 32.1101,79.88 C33.3,80.48 33.3,80.48 33.55,80.63 L33.5601,80.6399 C35.47,81.73 36.25,82.76 36.25,84.18 C36.24,86.0899 34.59,87.5399 32.39,87.5399 M38.3101,71.63 C38.3101,73.2699 37.7301,74.3399 36.1801,75.53 C34.74,74.78 34.35,74.56 33.9801,74.3399 L33.8801,74.28 C32.3301,73.3399 31.85,72.66 31.85,71.4 C31.85,69.6 33.2301,68.3399 35.19,68.3399 C37.17,68.35 38.3101,69.55 38.3101,71.63 M33.15,-83.8101 C34.9301,-89.55 37.67,-92.8 39.6601,-94.5301 C41.4101,-96.05 43.0601,-96.7601 43.9801,-96.7601 C44.12,-96.7601 44.24,-96.74 44.34,-96.7101 C44.8,-96.57 45.3301,-96 45.8,-95.1301 C48.1101,-90.84 47.37,-84.1301 46.0301,-79.69 C44.4,-74.29 41.4801,-68.6801 32.69,-59.0601 C32.52,-60.17 32.3601,-61.22 32.2101,-62.2 C30.95,-70.49 31.27,-77.7601 33.15,-83.8101 M29.15,20.31 C24.5101,19.0899 20.0801,16.5899 16.32,13.0899 C15.0101,11.86 13.14,9.68994 11.67,6.3 C10.3101,3.13994 9.65,-0.290039 9.7,-3.88008 C9.77002,-8.57002 11.0801,-13.39 13.59,-18.1801 C16.5101,-23.7601 21.07,-29.29 27.1301,-34.62 C28.5801,-35.9 29.95,-37.1801 31.24,-38.4601 C32,-34.2 32.8301,-29.5101 33.7101,-24.6301 C29.8601,-23.3601 25.1101,-20.2101 22,-14.5601 C18.47,-7.99004 18.6101,-2.47002 19.34,1.00996 C20.2801,5.46992 22.8101,9.22998 26.27,11.3199 C27.2,11.88 31.3301,14.01 33.17,13.43 C33.54,13.31 33.8101,13.0899 33.95,12.76 C34.4601,11.5899 33.44,10.95 31.8801,9.98994 C31.2801,9.61992 30.6101,9.2 29.8801,8.66992 C26.5601,6.17998 25.1101,1.72998 26.1801,-2.65 C26.7601,-5.05 28.04,-7.21006 29.8801,-8.91006 C31.55,-10.4601 33.59,-11.5601 35.97,-12.2 C38.0101,-0.960059 40.07,10.1899 41.7101,18.55 C41.84,19.2399 41.9801,19.91 42.1101,20.58 C37.7101,21.51 33.37,21.4199 29.15,20.31 M54.9,10.1 C53.7301,13.28 51.27,17.35 46.14,19.41 C46.07,18.9899 45.99,18.56 45.9101,18.13 C44.3601,9.36992 42.4301,-1.61006 40.47,-12.87 C50.82,-13.35 55.09,-5.91006 55.9801,-1.08008 C56.45,1.45 56.45,5.88994 54.9,10.1"/>
<path class="FiguredBass" d="M1109,2390.15 C1104.42,2390.15 1101.38,2391.99 1099.86,2395.67 C1098.35,2399.35 1097.59,2404.56 1097.59,2411.3 L1097.59,2422.25 C1100.81,2420.95 1103.59,2420.27 1105.94,2420.21 C1113.98,2420.21 1120.3,2421.98 1124.91,2425.54 C1129.52,2429.1 1131.82,2434.38 1131.82,2441.4 C1131.82,2448.42 1129.49,2453.73 1124.82,2457.31 C1120.15,2460.9 1113.86,2462.7 1105.94,2462.7 C1097.84,2462.7 1091.5,2458.94 1086.92,2451.42 C1082.34,2443.91 1080.05,2434.99 1080.05,2424.66 C1080.05,2414.39 1082.71,2405.49 1088.03,2397.94 C1093.35,2390.39 1100.34,2386.62 1109,2386.62 C1114.69,2386.62 1119.61,2388.06 1123.75,2390.94 C1127.89,2393.81 1129.97,2397.6 1129.97,2402.3 C1129.97,2405.02 1128.98,2407.37 1127,2409.35 C1125.02,2411.33 1122.65,2412.32 1119.9,2412.32 C1117.15,2412.32 1114.78,2411.33 1112.8,2409.35 C1110.82,2407.37 1109.84,2405.02 1109.84,2402.3 C1109.84,2399.64 1110.82,2397.29 1112.8,2395.25 C1113.48,2394.45 1114.44,2393.76 1115.68,2393.21 C1115.37,2392.4 1114.75,2391.79 1113.82,2391.35 C1112.46,2390.55 1110.86,2390.15 1109,2390.15 M1113.55,2428.09 C1112.43,2425.18 1109.99,2423.73 1106.22,2423.73 C1102.44,2423.73 1100.11,2425.18 1099.21,2428.09 C1098.32,2431 1097.87,2435.42 1097.87,2441.36 C1097.87,2448.35 1098.32,2453.05 1099.21,2455.46 C1100.11,2457.87 1102.44,2459.08 1106.22,2459.08 C1109.99,2459.08 1112.43,2457.62 1113.55,2454.72 C1114.66,2451.81 1115.22,2447.37 1115.22,2441.4 C1115.22,2435.44 1114.66,2431 1113.55,2428.09"/>
<path class="FiguredBass" d="M1571.9,2390.15 C1567.33,2390.15 1564.28,2391.99 1562.77,2395.67 C1561.25,2399.35 1560.49,2404.56 1560.49,2411.3 L1560.49,2422.25 C1563.71,2420.95 1566.49,2420.27 1568.84,2420.21 C1576.88,2420.21 1583.21,2421.98 1587.82,2425.54 C1592.42,2429.1 1594.73,2434.38 1594.73,2441.4 C1594.73,2448.42 1592.39,2453.73 1587.72,2457.31 C1583.05,2460.9 1576.76,2462.7 1568.84,2462.7 C1560.74,2462.7 1554.4,2458.94 1549.82,2451.42 C1545.25,2443.91 1542.96,2434.99 1542.96,2424.66 C1542.96,2414.39 1545.62,2405.49 1550.94,2397.94 C1556.26,2390.39 1563.25,2386.62 1571.9,2386.62 C1577.6,2386.62 1582.51,2388.06 1586.66,2390.94 C1590.8,2393.81 1592.87,2397.6 1592.87,2402.3 C1592.87,2405.02 1591.88,2407.37 1589.9,2409.35 C1587.92,2411.33 1585.56,2412.32 1582.81,2412.32 C1580.05,2412.32 1577.69,2411.33 1575.71,2409.35 C1573.73,2407.37 1572.74,2405.02 1572.74,2402.3 C1572.74,2399.64 1573.73,2397.29 1575.71,2395.25 C1576.39,2394.45 1577.35,2393.76 1578.58,2393.21 C1578.28,2392.4 1577.66,2391.79 1576.73,2391.35 C1575.37,2390.55 1573.76,2390.15 1571.9,2390.15 M1576.45,2428.09 C1575.34,2425.18 1572.89,2423.73 1569.12,2423.73 C1565.35,2423.73 1563.01,2425.18 1562.12,2428.09 C1561.22,2431 1560.77,2435.42 1560.77,2441.36 C1560.77,2448.35 1561.22,2453.05 1562.12,2455.46 C1563.01,2457.87 1565.35,2459.08 1569.12,2459.08 C1572.89,2459.08 1575.34,2457.62 1576.45,2454.72 C1577.56,2451.81 1578.12,2447.37 1578.12,2441.4 C1578.12,2435.44 1577.56,2431 1576.45,2428.09"/>
<path class="FiguredBass" d="M2894.66,2390.15 C2890.08,2390.15 2887.03,2391.99 2885.52,2395.67 C2884,2399.35 2883.25,2404.56 2883.25,2411.3 L2883.25,2422.25 C2886.46,2420.95 2889.25,2420.27 2891.6,2420.21 C2899.64,2420.21 2905.96,2421.98 2910.57,2425.54 C2915.18,2429.1 2917.48,2434.38 2917.48,2441.4 C2917.48,2448.42 2915.14,2453.73 2910.48,2457.31 C2905.81,2460.9 2899.51,2462.7 2891.6,2462.7 C2883.49,2462.7 2877.15,2458.94 2872.58,2451.42 C2868,2443.91 2865.71,2434.99 2865.71,2424.66 C2865.71,2414.39 2868.37,2405.49 2873.69,2397.94 C2879.01,2390.39 2886,2386.62 2894.66,2386.62 C2900.35,2386.62 2905.26,2388.06 2909.41,2390.94 C2913.55,2393.81 2915.62,2397.6 2915.62,2402.3 C2915.62,2405.02 2914.63,2407.37 2912.66,2409.35 C2910.68,2411.33 2908.31,2412.32 2905.56,2412.32 C2902.81,2412.32 2900.44,2411.33 2898.46,2409.35 C2896.48,2407.37 2895.49,2405.02 2895.49,2402.3 C2895.49,2399.64 2896.48,2397.29 2898.46,2395.25 C2899.14,2394.45 2900.1,2393.76 2901.34,2393.21 C2901.03,2392.4 2900.41,2391.79 2899.48,2391.35 C2898.12,2390.55 2896.51,2390.15 2894.66,2390.15 M2899.2,2428.09 C2898.09,2425.18 2895.65,2423.73 2891.87,2423.73 C2888.1,2423.73 2885.77,2425.18 2884.87,2428.09 C2883.97,2431 2883.52,2435.42 2883.52,2441.36 C2883.52,2448.35 2883.97,2453.05 2884.87,2455.46 C2885.77,2457.87 2888.1,2459.08 2891.87,2459.08 C2895.65,2459.08 2898.09,2457.62 2899.2,2454.72 C2900.32,2451.81 2900.87,2447.37 2900.87,2441.4 C2900.87,2435.44 2900.32,2431 2899.2,2428.09"/>
<path class="FiguredBass" d="M3333.72,2390.15 C3329.14,2390.15 3326.09,2391.99 3324.58,2395.67 C3323.06,2399.35 3322.31,2404.56 3322.31,2411.3 L3322.31,2422.25 C3325.52,2420.95 3328.31,2420.27 3330.66,2420.21 C3338.7,2420.21 3345.02,2421.98 3349.63,2425.54 C3354.24,2429.1 3356.54,2434.38 3356.54,2441.4 C3356.54,2448.42 3354.21,2453.73 3349.54,2457.31 C3344.87,2460.9 3338.57,2462.7 3330.66,2462.7 C3322.55,2462.7 3316.21,2458.94 3311.64,2451.42 C3307.06,2443.91 3304.77,2434.99 3304.77,2424.66 C3304.77,2414.39 3307.43,2405.49 3312.75,2397.94 C3318.07,2390.39 3325.06,2386.62 3333.72,2386.62 C3339.41,2386.62 3344.32,2388.06 3348.47,2390.94 C3352.61,2393.81 3354.68,2397.6 3354.68,2402.3 C3354.68,2405.02 3353.69,2407.37 3351.72,2409.35 C3349.74,2411.33 3347.37,2412.32 3344.62,2412.32 C3341.87,2412.32 3339.5,2411.33 3337.52,2409.35 C3335.54,2407.37 3334.55,2405.02 3334.55,2402.3 C3334.55,2399.64 3335.54,2397.29 3337.52,2395.25 C3338.2,2394.45 3339.16,2393.76 3340.4,2393.21 C3340.09,2392.4 3339.47,2391.79 3338.54,2391.35 C3337.18,2390.55 3335.57,2390.15 3333.72,2390.15 M3338.26,2428.09 C3337.15,2425.18 3334.71,2423.73 3330.93,2423.73 C3327.16,2423.73 3324.83,2425.18 3323.93,2428.09 C3323.03,2431 3322.58,2435.42 3322.58,2441.36 C3322.58,2448.35 3323.03,2453.05 3323.93,2455.46 C3324.83,2457.87 3327.16,2459.08 3330.93,2459.08 C3334.71,2459.08 3337.15,2457.62 3338.26,2454.72 C3339.38,2451.81 3339.93,2447.37 3339.93,2441.4 C3339.93,2435.44 3339.38,2431 3338.26,2428.09"/>
<path class="FiguredBass" d="M3787.81,2455.43 L3787.81,2474.82 C3787.81,2476.74 3786.83,2477.69 3784.89,2477.69 C3782.94,2477.69 3781.96,2476.74 3781.96,2474.82 L3781.96,2457.93 L3779,2459.14 C3778.69,2459.26 3778.28,2459.32 3777.79,2459.32 C3776.99,2459.32 3776.27,2459.02 3775.66,2458.4 C3775.04,2457.78 3774.73,2457.07 3774.73,2456.26 L3774.73,2446.8 C3774.73,2445.44 3775.38,2444.48 3776.68,2443.92 L3781.96,2441.7 L3781.96,2422.22 L3779,2423.42 C3778.81,2423.48 3778.56,2423.51 3778.25,2423.51 C3778.13,2423.51 3777.97,2423.51 3777.79,2423.51 C3776.86,2423.39 3776.12,2423.05 3775.56,2422.49 C3775.01,2421.94 3774.73,2421.29 3774.73,2420.55 L3774.73,2411.08 C3774.73,2409.78 3775.38,2408.86 3776.68,2408.3 L3781.96,2406.07 L3781.96,2386.31 C3781.96,2384.39 3782.94,2383.44 3784.89,2383.44 C3786.83,2383.44 3787.81,2384.39 3787.81,2386.31 L3787.81,2403.66 L3799.78,2398.65 L3799.78,2379.26 C3799.78,2377.34 3800.74,2376.39 3802.65,2376.39 C3804.57,2376.39 3805.53,2377.34 3805.53,2379.26 L3805.53,2396.33 L3808.78,2394.94 C3809.08,2394.82 3809.43,2394.75 3809.8,2394.75 C3810.6,2394.75 3811.33,2395.06 3811.98,2395.68 C3812.63,2396.3 3812.95,2397.01 3812.95,2397.82 L3812.95,2407.28 C3812.95,2408.64 3812.27,2409.6 3810.91,2410.15 L3805.53,2412.38 L3805.53,2431.96 L3808.78,2430.66 C3808.96,2430.6 3809.18,2430.56 3809.43,2430.56 C3809.55,2430.56 3809.67,2430.56 3809.8,2430.56 C3810.85,2430.75 3811.64,2431.09 3812.16,2431.59 C3812.69,2432.08 3812.95,2432.73 3812.95,2433.53 L3812.95,2443 C3812.95,2444.3 3812.27,2445.22 3810.91,2445.78 L3805.53,2448.01 L3805.53,2467.77 C3805.53,2469.68 3804.57,2470.64 3802.65,2470.64 C3800.74,2470.64 3799.78,2469.68 3799.78,2467.77 L3799.78,2450.42 L3787.81,2455.43 M3787.81,2439.29 L3799.78,2434.37 L3799.78,2414.79 L3787.81,2419.8 L3787.81,2439.29 "/>
<path class="FiguredBass" d="M1120.88,1797.3 C1120.88,1798.29 1121.43,1799.25 1122.55,1800.18 C1123.66,1801.1 1124.88,1801.98 1126.21,1802.82 C1127.54,1803.65 1128.76,1805.23 1129.87,1807.55 C1130.99,1809.87 1131.54,1812.79 1131.54,1816.32 C1131.54,1823.12 1128.98,1828.38 1123.84,1832.09 C1118.71,1835.8 1112.22,1837.66 1104.36,1837.66 C1098.05,1837.66 1092.56,1836.08 1087.89,1832.92 C1083.22,1829.77 1080.89,1825.63 1080.89,1820.49 C1080.89,1817.77 1081.88,1815.41 1083.86,1813.4 C1085.84,1811.39 1088.2,1810.38 1090.96,1810.38 C1093.71,1810.38 1096.04,1811.37 1097.96,1813.35 C1099.88,1815.33 1100.84,1817.71 1100.84,1820.49 C1100.84,1821.73 1099.82,1823.08 1097.77,1824.53 C1095.73,1825.98 1094.71,1827.33 1094.71,1828.56 C1094.71,1830.48 1095.66,1831.89 1097.54,1832.79 C1099.43,1833.68 1101.7,1834.13 1104.36,1834.13 C1107.82,1834.13 1110.28,1832.41 1111.74,1828.98 C1113.19,1825.55 1113.92,1821.33 1113.92,1816.32 L1113.92,1813.91 C1113.92,1810.57 1113.81,1808.03 1113.59,1806.3 C1113.38,1804.57 1112.7,1803.02 1111.55,1801.66 C1110.41,1800.3 1108.66,1799.62 1106.31,1799.62 L1094.16,1799.62 C1092.73,1799.62 1092.02,1798.85 1092.02,1797.3 C1092.02,1795.88 1092.73,1795.17 1094.16,1795.17 L1106.31,1795.17 C1108.85,1795.17 1110.82,1794.21 1112.25,1792.29 C1112.74,1791.61 1113.14,1790.5 1113.45,1788.95 C1113.76,1786.91 1113.92,1783.97 1113.92,1780.14 L1113.92,1778.93 C1113.92,1769.72 1110.52,1765.11 1103.71,1765.11 C1097.71,1765.11 1094.71,1766.78 1094.71,1770.12 C1094.71,1771.23 1095.63,1772.42 1097.45,1773.69 C1099.27,1774.96 1100.19,1776.15 1100.19,1777.26 C1100.19,1779.67 1099.34,1781.74 1097.64,1783.48 C1095.93,1785.21 1093.86,1786.07 1091.42,1786.07 C1088.98,1786.07 1086.92,1785.21 1085.25,1783.48 C1083.58,1781.74 1082.75,1779.67 1082.75,1777.26 C1082.75,1772.5 1084.82,1768.69 1088.96,1765.85 C1093.1,1763 1098.02,1761.58 1103.71,1761.58 C1111.2,1761.58 1117.35,1763.02 1122.17,1765.9 C1127,1768.77 1129.41,1773.12 1129.41,1778.93 C1129.41,1783.07 1128.98,1786.29 1128.11,1788.58 C1127.25,1790.87 1126.26,1792.26 1125.14,1792.75 C1124.03,1793.25 1123.04,1793.82 1122.17,1794.47 C1121.31,1795.12 1120.88,1796.06 1120.88,1797.3"/>
<path class="FiguredBass" d="M1109,1870.86 C1104.42,1870.86 1101.38,1872.7 1099.86,1876.38 C1098.35,1880.06 1097.59,1885.27 1097.59,1892.01 L1097.59,1902.96 C1100.81,1901.66 1103.59,1900.98 1105.94,1900.92 C1113.98,1900.92 1120.3,1902.69 1124.91,1906.25 C1129.52,1909.81 1131.82,1915.09 1131.82,1922.11 C1131.82,1929.13 1129.49,1934.44 1124.82,1938.03 C1120.15,1941.61 1113.86,1943.41 1105.94,1943.41 C1097.84,1943.41 1091.5,1939.65 1086.92,1932.13 C1082.34,1924.62 1080.05,1915.7 1080.05,1905.37 C1080.05,1895.1 1082.71,1886.2 1088.03,1878.65 C1093.35,1871.1 1100.34,1867.33 1109,1867.33 C1114.69,1867.33 1119.61,1868.77 1123.75,1871.65 C1127.89,1874.52 1129.97,1878.31 1129.97,1883.01 C1129.97,1885.73 1128.98,1888.08 1127,1890.06 C1125.02,1892.04 1122.65,1893.03 1119.9,1893.03 C1117.15,1893.03 1114.78,1892.04 1112.8,1890.06 C1110.82,1888.08 1109.84,1885.73 1109.84,1883.01 C1109.84,1880.35 1110.82,1878 1112.8,1875.96 C1113.48,1875.16 1114.44,1874.48 1115.68,1873.92 C1115.37,1873.11 1114.75,1872.5 1113.82,1872.06 C1112.46,1871.26 1110.86,1870.86 1109,1870.86 M1113.55,1908.8 C1112.43,1905.89 1109.99,1904.44 1106.22,1904.44 C1102.44,1904.44 1100.11,1905.89 1099.21,1908.8 C1098.32,1911.71 1097.87,1916.13 1097.87,1922.07 C1097.87,1929.06 1098.32,1933.76 1099.21,1936.17 C1100.11,1938.58 1102.44,1939.79 1106.22,1939.79 C1109.99,1939.79 1112.43,1938.33 1113.55,1935.43 C1114.66,1932.52 1115.22,1928.08 1115.22,1922.11 C1115.22,1916.15 1114.66,1911.71 1113.55,1908.8"/>
<path class="FiguredBass" d="M1583.78,1797.3 C1583.78,1798.29 1584.34,1799.25 1585.45,1800.18 C1586.56,1801.1 1587.78,1801.98 1589.11,1802.82 C1590.44,1803.65 1591.67,1805.23 1592.78,1807.55 C1593.89,1809.87 1594.45,1812.79 1594.45,1816.32 C1594.45,1823.12 1591.88,1828.38 1586.75,1832.09 C1581.62,1835.8 1575.12,1837.66 1567.27,1837.66 C1560.96,1837.66 1555.47,1836.08 1550.8,1832.92 C1546.13,1829.77 1543.79,1825.63 1543.79,1820.49 C1543.79,1817.77 1544.78,1815.41 1546.76,1813.4 C1548.74,1811.39 1551.11,1810.38 1553.86,1810.38 C1556.61,1810.38 1558.95,1811.37 1560.86,1813.35 C1562.78,1815.33 1563.74,1817.71 1563.74,1820.49 C1563.74,1821.73 1562.72,1823.08 1560.68,1824.53 C1558.64,1825.98 1557.62,1827.33 1557.62,1828.56 C1557.62,1830.48 1558.56,1831.89 1560.45,1832.79 C1562.33,1833.68 1564.61,1834.13 1567.27,1834.13 C1570.73,1834.13 1573.19,1832.41 1574.64,1828.98 C1576.1,1825.55 1576.82,1821.33 1576.82,1816.32 L1576.82,1813.91 C1576.82,1810.57 1576.71,1808.03 1576.5,1806.3 C1576.28,1804.57 1575.6,1803.02 1574.46,1801.66 C1573.31,1800.3 1571.56,1799.62 1569.21,1799.62 L1557.06,1799.62 C1555.64,1799.62 1554.93,1798.85 1554.93,1797.3 C1554.93,1795.88 1555.64,1795.17 1557.06,1795.17 L1569.21,1795.17 C1571.75,1795.17 1573.73,1794.21 1575.15,1792.29 C1575.65,1791.61 1576.05,1790.5 1576.36,1788.95 C1576.67,1786.91 1576.82,1783.97 1576.82,1780.14 L1576.82,1778.93 C1576.82,1769.72 1573.42,1765.11 1566.62,1765.11 C1560.62,1765.11 1557.62,1766.78 1557.62,1770.12 C1557.62,1771.23 1558.53,1772.42 1560.35,1773.69 C1562.18,1774.96 1563.09,1776.15 1563.09,1777.26 C1563.09,1779.67 1562.24,1781.74 1560.54,1783.48 C1558.84,1785.21 1556.77,1786.07 1554.32,1786.07 C1551.88,1786.07 1549.82,1785.21 1548.15,1783.48 C1546.49,1781.74 1545.65,1779.67 1545.65,1777.26 C1545.65,1772.5 1547.72,1768.69 1551.87,1765.85 C1556.01,1763 1560.93,1761.58 1566.62,1761.58 C1574.1,1761.58 1580.25,1763.02 1585.08,1765.9 C1589.9,1768.77 1592.32,1773.12 1592.32,1778.93 C1592.32,1783.07 1591.88,1786.29 1591.02,1788.58 C1590.15,1790.87 1589.16,1792.26 1588.05,1792.75 C1586.93,1793.25 1585.94,1793.82 1585.08,1794.47 C1584.21,1795.12 1583.78,1796.06 1583.78,1797.3"/>
<path class="FiguredBass" d="M1571.9,1870.86 C1567.33,1870.86 1564.28,1872.7 1562.77,1876.38 C1561.25,1880.06 1560.49,1885.27 1560.49,1892.01 L1560.49,1902.96 C1563.71,1901.66 1566.49,1900.98 1568.84,1900.92 C1576.88,1900.92 1583.21,1902.69 1587.82,1906.25 C1592.42,1909.81 1594.73,1915.09 1594.73,1922.11 C1594.73,1929.13 1592.39,1934.44 1587.72,1938.03 C1583.05,1941.61 1576.76,1943.41 1568.84,1943.41 C1560.74,1943.41 1554.4,1939.65 1549.82,1932.13 C1545.25,1924.62 1542.96,1915.7 1542.96,1905.37 C1542.96,1895.1 1545.62,1886.2 1550.94,1878.65 C1556.26,1871.1 1563.25,1867.33 1571.9,1867.33 C1577.6,1867.33 1582.51,1868.77 1586.66,1871.65 C1590.8,1874.52 1592.87,1878.31 1592.87,1883.01 C1592.87,1885.73 1591.88,1888.08 1589.9,1890.06 C1587.92,1892.04 1585.56,1893.03 1582.81,1893.03 C1580.05,1893.03 1577.69,1892.04 1575.71,1890.06 C1573.73,1888.08 1572.74,1885.73 1572.74,1883.01 C1572.74,1880.35 1573.73,1878 1575.71,1875.96 C1576.39,1875.16 1577.35,1874.48 1578.58,1873.92 C1578.28,1873.11 1577.66,1872.5 1576.73,1872.06 C1575.37,1871.26 1573.76,1870.86 1571.9,1870.86 M1576.45,1908.8 C1575.34,1905.89 1572.89,1904.44 1569.12,1904.44 C1565.35,1904.44 1563.01,1905.89 1562.12,1908.8 C1561.22,1911.71 1560.77,1916.13 1560.77,1922.07 C1560.77,1929.06 1561.22,1933.76 1562.12,1936.17 C1563.01,1938.58 1565.35,1939.79 1569.12,1939.79 C1572.89,1939.79 1575.34,1938.33 1576.45,1935.43 C1577.56,1932.52 1578.12,1928.08 1578.12,1922.11 C1578.12,1916.15 1577.56,1911.71 1576.45,1908.8"/>
<path class="FiguredBass" d="M2906.53,1797.3 C2906.53,1798.29 2907.09,1799.25 2908.2,1800.18 C2909.32,1801.1 2910.54,1801.98 2911.87,1802.82 C2913.2,1803.65 2914.42,1805.23 2915.53,1807.55 C2916.64,1809.87 2917.2,1812.79 2917.2,1816.32 C2917.2,1823.12 2914.63,1828.38 2909.5,1832.09 C2904.37,1835.8 2897.87,1837.66 2890.02,1837.66 C2883.71,1837.66 2878.22,1836.08 2873.55,1832.92 C2868.88,1829.77 2866.55,1825.63 2866.55,1820.49 C2866.55,1817.77 2867.54,1815.41 2869.52,1813.4 C2871.49,1811.39 2873.86,1810.38 2876.61,1810.38 C2879.37,1810.38 2881.7,1811.37 2883.62,1813.35 C2885.53,1815.33 2886.49,1817.71 2886.49,1820.49 C2886.49,1821.73 2885.47,1823.08 2883.43,1824.53 C2881.39,1825.98 2880.37,1827.33 2880.37,1828.56 C2880.37,1830.48 2881.31,1831.89 2883.2,1832.79 C2885.09,1833.68 2887.36,1834.13 2890.02,1834.13 C2893.48,1834.13 2895.94,1832.41 2897.39,1828.98 C2898.85,1825.55 2899.57,1821.33 2899.57,1816.32 L2899.57,1813.91 C2899.57,1810.57 2899.47,1808.03 2899.25,1806.3 C2899.03,1804.57 2898.35,1803.02 2897.21,1801.66 C2896.06,1800.3 2894.32,1799.62 2891.97,1799.62 L2879.81,1799.62 C2878.39,1799.62 2877.68,1798.85 2877.68,1797.3 C2877.68,1795.88 2878.39,1795.17 2879.81,1795.17 L2891.97,1795.17 C2894.5,1795.17 2896.48,1794.21 2897.9,1792.29 C2898.4,1791.61 2898.8,1790.5 2899.11,1788.95 C2899.42,1786.91 2899.57,1783.97 2899.57,1780.14 L2899.57,1778.93 C2899.57,1769.72 2896.17,1765.11 2889.37,1765.11 C2883.37,1765.11 2880.37,1766.78 2880.37,1770.12 C2880.37,1771.23 2881.28,1772.42 2883.11,1773.69 C2884.93,1774.96 2885.84,1776.15 2885.84,1777.26 C2885.84,1779.67 2884.99,1781.74 2883.29,1783.48 C2881.59,1785.21 2879.52,1786.07 2877.08,1786.07 C2874.63,1786.07 2872.58,1785.21 2870.91,1783.48 C2869.24,1781.74 2868.4,1779.67 2868.4,1777.26 C2868.4,1772.5 2870.47,1768.69 2874.62,1765.85 C2878.76,1763 2883.68,1761.58 2889.37,1761.58 C2896.85,1761.58 2903.01,1763.02 2907.83,1765.9 C2912.66,1768.77 2915.07,1773.12 2915.07,1778.93 C2915.07,1783.07 2914.63,1786.29 2913.77,1788.58 C2912.9,1790.87 2911.91,1792.26 2910.8,1792.75 C2909.69,1793.25 2908.7,1793.82 2907.83,1794.47 C2906.97,1795.12 2906.53,1796.06 2906.53,1797.3"/>
<path class="FiguredBass" d="M2894.66,1870.86 C2890.08,1870.86 2887.03,1872.7 2885.52,1876.38 C2884,1880.06 2883.25,1885.27 2883.25,1892.01 L2883.25,1902.96 C2886.46,1901.66 2889.25,1900.98 2891.6,1900.92 C2899.64,1900.92 2905.96,1902.69 2910.57,1906.25 C2915.18,1909.81 2917.48,1915.09 2917.48,1922.11 C2917.48,1929.13 2915.14,1934.44 2910.48,1938.03 C2905.81,1941.61 2899.51,1943.41 2891.6,1943.41 C2883.49,1943.41 2877.15,1939.65 2872.58,1932.13 C2868,1924.62 2865.71,1915.7 2865.71,1905.37 C2865.71,1895.1 2868.37,1886.2 2873.69,1878.65 C2879.01,1871.1 2886,1867.33 2894.66,1867.33 C2900.35,1867.33 2905.26,1868.77 2909.41,1871.65 C2913.55,1874.52 2915.62,1878.31 2915.62,1883.01 C2915.62,1885.73 2914.63,1888.08 2912.66,1890.06 C2910.68,1892.04 2908.31,1893.03 2905.56,1893.03 C2902.81,1893.03 2900.44,1892.04 2898.46,1890.06 C2896.48,1888.08 2895.49,1885.73 2895.49,1883.01 C2895.49,1880.35 2896.48,1878 2898.46,1875.96 C2899.14,1875.16 2900.1,1874.48 2901.34,1873.92 C2901.03,1873.11 2900.41,1872.5 2899.48,1872.06 C2898.12,1871.26 2896.51,1870.86 2894.66,1870.86 M2899.2,1908.8 C2898.09,1905.89 2895.65,1904.44 2891.87,1904.44 C2888.1,1904.44 2885.77,1905.89 2884.87,1908.8 C2883.97,1911.71 2883.52,1916.13 2883.52,1922.07 C2883.52,1929.06 2883.97,1933.76 2884.87,1936.17 C2885.77,1938.58 2888.1,1939.79 2891.87,1939.79 C2895.65,1939.79 2898.09,1938.33 2899.2,1935.43 C2900.32,1932.52 2900.87,1928.08 2900.87,1922.11 C2900.87,1916.15 2900.32,1911.71 2899.2,1908.8"/>
<path class="FiguredBass" d="M3345.59,1797.3 C3345.59,1798.29 3346.15,1799.25 3347.26,1800.18 C3348.38,1801.1 3349.6,1801.98 3350.93,1802.82 C3352.26,1803.65 3353.48,1805.23 3354.59,1807.55 C3355.7,1809.87 3356.26,1812.79 3356.26,1816.32 C3356.26,1823.12 3353.69,1828.38 3348.56,1832.09 C3343.43,1835.8 3336.93,1837.66 3329.08,1837.66 C3322.77,1837.66 3317.28,1836.08 3312.61,1832.92 C3307.94,1829.77 3305.61,1825.63 3305.61,1820.49 C3305.61,1817.77 3306.6,1815.41 3308.58,1813.4 C3310.56,1811.39 3312.92,1810.38 3315.67,1810.38 C3318.43,1810.38 3320.76,1811.37 3322.68,1813.35 C3324.59,1815.33 3325.55,1817.71 3325.55,1820.49 C3325.55,1821.73 3324.53,1823.08 3322.49,1824.53 C3320.45,1825.98 3319.43,1827.33 3319.43,1828.56 C3319.43,1830.48 3320.37,1831.89 3322.26,1832.79 C3324.15,1833.68 3326.42,1834.13 3329.08,1834.13 C3332.54,1834.13 3335,1832.41 3336.45,1828.98 C3337.91,1825.55 3338.63,1821.33 3338.63,1816.32 L3338.63,1813.91 C3338.63,1810.57 3338.53,1808.03 3338.31,1806.3 C3338.09,1804.57 3337.41,1803.02 3336.27,1801.66 C3335.12,1800.3 3333.38,1799.62 3331.03,1799.62 L3318.87,1799.62 C3317.45,1799.62 3316.74,1798.85 3316.74,1797.3 C3316.74,1795.88 3317.45,1795.17 3318.87,1795.17 L3331.03,1795.17 C3333.56,1795.17 3335.54,1794.21 3336.96,1792.29 C3337.46,1791.61 3337.86,1790.5 3338.17,1788.95 C3338.48,1786.91 3338.63,1783.97 3338.63,1780.14 L3338.63,1778.93 C3338.63,1769.72 3335.23,1765.11 3328.43,1765.11 C3322.43,1765.11 3319.43,1766.78 3319.43,1770.12 C3319.43,1771.23 3320.34,1772.42 3322.17,1773.69 C3323.99,1774.96 3324.9,1776.15 3324.9,1777.26 C3324.9,1779.67 3324.05,1781.74 3322.35,1783.48 C3320.65,1785.21 3318.58,1786.07 3316.14,1786.07 C3313.69,1786.07 3311.64,1785.21 3309.97,1783.48 C3308.3,1781.74 3307.46,1779.67 3307.46,1777.26 C3307.46,1772.5 3309.53,1768.69 3313.68,1765.85 C3317.82,1763 3322.74,1761.58 3328.43,1761.58 C3335.91,1761.58 3342.07,1763.02 3346.89,1765.9 C3351.72,1768.77 3354.13,1773.12 3354.13,1778.93 C3354.13,1783.07 3353.69,1786.29 3352.83,1788.58 C3351.96,1790.87 3350.97,1792.26 3349.86,1792.75 C3348.75,1793.25 3347.76,1793.82 3346.89,1794.47 C3346.03,1795.12 3345.59,1796.06 3345.59,1797.3"/>
<path class="FiguredBass" d="M3333.72,1870.86 C3329.14,1870.86 3326.09,1872.7 3324.58,1876.38 C3323.06,1880.06 3322.31,1885.27 3322.31,1892.01 L3322.31,1902.96 C3325.52,1901.66 3328.31,1900.98 3330.66,1900.92 C3338.7,1900.92 3345.02,1902.69 3349.63,1906.25 C3354.24,1909.81 3356.54,1915.09 3356.54,1922.11 C3356.54,1929.13 3354.21,1934.44 3349.54,1938.03 C3344.87,1941.61 3338.57,1943.41 3330.66,1943.41 C3322.55,1943.41 3316.21,1939.65 3311.64,1932.13 C3307.06,1924.62 3304.77,1915.7 3304.77,1905.37 C3304.77,1895.1 3307.43,1886.2 3312.75,1878.65 C3318.07,1871.1 3325.06,1867.33 3333.72,1867.33 C3339.41,1867.33 3344.32,1868.77 3348.47,1871.65 C3352.61,1874.52 3354.68,1878.31 3354.68,1883.01 C3354.68,1885.73 3353.69,1888.08 3351.72,1890.06 C3349.74,1892.04 3347.37,1893.03 3344.62,1893.03 C3341.87,1893.03 3339.5,1892.04 3337.52,1890.06 C3335.54,1888.08 3334.55,1885.73 3334.55,1883.01 C3334.55,1880.35 3335.54,1878 3337.52,1875.96 C3338.2,1875.16 3339.16,1874.48 3340.4,1873.92 C3340.09,1873.11 3339.47,1872.5 3338.54,1872.06 C3337.18,1871.26 3335.57,1870.86 3333.72,1870.86 M3338.26,1908.8 C3337.15,1905.89 3334.71,1904.44 3330.93,1904.44 C3327.16,1904.44 3324.83,1905.89 3323.93,1908.8 C3323.03,1911.71 3322.58,1916.13 3322.58,1922.07 C3322.58,1929.06 3323.03,1933.76 3323.93,1936.17 C3324.83,1938.58 3327.16,1939.79 3330.93,1939.79 C3334.71,1939.79 3337.15,1938.33 3338.26,1935.43 C3339.38,1932.52 3339.93,1928.08 3339.93,1922.11 C3339.93,1916.15 3339.38,1911.71 3338.26,1908.8"/>
<path class="Bracket" transform="matrix(8.6315,0,0,8.6315,76.1283,2254.96)" d="M0.92002,-50 C2.69004,-51.88 6.2,-55.8 6.2,-63 C6.2,-72.1 2.25996,-81.32 2.25996,-86.97 C2.25996,-93.06 5.84004,-98.84 5.95,-99 C6.05996,-99.16 6.05,-99.39 5.94004,-99.46 C5.82998,-99.53 5.62002,-99.47 5.49004,-99.32 C5.35996,-99.17 0,-93.75 0,-85.6 C0,-76.75 3.5,-70.58 3.5,-59.07 C3.5,-56.89 2.55996,-53.36 0.1,-50.33 C-0.0799805,-50.17 -0.1,-49.89 0.0599609,-49.7 L0.0700195,-49.69 L0.1,-49.66 C2.55996,-46.63 3.5,-43.1 3.5,-40.92 C3.5,-29.4 0,-23.24 0,-14.39 C0,-6.25 5.35996,-0.8 5.49004,-0.659961 C5.62002,-0.52002 5.8,-0.42998 5.94004,-0.52002 C6.07998,-0.609961 6.07998,-0.77998 5.95,-0.97998 C5.82002,-1.17998 2.25996,-6.92002 2.25996,-13.01 C2.25996,-18.66 6.2,-27.9 6.2,-37 C6.2,-44.3 2.69004,-48.12 0.92002,-50"/>
</svg>
