<?xml version="1.0" encoding="UTF-8" standalone="no"?>
<svg width="4209.44px" height="2976.38px" viewBox="0 0 4209.44 2976.38"
 xmlns="http://www.w3.org/2000/svg" xmlns:xlink="http://www.w3.org/1999/xlink" version="1.2" baseProfile="tiny">
<title>LaMineur (1)</title>
<desc>Generated by MuseScore 3.6.2</desc>
<polyline class="StaffLines" fill="none" stroke="#000000" stroke-width="6.55" stroke-linejoin="bevel" points="153.819,566.759 4138.58,566.759"/>
<polyline class="StaffLines" fill="none" stroke="#000000" stroke-width="6.55" stroke-linejoin="bevel" points="153.819,656.05 4138.58,656.05"/>
<polyline class="StaffLines" fill="none" stroke="#000000" stroke-width="6.55" stroke-linejoin="bevel" points="153.819,745.342 4138.58,745.342"/>
<polyline class="StaffLines" fill="none" stroke="#000000" stroke-width="6.55" stroke-linejoin="bevel" points="153.819,834.633 4138.58,834.633"/>
<polyline class="StaffLines" fill="none" stroke="#000000" stroke-width="6.55" stroke-linejoin="bevel" points="153.819,923.924 4138.58,923.924"/>
<polyline class="StaffLines" fill="none" stroke="#000000" stroke-width="6.55" stroke-linejoin="bevel" points="153.819,1013.22 4138.58,1013.22"/>
<polyline class="StaffLines" fill="none" stroke="#000000" stroke-width="6.55" stroke-linejoin="bevel" points="153.819,1400.14 4138.58,1400.14"/>
<polyline class="StaffLines" fill="none" stroke="#000000" stroke-width="6.55" stroke-linejoin="bevel" points="153.819,1459.67 4138.58,1459.67"/>
<polyline class="StaffLines" fill="none" stroke="#000000" stroke-width="6.55" stroke-linejoin="bevel" points="153.819,1519.2 4138.58,1519.2"/>
<polyline class="StaffLines" fill="none" stroke="#000000" stroke-width="6.55" stroke-linejoin="bevel" points="153.819,1578.73 4138.58,1578.73"/>
<polyline class="StaffLines" fill="none" stroke="#000000" stroke-width="6.55" stroke-linejoin="bevel" points="153.819,1638.26 4138.58,1638.26"/>
<polyline class="StaffLines" fill="none" stroke="#000000" stroke-width="6.55" stroke-linejoin="bevel" points="153.819,2136.69 4138.58,2136.69"/>
<polyline class="StaffLines" fill="none" stroke="#000000" stroke-width="6.55" stroke-linejoin="bevel" points="153.819,2196.22 4138.58,2196.22"/>
<polyline class="StaffLines" fill="none" stroke="#000000" stroke-width="6.55" stroke-linejoin="bevel" points="153.819,2255.75 4138.58,2255.75"/>
<polyline class="StaffLines" fill="none" stroke="#000000" stroke-width="6.55" stroke-linejoin="bevel" points="153.819,2315.27 4138.58,2315.27"/>
<polyline class="StaffLines" fill="none" stroke="#000000" stroke-width="6.55" stroke-linejoin="bevel" points="153.819,2374.8 4138.58,2374.8"/>
<path class="Symbol" transform="matrix(2.3811,0,0,2.3811,513.384,1548.96)" d="M0,-0.1 C0,7.7 4,14 10.4,18.1 L10.9,17.4 C7.5,14.8 6.3,13.3 5.2,10.1 C4.2,7.2 3.7,4 3.7,-0.2 C3.7,-8.1 4.8,-12.3 10.9,-17.4 L10.5,-18.1 C3.9,-13.6 0,-8.5 0,-0.1"/>
<path class="Symbol" transform="matrix(2.3811,0,0,2.3811,628.142,1548.96)" d="M3.7,-0.2 C3.7,4 3.2,7.2 2.2,10.1 C1,13.3 -0.2,14.8 -3.6,17.4 L-3,18.1 C3.4,14.1 7.3,7.6 7.3,-0.1 C7.3,-8.4 3.4,-13.8 -3.2,-18.1 L-3.6,-17.4 C2.6,-12.4 3.7,-8.1 3.7,-0.2"/>
<path class="Symbol" transform="matrix(2.3811,0,0,2.3811,2708.61,507.232)" d="M0,-0.1 C0,7.7 4,14 10.4,18.1 L10.9,17.4 C7.5,14.8 6.3,13.3 5.2,10.1 C4.2,7.2 3.7,4 3.7,-0.2 C3.7,-8.1 4.8,-12.3 10.9,-17.4 L10.5,-18.1 C3.9,-13.6 0,-8.5 0,-0.1"/>
<path class="Symbol" transform="matrix(2.3811,0,0,2.3811,2813.62,507.232)" d="M3.7,-0.2 C3.7,4 3.2,7.2 2.2,10.1 C1,13.3 -0.2,14.8 -3.6,17.4 L-3,18.1 C3.4,14.1 7.3,7.6 7.3,-0.1 C7.3,-8.4 3.4,-13.8 -3.2,-18.1 L-3.6,-17.4 C2.6,-12.4 3.7,-8.1 3.7,-0.2"/>
<polyline class="BarLine" fill="none" stroke="#000000" stroke-width="10.71" stroke-linejoin="bevel" points="159.176,2133.42 159.176,2378.08"/>
<polyline class="BarLine" fill="none" stroke="#000000" stroke-width="10.71" stroke-linejoin="bevel" points="1169.13,2133.42 1169.13,2378.08"/>
<polyline class="BarLine" fill="none" stroke="#000000" stroke-width="10.71" stroke-linejoin="bevel" points="1867.67,2133.42 1867.67,2378.08"/>
<polyline class="BarLine" fill="none" stroke="#000000" stroke-width="10.71" stroke-linejoin="bevel" points="1900.41,2133.42 1900.41,2378.08"/>
<polyline class="BarLine" fill="none" stroke="#000000" stroke-width="10.71" stroke-linejoin="bevel" points="2625.87,2133.42 2625.87,2378.08"/>
<polyline class="BarLine" fill="none" stroke="#000000" stroke-width="10.71" stroke-linejoin="bevel" points="3333.97,2133.42 3333.97,2378.08"/>
<polyline class="BarLine" fill="none" stroke="#000000" stroke-width="10.71" stroke-linejoin="bevel" points="3366.71,2133.42 3366.71,2378.08"/>
<polyline class="BarLine" fill="none" stroke="#000000" stroke-width="10.71" stroke-linejoin="bevel" points="4080.54,2133.42 4080.54,2378.08"/>
<polyline class="BarLine" fill="none" stroke="#000000" stroke-width="32.74" stroke-linejoin="bevel" points="4122.21,2133.42 4122.21,2378.08"/>
<polyline class="BarLine" fill="none" stroke="#000000" stroke-width="10.71" stroke-linejoin="bevel" points="159.176,1396.87 159.176,2136.69"/>
<polyline class="BarLine" fill="none" stroke="#000000" stroke-width="10.71" stroke-linejoin="bevel" points="1169.13,1396.87 1169.13,1641.53"/>
<polyline class="BarLine" fill="none" stroke="#000000" stroke-width="10.71" stroke-linejoin="bevel" points="1867.67,1396.87 1867.67,1641.53"/>
<polyline class="BarLine" fill="none" stroke="#000000" stroke-width="10.71" stroke-linejoin="bevel" points="1900.41,1396.87 1900.41,1641.53"/>
<polyline class="BarLine" fill="none" stroke="#000000" stroke-width="10.71" stroke-linejoin="bevel" points="2625.87,1396.87 2625.87,1641.53"/>
<polyline class="BarLine" fill="none" stroke="#000000" stroke-width="10.71" stroke-linejoin="bevel" points="3333.97,1396.87 3333.97,1641.53"/>
<polyline class="BarLine" fill="none" stroke="#000000" stroke-width="10.71" stroke-linejoin="bevel" points="3366.71,1396.87 3366.71,1641.53"/>
<polyline class="BarLine" fill="none" stroke="#000000" stroke-width="10.71" stroke-linejoin="bevel" points="4080.54,1396.87 4080.54,1641.53"/>
<polyline class="BarLine" fill="none" stroke="#000000" stroke-width="32.74" stroke-linejoin="bevel" points="4122.21,1396.87 4122.21,1641.53"/>
<polyline class="BarLine" fill="none" stroke="#000000" stroke-width="10.71" stroke-linejoin="bevel" points="159.176,563.485 159.176,1400.14"/>
<polyline class="BarLine" fill="none" stroke="#000000" stroke-width="10.71" stroke-linejoin="bevel" points="1169.13,563.485 1169.13,1016.49"/>
<polyline class="BarLine" fill="none" stroke="#000000" stroke-width="10.71" stroke-linejoin="bevel" points="1867.67,563.485 1867.67,1016.49"/>
<polyline class="BarLine" fill="none" stroke="#000000" stroke-width="10.71" stroke-linejoin="bevel" points="1900.41,563.485 1900.41,1016.49"/>
<polyline class="BarLine" fill="none" stroke="#000000" stroke-width="10.71" stroke-linejoin="bevel" points="2625.87,563.485 2625.87,1016.49"/>
<polyline class="BarLine" fill="none" stroke="#000000" stroke-width="10.71" stroke-linejoin="bevel" points="3333.97,563.485 3333.97,1016.49"/>
<polyline class="BarLine" fill="none" stroke="#000000" stroke-width="10.71" stroke-linejoin="bevel" points="3366.71,563.485 3366.71,1016.49"/>
<polyline class="BarLine" fill="none" stroke="#000000" stroke-width="10.71" stroke-linejoin="bevel" points="4080.54,563.485 4080.54,1016.49"/>
<polyline class="BarLine" fill="none" stroke="#000000" stroke-width="32.74" stroke-linejoin="bevel" points="4122.21,563.485 4122.21,1016.49"/>
<polyline class="LedgerLine" fill="none" stroke="#000000" stroke-width="9.52" stroke-linejoin="bevel" points="3449.46,1340.62 3579.93,1340.62"/>
<path class="Note" transform="matrix(2.3811,0,0,2.3811,539.334,2136.69)" d="M18.7,-13.6 C4.9,-13.6 0,-6.6 0,-0.1 C0,6.4 4.9,13.4 18.7,13.4 C32.5,13.4 37.3,6.4 37.3,-0.1 C37.3,-6.6 32.5,-13.6 18.7,-13.6 M10.4,-4.5 C10.3,-4.9 10.3,-5.3 10.3,-5.7 C10.3,-6.5 10.5,-7.3 10.9,-8 C11.6,-9 12.8,-9.7 14.3,-10 C15.6,-10.3 16.3,-10.5 18.9,-10.5 L19,-10.5 C23,-10.5 24.3,-6.8 25.4,-3 L25.7,-2 C26.5,0.6 26.9,2.8 26.9,4.5 C26.9,5.7 26.7,6.8 26.3,7.6 C25.7,8.7 24.7,9.4 23,9.8 C22.1,10 20.6,10.1 20.6,10.1 C20.1,10.1 19.7,10.2 19.3,10.2 C16.1,10.2 14.1,9 12.7,4.7 C11.5,1 11.3,-0.1 10.4,-4.5"/>
<path class="Note" transform="matrix(2.3811,0,0,2.3811,1251.87,2345.04)" d="M18.7,-13.6 C4.9,-13.6 0,-6.6 0,-0.1 C0,6.4 4.9,13.4 18.7,13.4 C32.5,13.4 37.3,6.4 37.3,-0.1 C37.3,-6.6 32.5,-13.6 18.7,-13.6 M10.4,-4.5 C10.3,-4.9 10.3,-5.3 10.3,-5.7 C10.3,-6.5 10.5,-7.3 10.9,-8 C11.6,-9 12.8,-9.7 14.3,-10 C15.6,-10.3 16.3,-10.5 18.9,-10.5 L19,-10.5 C23,-10.5 24.3,-6.8 25.4,-3 L25.7,-2 C26.5,0.6 26.9,2.8 26.9,4.5 C26.9,5.7 26.7,6.8 26.3,7.6 C25.7,8.7 24.7,9.4 23,9.8 C22.1,10 20.6,10.1 20.6,10.1 C20.1,10.1 19.7,10.2 19.3,10.2 C16.1,10.2 14.1,9 12.7,4.7 C11.5,1 11.3,-0.1 10.4,-4.5"/>
<path class="Note" transform="matrix(2.3811,0,0,2.3811,1988.88,2345.04)" d="M18.7,-13.6 C4.9,-13.6 0,-6.6 0,-0.1 C0,6.4 4.9,13.4 18.7,13.4 C32.5,13.4 37.3,6.4 37.3,-0.1 C37.3,-6.6 32.5,-13.6 18.7,-13.6 M10.4,-4.5 C10.3,-4.9 10.3,-5.3 10.3,-5.7 C10.3,-6.5 10.5,-7.3 10.9,-8 C11.6,-9 12.8,-9.7 14.3,-10 C15.6,-10.3 16.3,-10.5 18.9,-10.5 L19,-10.5 C23,-10.5 24.3,-6.8 25.4,-3 L25.7,-2 C26.5,0.6 26.9,2.8 26.9,4.5 C26.9,5.7 26.7,6.8 26.3,7.6 C25.7,8.7 24.7,9.4 23,9.8 C22.1,10 20.6,10.1 20.6,10.1 C20.1,10.1 19.7,10.2 19.3,10.2 C16.1,10.2 14.1,9 12.7,4.7 C11.5,1 11.3,-0.1 10.4,-4.5"/>
<path class="Note" transform="matrix(2.3811,0,0,2.3811,2723.73,2136.69)" d="M18.7,-13.6 C4.9,-13.6 0,-6.6 0,-0.1 C0,6.4 4.9,13.4 18.7,13.4 C32.5,13.4 37.3,6.4 37.3,-0.1 C37.3,-6.6 32.5,-13.6 18.7,-13.6 M10.4,-4.5 C10.3,-4.9 10.3,-5.3 10.3,-5.7 C10.3,-6.5 10.5,-7.3 10.9,-8 C11.6,-9 12.8,-9.7 14.3,-10 C15.6,-10.3 16.3,-10.5 18.9,-10.5 L19,-10.5 C23,-10.5 24.3,-6.8 25.4,-3 L25.7,-2 C26.5,0.6 26.9,2.8 26.9,4.5 C26.9,5.7 26.7,6.8 26.3,7.6 C25.7,8.7 24.7,9.4 23,9.8 C22.1,10 20.6,10.1 20.6,10.1 C20.1,10.1 19.7,10.2 19.3,10.2 C16.1,10.2 14.1,9 12.7,4.7 C11.5,1 11.3,-0.1 10.4,-4.5"/>
<path class="Note" transform="matrix(2.3811,0,0,2.3811,3470.29,2136.69)" d="M18.7,-13.6 C4.9,-13.6 0,-6.6 0,-0.1 C0,6.4 4.9,13.4 18.7,13.4 C32.5,13.4 37.3,6.4 37.3,-0.1 C37.3,-6.6 32.5,-13.6 18.7,-13.6 M10.4,-4.5 C10.3,-4.9 10.3,-5.3 10.3,-5.7 C10.3,-6.5 10.5,-7.3 10.9,-8 C11.6,-9 12.8,-9.7 14.3,-10 C15.6,-10.3 16.3,-10.5 18.9,-10.5 L19,-10.5 C23,-10.5 24.3,-6.8 25.4,-3 L25.7,-2 C26.5,0.6 26.9,2.8 26.9,4.5 C26.9,5.7 26.7,6.8 26.3,7.6 C25.7,8.7 24.7,9.4 23,9.8 C22.1,10 20.6,10.1 20.6,10.1 C20.1,10.1 19.7,10.2 19.3,10.2 C16.1,10.2 14.1,9 12.7,4.7 C11.5,1 11.3,-0.1 10.4,-4.5"/>
<path class="Note" transform="matrix(2.3811,0,0,2.3811,539.334,1638.26)" d="M18.7,-13.6 C4.9,-13.6 0,-6.6 0,-0.1 C0,6.4 4.9,13.4 18.7,13.4 C32.5,13.4 37.3,6.4 37.3,-0.1 C37.3,-6.6 32.5,-13.6 18.7,-13.6 M10.4,-4.5 C10.3,-4.9 10.3,-5.3 10.3,-5.7 C10.3,-6.5 10.5,-7.3 10.9,-8 C11.6,-9 12.8,-9.7 14.3,-10 C15.6,-10.3 16.3,-10.5 18.9,-10.5 L19,-10.5 C23,-10.5 24.3,-6.8 25.4,-3 L25.7,-2 C26.5,0.6 26.9,2.8 26.9,4.5 C26.9,5.7 26.7,6.8 26.3,7.6 C25.7,8.7 24.7,9.4 23,9.8 C22.1,10 20.6,10.1 20.6,10.1 C20.1,10.1 19.7,10.2 19.3,10.2 C16.1,10.2 14.1,9 12.7,4.7 C11.5,1 11.3,-0.1 10.4,-4.5"/>
<path class="Note" transform="matrix(2.3811,0,0,2.3811,539.334,1548.96)" d="M18.7,-13.6 C4.9,-13.6 0,-6.6 0,-0.1 C0,6.4 4.9,13.4 18.7,13.4 C32.5,13.4 37.3,6.4 37.3,-0.1 C37.3,-6.6 32.5,-13.6 18.7,-13.6 M10.4,-4.5 C10.3,-4.9 10.3,-5.3 10.3,-5.7 C10.3,-6.5 10.5,-7.3 10.9,-8 C11.6,-9 12.8,-9.7 14.3,-10 C15.6,-10.3 16.3,-10.5 18.9,-10.5 L19,-10.5 C23,-10.5 24.3,-6.8 25.4,-3 L25.7,-2 C26.5,0.6 26.9,2.8 26.9,4.5 C26.9,5.7 26.7,6.8 26.3,7.6 C25.7,8.7 24.7,9.4 23,9.8 C22.1,10 20.6,10.1 20.6,10.1 C20.1,10.1 19.7,10.2 19.3,10.2 C16.1,10.2 14.1,9 12.7,4.7 C11.5,1 11.3,-0.1 10.4,-4.5"/>
<path class="Note" transform="matrix(2.3811,0,0,2.3811,539.334,1489.44)" d="M18.7,-13.6 C4.9,-13.6 0,-6.6 0,-0.1 C0,6.4 4.9,13.4 18.7,13.4 C32.5,13.4 37.3,6.4 37.3,-0.1 C37.3,-6.6 32.5,-13.6 18.7,-13.6 M10.4,-4.5 C10.3,-4.9 10.3,-5.3 10.3,-5.7 C10.3,-6.5 10.5,-7.3 10.9,-8 C11.6,-9 12.8,-9.7 14.3,-10 C15.6,-10.3 16.3,-10.5 18.9,-10.5 L19,-10.5 C23,-10.5 24.3,-6.8 25.4,-3 L25.7,-2 C26.5,0.6 26.9,2.8 26.9,4.5 C26.9,5.7 26.7,6.8 26.3,7.6 C25.7,8.7 24.7,9.4 23,9.8 C22.1,10 20.6,10.1 20.6,10.1 C20.1,10.1 19.7,10.2 19.3,10.2 C16.1,10.2 14.1,9 12.7,4.7 C11.5,1 11.3,-0.1 10.4,-4.5"/>
<path class="Note" transform="matrix(2.3811,0,0,2.3811,1251.87,1638.26)" d="M18.7,-13.6 C4.9,-13.6 0,-6.6 0,-0.1 C0,6.4 4.9,13.4 18.7,13.4 C32.5,13.4 37.3,6.4 37.3,-0.1 C37.3,-6.6 32.5,-13.6 18.7,-13.6 M10.4,-4.5 C10.3,-4.9 10.3,-5.3 10.3,-5.7 C10.3,-6.5 10.5,-7.3 10.9,-8 C11.6,-9 12.8,-9.7 14.3,-10 C15.6,-10.3 16.3,-10.5 18.9,-10.5 L19,-10.5 C23,-10.5 24.3,-6.8 25.4,-3 L25.7,-2 C26.5,0.6 26.9,2.8 26.9,4.5 C26.9,5.7 26.7,6.8 26.3,7.6 C25.7,8.7 24.7,9.4 23,9.8 C22.1,10 20.6,10.1 20.6,10.1 C20.1,10.1 19.7,10.2 19.3,10.2 C16.1,10.2 14.1,9 12.7,4.7 C11.5,1 11.3,-0.1 10.4,-4.5"/>
<path class="Note" transform="matrix(2.3811,0,0,2.3811,1251.87,1548.96)" d="M18.7,-13.6 C4.9,-13.6 0,-6.6 0,-0.1 C0,6.4 4.9,13.4 18.7,13.4 C32.5,13.4 37.3,6.4 37.3,-0.1 C37.3,-6.6 32.5,-13.6 18.7,-13.6 M10.4,-4.5 C10.3,-4.9 10.3,-5.3 10.3,-5.7 C10.3,-6.5 10.5,-7.3 10.9,-8 C11.6,-9 12.8,-9.7 14.3,-10 C15.6,-10.3 16.3,-10.5 18.9,-10.5 L19,-10.5 C23,-10.5 24.3,-6.8 25.4,-3 L25.7,-2 C26.5,0.6 26.9,2.8 26.9,4.5 C26.9,5.7 26.7,6.8 26.3,7.6 C25.7,8.7 24.7,9.4 23,9.8 C22.1,10 20.6,10.1 20.6,10.1 C20.1,10.1 19.7,10.2 19.3,10.2 C16.1,10.2 14.1,9 12.7,4.7 C11.5,1 11.3,-0.1 10.4,-4.5"/>
<path class="Note" transform="matrix(2.3811,0,0,2.3811,1251.87,1489.44)" d="M18.7,-13.6 C4.9,-13.6 0,-6.6 0,-0.1 C0,6.4 4.9,13.4 18.7,13.4 C32.5,13.4 37.3,6.4 37.3,-0.1 C37.3,-6.6 32.5,-13.6 18.7,-13.6 M10.4,-4.5 C10.3,-4.9 10.3,-5.3 10.3,-5.7 C10.3,-6.5 10.5,-7.3 10.9,-8 C11.6,-9 12.8,-9.7 14.3,-10 C15.6,-10.3 16.3,-10.5 18.9,-10.5 L19,-10.5 C23,-10.5 24.3,-6.8 25.4,-3 L25.7,-2 C26.5,0.6 26.9,2.8 26.9,4.5 C26.9,5.7 26.7,6.8 26.3,7.6 C25.7,8.7 24.7,9.4 23,9.8 C22.1,10 20.6,10.1 20.6,10.1 C20.1,10.1 19.7,10.2 19.3,10.2 C16.1,10.2 14.1,9 12.7,4.7 C11.5,1 11.3,-0.1 10.4,-4.5"/>
<path class="Note" transform="matrix(2.3811,0,0,2.3811,1988.88,1548.96)" d="M18.7,-13.6 C4.9,-13.6 0,-6.6 0,-0.1 C0,6.4 4.9,13.4 18.7,13.4 C32.5,13.4 37.3,6.4 37.3,-0.1 C37.3,-6.6 32.5,-13.6 18.7,-13.6 M10.4,-4.5 C10.3,-4.9 10.3,-5.3 10.3,-5.7 C10.3,-6.5 10.5,-7.3 10.9,-8 C11.6,-9 12.8,-9.7 14.3,-10 C15.6,-10.3 16.3,-10.5 18.9,-10.5 L19,-10.5 C23,-10.5 24.3,-6.8 25.4,-3 L25.7,-2 C26.5,0.6 26.9,2.8 26.9,4.5 C26.9,5.7 26.7,6.8 26.3,7.6 C25.7,8.7 24.7,9.4 23,9.8 C22.1,10 20.6,10.1 20.6,10.1 C20.1,10.1 19.7,10.2 19.3,10.2 C16.1,10.2 14.1,9 12.7,4.7 C11.5,1 11.3,-0.1 10.4,-4.5"/>
<path class="Note" transform="matrix(2.3811,0,0,2.3811,1988.88,1489.44)" d="M18.7,-13.6 C4.9,-13.6 0,-6.6 0,-0.1 C0,6.4 4.9,13.4 18.7,13.4 C32.5,13.4 37.3,6.4 37.3,-0.1 C37.3,-6.6 32.5,-13.6 18.7,-13.6 M10.4,-4.5 C10.3,-4.9 10.3,-5.3 10.3,-5.7 C10.3,-6.5 10.5,-7.3 10.9,-8 C11.6,-9 12.8,-9.7 14.3,-10 C15.6,-10.3 16.3,-10.5 18.9,-10.5 L19,-10.5 C23,-10.5 24.3,-6.8 25.4,-3 L25.7,-2 C26.5,0.6 26.9,2.8 26.9,4.5 C26.9,5.7 26.7,6.8 26.3,7.6 C25.7,8.7 24.7,9.4 23,9.8 C22.1,10 20.6,10.1 20.6,10.1 C20.1,10.1 19.7,10.2 19.3,10.2 C16.1,10.2 14.1,9 12.7,4.7 C11.5,1 11.3,-0.1 10.4,-4.5"/>
<path class="Note" transform="matrix(2.3811,0,0,2.3811,1988.88,1429.91)" d="M18.7,-13.6 C4.9,-13.6 0,-6.6 0,-0.1 C0,6.4 4.9,13.4 18.7,13.4 C32.5,13.4 37.3,6.4 37.3,-0.1 C37.3,-6.6 32.5,-13.6 18.7,-13.6 M10.4,-4.5 C10.3,-4.9 10.3,-5.3 10.3,-5.7 C10.3,-6.5 10.5,-7.3 10.9,-8 C11.6,-9 12.8,-9.7 14.3,-10 C15.6,-10.3 16.3,-10.5 18.9,-10.5 L19,-10.5 C23,-10.5 24.3,-6.8 25.4,-3 L25.7,-2 C26.5,0.6 26.9,2.8 26.9,4.5 C26.9,5.7 26.7,6.8 26.3,7.6 C25.7,8.7 24.7,9.4 23,9.8 C22.1,10 20.6,10.1 20.6,10.1 C20.1,10.1 19.7,10.2 19.3,10.2 C16.1,10.2 14.1,9 12.7,4.7 C11.5,1 11.3,-0.1 10.4,-4.5"/>
<path class="Note" transform="matrix(2.3811,0,0,2.3811,2723.73,1548.96)" d="M18.7,-13.6 C4.9,-13.6 0,-6.6 0,-0.1 C0,6.4 4.9,13.4 18.7,13.4 C32.5,13.4 37.3,6.4 37.3,-0.1 C37.3,-6.6 32.5,-13.6 18.7,-13.6 M10.4,-4.5 C10.3,-4.9 10.3,-5.3 10.3,-5.7 C10.3,-6.5 10.5,-7.3 10.9,-8 C11.6,-9 12.8,-9.7 14.3,-10 C15.6,-10.3 16.3,-10.5 18.9,-10.5 L19,-10.5 C23,-10.5 24.3,-6.8 25.4,-3 L25.7,-2 C26.5,0.6 26.9,2.8 26.9,4.5 C26.9,5.7 26.7,6.8 26.3,7.6 C25.7,8.7 24.7,9.4 23,9.8 C22.1,10 20.6,10.1 20.6,10.1 C20.1,10.1 19.7,10.2 19.3,10.2 C16.1,10.2 14.1,9 12.7,4.7 C11.5,1 11.3,-0.1 10.4,-4.5"/>
<path class="Note" transform="matrix(2.3811,0,0,2.3811,2723.73,1489.44)" d="M18.7,-13.6 C4.9,-13.6 0,-6.6 0,-0.1 C0,6.4 4.9,13.4 18.7,13.4 C32.5,13.4 37.3,6.4 37.3,-0.1 C37.3,-6.6 32.5,-13.6 18.7,-13.6 M10.4,-4.5 C10.3,-4.9 10.3,-5.3 10.3,-5.7 C10.3,-6.5 10.5,-7.3 10.9,-8 C11.6,-9 12.8,-9.7 14.3,-10 C15.6,-10.3 16.3,-10.5 18.9,-10.5 L19,-10.5 C23,-10.5 24.3,-6.8 25.4,-3 L25.7,-2 C26.5,0.6 26.9,2.8 26.9,4.5 C26.9,5.7 26.7,6.8 26.3,7.6 C25.7,8.7 24.7,9.4 23,9.8 C22.1,10 20.6,10.1 20.6,10.1 C20.1,10.1 19.7,10.2 19.3,10.2 C16.1,10.2 14.1,9 12.7,4.7 C11.5,1 11.3,-0.1 10.4,-4.5"/>
<path class="Note" transform="matrix(2.3811,0,0,2.3811,2723.73,1429.91)" d="M18.7,-13.6 C4.9,-13.6 0,-6.6 0,-0.1 C0,6.4 4.9,13.4 18.7,13.4 C32.5,13.4 37.3,6.4 37.3,-0.1 C37.3,-6.6 32.5,-13.6 18.7,-13.6 M10.4,-4.5 C10.3,-4.9 10.3,-5.3 10.3,-5.7 C10.3,-6.5 10.5,-7.3 10.9,-8 C11.6,-9 12.8,-9.7 14.3,-10 C15.6,-10.3 16.3,-10.5 18.9,-10.5 L19,-10.5 C23,-10.5 24.3,-6.8 25.4,-3 L25.7,-2 C26.5,0.6 26.9,2.8 26.9,4.5 C26.9,5.7 26.7,6.8 26.3,7.6 C25.7,8.7 24.7,9.4 23,9.8 C22.1,10 20.6,10.1 20.6,10.1 C20.1,10.1 19.7,10.2 19.3,10.2 C16.1,10.2 14.1,9 12.7,4.7 C11.5,1 11.3,-0.1 10.4,-4.5"/>
<path class="Note" transform="matrix(2.3811,0,0,2.3811,3470.29,1489.44)" d="M18.7,-13.6 C4.9,-13.6 0,-6.6 0,-0.1 C0,6.4 4.9,13.4 18.7,13.4 C32.5,13.4 37.3,6.4 37.3,-0.1 C37.3,-6.6 32.5,-13.6 18.7,-13.6 M10.4,-4.5 C10.3,-4.9 10.3,-5.3 10.3,-5.7 C10.3,-6.5 10.5,-7.3 10.9,-8 C11.6,-9 12.8,-9.7 14.3,-10 C15.6,-10.3 16.3,-10.5 18.9,-10.5 L19,-10.5 C23,-10.5 24.3,-6.8 25.4,-3 L25.7,-2 C26.5,0.6 26.9,2.8 26.9,4.5 C26.9,5.7 26.7,6.8 26.3,7.6 C25.7,8.7 24.7,9.4 23,9.8 C22.1,10 20.6,10.1 20.6,10.1 C20.1,10.1 19.7,10.2 19.3,10.2 C16.1,10.2 14.1,9 12.7,4.7 C11.5,1 11.3,-0.1 10.4,-4.5"/>
<path class="Note" transform="matrix(2.3811,0,0,2.3811,3470.29,1429.91)" d="M18.7,-13.6 C4.9,-13.6 0,-6.6 0,-0.1 C0,6.4 4.9,13.4 18.7,13.4 C32.5,13.4 37.3,6.4 37.3,-0.1 C37.3,-6.6 32.5,-13.6 18.7,-13.6 M10.4,-4.5 C10.3,-4.9 10.3,-5.3 10.3,-5.7 C10.3,-6.5 10.5,-7.3 10.9,-8 C11.6,-9 12.8,-9.7 14.3,-10 C15.6,-10.3 16.3,-10.5 18.9,-10.5 L19,-10.5 C23,-10.5 24.3,-6.8 25.4,-3 L25.7,-2 C26.5,0.6 26.9,2.8 26.9,4.5 C26.9,5.7 26.7,6.8 26.3,7.6 C25.7,8.7 24.7,9.4 23,9.8 C22.1,10 20.6,10.1 20.6,10.1 C20.1,10.1 19.7,10.2 19.3,10.2 C16.1,10.2 14.1,9 12.7,4.7 C11.5,1 11.3,-0.1 10.4,-4.5"/>
<path class="Note" transform="matrix(2.3811,0,0,2.3811,3470.29,1340.62)" d="M18.7,-13.6 C4.9,-13.6 0,-6.6 0,-0.1 C0,6.4 4.9,13.4 18.7,13.4 C32.5,13.4 37.3,6.4 37.3,-0.1 C37.3,-6.6 32.5,-13.6 18.7,-13.6 M10.4,-4.5 C10.3,-4.9 10.3,-5.3 10.3,-5.7 C10.3,-6.5 10.5,-7.3 10.9,-8 C11.6,-9 12.8,-9.7 14.3,-10 C15.6,-10.3 16.3,-10.5 18.9,-10.5 L19,-10.5 C23,-10.5 24.3,-6.8 25.4,-3 L25.7,-2 C26.5,0.6 26.9,2.8 26.9,4.5 C26.9,5.7 26.7,6.8 26.3,7.6 C25.7,8.7 24.7,9.4 23,9.8 C22.1,10 20.6,10.1 20.6,10.1 C20.1,10.1 19.7,10.2 19.3,10.2 C16.1,10.2 14.1,9 12.7,4.7 C11.5,1 11.3,-0.1 10.4,-4.5"/>
<path class="Note" d="M618.153,592.299 C622.724,592.299 625.01,595.165 625.01,600.898 C625.01,604.927 622.492,610.931 617.456,618.911 C613.427,625.341 611.413,631.617 611.413,637.737 C611.413,641.223 616.488,642.966 626.637,642.966 C635.004,642.966 646.664,638.434 661.616,629.37 C646.586,643.857 633.532,651.101 622.453,651.101 C612.459,651.101 605.486,649.591 601.535,646.569 C600.528,645.794 599.676,644.865 598.979,643.78 C595.105,648.506 588.636,650.869 579.571,650.869 C570.894,650.869 564.232,649.087 559.583,645.523 C556.484,643.121 554.935,639.286 554.935,634.018 C554.935,625.651 559.893,616.509 569.81,606.592 C580.424,595.979 592.703,590.672 606.649,590.672 C610.135,590.672 612.691,591.95 614.318,594.507 C615.635,593.035 616.914,592.299 618.153,592.299 M597.352,638.55 C597.274,637.931 597.235,637.311 597.235,636.691 C597.235,636.381 601.187,625.574 609.089,604.268 C609.864,602.176 610.638,600.395 611.413,598.923 C608.392,598.303 605.409,597.993 602.465,597.993 C597.042,597.993 589.837,602.603 580.85,611.822 C572.792,620.034 568.764,627.123 568.764,633.089 C568.764,639.674 571.901,642.966 578.177,642.966 C585.769,642.966 592.161,641.494 597.352,638.55"/>
<path class="Note" d="M618.153,503.007 C622.724,503.007 625.01,505.874 625.01,511.607 C625.01,515.635 622.492,521.64 617.456,529.619 C613.427,536.05 611.413,542.325 611.413,548.446 C611.413,551.932 616.488,553.675 626.637,553.675 C635.004,553.675 646.664,549.143 661.616,540.078 C646.586,554.566 633.532,561.81 622.453,561.81 C612.459,561.81 605.486,560.299 601.535,557.278 C600.528,556.503 599.676,555.573 598.979,554.489 C595.105,559.215 588.636,561.577 579.571,561.577 C570.894,561.577 564.232,559.796 559.583,556.232 C556.484,553.83 554.935,549.995 554.935,544.727 C554.935,536.36 559.893,527.218 569.81,517.301 C580.424,506.687 592.703,501.38 606.649,501.38 C610.135,501.38 612.691,502.659 614.318,505.215 C615.635,503.743 616.914,503.007 618.153,503.007 M597.352,549.259 C597.274,548.639 597.235,548.02 597.235,547.4 C597.235,547.09 601.187,536.282 609.089,514.977 C609.864,512.885 610.638,511.103 611.413,509.631 C608.392,509.011 605.409,508.702 602.465,508.702 C597.042,508.702 589.837,513.311 580.85,522.531 C572.792,530.743 568.764,537.832 568.764,543.797 C568.764,550.383 571.901,553.675 578.177,553.675 C585.769,553.675 592.161,552.203 597.352,549.259"/>
<path class="Note" d="M573.877,829.452 C570.081,829.452 568.183,825.384 568.183,817.249 L568.183,783.2 C568.183,779.946 569.771,778.319 572.947,778.319 C574.342,778.319 575.388,778.435 576.085,778.667 C578.564,774.329 582.632,770.688 588.287,767.743 C596.19,763.637 604.208,761.584 612.343,761.584 C618.773,761.584 621.988,763.986 621.988,768.789 C621.988,772.818 619.819,774.832 615.481,774.832 C612.382,774.832 609.438,774.135 606.649,772.741 C604.169,771.501 601.535,770.881 598.746,770.881 C593.943,770.881 586.854,774.019 577.48,780.294 C578.797,786.57 579.455,793.891 579.455,802.258 C579.455,820.387 577.596,829.452 573.877,829.452"/>
<path class="Note" d="M625.242,678.685 C635.701,672.099 643.294,666.715 648.02,662.531 C656.697,654.861 661.035,647.114 661.035,639.289 C661.035,630.147 654.915,625.576 642.674,625.576 C629.813,625.576 616.41,634.834 602.465,653.351 C593.013,665.901 586.312,677.755 582.36,688.911 C587.241,685.735 592.393,684.146 597.816,684.146 C602.93,684.146 606.997,686.432 610.019,691.003 C612.11,694.179 613.156,699.603 613.156,707.272 C613.156,714.168 609.515,722.264 602.232,731.561 C597.739,737.294 592.742,740.16 587.241,740.16 C580.269,740.16 575.388,738.766 572.599,735.977 C568.648,732.025 566.672,724.201 566.672,712.502 C566.672,692.824 574.613,673.455 590.495,654.396 C608.392,632.936 625.552,622.206 641.977,622.206 C654.682,622.206 664.173,625.189 670.448,631.154 C674.09,634.641 675.91,639.676 675.91,646.262 C675.91,653.622 668.666,661.834 654.179,670.898 C646.586,675.702 636.941,678.297 625.242,678.685 M580.85,693.792 C578.913,700.3 577.944,706.536 577.944,712.502 C577.944,726.68 580.191,733.769 584.685,733.769 C588.946,733.769 592.277,730.747 594.679,724.704 C597.468,717.886 598.862,710.333 598.862,702.043 C598.862,694.683 596.422,691.003 591.541,691.003 C588.132,691.003 584.568,691.933 580.85,693.792"/>
<path class="Note" d="M1330.69,949.464 C1335.26,949.464 1337.54,952.33 1337.54,958.063 C1337.54,962.092 1335.03,968.096 1329.99,976.076 C1325.96,982.507 1323.95,988.782 1323.95,994.902 C1323.95,998.389 1329.02,1000.13 1339.17,1000.13 C1347.54,1000.13 1359.2,995.6 1374.15,986.535 C1359.12,1001.02 1346.07,1008.27 1334.99,1008.27 C1324.99,1008.27 1318.02,1006.76 1314.07,1003.73 C1313.06,1002.96 1312.21,1002.03 1311.51,1000.95 C1307.64,1005.67 1301.17,1008.03 1292.11,1008.03 C1283.43,1008.03 1276.77,1006.25 1272.12,1002.69 C1269.02,1000.29 1267.47,996.452 1267.47,991.184 C1267.47,982.816 1272.43,973.674 1282.34,963.758 C1292.96,953.144 1305.24,947.837 1319.18,947.837 C1322.67,947.837 1325.23,949.115 1326.85,951.672 C1328.17,950.2 1329.45,949.464 1330.69,949.464 M1309.89,995.716 C1309.81,995.096 1309.77,994.476 1309.77,993.856 C1309.77,993.547 1313.72,982.739 1321.62,961.434 C1322.4,959.342 1323.17,957.56 1323.95,956.088 C1320.93,955.468 1317.94,955.158 1315,955.158 C1309.58,955.158 1302.37,959.768 1293.38,968.987 C1285.33,977.2 1281.3,984.288 1281.3,990.254 C1281.3,996.839 1284.44,1000.13 1290.71,1000.13 C1298.3,1000.13 1304.7,998.66 1309.89,995.716"/>
<path class="Note" d="M1330.69,592.299 C1335.26,592.299 1337.54,595.165 1337.54,600.898 C1337.54,604.927 1335.03,610.931 1329.99,618.911 C1325.96,625.341 1323.95,631.617 1323.95,637.737 C1323.95,641.223 1329.02,642.966 1339.17,642.966 C1347.54,642.966 1359.2,638.434 1374.15,629.37 C1359.12,643.857 1346.07,651.101 1334.99,651.101 C1324.99,651.101 1318.02,649.591 1314.07,646.569 C1313.06,645.794 1312.21,644.865 1311.51,643.78 C1307.64,648.506 1301.17,650.869 1292.11,650.869 C1283.43,650.869 1276.77,649.087 1272.12,645.523 C1269.02,643.121 1267.47,639.286 1267.47,634.018 C1267.47,625.651 1272.43,616.509 1282.34,606.592 C1292.96,595.979 1305.24,590.672 1319.18,590.672 C1322.67,590.672 1325.23,591.95 1326.85,594.507 C1328.17,593.035 1329.45,592.299 1330.69,592.299 M1309.89,638.55 C1309.81,637.931 1309.77,637.311 1309.77,636.691 C1309.77,636.381 1313.72,625.574 1321.62,604.268 C1322.4,602.176 1323.17,600.395 1323.95,598.923 C1320.93,598.303 1317.94,597.993 1315,597.993 C1309.58,597.993 1302.37,602.603 1293.38,611.822 C1285.33,620.034 1281.3,627.123 1281.3,633.089 C1281.3,639.674 1284.44,642.966 1290.71,642.966 C1298.3,642.966 1304.7,641.494 1309.89,638.55"/>
<path class="Note" d="M1286.41,918.743 C1282.62,918.743 1280.72,914.675 1280.72,906.541 L1280.72,872.491 C1280.72,869.237 1282.31,867.61 1285.48,867.61 C1286.88,867.61 1287.92,867.726 1288.62,867.959 C1291.1,863.62 1295.17,859.979 1300.82,857.035 C1308.72,852.929 1316.74,850.876 1324.88,850.876 C1331.31,850.876 1334.52,853.277 1334.52,858.081 C1334.52,862.109 1332.35,864.124 1328.01,864.124 C1324.92,864.124 1321.97,863.426 1319.18,862.032 C1316.7,860.792 1314.07,860.173 1311.28,860.173 C1306.48,860.173 1299.39,863.31 1290.01,869.586 C1291.33,875.861 1291.99,883.182 1291.99,891.549 C1291.99,909.678 1290.13,918.743 1286.41,918.743"/>
<path class="Note" d="M1330.69,503.007 C1335.26,503.007 1337.54,505.874 1337.54,511.607 C1337.54,515.635 1335.03,521.64 1329.99,529.619 C1325.96,536.05 1323.95,542.325 1323.95,548.446 C1323.95,551.932 1329.02,553.675 1339.17,553.675 C1347.54,553.675 1359.2,549.143 1374.15,540.078 C1359.12,554.566 1346.07,561.81 1334.99,561.81 C1324.99,561.81 1318.02,560.299 1314.07,557.278 C1313.06,556.503 1312.21,555.573 1311.51,554.489 C1307.64,559.215 1301.17,561.577 1292.11,561.577 C1283.43,561.577 1276.77,559.796 1272.12,556.232 C1269.02,553.83 1267.47,549.995 1267.47,544.727 C1267.47,536.36 1272.43,527.218 1282.34,517.301 C1292.96,506.687 1305.24,501.38 1319.18,501.38 C1322.67,501.38 1325.23,502.659 1326.85,505.215 C1328.17,503.743 1329.45,503.007 1330.69,503.007 M1309.89,549.259 C1309.81,548.639 1309.77,548.02 1309.77,547.4 C1309.77,547.09 1313.72,536.282 1321.62,514.977 C1322.4,512.885 1323.17,511.103 1323.95,509.631 C1320.93,509.011 1317.94,508.702 1315,508.702 C1309.58,508.702 1302.37,513.311 1293.38,522.531 C1285.33,530.743 1281.3,537.832 1281.3,543.797 C1281.3,550.383 1284.44,553.675 1290.71,553.675 C1298.3,553.675 1304.7,552.203 1309.89,549.259"/>
<path class="Note" d="M1286.41,829.452 C1282.62,829.452 1280.72,825.384 1280.72,817.249 L1280.72,783.2 C1280.72,779.946 1282.31,778.319 1285.48,778.319 C1286.88,778.319 1287.92,778.435 1288.62,778.667 C1291.1,774.329 1295.17,770.688 1300.82,767.743 C1308.72,763.637 1316.74,761.584 1324.88,761.584 C1331.31,761.584 1334.52,763.986 1334.52,768.789 C1334.52,772.818 1332.35,774.832 1328.01,774.832 C1324.92,774.832 1321.97,774.135 1319.18,772.741 C1316.7,771.501 1314.07,770.881 1311.28,770.881 C1306.48,770.881 1299.39,774.019 1290.01,780.294 C1291.33,786.57 1291.99,793.891 1291.99,802.258 C1291.99,820.387 1290.13,829.452 1286.41,829.452"/>
<path class="Note" d="M1337.78,678.685 C1348.24,672.099 1355.83,666.715 1360.55,662.531 C1369.23,654.861 1373.57,647.114 1373.57,639.289 C1373.57,630.147 1367.45,625.576 1355.21,625.576 C1342.35,625.576 1328.94,634.834 1315,653.351 C1305.55,665.901 1298.85,677.755 1294.89,688.911 C1299.78,685.735 1304.93,684.146 1310.35,684.146 C1315.46,684.146 1319.53,686.432 1322.55,691.003 C1324.64,694.179 1325.69,699.603 1325.69,707.272 C1325.69,714.168 1322.05,722.264 1314.77,731.561 C1310.27,737.294 1305.28,740.16 1299.78,740.16 C1292.8,740.16 1287.92,738.766 1285.13,735.977 C1281.18,732.025 1279.21,724.201 1279.21,712.502 C1279.21,692.824 1287.15,673.455 1303.03,654.396 C1320.93,632.936 1338.09,622.206 1354.51,622.206 C1367.22,622.206 1376.71,625.189 1382.98,631.154 C1386.62,634.641 1388.44,639.676 1388.44,646.262 C1388.44,653.622 1381.2,661.834 1366.71,670.898 C1359.12,675.702 1349.48,678.297 1337.78,678.685 M1293.38,693.792 C1291.45,700.3 1290.48,706.536 1290.48,712.502 C1290.48,726.68 1292.73,733.769 1297.22,733.769 C1301.48,733.769 1304.81,730.747 1307.21,724.704 C1310,717.886 1311.4,710.333 1311.4,702.043 C1311.4,694.683 1308.96,691.003 1304.08,691.003 C1300.67,691.003 1297.1,691.933 1293.38,693.792"/>
<path class="Note" d="M2067.7,949.464 C2072.27,949.464 2074.55,952.33 2074.55,958.063 C2074.55,962.092 2072.04,968.096 2067,976.076 C2062.97,982.507 2060.96,988.782 2060.96,994.902 C2060.96,998.389 2066.03,1000.13 2076.18,1000.13 C2084.55,1000.13 2096.21,995.6 2111.16,986.535 C2096.13,1001.02 2083.08,1008.27 2072,1008.27 C2062,1008.27 2055.03,1006.76 2051.08,1003.73 C2050.07,1002.96 2049.22,1002.03 2048.52,1000.95 C2044.65,1005.67 2038.18,1008.03 2029.12,1008.03 C2020.44,1008.03 2013.78,1006.25 2009.13,1002.69 C2006.03,1000.29 2004.48,996.452 2004.48,991.184 C2004.48,982.816 2009.44,973.674 2019.35,963.758 C2029.97,953.144 2042.25,947.837 2056.19,947.837 C2059.68,947.837 2062.24,949.115 2063.86,951.672 C2065.18,950.2 2066.46,949.464 2067.7,949.464 M2046.9,995.716 C2046.82,995.096 2046.78,994.476 2046.78,993.856 C2046.78,993.547 2050.73,982.739 2058.63,961.434 C2059.41,959.342 2060.18,957.56 2060.96,956.088 C2057.94,955.468 2054.95,955.158 2052.01,955.158 C2046.59,955.158 2039.38,959.768 2030.39,968.987 C2022.34,977.2 2018.31,984.288 2018.31,990.254 C2018.31,996.839 2021.45,1000.13 2027.72,1000.13 C2035.31,1000.13 2041.7,998.66 2046.9,995.716"/>
<path class="Note" d="M2082.57,569.521 C2086.91,566.577 2090.05,564.137 2091.99,562.2 C2095.55,558.404 2097.33,554.917 2097.33,551.741 C2097.33,548.1 2095.32,546.279 2091.29,546.279 C2083.46,546.279 2075.1,553.174 2066.19,566.965 C2063.47,571.148 2057.51,584.784 2048.29,607.871 C2055.65,615.463 2059.33,619.763 2059.33,620.77 C2059.33,622.165 2058.44,622.862 2056.66,622.862 C2055.26,622.862 2051.43,620.499 2045.15,615.773 C2038.33,631.655 2027.99,645.213 2014.12,656.447 C1999.95,667.913 1983.02,673.646 1963.34,673.646 C1955.82,673.646 1946.41,671.903 1935.1,668.417 C1926.04,665.628 1921.5,661.173 1921.5,655.052 C1921.5,645.988 1924.99,641.456 1931.96,641.456 C1936.15,641.456 1938.24,643.393 1938.24,647.266 C1938.24,648.506 1937.27,649.823 1935.33,651.217 C1934.33,651.915 1933.82,653.271 1933.82,655.285 C1933.82,657.687 1936.5,660.166 1941.84,662.722 C1947.65,665.511 1956.17,666.906 1967.41,666.906 C1981.89,666.906 1995.88,660.631 2009.36,648.08 C2021.6,636.691 2030.39,623.443 2035.74,608.336 C2033.65,606.631 2031.4,604.772 2029,602.758 C2021.56,598.341 2017.84,593.809 2017.84,589.161 C2017.84,587.224 2019.12,586.256 2021.68,586.256 C2025.09,586.256 2029.7,589.161 2035.51,594.971 C2036.75,596.211 2037.91,597.373 2038.99,598.458 C2041.7,591.02 2046.04,581.568 2052.01,570.102 C2062.78,549.339 2075.87,538.958 2091.29,538.958 C2096.79,538.958 2101.13,540.004 2104.3,542.095 C2107.48,544.187 2109.07,547.054 2109.07,550.695 C2109.07,556.506 2106.94,561.425 2102.68,565.454 C2098.26,569.637 2093.65,571.729 2088.85,571.729 C2084.66,571.729 2082.57,570.993 2082.57,569.521"/>
<path class="Note" d="M1956.61,506.958 C1956.92,495.26 1963.39,484.878 1976.02,475.814 C1987.25,467.757 1999.53,463.728 2012.85,463.728 C2031.53,463.728 2047.99,471.049 2062.24,485.692 C2071.31,495.066 2075.84,506.687 2075.84,520.555 C2075.84,533.028 2072.51,542.596 2065.85,549.259 C2057.71,557.471 2049.11,561.577 2040.05,561.577 C2033.85,561.577 2029.05,560.183 2025.64,557.394 C2020.06,552.823 2017.27,546.702 2017.27,539.033 C2017.27,529.116 2022.23,520.051 2032.15,511.839 C2040.28,505.099 2048.45,500.683 2056.67,498.591 C2054.5,494.872 2051.75,491.386 2048.42,488.132 C2038.03,477.983 2026.26,472.909 2013.09,472.909 C1999.37,472.909 1988.02,475.891 1979.04,481.857 C1969.74,487.977 1962.26,496.344 1956.61,506.958 M2059.57,504.75 C2055.31,508.702 2051.05,512.924 2046.79,517.417 C2038.42,526.249 2034.24,534.617 2034.24,542.519 C2034.24,550.964 2036.17,555.186 2040.05,555.186 C2043.53,555.186 2048.42,550.421 2054.69,540.892 C2059.73,533.299 2062.24,526.327 2062.24,519.974 C2062.24,514.551 2061.35,509.476 2059.57,504.75"/>
<path class="Note" d="M2082.57,658.813 C2086.91,655.869 2090.05,653.428 2091.99,651.491 C2095.55,647.695 2097.33,644.209 2097.33,641.032 C2097.33,637.391 2095.32,635.57 2091.29,635.57 C2083.46,635.57 2075.1,642.466 2066.19,656.256 C2063.47,660.439 2057.51,674.075 2048.29,697.162 C2055.65,704.755 2059.33,709.054 2059.33,710.062 C2059.33,711.456 2058.44,712.153 2056.66,712.153 C2055.26,712.153 2051.43,709.79 2045.15,705.064 C2038.33,720.947 2027.99,734.505 2014.12,745.738 C1999.95,757.204 1983.02,762.938 1963.34,762.938 C1955.82,762.938 1946.41,761.194 1935.1,757.708 C1926.04,754.919 1921.5,750.464 1921.5,744.344 C1921.5,735.279 1924.99,730.747 1931.96,730.747 C1936.15,730.747 1938.24,732.684 1938.24,736.558 C1938.24,737.797 1937.27,739.114 1935.33,740.509 C1934.33,741.206 1933.82,742.562 1933.82,744.576 C1933.82,746.978 1936.5,749.457 1941.84,752.014 C1947.65,754.803 1956.17,756.197 1967.41,756.197 C1981.89,756.197 1995.88,749.922 2009.36,737.371 C2021.6,725.982 2030.39,712.734 2035.74,697.627 C2033.65,695.923 2031.4,694.063 2029,692.049 C2021.56,687.633 2017.84,683.101 2017.84,678.452 C2017.84,676.515 2019.12,675.547 2021.68,675.547 C2025.09,675.547 2029.7,678.452 2035.51,684.263 C2036.75,685.502 2037.91,686.664 2038.99,687.749 C2041.7,680.312 2046.04,670.86 2052.01,659.394 C2062.78,638.631 2075.87,628.249 2091.29,628.249 C2096.79,628.249 2101.13,629.295 2104.3,631.387 C2107.48,633.479 2109.07,636.345 2109.07,639.986 C2109.07,645.797 2106.94,650.716 2102.68,654.745 C2098.26,658.929 2093.65,661.021 2088.85,661.021 C2084.66,661.021 2082.57,660.285 2082.57,658.813"/>
<path class="Note" d="M2817.42,569.521 C2821.76,566.577 2824.9,564.137 2826.83,562.2 C2830.4,558.404 2832.18,554.917 2832.18,551.741 C2832.18,548.1 2830.16,546.279 2826.14,546.279 C2818.31,546.279 2809.94,553.174 2801.03,566.965 C2798.32,571.148 2792.36,584.784 2783.14,607.871 C2790.5,615.463 2794.18,619.763 2794.18,620.77 C2794.18,622.165 2793.29,622.862 2791.5,622.862 C2790.11,622.862 2786.28,620.499 2780,615.773 C2773.18,631.655 2762.84,645.213 2748.97,656.447 C2734.79,667.913 2717.87,673.646 2698.19,673.646 C2690.67,673.646 2681.26,671.903 2669.95,668.417 C2660.88,665.628 2656.35,661.173 2656.35,655.052 C2656.35,645.988 2659.84,641.456 2666.81,641.456 C2670.99,641.456 2673.09,643.393 2673.09,647.266 C2673.09,648.506 2672.12,649.823 2670.18,651.217 C2669.17,651.915 2668.67,653.271 2668.67,655.285 C2668.67,657.687 2671.34,660.166 2676.69,662.722 C2682.5,665.511 2691.02,666.906 2702.25,666.906 C2716.74,666.906 2730.73,660.631 2744.21,648.08 C2756.45,636.691 2765.24,623.443 2770.59,608.336 C2768.5,606.631 2766.25,604.772 2763.85,602.758 C2756.41,598.341 2752.69,593.809 2752.69,589.161 C2752.69,587.224 2753.97,586.256 2756.53,586.256 C2759.93,586.256 2764.54,589.161 2770.35,594.971 C2771.59,596.211 2772.76,597.373 2773.84,598.458 C2776.55,591.02 2780.89,581.568 2786.86,570.102 C2797.63,549.339 2810.72,538.958 2826.14,538.958 C2831.64,538.958 2835.98,540.004 2839.15,542.095 C2842.33,544.187 2843.92,547.054 2843.92,550.695 C2843.92,556.506 2841.79,561.425 2837.52,565.454 C2833.11,569.637 2828.5,571.729 2823.7,571.729 C2819.51,571.729 2817.42,570.993 2817.42,569.521"/>
<path class="Note" d="M2744.79,918.743 C2740.6,918.743 2738.51,916.845 2738.51,913.049 C2738.51,906.618 2739.48,901.892 2741.42,898.871 C2749.48,886.94 2766.98,864.627 2793.95,831.933 C2806.11,817.136 2821.8,809.737 2841.01,809.737 C2848.45,809.737 2853.6,810.783 2856.47,812.875 C2860.88,816.129 2863.09,820.041 2863.09,824.612 C2863.09,829.415 2859.22,834.761 2851.47,840.649 C2844.11,846.227 2837.14,849.016 2830.55,849.016 C2828,849.016 2826.72,848.745 2826.72,848.203 C2826.72,847.428 2827.96,846.615 2830.44,845.762 C2833.77,844.523 2837.33,842.005 2841.13,838.209 C2845.47,833.793 2847.63,829.803 2847.63,826.239 C2847.63,823.837 2845.97,821.552 2842.64,819.382 C2839.69,817.523 2834.93,816.593 2828.34,816.593 C2818.74,816.593 2806.61,826.278 2791.97,845.646 C2782.21,858.584 2774.31,869.973 2768.26,879.812 C2771.21,878.185 2774.73,876.21 2778.84,873.885 C2783.87,871.019 2788.21,869.586 2791.85,869.586 C2800.92,869.586 2805.45,872.84 2805.45,879.347 C2805.45,885.778 2801.73,892.828 2794.29,900.498 C2789.03,905.921 2786.39,909.95 2786.39,912.584 C2786.39,915.295 2789.03,916.651 2794.29,916.651 C2796.93,916.651 2799.64,915.721 2802.43,913.862 C2805.22,912.08 2807.27,911.189 2808.59,911.189 C2809.67,911.189 2810.21,911.886 2810.21,913.281 C2810.21,915.528 2808.05,917.891 2803.71,920.37 C2796.42,924.553 2790.58,926.645 2786.16,926.645 C2778.33,926.645 2774.42,922.462 2774.42,914.094 C2774.42,908.826 2777.44,902.977 2783.49,896.547 C2787.9,891.821 2790.11,887.133 2790.11,882.485 C2790.11,878.456 2787.94,876.442 2783.6,876.442 C2781.9,876.442 2776.24,878.456 2766.64,882.485 C2763.77,887.288 2761.37,891.704 2759.43,895.733 C2752.07,911.073 2747.19,918.743 2744.79,918.743"/>
<path class="Note" d="M2817.42,748.104 C2821.76,745.16 2824.9,742.719 2826.83,740.783 C2830.4,736.986 2832.18,733.5 2832.18,730.324 C2832.18,726.682 2830.16,724.862 2826.14,724.862 C2818.31,724.862 2809.94,731.757 2801.03,745.547 C2798.32,749.731 2792.36,763.366 2783.14,786.453 C2790.5,794.046 2794.18,798.346 2794.18,799.353 C2794.18,800.747 2793.29,801.445 2791.5,801.445 C2790.11,801.445 2786.28,799.082 2780,794.356 C2773.18,810.238 2762.84,823.796 2748.97,835.03 C2734.79,846.496 2717.87,852.229 2698.19,852.229 C2690.67,852.229 2681.26,850.486 2669.95,846.999 C2660.88,844.21 2656.35,839.756 2656.35,833.635 C2656.35,824.571 2659.84,820.038 2666.81,820.038 C2670.99,820.038 2673.09,821.975 2673.09,825.849 C2673.09,827.089 2672.12,828.406 2670.18,829.8 C2669.17,830.497 2668.67,831.853 2668.67,833.868 C2668.67,836.269 2671.34,838.748 2676.69,841.305 C2682.5,844.094 2691.02,845.489 2702.25,845.489 C2716.74,845.489 2730.73,839.213 2744.21,826.662 C2756.45,815.274 2765.24,802.026 2770.59,786.918 C2768.5,785.214 2766.25,783.355 2763.85,781.34 C2756.41,776.924 2752.69,772.392 2752.69,767.743 C2752.69,765.807 2753.97,764.838 2756.53,764.838 C2759.93,764.838 2764.54,767.743 2770.35,773.554 C2771.59,774.794 2772.76,775.956 2773.84,777.04 C2776.55,769.603 2780.89,760.151 2786.86,748.685 C2797.63,727.922 2810.72,717.54 2826.14,717.54 C2831.64,717.54 2835.98,718.586 2839.15,720.678 C2842.33,722.77 2843.92,725.636 2843.92,729.278 C2843.92,735.088 2841.79,740.008 2837.52,744.036 C2833.11,748.22 2828.5,750.312 2823.7,750.312 C2819.51,750.312 2817.42,749.576 2817.42,748.104"/>
<path class="Note" d="M2817.42,658.813 C2821.76,655.869 2824.9,653.428 2826.83,651.491 C2830.4,647.695 2832.18,644.209 2832.18,641.032 C2832.18,637.391 2830.16,635.57 2826.14,635.57 C2818.31,635.57 2809.94,642.466 2801.03,656.256 C2798.32,660.439 2792.36,674.075 2783.14,697.162 C2790.5,704.755 2794.18,709.054 2794.18,710.062 C2794.18,711.456 2793.29,712.153 2791.5,712.153 C2790.11,712.153 2786.28,709.79 2780,705.064 C2773.18,720.947 2762.84,734.505 2748.97,745.738 C2734.79,757.204 2717.87,762.938 2698.19,762.938 C2690.67,762.938 2681.26,761.194 2669.95,757.708 C2660.88,754.919 2656.35,750.464 2656.35,744.344 C2656.35,735.279 2659.84,730.747 2666.81,730.747 C2670.99,730.747 2673.09,732.684 2673.09,736.558 C2673.09,737.797 2672.12,739.114 2670.18,740.509 C2669.17,741.206 2668.67,742.562 2668.67,744.576 C2668.67,746.978 2671.34,749.457 2676.69,752.014 C2682.5,754.803 2691.02,756.197 2702.25,756.197 C2716.74,756.197 2730.73,749.922 2744.21,737.371 C2756.45,725.982 2765.24,712.734 2770.59,697.627 C2768.5,695.923 2766.25,694.063 2763.85,692.049 C2756.41,687.633 2752.69,683.101 2752.69,678.452 C2752.69,676.515 2753.97,675.547 2756.53,675.547 C2759.93,675.547 2764.54,678.452 2770.35,684.263 C2771.59,685.502 2772.76,686.664 2773.84,687.749 C2776.55,680.312 2780.89,670.86 2786.86,659.394 C2797.63,638.631 2810.72,628.249 2826.14,628.249 C2831.64,628.249 2835.98,629.295 2839.15,631.387 C2842.33,633.479 2843.92,636.345 2843.92,639.986 C2843.92,645.797 2841.79,650.716 2837.52,654.745 C2833.11,658.929 2828.5,661.021 2823.7,661.021 C2819.51,661.021 2817.42,660.285 2817.42,658.813"/>
<path class="Note" d="M2744.79,561.577 C2740.6,561.577 2738.51,559.679 2738.51,555.883 C2738.51,549.453 2739.48,544.727 2741.42,541.705 C2749.48,529.774 2766.98,507.462 2793.95,474.768 C2806.11,459.97 2821.8,452.572 2841.01,452.572 C2848.45,452.572 2853.6,453.618 2856.47,455.709 C2860.88,458.963 2863.09,462.876 2863.09,467.447 C2863.09,472.25 2859.22,477.596 2851.47,483.484 C2844.11,489.062 2837.14,491.851 2830.55,491.851 C2828,491.851 2826.72,491.58 2826.72,491.037 C2826.72,490.263 2827.96,489.449 2830.44,488.597 C2833.77,487.357 2837.33,484.84 2841.13,481.043 C2845.47,476.627 2847.63,472.637 2847.63,469.074 C2847.63,466.672 2845.97,464.386 2842.64,462.217 C2839.69,460.358 2834.93,459.428 2828.34,459.428 C2818.74,459.428 2806.61,469.112 2791.97,488.481 C2782.21,501.419 2774.31,512.808 2768.26,522.647 C2771.21,521.02 2774.73,519.044 2778.84,516.72 C2783.87,513.854 2788.21,512.42 2791.85,512.42 C2800.92,512.42 2805.45,515.674 2805.45,522.182 C2805.45,528.612 2801.73,535.662 2794.29,543.332 C2789.03,548.756 2786.39,552.784 2786.39,555.418 C2786.39,558.13 2789.03,559.486 2794.29,559.486 C2796.93,559.486 2799.64,558.556 2802.43,556.697 C2805.22,554.915 2807.27,554.024 2808.59,554.024 C2809.67,554.024 2810.21,554.721 2810.21,556.116 C2810.21,558.362 2808.05,560.725 2803.71,563.204 C2796.42,567.388 2790.58,569.48 2786.16,569.48 C2778.33,569.48 2774.42,565.296 2774.42,556.929 C2774.42,551.661 2777.44,545.812 2783.49,539.381 C2787.9,534.655 2790.11,529.968 2790.11,525.32 C2790.11,521.291 2787.94,519.277 2783.6,519.277 C2781.9,519.277 2776.24,521.291 2766.64,525.32 C2763.77,530.123 2761.37,534.539 2759.43,538.568 C2752.07,553.908 2747.19,561.577 2744.79,561.577"/>
<path class="Note" d="M3491.35,918.743 C3487.17,918.743 3485.08,916.845 3485.08,913.049 C3485.08,906.618 3486.05,901.892 3487.98,898.871 C3496.04,886.94 3513.55,864.627 3540.51,831.933 C3552.67,817.136 3568.36,809.737 3587.58,809.737 C3595.01,809.737 3600.17,810.783 3603.03,812.875 C3607.45,816.129 3609.66,820.041 3609.66,824.612 C3609.66,829.415 3605.78,834.761 3598.04,840.649 C3590.68,846.227 3583.7,849.016 3577.12,849.016 C3574.56,849.016 3573.28,848.745 3573.28,848.203 C3573.28,847.428 3574.52,846.615 3577,845.762 C3580.33,844.523 3583.9,842.005 3587.69,838.209 C3592.03,833.793 3594.2,829.803 3594.2,826.239 C3594.2,823.837 3592.53,821.552 3589.2,819.382 C3586.26,817.523 3581.49,816.593 3574.91,816.593 C3565.3,816.593 3553.18,826.278 3538.54,845.646 C3528.77,858.584 3520.87,869.973 3514.83,879.812 C3517.77,878.185 3521.3,876.21 3525.4,873.885 C3530.44,871.019 3534.78,869.586 3538.42,869.586 C3547.48,869.586 3552.02,872.84 3552.02,879.347 C3552.02,885.778 3548.3,892.828 3540.86,900.498 C3535.59,905.921 3532.96,909.95 3532.96,912.584 C3532.96,915.295 3535.59,916.651 3540.86,916.651 C3543.49,916.651 3546.21,915.721 3548.99,913.862 C3551.78,912.08 3553.84,911.189 3555.15,911.189 C3556.24,911.189 3556.78,911.886 3556.78,913.281 C3556.78,915.528 3554.61,917.891 3550.27,920.37 C3542.99,924.553 3537.14,926.645 3532.72,926.645 C3524.9,926.645 3520.99,922.462 3520.99,914.094 C3520.99,908.826 3524.01,902.977 3530.05,896.547 C3534.47,891.821 3536.68,887.133 3536.68,882.485 C3536.68,878.456 3534.51,876.442 3530.17,876.442 C3528.46,876.442 3522.81,878.456 3513.2,882.485 C3510.33,887.288 3507.93,891.704 3506,895.733 C3498.64,911.073 3493.76,918.743 3491.35,918.743"/>
<path class="Note" d="M3520.64,585.21 C3524.44,585.21 3526.33,588.115 3526.33,593.925 C3526.33,598.109 3524.36,602.912 3520.41,608.336 C3516.92,613.216 3515.18,620.77 3515.18,630.997 C3515.18,635.878 3516.46,639.132 3519.01,640.758 C3520.79,641.998 3524.13,642.657 3529.01,642.734 C3534.27,642.734 3541.75,640.061 3551.43,634.716 L3553.29,636.575 C3550.81,639.751 3547.83,642.618 3544.35,645.174 C3539.16,648.971 3533.85,650.869 3528.42,650.869 C3520.6,650.869 3514.67,649.745 3510.64,647.499 C3505.61,644.71 3503.09,641.223 3503.09,637.04 C3503.09,625.496 3504.56,613.449 3507.51,600.898 C3508.59,596.327 3510.95,592.144 3514.6,588.347 C3516.69,586.256 3518.7,585.21 3520.64,585.21"/>
<path class="Note" d="M3491.35,561.577 C3487.17,561.577 3485.08,559.679 3485.08,555.883 C3485.08,549.453 3486.05,544.727 3487.98,541.705 C3496.04,529.774 3513.55,507.462 3540.51,474.768 C3552.67,459.97 3568.36,452.572 3587.58,452.572 C3595.01,452.572 3600.17,453.618 3603.03,455.709 C3607.45,458.963 3609.66,462.876 3609.66,467.447 C3609.66,472.25 3605.78,477.596 3598.04,483.484 C3590.68,489.062 3583.7,491.851 3577.12,491.851 C3574.56,491.851 3573.28,491.58 3573.28,491.037 C3573.28,490.263 3574.52,489.449 3577,488.597 C3580.33,487.357 3583.9,484.84 3587.69,481.043 C3592.03,476.627 3594.2,472.637 3594.2,469.074 C3594.2,466.672 3592.53,464.386 3589.2,462.217 C3586.26,460.358 3581.49,459.428 3574.91,459.428 C3565.3,459.428 3553.18,469.112 3538.54,488.481 C3528.77,501.419 3520.87,512.808 3514.83,522.647 C3517.77,521.02 3521.3,519.044 3525.4,516.72 C3530.44,513.854 3534.78,512.42 3538.42,512.42 C3547.48,512.42 3552.02,515.674 3552.02,522.182 C3552.02,528.612 3548.3,535.662 3540.86,543.332 C3535.59,548.756 3532.96,552.784 3532.96,555.418 C3532.96,558.13 3535.59,559.486 3540.86,559.486 C3543.49,559.486 3546.21,558.556 3548.99,556.697 C3551.78,554.915 3553.84,554.024 3555.15,554.024 C3556.24,554.024 3556.78,554.721 3556.78,556.116 C3556.78,558.362 3554.61,560.725 3550.27,563.204 C3542.99,567.388 3537.14,569.48 3532.72,569.48 C3524.9,569.48 3520.99,565.296 3520.99,556.929 C3520.99,551.661 3524.01,545.812 3530.05,539.381 C3534.47,534.655 3536.68,529.968 3536.68,525.32 C3536.68,521.291 3534.51,519.277 3530.17,519.277 C3528.46,519.277 3522.81,521.291 3513.2,525.32 C3510.33,530.123 3507.93,534.539 3506,538.568 C3498.64,553.908 3493.76,561.577 3491.35,561.577"/>
<path class="Note" d="M3552.25,755.541 C3554.65,755.541 3556.39,756.045 3557.48,757.052 C3558.72,758.137 3559.34,759.725 3559.34,761.817 C3559.34,764.451 3558.17,766.698 3555.85,768.557 C3545.78,775.685 3535.44,784.749 3524.82,795.75 C3527.22,806.364 3530.17,814.228 3533.65,819.341 C3538.23,826.081 3541.36,829.452 3543.07,829.452 C3544.62,829.452 3546.28,828.483 3548.06,826.546 C3549.3,825.229 3550.51,824.571 3551.67,824.571 C3554.15,824.571 3555.39,825.888 3555.39,828.522 C3555.39,831.311 3553.18,835.107 3548.76,839.91 C3546.36,842.39 3543.84,843.629 3541.21,843.629 C3535.79,843.629 3530.32,838.555 3524.82,828.406 C3519.24,818.179 3515.41,808.534 3513.32,799.469 C3509.44,811.4 3507.51,818.721 3507.51,821.433 C3507.51,826.779 3504.45,829.452 3498.33,829.452 C3494.99,829.452 3493.33,826.353 3493.33,820.155 C3493.33,817.211 3497.01,804.04 3504.37,780.643 C3508.01,769.177 3510.99,761.158 3513.32,756.587 C3513.86,755.658 3515.25,755.193 3517.5,755.193 C3520.14,755.193 3521.96,755.735 3522.96,756.82 C3523.97,757.904 3524.47,760.151 3524.47,763.56 C3524.47,765.264 3522.81,771.152 3519.48,781.224 C3527.77,773.089 3537.1,765.148 3547.48,757.401 C3549.11,756.161 3550.7,755.541 3552.25,755.541"/>
<path class="Note" d="M3525.87,634.292 C3528.35,634.292 3530.05,634.912 3530.98,636.151 C3532.38,638.243 3533.07,641.187 3533.07,644.983 C3533.07,649.399 3529.97,659.975 3523.78,676.709 C3513.63,705.142 3508.55,720.211 3508.55,721.915 C3508.55,726.486 3510.37,728.81 3514.01,728.888 C3515.56,728.888 3519.52,726.486 3525.87,721.683 C3532.14,717.112 3536.99,714.826 3540.39,714.826 C3541.79,714.826 3542.49,715.678 3542.49,717.383 C3542.49,720.249 3538.65,724.007 3530.98,728.655 C3518.43,736.325 3509.75,740.16 3504.95,740.16 C3497.28,740.16 3493.45,737.139 3493.45,731.096 C3493.45,730.941 3498.75,713.16 3509.37,677.755 C3515.8,656.45 3519.71,642.582 3521.1,636.151 C3521.34,634.912 3522.92,634.292 3525.87,634.292"/>
<path class="Clef" transform="matrix(2.3811,0,0,2.3811,212.156,2196.22)" d="M25.4,-25.1 C17.8,-25.1 11.7,-20.7 11.6,-20.7 C5.8,-16.4 3.5,-11.3 2.6,-7.8 C2.1,-6 1.9,-4.2 1.9,-2.5 C1.9,-0.1 2.3,2.1 3.2,4 C4.4,6.7 6.7,8.6 9.7,9.6 C10.9,10 12.2,10.2 13.5,10.2 C15.7,10.2 18,9.6 19.9,8.5 C23,6.8 24.9,3.2 24.9,-0.7 C24.9,-4.2 23.1,-7.4 20.1,-9.3 C18,-10.7 16,-11.1 14.3,-11.1 C13.1,-11.1 12,-10.9 11.1,-10.6 C10.1,-10.2 8.4,-9.2 7.6,-8.5 C7.9,-10.4 9.1,-13.3 10.2,-14.9 C11.3,-16.5 13.5,-18.5 15.2,-19.4 C17.7,-20.8 20.9,-21.4 24.4,-21.4 C34.6,-21.4 39.6,-13.2 39.6,3.6 C39.6,12.9 36.1,21.8 33.1,27.7 C29.8,34.3 25.4,40.6 21.5,44.1 C11.1,53.6 1.3,58.1 1.2,58.1 C1.2,58.1 -0.3,59 0.1,60.5 C0.4,61.5 1.3,61.7 1.9,61.7 C2,61.7 2.3,61.6 2.4,61.6 C2.5,61.6 13.9,56.9 23,49.8 C28.1,46.1 32.7,42.1 36.7,37.8 C40.3,33.9 43.4,29.7 45.9,25.5 C50.3,18 52.8,10.2 52.8,3.5 C52.8,-4.8 50.6,-11.7 46.5,-16.6 C41.8,-22.2 34.7,-25.1 25.4,-25.1 M56.8,-12.4 C56.8,-9.6 59,-7.4 61.6,-7.4 C64.2,-7.4 66.4,-9.6 66.4,-12.4 C66.4,-15.2 64.2,-17.5 61.6,-17.5 C59,-17.5 56.8,-15.2 56.8,-12.4 M56.8,12.3 C56.8,15.1 59,17.4 61.6,17.4 C64.2,17.4 66.4,15.1 66.4,12.3 C66.4,9.5 64.2,7.2 61.6,7.2 C59,7.2 56.8,9.5 56.8,12.3"/>
<path class="Clef" transform="matrix(2.3811,0,0,2.3811,212.156,1578.73)" d="M63.37,-5.89004 C62.14,-11.32 59.5,-15.14 58.72,-16.1801 C55.5301,-20.45 51.52,-23.3 46.8301,-24.65 C43.72,-25.54 40.72,-25.65 38.3,-25.47 C37.2601,-31.4801 36.2601,-37.3601 35.35,-42.8101 C40.79,-48.97 44.42,-54.77 46.69,-59.07 C50.1601,-65.65 51.3101,-70.2301 51.3601,-70.4301 C53.0801,-75.64 53.44,-83.34 52.34,-91.55 C51.3301,-99.1 49.24,-105.81 46.89,-109.06 C45.8601,-110.49 44.8101,-111.22 43.77,-111.22 C42.55,-111.22 40.04,-109.98 37.15,-107.21 C34.85,-105.01 31.5801,-101.12 29.02,-95.1101 C26.02,-88.05 25.8101,-78.5601 26.1601,-71.84 C26.54,-64.57 27.65,-58.8801 27.6601,-58.8301 C27.6801,-58.74 27.94,-57.24 28.39,-54.67 C28.1601,-54.44 27.92,-54.22 27.67,-53.9801 C26.6301,-52.9801 25.44,-51.84 24.0601,-50.4601 C23.2,-49.6 22.25,-48.69 21.25,-47.72 C12.79,-39.57 0,-27.25 0,-8.1 C0,-3.4 0.9,1.01992 2.68008,5.02998 C4.27002,8.62998 6.57002,11.91 9.5,14.78 C17.2301,22.33 27.82,25.5399 34.8801,25.38 C37.8301,25.31 40.4601,25.0699 42.85,24.6199 C44.6801,34.2199 45.82,41.25 45.8601,46.5899 C45.9,53.1 44.25,57.0699 40.35,59.8399 C37.92,61.5699 35.1101,62.5199 32.0101,62.6699 C29.42,62.7899 27.1601,62.3199 25.7301,61.91 L25.72,61.91 C25.72,61.91 25.4301,61.83 25.42,61.63 C25.4101,61.45 25.7601,61.4 25.77,61.4 L25.79,61.4 C27.7101,60.96 31.2801,59.73 33.64,56.43 C35.44,53.91 36.3101,49.2899 34.47,45.35 C33.3601,42.96 30.85,40.01 25.2301,39.56 C22.74,39.36 20.47,39.8699 18.47,41.0699 C16.6601,42.15 15.1601,43.7899 14.1101,45.7899 C11.65,50.4899 12.1101,56.2199 15.24,60.06 C18.2,63.68 22.82,65.9899 28.25,66.5699 C29.1,66.66 29.95,66.7 30.8,66.7 C31.5101,66.7 32.22,66.6699 32.92,66.61 C31.72,66.9399 30.64,67.4899 29.77,68.25 C28.2801,69.5399 27.44,71.38 27.44,73.41 C27.44,75.28 28.0601,76.65 29.55,78.0399 C28.4101,78.5 27.55,78.98 26.79,79.56 C25.25,80.73 24.34,82.46 24.34,84.1899 C24.34,87.45 27.3,89.63 31.72,89.63 C37.1301,89.63 40.9101,86.63 40.9101,82.35 C40.9101,80.1199 39.9101,78.18 38.0801,76.83 C41.0101,75.6199 42.37,73.9399 42.37,71.56 C42.39,70.05 41.69,68.61 40.49,67.6899 C39.2801,66.7399 37.62,66.2399 35.69,66.2399 L35.5101,66.2399 C38.2801,65.7 40.92,64.7 43.2101,63.28 C46.87,60.71 48.99,56.73 49.67,51.1 C50.2301,46.46 49.84,40.55 48.44,32.48 C48.0801,30.3899 47.54,27.36 46.8801,23.6 C52.6301,21.68 56.79,18.11 60.5601,12.26 C63.85,6.51992 64.8,0.419922 63.37,-5.89004 M32.39,87.5399 C30.19,87.5399 28.7301,86.1199 28.7301,84.01 C28.7301,82.11 29.65,80.5 31.32,79.4699 C31.6801,79.66 31.77,79.71 32.1101,79.88 C33.3,80.48 33.3,80.48 33.55,80.63 L33.5601,80.6399 C35.47,81.73 36.25,82.76 36.25,84.18 C36.24,86.0899 34.59,87.5399 32.39,87.5399 M38.3101,71.63 C38.3101,73.2699 37.7301,74.3399 36.1801,75.53 C34.74,74.78 34.35,74.56 33.9801,74.3399 L33.8801,74.28 C32.3301,73.3399 31.85,72.66 31.85,71.4 C31.85,69.6 33.2301,68.3399 35.19,68.3399 C37.17,68.35 38.3101,69.55 38.3101,71.63 M33.15,-83.8101 C34.9301,-89.55 37.67,-92.8 39.6601,-94.5301 C41.4101,-96.05 43.0601,-96.7601 43.9801,-96.7601 C44.12,-96.7601 44.24,-96.74 44.34,-96.7101 C44.8,-96.57 45.3301,-96 45.8,-95.1301 C48.1101,-90.84 47.37,-84.1301 46.0301,-79.69 C44.4,-74.29 41.4801,-68.6801 32.69,-59.0601 C32.52,-60.17 32.3601,-61.22 32.2101,-62.2 C30.95,-70.49 31.27,-77.7601 33.15,-83.8101 M29.15,20.31 C24.5101,19.0899 20.0801,16.5899 16.32,13.0899 C15.0101,11.86 13.14,9.68994 11.67,6.3 C10.3101,3.13994 9.65,-0.290039 9.7,-3.88008 C9.77002,-8.57002 11.0801,-13.39 13.59,-18.1801 C16.5101,-23.7601 21.07,-29.29 27.1301,-34.62 C28.5801,-35.9 29.95,-37.1801 31.24,-38.4601 C32,-34.2 32.8301,-29.5101 33.7101,-24.6301 C29.8601,-23.3601 25.1101,-20.2101 22,-14.5601 C18.47,-7.99004 18.6101,-2.47002 19.34,1.00996 C20.2801,5.46992 22.8101,9.22998 26.27,11.3199 C27.2,11.88 31.3301,14.01 33.17,13.43 C33.54,13.31 33.8101,13.0899 33.95,12.76 C34.4601,11.5899 33.44,10.95 31.8801,9.98994 C31.2801,9.61992 30.6101,9.2 29.8801,8.66992 C26.5601,6.17998 25.1101,1.72998 26.1801,-2.65 C26.7601,-5.05 28.04,-7.21006 29.8801,-8.91006 C31.55,-10.4601 33.59,-11.5601 35.97,-12.2 C38.0101,-0.960059 40.07,10.1899 41.7101,18.55 C41.84,19.2399 41.9801,19.91 42.1101,20.58 C37.7101,21.51 33.37,21.4199 29.15,20.31 M54.9,10.1 C53.7301,13.28 51.27,17.35 46.14,19.41 C46.07,18.9899 45.99,18.56 45.9101,18.13 C44.3601,9.36992 42.4301,-1.61006 40.47,-12.87 C50.82,-13.35 55.09,-5.91006 55.9801,-1.08008 C56.45,1.45 56.45,5.88994 54.9,10.1"/>
<path class="FiguredBass" d="M598.398,1805.63 C598.398,1806.62 598.955,1807.58 600.068,1808.51 C601.181,1809.44 602.403,1810.32 603.733,1811.15 C605.062,1811.99 606.284,1813.57 607.397,1815.89 C608.51,1818.2 609.067,1821.13 609.067,1824.65 C609.067,1831.46 606.5,1836.71 601.367,1840.42 C596.233,1844.13 589.739,1845.99 581.884,1845.99 C575.576,1845.99 570.087,1844.41 565.417,1841.26 C560.748,1838.1 558.413,1833.96 558.413,1828.83 C558.413,1826.11 559.402,1823.74 561.382,1821.73 C563.361,1819.72 565.726,1818.71 568.479,1818.71 C571.231,1818.71 573.566,1819.7 575.483,1821.68 C577.4,1823.66 578.359,1826.04 578.359,1828.83 C578.359,1830.06 577.339,1831.41 575.298,1832.86 C573.257,1834.32 572.236,1835.66 572.236,1836.9 C572.236,1838.82 573.179,1840.22 575.066,1841.12 C576.952,1842.02 579.225,1842.46 581.884,1842.46 C585.348,1842.46 587.806,1840.75 589.26,1837.32 C590.713,1833.88 591.44,1829.66 591.44,1824.65 L591.44,1822.24 C591.44,1818.9 591.332,1816.36 591.115,1814.63 C590.899,1812.9 590.219,1811.35 589.074,1809.99 C587.93,1808.63 586.183,1807.95 583.833,1807.95 L571.679,1807.95 C570.257,1807.95 569.546,1807.18 569.546,1805.63 C569.546,1804.21 570.257,1803.5 571.679,1803.5 L583.833,1803.5 C586.368,1803.5 588.348,1802.54 589.77,1800.62 C590.265,1799.94 590.667,1798.83 590.976,1797.28 C591.285,1795.24 591.44,1792.31 591.44,1788.47 L591.44,1787.26 C591.44,1778.05 588.038,1773.44 581.235,1773.44 C575.236,1773.44 572.236,1775.11 572.236,1778.45 C572.236,1779.56 573.148,1780.75 574.973,1782.02 C576.797,1783.29 577.71,1784.48 577.71,1785.59 C577.71,1788.01 576.859,1790.08 575.158,1791.81 C573.458,1793.54 571.386,1794.41 568.943,1794.41 C566.5,1794.41 564.443,1793.54 562.773,1791.81 C561.103,1790.08 560.268,1788.01 560.268,1785.59 C560.268,1780.83 562.34,1777.03 566.484,1774.18 C570.628,1771.34 575.545,1769.92 581.235,1769.92 C588.719,1769.92 594.873,1771.35 599.697,1774.23 C604.521,1777.11 606.933,1781.45 606.933,1787.26 C606.933,1791.41 606.5,1794.62 605.634,1796.91 C604.769,1799.2 603.779,1800.59 602.666,1801.09 C601.552,1801.58 600.563,1802.15 599.697,1802.8 C598.831,1803.45 598.398,1804.4 598.398,1805.63"/>
<path class="FiguredBass" d="M594.873,1907.95 C599.821,1902.57 602.295,1897.37 602.295,1892.37 C602.295,1888.28 600.547,1885.07 597.053,1882.72 C593.558,1880.37 589.368,1879.19 584.482,1879.19 C581.019,1879.19 578.251,1880.27 576.179,1882.44 C574.107,1884.6 573.071,1887.11 573.071,1889.95 C573.071,1893.42 574.586,1896.05 577.617,1897.84 L594.873,1907.95 M599.419,1910.55 C607.83,1915.43 612.036,1921.87 612.036,1929.85 C612.036,1935.84 609.469,1940.99 604.336,1945.29 C599.202,1949.59 592.182,1951.74 583.276,1951.74 C575.792,1951.74 569.283,1949.76 563.747,1945.8 C558.212,1941.84 555.444,1936.71 555.444,1930.4 C555.444,1928.05 556.124,1925.67 557.485,1923.26 C558.846,1920.85 560.114,1919.04 561.289,1917.83 C562.464,1916.63 564.381,1914.75 567.041,1912.22 C560.856,1907.95 557.763,1902.57 557.763,1896.08 C557.763,1890.51 560.145,1885.72 564.907,1881.7 C569.669,1877.68 576.194,1875.67 584.482,1875.67 C591.1,1875.67 596.836,1877.17 601.692,1880.17 C606.547,1883.16 608.974,1887.23 608.974,1892.37 C608.974,1897.87 605.789,1903.93 599.419,1910.55 M571.587,1914.91 C565.278,1920.41 562.124,1925.58 562.124,1930.4 C562.124,1935.47 564.227,1939.71 568.432,1943.11 C572.638,1946.51 577.586,1948.21 583.276,1948.21 C587.234,1948.21 590.404,1946.95 592.785,1944.41 C595.166,1941.88 596.357,1938.94 596.357,1935.6 C596.357,1931.33 594.594,1928.18 591.069,1926.13 L571.587,1914.91 "/>
<path class="FiguredBass" d="M563.886,1981.42 C563.886,1981.42 565.371,1981.63 568.34,1982.07 C569.638,1982.25 571.092,1982.44 572.7,1982.62 C576.967,1983.12 581.08,1983.36 585.039,1983.36 C588.997,1983.36 593.172,1983.12 597.563,1982.62 C599.295,1982.44 600.81,1982.25 602.109,1982.07 L606.655,1981.42 C607.583,1981.42 608.278,1981.73 608.742,1982.34 C609.206,1982.96 609.16,1983.46 608.603,1983.83 C599.14,1993.29 585.812,1998.02 568.618,1998.02 C567.937,1998.02 567.334,1998.27 566.809,1998.76 C566.283,1999.26 566.02,1999.88 566.02,2000.62 L566.02,2015.19 C570.411,2010.86 575.73,2008.69 581.977,2008.69 C591.007,2008.69 597.981,2010.72 602.898,2014.77 C607.815,2018.82 610.273,2024.96 610.273,2033.18 C610.273,2040.17 607.49,2045.97 601.923,2050.58 C596.357,2055.19 589.708,2057.49 581.977,2057.49 C575.298,2057.49 569.499,2055.97 564.582,2052.94 C559.665,2049.91 557.207,2045.71 557.207,2040.33 C557.207,2037.61 558.196,2035.24 560.175,2033.23 C562.155,2031.22 564.52,2030.21 567.273,2030.21 C570.025,2030.21 572.36,2031.2 574.277,2033.18 C576.194,2035.16 577.153,2037.54 577.153,2040.33 C577.153,2041.56 576.132,2042.91 574.091,2044.36 C572.05,2045.82 571.03,2047.16 571.03,2048.4 C571.03,2052.11 574.679,2053.96 581.977,2053.96 C589.09,2053.96 592.646,2047.04 592.646,2033.18 C592.646,2019.82 589.09,2013.11 581.977,2013.05 C575.607,2013.05 571.154,2014.35 568.618,2016.95 C566.082,2019.55 564.505,2020.84 563.886,2020.84 C562.34,2020.84 561.598,2020.07 561.66,2018.53 L561.66,1983.83 C561.66,1983.15 561.876,1982.58 562.309,1982.11 C562.742,1981.65 563.268,1981.42 563.886,1981.42"/>
<path class="FiguredBass" d="M1310.93,1805.63 C1310.93,1806.62 1311.49,1807.58 1312.6,1808.51 C1313.72,1809.44 1314.94,1810.32 1316.27,1811.15 C1317.6,1811.99 1318.82,1813.57 1319.93,1815.89 C1321.04,1818.2 1321.6,1821.13 1321.6,1824.65 C1321.6,1831.46 1319.03,1836.71 1313.9,1840.42 C1308.77,1844.13 1302.27,1845.99 1294.42,1845.99 C1288.11,1845.99 1282.62,1844.41 1277.95,1841.26 C1273.28,1838.1 1270.95,1833.96 1270.95,1828.83 C1270.95,1826.11 1271.94,1823.74 1273.92,1821.73 C1275.89,1819.72 1278.26,1818.71 1281.01,1818.71 C1283.77,1818.71 1286.1,1819.7 1288.02,1821.68 C1289.93,1823.66 1290.89,1826.04 1290.89,1828.83 C1290.89,1830.06 1289.87,1831.41 1287.83,1832.86 C1285.79,1834.32 1284.77,1835.66 1284.77,1836.9 C1284.77,1838.82 1285.71,1840.22 1287.6,1841.12 C1289.49,1842.02 1291.76,1842.46 1294.42,1842.46 C1297.88,1842.46 1300.34,1840.75 1301.79,1837.32 C1303.25,1833.88 1303.97,1829.66 1303.97,1824.65 L1303.97,1822.24 C1303.97,1818.9 1303.87,1816.36 1303.65,1814.63 C1303.43,1812.9 1302.75,1811.35 1301.61,1809.99 C1300.46,1808.63 1298.72,1807.95 1296.37,1807.95 L1284.21,1807.95 C1282.79,1807.95 1282.08,1807.18 1282.08,1805.63 C1282.08,1804.21 1282.79,1803.5 1284.21,1803.5 L1296.37,1803.5 C1298.9,1803.5 1300.88,1802.54 1302.3,1800.62 C1302.8,1799.94 1303.2,1798.83 1303.51,1797.28 C1303.82,1795.24 1303.97,1792.31 1303.97,1788.47 L1303.97,1787.26 C1303.97,1778.05 1300.57,1773.44 1293.77,1773.44 C1287.77,1773.44 1284.77,1775.11 1284.77,1778.45 C1284.77,1779.56 1285.68,1780.75 1287.51,1782.02 C1289.33,1783.29 1290.24,1784.48 1290.24,1785.59 C1290.24,1788.01 1289.39,1790.08 1287.69,1791.81 C1285.99,1793.54 1283.92,1794.41 1281.48,1794.41 C1279.03,1794.41 1276.98,1793.54 1275.31,1791.81 C1273.64,1790.08 1272.8,1788.01 1272.8,1785.59 C1272.8,1780.83 1274.87,1777.03 1279.02,1774.18 C1283.16,1771.34 1288.08,1769.92 1293.77,1769.92 C1301.25,1769.92 1307.41,1771.35 1312.23,1774.23 C1317.06,1777.11 1319.47,1781.45 1319.47,1787.26 C1319.47,1791.41 1319.03,1794.62 1318.17,1796.91 C1317.3,1799.2 1316.31,1800.59 1315.2,1801.09 C1314.09,1801.58 1313.1,1802.15 1312.23,1802.8 C1311.37,1803.45 1310.93,1804.4 1310.93,1805.63"/>
<path class="FiguredBass" d="M1307.41,1907.95 C1312.35,1902.57 1314.83,1897.37 1314.83,1892.37 C1314.83,1888.28 1313.08,1885.07 1309.59,1882.72 C1306.09,1880.37 1301.9,1879.19 1297.02,1879.19 C1293.55,1879.19 1290.79,1880.27 1288.71,1882.44 C1286.64,1884.6 1285.61,1887.11 1285.61,1889.95 C1285.61,1893.42 1287.12,1896.05 1290.15,1897.84 L1307.41,1907.95 M1311.95,1910.55 C1320.36,1915.43 1324.57,1921.87 1324.57,1929.85 C1324.57,1935.84 1322,1940.99 1316.87,1945.29 C1311.74,1949.59 1304.72,1951.74 1295.81,1951.74 C1288.33,1951.74 1281.82,1949.76 1276.28,1945.8 C1270.75,1941.84 1267.98,1936.71 1267.98,1930.4 C1267.98,1928.05 1268.66,1925.67 1270.02,1923.26 C1271.38,1920.85 1272.65,1919.04 1273.82,1917.83 C1275,1916.63 1276.92,1914.75 1279.58,1912.22 C1273.39,1907.95 1270.3,1902.57 1270.3,1896.08 C1270.3,1890.51 1272.68,1885.72 1277.44,1881.7 C1282.2,1877.68 1288.73,1875.67 1297.02,1875.67 C1303.63,1875.67 1309.37,1877.17 1314.23,1880.17 C1319.08,1883.16 1321.51,1887.23 1321.51,1892.37 C1321.51,1897.87 1318.32,1903.93 1311.95,1910.55 M1284.12,1914.91 C1277.81,1920.41 1274.66,1925.58 1274.66,1930.4 C1274.66,1935.47 1276.76,1939.71 1280.97,1943.11 C1285.17,1946.51 1290.12,1948.21 1295.81,1948.21 C1299.77,1948.21 1302.94,1946.95 1305.32,1944.41 C1307.7,1941.88 1308.89,1938.94 1308.89,1935.6 C1308.89,1931.33 1307.13,1928.18 1303.6,1926.13 L1284.12,1914.91 "/>
<path class="FiguredBass" d="M1276.42,1981.42 C1276.42,1981.42 1277.91,1981.63 1280.87,1982.07 C1282.17,1982.25 1283.63,1982.44 1285.23,1982.62 C1289.5,1983.12 1293.61,1983.36 1297.57,1983.36 C1301.53,1983.36 1305.71,1983.12 1310.1,1982.62 C1311.83,1982.44 1313.34,1982.25 1314.64,1982.07 L1319.19,1981.42 C1320.12,1981.42 1320.81,1981.73 1321.28,1982.34 C1321.74,1982.96 1321.69,1983.46 1321.14,1983.83 C1311.67,1993.29 1298.35,1998.02 1281.15,1998.02 C1280.47,1998.02 1279.87,1998.27 1279.34,1998.76 C1278.82,1999.26 1278.55,1999.88 1278.55,2000.62 L1278.55,2015.19 C1282.95,2010.86 1288.26,2008.69 1294.51,2008.69 C1303.54,2008.69 1310.51,2010.72 1315.43,2014.77 C1320.35,2018.82 1322.81,2024.96 1322.81,2033.18 C1322.81,2040.17 1320.02,2045.97 1314.46,2050.58 C1308.89,2055.19 1302.24,2057.49 1294.51,2057.49 C1287.83,2057.49 1282.03,2055.97 1277.12,2052.94 C1272.2,2049.91 1269.74,2045.71 1269.74,2040.33 C1269.74,2037.61 1270.73,2035.24 1272.71,2033.23 C1274.69,2031.22 1277.05,2030.21 1279.81,2030.21 C1282.56,2030.21 1284.89,2031.2 1286.81,2033.18 C1288.73,2035.16 1289.69,2037.54 1289.69,2040.33 C1289.69,2041.56 1288.67,2042.91 1286.63,2044.36 C1284.58,2045.82 1283.56,2047.16 1283.56,2048.4 C1283.56,2052.11 1287.21,2053.96 1294.51,2053.96 C1301.62,2053.96 1305.18,2047.04 1305.18,2033.18 C1305.18,2019.82 1301.62,2013.11 1294.51,2013.05 C1288.14,2013.05 1283.69,2014.35 1281.15,2016.95 C1278.62,2019.55 1277.04,2020.84 1276.42,2020.84 C1274.87,2020.84 1274.13,2020.07 1274.19,2018.53 L1274.19,1983.83 C1274.19,1983.15 1274.41,1982.58 1274.84,1982.11 C1275.28,1981.65 1275.8,1981.42 1276.42,1981.42"/>
<path class="FiguredBass" d="M2013.43,1769.92 C2013.43,1769.92 2014.91,1770.13 2017.88,1770.57 C2019.18,1770.75 2020.64,1770.94 2022.24,1771.12 C2026.51,1771.62 2030.62,1771.86 2034.58,1771.86 C2038.54,1771.86 2042.72,1771.62 2047.11,1771.12 C2048.84,1770.94 2050.35,1770.75 2051.65,1770.57 L2056.2,1769.92 C2057.13,1769.92 2057.82,1770.23 2058.29,1770.84 C2058.75,1771.46 2058.7,1771.96 2058.15,1772.33 C2048.68,1781.79 2035.36,1786.52 2018.16,1786.52 C2017.48,1786.52 2016.88,1786.77 2016.35,1787.26 C2015.83,1787.76 2015.56,1788.38 2015.56,1789.12 L2015.56,1803.69 C2019.96,1799.36 2025.27,1797.19 2031.52,1797.19 C2040.55,1797.19 2047.52,1799.22 2052.44,1803.27 C2057.36,1807.32 2059.82,1813.46 2059.82,1821.68 C2059.82,1828.67 2057.03,1834.47 2051.47,1839.08 C2045.9,1843.69 2039.25,1845.99 2031.52,1845.99 C2024.84,1845.99 2019.04,1844.47 2014.13,1841.44 C2009.21,1838.41 2006.75,1834.21 2006.75,1828.83 C2006.75,1826.11 2007.74,1823.74 2009.72,1821.73 C2011.7,1819.72 2014.06,1818.71 2016.82,1818.71 C2019.57,1818.71 2021.9,1819.7 2023.82,1821.68 C2025.74,1823.66 2026.7,1826.04 2026.7,1828.83 C2026.7,1830.06 2025.68,1831.41 2023.64,1832.86 C2021.59,1834.32 2020.57,1835.66 2020.57,1836.9 C2020.57,1840.61 2024.22,1842.46 2031.52,1842.46 C2038.63,1842.46 2042.19,1835.54 2042.19,1821.68 C2042.19,1808.32 2038.63,1801.61 2031.52,1801.55 C2025.15,1801.55 2020.7,1802.85 2018.16,1805.45 C2015.63,1808.05 2014.05,1809.34 2013.43,1809.34 C2011.88,1809.34 2011.14,1808.57 2011.2,1807.03 L2011.2,1772.33 C2011.2,1771.65 2011.42,1771.08 2011.85,1770.61 C2012.29,1770.15 2012.81,1769.92 2013.43,1769.92"/>
<path class="FiguredBass" d="M2047.94,1911.38 C2047.94,1912.37 2048.5,1913.33 2049.61,1914.26 C2050.73,1915.19 2051.95,1916.07 2053.28,1916.9 C2054.61,1917.74 2055.83,1919.32 2056.94,1921.64 C2058.05,1923.95 2058.61,1926.88 2058.61,1930.4 C2058.61,1937.21 2056.04,1942.46 2050.91,1946.17 C2045.78,1949.88 2039.28,1951.74 2031.43,1951.74 C2025.12,1951.74 2019.63,1950.16 2014.96,1947.01 C2010.29,1943.85 2007.96,1939.71 2007.96,1934.58 C2007.96,1931.86 2008.95,1929.49 2010.93,1927.48 C2012.9,1925.47 2015.27,1924.46 2018.02,1924.46 C2020.77,1924.46 2023.11,1925.45 2025.03,1927.43 C2026.94,1929.41 2027.9,1931.79 2027.9,1934.58 C2027.9,1935.81 2026.88,1937.16 2024.84,1938.61 C2022.8,1940.07 2021.78,1941.41 2021.78,1942.65 C2021.78,1944.57 2022.72,1945.97 2024.61,1946.87 C2026.5,1947.77 2028.77,1948.21 2031.43,1948.21 C2034.89,1948.21 2037.35,1946.5 2038.8,1943.07 C2040.26,1939.63 2040.98,1935.41 2040.98,1930.4 L2040.98,1927.99 C2040.98,1924.65 2040.88,1922.11 2040.66,1920.38 C2040.44,1918.65 2039.76,1917.1 2038.62,1915.74 C2037.47,1914.38 2035.73,1913.7 2033.38,1913.7 L2021.22,1913.7 C2019.8,1913.7 2019.09,1912.93 2019.09,1911.38 C2019.09,1909.96 2019.8,1909.25 2021.22,1909.25 L2033.38,1909.25 C2035.91,1909.25 2037.89,1908.29 2039.31,1906.37 C2039.81,1905.69 2040.21,1904.58 2040.52,1903.03 C2040.83,1900.99 2040.98,1898.06 2040.98,1894.22 L2040.98,1893.01 C2040.98,1883.8 2037.58,1879.19 2030.78,1879.19 C2024.78,1879.19 2021.78,1880.86 2021.78,1884.2 C2021.78,1885.31 2022.69,1886.5 2024.52,1887.77 C2026.34,1889.04 2027.25,1890.23 2027.25,1891.34 C2027.25,1893.76 2026.4,1895.83 2024.7,1897.56 C2023,1899.29 2020.93,1900.16 2018.49,1900.16 C2016.04,1900.16 2013.99,1899.29 2012.32,1897.56 C2010.65,1895.83 2009.81,1893.76 2009.81,1891.34 C2009.81,1886.58 2011.88,1882.78 2016.03,1879.93 C2020.17,1877.09 2025.09,1875.67 2030.78,1875.67 C2038.26,1875.67 2044.42,1877.1 2049.24,1879.98 C2054.06,1882.86 2056.48,1887.2 2056.48,1893.01 C2056.48,1897.16 2056.04,1900.37 2055.18,1902.66 C2054.31,1904.95 2053.32,1906.34 2052.21,1906.84 C2051.1,1907.33 2050.11,1907.9 2049.24,1908.55 C2048.37,1909.2 2047.94,1910.15 2047.94,1911.38"/>
<path class="FiguredBass" d="M2044.42,2013.7 C2049.36,2008.32 2051.84,2003.12 2051.84,1998.12 C2051.84,1994.03 2050.09,1990.82 2046.6,1988.47 C2043.1,1986.12 2038.91,1984.94 2034.03,1984.94 C2030.56,1984.94 2027.79,1986.02 2025.72,1988.19 C2023.65,1990.35 2022.61,1992.86 2022.61,1995.7 C2022.61,1999.17 2024.13,2001.8 2027.16,2003.59 L2044.42,2013.7 M2048.96,2016.3 C2057.37,2021.18 2061.58,2027.62 2061.58,2035.6 C2061.58,2041.59 2059.01,2046.74 2053.88,2051.04 C2048.75,2055.34 2041.73,2057.49 2032.82,2057.49 C2025.34,2057.49 2018.83,2055.51 2013.29,2051.55 C2007.76,2047.59 2004.99,2042.46 2004.99,2036.15 C2004.99,2033.8 2005.67,2031.42 2007.03,2029.01 C2008.39,2026.6 2009.66,2024.79 2010.83,2023.58 C2012.01,2022.38 2013.92,2020.5 2016.58,2017.97 C2010.4,2013.7 2007.31,2008.32 2007.31,2001.83 C2007.31,1996.26 2009.69,1991.47 2014.45,1987.45 C2019.21,1983.43 2025.74,1981.42 2034.03,1981.42 C2040.64,1981.42 2046.38,1982.92 2051.24,1985.92 C2056.09,1988.91 2058.52,1992.98 2058.52,1998.12 C2058.52,2003.62 2055.33,2009.68 2048.96,2016.3 M2021.13,2020.66 C2014.82,2026.16 2011.67,2031.33 2011.67,2036.15 C2011.67,2041.22 2013.77,2045.46 2017.98,2048.86 C2022.18,2052.26 2027.13,2053.96 2032.82,2053.96 C2036.78,2053.96 2039.95,2052.7 2042.33,2050.16 C2044.71,2047.63 2045.9,2044.69 2045.9,2041.35 C2045.9,2037.08 2044.14,2033.93 2040.61,2031.88 L2021.13,2020.66 "/>
<path class="FiguredBass" d="M2748.28,1769.92 C2748.28,1769.92 2749.76,1770.13 2752.73,1770.57 C2754.03,1770.75 2755.48,1770.94 2757.09,1771.12 C2761.36,1771.62 2765.47,1771.86 2769.43,1771.86 C2773.39,1771.86 2777.56,1771.62 2781.95,1771.12 C2783.69,1770.94 2785.2,1770.75 2786.5,1770.57 L2791.05,1769.92 C2791.97,1769.92 2792.67,1770.23 2793.13,1770.84 C2793.6,1771.46 2793.55,1771.96 2792.99,1772.33 C2783.53,1781.79 2770.2,1786.52 2753.01,1786.52 C2752.33,1786.52 2751.73,1786.77 2751.2,1787.26 C2750.67,1787.76 2750.41,1788.38 2750.41,1789.12 L2750.41,1803.69 C2754.8,1799.36 2760.12,1797.19 2766.37,1797.19 C2775.4,1797.19 2782.37,1799.22 2787.29,1803.27 C2792.21,1807.32 2794.66,1813.46 2794.66,1821.68 C2794.66,1828.67 2791.88,1834.47 2786.32,1839.08 C2780.75,1843.69 2774.1,1845.99 2766.37,1845.99 C2759.69,1845.99 2753.89,1844.47 2748.97,1841.44 C2744.06,1838.41 2741.6,1834.21 2741.6,1828.83 C2741.6,1826.11 2742.59,1823.74 2744.57,1821.73 C2746.55,1819.72 2748.91,1818.71 2751.66,1818.71 C2754.42,1818.71 2756.75,1819.7 2758.67,1821.68 C2760.59,1823.66 2761.54,1826.04 2761.54,1828.83 C2761.54,1830.06 2760.52,1831.41 2758.48,1832.86 C2756.44,1834.32 2755.42,1835.66 2755.42,1836.9 C2755.42,1840.61 2759.07,1842.46 2766.37,1842.46 C2773.48,1842.46 2777.04,1835.54 2777.04,1821.68 C2777.04,1808.32 2773.48,1801.61 2766.37,1801.55 C2760,1801.55 2755.55,1802.85 2753.01,1805.45 C2750.47,1808.05 2748.9,1809.34 2748.28,1809.34 C2746.73,1809.34 2745.99,1808.57 2746.05,1807.03 L2746.05,1772.33 C2746.05,1771.65 2746.27,1771.08 2746.7,1770.61 C2747.13,1770.15 2747.66,1769.92 2748.28,1769.92"/>
<path class="FiguredBass" d="M2782.79,1911.38 C2782.79,1912.37 2783.35,1913.33 2784.46,1914.26 C2785.57,1915.19 2786.79,1916.07 2788.12,1916.9 C2789.45,1917.74 2790.68,1919.32 2791.79,1921.64 C2792.9,1923.95 2793.46,1926.88 2793.46,1930.4 C2793.46,1937.21 2790.89,1942.46 2785.76,1946.17 C2780.63,1949.88 2774.13,1951.74 2766.28,1951.74 C2759.97,1951.74 2754.48,1950.16 2749.81,1947.01 C2745.14,1943.85 2742.8,1939.71 2742.8,1934.58 C2742.8,1931.86 2743.79,1929.49 2745.77,1927.48 C2747.75,1925.47 2750.12,1924.46 2752.87,1924.46 C2755.62,1924.46 2757.96,1925.45 2759.87,1927.43 C2761.79,1929.41 2762.75,1931.79 2762.75,1934.58 C2762.75,1935.81 2761.73,1937.16 2759.69,1938.61 C2757.65,1940.07 2756.63,1941.41 2756.63,1942.65 C2756.63,1944.57 2757.57,1945.97 2759.46,1946.87 C2761.34,1947.77 2763.62,1948.21 2766.28,1948.21 C2769.74,1948.21 2772.2,1946.5 2773.65,1943.07 C2775.11,1939.63 2775.83,1935.41 2775.83,1930.4 L2775.83,1927.99 C2775.83,1924.65 2775.72,1922.11 2775.51,1920.38 C2775.29,1918.65 2774.61,1917.1 2773.47,1915.74 C2772.32,1914.38 2770.57,1913.7 2768.22,1913.7 L2756.07,1913.7 C2754.65,1913.7 2753.94,1912.93 2753.94,1911.38 C2753.94,1909.96 2754.65,1909.25 2756.07,1909.25 L2768.22,1909.25 C2770.76,1909.25 2772.74,1908.29 2774.16,1906.37 C2774.66,1905.69 2775.06,1904.58 2775.37,1903.03 C2775.68,1900.99 2775.83,1898.06 2775.83,1894.22 L2775.83,1893.01 C2775.83,1883.8 2772.43,1879.19 2765.63,1879.19 C2759.63,1879.19 2756.63,1880.86 2756.63,1884.2 C2756.63,1885.31 2757.54,1886.5 2759.36,1887.77 C2761.19,1889.04 2762.1,1890.23 2762.1,1891.34 C2762.1,1893.76 2761.25,1895.83 2759.55,1897.56 C2757.85,1899.29 2755.78,1900.16 2753.33,1900.16 C2750.89,1900.16 2748.83,1899.29 2747.16,1897.56 C2745.49,1895.83 2744.66,1893.76 2744.66,1891.34 C2744.66,1886.58 2746.73,1882.78 2750.88,1879.93 C2755.02,1877.09 2759.94,1875.67 2765.63,1875.67 C2773.11,1875.67 2779.26,1877.1 2784.09,1879.98 C2788.91,1882.86 2791.32,1887.2 2791.32,1893.01 C2791.32,1897.16 2790.89,1900.37 2790.03,1902.66 C2789.16,1904.95 2788.17,1906.34 2787.06,1906.84 C2785.94,1907.33 2784.95,1907.9 2784.09,1908.55 C2783.22,1909.2 2782.79,1910.15 2782.79,1911.38"/>
<path class="FiguredBass" d="M2779.26,2013.7 C2784.21,2008.32 2786.69,2003.12 2786.69,1998.12 C2786.69,1994.03 2784.94,1990.82 2781.44,1988.47 C2777.95,1986.12 2773.76,1984.94 2768.87,1984.94 C2765.41,1984.94 2762.64,1986.02 2760.57,1988.19 C2758.5,1990.35 2757.46,1992.86 2757.46,1995.7 C2757.46,1999.17 2758.98,2001.8 2762.01,2003.59 L2779.26,2013.7 M2783.81,2016.3 C2792.22,2021.18 2796.43,2027.62 2796.43,2035.6 C2796.43,2041.59 2793.86,2046.74 2788.73,2051.04 C2783.59,2055.34 2776.57,2057.49 2767.67,2057.49 C2760.18,2057.49 2753.67,2055.51 2748.14,2051.55 C2742.6,2047.59 2739.84,2042.46 2739.84,2036.15 C2739.84,2033.8 2740.52,2031.42 2741.88,2029.01 C2743.24,2026.6 2744.51,2024.79 2745.68,2023.58 C2746.86,2022.38 2748.77,2020.5 2751.43,2017.97 C2745.25,2013.7 2742.15,2008.32 2742.15,2001.83 C2742.15,1996.26 2744.54,1991.47 2749.3,1987.45 C2754.06,1983.43 2760.59,1981.42 2768.87,1981.42 C2775.49,1981.42 2781.23,1982.92 2786.08,1985.92 C2790.94,1988.91 2793.37,1992.98 2793.37,1998.12 C2793.37,2003.62 2790.18,2009.68 2783.81,2016.3 M2755.98,2020.66 C2749.67,2026.16 2746.52,2031.33 2746.52,2036.15 C2746.52,2041.22 2748.62,2045.46 2752.82,2048.86 C2757.03,2052.26 2761.98,2053.96 2767.67,2053.96 C2771.63,2053.96 2774.8,2052.7 2777.18,2050.16 C2779.56,2047.63 2780.75,2044.69 2780.75,2041.35 C2780.75,2037.08 2778.99,2033.93 2775.46,2031.88 L2755.98,2020.66 "/>
<path class="FiguredBass" d="M3525.83,1802.2 C3530.78,1796.82 3533.25,1791.62 3533.25,1786.62 C3533.25,1782.53 3531.5,1779.32 3528.01,1776.97 C3524.52,1774.62 3520.33,1773.44 3515.44,1773.44 C3511.98,1773.44 3509.21,1774.52 3507.14,1776.69 C3505.06,1778.85 3504.03,1781.36 3504.03,1784.2 C3504.03,1787.67 3505.54,1790.3 3508.57,1792.09 L3525.83,1802.2 M3530.38,1804.8 C3538.79,1809.68 3542.99,1816.12 3542.99,1824.1 C3542.99,1830.09 3540.43,1835.24 3535.29,1839.54 C3530.16,1843.84 3523.14,1845.99 3514.23,1845.99 C3506.75,1845.99 3500.24,1844.01 3494.7,1840.05 C3489.17,1836.09 3486.4,1830.96 3486.4,1824.65 C3486.4,1822.3 3487.08,1819.92 3488.44,1817.51 C3489.8,1815.1 3491.07,1813.29 3492.25,1812.08 C3493.42,1810.88 3495.34,1809 3498,1806.47 C3491.81,1802.2 3488.72,1796.82 3488.72,1790.33 C3488.72,1784.76 3491.1,1779.97 3495.86,1775.95 C3500.63,1771.93 3507.15,1769.92 3515.44,1769.92 C3522.06,1769.92 3527.79,1771.42 3532.65,1774.42 C3537.5,1777.41 3539.93,1781.48 3539.93,1786.62 C3539.93,1792.12 3536.75,1798.18 3530.38,1804.8 M3502.54,1809.16 C3496.24,1814.66 3493.08,1819.83 3493.08,1824.65 C3493.08,1829.72 3495.18,1833.96 3499.39,1837.36 C3503.6,1840.76 3508.54,1842.46 3514.23,1842.46 C3518.19,1842.46 3521.36,1841.2 3523.74,1838.66 C3526.12,1836.13 3527.31,1833.19 3527.31,1829.85 C3527.31,1825.58 3525.55,1822.43 3522.03,1820.38 L3502.54,1809.16 "/>
<path class="FiguredBass" d="M3494.84,1875.67 C3494.84,1875.67 3496.33,1875.88 3499.3,1876.32 C3500.6,1876.5 3502.05,1876.69 3503.66,1876.87 C3507.92,1877.37 3512.04,1877.61 3516,1877.61 C3519.95,1877.61 3524.13,1877.37 3528.52,1876.87 C3530.25,1876.69 3531.77,1876.5 3533.07,1876.32 L3537.61,1875.67 C3538.54,1875.67 3539.24,1875.98 3539.7,1876.59 C3540.16,1877.21 3540.12,1877.71 3539.56,1878.08 C3530.1,1887.54 3516.77,1892.27 3499.57,1892.27 C3498.89,1892.27 3498.29,1892.52 3497.77,1893.01 C3497.24,1893.51 3496.98,1894.13 3496.98,1894.87 L3496.98,1909.44 C3501.37,1905.11 3506.69,1902.94 3512.93,1902.94 C3521.96,1902.94 3528.94,1904.97 3533.85,1909.02 C3538.77,1913.07 3541.23,1919.21 3541.23,1927.43 C3541.23,1934.42 3538.45,1940.22 3532.88,1944.83 C3527.31,1949.44 3520.67,1951.74 3512.93,1951.74 C3506.25,1951.74 3500.46,1950.22 3495.54,1947.19 C3490.62,1944.16 3488.16,1939.96 3488.16,1934.58 C3488.16,1931.86 3489.15,1929.49 3491.13,1927.48 C3493.11,1925.47 3495.48,1924.46 3498.23,1924.46 C3500.98,1924.46 3503.32,1925.45 3505.23,1927.43 C3507.15,1929.41 3508.11,1931.79 3508.11,1934.58 C3508.11,1935.81 3507.09,1937.16 3505.05,1938.61 C3503.01,1940.07 3501.99,1941.41 3501.99,1942.65 C3501.99,1946.36 3505.64,1948.21 3512.93,1948.21 C3520.05,1948.21 3523.6,1941.29 3523.6,1927.43 C3523.6,1914.07 3520.05,1907.36 3512.93,1907.3 C3506.56,1907.3 3502.11,1908.6 3499.57,1911.2 C3497.04,1913.8 3495.46,1915.09 3494.84,1915.09 C3493.3,1915.09 3492.56,1914.32 3492.62,1912.78 L3492.62,1878.08 C3492.62,1877.4 3492.83,1876.83 3493.27,1876.36 C3493.7,1875.9 3494.23,1875.67 3494.84,1875.67"/>
<path class="FiguredBass" d="M3529.36,2017.13 C3529.36,2018.12 3529.91,2019.08 3531.03,2020.01 C3532.14,2020.94 3533.36,2021.82 3534.69,2022.65 C3536.02,2023.49 3537.24,2025.07 3538.35,2027.39 C3539.47,2029.7 3540.02,2032.63 3540.02,2036.15 C3540.02,2042.96 3537.46,2048.21 3532.32,2051.92 C3527.19,2055.63 3520.7,2057.49 3512.84,2057.49 C3506.53,2057.49 3501.04,2055.91 3496.37,2052.76 C3491.7,2049.6 3489.37,2045.46 3489.37,2040.33 C3489.37,2037.61 3490.36,2035.24 3492.34,2033.23 C3494.32,2031.22 3496.68,2030.21 3499.44,2030.21 C3502.19,2030.21 3504.52,2031.2 3506.44,2033.18 C3508.36,2035.16 3509.32,2037.54 3509.32,2040.33 C3509.32,2041.56 3508.3,2042.91 3506.25,2044.36 C3504.21,2045.82 3503.19,2047.16 3503.19,2048.4 C3503.19,2050.32 3504.14,2051.72 3506.02,2052.62 C3507.91,2053.52 3510.18,2053.96 3512.84,2053.96 C3516.31,2053.96 3518.76,2052.25 3520.22,2048.82 C3521.67,2045.38 3522.4,2041.16 3522.4,2036.15 L3522.4,2033.74 C3522.4,2030.4 3522.29,2027.86 3522.07,2026.13 C3521.86,2024.4 3521.18,2022.85 3520.03,2021.49 C3518.89,2020.13 3517.14,2019.45 3514.79,2019.45 L3502.64,2019.45 C3501.21,2019.45 3500.5,2018.68 3500.5,2017.13 C3500.5,2015.71 3501.21,2015 3502.64,2015 L3514.79,2015 C3517.33,2015 3519.3,2014.04 3520.73,2012.12 C3521.22,2011.44 3521.62,2010.33 3521.93,2008.78 C3522.24,2006.74 3522.4,2003.81 3522.4,1999.97 L3522.4,1998.76 C3522.4,1989.55 3519,1984.94 3512.19,1984.94 C3506.19,1984.94 3503.19,1986.61 3503.19,1989.95 C3503.19,1991.06 3504.11,1992.25 3505.93,1993.52 C3507.75,1994.79 3508.67,1995.98 3508.67,1997.09 C3508.67,1999.51 3507.82,2001.58 3506.12,2003.31 C3504.41,2005.04 3502.34,2005.91 3499.9,2005.91 C3497.46,2005.91 3495.4,2005.04 3493.73,2003.31 C3492.06,2001.58 3491.23,1999.51 3491.23,1997.09 C3491.23,1992.33 3493.3,1988.53 3497.44,1985.68 C3501.59,1982.84 3506.5,1981.42 3512.19,1981.42 C3519.68,1981.42 3525.83,1982.85 3530.65,1985.73 C3535.48,1988.61 3537.89,1992.95 3537.89,1998.76 C3537.89,2002.91 3537.46,2006.12 3536.59,2008.41 C3535.73,2010.7 3534.74,2012.09 3533.62,2012.59 C3532.51,2013.08 3531.52,2013.65 3530.65,2014.3 C3529.79,2014.95 3529.36,2015.9 3529.36,2017.13"/>
<polyline class="FretDiagram" stroke="#fc0107" stroke-width="11.91" stroke-linejoin="bevel" points="482.904,206.022 696.013,206.022"/>
<polyline class="FretDiagram" stroke="#fc0107" stroke-width="4.76" stroke-linejoin="bevel" points="485.285,206.022 485.285,420.321"/>
<polyline class="FretDiagram" stroke="#fc0107" stroke-width="4.76" stroke-linejoin="bevel" points="526.954,206.022 526.954,420.321"/>
<polyline class="FretDiagram" stroke="#fc0107" stroke-width="4.76" stroke-linejoin="bevel" points="568.624,206.022 568.624,420.321"/>
<polyline class="FretDiagram" stroke="#fc0107" stroke-width="4.76" stroke-linejoin="bevel" points="610.293,206.022 610.293,420.321"/>
<polyline class="FretDiagram" stroke="#fc0107" stroke-width="4.76" stroke-linejoin="bevel" points="651.962,206.022 651.962,420.321"/>
<polyline class="FretDiagram" stroke="#fc0107" stroke-width="4.76" stroke-linejoin="bevel" points="693.631,206.022 693.631,420.321"/>
<polyline class="FretDiagram" stroke="#fc0107" stroke-width="4.76" stroke-linejoin="bevel" points="485.285,253.644 693.631,253.644"/>
<polyline class="FretDiagram" stroke="#fc0107" stroke-width="4.76" stroke-linejoin="bevel" points="485.285,301.266 693.631,301.266"/>
<polyline class="FretDiagram" stroke="#fc0107" stroke-width="4.76" stroke-linejoin="bevel" points="485.285,348.888 693.631,348.888"/>
<polyline class="FretDiagram" stroke="#fc0107" stroke-width="4.76" stroke-linejoin="bevel" points="485.285,396.51 693.631,396.51"/>
<path class="FretDiagram" fill="#fc0107" fill-rule="evenodd" d="M583.208,277.455 C583.208,285.51 576.678,292.039 568.624,292.039 C560.569,292.039 554.039,285.51 554.039,277.455 C554.039,269.401 560.569,262.871 568.624,262.871 C576.678,262.871 583.208,269.401 583.208,277.455"/>
<path class="FretDiagram" fill="#fc0107" fill-rule="evenodd" d="M624.877,229.833 C624.877,237.888 618.347,244.417 610.293,244.417 C602.238,244.417 595.709,237.888 595.709,229.833 C595.709,221.778 602.238,215.249 610.293,215.249 C618.347,215.249 624.877,221.778 624.877,229.833"/>
<polyline class="FretDiagram" fill="none" stroke="#fc0107" stroke-width="6.86" stroke-linecap="round" stroke-linejoin="bevel" points="468.617,141.732 501.953,175.068"/>
<polyline class="FretDiagram" fill="none" stroke="#fc0107" stroke-width="6.86" stroke-linecap="round" stroke-linejoin="bevel" points="468.617,175.068 501.953,141.732"/>
<polyline class="FretDiagram" fill="none" stroke="#fc0107" stroke-width="6.86" stroke-linecap="round" stroke-linejoin="bevel" points="510.287,141.732 543.622,175.068"/>
<polyline class="FretDiagram" fill="none" stroke="#fc0107" stroke-width="6.86" stroke-linecap="round" stroke-linejoin="bevel" points="510.287,175.068 543.622,141.732"/>
<path class="FretDiagram" fill="none" stroke="#fc0107" stroke-width="6.86" stroke-linecap="round" stroke-linejoin="bevel" fill-rule="evenodd" d="M668.63,158.4 C668.63,167.605 661.167,175.068 651.962,175.068 C642.757,175.068 635.294,167.605 635.294,158.4 C635.294,149.195 642.757,141.732 651.962,141.732 C661.167,141.732 668.63,149.195 668.63,158.4"/>
<path class="FretDiagram" fill="none" stroke="#fc0107" stroke-width="6.86" stroke-linecap="round" stroke-linejoin="bevel" fill-rule="evenodd" d="M710.299,158.4 C710.299,167.605 702.837,175.068 693.631,175.068 C684.426,175.068 676.964,167.605 676.964,158.4 C676.964,149.195 684.426,141.732 693.631,141.732 C702.837,141.732 710.299,149.195 710.299,158.4"/>
<polyline class="FretDiagram" fill="#fc0107" stroke="#0000ff" stroke-width="11.91" stroke-linejoin="bevel" points="1195.44,206.022 1408.55,206.022"/>
<polyline class="FretDiagram" fill="#fc0107" stroke="#0000ff" stroke-width="4.76" stroke-linejoin="bevel" points="1197.82,206.022 1197.82,420.321"/>
<polyline class="FretDiagram" fill="#fc0107" stroke="#0000ff" stroke-width="4.76" stroke-linejoin="bevel" points="1239.49,206.022 1239.49,420.321"/>
<polyline class="FretDiagram" fill="#fc0107" stroke="#0000ff" stroke-width="4.76" stroke-linejoin="bevel" points="1281.16,206.022 1281.16,420.321"/>
<polyline class="FretDiagram" fill="#fc0107" stroke="#0000ff" stroke-width="4.76" stroke-linejoin="bevel" points="1322.83,206.022 1322.83,420.321"/>
<polyline class="FretDiagram" fill="#fc0107" stroke="#0000ff" stroke-width="4.76" stroke-linejoin="bevel" points="1364.5,206.022 1364.5,420.321"/>
<polyline class="FretDiagram" fill="#fc0107" stroke="#0000ff" stroke-width="4.76" stroke-linejoin="bevel" points="1406.17,206.022 1406.17,420.321"/>
<polyline class="FretDiagram" fill="#fc0107" stroke="#0000ff" stroke-width="4.76" stroke-linejoin="bevel" points="1197.82,253.644 1406.17,253.644"/>
<polyline class="FretDiagram" fill="#fc0107" stroke="#0000ff" stroke-width="4.76" stroke-linejoin="bevel" points="1197.82,301.266 1406.17,301.266"/>
<polyline class="FretDiagram" fill="#fc0107" stroke="#0000ff" stroke-width="4.76" stroke-linejoin="bevel" points="1197.82,348.888 1406.17,348.888"/>
<polyline class="FretDiagram" fill="#fc0107" stroke="#0000ff" stroke-width="4.76" stroke-linejoin="bevel" points="1197.82,396.51 1406.17,396.51"/>
<path class="FretDiagram" fill="#0000ff" fill-rule="evenodd" d="M1254.07,277.455 C1254.07,285.51 1247.54,292.039 1239.49,292.039 C1231.43,292.039 1224.9,285.51 1224.9,277.455 C1224.9,269.401 1231.43,262.871 1239.49,262.871 C1247.54,262.871 1254.07,269.401 1254.07,277.455"/>
<path class="FretDiagram" fill="#0000ff" fill-rule="evenodd" d="M1295.74,277.455 C1295.74,285.51 1289.21,292.039 1281.16,292.039 C1273.1,292.039 1266.57,285.51 1266.57,277.455 C1266.57,269.401 1273.1,262.871 1281.16,262.871 C1289.21,262.871 1295.74,269.401 1295.74,277.455"/>
<path class="FretDiagram" fill="#0000ff" fill-rule="evenodd" d="M1337.41,229.833 C1337.41,237.888 1330.88,244.417 1322.83,244.417 C1314.77,244.417 1308.24,237.888 1308.24,229.833 C1308.24,221.778 1314.77,215.249 1322.83,215.249 C1330.88,215.249 1337.41,221.778 1337.41,229.833"/>
<path class="FretDiagram" fill="none" stroke="#0000ff" stroke-width="6.86" stroke-linecap="round" stroke-linejoin="bevel" fill-rule="evenodd" d="M1214.49,158.4 C1214.49,167.605 1207.02,175.068 1197.82,175.068 C1188.61,175.068 1181.15,167.605 1181.15,158.4 C1181.15,149.195 1188.61,141.732 1197.82,141.732 C1207.02,141.732 1214.49,149.195 1214.49,158.4"/>
<path class="FretDiagram" fill="none" stroke="#0000ff" stroke-width="6.86" stroke-linecap="round" stroke-linejoin="bevel" fill-rule="evenodd" d="M1381.16,158.4 C1381.16,167.605 1373.7,175.068 1364.5,175.068 C1355.29,175.068 1347.83,167.605 1347.83,158.4 C1347.83,149.195 1355.29,141.732 1364.5,141.732 C1373.7,141.732 1381.16,149.195 1381.16,158.4"/>
<path class="FretDiagram" fill="none" stroke="#0000ff" stroke-width="6.86" stroke-linecap="round" stroke-linejoin="bevel" fill-rule="evenodd" d="M1422.83,158.4 C1422.83,167.605 1415.37,175.068 1406.17,175.068 C1396.96,175.068 1389.5,167.605 1389.5,158.4 C1389.5,149.195 1396.96,141.732 1406.17,141.732 C1415.37,141.732 1422.83,149.195 1422.83,158.4"/>
<polyline class="FretDiagram" fill="#0000ff" stroke="#fc02ff" stroke-width="4.76" stroke-linejoin="bevel" points="2667.3,206.022 2880.4,206.022"/>
<polyline class="FretDiagram" fill="#0000ff" stroke="#fc02ff" stroke-width="4.76" stroke-linejoin="bevel" points="2669.68,194.117 2669.68,420.321"/>
<polyline class="FretDiagram" fill="#0000ff" stroke="#fc02ff" stroke-width="4.76" stroke-linejoin="bevel" points="2711.35,194.117 2711.35,420.321"/>
<polyline class="FretDiagram" fill="#0000ff" stroke="#fc02ff" stroke-width="4.76" stroke-linejoin="bevel" points="2753.02,194.117 2753.02,420.321"/>
<polyline class="FretDiagram" fill="#0000ff" stroke="#fc02ff" stroke-width="4.76" stroke-linejoin="bevel" points="2794.68,194.117 2794.68,420.321"/>
<polyline class="FretDiagram" fill="#0000ff" stroke="#fc02ff" stroke-width="4.76" stroke-linejoin="bevel" points="2836.35,194.117 2836.35,420.321"/>
<polyline class="FretDiagram" fill="#0000ff" stroke="#fc02ff" stroke-width="4.76" stroke-linejoin="bevel" points="2878.02,194.117 2878.02,420.321"/>
<polyline class="FretDiagram" fill="#0000ff" stroke="#fc02ff" stroke-width="4.76" stroke-linejoin="bevel" points="2669.68,253.644 2878.02,253.644"/>
<polyline class="FretDiagram" fill="#0000ff" stroke="#fc02ff" stroke-width="4.76" stroke-linejoin="bevel" points="2669.68,301.266 2878.02,301.266"/>
<polyline class="FretDiagram" fill="#0000ff" stroke="#fc02ff" stroke-width="4.76" stroke-linejoin="bevel" points="2669.68,348.888 2878.02,348.888"/>
<polyline class="FretDiagram" fill="#0000ff" stroke="#fc02ff" stroke-width="4.76" stroke-linejoin="bevel" points="2669.68,396.51 2878.02,396.51"/>
<path class="FretDiagram" fill="#fc02ff" fill-rule="evenodd" d="M2725.93,325.077 C2725.93,333.132 2719.4,339.661 2711.35,339.661 C2703.29,339.661 2696.76,333.132 2696.76,325.077 C2696.76,317.023 2703.29,310.493 2711.35,310.493 C2719.4,310.493 2725.93,317.023 2725.93,325.077"/>
<path class="FretDiagram" fill="#fc02ff" fill-rule="evenodd" d="M2892.61,325.077 C2892.61,333.132 2886.08,339.661 2878.02,339.661 C2869.97,339.661 2863.44,333.132 2863.44,325.077 C2863.44,317.023 2869.97,310.493 2878.02,310.493 C2886.08,310.493 2892.61,317.023 2892.61,325.077"/>
<polyline class="FretDiagram" fill="none" stroke="#fc02ff" stroke-width="6.86" stroke-linecap="round" stroke-linejoin="bevel" points="2653.01,141.732 2686.34,175.068"/>
<polyline class="FretDiagram" fill="none" stroke="#fc02ff" stroke-width="6.86" stroke-linecap="round" stroke-linejoin="bevel" points="2653.01,175.068 2686.34,141.732"/>
<path class="FretDiagram" fill="none" stroke="#fc02ff" stroke-width="6.86" stroke-linecap="round" stroke-linejoin="bevel" fill-rule="evenodd" d="M2769.68,158.4 C2769.68,167.605 2762.22,175.068 2753.02,175.068 C2743.81,175.068 2736.35,167.605 2736.35,158.4 C2736.35,149.195 2743.81,141.732 2753.02,141.732 C2762.22,141.732 2769.68,149.195 2769.68,158.4"/>
<path class="FretDiagram" fill="none" stroke="#fc02ff" stroke-width="6.86" stroke-linecap="round" stroke-linejoin="bevel" fill-rule="evenodd" d="M2811.35,158.4 C2811.35,167.605 2803.89,175.068 2794.68,175.068 C2785.48,175.068 2778.02,167.605 2778.02,158.4 C2778.02,149.195 2785.48,141.732 2794.68,141.732 C2803.89,141.732 2811.35,149.195 2811.35,158.4"/>
<path class="FretDiagram" fill="none" stroke="#fc02ff" stroke-width="6.86" stroke-linecap="round" stroke-linejoin="bevel" fill-rule="evenodd" d="M2853.02,158.4 C2853.02,167.605 2845.56,175.068 2836.35,175.068 C2827.15,175.068 2819.69,167.605 2819.69,158.4 C2819.69,149.195 2827.15,141.732 2836.35,141.732 C2845.56,141.732 2853.02,149.195 2853.02,158.4"/>
<polyline class="FretDiagram" fill="none" stroke="#fc02ff" stroke-width="29.17" stroke-linecap="round" stroke-linejoin="bevel" points="2711.35,229.833 2878.02,229.833"/>
<path class="FretDiagram" fill="#fc02ff" d="M2645.43,195.73 L2645.43,203.995 L2617.4,203.995 L2614.74,222.805 C2618.48,220.081 2622.63,218.72 2627.19,218.72 C2633.65,218.72 2638.89,220.794 2642.91,224.942 C2646.93,229.09 2648.94,234.49 2648.94,241.14 C2648.94,248.233 2646.79,254.028 2642.48,258.525 C2638.18,263.021 2632.63,265.27 2625.86,265.27 C2623.26,265.27 2620.87,264.985 2618.69,264.415 C2616.5,263.845 2614.7,263.164 2613.27,262.372 C2611.85,261.58 2610.55,260.535 2609.38,259.237 C2608.2,257.939 2607.32,256.799 2606.72,255.817 C2606.11,254.835 2605.54,253.6 2605.01,252.112 C2604.47,250.624 2604.13,249.595 2604.01,249.025 C2603.88,248.455 2603.72,247.631 2603.53,246.555 L2611.89,246.555 C2613.86,254.091 2618.45,257.86 2625.67,257.86 C2630.23,257.86 2633.82,256.466 2636.45,253.68 C2639.08,250.893 2640.39,247.093 2640.39,242.28 C2640.39,237.276 2639.06,233.334 2636.4,230.452 C2633.74,227.57 2630.16,226.13 2625.67,226.13 C2623.07,226.13 2620.85,226.589 2619.02,227.507 C2617.18,228.425 2615.28,230.056 2613.32,232.4 L2605.62,232.4 L2610.66,195.73 L2645.43,195.73 "/>
<polyline class="FretDiagram" fill="#fc02ff" stroke="#fc02ff" stroke-width="4.76" stroke-linejoin="bevel" points="3413.86,206.022 3626.97,206.022"/>
<polyline class="FretDiagram" fill="#fc02ff" stroke="#fc02ff" stroke-width="4.76" stroke-linejoin="bevel" points="3416.24,194.117 3416.24,420.321"/>
<polyline class="FretDiagram" fill="#fc02ff" stroke="#fc02ff" stroke-width="4.76" stroke-linejoin="bevel" points="3457.91,194.117 3457.91,420.321"/>
<polyline class="FretDiagram" fill="#fc02ff" stroke="#fc02ff" stroke-width="4.76" stroke-linejoin="bevel" points="3499.58,194.117 3499.58,420.321"/>
<polyline class="FretDiagram" fill="#fc02ff" stroke="#fc02ff" stroke-width="4.76" stroke-linejoin="bevel" points="3541.25,194.117 3541.25,420.321"/>
<polyline class="FretDiagram" fill="#fc02ff" stroke="#fc02ff" stroke-width="4.76" stroke-linejoin="bevel" points="3582.92,194.117 3582.92,420.321"/>
<polyline class="FretDiagram" fill="#fc02ff" stroke="#fc02ff" stroke-width="4.76" stroke-linejoin="bevel" points="3624.59,194.117 3624.59,420.321"/>
<polyline class="FretDiagram" fill="#fc02ff" stroke="#fc02ff" stroke-width="4.76" stroke-linejoin="bevel" points="3416.24,253.644 3624.59,253.644"/>
<polyline class="FretDiagram" fill="#fc02ff" stroke="#fc02ff" stroke-width="4.76" stroke-linejoin="bevel" points="3416.24,301.266 3624.59,301.266"/>
<polyline class="FretDiagram" fill="#fc02ff" stroke="#fc02ff" stroke-width="4.76" stroke-linejoin="bevel" points="3416.24,348.888 3624.59,348.888"/>
<polyline class="FretDiagram" fill="#fc02ff" stroke="#fc02ff" stroke-width="4.76" stroke-linejoin="bevel" points="3416.24,396.51 3624.59,396.51"/>
<path class="FretDiagram" fill="#fc02ff" fill-rule="evenodd" d="M3514.16,325.077 C3514.16,333.132 3507.64,339.661 3499.58,339.661 C3491.53,339.661 3485,333.132 3485,325.077 C3485,317.023 3491.53,310.493 3499.58,310.493 C3507.64,310.493 3514.16,317.023 3514.16,325.077"/>
<path class="FretDiagram" fill="#fc02ff" fill-rule="evenodd" d="M3555.83,372.699 C3555.83,380.754 3549.3,387.284 3541.25,387.284 C3533.2,387.284 3526.67,380.754 3526.67,372.699 C3526.67,364.645 3533.2,358.115 3541.25,358.115 C3549.3,358.115 3555.83,364.645 3555.83,372.699"/>
<path class="FretDiagram" fill="#fc02ff" fill-rule="evenodd" d="M3597.5,277.455 C3597.5,285.51 3590.97,292.039 3582.92,292.039 C3574.86,292.039 3568.33,285.51 3568.33,277.455 C3568.33,269.401 3574.86,262.871 3582.92,262.871 C3590.97,262.871 3597.5,269.401 3597.5,277.455"/>
<polyline class="FretDiagram" fill="none" stroke="#fc02ff" stroke-width="6.86" stroke-linecap="round" stroke-linejoin="bevel" points="3399.57,141.732 3432.91,175.068"/>
<polyline class="FretDiagram" fill="none" stroke="#fc02ff" stroke-width="6.86" stroke-linecap="round" stroke-linejoin="bevel" points="3399.57,175.068 3432.91,141.732"/>
<path class="FretDiagram" fill="none" stroke="#fc02ff" stroke-width="6.86" stroke-linecap="round" stroke-linejoin="bevel" fill-rule="evenodd" d="M3474.58,158.4 C3474.58,167.605 3467.12,175.068 3457.91,175.068 C3448.71,175.068 3441.24,167.605 3441.24,158.4 C3441.24,149.195 3448.71,141.732 3457.91,141.732 C3467.12,141.732 3474.58,149.195 3474.58,158.4"/>
<path class="FretDiagram" fill="none" stroke="#fc02ff" stroke-width="6.86" stroke-linecap="round" stroke-linejoin="bevel" fill-rule="evenodd" d="M3641.26,158.4 C3641.26,167.605 3633.79,175.068 3624.59,175.068 C3615.38,175.068 3607.92,167.605 3607.92,158.4 C3607.92,149.195 3615.38,141.732 3624.59,141.732 C3633.79,141.732 3641.26,149.195 3641.26,158.4"/>
<polyline class="FretDiagram" fill="none" stroke="#fc02ff" stroke-width="29.17" stroke-linecap="round" stroke-linejoin="bevel" points="3457.91,229.833 3624.59,229.833"/>
<path class="FretDiagram" fill="#fc02ff" d="M3396.17,195.73 L3396.17,202.76 C3388.57,212.893 3382.57,222.789 3378.17,232.447 C3373.77,242.105 3370.65,252.318 3368.81,263.085 L3359.88,263.085 C3362.42,252.001 3365.65,242.248 3369.57,233.825 C3373.5,225.401 3379.49,215.458 3387.53,203.995 L3351.14,203.995 L3351.14,195.73 L3396.17,195.73 "/>
<path class="Bracket" transform="matrix(8.6315,0,0,9.74657,76.1283,2374.8)" d="M0.92002,-50 C2.69004,-51.88 6.2,-55.8 6.2,-63 C6.2,-72.1 2.25996,-81.32 2.25996,-86.97 C2.25996,-93.06 5.84004,-98.84 5.95,-99 C6.05996,-99.16 6.05,-99.39 5.94004,-99.46 C5.82998,-99.53 5.62002,-99.47 5.49004,-99.32 C5.35996,-99.17 0,-93.75 0,-85.6 C0,-76.75 3.5,-70.58 3.5,-59.07 C3.5,-56.89 2.55996,-53.36 0.1,-50.33 C-0.0799805,-50.17 -0.1,-49.89 0.0599609,-49.7 L0.0700195,-49.69 L0.1,-49.66 C2.55996,-46.63 3.5,-43.1 3.5,-40.92 C3.5,-29.4 0,-23.24 0,-14.39 C0,-6.25 5.35996,-0.8 5.49004,-0.659961 C5.62002,-0.52002 5.8,-0.42998 5.94004,-0.52002 C6.07998,-0.609961 6.07998,-0.77998 5.95,-0.97998 C5.82002,-1.17998 2.25996,-6.92002 2.25996,-13.01 C2.25996,-18.66 6.2,-27.9 6.2,-37 C6.2,-44.3 2.69004,-48.12 0.92002,-50"/>
</svg>
