<?xml version="1.0" encoding="UTF-8" standalone="no"?>
<svg width="4209.44px" height="2976.38px" viewBox="0 0 4209.44 2976.38"
 xmlns="http://www.w3.org/2000/svg" xmlns:xlink="http://www.w3.org/1999/xlink" version="1.2" baseProfile="tiny">
<title>Accords (14)</title>
<desc>Generated by MuseScore 3.6.2</desc>
<polyline class="StaffLines" fill="none" stroke="#000000" stroke-width="6.55" stroke-linejoin="bevel" points="153.819,558.425 4138.58,558.425"/>
<polyline class="StaffLines" fill="none" stroke="#000000" stroke-width="6.55" stroke-linejoin="bevel" points="153.819,647.717 4138.58,647.717"/>
<polyline class="StaffLines" fill="none" stroke="#000000" stroke-width="6.55" stroke-linejoin="bevel" points="153.819,737.008 4138.58,737.008"/>
<polyline class="StaffLines" fill="none" stroke="#000000" stroke-width="6.55" stroke-linejoin="bevel" points="153.819,826.299 4138.58,826.299"/>
<polyline class="StaffLines" fill="none" stroke="#000000" stroke-width="6.55" stroke-linejoin="bevel" points="153.819,915.591 4138.58,915.591"/>
<polyline class="StaffLines" fill="none" stroke="#000000" stroke-width="6.55" stroke-linejoin="bevel" points="153.819,1004.88 4138.58,1004.88"/>
<polyline class="StaffLines" fill="none" stroke="#000000" stroke-width="6.55" stroke-linejoin="bevel" points="153.819,1391.81 4138.58,1391.81"/>
<polyline class="StaffLines" fill="none" stroke="#000000" stroke-width="6.55" stroke-linejoin="bevel" points="153.819,1451.34 4138.58,1451.34"/>
<polyline class="StaffLines" fill="none" stroke="#000000" stroke-width="6.55" stroke-linejoin="bevel" points="153.819,1510.87 4138.58,1510.87"/>
<polyline class="StaffLines" fill="none" stroke="#000000" stroke-width="6.55" stroke-linejoin="bevel" points="153.819,1570.39 4138.58,1570.39"/>
<polyline class="StaffLines" fill="none" stroke="#000000" stroke-width="6.55" stroke-linejoin="bevel" points="153.819,1629.92 4138.58,1629.92"/>
<polyline class="StaffLines" fill="none" stroke="#000000" stroke-width="6.55" stroke-linejoin="bevel" points="153.819,2187.89 4138.58,2187.89"/>
<polyline class="StaffLines" fill="none" stroke="#000000" stroke-width="6.55" stroke-linejoin="bevel" points="153.819,2247.41 4138.58,2247.41"/>
<polyline class="StaffLines" fill="none" stroke="#000000" stroke-width="6.55" stroke-linejoin="bevel" points="153.819,2306.94 4138.58,2306.94"/>
<polyline class="StaffLines" fill="none" stroke="#000000" stroke-width="6.55" stroke-linejoin="bevel" points="153.819,2366.47 4138.58,2366.47"/>
<polyline class="StaffLines" fill="none" stroke="#000000" stroke-width="6.55" stroke-linejoin="bevel" points="153.819,2426 4138.58,2426"/>
<polyline class="BarLine" fill="none" stroke="#000000" stroke-width="10.71" stroke-linejoin="bevel" points="159.176,2184.61 159.176,2429.27"/>
<polyline class="BarLine" fill="none" stroke="#000000" stroke-width="10.71" stroke-linejoin="bevel" points="1620.05,2184.61 1620.05,2429.27"/>
<polyline class="BarLine" fill="none" stroke="#000000" stroke-width="10.71" stroke-linejoin="bevel" points="2789.57,2184.61 2789.57,2429.27"/>
<polyline class="BarLine" fill="none" stroke="#000000" stroke-width="10.71" stroke-linejoin="bevel" points="4080.54,2184.61 4080.54,2429.27"/>
<polyline class="BarLine" fill="none" stroke="#000000" stroke-width="32.74" stroke-linejoin="bevel" points="4122.21,2184.61 4122.21,2429.27"/>
<polyline class="BarLine" fill="none" stroke="#000000" stroke-width="10.71" stroke-linejoin="bevel" points="159.176,1388.54 159.176,2187.89"/>
<polyline class="BarLine" fill="none" stroke="#000000" stroke-width="10.71" stroke-linejoin="bevel" points="1620.05,1388.54 1620.05,1633.2"/>
<polyline class="BarLine" fill="none" stroke="#000000" stroke-width="10.71" stroke-linejoin="bevel" points="2789.57,1388.54 2789.57,1633.2"/>
<polyline class="BarLine" fill="none" stroke="#000000" stroke-width="10.71" stroke-linejoin="bevel" points="4080.54,1388.54 4080.54,1633.2"/>
<polyline class="BarLine" fill="none" stroke="#000000" stroke-width="32.74" stroke-linejoin="bevel" points="4122.21,1388.54 4122.21,1633.2"/>
<polyline class="BarLine" fill="none" stroke="#000000" stroke-width="10.71" stroke-linejoin="bevel" points="159.176,555.151 159.176,1391.81"/>
<polyline class="BarLine" fill="none" stroke="#000000" stroke-width="10.71" stroke-linejoin="bevel" points="1620.05,555.151 1620.05,1008.16"/>
<polyline class="BarLine" fill="none" stroke="#000000" stroke-width="10.71" stroke-linejoin="bevel" points="2789.57,555.151 2789.57,1008.16"/>
<polyline class="BarLine" fill="none" stroke="#000000" stroke-width="10.71" stroke-linejoin="bevel" points="4080.54,555.151 4080.54,1008.16"/>
<polyline class="BarLine" fill="none" stroke="#000000" stroke-width="32.74" stroke-linejoin="bevel" points="4122.21,555.151 4122.21,1008.16"/>
<path class="Accidental" transform="matrix(2.3811,0,0,2.3811,513.384,1391.81)" d="M23.3,-10.6 C23.9,-10.7 24.4,-11.4 24.4,-12 L24.4,-17.9 C24.4,-18.7 23.8,-19.3 23,-19.3 L22.8,-19.3 L19.5,-18.6 L19.5,-33.5 L16.7,-33.5 L16.7,-18 L7.8,-16.2 L7.8,-30.3 L5,-30.3 L5,-15.6 L1.1,-14.8 C0.5,-14.7 0,-14 0,-13.4 L0,-13.2 L0,-7.4 L0,-7.6 C0,-6.8 0.6,-6.2 1.4,-6.2 L1.7,-6.2 L5,-6.9 L5,9.6 L1.1,10.4 C0.5,10.5 0,11.2 0,11.8 L0,17.6 C0,18.4 0.6,19 1.4,19 L1.7,19 L5,18.3 L5,33.2 L7.8,33.2 L7.8,17.7 L16.7,15.9 L16.7,30 L19.5,30 L19.5,15.3 L23.3,14.6 C23.9,14.5 24.4,13.8 24.4,13.2 L24.4,7.3 C24.4,6.5 23.8,5.9 23,5.9 L22.8,5.9 L19.5,6.6 L19.5,-9.9 L23.3,-10.6 M7.8,9.1 L7.8,-7.5 L16.7,-9.3 L16.7,7.2 L7.8,9.1 "/>
<path class="Accidental" transform="matrix(2.3811,0,0,2.3811,1682.91,1481.1)" d="M23.3,-10.6 C23.9,-10.7 24.4,-11.4 24.4,-12 L24.4,-17.9 C24.4,-18.7 23.8,-19.3 23,-19.3 L22.8,-19.3 L19.5,-18.6 L19.5,-33.5 L16.7,-33.5 L16.7,-18 L7.8,-16.2 L7.8,-30.3 L5,-30.3 L5,-15.6 L1.1,-14.8 C0.5,-14.7 0,-14 0,-13.4 L0,-13.2 L0,-7.4 L0,-7.6 C0,-6.8 0.6,-6.2 1.4,-6.2 L1.7,-6.2 L5,-6.9 L5,9.6 L1.1,10.4 C0.5,10.5 0,11.2 0,11.8 L0,17.6 C0,18.4 0.6,19 1.4,19 L1.7,19 L5,18.3 L5,33.2 L7.8,33.2 L7.8,17.7 L16.7,15.9 L16.7,30 L19.5,30 L19.5,15.3 L23.3,14.6 C23.9,14.5 24.4,13.8 24.4,13.2 L24.4,7.3 C24.4,6.5 23.8,5.9 23,5.9 L22.8,5.9 L19.5,6.6 L19.5,-9.9 L23.3,-10.6 M7.8,9.1 L7.8,-7.5 L16.7,-9.3 L16.7,7.2 L7.8,9.1 "/>
<path class="Accidental" transform="matrix(2.3811,0,0,2.3811,2852.44,1570.39)" d="M23.3,-10.6 C23.9,-10.7 24.4,-11.4 24.4,-12 L24.4,-17.9 C24.4,-18.7 23.8,-19.3 23,-19.3 L22.8,-19.3 L19.5,-18.6 L19.5,-33.5 L16.7,-33.5 L16.7,-18 L7.8,-16.2 L7.8,-30.3 L5,-30.3 L5,-15.6 L1.1,-14.8 C0.5,-14.7 0,-14 0,-13.4 L0,-13.2 L0,-7.4 L0,-7.6 C0,-6.8 0.6,-6.2 1.4,-6.2 L1.7,-6.2 L5,-6.9 L5,9.6 L1.1,10.4 C0.5,10.5 0,11.2 0,11.8 L0,17.6 C0,18.4 0.6,19 1.4,19 L1.7,19 L5,18.3 L5,33.2 L7.8,33.2 L7.8,17.7 L16.7,15.9 L16.7,30 L19.5,30 L19.5,15.3 L23.3,14.6 C23.9,14.5 24.4,13.8 24.4,13.2 L24.4,7.3 C24.4,6.5 23.8,5.9 23,5.9 L22.8,5.9 L19.5,6.6 L19.5,-9.9 L23.3,-10.6 M7.8,9.1 L7.8,-7.5 L16.7,-9.3 L16.7,7.2 L7.8,9.1 "/>
<polyline class="LedgerLine" fill="none" stroke="#000000" stroke-width="9.52" stroke-linejoin="bevel" points="565.526,2128.36 696.003,2128.36"/>
<path class="Note" transform="matrix(2.3811,0,0,2.3811,586.361,2128.36)" d="M18.7,-13.6 C4.9,-13.6 0,-6.6 0,-0.1 C0,6.4 4.9,13.4 18.7,13.4 C32.5,13.4 37.3,6.4 37.3,-0.1 C37.3,-6.6 32.5,-13.6 18.7,-13.6 M10.4,-4.5 C10.3,-4.9 10.3,-5.3 10.3,-5.7 C10.3,-6.5 10.5,-7.3 10.9,-8 C11.6,-9 12.8,-9.7 14.3,-10 C15.6,-10.3 16.3,-10.5 18.9,-10.5 L19,-10.5 C23,-10.5 24.3,-6.8 25.4,-3 L25.7,-2 C26.5,0.6 26.9,2.8 26.9,4.5 C26.9,5.7 26.7,6.8 26.3,7.6 C25.7,8.7 24.7,9.4 23,9.8 C22.1,10 20.6,10.1 20.6,10.1 C20.1,10.1 19.7,10.2 19.3,10.2 C16.1,10.2 14.1,9 12.7,4.7 C11.5,1 11.3,-0.1 10.4,-4.5"/>
<path class="Note" transform="matrix(2.3811,0,0,2.3811,1755.89,2217.65)" d="M18.7,-13.6 C4.9,-13.6 0,-6.6 0,-0.1 C0,6.4 4.9,13.4 18.7,13.4 C32.5,13.4 37.3,6.4 37.3,-0.1 C37.3,-6.6 32.5,-13.6 18.7,-13.6 M10.4,-4.5 C10.3,-4.9 10.3,-5.3 10.3,-5.7 C10.3,-6.5 10.5,-7.3 10.9,-8 C11.6,-9 12.8,-9.7 14.3,-10 C15.6,-10.3 16.3,-10.5 18.9,-10.5 L19,-10.5 C23,-10.5 24.3,-6.8 25.4,-3 L25.7,-2 C26.5,0.6 26.9,2.8 26.9,4.5 C26.9,5.7 26.7,6.8 26.3,7.6 C25.7,8.7 24.7,9.4 23,9.8 C22.1,10 20.6,10.1 20.6,10.1 C20.1,10.1 19.7,10.2 19.3,10.2 C16.1,10.2 14.1,9 12.7,4.7 C11.5,1 11.3,-0.1 10.4,-4.5"/>
<path class="Note" transform="matrix(2.3811,0,0,2.3811,2925.42,2306.94)" d="M18.7,-13.6 C4.9,-13.6 0,-6.6 0,-0.1 C0,6.4 4.9,13.4 18.7,13.4 C32.5,13.4 37.3,6.4 37.3,-0.1 C37.3,-6.6 32.5,-13.6 18.7,-13.6 M10.4,-4.5 C10.3,-4.9 10.3,-5.3 10.3,-5.7 C10.3,-6.5 10.5,-7.3 10.9,-8 C11.6,-9 12.8,-9.7 14.3,-10 C15.6,-10.3 16.3,-10.5 18.9,-10.5 L19,-10.5 C23,-10.5 24.3,-6.8 25.4,-3 L25.7,-2 C26.5,0.6 26.9,2.8 26.9,4.5 C26.9,5.7 26.7,6.8 26.3,7.6 C25.7,8.7 24.7,9.4 23,9.8 C22.1,10 20.6,10.1 20.6,10.1 C20.1,10.1 19.7,10.2 19.3,10.2 C16.1,10.2 14.1,9 12.7,4.7 C11.5,1 11.3,-0.1 10.4,-4.5"/>
<path class="Note" transform="matrix(2.3811,0,0,2.3811,586.361,1540.63)" d="M18.7,-13.6 C4.9,-13.6 0,-6.6 0,-0.1 C0,6.4 4.9,13.4 18.7,13.4 C32.5,13.4 37.3,6.4 37.3,-0.1 C37.3,-6.6 32.5,-13.6 18.7,-13.6 M10.4,-4.5 C10.3,-4.9 10.3,-5.3 10.3,-5.7 C10.3,-6.5 10.5,-7.3 10.9,-8 C11.6,-9 12.8,-9.7 14.3,-10 C15.6,-10.3 16.3,-10.5 18.9,-10.5 L19,-10.5 C23,-10.5 24.3,-6.8 25.4,-3 L25.7,-2 C26.5,0.6 26.9,2.8 26.9,4.5 C26.9,5.7 26.7,6.8 26.3,7.6 C25.7,8.7 24.7,9.4 23,9.8 C22.1,10 20.6,10.1 20.6,10.1 C20.1,10.1 19.7,10.2 19.3,10.2 C16.1,10.2 14.1,9 12.7,4.7 C11.5,1 11.3,-0.1 10.4,-4.5"/>
<path class="Note" transform="matrix(2.3811,0,0,2.3811,586.361,1451.34)" d="M18.7,-13.6 C4.9,-13.6 0,-6.6 0,-0.1 C0,6.4 4.9,13.4 18.7,13.4 C32.5,13.4 37.3,6.4 37.3,-0.1 C37.3,-6.6 32.5,-13.6 18.7,-13.6 M10.4,-4.5 C10.3,-4.9 10.3,-5.3 10.3,-5.7 C10.3,-6.5 10.5,-7.3 10.9,-8 C11.6,-9 12.8,-9.7 14.3,-10 C15.6,-10.3 16.3,-10.5 18.9,-10.5 L19,-10.5 C23,-10.5 24.3,-6.8 25.4,-3 L25.7,-2 C26.5,0.6 26.9,2.8 26.9,4.5 C26.9,5.7 26.7,6.8 26.3,7.6 C25.7,8.7 24.7,9.4 23,9.8 C22.1,10 20.6,10.1 20.6,10.1 C20.1,10.1 19.7,10.2 19.3,10.2 C16.1,10.2 14.1,9 12.7,4.7 C11.5,1 11.3,-0.1 10.4,-4.5"/>
<path class="Note" transform="matrix(2.3811,0,0,2.3811,586.361,1391.81)" d="M18.7,-13.6 C4.9,-13.6 0,-6.6 0,-0.1 C0,6.4 4.9,13.4 18.7,13.4 C32.5,13.4 37.3,6.4 37.3,-0.1 C37.3,-6.6 32.5,-13.6 18.7,-13.6 M10.4,-4.5 C10.3,-4.9 10.3,-5.3 10.3,-5.7 C10.3,-6.5 10.5,-7.3 10.9,-8 C11.6,-9 12.8,-9.7 14.3,-10 C15.6,-10.3 16.3,-10.5 18.9,-10.5 L19,-10.5 C23,-10.5 24.3,-6.8 25.4,-3 L25.7,-2 C26.5,0.6 26.9,2.8 26.9,4.5 C26.9,5.7 26.7,6.8 26.3,7.6 C25.7,8.7 24.7,9.4 23,9.8 C22.1,10 20.6,10.1 20.6,10.1 C20.1,10.1 19.7,10.2 19.3,10.2 C16.1,10.2 14.1,9 12.7,4.7 C11.5,1 11.3,-0.1 10.4,-4.5"/>
<path class="Note" transform="matrix(2.3811,0,0,2.3811,1755.89,1540.63)" d="M18.7,-13.6 C4.9,-13.6 0,-6.6 0,-0.1 C0,6.4 4.9,13.4 18.7,13.4 C32.5,13.4 37.3,6.4 37.3,-0.1 C37.3,-6.6 32.5,-13.6 18.7,-13.6 M10.4,-4.5 C10.3,-4.9 10.3,-5.3 10.3,-5.7 C10.3,-6.5 10.5,-7.3 10.9,-8 C11.6,-9 12.8,-9.7 14.3,-10 C15.6,-10.3 16.3,-10.5 18.9,-10.5 L19,-10.5 C23,-10.5 24.3,-6.8 25.4,-3 L25.7,-2 C26.5,0.6 26.9,2.8 26.9,4.5 C26.9,5.7 26.7,6.8 26.3,7.6 C25.7,8.7 24.7,9.4 23,9.8 C22.1,10 20.6,10.1 20.6,10.1 C20.1,10.1 19.7,10.2 19.3,10.2 C16.1,10.2 14.1,9 12.7,4.7 C11.5,1 11.3,-0.1 10.4,-4.5"/>
<path class="Note" transform="matrix(2.3811,0,0,2.3811,1755.89,1481.1)" d="M18.7,-13.6 C4.9,-13.6 0,-6.6 0,-0.1 C0,6.4 4.9,13.4 18.7,13.4 C32.5,13.4 37.3,6.4 37.3,-0.1 C37.3,-6.6 32.5,-13.6 18.7,-13.6 M10.4,-4.5 C10.3,-4.9 10.3,-5.3 10.3,-5.7 C10.3,-6.5 10.5,-7.3 10.9,-8 C11.6,-9 12.8,-9.7 14.3,-10 C15.6,-10.3 16.3,-10.5 18.9,-10.5 L19,-10.5 C23,-10.5 24.3,-6.8 25.4,-3 L25.7,-2 C26.5,0.6 26.9,2.8 26.9,4.5 C26.9,5.7 26.7,6.8 26.3,7.6 C25.7,8.7 24.7,9.4 23,9.8 C22.1,10 20.6,10.1 20.6,10.1 C20.1,10.1 19.7,10.2 19.3,10.2 C16.1,10.2 14.1,9 12.7,4.7 C11.5,1 11.3,-0.1 10.4,-4.5"/>
<path class="Note" transform="matrix(2.3811,0,0,2.3811,1755.89,1421.57)" d="M18.7,-13.6 C4.9,-13.6 0,-6.6 0,-0.1 C0,6.4 4.9,13.4 18.7,13.4 C32.5,13.4 37.3,6.4 37.3,-0.1 C37.3,-6.6 32.5,-13.6 18.7,-13.6 M10.4,-4.5 C10.3,-4.9 10.3,-5.3 10.3,-5.7 C10.3,-6.5 10.5,-7.3 10.9,-8 C11.6,-9 12.8,-9.7 14.3,-10 C15.6,-10.3 16.3,-10.5 18.9,-10.5 L19,-10.5 C23,-10.5 24.3,-6.8 25.4,-3 L25.7,-2 C26.5,0.6 26.9,2.8 26.9,4.5 C26.9,5.7 26.7,6.8 26.3,7.6 C25.7,8.7 24.7,9.4 23,9.8 C22.1,10 20.6,10.1 20.6,10.1 C20.1,10.1 19.7,10.2 19.3,10.2 C16.1,10.2 14.1,9 12.7,4.7 C11.5,1 11.3,-0.1 10.4,-4.5"/>
<path class="Note" transform="matrix(2.3811,0,0,2.3811,2925.42,1570.39)" d="M18.7,-13.6 C4.9,-13.6 0,-6.6 0,-0.1 C0,6.4 4.9,13.4 18.7,13.4 C32.5,13.4 37.3,6.4 37.3,-0.1 C37.3,-6.6 32.5,-13.6 18.7,-13.6 M10.4,-4.5 C10.3,-4.9 10.3,-5.3 10.3,-5.7 C10.3,-6.5 10.5,-7.3 10.9,-8 C11.6,-9 12.8,-9.7 14.3,-10 C15.6,-10.3 16.3,-10.5 18.9,-10.5 L19,-10.5 C23,-10.5 24.3,-6.8 25.4,-3 L25.7,-2 C26.5,0.6 26.9,2.8 26.9,4.5 C26.9,5.7 26.7,6.8 26.3,7.6 C25.7,8.7 24.7,9.4 23,9.8 C22.1,10 20.6,10.1 20.6,10.1 C20.1,10.1 19.7,10.2 19.3,10.2 C16.1,10.2 14.1,9 12.7,4.7 C11.5,1 11.3,-0.1 10.4,-4.5"/>
<path class="Note" transform="matrix(2.3811,0,0,2.3811,2925.42,1510.87)" d="M18.7,-13.6 C4.9,-13.6 0,-6.6 0,-0.1 C0,6.4 4.9,13.4 18.7,13.4 C32.5,13.4 37.3,6.4 37.3,-0.1 C37.3,-6.6 32.5,-13.6 18.7,-13.6 M10.4,-4.5 C10.3,-4.9 10.3,-5.3 10.3,-5.7 C10.3,-6.5 10.5,-7.3 10.9,-8 C11.6,-9 12.8,-9.7 14.3,-10 C15.6,-10.3 16.3,-10.5 18.9,-10.5 L19,-10.5 C23,-10.5 24.3,-6.8 25.4,-3 L25.7,-2 C26.5,0.6 26.9,2.8 26.9,4.5 C26.9,5.7 26.7,6.8 26.3,7.6 C25.7,8.7 24.7,9.4 23,9.8 C22.1,10 20.6,10.1 20.6,10.1 C20.1,10.1 19.7,10.2 19.3,10.2 C16.1,10.2 14.1,9 12.7,4.7 C11.5,1 11.3,-0.1 10.4,-4.5"/>
<path class="Note" transform="matrix(2.3811,0,0,2.3811,2925.42,1421.57)" d="M18.7,-13.6 C4.9,-13.6 0,-6.6 0,-0.1 C0,6.4 4.9,13.4 18.7,13.4 C32.5,13.4 37.3,6.4 37.3,-0.1 C37.3,-6.6 32.5,-13.6 18.7,-13.6 M10.4,-4.5 C10.3,-4.9 10.3,-5.3 10.3,-5.7 C10.3,-6.5 10.5,-7.3 10.9,-8 C11.6,-9 12.8,-9.7 14.3,-10 C15.6,-10.3 16.3,-10.5 18.9,-10.5 L19,-10.5 C23,-10.5 24.3,-6.8 25.4,-3 L25.7,-2 C26.5,0.6 26.9,2.8 26.9,4.5 C26.9,5.7 26.7,6.8 26.3,7.6 C25.7,8.7 24.7,9.4 23,9.8 C22.1,10 20.6,10.1 20.6,10.1 C20.1,10.1 19.7,10.2 19.3,10.2 C16.1,10.2 14.1,9 12.7,4.7 C11.5,1 11.3,-0.1 10.4,-4.5"/>
<path class="Note" d="M680.055,561.187 C684.394,558.243 687.531,555.803 689.468,553.866 C693.032,550.07 694.814,546.583 694.814,543.407 C694.814,539.766 692.8,537.945 688.771,537.945 C680.946,537.945 672.579,544.84 663.669,558.631 C660.958,562.814 654.992,576.45 645.773,599.537 C653.133,607.129 656.813,611.429 656.813,612.436 C656.813,613.831 655.922,614.528 654.14,614.528 C652.746,614.528 648.911,612.165 642.635,607.439 C635.818,623.321 625.475,636.879 611.607,648.113 C597.429,659.579 580.501,665.312 560.823,665.312 C553.308,665.312 543.895,663.569 532.583,660.083 C523.519,657.294 518.987,652.839 518.987,646.719 C518.987,637.654 522.473,633.122 529.446,633.122 C533.629,633.122 535.721,635.059 535.721,638.932 C535.721,640.172 534.753,641.489 532.816,642.884 C531.809,643.581 531.305,644.937 531.305,646.951 C531.305,649.353 533.978,651.832 539.324,654.388 C545.134,657.178 553.656,658.572 564.89,658.572 C579.378,658.572 593.362,652.297 606.842,639.746 C619.083,628.357 627.876,615.109 633.222,600.002 C631.13,598.297 628.884,596.438 626.482,594.424 C619.044,590.008 615.326,585.475 615.326,580.827 C615.326,578.89 616.604,577.922 619.161,577.922 C622.569,577.922 627.179,580.827 632.99,586.638 C634.229,587.877 635.391,589.039 636.476,590.124 C639.188,582.686 643.526,573.235 649.492,561.768 C660.261,541.005 673.354,530.624 688.771,530.624 C694.272,530.624 698.61,531.67 701.787,533.762 C704.963,535.853 706.551,538.72 706.551,542.361 C706.551,548.172 704.421,553.091 700.16,557.12 C695.744,561.304 691.134,563.395 686.331,563.395 C682.147,563.395 680.055,562.659 680.055,561.187"/>
<path class="Note" d="M680.055,739.77 C684.394,736.826 687.531,734.386 689.468,732.449 C693.032,728.652 694.814,725.166 694.814,721.99 C694.814,718.348 692.8,716.528 688.771,716.528 C680.946,716.528 672.579,723.423 663.669,737.213 C660.958,741.397 654.992,755.032 645.773,778.12 C653.133,785.712 656.813,790.012 656.813,791.019 C656.813,792.414 655.922,793.111 654.14,793.111 C652.746,793.111 648.911,790.748 642.635,786.022 C635.818,801.904 625.475,815.462 611.607,826.696 C597.429,838.162 580.501,843.895 560.823,843.895 C553.308,843.895 543.895,842.152 532.583,838.666 C523.519,835.876 518.987,831.422 518.987,825.301 C518.987,816.237 522.473,811.705 529.446,811.705 C533.629,811.705 535.721,813.641 535.721,817.515 C535.721,818.755 534.753,820.072 532.816,821.466 C531.809,822.164 531.305,823.519 531.305,825.534 C531.305,827.935 533.978,830.415 539.324,832.971 C545.134,835.76 553.656,837.155 564.89,837.155 C579.378,837.155 593.362,830.879 606.842,818.329 C619.083,806.94 627.876,793.692 633.222,778.584 C631.13,776.88 628.884,775.021 626.482,773.006 C619.044,768.59 615.326,764.058 615.326,759.41 C615.326,757.473 616.604,756.504 619.161,756.504 C622.569,756.504 627.179,759.41 632.99,765.22 C634.229,766.46 635.391,767.622 636.476,768.707 C639.188,761.269 643.526,751.817 649.492,740.351 C660.261,719.588 673.354,709.207 688.771,709.207 C694.272,709.207 698.61,710.252 701.787,712.344 C704.963,714.436 706.551,717.303 706.551,720.944 C706.551,726.754 704.421,731.674 700.16,735.703 C695.744,739.886 691.134,741.978 686.331,741.978 C682.147,741.978 680.055,741.242 680.055,739.77"/>
<path class="Note" d="M680.055,471.896 C684.394,468.952 687.531,466.512 689.468,464.575 C693.032,460.778 694.814,457.292 694.814,454.116 C694.814,450.474 692.8,448.654 688.771,448.654 C680.946,448.654 672.579,455.549 663.669,469.339 C660.958,473.523 654.992,487.158 645.773,510.246 C653.133,517.838 656.813,522.138 656.813,523.145 C656.813,524.54 655.922,525.237 654.14,525.237 C652.746,525.237 648.911,522.874 642.635,518.148 C635.818,534.03 625.475,547.588 611.607,558.822 C597.429,570.288 580.501,576.021 560.823,576.021 C553.308,576.021 543.895,574.278 532.583,570.791 C523.519,568.002 518.987,563.548 518.987,557.427 C518.987,548.363 522.473,543.831 529.446,543.831 C533.629,543.831 535.721,545.767 535.721,549.641 C535.721,550.881 534.753,552.198 532.816,553.592 C531.809,554.29 531.305,555.645 531.305,557.66 C531.305,560.061 533.978,562.541 539.324,565.097 C545.134,567.886 553.656,569.281 564.89,569.281 C579.378,569.281 593.362,563.005 606.842,550.455 C619.083,539.066 627.876,525.818 633.222,510.71 C631.13,509.006 628.884,507.147 626.482,505.132 C619.044,500.716 615.326,496.184 615.326,491.536 C615.326,489.599 616.604,488.63 619.161,488.63 C622.569,488.63 627.179,491.536 632.99,497.346 C634.229,498.586 635.391,499.748 636.476,500.832 C639.188,493.395 643.526,483.943 649.492,472.477 C660.261,451.714 673.354,441.332 688.771,441.332 C694.272,441.332 698.61,442.378 701.787,444.47 C704.963,446.562 706.551,449.429 706.551,453.07 C706.551,458.88 704.421,463.8 700.16,467.829 C695.744,472.012 691.134,474.104 686.331,474.104 C682.147,474.104 680.055,473.368 680.055,471.896"/>
<path class="Note" d="M607.423,731.826 C603.24,731.826 601.148,729.928 601.148,726.132 C601.148,719.702 602.116,714.976 604.053,711.954 C612.11,700.023 629.62,677.711 656.581,645.017 C668.744,630.219 684.432,622.82 703.646,622.82 C711.083,622.82 716.235,623.866 719.102,625.958 C723.518,629.212 725.726,633.124 725.726,637.695 C725.726,642.499 721.852,647.845 714.105,653.733 C706.745,659.311 699.772,662.1 693.187,662.1 C690.63,662.1 689.352,661.829 689.352,661.286 C689.352,660.512 690.592,659.698 693.071,658.846 C696.402,657.606 699.966,655.088 703.762,651.292 C708.101,646.876 710.27,642.886 710.27,639.322 C710.27,636.921 708.604,634.635 705.273,632.466 C702.329,630.607 697.564,629.677 690.979,629.677 C681.372,629.677 669.248,639.361 654.605,658.73 C644.843,671.668 636.941,683.056 630.898,692.896 C633.842,691.269 637.367,689.293 641.473,686.969 C646.509,684.102 650.847,682.669 654.489,682.669 C663.553,682.669 668.085,685.923 668.085,692.431 C668.085,698.861 664.367,705.911 656.929,713.581 C651.661,719.004 649.027,723.033 649.027,725.667 C649.027,728.379 651.661,729.735 656.929,729.735 C659.563,729.735 662.275,728.805 665.064,726.945 C667.853,725.164 669.906,724.273 671.223,724.273 C672.308,724.273 672.85,724.97 672.85,726.364 C672.85,728.611 670.681,730.974 666.342,733.453 C659.06,737.637 653.21,739.729 648.794,739.729 C640.97,739.729 637.057,735.545 637.057,727.178 C637.057,721.91 640.079,716.06 646.122,709.63 C650.538,704.904 652.746,700.217 652.746,695.568 C652.746,691.54 650.576,689.526 646.238,689.526 C644.533,689.526 638.878,691.54 629.271,695.568 C626.404,700.372 624.003,704.788 622.066,708.817 C614.706,724.156 609.825,731.826 607.423,731.826"/>
<path class="Note" d="M1849.58,829.061 C1853.92,826.117 1857.06,823.677 1859,821.74 C1862.56,817.944 1864.34,814.457 1864.34,811.281 C1864.34,807.64 1862.33,805.819 1858.3,805.819 C1850.47,805.819 1842.11,812.714 1833.2,826.505 C1830.49,830.688 1824.52,844.324 1815.3,867.411 C1822.66,875.003 1826.34,879.303 1826.34,880.31 C1826.34,881.705 1825.45,882.402 1823.67,882.402 C1822.27,882.402 1818.44,880.039 1812.16,875.313 C1805.35,891.195 1795,904.753 1781.14,915.987 C1766.96,927.453 1750.03,933.186 1730.35,933.186 C1722.84,933.186 1713.42,931.443 1702.11,927.957 C1693.05,925.168 1688.52,920.713 1688.52,914.593 C1688.52,905.528 1692,900.996 1698.97,900.996 C1703.16,900.996 1705.25,902.933 1705.25,906.806 C1705.25,908.046 1704.28,909.363 1702.34,910.758 C1701.34,911.455 1700.83,912.811 1700.83,914.825 C1700.83,917.227 1703.51,919.706 1708.85,922.263 C1714.66,925.052 1723.18,926.446 1734.42,926.446 C1748.91,926.446 1762.89,920.171 1776.37,907.62 C1788.61,896.231 1797.4,882.983 1802.75,867.876 C1800.66,866.171 1798.41,864.312 1796.01,862.298 C1788.57,857.882 1784.85,853.349 1784.85,848.701 C1784.85,846.764 1786.13,845.796 1788.69,845.796 C1792.1,845.796 1796.71,848.701 1802.52,854.512 C1803.76,855.751 1804.92,856.913 1806,857.998 C1808.72,850.56 1813.05,841.109 1819.02,829.642 C1829.79,808.879 1842.88,798.498 1858.3,798.498 C1863.8,798.498 1868.14,799.544 1871.32,801.636 C1874.49,803.727 1876.08,806.594 1876.08,810.235 C1876.08,816.046 1873.95,820.965 1869.69,824.994 C1865.27,829.178 1860.66,831.269 1855.86,831.269 C1851.68,831.269 1849.58,830.533 1849.58,829.061"/>
<path class="Note" d="M1849.58,561.187 C1853.92,558.243 1857.06,555.803 1859,553.866 C1862.56,550.07 1864.34,546.583 1864.34,543.407 C1864.34,539.766 1862.33,537.945 1858.3,537.945 C1850.47,537.945 1842.11,544.84 1833.2,558.631 C1830.49,562.814 1824.52,576.45 1815.3,599.537 C1822.66,607.129 1826.34,611.429 1826.34,612.436 C1826.34,613.831 1825.45,614.528 1823.67,614.528 C1822.27,614.528 1818.44,612.165 1812.16,607.439 C1805.35,623.321 1795,636.879 1781.14,648.113 C1766.96,659.579 1750.03,665.312 1730.35,665.312 C1722.84,665.312 1713.42,663.569 1702.11,660.083 C1693.05,657.294 1688.52,652.839 1688.52,646.719 C1688.52,637.654 1692,633.122 1698.97,633.122 C1703.16,633.122 1705.25,635.059 1705.25,638.932 C1705.25,640.172 1704.28,641.489 1702.34,642.884 C1701.34,643.581 1700.83,644.937 1700.83,646.951 C1700.83,649.353 1703.51,651.832 1708.85,654.388 C1714.66,657.178 1723.18,658.572 1734.42,658.572 C1748.91,658.572 1762.89,652.297 1776.37,639.746 C1788.61,628.357 1797.4,615.109 1802.75,600.002 C1800.66,598.297 1798.41,596.438 1796.01,594.424 C1788.57,590.008 1784.85,585.475 1784.85,580.827 C1784.85,578.89 1786.13,577.922 1788.69,577.922 C1792.1,577.922 1796.71,580.827 1802.52,586.638 C1803.76,587.877 1804.92,589.039 1806,590.124 C1808.72,582.686 1813.05,573.235 1819.02,561.768 C1829.79,541.005 1842.88,530.624 1858.3,530.624 C1863.8,530.624 1868.14,531.67 1871.32,533.762 C1874.49,535.853 1876.08,538.72 1876.08,542.361 C1876.08,548.172 1873.95,553.091 1869.69,557.12 C1865.27,561.304 1860.66,563.395 1855.86,563.395 C1851.68,563.395 1849.58,562.659 1849.58,561.187"/>
<path class="Note" d="M1848.77,763.361 C1848.77,772.27 1838.62,791.832 1818.32,822.047 C1810.27,834.056 1798.68,842.849 1783.58,848.427 C1772.42,852.611 1759.52,854.703 1744.88,854.703 C1740.15,854.703 1735.97,853.734 1732.33,851.797 C1728.3,849.706 1726.28,847.42 1726.28,844.941 C1726.28,838.511 1729.73,835.295 1736.63,835.295 C1737.63,835.295 1738.14,835.915 1738.14,837.155 C1738.14,838.239 1737.63,839.44 1736.63,840.757 C1735.39,842.384 1734.77,843.585 1734.77,844.36 C1734.77,846.684 1738.25,847.846 1745.23,847.846 C1760.88,847.846 1773.23,845.948 1782.3,842.152 C1791.75,838.278 1801.16,828.4 1810.54,812.518 L1813.21,807.521 C1808.72,810.93 1804.26,812.634 1799.85,812.634 C1788.84,812.634 1783.34,808.179 1783.34,799.27 C1783.34,789.663 1789.81,779.553 1802.75,768.939 C1812.9,760.727 1821.93,756.621 1829.83,756.621 C1833.78,756.621 1837.07,757.666 1839.71,759.758 C1840.64,759.061 1841.8,758.712 1843.19,758.712 C1846.91,758.712 1848.77,760.262 1848.77,763.361 M1814.6,805.081 L1836.57,764.523 C1834.86,764.136 1832.97,763.942 1830.87,763.942 C1823.36,763.942 1816.08,768.319 1809.03,777.074 C1800.81,787.3 1796.71,795.474 1796.71,801.594 C1796.71,805.623 1799.38,807.637 1804.73,807.637 C1807.28,807.637 1810.58,806.785 1814.6,805.081"/>
<path class="Note" d="M1849.58,650.479 C1853.92,647.535 1857.06,645.094 1859,643.157 C1862.56,639.361 1864.34,635.875 1864.34,632.698 C1864.34,629.057 1862.33,627.236 1858.3,627.236 C1850.47,627.236 1842.11,634.132 1833.2,647.922 C1830.49,652.106 1824.52,665.741 1815.3,688.828 C1822.66,696.421 1826.34,700.721 1826.34,701.728 C1826.34,703.122 1825.45,703.819 1823.67,703.819 C1822.27,703.819 1818.44,701.457 1812.16,696.731 C1805.35,712.613 1795,726.171 1781.14,737.404 C1766.96,748.871 1750.03,754.604 1730.35,754.604 C1722.84,754.604 1713.42,752.86 1702.11,749.374 C1693.05,746.585 1688.52,742.13 1688.52,736.01 C1688.52,726.945 1692,722.413 1698.97,722.413 C1703.16,722.413 1705.25,724.35 1705.25,728.224 C1705.25,729.463 1704.28,730.78 1702.34,732.175 C1701.34,732.872 1700.83,734.228 1700.83,736.242 C1700.83,738.644 1703.51,741.123 1708.85,743.68 C1714.66,746.469 1723.18,747.863 1734.42,747.863 C1748.91,747.863 1762.89,741.588 1776.37,729.037 C1788.61,717.649 1797.4,704.401 1802.75,689.293 C1800.66,687.589 1798.41,685.729 1796.01,683.715 C1788.57,679.299 1784.85,674.767 1784.85,670.118 C1784.85,668.181 1786.13,667.213 1788.69,667.213 C1792.1,667.213 1796.71,670.118 1802.52,675.929 C1803.76,677.168 1804.92,678.331 1806,679.415 C1808.72,671.978 1813.05,662.526 1819.02,651.06 C1829.79,630.297 1842.88,619.915 1858.3,619.915 C1863.8,619.915 1868.14,620.961 1871.32,623.053 C1874.49,625.145 1876.08,628.011 1876.08,631.652 C1876.08,637.463 1873.95,642.383 1869.69,646.411 C1865.27,650.595 1860.66,652.687 1855.86,652.687 C1851.68,652.687 1849.58,651.951 1849.58,650.479"/>
<path class="Note" d="M3019.11,918.353 C3023.45,915.409 3026.59,912.968 3028.53,911.031 C3032.09,907.235 3033.87,903.749 3033.87,900.572 C3033.87,896.931 3031.86,895.11 3027.83,895.11 C3020,895.11 3011.64,902.006 3002.73,915.796 C3000.01,919.98 2994.05,933.615 2984.83,956.702 C2992.19,964.295 2995.87,968.595 2995.87,969.602 C2995.87,970.996 2994.98,971.693 2993.2,971.693 C2991.8,971.693 2987.97,969.331 2981.69,964.605 C2974.87,980.487 2964.53,994.045 2950.66,1005.28 C2936.49,1016.74 2919.56,1022.48 2899.88,1022.48 C2892.36,1022.48 2882.95,1020.73 2871.64,1017.25 C2862.58,1014.46 2858.04,1010 2858.04,1003.88 C2858.04,994.819 2861.53,990.287 2868.5,990.287 C2872.69,990.287 2874.78,992.224 2874.78,996.098 C2874.78,997.337 2873.81,998.654 2871.87,1000.05 C2870.87,1000.75 2870.36,1002.1 2870.36,1004.12 C2870.36,1006.52 2873.03,1009 2878.38,1011.55 C2884.19,1014.34 2892.71,1015.74 2903.95,1015.74 C2918.43,1015.74 2932.42,1009.46 2945.9,996.911 C2958.14,985.523 2966.93,972.275 2972.28,957.167 C2970.19,955.463 2967.94,953.603 2965.54,951.589 C2958.1,947.173 2954.38,942.641 2954.38,937.992 C2954.38,936.055 2955.66,935.087 2958.22,935.087 C2961.63,935.087 2966.24,937.992 2972.05,943.803 C2973.29,945.042 2974.45,946.205 2975.53,947.289 C2978.24,939.852 2982.58,930.4 2988.55,918.934 C2999.32,898.171 3012.41,887.789 3027.83,887.789 C3033.33,887.789 3037.67,888.835 3040.84,890.927 C3044.02,893.019 3045.61,895.885 3045.61,899.526 C3045.61,905.337 3043.48,910.257 3039.22,914.285 C3034.8,918.469 3030.19,920.561 3025.39,920.561 C3021.2,920.561 3019.11,919.825 3019.11,918.353"/>
<path class="Note" d="M3018.3,852.652 C3018.3,861.562 3008.15,881.124 2987.85,911.339 C2979.79,923.347 2968.21,932.14 2953.1,937.719 C2941.95,941.902 2929.05,943.994 2914.41,943.994 C2909.68,943.994 2905.5,943.026 2901.86,941.089 C2897.83,938.997 2895.81,936.711 2895.81,934.232 C2895.81,927.802 2899.26,924.587 2906.15,924.587 C2907.16,924.587 2907.67,925.207 2907.67,926.446 C2907.67,927.531 2907.16,928.732 2906.15,930.049 C2904.92,931.676 2904.3,932.876 2904.3,933.651 C2904.3,935.975 2907.78,937.138 2914.75,937.138 C2930.4,937.138 2942.76,935.239 2951.83,931.443 C2961.28,927.569 2970.69,917.692 2980.07,901.809 L2982.74,896.812 C2978.24,900.221 2973.79,901.926 2969.37,901.926 C2958.37,901.926 2952.87,897.471 2952.87,888.561 C2952.87,878.955 2959.34,868.844 2972.28,858.23 C2982.43,850.018 2991.45,845.912 2999.36,845.912 C3003.31,845.912 3006.6,846.958 3009.23,849.05 C3010.16,848.352 3011.33,848.004 3012.72,848.004 C3016.44,848.004 3018.3,849.553 3018.3,852.652 M2984.13,894.372 L3006.1,853.814 C3004.39,853.427 3002.49,853.233 3000.4,853.233 C2992.89,853.233 2985.6,857.61 2978.55,866.365 C2970.34,876.592 2966.24,884.765 2966.24,890.886 C2966.24,894.914 2968.91,896.929 2974.25,896.929 C2976.81,896.929 2980.1,896.076 2984.13,894.372"/>
<path class="Note" d="M2946.48,642.535 C2942.3,642.535 2940.2,640.637 2940.2,636.841 C2940.2,630.41 2941.17,625.684 2943.11,622.663 C2951.17,610.732 2968.68,588.419 2995.64,555.725 C3007.8,540.928 3023.49,533.529 3042.7,533.529 C3050.14,533.529 3055.29,534.575 3058.16,536.667 C3062.57,539.921 3064.78,543.833 3064.78,548.404 C3064.78,553.207 3060.91,558.553 3053.16,564.441 C3045.8,570.019 3038.83,572.808 3032.24,572.808 C3029.69,572.808 3028.41,572.537 3028.41,571.995 C3028.41,571.22 3029.65,570.407 3032.13,569.555 C3035.46,568.315 3039.02,565.797 3042.82,562.001 C3047.16,557.585 3049.33,553.595 3049.33,550.031 C3049.33,547.629 3047.66,545.344 3044.33,543.175 C3041.39,541.315 3036.62,540.386 3030.04,540.386 C3020.43,540.386 3008.3,550.07 2993.66,569.438 C2983.9,582.376 2976,593.765 2969.95,603.604 C2972.9,601.977 2976.42,600.002 2980.53,597.678 C2985.57,594.811 2989.9,593.378 2993.55,593.378 C3002.61,593.378 3007.14,596.632 3007.14,603.139 C3007.14,609.57 3003.42,616.62 2995.99,624.29 C2990.72,629.713 2988.08,633.742 2988.08,636.376 C2988.08,639.087 2990.72,640.443 2995.99,640.443 C2998.62,640.443 3001.33,639.513 3004.12,637.654 C3006.91,635.872 3008.96,634.981 3010.28,634.981 C3011.36,634.981 3011.91,635.679 3011.91,637.073 C3011.91,639.32 3009.74,641.683 3005.4,644.162 C2998.12,648.346 2992.27,650.437 2987.85,650.437 C2980.03,650.437 2976.11,646.254 2976.11,637.887 C2976.11,632.618 2979.14,626.769 2985.18,620.339 C2989.59,615.613 2991.8,610.926 2991.8,606.277 C2991.8,602.249 2989.63,600.234 2985.29,600.234 C2983.59,600.234 2977.93,602.249 2968.33,606.277 C2965.46,611.081 2963.06,615.497 2961.12,619.525 C2953.76,634.865 2948.88,642.535 2946.48,642.535"/>
<path class="Note" d="M3019.11,650.479 C3023.45,647.535 3026.59,645.094 3028.53,643.157 C3032.09,639.361 3033.87,635.875 3033.87,632.698 C3033.87,629.057 3031.86,627.236 3027.83,627.236 C3020,627.236 3011.64,634.132 3002.73,647.922 C3000.01,652.106 2994.05,665.741 2984.83,688.828 C2992.19,696.421 2995.87,700.721 2995.87,701.728 C2995.87,703.122 2994.98,703.819 2993.2,703.819 C2991.8,703.819 2987.97,701.457 2981.69,696.731 C2974.87,712.613 2964.53,726.171 2950.66,737.404 C2936.49,748.871 2919.56,754.604 2899.88,754.604 C2892.36,754.604 2882.95,752.86 2871.64,749.374 C2862.58,746.585 2858.04,742.13 2858.04,736.01 C2858.04,726.945 2861.53,722.413 2868.5,722.413 C2872.69,722.413 2874.78,724.35 2874.78,728.224 C2874.78,729.463 2873.81,730.78 2871.87,732.175 C2870.87,732.872 2870.36,734.228 2870.36,736.242 C2870.36,738.644 2873.03,741.123 2878.38,743.68 C2884.19,746.469 2892.71,747.863 2903.95,747.863 C2918.43,747.863 2932.42,741.588 2945.9,729.037 C2958.14,717.649 2966.93,704.401 2972.28,689.293 C2970.19,687.589 2967.94,685.729 2965.54,683.715 C2958.1,679.299 2954.38,674.767 2954.38,670.118 C2954.38,668.181 2955.66,667.213 2958.22,667.213 C2961.63,667.213 2966.24,670.118 2972.05,675.929 C2973.29,677.168 2974.45,678.331 2975.53,679.415 C2978.24,671.978 2982.58,662.526 2988.55,651.06 C2999.32,630.297 3012.41,619.915 3027.83,619.915 C3033.33,619.915 3037.67,620.961 3040.84,623.053 C3044.02,625.145 3045.61,628.011 3045.61,631.652 C3045.61,637.463 3043.48,642.383 3039.22,646.411 C3034.8,650.595 3030.19,652.687 3025.39,652.687 C3021.2,652.687 3019.11,651.951 3019.11,650.479"/>
<path class="Note" d="M3591.13,918.353 C3595.47,915.409 3598.61,912.968 3600.55,911.031 C3604.11,907.235 3605.89,903.749 3605.89,900.572 C3605.89,896.931 3603.88,895.11 3599.85,895.11 C3592.02,895.11 3583.66,902.006 3574.75,915.796 C3572.04,919.98 3566.07,933.615 3556.85,956.702 C3564.21,964.295 3567.89,968.595 3567.89,969.602 C3567.89,970.996 3567,971.693 3565.22,971.693 C3563.82,971.693 3559.99,969.331 3553.71,964.605 C3546.9,980.487 3536.55,994.045 3522.69,1005.28 C3508.51,1016.74 3491.58,1022.48 3471.9,1022.48 C3464.39,1022.48 3454.97,1020.73 3443.66,1017.25 C3434.6,1014.46 3430.07,1010 3430.07,1003.88 C3430.07,994.819 3433.55,990.287 3440.52,990.287 C3444.71,990.287 3446.8,992.224 3446.8,996.098 C3446.8,997.337 3445.83,998.654 3443.89,1000.05 C3442.89,1000.75 3442.38,1002.1 3442.38,1004.12 C3442.38,1006.52 3445.06,1009 3450.4,1011.55 C3456.21,1014.34 3464.73,1015.74 3475.97,1015.74 C3490.46,1015.74 3504.44,1009.46 3517.92,996.911 C3530.16,985.523 3538.95,972.275 3544.3,957.167 C3542.21,955.463 3539.96,953.603 3537.56,951.589 C3530.12,947.173 3526.4,942.641 3526.4,937.992 C3526.4,936.055 3527.68,935.087 3530.24,935.087 C3533.65,935.087 3538.26,937.992 3544.07,943.803 C3545.31,945.042 3546.47,946.205 3547.55,947.289 C3550.27,939.852 3554.6,930.4 3560.57,918.934 C3571.34,898.171 3584.43,887.789 3599.85,887.789 C3605.35,887.789 3609.69,888.835 3612.87,890.927 C3616.04,893.019 3617.63,895.885 3617.63,899.526 C3617.63,905.337 3615.5,910.257 3611.24,914.285 C3606.82,918.469 3602.21,920.561 3597.41,920.561 C3593.23,920.561 3591.13,919.825 3591.13,918.353"/>
<path class="Note" d="M3612.05,616.271 C3605.7,626.265 3595.67,634.555 3581.95,641.14 C3570.02,646.874 3558.87,649.74 3548.48,649.74 C3540.19,649.74 3533.3,648.074 3527.8,644.743 C3521.83,641.102 3518.85,636.763 3518.85,631.727 C3518.85,620.339 3521.83,610.538 3527.8,602.326 C3535.93,591.17 3544.15,585.592 3552.44,585.592 C3558.32,585.592 3562.51,586.754 3564.99,589.078 C3568.39,592.099 3570.1,596.244 3570.1,601.513 C3570.1,608.95 3564.56,615.419 3553.48,620.92 C3542.71,626.265 3535.24,629.752 3531.05,631.379 C3531.98,633.316 3533.18,635.059 3534.66,636.608 C3538.3,640.482 3543.25,642.419 3549.53,642.419 C3557.43,642.419 3568.05,639.513 3581.37,633.703 C3594.16,628.047 3604.38,622.237 3612.05,616.271 M3529.43,626.033 C3535.24,623.089 3540.54,619.641 3545.35,615.69 C3552.47,609.88 3556.04,603.604 3556.04,596.864 C3556.04,593.068 3554.29,591.17 3550.81,591.17 C3547.86,591.17 3543.84,594.54 3538.72,601.28 C3532.29,609.647 3529.08,616.465 3529.08,621.733 C3529.08,623.205 3529.19,624.638 3529.43,626.033"/>
<path class="Note" d="M3612.05,794.854 C3605.7,804.848 3595.67,813.138 3581.95,819.723 C3570.02,825.456 3558.87,828.323 3548.48,828.323 C3540.19,828.323 3533.3,826.657 3527.8,823.326 C3521.83,819.684 3518.85,815.346 3518.85,810.31 C3518.85,798.921 3521.83,789.121 3527.8,780.909 C3535.93,769.752 3544.15,764.174 3552.44,764.174 C3558.32,764.174 3562.51,765.336 3564.99,767.661 C3568.39,770.682 3570.1,774.827 3570.1,780.095 C3570.1,787.533 3564.56,794.002 3553.48,799.502 C3542.71,804.848 3535.24,808.334 3531.05,809.961 C3531.98,811.898 3533.18,813.641 3534.66,815.191 C3538.3,819.065 3543.25,821.001 3549.53,821.001 C3557.43,821.001 3568.05,818.096 3581.37,812.286 C3594.16,806.63 3604.38,800.819 3612.05,794.854 M3529.43,804.616 C3535.24,801.672 3540.54,798.224 3545.35,794.273 C3552.47,788.462 3556.04,782.187 3556.04,775.447 C3556.04,771.651 3554.29,769.752 3550.81,769.752 C3547.86,769.752 3543.84,773.123 3538.72,779.863 C3532.29,788.23 3529.08,795.048 3529.08,800.316 C3529.08,801.788 3529.19,803.221 3529.43,804.616"/>
<path class="Note" d="M3591.13,650.479 C3595.47,647.535 3598.61,645.094 3600.55,643.157 C3604.11,639.361 3605.89,635.875 3605.89,632.698 C3605.89,629.057 3603.88,627.236 3599.85,627.236 C3592.02,627.236 3583.66,634.132 3574.75,647.922 C3572.04,652.106 3566.07,665.741 3556.85,688.828 C3564.21,696.421 3567.89,700.721 3567.89,701.728 C3567.89,703.122 3567,703.819 3565.22,703.819 C3563.82,703.819 3559.99,701.457 3553.71,696.731 C3546.9,712.613 3536.55,726.171 3522.69,737.404 C3508.51,748.871 3491.58,754.604 3471.9,754.604 C3464.39,754.604 3454.97,752.86 3443.66,749.374 C3434.6,746.585 3430.07,742.13 3430.07,736.01 C3430.07,726.945 3433.55,722.413 3440.52,722.413 C3444.71,722.413 3446.8,724.35 3446.8,728.224 C3446.8,729.463 3445.83,730.78 3443.89,732.175 C3442.89,732.872 3442.38,734.228 3442.38,736.242 C3442.38,738.644 3445.06,741.123 3450.4,743.68 C3456.21,746.469 3464.73,747.863 3475.97,747.863 C3490.46,747.863 3504.44,741.588 3517.92,729.037 C3530.16,717.649 3538.95,704.401 3544.3,689.293 C3542.21,687.589 3539.96,685.729 3537.56,683.715 C3530.12,679.299 3526.4,674.767 3526.4,670.118 C3526.4,668.181 3527.68,667.213 3530.24,667.213 C3533.65,667.213 3538.26,670.118 3544.07,675.929 C3545.31,677.168 3546.47,678.331 3547.55,679.415 C3550.27,671.978 3554.6,662.526 3560.57,651.06 C3571.34,630.297 3584.43,619.915 3599.85,619.915 C3605.35,619.915 3609.69,620.961 3612.87,623.053 C3616.04,625.145 3617.63,628.011 3617.63,631.652 C3617.63,637.463 3615.5,642.383 3611.24,646.411 C3606.82,650.595 3602.21,652.687 3597.41,652.687 C3593.23,652.687 3591.13,651.951 3591.13,650.479"/>
<path class="Clef" transform="matrix(2.3811,0,0,2.3811,212.156,2247.41)" d="M25.4,-25.1 C17.8,-25.1 11.7,-20.7 11.6,-20.7 C5.8,-16.4 3.5,-11.3 2.6,-7.8 C2.1,-6 1.9,-4.2 1.9,-2.5 C1.9,-0.1 2.3,2.1 3.2,4 C4.4,6.7 6.7,8.6 9.7,9.6 C10.9,10 12.2,10.2 13.5,10.2 C15.7,10.2 18,9.6 19.9,8.5 C23,6.8 24.9,3.2 24.9,-0.7 C24.9,-4.2 23.1,-7.4 20.1,-9.3 C18,-10.7 16,-11.1 14.3,-11.1 C13.1,-11.1 12,-10.9 11.1,-10.6 C10.1,-10.2 8.4,-9.2 7.6,-8.5 C7.9,-10.4 9.1,-13.3 10.2,-14.9 C11.3,-16.5 13.5,-18.5 15.2,-19.4 C17.7,-20.8 20.9,-21.4 24.4,-21.4 C34.6,-21.4 39.6,-13.2 39.6,3.6 C39.6,12.9 36.1,21.8 33.1,27.7 C29.8,34.3 25.4,40.6 21.5,44.1 C11.1,53.6 1.3,58.1 1.2,58.1 C1.2,58.1 -0.3,59 0.1,60.5 C0.4,61.5 1.3,61.7 1.9,61.7 C2,61.7 2.3,61.6 2.4,61.6 C2.5,61.6 13.9,56.9 23,49.8 C28.1,46.1 32.7,42.1 36.7,37.8 C40.3,33.9 43.4,29.7 45.9,25.5 C50.3,18 52.8,10.2 52.8,3.5 C52.8,-4.8 50.6,-11.7 46.5,-16.6 C41.8,-22.2 34.7,-25.1 25.4,-25.1 M56.8,-12.4 C56.8,-9.6 59,-7.4 61.6,-7.4 C64.2,-7.4 66.4,-9.6 66.4,-12.4 C66.4,-15.2 64.2,-17.5 61.6,-17.5 C59,-17.5 56.8,-15.2 56.8,-12.4 M56.8,12.3 C56.8,15.1 59,17.4 61.6,17.4 C64.2,17.4 66.4,15.1 66.4,12.3 C66.4,9.5 64.2,7.2 61.6,7.2 C59,7.2 56.8,9.5 56.8,12.3"/>
<path class="Clef" transform="matrix(2.3811,0,0,2.3811,212.156,1570.39)" d="M63.37,-5.89004 C62.14,-11.32 59.5,-15.14 58.72,-16.1801 C55.5301,-20.45 51.52,-23.3 46.8301,-24.65 C43.72,-25.54 40.72,-25.65 38.3,-25.47 C37.2601,-31.4801 36.2601,-37.3601 35.35,-42.8101 C40.79,-48.97 44.42,-54.77 46.69,-59.07 C50.1601,-65.65 51.3101,-70.2301 51.3601,-70.4301 C53.0801,-75.64 53.44,-83.34 52.34,-91.55 C51.3301,-99.1 49.24,-105.81 46.89,-109.06 C45.8601,-110.49 44.8101,-111.22 43.77,-111.22 C42.55,-111.22 40.04,-109.98 37.15,-107.21 C34.85,-105.01 31.5801,-101.12 29.02,-95.1101 C26.02,-88.05 25.8101,-78.5601 26.1601,-71.84 C26.54,-64.57 27.65,-58.8801 27.6601,-58.8301 C27.6801,-58.74 27.94,-57.24 28.39,-54.67 C28.1601,-54.44 27.92,-54.22 27.67,-53.9801 C26.6301,-52.9801 25.44,-51.84 24.0601,-50.4601 C23.2,-49.6 22.25,-48.69 21.25,-47.72 C12.79,-39.57 0,-27.25 0,-8.1 C0,-3.4 0.9,1.01992 2.68008,5.02998 C4.27002,8.62998 6.57002,11.91 9.5,14.78 C17.2301,22.33 27.82,25.5399 34.8801,25.38 C37.8301,25.31 40.4601,25.0699 42.85,24.6199 C44.6801,34.2199 45.82,41.25 45.8601,46.5899 C45.9,53.1 44.25,57.0699 40.35,59.8399 C37.92,61.5699 35.1101,62.5199 32.0101,62.6699 C29.42,62.7899 27.1601,62.3199 25.7301,61.91 L25.72,61.91 C25.72,61.91 25.4301,61.83 25.42,61.63 C25.4101,61.45 25.7601,61.4 25.77,61.4 L25.79,61.4 C27.7101,60.96 31.2801,59.73 33.64,56.43 C35.44,53.91 36.3101,49.2899 34.47,45.35 C33.3601,42.96 30.85,40.01 25.2301,39.56 C22.74,39.36 20.47,39.8699 18.47,41.0699 C16.6601,42.15 15.1601,43.7899 14.1101,45.7899 C11.65,50.4899 12.1101,56.2199 15.24,60.06 C18.2,63.68 22.82,65.9899 28.25,66.5699 C29.1,66.66 29.95,66.7 30.8,66.7 C31.5101,66.7 32.22,66.6699 32.92,66.61 C31.72,66.9399 30.64,67.4899 29.77,68.25 C28.2801,69.5399 27.44,71.38 27.44,73.41 C27.44,75.28 28.0601,76.65 29.55,78.0399 C28.4101,78.5 27.55,78.98 26.79,79.56 C25.25,80.73 24.34,82.46 24.34,84.1899 C24.34,87.45 27.3,89.63 31.72,89.63 C37.1301,89.63 40.9101,86.63 40.9101,82.35 C40.9101,80.1199 39.9101,78.18 38.0801,76.83 C41.0101,75.6199 42.37,73.9399 42.37,71.56 C42.39,70.05 41.69,68.61 40.49,67.6899 C39.2801,66.7399 37.62,66.2399 35.69,66.2399 L35.5101,66.2399 C38.2801,65.7 40.92,64.7 43.2101,63.28 C46.87,60.71 48.99,56.73 49.67,51.1 C50.2301,46.46 49.84,40.55 48.44,32.48 C48.0801,30.3899 47.54,27.36 46.8801,23.6 C52.6301,21.68 56.79,18.11 60.5601,12.26 C63.85,6.51992 64.8,0.419922 63.37,-5.89004 M32.39,87.5399 C30.19,87.5399 28.7301,86.1199 28.7301,84.01 C28.7301,82.11 29.65,80.5 31.32,79.4699 C31.6801,79.66 31.77,79.71 32.1101,79.88 C33.3,80.48 33.3,80.48 33.55,80.63 L33.5601,80.6399 C35.47,81.73 36.25,82.76 36.25,84.18 C36.24,86.0899 34.59,87.5399 32.39,87.5399 M38.3101,71.63 C38.3101,73.2699 37.7301,74.3399 36.1801,75.53 C34.74,74.78 34.35,74.56 33.9801,74.3399 L33.8801,74.28 C32.3301,73.3399 31.85,72.66 31.85,71.4 C31.85,69.6 33.2301,68.3399 35.19,68.3399 C37.17,68.35 38.3101,69.55 38.3101,71.63 M33.15,-83.8101 C34.9301,-89.55 37.67,-92.8 39.6601,-94.5301 C41.4101,-96.05 43.0601,-96.7601 43.9801,-96.7601 C44.12,-96.7601 44.24,-96.74 44.34,-96.7101 C44.8,-96.57 45.3301,-96 45.8,-95.1301 C48.1101,-90.84 47.37,-84.1301 46.0301,-79.69 C44.4,-74.29 41.4801,-68.6801 32.69,-59.0601 C32.52,-60.17 32.3601,-61.22 32.2101,-62.2 C30.95,-70.49 31.27,-77.7601 33.15,-83.8101 M29.15,20.31 C24.5101,19.0899 20.0801,16.5899 16.32,13.0899 C15.0101,11.86 13.14,9.68994 11.67,6.3 C10.3101,3.13994 9.65,-0.290039 9.7,-3.88008 C9.77002,-8.57002 11.0801,-13.39 13.59,-18.1801 C16.5101,-23.7601 21.07,-29.29 27.1301,-34.62 C28.5801,-35.9 29.95,-37.1801 31.24,-38.4601 C32,-34.2 32.8301,-29.5101 33.7101,-24.6301 C29.8601,-23.3601 25.1101,-20.2101 22,-14.5601 C18.47,-7.99004 18.6101,-2.47002 19.34,1.00996 C20.2801,5.46992 22.8101,9.22998 26.27,11.3199 C27.2,11.88 31.3301,14.01 33.17,13.43 C33.54,13.31 33.8101,13.0899 33.95,12.76 C34.4601,11.5899 33.44,10.95 31.8801,9.98994 C31.2801,9.61992 30.6101,9.2 29.8801,8.66992 C26.5601,6.17998 25.1101,1.72998 26.1801,-2.65 C26.7601,-5.05 28.04,-7.21006 29.8801,-8.91006 C31.55,-10.4601 33.59,-11.5601 35.97,-12.2 C38.0101,-0.960059 40.07,10.1899 41.7101,18.55 C41.84,19.2399 41.9801,19.91 42.1101,20.58 C37.7101,21.51 33.37,21.4199 29.15,20.31 M54.9,10.1 C53.7301,13.28 51.27,17.35 46.14,19.41 C46.07,18.9899 45.99,18.56 45.9101,18.13 C44.3601,9.36992 42.4301,-1.61006 40.47,-12.87 C50.82,-13.35 55.09,-5.91006 55.9801,-1.08008 C56.45,1.45 56.45,5.88994 54.9,10.1"/>
<path class="FiguredBass" d="M580.126,2615.45 C579.446,2616.2 578.549,2616.57 577.436,2616.57 C576.322,2616.57 575.41,2616.18 574.699,2615.41 C573.988,2614.64 573.632,2613.75 573.632,2612.76 L573.632,2599.5 L560.365,2599.5 C559.252,2599.5 558.34,2599.11 557.628,2598.34 C556.917,2597.56 556.562,2596.68 556.562,2595.69 C556.562,2594.7 556.917,2593.82 557.628,2593.05 C558.34,2592.28 559.252,2591.89 560.365,2591.89 L573.632,2591.89 L573.632,2578.62 C573.632,2577.63 573.988,2576.75 574.699,2575.98 C575.41,2575.21 576.322,2574.82 577.436,2574.82 C578.549,2574.82 579.461,2575.21 580.172,2575.98 C580.884,2576.75 581.239,2577.63 581.239,2578.62 L581.239,2591.89 L594.506,2591.89 C595.619,2591.89 596.531,2592.28 597.243,2593.05 C597.954,2593.82 598.31,2594.7 598.31,2595.69 C598.31,2596.68 597.954,2597.56 597.243,2598.34 C596.531,2599.11 595.619,2599.5 594.506,2599.5 L581.239,2599.5 L581.239,2612.76 C581.239,2613.75 580.868,2614.65 580.126,2615.45 M632.9,2559.6 C635.251,2559.6 637.725,2559.26 640.322,2558.58 L644.497,2557.47 C645.301,2557.47 645.935,2557.78 646.399,2558.4 C646.863,2559.02 646.816,2559.57 646.26,2560.07 L603.12,2610.26 L628.447,2610.26 L628.447,2590.41 C628.447,2588.98 628.834,2587.89 629.607,2587.11 C630.38,2586.34 631.37,2585.72 632.576,2585.26 C633.782,2584.79 635.359,2583.42 637.307,2581.13 C639.255,2578.84 641.126,2575.75 642.92,2571.85 C643.229,2571.23 643.693,2570.92 644.312,2570.92 C645.61,2570.92 646.26,2571.63 646.26,2573.06 L646.26,2610.26 L657.207,2610.26 C658.753,2610.26 659.526,2610.97 659.526,2612.39 C659.526,2613.94 658.753,2614.71 657.207,2614.71 L646.26,2614.71 L646.26,2615.92 C646.26,2619.75 647.28,2623.09 649.321,2625.94 C651.362,2628.78 653.991,2630.21 657.207,2630.21 C658.444,2630.21 659.063,2630.76 659.063,2631.88 C659.063,2633.11 658.444,2633.73 657.207,2633.73 C654.981,2633.73 651.672,2633.41 647.28,2632.76 C642.889,2632.11 639.565,2631.78 637.307,2631.78 C635.05,2631.78 631.725,2632.11 627.334,2632.76 C622.943,2633.41 619.634,2633.73 617.407,2633.73 C616.17,2633.73 615.552,2633.11 615.552,2631.88 C615.552,2630.76 616.17,2630.21 617.407,2630.21 C620.623,2630.21 623.267,2628.78 625.339,2625.94 C627.411,2623.09 628.447,2619.75 628.447,2615.92 L628.447,2614.71 L603.12,2614.71 C601.512,2614.71 600.322,2614.33 599.548,2613.55 C598.775,2612.78 598.389,2611.99 598.389,2611.19 C598.389,2610.88 599.115,2609.81 600.569,2607.99 C602.022,2606.16 603.801,2603.73 605.903,2600.7 C608.006,2597.67 610.094,2594.22 612.166,2590.36 C614.238,2586.49 616,2581.86 617.454,2576.44 C618.907,2571.03 619.634,2565.57 619.634,2560.07 C619.634,2558.46 620.314,2557.66 621.675,2557.66 C621.86,2557.66 622.51,2557.81 623.623,2558.12 C624.736,2558.43 626.159,2558.75 627.891,2559.09 C629.622,2559.43 631.292,2559.6 632.9,2559.6"/>
<path class="FiguredBass" d="M1749.65,2615.45 C1748.97,2616.2 1748.08,2616.57 1746.96,2616.57 C1745.85,2616.57 1744.94,2616.18 1744.23,2615.41 C1743.52,2614.64 1743.16,2613.75 1743.16,2612.76 L1743.16,2599.5 L1729.89,2599.5 C1728.78,2599.5 1727.87,2599.11 1727.16,2598.34 C1726.45,2597.56 1726.09,2596.68 1726.09,2595.69 C1726.09,2594.7 1726.45,2593.82 1727.16,2593.05 C1727.87,2592.28 1728.78,2591.89 1729.89,2591.89 L1743.16,2591.89 L1743.16,2578.62 C1743.16,2577.63 1743.52,2576.75 1744.23,2575.98 C1744.94,2575.21 1745.85,2574.82 1746.96,2574.82 C1748.08,2574.82 1748.99,2575.21 1749.7,2575.98 C1750.41,2576.75 1750.77,2577.63 1750.77,2578.62 L1750.77,2591.89 L1764.03,2591.89 C1765.15,2591.89 1766.06,2592.28 1766.77,2593.05 C1767.48,2593.82 1767.84,2594.7 1767.84,2595.69 C1767.84,2596.68 1767.48,2597.56 1766.77,2598.34 C1766.06,2599.11 1765.15,2599.5 1764.03,2599.5 L1750.77,2599.5 L1750.77,2612.76 C1750.77,2613.75 1750.4,2614.65 1749.65,2615.45 M1802.43,2559.6 C1804.78,2559.6 1807.25,2559.26 1809.85,2558.58 L1814.03,2557.47 C1814.83,2557.47 1815.46,2557.78 1815.93,2558.4 C1816.39,2559.02 1816.34,2559.57 1815.79,2560.07 L1772.65,2610.26 L1797.98,2610.26 L1797.98,2590.41 C1797.98,2588.98 1798.36,2587.89 1799.14,2587.11 C1799.91,2586.34 1800.9,2585.72 1802.1,2585.26 C1803.31,2584.79 1804.89,2583.42 1806.84,2581.13 C1808.78,2578.84 1810.65,2575.75 1812.45,2571.85 C1812.76,2571.23 1813.22,2570.92 1813.84,2570.92 C1815.14,2570.92 1815.79,2571.63 1815.79,2573.06 L1815.79,2610.26 L1826.74,2610.26 C1828.28,2610.26 1829.05,2610.97 1829.05,2612.39 C1829.05,2613.94 1828.28,2614.71 1826.74,2614.71 L1815.79,2614.71 L1815.79,2615.92 C1815.79,2619.75 1816.81,2623.09 1818.85,2625.94 C1820.89,2628.78 1823.52,2630.21 1826.74,2630.21 C1827.97,2630.21 1828.59,2630.76 1828.59,2631.88 C1828.59,2633.11 1827.97,2633.73 1826.74,2633.73 C1824.51,2633.73 1821.2,2633.41 1816.81,2632.76 C1812.42,2632.11 1809.09,2631.78 1806.84,2631.78 C1804.58,2631.78 1801.25,2632.11 1796.86,2632.76 C1792.47,2633.41 1789.16,2633.73 1786.94,2633.73 C1785.7,2633.73 1785.08,2633.11 1785.08,2631.88 C1785.08,2630.76 1785.7,2630.21 1786.94,2630.21 C1790.15,2630.21 1792.8,2628.78 1794.87,2625.94 C1796.94,2623.09 1797.98,2619.75 1797.98,2615.92 L1797.98,2614.71 L1772.65,2614.71 C1771.04,2614.71 1769.85,2614.33 1769.08,2613.55 C1768.3,2612.78 1767.92,2611.99 1767.92,2611.19 C1767.92,2610.88 1768.64,2609.81 1770.1,2607.99 C1771.55,2606.16 1773.33,2603.73 1775.43,2600.7 C1777.53,2597.67 1779.62,2594.22 1781.69,2590.36 C1783.77,2586.49 1785.53,2581.86 1786.98,2576.44 C1788.44,2571.03 1789.16,2565.57 1789.16,2560.07 C1789.16,2558.46 1789.84,2557.66 1791.2,2557.66 C1791.39,2557.66 1792.04,2557.81 1793.15,2558.12 C1794.26,2558.43 1795.69,2558.75 1797.42,2559.09 C1799.15,2559.43 1800.82,2559.6 1802.43,2559.6"/>
<path class="FiguredBass" d="M2919.18,2615.45 C2918.5,2616.2 2917.61,2616.57 2916.49,2616.57 C2915.38,2616.57 2914.47,2616.18 2913.76,2615.41 C2913.04,2614.64 2912.69,2613.75 2912.69,2612.76 L2912.69,2599.5 L2899.42,2599.5 C2898.31,2599.5 2897.4,2599.11 2896.69,2598.34 C2895.97,2597.56 2895.62,2596.68 2895.62,2595.69 C2895.62,2594.7 2895.97,2593.82 2896.69,2593.05 C2897.4,2592.28 2898.31,2591.89 2899.42,2591.89 L2912.69,2591.89 L2912.69,2578.62 C2912.69,2577.63 2913.04,2576.75 2913.76,2575.98 C2914.47,2575.21 2915.38,2574.82 2916.49,2574.82 C2917.61,2574.82 2918.52,2575.21 2919.23,2575.98 C2919.94,2576.75 2920.3,2577.63 2920.3,2578.62 L2920.3,2591.89 L2933.56,2591.89 C2934.68,2591.89 2935.59,2592.28 2936.3,2593.05 C2937.01,2593.82 2937.37,2594.7 2937.37,2595.69 C2937.37,2596.68 2937.01,2597.56 2936.3,2598.34 C2935.59,2599.11 2934.68,2599.5 2933.56,2599.5 L2920.3,2599.5 L2920.3,2612.76 C2920.3,2613.75 2919.93,2614.65 2919.18,2615.45 M2971.96,2559.6 C2974.31,2559.6 2976.78,2559.26 2979.38,2558.58 L2983.55,2557.47 C2984.36,2557.47 2984.99,2557.78 2985.46,2558.4 C2985.92,2559.02 2985.87,2559.57 2985.32,2560.07 L2942.18,2610.26 L2967.5,2610.26 L2967.5,2590.41 C2967.5,2588.98 2967.89,2587.89 2968.66,2587.11 C2969.44,2586.34 2970.43,2585.72 2971.63,2585.26 C2972.84,2584.79 2974.42,2583.42 2976.36,2581.13 C2978.31,2578.84 2980.18,2575.75 2981.98,2571.85 C2982.29,2571.23 2982.75,2570.92 2983.37,2570.92 C2984.67,2570.92 2985.32,2571.63 2985.32,2573.06 L2985.32,2610.26 L2996.26,2610.26 C2997.81,2610.26 2998.58,2610.97 2998.58,2612.39 C2998.58,2613.94 2997.81,2614.71 2996.26,2614.71 L2985.32,2614.71 L2985.32,2615.92 C2985.32,2619.75 2986.34,2623.09 2988.38,2625.94 C2990.42,2628.78 2993.05,2630.21 2996.26,2630.21 C2997.5,2630.21 2998.12,2630.76 2998.12,2631.88 C2998.12,2633.11 2997.5,2633.73 2996.26,2633.73 C2994.04,2633.73 2990.73,2633.41 2986.34,2632.76 C2981.95,2632.11 2978.62,2631.78 2976.36,2631.78 C2974.11,2631.78 2970.78,2632.11 2966.39,2632.76 C2962,2633.41 2958.69,2633.73 2956.46,2633.73 C2955.23,2633.73 2954.61,2633.11 2954.61,2631.88 C2954.61,2630.76 2955.23,2630.21 2956.46,2630.21 C2959.68,2630.21 2962.32,2628.78 2964.4,2625.94 C2966.47,2623.09 2967.5,2619.75 2967.5,2615.92 L2967.5,2614.71 L2942.18,2614.71 C2940.57,2614.71 2939.38,2614.33 2938.61,2613.55 C2937.83,2612.78 2937.45,2611.99 2937.45,2611.19 C2937.45,2610.88 2938.17,2609.81 2939.63,2607.99 C2941.08,2606.16 2942.86,2603.73 2944.96,2600.7 C2947.06,2597.67 2949.15,2594.22 2951.22,2590.36 C2953.29,2586.49 2955.06,2581.86 2956.51,2576.44 C2957.96,2571.03 2958.69,2565.57 2958.69,2560.07 C2958.69,2558.46 2959.37,2557.66 2960.73,2557.66 C2960.92,2557.66 2961.57,2557.81 2962.68,2558.12 C2963.79,2558.43 2965.22,2558.75 2966.95,2559.09 C2968.68,2559.43 2970.35,2559.6 2971.96,2559.6"/>
<path class="FiguredBass" d="M632.9,1763.53 C635.251,1763.53 637.725,1763.19 640.322,1762.51 L644.497,1761.4 C645.301,1761.4 645.935,1761.71 646.399,1762.32 C646.863,1762.94 646.816,1763.5 646.26,1763.99 L603.12,1814.18 L628.447,1814.18 L628.447,1794.33 C628.447,1792.91 628.834,1791.81 629.607,1791.04 C630.38,1790.26 631.37,1789.65 632.576,1789.18 C633.782,1788.72 635.359,1787.34 637.307,1785.05 C639.255,1782.77 641.126,1779.67 642.92,1775.78 C643.229,1775.16 643.693,1774.85 644.312,1774.85 C645.61,1774.85 646.26,1775.56 646.26,1776.98 L646.26,1814.18 L657.207,1814.18 C658.753,1814.18 659.526,1814.9 659.526,1816.32 C659.526,1817.86 658.753,1818.64 657.207,1818.64 L646.26,1818.64 L646.26,1819.84 C646.26,1823.68 647.28,1827.02 649.321,1829.86 C651.362,1832.71 653.991,1834.13 657.207,1834.13 C658.444,1834.13 659.063,1834.69 659.063,1835.8 C659.063,1837.04 658.444,1837.66 657.207,1837.66 C654.981,1837.66 651.672,1837.33 647.28,1836.68 C642.889,1836.03 639.565,1835.71 637.307,1835.71 C635.05,1835.71 631.725,1836.03 627.334,1836.68 C622.943,1837.33 619.634,1837.66 617.407,1837.66 C616.17,1837.66 615.552,1837.04 615.552,1835.8 C615.552,1834.69 616.17,1834.13 617.407,1834.13 C620.623,1834.13 623.267,1832.71 625.339,1829.86 C627.411,1827.02 628.447,1823.68 628.447,1819.84 L628.447,1818.64 L603.12,1818.64 C601.512,1818.64 600.322,1818.25 599.548,1817.48 C598.775,1816.7 598.389,1815.92 598.389,1815.11 C598.389,1814.8 599.115,1813.74 600.569,1811.91 C602.022,1810.09 603.801,1807.66 605.903,1804.63 C608.006,1801.6 610.094,1798.15 612.166,1794.28 C614.238,1790.42 616,1785.78 617.454,1780.37 C618.907,1774.96 619.634,1769.5 619.634,1763.99 C619.634,1762.39 620.314,1761.58 621.675,1761.58 C621.86,1761.58 622.51,1761.74 623.623,1762.05 C624.736,1762.36 626.159,1762.68 627.891,1763.02 C629.622,1763.36 631.292,1763.53 632.9,1763.53"/>
<path class="FiguredBass" d="M637.725,1943.41 C631.725,1943.41 627.365,1941.74 624.644,1938.4 C623.654,1937.16 622.386,1936.02 620.84,1934.96 C619.294,1933.91 617.593,1933.39 615.737,1933.39 C613.325,1933.39 611.161,1934.14 609.243,1935.66 C607.326,1937.17 606.367,1939.2 606.367,1941.74 C606.367,1942.85 605.811,1943.41 604.697,1943.41 C603.46,1943.41 602.842,1942.85 602.842,1941.74 C602.842,1937.96 603.723,1934.52 605.486,1931.39 C607.249,1928.27 609.46,1925.64 612.119,1923.51 C614.779,1921.37 617.655,1919.08 620.747,1916.64 C623.84,1914.2 626.7,1911.83 629.329,1909.54 C631.957,1907.26 634.153,1904.36 635.916,1900.87 C637.678,1897.38 638.56,1893.56 638.56,1889.41 C638.56,1884.22 637.709,1879.83 636.008,1876.24 C634.308,1872.65 631.633,1870.86 627.983,1870.86 C625.881,1870.86 624.056,1871.37 622.51,1872.39 C620.964,1873.41 620.191,1874.75 620.191,1876.42 C620.191,1877.72 621.072,1879.42 622.835,1881.53 C624.597,1883.63 625.479,1885.39 625.479,1886.81 C625.479,1889.78 624.474,1892.27 622.463,1894.28 C620.453,1896.29 618.026,1897.3 615.181,1897.3 C612.212,1897.3 609.723,1896.26 607.712,1894.19 C605.702,1892.12 604.697,1889.66 604.697,1886.81 C604.697,1881.12 606.97,1876.45 611.516,1872.81 C616.062,1869.16 621.551,1867.33 627.983,1867.33 C635.591,1867.33 642.224,1869.39 647.883,1873.5 C653.543,1877.61 656.372,1882.92 656.372,1889.41 C656.372,1893.8 655.584,1897.61 654.006,1900.82 C652.429,1904.04 650.172,1906.64 647.234,1908.62 C644.296,1910.6 641.358,1912.28 638.42,1913.67 C635.483,1915.06 632.035,1916.56 628.076,1918.17 C624.118,1919.78 620.933,1921.36 618.521,1922.9 C619.819,1922.59 621.149,1922.44 622.51,1922.44 C627.087,1922.44 631.849,1923.92 636.797,1926.89 C641.745,1929.86 645.641,1931.35 648.486,1931.35 C650.094,1931.35 651.409,1931.05 652.429,1930.46 C653.45,1929.88 654.115,1929.23 654.424,1928.52 C654.733,1927.8 655.089,1927.14 655.491,1926.52 C655.893,1925.9 656.341,1925.59 656.836,1925.59 C658.073,1925.59 658.691,1926.21 658.691,1927.45 C658.691,1930.11 656.774,1933.43 652.94,1937.42 C649.105,1941.41 644.033,1943.41 637.725,1943.41"/>
<path class="FiguredBass" d="M633.55,1976.61 C628.973,1976.61 625.927,1978.45 624.412,1982.13 C622.896,1985.81 622.139,1991.02 622.139,1997.76 L622.139,2008.71 C625.355,2007.41 628.138,2006.73 630.488,2006.67 C638.529,2006.67 644.853,2008.44 649.461,2012 C654.068,2015.56 656.372,2020.84 656.372,2027.86 C656.372,2034.88 654.037,2040.19 649.368,2043.78 C644.698,2047.36 638.405,2049.16 630.488,2049.16 C622.386,2049.16 616.047,2045.4 611.47,2037.88 C606.893,2030.37 604.605,2021.45 604.605,2011.12 C604.605,2000.85 607.264,1991.95 612.583,1984.4 C617.902,1976.85 624.891,1973.08 633.55,1973.08 C639.24,1973.08 644.157,1974.52 648.301,1977.4 C652.445,1980.27 654.517,1984.06 654.517,1988.76 C654.517,1991.48 653.527,1993.83 651.548,1995.81 C649.569,1997.79 647.203,1998.78 644.451,1998.78 C641.698,1998.78 639.333,1997.79 637.354,1995.81 C635.374,1993.83 634.385,1991.48 634.385,1988.76 C634.385,1986.1 635.374,1983.75 637.354,1981.71 C638.034,1980.91 638.993,1980.23 640.23,1979.67 C639.92,1978.86 639.302,1978.25 638.374,1977.81 C637.013,1977.01 635.405,1976.61 633.55,1976.61 M638.096,2014.55 C636.982,2011.64 634.539,2010.19 630.767,2010.19 C626.994,2010.19 624.659,2011.64 623.762,2014.55 C622.865,2017.46 622.417,2021.88 622.417,2027.82 C622.417,2034.81 622.865,2039.51 623.762,2041.92 C624.659,2044.33 626.994,2045.54 630.767,2045.54 C634.539,2045.54 636.982,2044.08 638.096,2041.18 C639.209,2038.27 639.766,2033.83 639.766,2027.86 C639.766,2021.9 639.209,2017.46 638.096,2014.55"/>
<path class="FiguredBass" d="M1803.08,1765.11 C1798.5,1765.11 1795.46,1766.95 1793.94,1770.63 C1792.42,1774.31 1791.67,1779.52 1791.67,1786.26 L1791.67,1797.21 C1794.88,1795.91 1797.67,1795.23 1800.02,1795.17 C1808.06,1795.17 1814.38,1796.94 1818.99,1800.5 C1823.6,1804.06 1825.9,1809.34 1825.9,1816.36 C1825.9,1823.38 1823.57,1828.69 1818.9,1832.28 C1814.23,1835.86 1807.93,1837.66 1800.02,1837.66 C1791.91,1837.66 1785.58,1833.9 1781,1826.38 C1776.42,1818.87 1774.13,1809.95 1774.13,1799.62 C1774.13,1789.35 1776.79,1780.45 1782.11,1772.9 C1787.43,1765.35 1794.42,1761.58 1803.08,1761.58 C1808.77,1761.58 1813.69,1763.02 1817.83,1765.9 C1821.97,1768.77 1824.05,1772.56 1824.05,1777.26 C1824.05,1779.98 1823.06,1782.33 1821.08,1784.31 C1819.1,1786.29 1816.73,1787.28 1813.98,1787.28 C1811.23,1787.28 1808.86,1786.29 1806.88,1784.31 C1804.9,1782.33 1803.91,1779.98 1803.91,1777.26 C1803.91,1774.6 1804.9,1772.25 1806.88,1770.21 C1807.56,1769.41 1808.52,1768.73 1809.76,1768.17 C1809.45,1767.36 1808.83,1766.75 1807.9,1766.31 C1806.54,1765.51 1804.93,1765.11 1803.08,1765.11 M1807.62,1803.05 C1806.51,1800.14 1804.07,1798.69 1800.3,1798.69 C1796.52,1798.69 1794.19,1800.14 1793.29,1803.05 C1792.39,1805.96 1791.95,1810.38 1791.95,1816.32 C1791.95,1823.31 1792.39,1828.01 1793.29,1830.42 C1794.19,1832.83 1796.52,1834.04 1800.3,1834.04 C1804.07,1834.04 1806.51,1832.58 1807.62,1829.68 C1808.74,1826.77 1809.29,1822.33 1809.29,1816.36 C1809.29,1810.4 1808.74,1805.96 1807.62,1803.05"/>
<path class="FiguredBass" d="M1802.43,1869.28 C1804.78,1869.28 1807.25,1868.94 1809.85,1868.26 L1814.03,1867.15 C1814.83,1867.15 1815.46,1867.46 1815.93,1868.07 C1816.39,1868.69 1816.34,1869.25 1815.79,1869.74 L1772.65,1919.93 L1797.98,1919.93 L1797.98,1900.08 C1797.98,1898.66 1798.36,1897.56 1799.14,1896.79 C1799.91,1896.01 1800.9,1895.4 1802.1,1894.93 C1803.31,1894.47 1804.89,1893.09 1806.84,1890.8 C1808.78,1888.52 1810.65,1885.42 1812.45,1881.53 C1812.76,1880.91 1813.22,1880.6 1813.84,1880.6 C1815.14,1880.6 1815.79,1881.31 1815.79,1882.73 L1815.79,1919.93 L1826.74,1919.93 C1828.28,1919.93 1829.05,1920.65 1829.05,1922.07 C1829.05,1923.61 1828.28,1924.39 1826.74,1924.39 L1815.79,1924.39 L1815.79,1925.59 C1815.79,1929.43 1816.81,1932.77 1818.85,1935.61 C1820.89,1938.46 1823.52,1939.88 1826.74,1939.88 C1827.97,1939.88 1828.59,1940.44 1828.59,1941.55 C1828.59,1942.79 1827.97,1943.41 1826.74,1943.41 C1824.51,1943.41 1821.2,1943.08 1816.81,1942.43 C1812.42,1941.78 1809.09,1941.46 1806.84,1941.46 C1804.58,1941.46 1801.25,1941.78 1796.86,1942.43 C1792.47,1943.08 1789.16,1943.41 1786.94,1943.41 C1785.7,1943.41 1785.08,1942.79 1785.08,1941.55 C1785.08,1940.44 1785.7,1939.88 1786.94,1939.88 C1790.15,1939.88 1792.8,1938.46 1794.87,1935.61 C1796.94,1932.77 1797.98,1929.43 1797.98,1925.59 L1797.98,1924.39 L1772.65,1924.39 C1771.04,1924.39 1769.85,1924 1769.08,1923.23 C1768.3,1922.45 1767.92,1921.67 1767.92,1920.86 C1767.92,1920.55 1768.64,1919.49 1770.1,1917.66 C1771.55,1915.84 1773.33,1913.41 1775.43,1910.38 C1777.53,1907.35 1779.62,1903.9 1781.69,1900.03 C1783.77,1896.17 1785.53,1891.53 1786.98,1886.12 C1788.44,1880.71 1789.16,1875.25 1789.16,1869.74 C1789.16,1868.14 1789.84,1867.33 1791.2,1867.33 C1791.39,1867.33 1792.04,1867.49 1793.15,1867.8 C1794.26,1868.11 1795.69,1868.43 1797.42,1868.77 C1799.15,1869.11 1800.82,1869.28 1802.43,1869.28"/>
<path class="FiguredBass" d="M1807.25,2049.16 C1801.25,2049.16 1796.89,2047.49 1794.17,2044.15 C1793.18,2042.91 1791.91,2041.77 1790.37,2040.71 C1788.82,2039.66 1787.12,2039.14 1785.27,2039.14 C1782.85,2039.14 1780.69,2039.89 1778.77,2041.41 C1776.85,2042.92 1775.9,2044.95 1775.9,2047.49 C1775.9,2048.6 1775.34,2049.16 1774.23,2049.16 C1772.99,2049.16 1772.37,2048.6 1772.37,2047.49 C1772.37,2043.71 1773.25,2040.27 1775.01,2037.14 C1776.78,2034.02 1778.99,2031.39 1781.65,2029.26 C1784.31,2027.12 1787.18,2024.83 1790.28,2022.39 C1793.37,2019.95 1796.23,2017.58 1798.86,2015.29 C1801.49,2013.01 1803.68,2010.11 1805.44,2006.62 C1807.21,2003.13 1808.09,1999.31 1808.09,1995.16 C1808.09,1989.97 1807.24,1985.58 1805.54,1981.99 C1803.84,1978.4 1801.16,1976.61 1797.51,1976.61 C1795.41,1976.61 1793.58,1977.12 1792.04,1978.14 C1790.49,1979.16 1789.72,1980.5 1789.72,1982.17 C1789.72,1983.47 1790.6,1985.17 1792.36,1987.28 C1794.13,1989.38 1795.01,1991.14 1795.01,1992.56 C1795.01,1995.53 1794,1998.02 1791.99,2000.03 C1789.98,2002.04 1787.55,2003.05 1784.71,2003.05 C1781.74,2003.05 1779.25,2002.01 1777.24,1999.94 C1775.23,1997.87 1774.23,1995.41 1774.23,1992.56 C1774.23,1986.87 1776.5,1982.2 1781.04,1978.56 C1785.59,1974.91 1791.08,1973.08 1797.51,1973.08 C1805.12,1973.08 1811.75,1975.14 1817.41,1979.25 C1823.07,1983.36 1825.9,1988.67 1825.9,1995.16 C1825.9,1999.55 1825.11,2003.36 1823.53,2006.57 C1821.96,2009.79 1819.7,2012.39 1816.76,2014.37 C1813.82,2016.35 1810.89,2018.03 1807.95,2019.42 C1805.01,2020.81 1801.56,2022.31 1797.6,2023.92 C1793.65,2025.53 1790.46,2027.11 1788.05,2028.65 C1789.35,2028.34 1790.68,2028.19 1792.04,2028.19 C1796.62,2028.19 1801.38,2029.67 1806.33,2032.64 C1811.27,2035.61 1815.17,2037.1 1818.01,2037.1 C1819.62,2037.1 1820.94,2036.8 1821.96,2036.21 C1822.98,2035.63 1823.64,2034.98 1823.95,2034.27 C1824.26,2033.55 1824.62,2032.89 1825.02,2032.27 C1825.42,2031.65 1825.87,2031.34 1826.36,2031.34 C1827.6,2031.34 1828.22,2031.96 1828.22,2033.2 C1828.22,2035.86 1826.3,2039.18 1822.47,2043.17 C1818.63,2047.16 1813.56,2049.16 1807.25,2049.16"/>
<path class="FiguredBass" d="M2976.78,1837.66 C2970.78,1837.66 2966.42,1835.99 2963.7,1832.65 C2962.71,1831.41 2961.44,1830.27 2959.9,1829.21 C2958.35,1828.16 2956.65,1827.64 2954.79,1827.64 C2952.38,1827.64 2950.22,1828.39 2948.3,1829.91 C2946.38,1831.42 2945.42,1833.45 2945.42,1835.99 C2945.42,1837.1 2944.87,1837.66 2943.75,1837.66 C2942.52,1837.66 2941.9,1837.1 2941.9,1835.99 C2941.9,1832.21 2942.78,1828.77 2944.54,1825.64 C2946.31,1822.52 2948.52,1819.89 2951.18,1817.76 C2953.84,1815.62 2956.71,1813.33 2959.8,1810.89 C2962.9,1808.45 2965.76,1806.08 2968.39,1803.79 C2971.01,1801.51 2973.21,1798.61 2974.97,1795.12 C2976.74,1791.63 2977.62,1787.81 2977.62,1783.66 C2977.62,1778.47 2976.77,1774.08 2975.07,1770.49 C2973.36,1766.9 2970.69,1765.11 2967.04,1765.11 C2964.94,1765.11 2963.11,1765.62 2961.57,1766.64 C2960.02,1767.66 2959.25,1769 2959.25,1770.67 C2959.25,1771.97 2960.13,1773.67 2961.89,1775.78 C2963.65,1777.88 2964.54,1779.64 2964.54,1781.06 C2964.54,1784.03 2963.53,1786.52 2961.52,1788.53 C2959.51,1790.54 2957.08,1791.55 2954.24,1791.55 C2951.27,1791.55 2948.78,1790.51 2946.77,1788.44 C2944.76,1786.37 2943.75,1783.91 2943.75,1781.06 C2943.75,1775.37 2946.03,1770.7 2950.57,1767.06 C2955.12,1763.41 2960.61,1761.58 2967.04,1761.58 C2974.65,1761.58 2981.28,1763.64 2986.94,1767.75 C2992.6,1771.86 2995.43,1777.17 2995.43,1783.66 C2995.43,1788.05 2994.64,1791.86 2993.06,1795.07 C2991.49,1798.29 2989.23,1800.89 2986.29,1802.87 C2983.35,1804.85 2980.42,1806.53 2977.48,1807.92 C2974.54,1809.31 2971.09,1810.81 2967.13,1812.42 C2963.17,1814.03 2959.99,1815.61 2957.58,1817.15 C2958.88,1816.84 2960.21,1816.69 2961.57,1816.69 C2966.14,1816.69 2970.91,1818.17 2975.85,1821.14 C2980.8,1824.11 2984.7,1825.6 2987.54,1825.6 C2989.15,1825.6 2990.47,1825.3 2991.49,1824.71 C2992.51,1824.13 2993.17,1823.48 2993.48,1822.77 C2993.79,1822.05 2994.15,1821.39 2994.55,1820.77 C2994.95,1820.15 2995.4,1819.84 2995.89,1819.84 C2997.13,1819.84 2997.75,1820.46 2997.75,1821.7 C2997.75,1824.36 2995.83,1827.68 2992,1831.67 C2988.16,1835.66 2983.09,1837.66 2976.78,1837.66"/>
<path class="FiguredBass" d="M2972.61,1870.86 C2968.03,1870.86 2964.98,1872.7 2963.47,1876.38 C2961.95,1880.06 2961.2,1885.27 2961.2,1892.01 L2961.2,1902.96 C2964.41,1901.66 2967.19,1900.98 2969.55,1900.92 C2977.59,1900.92 2983.91,1902.69 2988.52,1906.25 C2993.13,1909.81 2995.43,1915.09 2995.43,1922.11 C2995.43,1929.13 2993.09,1934.44 2988.42,1938.03 C2983.76,1941.61 2977.46,1943.41 2969.55,1943.41 C2961.44,1943.41 2955.1,1939.65 2950.53,1932.13 C2945.95,1924.62 2943.66,1915.7 2943.66,1905.37 C2943.66,1895.1 2946.32,1886.2 2951.64,1878.65 C2956.96,1871.1 2963.95,1867.33 2972.61,1867.33 C2978.3,1867.33 2983.21,1868.77 2987.36,1871.65 C2991.5,1874.52 2993.57,1878.31 2993.57,1883.01 C2993.57,1885.73 2992.58,1888.08 2990.6,1890.06 C2988.63,1892.04 2986.26,1893.03 2983.51,1893.03 C2980.76,1893.03 2978.39,1892.04 2976.41,1890.06 C2974.43,1888.08 2973.44,1885.73 2973.44,1883.01 C2973.44,1880.35 2974.43,1878 2976.41,1875.96 C2977.09,1875.16 2978.05,1874.48 2979.29,1873.92 C2978.98,1873.11 2978.36,1872.5 2977.43,1872.06 C2976.07,1871.26 2974.46,1870.86 2972.61,1870.86 M2977.15,1908.8 C2976.04,1905.89 2973.6,1904.44 2969.82,1904.44 C2966.05,1904.44 2963.72,1905.89 2962.82,1908.8 C2961.92,1911.71 2961.47,1916.13 2961.47,1922.07 C2961.47,1929.06 2961.92,1933.76 2962.82,1936.17 C2963.72,1938.58 2966.05,1939.79 2969.82,1939.79 C2973.6,1939.79 2976.04,1938.33 2977.15,1935.43 C2978.27,1932.52 2978.82,1928.08 2978.82,1922.11 C2978.82,1916.15 2978.27,1911.71 2977.15,1908.8"/>
<path class="FiguredBass" d="M2971.96,1975.03 C2974.31,1975.03 2976.78,1974.69 2979.38,1974.01 L2983.55,1972.9 C2984.36,1972.9 2984.99,1973.21 2985.46,1973.82 C2985.92,1974.44 2985.87,1975 2985.32,1975.49 L2942.18,2025.68 L2967.5,2025.68 L2967.5,2005.83 C2967.5,2004.41 2967.89,2003.31 2968.66,2002.54 C2969.44,2001.76 2970.43,2001.15 2971.63,2000.68 C2972.84,2000.22 2974.42,1998.84 2976.36,1996.55 C2978.31,1994.27 2980.18,1991.17 2981.98,1987.28 C2982.29,1986.66 2982.75,1986.35 2983.37,1986.35 C2984.67,1986.35 2985.32,1987.06 2985.32,1988.48 L2985.32,2025.68 L2996.26,2025.68 C2997.81,2025.68 2998.58,2026.4 2998.58,2027.82 C2998.58,2029.36 2997.81,2030.14 2996.26,2030.14 L2985.32,2030.14 L2985.32,2031.34 C2985.32,2035.18 2986.34,2038.52 2988.38,2041.36 C2990.42,2044.21 2993.05,2045.63 2996.26,2045.63 C2997.5,2045.63 2998.12,2046.19 2998.12,2047.3 C2998.12,2048.54 2997.5,2049.16 2996.26,2049.16 C2994.04,2049.16 2990.73,2048.83 2986.34,2048.18 C2981.95,2047.53 2978.62,2047.21 2976.36,2047.21 C2974.11,2047.21 2970.78,2047.53 2966.39,2048.18 C2962,2048.83 2958.69,2049.16 2956.46,2049.16 C2955.23,2049.16 2954.61,2048.54 2954.61,2047.3 C2954.61,2046.19 2955.23,2045.63 2956.46,2045.63 C2959.68,2045.63 2962.32,2044.21 2964.4,2041.36 C2966.47,2038.52 2967.5,2035.18 2967.5,2031.34 L2967.5,2030.14 L2942.18,2030.14 C2940.57,2030.14 2939.38,2029.75 2938.61,2028.98 C2937.83,2028.2 2937.45,2027.42 2937.45,2026.61 C2937.45,2026.3 2938.17,2025.24 2939.63,2023.41 C2941.08,2021.59 2942.86,2019.16 2944.96,2016.13 C2947.06,2013.1 2949.15,2009.65 2951.22,2005.78 C2953.29,2001.92 2955.06,1997.28 2956.51,1991.87 C2957.96,1986.46 2958.69,1981 2958.69,1975.49 C2958.69,1973.89 2959.37,1973.08 2960.73,1973.08 C2960.92,1973.08 2961.57,1973.24 2962.68,1973.55 C2963.79,1973.86 2965.22,1974.18 2966.95,1974.52 C2968.68,1974.86 2970.35,1975.03 2971.96,1975.03"/>
<polyline class="FretDiagram" stroke="#fc0107" stroke-width="4.76" stroke-linejoin="bevel" points="529.931,227.452 743.039,227.452"/>
<polyline class="FretDiagram" stroke="#fc0107" stroke-width="4.76" stroke-linejoin="bevel" points="532.312,215.547 532.312,441.751"/>
<polyline class="FretDiagram" stroke="#fc0107" stroke-width="4.76" stroke-linejoin="bevel" points="573.981,215.547 573.981,441.751"/>
<polyline class="FretDiagram" stroke="#fc0107" stroke-width="4.76" stroke-linejoin="bevel" points="615.65,215.547 615.65,441.751"/>
<polyline class="FretDiagram" stroke="#fc0107" stroke-width="4.76" stroke-linejoin="bevel" points="657.32,215.547 657.32,441.751"/>
<polyline class="FretDiagram" stroke="#fc0107" stroke-width="4.76" stroke-linejoin="bevel" points="698.989,215.547 698.989,441.751"/>
<polyline class="FretDiagram" stroke="#fc0107" stroke-width="4.76" stroke-linejoin="bevel" points="740.658,215.547 740.658,441.751"/>
<polyline class="FretDiagram" stroke="#fc0107" stroke-width="4.76" stroke-linejoin="bevel" points="532.312,275.074 740.658,275.074"/>
<polyline class="FretDiagram" stroke="#fc0107" stroke-width="4.76" stroke-linejoin="bevel" points="532.312,322.696 740.658,322.696"/>
<polyline class="FretDiagram" stroke="#fc0107" stroke-width="4.76" stroke-linejoin="bevel" points="532.312,370.318 740.658,370.318"/>
<polyline class="FretDiagram" stroke="#fc0107" stroke-width="4.76" stroke-linejoin="bevel" points="532.312,417.94 740.658,417.94"/>
<path class="FretDiagram" fill="#fc0107" fill-rule="evenodd" d="M671.904,346.507 C671.904,354.562 665.374,361.091 657.32,361.091 C649.265,361.091 642.735,354.562 642.735,346.507 C642.735,338.453 649.265,331.923 657.32,331.923 C665.374,331.923 671.904,338.453 671.904,346.507"/>
<polyline class="FretDiagram" fill="none" stroke="#fc0107" stroke-width="6.86" stroke-linecap="round" stroke-linejoin="bevel" points="515.644,163.162 548.979,196.498"/>
<polyline class="FretDiagram" fill="none" stroke="#fc0107" stroke-width="6.86" stroke-linecap="round" stroke-linejoin="bevel" points="515.644,196.498 548.979,163.162"/>
<polyline class="FretDiagram" fill="none" stroke="#fc0107" stroke-width="6.86" stroke-linecap="round" stroke-linejoin="bevel" points="557.313,163.162 590.649,196.498"/>
<polyline class="FretDiagram" fill="none" stroke="#fc0107" stroke-width="6.86" stroke-linecap="round" stroke-linejoin="bevel" points="557.313,196.498 590.649,163.162"/>
<path class="FretDiagram" fill="none" stroke="#fc0107" stroke-width="6.86" stroke-linecap="round" stroke-linejoin="bevel" fill-rule="evenodd" d="M632.318,179.83 C632.318,189.035 624.856,196.498 615.65,196.498 C606.445,196.498 598.983,189.035 598.983,179.83 C598.983,170.625 606.445,163.162 615.65,163.162 C624.856,163.162 632.318,170.625 632.318,179.83"/>
<path class="FretDiagram" fill="none" stroke="#fc0107" stroke-width="6.86" stroke-linecap="round" stroke-linejoin="bevel" fill-rule="evenodd" d="M715.657,179.83 C715.657,189.035 708.194,196.498 698.989,196.498 C689.784,196.498 682.321,189.035 682.321,179.83 C682.321,170.625 689.784,163.162 698.989,163.162 C708.194,163.162 715.657,170.625 715.657,179.83"/>
<path class="FretDiagram" fill="none" stroke="#fc0107" stroke-width="6.86" stroke-linecap="round" stroke-linejoin="bevel" fill-rule="evenodd" d="M757.326,179.83 C757.326,189.035 749.864,196.498 740.658,196.498 C731.453,196.498 723.99,189.035 723.99,179.83 C723.99,170.625 731.453,163.162 740.658,163.162 C749.864,163.162 757.326,170.625 757.326,179.83"/>
<polyline class="FretDiagram" fill="none" stroke="#fc0107" stroke-width="29.17" stroke-linecap="round" stroke-linejoin="bevel" points="615.65,251.263 740.658,251.263"/>
<path class="FretDiagram" fill="#fc0107" d="M508.063,217.16 L508.063,225.425 L480.038,225.425 L477.378,244.235 C481.115,241.511 485.263,240.15 489.823,240.15 C496.283,240.15 501.524,242.224 505.545,246.372 C509.567,250.52 511.578,255.92 511.578,262.57 C511.578,269.663 509.425,275.458 505.118,279.955 C500.811,284.451 495.27,286.7 488.493,286.7 C485.896,286.7 483.505,286.415 481.32,285.845 C479.135,285.275 477.33,284.594 475.905,283.802 C474.48,283.01 473.182,281.965 472.01,280.667 C470.839,279.369 469.952,278.229 469.35,277.247 C468.749,276.265 468.179,275.03 467.64,273.542 C467.102,272.054 466.77,271.025 466.643,270.455 C466.516,269.885 466.358,269.061 466.168,267.985 L474.528,267.985 C476.491,275.521 481.083,279.29 488.303,279.29 C492.863,279.29 496.457,277.896 499.085,275.11 C501.714,272.323 503.028,268.523 503.028,263.71 C503.028,258.706 501.698,254.764 499.038,251.882 C496.378,249 492.8,247.56 488.303,247.56 C485.706,247.56 483.49,248.019 481.653,248.937 C479.816,249.855 477.916,251.486 475.953,253.83 L468.258,253.83 L473.293,217.16 L508.063,217.16 "/>
<polyline class="FretDiagram" fill="#fc0107" stroke="#fc02ff" stroke-width="4.76" stroke-linejoin="bevel" points="1699.46,227.452 1912.57,227.452"/>
<polyline class="FretDiagram" fill="#fc0107" stroke="#fc02ff" stroke-width="4.76" stroke-linejoin="bevel" points="1701.84,215.547 1701.84,441.751"/>
<polyline class="FretDiagram" fill="#fc0107" stroke="#fc02ff" stroke-width="4.76" stroke-linejoin="bevel" points="1743.51,215.547 1743.51,441.751"/>
<polyline class="FretDiagram" fill="#fc0107" stroke="#fc02ff" stroke-width="4.76" stroke-linejoin="bevel" points="1785.18,215.547 1785.18,441.751"/>
<polyline class="FretDiagram" fill="#fc0107" stroke="#fc02ff" stroke-width="4.76" stroke-linejoin="bevel" points="1826.85,215.547 1826.85,441.751"/>
<polyline class="FretDiagram" fill="#fc0107" stroke="#fc02ff" stroke-width="4.76" stroke-linejoin="bevel" points="1868.52,215.547 1868.52,441.751"/>
<polyline class="FretDiagram" fill="#fc0107" stroke="#fc02ff" stroke-width="4.76" stroke-linejoin="bevel" points="1910.19,215.547 1910.19,441.751"/>
<polyline class="FretDiagram" fill="#fc0107" stroke="#fc02ff" stroke-width="4.76" stroke-linejoin="bevel" points="1701.84,275.074 1910.19,275.074"/>
<polyline class="FretDiagram" fill="#fc0107" stroke="#fc02ff" stroke-width="4.76" stroke-linejoin="bevel" points="1701.84,322.696 1910.19,322.696"/>
<polyline class="FretDiagram" fill="#fc0107" stroke="#fc02ff" stroke-width="4.76" stroke-linejoin="bevel" points="1701.84,370.318 1910.19,370.318"/>
<polyline class="FretDiagram" fill="#fc0107" stroke="#fc02ff" stroke-width="4.76" stroke-linejoin="bevel" points="1701.84,417.94 1910.19,417.94"/>
<path class="FretDiagram" fill="#fc02ff" fill-rule="evenodd" d="M1799.76,298.885 C1799.76,306.94 1793.23,313.469 1785.18,313.469 C1777.12,313.469 1770.59,306.94 1770.59,298.885 C1770.59,290.83 1777.12,284.301 1785.18,284.301 C1793.23,284.301 1799.76,290.83 1799.76,298.885"/>
<polyline class="FretDiagram" fill="none" stroke="#fc02ff" stroke-width="6.86" stroke-linecap="round" stroke-linejoin="bevel" points="1685.17,163.162 1718.51,196.498"/>
<polyline class="FretDiagram" fill="none" stroke="#fc02ff" stroke-width="6.86" stroke-linecap="round" stroke-linejoin="bevel" points="1685.17,196.498 1718.51,163.162"/>
<path class="FretDiagram" fill="none" stroke="#fc02ff" stroke-width="6.86" stroke-linecap="round" stroke-linejoin="bevel" fill-rule="evenodd" d="M1760.18,179.83 C1760.18,189.035 1752.71,196.498 1743.51,196.498 C1734.3,196.498 1726.84,189.035 1726.84,179.83 C1726.84,170.625 1734.3,163.162 1743.51,163.162 C1752.71,163.162 1760.18,170.625 1760.18,179.83"/>
<path class="FretDiagram" fill="none" stroke="#fc02ff" stroke-width="6.86" stroke-linecap="round" stroke-linejoin="bevel" fill-rule="evenodd" d="M1843.52,179.83 C1843.52,189.035 1836.05,196.498 1826.85,196.498 C1817.64,196.498 1810.18,189.035 1810.18,179.83 C1810.18,170.625 1817.64,163.162 1826.85,163.162 C1836.05,163.162 1843.52,170.625 1843.52,179.83"/>
<path class="FretDiagram" fill="none" stroke="#fc02ff" stroke-width="6.86" stroke-linecap="round" stroke-linejoin="bevel" fill-rule="evenodd" d="M1885.19,179.83 C1885.19,189.035 1877.72,196.498 1868.52,196.498 C1859.31,196.498 1851.85,189.035 1851.85,179.83 C1851.85,170.625 1859.31,163.162 1868.52,163.162 C1877.72,163.162 1885.19,170.625 1885.19,179.83"/>
<polyline class="FretDiagram" fill="none" stroke="#fc02ff" stroke-width="6.86" stroke-linecap="round" stroke-linejoin="bevel" points="1893.52,163.162 1926.85,196.498"/>
<polyline class="FretDiagram" fill="none" stroke="#fc02ff" stroke-width="6.86" stroke-linecap="round" stroke-linejoin="bevel" points="1893.52,196.498 1926.85,163.162"/>
<polyline class="FretDiagram" fill="none" stroke="#fc02ff" stroke-width="29.17" stroke-linecap="round" stroke-linejoin="bevel" points="1743.51,251.263 1910.19,251.263"/>
<path class="FretDiagram" fill="#fc02ff" d="M1677.59,217.16 L1677.59,225.425 L1649.57,225.425 L1646.91,244.235 C1650.64,241.511 1654.79,240.15 1659.35,240.15 C1665.81,240.15 1671.05,242.224 1675.07,246.372 C1679.1,250.52 1681.11,255.92 1681.11,262.57 C1681.11,269.663 1678.95,275.458 1674.65,279.955 C1670.34,284.451 1664.8,286.7 1658.02,286.7 C1655.42,286.7 1653.03,286.415 1650.85,285.845 C1648.66,285.275 1646.86,284.594 1645.43,283.802 C1644.01,283.01 1642.71,281.965 1641.54,280.667 C1640.37,279.369 1639.48,278.229 1638.88,277.247 C1638.28,276.265 1637.71,275.03 1637.17,273.542 C1636.63,272.054 1636.3,271.025 1636.17,270.455 C1636.04,269.885 1635.89,269.061 1635.7,267.985 L1644.06,267.985 C1646.02,275.521 1650.61,279.29 1657.83,279.29 C1662.39,279.29 1665.99,277.896 1668.61,275.11 C1671.24,272.323 1672.56,268.523 1672.56,263.71 C1672.56,258.706 1671.23,254.764 1668.57,251.882 C1665.91,249 1662.33,247.56 1657.83,247.56 C1655.23,247.56 1653.02,248.019 1651.18,248.937 C1649.34,249.855 1647.44,251.486 1645.48,253.83 L1637.79,253.83 L1642.82,217.16 L1677.59,217.16 "/>
<polyline class="FretDiagram" fill="#fc02ff" stroke="#0000ff" stroke-width="4.76" stroke-linejoin="bevel" points="2863.27,227.452 3076.38,227.452"/>
<polyline class="FretDiagram" fill="#fc02ff" stroke="#0000ff" stroke-width="4.76" stroke-linejoin="bevel" points="2865.65,215.547 2865.65,441.751"/>
<polyline class="FretDiagram" fill="#fc02ff" stroke="#0000ff" stroke-width="4.76" stroke-linejoin="bevel" points="2907.32,215.547 2907.32,441.751"/>
<polyline class="FretDiagram" fill="#fc02ff" stroke="#0000ff" stroke-width="4.76" stroke-linejoin="bevel" points="2948.99,215.547 2948.99,441.751"/>
<polyline class="FretDiagram" fill="#fc02ff" stroke="#0000ff" stroke-width="4.76" stroke-linejoin="bevel" points="2990.66,215.547 2990.66,441.751"/>
<polyline class="FretDiagram" fill="#fc02ff" stroke="#0000ff" stroke-width="4.76" stroke-linejoin="bevel" points="3032.33,215.547 3032.33,441.751"/>
<polyline class="FretDiagram" fill="#fc02ff" stroke="#0000ff" stroke-width="4.76" stroke-linejoin="bevel" points="3073.99,215.547 3073.99,441.751"/>
<polyline class="FretDiagram" fill="#fc02ff" stroke="#0000ff" stroke-width="4.76" stroke-linejoin="bevel" points="2865.65,275.074 3073.99,275.074"/>
<polyline class="FretDiagram" fill="#fc02ff" stroke="#0000ff" stroke-width="4.76" stroke-linejoin="bevel" points="2865.65,322.696 3073.99,322.696"/>
<polyline class="FretDiagram" fill="#fc02ff" stroke="#0000ff" stroke-width="4.76" stroke-linejoin="bevel" points="2865.65,370.318 3073.99,370.318"/>
<polyline class="FretDiagram" fill="#fc02ff" stroke="#0000ff" stroke-width="4.76" stroke-linejoin="bevel" points="2865.65,417.94 3073.99,417.94"/>
<path class="FretDiagram" fill="#0000ff" fill-rule="evenodd" d="M2921.9,298.885 C2921.9,306.94 2915.37,313.469 2907.32,313.469 C2899.26,313.469 2892.73,306.94 2892.73,298.885 C2892.73,290.83 2899.26,284.301 2907.32,284.301 C2915.37,284.301 2921.9,290.83 2921.9,298.885"/>
<path class="FretDiagram" fill="#0000ff" fill-rule="evenodd" d="M3046.91,346.507 C3046.91,354.562 3040.38,361.091 3032.33,361.091 C3024.27,361.091 3017.74,354.562 3017.74,346.507 C3017.74,338.453 3024.27,331.923 3032.33,331.923 C3040.38,331.923 3046.91,338.453 3046.91,346.507"/>
<path class="FretDiagram" fill="none" stroke="#0000ff" stroke-width="6.86" stroke-linecap="round" stroke-linejoin="bevel" fill-rule="evenodd" d="M2882.32,179.83 C2882.32,189.035 2874.85,196.498 2865.65,196.498 C2856.44,196.498 2848.98,189.035 2848.98,179.83 C2848.98,170.625 2856.44,163.162 2865.65,163.162 C2874.85,163.162 2882.32,170.625 2882.32,179.83"/>
<polyline class="FretDiagram" fill="none" stroke="#0000ff" stroke-width="6.86" stroke-linecap="round" stroke-linejoin="bevel" points="2932.32,163.162 2965.65,196.498"/>
<polyline class="FretDiagram" fill="none" stroke="#0000ff" stroke-width="6.86" stroke-linecap="round" stroke-linejoin="bevel" points="2932.32,196.498 2965.65,163.162"/>
<path class="FretDiagram" fill="none" stroke="#0000ff" stroke-width="6.86" stroke-linecap="round" stroke-linejoin="bevel" fill-rule="evenodd" d="M3007.32,179.83 C3007.32,189.035 2999.86,196.498 2990.66,196.498 C2981.45,196.498 2973.99,189.035 2973.99,179.83 C2973.99,170.625 2981.45,163.162 2990.66,163.162 C2999.86,163.162 3007.32,170.625 3007.32,179.83"/>
<polyline class="FretDiagram" fill="none" stroke="#0000ff" stroke-width="6.86" stroke-linecap="round" stroke-linejoin="bevel" points="3057.33,163.162 3090.66,196.498"/>
<polyline class="FretDiagram" fill="none" stroke="#0000ff" stroke-width="6.86" stroke-linecap="round" stroke-linejoin="bevel" points="3057.33,196.498 3090.66,163.162"/>
<polyline class="FretDiagram" fill="none" stroke="#0000ff" stroke-width="29.17" stroke-linecap="round" stroke-linejoin="bevel" points="2865.65,251.263 3073.99,251.263"/>
<path class="FretDiagram" fill="#0000ff" d="M2841.4,217.16 L2841.4,225.425 L2813.37,225.425 L2810.71,244.235 C2814.45,241.511 2818.6,240.15 2823.16,240.15 C2829.62,240.15 2834.86,242.224 2838.88,246.372 C2842.9,250.52 2844.91,255.92 2844.91,262.57 C2844.91,269.663 2842.76,275.458 2838.45,279.955 C2834.15,284.451 2828.61,286.7 2821.83,286.7 C2819.23,286.7 2816.84,286.415 2814.66,285.845 C2812.47,285.275 2810.67,284.594 2809.24,283.802 C2807.82,283.01 2806.52,281.965 2805.35,280.667 C2804.18,279.369 2803.29,278.229 2802.69,277.247 C2802.09,276.265 2801.52,275.03 2800.98,273.542 C2800.44,272.054 2800.11,271.025 2799.98,270.455 C2799.85,269.885 2799.69,269.061 2799.5,267.985 L2807.86,267.985 C2809.83,275.521 2814.42,279.29 2821.64,279.29 C2826.2,279.29 2829.79,277.896 2832.42,275.11 C2835.05,272.323 2836.36,268.523 2836.36,263.71 C2836.36,258.706 2835.03,254.764 2832.37,251.882 C2829.71,249 2826.14,247.56 2821.64,247.56 C2819.04,247.56 2816.83,248.019 2814.99,248.937 C2813.15,249.855 2811.25,251.486 2809.29,253.83 L2801.59,253.83 L2806.63,217.16 L2841.4,217.16 "/>
<polyline class="FretDiagram" fill="#0000ff" stroke="#0000ff" stroke-width="4.76" stroke-linejoin="bevel" points="3435.29,227.452 3648.4,227.452"/>
<polyline class="FretDiagram" fill="#0000ff" stroke="#0000ff" stroke-width="4.76" stroke-linejoin="bevel" points="3437.67,215.547 3437.67,441.751"/>
<polyline class="FretDiagram" fill="#0000ff" stroke="#0000ff" stroke-width="4.76" stroke-linejoin="bevel" points="3479.34,215.547 3479.34,441.751"/>
<polyline class="FretDiagram" fill="#0000ff" stroke="#0000ff" stroke-width="4.76" stroke-linejoin="bevel" points="3521.01,215.547 3521.01,441.751"/>
<polyline class="FretDiagram" fill="#0000ff" stroke="#0000ff" stroke-width="4.76" stroke-linejoin="bevel" points="3562.68,215.547 3562.68,441.751"/>
<polyline class="FretDiagram" fill="#0000ff" stroke="#0000ff" stroke-width="4.76" stroke-linejoin="bevel" points="3604.35,215.547 3604.35,441.751"/>
<polyline class="FretDiagram" fill="#0000ff" stroke="#0000ff" stroke-width="4.76" stroke-linejoin="bevel" points="3646.02,215.547 3646.02,441.751"/>
<polyline class="FretDiagram" fill="#0000ff" stroke="#0000ff" stroke-width="4.76" stroke-linejoin="bevel" points="3437.67,275.074 3646.02,275.074"/>
<polyline class="FretDiagram" fill="#0000ff" stroke="#0000ff" stroke-width="4.76" stroke-linejoin="bevel" points="3437.67,322.696 3646.02,322.696"/>
<polyline class="FretDiagram" fill="#0000ff" stroke="#0000ff" stroke-width="4.76" stroke-linejoin="bevel" points="3437.67,370.318 3646.02,370.318"/>
<polyline class="FretDiagram" fill="#0000ff" stroke="#0000ff" stroke-width="4.76" stroke-linejoin="bevel" points="3437.67,417.94 3646.02,417.94"/>
<path class="FretDiagram" fill="#0000ff" fill-rule="evenodd" d="M3452.25,298.885 C3452.25,306.94 3445.72,313.469 3437.67,313.469 C3429.62,313.469 3423.09,306.94 3423.09,298.885 C3423.09,290.83 3429.62,284.301 3437.67,284.301 C3445.72,284.301 3452.25,290.83 3452.25,298.885"/>
<path class="FretDiagram" fill="#0000ff" fill-rule="evenodd" d="M3577.26,298.885 C3577.26,306.94 3570.73,313.469 3562.68,313.469 C3554.62,313.469 3548.09,306.94 3548.09,298.885 C3548.09,290.83 3554.62,284.301 3562.68,284.301 C3570.73,284.301 3577.26,290.83 3577.26,298.885"/>
<polyline class="FretDiagram" fill="none" stroke="#0000ff" stroke-width="6.86" stroke-linecap="round" stroke-linejoin="bevel" points="3462.67,163.162 3496.01,196.498"/>
<polyline class="FretDiagram" fill="none" stroke="#0000ff" stroke-width="6.86" stroke-linecap="round" stroke-linejoin="bevel" points="3462.67,196.498 3496.01,163.162"/>
<path class="FretDiagram" fill="none" stroke="#0000ff" stroke-width="6.86" stroke-linecap="round" stroke-linejoin="bevel" fill-rule="evenodd" d="M3537.68,179.83 C3537.68,189.035 3530.21,196.498 3521.01,196.498 C3511.8,196.498 3504.34,189.035 3504.34,179.83 C3504.34,170.625 3511.8,163.162 3521.01,163.162 C3530.21,163.162 3537.68,170.625 3537.68,179.83"/>
<path class="FretDiagram" fill="none" stroke="#0000ff" stroke-width="6.86" stroke-linecap="round" stroke-linejoin="bevel" fill-rule="evenodd" d="M3621.01,179.83 C3621.01,189.035 3613.55,196.498 3604.35,196.498 C3595.14,196.498 3587.68,189.035 3587.68,179.83 C3587.68,170.625 3595.14,163.162 3604.35,163.162 C3613.55,163.162 3621.01,170.625 3621.01,179.83"/>
<polyline class="FretDiagram" fill="none" stroke="#0000ff" stroke-width="6.86" stroke-linecap="round" stroke-linejoin="bevel" points="3629.35,163.162 3662.68,196.498"/>
<polyline class="FretDiagram" fill="none" stroke="#0000ff" stroke-width="6.86" stroke-linecap="round" stroke-linejoin="bevel" points="3629.35,196.498 3662.68,163.162"/>
<polyline class="FretDiagram" fill="none" stroke="#0000ff" stroke-width="29.17" stroke-linecap="round" stroke-linejoin="bevel" points="3521.01,251.263 3646.02,251.263"/>
<path class="FretDiagram" fill="#0000ff" d="M3399.27,268.365 L3370.86,268.365 L3370.86,259.53 L3401.45,217.16 L3407.63,217.16 L3407.63,260.86 L3417.6,260.86 L3417.6,268.365 L3407.63,268.365 L3407.63,284.515 L3399.27,284.515 L3399.27,268.365 M3399.27,260.86 L3399.27,231.41 L3378.18,260.86 L3399.27,260.86 "/>
<path class="Bracket" transform="matrix(8.6315,0,0,10.3419,76.1283,2426)" d="M0.92002,-50 C2.69004,-51.88 6.2,-55.8 6.2,-63 C6.2,-72.1 2.25996,-81.32 2.25996,-86.97 C2.25996,-93.06 5.84004,-98.84 5.95,-99 C6.05996,-99.16 6.05,-99.39 5.94004,-99.46 C5.82998,-99.53 5.62002,-99.47 5.49004,-99.32 C5.35996,-99.17 0,-93.75 0,-85.6 C0,-76.75 3.5,-70.58 3.5,-59.07 C3.5,-56.89 2.55996,-53.36 0.1,-50.33 C-0.0799805,-50.17 -0.1,-49.89 0.0599609,-49.7 L0.0700195,-49.69 L0.1,-49.66 C2.55996,-46.63 3.5,-43.1 3.5,-40.92 C3.5,-29.4 0,-23.24 0,-14.39 C0,-6.25 5.35996,-0.8 5.49004,-0.659961 C5.62002,-0.52002 5.8,-0.42998 5.94004,-0.52002 C6.07998,-0.609961 6.07998,-0.77998 5.95,-0.97998 C5.82002,-1.17998 2.25996,-6.92002 2.25996,-13.01 C2.25996,-18.66 6.2,-27.9 6.2,-37 C6.2,-44.3 2.69004,-48.12 0.92002,-50"/>
</svg>
