<?xml version="1.0" encoding="UTF-8" standalone="no"?>
<svg width="4209.44px" height="2976.38px" viewBox="0 0 4209.44 2976.38"
 xmlns="http://www.w3.org/2000/svg" xmlns:xlink="http://www.w3.org/1999/xlink" version="1.2" baseProfile="tiny">
<title>Accords (48)</title>
<desc>Generated by MuseScore 3.6.2</desc>
<polyline class="StaffLines" fill="none" stroke="#000000" stroke-width="6.55" stroke-linejoin="bevel" points="153.819,558.425 4138.58,558.425"/>
<polyline class="StaffLines" fill="none" stroke="#000000" stroke-width="6.55" stroke-linejoin="bevel" points="153.819,647.717 4138.58,647.717"/>
<polyline class="StaffLines" fill="none" stroke="#000000" stroke-width="6.55" stroke-linejoin="bevel" points="153.819,737.008 4138.58,737.008"/>
<polyline class="StaffLines" fill="none" stroke="#000000" stroke-width="6.55" stroke-linejoin="bevel" points="153.819,826.299 4138.58,826.299"/>
<polyline class="StaffLines" fill="none" stroke="#000000" stroke-width="6.55" stroke-linejoin="bevel" points="153.819,915.591 4138.58,915.591"/>
<polyline class="StaffLines" fill="none" stroke="#000000" stroke-width="6.55" stroke-linejoin="bevel" points="153.819,1004.88 4138.58,1004.88"/>
<polyline class="StaffLines" fill="none" stroke="#000000" stroke-width="6.55" stroke-linejoin="bevel" points="153.819,1391.81 4138.58,1391.81"/>
<polyline class="StaffLines" fill="none" stroke="#000000" stroke-width="6.55" stroke-linejoin="bevel" points="153.819,1451.34 4138.58,1451.34"/>
<polyline class="StaffLines" fill="none" stroke="#000000" stroke-width="6.55" stroke-linejoin="bevel" points="153.819,1510.87 4138.58,1510.87"/>
<polyline class="StaffLines" fill="none" stroke="#000000" stroke-width="6.55" stroke-linejoin="bevel" points="153.819,1570.39 4138.58,1570.39"/>
<polyline class="StaffLines" fill="none" stroke="#000000" stroke-width="6.55" stroke-linejoin="bevel" points="153.819,1629.92 4138.58,1629.92"/>
<polyline class="StaffLines" fill="none" stroke="#000000" stroke-width="6.55" stroke-linejoin="bevel" points="153.819,2099.26 4138.58,2099.26"/>
<polyline class="StaffLines" fill="none" stroke="#000000" stroke-width="6.55" stroke-linejoin="bevel" points="153.819,2158.79 4138.58,2158.79"/>
<polyline class="StaffLines" fill="none" stroke="#000000" stroke-width="6.55" stroke-linejoin="bevel" points="153.819,2218.32 4138.58,2218.32"/>
<polyline class="StaffLines" fill="none" stroke="#000000" stroke-width="6.55" stroke-linejoin="bevel" points="153.819,2277.85 4138.58,2277.85"/>
<polyline class="StaffLines" fill="none" stroke="#000000" stroke-width="6.55" stroke-linejoin="bevel" points="153.819,2337.37 4138.58,2337.37"/>
<polyline class="BarLine" fill="none" stroke="#000000" stroke-width="10.71" stroke-linejoin="bevel" points="159.176,2095.99 159.176,2340.65"/>
<polyline class="BarLine" fill="none" stroke="#000000" stroke-width="10.71" stroke-linejoin="bevel" points="1062.22,2095.99 1062.22,2340.65"/>
<polyline class="BarLine" fill="none" stroke="#000000" stroke-width="10.71" stroke-linejoin="bevel" points="1631.33,2095.99 1631.33,2340.65"/>
<polyline class="BarLine" fill="none" stroke="#000000" stroke-width="10.71" stroke-linejoin="bevel" points="2201.49,2095.99 2201.49,2340.65"/>
<polyline class="BarLine" fill="none" stroke="#000000" stroke-width="32.74" stroke-linejoin="bevel" points="2243.16,2095.99 2243.16,2340.65"/>
<polyline class="BarLine" fill="none" stroke="#000000" stroke-width="10.71" stroke-linejoin="bevel" points="2933.31,2095.99 2933.31,2340.65"/>
<polyline class="BarLine" fill="none" stroke="#000000" stroke-width="10.71" stroke-linejoin="bevel" points="3523.06,2095.99 3523.06,2340.65"/>
<polyline class="BarLine" fill="none" stroke="#000000" stroke-width="10.71" stroke-linejoin="bevel" points="4080.54,2095.99 4080.54,2340.65"/>
<polyline class="BarLine" fill="none" stroke="#000000" stroke-width="32.74" stroke-linejoin="bevel" points="4122.21,2095.99 4122.21,2340.65"/>
<polyline class="BarLine" fill="none" stroke="#000000" stroke-width="10.71" stroke-linejoin="bevel" points="159.176,1388.54 159.176,2099.26"/>
<polyline class="BarLine" fill="none" stroke="#000000" stroke-width="10.71" stroke-linejoin="bevel" points="1062.22,1388.54 1062.22,1633.2"/>
<polyline class="BarLine" fill="none" stroke="#000000" stroke-width="10.71" stroke-linejoin="bevel" points="1631.33,1388.54 1631.33,1633.2"/>
<polyline class="BarLine" fill="none" stroke="#000000" stroke-width="10.71" stroke-linejoin="bevel" points="2201.49,1388.54 2201.49,1633.2"/>
<polyline class="BarLine" fill="none" stroke="#000000" stroke-width="32.74" stroke-linejoin="bevel" points="2243.16,1388.54 2243.16,1633.2"/>
<polyline class="BarLine" fill="none" stroke="#000000" stroke-width="10.71" stroke-linejoin="bevel" points="2933.31,1388.54 2933.31,1633.2"/>
<polyline class="BarLine" fill="none" stroke="#000000" stroke-width="10.71" stroke-linejoin="bevel" points="3523.06,1388.54 3523.06,1633.2"/>
<polyline class="BarLine" fill="none" stroke="#000000" stroke-width="10.71" stroke-linejoin="bevel" points="4080.54,1388.54 4080.54,1633.2"/>
<polyline class="BarLine" fill="none" stroke="#000000" stroke-width="32.74" stroke-linejoin="bevel" points="4122.21,1388.54 4122.21,1633.2"/>
<polyline class="BarLine" fill="none" stroke="#000000" stroke-width="10.71" stroke-linejoin="bevel" points="159.176,555.151 159.176,1391.81"/>
<polyline class="BarLine" fill="none" stroke="#000000" stroke-width="10.71" stroke-linejoin="bevel" points="1062.22,555.151 1062.22,1008.16"/>
<polyline class="BarLine" fill="none" stroke="#000000" stroke-width="10.71" stroke-linejoin="bevel" points="1631.33,555.151 1631.33,1008.16"/>
<polyline class="BarLine" fill="none" stroke="#000000" stroke-width="10.71" stroke-linejoin="bevel" points="2201.49,555.151 2201.49,1008.16"/>
<polyline class="BarLine" fill="none" stroke="#000000" stroke-width="32.74" stroke-linejoin="bevel" points="2243.16,555.151 2243.16,1008.16"/>
<polyline class="BarLine" fill="none" stroke="#000000" stroke-width="10.71" stroke-linejoin="bevel" points="2933.31,555.151 2933.31,1008.16"/>
<polyline class="BarLine" fill="none" stroke="#000000" stroke-width="10.71" stroke-linejoin="bevel" points="3523.06,555.151 3523.06,1008.16"/>
<polyline class="BarLine" fill="none" stroke="#000000" stroke-width="10.71" stroke-linejoin="bevel" points="4080.54,555.151 4080.54,1008.16"/>
<polyline class="BarLine" fill="none" stroke="#000000" stroke-width="32.74" stroke-linejoin="bevel" points="4122.21,555.151 4122.21,1008.16"/>
<path class="Accidental" transform="matrix(2.3811,0,0,2.3811,2996.18,1481.1)" d="M23.3,-10.6 C23.9,-10.7 24.4,-11.4 24.4,-12 L24.4,-17.9 C24.4,-18.7 23.8,-19.3 23,-19.3 L22.8,-19.3 L19.5,-18.6 L19.5,-33.5 L16.7,-33.5 L16.7,-18 L7.8,-16.2 L7.8,-30.3 L5,-30.3 L5,-15.6 L1.1,-14.8 C0.5,-14.7 0,-14 0,-13.4 L0,-13.2 L0,-7.4 L0,-7.6 C0,-6.8 0.6,-6.2 1.4,-6.2 L1.7,-6.2 L5,-6.9 L5,9.6 L1.1,10.4 C0.5,10.5 0,11.2 0,11.8 L0,17.6 C0,18.4 0.6,19 1.4,19 L1.7,19 L5,18.3 L5,33.2 L7.8,33.2 L7.8,17.7 L16.7,15.9 L16.7,30 L19.5,30 L19.5,15.3 L23.3,14.6 C23.9,14.5 24.4,13.8 24.4,13.2 L24.4,7.3 C24.4,6.5 23.8,5.9 23,5.9 L22.8,5.9 L19.5,6.6 L19.5,-9.9 L23.3,-10.6 M7.8,9.1 L7.8,-7.5 L16.7,-9.3 L16.7,7.2 L7.8,9.1 "/>
<polyline class="LedgerLine" fill="none" stroke="#000000" stroke-width="9.52" stroke-linejoin="bevel" points="1714.08,2039.74 1844.55,2039.74"/>
<polyline class="LedgerLine" fill="none" stroke="#000000" stroke-width="9.52" stroke-linejoin="bevel" points="3605.8,2039.74 3736.28,2039.74"/>
<path class="Note" transform="matrix(2.3811,0,0,2.3811,595.643,2158.79)" d="M18.7,-13.6 C4.9,-13.6 0,-6.6 0,-0.1 C0,6.4 4.9,13.4 18.7,13.4 C32.5,13.4 37.3,6.4 37.3,-0.1 C37.3,-6.6 32.5,-13.6 18.7,-13.6 M10.4,-4.5 C10.3,-4.9 10.3,-5.3 10.3,-5.7 C10.3,-6.5 10.5,-7.3 10.9,-8 C11.6,-9 12.8,-9.7 14.3,-10 C15.6,-10.3 16.3,-10.5 18.9,-10.5 L19,-10.5 C23,-10.5 24.3,-6.8 25.4,-3 L25.7,-2 C26.5,0.6 26.9,2.8 26.9,4.5 C26.9,5.7 26.7,6.8 26.3,7.6 C25.7,8.7 24.7,9.4 23,9.8 C22.1,10 20.6,10.1 20.6,10.1 C20.1,10.1 19.7,10.2 19.3,10.2 C16.1,10.2 14.1,9 12.7,4.7 C11.5,1 11.3,-0.1 10.4,-4.5"/>
<path class="Note" transform="matrix(2.3811,0,0,2.3811,1150.69,2129.03)" d="M18.7,-13.6 C4.9,-13.6 0,-6.6 0,-0.1 C0,6.4 4.9,13.4 18.7,13.4 C32.5,13.4 37.3,6.4 37.3,-0.1 C37.3,-6.6 32.5,-13.6 18.7,-13.6 M10.4,-4.5 C10.3,-4.9 10.3,-5.3 10.3,-5.7 C10.3,-6.5 10.5,-7.3 10.9,-8 C11.6,-9 12.8,-9.7 14.3,-10 C15.6,-10.3 16.3,-10.5 18.9,-10.5 L19,-10.5 C23,-10.5 24.3,-6.8 25.4,-3 L25.7,-2 C26.5,0.6 26.9,2.8 26.9,4.5 C26.9,5.7 26.7,6.8 26.3,7.6 C25.7,8.7 24.7,9.4 23,9.8 C22.1,10 20.6,10.1 20.6,10.1 C20.1,10.1 19.7,10.2 19.3,10.2 C16.1,10.2 14.1,9 12.7,4.7 C11.5,1 11.3,-0.1 10.4,-4.5"/>
<path class="Note" transform="matrix(2.3811,0,0,2.3811,1734.91,2248.08)" d="M18.7,-13.6 C4.9,-13.6 0,-6.6 0,-0.1 C0,6.4 4.9,13.4 18.7,13.4 C32.5,13.4 37.3,6.4 37.3,-0.1 C37.3,-6.6 32.5,-13.6 18.7,-13.6 M10.4,-4.5 C10.3,-4.9 10.3,-5.3 10.3,-5.7 C10.3,-6.5 10.5,-7.3 10.9,-8 C11.6,-9 12.8,-9.7 14.3,-10 C15.6,-10.3 16.3,-10.5 18.9,-10.5 L19,-10.5 C23,-10.5 24.3,-6.8 25.4,-3 L25.7,-2 C26.5,0.6 26.9,2.8 26.9,4.5 C26.9,5.7 26.7,6.8 26.3,7.6 C25.7,8.7 24.7,9.4 23,9.8 C22.1,10 20.6,10.1 20.6,10.1 C20.1,10.1 19.7,10.2 19.3,10.2 C16.1,10.2 14.1,9 12.7,4.7 C11.5,1 11.3,-0.1 10.4,-4.5"/>
<path class="Note" transform="matrix(2.3811,0,0,2.3811,1734.91,2039.74)" d="M18.7,-13.6 C4.9,-13.6 0,-6.6 0,-0.1 C0,6.4 4.9,13.4 18.7,13.4 C32.5,13.4 37.3,6.4 37.3,-0.1 C37.3,-6.6 32.5,-13.6 18.7,-13.6 M10.4,-4.5 C10.3,-4.9 10.3,-5.3 10.3,-5.7 C10.3,-6.5 10.5,-7.3 10.9,-8 C11.6,-9 12.8,-9.7 14.3,-10 C15.6,-10.3 16.3,-10.5 18.9,-10.5 L19,-10.5 C23,-10.5 24.3,-6.8 25.4,-3 L25.7,-2 C26.5,0.6 26.9,2.8 26.9,4.5 C26.9,5.7 26.7,6.8 26.3,7.6 C25.7,8.7 24.7,9.4 23,9.8 C22.1,10 20.6,10.1 20.6,10.1 C20.1,10.1 19.7,10.2 19.3,10.2 C16.1,10.2 14.1,9 12.7,4.7 C11.5,1 11.3,-0.1 10.4,-4.5"/>
<path class="Note" transform="matrix(2.3811,0,0,2.3811,2479.41,2129.03)" d="M18.7,-13.6 C4.9,-13.6 0,-6.6 0,-0.1 C0,6.4 4.9,13.4 18.7,13.4 C32.5,13.4 37.3,6.4 37.3,-0.1 C37.3,-6.6 32.5,-13.6 18.7,-13.6 M10.4,-4.5 C10.3,-4.9 10.3,-5.3 10.3,-5.7 C10.3,-6.5 10.5,-7.3 10.9,-8 C11.6,-9 12.8,-9.7 14.3,-10 C15.6,-10.3 16.3,-10.5 18.9,-10.5 L19,-10.5 C23,-10.5 24.3,-6.8 25.4,-3 L25.7,-2 C26.5,0.6 26.9,2.8 26.9,4.5 C26.9,5.7 26.7,6.8 26.3,7.6 C25.7,8.7 24.7,9.4 23,9.8 C22.1,10 20.6,10.1 20.6,10.1 C20.1,10.1 19.7,10.2 19.3,10.2 C16.1,10.2 14.1,9 12.7,4.7 C11.5,1 11.3,-0.1 10.4,-4.5"/>
<path class="Note" transform="matrix(2.3811,0,0,2.3811,3069.16,2099.26)" d="M18.7,-13.6 C4.9,-13.6 0,-6.6 0,-0.1 C0,6.4 4.9,13.4 18.7,13.4 C32.5,13.4 37.3,6.4 37.3,-0.1 C37.3,-6.6 32.5,-13.6 18.7,-13.6 M10.4,-4.5 C10.3,-4.9 10.3,-5.3 10.3,-5.7 C10.3,-6.5 10.5,-7.3 10.9,-8 C11.6,-9 12.8,-9.7 14.3,-10 C15.6,-10.3 16.3,-10.5 18.9,-10.5 L19,-10.5 C23,-10.5 24.3,-6.8 25.4,-3 L25.7,-2 C26.5,0.6 26.9,2.8 26.9,4.5 C26.9,5.7 26.7,6.8 26.3,7.6 C25.7,8.7 24.7,9.4 23,9.8 C22.1,10 20.6,10.1 20.6,10.1 C20.1,10.1 19.7,10.2 19.3,10.2 C16.1,10.2 14.1,9 12.7,4.7 C11.5,1 11.3,-0.1 10.4,-4.5"/>
<path class="Note" transform="matrix(2.3811,0,0,2.3811,3626.64,2218.32)" d="M18.7,-13.6 C4.9,-13.6 0,-6.6 0,-0.1 C0,6.4 4.9,13.4 18.7,13.4 C32.5,13.4 37.3,6.4 37.3,-0.1 C37.3,-6.6 32.5,-13.6 18.7,-13.6 M10.4,-4.5 C10.3,-4.9 10.3,-5.3 10.3,-5.7 C10.3,-6.5 10.5,-7.3 10.9,-8 C11.6,-9 12.8,-9.7 14.3,-10 C15.6,-10.3 16.3,-10.5 18.9,-10.5 L19,-10.5 C23,-10.5 24.3,-6.8 25.4,-3 L25.7,-2 C26.5,0.6 26.9,2.8 26.9,4.5 C26.9,5.7 26.7,6.8 26.3,7.6 C25.7,8.7 24.7,9.4 23,9.8 C22.1,10 20.6,10.1 20.6,10.1 C20.1,10.1 19.7,10.2 19.3,10.2 C16.1,10.2 14.1,9 12.7,4.7 C11.5,1 11.3,-0.1 10.4,-4.5"/>
<path class="Note" transform="matrix(2.3811,0,0,2.3811,3626.64,2009.97)" d="M18.7,-13.6 C4.9,-13.6 0,-6.6 0,-0.1 C0,6.4 4.9,13.4 18.7,13.4 C32.5,13.4 37.3,6.4 37.3,-0.1 C37.3,-6.6 32.5,-13.6 18.7,-13.6 M10.4,-4.5 C10.3,-4.9 10.3,-5.3 10.3,-5.7 C10.3,-6.5 10.5,-7.3 10.9,-8 C11.6,-9 12.8,-9.7 14.3,-10 C15.6,-10.3 16.3,-10.5 18.9,-10.5 L19,-10.5 C23,-10.5 24.3,-6.8 25.4,-3 L25.7,-2 C26.5,0.6 26.9,2.8 26.9,4.5 C26.9,5.7 26.7,6.8 26.3,7.6 C25.7,8.7 24.7,9.4 23,9.8 C22.1,10 20.6,10.1 20.6,10.1 C20.1,10.1 19.7,10.2 19.3,10.2 C16.1,10.2 14.1,9 12.7,4.7 C11.5,1 11.3,-0.1 10.4,-4.5"/>
<path class="Note" transform="matrix(2.3811,0,0,2.3811,595.643,1540.63)" d="M18.7,-13.6 C4.9,-13.6 0,-6.6 0,-0.1 C0,6.4 4.9,13.4 18.7,13.4 C32.5,13.4 37.3,6.4 37.3,-0.1 C37.3,-6.6 32.5,-13.6 18.7,-13.6 M10.4,-4.5 C10.3,-4.9 10.3,-5.3 10.3,-5.7 C10.3,-6.5 10.5,-7.3 10.9,-8 C11.6,-9 12.8,-9.7 14.3,-10 C15.6,-10.3 16.3,-10.5 18.9,-10.5 L19,-10.5 C23,-10.5 24.3,-6.8 25.4,-3 L25.7,-2 C26.5,0.6 26.9,2.8 26.9,4.5 C26.9,5.7 26.7,6.8 26.3,7.6 C25.7,8.7 24.7,9.4 23,9.8 C22.1,10 20.6,10.1 20.6,10.1 C20.1,10.1 19.7,10.2 19.3,10.2 C16.1,10.2 14.1,9 12.7,4.7 C11.5,1 11.3,-0.1 10.4,-4.5"/>
<path class="Note" transform="matrix(2.3811,0,0,2.3811,513.384,1481.1)" d="M18.7,-13.6 C4.9,-13.6 0,-6.6 0,-0.1 C0,6.4 4.9,13.4 18.7,13.4 C32.5,13.4 37.3,6.4 37.3,-0.1 C37.3,-6.6 32.5,-13.6 18.7,-13.6 M10.4,-4.5 C10.3,-4.9 10.3,-5.3 10.3,-5.7 C10.3,-6.5 10.5,-7.3 10.9,-8 C11.6,-9 12.8,-9.7 14.3,-10 C15.6,-10.3 16.3,-10.5 18.9,-10.5 L19,-10.5 C23,-10.5 24.3,-6.8 25.4,-3 L25.7,-2 C26.5,0.6 26.9,2.8 26.9,4.5 C26.9,5.7 26.7,6.8 26.3,7.6 C25.7,8.7 24.7,9.4 23,9.8 C22.1,10 20.6,10.1 20.6,10.1 C20.1,10.1 19.7,10.2 19.3,10.2 C16.1,10.2 14.1,9 12.7,4.7 C11.5,1 11.3,-0.1 10.4,-4.5"/>
<path class="Note" transform="matrix(2.3811,0,0,2.3811,595.643,1451.34)" d="M18.7,-13.6 C4.9,-13.6 0,-6.6 0,-0.1 C0,6.4 4.9,13.4 18.7,13.4 C32.5,13.4 37.3,6.4 37.3,-0.1 C37.3,-6.6 32.5,-13.6 18.7,-13.6 M10.4,-4.5 C10.3,-4.9 10.3,-5.3 10.3,-5.7 C10.3,-6.5 10.5,-7.3 10.9,-8 C11.6,-9 12.8,-9.7 14.3,-10 C15.6,-10.3 16.3,-10.5 18.9,-10.5 L19,-10.5 C23,-10.5 24.3,-6.8 25.4,-3 L25.7,-2 C26.5,0.6 26.9,2.8 26.9,4.5 C26.9,5.7 26.7,6.8 26.3,7.6 C25.7,8.7 24.7,9.4 23,9.8 C22.1,10 20.6,10.1 20.6,10.1 C20.1,10.1 19.7,10.2 19.3,10.2 C16.1,10.2 14.1,9 12.7,4.7 C11.5,1 11.3,-0.1 10.4,-4.5"/>
<path class="Note" transform="matrix(2.3811,0,0,2.3811,1150.69,1570.39)" d="M18.7,-13.6 C4.9,-13.6 0,-6.6 0,-0.1 C0,6.4 4.9,13.4 18.7,13.4 C32.5,13.4 37.3,6.4 37.3,-0.1 C37.3,-6.6 32.5,-13.6 18.7,-13.6 M10.4,-4.5 C10.3,-4.9 10.3,-5.3 10.3,-5.7 C10.3,-6.5 10.5,-7.3 10.9,-8 C11.6,-9 12.8,-9.7 14.3,-10 C15.6,-10.3 16.3,-10.5 18.9,-10.5 L19,-10.5 C23,-10.5 24.3,-6.8 25.4,-3 L25.7,-2 C26.5,0.6 26.9,2.8 26.9,4.5 C26.9,5.7 26.7,6.8 26.3,7.6 C25.7,8.7 24.7,9.4 23,9.8 C22.1,10 20.6,10.1 20.6,10.1 C20.1,10.1 19.7,10.2 19.3,10.2 C16.1,10.2 14.1,9 12.7,4.7 C11.5,1 11.3,-0.1 10.4,-4.5"/>
<path class="Note" transform="matrix(2.3811,0,0,2.3811,1150.69,1510.87)" d="M18.7,-13.6 C4.9,-13.6 0,-6.6 0,-0.1 C0,6.4 4.9,13.4 18.7,13.4 C32.5,13.4 37.3,6.4 37.3,-0.1 C37.3,-6.6 32.5,-13.6 18.7,-13.6 M10.4,-4.5 C10.3,-4.9 10.3,-5.3 10.3,-5.7 C10.3,-6.5 10.5,-7.3 10.9,-8 C11.6,-9 12.8,-9.7 14.3,-10 C15.6,-10.3 16.3,-10.5 18.9,-10.5 L19,-10.5 C23,-10.5 24.3,-6.8 25.4,-3 L25.7,-2 C26.5,0.6 26.9,2.8 26.9,4.5 C26.9,5.7 26.7,6.8 26.3,7.6 C25.7,8.7 24.7,9.4 23,9.8 C22.1,10 20.6,10.1 20.6,10.1 C20.1,10.1 19.7,10.2 19.3,10.2 C16.1,10.2 14.1,9 12.7,4.7 C11.5,1 11.3,-0.1 10.4,-4.5"/>
<path class="Note" transform="matrix(2.3811,0,0,2.3811,1150.69,1451.34)" d="M18.7,-13.6 C4.9,-13.6 0,-6.6 0,-0.1 C0,6.4 4.9,13.4 18.7,13.4 C32.5,13.4 37.3,6.4 37.3,-0.1 C37.3,-6.6 32.5,-13.6 18.7,-13.6 M10.4,-4.5 C10.3,-4.9 10.3,-5.3 10.3,-5.7 C10.3,-6.5 10.5,-7.3 10.9,-8 C11.6,-9 12.8,-9.7 14.3,-10 C15.6,-10.3 16.3,-10.5 18.9,-10.5 L19,-10.5 C23,-10.5 24.3,-6.8 25.4,-3 L25.7,-2 C26.5,0.6 26.9,2.8 26.9,4.5 C26.9,5.7 26.7,6.8 26.3,7.6 C25.7,8.7 24.7,9.4 23,9.8 C22.1,10 20.6,10.1 20.6,10.1 C20.1,10.1 19.7,10.2 19.3,10.2 C16.1,10.2 14.1,9 12.7,4.7 C11.5,1 11.3,-0.1 10.4,-4.5"/>
<path class="Note" transform="matrix(2.3811,0,0,2.3811,1734.91,1570.39)" d="M18.7,-13.6 C4.9,-13.6 0,-6.6 0,-0.1 C0,6.4 4.9,13.4 18.7,13.4 C32.5,13.4 37.3,6.4 37.3,-0.1 C37.3,-6.6 32.5,-13.6 18.7,-13.6 M10.4,-4.5 C10.3,-4.9 10.3,-5.3 10.3,-5.7 C10.3,-6.5 10.5,-7.3 10.9,-8 C11.6,-9 12.8,-9.7 14.3,-10 C15.6,-10.3 16.3,-10.5 18.9,-10.5 L19,-10.5 C23,-10.5 24.3,-6.8 25.4,-3 L25.7,-2 C26.5,0.6 26.9,2.8 26.9,4.5 C26.9,5.7 26.7,6.8 26.3,7.6 C25.7,8.7 24.7,9.4 23,9.8 C22.1,10 20.6,10.1 20.6,10.1 C20.1,10.1 19.7,10.2 19.3,10.2 C16.1,10.2 14.1,9 12.7,4.7 C11.5,1 11.3,-0.1 10.4,-4.5"/>
<path class="Note" transform="matrix(2.3811,0,0,2.3811,1734.91,1481.1)" d="M18.7,-13.6 C4.9,-13.6 0,-6.6 0,-0.1 C0,6.4 4.9,13.4 18.7,13.4 C32.5,13.4 37.3,6.4 37.3,-0.1 C37.3,-6.6 32.5,-13.6 18.7,-13.6 M10.4,-4.5 C10.3,-4.9 10.3,-5.3 10.3,-5.7 C10.3,-6.5 10.5,-7.3 10.9,-8 C11.6,-9 12.8,-9.7 14.3,-10 C15.6,-10.3 16.3,-10.5 18.9,-10.5 L19,-10.5 C23,-10.5 24.3,-6.8 25.4,-3 L25.7,-2 C26.5,0.6 26.9,2.8 26.9,4.5 C26.9,5.7 26.7,6.8 26.3,7.6 C25.7,8.7 24.7,9.4 23,9.8 C22.1,10 20.6,10.1 20.6,10.1 C20.1,10.1 19.7,10.2 19.3,10.2 C16.1,10.2 14.1,9 12.7,4.7 C11.5,1 11.3,-0.1 10.4,-4.5"/>
<path class="Note" transform="matrix(2.3811,0,0,2.3811,1734.91,1421.57)" d="M18.7,-13.6 C4.9,-13.6 0,-6.6 0,-0.1 C0,6.4 4.9,13.4 18.7,13.4 C32.5,13.4 37.3,6.4 37.3,-0.1 C37.3,-6.6 32.5,-13.6 18.7,-13.6 M10.4,-4.5 C10.3,-4.9 10.3,-5.3 10.3,-5.7 C10.3,-6.5 10.5,-7.3 10.9,-8 C11.6,-9 12.8,-9.7 14.3,-10 C15.6,-10.3 16.3,-10.5 18.9,-10.5 L19,-10.5 C23,-10.5 24.3,-6.8 25.4,-3 L25.7,-2 C26.5,0.6 26.9,2.8 26.9,4.5 C26.9,5.7 26.7,6.8 26.3,7.6 C25.7,8.7 24.7,9.4 23,9.8 C22.1,10 20.6,10.1 20.6,10.1 C20.1,10.1 19.7,10.2 19.3,10.2 C16.1,10.2 14.1,9 12.7,4.7 C11.5,1 11.3,-0.1 10.4,-4.5"/>
<path class="Note" transform="matrix(2.3811,0,0,2.3811,2479.41,1510.87)" d="M18.7,-13.6 C4.9,-13.6 0,-6.6 0,-0.1 C0,6.4 4.9,13.4 18.7,13.4 C32.5,13.4 37.3,6.4 37.3,-0.1 C37.3,-6.6 32.5,-13.6 18.7,-13.6 M10.4,-4.5 C10.3,-4.9 10.3,-5.3 10.3,-5.7 C10.3,-6.5 10.5,-7.3 10.9,-8 C11.6,-9 12.8,-9.7 14.3,-10 C15.6,-10.3 16.3,-10.5 18.9,-10.5 L19,-10.5 C23,-10.5 24.3,-6.8 25.4,-3 L25.7,-2 C26.5,0.6 26.9,2.8 26.9,4.5 C26.9,5.7 26.7,6.8 26.3,7.6 C25.7,8.7 24.7,9.4 23,9.8 C22.1,10 20.6,10.1 20.6,10.1 C20.1,10.1 19.7,10.2 19.3,10.2 C16.1,10.2 14.1,9 12.7,4.7 C11.5,1 11.3,-0.1 10.4,-4.5"/>
<path class="Note" transform="matrix(2.3811,0,0,2.3811,2397.15,1451.34)" d="M18.7,-13.6 C4.9,-13.6 0,-6.6 0,-0.1 C0,6.4 4.9,13.4 18.7,13.4 C32.5,13.4 37.3,6.4 37.3,-0.1 C37.3,-6.6 32.5,-13.6 18.7,-13.6 M10.4,-4.5 C10.3,-4.9 10.3,-5.3 10.3,-5.7 C10.3,-6.5 10.5,-7.3 10.9,-8 C11.6,-9 12.8,-9.7 14.3,-10 C15.6,-10.3 16.3,-10.5 18.9,-10.5 L19,-10.5 C23,-10.5 24.3,-6.8 25.4,-3 L25.7,-2 C26.5,0.6 26.9,2.8 26.9,4.5 C26.9,5.7 26.7,6.8 26.3,7.6 C25.7,8.7 24.7,9.4 23,9.8 C22.1,10 20.6,10.1 20.6,10.1 C20.1,10.1 19.7,10.2 19.3,10.2 C16.1,10.2 14.1,9 12.7,4.7 C11.5,1 11.3,-0.1 10.4,-4.5"/>
<path class="Note" transform="matrix(2.3811,0,0,2.3811,2479.41,1421.57)" d="M18.7,-13.6 C4.9,-13.6 0,-6.6 0,-0.1 C0,6.4 4.9,13.4 18.7,13.4 C32.5,13.4 37.3,6.4 37.3,-0.1 C37.3,-6.6 32.5,-13.6 18.7,-13.6 M10.4,-4.5 C10.3,-4.9 10.3,-5.3 10.3,-5.7 C10.3,-6.5 10.5,-7.3 10.9,-8 C11.6,-9 12.8,-9.7 14.3,-10 C15.6,-10.3 16.3,-10.5 18.9,-10.5 L19,-10.5 C23,-10.5 24.3,-6.8 25.4,-3 L25.7,-2 C26.5,0.6 26.9,2.8 26.9,4.5 C26.9,5.7 26.7,6.8 26.3,7.6 C25.7,8.7 24.7,9.4 23,9.8 C22.1,10 20.6,10.1 20.6,10.1 C20.1,10.1 19.7,10.2 19.3,10.2 C16.1,10.2 14.1,9 12.7,4.7 C11.5,1 11.3,-0.1 10.4,-4.5"/>
<path class="Note" transform="matrix(2.3811,0,0,2.3811,3069.16,1540.63)" d="M18.7,-13.6 C4.9,-13.6 0,-6.6 0,-0.1 C0,6.4 4.9,13.4 18.7,13.4 C32.5,13.4 37.3,6.4 37.3,-0.1 C37.3,-6.6 32.5,-13.6 18.7,-13.6 M10.4,-4.5 C10.3,-4.9 10.3,-5.3 10.3,-5.7 C10.3,-6.5 10.5,-7.3 10.9,-8 C11.6,-9 12.8,-9.7 14.3,-10 C15.6,-10.3 16.3,-10.5 18.9,-10.5 L19,-10.5 C23,-10.5 24.3,-6.8 25.4,-3 L25.7,-2 C26.5,0.6 26.9,2.8 26.9,4.5 C26.9,5.7 26.7,6.8 26.3,7.6 C25.7,8.7 24.7,9.4 23,9.8 C22.1,10 20.6,10.1 20.6,10.1 C20.1,10.1 19.7,10.2 19.3,10.2 C16.1,10.2 14.1,9 12.7,4.7 C11.5,1 11.3,-0.1 10.4,-4.5"/>
<path class="Note" transform="matrix(2.3811,0,0,2.3811,3069.16,1481.1)" d="M18.7,-13.6 C4.9,-13.6 0,-6.6 0,-0.1 C0,6.4 4.9,13.4 18.7,13.4 C32.5,13.4 37.3,6.4 37.3,-0.1 C37.3,-6.6 32.5,-13.6 18.7,-13.6 M10.4,-4.5 C10.3,-4.9 10.3,-5.3 10.3,-5.7 C10.3,-6.5 10.5,-7.3 10.9,-8 C11.6,-9 12.8,-9.7 14.3,-10 C15.6,-10.3 16.3,-10.5 18.9,-10.5 L19,-10.5 C23,-10.5 24.3,-6.8 25.4,-3 L25.7,-2 C26.5,0.6 26.9,2.8 26.9,4.5 C26.9,5.7 26.7,6.8 26.3,7.6 C25.7,8.7 24.7,9.4 23,9.8 C22.1,10 20.6,10.1 20.6,10.1 C20.1,10.1 19.7,10.2 19.3,10.2 C16.1,10.2 14.1,9 12.7,4.7 C11.5,1 11.3,-0.1 10.4,-4.5"/>
<path class="Note" transform="matrix(2.3811,0,0,2.3811,3069.16,1421.57)" d="M18.7,-13.6 C4.9,-13.6 0,-6.6 0,-0.1 C0,6.4 4.9,13.4 18.7,13.4 C32.5,13.4 37.3,6.4 37.3,-0.1 C37.3,-6.6 32.5,-13.6 18.7,-13.6 M10.4,-4.5 C10.3,-4.9 10.3,-5.3 10.3,-5.7 C10.3,-6.5 10.5,-7.3 10.9,-8 C11.6,-9 12.8,-9.7 14.3,-10 C15.6,-10.3 16.3,-10.5 18.9,-10.5 L19,-10.5 C23,-10.5 24.3,-6.8 25.4,-3 L25.7,-2 C26.5,0.6 26.9,2.8 26.9,4.5 C26.9,5.7 26.7,6.8 26.3,7.6 C25.7,8.7 24.7,9.4 23,9.8 C22.1,10 20.6,10.1 20.6,10.1 C20.1,10.1 19.7,10.2 19.3,10.2 C16.1,10.2 14.1,9 12.7,4.7 C11.5,1 11.3,-0.1 10.4,-4.5"/>
<path class="Note" transform="matrix(2.3811,0,0,2.3811,3626.64,1540.63)" d="M18.7,-13.6 C4.9,-13.6 0,-6.6 0,-0.1 C0,6.4 4.9,13.4 18.7,13.4 C32.5,13.4 37.3,6.4 37.3,-0.1 C37.3,-6.6 32.5,-13.6 18.7,-13.6 M10.4,-4.5 C10.3,-4.9 10.3,-5.3 10.3,-5.7 C10.3,-6.5 10.5,-7.3 10.9,-8 C11.6,-9 12.8,-9.7 14.3,-10 C15.6,-10.3 16.3,-10.5 18.9,-10.5 L19,-10.5 C23,-10.5 24.3,-6.8 25.4,-3 L25.7,-2 C26.5,0.6 26.9,2.8 26.9,4.5 C26.9,5.7 26.7,6.8 26.3,7.6 C25.7,8.7 24.7,9.4 23,9.8 C22.1,10 20.6,10.1 20.6,10.1 C20.1,10.1 19.7,10.2 19.3,10.2 C16.1,10.2 14.1,9 12.7,4.7 C11.5,1 11.3,-0.1 10.4,-4.5"/>
<path class="Note" transform="matrix(2.3811,0,0,2.3811,3626.64,1451.34)" d="M18.7,-13.6 C4.9,-13.6 0,-6.6 0,-0.1 C0,6.4 4.9,13.4 18.7,13.4 C32.5,13.4 37.3,6.4 37.3,-0.1 C37.3,-6.6 32.5,-13.6 18.7,-13.6 M10.4,-4.5 C10.3,-4.9 10.3,-5.3 10.3,-5.7 C10.3,-6.5 10.5,-7.3 10.9,-8 C11.6,-9 12.8,-9.7 14.3,-10 C15.6,-10.3 16.3,-10.5 18.9,-10.5 L19,-10.5 C23,-10.5 24.3,-6.8 25.4,-3 L25.7,-2 C26.5,0.6 26.9,2.8 26.9,4.5 C26.9,5.7 26.7,6.8 26.3,7.6 C25.7,8.7 24.7,9.4 23,9.8 C22.1,10 20.6,10.1 20.6,10.1 C20.1,10.1 19.7,10.2 19.3,10.2 C16.1,10.2 14.1,9 12.7,4.7 C11.5,1 11.3,-0.1 10.4,-4.5"/>
<path class="Note" transform="matrix(2.3811,0,0,2.3811,3626.64,1391.81)" d="M18.7,-13.6 C4.9,-13.6 0,-6.6 0,-0.1 C0,6.4 4.9,13.4 18.7,13.4 C32.5,13.4 37.3,6.4 37.3,-0.1 C37.3,-6.6 32.5,-13.6 18.7,-13.6 M10.4,-4.5 C10.3,-4.9 10.3,-5.3 10.3,-5.7 C10.3,-6.5 10.5,-7.3 10.9,-8 C11.6,-9 12.8,-9.7 14.3,-10 C15.6,-10.3 16.3,-10.5 18.9,-10.5 L19,-10.5 C23,-10.5 24.3,-6.8 25.4,-3 L25.7,-2 C26.5,0.6 26.9,2.8 26.9,4.5 C26.9,5.7 26.7,6.8 26.3,7.6 C25.7,8.7 24.7,9.4 23,9.8 C22.1,10 20.6,10.1 20.6,10.1 C20.1,10.1 19.7,10.2 19.3,10.2 C16.1,10.2 14.1,9 12.7,4.7 C11.5,1 11.3,-0.1 10.4,-4.5"/>
<path class="Note" d="M563.374,855.79 C563.684,844.091 570.153,833.71 582.781,824.645 C594.015,816.588 606.295,812.559 619.62,812.559 C638.291,812.559 654.755,819.881 669.01,834.523 C678.074,843.898 682.607,855.519 682.607,869.387 C682.607,881.86 679.275,891.428 672.612,898.091 C664.478,906.303 655.878,910.409 646.814,910.409 C640.616,910.409 635.812,909.014 632.403,906.225 C626.825,901.654 624.036,895.534 624.036,887.864 C624.036,877.947 628.995,868.883 638.911,860.671 C647.046,853.93 655.22,849.514 663.432,847.423 C661.262,843.704 658.512,840.218 655.181,836.964 C644.799,826.815 633.023,821.74 619.853,821.74 C606.14,821.74 594.79,824.723 585.803,830.688 C576.506,836.809 569.03,845.176 563.374,855.79 M666.337,853.582 C662.076,857.533 657.815,861.755 653.554,866.249 C645.187,875.081 641.003,883.448 641.003,891.35 C641.003,899.795 642.94,904.017 646.814,904.017 C650.3,904.017 655.181,899.253 661.456,889.723 C666.492,882.131 669.01,875.158 669.01,868.805 C669.01,863.382 668.119,858.308 666.337,853.582"/>
<path class="Note" d="M689.338,561.187 C693.676,558.243 696.814,555.803 698.751,553.866 C702.315,550.07 704.097,546.583 704.097,543.407 C704.097,539.766 702.082,537.945 698.054,537.945 C690.229,537.945 681.861,544.84 672.952,558.631 C670.24,562.814 664.275,576.45 655.056,599.537 C662.416,607.129 666.096,611.429 666.096,612.436 C666.096,613.831 665.205,614.528 663.423,614.528 C662.028,614.528 658.193,612.165 651.918,607.439 C645.1,623.321 634.757,636.879 620.889,648.113 C606.712,659.579 589.784,665.312 570.105,665.312 C562.59,665.312 553.177,663.569 541.866,660.083 C532.802,657.294 528.269,652.839 528.269,646.719 C528.269,637.654 531.756,633.122 538.728,633.122 C542.912,633.122 545.004,635.059 545.004,638.932 C545.004,640.172 544.035,641.489 542.098,642.884 C541.091,643.581 540.588,644.937 540.588,646.951 C540.588,649.353 543.261,651.832 548.606,654.388 C554.417,657.178 562.939,658.572 574.173,658.572 C588.66,658.572 602.644,652.297 616.125,639.746 C628.366,628.357 637.159,615.109 642.505,600.002 C640.413,598.297 638.166,596.438 635.764,594.424 C628.327,590.008 624.608,585.475 624.608,580.827 C624.608,578.89 625.887,577.922 628.443,577.922 C631.852,577.922 636.462,580.827 642.272,586.638 C643.512,587.877 644.674,589.039 645.759,590.124 C648.47,582.686 652.809,573.235 658.774,561.768 C669.543,541.005 682.636,530.624 698.054,530.624 C703.554,530.624 707.893,531.67 711.069,533.762 C714.246,535.853 715.834,538.72 715.834,542.361 C715.834,548.172 713.703,553.091 709.442,557.12 C705.026,561.304 700.417,563.395 695.613,563.395 C691.43,563.395 689.338,562.659 689.338,561.187"/>
<path class="Note" d="M563.374,498.624 C563.684,486.926 570.153,476.544 582.781,467.48 C594.015,459.423 606.295,455.394 619.62,455.394 C638.291,455.394 654.755,462.715 669.01,477.358 C678.074,486.732 682.607,498.353 682.607,512.221 C682.607,524.694 679.275,534.263 672.612,540.925 C664.478,549.138 655.878,553.244 646.814,553.244 C640.616,553.244 635.812,551.849 632.403,549.06 C626.825,544.489 624.036,538.369 624.036,530.699 C624.036,520.782 628.995,511.718 638.911,503.505 C647.046,496.765 655.22,492.349 663.432,490.257 C661.262,486.539 658.512,483.052 655.181,479.798 C644.799,469.649 633.023,464.575 619.853,464.575 C606.14,464.575 594.79,467.557 585.803,473.523 C576.506,479.643 569.03,488.011 563.374,498.624 M666.337,496.416 C662.076,500.368 657.815,504.59 653.554,509.083 C645.187,517.916 641.003,526.283 641.003,534.185 C641.003,542.63 642.94,546.852 646.814,546.852 C650.3,546.852 655.181,542.087 661.456,532.558 C666.492,524.966 669.01,517.993 669.01,511.64 C669.01,506.217 668.119,501.142 666.337,496.416"/>
<path class="Note" d="M563.374,677.207 C563.684,665.509 570.153,655.127 582.781,646.063 C594.015,638.005 606.295,633.977 619.62,633.977 C638.291,633.977 654.755,641.298 669.01,655.941 C678.074,665.315 682.607,676.936 682.607,690.804 C682.607,703.277 679.275,712.845 672.612,719.508 C664.478,727.72 655.878,731.826 646.814,731.826 C640.616,731.826 635.812,730.432 632.403,727.643 C626.825,723.072 624.036,716.951 624.036,709.281 C624.036,699.365 628.995,690.3 638.911,682.088 C647.046,675.348 655.22,670.932 663.432,668.84 C661.262,665.121 658.512,661.635 655.181,658.381 C644.799,648.232 633.023,643.157 619.853,643.157 C606.14,643.157 594.79,646.14 585.803,652.106 C576.506,658.226 569.03,666.593 563.374,677.207 M666.337,674.999 C662.076,678.95 657.815,683.173 653.554,687.666 C645.187,696.498 641.003,704.865 641.003,712.768 C641.003,721.212 642.94,725.435 646.814,725.435 C650.3,725.435 655.181,720.67 661.456,711.141 C666.492,703.548 669.01,696.576 669.01,690.223 C669.01,684.8 668.119,679.725 666.337,674.999"/>
<path class="Note" d="M1118.42,587.916 C1118.73,576.217 1125.2,565.836 1137.83,556.771 C1149.06,548.714 1161.34,544.685 1174.66,544.685 C1193.34,544.685 1209.8,552.007 1224.05,566.649 C1233.12,576.024 1237.65,587.645 1237.65,601.513 C1237.65,613.986 1234.32,623.554 1227.66,630.217 C1219.52,638.429 1210.92,642.535 1201.86,642.535 C1195.66,642.535 1190.86,641.14 1187.45,638.351 C1181.87,633.78 1179.08,627.66 1179.08,619.99 C1179.08,610.073 1184.04,601.009 1193.96,592.797 C1202.09,586.056 1210.26,581.64 1218.48,579.549 C1216.31,575.83 1213.56,572.344 1210.23,569.09 C1199.84,558.941 1188.07,553.866 1174.9,553.866 C1161.18,553.866 1149.83,556.849 1140.85,562.814 C1131.55,568.935 1124.07,577.302 1118.42,587.916 M1221.38,585.708 C1217.12,589.659 1212.86,593.881 1208.6,598.375 C1200.23,607.207 1196.05,615.574 1196.05,623.476 C1196.05,631.921 1197.98,636.143 1201.86,636.143 C1205.34,636.143 1210.23,631.379 1216.5,621.849 C1221.54,614.257 1224.05,607.284 1224.05,600.931 C1224.05,595.508 1223.16,590.434 1221.38,585.708"/>
<path class="Note" d="M1244.38,829.061 C1248.72,826.117 1251.86,823.677 1253.8,821.74 C1257.36,817.944 1259.14,814.457 1259.14,811.281 C1259.14,807.64 1257.13,805.819 1253.1,805.819 C1245.27,805.819 1236.91,812.714 1228,826.505 C1225.29,830.688 1219.32,844.324 1210.1,867.411 C1217.46,875.003 1221.14,879.303 1221.14,880.31 C1221.14,881.705 1220.25,882.402 1218.47,882.402 C1217.07,882.402 1213.24,880.039 1206.96,875.313 C1200.14,891.195 1189.8,904.753 1175.93,915.987 C1161.76,927.453 1144.83,933.186 1125.15,933.186 C1117.64,933.186 1108.22,931.443 1096.91,927.957 C1087.85,925.168 1083.31,920.713 1083.31,914.593 C1083.31,905.528 1086.8,900.996 1093.77,900.996 C1097.96,900.996 1100.05,902.933 1100.05,906.806 C1100.05,908.046 1099.08,909.363 1097.14,910.758 C1096.14,911.455 1095.63,912.811 1095.63,914.825 C1095.63,917.227 1098.31,919.706 1103.65,922.263 C1109.46,925.052 1117.98,926.446 1129.22,926.446 C1143.71,926.446 1157.69,920.171 1171.17,907.62 C1183.41,896.231 1192.2,882.983 1197.55,867.876 C1195.46,866.171 1193.21,864.312 1190.81,862.298 C1183.37,857.882 1179.65,853.349 1179.65,848.701 C1179.65,846.764 1180.93,845.796 1183.49,845.796 C1186.9,845.796 1191.51,848.701 1197.32,854.512 C1198.56,855.751 1199.72,856.913 1200.8,857.998 C1203.51,850.56 1207.85,841.109 1213.82,829.642 C1224.59,808.879 1237.68,798.498 1253.1,798.498 C1258.6,798.498 1262.94,799.544 1266.11,801.636 C1269.29,803.727 1270.88,806.594 1270.88,810.235 C1270.88,816.046 1268.75,820.965 1264.49,824.994 C1260.07,829.178 1255.46,831.269 1250.66,831.269 C1246.47,831.269 1244.38,830.533 1244.38,829.061"/>
<path class="Note" d="M1265.3,794.854 C1258.95,804.848 1248.91,813.138 1235.2,819.723 C1223.27,825.456 1212.11,828.323 1201.73,828.323 C1193.44,828.323 1186.55,826.657 1181.05,823.326 C1175.08,819.684 1172.1,815.346 1172.1,810.31 C1172.1,798.921 1175.08,789.121 1181.05,780.909 C1189.18,769.752 1197.39,764.174 1205.68,764.174 C1211.57,764.174 1215.76,765.336 1218.24,767.661 C1221.64,770.682 1223.35,774.827 1223.35,780.095 C1223.35,787.533 1217.81,794.002 1206.73,799.502 C1195.96,804.848 1188.49,808.334 1184.3,809.961 C1185.23,811.898 1186.43,813.641 1187.9,815.191 C1191.55,819.065 1196.5,821.001 1202.78,821.001 C1210.68,821.001 1221.3,818.096 1234.62,812.286 C1247.4,806.63 1257.63,800.819 1265.3,794.854 M1182.67,804.616 C1188.49,801.672 1193.79,798.224 1198.6,794.273 C1205.72,788.462 1209.29,782.187 1209.29,775.447 C1209.29,771.651 1207.54,769.752 1204.06,769.752 C1201.11,769.752 1197.08,773.123 1191.97,779.863 C1185.54,788.23 1182.33,795.048 1182.33,800.316 C1182.33,801.788 1182.44,803.221 1182.67,804.616"/>
<path class="Note" d="M1118.42,677.207 C1118.73,665.509 1125.2,655.127 1137.83,646.063 C1149.06,638.005 1161.34,633.977 1174.66,633.977 C1193.34,633.977 1209.8,641.298 1224.05,655.941 C1233.12,665.315 1237.65,676.936 1237.65,690.804 C1237.65,703.277 1234.32,712.845 1227.66,719.508 C1219.52,727.72 1210.92,731.826 1201.86,731.826 C1195.66,731.826 1190.86,730.432 1187.45,727.643 C1181.87,723.072 1179.08,716.951 1179.08,709.281 C1179.08,699.365 1184.04,690.3 1193.96,682.088 C1202.09,675.348 1210.26,670.932 1218.48,668.84 C1216.31,665.121 1213.56,661.635 1210.23,658.381 C1199.84,648.232 1188.07,643.157 1174.9,643.157 C1161.18,643.157 1149.83,646.14 1140.85,652.106 C1131.55,658.226 1124.07,666.593 1118.42,677.207 M1221.38,674.999 C1217.12,678.95 1212.86,683.173 1208.6,687.666 C1200.23,696.498 1196.05,704.865 1196.05,712.768 C1196.05,721.212 1197.98,725.435 1201.86,725.435 C1205.34,725.435 1210.23,720.67 1216.5,711.141 C1221.54,703.548 1224.05,696.576 1224.05,690.223 C1224.05,684.8 1223.16,679.725 1221.38,674.999"/>
<path class="Note" d="M1702.64,945.081 C1702.95,933.383 1709.42,923.001 1722.05,913.937 C1733.28,905.879 1745.56,901.851 1758.89,901.851 C1777.56,901.851 1794.02,909.172 1808.28,923.815 C1817.34,933.189 1821.87,944.81 1821.87,958.678 C1821.87,971.151 1818.54,980.719 1811.88,987.382 C1803.74,995.594 1795.15,999.7 1786.08,999.7 C1779.88,999.7 1775.08,998.306 1771.67,995.517 C1766.09,990.946 1763.3,984.825 1763.3,977.155 C1763.3,967.239 1768.26,958.174 1778.18,949.962 C1786.31,943.222 1794.49,938.806 1802.7,936.714 C1800.53,932.995 1797.78,929.509 1794.45,926.255 C1784.07,916.106 1772.29,911.031 1759.12,911.031 C1745.41,911.031 1734.06,914.014 1725.07,919.98 C1715.77,926.1 1708.3,934.467 1702.64,945.081 M1805.6,942.873 C1801.34,946.824 1797.08,951.047 1792.82,955.54 C1784.45,964.372 1780.27,972.739 1780.27,980.642 C1780.27,989.086 1782.21,993.309 1786.08,993.309 C1789.57,993.309 1794.45,988.544 1800.72,979.015 C1805.76,971.422 1808.28,964.45 1808.28,958.097 C1808.28,952.674 1807.39,947.599 1805.6,942.873"/>
<path class="Note" d="M1702.64,587.916 C1702.95,576.217 1709.42,565.836 1722.05,556.771 C1733.28,548.714 1745.56,544.685 1758.89,544.685 C1777.56,544.685 1794.02,552.007 1808.28,566.649 C1817.34,576.024 1821.87,587.645 1821.87,601.513 C1821.87,613.986 1818.54,623.554 1811.88,630.217 C1803.74,638.429 1795.15,642.535 1786.08,642.535 C1779.88,642.535 1775.08,641.14 1771.67,638.351 C1766.09,633.78 1763.3,627.66 1763.3,619.99 C1763.3,610.073 1768.26,601.009 1778.18,592.797 C1786.31,586.056 1794.49,581.64 1802.7,579.549 C1800.53,575.83 1797.78,572.344 1794.45,569.09 C1784.07,558.941 1772.29,553.866 1759.12,553.866 C1745.41,553.866 1734.06,556.849 1725.07,562.814 C1715.77,568.935 1708.3,577.302 1702.64,587.916 M1805.6,585.708 C1801.34,589.659 1797.08,593.881 1792.82,598.375 C1784.45,607.207 1780.27,615.574 1780.27,623.476 C1780.27,631.921 1782.21,636.143 1786.08,636.143 C1789.57,636.143 1794.45,631.379 1800.72,621.849 C1805.76,614.257 1808.28,607.284 1808.28,600.931 C1808.28,595.508 1807.39,590.434 1805.6,585.708"/>
<path class="Note" d="M1828.61,739.77 C1832.94,736.826 1836.08,734.386 1838.02,732.449 C1841.58,728.652 1843.36,725.166 1843.36,721.99 C1843.36,718.348 1841.35,716.528 1837.32,716.528 C1829.5,716.528 1821.13,723.423 1812.22,737.213 C1809.51,741.397 1803.54,755.032 1794.32,778.12 C1801.68,785.712 1805.36,790.012 1805.36,791.019 C1805.36,792.414 1804.47,793.111 1802.69,793.111 C1801.3,793.111 1797.46,790.748 1791.19,786.022 C1784.37,801.904 1774.02,815.462 1760.16,826.696 C1745.98,838.162 1729.05,843.895 1709.37,843.895 C1701.86,843.895 1692.44,842.152 1681.13,838.666 C1672.07,835.876 1667.54,831.422 1667.54,825.301 C1667.54,816.237 1671.02,811.705 1678,811.705 C1682.18,811.705 1684.27,813.641 1684.27,817.515 C1684.27,818.755 1683.3,820.072 1681.37,821.466 C1680.36,822.164 1679.86,823.519 1679.86,825.534 C1679.86,827.935 1682.53,830.415 1687.87,832.971 C1693.68,835.76 1702.21,837.155 1713.44,837.155 C1727.93,837.155 1741.91,830.879 1755.39,818.329 C1767.63,806.94 1776.43,793.692 1781.77,778.584 C1779.68,776.88 1777.43,775.021 1775.03,773.006 C1767.59,768.59 1763.88,764.058 1763.88,759.41 C1763.88,757.473 1765.15,756.504 1767.71,756.504 C1771.12,756.504 1775.73,759.41 1781.54,765.22 C1782.78,766.46 1783.94,767.622 1785.03,768.707 C1787.74,761.269 1792.08,751.817 1798.04,740.351 C1808.81,719.588 1821.9,709.207 1837.32,709.207 C1842.82,709.207 1847.16,710.252 1850.34,712.344 C1853.51,714.436 1855.1,717.303 1855.1,720.944 C1855.1,726.754 1852.97,731.674 1848.71,735.703 C1844.29,739.886 1839.68,741.978 1834.88,741.978 C1830.7,741.978 1828.61,741.242 1828.61,739.77"/>
<path class="Note" d="M1702.64,498.624 C1702.95,486.926 1709.42,476.544 1722.05,467.48 C1733.28,459.423 1745.56,455.394 1758.89,455.394 C1777.56,455.394 1794.02,462.715 1808.28,477.358 C1817.34,486.732 1821.87,498.353 1821.87,512.221 C1821.87,524.694 1818.54,534.263 1811.88,540.925 C1803.74,549.138 1795.15,553.244 1786.08,553.244 C1779.88,553.244 1775.08,551.849 1771.67,549.06 C1766.09,544.489 1763.3,538.369 1763.3,530.699 C1763.3,520.782 1768.26,511.718 1778.18,503.505 C1786.31,496.765 1794.49,492.349 1802.7,490.257 C1800.53,486.539 1797.78,483.052 1794.45,479.798 C1784.07,469.649 1772.29,464.575 1759.12,464.575 C1745.41,464.575 1734.06,467.557 1725.07,473.523 C1715.77,479.643 1708.3,488.011 1702.64,498.624 M1805.6,496.416 C1801.34,500.368 1797.08,504.59 1792.82,509.083 C1784.45,517.916 1780.27,526.283 1780.27,534.185 C1780.27,542.63 1782.21,546.852 1786.08,546.852 C1789.57,546.852 1794.45,542.087 1800.72,532.558 C1805.76,524.966 1808.28,517.993 1808.28,511.64 C1808.28,506.217 1807.39,501.142 1805.6,496.416"/>
<path class="Note" d="M1828.61,650.479 C1832.94,647.535 1836.08,645.094 1838.02,643.157 C1841.58,639.361 1843.36,635.875 1843.36,632.698 C1843.36,629.057 1841.35,627.236 1837.32,627.236 C1829.5,627.236 1821.13,634.132 1812.22,647.922 C1809.51,652.106 1803.54,665.741 1794.32,688.828 C1801.68,696.421 1805.36,700.721 1805.36,701.728 C1805.36,703.122 1804.47,703.819 1802.69,703.819 C1801.3,703.819 1797.46,701.457 1791.19,696.731 C1784.37,712.613 1774.02,726.171 1760.16,737.404 C1745.98,748.871 1729.05,754.604 1709.37,754.604 C1701.86,754.604 1692.44,752.86 1681.13,749.374 C1672.07,746.585 1667.54,742.13 1667.54,736.01 C1667.54,726.945 1671.02,722.413 1678,722.413 C1682.18,722.413 1684.27,724.35 1684.27,728.224 C1684.27,729.463 1683.3,730.78 1681.37,732.175 C1680.36,732.872 1679.86,734.228 1679.86,736.242 C1679.86,738.644 1682.53,741.123 1687.87,743.68 C1693.68,746.469 1702.21,747.863 1713.44,747.863 C1727.93,747.863 1741.91,741.588 1755.39,729.037 C1767.63,717.649 1776.43,704.401 1781.77,689.293 C1779.68,687.589 1777.43,685.729 1775.03,683.715 C1767.59,679.299 1763.88,674.767 1763.88,670.118 C1763.88,668.181 1765.15,667.213 1767.71,667.213 C1771.12,667.213 1775.73,670.118 1781.54,675.929 C1782.78,677.168 1783.94,678.331 1785.03,679.415 C1787.74,671.978 1792.08,662.526 1798.04,651.06 C1808.81,630.297 1821.9,619.915 1837.32,619.915 C1842.82,619.915 1847.16,620.961 1850.34,623.053 C1853.51,625.145 1855.1,628.011 1855.1,631.652 C1855.1,637.463 1852.97,642.383 1848.71,646.411 C1844.29,650.595 1839.68,652.687 1834.88,652.687 C1830.7,652.687 1828.61,651.951 1828.61,650.479"/>
<path class="Note" d="M2573.11,829.061 C2577.44,826.117 2580.58,823.677 2582.52,821.74 C2586.08,817.944 2587.86,814.457 2587.86,811.281 C2587.86,807.64 2585.85,805.819 2581.82,805.819 C2574,805.819 2565.63,812.714 2556.72,826.505 C2554.01,830.688 2548.04,844.324 2538.82,867.411 C2546.18,875.003 2549.86,879.303 2549.86,880.31 C2549.86,881.705 2548.97,882.402 2547.19,882.402 C2545.8,882.402 2541.96,880.039 2535.69,875.313 C2528.87,891.195 2518.53,904.753 2504.66,915.987 C2490.48,927.453 2473.55,933.186 2453.87,933.186 C2446.36,933.186 2436.95,931.443 2425.63,927.957 C2416.57,925.168 2412.04,920.713 2412.04,914.593 C2412.04,905.528 2415.52,900.996 2422.5,900.996 C2426.68,900.996 2428.77,902.933 2428.77,906.806 C2428.77,908.046 2427.8,909.363 2425.87,910.758 C2424.86,911.455 2424.36,912.811 2424.36,914.825 C2424.36,917.227 2427.03,919.706 2432.37,922.263 C2438.18,925.052 2446.71,926.446 2457.94,926.446 C2472.43,926.446 2486.41,920.171 2499.89,907.62 C2512.13,896.231 2520.93,882.983 2526.27,867.876 C2524.18,866.171 2521.93,864.312 2519.53,862.298 C2512.09,857.882 2508.38,853.349 2508.38,848.701 C2508.38,846.764 2509.65,845.796 2512.21,845.796 C2515.62,845.796 2520.23,848.701 2526.04,854.512 C2527.28,855.751 2528.44,856.913 2529.53,857.998 C2532.24,850.56 2536.58,841.109 2542.54,829.642 C2553.31,808.879 2566.4,798.498 2581.82,798.498 C2587.32,798.498 2591.66,799.544 2594.84,801.636 C2598.01,803.727 2599.6,806.594 2599.6,810.235 C2599.6,816.046 2597.47,820.965 2593.21,824.994 C2588.79,829.178 2584.18,831.269 2579.38,831.269 C2575.2,831.269 2573.11,830.533 2573.11,829.061"/>
<path class="Note" d="M2572.29,584.778 C2572.29,593.688 2562.14,613.25 2541.84,643.465 C2533.79,655.473 2522.21,664.266 2507.1,669.845 C2495.94,674.028 2483.04,676.12 2468.4,676.12 C2463.67,676.12 2459.49,675.152 2455.85,673.215 C2451.82,671.123 2449.81,668.837 2449.81,666.358 C2449.81,659.928 2453.25,656.713 2460.15,656.713 C2461.16,656.713 2461.66,657.332 2461.66,658.572 C2461.66,659.657 2461.16,660.858 2460.15,662.175 C2458.91,663.802 2458.29,665.002 2458.29,665.777 C2458.29,668.101 2461.78,669.263 2468.75,669.263 C2484.4,669.263 2496.76,667.365 2505.82,663.569 C2515.27,659.695 2524.68,649.818 2534.06,633.935 L2536.73,628.938 C2532.24,632.347 2527.78,634.052 2523.37,634.052 C2512.37,634.052 2506.87,629.597 2506.87,620.687 C2506.87,611.081 2513.33,600.97 2526.27,590.356 C2536.42,582.144 2545.45,578.038 2553.35,578.038 C2557.3,578.038 2560.59,579.084 2563.23,581.176 C2564.16,580.478 2565.32,580.13 2566.71,580.13 C2570.43,580.13 2572.29,581.679 2572.29,584.778 M2538.13,626.498 L2560.09,585.94 C2558.39,585.553 2556.49,585.359 2554.4,585.359 C2546.88,585.359 2539.6,589.736 2532.55,598.491 C2524.34,608.718 2520.23,616.891 2520.23,623.012 C2520.23,627.04 2522.9,629.055 2528.25,629.055 C2530.8,629.055 2534.1,628.202 2538.13,626.498"/>
<path class="Note" d="M2573.11,471.896 C2577.44,468.952 2580.58,466.512 2582.52,464.575 C2586.08,460.778 2587.86,457.292 2587.86,454.116 C2587.86,450.474 2585.85,448.654 2581.82,448.654 C2574,448.654 2565.63,455.549 2556.72,469.339 C2554.01,473.523 2548.04,487.158 2538.82,510.246 C2546.18,517.838 2549.86,522.138 2549.86,523.145 C2549.86,524.54 2548.97,525.237 2547.19,525.237 C2545.8,525.237 2541.96,522.874 2535.69,518.148 C2528.87,534.03 2518.53,547.588 2504.66,558.822 C2490.48,570.288 2473.55,576.021 2453.87,576.021 C2446.36,576.021 2436.95,574.278 2425.63,570.791 C2416.57,568.002 2412.04,563.548 2412.04,557.427 C2412.04,548.363 2415.52,543.831 2422.5,543.831 C2426.68,543.831 2428.77,545.767 2428.77,549.641 C2428.77,550.881 2427.8,552.198 2425.87,553.592 C2424.86,554.29 2424.36,555.645 2424.36,557.66 C2424.36,560.061 2427.03,562.541 2432.37,565.097 C2438.18,567.886 2446.71,569.281 2457.94,569.281 C2472.43,569.281 2486.41,563.005 2499.89,550.455 C2512.13,539.066 2520.93,525.818 2526.27,510.71 C2524.18,509.006 2521.93,507.147 2519.53,505.132 C2512.09,500.716 2508.38,496.184 2508.38,491.536 C2508.38,489.599 2509.65,488.63 2512.21,488.63 C2515.62,488.63 2520.23,491.536 2526.04,497.346 C2527.28,498.586 2528.44,499.748 2529.53,500.832 C2532.24,493.395 2536.58,483.943 2542.54,472.477 C2553.31,451.714 2566.4,441.332 2581.82,441.332 C2587.32,441.332 2591.66,442.378 2594.84,444.47 C2598.01,446.562 2599.6,449.429 2599.6,453.07 C2599.6,458.88 2597.47,463.8 2593.21,467.829 C2588.79,472.012 2584.18,474.104 2579.38,474.104 C2575.2,474.104 2573.11,473.368 2573.11,471.896"/>
<path class="Note" d="M2573.11,650.479 C2577.44,647.535 2580.58,645.094 2582.52,643.157 C2586.08,639.361 2587.86,635.875 2587.86,632.698 C2587.86,629.057 2585.85,627.236 2581.82,627.236 C2574,627.236 2565.63,634.132 2556.72,647.922 C2554.01,652.106 2548.04,665.741 2538.82,688.828 C2546.18,696.421 2549.86,700.721 2549.86,701.728 C2549.86,703.122 2548.97,703.819 2547.19,703.819 C2545.8,703.819 2541.96,701.457 2535.69,696.731 C2528.87,712.613 2518.53,726.171 2504.66,737.404 C2490.48,748.871 2473.55,754.604 2453.87,754.604 C2446.36,754.604 2436.95,752.86 2425.63,749.374 C2416.57,746.585 2412.04,742.13 2412.04,736.01 C2412.04,726.945 2415.52,722.413 2422.5,722.413 C2426.68,722.413 2428.77,724.35 2428.77,728.224 C2428.77,729.463 2427.8,730.78 2425.87,732.175 C2424.86,732.872 2424.36,734.228 2424.36,736.242 C2424.36,738.644 2427.03,741.123 2432.37,743.68 C2438.18,746.469 2446.71,747.863 2457.94,747.863 C2472.43,747.863 2486.41,741.588 2499.89,729.037 C2512.13,717.649 2520.93,704.401 2526.27,689.293 C2524.18,687.589 2521.93,685.729 2519.53,683.715 C2512.09,679.299 2508.38,674.767 2508.38,670.118 C2508.38,668.181 2509.65,667.213 2512.21,667.213 C2515.62,667.213 2520.23,670.118 2526.04,675.929 C2527.28,677.168 2528.44,678.331 2529.53,679.415 C2532.24,671.978 2536.58,662.526 2542.54,651.06 C2553.31,630.297 2566.4,619.915 2581.82,619.915 C2587.32,619.915 2591.66,620.961 2594.84,623.053 C2598.01,625.145 2599.6,628.011 2599.6,631.652 C2599.6,637.463 2597.47,642.383 2593.21,646.411 C2588.79,650.595 2584.18,652.687 2579.38,652.687 C2575.2,652.687 2573.11,651.951 2573.11,650.479"/>
<path class="Note" d="M3162.85,561.187 C3167.19,558.243 3170.33,555.803 3172.26,553.866 C3175.83,550.07 3177.61,546.583 3177.61,543.407 C3177.61,539.766 3175.6,537.945 3171.57,537.945 C3163.74,537.945 3155.37,544.84 3146.47,558.631 C3143.75,562.814 3137.79,576.45 3128.57,599.537 C3135.93,607.129 3139.61,611.429 3139.61,612.436 C3139.61,613.831 3138.72,614.528 3136.94,614.528 C3135.54,614.528 3131.71,612.165 3125.43,607.439 C3118.61,623.321 3108.27,636.879 3094.4,648.113 C3080.23,659.579 3063.3,665.312 3043.62,665.312 C3036.1,665.312 3026.69,663.569 3015.38,660.083 C3006.32,657.294 3001.78,652.839 3001.78,646.719 C3001.78,637.654 3005.27,633.122 3012.24,633.122 C3016.43,633.122 3018.52,635.059 3018.52,638.932 C3018.52,640.172 3017.55,641.489 3015.61,642.884 C3014.6,643.581 3014.1,644.937 3014.1,646.951 C3014.1,649.353 3016.77,651.832 3022.12,654.388 C3027.93,657.178 3036.45,658.572 3047.69,658.572 C3062.17,658.572 3076.16,652.297 3089.64,639.746 C3101.88,628.357 3110.67,615.109 3116.02,600.002 C3113.93,598.297 3111.68,596.438 3109.28,594.424 C3101.84,590.008 3098.12,585.475 3098.12,580.827 C3098.12,578.89 3099.4,577.922 3101.96,577.922 C3105.37,577.922 3109.98,580.827 3115.79,586.638 C3117.03,587.877 3118.19,589.039 3119.27,590.124 C3121.98,582.686 3126.32,573.235 3132.29,561.768 C3143.06,541.005 3156.15,530.624 3171.57,530.624 C3177.07,530.624 3181.41,531.67 3184.58,533.762 C3187.76,535.853 3189.35,538.72 3189.35,542.361 C3189.35,548.172 3187.22,553.091 3182.96,557.12 C3178.54,561.304 3173.93,563.395 3169.13,563.395 C3164.94,563.395 3162.85,562.659 3162.85,561.187"/>
<path class="Note" d="M3090.22,910.409 C3086.04,910.409 3083.94,908.511 3083.94,904.715 C3083.94,898.284 3084.91,893.558 3086.85,890.537 C3094.91,878.606 3112.42,856.293 3139.38,823.599 C3151.54,808.802 3167.23,801.403 3186.44,801.403 C3193.88,801.403 3199.03,802.449 3201.9,804.541 C3206.31,807.795 3208.52,811.707 3208.52,816.278 C3208.52,821.082 3204.65,826.427 3196.9,832.315 C3189.54,837.893 3182.57,840.682 3175.98,840.682 C3173.43,840.682 3172.15,840.411 3172.15,839.869 C3172.15,839.094 3173.39,838.281 3175.87,837.429 C3179.2,836.189 3182.76,833.671 3186.56,829.875 C3190.9,825.459 3193.07,821.469 3193.07,817.905 C3193.07,815.503 3191.4,813.218 3188.07,811.049 C3185.12,809.189 3180.36,808.26 3173.78,808.26 C3164.17,808.26 3152.04,817.944 3137.4,837.312 C3127.64,850.25 3119.74,861.639 3113.69,871.478 C3116.64,869.851 3120.16,867.876 3124.27,865.552 C3129.3,862.685 3133.64,861.252 3137.28,861.252 C3146.35,861.252 3150.88,864.506 3150.88,871.013 C3150.88,877.444 3147.16,884.494 3139.73,892.164 C3134.46,897.587 3131.82,901.616 3131.82,904.25 C3131.82,906.961 3134.46,908.317 3139.73,908.317 C3142.36,908.317 3145.07,907.388 3147.86,905.528 C3150.65,903.746 3152.7,902.855 3154.02,902.855 C3155.1,902.855 3155.65,903.553 3155.65,904.947 C3155.65,907.194 3153.48,909.557 3149.14,912.036 C3141.86,916.22 3136.01,918.311 3131.59,918.311 C3123.77,918.311 3119.85,914.128 3119.85,905.761 C3119.85,900.492 3122.87,894.643 3128.92,888.213 C3133.33,883.487 3135.54,878.8 3135.54,874.151 C3135.54,870.123 3133.37,868.108 3129.03,868.108 C3127.33,868.108 3121.67,870.123 3112.07,874.151 C3109.2,878.955 3106.8,883.371 3104.86,887.399 C3097.5,902.739 3092.62,910.409 3090.22,910.409"/>
<path class="Note" d="M3162.04,763.361 C3162.04,772.27 3151.89,791.832 3131.59,822.047 C3123.53,834.056 3111.95,842.849 3096.84,848.427 C3085.69,852.611 3072.79,854.703 3058.15,854.703 C3053.42,854.703 3049.24,853.734 3045.59,851.797 C3041.57,849.706 3039.55,847.42 3039.55,844.941 C3039.55,838.511 3043,835.295 3049.89,835.295 C3050.9,835.295 3051.4,835.915 3051.4,837.155 C3051.4,838.239 3050.9,839.44 3049.89,840.757 C3048.65,842.384 3048.03,843.585 3048.03,844.36 C3048.03,846.684 3051.52,847.846 3058.49,847.846 C3074.14,847.846 3086.5,845.948 3095.57,842.152 C3105.02,838.278 3114.43,828.4 3123.8,812.518 L3126.48,807.521 C3121.98,810.93 3117.53,812.634 3113.11,812.634 C3102.11,812.634 3096.61,808.179 3096.61,799.27 C3096.61,789.663 3103.08,779.553 3116.02,768.939 C3126.17,760.727 3135.19,756.621 3143.1,756.621 C3147.05,756.621 3150.34,757.666 3152.97,759.758 C3153.9,759.061 3155.07,758.712 3156.46,758.712 C3160.18,758.712 3162.04,760.262 3162.04,763.361 M3127.87,805.081 L3149.84,764.523 C3148.13,764.136 3146.23,763.942 3144.14,763.942 C3136.63,763.942 3129.34,768.319 3122.29,777.074 C3114.08,787.3 3109.98,795.474 3109.98,801.594 C3109.98,805.623 3112.65,807.637 3117.99,807.637 C3120.55,807.637 3123.84,806.785 3127.87,805.081"/>
<path class="Note" d="M3162.85,650.479 C3167.19,647.535 3170.33,645.094 3172.26,643.157 C3175.83,639.361 3177.61,635.875 3177.61,632.698 C3177.61,629.057 3175.6,627.236 3171.57,627.236 C3163.74,627.236 3155.37,634.132 3146.47,647.922 C3143.75,652.106 3137.79,665.741 3128.57,688.828 C3135.93,696.421 3139.61,700.721 3139.61,701.728 C3139.61,703.122 3138.72,703.819 3136.94,703.819 C3135.54,703.819 3131.71,701.457 3125.43,696.731 C3118.61,712.613 3108.27,726.171 3094.4,737.404 C3080.23,748.871 3063.3,754.604 3043.62,754.604 C3036.1,754.604 3026.69,752.86 3015.38,749.374 C3006.32,746.585 3001.78,742.13 3001.78,736.01 C3001.78,726.945 3005.27,722.413 3012.24,722.413 C3016.43,722.413 3018.52,724.35 3018.52,728.224 C3018.52,729.463 3017.55,730.78 3015.61,732.175 C3014.6,732.872 3014.1,734.228 3014.1,736.242 C3014.1,738.644 3016.77,741.123 3022.12,743.68 C3027.93,746.469 3036.45,747.863 3047.69,747.863 C3062.17,747.863 3076.16,741.588 3089.64,729.037 C3101.88,717.649 3110.67,704.401 3116.02,689.293 C3113.93,687.589 3111.68,685.729 3109.28,683.715 C3101.84,679.299 3098.12,674.767 3098.12,670.118 C3098.12,668.181 3099.4,667.213 3101.96,667.213 C3105.37,667.213 3109.98,670.118 3115.79,675.929 C3117.03,677.168 3118.19,678.331 3119.27,679.415 C3121.98,671.978 3126.32,662.526 3132.29,651.06 C3143.06,630.297 3156.15,619.915 3171.57,619.915 C3177.07,619.915 3181.41,620.961 3184.58,623.053 C3187.76,625.145 3189.35,628.011 3189.35,631.652 C3189.35,637.463 3187.22,642.383 3182.96,646.411 C3178.54,650.595 3173.93,652.687 3169.13,652.687 C3164.94,652.687 3162.85,651.951 3162.85,650.479"/>
<path class="Note" d="M3720.33,918.353 C3724.67,915.409 3727.81,912.968 3729.74,911.031 C3733.31,907.235 3735.09,903.749 3735.09,900.572 C3735.09,896.931 3733.08,895.11 3729.05,895.11 C3721.22,895.11 3712.85,902.006 3703.95,915.796 C3701.23,919.98 3695.27,933.615 3686.05,956.702 C3693.41,964.295 3697.09,968.595 3697.09,969.602 C3697.09,970.996 3696.2,971.693 3694.42,971.693 C3693.02,971.693 3689.19,969.331 3682.91,964.605 C3676.09,980.487 3665.75,994.045 3651.88,1005.28 C3637.71,1016.74 3620.78,1022.48 3601.1,1022.48 C3593.58,1022.48 3584.17,1020.73 3572.86,1017.25 C3563.79,1014.46 3559.26,1010 3559.26,1003.88 C3559.26,994.819 3562.75,990.287 3569.72,990.287 C3573.91,990.287 3576,992.224 3576,996.098 C3576,997.337 3575.03,998.654 3573.09,1000.05 C3572.08,1000.75 3571.58,1002.1 3571.58,1004.12 C3571.58,1006.52 3574.25,1009 3579.6,1011.55 C3585.41,1014.34 3593.93,1015.74 3605.17,1015.74 C3619.65,1015.74 3633.64,1009.46 3647.12,996.911 C3659.36,985.523 3668.15,972.275 3673.5,957.167 C3671.41,955.463 3669.16,953.603 3666.76,951.589 C3659.32,947.173 3655.6,942.641 3655.6,937.992 C3655.6,936.055 3656.88,935.087 3659.44,935.087 C3662.85,935.087 3667.46,937.992 3673.27,943.803 C3674.51,945.042 3675.67,946.205 3676.75,947.289 C3679.46,939.852 3683.8,930.4 3689.77,918.934 C3700.54,898.171 3713.63,887.789 3729.05,887.789 C3734.55,887.789 3738.89,888.835 3742.06,890.927 C3745.24,893.019 3746.83,895.885 3746.83,899.526 C3746.83,905.337 3744.7,910.257 3740.44,914.285 C3736.02,918.469 3731.41,920.561 3726.61,920.561 C3722.42,920.561 3720.33,919.825 3720.33,918.353"/>
<path class="Note" d="M3720.33,561.187 C3724.67,558.243 3727.81,555.803 3729.74,553.866 C3733.31,550.07 3735.09,546.583 3735.09,543.407 C3735.09,539.766 3733.08,537.945 3729.05,537.945 C3721.22,537.945 3712.85,544.84 3703.95,558.631 C3701.23,562.814 3695.27,576.45 3686.05,599.537 C3693.41,607.129 3697.09,611.429 3697.09,612.436 C3697.09,613.831 3696.2,614.528 3694.42,614.528 C3693.02,614.528 3689.19,612.165 3682.91,607.439 C3676.09,623.321 3665.75,636.879 3651.88,648.113 C3637.71,659.579 3620.78,665.312 3601.1,665.312 C3593.58,665.312 3584.17,663.569 3572.86,660.083 C3563.79,657.294 3559.26,652.839 3559.26,646.719 C3559.26,637.654 3562.75,633.122 3569.72,633.122 C3573.91,633.122 3576,635.059 3576,638.932 C3576,640.172 3575.03,641.489 3573.09,642.884 C3572.08,643.581 3571.58,644.937 3571.58,646.951 C3571.58,649.353 3574.25,651.832 3579.6,654.388 C3585.41,657.178 3593.93,658.572 3605.17,658.572 C3619.65,658.572 3633.64,652.297 3647.12,639.746 C3659.36,628.357 3668.15,615.109 3673.5,600.002 C3671.41,598.297 3669.16,596.438 3666.76,594.424 C3659.32,590.008 3655.6,585.475 3655.6,580.827 C3655.6,578.89 3656.88,577.922 3659.44,577.922 C3662.85,577.922 3667.46,580.827 3673.27,586.638 C3674.51,587.877 3675.67,589.039 3676.75,590.124 C3679.46,582.686 3683.8,573.235 3689.77,561.768 C3700.54,541.005 3713.63,530.624 3729.05,530.624 C3734.55,530.624 3738.89,531.67 3742.06,533.762 C3745.24,535.853 3746.83,538.72 3746.83,542.361 C3746.83,548.172 3744.7,553.091 3740.44,557.12 C3736.02,561.304 3731.41,563.395 3726.61,563.395 C3722.42,563.395 3720.33,562.659 3720.33,561.187"/>
<path class="Note" d="M3647.7,821.118 C3643.52,821.118 3641.42,819.22 3641.42,815.423 C3641.42,808.993 3642.39,804.267 3644.33,801.246 C3652.39,789.315 3669.9,767.002 3696.86,734.308 C3709.02,719.511 3724.71,712.112 3743.92,712.112 C3751.36,712.112 3756.51,713.158 3759.38,715.249 C3763.79,718.503 3766,722.416 3766,726.987 C3766,731.79 3762.13,737.136 3754.38,743.024 C3747.02,748.602 3740.05,751.391 3733.46,751.391 C3730.91,751.391 3729.63,751.12 3729.63,750.578 C3729.63,749.803 3730.87,748.989 3733.35,748.137 C3736.68,746.898 3740.24,744.38 3744.04,740.583 C3748.38,736.167 3750.55,732.178 3750.55,728.614 C3750.55,726.212 3748.88,723.927 3745.55,721.757 C3742.6,719.898 3737.84,718.968 3731.25,718.968 C3721.65,718.968 3709.52,728.652 3694.88,748.021 C3685.12,760.959 3677.22,772.348 3671.17,782.187 C3674.12,780.56 3677.64,778.584 3681.75,776.26 C3686.78,773.394 3691.12,771.96 3694.76,771.96 C3703.83,771.96 3708.36,775.214 3708.36,781.722 C3708.36,788.152 3704.64,795.203 3697.21,802.873 C3691.94,808.296 3689.3,812.324 3689.3,814.958 C3689.3,817.67 3691.94,819.026 3697.21,819.026 C3699.84,819.026 3702.55,818.096 3705.34,816.237 C3708.13,814.455 3710.18,813.564 3711.5,813.564 C3712.58,813.564 3713.13,814.261 3713.13,815.656 C3713.13,817.902 3710.96,820.265 3706.62,822.745 C3699.34,826.928 3693.49,829.02 3689.07,829.02 C3681.25,829.02 3677.33,824.836 3677.33,816.469 C3677.33,811.201 3680.35,805.352 3686.4,798.921 C3690.81,794.195 3693.02,789.508 3693.02,784.86 C3693.02,780.831 3690.85,778.817 3686.51,778.817 C3684.81,778.817 3679.15,780.831 3669.55,784.86 C3666.68,789.663 3664.28,794.079 3662.34,798.108 C3654.98,813.448 3650.1,821.118 3647.7,821.118"/>
<path class="Note" d="M3720.33,471.896 C3724.67,468.952 3727.81,466.512 3729.74,464.575 C3733.31,460.778 3735.09,457.292 3735.09,454.116 C3735.09,450.474 3733.08,448.654 3729.05,448.654 C3721.22,448.654 3712.85,455.549 3703.95,469.339 C3701.23,473.523 3695.27,487.158 3686.05,510.246 C3693.41,517.838 3697.09,522.138 3697.09,523.145 C3697.09,524.54 3696.2,525.237 3694.42,525.237 C3693.02,525.237 3689.19,522.874 3682.91,518.148 C3676.09,534.03 3665.75,547.588 3651.88,558.822 C3637.71,570.288 3620.78,576.021 3601.1,576.021 C3593.58,576.021 3584.17,574.278 3572.86,570.791 C3563.79,568.002 3559.26,563.548 3559.26,557.427 C3559.26,548.363 3562.75,543.831 3569.72,543.831 C3573.91,543.831 3576,545.767 3576,549.641 C3576,550.881 3575.03,552.198 3573.09,553.592 C3572.08,554.29 3571.58,555.645 3571.58,557.66 C3571.58,560.061 3574.25,562.541 3579.6,565.097 C3585.41,567.886 3593.93,569.281 3605.17,569.281 C3619.65,569.281 3633.64,563.005 3647.12,550.455 C3659.36,539.066 3668.15,525.818 3673.5,510.71 C3671.41,509.006 3669.16,507.147 3666.76,505.132 C3659.32,500.716 3655.6,496.184 3655.6,491.536 C3655.6,489.599 3656.88,488.63 3659.44,488.63 C3662.85,488.63 3667.46,491.536 3673.27,497.346 C3674.51,498.586 3675.67,499.748 3676.75,500.832 C3679.46,493.395 3683.8,483.943 3689.77,472.477 C3700.54,451.714 3713.63,441.332 3729.05,441.332 C3734.55,441.332 3738.89,442.378 3742.06,444.47 C3745.24,446.562 3746.83,449.429 3746.83,453.07 C3746.83,458.88 3744.7,463.8 3740.44,467.829 C3736.02,472.012 3731.41,474.104 3726.61,474.104 C3722.42,474.104 3720.33,473.368 3720.33,471.896"/>
<path class="Note" d="M3719.52,674.069 C3719.52,682.979 3709.37,702.541 3689.07,732.756 C3681.01,744.764 3669.43,753.558 3654.32,759.136 C3643.17,763.319 3630.27,765.411 3615.62,765.411 C3610.9,765.411 3606.72,764.443 3603.07,762.506 C3599.05,760.414 3597.03,758.129 3597.03,755.65 C3597.03,749.219 3600.48,746.004 3607.37,746.004 C3608.38,746.004 3608.88,746.624 3608.88,747.863 C3608.88,748.948 3608.38,750.149 3607.37,751.466 C3606.13,753.093 3605.51,754.294 3605.51,755.068 C3605.51,757.393 3609,758.555 3615.97,758.555 C3631.62,758.555 3643.98,756.657 3653.04,752.86 C3662.5,748.987 3671.91,739.109 3681.28,723.227 L3683.96,718.23 C3679.46,721.638 3675.01,723.343 3670.59,723.343 C3659.59,723.343 3654.09,718.888 3654.09,709.979 C3654.09,700.372 3660.56,690.262 3673.5,679.648 C3683.65,671.435 3692.67,667.329 3700.58,667.329 C3704.53,667.329 3707.82,668.375 3710.45,670.467 C3711.38,669.77 3712.54,669.421 3713.94,669.421 C3717.66,669.421 3719.52,670.971 3719.52,674.069 M3685.35,715.789 L3707.32,675.232 C3705.61,674.844 3703.71,674.651 3701.62,674.651 C3694.11,674.651 3686.82,679.028 3679.77,687.782 C3671.56,698.009 3667.46,706.182 3667.46,712.303 C3667.46,716.332 3670.13,718.346 3675.47,718.346 C3678.03,718.346 3681.32,717.494 3685.35,715.789"/>
<path class="Clef" transform="matrix(2.3811,0,0,2.3811,212.156,2158.79)" d="M25.4,-25.1 C17.8,-25.1 11.7,-20.7 11.6,-20.7 C5.8,-16.4 3.5,-11.3 2.6,-7.8 C2.1,-6 1.9,-4.2 1.9,-2.5 C1.9,-0.1 2.3,2.1 3.2,4 C4.4,6.7 6.7,8.6 9.7,9.6 C10.9,10 12.2,10.2 13.5,10.2 C15.7,10.2 18,9.6 19.9,8.5 C23,6.8 24.9,3.2 24.9,-0.7 C24.9,-4.2 23.1,-7.4 20.1,-9.3 C18,-10.7 16,-11.1 14.3,-11.1 C13.1,-11.1 12,-10.9 11.1,-10.6 C10.1,-10.2 8.4,-9.2 7.6,-8.5 C7.9,-10.4 9.1,-13.3 10.2,-14.9 C11.3,-16.5 13.5,-18.5 15.2,-19.4 C17.7,-20.8 20.9,-21.4 24.4,-21.4 C34.6,-21.4 39.6,-13.2 39.6,3.6 C39.6,12.9 36.1,21.8 33.1,27.7 C29.8,34.3 25.4,40.6 21.5,44.1 C11.1,53.6 1.3,58.1 1.2,58.1 C1.2,58.1 -0.3,59 0.1,60.5 C0.4,61.5 1.3,61.7 1.9,61.7 C2,61.7 2.3,61.6 2.4,61.6 C2.5,61.6 13.9,56.9 23,49.8 C28.1,46.1 32.7,42.1 36.7,37.8 C40.3,33.9 43.4,29.7 45.9,25.5 C50.3,18 52.8,10.2 52.8,3.5 C52.8,-4.8 50.6,-11.7 46.5,-16.6 C41.8,-22.2 34.7,-25.1 25.4,-25.1 M56.8,-12.4 C56.8,-9.6 59,-7.4 61.6,-7.4 C64.2,-7.4 66.4,-9.6 66.4,-12.4 C66.4,-15.2 64.2,-17.5 61.6,-17.5 C59,-17.5 56.8,-15.2 56.8,-12.4 M56.8,12.3 C56.8,15.1 59,17.4 61.6,17.4 C64.2,17.4 66.4,15.1 66.4,12.3 C66.4,9.5 64.2,7.2 61.6,7.2 C59,7.2 56.8,9.5 56.8,12.3"/>
<path class="Clef" transform="matrix(2.3811,0,0,2.3811,212.156,1570.39)" d="M63.37,-5.89004 C62.14,-11.32 59.5,-15.14 58.72,-16.1801 C55.5301,-20.45 51.52,-23.3 46.8301,-24.65 C43.72,-25.54 40.72,-25.65 38.3,-25.47 C37.2601,-31.4801 36.2601,-37.3601 35.35,-42.8101 C40.79,-48.97 44.42,-54.77 46.69,-59.07 C50.1601,-65.65 51.3101,-70.2301 51.3601,-70.4301 C53.0801,-75.64 53.44,-83.34 52.34,-91.55 C51.3301,-99.1 49.24,-105.81 46.89,-109.06 C45.8601,-110.49 44.8101,-111.22 43.77,-111.22 C42.55,-111.22 40.04,-109.98 37.15,-107.21 C34.85,-105.01 31.5801,-101.12 29.02,-95.1101 C26.02,-88.05 25.8101,-78.5601 26.1601,-71.84 C26.54,-64.57 27.65,-58.8801 27.6601,-58.8301 C27.6801,-58.74 27.94,-57.24 28.39,-54.67 C28.1601,-54.44 27.92,-54.22 27.67,-53.9801 C26.6301,-52.9801 25.44,-51.84 24.0601,-50.4601 C23.2,-49.6 22.25,-48.69 21.25,-47.72 C12.79,-39.57 0,-27.25 0,-8.1 C0,-3.4 0.9,1.01992 2.68008,5.02998 C4.27002,8.62998 6.57002,11.91 9.5,14.78 C17.2301,22.33 27.82,25.5399 34.8801,25.38 C37.8301,25.31 40.4601,25.0699 42.85,24.6199 C44.6801,34.2199 45.82,41.25 45.8601,46.5899 C45.9,53.1 44.25,57.0699 40.35,59.8399 C37.92,61.5699 35.1101,62.5199 32.0101,62.6699 C29.42,62.7899 27.1601,62.3199 25.7301,61.91 L25.72,61.91 C25.72,61.91 25.4301,61.83 25.42,61.63 C25.4101,61.45 25.7601,61.4 25.77,61.4 L25.79,61.4 C27.7101,60.96 31.2801,59.73 33.64,56.43 C35.44,53.91 36.3101,49.2899 34.47,45.35 C33.3601,42.96 30.85,40.01 25.2301,39.56 C22.74,39.36 20.47,39.8699 18.47,41.0699 C16.6601,42.15 15.1601,43.7899 14.1101,45.7899 C11.65,50.4899 12.1101,56.2199 15.24,60.06 C18.2,63.68 22.82,65.9899 28.25,66.5699 C29.1,66.66 29.95,66.7 30.8,66.7 C31.5101,66.7 32.22,66.6699 32.92,66.61 C31.72,66.9399 30.64,67.4899 29.77,68.25 C28.2801,69.5399 27.44,71.38 27.44,73.41 C27.44,75.28 28.0601,76.65 29.55,78.0399 C28.4101,78.5 27.55,78.98 26.79,79.56 C25.25,80.73 24.34,82.46 24.34,84.1899 C24.34,87.45 27.3,89.63 31.72,89.63 C37.1301,89.63 40.9101,86.63 40.9101,82.35 C40.9101,80.1199 39.9101,78.18 38.0801,76.83 C41.0101,75.6199 42.37,73.9399 42.37,71.56 C42.39,70.05 41.69,68.61 40.49,67.6899 C39.2801,66.7399 37.62,66.2399 35.69,66.2399 L35.5101,66.2399 C38.2801,65.7 40.92,64.7 43.2101,63.28 C46.87,60.71 48.99,56.73 49.67,51.1 C50.2301,46.46 49.84,40.55 48.44,32.48 C48.0801,30.3899 47.54,27.36 46.8801,23.6 C52.6301,21.68 56.79,18.11 60.5601,12.26 C63.85,6.51992 64.8,0.419922 63.37,-5.89004 M32.39,87.5399 C30.19,87.5399 28.7301,86.1199 28.7301,84.01 C28.7301,82.11 29.65,80.5 31.32,79.4699 C31.6801,79.66 31.77,79.71 32.1101,79.88 C33.3,80.48 33.3,80.48 33.55,80.63 L33.5601,80.6399 C35.47,81.73 36.25,82.76 36.25,84.18 C36.24,86.0899 34.59,87.5399 32.39,87.5399 M38.3101,71.63 C38.3101,73.2699 37.7301,74.3399 36.1801,75.53 C34.74,74.78 34.35,74.56 33.9801,74.3399 L33.8801,74.28 C32.3301,73.3399 31.85,72.66 31.85,71.4 C31.85,69.6 33.2301,68.3399 35.19,68.3399 C37.17,68.35 38.3101,69.55 38.3101,71.63 M33.15,-83.8101 C34.9301,-89.55 37.67,-92.8 39.6601,-94.5301 C41.4101,-96.05 43.0601,-96.7601 43.9801,-96.7601 C44.12,-96.7601 44.24,-96.74 44.34,-96.7101 C44.8,-96.57 45.3301,-96 45.8,-95.1301 C48.1101,-90.84 47.37,-84.1301 46.0301,-79.69 C44.4,-74.29 41.4801,-68.6801 32.69,-59.0601 C32.52,-60.17 32.3601,-61.22 32.2101,-62.2 C30.95,-70.49 31.27,-77.7601 33.15,-83.8101 M29.15,20.31 C24.5101,19.0899 20.0801,16.5899 16.32,13.0899 C15.0101,11.86 13.14,9.68994 11.67,6.3 C10.3101,3.13994 9.65,-0.290039 9.7,-3.88008 C9.77002,-8.57002 11.0801,-13.39 13.59,-18.1801 C16.5101,-23.7601 21.07,-29.29 27.1301,-34.62 C28.5801,-35.9 29.95,-37.1801 31.24,-38.4601 C32,-34.2 32.8301,-29.5101 33.7101,-24.6301 C29.8601,-23.3601 25.1101,-20.2101 22,-14.5601 C18.47,-7.99004 18.6101,-2.47002 19.34,1.00996 C20.2801,5.46992 22.8101,9.22998 26.27,11.3199 C27.2,11.88 31.3301,14.01 33.17,13.43 C33.54,13.31 33.8101,13.0899 33.95,12.76 C34.4601,11.5899 33.44,10.95 31.8801,9.98994 C31.2801,9.61992 30.6101,9.2 29.8801,8.66992 C26.5601,6.17998 25.1101,1.72998 26.1801,-2.65 C26.7601,-5.05 28.04,-7.21006 29.8801,-8.91006 C31.55,-10.4601 33.59,-11.5601 35.97,-12.2 C38.0101,-0.960059 40.07,10.1899 41.7101,18.55 C41.84,19.2399 41.9801,19.91 42.1101,20.58 C37.7101,21.51 33.37,21.4199 29.15,20.31 M54.9,10.1 C53.7301,13.28 51.27,17.35 46.14,19.41 C46.07,18.9899 45.99,18.56 45.9101,18.13 C44.3601,9.36992 42.4301,-1.61006 40.47,-12.87 C50.82,-13.35 55.09,-5.91006 55.9801,-1.08008 C56.45,1.45 56.45,5.88994 54.9,10.1"/>
<path class="KeySig" transform="matrix(2.3811,0,0,2.3811,2289.3,2277.85)" d="M20.1,-7.9 C19.5,-11.8 17.1,-15.5 12,-15.5 C7,-15.5 4.1,-12.4 3.6,-11.8 L4,-43.9 C4,-44.7 3.4,-45.3 2.6,-45.3 L1.4,-45.3 C0.6,-45.3 0,-44.7 0,-43.9 L0.5,16.2 C0.5,17 1.1,17.6 1.9,17.6 C2.1,17.6 2.5,17.5 2.7,17.4 C3.1,17.2 9.6,14 15,7.9 C18.8,3.6 20.3,-1.3 20.3,-5.4 C20.3,-6.3 20.2,-7.1 20.1,-7.9 M13.2,-4 C13.2,-2.5 12.8,2.1 10.3,5.9 C8.6,8.5 5.2,11.2 3.3,12.7 L3.6,-6.8 C3.8,-7.7 5.3,-10.6 9.3,-10.6 C12.9,-10.6 13.2,-7.2 13.2,-5.1 L13.2,-4 "/>
<path class="KeySig" transform="matrix(2.3811,0,0,2.3811,2289.3,1510.87)" d="M20.1,-7.9 C19.5,-11.8 17.1,-15.5 12,-15.5 C7,-15.5 4.1,-12.4 3.6,-11.8 L4,-43.9 C4,-44.7 3.4,-45.3 2.6,-45.3 L1.4,-45.3 C0.6,-45.3 0,-44.7 0,-43.9 L0.5,16.2 C0.5,17 1.1,17.6 1.9,17.6 C2.1,17.6 2.5,17.5 2.7,17.4 C3.1,17.2 9.6,14 15,7.9 C18.8,3.6 20.3,-1.3 20.3,-5.4 C20.3,-6.3 20.2,-7.1 20.1,-7.9 M13.2,-4 C13.2,-2.5 12.8,2.1 10.3,5.9 C8.6,8.5 5.2,11.2 3.3,12.7 L3.6,-6.8 C3.8,-7.7 5.3,-10.6 9.3,-10.6 C12.9,-10.6 13.2,-7.2 13.2,-5.1 L13.2,-4 "/>
<path class="FiguredBass" d="M642.832,2472.56 C638.256,2472.56 635.21,2474.4 633.694,2478.08 C632.179,2481.76 631.421,2486.97 631.421,2493.71 L631.421,2504.66 C634.637,2503.36 637.421,2502.68 639.771,2502.62 C647.811,2502.62 654.135,2504.4 658.743,2507.95 C663.351,2511.51 665.655,2516.8 665.655,2523.82 C665.655,2530.84 663.32,2536.14 658.65,2539.73 C653.981,2543.32 647.688,2545.11 639.771,2545.11 C631.669,2545.11 625.329,2541.35 620.752,2533.84 C616.176,2526.32 613.887,2517.4 613.887,2507.07 C613.887,2496.81 616.547,2487.9 621.866,2480.35 C627.185,2472.81 634.174,2469.04 642.832,2469.04 C648.523,2469.04 653.44,2470.47 657.583,2473.35 C661.727,2476.23 663.799,2480.01 663.799,2484.71 C663.799,2487.44 662.81,2489.79 660.831,2491.76 C658.851,2493.74 656.486,2494.73 653.733,2494.73 C650.981,2494.73 648.615,2493.74 646.636,2491.76 C644.657,2489.79 643.667,2487.44 643.667,2484.71 C643.667,2482.05 644.657,2479.7 646.636,2477.66 C647.317,2476.86 648.275,2476.18 649.512,2475.62 C649.203,2474.82 648.584,2474.2 647.657,2473.77 C646.296,2472.96 644.688,2472.56 642.832,2472.56 M647.378,2510.5 C646.265,2507.6 643.822,2506.14 640.049,2506.14 C636.276,2506.14 633.942,2507.6 633.045,2510.5 C632.148,2513.41 631.7,2517.83 631.7,2523.77 C631.7,2530.76 632.148,2535.46 633.045,2537.87 C633.942,2540.29 636.276,2541.49 640.049,2541.49 C643.822,2541.49 646.265,2540.04 647.378,2537.13 C648.492,2534.22 649.048,2529.79 649.048,2523.82 C649.048,2517.85 648.492,2513.41 647.378,2510.5"/>
<path class="FiguredBass" d="M620.196,2574.79 C620.196,2574.79 621.68,2575 624.649,2575.43 C625.948,2575.62 627.401,2575.81 629.009,2575.99 C633.277,2576.49 637.39,2576.73 641.348,2576.73 C645.306,2576.73 649.481,2576.49 653.872,2575.99 C655.604,2575.81 657.12,2575.62 658.418,2575.43 L662.964,2574.79 C663.892,2574.79 664.588,2575.09 665.052,2575.71 C665.516,2576.33 665.469,2576.83 664.913,2577.2 C655.45,2586.66 642.121,2591.39 624.927,2591.39 C624.247,2591.39 623.644,2591.64 623.118,2592.13 C622.592,2592.63 622.33,2593.25 622.33,2593.99 L622.33,2608.55 C626.721,2604.23 632.04,2602.06 638.287,2602.06 C647.317,2602.06 654.29,2604.09 659.207,2608.14 C664.124,2612.19 666.582,2618.33 666.582,2626.55 C666.582,2633.54 663.799,2639.34 658.233,2643.95 C652.666,2648.56 646.018,2650.86 638.287,2650.86 C631.607,2650.86 625.809,2649.34 620.892,2646.31 C615.975,2643.28 613.516,2639.08 613.516,2633.7 C613.516,2630.97 614.506,2628.61 616.485,2626.6 C618.464,2624.59 620.83,2623.58 623.582,2623.58 C626.334,2623.58 628.669,2624.57 630.586,2626.55 C632.504,2628.53 633.462,2630.91 633.462,2633.7 C633.462,2634.93 632.442,2636.28 630.401,2637.73 C628.36,2639.19 627.339,2640.53 627.339,2641.77 C627.339,2645.48 630.988,2647.33 638.287,2647.33 C645.399,2647.33 648.956,2640.41 648.956,2626.55 C648.956,2613.19 645.399,2606.48 638.287,2606.42 C631.916,2606.42 627.463,2607.72 624.927,2610.32 C622.391,2612.91 620.814,2614.21 620.196,2614.21 C618.65,2614.21 617.907,2613.44 617.969,2611.89 L617.969,2577.2 C617.969,2576.52 618.186,2575.94 618.619,2575.48 C619.052,2575.02 619.577,2574.79 620.196,2574.79"/>
<path class="FiguredBass" d="M2526.6,2472.56 C2522.02,2472.56 2518.98,2474.4 2517.46,2478.08 C2515.95,2481.76 2515.19,2486.97 2515.19,2493.71 L2515.19,2504.66 C2518.41,2503.36 2521.19,2502.68 2523.54,2502.62 C2531.58,2502.62 2537.9,2504.4 2542.51,2507.95 C2547.12,2511.51 2549.42,2516.8 2549.42,2523.82 C2549.42,2530.84 2547.09,2536.14 2542.42,2539.73 C2537.75,2543.32 2531.46,2545.11 2523.54,2545.11 C2515.44,2545.11 2509.1,2541.35 2504.52,2533.84 C2499.94,2526.32 2497.66,2517.4 2497.66,2507.07 C2497.66,2496.81 2500.31,2487.9 2505.63,2480.35 C2510.95,2472.81 2517.94,2469.04 2526.6,2469.04 C2532.29,2469.04 2537.21,2470.47 2541.35,2473.35 C2545.5,2476.23 2547.57,2480.01 2547.57,2484.71 C2547.57,2487.44 2546.58,2489.79 2544.6,2491.76 C2542.62,2493.74 2540.25,2494.73 2537.5,2494.73 C2534.75,2494.73 2532.38,2493.74 2530.4,2491.76 C2528.42,2489.79 2527.44,2487.44 2527.44,2484.71 C2527.44,2482.05 2528.42,2479.7 2530.4,2477.66 C2531.08,2476.86 2532.04,2476.18 2533.28,2475.62 C2532.97,2474.82 2532.35,2474.2 2531.42,2473.77 C2530.06,2472.96 2528.46,2472.56 2526.6,2472.56 M2531.15,2510.5 C2530.03,2507.6 2527.59,2506.14 2523.82,2506.14 C2520.04,2506.14 2517.71,2507.6 2516.81,2510.5 C2515.92,2513.41 2515.47,2517.83 2515.47,2523.77 C2515.47,2530.76 2515.92,2535.46 2516.81,2537.87 C2517.71,2540.29 2520.04,2541.49 2523.82,2541.49 C2527.59,2541.49 2530.03,2540.04 2531.15,2537.13 C2532.26,2534.22 2532.82,2529.79 2532.82,2523.82 C2532.82,2517.85 2532.26,2513.41 2531.15,2510.5"/>
<path class="FiguredBass" d="M2503.96,2574.79 C2503.96,2574.79 2505.45,2575 2508.42,2575.43 C2509.72,2575.62 2511.17,2575.81 2512.78,2575.99 C2517.04,2576.49 2521.16,2576.73 2525.12,2576.73 C2529.07,2576.73 2533.25,2576.49 2537.64,2575.99 C2539.37,2575.81 2540.89,2575.62 2542.19,2575.43 L2546.73,2574.79 C2547.66,2574.79 2548.36,2575.09 2548.82,2575.71 C2549.28,2576.33 2549.24,2576.83 2548.68,2577.2 C2539.22,2586.66 2525.89,2591.39 2508.7,2591.39 C2508.01,2591.39 2507.41,2591.64 2506.89,2592.13 C2506.36,2592.63 2506.1,2593.25 2506.1,2593.99 L2506.1,2608.55 C2510.49,2604.23 2515.81,2602.06 2522.05,2602.06 C2531.08,2602.06 2538.06,2604.09 2542.97,2608.14 C2547.89,2612.19 2550.35,2618.33 2550.35,2626.55 C2550.35,2633.54 2547.57,2639.34 2542,2643.95 C2536.43,2648.56 2529.79,2650.86 2522.05,2650.86 C2515.37,2650.86 2509.58,2649.34 2504.66,2646.31 C2499.74,2643.28 2497.28,2639.08 2497.28,2633.7 C2497.28,2630.97 2498.27,2628.61 2500.25,2626.6 C2502.23,2624.59 2504.6,2623.58 2507.35,2623.58 C2510.1,2623.58 2512.44,2624.57 2514.35,2626.55 C2516.27,2628.53 2517.23,2630.91 2517.23,2633.7 C2517.23,2634.93 2516.21,2636.28 2514.17,2637.73 C2512.13,2639.19 2511.11,2640.53 2511.11,2641.77 C2511.11,2645.48 2514.76,2647.33 2522.05,2647.33 C2529.17,2647.33 2532.72,2640.41 2532.72,2626.55 C2532.72,2613.19 2529.17,2606.48 2522.05,2606.42 C2515.68,2606.42 2511.23,2607.72 2508.7,2610.32 C2506.16,2612.91 2504.58,2614.21 2503.96,2614.21 C2502.42,2614.21 2501.68,2613.44 2501.74,2611.89 L2501.74,2577.2 C2501.74,2576.52 2501.95,2575.94 2502.39,2575.48 C2502.82,2575.02 2503.35,2574.79 2503.96,2574.79"/>
<path class="FiguredBass" d="M3107.53,2535.46 L3107.53,2554.85 C3107.53,2556.77 3106.56,2557.73 3104.61,2557.73 C3102.66,2557.73 3101.69,2556.77 3101.69,2554.85 L3101.69,2537.97 L3098.72,2539.17 C3098.41,2539.3 3098.01,2539.36 3097.51,2539.36 C3096.71,2539.36 3096,2539.05 3095.38,2538.43 C3094.76,2537.81 3094.45,2537.1 3094.45,2536.3 L3094.45,2526.83 C3094.45,2525.47 3095.1,2524.51 3096.4,2523.96 L3101.69,2521.73 L3101.69,2502.25 L3098.72,2503.45 C3098.53,2503.52 3098.29,2503.55 3097.98,2503.55 C3097.85,2503.55 3097.7,2503.55 3097.51,2503.55 C3096.59,2503.42 3095.84,2503.08 3095.29,2502.53 C3094.73,2501.97 3094.45,2501.32 3094.45,2500.58 L3094.45,2491.12 C3094.45,2489.82 3095.1,2488.89 3096.4,2488.33 L3101.69,2486.11 L3101.69,2466.34 C3101.69,2464.43 3102.66,2463.47 3104.61,2463.47 C3106.56,2463.47 3107.53,2464.43 3107.53,2466.34 L3107.53,2483.69 L3119.5,2478.68 L3119.5,2459.29 C3119.5,2457.38 3120.46,2456.42 3122.38,2456.42 C3124.29,2456.42 3125.25,2457.38 3125.25,2459.29 L3125.25,2476.36 L3128.5,2474.97 C3128.81,2474.85 3129.15,2474.79 3129.52,2474.79 C3130.32,2474.79 3131.05,2475.1 3131.7,2475.71 C3132.35,2476.33 3132.67,2477.04 3132.67,2477.85 L3132.67,2487.31 C3132.67,2488.67 3131.99,2489.63 3130.63,2490.19 L3125.25,2492.41 L3125.25,2511.99 L3128.5,2510.69 C3128.68,2510.63 3128.9,2510.6 3129.15,2510.6 C3129.27,2510.6 3129.4,2510.6 3129.52,2510.6 C3130.57,2510.78 3131.36,2511.12 3131.89,2511.62 C3132.41,2512.11 3132.67,2512.76 3132.67,2513.57 L3132.67,2523.03 C3132.67,2524.33 3131.99,2525.26 3130.63,2525.81 L3125.25,2528.04 L3125.25,2547.8 C3125.25,2549.72 3124.29,2550.68 3122.38,2550.68 C3120.46,2550.68 3119.5,2549.72 3119.5,2547.8 L3119.5,2530.45 L3107.53,2535.46 M3107.53,2519.32 L3119.5,2514.4 L3119.5,2494.83 L3107.53,2499.84 L3107.53,2519.32 "/>
<path class="FiguredBass" d="M642.832,1765.11 C638.256,1765.11 635.21,1766.95 633.694,1770.63 C632.179,1774.31 631.421,1779.52 631.421,1786.26 L631.421,1797.21 C634.637,1795.91 637.421,1795.23 639.771,1795.17 C647.811,1795.17 654.135,1796.94 658.743,1800.5 C663.351,1804.06 665.655,1809.34 665.655,1816.36 C665.655,1823.38 663.32,1828.69 658.65,1832.28 C653.981,1835.86 647.688,1837.66 639.771,1837.66 C631.669,1837.66 625.329,1833.9 620.752,1826.38 C616.176,1818.87 613.887,1809.95 613.887,1799.62 C613.887,1789.35 616.547,1780.45 621.866,1772.9 C627.185,1765.35 634.174,1761.58 642.832,1761.58 C648.523,1761.58 653.44,1763.02 657.583,1765.9 C661.727,1768.77 663.799,1772.56 663.799,1777.26 C663.799,1779.98 662.81,1782.33 660.831,1784.31 C658.851,1786.29 656.486,1787.28 653.733,1787.28 C650.981,1787.28 648.615,1786.29 646.636,1784.31 C644.657,1782.33 643.667,1779.98 643.667,1777.26 C643.667,1774.6 644.657,1772.25 646.636,1770.21 C647.317,1769.41 648.275,1768.73 649.512,1768.17 C649.203,1767.36 648.584,1766.75 647.657,1766.31 C646.296,1765.51 644.688,1765.11 642.832,1765.11 M647.378,1803.05 C646.265,1800.14 643.822,1798.69 640.049,1798.69 C636.276,1798.69 633.942,1800.14 633.045,1803.05 C632.148,1805.96 631.7,1810.38 631.7,1816.32 C631.7,1823.31 632.148,1828.01 633.045,1830.42 C633.942,1832.83 636.276,1834.04 640.049,1834.04 C643.822,1834.04 646.265,1832.58 647.378,1829.68 C648.492,1826.77 649.048,1822.33 649.048,1816.36 C649.048,1810.4 648.492,1805.96 647.378,1803.05"/>
<path class="FiguredBass" d="M620.196,1867.33 C620.196,1867.33 621.68,1867.55 624.649,1867.98 C625.948,1868.17 627.401,1868.35 629.009,1868.54 C633.277,1869.03 637.39,1869.28 641.348,1869.28 C645.306,1869.28 649.481,1869.03 653.872,1868.54 C655.604,1868.35 657.12,1868.17 658.418,1867.98 L662.964,1867.33 C663.892,1867.33 664.588,1867.64 665.052,1868.26 C665.516,1868.88 665.469,1869.37 664.913,1869.74 C655.45,1879.21 642.121,1883.94 624.927,1883.94 C624.247,1883.94 623.644,1884.19 623.118,1884.68 C622.592,1885.18 622.33,1885.79 622.33,1886.54 L622.33,1901.1 C626.721,1896.77 632.04,1894.61 638.287,1894.61 C647.317,1894.61 654.29,1896.63 659.207,1900.68 C664.124,1904.74 666.582,1910.87 666.582,1919.1 C666.582,1926.09 663.799,1931.89 658.233,1936.49 C652.666,1941.1 646.018,1943.41 638.287,1943.41 C631.607,1943.41 625.809,1941.89 620.892,1938.86 C615.975,1935.83 613.516,1931.62 613.516,1926.24 C613.516,1923.52 614.506,1921.16 616.485,1919.15 C618.464,1917.14 620.83,1916.13 623.582,1916.13 C626.334,1916.13 628.669,1917.12 630.586,1919.1 C632.504,1921.08 633.462,1923.46 633.462,1926.24 C633.462,1927.48 632.442,1928.83 630.401,1930.28 C628.36,1931.73 627.339,1933.08 627.339,1934.31 C627.339,1938.03 630.988,1939.88 638.287,1939.88 C645.399,1939.88 648.956,1932.95 648.956,1919.1 C648.956,1905.74 645.399,1899.03 638.287,1898.97 C631.916,1898.97 627.463,1900.27 624.927,1902.86 C622.391,1905.46 620.814,1906.76 620.196,1906.76 C618.65,1906.76 617.907,1905.99 617.969,1904.44 L617.969,1869.74 C617.969,1869.06 618.186,1868.49 618.619,1868.03 C619.052,1867.56 619.577,1867.33 620.196,1867.33"/>
<path class="FiguredBass" d="M654.707,2008.8 C654.707,2009.79 655.264,2010.75 656.377,2011.68 C657.491,2012.6 658.712,2013.48 660.042,2014.32 C661.372,2015.15 662.593,2016.73 663.706,2019.05 C664.82,2021.37 665.376,2024.29 665.376,2027.82 C665.376,2034.62 662.81,2039.88 657.676,2043.59 C652.543,2047.3 646.049,2049.16 638.194,2049.16 C631.885,2049.16 626.396,2047.58 621.726,2044.42 C617.057,2041.27 614.722,2037.13 614.722,2031.99 C614.722,2029.27 615.712,2026.91 617.691,2024.9 C619.67,2022.89 622.036,2021.88 624.788,2021.88 C627.54,2021.88 629.875,2022.87 631.792,2024.85 C633.71,2026.83 634.668,2029.21 634.668,2031.99 C634.668,2033.23 633.648,2034.58 631.607,2036.03 C629.566,2037.48 628.545,2038.83 628.545,2040.06 C628.545,2041.98 629.489,2043.39 631.375,2044.29 C633.261,2045.18 635.534,2045.63 638.194,2045.63 C641.657,2045.63 644.116,2043.91 645.569,2040.48 C647.023,2037.05 647.749,2032.83 647.749,2027.82 L647.749,2025.41 C647.749,2022.07 647.641,2019.53 647.425,2017.8 C647.208,2016.07 646.528,2014.52 645.384,2013.16 C644.24,2011.8 642.492,2011.12 640.142,2011.12 L627.989,2011.12 C626.566,2011.12 625.855,2010.35 625.855,2008.8 C625.855,2007.38 626.566,2006.67 627.989,2006.67 L640.142,2006.67 C642.678,2006.67 644.657,2005.71 646.08,2003.79 C646.574,2003.11 646.976,2002 647.286,2000.45 C647.595,1998.41 647.749,1995.47 647.749,1991.64 L647.749,1990.43 C647.749,1981.22 644.348,1976.61 637.544,1976.61 C631.545,1976.61 628.545,1978.28 628.545,1981.62 C628.545,1982.73 629.458,1983.92 631.282,1985.19 C633.107,1986.46 634.019,1987.65 634.019,1988.76 C634.019,1991.17 633.169,1993.24 631.468,1994.98 C629.767,1996.71 627.695,1997.57 625.252,1997.57 C622.809,1997.57 620.752,1996.71 619.082,1994.98 C617.413,1993.24 616.578,1991.17 616.578,1988.76 C616.578,1984 618.65,1980.19 622.793,1977.35 C626.937,1974.5 631.854,1973.08 637.544,1973.08 C645.028,1973.08 651.182,1974.52 656.006,1977.4 C660.831,1980.27 663.243,1984.62 663.243,1990.43 C663.243,1994.57 662.81,1997.79 661.944,2000.08 C661.078,2002.37 660.088,2003.76 658.975,2004.25 C657.862,2004.75 656.872,2005.32 656.006,2005.97 C655.14,2006.62 654.707,2007.56 654.707,2008.8"/>
<path class="FiguredBass" d="M2526.6,1765.11 C2522.02,1765.11 2518.98,1766.95 2517.46,1770.63 C2515.95,1774.31 2515.19,1779.52 2515.19,1786.26 L2515.19,1797.21 C2518.41,1795.91 2521.19,1795.23 2523.54,1795.17 C2531.58,1795.17 2537.9,1796.94 2542.51,1800.5 C2547.12,1804.06 2549.42,1809.34 2549.42,1816.36 C2549.42,1823.38 2547.09,1828.69 2542.42,1832.28 C2537.75,1835.86 2531.46,1837.66 2523.54,1837.66 C2515.44,1837.66 2509.1,1833.9 2504.52,1826.38 C2499.94,1818.87 2497.66,1809.95 2497.66,1799.62 C2497.66,1789.35 2500.31,1780.45 2505.63,1772.9 C2510.95,1765.35 2517.94,1761.58 2526.6,1761.58 C2532.29,1761.58 2537.21,1763.02 2541.35,1765.9 C2545.5,1768.77 2547.57,1772.56 2547.57,1777.26 C2547.57,1779.98 2546.58,1782.33 2544.6,1784.31 C2542.62,1786.29 2540.25,1787.28 2537.5,1787.28 C2534.75,1787.28 2532.38,1786.29 2530.4,1784.31 C2528.42,1782.33 2527.44,1779.98 2527.44,1777.26 C2527.44,1774.6 2528.42,1772.25 2530.4,1770.21 C2531.08,1769.41 2532.04,1768.73 2533.28,1768.17 C2532.97,1767.36 2532.35,1766.75 2531.42,1766.31 C2530.06,1765.51 2528.46,1765.11 2526.6,1765.11 M2531.15,1803.05 C2530.03,1800.14 2527.59,1798.69 2523.82,1798.69 C2520.04,1798.69 2517.71,1800.14 2516.81,1803.05 C2515.92,1805.96 2515.47,1810.38 2515.47,1816.32 C2515.47,1823.31 2515.92,1828.01 2516.81,1830.42 C2517.71,1832.83 2520.04,1834.04 2523.82,1834.04 C2527.59,1834.04 2530.03,1832.58 2531.15,1829.68 C2532.26,1826.77 2532.82,1822.33 2532.82,1816.36 C2532.82,1810.4 2532.26,1805.96 2531.15,1803.05"/>
<path class="FiguredBass" d="M2503.96,1867.33 C2503.96,1867.33 2505.45,1867.55 2508.42,1867.98 C2509.72,1868.17 2511.17,1868.35 2512.78,1868.54 C2517.04,1869.03 2521.16,1869.28 2525.12,1869.28 C2529.07,1869.28 2533.25,1869.03 2537.64,1868.54 C2539.37,1868.35 2540.89,1868.17 2542.19,1867.98 L2546.73,1867.33 C2547.66,1867.33 2548.36,1867.64 2548.82,1868.26 C2549.28,1868.88 2549.24,1869.37 2548.68,1869.74 C2539.22,1879.21 2525.89,1883.94 2508.7,1883.94 C2508.01,1883.94 2507.41,1884.19 2506.89,1884.68 C2506.36,1885.18 2506.1,1885.79 2506.1,1886.54 L2506.1,1901.1 C2510.49,1896.77 2515.81,1894.61 2522.05,1894.61 C2531.08,1894.61 2538.06,1896.63 2542.97,1900.68 C2547.89,1904.74 2550.35,1910.87 2550.35,1919.1 C2550.35,1926.09 2547.57,1931.89 2542,1936.49 C2536.43,1941.1 2529.79,1943.41 2522.05,1943.41 C2515.37,1943.41 2509.58,1941.89 2504.66,1938.86 C2499.74,1935.83 2497.28,1931.62 2497.28,1926.24 C2497.28,1923.52 2498.27,1921.16 2500.25,1919.15 C2502.23,1917.14 2504.6,1916.13 2507.35,1916.13 C2510.1,1916.13 2512.44,1917.12 2514.35,1919.1 C2516.27,1921.08 2517.23,1923.46 2517.23,1926.24 C2517.23,1927.48 2516.21,1928.83 2514.17,1930.28 C2512.13,1931.73 2511.11,1933.08 2511.11,1934.31 C2511.11,1938.03 2514.76,1939.88 2522.05,1939.88 C2529.17,1939.88 2532.72,1932.95 2532.72,1919.1 C2532.72,1905.74 2529.17,1899.03 2522.05,1898.97 C2515.68,1898.97 2511.23,1900.27 2508.7,1902.86 C2506.16,1905.46 2504.58,1906.76 2503.96,1906.76 C2502.42,1906.76 2501.68,1905.99 2501.74,1904.44 L2501.74,1869.74 C2501.74,1869.06 2501.95,1868.49 2502.39,1868.03 C2502.82,1867.56 2503.35,1867.33 2503.96,1867.33"/>
<path class="FiguredBass" d="M2538.48,2008.8 C2538.48,2009.79 2539.03,2010.75 2540.15,2011.68 C2541.26,2012.6 2542.48,2013.48 2543.81,2014.32 C2545.14,2015.15 2546.36,2016.73 2547.47,2019.05 C2548.59,2021.37 2549.14,2024.29 2549.14,2027.82 C2549.14,2034.62 2546.58,2039.88 2541.44,2043.59 C2536.31,2047.3 2529.82,2049.16 2521.96,2049.16 C2515.65,2049.16 2510.16,2047.58 2505.49,2044.42 C2500.82,2041.27 2498.49,2037.13 2498.49,2031.99 C2498.49,2029.27 2499.48,2026.91 2501.46,2024.9 C2503.44,2022.89 2505.8,2021.88 2508.56,2021.88 C2511.31,2021.88 2513.64,2022.87 2515.56,2024.85 C2517.48,2026.83 2518.44,2029.21 2518.44,2031.99 C2518.44,2033.23 2517.42,2034.58 2515.37,2036.03 C2513.33,2037.48 2512.31,2038.83 2512.31,2040.06 C2512.31,2041.98 2513.26,2043.39 2515.14,2044.29 C2517.03,2045.18 2519.3,2045.63 2521.96,2045.63 C2525.43,2045.63 2527.88,2043.91 2529.34,2040.48 C2530.79,2037.05 2531.52,2032.83 2531.52,2027.82 L2531.52,2025.41 C2531.52,2022.07 2531.41,2019.53 2531.19,2017.8 C2530.98,2016.07 2530.3,2014.52 2529.15,2013.16 C2528.01,2011.8 2526.26,2011.12 2523.91,2011.12 L2511.76,2011.12 C2510.33,2011.12 2509.62,2010.35 2509.62,2008.8 C2509.62,2007.38 2510.33,2006.67 2511.76,2006.67 L2523.91,2006.67 C2526.45,2006.67 2528.42,2005.71 2529.85,2003.79 C2530.34,2003.11 2530.74,2002 2531.05,2000.45 C2531.36,1998.41 2531.52,1995.47 2531.52,1991.64 L2531.52,1990.43 C2531.52,1981.22 2528.12,1976.61 2521.31,1976.61 C2515.31,1976.61 2512.31,1978.28 2512.31,1981.62 C2512.31,1982.73 2513.23,1983.92 2515.05,1985.19 C2516.87,1986.46 2517.79,1987.65 2517.79,1988.76 C2517.79,1991.17 2516.94,1993.24 2515.24,1994.98 C2513.53,1996.71 2511.46,1997.57 2509.02,1997.57 C2506.58,1997.57 2504.52,1996.71 2502.85,1994.98 C2501.18,1993.24 2500.35,1991.17 2500.35,1988.76 C2500.35,1984 2502.42,1980.19 2506.56,1977.35 C2510.71,1974.5 2515.62,1973.08 2521.31,1973.08 C2528.8,1973.08 2534.95,1974.52 2539.77,1977.4 C2544.6,1980.27 2547.01,1984.62 2547.01,1990.43 C2547.01,1994.57 2546.58,1997.79 2545.71,2000.08 C2544.85,2002.37 2543.86,2003.76 2542.74,2004.25 C2541.63,2004.75 2540.64,2005.32 2539.77,2005.97 C2538.91,2006.62 2538.48,2007.56 2538.48,2008.8"/>
<polyline class="FretDiagram" stroke="#fc02ff" stroke-width="4.76" stroke-linejoin="bevel" points="539.213,227.452 752.322,227.452"/>
<polyline class="FretDiagram" stroke="#fc02ff" stroke-width="4.76" stroke-linejoin="bevel" points="541.594,215.547 541.594,441.751"/>
<polyline class="FretDiagram" stroke="#fc02ff" stroke-width="4.76" stroke-linejoin="bevel" points="583.264,215.547 583.264,441.751"/>
<polyline class="FretDiagram" stroke="#fc02ff" stroke-width="4.76" stroke-linejoin="bevel" points="624.933,215.547 624.933,441.751"/>
<polyline class="FretDiagram" stroke="#fc02ff" stroke-width="4.76" stroke-linejoin="bevel" points="666.602,215.547 666.602,441.751"/>
<polyline class="FretDiagram" stroke="#fc02ff" stroke-width="4.76" stroke-linejoin="bevel" points="708.271,215.547 708.271,441.751"/>
<polyline class="FretDiagram" stroke="#fc02ff" stroke-width="4.76" stroke-linejoin="bevel" points="749.941,215.547 749.941,441.751"/>
<polyline class="FretDiagram" stroke="#fc02ff" stroke-width="4.76" stroke-linejoin="bevel" points="541.594,275.074 749.941,275.074"/>
<polyline class="FretDiagram" stroke="#fc02ff" stroke-width="4.76" stroke-linejoin="bevel" points="541.594,322.696 749.941,322.696"/>
<polyline class="FretDiagram" stroke="#fc02ff" stroke-width="4.76" stroke-linejoin="bevel" points="541.594,370.318 749.941,370.318"/>
<polyline class="FretDiagram" stroke="#fc02ff" stroke-width="4.76" stroke-linejoin="bevel" points="541.594,417.94 749.941,417.94"/>
<path class="FretDiagram" fill="#fc02ff" fill-rule="evenodd" d="M722.856,346.507 C722.856,354.562 716.326,361.091 708.271,361.091 C700.217,361.091 693.687,354.562 693.687,346.507 C693.687,338.453 700.217,331.923 708.271,331.923 C716.326,331.923 722.856,338.453 722.856,346.507"/>
<polyline class="FretDiagram" fill="none" stroke="#fc02ff" stroke-width="6.86" stroke-linecap="round" stroke-linejoin="bevel" points="524.927,163.162 558.262,196.498"/>
<polyline class="FretDiagram" fill="none" stroke="#fc02ff" stroke-width="6.86" stroke-linecap="round" stroke-linejoin="bevel" points="524.927,196.498 558.262,163.162"/>
<path class="FretDiagram" fill="none" stroke="#fc02ff" stroke-width="6.86" stroke-linecap="round" stroke-linejoin="bevel" fill-rule="evenodd" d="M599.931,179.83 C599.931,189.035 592.469,196.498 583.264,196.498 C574.058,196.498 566.596,189.035 566.596,179.83 C566.596,170.625 574.058,163.162 583.264,163.162 C592.469,163.162 599.931,170.625 599.931,179.83"/>
<polyline class="FretDiagram" fill="none" stroke="#fc02ff" stroke-width="6.86" stroke-linecap="round" stroke-linejoin="bevel" points="608.265,163.162 641.601,196.498"/>
<polyline class="FretDiagram" fill="none" stroke="#fc02ff" stroke-width="6.86" stroke-linecap="round" stroke-linejoin="bevel" points="608.265,196.498 641.601,163.162"/>
<path class="FretDiagram" fill="none" stroke="#fc02ff" stroke-width="6.86" stroke-linecap="round" stroke-linejoin="bevel" fill-rule="evenodd" d="M683.27,179.83 C683.27,189.035 675.807,196.498 666.602,196.498 C657.397,196.498 649.934,189.035 649.934,179.83 C649.934,170.625 657.397,163.162 666.602,163.162 C675.807,163.162 683.27,170.625 683.27,179.83"/>
<path class="FretDiagram" fill="none" stroke="#fc02ff" stroke-width="6.86" stroke-linecap="round" stroke-linejoin="bevel" fill-rule="evenodd" d="M766.608,179.83 C766.608,189.035 759.146,196.498 749.941,196.498 C740.735,196.498 733.273,189.035 733.273,179.83 C733.273,170.625 740.735,163.162 749.941,163.162 C759.146,163.162 766.608,170.625 766.608,179.83"/>
<polyline class="FretDiagram" fill="none" stroke="#fc02ff" stroke-width="29.17" stroke-linecap="round" stroke-linejoin="bevel" points="583.264,251.263 749.941,251.263"/>
<path class="FretDiagram" fill="#fc02ff" d="M497.776,224.475 C492.962,224.475 489.653,225.789 487.848,228.417 C486.043,231.045 485.077,234.545 484.951,238.915 L476.591,238.915 C476.907,224.411 483.937,217.16 497.681,217.16 C504.077,217.16 509.096,218.806 512.738,222.1 C516.38,225.393 518.201,229.921 518.201,235.685 C518.201,242.525 515.066,247.18 508.796,249.65 C512.849,251.043 515.762,252.99 517.536,255.492 C519.309,257.994 520.196,261.398 520.196,265.705 C520.196,272.101 518.121,277.2 513.973,281 C509.825,284.8 504.299,286.7 497.396,286.7 C483.589,286.7 476.179,279.448 475.166,264.945 L483.526,264.945 C483.842,269.821 485.141,273.431 487.421,275.775 C489.701,278.118 493.121,279.29 497.681,279.29 C502.051,279.29 505.471,278.102 507.941,275.727 C510.411,273.352 511.646,270.043 511.646,265.8 C511.646,257.63 506.991,253.545 497.681,253.545 L494.166,253.64 L493.121,253.64 L493.121,246.515 C499.137,246.388 503.396,245.628 505.898,244.235 C508.4,242.841 509.651,240.086 509.651,235.97 C509.651,232.423 508.59,229.62 506.468,227.562 C504.346,225.504 501.449,224.475 497.776,224.475"/>
<polyline class="FretDiagram" fill="#fc02ff" stroke="#fc02ff" stroke-width="4.76" stroke-linejoin="bevel" points="2422.98,227.452 2636.09,227.452"/>
<polyline class="FretDiagram" fill="#fc02ff" stroke="#fc02ff" stroke-width="4.76" stroke-linejoin="bevel" points="2425.36,215.547 2425.36,441.751"/>
<polyline class="FretDiagram" fill="#fc02ff" stroke="#fc02ff" stroke-width="4.76" stroke-linejoin="bevel" points="2467.03,215.547 2467.03,441.751"/>
<polyline class="FretDiagram" fill="#fc02ff" stroke="#fc02ff" stroke-width="4.76" stroke-linejoin="bevel" points="2508.7,215.547 2508.7,441.751"/>
<polyline class="FretDiagram" fill="#fc02ff" stroke="#fc02ff" stroke-width="4.76" stroke-linejoin="bevel" points="2550.37,215.547 2550.37,441.751"/>
<polyline class="FretDiagram" fill="#fc02ff" stroke="#fc02ff" stroke-width="4.76" stroke-linejoin="bevel" points="2592.04,215.547 2592.04,441.751"/>
<polyline class="FretDiagram" fill="#fc02ff" stroke="#fc02ff" stroke-width="4.76" stroke-linejoin="bevel" points="2633.71,215.547 2633.71,441.751"/>
<polyline class="FretDiagram" fill="#fc02ff" stroke="#fc02ff" stroke-width="4.76" stroke-linejoin="bevel" points="2425.36,275.074 2633.71,275.074"/>
<polyline class="FretDiagram" fill="#fc02ff" stroke="#fc02ff" stroke-width="4.76" stroke-linejoin="bevel" points="2425.36,322.696 2633.71,322.696"/>
<polyline class="FretDiagram" fill="#fc02ff" stroke="#fc02ff" stroke-width="4.76" stroke-linejoin="bevel" points="2425.36,370.318 2633.71,370.318"/>
<polyline class="FretDiagram" fill="#fc02ff" stroke="#fc02ff" stroke-width="4.76" stroke-linejoin="bevel" points="2425.36,417.94 2633.71,417.94"/>
<path class="FretDiagram" fill="#fc02ff" fill-rule="evenodd" d="M2606.62,298.885 C2606.62,306.94 2600.09,313.469 2592.04,313.469 C2583.98,313.469 2577.46,306.94 2577.46,298.885 C2577.46,290.83 2583.98,284.301 2592.04,284.301 C2600.09,284.301 2606.62,290.83 2606.62,298.885"/>
<polyline class="FretDiagram" fill="none" stroke="#fc02ff" stroke-width="6.86" stroke-linecap="round" stroke-linejoin="bevel" points="2408.69,163.162 2442.03,196.498"/>
<polyline class="FretDiagram" fill="none" stroke="#fc02ff" stroke-width="6.86" stroke-linecap="round" stroke-linejoin="bevel" points="2408.69,196.498 2442.03,163.162"/>
<path class="FretDiagram" fill="none" stroke="#fc02ff" stroke-width="6.86" stroke-linecap="round" stroke-linejoin="bevel" fill-rule="evenodd" d="M2483.7,179.83 C2483.7,189.035 2476.24,196.498 2467.03,196.498 C2457.83,196.498 2450.36,189.035 2450.36,179.83 C2450.36,170.625 2457.83,163.162 2467.03,163.162 C2476.24,163.162 2483.7,170.625 2483.7,179.83"/>
<polyline class="FretDiagram" fill="none" stroke="#fc02ff" stroke-width="6.86" stroke-linecap="round" stroke-linejoin="bevel" points="2492.03,163.162 2525.37,196.498"/>
<polyline class="FretDiagram" fill="none" stroke="#fc02ff" stroke-width="6.86" stroke-linecap="round" stroke-linejoin="bevel" points="2492.03,196.498 2525.37,163.162"/>
<path class="FretDiagram" fill="none" stroke="#fc02ff" stroke-width="6.86" stroke-linecap="round" stroke-linejoin="bevel" fill-rule="evenodd" d="M2567.04,179.83 C2567.04,189.035 2559.58,196.498 2550.37,196.498 C2541.16,196.498 2533.7,189.035 2533.7,179.83 C2533.7,170.625 2541.16,163.162 2550.37,163.162 C2559.58,163.162 2567.04,170.625 2567.04,179.83"/>
<path class="FretDiagram" fill="none" stroke="#fc02ff" stroke-width="6.86" stroke-linecap="round" stroke-linejoin="bevel" fill-rule="evenodd" d="M2650.38,179.83 C2650.38,189.035 2642.91,196.498 2633.71,196.498 C2624.5,196.498 2617.04,189.035 2617.04,179.83 C2617.04,170.625 2624.5,163.162 2633.71,163.162 C2642.91,163.162 2650.38,170.625 2650.38,179.83"/>
<polyline class="FretDiagram" fill="none" stroke="#fc02ff" stroke-width="29.17" stroke-linecap="round" stroke-linejoin="bevel" points="2467.03,251.263 2633.71,251.263"/>
<path class="FretDiagram" fill="#fc02ff" d="M2401.11,217.16 L2401.11,225.425 L2373.09,225.425 L2370.43,244.235 C2374.17,241.511 2378.31,240.15 2382.87,240.15 C2389.33,240.15 2394.57,242.224 2398.6,246.372 C2402.62,250.52 2404.63,255.92 2404.63,262.57 C2404.63,269.663 2402.48,275.458 2398.17,279.955 C2393.86,284.451 2388.32,286.7 2381.54,286.7 C2378.95,286.7 2376.56,286.415 2374.37,285.845 C2372.19,285.275 2370.38,284.594 2368.96,283.802 C2367.53,283.01 2366.23,281.965 2365.06,280.667 C2363.89,279.369 2363,278.229 2362.4,277.247 C2361.8,276.265 2361.23,275.03 2360.69,273.542 C2360.15,272.054 2359.82,271.025 2359.69,270.455 C2359.57,269.885 2359.41,269.061 2359.22,267.985 L2367.58,267.985 C2369.54,275.521 2374.13,279.29 2381.35,279.29 C2385.91,279.29 2389.51,277.896 2392.14,275.11 C2394.76,272.323 2396.08,268.523 2396.08,263.71 C2396.08,258.706 2394.75,254.764 2392.09,251.882 C2389.43,249 2385.85,247.56 2381.35,247.56 C2378.76,247.56 2376.54,248.019 2374.7,248.937 C2372.87,249.855 2370.97,251.486 2369,253.83 L2361.31,253.83 L2366.34,217.16 L2401.11,217.16 "/>
<path class="Bracket" transform="matrix(8.6315,0,0,9.45563,76.1283,2337.37)" d="M0.92002,-50 C2.69004,-51.88 6.2,-55.8 6.2,-63 C6.2,-72.1 2.25996,-81.32 2.25996,-86.97 C2.25996,-93.06 5.84004,-98.84 5.95,-99 C6.05996,-99.16 6.05,-99.39 5.94004,-99.46 C5.82998,-99.53 5.62002,-99.47 5.49004,-99.32 C5.35996,-99.17 0,-93.75 0,-85.6 C0,-76.75 3.5,-70.58 3.5,-59.07 C3.5,-56.89 2.55996,-53.36 0.1,-50.33 C-0.0799805,-50.17 -0.1,-49.89 0.0599609,-49.7 L0.0700195,-49.69 L0.1,-49.66 C2.55996,-46.63 3.5,-43.1 3.5,-40.92 C3.5,-29.4 0,-23.24 0,-14.39 C0,-6.25 5.35996,-0.8 5.49004,-0.659961 C5.62002,-0.52002 5.8,-0.42998 5.94004,-0.52002 C6.07998,-0.609961 6.07998,-0.77998 5.95,-0.97998 C5.82002,-1.17998 2.25996,-6.92002 2.25996,-13.01 C2.25996,-18.66 6.2,-27.9 6.2,-37 C6.2,-44.3 2.69004,-48.12 0.92002,-50"/>
</svg>
