<?xml version="1.0" encoding="UTF-8" standalone="no"?>
<svg width="4209.44px" height="2976.38px" viewBox="0 0 4209.44 2976.38"
 xmlns="http://www.w3.org/2000/svg" xmlns:xlink="http://www.w3.org/1999/xlink" version="1.2" baseProfile="tiny">
<title>Accords (32)</title>
<desc>Generated by MuseScore 3.6.2</desc>
<polyline class="StaffLines" fill="none" stroke="#000000" stroke-width="6.55" stroke-linejoin="bevel" points="153.819,562.22 4138.58,562.22"/>
<polyline class="StaffLines" fill="none" stroke="#000000" stroke-width="6.55" stroke-linejoin="bevel" points="153.819,651.511 4138.58,651.511"/>
<polyline class="StaffLines" fill="none" stroke="#000000" stroke-width="6.55" stroke-linejoin="bevel" points="153.819,740.803 4138.58,740.803"/>
<polyline class="StaffLines" fill="none" stroke="#000000" stroke-width="6.55" stroke-linejoin="bevel" points="153.819,830.094 4138.58,830.094"/>
<polyline class="StaffLines" fill="none" stroke="#000000" stroke-width="6.55" stroke-linejoin="bevel" points="153.819,919.386 4138.58,919.386"/>
<polyline class="StaffLines" fill="none" stroke="#000000" stroke-width="6.55" stroke-linejoin="bevel" points="153.819,1008.68 4138.58,1008.68"/>
<polyline class="StaffLines" fill="none" stroke="#000000" stroke-width="6.55" stroke-linejoin="bevel" points="153.819,1395.61 4138.58,1395.61"/>
<polyline class="StaffLines" fill="none" stroke="#000000" stroke-width="6.55" stroke-linejoin="bevel" points="153.819,1455.13 4138.58,1455.13"/>
<polyline class="StaffLines" fill="none" stroke="#000000" stroke-width="6.55" stroke-linejoin="bevel" points="153.819,1514.66 4138.58,1514.66"/>
<polyline class="StaffLines" fill="none" stroke="#000000" stroke-width="6.55" stroke-linejoin="bevel" points="153.819,1574.19 4138.58,1574.19"/>
<polyline class="StaffLines" fill="none" stroke="#000000" stroke-width="6.55" stroke-linejoin="bevel" points="153.819,1633.72 4138.58,1633.72"/>
<polyline class="StaffLines" fill="none" stroke="#000000" stroke-width="6.55" stroke-linejoin="bevel" points="153.819,2208.81 4138.58,2208.81"/>
<polyline class="StaffLines" fill="none" stroke="#000000" stroke-width="6.55" stroke-linejoin="bevel" points="153.819,2268.34 4138.58,2268.34"/>
<polyline class="StaffLines" fill="none" stroke="#000000" stroke-width="6.55" stroke-linejoin="bevel" points="153.819,2327.86 4138.58,2327.86"/>
<polyline class="StaffLines" fill="none" stroke="#000000" stroke-width="6.55" stroke-linejoin="bevel" points="153.819,2387.39 4138.58,2387.39"/>
<polyline class="StaffLines" fill="none" stroke="#000000" stroke-width="6.55" stroke-linejoin="bevel" points="153.819,2446.92 4138.58,2446.92"/>
<path class="Symbol" transform="matrix(2.3811,0,0,2.3811,3063.14,1455.13)" d="M0,-0.1 C0,7.7 4,14 10.4,18.1 L10.9,17.4 C7.5,14.8 6.3,13.3 5.2,10.1 C4.2,7.2 3.7,4 3.7,-0.2 C3.7,-8.1 4.8,-12.3 10.9,-17.4 L10.5,-18.1 C3.9,-13.6 0,-8.5 0,-0.1"/>
<path class="Symbol" transform="matrix(2.3811,0,0,2.3811,3177.9,1455.13)" d="M3.7,-0.2 C3.7,4 3.2,7.2 2.2,10.1 C1,13.3 -0.2,14.8 -3.6,17.4 L-3,18.1 C3.4,14.1 7.3,7.6 7.3,-0.1 C7.3,-8.4 3.4,-13.8 -3.2,-18.1 L-3.6,-17.4 C2.6,-12.4 3.7,-8.1 3.7,-0.2"/>
<path class="Symbol" transform="matrix(2.3811,0,0,2.3811,3073.98,800.33)" d="M0,-0.1 C0,7.7 4,14 10.4,18.1 L10.9,17.4 C7.5,14.8 6.3,13.3 5.2,10.1 C4.2,7.2 3.7,4 3.7,-0.2 C3.7,-8.1 4.8,-12.3 10.9,-17.4 L10.5,-18.1 C3.9,-13.6 0,-8.5 0,-0.1"/>
<path class="Symbol" transform="matrix(2.3811,0,0,2.3811,3178.99,800.33)" d="M3.7,-0.2 C3.7,4 3.2,7.2 2.2,10.1 C1,13.3 -0.2,14.8 -3.6,17.4 L-3,18.1 C3.4,14.1 7.3,7.6 7.3,-0.1 C7.3,-8.4 3.4,-13.8 -3.2,-18.1 L-3.6,-17.4 C2.6,-12.4 3.7,-8.1 3.7,-0.2"/>
<path class="Symbol" transform="matrix(2.3811,0,0,2.3811,3073.98,532.456)" d="M0,-0.1 C0,7.7 4,14 10.4,18.1 L10.9,17.4 C7.5,14.8 6.3,13.3 5.2,10.1 C4.2,7.2 3.7,4 3.7,-0.2 C3.7,-8.1 4.8,-12.3 10.9,-17.4 L10.5,-18.1 C3.9,-13.6 0,-8.5 0,-0.1"/>
<path class="Symbol" transform="matrix(2.3811,0,0,2.3811,3178.99,532.456)" d="M3.7,-0.2 C3.7,4 3.2,7.2 2.2,10.1 C1,13.3 -0.2,14.8 -3.6,17.4 L-3,18.1 C3.4,14.1 7.3,7.6 7.3,-0.1 C7.3,-8.4 3.4,-13.8 -3.2,-18.1 L-3.6,-17.4 C2.6,-12.4 3.7,-8.1 3.7,-0.2"/>
<polyline class="BarLine" fill="none" stroke="#000000" stroke-width="10.71" stroke-linejoin="bevel" points="159.176,2205.54 159.176,2450.19"/>
<polyline class="BarLine" fill="none" stroke="#000000" stroke-width="10.71" stroke-linejoin="bevel" points="1661.23,2205.54 1661.23,2450.19"/>
<polyline class="BarLine" fill="none" stroke="#000000" stroke-width="10.71" stroke-linejoin="bevel" points="2980.4,2205.54 2980.4,2450.19"/>
<polyline class="BarLine" fill="none" stroke="#000000" stroke-width="10.71" stroke-linejoin="bevel" points="4080.54,2205.54 4080.54,2450.19"/>
<polyline class="BarLine" fill="none" stroke="#000000" stroke-width="32.74" stroke-linejoin="bevel" points="4122.21,2205.54 4122.21,2450.19"/>
<polyline class="BarLine" fill="none" stroke="#000000" stroke-width="10.71" stroke-linejoin="bevel" points="159.176,1392.33 159.176,2208.81"/>
<polyline class="BarLine" fill="none" stroke="#000000" stroke-width="10.71" stroke-linejoin="bevel" points="1661.23,1392.33 1661.23,1636.99"/>
<polyline class="BarLine" fill="none" stroke="#000000" stroke-width="10.71" stroke-linejoin="bevel" points="2980.4,1392.33 2980.4,1636.99"/>
<polyline class="BarLine" fill="none" stroke="#000000" stroke-width="10.71" stroke-linejoin="bevel" points="4080.54,1392.33 4080.54,1636.99"/>
<polyline class="BarLine" fill="none" stroke="#000000" stroke-width="32.74" stroke-linejoin="bevel" points="4122.21,1392.33 4122.21,1636.99"/>
<polyline class="BarLine" fill="none" stroke="#000000" stroke-width="10.71" stroke-linejoin="bevel" points="159.176,558.946 159.176,1395.61"/>
<polyline class="BarLine" fill="none" stroke="#000000" stroke-width="10.71" stroke-linejoin="bevel" points="1661.23,558.946 1661.23,1011.95"/>
<polyline class="BarLine" fill="none" stroke="#000000" stroke-width="10.71" stroke-linejoin="bevel" points="2980.4,558.946 2980.4,1011.95"/>
<polyline class="BarLine" fill="none" stroke="#000000" stroke-width="10.71" stroke-linejoin="bevel" points="4080.54,558.946 4080.54,1011.95"/>
<polyline class="BarLine" fill="none" stroke="#000000" stroke-width="32.74" stroke-linejoin="bevel" points="4122.21,558.946 4122.21,1011.95"/>
<path class="Accidental" transform="matrix(2.3811,0,0,2.3811,513.384,1603.95)" d="M23.3,-10.6 C23.9,-10.7 24.4,-11.4 24.4,-12 L24.4,-17.9 C24.4,-18.7 23.8,-19.3 23,-19.3 L22.8,-19.3 L19.5,-18.6 L19.5,-33.5 L16.7,-33.5 L16.7,-18 L7.8,-16.2 L7.8,-30.3 L5,-30.3 L5,-15.6 L1.1,-14.8 C0.5,-14.7 0,-14 0,-13.4 L0,-13.2 L0,-7.4 L0,-7.6 C0,-6.8 0.6,-6.2 1.4,-6.2 L1.7,-6.2 L5,-6.9 L5,9.6 L1.1,10.4 C0.5,10.5 0,11.2 0,11.8 L0,17.6 C0,18.4 0.6,19 1.4,19 L1.7,19 L5,18.3 L5,33.2 L7.8,33.2 L7.8,17.7 L16.7,15.9 L16.7,30 L19.5,30 L19.5,15.3 L23.3,14.6 C23.9,14.5 24.4,13.8 24.4,13.2 L24.4,7.3 C24.4,6.5 23.8,5.9 23,5.9 L22.8,5.9 L19.5,6.6 L19.5,-9.9 L23.3,-10.6 M7.8,9.1 L7.8,-7.5 L16.7,-9.3 L16.7,7.2 L7.8,9.1 "/>
<path class="Accidental" transform="matrix(2.3811,0,0,2.3811,1724.09,1514.66)" d="M20.1,-7.9 C19.5,-11.8 17.1,-15.5 12,-15.5 C7,-15.5 4.1,-12.4 3.6,-11.8 L4,-43.9 C4,-44.7 3.4,-45.3 2.6,-45.3 L1.4,-45.3 C0.6,-45.3 0,-44.7 0,-43.9 L0.5,16.2 C0.5,17 1.1,17.6 1.9,17.6 C2.1,17.6 2.5,17.5 2.7,17.4 C3.1,17.2 9.6,14 15,7.9 C18.8,3.6 20.3,-1.3 20.3,-5.4 C20.3,-6.3 20.2,-7.1 20.1,-7.9 M13.2,-4 C13.2,-2.5 12.8,2.1 10.3,5.9 C8.6,8.5 5.2,11.2 3.3,12.7 L3.6,-6.8 C3.8,-7.7 5.3,-10.6 9.3,-10.6 C12.9,-10.6 13.2,-7.2 13.2,-5.1 L13.2,-4 "/>
<path class="Note" transform="matrix(2.3811,0,0,2.3811,586.361,2208.81)" d="M18.7,-13.6 C4.9,-13.6 0,-6.6 0,-0.1 C0,6.4 4.9,13.4 18.7,13.4 C32.5,13.4 37.3,6.4 37.3,-0.1 C37.3,-6.6 32.5,-13.6 18.7,-13.6 M10.4,-4.5 C10.3,-4.9 10.3,-5.3 10.3,-5.7 C10.3,-6.5 10.5,-7.3 10.9,-8 C11.6,-9 12.8,-9.7 14.3,-10 C15.6,-10.3 16.3,-10.5 18.9,-10.5 L19,-10.5 C23,-10.5 24.3,-6.8 25.4,-3 L25.7,-2 C26.5,0.6 26.9,2.8 26.9,4.5 C26.9,5.7 26.7,6.8 26.3,7.6 C25.7,8.7 24.7,9.4 23,9.8 C22.1,10 20.6,10.1 20.6,10.1 C20.1,10.1 19.7,10.2 19.3,10.2 C16.1,10.2 14.1,9 12.7,4.7 C11.5,1 11.3,-0.1 10.4,-4.5"/>
<path class="Note" transform="matrix(2.3811,0,0,2.3811,1875.28,2238.57)" d="M18.7,-13.6 C4.9,-13.6 0,-6.6 0,-0.1 C0,6.4 4.9,13.4 18.7,13.4 C32.5,13.4 37.3,6.4 37.3,-0.1 C37.3,-6.6 32.5,-13.6 18.7,-13.6 M10.4,-4.5 C10.3,-4.9 10.3,-5.3 10.3,-5.7 C10.3,-6.5 10.5,-7.3 10.9,-8 C11.6,-9 12.8,-9.7 14.3,-10 C15.6,-10.3 16.3,-10.5 18.9,-10.5 L19,-10.5 C23,-10.5 24.3,-6.8 25.4,-3 L25.7,-2 C26.5,0.6 26.9,2.8 26.9,4.5 C26.9,5.7 26.7,6.8 26.3,7.6 C25.7,8.7 24.7,9.4 23,9.8 C22.1,10 20.6,10.1 20.6,10.1 C20.1,10.1 19.7,10.2 19.3,10.2 C16.1,10.2 14.1,9 12.7,4.7 C11.5,1 11.3,-0.1 10.4,-4.5"/>
<path class="Note" transform="matrix(2.3811,0,0,2.3811,3089.09,2327.86)" d="M18.7,-13.6 C4.9,-13.6 0,-6.6 0,-0.1 C0,6.4 4.9,13.4 18.7,13.4 C32.5,13.4 37.3,6.4 37.3,-0.1 C37.3,-6.6 32.5,-13.6 18.7,-13.6 M10.4,-4.5 C10.3,-4.9 10.3,-5.3 10.3,-5.7 C10.3,-6.5 10.5,-7.3 10.9,-8 C11.6,-9 12.8,-9.7 14.3,-10 C15.6,-10.3 16.3,-10.5 18.9,-10.5 L19,-10.5 C23,-10.5 24.3,-6.8 25.4,-3 L25.7,-2 C26.5,0.6 26.9,2.8 26.9,4.5 C26.9,5.7 26.7,6.8 26.3,7.6 C25.7,8.7 24.7,9.4 23,9.8 C22.1,10 20.6,10.1 20.6,10.1 C20.1,10.1 19.7,10.2 19.3,10.2 C16.1,10.2 14.1,9 12.7,4.7 C11.5,1 11.3,-0.1 10.4,-4.5"/>
<path class="Note" transform="matrix(2.3811,0,0,2.3811,586.361,1603.95)" d="M18.7,-13.6 C4.9,-13.6 0,-6.6 0,-0.1 C0,6.4 4.9,13.4 18.7,13.4 C32.5,13.4 37.3,6.4 37.3,-0.1 C37.3,-6.6 32.5,-13.6 18.7,-13.6 M10.4,-4.5 C10.3,-4.9 10.3,-5.3 10.3,-5.7 C10.3,-6.5 10.5,-7.3 10.9,-8 C11.6,-9 12.8,-9.7 14.3,-10 C15.6,-10.3 16.3,-10.5 18.9,-10.5 L19,-10.5 C23,-10.5 24.3,-6.8 25.4,-3 L25.7,-2 C26.5,0.6 26.9,2.8 26.9,4.5 C26.9,5.7 26.7,6.8 26.3,7.6 C25.7,8.7 24.7,9.4 23,9.8 C22.1,10 20.6,10.1 20.6,10.1 C20.1,10.1 19.7,10.2 19.3,10.2 C16.1,10.2 14.1,9 12.7,4.7 C11.5,1 11.3,-0.1 10.4,-4.5"/>
<path class="Note" transform="matrix(2.3811,0,0,2.3811,586.361,1484.9)" d="M18.7,-13.6 C4.9,-13.6 0,-6.6 0,-0.1 C0,6.4 4.9,13.4 18.7,13.4 C32.5,13.4 37.3,6.4 37.3,-0.1 C37.3,-6.6 32.5,-13.6 18.7,-13.6 M10.4,-4.5 C10.3,-4.9 10.3,-5.3 10.3,-5.7 C10.3,-6.5 10.5,-7.3 10.9,-8 C11.6,-9 12.8,-9.7 14.3,-10 C15.6,-10.3 16.3,-10.5 18.9,-10.5 L19,-10.5 C23,-10.5 24.3,-6.8 25.4,-3 L25.7,-2 C26.5,0.6 26.9,2.8 26.9,4.5 C26.9,5.7 26.7,6.8 26.3,7.6 C25.7,8.7 24.7,9.4 23,9.8 C22.1,10 20.6,10.1 20.6,10.1 C20.1,10.1 19.7,10.2 19.3,10.2 C16.1,10.2 14.1,9 12.7,4.7 C11.5,1 11.3,-0.1 10.4,-4.5"/>
<path class="Note" transform="matrix(2.3811,0,0,2.3811,668.621,1455.13)" d="M18.7,-13.6 C4.9,-13.6 0,-6.6 0,-0.1 C0,6.4 4.9,13.4 18.7,13.4 C32.5,13.4 37.3,6.4 37.3,-0.1 C37.3,-6.6 32.5,-13.6 18.7,-13.6 M10.4,-4.5 C10.3,-4.9 10.3,-5.3 10.3,-5.7 C10.3,-6.5 10.5,-7.3 10.9,-8 C11.6,-9 12.8,-9.7 14.3,-10 C15.6,-10.3 16.3,-10.5 18.9,-10.5 L19,-10.5 C23,-10.5 24.3,-6.8 25.4,-3 L25.7,-2 C26.5,0.6 26.9,2.8 26.9,4.5 C26.9,5.7 26.7,6.8 26.3,7.6 C25.7,8.7 24.7,9.4 23,9.8 C22.1,10 20.6,10.1 20.6,10.1 C20.1,10.1 19.7,10.2 19.3,10.2 C16.1,10.2 14.1,9 12.7,4.7 C11.5,1 11.3,-0.1 10.4,-4.5"/>
<path class="Note" transform="matrix(2.3811,0,0,2.3811,1793.03,1514.66)" d="M18.7,-13.6 C4.9,-13.6 0,-6.6 0,-0.1 C0,6.4 4.9,13.4 18.7,13.4 C32.5,13.4 37.3,6.4 37.3,-0.1 C37.3,-6.6 32.5,-13.6 18.7,-13.6 M10.4,-4.5 C10.3,-4.9 10.3,-5.3 10.3,-5.7 C10.3,-6.5 10.5,-7.3 10.9,-8 C11.6,-9 12.8,-9.7 14.3,-10 C15.6,-10.3 16.3,-10.5 18.9,-10.5 L19,-10.5 C23,-10.5 24.3,-6.8 25.4,-3 L25.7,-2 C26.5,0.6 26.9,2.8 26.9,4.5 C26.9,5.7 26.7,6.8 26.3,7.6 C25.7,8.7 24.7,9.4 23,9.8 C22.1,10 20.6,10.1 20.6,10.1 C20.1,10.1 19.7,10.2 19.3,10.2 C16.1,10.2 14.1,9 12.7,4.7 C11.5,1 11.3,-0.1 10.4,-4.5"/>
<path class="Note" transform="matrix(2.3811,0,0,2.3811,1875.28,1484.9)" d="M18.7,-13.6 C4.9,-13.6 0,-6.6 0,-0.1 C0,6.4 4.9,13.4 18.7,13.4 C32.5,13.4 37.3,6.4 37.3,-0.1 C37.3,-6.6 32.5,-13.6 18.7,-13.6 M10.4,-4.5 C10.3,-4.9 10.3,-5.3 10.3,-5.7 C10.3,-6.5 10.5,-7.3 10.9,-8 C11.6,-9 12.8,-9.7 14.3,-10 C15.6,-10.3 16.3,-10.5 18.9,-10.5 L19,-10.5 C23,-10.5 24.3,-6.8 25.4,-3 L25.7,-2 C26.5,0.6 26.9,2.8 26.9,4.5 C26.9,5.7 26.7,6.8 26.3,7.6 C25.7,8.7 24.7,9.4 23,9.8 C22.1,10 20.6,10.1 20.6,10.1 C20.1,10.1 19.7,10.2 19.3,10.2 C16.1,10.2 14.1,9 12.7,4.7 C11.5,1 11.3,-0.1 10.4,-4.5"/>
<path class="Note" transform="matrix(2.3811,0,0,2.3811,1875.28,1425.37)" d="M18.7,-13.6 C4.9,-13.6 0,-6.6 0,-0.1 C0,6.4 4.9,13.4 18.7,13.4 C32.5,13.4 37.3,6.4 37.3,-0.1 C37.3,-6.6 32.5,-13.6 18.7,-13.6 M10.4,-4.5 C10.3,-4.9 10.3,-5.3 10.3,-5.7 C10.3,-6.5 10.5,-7.3 10.9,-8 C11.6,-9 12.8,-9.7 14.3,-10 C15.6,-10.3 16.3,-10.5 18.9,-10.5 L19,-10.5 C23,-10.5 24.3,-6.8 25.4,-3 L25.7,-2 C26.5,0.6 26.9,2.8 26.9,4.5 C26.9,5.7 26.7,6.8 26.3,7.6 C25.7,8.7 24.7,9.4 23,9.8 C22.1,10 20.6,10.1 20.6,10.1 C20.1,10.1 19.7,10.2 19.3,10.2 C16.1,10.2 14.1,9 12.7,4.7 C11.5,1 11.3,-0.1 10.4,-4.5"/>
<path class="Note" transform="matrix(2.3811,0,0,2.3811,3089.09,1574.19)" d="M18.7,-13.6 C4.9,-13.6 0,-6.6 0,-0.1 C0,6.4 4.9,13.4 18.7,13.4 C32.5,13.4 37.3,6.4 37.3,-0.1 C37.3,-6.6 32.5,-13.6 18.7,-13.6 M10.4,-4.5 C10.3,-4.9 10.3,-5.3 10.3,-5.7 C10.3,-6.5 10.5,-7.3 10.9,-8 C11.6,-9 12.8,-9.7 14.3,-10 C15.6,-10.3 16.3,-10.5 18.9,-10.5 L19,-10.5 C23,-10.5 24.3,-6.8 25.4,-3 L25.7,-2 C26.5,0.6 26.9,2.8 26.9,4.5 C26.9,5.7 26.7,6.8 26.3,7.6 C25.7,8.7 24.7,9.4 23,9.8 C22.1,10 20.6,10.1 20.6,10.1 C20.1,10.1 19.7,10.2 19.3,10.2 C16.1,10.2 14.1,9 12.7,4.7 C11.5,1 11.3,-0.1 10.4,-4.5"/>
<path class="Note" transform="matrix(2.3811,0,0,2.3811,3089.09,1514.66)" d="M18.7,-13.6 C4.9,-13.6 0,-6.6 0,-0.1 C0,6.4 4.9,13.4 18.7,13.4 C32.5,13.4 37.3,6.4 37.3,-0.1 C37.3,-6.6 32.5,-13.6 18.7,-13.6 M10.4,-4.5 C10.3,-4.9 10.3,-5.3 10.3,-5.7 C10.3,-6.5 10.5,-7.3 10.9,-8 C11.6,-9 12.8,-9.7 14.3,-10 C15.6,-10.3 16.3,-10.5 18.9,-10.5 L19,-10.5 C23,-10.5 24.3,-6.8 25.4,-3 L25.7,-2 C26.5,0.6 26.9,2.8 26.9,4.5 C26.9,5.7 26.7,6.8 26.3,7.6 C25.7,8.7 24.7,9.4 23,9.8 C22.1,10 20.6,10.1 20.6,10.1 C20.1,10.1 19.7,10.2 19.3,10.2 C16.1,10.2 14.1,9 12.7,4.7 C11.5,1 11.3,-0.1 10.4,-4.5"/>
<path class="Note" transform="matrix(2.3811,0,0,2.3811,3089.09,1455.13)" d="M18.7,-13.6 C4.9,-13.6 0,-6.6 0,-0.1 C0,6.4 4.9,13.4 18.7,13.4 C32.5,13.4 37.3,6.4 37.3,-0.1 C37.3,-6.6 32.5,-13.6 18.7,-13.6 M10.4,-4.5 C10.3,-4.9 10.3,-5.3 10.3,-5.7 C10.3,-6.5 10.5,-7.3 10.9,-8 C11.6,-9 12.8,-9.7 14.3,-10 C15.6,-10.3 16.3,-10.5 18.9,-10.5 L19,-10.5 C23,-10.5 24.3,-6.8 25.4,-3 L25.7,-2 C26.5,0.6 26.9,2.8 26.9,4.5 C26.9,5.7 26.7,6.8 26.3,7.6 C25.7,8.7 24.7,9.4 23,9.8 C22.1,10 20.6,10.1 20.6,10.1 C20.1,10.1 19.7,10.2 19.3,10.2 C16.1,10.2 14.1,9 12.7,4.7 C11.5,1 11.3,-0.1 10.4,-4.5"/>
<path class="Note" transform="matrix(2.3811,0,0,2.3811,3089.09,1395.61)" d="M18.7,-13.6 C4.9,-13.6 0,-6.6 0,-0.1 C0,6.4 4.9,13.4 18.7,13.4 C32.5,13.4 37.3,6.4 37.3,-0.1 C37.3,-6.6 32.5,-13.6 18.7,-13.6 M10.4,-4.5 C10.3,-4.9 10.3,-5.3 10.3,-5.7 C10.3,-6.5 10.5,-7.3 10.9,-8 C11.6,-9 12.8,-9.7 14.3,-10 C15.6,-10.3 16.3,-10.5 18.9,-10.5 L19,-10.5 C23,-10.5 24.3,-6.8 25.4,-3 L25.7,-2 C26.5,0.6 26.9,2.8 26.9,4.5 C26.9,5.7 26.7,6.8 26.3,7.6 C25.7,8.7 24.7,9.4 23,9.8 C22.1,10 20.6,10.1 20.6,10.1 C20.1,10.1 19.7,10.2 19.3,10.2 C16.1,10.2 14.1,9 12.7,4.7 C11.5,1 11.3,-0.1 10.4,-4.5"/>
<path class="Note" d="M620.904,646.33 C617.108,646.33 615.209,642.262 615.209,634.128 L615.209,600.078 C615.209,596.824 616.798,595.197 619.974,595.197 C621.369,595.197 622.415,595.313 623.112,595.546 C625.591,591.207 629.658,587.566 635.314,584.622 C643.216,580.516 651.235,578.463 659.37,578.463 C665.8,578.463 669.015,580.864 669.015,585.668 C669.015,589.696 666.846,591.711 662.507,591.711 C659.408,591.711 656.464,591.013 653.675,589.619 C651.196,588.379 648.562,587.76 645.773,587.76 C640.97,587.76 633.881,590.897 624.506,597.173 C625.823,603.448 626.482,610.769 626.482,619.136 C626.482,637.265 624.623,646.33 620.904,646.33"/>
<path class="Note" d="M620.904,824.913 C617.108,824.913 615.209,820.845 615.209,812.71 L615.209,778.661 C615.209,775.407 616.798,773.78 619.974,773.78 C621.369,773.78 622.415,773.896 623.112,774.128 C625.591,769.79 629.658,766.149 635.314,763.205 C643.216,759.098 651.235,757.045 659.37,757.045 C665.8,757.045 669.015,759.447 669.015,764.25 C669.015,768.279 666.846,770.293 662.507,770.293 C659.408,770.293 656.464,769.596 653.675,768.202 C651.196,766.962 648.562,766.342 645.773,766.342 C640.97,766.342 633.881,769.48 624.506,775.755 C625.823,782.031 626.482,789.352 626.482,797.719 C626.482,815.848 624.623,824.913 620.904,824.913"/>
<path class="Note" d="M554.092,502.419 C554.401,490.721 560.871,480.339 573.499,471.275 C584.733,463.218 597.012,459.189 610.338,459.189 C629.009,459.189 645.472,466.51 659.727,481.153 C668.792,490.527 673.324,502.148 673.324,516.016 C673.324,528.489 669.993,538.057 663.33,544.72 C655.195,552.932 646.595,557.039 637.531,557.039 C631.333,557.039 626.53,555.644 623.121,552.855 C617.543,548.284 614.754,542.164 614.754,534.494 C614.754,524.577 619.712,515.512 629.629,507.3 C637.763,500.56 645.937,496.144 654.149,494.052 C651.98,490.333 649.23,486.847 645.898,483.593 C635.517,473.444 623.741,468.37 610.57,468.37 C596.857,468.37 585.507,471.352 576.52,477.318 C567.223,483.438 559.747,491.805 554.092,502.419 M657.054,500.211 C652.793,504.163 648.532,508.385 644.271,512.878 C635.904,521.71 631.72,530.078 631.72,537.98 C631.72,546.425 633.657,550.647 637.531,550.647 C641.017,550.647 645.898,545.882 652.174,536.353 C657.209,528.761 659.727,521.788 659.727,515.435 C659.727,510.012 658.836,504.937 657.054,500.211"/>
<path class="Note" d="M554.092,681.002 C554.401,669.303 560.871,658.922 573.499,649.858 C584.733,641.8 597.012,637.772 610.338,637.772 C629.009,637.772 645.472,645.093 659.727,659.735 C668.792,669.11 673.324,680.731 673.324,694.599 C673.324,707.072 669.993,716.64 663.33,723.303 C655.195,731.515 646.595,735.621 637.531,735.621 C631.333,735.621 626.53,734.227 623.121,731.438 C617.543,726.867 614.754,720.746 614.754,713.076 C614.754,703.16 619.712,694.095 629.629,685.883 C637.763,679.143 645.937,674.727 654.149,672.635 C651.98,668.916 649.23,665.43 645.898,662.176 C635.517,652.027 623.741,646.952 610.57,646.952 C596.857,646.952 585.507,649.935 576.52,655.9 C567.223,662.021 559.747,670.388 554.092,681.002 M657.054,678.794 C652.793,682.745 648.532,686.968 644.271,691.461 C635.904,700.293 631.72,708.66 631.72,716.563 C631.72,725.007 633.657,729.23 637.531,729.23 C641.017,729.23 645.898,724.465 652.174,714.936 C657.209,707.343 659.727,700.371 659.727,694.018 C659.727,688.594 658.836,683.52 657.054,678.794"/>
<path class="Note" d="M1968.98,832.856 C1973.32,829.912 1976.46,827.472 1978.39,825.535 C1981.96,821.739 1983.74,818.252 1983.74,815.076 C1983.74,811.435 1981.72,809.614 1977.69,809.614 C1969.87,809.614 1961.5,816.509 1952.59,830.3 C1949.88,834.483 1943.92,848.119 1934.7,871.206 C1942.06,878.798 1945.74,883.098 1945.74,884.105 C1945.74,885.5 1944.85,886.197 1943.06,886.197 C1941.67,886.197 1937.83,883.834 1931.56,879.108 C1924.74,894.99 1914.4,908.548 1900.53,919.782 C1886.35,931.248 1869.43,936.981 1849.75,936.981 C1842.23,936.981 1832.82,935.238 1821.51,931.752 C1812.44,928.963 1807.91,924.508 1807.91,918.387 C1807.91,909.323 1811.4,904.791 1818.37,904.791 C1822.55,904.791 1824.65,906.728 1824.65,910.601 C1824.65,911.841 1823.68,913.158 1821.74,914.553 C1820.73,915.25 1820.23,916.606 1820.23,918.62 C1820.23,921.022 1822.9,923.501 1828.25,926.057 C1834.06,928.846 1842.58,930.241 1853.81,930.241 C1868.3,930.241 1882.29,923.966 1895.77,911.415 C1908.01,900.026 1916.8,886.778 1922.15,871.671 C1920.05,869.966 1917.81,868.107 1915.41,866.093 C1907.97,861.677 1904.25,857.144 1904.25,852.496 C1904.25,850.559 1905.53,849.591 1908.08,849.591 C1911.49,849.591 1916.1,852.496 1921.91,858.306 C1923.15,859.546 1924.32,860.708 1925.4,861.793 C1928.11,854.355 1932.45,844.903 1938.42,833.437 C1949.18,812.674 1962.28,802.293 1977.69,802.293 C1983.2,802.293 1987.53,803.339 1990.71,805.43 C1993.89,807.522 1995.48,810.389 1995.48,814.03 C1995.48,819.841 1993.34,824.76 1989.08,828.789 C1984.67,832.972 1980.06,835.064 1975.25,835.064 C1971.07,835.064 1968.98,834.328 1968.98,832.856"/>
<path class="Note" d="M1968.17,588.573 C1968.17,597.483 1958.02,617.045 1937.72,647.26 C1929.66,659.268 1918.08,668.061 1902.97,673.639 C1891.82,677.823 1878.92,679.915 1864.27,679.915 C1859.55,679.915 1855.36,678.946 1851.72,677.01 C1847.69,674.918 1845.68,672.632 1845.68,670.153 C1845.68,663.723 1849.13,660.508 1856.02,660.508 C1857.03,660.508 1857.53,661.127 1857.53,662.367 C1857.53,663.452 1857.03,664.652 1856.02,665.97 C1854.78,667.596 1854.16,668.797 1854.16,669.572 C1854.16,671.896 1857.65,673.058 1864.62,673.058 C1880.27,673.058 1892.63,671.16 1901.69,667.364 C1911.14,663.49 1920.56,653.612 1929.93,637.73 L1932.61,632.733 C1928.11,636.142 1923.66,637.846 1919.24,637.846 C1908.24,637.846 1902.74,633.392 1902.74,624.482 C1902.74,614.875 1909.21,604.765 1922.15,594.151 C1932.3,585.939 1941.32,581.833 1949.22,581.833 C1953.17,581.833 1956.47,582.879 1959.1,584.97 C1960.03,584.273 1961.19,583.925 1962.59,583.925 C1966.31,583.925 1968.17,585.474 1968.17,588.573 M1934,630.293 L1955.96,589.735 C1954.26,589.348 1952.36,589.154 1950.27,589.154 C1942.75,589.154 1935.47,593.531 1928.42,602.286 C1920.21,612.512 1916.1,620.686 1916.1,626.806 C1916.1,630.835 1918.78,632.849 1924.12,632.849 C1926.68,632.849 1929.97,631.997 1934,630.293"/>
<path class="Note" d="M1968.98,743.565 C1973.32,740.621 1976.46,738.18 1978.39,736.244 C1981.96,732.447 1983.74,728.961 1983.74,725.785 C1983.74,722.143 1981.72,720.323 1977.69,720.323 C1969.87,720.323 1961.5,727.218 1952.59,741.008 C1949.88,745.192 1943.92,758.827 1934.7,781.914 C1942.06,789.507 1945.74,793.807 1945.74,794.814 C1945.74,796.208 1944.85,796.906 1943.06,796.906 C1941.67,796.906 1937.83,794.543 1931.56,789.817 C1924.74,805.699 1914.4,819.257 1900.53,830.491 C1886.35,841.957 1869.43,847.69 1849.75,847.69 C1842.23,847.69 1832.82,845.947 1821.51,842.46 C1812.44,839.671 1807.91,835.217 1807.91,829.096 C1807.91,820.032 1811.4,815.499 1818.37,815.499 C1822.55,815.499 1824.65,817.436 1824.65,821.31 C1824.65,822.55 1823.68,823.867 1821.74,825.261 C1820.73,825.958 1820.23,827.314 1820.23,829.329 C1820.23,831.73 1822.9,834.209 1828.25,836.766 C1834.06,839.555 1842.58,840.95 1853.81,840.95 C1868.3,840.95 1882.29,834.674 1895.77,822.123 C1908.01,810.735 1916.8,797.487 1922.15,782.379 C1920.05,780.675 1917.81,778.816 1915.41,776.801 C1907.97,772.385 1904.25,767.853 1904.25,763.205 C1904.25,761.268 1905.53,760.299 1908.08,760.299 C1911.49,760.299 1916.1,763.205 1921.91,769.015 C1923.15,770.255 1924.32,771.417 1925.4,772.501 C1928.11,765.064 1932.45,755.612 1938.42,744.146 C1949.18,723.383 1962.28,713.001 1977.69,713.001 C1983.2,713.001 1987.53,714.047 1990.71,716.139 C1993.89,718.231 1995.48,721.097 1995.48,724.739 C1995.48,730.549 1993.34,735.469 1989.08,739.497 C1984.67,743.681 1980.06,745.773 1975.25,745.773 C1971.07,745.773 1968.98,745.037 1968.98,743.565"/>
<path class="Note" d="M1968.98,654.274 C1973.32,651.33 1976.46,648.889 1978.39,646.952 C1981.96,643.156 1983.74,639.67 1983.74,636.493 C1983.74,632.852 1981.72,631.031 1977.69,631.031 C1969.87,631.031 1961.5,637.927 1952.59,651.717 C1949.88,655.9 1943.92,669.536 1934.7,692.623 C1942.06,700.216 1945.74,704.515 1945.74,705.523 C1945.74,706.917 1944.85,707.614 1943.06,707.614 C1941.67,707.614 1937.83,705.251 1931.56,700.525 C1924.74,716.408 1914.4,729.966 1900.53,741.199 C1886.35,752.665 1869.43,758.399 1849.75,758.399 C1842.23,758.399 1832.82,756.655 1821.51,753.169 C1812.44,750.38 1807.91,745.925 1807.91,739.805 C1807.91,730.74 1811.4,726.208 1818.37,726.208 C1822.55,726.208 1824.65,728.145 1824.65,732.019 C1824.65,733.258 1823.68,734.575 1821.74,735.97 C1820.73,736.667 1820.23,738.023 1820.23,740.037 C1820.23,742.439 1822.9,744.918 1828.25,747.475 C1834.06,750.264 1842.58,751.658 1853.81,751.658 C1868.3,751.658 1882.29,745.383 1895.77,732.832 C1908.01,721.443 1916.8,708.195 1922.15,693.088 C1920.05,691.384 1917.81,689.524 1915.41,687.51 C1907.97,683.094 1904.25,678.562 1904.25,673.913 C1904.25,671.976 1905.53,671.008 1908.08,671.008 C1911.49,671.008 1916.1,673.913 1921.91,679.724 C1923.15,680.963 1924.32,682.125 1925.4,683.21 C1928.11,675.773 1932.45,666.321 1938.42,654.855 C1949.18,634.092 1962.28,623.71 1977.69,623.71 C1983.2,623.71 1987.53,624.756 1990.71,626.848 C1993.89,628.94 1995.48,631.806 1995.48,635.447 C1995.48,641.258 1993.34,646.178 1989.08,650.206 C1984.67,654.39 1980.06,656.482 1975.25,656.482 C1971.07,656.482 1968.98,655.746 1968.98,654.274"/>
<path class="Note" d="M2516,832.856 C2520.34,829.912 2523.47,827.472 2525.41,825.535 C2528.97,821.739 2530.76,818.252 2530.76,815.076 C2530.76,811.435 2528.74,809.614 2524.71,809.614 C2516.89,809.614 2508.52,816.509 2499.61,830.3 C2496.9,834.483 2490.93,848.119 2481.72,871.206 C2489.08,878.798 2492.76,883.098 2492.76,884.105 C2492.76,885.5 2491.86,886.197 2490.08,886.197 C2488.69,886.197 2484.85,883.834 2478.58,879.108 C2471.76,894.99 2461.42,908.548 2447.55,919.782 C2433.37,931.248 2416.44,936.981 2396.76,936.981 C2389.25,936.981 2379.84,935.238 2368.53,931.752 C2359.46,928.963 2354.93,924.508 2354.93,918.387 C2354.93,909.323 2358.42,904.791 2365.39,904.791 C2369.57,904.791 2371.66,906.728 2371.66,910.601 C2371.66,911.841 2370.69,913.158 2368.76,914.553 C2367.75,915.25 2367.25,916.606 2367.25,918.62 C2367.25,921.022 2369.92,923.501 2375.27,926.057 C2381.08,928.846 2389.6,930.241 2400.83,930.241 C2415.32,930.241 2429.3,923.966 2442.78,911.415 C2455.03,900.026 2463.82,886.778 2469.16,871.671 C2467.07,869.966 2464.83,868.107 2462.42,866.093 C2454.99,861.677 2451.27,857.144 2451.27,852.496 C2451.27,850.559 2452.55,849.591 2455.1,849.591 C2458.51,849.591 2463.12,852.496 2468.93,858.306 C2470.17,859.546 2471.33,860.708 2472.42,861.793 C2475.13,854.355 2479.47,844.903 2485.43,833.437 C2496.2,812.674 2509.3,802.293 2524.71,802.293 C2530.21,802.293 2534.55,803.339 2537.73,805.43 C2540.91,807.522 2542.49,810.389 2542.49,814.03 C2542.49,819.841 2540.36,824.76 2536.1,828.789 C2531.69,832.972 2527.08,835.064 2522.27,835.064 C2518.09,835.064 2516,834.328 2516,832.856"/>
<path class="Note" d="M2390.03,591.711 C2390.34,580.012 2396.81,569.631 2409.44,560.566 C2420.67,552.509 2432.95,548.48 2446.28,548.48 C2464.95,548.48 2481.41,555.802 2495.67,570.444 C2504.73,579.818 2509.27,591.44 2509.27,605.307 C2509.27,617.781 2505.93,627.349 2499.27,634.011 C2491.14,642.224 2482.54,646.33 2473.47,646.33 C2467.28,646.33 2462.47,644.935 2459.06,642.146 C2453.48,637.575 2450.7,631.455 2450.7,623.785 C2450.7,613.868 2455.65,604.804 2465.57,596.592 C2473.71,589.851 2481.88,585.435 2490.09,583.344 C2487.92,579.625 2485.17,576.138 2481.84,572.885 C2471.46,562.735 2459.68,557.661 2446.51,557.661 C2432.8,557.661 2421.45,560.644 2412.46,566.609 C2403.17,572.73 2395.69,581.097 2390.03,591.711 M2493,589.503 C2488.74,593.454 2484.47,597.676 2480.21,602.17 C2471.85,611.002 2467.66,619.369 2467.66,627.271 C2467.66,635.716 2469.6,639.938 2473.47,639.938 C2476.96,639.938 2481.84,635.174 2488.12,625.644 C2493.15,618.052 2495.67,611.079 2495.67,604.726 C2495.67,599.303 2494.78,594.229 2493,589.503"/>
<path class="Note" d="M2390.03,770.293 C2390.34,758.595 2396.81,748.213 2409.44,739.149 C2420.67,731.092 2432.95,727.063 2446.28,727.063 C2464.95,727.063 2481.41,734.384 2495.67,749.027 C2504.73,758.401 2509.27,770.022 2509.27,783.89 C2509.27,796.363 2505.93,805.931 2499.27,812.594 C2491.14,820.806 2482.54,824.913 2473.47,824.913 C2467.28,824.913 2462.47,823.518 2459.06,820.729 C2453.48,816.158 2450.7,810.038 2450.7,802.368 C2450.7,792.451 2455.65,783.386 2465.57,775.174 C2473.71,768.434 2481.88,764.018 2490.09,761.926 C2487.92,758.207 2485.17,754.721 2481.84,751.467 C2471.46,741.318 2459.68,736.244 2446.51,736.244 C2432.8,736.244 2421.45,739.226 2412.46,745.192 C2403.17,751.312 2395.69,759.679 2390.03,770.293 M2493,768.085 C2488.74,772.037 2484.47,776.259 2480.21,780.752 C2471.85,789.584 2467.66,797.952 2467.66,805.854 C2467.66,814.299 2469.6,818.521 2473.47,818.521 C2476.96,818.521 2481.84,813.756 2488.12,804.227 C2493.15,796.635 2495.67,789.662 2495.67,783.309 C2495.67,777.886 2494.78,772.811 2493,768.085"/>
<path class="Note" d="M2390.03,502.419 C2390.34,490.721 2396.81,480.339 2409.44,471.275 C2420.67,463.218 2432.95,459.189 2446.28,459.189 C2464.95,459.189 2481.41,466.51 2495.67,481.153 C2504.73,490.527 2509.27,502.148 2509.27,516.016 C2509.27,528.489 2505.93,538.057 2499.27,544.72 C2491.14,552.932 2482.54,557.039 2473.47,557.039 C2467.28,557.039 2462.47,555.644 2459.06,552.855 C2453.48,548.284 2450.7,542.164 2450.7,534.494 C2450.7,524.577 2455.65,515.512 2465.57,507.3 C2473.71,500.56 2481.88,496.144 2490.09,494.052 C2487.92,490.333 2485.17,486.847 2481.84,483.593 C2471.46,473.444 2459.68,468.37 2446.51,468.37 C2432.8,468.37 2421.45,471.352 2412.46,477.318 C2403.17,483.438 2395.69,491.805 2390.03,502.419 M2493,500.211 C2488.74,504.163 2484.47,508.385 2480.21,512.878 C2471.85,521.71 2467.66,530.078 2467.66,537.98 C2467.66,546.425 2469.6,550.647 2473.47,550.647 C2476.96,550.647 2481.84,545.882 2488.12,536.353 C2493.15,528.761 2495.67,521.788 2495.67,515.435 C2495.67,510.012 2494.78,504.937 2493,500.211"/>
<path class="Note" d="M2516,654.274 C2520.34,651.33 2523.47,648.889 2525.41,646.952 C2528.97,643.156 2530.76,639.67 2530.76,636.493 C2530.76,632.852 2528.74,631.031 2524.71,631.031 C2516.89,631.031 2508.52,637.927 2499.61,651.717 C2496.9,655.9 2490.93,669.536 2481.72,692.623 C2489.08,700.216 2492.76,704.515 2492.76,705.523 C2492.76,706.917 2491.86,707.614 2490.08,707.614 C2488.69,707.614 2484.85,705.251 2478.58,700.525 C2471.76,716.408 2461.42,729.966 2447.55,741.199 C2433.37,752.665 2416.44,758.399 2396.76,758.399 C2389.25,758.399 2379.84,756.655 2368.53,753.169 C2359.46,750.38 2354.93,745.925 2354.93,739.805 C2354.93,730.74 2358.42,726.208 2365.39,726.208 C2369.57,726.208 2371.66,728.145 2371.66,732.019 C2371.66,733.258 2370.69,734.575 2368.76,735.97 C2367.75,736.667 2367.25,738.023 2367.25,740.037 C2367.25,742.439 2369.92,744.918 2375.27,747.475 C2381.08,750.264 2389.6,751.658 2400.83,751.658 C2415.32,751.658 2429.3,745.383 2442.78,732.832 C2455.03,721.443 2463.82,708.195 2469.16,693.088 C2467.07,691.384 2464.83,689.524 2462.42,687.51 C2454.99,683.094 2451.27,678.562 2451.27,673.913 C2451.27,671.976 2452.55,671.008 2455.1,671.008 C2458.51,671.008 2463.12,673.913 2468.93,679.724 C2470.17,680.963 2471.33,682.125 2472.42,683.21 C2475.13,675.773 2479.47,666.321 2485.43,654.855 C2496.2,634.092 2509.3,623.71 2524.71,623.71 C2530.21,623.71 2534.55,624.756 2537.73,626.848 C2540.91,628.94 2542.49,631.806 2542.49,635.447 C2542.49,641.258 2540.36,646.178 2536.1,650.206 C2531.69,654.39 2527.08,656.482 2522.27,656.482 C2518.09,656.482 2516,655.746 2516,654.274"/>
<path class="Note" d="M3182.79,922.148 C3187.13,919.204 3190.26,916.763 3192.2,914.826 C3195.76,911.03 3197.55,907.544 3197.55,904.367 C3197.55,900.726 3195.53,898.905 3191.5,898.905 C3183.68,898.905 3175.31,905.801 3166.4,919.591 C3163.69,923.775 3157.72,937.41 3148.5,960.497 C3155.86,968.09 3159.54,972.389 3159.54,973.397 C3159.54,974.791 3158.65,975.488 3156.87,975.488 C3155.48,975.488 3151.64,973.125 3145.37,968.4 C3138.55,984.282 3128.21,997.84 3114.34,1009.07 C3100.16,1020.54 3083.23,1026.27 3063.55,1026.27 C3056.04,1026.27 3046.63,1024.53 3035.32,1021.04 C3026.25,1018.25 3021.72,1013.8 3021.72,1007.68 C3021.72,998.614 3025.2,994.082 3032.18,994.082 C3036.36,994.082 3038.45,996.019 3038.45,999.893 C3038.45,1001.13 3037.48,1002.45 3035.55,1003.84 C3034.54,1004.54 3034.04,1005.9 3034.04,1007.91 C3034.04,1010.31 3036.71,1012.79 3042.06,1015.35 C3047.87,1018.14 3056.39,1019.53 3067.62,1019.53 C3082.11,1019.53 3096.09,1013.26 3109.57,1000.71 C3121.81,989.317 3130.61,976.069 3135.95,960.962 C3133.86,959.258 3131.62,957.398 3129.21,955.384 C3121.78,950.968 3118.06,946.436 3118.06,941.787 C3118.06,939.85 3119.34,938.882 3121.89,938.882 C3125.3,938.882 3129.91,941.787 3135.72,947.598 C3136.96,948.837 3138.12,949.999 3139.21,951.084 C3141.92,943.647 3146.26,934.195 3152.22,922.729 C3162.99,901.966 3176.09,891.584 3191.5,891.584 C3197,891.584 3201.34,892.63 3204.52,894.722 C3207.69,896.814 3209.28,899.68 3209.28,903.321 C3209.28,909.132 3207.15,914.052 3202.89,918.08 C3198.48,922.264 3193.87,924.356 3189.06,924.356 C3184.88,924.356 3182.79,923.62 3182.79,922.148"/>
<path class="Note" d="M3182.79,832.856 C3187.13,829.912 3190.26,827.472 3192.2,825.535 C3195.76,821.739 3197.55,818.252 3197.55,815.076 C3197.55,811.435 3195.53,809.614 3191.5,809.614 C3183.68,809.614 3175.31,816.509 3166.4,830.3 C3163.69,834.483 3157.72,848.119 3148.5,871.206 C3155.86,878.798 3159.54,883.098 3159.54,884.105 C3159.54,885.5 3158.65,886.197 3156.87,886.197 C3155.48,886.197 3151.64,883.834 3145.37,879.108 C3138.55,894.99 3128.21,908.548 3114.34,919.782 C3100.16,931.248 3083.23,936.981 3063.55,936.981 C3056.04,936.981 3046.63,935.238 3035.32,931.752 C3026.25,928.963 3021.72,924.508 3021.72,918.387 C3021.72,909.323 3025.2,904.791 3032.18,904.791 C3036.36,904.791 3038.45,906.728 3038.45,910.601 C3038.45,911.841 3037.48,913.158 3035.55,914.553 C3034.54,915.25 3034.04,916.606 3034.04,918.62 C3034.04,921.022 3036.71,923.501 3042.06,926.057 C3047.87,928.846 3056.39,930.241 3067.62,930.241 C3082.11,930.241 3096.09,923.966 3109.57,911.415 C3121.81,900.026 3130.61,886.778 3135.95,871.671 C3133.86,869.966 3131.62,868.107 3129.21,866.093 C3121.78,861.677 3118.06,857.144 3118.06,852.496 C3118.06,850.559 3119.34,849.591 3121.89,849.591 C3125.3,849.591 3129.91,852.496 3135.72,858.306 C3136.96,859.546 3138.12,860.708 3139.21,861.793 C3141.92,854.355 3146.26,844.903 3152.22,833.437 C3162.99,812.674 3176.09,802.293 3191.5,802.293 C3197,802.293 3201.34,803.339 3204.52,805.43 C3207.69,807.522 3209.28,810.389 3209.28,814.03 C3209.28,819.841 3207.15,824.76 3202.89,828.789 C3198.48,832.972 3193.87,835.064 3189.06,835.064 C3184.88,835.064 3182.79,834.328 3182.79,832.856"/>
<path class="Note" d="M3110.15,646.33 C3105.97,646.33 3103.88,644.432 3103.88,640.636 C3103.88,634.205 3104.85,629.479 3106.78,626.458 C3114.84,614.527 3132.35,592.214 3159.31,559.52 C3171.48,544.723 3187.16,537.324 3206.38,537.324 C3213.82,537.324 3218.97,538.37 3221.83,540.462 C3226.25,543.716 3228.46,547.628 3228.46,552.199 C3228.46,557.002 3224.58,562.348 3216.84,568.236 C3209.48,573.814 3202.5,576.603 3195.92,576.603 C3193.36,576.603 3192.08,576.332 3192.08,575.79 C3192.08,575.015 3193.32,574.202 3195.8,573.349 C3199.13,572.11 3202.7,569.592 3206.49,565.796 C3210.83,561.38 3213,557.39 3213,553.826 C3213,551.424 3211.34,549.139 3208,546.97 C3205.06,545.11 3200.3,544.18 3193.71,544.18 C3184.1,544.18 3171.98,553.865 3157.34,573.233 C3147.57,586.171 3139.67,597.56 3133.63,607.399 C3136.57,605.772 3140.1,603.797 3144.2,601.472 C3149.24,598.606 3153.58,597.173 3157.22,597.173 C3166.28,597.173 3170.82,600.427 3170.82,606.934 C3170.82,613.365 3167.1,620.415 3159.66,628.085 C3154.39,633.508 3151.76,637.537 3151.76,640.171 C3151.76,642.882 3154.39,644.238 3159.66,644.238 C3162.29,644.238 3165.01,643.308 3167.8,641.449 C3170.58,639.667 3172.64,638.776 3173.95,638.776 C3175.04,638.776 3175.58,639.473 3175.58,640.868 C3175.58,643.115 3173.41,645.478 3169.07,647.957 C3161.79,652.14 3155.94,654.232 3151.53,654.232 C3143.7,654.232 3139.79,650.049 3139.79,641.681 C3139.79,636.413 3142.81,630.564 3148.85,624.134 C3153.27,619.408 3155.48,614.72 3155.48,610.072 C3155.48,606.043 3153.31,604.029 3148.97,604.029 C3147.26,604.029 3141.61,606.043 3132,610.072 C3129.14,614.875 3126.73,619.291 3124.8,623.32 C3117.44,638.66 3112.56,646.33 3110.15,646.33"/>
<path class="Note" d="M3110.15,824.913 C3105.97,824.913 3103.88,823.014 3103.88,819.218 C3103.88,812.788 3104.85,808.062 3106.78,805.04 C3114.84,793.109 3132.35,770.797 3159.31,738.103 C3171.48,723.305 3187.16,715.907 3206.38,715.907 C3213.82,715.907 3218.97,716.953 3221.83,719.044 C3226.25,722.298 3228.46,726.211 3228.46,730.782 C3228.46,735.585 3224.58,740.931 3216.84,746.819 C3209.48,752.397 3202.5,755.186 3195.92,755.186 C3193.36,755.186 3192.08,754.915 3192.08,754.372 C3192.08,753.598 3193.32,752.784 3195.8,751.932 C3199.13,750.692 3202.7,748.175 3206.49,744.378 C3210.83,739.962 3213,735.972 3213,732.409 C3213,730.007 3211.34,727.721 3208,725.552 C3205.06,723.693 3200.3,722.763 3193.71,722.763 C3184.1,722.763 3171.98,732.447 3157.34,751.816 C3147.57,764.754 3139.67,776.143 3133.63,785.982 C3136.57,784.355 3140.1,782.379 3144.2,780.055 C3149.24,777.189 3153.58,775.755 3157.22,775.755 C3166.28,775.755 3170.82,779.009 3170.82,785.517 C3170.82,791.947 3167.1,798.997 3159.66,806.667 C3154.39,812.091 3151.76,816.119 3151.76,818.753 C3151.76,821.465 3154.39,822.821 3159.66,822.821 C3162.29,822.821 3165.01,821.891 3167.8,820.032 C3170.58,818.25 3172.64,817.359 3173.95,817.359 C3175.04,817.359 3175.58,818.056 3175.58,819.451 C3175.58,821.697 3173.41,824.06 3169.07,826.539 C3161.79,830.723 3155.94,832.815 3151.53,832.815 C3143.7,832.815 3139.79,828.631 3139.79,820.264 C3139.79,814.996 3142.81,809.147 3148.85,802.716 C3153.27,797.99 3155.48,793.303 3155.48,788.655 C3155.48,784.626 3153.31,782.612 3148.97,782.612 C3147.26,782.612 3141.61,784.626 3132,788.655 C3129.14,793.458 3126.73,797.874 3124.8,801.903 C3117.44,817.243 3112.56,824.913 3110.15,824.913"/>
<path class="Note" d="M3182.79,475.691 C3187.13,472.747 3190.26,470.306 3192.2,468.37 C3195.76,464.573 3197.55,461.087 3197.55,457.911 C3197.55,454.269 3195.53,452.449 3191.5,452.449 C3183.68,452.449 3175.31,459.344 3166.4,473.134 C3163.69,477.318 3157.72,490.953 3148.5,514.04 C3155.86,521.633 3159.54,525.933 3159.54,526.94 C3159.54,528.334 3158.65,529.032 3156.87,529.032 C3155.48,529.032 3151.64,526.669 3145.37,521.943 C3138.55,537.825 3128.21,551.383 3114.34,562.617 C3100.16,574.083 3083.23,579.816 3063.55,579.816 C3056.04,579.816 3046.63,578.073 3035.32,574.586 C3026.25,571.797 3021.72,567.343 3021.72,561.222 C3021.72,552.158 3025.2,547.625 3032.18,547.625 C3036.36,547.625 3038.45,549.562 3038.45,553.436 C3038.45,554.676 3037.48,555.993 3035.55,557.387 C3034.54,558.084 3034.04,559.44 3034.04,561.455 C3034.04,563.856 3036.71,566.335 3042.06,568.892 C3047.87,571.681 3056.39,573.076 3067.62,573.076 C3082.11,573.076 3096.09,566.8 3109.57,554.249 C3121.81,542.861 3130.61,529.613 3135.95,514.505 C3133.86,512.801 3131.62,510.942 3129.21,508.927 C3121.78,504.511 3118.06,499.979 3118.06,495.331 C3118.06,493.394 3119.34,492.425 3121.89,492.425 C3125.3,492.425 3129.91,495.331 3135.72,501.141 C3136.96,502.381 3138.12,503.543 3139.21,504.627 C3141.92,497.19 3146.26,487.738 3152.22,476.272 C3162.99,455.509 3176.09,445.127 3191.5,445.127 C3197,445.127 3201.34,446.173 3204.52,448.265 C3207.69,450.357 3209.28,453.223 3209.28,456.865 C3209.28,462.675 3207.15,467.595 3202.89,471.623 C3198.48,475.807 3193.87,477.899 3189.06,477.899 C3184.88,477.899 3182.79,477.163 3182.79,475.691"/>
<path class="Note" d="M3181.97,677.864 C3181.97,686.774 3171.82,706.336 3151.53,736.551 C3143.47,748.559 3131.89,757.353 3116.78,762.931 C3105.62,767.114 3092.72,769.206 3078.08,769.206 C3073.35,769.206 3069.17,768.238 3065.53,766.301 C3061.5,764.209 3059.49,761.924 3059.49,759.444 C3059.49,753.014 3062.93,749.799 3069.83,749.799 C3070.84,749.799 3071.34,750.419 3071.34,751.658 C3071.34,752.743 3070.84,753.944 3069.83,755.261 C3068.59,756.888 3067.97,758.089 3067.97,758.863 C3067.97,761.188 3071.46,762.35 3078.43,762.35 C3094.08,762.35 3106.44,760.452 3115.5,756.655 C3124.95,752.782 3134.37,742.904 3143.74,727.022 L3146.41,722.025 C3141.92,725.433 3137.46,727.138 3133.05,727.138 C3122.05,727.138 3116.55,722.683 3116.55,713.774 C3116.55,704.167 3123.02,694.056 3135.95,683.442 C3146.1,675.23 3155.13,671.124 3163.03,671.124 C3166.98,671.124 3170.27,672.17 3172.91,674.262 C3173.84,673.565 3175,673.216 3176.4,673.216 C3180.11,673.216 3181.97,674.765 3181.97,677.864 M3147.81,719.584 L3169.77,679.026 C3168.07,678.639 3166.17,678.445 3164.08,678.445 C3156.56,678.445 3149.28,682.823 3142.23,691.577 C3134.02,701.804 3129.91,709.977 3129.91,716.098 C3129.91,720.126 3132.58,722.141 3137.93,722.141 C3140.49,722.141 3143.78,721.289 3147.81,719.584"/>
<path class="Clef" transform="matrix(2.3811,0,0,2.3811,212.156,2268.34)" d="M25.4,-25.1 C17.8,-25.1 11.7,-20.7 11.6,-20.7 C5.8,-16.4 3.5,-11.3 2.6,-7.8 C2.1,-6 1.9,-4.2 1.9,-2.5 C1.9,-0.1 2.3,2.1 3.2,4 C4.4,6.7 6.7,8.6 9.7,9.6 C10.9,10 12.2,10.2 13.5,10.2 C15.7,10.2 18,9.6 19.9,8.5 C23,6.8 24.9,3.2 24.9,-0.7 C24.9,-4.2 23.1,-7.4 20.1,-9.3 C18,-10.7 16,-11.1 14.3,-11.1 C13.1,-11.1 12,-10.9 11.1,-10.6 C10.1,-10.2 8.4,-9.2 7.6,-8.5 C7.9,-10.4 9.1,-13.3 10.2,-14.9 C11.3,-16.5 13.5,-18.5 15.2,-19.4 C17.7,-20.8 20.9,-21.4 24.4,-21.4 C34.6,-21.4 39.6,-13.2 39.6,3.6 C39.6,12.9 36.1,21.8 33.1,27.7 C29.8,34.3 25.4,40.6 21.5,44.1 C11.1,53.6 1.3,58.1 1.2,58.1 C1.2,58.1 -0.3,59 0.1,60.5 C0.4,61.5 1.3,61.7 1.9,61.7 C2,61.7 2.3,61.6 2.4,61.6 C2.5,61.6 13.9,56.9 23,49.8 C28.1,46.1 32.7,42.1 36.7,37.8 C40.3,33.9 43.4,29.7 45.9,25.5 C50.3,18 52.8,10.2 52.8,3.5 C52.8,-4.8 50.6,-11.7 46.5,-16.6 C41.8,-22.2 34.7,-25.1 25.4,-25.1 M56.8,-12.4 C56.8,-9.6 59,-7.4 61.6,-7.4 C64.2,-7.4 66.4,-9.6 66.4,-12.4 C66.4,-15.2 64.2,-17.5 61.6,-17.5 C59,-17.5 56.8,-15.2 56.8,-12.4 M56.8,12.3 C56.8,15.1 59,17.4 61.6,17.4 C64.2,17.4 66.4,15.1 66.4,12.3 C66.4,9.5 64.2,7.2 61.6,7.2 C59,7.2 56.8,9.5 56.8,12.3"/>
<path class="Clef" transform="matrix(2.3811,0,0,2.3811,212.156,1574.19)" d="M63.37,-5.89004 C62.14,-11.32 59.5,-15.14 58.72,-16.1801 C55.5301,-20.45 51.52,-23.3 46.8301,-24.65 C43.72,-25.54 40.72,-25.65 38.3,-25.47 C37.2601,-31.4801 36.2601,-37.3601 35.35,-42.8101 C40.79,-48.97 44.42,-54.77 46.69,-59.07 C50.1601,-65.65 51.3101,-70.2301 51.3601,-70.4301 C53.0801,-75.64 53.44,-83.34 52.34,-91.55 C51.3301,-99.1 49.24,-105.81 46.89,-109.06 C45.8601,-110.49 44.8101,-111.22 43.77,-111.22 C42.55,-111.22 40.04,-109.98 37.15,-107.21 C34.85,-105.01 31.5801,-101.12 29.02,-95.1101 C26.02,-88.05 25.8101,-78.5601 26.1601,-71.84 C26.54,-64.57 27.65,-58.8801 27.6601,-58.8301 C27.6801,-58.74 27.94,-57.24 28.39,-54.67 C28.1601,-54.44 27.92,-54.22 27.67,-53.9801 C26.6301,-52.9801 25.44,-51.84 24.0601,-50.4601 C23.2,-49.6 22.25,-48.69 21.25,-47.72 C12.79,-39.57 0,-27.25 0,-8.1 C0,-3.4 0.9,1.01992 2.68008,5.02998 C4.27002,8.62998 6.57002,11.91 9.5,14.78 C17.2301,22.33 27.82,25.5399 34.8801,25.38 C37.8301,25.31 40.4601,25.0699 42.85,24.6199 C44.6801,34.2199 45.82,41.25 45.8601,46.5899 C45.9,53.1 44.25,57.0699 40.35,59.8399 C37.92,61.5699 35.1101,62.5199 32.0101,62.6699 C29.42,62.7899 27.1601,62.3199 25.7301,61.91 L25.72,61.91 C25.72,61.91 25.4301,61.83 25.42,61.63 C25.4101,61.45 25.7601,61.4 25.77,61.4 L25.79,61.4 C27.7101,60.96 31.2801,59.73 33.64,56.43 C35.44,53.91 36.3101,49.2899 34.47,45.35 C33.3601,42.96 30.85,40.01 25.2301,39.56 C22.74,39.36 20.47,39.8699 18.47,41.0699 C16.6601,42.15 15.1601,43.7899 14.1101,45.7899 C11.65,50.4899 12.1101,56.2199 15.24,60.06 C18.2,63.68 22.82,65.9899 28.25,66.5699 C29.1,66.66 29.95,66.7 30.8,66.7 C31.5101,66.7 32.22,66.6699 32.92,66.61 C31.72,66.9399 30.64,67.4899 29.77,68.25 C28.2801,69.5399 27.44,71.38 27.44,73.41 C27.44,75.28 28.0601,76.65 29.55,78.0399 C28.4101,78.5 27.55,78.98 26.79,79.56 C25.25,80.73 24.34,82.46 24.34,84.1899 C24.34,87.45 27.3,89.63 31.72,89.63 C37.1301,89.63 40.9101,86.63 40.9101,82.35 C40.9101,80.1199 39.9101,78.18 38.0801,76.83 C41.0101,75.6199 42.37,73.9399 42.37,71.56 C42.39,70.05 41.69,68.61 40.49,67.6899 C39.2801,66.7399 37.62,66.2399 35.69,66.2399 L35.5101,66.2399 C38.2801,65.7 40.92,64.7 43.2101,63.28 C46.87,60.71 48.99,56.73 49.67,51.1 C50.2301,46.46 49.84,40.55 48.44,32.48 C48.0801,30.3899 47.54,27.36 46.8801,23.6 C52.6301,21.68 56.79,18.11 60.5601,12.26 C63.85,6.51992 64.8,0.419922 63.37,-5.89004 M32.39,87.5399 C30.19,87.5399 28.7301,86.1199 28.7301,84.01 C28.7301,82.11 29.65,80.5 31.32,79.4699 C31.6801,79.66 31.77,79.71 32.1101,79.88 C33.3,80.48 33.3,80.48 33.55,80.63 L33.5601,80.6399 C35.47,81.73 36.25,82.76 36.25,84.18 C36.24,86.0899 34.59,87.5399 32.39,87.5399 M38.3101,71.63 C38.3101,73.2699 37.7301,74.3399 36.1801,75.53 C34.74,74.78 34.35,74.56 33.9801,74.3399 L33.8801,74.28 C32.3301,73.3399 31.85,72.66 31.85,71.4 C31.85,69.6 33.2301,68.3399 35.19,68.3399 C37.17,68.35 38.3101,69.55 38.3101,71.63 M33.15,-83.8101 C34.9301,-89.55 37.67,-92.8 39.6601,-94.5301 C41.4101,-96.05 43.0601,-96.7601 43.9801,-96.7601 C44.12,-96.7601 44.24,-96.74 44.34,-96.7101 C44.8,-96.57 45.3301,-96 45.8,-95.1301 C48.1101,-90.84 47.37,-84.1301 46.0301,-79.69 C44.4,-74.29 41.4801,-68.6801 32.69,-59.0601 C32.52,-60.17 32.3601,-61.22 32.2101,-62.2 C30.95,-70.49 31.27,-77.7601 33.15,-83.8101 M29.15,20.31 C24.5101,19.0899 20.0801,16.5899 16.32,13.0899 C15.0101,11.86 13.14,9.68994 11.67,6.3 C10.3101,3.13994 9.65,-0.290039 9.7,-3.88008 C9.77002,-8.57002 11.0801,-13.39 13.59,-18.1801 C16.5101,-23.7601 21.07,-29.29 27.1301,-34.62 C28.5801,-35.9 29.95,-37.1801 31.24,-38.4601 C32,-34.2 32.8301,-29.5101 33.7101,-24.6301 C29.8601,-23.3601 25.1101,-20.2101 22,-14.5601 C18.47,-7.99004 18.6101,-2.47002 19.34,1.00996 C20.2801,5.46992 22.8101,9.22998 26.27,11.3199 C27.2,11.88 31.3301,14.01 33.17,13.43 C33.54,13.31 33.8101,13.0899 33.95,12.76 C34.4601,11.5899 33.44,10.95 31.8801,9.98994 C31.2801,9.61992 30.6101,9.2 29.8801,8.66992 C26.5601,6.17998 25.1101,1.72998 26.1801,-2.65 C26.7601,-5.05 28.04,-7.21006 29.8801,-8.91006 C31.55,-10.4601 33.59,-11.5601 35.97,-12.2 C38.0101,-0.960059 40.07,10.1899 41.7101,18.55 C41.84,19.2399 41.9801,19.91 42.1101,20.58 C37.7101,21.51 33.37,21.4199 29.15,20.31 M54.9,10.1 C53.7301,13.28 51.27,17.35 46.14,19.41 C46.07,18.9899 45.99,18.56 45.9101,18.13 C44.3601,9.36992 42.4301,-1.61006 40.47,-12.87 C50.82,-13.35 55.09,-5.91006 55.9801,-1.08008 C56.45,1.45 56.45,5.88994 54.9,10.1"/>
<path class="FiguredBass" d="M580.126,2636.38 C579.446,2637.12 578.549,2637.49 577.436,2637.49 C576.322,2637.49 575.41,2637.1 574.699,2636.33 C573.988,2635.56 573.632,2634.68 573.632,2633.69 L573.632,2620.42 L560.365,2620.42 C559.252,2620.42 558.34,2620.03 557.628,2619.26 C556.917,2618.49 556.562,2617.61 556.562,2616.62 C556.562,2615.63 556.917,2614.75 557.628,2613.97 C558.34,2613.2 559.252,2612.81 560.365,2612.81 L573.632,2612.81 L573.632,2599.55 C573.632,2598.56 573.988,2597.68 574.699,2596.9 C575.41,2596.13 576.322,2595.74 577.436,2595.74 C578.549,2595.74 579.461,2596.13 580.172,2596.9 C580.884,2597.68 581.239,2598.56 581.239,2599.55 L581.239,2612.81 L594.506,2612.81 C595.619,2612.81 596.531,2613.2 597.243,2613.97 C597.954,2614.75 598.31,2615.63 598.31,2616.62 C598.31,2617.61 597.954,2618.49 597.243,2619.26 C596.531,2620.03 595.619,2620.42 594.506,2620.42 L581.239,2620.42 L581.239,2633.69 C581.239,2634.68 580.868,2635.57 580.126,2636.38 M633.55,2582.11 C628.973,2582.11 625.927,2583.95 624.412,2587.63 C622.896,2591.31 622.139,2596.52 622.139,2603.26 L622.139,2614.2 C625.355,2612.91 628.138,2612.23 630.488,2612.16 C638.529,2612.16 644.853,2613.94 649.461,2617.5 C654.068,2621.05 656.372,2626.34 656.372,2633.36 C656.372,2640.38 654.037,2645.69 649.368,2649.27 C644.698,2652.86 638.405,2654.65 630.488,2654.65 C622.386,2654.65 616.047,2650.9 611.47,2643.38 C606.893,2635.87 604.605,2626.95 604.605,2616.62 C604.605,2606.35 607.264,2597.44 612.583,2589.9 C617.902,2582.35 624.891,2578.58 633.55,2578.58 C639.24,2578.58 644.157,2580.02 648.301,2582.89 C652.445,2585.77 654.517,2589.56 654.517,2594.26 C654.517,2596.98 653.527,2599.33 651.548,2601.31 C649.569,2603.29 647.203,2604.28 644.451,2604.28 C641.698,2604.28 639.333,2603.29 637.354,2601.31 C635.374,2599.33 634.385,2596.98 634.385,2594.26 C634.385,2591.6 635.374,2589.25 637.354,2587.21 C638.034,2586.4 638.993,2585.72 640.23,2585.17 C639.92,2584.36 639.302,2583.74 638.374,2583.31 C637.013,2582.51 635.405,2582.11 633.55,2582.11 M638.096,2620.05 C636.982,2617.14 634.539,2615.69 630.767,2615.69 C626.994,2615.69 624.659,2617.14 623.762,2620.05 C622.865,2622.96 622.417,2627.38 622.417,2633.32 C622.417,2640.31 622.865,2645.01 623.762,2647.42 C624.659,2649.83 626.994,2651.04 630.767,2651.04 C634.539,2651.04 636.982,2649.58 638.096,2646.68 C639.209,2643.77 639.766,2639.33 639.766,2633.36 C639.766,2627.39 639.209,2622.96 638.096,2620.05"/>
<path class="FiguredBass" d="M1869.05,2636.38 C1868.37,2637.12 1867.47,2637.49 1866.36,2637.49 C1865.25,2637.49 1864.33,2637.1 1863.62,2636.33 C1862.91,2635.56 1862.56,2634.68 1862.56,2633.69 L1862.56,2620.42 L1849.29,2620.42 C1848.18,2620.42 1847.26,2620.03 1846.55,2619.26 C1845.84,2618.49 1845.49,2617.61 1845.49,2616.62 C1845.49,2615.63 1845.84,2614.75 1846.55,2613.97 C1847.26,2613.2 1848.18,2612.81 1849.29,2612.81 L1862.56,2612.81 L1862.56,2599.55 C1862.56,2598.56 1862.91,2597.68 1863.62,2596.9 C1864.33,2596.13 1865.25,2595.74 1866.36,2595.74 C1867.47,2595.74 1868.39,2596.13 1869.1,2596.9 C1869.81,2597.68 1870.16,2598.56 1870.16,2599.55 L1870.16,2612.81 L1883.43,2612.81 C1884.54,2612.81 1885.46,2613.2 1886.17,2613.97 C1886.88,2614.75 1887.23,2615.63 1887.23,2616.62 C1887.23,2617.61 1886.88,2618.49 1886.17,2619.26 C1885.46,2620.03 1884.54,2620.42 1883.43,2620.42 L1870.16,2620.42 L1870.16,2633.69 C1870.16,2634.68 1869.79,2635.57 1869.05,2636.38 M1922.47,2582.11 C1917.9,2582.11 1914.85,2583.95 1913.34,2587.63 C1911.82,2591.31 1911.06,2596.52 1911.06,2603.26 L1911.06,2614.2 C1914.28,2612.91 1917.06,2612.23 1919.41,2612.16 C1927.45,2612.16 1933.78,2613.94 1938.38,2617.5 C1942.99,2621.05 1945.3,2626.34 1945.3,2633.36 C1945.3,2640.38 1942.96,2645.69 1938.29,2649.27 C1933.62,2652.86 1927.33,2654.65 1919.41,2654.65 C1911.31,2654.65 1904.97,2650.9 1900.39,2643.38 C1895.82,2635.87 1893.53,2626.95 1893.53,2616.62 C1893.53,2606.35 1896.19,2597.44 1901.51,2589.9 C1906.83,2582.35 1913.81,2578.58 1922.47,2578.58 C1928.16,2578.58 1933.08,2580.02 1937.22,2582.89 C1941.37,2585.77 1943.44,2589.56 1943.44,2594.26 C1943.44,2596.98 1942.45,2599.33 1940.47,2601.31 C1938.49,2603.29 1936.13,2604.28 1933.37,2604.28 C1930.62,2604.28 1928.26,2603.29 1926.28,2601.31 C1924.3,2599.33 1923.31,2596.98 1923.31,2594.26 C1923.31,2591.6 1924.3,2589.25 1926.28,2587.21 C1926.96,2586.4 1927.92,2585.72 1929.15,2585.17 C1928.84,2584.36 1928.23,2583.74 1927.3,2583.31 C1925.94,2582.51 1924.33,2582.11 1922.47,2582.11 M1927.02,2620.05 C1925.91,2617.14 1923.46,2615.69 1919.69,2615.69 C1915.92,2615.69 1913.58,2617.14 1912.69,2620.05 C1911.79,2622.96 1911.34,2627.38 1911.34,2633.32 C1911.34,2640.31 1911.79,2645.01 1912.69,2647.42 C1913.58,2649.83 1915.92,2651.04 1919.69,2651.04 C1923.46,2651.04 1925.91,2649.58 1927.02,2646.68 C1928.13,2643.77 1928.69,2639.33 1928.69,2633.36 C1928.69,2627.39 1928.13,2622.96 1927.02,2620.05"/>
<path class="FiguredBass" d="M3082.86,2636.38 C3082.18,2637.12 3081.28,2637.49 3080.17,2637.49 C3079.05,2637.49 3078.14,2637.1 3077.43,2636.33 C3076.72,2635.56 3076.36,2634.68 3076.36,2633.69 L3076.36,2620.42 L3063.1,2620.42 C3061.98,2620.42 3061.07,2620.03 3060.36,2619.26 C3059.65,2618.49 3059.29,2617.61 3059.29,2616.62 C3059.29,2615.63 3059.65,2614.75 3060.36,2613.97 C3061.07,2613.2 3061.98,2612.81 3063.1,2612.81 L3076.36,2612.81 L3076.36,2599.55 C3076.36,2598.56 3076.72,2597.68 3077.43,2596.9 C3078.14,2596.13 3079.05,2595.74 3080.17,2595.74 C3081.28,2595.74 3082.19,2596.13 3082.9,2596.9 C3083.62,2597.68 3083.97,2598.56 3083.97,2599.55 L3083.97,2612.81 L3097.24,2612.81 C3098.35,2612.81 3099.26,2613.2 3099.97,2613.97 C3100.69,2614.75 3101.04,2615.63 3101.04,2616.62 C3101.04,2617.61 3100.69,2618.49 3099.97,2619.26 C3099.26,2620.03 3098.35,2620.42 3097.24,2620.42 L3083.97,2620.42 L3083.97,2633.69 C3083.97,2634.68 3083.6,2635.57 3082.86,2636.38 M3136.28,2582.11 C3131.7,2582.11 3128.66,2583.95 3127.14,2587.63 C3125.63,2591.31 3124.87,2596.52 3124.87,2603.26 L3124.87,2614.2 C3128.09,2612.91 3130.87,2612.23 3133.22,2612.16 C3141.26,2612.16 3147.58,2613.94 3152.19,2617.5 C3156.8,2621.05 3159.1,2626.34 3159.1,2633.36 C3159.1,2640.38 3156.77,2645.69 3152.1,2649.27 C3147.43,2652.86 3141.14,2654.65 3133.22,2654.65 C3125.12,2654.65 3118.78,2650.9 3114.2,2643.38 C3109.62,2635.87 3107.34,2626.95 3107.34,2616.62 C3107.34,2606.35 3110,2597.44 3115.31,2589.9 C3120.63,2582.35 3127.62,2578.58 3136.28,2578.58 C3141.97,2578.58 3146.89,2580.02 3151.03,2582.89 C3155.18,2585.77 3157.25,2589.56 3157.25,2594.26 C3157.25,2596.98 3156.26,2599.33 3154.28,2601.31 C3152.3,2603.29 3149.93,2604.28 3147.18,2604.28 C3144.43,2604.28 3142.06,2603.29 3140.09,2601.31 C3138.11,2599.33 3137.12,2596.98 3137.12,2594.26 C3137.12,2591.6 3138.11,2589.25 3140.09,2587.21 C3140.77,2586.4 3141.72,2585.72 3142.96,2585.17 C3142.65,2584.36 3142.03,2583.74 3141.11,2583.31 C3139.75,2582.51 3138.14,2582.11 3136.28,2582.11 M3140.83,2620.05 C3139.71,2617.14 3137.27,2615.69 3133.5,2615.69 C3129.73,2615.69 3127.39,2617.14 3126.49,2620.05 C3125.6,2622.96 3125.15,2627.38 3125.15,2633.32 C3125.15,2640.31 3125.6,2645.01 3126.49,2647.42 C3127.39,2649.83 3129.73,2651.04 3133.5,2651.04 C3137.27,2651.04 3139.71,2649.58 3140.83,2646.68 C3141.94,2643.77 3142.5,2639.33 3142.5,2633.36 C3142.5,2627.39 3141.94,2622.96 3140.83,2620.05"/>
<path class="FiguredBass" d="M632.9,1767.33 C635.251,1767.33 637.725,1766.98 640.322,1766.3 L644.497,1765.19 C645.301,1765.19 645.935,1765.5 646.399,1766.12 C646.863,1766.74 646.816,1767.29 646.26,1767.79 L603.12,1817.98 L628.447,1817.98 L628.447,1798.13 C628.447,1796.7 628.834,1795.61 629.607,1794.83 C630.38,1794.06 631.37,1793.44 632.576,1792.98 C633.782,1792.51 635.359,1791.14 637.307,1788.85 C639.255,1786.56 641.126,1783.47 642.92,1779.57 C643.229,1778.95 643.693,1778.64 644.312,1778.64 C645.61,1778.64 646.26,1779.35 646.26,1780.78 L646.26,1817.98 L657.207,1817.98 C658.753,1817.98 659.526,1818.69 659.526,1820.11 C659.526,1821.66 658.753,1822.43 657.207,1822.43 L646.26,1822.43 L646.26,1823.64 C646.26,1827.47 647.28,1830.81 649.321,1833.66 C651.362,1836.5 653.991,1837.93 657.207,1837.93 C658.444,1837.93 659.063,1838.48 659.063,1839.6 C659.063,1840.83 658.444,1841.45 657.207,1841.45 C654.981,1841.45 651.672,1841.13 647.28,1840.48 C642.889,1839.83 639.565,1839.5 637.307,1839.5 C635.05,1839.5 631.725,1839.83 627.334,1840.48 C622.943,1841.13 619.634,1841.45 617.407,1841.45 C616.17,1841.45 615.552,1840.83 615.552,1839.6 C615.552,1838.48 616.17,1837.93 617.407,1837.93 C620.623,1837.93 623.267,1836.5 625.339,1833.66 C627.411,1830.81 628.447,1827.47 628.447,1823.64 L628.447,1822.43 L603.12,1822.43 C601.512,1822.43 600.322,1822.05 599.548,1821.27 C598.775,1820.5 598.389,1819.71 598.389,1818.91 C598.389,1818.6 599.115,1817.53 600.569,1815.71 C602.022,1813.88 603.801,1811.45 605.903,1808.42 C608.006,1805.39 610.094,1801.95 612.166,1798.08 C614.238,1794.21 616,1789.58 617.454,1784.16 C618.907,1778.75 619.634,1773.29 619.634,1767.79 C619.634,1766.18 620.314,1765.38 621.675,1765.38 C621.86,1765.38 622.51,1765.53 623.623,1765.84 C624.736,1766.15 626.159,1766.47 627.891,1766.81 C629.622,1767.15 631.292,1767.33 632.9,1767.33"/>
<path class="FiguredBass" d="M645.425,1906.84 C645.425,1907.83 645.982,1908.79 647.095,1909.72 C648.208,1910.65 649.43,1911.53 650.759,1912.36 C652.089,1913.2 653.311,1914.78 654.424,1917.1 C655.537,1919.42 656.094,1922.34 656.094,1925.86 C656.094,1932.67 653.527,1937.92 648.394,1941.63 C643.26,1945.35 636.766,1947.2 628.911,1947.2 C622.603,1947.2 617.114,1945.62 612.444,1942.47 C607.774,1939.32 605.44,1935.17 605.44,1930.04 C605.44,1927.32 606.429,1924.95 608.408,1922.94 C610.387,1920.93 612.753,1919.93 615.505,1919.93 C618.258,1919.93 620.593,1920.92 622.51,1922.89 C624.427,1924.87 625.386,1927.25 625.386,1930.04 C625.386,1931.27 624.365,1932.62 622.324,1934.07 C620.283,1935.53 619.263,1936.87 619.263,1938.11 C619.263,1940.03 620.206,1941.43 622.092,1942.33 C623.979,1943.23 626.252,1943.68 628.911,1943.68 C632.375,1943.68 634.833,1941.96 636.287,1938.53 C637.74,1935.09 638.467,1930.87 638.467,1925.86 L638.467,1923.45 C638.467,1920.11 638.359,1917.58 638.142,1915.84 C637.926,1914.11 637.245,1912.57 636.101,1911.2 C634.957,1909.84 633.21,1909.16 630.859,1909.16 L618.706,1909.16 C617.284,1909.16 616.572,1908.39 616.572,1906.84 C616.572,1905.42 617.284,1904.71 618.706,1904.71 L630.859,1904.71 C633.395,1904.71 635.374,1903.75 636.797,1901.83 C637.292,1901.15 637.694,1900.04 638.003,1898.49 C638.312,1896.45 638.467,1893.52 638.467,1889.68 L638.467,1888.48 C638.467,1879.26 635.065,1874.65 628.262,1874.65 C622.262,1874.65 619.263,1876.32 619.263,1879.66 C619.263,1880.78 620.175,1881.97 622,1883.23 C623.824,1884.5 624.736,1885.69 624.736,1886.81 C624.736,1889.22 623.886,1891.29 622.185,1893.02 C620.484,1894.75 618.412,1895.62 615.969,1895.62 C613.526,1895.62 611.47,1894.75 609.8,1893.02 C608.13,1891.29 607.295,1889.22 607.295,1886.81 C607.295,1882.04 609.367,1878.24 613.511,1875.39 C617.655,1872.55 622.572,1871.13 628.262,1871.13 C635.746,1871.13 641.899,1872.56 646.724,1875.44 C651.548,1878.32 653.96,1882.66 653.96,1888.48 C653.96,1892.62 653.527,1895.84 652.661,1898.12 C651.795,1900.41 650.806,1901.8 649.692,1902.3 C648.579,1902.79 647.59,1903.37 646.724,1904.01 C645.858,1904.66 645.425,1905.61 645.425,1906.84"/>
<path class="FiguredBass" d="M633.55,1980.4 C628.973,1980.4 625.927,1982.24 624.412,1985.92 C622.896,1989.6 622.139,1994.81 622.139,2001.55 L622.139,2012.5 C625.355,2011.2 628.138,2010.52 630.488,2010.46 C638.529,2010.46 644.853,2012.24 649.461,2015.8 C654.068,2019.35 656.372,2024.64 656.372,2031.66 C656.372,2038.68 654.037,2043.98 649.368,2047.57 C644.698,2051.16 638.405,2052.95 630.488,2052.95 C622.386,2052.95 616.047,2049.19 611.47,2041.68 C606.893,2034.16 604.605,2025.24 604.605,2014.91 C604.605,2004.65 607.264,1995.74 612.583,1988.2 C617.902,1980.65 624.891,1976.88 633.55,1976.88 C639.24,1976.88 644.157,1978.31 648.301,1981.19 C652.445,1984.07 654.517,1987.85 654.517,1992.56 C654.517,1995.28 653.527,1997.63 651.548,1999.61 C649.569,2001.59 647.203,2002.58 644.451,2002.58 C641.698,2002.58 639.333,2001.59 637.354,1999.61 C635.374,1997.63 634.385,1995.28 634.385,1992.56 C634.385,1989.9 635.374,1987.55 637.354,1985.5 C638.034,1984.7 638.993,1984.02 640.23,1983.46 C639.92,1982.66 639.302,1982.04 638.374,1981.61 C637.013,1980.8 635.405,1980.4 633.55,1980.4 M638.096,2018.35 C636.982,2015.44 634.539,2013.99 630.767,2013.99 C626.994,2013.99 624.659,2015.44 623.762,2018.35 C622.865,2021.25 622.417,2025.68 622.417,2031.61 C622.417,2038.6 622.865,2043.3 623.762,2045.71 C624.659,2048.13 626.994,2049.33 630.767,2049.33 C634.539,2049.33 636.982,2047.88 638.096,2044.97 C639.209,2042.07 639.766,2037.63 639.766,2031.66 C639.766,2025.69 639.209,2021.25 638.096,2018.35"/>
<path class="FiguredBass" d="M1922.47,1768.9 C1917.9,1768.9 1914.85,1770.74 1913.34,1774.42 C1911.82,1778.1 1911.06,1783.31 1911.06,1790.05 L1911.06,1801 C1914.28,1799.7 1917.06,1799.02 1919.41,1798.96 C1927.45,1798.96 1933.78,1800.74 1938.38,1804.3 C1942.99,1807.85 1945.3,1813.14 1945.3,1820.16 C1945.3,1827.18 1942.96,1832.48 1938.29,1836.07 C1933.62,1839.66 1927.33,1841.45 1919.41,1841.45 C1911.31,1841.45 1904.97,1837.69 1900.39,1830.18 C1895.82,1822.66 1893.53,1813.74 1893.53,1803.41 C1893.53,1793.15 1896.19,1784.24 1901.51,1776.7 C1906.83,1769.15 1913.81,1765.38 1922.47,1765.38 C1928.16,1765.38 1933.08,1766.81 1937.22,1769.69 C1941.37,1772.57 1943.44,1776.35 1943.44,1781.06 C1943.44,1783.78 1942.45,1786.13 1940.47,1788.11 C1938.49,1790.09 1936.13,1791.08 1933.37,1791.08 C1930.62,1791.08 1928.26,1790.09 1926.28,1788.11 C1924.3,1786.13 1923.31,1783.78 1923.31,1781.06 C1923.31,1778.4 1924.3,1776.05 1926.28,1774 C1926.96,1773.2 1927.92,1772.52 1929.15,1771.96 C1928.84,1771.16 1928.23,1770.54 1927.3,1770.11 C1925.94,1769.3 1924.33,1768.9 1922.47,1768.9 M1927.02,1806.85 C1925.91,1803.94 1923.46,1802.49 1919.69,1802.49 C1915.92,1802.49 1913.58,1803.94 1912.69,1806.85 C1911.79,1809.75 1911.34,1814.18 1911.34,1820.11 C1911.34,1827.1 1911.79,1831.8 1912.69,1834.21 C1913.58,1836.63 1915.92,1837.83 1919.69,1837.83 C1923.46,1837.83 1925.91,1836.38 1927.02,1833.47 C1928.13,1830.57 1928.69,1826.13 1928.69,1820.16 C1928.69,1814.19 1928.13,1809.75 1927.02,1806.85"/>
<path class="FiguredBass" d="M1921.82,1873.08 C1924.17,1873.08 1926.65,1872.73 1929.25,1872.05 L1933.42,1870.94 C1934.23,1870.94 1934.86,1871.25 1935.32,1871.87 C1935.79,1872.49 1935.74,1873.04 1935.18,1873.54 L1892.04,1923.73 L1917.37,1923.73 L1917.37,1903.88 C1917.37,1902.45 1917.76,1901.36 1918.53,1900.58 C1919.3,1899.81 1920.29,1899.19 1921.5,1898.73 C1922.71,1898.26 1924.28,1896.89 1926.23,1894.6 C1928.18,1892.31 1930.05,1889.22 1931.84,1885.32 C1932.15,1884.7 1932.62,1884.39 1933.24,1884.39 C1934.53,1884.39 1935.18,1885.1 1935.18,1886.53 L1935.18,1923.73 L1946.13,1923.73 C1947.68,1923.73 1948.45,1924.44 1948.45,1925.86 C1948.45,1927.41 1947.68,1928.18 1946.13,1928.18 L1935.18,1928.18 L1935.18,1929.39 C1935.18,1933.22 1936.2,1936.56 1938.25,1939.41 C1940.29,1942.25 1942.91,1943.68 1946.13,1943.68 C1947.37,1943.68 1947.99,1944.23 1947.99,1945.35 C1947.99,1946.58 1947.37,1947.2 1946.13,1947.2 C1943.9,1947.2 1940.6,1946.88 1936.2,1946.23 C1931.81,1945.58 1928.49,1945.25 1926.23,1945.25 C1923.97,1945.25 1920.65,1945.58 1916.26,1946.23 C1911.87,1946.88 1908.56,1947.2 1906.33,1947.2 C1905.09,1947.2 1904.48,1946.58 1904.48,1945.35 C1904.48,1944.23 1905.09,1943.68 1906.33,1943.68 C1909.55,1943.68 1912.19,1942.25 1914.26,1939.41 C1916.34,1936.56 1917.37,1933.22 1917.37,1929.39 L1917.37,1928.18 L1892.04,1928.18 C1890.44,1928.18 1889.25,1927.8 1888.47,1927.02 C1887.7,1926.25 1887.31,1925.46 1887.31,1924.66 C1887.31,1924.35 1888.04,1923.28 1889.49,1921.46 C1890.95,1919.63 1892.72,1917.2 1894.83,1914.17 C1896.93,1911.14 1899.02,1907.7 1901.09,1903.83 C1903.16,1899.96 1904.92,1895.33 1906.38,1889.91 C1907.83,1884.5 1908.56,1879.04 1908.56,1873.54 C1908.56,1871.93 1909.24,1871.13 1910.6,1871.13 C1910.78,1871.13 1911.43,1871.28 1912.55,1871.59 C1913.66,1871.9 1915.08,1872.22 1916.81,1872.56 C1918.55,1872.9 1920.22,1873.08 1921.82,1873.08"/>
<path class="FiguredBass" d="M1934.35,2012.59 C1934.35,2013.58 1934.91,2014.54 1936.02,2015.47 C1937.13,2016.4 1938.35,2017.28 1939.68,2018.11 C1941.01,2018.95 1942.23,2020.53 1943.35,2022.85 C1944.46,2025.17 1945.02,2028.09 1945.02,2031.61 C1945.02,2038.42 1942.45,2043.67 1937.32,2047.38 C1932.18,2051.1 1925.69,2052.95 1917.84,2052.95 C1911.53,2052.95 1906.04,2051.37 1901.37,2048.22 C1896.7,2045.07 1894.36,2040.92 1894.36,2035.79 C1894.36,2033.07 1895.35,2030.7 1897.33,2028.69 C1899.31,2026.68 1901.68,2025.68 1904.43,2025.68 C1907.18,2025.68 1909.52,2026.67 1911.43,2028.64 C1913.35,2030.62 1914.31,2033 1914.31,2035.79 C1914.31,2037.02 1913.29,2038.37 1911.25,2039.82 C1909.21,2041.28 1908.19,2042.62 1908.19,2043.86 C1908.19,2045.78 1909.13,2047.18 1911.02,2048.08 C1912.9,2048.98 1915.18,2049.43 1917.84,2049.43 C1921.3,2049.43 1923.76,2047.71 1925.21,2044.28 C1926.66,2040.84 1927.39,2036.62 1927.39,2031.61 L1927.39,2029.2 C1927.39,2025.86 1927.28,2023.33 1927.07,2021.59 C1926.85,2019.86 1926.17,2018.32 1925.03,2016.95 C1923.88,2015.59 1922.13,2014.91 1919.78,2014.91 L1907.63,2014.91 C1906.21,2014.91 1905.5,2014.14 1905.5,2012.59 C1905.5,2011.17 1906.21,2010.46 1907.63,2010.46 L1919.78,2010.46 C1922.32,2010.46 1924.3,2009.5 1925.72,2007.58 C1926.22,2006.9 1926.62,2005.79 1926.93,2004.24 C1927.24,2002.2 1927.39,1999.27 1927.39,1995.43 L1927.39,1994.23 C1927.39,1985.01 1923.99,1980.4 1917.19,1980.4 C1911.19,1980.4 1908.19,1982.07 1908.19,1985.41 C1908.19,1986.53 1909.1,1987.72 1910.92,1988.98 C1912.75,1990.25 1913.66,1991.44 1913.66,1992.56 C1913.66,1994.97 1912.81,1997.04 1911.11,1998.77 C1909.41,2000.5 1907.34,2001.37 1904.89,2001.37 C1902.45,2001.37 1900.39,2000.5 1898.72,1998.77 C1897.05,1997.04 1896.22,1994.97 1896.22,1992.56 C1896.22,1987.79 1898.29,1983.99 1902.43,1981.14 C1906.58,1978.3 1911.5,1976.88 1917.19,1976.88 C1924.67,1976.88 1930.82,1978.31 1935.65,1981.19 C1940.47,1984.07 1942.88,1988.41 1942.88,1994.23 C1942.88,1998.37 1942.45,2001.59 1941.59,2003.87 C1940.72,2006.16 1939.73,2007.55 1938.62,2008.05 C1937.5,2008.54 1936.51,2009.12 1935.65,2009.76 C1934.78,2010.41 1934.35,2011.36 1934.35,2012.59"/>
<path class="FiguredBass" d="M3148.16,1801.09 C3148.16,1802.08 3148.71,1803.04 3149.83,1803.97 C3150.94,1804.9 3152.16,1805.78 3153.49,1806.61 C3154.82,1807.45 3156.04,1809.03 3157.16,1811.35 C3158.27,1813.67 3158.83,1816.59 3158.83,1820.11 C3158.83,1826.92 3156.26,1832.17 3151.13,1835.88 C3145.99,1839.6 3139.5,1841.45 3131.64,1841.45 C3125.33,1841.45 3119.85,1839.87 3115.18,1836.72 C3110.51,1833.57 3108.17,1829.42 3108.17,1824.29 C3108.17,1821.57 3109.16,1819.2 3111.14,1817.19 C3113.12,1815.18 3115.48,1814.18 3118.24,1814.18 C3120.99,1814.18 3123.32,1815.17 3125.24,1817.14 C3127.16,1819.12 3128.12,1821.5 3128.12,1824.29 C3128.12,1825.52 3127.1,1826.87 3125.06,1828.32 C3123.01,1829.78 3121.99,1831.12 3121.99,1832.36 C3121.99,1834.28 3122.94,1835.68 3124.82,1836.58 C3126.71,1837.48 3128.98,1837.93 3131.64,1837.93 C3135.11,1837.93 3137.56,1836.21 3139.02,1832.78 C3140.47,1829.34 3141.2,1825.12 3141.2,1820.11 L3141.2,1817.7 C3141.2,1814.36 3141.09,1811.83 3140.87,1810.09 C3140.66,1808.36 3139.98,1806.82 3138.83,1805.45 C3137.69,1804.09 3135.94,1803.41 3133.59,1803.41 L3121.44,1803.41 C3120.02,1803.41 3119.3,1802.64 3119.3,1801.09 C3119.3,1799.67 3120.02,1798.96 3121.44,1798.96 L3133.59,1798.96 C3136.13,1798.96 3138.11,1798 3139.53,1796.08 C3140.02,1795.4 3140.43,1794.29 3140.73,1792.74 C3141.04,1790.7 3141.2,1787.77 3141.2,1783.93 L3141.2,1782.73 C3141.2,1773.51 3137.8,1768.9 3130.99,1768.9 C3124.99,1768.9 3121.99,1770.57 3121.99,1773.91 C3121.99,1775.03 3122.91,1776.22 3124.73,1777.48 C3126.56,1778.75 3127.47,1779.94 3127.47,1781.06 C3127.47,1783.47 3126.62,1785.54 3124.92,1787.27 C3123.22,1789 3121.14,1789.87 3118.7,1789.87 C3116.26,1789.87 3114.2,1789 3112.53,1787.27 C3110.86,1785.54 3110.03,1783.47 3110.03,1781.06 C3110.03,1776.29 3112.1,1772.49 3116.24,1769.64 C3120.39,1766.8 3125.3,1765.38 3130.99,1765.38 C3138.48,1765.38 3144.63,1766.81 3149.46,1769.69 C3154.28,1772.57 3156.69,1776.91 3156.69,1782.73 C3156.69,1786.87 3156.26,1790.09 3155.39,1792.37 C3154.53,1794.66 3153.54,1796.05 3152.42,1796.55 C3151.31,1797.04 3150.32,1797.62 3149.46,1798.26 C3148.59,1798.91 3148.16,1799.86 3148.16,1801.09"/>
<path class="FiguredBass" d="M3144.63,1903.41 C3149.58,1898.03 3152.05,1892.84 3152.05,1887.83 C3152.05,1883.74 3150.31,1880.53 3146.81,1878.18 C3143.32,1875.83 3139.13,1874.65 3134.24,1874.65 C3130.78,1874.65 3128.01,1875.73 3125.94,1877.9 C3123.87,1880.06 3122.83,1882.57 3122.83,1885.41 C3122.83,1888.88 3124.34,1891.51 3127.38,1893.3 L3144.63,1903.41 M3149.18,1906.01 C3157.59,1910.9 3161.79,1917.33 3161.79,1925.31 C3161.79,1931.31 3159.23,1936.45 3154.09,1940.75 C3148.96,1945.05 3141.94,1947.2 3133.03,1947.2 C3125.55,1947.2 3119.04,1945.22 3113.51,1941.26 C3107.97,1937.31 3105.2,1932.17 3105.2,1925.86 C3105.2,1923.51 3105.88,1921.13 3107.24,1918.72 C3108.6,1916.31 3109.87,1914.5 3111.05,1913.29 C3112.22,1912.09 3114.14,1910.22 3116.8,1907.68 C3110.61,1903.41 3107.52,1898.03 3107.52,1891.54 C3107.52,1885.97 3109.9,1881.18 3114.67,1877.16 C3119.43,1873.14 3125.95,1871.13 3134.24,1871.13 C3140.86,1871.13 3146.59,1872.63 3151.45,1875.63 C3156.31,1878.63 3158.73,1882.69 3158.73,1887.83 C3158.73,1893.33 3155.55,1899.39 3149.18,1906.01 M3121.34,1910.37 C3115.04,1915.87 3111.88,1921.04 3111.88,1925.86 C3111.88,1930.93 3113.98,1935.17 3118.19,1938.57 C3122.4,1941.97 3127.34,1943.68 3133.03,1943.68 C3136.99,1943.68 3140.16,1942.41 3142.54,1939.87 C3144.92,1937.34 3146.12,1934.4 3146.12,1931.06 C3146.12,1926.79 3144.35,1923.64 3140.83,1921.6 L3121.34,1910.37 "/>
<path class="FiguredBass" d="M3136.28,1980.4 C3131.7,1980.4 3128.66,1982.24 3127.14,1985.92 C3125.63,1989.6 3124.87,1994.81 3124.87,2001.55 L3124.87,2012.5 C3128.09,2011.2 3130.87,2010.52 3133.22,2010.46 C3141.26,2010.46 3147.58,2012.24 3152.19,2015.8 C3156.8,2019.35 3159.1,2024.64 3159.1,2031.66 C3159.1,2038.68 3156.77,2043.98 3152.1,2047.57 C3147.43,2051.16 3141.14,2052.95 3133.22,2052.95 C3125.12,2052.95 3118.78,2049.19 3114.2,2041.68 C3109.62,2034.16 3107.34,2025.24 3107.34,2014.91 C3107.34,2004.65 3110,1995.74 3115.31,1988.2 C3120.63,1980.65 3127.62,1976.88 3136.28,1976.88 C3141.97,1976.88 3146.89,1978.31 3151.03,1981.19 C3155.18,1984.07 3157.25,1987.85 3157.25,1992.56 C3157.25,1995.28 3156.26,1997.63 3154.28,1999.61 C3152.3,2001.59 3149.93,2002.58 3147.18,2002.58 C3144.43,2002.58 3142.06,2001.59 3140.09,1999.61 C3138.11,1997.63 3137.12,1995.28 3137.12,1992.56 C3137.12,1989.9 3138.11,1987.55 3140.09,1985.5 C3140.77,1984.7 3141.72,1984.02 3142.96,1983.46 C3142.65,1982.66 3142.03,1982.04 3141.11,1981.61 C3139.75,1980.8 3138.14,1980.4 3136.28,1980.4 M3140.83,2018.35 C3139.71,2015.44 3137.27,2013.99 3133.5,2013.99 C3129.73,2013.99 3127.39,2015.44 3126.49,2018.35 C3125.6,2021.25 3125.15,2025.68 3125.15,2031.61 C3125.15,2038.6 3125.6,2043.3 3126.49,2045.71 C3127.39,2048.13 3129.73,2049.33 3133.5,2049.33 C3137.27,2049.33 3139.71,2047.88 3140.83,2044.97 C3141.94,2042.07 3142.5,2037.63 3142.5,2031.66 C3142.5,2025.69 3141.94,2021.25 3140.83,2018.35"/>
<path class="FiguredBass" d="M3135.63,2084.58 C3137.98,2084.58 3140.46,2084.23 3143.05,2083.55 L3147.23,2082.44 C3148.03,2082.44 3148.67,2082.75 3149.13,2083.37 C3149.59,2083.99 3149.55,2084.54 3148.99,2085.04 L3105.85,2135.23 L3131.18,2135.23 L3131.18,2115.38 C3131.18,2113.95 3131.57,2112.86 3132.34,2112.08 C3133.11,2111.31 3134.1,2110.69 3135.31,2110.23 C3136.51,2109.76 3138.09,2108.39 3140.04,2106.1 C3141.99,2103.81 3143.86,2100.72 3145.65,2096.82 C3145.96,2096.2 3146.42,2095.89 3147.04,2095.89 C3148.34,2095.89 3148.99,2096.6 3148.99,2098.03 L3148.99,2135.23 L3159.94,2135.23 C3161.48,2135.23 3162.26,2135.94 3162.26,2137.36 C3162.26,2138.91 3161.48,2139.68 3159.94,2139.68 L3148.99,2139.68 L3148.99,2140.89 C3148.99,2144.72 3150.01,2148.06 3152.05,2150.91 C3154.09,2153.75 3156.72,2155.18 3159.94,2155.18 C3161.18,2155.18 3161.79,2155.73 3161.79,2156.85 C3161.79,2158.08 3161.18,2158.7 3159.94,2158.7 C3157.71,2158.7 3154.4,2158.38 3150.01,2157.73 C3145.62,2157.08 3142.3,2156.75 3140.04,2156.75 C3137.78,2156.75 3134.46,2157.08 3130.07,2157.73 C3125.67,2158.38 3122.37,2158.7 3120.14,2158.7 C3118.9,2158.7 3118.28,2158.08 3118.28,2156.85 C3118.28,2155.73 3118.9,2155.18 3120.14,2155.18 C3123.36,2155.18 3126,2153.75 3128.07,2150.91 C3130.14,2148.06 3131.18,2144.72 3131.18,2140.89 L3131.18,2139.68 L3105.85,2139.68 C3104.24,2139.68 3103.05,2139.3 3102.28,2138.52 C3101.51,2137.75 3101.12,2136.96 3101.12,2136.16 C3101.12,2135.85 3101.85,2134.78 3103.3,2132.96 C3104.75,2131.13 3106.53,2128.7 3108.63,2125.67 C3110.74,2122.64 3112.83,2119.2 3114.9,2115.33 C3116.97,2111.46 3118.73,2106.83 3120.19,2101.41 C3121.64,2096 3122.37,2090.54 3122.37,2085.04 C3122.37,2083.43 3123.05,2082.63 3124.41,2082.63 C3124.59,2082.63 3125.24,2082.78 3126.35,2083.09 C3127.47,2083.4 3128.89,2083.72 3130.62,2084.06 C3132.35,2084.4 3134.02,2084.58 3135.63,2084.58"/>
<polyline class="FretDiagram" stroke="#fc0107" stroke-width="4.76" stroke-linejoin="bevel" points="529.931,231.247 743.039,231.247"/>
<polyline class="FretDiagram" stroke="#fc0107" stroke-width="4.76" stroke-linejoin="bevel" points="532.312,219.341 532.312,445.546"/>
<polyline class="FretDiagram" stroke="#fc0107" stroke-width="4.76" stroke-linejoin="bevel" points="573.981,219.341 573.981,445.546"/>
<polyline class="FretDiagram" stroke="#fc0107" stroke-width="4.76" stroke-linejoin="bevel" points="615.65,219.341 615.65,445.546"/>
<polyline class="FretDiagram" stroke="#fc0107" stroke-width="4.76" stroke-linejoin="bevel" points="657.32,219.341 657.32,445.546"/>
<polyline class="FretDiagram" stroke="#fc0107" stroke-width="4.76" stroke-linejoin="bevel" points="698.989,219.341 698.989,445.546"/>
<polyline class="FretDiagram" stroke="#fc0107" stroke-width="4.76" stroke-linejoin="bevel" points="740.658,219.341 740.658,445.546"/>
<polyline class="FretDiagram" stroke="#fc0107" stroke-width="4.76" stroke-linejoin="bevel" points="532.312,278.869 740.658,278.869"/>
<polyline class="FretDiagram" stroke="#fc0107" stroke-width="4.76" stroke-linejoin="bevel" points="532.312,326.491 740.658,326.491"/>
<polyline class="FretDiagram" stroke="#fc0107" stroke-width="4.76" stroke-linejoin="bevel" points="532.312,374.113 740.658,374.113"/>
<polyline class="FretDiagram" stroke="#fc0107" stroke-width="4.76" stroke-linejoin="bevel" points="532.312,421.735 740.658,421.735"/>
<path class="FretDiagram" fill="#fc0107" fill-rule="evenodd" d="M630.235,255.058 C630.235,263.113 623.705,269.642 615.65,269.642 C607.596,269.642 601.066,263.113 601.066,255.058 C601.066,247.003 607.596,240.474 615.65,240.474 C623.705,240.474 630.235,247.003 630.235,255.058"/>
<path class="FretDiagram" fill="#fc0107" fill-rule="evenodd" d="M671.904,302.68 C671.904,310.735 665.374,317.264 657.32,317.264 C649.265,317.264 642.735,310.735 642.735,302.68 C642.735,294.625 649.265,288.096 657.32,288.096 C665.374,288.096 671.904,294.625 671.904,302.68"/>
<path class="FretDiagram" fill="#fc0107" fill-rule="evenodd" d="M713.573,255.058 C713.573,263.113 707.044,269.642 698.989,269.642 C690.934,269.642 684.405,263.113 684.405,255.058 C684.405,247.003 690.934,240.474 698.989,240.474 C707.044,240.474 713.573,247.003 713.573,255.058"/>
<path class="FretDiagram" fill="#fc0107" fill-rule="evenodd" d="M755.242,302.68 C755.242,310.735 748.713,317.264 740.658,317.264 C732.604,317.264 726.074,310.735 726.074,302.68 C726.074,294.625 732.604,288.096 740.658,288.096 C748.713,288.096 755.242,294.625 755.242,302.68"/>
<polyline class="FretDiagram" fill="none" stroke="#fc0107" stroke-width="6.86" stroke-linecap="round" stroke-linejoin="bevel" points="515.644,166.957 548.979,200.293"/>
<polyline class="FretDiagram" fill="none" stroke="#fc0107" stroke-width="6.86" stroke-linecap="round" stroke-linejoin="bevel" points="515.644,200.293 548.979,166.957"/>
<polyline class="FretDiagram" fill="none" stroke="#fc0107" stroke-width="6.86" stroke-linecap="round" stroke-linejoin="bevel" points="557.313,166.957 590.649,200.293"/>
<polyline class="FretDiagram" fill="none" stroke="#fc0107" stroke-width="6.86" stroke-linecap="round" stroke-linejoin="bevel" points="557.313,200.293 590.649,166.957"/>
<path class="FretDiagram" fill="#fc0107" d="M467.593,244.324 C468.036,228.744 475.446,220.954 489.823,220.954 C496.22,220.954 501.413,222.791 505.403,226.464 C509.393,230.138 511.388,234.888 511.388,240.714 C511.388,249.074 506.638,255.851 497.138,261.044 L487.638,266.174 C483.521,268.391 480.576,270.544 478.803,272.634 C477.03,274.724 475.921,277.194 475.478,280.044 L510.913,280.044 L510.913,288.309 L466.073,288.309 C466.453,280.899 467.941,275.184 470.538,271.162 C473.135,267.14 477.948,263.134 484.978,259.144 L493.718,254.204 C499.798,250.721 502.838,246.288 502.838,240.904 C502.838,237.294 501.571,234.286 499.038,231.879 C496.505,229.473 493.338,228.269 489.538,228.269 C481.115,228.269 476.586,233.621 475.953,244.324 L467.593,244.324 "/>
<polyline class="FretDiagram" fill="#fc0107" stroke="#fc02ff" stroke-width="4.76" stroke-linejoin="bevel" points="1813.13,231.247 2026.24,231.247"/>
<polyline class="FretDiagram" fill="#fc0107" stroke="#fc02ff" stroke-width="4.76" stroke-linejoin="bevel" points="1815.52,219.341 1815.52,445.546"/>
<polyline class="FretDiagram" fill="#fc0107" stroke="#fc02ff" stroke-width="4.76" stroke-linejoin="bevel" points="1857.18,219.341 1857.18,445.546"/>
<polyline class="FretDiagram" fill="#fc0107" stroke="#fc02ff" stroke-width="4.76" stroke-linejoin="bevel" points="1898.85,219.341 1898.85,445.546"/>
<polyline class="FretDiagram" fill="#fc0107" stroke="#fc02ff" stroke-width="4.76" stroke-linejoin="bevel" points="1940.52,219.341 1940.52,445.546"/>
<polyline class="FretDiagram" fill="#fc0107" stroke="#fc02ff" stroke-width="4.76" stroke-linejoin="bevel" points="1982.19,219.341 1982.19,445.546"/>
<polyline class="FretDiagram" fill="#fc0107" stroke="#fc02ff" stroke-width="4.76" stroke-linejoin="bevel" points="2023.86,219.341 2023.86,445.546"/>
<polyline class="FretDiagram" fill="#fc0107" stroke="#fc02ff" stroke-width="4.76" stroke-linejoin="bevel" points="1815.52,278.869 2023.86,278.869"/>
<polyline class="FretDiagram" fill="#fc0107" stroke="#fc02ff" stroke-width="4.76" stroke-linejoin="bevel" points="1815.52,326.491 2023.86,326.491"/>
<polyline class="FretDiagram" fill="#fc0107" stroke="#fc02ff" stroke-width="4.76" stroke-linejoin="bevel" points="1815.52,374.113 2023.86,374.113"/>
<polyline class="FretDiagram" fill="#fc0107" stroke="#fc02ff" stroke-width="4.76" stroke-linejoin="bevel" points="1815.52,421.735 2023.86,421.735"/>
<path class="FretDiagram" fill="#fc02ff" fill-rule="evenodd" d="M1996.78,302.68 C1996.78,310.735 1990.25,317.264 1982.19,317.264 C1974.14,317.264 1967.61,310.735 1967.61,302.68 C1967.61,294.625 1974.14,288.096 1982.19,288.096 C1990.25,288.096 1996.78,294.625 1996.78,302.68"/>
<polyline class="FretDiagram" fill="none" stroke="#fc02ff" stroke-width="6.86" stroke-linecap="round" stroke-linejoin="bevel" points="1798.85,166.957 1832.18,200.293"/>
<polyline class="FretDiagram" fill="none" stroke="#fc02ff" stroke-width="6.86" stroke-linecap="round" stroke-linejoin="bevel" points="1798.85,200.293 1832.18,166.957"/>
<path class="FretDiagram" fill="none" stroke="#fc02ff" stroke-width="6.86" stroke-linecap="round" stroke-linejoin="bevel" fill-rule="evenodd" d="M1873.85,183.625 C1873.85,192.83 1866.39,200.293 1857.18,200.293 C1847.98,200.293 1840.52,192.83 1840.52,183.625 C1840.52,174.42 1847.98,166.957 1857.18,166.957 C1866.39,166.957 1873.85,174.42 1873.85,183.625"/>
<path class="FretDiagram" fill="none" stroke="#fc02ff" stroke-width="6.86" stroke-linecap="round" stroke-linejoin="bevel" fill-rule="evenodd" d="M1915.52,183.625 C1915.52,192.83 1908.06,200.293 1898.85,200.293 C1889.65,200.293 1882.19,192.83 1882.19,183.625 C1882.19,174.42 1889.65,166.957 1898.85,166.957 C1908.06,166.957 1915.52,174.42 1915.52,183.625"/>
<path class="FretDiagram" fill="none" stroke="#fc02ff" stroke-width="6.86" stroke-linecap="round" stroke-linejoin="bevel" fill-rule="evenodd" d="M1957.19,183.625 C1957.19,192.83 1949.73,200.293 1940.52,200.293 C1931.32,200.293 1923.86,192.83 1923.86,183.625 C1923.86,174.42 1931.32,166.957 1940.52,166.957 C1949.73,166.957 1957.19,174.42 1957.19,183.625"/>
<polyline class="FretDiagram" fill="none" stroke="#fc02ff" stroke-width="6.86" stroke-linecap="round" stroke-linejoin="bevel" points="2007.19,166.957 2040.53,200.293"/>
<polyline class="FretDiagram" fill="none" stroke="#fc02ff" stroke-width="6.86" stroke-linecap="round" stroke-linejoin="bevel" points="2007.19,200.293 2040.53,166.957"/>
<polyline class="FretDiagram" fill="none" stroke="#fc02ff" stroke-width="29.17" stroke-linecap="round" stroke-linejoin="bevel" points="1857.18,255.058 2023.86,255.058"/>
<path class="FretDiagram" fill="#fc02ff" d="M1791.27,220.954 L1791.27,229.219 L1763.24,229.219 L1760.58,248.029 C1764.32,245.306 1768.47,243.944 1773.03,243.944 C1779.49,243.944 1784.73,246.019 1788.75,250.167 C1792.77,254.315 1794.78,259.714 1794.78,266.364 C1794.78,273.458 1792.63,279.253 1788.32,283.749 C1784.02,288.246 1778.47,290.494 1771.7,290.494 C1769.1,290.494 1766.71,290.209 1764.52,289.639 C1762.34,289.069 1760.53,288.389 1759.11,287.597 C1757.68,286.805 1756.39,285.76 1755.21,284.462 C1754.04,283.164 1753.16,282.024 1752.55,281.042 C1751.95,280.06 1751.38,278.825 1750.84,277.337 C1750.31,275.849 1749.97,274.819 1749.85,274.249 C1749.72,273.679 1749.56,272.856 1749.37,271.779 L1757.73,271.779 C1759.7,279.316 1764.29,283.084 1771.51,283.084 C1776.07,283.084 1779.66,281.691 1782.29,278.904 C1784.92,276.118 1786.23,272.318 1786.23,267.504 C1786.23,262.501 1784.9,258.559 1782.24,255.677 C1779.58,252.795 1776,251.354 1771.51,251.354 C1768.91,251.354 1766.69,251.814 1764.86,252.732 C1763.02,253.65 1761.12,255.281 1759.16,257.624 L1751.46,257.624 L1756.5,220.954 L1791.27,220.954 "/>
<polyline class="FretDiagram" fill="#fc02ff" stroke="#fc02ff" stroke-width="4.76" stroke-linejoin="bevel" points="2360.15,231.247 2573.26,231.247"/>
<polyline class="FretDiagram" fill="#fc02ff" stroke="#fc02ff" stroke-width="4.76" stroke-linejoin="bevel" points="2362.53,219.341 2362.53,445.546"/>
<polyline class="FretDiagram" fill="#fc02ff" stroke="#fc02ff" stroke-width="4.76" stroke-linejoin="bevel" points="2404.2,219.341 2404.2,445.546"/>
<polyline class="FretDiagram" fill="#fc02ff" stroke="#fc02ff" stroke-width="4.76" stroke-linejoin="bevel" points="2445.87,219.341 2445.87,445.546"/>
<polyline class="FretDiagram" fill="#fc02ff" stroke="#fc02ff" stroke-width="4.76" stroke-linejoin="bevel" points="2487.54,219.341 2487.54,445.546"/>
<polyline class="FretDiagram" fill="#fc02ff" stroke="#fc02ff" stroke-width="4.76" stroke-linejoin="bevel" points="2529.21,219.341 2529.21,445.546"/>
<polyline class="FretDiagram" fill="#fc02ff" stroke="#fc02ff" stroke-width="4.76" stroke-linejoin="bevel" points="2570.88,219.341 2570.88,445.546"/>
<polyline class="FretDiagram" fill="#fc02ff" stroke="#fc02ff" stroke-width="4.76" stroke-linejoin="bevel" points="2362.53,278.869 2570.88,278.869"/>
<polyline class="FretDiagram" fill="#fc02ff" stroke="#fc02ff" stroke-width="4.76" stroke-linejoin="bevel" points="2362.53,326.491 2570.88,326.491"/>
<polyline class="FretDiagram" fill="#fc02ff" stroke="#fc02ff" stroke-width="4.76" stroke-linejoin="bevel" points="2362.53,374.113 2570.88,374.113"/>
<polyline class="FretDiagram" fill="#fc02ff" stroke="#fc02ff" stroke-width="4.76" stroke-linejoin="bevel" points="2362.53,421.735 2570.88,421.735"/>
<path class="FretDiagram" fill="#fc02ff" fill-rule="evenodd" d="M2418.79,350.302 C2418.79,358.357 2412.26,364.886 2404.2,364.886 C2396.15,364.886 2389.62,358.357 2389.62,350.302 C2389.62,342.247 2396.15,335.718 2404.2,335.718 C2412.26,335.718 2418.79,342.247 2418.79,350.302"/>
<path class="FretDiagram" fill="#fc02ff" fill-rule="evenodd" d="M2502.13,350.302 C2502.13,358.357 2495.6,364.886 2487.54,364.886 C2479.49,364.886 2472.96,358.357 2472.96,350.302 C2472.96,342.247 2479.49,335.718 2487.54,335.718 C2495.6,335.718 2502.13,342.247 2502.13,350.302"/>
<polyline class="FretDiagram" fill="none" stroke="#fc02ff" stroke-width="6.86" stroke-linecap="round" stroke-linejoin="bevel" points="2345.87,166.957 2379.2,200.293"/>
<polyline class="FretDiagram" fill="none" stroke="#fc02ff" stroke-width="6.86" stroke-linecap="round" stroke-linejoin="bevel" points="2345.87,200.293 2379.2,166.957"/>
<path class="FretDiagram" fill="none" stroke="#fc02ff" stroke-width="6.86" stroke-linecap="round" stroke-linejoin="bevel" fill-rule="evenodd" d="M2462.54,183.625 C2462.54,192.83 2455.08,200.293 2445.87,200.293 C2436.67,200.293 2429.2,192.83 2429.2,183.625 C2429.2,174.42 2436.67,166.957 2445.87,166.957 C2455.08,166.957 2462.54,174.42 2462.54,183.625"/>
<path class="FretDiagram" fill="none" stroke="#fc02ff" stroke-width="6.86" stroke-linecap="round" stroke-linejoin="bevel" fill-rule="evenodd" d="M2545.88,183.625 C2545.88,192.83 2538.42,200.293 2529.21,200.293 C2520.01,200.293 2512.54,192.83 2512.54,183.625 C2512.54,174.42 2520.01,166.957 2529.21,166.957 C2538.42,166.957 2545.88,174.42 2545.88,183.625"/>
<path class="FretDiagram" fill="none" stroke="#fc02ff" stroke-width="6.86" stroke-linecap="round" stroke-linejoin="bevel" fill-rule="evenodd" d="M2587.55,183.625 C2587.55,192.83 2580.09,200.293 2570.88,200.293 C2561.67,200.293 2554.21,192.83 2554.21,183.625 C2554.21,174.42 2561.67,166.957 2570.88,166.957 C2580.09,166.957 2587.55,174.42 2587.55,183.625"/>
<polyline class="FretDiagram" fill="none" stroke="#fc02ff" stroke-width="29.17" stroke-linecap="round" stroke-linejoin="bevel" points="2404.2,255.058 2570.88,255.058"/>
<path class="FretDiagram" fill="#fc02ff" d="M2318.71,228.269 C2313.9,228.269 2310.59,229.584 2308.79,232.212 C2306.98,234.84 2306.02,238.339 2305.89,242.709 L2297.53,242.709 C2297.85,228.206 2304.88,220.954 2318.62,220.954 C2325.02,220.954 2330.04,222.601 2333.68,225.894 C2337.32,229.188 2339.14,233.716 2339.14,239.479 C2339.14,246.319 2336,250.974 2329.73,253.444 C2333.79,254.838 2336.7,256.785 2338.47,259.287 C2340.25,261.789 2341.13,265.193 2341.13,269.499 C2341.13,275.896 2339.06,280.994 2334.91,284.794 C2330.76,288.594 2325.24,290.494 2318.33,290.494 C2304.53,290.494 2297.12,283.243 2296.1,268.739 L2304.46,268.739 C2304.78,273.616 2306.08,277.226 2308.36,279.569 C2310.64,281.913 2314.06,283.084 2318.62,283.084 C2322.99,283.084 2326.41,281.897 2328.88,279.522 C2331.35,277.147 2332.58,273.838 2332.58,269.594 C2332.58,261.424 2327.93,257.339 2318.62,257.339 L2315.1,257.434 L2314.06,257.434 L2314.06,250.309 C2320.08,250.183 2324.34,249.423 2326.84,248.029 C2329.34,246.636 2330.59,243.881 2330.59,239.764 C2330.59,236.218 2329.53,233.415 2327.41,231.357 C2325.29,229.299 2322.39,228.269 2318.71,228.269"/>
<polyline class="FretDiagram" fill="#fc02ff" stroke="#0000ff" stroke-width="4.76" stroke-linejoin="bevel" points="3032.66,206.022 3245.77,206.022"/>
<polyline class="FretDiagram" fill="#fc02ff" stroke="#0000ff" stroke-width="4.76" stroke-linejoin="bevel" points="3035.04,194.117 3035.04,420.321"/>
<polyline class="FretDiagram" fill="#fc02ff" stroke="#0000ff" stroke-width="4.76" stroke-linejoin="bevel" points="3076.71,194.117 3076.71,420.321"/>
<polyline class="FretDiagram" fill="#fc02ff" stroke="#0000ff" stroke-width="4.76" stroke-linejoin="bevel" points="3118.38,194.117 3118.38,420.321"/>
<polyline class="FretDiagram" fill="#fc02ff" stroke="#0000ff" stroke-width="4.76" stroke-linejoin="bevel" points="3160.05,194.117 3160.05,420.321"/>
<polyline class="FretDiagram" fill="#fc02ff" stroke="#0000ff" stroke-width="4.76" stroke-linejoin="bevel" points="3201.72,194.117 3201.72,420.321"/>
<polyline class="FretDiagram" fill="#fc02ff" stroke="#0000ff" stroke-width="4.76" stroke-linejoin="bevel" points="3243.39,194.117 3243.39,420.321"/>
<polyline class="FretDiagram" fill="#fc02ff" stroke="#0000ff" stroke-width="4.76" stroke-linejoin="bevel" points="3035.04,253.644 3243.39,253.644"/>
<polyline class="FretDiagram" fill="#fc02ff" stroke="#0000ff" stroke-width="4.76" stroke-linejoin="bevel" points="3035.04,301.266 3243.39,301.266"/>
<polyline class="FretDiagram" fill="#fc02ff" stroke="#0000ff" stroke-width="4.76" stroke-linejoin="bevel" points="3035.04,348.888 3243.39,348.888"/>
<polyline class="FretDiagram" fill="#fc02ff" stroke="#0000ff" stroke-width="4.76" stroke-linejoin="bevel" points="3035.04,396.51 3243.39,396.51"/>
<path class="FretDiagram" fill="#0000ff" fill-rule="evenodd" d="M3132.97,325.077 C3132.97,333.132 3126.44,339.661 3118.38,339.661 C3110.33,339.661 3103.8,333.132 3103.8,325.077 C3103.8,317.023 3110.33,310.493 3118.38,310.493 C3126.44,310.493 3132.97,317.023 3132.97,325.077"/>
<path class="FretDiagram" fill="#0000ff" fill-rule="evenodd" d="M3174.64,277.455 C3174.64,285.51 3168.11,292.039 3160.05,292.039 C3152,292.039 3145.47,285.51 3145.47,277.455 C3145.47,269.401 3152,262.871 3160.05,262.871 C3168.11,262.871 3174.64,269.401 3174.64,277.455"/>
<path class="FretDiagram" fill="#0000ff" fill-rule="evenodd" d="M3216.3,325.077 C3216.3,333.132 3209.78,339.661 3201.72,339.661 C3193.67,339.661 3187.14,333.132 3187.14,325.077 C3187.14,317.023 3193.67,310.493 3201.72,310.493 C3209.78,310.493 3216.3,317.023 3216.3,325.077"/>
<path class="FretDiagram" fill="none" stroke="#0000ff" stroke-width="6.86" stroke-linecap="round" stroke-linejoin="bevel" fill-rule="evenodd" d="M3051.71,158.4 C3051.71,167.605 3044.25,175.068 3035.04,175.068 C3025.84,175.068 3018.38,167.605 3018.38,158.4 C3018.38,149.195 3025.84,141.732 3035.04,141.732 C3044.25,141.732 3051.71,149.195 3051.71,158.4"/>
<path class="FretDiagram" fill="none" stroke="#0000ff" stroke-width="6.86" stroke-linecap="round" stroke-linejoin="bevel" fill-rule="evenodd" d="M3093.38,158.4 C3093.38,167.605 3085.92,175.068 3076.71,175.068 C3067.51,175.068 3060.04,167.605 3060.04,158.4 C3060.04,149.195 3067.51,141.732 3076.71,141.732 C3085.92,141.732 3093.38,149.195 3093.38,158.4"/>
<path class="FretDiagram" fill="none" stroke="#0000ff" stroke-width="6.86" stroke-linecap="round" stroke-linejoin="bevel" fill-rule="evenodd" d="M3260.06,158.4 C3260.06,167.605 3252.6,175.068 3243.39,175.068 C3234.18,175.068 3226.72,167.605 3226.72,158.4 C3226.72,149.195 3234.18,141.732 3243.39,141.732 C3252.6,141.732 3260.06,149.195 3260.06,158.4"/>
<polyline class="FretDiagram" fill="none" stroke="#0000ff" stroke-width="29.17" stroke-linecap="round" stroke-linejoin="bevel" points="3035.04,229.833 3243.39,229.833"/>
<path class="FretDiagram" fill="#0000ff" d="M3010.79,195.73 L3010.79,203.995 L2982.77,203.995 L2980.11,222.805 C2983.85,220.081 2987.99,218.72 2992.55,218.72 C2999.01,218.72 3004.26,220.794 3008.28,224.942 C3012.3,229.09 3014.31,234.49 3014.31,241.14 C3014.31,248.233 3012.16,254.028 3007.85,258.525 C3003.54,263.021 2998,265.27 2991.22,265.27 C2988.63,265.27 2986.24,264.985 2984.05,264.415 C2981.87,263.845 2980.06,263.164 2978.64,262.372 C2977.21,261.58 2975.91,260.535 2974.74,259.237 C2973.57,257.939 2972.68,256.799 2972.08,255.817 C2971.48,254.835 2970.91,253.6 2970.37,252.112 C2969.83,250.624 2969.5,249.595 2969.37,249.025 C2969.25,248.455 2969.09,247.631 2968.9,246.555 L2977.26,246.555 C2979.22,254.091 2983.81,257.86 2991.03,257.86 C2995.59,257.86 2999.19,256.466 3001.82,253.68 C3004.45,250.893 3005.76,247.093 3005.76,242.28 C3005.76,237.276 3004.43,233.334 3001.77,230.452 C2999.11,227.57 2995.53,226.13 2991.03,226.13 C2988.44,226.13 2986.22,226.589 2984.38,227.507 C2982.55,228.425 2980.65,230.056 2978.68,232.4 L2970.99,232.4 L2976.02,195.73 L3010.79,195.73 "/>
<path class="Bracket" transform="matrix(8.6315,0,0,10.5131,76.1283,2446.92)" d="M0.92002,-50 C2.69004,-51.88 6.2,-55.8 6.2,-63 C6.2,-72.1 2.25996,-81.32 2.25996,-86.97 C2.25996,-93.06 5.84004,-98.84 5.95,-99 C6.05996,-99.16 6.05,-99.39 5.94004,-99.46 C5.82998,-99.53 5.62002,-99.47 5.49004,-99.32 C5.35996,-99.17 0,-93.75 0,-85.6 C0,-76.75 3.5,-70.58 3.5,-59.07 C3.5,-56.89 2.55996,-53.36 0.1,-50.33 C-0.0799805,-50.17 -0.1,-49.89 0.0599609,-49.7 L0.0700195,-49.69 L0.1,-49.66 C2.55996,-46.63 3.5,-43.1 3.5,-40.92 C3.5,-29.4 0,-23.24 0,-14.39 C0,-6.25 5.35996,-0.8 5.49004,-0.659961 C5.62002,-0.52002 5.8,-0.42998 5.94004,-0.52002 C6.07998,-0.609961 6.07998,-0.77998 5.95,-0.97998 C5.82002,-1.17998 2.25996,-6.92002 2.25996,-13.01 C2.25996,-18.66 6.2,-27.9 6.2,-37 C6.2,-44.3 2.69004,-48.12 0.92002,-50"/>
</svg>
