<?xml version="1.0" encoding="UTF-8" standalone="no"?>
<svg width="4209.44px" height="2976.38px" viewBox="0 0 4209.44 2976.38"
 xmlns="http://www.w3.org/2000/svg" xmlns:xlink="http://www.w3.org/1999/xlink" version="1.2" baseProfile="tiny">
<title>Accords (16)</title>
<desc>Generated by MuseScore 3.6.2</desc>
<polyline class="StaffLines" fill="none" stroke="#000000" stroke-width="6.55" stroke-linejoin="bevel" points="153.819,574.87 4138.58,574.87"/>
<polyline class="StaffLines" fill="none" stroke="#000000" stroke-width="6.55" stroke-linejoin="bevel" points="153.819,664.161 4138.58,664.161"/>
<polyline class="StaffLines" fill="none" stroke="#000000" stroke-width="6.55" stroke-linejoin="bevel" points="153.819,753.452 4138.58,753.452"/>
<polyline class="StaffLines" fill="none" stroke="#000000" stroke-width="6.55" stroke-linejoin="bevel" points="153.819,842.744 4138.58,842.744"/>
<polyline class="StaffLines" fill="none" stroke="#000000" stroke-width="6.55" stroke-linejoin="bevel" points="153.819,932.035 4138.58,932.035"/>
<polyline class="StaffLines" fill="none" stroke="#000000" stroke-width="6.55" stroke-linejoin="bevel" points="153.819,1021.33 4138.58,1021.33"/>
<polyline class="StaffLines" fill="none" stroke="#000000" stroke-width="6.55" stroke-linejoin="bevel" points="153.819,1408.26 4138.58,1408.26"/>
<polyline class="StaffLines" fill="none" stroke="#000000" stroke-width="6.55" stroke-linejoin="bevel" points="153.819,1467.78 4138.58,1467.78"/>
<polyline class="StaffLines" fill="none" stroke="#000000" stroke-width="6.55" stroke-linejoin="bevel" points="153.819,1527.31 4138.58,1527.31"/>
<polyline class="StaffLines" fill="none" stroke="#000000" stroke-width="6.55" stroke-linejoin="bevel" points="153.819,1586.84 4138.58,1586.84"/>
<polyline class="StaffLines" fill="none" stroke="#000000" stroke-width="6.55" stroke-linejoin="bevel" points="153.819,1646.37 4138.58,1646.37"/>
<polyline class="StaffLines" fill="none" stroke="#000000" stroke-width="6.55" stroke-linejoin="bevel" points="153.819,2204.33 4138.58,2204.33"/>
<polyline class="StaffLines" fill="none" stroke="#000000" stroke-width="6.55" stroke-linejoin="bevel" points="153.819,2263.86 4138.58,2263.86"/>
<polyline class="StaffLines" fill="none" stroke="#000000" stroke-width="6.55" stroke-linejoin="bevel" points="153.819,2323.39 4138.58,2323.39"/>
<polyline class="StaffLines" fill="none" stroke="#000000" stroke-width="6.55" stroke-linejoin="bevel" points="153.819,2382.91 4138.58,2382.91"/>
<polyline class="StaffLines" fill="none" stroke="#000000" stroke-width="6.55" stroke-linejoin="bevel" points="153.819,2442.44 4138.58,2442.44"/>
<polyline class="BarLine" fill="none" stroke="#000000" stroke-width="10.71" stroke-linejoin="bevel" points="159.176,2201.06 159.176,2445.71"/>
<polyline class="BarLine" fill="none" stroke="#000000" stroke-width="10.71" stroke-linejoin="bevel" points="1278.99,2201.06 1278.99,2445.71"/>
<polyline class="BarLine" fill="none" stroke="#000000" stroke-width="10.71" stroke-linejoin="bevel" points="1311.73,2201.06 1311.73,2445.71"/>
<polyline class="BarLine" fill="none" stroke="#000000" stroke-width="10.71" stroke-linejoin="bevel" points="2248.06,2201.06 2248.06,2445.71"/>
<polyline class="BarLine" fill="none" stroke="#000000" stroke-width="10.71" stroke-linejoin="bevel" points="2280.8,2201.06 2280.8,2445.71"/>
<polyline class="BarLine" fill="none" stroke="#000000" stroke-width="10.71" stroke-linejoin="bevel" points="3226.47,2201.06 3226.47,2445.71"/>
<polyline class="BarLine" fill="none" stroke="#000000" stroke-width="10.71" stroke-linejoin="bevel" points="4080.54,2201.06 4080.54,2445.71"/>
<polyline class="BarLine" fill="none" stroke="#000000" stroke-width="32.74" stroke-linejoin="bevel" points="4122.21,2201.06 4122.21,2445.71"/>
<polyline class="BarLine" fill="none" stroke="#000000" stroke-width="10.71" stroke-linejoin="bevel" points="159.176,1404.98 159.176,2204.33"/>
<polyline class="BarLine" fill="none" stroke="#000000" stroke-width="10.71" stroke-linejoin="bevel" points="1278.99,1404.98 1278.99,1649.64"/>
<polyline class="BarLine" fill="none" stroke="#000000" stroke-width="10.71" stroke-linejoin="bevel" points="1311.73,1404.98 1311.73,1649.64"/>
<polyline class="BarLine" fill="none" stroke="#000000" stroke-width="10.71" stroke-linejoin="bevel" points="2248.06,1404.98 2248.06,1649.64"/>
<polyline class="BarLine" fill="none" stroke="#000000" stroke-width="10.71" stroke-linejoin="bevel" points="2280.8,1404.98 2280.8,1649.64"/>
<polyline class="BarLine" fill="none" stroke="#000000" stroke-width="10.71" stroke-linejoin="bevel" points="3226.47,1404.98 3226.47,1649.64"/>
<polyline class="BarLine" fill="none" stroke="#000000" stroke-width="10.71" stroke-linejoin="bevel" points="4080.54,1404.98 4080.54,1649.64"/>
<polyline class="BarLine" fill="none" stroke="#000000" stroke-width="32.74" stroke-linejoin="bevel" points="4122.21,1404.98 4122.21,1649.64"/>
<polyline class="BarLine" fill="none" stroke="#000000" stroke-width="10.71" stroke-linejoin="bevel" points="159.176,571.596 159.176,1408.26"/>
<polyline class="BarLine" fill="none" stroke="#000000" stroke-width="10.71" stroke-linejoin="bevel" points="1278.99,571.596 1278.99,1024.6"/>
<polyline class="BarLine" fill="none" stroke="#000000" stroke-width="10.71" stroke-linejoin="bevel" points="1311.73,571.596 1311.73,1024.6"/>
<polyline class="BarLine" fill="none" stroke="#000000" stroke-width="10.71" stroke-linejoin="bevel" points="2248.06,571.596 2248.06,1024.6"/>
<polyline class="BarLine" fill="none" stroke="#000000" stroke-width="10.71" stroke-linejoin="bevel" points="2280.8,571.596 2280.8,1024.6"/>
<polyline class="BarLine" fill="none" stroke="#000000" stroke-width="10.71" stroke-linejoin="bevel" points="3226.47,571.596 3226.47,1024.6"/>
<polyline class="BarLine" fill="none" stroke="#000000" stroke-width="10.71" stroke-linejoin="bevel" points="4080.54,571.596 4080.54,1024.6"/>
<polyline class="BarLine" fill="none" stroke="#000000" stroke-width="32.74" stroke-linejoin="bevel" points="4122.21,571.596 4122.21,1024.6"/>
<polyline class="LedgerLine" fill="none" stroke="#000000" stroke-width="9.52" stroke-linejoin="bevel" points="492.549,2144.8 623.026,2144.8"/>
<path class="Note" transform="matrix(2.3811,0,0,2.3811,513.384,2144.8)" d="M18.7,-13.6 C4.9,-13.6 0,-6.6 0,-0.1 C0,6.4 4.9,13.4 18.7,13.4 C32.5,13.4 37.3,6.4 37.3,-0.1 C37.3,-6.6 32.5,-13.6 18.7,-13.6 M10.4,-4.5 C10.3,-4.9 10.3,-5.3 10.3,-5.7 C10.3,-6.5 10.5,-7.3 10.9,-8 C11.6,-9 12.8,-9.7 14.3,-10 C15.6,-10.3 16.3,-10.5 18.9,-10.5 L19,-10.5 C23,-10.5 24.3,-6.8 25.4,-3 L25.7,-2 C26.5,0.6 26.9,2.8 26.9,4.5 C26.9,5.7 26.7,6.8 26.3,7.6 C25.7,8.7 24.7,9.4 23,9.8 C22.1,10 20.6,10.1 20.6,10.1 C20.1,10.1 19.7,10.2 19.3,10.2 C16.1,10.2 14.1,9 12.7,4.7 C11.5,1 11.3,-0.1 10.4,-4.5"/>
<path class="Note" transform="matrix(2.3811,0,0,2.3811,1482.46,2234.09)" d="M18.7,-13.6 C4.9,-13.6 0,-6.6 0,-0.1 C0,6.4 4.9,13.4 18.7,13.4 C32.5,13.4 37.3,6.4 37.3,-0.1 C37.3,-6.6 32.5,-13.6 18.7,-13.6 M10.4,-4.5 C10.3,-4.9 10.3,-5.3 10.3,-5.7 C10.3,-6.5 10.5,-7.3 10.9,-8 C11.6,-9 12.8,-9.7 14.3,-10 C15.6,-10.3 16.3,-10.5 18.9,-10.5 L19,-10.5 C23,-10.5 24.3,-6.8 25.4,-3 L25.7,-2 C26.5,0.6 26.9,2.8 26.9,4.5 C26.9,5.7 26.7,6.8 26.3,7.6 C25.7,8.7 24.7,9.4 23,9.8 C22.1,10 20.6,10.1 20.6,10.1 C20.1,10.1 19.7,10.2 19.3,10.2 C16.1,10.2 14.1,9 12.7,4.7 C11.5,1 11.3,-0.1 10.4,-4.5"/>
<path class="Note" transform="matrix(2.3811,0,0,2.3811,2369.27,2323.39)" d="M18.7,-13.6 C4.9,-13.6 0,-6.6 0,-0.1 C0,6.4 4.9,13.4 18.7,13.4 C32.5,13.4 37.3,6.4 37.3,-0.1 C37.3,-6.6 32.5,-13.6 18.7,-13.6 M10.4,-4.5 C10.3,-4.9 10.3,-5.3 10.3,-5.7 C10.3,-6.5 10.5,-7.3 10.9,-8 C11.6,-9 12.8,-9.7 14.3,-10 C15.6,-10.3 16.3,-10.5 18.9,-10.5 L19,-10.5 C23,-10.5 24.3,-6.8 25.4,-3 L25.7,-2 C26.5,0.6 26.9,2.8 26.9,4.5 C26.9,5.7 26.7,6.8 26.3,7.6 C25.7,8.7 24.7,9.4 23,9.8 C22.1,10 20.6,10.1 20.6,10.1 C20.1,10.1 19.7,10.2 19.3,10.2 C16.1,10.2 14.1,9 12.7,4.7 C11.5,1 11.3,-0.1 10.4,-4.5"/>
<path class="Note" transform="matrix(2.3811,0,0,2.3811,3314.93,2353.15)" d="M18.7,-13.6 C4.9,-13.6 0,-6.6 0,-0.1 C0,6.4 4.9,13.4 18.7,13.4 C32.5,13.4 37.3,6.4 37.3,-0.1 C37.3,-6.6 32.5,-13.6 18.7,-13.6 M10.4,-4.5 C10.3,-4.9 10.3,-5.3 10.3,-5.7 C10.3,-6.5 10.5,-7.3 10.9,-8 C11.6,-9 12.8,-9.7 14.3,-10 C15.6,-10.3 16.3,-10.5 18.9,-10.5 L19,-10.5 C23,-10.5 24.3,-6.8 25.4,-3 L25.7,-2 C26.5,0.6 26.9,2.8 26.9,4.5 C26.9,5.7 26.7,6.8 26.3,7.6 C25.7,8.7 24.7,9.4 23,9.8 C22.1,10 20.6,10.1 20.6,10.1 C20.1,10.1 19.7,10.2 19.3,10.2 C16.1,10.2 14.1,9 12.7,4.7 C11.5,1 11.3,-0.1 10.4,-4.5"/>
<path class="Note" transform="matrix(2.3811,0,0,2.3811,513.384,1586.84)" d="M18.7,-13.6 C4.9,-13.6 0,-6.6 0,-0.1 C0,6.4 4.9,13.4 18.7,13.4 C32.5,13.4 37.3,6.4 37.3,-0.1 C37.3,-6.6 32.5,-13.6 18.7,-13.6 M10.4,-4.5 C10.3,-4.9 10.3,-5.3 10.3,-5.7 C10.3,-6.5 10.5,-7.3 10.9,-8 C11.6,-9 12.8,-9.7 14.3,-10 C15.6,-10.3 16.3,-10.5 18.9,-10.5 L19,-10.5 C23,-10.5 24.3,-6.8 25.4,-3 L25.7,-2 C26.5,0.6 26.9,2.8 26.9,4.5 C26.9,5.7 26.7,6.8 26.3,7.6 C25.7,8.7 24.7,9.4 23,9.8 C22.1,10 20.6,10.1 20.6,10.1 C20.1,10.1 19.7,10.2 19.3,10.2 C16.1,10.2 14.1,9 12.7,4.7 C11.5,1 11.3,-0.1 10.4,-4.5"/>
<path class="Note" transform="matrix(2.3811,0,0,2.3811,513.384,1497.55)" d="M18.7,-13.6 C4.9,-13.6 0,-6.6 0,-0.1 C0,6.4 4.9,13.4 18.7,13.4 C32.5,13.4 37.3,6.4 37.3,-0.1 C37.3,-6.6 32.5,-13.6 18.7,-13.6 M10.4,-4.5 C10.3,-4.9 10.3,-5.3 10.3,-5.7 C10.3,-6.5 10.5,-7.3 10.9,-8 C11.6,-9 12.8,-9.7 14.3,-10 C15.6,-10.3 16.3,-10.5 18.9,-10.5 L19,-10.5 C23,-10.5 24.3,-6.8 25.4,-3 L25.7,-2 C26.5,0.6 26.9,2.8 26.9,4.5 C26.9,5.7 26.7,6.8 26.3,7.6 C25.7,8.7 24.7,9.4 23,9.8 C22.1,10 20.6,10.1 20.6,10.1 C20.1,10.1 19.7,10.2 19.3,10.2 C16.1,10.2 14.1,9 12.7,4.7 C11.5,1 11.3,-0.1 10.4,-4.5"/>
<path class="Note" transform="matrix(2.3811,0,0,2.3811,513.384,1408.26)" d="M18.7,-13.6 C4.9,-13.6 0,-6.6 0,-0.1 C0,6.4 4.9,13.4 18.7,13.4 C32.5,13.4 37.3,6.4 37.3,-0.1 C37.3,-6.6 32.5,-13.6 18.7,-13.6 M10.4,-4.5 C10.3,-4.9 10.3,-5.3 10.3,-5.7 C10.3,-6.5 10.5,-7.3 10.9,-8 C11.6,-9 12.8,-9.7 14.3,-10 C15.6,-10.3 16.3,-10.5 18.9,-10.5 L19,-10.5 C23,-10.5 24.3,-6.8 25.4,-3 L25.7,-2 C26.5,0.6 26.9,2.8 26.9,4.5 C26.9,5.7 26.7,6.8 26.3,7.6 C25.7,8.7 24.7,9.4 23,9.8 C22.1,10 20.6,10.1 20.6,10.1 C20.1,10.1 19.7,10.2 19.3,10.2 C16.1,10.2 14.1,9 12.7,4.7 C11.5,1 11.3,-0.1 10.4,-4.5"/>
<path class="Note" transform="matrix(2.3811,0,0,2.3811,1482.46,1586.84)" d="M18.7,-13.6 C4.9,-13.6 0,-6.6 0,-0.1 C0,6.4 4.9,13.4 18.7,13.4 C32.5,13.4 37.3,6.4 37.3,-0.1 C37.3,-6.6 32.5,-13.6 18.7,-13.6 M10.4,-4.5 C10.3,-4.9 10.3,-5.3 10.3,-5.7 C10.3,-6.5 10.5,-7.3 10.9,-8 C11.6,-9 12.8,-9.7 14.3,-10 C15.6,-10.3 16.3,-10.5 18.9,-10.5 L19,-10.5 C23,-10.5 24.3,-6.8 25.4,-3 L25.7,-2 C26.5,0.6 26.9,2.8 26.9,4.5 C26.9,5.7 26.7,6.8 26.3,7.6 C25.7,8.7 24.7,9.4 23,9.8 C22.1,10 20.6,10.1 20.6,10.1 C20.1,10.1 19.7,10.2 19.3,10.2 C16.1,10.2 14.1,9 12.7,4.7 C11.5,1 11.3,-0.1 10.4,-4.5"/>
<path class="Note" transform="matrix(2.3811,0,0,2.3811,1400.2,1497.55)" d="M18.7,-13.6 C4.9,-13.6 0,-6.6 0,-0.1 C0,6.4 4.9,13.4 18.7,13.4 C32.5,13.4 37.3,6.4 37.3,-0.1 C37.3,-6.6 32.5,-13.6 18.7,-13.6 M10.4,-4.5 C10.3,-4.9 10.3,-5.3 10.3,-5.7 C10.3,-6.5 10.5,-7.3 10.9,-8 C11.6,-9 12.8,-9.7 14.3,-10 C15.6,-10.3 16.3,-10.5 18.9,-10.5 L19,-10.5 C23,-10.5 24.3,-6.8 25.4,-3 L25.7,-2 C26.5,0.6 26.9,2.8 26.9,4.5 C26.9,5.7 26.7,6.8 26.3,7.6 C25.7,8.7 24.7,9.4 23,9.8 C22.1,10 20.6,10.1 20.6,10.1 C20.1,10.1 19.7,10.2 19.3,10.2 C16.1,10.2 14.1,9 12.7,4.7 C11.5,1 11.3,-0.1 10.4,-4.5"/>
<path class="Note" transform="matrix(2.3811,0,0,2.3811,1482.46,1467.78)" d="M18.7,-13.6 C4.9,-13.6 0,-6.6 0,-0.1 C0,6.4 4.9,13.4 18.7,13.4 C32.5,13.4 37.3,6.4 37.3,-0.1 C37.3,-6.6 32.5,-13.6 18.7,-13.6 M10.4,-4.5 C10.3,-4.9 10.3,-5.3 10.3,-5.7 C10.3,-6.5 10.5,-7.3 10.9,-8 C11.6,-9 12.8,-9.7 14.3,-10 C15.6,-10.3 16.3,-10.5 18.9,-10.5 L19,-10.5 C23,-10.5 24.3,-6.8 25.4,-3 L25.7,-2 C26.5,0.6 26.9,2.8 26.9,4.5 C26.9,5.7 26.7,6.8 26.3,7.6 C25.7,8.7 24.7,9.4 23,9.8 C22.1,10 20.6,10.1 20.6,10.1 C20.1,10.1 19.7,10.2 19.3,10.2 C16.1,10.2 14.1,9 12.7,4.7 C11.5,1 11.3,-0.1 10.4,-4.5"/>
<path class="Note" transform="matrix(2.3811,0,0,2.3811,2369.27,1586.84)" d="M18.7,-13.6 C4.9,-13.6 0,-6.6 0,-0.1 C0,6.4 4.9,13.4 18.7,13.4 C32.5,13.4 37.3,6.4 37.3,-0.1 C37.3,-6.6 32.5,-13.6 18.7,-13.6 M10.4,-4.5 C10.3,-4.9 10.3,-5.3 10.3,-5.7 C10.3,-6.5 10.5,-7.3 10.9,-8 C11.6,-9 12.8,-9.7 14.3,-10 C15.6,-10.3 16.3,-10.5 18.9,-10.5 L19,-10.5 C23,-10.5 24.3,-6.8 25.4,-3 L25.7,-2 C26.5,0.6 26.9,2.8 26.9,4.5 C26.9,5.7 26.7,6.8 26.3,7.6 C25.7,8.7 24.7,9.4 23,9.8 C22.1,10 20.6,10.1 20.6,10.1 C20.1,10.1 19.7,10.2 19.3,10.2 C16.1,10.2 14.1,9 12.7,4.7 C11.5,1 11.3,-0.1 10.4,-4.5"/>
<path class="Note" transform="matrix(2.3811,0,0,2.3811,2451.53,1557.07)" d="M18.7,-13.6 C4.9,-13.6 0,-6.6 0,-0.1 C0,6.4 4.9,13.4 18.7,13.4 C32.5,13.4 37.3,6.4 37.3,-0.1 C37.3,-6.6 32.5,-13.6 18.7,-13.6 M10.4,-4.5 C10.3,-4.9 10.3,-5.3 10.3,-5.7 C10.3,-6.5 10.5,-7.3 10.9,-8 C11.6,-9 12.8,-9.7 14.3,-10 C15.6,-10.3 16.3,-10.5 18.9,-10.5 L19,-10.5 C23,-10.5 24.3,-6.8 25.4,-3 L25.7,-2 C26.5,0.6 26.9,2.8 26.9,4.5 C26.9,5.7 26.7,6.8 26.3,7.6 C25.7,8.7 24.7,9.4 23,9.8 C22.1,10 20.6,10.1 20.6,10.1 C20.1,10.1 19.7,10.2 19.3,10.2 C16.1,10.2 14.1,9 12.7,4.7 C11.5,1 11.3,-0.1 10.4,-4.5"/>
<path class="Note" transform="matrix(2.3811,0,0,2.3811,2369.27,1467.78)" d="M18.7,-13.6 C4.9,-13.6 0,-6.6 0,-0.1 C0,6.4 4.9,13.4 18.7,13.4 C32.5,13.4 37.3,6.4 37.3,-0.1 C37.3,-6.6 32.5,-13.6 18.7,-13.6 M10.4,-4.5 C10.3,-4.9 10.3,-5.3 10.3,-5.7 C10.3,-6.5 10.5,-7.3 10.9,-8 C11.6,-9 12.8,-9.7 14.3,-10 C15.6,-10.3 16.3,-10.5 18.9,-10.5 L19,-10.5 C23,-10.5 24.3,-6.8 25.4,-3 L25.7,-2 C26.5,0.6 26.9,2.8 26.9,4.5 C26.9,5.7 26.7,6.8 26.3,7.6 C25.7,8.7 24.7,9.4 23,9.8 C22.1,10 20.6,10.1 20.6,10.1 C20.1,10.1 19.7,10.2 19.3,10.2 C16.1,10.2 14.1,9 12.7,4.7 C11.5,1 11.3,-0.1 10.4,-4.5"/>
<path class="Note" transform="matrix(2.3811,0,0,2.3811,3314.93,1586.84)" d="M18.7,-13.6 C4.9,-13.6 0,-6.6 0,-0.1 C0,6.4 4.9,13.4 18.7,13.4 C32.5,13.4 37.3,6.4 37.3,-0.1 C37.3,-6.6 32.5,-13.6 18.7,-13.6 M10.4,-4.5 C10.3,-4.9 10.3,-5.3 10.3,-5.7 C10.3,-6.5 10.5,-7.3 10.9,-8 C11.6,-9 12.8,-9.7 14.3,-10 C15.6,-10.3 16.3,-10.5 18.9,-10.5 L19,-10.5 C23,-10.5 24.3,-6.8 25.4,-3 L25.7,-2 C26.5,0.6 26.9,2.8 26.9,4.5 C26.9,5.7 26.7,6.8 26.3,7.6 C25.7,8.7 24.7,9.4 23,9.8 C22.1,10 20.6,10.1 20.6,10.1 C20.1,10.1 19.7,10.2 19.3,10.2 C16.1,10.2 14.1,9 12.7,4.7 C11.5,1 11.3,-0.1 10.4,-4.5"/>
<path class="Note" transform="matrix(2.3811,0,0,2.3811,3314.93,1497.55)" d="M18.7,-13.6 C4.9,-13.6 0,-6.6 0,-0.1 C0,6.4 4.9,13.4 18.7,13.4 C32.5,13.4 37.3,6.4 37.3,-0.1 C37.3,-6.6 32.5,-13.6 18.7,-13.6 M10.4,-4.5 C10.3,-4.9 10.3,-5.3 10.3,-5.7 C10.3,-6.5 10.5,-7.3 10.9,-8 C11.6,-9 12.8,-9.7 14.3,-10 C15.6,-10.3 16.3,-10.5 18.9,-10.5 L19,-10.5 C23,-10.5 24.3,-6.8 25.4,-3 L25.7,-2 C26.5,0.6 26.9,2.8 26.9,4.5 C26.9,5.7 26.7,6.8 26.3,7.6 C25.7,8.7 24.7,9.4 23,9.8 C22.1,10 20.6,10.1 20.6,10.1 C20.1,10.1 19.7,10.2 19.3,10.2 C16.1,10.2 14.1,9 12.7,4.7 C11.5,1 11.3,-0.1 10.4,-4.5"/>
<path class="Note" transform="matrix(2.3811,0,0,2.3811,3314.93,1408.26)" d="M18.7,-13.6 C4.9,-13.6 0,-6.6 0,-0.1 C0,6.4 4.9,13.4 18.7,13.4 C32.5,13.4 37.3,6.4 37.3,-0.1 C37.3,-6.6 32.5,-13.6 18.7,-13.6 M10.4,-4.5 C10.3,-4.9 10.3,-5.3 10.3,-5.7 C10.3,-6.5 10.5,-7.3 10.9,-8 C11.6,-9 12.8,-9.7 14.3,-10 C15.6,-10.3 16.3,-10.5 18.9,-10.5 L19,-10.5 C23,-10.5 24.3,-6.8 25.4,-3 L25.7,-2 C26.5,0.6 26.9,2.8 26.9,4.5 C26.9,5.7 26.7,6.8 26.3,7.6 C25.7,8.7 24.7,9.4 23,9.8 C22.1,10 20.6,10.1 20.6,10.1 C20.1,10.1 19.7,10.2 19.3,10.2 C16.1,10.2 14.1,9 12.7,4.7 C11.5,1 11.3,-0.1 10.4,-4.5"/>
<path class="Note" d="M481.114,604.36 C481.424,592.662 487.893,582.28 500.522,573.216 C511.755,565.158 524.035,561.13 537.361,561.13 C556.032,561.13 572.495,568.451 586.75,583.094 C595.815,592.468 600.347,604.089 600.347,617.957 C600.347,630.43 597.016,639.998 590.353,646.661 C582.218,654.873 573.618,658.979 564.554,658.979 C558.356,658.979 553.553,657.585 550.144,654.796 C544.566,650.225 541.777,644.104 541.777,636.435 C541.777,626.518 546.735,617.453 556.652,609.241 C564.786,602.501 572.96,598.085 581.172,595.993 C579.003,592.274 576.253,588.788 572.921,585.534 C562.54,575.385 550.764,570.311 537.593,570.311 C523.88,570.311 512.53,573.293 503.543,579.259 C494.246,585.379 486.77,593.746 481.114,604.36 M584.077,602.152 C579.816,606.103 575.555,610.326 571.294,614.819 C562.927,623.651 558.743,632.019 558.743,639.921 C558.743,648.366 560.68,652.588 564.554,652.588 C568.04,652.588 572.921,647.823 579.197,638.294 C584.232,630.701 586.75,623.729 586.75,617.376 C586.75,611.953 585.859,606.878 584.077,602.152"/>
<path class="Note" d="M481.114,515.069 C481.424,503.37 487.893,492.989 500.522,483.924 C511.755,475.867 524.035,471.839 537.361,471.839 C556.032,471.839 572.495,479.16 586.75,493.802 C595.815,503.177 600.347,514.798 600.347,528.666 C600.347,541.139 597.016,550.707 590.353,557.37 C582.218,565.582 573.618,569.688 564.554,569.688 C558.356,569.688 553.553,568.294 550.144,565.505 C544.566,560.934 541.777,554.813 541.777,547.143 C541.777,537.227 546.735,528.162 556.652,519.95 C564.786,513.21 572.96,508.794 581.172,506.702 C579.003,502.983 576.253,499.497 572.921,496.243 C562.54,486.094 550.764,481.019 537.593,481.019 C523.88,481.019 512.53,484.002 503.543,489.967 C494.246,496.088 486.77,504.455 481.114,515.069 M584.077,512.861 C579.816,516.812 575.555,521.034 571.294,525.528 C562.927,534.36 558.743,542.727 558.743,550.63 C558.743,559.074 560.68,563.297 564.554,563.297 C568.04,563.297 572.921,558.532 579.197,549.003 C584.232,541.41 586.75,534.437 586.75,528.085 C586.75,522.661 585.859,517.587 584.077,512.861"/>
<path class="Note" d="M607.078,756.214 C611.417,753.27 614.554,750.83 616.491,748.893 C620.055,745.097 621.837,741.611 621.837,738.434 C621.837,734.793 619.823,732.972 615.794,732.972 C607.969,732.972 599.602,739.867 590.692,753.658 C587.981,757.841 582.015,771.477 572.796,794.564 C580.156,802.157 583.836,806.456 583.836,807.464 C583.836,808.858 582.945,809.555 581.163,809.555 C579.769,809.555 575.934,807.192 569.658,802.466 C562.84,818.349 552.498,831.907 538.63,843.14 C524.452,854.606 507.524,860.339 487.846,860.339 C480.331,860.339 470.918,858.596 459.606,855.11 C450.542,852.321 446.01,847.866 446.01,841.746 C446.01,832.681 449.496,828.149 456.469,828.149 C460.652,828.149 462.744,830.086 462.744,833.96 C462.744,835.199 461.776,836.516 459.839,837.911 C458.832,838.608 458.328,839.964 458.328,841.978 C458.328,844.38 461.001,846.859 466.347,849.416 C472.157,852.205 480.679,853.599 491.913,853.599 C506.401,853.599 520.385,847.324 533.865,834.773 C546.106,823.384 554.899,810.136 560.245,795.029 C558.153,793.325 555.907,791.465 553.505,789.451 C546.067,785.035 542.349,780.503 542.349,775.854 C542.349,773.917 543.627,772.949 546.184,772.949 C549.592,772.949 554.202,775.854 560.013,781.665 C561.252,782.904 562.414,784.066 563.499,785.151 C566.211,777.714 570.549,768.262 576.515,756.796 C587.283,736.033 600.377,725.651 615.794,725.651 C621.295,725.651 625.633,726.697 628.81,728.789 C631.986,730.88 633.574,733.747 633.574,737.388 C633.574,743.199 631.444,748.118 627.183,752.147 C622.767,756.331 618.157,758.422 613.353,758.422 C609.17,758.422 607.078,757.686 607.078,756.214"/>
<path class="Note" d="M606.265,690.514 C606.265,699.423 596.116,718.986 575.817,749.2 C567.76,761.209 556.178,770.002 541.07,775.58 C529.914,779.764 517.015,781.856 502.372,781.856 C497.646,781.856 493.463,780.887 489.821,778.95 C485.793,776.859 483.778,774.573 483.778,772.094 C483.778,765.664 487.226,762.449 494.121,762.449 C495.128,762.449 495.632,763.068 495.632,764.308 C495.632,765.393 495.128,766.593 494.121,767.91 C492.881,769.537 492.262,770.738 492.262,771.513 C492.262,773.837 495.748,774.999 502.721,774.999 C518.37,774.999 530.728,773.101 539.792,769.305 C549.244,765.431 558.657,755.553 568.031,739.671 L570.704,734.674 C566.211,738.083 561.756,739.787 557.34,739.787 C546.339,739.787 540.838,735.333 540.838,726.423 C540.838,716.816 547.307,706.706 560.245,696.092 C570.394,687.88 579.42,683.774 587.322,683.774 C591.273,683.774 594.566,684.82 597.2,686.911 C598.13,686.214 599.292,685.866 600.686,685.866 C604.405,685.866 606.265,687.415 606.265,690.514 M572.099,732.234 L594.062,691.676 C592.358,691.289 590.46,691.095 588.368,691.095 C580.853,691.095 573.571,695.472 566.52,704.227 C558.308,714.453 554.202,722.627 554.202,728.747 C554.202,732.776 556.875,734.79 562.221,734.79 C564.777,734.79 568.07,733.938 572.099,732.234"/>
<path class="Note" d="M1450.19,604.36 C1450.5,592.662 1456.97,582.28 1469.59,573.216 C1480.83,565.158 1493.11,561.13 1506.43,561.13 C1525.1,561.13 1541.57,568.451 1555.82,583.094 C1564.89,592.468 1569.42,604.089 1569.42,617.957 C1569.42,630.43 1566.09,639.998 1559.42,646.661 C1551.29,654.873 1542.69,658.979 1533.63,658.979 C1527.43,658.979 1522.62,657.585 1519.22,654.796 C1513.64,650.225 1510.85,644.104 1510.85,636.435 C1510.85,626.518 1515.81,617.453 1525.72,609.241 C1533.86,602.501 1542.03,598.085 1550.24,595.993 C1548.07,592.274 1545.32,588.788 1541.99,585.534 C1531.61,575.385 1519.84,570.311 1506.66,570.311 C1492.95,570.311 1481.6,573.293 1472.61,579.259 C1463.32,585.379 1455.84,593.746 1450.19,604.36 M1553.15,602.152 C1548.89,606.103 1544.63,610.326 1540.37,614.819 C1532,623.651 1527.82,632.019 1527.82,639.921 C1527.82,648.366 1529.75,652.588 1533.63,652.588 C1537.11,652.588 1541.99,647.823 1548.27,638.294 C1553.3,630.701 1555.82,623.729 1555.82,617.376 C1555.82,611.953 1554.93,606.878 1553.15,602.152"/>
<path class="Note" d="M1576.15,845.506 C1580.49,842.562 1583.63,840.121 1585.56,838.185 C1589.13,834.388 1590.91,830.902 1590.91,827.726 C1590.91,824.084 1588.89,822.264 1584.87,822.264 C1577.04,822.264 1568.67,829.159 1559.76,842.949 C1557.05,847.133 1551.09,860.768 1541.87,883.855 C1549.23,891.448 1552.91,895.748 1552.91,896.755 C1552.91,898.149 1552.02,898.847 1550.23,898.847 C1548.84,898.847 1545.01,896.484 1538.73,891.758 C1531.91,907.64 1521.57,921.198 1507.7,932.432 C1493.52,943.898 1476.6,949.631 1456.92,949.631 C1449.4,949.631 1439.99,947.888 1428.68,944.401 C1419.61,941.612 1415.08,937.158 1415.08,931.037 C1415.08,921.973 1418.57,917.44 1425.54,917.44 C1429.72,917.44 1431.82,919.377 1431.82,923.251 C1431.82,924.491 1430.85,925.808 1428.91,927.202 C1427.9,927.899 1427.4,929.255 1427.4,931.269 C1427.4,933.671 1430.07,936.15 1435.42,938.707 C1441.23,941.496 1449.75,942.891 1460.98,942.891 C1475.47,942.891 1489.46,936.615 1502.94,924.064 C1515.18,912.676 1523.97,899.428 1529.32,884.32 C1527.23,882.616 1524.98,880.756 1522.58,878.742 C1515.14,874.326 1511.42,869.794 1511.42,865.145 C1511.42,863.209 1512.7,862.24 1515.26,862.24 C1518.66,862.24 1523.27,865.145 1529.08,870.956 C1530.32,872.196 1531.49,873.358 1532.57,874.442 C1535.28,867.005 1539.62,857.553 1545.59,846.087 C1556.36,825.324 1569.45,814.942 1584.87,814.942 C1590.37,814.942 1594.7,815.988 1597.88,818.08 C1601.06,820.172 1602.65,823.038 1602.65,826.68 C1602.65,832.49 1600.52,837.41 1596.25,841.438 C1591.84,845.622 1587.23,847.714 1582.43,847.714 C1578.24,847.714 1576.15,846.978 1576.15,845.506"/>
<path class="Note" d="M1576.15,756.214 C1580.49,753.27 1583.63,750.83 1585.56,748.893 C1589.13,745.097 1590.91,741.611 1590.91,738.434 C1590.91,734.793 1588.89,732.972 1584.87,732.972 C1577.04,732.972 1568.67,739.867 1559.76,753.658 C1557.05,757.841 1551.09,771.477 1541.87,794.564 C1549.23,802.157 1552.91,806.456 1552.91,807.464 C1552.91,808.858 1552.02,809.555 1550.23,809.555 C1548.84,809.555 1545.01,807.192 1538.73,802.466 C1531.91,818.349 1521.57,831.907 1507.7,843.14 C1493.52,854.606 1476.6,860.339 1456.92,860.339 C1449.4,860.339 1439.99,858.596 1428.68,855.11 C1419.61,852.321 1415.08,847.866 1415.08,841.746 C1415.08,832.681 1418.57,828.149 1425.54,828.149 C1429.72,828.149 1431.82,830.086 1431.82,833.96 C1431.82,835.199 1430.85,836.516 1428.91,837.911 C1427.9,838.608 1427.4,839.964 1427.4,841.978 C1427.4,844.38 1430.07,846.859 1435.42,849.416 C1441.23,852.205 1449.75,853.599 1460.98,853.599 C1475.47,853.599 1489.46,847.324 1502.94,834.773 C1515.18,823.384 1523.97,810.136 1529.32,795.029 C1527.23,793.325 1524.98,791.465 1522.58,789.451 C1515.14,785.035 1511.42,780.503 1511.42,775.854 C1511.42,773.917 1512.7,772.949 1515.26,772.949 C1518.66,772.949 1523.27,775.854 1529.08,781.665 C1530.32,782.904 1531.49,784.066 1532.57,785.151 C1535.28,777.714 1539.62,768.262 1545.59,756.796 C1556.36,736.033 1569.45,725.651 1584.87,725.651 C1590.37,725.651 1594.7,726.697 1597.88,728.789 C1601.06,730.88 1602.65,733.747 1602.65,737.388 C1602.65,743.199 1600.52,748.118 1596.25,752.147 C1591.84,756.331 1587.23,758.422 1582.43,758.422 C1578.24,758.422 1576.15,757.686 1576.15,756.214"/>
<path class="Note" d="M1450.19,693.652 C1450.5,681.953 1456.97,671.572 1469.59,662.507 C1480.83,654.45 1493.11,650.421 1506.43,650.421 C1525.1,650.421 1541.57,657.742 1555.82,672.385 C1564.89,681.759 1569.42,693.38 1569.42,707.248 C1569.42,719.722 1566.09,729.29 1559.42,735.952 C1551.29,744.165 1542.69,748.271 1533.63,748.271 C1527.43,748.271 1522.62,746.876 1519.22,744.087 C1513.64,739.516 1510.85,733.396 1510.85,725.726 C1510.85,715.809 1515.81,706.745 1525.72,698.533 C1533.86,691.792 1542.03,687.376 1550.24,685.284 C1548.07,681.566 1545.32,678.079 1541.99,674.825 C1531.61,664.676 1519.84,659.602 1506.66,659.602 C1492.95,659.602 1481.6,662.585 1472.61,668.55 C1463.32,674.671 1455.84,683.038 1450.19,693.652 M1553.15,691.444 C1548.89,695.395 1544.63,699.617 1540.37,704.111 C1532,712.943 1527.82,721.31 1527.82,729.212 C1527.82,737.657 1529.75,741.879 1533.63,741.879 C1537.11,741.879 1541.99,737.115 1548.27,727.585 C1553.3,719.993 1555.82,713.02 1555.82,706.667 C1555.82,701.244 1554.93,696.17 1553.15,691.444"/>
<path class="Note" d="M2462.96,934.797 C2467.3,931.853 2470.44,929.413 2472.38,927.476 C2475.94,923.68 2477.72,920.193 2477.72,917.017 C2477.72,913.376 2475.71,911.555 2471.68,911.555 C2463.85,911.555 2455.49,918.45 2446.58,932.241 C2443.86,936.424 2437.9,950.06 2428.68,973.147 C2436.04,980.739 2439.72,985.039 2439.72,986.046 C2439.72,987.441 2438.83,988.138 2437.05,988.138 C2435.65,988.138 2431.82,985.775 2425.54,981.049 C2418.72,996.931 2408.38,1010.49 2394.51,1021.72 C2380.34,1033.19 2363.41,1038.92 2343.73,1038.92 C2336.21,1038.92 2326.8,1037.18 2315.49,1033.69 C2306.43,1030.9 2301.89,1026.45 2301.89,1020.33 C2301.89,1011.26 2305.38,1006.73 2312.35,1006.73 C2316.54,1006.73 2318.63,1008.67 2318.63,1012.54 C2318.63,1013.78 2317.66,1015.1 2315.72,1016.49 C2314.72,1017.19 2314.21,1018.55 2314.21,1020.56 C2314.21,1022.96 2316.88,1025.44 2322.23,1028 C2328.04,1030.79 2336.56,1032.18 2347.8,1032.18 C2362.28,1032.18 2376.27,1025.91 2389.75,1013.36 C2401.99,1001.97 2410.78,988.719 2416.13,973.612 C2414.04,971.907 2411.79,970.048 2409.39,968.033 C2401.95,963.617 2398.23,959.085 2398.23,954.437 C2398.23,952.5 2399.51,951.532 2402.07,951.532 C2405.48,951.532 2410.09,954.437 2415.9,960.247 C2417.14,961.487 2418.3,962.649 2419.38,963.734 C2422.09,956.296 2426.43,946.844 2432.4,935.378 C2443.17,914.615 2456.26,904.234 2471.68,904.234 C2477.18,904.234 2481.52,905.28 2484.69,907.371 C2487.87,909.463 2489.46,912.33 2489.46,915.971 C2489.46,921.782 2487.33,926.701 2483.07,930.73 C2478.65,934.913 2474.04,937.005 2469.24,937.005 C2465.05,937.005 2462.96,936.269 2462.96,934.797"/>
<path class="Note" d="M2462.96,845.506 C2467.3,842.562 2470.44,840.121 2472.38,838.185 C2475.94,834.388 2477.72,830.902 2477.72,827.726 C2477.72,824.084 2475.71,822.264 2471.68,822.264 C2463.85,822.264 2455.49,829.159 2446.58,842.949 C2443.86,847.133 2437.9,860.768 2428.68,883.855 C2436.04,891.448 2439.72,895.748 2439.72,896.755 C2439.72,898.149 2438.83,898.847 2437.05,898.847 C2435.65,898.847 2431.82,896.484 2425.54,891.758 C2418.72,907.64 2408.38,921.198 2394.51,932.432 C2380.34,943.898 2363.41,949.631 2343.73,949.631 C2336.21,949.631 2326.8,947.888 2315.49,944.401 C2306.43,941.612 2301.89,937.158 2301.89,931.037 C2301.89,921.973 2305.38,917.44 2312.35,917.44 C2316.54,917.44 2318.63,919.377 2318.63,923.251 C2318.63,924.491 2317.66,925.808 2315.72,927.202 C2314.72,927.899 2314.21,929.255 2314.21,931.269 C2314.21,933.671 2316.88,936.15 2322.23,938.707 C2328.04,941.496 2336.56,942.891 2347.8,942.891 C2362.28,942.891 2376.27,936.615 2389.75,924.064 C2401.99,912.676 2410.78,899.428 2416.13,884.32 C2414.04,882.616 2411.79,880.756 2409.39,878.742 C2401.95,874.326 2398.23,869.794 2398.23,865.145 C2398.23,863.209 2399.51,862.24 2402.07,862.24 C2405.48,862.24 2410.09,865.145 2415.9,870.956 C2417.14,872.196 2418.3,873.358 2419.38,874.442 C2422.09,867.005 2426.43,857.553 2432.4,846.087 C2443.17,825.324 2456.26,814.942 2471.68,814.942 C2477.18,814.942 2481.52,815.988 2484.69,818.08 C2487.87,820.172 2489.46,823.038 2489.46,826.68 C2489.46,832.49 2487.33,837.41 2483.07,841.438 C2478.65,845.622 2474.04,847.714 2469.24,847.714 C2465.05,847.714 2462.96,846.978 2462.96,845.506"/>
<path class="Note" d="M2462.96,577.632 C2467.3,574.688 2470.44,572.247 2472.38,570.311 C2475.94,566.514 2477.72,563.028 2477.72,559.852 C2477.72,556.21 2475.71,554.39 2471.68,554.39 C2463.85,554.39 2455.49,561.285 2446.58,575.075 C2443.86,579.259 2437.9,592.894 2428.68,615.981 C2436.04,623.574 2439.72,627.874 2439.72,628.881 C2439.72,630.275 2438.83,630.973 2437.05,630.973 C2435.65,630.973 2431.82,628.61 2425.54,623.884 C2418.72,639.766 2408.38,653.324 2394.51,664.558 C2380.34,676.024 2363.41,681.757 2343.73,681.757 C2336.21,681.757 2326.8,680.014 2315.49,676.527 C2306.43,673.738 2301.89,669.283 2301.89,663.163 C2301.89,654.099 2305.38,649.566 2312.35,649.566 C2316.54,649.566 2318.63,651.503 2318.63,655.377 C2318.63,656.617 2317.66,657.934 2315.72,659.328 C2314.72,660.025 2314.21,661.381 2314.21,663.395 C2314.21,665.797 2316.88,668.276 2322.23,670.833 C2328.04,673.622 2336.56,675.017 2347.8,675.017 C2362.28,675.017 2376.27,668.741 2389.75,656.19 C2401.99,644.802 2410.78,631.554 2416.13,616.446 C2414.04,614.742 2411.79,612.882 2409.39,610.868 C2401.95,606.452 2398.23,601.92 2398.23,597.271 C2398.23,595.335 2399.51,594.366 2402.07,594.366 C2405.48,594.366 2410.09,597.271 2415.9,603.082 C2417.14,604.322 2418.3,605.484 2419.38,606.568 C2422.09,599.131 2426.43,589.679 2432.4,578.213 C2443.17,557.45 2456.26,547.068 2471.68,547.068 C2477.18,547.068 2481.52,548.114 2484.69,550.206 C2487.87,552.298 2489.46,555.164 2489.46,558.806 C2489.46,564.616 2487.33,569.536 2483.07,573.564 C2478.65,577.748 2474.04,579.84 2469.24,579.84 C2465.05,579.84 2462.96,579.104 2462.96,577.632"/>
<path class="Note" d="M2337,693.652 C2337.31,681.953 2343.78,671.572 2356.41,662.507 C2367.64,654.45 2379.92,650.421 2393.24,650.421 C2411.92,650.421 2428.38,657.742 2442.63,672.385 C2451.7,681.759 2456.23,693.38 2456.23,707.248 C2456.23,719.722 2452.9,729.29 2446.24,735.952 C2438.1,744.165 2429.5,748.271 2420.44,748.271 C2414.24,748.271 2409.44,746.876 2406.03,744.087 C2400.45,739.516 2397.66,733.396 2397.66,725.726 C2397.66,715.809 2402.62,706.745 2412.54,698.533 C2420.67,691.792 2428.84,687.376 2437.06,685.284 C2434.89,681.566 2432.14,678.079 2428.8,674.825 C2418.42,664.676 2406.65,659.602 2393.48,659.602 C2379.76,659.602 2368.41,662.585 2359.43,668.55 C2350.13,674.671 2342.65,683.038 2337,693.652 M2439.96,691.444 C2435.7,695.395 2431.44,699.617 2427.18,704.111 C2418.81,712.943 2414.63,721.31 2414.63,729.212 C2414.63,737.657 2416.56,741.879 2420.44,741.879 C2423.92,741.879 2428.8,737.115 2435.08,727.585 C2440.12,719.993 2442.63,713.02 2442.63,706.667 C2442.63,701.244 2441.74,696.17 2439.96,691.444"/>
<path class="Note" d="M3282.66,961.526 C3282.97,949.827 3289.44,939.446 3302.07,930.381 C3313.3,922.324 3325.58,918.295 3338.91,918.295 C3357.58,918.295 3374.04,925.616 3388.3,940.259 C3397.36,949.633 3401.89,961.255 3401.89,975.122 C3401.89,987.596 3398.56,997.164 3391.9,1003.83 C3383.76,1012.04 3375.16,1016.14 3366.1,1016.14 C3359.9,1016.14 3355.1,1014.75 3351.69,1011.96 C3346.11,1007.39 3343.32,1001.27 3343.32,993.6 C3343.32,983.683 3348.28,974.619 3358.2,966.407 C3366.33,959.666 3374.51,955.25 3382.72,953.158 C3380.55,949.44 3377.8,945.953 3374.47,942.7 C3364.09,932.55 3352.31,927.476 3339.14,927.476 C3325.43,927.476 3314.08,930.459 3305.09,936.424 C3295.79,942.545 3288.32,950.912 3282.66,961.526 M3385.62,959.318 C3381.36,963.269 3377.1,967.491 3372.84,971.985 C3364.47,980.817 3360.29,989.184 3360.29,997.086 C3360.29,1005.53 3362.23,1009.75 3366.1,1009.75 C3369.59,1009.75 3374.47,1004.99 3380.74,995.459 C3385.78,987.867 3388.3,980.894 3388.3,974.541 C3388.3,969.118 3387.41,964.044 3385.62,959.318"/>
<path class="Note" d="M3282.66,604.36 C3282.97,592.662 3289.44,582.28 3302.07,573.216 C3313.3,565.158 3325.58,561.13 3338.91,561.13 C3357.58,561.13 3374.04,568.451 3388.3,583.094 C3397.36,592.468 3401.89,604.089 3401.89,617.957 C3401.89,630.43 3398.56,639.998 3391.9,646.661 C3383.76,654.873 3375.16,658.979 3366.1,658.979 C3359.9,658.979 3355.1,657.585 3351.69,654.796 C3346.11,650.225 3343.32,644.104 3343.32,636.435 C3343.32,626.518 3348.28,617.453 3358.2,609.241 C3366.33,602.501 3374.51,598.085 3382.72,595.993 C3380.55,592.274 3377.8,588.788 3374.47,585.534 C3364.09,575.385 3352.31,570.311 3339.14,570.311 C3325.43,570.311 3314.08,573.293 3305.09,579.259 C3295.79,585.379 3288.32,593.746 3282.66,604.36 M3385.62,602.152 C3381.36,606.103 3377.1,610.326 3372.84,614.819 C3364.47,623.651 3360.29,632.019 3360.29,639.921 C3360.29,648.366 3362.23,652.588 3366.1,652.588 C3369.59,652.588 3374.47,647.823 3380.74,638.294 C3385.78,630.701 3388.3,623.729 3388.3,617.376 C3388.3,611.953 3387.41,606.878 3385.62,602.152"/>
<path class="Note" d="M3282.66,515.069 C3282.97,503.37 3289.44,492.989 3302.07,483.924 C3313.3,475.867 3325.58,471.839 3338.91,471.839 C3357.58,471.839 3374.04,479.16 3388.3,493.802 C3397.36,503.177 3401.89,514.798 3401.89,528.666 C3401.89,541.139 3398.56,550.707 3391.9,557.37 C3383.76,565.582 3375.16,569.688 3366.1,569.688 C3359.9,569.688 3355.1,568.294 3351.69,565.505 C3346.11,560.934 3343.32,554.813 3343.32,547.143 C3343.32,537.227 3348.28,528.162 3358.2,519.95 C3366.33,513.21 3374.51,508.794 3382.72,506.702 C3380.55,502.983 3377.8,499.497 3374.47,496.243 C3364.09,486.094 3352.31,481.019 3339.14,481.019 C3325.43,481.019 3314.08,484.002 3305.09,489.967 C3295.79,496.088 3288.32,504.455 3282.66,515.069 M3385.62,512.861 C3381.36,516.812 3377.1,521.034 3372.84,525.528 C3364.47,534.36 3360.29,542.727 3360.29,550.63 C3360.29,559.074 3362.23,563.297 3366.1,563.297 C3369.59,563.297 3374.47,558.532 3380.74,549.003 C3385.78,541.41 3388.3,534.437 3388.3,528.085 C3388.3,522.661 3387.41,517.587 3385.62,512.861"/>
<path class="Note" d="M3407.81,690.514 C3407.81,699.423 3397.66,718.986 3377.36,749.2 C3369.31,761.209 3357.72,770.002 3342.62,775.58 C3331.46,779.764 3318.56,781.856 3303.92,781.856 C3299.19,781.856 3295.01,780.887 3291.37,778.95 C3287.34,776.859 3285.32,774.573 3285.32,772.094 C3285.32,765.664 3288.77,762.449 3295.67,762.449 C3296.67,762.449 3297.18,763.068 3297.18,764.308 C3297.18,765.393 3296.67,766.593 3295.67,767.91 C3294.43,769.537 3293.81,770.738 3293.81,771.513 C3293.81,773.837 3297.29,774.999 3304.27,774.999 C3319.92,774.999 3332.27,773.101 3341.34,769.305 C3350.79,765.431 3360.2,755.553 3369.58,739.671 L3372.25,734.674 C3367.76,738.083 3363.3,739.787 3358.89,739.787 C3347.88,739.787 3342.38,735.333 3342.38,726.423 C3342.38,716.816 3348.85,706.706 3361.79,696.092 C3371.94,687.88 3380.97,683.774 3388.87,683.774 C3392.82,683.774 3396.11,684.82 3398.75,686.911 C3399.68,686.214 3400.84,685.866 3402.23,685.866 C3405.95,685.866 3407.81,687.415 3407.81,690.514 M3373.64,732.234 L3395.61,691.676 C3393.9,691.289 3392.01,691.095 3389.91,691.095 C3382.4,691.095 3375.12,695.472 3368.07,704.227 C3359.85,714.453 3355.75,722.627 3355.75,728.747 C3355.75,732.776 3358.42,734.79 3363.77,734.79 C3366.32,734.79 3369.62,733.938 3373.64,732.234"/>
<path class="Clef" transform="matrix(2.3811,0,0,2.3811,212.156,2263.86)" d="M25.4,-25.1 C17.8,-25.1 11.7,-20.7 11.6,-20.7 C5.8,-16.4 3.5,-11.3 2.6,-7.8 C2.1,-6 1.9,-4.2 1.9,-2.5 C1.9,-0.1 2.3,2.1 3.2,4 C4.4,6.7 6.7,8.6 9.7,9.6 C10.9,10 12.2,10.2 13.5,10.2 C15.7,10.2 18,9.6 19.9,8.5 C23,6.8 24.9,3.2 24.9,-0.7 C24.9,-4.2 23.1,-7.4 20.1,-9.3 C18,-10.7 16,-11.1 14.3,-11.1 C13.1,-11.1 12,-10.9 11.1,-10.6 C10.1,-10.2 8.4,-9.2 7.6,-8.5 C7.9,-10.4 9.1,-13.3 10.2,-14.9 C11.3,-16.5 13.5,-18.5 15.2,-19.4 C17.7,-20.8 20.9,-21.4 24.4,-21.4 C34.6,-21.4 39.6,-13.2 39.6,3.6 C39.6,12.9 36.1,21.8 33.1,27.7 C29.8,34.3 25.4,40.6 21.5,44.1 C11.1,53.6 1.3,58.1 1.2,58.1 C1.2,58.1 -0.3,59 0.1,60.5 C0.4,61.5 1.3,61.7 1.9,61.7 C2,61.7 2.3,61.6 2.4,61.6 C2.5,61.6 13.9,56.9 23,49.8 C28.1,46.1 32.7,42.1 36.7,37.8 C40.3,33.9 43.4,29.7 45.9,25.5 C50.3,18 52.8,10.2 52.8,3.5 C52.8,-4.8 50.6,-11.7 46.5,-16.6 C41.8,-22.2 34.7,-25.1 25.4,-25.1 M56.8,-12.4 C56.8,-9.6 59,-7.4 61.6,-7.4 C64.2,-7.4 66.4,-9.6 66.4,-12.4 C66.4,-15.2 64.2,-17.5 61.6,-17.5 C59,-17.5 56.8,-15.2 56.8,-12.4 M56.8,12.3 C56.8,15.1 59,17.4 61.6,17.4 C64.2,17.4 66.4,15.1 66.4,12.3 C66.4,9.5 64.2,7.2 61.6,7.2 C59,7.2 56.8,9.5 56.8,12.3"/>
<path class="Clef" transform="matrix(2.3811,0,0,2.3811,212.156,1586.84)" d="M63.37,-5.89004 C62.14,-11.32 59.5,-15.14 58.72,-16.1801 C55.5301,-20.45 51.52,-23.3 46.8301,-24.65 C43.72,-25.54 40.72,-25.65 38.3,-25.47 C37.2601,-31.4801 36.2601,-37.3601 35.35,-42.8101 C40.79,-48.97 44.42,-54.77 46.69,-59.07 C50.1601,-65.65 51.3101,-70.2301 51.3601,-70.4301 C53.0801,-75.64 53.44,-83.34 52.34,-91.55 C51.3301,-99.1 49.24,-105.81 46.89,-109.06 C45.8601,-110.49 44.8101,-111.22 43.77,-111.22 C42.55,-111.22 40.04,-109.98 37.15,-107.21 C34.85,-105.01 31.5801,-101.12 29.02,-95.1101 C26.02,-88.05 25.8101,-78.5601 26.1601,-71.84 C26.54,-64.57 27.65,-58.8801 27.6601,-58.8301 C27.6801,-58.74 27.94,-57.24 28.39,-54.67 C28.1601,-54.44 27.92,-54.22 27.67,-53.9801 C26.6301,-52.9801 25.44,-51.84 24.0601,-50.4601 C23.2,-49.6 22.25,-48.69 21.25,-47.72 C12.79,-39.57 0,-27.25 0,-8.1 C0,-3.4 0.9,1.01992 2.68008,5.02998 C4.27002,8.62998 6.57002,11.91 9.5,14.78 C17.2301,22.33 27.82,25.5399 34.8801,25.38 C37.8301,25.31 40.4601,25.0699 42.85,24.6199 C44.6801,34.2199 45.82,41.25 45.8601,46.5899 C45.9,53.1 44.25,57.0699 40.35,59.8399 C37.92,61.5699 35.1101,62.5199 32.0101,62.6699 C29.42,62.7899 27.1601,62.3199 25.7301,61.91 L25.72,61.91 C25.72,61.91 25.4301,61.83 25.42,61.63 C25.4101,61.45 25.7601,61.4 25.77,61.4 L25.79,61.4 C27.7101,60.96 31.2801,59.73 33.64,56.43 C35.44,53.91 36.3101,49.2899 34.47,45.35 C33.3601,42.96 30.85,40.01 25.2301,39.56 C22.74,39.36 20.47,39.8699 18.47,41.0699 C16.6601,42.15 15.1601,43.7899 14.1101,45.7899 C11.65,50.4899 12.1101,56.2199 15.24,60.06 C18.2,63.68 22.82,65.9899 28.25,66.5699 C29.1,66.66 29.95,66.7 30.8,66.7 C31.5101,66.7 32.22,66.6699 32.92,66.61 C31.72,66.9399 30.64,67.4899 29.77,68.25 C28.2801,69.5399 27.44,71.38 27.44,73.41 C27.44,75.28 28.0601,76.65 29.55,78.0399 C28.4101,78.5 27.55,78.98 26.79,79.56 C25.25,80.73 24.34,82.46 24.34,84.1899 C24.34,87.45 27.3,89.63 31.72,89.63 C37.1301,89.63 40.9101,86.63 40.9101,82.35 C40.9101,80.1199 39.9101,78.18 38.0801,76.83 C41.0101,75.6199 42.37,73.9399 42.37,71.56 C42.39,70.05 41.69,68.61 40.49,67.6899 C39.2801,66.7399 37.62,66.2399 35.69,66.2399 L35.5101,66.2399 C38.2801,65.7 40.92,64.7 43.2101,63.28 C46.87,60.71 48.99,56.73 49.67,51.1 C50.2301,46.46 49.84,40.55 48.44,32.48 C48.0801,30.3899 47.54,27.36 46.8801,23.6 C52.6301,21.68 56.79,18.11 60.5601,12.26 C63.85,6.51992 64.8,0.419922 63.37,-5.89004 M32.39,87.5399 C30.19,87.5399 28.7301,86.1199 28.7301,84.01 C28.7301,82.11 29.65,80.5 31.32,79.4699 C31.6801,79.66 31.77,79.71 32.1101,79.88 C33.3,80.48 33.3,80.48 33.55,80.63 L33.5601,80.6399 C35.47,81.73 36.25,82.76 36.25,84.18 C36.24,86.0899 34.59,87.5399 32.39,87.5399 M38.3101,71.63 C38.3101,73.2699 37.7301,74.3399 36.1801,75.53 C34.74,74.78 34.35,74.56 33.9801,74.3399 L33.8801,74.28 C32.3301,73.3399 31.85,72.66 31.85,71.4 C31.85,69.6 33.2301,68.3399 35.19,68.3399 C37.17,68.35 38.3101,69.55 38.3101,71.63 M33.15,-83.8101 C34.9301,-89.55 37.67,-92.8 39.6601,-94.5301 C41.4101,-96.05 43.0601,-96.7601 43.9801,-96.7601 C44.12,-96.7601 44.24,-96.74 44.34,-96.7101 C44.8,-96.57 45.3301,-96 45.8,-95.1301 C48.1101,-90.84 47.37,-84.1301 46.0301,-79.69 C44.4,-74.29 41.4801,-68.6801 32.69,-59.0601 C32.52,-60.17 32.3601,-61.22 32.2101,-62.2 C30.95,-70.49 31.27,-77.7601 33.15,-83.8101 M29.15,20.31 C24.5101,19.0899 20.0801,16.5899 16.32,13.0899 C15.0101,11.86 13.14,9.68994 11.67,6.3 C10.3101,3.13994 9.65,-0.290039 9.7,-3.88008 C9.77002,-8.57002 11.0801,-13.39 13.59,-18.1801 C16.5101,-23.7601 21.07,-29.29 27.1301,-34.62 C28.5801,-35.9 29.95,-37.1801 31.24,-38.4601 C32,-34.2 32.8301,-29.5101 33.7101,-24.6301 C29.8601,-23.3601 25.1101,-20.2101 22,-14.5601 C18.47,-7.99004 18.6101,-2.47002 19.34,1.00996 C20.2801,5.46992 22.8101,9.22998 26.27,11.3199 C27.2,11.88 31.3301,14.01 33.17,13.43 C33.54,13.31 33.8101,13.0899 33.95,12.76 C34.4601,11.5899 33.44,10.95 31.8801,9.98994 C31.2801,9.61992 30.6101,9.2 29.8801,8.66992 C26.5601,6.17998 25.1101,1.72998 26.1801,-2.65 C26.7601,-5.05 28.04,-7.21006 29.8801,-8.91006 C31.55,-10.4601 33.59,-11.5601 35.97,-12.2 C38.0101,-0.960059 40.07,10.1899 41.7101,18.55 C41.84,19.2399 41.9801,19.91 42.1101,20.58 C37.7101,21.51 33.37,21.4199 29.15,20.31 M54.9,10.1 C53.7301,13.28 51.27,17.35 46.14,19.41 C46.07,18.9899 45.99,18.56 45.9101,18.13 C44.3601,9.36992 42.4301,-1.61006 40.47,-12.87 C50.82,-13.35 55.09,-5.91006 55.9801,-1.08008 C56.45,1.45 56.45,5.88994 54.9,10.1"/>
<path class="FiguredBass" d="M559.923,2576.05 C562.274,2576.05 564.748,2575.71 567.345,2575.03 L571.52,2573.92 C572.324,2573.92 572.958,2574.22 573.422,2574.84 C573.886,2575.46 573.839,2576.02 573.283,2576.51 L530.143,2626.7 L555.47,2626.7 L555.47,2606.85 C555.47,2605.43 555.857,2604.33 556.63,2603.56 C557.403,2602.78 558.393,2602.17 559.599,2601.7 C560.805,2601.24 562.382,2599.86 564.33,2597.57 C566.278,2595.28 568.149,2592.19 569.943,2588.3 C570.252,2587.68 570.716,2587.37 571.335,2587.37 C572.633,2587.37 573.283,2588.08 573.283,2589.5 L573.283,2626.7 L584.23,2626.7 C585.776,2626.7 586.549,2627.42 586.549,2628.84 C586.549,2630.38 585.776,2631.16 584.23,2631.16 L573.283,2631.16 L573.283,2632.36 C573.283,2636.2 574.303,2639.54 576.344,2642.38 C578.385,2645.23 581.014,2646.65 584.23,2646.65 C585.467,2646.65 586.086,2647.21 586.086,2648.32 C586.086,2649.56 585.467,2650.18 584.23,2650.18 C582.003,2650.18 578.695,2649.85 574.303,2649.2 C569.912,2648.55 566.588,2648.23 564.33,2648.23 C562.073,2648.23 558.748,2648.55 554.357,2649.2 C549.966,2649.85 546.657,2650.18 544.43,2650.18 C543.193,2650.18 542.575,2649.56 542.575,2648.32 C542.575,2647.21 543.193,2646.65 544.43,2646.65 C547.646,2646.65 550.29,2645.23 552.362,2642.38 C554.434,2639.54 555.47,2636.2 555.47,2632.36 L555.47,2631.16 L530.143,2631.16 C528.535,2631.16 527.344,2630.77 526.571,2630 C525.798,2629.22 525.412,2628.44 525.412,2627.63 C525.412,2627.32 526.138,2626.26 527.592,2624.43 C529.045,2622.61 530.823,2620.18 532.926,2617.15 C535.029,2614.12 537.117,2610.67 539.189,2606.8 C541.26,2602.94 543.023,2598.3 544.477,2592.89 C545.93,2587.48 546.657,2582.02 546.657,2576.51 C546.657,2574.91 547.337,2574.1 548.698,2574.1 C548.883,2574.1 549.533,2574.26 550.646,2574.57 C551.759,2574.87 553.182,2575.2 554.914,2575.54 C556.645,2575.88 558.315,2576.05 559.923,2576.05"/>
<path class="FiguredBass" d="M1529,2576.05 C1531.35,2576.05 1533.82,2575.71 1536.42,2575.03 L1540.59,2573.92 C1541.4,2573.92 1542.03,2574.22 1542.49,2574.84 C1542.96,2575.46 1542.91,2576.02 1542.35,2576.51 L1499.21,2626.7 L1524.54,2626.7 L1524.54,2606.85 C1524.54,2605.43 1524.93,2604.33 1525.7,2603.56 C1526.47,2602.78 1527.46,2602.17 1528.67,2601.7 C1529.88,2601.24 1531.45,2599.86 1533.4,2597.57 C1535.35,2595.28 1537.22,2592.19 1539.01,2588.3 C1539.32,2587.68 1539.79,2587.37 1540.41,2587.37 C1541.71,2587.37 1542.35,2588.08 1542.35,2589.5 L1542.35,2626.7 L1553.3,2626.7 C1554.85,2626.7 1555.62,2627.42 1555.62,2628.84 C1555.62,2630.38 1554.85,2631.16 1553.3,2631.16 L1542.35,2631.16 L1542.35,2632.36 C1542.35,2636.2 1543.38,2639.54 1545.42,2642.38 C1547.46,2645.23 1550.09,2646.65 1553.3,2646.65 C1554.54,2646.65 1555.16,2647.21 1555.16,2648.32 C1555.16,2649.56 1554.54,2650.18 1553.3,2650.18 C1551.08,2650.18 1547.77,2649.85 1543.38,2649.2 C1538.98,2648.55 1535.66,2648.23 1533.4,2648.23 C1531.14,2648.23 1527.82,2648.55 1523.43,2649.2 C1519.04,2649.85 1515.73,2650.18 1513.5,2650.18 C1512.27,2650.18 1511.65,2649.56 1511.65,2648.32 C1511.65,2647.21 1512.27,2646.65 1513.5,2646.65 C1516.72,2646.65 1519.36,2645.23 1521.43,2642.38 C1523.51,2639.54 1524.54,2636.2 1524.54,2632.36 L1524.54,2631.16 L1499.21,2631.16 C1497.61,2631.16 1496.42,2630.77 1495.64,2630 C1494.87,2629.22 1494.48,2628.44 1494.48,2627.63 C1494.48,2627.32 1495.21,2626.26 1496.66,2624.43 C1498.12,2622.61 1499.9,2620.18 1502,2617.15 C1504.1,2614.12 1506.19,2610.67 1508.26,2606.8 C1510.33,2602.94 1512.09,2598.3 1513.55,2592.89 C1515,2587.48 1515.73,2582.02 1515.73,2576.51 C1515.73,2574.91 1516.41,2574.1 1517.77,2574.1 C1517.96,2574.1 1518.6,2574.26 1519.72,2574.57 C1520.83,2574.87 1522.25,2575.2 1523.99,2575.54 C1525.72,2575.88 1527.39,2576.05 1529,2576.05"/>
<path class="FiguredBass" d="M2415.81,2576.05 C2418.16,2576.05 2420.63,2575.71 2423.23,2575.03 L2427.4,2573.92 C2428.21,2573.92 2428.84,2574.22 2429.31,2574.84 C2429.77,2575.46 2429.72,2576.02 2429.17,2576.51 L2386.03,2626.7 L2411.35,2626.7 L2411.35,2606.85 C2411.35,2605.43 2411.74,2604.33 2412.51,2603.56 C2413.29,2602.78 2414.28,2602.17 2415.48,2601.7 C2416.69,2601.24 2418.27,2599.86 2420.21,2597.57 C2422.16,2595.28 2424.03,2592.19 2425.83,2588.3 C2426.14,2587.68 2426.6,2587.37 2427.22,2587.37 C2428.52,2587.37 2429.17,2588.08 2429.17,2589.5 L2429.17,2626.7 L2440.11,2626.7 C2441.66,2626.7 2442.43,2627.42 2442.43,2628.84 C2442.43,2630.38 2441.66,2631.16 2440.11,2631.16 L2429.17,2631.16 L2429.17,2632.36 C2429.17,2636.2 2430.19,2639.54 2432.23,2642.38 C2434.27,2645.23 2436.9,2646.65 2440.11,2646.65 C2441.35,2646.65 2441.97,2647.21 2441.97,2648.32 C2441.97,2649.56 2441.35,2650.18 2440.11,2650.18 C2437.89,2650.18 2434.58,2649.85 2430.19,2649.2 C2425.8,2648.55 2422.47,2648.23 2420.21,2648.23 C2417.96,2648.23 2414.63,2648.55 2410.24,2649.2 C2405.85,2649.85 2402.54,2650.18 2400.31,2650.18 C2399.08,2650.18 2398.46,2649.56 2398.46,2648.32 C2398.46,2647.21 2399.08,2646.65 2400.31,2646.65 C2403.53,2646.65 2406.17,2645.23 2408.25,2642.38 C2410.32,2639.54 2411.35,2636.2 2411.35,2632.36 L2411.35,2631.16 L2386.03,2631.16 C2384.42,2631.16 2383.23,2630.77 2382.46,2630 C2381.68,2629.22 2381.3,2628.44 2381.3,2627.63 C2381.3,2627.32 2382.02,2626.26 2383.48,2624.43 C2384.93,2622.61 2386.71,2620.18 2388.81,2617.15 C2390.91,2614.12 2393,2610.67 2395.07,2606.8 C2397.14,2602.94 2398.91,2598.3 2400.36,2592.89 C2401.81,2587.48 2402.54,2582.02 2402.54,2576.51 C2402.54,2574.91 2403.22,2574.1 2404.58,2574.1 C2404.77,2574.1 2405.42,2574.26 2406.53,2574.57 C2407.64,2574.87 2409.07,2575.2 2410.8,2575.54 C2412.53,2575.88 2414.2,2576.05 2415.81,2576.05"/>
<path class="FiguredBass" d="M3361.47,2576.05 C3363.82,2576.05 3366.29,2575.71 3368.89,2575.03 L3373.07,2573.92 C3373.87,2573.92 3374.5,2574.22 3374.97,2574.84 C3375.43,2575.46 3375.39,2576.02 3374.83,2576.51 L3331.69,2626.7 L3357.02,2626.7 L3357.02,2606.85 C3357.02,2605.43 3357.4,2604.33 3358.18,2603.56 C3358.95,2602.78 3359.94,2602.17 3361.15,2601.7 C3362.35,2601.24 3363.93,2599.86 3365.88,2597.57 C3367.82,2595.28 3369.7,2592.19 3371.49,2588.3 C3371.8,2587.68 3372.26,2587.37 3372.88,2587.37 C3374.18,2587.37 3374.83,2588.08 3374.83,2589.5 L3374.83,2626.7 L3385.78,2626.7 C3387.32,2626.7 3388.1,2627.42 3388.1,2628.84 C3388.1,2630.38 3387.32,2631.16 3385.78,2631.16 L3374.83,2631.16 L3374.83,2632.36 C3374.83,2636.2 3375.85,2639.54 3377.89,2642.38 C3379.93,2645.23 3382.56,2646.65 3385.78,2646.65 C3387.01,2646.65 3387.63,2647.21 3387.63,2648.32 C3387.63,2649.56 3387.01,2650.18 3385.78,2650.18 C3383.55,2650.18 3380.24,2649.85 3375.85,2649.2 C3371.46,2648.55 3368.13,2648.23 3365.88,2648.23 C3363.62,2648.23 3360.29,2648.55 3355.9,2649.2 C3351.51,2649.85 3348.2,2650.18 3345.98,2650.18 C3344.74,2650.18 3344.12,2649.56 3344.12,2648.32 C3344.12,2647.21 3344.74,2646.65 3345.98,2646.65 C3349.19,2646.65 3351.84,2645.23 3353.91,2642.38 C3355.98,2639.54 3357.02,2636.2 3357.02,2632.36 L3357.02,2631.16 L3331.69,2631.16 C3330.08,2631.16 3328.89,2630.77 3328.12,2630 C3327.34,2629.22 3326.96,2628.44 3326.96,2627.63 C3326.96,2627.32 3327.68,2626.26 3329.14,2624.43 C3330.59,2622.61 3332.37,2620.18 3334.47,2617.15 C3336.58,2614.12 3338.66,2610.67 3340.73,2606.8 C3342.81,2602.94 3344.57,2598.3 3346.02,2592.89 C3347.48,2587.48 3348.2,2582.02 3348.2,2576.51 C3348.2,2574.91 3348.88,2574.1 3350.24,2574.1 C3350.43,2574.1 3351.08,2574.26 3352.19,2574.57 C3353.31,2574.87 3354.73,2575.2 3356.46,2575.54 C3358.19,2575.88 3359.86,2576.05 3361.47,2576.05"/>
<path class="FiguredBass" d="M559.923,1779.97 C562.274,1779.97 564.748,1779.63 567.345,1778.95 L571.52,1777.84 C572.324,1777.84 572.958,1778.15 573.422,1778.77 C573.886,1779.39 573.839,1779.94 573.283,1780.44 L530.143,1830.63 L555.47,1830.63 L555.47,1810.78 C555.47,1809.35 555.857,1808.26 556.63,1807.48 C557.403,1806.71 558.393,1806.09 559.599,1805.63 C560.805,1805.16 562.382,1803.79 564.33,1801.5 C566.278,1799.21 568.149,1796.12 569.943,1792.22 C570.252,1791.6 570.716,1791.29 571.335,1791.29 C572.633,1791.29 573.283,1792 573.283,1793.43 L573.283,1830.63 L584.23,1830.63 C585.776,1830.63 586.549,1831.34 586.549,1832.76 C586.549,1834.31 585.776,1835.08 584.23,1835.08 L573.283,1835.08 L573.283,1836.29 C573.283,1840.12 574.303,1843.46 576.344,1846.31 C578.385,1849.15 581.014,1850.58 584.23,1850.58 C585.467,1850.58 586.086,1851.13 586.086,1852.25 C586.086,1853.48 585.467,1854.1 584.23,1854.1 C582.003,1854.1 578.695,1853.78 574.303,1853.13 C569.912,1852.48 566.588,1852.15 564.33,1852.15 C562.073,1852.15 558.748,1852.48 554.357,1853.13 C549.966,1853.78 546.657,1854.1 544.43,1854.1 C543.193,1854.1 542.575,1853.48 542.575,1852.25 C542.575,1851.13 543.193,1850.58 544.43,1850.58 C547.646,1850.58 550.29,1849.15 552.362,1846.31 C554.434,1843.46 555.47,1840.12 555.47,1836.29 L555.47,1835.08 L530.143,1835.08 C528.535,1835.08 527.344,1834.7 526.571,1833.92 C525.798,1833.15 525.412,1832.36 525.412,1831.56 C525.412,1831.25 526.138,1830.18 527.592,1828.36 C529.045,1826.53 530.823,1824.1 532.926,1821.07 C535.029,1818.04 537.117,1814.59 539.189,1810.73 C541.26,1806.86 543.023,1802.22 544.477,1796.81 C545.93,1791.4 546.657,1785.94 546.657,1780.44 C546.657,1778.83 547.337,1778.03 548.698,1778.03 C548.883,1778.03 549.533,1778.18 550.646,1778.49 C551.759,1778.8 553.182,1779.12 554.914,1779.46 C556.645,1779.8 558.315,1779.97 559.923,1779.97"/>
<path class="FiguredBass" d="M568.922,1916.06 C573.87,1910.68 576.344,1905.49 576.344,1900.48 C576.344,1896.39 574.597,1893.18 571.103,1890.83 C567.608,1888.48 563.418,1887.3 558.532,1887.3 C555.068,1887.3 552.301,1888.38 550.229,1890.55 C548.157,1892.71 547.121,1895.22 547.121,1898.06 C547.121,1901.53 548.636,1904.16 551.667,1905.95 L568.922,1916.06 M573.468,1918.66 C581.88,1923.55 586.086,1929.98 586.086,1937.96 C586.086,1943.96 583.519,1949.1 578.385,1953.4 C573.252,1957.7 566.232,1959.85 557.326,1959.85 C549.842,1959.85 543.332,1957.87 537.797,1953.91 C532.261,1949.95 529.494,1944.82 529.494,1938.51 C529.494,1936.16 530.174,1933.78 531.535,1931.37 C532.895,1928.96 534.163,1927.15 535.338,1925.94 C536.514,1924.74 538.431,1922.86 541.09,1920.33 C534.905,1916.06 531.813,1910.68 531.813,1904.19 C531.813,1898.62 534.194,1893.83 538.957,1889.81 C543.719,1885.79 550.244,1883.78 558.532,1883.78 C565.15,1883.78 570.886,1885.28 575.741,1888.28 C580.596,1891.28 583.024,1895.34 583.024,1900.48 C583.024,1905.98 579.839,1912.04 573.468,1918.66 M545.636,1923.02 C539.328,1928.52 536.173,1933.69 536.173,1938.51 C536.173,1943.58 538.276,1947.82 542.482,1951.22 C546.688,1954.62 551.636,1956.33 557.326,1956.33 C561.284,1956.33 564.454,1955.06 566.835,1952.52 C569.216,1949.99 570.407,1947.05 570.407,1943.71 C570.407,1939.44 568.644,1936.29 565.119,1934.25 L545.636,1923.02 "/>
<path class="FiguredBass" d="M537.936,1989.53 C537.936,1989.53 539.42,1989.74 542.389,1990.18 C543.688,1990.36 545.141,1990.55 546.75,1990.73 C551.017,1991.23 555.13,1991.47 559.088,1991.47 C563.047,1991.47 567.222,1991.23 571.613,1990.73 C573.345,1990.55 574.86,1990.36 576.159,1990.18 L580.705,1989.53 C581.632,1989.53 582.328,1989.84 582.792,1990.45 C583.256,1991.07 583.21,1991.57 582.653,1991.94 C573.19,2001.4 559.862,2006.13 542.668,2006.13 C541.987,2006.13 541.384,2006.38 540.858,2006.88 C540.333,2007.37 540.07,2007.99 540.07,2008.73 L540.07,2023.3 C544.461,2018.97 549.78,2016.8 556.027,2016.8 C565.057,2016.8 572.03,2018.83 576.947,2022.88 C581.864,2026.93 584.323,2033.07 584.323,2041.29 C584.323,2048.28 581.54,2054.08 575.973,2058.69 C570.407,2063.3 563.758,2065.6 556.027,2065.6 C549.347,2065.6 543.549,2064.09 538.632,2061.05 C533.715,2058.02 531.256,2053.82 531.256,2048.44 C531.256,2045.72 532.246,2043.35 534.225,2041.34 C536.204,2039.33 538.57,2038.33 541.322,2038.33 C544.075,2038.33 546.409,2039.31 548.327,2041.29 C550.244,2043.27 551.203,2045.65 551.203,2048.44 C551.203,2049.67 550.182,2051.02 548.141,2052.47 C546.1,2053.93 545.08,2055.27 545.08,2056.51 C545.08,2060.22 548.729,2062.08 556.027,2062.08 C563.14,2062.08 566.696,2055.15 566.696,2041.29 C566.696,2027.93 563.14,2021.22 556.027,2021.16 C549.656,2021.16 545.203,2022.46 542.668,2025.06 C540.132,2027.66 538.555,2028.96 537.936,2028.96 C536.39,2028.96 535.648,2028.18 535.71,2026.64 L535.71,1991.94 C535.71,1991.26 535.926,1990.69 536.359,1990.22 C536.792,1989.76 537.318,1989.53 537.936,1989.53"/>
<path class="FiguredBass" d="M1507.01,1778.03 C1507.01,1778.03 1508.49,1778.24 1511.46,1778.68 C1512.76,1778.86 1514.21,1779.05 1515.82,1779.23 C1520.09,1779.73 1524.2,1779.97 1528.16,1779.97 C1532.12,1779.97 1536.29,1779.73 1540.68,1779.23 C1542.42,1779.05 1543.93,1778.86 1545.23,1778.68 L1549.78,1778.03 C1550.7,1778.03 1551.4,1778.34 1551.86,1778.95 C1552.33,1779.57 1552.28,1780.07 1551.72,1780.44 C1542.26,1789.9 1528.93,1794.63 1511.74,1794.63 C1511.06,1794.63 1510.46,1794.88 1509.93,1795.38 C1509.4,1795.87 1509.14,1796.49 1509.14,1797.23 L1509.14,1811.8 C1513.53,1807.47 1518.85,1805.3 1525.1,1805.3 C1534.13,1805.3 1541.1,1807.33 1546.02,1811.38 C1550.94,1815.43 1553.39,1821.57 1553.39,1829.79 C1553.39,1836.78 1550.61,1842.58 1545.04,1847.19 C1539.48,1851.8 1532.83,1854.1 1525.1,1854.1 C1518.42,1854.1 1512.62,1852.59 1507.7,1849.55 C1502.79,1846.52 1500.33,1842.32 1500.33,1836.94 C1500.33,1834.22 1501.32,1831.85 1503.3,1829.84 C1505.28,1827.83 1507.64,1826.83 1510.39,1826.83 C1513.15,1826.83 1515.48,1827.81 1517.4,1829.79 C1519.32,1831.77 1520.27,1834.15 1520.27,1836.94 C1520.27,1838.17 1519.25,1839.52 1517.21,1840.97 C1515.17,1842.43 1514.15,1843.77 1514.15,1845.01 C1514.15,1848.72 1517.8,1850.58 1525.1,1850.58 C1532.21,1850.58 1535.77,1843.65 1535.77,1829.79 C1535.77,1816.43 1532.21,1809.72 1525.1,1809.66 C1518.73,1809.66 1514.28,1810.96 1511.74,1813.56 C1509.2,1816.16 1507.63,1817.46 1507.01,1817.46 C1505.46,1817.46 1504.72,1816.68 1504.78,1815.14 L1504.78,1780.44 C1504.78,1779.76 1505,1779.19 1505.43,1778.72 C1505.86,1778.26 1506.39,1778.03 1507.01,1778.03"/>
<path class="FiguredBass" d="M1529,1885.72 C1531.35,1885.72 1533.82,1885.38 1536.42,1884.7 L1540.59,1883.59 C1541.4,1883.59 1542.03,1883.9 1542.49,1884.52 C1542.96,1885.14 1542.91,1885.69 1542.35,1886.19 L1499.21,1936.38 L1524.54,1936.38 L1524.54,1916.53 C1524.54,1915.1 1524.93,1914.01 1525.7,1913.23 C1526.47,1912.46 1527.46,1911.84 1528.67,1911.38 C1529.88,1910.91 1531.45,1909.54 1533.4,1907.25 C1535.35,1904.96 1537.22,1901.87 1539.01,1897.97 C1539.32,1897.35 1539.79,1897.04 1540.41,1897.04 C1541.71,1897.04 1542.35,1897.75 1542.35,1899.18 L1542.35,1936.38 L1553.3,1936.38 C1554.85,1936.38 1555.62,1937.09 1555.62,1938.51 C1555.62,1940.06 1554.85,1940.83 1553.3,1940.83 L1542.35,1940.83 L1542.35,1942.04 C1542.35,1945.87 1543.38,1949.21 1545.42,1952.06 C1547.46,1954.9 1550.09,1956.33 1553.3,1956.33 C1554.54,1956.33 1555.16,1956.88 1555.16,1958 C1555.16,1959.23 1554.54,1959.85 1553.3,1959.85 C1551.08,1959.85 1547.77,1959.53 1543.38,1958.88 C1538.98,1958.23 1535.66,1957.9 1533.4,1957.9 C1531.14,1957.9 1527.82,1958.23 1523.43,1958.88 C1519.04,1959.53 1515.73,1959.85 1513.5,1959.85 C1512.27,1959.85 1511.65,1959.23 1511.65,1958 C1511.65,1956.88 1512.27,1956.33 1513.5,1956.33 C1516.72,1956.33 1519.36,1954.9 1521.43,1952.06 C1523.51,1949.21 1524.54,1945.87 1524.54,1942.04 L1524.54,1940.83 L1499.21,1940.83 C1497.61,1940.83 1496.42,1940.45 1495.64,1939.67 C1494.87,1938.9 1494.48,1938.11 1494.48,1937.31 C1494.48,1937 1495.21,1935.93 1496.66,1934.11 C1498.12,1932.28 1499.9,1929.85 1502,1926.82 C1504.1,1923.79 1506.19,1920.34 1508.26,1916.48 C1510.33,1912.61 1512.09,1907.97 1513.55,1902.56 C1515,1897.15 1515.73,1891.69 1515.73,1886.19 C1515.73,1884.58 1516.41,1883.78 1517.77,1883.78 C1517.96,1883.78 1518.6,1883.93 1519.72,1884.24 C1520.83,1884.55 1522.25,1884.87 1523.99,1885.21 C1525.72,1885.55 1527.39,1885.72 1529,1885.72"/>
<path class="FiguredBass" d="M1537.99,2021.81 C1542.94,2016.43 1545.42,2011.24 1545.42,2006.23 C1545.42,2002.14 1543.67,1998.93 1540.17,1996.58 C1536.68,1994.23 1532.49,1993.05 1527.6,1993.05 C1524.14,1993.05 1521.37,1994.13 1519.3,1996.3 C1517.23,1998.46 1516.19,2000.97 1516.19,2003.81 C1516.19,2007.28 1517.71,2009.91 1520.74,2011.7 L1537.99,2021.81 M1542.54,2024.41 C1550.95,2029.3 1555.16,2035.73 1555.16,2043.71 C1555.16,2049.71 1552.59,2054.85 1547.46,2059.15 C1542.32,2063.45 1535.3,2065.6 1526.4,2065.6 C1518.91,2065.6 1512.4,2063.62 1506.87,2059.66 C1501.33,2055.7 1498.57,2050.57 1498.57,2044.26 C1498.57,2041.91 1499.25,2039.53 1500.61,2037.12 C1501.97,2034.71 1503.24,2032.9 1504.41,2031.69 C1505.59,2030.49 1507.5,2028.61 1510.16,2026.08 C1503.98,2021.81 1500.88,2016.43 1500.88,2009.94 C1500.88,2004.37 1503.27,1999.58 1508.03,1995.56 C1512.79,1991.54 1519.32,1989.53 1527.6,1989.53 C1534.22,1989.53 1539.96,1991.03 1544.81,1994.03 C1549.67,1997.03 1552.1,2001.09 1552.1,2006.23 C1552.1,2011.73 1548.91,2017.79 1542.54,2024.41 M1514.71,2028.77 C1508.4,2034.27 1505.25,2039.44 1505.25,2044.26 C1505.25,2049.33 1507.35,2053.57 1511.55,2056.97 C1515.76,2060.37 1520.71,2062.08 1526.4,2062.08 C1530.36,2062.08 1533.53,2060.81 1535.91,2058.27 C1538.29,2055.74 1539.48,2052.8 1539.48,2049.46 C1539.48,2045.19 1537.72,2042.04 1534.19,2040 L1514.71,2028.77 "/>
<path class="FiguredBass" d="M2424.81,1810.31 C2429.75,1804.93 2432.23,1799.74 2432.23,1794.73 C2432.23,1790.64 2430.48,1787.43 2426.99,1785.08 C2423.49,1782.73 2419.3,1781.55 2414.42,1781.55 C2410.95,1781.55 2408.18,1782.63 2406.11,1784.8 C2404.04,1786.96 2403,1789.47 2403,1792.31 C2403,1795.78 2404.52,1798.41 2407.55,1800.2 L2424.81,1810.31 M2429.35,1812.91 C2437.76,1817.8 2441.97,1824.23 2441.97,1832.21 C2441.97,1838.21 2439.4,1843.35 2434.27,1847.65 C2429.14,1851.95 2422.12,1854.1 2413.21,1854.1 C2405.73,1854.1 2399.22,1852.12 2393.68,1848.16 C2388.15,1844.2 2385.38,1839.07 2385.38,1832.76 C2385.38,1830.41 2386.06,1828.03 2387.42,1825.62 C2388.78,1823.21 2390.05,1821.4 2391.22,1820.19 C2392.4,1818.99 2394.31,1817.11 2396.97,1814.58 C2390.79,1810.31 2387.7,1804.93 2387.7,1798.44 C2387.7,1792.87 2390.08,1788.08 2394.84,1784.06 C2399.6,1780.04 2406.13,1778.03 2414.42,1778.03 C2421.03,1778.03 2426.77,1779.53 2431.63,1782.53 C2436.48,1785.53 2438.91,1789.59 2438.91,1794.73 C2438.91,1800.23 2435.72,1806.29 2429.35,1812.91 M2401.52,1817.27 C2395.21,1822.77 2392.06,1827.94 2392.06,1832.76 C2392.06,1837.83 2394.16,1842.07 2398.37,1845.47 C2402.57,1848.87 2407.52,1850.58 2413.21,1850.58 C2417.17,1850.58 2420.34,1849.31 2422.72,1846.77 C2425.1,1844.24 2426.29,1841.3 2426.29,1837.96 C2426.29,1833.69 2424.53,1830.54 2421,1828.5 L2401.52,1817.27 "/>
<path class="FiguredBass" d="M2393.82,1883.78 C2393.82,1883.78 2395.3,1883.99 2398.27,1884.43 C2399.57,1884.61 2401.03,1884.8 2402.63,1884.98 C2406.9,1885.48 2411.01,1885.72 2414.97,1885.72 C2418.93,1885.72 2423.11,1885.48 2427.5,1884.98 C2429.23,1884.8 2430.74,1884.61 2432.04,1884.43 L2436.59,1883.78 C2437.52,1883.78 2438.21,1884.09 2438.68,1884.7 C2439.14,1885.32 2439.09,1885.82 2438.54,1886.19 C2429.07,1895.65 2415.75,1900.38 2398.55,1900.38 C2397.87,1900.38 2397.27,1900.63 2396.74,1901.13 C2396.22,1901.62 2395.95,1902.24 2395.95,1902.98 L2395.95,1917.55 C2400.35,1913.22 2405.66,1911.05 2411.91,1911.05 C2420.94,1911.05 2427.91,1913.08 2432.83,1917.13 C2437.75,1921.18 2440.21,1927.32 2440.21,1935.54 C2440.21,1942.53 2437.42,1948.33 2431.86,1952.94 C2426.29,1957.55 2419.64,1959.85 2411.91,1959.85 C2405.23,1959.85 2399.43,1958.34 2394.52,1955.3 C2389.6,1952.27 2387.14,1948.07 2387.14,1942.69 C2387.14,1939.97 2388.13,1937.6 2390.11,1935.59 C2392.09,1933.58 2394.45,1932.58 2397.21,1932.58 C2399.96,1932.58 2402.29,1933.56 2404.21,1935.54 C2406.13,1937.52 2407.09,1939.9 2407.09,1942.69 C2407.09,1943.92 2406.07,1945.27 2404.03,1946.72 C2401.98,1948.18 2400.96,1949.52 2400.96,1950.76 C2400.96,1954.47 2404.61,1956.33 2411.91,1956.33 C2419.02,1956.33 2422.58,1949.4 2422.58,1935.54 C2422.58,1922.18 2419.02,1915.47 2411.91,1915.41 C2405.54,1915.41 2401.09,1916.71 2398.55,1919.31 C2396.02,1921.91 2394.44,1923.21 2393.82,1923.21 C2392.27,1923.21 2391.53,1922.43 2391.59,1920.89 L2391.59,1886.19 C2391.59,1885.51 2391.81,1884.94 2392.24,1884.47 C2392.68,1884.01 2393.2,1883.78 2393.82,1883.78"/>
<path class="FiguredBass" d="M2415.81,1991.47 C2418.16,1991.47 2420.63,1991.13 2423.23,1990.45 L2427.4,1989.34 C2428.21,1989.34 2428.84,1989.65 2429.31,1990.27 C2429.77,1990.89 2429.72,1991.44 2429.17,1991.94 L2386.03,2042.13 L2411.35,2042.13 L2411.35,2022.28 C2411.35,2020.85 2411.74,2019.76 2412.51,2018.98 C2413.29,2018.21 2414.28,2017.59 2415.48,2017.13 C2416.69,2016.66 2418.27,2015.29 2420.21,2013 C2422.16,2010.71 2424.03,2007.62 2425.83,2003.72 C2426.14,2003.1 2426.6,2002.79 2427.22,2002.79 C2428.52,2002.79 2429.17,2003.5 2429.17,2004.93 L2429.17,2042.13 L2440.11,2042.13 C2441.66,2042.13 2442.43,2042.84 2442.43,2044.26 C2442.43,2045.81 2441.66,2046.58 2440.11,2046.58 L2429.17,2046.58 L2429.17,2047.79 C2429.17,2051.62 2430.19,2054.96 2432.23,2057.81 C2434.27,2060.65 2436.9,2062.08 2440.11,2062.08 C2441.35,2062.08 2441.97,2062.63 2441.97,2063.75 C2441.97,2064.98 2441.35,2065.6 2440.11,2065.6 C2437.89,2065.6 2434.58,2065.28 2430.19,2064.63 C2425.8,2063.98 2422.47,2063.65 2420.21,2063.65 C2417.96,2063.65 2414.63,2063.98 2410.24,2064.63 C2405.85,2065.28 2402.54,2065.6 2400.31,2065.6 C2399.08,2065.6 2398.46,2064.98 2398.46,2063.75 C2398.46,2062.63 2399.08,2062.08 2400.31,2062.08 C2403.53,2062.08 2406.17,2060.65 2408.25,2057.81 C2410.32,2054.96 2411.35,2051.62 2411.35,2047.79 L2411.35,2046.58 L2386.03,2046.58 C2384.42,2046.58 2383.23,2046.2 2382.46,2045.42 C2381.68,2044.65 2381.3,2043.86 2381.3,2043.06 C2381.3,2042.75 2382.02,2041.68 2383.48,2039.86 C2384.93,2038.03 2386.71,2035.6 2388.81,2032.57 C2390.91,2029.54 2393,2026.09 2395.07,2022.23 C2397.14,2018.36 2398.91,2013.72 2400.36,2008.31 C2401.81,2002.9 2402.54,1997.44 2402.54,1991.94 C2402.54,1990.33 2403.22,1989.53 2404.58,1989.53 C2404.77,1989.53 2405.42,1989.68 2406.53,1989.99 C2407.64,1990.3 2409.07,1990.62 2410.8,1990.96 C2412.53,1991.3 2414.2,1991.47 2415.81,1991.47"/>
<path class="FiguredBass" d="M3361.47,1779.97 C3363.82,1779.97 3366.29,1779.63 3368.89,1778.95 L3373.07,1777.84 C3373.87,1777.84 3374.5,1778.15 3374.97,1778.77 C3375.43,1779.39 3375.39,1779.94 3374.83,1780.44 L3331.69,1830.63 L3357.02,1830.63 L3357.02,1810.78 C3357.02,1809.35 3357.4,1808.26 3358.18,1807.48 C3358.95,1806.71 3359.94,1806.09 3361.15,1805.63 C3362.35,1805.16 3363.93,1803.79 3365.88,1801.5 C3367.82,1799.21 3369.7,1796.12 3371.49,1792.22 C3371.8,1791.6 3372.26,1791.29 3372.88,1791.29 C3374.18,1791.29 3374.83,1792 3374.83,1793.43 L3374.83,1830.63 L3385.78,1830.63 C3387.32,1830.63 3388.1,1831.34 3388.1,1832.76 C3388.1,1834.31 3387.32,1835.08 3385.78,1835.08 L3374.83,1835.08 L3374.83,1836.29 C3374.83,1840.12 3375.85,1843.46 3377.89,1846.31 C3379.93,1849.15 3382.56,1850.58 3385.78,1850.58 C3387.01,1850.58 3387.63,1851.13 3387.63,1852.25 C3387.63,1853.48 3387.01,1854.1 3385.78,1854.1 C3383.55,1854.1 3380.24,1853.78 3375.85,1853.13 C3371.46,1852.48 3368.13,1852.15 3365.88,1852.15 C3363.62,1852.15 3360.29,1852.48 3355.9,1853.13 C3351.51,1853.78 3348.2,1854.1 3345.98,1854.1 C3344.74,1854.1 3344.12,1853.48 3344.12,1852.25 C3344.12,1851.13 3344.74,1850.58 3345.98,1850.58 C3349.19,1850.58 3351.84,1849.15 3353.91,1846.31 C3355.98,1843.46 3357.02,1840.12 3357.02,1836.29 L3357.02,1835.08 L3331.69,1835.08 C3330.08,1835.08 3328.89,1834.7 3328.12,1833.92 C3327.34,1833.15 3326.96,1832.36 3326.96,1831.56 C3326.96,1831.25 3327.68,1830.18 3329.14,1828.36 C3330.59,1826.53 3332.37,1824.1 3334.47,1821.07 C3336.58,1818.04 3338.66,1814.59 3340.73,1810.73 C3342.81,1806.86 3344.57,1802.22 3346.02,1796.81 C3347.48,1791.4 3348.2,1785.94 3348.2,1780.44 C3348.2,1778.83 3348.88,1778.03 3350.24,1778.03 C3350.43,1778.03 3351.08,1778.18 3352.19,1778.49 C3353.31,1778.8 3354.73,1779.12 3356.46,1779.46 C3358.19,1779.8 3359.86,1779.97 3361.47,1779.97"/>
<path class="FiguredBass" d="M3370.47,1916.06 C3375.42,1910.68 3377.89,1905.49 3377.89,1900.48 C3377.89,1896.39 3376.14,1893.18 3372.65,1890.83 C3369.15,1888.48 3364.96,1887.3 3360.08,1887.3 C3356.61,1887.3 3353.85,1888.38 3351.77,1890.55 C3349.7,1892.71 3348.67,1895.22 3348.67,1898.06 C3348.67,1901.53 3350.18,1904.16 3353.21,1905.95 L3370.47,1916.06 M3375.01,1918.66 C3383.43,1923.55 3387.63,1929.98 3387.63,1937.96 C3387.63,1943.96 3385.07,1949.1 3379.93,1953.4 C3374.8,1957.7 3367.78,1959.85 3358.87,1959.85 C3351.39,1959.85 3344.88,1957.87 3339.34,1953.91 C3333.81,1949.95 3331.04,1944.82 3331.04,1938.51 C3331.04,1936.16 3331.72,1933.78 3333.08,1931.37 C3334.44,1928.96 3335.71,1927.15 3336.88,1925.94 C3338.06,1924.74 3339.98,1922.86 3342.64,1920.33 C3336.45,1916.06 3333.36,1910.68 3333.36,1904.19 C3333.36,1898.62 3335.74,1893.83 3340.5,1889.81 C3345.27,1885.79 3351.79,1883.78 3360.08,1883.78 C3366.7,1883.78 3372.43,1885.28 3377.29,1888.28 C3382.14,1891.28 3384.57,1895.34 3384.57,1900.48 C3384.57,1905.98 3381.39,1912.04 3375.01,1918.66 M3347.18,1923.02 C3340.87,1928.52 3337.72,1933.69 3337.72,1938.51 C3337.72,1943.58 3339.82,1947.82 3344.03,1951.22 C3348.23,1954.62 3353.18,1956.33 3358.87,1956.33 C3362.83,1956.33 3366,1955.06 3368.38,1952.52 C3370.76,1949.99 3371.95,1947.05 3371.95,1943.71 C3371.95,1939.44 3370.19,1936.29 3366.67,1934.25 L3347.18,1923.02 "/>
<path class="FiguredBass" d="M3339.48,1989.53 C3339.48,1989.53 3340.97,1989.74 3343.94,1990.18 C3345.23,1990.36 3346.69,1990.55 3348.3,1990.73 C3352.56,1991.23 3356.68,1991.47 3360.63,1991.47 C3364.59,1991.47 3368.77,1991.23 3373.16,1990.73 C3374.89,1990.55 3376.41,1990.36 3377.71,1990.18 L3382.25,1989.53 C3383.18,1989.53 3383.87,1989.84 3384.34,1990.45 C3384.8,1991.07 3384.76,1991.57 3384.2,1991.94 C3374.74,2001.4 3361.41,2006.13 3344.21,2006.13 C3343.53,2006.13 3342.93,2006.38 3342.4,2006.88 C3341.88,2007.37 3341.62,2007.99 3341.62,2008.73 L3341.62,2023.3 C3346.01,2018.97 3351.33,2016.8 3357.57,2016.8 C3366.6,2016.8 3373.58,2018.83 3378.49,2022.88 C3383.41,2026.93 3385.87,2033.07 3385.87,2041.29 C3385.87,2048.28 3383.09,2054.08 3377.52,2058.69 C3371.95,2063.3 3365.3,2065.6 3357.57,2065.6 C3350.89,2065.6 3345.1,2064.09 3340.18,2061.05 C3335.26,2058.02 3332.8,2053.82 3332.8,2048.44 C3332.8,2045.72 3333.79,2043.35 3335.77,2041.34 C3337.75,2039.33 3340.12,2038.33 3342.87,2038.33 C3345.62,2038.33 3347.96,2039.31 3349.87,2041.29 C3351.79,2043.27 3352.75,2045.65 3352.75,2048.44 C3352.75,2049.67 3351.73,2051.02 3349.69,2052.47 C3347.65,2053.93 3346.63,2055.27 3346.63,2056.51 C3346.63,2060.22 3350.28,2062.08 3357.57,2062.08 C3364.69,2062.08 3368.24,2055.15 3368.24,2041.29 C3368.24,2027.93 3364.69,2021.22 3357.57,2021.16 C3351.2,2021.16 3346.75,2022.46 3344.21,2025.06 C3341.68,2027.66 3340.1,2028.96 3339.48,2028.96 C3337.94,2028.96 3337.19,2028.18 3337.26,2026.64 L3337.26,1991.94 C3337.26,1991.26 3337.47,1990.69 3337.91,1990.22 C3338.34,1989.76 3338.86,1989.53 3339.48,1989.53"/>
<polyline class="FretDiagram" stroke="#fc0107" stroke-width="4.76" stroke-linejoin="bevel" points="456.954,214.133 670.062,214.133"/>
<polyline class="FretDiagram" stroke="#fc0107" stroke-width="4.76" stroke-linejoin="bevel" points="459.335,202.227 459.335,428.432"/>
<polyline class="FretDiagram" stroke="#fc0107" stroke-width="4.76" stroke-linejoin="bevel" points="501.004,202.227 501.004,428.432"/>
<polyline class="FretDiagram" stroke="#fc0107" stroke-width="4.76" stroke-linejoin="bevel" points="542.673,202.227 542.673,428.432"/>
<polyline class="FretDiagram" stroke="#fc0107" stroke-width="4.76" stroke-linejoin="bevel" points="584.343,202.227 584.343,428.432"/>
<polyline class="FretDiagram" stroke="#fc0107" stroke-width="4.76" stroke-linejoin="bevel" points="626.012,202.227 626.012,428.432"/>
<polyline class="FretDiagram" stroke="#fc0107" stroke-width="4.76" stroke-linejoin="bevel" points="667.681,202.227 667.681,428.432"/>
<polyline class="FretDiagram" stroke="#fc0107" stroke-width="4.76" stroke-linejoin="bevel" points="459.335,261.755 667.681,261.755"/>
<polyline class="FretDiagram" stroke="#fc0107" stroke-width="4.76" stroke-linejoin="bevel" points="459.335,309.377 667.681,309.377"/>
<polyline class="FretDiagram" stroke="#fc0107" stroke-width="4.76" stroke-linejoin="bevel" points="459.335,356.999 667.681,356.999"/>
<polyline class="FretDiagram" stroke="#fc0107" stroke-width="4.76" stroke-linejoin="bevel" points="459.335,404.621 667.681,404.621"/>
<path class="FretDiagram" fill="#fc0107" fill-rule="evenodd" d="M557.257,333.188 C557.257,341.243 550.728,347.772 542.673,347.772 C534.619,347.772 528.089,341.243 528.089,333.188 C528.089,325.133 534.619,318.604 542.673,318.604 C550.728,318.604 557.257,325.133 557.257,333.188"/>
<path class="FretDiagram" fill="#fc0107" fill-rule="evenodd" d="M598.927,380.81 C598.927,388.865 592.397,395.394 584.343,395.394 C576.288,395.394 569.758,388.865 569.758,380.81 C569.758,372.755 576.288,366.226 584.343,366.226 C592.397,366.226 598.927,372.755 598.927,380.81"/>
<polyline class="FretDiagram" fill="none" stroke="#fc0107" stroke-width="6.86" stroke-linecap="round" stroke-linejoin="bevel" points="442.667,149.843 476.002,183.178"/>
<polyline class="FretDiagram" fill="none" stroke="#fc0107" stroke-width="6.86" stroke-linecap="round" stroke-linejoin="bevel" points="442.667,183.178 476.002,149.843"/>
<polyline class="FretDiagram" fill="none" stroke="#fc0107" stroke-width="6.86" stroke-linecap="round" stroke-linejoin="bevel" points="484.336,149.843 517.672,183.178"/>
<polyline class="FretDiagram" fill="none" stroke="#fc0107" stroke-width="6.86" stroke-linecap="round" stroke-linejoin="bevel" points="484.336,183.178 517.672,149.843"/>
<path class="FretDiagram" fill="none" stroke="#fc0107" stroke-width="6.86" stroke-linecap="round" stroke-linejoin="bevel" fill-rule="evenodd" d="M642.68,166.511 C642.68,175.716 635.217,183.178 626.012,183.178 C616.806,183.178 609.344,175.716 609.344,166.511 C609.344,157.305 616.806,149.843 626.012,149.843 C635.217,149.843 642.68,157.305 642.68,166.511"/>
<path class="FretDiagram" fill="none" stroke="#fc0107" stroke-width="6.86" stroke-linecap="round" stroke-linejoin="bevel" fill-rule="evenodd" d="M684.349,166.511 C684.349,175.716 676.886,183.178 667.681,183.178 C658.476,183.178 651.013,175.716 651.013,166.511 C651.013,157.305 658.476,149.843 667.681,149.843 C676.886,149.843 684.349,157.305 684.349,166.511"/>
<polyline class="FretDiagram" fill="none" stroke="#fc0107" stroke-width="29.17" stroke-linecap="round" stroke-linejoin="bevel" points="542.673,237.944 667.681,237.944"/>
<path class="FretDiagram" fill="#fc0107" d="M415.516,211.155 C410.703,211.155 407.393,212.469 405.588,215.098 C403.783,217.726 402.818,221.225 402.691,225.595 L394.331,225.595 C394.648,211.092 401.678,203.84 415.421,203.84 C421.818,203.84 426.837,205.487 430.478,208.78 C434.12,212.074 435.941,216.602 435.941,222.365 C435.941,229.205 432.806,233.86 426.536,236.33 C430.589,237.724 433.503,239.671 435.276,242.173 C437.049,244.674 437.936,248.079 437.936,252.385 C437.936,258.782 435.862,263.88 431.713,267.68 C427.565,271.48 422.039,273.38 415.136,273.38 C401.329,273.38 393.919,266.129 392.906,251.625 L401.266,251.625 C401.583,256.502 402.881,260.112 405.161,262.455 C407.441,264.799 410.861,265.97 415.421,265.97 C419.791,265.97 423.211,264.783 425.681,262.408 C428.151,260.033 429.386,256.724 429.386,252.48 C429.386,244.31 424.731,240.225 415.421,240.225 L411.906,240.32 L410.861,240.32 L410.861,233.195 C416.878,233.069 421.137,232.309 423.638,230.915 C426.14,229.522 427.391,226.767 427.391,222.65 C427.391,219.104 426.33,216.301 424.208,214.243 C422.087,212.184 419.189,211.155 415.516,211.155"/>
<polyline class="FretDiagram" fill="#fc0107" stroke="#fc02ff" stroke-width="4.76" stroke-linejoin="bevel" points="1426.03,214.133 1639.13,214.133"/>
<polyline class="FretDiagram" fill="#fc0107" stroke="#fc02ff" stroke-width="4.76" stroke-linejoin="bevel" points="1428.41,202.227 1428.41,428.432"/>
<polyline class="FretDiagram" fill="#fc0107" stroke="#fc02ff" stroke-width="4.76" stroke-linejoin="bevel" points="1470.08,202.227 1470.08,428.432"/>
<polyline class="FretDiagram" fill="#fc0107" stroke="#fc02ff" stroke-width="4.76" stroke-linejoin="bevel" points="1511.74,202.227 1511.74,428.432"/>
<polyline class="FretDiagram" fill="#fc0107" stroke="#fc02ff" stroke-width="4.76" stroke-linejoin="bevel" points="1553.41,202.227 1553.41,428.432"/>
<polyline class="FretDiagram" fill="#fc0107" stroke="#fc02ff" stroke-width="4.76" stroke-linejoin="bevel" points="1595.08,202.227 1595.08,428.432"/>
<polyline class="FretDiagram" fill="#fc0107" stroke="#fc02ff" stroke-width="4.76" stroke-linejoin="bevel" points="1636.75,202.227 1636.75,428.432"/>
<polyline class="FretDiagram" fill="#fc0107" stroke="#fc02ff" stroke-width="4.76" stroke-linejoin="bevel" points="1428.41,261.755 1636.75,261.755"/>
<polyline class="FretDiagram" fill="#fc0107" stroke="#fc02ff" stroke-width="4.76" stroke-linejoin="bevel" points="1428.41,309.377 1636.75,309.377"/>
<polyline class="FretDiagram" fill="#fc0107" stroke="#fc02ff" stroke-width="4.76" stroke-linejoin="bevel" points="1428.41,356.999 1636.75,356.999"/>
<polyline class="FretDiagram" fill="#fc0107" stroke="#fc02ff" stroke-width="4.76" stroke-linejoin="bevel" points="1428.41,404.621 1636.75,404.621"/>
<path class="FretDiagram" fill="#fc02ff" fill-rule="evenodd" d="M1484.66,333.188 C1484.66,341.243 1478.13,347.772 1470.08,347.772 C1462.02,347.772 1455.49,341.243 1455.49,333.188 C1455.49,325.133 1462.02,318.604 1470.08,318.604 C1478.13,318.604 1484.66,325.133 1484.66,333.188"/>
<path class="FretDiagram" fill="#fc02ff" fill-rule="evenodd" d="M1526.33,333.188 C1526.33,341.243 1519.8,347.772 1511.74,347.772 C1503.69,347.772 1497.16,341.243 1497.16,333.188 C1497.16,325.133 1503.69,318.604 1511.74,318.604 C1519.8,318.604 1526.33,325.133 1526.33,333.188"/>
<polyline class="FretDiagram" fill="none" stroke="#fc02ff" stroke-width="6.86" stroke-linecap="round" stroke-linejoin="bevel" points="1411.74,149.843 1445.07,183.178"/>
<polyline class="FretDiagram" fill="none" stroke="#fc02ff" stroke-width="6.86" stroke-linecap="round" stroke-linejoin="bevel" points="1411.74,183.178 1445.07,149.843"/>
<path class="FretDiagram" fill="none" stroke="#fc02ff" stroke-width="6.86" stroke-linecap="round" stroke-linejoin="bevel" fill-rule="evenodd" d="M1570.08,166.511 C1570.08,175.716 1562.62,183.178 1553.41,183.178 C1544.21,183.178 1536.75,175.716 1536.75,166.511 C1536.75,157.305 1544.21,149.843 1553.41,149.843 C1562.62,149.843 1570.08,157.305 1570.08,166.511"/>
<path class="FretDiagram" fill="none" stroke="#fc02ff" stroke-width="6.86" stroke-linecap="round" stroke-linejoin="bevel" fill-rule="evenodd" d="M1611.75,166.511 C1611.75,175.716 1604.29,183.178 1595.08,183.178 C1585.88,183.178 1578.42,175.716 1578.42,166.511 C1578.42,157.305 1585.88,149.843 1595.08,149.843 C1604.29,149.843 1611.75,157.305 1611.75,166.511"/>
<polyline class="FretDiagram" fill="none" stroke="#fc02ff" stroke-width="6.86" stroke-linecap="round" stroke-linejoin="bevel" points="1620.09,149.843 1653.42,183.178"/>
<polyline class="FretDiagram" fill="none" stroke="#fc02ff" stroke-width="6.86" stroke-linecap="round" stroke-linejoin="bevel" points="1620.09,183.178 1653.42,149.843"/>
<polyline class="FretDiagram" fill="none" stroke="#fc02ff" stroke-width="29.17" stroke-linecap="round" stroke-linejoin="bevel" points="1470.08,237.944 1636.75,237.944"/>
<path class="FretDiagram" fill="#fc02ff" d="M1384.59,211.155 C1379.77,211.155 1376.47,212.469 1374.66,215.098 C1372.86,217.726 1371.89,221.225 1371.76,225.595 L1363.4,225.595 C1363.72,211.092 1370.75,203.84 1384.49,203.84 C1390.89,203.84 1395.91,205.487 1399.55,208.78 C1403.19,212.074 1405.01,216.602 1405.01,222.365 C1405.01,229.205 1401.88,233.86 1395.61,236.33 C1399.66,237.724 1402.57,239.671 1404.35,242.173 C1406.12,244.674 1407.01,248.079 1407.01,252.385 C1407.01,258.782 1404.93,263.88 1400.79,267.68 C1396.64,271.48 1391.11,273.38 1384.21,273.38 C1370.4,273.38 1362.99,266.129 1361.98,251.625 L1370.34,251.625 C1370.65,256.502 1371.95,260.112 1374.23,262.455 C1376.51,264.799 1379.93,265.97 1384.49,265.97 C1388.86,265.97 1392.28,264.783 1394.75,262.408 C1397.22,260.033 1398.46,256.724 1398.46,252.48 C1398.46,244.31 1393.8,240.225 1384.49,240.225 L1380.98,240.32 L1379.93,240.32 L1379.93,233.195 C1385.95,233.069 1390.21,232.309 1392.71,230.915 C1395.21,229.522 1396.46,226.767 1396.46,222.65 C1396.46,219.104 1395.4,216.301 1393.28,214.243 C1391.16,212.184 1388.26,211.155 1384.59,211.155"/>
<polyline class="FretDiagram" fill="#fc02ff" stroke="#0000ff" stroke-width="4.76" stroke-linejoin="bevel" points="2312.84,214.133 2525.95,214.133"/>
<polyline class="FretDiagram" fill="#fc02ff" stroke="#0000ff" stroke-width="4.76" stroke-linejoin="bevel" points="2315.22,202.227 2315.22,428.432"/>
<polyline class="FretDiagram" fill="#fc02ff" stroke="#0000ff" stroke-width="4.76" stroke-linejoin="bevel" points="2356.89,202.227 2356.89,428.432"/>
<polyline class="FretDiagram" fill="#fc02ff" stroke="#0000ff" stroke-width="4.76" stroke-linejoin="bevel" points="2398.56,202.227 2398.56,428.432"/>
<polyline class="FretDiagram" fill="#fc02ff" stroke="#0000ff" stroke-width="4.76" stroke-linejoin="bevel" points="2440.23,202.227 2440.23,428.432"/>
<polyline class="FretDiagram" fill="#fc02ff" stroke="#0000ff" stroke-width="4.76" stroke-linejoin="bevel" points="2481.9,202.227 2481.9,428.432"/>
<polyline class="FretDiagram" fill="#fc02ff" stroke="#0000ff" stroke-width="4.76" stroke-linejoin="bevel" points="2523.56,202.227 2523.56,428.432"/>
<polyline class="FretDiagram" fill="#fc02ff" stroke="#0000ff" stroke-width="4.76" stroke-linejoin="bevel" points="2315.22,261.755 2523.56,261.755"/>
<polyline class="FretDiagram" fill="#fc02ff" stroke="#0000ff" stroke-width="4.76" stroke-linejoin="bevel" points="2315.22,309.377 2523.56,309.377"/>
<polyline class="FretDiagram" fill="#fc02ff" stroke="#0000ff" stroke-width="4.76" stroke-linejoin="bevel" points="2315.22,356.999 2523.56,356.999"/>
<polyline class="FretDiagram" fill="#fc02ff" stroke="#0000ff" stroke-width="4.76" stroke-linejoin="bevel" points="2315.22,404.621 2523.56,404.621"/>
<path class="FretDiagram" fill="#0000ff" fill-rule="evenodd" d="M2329.8,333.188 C2329.8,341.243 2323.27,347.772 2315.22,347.772 C2307.16,347.772 2300.63,341.243 2300.63,333.188 C2300.63,325.133 2307.16,318.604 2315.22,318.604 C2323.27,318.604 2329.8,325.133 2329.8,333.188"/>
<path class="FretDiagram" fill="#0000ff" fill-rule="evenodd" d="M2371.47,333.188 C2371.47,341.243 2364.94,347.772 2356.89,347.772 C2348.83,347.772 2342.3,341.243 2342.3,333.188 C2342.3,325.133 2348.83,318.604 2356.89,318.604 C2364.94,318.604 2371.47,325.133 2371.47,333.188"/>
<path class="FretDiagram" fill="#0000ff" fill-rule="evenodd" d="M2496.48,333.188 C2496.48,341.243 2489.95,347.772 2481.9,347.772 C2473.84,347.772 2467.31,341.243 2467.31,333.188 C2467.31,325.133 2473.84,318.604 2481.9,318.604 C2489.95,318.604 2496.48,325.133 2496.48,333.188"/>
<polyline class="FretDiagram" fill="none" stroke="#0000ff" stroke-width="6.86" stroke-linecap="round" stroke-linejoin="bevel" points="2381.89,149.843 2415.22,183.178"/>
<polyline class="FretDiagram" fill="none" stroke="#0000ff" stroke-width="6.86" stroke-linecap="round" stroke-linejoin="bevel" points="2381.89,183.178 2415.22,149.843"/>
<path class="FretDiagram" fill="none" stroke="#0000ff" stroke-width="6.86" stroke-linecap="round" stroke-linejoin="bevel" fill-rule="evenodd" d="M2456.89,166.511 C2456.89,175.716 2449.43,183.178 2440.23,183.178 C2431.02,183.178 2423.56,175.716 2423.56,166.511 C2423.56,157.305 2431.02,149.843 2440.23,149.843 C2449.43,149.843 2456.89,157.305 2456.89,166.511"/>
<polyline class="FretDiagram" fill="none" stroke="#0000ff" stroke-width="6.86" stroke-linecap="round" stroke-linejoin="bevel" points="2506.9,149.843 2540.23,183.178"/>
<polyline class="FretDiagram" fill="none" stroke="#0000ff" stroke-width="6.86" stroke-linecap="round" stroke-linejoin="bevel" points="2506.9,183.178 2540.23,149.843"/>
<polyline class="FretDiagram" fill="none" stroke="#0000ff" stroke-width="29.17" stroke-linecap="round" stroke-linejoin="bevel" points="2315.22,237.944 2523.56,237.944"/>
<path class="FretDiagram" fill="#0000ff" d="M2271.4,211.155 C2266.59,211.155 2263.28,212.469 2261.47,215.098 C2259.67,217.726 2258.7,221.225 2258.57,225.595 L2250.21,225.595 C2250.53,211.092 2257.56,203.84 2271.3,203.84 C2277.7,203.84 2282.72,205.487 2286.36,208.78 C2290,212.074 2291.82,216.602 2291.82,222.365 C2291.82,229.205 2288.69,233.86 2282.42,236.33 C2286.47,237.724 2289.39,239.671 2291.16,242.173 C2292.93,244.674 2293.82,248.079 2293.82,252.385 C2293.82,258.782 2291.75,263.88 2287.6,267.68 C2283.45,271.48 2277.92,273.38 2271.02,273.38 C2257.21,273.38 2249.8,266.129 2248.79,251.625 L2257.15,251.625 C2257.47,256.502 2258.76,260.112 2261.04,262.455 C2263.32,264.799 2266.74,265.97 2271.3,265.97 C2275.67,265.97 2279.09,264.783 2281.56,262.408 C2284.03,260.033 2285.27,256.724 2285.27,252.48 C2285.27,244.31 2280.61,240.225 2271.3,240.225 L2267.79,240.32 L2266.74,240.32 L2266.74,233.195 C2272.76,233.069 2277.02,232.309 2279.52,230.915 C2282.02,229.522 2283.27,226.767 2283.27,222.65 C2283.27,219.104 2282.21,216.301 2280.09,214.243 C2277.97,212.184 2275.07,211.155 2271.4,211.155"/>
<polyline class="FretDiagram" fill="#0000ff" stroke="#0000ff" stroke-width="4.76" stroke-linejoin="bevel" points="3258.5,206.022 3471.61,206.022"/>
<polyline class="FretDiagram" fill="#0000ff" stroke="#0000ff" stroke-width="4.76" stroke-linejoin="bevel" points="3260.88,194.117 3260.88,420.321"/>
<polyline class="FretDiagram" fill="#0000ff" stroke="#0000ff" stroke-width="4.76" stroke-linejoin="bevel" points="3302.55,194.117 3302.55,420.321"/>
<polyline class="FretDiagram" fill="#0000ff" stroke="#0000ff" stroke-width="4.76" stroke-linejoin="bevel" points="3344.22,194.117 3344.22,420.321"/>
<polyline class="FretDiagram" fill="#0000ff" stroke="#0000ff" stroke-width="4.76" stroke-linejoin="bevel" points="3385.89,194.117 3385.89,420.321"/>
<polyline class="FretDiagram" fill="#0000ff" stroke="#0000ff" stroke-width="4.76" stroke-linejoin="bevel" points="3427.56,194.117 3427.56,420.321"/>
<polyline class="FretDiagram" fill="#0000ff" stroke="#0000ff" stroke-width="4.76" stroke-linejoin="bevel" points="3469.23,194.117 3469.23,420.321"/>
<polyline class="FretDiagram" fill="#0000ff" stroke="#0000ff" stroke-width="4.76" stroke-linejoin="bevel" points="3260.88,253.644 3469.23,253.644"/>
<polyline class="FretDiagram" fill="#0000ff" stroke="#0000ff" stroke-width="4.76" stroke-linejoin="bevel" points="3260.88,301.266 3469.23,301.266"/>
<polyline class="FretDiagram" fill="#0000ff" stroke="#0000ff" stroke-width="4.76" stroke-linejoin="bevel" points="3260.88,348.888 3469.23,348.888"/>
<polyline class="FretDiagram" fill="#0000ff" stroke="#0000ff" stroke-width="4.76" stroke-linejoin="bevel" points="3260.88,396.51 3469.23,396.51"/>
<path class="FretDiagram" fill="#0000ff" fill-rule="evenodd" d="M3400.47,372.699 C3400.47,380.754 3393.94,387.284 3385.89,387.284 C3377.83,387.284 3371.3,380.754 3371.3,372.699 C3371.3,364.645 3377.83,358.115 3385.89,358.115 C3393.94,358.115 3400.47,364.645 3400.47,372.699"/>
<path class="FretDiagram" fill="none" stroke="#0000ff" stroke-width="6.86" stroke-linecap="round" stroke-linejoin="bevel" fill-rule="evenodd" d="M3277.55,158.4 C3277.55,167.605 3270.09,175.068 3260.88,175.068 C3251.68,175.068 3244.21,167.605 3244.21,158.4 C3244.21,149.195 3251.68,141.732 3260.88,141.732 C3270.09,141.732 3277.55,149.195 3277.55,158.4"/>
<polyline class="FretDiagram" fill="none" stroke="#0000ff" stroke-width="6.86" stroke-linecap="round" stroke-linejoin="bevel" points="3285.88,141.732 3319.22,175.068"/>
<polyline class="FretDiagram" fill="none" stroke="#0000ff" stroke-width="6.86" stroke-linecap="round" stroke-linejoin="bevel" points="3285.88,175.068 3319.22,141.732"/>
<polyline class="FretDiagram" fill="none" stroke="#0000ff" stroke-width="6.86" stroke-linecap="round" stroke-linejoin="bevel" points="3327.55,141.732 3360.89,175.068"/>
<polyline class="FretDiagram" fill="none" stroke="#0000ff" stroke-width="6.86" stroke-linecap="round" stroke-linejoin="bevel" points="3327.55,175.068 3360.89,141.732"/>
<path class="FretDiagram" fill="none" stroke="#0000ff" stroke-width="6.86" stroke-linecap="round" stroke-linejoin="bevel" fill-rule="evenodd" d="M3444.23,158.4 C3444.23,167.605 3436.76,175.068 3427.56,175.068 C3418.35,175.068 3410.89,167.605 3410.89,158.4 C3410.89,149.195 3418.35,141.732 3427.56,141.732 C3436.76,141.732 3444.23,149.195 3444.23,158.4"/>
<path class="FretDiagram" fill="none" stroke="#0000ff" stroke-width="6.86" stroke-linecap="round" stroke-linejoin="bevel" fill-rule="evenodd" d="M3485.9,158.4 C3485.9,167.605 3478.43,175.068 3469.23,175.068 C3460.02,175.068 3452.56,167.605 3452.56,158.4 C3452.56,149.195 3460.02,141.732 3469.23,141.732 C3478.43,141.732 3485.9,149.195 3485.9,158.4"/>
<polyline class="FretDiagram" fill="none" stroke="#0000ff" stroke-width="29.17" stroke-linecap="round" stroke-linejoin="bevel" points="3260.88,229.833 3469.23,229.833"/>
<path class="FretDiagram" fill="#0000ff" d="M3217.06,203.045 C3212.25,203.045 3208.94,204.359 3207.13,206.987 C3205.33,209.615 3204.36,213.115 3204.24,217.485 L3195.88,217.485 C3196.19,202.981 3203.22,195.73 3216.97,195.73 C3223.36,195.73 3228.38,197.376 3232.02,200.67 C3235.67,203.963 3237.49,208.491 3237.49,214.255 C3237.49,221.095 3234.35,225.75 3228.08,228.22 C3232.14,229.613 3235.05,231.56 3236.82,234.062 C3238.6,236.564 3239.48,239.968 3239.48,244.275 C3239.48,250.671 3237.41,255.77 3233.26,259.57 C3229.11,263.37 3223.59,265.27 3216.68,265.27 C3202.88,265.27 3195.47,258.018 3194.45,243.515 L3202.81,243.515 C3203.13,248.391 3204.43,252.001 3206.71,254.345 C3208.99,256.688 3212.41,257.86 3216.97,257.86 C3221.34,257.86 3224.76,256.672 3227.23,254.297 C3229.7,251.922 3230.93,248.613 3230.93,244.37 C3230.93,236.2 3226.28,232.115 3216.97,232.115 L3213.45,232.21 L3212.41,232.21 L3212.41,225.085 C3218.42,224.958 3222.68,224.198 3225.18,222.805 C3227.69,221.411 3228.94,218.656 3228.94,214.54 C3228.94,210.993 3227.88,208.19 3225.75,206.132 C3223.63,204.074 3220.74,203.045 3217.06,203.045"/>
<path class="Bracket" transform="matrix(8.6315,0,0,10.3419,76.1283,2442.44)" d="M0.92002,-50 C2.69004,-51.88 6.2,-55.8 6.2,-63 C6.2,-72.1 2.25996,-81.32 2.25996,-86.97 C2.25996,-93.06 5.84004,-98.84 5.95,-99 C6.05996,-99.16 6.05,-99.39 5.94004,-99.46 C5.82998,-99.53 5.62002,-99.47 5.49004,-99.32 C5.35996,-99.17 0,-93.75 0,-85.6 C0,-76.75 3.5,-70.58 3.5,-59.07 C3.5,-56.89 2.55996,-53.36 0.1,-50.33 C-0.0799805,-50.17 -0.1,-49.89 0.0599609,-49.7 L0.0700195,-49.69 L0.1,-49.66 C2.55996,-46.63 3.5,-43.1 3.5,-40.92 C3.5,-29.4 0,-23.24 0,-14.39 C0,-6.25 5.35996,-0.8 5.49004,-0.659961 C5.62002,-0.52002 5.8,-0.42998 5.94004,-0.52002 C6.07998,-0.609961 6.07998,-0.77998 5.95,-0.97998 C5.82002,-1.17998 2.25996,-6.92002 2.25996,-13.01 C2.25996,-18.66 6.2,-27.9 6.2,-37 C6.2,-44.3 2.69004,-48.12 0.92002,-50"/>
</svg>
