<?xml version="1.0" encoding="UTF-8" standalone="no"?>
<svg width="4209.44px" height="2976.38px" viewBox="0 0 4209.44 2976.38"
 xmlns="http://www.w3.org/2000/svg" xmlns:xlink="http://www.w3.org/1999/xlink" version="1.2" baseProfile="tiny">
<title>Accords (21)</title>
<desc>Generated by MuseScore 3.6.2</desc>
<polyline class="StaffLines" fill="none" stroke="#000000" stroke-width="6.55" stroke-linejoin="bevel" points="153.819,566.759 4138.58,566.759"/>
<polyline class="StaffLines" fill="none" stroke="#000000" stroke-width="6.55" stroke-linejoin="bevel" points="153.819,656.05 4138.58,656.05"/>
<polyline class="StaffLines" fill="none" stroke="#000000" stroke-width="6.55" stroke-linejoin="bevel" points="153.819,745.342 4138.58,745.342"/>
<polyline class="StaffLines" fill="none" stroke="#000000" stroke-width="6.55" stroke-linejoin="bevel" points="153.819,834.633 4138.58,834.633"/>
<polyline class="StaffLines" fill="none" stroke="#000000" stroke-width="6.55" stroke-linejoin="bevel" points="153.819,923.924 4138.58,923.924"/>
<polyline class="StaffLines" fill="none" stroke="#000000" stroke-width="6.55" stroke-linejoin="bevel" points="153.819,1013.22 4138.58,1013.22"/>
<polyline class="StaffLines" fill="none" stroke="#000000" stroke-width="6.55" stroke-linejoin="bevel" points="153.819,1400.14 4138.58,1400.14"/>
<polyline class="StaffLines" fill="none" stroke="#000000" stroke-width="6.55" stroke-linejoin="bevel" points="153.819,1459.67 4138.58,1459.67"/>
<polyline class="StaffLines" fill="none" stroke="#000000" stroke-width="6.55" stroke-linejoin="bevel" points="153.819,1519.2 4138.58,1519.2"/>
<polyline class="StaffLines" fill="none" stroke="#000000" stroke-width="6.55" stroke-linejoin="bevel" points="153.819,1578.73 4138.58,1578.73"/>
<polyline class="StaffLines" fill="none" stroke="#000000" stroke-width="6.55" stroke-linejoin="bevel" points="153.819,1638.26 4138.58,1638.26"/>
<polyline class="StaffLines" fill="none" stroke="#000000" stroke-width="6.55" stroke-linejoin="bevel" points="153.819,2136.69 4138.58,2136.69"/>
<polyline class="StaffLines" fill="none" stroke="#000000" stroke-width="6.55" stroke-linejoin="bevel" points="153.819,2196.22 4138.58,2196.22"/>
<polyline class="StaffLines" fill="none" stroke="#000000" stroke-width="6.55" stroke-linejoin="bevel" points="153.819,2255.75 4138.58,2255.75"/>
<polyline class="StaffLines" fill="none" stroke="#000000" stroke-width="6.55" stroke-linejoin="bevel" points="153.819,2315.27 4138.58,2315.27"/>
<polyline class="StaffLines" fill="none" stroke="#000000" stroke-width="6.55" stroke-linejoin="bevel" points="153.819,2374.8 4138.58,2374.8"/>
<polyline class="BarLine" fill="none" stroke="#000000" stroke-width="10.71" stroke-linejoin="bevel" points="159.176,2133.42 159.176,2378.08"/>
<polyline class="BarLine" fill="none" stroke="#000000" stroke-width="10.71" stroke-linejoin="bevel" points="1304.39,2133.42 1304.39,2378.08"/>
<polyline class="BarLine" fill="none" stroke="#000000" stroke-width="10.71" stroke-linejoin="bevel" points="2178.17,2133.42 2178.17,2378.08"/>
<polyline class="BarLine" fill="none" stroke="#000000" stroke-width="32.74" stroke-linejoin="bevel" points="2219.84,2133.42 2219.84,2378.08"/>
<polyline class="BarLine" fill="none" stroke="#000000" stroke-width="10.71" stroke-linejoin="bevel" points="3219.44,2133.42 3219.44,2378.08"/>
<polyline class="BarLine" fill="none" stroke="#000000" stroke-width="10.71" stroke-linejoin="bevel" points="4080.54,2133.42 4080.54,2378.08"/>
<polyline class="BarLine" fill="none" stroke="#000000" stroke-width="32.74" stroke-linejoin="bevel" points="4122.21,2133.42 4122.21,2378.08"/>
<polyline class="BarLine" fill="none" stroke="#000000" stroke-width="10.71" stroke-linejoin="bevel" points="159.176,1396.87 159.176,2136.69"/>
<polyline class="BarLine" fill="none" stroke="#000000" stroke-width="10.71" stroke-linejoin="bevel" points="1304.39,1396.87 1304.39,1641.53"/>
<polyline class="BarLine" fill="none" stroke="#000000" stroke-width="10.71" stroke-linejoin="bevel" points="2178.17,1396.87 2178.17,1641.53"/>
<polyline class="BarLine" fill="none" stroke="#000000" stroke-width="32.74" stroke-linejoin="bevel" points="2219.84,1396.87 2219.84,1641.53"/>
<polyline class="BarLine" fill="none" stroke="#000000" stroke-width="10.71" stroke-linejoin="bevel" points="3219.44,1396.87 3219.44,1641.53"/>
<polyline class="BarLine" fill="none" stroke="#000000" stroke-width="10.71" stroke-linejoin="bevel" points="4080.54,1396.87 4080.54,1641.53"/>
<polyline class="BarLine" fill="none" stroke="#000000" stroke-width="32.74" stroke-linejoin="bevel" points="4122.21,1396.87 4122.21,1641.53"/>
<polyline class="BarLine" fill="none" stroke="#000000" stroke-width="10.71" stroke-linejoin="bevel" points="159.176,563.485 159.176,1400.14"/>
<polyline class="BarLine" fill="none" stroke="#000000" stroke-width="10.71" stroke-linejoin="bevel" points="1304.39,563.485 1304.39,1016.49"/>
<polyline class="BarLine" fill="none" stroke="#000000" stroke-width="10.71" stroke-linejoin="bevel" points="2178.17,563.485 2178.17,1016.49"/>
<polyline class="BarLine" fill="none" stroke="#000000" stroke-width="32.74" stroke-linejoin="bevel" points="2219.84,563.485 2219.84,1016.49"/>
<polyline class="BarLine" fill="none" stroke="#000000" stroke-width="10.71" stroke-linejoin="bevel" points="3219.44,563.485 3219.44,1016.49"/>
<polyline class="BarLine" fill="none" stroke="#000000" stroke-width="10.71" stroke-linejoin="bevel" points="4080.54,563.485 4080.54,1016.49"/>
<polyline class="BarLine" fill="none" stroke="#000000" stroke-width="32.74" stroke-linejoin="bevel" points="4122.21,563.485 4122.21,1016.49"/>
<path class="Accidental" transform="matrix(2.3811,0,0,2.3811,2373.83,1489.44)" d="M23.3,-10.6 C23.9,-10.7 24.4,-11.4 24.4,-12 L24.4,-17.9 C24.4,-18.7 23.8,-19.3 23,-19.3 L22.8,-19.3 L19.5,-18.6 L19.5,-33.5 L16.7,-33.5 L16.7,-18 L7.8,-16.2 L7.8,-30.3 L5,-30.3 L5,-15.6 L1.1,-14.8 C0.5,-14.7 0,-14 0,-13.4 L0,-13.2 L0,-7.4 L0,-7.6 C0,-6.8 0.6,-6.2 1.4,-6.2 L1.7,-6.2 L5,-6.9 L5,9.6 L1.1,10.4 C0.5,10.5 0,11.2 0,11.8 L0,17.6 C0,18.4 0.6,19 1.4,19 L1.7,19 L5,18.3 L5,33.2 L7.8,33.2 L7.8,17.7 L16.7,15.9 L16.7,30 L19.5,30 L19.5,15.3 L23.3,14.6 C23.9,14.5 24.4,13.8 24.4,13.2 L24.4,7.3 C24.4,6.5 23.8,5.9 23,5.9 L22.8,5.9 L19.5,6.6 L19.5,-9.9 L23.3,-10.6 M7.8,9.1 L7.8,-7.5 L16.7,-9.3 L16.7,7.2 L7.8,9.1 "/>
<path class="Note" transform="matrix(2.3811,0,0,2.3811,519.076,2166.46)" d="M18.7,-13.6 C4.9,-13.6 0,-6.6 0,-0.1 C0,6.4 4.9,13.4 18.7,13.4 C32.5,13.4 37.3,6.4 37.3,-0.1 C37.3,-6.6 32.5,-13.6 18.7,-13.6 M10.4,-4.5 C10.3,-4.9 10.3,-5.3 10.3,-5.7 C10.3,-6.5 10.5,-7.3 10.9,-8 C11.6,-9 12.8,-9.7 14.3,-10 C15.6,-10.3 16.3,-10.5 18.9,-10.5 L19,-10.5 C23,-10.5 24.3,-6.8 25.4,-3 L25.7,-2 C26.5,0.6 26.9,2.8 26.9,4.5 C26.9,5.7 26.7,6.8 26.3,7.6 C25.7,8.7 24.7,9.4 23,9.8 C22.1,10 20.6,10.1 20.6,10.1 C20.1,10.1 19.7,10.2 19.3,10.2 C16.1,10.2 14.1,9 12.7,4.7 C11.5,1 11.3,-0.1 10.4,-4.5"/>
<path class="Note" transform="matrix(2.3811,0,0,2.3811,1392.85,2166.46)" d="M18.7,-13.6 C4.9,-13.6 0,-6.6 0,-0.1 C0,6.4 4.9,13.4 18.7,13.4 C32.5,13.4 37.3,6.4 37.3,-0.1 C37.3,-6.6 32.5,-13.6 18.7,-13.6 M10.4,-4.5 C10.3,-4.9 10.3,-5.3 10.3,-5.7 C10.3,-6.5 10.5,-7.3 10.9,-8 C11.6,-9 12.8,-9.7 14.3,-10 C15.6,-10.3 16.3,-10.5 18.9,-10.5 L19,-10.5 C23,-10.5 24.3,-6.8 25.4,-3 L25.7,-2 C26.5,0.6 26.9,2.8 26.9,4.5 C26.9,5.7 26.7,6.8 26.3,7.6 C25.7,8.7 24.7,9.4 23,9.8 C22.1,10 20.6,10.1 20.6,10.1 C20.1,10.1 19.7,10.2 19.3,10.2 C16.1,10.2 14.1,9 12.7,4.7 C11.5,1 11.3,-0.1 10.4,-4.5"/>
<path class="Note" transform="matrix(2.3811,0,0,2.3811,2446.81,2136.69)" d="M18.7,-13.6 C4.9,-13.6 0,-6.6 0,-0.1 C0,6.4 4.9,13.4 18.7,13.4 C32.5,13.4 37.3,6.4 37.3,-0.1 C37.3,-6.6 32.5,-13.6 18.7,-13.6 M10.4,-4.5 C10.3,-4.9 10.3,-5.3 10.3,-5.7 C10.3,-6.5 10.5,-7.3 10.9,-8 C11.6,-9 12.8,-9.7 14.3,-10 C15.6,-10.3 16.3,-10.5 18.9,-10.5 L19,-10.5 C23,-10.5 24.3,-6.8 25.4,-3 L25.7,-2 C26.5,0.6 26.9,2.8 26.9,4.5 C26.9,5.7 26.7,6.8 26.3,7.6 C25.7,8.7 24.7,9.4 23,9.8 C22.1,10 20.6,10.1 20.6,10.1 C20.1,10.1 19.7,10.2 19.3,10.2 C16.1,10.2 14.1,9 12.7,4.7 C11.5,1 11.3,-0.1 10.4,-4.5"/>
<path class="Note" transform="matrix(2.3811,0,0,2.3811,3307.9,2136.69)" d="M18.7,-13.6 C4.9,-13.6 0,-6.6 0,-0.1 C0,6.4 4.9,13.4 18.7,13.4 C32.5,13.4 37.3,6.4 37.3,-0.1 C37.3,-6.6 32.5,-13.6 18.7,-13.6 M10.4,-4.5 C10.3,-4.9 10.3,-5.3 10.3,-5.7 C10.3,-6.5 10.5,-7.3 10.9,-8 C11.6,-9 12.8,-9.7 14.3,-10 C15.6,-10.3 16.3,-10.5 18.9,-10.5 L19,-10.5 C23,-10.5 24.3,-6.8 25.4,-3 L25.7,-2 C26.5,0.6 26.9,2.8 26.9,4.5 C26.9,5.7 26.7,6.8 26.3,7.6 C25.7,8.7 24.7,9.4 23,9.8 C22.1,10 20.6,10.1 20.6,10.1 C20.1,10.1 19.7,10.2 19.3,10.2 C16.1,10.2 14.1,9 12.7,4.7 C11.5,1 11.3,-0.1 10.4,-4.5"/>
<path class="Note" transform="matrix(2.3811,0,0,2.3811,519.076,1578.73)" d="M18.7,-13.6 C4.9,-13.6 0,-6.6 0,-0.1 C0,6.4 4.9,13.4 18.7,13.4 C32.5,13.4 37.3,6.4 37.3,-0.1 C37.3,-6.6 32.5,-13.6 18.7,-13.6 M10.4,-4.5 C10.3,-4.9 10.3,-5.3 10.3,-5.7 C10.3,-6.5 10.5,-7.3 10.9,-8 C11.6,-9 12.8,-9.7 14.3,-10 C15.6,-10.3 16.3,-10.5 18.9,-10.5 L19,-10.5 C23,-10.5 24.3,-6.8 25.4,-3 L25.7,-2 C26.5,0.6 26.9,2.8 26.9,4.5 C26.9,5.7 26.7,6.8 26.3,7.6 C25.7,8.7 24.7,9.4 23,9.8 C22.1,10 20.6,10.1 20.6,10.1 C20.1,10.1 19.7,10.2 19.3,10.2 C16.1,10.2 14.1,9 12.7,4.7 C11.5,1 11.3,-0.1 10.4,-4.5"/>
<path class="Note" transform="matrix(2.3811,0,0,2.3811,519.076,1519.2)" d="M18.7,-13.6 C4.9,-13.6 0,-6.6 0,-0.1 C0,6.4 4.9,13.4 18.7,13.4 C32.5,13.4 37.3,6.4 37.3,-0.1 C37.3,-6.6 32.5,-13.6 18.7,-13.6 M10.4,-4.5 C10.3,-4.9 10.3,-5.3 10.3,-5.7 C10.3,-6.5 10.5,-7.3 10.9,-8 C11.6,-9 12.8,-9.7 14.3,-10 C15.6,-10.3 16.3,-10.5 18.9,-10.5 L19,-10.5 C23,-10.5 24.3,-6.8 25.4,-3 L25.7,-2 C26.5,0.6 26.9,2.8 26.9,4.5 C26.9,5.7 26.7,6.8 26.3,7.6 C25.7,8.7 24.7,9.4 23,9.8 C22.1,10 20.6,10.1 20.6,10.1 C20.1,10.1 19.7,10.2 19.3,10.2 C16.1,10.2 14.1,9 12.7,4.7 C11.5,1 11.3,-0.1 10.4,-4.5"/>
<path class="Note" transform="matrix(2.3811,0,0,2.3811,519.076,1459.67)" d="M18.7,-13.6 C4.9,-13.6 0,-6.6 0,-0.1 C0,6.4 4.9,13.4 18.7,13.4 C32.5,13.4 37.3,6.4 37.3,-0.1 C37.3,-6.6 32.5,-13.6 18.7,-13.6 M10.4,-4.5 C10.3,-4.9 10.3,-5.3 10.3,-5.7 C10.3,-6.5 10.5,-7.3 10.9,-8 C11.6,-9 12.8,-9.7 14.3,-10 C15.6,-10.3 16.3,-10.5 18.9,-10.5 L19,-10.5 C23,-10.5 24.3,-6.8 25.4,-3 L25.7,-2 C26.5,0.6 26.9,2.8 26.9,4.5 C26.9,5.7 26.7,6.8 26.3,7.6 C25.7,8.7 24.7,9.4 23,9.8 C22.1,10 20.6,10.1 20.6,10.1 C20.1,10.1 19.7,10.2 19.3,10.2 C16.1,10.2 14.1,9 12.7,4.7 C11.5,1 11.3,-0.1 10.4,-4.5"/>
<path class="Note" transform="matrix(2.3811,0,0,2.3811,1392.85,1578.73)" d="M18.7,-13.6 C4.9,-13.6 0,-6.6 0,-0.1 C0,6.4 4.9,13.4 18.7,13.4 C32.5,13.4 37.3,6.4 37.3,-0.1 C37.3,-6.6 32.5,-13.6 18.7,-13.6 M10.4,-4.5 C10.3,-4.9 10.3,-5.3 10.3,-5.7 C10.3,-6.5 10.5,-7.3 10.9,-8 C11.6,-9 12.8,-9.7 14.3,-10 C15.6,-10.3 16.3,-10.5 18.9,-10.5 L19,-10.5 C23,-10.5 24.3,-6.8 25.4,-3 L25.7,-2 C26.5,0.6 26.9,2.8 26.9,4.5 C26.9,5.7 26.7,6.8 26.3,7.6 C25.7,8.7 24.7,9.4 23,9.8 C22.1,10 20.6,10.1 20.6,10.1 C20.1,10.1 19.7,10.2 19.3,10.2 C16.1,10.2 14.1,9 12.7,4.7 C11.5,1 11.3,-0.1 10.4,-4.5"/>
<path class="Note" transform="matrix(2.3811,0,0,2.3811,1392.85,1489.44)" d="M18.7,-13.6 C4.9,-13.6 0,-6.6 0,-0.1 C0,6.4 4.9,13.4 18.7,13.4 C32.5,13.4 37.3,6.4 37.3,-0.1 C37.3,-6.6 32.5,-13.6 18.7,-13.6 M10.4,-4.5 C10.3,-4.9 10.3,-5.3 10.3,-5.7 C10.3,-6.5 10.5,-7.3 10.9,-8 C11.6,-9 12.8,-9.7 14.3,-10 C15.6,-10.3 16.3,-10.5 18.9,-10.5 L19,-10.5 C23,-10.5 24.3,-6.8 25.4,-3 L25.7,-2 C26.5,0.6 26.9,2.8 26.9,4.5 C26.9,5.7 26.7,6.8 26.3,7.6 C25.7,8.7 24.7,9.4 23,9.8 C22.1,10 20.6,10.1 20.6,10.1 C20.1,10.1 19.7,10.2 19.3,10.2 C16.1,10.2 14.1,9 12.7,4.7 C11.5,1 11.3,-0.1 10.4,-4.5"/>
<path class="Note" transform="matrix(2.3811,0,0,2.3811,1392.85,1429.91)" d="M18.7,-13.6 C4.9,-13.6 0,-6.6 0,-0.1 C0,6.4 4.9,13.4 18.7,13.4 C32.5,13.4 37.3,6.4 37.3,-0.1 C37.3,-6.6 32.5,-13.6 18.7,-13.6 M10.4,-4.5 C10.3,-4.9 10.3,-5.3 10.3,-5.7 C10.3,-6.5 10.5,-7.3 10.9,-8 C11.6,-9 12.8,-9.7 14.3,-10 C15.6,-10.3 16.3,-10.5 18.9,-10.5 L19,-10.5 C23,-10.5 24.3,-6.8 25.4,-3 L25.7,-2 C26.5,0.6 26.9,2.8 26.9,4.5 C26.9,5.7 26.7,6.8 26.3,7.6 C25.7,8.7 24.7,9.4 23,9.8 C22.1,10 20.6,10.1 20.6,10.1 C20.1,10.1 19.7,10.2 19.3,10.2 C16.1,10.2 14.1,9 12.7,4.7 C11.5,1 11.3,-0.1 10.4,-4.5"/>
<path class="Note" transform="matrix(2.3811,0,0,2.3811,2446.81,1548.96)" d="M18.7,-13.6 C4.9,-13.6 0,-6.6 0,-0.1 C0,6.4 4.9,13.4 18.7,13.4 C32.5,13.4 37.3,6.4 37.3,-0.1 C37.3,-6.6 32.5,-13.6 18.7,-13.6 M10.4,-4.5 C10.3,-4.9 10.3,-5.3 10.3,-5.7 C10.3,-6.5 10.5,-7.3 10.9,-8 C11.6,-9 12.8,-9.7 14.3,-10 C15.6,-10.3 16.3,-10.5 18.9,-10.5 L19,-10.5 C23,-10.5 24.3,-6.8 25.4,-3 L25.7,-2 C26.5,0.6 26.9,2.8 26.9,4.5 C26.9,5.7 26.7,6.8 26.3,7.6 C25.7,8.7 24.7,9.4 23,9.8 C22.1,10 20.6,10.1 20.6,10.1 C20.1,10.1 19.7,10.2 19.3,10.2 C16.1,10.2 14.1,9 12.7,4.7 C11.5,1 11.3,-0.1 10.4,-4.5"/>
<path class="Note" transform="matrix(2.3811,0,0,2.3811,2446.81,1489.44)" d="M18.7,-13.6 C4.9,-13.6 0,-6.6 0,-0.1 C0,6.4 4.9,13.4 18.7,13.4 C32.5,13.4 37.3,6.4 37.3,-0.1 C37.3,-6.6 32.5,-13.6 18.7,-13.6 M10.4,-4.5 C10.3,-4.9 10.3,-5.3 10.3,-5.7 C10.3,-6.5 10.5,-7.3 10.9,-8 C11.6,-9 12.8,-9.7 14.3,-10 C15.6,-10.3 16.3,-10.5 18.9,-10.5 L19,-10.5 C23,-10.5 24.3,-6.8 25.4,-3 L25.7,-2 C26.5,0.6 26.9,2.8 26.9,4.5 C26.9,5.7 26.7,6.8 26.3,7.6 C25.7,8.7 24.7,9.4 23,9.8 C22.1,10 20.6,10.1 20.6,10.1 C20.1,10.1 19.7,10.2 19.3,10.2 C16.1,10.2 14.1,9 12.7,4.7 C11.5,1 11.3,-0.1 10.4,-4.5"/>
<path class="Note" transform="matrix(2.3811,0,0,2.3811,2446.81,1429.91)" d="M18.7,-13.6 C4.9,-13.6 0,-6.6 0,-0.1 C0,6.4 4.9,13.4 18.7,13.4 C32.5,13.4 37.3,6.4 37.3,-0.1 C37.3,-6.6 32.5,-13.6 18.7,-13.6 M10.4,-4.5 C10.3,-4.9 10.3,-5.3 10.3,-5.7 C10.3,-6.5 10.5,-7.3 10.9,-8 C11.6,-9 12.8,-9.7 14.3,-10 C15.6,-10.3 16.3,-10.5 18.9,-10.5 L19,-10.5 C23,-10.5 24.3,-6.8 25.4,-3 L25.7,-2 C26.5,0.6 26.9,2.8 26.9,4.5 C26.9,5.7 26.7,6.8 26.3,7.6 C25.7,8.7 24.7,9.4 23,9.8 C22.1,10 20.6,10.1 20.6,10.1 C20.1,10.1 19.7,10.2 19.3,10.2 C16.1,10.2 14.1,9 12.7,4.7 C11.5,1 11.3,-0.1 10.4,-4.5"/>
<path class="Note" transform="matrix(2.3811,0,0,2.3811,3307.9,1548.96)" d="M18.7,-13.6 C4.9,-13.6 0,-6.6 0,-0.1 C0,6.4 4.9,13.4 18.7,13.4 C32.5,13.4 37.3,6.4 37.3,-0.1 C37.3,-6.6 32.5,-13.6 18.7,-13.6 M10.4,-4.5 C10.3,-4.9 10.3,-5.3 10.3,-5.7 C10.3,-6.5 10.5,-7.3 10.9,-8 C11.6,-9 12.8,-9.7 14.3,-10 C15.6,-10.3 16.3,-10.5 18.9,-10.5 L19,-10.5 C23,-10.5 24.3,-6.8 25.4,-3 L25.7,-2 C26.5,0.6 26.9,2.8 26.9,4.5 C26.9,5.7 26.7,6.8 26.3,7.6 C25.7,8.7 24.7,9.4 23,9.8 C22.1,10 20.6,10.1 20.6,10.1 C20.1,10.1 19.7,10.2 19.3,10.2 C16.1,10.2 14.1,9 12.7,4.7 C11.5,1 11.3,-0.1 10.4,-4.5"/>
<path class="Note" transform="matrix(2.3811,0,0,2.3811,3307.9,1459.67)" d="M18.7,-13.6 C4.9,-13.6 0,-6.6 0,-0.1 C0,6.4 4.9,13.4 18.7,13.4 C32.5,13.4 37.3,6.4 37.3,-0.1 C37.3,-6.6 32.5,-13.6 18.7,-13.6 M10.4,-4.5 C10.3,-4.9 10.3,-5.3 10.3,-5.7 C10.3,-6.5 10.5,-7.3 10.9,-8 C11.6,-9 12.8,-9.7 14.3,-10 C15.6,-10.3 16.3,-10.5 18.9,-10.5 L19,-10.5 C23,-10.5 24.3,-6.8 25.4,-3 L25.7,-2 C26.5,0.6 26.9,2.8 26.9,4.5 C26.9,5.7 26.7,6.8 26.3,7.6 C25.7,8.7 24.7,9.4 23,9.8 C22.1,10 20.6,10.1 20.6,10.1 C20.1,10.1 19.7,10.2 19.3,10.2 C16.1,10.2 14.1,9 12.7,4.7 C11.5,1 11.3,-0.1 10.4,-4.5"/>
<path class="Note" transform="matrix(2.3811,0,0,2.3811,3307.9,1400.14)" d="M18.7,-13.6 C4.9,-13.6 0,-6.6 0,-0.1 C0,6.4 4.9,13.4 18.7,13.4 C32.5,13.4 37.3,6.4 37.3,-0.1 C37.3,-6.6 32.5,-13.6 18.7,-13.6 M10.4,-4.5 C10.3,-4.9 10.3,-5.3 10.3,-5.7 C10.3,-6.5 10.5,-7.3 10.9,-8 C11.6,-9 12.8,-9.7 14.3,-10 C15.6,-10.3 16.3,-10.5 18.9,-10.5 L19,-10.5 C23,-10.5 24.3,-6.8 25.4,-3 L25.7,-2 C26.5,0.6 26.9,2.8 26.9,4.5 C26.9,5.7 26.7,6.8 26.3,7.6 C25.7,8.7 24.7,9.4 23,9.8 C22.1,10 20.6,10.1 20.6,10.1 C20.1,10.1 19.7,10.2 19.3,10.2 C16.1,10.2 14.1,9 12.7,4.7 C11.5,1 11.3,-0.1 10.4,-4.5"/>
<path class="Note" d="M486.807,596.25 C487.117,584.551 493.586,574.17 506.214,565.105 C517.448,557.048 529.727,553.019 543.053,553.019 C561.724,553.019 578.187,560.341 592.443,574.983 C601.507,584.357 606.039,595.979 606.039,609.846 C606.039,622.32 602.708,631.888 596.045,638.55 C587.91,646.763 579.311,650.869 570.246,650.869 C564.048,650.869 559.245,649.474 555.836,646.685 C550.258,642.114 547.469,635.994 547.469,628.324 C547.469,618.407 552.427,609.343 562.344,601.131 C570.479,594.39 578.652,589.974 586.864,587.883 C584.695,584.164 581.945,580.677 578.613,577.424 C568.232,567.274 556.456,562.2 543.285,562.2 C529.572,562.2 518.222,565.183 509.236,571.148 C499.939,577.269 492.462,585.636 486.807,596.25 M589.77,594.042 C585.509,597.993 581.248,602.215 576.986,606.709 C568.619,615.541 564.436,623.908 564.436,631.81 C564.436,640.255 566.373,644.477 570.246,644.477 C573.733,644.477 578.613,639.713 584.889,630.183 C589.925,622.591 592.443,615.618 592.443,609.265 C592.443,603.842 591.552,598.768 589.77,594.042"/>
<path class="Note" d="M612.77,837.395 C617.109,834.451 620.247,832.011 622.183,830.074 C625.747,826.278 627.529,822.791 627.529,819.615 C627.529,815.974 625.515,814.153 621.486,814.153 C613.661,814.153 605.294,821.048 596.385,834.839 C593.673,839.022 587.708,852.658 578.488,875.745 C585.848,883.337 589.528,887.637 589.528,888.644 C589.528,890.039 588.637,890.736 586.855,890.736 C585.461,890.736 581.626,888.373 575.35,883.647 C568.533,899.529 558.19,913.087 544.322,924.321 C530.144,935.787 513.216,941.52 493.538,941.52 C486.023,941.52 476.61,939.777 465.299,936.291 C456.234,933.502 451.702,929.047 451.702,922.926 C451.702,913.862 455.188,909.33 462.161,909.33 C466.345,909.33 468.436,911.267 468.436,915.14 C468.436,916.38 467.468,917.697 465.531,919.091 C464.524,919.789 464.02,921.145 464.02,923.159 C464.02,925.561 466.693,928.04 472.039,930.596 C477.85,933.385 486.372,934.78 497.605,934.78 C512.093,934.78 526.077,928.505 539.558,915.954 C551.798,904.565 560.592,891.317 565.937,876.21 C563.846,874.505 561.599,872.646 559.197,870.632 C551.76,866.216 548.041,861.683 548.041,857.035 C548.041,855.098 549.319,854.13 551.876,854.13 C555.285,854.13 559.894,857.035 565.705,862.845 C566.945,864.085 568.107,865.247 569.191,866.332 C571.903,858.894 576.241,849.442 582.207,837.976 C592.976,817.213 606.069,806.832 621.486,806.832 C626.987,806.832 631.325,807.878 634.502,809.969 C637.678,812.061 639.267,814.928 639.267,818.569 C639.267,824.38 637.136,829.299 632.875,833.328 C628.459,837.511 623.849,839.603 619.046,839.603 C614.862,839.603 612.77,838.867 612.77,837.395"/>
<path class="Note" d="M633.688,803.188 C627.336,813.182 617.303,821.472 603.59,828.057 C591.659,833.79 580.503,836.657 570.121,836.657 C561.831,836.657 554.936,834.991 549.435,831.66 C543.47,828.018 540.487,823.68 540.487,818.644 C540.487,807.255 543.47,797.455 549.435,789.243 C557.57,778.086 565.782,772.508 574.072,772.508 C579.96,772.508 584.144,773.67 586.623,775.994 C590.032,779.016 591.736,783.161 591.736,788.429 C591.736,795.867 586.197,802.336 575.118,807.836 C564.349,813.182 556.873,816.668 552.689,818.295 C553.619,820.232 554.82,821.975 556.292,823.525 C559.933,827.398 564.892,829.335 571.167,829.335 C579.069,829.335 589.683,826.43 603.009,820.619 C615.792,814.964 626.018,809.153 633.688,803.188 M551.062,812.95 C556.873,810.006 562.18,806.558 566.983,802.607 C574.111,796.796 577.675,790.521 577.675,783.781 C577.675,779.984 575.932,778.086 572.445,778.086 C569.501,778.086 565.473,781.456 560.359,788.197 C553.929,796.564 550.714,803.382 550.714,808.65 C550.714,810.122 550.83,811.555 551.062,812.95"/>
<path class="Note" d="M486.807,685.541 C487.117,673.842 493.586,663.461 506.214,654.396 C517.448,646.339 529.727,642.311 543.053,642.311 C561.724,642.311 578.187,649.632 592.443,664.274 C601.507,673.649 606.039,685.27 606.039,699.138 C606.039,711.611 602.708,721.179 596.045,727.842 C587.91,736.054 579.311,740.16 570.246,740.16 C564.048,740.16 559.245,738.766 555.836,735.977 C550.258,731.406 547.469,725.285 547.469,717.615 C547.469,707.699 552.427,698.634 562.344,690.422 C570.479,683.682 578.652,679.266 586.864,677.174 C584.695,673.455 581.945,669.969 578.613,666.715 C568.232,656.566 556.456,651.491 543.285,651.491 C529.572,651.491 518.222,654.474 509.236,660.439 C499.939,666.56 492.462,674.927 486.807,685.541 M589.77,683.333 C585.509,687.284 581.248,691.507 576.986,696 C568.619,704.832 564.436,713.199 564.436,721.102 C564.436,729.546 566.373,733.769 570.246,733.769 C573.733,733.769 578.613,729.004 584.889,719.475 C589.925,711.882 592.443,704.91 592.443,698.557 C592.443,693.133 591.552,688.059 589.77,683.333"/>
<path class="Note" d="M612.77,480.23 C617.109,477.286 620.247,474.845 622.183,472.909 C625.747,469.112 627.529,465.626 627.529,462.45 C627.529,458.808 625.515,456.988 621.486,456.988 C613.661,456.988 605.294,463.883 596.385,477.673 C593.673,481.857 587.708,495.492 578.488,518.579 C585.848,526.172 589.528,530.472 589.528,531.479 C589.528,532.873 588.637,533.571 586.855,533.571 C585.461,533.571 581.626,531.208 575.35,526.482 C568.533,542.364 558.19,555.922 544.322,567.156 C530.144,578.622 513.216,584.355 493.538,584.355 C486.023,584.355 476.61,582.612 465.299,579.125 C456.234,576.336 451.702,571.882 451.702,565.761 C451.702,556.697 455.188,552.164 462.161,552.164 C466.345,552.164 468.436,554.101 468.436,557.975 C468.436,559.215 467.468,560.532 465.531,561.926 C464.524,562.623 464.02,563.979 464.02,565.994 C464.02,568.395 466.693,570.874 472.039,573.431 C477.85,576.22 486.372,577.615 497.605,577.615 C512.093,577.615 526.077,571.339 539.558,558.788 C551.798,547.4 560.592,534.152 565.937,519.044 C563.846,517.34 561.599,515.48 559.197,513.466 C551.76,509.05 548.041,504.518 548.041,499.869 C548.041,497.933 549.319,496.964 551.876,496.964 C555.285,496.964 559.894,499.869 565.705,505.68 C566.945,506.92 568.107,508.082 569.191,509.166 C571.903,501.729 576.241,492.277 582.207,480.811 C592.976,460.048 606.069,449.666 621.486,449.666 C626.987,449.666 631.325,450.712 634.502,452.804 C637.678,454.896 639.267,457.762 639.267,461.404 C639.267,467.214 637.136,472.134 632.875,476.162 C628.459,480.346 623.849,482.438 619.046,482.438 C614.862,482.438 612.77,481.702 612.77,480.23"/>
<path class="Note" d="M1360.58,596.25 C1360.89,584.551 1367.36,574.17 1379.99,565.105 C1391.23,557.048 1403.51,553.019 1416.83,553.019 C1435.5,553.019 1451.97,560.341 1466.22,574.983 C1475.28,584.357 1479.82,595.979 1479.82,609.846 C1479.82,622.32 1476.49,631.888 1469.82,638.55 C1461.69,646.763 1453.09,650.869 1444.02,650.869 C1437.83,650.869 1433.02,649.474 1429.61,646.685 C1424.04,642.114 1421.25,635.994 1421.25,628.324 C1421.25,618.407 1426.21,609.343 1436.12,601.131 C1444.26,594.39 1452.43,589.974 1460.64,587.883 C1458.47,584.164 1455.72,580.677 1452.39,577.424 C1442.01,567.274 1430.23,562.2 1417.06,562.2 C1403.35,562.2 1392,565.183 1383.01,571.148 C1373.72,577.269 1366.24,585.636 1360.58,596.25 M1463.55,594.042 C1459.29,597.993 1455.03,602.215 1450.76,606.709 C1442.4,615.541 1438.21,623.908 1438.21,631.81 C1438.21,640.255 1440.15,644.477 1444.02,644.477 C1447.51,644.477 1452.39,639.713 1458.67,630.183 C1463.7,622.591 1466.22,615.618 1466.22,609.265 C1466.22,603.842 1465.33,598.768 1463.55,594.042"/>
<path class="Note" d="M1486.55,837.395 C1490.89,834.451 1494.02,832.011 1495.96,830.074 C1499.53,826.278 1501.31,822.791 1501.31,819.615 C1501.31,815.974 1499.29,814.153 1495.26,814.153 C1487.44,814.153 1479.07,821.048 1470.16,834.839 C1467.45,839.022 1461.49,852.658 1452.27,875.745 C1459.63,883.337 1463.31,887.637 1463.31,888.644 C1463.31,890.039 1462.42,890.736 1460.63,890.736 C1459.24,890.736 1455.4,888.373 1449.13,883.647 C1442.31,899.529 1431.97,913.087 1418.1,924.321 C1403.92,935.787 1386.99,941.52 1367.32,941.52 C1359.8,941.52 1350.39,939.777 1339.08,936.291 C1330.01,933.502 1325.48,929.047 1325.48,922.926 C1325.48,913.862 1328.97,909.33 1335.94,909.33 C1340.12,909.33 1342.21,911.267 1342.21,915.14 C1342.21,916.38 1341.25,917.697 1339.31,919.091 C1338.3,919.789 1337.8,921.145 1337.8,923.159 C1337.8,925.561 1340.47,928.04 1345.82,930.596 C1351.63,933.385 1360.15,934.78 1371.38,934.78 C1385.87,934.78 1399.85,928.505 1413.34,915.954 C1425.58,904.565 1434.37,891.317 1439.72,876.21 C1437.62,874.505 1435.38,872.646 1432.98,870.632 C1425.54,866.216 1421.82,861.683 1421.82,857.035 C1421.82,855.098 1423.1,854.13 1425.65,854.13 C1429.06,854.13 1433.67,857.035 1439.48,862.845 C1440.72,864.085 1441.88,865.247 1442.97,866.332 C1445.68,858.894 1450.02,849.442 1455.98,837.976 C1466.75,817.213 1479.85,806.832 1495.26,806.832 C1500.76,806.832 1505.1,807.878 1508.28,809.969 C1511.46,812.061 1513.04,814.928 1513.04,818.569 C1513.04,824.38 1510.91,829.299 1506.65,833.328 C1502.24,837.511 1497.63,839.603 1492.82,839.603 C1488.64,839.603 1486.55,838.867 1486.55,837.395"/>
<path class="Note" d="M1486.55,748.104 C1490.89,745.16 1494.02,742.719 1495.96,740.783 C1499.53,736.986 1501.31,733.5 1501.31,730.324 C1501.31,726.682 1499.29,724.862 1495.26,724.862 C1487.44,724.862 1479.07,731.757 1470.16,745.547 C1467.45,749.731 1461.49,763.366 1452.27,786.453 C1459.63,794.046 1463.31,798.346 1463.31,799.353 C1463.31,800.747 1462.42,801.445 1460.63,801.445 C1459.24,801.445 1455.4,799.082 1449.13,794.356 C1442.31,810.238 1431.97,823.796 1418.1,835.03 C1403.92,846.496 1386.99,852.229 1367.32,852.229 C1359.8,852.229 1350.39,850.486 1339.08,846.999 C1330.01,844.21 1325.48,839.756 1325.48,833.635 C1325.48,824.571 1328.97,820.038 1335.94,820.038 C1340.12,820.038 1342.21,821.975 1342.21,825.849 C1342.21,827.089 1341.25,828.406 1339.31,829.8 C1338.3,830.497 1337.8,831.853 1337.8,833.868 C1337.8,836.269 1340.47,838.748 1345.82,841.305 C1351.63,844.094 1360.15,845.489 1371.38,845.489 C1385.87,845.489 1399.85,839.213 1413.34,826.662 C1425.58,815.274 1434.37,802.026 1439.72,786.918 C1437.62,785.214 1435.38,783.355 1432.98,781.34 C1425.54,776.924 1421.82,772.392 1421.82,767.743 C1421.82,765.807 1423.1,764.838 1425.65,764.838 C1429.06,764.838 1433.67,767.743 1439.48,773.554 C1440.72,774.794 1441.88,775.956 1442.97,777.04 C1445.68,769.603 1450.02,760.151 1455.98,748.685 C1466.75,727.922 1479.85,717.54 1495.26,717.54 C1500.76,717.54 1505.1,718.586 1508.28,720.678 C1511.46,722.77 1513.04,725.636 1513.04,729.278 C1513.04,735.088 1510.91,740.008 1506.65,744.036 C1502.24,748.22 1497.63,750.312 1492.82,750.312 C1488.64,750.312 1486.55,749.576 1486.55,748.104"/>
<path class="Note" d="M1360.58,506.958 C1360.89,495.26 1367.36,484.878 1379.99,475.814 C1391.23,467.757 1403.51,463.728 1416.83,463.728 C1435.5,463.728 1451.97,471.049 1466.22,485.692 C1475.28,495.066 1479.82,506.687 1479.82,520.555 C1479.82,533.028 1476.49,542.596 1469.82,549.259 C1461.69,557.471 1453.09,561.577 1444.02,561.577 C1437.83,561.577 1433.02,560.183 1429.61,557.394 C1424.04,552.823 1421.25,546.702 1421.25,539.033 C1421.25,529.116 1426.21,520.051 1436.12,511.839 C1444.26,505.099 1452.43,500.683 1460.64,498.591 C1458.47,494.872 1455.72,491.386 1452.39,488.132 C1442.01,477.983 1430.23,472.909 1417.06,472.909 C1403.35,472.909 1392,475.891 1383.01,481.857 C1373.72,487.977 1366.24,496.344 1360.58,506.958 M1463.55,504.75 C1459.29,508.702 1455.03,512.924 1450.76,517.417 C1442.4,526.249 1438.21,534.617 1438.21,542.519 C1438.21,550.964 1440.15,555.186 1444.02,555.186 C1447.51,555.186 1452.39,550.421 1458.67,540.892 C1463.7,533.299 1466.22,526.327 1466.22,519.974 C1466.22,514.551 1465.33,509.476 1463.55,504.75"/>
<path class="Note" d="M1486.55,658.813 C1490.89,655.869 1494.02,653.428 1495.96,651.491 C1499.53,647.695 1501.31,644.209 1501.31,641.032 C1501.31,637.391 1499.29,635.57 1495.26,635.57 C1487.44,635.57 1479.07,642.466 1470.16,656.256 C1467.45,660.439 1461.49,674.075 1452.27,697.162 C1459.63,704.755 1463.31,709.054 1463.31,710.062 C1463.31,711.456 1462.42,712.153 1460.63,712.153 C1459.24,712.153 1455.4,709.79 1449.13,705.064 C1442.31,720.947 1431.97,734.505 1418.1,745.738 C1403.92,757.204 1386.99,762.938 1367.32,762.938 C1359.8,762.938 1350.39,761.194 1339.08,757.708 C1330.01,754.919 1325.48,750.464 1325.48,744.344 C1325.48,735.279 1328.97,730.747 1335.94,730.747 C1340.12,730.747 1342.21,732.684 1342.21,736.558 C1342.21,737.797 1341.25,739.114 1339.31,740.509 C1338.3,741.206 1337.8,742.562 1337.8,744.576 C1337.8,746.978 1340.47,749.457 1345.82,752.014 C1351.63,754.803 1360.15,756.197 1371.38,756.197 C1385.87,756.197 1399.85,749.922 1413.34,737.371 C1425.58,725.982 1434.37,712.734 1439.72,697.627 C1437.62,695.923 1435.38,694.063 1432.98,692.049 C1425.54,687.633 1421.82,683.101 1421.82,678.452 C1421.82,676.515 1423.1,675.547 1425.65,675.547 C1429.06,675.547 1433.67,678.452 1439.48,684.263 C1440.72,685.502 1441.88,686.664 1442.97,687.749 C1445.68,680.312 1450.02,670.86 1455.98,659.394 C1466.75,638.631 1479.85,628.249 1495.26,628.249 C1500.76,628.249 1505.1,629.295 1508.28,631.387 C1511.46,633.479 1513.04,636.345 1513.04,639.986 C1513.04,645.797 1510.91,650.716 1506.65,654.745 C1502.24,658.929 1497.63,661.021 1492.82,661.021 C1488.64,661.021 1486.55,660.285 1486.55,658.813"/>
<path class="Note" d="M2540.5,569.521 C2544.84,566.577 2547.98,564.137 2549.91,562.2 C2553.48,558.404 2555.26,554.917 2555.26,551.741 C2555.26,548.1 2553.24,546.279 2549.22,546.279 C2541.39,546.279 2533.02,553.174 2524.11,566.965 C2521.4,571.148 2515.44,584.784 2506.22,607.871 C2513.58,615.463 2517.26,619.763 2517.26,620.77 C2517.26,622.165 2516.37,622.862 2514.58,622.862 C2513.19,622.862 2509.35,620.499 2503.08,615.773 C2496.26,631.655 2485.92,645.213 2472.05,656.447 C2457.87,667.913 2440.95,673.646 2421.27,673.646 C2413.75,673.646 2404.34,671.903 2393.03,668.417 C2383.96,665.628 2379.43,661.173 2379.43,655.052 C2379.43,645.988 2382.92,641.456 2389.89,641.456 C2394.07,641.456 2396.17,643.393 2396.17,647.266 C2396.17,648.506 2395.2,649.823 2393.26,651.217 C2392.25,651.915 2391.75,653.271 2391.75,655.285 C2391.75,657.687 2394.42,660.166 2399.77,662.722 C2405.58,665.511 2414.1,666.906 2425.33,666.906 C2439.82,666.906 2453.81,660.631 2467.29,648.08 C2479.53,636.691 2488.32,623.443 2493.67,608.336 C2491.57,606.631 2489.33,604.772 2486.93,602.758 C2479.49,598.341 2475.77,593.809 2475.77,589.161 C2475.77,587.224 2477.05,586.256 2479.6,586.256 C2483.01,586.256 2487.62,589.161 2493.43,594.971 C2494.67,596.211 2495.84,597.373 2496.92,598.458 C2499.63,591.02 2503.97,581.568 2509.94,570.102 C2520.7,549.339 2533.8,538.958 2549.22,538.958 C2554.72,538.958 2559.05,540.004 2562.23,542.095 C2565.41,544.187 2567,547.054 2567,550.695 C2567,556.506 2564.86,561.425 2560.6,565.454 C2556.19,569.637 2551.58,571.729 2546.77,571.729 C2542.59,571.729 2540.5,570.993 2540.5,569.521"/>
<path class="Note" d="M2467.87,918.743 C2463.68,918.743 2461.59,916.845 2461.59,913.049 C2461.59,906.618 2462.56,901.892 2464.5,898.871 C2472.55,886.94 2490.06,864.627 2517.02,831.933 C2529.19,817.136 2544.88,809.737 2564.09,809.737 C2571.53,809.737 2576.68,810.783 2579.55,812.875 C2583.96,816.129 2586.17,820.041 2586.17,824.612 C2586.17,829.415 2582.3,834.761 2574.55,840.649 C2567.19,846.227 2560.22,849.016 2553.63,849.016 C2551.07,849.016 2549.8,848.745 2549.8,848.203 C2549.8,847.428 2551.04,846.615 2553.52,845.762 C2556.85,844.523 2560.41,842.005 2564.21,838.209 C2568.54,833.793 2570.71,829.803 2570.71,826.239 C2570.71,823.837 2569.05,821.552 2565.72,819.382 C2562.77,817.523 2558.01,816.593 2551.42,816.593 C2541.82,816.593 2529.69,826.278 2515.05,845.646 C2505.29,858.584 2497.39,869.973 2491.34,879.812 C2494.29,878.185 2497.81,876.21 2501.92,873.885 C2506.95,871.019 2511.29,869.586 2514.93,869.586 C2524,869.586 2528.53,872.84 2528.53,879.347 C2528.53,885.778 2524.81,892.828 2517.37,900.498 C2512.11,905.921 2509.47,909.95 2509.47,912.584 C2509.47,915.295 2512.11,916.651 2517.37,916.651 C2520.01,916.651 2522.72,915.721 2525.51,913.862 C2528.3,912.08 2530.35,911.189 2531.67,911.189 C2532.75,911.189 2533.29,911.886 2533.29,913.281 C2533.29,915.528 2531.13,917.891 2526.79,920.37 C2519.5,924.553 2513.65,926.645 2509.24,926.645 C2501.41,926.645 2497.5,922.462 2497.5,914.094 C2497.5,908.826 2500.52,902.977 2506.57,896.547 C2510.98,891.821 2513.19,887.133 2513.19,882.485 C2513.19,878.456 2511.02,876.442 2506.68,876.442 C2504.98,876.442 2499.32,878.456 2489.72,882.485 C2486.85,887.288 2484.45,891.704 2482.51,895.733 C2475.15,911.073 2470.27,918.743 2467.87,918.743"/>
<path class="Note" d="M2539.69,771.695 C2539.69,780.604 2529.54,800.166 2509.24,830.381 C2501.18,842.39 2489.6,851.183 2474.49,856.761 C2463.34,860.945 2450.44,863.036 2435.79,863.036 C2431.07,863.036 2426.88,862.068 2423.24,860.131 C2419.21,858.039 2417.2,855.754 2417.2,853.275 C2417.2,846.844 2420.65,843.629 2427.54,843.629 C2428.55,843.629 2429.05,844.249 2429.05,845.489 C2429.05,846.573 2428.55,847.774 2427.54,849.091 C2426.3,850.718 2425.68,851.919 2425.68,852.694 C2425.68,855.018 2429.17,856.18 2436.14,856.18 C2451.79,856.18 2464.15,854.282 2473.21,850.486 C2482.67,846.612 2492.08,836.734 2501.45,820.852 L2504.13,815.855 C2499.63,819.264 2495.18,820.968 2490.76,820.968 C2479.76,820.968 2474.26,816.513 2474.26,807.604 C2474.26,797.997 2480.73,787.887 2493.67,777.273 C2503.82,769.061 2512.84,764.954 2520.74,764.954 C2524.69,764.954 2527.99,766 2530.62,768.092 C2531.55,767.395 2532.71,767.046 2534.11,767.046 C2537.83,767.046 2539.69,768.596 2539.69,771.695 M2505.52,813.414 L2527.48,772.857 C2525.78,772.469 2523.88,772.276 2521.79,772.276 C2514.27,772.276 2506.99,776.653 2499.94,785.408 C2491.73,795.634 2487.62,803.808 2487.62,809.928 C2487.62,813.957 2490.3,815.971 2495.64,815.971 C2498.2,815.971 2501.49,815.119 2505.52,813.414"/>
<path class="Note" d="M2540.5,658.813 C2544.84,655.869 2547.98,653.428 2549.91,651.491 C2553.48,647.695 2555.26,644.209 2555.26,641.032 C2555.26,637.391 2553.24,635.57 2549.22,635.57 C2541.39,635.57 2533.02,642.466 2524.11,656.256 C2521.4,660.439 2515.44,674.075 2506.22,697.162 C2513.58,704.755 2517.26,709.054 2517.26,710.062 C2517.26,711.456 2516.37,712.153 2514.58,712.153 C2513.19,712.153 2509.35,709.79 2503.08,705.064 C2496.26,720.947 2485.92,734.505 2472.05,745.738 C2457.87,757.204 2440.95,762.938 2421.27,762.938 C2413.75,762.938 2404.34,761.194 2393.03,757.708 C2383.96,754.919 2379.43,750.464 2379.43,744.344 C2379.43,735.279 2382.92,730.747 2389.89,730.747 C2394.07,730.747 2396.17,732.684 2396.17,736.558 C2396.17,737.797 2395.2,739.114 2393.26,740.509 C2392.25,741.206 2391.75,742.562 2391.75,744.576 C2391.75,746.978 2394.42,749.457 2399.77,752.014 C2405.58,754.803 2414.1,756.197 2425.33,756.197 C2439.82,756.197 2453.81,749.922 2467.29,737.371 C2479.53,725.982 2488.32,712.734 2493.67,697.627 C2491.57,695.923 2489.33,694.063 2486.93,692.049 C2479.49,687.633 2475.77,683.101 2475.77,678.452 C2475.77,676.515 2477.05,675.547 2479.6,675.547 C2483.01,675.547 2487.62,678.452 2493.43,684.263 C2494.67,685.502 2495.84,686.664 2496.92,687.749 C2499.63,680.312 2503.97,670.86 2509.94,659.394 C2520.7,638.631 2533.8,628.249 2549.22,628.249 C2554.72,628.249 2559.05,629.295 2562.23,631.387 C2565.41,633.479 2567,636.345 2567,639.986 C2567,645.797 2564.86,650.716 2560.6,654.745 C2556.19,658.929 2551.58,661.021 2546.77,661.021 C2542.59,661.021 2540.5,660.285 2540.5,658.813"/>
<path class="Note" d="M2467.87,561.577 C2463.68,561.577 2461.59,559.679 2461.59,555.883 C2461.59,549.453 2462.56,544.727 2464.5,541.705 C2472.55,529.774 2490.06,507.462 2517.02,474.768 C2529.19,459.97 2544.88,452.572 2564.09,452.572 C2571.53,452.572 2576.68,453.618 2579.55,455.709 C2583.96,458.963 2586.17,462.876 2586.17,467.447 C2586.17,472.25 2582.3,477.596 2574.55,483.484 C2567.19,489.062 2560.22,491.851 2553.63,491.851 C2551.07,491.851 2549.8,491.58 2549.8,491.037 C2549.8,490.263 2551.04,489.449 2553.52,488.597 C2556.85,487.357 2560.41,484.84 2564.21,481.043 C2568.54,476.627 2570.71,472.637 2570.71,469.074 C2570.71,466.672 2569.05,464.386 2565.72,462.217 C2562.77,460.358 2558.01,459.428 2551.42,459.428 C2541.82,459.428 2529.69,469.112 2515.05,488.481 C2505.29,501.419 2497.39,512.808 2491.34,522.647 C2494.29,521.02 2497.81,519.044 2501.92,516.72 C2506.95,513.854 2511.29,512.42 2514.93,512.42 C2524,512.42 2528.53,515.674 2528.53,522.182 C2528.53,528.612 2524.81,535.662 2517.37,543.332 C2512.11,548.756 2509.47,552.784 2509.47,555.418 C2509.47,558.13 2512.11,559.486 2517.37,559.486 C2520.01,559.486 2522.72,558.556 2525.51,556.697 C2528.3,554.915 2530.35,554.024 2531.67,554.024 C2532.75,554.024 2533.29,554.721 2533.29,556.116 C2533.29,558.362 2531.13,560.725 2526.79,563.204 C2519.5,567.388 2513.65,569.48 2509.24,569.48 C2501.41,569.48 2497.5,565.296 2497.5,556.929 C2497.5,551.661 2500.52,545.812 2506.57,539.381 C2510.98,534.655 2513.19,529.968 2513.19,525.32 C2513.19,521.291 2511.02,519.277 2506.68,519.277 C2504.98,519.277 2499.32,521.291 2489.72,525.32 C2486.85,530.123 2484.45,534.539 2482.51,538.568 C2475.15,553.908 2470.27,561.577 2467.87,561.577"/>
<path class="Note" d="M3401.6,569.521 C3405.94,566.577 3409.07,564.137 3411.01,562.2 C3414.57,558.404 3416.36,554.917 3416.36,551.741 C3416.36,548.1 3414.34,546.279 3410.31,546.279 C3402.49,546.279 3394.12,553.174 3385.21,566.965 C3382.5,571.148 3376.54,584.784 3367.32,607.871 C3374.68,615.463 3378.36,619.763 3378.36,620.77 C3378.36,622.165 3377.46,622.862 3375.68,622.862 C3374.29,622.862 3370.45,620.499 3364.18,615.773 C3357.36,631.655 3347.02,645.213 3333.15,656.447 C3318.97,667.913 3302.04,673.646 3282.37,673.646 C3274.85,673.646 3265.44,671.903 3254.13,668.417 C3245.06,665.628 3240.53,661.173 3240.53,655.052 C3240.53,645.988 3244.02,641.456 3250.99,641.456 C3255.17,641.456 3257.26,643.393 3257.26,647.266 C3257.26,648.506 3256.3,649.823 3254.36,651.217 C3253.35,651.915 3252.85,653.271 3252.85,655.285 C3252.85,657.687 3255.52,660.166 3260.87,662.722 C3266.68,665.511 3275.2,666.906 3286.43,666.906 C3300.92,666.906 3314.9,660.631 3328.39,648.08 C3340.63,636.691 3349.42,623.443 3354.76,608.336 C3352.67,606.631 3350.43,604.772 3348.02,602.758 C3340.59,598.341 3336.87,593.809 3336.87,589.161 C3336.87,587.224 3338.15,586.256 3340.7,586.256 C3344.11,586.256 3348.72,589.161 3354.53,594.971 C3355.77,596.211 3356.93,597.373 3358.02,598.458 C3360.73,591.02 3365.07,581.568 3371.03,570.102 C3381.8,549.339 3394.9,538.958 3410.31,538.958 C3415.81,538.958 3420.15,540.004 3423.33,542.095 C3426.51,544.187 3428.09,547.054 3428.09,550.695 C3428.09,556.506 3425.96,561.425 3421.7,565.454 C3417.29,569.637 3412.68,571.729 3407.87,571.729 C3403.69,571.729 3401.6,570.993 3401.6,569.521"/>
<path class="Note" d="M3328.97,918.743 C3324.78,918.743 3322.69,916.845 3322.69,913.049 C3322.69,906.618 3323.66,901.892 3325.6,898.871 C3333.65,886.94 3351.16,864.627 3378.12,831.933 C3390.29,817.136 3405.98,809.737 3425.19,809.737 C3432.63,809.737 3437.78,810.783 3440.64,812.875 C3445.06,816.129 3447.27,820.041 3447.27,824.612 C3447.27,829.415 3443.4,834.761 3435.65,840.649 C3428.29,846.227 3421.32,849.016 3414.73,849.016 C3412.17,849.016 3410.89,848.745 3410.89,848.203 C3410.89,847.428 3412.13,846.615 3414.61,845.762 C3417.94,844.523 3421.51,842.005 3425.3,838.209 C3429.64,833.793 3431.81,829.803 3431.81,826.239 C3431.81,823.837 3430.15,821.552 3426.82,819.382 C3423.87,817.523 3419.11,816.593 3412.52,816.593 C3402.91,816.593 3390.79,826.278 3376.15,845.646 C3366.39,858.584 3358.48,869.973 3352.44,879.812 C3355.38,878.185 3358.91,876.21 3363.02,873.885 C3368.05,871.019 3372.39,869.586 3376.03,869.586 C3385.1,869.586 3389.63,872.84 3389.63,879.347 C3389.63,885.778 3385.91,892.828 3378.47,900.498 C3373.2,905.921 3370.57,909.95 3370.57,912.584 C3370.57,915.295 3373.2,916.651 3378.47,916.651 C3381.11,916.651 3383.82,915.721 3386.61,913.862 C3389.4,912.08 3391.45,911.189 3392.77,911.189 C3393.85,911.189 3394.39,911.886 3394.39,913.281 C3394.39,915.528 3392.22,917.891 3387.89,920.37 C3380.6,924.553 3374.75,926.645 3370.34,926.645 C3362.51,926.645 3358.6,922.462 3358.6,914.094 C3358.6,908.826 3361.62,902.977 3367.66,896.547 C3372.08,891.821 3374.29,887.133 3374.29,882.485 C3374.29,878.456 3372.12,876.442 3367.78,876.442 C3366.08,876.442 3360.42,878.456 3350.81,882.485 C3347.95,887.288 3345.55,891.704 3343.61,895.733 C3336.25,911.073 3331.37,918.743 3328.97,918.743"/>
<path class="Note" d="M3328.97,829.452 C3324.78,829.452 3322.69,827.553 3322.69,823.757 C3322.69,817.327 3323.66,812.601 3325.6,809.579 C3333.65,797.648 3351.16,775.336 3378.12,742.642 C3390.29,727.844 3405.98,720.446 3425.19,720.446 C3432.63,720.446 3437.78,721.492 3440.64,723.583 C3445.06,726.837 3447.27,730.75 3447.27,735.321 C3447.27,740.124 3443.4,745.47 3435.65,751.358 C3428.29,756.936 3421.32,759.725 3414.73,759.725 C3412.17,759.725 3410.89,759.454 3410.89,758.911 C3410.89,758.137 3412.13,757.323 3414.61,756.471 C3417.94,755.231 3421.51,752.714 3425.3,748.917 C3429.64,744.501 3431.81,740.511 3431.81,736.948 C3431.81,734.546 3430.15,732.26 3426.82,730.091 C3423.87,728.232 3419.11,727.302 3412.52,727.302 C3402.91,727.302 3390.79,736.986 3376.15,756.355 C3366.39,769.293 3358.48,780.682 3352.44,790.521 C3355.38,788.894 3358.91,786.918 3363.02,784.594 C3368.05,781.728 3372.39,780.294 3376.03,780.294 C3385.1,780.294 3389.63,783.548 3389.63,790.056 C3389.63,796.486 3385.91,803.536 3378.47,811.206 C3373.2,816.63 3370.57,820.658 3370.57,823.292 C3370.57,826.004 3373.2,827.36 3378.47,827.36 C3381.11,827.36 3383.82,826.43 3386.61,824.571 C3389.4,822.789 3391.45,821.898 3392.77,821.898 C3393.85,821.898 3394.39,822.595 3394.39,823.99 C3394.39,826.236 3392.22,828.599 3387.89,831.078 C3380.6,835.262 3374.75,837.354 3370.34,837.354 C3362.51,837.354 3358.6,833.17 3358.6,824.803 C3358.6,819.535 3361.62,813.686 3367.66,807.255 C3372.08,802.529 3374.29,797.842 3374.29,793.194 C3374.29,789.165 3372.12,787.151 3367.78,787.151 C3366.08,787.151 3360.42,789.165 3350.81,793.194 C3347.95,797.997 3345.55,802.413 3343.61,806.442 C3336.25,821.782 3331.37,829.452 3328.97,829.452"/>
<path class="Note" d="M3401.6,480.23 C3405.94,477.286 3409.07,474.845 3411.01,472.909 C3414.57,469.112 3416.36,465.626 3416.36,462.45 C3416.36,458.808 3414.34,456.988 3410.31,456.988 C3402.49,456.988 3394.12,463.883 3385.21,477.673 C3382.5,481.857 3376.54,495.492 3367.32,518.579 C3374.68,526.172 3378.36,530.472 3378.36,531.479 C3378.36,532.873 3377.46,533.571 3375.68,533.571 C3374.29,533.571 3370.45,531.208 3364.18,526.482 C3357.36,542.364 3347.02,555.922 3333.15,567.156 C3318.97,578.622 3302.04,584.355 3282.37,584.355 C3274.85,584.355 3265.44,582.612 3254.13,579.125 C3245.06,576.336 3240.53,571.882 3240.53,565.761 C3240.53,556.697 3244.02,552.164 3250.99,552.164 C3255.17,552.164 3257.26,554.101 3257.26,557.975 C3257.26,559.215 3256.3,560.532 3254.36,561.926 C3253.35,562.623 3252.85,563.979 3252.85,565.994 C3252.85,568.395 3255.52,570.874 3260.87,573.431 C3266.68,576.22 3275.2,577.615 3286.43,577.615 C3300.92,577.615 3314.9,571.339 3328.39,558.788 C3340.63,547.4 3349.42,534.152 3354.76,519.044 C3352.67,517.34 3350.43,515.48 3348.02,513.466 C3340.59,509.05 3336.87,504.518 3336.87,499.869 C3336.87,497.933 3338.15,496.964 3340.7,496.964 C3344.11,496.964 3348.72,499.869 3354.53,505.68 C3355.77,506.92 3356.93,508.082 3358.02,509.166 C3360.73,501.729 3365.07,492.277 3371.03,480.811 C3381.8,460.048 3394.9,449.666 3410.31,449.666 C3415.81,449.666 3420.15,450.712 3423.33,452.804 C3426.51,454.896 3428.09,457.762 3428.09,461.404 C3428.09,467.214 3425.96,472.134 3421.7,476.162 C3417.29,480.346 3412.68,482.438 3407.87,482.438 C3403.69,482.438 3401.6,481.702 3401.6,480.23"/>
<path class="Note" d="M3400.78,682.403 C3400.78,691.313 3390.64,710.875 3370.34,741.09 C3362.28,753.098 3350.7,761.892 3335.59,767.47 C3324.43,771.653 3311.53,773.745 3296.89,773.745 C3292.17,773.745 3287.98,772.777 3284.34,770.84 C3280.31,768.748 3278.3,766.463 3278.3,763.983 C3278.3,757.553 3281.75,754.338 3288.64,754.338 C3289.65,754.338 3290.15,754.958 3290.15,756.197 C3290.15,757.282 3289.65,758.483 3288.64,759.8 C3287.4,761.427 3286.78,762.628 3286.78,763.402 C3286.78,765.727 3290.27,766.889 3297.24,766.889 C3312.89,766.889 3325.25,764.991 3334.31,761.194 C3343.76,757.321 3353.18,747.443 3362.55,731.561 L3365.22,726.563 C3360.73,729.972 3356.28,731.677 3351.86,731.677 C3340.86,731.677 3335.36,727.222 3335.36,718.313 C3335.36,708.706 3341.83,698.595 3354.76,687.981 C3364.91,679.769 3373.94,675.663 3381.84,675.663 C3385.79,675.663 3389.09,676.709 3391.72,678.801 C3392.65,678.104 3393.81,677.755 3395.21,677.755 C3398.93,677.755 3400.78,679.304 3400.78,682.403 M3366.62,724.123 L3388.58,683.565 C3386.88,683.178 3384.98,682.984 3382.89,682.984 C3375.37,682.984 3368.09,687.362 3361.04,696.116 C3352.83,706.343 3348.72,714.516 3348.72,720.637 C3348.72,724.665 3351.39,726.68 3356.74,726.68 C3359.3,726.68 3362.59,725.827 3366.62,724.123"/>
<path class="Clef" transform="matrix(2.3811,0,0,2.3811,212.156,2196.22)" d="M25.4,-25.1 C17.8,-25.1 11.7,-20.7 11.6,-20.7 C5.8,-16.4 3.5,-11.3 2.6,-7.8 C2.1,-6 1.9,-4.2 1.9,-2.5 C1.9,-0.1 2.3,2.1 3.2,4 C4.4,6.7 6.7,8.6 9.7,9.6 C10.9,10 12.2,10.2 13.5,10.2 C15.7,10.2 18,9.6 19.9,8.5 C23,6.8 24.9,3.2 24.9,-0.7 C24.9,-4.2 23.1,-7.4 20.1,-9.3 C18,-10.7 16,-11.1 14.3,-11.1 C13.1,-11.1 12,-10.9 11.1,-10.6 C10.1,-10.2 8.4,-9.2 7.6,-8.5 C7.9,-10.4 9.1,-13.3 10.2,-14.9 C11.3,-16.5 13.5,-18.5 15.2,-19.4 C17.7,-20.8 20.9,-21.4 24.4,-21.4 C34.6,-21.4 39.6,-13.2 39.6,3.6 C39.6,12.9 36.1,21.8 33.1,27.7 C29.8,34.3 25.4,40.6 21.5,44.1 C11.1,53.6 1.3,58.1 1.2,58.1 C1.2,58.1 -0.3,59 0.1,60.5 C0.4,61.5 1.3,61.7 1.9,61.7 C2,61.7 2.3,61.6 2.4,61.6 C2.5,61.6 13.9,56.9 23,49.8 C28.1,46.1 32.7,42.1 36.7,37.8 C40.3,33.9 43.4,29.7 45.9,25.5 C50.3,18 52.8,10.2 52.8,3.5 C52.8,-4.8 50.6,-11.7 46.5,-16.6 C41.8,-22.2 34.7,-25.1 25.4,-25.1 M56.8,-12.4 C56.8,-9.6 59,-7.4 61.6,-7.4 C64.2,-7.4 66.4,-9.6 66.4,-12.4 C66.4,-15.2 64.2,-17.5 61.6,-17.5 C59,-17.5 56.8,-15.2 56.8,-12.4 M56.8,12.3 C56.8,15.1 59,17.4 61.6,17.4 C64.2,17.4 66.4,15.1 66.4,12.3 C66.4,9.5 64.2,7.2 61.6,7.2 C59,7.2 56.8,9.5 56.8,12.3"/>
<path class="Clef" transform="matrix(2.3811,0,0,2.3811,212.156,1578.73)" d="M63.37,-5.89004 C62.14,-11.32 59.5,-15.14 58.72,-16.1801 C55.5301,-20.45 51.52,-23.3 46.8301,-24.65 C43.72,-25.54 40.72,-25.65 38.3,-25.47 C37.2601,-31.4801 36.2601,-37.3601 35.35,-42.8101 C40.79,-48.97 44.42,-54.77 46.69,-59.07 C50.1601,-65.65 51.3101,-70.2301 51.3601,-70.4301 C53.0801,-75.64 53.44,-83.34 52.34,-91.55 C51.3301,-99.1 49.24,-105.81 46.89,-109.06 C45.8601,-110.49 44.8101,-111.22 43.77,-111.22 C42.55,-111.22 40.04,-109.98 37.15,-107.21 C34.85,-105.01 31.5801,-101.12 29.02,-95.1101 C26.02,-88.05 25.8101,-78.5601 26.1601,-71.84 C26.54,-64.57 27.65,-58.8801 27.6601,-58.8301 C27.6801,-58.74 27.94,-57.24 28.39,-54.67 C28.1601,-54.44 27.92,-54.22 27.67,-53.9801 C26.6301,-52.9801 25.44,-51.84 24.0601,-50.4601 C23.2,-49.6 22.25,-48.69 21.25,-47.72 C12.79,-39.57 0,-27.25 0,-8.1 C0,-3.4 0.9,1.01992 2.68008,5.02998 C4.27002,8.62998 6.57002,11.91 9.5,14.78 C17.2301,22.33 27.82,25.5399 34.8801,25.38 C37.8301,25.31 40.4601,25.0699 42.85,24.6199 C44.6801,34.2199 45.82,41.25 45.8601,46.5899 C45.9,53.1 44.25,57.0699 40.35,59.8399 C37.92,61.5699 35.1101,62.5199 32.0101,62.6699 C29.42,62.7899 27.1601,62.3199 25.7301,61.91 L25.72,61.91 C25.72,61.91 25.4301,61.83 25.42,61.63 C25.4101,61.45 25.7601,61.4 25.77,61.4 L25.79,61.4 C27.7101,60.96 31.2801,59.73 33.64,56.43 C35.44,53.91 36.3101,49.2899 34.47,45.35 C33.3601,42.96 30.85,40.01 25.2301,39.56 C22.74,39.36 20.47,39.8699 18.47,41.0699 C16.6601,42.15 15.1601,43.7899 14.1101,45.7899 C11.65,50.4899 12.1101,56.2199 15.24,60.06 C18.2,63.68 22.82,65.9899 28.25,66.5699 C29.1,66.66 29.95,66.7 30.8,66.7 C31.5101,66.7 32.22,66.6699 32.92,66.61 C31.72,66.9399 30.64,67.4899 29.77,68.25 C28.2801,69.5399 27.44,71.38 27.44,73.41 C27.44,75.28 28.0601,76.65 29.55,78.0399 C28.4101,78.5 27.55,78.98 26.79,79.56 C25.25,80.73 24.34,82.46 24.34,84.1899 C24.34,87.45 27.3,89.63 31.72,89.63 C37.1301,89.63 40.9101,86.63 40.9101,82.35 C40.9101,80.1199 39.9101,78.18 38.0801,76.83 C41.0101,75.6199 42.37,73.9399 42.37,71.56 C42.39,70.05 41.69,68.61 40.49,67.6899 C39.2801,66.7399 37.62,66.2399 35.69,66.2399 L35.5101,66.2399 C38.2801,65.7 40.92,64.7 43.2101,63.28 C46.87,60.71 48.99,56.73 49.67,51.1 C50.2301,46.46 49.84,40.55 48.44,32.48 C48.0801,30.3899 47.54,27.36 46.8801,23.6 C52.6301,21.68 56.79,18.11 60.5601,12.26 C63.85,6.51992 64.8,0.419922 63.37,-5.89004 M32.39,87.5399 C30.19,87.5399 28.7301,86.1199 28.7301,84.01 C28.7301,82.11 29.65,80.5 31.32,79.4699 C31.6801,79.66 31.77,79.71 32.1101,79.88 C33.3,80.48 33.3,80.48 33.55,80.63 L33.5601,80.6399 C35.47,81.73 36.25,82.76 36.25,84.18 C36.24,86.0899 34.59,87.5399 32.39,87.5399 M38.3101,71.63 C38.3101,73.2699 37.7301,74.3399 36.1801,75.53 C34.74,74.78 34.35,74.56 33.9801,74.3399 L33.8801,74.28 C32.3301,73.3399 31.85,72.66 31.85,71.4 C31.85,69.6 33.2301,68.3399 35.19,68.3399 C37.17,68.35 38.3101,69.55 38.3101,71.63 M33.15,-83.8101 C34.9301,-89.55 37.67,-92.8 39.6601,-94.5301 C41.4101,-96.05 43.0601,-96.7601 43.9801,-96.7601 C44.12,-96.7601 44.24,-96.74 44.34,-96.7101 C44.8,-96.57 45.3301,-96 45.8,-95.1301 C48.1101,-90.84 47.37,-84.1301 46.0301,-79.69 C44.4,-74.29 41.4801,-68.6801 32.69,-59.0601 C32.52,-60.17 32.3601,-61.22 32.2101,-62.2 C30.95,-70.49 31.27,-77.7601 33.15,-83.8101 M29.15,20.31 C24.5101,19.0899 20.0801,16.5899 16.32,13.0899 C15.0101,11.86 13.14,9.68994 11.67,6.3 C10.3101,3.13994 9.65,-0.290039 9.7,-3.88008 C9.77002,-8.57002 11.0801,-13.39 13.59,-18.1801 C16.5101,-23.7601 21.07,-29.29 27.1301,-34.62 C28.5801,-35.9 29.95,-37.1801 31.24,-38.4601 C32,-34.2 32.8301,-29.5101 33.7101,-24.6301 C29.8601,-23.3601 25.1101,-20.2101 22,-14.5601 C18.47,-7.99004 18.6101,-2.47002 19.34,1.00996 C20.2801,5.46992 22.8101,9.22998 26.27,11.3199 C27.2,11.88 31.3301,14.01 33.17,13.43 C33.54,13.31 33.8101,13.0899 33.95,12.76 C34.4601,11.5899 33.44,10.95 31.8801,9.98994 C31.2801,9.61992 30.6101,9.2 29.8801,8.66992 C26.5601,6.17998 25.1101,1.72998 26.1801,-2.65 C26.7601,-5.05 28.04,-7.21006 29.8801,-8.91006 C31.55,-10.4601 33.59,-11.5601 35.97,-12.2 C38.0101,-0.960059 40.07,10.1899 41.7101,18.55 C41.84,19.2399 41.9801,19.91 42.1101,20.58 C37.7101,21.51 33.37,21.4199 29.15,20.31 M54.9,10.1 C53.7301,13.28 51.27,17.35 46.14,19.41 C46.07,18.9899 45.99,18.56 45.9101,18.13 C44.3601,9.36992 42.4301,-1.61006 40.47,-12.87 C50.82,-13.35 55.09,-5.91006 55.9801,-1.08008 C56.45,1.45 56.45,5.88994 54.9,10.1"/>
<path class="KeySig" transform="matrix(2.3811,0,0,2.3811,2265.97,2315.27)" d="M20.1,-7.9 C19.5,-11.8 17.1,-15.5 12,-15.5 C7,-15.5 4.1,-12.4 3.6,-11.8 L4,-43.9 C4,-44.7 3.4,-45.3 2.6,-45.3 L1.4,-45.3 C0.6,-45.3 0,-44.7 0,-43.9 L0.5,16.2 C0.5,17 1.1,17.6 1.9,17.6 C2.1,17.6 2.5,17.5 2.7,17.4 C3.1,17.2 9.6,14 15,7.9 C18.8,3.6 20.3,-1.3 20.3,-5.4 C20.3,-6.3 20.2,-7.1 20.1,-7.9 M13.2,-4 C13.2,-2.5 12.8,2.1 10.3,5.9 C8.6,8.5 5.2,11.2 3.3,12.7 L3.6,-6.8 C3.8,-7.7 5.3,-10.6 9.3,-10.6 C12.9,-10.6 13.2,-7.2 13.2,-5.1 L13.2,-4 "/>
<path class="KeySig" transform="matrix(2.3811,0,0,2.3811,2265.97,1519.2)" d="M20.1,-7.9 C19.5,-11.8 17.1,-15.5 12,-15.5 C7,-15.5 4.1,-12.4 3.6,-11.8 L4,-43.9 C4,-44.7 3.4,-45.3 2.6,-45.3 L1.4,-45.3 C0.6,-45.3 0,-44.7 0,-43.9 L0.5,16.2 C0.5,17 1.1,17.6 1.9,17.6 C2.1,17.6 2.5,17.5 2.7,17.4 C3.1,17.2 9.6,14 15,7.9 C18.8,3.6 20.3,-1.3 20.3,-5.4 C20.3,-6.3 20.2,-7.1 20.1,-7.9 M13.2,-4 C13.2,-2.5 12.8,2.1 10.3,5.9 C8.6,8.5 5.2,11.2 3.3,12.7 L3.6,-6.8 C3.8,-7.7 5.3,-10.6 9.3,-10.6 C12.9,-10.6 13.2,-7.2 13.2,-5.1 L13.2,-4 "/>
<path class="FiguredBass" d="M1440.04,2509.99 C1435.47,2509.99 1432.42,2511.83 1430.9,2515.51 C1429.39,2519.19 1428.63,2524.4 1428.63,2531.14 L1428.63,2542.09 C1431.85,2540.79 1434.63,2540.11 1436.98,2540.05 C1445.02,2540.05 1451.35,2541.83 1455.95,2545.38 C1460.56,2548.94 1462.87,2554.23 1462.87,2561.25 C1462.87,2568.27 1460.53,2573.57 1455.86,2577.16 C1451.19,2580.74 1444.9,2582.54 1436.98,2582.54 C1428.88,2582.54 1422.54,2578.78 1417.96,2571.27 C1413.39,2563.75 1411.1,2554.83 1411.1,2544.5 C1411.1,2534.23 1413.76,2525.33 1419.08,2517.78 C1424.4,2510.24 1431.38,2506.46 1440.04,2506.46 C1445.73,2506.46 1450.65,2507.9 1454.79,2510.78 C1458.94,2513.65 1461.01,2517.44 1461.01,2522.14 C1461.01,2524.86 1460.02,2527.21 1458.04,2529.19 C1456.06,2531.17 1453.7,2532.16 1450.94,2532.16 C1448.19,2532.16 1445.83,2531.17 1443.85,2529.19 C1441.87,2527.21 1440.88,2524.86 1440.88,2522.14 C1440.88,2519.48 1441.87,2517.13 1443.85,2515.09 C1444.53,2514.29 1445.49,2513.61 1446.72,2513.05 C1446.41,2512.25 1445.79,2511.63 1444.87,2511.19 C1443.51,2510.39 1441.9,2509.99 1440.04,2509.99 M1444.59,2547.93 C1443.48,2545.03 1441.03,2543.57 1437.26,2543.57 C1433.49,2543.57 1431.15,2545.03 1430.26,2547.93 C1429.36,2550.84 1428.91,2555.26 1428.91,2561.2 C1428.91,2568.19 1429.36,2572.89 1430.26,2575.3 C1431.15,2577.71 1433.49,2578.92 1437.26,2578.92 C1441.03,2578.92 1443.48,2577.47 1444.59,2574.56 C1445.7,2571.65 1446.26,2567.21 1446.26,2561.25 C1446.26,2555.28 1445.7,2550.84 1444.59,2547.93"/>
<path class="FiguredBass" d="M1439.39,2614.16 C1441.74,2614.16 1444.22,2613.82 1446.82,2613.14 L1450.99,2612.03 C1451.79,2612.03 1452.43,2612.34 1452.89,2612.96 C1453.36,2613.57 1453.31,2614.13 1452.75,2614.63 L1409.61,2664.82 L1434.94,2664.82 L1434.94,2644.96 C1434.94,2643.54 1435.33,2642.44 1436.1,2641.67 C1436.87,2640.9 1437.86,2640.28 1439.07,2639.81 C1440.27,2639.35 1441.85,2637.97 1443.8,2635.68 C1445.75,2633.4 1447.62,2630.3 1449.41,2626.41 C1449.72,2625.79 1450.19,2625.48 1450.8,2625.48 C1452.1,2625.48 1452.75,2626.19 1452.75,2627.61 L1452.75,2664.82 L1463.7,2664.82 C1465.25,2664.82 1466.02,2665.53 1466.02,2666.95 C1466.02,2668.5 1465.25,2669.27 1463.7,2669.27 L1452.75,2669.27 L1452.75,2670.47 C1452.75,2674.31 1453.77,2677.65 1455.81,2680.49 C1457.86,2683.34 1460.48,2684.76 1463.7,2684.76 C1464.94,2684.76 1465.56,2685.32 1465.56,2686.43 C1465.56,2687.67 1464.94,2688.29 1463.7,2688.29 C1461.47,2688.29 1458.16,2687.96 1453.77,2687.31 C1449.38,2686.66 1446.06,2686.34 1443.8,2686.34 C1441.54,2686.34 1438.22,2686.66 1433.83,2687.31 C1429.44,2687.96 1426.13,2688.29 1423.9,2688.29 C1422.66,2688.29 1422.04,2687.67 1422.04,2686.43 C1422.04,2685.32 1422.66,2684.76 1423.9,2684.76 C1427.12,2684.76 1429.76,2683.34 1431.83,2680.49 C1433.9,2677.65 1434.94,2674.31 1434.94,2670.47 L1434.94,2669.27 L1409.61,2669.27 C1408.01,2669.27 1406.81,2668.88 1406.04,2668.11 C1405.27,2667.34 1404.88,2666.55 1404.88,2665.74 C1404.88,2665.43 1405.61,2664.37 1407.06,2662.54 C1408.52,2660.72 1410.29,2658.29 1412.4,2655.26 C1414.5,2652.23 1416.59,2648.78 1418.66,2644.92 C1420.73,2641.05 1422.49,2636.41 1423.95,2631 C1425.4,2625.59 1426.13,2620.13 1426.13,2614.63 C1426.13,2613.02 1426.81,2612.21 1428.17,2612.21 C1428.35,2612.21 1429,2612.37 1430.12,2612.68 C1431.23,2612.99 1432.65,2613.31 1434.38,2613.65 C1436.12,2613.99 1437.79,2614.16 1439.39,2614.16"/>
<path class="FiguredBass" d="M2485.18,2572.89 L2485.18,2592.28 C2485.18,2594.2 2484.21,2595.15 2482.26,2595.15 C2480.31,2595.15 2479.34,2594.2 2479.34,2592.28 L2479.34,2575.39 L2476.37,2576.6 C2476.06,2576.72 2475.66,2576.79 2475.16,2576.79 C2474.36,2576.79 2473.65,2576.48 2473.03,2575.86 C2472.41,2575.24 2472.1,2574.53 2472.1,2573.72 L2472.1,2564.26 C2472.1,2562.9 2472.75,2561.94 2474.05,2561.38 L2479.34,2559.16 L2479.34,2539.68 L2476.37,2540.88 C2476.18,2540.94 2475.93,2540.97 2475.62,2540.97 C2475.5,2540.97 2475.35,2540.97 2475.16,2540.97 C2474.23,2540.85 2473.49,2540.51 2472.93,2539.95 C2472.38,2539.4 2472.1,2538.75 2472.1,2538.01 L2472.1,2528.54 C2472.1,2527.24 2472.75,2526.32 2474.05,2525.76 L2479.34,2523.53 L2479.34,2503.77 C2479.34,2501.86 2480.31,2500.9 2482.26,2500.9 C2484.21,2500.9 2485.18,2501.86 2485.18,2503.77 L2485.18,2521.12 L2497.15,2516.11 L2497.15,2496.72 C2497.15,2494.8 2498.11,2493.85 2500.02,2493.85 C2501.94,2493.85 2502.9,2494.8 2502.9,2496.72 L2502.9,2513.79 L2506.15,2512.4 C2506.46,2512.28 2506.8,2512.21 2507.17,2512.21 C2507.97,2512.21 2508.7,2512.52 2509.35,2513.14 C2510,2513.76 2510.32,2514.47 2510.32,2515.28 L2510.32,2524.74 C2510.32,2526.1 2509.64,2527.06 2508.28,2527.62 L2502.9,2529.84 L2502.9,2549.42 L2506.15,2548.12 C2506.33,2548.06 2506.55,2548.03 2506.8,2548.03 C2506.92,2548.03 2507.04,2548.03 2507.17,2548.03 C2508.22,2548.21 2509.01,2548.55 2509.53,2549.05 C2510.06,2549.54 2510.32,2550.19 2510.32,2550.99 L2510.32,2560.46 C2510.32,2561.76 2509.64,2562.68 2508.28,2563.24 L2502.9,2565.47 L2502.9,2585.23 C2502.9,2587.14 2501.94,2588.1 2500.02,2588.1 C2498.11,2588.1 2497.15,2587.14 2497.15,2585.23 L2497.15,2567.88 L2485.18,2572.89 M2485.18,2556.75 L2497.15,2551.83 L2497.15,2532.25 L2485.18,2537.26 L2485.18,2556.75 "/>
<path class="FiguredBass" d="M3355.09,2509.99 C3350.52,2509.99 3347.47,2511.83 3345.95,2515.51 C3344.44,2519.19 3343.68,2524.4 3343.68,2531.14 L3343.68,2542.09 C3346.9,2540.79 3349.68,2540.11 3352.03,2540.05 C3360.07,2540.05 3366.4,2541.83 3371,2545.38 C3375.61,2548.94 3377.91,2554.23 3377.91,2561.25 C3377.91,2568.27 3375.58,2573.57 3370.91,2577.16 C3366.24,2580.74 3359.95,2582.54 3352.03,2582.54 C3343.93,2582.54 3337.59,2578.78 3333.01,2571.27 C3328.44,2563.75 3326.15,2554.83 3326.15,2544.5 C3326.15,2534.23 3328.81,2525.33 3334.13,2517.78 C3339.44,2510.24 3346.43,2506.46 3355.09,2506.46 C3360.78,2506.46 3365.7,2507.9 3369.84,2510.78 C3373.99,2513.65 3376.06,2517.44 3376.06,2522.14 C3376.06,2524.86 3375.07,2527.21 3373.09,2529.19 C3371.11,2531.17 3368.75,2532.16 3365.99,2532.16 C3363.24,2532.16 3360.88,2531.17 3358.9,2529.19 C3356.92,2527.21 3355.93,2524.86 3355.93,2522.14 C3355.93,2519.48 3356.92,2517.13 3358.9,2515.09 C3359.58,2514.29 3360.54,2513.61 3361.77,2513.05 C3361.46,2512.25 3360.84,2511.63 3359.92,2511.19 C3358.56,2510.39 3356.95,2509.99 3355.09,2509.99 M3359.64,2547.93 C3358.53,2545.03 3356.08,2543.57 3352.31,2543.57 C3348.54,2543.57 3346.2,2545.03 3345.31,2547.93 C3344.41,2550.84 3343.96,2555.26 3343.96,2561.2 C3343.96,2568.19 3344.41,2572.89 3345.31,2575.3 C3346.2,2577.71 3348.54,2578.92 3352.31,2578.92 C3356.08,2578.92 3358.53,2577.47 3359.64,2574.56 C3360.75,2571.65 3361.31,2567.21 3361.31,2561.25 C3361.31,2555.28 3360.75,2550.84 3359.64,2547.93"/>
<path class="FiguredBass" d="M3354.44,2614.16 C3356.79,2614.16 3359.27,2613.82 3361.87,2613.14 L3366.04,2612.03 C3366.84,2612.03 3367.48,2612.34 3367.94,2612.96 C3368.41,2613.57 3368.36,2614.13 3367.8,2614.63 L3324.66,2664.82 L3349.99,2664.82 L3349.99,2644.96 C3349.99,2643.54 3350.38,2642.44 3351.15,2641.67 C3351.92,2640.9 3352.91,2640.28 3354.12,2639.81 C3355.32,2639.35 3356.9,2637.97 3358.85,2635.68 C3360.8,2633.4 3362.67,2630.3 3364.46,2626.41 C3364.77,2625.79 3365.24,2625.48 3365.85,2625.48 C3367.15,2625.48 3367.8,2626.19 3367.8,2627.61 L3367.8,2664.82 L3378.75,2664.82 C3380.3,2664.82 3381.07,2665.53 3381.07,2666.95 C3381.07,2668.5 3380.3,2669.27 3378.75,2669.27 L3367.8,2669.27 L3367.8,2670.47 C3367.8,2674.31 3368.82,2677.65 3370.86,2680.49 C3372.91,2683.34 3375.53,2684.76 3378.75,2684.76 C3379.99,2684.76 3380.61,2685.32 3380.61,2686.43 C3380.61,2687.67 3379.99,2688.29 3378.75,2688.29 C3376.52,2688.29 3373.21,2687.96 3368.82,2687.31 C3364.43,2686.66 3361.11,2686.34 3358.85,2686.34 C3356.59,2686.34 3353.27,2686.66 3348.88,2687.31 C3344.49,2687.96 3341.18,2688.29 3338.95,2688.29 C3337.71,2688.29 3337.09,2687.67 3337.09,2686.43 C3337.09,2685.32 3337.71,2684.76 3338.95,2684.76 C3342.17,2684.76 3344.81,2683.34 3346.88,2680.49 C3348.95,2677.65 3349.99,2674.31 3349.99,2670.47 L3349.99,2669.27 L3324.66,2669.27 C3323.05,2669.27 3321.86,2668.88 3321.09,2668.11 C3320.32,2667.34 3319.93,2666.55 3319.93,2665.74 C3319.93,2665.43 3320.66,2664.37 3322.11,2662.54 C3323.57,2660.72 3325.34,2658.29 3327.45,2655.26 C3329.55,2652.23 3331.64,2648.78 3333.71,2644.92 C3335.78,2641.05 3337.54,2636.41 3339,2631 C3340.45,2625.59 3341.18,2620.13 3341.18,2614.63 C3341.18,2613.02 3341.86,2612.21 3343.22,2612.21 C3343.4,2612.21 3344.05,2612.37 3345.17,2612.68 C3346.28,2612.99 3347.7,2613.31 3349.43,2613.65 C3351.17,2613.99 3352.84,2614.16 3354.44,2614.16"/>
<path class="FiguredBass" d="M1440.04,1773.44 C1435.47,1773.44 1432.42,1775.28 1430.9,1778.96 C1429.39,1782.64 1428.63,1787.85 1428.63,1794.59 L1428.63,1805.54 C1431.85,1804.24 1434.63,1803.56 1436.98,1803.5 C1445.02,1803.5 1451.35,1805.28 1455.95,1808.83 C1460.56,1812.39 1462.87,1817.68 1462.87,1824.7 C1462.87,1831.72 1460.53,1837.02 1455.86,1840.61 C1451.19,1844.2 1444.9,1845.99 1436.98,1845.99 C1428.88,1845.99 1422.54,1842.23 1417.96,1834.72 C1413.39,1827.2 1411.1,1818.28 1411.1,1807.95 C1411.1,1797.69 1413.76,1788.78 1419.08,1781.23 C1424.4,1773.69 1431.38,1769.92 1440.04,1769.92 C1445.73,1769.92 1450.65,1771.35 1454.79,1774.23 C1458.94,1777.11 1461.01,1780.89 1461.01,1785.59 C1461.01,1788.32 1460.02,1790.67 1458.04,1792.65 C1456.06,1794.62 1453.7,1795.61 1450.94,1795.61 C1448.19,1795.61 1445.83,1794.62 1443.85,1792.65 C1441.87,1790.67 1440.88,1788.32 1440.88,1785.59 C1440.88,1782.93 1441.87,1780.58 1443.85,1778.54 C1444.53,1777.74 1445.49,1777.06 1446.72,1776.5 C1446.41,1775.7 1445.79,1775.08 1444.87,1774.65 C1443.51,1773.84 1441.9,1773.44 1440.04,1773.44 M1444.59,1811.39 C1443.48,1808.48 1441.03,1807.03 1437.26,1807.03 C1433.49,1807.03 1431.15,1808.48 1430.26,1811.39 C1429.36,1814.29 1428.91,1818.71 1428.91,1824.65 C1428.91,1831.64 1429.36,1836.34 1430.26,1838.75 C1431.15,1841.17 1433.49,1842.37 1437.26,1842.37 C1441.03,1842.37 1443.48,1840.92 1444.59,1838.01 C1445.7,1835.1 1446.26,1830.67 1446.26,1824.7 C1446.26,1818.73 1445.7,1814.29 1444.59,1811.39"/>
<path class="FiguredBass" d="M1439.39,1877.61 C1441.74,1877.61 1444.22,1877.27 1446.82,1876.59 L1450.99,1875.48 C1451.79,1875.48 1452.43,1875.79 1452.89,1876.41 C1453.36,1877.03 1453.31,1877.58 1452.75,1878.08 L1409.61,1928.27 L1434.94,1928.27 L1434.94,1908.41 C1434.94,1906.99 1435.33,1905.89 1436.1,1905.12 C1436.87,1904.35 1437.86,1903.73 1439.07,1903.27 C1440.27,1902.8 1441.85,1901.43 1443.8,1899.14 C1445.75,1896.85 1447.62,1893.76 1449.41,1889.86 C1449.72,1889.24 1450.19,1888.93 1450.8,1888.93 C1452.1,1888.93 1452.75,1889.64 1452.75,1891.07 L1452.75,1928.27 L1463.7,1928.27 C1465.25,1928.27 1466.02,1928.98 1466.02,1930.4 C1466.02,1931.95 1465.25,1932.72 1463.7,1932.72 L1452.75,1932.72 L1452.75,1933.93 C1452.75,1937.76 1453.77,1941.1 1455.81,1943.95 C1457.86,1946.79 1460.48,1948.21 1463.7,1948.21 C1464.94,1948.21 1465.56,1948.77 1465.56,1949.88 C1465.56,1951.12 1464.94,1951.74 1463.7,1951.74 C1461.47,1951.74 1458.16,1951.42 1453.77,1950.77 C1449.38,1950.12 1446.06,1949.79 1443.8,1949.79 C1441.54,1949.79 1438.22,1950.12 1433.83,1950.77 C1429.44,1951.42 1426.13,1951.74 1423.9,1951.74 C1422.66,1951.74 1422.04,1951.12 1422.04,1949.88 C1422.04,1948.77 1422.66,1948.21 1423.9,1948.21 C1427.12,1948.21 1429.76,1946.79 1431.83,1943.95 C1433.9,1941.1 1434.94,1937.76 1434.94,1933.93 L1434.94,1932.72 L1409.61,1932.72 C1408.01,1932.72 1406.81,1932.33 1406.04,1931.56 C1405.27,1930.79 1404.88,1930 1404.88,1929.2 C1404.88,1928.89 1405.61,1927.82 1407.06,1926 C1408.52,1924.17 1410.29,1921.74 1412.4,1918.71 C1414.5,1915.68 1416.59,1912.23 1418.66,1908.37 C1420.73,1904.5 1422.49,1899.86 1423.95,1894.45 C1425.4,1889.04 1426.13,1883.58 1426.13,1878.08 C1426.13,1876.47 1426.81,1875.67 1428.17,1875.67 C1428.35,1875.67 1429,1875.82 1430.12,1876.13 C1431.23,1876.44 1432.65,1876.76 1434.38,1877.1 C1436.12,1877.44 1437.79,1877.61 1439.39,1877.61"/>
<path class="FiguredBass" d="M1448.39,2013.7 C1453.34,2008.32 1455.81,2003.12 1455.81,1998.12 C1455.81,1994.03 1454.07,1990.82 1450.57,1988.47 C1447.08,1986.12 1442.89,1984.94 1438,1984.94 C1434.54,1984.94 1431.77,1986.02 1429.7,1988.19 C1427.63,1990.35 1426.59,1992.86 1426.59,1995.7 C1426.59,1999.17 1428.11,2001.8 1431.14,2003.59 L1448.39,2013.7 M1452.94,2016.3 C1461.35,2021.18 1465.56,2027.62 1465.56,2035.6 C1465.56,2041.59 1462.99,2046.74 1457.86,2051.04 C1452.72,2055.34 1445.7,2057.49 1436.8,2057.49 C1429.31,2057.49 1422.8,2055.51 1417.27,2051.55 C1411.73,2047.59 1408.96,2042.46 1408.96,2036.15 C1408.96,2033.8 1409.64,2031.42 1411,2029.01 C1412.37,2026.6 1413.63,2024.79 1414.81,2023.58 C1415.98,2022.38 1417.9,2020.5 1420.56,2017.97 C1414.38,2013.7 1411.28,2008.32 1411.28,2001.83 C1411.28,1996.26 1413.66,1991.47 1418.43,1987.45 C1423.19,1983.43 1429.71,1981.42 1438,1981.42 C1444.62,1981.42 1450.36,1982.92 1455.21,1985.92 C1460.07,1988.91 1462.49,1992.98 1462.49,1998.12 C1462.49,2003.62 1459.31,2009.68 1452.94,2016.3 M1425.11,2020.66 C1418.8,2026.16 1415.64,2031.33 1415.64,2036.15 C1415.64,2041.22 1417.75,2045.46 1421.95,2048.86 C1426.16,2052.26 1431.11,2053.96 1436.8,2053.96 C1440.75,2053.96 1443.92,2052.7 1446.31,2050.16 C1448.69,2047.63 1449.88,2044.69 1449.88,2041.35 C1449.88,2037.08 1448.11,2033.93 1444.59,2031.88 L1425.11,2020.66 "/>
<path class="FiguredBass" d="M3355.09,1773.44 C3350.52,1773.44 3347.47,1775.28 3345.95,1778.96 C3344.44,1782.64 3343.68,1787.85 3343.68,1794.59 L3343.68,1805.54 C3346.9,1804.24 3349.68,1803.56 3352.03,1803.5 C3360.07,1803.5 3366.4,1805.28 3371,1808.83 C3375.61,1812.39 3377.91,1817.68 3377.91,1824.7 C3377.91,1831.72 3375.58,1837.02 3370.91,1840.61 C3366.24,1844.2 3359.95,1845.99 3352.03,1845.99 C3343.93,1845.99 3337.59,1842.23 3333.01,1834.72 C3328.44,1827.2 3326.15,1818.28 3326.15,1807.95 C3326.15,1797.69 3328.81,1788.78 3334.13,1781.23 C3339.44,1773.69 3346.43,1769.92 3355.09,1769.92 C3360.78,1769.92 3365.7,1771.35 3369.84,1774.23 C3373.99,1777.11 3376.06,1780.89 3376.06,1785.59 C3376.06,1788.32 3375.07,1790.67 3373.09,1792.65 C3371.11,1794.62 3368.75,1795.61 3365.99,1795.61 C3363.24,1795.61 3360.88,1794.62 3358.9,1792.65 C3356.92,1790.67 3355.93,1788.32 3355.93,1785.59 C3355.93,1782.93 3356.92,1780.58 3358.9,1778.54 C3359.58,1777.74 3360.54,1777.06 3361.77,1776.5 C3361.46,1775.7 3360.84,1775.08 3359.92,1774.65 C3358.56,1773.84 3356.95,1773.44 3355.09,1773.44 M3359.64,1811.39 C3358.53,1808.48 3356.08,1807.03 3352.31,1807.03 C3348.54,1807.03 3346.2,1808.48 3345.31,1811.39 C3344.41,1814.29 3343.96,1818.71 3343.96,1824.65 C3343.96,1831.64 3344.41,1836.34 3345.31,1838.75 C3346.2,1841.17 3348.54,1842.37 3352.31,1842.37 C3356.08,1842.37 3358.53,1840.92 3359.64,1838.01 C3360.75,1835.1 3361.31,1830.67 3361.31,1824.7 C3361.31,1818.73 3360.75,1814.29 3359.64,1811.39"/>
<path class="FiguredBass" d="M3354.44,1877.61 C3356.79,1877.61 3359.27,1877.27 3361.87,1876.59 L3366.04,1875.48 C3366.84,1875.48 3367.48,1875.79 3367.94,1876.41 C3368.41,1877.03 3368.36,1877.58 3367.8,1878.08 L3324.66,1928.27 L3349.99,1928.27 L3349.99,1908.41 C3349.99,1906.99 3350.38,1905.89 3351.15,1905.12 C3351.92,1904.35 3352.91,1903.73 3354.12,1903.27 C3355.32,1902.8 3356.9,1901.43 3358.85,1899.14 C3360.8,1896.85 3362.67,1893.76 3364.46,1889.86 C3364.77,1889.24 3365.24,1888.93 3365.85,1888.93 C3367.15,1888.93 3367.8,1889.64 3367.8,1891.07 L3367.8,1928.27 L3378.75,1928.27 C3380.3,1928.27 3381.07,1928.98 3381.07,1930.4 C3381.07,1931.95 3380.3,1932.72 3378.75,1932.72 L3367.8,1932.72 L3367.8,1933.93 C3367.8,1937.76 3368.82,1941.1 3370.86,1943.95 C3372.91,1946.79 3375.53,1948.21 3378.75,1948.21 C3379.99,1948.21 3380.61,1948.77 3380.61,1949.88 C3380.61,1951.12 3379.99,1951.74 3378.75,1951.74 C3376.52,1951.74 3373.21,1951.42 3368.82,1950.77 C3364.43,1950.12 3361.11,1949.79 3358.85,1949.79 C3356.59,1949.79 3353.27,1950.12 3348.88,1950.77 C3344.49,1951.42 3341.18,1951.74 3338.95,1951.74 C3337.71,1951.74 3337.09,1951.12 3337.09,1949.88 C3337.09,1948.77 3337.71,1948.21 3338.95,1948.21 C3342.17,1948.21 3344.81,1946.79 3346.88,1943.95 C3348.95,1941.1 3349.99,1937.76 3349.99,1933.93 L3349.99,1932.72 L3324.66,1932.72 C3323.05,1932.72 3321.86,1932.33 3321.09,1931.56 C3320.32,1930.79 3319.93,1930 3319.93,1929.2 C3319.93,1928.89 3320.66,1927.82 3322.11,1926 C3323.57,1924.17 3325.34,1921.74 3327.45,1918.71 C3329.55,1915.68 3331.64,1912.23 3333.71,1908.37 C3335.78,1904.5 3337.54,1899.86 3339,1894.45 C3340.45,1889.04 3341.18,1883.58 3341.18,1878.08 C3341.18,1876.47 3341.86,1875.67 3343.22,1875.67 C3343.4,1875.67 3344.05,1875.82 3345.17,1876.13 C3346.28,1876.44 3347.7,1876.76 3349.43,1877.1 C3351.17,1877.44 3352.84,1877.61 3354.44,1877.61"/>
<path class="FiguredBass" d="M3363.44,2013.7 C3368.39,2008.32 3370.86,2003.12 3370.86,1998.12 C3370.86,1994.03 3369.12,1990.82 3365.62,1988.47 C3362.13,1986.12 3357.94,1984.94 3353.05,1984.94 C3349.59,1984.94 3346.82,1986.02 3344.75,1988.19 C3342.68,1990.35 3341.64,1992.86 3341.64,1995.7 C3341.64,1999.17 3343.16,2001.8 3346.19,2003.59 L3363.44,2013.7 M3367.99,2016.3 C3376.4,2021.18 3380.61,2027.62 3380.61,2035.6 C3380.61,2041.59 3378.04,2046.74 3372.91,2051.04 C3367.77,2055.34 3360.75,2057.49 3351.85,2057.49 C3344.36,2057.49 3337.85,2055.51 3332.32,2051.55 C3326.78,2047.59 3324.01,2042.46 3324.01,2036.15 C3324.01,2033.8 3324.69,2031.42 3326.05,2029.01 C3327.42,2026.6 3328.68,2024.79 3329.86,2023.58 C3331.03,2022.38 3332.95,2020.5 3335.61,2017.97 C3329.43,2013.7 3326.33,2008.32 3326.33,2001.83 C3326.33,1996.26 3328.71,1991.47 3333.48,1987.45 C3338.24,1983.43 3344.76,1981.42 3353.05,1981.42 C3359.67,1981.42 3365.41,1982.92 3370.26,1985.92 C3375.12,1988.91 3377.54,1992.98 3377.54,1998.12 C3377.54,2003.62 3374.36,2009.68 3367.99,2016.3 M3340.16,2020.66 C3333.85,2026.16 3330.69,2031.33 3330.69,2036.15 C3330.69,2041.22 3332.8,2045.46 3337,2048.86 C3341.21,2052.26 3346.16,2053.96 3351.85,2053.96 C3355.8,2053.96 3358.97,2052.7 3361.35,2050.16 C3363.74,2047.63 3364.93,2044.69 3364.93,2041.35 C3364.93,2037.08 3363.16,2033.93 3359.64,2031.88 L3340.16,2020.66 "/>
<polyline class="FretDiagram" stroke="#fc02ff" stroke-width="4.76" stroke-linejoin="bevel" points="1336.42,206.022 1549.53,206.022"/>
<polyline class="FretDiagram" stroke="#fc02ff" stroke-width="4.76" stroke-linejoin="bevel" points="1338.8,194.117 1338.8,420.321"/>
<polyline class="FretDiagram" stroke="#fc02ff" stroke-width="4.76" stroke-linejoin="bevel" points="1380.47,194.117 1380.47,420.321"/>
<polyline class="FretDiagram" stroke="#fc02ff" stroke-width="4.76" stroke-linejoin="bevel" points="1422.14,194.117 1422.14,420.321"/>
<polyline class="FretDiagram" stroke="#fc02ff" stroke-width="4.76" stroke-linejoin="bevel" points="1463.81,194.117 1463.81,420.321"/>
<polyline class="FretDiagram" stroke="#fc02ff" stroke-width="4.76" stroke-linejoin="bevel" points="1505.48,194.117 1505.48,420.321"/>
<polyline class="FretDiagram" stroke="#fc02ff" stroke-width="4.76" stroke-linejoin="bevel" points="1547.15,194.117 1547.15,420.321"/>
<polyline class="FretDiagram" stroke="#fc02ff" stroke-width="4.76" stroke-linejoin="bevel" points="1338.8,253.644 1547.15,253.644"/>
<polyline class="FretDiagram" stroke="#fc02ff" stroke-width="4.76" stroke-linejoin="bevel" points="1338.8,301.266 1547.15,301.266"/>
<polyline class="FretDiagram" stroke="#fc02ff" stroke-width="4.76" stroke-linejoin="bevel" points="1338.8,348.888 1547.15,348.888"/>
<polyline class="FretDiagram" stroke="#fc02ff" stroke-width="4.76" stroke-linejoin="bevel" points="1338.8,396.51 1547.15,396.51"/>
<path class="FretDiagram" fill="#fc02ff" fill-rule="evenodd" d="M1395.06,325.077 C1395.06,333.132 1388.53,339.661 1380.47,339.661 C1372.42,339.661 1365.89,333.132 1365.89,325.077 C1365.89,317.023 1372.42,310.493 1380.47,310.493 C1388.53,310.493 1395.06,317.023 1395.06,325.077"/>
<path class="FretDiagram" fill="#fc02ff" fill-rule="evenodd" d="M1436.73,325.077 C1436.73,333.132 1430.2,339.661 1422.14,339.661 C1414.09,339.661 1407.56,333.132 1407.56,325.077 C1407.56,317.023 1414.09,310.493 1422.14,310.493 C1430.2,310.493 1436.73,317.023 1436.73,325.077"/>
<path class="FretDiagram" fill="#fc02ff" fill-rule="evenodd" d="M1478.4,325.077 C1478.4,333.132 1471.87,339.661 1463.81,339.661 C1455.76,339.661 1449.23,333.132 1449.23,325.077 C1449.23,317.023 1455.76,310.493 1463.81,310.493 C1471.87,310.493 1478.4,317.023 1478.4,325.077"/>
<polyline class="FretDiagram" fill="none" stroke="#fc02ff" stroke-width="6.86" stroke-linecap="round" stroke-linejoin="bevel" points="1322.14,141.732 1355.47,175.068"/>
<polyline class="FretDiagram" fill="none" stroke="#fc02ff" stroke-width="6.86" stroke-linecap="round" stroke-linejoin="bevel" points="1322.14,175.068 1355.47,141.732"/>
<path class="FretDiagram" fill="none" stroke="#fc02ff" stroke-width="6.86" stroke-linecap="round" stroke-linejoin="bevel" fill-rule="evenodd" d="M1522.15,158.4 C1522.15,167.605 1514.69,175.068 1505.48,175.068 C1496.28,175.068 1488.81,167.605 1488.81,158.4 C1488.81,149.195 1496.28,141.732 1505.48,141.732 C1514.69,141.732 1522.15,149.195 1522.15,158.4"/>
<path class="FretDiagram" fill="none" stroke="#fc02ff" stroke-width="6.86" stroke-linecap="round" stroke-linejoin="bevel" fill-rule="evenodd" d="M1563.82,158.4 C1563.82,167.605 1556.36,175.068 1547.15,175.068 C1537.95,175.068 1530.48,167.605 1530.48,158.4 C1530.48,149.195 1537.95,141.732 1547.15,141.732 C1556.36,141.732 1563.82,149.195 1563.82,158.4"/>
<polyline class="FretDiagram" fill="none" stroke="#fc02ff" stroke-width="29.17" stroke-linecap="round" stroke-linejoin="bevel" points="1380.47,229.833 1547.15,229.833"/>
<path class="FretDiagram" fill="#fc02ff" d="M1294.99,203.045 C1290.17,203.045 1286.86,204.359 1285.06,206.987 C1283.25,209.615 1282.29,213.115 1282.16,217.485 L1273.8,217.485 C1274.12,202.981 1281.15,195.73 1294.89,195.73 C1301.29,195.73 1306.31,197.376 1309.95,200.67 C1313.59,203.963 1315.41,208.491 1315.41,214.255 C1315.41,221.095 1312.28,225.75 1306.01,228.22 C1310.06,229.613 1312.97,231.56 1314.75,234.062 C1316.52,236.564 1317.41,239.968 1317.41,244.275 C1317.41,250.671 1315.33,255.77 1311.18,259.57 C1307.04,263.37 1301.51,265.27 1294.61,265.27 C1280.8,265.27 1273.39,258.018 1272.38,243.515 L1280.74,243.515 C1281.05,248.391 1282.35,252.001 1284.63,254.345 C1286.91,256.688 1290.33,257.86 1294.89,257.86 C1299.26,257.86 1302.68,256.672 1305.15,254.297 C1307.62,251.922 1308.86,248.613 1308.86,244.37 C1308.86,236.2 1304.2,232.115 1294.89,232.115 L1291.38,232.21 L1290.33,232.21 L1290.33,225.085 C1296.35,224.958 1300.61,224.198 1303.11,222.805 C1305.61,221.411 1306.86,218.656 1306.86,214.54 C1306.86,210.993 1305.8,208.19 1303.68,206.132 C1301.56,204.074 1298.66,203.045 1294.99,203.045"/>
<polyline class="FretDiagram" fill="#fc02ff" stroke="#fc02ff" stroke-width="4.76" stroke-linejoin="bevel" points="3251.47,206.022 3464.58,206.022"/>
<polyline class="FretDiagram" fill="#fc02ff" stroke="#fc02ff" stroke-width="4.76" stroke-linejoin="bevel" points="3253.85,194.117 3253.85,420.321"/>
<polyline class="FretDiagram" fill="#fc02ff" stroke="#fc02ff" stroke-width="4.76" stroke-linejoin="bevel" points="3295.52,194.117 3295.52,420.321"/>
<polyline class="FretDiagram" fill="#fc02ff" stroke="#fc02ff" stroke-width="4.76" stroke-linejoin="bevel" points="3337.19,194.117 3337.19,420.321"/>
<polyline class="FretDiagram" fill="#fc02ff" stroke="#fc02ff" stroke-width="4.76" stroke-linejoin="bevel" points="3378.86,194.117 3378.86,420.321"/>
<polyline class="FretDiagram" fill="#fc02ff" stroke="#fc02ff" stroke-width="4.76" stroke-linejoin="bevel" points="3420.53,194.117 3420.53,420.321"/>
<polyline class="FretDiagram" fill="#fc02ff" stroke="#fc02ff" stroke-width="4.76" stroke-linejoin="bevel" points="3462.2,194.117 3462.2,420.321"/>
<polyline class="FretDiagram" fill="#fc02ff" stroke="#fc02ff" stroke-width="4.76" stroke-linejoin="bevel" points="3253.85,253.644 3462.2,253.644"/>
<polyline class="FretDiagram" fill="#fc02ff" stroke="#fc02ff" stroke-width="4.76" stroke-linejoin="bevel" points="3253.85,301.266 3462.2,301.266"/>
<polyline class="FretDiagram" fill="#fc02ff" stroke="#fc02ff" stroke-width="4.76" stroke-linejoin="bevel" points="3253.85,348.888 3462.2,348.888"/>
<polyline class="FretDiagram" fill="#fc02ff" stroke="#fc02ff" stroke-width="4.76" stroke-linejoin="bevel" points="3253.85,396.51 3462.2,396.51"/>
<path class="FretDiagram" fill="#fc02ff" fill-rule="evenodd" d="M3310.11,325.077 C3310.11,333.132 3303.58,339.661 3295.52,339.661 C3287.47,339.661 3280.94,333.132 3280.94,325.077 C3280.94,317.023 3287.47,310.493 3295.52,310.493 C3303.58,310.493 3310.11,317.023 3310.11,325.077"/>
<path class="FretDiagram" fill="#fc02ff" fill-rule="evenodd" d="M3351.78,325.077 C3351.78,333.132 3345.25,339.661 3337.19,339.661 C3329.14,339.661 3322.61,333.132 3322.61,325.077 C3322.61,317.023 3329.14,310.493 3337.19,310.493 C3345.25,310.493 3351.78,317.023 3351.78,325.077"/>
<path class="FretDiagram" fill="#fc02ff" fill-rule="evenodd" d="M3393.45,277.455 C3393.45,285.51 3386.92,292.039 3378.86,292.039 C3370.81,292.039 3364.28,285.51 3364.28,277.455 C3364.28,269.401 3370.81,262.871 3378.86,262.871 C3386.92,262.871 3393.45,269.401 3393.45,277.455"/>
<polyline class="FretDiagram" fill="none" stroke="#fc02ff" stroke-width="6.86" stroke-linecap="round" stroke-linejoin="bevel" points="3237.19,141.732 3270.52,175.068"/>
<polyline class="FretDiagram" fill="none" stroke="#fc02ff" stroke-width="6.86" stroke-linecap="round" stroke-linejoin="bevel" points="3237.19,175.068 3270.52,141.732"/>
<path class="FretDiagram" fill="none" stroke="#fc02ff" stroke-width="6.86" stroke-linecap="round" stroke-linejoin="bevel" fill-rule="evenodd" d="M3437.2,158.4 C3437.2,167.605 3429.74,175.068 3420.53,175.068 C3411.33,175.068 3403.86,167.605 3403.86,158.4 C3403.86,149.195 3411.33,141.732 3420.53,141.732 C3429.74,141.732 3437.2,149.195 3437.2,158.4"/>
<path class="FretDiagram" fill="none" stroke="#fc02ff" stroke-width="6.86" stroke-linecap="round" stroke-linejoin="bevel" fill-rule="evenodd" d="M3478.87,158.4 C3478.87,167.605 3471.41,175.068 3462.2,175.068 C3453,175.068 3445.53,167.605 3445.53,158.4 C3445.53,149.195 3453,141.732 3462.2,141.732 C3471.41,141.732 3478.87,149.195 3478.87,158.4"/>
<polyline class="FretDiagram" fill="none" stroke="#fc02ff" stroke-width="29.17" stroke-linecap="round" stroke-linejoin="bevel" points="3295.52,229.833 3462.2,229.833"/>
<path class="FretDiagram" fill="#fc02ff" d="M3229.61,195.73 L3229.61,203.995 L3201.58,203.995 L3198.92,222.805 C3202.66,220.081 3206.81,218.72 3211.37,218.72 C3217.83,218.72 3223.07,220.794 3227.09,224.942 C3231.11,229.09 3233.12,234.49 3233.12,241.14 C3233.12,248.233 3230.97,254.028 3226.66,258.525 C3222.35,263.021 3216.81,265.27 3210.04,265.27 C3207.44,265.27 3205.05,264.985 3202.86,264.415 C3200.68,263.845 3198.87,263.164 3197.45,262.372 C3196.02,261.58 3194.72,260.535 3193.55,259.237 C3192.38,257.939 3191.49,256.799 3190.89,255.817 C3190.29,254.835 3189.72,253.6 3189.18,252.112 C3188.64,250.624 3188.31,249.595 3188.19,249.025 C3188.06,248.455 3187.9,247.631 3187.71,246.555 L3196.07,246.555 C3198.03,254.091 3202.63,257.86 3209.85,257.86 C3214.41,257.86 3218,256.466 3220.63,253.68 C3223.26,250.893 3224.57,247.093 3224.57,242.28 C3224.57,237.276 3223.24,233.334 3220.58,230.452 C3217.92,227.57 3214.34,226.13 3209.85,226.13 C3207.25,226.13 3205.03,226.589 3203.2,227.507 C3201.36,228.425 3199.46,230.056 3197.5,232.4 L3189.8,232.4 L3194.84,195.73 L3229.61,195.73 "/>
<path class="Bracket" transform="matrix(8.6315,0,0,9.74657,76.1283,2374.8)" d="M0.92002,-50 C2.69004,-51.88 6.2,-55.8 6.2,-63 C6.2,-72.1 2.25996,-81.32 2.25996,-86.97 C2.25996,-93.06 5.84004,-98.84 5.95,-99 C6.05996,-99.16 6.05,-99.39 5.94004,-99.46 C5.82998,-99.53 5.62002,-99.47 5.49004,-99.32 C5.35996,-99.17 0,-93.75 0,-85.6 C0,-76.75 3.5,-70.58 3.5,-59.07 C3.5,-56.89 2.55996,-53.36 0.1,-50.33 C-0.0799805,-50.17 -0.1,-49.89 0.0599609,-49.7 L0.0700195,-49.69 L0.1,-49.66 C2.55996,-46.63 3.5,-43.1 3.5,-40.92 C3.5,-29.4 0,-23.24 0,-14.39 C0,-6.25 5.35996,-0.8 5.49004,-0.659961 C5.62002,-0.52002 5.8,-0.42998 5.94004,-0.52002 C6.07998,-0.609961 6.07998,-0.77998 5.95,-0.97998 C5.82002,-1.17998 2.25996,-6.92002 2.25996,-13.01 C2.25996,-18.66 6.2,-27.9 6.2,-37 C6.2,-44.3 2.69004,-48.12 0.92002,-50"/>
</svg>
