<?xml version="1.0" encoding="UTF-8" standalone="no"?>
<svg width="4209.44px" height="2976.38px" viewBox="0 0 4209.44 2976.38"
 xmlns="http://www.w3.org/2000/svg" xmlns:xlink="http://www.w3.org/1999/xlink" version="1.2" baseProfile="tiny">
<title>Cordes (20)</title>
<desc>Generated by MuseScore 3.6.2</desc>
<polyline class="StaffLines" fill="none" stroke="#000000" stroke-width="6.55" stroke-linejoin="bevel" points="153.819,558.425 4138.58,558.425"/>
<polyline class="StaffLines" fill="none" stroke="#000000" stroke-width="6.55" stroke-linejoin="bevel" points="153.819,647.717 4138.58,647.717"/>
<polyline class="StaffLines" fill="none" stroke="#000000" stroke-width="6.55" stroke-linejoin="bevel" points="153.819,737.008 4138.58,737.008"/>
<polyline class="StaffLines" fill="none" stroke="#000000" stroke-width="6.55" stroke-linejoin="bevel" points="153.819,826.299 4138.58,826.299"/>
<polyline class="StaffLines" fill="none" stroke="#000000" stroke-width="6.55" stroke-linejoin="bevel" points="153.819,915.591 4138.58,915.591"/>
<polyline class="StaffLines" fill="none" stroke="#000000" stroke-width="6.55" stroke-linejoin="bevel" points="153.819,1004.88 4138.58,1004.88"/>
<polyline class="StaffLines" fill="none" stroke="#000000" stroke-width="6.55" stroke-linejoin="bevel" points="153.819,1391.81 4138.58,1391.81"/>
<polyline class="StaffLines" fill="none" stroke="#000000" stroke-width="6.55" stroke-linejoin="bevel" points="153.819,1451.34 4138.58,1451.34"/>
<polyline class="StaffLines" fill="none" stroke="#000000" stroke-width="6.55" stroke-linejoin="bevel" points="153.819,1510.87 4138.58,1510.87"/>
<polyline class="StaffLines" fill="none" stroke="#000000" stroke-width="6.55" stroke-linejoin="bevel" points="153.819,1570.39 4138.58,1570.39"/>
<polyline class="StaffLines" fill="none" stroke="#000000" stroke-width="6.55" stroke-linejoin="bevel" points="153.819,1629.92 4138.58,1629.92"/>
<polyline class="StaffLines" fill="none" stroke="#000000" stroke-width="6.55" stroke-linejoin="bevel" points="153.819,2099.26 4138.58,2099.26"/>
<polyline class="StaffLines" fill="none" stroke="#000000" stroke-width="6.55" stroke-linejoin="bevel" points="153.819,2158.79 4138.58,2158.79"/>
<polyline class="StaffLines" fill="none" stroke="#000000" stroke-width="6.55" stroke-linejoin="bevel" points="153.819,2218.32 4138.58,2218.32"/>
<polyline class="StaffLines" fill="none" stroke="#000000" stroke-width="6.55" stroke-linejoin="bevel" points="153.819,2277.85 4138.58,2277.85"/>
<polyline class="StaffLines" fill="none" stroke="#000000" stroke-width="6.55" stroke-linejoin="bevel" points="153.819,2337.37 4138.58,2337.37"/>
<polyline class="BarLine" fill="none" stroke="#000000" stroke-width="10.71" stroke-linejoin="bevel" points="159.176,2095.99 159.176,2340.65"/>
<polyline class="BarLine" fill="none" stroke="#000000" stroke-width="10.71" stroke-linejoin="bevel" points="1005.03,2095.99 1005.03,2340.65"/>
<polyline class="BarLine" fill="none" stroke="#000000" stroke-width="10.71" stroke-linejoin="bevel" points="1625.03,2095.99 1625.03,2340.65"/>
<polyline class="BarLine" fill="none" stroke="#000000" stroke-width="10.71" stroke-linejoin="bevel" points="1657.77,2095.99 1657.77,2340.65"/>
<polyline class="BarLine" fill="none" stroke="#000000" stroke-width="10.71" stroke-linejoin="bevel" points="2219.27,2095.99 2219.27,2340.65"/>
<polyline class="BarLine" fill="none" stroke="#000000" stroke-width="10.71" stroke-linejoin="bevel" points="2780.77,2095.99 2780.77,2340.65"/>
<polyline class="BarLine" fill="none" stroke="#000000" stroke-width="10.71" stroke-linejoin="bevel" points="2813.51,2095.99 2813.51,2340.65"/>
<polyline class="BarLine" fill="none" stroke="#000000" stroke-width="10.71" stroke-linejoin="bevel" points="3447.85,2095.99 3447.85,2340.65"/>
<polyline class="BarLine" fill="none" stroke="#000000" stroke-width="10.71" stroke-linejoin="bevel" points="4080.54,2095.99 4080.54,2340.65"/>
<polyline class="BarLine" fill="none" stroke="#000000" stroke-width="32.74" stroke-linejoin="bevel" points="4122.21,2095.99 4122.21,2340.65"/>
<polyline class="BarLine" fill="none" stroke="#000000" stroke-width="10.71" stroke-linejoin="bevel" points="159.176,1388.54 159.176,2099.26"/>
<polyline class="BarLine" fill="none" stroke="#000000" stroke-width="10.71" stroke-linejoin="bevel" points="1005.03,1388.54 1005.03,1633.2"/>
<polyline class="BarLine" fill="none" stroke="#000000" stroke-width="10.71" stroke-linejoin="bevel" points="1625.03,1388.54 1625.03,1633.2"/>
<polyline class="BarLine" fill="none" stroke="#000000" stroke-width="10.71" stroke-linejoin="bevel" points="1657.77,1388.54 1657.77,1633.2"/>
<polyline class="BarLine" fill="none" stroke="#000000" stroke-width="10.71" stroke-linejoin="bevel" points="2219.27,1388.54 2219.27,1633.2"/>
<polyline class="BarLine" fill="none" stroke="#000000" stroke-width="10.71" stroke-linejoin="bevel" points="2780.77,1388.54 2780.77,1633.2"/>
<polyline class="BarLine" fill="none" stroke="#000000" stroke-width="10.71" stroke-linejoin="bevel" points="2813.51,1388.54 2813.51,1633.2"/>
<polyline class="BarLine" fill="none" stroke="#000000" stroke-width="10.71" stroke-linejoin="bevel" points="3447.85,1388.54 3447.85,1633.2"/>
<polyline class="BarLine" fill="none" stroke="#000000" stroke-width="10.71" stroke-linejoin="bevel" points="4080.54,1388.54 4080.54,1633.2"/>
<polyline class="BarLine" fill="none" stroke="#000000" stroke-width="32.74" stroke-linejoin="bevel" points="4122.21,1388.54 4122.21,1633.2"/>
<polyline class="BarLine" fill="none" stroke="#000000" stroke-width="10.71" stroke-linejoin="bevel" points="159.176,555.151 159.176,1391.81"/>
<polyline class="BarLine" fill="none" stroke="#000000" stroke-width="10.71" stroke-linejoin="bevel" points="1005.03,555.151 1005.03,1008.16"/>
<polyline class="BarLine" fill="none" stroke="#000000" stroke-width="10.71" stroke-linejoin="bevel" points="1625.03,555.151 1625.03,1008.16"/>
<polyline class="BarLine" fill="none" stroke="#000000" stroke-width="10.71" stroke-linejoin="bevel" points="1657.77,555.151 1657.77,1008.16"/>
<polyline class="BarLine" fill="none" stroke="#000000" stroke-width="10.71" stroke-linejoin="bevel" points="2219.27,555.151 2219.27,1008.16"/>
<polyline class="BarLine" fill="none" stroke="#000000" stroke-width="10.71" stroke-linejoin="bevel" points="2780.77,555.151 2780.77,1008.16"/>
<polyline class="BarLine" fill="none" stroke="#000000" stroke-width="10.71" stroke-linejoin="bevel" points="2813.51,555.151 2813.51,1008.16"/>
<polyline class="BarLine" fill="none" stroke="#000000" stroke-width="10.71" stroke-linejoin="bevel" points="3447.85,555.151 3447.85,1008.16"/>
<polyline class="BarLine" fill="none" stroke="#000000" stroke-width="10.71" stroke-linejoin="bevel" points="4080.54,555.151 4080.54,1008.16"/>
<polyline class="BarLine" fill="none" stroke="#000000" stroke-width="32.74" stroke-linejoin="bevel" points="4122.21,555.151 4122.21,1008.16"/>
<path class="Accidental" transform="matrix(2.3811,0,0,2.3811,519.076,2158.79)" d="M23.3,-10.6 C23.9,-10.7 24.4,-11.4 24.4,-12 L24.4,-17.9 C24.4,-18.7 23.8,-19.3 23,-19.3 L22.8,-19.3 L19.5,-18.6 L19.5,-33.5 L16.7,-33.5 L16.7,-18 L7.8,-16.2 L7.8,-30.3 L5,-30.3 L5,-15.6 L1.1,-14.8 C0.5,-14.7 0,-14 0,-13.4 L0,-13.2 L0,-7.4 L0,-7.6 C0,-6.8 0.6,-6.2 1.4,-6.2 L1.7,-6.2 L5,-6.9 L5,9.6 L1.1,10.4 C0.5,10.5 0,11.2 0,11.8 L0,17.6 C0,18.4 0.6,19 1.4,19 L1.7,19 L5,18.3 L5,33.2 L7.8,33.2 L7.8,17.7 L16.7,15.9 L16.7,30 L19.5,30 L19.5,15.3 L23.3,14.6 C23.9,14.5 24.4,13.8 24.4,13.2 L24.4,7.3 C24.4,6.5 23.8,5.9 23,5.9 L22.8,5.9 L19.5,6.6 L19.5,-9.9 L23.3,-10.6 M7.8,9.1 L7.8,-7.5 L16.7,-9.3 L16.7,7.2 L7.8,9.1 "/>
<path class="Accidental" transform="matrix(2.3811,0,0,2.3811,1139.08,2158.79)" d="M23.3,-10.6 C23.9,-10.7 24.4,-11.4 24.4,-12 L24.4,-17.9 C24.4,-18.7 23.8,-19.3 23,-19.3 L22.8,-19.3 L19.5,-18.6 L19.5,-33.5 L16.7,-33.5 L16.7,-18 L7.8,-16.2 L7.8,-30.3 L5,-30.3 L5,-15.6 L1.1,-14.8 C0.5,-14.7 0,-14 0,-13.4 L0,-13.2 L0,-7.4 L0,-7.6 C0,-6.8 0.6,-6.2 1.4,-6.2 L1.7,-6.2 L5,-6.9 L5,9.6 L1.1,10.4 C0.5,10.5 0,11.2 0,11.8 L0,17.6 C0,18.4 0.6,19 1.4,19 L1.7,19 L5,18.3 L5,33.2 L7.8,33.2 L7.8,17.7 L16.7,15.9 L16.7,30 L19.5,30 L19.5,15.3 L23.3,14.6 C23.9,14.5 24.4,13.8 24.4,13.2 L24.4,7.3 C24.4,6.5 23.8,5.9 23,5.9 L22.8,5.9 L19.5,6.6 L19.5,-9.9 L23.3,-10.6 M7.8,9.1 L7.8,-7.5 L16.7,-9.3 L16.7,7.2 L7.8,9.1 "/>
<path class="Accidental" transform="matrix(2.3811,0,0,2.3811,1720.64,2158.79)" d="M23.3,-10.6 C23.9,-10.7 24.4,-11.4 24.4,-12 L24.4,-17.9 C24.4,-18.7 23.8,-19.3 23,-19.3 L22.8,-19.3 L19.5,-18.6 L19.5,-33.5 L16.7,-33.5 L16.7,-18 L7.8,-16.2 L7.8,-30.3 L5,-30.3 L5,-15.6 L1.1,-14.8 C0.5,-14.7 0,-14 0,-13.4 L0,-13.2 L0,-7.4 L0,-7.6 C0,-6.8 0.6,-6.2 1.4,-6.2 L1.7,-6.2 L5,-6.9 L5,9.6 L1.1,10.4 C0.5,10.5 0,11.2 0,11.8 L0,17.6 C0,18.4 0.6,19 1.4,19 L1.7,19 L5,18.3 L5,33.2 L7.8,33.2 L7.8,17.7 L16.7,15.9 L16.7,30 L19.5,30 L19.5,15.3 L23.3,14.6 C23.9,14.5 24.4,13.8 24.4,13.2 L24.4,7.3 C24.4,6.5 23.8,5.9 23,5.9 L22.8,5.9 L19.5,6.6 L19.5,-9.9 L23.3,-10.6 M7.8,9.1 L7.8,-7.5 L16.7,-9.3 L16.7,7.2 L7.8,9.1 "/>
<path class="Accidental" transform="matrix(2.3811,0,0,2.3811,2282.14,2158.79)" d="M23.3,-10.6 C23.9,-10.7 24.4,-11.4 24.4,-12 L24.4,-17.9 C24.4,-18.7 23.8,-19.3 23,-19.3 L22.8,-19.3 L19.5,-18.6 L19.5,-33.5 L16.7,-33.5 L16.7,-18 L7.8,-16.2 L7.8,-30.3 L5,-30.3 L5,-15.6 L1.1,-14.8 C0.5,-14.7 0,-14 0,-13.4 L0,-13.2 L0,-7.4 L0,-7.6 C0,-6.8 0.6,-6.2 1.4,-6.2 L1.7,-6.2 L5,-6.9 L5,9.6 L1.1,10.4 C0.5,10.5 0,11.2 0,11.8 L0,17.6 C0,18.4 0.6,19 1.4,19 L1.7,19 L5,18.3 L5,33.2 L7.8,33.2 L7.8,17.7 L16.7,15.9 L16.7,30 L19.5,30 L19.5,15.3 L23.3,14.6 C23.9,14.5 24.4,13.8 24.4,13.2 L24.4,7.3 C24.4,6.5 23.8,5.9 23,5.9 L22.8,5.9 L19.5,6.6 L19.5,-9.9 L23.3,-10.6 M7.8,9.1 L7.8,-7.5 L16.7,-9.3 L16.7,7.2 L7.8,9.1 "/>
<path class="Accidental" transform="matrix(2.3811,0,0,2.3811,2949.22,2158.79)" d="M23.3,-10.6 C23.9,-10.7 24.4,-11.4 24.4,-12 L24.4,-17.9 C24.4,-18.7 23.8,-19.3 23,-19.3 L22.8,-19.3 L19.5,-18.6 L19.5,-33.5 L16.7,-33.5 L16.7,-18 L7.8,-16.2 L7.8,-30.3 L5,-30.3 L5,-15.6 L1.1,-14.8 C0.5,-14.7 0,-14 0,-13.4 L0,-13.2 L0,-7.4 L0,-7.6 C0,-6.8 0.6,-6.2 1.4,-6.2 L1.7,-6.2 L5,-6.9 L5,9.6 L1.1,10.4 C0.5,10.5 0,11.2 0,11.8 L0,17.6 C0,18.4 0.6,19 1.4,19 L1.7,19 L5,18.3 L5,33.2 L7.8,33.2 L7.8,17.7 L16.7,15.9 L16.7,30 L19.5,30 L19.5,15.3 L23.3,14.6 C23.9,14.5 24.4,13.8 24.4,13.2 L24.4,7.3 C24.4,6.5 23.8,5.9 23,5.9 L22.8,5.9 L19.5,6.6 L19.5,-9.9 L23.3,-10.6 M7.8,9.1 L7.8,-7.5 L16.7,-9.3 L16.7,7.2 L7.8,9.1 "/>
<path class="Accidental" transform="matrix(2.3811,0,0,2.3811,3581.91,2158.79)" d="M23.3,-10.6 C23.9,-10.7 24.4,-11.4 24.4,-12 L24.4,-17.9 C24.4,-18.7 23.8,-19.3 23,-19.3 L22.8,-19.3 L19.5,-18.6 L19.5,-33.5 L16.7,-33.5 L16.7,-18 L7.8,-16.2 L7.8,-30.3 L5,-30.3 L5,-15.6 L1.1,-14.8 C0.5,-14.7 0,-14 0,-13.4 L0,-13.2 L0,-7.4 L0,-7.6 C0,-6.8 0.6,-6.2 1.4,-6.2 L1.7,-6.2 L5,-6.9 L5,9.6 L1.1,10.4 C0.5,10.5 0,11.2 0,11.8 L0,17.6 C0,18.4 0.6,19 1.4,19 L1.7,19 L5,18.3 L5,33.2 L7.8,33.2 L7.8,17.7 L16.7,15.9 L16.7,30 L19.5,30 L19.5,15.3 L23.3,14.6 C23.9,14.5 24.4,13.8 24.4,13.2 L24.4,7.3 C24.4,6.5 23.8,5.9 23,5.9 L22.8,5.9 L19.5,6.6 L19.5,-9.9 L23.3,-10.6 M7.8,9.1 L7.8,-7.5 L16.7,-9.3 L16.7,7.2 L7.8,9.1 "/>
<path class="Accidental" transform="matrix(2.3811,0,0,2.3811,519.076,1391.81)" d="M23.3,-10.6 C23.9,-10.7 24.4,-11.4 24.4,-12 L24.4,-17.9 C24.4,-18.7 23.8,-19.3 23,-19.3 L22.8,-19.3 L19.5,-18.6 L19.5,-33.5 L16.7,-33.5 L16.7,-18 L7.8,-16.2 L7.8,-30.3 L5,-30.3 L5,-15.6 L1.1,-14.8 C0.5,-14.7 0,-14 0,-13.4 L0,-13.2 L0,-7.4 L0,-7.6 C0,-6.8 0.6,-6.2 1.4,-6.2 L1.7,-6.2 L5,-6.9 L5,9.6 L1.1,10.4 C0.5,10.5 0,11.2 0,11.8 L0,17.6 C0,18.4 0.6,19 1.4,19 L1.7,19 L5,18.3 L5,33.2 L7.8,33.2 L7.8,17.7 L16.7,15.9 L16.7,30 L19.5,30 L19.5,15.3 L23.3,14.6 C23.9,14.5 24.4,13.8 24.4,13.2 L24.4,7.3 C24.4,6.5 23.8,5.9 23,5.9 L22.8,5.9 L19.5,6.6 L19.5,-9.9 L23.3,-10.6 M7.8,9.1 L7.8,-7.5 L16.7,-9.3 L16.7,7.2 L7.8,9.1 "/>
<path class="Accidental" transform="matrix(2.3811,0,0,2.3811,1067.89,1451.34)" d="M23.3,-10.6 C23.9,-10.7 24.4,-11.4 24.4,-12 L24.4,-17.9 C24.4,-18.7 23.8,-19.3 23,-19.3 L22.8,-19.3 L19.5,-18.6 L19.5,-33.5 L16.7,-33.5 L16.7,-18 L7.8,-16.2 L7.8,-30.3 L5,-30.3 L5,-15.6 L1.1,-14.8 C0.5,-14.7 0,-14 0,-13.4 L0,-13.2 L0,-7.4 L0,-7.6 C0,-6.8 0.6,-6.2 1.4,-6.2 L1.7,-6.2 L5,-6.9 L5,9.6 L1.1,10.4 C0.5,10.5 0,11.2 0,11.8 L0,17.6 C0,18.4 0.6,19 1.4,19 L1.7,19 L5,18.3 L5,33.2 L7.8,33.2 L7.8,17.7 L16.7,15.9 L16.7,30 L19.5,30 L19.5,15.3 L23.3,14.6 C23.9,14.5 24.4,13.8 24.4,13.2 L24.4,7.3 C24.4,6.5 23.8,5.9 23,5.9 L22.8,5.9 L19.5,6.6 L19.5,-9.9 L23.3,-10.6 M7.8,9.1 L7.8,-7.5 L16.7,-9.3 L16.7,7.2 L7.8,9.1 "/>
<path class="Accidental" transform="matrix(2.3811,0,0,2.3811,1139.08,1391.81)" d="M23.3,-10.6 C23.9,-10.7 24.4,-11.4 24.4,-12 L24.4,-17.9 C24.4,-18.7 23.8,-19.3 23,-19.3 L22.8,-19.3 L19.5,-18.6 L19.5,-33.5 L16.7,-33.5 L16.7,-18 L7.8,-16.2 L7.8,-30.3 L5,-30.3 L5,-15.6 L1.1,-14.8 C0.5,-14.7 0,-14 0,-13.4 L0,-13.2 L0,-7.4 L0,-7.6 C0,-6.8 0.6,-6.2 1.4,-6.2 L1.7,-6.2 L5,-6.9 L5,9.6 L1.1,10.4 C0.5,10.5 0,11.2 0,11.8 L0,17.6 C0,18.4 0.6,19 1.4,19 L1.7,19 L5,18.3 L5,33.2 L7.8,33.2 L7.8,17.7 L16.7,15.9 L16.7,30 L19.5,30 L19.5,15.3 L23.3,14.6 C23.9,14.5 24.4,13.8 24.4,13.2 L24.4,7.3 C24.4,6.5 23.8,5.9 23,5.9 L22.8,5.9 L19.5,6.6 L19.5,-9.9 L23.3,-10.6 M7.8,9.1 L7.8,-7.5 L16.7,-9.3 L16.7,7.2 L7.8,9.1 "/>
<path class="Accidental" transform="matrix(2.3811,0,0,2.3811,1720.64,1600.16)" d="M23.3,-10.6 C23.9,-10.7 24.4,-11.4 24.4,-12 L24.4,-17.9 C24.4,-18.7 23.8,-19.3 23,-19.3 L22.8,-19.3 L19.5,-18.6 L19.5,-33.5 L16.7,-33.5 L16.7,-18 L7.8,-16.2 L7.8,-30.3 L5,-30.3 L5,-15.6 L1.1,-14.8 C0.5,-14.7 0,-14 0,-13.4 L0,-13.2 L0,-7.4 L0,-7.6 C0,-6.8 0.6,-6.2 1.4,-6.2 L1.7,-6.2 L5,-6.9 L5,9.6 L1.1,10.4 C0.5,10.5 0,11.2 0,11.8 L0,17.6 C0,18.4 0.6,19 1.4,19 L1.7,19 L5,18.3 L5,33.2 L7.8,33.2 L7.8,17.7 L16.7,15.9 L16.7,30 L19.5,30 L19.5,15.3 L23.3,14.6 C23.9,14.5 24.4,13.8 24.4,13.2 L24.4,7.3 C24.4,6.5 23.8,5.9 23,5.9 L22.8,5.9 L19.5,6.6 L19.5,-9.9 L23.3,-10.6 M7.8,9.1 L7.8,-7.5 L16.7,-9.3 L16.7,7.2 L7.8,9.1 "/>
<path class="Accidental" transform="matrix(2.3811,0,0,2.3811,2936.13,1600.16)" d="M23.3,-10.6 C23.9,-10.7 24.4,-11.4 24.4,-12 L24.4,-17.9 C24.4,-18.7 23.8,-19.3 23,-19.3 L22.8,-19.3 L19.5,-18.6 L19.5,-33.5 L16.7,-33.5 L16.7,-18 L7.8,-16.2 L7.8,-30.3 L5,-30.3 L5,-15.6 L1.1,-14.8 C0.5,-14.7 0,-14 0,-13.4 L0,-13.2 L0,-7.4 L0,-7.6 C0,-6.8 0.6,-6.2 1.4,-6.2 L1.7,-6.2 L5,-6.9 L5,9.6 L1.1,10.4 C0.5,10.5 0,11.2 0,11.8 L0,17.6 C0,18.4 0.6,19 1.4,19 L1.7,19 L5,18.3 L5,33.2 L7.8,33.2 L7.8,17.7 L16.7,15.9 L16.7,30 L19.5,30 L19.5,15.3 L23.3,14.6 C23.9,14.5 24.4,13.8 24.4,13.2 L24.4,7.3 C24.4,6.5 23.8,5.9 23,5.9 L22.8,5.9 L19.5,6.6 L19.5,-9.9 L23.3,-10.6 M7.8,9.1 L7.8,-7.5 L16.7,-9.3 L16.7,7.2 L7.8,9.1 "/>
<path class="Accidental" transform="matrix(2.3811,0,0,2.3811,2864.93,1540.63)" d="M23.3,-10.6 C23.9,-10.7 24.4,-11.4 24.4,-12 L24.4,-17.9 C24.4,-18.7 23.8,-19.3 23,-19.3 L22.8,-19.3 L19.5,-18.6 L19.5,-33.5 L16.7,-33.5 L16.7,-18 L7.8,-16.2 L7.8,-30.3 L5,-30.3 L5,-15.6 L1.1,-14.8 C0.5,-14.7 0,-14 0,-13.4 L0,-13.2 L0,-7.4 L0,-7.6 C0,-6.8 0.6,-6.2 1.4,-6.2 L1.7,-6.2 L5,-6.9 L5,9.6 L1.1,10.4 C0.5,10.5 0,11.2 0,11.8 L0,17.6 C0,18.4 0.6,19 1.4,19 L1.7,19 L5,18.3 L5,33.2 L7.8,33.2 L7.8,17.7 L16.7,15.9 L16.7,30 L19.5,30 L19.5,15.3 L23.3,14.6 C23.9,14.5 24.4,13.8 24.4,13.2 L24.4,7.3 C24.4,6.5 23.8,5.9 23,5.9 L22.8,5.9 L19.5,6.6 L19.5,-9.9 L23.3,-10.6 M7.8,9.1 L7.8,-7.5 L16.7,-9.3 L16.7,7.2 L7.8,9.1 "/>
<path class="Accidental" transform="matrix(2.3811,0,0,2.3811,2949.22,1451.34)" d="M23.3,-10.6 C23.9,-10.7 24.4,-11.4 24.4,-12 L24.4,-17.9 C24.4,-18.7 23.8,-19.3 23,-19.3 L22.8,-19.3 L19.5,-18.6 L19.5,-33.5 L16.7,-33.5 L16.7,-18 L7.8,-16.2 L7.8,-30.3 L5,-30.3 L5,-15.6 L1.1,-14.8 C0.5,-14.7 0,-14 0,-13.4 L0,-13.2 L0,-7.4 L0,-7.6 C0,-6.8 0.6,-6.2 1.4,-6.2 L1.7,-6.2 L5,-6.9 L5,9.6 L1.1,10.4 C0.5,10.5 0,11.2 0,11.8 L0,17.6 C0,18.4 0.6,19 1.4,19 L1.7,19 L5,18.3 L5,33.2 L7.8,33.2 L7.8,17.7 L16.7,15.9 L16.7,30 L19.5,30 L19.5,15.3 L23.3,14.6 C23.9,14.5 24.4,13.8 24.4,13.2 L24.4,7.3 C24.4,6.5 23.8,5.9 23,5.9 L22.8,5.9 L19.5,6.6 L19.5,-9.9 L23.3,-10.6 M7.8,9.1 L7.8,-7.5 L16.7,-9.3 L16.7,7.2 L7.8,9.1 "/>
<path class="Accidental" transform="matrix(2.3811,0,0,2.3811,3510.72,1540.63)" d="M23.3,-10.6 C23.9,-10.7 24.4,-11.4 24.4,-12 L24.4,-17.9 C24.4,-18.7 23.8,-19.3 23,-19.3 L22.8,-19.3 L19.5,-18.6 L19.5,-33.5 L16.7,-33.5 L16.7,-18 L7.8,-16.2 L7.8,-30.3 L5,-30.3 L5,-15.6 L1.1,-14.8 C0.5,-14.7 0,-14 0,-13.4 L0,-13.2 L0,-7.4 L0,-7.6 C0,-6.8 0.6,-6.2 1.4,-6.2 L1.7,-6.2 L5,-6.9 L5,9.6 L1.1,10.4 C0.5,10.5 0,11.2 0,11.8 L0,17.6 C0,18.4 0.6,19 1.4,19 L1.7,19 L5,18.3 L5,33.2 L7.8,33.2 L7.8,17.7 L16.7,15.9 L16.7,30 L19.5,30 L19.5,15.3 L23.3,14.6 C23.9,14.5 24.4,13.8 24.4,13.2 L24.4,7.3 C24.4,6.5 23.8,5.9 23,5.9 L22.8,5.9 L19.5,6.6 L19.5,-9.9 L23.3,-10.6 M7.8,9.1 L7.8,-7.5 L16.7,-9.3 L16.7,7.2 L7.8,9.1 "/>
<path class="Accidental" transform="matrix(2.3811,0,0,2.3811,3581.91,1451.34)" d="M23.3,-10.6 C23.9,-10.7 24.4,-11.4 24.4,-12 L24.4,-17.9 C24.4,-18.7 23.8,-19.3 23,-19.3 L22.8,-19.3 L19.5,-18.6 L19.5,-33.5 L16.7,-33.5 L16.7,-18 L7.8,-16.2 L7.8,-30.3 L5,-30.3 L5,-15.6 L1.1,-14.8 C0.5,-14.7 0,-14 0,-13.4 L0,-13.2 L0,-7.4 L0,-7.6 C0,-6.8 0.6,-6.2 1.4,-6.2 L1.7,-6.2 L5,-6.9 L5,9.6 L1.1,10.4 C0.5,10.5 0,11.2 0,11.8 L0,17.6 C0,18.4 0.6,19 1.4,19 L1.7,19 L5,18.3 L5,33.2 L7.8,33.2 L7.8,17.7 L16.7,15.9 L16.7,30 L19.5,30 L19.5,15.3 L23.3,14.6 C23.9,14.5 24.4,13.8 24.4,13.2 L24.4,7.3 C24.4,6.5 23.8,5.9 23,5.9 L22.8,5.9 L19.5,6.6 L19.5,-9.9 L23.3,-10.6 M7.8,9.1 L7.8,-7.5 L16.7,-9.3 L16.7,7.2 L7.8,9.1 "/>
<path class="Note" transform="matrix(2.3811,0,0,2.3811,592.053,2158.79)" d="M18.7,-13.6 C4.9,-13.6 0,-6.6 0,-0.1 C0,6.4 4.9,13.4 18.7,13.4 C32.5,13.4 37.3,6.4 37.3,-0.1 C37.3,-6.6 32.5,-13.6 18.7,-13.6 M10.4,-4.5 C10.3,-4.9 10.3,-5.3 10.3,-5.7 C10.3,-6.5 10.5,-7.3 10.9,-8 C11.6,-9 12.8,-9.7 14.3,-10 C15.6,-10.3 16.3,-10.5 18.9,-10.5 L19,-10.5 C23,-10.5 24.3,-6.8 25.4,-3 L25.7,-2 C26.5,0.6 26.9,2.8 26.9,4.5 C26.9,5.7 26.7,6.8 26.3,7.6 C25.7,8.7 24.7,9.4 23,9.8 C22.1,10 20.6,10.1 20.6,10.1 C20.1,10.1 19.7,10.2 19.3,10.2 C16.1,10.2 14.1,9 12.7,4.7 C11.5,1 11.3,-0.1 10.4,-4.5"/>
<path class="Note" transform="matrix(2.3811,0,0,2.3811,1212.06,2158.79)" d="M18.7,-13.6 C4.9,-13.6 0,-6.6 0,-0.1 C0,6.4 4.9,13.4 18.7,13.4 C32.5,13.4 37.3,6.4 37.3,-0.1 C37.3,-6.6 32.5,-13.6 18.7,-13.6 M10.4,-4.5 C10.3,-4.9 10.3,-5.3 10.3,-5.7 C10.3,-6.5 10.5,-7.3 10.9,-8 C11.6,-9 12.8,-9.7 14.3,-10 C15.6,-10.3 16.3,-10.5 18.9,-10.5 L19,-10.5 C23,-10.5 24.3,-6.8 25.4,-3 L25.7,-2 C26.5,0.6 26.9,2.8 26.9,4.5 C26.9,5.7 26.7,6.8 26.3,7.6 C25.7,8.7 24.7,9.4 23,9.8 C22.1,10 20.6,10.1 20.6,10.1 C20.1,10.1 19.7,10.2 19.3,10.2 C16.1,10.2 14.1,9 12.7,4.7 C11.5,1 11.3,-0.1 10.4,-4.5"/>
<path class="Note" transform="matrix(2.3811,0,0,2.3811,1793.62,2158.79)" d="M18.7,-13.6 C4.9,-13.6 0,-6.6 0,-0.1 C0,6.4 4.9,13.4 18.7,13.4 C32.5,13.4 37.3,6.4 37.3,-0.1 C37.3,-6.6 32.5,-13.6 18.7,-13.6 M10.4,-4.5 C10.3,-4.9 10.3,-5.3 10.3,-5.7 C10.3,-6.5 10.5,-7.3 10.9,-8 C11.6,-9 12.8,-9.7 14.3,-10 C15.6,-10.3 16.3,-10.5 18.9,-10.5 L19,-10.5 C23,-10.5 24.3,-6.8 25.4,-3 L25.7,-2 C26.5,0.6 26.9,2.8 26.9,4.5 C26.9,5.7 26.7,6.8 26.3,7.6 C25.7,8.7 24.7,9.4 23,9.8 C22.1,10 20.6,10.1 20.6,10.1 C20.1,10.1 19.7,10.2 19.3,10.2 C16.1,10.2 14.1,9 12.7,4.7 C11.5,1 11.3,-0.1 10.4,-4.5"/>
<path class="Note" transform="matrix(2.3811,0,0,2.3811,2355.11,2158.79)" d="M18.7,-13.6 C4.9,-13.6 0,-6.6 0,-0.1 C0,6.4 4.9,13.4 18.7,13.4 C32.5,13.4 37.3,6.4 37.3,-0.1 C37.3,-6.6 32.5,-13.6 18.7,-13.6 M10.4,-4.5 C10.3,-4.9 10.3,-5.3 10.3,-5.7 C10.3,-6.5 10.5,-7.3 10.9,-8 C11.6,-9 12.8,-9.7 14.3,-10 C15.6,-10.3 16.3,-10.5 18.9,-10.5 L19,-10.5 C23,-10.5 24.3,-6.8 25.4,-3 L25.7,-2 C26.5,0.6 26.9,2.8 26.9,4.5 C26.9,5.7 26.7,6.8 26.3,7.6 C25.7,8.7 24.7,9.4 23,9.8 C22.1,10 20.6,10.1 20.6,10.1 C20.1,10.1 19.7,10.2 19.3,10.2 C16.1,10.2 14.1,9 12.7,4.7 C11.5,1 11.3,-0.1 10.4,-4.5"/>
<path class="Note" transform="matrix(2.3811,0,0,2.3811,3022.2,2158.79)" d="M18.7,-13.6 C4.9,-13.6 0,-6.6 0,-0.1 C0,6.4 4.9,13.4 18.7,13.4 C32.5,13.4 37.3,6.4 37.3,-0.1 C37.3,-6.6 32.5,-13.6 18.7,-13.6 M10.4,-4.5 C10.3,-4.9 10.3,-5.3 10.3,-5.7 C10.3,-6.5 10.5,-7.3 10.9,-8 C11.6,-9 12.8,-9.7 14.3,-10 C15.6,-10.3 16.3,-10.5 18.9,-10.5 L19,-10.5 C23,-10.5 24.3,-6.8 25.4,-3 L25.7,-2 C26.5,0.6 26.9,2.8 26.9,4.5 C26.9,5.7 26.7,6.8 26.3,7.6 C25.7,8.7 24.7,9.4 23,9.8 C22.1,10 20.6,10.1 20.6,10.1 C20.1,10.1 19.7,10.2 19.3,10.2 C16.1,10.2 14.1,9 12.7,4.7 C11.5,1 11.3,-0.1 10.4,-4.5"/>
<path class="Note" transform="matrix(2.3811,0,0,2.3811,3654.89,2158.79)" d="M18.7,-13.6 C4.9,-13.6 0,-6.6 0,-0.1 C0,6.4 4.9,13.4 18.7,13.4 C32.5,13.4 37.3,6.4 37.3,-0.1 C37.3,-6.6 32.5,-13.6 18.7,-13.6 M10.4,-4.5 C10.3,-4.9 10.3,-5.3 10.3,-5.7 C10.3,-6.5 10.5,-7.3 10.9,-8 C11.6,-9 12.8,-9.7 14.3,-10 C15.6,-10.3 16.3,-10.5 18.9,-10.5 L19,-10.5 C23,-10.5 24.3,-6.8 25.4,-3 L25.7,-2 C26.5,0.6 26.9,2.8 26.9,4.5 C26.9,5.7 26.7,6.8 26.3,7.6 C25.7,8.7 24.7,9.4 23,9.8 C22.1,10 20.6,10.1 20.6,10.1 C20.1,10.1 19.7,10.2 19.3,10.2 C16.1,10.2 14.1,9 12.7,4.7 C11.5,1 11.3,-0.1 10.4,-4.5"/>
<path class="Note" transform="matrix(2.3811,0,0,2.3811,592.053,1451.34)" d="M18.7,-13.6 C4.9,-13.6 0,-6.6 0,-0.1 C0,6.4 4.9,13.4 18.7,13.4 C32.5,13.4 37.3,6.4 37.3,-0.1 C37.3,-6.6 32.5,-13.6 18.7,-13.6 M10.4,-4.5 C10.3,-4.9 10.3,-5.3 10.3,-5.7 C10.3,-6.5 10.5,-7.3 10.9,-8 C11.6,-9 12.8,-9.7 14.3,-10 C15.6,-10.3 16.3,-10.5 18.9,-10.5 L19,-10.5 C23,-10.5 24.3,-6.8 25.4,-3 L25.7,-2 C26.5,0.6 26.9,2.8 26.9,4.5 C26.9,5.7 26.7,6.8 26.3,7.6 C25.7,8.7 24.7,9.4 23,9.8 C22.1,10 20.6,10.1 20.6,10.1 C20.1,10.1 19.7,10.2 19.3,10.2 C16.1,10.2 14.1,9 12.7,4.7 C11.5,1 11.3,-0.1 10.4,-4.5"/>
<path class="Note" transform="matrix(2.3811,0,0,2.3811,592.053,1391.81)" d="M18.7,-13.6 C4.9,-13.6 0,-6.6 0,-0.1 C0,6.4 4.9,13.4 18.7,13.4 C32.5,13.4 37.3,6.4 37.3,-0.1 C37.3,-6.6 32.5,-13.6 18.7,-13.6 M10.4,-4.5 C10.3,-4.9 10.3,-5.3 10.3,-5.7 C10.3,-6.5 10.5,-7.3 10.9,-8 C11.6,-9 12.8,-9.7 14.3,-10 C15.6,-10.3 16.3,-10.5 18.9,-10.5 L19,-10.5 C23,-10.5 24.3,-6.8 25.4,-3 L25.7,-2 C26.5,0.6 26.9,2.8 26.9,4.5 C26.9,5.7 26.7,6.8 26.3,7.6 C25.7,8.7 24.7,9.4 23,9.8 C22.1,10 20.6,10.1 20.6,10.1 C20.1,10.1 19.7,10.2 19.3,10.2 C16.1,10.2 14.1,9 12.7,4.7 C11.5,1 11.3,-0.1 10.4,-4.5"/>
<path class="Note" transform="matrix(2.3811,0,0,2.3811,1212.06,1451.34)" d="M18.7,-13.6 C4.9,-13.6 0,-6.6 0,-0.1 C0,6.4 4.9,13.4 18.7,13.4 C32.5,13.4 37.3,6.4 37.3,-0.1 C37.3,-6.6 32.5,-13.6 18.7,-13.6 M10.4,-4.5 C10.3,-4.9 10.3,-5.3 10.3,-5.7 C10.3,-6.5 10.5,-7.3 10.9,-8 C11.6,-9 12.8,-9.7 14.3,-10 C15.6,-10.3 16.3,-10.5 18.9,-10.5 L19,-10.5 C23,-10.5 24.3,-6.8 25.4,-3 L25.7,-2 C26.5,0.6 26.9,2.8 26.9,4.5 C26.9,5.7 26.7,6.8 26.3,7.6 C25.7,8.7 24.7,9.4 23,9.8 C22.1,10 20.6,10.1 20.6,10.1 C20.1,10.1 19.7,10.2 19.3,10.2 C16.1,10.2 14.1,9 12.7,4.7 C11.5,1 11.3,-0.1 10.4,-4.5"/>
<path class="Note" transform="matrix(2.3811,0,0,2.3811,1212.06,1391.81)" d="M18.7,-13.6 C4.9,-13.6 0,-6.6 0,-0.1 C0,6.4 4.9,13.4 18.7,13.4 C32.5,13.4 37.3,6.4 37.3,-0.1 C37.3,-6.6 32.5,-13.6 18.7,-13.6 M10.4,-4.5 C10.3,-4.9 10.3,-5.3 10.3,-5.7 C10.3,-6.5 10.5,-7.3 10.9,-8 C11.6,-9 12.8,-9.7 14.3,-10 C15.6,-10.3 16.3,-10.5 18.9,-10.5 L19,-10.5 C23,-10.5 24.3,-6.8 25.4,-3 L25.7,-2 C26.5,0.6 26.9,2.8 26.9,4.5 C26.9,5.7 26.7,6.8 26.3,7.6 C25.7,8.7 24.7,9.4 23,9.8 C22.1,10 20.6,10.1 20.6,10.1 C20.1,10.1 19.7,10.2 19.3,10.2 C16.1,10.2 14.1,9 12.7,4.7 C11.5,1 11.3,-0.1 10.4,-4.5"/>
<path class="Note" transform="matrix(2.3811,0,0,2.3811,1793.62,1600.16)" d="M18.7,-13.6 C4.9,-13.6 0,-6.6 0,-0.1 C0,6.4 4.9,13.4 18.7,13.4 C32.5,13.4 37.3,6.4 37.3,-0.1 C37.3,-6.6 32.5,-13.6 18.7,-13.6 M10.4,-4.5 C10.3,-4.9 10.3,-5.3 10.3,-5.7 C10.3,-6.5 10.5,-7.3 10.9,-8 C11.6,-9 12.8,-9.7 14.3,-10 C15.6,-10.3 16.3,-10.5 18.9,-10.5 L19,-10.5 C23,-10.5 24.3,-6.8 25.4,-3 L25.7,-2 C26.5,0.6 26.9,2.8 26.9,4.5 C26.9,5.7 26.7,6.8 26.3,7.6 C25.7,8.7 24.7,9.4 23,9.8 C22.1,10 20.6,10.1 20.6,10.1 C20.1,10.1 19.7,10.2 19.3,10.2 C16.1,10.2 14.1,9 12.7,4.7 C11.5,1 11.3,-0.1 10.4,-4.5"/>
<path class="Note" transform="matrix(2.3811,0,0,2.3811,1793.62,1540.63)" d="M18.7,-13.6 C4.9,-13.6 0,-6.6 0,-0.1 C0,6.4 4.9,13.4 18.7,13.4 C32.5,13.4 37.3,6.4 37.3,-0.1 C37.3,-6.6 32.5,-13.6 18.7,-13.6 M10.4,-4.5 C10.3,-4.9 10.3,-5.3 10.3,-5.7 C10.3,-6.5 10.5,-7.3 10.9,-8 C11.6,-9 12.8,-9.7 14.3,-10 C15.6,-10.3 16.3,-10.5 18.9,-10.5 L19,-10.5 C23,-10.5 24.3,-6.8 25.4,-3 L25.7,-2 C26.5,0.6 26.9,2.8 26.9,4.5 C26.9,5.7 26.7,6.8 26.3,7.6 C25.7,8.7 24.7,9.4 23,9.8 C22.1,10 20.6,10.1 20.6,10.1 C20.1,10.1 19.7,10.2 19.3,10.2 C16.1,10.2 14.1,9 12.7,4.7 C11.5,1 11.3,-0.1 10.4,-4.5"/>
<path class="Note" transform="matrix(2.3811,0,0,2.3811,1793.62,1451.34)" d="M18.7,-13.6 C4.9,-13.6 0,-6.6 0,-0.1 C0,6.4 4.9,13.4 18.7,13.4 C32.5,13.4 37.3,6.4 37.3,-0.1 C37.3,-6.6 32.5,-13.6 18.7,-13.6 M10.4,-4.5 C10.3,-4.9 10.3,-5.3 10.3,-5.7 C10.3,-6.5 10.5,-7.3 10.9,-8 C11.6,-9 12.8,-9.7 14.3,-10 C15.6,-10.3 16.3,-10.5 18.9,-10.5 L19,-10.5 C23,-10.5 24.3,-6.8 25.4,-3 L25.7,-2 C26.5,0.6 26.9,2.8 26.9,4.5 C26.9,5.7 26.7,6.8 26.3,7.6 C25.7,8.7 24.7,9.4 23,9.8 C22.1,10 20.6,10.1 20.6,10.1 C20.1,10.1 19.7,10.2 19.3,10.2 C16.1,10.2 14.1,9 12.7,4.7 C11.5,1 11.3,-0.1 10.4,-4.5"/>
<path class="Note" transform="matrix(2.3811,0,0,2.3811,2355.11,1540.63)" d="M18.7,-13.6 C4.9,-13.6 0,-6.6 0,-0.1 C0,6.4 4.9,13.4 18.7,13.4 C32.5,13.4 37.3,6.4 37.3,-0.1 C37.3,-6.6 32.5,-13.6 18.7,-13.6 M10.4,-4.5 C10.3,-4.9 10.3,-5.3 10.3,-5.7 C10.3,-6.5 10.5,-7.3 10.9,-8 C11.6,-9 12.8,-9.7 14.3,-10 C15.6,-10.3 16.3,-10.5 18.9,-10.5 L19,-10.5 C23,-10.5 24.3,-6.8 25.4,-3 L25.7,-2 C26.5,0.6 26.9,2.8 26.9,4.5 C26.9,5.7 26.7,6.8 26.3,7.6 C25.7,8.7 24.7,9.4 23,9.8 C22.1,10 20.6,10.1 20.6,10.1 C20.1,10.1 19.7,10.2 19.3,10.2 C16.1,10.2 14.1,9 12.7,4.7 C11.5,1 11.3,-0.1 10.4,-4.5"/>
<path class="Note" transform="matrix(2.3811,0,0,2.3811,2355.11,1451.34)" d="M18.7,-13.6 C4.9,-13.6 0,-6.6 0,-0.1 C0,6.4 4.9,13.4 18.7,13.4 C32.5,13.4 37.3,6.4 37.3,-0.1 C37.3,-6.6 32.5,-13.6 18.7,-13.6 M10.4,-4.5 C10.3,-4.9 10.3,-5.3 10.3,-5.7 C10.3,-6.5 10.5,-7.3 10.9,-8 C11.6,-9 12.8,-9.7 14.3,-10 C15.6,-10.3 16.3,-10.5 18.9,-10.5 L19,-10.5 C23,-10.5 24.3,-6.8 25.4,-3 L25.7,-2 C26.5,0.6 26.9,2.8 26.9,4.5 C26.9,5.7 26.7,6.8 26.3,7.6 C25.7,8.7 24.7,9.4 23,9.8 C22.1,10 20.6,10.1 20.6,10.1 C20.1,10.1 19.7,10.2 19.3,10.2 C16.1,10.2 14.1,9 12.7,4.7 C11.5,1 11.3,-0.1 10.4,-4.5"/>
<path class="Note" transform="matrix(2.3811,0,0,2.3811,3022.2,1600.16)" d="M18.7,-13.6 C4.9,-13.6 0,-6.6 0,-0.1 C0,6.4 4.9,13.4 18.7,13.4 C32.5,13.4 37.3,6.4 37.3,-0.1 C37.3,-6.6 32.5,-13.6 18.7,-13.6 M10.4,-4.5 C10.3,-4.9 10.3,-5.3 10.3,-5.7 C10.3,-6.5 10.5,-7.3 10.9,-8 C11.6,-9 12.8,-9.7 14.3,-10 C15.6,-10.3 16.3,-10.5 18.9,-10.5 L19,-10.5 C23,-10.5 24.3,-6.8 25.4,-3 L25.7,-2 C26.5,0.6 26.9,2.8 26.9,4.5 C26.9,5.7 26.7,6.8 26.3,7.6 C25.7,8.7 24.7,9.4 23,9.8 C22.1,10 20.6,10.1 20.6,10.1 C20.1,10.1 19.7,10.2 19.3,10.2 C16.1,10.2 14.1,9 12.7,4.7 C11.5,1 11.3,-0.1 10.4,-4.5"/>
<path class="Note" transform="matrix(2.3811,0,0,2.3811,3022.2,1540.63)" d="M18.7,-13.6 C4.9,-13.6 0,-6.6 0,-0.1 C0,6.4 4.9,13.4 18.7,13.4 C32.5,13.4 37.3,6.4 37.3,-0.1 C37.3,-6.6 32.5,-13.6 18.7,-13.6 M10.4,-4.5 C10.3,-4.9 10.3,-5.3 10.3,-5.7 C10.3,-6.5 10.5,-7.3 10.9,-8 C11.6,-9 12.8,-9.7 14.3,-10 C15.6,-10.3 16.3,-10.5 18.9,-10.5 L19,-10.5 C23,-10.5 24.3,-6.8 25.4,-3 L25.7,-2 C26.5,0.6 26.9,2.8 26.9,4.5 C26.9,5.7 26.7,6.8 26.3,7.6 C25.7,8.7 24.7,9.4 23,9.8 C22.1,10 20.6,10.1 20.6,10.1 C20.1,10.1 19.7,10.2 19.3,10.2 C16.1,10.2 14.1,9 12.7,4.7 C11.5,1 11.3,-0.1 10.4,-4.5"/>
<path class="Note" transform="matrix(2.3811,0,0,2.3811,3022.2,1451.34)" d="M18.7,-13.6 C4.9,-13.6 0,-6.6 0,-0.1 C0,6.4 4.9,13.4 18.7,13.4 C32.5,13.4 37.3,6.4 37.3,-0.1 C37.3,-6.6 32.5,-13.6 18.7,-13.6 M10.4,-4.5 C10.3,-4.9 10.3,-5.3 10.3,-5.7 C10.3,-6.5 10.5,-7.3 10.9,-8 C11.6,-9 12.8,-9.7 14.3,-10 C15.6,-10.3 16.3,-10.5 18.9,-10.5 L19,-10.5 C23,-10.5 24.3,-6.8 25.4,-3 L25.7,-2 C26.5,0.6 26.9,2.8 26.9,4.5 C26.9,5.7 26.7,6.8 26.3,7.6 C25.7,8.7 24.7,9.4 23,9.8 C22.1,10 20.6,10.1 20.6,10.1 C20.1,10.1 19.7,10.2 19.3,10.2 C16.1,10.2 14.1,9 12.7,4.7 C11.5,1 11.3,-0.1 10.4,-4.5"/>
<path class="Note" transform="matrix(2.3811,0,0,2.3811,3654.89,1540.63)" d="M18.7,-13.6 C4.9,-13.6 0,-6.6 0,-0.1 C0,6.4 4.9,13.4 18.7,13.4 C32.5,13.4 37.3,6.4 37.3,-0.1 C37.3,-6.6 32.5,-13.6 18.7,-13.6 M10.4,-4.5 C10.3,-4.9 10.3,-5.3 10.3,-5.7 C10.3,-6.5 10.5,-7.3 10.9,-8 C11.6,-9 12.8,-9.7 14.3,-10 C15.6,-10.3 16.3,-10.5 18.9,-10.5 L19,-10.5 C23,-10.5 24.3,-6.8 25.4,-3 L25.7,-2 C26.5,0.6 26.9,2.8 26.9,4.5 C26.9,5.7 26.7,6.8 26.3,7.6 C25.7,8.7 24.7,9.4 23,9.8 C22.1,10 20.6,10.1 20.6,10.1 C20.1,10.1 19.7,10.2 19.3,10.2 C16.1,10.2 14.1,9 12.7,4.7 C11.5,1 11.3,-0.1 10.4,-4.5"/>
<path class="Note" transform="matrix(2.3811,0,0,2.3811,3654.89,1451.34)" d="M18.7,-13.6 C4.9,-13.6 0,-6.6 0,-0.1 C0,6.4 4.9,13.4 18.7,13.4 C32.5,13.4 37.3,6.4 37.3,-0.1 C37.3,-6.6 32.5,-13.6 18.7,-13.6 M10.4,-4.5 C10.3,-4.9 10.3,-5.3 10.3,-5.7 C10.3,-6.5 10.5,-7.3 10.9,-8 C11.6,-9 12.8,-9.7 14.3,-10 C15.6,-10.3 16.3,-10.5 18.9,-10.5 L19,-10.5 C23,-10.5 24.3,-6.8 25.4,-3 L25.7,-2 C26.5,0.6 26.9,2.8 26.9,4.5 C26.9,5.7 26.7,6.8 26.3,7.6 C25.7,8.7 24.7,9.4 23,9.8 C22.1,10 20.6,10.1 20.6,10.1 C20.1,10.1 19.7,10.2 19.3,10.2 C16.1,10.2 14.1,9 12.7,4.7 C11.5,1 11.3,-0.1 10.4,-4.5"/>
<path class="Note" d="M706.665,884.145 C700.313,894.139 690.28,902.429 676.567,909.014 C664.636,914.748 653.48,917.614 643.098,917.614 C634.808,917.614 627.913,915.948 622.413,912.617 C616.447,908.976 613.464,904.637 613.464,899.601 C613.464,888.213 616.447,878.412 622.413,870.2 C630.547,859.044 638.76,853.466 647.049,853.466 C652.937,853.466 657.121,854.628 659.6,856.952 C663.009,859.973 664.713,864.118 664.713,869.387 C664.713,876.824 659.174,883.293 648.095,888.794 C637.326,894.139 629.85,897.626 625.666,899.253 C626.596,901.19 627.797,902.933 629.269,904.482 C632.91,908.356 637.869,910.293 644.144,910.293 C652.046,910.293 662.66,907.388 675.986,901.577 C688.769,895.921 698.996,890.111 706.665,884.145 M624.039,893.907 C629.85,890.963 635.157,887.515 639.96,883.564 C647.088,877.754 650.652,871.478 650.652,864.738 C650.652,860.942 648.909,859.044 645.422,859.044 C642.478,859.044 638.45,862.414 633.336,869.154 C626.906,877.521 623.691,884.339 623.691,889.607 C623.691,891.079 623.807,892.513 624.039,893.907"/>
<path class="Note" d="M685.747,471.896 C690.086,468.952 693.224,466.512 695.161,464.575 C698.724,460.778 700.506,457.292 700.506,454.116 C700.506,450.474 698.492,448.654 694.463,448.654 C686.638,448.654 678.271,455.549 669.362,469.339 C666.65,473.523 660.685,487.158 651.465,510.246 C658.825,517.838 662.505,522.138 662.505,523.145 C662.505,524.54 661.614,525.237 659.832,525.237 C658.438,525.237 654.603,522.874 648.328,518.148 C641.51,534.03 631.167,547.588 617.299,558.822 C603.122,570.288 586.193,576.021 566.515,576.021 C559,576.021 549.587,574.278 538.276,570.791 C529.211,568.002 524.679,563.548 524.679,557.427 C524.679,548.363 528.165,543.831 535.138,543.831 C539.322,543.831 541.413,545.767 541.413,549.641 C541.413,550.881 540.445,552.198 538.508,553.592 C537.501,554.29 536.997,555.645 536.997,557.66 C536.997,560.061 539.67,562.541 545.016,565.097 C550.827,567.886 559.349,569.281 570.582,569.281 C585.07,569.281 599.054,563.005 612.535,550.455 C624.775,539.066 633.569,525.818 638.914,510.71 C636.823,509.006 634.576,507.147 632.174,505.132 C624.737,500.716 621.018,496.184 621.018,491.536 C621.018,489.599 622.296,488.63 624.853,488.63 C628.262,488.63 632.872,491.536 638.682,497.346 C639.922,498.586 641.084,499.748 642.168,500.832 C644.88,493.395 649.219,483.943 655.184,472.477 C665.953,451.714 679.046,441.332 694.463,441.332 C699.964,441.332 704.302,442.378 707.479,444.47 C710.655,446.562 712.244,449.429 712.244,453.07 C712.244,458.88 710.113,463.8 705.852,467.829 C701.436,472.012 696.826,474.104 692.023,474.104 C687.839,474.104 685.747,473.368 685.747,471.896"/>
<path class="Note" d="M613.116,731.826 C608.932,731.826 606.84,729.928 606.84,726.132 C606.84,719.702 607.809,714.976 609.746,711.954 C617.803,700.023 635.312,677.711 662.273,645.017 C674.436,630.219 690.125,622.82 709.338,622.82 C716.776,622.82 721.928,623.866 724.794,625.958 C729.21,629.212 731.418,633.124 731.418,637.695 C731.418,642.499 727.545,647.845 719.797,653.733 C712.437,659.311 705.465,662.1 698.879,662.1 C696.323,662.1 695.044,661.829 695.044,661.286 C695.044,660.512 696.284,659.698 698.763,658.846 C702.094,657.606 705.658,655.088 709.455,651.292 C713.793,646.876 715.962,642.886 715.962,639.322 C715.962,636.921 714.297,634.635 710.965,632.466 C708.021,630.607 703.257,629.677 696.671,629.677 C687.065,629.677 674.94,639.361 660.297,658.73 C650.536,671.668 642.633,683.056 636.59,692.896 C639.534,691.269 643.059,689.293 647.165,686.969 C652.201,684.102 656.54,682.669 660.181,682.669 C669.246,682.669 673.778,685.923 673.778,692.431 C673.778,698.861 670.059,705.911 662.622,713.581 C657.353,719.004 654.719,723.033 654.719,725.667 C654.719,728.379 657.353,729.735 662.622,729.735 C665.256,729.735 667.967,728.805 670.756,726.945 C673.545,725.164 675.598,724.273 676.915,724.273 C678,724.273 678.542,724.97 678.542,726.364 C678.542,728.611 676.373,730.974 672.035,733.453 C664.752,737.637 658.903,739.729 654.487,739.729 C646.662,739.729 642.749,735.545 642.749,727.178 C642.749,721.91 645.771,716.06 651.814,709.63 C656.23,704.904 658.438,700.217 658.438,695.568 C658.438,691.54 656.269,689.526 651.93,689.526 C650.226,689.526 644.57,691.54 634.963,695.568 C632.097,700.372 629.695,704.788 627.758,708.817 C620.398,724.156 615.517,731.826 613.116,731.826"/>
<path class="Note" d="M1326.67,884.145 C1320.32,894.139 1310.29,902.429 1296.58,909.014 C1284.64,914.748 1273.49,917.614 1263.11,917.614 C1254.82,917.614 1247.92,915.948 1242.42,912.617 C1236.46,908.976 1233.47,904.637 1233.47,899.601 C1233.47,888.213 1236.46,878.412 1242.42,870.2 C1250.56,859.044 1258.77,853.466 1267.06,853.466 C1272.95,853.466 1277.13,854.628 1279.61,856.952 C1283.02,859.973 1284.72,864.118 1284.72,869.387 C1284.72,876.824 1279.18,883.293 1268.1,888.794 C1257.33,894.139 1249.86,897.626 1245.67,899.253 C1246.6,901.19 1247.81,902.933 1249.28,904.482 C1252.92,908.356 1257.88,910.293 1264.15,910.293 C1272.05,910.293 1282.67,907.388 1295.99,901.577 C1308.78,895.921 1319,890.111 1326.67,884.145 M1244.05,893.907 C1249.86,890.963 1255.17,887.515 1259.97,883.564 C1267.1,877.754 1270.66,871.478 1270.66,864.738 C1270.66,860.942 1268.92,859.044 1265.43,859.044 C1262.49,859.044 1258.46,862.414 1253.34,869.154 C1246.91,877.521 1243.7,884.339 1243.7,889.607 C1243.7,891.079 1243.82,892.513 1244.05,893.907"/>
<path class="Note" d="M1304.94,495.487 C1304.94,504.396 1294.79,523.958 1274.49,554.173 C1266.44,566.182 1254.86,574.975 1239.75,580.553 C1228.59,584.737 1215.69,586.829 1201.05,586.829 C1196.32,586.829 1192.14,585.86 1188.5,583.923 C1184.47,581.832 1182.46,579.546 1182.46,577.067 C1182.46,570.637 1185.9,567.421 1192.8,567.421 C1193.81,567.421 1194.31,568.041 1194.31,569.281 C1194.31,570.365 1193.81,571.566 1192.8,572.883 C1191.56,574.51 1190.94,575.711 1190.94,576.486 C1190.94,578.81 1194.43,579.972 1201.4,579.972 C1217.05,579.972 1229.41,578.074 1238.47,574.278 C1247.92,570.404 1257.33,560.526 1266.71,544.644 L1269.38,539.647 C1264.89,543.056 1260.43,544.76 1256.02,544.76 C1245.02,544.76 1239.52,540.305 1239.52,531.396 C1239.52,521.789 1245.98,511.679 1258.92,501.065 C1269.07,492.853 1278.1,488.747 1286,488.747 C1289.95,488.747 1293.24,489.792 1295.88,491.884 C1296.81,491.187 1297.97,490.838 1299.36,490.838 C1303.08,490.838 1304.94,492.388 1304.94,495.487 M1270.78,537.207 L1292.74,496.649 C1291.04,496.262 1289.14,496.068 1287.05,496.068 C1279.53,496.068 1272.25,500.445 1265.2,509.2 C1256.99,519.426 1252.88,527.6 1252.88,533.72 C1252.88,537.749 1255.55,539.763 1260.9,539.763 C1263.45,539.763 1266.75,538.911 1270.78,537.207"/>
<path class="Note" d="M1233.12,731.826 C1228.94,731.826 1226.85,729.928 1226.85,726.132 C1226.85,719.702 1227.82,714.976 1229.75,711.954 C1237.81,700.023 1255.32,677.711 1282.28,645.017 C1294.44,630.219 1310.13,622.82 1329.35,622.82 C1336.78,622.82 1341.94,623.866 1344.8,625.958 C1349.22,629.212 1351.43,633.124 1351.43,637.695 C1351.43,642.499 1347.55,647.845 1339.81,653.733 C1332.45,659.311 1325.47,662.1 1318.89,662.1 C1316.33,662.1 1315.05,661.829 1315.05,661.286 C1315.05,660.512 1316.29,659.698 1318.77,658.846 C1322.1,657.606 1325.67,655.088 1329.46,651.292 C1333.8,646.876 1335.97,642.886 1335.97,639.322 C1335.97,636.921 1334.3,634.635 1330.97,632.466 C1328.03,630.607 1323.26,629.677 1316.68,629.677 C1307.07,629.677 1294.95,639.361 1280.31,658.73 C1270.54,671.668 1262.64,683.056 1256.6,692.896 C1259.54,691.269 1263.07,689.293 1267.17,686.969 C1272.21,684.102 1276.55,682.669 1280.19,682.669 C1289.25,682.669 1293.79,685.923 1293.79,692.431 C1293.79,698.861 1290.07,705.911 1282.63,713.581 C1277.36,719.004 1274.73,723.033 1274.73,725.667 C1274.73,728.379 1277.36,729.735 1282.63,729.735 C1285.26,729.735 1287.98,728.805 1290.76,726.945 C1293.55,725.164 1295.61,724.273 1296.92,724.273 C1298.01,724.273 1298.55,724.97 1298.55,726.364 C1298.55,728.611 1296.38,730.974 1292.04,733.453 C1284.76,737.637 1278.91,739.729 1274.49,739.729 C1266.67,739.729 1262.76,735.545 1262.76,727.178 C1262.76,721.91 1265.78,716.06 1271.82,709.63 C1276.24,704.904 1278.45,700.217 1278.45,695.568 C1278.45,691.54 1276.28,689.526 1271.94,689.526 C1270.23,689.526 1264.58,691.54 1254.97,695.568 C1252.11,700.372 1249.7,704.788 1247.77,708.817 C1240.41,724.156 1235.53,731.826 1233.12,731.826"/>
<path class="Note" d="M1828.16,642.535 C1824.37,642.535 1822.47,638.468 1822.47,630.333 L1822.47,596.283 C1822.47,593.029 1824.06,591.402 1827.23,591.402 C1828.63,591.402 1829.67,591.518 1830.37,591.751 C1832.85,587.412 1836.92,583.771 1842.57,580.827 C1850.47,576.721 1858.49,574.668 1866.63,574.668 C1873.06,574.668 1876.27,577.069 1876.27,581.873 C1876.27,585.902 1874.1,587.916 1869.77,587.916 C1866.67,587.916 1863.72,587.219 1860.93,585.824 C1858.45,584.584 1855.82,583.965 1853.03,583.965 C1848.23,583.965 1841.14,587.102 1831.76,593.378 C1833.08,599.653 1833.74,606.974 1833.74,615.342 C1833.74,633.471 1831.88,642.535 1828.16,642.535"/>
<path class="Note" d="M1908.23,884.145 C1901.88,894.139 1891.85,902.429 1878.13,909.014 C1866.2,914.748 1855.04,917.614 1844.66,917.614 C1836.37,917.614 1829.48,915.948 1823.98,912.617 C1818.01,908.976 1815.03,904.637 1815.03,899.601 C1815.03,888.213 1818.01,878.412 1823.98,870.2 C1832.11,859.044 1840.32,853.466 1848.61,853.466 C1854.5,853.466 1858.69,854.628 1861.17,856.952 C1864.57,859.973 1866.28,864.118 1866.28,869.387 C1866.28,876.824 1860.74,883.293 1849.66,888.794 C1838.89,894.139 1831.42,897.626 1827.23,899.253 C1828.16,901.19 1829.36,902.933 1830.83,904.482 C1834.48,908.356 1839.43,910.293 1845.71,910.293 C1853.61,910.293 1864.23,907.388 1877.55,901.577 C1890.33,895.921 1900.56,890.111 1908.23,884.145 M1825.6,893.907 C1831.42,890.963 1836.72,887.515 1841.53,883.564 C1848.65,877.754 1852.22,871.478 1852.22,864.738 C1852.22,860.942 1850.47,859.044 1846.99,859.044 C1844.04,859.044 1840.02,862.414 1834.9,869.154 C1828.47,877.521 1825.26,884.339 1825.26,889.607 C1825.26,891.079 1825.37,892.513 1825.6,893.907"/>
<path class="Note" d="M1828.16,821.118 C1824.37,821.118 1822.47,817.05 1822.47,808.916 L1822.47,774.866 C1822.47,771.612 1824.06,769.985 1827.23,769.985 C1828.63,769.985 1829.67,770.101 1830.37,770.333 C1832.85,765.995 1836.92,762.354 1842.57,759.41 C1850.47,755.304 1858.49,753.25 1866.63,753.25 C1873.06,753.25 1876.27,755.652 1876.27,760.456 C1876.27,764.484 1874.1,766.499 1869.77,766.499 C1866.67,766.499 1863.72,765.801 1860.93,764.407 C1858.45,763.167 1855.82,762.547 1853.03,762.547 C1848.23,762.547 1841.14,765.685 1831.76,771.96 C1833.08,778.236 1833.74,785.557 1833.74,793.924 C1833.74,812.053 1831.88,821.118 1828.16,821.118"/>
<path class="Note" d="M1761.35,677.207 C1761.66,665.509 1768.13,655.127 1780.76,646.063 C1791.99,638.005 1804.27,633.977 1817.6,633.977 C1836.27,633.977 1852.73,641.298 1866.99,655.941 C1876.05,665.315 1880.58,676.936 1880.58,690.804 C1880.58,703.277 1877.25,712.845 1870.59,719.508 C1862.45,727.72 1853.85,731.826 1844.79,731.826 C1838.59,731.826 1833.79,730.432 1830.38,727.643 C1824.8,723.072 1822.01,716.951 1822.01,709.281 C1822.01,699.365 1826.97,690.3 1836.89,682.088 C1845.02,675.348 1853.19,670.932 1861.41,668.84 C1859.24,665.121 1856.49,661.635 1853.16,658.381 C1842.77,648.232 1831,643.157 1817.83,643.157 C1804.11,643.157 1792.76,646.14 1783.78,652.106 C1774.48,658.226 1767,666.593 1761.35,677.207 M1864.31,674.999 C1860.05,678.95 1855.79,683.173 1851.53,687.666 C1843.16,696.498 1838.98,704.865 1838.98,712.768 C1838.98,721.212 1840.92,725.435 1844.79,725.435 C1848.28,725.435 1853.16,720.67 1859.43,711.141 C1864.47,703.548 1866.99,696.576 1866.99,690.223 C1866.99,684.8 1866.09,679.725 1864.31,674.999"/>
<path class="Note" d="M2469.73,884.145 C2463.37,894.139 2453.34,902.429 2439.63,909.014 C2427.7,914.748 2416.54,917.614 2406.16,917.614 C2397.87,917.614 2390.97,915.948 2385.47,912.617 C2379.51,908.976 2376.53,904.637 2376.53,899.601 C2376.53,888.213 2379.51,878.412 2385.47,870.2 C2393.61,859.044 2401.82,853.466 2410.11,853.466 C2416,853.466 2420.18,854.628 2422.66,856.952 C2426.07,859.973 2427.78,864.118 2427.78,869.387 C2427.78,876.824 2422.24,883.293 2411.16,888.794 C2400.39,894.139 2392.91,897.626 2388.73,899.253 C2389.66,901.19 2390.86,902.933 2392.33,904.482 C2395.97,908.356 2400.93,910.293 2407.21,910.293 C2415.11,910.293 2425.72,907.388 2439.05,901.577 C2451.83,895.921 2462.06,890.111 2469.73,884.145 M2387.1,893.907 C2392.91,890.963 2398.22,887.515 2403.02,883.564 C2410.15,877.754 2413.71,871.478 2413.71,864.738 C2413.71,860.942 2411.97,859.044 2408.48,859.044 C2405.54,859.044 2401.51,862.414 2396.4,869.154 C2389.97,877.521 2386.75,884.339 2386.75,889.607 C2386.75,891.079 2386.87,892.513 2387.1,893.907"/>
<path class="Note" d="M2389.66,821.118 C2385.86,821.118 2383.96,817.05 2383.96,808.916 L2383.96,774.866 C2383.96,771.612 2385.55,769.985 2388.73,769.985 C2390.12,769.985 2391.17,770.101 2391.87,770.333 C2394.35,765.995 2398.41,762.354 2404.07,759.41 C2411.97,755.304 2419.99,753.25 2428.12,753.25 C2434.55,753.25 2437.77,755.652 2437.77,760.456 C2437.77,764.484 2435.6,766.499 2431.26,766.499 C2428.16,766.499 2425.22,765.801 2422.43,764.407 C2419.95,763.167 2417.32,762.547 2414.53,762.547 C2409.72,762.547 2402.63,765.685 2393.26,771.96 C2394.58,778.236 2395.24,785.557 2395.24,793.924 C2395.24,812.053 2393.38,821.118 2389.66,821.118"/>
<path class="Note" d="M2322.85,677.207 C2323.16,665.509 2329.62,655.127 2342.25,646.063 C2353.49,638.005 2365.77,633.977 2379.09,633.977 C2397.76,633.977 2414.23,641.298 2428.48,655.941 C2437.55,665.315 2442.08,676.936 2442.08,690.804 C2442.08,703.277 2438.75,712.845 2432.08,719.508 C2423.95,727.72 2415.35,731.826 2406.29,731.826 C2400.09,731.826 2395.28,730.432 2391.87,727.643 C2386.3,723.072 2383.51,716.951 2383.51,709.281 C2383.51,699.365 2388.47,690.3 2398.38,682.088 C2406.52,675.348 2414.69,670.932 2422.9,668.84 C2420.73,665.121 2417.98,661.635 2414.65,658.381 C2404.27,648.232 2392.49,643.157 2379.32,643.157 C2365.61,643.157 2354.26,646.14 2345.27,652.106 C2335.98,658.226 2328.5,666.593 2322.85,677.207 M2425.81,674.999 C2421.55,678.95 2417.29,683.173 2413.03,687.666 C2404.66,696.498 2400.47,704.865 2400.47,712.768 C2400.47,721.212 2402.41,725.435 2406.29,725.435 C2409.77,725.435 2414.65,720.67 2420.93,711.141 C2425.96,703.548 2428.48,696.576 2428.48,690.223 C2428.48,684.8 2427.59,679.725 2425.81,674.999"/>
<path class="Note" d="M3136.81,884.145 C3130.46,894.139 3120.42,902.429 3106.71,909.014 C3094.78,914.748 3083.62,917.614 3073.24,917.614 C3064.95,917.614 3058.06,915.948 3052.56,912.617 C3046.59,908.976 3043.61,904.637 3043.61,899.601 C3043.61,888.213 3046.59,878.412 3052.56,870.2 C3060.69,859.044 3068.9,853.466 3077.19,853.466 C3083.08,853.466 3087.27,854.628 3089.75,856.952 C3093.15,859.973 3094.86,864.118 3094.86,869.387 C3094.86,876.824 3089.32,883.293 3078.24,888.794 C3067.47,894.139 3060,897.626 3055.81,899.253 C3056.74,901.19 3057.94,902.933 3059.41,904.482 C3063.06,908.356 3068.01,910.293 3074.29,910.293 C3082.19,910.293 3092.81,907.388 3106.13,901.577 C3118.91,895.921 3129.14,890.111 3136.81,884.145 M3054.18,893.907 C3060,890.963 3065.3,887.515 3070.11,883.564 C3077.23,877.754 3080.8,871.478 3080.8,864.738 C3080.8,860.942 3079.05,859.044 3075.57,859.044 C3072.62,859.044 3068.59,862.414 3063.48,869.154 C3057.05,877.521 3053.84,884.339 3053.84,889.607 C3053.84,891.079 3053.95,892.513 3054.18,893.907"/>
<path class="Note" d="M3056.74,642.535 C3052.95,642.535 3051.05,638.468 3051.05,630.333 L3051.05,596.283 C3051.05,593.029 3052.64,591.402 3055.81,591.402 C3057.21,591.402 3058.25,591.518 3058.95,591.751 C3061.43,587.412 3065.5,583.771 3071.15,580.827 C3079.05,576.721 3087.07,574.668 3095.21,574.668 C3101.64,574.668 3104.85,577.069 3104.85,581.873 C3104.85,585.902 3102.68,587.916 3098.34,587.916 C3095.25,587.916 3092.3,587.219 3089.51,585.824 C3087.03,584.584 3084.4,583.965 3081.61,583.965 C3076.81,583.965 3069.72,587.102 3060.34,593.378 C3061.66,599.653 3062.32,606.974 3062.32,615.342 C3062.32,633.471 3060.46,642.535 3056.74,642.535"/>
<path class="Note" d="M2989.93,766.499 C2990.24,754.8 2996.71,744.418 3009.34,735.354 C3020.57,727.297 3032.85,723.268 3046.18,723.268 C3064.85,723.268 3081.31,730.589 3095.56,745.232 C3104.63,754.606 3109.16,766.227 3109.16,780.095 C3109.16,792.568 3105.83,802.137 3099.17,808.799 C3091.03,817.012 3082.43,821.118 3073.37,821.118 C3067.17,821.118 3062.37,819.723 3058.96,816.934 C3053.38,812.363 3050.59,806.243 3050.59,798.573 C3050.59,788.656 3055.55,779.592 3065.47,771.379 C3073.6,764.639 3081.77,760.223 3089.99,758.131 C3087.82,754.413 3085.07,750.926 3081.74,747.672 C3071.35,737.523 3059.58,732.449 3046.41,732.449 C3032.69,732.449 3021.34,735.431 3012.36,741.397 C3003.06,747.517 2995.58,755.885 2989.93,766.499 M3092.89,764.291 C3088.63,768.242 3084.37,772.464 3080.11,776.957 C3071.74,785.79 3067.56,794.157 3067.56,802.059 C3067.56,810.504 3069.49,814.726 3073.37,814.726 C3076.85,814.726 3081.74,809.961 3088.01,800.432 C3093.05,792.84 3095.56,785.867 3095.56,779.514 C3095.56,774.091 3094.67,769.016 3092.89,764.291"/>
<path class="Note" d="M3136.81,705.563 C3130.46,715.557 3120.42,723.846 3106.71,730.432 C3094.78,736.165 3083.62,739.031 3073.24,739.031 C3064.95,739.031 3058.06,737.366 3052.56,734.034 C3046.59,730.393 3043.61,726.055 3043.61,721.019 C3043.61,709.63 3046.59,699.83 3052.56,691.617 C3060.69,680.461 3068.9,674.883 3077.19,674.883 C3083.08,674.883 3087.27,676.045 3089.75,678.369 C3093.15,681.391 3094.86,685.536 3094.86,690.804 C3094.86,698.241 3089.32,704.71 3078.24,710.211 C3067.47,715.557 3060,719.043 3055.81,720.67 C3056.74,722.607 3057.94,724.35 3059.41,725.9 C3063.06,729.773 3068.01,731.71 3074.29,731.71 C3082.19,731.71 3092.81,728.805 3106.13,722.994 C3118.91,717.339 3129.14,711.528 3136.81,705.563 M3054.18,715.324 C3060,712.38 3065.3,708.933 3070.11,704.982 C3077.23,699.171 3080.8,692.896 3080.8,686.155 C3080.8,682.359 3079.05,680.461 3075.57,680.461 C3072.62,680.461 3068.59,683.831 3063.48,690.571 C3057.05,698.939 3053.84,705.756 3053.84,711.025 C3053.84,712.497 3053.95,713.93 3054.18,715.324"/>
<path class="Note" d="M3769.5,884.145 C3763.15,894.139 3753.11,902.429 3739.4,909.014 C3727.47,914.748 3716.31,917.614 3705.93,917.614 C3697.64,917.614 3690.75,915.948 3685.25,912.617 C3679.28,908.976 3676.3,904.637 3676.3,899.601 C3676.3,888.213 3679.28,878.412 3685.25,870.2 C3693.38,859.044 3701.59,853.466 3709.88,853.466 C3715.77,853.466 3719.95,854.628 3722.43,856.952 C3725.84,859.973 3727.55,864.118 3727.55,869.387 C3727.55,876.824 3722.01,883.293 3710.93,888.794 C3700.16,894.139 3692.68,897.626 3688.5,899.253 C3689.43,901.19 3690.63,902.933 3692.1,904.482 C3695.74,908.356 3700.7,910.293 3706.98,910.293 C3714.88,910.293 3725.49,907.388 3738.82,901.577 C3751.6,895.921 3761.83,890.111 3769.5,884.145 M3686.87,893.907 C3692.68,890.963 3697.99,887.515 3702.79,883.564 C3709.92,877.754 3713.48,871.478 3713.48,864.738 C3713.48,860.942 3711.74,859.044 3708.26,859.044 C3705.31,859.044 3701.28,862.414 3696.17,869.154 C3689.74,877.521 3686.52,884.339 3686.52,889.607 C3686.52,891.079 3686.64,892.513 3686.87,893.907"/>
<path class="Note" d="M3622.62,766.499 C3622.93,754.8 3629.4,744.418 3642.02,735.354 C3653.26,727.297 3665.54,723.268 3678.86,723.268 C3697.53,723.268 3714,730.589 3728.25,745.232 C3737.32,754.606 3741.85,766.227 3741.85,780.095 C3741.85,792.568 3738.52,802.137 3731.85,808.799 C3723.72,817.012 3715.12,821.118 3706.06,821.118 C3699.86,821.118 3695.05,819.723 3691.65,816.934 C3686.07,812.363 3683.28,806.243 3683.28,798.573 C3683.28,788.656 3688.24,779.592 3698.15,771.379 C3706.29,764.639 3714.46,760.223 3722.67,758.131 C3720.51,754.413 3717.75,750.926 3714.42,747.672 C3704.04,737.523 3692.27,732.449 3679.1,732.449 C3665.38,732.449 3654.03,735.431 3645.05,741.397 C3635.75,747.517 3628.27,755.885 3622.62,766.499 M3725.58,764.291 C3721.32,768.242 3717.06,772.464 3712.8,776.957 C3704.43,785.79 3700.25,794.157 3700.25,802.059 C3700.25,810.504 3702.18,814.726 3706.06,814.726 C3709.54,814.726 3714.42,809.961 3720.7,800.432 C3725.73,792.84 3728.25,785.867 3728.25,779.514 C3728.25,774.091 3727.36,769.016 3725.58,764.291"/>
<path class="Note" d="M3769.5,705.563 C3763.15,715.557 3753.11,723.846 3739.4,730.432 C3727.47,736.165 3716.31,739.031 3705.93,739.031 C3697.64,739.031 3690.75,737.366 3685.25,734.034 C3679.28,730.393 3676.3,726.055 3676.3,721.019 C3676.3,709.63 3679.28,699.83 3685.25,691.617 C3693.38,680.461 3701.59,674.883 3709.88,674.883 C3715.77,674.883 3719.95,676.045 3722.43,678.369 C3725.84,681.391 3727.55,685.536 3727.55,690.804 C3727.55,698.241 3722.01,704.71 3710.93,710.211 C3700.16,715.557 3692.68,719.043 3688.5,720.67 C3689.43,722.607 3690.63,724.35 3692.1,725.9 C3695.74,729.773 3700.7,731.71 3706.98,731.71 C3714.88,731.71 3725.49,728.805 3738.82,722.994 C3751.6,717.339 3761.83,711.528 3769.5,705.563 M3686.87,715.324 C3692.68,712.38 3697.99,708.933 3702.79,704.982 C3709.92,699.171 3713.48,692.896 3713.48,686.155 C3713.48,682.359 3711.74,680.461 3708.26,680.461 C3705.31,680.461 3701.28,683.831 3696.17,690.571 C3689.74,698.939 3686.52,705.756 3686.52,711.025 C3686.52,712.497 3686.64,713.93 3686.87,715.324"/>
<path class="Clef" transform="matrix(2.3811,0,0,2.3811,212.156,2158.79)" d="M25.4,-25.1 C17.8,-25.1 11.7,-20.7 11.6,-20.7 C5.8,-16.4 3.5,-11.3 2.6,-7.8 C2.1,-6 1.9,-4.2 1.9,-2.5 C1.9,-0.1 2.3,2.1 3.2,4 C4.4,6.7 6.7,8.6 9.7,9.6 C10.9,10 12.2,10.2 13.5,10.2 C15.7,10.2 18,9.6 19.9,8.5 C23,6.8 24.9,3.2 24.9,-0.7 C24.9,-4.2 23.1,-7.4 20.1,-9.3 C18,-10.7 16,-11.1 14.3,-11.1 C13.1,-11.1 12,-10.9 11.1,-10.6 C10.1,-10.2 8.4,-9.2 7.6,-8.5 C7.9,-10.4 9.1,-13.3 10.2,-14.9 C11.3,-16.5 13.5,-18.5 15.2,-19.4 C17.7,-20.8 20.9,-21.4 24.4,-21.4 C34.6,-21.4 39.6,-13.2 39.6,3.6 C39.6,12.9 36.1,21.8 33.1,27.7 C29.8,34.3 25.4,40.6 21.5,44.1 C11.1,53.6 1.3,58.1 1.2,58.1 C1.2,58.1 -0.3,59 0.1,60.5 C0.4,61.5 1.3,61.7 1.9,61.7 C2,61.7 2.3,61.6 2.4,61.6 C2.5,61.6 13.9,56.9 23,49.8 C28.1,46.1 32.7,42.1 36.7,37.8 C40.3,33.9 43.4,29.7 45.9,25.5 C50.3,18 52.8,10.2 52.8,3.5 C52.8,-4.8 50.6,-11.7 46.5,-16.6 C41.8,-22.2 34.7,-25.1 25.4,-25.1 M56.8,-12.4 C56.8,-9.6 59,-7.4 61.6,-7.4 C64.2,-7.4 66.4,-9.6 66.4,-12.4 C66.4,-15.2 64.2,-17.5 61.6,-17.5 C59,-17.5 56.8,-15.2 56.8,-12.4 M56.8,12.3 C56.8,15.1 59,17.4 61.6,17.4 C64.2,17.4 66.4,15.1 66.4,12.3 C66.4,9.5 64.2,7.2 61.6,7.2 C59,7.2 56.8,9.5 56.8,12.3"/>
<path class="Clef" transform="matrix(2.3811,0,0,2.3811,212.156,1570.39)" d="M63.37,-5.89004 C62.14,-11.32 59.5,-15.14 58.72,-16.1801 C55.5301,-20.45 51.52,-23.3 46.8301,-24.65 C43.72,-25.54 40.72,-25.65 38.3,-25.47 C37.2601,-31.4801 36.2601,-37.3601 35.35,-42.8101 C40.79,-48.97 44.42,-54.77 46.69,-59.07 C50.1601,-65.65 51.3101,-70.2301 51.3601,-70.4301 C53.0801,-75.64 53.44,-83.34 52.34,-91.55 C51.3301,-99.1 49.24,-105.81 46.89,-109.06 C45.8601,-110.49 44.8101,-111.22 43.77,-111.22 C42.55,-111.22 40.04,-109.98 37.15,-107.21 C34.85,-105.01 31.5801,-101.12 29.02,-95.1101 C26.02,-88.05 25.8101,-78.5601 26.1601,-71.84 C26.54,-64.57 27.65,-58.8801 27.6601,-58.8301 C27.6801,-58.74 27.94,-57.24 28.39,-54.67 C28.1601,-54.44 27.92,-54.22 27.67,-53.9801 C26.6301,-52.9801 25.44,-51.84 24.0601,-50.4601 C23.2,-49.6 22.25,-48.69 21.25,-47.72 C12.79,-39.57 0,-27.25 0,-8.1 C0,-3.4 0.9,1.01992 2.68008,5.02998 C4.27002,8.62998 6.57002,11.91 9.5,14.78 C17.2301,22.33 27.82,25.5399 34.8801,25.38 C37.8301,25.31 40.4601,25.0699 42.85,24.6199 C44.6801,34.2199 45.82,41.25 45.8601,46.5899 C45.9,53.1 44.25,57.0699 40.35,59.8399 C37.92,61.5699 35.1101,62.5199 32.0101,62.6699 C29.42,62.7899 27.1601,62.3199 25.7301,61.91 L25.72,61.91 C25.72,61.91 25.4301,61.83 25.42,61.63 C25.4101,61.45 25.7601,61.4 25.77,61.4 L25.79,61.4 C27.7101,60.96 31.2801,59.73 33.64,56.43 C35.44,53.91 36.3101,49.2899 34.47,45.35 C33.3601,42.96 30.85,40.01 25.2301,39.56 C22.74,39.36 20.47,39.8699 18.47,41.0699 C16.6601,42.15 15.1601,43.7899 14.1101,45.7899 C11.65,50.4899 12.1101,56.2199 15.24,60.06 C18.2,63.68 22.82,65.9899 28.25,66.5699 C29.1,66.66 29.95,66.7 30.8,66.7 C31.5101,66.7 32.22,66.6699 32.92,66.61 C31.72,66.9399 30.64,67.4899 29.77,68.25 C28.2801,69.5399 27.44,71.38 27.44,73.41 C27.44,75.28 28.0601,76.65 29.55,78.0399 C28.4101,78.5 27.55,78.98 26.79,79.56 C25.25,80.73 24.34,82.46 24.34,84.1899 C24.34,87.45 27.3,89.63 31.72,89.63 C37.1301,89.63 40.9101,86.63 40.9101,82.35 C40.9101,80.1199 39.9101,78.18 38.0801,76.83 C41.0101,75.6199 42.37,73.9399 42.37,71.56 C42.39,70.05 41.69,68.61 40.49,67.6899 C39.2801,66.7399 37.62,66.2399 35.69,66.2399 L35.5101,66.2399 C38.2801,65.7 40.92,64.7 43.2101,63.28 C46.87,60.71 48.99,56.73 49.67,51.1 C50.2301,46.46 49.84,40.55 48.44,32.48 C48.0801,30.3899 47.54,27.36 46.8801,23.6 C52.6301,21.68 56.79,18.11 60.5601,12.26 C63.85,6.51992 64.8,0.419922 63.37,-5.89004 M32.39,87.5399 C30.19,87.5399 28.7301,86.1199 28.7301,84.01 C28.7301,82.11 29.65,80.5 31.32,79.4699 C31.6801,79.66 31.77,79.71 32.1101,79.88 C33.3,80.48 33.3,80.48 33.55,80.63 L33.5601,80.6399 C35.47,81.73 36.25,82.76 36.25,84.18 C36.24,86.0899 34.59,87.5399 32.39,87.5399 M38.3101,71.63 C38.3101,73.2699 37.7301,74.3399 36.1801,75.53 C34.74,74.78 34.35,74.56 33.9801,74.3399 L33.8801,74.28 C32.3301,73.3399 31.85,72.66 31.85,71.4 C31.85,69.6 33.2301,68.3399 35.19,68.3399 C37.17,68.35 38.3101,69.55 38.3101,71.63 M33.15,-83.8101 C34.9301,-89.55 37.67,-92.8 39.6601,-94.5301 C41.4101,-96.05 43.0601,-96.7601 43.9801,-96.7601 C44.12,-96.7601 44.24,-96.74 44.34,-96.7101 C44.8,-96.57 45.3301,-96 45.8,-95.1301 C48.1101,-90.84 47.37,-84.1301 46.0301,-79.69 C44.4,-74.29 41.4801,-68.6801 32.69,-59.0601 C32.52,-60.17 32.3601,-61.22 32.2101,-62.2 C30.95,-70.49 31.27,-77.7601 33.15,-83.8101 M29.15,20.31 C24.5101,19.0899 20.0801,16.5899 16.32,13.0899 C15.0101,11.86 13.14,9.68994 11.67,6.3 C10.3101,3.13994 9.65,-0.290039 9.7,-3.88008 C9.77002,-8.57002 11.0801,-13.39 13.59,-18.1801 C16.5101,-23.7601 21.07,-29.29 27.1301,-34.62 C28.5801,-35.9 29.95,-37.1801 31.24,-38.4601 C32,-34.2 32.8301,-29.5101 33.7101,-24.6301 C29.8601,-23.3601 25.1101,-20.2101 22,-14.5601 C18.47,-7.99004 18.6101,-2.47002 19.34,1.00996 C20.2801,5.46992 22.8101,9.22998 26.27,11.3199 C27.2,11.88 31.3301,14.01 33.17,13.43 C33.54,13.31 33.8101,13.0899 33.95,12.76 C34.4601,11.5899 33.44,10.95 31.8801,9.98994 C31.2801,9.61992 30.6101,9.2 29.8801,8.66992 C26.5601,6.17998 25.1101,1.72998 26.1801,-2.65 C26.7601,-5.05 28.04,-7.21006 29.8801,-8.91006 C31.55,-10.4601 33.59,-11.5601 35.97,-12.2 C38.0101,-0.960059 40.07,10.1899 41.7101,18.55 C41.84,19.2399 41.9801,19.91 42.1101,20.58 C37.7101,21.51 33.37,21.4199 29.15,20.31 M54.9,10.1 C53.7301,13.28 51.27,17.35 46.14,19.41 C46.07,18.9899 45.99,18.56 45.9101,18.13 C44.3601,9.36992 42.4301,-1.61006 40.47,-12.87 C50.82,-13.35 55.09,-5.91006 55.9801,-1.08008 C56.45,1.45 56.45,5.88994 54.9,10.1"/>
<path class="FiguredBass" d="M639.242,2472.56 C634.665,2472.56 631.619,2474.4 630.104,2478.08 C628.589,2481.76 627.831,2486.97 627.831,2493.71 L627.831,2504.66 C631.047,2503.36 633.83,2502.68 636.181,2502.62 C644.221,2502.62 650.545,2504.4 655.153,2507.95 C659.761,2511.51 662.064,2516.8 662.064,2523.82 C662.064,2530.84 659.73,2536.14 655.06,2539.73 C650.39,2543.32 644.097,2545.11 636.181,2545.11 C628.078,2545.11 621.739,2541.35 617.162,2533.84 C612.585,2526.32 610.297,2517.4 610.297,2507.07 C610.297,2496.81 612.956,2487.9 618.275,2480.35 C623.594,2472.81 630.583,2469.04 639.242,2469.04 C644.932,2469.04 649.849,2470.47 653.993,2473.35 C658.137,2476.23 660.209,2480.01 660.209,2484.71 C660.209,2487.44 659.219,2489.79 657.24,2491.76 C655.261,2493.74 652.895,2494.73 650.143,2494.73 C647.391,2494.73 645.025,2493.74 643.046,2491.76 C641.067,2489.79 640.077,2487.44 640.077,2484.71 C640.077,2482.05 641.067,2479.7 643.046,2477.66 C643.726,2476.86 644.685,2476.18 645.922,2475.62 C645.613,2474.82 644.994,2474.2 644.066,2473.77 C642.706,2472.96 641.098,2472.56 639.242,2472.56 M643.788,2510.5 C642.675,2507.6 640.232,2506.14 636.459,2506.14 C632.686,2506.14 630.351,2507.6 629.455,2510.5 C628.558,2513.41 628.109,2517.83 628.109,2523.77 C628.109,2530.76 628.558,2535.46 629.455,2537.87 C630.351,2540.29 632.686,2541.49 636.459,2541.49 C640.232,2541.49 642.675,2540.04 643.788,2537.13 C644.901,2534.22 645.458,2529.79 645.458,2523.82 C645.458,2517.85 644.901,2513.41 643.788,2510.5"/>
<path class="FiguredBass" d="M627.736,2625.44 L627.736,2635.46 L627.736,2637.13 C627.736,2640.9 627.891,2644.24 628.2,2647.15 C631.169,2644.61 633.488,2642.54 635.158,2640.93 C636.828,2639.32 638.452,2637.13 640.029,2634.35 C641.606,2631.56 642.395,2628.79 642.395,2626.04 C642.395,2623.29 641.807,2620.89 640.632,2618.85 C639.457,2616.81 637.849,2615.79 635.808,2615.79 C633.457,2615.79 631.556,2616.73 630.102,2618.62 C628.649,2620.51 627.86,2622.78 627.736,2625.44 M621.335,2652.62 L619.572,2570.42 C620.871,2569.62 622.232,2569.2 623.654,2569.17 C625.077,2569.14 626.438,2569.56 627.736,2570.42 L626.716,2614.58 C630.798,2611.18 635.406,2609.48 640.539,2609.48 C644.374,2609.48 647.59,2611.03 650.188,2614.12 C652.785,2617.21 654.084,2620.83 654.084,2624.98 C654.084,2627.82 653.28,2630.53 651.672,2633.09 C650.064,2635.66 648.363,2637.72 646.569,2639.26 C644.776,2640.81 642.039,2642.94 638.359,2645.66 C634.679,2648.39 632.468,2650.06 631.726,2650.67 C631.231,2651.11 630.566,2651.88 629.731,2652.99 C628.896,2654.11 628.107,2654.96 627.365,2655.54 C626.623,2656.13 625.788,2656.43 624.86,2656.43 C623.871,2656.43 623.036,2656.07 622.355,2655.36 C621.675,2654.65 621.335,2653.74 621.335,2652.62"/>
<path class="FiguredBass" d="M1259.25,2472.56 C1254.67,2472.56 1251.63,2474.4 1250.11,2478.08 C1248.6,2481.76 1247.84,2486.97 1247.84,2493.71 L1247.84,2504.66 C1251.06,2503.36 1253.84,2502.68 1256.19,2502.62 C1264.23,2502.62 1270.55,2504.4 1275.16,2507.95 C1279.77,2511.51 1282.07,2516.8 1282.07,2523.82 C1282.07,2530.84 1279.74,2536.14 1275.07,2539.73 C1270.4,2543.32 1264.11,2545.11 1256.19,2545.11 C1248.09,2545.11 1241.75,2541.35 1237.17,2533.84 C1232.59,2526.32 1230.31,2517.4 1230.31,2507.07 C1230.31,2496.81 1232.96,2487.9 1238.28,2480.35 C1243.6,2472.81 1250.59,2469.04 1259.25,2469.04 C1264.94,2469.04 1269.86,2470.47 1274,2473.35 C1278.15,2476.23 1280.22,2480.01 1280.22,2484.71 C1280.22,2487.44 1279.23,2489.79 1277.25,2491.76 C1275.27,2493.74 1272.9,2494.73 1270.15,2494.73 C1267.4,2494.73 1265.03,2493.74 1263.05,2491.76 C1261.07,2489.79 1260.09,2487.44 1260.09,2484.71 C1260.09,2482.05 1261.07,2479.7 1263.05,2477.66 C1263.73,2476.86 1264.69,2476.18 1265.93,2475.62 C1265.62,2474.82 1265,2474.2 1264.07,2473.77 C1262.71,2472.96 1261.11,2472.56 1259.25,2472.56 M1263.8,2510.5 C1262.68,2507.6 1260.24,2506.14 1256.47,2506.14 C1252.69,2506.14 1250.36,2507.6 1249.46,2510.5 C1248.57,2513.41 1248.12,2517.83 1248.12,2523.77 C1248.12,2530.76 1248.57,2535.46 1249.46,2537.87 C1250.36,2540.29 1252.69,2541.49 1256.47,2541.49 C1260.24,2541.49 1262.68,2540.04 1263.8,2537.13 C1264.91,2534.22 1265.47,2529.79 1265.47,2523.82 C1265.47,2517.85 1264.91,2513.41 1263.8,2510.5"/>
<path class="FiguredBass" d="M1250.44,2641.21 L1250.44,2660.6 C1250.44,2662.52 1249.46,2663.48 1247.51,2663.48 C1245.57,2663.48 1244.59,2662.52 1244.59,2660.6 L1244.59,2643.72 L1241.62,2644.92 C1241.31,2645.05 1240.91,2645.11 1240.42,2645.11 C1239.61,2645.11 1238.9,2644.8 1238.28,2644.18 C1237.67,2643.56 1237.36,2642.85 1237.36,2642.05 L1237.36,2632.58 C1237.36,2631.22 1238.01,2630.26 1239.3,2629.71 L1244.59,2627.48 L1244.59,2608 L1241.62,2609.2 C1241.44,2609.27 1241.19,2609.3 1240.88,2609.3 C1240.76,2609.3 1240.6,2609.3 1240.42,2609.3 C1239.49,2609.17 1238.75,2608.83 1238.19,2608.28 C1237.63,2607.72 1237.36,2607.07 1237.36,2606.33 L1237.36,2596.87 C1237.36,2595.57 1238.01,2594.64 1239.3,2594.08 L1244.59,2591.86 L1244.59,2572.09 C1244.59,2570.18 1245.57,2569.22 1247.51,2569.22 C1249.46,2569.22 1250.44,2570.18 1250.44,2572.09 L1250.44,2589.44 L1262.4,2584.43 L1262.4,2565.04 C1262.4,2563.13 1263.36,2562.17 1265.28,2562.17 C1267.2,2562.17 1268.16,2563.13 1268.16,2565.04 L1268.16,2582.11 L1271.4,2580.72 C1271.71,2580.6 1272.05,2580.54 1272.42,2580.54 C1273.23,2580.54 1273.96,2580.85 1274.6,2581.46 C1275.25,2582.08 1275.58,2582.79 1275.58,2583.6 L1275.58,2593.06 C1275.58,2594.42 1274.9,2595.38 1273.54,2595.94 L1268.16,2598.16 L1268.16,2617.74 L1271.4,2616.44 C1271.59,2616.38 1271.81,2616.35 1272.05,2616.35 C1272.18,2616.35 1272.3,2616.35 1272.42,2616.35 C1273.48,2616.53 1274.26,2616.87 1274.79,2617.37 C1275.32,2617.86 1275.58,2618.51 1275.58,2619.32 L1275.58,2628.78 C1275.58,2630.08 1274.9,2631.01 1273.54,2631.56 L1268.16,2633.79 L1268.16,2653.55 C1268.16,2655.47 1267.2,2656.43 1265.28,2656.43 C1263.36,2656.43 1262.4,2655.47 1262.4,2653.55 L1262.4,2636.2 L1250.44,2641.21 M1250.44,2625.07 L1262.4,2620.15 L1262.4,2600.58 L1250.44,2605.59 L1250.44,2625.07 "/>
<path class="FiguredBass" d="M1840.81,2472.56 C1836.23,2472.56 1833.18,2474.4 1831.67,2478.08 C1830.15,2481.76 1829.4,2486.97 1829.4,2493.71 L1829.4,2504.66 C1832.61,2503.36 1835.4,2502.68 1837.75,2502.62 C1845.79,2502.62 1852.11,2504.4 1856.72,2507.95 C1861.33,2511.51 1863.63,2516.8 1863.63,2523.82 C1863.63,2530.84 1861.3,2536.14 1856.63,2539.73 C1851.96,2543.32 1845.66,2545.11 1837.75,2545.11 C1829.64,2545.11 1823.3,2541.35 1818.73,2533.84 C1814.15,2526.32 1811.86,2517.4 1811.86,2507.07 C1811.86,2496.81 1814.52,2487.9 1819.84,2480.35 C1825.16,2472.81 1832.15,2469.04 1840.81,2469.04 C1846.5,2469.04 1851.41,2470.47 1855.56,2473.35 C1859.7,2476.23 1861.77,2480.01 1861.77,2484.71 C1861.77,2487.44 1860.78,2489.79 1858.81,2491.76 C1856.83,2493.74 1854.46,2494.73 1851.71,2494.73 C1848.96,2494.73 1846.59,2493.74 1844.61,2491.76 C1842.63,2489.79 1841.64,2487.44 1841.64,2484.71 C1841.64,2482.05 1842.63,2479.7 1844.61,2477.66 C1845.29,2476.86 1846.25,2476.18 1847.49,2475.62 C1847.18,2474.82 1846.56,2474.2 1845.63,2473.77 C1844.27,2472.96 1842.66,2472.56 1840.81,2472.56 M1845.35,2510.5 C1844.24,2507.6 1841.8,2506.14 1838.02,2506.14 C1834.25,2506.14 1831.92,2507.6 1831.02,2510.5 C1830.12,2513.41 1829.67,2517.83 1829.67,2523.77 C1829.67,2530.76 1830.12,2535.46 1831.02,2537.87 C1831.92,2540.29 1834.25,2541.49 1838.02,2541.49 C1841.8,2541.49 1844.24,2540.04 1845.35,2537.13 C1846.47,2534.22 1847.02,2529.79 1847.02,2523.82 C1847.02,2517.85 1846.47,2513.41 1845.35,2510.5"/>
<path class="FiguredBass" d="M1829.3,2625.44 L1829.3,2635.46 L1829.3,2637.13 C1829.3,2640.9 1829.46,2644.24 1829.77,2647.15 C1832.73,2644.61 1835.05,2642.54 1836.72,2640.93 C1838.39,2639.32 1840.02,2637.13 1841.59,2634.35 C1843.17,2631.56 1843.96,2628.79 1843.96,2626.04 C1843.96,2623.29 1843.37,2620.89 1842.2,2618.85 C1841.02,2616.81 1839.41,2615.79 1837.37,2615.79 C1835.02,2615.79 1833.12,2616.73 1831.67,2618.62 C1830.21,2620.51 1829.43,2622.78 1829.3,2625.44 M1822.9,2652.62 L1821.14,2570.42 C1822.44,2569.62 1823.8,2569.2 1825.22,2569.17 C1826.64,2569.14 1828,2569.56 1829.3,2570.42 L1828.28,2614.58 C1832.36,2611.18 1836.97,2609.48 1842.1,2609.48 C1845.94,2609.48 1849.16,2611.03 1851.75,2614.12 C1854.35,2617.21 1855.65,2620.83 1855.65,2624.98 C1855.65,2627.82 1854.85,2630.53 1853.24,2633.09 C1851.63,2635.66 1849.93,2637.72 1848.13,2639.26 C1846.34,2640.81 1843.6,2642.94 1839.92,2645.66 C1836.24,2648.39 1834.03,2650.06 1833.29,2650.67 C1832.8,2651.11 1832.13,2651.88 1831.3,2652.99 C1830.46,2654.11 1829.67,2654.96 1828.93,2655.54 C1828.19,2656.13 1827.35,2656.43 1826.43,2656.43 C1825.44,2656.43 1824.6,2656.07 1823.92,2655.36 C1823.24,2654.65 1822.9,2653.74 1822.9,2652.62"/>
<path class="FiguredBass" d="M2402.3,2472.56 C2397.73,2472.56 2394.68,2474.4 2393.17,2478.08 C2391.65,2481.76 2390.89,2486.97 2390.89,2493.71 L2390.89,2504.66 C2394.11,2503.36 2396.89,2502.68 2399.24,2502.62 C2407.28,2502.62 2413.61,2504.4 2418.21,2507.95 C2422.82,2511.51 2425.13,2516.8 2425.13,2523.82 C2425.13,2530.84 2422.79,2536.14 2418.12,2539.73 C2413.45,2543.32 2407.16,2545.11 2399.24,2545.11 C2391.14,2545.11 2384.8,2541.35 2380.22,2533.84 C2375.65,2526.32 2373.36,2517.4 2373.36,2507.07 C2373.36,2496.81 2376.02,2487.9 2381.34,2480.35 C2386.66,2472.81 2393.65,2469.04 2402.3,2469.04 C2407.99,2469.04 2412.91,2470.47 2417.05,2473.35 C2421.2,2476.23 2423.27,2480.01 2423.27,2484.71 C2423.27,2487.44 2422.28,2489.79 2420.3,2491.76 C2418.32,2493.74 2415.96,2494.73 2413.2,2494.73 C2410.45,2494.73 2408.09,2493.74 2406.11,2491.76 C2404.13,2489.79 2403.14,2487.44 2403.14,2484.71 C2403.14,2482.05 2404.13,2479.7 2406.11,2477.66 C2406.79,2476.86 2407.75,2476.18 2408.98,2475.62 C2408.67,2474.82 2408.06,2474.2 2407.13,2473.77 C2405.77,2472.96 2404.16,2472.56 2402.3,2472.56 M2406.85,2510.5 C2405.74,2507.6 2403.29,2506.14 2399.52,2506.14 C2395.75,2506.14 2393.41,2507.6 2392.52,2510.5 C2391.62,2513.41 2391.17,2517.83 2391.17,2523.77 C2391.17,2530.76 2391.62,2535.46 2392.52,2537.87 C2393.41,2540.29 2395.75,2541.49 2399.52,2541.49 C2403.29,2541.49 2405.74,2540.04 2406.85,2537.13 C2407.96,2534.22 2408.52,2529.79 2408.52,2523.82 C2408.52,2517.85 2407.96,2513.41 2406.85,2510.5"/>
<path class="FiguredBass" d="M2390.8,2625.44 L2390.8,2635.46 L2390.8,2637.13 C2390.8,2640.9 2390.95,2644.24 2391.26,2647.15 C2394.23,2644.61 2396.55,2642.54 2398.22,2640.93 C2399.89,2639.32 2401.51,2637.13 2403.09,2634.35 C2404.67,2631.56 2405.46,2628.79 2405.46,2626.04 C2405.46,2623.29 2404.87,2620.89 2403.69,2618.85 C2402.52,2616.81 2400.91,2615.79 2398.87,2615.79 C2396.52,2615.79 2394.62,2616.73 2393.16,2618.62 C2391.71,2620.51 2390.92,2622.78 2390.8,2625.44 M2384.4,2652.62 L2382.63,2570.42 C2383.93,2569.62 2385.29,2569.2 2386.72,2569.17 C2388.14,2569.14 2389.5,2569.56 2390.8,2570.42 L2389.78,2614.58 C2393.86,2611.18 2398.47,2609.48 2403.6,2609.48 C2407.44,2609.48 2410.65,2611.03 2413.25,2614.12 C2415.85,2617.21 2417.15,2620.83 2417.15,2624.98 C2417.15,2627.82 2416.34,2630.53 2414.73,2633.09 C2413.13,2635.66 2411.42,2637.72 2409.63,2639.26 C2407.84,2640.81 2405.1,2642.94 2401.42,2645.66 C2397.74,2648.39 2395.53,2650.06 2394.79,2650.67 C2394.29,2651.11 2393.63,2651.88 2392.79,2652.99 C2391.96,2654.11 2391.17,2654.96 2390.43,2655.54 C2389.68,2656.13 2388.85,2656.43 2387.92,2656.43 C2386.93,2656.43 2386.1,2656.07 2385.42,2655.36 C2384.74,2654.65 2384.4,2653.74 2384.4,2652.62"/>
<path class="FiguredBass" d="M3069.39,2472.56 C3064.81,2472.56 3061.76,2474.4 3060.25,2478.08 C3058.73,2481.76 3057.98,2486.97 3057.98,2493.71 L3057.98,2504.66 C3061.19,2503.36 3063.98,2502.68 3066.33,2502.62 C3074.37,2502.62 3080.69,2504.4 3085.3,2507.95 C3089.91,2511.51 3092.21,2516.8 3092.21,2523.82 C3092.21,2530.84 3089.87,2536.14 3085.21,2539.73 C3080.54,2543.32 3074.24,2545.11 3066.33,2545.11 C3058.22,2545.11 3051.88,2541.35 3047.31,2533.84 C3042.73,2526.32 3040.44,2517.4 3040.44,2507.07 C3040.44,2496.81 3043.1,2487.9 3048.42,2480.35 C3053.74,2472.81 3060.73,2469.04 3069.39,2469.04 C3075.08,2469.04 3079.99,2470.47 3084.14,2473.35 C3088.28,2476.23 3090.35,2480.01 3090.35,2484.71 C3090.35,2487.44 3089.36,2489.79 3087.39,2491.76 C3085.41,2493.74 3083.04,2494.73 3080.29,2494.73 C3077.54,2494.73 3075.17,2493.74 3073.19,2491.76 C3071.21,2489.79 3070.22,2487.44 3070.22,2484.71 C3070.22,2482.05 3071.21,2479.7 3073.19,2477.66 C3073.87,2476.86 3074.83,2476.18 3076.07,2475.62 C3075.76,2474.82 3075.14,2474.2 3074.21,2473.77 C3072.85,2472.96 3071.24,2472.56 3069.39,2472.56 M3073.93,2510.5 C3072.82,2507.6 3070.38,2506.14 3066.6,2506.14 C3062.83,2506.14 3060.5,2507.6 3059.6,2510.5 C3058.7,2513.41 3058.25,2517.83 3058.25,2523.77 C3058.25,2530.76 3058.7,2535.46 3059.6,2537.87 C3060.5,2540.29 3062.83,2541.49 3066.6,2541.49 C3070.38,2541.49 3072.82,2540.04 3073.93,2537.13 C3075.05,2534.22 3075.6,2529.79 3075.6,2523.82 C3075.6,2517.85 3075.05,2513.41 3073.93,2510.5"/>
<path class="FiguredBass" d="M3060.57,2641.21 L3060.57,2660.6 C3060.57,2662.52 3059.6,2663.48 3057.65,2663.48 C3055.7,2663.48 3054.73,2662.52 3054.73,2660.6 L3054.73,2643.72 L3051.76,2644.92 C3051.45,2645.05 3051.05,2645.11 3050.55,2645.11 C3049.75,2645.11 3049.04,2644.8 3048.42,2644.18 C3047.8,2643.56 3047.49,2642.85 3047.49,2642.05 L3047.49,2632.58 C3047.49,2631.22 3048.14,2630.26 3049.44,2629.71 L3054.73,2627.48 L3054.73,2608 L3051.76,2609.2 C3051.57,2609.27 3051.33,2609.3 3051.02,2609.3 C3050.89,2609.3 3050.74,2609.3 3050.55,2609.3 C3049.63,2609.17 3048.88,2608.83 3048.33,2608.28 C3047.77,2607.72 3047.49,2607.07 3047.49,2606.33 L3047.49,2596.87 C3047.49,2595.57 3048.14,2594.64 3049.44,2594.08 L3054.73,2591.86 L3054.73,2572.09 C3054.73,2570.18 3055.7,2569.22 3057.65,2569.22 C3059.6,2569.22 3060.57,2570.18 3060.57,2572.09 L3060.57,2589.44 L3072.54,2584.43 L3072.54,2565.04 C3072.54,2563.13 3073.5,2562.17 3075.42,2562.17 C3077.33,2562.17 3078.29,2563.13 3078.29,2565.04 L3078.29,2582.11 L3081.54,2580.72 C3081.85,2580.6 3082.19,2580.54 3082.56,2580.54 C3083.37,2580.54 3084.09,2580.85 3084.74,2581.46 C3085.39,2582.08 3085.72,2582.79 3085.72,2583.6 L3085.72,2593.06 C3085.72,2594.42 3085.04,2595.38 3083.67,2595.94 L3078.29,2598.16 L3078.29,2617.74 L3081.54,2616.44 C3081.73,2616.38 3081.94,2616.35 3082.19,2616.35 C3082.31,2616.35 3082.44,2616.35 3082.56,2616.35 C3083.61,2616.53 3084.4,2616.87 3084.93,2617.37 C3085.45,2617.86 3085.72,2618.51 3085.72,2619.32 L3085.72,2628.78 C3085.72,2630.08 3085.04,2631.01 3083.67,2631.56 L3078.29,2633.79 L3078.29,2653.55 C3078.29,2655.47 3077.33,2656.43 3075.42,2656.43 C3073.5,2656.43 3072.54,2655.47 3072.54,2653.55 L3072.54,2636.2 L3060.57,2641.21 M3060.57,2625.07 L3072.54,2620.15 L3072.54,2600.58 L3060.57,2605.59 L3060.57,2625.07 "/>
<path class="FiguredBass" d="M3702.07,2472.56 C3697.5,2472.56 3694.45,2474.4 3692.94,2478.08 C3691.42,2481.76 3690.66,2486.97 3690.66,2493.71 L3690.66,2504.66 C3693.88,2503.36 3696.66,2502.68 3699.01,2502.62 C3707.05,2502.62 3713.38,2504.4 3717.99,2507.95 C3722.59,2511.51 3724.9,2516.8 3724.9,2523.82 C3724.9,2530.84 3722.56,2536.14 3717.89,2539.73 C3713.22,2543.32 3706.93,2545.11 3699.01,2545.11 C3690.91,2545.11 3684.57,2541.35 3679.99,2533.84 C3675.42,2526.32 3673.13,2517.4 3673.13,2507.07 C3673.13,2496.81 3675.79,2487.9 3681.11,2480.35 C3686.43,2472.81 3693.42,2469.04 3702.07,2469.04 C3707.77,2469.04 3712.68,2470.47 3716.83,2473.35 C3720.97,2476.23 3723.04,2480.01 3723.04,2484.71 C3723.04,2487.44 3722.05,2489.79 3720.07,2491.76 C3718.09,2493.74 3715.73,2494.73 3712.98,2494.73 C3710.22,2494.73 3707.86,2493.74 3705.88,2491.76 C3703.9,2489.79 3702.91,2487.44 3702.91,2484.71 C3702.91,2482.05 3703.9,2479.7 3705.88,2477.66 C3706.56,2476.86 3707.52,2476.18 3708.75,2475.62 C3708.45,2474.82 3707.83,2474.2 3706.9,2473.77 C3705.54,2472.96 3703.93,2472.56 3702.07,2472.56 M3706.62,2510.5 C3705.51,2507.6 3703.06,2506.14 3699.29,2506.14 C3695.52,2506.14 3693.18,2507.6 3692.29,2510.5 C3691.39,2513.41 3690.94,2517.83 3690.94,2523.77 C3690.94,2530.76 3691.39,2535.46 3692.29,2537.87 C3693.18,2540.29 3695.52,2541.49 3699.29,2541.49 C3703.06,2541.49 3705.51,2540.04 3706.62,2537.13 C3707.73,2534.22 3708.29,2529.79 3708.29,2523.82 C3708.29,2517.85 3707.73,2513.41 3706.62,2510.5"/>
<path class="FiguredBass" d="M3693.26,2641.21 L3693.26,2660.6 C3693.26,2662.52 3692.29,2663.48 3690.34,2663.48 C3688.39,2663.48 3687.42,2662.52 3687.42,2660.6 L3687.42,2643.72 L3684.45,2644.92 C3684.14,2645.05 3683.74,2645.11 3683.24,2645.11 C3682.44,2645.11 3681.73,2644.8 3681.11,2644.18 C3680.49,2643.56 3680.18,2642.85 3680.18,2642.05 L3680.18,2632.58 C3680.18,2631.22 3680.83,2630.26 3682.13,2629.71 L3687.42,2627.48 L3687.42,2608 L3684.45,2609.2 C3684.26,2609.27 3684.02,2609.3 3683.71,2609.3 C3683.58,2609.3 3683.43,2609.3 3683.24,2609.3 C3682.31,2609.17 3681.57,2608.83 3681.02,2608.28 C3680.46,2607.72 3680.18,2607.07 3680.18,2606.33 L3680.18,2596.87 C3680.18,2595.57 3680.83,2594.64 3682.13,2594.08 L3687.42,2591.86 L3687.42,2572.09 C3687.42,2570.18 3688.39,2569.22 3690.34,2569.22 C3692.29,2569.22 3693.26,2570.18 3693.26,2572.09 L3693.26,2589.44 L3705.23,2584.43 L3705.23,2565.04 C3705.23,2563.13 3706.19,2562.17 3708.11,2562.17 C3710.02,2562.17 3710.98,2563.13 3710.98,2565.04 L3710.98,2582.11 L3714.23,2580.72 C3714.54,2580.6 3714.88,2580.54 3715.25,2580.54 C3716.05,2580.54 3716.78,2580.85 3717.43,2581.46 C3718.08,2582.08 3718.4,2582.79 3718.4,2583.6 L3718.4,2593.06 C3718.4,2594.42 3717.72,2595.38 3716.36,2595.94 L3710.98,2598.16 L3710.98,2617.74 L3714.23,2616.44 C3714.41,2616.38 3714.63,2616.35 3714.88,2616.35 C3715,2616.35 3715.13,2616.35 3715.25,2616.35 C3716.3,2616.53 3717.09,2616.87 3717.61,2617.37 C3718.14,2617.86 3718.4,2618.51 3718.4,2619.32 L3718.4,2628.78 C3718.4,2630.08 3717.72,2631.01 3716.36,2631.56 L3710.98,2633.79 L3710.98,2653.55 C3710.98,2655.47 3710.02,2656.43 3708.11,2656.43 C3706.19,2656.43 3705.23,2655.47 3705.23,2653.55 L3705.23,2636.2 L3693.26,2641.21 M3693.26,2625.07 L3705.23,2620.15 L3705.23,2600.58 L3693.26,2605.59 L3693.26,2625.07 "/>
<path class="FiguredBass" d="M647.592,1793.87 C652.54,1788.49 655.014,1783.29 655.014,1778.28 C655.014,1774.2 653.266,1770.98 649.772,1768.63 C646.278,1766.28 642.087,1765.11 637.201,1765.11 C633.738,1765.11 630.97,1766.19 628.898,1768.35 C626.826,1770.52 625.79,1773.02 625.79,1775.87 C625.79,1779.33 627.305,1781.96 630.336,1783.75 L647.592,1793.87 M652.138,1796.46 C660.549,1801.35 664.755,1807.78 664.755,1815.76 C664.755,1821.76 662.188,1826.91 657.055,1831.21 C651.921,1835.51 644.901,1837.66 635.995,1837.66 C628.511,1837.66 622.002,1835.68 616.466,1831.72 C610.931,1827.76 608.163,1822.63 608.163,1816.32 C608.163,1813.97 608.843,1811.59 610.204,1809.17 C611.565,1806.76 612.833,1804.95 614.008,1803.75 C615.183,1802.54 617.1,1800.67 619.76,1798.13 C613.575,1793.87 610.482,1788.49 610.482,1781.99 C610.482,1776.43 612.864,1771.63 617.626,1767.61 C622.388,1763.59 628.913,1761.58 637.201,1761.58 C643.819,1761.58 649.556,1763.08 654.411,1766.08 C659.266,1769.08 661.693,1773.15 661.693,1778.28 C661.693,1783.79 658.508,1789.85 652.138,1796.46 M624.306,1800.83 C617.997,1806.33 614.843,1811.49 614.843,1816.32 C614.843,1821.39 616.946,1825.63 621.151,1829.03 C625.357,1832.43 630.305,1834.13 635.995,1834.13 C639.953,1834.13 643.123,1832.86 645.504,1830.33 C647.886,1827.79 649.076,1824.85 649.076,1821.51 C649.076,1817.25 647.313,1814.09 643.788,1812.05 L624.306,1800.83 "/>
<path class="FiguredBass" d="M639.242,1870.86 C634.665,1870.86 631.619,1872.7 630.104,1876.38 C628.589,1880.06 627.831,1885.27 627.831,1892.01 L627.831,1902.96 C631.047,1901.66 633.83,1900.98 636.181,1900.92 C644.221,1900.92 650.545,1902.69 655.153,1906.25 C659.761,1909.81 662.064,1915.09 662.064,1922.11 C662.064,1929.13 659.73,1934.44 655.06,1938.03 C650.39,1941.61 644.097,1943.41 636.181,1943.41 C628.078,1943.41 621.739,1939.65 617.162,1932.13 C612.585,1924.62 610.297,1915.7 610.297,1905.37 C610.297,1895.1 612.956,1886.2 618.275,1878.65 C623.594,1871.1 630.583,1867.33 639.242,1867.33 C644.932,1867.33 649.849,1868.77 653.993,1871.65 C658.137,1874.52 660.209,1878.31 660.209,1883.01 C660.209,1885.73 659.219,1888.08 657.24,1890.06 C655.261,1892.04 652.895,1893.03 650.143,1893.03 C647.391,1893.03 645.025,1892.04 643.046,1890.06 C641.067,1888.08 640.077,1885.73 640.077,1883.01 C640.077,1880.35 641.067,1878 643.046,1875.96 C643.726,1875.16 644.685,1874.48 645.922,1873.92 C645.613,1873.11 644.994,1872.5 644.066,1872.06 C642.706,1871.26 641.098,1870.86 639.242,1870.86 M643.788,1908.8 C642.675,1905.89 640.232,1904.44 636.459,1904.44 C632.686,1904.44 630.351,1905.89 629.455,1908.8 C628.558,1911.71 628.109,1916.13 628.109,1922.07 C628.109,1929.06 628.558,1933.76 629.455,1936.17 C630.351,1938.58 632.686,1939.79 636.459,1939.79 C640.232,1939.79 642.675,1938.33 643.788,1935.43 C644.901,1932.52 645.458,1928.08 645.458,1922.11 C645.458,1916.15 644.901,1911.71 643.788,1908.8"/>
<path class="FiguredBass" d="M1267.6,1793.87 C1272.55,1788.49 1275.02,1783.29 1275.02,1778.28 C1275.02,1774.2 1273.27,1770.98 1269.78,1768.63 C1266.29,1766.28 1262.1,1765.11 1257.21,1765.11 C1253.75,1765.11 1250.98,1766.19 1248.91,1768.35 C1246.83,1770.52 1245.8,1773.02 1245.8,1775.87 C1245.8,1779.33 1247.31,1781.96 1250.34,1783.75 L1267.6,1793.87 M1272.15,1796.46 C1280.56,1801.35 1284.76,1807.78 1284.76,1815.76 C1284.76,1821.76 1282.2,1826.91 1277.06,1831.21 C1271.93,1835.51 1264.91,1837.66 1256,1837.66 C1248.52,1837.66 1242.01,1835.68 1236.47,1831.72 C1230.94,1827.76 1228.17,1822.63 1228.17,1816.32 C1228.17,1813.97 1228.85,1811.59 1230.21,1809.17 C1231.57,1806.76 1232.84,1804.95 1234.02,1803.75 C1235.19,1802.54 1237.11,1800.67 1239.77,1798.13 C1233.58,1793.87 1230.49,1788.49 1230.49,1781.99 C1230.49,1776.43 1232.87,1771.63 1237.63,1767.61 C1242.4,1763.59 1248.92,1761.58 1257.21,1761.58 C1263.83,1761.58 1269.56,1763.08 1274.42,1766.08 C1279.27,1769.08 1281.7,1773.15 1281.7,1778.28 C1281.7,1783.79 1278.52,1789.85 1272.15,1796.46 M1244.31,1800.83 C1238.01,1806.33 1234.85,1811.49 1234.85,1816.32 C1234.85,1821.39 1236.95,1825.63 1241.16,1829.03 C1245.37,1832.43 1250.31,1834.13 1256,1834.13 C1259.96,1834.13 1263.13,1832.86 1265.51,1830.33 C1267.89,1827.79 1269.08,1824.85 1269.08,1821.51 C1269.08,1817.25 1267.32,1814.09 1263.8,1812.05 L1244.31,1800.83 "/>
<path class="FiguredBass" d="M1259.25,1870.86 C1254.67,1870.86 1251.63,1872.7 1250.11,1876.38 C1248.6,1880.06 1247.84,1885.27 1247.84,1892.01 L1247.84,1902.96 C1251.06,1901.66 1253.84,1900.98 1256.19,1900.92 C1264.23,1900.92 1270.55,1902.69 1275.16,1906.25 C1279.77,1909.81 1282.07,1915.09 1282.07,1922.11 C1282.07,1929.13 1279.74,1934.44 1275.07,1938.03 C1270.4,1941.61 1264.11,1943.41 1256.19,1943.41 C1248.09,1943.41 1241.75,1939.65 1237.17,1932.13 C1232.59,1924.62 1230.31,1915.7 1230.31,1905.37 C1230.31,1895.1 1232.96,1886.2 1238.28,1878.65 C1243.6,1871.1 1250.59,1867.33 1259.25,1867.33 C1264.94,1867.33 1269.86,1868.77 1274,1871.65 C1278.15,1874.52 1280.22,1878.31 1280.22,1883.01 C1280.22,1885.73 1279.23,1888.08 1277.25,1890.06 C1275.27,1892.04 1272.9,1893.03 1270.15,1893.03 C1267.4,1893.03 1265.03,1892.04 1263.05,1890.06 C1261.07,1888.08 1260.09,1885.73 1260.09,1883.01 C1260.09,1880.35 1261.07,1878 1263.05,1875.96 C1263.73,1875.16 1264.69,1874.48 1265.93,1873.92 C1265.62,1873.11 1265,1872.5 1264.07,1872.06 C1262.71,1871.26 1261.11,1870.86 1259.25,1870.86 M1263.8,1908.8 C1262.68,1905.89 1260.24,1904.44 1256.47,1904.44 C1252.69,1904.44 1250.36,1905.89 1249.46,1908.8 C1248.57,1911.71 1248.12,1916.13 1248.12,1922.07 C1248.12,1929.06 1248.57,1933.76 1249.46,1936.17 C1250.36,1938.58 1252.69,1939.79 1256.47,1939.79 C1260.24,1939.79 1262.68,1938.33 1263.8,1935.43 C1264.91,1932.52 1265.47,1928.08 1265.47,1922.11 C1265.47,1916.15 1264.91,1911.71 1263.8,1908.8"/>
<path class="FiguredBass" d="M1840.81,1765.11 C1836.23,1765.11 1833.18,1766.95 1831.67,1770.63 C1830.15,1774.31 1829.4,1779.52 1829.4,1786.26 L1829.4,1797.21 C1832.61,1795.91 1835.4,1795.23 1837.75,1795.17 C1845.79,1795.17 1852.11,1796.94 1856.72,1800.5 C1861.33,1804.06 1863.63,1809.34 1863.63,1816.36 C1863.63,1823.38 1861.3,1828.69 1856.63,1832.28 C1851.96,1835.86 1845.66,1837.66 1837.75,1837.66 C1829.64,1837.66 1823.3,1833.9 1818.73,1826.38 C1814.15,1818.87 1811.86,1809.95 1811.86,1799.62 C1811.86,1789.35 1814.52,1780.45 1819.84,1772.9 C1825.16,1765.35 1832.15,1761.58 1840.81,1761.58 C1846.5,1761.58 1851.41,1763.02 1855.56,1765.9 C1859.7,1768.77 1861.77,1772.56 1861.77,1777.26 C1861.77,1779.98 1860.78,1782.33 1858.81,1784.31 C1856.83,1786.29 1854.46,1787.28 1851.71,1787.28 C1848.96,1787.28 1846.59,1786.29 1844.61,1784.31 C1842.63,1782.33 1841.64,1779.98 1841.64,1777.26 C1841.64,1774.6 1842.63,1772.25 1844.61,1770.21 C1845.29,1769.41 1846.25,1768.73 1847.49,1768.17 C1847.18,1767.36 1846.56,1766.75 1845.63,1766.31 C1844.27,1765.51 1842.66,1765.11 1840.81,1765.11 M1845.35,1803.05 C1844.24,1800.14 1841.8,1798.69 1838.02,1798.69 C1834.25,1798.69 1831.92,1800.14 1831.02,1803.05 C1830.12,1805.96 1829.67,1810.38 1829.67,1816.32 C1829.67,1823.31 1830.12,1828.01 1831.02,1830.42 C1831.92,1832.83 1834.25,1834.04 1838.02,1834.04 C1841.8,1834.04 1844.24,1832.58 1845.35,1829.68 C1846.47,1826.77 1847.02,1822.33 1847.02,1816.36 C1847.02,1810.4 1846.47,1805.96 1845.35,1803.05"/>
<path class="FiguredBass" d="M1852.68,1903.05 C1852.68,1904.04 1853.24,1905 1854.35,1905.93 C1855.47,1906.85 1856.69,1907.73 1858.02,1908.57 C1859.35,1909.4 1860.57,1910.98 1861.68,1913.3 C1862.79,1915.62 1863.35,1918.54 1863.35,1922.07 C1863.35,1928.87 1860.78,1934.13 1855.65,1937.84 C1850.52,1941.55 1844.02,1943.41 1836.17,1943.41 C1829.86,1943.41 1824.37,1941.83 1819.7,1938.67 C1815.03,1935.52 1812.7,1931.38 1812.7,1926.24 C1812.7,1923.52 1813.69,1921.16 1815.67,1919.15 C1817.65,1917.14 1820.01,1916.13 1822.76,1916.13 C1825.52,1916.13 1827.85,1917.12 1829.77,1919.1 C1831.68,1921.08 1832.64,1923.46 1832.64,1926.24 C1832.64,1927.48 1831.62,1928.83 1829.58,1930.28 C1827.54,1931.73 1826.52,1933.08 1826.52,1934.31 C1826.52,1936.23 1827.46,1937.64 1829.35,1938.54 C1831.24,1939.43 1833.51,1939.88 1836.17,1939.88 C1839.63,1939.88 1842.09,1938.16 1843.54,1934.73 C1845,1931.3 1845.72,1927.08 1845.72,1922.07 L1845.72,1919.66 C1845.72,1916.32 1845.62,1913.78 1845.4,1912.05 C1845.18,1910.32 1844.5,1908.77 1843.36,1907.41 C1842.21,1906.05 1840.47,1905.37 1838.12,1905.37 L1825.96,1905.37 C1824.54,1905.37 1823.83,1904.6 1823.83,1903.05 C1823.83,1901.63 1824.54,1900.92 1825.96,1900.92 L1838.12,1900.92 C1840.65,1900.92 1842.63,1899.96 1844.05,1898.04 C1844.55,1897.36 1844.95,1896.25 1845.26,1894.7 C1845.57,1892.66 1845.72,1889.72 1845.72,1885.89 L1845.72,1884.68 C1845.72,1875.47 1842.32,1870.86 1835.52,1870.86 C1829.52,1870.86 1826.52,1872.53 1826.52,1875.87 C1826.52,1876.98 1827.43,1878.17 1829.26,1879.44 C1831.08,1880.71 1831.99,1881.9 1831.99,1883.01 C1831.99,1885.42 1831.14,1887.49 1829.44,1889.23 C1827.74,1890.96 1825.67,1891.82 1823.23,1891.82 C1820.78,1891.82 1818.73,1890.96 1817.06,1889.23 C1815.39,1887.49 1814.55,1885.42 1814.55,1883.01 C1814.55,1878.25 1816.62,1874.44 1820.77,1871.6 C1824.91,1868.75 1829.83,1867.33 1835.52,1867.33 C1843,1867.33 1849.16,1868.77 1853.98,1871.65 C1858.81,1874.52 1861.22,1878.87 1861.22,1884.68 C1861.22,1888.82 1860.78,1892.04 1859.92,1894.33 C1859.05,1896.62 1858.06,1898.01 1856.95,1898.5 C1855.84,1899 1854.85,1899.57 1853.98,1900.22 C1853.12,1900.87 1852.68,1901.81 1852.68,1903.05"/>
<path class="FiguredBass" d="M1849.16,2005.37 C1854.11,1999.99 1856.58,1994.79 1856.58,1989.78 C1856.58,1985.7 1854.83,1982.48 1851.34,1980.13 C1847.84,1977.78 1843.65,1976.61 1838.77,1976.61 C1835.3,1976.61 1832.54,1977.69 1830.46,1979.85 C1828.39,1982.02 1827.36,1984.52 1827.36,1987.37 C1827.36,1990.83 1828.87,1993.46 1831.9,1995.25 L1849.16,2005.37 M1853.7,2007.96 C1862.11,2012.85 1866.32,2019.28 1866.32,2027.26 C1866.32,2033.26 1863.75,2038.41 1858.62,2042.71 C1853.49,2047.01 1846.47,2049.16 1837.56,2049.16 C1830.08,2049.16 1823.57,2047.18 1818.03,2043.22 C1812.5,2039.26 1809.73,2034.13 1809.73,2027.82 C1809.73,2025.47 1810.41,2023.09 1811.77,2020.67 C1813.13,2018.26 1814.4,2016.45 1815.57,2015.25 C1816.75,2014.04 1818.67,2012.17 1821.33,2009.63 C1815.14,2005.37 1812.05,1999.99 1812.05,1993.49 C1812.05,1987.93 1814.43,1983.13 1819.19,1979.11 C1823.95,1975.09 1830.48,1973.08 1838.77,1973.08 C1845.38,1973.08 1851.12,1974.58 1855.98,1977.58 C1860.83,1980.58 1863.26,1984.65 1863.26,1989.78 C1863.26,1995.29 1860.07,2001.35 1853.7,2007.96 M1825.87,2012.33 C1819.56,2017.83 1816.41,2022.99 1816.41,2027.82 C1816.41,2032.89 1818.51,2037.13 1822.72,2040.53 C1826.92,2043.93 1831.87,2045.63 1837.56,2045.63 C1841.52,2045.63 1844.69,2044.36 1847.07,2041.83 C1849.45,2039.29 1850.64,2036.35 1850.64,2033.01 C1850.64,2028.75 1848.88,2025.59 1845.35,2023.55 L1825.87,2012.33 "/>
<path class="FiguredBass" d="M2402.3,1765.11 C2397.73,1765.11 2394.68,1766.95 2393.17,1770.63 C2391.65,1774.31 2390.89,1779.52 2390.89,1786.26 L2390.89,1797.21 C2394.11,1795.91 2396.89,1795.23 2399.24,1795.17 C2407.28,1795.17 2413.61,1796.94 2418.21,1800.5 C2422.82,1804.06 2425.13,1809.34 2425.13,1816.36 C2425.13,1823.38 2422.79,1828.69 2418.12,1832.28 C2413.45,1835.86 2407.16,1837.66 2399.24,1837.66 C2391.14,1837.66 2384.8,1833.9 2380.22,1826.38 C2375.65,1818.87 2373.36,1809.95 2373.36,1799.62 C2373.36,1789.35 2376.02,1780.45 2381.34,1772.9 C2386.66,1765.35 2393.65,1761.58 2402.3,1761.58 C2407.99,1761.58 2412.91,1763.02 2417.05,1765.9 C2421.2,1768.77 2423.27,1772.56 2423.27,1777.26 C2423.27,1779.98 2422.28,1782.33 2420.3,1784.31 C2418.32,1786.29 2415.96,1787.28 2413.2,1787.28 C2410.45,1787.28 2408.09,1786.29 2406.11,1784.31 C2404.13,1782.33 2403.14,1779.98 2403.14,1777.26 C2403.14,1774.6 2404.13,1772.25 2406.11,1770.21 C2406.79,1769.41 2407.75,1768.73 2408.98,1768.17 C2408.67,1767.36 2408.06,1766.75 2407.13,1766.31 C2405.77,1765.51 2404.16,1765.11 2402.3,1765.11 M2406.85,1803.05 C2405.74,1800.14 2403.29,1798.69 2399.52,1798.69 C2395.75,1798.69 2393.41,1800.14 2392.52,1803.05 C2391.62,1805.96 2391.17,1810.38 2391.17,1816.32 C2391.17,1823.31 2391.62,1828.01 2392.52,1830.42 C2393.41,1832.83 2395.75,1834.04 2399.52,1834.04 C2403.29,1834.04 2405.74,1832.58 2406.85,1829.68 C2407.96,1826.77 2408.52,1822.33 2408.52,1816.36 C2408.52,1810.4 2407.96,1805.96 2406.85,1803.05"/>
<path class="FiguredBass" d="M2414.18,1903.05 C2414.18,1904.04 2414.74,1905 2415.85,1905.93 C2416.96,1906.85 2418.18,1907.73 2419.51,1908.57 C2420.84,1909.4 2422.06,1910.98 2423.18,1913.3 C2424.29,1915.62 2424.85,1918.54 2424.85,1922.07 C2424.85,1928.87 2422.28,1934.13 2417.15,1937.84 C2412.01,1941.55 2405.52,1943.41 2397.67,1943.41 C2391.36,1943.41 2385.87,1941.83 2381.2,1938.67 C2376.53,1935.52 2374.19,1931.38 2374.19,1926.24 C2374.19,1923.52 2375.18,1921.16 2377.16,1919.15 C2379.14,1917.14 2381.51,1916.13 2384.26,1916.13 C2387.01,1916.13 2389.35,1917.12 2391.26,1919.1 C2393.18,1921.08 2394.14,1923.46 2394.14,1926.24 C2394.14,1927.48 2393.12,1928.83 2391.08,1930.28 C2389.04,1931.73 2388.02,1933.08 2388.02,1934.31 C2388.02,1936.23 2388.96,1937.64 2390.85,1938.54 C2392.73,1939.43 2395.01,1939.88 2397.67,1939.88 C2401.13,1939.88 2403.59,1938.16 2405.04,1934.73 C2406.49,1931.3 2407.22,1927.08 2407.22,1922.07 L2407.22,1919.66 C2407.22,1916.32 2407.11,1913.78 2406.9,1912.05 C2406.68,1910.32 2406,1908.77 2404.86,1907.41 C2403.71,1906.05 2401.96,1905.37 2399.61,1905.37 L2387.46,1905.37 C2386.04,1905.37 2385.33,1904.6 2385.33,1903.05 C2385.33,1901.63 2386.04,1900.92 2387.46,1900.92 L2399.61,1900.92 C2402.15,1900.92 2404.13,1899.96 2405.55,1898.04 C2406.05,1897.36 2406.45,1896.25 2406.76,1894.7 C2407.07,1892.66 2407.22,1889.72 2407.22,1885.89 L2407.22,1884.68 C2407.22,1875.47 2403.82,1870.86 2397.02,1870.86 C2391.02,1870.86 2388.02,1872.53 2388.02,1875.87 C2388.02,1876.98 2388.93,1878.17 2390.75,1879.44 C2392.58,1880.71 2393.49,1881.9 2393.49,1883.01 C2393.49,1885.42 2392.64,1887.49 2390.94,1889.23 C2389.24,1890.96 2387.17,1891.82 2384.72,1891.82 C2382.28,1891.82 2380.22,1890.96 2378.55,1889.23 C2376.88,1887.49 2376.05,1885.42 2376.05,1883.01 C2376.05,1878.25 2378.12,1874.44 2382.26,1871.6 C2386.41,1868.75 2391.33,1867.33 2397.02,1867.33 C2404.5,1867.33 2410.65,1868.77 2415.48,1871.65 C2420.3,1874.52 2422.71,1878.87 2422.71,1884.68 C2422.71,1888.82 2422.28,1892.04 2421.42,1894.33 C2420.55,1896.62 2419.56,1898.01 2418.45,1898.5 C2417.33,1899 2416.34,1899.57 2415.48,1900.22 C2414.61,1900.87 2414.18,1901.81 2414.18,1903.05"/>
<path class="FiguredBass" d="M3069.39,1765.11 C3064.81,1765.11 3061.76,1766.95 3060.25,1770.63 C3058.73,1774.31 3057.98,1779.52 3057.98,1786.26 L3057.98,1797.21 C3061.19,1795.91 3063.98,1795.23 3066.33,1795.17 C3074.37,1795.17 3080.69,1796.94 3085.3,1800.5 C3089.91,1804.06 3092.21,1809.34 3092.21,1816.36 C3092.21,1823.38 3089.87,1828.69 3085.21,1832.28 C3080.54,1835.86 3074.24,1837.66 3066.33,1837.66 C3058.22,1837.66 3051.88,1833.9 3047.31,1826.38 C3042.73,1818.87 3040.44,1809.95 3040.44,1799.62 C3040.44,1789.35 3043.1,1780.45 3048.42,1772.9 C3053.74,1765.35 3060.73,1761.58 3069.39,1761.58 C3075.08,1761.58 3079.99,1763.02 3084.14,1765.9 C3088.28,1768.77 3090.35,1772.56 3090.35,1777.26 C3090.35,1779.98 3089.36,1782.33 3087.39,1784.31 C3085.41,1786.29 3083.04,1787.28 3080.29,1787.28 C3077.54,1787.28 3075.17,1786.29 3073.19,1784.31 C3071.21,1782.33 3070.22,1779.98 3070.22,1777.26 C3070.22,1774.6 3071.21,1772.25 3073.19,1770.21 C3073.87,1769.41 3074.83,1768.73 3076.07,1768.17 C3075.76,1767.36 3075.14,1766.75 3074.21,1766.31 C3072.85,1765.51 3071.24,1765.11 3069.39,1765.11 M3073.93,1803.05 C3072.82,1800.14 3070.38,1798.69 3066.6,1798.69 C3062.83,1798.69 3060.5,1800.14 3059.6,1803.05 C3058.7,1805.96 3058.25,1810.38 3058.25,1816.32 C3058.25,1823.31 3058.7,1828.01 3059.6,1830.42 C3060.5,1832.83 3062.83,1834.04 3066.6,1834.04 C3070.38,1834.04 3072.82,1832.58 3073.93,1829.68 C3075.05,1826.77 3075.6,1822.33 3075.6,1816.36 C3075.6,1810.4 3075.05,1805.96 3073.93,1803.05"/>
<path class="FiguredBass" d="M3081.26,1903.05 C3081.26,1904.04 3081.82,1905 3082.93,1905.93 C3084.05,1906.85 3085.27,1907.73 3086.6,1908.57 C3087.93,1909.4 3089.15,1910.98 3090.26,1913.3 C3091.37,1915.62 3091.93,1918.54 3091.93,1922.07 C3091.93,1928.87 3089.36,1934.13 3084.23,1937.84 C3079.1,1941.55 3072.6,1943.41 3064.75,1943.41 C3058.44,1943.41 3052.95,1941.83 3048.28,1938.67 C3043.61,1935.52 3041.28,1931.38 3041.28,1926.24 C3041.28,1923.52 3042.27,1921.16 3044.25,1919.15 C3046.22,1917.14 3048.59,1916.13 3051.34,1916.13 C3054.1,1916.13 3056.43,1917.12 3058.35,1919.1 C3060.26,1921.08 3061.22,1923.46 3061.22,1926.24 C3061.22,1927.48 3060.2,1928.83 3058.16,1930.28 C3056.12,1931.73 3055.1,1933.08 3055.1,1934.31 C3055.1,1936.23 3056.04,1937.64 3057.93,1938.54 C3059.82,1939.43 3062.09,1939.88 3064.75,1939.88 C3068.21,1939.88 3070.67,1938.16 3072.12,1934.73 C3073.58,1931.3 3074.3,1927.08 3074.3,1922.07 L3074.3,1919.66 C3074.3,1916.32 3074.2,1913.78 3073.98,1912.05 C3073.76,1910.32 3073.08,1908.77 3071.94,1907.41 C3070.79,1906.05 3069.05,1905.37 3066.7,1905.37 L3054.54,1905.37 C3053.12,1905.37 3052.41,1904.6 3052.41,1903.05 C3052.41,1901.63 3053.12,1900.92 3054.54,1900.92 L3066.7,1900.92 C3069.23,1900.92 3071.21,1899.96 3072.63,1898.04 C3073.13,1897.36 3073.53,1896.25 3073.84,1894.7 C3074.15,1892.66 3074.3,1889.72 3074.3,1885.89 L3074.3,1884.68 C3074.3,1875.47 3070.9,1870.86 3064.1,1870.86 C3058.1,1870.86 3055.1,1872.53 3055.1,1875.87 C3055.1,1876.98 3056.01,1878.17 3057.84,1879.44 C3059.66,1880.71 3060.57,1881.9 3060.57,1883.01 C3060.57,1885.42 3059.72,1887.49 3058.02,1889.23 C3056.32,1890.96 3054.25,1891.82 3051.81,1891.82 C3049.36,1891.82 3047.31,1890.96 3045.64,1889.23 C3043.97,1887.49 3043.13,1885.42 3043.13,1883.01 C3043.13,1878.25 3045.2,1874.44 3049.35,1871.6 C3053.49,1868.75 3058.41,1867.33 3064.1,1867.33 C3071.58,1867.33 3077.74,1868.77 3082.56,1871.65 C3087.39,1874.52 3089.8,1878.87 3089.8,1884.68 C3089.8,1888.82 3089.36,1892.04 3088.5,1894.33 C3087.63,1896.62 3086.64,1898.01 3085.53,1898.5 C3084.42,1899 3083.43,1899.57 3082.56,1900.22 C3081.7,1900.87 3081.26,1901.81 3081.26,1903.05"/>
<path class="FiguredBass" d="M3077.74,2005.37 C3082.68,1999.99 3085.16,1994.79 3085.16,1989.78 C3085.16,1985.7 3083.41,1982.48 3079.92,1980.13 C3076.42,1977.78 3072.23,1976.61 3067.35,1976.61 C3063.88,1976.61 3061.12,1977.69 3059.04,1979.85 C3056.97,1982.02 3055.94,1984.52 3055.94,1987.37 C3055.94,1990.83 3057.45,1993.46 3060.48,1995.25 L3077.74,2005.37 M3082.28,2007.96 C3090.69,2012.85 3094.9,2019.28 3094.9,2027.26 C3094.9,2033.26 3092.33,2038.41 3087.2,2042.71 C3082.07,2047.01 3075.05,2049.16 3066.14,2049.16 C3058.66,2049.16 3052.15,2047.18 3046.61,2043.22 C3041.08,2039.26 3038.31,2034.13 3038.31,2027.82 C3038.31,2025.47 3038.99,2023.09 3040.35,2020.67 C3041.71,2018.26 3042.98,2016.45 3044.15,2015.25 C3045.33,2014.04 3047.25,2012.17 3049.9,2009.63 C3043.72,2005.37 3040.63,1999.99 3040.63,1993.49 C3040.63,1987.93 3043.01,1983.13 3047.77,1979.11 C3052.53,1975.09 3059.06,1973.08 3067.35,1973.08 C3073.96,1973.08 3079.7,1974.58 3084.56,1977.58 C3089.41,1980.58 3091.84,1984.65 3091.84,1989.78 C3091.84,1995.29 3088.65,2001.35 3082.28,2007.96 M3054.45,2012.33 C3048.14,2017.83 3044.99,2022.99 3044.99,2027.82 C3044.99,2032.89 3047.09,2037.13 3051.3,2040.53 C3055.5,2043.93 3060.45,2045.63 3066.14,2045.63 C3070.1,2045.63 3073.27,2044.36 3075.65,2041.83 C3078.03,2039.29 3079.22,2036.35 3079.22,2033.01 C3079.22,2028.75 3077.46,2025.59 3073.93,2023.55 L3054.45,2012.33 "/>
<path class="FiguredBass" d="M3702.07,1765.11 C3697.5,1765.11 3694.45,1766.95 3692.94,1770.63 C3691.42,1774.31 3690.66,1779.52 3690.66,1786.26 L3690.66,1797.21 C3693.88,1795.91 3696.66,1795.23 3699.01,1795.17 C3707.05,1795.17 3713.38,1796.94 3717.99,1800.5 C3722.59,1804.06 3724.9,1809.34 3724.9,1816.36 C3724.9,1823.38 3722.56,1828.69 3717.89,1832.28 C3713.22,1835.86 3706.93,1837.66 3699.01,1837.66 C3690.91,1837.66 3684.57,1833.9 3679.99,1826.38 C3675.42,1818.87 3673.13,1809.95 3673.13,1799.62 C3673.13,1789.35 3675.79,1780.45 3681.11,1772.9 C3686.43,1765.35 3693.42,1761.58 3702.07,1761.58 C3707.77,1761.58 3712.68,1763.02 3716.83,1765.9 C3720.97,1768.77 3723.04,1772.56 3723.04,1777.26 C3723.04,1779.98 3722.05,1782.33 3720.07,1784.31 C3718.09,1786.29 3715.73,1787.28 3712.98,1787.28 C3710.22,1787.28 3707.86,1786.29 3705.88,1784.31 C3703.9,1782.33 3702.91,1779.98 3702.91,1777.26 C3702.91,1774.6 3703.9,1772.25 3705.88,1770.21 C3706.56,1769.41 3707.52,1768.73 3708.75,1768.17 C3708.45,1767.36 3707.83,1766.75 3706.9,1766.31 C3705.54,1765.51 3703.93,1765.11 3702.07,1765.11 M3706.62,1803.05 C3705.51,1800.14 3703.06,1798.69 3699.29,1798.69 C3695.52,1798.69 3693.18,1800.14 3692.29,1803.05 C3691.39,1805.96 3690.94,1810.38 3690.94,1816.32 C3690.94,1823.31 3691.39,1828.01 3692.29,1830.42 C3693.18,1832.83 3695.52,1834.04 3699.29,1834.04 C3703.06,1834.04 3705.51,1832.58 3706.62,1829.68 C3707.73,1826.77 3708.29,1822.33 3708.29,1816.36 C3708.29,1810.4 3707.73,1805.96 3706.62,1803.05"/>
<path class="FiguredBass" d="M3713.95,1903.05 C3713.95,1904.04 3714.51,1905 3715.62,1905.93 C3716.73,1906.85 3717.95,1907.73 3719.28,1908.57 C3720.61,1909.4 3721.84,1910.98 3722.95,1913.3 C3724.06,1915.62 3724.62,1918.54 3724.62,1922.07 C3724.62,1928.87 3722.05,1934.13 3716.92,1937.84 C3711.79,1941.55 3705.29,1943.41 3697.44,1943.41 C3691.13,1943.41 3685.64,1941.83 3680.97,1938.67 C3676.3,1935.52 3673.96,1931.38 3673.96,1926.24 C3673.96,1923.52 3674.95,1921.16 3676.93,1919.15 C3678.91,1917.14 3681.28,1916.13 3684.03,1916.13 C3686.78,1916.13 3689.12,1917.12 3691.03,1919.1 C3692.95,1921.08 3693.91,1923.46 3693.91,1926.24 C3693.91,1927.48 3692.89,1928.83 3690.85,1930.28 C3688.81,1931.73 3687.79,1933.08 3687.79,1934.31 C3687.79,1936.23 3688.73,1937.64 3690.62,1938.54 C3692.5,1939.43 3694.78,1939.88 3697.44,1939.88 C3700.9,1939.88 3703.36,1938.16 3704.81,1934.73 C3706.27,1931.3 3706.99,1927.08 3706.99,1922.07 L3706.99,1919.66 C3706.99,1916.32 3706.88,1913.78 3706.67,1912.05 C3706.45,1910.32 3705.77,1908.77 3704.63,1907.41 C3703.48,1906.05 3701.73,1905.37 3699.38,1905.37 L3687.23,1905.37 C3685.81,1905.37 3685.1,1904.6 3685.1,1903.05 C3685.1,1901.63 3685.81,1900.92 3687.23,1900.92 L3699.38,1900.92 C3701.92,1900.92 3703.9,1899.96 3705.32,1898.04 C3705.82,1897.36 3706.22,1896.25 3706.53,1894.7 C3706.84,1892.66 3706.99,1889.72 3706.99,1885.89 L3706.99,1884.68 C3706.99,1875.47 3703.59,1870.86 3696.79,1870.86 C3690.79,1870.86 3687.79,1872.53 3687.79,1875.87 C3687.79,1876.98 3688.7,1878.17 3690.52,1879.44 C3692.35,1880.71 3693.26,1881.9 3693.26,1883.01 C3693.26,1885.42 3692.41,1887.49 3690.71,1889.23 C3689.01,1890.96 3686.94,1891.82 3684.49,1891.82 C3682.05,1891.82 3679.99,1890.96 3678.32,1889.23 C3676.66,1887.49 3675.82,1885.42 3675.82,1883.01 C3675.82,1878.25 3677.89,1874.44 3682.04,1871.6 C3686.18,1868.75 3691.1,1867.33 3696.79,1867.33 C3704.27,1867.33 3710.42,1868.77 3715.25,1871.65 C3720.07,1874.52 3722.49,1878.87 3722.49,1884.68 C3722.49,1888.82 3722.05,1892.04 3721.19,1894.33 C3720.32,1896.62 3719.33,1898.01 3718.22,1898.5 C3717.1,1899 3716.11,1899.57 3715.25,1900.22 C3714.38,1900.87 3713.95,1901.81 3713.95,1903.05"/>
<path class="Bracket" transform="matrix(8.6315,0,0,9.45563,76.1283,2337.37)" d="M0.92002,-50 C2.69004,-51.88 6.2,-55.8 6.2,-63 C6.2,-72.1 2.25996,-81.32 2.25996,-86.97 C2.25996,-93.06 5.84004,-98.84 5.95,-99 C6.05996,-99.16 6.05,-99.39 5.94004,-99.46 C5.82998,-99.53 5.62002,-99.47 5.49004,-99.32 C5.35996,-99.17 0,-93.75 0,-85.6 C0,-76.75 3.5,-70.58 3.5,-59.07 C3.5,-56.89 2.55996,-53.36 0.1,-50.33 C-0.0799805,-50.17 -0.1,-49.89 0.0599609,-49.7 L0.0700195,-49.69 L0.1,-49.66 C2.55996,-46.63 3.5,-43.1 3.5,-40.92 C3.5,-29.4 0,-23.24 0,-14.39 C0,-6.25 5.35996,-0.8 5.49004,-0.659961 C5.62002,-0.52002 5.8,-0.42998 5.94004,-0.52002 C6.07998,-0.609961 6.07998,-0.77998 5.95,-0.97998 C5.82002,-1.17998 2.25996,-6.92002 2.25996,-13.01 C2.25996,-18.66 6.2,-27.9 6.2,-37 C6.2,-44.3 2.69004,-48.12 0.92002,-50"/>
</svg>
