<?xml version="1.0" encoding="UTF-8" standalone="no"?>
<svg width="4209.44px" height="2976.38px" viewBox="0 0 4209.44 2976.38"
 xmlns="http://www.w3.org/2000/svg" xmlns:xlink="http://www.w3.org/1999/xlink" version="1.2" baseProfile="tiny">
<title>CordeRe (19)</title>
<desc>Generated by MuseScore 3.6.2</desc>
<polyline class="StaffLines" fill="none" stroke="#000000" stroke-width="6.55" stroke-linejoin="bevel" points="153.819,569.363 4138.58,569.363"/>
<polyline class="StaffLines" fill="none" stroke="#000000" stroke-width="6.55" stroke-linejoin="bevel" points="153.819,658.655 4138.58,658.655"/>
<polyline class="StaffLines" fill="none" stroke="#000000" stroke-width="6.55" stroke-linejoin="bevel" points="153.819,747.946 4138.58,747.946"/>
<polyline class="StaffLines" fill="none" stroke="#000000" stroke-width="6.55" stroke-linejoin="bevel" points="153.819,837.237 4138.58,837.237"/>
<polyline class="StaffLines" fill="none" stroke="#000000" stroke-width="6.55" stroke-linejoin="bevel" points="153.819,926.529 4138.58,926.529"/>
<polyline class="StaffLines" fill="none" stroke="#000000" stroke-width="6.55" stroke-linejoin="bevel" points="153.819,1015.82 4138.58,1015.82"/>
<polyline class="StaffLines" fill="none" stroke="#000000" stroke-width="6.55" stroke-linejoin="bevel" points="153.819,1402.75 4138.58,1402.75"/>
<polyline class="StaffLines" fill="none" stroke="#000000" stroke-width="6.55" stroke-linejoin="bevel" points="153.819,1462.28 4138.58,1462.28"/>
<polyline class="StaffLines" fill="none" stroke="#000000" stroke-width="6.55" stroke-linejoin="bevel" points="153.819,1521.8 4138.58,1521.8"/>
<polyline class="StaffLines" fill="none" stroke="#000000" stroke-width="6.55" stroke-linejoin="bevel" points="153.819,1581.33 4138.58,1581.33"/>
<polyline class="StaffLines" fill="none" stroke="#000000" stroke-width="6.55" stroke-linejoin="bevel" points="153.819,1640.86 4138.58,1640.86"/>
<polyline class="StaffLines" fill="none" stroke="#000000" stroke-width="6.55" stroke-linejoin="bevel" points="153.819,2110.2 4138.58,2110.2"/>
<polyline class="StaffLines" fill="none" stroke="#000000" stroke-width="6.55" stroke-linejoin="bevel" points="153.819,2169.73 4138.58,2169.73"/>
<polyline class="StaffLines" fill="none" stroke="#000000" stroke-width="6.55" stroke-linejoin="bevel" points="153.819,2229.26 4138.58,2229.26"/>
<polyline class="StaffLines" fill="none" stroke="#000000" stroke-width="6.55" stroke-linejoin="bevel" points="153.819,2288.79 4138.58,2288.79"/>
<polyline class="StaffLines" fill="none" stroke="#000000" stroke-width="6.55" stroke-linejoin="bevel" points="153.819,2348.31 4138.58,2348.31"/>
<polyline class="BarLine" fill="none" stroke="#000000" stroke-width="10.71" stroke-linejoin="bevel" points="159.176,2106.93 159.176,2351.59"/>
<polyline class="BarLine" fill="none" stroke="#000000" stroke-width="10.71" stroke-linejoin="bevel" points="1309.9,2106.93 1309.9,2351.59"/>
<polyline class="BarLine" fill="none" stroke="#000000" stroke-width="10.71" stroke-linejoin="bevel" points="1342.64,2106.93 1342.64,2351.59"/>
<polyline class="BarLine" fill="none" stroke="#000000" stroke-width="10.71" stroke-linejoin="bevel" points="2271.55,2106.93 2271.55,2351.59"/>
<polyline class="BarLine" fill="none" stroke="#000000" stroke-width="10.71" stroke-linejoin="bevel" points="2304.29,2106.93 2304.29,2351.59"/>
<polyline class="BarLine" fill="none" stroke="#000000" stroke-width="10.71" stroke-linejoin="bevel" points="3081.85,2106.93 3081.85,2351.59"/>
<polyline class="BarLine" fill="none" stroke="#000000" stroke-width="10.71" stroke-linejoin="bevel" points="3114.59,2106.93 3114.59,2351.59"/>
<polyline class="BarLine" fill="none" stroke="#000000" stroke-width="10.71" stroke-linejoin="bevel" points="4080.54,2106.93 4080.54,2351.59"/>
<polyline class="BarLine" fill="none" stroke="#000000" stroke-width="32.74" stroke-linejoin="bevel" points="4122.21,2106.93 4122.21,2351.59"/>
<polyline class="BarLine" fill="none" stroke="#000000" stroke-width="10.71" stroke-linejoin="bevel" points="159.176,1399.48 159.176,2110.2"/>
<polyline class="BarLine" fill="none" stroke="#000000" stroke-width="10.71" stroke-linejoin="bevel" points="1309.9,1399.48 1309.9,1644.13"/>
<polyline class="BarLine" fill="none" stroke="#000000" stroke-width="10.71" stroke-linejoin="bevel" points="1342.64,1399.48 1342.64,1644.13"/>
<polyline class="BarLine" fill="none" stroke="#000000" stroke-width="10.71" stroke-linejoin="bevel" points="2271.55,1399.48 2271.55,1644.13"/>
<polyline class="BarLine" fill="none" stroke="#000000" stroke-width="10.71" stroke-linejoin="bevel" points="2304.29,1399.48 2304.29,1644.13"/>
<polyline class="BarLine" fill="none" stroke="#000000" stroke-width="10.71" stroke-linejoin="bevel" points="3081.85,1399.48 3081.85,1644.13"/>
<polyline class="BarLine" fill="none" stroke="#000000" stroke-width="10.71" stroke-linejoin="bevel" points="3114.59,1399.48 3114.59,1644.13"/>
<polyline class="BarLine" fill="none" stroke="#000000" stroke-width="10.71" stroke-linejoin="bevel" points="4080.54,1399.48 4080.54,1644.13"/>
<polyline class="BarLine" fill="none" stroke="#000000" stroke-width="32.74" stroke-linejoin="bevel" points="4122.21,1399.48 4122.21,1644.13"/>
<polyline class="BarLine" fill="none" stroke="#000000" stroke-width="10.71" stroke-linejoin="bevel" points="159.176,566.089 159.176,1402.75"/>
<polyline class="BarLine" fill="none" stroke="#000000" stroke-width="10.71" stroke-linejoin="bevel" points="1309.9,566.089 1309.9,1019.09"/>
<polyline class="BarLine" fill="none" stroke="#000000" stroke-width="10.71" stroke-linejoin="bevel" points="1342.64,566.089 1342.64,1019.09"/>
<polyline class="BarLine" fill="none" stroke="#000000" stroke-width="10.71" stroke-linejoin="bevel" points="2271.55,566.089 2271.55,1019.09"/>
<polyline class="BarLine" fill="none" stroke="#000000" stroke-width="10.71" stroke-linejoin="bevel" points="2304.29,566.089 2304.29,1019.09"/>
<polyline class="BarLine" fill="none" stroke="#000000" stroke-width="10.71" stroke-linejoin="bevel" points="3081.85,566.089 3081.85,1019.09"/>
<polyline class="BarLine" fill="none" stroke="#000000" stroke-width="10.71" stroke-linejoin="bevel" points="3114.59,566.089 3114.59,1019.09"/>
<polyline class="BarLine" fill="none" stroke="#000000" stroke-width="10.71" stroke-linejoin="bevel" points="4080.54,566.089 4080.54,1019.09"/>
<polyline class="BarLine" fill="none" stroke="#000000" stroke-width="32.74" stroke-linejoin="bevel" points="4122.21,566.089 4122.21,1019.09"/>
<path class="Accidental" transform="matrix(2.3811,0,0,2.3811,1465.26,2199.49)" d="M23.3,-10.6 C23.9,-10.7 24.4,-11.4 24.4,-12 L24.4,-17.9 C24.4,-18.7 23.8,-19.3 23,-19.3 L22.8,-19.3 L19.5,-18.6 L19.5,-33.5 L16.7,-33.5 L16.7,-18 L7.8,-16.2 L7.8,-30.3 L5,-30.3 L5,-15.6 L1.1,-14.8 C0.5,-14.7 0,-14 0,-13.4 L0,-13.2 L0,-7.4 L0,-7.6 C0,-6.8 0.6,-6.2 1.4,-6.2 L1.7,-6.2 L5,-6.9 L5,9.6 L1.1,10.4 C0.5,10.5 0,11.2 0,11.8 L0,17.6 C0,18.4 0.6,19 1.4,19 L1.7,19 L5,18.3 L5,33.2 L7.8,33.2 L7.8,17.7 L16.7,15.9 L16.7,30 L19.5,30 L19.5,15.3 L23.3,14.6 C23.9,14.5 24.4,13.8 24.4,13.2 L24.4,7.3 C24.4,6.5 23.8,5.9 23,5.9 L22.8,5.9 L19.5,6.6 L19.5,-9.9 L23.3,-10.6 M7.8,9.1 L7.8,-7.5 L16.7,-9.3 L16.7,7.2 L7.8,9.1 "/>
<path class="Accidental" transform="matrix(2.3811,0,0,2.3811,2367.16,2169.73)" d="M23.3,-10.6 C23.9,-10.7 24.4,-11.4 24.4,-12 L24.4,-17.9 C24.4,-18.7 23.8,-19.3 23,-19.3 L22.8,-19.3 L19.5,-18.6 L19.5,-33.5 L16.7,-33.5 L16.7,-18 L7.8,-16.2 L7.8,-30.3 L5,-30.3 L5,-15.6 L1.1,-14.8 C0.5,-14.7 0,-14 0,-13.4 L0,-13.2 L0,-7.4 L0,-7.6 C0,-6.8 0.6,-6.2 1.4,-6.2 L1.7,-6.2 L5,-6.9 L5,9.6 L1.1,10.4 C0.5,10.5 0,11.2 0,11.8 L0,17.6 C0,18.4 0.6,19 1.4,19 L1.7,19 L5,18.3 L5,33.2 L7.8,33.2 L7.8,17.7 L16.7,15.9 L16.7,30 L19.5,30 L19.5,15.3 L23.3,14.6 C23.9,14.5 24.4,13.8 24.4,13.2 L24.4,7.3 C24.4,6.5 23.8,5.9 23,5.9 L22.8,5.9 L19.5,6.6 L19.5,-9.9 L23.3,-10.6 M7.8,9.1 L7.8,-7.5 L16.7,-9.3 L16.7,7.2 L7.8,9.1 "/>
<path class="Accidental" transform="matrix(2.3811,0,0,2.3811,513.384,1521.8)" d="M20.1,-7.9 C19.5,-11.8 17.1,-15.5 12,-15.5 C7,-15.5 4.1,-12.4 3.6,-11.8 L4,-43.9 C4,-44.7 3.4,-45.3 2.6,-45.3 L1.4,-45.3 C0.6,-45.3 0,-44.7 0,-43.9 L0.5,16.2 C0.5,17 1.1,17.6 1.9,17.6 C2.1,17.6 2.5,17.5 2.7,17.4 C3.1,17.2 9.6,14 15,7.9 C18.8,3.6 20.3,-1.3 20.3,-5.4 C20.3,-6.3 20.2,-7.1 20.1,-7.9 M13.2,-4 C13.2,-2.5 12.8,2.1 10.3,5.9 C8.6,8.5 5.2,11.2 3.3,12.7 L3.6,-6.8 C3.8,-7.7 5.3,-10.6 9.3,-10.6 C12.9,-10.6 13.2,-7.2 13.2,-5.1 L13.2,-4 "/>
<path class="Accidental" transform="matrix(2.3811,0,0,2.3811,1394.07,1581.33)" d="M23.3,-10.6 C23.9,-10.7 24.4,-11.4 24.4,-12 L24.4,-17.9 C24.4,-18.7 23.8,-19.3 23,-19.3 L22.8,-19.3 L19.5,-18.6 L19.5,-33.5 L16.7,-33.5 L16.7,-18 L7.8,-16.2 L7.8,-30.3 L5,-30.3 L5,-15.6 L1.1,-14.8 C0.5,-14.7 0,-14 0,-13.4 L0,-13.2 L0,-7.4 L0,-7.6 C0,-6.8 0.6,-6.2 1.4,-6.2 L1.7,-6.2 L5,-6.9 L5,9.6 L1.1,10.4 C0.5,10.5 0,11.2 0,11.8 L0,17.6 C0,18.4 0.6,19 1.4,19 L1.7,19 L5,18.3 L5,33.2 L7.8,33.2 L7.8,17.7 L16.7,15.9 L16.7,30 L19.5,30 L19.5,15.3 L23.3,14.6 C23.9,14.5 24.4,13.8 24.4,13.2 L24.4,7.3 C24.4,6.5 23.8,5.9 23,5.9 L22.8,5.9 L19.5,6.6 L19.5,-9.9 L23.3,-10.6 M7.8,9.1 L7.8,-7.5 L16.7,-9.3 L16.7,7.2 L7.8,9.1 "/>
<path class="Accidental" transform="matrix(2.3811,0,0,2.3811,1465.26,1492.04)" d="M23.3,-10.6 C23.9,-10.7 24.4,-11.4 24.4,-12 L24.4,-17.9 C24.4,-18.7 23.8,-19.3 23,-19.3 L22.8,-19.3 L19.5,-18.6 L19.5,-33.5 L16.7,-33.5 L16.7,-18 L7.8,-16.2 L7.8,-30.3 L5,-30.3 L5,-15.6 L1.1,-14.8 C0.5,-14.7 0,-14 0,-13.4 L0,-13.2 L0,-7.4 L0,-7.6 C0,-6.8 0.6,-6.2 1.4,-6.2 L1.7,-6.2 L5,-6.9 L5,9.6 L1.1,10.4 C0.5,10.5 0,11.2 0,11.8 L0,17.6 C0,18.4 0.6,19 1.4,19 L1.7,19 L5,18.3 L5,33.2 L7.8,33.2 L7.8,17.7 L16.7,15.9 L16.7,30 L19.5,30 L19.5,15.3 L23.3,14.6 C23.9,14.5 24.4,13.8 24.4,13.2 L24.4,7.3 C24.4,6.5 23.8,5.9 23,5.9 L22.8,5.9 L19.5,6.6 L19.5,-9.9 L23.3,-10.6 M7.8,9.1 L7.8,-7.5 L16.7,-9.3 L16.7,7.2 L7.8,9.1 "/>
<path class="Accidental" transform="matrix(2.3811,0,0,2.3811,3238.88,1521.8)" d="M20.1,-7.9 C19.5,-11.8 17.1,-15.5 12,-15.5 C7,-15.5 4.1,-12.4 3.6,-11.8 L4,-43.9 C4,-44.7 3.4,-45.3 2.6,-45.3 L1.4,-45.3 C0.6,-45.3 0,-44.7 0,-43.9 L0.5,16.2 C0.5,17 1.1,17.6 1.9,17.6 C2.1,17.6 2.5,17.5 2.7,17.4 C3.1,17.2 9.6,14 15,7.9 C18.8,3.6 20.3,-1.3 20.3,-5.4 C20.3,-6.3 20.2,-7.1 20.1,-7.9 M13.2,-4 C13.2,-2.5 12.8,2.1 10.3,5.9 C8.6,8.5 5.2,11.2 3.3,12.7 L3.6,-6.8 C3.8,-7.7 5.3,-10.6 9.3,-10.6 C12.9,-10.6 13.2,-7.2 13.2,-5.1 L13.2,-4 "/>
<path class="Accidental" transform="matrix(2.3811,0,0,2.3811,3177.46,1462.28)" d="M20.1,-7.9 C19.5,-11.8 17.1,-15.5 12,-15.5 C7,-15.5 4.1,-12.4 3.6,-11.8 L4,-43.9 C4,-44.7 3.4,-45.3 2.6,-45.3 L1.4,-45.3 C0.6,-45.3 0,-44.7 0,-43.9 L0.5,16.2 C0.5,17 1.1,17.6 1.9,17.6 C2.1,17.6 2.5,17.5 2.7,17.4 C3.1,17.2 9.6,14 15,7.9 C18.8,3.6 20.3,-1.3 20.3,-5.4 C20.3,-6.3 20.2,-7.1 20.1,-7.9 M13.2,-4 C13.2,-2.5 12.8,2.1 10.3,5.9 C8.6,8.5 5.2,11.2 3.3,12.7 L3.6,-6.8 C3.8,-7.7 5.3,-10.6 9.3,-10.6 C12.9,-10.6 13.2,-7.2 13.2,-5.1 L13.2,-4 "/>
<path class="Accidental" transform="matrix(2.3811,0,0,2.3811,3300.31,1432.51)" d="M20.1,-7.9 C19.5,-11.8 17.1,-15.5 12,-15.5 C7,-15.5 4.1,-12.4 3.6,-11.8 L4,-43.9 C4,-44.7 3.4,-45.3 2.6,-45.3 L1.4,-45.3 C0.6,-45.3 0,-44.7 0,-43.9 L0.5,16.2 C0.5,17 1.1,17.6 1.9,17.6 C2.1,17.6 2.5,17.5 2.7,17.4 C3.1,17.2 9.6,14 15,7.9 C18.8,3.6 20.3,-1.3 20.3,-5.4 C20.3,-6.3 20.2,-7.1 20.1,-7.9 M13.2,-4 C13.2,-2.5 12.8,2.1 10.3,5.9 C8.6,8.5 5.2,11.2 3.3,12.7 L3.6,-6.8 C3.8,-7.7 5.3,-10.6 9.3,-10.6 C12.9,-10.6 13.2,-7.2 13.2,-5.1 L13.2,-4 "/>
<path class="Note" transform="matrix(2.3811,0,0,2.3811,576.595,2199.49)" d="M18.7,-13.6 C4.9,-13.6 0,-6.6 0,-0.1 C0,6.4 4.9,13.4 18.7,13.4 C32.5,13.4 37.3,6.4 37.3,-0.1 C37.3,-6.6 32.5,-13.6 18.7,-13.6 M10.4,-4.5 C10.3,-4.9 10.3,-5.3 10.3,-5.7 C10.3,-6.5 10.5,-7.3 10.9,-8 C11.6,-9 12.8,-9.7 14.3,-10 C15.6,-10.3 16.3,-10.5 18.9,-10.5 L19,-10.5 C23,-10.5 24.3,-6.8 25.4,-3 L25.7,-2 C26.5,0.6 26.9,2.8 26.9,4.5 C26.9,5.7 26.7,6.8 26.3,7.6 C25.7,8.7 24.7,9.4 23,9.8 C22.1,10 20.6,10.1 20.6,10.1 C20.1,10.1 19.7,10.2 19.3,10.2 C16.1,10.2 14.1,9 12.7,4.7 C11.5,1 11.3,-0.1 10.4,-4.5"/>
<path class="Note" transform="matrix(2.3811,0,0,2.3811,1538.24,2199.49)" d="M18.7,-13.6 C4.9,-13.6 0,-6.6 0,-0.1 C0,6.4 4.9,13.4 18.7,13.4 C32.5,13.4 37.3,6.4 37.3,-0.1 C37.3,-6.6 32.5,-13.6 18.7,-13.6 M10.4,-4.5 C10.3,-4.9 10.3,-5.3 10.3,-5.7 C10.3,-6.5 10.5,-7.3 10.9,-8 C11.6,-9 12.8,-9.7 14.3,-10 C15.6,-10.3 16.3,-10.5 18.9,-10.5 L19,-10.5 C23,-10.5 24.3,-6.8 25.4,-3 L25.7,-2 C26.5,0.6 26.9,2.8 26.9,4.5 C26.9,5.7 26.7,6.8 26.3,7.6 C25.7,8.7 24.7,9.4 23,9.8 C22.1,10 20.6,10.1 20.6,10.1 C20.1,10.1 19.7,10.2 19.3,10.2 C16.1,10.2 14.1,9 12.7,4.7 C11.5,1 11.3,-0.1 10.4,-4.5"/>
<path class="Note" transform="matrix(2.3811,0,0,2.3811,2440.13,2169.73)" d="M18.7,-13.6 C4.9,-13.6 0,-6.6 0,-0.1 C0,6.4 4.9,13.4 18.7,13.4 C32.5,13.4 37.3,6.4 37.3,-0.1 C37.3,-6.6 32.5,-13.6 18.7,-13.6 M10.4,-4.5 C10.3,-4.9 10.3,-5.3 10.3,-5.7 C10.3,-6.5 10.5,-7.3 10.9,-8 C11.6,-9 12.8,-9.7 14.3,-10 C15.6,-10.3 16.3,-10.5 18.9,-10.5 L19,-10.5 C23,-10.5 24.3,-6.8 25.4,-3 L25.7,-2 C26.5,0.6 26.9,2.8 26.9,4.5 C26.9,5.7 26.7,6.8 26.3,7.6 C25.7,8.7 24.7,9.4 23,9.8 C22.1,10 20.6,10.1 20.6,10.1 C20.1,10.1 19.7,10.2 19.3,10.2 C16.1,10.2 14.1,9 12.7,4.7 C11.5,1 11.3,-0.1 10.4,-4.5"/>
<path class="Note" transform="matrix(2.3811,0,0,2.3811,3451.5,2139.97)" d="M18.7,-13.6 C4.9,-13.6 0,-6.6 0,-0.1 C0,6.4 4.9,13.4 18.7,13.4 C32.5,13.4 37.3,6.4 37.3,-0.1 C37.3,-6.6 32.5,-13.6 18.7,-13.6 M10.4,-4.5 C10.3,-4.9 10.3,-5.3 10.3,-5.7 C10.3,-6.5 10.5,-7.3 10.9,-8 C11.6,-9 12.8,-9.7 14.3,-10 C15.6,-10.3 16.3,-10.5 18.9,-10.5 L19,-10.5 C23,-10.5 24.3,-6.8 25.4,-3 L25.7,-2 C26.5,0.6 26.9,2.8 26.9,4.5 C26.9,5.7 26.7,6.8 26.3,7.6 C25.7,8.7 24.7,9.4 23,9.8 C22.1,10 20.6,10.1 20.6,10.1 C20.1,10.1 19.7,10.2 19.3,10.2 C16.1,10.2 14.1,9 12.7,4.7 C11.5,1 11.3,-0.1 10.4,-4.5"/>
<path class="Note" transform="matrix(2.3811,0,0,2.3811,576.595,1581.33)" d="M18.7,-13.6 C4.9,-13.6 0,-6.6 0,-0.1 C0,6.4 4.9,13.4 18.7,13.4 C32.5,13.4 37.3,6.4 37.3,-0.1 C37.3,-6.6 32.5,-13.6 18.7,-13.6 M10.4,-4.5 C10.3,-4.9 10.3,-5.3 10.3,-5.7 C10.3,-6.5 10.5,-7.3 10.9,-8 C11.6,-9 12.8,-9.7 14.3,-10 C15.6,-10.3 16.3,-10.5 18.9,-10.5 L19,-10.5 C23,-10.5 24.3,-6.8 25.4,-3 L25.7,-2 C26.5,0.6 26.9,2.8 26.9,4.5 C26.9,5.7 26.7,6.8 26.3,7.6 C25.7,8.7 24.7,9.4 23,9.8 C22.1,10 20.6,10.1 20.6,10.1 C20.1,10.1 19.7,10.2 19.3,10.2 C16.1,10.2 14.1,9 12.7,4.7 C11.5,1 11.3,-0.1 10.4,-4.5"/>
<path class="Note" transform="matrix(2.3811,0,0,2.3811,576.595,1521.8)" d="M18.7,-13.6 C4.9,-13.6 0,-6.6 0,-0.1 C0,6.4 4.9,13.4 18.7,13.4 C32.5,13.4 37.3,6.4 37.3,-0.1 C37.3,-6.6 32.5,-13.6 18.7,-13.6 M10.4,-4.5 C10.3,-4.9 10.3,-5.3 10.3,-5.7 C10.3,-6.5 10.5,-7.3 10.9,-8 C11.6,-9 12.8,-9.7 14.3,-10 C15.6,-10.3 16.3,-10.5 18.9,-10.5 L19,-10.5 C23,-10.5 24.3,-6.8 25.4,-3 L25.7,-2 C26.5,0.6 26.9,2.8 26.9,4.5 C26.9,5.7 26.7,6.8 26.3,7.6 C25.7,8.7 24.7,9.4 23,9.8 C22.1,10 20.6,10.1 20.6,10.1 C20.1,10.1 19.7,10.2 19.3,10.2 C16.1,10.2 14.1,9 12.7,4.7 C11.5,1 11.3,-0.1 10.4,-4.5"/>
<path class="Note" transform="matrix(2.3811,0,0,2.3811,658.854,1492.04)" d="M18.7,-13.6 C4.9,-13.6 0,-6.6 0,-0.1 C0,6.4 4.9,13.4 18.7,13.4 C32.5,13.4 37.3,6.4 37.3,-0.1 C37.3,-6.6 32.5,-13.6 18.7,-13.6 M10.4,-4.5 C10.3,-4.9 10.3,-5.3 10.3,-5.7 C10.3,-6.5 10.5,-7.3 10.9,-8 C11.6,-9 12.8,-9.7 14.3,-10 C15.6,-10.3 16.3,-10.5 18.9,-10.5 L19,-10.5 C23,-10.5 24.3,-6.8 25.4,-3 L25.7,-2 C26.5,0.6 26.9,2.8 26.9,4.5 C26.9,5.7 26.7,6.8 26.3,7.6 C25.7,8.7 24.7,9.4 23,9.8 C22.1,10 20.6,10.1 20.6,10.1 C20.1,10.1 19.7,10.2 19.3,10.2 C16.1,10.2 14.1,9 12.7,4.7 C11.5,1 11.3,-0.1 10.4,-4.5"/>
<path class="Note" transform="matrix(2.3811,0,0,2.3811,1538.24,1581.33)" d="M18.7,-13.6 C4.9,-13.6 0,-6.6 0,-0.1 C0,6.4 4.9,13.4 18.7,13.4 C32.5,13.4 37.3,6.4 37.3,-0.1 C37.3,-6.6 32.5,-13.6 18.7,-13.6 M10.4,-4.5 C10.3,-4.9 10.3,-5.3 10.3,-5.7 C10.3,-6.5 10.5,-7.3 10.9,-8 C11.6,-9 12.8,-9.7 14.3,-10 C15.6,-10.3 16.3,-10.5 18.9,-10.5 L19,-10.5 C23,-10.5 24.3,-6.8 25.4,-3 L25.7,-2 C26.5,0.6 26.9,2.8 26.9,4.5 C26.9,5.7 26.7,6.8 26.3,7.6 C25.7,8.7 24.7,9.4 23,9.8 C22.1,10 20.6,10.1 20.6,10.1 C20.1,10.1 19.7,10.2 19.3,10.2 C16.1,10.2 14.1,9 12.7,4.7 C11.5,1 11.3,-0.1 10.4,-4.5"/>
<path class="Note" transform="matrix(2.3811,0,0,2.3811,1538.24,1521.8)" d="M18.7,-13.6 C4.9,-13.6 0,-6.6 0,-0.1 C0,6.4 4.9,13.4 18.7,13.4 C32.5,13.4 37.3,6.4 37.3,-0.1 C37.3,-6.6 32.5,-13.6 18.7,-13.6 M10.4,-4.5 C10.3,-4.9 10.3,-5.3 10.3,-5.7 C10.3,-6.5 10.5,-7.3 10.9,-8 C11.6,-9 12.8,-9.7 14.3,-10 C15.6,-10.3 16.3,-10.5 18.9,-10.5 L19,-10.5 C23,-10.5 24.3,-6.8 25.4,-3 L25.7,-2 C26.5,0.6 26.9,2.8 26.9,4.5 C26.9,5.7 26.7,6.8 26.3,7.6 C25.7,8.7 24.7,9.4 23,9.8 C22.1,10 20.6,10.1 20.6,10.1 C20.1,10.1 19.7,10.2 19.3,10.2 C16.1,10.2 14.1,9 12.7,4.7 C11.5,1 11.3,-0.1 10.4,-4.5"/>
<path class="Note" transform="matrix(2.3811,0,0,2.3811,1620.5,1492.04)" d="M18.7,-13.6 C4.9,-13.6 0,-6.6 0,-0.1 C0,6.4 4.9,13.4 18.7,13.4 C32.5,13.4 37.3,6.4 37.3,-0.1 C37.3,-6.6 32.5,-13.6 18.7,-13.6 M10.4,-4.5 C10.3,-4.9 10.3,-5.3 10.3,-5.7 C10.3,-6.5 10.5,-7.3 10.9,-8 C11.6,-9 12.8,-9.7 14.3,-10 C15.6,-10.3 16.3,-10.5 18.9,-10.5 L19,-10.5 C23,-10.5 24.3,-6.8 25.4,-3 L25.7,-2 C26.5,0.6 26.9,2.8 26.9,4.5 C26.9,5.7 26.7,6.8 26.3,7.6 C25.7,8.7 24.7,9.4 23,9.8 C22.1,10 20.6,10.1 20.6,10.1 C20.1,10.1 19.7,10.2 19.3,10.2 C16.1,10.2 14.1,9 12.7,4.7 C11.5,1 11.3,-0.1 10.4,-4.5"/>
<path class="Note" transform="matrix(2.3811,0,0,2.3811,2440.13,1551.57)" d="M18.7,-13.6 C4.9,-13.6 0,-6.6 0,-0.1 C0,6.4 4.9,13.4 18.7,13.4 C32.5,13.4 37.3,6.4 37.3,-0.1 C37.3,-6.6 32.5,-13.6 18.7,-13.6 M10.4,-4.5 C10.3,-4.9 10.3,-5.3 10.3,-5.7 C10.3,-6.5 10.5,-7.3 10.9,-8 C11.6,-9 12.8,-9.7 14.3,-10 C15.6,-10.3 16.3,-10.5 18.9,-10.5 L19,-10.5 C23,-10.5 24.3,-6.8 25.4,-3 L25.7,-2 C26.5,0.6 26.9,2.8 26.9,4.5 C26.9,5.7 26.7,6.8 26.3,7.6 C25.7,8.7 24.7,9.4 23,9.8 C22.1,10 20.6,10.1 20.6,10.1 C20.1,10.1 19.7,10.2 19.3,10.2 C16.1,10.2 14.1,9 12.7,4.7 C11.5,1 11.3,-0.1 10.4,-4.5"/>
<path class="Note" transform="matrix(2.3811,0,0,2.3811,2357.87,1492.04)" d="M18.7,-13.6 C4.9,-13.6 0,-6.6 0,-0.1 C0,6.4 4.9,13.4 18.7,13.4 C32.5,13.4 37.3,6.4 37.3,-0.1 C37.3,-6.6 32.5,-13.6 18.7,-13.6 M10.4,-4.5 C10.3,-4.9 10.3,-5.3 10.3,-5.7 C10.3,-6.5 10.5,-7.3 10.9,-8 C11.6,-9 12.8,-9.7 14.3,-10 C15.6,-10.3 16.3,-10.5 18.9,-10.5 L19,-10.5 C23,-10.5 24.3,-6.8 25.4,-3 L25.7,-2 C26.5,0.6 26.9,2.8 26.9,4.5 C26.9,5.7 26.7,6.8 26.3,7.6 C25.7,8.7 24.7,9.4 23,9.8 C22.1,10 20.6,10.1 20.6,10.1 C20.1,10.1 19.7,10.2 19.3,10.2 C16.1,10.2 14.1,9 12.7,4.7 C11.5,1 11.3,-0.1 10.4,-4.5"/>
<path class="Note" transform="matrix(2.3811,0,0,2.3811,2440.13,1462.28)" d="M18.7,-13.6 C4.9,-13.6 0,-6.6 0,-0.1 C0,6.4 4.9,13.4 18.7,13.4 C32.5,13.4 37.3,6.4 37.3,-0.1 C37.3,-6.6 32.5,-13.6 18.7,-13.6 M10.4,-4.5 C10.3,-4.9 10.3,-5.3 10.3,-5.7 C10.3,-6.5 10.5,-7.3 10.9,-8 C11.6,-9 12.8,-9.7 14.3,-10 C15.6,-10.3 16.3,-10.5 18.9,-10.5 L19,-10.5 C23,-10.5 24.3,-6.8 25.4,-3 L25.7,-2 C26.5,0.6 26.9,2.8 26.9,4.5 C26.9,5.7 26.7,6.8 26.3,7.6 C25.7,8.7 24.7,9.4 23,9.8 C22.1,10 20.6,10.1 20.6,10.1 C20.1,10.1 19.7,10.2 19.3,10.2 C16.1,10.2 14.1,9 12.7,4.7 C11.5,1 11.3,-0.1 10.4,-4.5"/>
<path class="Note" transform="matrix(2.3811,0,0,2.3811,3451.5,1521.8)" d="M18.7,-13.6 C4.9,-13.6 0,-6.6 0,-0.1 C0,6.4 4.9,13.4 18.7,13.4 C32.5,13.4 37.3,6.4 37.3,-0.1 C37.3,-6.6 32.5,-13.6 18.7,-13.6 M10.4,-4.5 C10.3,-4.9 10.3,-5.3 10.3,-5.7 C10.3,-6.5 10.5,-7.3 10.9,-8 C11.6,-9 12.8,-9.7 14.3,-10 C15.6,-10.3 16.3,-10.5 18.9,-10.5 L19,-10.5 C23,-10.5 24.3,-6.8 25.4,-3 L25.7,-2 C26.5,0.6 26.9,2.8 26.9,4.5 C26.9,5.7 26.7,6.8 26.3,7.6 C25.7,8.7 24.7,9.4 23,9.8 C22.1,10 20.6,10.1 20.6,10.1 C20.1,10.1 19.7,10.2 19.3,10.2 C16.1,10.2 14.1,9 12.7,4.7 C11.5,1 11.3,-0.1 10.4,-4.5"/>
<path class="Note" transform="matrix(2.3811,0,0,2.3811,3369.24,1462.28)" d="M18.7,-13.6 C4.9,-13.6 0,-6.6 0,-0.1 C0,6.4 4.9,13.4 18.7,13.4 C32.5,13.4 37.3,6.4 37.3,-0.1 C37.3,-6.6 32.5,-13.6 18.7,-13.6 M10.4,-4.5 C10.3,-4.9 10.3,-5.3 10.3,-5.7 C10.3,-6.5 10.5,-7.3 10.9,-8 C11.6,-9 12.8,-9.7 14.3,-10 C15.6,-10.3 16.3,-10.5 18.9,-10.5 L19,-10.5 C23,-10.5 24.3,-6.8 25.4,-3 L25.7,-2 C26.5,0.6 26.9,2.8 26.9,4.5 C26.9,5.7 26.7,6.8 26.3,7.6 C25.7,8.7 24.7,9.4 23,9.8 C22.1,10 20.6,10.1 20.6,10.1 C20.1,10.1 19.7,10.2 19.3,10.2 C16.1,10.2 14.1,9 12.7,4.7 C11.5,1 11.3,-0.1 10.4,-4.5"/>
<path class="Note" transform="matrix(2.3811,0,0,2.3811,3451.5,1432.51)" d="M18.7,-13.6 C4.9,-13.6 0,-6.6 0,-0.1 C0,6.4 4.9,13.4 18.7,13.4 C32.5,13.4 37.3,6.4 37.3,-0.1 C37.3,-6.6 32.5,-13.6 18.7,-13.6 M10.4,-4.5 C10.3,-4.9 10.3,-5.3 10.3,-5.7 C10.3,-6.5 10.5,-7.3 10.9,-8 C11.6,-9 12.8,-9.7 14.3,-10 C15.6,-10.3 16.3,-10.5 18.9,-10.5 L19,-10.5 C23,-10.5 24.3,-6.8 25.4,-3 L25.7,-2 C26.5,0.6 26.9,2.8 26.9,4.5 C26.9,5.7 26.7,6.8 26.3,7.6 C25.7,8.7 24.7,9.4 23,9.8 C22.1,10 20.6,10.1 20.6,10.1 C20.1,10.1 19.7,10.2 19.3,10.2 C16.1,10.2 14.1,9 12.7,4.7 C11.5,1 11.3,-0.1 10.4,-4.5"/>
<path class="Note" d="M611.138,921.347 C607.341,921.347 605.443,917.28 605.443,909.145 L605.443,875.095 C605.443,871.841 607.031,870.214 610.208,870.214 C611.602,870.214 612.648,870.331 613.346,870.563 C615.825,866.224 619.892,862.583 625.548,859.639 C633.45,855.533 641.469,853.48 649.603,853.48 C656.034,853.48 659.249,855.882 659.249,860.685 C659.249,864.714 657.08,866.728 652.741,866.728 C649.642,866.728 646.698,866.031 643.909,864.636 C641.43,863.397 638.796,862.777 636.007,862.777 C631.203,862.777 624.114,865.915 614.74,872.19 C616.057,878.465 616.716,885.787 616.716,894.154 C616.716,912.283 614.856,921.347 611.138,921.347"/>
<path class="Note" d="M544.325,598.854 C544.635,587.155 551.104,576.774 563.733,567.709 C574.966,559.652 587.246,555.624 600.571,555.624 C619.243,555.624 635.706,562.945 649.961,577.587 C659.026,586.962 663.558,598.583 663.558,612.451 C663.558,624.924 660.226,634.492 653.564,641.155 C645.429,649.367 636.829,653.473 627.765,653.473 C621.567,653.473 616.763,652.079 613.355,649.29 C607.776,644.719 604.987,638.598 604.987,630.928 C604.987,621.012 609.946,611.947 619.862,603.735 C627.997,596.995 636.171,592.579 644.383,590.487 C642.214,586.768 639.463,583.282 636.132,580.028 C625.75,569.879 613.974,564.804 600.804,564.804 C587.091,564.804 575.741,567.787 566.754,573.752 C557.457,579.873 549.981,588.24 544.325,598.854 M647.288,596.646 C643.027,600.597 638.766,604.82 634.505,609.313 C626.138,618.145 621.954,626.512 621.954,634.415 C621.954,642.859 623.891,647.082 627.765,647.082 C631.251,647.082 636.132,642.317 642.407,632.788 C647.443,625.195 649.961,618.223 649.961,611.87 C649.961,606.446 649.07,601.372 647.288,596.646"/>
<path class="Note" d="M662.503,502.706 C672.962,496.121 680.554,490.737 685.28,486.553 C693.957,478.883 698.296,471.136 698.296,463.311 C698.296,454.169 692.175,449.598 679.934,449.598 C667.074,449.598 653.671,458.856 639.725,477.372 C630.274,489.923 623.572,501.777 619.621,512.933 C624.502,509.756 629.654,508.168 635.077,508.168 C640.19,508.168 644.258,510.454 647.279,515.025 C649.371,518.201 650.417,523.624 650.417,531.294 C650.417,538.189 646.776,546.285 639.493,555.582 C635,561.315 630.002,564.182 624.502,564.182 C617.529,564.182 612.648,562.787 609.859,559.998 C605.908,556.047 603.932,548.222 603.932,536.524 C603.932,516.845 611.874,497.477 627.756,478.418 C645.652,456.958 662.813,446.228 679.237,446.228 C691.943,446.228 701.433,449.21 707.709,455.176 C711.35,458.662 713.171,463.698 713.171,470.283 C713.171,477.643 705.927,485.856 691.439,494.92 C683.847,499.723 674.201,502.319 662.503,502.706 M618.11,517.814 C616.173,524.321 615.205,530.558 615.205,536.524 C615.205,550.701 617.452,557.79 621.945,557.79 C626.206,557.79 629.538,554.769 631.939,548.726 C634.728,541.908 636.123,534.354 636.123,526.065 C636.123,518.705 633.682,515.025 628.802,515.025 C625.393,515.025 621.829,515.954 618.11,517.814"/>
<path class="Note" d="M662.503,681.289 C672.962,674.704 680.554,669.319 685.28,665.136 C693.957,657.466 698.296,649.718 698.296,641.893 C698.296,632.751 692.175,628.181 679.934,628.181 C667.074,628.181 653.671,637.439 639.725,655.955 C630.274,668.506 623.572,680.359 619.621,691.515 C624.502,688.339 629.654,686.751 635.077,686.751 C640.19,686.751 644.258,689.036 647.279,693.607 C649.371,696.784 650.417,702.207 650.417,709.877 C650.417,716.772 646.776,724.868 639.493,734.165 C635,739.898 630.002,742.764 624.502,742.764 C617.529,742.764 612.648,741.37 609.859,738.581 C605.908,734.63 603.932,726.805 603.932,715.106 C603.932,695.428 611.874,676.059 627.756,657.001 C645.652,635.541 662.813,624.81 679.237,624.81 C691.943,624.81 701.433,627.793 707.709,633.759 C711.35,637.245 713.171,642.281 713.171,648.866 C713.171,656.226 705.927,664.438 691.439,673.503 C683.847,678.306 674.201,680.902 662.503,681.289 M618.11,696.396 C616.173,702.904 615.205,709.141 615.205,715.106 C615.205,729.284 617.452,736.373 621.945,736.373 C626.206,736.373 629.538,733.351 631.939,727.308 C634.728,720.491 636.123,712.937 636.123,704.647 C636.123,697.287 633.682,693.607 628.802,693.607 C625.393,693.607 621.829,694.537 618.11,696.396"/>
<path class="Note" d="M1505.97,866.728 C1506.28,855.029 1512.75,844.648 1525.38,835.584 C1536.61,827.526 1548.89,823.498 1562.22,823.498 C1580.89,823.498 1597.35,830.819 1611.61,845.461 C1620.67,854.836 1625.2,866.457 1625.2,880.325 C1625.2,892.798 1621.87,902.366 1615.21,909.029 C1607.07,917.241 1598.47,921.347 1589.41,921.347 C1583.21,921.347 1578.41,919.953 1575,917.164 C1569.42,912.593 1566.63,906.472 1566.63,898.802 C1566.63,888.886 1571.59,879.821 1581.51,871.609 C1589.64,864.869 1597.81,860.453 1606.03,858.361 C1603.86,854.642 1601.11,851.156 1597.78,847.902 C1587.39,837.753 1575.62,832.678 1562.45,832.678 C1548.74,832.678 1537.39,835.661 1528.4,841.626 C1519.1,847.747 1511.63,856.114 1505.97,866.728 M1608.93,864.52 C1604.67,868.471 1600.41,872.694 1596.15,877.187 C1587.78,886.019 1583.6,894.386 1583.6,902.289 C1583.6,910.733 1585.54,914.956 1589.41,914.956 C1592.9,914.956 1597.78,910.191 1604.05,900.662 C1609.09,893.069 1611.61,886.097 1611.61,879.744 C1611.61,874.32 1610.71,869.246 1608.93,864.52"/>
<path class="Note" d="M1652.85,627.209 C1646.5,637.204 1636.47,645.493 1622.75,652.079 C1610.82,657.812 1599.67,660.678 1589.28,660.678 C1580.99,660.678 1574.1,659.013 1568.6,655.681 C1562.63,652.04 1559.65,647.701 1559.65,642.666 C1559.65,631.277 1562.63,621.476 1568.6,613.264 C1576.73,602.108 1584.95,596.53 1593.23,596.53 C1599.12,596.53 1603.31,597.692 1605.79,600.016 C1609.19,603.038 1610.9,607.182 1610.9,612.451 C1610.9,619.888 1605.36,626.357 1594.28,631.858 C1583.51,637.204 1576.04,640.69 1571.85,642.317 C1572.78,644.254 1573.98,645.997 1575.45,647.546 C1579.1,651.42 1584.05,653.357 1590.33,653.357 C1598.23,653.357 1608.85,650.452 1622.17,644.641 C1634.95,638.986 1645.18,633.175 1652.85,627.209 M1570.23,636.971 C1576.04,634.027 1581.34,630.58 1586.15,626.628 C1593.27,620.818 1596.84,614.542 1596.84,607.802 C1596.84,604.006 1595.09,602.108 1591.61,602.108 C1588.66,602.108 1584.64,605.478 1579.52,612.218 C1573.09,620.585 1569.88,627.403 1569.88,632.671 C1569.88,634.143 1569.99,635.577 1570.23,636.971"/>
<path class="Note" d="M1572.78,564.182 C1568.99,564.182 1567.09,560.114 1567.09,551.98 L1567.09,517.93 C1567.09,514.676 1568.68,513.049 1571.85,513.049 C1573.25,513.049 1574.29,513.165 1574.99,513.398 C1577.47,509.059 1581.54,505.418 1587.19,502.474 C1595.09,498.368 1603.11,496.315 1611.25,496.315 C1617.68,496.315 1620.89,498.716 1620.89,503.52 C1620.89,507.548 1618.72,509.563 1614.39,509.563 C1611.29,509.563 1608.34,508.865 1605.55,507.471 C1603.07,506.231 1600.44,505.612 1597.65,505.612 C1592.85,505.612 1585.76,508.749 1576.38,515.025 C1577.7,521.3 1578.36,528.621 1578.36,536.988 C1578.36,555.117 1576.5,564.182 1572.78,564.182"/>
<path class="Note" d="M1572.78,742.764 C1568.99,742.764 1567.09,738.697 1567.09,730.562 L1567.09,696.513 C1567.09,693.259 1568.68,691.632 1571.85,691.632 C1573.25,691.632 1574.29,691.748 1574.99,691.98 C1577.47,687.642 1581.54,684.001 1587.19,681.056 C1595.09,676.95 1603.11,674.897 1611.25,674.897 C1617.68,674.897 1620.89,677.299 1620.89,682.102 C1620.89,686.131 1618.72,688.145 1614.39,688.145 C1611.29,688.145 1608.34,687.448 1605.55,686.054 C1603.07,684.814 1600.44,684.194 1597.65,684.194 C1592.85,684.194 1585.76,687.332 1576.38,693.607 C1577.7,699.883 1578.36,707.204 1578.36,715.571 C1578.36,733.7 1576.5,742.764 1572.78,742.764"/>
<path class="Note" d="M2554.74,895.084 C2548.39,905.078 2538.36,913.367 2524.65,919.953 C2512.72,925.686 2501.56,928.552 2491.18,928.552 C2482.89,928.552 2475.99,926.887 2470.49,923.555 C2464.53,919.914 2461.54,915.575 2461.54,910.54 C2461.54,899.151 2464.53,889.35 2470.49,881.138 C2478.63,869.982 2486.84,864.404 2495.13,864.404 C2501.02,864.404 2505.2,865.566 2507.68,867.89 C2511.09,870.912 2512.79,875.056 2512.79,880.325 C2512.79,887.762 2507.25,894.231 2496.17,899.732 C2485.41,905.078 2477.93,908.564 2473.75,910.191 C2474.68,912.128 2475.88,913.871 2477.35,915.42 C2480.99,919.294 2485.95,921.231 2492.22,921.231 C2500.13,921.231 2510.74,918.326 2524.06,912.515 C2536.85,906.86 2547.07,901.049 2554.74,895.084 M2472.12,904.845 C2477.93,901.901 2483.24,898.454 2488.04,894.502 C2495.17,888.692 2498.73,882.417 2498.73,875.676 C2498.73,871.88 2496.99,869.982 2493.5,869.982 C2490.56,869.982 2486.53,873.352 2481.42,880.092 C2474.99,888.459 2471.77,895.277 2471.77,900.545 C2471.77,902.017 2471.89,903.451 2472.12,904.845"/>
<path class="Note" d="M2533.83,572.126 C2538.17,569.181 2541.3,566.741 2543.24,564.804 C2546.8,561.008 2548.59,557.522 2548.59,554.345 C2548.59,550.704 2546.57,548.883 2542.54,548.883 C2534.72,548.883 2526.35,555.778 2517.44,569.569 C2514.73,573.752 2508.76,587.388 2499.54,610.475 C2506.9,618.068 2510.58,622.367 2510.58,623.375 C2510.58,624.769 2509.69,625.466 2507.91,625.466 C2506.52,625.466 2502.68,623.103 2496.41,618.377 C2489.59,634.26 2479.25,647.818 2465.38,659.051 C2451.2,670.517 2434.27,676.251 2414.59,676.251 C2407.08,676.251 2397.67,674.507 2386.36,671.021 C2377.29,668.232 2372.76,663.777 2372.76,657.657 C2372.76,648.592 2376.24,644.06 2383.22,644.06 C2387.4,644.06 2389.49,645.997 2389.49,649.871 C2389.49,651.11 2388.52,652.427 2386.59,653.822 C2385.58,654.519 2385.08,655.875 2385.08,657.889 C2385.08,660.291 2387.75,662.77 2393.1,665.327 C2398.91,668.116 2407.43,669.51 2418.66,669.51 C2433.15,669.51 2447.13,663.235 2460.61,650.684 C2472.85,639.295 2481.65,626.047 2486.99,610.94 C2484.9,609.236 2482.66,607.376 2480.25,605.362 C2472.82,600.946 2469.1,596.414 2469.1,591.765 C2469.1,589.828 2470.38,588.86 2472.93,588.86 C2476.34,588.86 2480.95,591.765 2486.76,597.576 C2488,598.815 2489.16,599.977 2490.25,601.062 C2492.96,593.625 2497.3,584.173 2503.26,572.707 C2514.03,551.944 2527.13,541.562 2542.54,541.562 C2548.04,541.562 2552.38,542.608 2555.56,544.7 C2558.73,546.792 2560.32,549.658 2560.32,553.299 C2560.32,559.11 2558.19,564.029 2553.93,568.058 C2549.52,572.242 2544.91,574.334 2540.1,574.334 C2535.92,574.334 2533.83,573.598 2533.83,572.126"/>
<path class="Note" d="M2407.86,509.563 C2408.17,497.864 2414.64,487.483 2427.27,478.418 C2438.5,470.361 2450.78,466.332 2464.11,466.332 C2482.78,466.332 2499.24,473.654 2513.5,488.296 C2522.56,497.67 2527.1,509.292 2527.1,523.159 C2527.1,535.633 2523.76,545.201 2517.1,551.863 C2508.97,560.076 2500.37,564.182 2491.3,564.182 C2485.1,564.182 2480.3,562.787 2476.89,559.998 C2471.31,555.427 2468.53,549.307 2468.53,541.637 C2468.53,531.72 2473.48,522.656 2483.4,514.444 C2491.53,507.703 2499.71,503.287 2507.92,501.195 C2505.75,497.477 2503,493.99 2499.67,490.737 C2489.29,480.587 2477.51,475.513 2464.34,475.513 C2450.63,475.513 2439.28,478.496 2430.29,484.461 C2420.99,490.582 2413.52,498.949 2407.86,509.563 M2510.83,507.355 C2506.56,511.306 2502.3,515.528 2498.04,520.022 C2489.68,528.854 2485.49,537.221 2485.49,545.123 C2485.49,553.568 2487.43,557.79 2491.3,557.79 C2494.79,557.79 2499.67,553.026 2505.95,543.496 C2510.98,535.904 2513.5,528.931 2513.5,522.578 C2513.5,517.155 2512.61,512.081 2510.83,507.355"/>
<path class="Note" d="M2407.86,688.145 C2408.17,676.447 2414.64,666.065 2427.27,657.001 C2438.5,648.944 2450.78,644.915 2464.11,644.915 C2482.78,644.915 2499.24,652.236 2513.5,666.879 C2522.56,676.253 2527.1,687.874 2527.1,701.742 C2527.1,714.215 2523.76,723.783 2517.1,730.446 C2508.97,738.658 2500.37,742.764 2491.3,742.764 C2485.1,742.764 2480.3,741.37 2476.89,738.581 C2471.31,734.01 2468.53,727.889 2468.53,720.22 C2468.53,710.303 2473.48,701.238 2483.4,693.026 C2491.53,686.286 2499.71,681.87 2507.92,679.778 C2505.75,676.059 2503,672.573 2499.67,669.319 C2489.29,659.17 2477.51,654.096 2464.34,654.096 C2450.63,654.096 2439.28,657.078 2430.29,663.044 C2420.99,669.164 2413.52,677.531 2407.86,688.145 M2510.83,685.937 C2506.56,689.889 2502.3,694.111 2498.04,698.604 C2489.68,707.436 2485.49,715.804 2485.49,723.706 C2485.49,732.151 2487.43,736.373 2491.3,736.373 C2494.79,736.373 2499.67,731.608 2505.95,722.079 C2510.98,714.487 2513.5,707.514 2513.5,701.161 C2513.5,695.738 2512.61,690.663 2510.83,685.937"/>
<path class="Note" d="M3545.19,840 C3549.53,837.056 3552.67,834.615 3554.61,832.678 C3558.17,828.882 3559.95,825.396 3559.95,822.219 C3559.95,818.578 3557.94,816.757 3553.91,816.757 C3546.08,816.757 3537.72,823.653 3528.81,837.443 C3526.1,841.626 3520.13,855.262 3510.91,878.349 C3518.27,885.942 3521.95,890.241 3521.95,891.249 C3521.95,892.643 3521.06,893.34 3519.28,893.34 C3517.88,893.34 3514.05,890.977 3507.77,886.251 C3500.96,902.134 3490.61,915.692 3476.75,926.925 C3462.57,938.391 3445.64,944.125 3425.96,944.125 C3418.45,944.125 3409.03,942.381 3397.72,938.895 C3388.66,936.106 3384.12,931.651 3384.12,925.531 C3384.12,916.466 3387.61,911.934 3394.58,911.934 C3398.77,911.934 3400.86,913.871 3400.86,917.745 C3400.86,918.984 3399.89,920.301 3397.95,921.696 C3396.95,922.393 3396.44,923.749 3396.44,925.763 C3396.44,928.165 3399.12,930.644 3404.46,933.201 C3410.27,935.99 3418.79,937.384 3430.03,937.384 C3444.52,937.384 3458.5,931.109 3471.98,918.558 C3484.22,907.169 3493.01,893.921 3498.36,878.814 C3496.27,877.11 3494.02,875.25 3491.62,873.236 C3484.18,868.82 3480.46,864.288 3480.46,859.639 C3480.46,857.702 3481.74,856.734 3484.3,856.734 C3487.71,856.734 3492.32,859.639 3498.13,865.45 C3499.37,866.689 3500.53,867.851 3501.61,868.936 C3504.33,861.499 3508.66,852.047 3514.63,840.581 C3525.4,819.818 3538.49,809.436 3553.91,809.436 C3559.41,809.436 3563.75,810.482 3566.92,812.574 C3570.1,814.666 3571.69,817.532 3571.69,821.173 C3571.69,826.984 3569.56,831.903 3565.3,835.932 C3560.88,840.116 3556.27,842.208 3551.47,842.208 C3547.29,842.208 3545.19,841.472 3545.19,840"/>
<path class="Note" d="M3544.38,595.716 C3544.38,604.626 3534.23,624.188 3513.93,654.403 C3505.88,666.411 3494.29,675.205 3479.19,680.783 C3468.03,684.966 3455.13,687.058 3440.49,687.058 C3435.76,687.058 3431.58,686.09 3427.94,684.153 C3423.91,682.061 3421.89,679.776 3421.89,677.296 C3421.89,670.866 3425.34,667.651 3432.24,667.651 C3433.24,667.651 3433.75,668.271 3433.75,669.51 C3433.75,670.595 3433.24,671.796 3432.24,673.113 C3431,674.74 3430.38,675.941 3430.38,676.715 C3430.38,679.04 3433.86,680.202 3440.84,680.202 C3456.49,680.202 3468.84,678.304 3477.91,674.507 C3487.36,670.634 3496.77,660.756 3506.15,644.874 L3508.82,639.876 C3504.33,643.285 3499.87,644.99 3495.45,644.99 C3484.45,644.99 3478.95,640.535 3478.95,631.626 C3478.95,622.019 3485.42,611.908 3498.36,601.294 C3508.51,593.082 3517.54,588.976 3525.44,588.976 C3529.39,588.976 3532.68,590.022 3535.32,592.114 C3536.25,591.417 3537.41,591.068 3538.8,591.068 C3542.52,591.068 3544.38,592.617 3544.38,595.716 M3510.21,637.436 L3532.18,596.878 C3530.47,596.491 3528.58,596.297 3526.48,596.297 C3518.97,596.297 3511.69,600.675 3504.64,609.429 C3496.42,619.656 3492.32,627.829 3492.32,633.95 C3492.32,637.978 3494.99,639.993 3500.34,639.993 C3502.89,639.993 3506.19,639.14 3510.21,637.436"/>
<path class="Note" d="M3566.11,537.918 C3559.76,547.912 3549.73,556.202 3536.01,562.787 C3524.08,568.52 3512.93,571.387 3502.54,571.387 C3494.25,571.387 3487.36,569.721 3481.86,566.39 C3475.89,562.749 3472.91,558.41 3472.91,553.374 C3472.91,541.986 3475.89,532.185 3481.86,523.973 C3489.99,512.817 3498.21,507.238 3506.5,507.238 C3512.38,507.238 3516.57,508.401 3519.05,510.725 C3522.45,513.746 3524.16,517.891 3524.16,523.159 C3524.16,530.597 3518.62,537.066 3507.54,542.567 C3496.77,547.912 3489.3,551.399 3485.11,553.026 C3486.04,554.962 3487.24,556.706 3488.71,558.255 C3492.36,562.129 3497.31,564.066 3503.59,564.066 C3511.49,564.066 3522.11,561.16 3535.43,555.35 C3548.21,549.694 3558.44,543.884 3566.11,537.918 M3483.49,547.68 C3489.3,544.736 3494.6,541.288 3499.41,537.337 C3506.53,531.527 3510.1,525.251 3510.1,518.511 C3510.1,514.715 3508.35,512.817 3504.87,512.817 C3501.92,512.817 3497.9,516.187 3492.78,522.927 C3486.35,531.294 3483.14,538.112 3483.14,543.38 C3483.14,544.852 3483.25,546.285 3483.49,547.68"/>
<path class="Note" d="M3566.11,716.501 C3559.76,726.495 3549.73,734.785 3536.01,741.37 C3524.08,747.103 3512.93,749.97 3502.54,749.97 C3494.25,749.97 3487.36,748.304 3481.86,744.973 C3475.89,741.331 3472.91,736.993 3472.91,731.957 C3472.91,720.568 3475.89,710.768 3481.86,702.556 C3489.99,691.399 3498.21,685.821 3506.5,685.821 C3512.38,685.821 3516.57,686.983 3519.05,689.307 C3522.45,692.329 3524.16,696.474 3524.16,701.742 C3524.16,709.18 3518.62,715.649 3507.54,721.149 C3496.77,726.495 3489.3,729.981 3485.11,731.608 C3486.04,733.545 3487.24,735.288 3488.71,736.838 C3492.36,740.711 3497.31,742.648 3503.59,742.648 C3511.49,742.648 3522.11,739.743 3535.43,733.932 C3548.21,728.277 3558.44,722.466 3566.11,716.501 M3483.49,726.263 C3489.3,723.319 3494.6,719.871 3499.41,715.92 C3506.53,710.109 3510.1,703.834 3510.1,697.094 C3510.1,693.297 3508.35,691.399 3504.87,691.399 C3501.92,691.399 3497.9,694.769 3492.78,701.51 C3486.35,709.877 3483.14,716.695 3483.14,721.963 C3483.14,723.435 3483.25,724.868 3483.49,726.263"/>
<path class="Clef" transform="matrix(2.3811,0,0,2.3811,212.156,2169.73)" d="M25.4,-25.1 C17.8,-25.1 11.7,-20.7 11.6,-20.7 C5.8,-16.4 3.5,-11.3 2.6,-7.8 C2.1,-6 1.9,-4.2 1.9,-2.5 C1.9,-0.1 2.3,2.1 3.2,4 C4.4,6.7 6.7,8.6 9.7,9.6 C10.9,10 12.2,10.2 13.5,10.2 C15.7,10.2 18,9.6 19.9,8.5 C23,6.8 24.9,3.2 24.9,-0.7 C24.9,-4.2 23.1,-7.4 20.1,-9.3 C18,-10.7 16,-11.1 14.3,-11.1 C13.1,-11.1 12,-10.9 11.1,-10.6 C10.1,-10.2 8.4,-9.2 7.6,-8.5 C7.9,-10.4 9.1,-13.3 10.2,-14.9 C11.3,-16.5 13.5,-18.5 15.2,-19.4 C17.7,-20.8 20.9,-21.4 24.4,-21.4 C34.6,-21.4 39.6,-13.2 39.6,3.6 C39.6,12.9 36.1,21.8 33.1,27.7 C29.8,34.3 25.4,40.6 21.5,44.1 C11.1,53.6 1.3,58.1 1.2,58.1 C1.2,58.1 -0.3,59 0.1,60.5 C0.4,61.5 1.3,61.7 1.9,61.7 C2,61.7 2.3,61.6 2.4,61.6 C2.5,61.6 13.9,56.9 23,49.8 C28.1,46.1 32.7,42.1 36.7,37.8 C40.3,33.9 43.4,29.7 45.9,25.5 C50.3,18 52.8,10.2 52.8,3.5 C52.8,-4.8 50.6,-11.7 46.5,-16.6 C41.8,-22.2 34.7,-25.1 25.4,-25.1 M56.8,-12.4 C56.8,-9.6 59,-7.4 61.6,-7.4 C64.2,-7.4 66.4,-9.6 66.4,-12.4 C66.4,-15.2 64.2,-17.5 61.6,-17.5 C59,-17.5 56.8,-15.2 56.8,-12.4 M56.8,12.3 C56.8,15.1 59,17.4 61.6,17.4 C64.2,17.4 66.4,15.1 66.4,12.3 C66.4,9.5 64.2,7.2 61.6,7.2 C59,7.2 56.8,9.5 56.8,12.3"/>
<path class="Clef" transform="matrix(2.3811,0,0,2.3811,212.156,1581.33)" d="M63.37,-5.89004 C62.14,-11.32 59.5,-15.14 58.72,-16.1801 C55.5301,-20.45 51.52,-23.3 46.8301,-24.65 C43.72,-25.54 40.72,-25.65 38.3,-25.47 C37.2601,-31.4801 36.2601,-37.3601 35.35,-42.8101 C40.79,-48.97 44.42,-54.77 46.69,-59.07 C50.1601,-65.65 51.3101,-70.2301 51.3601,-70.4301 C53.0801,-75.64 53.44,-83.34 52.34,-91.55 C51.3301,-99.1 49.24,-105.81 46.89,-109.06 C45.8601,-110.49 44.8101,-111.22 43.77,-111.22 C42.55,-111.22 40.04,-109.98 37.15,-107.21 C34.85,-105.01 31.5801,-101.12 29.02,-95.1101 C26.02,-88.05 25.8101,-78.5601 26.1601,-71.84 C26.54,-64.57 27.65,-58.8801 27.6601,-58.8301 C27.6801,-58.74 27.94,-57.24 28.39,-54.67 C28.1601,-54.44 27.92,-54.22 27.67,-53.9801 C26.6301,-52.9801 25.44,-51.84 24.0601,-50.4601 C23.2,-49.6 22.25,-48.69 21.25,-47.72 C12.79,-39.57 0,-27.25 0,-8.1 C0,-3.4 0.9,1.01992 2.68008,5.02998 C4.27002,8.62998 6.57002,11.91 9.5,14.78 C17.2301,22.33 27.82,25.5399 34.8801,25.38 C37.8301,25.31 40.4601,25.0699 42.85,24.6199 C44.6801,34.2199 45.82,41.25 45.8601,46.5899 C45.9,53.1 44.25,57.0699 40.35,59.8399 C37.92,61.5699 35.1101,62.5199 32.0101,62.6699 C29.42,62.7899 27.1601,62.3199 25.7301,61.91 L25.72,61.91 C25.72,61.91 25.4301,61.83 25.42,61.63 C25.4101,61.45 25.7601,61.4 25.77,61.4 L25.79,61.4 C27.7101,60.96 31.2801,59.73 33.64,56.43 C35.44,53.91 36.3101,49.2899 34.47,45.35 C33.3601,42.96 30.85,40.01 25.2301,39.56 C22.74,39.36 20.47,39.8699 18.47,41.0699 C16.6601,42.15 15.1601,43.7899 14.1101,45.7899 C11.65,50.4899 12.1101,56.2199 15.24,60.06 C18.2,63.68 22.82,65.9899 28.25,66.5699 C29.1,66.66 29.95,66.7 30.8,66.7 C31.5101,66.7 32.22,66.6699 32.92,66.61 C31.72,66.9399 30.64,67.4899 29.77,68.25 C28.2801,69.5399 27.44,71.38 27.44,73.41 C27.44,75.28 28.0601,76.65 29.55,78.0399 C28.4101,78.5 27.55,78.98 26.79,79.56 C25.25,80.73 24.34,82.46 24.34,84.1899 C24.34,87.45 27.3,89.63 31.72,89.63 C37.1301,89.63 40.9101,86.63 40.9101,82.35 C40.9101,80.1199 39.9101,78.18 38.0801,76.83 C41.0101,75.6199 42.37,73.9399 42.37,71.56 C42.39,70.05 41.69,68.61 40.49,67.6899 C39.2801,66.7399 37.62,66.2399 35.69,66.2399 L35.5101,66.2399 C38.2801,65.7 40.92,64.7 43.2101,63.28 C46.87,60.71 48.99,56.73 49.67,51.1 C50.2301,46.46 49.84,40.55 48.44,32.48 C48.0801,30.3899 47.54,27.36 46.8801,23.6 C52.6301,21.68 56.79,18.11 60.5601,12.26 C63.85,6.51992 64.8,0.419922 63.37,-5.89004 M32.39,87.5399 C30.19,87.5399 28.7301,86.1199 28.7301,84.01 C28.7301,82.11 29.65,80.5 31.32,79.4699 C31.6801,79.66 31.77,79.71 32.1101,79.88 C33.3,80.48 33.3,80.48 33.55,80.63 L33.5601,80.6399 C35.47,81.73 36.25,82.76 36.25,84.18 C36.24,86.0899 34.59,87.5399 32.39,87.5399 M38.3101,71.63 C38.3101,73.2699 37.7301,74.3399 36.1801,75.53 C34.74,74.78 34.35,74.56 33.9801,74.3399 L33.8801,74.28 C32.3301,73.3399 31.85,72.66 31.85,71.4 C31.85,69.6 33.2301,68.3399 35.19,68.3399 C37.17,68.35 38.3101,69.55 38.3101,71.63 M33.15,-83.8101 C34.9301,-89.55 37.67,-92.8 39.6601,-94.5301 C41.4101,-96.05 43.0601,-96.7601 43.9801,-96.7601 C44.12,-96.7601 44.24,-96.74 44.34,-96.7101 C44.8,-96.57 45.3301,-96 45.8,-95.1301 C48.1101,-90.84 47.37,-84.1301 46.0301,-79.69 C44.4,-74.29 41.4801,-68.6801 32.69,-59.0601 C32.52,-60.17 32.3601,-61.22 32.2101,-62.2 C30.95,-70.49 31.27,-77.7601 33.15,-83.8101 M29.15,20.31 C24.5101,19.0899 20.0801,16.5899 16.32,13.0899 C15.0101,11.86 13.14,9.68994 11.67,6.3 C10.3101,3.13994 9.65,-0.290039 9.7,-3.88008 C9.77002,-8.57002 11.0801,-13.39 13.59,-18.1801 C16.5101,-23.7601 21.07,-29.29 27.1301,-34.62 C28.5801,-35.9 29.95,-37.1801 31.24,-38.4601 C32,-34.2 32.8301,-29.5101 33.7101,-24.6301 C29.8601,-23.3601 25.1101,-20.2101 22,-14.5601 C18.47,-7.99004 18.6101,-2.47002 19.34,1.00996 C20.2801,5.46992 22.8101,9.22998 26.27,11.3199 C27.2,11.88 31.3301,14.01 33.17,13.43 C33.54,13.31 33.8101,13.0899 33.95,12.76 C34.4601,11.5899 33.44,10.95 31.8801,9.98994 C31.2801,9.61992 30.6101,9.2 29.8801,8.66992 C26.5601,6.17998 25.1101,1.72998 26.1801,-2.65 C26.7601,-5.05 28.04,-7.21006 29.8801,-8.91006 C31.55,-10.4601 33.59,-11.5601 35.97,-12.2 C38.0101,-0.960059 40.07,10.1899 41.7101,18.55 C41.84,19.2399 41.9801,19.91 42.1101,20.58 C37.7101,21.51 33.37,21.4199 29.15,20.31 M54.9,10.1 C53.7301,13.28 51.27,17.35 46.14,19.41 C46.07,18.9899 45.99,18.56 45.9101,18.13 C44.3601,9.36992 42.4301,-1.61006 40.47,-12.87 C50.82,-13.35 55.09,-5.91006 55.9801,-1.08008 C56.45,1.45 56.45,5.88994 54.9,10.1"/>
<path class="FiguredBass" d="M623.784,2483.5 C619.207,2483.5 616.161,2485.34 614.645,2489.02 C613.13,2492.7 612.373,2497.91 612.373,2504.65 L612.373,2515.6 C615.589,2514.3 618.372,2513.62 620.722,2513.56 C628.762,2513.56 635.087,2515.34 639.694,2518.89 C644.302,2522.45 646.606,2527.74 646.606,2534.76 C646.606,2541.78 644.271,2547.08 639.602,2550.67 C634.932,2554.25 628.639,2556.05 620.722,2556.05 C612.62,2556.05 606.28,2552.29 601.704,2544.78 C597.127,2537.26 594.838,2528.34 594.838,2518.01 C594.838,2507.74 597.498,2498.84 602.817,2491.29 C608.136,2483.75 615.125,2479.97 623.784,2479.97 C629.474,2479.97 634.391,2481.41 638.535,2484.29 C642.678,2487.16 644.75,2490.95 644.75,2495.65 C644.75,2498.37 643.761,2500.72 641.782,2502.7 C639.803,2504.68 637.437,2505.67 634.685,2505.67 C631.932,2505.67 629.567,2504.68 627.587,2502.7 C625.608,2500.72 624.619,2498.37 624.619,2495.65 C624.619,2492.99 625.608,2490.64 627.587,2488.6 C628.268,2487.8 629.226,2487.12 630.463,2486.56 C630.154,2485.76 629.536,2485.14 628.608,2484.7 C627.247,2483.9 625.639,2483.5 623.784,2483.5 M628.33,2521.44 C627.216,2518.54 624.773,2517.08 621,2517.08 C617.228,2517.08 614.893,2518.54 613.996,2521.44 C613.099,2524.35 612.651,2528.77 612.651,2534.71 C612.651,2541.7 613.099,2546.4 613.996,2548.81 C614.893,2551.22 617.228,2552.43 621,2552.43 C624.773,2552.43 627.216,2550.98 628.33,2548.07 C629.443,2545.16 629.999,2540.72 629.999,2534.76 C629.999,2528.79 629.443,2524.35 628.33,2521.44"/>
<path class="FiguredBass" d="M601.147,2585.72 L605.6,2586.37 C606.775,2586.56 608.229,2586.74 609.96,2586.93 C614.228,2587.42 618.341,2587.67 622.299,2587.67 C626.258,2587.67 630.432,2587.42 634.824,2586.93 C636.555,2586.74 638.071,2586.56 639.37,2586.37 L643.915,2585.72 C644.843,2585.72 645.554,2586.03 646.049,2586.65 C646.42,2587.15 646.359,2587.64 645.864,2588.14 C636.215,2597.6 622.887,2602.33 605.878,2602.33 C605.198,2602.33 604.595,2602.58 604.069,2603.07 C603.544,2603.57 603.281,2604.19 603.281,2604.93 L603.281,2616.71 C607.672,2612.38 612.991,2610.22 619.238,2610.22 C627.958,2610.22 634.762,2612.26 639.648,2616.34 C644.967,2612.32 647.75,2607.18 647.998,2600.94 C648.059,2598.96 648.709,2597.35 649.946,2596.11 C651.306,2594.88 652.945,2594.26 654.863,2594.26 C656.78,2594.26 658.404,2594.91 659.733,2596.21 C661.063,2597.51 661.728,2599.08 661.728,2600.94 C661.728,2610.52 656.069,2617.79 644.75,2622.74 C646.606,2626.39 647.534,2630.84 647.534,2636.1 C647.534,2643.09 644.75,2649.12 639.184,2654.19 C633.618,2659.26 626.969,2661.8 619.238,2661.8 C612.558,2661.8 606.76,2660.28 601.843,2657.25 C596.926,2654.22 594.467,2650.02 594.467,2644.63 C594.467,2641.91 595.457,2639.55 597.436,2637.54 C599.415,2635.53 601.781,2634.52 604.533,2634.52 C607.285,2634.52 609.62,2635.51 611.538,2637.49 C613.455,2639.47 614.414,2641.85 614.414,2644.63 C614.414,2645.87 613.393,2647.22 611.352,2648.67 C609.311,2650.12 608.29,2651.47 608.29,2652.71 C608.29,2656.42 611.94,2658.27 619.238,2658.27 C626.35,2658.27 629.907,2650.88 629.907,2636.1 C629.907,2632.82 629.721,2629.95 629.35,2627.47 C621.866,2629.02 612.496,2630.22 601.24,2631.09 C599.693,2631.21 598.92,2630.44 598.92,2628.77 C598.92,2627.41 599.693,2626.67 601.24,2626.54 C612.62,2625.62 621.588,2624.13 628.144,2622.09 C626.412,2617.14 623.443,2614.64 619.238,2614.58 C612.867,2614.58 608.414,2615.87 605.878,2618.47 C603.343,2621.07 601.765,2622.37 601.147,2622.37 C599.663,2622.37 598.92,2621.6 598.92,2620.05 L598.92,2588.14 C598.92,2587.52 599.137,2586.96 599.57,2586.47 C600.065,2585.97 600.59,2585.72 601.147,2585.72"/>
<path class="FiguredBass" d="M1585.43,2483.5 C1580.85,2483.5 1577.81,2485.34 1576.29,2489.02 C1574.77,2492.7 1574.02,2497.91 1574.02,2504.65 L1574.02,2515.6 C1577.23,2514.3 1580.02,2513.62 1582.37,2513.56 C1590.41,2513.56 1596.73,2515.34 1601.34,2518.89 C1605.95,2522.45 1608.25,2527.74 1608.25,2534.76 C1608.25,2541.78 1605.92,2547.08 1601.25,2550.67 C1596.58,2554.25 1590.28,2556.05 1582.37,2556.05 C1574.26,2556.05 1567.92,2552.29 1563.35,2544.78 C1558.77,2537.26 1556.48,2528.34 1556.48,2518.01 C1556.48,2507.74 1559.14,2498.84 1564.46,2491.29 C1569.78,2483.75 1576.77,2479.97 1585.43,2479.97 C1591.12,2479.97 1596.04,2481.41 1600.18,2484.29 C1604.32,2487.16 1606.39,2490.95 1606.39,2495.65 C1606.39,2498.37 1605.41,2500.72 1603.43,2502.7 C1601.45,2504.68 1599.08,2505.67 1596.33,2505.67 C1593.58,2505.67 1591.21,2504.68 1589.23,2502.7 C1587.25,2500.72 1586.26,2498.37 1586.26,2495.65 C1586.26,2492.99 1587.25,2490.64 1589.23,2488.6 C1589.91,2487.8 1590.87,2487.12 1592.11,2486.56 C1591.8,2485.76 1591.18,2485.14 1590.25,2484.7 C1588.89,2483.9 1587.28,2483.5 1585.43,2483.5 M1589.97,2521.44 C1588.86,2518.54 1586.42,2517.08 1582.64,2517.08 C1578.87,2517.08 1576.54,2518.54 1575.64,2521.44 C1574.74,2524.35 1574.3,2528.77 1574.3,2534.71 C1574.3,2541.7 1574.74,2546.4 1575.64,2548.81 C1576.54,2551.22 1578.87,2552.43 1582.64,2552.43 C1586.42,2552.43 1588.86,2550.98 1589.97,2548.07 C1591.09,2545.16 1591.64,2540.72 1591.64,2534.76 C1591.64,2528.79 1591.09,2524.35 1589.97,2521.44"/>
<path class="FiguredBass" d="M1562.79,2585.72 L1567.24,2586.37 C1568.42,2586.56 1569.87,2586.74 1571.6,2586.93 C1575.87,2587.42 1579.99,2587.67 1583.94,2587.67 C1587.9,2587.67 1592.08,2587.42 1596.47,2586.93 C1598.2,2586.74 1599.72,2586.56 1601.01,2586.37 L1605.56,2585.72 C1606.49,2585.72 1607.2,2586.03 1607.69,2586.65 C1608.06,2587.15 1608,2587.64 1607.51,2588.14 C1597.86,2597.6 1584.53,2602.33 1567.52,2602.33 C1566.84,2602.33 1566.24,2602.58 1565.71,2603.07 C1565.19,2603.57 1564.93,2604.19 1564.93,2604.93 L1564.93,2616.71 C1569.32,2612.38 1574.64,2610.22 1580.88,2610.22 C1589.6,2610.22 1596.41,2612.26 1601.29,2616.34 C1606.61,2612.32 1609.39,2607.18 1609.64,2600.94 C1609.7,2598.96 1610.35,2597.35 1611.59,2596.11 C1612.95,2594.88 1614.59,2594.26 1616.51,2594.26 C1618.42,2594.26 1620.05,2594.91 1621.38,2596.21 C1622.71,2597.51 1623.37,2599.08 1623.37,2600.94 C1623.37,2610.52 1617.71,2617.79 1606.39,2622.74 C1608.25,2626.39 1609.18,2630.84 1609.18,2636.1 C1609.18,2643.09 1606.39,2649.12 1600.83,2654.19 C1595.26,2659.26 1588.61,2661.8 1580.88,2661.8 C1574.2,2661.8 1568.4,2660.28 1563.49,2657.25 C1558.57,2654.22 1556.11,2650.02 1556.11,2644.63 C1556.11,2641.91 1557.1,2639.55 1559.08,2637.54 C1561.06,2635.53 1563.43,2634.52 1566.18,2634.52 C1568.93,2634.52 1571.26,2635.51 1573.18,2637.49 C1575.1,2639.47 1576.06,2641.85 1576.06,2644.63 C1576.06,2645.87 1575.04,2647.22 1573,2648.67 C1570.96,2650.12 1569.93,2651.47 1569.93,2652.71 C1569.93,2656.42 1573.58,2658.27 1580.88,2658.27 C1587.99,2658.27 1591.55,2650.88 1591.55,2636.1 C1591.55,2632.82 1591.37,2629.95 1590.99,2627.47 C1583.51,2629.02 1574.14,2630.22 1562.88,2631.09 C1561.34,2631.21 1560.56,2630.44 1560.56,2628.77 C1560.56,2627.41 1561.34,2626.67 1562.88,2626.54 C1574.26,2625.62 1583.23,2624.13 1589.79,2622.09 C1588.06,2617.14 1585.09,2614.64 1580.88,2614.58 C1574.51,2614.58 1570.06,2615.87 1567.52,2618.47 C1564.99,2621.07 1563.41,2622.37 1562.79,2622.37 C1561.31,2622.37 1560.56,2621.6 1560.56,2620.05 L1560.56,2588.14 C1560.56,2587.52 1560.78,2586.96 1561.21,2586.47 C1561.71,2585.97 1562.23,2585.72 1562.79,2585.72"/>
<path class="FiguredBass" d="M2487.32,2483.5 C2482.74,2483.5 2479.7,2485.34 2478.18,2489.02 C2476.67,2492.7 2475.91,2497.91 2475.91,2504.65 L2475.91,2515.6 C2479.13,2514.3 2481.91,2513.62 2484.26,2513.56 C2492.3,2513.56 2498.62,2515.34 2503.23,2518.89 C2507.84,2522.45 2510.14,2527.74 2510.14,2534.76 C2510.14,2541.78 2507.81,2547.08 2503.14,2550.67 C2498.47,2554.25 2492.18,2556.05 2484.26,2556.05 C2476.16,2556.05 2469.82,2552.29 2465.24,2544.78 C2460.66,2537.26 2458.38,2528.34 2458.38,2518.01 C2458.38,2507.74 2461.04,2498.84 2466.35,2491.29 C2471.67,2483.75 2478.66,2479.97 2487.32,2479.97 C2493.01,2479.97 2497.93,2481.41 2502.07,2484.29 C2506.22,2487.16 2508.29,2490.95 2508.29,2495.65 C2508.29,2498.37 2507.3,2500.72 2505.32,2502.7 C2503.34,2504.68 2500.97,2505.67 2498.22,2505.67 C2495.47,2505.67 2493.1,2504.68 2491.13,2502.7 C2489.15,2500.72 2488.16,2498.37 2488.16,2495.65 C2488.16,2492.99 2489.15,2490.64 2491.13,2488.6 C2491.81,2487.8 2492.76,2487.12 2494,2486.56 C2493.69,2485.76 2493.07,2485.14 2492.15,2484.7 C2490.78,2483.9 2489.18,2483.5 2487.32,2483.5 M2491.87,2521.44 C2490.75,2518.54 2488.31,2517.08 2484.54,2517.08 C2480.77,2517.08 2478.43,2518.54 2477.53,2521.44 C2476.64,2524.35 2476.19,2528.77 2476.19,2534.71 C2476.19,2541.7 2476.64,2546.4 2477.53,2548.81 C2478.43,2551.22 2480.77,2552.43 2484.54,2552.43 C2488.31,2552.43 2490.75,2550.98 2491.87,2548.07 C2492.98,2545.16 2493.54,2540.72 2493.54,2534.76 C2493.54,2528.79 2492.98,2524.35 2491.87,2521.44"/>
<path class="FiguredBass" d="M2464.68,2585.72 L2469.14,2586.37 C2470.31,2586.56 2471.77,2586.74 2473.5,2586.93 C2477.77,2587.42 2481.88,2587.67 2485.84,2587.67 C2489.8,2587.67 2493.97,2587.42 2498.36,2586.93 C2500.09,2586.74 2501.61,2586.56 2502.91,2586.37 L2507.45,2585.72 C2508.38,2585.72 2509.09,2586.03 2509.59,2586.65 C2509.96,2587.15 2509.9,2587.64 2509.4,2588.14 C2499.75,2597.6 2486.42,2602.33 2469.42,2602.33 C2468.74,2602.33 2468.13,2602.58 2467.61,2603.07 C2467.08,2603.57 2466.82,2604.19 2466.82,2604.93 L2466.82,2616.71 C2471.21,2612.38 2476.53,2610.22 2482.78,2610.22 C2491.5,2610.22 2498.3,2612.26 2503.19,2616.34 C2508.5,2612.32 2511.29,2607.18 2511.54,2600.94 C2511.6,2598.96 2512.25,2597.35 2513.48,2596.11 C2514.84,2594.88 2516.48,2594.26 2518.4,2594.26 C2520.32,2594.26 2521.94,2594.91 2523.27,2596.21 C2524.6,2597.51 2525.27,2599.08 2525.27,2600.94 C2525.27,2610.52 2519.61,2617.79 2508.29,2622.74 C2510.14,2626.39 2511.07,2630.84 2511.07,2636.1 C2511.07,2643.09 2508.29,2649.12 2502.72,2654.19 C2497.16,2659.26 2490.51,2661.8 2482.78,2661.8 C2476.1,2661.8 2470.3,2660.28 2465.38,2657.25 C2460.46,2654.22 2458.01,2650.02 2458.01,2644.63 C2458.01,2641.91 2458.99,2639.55 2460.97,2637.54 C2462.95,2635.53 2465.32,2634.52 2468.07,2634.52 C2470.82,2634.52 2473.16,2635.51 2475.08,2637.49 C2476.99,2639.47 2477.95,2641.85 2477.95,2644.63 C2477.95,2645.87 2476.93,2647.22 2474.89,2648.67 C2472.85,2650.12 2471.83,2651.47 2471.83,2652.71 C2471.83,2656.42 2475.48,2658.27 2482.78,2658.27 C2489.89,2658.27 2493.44,2650.88 2493.44,2636.1 C2493.44,2632.82 2493.26,2629.95 2492.89,2627.47 C2485.4,2629.02 2476.03,2630.22 2464.78,2631.09 C2463.23,2631.21 2462.46,2630.44 2462.46,2628.77 C2462.46,2627.41 2463.23,2626.67 2464.78,2626.54 C2476.16,2625.62 2485.13,2624.13 2491.68,2622.09 C2489.95,2617.14 2486.98,2614.64 2482.78,2614.58 C2476.41,2614.58 2471.95,2615.87 2469.42,2618.47 C2466.88,2621.07 2465.3,2622.37 2464.68,2622.37 C2463.2,2622.37 2462.46,2621.6 2462.46,2620.05 L2462.46,2588.14 C2462.46,2587.52 2462.67,2586.96 2463.11,2586.47 C2463.6,2585.97 2464.13,2585.72 2464.68,2585.72"/>
<path class="FiguredBass" d="M3498.69,2483.5 C3494.11,2483.5 3491.07,2485.34 3489.55,2489.02 C3488.03,2492.7 3487.28,2497.91 3487.28,2504.65 L3487.28,2515.6 C3490.49,2514.3 3493.28,2513.62 3495.63,2513.56 C3503.67,2513.56 3509.99,2515.34 3514.6,2518.89 C3519.21,2522.45 3521.51,2527.74 3521.51,2534.76 C3521.51,2541.78 3519.18,2547.08 3514.51,2550.67 C3509.84,2554.25 3503.54,2556.05 3495.63,2556.05 C3487.52,2556.05 3481.18,2552.29 3476.61,2544.78 C3472.03,2537.26 3469.74,2528.34 3469.74,2518.01 C3469.74,2507.74 3472.4,2498.84 3477.72,2491.29 C3483.04,2483.75 3490.03,2479.97 3498.69,2479.97 C3504.38,2479.97 3509.3,2481.41 3513.44,2484.29 C3517.58,2487.16 3519.65,2490.95 3519.65,2495.65 C3519.65,2498.37 3518.67,2500.72 3516.69,2502.7 C3514.71,2504.68 3512.34,2505.67 3509.59,2505.67 C3506.84,2505.67 3504.47,2504.68 3502.49,2502.7 C3500.51,2500.72 3499.52,2498.37 3499.52,2495.65 C3499.52,2492.99 3500.51,2490.64 3502.49,2488.6 C3503.17,2487.8 3504.13,2487.12 3505.37,2486.56 C3505.06,2485.76 3504.44,2485.14 3503.51,2484.7 C3502.15,2483.9 3500.54,2483.5 3498.69,2483.5 M3503.23,2521.44 C3502.12,2518.54 3499.68,2517.08 3495.9,2517.08 C3492.13,2517.08 3489.8,2518.54 3488.9,2521.44 C3488,2524.35 3487.56,2528.77 3487.56,2534.71 C3487.56,2541.7 3488,2546.4 3488.9,2548.81 C3489.8,2551.22 3492.13,2552.43 3495.9,2552.43 C3499.68,2552.43 3502.12,2550.98 3503.23,2548.07 C3504.35,2545.16 3504.9,2540.72 3504.9,2534.76 C3504.9,2528.79 3504.35,2524.35 3503.23,2521.44"/>
<path class="FiguredBass" d="M3476.05,2585.72 L3480.5,2586.37 C3481.68,2586.56 3483.13,2586.74 3484.86,2586.93 C3489.13,2587.42 3493.25,2587.67 3497.2,2587.67 C3501.16,2587.67 3505.34,2587.42 3509.73,2586.93 C3511.46,2586.74 3512.98,2586.56 3514.27,2586.37 L3518.82,2585.72 C3519.75,2585.72 3520.46,2586.03 3520.95,2586.65 C3521.32,2587.15 3521.26,2587.64 3520.77,2588.14 C3511.12,2597.6 3497.79,2602.33 3480.78,2602.33 C3480.1,2602.33 3479.5,2602.58 3478.97,2603.07 C3478.45,2603.57 3478.19,2604.19 3478.19,2604.93 L3478.19,2616.71 C3482.58,2612.38 3487.9,2610.22 3494.14,2610.22 C3502.86,2610.22 3509.67,2612.26 3514.55,2616.34 C3519.87,2612.32 3522.65,2607.18 3522.9,2600.94 C3522.96,2598.96 3523.61,2597.35 3524.85,2596.11 C3526.21,2594.88 3527.85,2594.26 3529.77,2594.26 C3531.68,2594.26 3533.31,2594.91 3534.64,2596.21 C3535.97,2597.51 3536.63,2599.08 3536.63,2600.94 C3536.63,2610.52 3530.97,2617.79 3519.65,2622.74 C3521.51,2626.39 3522.44,2630.84 3522.44,2636.1 C3522.44,2643.09 3519.65,2649.12 3514.09,2654.19 C3508.52,2659.26 3501.87,2661.8 3494.14,2661.8 C3487.46,2661.8 3481.66,2660.28 3476.75,2657.25 C3471.83,2654.22 3469.37,2650.02 3469.37,2644.63 C3469.37,2641.91 3470.36,2639.55 3472.34,2637.54 C3474.32,2635.53 3476.69,2634.52 3479.44,2634.52 C3482.19,2634.52 3484.52,2635.51 3486.44,2637.49 C3488.36,2639.47 3489.32,2641.85 3489.32,2644.63 C3489.32,2645.87 3488.3,2647.22 3486.26,2648.67 C3484.22,2650.12 3483.19,2651.47 3483.19,2652.71 C3483.19,2656.42 3486.84,2658.27 3494.14,2658.27 C3501.25,2658.27 3504.81,2650.88 3504.81,2636.1 C3504.81,2632.82 3504.63,2629.95 3504.25,2627.47 C3496.77,2629.02 3487.4,2630.22 3476.14,2631.09 C3474.6,2631.21 3473.82,2630.44 3473.82,2628.77 C3473.82,2627.41 3474.6,2626.67 3476.14,2626.54 C3487.52,2625.62 3496.49,2624.13 3503.05,2622.09 C3501.32,2617.14 3498.35,2614.64 3494.14,2614.58 C3487.77,2614.58 3483.32,2615.87 3480.78,2618.47 C3478.25,2621.07 3476.67,2622.37 3476.05,2622.37 C3474.57,2622.37 3473.82,2621.6 3473.82,2620.05 L3473.82,2588.14 C3473.82,2587.52 3474.04,2586.96 3474.47,2586.47 C3474.97,2585.97 3475.49,2585.72 3476.05,2585.72"/>
<path class="FiguredBass" d="M623.784,1776.05 C619.207,1776.05 616.161,1777.89 614.645,1781.57 C613.13,1785.25 612.373,1790.46 612.373,1797.2 L612.373,1808.15 C615.589,1806.85 618.372,1806.17 620.722,1806.1 C628.762,1806.1 635.087,1807.88 639.694,1811.44 C644.302,1814.99 646.606,1820.28 646.606,1827.3 C646.606,1834.32 644.271,1839.63 639.602,1843.21 C634.932,1846.8 628.639,1848.59 620.722,1848.59 C612.62,1848.59 606.28,1844.84 601.704,1837.32 C597.127,1829.81 594.838,1820.89 594.838,1810.56 C594.838,1800.29 597.498,1791.38 602.817,1783.84 C608.136,1776.29 615.125,1772.52 623.784,1772.52 C629.474,1772.52 634.391,1773.96 638.535,1776.83 C642.678,1779.71 644.75,1783.5 644.75,1788.2 C644.75,1790.92 643.761,1793.27 641.782,1795.25 C639.803,1797.23 637.437,1798.22 634.685,1798.22 C631.932,1798.22 629.567,1797.23 627.587,1795.25 C625.608,1793.27 624.619,1790.92 624.619,1788.2 C624.619,1785.54 625.608,1783.19 627.587,1781.15 C628.268,1780.34 629.226,1779.66 630.463,1779.11 C630.154,1778.3 629.536,1777.68 628.608,1777.25 C627.247,1776.45 625.639,1776.05 623.784,1776.05 M628.33,1813.99 C627.216,1811.08 624.773,1809.63 621,1809.63 C617.228,1809.63 614.893,1811.08 613.996,1813.99 C613.099,1816.9 612.651,1821.32 612.651,1827.26 C612.651,1834.25 613.099,1838.95 613.996,1841.36 C614.893,1843.77 617.228,1844.98 621,1844.98 C624.773,1844.98 627.216,1843.52 628.33,1840.62 C629.443,1837.71 629.999,1833.27 629.999,1827.3 C629.999,1821.33 629.443,1816.9 628.33,1813.99"/>
<path class="FiguredBass" d="M601.147,1878.27 C601.147,1878.27 602.631,1878.49 605.6,1878.92 C606.899,1879.11 608.352,1879.29 609.96,1879.48 C614.228,1879.97 618.341,1880.22 622.299,1880.22 C626.258,1880.22 630.432,1879.97 634.824,1879.48 C636.555,1879.29 638.071,1879.11 639.37,1878.92 L643.915,1878.27 C644.843,1878.27 645.539,1878.58 646.003,1879.2 C646.467,1879.82 646.42,1880.31 645.864,1880.68 C636.401,1890.15 623.072,1894.88 605.878,1894.88 C605.198,1894.88 604.595,1895.12 604.069,1895.62 C603.544,1896.11 603.281,1896.73 603.281,1897.47 L603.281,1912.04 C607.672,1907.71 612.991,1905.55 619.238,1905.55 C628.268,1905.55 635.241,1907.57 640.158,1911.62 C645.075,1915.67 647.534,1921.81 647.534,1930.04 C647.534,1937.03 644.75,1942.82 639.184,1947.43 C633.618,1952.04 626.969,1954.34 619.238,1954.34 C612.558,1954.34 606.76,1952.83 601.843,1949.8 C596.926,1946.77 594.467,1942.56 594.467,1937.18 C594.467,1934.46 595.457,1932.09 597.436,1930.08 C599.415,1928.07 601.781,1927.07 604.533,1927.07 C607.285,1927.07 609.62,1928.06 611.538,1930.04 C613.455,1932.02 614.414,1934.4 614.414,1937.18 C614.414,1938.42 613.393,1939.76 611.352,1941.22 C609.311,1942.67 608.29,1944.02 608.29,1945.25 C608.29,1948.96 611.94,1950.82 619.238,1950.82 C626.35,1950.82 629.907,1943.89 629.907,1930.04 C629.907,1916.68 626.35,1909.97 619.238,1909.91 C612.867,1909.91 608.414,1911.2 605.878,1913.8 C603.343,1916.4 601.765,1917.7 601.147,1917.7 C599.601,1917.7 598.859,1916.93 598.92,1915.38 L598.92,1880.68 C598.92,1880 599.137,1879.43 599.57,1878.97 C600.003,1878.5 600.528,1878.27 601.147,1878.27"/>
<path class="FiguredBass" d="M635.659,2019.74 C635.659,2020.73 636.215,2021.69 637.329,2022.61 C638.442,2023.54 639.663,2024.42 640.993,2025.26 C642.323,2026.09 643.544,2027.67 644.658,2029.99 C645.771,2032.31 646.328,2035.23 646.328,2038.76 C646.328,2045.56 643.761,2050.82 638.627,2054.53 C633.494,2058.24 627,2060.09 619.145,2060.09 C612.836,2060.09 607.347,2058.52 602.678,2055.36 C598.008,2052.21 595.673,2048.06 595.673,2042.93 C595.673,2040.21 596.663,2037.84 598.642,2035.83 C600.621,2033.82 602.987,2032.82 605.739,2032.82 C608.491,2032.82 610.826,2033.81 612.744,2035.79 C614.661,2037.77 615.62,2040.15 615.62,2042.93 C615.62,2044.17 614.599,2045.51 612.558,2046.97 C610.517,2048.42 609.497,2049.77 609.497,2051 C609.497,2052.92 610.44,2054.33 612.326,2055.22 C614.213,2056.12 616.485,2056.57 619.145,2056.57 C622.609,2056.57 625.067,2054.85 626.52,2051.42 C627.974,2047.99 628.701,2043.77 628.701,2038.76 L628.701,2036.34 C628.701,2033 628.592,2030.47 628.376,2028.74 C628.159,2027.01 627.479,2025.46 626.335,2024.1 C625.191,2022.74 623.443,2022.06 621.093,2022.06 L608.94,2022.06 C607.517,2022.06 606.806,2021.28 606.806,2019.74 C606.806,2018.32 607.517,2017.6 608.94,2017.6 L621.093,2017.6 C623.629,2017.6 625.608,2016.65 627.031,2014.73 C627.525,2014.05 627.928,2012.93 628.237,2011.39 C628.546,2009.35 628.701,2006.41 628.701,2002.57 L628.701,2001.37 C628.701,1992.15 625.299,1987.55 618.496,1987.55 C612.496,1987.55 609.497,1989.22 609.497,1992.56 C609.497,1993.67 610.409,1994.86 612.233,1996.13 C614.058,1997.39 614.97,1998.59 614.97,1999.7 C614.97,2002.11 614.12,2004.18 612.419,2005.91 C610.718,2007.65 608.646,2008.51 606.203,2008.51 C603.76,2008.51 601.704,2007.65 600.034,2005.91 C598.364,2004.18 597.529,2002.11 597.529,1999.7 C597.529,1994.94 599.601,1991.13 603.745,1988.29 C607.888,1985.44 612.805,1984.02 618.496,1984.02 C625.979,1984.02 632.133,1985.46 636.957,1988.33 C641.782,1991.21 644.194,1995.55 644.194,2001.37 C644.194,2005.51 643.761,2008.73 642.895,2011.02 C642.029,2013.31 641.039,2014.7 639.926,2015.19 C638.813,2015.69 637.823,2016.26 636.957,2016.91 C636.092,2017.56 635.659,2018.5 635.659,2019.74"/>
<path class="FiguredBass" d="M1585.43,1776.05 C1580.85,1776.05 1577.81,1777.89 1576.29,1781.57 C1574.77,1785.25 1574.02,1790.46 1574.02,1797.2 L1574.02,1808.15 C1577.23,1806.85 1580.02,1806.17 1582.37,1806.1 C1590.41,1806.1 1596.73,1807.88 1601.34,1811.44 C1605.95,1814.99 1608.25,1820.28 1608.25,1827.3 C1608.25,1834.32 1605.92,1839.63 1601.25,1843.21 C1596.58,1846.8 1590.28,1848.59 1582.37,1848.59 C1574.26,1848.59 1567.92,1844.84 1563.35,1837.32 C1558.77,1829.81 1556.48,1820.89 1556.48,1810.56 C1556.48,1800.29 1559.14,1791.38 1564.46,1783.84 C1569.78,1776.29 1576.77,1772.52 1585.43,1772.52 C1591.12,1772.52 1596.04,1773.96 1600.18,1776.83 C1604.32,1779.71 1606.39,1783.5 1606.39,1788.2 C1606.39,1790.92 1605.41,1793.27 1603.43,1795.25 C1601.45,1797.23 1599.08,1798.22 1596.33,1798.22 C1593.58,1798.22 1591.21,1797.23 1589.23,1795.25 C1587.25,1793.27 1586.26,1790.92 1586.26,1788.2 C1586.26,1785.54 1587.25,1783.19 1589.23,1781.15 C1589.91,1780.34 1590.87,1779.66 1592.11,1779.11 C1591.8,1778.3 1591.18,1777.68 1590.25,1777.25 C1588.89,1776.45 1587.28,1776.05 1585.43,1776.05 M1589.97,1813.99 C1588.86,1811.08 1586.42,1809.63 1582.64,1809.63 C1578.87,1809.63 1576.54,1811.08 1575.64,1813.99 C1574.74,1816.9 1574.3,1821.32 1574.3,1827.26 C1574.3,1834.25 1574.74,1838.95 1575.64,1841.36 C1576.54,1843.77 1578.87,1844.98 1582.64,1844.98 C1586.42,1844.98 1588.86,1843.52 1589.97,1840.62 C1591.09,1837.71 1591.64,1833.27 1591.64,1827.3 C1591.64,1821.33 1591.09,1816.9 1589.97,1813.99"/>
<path class="FiguredBass" d="M1562.79,1878.27 C1562.79,1878.27 1564.28,1878.49 1567.24,1878.92 C1568.54,1879.11 1570,1879.29 1571.6,1879.48 C1575.87,1879.97 1579.99,1880.22 1583.94,1880.22 C1587.9,1880.22 1592.08,1879.97 1596.47,1879.48 C1598.2,1879.29 1599.72,1879.11 1601.01,1878.92 L1605.56,1878.27 C1606.49,1878.27 1607.18,1878.58 1607.65,1879.2 C1608.11,1879.82 1608.06,1880.31 1607.51,1880.68 C1598.05,1890.15 1584.72,1894.88 1567.52,1894.88 C1566.84,1894.88 1566.24,1895.12 1565.71,1895.62 C1565.19,1896.11 1564.93,1896.73 1564.93,1897.47 L1564.93,1912.04 C1569.32,1907.71 1574.64,1905.55 1580.88,1905.55 C1589.91,1905.55 1596.89,1907.57 1601.8,1911.62 C1606.72,1915.67 1609.18,1921.81 1609.18,1930.04 C1609.18,1937.03 1606.39,1942.82 1600.83,1947.43 C1595.26,1952.04 1588.61,1954.34 1580.88,1954.34 C1574.2,1954.34 1568.4,1952.83 1563.49,1949.8 C1558.57,1946.77 1556.11,1942.56 1556.11,1937.18 C1556.11,1934.46 1557.1,1932.09 1559.08,1930.08 C1561.06,1928.07 1563.43,1927.07 1566.18,1927.07 C1568.93,1927.07 1571.26,1928.06 1573.18,1930.04 C1575.1,1932.02 1576.06,1934.4 1576.06,1937.18 C1576.06,1938.42 1575.04,1939.76 1573,1941.22 C1570.96,1942.67 1569.93,1944.02 1569.93,1945.25 C1569.93,1948.96 1573.58,1950.82 1580.88,1950.82 C1587.99,1950.82 1591.55,1943.89 1591.55,1930.04 C1591.55,1916.68 1587.99,1909.97 1580.88,1909.91 C1574.51,1909.91 1570.06,1911.2 1567.52,1913.8 C1564.99,1916.4 1563.41,1917.7 1562.79,1917.7 C1561.24,1917.7 1560.5,1916.93 1560.56,1915.38 L1560.56,1880.68 C1560.56,1880 1560.78,1879.43 1561.21,1878.97 C1561.65,1878.5 1562.17,1878.27 1562.79,1878.27"/>
<path class="FiguredBass" d="M1597.3,2019.74 C1597.3,2020.73 1597.86,2021.69 1598.97,2022.61 C1600.09,2023.54 1601.31,2024.42 1602.64,2025.26 C1603.97,2026.09 1605.19,2027.67 1606.3,2029.99 C1607.42,2032.31 1607.97,2035.23 1607.97,2038.76 C1607.97,2045.56 1605.41,2050.82 1600.27,2054.53 C1595.14,2058.24 1588.64,2060.09 1580.79,2060.09 C1574.48,2060.09 1568.99,2058.52 1564.32,2055.36 C1559.65,2052.21 1557.32,2048.06 1557.32,2042.93 C1557.32,2040.21 1558.31,2037.84 1560.29,2035.83 C1562.27,2033.82 1564.63,2032.82 1567.38,2032.82 C1570.14,2032.82 1572.47,2033.81 1574.39,2035.79 C1576.31,2037.77 1577.26,2040.15 1577.26,2042.93 C1577.26,2044.17 1576.24,2045.51 1574.2,2046.97 C1572.16,2048.42 1571.14,2049.77 1571.14,2051 C1571.14,2052.92 1572.08,2054.33 1573.97,2055.22 C1575.86,2056.12 1578.13,2056.57 1580.79,2056.57 C1584.25,2056.57 1586.71,2054.85 1588.16,2051.42 C1589.62,2047.99 1590.34,2043.77 1590.34,2038.76 L1590.34,2036.34 C1590.34,2033 1590.24,2030.47 1590.02,2028.74 C1589.8,2027.01 1589.12,2025.46 1587.98,2024.1 C1586.83,2022.74 1585.09,2022.06 1582.74,2022.06 L1570.58,2022.06 C1569.16,2022.06 1568.45,2021.28 1568.45,2019.74 C1568.45,2018.32 1569.16,2017.6 1570.58,2017.6 L1582.74,2017.6 C1585.27,2017.6 1587.25,2016.65 1588.68,2014.73 C1589.17,2014.05 1589.57,2012.93 1589.88,2011.39 C1590.19,2009.35 1590.34,2006.41 1590.34,2002.57 L1590.34,2001.37 C1590.34,1992.15 1586.94,1987.55 1580.14,1987.55 C1574.14,1987.55 1571.14,1989.22 1571.14,1992.56 C1571.14,1993.67 1572.05,1994.86 1573.88,1996.13 C1575.7,1997.39 1576.61,1998.59 1576.61,1999.7 C1576.61,2002.11 1575.76,2004.18 1574.06,2005.91 C1572.36,2007.65 1570.29,2008.51 1567.85,2008.51 C1565.4,2008.51 1563.35,2007.65 1561.68,2005.91 C1560.01,2004.18 1559.17,2002.11 1559.17,1999.7 C1559.17,1994.94 1561.24,1991.13 1565.39,1988.29 C1569.53,1985.44 1574.45,1984.02 1580.14,1984.02 C1587.62,1984.02 1593.78,1985.46 1598.6,1988.33 C1603.43,1991.21 1605.84,1995.55 1605.84,2001.37 C1605.84,2005.51 1605.41,2008.73 1604.54,2011.02 C1603.67,2013.31 1602.68,2014.7 1601.57,2015.19 C1600.46,2015.69 1599.47,2016.26 1598.6,2016.91 C1597.74,2017.56 1597.3,2018.5 1597.3,2019.74"/>
<path class="FiguredBass" d="M2487.32,1776.05 C2482.74,1776.05 2479.7,1777.89 2478.18,1781.57 C2476.67,1785.25 2475.91,1790.46 2475.91,1797.2 L2475.91,1808.15 C2479.13,1806.85 2481.91,1806.17 2484.26,1806.1 C2492.3,1806.1 2498.62,1807.88 2503.23,1811.44 C2507.84,1814.99 2510.14,1820.28 2510.14,1827.3 C2510.14,1834.32 2507.81,1839.63 2503.14,1843.21 C2498.47,1846.8 2492.18,1848.59 2484.26,1848.59 C2476.16,1848.59 2469.82,1844.84 2465.24,1837.32 C2460.66,1829.81 2458.38,1820.89 2458.38,1810.56 C2458.38,1800.29 2461.04,1791.38 2466.35,1783.84 C2471.67,1776.29 2478.66,1772.52 2487.32,1772.52 C2493.01,1772.52 2497.93,1773.96 2502.07,1776.83 C2506.22,1779.71 2508.29,1783.5 2508.29,1788.2 C2508.29,1790.92 2507.3,1793.27 2505.32,1795.25 C2503.34,1797.23 2500.97,1798.22 2498.22,1798.22 C2495.47,1798.22 2493.1,1797.23 2491.13,1795.25 C2489.15,1793.27 2488.16,1790.92 2488.16,1788.2 C2488.16,1785.54 2489.15,1783.19 2491.13,1781.15 C2491.81,1780.34 2492.76,1779.66 2494,1779.11 C2493.69,1778.3 2493.07,1777.68 2492.15,1777.25 C2490.78,1776.45 2489.18,1776.05 2487.32,1776.05 M2491.87,1813.99 C2490.75,1811.08 2488.31,1809.63 2484.54,1809.63 C2480.77,1809.63 2478.43,1811.08 2477.53,1813.99 C2476.64,1816.9 2476.19,1821.32 2476.19,1827.26 C2476.19,1834.25 2476.64,1838.95 2477.53,1841.36 C2478.43,1843.77 2480.77,1844.98 2484.54,1844.98 C2488.31,1844.98 2490.75,1843.52 2491.87,1840.62 C2492.98,1837.71 2493.54,1833.27 2493.54,1827.3 C2493.54,1821.33 2492.98,1816.9 2491.87,1813.99"/>
<path class="FiguredBass" d="M2464.68,1878.27 C2464.68,1878.27 2466.17,1878.49 2469.14,1878.92 C2470.44,1879.11 2471.89,1879.29 2473.5,1879.48 C2477.77,1879.97 2481.88,1880.22 2485.84,1880.22 C2489.8,1880.22 2493.97,1879.97 2498.36,1879.48 C2500.09,1879.29 2501.61,1879.11 2502.91,1878.92 L2507.45,1878.27 C2508.38,1878.27 2509.08,1878.58 2509.54,1879.2 C2510,1879.82 2509.96,1880.31 2509.4,1880.68 C2499.94,1890.15 2486.61,1894.88 2469.42,1894.88 C2468.74,1894.88 2468.13,1895.12 2467.61,1895.62 C2467.08,1896.11 2466.82,1896.73 2466.82,1897.47 L2466.82,1912.04 C2471.21,1907.71 2476.53,1905.55 2482.78,1905.55 C2491.81,1905.55 2498.78,1907.57 2503.7,1911.62 C2508.61,1915.67 2511.07,1921.81 2511.07,1930.04 C2511.07,1937.03 2508.29,1942.82 2502.72,1947.43 C2497.16,1952.04 2490.51,1954.34 2482.78,1954.34 C2476.1,1954.34 2470.3,1952.83 2465.38,1949.8 C2460.46,1946.77 2458.01,1942.56 2458.01,1937.18 C2458.01,1934.46 2458.99,1932.09 2460.97,1930.08 C2462.95,1928.07 2465.32,1927.07 2468.07,1927.07 C2470.82,1927.07 2473.16,1928.06 2475.08,1930.04 C2476.99,1932.02 2477.95,1934.4 2477.95,1937.18 C2477.95,1938.42 2476.93,1939.76 2474.89,1941.22 C2472.85,1942.67 2471.83,1944.02 2471.83,1945.25 C2471.83,1948.96 2475.48,1950.82 2482.78,1950.82 C2489.89,1950.82 2493.44,1943.89 2493.44,1930.04 C2493.44,1916.68 2489.89,1909.97 2482.78,1909.91 C2476.41,1909.91 2471.95,1911.2 2469.42,1913.8 C2466.88,1916.4 2465.3,1917.7 2464.68,1917.7 C2463.14,1917.7 2462.4,1916.93 2462.46,1915.38 L2462.46,1880.68 C2462.46,1880 2462.67,1879.43 2463.11,1878.97 C2463.54,1878.5 2464.07,1878.27 2464.68,1878.27"/>
<path class="FiguredBass" d="M2499.2,2019.74 C2499.2,2020.73 2499.75,2021.69 2500.87,2022.61 C2501.98,2023.54 2503.2,2024.42 2504.53,2025.26 C2505.86,2026.09 2507.08,2027.67 2508.2,2029.99 C2509.31,2032.31 2509.87,2035.23 2509.87,2038.76 C2509.87,2045.56 2507.3,2050.82 2502.17,2054.53 C2497.03,2058.24 2490.54,2060.09 2482.68,2060.09 C2476.37,2060.09 2470.89,2058.52 2466.22,2055.36 C2461.55,2052.21 2459.21,2048.06 2459.21,2042.93 C2459.21,2040.21 2460.2,2037.84 2462.18,2035.83 C2464.16,2033.82 2466.52,2032.82 2469.28,2032.82 C2472.03,2032.82 2474.36,2033.81 2476.28,2035.79 C2478.2,2037.77 2479.16,2040.15 2479.16,2042.93 C2479.16,2044.17 2478.14,2045.51 2476.1,2046.97 C2474.05,2048.42 2473.03,2049.77 2473.03,2051 C2473.03,2052.92 2473.98,2054.33 2475.86,2055.22 C2477.75,2056.12 2480.02,2056.57 2482.68,2056.57 C2486.15,2056.57 2488.6,2054.85 2490.06,2051.42 C2491.51,2047.99 2492.24,2043.77 2492.24,2038.76 L2492.24,2036.34 C2492.24,2033 2492.13,2030.47 2491.91,2028.74 C2491.7,2027.01 2491.02,2025.46 2489.87,2024.1 C2488.73,2022.74 2486.98,2022.06 2484.63,2022.06 L2472.48,2022.06 C2471.06,2022.06 2470.34,2021.28 2470.34,2019.74 C2470.34,2018.32 2471.06,2017.6 2472.48,2017.6 L2484.63,2017.6 C2487.17,2017.6 2489.15,2016.65 2490.57,2014.73 C2491.06,2014.05 2491.47,2012.93 2491.77,2011.39 C2492.08,2009.35 2492.24,2006.41 2492.24,2002.57 L2492.24,2001.37 C2492.24,1992.15 2488.84,1987.55 2482.03,1987.55 C2476.03,1987.55 2473.03,1989.22 2473.03,1992.56 C2473.03,1993.67 2473.95,1994.86 2475.77,1996.13 C2477.6,1997.39 2478.51,1998.59 2478.51,1999.7 C2478.51,2002.11 2477.66,2004.18 2475.96,2005.91 C2474.26,2007.65 2472.18,2008.51 2469.74,2008.51 C2467.3,2008.51 2465.24,2007.65 2463.57,2005.91 C2461.9,2004.18 2461.07,2002.11 2461.07,1999.7 C2461.07,1994.94 2463.14,1991.13 2467.28,1988.29 C2471.43,1985.44 2476.34,1984.02 2482.03,1984.02 C2489.52,1984.02 2495.67,1985.46 2500.5,1988.33 C2505.32,1991.21 2507.73,1995.55 2507.73,2001.37 C2507.73,2005.51 2507.3,2008.73 2506.43,2011.02 C2505.57,2013.31 2504.58,2014.7 2503.46,2015.19 C2502.35,2015.69 2501.36,2016.26 2500.5,2016.91 C2499.63,2017.56 2499.2,2018.5 2499.2,2019.74"/>
<path class="FiguredBass" d="M3498.69,1776.05 C3494.11,1776.05 3491.07,1777.89 3489.55,1781.57 C3488.03,1785.25 3487.28,1790.46 3487.28,1797.2 L3487.28,1808.15 C3490.49,1806.85 3493.28,1806.17 3495.63,1806.1 C3503.67,1806.1 3509.99,1807.88 3514.6,1811.44 C3519.21,1814.99 3521.51,1820.28 3521.51,1827.3 C3521.51,1834.32 3519.18,1839.63 3514.51,1843.21 C3509.84,1846.8 3503.54,1848.59 3495.63,1848.59 C3487.52,1848.59 3481.18,1844.84 3476.61,1837.32 C3472.03,1829.81 3469.74,1820.89 3469.74,1810.56 C3469.74,1800.29 3472.4,1791.38 3477.72,1783.84 C3483.04,1776.29 3490.03,1772.52 3498.69,1772.52 C3504.38,1772.52 3509.3,1773.96 3513.44,1776.83 C3517.58,1779.71 3519.65,1783.5 3519.65,1788.2 C3519.65,1790.92 3518.67,1793.27 3516.69,1795.25 C3514.71,1797.23 3512.34,1798.22 3509.59,1798.22 C3506.84,1798.22 3504.47,1797.23 3502.49,1795.25 C3500.51,1793.27 3499.52,1790.92 3499.52,1788.2 C3499.52,1785.54 3500.51,1783.19 3502.49,1781.15 C3503.17,1780.34 3504.13,1779.66 3505.37,1779.11 C3505.06,1778.3 3504.44,1777.68 3503.51,1777.25 C3502.15,1776.45 3500.54,1776.05 3498.69,1776.05 M3503.23,1813.99 C3502.12,1811.08 3499.68,1809.63 3495.9,1809.63 C3492.13,1809.63 3489.8,1811.08 3488.9,1813.99 C3488,1816.9 3487.56,1821.32 3487.56,1827.26 C3487.56,1834.25 3488,1838.95 3488.9,1841.36 C3489.8,1843.77 3492.13,1844.98 3495.9,1844.98 C3499.68,1844.98 3502.12,1843.52 3503.23,1840.62 C3504.35,1837.71 3504.9,1833.27 3504.9,1827.3 C3504.9,1821.33 3504.35,1816.9 3503.23,1813.99"/>
<path class="FiguredBass" d="M3476.05,1878.27 C3476.05,1878.27 3477.54,1878.49 3480.5,1878.92 C3481.8,1879.11 3483.26,1879.29 3484.86,1879.48 C3489.13,1879.97 3493.25,1880.22 3497.2,1880.22 C3501.16,1880.22 3505.34,1879.97 3509.73,1879.48 C3511.46,1879.29 3512.98,1879.11 3514.27,1878.92 L3518.82,1878.27 C3519.75,1878.27 3520.44,1878.58 3520.91,1879.2 C3521.37,1879.82 3521.32,1880.31 3520.77,1880.68 C3511.31,1890.15 3497.98,1894.88 3480.78,1894.88 C3480.1,1894.88 3479.5,1895.12 3478.97,1895.62 C3478.45,1896.11 3478.19,1896.73 3478.19,1897.47 L3478.19,1912.04 C3482.58,1907.71 3487.9,1905.55 3494.14,1905.55 C3503.17,1905.55 3510.15,1907.57 3515.06,1911.62 C3519.98,1915.67 3522.44,1921.81 3522.44,1930.04 C3522.44,1937.03 3519.65,1942.82 3514.09,1947.43 C3508.52,1952.04 3501.87,1954.34 3494.14,1954.34 C3487.46,1954.34 3481.66,1952.83 3476.75,1949.8 C3471.83,1946.77 3469.37,1942.56 3469.37,1937.18 C3469.37,1934.46 3470.36,1932.09 3472.34,1930.08 C3474.32,1928.07 3476.69,1927.07 3479.44,1927.07 C3482.19,1927.07 3484.52,1928.06 3486.44,1930.04 C3488.36,1932.02 3489.32,1934.4 3489.32,1937.18 C3489.32,1938.42 3488.3,1939.76 3486.26,1941.22 C3484.22,1942.67 3483.19,1944.02 3483.19,1945.25 C3483.19,1948.96 3486.84,1950.82 3494.14,1950.82 C3501.25,1950.82 3504.81,1943.89 3504.81,1930.04 C3504.81,1916.68 3501.25,1909.97 3494.14,1909.91 C3487.77,1909.91 3483.32,1911.2 3480.78,1913.8 C3478.25,1916.4 3476.67,1917.7 3476.05,1917.7 C3474.51,1917.7 3473.76,1916.93 3473.82,1915.38 L3473.82,1880.68 C3473.82,1880 3474.04,1879.43 3474.47,1878.97 C3474.91,1878.5 3475.43,1878.27 3476.05,1878.27"/>
<path class="FiguredBass" d="M3510.56,2019.74 C3510.56,2020.73 3511.12,2021.69 3512.23,2022.61 C3513.35,2023.54 3514.57,2024.42 3515.9,2025.26 C3517.23,2026.09 3518.45,2027.67 3519.56,2029.99 C3520.68,2032.31 3521.23,2035.23 3521.23,2038.76 C3521.23,2045.56 3518.67,2050.82 3513.53,2054.53 C3508.4,2058.24 3501.9,2060.09 3494.05,2060.09 C3487.74,2060.09 3482.25,2058.52 3477.58,2055.36 C3472.91,2052.21 3470.58,2048.06 3470.58,2042.93 C3470.58,2040.21 3471.57,2037.84 3473.55,2035.83 C3475.53,2033.82 3477.89,2032.82 3480.64,2032.82 C3483.4,2032.82 3485.73,2033.81 3487.65,2035.79 C3489.57,2037.77 3490.52,2040.15 3490.52,2042.93 C3490.52,2044.17 3489.5,2045.51 3487.46,2046.97 C3485.42,2048.42 3484.4,2049.77 3484.4,2051 C3484.4,2052.92 3485.34,2054.33 3487.23,2055.22 C3489.12,2056.12 3491.39,2056.57 3494.05,2056.57 C3497.51,2056.57 3499.97,2054.85 3501.42,2051.42 C3502.88,2047.99 3503.6,2043.77 3503.6,2038.76 L3503.6,2036.34 C3503.6,2033 3503.5,2030.47 3503.28,2028.74 C3503.06,2027.01 3502.38,2025.46 3501.24,2024.1 C3500.1,2022.74 3498.35,2022.06 3496,2022.06 L3483.84,2022.06 C3482.42,2022.06 3481.71,2021.28 3481.71,2019.74 C3481.71,2018.32 3482.42,2017.6 3483.84,2017.6 L3496,2017.6 C3498.53,2017.6 3500.51,2016.65 3501.94,2014.73 C3502.43,2014.05 3502.83,2012.93 3503.14,2011.39 C3503.45,2009.35 3503.6,2006.41 3503.6,2002.57 L3503.6,2001.37 C3503.6,1992.15 3500.2,1987.55 3493.4,1987.55 C3487.4,1987.55 3484.4,1989.22 3484.4,1992.56 C3484.4,1993.67 3485.31,1994.86 3487.14,1996.13 C3488.96,1997.39 3489.87,1998.59 3489.87,1999.7 C3489.87,2002.11 3489.02,2004.18 3487.32,2005.91 C3485.62,2007.65 3483.55,2008.51 3481.11,2008.51 C3478.66,2008.51 3476.61,2007.65 3474.94,2005.91 C3473.27,2004.18 3472.43,2002.11 3472.43,1999.7 C3472.43,1994.94 3474.51,1991.13 3478.65,1988.29 C3482.79,1985.44 3487.71,1984.02 3493.4,1984.02 C3500.88,1984.02 3507.04,1985.46 3511.86,1988.33 C3516.69,1991.21 3519.1,1995.55 3519.1,2001.37 C3519.1,2005.51 3518.67,2008.73 3517.8,2011.02 C3516.93,2013.31 3515.94,2014.7 3514.83,2015.19 C3513.72,2015.69 3512.73,2016.26 3511.86,2016.91 C3511,2017.56 3510.56,2018.5 3510.56,2019.74"/>
<polyline class="FretDiagram" stroke="#fc02ff" stroke-width="4.76" stroke-linejoin="bevel" points="3424.83,206.022 3637.94,206.022"/>
<polyline class="FretDiagram" stroke="#fc02ff" stroke-width="4.76" stroke-linejoin="bevel" points="3427.21,194.117 3427.21,420.321"/>
<polyline class="FretDiagram" stroke="#fc02ff" stroke-width="4.76" stroke-linejoin="bevel" points="3468.88,194.117 3468.88,420.321"/>
<polyline class="FretDiagram" stroke="#fc02ff" stroke-width="4.76" stroke-linejoin="bevel" points="3510.55,194.117 3510.55,420.321"/>
<polyline class="FretDiagram" stroke="#fc02ff" stroke-width="4.76" stroke-linejoin="bevel" points="3552.22,194.117 3552.22,420.321"/>
<polyline class="FretDiagram" stroke="#fc02ff" stroke-width="4.76" stroke-linejoin="bevel" points="3593.89,194.117 3593.89,420.321"/>
<polyline class="FretDiagram" stroke="#fc02ff" stroke-width="4.76" stroke-linejoin="bevel" points="3635.56,194.117 3635.56,420.321"/>
<polyline class="FretDiagram" stroke="#fc02ff" stroke-width="4.76" stroke-linejoin="bevel" points="3427.21,253.644 3635.56,253.644"/>
<polyline class="FretDiagram" stroke="#fc02ff" stroke-width="4.76" stroke-linejoin="bevel" points="3427.21,301.266 3635.56,301.266"/>
<polyline class="FretDiagram" stroke="#fc02ff" stroke-width="4.76" stroke-linejoin="bevel" points="3427.21,348.888 3635.56,348.888"/>
<polyline class="FretDiagram" stroke="#fc02ff" stroke-width="4.76" stroke-linejoin="bevel" points="3427.21,396.51 3635.56,396.51"/>
<path class="FretDiagram" fill="#fc02ff" fill-rule="evenodd" d="M3483.47,277.455 C3483.47,285.51 3476.94,292.039 3468.88,292.039 C3460.83,292.039 3454.3,285.51 3454.3,277.455 C3454.3,269.401 3460.83,262.871 3468.88,262.871 C3476.94,262.871 3483.47,269.401 3483.47,277.455"/>
<path class="FretDiagram" fill="#fc02ff" fill-rule="evenodd" d="M3608.48,325.077 C3608.48,333.132 3601.95,339.661 3593.89,339.661 C3585.84,339.661 3579.31,333.132 3579.31,325.077 C3579.31,317.023 3585.84,310.493 3593.89,310.493 C3601.95,310.493 3608.48,317.023 3608.48,325.077"/>
<polyline class="FretDiagram" fill="none" stroke="#fc02ff" stroke-width="6.86" stroke-linecap="round" stroke-linejoin="bevel" points="3410.55,141.732 3443.88,175.068"/>
<polyline class="FretDiagram" fill="none" stroke="#fc02ff" stroke-width="6.86" stroke-linecap="round" stroke-linejoin="bevel" points="3410.55,175.068 3443.88,141.732"/>
<polyline class="FretDiagram" fill="none" stroke="#fc02ff" stroke-width="6.86" stroke-linecap="round" stroke-linejoin="bevel" points="3493.88,141.732 3527.22,175.068"/>
<polyline class="FretDiagram" fill="none" stroke="#fc02ff" stroke-width="6.86" stroke-linecap="round" stroke-linejoin="bevel" points="3493.88,175.068 3527.22,141.732"/>
<path class="FretDiagram" fill="none" stroke="#fc02ff" stroke-width="6.86" stroke-linecap="round" stroke-linejoin="bevel" fill-rule="evenodd" d="M3568.89,158.4 C3568.89,167.605 3561.43,175.068 3552.22,175.068 C3543.02,175.068 3535.55,167.605 3535.55,158.4 C3535.55,149.195 3543.02,141.732 3552.22,141.732 C3561.43,141.732 3568.89,149.195 3568.89,158.4"/>
<path class="FretDiagram" fill="none" stroke="#fc02ff" stroke-width="6.86" stroke-linecap="round" stroke-linejoin="bevel" fill-rule="evenodd" d="M3652.23,158.4 C3652.23,167.605 3644.77,175.068 3635.56,175.068 C3626.35,175.068 3618.89,167.605 3618.89,158.4 C3618.89,149.195 3626.35,141.732 3635.56,141.732 C3644.77,141.732 3652.23,149.195 3652.23,158.4"/>
<polyline class="FretDiagram" fill="none" stroke="#fc02ff" stroke-width="29.17" stroke-linecap="round" stroke-linejoin="bevel" points="3468.88,229.833 3635.56,229.833"/>
<path class="FretDiagram" fill="#fc02ff" d="M3388.81,246.935 L3360.4,246.935 L3360.4,238.1 L3390.99,195.73 L3397.17,195.73 L3397.17,239.43 L3407.14,239.43 L3407.14,246.935 L3397.17,246.935 L3397.17,263.085 L3388.81,263.085 L3388.81,246.935 M3388.81,239.43 L3388.81,209.98 L3367.72,239.43 L3388.81,239.43 "/>
<path class="Bracket" transform="matrix(8.6315,0,0,9.45563,76.1283,2348.31)" d="M0.92002,-50 C2.69004,-51.88 6.2,-55.8 6.2,-63 C6.2,-72.1 2.25996,-81.32 2.25996,-86.97 C2.25996,-93.06 5.84004,-98.84 5.95,-99 C6.05996,-99.16 6.05,-99.39 5.94004,-99.46 C5.82998,-99.53 5.62002,-99.47 5.49004,-99.32 C5.35996,-99.17 0,-93.75 0,-85.6 C0,-76.75 3.5,-70.58 3.5,-59.07 C3.5,-56.89 2.55996,-53.36 0.1,-50.33 C-0.0799805,-50.17 -0.1,-49.89 0.0599609,-49.7 L0.0700195,-49.69 L0.1,-49.66 C2.55996,-46.63 3.5,-43.1 3.5,-40.92 C3.5,-29.4 0,-23.24 0,-14.39 C0,-6.25 5.35996,-0.8 5.49004,-0.659961 C5.62002,-0.52002 5.8,-0.42998 5.94004,-0.52002 C6.07998,-0.609961 6.07998,-0.77998 5.95,-0.97998 C5.82002,-1.17998 2.25996,-6.92002 2.25996,-13.01 C2.25996,-18.66 6.2,-27.9 6.2,-37 C6.2,-44.3 2.69004,-48.12 0.92002,-50"/>
</svg>
