<?xml version="1.0" encoding="UTF-8" standalone="no"?>
<svg width="4209.44px" height="2976.38px" viewBox="0 0 4209.44 2976.38"
 xmlns="http://www.w3.org/2000/svg" xmlns:xlink="http://www.w3.org/1999/xlink" version="1.2" baseProfile="tiny">
<title>CordeRe (28)</title>
<desc>Generated by MuseScore 3.6.2</desc>
<polyline class="StaffLines" fill="none" stroke="#000000" stroke-width="6.55" stroke-linejoin="bevel" points="153.819,558.425 4138.58,558.425"/>
<polyline class="StaffLines" fill="none" stroke="#000000" stroke-width="6.55" stroke-linejoin="bevel" points="153.819,647.717 4138.58,647.717"/>
<polyline class="StaffLines" fill="none" stroke="#000000" stroke-width="6.55" stroke-linejoin="bevel" points="153.819,737.008 4138.58,737.008"/>
<polyline class="StaffLines" fill="none" stroke="#000000" stroke-width="6.55" stroke-linejoin="bevel" points="153.819,826.299 4138.58,826.299"/>
<polyline class="StaffLines" fill="none" stroke="#000000" stroke-width="6.55" stroke-linejoin="bevel" points="153.819,915.591 4138.58,915.591"/>
<polyline class="StaffLines" fill="none" stroke="#000000" stroke-width="6.55" stroke-linejoin="bevel" points="153.819,1004.88 4138.58,1004.88"/>
<polyline class="StaffLines" fill="none" stroke="#000000" stroke-width="6.55" stroke-linejoin="bevel" points="153.819,1391.81 4138.58,1391.81"/>
<polyline class="StaffLines" fill="none" stroke="#000000" stroke-width="6.55" stroke-linejoin="bevel" points="153.819,1451.34 4138.58,1451.34"/>
<polyline class="StaffLines" fill="none" stroke="#000000" stroke-width="6.55" stroke-linejoin="bevel" points="153.819,1510.87 4138.58,1510.87"/>
<polyline class="StaffLines" fill="none" stroke="#000000" stroke-width="6.55" stroke-linejoin="bevel" points="153.819,1570.39 4138.58,1570.39"/>
<polyline class="StaffLines" fill="none" stroke="#000000" stroke-width="6.55" stroke-linejoin="bevel" points="153.819,1629.92 4138.58,1629.92"/>
<polyline class="StaffLines" fill="none" stroke="#000000" stroke-width="6.55" stroke-linejoin="bevel" points="153.819,2099.26 4138.58,2099.26"/>
<polyline class="StaffLines" fill="none" stroke="#000000" stroke-width="6.55" stroke-linejoin="bevel" points="153.819,2158.79 4138.58,2158.79"/>
<polyline class="StaffLines" fill="none" stroke="#000000" stroke-width="6.55" stroke-linejoin="bevel" points="153.819,2218.32 4138.58,2218.32"/>
<polyline class="StaffLines" fill="none" stroke="#000000" stroke-width="6.55" stroke-linejoin="bevel" points="153.819,2277.85 4138.58,2277.85"/>
<polyline class="StaffLines" fill="none" stroke="#000000" stroke-width="6.55" stroke-linejoin="bevel" points="153.819,2337.37 4138.58,2337.37"/>
<polyline class="BarLine" fill="none" stroke="#000000" stroke-width="10.71" stroke-linejoin="bevel" points="159.176,2095.99 159.176,2340.65"/>
<polyline class="BarLine" fill="none" stroke="#000000" stroke-width="10.71" stroke-linejoin="bevel" points="1476.14,2095.99 1476.14,2340.65"/>
<polyline class="BarLine" fill="none" stroke="#000000" stroke-width="10.71" stroke-linejoin="bevel" points="1508.88,2095.99 1508.88,2340.65"/>
<polyline class="BarLine" fill="none" stroke="#000000" stroke-width="10.71" stroke-linejoin="bevel" points="2333.4,2095.99 2333.4,2340.65"/>
<polyline class="BarLine" fill="none" stroke="#000000" stroke-width="10.71" stroke-linejoin="bevel" points="2366.14,2095.99 2366.14,2340.65"/>
<polyline class="BarLine" fill="none" stroke="#000000" stroke-width="10.71" stroke-linejoin="bevel" points="3215.6,2095.99 3215.6,2340.65"/>
<polyline class="BarLine" fill="none" stroke="#000000" stroke-width="10.71" stroke-linejoin="bevel" points="4080.54,2095.99 4080.54,2340.65"/>
<polyline class="BarLine" fill="none" stroke="#000000" stroke-width="32.74" stroke-linejoin="bevel" points="4122.21,2095.99 4122.21,2340.65"/>
<polyline class="BarLine" fill="none" stroke="#000000" stroke-width="10.71" stroke-linejoin="bevel" points="159.176,1388.54 159.176,2099.26"/>
<polyline class="BarLine" fill="none" stroke="#000000" stroke-width="10.71" stroke-linejoin="bevel" points="1476.14,1388.54 1476.14,1633.2"/>
<polyline class="BarLine" fill="none" stroke="#000000" stroke-width="10.71" stroke-linejoin="bevel" points="1508.88,1388.54 1508.88,1633.2"/>
<polyline class="BarLine" fill="none" stroke="#000000" stroke-width="10.71" stroke-linejoin="bevel" points="2333.4,1388.54 2333.4,1633.2"/>
<polyline class="BarLine" fill="none" stroke="#000000" stroke-width="10.71" stroke-linejoin="bevel" points="2366.14,1388.54 2366.14,1633.2"/>
<polyline class="BarLine" fill="none" stroke="#000000" stroke-width="10.71" stroke-linejoin="bevel" points="3215.6,1388.54 3215.6,1633.2"/>
<polyline class="BarLine" fill="none" stroke="#000000" stroke-width="10.71" stroke-linejoin="bevel" points="4080.54,1388.54 4080.54,1633.2"/>
<polyline class="BarLine" fill="none" stroke="#000000" stroke-width="32.74" stroke-linejoin="bevel" points="4122.21,1388.54 4122.21,1633.2"/>
<polyline class="BarLine" fill="none" stroke="#000000" stroke-width="10.71" stroke-linejoin="bevel" points="159.176,555.151 159.176,1391.81"/>
<polyline class="BarLine" fill="none" stroke="#000000" stroke-width="10.71" stroke-linejoin="bevel" points="1476.14,555.151 1476.14,1008.16"/>
<polyline class="BarLine" fill="none" stroke="#000000" stroke-width="10.71" stroke-linejoin="bevel" points="1508.88,555.151 1508.88,1008.16"/>
<polyline class="BarLine" fill="none" stroke="#000000" stroke-width="10.71" stroke-linejoin="bevel" points="2333.4,555.151 2333.4,1008.16"/>
<polyline class="BarLine" fill="none" stroke="#000000" stroke-width="10.71" stroke-linejoin="bevel" points="2366.14,555.151 2366.14,1008.16"/>
<polyline class="BarLine" fill="none" stroke="#000000" stroke-width="10.71" stroke-linejoin="bevel" points="3215.6,555.151 3215.6,1008.16"/>
<polyline class="BarLine" fill="none" stroke="#000000" stroke-width="10.71" stroke-linejoin="bevel" points="4080.54,555.151 4080.54,1008.16"/>
<polyline class="BarLine" fill="none" stroke="#000000" stroke-width="32.74" stroke-linejoin="bevel" points="4122.21,555.151 4122.21,1008.16"/>
<path class="Accidental" transform="matrix(2.3811,0,0,2.3811,2511.27,2129.03)" d="M20.1,-7.9 C19.5,-11.8 17.1,-15.5 12,-15.5 C7,-15.5 4.1,-12.4 3.6,-11.8 L4,-43.9 C4,-44.7 3.4,-45.3 2.6,-45.3 L1.4,-45.3 C0.6,-45.3 0,-44.7 0,-43.9 L0.5,16.2 C0.5,17 1.1,17.6 1.9,17.6 C2.1,17.6 2.5,17.5 2.7,17.4 C3.1,17.2 9.6,14 15,7.9 C18.8,3.6 20.3,-1.3 20.3,-5.4 C20.3,-6.3 20.2,-7.1 20.1,-7.9 M13.2,-4 C13.2,-2.5 12.8,2.1 10.3,5.9 C8.6,8.5 5.2,11.2 3.3,12.7 L3.6,-6.8 C3.8,-7.7 5.3,-10.6 9.3,-10.6 C12.9,-10.6 13.2,-7.2 13.2,-5.1 L13.2,-4 "/>
<path class="Accidental" transform="matrix(2.3811,0,0,2.3811,590.193,1421.57)" d="M23.3,-10.6 C23.9,-10.7 24.4,-11.4 24.4,-12 L24.4,-17.9 C24.4,-18.7 23.8,-19.3 23,-19.3 L22.8,-19.3 L19.5,-18.6 L19.5,-33.5 L16.7,-33.5 L16.7,-18 L7.8,-16.2 L7.8,-30.3 L5,-30.3 L5,-15.6 L1.1,-14.8 C0.5,-14.7 0,-14 0,-13.4 L0,-13.2 L0,-7.4 L0,-7.6 C0,-6.8 0.6,-6.2 1.4,-6.2 L1.7,-6.2 L5,-6.9 L5,9.6 L1.1,10.4 C0.5,10.5 0,11.2 0,11.8 L0,17.6 C0,18.4 0.6,19 1.4,19 L1.7,19 L5,18.3 L5,33.2 L7.8,33.2 L7.8,17.7 L16.7,15.9 L16.7,30 L19.5,30 L19.5,15.3 L23.3,14.6 C23.9,14.5 24.4,13.8 24.4,13.2 L24.4,7.3 C24.4,6.5 23.8,5.9 23,5.9 L22.8,5.9 L19.5,6.6 L19.5,-9.9 L23.3,-10.6 M7.8,9.1 L7.8,-7.5 L16.7,-9.3 L16.7,7.2 L7.8,9.1 "/>
<path class="Accidental" transform="matrix(2.3811,0,0,2.3811,519.002,1391.81)" d="M23.3,-10.6 C23.9,-10.7 24.4,-11.4 24.4,-12 L24.4,-17.9 C24.4,-18.7 23.8,-19.3 23,-19.3 L22.8,-19.3 L19.5,-18.6 L19.5,-33.5 L16.7,-33.5 L16.7,-18 L7.8,-16.2 L7.8,-30.3 L5,-30.3 L5,-15.6 L1.1,-14.8 C0.5,-14.7 0,-14 0,-13.4 L0,-13.2 L0,-7.4 L0,-7.6 C0,-6.8 0.6,-6.2 1.4,-6.2 L1.7,-6.2 L5,-6.9 L5,9.6 L1.1,10.4 C0.5,10.5 0,11.2 0,11.8 L0,17.6 C0,18.4 0.6,19 1.4,19 L1.7,19 L5,18.3 L5,33.2 L7.8,33.2 L7.8,17.7 L16.7,15.9 L16.7,30 L19.5,30 L19.5,15.3 L23.3,14.6 C23.9,14.5 24.4,13.8 24.4,13.2 L24.4,7.3 C24.4,6.5 23.8,5.9 23,5.9 L22.8,5.9 L19.5,6.6 L19.5,-9.9 L23.3,-10.6 M7.8,9.1 L7.8,-7.5 L16.7,-9.3 L16.7,7.2 L7.8,9.1 "/>
<path class="Accidental" transform="matrix(2.3811,0,0,2.3811,661.384,1332.28)" d="M23.3,-10.6 C23.9,-10.7 24.4,-11.4 24.4,-12 L24.4,-17.9 C24.4,-18.7 23.8,-19.3 23,-19.3 L22.8,-19.3 L19.5,-18.6 L19.5,-33.5 L16.7,-33.5 L16.7,-18 L7.8,-16.2 L7.8,-30.3 L5,-30.3 L5,-15.6 L1.1,-14.8 C0.5,-14.7 0,-14 0,-13.4 L0,-13.2 L0,-7.4 L0,-7.6 C0,-6.8 0.6,-6.2 1.4,-6.2 L1.7,-6.2 L5,-6.9 L5,9.6 L1.1,10.4 C0.5,10.5 0,11.2 0,11.8 L0,17.6 C0,18.4 0.6,19 1.4,19 L1.7,19 L5,18.3 L5,33.2 L7.8,33.2 L7.8,17.7 L16.7,15.9 L16.7,30 L19.5,30 L19.5,15.3 L23.3,14.6 C23.9,14.5 24.4,13.8 24.4,13.2 L24.4,7.3 C24.4,6.5 23.8,5.9 23,5.9 L22.8,5.9 L19.5,6.6 L19.5,-9.9 L23.3,-10.6 M7.8,9.1 L7.8,-7.5 L16.7,-9.3 L16.7,7.2 L7.8,9.1 "/>
<path class="Accidental" transform="matrix(2.3811,0,0,2.3811,2429.01,1362.05)" d="M20.1,-7.9 C19.5,-11.8 17.1,-15.5 12,-15.5 C7,-15.5 4.1,-12.4 3.6,-11.8 L4,-43.9 C4,-44.7 3.4,-45.3 2.6,-45.3 L1.4,-45.3 C0.6,-45.3 0,-44.7 0,-43.9 L0.5,16.2 C0.5,17 1.1,17.6 1.9,17.6 C2.1,17.6 2.5,17.5 2.7,17.4 C3.1,17.2 9.6,14 15,7.9 C18.8,3.6 20.3,-1.3 20.3,-5.4 C20.3,-6.3 20.2,-7.1 20.1,-7.9 M13.2,-4 C13.2,-2.5 12.8,2.1 10.3,5.9 C8.6,8.5 5.2,11.2 3.3,12.7 L3.6,-6.8 C3.8,-7.7 5.3,-10.6 9.3,-10.6 C12.9,-10.6 13.2,-7.2 13.2,-5.1 L13.2,-4 "/>
<path class="Accidental" transform="matrix(2.3811,0,0,2.3811,2490.43,1272.76)" d="M20.1,-7.9 C19.5,-11.8 17.1,-15.5 12,-15.5 C7,-15.5 4.1,-12.4 3.6,-11.8 L4,-43.9 C4,-44.7 3.4,-45.3 2.6,-45.3 L1.4,-45.3 C0.6,-45.3 0,-44.7 0,-43.9 L0.5,16.2 C0.5,17 1.1,17.6 1.9,17.6 C2.1,17.6 2.5,17.5 2.7,17.4 C3.1,17.2 9.6,14 15,7.9 C18.8,3.6 20.3,-1.3 20.3,-5.4 C20.3,-6.3 20.2,-7.1 20.1,-7.9 M13.2,-4 C13.2,-2.5 12.8,2.1 10.3,5.9 C8.6,8.5 5.2,11.2 3.3,12.7 L3.6,-6.8 C3.8,-7.7 5.3,-10.6 9.3,-10.6 C12.9,-10.6 13.2,-7.2 13.2,-5.1 L13.2,-4 "/>
<path class="Accidental" transform="matrix(2.3811,0,0,2.3811,3278.46,1332.28)" d="M23.3,-10.6 C23.9,-10.7 24.4,-11.4 24.4,-12 L24.4,-17.9 C24.4,-18.7 23.8,-19.3 23,-19.3 L22.8,-19.3 L19.5,-18.6 L19.5,-33.5 L16.7,-33.5 L16.7,-18 L7.8,-16.2 L7.8,-30.3 L5,-30.3 L5,-15.6 L1.1,-14.8 C0.5,-14.7 0,-14 0,-13.4 L0,-13.2 L0,-7.4 L0,-7.6 C0,-6.8 0.6,-6.2 1.4,-6.2 L1.7,-6.2 L5,-6.9 L5,9.6 L1.1,10.4 C0.5,10.5 0,11.2 0,11.8 L0,17.6 C0,18.4 0.6,19 1.4,19 L1.7,19 L5,18.3 L5,33.2 L7.8,33.2 L7.8,17.7 L16.7,15.9 L16.7,30 L19.5,30 L19.5,15.3 L23.3,14.6 C23.9,14.5 24.4,13.8 24.4,13.2 L24.4,7.3 C24.4,6.5 23.8,5.9 23,5.9 L22.8,5.9 L19.5,6.6 L19.5,-9.9 L23.3,-10.6 M7.8,9.1 L7.8,-7.5 L16.7,-9.3 L16.7,7.2 L7.8,9.1 "/>
<polyline class="LedgerLine" fill="none" stroke="#000000" stroke-width="9.52" stroke-linejoin="bevel" points="801.507,1332.28 931.983,1332.28"/>
<polyline class="LedgerLine" fill="none" stroke="#000000" stroke-width="9.52" stroke-linejoin="bevel" points="1658.77,1332.28 1789.24,1332.28"/>
<polyline class="LedgerLine" fill="none" stroke="#000000" stroke-width="9.52" stroke-linejoin="bevel" points="2553.64,1332.28 2684.12,1332.28"/>
<polyline class="LedgerLine" fill="none" stroke="#000000" stroke-width="9.52" stroke-linejoin="bevel" points="2553.64,1272.76 2684.12,1272.76"/>
<polyline class="LedgerLine" fill="none" stroke="#000000" stroke-width="9.52" stroke-linejoin="bevel" points="3418.59,1332.28 3549.06,1332.28"/>
<polyline class="LedgerLine" fill="none" stroke="#000000" stroke-width="9.52" stroke-linejoin="bevel" points="3418.59,1272.76 3549.06,1272.76"/>
<path class="Note" transform="matrix(2.3811,0,0,2.3811,822.341,2188.56)" d="M18.7,-13.6 C4.9,-13.6 0,-6.6 0,-0.1 C0,6.4 4.9,13.4 18.7,13.4 C32.5,13.4 37.3,6.4 37.3,-0.1 C37.3,-6.6 32.5,-13.6 18.7,-13.6 M10.4,-4.5 C10.3,-4.9 10.3,-5.3 10.3,-5.7 C10.3,-6.5 10.5,-7.3 10.9,-8 C11.6,-9 12.8,-9.7 14.3,-10 C15.6,-10.3 16.3,-10.5 18.9,-10.5 L19,-10.5 C23,-10.5 24.3,-6.8 25.4,-3 L25.7,-2 C26.5,0.6 26.9,2.8 26.9,4.5 C26.9,5.7 26.7,6.8 26.3,7.6 C25.7,8.7 24.7,9.4 23,9.8 C22.1,10 20.6,10.1 20.6,10.1 C20.1,10.1 19.7,10.2 19.3,10.2 C16.1,10.2 14.1,9 12.7,4.7 C11.5,1 11.3,-0.1 10.4,-4.5"/>
<path class="Note" transform="matrix(2.3811,0,0,2.3811,1679.6,2158.79)" d="M18.7,-13.6 C4.9,-13.6 0,-6.6 0,-0.1 C0,6.4 4.9,13.4 18.7,13.4 C32.5,13.4 37.3,6.4 37.3,-0.1 C37.3,-6.6 32.5,-13.6 18.7,-13.6 M10.4,-4.5 C10.3,-4.9 10.3,-5.3 10.3,-5.7 C10.3,-6.5 10.5,-7.3 10.9,-8 C11.6,-9 12.8,-9.7 14.3,-10 C15.6,-10.3 16.3,-10.5 18.9,-10.5 L19,-10.5 C23,-10.5 24.3,-6.8 25.4,-3 L25.7,-2 C26.5,0.6 26.9,2.8 26.9,4.5 C26.9,5.7 26.7,6.8 26.3,7.6 C25.7,8.7 24.7,9.4 23,9.8 C22.1,10 20.6,10.1 20.6,10.1 C20.1,10.1 19.7,10.2 19.3,10.2 C16.1,10.2 14.1,9 12.7,4.7 C11.5,1 11.3,-0.1 10.4,-4.5"/>
<path class="Note" transform="matrix(2.3811,0,0,2.3811,2574.48,2129.03)" d="M18.7,-13.6 C4.9,-13.6 0,-6.6 0,-0.1 C0,6.4 4.9,13.4 18.7,13.4 C32.5,13.4 37.3,6.4 37.3,-0.1 C37.3,-6.6 32.5,-13.6 18.7,-13.6 M10.4,-4.5 C10.3,-4.9 10.3,-5.3 10.3,-5.7 C10.3,-6.5 10.5,-7.3 10.9,-8 C11.6,-9 12.8,-9.7 14.3,-10 C15.6,-10.3 16.3,-10.5 18.9,-10.5 L19,-10.5 C23,-10.5 24.3,-6.8 25.4,-3 L25.7,-2 C26.5,0.6 26.9,2.8 26.9,4.5 C26.9,5.7 26.7,6.8 26.3,7.6 C25.7,8.7 24.7,9.4 23,9.8 C22.1,10 20.6,10.1 20.6,10.1 C20.1,10.1 19.7,10.2 19.3,10.2 C16.1,10.2 14.1,9 12.7,4.7 C11.5,1 11.3,-0.1 10.4,-4.5"/>
<path class="Note" transform="matrix(2.3811,0,0,2.3811,3439.42,2129.03)" d="M18.7,-13.6 C4.9,-13.6 0,-6.6 0,-0.1 C0,6.4 4.9,13.4 18.7,13.4 C32.5,13.4 37.3,6.4 37.3,-0.1 C37.3,-6.6 32.5,-13.6 18.7,-13.6 M10.4,-4.5 C10.3,-4.9 10.3,-5.3 10.3,-5.7 C10.3,-6.5 10.5,-7.3 10.9,-8 C11.6,-9 12.8,-9.7 14.3,-10 C15.6,-10.3 16.3,-10.5 18.9,-10.5 L19,-10.5 C23,-10.5 24.3,-6.8 25.4,-3 L25.7,-2 C26.5,0.6 26.9,2.8 26.9,4.5 C26.9,5.7 26.7,6.8 26.3,7.6 C25.7,8.7 24.7,9.4 23,9.8 C22.1,10 20.6,10.1 20.6,10.1 C20.1,10.1 19.7,10.2 19.3,10.2 C16.1,10.2 14.1,9 12.7,4.7 C11.5,1 11.3,-0.1 10.4,-4.5"/>
<path class="Note" transform="matrix(2.3811,0,0,2.3811,740.082,1421.57)" d="M18.7,-13.6 C4.9,-13.6 0,-6.6 0,-0.1 C0,6.4 4.9,13.4 18.7,13.4 C32.5,13.4 37.3,6.4 37.3,-0.1 C37.3,-6.6 32.5,-13.6 18.7,-13.6 M10.4,-4.5 C10.3,-4.9 10.3,-5.3 10.3,-5.7 C10.3,-6.5 10.5,-7.3 10.9,-8 C11.6,-9 12.8,-9.7 14.3,-10 C15.6,-10.3 16.3,-10.5 18.9,-10.5 L19,-10.5 C23,-10.5 24.3,-6.8 25.4,-3 L25.7,-2 C26.5,0.6 26.9,2.8 26.9,4.5 C26.9,5.7 26.7,6.8 26.3,7.6 C25.7,8.7 24.7,9.4 23,9.8 C22.1,10 20.6,10.1 20.6,10.1 C20.1,10.1 19.7,10.2 19.3,10.2 C16.1,10.2 14.1,9 12.7,4.7 C11.5,1 11.3,-0.1 10.4,-4.5"/>
<path class="Note" transform="matrix(2.3811,0,0,2.3811,822.341,1391.81)" d="M18.7,-13.6 C4.9,-13.6 0,-6.6 0,-0.1 C0,6.4 4.9,13.4 18.7,13.4 C32.5,13.4 37.3,6.4 37.3,-0.1 C37.3,-6.6 32.5,-13.6 18.7,-13.6 M10.4,-4.5 C10.3,-4.9 10.3,-5.3 10.3,-5.7 C10.3,-6.5 10.5,-7.3 10.9,-8 C11.6,-9 12.8,-9.7 14.3,-10 C15.6,-10.3 16.3,-10.5 18.9,-10.5 L19,-10.5 C23,-10.5 24.3,-6.8 25.4,-3 L25.7,-2 C26.5,0.6 26.9,2.8 26.9,4.5 C26.9,5.7 26.7,6.8 26.3,7.6 C25.7,8.7 24.7,9.4 23,9.8 C22.1,10 20.6,10.1 20.6,10.1 C20.1,10.1 19.7,10.2 19.3,10.2 C16.1,10.2 14.1,9 12.7,4.7 C11.5,1 11.3,-0.1 10.4,-4.5"/>
<path class="Note" transform="matrix(2.3811,0,0,2.3811,822.341,1332.28)" d="M18.7,-13.6 C4.9,-13.6 0,-6.6 0,-0.1 C0,6.4 4.9,13.4 18.7,13.4 C32.5,13.4 37.3,6.4 37.3,-0.1 C37.3,-6.6 32.5,-13.6 18.7,-13.6 M10.4,-4.5 C10.3,-4.9 10.3,-5.3 10.3,-5.7 C10.3,-6.5 10.5,-7.3 10.9,-8 C11.6,-9 12.8,-9.7 14.3,-10 C15.6,-10.3 16.3,-10.5 18.9,-10.5 L19,-10.5 C23,-10.5 24.3,-6.8 25.4,-3 L25.7,-2 C26.5,0.6 26.9,2.8 26.9,4.5 C26.9,5.7 26.7,6.8 26.3,7.6 C25.7,8.7 24.7,9.4 23,9.8 C22.1,10 20.6,10.1 20.6,10.1 C20.1,10.1 19.7,10.2 19.3,10.2 C16.1,10.2 14.1,9 12.7,4.7 C11.5,1 11.3,-0.1 10.4,-4.5"/>
<path class="Note" transform="matrix(2.3811,0,0,2.3811,1597.34,1391.81)" d="M18.7,-13.6 C4.9,-13.6 0,-6.6 0,-0.1 C0,6.4 4.9,13.4 18.7,13.4 C32.5,13.4 37.3,6.4 37.3,-0.1 C37.3,-6.6 32.5,-13.6 18.7,-13.6 M10.4,-4.5 C10.3,-4.9 10.3,-5.3 10.3,-5.7 C10.3,-6.5 10.5,-7.3 10.9,-8 C11.6,-9 12.8,-9.7 14.3,-10 C15.6,-10.3 16.3,-10.5 18.9,-10.5 L19,-10.5 C23,-10.5 24.3,-6.8 25.4,-3 L25.7,-2 C26.5,0.6 26.9,2.8 26.9,4.5 C26.9,5.7 26.7,6.8 26.3,7.6 C25.7,8.7 24.7,9.4 23,9.8 C22.1,10 20.6,10.1 20.6,10.1 C20.1,10.1 19.7,10.2 19.3,10.2 C16.1,10.2 14.1,9 12.7,4.7 C11.5,1 11.3,-0.1 10.4,-4.5"/>
<path class="Note" transform="matrix(2.3811,0,0,2.3811,1679.6,1362.05)" d="M18.7,-13.6 C4.9,-13.6 0,-6.6 0,-0.1 C0,6.4 4.9,13.4 18.7,13.4 C32.5,13.4 37.3,6.4 37.3,-0.1 C37.3,-6.6 32.5,-13.6 18.7,-13.6 M10.4,-4.5 C10.3,-4.9 10.3,-5.3 10.3,-5.7 C10.3,-6.5 10.5,-7.3 10.9,-8 C11.6,-9 12.8,-9.7 14.3,-10 C15.6,-10.3 16.3,-10.5 18.9,-10.5 L19,-10.5 C23,-10.5 24.3,-6.8 25.4,-3 L25.7,-2 C26.5,0.6 26.9,2.8 26.9,4.5 C26.9,5.7 26.7,6.8 26.3,7.6 C25.7,8.7 24.7,9.4 23,9.8 C22.1,10 20.6,10.1 20.6,10.1 C20.1,10.1 19.7,10.2 19.3,10.2 C16.1,10.2 14.1,9 12.7,4.7 C11.5,1 11.3,-0.1 10.4,-4.5"/>
<path class="Note" transform="matrix(2.3811,0,0,2.3811,1679.6,1302.52)" d="M18.7,-13.6 C4.9,-13.6 0,-6.6 0,-0.1 C0,6.4 4.9,13.4 18.7,13.4 C32.5,13.4 37.3,6.4 37.3,-0.1 C37.3,-6.6 32.5,-13.6 18.7,-13.6 M10.4,-4.5 C10.3,-4.9 10.3,-5.3 10.3,-5.7 C10.3,-6.5 10.5,-7.3 10.9,-8 C11.6,-9 12.8,-9.7 14.3,-10 C15.6,-10.3 16.3,-10.5 18.9,-10.5 L19,-10.5 C23,-10.5 24.3,-6.8 25.4,-3 L25.7,-2 C26.5,0.6 26.9,2.8 26.9,4.5 C26.9,5.7 26.7,6.8 26.3,7.6 C25.7,8.7 24.7,9.4 23,9.8 C22.1,10 20.6,10.1 20.6,10.1 C20.1,10.1 19.7,10.2 19.3,10.2 C16.1,10.2 14.1,9 12.7,4.7 C11.5,1 11.3,-0.1 10.4,-4.5"/>
<path class="Note" transform="matrix(2.3811,0,0,2.3811,2492.22,1362.05)" d="M18.7,-13.6 C4.9,-13.6 0,-6.6 0,-0.1 C0,6.4 4.9,13.4 18.7,13.4 C32.5,13.4 37.3,6.4 37.3,-0.1 C37.3,-6.6 32.5,-13.6 18.7,-13.6 M10.4,-4.5 C10.3,-4.9 10.3,-5.3 10.3,-5.7 C10.3,-6.5 10.5,-7.3 10.9,-8 C11.6,-9 12.8,-9.7 14.3,-10 C15.6,-10.3 16.3,-10.5 18.9,-10.5 L19,-10.5 C23,-10.5 24.3,-6.8 25.4,-3 L25.7,-2 C26.5,0.6 26.9,2.8 26.9,4.5 C26.9,5.7 26.7,6.8 26.3,7.6 C25.7,8.7 24.7,9.4 23,9.8 C22.1,10 20.6,10.1 20.6,10.1 C20.1,10.1 19.7,10.2 19.3,10.2 C16.1,10.2 14.1,9 12.7,4.7 C11.5,1 11.3,-0.1 10.4,-4.5"/>
<path class="Note" transform="matrix(2.3811,0,0,2.3811,2574.48,1332.28)" d="M18.7,-13.6 C4.9,-13.6 0,-6.6 0,-0.1 C0,6.4 4.9,13.4 18.7,13.4 C32.5,13.4 37.3,6.4 37.3,-0.1 C37.3,-6.6 32.5,-13.6 18.7,-13.6 M10.4,-4.5 C10.3,-4.9 10.3,-5.3 10.3,-5.7 C10.3,-6.5 10.5,-7.3 10.9,-8 C11.6,-9 12.8,-9.7 14.3,-10 C15.6,-10.3 16.3,-10.5 18.9,-10.5 L19,-10.5 C23,-10.5 24.3,-6.8 25.4,-3 L25.7,-2 C26.5,0.6 26.9,2.8 26.9,4.5 C26.9,5.7 26.7,6.8 26.3,7.6 C25.7,8.7 24.7,9.4 23,9.8 C22.1,10 20.6,10.1 20.6,10.1 C20.1,10.1 19.7,10.2 19.3,10.2 C16.1,10.2 14.1,9 12.7,4.7 C11.5,1 11.3,-0.1 10.4,-4.5"/>
<path class="Note" transform="matrix(2.3811,0,0,2.3811,2574.48,1272.76)" d="M18.7,-13.6 C4.9,-13.6 0,-6.6 0,-0.1 C0,6.4 4.9,13.4 18.7,13.4 C32.5,13.4 37.3,6.4 37.3,-0.1 C37.3,-6.6 32.5,-13.6 18.7,-13.6 M10.4,-4.5 C10.3,-4.9 10.3,-5.3 10.3,-5.7 C10.3,-6.5 10.5,-7.3 10.9,-8 C11.6,-9 12.8,-9.7 14.3,-10 C15.6,-10.3 16.3,-10.5 18.9,-10.5 L19,-10.5 C23,-10.5 24.3,-6.8 25.4,-3 L25.7,-2 C26.5,0.6 26.9,2.8 26.9,4.5 C26.9,5.7 26.7,6.8 26.3,7.6 C25.7,8.7 24.7,9.4 23,9.8 C22.1,10 20.6,10.1 20.6,10.1 C20.1,10.1 19.7,10.2 19.3,10.2 C16.1,10.2 14.1,9 12.7,4.7 C11.5,1 11.3,-0.1 10.4,-4.5"/>
<path class="Note" transform="matrix(2.3811,0,0,2.3811,3357.16,1362.05)" d="M18.7,-13.6 C4.9,-13.6 0,-6.6 0,-0.1 C0,6.4 4.9,13.4 18.7,13.4 C32.5,13.4 37.3,6.4 37.3,-0.1 C37.3,-6.6 32.5,-13.6 18.7,-13.6 M10.4,-4.5 C10.3,-4.9 10.3,-5.3 10.3,-5.7 C10.3,-6.5 10.5,-7.3 10.9,-8 C11.6,-9 12.8,-9.7 14.3,-10 C15.6,-10.3 16.3,-10.5 18.9,-10.5 L19,-10.5 C23,-10.5 24.3,-6.8 25.4,-3 L25.7,-2 C26.5,0.6 26.9,2.8 26.9,4.5 C26.9,5.7 26.7,6.8 26.3,7.6 C25.7,8.7 24.7,9.4 23,9.8 C22.1,10 20.6,10.1 20.6,10.1 C20.1,10.1 19.7,10.2 19.3,10.2 C16.1,10.2 14.1,9 12.7,4.7 C11.5,1 11.3,-0.1 10.4,-4.5"/>
<path class="Note" transform="matrix(2.3811,0,0,2.3811,3439.42,1332.28)" d="M18.7,-13.6 C4.9,-13.6 0,-6.6 0,-0.1 C0,6.4 4.9,13.4 18.7,13.4 C32.5,13.4 37.3,6.4 37.3,-0.1 C37.3,-6.6 32.5,-13.6 18.7,-13.6 M10.4,-4.5 C10.3,-4.9 10.3,-5.3 10.3,-5.7 C10.3,-6.5 10.5,-7.3 10.9,-8 C11.6,-9 12.8,-9.7 14.3,-10 C15.6,-10.3 16.3,-10.5 18.9,-10.5 L19,-10.5 C23,-10.5 24.3,-6.8 25.4,-3 L25.7,-2 C26.5,0.6 26.9,2.8 26.9,4.5 C26.9,5.7 26.7,6.8 26.3,7.6 C25.7,8.7 24.7,9.4 23,9.8 C22.1,10 20.6,10.1 20.6,10.1 C20.1,10.1 19.7,10.2 19.3,10.2 C16.1,10.2 14.1,9 12.7,4.7 C11.5,1 11.3,-0.1 10.4,-4.5"/>
<path class="Note" transform="matrix(2.3811,0,0,2.3811,3439.42,1272.76)" d="M18.7,-13.6 C4.9,-13.6 0,-6.6 0,-0.1 C0,6.4 4.9,13.4 18.7,13.4 C32.5,13.4 37.3,6.4 37.3,-0.1 C37.3,-6.6 32.5,-13.6 18.7,-13.6 M10.4,-4.5 C10.3,-4.9 10.3,-5.3 10.3,-5.7 C10.3,-6.5 10.5,-7.3 10.9,-8 C11.6,-9 12.8,-9.7 14.3,-10 C15.6,-10.3 16.3,-10.5 18.9,-10.5 L19,-10.5 C23,-10.5 24.3,-6.8 25.4,-3 L25.7,-2 C26.5,0.6 26.9,2.8 26.9,4.5 C26.9,5.7 26.7,6.8 26.3,7.6 C25.7,8.7 24.7,9.4 23,9.8 C22.1,10 20.6,10.1 20.6,10.1 C20.1,10.1 19.7,10.2 19.3,10.2 C16.1,10.2 14.1,9 12.7,4.7 C11.5,1 11.3,-0.1 10.4,-4.5"/>
<path class="Note" d="M856.884,910.409 C853.088,910.409 851.19,906.342 851.19,898.207 L851.19,864.157 C851.19,860.903 852.778,859.276 855.954,859.276 C857.349,859.276 858.395,859.392 859.092,859.625 C861.571,855.286 865.639,851.645 871.294,848.701 C879.197,844.595 887.215,842.542 895.35,842.542 C901.78,842.542 904.995,844.943 904.995,849.747 C904.995,853.776 902.826,855.79 898.488,855.79 C895.389,855.79 892.445,855.093 889.656,853.698 C887.176,852.458 884.542,851.839 881.753,851.839 C876.95,851.839 869.861,854.976 860.487,861.252 C861.804,867.527 862.462,874.848 862.462,883.216 C862.462,901.345 860.603,910.409 856.884,910.409"/>
<path class="Note" d="M936.953,616.271 C930.601,626.265 920.568,634.555 906.855,641.14 C894.924,646.874 883.768,649.74 873.386,649.74 C865.096,649.74 858.201,648.074 852.7,644.743 C846.735,641.102 843.752,636.763 843.752,631.727 C843.752,620.339 846.735,610.538 852.7,602.326 C860.835,591.17 869.047,585.592 877.337,585.592 C883.225,585.592 887.409,586.754 889.888,589.078 C893.297,592.099 895.001,596.244 895.001,601.513 C895.001,608.95 889.462,615.419 878.383,620.92 C867.614,626.265 860.138,629.752 855.954,631.379 C856.884,633.316 858.085,635.059 859.557,636.608 C863.198,640.482 868.157,642.419 874.432,642.419 C882.334,642.419 892.948,639.513 906.274,633.703 C919.057,628.047 929.283,622.237 936.953,616.271 M854.327,626.033 C860.138,623.089 865.445,619.641 870.248,615.69 C877.376,609.88 880.94,603.604 880.94,596.864 C880.94,593.068 879.197,591.17 875.71,591.17 C872.766,591.17 868.738,594.54 863.624,601.28 C857.194,609.647 853.979,616.465 853.979,621.733 C853.979,623.205 854.095,624.638 854.327,626.033"/>
<path class="Note" d="M790.072,766.499 C790.382,754.8 796.851,744.418 809.479,735.354 C820.713,727.297 832.992,723.268 846.318,723.268 C864.989,723.268 881.452,730.589 895.708,745.232 C904.772,754.606 909.304,766.227 909.304,780.095 C909.304,792.568 905.973,802.137 899.31,808.799 C891.175,817.012 882.576,821.118 873.511,821.118 C867.313,821.118 862.51,819.723 859.101,816.934 C853.523,812.363 850.734,806.243 850.734,798.573 C850.734,788.656 855.692,779.592 865.609,771.379 C873.744,764.639 881.917,760.223 890.129,758.131 C887.96,754.413 885.21,750.926 881.878,747.672 C871.497,737.523 859.721,732.449 846.55,732.449 C832.837,732.449 821.488,735.431 812.501,741.397 C803.204,747.517 795.727,755.885 790.072,766.499 M893.035,764.291 C888.774,768.242 884.513,772.464 880.252,776.957 C871.884,785.79 867.701,794.157 867.701,802.059 C867.701,810.504 869.638,814.726 873.511,814.726 C876.998,814.726 881.878,809.961 888.154,800.432 C893.19,792.84 895.708,785.867 895.708,779.514 C895.708,774.091 894.817,769.016 893.035,764.291"/>
<path class="Note" d="M856.884,731.826 C853.088,731.826 851.19,727.759 851.19,719.624 L851.19,685.574 C851.19,682.32 852.778,680.693 855.954,680.693 C857.349,680.693 858.395,680.81 859.092,681.042 C861.571,676.704 865.639,673.062 871.294,670.118 C879.197,666.012 887.215,663.959 895.35,663.959 C901.78,663.959 904.995,666.361 904.995,671.164 C904.995,675.193 902.826,677.207 898.488,677.207 C895.389,677.207 892.445,676.51 889.656,675.115 C887.176,673.876 884.542,673.256 881.753,673.256 C876.95,673.256 869.861,676.394 860.487,682.669 C861.804,688.944 862.462,696.266 862.462,704.633 C862.462,722.762 860.603,731.826 856.884,731.826"/>
<path class="Note" d="M1647.33,855.79 C1647.64,844.091 1654.11,833.71 1666.74,824.645 C1677.97,816.588 1690.25,812.559 1703.58,812.559 C1722.25,812.559 1738.71,819.881 1752.97,834.523 C1762.03,843.898 1766.57,855.519 1766.57,869.387 C1766.57,881.86 1763.23,891.428 1756.57,898.091 C1748.44,906.303 1739.84,910.409 1730.77,910.409 C1724.57,910.409 1719.77,909.014 1716.36,906.225 C1710.78,901.654 1708,895.534 1708,887.864 C1708,877.947 1712.95,868.883 1722.87,860.671 C1731.01,853.93 1739.18,849.514 1747.39,847.423 C1745.22,843.704 1742.47,840.218 1739.14,836.964 C1728.76,826.815 1716.98,821.74 1703.81,821.74 C1690.1,821.74 1678.75,824.723 1669.76,830.688 C1660.46,836.809 1652.99,845.176 1647.33,855.79 M1750.3,853.582 C1746.03,857.533 1741.77,861.755 1737.51,866.249 C1729.15,875.081 1724.96,883.448 1724.96,891.35 C1724.96,899.795 1726.9,904.017 1730.77,904.017 C1734.26,904.017 1739.14,899.253 1745.42,889.723 C1750.45,882.131 1752.97,875.158 1752.97,868.805 C1752.97,863.382 1752.08,858.308 1750.3,853.582"/>
<path class="Note" d="M1758.42,494.673 C1762.99,494.673 1765.28,497.54 1765.28,503.273 C1765.28,507.302 1762.76,513.306 1757.72,521.286 C1753.7,527.716 1751.68,533.991 1751.68,540.112 C1751.68,543.598 1756.76,545.341 1766.91,545.341 C1775.27,545.341 1786.93,540.809 1801.88,531.745 C1786.85,546.232 1773.8,553.476 1762.72,553.476 C1752.73,553.476 1745.75,551.965 1741.8,548.944 C1740.8,548.169 1739.94,547.239 1739.25,546.155 C1735.37,550.881 1728.9,553.244 1719.84,553.244 C1711.16,553.244 1704.5,551.462 1699.85,547.898 C1696.75,545.496 1695.2,541.661 1695.2,536.393 C1695.2,528.026 1700.16,518.884 1710.08,508.967 C1720.69,498.353 1732.97,493.046 1746.92,493.046 C1750.4,493.046 1752.96,494.325 1754.59,496.881 C1755.9,495.409 1757.18,494.673 1758.42,494.673 M1737.62,540.925 C1737.54,540.305 1737.5,539.686 1737.5,539.066 C1737.5,538.756 1741.45,527.948 1749.36,506.643 C1750.13,504.551 1750.91,502.769 1751.68,501.297 C1748.66,500.678 1745.68,500.368 1742.73,500.368 C1737.31,500.368 1730.11,504.977 1721.12,514.197 C1713.06,522.409 1709.03,529.498 1709.03,535.463 C1709.03,542.049 1712.17,545.341 1718.45,545.341 C1726.04,545.341 1732.43,543.869 1737.62,540.925"/>
<path class="Note" d="M1794.21,794.854 C1787.86,804.848 1777.83,813.138 1764.12,819.723 C1752.19,825.456 1741.03,828.323 1730.65,828.323 C1722.36,828.323 1715.46,826.657 1709.96,823.326 C1704,819.684 1701.01,815.346 1701.01,810.31 C1701.01,798.921 1704,789.121 1709.96,780.909 C1718.1,769.752 1726.31,764.174 1734.6,764.174 C1740.49,764.174 1744.67,765.336 1747.15,767.661 C1750.56,770.682 1752.26,774.827 1752.26,780.095 C1752.26,787.533 1746.72,794.002 1735.64,799.502 C1724.88,804.848 1717.4,808.334 1713.22,809.961 C1714.15,811.898 1715.35,813.641 1716.82,815.191 C1720.46,819.065 1725.42,821.001 1731.69,821.001 C1739.6,821.001 1750.21,818.096 1763.54,812.286 C1776.32,806.63 1786.54,800.819 1794.21,794.854 M1711.59,804.616 C1717.4,801.672 1722.71,798.224 1727.51,794.273 C1734.64,788.462 1738.2,782.187 1738.2,775.447 C1738.2,771.651 1736.46,769.752 1732.97,769.752 C1730.03,769.752 1726,773.123 1720.89,779.863 C1714.46,788.23 1711.24,795.048 1711.24,800.316 C1711.24,801.788 1711.36,803.221 1711.59,804.616"/>
<path class="Note" d="M1647.33,677.207 C1647.64,665.509 1654.11,655.127 1666.74,646.063 C1677.97,638.005 1690.25,633.977 1703.58,633.977 C1722.25,633.977 1738.71,641.298 1752.97,655.941 C1762.03,665.315 1766.57,676.936 1766.57,690.804 C1766.57,703.277 1763.23,712.845 1756.57,719.508 C1748.44,727.72 1739.84,731.826 1730.77,731.826 C1724.57,731.826 1719.77,730.432 1716.36,727.643 C1710.78,723.072 1708,716.951 1708,709.281 C1708,699.365 1712.95,690.3 1722.87,682.088 C1731.01,675.348 1739.18,670.932 1747.39,668.84 C1745.22,665.121 1742.47,661.635 1739.14,658.381 C1728.76,648.232 1716.98,643.157 1703.81,643.157 C1690.1,643.157 1678.75,646.14 1669.76,652.106 C1660.46,658.226 1652.99,666.593 1647.33,677.207 M1750.3,674.999 C1746.03,678.95 1741.77,683.173 1737.51,687.666 C1729.15,696.498 1724.96,704.865 1724.96,712.768 C1724.96,721.212 1726.9,725.435 1730.77,725.435 C1734.26,725.435 1739.14,720.67 1745.42,711.141 C1750.45,703.548 1752.97,696.576 1752.97,690.223 C1752.97,684.8 1752.08,679.725 1750.3,674.999"/>
<path class="Note" d="M2689.09,884.145 C2682.74,894.139 2672.7,902.429 2658.99,909.014 C2647.06,914.748 2635.9,917.614 2625.52,917.614 C2617.23,917.614 2610.34,915.948 2604.84,912.617 C2598.87,908.976 2595.89,904.637 2595.89,899.601 C2595.89,888.213 2598.87,878.412 2604.84,870.2 C2612.97,859.044 2621.18,853.466 2629.47,853.466 C2635.36,853.466 2639.55,854.628 2642.02,856.952 C2645.43,859.973 2647.14,864.118 2647.14,869.387 C2647.14,876.824 2641.6,883.293 2630.52,888.794 C2619.75,894.139 2612.27,897.626 2608.09,899.253 C2609.02,901.19 2610.22,902.933 2611.69,904.482 C2615.33,908.356 2620.29,910.293 2626.57,910.293 C2634.47,910.293 2645.08,907.388 2658.41,901.577 C2671.19,895.921 2681.42,890.111 2689.09,884.145 M2606.46,893.907 C2612.27,890.963 2617.58,887.515 2622.38,883.564 C2629.51,877.754 2633.08,871.478 2633.08,864.738 C2633.08,860.942 2631.33,859.044 2627.85,859.044 C2624.9,859.044 2620.87,862.414 2615.76,869.154 C2609.33,877.521 2606.12,884.339 2606.12,889.607 C2606.12,891.079 2606.23,892.513 2606.46,893.907"/>
<path class="Note" d="M2667.36,584.778 C2667.36,593.688 2657.21,613.25 2636.91,643.465 C2628.85,655.473 2617.27,664.266 2602.16,669.845 C2591.01,674.028 2578.11,676.12 2563.47,676.12 C2558.74,676.12 2554.56,675.152 2550.92,673.215 C2546.89,671.123 2544.87,668.837 2544.87,666.358 C2544.87,659.928 2548.32,656.713 2555.22,656.713 C2556.22,656.713 2556.73,657.332 2556.73,658.572 C2556.73,659.657 2556.22,660.858 2555.22,662.175 C2553.98,663.802 2553.36,665.002 2553.36,665.777 C2553.36,668.101 2556.84,669.263 2563.81,669.263 C2579.46,669.263 2591.82,667.365 2600.89,663.569 C2610.34,659.695 2619.75,649.818 2629.13,633.935 L2631.8,628.938 C2627.3,632.347 2622.85,634.052 2618.43,634.052 C2607.43,634.052 2601.93,629.597 2601.93,620.687 C2601.93,611.081 2608.4,600.97 2621.34,590.356 C2631.49,582.144 2640.51,578.038 2648.42,578.038 C2652.37,578.038 2655.66,579.084 2658.29,581.176 C2659.22,580.478 2660.39,580.13 2661.78,580.13 C2665.5,580.13 2667.36,581.679 2667.36,584.778 M2633.19,626.498 L2655.16,585.94 C2653.45,585.553 2651.55,585.359 2649.46,585.359 C2641.95,585.359 2634.66,589.736 2627.61,598.491 C2619.4,608.718 2615.3,616.891 2615.3,623.012 C2615.3,627.04 2617.97,629.055 2623.31,629.055 C2625.87,629.055 2629.16,628.202 2633.19,626.498"/>
<path class="Note" d="M2668.17,739.77 C2672.51,736.826 2675.65,734.386 2677.59,732.449 C2681.15,728.652 2682.93,725.166 2682.93,721.99 C2682.93,718.348 2680.92,716.528 2676.89,716.528 C2669.06,716.528 2660.7,723.423 2651.79,737.213 C2649.07,741.397 2643.11,755.032 2633.89,778.12 C2641.25,785.712 2644.93,790.012 2644.93,791.019 C2644.93,792.414 2644.04,793.111 2642.26,793.111 C2640.86,793.111 2637.03,790.748 2630.75,786.022 C2623.93,801.904 2613.59,815.462 2599.72,826.696 C2585.55,838.162 2568.62,843.895 2548.94,843.895 C2541.42,843.895 2532.01,842.152 2520.7,838.666 C2511.64,835.876 2507.1,831.422 2507.1,825.301 C2507.1,816.237 2510.59,811.705 2517.56,811.705 C2521.75,811.705 2523.84,813.641 2523.84,817.515 C2523.84,818.755 2522.87,820.072 2520.93,821.466 C2519.93,822.164 2519.42,823.519 2519.42,825.534 C2519.42,827.935 2522.09,830.415 2527.44,832.971 C2533.25,835.76 2541.77,837.155 2553.01,837.155 C2567.49,837.155 2581.48,830.879 2594.96,818.329 C2607.2,806.94 2615.99,793.692 2621.34,778.584 C2619.25,776.88 2617,775.021 2614.6,773.006 C2607.16,768.59 2603.44,764.058 2603.44,759.41 C2603.44,757.473 2604.72,756.504 2607.28,756.504 C2610.69,756.504 2615.3,759.41 2621.11,765.22 C2622.35,766.46 2623.51,767.622 2624.59,768.707 C2627.3,761.269 2631.64,751.817 2637.61,740.351 C2648.38,719.588 2661.47,709.207 2676.89,709.207 C2682.39,709.207 2686.73,710.252 2689.9,712.344 C2693.08,714.436 2694.67,717.303 2694.67,720.944 C2694.67,726.754 2692.54,731.674 2688.28,735.703 C2683.86,739.886 2679.25,741.978 2674.45,741.978 C2670.26,741.978 2668.17,741.242 2668.17,739.77"/>
<path class="Note" d="M2689.09,705.563 C2682.74,715.557 2672.7,723.846 2658.99,730.432 C2647.06,736.165 2635.9,739.031 2625.52,739.031 C2617.23,739.031 2610.34,737.366 2604.84,734.034 C2598.87,730.393 2595.89,726.055 2595.89,721.019 C2595.89,709.63 2598.87,699.83 2604.84,691.617 C2612.97,680.461 2621.18,674.883 2629.47,674.883 C2635.36,674.883 2639.55,676.045 2642.02,678.369 C2645.43,681.391 2647.14,685.536 2647.14,690.804 C2647.14,698.241 2641.6,704.71 2630.52,710.211 C2619.75,715.557 2612.27,719.043 2608.09,720.67 C2609.02,722.607 2610.22,724.35 2611.69,725.9 C2615.33,729.773 2620.29,731.71 2626.57,731.71 C2634.47,731.71 2645.08,728.805 2658.41,722.994 C2671.19,717.339 2681.42,711.528 2689.09,705.563 M2606.46,715.324 C2612.27,712.38 2617.58,708.933 2622.38,704.982 C2629.51,699.171 2633.08,692.896 2633.08,686.155 C2633.08,682.359 2631.33,680.461 2627.85,680.461 C2624.9,680.461 2620.87,683.831 2615.76,690.571 C2609.33,698.939 2606.12,705.756 2606.12,711.025 C2606.12,712.497 2606.23,713.93 2606.46,715.324"/>
<path class="Note" d="M3533.11,829.061 C3537.45,826.117 3540.59,823.677 3542.53,821.74 C3546.09,817.944 3547.87,814.457 3547.87,811.281 C3547.87,807.64 3545.86,805.819 3541.83,805.819 C3534.01,805.819 3525.64,812.714 3516.73,826.505 C3514.02,830.688 3508.05,844.324 3498.83,867.411 C3506.19,875.003 3509.87,879.303 3509.87,880.31 C3509.87,881.705 3508.98,882.402 3507.2,882.402 C3505.8,882.402 3501.97,880.039 3495.69,875.313 C3488.88,891.195 3478.53,904.753 3464.67,915.987 C3450.49,927.453 3433.56,933.186 3413.88,933.186 C3406.37,933.186 3396.95,931.443 3385.64,927.957 C3376.58,925.168 3372.05,920.713 3372.05,914.593 C3372.05,905.528 3375.53,900.996 3382.5,900.996 C3386.69,900.996 3388.78,902.933 3388.78,906.806 C3388.78,908.046 3387.81,909.363 3385.88,910.758 C3384.87,911.455 3384.36,912.811 3384.36,914.825 C3384.36,917.227 3387.04,919.706 3392.38,922.263 C3398.19,925.052 3406.72,926.446 3417.95,926.446 C3432.44,926.446 3446.42,920.171 3459.9,907.62 C3472.14,896.231 3480.94,882.983 3486.28,867.876 C3484.19,866.171 3481.94,864.312 3479.54,862.298 C3472.1,857.882 3468.38,853.349 3468.38,848.701 C3468.38,846.764 3469.66,845.796 3472.22,845.796 C3475.63,845.796 3480.24,848.701 3486.05,854.512 C3487.29,855.751 3488.45,856.913 3489.54,857.998 C3492.25,850.56 3496.59,841.109 3502.55,829.642 C3513.32,808.879 3526.41,798.498 3541.83,798.498 C3547.33,798.498 3551.67,799.544 3554.85,801.636 C3558.02,803.727 3559.61,806.594 3559.61,810.235 C3559.61,816.046 3557.48,820.965 3553.22,824.994 C3548.8,829.178 3544.19,831.269 3539.39,831.269 C3535.21,831.269 3533.11,830.533 3533.11,829.061"/>
<path class="Note" d="M3460.48,642.535 C3456.3,642.535 3454.21,640.637 3454.21,636.841 C3454.21,630.41 3455.18,625.684 3457.11,622.663 C3465.17,610.732 3482.68,588.419 3509.64,555.725 C3521.8,540.928 3537.49,533.529 3556.71,533.529 C3564.14,533.529 3569.29,534.575 3572.16,536.667 C3576.58,539.921 3578.79,543.833 3578.79,548.404 C3578.79,553.207 3574.91,558.553 3567.16,564.441 C3559.8,570.019 3552.83,572.808 3546.25,572.808 C3543.69,572.808 3542.41,572.537 3542.41,571.995 C3542.41,571.22 3543.65,570.407 3546.13,569.555 C3549.46,568.315 3553.03,565.797 3556.82,562.001 C3561.16,557.585 3563.33,553.595 3563.33,550.031 C3563.33,547.629 3561.66,545.344 3558.33,543.175 C3555.39,541.315 3550.62,540.386 3544.04,540.386 C3534.43,540.386 3522.31,550.07 3507.66,569.438 C3497.9,582.376 3490,593.765 3483.96,603.604 C3486.9,601.977 3490.43,600.002 3494.53,597.678 C3499.57,594.811 3503.91,593.378 3507.55,593.378 C3516.61,593.378 3521.14,596.632 3521.14,603.139 C3521.14,609.57 3517.43,616.62 3509.99,624.29 C3504.72,629.713 3502.09,633.742 3502.09,636.376 C3502.09,639.087 3504.72,640.443 3509.99,640.443 C3512.62,640.443 3515.33,639.513 3518.12,637.654 C3520.91,635.872 3522.97,634.981 3524.28,634.981 C3525.37,634.981 3525.91,635.679 3525.91,637.073 C3525.91,639.32 3523.74,641.683 3519.4,644.162 C3512.12,648.346 3506.27,650.437 3501.85,650.437 C3494.03,650.437 3490.12,646.254 3490.12,637.887 C3490.12,632.618 3493.14,626.769 3499.18,620.339 C3503.6,615.613 3505.8,610.926 3505.8,606.277 C3505.8,602.249 3503.64,600.234 3499.3,600.234 C3497.59,600.234 3491.94,602.249 3482.33,606.277 C3479.46,611.081 3477.06,615.497 3475.13,619.525 C3467.77,634.865 3462.88,642.535 3460.48,642.535"/>
<path class="Note" d="M3532.3,763.361 C3532.3,772.27 3522.15,791.832 3501.85,822.047 C3493.8,834.056 3482.21,842.849 3467.11,848.427 C3455.95,852.611 3443.05,854.703 3428.41,854.703 C3423.68,854.703 3419.5,853.734 3415.86,851.797 C3411.83,849.706 3409.81,847.42 3409.81,844.941 C3409.81,838.511 3413.26,835.295 3420.16,835.295 C3421.16,835.295 3421.67,835.915 3421.67,837.155 C3421.67,838.239 3421.16,839.44 3420.16,840.757 C3418.92,842.384 3418.3,843.585 3418.3,844.36 C3418.3,846.684 3421.78,847.846 3428.76,847.846 C3444.41,847.846 3456.76,845.948 3465.83,842.152 C3475.28,838.278 3484.69,828.4 3494.07,812.518 L3496.74,807.521 C3492.25,810.93 3487.79,812.634 3483.38,812.634 C3472.37,812.634 3466.87,808.179 3466.87,799.27 C3466.87,789.663 3473.34,779.553 3486.28,768.939 C3496.43,760.727 3505.46,756.621 3513.36,756.621 C3517.31,756.621 3520.6,757.666 3523.24,759.758 C3524.17,759.061 3525.33,758.712 3526.72,758.712 C3530.44,758.712 3532.3,760.262 3532.3,763.361 M3498.13,805.081 L3520.1,764.523 C3518.39,764.136 3516.5,763.942 3514.4,763.942 C3506.89,763.942 3499.61,768.319 3492.56,777.074 C3484.34,787.3 3480.24,795.474 3480.24,801.594 C3480.24,805.623 3482.91,807.637 3488.26,807.637 C3490.81,807.637 3494.11,806.785 3498.13,805.081"/>
<path class="Note" d="M3533.11,650.479 C3537.45,647.535 3540.59,645.094 3542.53,643.157 C3546.09,639.361 3547.87,635.875 3547.87,632.698 C3547.87,629.057 3545.86,627.236 3541.83,627.236 C3534.01,627.236 3525.64,634.132 3516.73,647.922 C3514.02,652.106 3508.05,665.741 3498.83,688.828 C3506.19,696.421 3509.87,700.721 3509.87,701.728 C3509.87,703.122 3508.98,703.819 3507.2,703.819 C3505.8,703.819 3501.97,701.457 3495.69,696.731 C3488.88,712.613 3478.53,726.171 3464.67,737.404 C3450.49,748.871 3433.56,754.604 3413.88,754.604 C3406.37,754.604 3396.95,752.86 3385.64,749.374 C3376.58,746.585 3372.05,742.13 3372.05,736.01 C3372.05,726.945 3375.53,722.413 3382.5,722.413 C3386.69,722.413 3388.78,724.35 3388.78,728.224 C3388.78,729.463 3387.81,730.78 3385.88,732.175 C3384.87,732.872 3384.36,734.228 3384.36,736.242 C3384.36,738.644 3387.04,741.123 3392.38,743.68 C3398.19,746.469 3406.72,747.863 3417.95,747.863 C3432.44,747.863 3446.42,741.588 3459.9,729.037 C3472.14,717.649 3480.94,704.401 3486.28,689.293 C3484.19,687.589 3481.94,685.729 3479.54,683.715 C3472.1,679.299 3468.38,674.767 3468.38,670.118 C3468.38,668.181 3469.66,667.213 3472.22,667.213 C3475.63,667.213 3480.24,670.118 3486.05,675.929 C3487.29,677.168 3488.45,678.331 3489.54,679.415 C3492.25,671.978 3496.59,662.526 3502.55,651.06 C3513.32,630.297 3526.41,619.915 3541.83,619.915 C3547.33,619.915 3551.67,620.961 3554.85,623.053 C3558.02,625.145 3559.61,628.011 3559.61,631.652 C3559.61,637.463 3557.48,642.383 3553.22,646.411 C3548.8,650.595 3544.19,652.687 3539.39,652.687 C3535.21,652.687 3533.11,651.951 3533.11,650.479"/>
<path class="Clef" transform="matrix(2.3811,0,0,2.3811,212.081,2158.79)" d="M25.4,-25.1 C17.8,-25.1 11.7,-20.7 11.6,-20.7 C5.8,-16.4 3.5,-11.3 2.6,-7.8 C2.1,-6 1.9,-4.2 1.9,-2.5 C1.9,-0.1 2.3,2.1 3.2,4 C4.4,6.7 6.7,8.6 9.7,9.6 C10.9,10 12.2,10.2 13.5,10.2 C15.7,10.2 18,9.6 19.9,8.5 C23,6.8 24.9,3.2 24.9,-0.7 C24.9,-4.2 23.1,-7.4 20.1,-9.3 C18,-10.7 16,-11.1 14.3,-11.1 C13.1,-11.1 12,-10.9 11.1,-10.6 C10.1,-10.2 8.4,-9.2 7.6,-8.5 C7.9,-10.4 9.1,-13.3 10.2,-14.9 C11.3,-16.5 13.5,-18.5 15.2,-19.4 C17.7,-20.8 20.9,-21.4 24.4,-21.4 C34.6,-21.4 39.6,-13.2 39.6,3.6 C39.6,12.9 36.1,21.8 33.1,27.7 C29.8,34.3 25.4,40.6 21.5,44.1 C11.1,53.6 1.3,58.1 1.2,58.1 C1.2,58.1 -0.3,59 0.1,60.5 C0.4,61.5 1.3,61.7 1.9,61.7 C2,61.7 2.3,61.6 2.4,61.6 C2.5,61.6 13.9,56.9 23,49.8 C28.1,46.1 32.7,42.1 36.7,37.8 C40.3,33.9 43.4,29.7 45.9,25.5 C50.3,18 52.8,10.2 52.8,3.5 C52.8,-4.8 50.6,-11.7 46.5,-16.6 C41.8,-22.2 34.7,-25.1 25.4,-25.1 M56.8,-12.4 C56.8,-9.6 59,-7.4 61.6,-7.4 C64.2,-7.4 66.4,-9.6 66.4,-12.4 C66.4,-15.2 64.2,-17.5 61.6,-17.5 C59,-17.5 56.8,-15.2 56.8,-12.4 M56.8,12.3 C56.8,15.1 59,17.4 61.6,17.4 C64.2,17.4 66.4,15.1 66.4,12.3 C66.4,9.5 64.2,7.2 61.6,7.2 C59,7.2 56.8,9.5 56.8,12.3"/>
<path class="Clef" transform="matrix(2.3811,0,0,2.3811,212.081,1451.34)" d="M25.4,-25.1 C17.8,-25.1 11.7,-20.7 11.6,-20.7 C5.8,-16.4 3.5,-11.3 2.6,-7.8 C2.1,-6 1.9,-4.2 1.9,-2.5 C1.9,-0.1 2.3,2.1 3.2,4 C4.4,6.7 6.7,8.6 9.7,9.6 C10.9,10 12.2,10.2 13.5,10.2 C15.7,10.2 18,9.6 19.9,8.5 C23,6.8 24.9,3.2 24.9,-0.7 C24.9,-4.2 23.1,-7.4 20.1,-9.3 C18,-10.7 16,-11.1 14.3,-11.1 C13.1,-11.1 12,-10.9 11.1,-10.6 C10.1,-10.2 8.4,-9.2 7.6,-8.5 C7.9,-10.4 9.1,-13.3 10.2,-14.9 C11.3,-16.5 13.5,-18.5 15.2,-19.4 C17.7,-20.8 20.9,-21.4 24.4,-21.4 C34.6,-21.4 39.6,-13.2 39.6,3.6 C39.6,12.9 36.1,21.8 33.1,27.7 C29.8,34.3 25.4,40.6 21.5,44.1 C11.1,53.6 1.3,58.1 1.2,58.1 C1.2,58.1 -0.3,59 0.1,60.5 C0.4,61.5 1.3,61.7 1.9,61.7 C2,61.7 2.3,61.6 2.4,61.6 C2.5,61.6 13.9,56.9 23,49.8 C28.1,46.1 32.7,42.1 36.7,37.8 C40.3,33.9 43.4,29.7 45.9,25.5 C50.3,18 52.8,10.2 52.8,3.5 C52.8,-4.8 50.6,-11.7 46.5,-16.6 C41.8,-22.2 34.7,-25.1 25.4,-25.1 M56.8,-12.4 C56.8,-9.6 59,-7.4 61.6,-7.4 C64.2,-7.4 66.4,-9.6 66.4,-12.4 C66.4,-15.2 64.2,-17.5 61.6,-17.5 C59,-17.5 56.8,-15.2 56.8,-12.4 M56.8,12.3 C56.8,15.1 59,17.4 61.6,17.4 C64.2,17.4 66.4,15.1 66.4,12.3 C66.4,9.5 64.2,7.2 61.6,7.2 C59,7.2 56.8,9.5 56.8,12.3"/>
<path class="FiguredBass" d="M899.403,2518.48 L899.403,2501.51 C899.403,2500.52 899.759,2499.63 900.47,2498.86 C901.181,2498.09 902.094,2497.7 903.207,2497.7 C904.32,2497.7 905.232,2498.09 905.944,2498.86 C906.655,2499.63 907.011,2500.52 907.011,2501.51 L907.011,2518.48 L920.277,2518.48 C921.39,2518.48 922.303,2518.87 923.014,2519.64 C923.725,2520.42 924.081,2521.3 924.081,2522.29 C924.081,2523.28 923.725,2524.16 923.014,2524.93 C922.303,2525.7 921.39,2526.09 920.277,2526.09 L907.011,2526.09 L907.011,2543.07 C907.011,2544.06 906.655,2544.94 905.944,2545.71 C905.232,2546.49 904.32,2546.87 903.207,2546.87 C902.094,2546.87 901.181,2546.49 900.47,2545.71 C899.759,2544.94 899.403,2544.06 899.403,2543.07 L899.403,2526.09 L882.24,2526.09 L882.24,2527.3 C882.24,2531.13 883.261,2534.47 885.302,2537.32 C887.343,2540.16 889.971,2541.58 893.187,2541.58 C894.424,2541.58 895.043,2542.14 895.043,2543.25 C895.043,2544.49 894.424,2545.11 893.187,2545.11 C890.961,2545.11 887.652,2544.78 883.261,2544.14 C878.869,2543.49 875.545,2543.16 873.287,2543.16 C871.03,2543.16 867.706,2543.49 863.314,2544.14 C858.923,2544.78 855.614,2545.11 853.388,2545.11 C852.151,2545.11 851.532,2544.49 851.532,2543.25 C851.532,2542.14 852.151,2541.58 853.388,2541.58 C856.604,2541.58 859.248,2540.16 861.32,2537.32 C863.392,2534.47 864.428,2531.13 864.428,2527.3 L864.428,2526.09 L839.1,2526.09 C837.492,2526.09 836.302,2525.7 835.529,2524.93 C834.756,2524.16 834.369,2523.37 834.369,2522.57 C834.369,2522.26 835.096,2521.19 836.549,2519.36 C838.003,2517.54 839.781,2515.11 841.884,2512.08 C843.987,2509.05 846.074,2505.6 848.146,2501.74 C850.218,2497.87 851.981,2493.23 853.434,2487.82 C854.887,2482.41 855.614,2476.95 855.614,2471.45 C855.614,2469.84 856.294,2469.04 857.655,2469.04 C857.841,2469.04 858.49,2469.19 859.603,2469.5 C860.717,2469.81 862.139,2470.13 863.871,2470.47 C865.603,2470.81 867.273,2470.98 868.881,2470.98 C871.293,2470.98 873.767,2470.64 876.303,2469.96 L880.477,2468.85 C881.281,2468.85 881.931,2469.16 882.426,2469.78 C882.797,2470.33 882.735,2470.89 882.24,2471.45 L841.791,2518.48 L864.428,2518.48 L864.428,2501.78 C864.428,2500.36 864.814,2499.26 865.587,2498.49 C866.36,2497.72 867.412,2497.07 868.742,2496.54 C870.071,2496.02 871.602,2494.67 873.334,2492.51 C874.942,2490.47 876.797,2487.37 878.9,2483.23 C879.21,2482.61 879.673,2482.3 880.292,2482.3 C881.591,2482.3 882.24,2483.01 882.24,2484.44 L882.24,2518.48 L899.403,2518.48 "/>
<path class="FiguredBass" d="M881.405,2610.5 C881.405,2611.49 881.962,2612.45 883.075,2613.38 C884.188,2614.31 885.41,2615.19 886.74,2616.02 C888.069,2616.86 889.291,2618.43 890.404,2620.75 C891.517,2623.07 892.074,2626 892.074,2629.52 C892.074,2636.32 889.507,2641.58 884.374,2645.29 C879.24,2649 872.746,2650.86 864.891,2650.86 C858.583,2650.86 853.094,2649.28 848.424,2646.13 C843.755,2642.97 841.42,2638.83 841.42,2633.7 C841.42,2630.97 842.409,2628.61 844.389,2626.6 C846.368,2624.59 848.733,2623.58 851.486,2623.58 C854.238,2623.58 856.573,2624.57 858.49,2626.55 C860.407,2628.53 861.366,2630.91 861.366,2633.7 C861.366,2634.93 860.346,2636.28 858.305,2637.73 C856.264,2639.19 855.243,2640.53 855.243,2641.77 C855.243,2643.68 856.186,2645.09 858.073,2645.99 C859.959,2646.89 862.232,2647.33 864.891,2647.33 C868.355,2647.33 870.814,2645.62 872.267,2642.18 C873.72,2638.75 874.447,2634.53 874.447,2629.52 L874.447,2627.11 C874.447,2623.77 874.339,2621.23 874.122,2619.5 C873.906,2617.77 873.226,2616.22 872.081,2614.86 C870.937,2613.5 869.19,2612.82 866.84,2612.82 L854.686,2612.82 C853.264,2612.82 852.553,2612.05 852.553,2610.5 C852.553,2609.08 853.264,2608.37 854.686,2608.37 L866.84,2608.37 C869.376,2608.37 871.355,2607.41 872.777,2605.49 C873.272,2604.81 873.674,2603.7 873.983,2602.15 C874.293,2600.11 874.447,2597.17 874.447,2593.34 L874.447,2592.13 C874.447,2582.92 871.045,2578.31 864.242,2578.31 C858.243,2578.31 855.243,2579.98 855.243,2583.32 C855.243,2584.43 856.155,2585.62 857.98,2586.89 C859.804,2588.16 860.717,2589.35 860.717,2590.46 C860.717,2592.88 859.866,2594.95 858.165,2596.68 C856.465,2598.41 854.393,2599.28 851.95,2599.28 C849.507,2599.28 847.45,2598.41 845.78,2596.68 C844.11,2594.95 843.275,2592.88 843.275,2590.46 C843.275,2585.7 845.347,2581.9 849.491,2579.05 C853.635,2576.21 858.552,2574.79 864.242,2574.79 C871.726,2574.79 877.88,2576.22 882.704,2579.1 C887.528,2581.98 889.94,2586.32 889.94,2592.13 C889.94,2596.28 889.507,2599.49 888.641,2601.78 C887.776,2604.07 886.786,2605.46 885.673,2605.96 C884.559,2606.45 883.57,2607.02 882.704,2607.67 C881.838,2608.32 881.405,2609.27 881.405,2610.5"/>
<path class="FiguredBass" d="M1756.66,2518.48 L1756.66,2501.51 C1756.66,2500.52 1757.02,2499.63 1757.73,2498.86 C1758.44,2498.09 1759.35,2497.7 1760.47,2497.7 C1761.58,2497.7 1762.49,2498.09 1763.21,2498.86 C1763.92,2499.63 1764.27,2500.52 1764.27,2501.51 L1764.27,2518.48 L1777.54,2518.48 C1778.65,2518.48 1779.56,2518.87 1780.28,2519.64 C1780.99,2520.42 1781.34,2521.3 1781.34,2522.29 C1781.34,2523.28 1780.99,2524.16 1780.28,2524.93 C1779.56,2525.7 1778.65,2526.09 1777.54,2526.09 L1764.27,2526.09 L1764.27,2543.07 C1764.27,2544.06 1763.92,2544.94 1763.21,2545.71 C1762.49,2546.49 1761.58,2546.87 1760.47,2546.87 C1759.35,2546.87 1758.44,2546.49 1757.73,2545.71 C1757.02,2544.94 1756.66,2544.06 1756.66,2543.07 L1756.66,2526.09 L1739.5,2526.09 L1739.5,2527.3 C1739.5,2531.13 1740.52,2534.47 1742.56,2537.32 C1744.6,2540.16 1747.23,2541.58 1750.45,2541.58 C1751.69,2541.58 1752.3,2542.14 1752.3,2543.25 C1752.3,2544.49 1751.69,2545.11 1750.45,2545.11 C1748.22,2545.11 1744.91,2544.78 1740.52,2544.14 C1736.13,2543.49 1732.81,2543.16 1730.55,2543.16 C1728.29,2543.16 1724.97,2543.49 1720.58,2544.14 C1716.18,2544.78 1712.88,2545.11 1710.65,2545.11 C1709.41,2545.11 1708.79,2544.49 1708.79,2543.25 C1708.79,2542.14 1709.41,2541.58 1710.65,2541.58 C1713.87,2541.58 1716.51,2540.16 1718.58,2537.32 C1720.65,2534.47 1721.69,2531.13 1721.69,2527.3 L1721.69,2526.09 L1696.36,2526.09 C1694.75,2526.09 1693.56,2525.7 1692.79,2524.93 C1692.02,2524.16 1691.63,2523.37 1691.63,2522.57 C1691.63,2522.26 1692.36,2521.19 1693.81,2519.36 C1695.26,2517.54 1697.04,2515.11 1699.14,2512.08 C1701.25,2509.05 1703.34,2505.6 1705.41,2501.74 C1707.48,2497.87 1709.24,2493.23 1710.7,2487.82 C1712.15,2482.41 1712.88,2476.95 1712.88,2471.45 C1712.88,2469.84 1713.56,2469.04 1714.92,2469.04 C1715.1,2469.04 1715.75,2469.19 1716.86,2469.5 C1717.98,2469.81 1719.4,2470.13 1721.13,2470.47 C1722.86,2470.81 1724.53,2470.98 1726.14,2470.98 C1728.55,2470.98 1731.03,2470.64 1733.56,2469.96 L1737.74,2468.85 C1738.54,2468.85 1739.19,2469.16 1739.69,2469.78 C1740.06,2470.33 1740,2470.89 1739.5,2471.45 L1699.05,2518.48 L1721.69,2518.48 L1721.69,2501.78 C1721.69,2500.36 1722.08,2499.26 1722.85,2498.49 C1723.62,2497.72 1724.67,2497.07 1726,2496.54 C1727.33,2496.02 1728.86,2494.67 1730.6,2492.51 C1732.2,2490.47 1734.06,2487.37 1736.16,2483.23 C1736.47,2482.61 1736.93,2482.3 1737.55,2482.3 C1738.85,2482.3 1739.5,2483.01 1739.5,2484.44 L1739.5,2518.48 L1756.66,2518.48 "/>
<path class="FiguredBass" d="M1738.67,2610.5 C1738.67,2611.49 1739.22,2612.45 1740.34,2613.38 C1741.45,2614.31 1742.67,2615.19 1744,2616.02 C1745.33,2616.86 1746.55,2618.43 1747.67,2620.75 C1748.78,2623.07 1749.34,2626 1749.34,2629.52 C1749.34,2636.32 1746.77,2641.58 1741.64,2645.29 C1736.5,2649 1730.01,2650.86 1722.15,2650.86 C1715.84,2650.86 1710.36,2649.28 1705.69,2646.13 C1701.02,2642.97 1698.68,2638.83 1698.68,2633.7 C1698.68,2630.97 1699.67,2628.61 1701.65,2626.6 C1703.63,2624.59 1705.99,2623.58 1708.75,2623.58 C1711.5,2623.58 1713.83,2624.57 1715.75,2626.55 C1717.67,2628.53 1718.63,2630.91 1718.63,2633.7 C1718.63,2634.93 1717.61,2636.28 1715.57,2637.73 C1713.52,2639.19 1712.5,2640.53 1712.5,2641.77 C1712.5,2643.68 1713.45,2645.09 1715.33,2645.99 C1717.22,2646.89 1719.49,2647.33 1722.15,2647.33 C1725.62,2647.33 1728.07,2645.62 1729.53,2642.18 C1730.98,2638.75 1731.71,2634.53 1731.71,2629.52 L1731.71,2627.11 C1731.71,2623.77 1731.6,2621.23 1731.38,2619.5 C1731.17,2617.77 1730.49,2616.22 1729.34,2614.86 C1728.2,2613.5 1726.45,2612.82 1724.1,2612.82 L1711.95,2612.82 C1710.53,2612.82 1709.81,2612.05 1709.81,2610.5 C1709.81,2609.08 1710.53,2608.37 1711.95,2608.37 L1724.1,2608.37 C1726.64,2608.37 1728.62,2607.41 1730.04,2605.49 C1730.53,2604.81 1730.94,2603.7 1731.24,2602.15 C1731.55,2600.11 1731.71,2597.17 1731.71,2593.34 L1731.71,2592.13 C1731.71,2582.92 1728.31,2578.31 1721.5,2578.31 C1715.5,2578.31 1712.5,2579.98 1712.5,2583.32 C1712.5,2584.43 1713.42,2585.62 1715.24,2586.89 C1717.07,2588.16 1717.98,2589.35 1717.98,2590.46 C1717.98,2592.88 1717.13,2594.95 1715.43,2596.68 C1713.73,2598.41 1711.65,2599.28 1709.21,2599.28 C1706.77,2599.28 1704.71,2598.41 1703.04,2596.68 C1701.37,2594.95 1700.54,2592.88 1700.54,2590.46 C1700.54,2585.7 1702.61,2581.9 1706.75,2579.05 C1710.9,2576.21 1715.81,2574.79 1721.5,2574.79 C1728.99,2574.79 1735.14,2576.22 1739.97,2579.1 C1744.79,2581.98 1747.2,2586.32 1747.2,2592.13 C1747.2,2596.28 1746.77,2599.49 1745.9,2601.78 C1745.04,2604.07 1744.05,2605.46 1742.93,2605.96 C1741.82,2606.45 1740.83,2607.02 1739.97,2607.67 C1739.1,2608.32 1738.67,2609.27 1738.67,2610.5"/>
<path class="FiguredBass" d="M2651.54,2518.48 L2651.54,2501.51 C2651.54,2500.52 2651.9,2499.63 2652.61,2498.86 C2653.32,2498.09 2654.23,2497.7 2655.34,2497.7 C2656.46,2497.7 2657.37,2498.09 2658.08,2498.86 C2658.79,2499.63 2659.15,2500.52 2659.15,2501.51 L2659.15,2518.48 L2672.41,2518.48 C2673.53,2518.48 2674.44,2518.87 2675.15,2519.64 C2675.86,2520.42 2676.22,2521.3 2676.22,2522.29 C2676.22,2523.28 2675.86,2524.16 2675.15,2524.93 C2674.44,2525.7 2673.53,2526.09 2672.41,2526.09 L2659.15,2526.09 L2659.15,2543.07 C2659.15,2544.06 2658.79,2544.94 2658.08,2545.71 C2657.37,2546.49 2656.46,2546.87 2655.34,2546.87 C2654.23,2546.87 2653.32,2546.49 2652.61,2545.71 C2651.9,2544.94 2651.54,2544.06 2651.54,2543.07 L2651.54,2526.09 L2634.38,2526.09 L2634.38,2527.3 C2634.38,2531.13 2635.4,2534.47 2637.44,2537.32 C2639.48,2540.16 2642.11,2541.58 2645.32,2541.58 C2646.56,2541.58 2647.18,2542.14 2647.18,2543.25 C2647.18,2544.49 2646.56,2545.11 2645.32,2545.11 C2643.1,2545.11 2639.79,2544.78 2635.4,2544.14 C2631.01,2543.49 2627.68,2543.16 2625.42,2543.16 C2623.17,2543.16 2619.84,2543.49 2615.45,2544.14 C2611.06,2544.78 2607.75,2545.11 2605.52,2545.11 C2604.29,2545.11 2603.67,2544.49 2603.67,2543.25 C2603.67,2542.14 2604.29,2541.58 2605.52,2541.58 C2608.74,2541.58 2611.38,2540.16 2613.46,2537.32 C2615.53,2534.47 2616.56,2531.13 2616.56,2527.3 L2616.56,2526.09 L2591.24,2526.09 C2589.63,2526.09 2588.44,2525.7 2587.67,2524.93 C2586.89,2524.16 2586.51,2523.37 2586.51,2522.57 C2586.51,2522.26 2587.23,2521.19 2588.69,2519.36 C2590.14,2517.54 2591.92,2515.11 2594.02,2512.08 C2596.12,2509.05 2598.21,2505.6 2600.28,2501.74 C2602.35,2497.87 2604.12,2493.23 2605.57,2487.82 C2607.02,2482.41 2607.75,2476.95 2607.75,2471.45 C2607.75,2469.84 2608.43,2469.04 2609.79,2469.04 C2609.98,2469.04 2610.63,2469.19 2611.74,2469.5 C2612.85,2469.81 2614.28,2470.13 2616.01,2470.47 C2617.74,2470.81 2619.41,2470.98 2621.02,2470.98 C2623.43,2470.98 2625.9,2470.64 2628.44,2469.96 L2632.61,2468.85 C2633.42,2468.85 2634.07,2469.16 2634.56,2469.78 C2634.93,2470.33 2634.87,2470.89 2634.38,2471.45 L2593.93,2518.48 L2616.56,2518.48 L2616.56,2501.78 C2616.56,2500.36 2616.95,2499.26 2617.72,2498.49 C2618.5,2497.72 2619.55,2497.07 2620.88,2496.54 C2622.21,2496.02 2623.74,2494.67 2625.47,2492.51 C2627.08,2490.47 2628.93,2487.37 2631.04,2483.23 C2631.35,2482.61 2631.81,2482.3 2632.43,2482.3 C2633.73,2482.3 2634.38,2483.01 2634.38,2484.44 L2634.38,2518.48 L2651.54,2518.48 "/>
<path class="FiguredBass" d="M2633.54,2610.5 C2633.54,2611.49 2634.1,2612.45 2635.21,2613.38 C2636.32,2614.31 2637.55,2615.19 2638.88,2616.02 C2640.21,2616.86 2641.43,2618.43 2642.54,2620.75 C2643.65,2623.07 2644.21,2626 2644.21,2629.52 C2644.21,2636.32 2641.64,2641.58 2636.51,2645.29 C2631.38,2649 2624.88,2650.86 2617.03,2650.86 C2610.72,2650.86 2605.23,2649.28 2600.56,2646.13 C2595.89,2642.97 2593.56,2638.83 2593.56,2633.7 C2593.56,2630.97 2594.55,2628.61 2596.53,2626.6 C2598.5,2624.59 2600.87,2623.58 2603.62,2623.58 C2606.37,2623.58 2608.71,2624.57 2610.63,2626.55 C2612.54,2628.53 2613.5,2630.91 2613.5,2633.7 C2613.5,2634.93 2612.48,2636.28 2610.44,2637.73 C2608.4,2639.19 2607.38,2640.53 2607.38,2641.77 C2607.38,2643.68 2608.32,2645.09 2610.21,2645.99 C2612.1,2646.89 2614.37,2647.33 2617.03,2647.33 C2620.49,2647.33 2622.95,2645.62 2624.4,2642.18 C2625.86,2638.75 2626.58,2634.53 2626.58,2629.52 L2626.58,2627.11 C2626.58,2623.77 2626.48,2621.23 2626.26,2619.5 C2626.04,2617.77 2625.36,2616.22 2624.22,2614.86 C2623.07,2613.5 2621.33,2612.82 2618.98,2612.82 L2606.82,2612.82 C2605.4,2612.82 2604.69,2612.05 2604.69,2610.5 C2604.69,2609.08 2605.4,2608.37 2606.82,2608.37 L2618.98,2608.37 C2621.51,2608.37 2623.49,2607.41 2624.91,2605.49 C2625.41,2604.81 2625.81,2603.7 2626.12,2602.15 C2626.43,2600.11 2626.58,2597.17 2626.58,2593.34 L2626.58,2592.13 C2626.58,2582.92 2623.18,2578.31 2616.38,2578.31 C2610.38,2578.31 2607.38,2579.98 2607.38,2583.32 C2607.38,2584.43 2608.29,2585.62 2610.12,2586.89 C2611.94,2588.16 2612.85,2589.35 2612.85,2590.46 C2612.85,2592.88 2612,2594.95 2610.3,2596.68 C2608.6,2598.41 2606.53,2599.28 2604.09,2599.28 C2601.64,2599.28 2599.59,2598.41 2597.92,2596.68 C2596.25,2594.95 2595.41,2592.88 2595.41,2590.46 C2595.41,2585.7 2597.48,2581.9 2601.63,2579.05 C2605.77,2576.21 2610.69,2574.79 2616.38,2574.79 C2623.86,2574.79 2630.02,2576.22 2634.84,2579.1 C2639.66,2581.98 2642.08,2586.32 2642.08,2592.13 C2642.08,2596.28 2641.64,2599.49 2640.78,2601.78 C2639.91,2604.07 2638.92,2605.46 2637.81,2605.96 C2636.7,2606.45 2635.71,2607.02 2634.84,2607.67 C2633.97,2608.32 2633.54,2609.27 2633.54,2610.5"/>
<path class="FiguredBass" d="M3516.48,2518.48 L3516.48,2501.51 C3516.48,2500.52 3516.84,2499.63 3517.55,2498.86 C3518.26,2498.09 3519.17,2497.7 3520.29,2497.7 C3521.4,2497.7 3522.31,2498.09 3523.02,2498.86 C3523.73,2499.63 3524.09,2500.52 3524.09,2501.51 L3524.09,2518.48 L3537.36,2518.48 C3538.47,2518.48 3539.38,2518.87 3540.09,2519.64 C3540.8,2520.42 3541.16,2521.3 3541.16,2522.29 C3541.16,2523.28 3540.8,2524.16 3540.09,2524.93 C3539.38,2525.7 3538.47,2526.09 3537.36,2526.09 L3524.09,2526.09 L3524.09,2543.07 C3524.09,2544.06 3523.73,2544.94 3523.02,2545.71 C3522.31,2546.49 3521.4,2546.87 3520.29,2546.87 C3519.17,2546.87 3518.26,2546.49 3517.55,2545.71 C3516.84,2544.94 3516.48,2544.06 3516.48,2543.07 L3516.48,2526.09 L3499.32,2526.09 L3499.32,2527.3 C3499.32,2531.13 3500.34,2534.47 3502.38,2537.32 C3504.42,2540.16 3507.05,2541.58 3510.27,2541.58 C3511.5,2541.58 3512.12,2542.14 3512.12,2543.25 C3512.12,2544.49 3511.5,2545.11 3510.27,2545.11 C3508.04,2545.11 3504.73,2544.78 3500.34,2544.14 C3495.95,2543.49 3492.62,2543.16 3490.37,2543.16 C3488.11,2543.16 3484.78,2543.49 3480.39,2544.14 C3476,2544.78 3472.69,2545.11 3470.47,2545.11 C3469.23,2545.11 3468.61,2544.49 3468.61,2543.25 C3468.61,2542.14 3469.23,2541.58 3470.47,2541.58 C3473.68,2541.58 3476.33,2540.16 3478.4,2537.32 C3480.47,2534.47 3481.51,2531.13 3481.51,2527.3 L3481.51,2526.09 L3456.18,2526.09 C3454.57,2526.09 3453.38,2525.7 3452.61,2524.93 C3451.83,2524.16 3451.45,2523.37 3451.45,2522.57 C3451.45,2522.26 3452.17,2521.19 3453.63,2519.36 C3455.08,2517.54 3456.86,2515.11 3458.96,2512.08 C3461.07,2509.05 3463.15,2505.6 3465.22,2501.74 C3467.3,2497.87 3469.06,2493.23 3470.51,2487.82 C3471.97,2482.41 3472.69,2476.95 3472.69,2471.45 C3472.69,2469.84 3473.37,2469.04 3474.73,2469.04 C3474.92,2469.04 3475.57,2469.19 3476.68,2469.5 C3477.8,2469.81 3479.22,2470.13 3480.95,2470.47 C3482.68,2470.81 3484.35,2470.98 3485.96,2470.98 C3488.37,2470.98 3490.85,2470.64 3493.38,2469.96 L3497.56,2468.85 C3498.36,2468.85 3499.01,2469.16 3499.5,2469.78 C3499.88,2470.33 3499.81,2470.89 3499.32,2471.45 L3458.87,2518.48 L3481.51,2518.48 L3481.51,2501.78 C3481.51,2500.36 3481.89,2499.26 3482.67,2498.49 C3483.44,2497.72 3484.49,2497.07 3485.82,2496.54 C3487.15,2496.02 3488.68,2494.67 3490.41,2492.51 C3492.02,2490.47 3493.88,2487.37 3495.98,2483.23 C3496.29,2482.61 3496.75,2482.3 3497.37,2482.3 C3498.67,2482.3 3499.32,2483.01 3499.32,2484.44 L3499.32,2518.48 L3516.48,2518.48 "/>
<path class="FiguredBass" d="M3498.48,2610.5 C3498.48,2611.49 3499.04,2612.45 3500.15,2613.38 C3501.27,2614.31 3502.49,2615.19 3503.82,2616.02 C3505.15,2616.86 3506.37,2618.43 3507.48,2620.75 C3508.6,2623.07 3509.15,2626 3509.15,2629.52 C3509.15,2636.32 3506.59,2641.58 3501.45,2645.29 C3496.32,2649 3489.83,2650.86 3481.97,2650.86 C3475.66,2650.86 3470.17,2649.28 3465.5,2646.13 C3460.83,2642.97 3458.5,2638.83 3458.5,2633.7 C3458.5,2630.97 3459.49,2628.61 3461.47,2626.6 C3463.45,2624.59 3465.81,2623.58 3468.56,2623.58 C3471.32,2623.58 3473.65,2624.57 3475.57,2626.55 C3477.49,2628.53 3478.44,2630.91 3478.44,2633.7 C3478.44,2634.93 3477.42,2636.28 3475.38,2637.73 C3473.34,2639.19 3472.32,2640.53 3472.32,2641.77 C3472.32,2643.68 3473.27,2645.09 3475.15,2645.99 C3477.04,2646.89 3479.31,2647.33 3481.97,2647.33 C3485.43,2647.33 3487.89,2645.62 3489.35,2642.18 C3490.8,2638.75 3491.53,2634.53 3491.53,2629.52 L3491.53,2627.11 C3491.53,2623.77 3491.42,2621.23 3491.2,2619.5 C3490.98,2617.77 3490.3,2616.22 3489.16,2614.86 C3488.02,2613.5 3486.27,2612.82 3483.92,2612.82 L3471.77,2612.82 C3470.34,2612.82 3469.63,2612.05 3469.63,2610.5 C3469.63,2609.08 3470.34,2608.37 3471.77,2608.37 L3483.92,2608.37 C3486.45,2608.37 3488.43,2607.41 3489.86,2605.49 C3490.35,2604.81 3490.75,2603.7 3491.06,2602.15 C3491.37,2600.11 3491.53,2597.17 3491.53,2593.34 L3491.53,2592.13 C3491.53,2582.92 3488.12,2578.31 3481.32,2578.31 C3475.32,2578.31 3472.32,2579.98 3472.32,2583.32 C3472.32,2584.43 3473.23,2585.62 3475.06,2586.89 C3476.88,2588.16 3477.8,2589.35 3477.8,2590.46 C3477.8,2592.88 3476.95,2594.95 3475.24,2596.68 C3473.54,2598.41 3471.47,2599.28 3469.03,2599.28 C3466.59,2599.28 3464.53,2598.41 3462.86,2596.68 C3461.19,2594.95 3460.35,2592.88 3460.35,2590.46 C3460.35,2585.7 3462.43,2581.9 3466.57,2579.05 C3470.71,2576.21 3475.63,2574.79 3481.32,2574.79 C3488.8,2574.79 3494.96,2576.22 3499.78,2579.1 C3504.61,2581.98 3507.02,2586.32 3507.02,2592.13 C3507.02,2596.28 3506.59,2599.49 3505.72,2601.78 C3504.85,2604.07 3503.86,2605.46 3502.75,2605.96 C3501.64,2606.45 3500.65,2607.02 3499.78,2607.67 C3498.92,2608.32 3498.48,2609.27 3498.48,2610.5"/>
<path class="FiguredBass" d="M869.53,1765.11 C864.953,1765.11 861.907,1766.95 860.392,1770.63 C858.877,1774.31 858.119,1779.52 858.119,1786.26 L858.119,1797.21 C861.335,1795.91 864.118,1795.23 866.469,1795.17 C874.509,1795.17 880.833,1796.94 885.441,1800.5 C890.049,1804.06 892.352,1809.34 892.352,1816.36 C892.352,1823.38 890.018,1828.69 885.348,1832.28 C880.678,1835.86 874.385,1837.66 866.469,1837.66 C858.366,1837.66 852.027,1833.9 847.45,1826.38 C842.873,1818.87 840.585,1809.95 840.585,1799.62 C840.585,1789.35 843.244,1780.45 848.563,1772.9 C853.882,1765.35 860.871,1761.58 869.53,1761.58 C875.22,1761.58 880.137,1763.02 884.281,1765.9 C888.425,1768.77 890.497,1772.56 890.497,1777.26 C890.497,1779.98 889.507,1782.33 887.528,1784.31 C885.549,1786.29 883.183,1787.28 880.431,1787.28 C877.679,1787.28 875.313,1786.29 873.334,1784.31 C871.355,1782.33 870.365,1779.98 870.365,1777.26 C870.365,1774.6 871.355,1772.25 873.334,1770.21 C874.014,1769.41 874.973,1768.73 876.21,1768.17 C875.901,1767.36 875.282,1766.75 874.354,1766.31 C872.994,1765.51 871.386,1765.11 869.53,1765.11 M874.076,1803.05 C872.963,1800.14 870.52,1798.69 866.747,1798.69 C862.974,1798.69 860.639,1800.14 859.743,1803.05 C858.846,1805.96 858.397,1810.38 858.397,1816.32 C858.397,1823.31 858.846,1828.01 859.743,1830.42 C860.639,1832.83 862.974,1834.04 866.747,1834.04 C870.52,1834.04 872.963,1832.58 874.076,1829.68 C875.189,1826.77 875.746,1822.33 875.746,1816.36 C875.746,1810.4 875.189,1805.96 874.076,1803.05"/>
<path class="FiguredBass" d="M868.881,1869.28 C871.231,1869.28 873.705,1868.94 876.303,1868.26 L880.477,1867.15 C881.281,1867.15 881.915,1867.46 882.379,1868.07 C882.843,1868.69 882.797,1869.25 882.24,1869.74 L839.1,1919.93 L864.428,1919.93 L864.428,1900.08 C864.428,1898.66 864.814,1897.56 865.587,1896.79 C866.36,1896.01 867.35,1895.4 868.556,1894.93 C869.762,1894.47 871.339,1893.09 873.287,1890.8 C875.236,1888.52 877.107,1885.42 878.9,1881.53 C879.21,1880.91 879.673,1880.6 880.292,1880.6 C881.591,1880.6 882.24,1881.31 882.24,1882.73 L882.24,1919.93 L893.187,1919.93 C894.734,1919.93 895.507,1920.65 895.507,1922.07 C895.507,1923.61 894.734,1924.39 893.187,1924.39 L882.24,1924.39 L882.24,1925.59 C882.24,1929.43 883.261,1932.77 885.302,1935.61 C887.343,1938.46 889.971,1939.88 893.187,1939.88 C894.424,1939.88 895.043,1940.44 895.043,1941.55 C895.043,1942.79 894.424,1943.41 893.187,1943.41 C890.961,1943.41 887.652,1943.08 883.261,1942.43 C878.869,1941.78 875.545,1941.46 873.287,1941.46 C871.03,1941.46 867.706,1941.78 863.314,1942.43 C858.923,1943.08 855.614,1943.41 853.388,1943.41 C852.151,1943.41 851.532,1942.79 851.532,1941.55 C851.532,1940.44 852.151,1939.88 853.388,1939.88 C856.604,1939.88 859.248,1938.46 861.32,1935.61 C863.392,1932.77 864.428,1929.43 864.428,1925.59 L864.428,1924.39 L839.1,1924.39 C837.492,1924.39 836.302,1924 835.529,1923.23 C834.756,1922.45 834.369,1921.67 834.369,1920.86 C834.369,1920.55 835.096,1919.49 836.549,1917.66 C838.003,1915.84 839.781,1913.41 841.884,1910.38 C843.987,1907.35 846.074,1903.9 848.146,1900.03 C850.218,1896.17 851.981,1891.53 853.434,1886.12 C854.887,1880.71 855.614,1875.25 855.614,1869.74 C855.614,1868.14 856.294,1867.33 857.655,1867.33 C857.841,1867.33 858.49,1867.49 859.603,1867.8 C860.717,1868.11 862.139,1868.43 863.871,1868.77 C865.603,1869.11 867.273,1869.28 868.881,1869.28"/>
<path class="FiguredBass" d="M881.405,2008.8 C881.405,2009.79 881.962,2010.75 883.075,2011.68 C884.188,2012.6 885.41,2013.48 886.74,2014.32 C888.069,2015.15 889.291,2016.73 890.404,2019.05 C891.517,2021.37 892.074,2024.29 892.074,2027.82 C892.074,2034.62 889.507,2039.88 884.374,2043.59 C879.24,2047.3 872.746,2049.16 864.891,2049.16 C858.583,2049.16 853.094,2047.58 848.424,2044.42 C843.755,2041.27 841.42,2037.13 841.42,2031.99 C841.42,2029.27 842.409,2026.91 844.389,2024.9 C846.368,2022.89 848.733,2021.88 851.486,2021.88 C854.238,2021.88 856.573,2022.87 858.49,2024.85 C860.407,2026.83 861.366,2029.21 861.366,2031.99 C861.366,2033.23 860.346,2034.58 858.305,2036.03 C856.264,2037.48 855.243,2038.83 855.243,2040.06 C855.243,2041.98 856.186,2043.39 858.073,2044.29 C859.959,2045.18 862.232,2045.63 864.891,2045.63 C868.355,2045.63 870.814,2043.91 872.267,2040.48 C873.72,2037.05 874.447,2032.83 874.447,2027.82 L874.447,2025.41 C874.447,2022.07 874.339,2019.53 874.122,2017.8 C873.906,2016.07 873.226,2014.52 872.081,2013.16 C870.937,2011.8 869.19,2011.12 866.84,2011.12 L854.686,2011.12 C853.264,2011.12 852.553,2010.35 852.553,2008.8 C852.553,2007.38 853.264,2006.67 854.686,2006.67 L866.84,2006.67 C869.376,2006.67 871.355,2005.71 872.777,2003.79 C873.272,2003.11 873.674,2002 873.983,2000.45 C874.293,1998.41 874.447,1995.47 874.447,1991.64 L874.447,1990.43 C874.447,1981.22 871.045,1976.61 864.242,1976.61 C858.243,1976.61 855.243,1978.28 855.243,1981.62 C855.243,1982.73 856.155,1983.92 857.98,1985.19 C859.804,1986.46 860.717,1987.65 860.717,1988.76 C860.717,1991.17 859.866,1993.24 858.165,1994.98 C856.465,1996.71 854.393,1997.57 851.95,1997.57 C849.507,1997.57 847.45,1996.71 845.78,1994.98 C844.11,1993.24 843.275,1991.17 843.275,1988.76 C843.275,1984 845.347,1980.19 849.491,1977.35 C853.635,1974.5 858.552,1973.08 864.242,1973.08 C871.726,1973.08 877.88,1974.52 882.704,1977.4 C887.528,1980.27 889.94,1984.62 889.94,1990.43 C889.94,1994.57 889.507,1997.79 888.641,2000.08 C887.776,2002.37 886.786,2003.76 885.673,2004.25 C884.559,2004.75 883.57,2005.32 882.704,2005.97 C881.838,2006.62 881.405,2007.56 881.405,2008.8"/>
<path class="FiguredBass" d="M1726.79,1765.11 C1722.21,1765.11 1719.17,1766.95 1717.65,1770.63 C1716.14,1774.31 1715.38,1779.52 1715.38,1786.26 L1715.38,1797.21 C1718.6,1795.91 1721.38,1795.23 1723.73,1795.17 C1731.77,1795.17 1738.09,1796.94 1742.7,1800.5 C1747.31,1804.06 1749.61,1809.34 1749.61,1816.36 C1749.61,1823.38 1747.28,1828.69 1742.61,1832.28 C1737.94,1835.86 1731.65,1837.66 1723.73,1837.66 C1715.63,1837.66 1709.29,1833.9 1704.71,1826.38 C1700.13,1818.87 1697.85,1809.95 1697.85,1799.62 C1697.85,1789.35 1700.51,1780.45 1705.82,1772.9 C1711.14,1765.35 1718.13,1761.58 1726.79,1761.58 C1732.48,1761.58 1737.4,1763.02 1741.54,1765.9 C1745.69,1768.77 1747.76,1772.56 1747.76,1777.26 C1747.76,1779.98 1746.77,1782.33 1744.79,1784.31 C1742.81,1786.29 1740.44,1787.28 1737.69,1787.28 C1734.94,1787.28 1732.57,1786.29 1730.6,1784.31 C1728.62,1782.33 1727.63,1779.98 1727.63,1777.26 C1727.63,1774.6 1728.62,1772.25 1730.6,1770.21 C1731.28,1769.41 1732.23,1768.73 1733.47,1768.17 C1733.16,1767.36 1732.54,1766.75 1731.62,1766.31 C1730.26,1765.51 1728.65,1765.11 1726.79,1765.11 M1731.34,1803.05 C1730.22,1800.14 1727.78,1798.69 1724.01,1798.69 C1720.24,1798.69 1717.9,1800.14 1717,1803.05 C1716.11,1805.96 1715.66,1810.38 1715.66,1816.32 C1715.66,1823.31 1716.11,1828.01 1717,1830.42 C1717.9,1832.83 1720.24,1834.04 1724.01,1834.04 C1727.78,1834.04 1730.22,1832.58 1731.34,1829.68 C1732.45,1826.77 1733.01,1822.33 1733.01,1816.36 C1733.01,1810.4 1732.45,1805.96 1731.34,1803.05"/>
<path class="FiguredBass" d="M1726.14,1869.28 C1728.49,1869.28 1730.97,1868.94 1733.56,1868.26 L1737.74,1867.15 C1738.54,1867.15 1739.18,1867.46 1739.64,1868.07 C1740.1,1868.69 1740.06,1869.25 1739.5,1869.74 L1696.36,1919.93 L1721.69,1919.93 L1721.69,1900.08 C1721.69,1898.66 1722.08,1897.56 1722.85,1896.79 C1723.62,1896.01 1724.61,1895.4 1725.82,1894.93 C1727.02,1894.47 1728.6,1893.09 1730.55,1890.8 C1732.5,1888.52 1734.37,1885.42 1736.16,1881.53 C1736.47,1880.91 1736.93,1880.6 1737.55,1880.6 C1738.85,1880.6 1739.5,1881.31 1739.5,1882.73 L1739.5,1919.93 L1750.45,1919.93 C1751.99,1919.93 1752.77,1920.65 1752.77,1922.07 C1752.77,1923.61 1751.99,1924.39 1750.45,1924.39 L1739.5,1924.39 L1739.5,1925.59 C1739.5,1929.43 1740.52,1932.77 1742.56,1935.61 C1744.6,1938.46 1747.23,1939.88 1750.45,1939.88 C1751.69,1939.88 1752.3,1940.44 1752.3,1941.55 C1752.3,1942.79 1751.69,1943.41 1750.45,1943.41 C1748.22,1943.41 1744.91,1943.08 1740.52,1942.43 C1736.13,1941.78 1732.81,1941.46 1730.55,1941.46 C1728.29,1941.46 1724.97,1941.78 1720.58,1942.43 C1716.18,1943.08 1712.88,1943.41 1710.65,1943.41 C1709.41,1943.41 1708.79,1942.79 1708.79,1941.55 C1708.79,1940.44 1709.41,1939.88 1710.65,1939.88 C1713.87,1939.88 1716.51,1938.46 1718.58,1935.61 C1720.65,1932.77 1721.69,1929.43 1721.69,1925.59 L1721.69,1924.39 L1696.36,1924.39 C1694.75,1924.39 1693.56,1924 1692.79,1923.23 C1692.02,1922.45 1691.63,1921.67 1691.63,1920.86 C1691.63,1920.55 1692.36,1919.49 1693.81,1917.66 C1695.26,1915.84 1697.04,1913.41 1699.14,1910.38 C1701.25,1907.35 1703.34,1903.9 1705.41,1900.03 C1707.48,1896.17 1709.24,1891.53 1710.7,1886.12 C1712.15,1880.71 1712.88,1875.25 1712.88,1869.74 C1712.88,1868.14 1713.56,1867.33 1714.92,1867.33 C1715.1,1867.33 1715.75,1867.49 1716.86,1867.8 C1717.98,1868.11 1719.4,1868.43 1721.13,1868.77 C1722.86,1869.11 1724.53,1869.28 1726.14,1869.28"/>
<path class="FiguredBass" d="M1738.67,2008.8 C1738.67,2009.79 1739.22,2010.75 1740.34,2011.68 C1741.45,2012.6 1742.67,2013.48 1744,2014.32 C1745.33,2015.15 1746.55,2016.73 1747.67,2019.05 C1748.78,2021.37 1749.34,2024.29 1749.34,2027.82 C1749.34,2034.62 1746.77,2039.88 1741.64,2043.59 C1736.5,2047.3 1730.01,2049.16 1722.15,2049.16 C1715.84,2049.16 1710.36,2047.58 1705.69,2044.42 C1701.02,2041.27 1698.68,2037.13 1698.68,2031.99 C1698.68,2029.27 1699.67,2026.91 1701.65,2024.9 C1703.63,2022.89 1705.99,2021.88 1708.75,2021.88 C1711.5,2021.88 1713.83,2022.87 1715.75,2024.85 C1717.67,2026.83 1718.63,2029.21 1718.63,2031.99 C1718.63,2033.23 1717.61,2034.58 1715.57,2036.03 C1713.52,2037.48 1712.5,2038.83 1712.5,2040.06 C1712.5,2041.98 1713.45,2043.39 1715.33,2044.29 C1717.22,2045.18 1719.49,2045.63 1722.15,2045.63 C1725.62,2045.63 1728.07,2043.91 1729.53,2040.48 C1730.98,2037.05 1731.71,2032.83 1731.71,2027.82 L1731.71,2025.41 C1731.71,2022.07 1731.6,2019.53 1731.38,2017.8 C1731.17,2016.07 1730.49,2014.52 1729.34,2013.16 C1728.2,2011.8 1726.45,2011.12 1724.1,2011.12 L1711.95,2011.12 C1710.53,2011.12 1709.81,2010.35 1709.81,2008.8 C1709.81,2007.38 1710.53,2006.67 1711.95,2006.67 L1724.1,2006.67 C1726.64,2006.67 1728.62,2005.71 1730.04,2003.79 C1730.53,2003.11 1730.94,2002 1731.24,2000.45 C1731.55,1998.41 1731.71,1995.47 1731.71,1991.64 L1731.71,1990.43 C1731.71,1981.22 1728.31,1976.61 1721.5,1976.61 C1715.5,1976.61 1712.5,1978.28 1712.5,1981.62 C1712.5,1982.73 1713.42,1983.92 1715.24,1985.19 C1717.07,1986.46 1717.98,1987.65 1717.98,1988.76 C1717.98,1991.17 1717.13,1993.24 1715.43,1994.98 C1713.73,1996.71 1711.65,1997.57 1709.21,1997.57 C1706.77,1997.57 1704.71,1996.71 1703.04,1994.98 C1701.37,1993.24 1700.54,1991.17 1700.54,1988.76 C1700.54,1984 1702.61,1980.19 1706.75,1977.35 C1710.9,1974.5 1715.81,1973.08 1721.5,1973.08 C1728.99,1973.08 1735.14,1974.52 1739.97,1977.4 C1744.79,1980.27 1747.2,1984.62 1747.2,1990.43 C1747.2,1994.57 1746.77,1997.79 1745.9,2000.08 C1745.04,2002.37 1744.05,2003.76 1742.93,2004.25 C1741.82,2004.75 1740.83,2005.32 1739.97,2005.97 C1739.1,2006.62 1738.67,2007.56 1738.67,2008.8"/>
<path class="FiguredBass" d="M2621.67,1765.11 C2617.09,1765.11 2614.04,1766.95 2612.53,1770.63 C2611.01,1774.31 2610.26,1779.52 2610.26,1786.26 L2610.26,1797.21 C2613.47,1795.91 2616.25,1795.23 2618.61,1795.17 C2626.65,1795.17 2632.97,1796.94 2637.58,1800.5 C2642.19,1804.06 2644.49,1809.34 2644.49,1816.36 C2644.49,1823.38 2642.15,1828.69 2637.48,1832.28 C2632.82,1835.86 2626.52,1837.66 2618.61,1837.66 C2610.5,1837.66 2604.16,1833.9 2599.59,1826.38 C2595.01,1818.87 2592.72,1809.95 2592.72,1799.62 C2592.72,1789.35 2595.38,1780.45 2600.7,1772.9 C2606.02,1765.35 2613.01,1761.58 2621.67,1761.58 C2627.36,1761.58 2632.27,1763.02 2636.42,1765.9 C2640.56,1768.77 2642.63,1772.56 2642.63,1777.26 C2642.63,1779.98 2641.64,1782.33 2639.66,1784.31 C2637.69,1786.29 2635.32,1787.28 2632.57,1787.28 C2629.82,1787.28 2627.45,1786.29 2625.47,1784.31 C2623.49,1782.33 2622.5,1779.98 2622.5,1777.26 C2622.5,1774.6 2623.49,1772.25 2625.47,1770.21 C2626.15,1769.41 2627.11,1768.73 2628.35,1768.17 C2628.04,1767.36 2627.42,1766.75 2626.49,1766.31 C2625.13,1765.51 2623.52,1765.11 2621.67,1765.11 M2626.21,1803.05 C2625.1,1800.14 2622.66,1798.69 2618.88,1798.69 C2615.11,1798.69 2612.78,1800.14 2611.88,1803.05 C2610.98,1805.96 2610.53,1810.38 2610.53,1816.32 C2610.53,1823.31 2610.98,1828.01 2611.88,1830.42 C2612.78,1832.83 2615.11,1834.04 2618.88,1834.04 C2622.66,1834.04 2625.1,1832.58 2626.21,1829.68 C2627.33,1826.77 2627.88,1822.33 2627.88,1816.36 C2627.88,1810.4 2627.33,1805.96 2626.21,1803.05"/>
<path class="FiguredBass" d="M2621.02,1869.28 C2623.37,1869.28 2625.84,1868.94 2628.44,1868.26 L2632.61,1867.15 C2633.42,1867.15 2634.05,1867.46 2634.52,1868.07 C2634.98,1868.69 2634.93,1869.25 2634.38,1869.74 L2591.24,1919.93 L2616.56,1919.93 L2616.56,1900.08 C2616.56,1898.66 2616.95,1897.56 2617.72,1896.79 C2618.5,1896.01 2619.49,1895.4 2620.69,1894.93 C2621.9,1894.47 2623.48,1893.09 2625.42,1890.8 C2627.37,1888.52 2629.24,1885.42 2631.04,1881.53 C2631.35,1880.91 2631.81,1880.6 2632.43,1880.6 C2633.73,1880.6 2634.38,1881.31 2634.38,1882.73 L2634.38,1919.93 L2645.32,1919.93 C2646.87,1919.93 2647.64,1920.65 2647.64,1922.07 C2647.64,1923.61 2646.87,1924.39 2645.32,1924.39 L2634.38,1924.39 L2634.38,1925.59 C2634.38,1929.43 2635.4,1932.77 2637.44,1935.61 C2639.48,1938.46 2642.11,1939.88 2645.32,1939.88 C2646.56,1939.88 2647.18,1940.44 2647.18,1941.55 C2647.18,1942.79 2646.56,1943.41 2645.32,1943.41 C2643.1,1943.41 2639.79,1943.08 2635.4,1942.43 C2631.01,1941.78 2627.68,1941.46 2625.42,1941.46 C2623.17,1941.46 2619.84,1941.78 2615.45,1942.43 C2611.06,1943.08 2607.75,1943.41 2605.52,1943.41 C2604.29,1943.41 2603.67,1942.79 2603.67,1941.55 C2603.67,1940.44 2604.29,1939.88 2605.52,1939.88 C2608.74,1939.88 2611.38,1938.46 2613.46,1935.61 C2615.53,1932.77 2616.56,1929.43 2616.56,1925.59 L2616.56,1924.39 L2591.24,1924.39 C2589.63,1924.39 2588.44,1924 2587.67,1923.23 C2586.89,1922.45 2586.51,1921.67 2586.51,1920.86 C2586.51,1920.55 2587.23,1919.49 2588.69,1917.66 C2590.14,1915.84 2591.92,1913.41 2594.02,1910.38 C2596.12,1907.35 2598.21,1903.9 2600.28,1900.03 C2602.35,1896.17 2604.12,1891.53 2605.57,1886.12 C2607.02,1880.71 2607.75,1875.25 2607.75,1869.74 C2607.75,1868.14 2608.43,1867.33 2609.79,1867.33 C2609.98,1867.33 2610.63,1867.49 2611.74,1867.8 C2612.85,1868.11 2614.28,1868.43 2616.01,1868.77 C2617.74,1869.11 2619.41,1869.28 2621.02,1869.28"/>
<path class="FiguredBass" d="M2633.54,2008.8 C2633.54,2009.79 2634.1,2010.75 2635.21,2011.68 C2636.32,2012.6 2637.55,2013.48 2638.88,2014.32 C2640.21,2015.15 2641.43,2016.73 2642.54,2019.05 C2643.65,2021.37 2644.21,2024.29 2644.21,2027.82 C2644.21,2034.62 2641.64,2039.88 2636.51,2043.59 C2631.38,2047.3 2624.88,2049.16 2617.03,2049.16 C2610.72,2049.16 2605.23,2047.58 2600.56,2044.42 C2595.89,2041.27 2593.56,2037.13 2593.56,2031.99 C2593.56,2029.27 2594.55,2026.91 2596.53,2024.9 C2598.5,2022.89 2600.87,2021.88 2603.62,2021.88 C2606.37,2021.88 2608.71,2022.87 2610.63,2024.85 C2612.54,2026.83 2613.5,2029.21 2613.5,2031.99 C2613.5,2033.23 2612.48,2034.58 2610.44,2036.03 C2608.4,2037.48 2607.38,2038.83 2607.38,2040.06 C2607.38,2041.98 2608.32,2043.39 2610.21,2044.29 C2612.1,2045.18 2614.37,2045.63 2617.03,2045.63 C2620.49,2045.63 2622.95,2043.91 2624.4,2040.48 C2625.86,2037.05 2626.58,2032.83 2626.58,2027.82 L2626.58,2025.41 C2626.58,2022.07 2626.48,2019.53 2626.26,2017.8 C2626.04,2016.07 2625.36,2014.52 2624.22,2013.16 C2623.07,2011.8 2621.33,2011.12 2618.98,2011.12 L2606.82,2011.12 C2605.4,2011.12 2604.69,2010.35 2604.69,2008.8 C2604.69,2007.38 2605.4,2006.67 2606.82,2006.67 L2618.98,2006.67 C2621.51,2006.67 2623.49,2005.71 2624.91,2003.79 C2625.41,2003.11 2625.81,2002 2626.12,2000.45 C2626.43,1998.41 2626.58,1995.47 2626.58,1991.64 L2626.58,1990.43 C2626.58,1981.22 2623.18,1976.61 2616.38,1976.61 C2610.38,1976.61 2607.38,1978.28 2607.38,1981.62 C2607.38,1982.73 2608.29,1983.92 2610.12,1985.19 C2611.94,1986.46 2612.85,1987.65 2612.85,1988.76 C2612.85,1991.17 2612,1993.24 2610.3,1994.98 C2608.6,1996.71 2606.53,1997.57 2604.09,1997.57 C2601.64,1997.57 2599.59,1996.71 2597.92,1994.98 C2596.25,1993.24 2595.41,1991.17 2595.41,1988.76 C2595.41,1984 2597.48,1980.19 2601.63,1977.35 C2605.77,1974.5 2610.69,1973.08 2616.38,1973.08 C2623.86,1973.08 2630.02,1974.52 2634.84,1977.4 C2639.66,1980.27 2642.08,1984.62 2642.08,1990.43 C2642.08,1994.57 2641.64,1997.79 2640.78,2000.08 C2639.91,2002.37 2638.92,2003.76 2637.81,2004.25 C2636.7,2004.75 2635.71,2005.32 2634.84,2005.97 C2633.97,2006.62 2633.54,2007.56 2633.54,2008.8"/>
<path class="FiguredBass" d="M3486.61,1765.11 C3482.03,1765.11 3478.99,1766.95 3477.47,1770.63 C3475.96,1774.31 3475.2,1779.52 3475.2,1786.26 L3475.2,1797.21 C3478.41,1795.91 3481.2,1795.23 3483.55,1795.17 C3491.59,1795.17 3497.91,1796.94 3502.52,1800.5 C3507.13,1804.06 3509.43,1809.34 3509.43,1816.36 C3509.43,1823.38 3507.1,1828.69 3502.43,1832.28 C3497.76,1835.86 3491.46,1837.66 3483.55,1837.66 C3475.45,1837.66 3469.11,1833.9 3464.53,1826.38 C3459.95,1818.87 3457.66,1809.95 3457.66,1799.62 C3457.66,1789.35 3460.32,1780.45 3465.64,1772.9 C3470.96,1765.35 3477.95,1761.58 3486.61,1761.58 C3492.3,1761.58 3497.22,1763.02 3501.36,1765.9 C3505.5,1768.77 3507.58,1772.56 3507.58,1777.26 C3507.58,1779.98 3506.59,1782.33 3504.61,1784.31 C3502.63,1786.29 3500.26,1787.28 3497.51,1787.28 C3494.76,1787.28 3492.39,1786.29 3490.41,1784.31 C3488.43,1782.33 3487.44,1779.98 3487.44,1777.26 C3487.44,1774.6 3488.43,1772.25 3490.41,1770.21 C3491.09,1769.41 3492.05,1768.73 3493.29,1768.17 C3492.98,1767.36 3492.36,1766.75 3491.43,1766.31 C3490.07,1765.51 3488.46,1765.11 3486.61,1765.11 M3491.15,1803.05 C3490.04,1800.14 3487.6,1798.69 3483.83,1798.69 C3480.05,1798.69 3477.72,1800.14 3476.82,1803.05 C3475.92,1805.96 3475.48,1810.38 3475.48,1816.32 C3475.48,1823.31 3475.92,1828.01 3476.82,1830.42 C3477.72,1832.83 3480.05,1834.04 3483.83,1834.04 C3487.6,1834.04 3490.04,1832.58 3491.15,1829.68 C3492.27,1826.77 3492.82,1822.33 3492.82,1816.36 C3492.82,1810.4 3492.27,1805.96 3491.15,1803.05"/>
<path class="FiguredBass" d="M3485.96,1869.28 C3488.31,1869.28 3490.78,1868.94 3493.38,1868.26 L3497.56,1867.15 C3498.36,1867.15 3498.99,1867.46 3499.46,1868.07 C3499.92,1868.69 3499.88,1869.25 3499.32,1869.74 L3456.18,1919.93 L3481.51,1919.93 L3481.51,1900.08 C3481.51,1898.66 3481.89,1897.56 3482.67,1896.79 C3483.44,1896.01 3484.43,1895.4 3485.63,1894.93 C3486.84,1894.47 3488.42,1893.09 3490.37,1890.8 C3492.31,1888.52 3494.19,1885.42 3495.98,1881.53 C3496.29,1880.91 3496.75,1880.6 3497.37,1880.6 C3498.67,1880.6 3499.32,1881.31 3499.32,1882.73 L3499.32,1919.93 L3510.27,1919.93 C3511.81,1919.93 3512.59,1920.65 3512.59,1922.07 C3512.59,1923.61 3511.81,1924.39 3510.27,1924.39 L3499.32,1924.39 L3499.32,1925.59 C3499.32,1929.43 3500.34,1932.77 3502.38,1935.61 C3504.42,1938.46 3507.05,1939.88 3510.27,1939.88 C3511.5,1939.88 3512.12,1940.44 3512.12,1941.55 C3512.12,1942.79 3511.5,1943.41 3510.27,1943.41 C3508.04,1943.41 3504.73,1943.08 3500.34,1942.43 C3495.95,1941.78 3492.62,1941.46 3490.37,1941.46 C3488.11,1941.46 3484.78,1941.78 3480.39,1942.43 C3476,1943.08 3472.69,1943.41 3470.47,1943.41 C3469.23,1943.41 3468.61,1942.79 3468.61,1941.55 C3468.61,1940.44 3469.23,1939.88 3470.47,1939.88 C3473.68,1939.88 3476.33,1938.46 3478.4,1935.61 C3480.47,1932.77 3481.51,1929.43 3481.51,1925.59 L3481.51,1924.39 L3456.18,1924.39 C3454.57,1924.39 3453.38,1924 3452.61,1923.23 C3451.83,1922.45 3451.45,1921.67 3451.45,1920.86 C3451.45,1920.55 3452.17,1919.49 3453.63,1917.66 C3455.08,1915.84 3456.86,1913.41 3458.96,1910.38 C3461.07,1907.35 3463.15,1903.9 3465.22,1900.03 C3467.3,1896.17 3469.06,1891.53 3470.51,1886.12 C3471.97,1880.71 3472.69,1875.25 3472.69,1869.74 C3472.69,1868.14 3473.37,1867.33 3474.73,1867.33 C3474.92,1867.33 3475.57,1867.49 3476.68,1867.8 C3477.8,1868.11 3479.22,1868.43 3480.95,1868.77 C3482.68,1869.11 3484.35,1869.28 3485.96,1869.28"/>
<path class="FiguredBass" d="M3498.48,2008.8 C3498.48,2009.79 3499.04,2010.75 3500.15,2011.68 C3501.27,2012.6 3502.49,2013.48 3503.82,2014.32 C3505.15,2015.15 3506.37,2016.73 3507.48,2019.05 C3508.6,2021.37 3509.15,2024.29 3509.15,2027.82 C3509.15,2034.62 3506.59,2039.88 3501.45,2043.59 C3496.32,2047.3 3489.83,2049.16 3481.97,2049.16 C3475.66,2049.16 3470.17,2047.58 3465.5,2044.42 C3460.83,2041.27 3458.5,2037.13 3458.5,2031.99 C3458.5,2029.27 3459.49,2026.91 3461.47,2024.9 C3463.45,2022.89 3465.81,2021.88 3468.56,2021.88 C3471.32,2021.88 3473.65,2022.87 3475.57,2024.85 C3477.49,2026.83 3478.44,2029.21 3478.44,2031.99 C3478.44,2033.23 3477.42,2034.58 3475.38,2036.03 C3473.34,2037.48 3472.32,2038.83 3472.32,2040.06 C3472.32,2041.98 3473.27,2043.39 3475.15,2044.29 C3477.04,2045.18 3479.31,2045.63 3481.97,2045.63 C3485.43,2045.63 3487.89,2043.91 3489.35,2040.48 C3490.8,2037.05 3491.53,2032.83 3491.53,2027.82 L3491.53,2025.41 C3491.53,2022.07 3491.42,2019.53 3491.2,2017.8 C3490.98,2016.07 3490.3,2014.52 3489.16,2013.16 C3488.02,2011.8 3486.27,2011.12 3483.92,2011.12 L3471.77,2011.12 C3470.34,2011.12 3469.63,2010.35 3469.63,2008.8 C3469.63,2007.38 3470.34,2006.67 3471.77,2006.67 L3483.92,2006.67 C3486.45,2006.67 3488.43,2005.71 3489.86,2003.79 C3490.35,2003.11 3490.75,2002 3491.06,2000.45 C3491.37,1998.41 3491.53,1995.47 3491.53,1991.64 L3491.53,1990.43 C3491.53,1981.22 3488.12,1976.61 3481.32,1976.61 C3475.32,1976.61 3472.32,1978.28 3472.32,1981.62 C3472.32,1982.73 3473.23,1983.92 3475.06,1985.19 C3476.88,1986.46 3477.8,1987.65 3477.8,1988.76 C3477.8,1991.17 3476.95,1993.24 3475.24,1994.98 C3473.54,1996.71 3471.47,1997.57 3469.03,1997.57 C3466.59,1997.57 3464.53,1996.71 3462.86,1994.98 C3461.19,1993.24 3460.35,1991.17 3460.35,1988.76 C3460.35,1984 3462.43,1980.19 3466.57,1977.35 C3470.71,1974.5 3475.63,1973.08 3481.32,1973.08 C3488.8,1973.08 3494.96,1974.52 3499.78,1977.4 C3504.61,1980.27 3507.02,1984.62 3507.02,1990.43 C3507.02,1994.57 3506.59,1997.79 3505.72,2000.08 C3504.85,2002.37 3503.86,2003.76 3502.75,2004.25 C3501.64,2004.75 3500.65,2005.32 3499.78,2005.97 C3498.92,2006.62 3498.48,2007.56 3498.48,2008.8"/>
<polyline class="FretDiagram" stroke="#fc02ff" stroke-width="4.76" stroke-linejoin="bevel" points="3382.99,227.452 3596.1,227.452"/>
<polyline class="FretDiagram" stroke="#fc02ff" stroke-width="4.76" stroke-linejoin="bevel" points="3385.37,215.547 3385.37,441.751"/>
<polyline class="FretDiagram" stroke="#fc02ff" stroke-width="4.76" stroke-linejoin="bevel" points="3427.04,215.547 3427.04,441.751"/>
<polyline class="FretDiagram" stroke="#fc02ff" stroke-width="4.76" stroke-linejoin="bevel" points="3468.71,215.547 3468.71,441.751"/>
<polyline class="FretDiagram" stroke="#fc02ff" stroke-width="4.76" stroke-linejoin="bevel" points="3510.38,215.547 3510.38,441.751"/>
<polyline class="FretDiagram" stroke="#fc02ff" stroke-width="4.76" stroke-linejoin="bevel" points="3552.05,215.547 3552.05,441.751"/>
<polyline class="FretDiagram" stroke="#fc02ff" stroke-width="4.76" stroke-linejoin="bevel" points="3593.72,215.547 3593.72,441.751"/>
<polyline class="FretDiagram" stroke="#fc02ff" stroke-width="4.76" stroke-linejoin="bevel" points="3385.37,275.074 3593.72,275.074"/>
<polyline class="FretDiagram" stroke="#fc02ff" stroke-width="4.76" stroke-linejoin="bevel" points="3385.37,322.696 3593.72,322.696"/>
<polyline class="FretDiagram" stroke="#fc02ff" stroke-width="4.76" stroke-linejoin="bevel" points="3385.37,370.318 3593.72,370.318"/>
<polyline class="FretDiagram" stroke="#fc02ff" stroke-width="4.76" stroke-linejoin="bevel" points="3385.37,417.94 3593.72,417.94"/>
<path class="FretDiagram" fill="#fc02ff" fill-rule="evenodd" d="M3483.29,298.885 C3483.29,306.94 3476.76,313.469 3468.71,313.469 C3460.65,313.469 3454.13,306.94 3454.13,298.885 C3454.13,290.83 3460.65,284.301 3468.71,284.301 C3476.76,284.301 3483.29,290.83 3483.29,298.885"/>
<path class="FretDiagram" fill="#fc02ff" fill-rule="evenodd" d="M3566.63,346.507 C3566.63,354.562 3560.1,361.091 3552.05,361.091 C3543.99,361.091 3537.46,354.562 3537.46,346.507 C3537.46,338.453 3543.99,331.923 3552.05,331.923 C3560.1,331.923 3566.63,338.453 3566.63,346.507"/>
<polyline class="FretDiagram" fill="none" stroke="#fc02ff" stroke-width="6.86" stroke-linecap="round" stroke-linejoin="bevel" points="3368.7,163.162 3402.04,196.498"/>
<polyline class="FretDiagram" fill="none" stroke="#fc02ff" stroke-width="6.86" stroke-linecap="round" stroke-linejoin="bevel" points="3368.7,196.498 3402.04,163.162"/>
<path class="FretDiagram" fill="none" stroke="#fc02ff" stroke-width="6.86" stroke-linecap="round" stroke-linejoin="bevel" fill-rule="evenodd" d="M3443.71,179.83 C3443.71,189.035 3436.25,196.498 3427.04,196.498 C3417.83,196.498 3410.37,189.035 3410.37,179.83 C3410.37,170.625 3417.83,163.162 3427.04,163.162 C3436.25,163.162 3443.71,170.625 3443.71,179.83"/>
<path class="FretDiagram" fill="none" stroke="#fc02ff" stroke-width="6.86" stroke-linecap="round" stroke-linejoin="bevel" fill-rule="evenodd" d="M3527.05,179.83 C3527.05,189.035 3519.58,196.498 3510.38,196.498 C3501.17,196.498 3493.71,189.035 3493.71,179.83 C3493.71,170.625 3501.17,163.162 3510.38,163.162 C3519.58,163.162 3527.05,170.625 3527.05,179.83"/>
<polyline class="FretDiagram" fill="none" stroke="#fc02ff" stroke-width="6.86" stroke-linecap="round" stroke-linejoin="bevel" points="3577.05,163.162 3610.39,196.498"/>
<polyline class="FretDiagram" fill="none" stroke="#fc02ff" stroke-width="6.86" stroke-linecap="round" stroke-linejoin="bevel" points="3577.05,196.498 3610.39,163.162"/>
<polyline class="FretDiagram" fill="none" stroke="#fc02ff" stroke-width="29.17" stroke-linecap="round" stroke-linejoin="bevel" points="3427.04,251.263 3593.72,251.263"/>
<path class="FretDiagram" fill="#fc02ff" d="M3361.12,217.16 L3361.12,225.425 L3333.1,225.425 L3330.44,244.235 C3334.17,241.511 3338.32,240.15 3342.88,240.15 C3349.34,240.15 3354.58,242.224 3358.6,246.372 C3362.63,250.52 3364.64,255.92 3364.64,262.57 C3364.64,269.663 3362.48,275.458 3358.18,279.955 C3353.87,284.451 3348.33,286.7 3341.55,286.7 C3338.96,286.7 3336.56,286.415 3334.38,285.845 C3332.19,285.275 3330.39,284.594 3328.96,283.802 C3327.54,283.01 3326.24,281.965 3325.07,280.667 C3323.9,279.369 3323.01,278.229 3322.41,277.247 C3321.81,276.265 3321.24,275.03 3320.7,273.542 C3320.16,272.054 3319.83,271.025 3319.7,270.455 C3319.58,269.885 3319.42,269.061 3319.23,267.985 L3327.59,267.985 C3329.55,275.521 3334.14,279.29 3341.36,279.29 C3345.92,279.29 3349.52,277.896 3352.14,275.11 C3354.77,272.323 3356.09,268.523 3356.09,263.71 C3356.09,258.706 3354.76,254.764 3352.1,251.882 C3349.44,249 3345.86,247.56 3341.36,247.56 C3338.77,247.56 3336.55,248.019 3334.71,248.937 C3332.88,249.855 3330.98,251.486 3329.01,253.83 L3321.32,253.83 L3326.35,217.16 L3361.12,217.16 "/>
<path class="Bracket" transform="matrix(8.6315,0,0,9.45563,76.1283,2337.37)" d="M0.92002,-50 C2.69004,-51.88 6.2,-55.8 6.2,-63 C6.2,-72.1 2.25996,-81.32 2.25996,-86.97 C2.25996,-93.06 5.84004,-98.84 5.95,-99 C6.05996,-99.16 6.05,-99.39 5.94004,-99.46 C5.82998,-99.53 5.62002,-99.47 5.49004,-99.32 C5.35996,-99.17 0,-93.75 0,-85.6 C0,-76.75 3.5,-70.58 3.5,-59.07 C3.5,-56.89 2.55996,-53.36 0.1,-50.33 C-0.0799805,-50.17 -0.1,-49.89 0.0599609,-49.7 L0.0700195,-49.69 L0.1,-49.66 C2.55996,-46.63 3.5,-43.1 3.5,-40.92 C3.5,-29.4 0,-23.24 0,-14.39 C0,-6.25 5.35996,-0.8 5.49004,-0.659961 C5.62002,-0.52002 5.8,-0.42998 5.94004,-0.52002 C6.07998,-0.609961 6.07998,-0.77998 5.95,-0.97998 C5.82002,-1.17998 2.25996,-6.92002 2.25996,-13.01 C2.25996,-18.66 6.2,-27.9 6.2,-37 C6.2,-44.3 2.69004,-48.12 0.92002,-50"/>
</svg>
