<?xml version="1.0" encoding="UTF-8" standalone="no"?>
<svg width="4209.44px" height="2976.38px" viewBox="0 0 4209.44 2976.38"
 xmlns="http://www.w3.org/2000/svg" xmlns:xlink="http://www.w3.org/1999/xlink" version="1.2" baseProfile="tiny">
<title>Cordes (14)</title>
<desc>Generated by MuseScore 3.6.2</desc>
<polyline class="StaffLines" fill="none" stroke="#000000" stroke-width="6.55" stroke-linejoin="bevel" points="153.819,558.425 4138.58,558.425"/>
<polyline class="StaffLines" fill="none" stroke="#000000" stroke-width="6.55" stroke-linejoin="bevel" points="153.819,647.717 4138.58,647.717"/>
<polyline class="StaffLines" fill="none" stroke="#000000" stroke-width="6.55" stroke-linejoin="bevel" points="153.819,737.008 4138.58,737.008"/>
<polyline class="StaffLines" fill="none" stroke="#000000" stroke-width="6.55" stroke-linejoin="bevel" points="153.819,826.299 4138.58,826.299"/>
<polyline class="StaffLines" fill="none" stroke="#000000" stroke-width="6.55" stroke-linejoin="bevel" points="153.819,915.591 4138.58,915.591"/>
<polyline class="StaffLines" fill="none" stroke="#000000" stroke-width="6.55" stroke-linejoin="bevel" points="153.819,1004.88 4138.58,1004.88"/>
<polyline class="StaffLines" fill="none" stroke="#000000" stroke-width="6.55" stroke-linejoin="bevel" points="153.819,1391.81 4138.58,1391.81"/>
<polyline class="StaffLines" fill="none" stroke="#000000" stroke-width="6.55" stroke-linejoin="bevel" points="153.819,1451.34 4138.58,1451.34"/>
<polyline class="StaffLines" fill="none" stroke="#000000" stroke-width="6.55" stroke-linejoin="bevel" points="153.819,1510.87 4138.58,1510.87"/>
<polyline class="StaffLines" fill="none" stroke="#000000" stroke-width="6.55" stroke-linejoin="bevel" points="153.819,1570.39 4138.58,1570.39"/>
<polyline class="StaffLines" fill="none" stroke="#000000" stroke-width="6.55" stroke-linejoin="bevel" points="153.819,1629.92 4138.58,1629.92"/>
<polyline class="StaffLines" fill="none" stroke="#000000" stroke-width="6.55" stroke-linejoin="bevel" points="153.819,2082.14 4138.58,2082.14"/>
<polyline class="StaffLines" fill="none" stroke="#000000" stroke-width="6.55" stroke-linejoin="bevel" points="153.819,2141.66 4138.58,2141.66"/>
<polyline class="StaffLines" fill="none" stroke="#000000" stroke-width="6.55" stroke-linejoin="bevel" points="153.819,2201.19 4138.58,2201.19"/>
<polyline class="StaffLines" fill="none" stroke="#000000" stroke-width="6.55" stroke-linejoin="bevel" points="153.819,2260.72 4138.58,2260.72"/>
<polyline class="StaffLines" fill="none" stroke="#000000" stroke-width="6.55" stroke-linejoin="bevel" points="153.819,2320.25 4138.58,2320.25"/>
<polyline class="BarLine" fill="none" stroke="#000000" stroke-width="10.71" stroke-linejoin="bevel" points="159.176,2078.86 159.176,2323.52"/>
<polyline class="BarLine" fill="none" stroke="#000000" stroke-width="10.71" stroke-linejoin="bevel" points="1381.48,2078.86 1381.48,2323.52"/>
<polyline class="BarLine" fill="none" stroke="#000000" stroke-width="10.71" stroke-linejoin="bevel" points="2270.29,2078.86 2270.29,2323.52"/>
<polyline class="BarLine" fill="none" stroke="#000000" stroke-width="10.71" stroke-linejoin="bevel" points="3201.25,2078.86 3201.25,2323.52"/>
<polyline class="BarLine" fill="none" stroke="#000000" stroke-width="10.71" stroke-linejoin="bevel" points="4080.54,2078.86 4080.54,2323.52"/>
<polyline class="BarLine" fill="none" stroke="#000000" stroke-width="32.74" stroke-linejoin="bevel" points="4122.21,2078.86 4122.21,2323.52"/>
<polyline class="BarLine" fill="none" stroke="#000000" stroke-width="10.71" stroke-linejoin="bevel" points="159.176,1388.54 159.176,2082.14"/>
<polyline class="BarLine" fill="none" stroke="#000000" stroke-width="10.71" stroke-linejoin="bevel" points="1381.48,1388.54 1381.48,1633.2"/>
<polyline class="BarLine" fill="none" stroke="#000000" stroke-width="10.71" stroke-linejoin="bevel" points="2270.29,1388.54 2270.29,1633.2"/>
<polyline class="BarLine" fill="none" stroke="#000000" stroke-width="10.71" stroke-linejoin="bevel" points="3201.25,1388.54 3201.25,1633.2"/>
<polyline class="BarLine" fill="none" stroke="#000000" stroke-width="10.71" stroke-linejoin="bevel" points="4080.54,1388.54 4080.54,1633.2"/>
<polyline class="BarLine" fill="none" stroke="#000000" stroke-width="32.74" stroke-linejoin="bevel" points="4122.21,1388.54 4122.21,1633.2"/>
<polyline class="BarLine" fill="none" stroke="#000000" stroke-width="10.71" stroke-linejoin="bevel" points="159.176,555.151 159.176,1391.81"/>
<polyline class="BarLine" fill="none" stroke="#000000" stroke-width="10.71" stroke-linejoin="bevel" points="1381.48,555.151 1381.48,1008.16"/>
<polyline class="BarLine" fill="none" stroke="#000000" stroke-width="10.71" stroke-linejoin="bevel" points="2270.29,555.151 2270.29,1008.16"/>
<polyline class="BarLine" fill="none" stroke="#000000" stroke-width="10.71" stroke-linejoin="bevel" points="3201.25,555.151 3201.25,1008.16"/>
<polyline class="BarLine" fill="none" stroke="#000000" stroke-width="10.71" stroke-linejoin="bevel" points="4080.54,555.151 4080.54,1008.16"/>
<polyline class="BarLine" fill="none" stroke="#000000" stroke-width="32.74" stroke-linejoin="bevel" points="4122.21,555.151 4122.21,1008.16"/>
<path class="Accidental" transform="matrix(2.3811,0,0,2.3811,513.384,1540.63)" d="M20.1,-7.9 C19.5,-11.8 17.1,-15.5 12,-15.5 C7,-15.5 4.1,-12.4 3.6,-11.8 L4,-43.9 C4,-44.7 3.4,-45.3 2.6,-45.3 L1.4,-45.3 C0.6,-45.3 0,-44.7 0,-43.9 L0.5,16.2 C0.5,17 1.1,17.6 1.9,17.6 C2.1,17.6 2.5,17.5 2.7,17.4 C3.1,17.2 9.6,14 15,7.9 C18.8,3.6 20.3,-1.3 20.3,-5.4 C20.3,-6.3 20.2,-7.1 20.1,-7.9 M13.2,-4 C13.2,-2.5 12.8,2.1 10.3,5.9 C8.6,8.5 5.2,11.2 3.3,12.7 L3.6,-6.8 C3.8,-7.7 5.3,-10.6 9.3,-10.6 C12.9,-10.6 13.2,-7.2 13.2,-5.1 L13.2,-4 "/>
<path class="Accidental" transform="matrix(2.3811,0,0,2.3811,542.564,1421.57)" d="M20.1,-7.9 C19.5,-11.8 17.1,-15.5 12,-15.5 C7,-15.5 4.1,-12.4 3.6,-11.8 L4,-43.9 C4,-44.7 3.4,-45.3 2.6,-45.3 L1.4,-45.3 C0.6,-45.3 0,-44.7 0,-43.9 L0.5,16.2 C0.5,17 1.1,17.6 1.9,17.6 C2.1,17.6 2.5,17.5 2.7,17.4 C3.1,17.2 9.6,14 15,7.9 C18.8,3.6 20.3,-1.3 20.3,-5.4 C20.3,-6.3 20.2,-7.1 20.1,-7.9 M13.2,-4 C13.2,-2.5 12.8,2.1 10.3,5.9 C8.6,8.5 5.2,11.2 3.3,12.7 L3.6,-6.8 C3.8,-7.7 5.3,-10.6 9.3,-10.6 C12.9,-10.6 13.2,-7.2 13.2,-5.1 L13.2,-4 "/>
<path class="Accidental" transform="matrix(2.3811,0,0,2.3811,2333.15,1540.63)" d="M20.1,-7.9 C19.5,-11.8 17.1,-15.5 12,-15.5 C7,-15.5 4.1,-12.4 3.6,-11.8 L4,-43.9 C4,-44.7 3.4,-45.3 2.6,-45.3 L1.4,-45.3 C0.6,-45.3 0,-44.7 0,-43.9 L0.5,16.2 C0.5,17 1.1,17.6 1.9,17.6 C2.1,17.6 2.5,17.5 2.7,17.4 C3.1,17.2 9.6,14 15,7.9 C18.8,3.6 20.3,-1.3 20.3,-5.4 C20.3,-6.3 20.2,-7.1 20.1,-7.9 M13.2,-4 C13.2,-2.5 12.8,2.1 10.3,5.9 C8.6,8.5 5.2,11.2 3.3,12.7 L3.6,-6.8 C3.8,-7.7 5.3,-10.6 9.3,-10.6 C12.9,-10.6 13.2,-7.2 13.2,-5.1 L13.2,-4 "/>
<path class="Accidental" transform="matrix(2.3811,0,0,2.3811,2362.33,1421.57)" d="M20.1,-7.9 C19.5,-11.8 17.1,-15.5 12,-15.5 C7,-15.5 4.1,-12.4 3.6,-11.8 L4,-43.9 C4,-44.7 3.4,-45.3 2.6,-45.3 L1.4,-45.3 C0.6,-45.3 0,-44.7 0,-43.9 L0.5,16.2 C0.5,17 1.1,17.6 1.9,17.6 C2.1,17.6 2.5,17.5 2.7,17.4 C3.1,17.2 9.6,14 15,7.9 C18.8,3.6 20.3,-1.3 20.3,-5.4 C20.3,-6.3 20.2,-7.1 20.1,-7.9 M13.2,-4 C13.2,-2.5 12.8,2.1 10.3,5.9 C8.6,8.5 5.2,11.2 3.3,12.7 L3.6,-6.8 C3.8,-7.7 5.3,-10.6 9.3,-10.6 C12.9,-10.6 13.2,-7.2 13.2,-5.1 L13.2,-4 "/>
<polyline class="LedgerLine" fill="none" stroke="#000000" stroke-width="9.52" stroke-linejoin="bevel" points="584.94,2022.61 715.417,2022.61"/>
<polyline class="LedgerLine" fill="none" stroke="#000000" stroke-width="9.52" stroke-linejoin="bevel" points="1464.23,2022.61 1594.7,2022.61"/>
<polyline class="LedgerLine" fill="none" stroke="#000000" stroke-width="9.52" stroke-linejoin="bevel" points="2404.71,2022.61 2535.19,2022.61"/>
<polyline class="LedgerLine" fill="none" stroke="#000000" stroke-width="9.52" stroke-linejoin="bevel" points="3284,2022.61 3414.47,2022.61"/>
<path class="Note" transform="matrix(2.3811,0,0,2.3811,605.775,2022.61)" d="M18.7,-13.6 C4.9,-13.6 0,-6.6 0,-0.1 C0,6.4 4.9,13.4 18.7,13.4 C32.5,13.4 37.3,6.4 37.3,-0.1 C37.3,-6.6 32.5,-13.6 18.7,-13.6 M10.4,-4.5 C10.3,-4.9 10.3,-5.3 10.3,-5.7 C10.3,-6.5 10.5,-7.3 10.9,-8 C11.6,-9 12.8,-9.7 14.3,-10 C15.6,-10.3 16.3,-10.5 18.9,-10.5 L19,-10.5 C23,-10.5 24.3,-6.8 25.4,-3 L25.7,-2 C26.5,0.6 26.9,2.8 26.9,4.5 C26.9,5.7 26.7,6.8 26.3,7.6 C25.7,8.7 24.7,9.4 23,9.8 C22.1,10 20.6,10.1 20.6,10.1 C20.1,10.1 19.7,10.2 19.3,10.2 C16.1,10.2 14.1,9 12.7,4.7 C11.5,1 11.3,-0.1 10.4,-4.5"/>
<path class="Note" transform="matrix(2.3811,0,0,2.3811,1485.06,2022.61)" d="M18.7,-13.6 C4.9,-13.6 0,-6.6 0,-0.1 C0,6.4 4.9,13.4 18.7,13.4 C32.5,13.4 37.3,6.4 37.3,-0.1 C37.3,-6.6 32.5,-13.6 18.7,-13.6 M10.4,-4.5 C10.3,-4.9 10.3,-5.3 10.3,-5.7 C10.3,-6.5 10.5,-7.3 10.9,-8 C11.6,-9 12.8,-9.7 14.3,-10 C15.6,-10.3 16.3,-10.5 18.9,-10.5 L19,-10.5 C23,-10.5 24.3,-6.8 25.4,-3 L25.7,-2 C26.5,0.6 26.9,2.8 26.9,4.5 C26.9,5.7 26.7,6.8 26.3,7.6 C25.7,8.7 24.7,9.4 23,9.8 C22.1,10 20.6,10.1 20.6,10.1 C20.1,10.1 19.7,10.2 19.3,10.2 C16.1,10.2 14.1,9 12.7,4.7 C11.5,1 11.3,-0.1 10.4,-4.5"/>
<path class="Note" transform="matrix(2.3811,0,0,2.3811,2425.54,2022.61)" d="M18.7,-13.6 C4.9,-13.6 0,-6.6 0,-0.1 C0,6.4 4.9,13.4 18.7,13.4 C32.5,13.4 37.3,6.4 37.3,-0.1 C37.3,-6.6 32.5,-13.6 18.7,-13.6 M10.4,-4.5 C10.3,-4.9 10.3,-5.3 10.3,-5.7 C10.3,-6.5 10.5,-7.3 10.9,-8 C11.6,-9 12.8,-9.7 14.3,-10 C15.6,-10.3 16.3,-10.5 18.9,-10.5 L19,-10.5 C23,-10.5 24.3,-6.8 25.4,-3 L25.7,-2 C26.5,0.6 26.9,2.8 26.9,4.5 C26.9,5.7 26.7,6.8 26.3,7.6 C25.7,8.7 24.7,9.4 23,9.8 C22.1,10 20.6,10.1 20.6,10.1 C20.1,10.1 19.7,10.2 19.3,10.2 C16.1,10.2 14.1,9 12.7,4.7 C11.5,1 11.3,-0.1 10.4,-4.5"/>
<path class="Note" transform="matrix(2.3811,0,0,2.3811,3304.83,2022.61)" d="M18.7,-13.6 C4.9,-13.6 0,-6.6 0,-0.1 C0,6.4 4.9,13.4 18.7,13.4 C32.5,13.4 37.3,6.4 37.3,-0.1 C37.3,-6.6 32.5,-13.6 18.7,-13.6 M10.4,-4.5 C10.3,-4.9 10.3,-5.3 10.3,-5.7 C10.3,-6.5 10.5,-7.3 10.9,-8 C11.6,-9 12.8,-9.7 14.3,-10 C15.6,-10.3 16.3,-10.5 18.9,-10.5 L19,-10.5 C23,-10.5 24.3,-6.8 25.4,-3 L25.7,-2 C26.5,0.6 26.9,2.8 26.9,4.5 C26.9,5.7 26.7,6.8 26.3,7.6 C25.7,8.7 24.7,9.4 23,9.8 C22.1,10 20.6,10.1 20.6,10.1 C20.1,10.1 19.7,10.2 19.3,10.2 C16.1,10.2 14.1,9 12.7,4.7 C11.5,1 11.3,-0.1 10.4,-4.5"/>
<path class="Note" transform="matrix(2.3811,0,0,2.3811,605.775,1540.63)" d="M18.7,-13.6 C4.9,-13.6 0,-6.6 0,-0.1 C0,6.4 4.9,13.4 18.7,13.4 C32.5,13.4 37.3,6.4 37.3,-0.1 C37.3,-6.6 32.5,-13.6 18.7,-13.6 M10.4,-4.5 C10.3,-4.9 10.3,-5.3 10.3,-5.7 C10.3,-6.5 10.5,-7.3 10.9,-8 C11.6,-9 12.8,-9.7 14.3,-10 C15.6,-10.3 16.3,-10.5 18.9,-10.5 L19,-10.5 C23,-10.5 24.3,-6.8 25.4,-3 L25.7,-2 C26.5,0.6 26.9,2.8 26.9,4.5 C26.9,5.7 26.7,6.8 26.3,7.6 C25.7,8.7 24.7,9.4 23,9.8 C22.1,10 20.6,10.1 20.6,10.1 C20.1,10.1 19.7,10.2 19.3,10.2 C16.1,10.2 14.1,9 12.7,4.7 C11.5,1 11.3,-0.1 10.4,-4.5"/>
<path class="Note" transform="matrix(2.3811,0,0,2.3811,605.775,1421.57)" d="M18.7,-13.6 C4.9,-13.6 0,-6.6 0,-0.1 C0,6.4 4.9,13.4 18.7,13.4 C32.5,13.4 37.3,6.4 37.3,-0.1 C37.3,-6.6 32.5,-13.6 18.7,-13.6 M10.4,-4.5 C10.3,-4.9 10.3,-5.3 10.3,-5.7 C10.3,-6.5 10.5,-7.3 10.9,-8 C11.6,-9 12.8,-9.7 14.3,-10 C15.6,-10.3 16.3,-10.5 18.9,-10.5 L19,-10.5 C23,-10.5 24.3,-6.8 25.4,-3 L25.7,-2 C26.5,0.6 26.9,2.8 26.9,4.5 C26.9,5.7 26.7,6.8 26.3,7.6 C25.7,8.7 24.7,9.4 23,9.8 C22.1,10 20.6,10.1 20.6,10.1 C20.1,10.1 19.7,10.2 19.3,10.2 C16.1,10.2 14.1,9 12.7,4.7 C11.5,1 11.3,-0.1 10.4,-4.5"/>
<path class="Note" transform="matrix(2.3811,0,0,2.3811,1485.06,1540.63)" d="M18.7,-13.6 C4.9,-13.6 0,-6.6 0,-0.1 C0,6.4 4.9,13.4 18.7,13.4 C32.5,13.4 37.3,6.4 37.3,-0.1 C37.3,-6.6 32.5,-13.6 18.7,-13.6 M10.4,-4.5 C10.3,-4.9 10.3,-5.3 10.3,-5.7 C10.3,-6.5 10.5,-7.3 10.9,-8 C11.6,-9 12.8,-9.7 14.3,-10 C15.6,-10.3 16.3,-10.5 18.9,-10.5 L19,-10.5 C23,-10.5 24.3,-6.8 25.4,-3 L25.7,-2 C26.5,0.6 26.9,2.8 26.9,4.5 C26.9,5.7 26.7,6.8 26.3,7.6 C25.7,8.7 24.7,9.4 23,9.8 C22.1,10 20.6,10.1 20.6,10.1 C20.1,10.1 19.7,10.2 19.3,10.2 C16.1,10.2 14.1,9 12.7,4.7 C11.5,1 11.3,-0.1 10.4,-4.5"/>
<path class="Note" transform="matrix(2.3811,0,0,2.3811,1485.06,1421.57)" d="M18.7,-13.6 C4.9,-13.6 0,-6.6 0,-0.1 C0,6.4 4.9,13.4 18.7,13.4 C32.5,13.4 37.3,6.4 37.3,-0.1 C37.3,-6.6 32.5,-13.6 18.7,-13.6 M10.4,-4.5 C10.3,-4.9 10.3,-5.3 10.3,-5.7 C10.3,-6.5 10.5,-7.3 10.9,-8 C11.6,-9 12.8,-9.7 14.3,-10 C15.6,-10.3 16.3,-10.5 18.9,-10.5 L19,-10.5 C23,-10.5 24.3,-6.8 25.4,-3 L25.7,-2 C26.5,0.6 26.9,2.8 26.9,4.5 C26.9,5.7 26.7,6.8 26.3,7.6 C25.7,8.7 24.7,9.4 23,9.8 C22.1,10 20.6,10.1 20.6,10.1 C20.1,10.1 19.7,10.2 19.3,10.2 C16.1,10.2 14.1,9 12.7,4.7 C11.5,1 11.3,-0.1 10.4,-4.5"/>
<path class="Note" transform="matrix(2.3811,0,0,2.3811,2425.54,1540.63)" d="M18.7,-13.6 C4.9,-13.6 0,-6.6 0,-0.1 C0,6.4 4.9,13.4 18.7,13.4 C32.5,13.4 37.3,6.4 37.3,-0.1 C37.3,-6.6 32.5,-13.6 18.7,-13.6 M10.4,-4.5 C10.3,-4.9 10.3,-5.3 10.3,-5.7 C10.3,-6.5 10.5,-7.3 10.9,-8 C11.6,-9 12.8,-9.7 14.3,-10 C15.6,-10.3 16.3,-10.5 18.9,-10.5 L19,-10.5 C23,-10.5 24.3,-6.8 25.4,-3 L25.7,-2 C26.5,0.6 26.9,2.8 26.9,4.5 C26.9,5.7 26.7,6.8 26.3,7.6 C25.7,8.7 24.7,9.4 23,9.8 C22.1,10 20.6,10.1 20.6,10.1 C20.1,10.1 19.7,10.2 19.3,10.2 C16.1,10.2 14.1,9 12.7,4.7 C11.5,1 11.3,-0.1 10.4,-4.5"/>
<path class="Note" transform="matrix(2.3811,0,0,2.3811,2425.54,1421.57)" d="M18.7,-13.6 C4.9,-13.6 0,-6.6 0,-0.1 C0,6.4 4.9,13.4 18.7,13.4 C32.5,13.4 37.3,6.4 37.3,-0.1 C37.3,-6.6 32.5,-13.6 18.7,-13.6 M10.4,-4.5 C10.3,-4.9 10.3,-5.3 10.3,-5.7 C10.3,-6.5 10.5,-7.3 10.9,-8 C11.6,-9 12.8,-9.7 14.3,-10 C15.6,-10.3 16.3,-10.5 18.9,-10.5 L19,-10.5 C23,-10.5 24.3,-6.8 25.4,-3 L25.7,-2 C26.5,0.6 26.9,2.8 26.9,4.5 C26.9,5.7 26.7,6.8 26.3,7.6 C25.7,8.7 24.7,9.4 23,9.8 C22.1,10 20.6,10.1 20.6,10.1 C20.1,10.1 19.7,10.2 19.3,10.2 C16.1,10.2 14.1,9 12.7,4.7 C11.5,1 11.3,-0.1 10.4,-4.5"/>
<path class="Note" transform="matrix(2.3811,0,0,2.3811,3304.83,1540.63)" d="M18.7,-13.6 C4.9,-13.6 0,-6.6 0,-0.1 C0,6.4 4.9,13.4 18.7,13.4 C32.5,13.4 37.3,6.4 37.3,-0.1 C37.3,-6.6 32.5,-13.6 18.7,-13.6 M10.4,-4.5 C10.3,-4.9 10.3,-5.3 10.3,-5.7 C10.3,-6.5 10.5,-7.3 10.9,-8 C11.6,-9 12.8,-9.7 14.3,-10 C15.6,-10.3 16.3,-10.5 18.9,-10.5 L19,-10.5 C23,-10.5 24.3,-6.8 25.4,-3 L25.7,-2 C26.5,0.6 26.9,2.8 26.9,4.5 C26.9,5.7 26.7,6.8 26.3,7.6 C25.7,8.7 24.7,9.4 23,9.8 C22.1,10 20.6,10.1 20.6,10.1 C20.1,10.1 19.7,10.2 19.3,10.2 C16.1,10.2 14.1,9 12.7,4.7 C11.5,1 11.3,-0.1 10.4,-4.5"/>
<path class="Note" transform="matrix(2.3811,0,0,2.3811,3304.83,1421.57)" d="M18.7,-13.6 C4.9,-13.6 0,-6.6 0,-0.1 C0,6.4 4.9,13.4 18.7,13.4 C32.5,13.4 37.3,6.4 37.3,-0.1 C37.3,-6.6 32.5,-13.6 18.7,-13.6 M10.4,-4.5 C10.3,-4.9 10.3,-5.3 10.3,-5.7 C10.3,-6.5 10.5,-7.3 10.9,-8 C11.6,-9 12.8,-9.7 14.3,-10 C15.6,-10.3 16.3,-10.5 18.9,-10.5 L19,-10.5 C23,-10.5 24.3,-6.8 25.4,-3 L25.7,-2 C26.5,0.6 26.9,2.8 26.9,4.5 C26.9,5.7 26.7,6.8 26.3,7.6 C25.7,8.7 24.7,9.4 23,9.8 C22.1,10 20.6,10.1 20.6,10.1 C20.1,10.1 19.7,10.2 19.3,10.2 C16.1,10.2 14.1,9 12.7,4.7 C11.5,1 11.3,-0.1 10.4,-4.5"/>
<path class="Note" d="M720.387,616.271 C714.034,626.265 704.002,634.555 690.289,641.14 C678.358,646.874 667.201,649.74 656.82,649.74 C648.53,649.74 641.635,648.074 636.134,644.743 C630.169,641.102 627.186,636.763 627.186,631.727 C627.186,620.339 630.169,610.538 636.134,602.326 C644.269,591.17 652.481,585.592 660.771,585.592 C666.659,585.592 670.843,586.754 673.322,589.078 C676.731,592.099 678.435,596.244 678.435,601.513 C678.435,608.95 672.896,615.419 661.817,620.92 C651.048,626.265 643.572,629.752 639.388,631.379 C640.318,633.316 641.519,635.059 642.991,636.608 C646.632,640.482 651.59,642.419 657.866,642.419 C665.768,642.419 676.382,639.513 689.708,633.703 C702.491,628.047 712.717,622.237 720.387,616.271 M637.761,626.033 C643.572,623.089 648.879,619.641 653.682,615.69 C660.81,609.88 664.374,603.604 664.374,596.864 C664.374,593.068 662.63,591.17 659.144,591.17 C656.2,591.17 652.171,594.54 647.058,601.28 C640.628,609.647 637.413,616.465 637.413,621.733 C637.413,623.205 637.529,624.638 637.761,626.033"/>
<path class="Note" d="M699.469,739.77 C703.808,736.826 706.946,734.386 708.882,732.449 C712.446,728.652 714.228,725.166 714.228,721.99 C714.228,718.348 712.214,716.528 708.185,716.528 C700.36,716.528 691.993,723.423 683.084,737.213 C680.372,741.397 674.407,755.032 665.187,778.12 C672.547,785.712 676.227,790.012 676.227,791.019 C676.227,792.414 675.336,793.111 673.554,793.111 C672.16,793.111 668.325,790.748 662.049,786.022 C655.232,801.904 644.889,815.462 631.021,826.696 C616.843,838.162 599.915,843.895 580.237,843.895 C572.722,843.895 563.309,842.152 551.998,838.666 C542.933,835.876 538.401,831.422 538.401,825.301 C538.401,816.237 541.887,811.705 548.86,811.705 C553.044,811.705 555.135,813.641 555.135,817.515 C555.135,818.755 554.167,820.072 552.23,821.466 C551.223,822.164 550.719,823.519 550.719,825.534 C550.719,827.935 553.392,830.415 558.738,832.971 C564.548,835.76 573.071,837.155 584.304,837.155 C598.792,837.155 612.776,830.879 626.256,818.329 C638.497,806.94 647.291,793.692 652.636,778.584 C650.545,776.88 648.298,775.021 645.896,773.006 C638.459,768.59 634.74,764.058 634.74,759.41 C634.74,757.473 636.018,756.504 638.575,756.504 C641.984,756.504 646.593,759.41 652.404,765.22 C653.643,766.46 654.806,767.622 655.89,768.707 C658.602,761.269 662.94,751.817 668.906,740.351 C679.675,719.588 692.768,709.207 708.185,709.207 C713.686,709.207 718.024,710.252 721.201,712.344 C724.377,714.436 725.965,717.303 725.965,720.944 C725.965,726.754 723.835,731.674 719.574,735.703 C715.158,739.886 710.548,741.978 705.745,741.978 C701.561,741.978 699.469,741.242 699.469,739.77"/>
<path class="Note" d="M720.387,705.563 C714.034,715.557 704.002,723.846 690.289,730.432 C678.358,736.165 667.201,739.031 656.82,739.031 C648.53,739.031 641.635,737.366 636.134,734.034 C630.169,730.393 627.186,726.055 627.186,721.019 C627.186,709.63 630.169,699.83 636.134,691.617 C644.269,680.461 652.481,674.883 660.771,674.883 C666.659,674.883 670.843,676.045 673.322,678.369 C676.731,681.391 678.435,685.536 678.435,690.804 C678.435,698.241 672.896,704.71 661.817,710.211 C651.048,715.557 643.572,719.043 639.388,720.67 C640.318,722.607 641.519,724.35 642.991,725.9 C646.632,729.773 651.59,731.71 657.866,731.71 C665.768,731.71 676.382,728.805 689.708,722.994 C702.491,717.339 712.717,711.528 720.387,705.563 M637.761,715.324 C643.572,712.38 648.879,708.933 653.682,704.982 C660.81,699.171 664.374,692.896 664.374,686.155 C664.374,682.359 662.63,680.461 659.144,680.461 C656.2,680.461 652.171,683.831 647.058,690.571 C640.628,698.939 637.413,705.756 637.413,711.025 C637.413,712.497 637.529,713.93 637.761,715.324"/>
<path class="Note" d="M1578.76,561.187 C1583.09,558.243 1586.23,555.803 1588.17,553.866 C1591.73,550.07 1593.51,546.583 1593.51,543.407 C1593.51,539.766 1591.5,537.945 1587.47,537.945 C1579.65,537.945 1571.28,544.84 1562.37,558.631 C1559.66,562.814 1553.69,576.45 1544.47,599.537 C1551.83,607.129 1555.51,611.429 1555.51,612.436 C1555.51,613.831 1554.62,614.528 1552.84,614.528 C1551.45,614.528 1547.61,612.165 1541.34,607.439 C1534.52,623.321 1524.18,636.879 1510.31,648.113 C1496.13,659.579 1479.2,665.312 1459.52,665.312 C1452.01,665.312 1442.6,663.569 1431.28,660.083 C1422.22,657.294 1417.69,652.839 1417.69,646.719 C1417.69,637.654 1421.17,633.122 1428.15,633.122 C1432.33,633.122 1434.42,635.059 1434.42,638.932 C1434.42,640.172 1433.45,641.489 1431.52,642.884 C1430.51,643.581 1430.01,644.937 1430.01,646.951 C1430.01,649.353 1432.68,651.832 1438.02,654.388 C1443.84,657.178 1452.36,658.572 1463.59,658.572 C1478.08,658.572 1492.06,652.297 1505.54,639.746 C1517.78,628.357 1526.58,615.109 1531.92,600.002 C1529.83,598.297 1527.58,596.438 1525.18,594.424 C1517.75,590.008 1514.03,585.475 1514.03,580.827 C1514.03,578.89 1515.3,577.922 1517.86,577.922 C1521.27,577.922 1525.88,580.827 1531.69,586.638 C1532.93,587.877 1534.09,589.039 1535.18,590.124 C1537.89,582.686 1542.23,573.235 1548.19,561.768 C1558.96,541.005 1572.05,530.624 1587.47,530.624 C1592.97,530.624 1597.31,531.67 1600.49,533.762 C1603.66,535.853 1605.25,538.72 1605.25,542.361 C1605.25,548.172 1603.12,553.091 1598.86,557.12 C1594.44,561.304 1589.83,563.395 1585.03,563.395 C1580.85,563.395 1578.76,562.659 1578.76,561.187"/>
<path class="Note" d="M1578.76,739.77 C1583.09,736.826 1586.23,734.386 1588.17,732.449 C1591.73,728.652 1593.51,725.166 1593.51,721.99 C1593.51,718.348 1591.5,716.528 1587.47,716.528 C1579.65,716.528 1571.28,723.423 1562.37,737.213 C1559.66,741.397 1553.69,755.032 1544.47,778.12 C1551.83,785.712 1555.51,790.012 1555.51,791.019 C1555.51,792.414 1554.62,793.111 1552.84,793.111 C1551.45,793.111 1547.61,790.748 1541.34,786.022 C1534.52,801.904 1524.18,815.462 1510.31,826.696 C1496.13,838.162 1479.2,843.895 1459.52,843.895 C1452.01,843.895 1442.6,842.152 1431.28,838.666 C1422.22,835.876 1417.69,831.422 1417.69,825.301 C1417.69,816.237 1421.17,811.705 1428.15,811.705 C1432.33,811.705 1434.42,813.641 1434.42,817.515 C1434.42,818.755 1433.45,820.072 1431.52,821.466 C1430.51,822.164 1430.01,823.519 1430.01,825.534 C1430.01,827.935 1432.68,830.415 1438.02,832.971 C1443.84,835.76 1452.36,837.155 1463.59,837.155 C1478.08,837.155 1492.06,830.879 1505.54,818.329 C1517.78,806.94 1526.58,793.692 1531.92,778.584 C1529.83,776.88 1527.58,775.021 1525.18,773.006 C1517.75,768.59 1514.03,764.058 1514.03,759.41 C1514.03,757.473 1515.3,756.504 1517.86,756.504 C1521.27,756.504 1525.88,759.41 1531.69,765.22 C1532.93,766.46 1534.09,767.622 1535.18,768.707 C1537.89,761.269 1542.23,751.817 1548.19,740.351 C1558.96,719.588 1572.05,709.207 1587.47,709.207 C1592.97,709.207 1597.31,710.252 1600.49,712.344 C1603.66,714.436 1605.25,717.303 1605.25,720.944 C1605.25,726.754 1603.12,731.674 1598.86,735.703 C1594.44,739.886 1589.83,741.978 1585.03,741.978 C1580.85,741.978 1578.76,741.242 1578.76,739.77"/>
<path class="Note" d="M1578.76,650.479 C1583.09,647.535 1586.23,645.094 1588.17,643.157 C1591.73,639.361 1593.51,635.875 1593.51,632.698 C1593.51,629.057 1591.5,627.236 1587.47,627.236 C1579.65,627.236 1571.28,634.132 1562.37,647.922 C1559.66,652.106 1553.69,665.741 1544.47,688.828 C1551.83,696.421 1555.51,700.721 1555.51,701.728 C1555.51,703.122 1554.62,703.819 1552.84,703.819 C1551.45,703.819 1547.61,701.457 1541.34,696.731 C1534.52,712.613 1524.18,726.171 1510.31,737.404 C1496.13,748.871 1479.2,754.604 1459.52,754.604 C1452.01,754.604 1442.6,752.86 1431.28,749.374 C1422.22,746.585 1417.69,742.13 1417.69,736.01 C1417.69,726.945 1421.17,722.413 1428.15,722.413 C1432.33,722.413 1434.42,724.35 1434.42,728.224 C1434.42,729.463 1433.45,730.78 1431.52,732.175 C1430.51,732.872 1430.01,734.228 1430.01,736.242 C1430.01,738.644 1432.68,741.123 1438.02,743.68 C1443.84,746.469 1452.36,747.863 1463.59,747.863 C1478.08,747.863 1492.06,741.588 1505.54,729.037 C1517.78,717.649 1526.58,704.401 1531.92,689.293 C1529.83,687.589 1527.58,685.729 1525.18,683.715 C1517.75,679.299 1514.03,674.767 1514.03,670.118 C1514.03,668.181 1515.3,667.213 1517.86,667.213 C1521.27,667.213 1525.88,670.118 1531.69,675.929 C1532.93,677.168 1534.09,678.331 1535.18,679.415 C1537.89,671.978 1542.23,662.526 1548.19,651.06 C1558.96,630.297 1572.05,619.915 1587.47,619.915 C1592.97,619.915 1597.31,620.961 1600.49,623.053 C1603.66,625.145 1605.25,628.011 1605.25,631.652 C1605.25,637.463 1603.12,642.383 1598.86,646.411 C1594.44,650.595 1589.83,652.687 1585.03,652.687 C1580.85,652.687 1578.76,651.951 1578.76,650.479"/>
<path class="Note" d="M2540.16,616.271 C2533.8,626.265 2523.77,634.555 2510.06,641.14 C2498.13,646.874 2486.97,649.74 2476.59,649.74 C2468.3,649.74 2461.4,648.074 2455.9,644.743 C2449.94,641.102 2446.95,636.763 2446.95,631.727 C2446.95,620.339 2449.94,610.538 2455.9,602.326 C2464.04,591.17 2472.25,585.592 2480.54,585.592 C2486.43,585.592 2490.61,586.754 2493.09,589.078 C2496.5,592.099 2498.2,596.244 2498.2,601.513 C2498.2,608.95 2492.66,615.419 2481.59,620.92 C2470.82,626.265 2463.34,629.752 2459.16,631.379 C2460.09,633.316 2461.29,635.059 2462.76,636.608 C2466.4,640.482 2471.36,642.419 2477.63,642.419 C2485.54,642.419 2496.15,639.513 2509.48,633.703 C2522.26,628.047 2532.49,622.237 2540.16,616.271 M2457.53,626.033 C2463.34,623.089 2468.65,619.641 2473.45,615.69 C2480.58,609.88 2484.14,603.604 2484.14,596.864 C2484.14,593.068 2482.4,591.17 2478.91,591.17 C2475.97,591.17 2471.94,594.54 2466.83,601.28 C2460.4,609.647 2457.18,616.465 2457.18,621.733 C2457.18,623.205 2457.3,624.638 2457.53,626.033"/>
<path class="Note" d="M2519.24,739.77 C2523.58,736.826 2526.71,734.386 2528.65,732.449 C2532.21,728.652 2534,725.166 2534,721.99 C2534,718.348 2531.98,716.528 2527.95,716.528 C2520.13,716.528 2511.76,723.423 2502.85,737.213 C2500.14,741.397 2494.17,755.032 2484.96,778.12 C2492.32,785.712 2496,790.012 2496,791.019 C2496,792.414 2495.1,793.111 2493.32,793.111 C2491.93,793.111 2488.09,790.748 2481.82,786.022 C2475,801.904 2464.66,815.462 2450.79,826.696 C2436.61,838.162 2419.68,843.895 2400.01,843.895 C2392.49,843.895 2383.08,842.152 2371.77,838.666 C2362.7,835.876 2358.17,831.422 2358.17,825.301 C2358.17,816.237 2361.66,811.705 2368.63,811.705 C2372.81,811.705 2374.9,813.641 2374.9,817.515 C2374.9,818.755 2373.94,820.072 2372,821.466 C2370.99,822.164 2370.49,823.519 2370.49,825.534 C2370.49,827.935 2373.16,830.415 2378.51,832.971 C2384.32,835.76 2392.84,837.155 2404.07,837.155 C2418.56,837.155 2432.54,830.879 2446.02,818.329 C2458.27,806.94 2467.06,793.692 2472.4,778.584 C2470.31,776.88 2468.07,775.021 2465.66,773.006 C2458.23,768.59 2454.51,764.058 2454.51,759.41 C2454.51,757.473 2455.79,756.504 2458.34,756.504 C2461.75,756.504 2466.36,759.41 2472.17,765.22 C2473.41,766.46 2474.57,767.622 2475.66,768.707 C2478.37,761.269 2482.71,751.817 2488.67,740.351 C2499.44,719.588 2512.54,709.207 2527.95,709.207 C2533.45,709.207 2537.79,710.252 2540.97,712.344 C2544.15,714.436 2545.73,717.303 2545.73,720.944 C2545.73,726.754 2543.6,731.674 2539.34,735.703 C2534.93,739.886 2530.32,741.978 2525.51,741.978 C2521.33,741.978 2519.24,741.242 2519.24,739.77"/>
<path class="Note" d="M2518.42,495.487 C2518.42,504.396 2508.28,523.958 2487.98,554.173 C2479.92,566.182 2468.34,574.975 2453.23,580.553 C2442.07,584.737 2429.17,586.829 2414.53,586.829 C2409.81,586.829 2405.62,585.86 2401.98,583.923 C2397.95,581.832 2395.94,579.546 2395.94,577.067 C2395.94,570.637 2399.39,567.421 2406.28,567.421 C2407.29,567.421 2407.79,568.041 2407.79,569.281 C2407.79,570.365 2407.29,571.566 2406.28,572.883 C2405.04,574.51 2404.42,575.711 2404.42,576.486 C2404.42,578.81 2407.91,579.972 2414.88,579.972 C2430.53,579.972 2442.89,578.074 2451.95,574.278 C2461.4,570.404 2470.82,560.526 2480.19,544.644 L2482.86,539.647 C2478.37,543.056 2473.92,544.76 2469.5,544.76 C2458.5,544.76 2453,540.305 2453,531.396 C2453,521.789 2459.47,511.679 2472.4,501.065 C2482.55,492.853 2491.58,488.747 2499.48,488.747 C2503.43,488.747 2506.73,489.792 2509.36,491.884 C2510.29,491.187 2511.45,490.838 2512.85,490.838 C2516.56,490.838 2518.42,492.388 2518.42,495.487 M2484.26,537.207 L2506.22,496.649 C2504.52,496.262 2502.62,496.068 2500.53,496.068 C2493.01,496.068 2485.73,500.445 2478.68,509.2 C2470.47,519.426 2466.36,527.6 2466.36,533.72 C2466.36,537.749 2469.03,539.763 2474.38,539.763 C2476.94,539.763 2480.23,538.911 2484.26,537.207"/>
<path class="Note" d="M3398.52,561.187 C3402.86,558.243 3406,555.803 3407.94,553.866 C3411.5,550.07 3413.28,546.583 3413.28,543.407 C3413.28,539.766 3411.27,537.945 3407.24,537.945 C3399.42,537.945 3391.05,544.84 3382.14,558.631 C3379.43,562.814 3373.46,576.45 3364.24,599.537 C3371.6,607.129 3375.28,611.429 3375.28,612.436 C3375.28,613.831 3374.39,614.528 3372.61,614.528 C3371.21,614.528 3367.38,612.165 3361.1,607.439 C3354.29,623.321 3343.94,636.879 3330.08,648.113 C3315.9,659.579 3298.97,665.312 3279.29,665.312 C3271.78,665.312 3262.36,663.569 3251.05,660.083 C3241.99,657.294 3237.46,652.839 3237.46,646.719 C3237.46,637.654 3240.94,633.122 3247.91,633.122 C3252.1,633.122 3254.19,635.059 3254.19,638.932 C3254.19,640.172 3253.22,641.489 3251.28,642.884 C3250.28,643.581 3249.77,644.937 3249.77,646.951 C3249.77,649.353 3252.45,651.832 3257.79,654.388 C3263.6,657.178 3272.13,658.572 3283.36,658.572 C3297.85,658.572 3311.83,652.297 3325.31,639.746 C3337.55,628.357 3346.35,615.109 3351.69,600.002 C3349.6,598.297 3347.35,596.438 3344.95,594.424 C3337.51,590.008 3333.79,585.475 3333.79,580.827 C3333.79,578.89 3335.07,577.922 3337.63,577.922 C3341.04,577.922 3345.65,580.827 3351.46,586.638 C3352.7,587.877 3353.86,589.039 3354.95,590.124 C3357.66,582.686 3362,573.235 3367.96,561.768 C3378.73,541.005 3391.82,530.624 3407.24,530.624 C3412.74,530.624 3417.08,531.67 3420.26,533.762 C3423.43,535.853 3425.02,538.72 3425.02,542.361 C3425.02,548.172 3422.89,553.091 3418.63,557.12 C3414.21,561.304 3409.6,563.395 3404.8,563.395 C3400.62,563.395 3398.52,562.659 3398.52,561.187"/>
<path class="Note" d="M3398.52,739.77 C3402.86,736.826 3406,734.386 3407.94,732.449 C3411.5,728.652 3413.28,725.166 3413.28,721.99 C3413.28,718.348 3411.27,716.528 3407.24,716.528 C3399.42,716.528 3391.05,723.423 3382.14,737.213 C3379.43,741.397 3373.46,755.032 3364.24,778.12 C3371.6,785.712 3375.28,790.012 3375.28,791.019 C3375.28,792.414 3374.39,793.111 3372.61,793.111 C3371.21,793.111 3367.38,790.748 3361.1,786.022 C3354.29,801.904 3343.94,815.462 3330.08,826.696 C3315.9,838.162 3298.97,843.895 3279.29,843.895 C3271.78,843.895 3262.36,842.152 3251.05,838.666 C3241.99,835.876 3237.46,831.422 3237.46,825.301 C3237.46,816.237 3240.94,811.705 3247.91,811.705 C3252.1,811.705 3254.19,813.641 3254.19,817.515 C3254.19,818.755 3253.22,820.072 3251.28,821.466 C3250.28,822.164 3249.77,823.519 3249.77,825.534 C3249.77,827.935 3252.45,830.415 3257.79,832.971 C3263.6,835.76 3272.13,837.155 3283.36,837.155 C3297.85,837.155 3311.83,830.879 3325.31,818.329 C3337.55,806.94 3346.35,793.692 3351.69,778.584 C3349.6,776.88 3347.35,775.021 3344.95,773.006 C3337.51,768.59 3333.79,764.058 3333.79,759.41 C3333.79,757.473 3335.07,756.504 3337.63,756.504 C3341.04,756.504 3345.65,759.41 3351.46,765.22 C3352.7,766.46 3353.86,767.622 3354.95,768.707 C3357.66,761.269 3362,751.817 3367.96,740.351 C3378.73,719.588 3391.82,709.207 3407.24,709.207 C3412.74,709.207 3417.08,710.252 3420.26,712.344 C3423.43,714.436 3425.02,717.303 3425.02,720.944 C3425.02,726.754 3422.89,731.674 3418.63,735.703 C3414.21,739.886 3409.6,741.978 3404.8,741.978 C3400.62,741.978 3398.52,741.242 3398.52,739.77"/>
<path class="Note" d="M3325.89,553.244 C3321.71,553.244 3319.62,551.346 3319.62,547.549 C3319.62,541.119 3320.59,536.393 3322.52,533.372 C3330.58,521.441 3348.09,499.128 3375.05,466.434 C3387.21,451.637 3402.9,444.238 3422.12,444.238 C3429.55,444.238 3434.7,445.284 3437.57,447.375 C3441.99,450.629 3444.2,454.542 3444.2,459.113 C3444.2,463.916 3440.32,469.262 3432.57,475.15 C3425.21,480.728 3418.24,483.517 3411.66,483.517 C3409.1,483.517 3407.82,483.246 3407.82,482.704 C3407.82,481.929 3409.06,481.115 3411.54,480.263 C3414.87,479.024 3418.44,476.506 3422.23,472.709 C3426.57,468.293 3428.74,464.304 3428.74,460.74 C3428.74,458.338 3427.07,456.053 3423.74,453.883 C3420.8,452.024 3416.03,451.094 3409.45,451.094 C3399.84,451.094 3387.72,460.778 3373.07,480.147 C3363.31,493.085 3355.41,504.474 3349.37,514.313 C3352.31,512.686 3355.84,510.71 3359.94,508.386 C3364.98,505.52 3369.32,504.086 3372.96,504.086 C3382.02,504.086 3386.55,507.34 3386.55,513.848 C3386.55,520.278 3382.84,527.329 3375.4,534.999 C3370.13,540.422 3367.5,544.45 3367.5,547.084 C3367.5,549.796 3370.13,551.152 3375.4,551.152 C3378.03,551.152 3380.74,550.222 3383.53,548.363 C3386.32,546.581 3388.38,545.69 3389.69,545.69 C3390.78,545.69 3391.32,546.387 3391.32,547.782 C3391.32,550.028 3389.15,552.391 3384.81,554.871 C3377.53,559.054 3371.68,561.146 3367.26,561.146 C3359.44,561.146 3355.53,556.962 3355.53,548.595 C3355.53,543.327 3358.55,537.478 3364.59,531.047 C3369.01,526.321 3371.21,521.634 3371.21,516.986 C3371.21,512.957 3369.05,510.943 3364.71,510.943 C3363,510.943 3357.35,512.957 3347.74,516.986 C3344.87,521.789 3342.47,526.205 3340.53,530.234 C3333.17,545.574 3328.29,553.244 3325.89,553.244"/>
<path class="Clef" transform="matrix(2.3811,0,0,2.3811,212.156,2141.66)" d="M25.4,-25.1 C17.8,-25.1 11.7,-20.7 11.6,-20.7 C5.8,-16.4 3.5,-11.3 2.6,-7.8 C2.1,-6 1.9,-4.2 1.9,-2.5 C1.9,-0.1 2.3,2.1 3.2,4 C4.4,6.7 6.7,8.6 9.7,9.6 C10.9,10 12.2,10.2 13.5,10.2 C15.7,10.2 18,9.6 19.9,8.5 C23,6.8 24.9,3.2 24.9,-0.7 C24.9,-4.2 23.1,-7.4 20.1,-9.3 C18,-10.7 16,-11.1 14.3,-11.1 C13.1,-11.1 12,-10.9 11.1,-10.6 C10.1,-10.2 8.4,-9.2 7.6,-8.5 C7.9,-10.4 9.1,-13.3 10.2,-14.9 C11.3,-16.5 13.5,-18.5 15.2,-19.4 C17.7,-20.8 20.9,-21.4 24.4,-21.4 C34.6,-21.4 39.6,-13.2 39.6,3.6 C39.6,12.9 36.1,21.8 33.1,27.7 C29.8,34.3 25.4,40.6 21.5,44.1 C11.1,53.6 1.3,58.1 1.2,58.1 C1.2,58.1 -0.3,59 0.1,60.5 C0.4,61.5 1.3,61.7 1.9,61.7 C2,61.7 2.3,61.6 2.4,61.6 C2.5,61.6 13.9,56.9 23,49.8 C28.1,46.1 32.7,42.1 36.7,37.8 C40.3,33.9 43.4,29.7 45.9,25.5 C50.3,18 52.8,10.2 52.8,3.5 C52.8,-4.8 50.6,-11.7 46.5,-16.6 C41.8,-22.2 34.7,-25.1 25.4,-25.1 M56.8,-12.4 C56.8,-9.6 59,-7.4 61.6,-7.4 C64.2,-7.4 66.4,-9.6 66.4,-12.4 C66.4,-15.2 64.2,-17.5 61.6,-17.5 C59,-17.5 56.8,-15.2 56.8,-12.4 M56.8,12.3 C56.8,15.1 59,17.4 61.6,17.4 C64.2,17.4 66.4,15.1 66.4,12.3 C66.4,9.5 64.2,7.2 61.6,7.2 C59,7.2 56.8,9.5 56.8,12.3"/>
<path class="Clef" transform="matrix(2.3811,0,0,2.3811,212.156,1570.39)" d="M63.37,-5.89004 C62.14,-11.32 59.5,-15.14 58.72,-16.1801 C55.5301,-20.45 51.52,-23.3 46.8301,-24.65 C43.72,-25.54 40.72,-25.65 38.3,-25.47 C37.2601,-31.4801 36.2601,-37.3601 35.35,-42.8101 C40.79,-48.97 44.42,-54.77 46.69,-59.07 C50.1601,-65.65 51.3101,-70.2301 51.3601,-70.4301 C53.0801,-75.64 53.44,-83.34 52.34,-91.55 C51.3301,-99.1 49.24,-105.81 46.89,-109.06 C45.8601,-110.49 44.8101,-111.22 43.77,-111.22 C42.55,-111.22 40.04,-109.98 37.15,-107.21 C34.85,-105.01 31.5801,-101.12 29.02,-95.1101 C26.02,-88.05 25.8101,-78.5601 26.1601,-71.84 C26.54,-64.57 27.65,-58.8801 27.6601,-58.8301 C27.6801,-58.74 27.94,-57.24 28.39,-54.67 C28.1601,-54.44 27.92,-54.22 27.67,-53.9801 C26.6301,-52.9801 25.44,-51.84 24.0601,-50.4601 C23.2,-49.6 22.25,-48.69 21.25,-47.72 C12.79,-39.57 0,-27.25 0,-8.1 C0,-3.4 0.9,1.01992 2.68008,5.02998 C4.27002,8.62998 6.57002,11.91 9.5,14.78 C17.2301,22.33 27.82,25.5399 34.8801,25.38 C37.8301,25.31 40.4601,25.0699 42.85,24.6199 C44.6801,34.2199 45.82,41.25 45.8601,46.5899 C45.9,53.1 44.25,57.0699 40.35,59.8399 C37.92,61.5699 35.1101,62.5199 32.0101,62.6699 C29.42,62.7899 27.1601,62.3199 25.7301,61.91 L25.72,61.91 C25.72,61.91 25.4301,61.83 25.42,61.63 C25.4101,61.45 25.7601,61.4 25.77,61.4 L25.79,61.4 C27.7101,60.96 31.2801,59.73 33.64,56.43 C35.44,53.91 36.3101,49.2899 34.47,45.35 C33.3601,42.96 30.85,40.01 25.2301,39.56 C22.74,39.36 20.47,39.8699 18.47,41.0699 C16.6601,42.15 15.1601,43.7899 14.1101,45.7899 C11.65,50.4899 12.1101,56.2199 15.24,60.06 C18.2,63.68 22.82,65.9899 28.25,66.5699 C29.1,66.66 29.95,66.7 30.8,66.7 C31.5101,66.7 32.22,66.6699 32.92,66.61 C31.72,66.9399 30.64,67.4899 29.77,68.25 C28.2801,69.5399 27.44,71.38 27.44,73.41 C27.44,75.28 28.0601,76.65 29.55,78.0399 C28.4101,78.5 27.55,78.98 26.79,79.56 C25.25,80.73 24.34,82.46 24.34,84.1899 C24.34,87.45 27.3,89.63 31.72,89.63 C37.1301,89.63 40.9101,86.63 40.9101,82.35 C40.9101,80.1199 39.9101,78.18 38.0801,76.83 C41.0101,75.6199 42.37,73.9399 42.37,71.56 C42.39,70.05 41.69,68.61 40.49,67.6899 C39.2801,66.7399 37.62,66.2399 35.69,66.2399 L35.5101,66.2399 C38.2801,65.7 40.92,64.7 43.2101,63.28 C46.87,60.71 48.99,56.73 49.67,51.1 C50.2301,46.46 49.84,40.55 48.44,32.48 C48.0801,30.3899 47.54,27.36 46.8801,23.6 C52.6301,21.68 56.79,18.11 60.5601,12.26 C63.85,6.51992 64.8,0.419922 63.37,-5.89004 M32.39,87.5399 C30.19,87.5399 28.7301,86.1199 28.7301,84.01 C28.7301,82.11 29.65,80.5 31.32,79.4699 C31.6801,79.66 31.77,79.71 32.1101,79.88 C33.3,80.48 33.3,80.48 33.55,80.63 L33.5601,80.6399 C35.47,81.73 36.25,82.76 36.25,84.18 C36.24,86.0899 34.59,87.5399 32.39,87.5399 M38.3101,71.63 C38.3101,73.2699 37.7301,74.3399 36.1801,75.53 C34.74,74.78 34.35,74.56 33.9801,74.3399 L33.8801,74.28 C32.3301,73.3399 31.85,72.66 31.85,71.4 C31.85,69.6 33.2301,68.3399 35.19,68.3399 C37.17,68.35 38.3101,69.55 38.3101,71.63 M33.15,-83.8101 C34.9301,-89.55 37.67,-92.8 39.6601,-94.5301 C41.4101,-96.05 43.0601,-96.7601 43.9801,-96.7601 C44.12,-96.7601 44.24,-96.74 44.34,-96.7101 C44.8,-96.57 45.3301,-96 45.8,-95.1301 C48.1101,-90.84 47.37,-84.1301 46.0301,-79.69 C44.4,-74.29 41.4801,-68.6801 32.69,-59.0601 C32.52,-60.17 32.3601,-61.22 32.2101,-62.2 C30.95,-70.49 31.27,-77.7601 33.15,-83.8101 M29.15,20.31 C24.5101,19.0899 20.0801,16.5899 16.32,13.0899 C15.0101,11.86 13.14,9.68994 11.67,6.3 C10.3101,3.13994 9.65,-0.290039 9.7,-3.88008 C9.77002,-8.57002 11.0801,-13.39 13.59,-18.1801 C16.5101,-23.7601 21.07,-29.29 27.1301,-34.62 C28.5801,-35.9 29.95,-37.1801 31.24,-38.4601 C32,-34.2 32.8301,-29.5101 33.7101,-24.6301 C29.8601,-23.3601 25.1101,-20.2101 22,-14.5601 C18.47,-7.99004 18.6101,-2.47002 19.34,1.00996 C20.2801,5.46992 22.8101,9.22998 26.27,11.3199 C27.2,11.88 31.3301,14.01 33.17,13.43 C33.54,13.31 33.8101,13.0899 33.95,12.76 C34.4601,11.5899 33.44,10.95 31.8801,9.98994 C31.2801,9.61992 30.6101,9.2 29.8801,8.66992 C26.5601,6.17998 25.1101,1.72998 26.1801,-2.65 C26.7601,-5.05 28.04,-7.21006 29.8801,-8.91006 C31.55,-10.4601 33.59,-11.5601 35.97,-12.2 C38.0101,-0.960059 40.07,10.1899 41.7101,18.55 C41.84,19.2399 41.9801,19.91 42.1101,20.58 C37.7101,21.51 33.37,21.4199 29.15,20.31 M54.9,10.1 C53.7301,13.28 51.27,17.35 46.14,19.41 C46.07,18.9899 45.99,18.56 45.9101,18.13 C44.3601,9.36992 42.4301,-1.61006 40.47,-12.87 C50.82,-13.35 55.09,-5.91006 55.9801,-1.08008 C56.45,1.45 56.45,5.88994 54.9,10.1"/>
<path class="FiguredBass" d="M652.964,2455.43 C648.387,2455.43 645.341,2457.27 643.826,2460.95 C642.311,2464.63 641.553,2469.84 641.553,2476.58 L641.553,2487.53 C644.769,2486.23 647.552,2485.55 649.903,2485.49 C657.943,2485.49 664.267,2487.27 668.875,2490.83 C673.482,2494.38 675.786,2499.67 675.786,2506.69 C675.786,2513.71 673.452,2519.01 668.782,2522.6 C664.112,2526.19 657.819,2527.98 649.903,2527.98 C641.8,2527.98 635.461,2524.22 630.884,2516.71 C626.307,2509.19 624.019,2500.27 624.019,2489.94 C624.019,2479.68 626.678,2470.77 631.997,2463.23 C637.316,2455.68 644.305,2451.91 652.964,2451.91 C658.654,2451.91 663.571,2453.34 667.715,2456.22 C671.859,2459.1 673.931,2462.88 673.931,2467.59 C673.931,2470.31 672.941,2472.66 670.962,2474.64 C668.983,2476.62 666.617,2477.6 663.865,2477.6 C661.113,2477.6 658.747,2476.62 656.768,2474.64 C654.789,2472.66 653.799,2470.31 653.799,2467.59 C653.799,2464.93 654.789,2462.58 656.768,2460.53 C657.448,2459.73 658.407,2459.05 659.644,2458.49 C659.334,2457.69 658.716,2457.07 657.788,2456.64 C656.428,2455.83 654.82,2455.43 652.964,2455.43 M657.51,2493.38 C656.397,2490.47 653.954,2489.02 650.181,2489.02 C646.408,2489.02 644.073,2490.47 643.176,2493.38 C642.28,2496.28 641.831,2500.71 641.831,2506.64 C641.831,2513.63 642.28,2518.33 643.176,2520.74 C644.073,2523.16 646.408,2524.36 650.181,2524.36 C653.954,2524.36 656.397,2522.91 657.51,2520 C658.623,2517.1 659.18,2512.66 659.18,2506.69 C659.18,2500.72 658.623,2496.28 657.51,2493.38"/>
<path class="FiguredBass" d="M641.458,2608.31 L641.458,2618.33 L641.458,2620 C641.458,2623.77 641.613,2627.11 641.922,2630.02 C644.891,2627.48 647.21,2625.41 648.88,2623.8 C650.55,2622.2 652.174,2620 653.751,2617.22 C655.328,2614.43 656.116,2611.67 656.116,2608.91 C656.116,2606.16 655.529,2603.77 654.354,2601.72 C653.179,2599.68 651.57,2598.66 649.529,2598.66 C647.179,2598.66 645.277,2599.61 643.824,2601.49 C642.37,2603.38 641.582,2605.65 641.458,2608.31 M635.057,2635.49 L633.294,2553.3 C634.593,2552.49 635.954,2552.07 637.376,2552.04 C638.799,2552.01 640.159,2552.43 641.458,2553.3 L640.438,2597.46 C644.52,2594.05 649.127,2592.35 654.261,2592.35 C658.096,2592.35 661.312,2593.9 663.909,2596.99 C666.507,2600.09 667.806,2603.7 667.806,2607.85 C667.806,2610.69 667.002,2613.4 665.394,2615.96 C663.786,2618.53 662.085,2620.59 660.291,2622.13 C658.498,2623.68 655.761,2625.81 652.081,2628.54 C648.401,2631.26 646.19,2632.93 645.447,2633.55 C644.953,2633.98 644.288,2634.75 643.453,2635.86 C642.618,2636.98 641.829,2637.83 641.087,2638.42 C640.345,2639 639.51,2639.3 638.582,2639.3 C637.593,2639.3 636.758,2638.94 636.077,2638.23 C635.397,2637.52 635.057,2636.61 635.057,2635.49"/>
<path class="FiguredBass" d="M1532.25,2455.43 C1527.67,2455.43 1524.63,2457.27 1523.11,2460.95 C1521.6,2464.63 1520.84,2469.84 1520.84,2476.58 L1520.84,2487.53 C1524.06,2486.23 1526.84,2485.55 1529.19,2485.49 C1537.23,2485.49 1543.55,2487.27 1548.16,2490.83 C1552.77,2494.38 1555.07,2499.67 1555.07,2506.69 C1555.07,2513.71 1552.74,2519.01 1548.07,2522.6 C1543.4,2526.19 1537.11,2527.98 1529.19,2527.98 C1521.09,2527.98 1514.75,2524.22 1510.17,2516.71 C1505.59,2509.19 1503.31,2500.27 1503.31,2489.94 C1503.31,2479.68 1505.96,2470.77 1511.28,2463.23 C1516.6,2455.68 1523.59,2451.91 1532.25,2451.91 C1537.94,2451.91 1542.86,2453.34 1547,2456.22 C1551.15,2459.1 1553.22,2462.88 1553.22,2467.59 C1553.22,2470.31 1552.23,2472.66 1550.25,2474.64 C1548.27,2476.62 1545.9,2477.6 1543.15,2477.6 C1540.4,2477.6 1538.03,2476.62 1536.05,2474.64 C1534.08,2472.66 1533.09,2470.31 1533.09,2467.59 C1533.09,2464.93 1534.08,2462.58 1536.05,2460.53 C1536.73,2459.73 1537.69,2459.05 1538.93,2458.49 C1538.62,2457.69 1538,2457.07 1537.07,2456.64 C1535.71,2455.83 1534.11,2455.43 1532.25,2455.43 M1536.8,2493.38 C1535.68,2490.47 1533.24,2489.02 1529.47,2489.02 C1525.69,2489.02 1523.36,2490.47 1522.46,2493.38 C1521.57,2496.28 1521.12,2500.71 1521.12,2506.64 C1521.12,2513.63 1521.57,2518.33 1522.46,2520.74 C1523.36,2523.16 1525.69,2524.36 1529.47,2524.36 C1533.24,2524.36 1535.68,2522.91 1536.8,2520 C1537.91,2517.1 1538.47,2512.66 1538.47,2506.69 C1538.47,2500.72 1537.91,2496.28 1536.8,2493.38"/>
<path class="FiguredBass" d="M1523.44,2624.08 L1523.44,2643.47 C1523.44,2645.39 1522.46,2646.35 1520.51,2646.35 C1518.57,2646.35 1517.59,2645.39 1517.59,2643.47 L1517.59,2626.59 L1514.62,2627.79 C1514.31,2627.92 1513.91,2627.98 1513.42,2627.98 C1512.61,2627.98 1511.9,2627.67 1511.28,2627.05 C1510.67,2626.43 1510.36,2625.72 1510.36,2624.92 L1510.36,2615.45 C1510.36,2614.09 1511.01,2613.14 1512.3,2612.58 L1517.59,2610.35 L1517.59,2590.87 L1514.62,2592.08 C1514.44,2592.14 1514.19,2592.17 1513.88,2592.17 C1513.76,2592.17 1513.6,2592.17 1513.42,2592.17 C1512.49,2592.04 1511.75,2591.7 1511.19,2591.15 C1510.63,2590.59 1510.36,2589.94 1510.36,2589.2 L1510.36,2579.74 C1510.36,2578.44 1511.01,2577.51 1512.3,2576.95 L1517.59,2574.73 L1517.59,2554.97 C1517.59,2553.05 1518.57,2552.09 1520.51,2552.09 C1522.46,2552.09 1523.44,2553.05 1523.44,2554.97 L1523.44,2572.31 L1535.4,2567.31 L1535.4,2547.92 C1535.4,2546 1536.36,2545.04 1538.28,2545.04 C1540.2,2545.04 1541.16,2546 1541.16,2547.92 L1541.16,2564.99 L1544.4,2563.59 C1544.71,2563.47 1545.05,2563.41 1545.42,2563.41 C1546.23,2563.41 1546.96,2563.72 1547.6,2564.34 C1548.25,2564.95 1548.58,2565.67 1548.58,2566.47 L1548.58,2575.93 C1548.58,2577.29 1547.9,2578.25 1546.54,2578.81 L1541.16,2581.04 L1541.16,2600.61 L1544.4,2599.31 C1544.59,2599.25 1544.81,2599.22 1545.05,2599.22 C1545.18,2599.22 1545.3,2599.22 1545.42,2599.22 C1546.48,2599.4 1547.26,2599.74 1547.79,2600.24 C1548.32,2600.73 1548.58,2601.38 1548.58,2602.19 L1548.58,2611.65 C1548.58,2612.95 1547.9,2613.88 1546.54,2614.43 L1541.16,2616.66 L1541.16,2636.42 C1541.16,2638.34 1540.2,2639.3 1538.28,2639.3 C1536.36,2639.3 1535.4,2638.34 1535.4,2636.42 L1535.4,2619.07 L1523.44,2624.08 M1523.44,2607.94 L1535.4,2603.02 L1535.4,2583.45 L1523.44,2588.46 L1523.44,2607.94 "/>
<path class="FiguredBass" d="M2472.73,2455.43 C2468.16,2455.43 2465.11,2457.27 2463.59,2460.95 C2462.08,2464.63 2461.32,2469.84 2461.32,2476.58 L2461.32,2487.53 C2464.54,2486.23 2467.32,2485.55 2469.67,2485.49 C2477.71,2485.49 2484.04,2487.27 2488.64,2490.83 C2493.25,2494.38 2495.55,2499.67 2495.55,2506.69 C2495.55,2513.71 2493.22,2519.01 2488.55,2522.6 C2483.88,2526.19 2477.59,2527.98 2469.67,2527.98 C2461.57,2527.98 2455.23,2524.22 2450.65,2516.71 C2446.08,2509.19 2443.79,2500.27 2443.79,2489.94 C2443.79,2479.68 2446.45,2470.77 2451.77,2463.23 C2457.08,2455.68 2464.07,2451.91 2472.73,2451.91 C2478.42,2451.91 2483.34,2453.34 2487.48,2456.22 C2491.63,2459.1 2493.7,2462.88 2493.7,2467.59 C2493.7,2470.31 2492.71,2472.66 2490.73,2474.64 C2488.75,2476.62 2486.39,2477.6 2483.63,2477.6 C2480.88,2477.6 2478.52,2476.62 2476.54,2474.64 C2474.56,2472.66 2473.57,2470.31 2473.57,2467.59 C2473.57,2464.93 2474.56,2462.58 2476.54,2460.53 C2477.22,2459.73 2478.18,2459.05 2479.41,2458.49 C2479.1,2457.69 2478.48,2457.07 2477.56,2456.64 C2476.2,2455.83 2474.59,2455.43 2472.73,2455.43 M2477.28,2493.38 C2476.16,2490.47 2473.72,2489.02 2469.95,2489.02 C2466.18,2489.02 2463.84,2490.47 2462.94,2493.38 C2462.05,2496.28 2461.6,2500.71 2461.6,2506.64 C2461.6,2513.63 2462.05,2518.33 2462.94,2520.74 C2463.84,2523.16 2466.18,2524.36 2469.95,2524.36 C2473.72,2524.36 2476.16,2522.91 2477.28,2520 C2478.39,2517.1 2478.95,2512.66 2478.95,2506.69 C2478.95,2500.72 2478.39,2496.28 2477.28,2493.38"/>
<path class="FiguredBass" d="M3352.02,2455.43 C3347.44,2455.43 3344.4,2457.27 3342.88,2460.95 C3341.37,2464.63 3340.61,2469.84 3340.61,2476.58 L3340.61,2487.53 C3343.82,2486.23 3346.61,2485.55 3348.96,2485.49 C3357,2485.49 3363.32,2487.27 3367.93,2490.83 C3372.54,2494.38 3374.84,2499.67 3374.84,2506.69 C3374.84,2513.71 3372.51,2519.01 3367.84,2522.6 C3363.17,2526.19 3356.87,2527.98 3348.96,2527.98 C3340.86,2527.98 3334.52,2524.22 3329.94,2516.71 C3325.36,2509.19 3323.07,2500.27 3323.07,2489.94 C3323.07,2479.68 3325.73,2470.77 3331.05,2463.23 C3336.37,2455.68 3343.36,2451.91 3352.02,2451.91 C3357.71,2451.91 3362.63,2453.34 3366.77,2456.22 C3370.91,2459.1 3372.99,2462.88 3372.99,2467.59 C3372.99,2470.31 3372,2472.66 3370.02,2474.64 C3368.04,2476.62 3365.67,2477.6 3362.92,2477.6 C3360.17,2477.6 3357.8,2476.62 3355.82,2474.64 C3353.84,2472.66 3352.85,2470.31 3352.85,2467.59 C3352.85,2464.93 3353.84,2462.58 3355.82,2460.53 C3356.5,2459.73 3357.46,2459.05 3358.7,2458.49 C3358.39,2457.69 3357.77,2457.07 3356.84,2456.64 C3355.48,2455.83 3353.87,2455.43 3352.02,2455.43 M3356.56,2493.38 C3355.45,2490.47 3353.01,2489.02 3349.24,2489.02 C3345.46,2489.02 3343.13,2490.47 3342.23,2493.38 C3341.33,2496.28 3340.89,2500.71 3340.89,2506.64 C3340.89,2513.63 3341.33,2518.33 3342.23,2520.74 C3343.13,2523.16 3345.46,2524.36 3349.24,2524.36 C3353.01,2524.36 3355.45,2522.91 3356.56,2520 C3357.68,2517.1 3358.23,2512.66 3358.23,2506.69 C3358.23,2500.72 3357.68,2496.28 3356.56,2493.38"/>
<path class="FiguredBass" d="M664.839,1797.3 C664.839,1798.29 665.396,1799.25 666.509,1800.18 C667.622,1801.1 668.844,1801.98 670.174,1802.82 C671.503,1803.65 672.725,1805.23 673.838,1807.55 C674.951,1809.87 675.508,1812.79 675.508,1816.32 C675.508,1823.12 672.941,1828.38 667.808,1832.09 C662.674,1835.8 656.18,1837.66 648.325,1837.66 C642.017,1837.66 636.528,1836.08 631.858,1832.92 C627.188,1829.77 624.854,1825.63 624.854,1820.49 C624.854,1817.77 625.843,1815.41 627.822,1813.4 C629.802,1811.39 632.167,1810.38 634.92,1810.38 C637.672,1810.38 640.007,1811.37 641.924,1813.35 C643.841,1815.33 644.8,1817.71 644.8,1820.49 C644.8,1821.73 643.779,1823.08 641.738,1824.53 C639.697,1825.98 638.677,1827.33 638.677,1828.56 C638.677,1830.48 639.62,1831.89 641.507,1832.79 C643.393,1833.68 645.666,1834.13 648.325,1834.13 C651.789,1834.13 654.247,1832.41 655.701,1828.98 C657.154,1825.55 657.881,1821.33 657.881,1816.32 L657.881,1813.91 C657.881,1810.57 657.773,1808.03 657.556,1806.3 C657.34,1804.57 656.66,1803.02 655.515,1801.66 C654.371,1800.3 652.624,1799.62 650.274,1799.62 L638.12,1799.62 C636.698,1799.62 635.987,1798.85 635.987,1797.3 C635.987,1795.88 636.698,1795.17 638.12,1795.17 L650.274,1795.17 C652.809,1795.17 654.789,1794.21 656.211,1792.29 C656.706,1791.61 657.108,1790.5 657.417,1788.95 C657.726,1786.91 657.881,1783.97 657.881,1780.14 L657.881,1778.93 C657.881,1769.72 654.479,1765.11 647.676,1765.11 C641.677,1765.11 638.677,1766.78 638.677,1770.12 C638.677,1771.23 639.589,1772.42 641.414,1773.69 C643.238,1774.96 644.151,1776.15 644.151,1777.26 C644.151,1779.67 643.3,1781.74 641.599,1783.48 C639.898,1785.21 637.827,1786.07 635.383,1786.07 C632.94,1786.07 630.884,1785.21 629.214,1783.48 C627.544,1781.74 626.709,1779.67 626.709,1777.26 C626.709,1772.5 628.781,1768.69 632.925,1765.85 C637.069,1763 641.986,1761.58 647.676,1761.58 C655.16,1761.58 661.314,1763.02 666.138,1765.9 C670.962,1768.77 673.374,1773.12 673.374,1778.93 C673.374,1783.07 672.941,1786.29 672.075,1788.58 C671.209,1790.87 670.22,1792.26 669.107,1792.75 C667.993,1793.25 667.004,1793.82 666.138,1794.47 C665.272,1795.12 664.839,1796.06 664.839,1797.3"/>
<path class="FiguredBass" d="M652.964,1870.86 C648.387,1870.86 645.341,1872.7 643.826,1876.38 C642.311,1880.06 641.553,1885.27 641.553,1892.01 L641.553,1902.96 C644.769,1901.66 647.552,1900.98 649.903,1900.92 C657.943,1900.92 664.267,1902.69 668.875,1906.25 C673.482,1909.81 675.786,1915.09 675.786,1922.11 C675.786,1929.13 673.452,1934.44 668.782,1938.03 C664.112,1941.61 657.819,1943.41 649.903,1943.41 C641.8,1943.41 635.461,1939.65 630.884,1932.13 C626.307,1924.62 624.019,1915.7 624.019,1905.37 C624.019,1895.1 626.678,1886.2 631.997,1878.65 C637.316,1871.1 644.305,1867.33 652.964,1867.33 C658.654,1867.33 663.571,1868.77 667.715,1871.65 C671.859,1874.52 673.931,1878.31 673.931,1883.01 C673.931,1885.73 672.941,1888.08 670.962,1890.06 C668.983,1892.04 666.617,1893.03 663.865,1893.03 C661.113,1893.03 658.747,1892.04 656.768,1890.06 C654.789,1888.08 653.799,1885.73 653.799,1883.01 C653.799,1880.35 654.789,1878 656.768,1875.96 C657.448,1875.16 658.407,1874.48 659.644,1873.92 C659.334,1873.11 658.716,1872.5 657.788,1872.06 C656.428,1871.26 654.82,1870.86 652.964,1870.86 M657.51,1908.8 C656.397,1905.89 653.954,1904.44 650.181,1904.44 C646.408,1904.44 644.073,1905.89 643.176,1908.8 C642.28,1911.71 641.831,1916.13 641.831,1922.07 C641.831,1929.06 642.28,1933.76 643.176,1936.17 C644.073,1938.58 646.408,1939.79 650.181,1939.79 C653.954,1939.79 656.397,1938.33 657.51,1935.43 C658.623,1932.52 659.18,1928.08 659.18,1922.11 C659.18,1916.15 658.623,1911.71 657.51,1908.8"/>
<path class="FiguredBass" d="M1544.13,1797.3 C1544.13,1798.29 1544.68,1799.25 1545.8,1800.18 C1546.91,1801.1 1548.13,1801.98 1549.46,1802.82 C1550.79,1803.65 1552.01,1805.23 1553.12,1807.55 C1554.24,1809.87 1554.79,1812.79 1554.79,1816.32 C1554.79,1823.12 1552.23,1828.38 1547.09,1832.09 C1541.96,1835.8 1535.47,1837.66 1527.61,1837.66 C1521.3,1837.66 1515.81,1836.08 1511.14,1832.92 C1506.48,1829.77 1504.14,1825.63 1504.14,1820.49 C1504.14,1817.77 1505.13,1815.41 1507.11,1813.4 C1509.09,1811.39 1511.45,1810.38 1514.21,1810.38 C1516.96,1810.38 1519.29,1811.37 1521.21,1813.35 C1523.13,1815.33 1524.09,1817.71 1524.09,1820.49 C1524.09,1821.73 1523.07,1823.08 1521.03,1824.53 C1518.98,1825.98 1517.96,1827.33 1517.96,1828.56 C1517.96,1830.48 1518.91,1831.89 1520.79,1832.79 C1522.68,1833.68 1524.95,1834.13 1527.61,1834.13 C1531.08,1834.13 1533.53,1832.41 1534.99,1828.98 C1536.44,1825.55 1537.17,1821.33 1537.17,1816.32 L1537.17,1813.91 C1537.17,1810.57 1537.06,1808.03 1536.84,1806.3 C1536.63,1804.57 1535.95,1803.02 1534.8,1801.66 C1533.66,1800.3 1531.91,1799.62 1529.56,1799.62 L1517.41,1799.62 C1515.98,1799.62 1515.27,1798.85 1515.27,1797.3 C1515.27,1795.88 1515.98,1795.17 1517.41,1795.17 L1529.56,1795.17 C1532.1,1795.17 1534.08,1794.21 1535.5,1792.29 C1535.99,1791.61 1536.39,1790.5 1536.7,1788.95 C1537.01,1786.91 1537.17,1783.97 1537.17,1780.14 L1537.17,1778.93 C1537.17,1769.72 1533.77,1765.11 1526.96,1765.11 C1520.96,1765.11 1517.96,1766.78 1517.96,1770.12 C1517.96,1771.23 1518.88,1772.42 1520.7,1773.69 C1522.52,1774.96 1523.44,1776.15 1523.44,1777.26 C1523.44,1779.67 1522.59,1781.74 1520.89,1783.48 C1519.19,1785.21 1517.11,1786.07 1514.67,1786.07 C1512.23,1786.07 1510.17,1785.21 1508.5,1783.48 C1506.83,1781.74 1506,1779.67 1506,1777.26 C1506,1772.5 1508.07,1768.69 1512.21,1765.85 C1516.36,1763 1521.27,1761.58 1526.96,1761.58 C1534.45,1761.58 1540.6,1763.02 1545.42,1765.9 C1550.25,1768.77 1552.66,1773.12 1552.66,1778.93 C1552.66,1783.07 1552.23,1786.29 1551.36,1788.58 C1550.5,1790.87 1549.51,1792.26 1548.39,1792.75 C1547.28,1793.25 1546.29,1793.82 1545.42,1794.47 C1544.56,1795.12 1544.13,1796.06 1544.13,1797.3"/>
<path class="FiguredBass" d="M1532.25,1870.86 C1527.67,1870.86 1524.63,1872.7 1523.11,1876.38 C1521.6,1880.06 1520.84,1885.27 1520.84,1892.01 L1520.84,1902.96 C1524.06,1901.66 1526.84,1900.98 1529.19,1900.92 C1537.23,1900.92 1543.55,1902.69 1548.16,1906.25 C1552.77,1909.81 1555.07,1915.09 1555.07,1922.11 C1555.07,1929.13 1552.74,1934.44 1548.07,1938.03 C1543.4,1941.61 1537.11,1943.41 1529.19,1943.41 C1521.09,1943.41 1514.75,1939.65 1510.17,1932.13 C1505.59,1924.62 1503.31,1915.7 1503.31,1905.37 C1503.31,1895.1 1505.96,1886.2 1511.28,1878.65 C1516.6,1871.1 1523.59,1867.33 1532.25,1867.33 C1537.94,1867.33 1542.86,1868.77 1547,1871.65 C1551.15,1874.52 1553.22,1878.31 1553.22,1883.01 C1553.22,1885.73 1552.23,1888.08 1550.25,1890.06 C1548.27,1892.04 1545.9,1893.03 1543.15,1893.03 C1540.4,1893.03 1538.03,1892.04 1536.05,1890.06 C1534.08,1888.08 1533.09,1885.73 1533.09,1883.01 C1533.09,1880.35 1534.08,1878 1536.05,1875.96 C1536.73,1875.16 1537.69,1874.48 1538.93,1873.92 C1538.62,1873.11 1538,1872.5 1537.07,1872.06 C1535.71,1871.26 1534.11,1870.86 1532.25,1870.86 M1536.8,1908.8 C1535.68,1905.89 1533.24,1904.44 1529.47,1904.44 C1525.69,1904.44 1523.36,1905.89 1522.46,1908.8 C1521.57,1911.71 1521.12,1916.13 1521.12,1922.07 C1521.12,1929.06 1521.57,1933.76 1522.46,1936.17 C1523.36,1938.58 1525.69,1939.79 1529.47,1939.79 C1533.24,1939.79 1535.68,1938.33 1536.8,1935.43 C1537.91,1932.52 1538.47,1928.08 1538.47,1922.11 C1538.47,1916.15 1537.91,1911.71 1536.8,1908.8"/>
<path class="FiguredBass" d="M2484.61,1797.3 C2484.61,1798.29 2485.16,1799.25 2486.28,1800.18 C2487.39,1801.1 2488.61,1801.98 2489.94,1802.82 C2491.27,1803.65 2492.49,1805.23 2493.61,1807.55 C2494.72,1809.87 2495.28,1812.79 2495.28,1816.32 C2495.28,1823.12 2492.71,1828.38 2487.58,1832.09 C2482.44,1835.8 2475.95,1837.66 2468.09,1837.66 C2461.79,1837.66 2456.3,1836.08 2451.63,1832.92 C2446.96,1829.77 2444.62,1825.63 2444.62,1820.49 C2444.62,1817.77 2445.61,1815.41 2447.59,1813.4 C2449.57,1811.39 2451.94,1810.38 2454.69,1810.38 C2457.44,1810.38 2459.77,1811.37 2461.69,1813.35 C2463.61,1815.33 2464.57,1817.71 2464.57,1820.49 C2464.57,1821.73 2463.55,1823.08 2461.51,1824.53 C2459.47,1825.98 2458.45,1827.33 2458.45,1828.56 C2458.45,1830.48 2459.39,1831.89 2461.27,1832.79 C2463.16,1833.68 2465.43,1834.13 2468.09,1834.13 C2471.56,1834.13 2474.02,1832.41 2475.47,1828.98 C2476.92,1825.55 2477.65,1821.33 2477.65,1816.32 L2477.65,1813.91 C2477.65,1810.57 2477.54,1808.03 2477.32,1806.3 C2477.11,1804.57 2476.43,1803.02 2475.28,1801.66 C2474.14,1800.3 2472.39,1799.62 2470.04,1799.62 L2457.89,1799.62 C2456.47,1799.62 2455.75,1798.85 2455.75,1797.3 C2455.75,1795.88 2456.47,1795.17 2457.89,1795.17 L2470.04,1795.17 C2472.58,1795.17 2474.56,1794.21 2475.98,1792.29 C2476.47,1791.61 2476.88,1790.5 2477.19,1788.95 C2477.49,1786.91 2477.65,1783.97 2477.65,1780.14 L2477.65,1778.93 C2477.65,1769.72 2474.25,1765.11 2467.44,1765.11 C2461.44,1765.11 2458.45,1766.78 2458.45,1770.12 C2458.45,1771.23 2459.36,1772.42 2461.18,1773.69 C2463.01,1774.96 2463.92,1776.15 2463.92,1777.26 C2463.92,1779.67 2463.07,1781.74 2461.37,1783.48 C2459.67,1785.21 2457.59,1786.07 2455.15,1786.07 C2452.71,1786.07 2450.65,1785.21 2448.98,1783.48 C2447.31,1781.74 2446.48,1779.67 2446.48,1777.26 C2446.48,1772.5 2448.55,1768.69 2452.69,1765.85 C2456.84,1763 2461.75,1761.58 2467.44,1761.58 C2474.93,1761.58 2481.08,1763.02 2485.91,1765.9 C2490.73,1768.77 2493.14,1773.12 2493.14,1778.93 C2493.14,1783.07 2492.71,1786.29 2491.84,1788.58 C2490.98,1790.87 2489.99,1792.26 2488.87,1792.75 C2487.76,1793.25 2486.77,1793.82 2485.91,1794.47 C2485.04,1795.12 2484.61,1796.06 2484.61,1797.3"/>
<path class="FiguredBass" d="M2472.73,1870.86 C2468.16,1870.86 2465.11,1872.7 2463.59,1876.38 C2462.08,1880.06 2461.32,1885.27 2461.32,1892.01 L2461.32,1902.96 C2464.54,1901.66 2467.32,1900.98 2469.67,1900.92 C2477.71,1900.92 2484.04,1902.69 2488.64,1906.25 C2493.25,1909.81 2495.55,1915.09 2495.55,1922.11 C2495.55,1929.13 2493.22,1934.44 2488.55,1938.03 C2483.88,1941.61 2477.59,1943.41 2469.67,1943.41 C2461.57,1943.41 2455.23,1939.65 2450.65,1932.13 C2446.08,1924.62 2443.79,1915.7 2443.79,1905.37 C2443.79,1895.1 2446.45,1886.2 2451.77,1878.65 C2457.08,1871.1 2464.07,1867.33 2472.73,1867.33 C2478.42,1867.33 2483.34,1868.77 2487.48,1871.65 C2491.63,1874.52 2493.7,1878.31 2493.7,1883.01 C2493.7,1885.73 2492.71,1888.08 2490.73,1890.06 C2488.75,1892.04 2486.39,1893.03 2483.63,1893.03 C2480.88,1893.03 2478.52,1892.04 2476.54,1890.06 C2474.56,1888.08 2473.57,1885.73 2473.57,1883.01 C2473.57,1880.35 2474.56,1878 2476.54,1875.96 C2477.22,1875.16 2478.18,1874.48 2479.41,1873.92 C2479.1,1873.11 2478.48,1872.5 2477.56,1872.06 C2476.2,1871.26 2474.59,1870.86 2472.73,1870.86 M2477.28,1908.8 C2476.16,1905.89 2473.72,1904.44 2469.95,1904.44 C2466.18,1904.44 2463.84,1905.89 2462.94,1908.8 C2462.05,1911.71 2461.6,1916.13 2461.6,1922.07 C2461.6,1929.06 2462.05,1933.76 2462.94,1936.17 C2463.84,1938.58 2466.18,1939.79 2469.95,1939.79 C2473.72,1939.79 2476.16,1938.33 2477.28,1935.43 C2478.39,1932.52 2478.95,1928.08 2478.95,1922.11 C2478.95,1916.15 2478.39,1911.71 2477.28,1908.8"/>
<path class="FiguredBass" d="M3363.89,1797.3 C3363.89,1798.29 3364.45,1799.25 3365.56,1800.18 C3366.68,1801.1 3367.9,1801.98 3369.23,1802.82 C3370.56,1803.65 3371.78,1805.23 3372.89,1807.55 C3374.01,1809.87 3374.56,1812.79 3374.56,1816.32 C3374.56,1823.12 3372,1828.38 3366.86,1832.09 C3361.73,1835.8 3355.24,1837.66 3347.38,1837.66 C3341.07,1837.66 3335.58,1836.08 3330.91,1832.92 C3326.24,1829.77 3323.91,1825.63 3323.91,1820.49 C3323.91,1817.77 3324.9,1815.41 3326.88,1813.4 C3328.86,1811.39 3331.22,1810.38 3333.97,1810.38 C3336.73,1810.38 3339.06,1811.37 3340.98,1813.35 C3342.9,1815.33 3343.85,1817.71 3343.85,1820.49 C3343.85,1821.73 3342.83,1823.08 3340.79,1824.53 C3338.75,1825.98 3337.73,1827.33 3337.73,1828.56 C3337.73,1830.48 3338.68,1831.89 3340.56,1832.79 C3342.45,1833.68 3344.72,1834.13 3347.38,1834.13 C3350.84,1834.13 3353.3,1832.41 3354.76,1828.98 C3356.21,1825.55 3356.94,1821.33 3356.94,1816.32 L3356.94,1813.91 C3356.94,1810.57 3356.83,1808.03 3356.61,1806.3 C3356.39,1804.57 3355.71,1803.02 3354.57,1801.66 C3353.43,1800.3 3351.68,1799.62 3349.33,1799.62 L3337.18,1799.62 C3335.75,1799.62 3335.04,1798.85 3335.04,1797.3 C3335.04,1795.88 3335.75,1795.17 3337.18,1795.17 L3349.33,1795.17 C3351.86,1795.17 3353.84,1794.21 3355.27,1792.29 C3355.76,1791.61 3356.16,1790.5 3356.47,1788.95 C3356.78,1786.91 3356.94,1783.97 3356.94,1780.14 L3356.94,1778.93 C3356.94,1769.72 3353.53,1765.11 3346.73,1765.11 C3340.73,1765.11 3337.73,1766.78 3337.73,1770.12 C3337.73,1771.23 3338.64,1772.42 3340.47,1773.69 C3342.29,1774.96 3343.21,1776.15 3343.21,1777.26 C3343.21,1779.67 3342.36,1781.74 3340.65,1783.48 C3338.95,1785.21 3336.88,1786.07 3334.44,1786.07 C3332,1786.07 3329.94,1785.21 3328.27,1783.48 C3326.6,1781.74 3325.76,1779.67 3325.76,1777.26 C3325.76,1772.5 3327.84,1768.69 3331.98,1765.85 C3336.12,1763 3341.04,1761.58 3346.73,1761.58 C3354.21,1761.58 3360.37,1763.02 3365.19,1765.9 C3370.02,1768.77 3372.43,1773.12 3372.43,1778.93 C3372.43,1783.07 3372,1786.29 3371.13,1788.58 C3370.26,1790.87 3369.27,1792.26 3368.16,1792.75 C3367.05,1793.25 3366.06,1793.82 3365.19,1794.47 C3364.33,1795.12 3363.89,1796.06 3363.89,1797.3"/>
<path class="FiguredBass" d="M3352.02,1870.86 C3347.44,1870.86 3344.4,1872.7 3342.88,1876.38 C3341.37,1880.06 3340.61,1885.27 3340.61,1892.01 L3340.61,1902.96 C3343.82,1901.66 3346.61,1900.98 3348.96,1900.92 C3357,1900.92 3363.32,1902.69 3367.93,1906.25 C3372.54,1909.81 3374.84,1915.09 3374.84,1922.11 C3374.84,1929.13 3372.51,1934.44 3367.84,1938.03 C3363.17,1941.61 3356.87,1943.41 3348.96,1943.41 C3340.86,1943.41 3334.52,1939.65 3329.94,1932.13 C3325.36,1924.62 3323.07,1915.7 3323.07,1905.37 C3323.07,1895.1 3325.73,1886.2 3331.05,1878.65 C3336.37,1871.1 3343.36,1867.33 3352.02,1867.33 C3357.71,1867.33 3362.63,1868.77 3366.77,1871.65 C3370.91,1874.52 3372.99,1878.31 3372.99,1883.01 C3372.99,1885.73 3372,1888.08 3370.02,1890.06 C3368.04,1892.04 3365.67,1893.03 3362.92,1893.03 C3360.17,1893.03 3357.8,1892.04 3355.82,1890.06 C3353.84,1888.08 3352.85,1885.73 3352.85,1883.01 C3352.85,1880.35 3353.84,1878 3355.82,1875.96 C3356.5,1875.16 3357.46,1874.48 3358.7,1873.92 C3358.39,1873.11 3357.77,1872.5 3356.84,1872.06 C3355.48,1871.26 3353.87,1870.86 3352.02,1870.86 M3356.56,1908.8 C3355.45,1905.89 3353.01,1904.44 3349.24,1904.44 C3345.46,1904.44 3343.13,1905.89 3342.23,1908.8 C3341.33,1911.71 3340.89,1916.13 3340.89,1922.07 C3340.89,1929.06 3341.33,1933.76 3342.23,1936.17 C3343.13,1938.58 3345.46,1939.79 3349.24,1939.79 C3353.01,1939.79 3355.45,1938.33 3356.56,1935.43 C3357.68,1932.52 3358.23,1928.08 3358.23,1922.11 C3358.23,1916.15 3357.68,1911.71 3356.56,1908.8"/>
<polyline class="FretDiagram" stroke="#fc0107" stroke-width="4.76" stroke-linejoin="bevel" points="549.345,227.452 762.453,227.452"/>
<polyline class="FretDiagram" stroke="#fc0107" stroke-width="4.76" stroke-linejoin="bevel" points="551.726,215.547 551.726,441.751"/>
<polyline class="FretDiagram" stroke="#fc0107" stroke-width="4.76" stroke-linejoin="bevel" points="593.395,215.547 593.395,441.751"/>
<polyline class="FretDiagram" stroke="#fc0107" stroke-width="4.76" stroke-linejoin="bevel" points="635.064,215.547 635.064,441.751"/>
<polyline class="FretDiagram" stroke="#fc0107" stroke-width="4.76" stroke-linejoin="bevel" points="676.734,215.547 676.734,441.751"/>
<polyline class="FretDiagram" stroke="#fc0107" stroke-width="4.76" stroke-linejoin="bevel" points="718.403,215.547 718.403,441.751"/>
<polyline class="FretDiagram" stroke="#fc0107" stroke-width="4.76" stroke-linejoin="bevel" points="760.072,215.547 760.072,441.751"/>
<polyline class="FretDiagram" stroke="#fc0107" stroke-width="4.76" stroke-linejoin="bevel" points="551.726,275.074 760.072,275.074"/>
<polyline class="FretDiagram" stroke="#fc0107" stroke-width="4.76" stroke-linejoin="bevel" points="551.726,322.696 760.072,322.696"/>
<polyline class="FretDiagram" stroke="#fc0107" stroke-width="4.76" stroke-linejoin="bevel" points="551.726,370.318 760.072,370.318"/>
<polyline class="FretDiagram" stroke="#fc0107" stroke-width="4.76" stroke-linejoin="bevel" points="551.726,417.94 760.072,417.94"/>
<path class="FretDiagram" fill="#fc0107" fill-rule="evenodd" d="M649.649,298.885 C649.649,306.94 643.119,313.469 635.064,313.469 C627.01,313.469 620.48,306.94 620.48,298.885 C620.48,290.83 627.01,284.301 635.064,284.301 C643.119,284.301 649.649,290.83 649.649,298.885"/>
<path class="FretDiagram" fill="#fc0107" fill-rule="evenodd" d="M691.318,251.263 C691.318,259.318 684.788,265.847 676.734,265.847 C668.679,265.847 662.15,259.318 662.15,251.263 C662.15,243.208 668.679,236.679 676.734,236.679 C684.788,236.679 691.318,243.208 691.318,251.263"/>
<path class="FretDiagram" fill="#fc0107" fill-rule="evenodd" d="M732.987,251.263 C732.987,259.318 726.458,265.847 718.403,265.847 C710.348,265.847 703.819,259.318 703.819,251.263 C703.819,243.208 710.348,236.679 718.403,236.679 C726.458,236.679 732.987,243.208 732.987,251.263"/>
<polyline class="FretDiagram" fill="none" stroke="#fc0107" stroke-width="6.86" stroke-linecap="round" stroke-linejoin="bevel" points="535.058,163.162 568.394,196.498"/>
<polyline class="FretDiagram" fill="none" stroke="#fc0107" stroke-width="6.86" stroke-linecap="round" stroke-linejoin="bevel" points="535.058,196.498 568.394,163.162"/>
<polyline class="FretDiagram" fill="none" stroke="#fc0107" stroke-width="6.86" stroke-linecap="round" stroke-linejoin="bevel" points="576.727,163.162 610.063,196.498"/>
<polyline class="FretDiagram" fill="none" stroke="#fc0107" stroke-width="6.86" stroke-linecap="round" stroke-linejoin="bevel" points="576.727,196.498 610.063,163.162"/>
<polyline class="FretDiagram" fill="none" stroke="#fc0107" stroke-width="6.86" stroke-linecap="round" stroke-linejoin="bevel" points="743.405,163.162 776.74,196.498"/>
<polyline class="FretDiagram" fill="none" stroke="#fc0107" stroke-width="6.86" stroke-linecap="round" stroke-linejoin="bevel" points="743.405,196.498 776.74,163.162"/>
<path class="FretDiagram" fill="#fc0107" d="M513.322,268.365 L484.917,268.365 L484.917,259.53 L515.507,217.16 L521.682,217.16 L521.682,260.86 L531.657,260.86 L531.657,268.365 L521.682,268.365 L521.682,284.515 L513.322,284.515 L513.322,268.365 M513.322,260.86 L513.322,231.41 L492.232,260.86 L513.322,260.86 "/>
<polyline class="FretDiagram" fill="#fc0107" stroke="#fc0107" stroke-width="4.76" stroke-linejoin="bevel" points="1428.63,227.452 1641.74,227.452"/>
<polyline class="FretDiagram" fill="#fc0107" stroke="#fc0107" stroke-width="4.76" stroke-linejoin="bevel" points="1431.01,215.547 1431.01,441.751"/>
<polyline class="FretDiagram" fill="#fc0107" stroke="#fc0107" stroke-width="4.76" stroke-linejoin="bevel" points="1472.68,215.547 1472.68,441.751"/>
<polyline class="FretDiagram" fill="#fc0107" stroke="#fc0107" stroke-width="4.76" stroke-linejoin="bevel" points="1514.35,215.547 1514.35,441.751"/>
<polyline class="FretDiagram" fill="#fc0107" stroke="#fc0107" stroke-width="4.76" stroke-linejoin="bevel" points="1556.02,215.547 1556.02,441.751"/>
<polyline class="FretDiagram" fill="#fc0107" stroke="#fc0107" stroke-width="4.76" stroke-linejoin="bevel" points="1597.69,215.547 1597.69,441.751"/>
<polyline class="FretDiagram" fill="#fc0107" stroke="#fc0107" stroke-width="4.76" stroke-linejoin="bevel" points="1639.36,215.547 1639.36,441.751"/>
<polyline class="FretDiagram" fill="#fc0107" stroke="#fc0107" stroke-width="4.76" stroke-linejoin="bevel" points="1431.01,275.074 1639.36,275.074"/>
<polyline class="FretDiagram" fill="#fc0107" stroke="#fc0107" stroke-width="4.76" stroke-linejoin="bevel" points="1431.01,322.696 1639.36,322.696"/>
<polyline class="FretDiagram" fill="#fc0107" stroke="#fc0107" stroke-width="4.76" stroke-linejoin="bevel" points="1431.01,370.318 1639.36,370.318"/>
<polyline class="FretDiagram" fill="#fc0107" stroke="#fc0107" stroke-width="4.76" stroke-linejoin="bevel" points="1431.01,417.94 1639.36,417.94"/>
<path class="FretDiagram" fill="#fc0107" fill-rule="evenodd" d="M1528.94,251.263 C1528.94,259.318 1522.41,265.847 1514.35,265.847 C1506.3,265.847 1499.77,259.318 1499.77,251.263 C1499.77,243.208 1506.3,236.679 1514.35,236.679 C1522.41,236.679 1528.94,243.208 1528.94,251.263"/>
<path class="FretDiagram" fill="#fc0107" fill-rule="evenodd" d="M1570.6,251.263 C1570.6,259.318 1564.08,265.847 1556.02,265.847 C1547.97,265.847 1541.44,259.318 1541.44,251.263 C1541.44,243.208 1547.97,236.679 1556.02,236.679 C1564.08,236.679 1570.6,243.208 1570.6,251.263"/>
<path class="FretDiagram" fill="#fc0107" fill-rule="evenodd" d="M1612.27,251.263 C1612.27,259.318 1605.74,265.847 1597.69,265.847 C1589.64,265.847 1583.11,259.318 1583.11,251.263 C1583.11,243.208 1589.64,236.679 1597.69,236.679 C1605.74,236.679 1612.27,243.208 1612.27,251.263"/>
<polyline class="FretDiagram" fill="none" stroke="#fc0107" stroke-width="6.86" stroke-linecap="round" stroke-linejoin="bevel" points="1414.34,163.162 1447.68,196.498"/>
<polyline class="FretDiagram" fill="none" stroke="#fc0107" stroke-width="6.86" stroke-linecap="round" stroke-linejoin="bevel" points="1414.34,196.498 1447.68,163.162"/>
<polyline class="FretDiagram" fill="none" stroke="#fc0107" stroke-width="6.86" stroke-linecap="round" stroke-linejoin="bevel" points="1456.01,163.162 1489.35,196.498"/>
<polyline class="FretDiagram" fill="none" stroke="#fc0107" stroke-width="6.86" stroke-linecap="round" stroke-linejoin="bevel" points="1456.01,196.498 1489.35,163.162"/>
<polyline class="FretDiagram" fill="none" stroke="#fc0107" stroke-width="6.86" stroke-linecap="round" stroke-linejoin="bevel" points="1622.69,163.162 1656.03,196.498"/>
<polyline class="FretDiagram" fill="none" stroke="#fc0107" stroke-width="6.86" stroke-linecap="round" stroke-linejoin="bevel" points="1622.69,196.498 1656.03,163.162"/>
<path class="FretDiagram" fill="#fc0107" d="M1406.76,217.16 L1406.76,225.425 L1378.74,225.425 L1376.08,244.235 C1379.82,241.511 1383.96,240.15 1388.52,240.15 C1394.98,240.15 1400.22,242.224 1404.25,246.372 C1408.27,250.52 1410.28,255.92 1410.28,262.57 C1410.28,269.663 1408.13,275.458 1403.82,279.955 C1399.51,284.451 1393.97,286.7 1387.19,286.7 C1384.6,286.7 1382.21,286.415 1380.02,285.845 C1377.84,285.275 1376.03,284.594 1374.61,283.802 C1373.18,283.01 1371.88,281.965 1370.71,280.667 C1369.54,279.369 1368.65,278.229 1368.05,277.247 C1367.45,276.265 1366.88,275.03 1366.34,273.542 C1365.8,272.054 1365.47,271.025 1365.34,270.455 C1365.22,269.885 1365.06,269.061 1364.87,267.985 L1373.23,267.985 C1375.19,275.521 1379.78,279.29 1387,279.29 C1391.56,279.29 1395.16,277.896 1397.79,275.11 C1400.41,272.323 1401.73,268.523 1401.73,263.71 C1401.73,258.706 1400.4,254.764 1397.74,251.882 C1395.08,249 1391.5,247.56 1387,247.56 C1384.41,247.56 1382.19,248.019 1380.35,248.937 C1378.52,249.855 1376.62,251.486 1374.65,253.83 L1366.96,253.83 L1371.99,217.16 L1406.76,217.16 "/>
<polyline class="FretDiagram" fill="#fc0107" stroke="#fc0107" stroke-width="4.76" stroke-linejoin="bevel" points="2369.11,227.452 2582.22,227.452"/>
<polyline class="FretDiagram" fill="#fc0107" stroke="#fc0107" stroke-width="4.76" stroke-linejoin="bevel" points="2371.49,215.547 2371.49,441.751"/>
<polyline class="FretDiagram" fill="#fc0107" stroke="#fc0107" stroke-width="4.76" stroke-linejoin="bevel" points="2413.16,215.547 2413.16,441.751"/>
<polyline class="FretDiagram" fill="#fc0107" stroke="#fc0107" stroke-width="4.76" stroke-linejoin="bevel" points="2454.83,215.547 2454.83,441.751"/>
<polyline class="FretDiagram" fill="#fc0107" stroke="#fc0107" stroke-width="4.76" stroke-linejoin="bevel" points="2496.5,215.547 2496.5,441.751"/>
<polyline class="FretDiagram" fill="#fc0107" stroke="#fc0107" stroke-width="4.76" stroke-linejoin="bevel" points="2538.17,215.547 2538.17,441.751"/>
<polyline class="FretDiagram" fill="#fc0107" stroke="#fc0107" stroke-width="4.76" stroke-linejoin="bevel" points="2579.84,215.547 2579.84,441.751"/>
<polyline class="FretDiagram" fill="#fc0107" stroke="#fc0107" stroke-width="4.76" stroke-linejoin="bevel" points="2371.49,275.074 2579.84,275.074"/>
<polyline class="FretDiagram" fill="#fc0107" stroke="#fc0107" stroke-width="4.76" stroke-linejoin="bevel" points="2371.49,322.696 2579.84,322.696"/>
<polyline class="FretDiagram" fill="#fc0107" stroke="#fc0107" stroke-width="4.76" stroke-linejoin="bevel" points="2371.49,370.318 2579.84,370.318"/>
<polyline class="FretDiagram" fill="#fc0107" stroke="#fc0107" stroke-width="4.76" stroke-linejoin="bevel" points="2371.49,417.94 2579.84,417.94"/>
<path class="FretDiagram" fill="#fc0107" fill-rule="evenodd" d="M2469.42,298.885 C2469.42,306.94 2462.89,313.469 2454.83,313.469 C2446.78,313.469 2440.25,306.94 2440.25,298.885 C2440.25,290.83 2446.78,284.301 2454.83,284.301 C2462.89,284.301 2469.42,290.83 2469.42,298.885"/>
<path class="FretDiagram" fill="#fc0107" fill-rule="evenodd" d="M2552.76,251.263 C2552.76,259.318 2546.23,265.847 2538.17,265.847 C2530.12,265.847 2523.59,259.318 2523.59,251.263 C2523.59,243.208 2530.12,236.679 2538.17,236.679 C2546.23,236.679 2552.76,243.208 2552.76,251.263"/>
<path class="FretDiagram" fill="#fc0107" fill-rule="evenodd" d="M2594.42,346.507 C2594.42,354.562 2587.9,361.091 2579.84,361.091 C2571.79,361.091 2565.26,354.562 2565.26,346.507 C2565.26,338.453 2571.79,331.923 2579.84,331.923 C2587.9,331.923 2594.42,338.453 2594.42,346.507"/>
<polyline class="FretDiagram" fill="none" stroke="#fc0107" stroke-width="6.86" stroke-linecap="round" stroke-linejoin="bevel" points="2354.83,163.162 2388.16,196.498"/>
<polyline class="FretDiagram" fill="none" stroke="#fc0107" stroke-width="6.86" stroke-linecap="round" stroke-linejoin="bevel" points="2354.83,196.498 2388.16,163.162"/>
<polyline class="FretDiagram" fill="none" stroke="#fc0107" stroke-width="6.86" stroke-linecap="round" stroke-linejoin="bevel" points="2396.5,163.162 2429.83,196.498"/>
<polyline class="FretDiagram" fill="none" stroke="#fc0107" stroke-width="6.86" stroke-linecap="round" stroke-linejoin="bevel" points="2396.5,196.498 2429.83,163.162"/>
<polyline class="FretDiagram" fill="none" stroke="#fc0107" stroke-width="6.86" stroke-linecap="round" stroke-linejoin="bevel" points="2479.83,163.162 2513.17,196.498"/>
<polyline class="FretDiagram" fill="none" stroke="#fc0107" stroke-width="6.86" stroke-linecap="round" stroke-linejoin="bevel" points="2479.83,196.498 2513.17,163.162"/>
<path class="FretDiagram" fill="#fc0107" d="M2333.09,268.365 L2304.69,268.365 L2304.69,259.53 L2335.28,217.16 L2341.45,217.16 L2341.45,260.86 L2351.43,260.86 L2351.43,268.365 L2341.45,268.365 L2341.45,284.515 L2333.09,284.515 L2333.09,268.365 M2333.09,260.86 L2333.09,231.41 L2312,260.86 L2333.09,260.86 "/>
<polyline class="FretDiagram" fill="#fc0107" stroke="#fc0107" stroke-width="4.76" stroke-linejoin="bevel" points="3248.4,227.452 3461.51,227.452"/>
<polyline class="FretDiagram" fill="#fc0107" stroke="#fc0107" stroke-width="4.76" stroke-linejoin="bevel" points="3250.78,215.547 3250.78,441.751"/>
<polyline class="FretDiagram" fill="#fc0107" stroke="#fc0107" stroke-width="4.76" stroke-linejoin="bevel" points="3292.45,215.547 3292.45,441.751"/>
<polyline class="FretDiagram" fill="#fc0107" stroke="#fc0107" stroke-width="4.76" stroke-linejoin="bevel" points="3334.12,215.547 3334.12,441.751"/>
<polyline class="FretDiagram" fill="#fc0107" stroke="#fc0107" stroke-width="4.76" stroke-linejoin="bevel" points="3375.79,215.547 3375.79,441.751"/>
<polyline class="FretDiagram" fill="#fc0107" stroke="#fc0107" stroke-width="4.76" stroke-linejoin="bevel" points="3417.46,215.547 3417.46,441.751"/>
<polyline class="FretDiagram" fill="#fc0107" stroke="#fc0107" stroke-width="4.76" stroke-linejoin="bevel" points="3459.13,215.547 3459.13,441.751"/>
<polyline class="FretDiagram" fill="#fc0107" stroke="#fc0107" stroke-width="4.76" stroke-linejoin="bevel" points="3250.78,275.074 3459.13,275.074"/>
<polyline class="FretDiagram" fill="#fc0107" stroke="#fc0107" stroke-width="4.76" stroke-linejoin="bevel" points="3250.78,322.696 3459.13,322.696"/>
<polyline class="FretDiagram" fill="#fc0107" stroke="#fc0107" stroke-width="4.76" stroke-linejoin="bevel" points="3250.78,370.318 3459.13,370.318"/>
<polyline class="FretDiagram" fill="#fc0107" stroke="#fc0107" stroke-width="4.76" stroke-linejoin="bevel" points="3250.78,417.94 3459.13,417.94"/>
<path class="FretDiagram" fill="#fc0107" fill-rule="evenodd" d="M3348.7,251.263 C3348.7,259.318 3342.17,265.847 3334.12,265.847 C3326.06,265.847 3319.54,259.318 3319.54,251.263 C3319.54,243.208 3326.06,236.679 3334.12,236.679 C3342.17,236.679 3348.7,243.208 3348.7,251.263"/>
<path class="FretDiagram" fill="#fc0107" fill-rule="evenodd" d="M3432.04,251.263 C3432.04,259.318 3425.51,265.847 3417.46,265.847 C3409.4,265.847 3402.87,259.318 3402.87,251.263 C3402.87,243.208 3409.4,236.679 3417.46,236.679 C3425.51,236.679 3432.04,243.208 3432.04,251.263"/>
<path class="FretDiagram" fill="#fc0107" fill-rule="evenodd" d="M3473.71,346.507 C3473.71,354.562 3467.18,361.091 3459.13,361.091 C3451.07,361.091 3444.54,354.562 3444.54,346.507 C3444.54,338.453 3451.07,331.923 3459.13,331.923 C3467.18,331.923 3473.71,338.453 3473.71,346.507"/>
<polyline class="FretDiagram" fill="none" stroke="#fc0107" stroke-width="6.86" stroke-linecap="round" stroke-linejoin="bevel" points="3234.11,163.162 3267.45,196.498"/>
<polyline class="FretDiagram" fill="none" stroke="#fc0107" stroke-width="6.86" stroke-linecap="round" stroke-linejoin="bevel" points="3234.11,196.498 3267.45,163.162"/>
<polyline class="FretDiagram" fill="none" stroke="#fc0107" stroke-width="6.86" stroke-linecap="round" stroke-linejoin="bevel" points="3275.78,163.162 3309.12,196.498"/>
<polyline class="FretDiagram" fill="none" stroke="#fc0107" stroke-width="6.86" stroke-linecap="round" stroke-linejoin="bevel" points="3275.78,196.498 3309.12,163.162"/>
<polyline class="FretDiagram" fill="none" stroke="#fc0107" stroke-width="6.86" stroke-linecap="round" stroke-linejoin="bevel" points="3359.12,163.162 3392.46,196.498"/>
<polyline class="FretDiagram" fill="none" stroke="#fc0107" stroke-width="6.86" stroke-linecap="round" stroke-linejoin="bevel" points="3359.12,196.498 3392.46,163.162"/>
<path class="FretDiagram" fill="#fc0107" d="M3226.53,217.16 L3226.53,225.425 L3198.51,225.425 L3195.85,244.235 C3199.58,241.511 3203.73,240.15 3208.29,240.15 C3214.75,240.15 3219.99,242.224 3224.01,246.372 C3228.04,250.52 3230.05,255.92 3230.05,262.57 C3230.05,269.663 3227.89,275.458 3223.59,279.955 C3219.28,284.451 3213.74,286.7 3206.96,286.7 C3204.37,286.7 3201.97,286.415 3199.79,285.845 C3197.6,285.275 3195.8,284.594 3194.37,283.802 C3192.95,283.01 3191.65,281.965 3190.48,280.667 C3189.31,279.369 3188.42,278.229 3187.82,277.247 C3187.22,276.265 3186.65,275.03 3186.11,273.542 C3185.57,272.054 3185.24,271.025 3185.11,270.455 C3184.99,269.885 3184.83,269.061 3184.64,267.985 L3193,267.985 C3194.96,275.521 3199.55,279.29 3206.77,279.29 C3211.33,279.29 3214.93,277.896 3217.55,275.11 C3220.18,272.323 3221.5,268.523 3221.5,263.71 C3221.5,258.706 3220.17,254.764 3217.51,251.882 C3214.85,249 3211.27,247.56 3206.77,247.56 C3204.18,247.56 3201.96,248.019 3200.12,248.937 C3198.29,249.855 3196.39,251.486 3194.42,253.83 L3186.73,253.83 L3191.76,217.16 L3226.53,217.16 "/>
<path class="Bracket" transform="matrix(8.6315,0,0,9.28435,76.1283,2320.25)" d="M0.92002,-50 C2.69004,-51.88 6.2,-55.8 6.2,-63 C6.2,-72.1 2.25996,-81.32 2.25996,-86.97 C2.25996,-93.06 5.84004,-98.84 5.95,-99 C6.05996,-99.16 6.05,-99.39 5.94004,-99.46 C5.82998,-99.53 5.62002,-99.47 5.49004,-99.32 C5.35996,-99.17 0,-93.75 0,-85.6 C0,-76.75 3.5,-70.58 3.5,-59.07 C3.5,-56.89 2.55996,-53.36 0.1,-50.33 C-0.0799805,-50.17 -0.1,-49.89 0.0599609,-49.7 L0.0700195,-49.69 L0.1,-49.66 C2.55996,-46.63 3.5,-43.1 3.5,-40.92 C3.5,-29.4 0,-23.24 0,-14.39 C0,-6.25 5.35996,-0.8 5.49004,-0.659961 C5.62002,-0.52002 5.8,-0.42998 5.94004,-0.52002 C6.07998,-0.609961 6.07998,-0.77998 5.95,-0.97998 C5.82002,-1.17998 2.25996,-6.92002 2.25996,-13.01 C2.25996,-18.66 6.2,-27.9 6.2,-37 C6.2,-44.3 2.69004,-48.12 0.92002,-50"/>
</svg>
