<?xml version="1.0" encoding="UTF-8" standalone="no"?>
<svg width="4209.44px" height="2976.38px" viewBox="0 0 4209.44 2976.38"
 xmlns="http://www.w3.org/2000/svg" xmlns:xlink="http://www.w3.org/1999/xlink" version="1.2" baseProfile="tiny">
<title>Cordes (32)</title>
<desc>Generated by MuseScore 3.6.2</desc>
<polyline class="StaffLines" fill="none" stroke="#000000" stroke-width="6.55" stroke-linejoin="bevel" points="153.819,558.425 4138.58,558.425"/>
<polyline class="StaffLines" fill="none" stroke="#000000" stroke-width="6.55" stroke-linejoin="bevel" points="153.819,647.717 4138.58,647.717"/>
<polyline class="StaffLines" fill="none" stroke="#000000" stroke-width="6.55" stroke-linejoin="bevel" points="153.819,737.008 4138.58,737.008"/>
<polyline class="StaffLines" fill="none" stroke="#000000" stroke-width="6.55" stroke-linejoin="bevel" points="153.819,826.299 4138.58,826.299"/>
<polyline class="StaffLines" fill="none" stroke="#000000" stroke-width="6.55" stroke-linejoin="bevel" points="153.819,915.591 4138.58,915.591"/>
<polyline class="StaffLines" fill="none" stroke="#000000" stroke-width="6.55" stroke-linejoin="bevel" points="153.819,1004.88 4138.58,1004.88"/>
<polyline class="StaffLines" fill="none" stroke="#000000" stroke-width="6.55" stroke-linejoin="bevel" points="153.819,1391.81 4138.58,1391.81"/>
<polyline class="StaffLines" fill="none" stroke="#000000" stroke-width="6.55" stroke-linejoin="bevel" points="153.819,1451.34 4138.58,1451.34"/>
<polyline class="StaffLines" fill="none" stroke="#000000" stroke-width="6.55" stroke-linejoin="bevel" points="153.819,1510.87 4138.58,1510.87"/>
<polyline class="StaffLines" fill="none" stroke="#000000" stroke-width="6.55" stroke-linejoin="bevel" points="153.819,1570.39 4138.58,1570.39"/>
<polyline class="StaffLines" fill="none" stroke="#000000" stroke-width="6.55" stroke-linejoin="bevel" points="153.819,1629.92 4138.58,1629.92"/>
<polyline class="StaffLines" fill="none" stroke="#000000" stroke-width="6.55" stroke-linejoin="bevel" points="153.819,2099.26 4138.58,2099.26"/>
<polyline class="StaffLines" fill="none" stroke="#000000" stroke-width="6.55" stroke-linejoin="bevel" points="153.819,2158.79 4138.58,2158.79"/>
<polyline class="StaffLines" fill="none" stroke="#000000" stroke-width="6.55" stroke-linejoin="bevel" points="153.819,2218.32 4138.58,2218.32"/>
<polyline class="StaffLines" fill="none" stroke="#000000" stroke-width="6.55" stroke-linejoin="bevel" points="153.819,2277.85 4138.58,2277.85"/>
<polyline class="StaffLines" fill="none" stroke="#000000" stroke-width="6.55" stroke-linejoin="bevel" points="153.819,2337.37 4138.58,2337.37"/>
<polyline class="BarLine" fill="none" stroke="#000000" stroke-width="10.71" stroke-linejoin="bevel" points="159.176,2095.99 159.176,2340.65"/>
<polyline class="BarLine" fill="none" stroke="#000000" stroke-width="10.71" stroke-linejoin="bevel" points="1404.4,2095.99 1404.4,2340.65"/>
<polyline class="BarLine" fill="none" stroke="#000000" stroke-width="10.71" stroke-linejoin="bevel" points="2317.66,2095.99 2317.66,2340.65"/>
<polyline class="BarLine" fill="none" stroke="#000000" stroke-width="10.71" stroke-linejoin="bevel" points="3260.11,2095.99 3260.11,2340.65"/>
<polyline class="BarLine" fill="none" stroke="#000000" stroke-width="10.71" stroke-linejoin="bevel" points="4080.54,2095.99 4080.54,2340.65"/>
<polyline class="BarLine" fill="none" stroke="#000000" stroke-width="32.74" stroke-linejoin="bevel" points="4122.21,2095.99 4122.21,2340.65"/>
<polyline class="BarLine" fill="none" stroke="#000000" stroke-width="10.71" stroke-linejoin="bevel" points="159.176,1388.54 159.176,2099.26"/>
<polyline class="BarLine" fill="none" stroke="#000000" stroke-width="10.71" stroke-linejoin="bevel" points="1404.4,1388.54 1404.4,1633.2"/>
<polyline class="BarLine" fill="none" stroke="#000000" stroke-width="10.71" stroke-linejoin="bevel" points="2317.66,1388.54 2317.66,1633.2"/>
<polyline class="BarLine" fill="none" stroke="#000000" stroke-width="10.71" stroke-linejoin="bevel" points="3260.11,1388.54 3260.11,1633.2"/>
<polyline class="BarLine" fill="none" stroke="#000000" stroke-width="10.71" stroke-linejoin="bevel" points="4080.54,1388.54 4080.54,1633.2"/>
<polyline class="BarLine" fill="none" stroke="#000000" stroke-width="32.74" stroke-linejoin="bevel" points="4122.21,1388.54 4122.21,1633.2"/>
<polyline class="BarLine" fill="none" stroke="#000000" stroke-width="10.71" stroke-linejoin="bevel" points="159.176,555.151 159.176,1391.81"/>
<polyline class="BarLine" fill="none" stroke="#000000" stroke-width="10.71" stroke-linejoin="bevel" points="1404.4,555.151 1404.4,1008.16"/>
<polyline class="BarLine" fill="none" stroke="#000000" stroke-width="10.71" stroke-linejoin="bevel" points="2317.66,555.151 2317.66,1008.16"/>
<polyline class="BarLine" fill="none" stroke="#000000" stroke-width="10.71" stroke-linejoin="bevel" points="3260.11,555.151 3260.11,1008.16"/>
<polyline class="BarLine" fill="none" stroke="#000000" stroke-width="10.71" stroke-linejoin="bevel" points="4080.54,555.151 4080.54,1008.16"/>
<polyline class="BarLine" fill="none" stroke="#000000" stroke-width="32.74" stroke-linejoin="bevel" points="4122.21,555.151 4122.21,1008.16"/>
<path class="Accidental" transform="matrix(2.3811,0,0,2.3811,603.989,2218.32)" d="M20.1,-7.9 C19.5,-11.8 17.1,-15.5 12,-15.5 C7,-15.5 4.1,-12.4 3.6,-11.8 L4,-43.9 C4,-44.7 3.4,-45.3 2.6,-45.3 L1.4,-45.3 C0.6,-45.3 0,-44.7 0,-43.9 L0.5,16.2 C0.5,17 1.1,17.6 1.9,17.6 C2.1,17.6 2.5,17.5 2.7,17.4 C3.1,17.2 9.6,14 15,7.9 C18.8,3.6 20.3,-1.3 20.3,-5.4 C20.3,-6.3 20.2,-7.1 20.1,-7.9 M13.2,-4 C13.2,-2.5 12.8,2.1 10.3,5.9 C8.6,8.5 5.2,11.2 3.3,12.7 L3.6,-6.8 C3.8,-7.7 5.3,-10.6 9.3,-10.6 C12.9,-10.6 13.2,-7.2 13.2,-5.1 L13.2,-4 "/>
<path class="Accidental" transform="matrix(2.3811,0,0,2.3811,1517.25,2218.32)" d="M20.1,-7.9 C19.5,-11.8 17.1,-15.5 12,-15.5 C7,-15.5 4.1,-12.4 3.6,-11.8 L4,-43.9 C4,-44.7 3.4,-45.3 2.6,-45.3 L1.4,-45.3 C0.6,-45.3 0,-44.7 0,-43.9 L0.5,16.2 C0.5,17 1.1,17.6 1.9,17.6 C2.1,17.6 2.5,17.5 2.7,17.4 C3.1,17.2 9.6,14 15,7.9 C18.8,3.6 20.3,-1.3 20.3,-5.4 C20.3,-6.3 20.2,-7.1 20.1,-7.9 M13.2,-4 C13.2,-2.5 12.8,2.1 10.3,5.9 C8.6,8.5 5.2,11.2 3.3,12.7 L3.6,-6.8 C3.8,-7.7 5.3,-10.6 9.3,-10.6 C12.9,-10.6 13.2,-7.2 13.2,-5.1 L13.2,-4 "/>
<path class="Accidental" transform="matrix(2.3811,0,0,2.3811,2459.69,2218.32)" d="M20.1,-7.9 C19.5,-11.8 17.1,-15.5 12,-15.5 C7,-15.5 4.1,-12.4 3.6,-11.8 L4,-43.9 C4,-44.7 3.4,-45.3 2.6,-45.3 L1.4,-45.3 C0.6,-45.3 0,-44.7 0,-43.9 L0.5,16.2 C0.5,17 1.1,17.6 1.9,17.6 C2.1,17.6 2.5,17.5 2.7,17.4 C3.1,17.2 9.6,14 15,7.9 C18.8,3.6 20.3,-1.3 20.3,-5.4 C20.3,-6.3 20.2,-7.1 20.1,-7.9 M13.2,-4 C13.2,-2.5 12.8,2.1 10.3,5.9 C8.6,8.5 5.2,11.2 3.3,12.7 L3.6,-6.8 C3.8,-7.7 5.3,-10.6 9.3,-10.6 C12.9,-10.6 13.2,-7.2 13.2,-5.1 L13.2,-4 "/>
<path class="Accidental" transform="matrix(2.3811,0,0,2.3811,3384.4,2218.32)" d="M20.1,-7.9 C19.5,-11.8 17.1,-15.5 12,-15.5 C7,-15.5 4.1,-12.4 3.6,-11.8 L4,-43.9 C4,-44.7 3.4,-45.3 2.6,-45.3 L1.4,-45.3 C0.6,-45.3 0,-44.7 0,-43.9 L0.5,16.2 C0.5,17 1.1,17.6 1.9,17.6 C2.1,17.6 2.5,17.5 2.7,17.4 C3.1,17.2 9.6,14 15,7.9 C18.8,3.6 20.3,-1.3 20.3,-5.4 C20.3,-6.3 20.2,-7.1 20.1,-7.9 M13.2,-4 C13.2,-2.5 12.8,2.1 10.3,5.9 C8.6,8.5 5.2,11.2 3.3,12.7 L3.6,-6.8 C3.8,-7.7 5.3,-10.6 9.3,-10.6 C12.9,-10.6 13.2,-7.2 13.2,-5.1 L13.2,-4 "/>
<path class="Accidental" transform="matrix(2.3811,0,0,2.3811,574.809,1570.39)" d="M20.1,-7.9 C19.5,-11.8 17.1,-15.5 12,-15.5 C7,-15.5 4.1,-12.4 3.6,-11.8 L4,-43.9 C4,-44.7 3.4,-45.3 2.6,-45.3 L1.4,-45.3 C0.6,-45.3 0,-44.7 0,-43.9 L0.5,16.2 C0.5,17 1.1,17.6 1.9,17.6 C2.1,17.6 2.5,17.5 2.7,17.4 C3.1,17.2 9.6,14 15,7.9 C18.8,3.6 20.3,-1.3 20.3,-5.4 C20.3,-6.3 20.2,-7.1 20.1,-7.9 M13.2,-4 C13.2,-2.5 12.8,2.1 10.3,5.9 C8.6,8.5 5.2,11.2 3.3,12.7 L3.6,-6.8 C3.8,-7.7 5.3,-10.6 9.3,-10.6 C12.9,-10.6 13.2,-7.2 13.2,-5.1 L13.2,-4 "/>
<path class="Accidental" transform="matrix(2.3811,0,0,2.3811,513.384,1540.63)" d="M20.1,-7.9 C19.5,-11.8 17.1,-15.5 12,-15.5 C7,-15.5 4.1,-12.4 3.6,-11.8 L4,-43.9 C4,-44.7 3.4,-45.3 2.6,-45.3 L1.4,-45.3 C0.6,-45.3 0,-44.7 0,-43.9 L0.5,16.2 C0.5,17 1.1,17.6 1.9,17.6 C2.1,17.6 2.5,17.5 2.7,17.4 C3.1,17.2 9.6,14 15,7.9 C18.8,3.6 20.3,-1.3 20.3,-5.4 C20.3,-6.3 20.2,-7.1 20.1,-7.9 M13.2,-4 C13.2,-2.5 12.8,2.1 10.3,5.9 C8.6,8.5 5.2,11.2 3.3,12.7 L3.6,-6.8 C3.8,-7.7 5.3,-10.6 9.3,-10.6 C12.9,-10.6 13.2,-7.2 13.2,-5.1 L13.2,-4 "/>
<path class="Accidental" transform="matrix(2.3811,0,0,2.3811,603.989,1451.34)" d="M20.1,-7.9 C19.5,-11.8 17.1,-15.5 12,-15.5 C7,-15.5 4.1,-12.4 3.6,-11.8 L4,-43.9 C4,-44.7 3.4,-45.3 2.6,-45.3 L1.4,-45.3 C0.6,-45.3 0,-44.7 0,-43.9 L0.5,16.2 C0.5,17 1.1,17.6 1.9,17.6 C2.1,17.6 2.5,17.5 2.7,17.4 C3.1,17.2 9.6,14 15,7.9 C18.8,3.6 20.3,-1.3 20.3,-5.4 C20.3,-6.3 20.2,-7.1 20.1,-7.9 M13.2,-4 C13.2,-2.5 12.8,2.1 10.3,5.9 C8.6,8.5 5.2,11.2 3.3,12.7 L3.6,-6.8 C3.8,-7.7 5.3,-10.6 9.3,-10.6 C12.9,-10.6 13.2,-7.2 13.2,-5.1 L13.2,-4 "/>
<path class="Accidental" transform="matrix(2.3811,0,0,2.3811,1455.83,1570.39)" d="M20.1,-7.9 C19.5,-11.8 17.1,-15.5 12,-15.5 C7,-15.5 4.1,-12.4 3.6,-11.8 L4,-43.9 C4,-44.7 3.4,-45.3 2.6,-45.3 L1.4,-45.3 C0.6,-45.3 0,-44.7 0,-43.9 L0.5,16.2 C0.5,17 1.1,17.6 1.9,17.6 C2.1,17.6 2.5,17.5 2.7,17.4 C3.1,17.2 9.6,14 15,7.9 C18.8,3.6 20.3,-1.3 20.3,-5.4 C20.3,-6.3 20.2,-7.1 20.1,-7.9 M13.2,-4 C13.2,-2.5 12.8,2.1 10.3,5.9 C8.6,8.5 5.2,11.2 3.3,12.7 L3.6,-6.8 C3.8,-7.7 5.3,-10.6 9.3,-10.6 C12.9,-10.6 13.2,-7.2 13.2,-5.1 L13.2,-4 "/>
<path class="Accidental" transform="matrix(2.3811,0,0,2.3811,1517.25,1540.63)" d="M20.1,-7.9 C19.5,-11.8 17.1,-15.5 12,-15.5 C7,-15.5 4.1,-12.4 3.6,-11.8 L4,-43.9 C4,-44.7 3.4,-45.3 2.6,-45.3 L1.4,-45.3 C0.6,-45.3 0,-44.7 0,-43.9 L0.5,16.2 C0.5,17 1.1,17.6 1.9,17.6 C2.1,17.6 2.5,17.5 2.7,17.4 C3.1,17.2 9.6,14 15,7.9 C18.8,3.6 20.3,-1.3 20.3,-5.4 C20.3,-6.3 20.2,-7.1 20.1,-7.9 M13.2,-4 C13.2,-2.5 12.8,2.1 10.3,5.9 C8.6,8.5 5.2,11.2 3.3,12.7 L3.6,-6.8 C3.8,-7.7 5.3,-10.6 9.3,-10.6 C12.9,-10.6 13.2,-7.2 13.2,-5.1 L13.2,-4 "/>
<path class="Accidental" transform="matrix(2.3811,0,0,2.3811,2430.51,1570.39)" d="M20.1,-7.9 C19.5,-11.8 17.1,-15.5 12,-15.5 C7,-15.5 4.1,-12.4 3.6,-11.8 L4,-43.9 C4,-44.7 3.4,-45.3 2.6,-45.3 L1.4,-45.3 C0.6,-45.3 0,-44.7 0,-43.9 L0.5,16.2 C0.5,17 1.1,17.6 1.9,17.6 C2.1,17.6 2.5,17.5 2.7,17.4 C3.1,17.2 9.6,14 15,7.9 C18.8,3.6 20.3,-1.3 20.3,-5.4 C20.3,-6.3 20.2,-7.1 20.1,-7.9 M13.2,-4 C13.2,-2.5 12.8,2.1 10.3,5.9 C8.6,8.5 5.2,11.2 3.3,12.7 L3.6,-6.8 C3.8,-7.7 5.3,-10.6 9.3,-10.6 C12.9,-10.6 13.2,-7.2 13.2,-5.1 L13.2,-4 "/>
<path class="Accidental" transform="matrix(2.3811,0,0,2.3811,2369.09,1540.63)" d="M20.1,-7.9 C19.5,-11.8 17.1,-15.5 12,-15.5 C7,-15.5 4.1,-12.4 3.6,-11.8 L4,-43.9 C4,-44.7 3.4,-45.3 2.6,-45.3 L1.4,-45.3 C0.6,-45.3 0,-44.7 0,-43.9 L0.5,16.2 C0.5,17 1.1,17.6 1.9,17.6 C2.1,17.6 2.5,17.5 2.7,17.4 C3.1,17.2 9.6,14 15,7.9 C18.8,3.6 20.3,-1.3 20.3,-5.4 C20.3,-6.3 20.2,-7.1 20.1,-7.9 M13.2,-4 C13.2,-2.5 12.8,2.1 10.3,5.9 C8.6,8.5 5.2,11.2 3.3,12.7 L3.6,-6.8 C3.8,-7.7 5.3,-10.6 9.3,-10.6 C12.9,-10.6 13.2,-7.2 13.2,-5.1 L13.2,-4 "/>
<path class="Accidental" transform="matrix(2.3811,0,0,2.3811,2459.69,1451.34)" d="M20.1,-7.9 C19.5,-11.8 17.1,-15.5 12,-15.5 C7,-15.5 4.1,-12.4 3.6,-11.8 L4,-43.9 C4,-44.7 3.4,-45.3 2.6,-45.3 L1.4,-45.3 C0.6,-45.3 0,-44.7 0,-43.9 L0.5,16.2 C0.5,17 1.1,17.6 1.9,17.6 C2.1,17.6 2.5,17.5 2.7,17.4 C3.1,17.2 9.6,14 15,7.9 C18.8,3.6 20.3,-1.3 20.3,-5.4 C20.3,-6.3 20.2,-7.1 20.1,-7.9 M13.2,-4 C13.2,-2.5 12.8,2.1 10.3,5.9 C8.6,8.5 5.2,11.2 3.3,12.7 L3.6,-6.8 C3.8,-7.7 5.3,-10.6 9.3,-10.6 C12.9,-10.6 13.2,-7.2 13.2,-5.1 L13.2,-4 "/>
<path class="Accidental" transform="matrix(2.3811,0,0,2.3811,3384.4,1540.63)" d="M20.1,-7.9 C19.5,-11.8 17.1,-15.5 12,-15.5 C7,-15.5 4.1,-12.4 3.6,-11.8 L4,-43.9 C4,-44.7 3.4,-45.3 2.6,-45.3 L1.4,-45.3 C0.6,-45.3 0,-44.7 0,-43.9 L0.5,16.2 C0.5,17 1.1,17.6 1.9,17.6 C2.1,17.6 2.5,17.5 2.7,17.4 C3.1,17.2 9.6,14 15,7.9 C18.8,3.6 20.3,-1.3 20.3,-5.4 C20.3,-6.3 20.2,-7.1 20.1,-7.9 M13.2,-4 C13.2,-2.5 12.8,2.1 10.3,5.9 C8.6,8.5 5.2,11.2 3.3,12.7 L3.6,-6.8 C3.8,-7.7 5.3,-10.6 9.3,-10.6 C12.9,-10.6 13.2,-7.2 13.2,-5.1 L13.2,-4 "/>
<path class="Accidental" transform="matrix(2.3811,0,0,2.3811,3322.97,1451.34)" d="M20.1,-7.9 C19.5,-11.8 17.1,-15.5 12,-15.5 C7,-15.5 4.1,-12.4 3.6,-11.8 L4,-43.9 C4,-44.7 3.4,-45.3 2.6,-45.3 L1.4,-45.3 C0.6,-45.3 0,-44.7 0,-43.9 L0.5,16.2 C0.5,17 1.1,17.6 1.9,17.6 C2.1,17.6 2.5,17.5 2.7,17.4 C3.1,17.2 9.6,14 15,7.9 C18.8,3.6 20.3,-1.3 20.3,-5.4 C20.3,-6.3 20.2,-7.1 20.1,-7.9 M13.2,-4 C13.2,-2.5 12.8,2.1 10.3,5.9 C8.6,8.5 5.2,11.2 3.3,12.7 L3.6,-6.8 C3.8,-7.7 5.3,-10.6 9.3,-10.6 C12.9,-10.6 13.2,-7.2 13.2,-5.1 L13.2,-4 "/>
<path class="Accidental" transform="matrix(2.3811,0,0,2.3811,3384.4,1362.05)" d="M20.1,-7.9 C19.5,-11.8 17.1,-15.5 12,-15.5 C7,-15.5 4.1,-12.4 3.6,-11.8 L4,-43.9 C4,-44.7 3.4,-45.3 2.6,-45.3 L1.4,-45.3 C0.6,-45.3 0,-44.7 0,-43.9 L0.5,16.2 C0.5,17 1.1,17.6 1.9,17.6 C2.1,17.6 2.5,17.5 2.7,17.4 C3.1,17.2 9.6,14 15,7.9 C18.8,3.6 20.3,-1.3 20.3,-5.4 C20.3,-6.3 20.2,-7.1 20.1,-7.9 M13.2,-4 C13.2,-2.5 12.8,2.1 10.3,5.9 C8.6,8.5 5.2,11.2 3.3,12.7 L3.6,-6.8 C3.8,-7.7 5.3,-10.6 9.3,-10.6 C12.9,-10.6 13.2,-7.2 13.2,-5.1 L13.2,-4 "/>
<path class="Note" transform="matrix(2.3811,0,0,2.3811,667.2,2218.32)" d="M18.7,-13.6 C4.9,-13.6 0,-6.6 0,-0.1 C0,6.4 4.9,13.4 18.7,13.4 C32.5,13.4 37.3,6.4 37.3,-0.1 C37.3,-6.6 32.5,-13.6 18.7,-13.6 M10.4,-4.5 C10.3,-4.9 10.3,-5.3 10.3,-5.7 C10.3,-6.5 10.5,-7.3 10.9,-8 C11.6,-9 12.8,-9.7 14.3,-10 C15.6,-10.3 16.3,-10.5 18.9,-10.5 L19,-10.5 C23,-10.5 24.3,-6.8 25.4,-3 L25.7,-2 C26.5,0.6 26.9,2.8 26.9,4.5 C26.9,5.7 26.7,6.8 26.3,7.6 C25.7,8.7 24.7,9.4 23,9.8 C22.1,10 20.6,10.1 20.6,10.1 C20.1,10.1 19.7,10.2 19.3,10.2 C16.1,10.2 14.1,9 12.7,4.7 C11.5,1 11.3,-0.1 10.4,-4.5"/>
<path class="Note" transform="matrix(2.3811,0,0,2.3811,1580.46,2218.32)" d="M18.7,-13.6 C4.9,-13.6 0,-6.6 0,-0.1 C0,6.4 4.9,13.4 18.7,13.4 C32.5,13.4 37.3,6.4 37.3,-0.1 C37.3,-6.6 32.5,-13.6 18.7,-13.6 M10.4,-4.5 C10.3,-4.9 10.3,-5.3 10.3,-5.7 C10.3,-6.5 10.5,-7.3 10.9,-8 C11.6,-9 12.8,-9.7 14.3,-10 C15.6,-10.3 16.3,-10.5 18.9,-10.5 L19,-10.5 C23,-10.5 24.3,-6.8 25.4,-3 L25.7,-2 C26.5,0.6 26.9,2.8 26.9,4.5 C26.9,5.7 26.7,6.8 26.3,7.6 C25.7,8.7 24.7,9.4 23,9.8 C22.1,10 20.6,10.1 20.6,10.1 C20.1,10.1 19.7,10.2 19.3,10.2 C16.1,10.2 14.1,9 12.7,4.7 C11.5,1 11.3,-0.1 10.4,-4.5"/>
<path class="Note" transform="matrix(2.3811,0,0,2.3811,2522.91,2218.32)" d="M18.7,-13.6 C4.9,-13.6 0,-6.6 0,-0.1 C0,6.4 4.9,13.4 18.7,13.4 C32.5,13.4 37.3,6.4 37.3,-0.1 C37.3,-6.6 32.5,-13.6 18.7,-13.6 M10.4,-4.5 C10.3,-4.9 10.3,-5.3 10.3,-5.7 C10.3,-6.5 10.5,-7.3 10.9,-8 C11.6,-9 12.8,-9.7 14.3,-10 C15.6,-10.3 16.3,-10.5 18.9,-10.5 L19,-10.5 C23,-10.5 24.3,-6.8 25.4,-3 L25.7,-2 C26.5,0.6 26.9,2.8 26.9,4.5 C26.9,5.7 26.7,6.8 26.3,7.6 C25.7,8.7 24.7,9.4 23,9.8 C22.1,10 20.6,10.1 20.6,10.1 C20.1,10.1 19.7,10.2 19.3,10.2 C16.1,10.2 14.1,9 12.7,4.7 C11.5,1 11.3,-0.1 10.4,-4.5"/>
<path class="Note" transform="matrix(2.3811,0,0,2.3811,3447.61,2218.32)" d="M18.7,-13.6 C4.9,-13.6 0,-6.6 0,-0.1 C0,6.4 4.9,13.4 18.7,13.4 C32.5,13.4 37.3,6.4 37.3,-0.1 C37.3,-6.6 32.5,-13.6 18.7,-13.6 M10.4,-4.5 C10.3,-4.9 10.3,-5.3 10.3,-5.7 C10.3,-6.5 10.5,-7.3 10.9,-8 C11.6,-9 12.8,-9.7 14.3,-10 C15.6,-10.3 16.3,-10.5 18.9,-10.5 L19,-10.5 C23,-10.5 24.3,-6.8 25.4,-3 L25.7,-2 C26.5,0.6 26.9,2.8 26.9,4.5 C26.9,5.7 26.7,6.8 26.3,7.6 C25.7,8.7 24.7,9.4 23,9.8 C22.1,10 20.6,10.1 20.6,10.1 C20.1,10.1 19.7,10.2 19.3,10.2 C16.1,10.2 14.1,9 12.7,4.7 C11.5,1 11.3,-0.1 10.4,-4.5"/>
<path class="Note" transform="matrix(2.3811,0,0,2.3811,667.2,1570.39)" d="M18.7,-13.6 C4.9,-13.6 0,-6.6 0,-0.1 C0,6.4 4.9,13.4 18.7,13.4 C32.5,13.4 37.3,6.4 37.3,-0.1 C37.3,-6.6 32.5,-13.6 18.7,-13.6 M10.4,-4.5 C10.3,-4.9 10.3,-5.3 10.3,-5.7 C10.3,-6.5 10.5,-7.3 10.9,-8 C11.6,-9 12.8,-9.7 14.3,-10 C15.6,-10.3 16.3,-10.5 18.9,-10.5 L19,-10.5 C23,-10.5 24.3,-6.8 25.4,-3 L25.7,-2 C26.5,0.6 26.9,2.8 26.9,4.5 C26.9,5.7 26.7,6.8 26.3,7.6 C25.7,8.7 24.7,9.4 23,9.8 C22.1,10 20.6,10.1 20.6,10.1 C20.1,10.1 19.7,10.2 19.3,10.2 C16.1,10.2 14.1,9 12.7,4.7 C11.5,1 11.3,-0.1 10.4,-4.5"/>
<path class="Note" transform="matrix(2.3811,0,0,2.3811,749.46,1540.63)" d="M18.7,-13.6 C4.9,-13.6 0,-6.6 0,-0.1 C0,6.4 4.9,13.4 18.7,13.4 C32.5,13.4 37.3,6.4 37.3,-0.1 C37.3,-6.6 32.5,-13.6 18.7,-13.6 M10.4,-4.5 C10.3,-4.9 10.3,-5.3 10.3,-5.7 C10.3,-6.5 10.5,-7.3 10.9,-8 C11.6,-9 12.8,-9.7 14.3,-10 C15.6,-10.3 16.3,-10.5 18.9,-10.5 L19,-10.5 C23,-10.5 24.3,-6.8 25.4,-3 L25.7,-2 C26.5,0.6 26.9,2.8 26.9,4.5 C26.9,5.7 26.7,6.8 26.3,7.6 C25.7,8.7 24.7,9.4 23,9.8 C22.1,10 20.6,10.1 20.6,10.1 C20.1,10.1 19.7,10.2 19.3,10.2 C16.1,10.2 14.1,9 12.7,4.7 C11.5,1 11.3,-0.1 10.4,-4.5"/>
<path class="Note" transform="matrix(2.3811,0,0,2.3811,667.2,1451.34)" d="M18.7,-13.6 C4.9,-13.6 0,-6.6 0,-0.1 C0,6.4 4.9,13.4 18.7,13.4 C32.5,13.4 37.3,6.4 37.3,-0.1 C37.3,-6.6 32.5,-13.6 18.7,-13.6 M10.4,-4.5 C10.3,-4.9 10.3,-5.3 10.3,-5.7 C10.3,-6.5 10.5,-7.3 10.9,-8 C11.6,-9 12.8,-9.7 14.3,-10 C15.6,-10.3 16.3,-10.5 18.9,-10.5 L19,-10.5 C23,-10.5 24.3,-6.8 25.4,-3 L25.7,-2 C26.5,0.6 26.9,2.8 26.9,4.5 C26.9,5.7 26.7,6.8 26.3,7.6 C25.7,8.7 24.7,9.4 23,9.8 C22.1,10 20.6,10.1 20.6,10.1 C20.1,10.1 19.7,10.2 19.3,10.2 C16.1,10.2 14.1,9 12.7,4.7 C11.5,1 11.3,-0.1 10.4,-4.5"/>
<path class="Note" transform="matrix(2.3811,0,0,2.3811,1580.46,1570.39)" d="M18.7,-13.6 C4.9,-13.6 0,-6.6 0,-0.1 C0,6.4 4.9,13.4 18.7,13.4 C32.5,13.4 37.3,6.4 37.3,-0.1 C37.3,-6.6 32.5,-13.6 18.7,-13.6 M10.4,-4.5 C10.3,-4.9 10.3,-5.3 10.3,-5.7 C10.3,-6.5 10.5,-7.3 10.9,-8 C11.6,-9 12.8,-9.7 14.3,-10 C15.6,-10.3 16.3,-10.5 18.9,-10.5 L19,-10.5 C23,-10.5 24.3,-6.8 25.4,-3 L25.7,-2 C26.5,0.6 26.9,2.8 26.9,4.5 C26.9,5.7 26.7,6.8 26.3,7.6 C25.7,8.7 24.7,9.4 23,9.8 C22.1,10 20.6,10.1 20.6,10.1 C20.1,10.1 19.7,10.2 19.3,10.2 C16.1,10.2 14.1,9 12.7,4.7 C11.5,1 11.3,-0.1 10.4,-4.5"/>
<path class="Note" transform="matrix(2.3811,0,0,2.3811,1662.72,1540.63)" d="M18.7,-13.6 C4.9,-13.6 0,-6.6 0,-0.1 C0,6.4 4.9,13.4 18.7,13.4 C32.5,13.4 37.3,6.4 37.3,-0.1 C37.3,-6.6 32.5,-13.6 18.7,-13.6 M10.4,-4.5 C10.3,-4.9 10.3,-5.3 10.3,-5.7 C10.3,-6.5 10.5,-7.3 10.9,-8 C11.6,-9 12.8,-9.7 14.3,-10 C15.6,-10.3 16.3,-10.5 18.9,-10.5 L19,-10.5 C23,-10.5 24.3,-6.8 25.4,-3 L25.7,-2 C26.5,0.6 26.9,2.8 26.9,4.5 C26.9,5.7 26.7,6.8 26.3,7.6 C25.7,8.7 24.7,9.4 23,9.8 C22.1,10 20.6,10.1 20.6,10.1 C20.1,10.1 19.7,10.2 19.3,10.2 C16.1,10.2 14.1,9 12.7,4.7 C11.5,1 11.3,-0.1 10.4,-4.5"/>
<path class="Note" transform="matrix(2.3811,0,0,2.3811,2522.91,1570.39)" d="M18.7,-13.6 C4.9,-13.6 0,-6.6 0,-0.1 C0,6.4 4.9,13.4 18.7,13.4 C32.5,13.4 37.3,6.4 37.3,-0.1 C37.3,-6.6 32.5,-13.6 18.7,-13.6 M10.4,-4.5 C10.3,-4.9 10.3,-5.3 10.3,-5.7 C10.3,-6.5 10.5,-7.3 10.9,-8 C11.6,-9 12.8,-9.7 14.3,-10 C15.6,-10.3 16.3,-10.5 18.9,-10.5 L19,-10.5 C23,-10.5 24.3,-6.8 25.4,-3 L25.7,-2 C26.5,0.6 26.9,2.8 26.9,4.5 C26.9,5.7 26.7,6.8 26.3,7.6 C25.7,8.7 24.7,9.4 23,9.8 C22.1,10 20.6,10.1 20.6,10.1 C20.1,10.1 19.7,10.2 19.3,10.2 C16.1,10.2 14.1,9 12.7,4.7 C11.5,1 11.3,-0.1 10.4,-4.5"/>
<path class="Note" transform="matrix(2.3811,0,0,2.3811,2605.16,1540.63)" d="M18.7,-13.6 C4.9,-13.6 0,-6.6 0,-0.1 C0,6.4 4.9,13.4 18.7,13.4 C32.5,13.4 37.3,6.4 37.3,-0.1 C37.3,-6.6 32.5,-13.6 18.7,-13.6 M10.4,-4.5 C10.3,-4.9 10.3,-5.3 10.3,-5.7 C10.3,-6.5 10.5,-7.3 10.9,-8 C11.6,-9 12.8,-9.7 14.3,-10 C15.6,-10.3 16.3,-10.5 18.9,-10.5 L19,-10.5 C23,-10.5 24.3,-6.8 25.4,-3 L25.7,-2 C26.5,0.6 26.9,2.8 26.9,4.5 C26.9,5.7 26.7,6.8 26.3,7.6 C25.7,8.7 24.7,9.4 23,9.8 C22.1,10 20.6,10.1 20.6,10.1 C20.1,10.1 19.7,10.2 19.3,10.2 C16.1,10.2 14.1,9 12.7,4.7 C11.5,1 11.3,-0.1 10.4,-4.5"/>
<path class="Note" transform="matrix(2.3811,0,0,2.3811,2522.91,1451.34)" d="M18.7,-13.6 C4.9,-13.6 0,-6.6 0,-0.1 C0,6.4 4.9,13.4 18.7,13.4 C32.5,13.4 37.3,6.4 37.3,-0.1 C37.3,-6.6 32.5,-13.6 18.7,-13.6 M10.4,-4.5 C10.3,-4.9 10.3,-5.3 10.3,-5.7 C10.3,-6.5 10.5,-7.3 10.9,-8 C11.6,-9 12.8,-9.7 14.3,-10 C15.6,-10.3 16.3,-10.5 18.9,-10.5 L19,-10.5 C23,-10.5 24.3,-6.8 25.4,-3 L25.7,-2 C26.5,0.6 26.9,2.8 26.9,4.5 C26.9,5.7 26.7,6.8 26.3,7.6 C25.7,8.7 24.7,9.4 23,9.8 C22.1,10 20.6,10.1 20.6,10.1 C20.1,10.1 19.7,10.2 19.3,10.2 C16.1,10.2 14.1,9 12.7,4.7 C11.5,1 11.3,-0.1 10.4,-4.5"/>
<path class="Note" transform="matrix(2.3811,0,0,2.3811,3447.61,1540.63)" d="M18.7,-13.6 C4.9,-13.6 0,-6.6 0,-0.1 C0,6.4 4.9,13.4 18.7,13.4 C32.5,13.4 37.3,6.4 37.3,-0.1 C37.3,-6.6 32.5,-13.6 18.7,-13.6 M10.4,-4.5 C10.3,-4.9 10.3,-5.3 10.3,-5.7 C10.3,-6.5 10.5,-7.3 10.9,-8 C11.6,-9 12.8,-9.7 14.3,-10 C15.6,-10.3 16.3,-10.5 18.9,-10.5 L19,-10.5 C23,-10.5 24.3,-6.8 25.4,-3 L25.7,-2 C26.5,0.6 26.9,2.8 26.9,4.5 C26.9,5.7 26.7,6.8 26.3,7.6 C25.7,8.7 24.7,9.4 23,9.8 C22.1,10 20.6,10.1 20.6,10.1 C20.1,10.1 19.7,10.2 19.3,10.2 C16.1,10.2 14.1,9 12.7,4.7 C11.5,1 11.3,-0.1 10.4,-4.5"/>
<path class="Note" transform="matrix(2.3811,0,0,2.3811,3447.61,1451.34)" d="M18.7,-13.6 C4.9,-13.6 0,-6.6 0,-0.1 C0,6.4 4.9,13.4 18.7,13.4 C32.5,13.4 37.3,6.4 37.3,-0.1 C37.3,-6.6 32.5,-13.6 18.7,-13.6 M10.4,-4.5 C10.3,-4.9 10.3,-5.3 10.3,-5.7 C10.3,-6.5 10.5,-7.3 10.9,-8 C11.6,-9 12.8,-9.7 14.3,-10 C15.6,-10.3 16.3,-10.5 18.9,-10.5 L19,-10.5 C23,-10.5 24.3,-6.8 25.4,-3 L25.7,-2 C26.5,0.6 26.9,2.8 26.9,4.5 C26.9,5.7 26.7,6.8 26.3,7.6 C25.7,8.7 24.7,9.4 23,9.8 C22.1,10 20.6,10.1 20.6,10.1 C20.1,10.1 19.7,10.2 19.3,10.2 C16.1,10.2 14.1,9 12.7,4.7 C11.5,1 11.3,-0.1 10.4,-4.5"/>
<path class="Note" transform="matrix(2.3811,0,0,2.3811,3447.61,1362.05)" d="M18.7,-13.6 C4.9,-13.6 0,-6.6 0,-0.1 C0,6.4 4.9,13.4 18.7,13.4 C32.5,13.4 37.3,6.4 37.3,-0.1 C37.3,-6.6 32.5,-13.6 18.7,-13.6 M10.4,-4.5 C10.3,-4.9 10.3,-5.3 10.3,-5.7 C10.3,-6.5 10.5,-7.3 10.9,-8 C11.6,-9 12.8,-9.7 14.3,-10 C15.6,-10.3 16.3,-10.5 18.9,-10.5 L19,-10.5 C23,-10.5 24.3,-6.8 25.4,-3 L25.7,-2 C26.5,0.6 26.9,2.8 26.9,4.5 C26.9,5.7 26.7,6.8 26.3,7.6 C25.7,8.7 24.7,9.4 23,9.8 C22.1,10 20.6,10.1 20.6,10.1 C20.1,10.1 19.7,10.2 19.3,10.2 C16.1,10.2 14.1,9 12.7,4.7 C11.5,1 11.3,-0.1 10.4,-4.5"/>
<path class="Note" d="M781.812,973.437 C775.459,983.431 765.427,991.721 751.714,998.306 C739.783,1004.04 728.626,1006.91 718.245,1006.91 C709.955,1006.91 703.06,1005.24 697.559,1001.91 C691.594,998.267 688.611,993.929 688.611,988.893 C688.611,977.504 691.594,967.704 697.559,959.491 C705.694,948.335 713.906,942.757 722.196,942.757 C728.084,942.757 732.268,943.919 734.747,946.243 C738.156,949.265 739.86,953.41 739.86,958.678 C739.86,966.115 734.321,972.584 723.242,978.085 C712.473,983.431 704.997,986.917 700.813,988.544 C701.743,990.481 702.944,992.224 704.416,993.774 C708.057,997.647 713.015,999.584 719.291,999.584 C727.193,999.584 737.807,996.679 751.133,990.868 C763.916,985.213 774.142,979.402 781.812,973.437 M699.186,983.198 C704.997,980.254 710.304,976.807 715.107,972.856 C722.235,967.045 725.799,960.77 725.799,954.029 C725.799,950.233 724.055,948.335 720.569,948.335 C717.625,948.335 713.596,951.705 708.483,958.445 C702.053,966.813 698.838,973.63 698.838,978.899 C698.838,980.371 698.954,981.804 699.186,983.198"/>
<path class="Note" d="M781.812,884.145 C775.459,894.139 765.427,902.429 751.714,909.014 C739.783,914.748 728.626,917.614 718.245,917.614 C709.955,917.614 703.06,915.948 697.559,912.617 C691.594,908.976 688.611,904.637 688.611,899.601 C688.611,888.213 691.594,878.412 697.559,870.2 C705.694,859.044 713.906,853.466 722.196,853.466 C728.084,853.466 732.268,854.628 734.747,856.952 C738.156,859.973 739.86,864.118 739.86,869.387 C739.86,876.824 734.321,883.293 723.242,888.794 C712.473,894.139 704.997,897.626 700.813,899.253 C701.743,901.19 702.944,902.933 704.416,904.482 C708.057,908.356 713.015,910.293 719.291,910.293 C727.193,910.293 737.807,907.388 751.133,901.577 C763.916,895.921 774.142,890.111 781.812,884.145 M699.186,893.907 C704.997,890.963 710.304,887.515 715.107,883.564 C722.235,877.754 725.799,871.478 725.799,864.738 C725.799,860.942 724.055,859.044 720.569,859.044 C717.625,859.044 713.596,862.414 708.483,869.154 C702.053,877.521 698.838,884.339 698.838,889.607 C698.838,891.079 698.954,892.513 699.186,893.907"/>
<path class="Note" d="M781.812,616.271 C775.459,626.265 765.427,634.555 751.714,641.14 C739.783,646.874 728.626,649.74 718.245,649.74 C709.955,649.74 703.06,648.074 697.559,644.743 C691.594,641.102 688.611,636.763 688.611,631.727 C688.611,620.339 691.594,610.538 697.559,602.326 C705.694,591.17 713.906,585.592 722.196,585.592 C728.084,585.592 732.268,586.754 734.747,589.078 C738.156,592.099 739.86,596.244 739.86,601.513 C739.86,608.95 734.321,615.419 723.242,620.92 C712.473,626.265 704.997,629.752 700.813,631.379 C701.743,633.316 702.944,635.059 704.416,636.608 C708.057,640.482 713.015,642.419 719.291,642.419 C727.193,642.419 737.807,639.513 751.133,633.703 C763.916,628.047 774.142,622.237 781.812,616.271 M699.186,626.033 C704.997,623.089 710.304,619.641 715.107,615.69 C722.235,609.88 725.799,603.604 725.799,596.864 C725.799,593.068 724.055,591.17 720.569,591.17 C717.625,591.17 713.596,594.54 708.483,601.28 C702.053,609.647 698.838,616.465 698.838,621.733 C698.838,623.205 698.954,624.638 699.186,626.033"/>
<path class="Note" d="M781.812,526.98 C775.459,536.974 765.427,545.264 751.714,551.849 C739.783,557.582 728.626,560.449 718.245,560.449 C709.955,560.449 703.06,558.783 697.559,555.452 C691.594,551.81 688.611,547.472 688.611,542.436 C688.611,531.047 691.594,521.247 697.559,513.035 C705.694,501.878 713.906,496.3 722.196,496.3 C728.084,496.3 732.268,497.462 734.747,499.787 C738.156,502.808 739.86,506.953 739.86,512.221 C739.86,519.659 734.321,526.128 723.242,531.628 C712.473,536.974 704.997,540.46 700.813,542.087 C701.743,544.024 702.944,545.767 704.416,547.317 C708.057,551.191 713.015,553.127 719.291,553.127 C727.193,553.127 737.807,550.222 751.133,544.412 C763.916,538.756 774.142,532.945 781.812,526.98 M699.186,536.742 C704.997,533.798 710.304,530.35 715.107,526.399 C722.235,520.588 725.799,514.313 725.799,507.573 C725.799,503.777 724.055,501.878 720.569,501.878 C717.625,501.878 713.596,505.249 708.483,511.989 C702.053,520.356 698.838,527.174 698.838,532.442 C698.838,533.914 698.954,535.347 699.186,536.742"/>
<path class="Note" d="M1695.07,973.437 C1688.72,983.431 1678.69,991.721 1664.98,998.306 C1653.05,1004.04 1641.89,1006.91 1631.51,1006.91 C1623.22,1006.91 1616.32,1005.24 1610.82,1001.91 C1604.86,998.267 1601.87,993.929 1601.87,988.893 C1601.87,977.504 1604.86,967.704 1610.82,959.491 C1618.96,948.335 1627.17,942.757 1635.46,942.757 C1641.35,942.757 1645.53,943.919 1648.01,946.243 C1651.42,949.265 1653.12,953.41 1653.12,958.678 C1653.12,966.115 1647.58,972.584 1636.5,978.085 C1625.74,983.431 1618.26,986.917 1614.08,988.544 C1615.01,990.481 1616.21,992.224 1617.68,993.774 C1621.32,997.647 1626.28,999.584 1632.55,999.584 C1640.46,999.584 1651.07,996.679 1664.4,990.868 C1677.18,985.213 1687.4,979.402 1695.07,973.437 M1612.45,983.198 C1618.26,980.254 1623.57,976.807 1628.37,972.856 C1635.5,967.045 1639.06,960.77 1639.06,954.029 C1639.06,950.233 1637.32,948.335 1633.83,948.335 C1630.89,948.335 1626.86,951.705 1621.75,958.445 C1615.32,966.813 1612.1,973.63 1612.1,978.899 C1612.1,980.371 1612.22,981.804 1612.45,983.198"/>
<path class="Note" d="M1615.01,642.535 C1611.21,642.535 1609.31,638.468 1609.31,630.333 L1609.31,596.283 C1609.31,593.029 1610.9,591.402 1614.08,591.402 C1615.47,591.402 1616.52,591.518 1617.21,591.751 C1619.69,587.412 1623.76,583.771 1629.42,580.827 C1637.32,576.721 1645.34,574.668 1653.47,574.668 C1659.9,574.668 1663.12,577.069 1663.12,581.873 C1663.12,585.902 1660.95,587.916 1656.61,587.916 C1653.51,587.916 1650.57,587.219 1647.78,585.824 C1645.3,584.584 1642.66,583.965 1639.87,583.965 C1635.07,583.965 1627.98,587.102 1618.61,593.378 C1619.92,599.653 1620.58,606.974 1620.58,615.342 C1620.58,633.471 1618.72,642.535 1615.01,642.535"/>
<path class="Note" d="M1666.37,759.642 C1676.83,753.057 1684.42,747.672 1689.15,743.489 C1697.83,735.819 1702.16,728.071 1702.16,720.247 C1702.16,711.105 1696.04,706.534 1683.8,706.534 C1670.94,706.534 1657.54,715.792 1643.59,734.308 C1634.14,746.859 1627.44,758.712 1623.49,769.869 C1628.37,766.692 1633.52,765.104 1638.94,765.104 C1644.06,765.104 1648.13,767.389 1651.15,771.96 C1653.24,775.137 1654.28,780.56 1654.28,788.23 C1654.28,795.125 1650.64,803.221 1643.36,812.518 C1638.87,818.251 1633.87,821.118 1628.37,821.118 C1621.4,821.118 1616.52,819.723 1613.73,816.934 C1609.78,812.983 1607.8,805.158 1607.8,793.459 C1607.8,773.781 1615.74,754.413 1631.62,735.354 C1649.52,713.894 1666.68,703.164 1683.11,703.164 C1695.81,703.164 1705.3,706.146 1711.58,712.112 C1715.22,715.598 1717.04,720.634 1717.04,727.219 C1717.04,734.579 1709.79,742.791 1695.31,751.856 C1687.71,756.659 1678.07,759.255 1666.37,759.642 M1621.98,774.749 C1620.04,781.257 1619.07,787.494 1619.07,793.459 C1619.07,807.637 1621.32,814.726 1625.81,814.726 C1630.07,814.726 1633.41,811.705 1635.81,805.662 C1638.6,798.844 1639.99,791.29 1639.99,783 C1639.99,775.64 1637.55,771.96 1632.67,771.96 C1629.26,771.96 1625.7,772.89 1621.98,774.749"/>
<path class="Note" d="M2637.52,973.437 C2631.16,983.431 2621.13,991.721 2607.42,998.306 C2595.49,1004.04 2584.33,1006.91 2573.95,1006.91 C2565.66,1006.91 2558.77,1005.24 2553.26,1001.91 C2547.3,998.267 2544.32,993.929 2544.32,988.893 C2544.32,977.504 2547.3,967.704 2553.26,959.491 C2561.4,948.335 2569.61,942.757 2577.9,942.757 C2583.79,942.757 2587.97,943.919 2590.45,946.243 C2593.86,949.265 2595.57,953.41 2595.57,958.678 C2595.57,966.115 2590.03,972.584 2578.95,978.085 C2568.18,983.431 2560.7,986.917 2556.52,988.544 C2557.45,990.481 2558.65,992.224 2560.12,993.774 C2563.76,997.647 2568.72,999.584 2575,999.584 C2582.9,999.584 2593.51,996.679 2606.84,990.868 C2619.62,985.213 2629.85,979.402 2637.52,973.437 M2554.89,983.198 C2560.7,980.254 2566.01,976.807 2570.81,972.856 C2577.94,967.045 2581.5,960.77 2581.5,954.029 C2581.5,950.233 2579.76,948.335 2576.27,948.335 C2573.33,948.335 2569.3,951.705 2564.19,958.445 C2557.76,966.813 2554.54,973.63 2554.54,978.899 C2554.54,980.371 2554.66,981.804 2554.89,983.198"/>
<path class="Note" d="M2637.52,884.145 C2631.16,894.139 2621.13,902.429 2607.42,909.014 C2595.49,914.748 2584.33,917.614 2573.95,917.614 C2565.66,917.614 2558.77,915.948 2553.26,912.617 C2547.3,908.976 2544.32,904.637 2544.32,899.601 C2544.32,888.213 2547.3,878.412 2553.26,870.2 C2561.4,859.044 2569.61,853.466 2577.9,853.466 C2583.79,853.466 2587.97,854.628 2590.45,856.952 C2593.86,859.973 2595.57,864.118 2595.57,869.387 C2595.57,876.824 2590.03,883.293 2578.95,888.794 C2568.18,894.139 2560.7,897.626 2556.52,899.253 C2557.45,901.19 2558.65,902.933 2560.12,904.482 C2563.76,908.356 2568.72,910.293 2575,910.293 C2582.9,910.293 2593.51,907.388 2606.84,901.577 C2619.62,895.921 2629.85,890.111 2637.52,884.145 M2554.89,893.907 C2560.7,890.963 2566.01,887.515 2570.81,883.564 C2577.94,877.754 2581.5,871.478 2581.5,864.738 C2581.5,860.942 2579.76,859.044 2576.27,859.044 C2573.33,859.044 2569.3,862.414 2564.19,869.154 C2557.76,877.521 2554.54,884.339 2554.54,889.607 C2554.54,891.079 2554.66,892.513 2554.89,893.907"/>
<path class="Note" d="M2637.52,616.271 C2631.16,626.265 2621.13,634.555 2607.42,641.14 C2595.49,646.874 2584.33,649.74 2573.95,649.74 C2565.66,649.74 2558.77,648.074 2553.26,644.743 C2547.3,641.102 2544.32,636.763 2544.32,631.727 C2544.32,620.339 2547.3,610.538 2553.26,602.326 C2561.4,591.17 2569.61,585.592 2577.9,585.592 C2583.79,585.592 2587.97,586.754 2590.45,589.078 C2593.86,592.099 2595.57,596.244 2595.57,601.513 C2595.57,608.95 2590.03,615.419 2578.95,620.92 C2568.18,626.265 2560.7,629.752 2556.52,631.379 C2557.45,633.316 2558.65,635.059 2560.12,636.608 C2563.76,640.482 2568.72,642.419 2575,642.419 C2582.9,642.419 2593.51,639.513 2606.84,633.703 C2619.62,628.047 2629.85,622.237 2637.52,616.271 M2554.89,626.033 C2560.7,623.089 2566.01,619.641 2570.81,615.69 C2577.94,609.88 2581.5,603.604 2581.5,596.864 C2581.5,593.068 2579.76,591.17 2576.27,591.17 C2573.33,591.17 2569.3,594.54 2564.19,601.28 C2557.76,609.647 2554.54,616.465 2554.54,621.733 C2554.54,623.205 2554.66,624.638 2554.89,626.033"/>
<path class="Note" d="M2557.45,731.826 C2553.65,731.826 2551.75,727.759 2551.75,719.624 L2551.75,685.574 C2551.75,682.32 2553.34,680.693 2556.52,680.693 C2557.91,680.693 2558.96,680.81 2559.66,681.042 C2562.14,676.704 2566.2,673.062 2571.86,670.118 C2579.76,666.012 2587.78,663.959 2595.91,663.959 C2602.34,663.959 2605.56,666.361 2605.56,671.164 C2605.56,675.193 2603.39,677.207 2599.05,677.207 C2595.95,677.207 2593.01,676.51 2590.22,675.115 C2587.74,673.876 2585.11,673.256 2582.32,673.256 C2577.51,673.256 2570.43,676.394 2561.05,682.669 C2562.37,688.944 2563.03,696.266 2563.03,704.633 C2563.03,722.762 2561.17,731.826 2557.45,731.826"/>
<path class="Note" d="M3562.22,973.437 C3555.87,983.431 3545.83,991.721 3532.12,998.306 C3520.19,1004.04 3509.03,1006.91 3498.65,1006.91 C3490.36,1006.91 3483.47,1005.24 3477.97,1001.91 C3472,998.267 3469.02,993.929 3469.02,988.893 C3469.02,977.504 3472,967.704 3477.97,959.491 C3486.1,948.335 3494.31,942.757 3502.6,942.757 C3508.49,942.757 3512.68,943.919 3515.16,946.243 C3518.56,949.265 3520.27,953.41 3520.27,958.678 C3520.27,966.115 3514.73,972.584 3503.65,978.085 C3492.88,983.431 3485.41,986.917 3481.22,988.544 C3482.15,990.481 3483.35,992.224 3484.82,993.774 C3488.47,997.647 3493.42,999.584 3499.7,999.584 C3507.6,999.584 3518.22,996.679 3531.54,990.868 C3544.32,985.213 3554.55,979.402 3562.22,973.437 M3479.59,983.198 C3485.41,980.254 3490.71,976.807 3495.52,972.856 C3502.64,967.045 3506.21,960.77 3506.21,954.029 C3506.21,950.233 3504.46,948.335 3500.98,948.335 C3498.03,948.335 3494,951.705 3488.89,958.445 C3482.46,966.813 3479.25,973.63 3479.25,978.899 C3479.25,980.371 3479.36,981.804 3479.59,983.198"/>
<path class="Note" d="M3562.22,616.271 C3555.87,626.265 3545.83,634.555 3532.12,641.14 C3520.19,646.874 3509.03,649.74 3498.65,649.74 C3490.36,649.74 3483.47,648.074 3477.97,644.743 C3472,641.102 3469.02,636.763 3469.02,631.727 C3469.02,620.339 3472,610.538 3477.97,602.326 C3486.1,591.17 3494.31,585.592 3502.6,585.592 C3508.49,585.592 3512.68,586.754 3515.16,589.078 C3518.56,592.099 3520.27,596.244 3520.27,601.513 C3520.27,608.95 3514.73,615.419 3503.65,620.92 C3492.88,626.265 3485.41,629.752 3481.22,631.379 C3482.15,633.316 3483.35,635.059 3484.82,636.608 C3488.47,640.482 3493.42,642.419 3499.7,642.419 C3507.6,642.419 3518.22,639.513 3531.54,633.703 C3544.32,628.047 3554.55,622.237 3562.22,616.271 M3479.59,626.033 C3485.41,623.089 3490.71,619.641 3495.52,615.69 C3502.64,609.88 3506.21,603.604 3506.21,596.864 C3506.21,593.068 3504.46,591.17 3500.98,591.17 C3498.03,591.17 3494,594.54 3488.89,601.28 C3482.46,609.647 3479.25,616.465 3479.25,621.733 C3479.25,623.205 3479.36,624.638 3479.59,626.033"/>
<path class="Note" d="M3562.22,526.98 C3555.87,536.974 3545.83,545.264 3532.12,551.849 C3520.19,557.582 3509.03,560.449 3498.65,560.449 C3490.36,560.449 3483.47,558.783 3477.97,555.452 C3472,551.81 3469.02,547.472 3469.02,542.436 C3469.02,531.047 3472,521.247 3477.97,513.035 C3486.1,501.878 3494.31,496.3 3502.6,496.3 C3508.49,496.3 3512.68,497.462 3515.16,499.787 C3518.56,502.808 3520.27,506.953 3520.27,512.221 C3520.27,519.659 3514.73,526.128 3503.65,531.628 C3492.88,536.974 3485.41,540.46 3481.22,542.087 C3482.15,544.024 3483.35,545.767 3484.82,547.317 C3488.47,551.191 3493.42,553.127 3499.7,553.127 C3507.6,553.127 3518.22,550.222 3531.54,544.412 C3544.32,538.756 3554.55,532.945 3562.22,526.98 M3479.59,536.742 C3485.41,533.798 3490.71,530.35 3495.52,526.399 C3502.64,520.588 3506.21,514.313 3506.21,507.573 C3506.21,503.777 3504.46,501.878 3500.98,501.878 C3498.03,501.878 3494,505.249 3488.89,511.989 C3482.46,520.356 3479.25,527.174 3479.25,532.442 C3479.25,533.914 3479.36,535.347 3479.59,536.742"/>
<path class="Note" d="M3540.49,763.361 C3540.49,772.27 3530.34,791.832 3510.04,822.047 C3501.98,834.056 3490.4,842.849 3475.29,848.427 C3464.14,852.611 3451.24,854.703 3436.6,854.703 C3431.87,854.703 3427.69,853.734 3424.05,851.797 C3420.02,849.706 3418,847.42 3418,844.941 C3418,838.511 3421.45,835.295 3428.35,835.295 C3429.35,835.295 3429.86,835.915 3429.86,837.155 C3429.86,838.239 3429.35,839.44 3428.35,840.757 C3427.11,842.384 3426.49,843.585 3426.49,844.36 C3426.49,846.684 3429.97,847.846 3436.95,847.846 C3452.59,847.846 3464.95,845.948 3474.02,842.152 C3483.47,838.278 3492.88,828.4 3502.26,812.518 L3504.93,807.521 C3500.43,810.93 3495.98,812.634 3491.56,812.634 C3480.56,812.634 3475.06,808.179 3475.06,799.27 C3475.06,789.663 3481.53,779.553 3494.47,768.939 C3504.62,760.727 3513.64,756.621 3521.55,756.621 C3525.5,756.621 3528.79,757.666 3531.42,759.758 C3532.35,759.061 3533.52,758.712 3534.91,758.712 C3538.63,758.712 3540.49,760.262 3540.49,763.361 M3506.32,805.081 L3528.29,764.523 C3526.58,764.136 3524.68,763.942 3522.59,763.942 C3515.08,763.942 3507.8,768.319 3500.74,777.074 C3492.53,787.3 3488.43,795.474 3488.43,801.594 C3488.43,805.623 3491.1,807.637 3496.45,807.637 C3499,807.637 3502.29,806.785 3506.32,805.081"/>
<path class="Note" d="M3468.67,731.826 C3464.49,731.826 3462.4,729.928 3462.4,726.132 C3462.4,719.702 3463.36,714.976 3465.3,711.954 C3473.36,700.023 3490.87,677.711 3517.83,645.017 C3529.99,630.219 3545.68,622.82 3564.89,622.82 C3572.33,622.82 3577.48,623.866 3580.35,625.958 C3584.77,629.212 3586.97,633.124 3586.97,637.695 C3586.97,642.499 3583.1,647.845 3575.35,653.733 C3567.99,659.311 3561.02,662.1 3554.43,662.1 C3551.88,662.1 3550.6,661.829 3550.6,661.286 C3550.6,660.512 3551.84,659.698 3554.32,658.846 C3557.65,657.606 3561.21,655.088 3565.01,651.292 C3569.35,646.876 3571.52,642.886 3571.52,639.322 C3571.52,636.921 3569.85,634.635 3566.52,632.466 C3563.58,630.607 3558.81,629.677 3552.23,629.677 C3542.62,629.677 3530.49,639.361 3515.85,658.73 C3506.09,671.668 3498.19,683.056 3492.15,692.896 C3495.09,691.269 3498.61,689.293 3502.72,686.969 C3507.76,684.102 3512.09,682.669 3515.74,682.669 C3524.8,682.669 3529.33,685.923 3529.33,692.431 C3529.33,698.861 3525.61,705.911 3518.18,713.581 C3512.91,719.004 3510.27,723.033 3510.27,725.667 C3510.27,728.379 3512.91,729.735 3518.18,729.735 C3520.81,729.735 3523.52,728.805 3526.31,726.945 C3529.1,725.164 3531.15,724.273 3532.47,724.273 C3533.56,724.273 3534.1,724.97 3534.1,726.364 C3534.1,728.611 3531.93,730.974 3527.59,733.453 C3520.31,737.637 3514.46,739.729 3510.04,739.729 C3502.22,739.729 3498.3,735.545 3498.3,727.178 C3498.3,721.91 3501.33,716.06 3507.37,709.63 C3511.78,704.904 3513.99,700.217 3513.99,695.568 C3513.99,691.54 3511.82,689.526 3507.49,689.526 C3505.78,689.526 3500.13,691.54 3490.52,695.568 C3487.65,700.372 3485.25,704.788 3483.31,708.817 C3475.95,724.156 3471.07,731.826 3468.67,731.826"/>
<path class="Clef" transform="matrix(2.3811,0,0,2.3811,212.156,2158.79)" d="M25.4,-25.1 C17.8,-25.1 11.7,-20.7 11.6,-20.7 C5.8,-16.4 3.5,-11.3 2.6,-7.8 C2.1,-6 1.9,-4.2 1.9,-2.5 C1.9,-0.1 2.3,2.1 3.2,4 C4.4,6.7 6.7,8.6 9.7,9.6 C10.9,10 12.2,10.2 13.5,10.2 C15.7,10.2 18,9.6 19.9,8.5 C23,6.8 24.9,3.2 24.9,-0.7 C24.9,-4.2 23.1,-7.4 20.1,-9.3 C18,-10.7 16,-11.1 14.3,-11.1 C13.1,-11.1 12,-10.9 11.1,-10.6 C10.1,-10.2 8.4,-9.2 7.6,-8.5 C7.9,-10.4 9.1,-13.3 10.2,-14.9 C11.3,-16.5 13.5,-18.5 15.2,-19.4 C17.7,-20.8 20.9,-21.4 24.4,-21.4 C34.6,-21.4 39.6,-13.2 39.6,3.6 C39.6,12.9 36.1,21.8 33.1,27.7 C29.8,34.3 25.4,40.6 21.5,44.1 C11.1,53.6 1.3,58.1 1.2,58.1 C1.2,58.1 -0.3,59 0.1,60.5 C0.4,61.5 1.3,61.7 1.9,61.7 C2,61.7 2.3,61.6 2.4,61.6 C2.5,61.6 13.9,56.9 23,49.8 C28.1,46.1 32.7,42.1 36.7,37.8 C40.3,33.9 43.4,29.7 45.9,25.5 C50.3,18 52.8,10.2 52.8,3.5 C52.8,-4.8 50.6,-11.7 46.5,-16.6 C41.8,-22.2 34.7,-25.1 25.4,-25.1 M56.8,-12.4 C56.8,-9.6 59,-7.4 61.6,-7.4 C64.2,-7.4 66.4,-9.6 66.4,-12.4 C66.4,-15.2 64.2,-17.5 61.6,-17.5 C59,-17.5 56.8,-15.2 56.8,-12.4 M56.8,12.3 C56.8,15.1 59,17.4 61.6,17.4 C64.2,17.4 66.4,15.1 66.4,12.3 C66.4,9.5 64.2,7.2 61.6,7.2 C59,7.2 56.8,9.5 56.8,12.3"/>
<path class="Clef" transform="matrix(2.3811,0,0,2.3811,212.156,1570.39)" d="M63.37,-5.89004 C62.14,-11.32 59.5,-15.14 58.72,-16.1801 C55.5301,-20.45 51.52,-23.3 46.8301,-24.65 C43.72,-25.54 40.72,-25.65 38.3,-25.47 C37.2601,-31.4801 36.2601,-37.3601 35.35,-42.8101 C40.79,-48.97 44.42,-54.77 46.69,-59.07 C50.1601,-65.65 51.3101,-70.2301 51.3601,-70.4301 C53.0801,-75.64 53.44,-83.34 52.34,-91.55 C51.3301,-99.1 49.24,-105.81 46.89,-109.06 C45.8601,-110.49 44.8101,-111.22 43.77,-111.22 C42.55,-111.22 40.04,-109.98 37.15,-107.21 C34.85,-105.01 31.5801,-101.12 29.02,-95.1101 C26.02,-88.05 25.8101,-78.5601 26.1601,-71.84 C26.54,-64.57 27.65,-58.8801 27.6601,-58.8301 C27.6801,-58.74 27.94,-57.24 28.39,-54.67 C28.1601,-54.44 27.92,-54.22 27.67,-53.9801 C26.6301,-52.9801 25.44,-51.84 24.0601,-50.4601 C23.2,-49.6 22.25,-48.69 21.25,-47.72 C12.79,-39.57 0,-27.25 0,-8.1 C0,-3.4 0.9,1.01992 2.68008,5.02998 C4.27002,8.62998 6.57002,11.91 9.5,14.78 C17.2301,22.33 27.82,25.5399 34.8801,25.38 C37.8301,25.31 40.4601,25.0699 42.85,24.6199 C44.6801,34.2199 45.82,41.25 45.8601,46.5899 C45.9,53.1 44.25,57.0699 40.35,59.8399 C37.92,61.5699 35.1101,62.5199 32.0101,62.6699 C29.42,62.7899 27.1601,62.3199 25.7301,61.91 L25.72,61.91 C25.72,61.91 25.4301,61.83 25.42,61.63 C25.4101,61.45 25.7601,61.4 25.77,61.4 L25.79,61.4 C27.7101,60.96 31.2801,59.73 33.64,56.43 C35.44,53.91 36.3101,49.2899 34.47,45.35 C33.3601,42.96 30.85,40.01 25.2301,39.56 C22.74,39.36 20.47,39.8699 18.47,41.0699 C16.6601,42.15 15.1601,43.7899 14.1101,45.7899 C11.65,50.4899 12.1101,56.2199 15.24,60.06 C18.2,63.68 22.82,65.9899 28.25,66.5699 C29.1,66.66 29.95,66.7 30.8,66.7 C31.5101,66.7 32.22,66.6699 32.92,66.61 C31.72,66.9399 30.64,67.4899 29.77,68.25 C28.2801,69.5399 27.44,71.38 27.44,73.41 C27.44,75.28 28.0601,76.65 29.55,78.0399 C28.4101,78.5 27.55,78.98 26.79,79.56 C25.25,80.73 24.34,82.46 24.34,84.1899 C24.34,87.45 27.3,89.63 31.72,89.63 C37.1301,89.63 40.9101,86.63 40.9101,82.35 C40.9101,80.1199 39.9101,78.18 38.0801,76.83 C41.0101,75.6199 42.37,73.9399 42.37,71.56 C42.39,70.05 41.69,68.61 40.49,67.6899 C39.2801,66.7399 37.62,66.2399 35.69,66.2399 L35.5101,66.2399 C38.2801,65.7 40.92,64.7 43.2101,63.28 C46.87,60.71 48.99,56.73 49.67,51.1 C50.2301,46.46 49.84,40.55 48.44,32.48 C48.0801,30.3899 47.54,27.36 46.8801,23.6 C52.6301,21.68 56.79,18.11 60.5601,12.26 C63.85,6.51992 64.8,0.419922 63.37,-5.89004 M32.39,87.5399 C30.19,87.5399 28.7301,86.1199 28.7301,84.01 C28.7301,82.11 29.65,80.5 31.32,79.4699 C31.6801,79.66 31.77,79.71 32.1101,79.88 C33.3,80.48 33.3,80.48 33.55,80.63 L33.5601,80.6399 C35.47,81.73 36.25,82.76 36.25,84.18 C36.24,86.0899 34.59,87.5399 32.39,87.5399 M38.3101,71.63 C38.3101,73.2699 37.7301,74.3399 36.1801,75.53 C34.74,74.78 34.35,74.56 33.9801,74.3399 L33.8801,74.28 C32.3301,73.3399 31.85,72.66 31.85,71.4 C31.85,69.6 33.2301,68.3399 35.19,68.3399 C37.17,68.35 38.3101,69.55 38.3101,71.63 M33.15,-83.8101 C34.9301,-89.55 37.67,-92.8 39.6601,-94.5301 C41.4101,-96.05 43.0601,-96.7601 43.9801,-96.7601 C44.12,-96.7601 44.24,-96.74 44.34,-96.7101 C44.8,-96.57 45.3301,-96 45.8,-95.1301 C48.1101,-90.84 47.37,-84.1301 46.0301,-79.69 C44.4,-74.29 41.4801,-68.6801 32.69,-59.0601 C32.52,-60.17 32.3601,-61.22 32.2101,-62.2 C30.95,-70.49 31.27,-77.7601 33.15,-83.8101 M29.15,20.31 C24.5101,19.0899 20.0801,16.5899 16.32,13.0899 C15.0101,11.86 13.14,9.68994 11.67,6.3 C10.3101,3.13994 9.65,-0.290039 9.7,-3.88008 C9.77002,-8.57002 11.0801,-13.39 13.59,-18.1801 C16.5101,-23.7601 21.07,-29.29 27.1301,-34.62 C28.5801,-35.9 29.95,-37.1801 31.24,-38.4601 C32,-34.2 32.8301,-29.5101 33.7101,-24.6301 C29.8601,-23.3601 25.1101,-20.2101 22,-14.5601 C18.47,-7.99004 18.6101,-2.47002 19.34,1.00996 C20.2801,5.46992 22.8101,9.22998 26.27,11.3199 C27.2,11.88 31.3301,14.01 33.17,13.43 C33.54,13.31 33.8101,13.0899 33.95,12.76 C34.4601,11.5899 33.44,10.95 31.8801,9.98994 C31.2801,9.61992 30.6101,9.2 29.8801,8.66992 C26.5601,6.17998 25.1101,1.72998 26.1801,-2.65 C26.7601,-5.05 28.04,-7.21006 29.8801,-8.91006 C31.55,-10.4601 33.59,-11.5601 35.97,-12.2 C38.0101,-0.960059 40.07,10.1899 41.7101,18.55 C41.84,19.2399 41.9801,19.91 42.1101,20.58 C37.7101,21.51 33.37,21.4199 29.15,20.31 M54.9,10.1 C53.7301,13.28 51.27,17.35 46.14,19.41 C46.07,18.9899 45.99,18.56 45.9101,18.13 C44.3601,9.36992 42.4301,-1.61006 40.47,-12.87 C50.82,-13.35 55.09,-5.91006 55.9801,-1.08008 C56.45,1.45 56.45,5.88994 54.9,10.1"/>
<path class="FiguredBass" d="M713.74,2470.98 C716.09,2470.98 718.564,2470.64 721.162,2469.96 L725.336,2468.85 C726.14,2468.85 726.774,2469.16 727.238,2469.78 C727.702,2470.4 727.656,2470.95 727.099,2471.45 L683.959,2521.64 L709.287,2521.64 L709.287,2501.78 C709.287,2500.36 709.673,2499.26 710.446,2498.49 C711.219,2497.72 712.209,2497.1 713.415,2496.64 C714.621,2496.17 716.198,2494.8 718.146,2492.51 C720.095,2490.22 721.966,2487.13 723.759,2483.23 C724.068,2482.61 724.532,2482.3 725.151,2482.3 C726.45,2482.3 727.099,2483.01 727.099,2484.44 L727.099,2521.64 L738.046,2521.64 C739.592,2521.64 740.366,2522.35 740.366,2523.77 C740.366,2525.32 739.592,2526.09 738.046,2526.09 L727.099,2526.09 L727.099,2527.3 C727.099,2531.13 728.12,2534.47 730.161,2537.32 C732.202,2540.16 734.83,2541.58 738.046,2541.58 C739.283,2541.58 739.902,2542.14 739.902,2543.25 C739.902,2544.49 739.283,2545.11 738.046,2545.11 C735.82,2545.11 732.511,2544.78 728.12,2544.14 C723.728,2543.49 720.404,2543.16 718.146,2543.16 C715.889,2543.16 712.565,2543.49 708.173,2544.14 C703.782,2544.78 700.473,2545.11 698.246,2545.11 C697.009,2545.11 696.391,2544.49 696.391,2543.25 C696.391,2542.14 697.009,2541.58 698.246,2541.58 C701.463,2541.58 704.107,2540.16 706.179,2537.32 C708.251,2534.47 709.287,2531.13 709.287,2527.3 L709.287,2526.09 L683.959,2526.09 C682.351,2526.09 681.161,2525.7 680.388,2524.93 C679.614,2524.16 679.228,2523.37 679.228,2522.57 C679.228,2522.26 679.955,2521.19 681.408,2519.36 C682.862,2517.54 684.64,2515.11 686.743,2512.08 C688.845,2509.05 690.933,2505.6 693.005,2501.74 C695.077,2497.87 696.839,2493.23 698.293,2487.82 C699.746,2482.41 700.473,2476.95 700.473,2471.45 C700.473,2469.84 701.153,2469.04 702.514,2469.04 C702.7,2469.04 703.349,2469.19 704.462,2469.5 C705.576,2469.81 706.998,2470.13 708.73,2470.47 C710.462,2470.81 712.132,2470.98 713.74,2470.98"/>
<path class="FiguredBass" d="M1627,2470.98 C1629.35,2470.98 1631.83,2470.64 1634.42,2469.96 L1638.6,2468.85 C1639.4,2468.85 1640.04,2469.16 1640.5,2469.78 C1640.96,2470.4 1640.92,2470.95 1640.36,2471.45 L1597.22,2521.64 L1622.55,2521.64 L1622.55,2501.78 C1622.55,2500.36 1622.94,2499.26 1623.71,2498.49 C1624.48,2497.72 1625.47,2497.1 1626.68,2496.64 C1627.88,2496.17 1629.46,2494.8 1631.41,2492.51 C1633.36,2490.22 1635.23,2487.13 1637.02,2483.23 C1637.33,2482.61 1637.79,2482.3 1638.41,2482.3 C1639.71,2482.3 1640.36,2483.01 1640.36,2484.44 L1640.36,2521.64 L1651.31,2521.64 C1652.85,2521.64 1653.63,2522.35 1653.63,2523.77 C1653.63,2525.32 1652.85,2526.09 1651.31,2526.09 L1640.36,2526.09 L1640.36,2527.3 C1640.36,2531.13 1641.38,2534.47 1643.42,2537.32 C1645.46,2540.16 1648.09,2541.58 1651.31,2541.58 C1652.55,2541.58 1653.16,2542.14 1653.16,2543.25 C1653.16,2544.49 1652.55,2545.11 1651.31,2545.11 C1649.08,2545.11 1645.77,2544.78 1641.38,2544.14 C1636.99,2543.49 1633.67,2543.16 1631.41,2543.16 C1629.15,2543.16 1625.83,2543.49 1621.44,2544.14 C1617.04,2544.78 1613.74,2545.11 1611.51,2545.11 C1610.27,2545.11 1609.65,2544.49 1609.65,2543.25 C1609.65,2542.14 1610.27,2541.58 1611.51,2541.58 C1614.73,2541.58 1617.37,2540.16 1619.44,2537.32 C1621.51,2534.47 1622.55,2531.13 1622.55,2527.3 L1622.55,2526.09 L1597.22,2526.09 C1595.61,2526.09 1594.42,2525.7 1593.65,2524.93 C1592.88,2524.16 1592.49,2523.37 1592.49,2522.57 C1592.49,2522.26 1593.22,2521.19 1594.67,2519.36 C1596.12,2517.54 1597.9,2515.11 1600,2512.08 C1602.11,2509.05 1604.2,2505.6 1606.27,2501.74 C1608.34,2497.87 1610.1,2493.23 1611.56,2487.82 C1613.01,2482.41 1613.74,2476.95 1613.74,2471.45 C1613.74,2469.84 1614.42,2469.04 1615.78,2469.04 C1615.96,2469.04 1616.61,2469.19 1617.72,2469.5 C1618.84,2469.81 1620.26,2470.13 1621.99,2470.47 C1623.72,2470.81 1625.39,2470.98 1627,2470.98"/>
<path class="FiguredBass" d="M2569.44,2470.98 C2571.8,2470.98 2574.27,2470.64 2576.87,2469.96 L2581.04,2468.85 C2581.85,2468.85 2582.48,2469.16 2582.94,2469.78 C2583.41,2470.4 2583.36,2470.95 2582.8,2471.45 L2539.66,2521.64 L2564.99,2521.64 L2564.99,2501.78 C2564.99,2500.36 2565.38,2499.26 2566.15,2498.49 C2566.92,2497.72 2567.91,2497.1 2569.12,2496.64 C2570.33,2496.17 2571.9,2494.8 2573.85,2492.51 C2575.8,2490.22 2577.67,2487.13 2579.46,2483.23 C2579.77,2482.61 2580.24,2482.3 2580.86,2482.3 C2582.15,2482.3 2582.8,2483.01 2582.8,2484.44 L2582.8,2521.64 L2593.75,2521.64 C2595.3,2521.64 2596.07,2522.35 2596.07,2523.77 C2596.07,2525.32 2595.3,2526.09 2593.75,2526.09 L2582.8,2526.09 L2582.8,2527.3 C2582.8,2531.13 2583.82,2534.47 2585.87,2537.32 C2587.91,2540.16 2590.54,2541.58 2593.75,2541.58 C2594.99,2541.58 2595.61,2542.14 2595.61,2543.25 C2595.61,2544.49 2594.99,2545.11 2593.75,2545.11 C2591.52,2545.11 2588.22,2544.78 2583.82,2544.14 C2579.43,2543.49 2576.11,2543.16 2573.85,2543.16 C2571.59,2543.16 2568.27,2543.49 2563.88,2544.14 C2559.49,2544.78 2556.18,2545.11 2553.95,2545.11 C2552.71,2545.11 2552.1,2544.49 2552.1,2543.25 C2552.1,2542.14 2552.71,2541.58 2553.95,2541.58 C2557.17,2541.58 2559.81,2540.16 2561.88,2537.32 C2563.96,2534.47 2564.99,2531.13 2564.99,2527.3 L2564.99,2526.09 L2539.66,2526.09 C2538.06,2526.09 2536.87,2525.7 2536.09,2524.93 C2535.32,2524.16 2534.93,2523.37 2534.93,2522.57 C2534.93,2522.26 2535.66,2521.19 2537.11,2519.36 C2538.57,2517.54 2540.34,2515.11 2542.45,2512.08 C2544.55,2509.05 2546.64,2505.6 2548.71,2501.74 C2550.78,2497.87 2552.54,2493.23 2554,2487.82 C2555.45,2482.41 2556.18,2476.95 2556.18,2471.45 C2556.18,2469.84 2556.86,2469.04 2558.22,2469.04 C2558.4,2469.04 2559.05,2469.19 2560.17,2469.5 C2561.28,2469.81 2562.7,2470.13 2564.44,2470.47 C2566.17,2470.81 2567.84,2470.98 2569.44,2470.98"/>
<path class="FiguredBass" d="M3494.15,2470.98 C3496.5,2470.98 3498.97,2470.64 3501.57,2469.96 L3505.74,2468.85 C3506.55,2468.85 3507.18,2469.16 3507.65,2469.78 C3508.11,2470.4 3508.06,2470.95 3507.51,2471.45 L3464.37,2521.64 L3489.69,2521.64 L3489.69,2501.78 C3489.69,2500.36 3490.08,2499.26 3490.85,2498.49 C3491.63,2497.72 3492.62,2497.1 3493.82,2496.64 C3495.03,2496.17 3496.61,2494.8 3498.55,2492.51 C3500.5,2490.22 3502.37,2487.13 3504.17,2483.23 C3504.48,2482.61 3504.94,2482.3 3505.56,2482.3 C3506.86,2482.3 3507.51,2483.01 3507.51,2484.44 L3507.51,2521.64 L3518.45,2521.64 C3520,2521.64 3520.77,2522.35 3520.77,2523.77 C3520.77,2525.32 3520,2526.09 3518.45,2526.09 L3507.51,2526.09 L3507.51,2527.3 C3507.51,2531.13 3508.53,2534.47 3510.57,2537.32 C3512.61,2540.16 3515.24,2541.58 3518.45,2541.58 C3519.69,2541.58 3520.31,2542.14 3520.31,2543.25 C3520.31,2544.49 3519.69,2545.11 3518.45,2545.11 C3516.23,2545.11 3512.92,2544.78 3508.53,2544.14 C3504.14,2543.49 3500.81,2543.16 3498.55,2543.16 C3496.3,2543.16 3492.97,2543.49 3488.58,2544.14 C3484.19,2544.78 3480.88,2545.11 3478.65,2545.11 C3477.42,2545.11 3476.8,2544.49 3476.8,2543.25 C3476.8,2542.14 3477.42,2541.58 3478.65,2541.58 C3481.87,2541.58 3484.51,2540.16 3486.59,2537.32 C3488.66,2534.47 3489.69,2531.13 3489.69,2527.3 L3489.69,2526.09 L3464.37,2526.09 C3462.76,2526.09 3461.57,2525.7 3460.8,2524.93 C3460.02,2524.16 3459.64,2523.37 3459.64,2522.57 C3459.64,2522.26 3460.36,2521.19 3461.82,2519.36 C3463.27,2517.54 3465.05,2515.11 3467.15,2512.08 C3469.25,2509.05 3471.34,2505.6 3473.41,2501.74 C3475.48,2497.87 3477.25,2493.23 3478.7,2487.82 C3480.15,2482.41 3480.88,2476.95 3480.88,2471.45 C3480.88,2469.84 3481.56,2469.04 3482.92,2469.04 C3483.11,2469.04 3483.76,2469.19 3484.87,2469.5 C3485.98,2469.81 3487.41,2470.13 3489.14,2470.47 C3490.87,2470.81 3492.54,2470.98 3494.15,2470.98"/>
<path class="FiguredBass" d="M722.739,1793.87 C727.687,1788.49 730.161,1783.29 730.161,1778.28 C730.161,1774.2 728.413,1770.98 724.919,1768.63 C721.424,1766.28 717.234,1765.11 712.348,1765.11 C708.884,1765.11 706.117,1766.19 704.045,1768.35 C701.973,1770.52 700.937,1773.02 700.937,1775.87 C700.937,1779.33 702.452,1781.96 705.483,1783.75 L722.739,1793.87 M727.285,1796.46 C735.696,1801.35 739.902,1807.78 739.902,1815.76 C739.902,1821.76 737.335,1826.91 732.202,1831.21 C727.068,1835.51 720.048,1837.66 711.142,1837.66 C703.658,1837.66 697.149,1835.68 691.613,1831.72 C686.078,1827.76 683.31,1822.63 683.31,1816.32 C683.31,1813.97 683.99,1811.59 685.351,1809.17 C686.712,1806.76 687.98,1804.95 689.155,1803.75 C690.33,1802.54 692.247,1800.67 694.907,1798.13 C688.722,1793.87 685.629,1788.49 685.629,1781.99 C685.629,1776.43 688.01,1771.63 692.773,1767.61 C697.535,1763.59 704.06,1761.58 712.348,1761.58 C718.966,1761.58 724.702,1763.08 729.558,1766.08 C734.413,1769.08 736.84,1773.15 736.84,1778.28 C736.84,1783.79 733.655,1789.85 727.285,1796.46 M699.453,1800.83 C693.144,1806.33 689.99,1811.49 689.99,1816.32 C689.99,1821.39 692.092,1825.63 696.298,1829.03 C700.504,1832.43 705.452,1834.13 711.142,1834.13 C715.1,1834.13 718.27,1832.86 720.651,1830.33 C723.032,1827.79 724.223,1824.85 724.223,1821.51 C724.223,1817.25 722.46,1814.09 718.935,1812.05 L699.453,1800.83 "/>
<path class="FiguredBass" d="M691.752,1867.33 C691.752,1867.33 693.237,1867.55 696.205,1867.98 C697.504,1868.17 698.958,1868.35 700.566,1868.54 C704.833,1869.03 708.946,1869.28 712.905,1869.28 C716.863,1869.28 721.038,1869.03 725.429,1868.54 C727.161,1868.35 728.676,1868.17 729.975,1867.98 L734.521,1867.33 C735.449,1867.33 736.144,1867.64 736.608,1868.26 C737.072,1868.88 737.026,1869.37 736.469,1869.74 C727.006,1879.21 713.678,1883.94 696.484,1883.94 C695.803,1883.94 695.2,1884.19 694.675,1884.68 C694.149,1885.18 693.886,1885.79 693.886,1886.54 L693.886,1901.1 C698.277,1896.77 703.596,1894.61 709.843,1894.61 C718.873,1894.61 725.847,1896.63 730.764,1900.68 C735.681,1904.74 738.139,1910.87 738.139,1919.1 C738.139,1926.09 735.356,1931.89 729.789,1936.49 C724.223,1941.1 717.574,1943.41 709.843,1943.41 C703.163,1943.41 697.365,1941.89 692.448,1938.86 C687.531,1935.83 685.073,1931.62 685.073,1926.24 C685.073,1923.52 686.062,1921.16 688.041,1919.15 C690.021,1917.14 692.386,1916.13 695.139,1916.13 C697.891,1916.13 700.226,1917.12 702.143,1919.1 C704.06,1921.08 705.019,1923.46 705.019,1926.24 C705.019,1927.48 703.998,1928.83 701.957,1930.28 C699.916,1931.73 698.896,1933.08 698.896,1934.31 C698.896,1938.03 702.545,1939.88 709.843,1939.88 C716.956,1939.88 720.512,1932.95 720.512,1919.1 C720.512,1905.74 716.956,1899.03 709.843,1898.97 C703.473,1898.97 699.02,1900.27 696.484,1902.86 C693.948,1905.46 692.371,1906.76 691.752,1906.76 C690.206,1906.76 689.464,1905.99 689.526,1904.44 L689.526,1869.74 C689.526,1869.06 689.742,1868.49 690.175,1868.03 C690.608,1867.56 691.134,1867.33 691.752,1867.33"/>
<path class="FiguredBass" d="M713.74,1975.03 C716.09,1975.03 718.564,1974.69 721.162,1974.01 L725.336,1972.9 C726.14,1972.9 726.774,1973.21 727.238,1973.82 C727.702,1974.44 727.656,1975 727.099,1975.49 L683.959,2025.68 L709.287,2025.68 L709.287,2005.83 C709.287,2004.41 709.673,2003.31 710.446,2002.54 C711.219,2001.76 712.209,2001.15 713.415,2000.68 C714.621,2000.22 716.198,1998.84 718.146,1996.55 C720.095,1994.27 721.966,1991.17 723.759,1987.28 C724.068,1986.66 724.532,1986.35 725.151,1986.35 C726.45,1986.35 727.099,1987.06 727.099,1988.48 L727.099,2025.68 L738.046,2025.68 C739.592,2025.68 740.366,2026.4 740.366,2027.82 C740.366,2029.36 739.592,2030.14 738.046,2030.14 L727.099,2030.14 L727.099,2031.34 C727.099,2035.18 728.12,2038.52 730.161,2041.36 C732.202,2044.21 734.83,2045.63 738.046,2045.63 C739.283,2045.63 739.902,2046.19 739.902,2047.3 C739.902,2048.54 739.283,2049.16 738.046,2049.16 C735.82,2049.16 732.511,2048.83 728.12,2048.18 C723.728,2047.53 720.404,2047.21 718.146,2047.21 C715.889,2047.21 712.565,2047.53 708.173,2048.18 C703.782,2048.83 700.473,2049.16 698.246,2049.16 C697.009,2049.16 696.391,2048.54 696.391,2047.3 C696.391,2046.19 697.009,2045.63 698.246,2045.63 C701.463,2045.63 704.107,2044.21 706.179,2041.36 C708.251,2038.52 709.287,2035.18 709.287,2031.34 L709.287,2030.14 L683.959,2030.14 C682.351,2030.14 681.161,2029.75 680.388,2028.98 C679.614,2028.2 679.228,2027.42 679.228,2026.61 C679.228,2026.3 679.955,2025.24 681.408,2023.41 C682.862,2021.59 684.64,2019.16 686.743,2016.13 C688.845,2013.1 690.933,2009.65 693.005,2005.78 C695.077,2001.92 696.839,1997.28 698.293,1991.87 C699.746,1986.46 700.473,1981 700.473,1975.49 C700.473,1973.89 701.153,1973.08 702.514,1973.08 C702.7,1973.08 703.349,1973.24 704.462,1973.55 C705.576,1973.86 706.998,1974.18 708.73,1974.52 C710.462,1974.86 712.132,1975.03 713.74,1975.03"/>
<path class="FiguredBass" d="M1605.01,1761.58 C1605.01,1761.58 1606.5,1761.8 1609.47,1762.23 C1610.77,1762.42 1612.22,1762.6 1613.83,1762.79 C1618.1,1763.28 1622.21,1763.53 1626.17,1763.53 C1630.13,1763.53 1634.3,1763.28 1638.69,1762.79 C1640.42,1762.6 1641.94,1762.42 1643.24,1762.23 L1647.78,1761.58 C1648.71,1761.58 1649.41,1761.89 1649.87,1762.51 C1650.33,1763.13 1650.29,1763.62 1649.73,1763.99 C1640.27,1773.46 1626.94,1778.19 1609.75,1778.19 C1609.07,1778.19 1608.46,1778.44 1607.94,1778.93 C1607.41,1779.43 1607.15,1780.04 1607.15,1780.79 L1607.15,1795.35 C1611.54,1791.02 1616.86,1788.86 1623.11,1788.86 C1632.14,1788.86 1639.11,1790.88 1644.03,1794.93 C1648.94,1798.99 1651.4,1805.12 1651.4,1813.35 C1651.4,1820.34 1648.62,1826.14 1643.05,1830.74 C1637.49,1835.35 1630.84,1837.66 1623.11,1837.66 C1616.43,1837.66 1610.63,1836.14 1605.71,1833.11 C1600.79,1830.08 1598.34,1825.87 1598.34,1820.49 C1598.34,1817.77 1599.32,1815.41 1601.3,1813.4 C1603.28,1811.39 1605.65,1810.38 1608.4,1810.38 C1611.15,1810.38 1613.49,1811.37 1615.41,1813.35 C1617.32,1815.33 1618.28,1817.71 1618.28,1820.49 C1618.28,1821.73 1617.26,1823.08 1615.22,1824.53 C1613.18,1825.98 1612.16,1827.33 1612.16,1828.56 C1612.16,1832.28 1615.81,1834.13 1623.11,1834.13 C1630.22,1834.13 1633.77,1827.2 1633.77,1813.35 C1633.77,1799.99 1630.22,1793.28 1623.11,1793.22 C1616.74,1793.22 1612.28,1794.52 1609.75,1797.11 C1607.21,1799.71 1605.63,1801.01 1605.01,1801.01 C1603.47,1801.01 1602.73,1800.24 1602.79,1798.69 L1602.79,1763.99 C1602.79,1763.31 1603,1762.74 1603.44,1762.28 C1603.87,1761.81 1604.4,1761.58 1605.01,1761.58"/>
<path class="FiguredBass" d="M1627,1869.28 C1629.35,1869.28 1631.83,1868.94 1634.42,1868.26 L1638.6,1867.15 C1639.4,1867.15 1640.04,1867.46 1640.5,1868.07 C1640.96,1868.69 1640.92,1869.25 1640.36,1869.74 L1597.22,1919.93 L1622.55,1919.93 L1622.55,1900.08 C1622.55,1898.66 1622.94,1897.56 1623.71,1896.79 C1624.48,1896.01 1625.47,1895.4 1626.68,1894.93 C1627.88,1894.47 1629.46,1893.09 1631.41,1890.8 C1633.36,1888.52 1635.23,1885.42 1637.02,1881.53 C1637.33,1880.91 1637.79,1880.6 1638.41,1880.6 C1639.71,1880.6 1640.36,1881.31 1640.36,1882.73 L1640.36,1919.93 L1651.31,1919.93 C1652.85,1919.93 1653.63,1920.65 1653.63,1922.07 C1653.63,1923.61 1652.85,1924.39 1651.31,1924.39 L1640.36,1924.39 L1640.36,1925.59 C1640.36,1929.43 1641.38,1932.77 1643.42,1935.61 C1645.46,1938.46 1648.09,1939.88 1651.31,1939.88 C1652.55,1939.88 1653.16,1940.44 1653.16,1941.55 C1653.16,1942.79 1652.55,1943.41 1651.31,1943.41 C1649.08,1943.41 1645.77,1943.08 1641.38,1942.43 C1636.99,1941.78 1633.67,1941.46 1631.41,1941.46 C1629.15,1941.46 1625.83,1941.78 1621.44,1942.43 C1617.04,1943.08 1613.74,1943.41 1611.51,1943.41 C1610.27,1943.41 1609.65,1942.79 1609.65,1941.55 C1609.65,1940.44 1610.27,1939.88 1611.51,1939.88 C1614.73,1939.88 1617.37,1938.46 1619.44,1935.61 C1621.51,1932.77 1622.55,1929.43 1622.55,1925.59 L1622.55,1924.39 L1597.22,1924.39 C1595.61,1924.39 1594.42,1924 1593.65,1923.23 C1592.88,1922.45 1592.49,1921.67 1592.49,1920.86 C1592.49,1920.55 1593.22,1919.49 1594.67,1917.66 C1596.12,1915.84 1597.9,1913.41 1600,1910.38 C1602.11,1907.35 1604.2,1903.9 1606.27,1900.03 C1608.34,1896.17 1610.1,1891.53 1611.56,1886.12 C1613.01,1880.71 1613.74,1875.25 1613.74,1869.74 C1613.74,1868.14 1614.42,1867.33 1615.78,1867.33 C1615.96,1867.33 1616.61,1867.49 1617.72,1867.8 C1618.84,1868.11 1620.26,1868.43 1621.99,1868.77 C1623.72,1869.11 1625.39,1869.28 1627,1869.28"/>
<path class="FiguredBass" d="M2578.44,1793.87 C2583.39,1788.49 2585.87,1783.29 2585.87,1778.28 C2585.87,1774.2 2584.12,1770.98 2580.62,1768.63 C2577.13,1766.28 2572.94,1765.11 2568.05,1765.11 C2564.59,1765.11 2561.82,1766.19 2559.75,1768.35 C2557.68,1770.52 2556.64,1773.02 2556.64,1775.87 C2556.64,1779.33 2558.16,1781.96 2561.19,1783.75 L2578.44,1793.87 M2582.99,1796.46 C2591.4,1801.35 2595.61,1807.78 2595.61,1815.76 C2595.61,1821.76 2593.04,1826.91 2587.91,1831.21 C2582.77,1835.51 2575.75,1837.66 2566.85,1837.66 C2559.36,1837.66 2552.85,1835.68 2547.32,1831.72 C2541.78,1827.76 2539.02,1822.63 2539.02,1816.32 C2539.02,1813.97 2539.7,1811.59 2541.06,1809.17 C2542.42,1806.76 2543.68,1804.95 2544.86,1803.75 C2546.04,1802.54 2547.95,1800.67 2550.61,1798.13 C2544.43,1793.87 2541.33,1788.49 2541.33,1781.99 C2541.33,1776.43 2543.72,1771.63 2548.48,1767.61 C2553.24,1763.59 2559.77,1761.58 2568.05,1761.58 C2574.67,1761.58 2580.41,1763.08 2585.26,1766.08 C2590.12,1769.08 2592.55,1773.15 2592.55,1778.28 C2592.55,1783.79 2589.36,1789.85 2582.99,1796.46 M2555.16,1800.83 C2548.85,1806.33 2545.69,1811.49 2545.69,1816.32 C2545.69,1821.39 2547.8,1825.63 2552,1829.03 C2556.21,1832.43 2561.16,1834.13 2566.85,1834.13 C2570.81,1834.13 2573.98,1832.86 2576.36,1830.33 C2578.74,1827.79 2579.93,1824.85 2579.93,1821.51 C2579.93,1817.25 2578.17,1814.09 2574.64,1812.05 L2555.16,1800.83 "/>
<path class="FiguredBass" d="M2547.46,1867.33 C2547.46,1867.33 2548.94,1867.55 2551.91,1867.98 C2553.21,1868.17 2554.66,1868.35 2556.27,1868.54 C2560.54,1869.03 2564.65,1869.28 2568.61,1869.28 C2572.57,1869.28 2576.74,1869.03 2581.13,1868.54 C2582.87,1868.35 2584.38,1868.17 2585.68,1867.98 L2590.23,1867.33 C2591.15,1867.33 2591.85,1867.64 2592.31,1868.26 C2592.78,1868.88 2592.73,1869.37 2592.17,1869.74 C2582.71,1879.21 2569.38,1883.94 2552.19,1883.94 C2551.51,1883.94 2550.91,1884.19 2550.38,1884.68 C2549.85,1885.18 2549.59,1885.79 2549.59,1886.54 L2549.59,1901.1 C2553.98,1896.77 2559.3,1894.61 2565.55,1894.61 C2574.58,1894.61 2581.55,1896.63 2586.47,1900.68 C2591.39,1904.74 2593.84,1910.87 2593.84,1919.1 C2593.84,1926.09 2591.06,1931.89 2585.49,1936.49 C2579.93,1941.1 2573.28,1943.41 2565.55,1943.41 C2558.87,1943.41 2553.07,1941.89 2548.15,1938.86 C2543.24,1935.83 2540.78,1931.62 2540.78,1926.24 C2540.78,1923.52 2541.77,1921.16 2543.75,1919.15 C2545.73,1917.14 2548.09,1916.13 2550.84,1916.13 C2553.6,1916.13 2555.93,1917.12 2557.85,1919.1 C2559.77,1921.08 2560.72,1923.46 2560.72,1926.24 C2560.72,1927.48 2559.7,1928.83 2557.66,1930.28 C2555.62,1931.73 2554.6,1933.08 2554.6,1934.31 C2554.6,1938.03 2558.25,1939.88 2565.55,1939.88 C2572.66,1939.88 2576.22,1932.95 2576.22,1919.1 C2576.22,1905.74 2572.66,1899.03 2565.55,1898.97 C2559.18,1898.97 2554.72,1900.27 2552.19,1902.86 C2549.65,1905.46 2548.08,1906.76 2547.46,1906.76 C2545.91,1906.76 2545.17,1905.99 2545.23,1904.44 L2545.23,1869.74 C2545.23,1869.06 2545.45,1868.49 2545.88,1868.03 C2546.31,1867.56 2546.84,1867.33 2547.46,1867.33"/>
<path class="FiguredBass" d="M2569.44,1975.03 C2571.8,1975.03 2574.27,1974.69 2576.87,1974.01 L2581.04,1972.9 C2581.85,1972.9 2582.48,1973.21 2582.94,1973.82 C2583.41,1974.44 2583.36,1975 2582.8,1975.49 L2539.66,2025.68 L2564.99,2025.68 L2564.99,2005.83 C2564.99,2004.41 2565.38,2003.31 2566.15,2002.54 C2566.92,2001.76 2567.91,2001.15 2569.12,2000.68 C2570.33,2000.22 2571.9,1998.84 2573.85,1996.55 C2575.8,1994.27 2577.67,1991.17 2579.46,1987.28 C2579.77,1986.66 2580.24,1986.35 2580.86,1986.35 C2582.15,1986.35 2582.8,1987.06 2582.8,1988.48 L2582.8,2025.68 L2593.75,2025.68 C2595.3,2025.68 2596.07,2026.4 2596.07,2027.82 C2596.07,2029.36 2595.3,2030.14 2593.75,2030.14 L2582.8,2030.14 L2582.8,2031.34 C2582.8,2035.18 2583.82,2038.52 2585.87,2041.36 C2587.91,2044.21 2590.54,2045.63 2593.75,2045.63 C2594.99,2045.63 2595.61,2046.19 2595.61,2047.3 C2595.61,2048.54 2594.99,2049.16 2593.75,2049.16 C2591.52,2049.16 2588.22,2048.83 2583.82,2048.18 C2579.43,2047.53 2576.11,2047.21 2573.85,2047.21 C2571.59,2047.21 2568.27,2047.53 2563.88,2048.18 C2559.49,2048.83 2556.18,2049.16 2553.95,2049.16 C2552.71,2049.16 2552.1,2048.54 2552.1,2047.3 C2552.1,2046.19 2552.71,2045.63 2553.95,2045.63 C2557.17,2045.63 2559.81,2044.21 2561.88,2041.36 C2563.96,2038.52 2564.99,2035.18 2564.99,2031.34 L2564.99,2030.14 L2539.66,2030.14 C2538.06,2030.14 2536.87,2029.75 2536.09,2028.98 C2535.32,2028.2 2534.93,2027.42 2534.93,2026.61 C2534.93,2026.3 2535.66,2025.24 2537.11,2023.41 C2538.57,2021.59 2540.34,2019.16 2542.45,2016.13 C2544.55,2013.1 2546.64,2009.65 2548.71,2005.78 C2550.78,2001.92 2552.54,1997.28 2554,1991.87 C2555.45,1986.46 2556.18,1981 2556.18,1975.49 C2556.18,1973.89 2556.86,1973.08 2558.22,1973.08 C2558.4,1973.08 2559.05,1973.24 2560.17,1973.55 C2561.28,1973.86 2562.7,1974.18 2564.44,1974.52 C2566.17,1974.86 2567.84,1975.03 2569.44,1975.03"/>
<path class="FiguredBass" d="M3494.15,1763.53 C3496.5,1763.53 3498.97,1763.19 3501.57,1762.51 L3505.74,1761.4 C3506.55,1761.4 3507.18,1761.71 3507.65,1762.32 C3508.11,1762.94 3508.06,1763.5 3507.51,1763.99 L3464.37,1814.18 L3489.69,1814.18 L3489.69,1794.33 C3489.69,1792.91 3490.08,1791.81 3490.85,1791.04 C3491.63,1790.26 3492.62,1789.65 3493.82,1789.18 C3495.03,1788.72 3496.61,1787.34 3498.55,1785.05 C3500.5,1782.77 3502.37,1779.67 3504.17,1775.78 C3504.48,1775.16 3504.94,1774.85 3505.56,1774.85 C3506.86,1774.85 3507.51,1775.56 3507.51,1776.98 L3507.51,1814.18 L3518.45,1814.18 C3520,1814.18 3520.77,1814.9 3520.77,1816.32 C3520.77,1817.86 3520,1818.64 3518.45,1818.64 L3507.51,1818.64 L3507.51,1819.84 C3507.51,1823.68 3508.53,1827.02 3510.57,1829.86 C3512.61,1832.71 3515.24,1834.13 3518.45,1834.13 C3519.69,1834.13 3520.31,1834.69 3520.31,1835.8 C3520.31,1837.04 3519.69,1837.66 3518.45,1837.66 C3516.23,1837.66 3512.92,1837.33 3508.53,1836.68 C3504.14,1836.03 3500.81,1835.71 3498.55,1835.71 C3496.3,1835.71 3492.97,1836.03 3488.58,1836.68 C3484.19,1837.33 3480.88,1837.66 3478.65,1837.66 C3477.42,1837.66 3476.8,1837.04 3476.8,1835.8 C3476.8,1834.69 3477.42,1834.13 3478.65,1834.13 C3481.87,1834.13 3484.51,1832.71 3486.59,1829.86 C3488.66,1827.02 3489.69,1823.68 3489.69,1819.84 L3489.69,1818.64 L3464.37,1818.64 C3462.76,1818.64 3461.57,1818.25 3460.8,1817.48 C3460.02,1816.7 3459.64,1815.92 3459.64,1815.11 C3459.64,1814.8 3460.36,1813.74 3461.82,1811.91 C3463.27,1810.09 3465.05,1807.66 3467.15,1804.63 C3469.25,1801.6 3471.34,1798.15 3473.41,1794.28 C3475.48,1790.42 3477.25,1785.78 3478.7,1780.37 C3480.15,1774.96 3480.88,1769.5 3480.88,1763.99 C3480.88,1762.39 3481.56,1761.58 3482.92,1761.58 C3483.11,1761.58 3483.76,1761.74 3484.87,1762.05 C3485.98,1762.36 3487.41,1762.68 3489.14,1763.02 C3490.87,1763.36 3492.54,1763.53 3494.15,1763.53"/>
<path class="FiguredBass" d="M3503.15,1899.62 C3508.09,1894.24 3510.57,1889.04 3510.57,1884.03 C3510.57,1879.95 3508.82,1876.73 3505.33,1874.38 C3501.83,1872.03 3497.64,1870.86 3492.76,1870.86 C3489.29,1870.86 3486.52,1871.94 3484.45,1874.1 C3482.38,1876.27 3481.35,1878.77 3481.35,1881.62 C3481.35,1885.08 3482.86,1887.71 3485.89,1889.5 L3503.15,1899.62 M3507.69,1902.21 C3516.1,1907.1 3520.31,1913.53 3520.31,1921.51 C3520.31,1927.51 3517.74,1932.66 3512.61,1936.96 C3507.48,1941.26 3500.46,1943.41 3491.55,1943.41 C3484.07,1943.41 3477.56,1941.43 3472.02,1937.47 C3466.49,1933.51 3463.72,1928.38 3463.72,1922.07 C3463.72,1919.72 3464.4,1917.34 3465.76,1914.92 C3467.12,1912.51 3468.39,1910.7 3469.56,1909.5 C3470.74,1908.29 3472.66,1906.42 3475.31,1903.88 C3469.13,1899.62 3466.04,1894.24 3466.04,1887.74 C3466.04,1882.18 3468.42,1877.38 3473.18,1873.36 C3477.94,1869.34 3484.47,1867.33 3492.76,1867.33 C3499.37,1867.33 3505.11,1868.83 3509.97,1871.83 C3514.82,1874.83 3517.25,1878.9 3517.25,1884.03 C3517.25,1889.54 3514.06,1895.6 3507.69,1902.21 M3479.86,1906.58 C3473.55,1912.08 3470.4,1917.24 3470.4,1922.07 C3470.4,1927.14 3472.5,1931.38 3476.71,1934.78 C3480.91,1938.18 3485.86,1939.88 3491.55,1939.88 C3495.51,1939.88 3498.68,1938.61 3501.06,1936.08 C3503.44,1933.54 3504.63,1930.6 3504.63,1927.26 C3504.63,1923 3502.87,1919.84 3499.34,1917.8 L3479.86,1906.58 "/>
<path class="FiguredBass" d="M3472.16,1973.08 C3472.16,1973.08 3473.64,1973.3 3476.61,1973.73 C3477.91,1973.92 3479.37,1974.1 3480.97,1974.29 C3485.24,1974.78 3489.35,1975.03 3493.31,1975.03 C3497.27,1975.03 3501.45,1974.78 3505.84,1974.29 C3507.57,1974.1 3509.08,1973.92 3510.38,1973.73 L3514.93,1973.08 C3515.86,1973.08 3516.55,1973.39 3517.02,1974.01 C3517.48,1974.63 3517.43,1975.12 3516.88,1975.49 C3507.41,1984.96 3494.09,1989.69 3476.89,1989.69 C3476.21,1989.69 3475.61,1989.94 3475.08,1990.43 C3474.56,1990.93 3474.29,1991.54 3474.29,1992.29 L3474.29,2006.85 C3478.69,2002.52 3484,2000.36 3490.25,2000.36 C3499.28,2000.36 3506.25,2002.38 3511.17,2006.43 C3516.09,2010.49 3518.55,2016.62 3518.55,2024.85 C3518.55,2031.84 3515.76,2037.64 3510.2,2042.24 C3504.63,2046.85 3497.98,2049.16 3490.25,2049.16 C3483.57,2049.16 3477.77,2047.64 3472.86,2044.61 C3467.94,2041.58 3465.48,2037.37 3465.48,2031.99 C3465.48,2029.27 3466.47,2026.91 3468.45,2024.9 C3470.43,2022.89 3472.79,2021.88 3475.55,2021.88 C3478.3,2021.88 3480.63,2022.87 3482.55,2024.85 C3484.47,2026.83 3485.43,2029.21 3485.43,2031.99 C3485.43,2033.23 3484.41,2034.58 3482.37,2036.03 C3480.32,2037.48 3479.3,2038.83 3479.3,2040.06 C3479.3,2043.78 3482.95,2045.63 3490.25,2045.63 C3497.36,2045.63 3500.92,2038.7 3500.92,2024.85 C3500.92,2011.49 3497.36,2004.78 3490.25,2004.72 C3483.88,2004.72 3479.43,2006.02 3476.89,2008.61 C3474.36,2011.21 3472.78,2012.51 3472.16,2012.51 C3470.61,2012.51 3469.87,2011.74 3469.93,2010.19 L3469.93,1975.49 C3469.93,1974.81 3470.15,1974.24 3470.58,1973.78 C3471.02,1973.31 3471.54,1973.08 3472.16,1973.08"/>
<path class="Bracket" transform="matrix(8.6315,0,0,9.45563,76.1283,2337.37)" d="M0.92002,-50 C2.69004,-51.88 6.2,-55.8 6.2,-63 C6.2,-72.1 2.25996,-81.32 2.25996,-86.97 C2.25996,-93.06 5.84004,-98.84 5.95,-99 C6.05996,-99.16 6.05,-99.39 5.94004,-99.46 C5.82998,-99.53 5.62002,-99.47 5.49004,-99.32 C5.35996,-99.17 0,-93.75 0,-85.6 C0,-76.75 3.5,-70.58 3.5,-59.07 C3.5,-56.89 2.55996,-53.36 0.1,-50.33 C-0.0799805,-50.17 -0.1,-49.89 0.0599609,-49.7 L0.0700195,-49.69 L0.1,-49.66 C2.55996,-46.63 3.5,-43.1 3.5,-40.92 C3.5,-29.4 0,-23.24 0,-14.39 C0,-6.25 5.35996,-0.8 5.49004,-0.659961 C5.62002,-0.52002 5.8,-0.42998 5.94004,-0.52002 C6.07998,-0.609961 6.07998,-0.77998 5.95,-0.97998 C5.82002,-1.17998 2.25996,-6.92002 2.25996,-13.01 C2.25996,-18.66 6.2,-27.9 6.2,-37 C6.2,-44.3 2.69004,-48.12 0.92002,-50"/>
</svg>
