<?xml version="1.0" encoding="UTF-8" standalone="no"?>
<svg width="4209.44px" height="2976.38px" viewBox="0 0 4209.44 2976.38"
 xmlns="http://www.w3.org/2000/svg" xmlns:xlink="http://www.w3.org/1999/xlink" version="1.2" baseProfile="tiny">
<title>Cordes (19)</title>
<desc>Generated by MuseScore 3.6.2</desc>
<polyline class="StaffLines" fill="none" stroke="#000000" stroke-width="6.55" stroke-linejoin="bevel" points="153.819,558.425 4138.58,558.425"/>
<polyline class="StaffLines" fill="none" stroke="#000000" stroke-width="6.55" stroke-linejoin="bevel" points="153.819,647.717 4138.58,647.717"/>
<polyline class="StaffLines" fill="none" stroke="#000000" stroke-width="6.55" stroke-linejoin="bevel" points="153.819,737.008 4138.58,737.008"/>
<polyline class="StaffLines" fill="none" stroke="#000000" stroke-width="6.55" stroke-linejoin="bevel" points="153.819,826.299 4138.58,826.299"/>
<polyline class="StaffLines" fill="none" stroke="#000000" stroke-width="6.55" stroke-linejoin="bevel" points="153.819,915.591 4138.58,915.591"/>
<polyline class="StaffLines" fill="none" stroke="#000000" stroke-width="6.55" stroke-linejoin="bevel" points="153.819,1004.88 4138.58,1004.88"/>
<polyline class="StaffLines" fill="none" stroke="#000000" stroke-width="6.55" stroke-linejoin="bevel" points="153.819,1391.81 4138.58,1391.81"/>
<polyline class="StaffLines" fill="none" stroke="#000000" stroke-width="6.55" stroke-linejoin="bevel" points="153.819,1451.34 4138.58,1451.34"/>
<polyline class="StaffLines" fill="none" stroke="#000000" stroke-width="6.55" stroke-linejoin="bevel" points="153.819,1510.87 4138.58,1510.87"/>
<polyline class="StaffLines" fill="none" stroke="#000000" stroke-width="6.55" stroke-linejoin="bevel" points="153.819,1570.39 4138.58,1570.39"/>
<polyline class="StaffLines" fill="none" stroke="#000000" stroke-width="6.55" stroke-linejoin="bevel" points="153.819,1629.92 4138.58,1629.92"/>
<polyline class="StaffLines" fill="none" stroke="#000000" stroke-width="6.55" stroke-linejoin="bevel" points="153.819,2099.26 4138.58,2099.26"/>
<polyline class="StaffLines" fill="none" stroke="#000000" stroke-width="6.55" stroke-linejoin="bevel" points="153.819,2158.79 4138.58,2158.79"/>
<polyline class="StaffLines" fill="none" stroke="#000000" stroke-width="6.55" stroke-linejoin="bevel" points="153.819,2218.32 4138.58,2218.32"/>
<polyline class="StaffLines" fill="none" stroke="#000000" stroke-width="6.55" stroke-linejoin="bevel" points="153.819,2277.85 4138.58,2277.85"/>
<polyline class="StaffLines" fill="none" stroke="#000000" stroke-width="6.55" stroke-linejoin="bevel" points="153.819,2337.37 4138.58,2337.37"/>
<polyline class="BarLine" fill="none" stroke="#000000" stroke-width="10.71" stroke-linejoin="bevel" points="159.176,2095.99 159.176,2340.65"/>
<polyline class="BarLine" fill="none" stroke="#000000" stroke-width="10.71" stroke-linejoin="bevel" points="1042.5,2095.99 1042.5,2340.65"/>
<polyline class="BarLine" fill="none" stroke="#000000" stroke-width="10.71" stroke-linejoin="bevel" points="1596.87,2095.99 1596.87,2340.65"/>
<polyline class="BarLine" fill="none" stroke="#000000" stroke-width="10.71" stroke-linejoin="bevel" points="1629.61,2095.99 1629.61,2340.65"/>
<polyline class="BarLine" fill="none" stroke="#000000" stroke-width="10.71" stroke-linejoin="bevel" points="2271.58,2095.99 2271.58,2340.65"/>
<polyline class="BarLine" fill="none" stroke="#000000" stroke-width="10.71" stroke-linejoin="bevel" points="2924.99,2095.99 2924.99,2340.65"/>
<polyline class="BarLine" fill="none" stroke="#000000" stroke-width="10.71" stroke-linejoin="bevel" points="2957.73,2095.99 2957.73,2340.65"/>
<polyline class="BarLine" fill="none" stroke="#000000" stroke-width="10.71" stroke-linejoin="bevel" points="3526.17,2095.99 3526.17,2340.65"/>
<polyline class="BarLine" fill="none" stroke="#000000" stroke-width="10.71" stroke-linejoin="bevel" points="4080.54,2095.99 4080.54,2340.65"/>
<polyline class="BarLine" fill="none" stroke="#000000" stroke-width="32.74" stroke-linejoin="bevel" points="4122.21,2095.99 4122.21,2340.65"/>
<polyline class="BarLine" fill="none" stroke="#000000" stroke-width="10.71" stroke-linejoin="bevel" points="159.176,1388.54 159.176,2099.26"/>
<polyline class="BarLine" fill="none" stroke="#000000" stroke-width="10.71" stroke-linejoin="bevel" points="1042.5,1388.54 1042.5,1633.2"/>
<polyline class="BarLine" fill="none" stroke="#000000" stroke-width="10.71" stroke-linejoin="bevel" points="1596.87,1388.54 1596.87,1633.2"/>
<polyline class="BarLine" fill="none" stroke="#000000" stroke-width="10.71" stroke-linejoin="bevel" points="1629.61,1388.54 1629.61,1633.2"/>
<polyline class="BarLine" fill="none" stroke="#000000" stroke-width="10.71" stroke-linejoin="bevel" points="2271.58,1388.54 2271.58,1633.2"/>
<polyline class="BarLine" fill="none" stroke="#000000" stroke-width="10.71" stroke-linejoin="bevel" points="2924.99,1388.54 2924.99,1633.2"/>
<polyline class="BarLine" fill="none" stroke="#000000" stroke-width="10.71" stroke-linejoin="bevel" points="2957.73,1388.54 2957.73,1633.2"/>
<polyline class="BarLine" fill="none" stroke="#000000" stroke-width="10.71" stroke-linejoin="bevel" points="3526.17,1388.54 3526.17,1633.2"/>
<polyline class="BarLine" fill="none" stroke="#000000" stroke-width="10.71" stroke-linejoin="bevel" points="4080.54,1388.54 4080.54,1633.2"/>
<polyline class="BarLine" fill="none" stroke="#000000" stroke-width="32.74" stroke-linejoin="bevel" points="4122.21,1388.54 4122.21,1633.2"/>
<polyline class="BarLine" fill="none" stroke="#000000" stroke-width="10.71" stroke-linejoin="bevel" points="159.176,555.151 159.176,1391.81"/>
<polyline class="BarLine" fill="none" stroke="#000000" stroke-width="10.71" stroke-linejoin="bevel" points="1042.5,555.151 1042.5,1008.16"/>
<polyline class="BarLine" fill="none" stroke="#000000" stroke-width="10.71" stroke-linejoin="bevel" points="1596.87,555.151 1596.87,1008.16"/>
<polyline class="BarLine" fill="none" stroke="#000000" stroke-width="10.71" stroke-linejoin="bevel" points="1629.61,555.151 1629.61,1008.16"/>
<polyline class="BarLine" fill="none" stroke="#000000" stroke-width="10.71" stroke-linejoin="bevel" points="2271.58,555.151 2271.58,1008.16"/>
<polyline class="BarLine" fill="none" stroke="#000000" stroke-width="10.71" stroke-linejoin="bevel" points="2924.99,555.151 2924.99,1008.16"/>
<polyline class="BarLine" fill="none" stroke="#000000" stroke-width="10.71" stroke-linejoin="bevel" points="2957.73,555.151 2957.73,1008.16"/>
<polyline class="BarLine" fill="none" stroke="#000000" stroke-width="10.71" stroke-linejoin="bevel" points="3526.17,555.151 3526.17,1008.16"/>
<polyline class="BarLine" fill="none" stroke="#000000" stroke-width="10.71" stroke-linejoin="bevel" points="4080.54,555.151 4080.54,1008.16"/>
<polyline class="BarLine" fill="none" stroke="#000000" stroke-width="32.74" stroke-linejoin="bevel" points="4122.21,555.151 4122.21,1008.16"/>
<path class="Accidental" transform="matrix(2.3811,0,0,2.3811,513.384,1451.34)" d="M20.1,-7.9 C19.5,-11.8 17.1,-15.5 12,-15.5 C7,-15.5 4.1,-12.4 3.6,-11.8 L4,-43.9 C4,-44.7 3.4,-45.3 2.6,-45.3 L1.4,-45.3 C0.6,-45.3 0,-44.7 0,-43.9 L0.5,16.2 C0.5,17 1.1,17.6 1.9,17.6 C2.1,17.6 2.5,17.5 2.7,17.4 C3.1,17.2 9.6,14 15,7.9 C18.8,3.6 20.3,-1.3 20.3,-5.4 C20.3,-6.3 20.2,-7.1 20.1,-7.9 M13.2,-4 C13.2,-2.5 12.8,2.1 10.3,5.9 C8.6,8.5 5.2,11.2 3.3,12.7 L3.6,-6.8 C3.8,-7.7 5.3,-10.6 9.3,-10.6 C12.9,-10.6 13.2,-7.2 13.2,-5.1 L13.2,-4 "/>
<path class="Accidental" transform="matrix(2.3811,0,0,2.3811,1681.04,1540.63)" d="M20.1,-7.9 C19.5,-11.8 17.1,-15.5 12,-15.5 C7,-15.5 4.1,-12.4 3.6,-11.8 L4,-43.9 C4,-44.7 3.4,-45.3 2.6,-45.3 L1.4,-45.3 C0.6,-45.3 0,-44.7 0,-43.9 L0.5,16.2 C0.5,17 1.1,17.6 1.9,17.6 C2.1,17.6 2.5,17.5 2.7,17.4 C3.1,17.2 9.6,14 15,7.9 C18.8,3.6 20.3,-1.3 20.3,-5.4 C20.3,-6.3 20.2,-7.1 20.1,-7.9 M13.2,-4 C13.2,-2.5 12.8,2.1 10.3,5.9 C8.6,8.5 5.2,11.2 3.3,12.7 L3.6,-6.8 C3.8,-7.7 5.3,-10.6 9.3,-10.6 C12.9,-10.6 13.2,-7.2 13.2,-5.1 L13.2,-4 "/>
<path class="Accidental" transform="matrix(2.3811,0,0,2.3811,1742.46,1451.34)" d="M20.1,-7.9 C19.5,-11.8 17.1,-15.5 12,-15.5 C7,-15.5 4.1,-12.4 3.6,-11.8 L4,-43.9 C4,-44.7 3.4,-45.3 2.6,-45.3 L1.4,-45.3 C0.6,-45.3 0,-44.7 0,-43.9 L0.5,16.2 C0.5,17 1.1,17.6 1.9,17.6 C2.1,17.6 2.5,17.5 2.7,17.4 C3.1,17.2 9.6,14 15,7.9 C18.8,3.6 20.3,-1.3 20.3,-5.4 C20.3,-6.3 20.2,-7.1 20.1,-7.9 M13.2,-4 C13.2,-2.5 12.8,2.1 10.3,5.9 C8.6,8.5 5.2,11.2 3.3,12.7 L3.6,-6.8 C3.8,-7.7 5.3,-10.6 9.3,-10.6 C12.9,-10.6 13.2,-7.2 13.2,-5.1 L13.2,-4 "/>
<path class="Accidental" transform="matrix(2.3811,0,0,2.3811,2334.45,1540.63)" d="M20.1,-7.9 C19.5,-11.8 17.1,-15.5 12,-15.5 C7,-15.5 4.1,-12.4 3.6,-11.8 L4,-43.9 C4,-44.7 3.4,-45.3 2.6,-45.3 L1.4,-45.3 C0.6,-45.3 0,-44.7 0,-43.9 L0.5,16.2 C0.5,17 1.1,17.6 1.9,17.6 C2.1,17.6 2.5,17.5 2.7,17.4 C3.1,17.2 9.6,14 15,7.9 C18.8,3.6 20.3,-1.3 20.3,-5.4 C20.3,-6.3 20.2,-7.1 20.1,-7.9 M13.2,-4 C13.2,-2.5 12.8,2.1 10.3,5.9 C8.6,8.5 5.2,11.2 3.3,12.7 L3.6,-6.8 C3.8,-7.7 5.3,-10.6 9.3,-10.6 C12.9,-10.6 13.2,-7.2 13.2,-5.1 L13.2,-4 "/>
<path class="Accidental" transform="matrix(2.3811,0,0,2.3811,2395.87,1451.34)" d="M20.1,-7.9 C19.5,-11.8 17.1,-15.5 12,-15.5 C7,-15.5 4.1,-12.4 3.6,-11.8 L4,-43.9 C4,-44.7 3.4,-45.3 2.6,-45.3 L1.4,-45.3 C0.6,-45.3 0,-44.7 0,-43.9 L0.5,16.2 C0.5,17 1.1,17.6 1.9,17.6 C2.1,17.6 2.5,17.5 2.7,17.4 C3.1,17.2 9.6,14 15,7.9 C18.8,3.6 20.3,-1.3 20.3,-5.4 C20.3,-6.3 20.2,-7.1 20.1,-7.9 M13.2,-4 C13.2,-2.5 12.8,2.1 10.3,5.9 C8.6,8.5 5.2,11.2 3.3,12.7 L3.6,-6.8 C3.8,-7.7 5.3,-10.6 9.3,-10.6 C12.9,-10.6 13.2,-7.2 13.2,-5.1 L13.2,-4 "/>
<path class="Note" transform="matrix(2.3811,0,0,2.3811,576.595,2158.79)" d="M18.7,-13.6 C4.9,-13.6 0,-6.6 0,-0.1 C0,6.4 4.9,13.4 18.7,13.4 C32.5,13.4 37.3,6.4 37.3,-0.1 C37.3,-6.6 32.5,-13.6 18.7,-13.6 M10.4,-4.5 C10.3,-4.9 10.3,-5.3 10.3,-5.7 C10.3,-6.5 10.5,-7.3 10.9,-8 C11.6,-9 12.8,-9.7 14.3,-10 C15.6,-10.3 16.3,-10.5 18.9,-10.5 L19,-10.5 C23,-10.5 24.3,-6.8 25.4,-3 L25.7,-2 C26.5,0.6 26.9,2.8 26.9,4.5 C26.9,5.7 26.7,6.8 26.3,7.6 C25.7,8.7 24.7,9.4 23,9.8 C22.1,10 20.6,10.1 20.6,10.1 C20.1,10.1 19.7,10.2 19.3,10.2 C16.1,10.2 14.1,9 12.7,4.7 C11.5,1 11.3,-0.1 10.4,-4.5"/>
<path class="Note" transform="matrix(2.3811,0,0,2.3811,1130.97,2158.79)" d="M18.7,-13.6 C4.9,-13.6 0,-6.6 0,-0.1 C0,6.4 4.9,13.4 18.7,13.4 C32.5,13.4 37.3,6.4 37.3,-0.1 C37.3,-6.6 32.5,-13.6 18.7,-13.6 M10.4,-4.5 C10.3,-4.9 10.3,-5.3 10.3,-5.7 C10.3,-6.5 10.5,-7.3 10.9,-8 C11.6,-9 12.8,-9.7 14.3,-10 C15.6,-10.3 16.3,-10.5 18.9,-10.5 L19,-10.5 C23,-10.5 24.3,-6.8 25.4,-3 L25.7,-2 C26.5,0.6 26.9,2.8 26.9,4.5 C26.9,5.7 26.7,6.8 26.3,7.6 C25.7,8.7 24.7,9.4 23,9.8 C22.1,10 20.6,10.1 20.6,10.1 C20.1,10.1 19.7,10.2 19.3,10.2 C16.1,10.2 14.1,9 12.7,4.7 C11.5,1 11.3,-0.1 10.4,-4.5"/>
<path class="Note" transform="matrix(2.3811,0,0,2.3811,1805.68,2158.79)" d="M18.7,-13.6 C4.9,-13.6 0,-6.6 0,-0.1 C0,6.4 4.9,13.4 18.7,13.4 C32.5,13.4 37.3,6.4 37.3,-0.1 C37.3,-6.6 32.5,-13.6 18.7,-13.6 M10.4,-4.5 C10.3,-4.9 10.3,-5.3 10.3,-5.7 C10.3,-6.5 10.5,-7.3 10.9,-8 C11.6,-9 12.8,-9.7 14.3,-10 C15.6,-10.3 16.3,-10.5 18.9,-10.5 L19,-10.5 C23,-10.5 24.3,-6.8 25.4,-3 L25.7,-2 C26.5,0.6 26.9,2.8 26.9,4.5 C26.9,5.7 26.7,6.8 26.3,7.6 C25.7,8.7 24.7,9.4 23,9.8 C22.1,10 20.6,10.1 20.6,10.1 C20.1,10.1 19.7,10.2 19.3,10.2 C16.1,10.2 14.1,9 12.7,4.7 C11.5,1 11.3,-0.1 10.4,-4.5"/>
<path class="Note" transform="matrix(2.3811,0,0,2.3811,2459.09,2158.79)" d="M18.7,-13.6 C4.9,-13.6 0,-6.6 0,-0.1 C0,6.4 4.9,13.4 18.7,13.4 C32.5,13.4 37.3,6.4 37.3,-0.1 C37.3,-6.6 32.5,-13.6 18.7,-13.6 M10.4,-4.5 C10.3,-4.9 10.3,-5.3 10.3,-5.7 C10.3,-6.5 10.5,-7.3 10.9,-8 C11.6,-9 12.8,-9.7 14.3,-10 C15.6,-10.3 16.3,-10.5 18.9,-10.5 L19,-10.5 C23,-10.5 24.3,-6.8 25.4,-3 L25.7,-2 C26.5,0.6 26.9,2.8 26.9,4.5 C26.9,5.7 26.7,6.8 26.3,7.6 C25.7,8.7 24.7,9.4 23,9.8 C22.1,10 20.6,10.1 20.6,10.1 C20.1,10.1 19.7,10.2 19.3,10.2 C16.1,10.2 14.1,9 12.7,4.7 C11.5,1 11.3,-0.1 10.4,-4.5"/>
<path class="Note" transform="matrix(2.3811,0,0,2.3811,3046.2,2158.79)" d="M18.7,-13.6 C4.9,-13.6 0,-6.6 0,-0.1 C0,6.4 4.9,13.4 18.7,13.4 C32.5,13.4 37.3,6.4 37.3,-0.1 C37.3,-6.6 32.5,-13.6 18.7,-13.6 M10.4,-4.5 C10.3,-4.9 10.3,-5.3 10.3,-5.7 C10.3,-6.5 10.5,-7.3 10.9,-8 C11.6,-9 12.8,-9.7 14.3,-10 C15.6,-10.3 16.3,-10.5 18.9,-10.5 L19,-10.5 C23,-10.5 24.3,-6.8 25.4,-3 L25.7,-2 C26.5,0.6 26.9,2.8 26.9,4.5 C26.9,5.7 26.7,6.8 26.3,7.6 C25.7,8.7 24.7,9.4 23,9.8 C22.1,10 20.6,10.1 20.6,10.1 C20.1,10.1 19.7,10.2 19.3,10.2 C16.1,10.2 14.1,9 12.7,4.7 C11.5,1 11.3,-0.1 10.4,-4.5"/>
<path class="Note" transform="matrix(2.3811,0,0,2.3811,3614.63,2158.79)" d="M18.7,-13.6 C4.9,-13.6 0,-6.6 0,-0.1 C0,6.4 4.9,13.4 18.7,13.4 C32.5,13.4 37.3,6.4 37.3,-0.1 C37.3,-6.6 32.5,-13.6 18.7,-13.6 M10.4,-4.5 C10.3,-4.9 10.3,-5.3 10.3,-5.7 C10.3,-6.5 10.5,-7.3 10.9,-8 C11.6,-9 12.8,-9.7 14.3,-10 C15.6,-10.3 16.3,-10.5 18.9,-10.5 L19,-10.5 C23,-10.5 24.3,-6.8 25.4,-3 L25.7,-2 C26.5,0.6 26.9,2.8 26.9,4.5 C26.9,5.7 26.7,6.8 26.3,7.6 C25.7,8.7 24.7,9.4 23,9.8 C22.1,10 20.6,10.1 20.6,10.1 C20.1,10.1 19.7,10.2 19.3,10.2 C16.1,10.2 14.1,9 12.7,4.7 C11.5,1 11.3,-0.1 10.4,-4.5"/>
<path class="Note" transform="matrix(2.3811,0,0,2.3811,576.595,1451.34)" d="M18.7,-13.6 C4.9,-13.6 0,-6.6 0,-0.1 C0,6.4 4.9,13.4 18.7,13.4 C32.5,13.4 37.3,6.4 37.3,-0.1 C37.3,-6.6 32.5,-13.6 18.7,-13.6 M10.4,-4.5 C10.3,-4.9 10.3,-5.3 10.3,-5.7 C10.3,-6.5 10.5,-7.3 10.9,-8 C11.6,-9 12.8,-9.7 14.3,-10 C15.6,-10.3 16.3,-10.5 18.9,-10.5 L19,-10.5 C23,-10.5 24.3,-6.8 25.4,-3 L25.7,-2 C26.5,0.6 26.9,2.8 26.9,4.5 C26.9,5.7 26.7,6.8 26.3,7.6 C25.7,8.7 24.7,9.4 23,9.8 C22.1,10 20.6,10.1 20.6,10.1 C20.1,10.1 19.7,10.2 19.3,10.2 C16.1,10.2 14.1,9 12.7,4.7 C11.5,1 11.3,-0.1 10.4,-4.5"/>
<path class="Note" transform="matrix(2.3811,0,0,2.3811,576.595,1391.81)" d="M18.7,-13.6 C4.9,-13.6 0,-6.6 0,-0.1 C0,6.4 4.9,13.4 18.7,13.4 C32.5,13.4 37.3,6.4 37.3,-0.1 C37.3,-6.6 32.5,-13.6 18.7,-13.6 M10.4,-4.5 C10.3,-4.9 10.3,-5.3 10.3,-5.7 C10.3,-6.5 10.5,-7.3 10.9,-8 C11.6,-9 12.8,-9.7 14.3,-10 C15.6,-10.3 16.3,-10.5 18.9,-10.5 L19,-10.5 C23,-10.5 24.3,-6.8 25.4,-3 L25.7,-2 C26.5,0.6 26.9,2.8 26.9,4.5 C26.9,5.7 26.7,6.8 26.3,7.6 C25.7,8.7 24.7,9.4 23,9.8 C22.1,10 20.6,10.1 20.6,10.1 C20.1,10.1 19.7,10.2 19.3,10.2 C16.1,10.2 14.1,9 12.7,4.7 C11.5,1 11.3,-0.1 10.4,-4.5"/>
<path class="Note" transform="matrix(2.3811,0,0,2.3811,1130.97,1451.34)" d="M18.7,-13.6 C4.9,-13.6 0,-6.6 0,-0.1 C0,6.4 4.9,13.4 18.7,13.4 C32.5,13.4 37.3,6.4 37.3,-0.1 C37.3,-6.6 32.5,-13.6 18.7,-13.6 M10.4,-4.5 C10.3,-4.9 10.3,-5.3 10.3,-5.7 C10.3,-6.5 10.5,-7.3 10.9,-8 C11.6,-9 12.8,-9.7 14.3,-10 C15.6,-10.3 16.3,-10.5 18.9,-10.5 L19,-10.5 C23,-10.5 24.3,-6.8 25.4,-3 L25.7,-2 C26.5,0.6 26.9,2.8 26.9,4.5 C26.9,5.7 26.7,6.8 26.3,7.6 C25.7,8.7 24.7,9.4 23,9.8 C22.1,10 20.6,10.1 20.6,10.1 C20.1,10.1 19.7,10.2 19.3,10.2 C16.1,10.2 14.1,9 12.7,4.7 C11.5,1 11.3,-0.1 10.4,-4.5"/>
<path class="Note" transform="matrix(2.3811,0,0,2.3811,1130.97,1391.81)" d="M18.7,-13.6 C4.9,-13.6 0,-6.6 0,-0.1 C0,6.4 4.9,13.4 18.7,13.4 C32.5,13.4 37.3,6.4 37.3,-0.1 C37.3,-6.6 32.5,-13.6 18.7,-13.6 M10.4,-4.5 C10.3,-4.9 10.3,-5.3 10.3,-5.7 C10.3,-6.5 10.5,-7.3 10.9,-8 C11.6,-9 12.8,-9.7 14.3,-10 C15.6,-10.3 16.3,-10.5 18.9,-10.5 L19,-10.5 C23,-10.5 24.3,-6.8 25.4,-3 L25.7,-2 C26.5,0.6 26.9,2.8 26.9,4.5 C26.9,5.7 26.7,6.8 26.3,7.6 C25.7,8.7 24.7,9.4 23,9.8 C22.1,10 20.6,10.1 20.6,10.1 C20.1,10.1 19.7,10.2 19.3,10.2 C16.1,10.2 14.1,9 12.7,4.7 C11.5,1 11.3,-0.1 10.4,-4.5"/>
<path class="Note" transform="matrix(2.3811,0,0,2.3811,1805.68,1600.16)" d="M18.7,-13.6 C4.9,-13.6 0,-6.6 0,-0.1 C0,6.4 4.9,13.4 18.7,13.4 C32.5,13.4 37.3,6.4 37.3,-0.1 C37.3,-6.6 32.5,-13.6 18.7,-13.6 M10.4,-4.5 C10.3,-4.9 10.3,-5.3 10.3,-5.7 C10.3,-6.5 10.5,-7.3 10.9,-8 C11.6,-9 12.8,-9.7 14.3,-10 C15.6,-10.3 16.3,-10.5 18.9,-10.5 L19,-10.5 C23,-10.5 24.3,-6.8 25.4,-3 L25.7,-2 C26.5,0.6 26.9,2.8 26.9,4.5 C26.9,5.7 26.7,6.8 26.3,7.6 C25.7,8.7 24.7,9.4 23,9.8 C22.1,10 20.6,10.1 20.6,10.1 C20.1,10.1 19.7,10.2 19.3,10.2 C16.1,10.2 14.1,9 12.7,4.7 C11.5,1 11.3,-0.1 10.4,-4.5"/>
<path class="Note" transform="matrix(2.3811,0,0,2.3811,1805.68,1540.63)" d="M18.7,-13.6 C4.9,-13.6 0,-6.6 0,-0.1 C0,6.4 4.9,13.4 18.7,13.4 C32.5,13.4 37.3,6.4 37.3,-0.1 C37.3,-6.6 32.5,-13.6 18.7,-13.6 M10.4,-4.5 C10.3,-4.9 10.3,-5.3 10.3,-5.7 C10.3,-6.5 10.5,-7.3 10.9,-8 C11.6,-9 12.8,-9.7 14.3,-10 C15.6,-10.3 16.3,-10.5 18.9,-10.5 L19,-10.5 C23,-10.5 24.3,-6.8 25.4,-3 L25.7,-2 C26.5,0.6 26.9,2.8 26.9,4.5 C26.9,5.7 26.7,6.8 26.3,7.6 C25.7,8.7 24.7,9.4 23,9.8 C22.1,10 20.6,10.1 20.6,10.1 C20.1,10.1 19.7,10.2 19.3,10.2 C16.1,10.2 14.1,9 12.7,4.7 C11.5,1 11.3,-0.1 10.4,-4.5"/>
<path class="Note" transform="matrix(2.3811,0,0,2.3811,1805.68,1451.34)" d="M18.7,-13.6 C4.9,-13.6 0,-6.6 0,-0.1 C0,6.4 4.9,13.4 18.7,13.4 C32.5,13.4 37.3,6.4 37.3,-0.1 C37.3,-6.6 32.5,-13.6 18.7,-13.6 M10.4,-4.5 C10.3,-4.9 10.3,-5.3 10.3,-5.7 C10.3,-6.5 10.5,-7.3 10.9,-8 C11.6,-9 12.8,-9.7 14.3,-10 C15.6,-10.3 16.3,-10.5 18.9,-10.5 L19,-10.5 C23,-10.5 24.3,-6.8 25.4,-3 L25.7,-2 C26.5,0.6 26.9,2.8 26.9,4.5 C26.9,5.7 26.7,6.8 26.3,7.6 C25.7,8.7 24.7,9.4 23,9.8 C22.1,10 20.6,10.1 20.6,10.1 C20.1,10.1 19.7,10.2 19.3,10.2 C16.1,10.2 14.1,9 12.7,4.7 C11.5,1 11.3,-0.1 10.4,-4.5"/>
<path class="Note" transform="matrix(2.3811,0,0,2.3811,2459.09,1540.63)" d="M18.7,-13.6 C4.9,-13.6 0,-6.6 0,-0.1 C0,6.4 4.9,13.4 18.7,13.4 C32.5,13.4 37.3,6.4 37.3,-0.1 C37.3,-6.6 32.5,-13.6 18.7,-13.6 M10.4,-4.5 C10.3,-4.9 10.3,-5.3 10.3,-5.7 C10.3,-6.5 10.5,-7.3 10.9,-8 C11.6,-9 12.8,-9.7 14.3,-10 C15.6,-10.3 16.3,-10.5 18.9,-10.5 L19,-10.5 C23,-10.5 24.3,-6.8 25.4,-3 L25.7,-2 C26.5,0.6 26.9,2.8 26.9,4.5 C26.9,5.7 26.7,6.8 26.3,7.6 C25.7,8.7 24.7,9.4 23,9.8 C22.1,10 20.6,10.1 20.6,10.1 C20.1,10.1 19.7,10.2 19.3,10.2 C16.1,10.2 14.1,9 12.7,4.7 C11.5,1 11.3,-0.1 10.4,-4.5"/>
<path class="Note" transform="matrix(2.3811,0,0,2.3811,2459.09,1451.34)" d="M18.7,-13.6 C4.9,-13.6 0,-6.6 0,-0.1 C0,6.4 4.9,13.4 18.7,13.4 C32.5,13.4 37.3,6.4 37.3,-0.1 C37.3,-6.6 32.5,-13.6 18.7,-13.6 M10.4,-4.5 C10.3,-4.9 10.3,-5.3 10.3,-5.7 C10.3,-6.5 10.5,-7.3 10.9,-8 C11.6,-9 12.8,-9.7 14.3,-10 C15.6,-10.3 16.3,-10.5 18.9,-10.5 L19,-10.5 C23,-10.5 24.3,-6.8 25.4,-3 L25.7,-2 C26.5,0.6 26.9,2.8 26.9,4.5 C26.9,5.7 26.7,6.8 26.3,7.6 C25.7,8.7 24.7,9.4 23,9.8 C22.1,10 20.6,10.1 20.6,10.1 C20.1,10.1 19.7,10.2 19.3,10.2 C16.1,10.2 14.1,9 12.7,4.7 C11.5,1 11.3,-0.1 10.4,-4.5"/>
<path class="Note" transform="matrix(2.3811,0,0,2.3811,3046.2,1600.16)" d="M18.7,-13.6 C4.9,-13.6 0,-6.6 0,-0.1 C0,6.4 4.9,13.4 18.7,13.4 C32.5,13.4 37.3,6.4 37.3,-0.1 C37.3,-6.6 32.5,-13.6 18.7,-13.6 M10.4,-4.5 C10.3,-4.9 10.3,-5.3 10.3,-5.7 C10.3,-6.5 10.5,-7.3 10.9,-8 C11.6,-9 12.8,-9.7 14.3,-10 C15.6,-10.3 16.3,-10.5 18.9,-10.5 L19,-10.5 C23,-10.5 24.3,-6.8 25.4,-3 L25.7,-2 C26.5,0.6 26.9,2.8 26.9,4.5 C26.9,5.7 26.7,6.8 26.3,7.6 C25.7,8.7 24.7,9.4 23,9.8 C22.1,10 20.6,10.1 20.6,10.1 C20.1,10.1 19.7,10.2 19.3,10.2 C16.1,10.2 14.1,9 12.7,4.7 C11.5,1 11.3,-0.1 10.4,-4.5"/>
<path class="Note" transform="matrix(2.3811,0,0,2.3811,3046.2,1540.63)" d="M18.7,-13.6 C4.9,-13.6 0,-6.6 0,-0.1 C0,6.4 4.9,13.4 18.7,13.4 C32.5,13.4 37.3,6.4 37.3,-0.1 C37.3,-6.6 32.5,-13.6 18.7,-13.6 M10.4,-4.5 C10.3,-4.9 10.3,-5.3 10.3,-5.7 C10.3,-6.5 10.5,-7.3 10.9,-8 C11.6,-9 12.8,-9.7 14.3,-10 C15.6,-10.3 16.3,-10.5 18.9,-10.5 L19,-10.5 C23,-10.5 24.3,-6.8 25.4,-3 L25.7,-2 C26.5,0.6 26.9,2.8 26.9,4.5 C26.9,5.7 26.7,6.8 26.3,7.6 C25.7,8.7 24.7,9.4 23,9.8 C22.1,10 20.6,10.1 20.6,10.1 C20.1,10.1 19.7,10.2 19.3,10.2 C16.1,10.2 14.1,9 12.7,4.7 C11.5,1 11.3,-0.1 10.4,-4.5"/>
<path class="Note" transform="matrix(2.3811,0,0,2.3811,3046.2,1451.34)" d="M18.7,-13.6 C4.9,-13.6 0,-6.6 0,-0.1 C0,6.4 4.9,13.4 18.7,13.4 C32.5,13.4 37.3,6.4 37.3,-0.1 C37.3,-6.6 32.5,-13.6 18.7,-13.6 M10.4,-4.5 C10.3,-4.9 10.3,-5.3 10.3,-5.7 C10.3,-6.5 10.5,-7.3 10.9,-8 C11.6,-9 12.8,-9.7 14.3,-10 C15.6,-10.3 16.3,-10.5 18.9,-10.5 L19,-10.5 C23,-10.5 24.3,-6.8 25.4,-3 L25.7,-2 C26.5,0.6 26.9,2.8 26.9,4.5 C26.9,5.7 26.7,6.8 26.3,7.6 C25.7,8.7 24.7,9.4 23,9.8 C22.1,10 20.6,10.1 20.6,10.1 C20.1,10.1 19.7,10.2 19.3,10.2 C16.1,10.2 14.1,9 12.7,4.7 C11.5,1 11.3,-0.1 10.4,-4.5"/>
<path class="Note" transform="matrix(2.3811,0,0,2.3811,3614.63,1540.63)" d="M18.7,-13.6 C4.9,-13.6 0,-6.6 0,-0.1 C0,6.4 4.9,13.4 18.7,13.4 C32.5,13.4 37.3,6.4 37.3,-0.1 C37.3,-6.6 32.5,-13.6 18.7,-13.6 M10.4,-4.5 C10.3,-4.9 10.3,-5.3 10.3,-5.7 C10.3,-6.5 10.5,-7.3 10.9,-8 C11.6,-9 12.8,-9.7 14.3,-10 C15.6,-10.3 16.3,-10.5 18.9,-10.5 L19,-10.5 C23,-10.5 24.3,-6.8 25.4,-3 L25.7,-2 C26.5,0.6 26.9,2.8 26.9,4.5 C26.9,5.7 26.7,6.8 26.3,7.6 C25.7,8.7 24.7,9.4 23,9.8 C22.1,10 20.6,10.1 20.6,10.1 C20.1,10.1 19.7,10.2 19.3,10.2 C16.1,10.2 14.1,9 12.7,4.7 C11.5,1 11.3,-0.1 10.4,-4.5"/>
<path class="Note" transform="matrix(2.3811,0,0,2.3811,3614.63,1451.34)" d="M18.7,-13.6 C4.9,-13.6 0,-6.6 0,-0.1 C0,6.4 4.9,13.4 18.7,13.4 C32.5,13.4 37.3,6.4 37.3,-0.1 C37.3,-6.6 32.5,-13.6 18.7,-13.6 M10.4,-4.5 C10.3,-4.9 10.3,-5.3 10.3,-5.7 C10.3,-6.5 10.5,-7.3 10.9,-8 C11.6,-9 12.8,-9.7 14.3,-10 C15.6,-10.3 16.3,-10.5 18.9,-10.5 L19,-10.5 C23,-10.5 24.3,-6.8 25.4,-3 L25.7,-2 C26.5,0.6 26.9,2.8 26.9,4.5 C26.9,5.7 26.7,6.8 26.3,7.6 C25.7,8.7 24.7,9.4 23,9.8 C22.1,10 20.6,10.1 20.6,10.1 C20.1,10.1 19.7,10.2 19.3,10.2 C16.1,10.2 14.1,9 12.7,4.7 C11.5,1 11.3,-0.1 10.4,-4.5"/>
<path class="Note" d="M544.325,855.79 C544.635,844.091 551.104,833.71 563.733,824.645 C574.966,816.588 587.246,812.559 600.571,812.559 C619.243,812.559 635.706,819.881 649.961,834.523 C659.026,843.898 663.558,855.519 663.558,869.387 C663.558,881.86 660.226,891.428 653.564,898.091 C645.429,906.303 636.829,910.409 627.765,910.409 C621.567,910.409 616.763,909.014 613.355,906.225 C607.776,901.654 604.987,895.534 604.987,887.864 C604.987,877.947 609.946,868.883 619.862,860.671 C627.997,853.93 636.171,849.514 644.383,847.423 C642.214,843.704 639.463,840.218 636.132,836.964 C625.75,826.815 613.974,821.74 600.804,821.74 C587.091,821.74 575.741,824.723 566.754,830.688 C557.457,836.809 549.981,845.176 544.325,855.79 M647.288,853.582 C643.027,857.533 638.766,861.755 634.505,866.249 C626.138,875.081 621.954,883.448 621.954,891.35 C621.954,899.795 623.891,904.017 627.765,904.017 C631.251,904.017 636.132,899.253 642.407,889.723 C647.443,882.131 649.961,875.158 649.961,868.805 C649.961,863.382 649.07,858.308 647.288,853.582"/>
<path class="Note" d="M691.207,526.98 C684.854,536.974 674.821,545.264 661.108,551.849 C649.177,557.582 638.021,560.449 627.64,560.449 C619.35,560.449 612.455,558.783 606.954,555.452 C600.988,551.81 598.006,547.472 598.006,542.436 C598.006,531.047 600.988,521.247 606.954,513.035 C615.089,501.878 623.301,496.3 631.591,496.3 C637.479,496.3 641.662,497.462 644.141,499.787 C647.55,502.808 649.255,506.953 649.255,512.221 C649.255,519.659 643.715,526.128 632.637,531.628 C621.868,536.974 614.391,540.46 610.208,542.087 C611.138,544.024 612.338,545.767 613.81,547.317 C617.452,551.191 622.41,553.127 628.685,553.127 C636.588,553.127 647.202,550.222 660.527,544.412 C673.31,538.756 683.537,532.945 691.207,526.98 M608.581,536.742 C614.391,533.798 619.698,530.35 624.502,526.399 C631.629,520.588 635.193,514.313 635.193,507.573 C635.193,503.777 633.45,501.878 629.964,501.878 C627.02,501.878 622.991,505.249 617.878,511.989 C611.447,520.356 608.232,527.174 608.232,532.442 C608.232,533.914 608.348,535.347 608.581,536.742"/>
<path class="Note" d="M669.475,674.069 C669.475,682.979 659.326,702.541 639.028,732.756 C630.971,744.764 619.389,753.558 604.281,759.136 C593.125,763.319 580.225,765.411 565.583,765.411 C560.857,765.411 556.673,764.443 553.032,762.506 C549.003,760.414 546.989,758.129 546.989,755.65 C546.989,749.219 550.437,746.004 557.332,746.004 C558.339,746.004 558.843,746.624 558.843,747.863 C558.843,748.948 558.339,750.149 557.332,751.466 C556.092,753.093 555.473,754.294 555.473,755.068 C555.473,757.393 558.959,758.555 565.931,758.555 C581.581,758.555 593.938,756.657 603.003,752.86 C612.455,748.987 621.868,739.109 631.242,723.227 L633.915,718.23 C629.421,721.638 624.967,723.343 620.551,723.343 C609.549,723.343 604.049,718.888 604.049,709.979 C604.049,700.372 610.518,690.262 623.456,679.648 C633.605,671.435 642.631,667.329 650.533,667.329 C654.484,667.329 657.777,668.375 660.411,670.467 C661.341,669.77 662.503,669.421 663.897,669.421 C667.616,669.421 669.475,670.971 669.475,674.069 M635.309,715.789 L657.273,675.232 C655.569,674.844 653.671,674.651 651.579,674.651 C644.064,674.651 636.781,679.028 629.731,687.782 C621.519,698.009 617.413,706.182 617.413,712.303 C617.413,716.332 620.086,718.346 625.431,718.346 C627.988,718.346 631.281,717.494 635.309,715.789"/>
<path class="Note" d="M1098.7,855.79 C1099.01,844.091 1105.48,833.71 1118.1,824.645 C1129.34,816.588 1141.62,812.559 1154.94,812.559 C1173.61,812.559 1190.08,819.881 1204.33,834.523 C1213.4,843.898 1217.93,855.519 1217.93,869.387 C1217.93,881.86 1214.6,891.428 1207.93,898.091 C1199.8,906.303 1191.2,910.409 1182.14,910.409 C1175.94,910.409 1171.13,909.014 1167.73,906.225 C1162.15,901.654 1159.36,895.534 1159.36,887.864 C1159.36,877.947 1164.32,868.883 1174.23,860.671 C1182.37,853.93 1190.54,849.514 1198.75,847.423 C1196.58,843.704 1193.83,840.218 1190.5,836.964 C1180.12,826.815 1168.35,821.74 1155.17,821.74 C1141.46,821.74 1130.11,824.723 1121.13,830.688 C1111.83,836.809 1104.35,845.176 1098.7,855.79 M1201.66,853.582 C1197.4,857.533 1193.14,861.755 1188.88,866.249 C1180.51,875.081 1176.33,883.448 1176.33,891.35 C1176.33,899.795 1178.26,904.017 1182.14,904.017 C1185.62,904.017 1190.5,899.253 1196.78,889.723 C1201.81,882.131 1204.33,875.158 1204.33,868.805 C1204.33,863.382 1203.44,858.308 1201.66,853.582"/>
<path class="Note" d="M1224.66,471.896 C1229,468.952 1232.14,466.512 1234.07,464.575 C1237.64,460.778 1239.42,457.292 1239.42,454.116 C1239.42,450.474 1237.4,448.654 1233.38,448.654 C1225.55,448.654 1217.18,455.549 1208.27,469.339 C1205.56,473.523 1199.6,487.158 1190.38,510.246 C1197.74,517.838 1201.42,522.138 1201.42,523.145 C1201.42,524.54 1200.53,525.237 1198.74,525.237 C1197.35,525.237 1193.52,522.874 1187.24,518.148 C1180.42,534.03 1170.08,547.588 1156.21,558.822 C1142.03,570.288 1125.11,576.021 1105.43,576.021 C1097.91,576.021 1088.5,574.278 1077.19,570.791 C1068.12,568.002 1063.59,563.548 1063.59,557.427 C1063.59,548.363 1067.08,543.831 1074.05,543.831 C1078.23,543.831 1080.33,545.767 1080.33,549.641 C1080.33,550.881 1079.36,552.198 1077.42,553.592 C1076.41,554.29 1075.91,555.645 1075.91,557.66 C1075.91,560.061 1078.58,562.541 1083.93,565.097 C1089.74,567.886 1098.26,569.281 1109.49,569.281 C1123.98,569.281 1137.97,563.005 1151.45,550.455 C1163.69,539.066 1172.48,525.818 1177.83,510.71 C1175.74,509.006 1173.49,507.147 1171.09,505.132 C1163.65,500.716 1159.93,496.184 1159.93,491.536 C1159.93,489.599 1161.21,488.63 1163.77,488.63 C1167.17,488.63 1171.78,491.536 1177.59,497.346 C1178.83,498.586 1180,499.748 1181.08,500.832 C1183.79,493.395 1188.13,483.943 1194.1,472.477 C1204.87,451.714 1217.96,441.332 1233.38,441.332 C1238.88,441.332 1243.21,442.378 1246.39,444.47 C1249.57,446.562 1251.16,449.429 1251.16,453.07 C1251.16,458.88 1249.03,463.8 1244.76,467.829 C1240.35,472.012 1235.74,474.104 1230.94,474.104 C1226.75,474.104 1224.66,473.368 1224.66,471.896"/>
<path class="Note" d="M1223.85,674.069 C1223.85,682.979 1213.7,702.541 1193.4,732.756 C1185.34,744.764 1173.76,753.558 1158.65,759.136 C1147.5,763.319 1134.6,765.411 1119.95,765.411 C1115.23,765.411 1111.04,764.443 1107.4,762.506 C1103.37,760.414 1101.36,758.129 1101.36,755.65 C1101.36,749.219 1104.81,746.004 1111.7,746.004 C1112.71,746.004 1113.21,746.624 1113.21,747.863 C1113.21,748.948 1112.71,750.149 1111.7,751.466 C1110.46,753.093 1109.84,754.294 1109.84,755.068 C1109.84,757.393 1113.33,758.555 1120.3,758.555 C1135.95,758.555 1148.31,756.657 1157.37,752.86 C1166.83,748.987 1176.24,739.109 1185.61,723.227 L1188.29,718.23 C1183.79,721.638 1179.34,723.343 1174.92,723.343 C1163.92,723.343 1158.42,718.888 1158.42,709.979 C1158.42,700.372 1164.89,690.262 1177.83,679.648 C1187.98,671.435 1197,667.329 1204.9,667.329 C1208.86,667.329 1212.15,668.375 1214.78,670.467 C1215.71,669.77 1216.87,669.421 1218.27,669.421 C1221.99,669.421 1223.85,670.971 1223.85,674.069 M1189.68,715.789 L1211.64,675.232 C1209.94,674.844 1208.04,674.651 1205.95,674.651 C1198.44,674.651 1191.15,679.028 1184.1,687.782 C1175.89,698.009 1171.78,706.182 1171.78,712.303 C1171.78,716.332 1174.46,718.346 1179.8,718.346 C1182.36,718.346 1185.65,717.494 1189.68,715.789"/>
<path class="Note" d="M1773.41,855.79 C1773.72,844.091 1780.19,833.71 1792.81,824.645 C1804.05,816.588 1816.33,812.559 1829.65,812.559 C1848.32,812.559 1864.79,819.881 1879.04,834.523 C1888.11,843.898 1892.64,855.519 1892.64,869.387 C1892.64,881.86 1889.31,891.428 1882.64,898.091 C1874.51,906.303 1865.91,910.409 1856.85,910.409 C1850.65,910.409 1845.84,909.014 1842.44,906.225 C1836.86,901.654 1834.07,895.534 1834.07,887.864 C1834.07,877.947 1839.03,868.883 1848.94,860.671 C1857.08,853.93 1865.25,849.514 1873.46,847.423 C1871.29,843.704 1868.54,840.218 1865.21,836.964 C1854.83,826.815 1843.06,821.74 1829.88,821.74 C1816.17,821.74 1804.82,824.723 1795.83,830.688 C1786.54,836.809 1779.06,845.176 1773.41,855.79 M1876.37,853.582 C1872.11,857.533 1867.85,861.755 1863.59,866.249 C1855.22,875.081 1851.04,883.448 1851.04,891.35 C1851.04,899.795 1852.97,904.017 1856.85,904.017 C1860.33,904.017 1865.21,899.253 1871.49,889.723 C1876.52,882.131 1879.04,875.158 1879.04,868.805 C1879.04,863.382 1878.15,858.308 1876.37,853.582"/>
<path class="Note" d="M1891.58,581.059 C1902.04,574.474 1909.64,569.09 1914.36,564.906 C1923.04,557.236 1927.38,549.489 1927.38,541.664 C1927.38,532.522 1921.26,527.951 1909.02,527.951 C1896.15,527.951 1882.75,537.209 1868.81,555.725 C1859.35,568.276 1852.65,580.13 1848.7,591.286 C1853.58,588.11 1858.73,586.521 1864.16,586.521 C1869.27,586.521 1873.34,588.807 1876.36,593.378 C1878.45,596.554 1879.5,601.977 1879.5,609.647 C1879.5,616.542 1875.86,624.638 1868.57,633.935 C1864.08,639.668 1859.08,642.535 1853.58,642.535 C1846.61,642.535 1841.73,641.14 1838.94,638.351 C1834.99,634.4 1833.01,626.575 1833.01,614.877 C1833.01,595.198 1840.95,575.83 1856.84,556.771 C1874.73,535.311 1891.89,524.581 1908.32,524.581 C1921.02,524.581 1930.51,527.564 1936.79,533.529 C1940.43,537.015 1942.25,542.051 1942.25,548.637 C1942.25,555.997 1935.01,564.209 1920.52,573.273 C1912.93,578.077 1903.28,580.672 1891.58,581.059 M1847.19,596.167 C1845.25,602.675 1844.29,608.911 1844.29,614.877 C1844.29,629.055 1846.53,636.143 1851.03,636.143 C1855.29,636.143 1858.62,633.122 1861.02,627.079 C1863.81,620.261 1865.2,612.707 1865.2,604.418 C1865.2,597.058 1862.76,593.378 1857.88,593.378 C1854.47,593.378 1850.91,594.307 1847.19,596.167"/>
<path class="Note" d="M1891.58,759.642 C1902.04,753.057 1909.64,747.672 1914.36,743.489 C1923.04,735.819 1927.38,728.071 1927.38,720.247 C1927.38,711.105 1921.26,706.534 1909.02,706.534 C1896.15,706.534 1882.75,715.792 1868.81,734.308 C1859.35,746.859 1852.65,758.712 1848.7,769.869 C1853.58,766.692 1858.73,765.104 1864.16,765.104 C1869.27,765.104 1873.34,767.389 1876.36,771.96 C1878.45,775.137 1879.5,780.56 1879.5,788.23 C1879.5,795.125 1875.86,803.221 1868.57,812.518 C1864.08,818.251 1859.08,821.118 1853.58,821.118 C1846.61,821.118 1841.73,819.723 1838.94,816.934 C1834.99,812.983 1833.01,805.158 1833.01,793.459 C1833.01,773.781 1840.95,754.413 1856.84,735.354 C1874.73,713.894 1891.89,703.164 1908.32,703.164 C1921.02,703.164 1930.51,706.146 1936.79,712.112 C1940.43,715.598 1942.25,720.634 1942.25,727.219 C1942.25,734.579 1935.01,742.791 1920.52,751.856 C1912.93,756.659 1903.28,759.255 1891.58,759.642 M1847.19,774.749 C1845.25,781.257 1844.29,787.494 1844.29,793.459 C1844.29,807.637 1846.53,814.726 1851.03,814.726 C1855.29,814.726 1858.62,811.705 1861.02,805.662 C1863.81,798.844 1865.2,791.29 1865.2,783 C1865.2,775.64 1862.76,771.96 1857.88,771.96 C1854.47,771.96 1850.91,772.89 1847.19,774.749"/>
<path class="Note" d="M1840.22,731.826 C1836.42,731.826 1834.52,727.759 1834.52,719.624 L1834.52,685.574 C1834.52,682.32 1836.11,680.693 1839.29,680.693 C1840.68,680.693 1841.73,680.81 1842.43,681.042 C1844.91,676.704 1848.97,673.062 1854.63,670.118 C1862.53,666.012 1870.55,663.959 1878.68,663.959 C1885.11,663.959 1888.33,666.361 1888.33,671.164 C1888.33,675.193 1886.16,677.207 1881.82,677.207 C1878.72,677.207 1875.78,676.51 1872.99,675.115 C1870.51,673.876 1867.88,673.256 1865.09,673.256 C1860.28,673.256 1853.2,676.394 1843.82,682.669 C1845.14,688.944 1845.8,696.266 1845.8,704.633 C1845.8,722.762 1843.94,731.826 1840.22,731.826"/>
<path class="Note" d="M2426.82,855.79 C2427.13,844.091 2433.6,833.71 2446.22,824.645 C2457.46,816.588 2469.74,812.559 2483.06,812.559 C2501.73,812.559 2518.2,819.881 2532.45,834.523 C2541.52,843.898 2546.05,855.519 2546.05,869.387 C2546.05,881.86 2542.72,891.428 2536.05,898.091 C2527.92,906.303 2519.32,910.409 2510.26,910.409 C2504.06,910.409 2499.25,909.014 2495.85,906.225 C2490.27,901.654 2487.48,895.534 2487.48,887.864 C2487.48,877.947 2492.44,868.883 2502.35,860.671 C2510.49,853.93 2518.66,849.514 2526.87,847.423 C2524.7,843.704 2521.95,840.218 2518.62,836.964 C2508.24,826.815 2496.47,821.74 2483.29,821.74 C2469.58,821.74 2458.23,824.723 2449.24,830.688 C2439.95,836.809 2432.47,845.176 2426.82,855.79 M2529.78,853.582 C2525.52,857.533 2521.26,861.755 2517,866.249 C2508.63,875.081 2504.45,883.448 2504.45,891.35 C2504.45,899.795 2506.38,904.017 2510.26,904.017 C2513.74,904.017 2518.62,899.253 2524.9,889.723 C2529.93,882.131 2532.45,875.158 2532.45,868.805 C2532.45,863.382 2531.56,858.308 2529.78,853.582"/>
<path class="Note" d="M2544.99,759.642 C2555.45,753.057 2563.05,747.672 2567.77,743.489 C2576.45,735.819 2580.79,728.071 2580.79,720.247 C2580.79,711.105 2574.67,706.534 2562.43,706.534 C2549.56,706.534 2536.16,715.792 2522.22,734.308 C2512.76,746.859 2506.06,758.712 2502.11,769.869 C2506.99,766.692 2512.14,765.104 2517.57,765.104 C2522.68,765.104 2526.75,767.389 2529.77,771.96 C2531.86,775.137 2532.91,780.56 2532.91,788.23 C2532.91,795.125 2529.27,803.221 2521.98,812.518 C2517.49,818.251 2512.49,821.118 2506.99,821.118 C2500.02,821.118 2495.14,819.723 2492.35,816.934 C2488.4,812.983 2486.42,805.158 2486.42,793.459 C2486.42,773.781 2494.36,754.413 2510.25,735.354 C2528.14,713.894 2545.3,703.164 2561.73,703.164 C2574.43,703.164 2583.92,706.146 2590.2,712.112 C2593.84,715.598 2595.66,720.634 2595.66,727.219 C2595.66,734.579 2588.42,742.791 2573.93,751.856 C2566.34,756.659 2556.69,759.255 2544.99,759.642 M2500.6,774.749 C2498.66,781.257 2497.7,787.494 2497.7,793.459 C2497.7,807.637 2499.94,814.726 2504.44,814.726 C2508.7,814.726 2512.03,811.705 2514.43,805.662 C2517.22,798.844 2518.61,791.29 2518.61,783 C2518.61,775.64 2516.17,771.96 2511.29,771.96 C2507.88,771.96 2504.32,772.89 2500.6,774.749"/>
<path class="Note" d="M2493.63,731.826 C2489.83,731.826 2487.93,727.759 2487.93,719.624 L2487.93,685.574 C2487.93,682.32 2489.52,680.693 2492.7,680.693 C2494.09,680.693 2495.14,680.81 2495.84,681.042 C2498.32,676.704 2502.38,673.062 2508.04,670.118 C2515.94,666.012 2523.96,663.959 2532.09,663.959 C2538.52,663.959 2541.74,666.361 2541.74,671.164 C2541.74,675.193 2539.57,677.207 2535.23,677.207 C2532.13,677.207 2529.19,676.51 2526.4,675.115 C2523.92,673.876 2521.29,673.256 2518.5,673.256 C2513.69,673.256 2506.61,676.394 2497.23,682.669 C2498.55,688.944 2499.21,696.266 2499.21,704.633 C2499.21,722.762 2497.35,731.826 2493.63,731.826"/>
<path class="Note" d="M3013.93,855.79 C3014.24,844.091 3020.71,833.71 3033.33,824.645 C3044.57,816.588 3056.85,812.559 3070.17,812.559 C3088.84,812.559 3105.31,819.881 3119.56,834.523 C3128.63,843.898 3133.16,855.519 3133.16,869.387 C3133.16,881.86 3129.83,891.428 3123.17,898.091 C3115.03,906.303 3106.43,910.409 3097.37,910.409 C3091.17,910.409 3086.37,909.014 3082.96,906.225 C3077.38,901.654 3074.59,895.534 3074.59,887.864 C3074.59,877.947 3079.55,868.883 3089.46,860.671 C3097.6,853.93 3105.77,849.514 3113.98,847.423 C3111.82,843.704 3109.07,840.218 3105.73,836.964 C3095.35,826.815 3083.58,821.74 3070.41,821.74 C3056.69,821.74 3045.34,824.723 3036.36,830.688 C3027.06,836.809 3019.58,845.176 3013.93,855.79 M3116.89,853.582 C3112.63,857.533 3108.37,861.755 3104.11,866.249 C3095.74,875.081 3091.56,883.448 3091.56,891.35 C3091.56,899.795 3093.49,904.017 3097.37,904.017 C3100.85,904.017 3105.73,899.253 3112.01,889.723 C3117.05,882.131 3119.56,875.158 3119.56,868.805 C3119.56,863.382 3118.67,858.308 3116.89,853.582"/>
<path class="Note" d="M3132.1,581.059 C3142.56,574.474 3150.16,569.09 3154.88,564.906 C3163.56,557.236 3167.9,549.489 3167.9,541.664 C3167.9,532.522 3161.78,527.951 3149.54,527.951 C3136.68,527.951 3123.27,537.209 3109.33,555.725 C3099.88,568.276 3093.17,580.13 3089.22,591.286 C3094.1,588.11 3099.26,586.521 3104.68,586.521 C3109.79,586.521 3113.86,588.807 3116.88,593.378 C3118.97,596.554 3120.02,601.977 3120.02,609.647 C3120.02,616.542 3116.38,624.638 3109.1,633.935 C3104.6,639.668 3099.6,642.535 3094.1,642.535 C3087.13,642.535 3082.25,641.14 3079.46,638.351 C3075.51,634.4 3073.53,626.575 3073.53,614.877 C3073.53,595.198 3081.48,575.83 3097.36,556.771 C3115.25,535.311 3132.41,524.581 3148.84,524.581 C3161.54,524.581 3171.04,527.564 3177.31,533.529 C3180.95,537.015 3182.77,542.051 3182.77,548.637 C3182.77,555.997 3175.53,564.209 3161.04,573.273 C3153.45,578.077 3143.8,580.672 3132.1,581.059 M3087.71,596.167 C3085.78,602.675 3084.81,608.911 3084.81,614.877 C3084.81,629.055 3087.05,636.143 3091.55,636.143 C3095.81,636.143 3099.14,633.122 3101.54,627.079 C3104.33,620.261 3105.72,612.707 3105.72,604.418 C3105.72,597.058 3103.28,593.378 3098.4,593.378 C3094.99,593.378 3091.43,594.307 3087.71,596.167"/>
<path class="Note" d="M3080.74,821.118 C3076.94,821.118 3075.05,817.05 3075.05,808.916 L3075.05,774.866 C3075.05,771.612 3076.63,769.985 3079.81,769.985 C3081.2,769.985 3082.25,770.101 3082.95,770.333 C3085.43,765.995 3089.49,762.354 3095.15,759.41 C3103.05,755.304 3111.07,753.25 3119.21,753.25 C3125.64,753.25 3128.85,755.652 3128.85,760.456 C3128.85,764.484 3126.68,766.499 3122.34,766.499 C3119.24,766.499 3116.3,765.801 3113.51,764.407 C3111.03,763.167 3108.4,762.547 3105.61,762.547 C3100.81,762.547 3093.72,765.685 3084.34,771.96 C3085.66,778.236 3086.32,785.557 3086.32,793.924 C3086.32,812.053 3084.46,821.118 3080.74,821.118"/>
<path class="Note" d="M3013.93,677.207 C3014.24,665.509 3020.71,655.127 3033.33,646.063 C3044.57,638.005 3056.85,633.977 3070.17,633.977 C3088.84,633.977 3105.31,641.298 3119.56,655.941 C3128.63,665.315 3133.16,676.936 3133.16,690.804 C3133.16,703.277 3129.83,712.845 3123.17,719.508 C3115.03,727.72 3106.43,731.826 3097.37,731.826 C3091.17,731.826 3086.37,730.432 3082.96,727.643 C3077.38,723.072 3074.59,716.951 3074.59,709.281 C3074.59,699.365 3079.55,690.3 3089.46,682.088 C3097.6,675.348 3105.77,670.932 3113.98,668.84 C3111.82,665.121 3109.07,661.635 3105.73,658.381 C3095.35,648.232 3083.58,643.157 3070.41,643.157 C3056.69,643.157 3045.34,646.14 3036.36,652.106 C3027.06,658.226 3019.58,666.593 3013.93,677.207 M3116.89,674.999 C3112.63,678.95 3108.37,683.173 3104.11,687.666 C3095.74,696.498 3091.56,704.865 3091.56,712.768 C3091.56,721.212 3093.49,725.435 3097.37,725.435 C3100.85,725.435 3105.73,720.67 3112.01,711.141 C3117.05,703.548 3119.56,696.576 3119.56,690.223 C3119.56,684.8 3118.67,679.725 3116.89,674.999"/>
<path class="Note" d="M3582.36,855.79 C3582.67,844.091 3589.14,833.71 3601.77,824.645 C3613,816.588 3625.28,812.559 3638.61,812.559 C3657.28,812.559 3673.74,819.881 3688,834.523 C3697.06,843.898 3701.59,855.519 3701.59,869.387 C3701.59,881.86 3698.26,891.428 3691.6,898.091 C3683.47,906.303 3674.87,910.409 3665.8,910.409 C3659.6,910.409 3654.8,909.014 3651.39,906.225 C3645.81,901.654 3643.02,895.534 3643.02,887.864 C3643.02,877.947 3647.98,868.883 3657.9,860.671 C3666.03,853.93 3674.21,849.514 3682.42,847.423 C3680.25,843.704 3677.5,840.218 3674.17,836.964 C3663.79,826.815 3652.01,821.74 3638.84,821.74 C3625.13,821.74 3613.78,824.723 3604.79,830.688 C3595.49,836.809 3588.02,845.176 3582.36,855.79 M3685.32,853.582 C3681.06,857.533 3676.8,861.755 3672.54,866.249 C3664.17,875.081 3659.99,883.448 3659.99,891.35 C3659.99,899.795 3661.93,904.017 3665.8,904.017 C3669.29,904.017 3674.17,899.253 3680.44,889.723 C3685.48,882.131 3688,875.158 3688,868.805 C3688,863.382 3687.11,858.308 3685.32,853.582"/>
<path class="Note" d="M3649.17,821.118 C3645.38,821.118 3643.48,817.05 3643.48,808.916 L3643.48,774.866 C3643.48,771.612 3645.07,769.985 3648.24,769.985 C3649.64,769.985 3650.68,770.101 3651.38,770.333 C3653.86,765.995 3657.93,762.354 3663.58,759.41 C3671.49,755.304 3679.51,753.25 3687.64,753.25 C3694.07,753.25 3697.29,755.652 3697.29,760.456 C3697.29,764.484 3695.12,766.499 3690.78,766.499 C3687.68,766.499 3684.73,765.801 3681.95,764.407 C3679.47,763.167 3676.83,762.547 3674.04,762.547 C3669.24,762.547 3662.15,765.685 3652.78,771.96 C3654.09,778.236 3654.75,785.557 3654.75,793.924 C3654.75,812.053 3652.89,821.118 3649.17,821.118"/>
<path class="Note" d="M3582.36,677.207 C3582.67,665.509 3589.14,655.127 3601.77,646.063 C3613,638.005 3625.28,633.977 3638.61,633.977 C3657.28,633.977 3673.74,641.298 3688,655.941 C3697.06,665.315 3701.59,676.936 3701.59,690.804 C3701.59,703.277 3698.26,712.845 3691.6,719.508 C3683.47,727.72 3674.87,731.826 3665.8,731.826 C3659.6,731.826 3654.8,730.432 3651.39,727.643 C3645.81,723.072 3643.02,716.951 3643.02,709.281 C3643.02,699.365 3647.98,690.3 3657.9,682.088 C3666.03,675.348 3674.21,670.932 3682.42,668.84 C3680.25,665.121 3677.5,661.635 3674.17,658.381 C3663.79,648.232 3652.01,643.157 3638.84,643.157 C3625.13,643.157 3613.78,646.14 3604.79,652.106 C3595.49,658.226 3588.02,666.593 3582.36,677.207 M3685.32,674.999 C3681.06,678.95 3676.8,683.173 3672.54,687.666 C3664.17,696.498 3659.99,704.865 3659.99,712.768 C3659.99,721.212 3661.93,725.435 3665.8,725.435 C3669.29,725.435 3674.17,720.67 3680.44,711.141 C3685.48,703.548 3688,696.576 3688,690.223 C3688,684.8 3687.11,679.725 3685.32,674.999"/>
<path class="Clef" transform="matrix(2.3811,0,0,2.3811,212.156,2158.79)" d="M25.4,-25.1 C17.8,-25.1 11.7,-20.7 11.6,-20.7 C5.8,-16.4 3.5,-11.3 2.6,-7.8 C2.1,-6 1.9,-4.2 1.9,-2.5 C1.9,-0.1 2.3,2.1 3.2,4 C4.4,6.7 6.7,8.6 9.7,9.6 C10.9,10 12.2,10.2 13.5,10.2 C15.7,10.2 18,9.6 19.9,8.5 C23,6.8 24.9,3.2 24.9,-0.7 C24.9,-4.2 23.1,-7.4 20.1,-9.3 C18,-10.7 16,-11.1 14.3,-11.1 C13.1,-11.1 12,-10.9 11.1,-10.6 C10.1,-10.2 8.4,-9.2 7.6,-8.5 C7.9,-10.4 9.1,-13.3 10.2,-14.9 C11.3,-16.5 13.5,-18.5 15.2,-19.4 C17.7,-20.8 20.9,-21.4 24.4,-21.4 C34.6,-21.4 39.6,-13.2 39.6,3.6 C39.6,12.9 36.1,21.8 33.1,27.7 C29.8,34.3 25.4,40.6 21.5,44.1 C11.1,53.6 1.3,58.1 1.2,58.1 C1.2,58.1 -0.3,59 0.1,60.5 C0.4,61.5 1.3,61.7 1.9,61.7 C2,61.7 2.3,61.6 2.4,61.6 C2.5,61.6 13.9,56.9 23,49.8 C28.1,46.1 32.7,42.1 36.7,37.8 C40.3,33.9 43.4,29.7 45.9,25.5 C50.3,18 52.8,10.2 52.8,3.5 C52.8,-4.8 50.6,-11.7 46.5,-16.6 C41.8,-22.2 34.7,-25.1 25.4,-25.1 M56.8,-12.4 C56.8,-9.6 59,-7.4 61.6,-7.4 C64.2,-7.4 66.4,-9.6 66.4,-12.4 C66.4,-15.2 64.2,-17.5 61.6,-17.5 C59,-17.5 56.8,-15.2 56.8,-12.4 M56.8,12.3 C56.8,15.1 59,17.4 61.6,17.4 C64.2,17.4 66.4,15.1 66.4,12.3 C66.4,9.5 64.2,7.2 61.6,7.2 C59,7.2 56.8,9.5 56.8,12.3"/>
<path class="Clef" transform="matrix(2.3811,0,0,2.3811,212.156,1570.39)" d="M63.37,-5.89004 C62.14,-11.32 59.5,-15.14 58.72,-16.1801 C55.5301,-20.45 51.52,-23.3 46.8301,-24.65 C43.72,-25.54 40.72,-25.65 38.3,-25.47 C37.2601,-31.4801 36.2601,-37.3601 35.35,-42.8101 C40.79,-48.97 44.42,-54.77 46.69,-59.07 C50.1601,-65.65 51.3101,-70.2301 51.3601,-70.4301 C53.0801,-75.64 53.44,-83.34 52.34,-91.55 C51.3301,-99.1 49.24,-105.81 46.89,-109.06 C45.8601,-110.49 44.8101,-111.22 43.77,-111.22 C42.55,-111.22 40.04,-109.98 37.15,-107.21 C34.85,-105.01 31.5801,-101.12 29.02,-95.1101 C26.02,-88.05 25.8101,-78.5601 26.1601,-71.84 C26.54,-64.57 27.65,-58.8801 27.6601,-58.8301 C27.6801,-58.74 27.94,-57.24 28.39,-54.67 C28.1601,-54.44 27.92,-54.22 27.67,-53.9801 C26.6301,-52.9801 25.44,-51.84 24.0601,-50.4601 C23.2,-49.6 22.25,-48.69 21.25,-47.72 C12.79,-39.57 0,-27.25 0,-8.1 C0,-3.4 0.9,1.01992 2.68008,5.02998 C4.27002,8.62998 6.57002,11.91 9.5,14.78 C17.2301,22.33 27.82,25.5399 34.8801,25.38 C37.8301,25.31 40.4601,25.0699 42.85,24.6199 C44.6801,34.2199 45.82,41.25 45.8601,46.5899 C45.9,53.1 44.25,57.0699 40.35,59.8399 C37.92,61.5699 35.1101,62.5199 32.0101,62.6699 C29.42,62.7899 27.1601,62.3199 25.7301,61.91 L25.72,61.91 C25.72,61.91 25.4301,61.83 25.42,61.63 C25.4101,61.45 25.7601,61.4 25.77,61.4 L25.79,61.4 C27.7101,60.96 31.2801,59.73 33.64,56.43 C35.44,53.91 36.3101,49.2899 34.47,45.35 C33.3601,42.96 30.85,40.01 25.2301,39.56 C22.74,39.36 20.47,39.8699 18.47,41.0699 C16.6601,42.15 15.1601,43.7899 14.1101,45.7899 C11.65,50.4899 12.1101,56.2199 15.24,60.06 C18.2,63.68 22.82,65.9899 28.25,66.5699 C29.1,66.66 29.95,66.7 30.8,66.7 C31.5101,66.7 32.22,66.6699 32.92,66.61 C31.72,66.9399 30.64,67.4899 29.77,68.25 C28.2801,69.5399 27.44,71.38 27.44,73.41 C27.44,75.28 28.0601,76.65 29.55,78.0399 C28.4101,78.5 27.55,78.98 26.79,79.56 C25.25,80.73 24.34,82.46 24.34,84.1899 C24.34,87.45 27.3,89.63 31.72,89.63 C37.1301,89.63 40.9101,86.63 40.9101,82.35 C40.9101,80.1199 39.9101,78.18 38.0801,76.83 C41.0101,75.6199 42.37,73.9399 42.37,71.56 C42.39,70.05 41.69,68.61 40.49,67.6899 C39.2801,66.7399 37.62,66.2399 35.69,66.2399 L35.5101,66.2399 C38.2801,65.7 40.92,64.7 43.2101,63.28 C46.87,60.71 48.99,56.73 49.67,51.1 C50.2301,46.46 49.84,40.55 48.44,32.48 C48.0801,30.3899 47.54,27.36 46.8801,23.6 C52.6301,21.68 56.79,18.11 60.5601,12.26 C63.85,6.51992 64.8,0.419922 63.37,-5.89004 M32.39,87.5399 C30.19,87.5399 28.7301,86.1199 28.7301,84.01 C28.7301,82.11 29.65,80.5 31.32,79.4699 C31.6801,79.66 31.77,79.71 32.1101,79.88 C33.3,80.48 33.3,80.48 33.55,80.63 L33.5601,80.6399 C35.47,81.73 36.25,82.76 36.25,84.18 C36.24,86.0899 34.59,87.5399 32.39,87.5399 M38.3101,71.63 C38.3101,73.2699 37.7301,74.3399 36.1801,75.53 C34.74,74.78 34.35,74.56 33.9801,74.3399 L33.8801,74.28 C32.3301,73.3399 31.85,72.66 31.85,71.4 C31.85,69.6 33.2301,68.3399 35.19,68.3399 C37.17,68.35 38.3101,69.55 38.3101,71.63 M33.15,-83.8101 C34.9301,-89.55 37.67,-92.8 39.6601,-94.5301 C41.4101,-96.05 43.0601,-96.7601 43.9801,-96.7601 C44.12,-96.7601 44.24,-96.74 44.34,-96.7101 C44.8,-96.57 45.3301,-96 45.8,-95.1301 C48.1101,-90.84 47.37,-84.1301 46.0301,-79.69 C44.4,-74.29 41.4801,-68.6801 32.69,-59.0601 C32.52,-60.17 32.3601,-61.22 32.2101,-62.2 C30.95,-70.49 31.27,-77.7601 33.15,-83.8101 M29.15,20.31 C24.5101,19.0899 20.0801,16.5899 16.32,13.0899 C15.0101,11.86 13.14,9.68994 11.67,6.3 C10.3101,3.13994 9.65,-0.290039 9.7,-3.88008 C9.77002,-8.57002 11.0801,-13.39 13.59,-18.1801 C16.5101,-23.7601 21.07,-29.29 27.1301,-34.62 C28.5801,-35.9 29.95,-37.1801 31.24,-38.4601 C32,-34.2 32.8301,-29.5101 33.7101,-24.6301 C29.8601,-23.3601 25.1101,-20.2101 22,-14.5601 C18.47,-7.99004 18.6101,-2.47002 19.34,1.00996 C20.2801,5.46992 22.8101,9.22998 26.27,11.3199 C27.2,11.88 31.3301,14.01 33.17,13.43 C33.54,13.31 33.8101,13.0899 33.95,12.76 C34.4601,11.5899 33.44,10.95 31.8801,9.98994 C31.2801,9.61992 30.6101,9.2 29.8801,8.66992 C26.5601,6.17998 25.1101,1.72998 26.1801,-2.65 C26.7601,-5.05 28.04,-7.21006 29.8801,-8.91006 C31.55,-10.4601 33.59,-11.5601 35.97,-12.2 C38.0101,-0.960059 40.07,10.1899 41.7101,18.55 C41.84,19.2399 41.9801,19.91 42.1101,20.58 C37.7101,21.51 33.37,21.4199 29.15,20.31 M54.9,10.1 C53.7301,13.28 51.27,17.35 46.14,19.41 C46.07,18.9899 45.99,18.56 45.9101,18.13 C44.3601,9.36992 42.4301,-1.61006 40.47,-12.87 C50.82,-13.35 55.09,-5.91006 55.9801,-1.08008 C56.45,1.45 56.45,5.88994 54.9,10.1"/>
<path class="FiguredBass" d="M623.784,2472.56 C619.207,2472.56 616.161,2474.4 614.645,2478.08 C613.13,2481.76 612.373,2486.97 612.373,2493.71 L612.373,2504.66 C615.589,2503.36 618.372,2502.68 620.722,2502.62 C628.762,2502.62 635.087,2504.4 639.694,2507.95 C644.302,2511.51 646.606,2516.8 646.606,2523.82 C646.606,2530.84 644.271,2536.14 639.602,2539.73 C634.932,2543.32 628.639,2545.11 620.722,2545.11 C612.62,2545.11 606.28,2541.35 601.704,2533.84 C597.127,2526.32 594.838,2517.4 594.838,2507.07 C594.838,2496.81 597.498,2487.9 602.817,2480.35 C608.136,2472.81 615.125,2469.04 623.784,2469.04 C629.474,2469.04 634.391,2470.47 638.535,2473.35 C642.678,2476.23 644.75,2480.01 644.75,2484.71 C644.75,2487.44 643.761,2489.79 641.782,2491.76 C639.803,2493.74 637.437,2494.73 634.685,2494.73 C631.932,2494.73 629.567,2493.74 627.587,2491.76 C625.608,2489.79 624.619,2487.44 624.619,2484.71 C624.619,2482.05 625.608,2479.7 627.587,2477.66 C628.268,2476.86 629.226,2476.18 630.463,2475.62 C630.154,2474.82 629.536,2474.2 628.608,2473.77 C627.247,2472.96 625.639,2472.56 623.784,2472.56 M628.33,2510.5 C627.216,2507.6 624.773,2506.14 621,2506.14 C617.228,2506.14 614.893,2507.6 613.996,2510.5 C613.099,2513.41 612.651,2517.83 612.651,2523.77 C612.651,2530.76 613.099,2535.46 613.996,2537.87 C614.893,2540.29 617.228,2541.49 621,2541.49 C624.773,2541.49 627.216,2540.04 628.33,2537.13 C629.443,2534.22 629.999,2529.79 629.999,2523.82 C629.999,2517.85 629.443,2513.41 628.33,2510.5"/>
<path class="FiguredBass" d="M612.278,2625.44 L612.278,2635.46 L612.278,2637.13 C612.278,2640.9 612.432,2644.24 612.742,2647.15 C615.71,2644.61 618.03,2642.54 619.7,2640.93 C621.37,2639.32 622.993,2637.13 624.57,2634.35 C626.147,2631.56 626.936,2628.79 626.936,2626.04 C626.936,2623.29 626.348,2620.89 625.173,2618.85 C623.998,2616.81 622.39,2615.79 620.349,2615.79 C617.999,2615.79 616.097,2616.73 614.643,2618.62 C613.19,2620.51 612.401,2622.78 612.278,2625.44 M605.876,2652.62 L604.114,2570.42 C605.413,2569.62 606.773,2569.2 608.196,2569.17 C609.618,2569.14 610.979,2569.56 612.278,2570.42 L611.257,2614.58 C615.339,2611.18 619.947,2609.48 625.081,2609.48 C628.915,2609.48 632.131,2611.03 634.729,2614.12 C637.327,2617.21 638.625,2620.83 638.625,2624.98 C638.625,2627.82 637.821,2630.53 636.213,2633.09 C634.605,2635.66 632.904,2637.72 631.111,2639.26 C629.317,2640.81 626.58,2642.94 622.9,2645.66 C619.22,2648.39 617.009,2650.06 616.267,2650.67 C615.772,2651.11 615.107,2651.88 614.272,2652.99 C613.437,2654.11 612.649,2654.96 611.907,2655.54 C611.164,2656.13 610.33,2656.43 609.402,2656.43 C608.412,2656.43 607.577,2656.07 606.897,2655.36 C606.217,2654.65 605.876,2653.74 605.876,2652.62"/>
<path class="FiguredBass" d="M1178.15,2472.56 C1173.58,2472.56 1170.53,2474.4 1169.02,2478.08 C1167.5,2481.76 1166.74,2486.97 1166.74,2493.71 L1166.74,2504.66 C1169.96,2503.36 1172.74,2502.68 1175.09,2502.62 C1183.13,2502.62 1189.46,2504.4 1194.07,2507.95 C1198.67,2511.51 1200.98,2516.8 1200.98,2523.82 C1200.98,2530.84 1198.64,2536.14 1193.97,2539.73 C1189.3,2543.32 1183.01,2545.11 1175.09,2545.11 C1166.99,2545.11 1160.65,2541.35 1156.07,2533.84 C1151.5,2526.32 1149.21,2517.4 1149.21,2507.07 C1149.21,2496.81 1151.87,2487.9 1157.19,2480.35 C1162.51,2472.81 1169.5,2469.04 1178.15,2469.04 C1183.84,2469.04 1188.76,2470.47 1192.91,2473.35 C1197.05,2476.23 1199.12,2480.01 1199.12,2484.71 C1199.12,2487.44 1198.13,2489.79 1196.15,2491.76 C1194.17,2493.74 1191.81,2494.73 1189.06,2494.73 C1186.3,2494.73 1183.94,2493.74 1181.96,2491.76 C1179.98,2489.79 1178.99,2487.44 1178.99,2484.71 C1178.99,2482.05 1179.98,2479.7 1181.96,2477.66 C1182.64,2476.86 1183.6,2476.18 1184.83,2475.62 C1184.53,2474.82 1183.91,2474.2 1182.98,2473.77 C1181.62,2472.96 1180.01,2472.56 1178.15,2472.56 M1182.7,2510.5 C1181.59,2507.6 1179.14,2506.14 1175.37,2506.14 C1171.6,2506.14 1169.26,2507.6 1168.37,2510.5 C1167.47,2513.41 1167.02,2517.83 1167.02,2523.77 C1167.02,2530.76 1167.47,2535.46 1168.37,2537.87 C1169.26,2540.29 1171.6,2541.49 1175.37,2541.49 C1179.14,2541.49 1181.59,2540.04 1182.7,2537.13 C1183.81,2534.22 1184.37,2529.79 1184.37,2523.82 C1184.37,2517.85 1183.81,2513.41 1182.7,2510.5"/>
<path class="FiguredBass" d="M1169.34,2641.21 L1169.34,2660.6 C1169.34,2662.52 1168.37,2663.48 1166.42,2663.48 C1164.47,2663.48 1163.5,2662.52 1163.5,2660.6 L1163.5,2643.72 L1160.53,2644.92 C1160.22,2645.05 1159.82,2645.11 1159.32,2645.11 C1158.52,2645.11 1157.81,2644.8 1157.19,2644.18 C1156.57,2643.56 1156.26,2642.85 1156.26,2642.05 L1156.26,2632.58 C1156.26,2631.22 1156.91,2630.26 1158.21,2629.71 L1163.5,2627.48 L1163.5,2608 L1160.53,2609.2 C1160.34,2609.27 1160.09,2609.3 1159.79,2609.3 C1159.66,2609.3 1159.51,2609.3 1159.32,2609.3 C1158.39,2609.17 1157.65,2608.83 1157.1,2608.28 C1156.54,2607.72 1156.26,2607.07 1156.26,2606.33 L1156.26,2596.87 C1156.26,2595.57 1156.91,2594.64 1158.21,2594.08 L1163.5,2591.86 L1163.5,2572.09 C1163.5,2570.18 1164.47,2569.22 1166.42,2569.22 C1168.37,2569.22 1169.34,2570.18 1169.34,2572.09 L1169.34,2589.44 L1181.31,2584.43 L1181.31,2565.04 C1181.31,2563.13 1182.27,2562.17 1184.18,2562.17 C1186.1,2562.17 1187.06,2563.13 1187.06,2565.04 L1187.06,2582.11 L1190.31,2580.72 C1190.62,2580.6 1190.96,2580.54 1191.33,2580.54 C1192.13,2580.54 1192.86,2580.85 1193.51,2581.46 C1194.16,2582.08 1194.48,2582.79 1194.48,2583.6 L1194.48,2593.06 C1194.48,2594.42 1193.8,2595.38 1192.44,2595.94 L1187.06,2598.16 L1187.06,2617.74 L1190.31,2616.44 C1190.49,2616.38 1190.71,2616.35 1190.96,2616.35 C1191.08,2616.35 1191.2,2616.35 1191.33,2616.35 C1192.38,2616.53 1193.17,2616.87 1193.69,2617.37 C1194.22,2617.86 1194.48,2618.51 1194.48,2619.32 L1194.48,2628.78 C1194.48,2630.08 1193.8,2631.01 1192.44,2631.56 L1187.06,2633.79 L1187.06,2653.55 C1187.06,2655.47 1186.1,2656.43 1184.18,2656.43 C1182.27,2656.43 1181.31,2655.47 1181.31,2653.55 L1181.31,2636.2 L1169.34,2641.21 M1169.34,2625.07 L1181.31,2620.15 L1181.31,2600.58 L1169.34,2605.59 L1169.34,2625.07 "/>
<path class="FiguredBass" d="M1852.86,2472.56 C1848.29,2472.56 1845.24,2474.4 1843.73,2478.08 C1842.21,2481.76 1841.45,2486.97 1841.45,2493.71 L1841.45,2504.66 C1844.67,2503.36 1847.45,2502.68 1849.8,2502.62 C1857.84,2502.62 1864.17,2504.4 1868.78,2507.95 C1873.38,2511.51 1875.69,2516.8 1875.69,2523.82 C1875.69,2530.84 1873.35,2536.14 1868.68,2539.73 C1864.01,2543.32 1857.72,2545.11 1849.8,2545.11 C1841.7,2545.11 1835.36,2541.35 1830.78,2533.84 C1826.21,2526.32 1823.92,2517.4 1823.92,2507.07 C1823.92,2496.81 1826.58,2487.9 1831.9,2480.35 C1837.22,2472.81 1844.21,2469.04 1852.86,2469.04 C1858.55,2469.04 1863.47,2470.47 1867.62,2473.35 C1871.76,2476.23 1873.83,2480.01 1873.83,2484.71 C1873.83,2487.44 1872.84,2489.79 1870.86,2491.76 C1868.88,2493.74 1866.52,2494.73 1863.77,2494.73 C1861.01,2494.73 1858.65,2493.74 1856.67,2491.76 C1854.69,2489.79 1853.7,2487.44 1853.7,2484.71 C1853.7,2482.05 1854.69,2479.7 1856.67,2477.66 C1857.35,2476.86 1858.31,2476.18 1859.54,2475.62 C1859.23,2474.82 1858.62,2474.2 1857.69,2473.77 C1856.33,2472.96 1854.72,2472.56 1852.86,2472.56 M1857.41,2510.5 C1856.3,2507.6 1853.85,2506.14 1850.08,2506.14 C1846.31,2506.14 1843.97,2507.6 1843.08,2510.5 C1842.18,2513.41 1841.73,2517.83 1841.73,2523.77 C1841.73,2530.76 1842.18,2535.46 1843.08,2537.87 C1843.97,2540.29 1846.31,2541.49 1850.08,2541.49 C1853.85,2541.49 1856.3,2540.04 1857.41,2537.13 C1858.52,2534.22 1859.08,2529.79 1859.08,2523.82 C1859.08,2517.85 1858.52,2513.41 1857.41,2510.5"/>
<path class="FiguredBass" d="M1841.36,2625.44 L1841.36,2635.46 L1841.36,2637.13 C1841.36,2640.9 1841.51,2644.24 1841.82,2647.15 C1844.79,2644.61 1847.11,2642.54 1848.78,2640.93 C1850.45,2639.32 1852.07,2637.13 1853.65,2634.35 C1855.23,2631.56 1856.02,2628.79 1856.02,2626.04 C1856.02,2623.29 1855.43,2620.89 1854.25,2618.85 C1853.08,2616.81 1851.47,2615.79 1849.43,2615.79 C1847.08,2615.79 1845.18,2616.73 1843.72,2618.62 C1842.27,2620.51 1841.48,2622.78 1841.36,2625.44 M1834.96,2652.62 L1833.19,2570.42 C1834.49,2569.62 1835.85,2569.2 1837.28,2569.17 C1838.7,2569.14 1840.06,2569.56 1841.36,2570.42 L1840.34,2614.58 C1844.42,2611.18 1849.03,2609.48 1854.16,2609.48 C1858,2609.48 1861.21,2611.03 1863.81,2614.12 C1866.41,2617.21 1867.71,2620.83 1867.71,2624.98 C1867.71,2627.82 1866.9,2630.53 1865.29,2633.09 C1863.69,2635.66 1861.99,2637.72 1860.19,2639.26 C1858.4,2640.81 1855.66,2642.94 1851.98,2645.66 C1848.3,2648.39 1846.09,2650.06 1845.35,2650.67 C1844.85,2651.11 1844.19,2651.88 1843.35,2652.99 C1842.52,2654.11 1841.73,2654.96 1840.99,2655.54 C1840.25,2656.13 1839.41,2656.43 1838.48,2656.43 C1837.49,2656.43 1836.66,2656.07 1835.98,2655.36 C1835.3,2654.65 1834.96,2653.74 1834.96,2652.62"/>
<path class="FiguredBass" d="M2506.27,2472.56 C2501.7,2472.56 2498.65,2474.4 2497.14,2478.08 C2495.62,2481.76 2494.86,2486.97 2494.86,2493.71 L2494.86,2504.66 C2498.08,2503.36 2500.86,2502.68 2503.21,2502.62 C2511.25,2502.62 2517.58,2504.4 2522.19,2507.95 C2526.79,2511.51 2529.1,2516.8 2529.1,2523.82 C2529.1,2530.84 2526.76,2536.14 2522.09,2539.73 C2517.42,2543.32 2511.13,2545.11 2503.21,2545.11 C2495.11,2545.11 2488.77,2541.35 2484.19,2533.84 C2479.62,2526.32 2477.33,2517.4 2477.33,2507.07 C2477.33,2496.81 2479.99,2487.9 2485.31,2480.35 C2490.63,2472.81 2497.62,2469.04 2506.27,2469.04 C2511.96,2469.04 2516.88,2470.47 2521.03,2473.35 C2525.17,2476.23 2527.24,2480.01 2527.24,2484.71 C2527.24,2487.44 2526.25,2489.79 2524.27,2491.76 C2522.29,2493.74 2519.93,2494.73 2517.18,2494.73 C2514.42,2494.73 2512.06,2493.74 2510.08,2491.76 C2508.1,2489.79 2507.11,2487.44 2507.11,2484.71 C2507.11,2482.05 2508.1,2479.7 2510.08,2477.66 C2510.76,2476.86 2511.72,2476.18 2512.95,2475.62 C2512.64,2474.82 2512.03,2474.2 2511.1,2473.77 C2509.74,2472.96 2508.13,2472.56 2506.27,2472.56 M2510.82,2510.5 C2509.71,2507.6 2507.26,2506.14 2503.49,2506.14 C2499.72,2506.14 2497.38,2507.6 2496.49,2510.5 C2495.59,2513.41 2495.14,2517.83 2495.14,2523.77 C2495.14,2530.76 2495.59,2535.46 2496.49,2537.87 C2497.38,2540.29 2499.72,2541.49 2503.49,2541.49 C2507.26,2541.49 2509.71,2540.04 2510.82,2537.13 C2511.93,2534.22 2512.49,2529.79 2512.49,2523.82 C2512.49,2517.85 2511.93,2513.41 2510.82,2510.5"/>
<path class="FiguredBass" d="M2494.77,2625.44 L2494.77,2635.46 L2494.77,2637.13 C2494.77,2640.9 2494.92,2644.24 2495.23,2647.15 C2498.2,2644.61 2500.52,2642.54 2502.19,2640.93 C2503.86,2639.32 2505.48,2637.13 2507.06,2634.35 C2508.64,2631.56 2509.43,2628.79 2509.43,2626.04 C2509.43,2623.29 2508.84,2620.89 2507.66,2618.85 C2506.49,2616.81 2504.88,2615.79 2502.84,2615.79 C2500.49,2615.79 2498.59,2616.73 2497.13,2618.62 C2495.68,2620.51 2494.89,2622.78 2494.77,2625.44 M2488.37,2652.62 L2486.6,2570.42 C2487.9,2569.62 2489.26,2569.2 2490.69,2569.17 C2492.11,2569.14 2493.47,2569.56 2494.77,2570.42 L2493.75,2614.58 C2497.83,2611.18 2502.44,2609.48 2507.57,2609.48 C2511.41,2609.48 2514.62,2611.03 2517.22,2614.12 C2519.82,2617.21 2521.12,2620.83 2521.12,2624.98 C2521.12,2627.82 2520.31,2630.53 2518.7,2633.09 C2517.1,2635.66 2515.4,2637.72 2513.6,2639.26 C2511.81,2640.81 2509.07,2642.94 2505.39,2645.66 C2501.71,2648.39 2499.5,2650.06 2498.76,2650.67 C2498.26,2651.11 2497.6,2651.88 2496.76,2652.99 C2495.93,2654.11 2495.14,2654.96 2494.4,2655.54 C2493.66,2656.13 2492.82,2656.43 2491.89,2656.43 C2490.9,2656.43 2490.07,2656.07 2489.39,2655.36 C2488.71,2654.65 2488.37,2653.74 2488.37,2652.62"/>
<path class="FiguredBass" d="M3093.39,2472.56 C3088.81,2472.56 3085.76,2474.4 3084.25,2478.08 C3082.73,2481.76 3081.97,2486.97 3081.97,2493.71 L3081.97,2504.66 C3085.19,2503.36 3087.97,2502.68 3090.32,2502.62 C3098.36,2502.62 3104.69,2504.4 3109.3,2507.95 C3113.9,2511.51 3116.21,2516.8 3116.21,2523.82 C3116.21,2530.84 3113.87,2536.14 3109.2,2539.73 C3104.53,2543.32 3098.24,2545.11 3090.32,2545.11 C3082.22,2545.11 3075.88,2541.35 3071.31,2533.84 C3066.73,2526.32 3064.44,2517.4 3064.44,2507.07 C3064.44,2496.81 3067.1,2487.9 3072.42,2480.35 C3077.74,2472.81 3084.73,2469.04 3093.39,2469.04 C3099.08,2469.04 3103.99,2470.47 3108.14,2473.35 C3112.28,2476.23 3114.35,2480.01 3114.35,2484.71 C3114.35,2487.44 3113.36,2489.79 3111.38,2491.76 C3109.4,2493.74 3107.04,2494.73 3104.29,2494.73 C3101.53,2494.73 3099.17,2493.74 3097.19,2491.76 C3095.21,2489.79 3094.22,2487.44 3094.22,2484.71 C3094.22,2482.05 3095.21,2479.7 3097.19,2477.66 C3097.87,2476.86 3098.83,2476.18 3100.07,2475.62 C3099.76,2474.82 3099.14,2474.2 3098.21,2473.77 C3096.85,2472.96 3095.24,2472.56 3093.39,2472.56 M3097.93,2510.5 C3096.82,2507.6 3094.38,2506.14 3090.6,2506.14 C3086.83,2506.14 3084.49,2507.6 3083.6,2510.5 C3082.7,2513.41 3082.25,2517.83 3082.25,2523.77 C3082.25,2530.76 3082.7,2535.46 3083.6,2537.87 C3084.49,2540.29 3086.83,2541.49 3090.6,2541.49 C3094.38,2541.49 3096.82,2540.04 3097.93,2537.13 C3099.04,2534.22 3099.6,2529.79 3099.6,2523.82 C3099.6,2517.85 3099.04,2513.41 3097.93,2510.5"/>
<path class="FiguredBass" d="M3084.57,2641.21 L3084.57,2660.6 C3084.57,2662.52 3083.6,2663.48 3081.65,2663.48 C3079.7,2663.48 3078.73,2662.52 3078.73,2660.6 L3078.73,2643.72 L3075.76,2644.92 C3075.45,2645.05 3075.05,2645.11 3074.55,2645.11 C3073.75,2645.11 3073.04,2644.8 3072.42,2644.18 C3071.8,2643.56 3071.49,2642.85 3071.49,2642.05 L3071.49,2632.58 C3071.49,2631.22 3072.14,2630.26 3073.44,2629.71 L3078.73,2627.48 L3078.73,2608 L3075.76,2609.2 C3075.57,2609.27 3075.33,2609.3 3075.02,2609.3 C3074.89,2609.3 3074.74,2609.3 3074.55,2609.3 C3073.62,2609.17 3072.88,2608.83 3072.33,2608.28 C3071.77,2607.72 3071.49,2607.07 3071.49,2606.33 L3071.49,2596.87 C3071.49,2595.57 3072.14,2594.64 3073.44,2594.08 L3078.73,2591.86 L3078.73,2572.09 C3078.73,2570.18 3079.7,2569.22 3081.65,2569.22 C3083.6,2569.22 3084.57,2570.18 3084.57,2572.09 L3084.57,2589.44 L3096.54,2584.43 L3096.54,2565.04 C3096.54,2563.13 3097.5,2562.17 3099.42,2562.17 C3101.33,2562.17 3102.29,2563.13 3102.29,2565.04 L3102.29,2582.11 L3105.54,2580.72 C3105.85,2580.6 3106.19,2580.54 3106.56,2580.54 C3107.36,2580.54 3108.09,2580.85 3108.74,2581.46 C3109.39,2582.08 3109.71,2582.79 3109.71,2583.6 L3109.71,2593.06 C3109.71,2594.42 3109.03,2595.38 3107.67,2595.94 L3102.29,2598.16 L3102.29,2617.74 L3105.54,2616.44 C3105.72,2616.38 3105.94,2616.35 3106.19,2616.35 C3106.31,2616.35 3106.44,2616.35 3106.56,2616.35 C3107.61,2616.53 3108.4,2616.87 3108.93,2617.37 C3109.45,2617.86 3109.71,2618.51 3109.71,2619.32 L3109.71,2628.78 C3109.71,2630.08 3109.03,2631.01 3107.67,2631.56 L3102.29,2633.79 L3102.29,2653.55 C3102.29,2655.47 3101.33,2656.43 3099.42,2656.43 C3097.5,2656.43 3096.54,2655.47 3096.54,2653.55 L3096.54,2636.2 L3084.57,2641.21 M3084.57,2625.07 L3096.54,2620.15 L3096.54,2600.58 L3084.57,2605.59 L3084.57,2625.07 "/>
<path class="FiguredBass" d="M3661.82,2472.56 C3657.24,2472.56 3654.2,2474.4 3652.68,2478.08 C3651.17,2481.76 3650.41,2486.97 3650.41,2493.71 L3650.41,2504.66 C3653.63,2503.36 3656.41,2502.68 3658.76,2502.62 C3666.8,2502.62 3673.12,2504.4 3677.73,2507.95 C3682.34,2511.51 3684.64,2516.8 3684.64,2523.82 C3684.64,2530.84 3682.31,2536.14 3677.64,2539.73 C3672.97,2543.32 3666.68,2545.11 3658.76,2545.11 C3650.66,2545.11 3644.32,2541.35 3639.74,2533.84 C3635.16,2526.32 3632.87,2517.4 3632.87,2507.07 C3632.87,2496.81 3635.53,2487.9 3640.85,2480.35 C3646.17,2472.81 3653.16,2469.04 3661.82,2469.04 C3667.51,2469.04 3672.43,2470.47 3676.57,2473.35 C3680.71,2476.23 3682.79,2480.01 3682.79,2484.71 C3682.79,2487.44 3681.8,2489.79 3679.82,2491.76 C3677.84,2493.74 3675.47,2494.73 3672.72,2494.73 C3669.97,2494.73 3667.6,2493.74 3665.62,2491.76 C3663.64,2489.79 3662.66,2487.44 3662.66,2484.71 C3662.66,2482.05 3663.64,2479.7 3665.62,2477.66 C3666.3,2476.86 3667.26,2476.18 3668.5,2475.62 C3668.19,2474.82 3667.57,2474.2 3666.64,2473.77 C3665.28,2472.96 3663.68,2472.56 3661.82,2472.56 M3666.37,2510.5 C3665.25,2507.6 3662.81,2506.14 3659.04,2506.14 C3655.26,2506.14 3652.93,2507.6 3652.03,2510.5 C3651.14,2513.41 3650.69,2517.83 3650.69,2523.77 C3650.69,2530.76 3651.14,2535.46 3652.03,2537.87 C3652.93,2540.29 3655.26,2541.49 3659.04,2541.49 C3662.81,2541.49 3665.25,2540.04 3666.37,2537.13 C3667.48,2534.22 3668.04,2529.79 3668.04,2523.82 C3668.04,2517.85 3667.48,2513.41 3666.37,2510.5"/>
<path class="FiguredBass" d="M3653.01,2641.21 L3653.01,2660.6 C3653.01,2662.52 3652.03,2663.48 3650.08,2663.48 C3648.14,2663.48 3647.16,2662.52 3647.16,2660.6 L3647.16,2643.72 L3644.19,2644.92 C3643.88,2645.05 3643.48,2645.11 3642.99,2645.11 C3642.18,2645.11 3641.47,2644.8 3640.85,2644.18 C3640.23,2643.56 3639.93,2642.85 3639.93,2642.05 L3639.93,2632.58 C3639.93,2631.22 3640.57,2630.26 3641.87,2629.71 L3647.16,2627.48 L3647.16,2608 L3644.19,2609.2 C3644.01,2609.27 3643.76,2609.3 3643.45,2609.3 C3643.33,2609.3 3643.17,2609.3 3642.99,2609.3 C3642.06,2609.17 3641.32,2608.83 3640.76,2608.28 C3640.2,2607.72 3639.93,2607.07 3639.93,2606.33 L3639.93,2596.87 C3639.93,2595.57 3640.57,2594.64 3641.87,2594.08 L3647.16,2591.86 L3647.16,2572.09 C3647.16,2570.18 3648.14,2569.22 3650.08,2569.22 C3652.03,2569.22 3653.01,2570.18 3653.01,2572.09 L3653.01,2589.44 L3664.97,2584.43 L3664.97,2565.04 C3664.97,2563.13 3665.93,2562.17 3667.85,2562.17 C3669.77,2562.17 3670.73,2563.13 3670.73,2565.04 L3670.73,2582.11 L3673.97,2580.72 C3674.28,2580.6 3674.62,2580.54 3674.99,2580.54 C3675.8,2580.54 3676.52,2580.85 3677.17,2581.46 C3677.82,2582.08 3678.15,2582.79 3678.15,2583.6 L3678.15,2593.06 C3678.15,2594.42 3677.47,2595.38 3676.11,2595.94 L3670.73,2598.16 L3670.73,2617.74 L3673.97,2616.44 C3674.16,2616.38 3674.38,2616.35 3674.62,2616.35 C3674.75,2616.35 3674.87,2616.35 3674.99,2616.35 C3676.05,2616.53 3676.83,2616.87 3677.36,2617.37 C3677.89,2617.86 3678.15,2618.51 3678.15,2619.32 L3678.15,2628.78 C3678.15,2630.08 3677.47,2631.01 3676.11,2631.56 L3670.73,2633.79 L3670.73,2653.55 C3670.73,2655.47 3669.77,2656.43 3667.85,2656.43 C3665.93,2656.43 3664.97,2655.47 3664.97,2653.55 L3664.97,2636.2 L3653.01,2641.21 M3653.01,2625.07 L3664.97,2620.15 L3664.97,2600.58 L3653.01,2605.59 L3653.01,2625.07 "/>
<path class="FiguredBass" d="M632.133,1793.87 C637.081,1788.49 639.555,1783.29 639.555,1778.28 C639.555,1774.2 637.808,1770.98 634.313,1768.63 C630.819,1766.28 626.629,1765.11 621.743,1765.11 C618.279,1765.11 615.511,1766.19 613.439,1768.35 C611.367,1770.52 610.331,1773.02 610.331,1775.87 C610.331,1779.33 611.847,1781.96 614.877,1783.75 L632.133,1793.87 M636.679,1796.46 C645.091,1801.35 649.296,1807.78 649.296,1815.76 C649.296,1821.76 646.73,1826.91 641.596,1831.21 C636.463,1835.51 629.443,1837.66 620.537,1837.66 C613.053,1837.66 606.543,1835.68 601.008,1831.72 C595.472,1827.76 592.705,1822.63 592.705,1816.32 C592.705,1813.97 593.385,1811.59 594.746,1809.17 C596.106,1806.76 597.374,1804.95 598.549,1803.75 C599.724,1802.54 601.642,1800.67 604.301,1798.13 C598.116,1793.87 595.024,1788.49 595.024,1781.99 C595.024,1776.43 597.405,1771.63 602.167,1767.61 C606.93,1763.59 613.455,1761.58 621.743,1761.58 C628.36,1761.58 634.097,1763.08 638.952,1766.08 C643.807,1769.08 646.235,1773.15 646.235,1778.28 C646.235,1783.79 643.05,1789.85 636.679,1796.46 M608.847,1800.83 C602.539,1806.33 599.384,1811.49 599.384,1816.32 C599.384,1821.39 601.487,1825.63 605.693,1829.03 C609.899,1832.43 614.846,1834.13 620.537,1834.13 C624.495,1834.13 627.665,1832.86 630.046,1830.33 C632.427,1827.79 633.618,1824.85 633.618,1821.51 C633.618,1817.25 631.855,1814.09 628.33,1812.05 L608.847,1800.83 "/>
<path class="FiguredBass" d="M623.784,1870.86 C619.207,1870.86 616.161,1872.7 614.645,1876.38 C613.13,1880.06 612.373,1885.27 612.373,1892.01 L612.373,1902.96 C615.589,1901.66 618.372,1900.98 620.722,1900.92 C628.762,1900.92 635.087,1902.69 639.694,1906.25 C644.302,1909.81 646.606,1915.09 646.606,1922.11 C646.606,1929.13 644.271,1934.44 639.602,1938.03 C634.932,1941.61 628.639,1943.41 620.722,1943.41 C612.62,1943.41 606.28,1939.65 601.704,1932.13 C597.127,1924.62 594.838,1915.7 594.838,1905.37 C594.838,1895.1 597.498,1886.2 602.817,1878.65 C608.136,1871.1 615.125,1867.33 623.784,1867.33 C629.474,1867.33 634.391,1868.77 638.535,1871.65 C642.678,1874.52 644.75,1878.31 644.75,1883.01 C644.75,1885.73 643.761,1888.08 641.782,1890.06 C639.803,1892.04 637.437,1893.03 634.685,1893.03 C631.932,1893.03 629.567,1892.04 627.587,1890.06 C625.608,1888.08 624.619,1885.73 624.619,1883.01 C624.619,1880.35 625.608,1878 627.587,1875.96 C628.268,1875.16 629.226,1874.48 630.463,1873.92 C630.154,1873.11 629.536,1872.5 628.608,1872.06 C627.247,1871.26 625.639,1870.86 623.784,1870.86 M628.33,1908.8 C627.216,1905.89 624.773,1904.44 621,1904.44 C617.228,1904.44 614.893,1905.89 613.996,1908.8 C613.099,1911.71 612.651,1916.13 612.651,1922.07 C612.651,1929.06 613.099,1933.76 613.996,1936.17 C614.893,1938.58 617.228,1939.79 621,1939.79 C624.773,1939.79 627.216,1938.33 628.33,1935.43 C629.443,1932.52 629.999,1928.08 629.999,1922.11 C629.999,1916.15 629.443,1911.71 628.33,1908.8"/>
<path class="FiguredBass" d="M1186.5,1793.87 C1191.45,1788.49 1193.93,1783.29 1193.93,1778.28 C1193.93,1774.2 1192.18,1770.98 1188.68,1768.63 C1185.19,1766.28 1181,1765.11 1176.11,1765.11 C1172.65,1765.11 1169.88,1766.19 1167.81,1768.35 C1165.74,1770.52 1164.7,1773.02 1164.7,1775.87 C1164.7,1779.33 1166.22,1781.96 1169.25,1783.75 L1186.5,1793.87 M1191.05,1796.46 C1199.46,1801.35 1203.67,1807.78 1203.67,1815.76 C1203.67,1821.76 1201.1,1826.91 1195.97,1831.21 C1190.83,1835.51 1183.81,1837.66 1174.91,1837.66 C1167.42,1837.66 1160.91,1835.68 1155.38,1831.72 C1149.84,1827.76 1147.08,1822.63 1147.08,1816.32 C1147.08,1813.97 1147.76,1811.59 1149.12,1809.17 C1150.48,1806.76 1151.75,1804.95 1152.92,1803.75 C1154.1,1802.54 1156.01,1800.67 1158.67,1798.13 C1152.49,1793.87 1149.39,1788.49 1149.39,1781.99 C1149.39,1776.43 1151.78,1771.63 1156.54,1767.61 C1161.3,1763.59 1167.83,1761.58 1176.11,1761.58 C1182.73,1761.58 1188.47,1763.08 1193.32,1766.08 C1198.18,1769.08 1200.61,1773.15 1200.61,1778.28 C1200.61,1783.79 1197.42,1789.85 1191.05,1796.46 M1163.22,1800.83 C1156.91,1806.33 1153.76,1811.49 1153.76,1816.32 C1153.76,1821.39 1155.86,1825.63 1160.06,1829.03 C1164.27,1832.43 1169.22,1834.13 1174.91,1834.13 C1178.87,1834.13 1182.04,1832.86 1184.42,1830.33 C1186.8,1827.79 1187.99,1824.85 1187.99,1821.51 C1187.99,1817.25 1186.23,1814.09 1182.7,1812.05 L1163.22,1800.83 "/>
<path class="FiguredBass" d="M1178.15,1870.86 C1173.58,1870.86 1170.53,1872.7 1169.02,1876.38 C1167.5,1880.06 1166.74,1885.27 1166.74,1892.01 L1166.74,1902.96 C1169.96,1901.66 1172.74,1900.98 1175.09,1900.92 C1183.13,1900.92 1189.46,1902.69 1194.07,1906.25 C1198.67,1909.81 1200.98,1915.09 1200.98,1922.11 C1200.98,1929.13 1198.64,1934.44 1193.97,1938.03 C1189.3,1941.61 1183.01,1943.41 1175.09,1943.41 C1166.99,1943.41 1160.65,1939.65 1156.07,1932.13 C1151.5,1924.62 1149.21,1915.7 1149.21,1905.37 C1149.21,1895.1 1151.87,1886.2 1157.19,1878.65 C1162.51,1871.1 1169.5,1867.33 1178.15,1867.33 C1183.84,1867.33 1188.76,1868.77 1192.91,1871.65 C1197.05,1874.52 1199.12,1878.31 1199.12,1883.01 C1199.12,1885.73 1198.13,1888.08 1196.15,1890.06 C1194.17,1892.04 1191.81,1893.03 1189.06,1893.03 C1186.3,1893.03 1183.94,1892.04 1181.96,1890.06 C1179.98,1888.08 1178.99,1885.73 1178.99,1883.01 C1178.99,1880.35 1179.98,1878 1181.96,1875.96 C1182.64,1875.16 1183.6,1874.48 1184.83,1873.92 C1184.53,1873.11 1183.91,1872.5 1182.98,1872.06 C1181.62,1871.26 1180.01,1870.86 1178.15,1870.86 M1182.7,1908.8 C1181.59,1905.89 1179.14,1904.44 1175.37,1904.44 C1171.6,1904.44 1169.26,1905.89 1168.37,1908.8 C1167.47,1911.71 1167.02,1916.13 1167.02,1922.07 C1167.02,1929.06 1167.47,1933.76 1168.37,1936.17 C1169.26,1938.58 1171.6,1939.79 1175.37,1939.79 C1179.14,1939.79 1181.59,1938.33 1182.7,1935.43 C1183.81,1932.52 1184.37,1928.08 1184.37,1922.11 C1184.37,1916.15 1183.81,1911.71 1182.7,1908.8"/>
<path class="FiguredBass" d="M1852.86,1765.11 C1848.29,1765.11 1845.24,1766.95 1843.73,1770.63 C1842.21,1774.31 1841.45,1779.52 1841.45,1786.26 L1841.45,1797.21 C1844.67,1795.91 1847.45,1795.23 1849.8,1795.17 C1857.84,1795.17 1864.17,1796.94 1868.78,1800.5 C1873.38,1804.06 1875.69,1809.34 1875.69,1816.36 C1875.69,1823.38 1873.35,1828.69 1868.68,1832.28 C1864.01,1835.86 1857.72,1837.66 1849.8,1837.66 C1841.7,1837.66 1835.36,1833.9 1830.78,1826.38 C1826.21,1818.87 1823.92,1809.95 1823.92,1799.62 C1823.92,1789.35 1826.58,1780.45 1831.9,1772.9 C1837.22,1765.35 1844.21,1761.58 1852.86,1761.58 C1858.55,1761.58 1863.47,1763.02 1867.62,1765.9 C1871.76,1768.77 1873.83,1772.56 1873.83,1777.26 C1873.83,1779.98 1872.84,1782.33 1870.86,1784.31 C1868.88,1786.29 1866.52,1787.28 1863.77,1787.28 C1861.01,1787.28 1858.65,1786.29 1856.67,1784.31 C1854.69,1782.33 1853.7,1779.98 1853.7,1777.26 C1853.7,1774.6 1854.69,1772.25 1856.67,1770.21 C1857.35,1769.41 1858.31,1768.73 1859.54,1768.17 C1859.23,1767.36 1858.62,1766.75 1857.69,1766.31 C1856.33,1765.51 1854.72,1765.11 1852.86,1765.11 M1857.41,1803.05 C1856.3,1800.14 1853.85,1798.69 1850.08,1798.69 C1846.31,1798.69 1843.97,1800.14 1843.08,1803.05 C1842.18,1805.96 1841.73,1810.38 1841.73,1816.32 C1841.73,1823.31 1842.18,1828.01 1843.08,1830.42 C1843.97,1832.83 1846.31,1834.04 1850.08,1834.04 C1853.85,1834.04 1856.3,1832.58 1857.41,1829.68 C1858.52,1826.77 1859.08,1822.33 1859.08,1816.36 C1859.08,1810.4 1858.52,1805.96 1857.41,1803.05"/>
<path class="FiguredBass" d="M1864.74,1903.05 C1864.74,1904.04 1865.3,1905 1866.41,1905.93 C1867.52,1906.85 1868.74,1907.73 1870.07,1908.57 C1871.4,1909.4 1872.63,1910.98 1873.74,1913.3 C1874.85,1915.62 1875.41,1918.54 1875.41,1922.07 C1875.41,1928.87 1872.84,1934.13 1867.71,1937.84 C1862.57,1941.55 1856.08,1943.41 1848.23,1943.41 C1841.92,1943.41 1836.43,1941.83 1831.76,1938.67 C1827.09,1935.52 1824.75,1931.38 1824.75,1926.24 C1824.75,1923.52 1825.74,1921.16 1827.72,1919.15 C1829.7,1917.14 1832.07,1916.13 1834.82,1916.13 C1837.57,1916.13 1839.91,1917.12 1841.82,1919.1 C1843.74,1921.08 1844.7,1923.46 1844.7,1926.24 C1844.7,1927.48 1843.68,1928.83 1841.64,1930.28 C1839.6,1931.73 1838.58,1933.08 1838.58,1934.31 C1838.58,1936.23 1839.52,1937.64 1841.41,1938.54 C1843.29,1939.43 1845.57,1939.88 1848.23,1939.88 C1851.69,1939.88 1854.15,1938.16 1855.6,1934.73 C1857.05,1931.3 1857.78,1927.08 1857.78,1922.07 L1857.78,1919.66 C1857.78,1916.32 1857.67,1913.78 1857.46,1912.05 C1857.24,1910.32 1856.56,1908.77 1855.42,1907.41 C1854.27,1906.05 1852.52,1905.37 1850.17,1905.37 L1838.02,1905.37 C1836.6,1905.37 1835.89,1904.6 1835.89,1903.05 C1835.89,1901.63 1836.6,1900.92 1838.02,1900.92 L1850.17,1900.92 C1852.71,1900.92 1854.69,1899.96 1856.11,1898.04 C1856.61,1897.36 1857.01,1896.25 1857.32,1894.7 C1857.63,1892.66 1857.78,1889.72 1857.78,1885.89 L1857.78,1884.68 C1857.78,1875.47 1854.38,1870.86 1847.58,1870.86 C1841.58,1870.86 1838.58,1872.53 1838.58,1875.87 C1838.58,1876.98 1839.49,1878.17 1841.31,1879.44 C1843.14,1880.71 1844.05,1881.9 1844.05,1883.01 C1844.05,1885.42 1843.2,1887.49 1841.5,1889.23 C1839.8,1890.96 1837.73,1891.82 1835.28,1891.82 C1832.84,1891.82 1830.78,1890.96 1829.11,1889.23 C1827.44,1887.49 1826.61,1885.42 1826.61,1883.01 C1826.61,1878.25 1828.68,1874.44 1832.83,1871.6 C1836.97,1868.75 1841.89,1867.33 1847.58,1867.33 C1855.06,1867.33 1861.21,1868.77 1866.04,1871.65 C1870.86,1874.52 1873.27,1878.87 1873.27,1884.68 C1873.27,1888.82 1872.84,1892.04 1871.98,1894.33 C1871.11,1896.62 1870.12,1898.01 1869.01,1898.5 C1867.89,1899 1866.9,1899.57 1866.04,1900.22 C1865.17,1900.87 1864.74,1901.81 1864.74,1903.05"/>
<path class="FiguredBass" d="M1861.21,2005.37 C1866.16,1999.99 1868.64,1994.79 1868.64,1989.78 C1868.64,1985.7 1866.89,1982.48 1863.39,1980.13 C1859.9,1977.78 1855.71,1976.61 1850.82,1976.61 C1847.36,1976.61 1844.59,1977.69 1842.52,1979.85 C1840.45,1982.02 1839.41,1984.52 1839.41,1987.37 C1839.41,1990.83 1840.93,1993.46 1843.96,1995.25 L1861.21,2005.37 M1865.76,2007.96 C1874.17,2012.85 1878.38,2019.28 1878.38,2027.26 C1878.38,2033.26 1875.81,2038.41 1870.68,2042.71 C1865.54,2047.01 1858.52,2049.16 1849.62,2049.16 C1842.13,2049.16 1835.62,2047.18 1830.09,2043.22 C1824.55,2039.26 1821.79,2034.13 1821.79,2027.82 C1821.79,2025.47 1822.47,2023.09 1823.83,2020.67 C1825.19,2018.26 1826.45,2016.45 1827.63,2015.25 C1828.81,2014.04 1830.72,2012.17 1833.38,2009.63 C1827.2,2005.37 1824.1,1999.99 1824.1,1993.49 C1824.1,1987.93 1826.49,1983.13 1831.25,1979.11 C1836.01,1975.09 1842.54,1973.08 1850.82,1973.08 C1857.44,1973.08 1863.18,1974.58 1868.03,1977.58 C1872.89,1980.58 1875.32,1984.65 1875.32,1989.78 C1875.32,1995.29 1872.13,2001.35 1865.76,2007.96 M1837.93,2012.33 C1831.62,2017.83 1828.47,2022.99 1828.47,2027.82 C1828.47,2032.89 1830.57,2037.13 1834.77,2040.53 C1838.98,2043.93 1843.93,2045.63 1849.62,2045.63 C1853.58,2045.63 1856.75,2044.36 1859.13,2041.83 C1861.51,2039.29 1862.7,2036.35 1862.7,2033.01 C1862.7,2028.75 1860.94,2025.59 1857.41,2023.55 L1837.93,2012.33 "/>
<path class="FiguredBass" d="M2506.27,1765.11 C2501.7,1765.11 2498.65,1766.95 2497.14,1770.63 C2495.62,1774.31 2494.86,1779.52 2494.86,1786.26 L2494.86,1797.21 C2498.08,1795.91 2500.86,1795.23 2503.21,1795.17 C2511.25,1795.17 2517.58,1796.94 2522.19,1800.5 C2526.79,1804.06 2529.1,1809.34 2529.1,1816.36 C2529.1,1823.38 2526.76,1828.69 2522.09,1832.28 C2517.42,1835.86 2511.13,1837.66 2503.21,1837.66 C2495.11,1837.66 2488.77,1833.9 2484.19,1826.38 C2479.62,1818.87 2477.33,1809.95 2477.33,1799.62 C2477.33,1789.35 2479.99,1780.45 2485.31,1772.9 C2490.63,1765.35 2497.62,1761.58 2506.27,1761.58 C2511.96,1761.58 2516.88,1763.02 2521.03,1765.9 C2525.17,1768.77 2527.24,1772.56 2527.24,1777.26 C2527.24,1779.98 2526.25,1782.33 2524.27,1784.31 C2522.29,1786.29 2519.93,1787.28 2517.18,1787.28 C2514.42,1787.28 2512.06,1786.29 2510.08,1784.31 C2508.1,1782.33 2507.11,1779.98 2507.11,1777.26 C2507.11,1774.6 2508.1,1772.25 2510.08,1770.21 C2510.76,1769.41 2511.72,1768.73 2512.95,1768.17 C2512.64,1767.36 2512.03,1766.75 2511.1,1766.31 C2509.74,1765.51 2508.13,1765.11 2506.27,1765.11 M2510.82,1803.05 C2509.71,1800.14 2507.26,1798.69 2503.49,1798.69 C2499.72,1798.69 2497.38,1800.14 2496.49,1803.05 C2495.59,1805.96 2495.14,1810.38 2495.14,1816.32 C2495.14,1823.31 2495.59,1828.01 2496.49,1830.42 C2497.38,1832.83 2499.72,1834.04 2503.49,1834.04 C2507.26,1834.04 2509.71,1832.58 2510.82,1829.68 C2511.93,1826.77 2512.49,1822.33 2512.49,1816.36 C2512.49,1810.4 2511.93,1805.96 2510.82,1803.05"/>
<path class="FiguredBass" d="M2518.15,1903.05 C2518.15,1904.04 2518.71,1905 2519.82,1905.93 C2520.93,1906.85 2522.15,1907.73 2523.48,1908.57 C2524.81,1909.4 2526.04,1910.98 2527.15,1913.3 C2528.26,1915.62 2528.82,1918.54 2528.82,1922.07 C2528.82,1928.87 2526.25,1934.13 2521.12,1937.84 C2515.98,1941.55 2509.49,1943.41 2501.64,1943.41 C2495.33,1943.41 2489.84,1941.83 2485.17,1938.67 C2480.5,1935.52 2478.16,1931.38 2478.16,1926.24 C2478.16,1923.52 2479.15,1921.16 2481.13,1919.15 C2483.11,1917.14 2485.48,1916.13 2488.23,1916.13 C2490.98,1916.13 2493.32,1917.12 2495.23,1919.1 C2497.15,1921.08 2498.11,1923.46 2498.11,1926.24 C2498.11,1927.48 2497.09,1928.83 2495.05,1930.28 C2493.01,1931.73 2491.99,1933.08 2491.99,1934.31 C2491.99,1936.23 2492.93,1937.64 2494.82,1938.54 C2496.7,1939.43 2498.98,1939.88 2501.64,1939.88 C2505.1,1939.88 2507.56,1938.16 2509.01,1934.73 C2510.46,1931.3 2511.19,1927.08 2511.19,1922.07 L2511.19,1919.66 C2511.19,1916.32 2511.08,1913.78 2510.87,1912.05 C2510.65,1910.32 2509.97,1908.77 2508.83,1907.41 C2507.68,1906.05 2505.93,1905.37 2503.58,1905.37 L2491.43,1905.37 C2490.01,1905.37 2489.3,1904.6 2489.3,1903.05 C2489.3,1901.63 2490.01,1900.92 2491.43,1900.92 L2503.58,1900.92 C2506.12,1900.92 2508.1,1899.96 2509.52,1898.04 C2510.02,1897.36 2510.42,1896.25 2510.73,1894.7 C2511.04,1892.66 2511.19,1889.72 2511.19,1885.89 L2511.19,1884.68 C2511.19,1875.47 2507.79,1870.86 2500.99,1870.86 C2494.99,1870.86 2491.99,1872.53 2491.99,1875.87 C2491.99,1876.98 2492.9,1878.17 2494.72,1879.44 C2496.55,1880.71 2497.46,1881.9 2497.46,1883.01 C2497.46,1885.42 2496.61,1887.49 2494.91,1889.23 C2493.21,1890.96 2491.14,1891.82 2488.69,1891.82 C2486.25,1891.82 2484.19,1890.96 2482.52,1889.23 C2480.85,1887.49 2480.02,1885.42 2480.02,1883.01 C2480.02,1878.25 2482.09,1874.44 2486.24,1871.6 C2490.38,1868.75 2495.3,1867.33 2500.99,1867.33 C2508.47,1867.33 2514.62,1868.77 2519.45,1871.65 C2524.27,1874.52 2526.68,1878.87 2526.68,1884.68 C2526.68,1888.82 2526.25,1892.04 2525.39,1894.33 C2524.52,1896.62 2523.53,1898.01 2522.42,1898.5 C2521.3,1899 2520.31,1899.57 2519.45,1900.22 C2518.58,1900.87 2518.15,1901.81 2518.15,1903.05"/>
<path class="FiguredBass" d="M3093.39,1765.11 C3088.81,1765.11 3085.76,1766.95 3084.25,1770.63 C3082.73,1774.31 3081.97,1779.52 3081.97,1786.26 L3081.97,1797.21 C3085.19,1795.91 3087.97,1795.23 3090.32,1795.17 C3098.36,1795.17 3104.69,1796.94 3109.3,1800.5 C3113.9,1804.06 3116.21,1809.34 3116.21,1816.36 C3116.21,1823.38 3113.87,1828.69 3109.2,1832.28 C3104.53,1835.86 3098.24,1837.66 3090.32,1837.66 C3082.22,1837.66 3075.88,1833.9 3071.31,1826.38 C3066.73,1818.87 3064.44,1809.95 3064.44,1799.62 C3064.44,1789.35 3067.1,1780.45 3072.42,1772.9 C3077.74,1765.35 3084.73,1761.58 3093.39,1761.58 C3099.08,1761.58 3103.99,1763.02 3108.14,1765.9 C3112.28,1768.77 3114.35,1772.56 3114.35,1777.26 C3114.35,1779.98 3113.36,1782.33 3111.38,1784.31 C3109.4,1786.29 3107.04,1787.28 3104.29,1787.28 C3101.53,1787.28 3099.17,1786.29 3097.19,1784.31 C3095.21,1782.33 3094.22,1779.98 3094.22,1777.26 C3094.22,1774.6 3095.21,1772.25 3097.19,1770.21 C3097.87,1769.41 3098.83,1768.73 3100.07,1768.17 C3099.76,1767.36 3099.14,1766.75 3098.21,1766.31 C3096.85,1765.51 3095.24,1765.11 3093.39,1765.11 M3097.93,1803.05 C3096.82,1800.14 3094.38,1798.69 3090.6,1798.69 C3086.83,1798.69 3084.49,1800.14 3083.6,1803.05 C3082.7,1805.96 3082.25,1810.38 3082.25,1816.32 C3082.25,1823.31 3082.7,1828.01 3083.6,1830.42 C3084.49,1832.83 3086.83,1834.04 3090.6,1834.04 C3094.38,1834.04 3096.82,1832.58 3097.93,1829.68 C3099.04,1826.77 3099.6,1822.33 3099.6,1816.36 C3099.6,1810.4 3099.04,1805.96 3097.93,1803.05"/>
<path class="FiguredBass" d="M3105.26,1903.05 C3105.26,1904.04 3105.82,1905 3106.93,1905.93 C3108.04,1906.85 3109.27,1907.73 3110.6,1908.57 C3111.92,1909.4 3113.15,1910.98 3114.26,1913.3 C3115.37,1915.62 3115.93,1918.54 3115.93,1922.07 C3115.93,1928.87 3113.36,1934.13 3108.23,1937.84 C3103.1,1941.55 3096.6,1943.41 3088.75,1943.41 C3082.44,1943.41 3076.95,1941.83 3072.28,1938.67 C3067.61,1935.52 3065.28,1931.38 3065.28,1926.24 C3065.28,1923.52 3066.26,1921.16 3068.24,1919.15 C3070.22,1917.14 3072.59,1916.13 3075.34,1916.13 C3078.09,1916.13 3080.43,1917.12 3082.35,1919.1 C3084.26,1921.08 3085.22,1923.46 3085.22,1926.24 C3085.22,1927.48 3084.2,1928.83 3082.16,1930.28 C3080.12,1931.73 3079.1,1933.08 3079.1,1934.31 C3079.1,1936.23 3080.04,1937.64 3081.93,1938.54 C3083.81,1939.43 3086.09,1939.88 3088.75,1939.88 C3092.21,1939.88 3094.67,1938.16 3096.12,1934.73 C3097.58,1931.3 3098.3,1927.08 3098.3,1922.07 L3098.3,1919.66 C3098.3,1916.32 3098.19,1913.78 3097.98,1912.05 C3097.76,1910.32 3097.08,1908.77 3095.94,1907.41 C3094.79,1906.05 3093.05,1905.37 3090.7,1905.37 L3078.54,1905.37 C3077.12,1905.37 3076.41,1904.6 3076.41,1903.05 C3076.41,1901.63 3077.12,1900.92 3078.54,1900.92 L3090.7,1900.92 C3093.23,1900.92 3095.21,1899.96 3096.63,1898.04 C3097.13,1897.36 3097.53,1896.25 3097.84,1894.7 C3098.15,1892.66 3098.3,1889.72 3098.3,1885.89 L3098.3,1884.68 C3098.3,1875.47 3094.9,1870.86 3088.1,1870.86 C3082.1,1870.86 3079.1,1872.53 3079.1,1875.87 C3079.1,1876.98 3080.01,1878.17 3081.84,1879.44 C3083.66,1880.71 3084.57,1881.9 3084.57,1883.01 C3084.57,1885.42 3083.72,1887.49 3082.02,1889.23 C3080.32,1890.96 3078.25,1891.82 3075.81,1891.82 C3073.36,1891.82 3071.31,1890.96 3069.64,1889.23 C3067.97,1887.49 3067.13,1885.42 3067.13,1883.01 C3067.13,1878.25 3069.2,1874.44 3073.35,1871.6 C3077.49,1868.75 3082.41,1867.33 3088.1,1867.33 C3095.58,1867.33 3101.74,1868.77 3106.56,1871.65 C3111.38,1874.52 3113.8,1878.87 3113.8,1884.68 C3113.8,1888.82 3113.36,1892.04 3112.5,1894.33 C3111.63,1896.62 3110.64,1898.01 3109.53,1898.5 C3108.41,1899 3107.43,1899.57 3106.56,1900.22 C3105.69,1900.87 3105.26,1901.81 3105.26,1903.05"/>
<path class="FiguredBass" d="M3101.74,2005.37 C3106.68,1999.99 3109.16,1994.79 3109.16,1989.78 C3109.16,1985.7 3107.41,1982.48 3103.92,1980.13 C3100.42,1977.78 3096.23,1976.61 3091.34,1976.61 C3087.88,1976.61 3085.11,1977.69 3083.04,1979.85 C3080.97,1982.02 3079.93,1984.52 3079.93,1987.37 C3079.93,1990.83 3081.45,1993.46 3084.48,1995.25 L3101.74,2005.37 M3106.28,2007.96 C3114.69,2012.85 3118.9,2019.28 3118.9,2027.26 C3118.9,2033.26 3116.33,2038.41 3111.2,2042.71 C3106.06,2047.01 3099.04,2049.16 3090.14,2049.16 C3082.65,2049.16 3076.15,2047.18 3070.61,2043.22 C3065.07,2039.26 3062.31,2034.13 3062.31,2027.82 C3062.31,2025.47 3062.99,2023.09 3064.35,2020.67 C3065.71,2018.26 3066.98,2016.45 3068.15,2015.25 C3069.33,2014.04 3071.24,2012.17 3073.9,2009.63 C3067.72,2005.37 3064.63,1999.99 3064.63,1993.49 C3064.63,1987.93 3067.01,1983.13 3071.77,1979.11 C3076.53,1975.09 3083.06,1973.08 3091.34,1973.08 C3097.96,1973.08 3103.7,1974.58 3108.55,1977.58 C3113.41,1980.58 3115.84,1984.65 3115.84,1989.78 C3115.84,1995.29 3112.65,2001.35 3106.28,2007.96 M3078.45,2012.33 C3072.14,2017.83 3068.99,2022.99 3068.99,2027.82 C3068.99,2032.89 3071.09,2037.13 3075.29,2040.53 C3079.5,2043.93 3084.45,2045.63 3090.14,2045.63 C3094.1,2045.63 3097.27,2044.36 3099.65,2041.83 C3102.03,2039.29 3103.22,2036.35 3103.22,2033.01 C3103.22,2028.75 3101.46,2025.59 3097.93,2023.55 L3078.45,2012.33 "/>
<path class="FiguredBass" d="M3661.82,1765.11 C3657.24,1765.11 3654.2,1766.95 3652.68,1770.63 C3651.17,1774.31 3650.41,1779.52 3650.41,1786.26 L3650.41,1797.21 C3653.63,1795.91 3656.41,1795.23 3658.76,1795.17 C3666.8,1795.17 3673.12,1796.94 3677.73,1800.5 C3682.34,1804.06 3684.64,1809.34 3684.64,1816.36 C3684.64,1823.38 3682.31,1828.69 3677.64,1832.28 C3672.97,1835.86 3666.68,1837.66 3658.76,1837.66 C3650.66,1837.66 3644.32,1833.9 3639.74,1826.38 C3635.16,1818.87 3632.87,1809.95 3632.87,1799.62 C3632.87,1789.35 3635.53,1780.45 3640.85,1772.9 C3646.17,1765.35 3653.16,1761.58 3661.82,1761.58 C3667.51,1761.58 3672.43,1763.02 3676.57,1765.9 C3680.71,1768.77 3682.79,1772.56 3682.79,1777.26 C3682.79,1779.98 3681.8,1782.33 3679.82,1784.31 C3677.84,1786.29 3675.47,1787.28 3672.72,1787.28 C3669.97,1787.28 3667.6,1786.29 3665.62,1784.31 C3663.64,1782.33 3662.66,1779.98 3662.66,1777.26 C3662.66,1774.6 3663.64,1772.25 3665.62,1770.21 C3666.3,1769.41 3667.26,1768.73 3668.5,1768.17 C3668.19,1767.36 3667.57,1766.75 3666.64,1766.31 C3665.28,1765.51 3663.68,1765.11 3661.82,1765.11 M3666.37,1803.05 C3665.25,1800.14 3662.81,1798.69 3659.04,1798.69 C3655.26,1798.69 3652.93,1800.14 3652.03,1803.05 C3651.14,1805.96 3650.69,1810.38 3650.69,1816.32 C3650.69,1823.31 3651.14,1828.01 3652.03,1830.42 C3652.93,1832.83 3655.26,1834.04 3659.04,1834.04 C3662.81,1834.04 3665.25,1832.58 3666.37,1829.68 C3667.48,1826.77 3668.04,1822.33 3668.04,1816.36 C3668.04,1810.4 3667.48,1805.96 3666.37,1803.05"/>
<path class="FiguredBass" d="M3673.7,1903.05 C3673.7,1904.04 3674.25,1905 3675.37,1905.93 C3676.48,1906.85 3677.7,1907.73 3679.03,1908.57 C3680.36,1909.4 3681.58,1910.98 3682.69,1913.3 C3683.81,1915.62 3684.36,1918.54 3684.36,1922.07 C3684.36,1928.87 3681.8,1934.13 3676.66,1937.84 C3671.53,1941.55 3665.04,1943.41 3657.18,1943.41 C3650.87,1943.41 3645.38,1941.83 3640.71,1938.67 C3636.04,1935.52 3633.71,1931.38 3633.71,1926.24 C3633.71,1923.52 3634.7,1921.16 3636.68,1919.15 C3638.66,1917.14 3641.02,1916.13 3643.78,1916.13 C3646.53,1916.13 3648.86,1917.12 3650.78,1919.1 C3652.7,1921.08 3653.66,1923.46 3653.66,1926.24 C3653.66,1927.48 3652.64,1928.83 3650.59,1930.28 C3648.55,1931.73 3647.53,1933.08 3647.53,1934.31 C3647.53,1936.23 3648.48,1937.64 3650.36,1938.54 C3652.25,1939.43 3654.52,1939.88 3657.18,1939.88 C3660.64,1939.88 3663.1,1938.16 3664.56,1934.73 C3666.01,1931.3 3666.74,1927.08 3666.74,1922.07 L3666.74,1919.66 C3666.74,1916.32 3666.63,1913.78 3666.41,1912.05 C3666.2,1910.32 3665.52,1908.77 3664.37,1907.41 C3663.23,1906.05 3661.48,1905.37 3659.13,1905.37 L3646.98,1905.37 C3645.55,1905.37 3644.84,1904.6 3644.84,1903.05 C3644.84,1901.63 3645.55,1900.92 3646.98,1900.92 L3659.13,1900.92 C3661.67,1900.92 3663.64,1899.96 3665.07,1898.04 C3665.56,1897.36 3665.96,1896.25 3666.27,1894.7 C3666.58,1892.66 3666.74,1889.72 3666.74,1885.89 L3666.74,1884.68 C3666.74,1875.47 3663.34,1870.86 3656.53,1870.86 C3650.53,1870.86 3647.53,1872.53 3647.53,1875.87 C3647.53,1876.98 3648.45,1878.17 3650.27,1879.44 C3652.09,1880.71 3653.01,1881.9 3653.01,1883.01 C3653.01,1885.42 3652.16,1887.49 3650.46,1889.23 C3648.75,1890.96 3646.68,1891.82 3644.24,1891.82 C3641.8,1891.82 3639.74,1890.96 3638.07,1889.23 C3636.4,1887.49 3635.57,1885.42 3635.57,1883.01 C3635.57,1878.25 3637.64,1874.44 3641.78,1871.6 C3645.92,1868.75 3650.84,1867.33 3656.53,1867.33 C3664.02,1867.33 3670.17,1868.77 3674.99,1871.65 C3679.82,1874.52 3682.23,1878.87 3682.23,1884.68 C3682.23,1888.82 3681.8,1892.04 3680.93,1894.33 C3680.07,1896.62 3679.08,1898.01 3677.96,1898.5 C3676.85,1899 3675.86,1899.57 3674.99,1900.22 C3674.13,1900.87 3673.7,1901.81 3673.7,1903.05"/>
<path class="Bracket" transform="matrix(8.6315,0,0,9.45563,76.1283,2337.37)" d="M0.92002,-50 C2.69004,-51.88 6.2,-55.8 6.2,-63 C6.2,-72.1 2.25996,-81.32 2.25996,-86.97 C2.25996,-93.06 5.84004,-98.84 5.95,-99 C6.05996,-99.16 6.05,-99.39 5.94004,-99.46 C5.82998,-99.53 5.62002,-99.47 5.49004,-99.32 C5.35996,-99.17 0,-93.75 0,-85.6 C0,-76.75 3.5,-70.58 3.5,-59.07 C3.5,-56.89 2.55996,-53.36 0.1,-50.33 C-0.0799805,-50.17 -0.1,-49.89 0.0599609,-49.7 L0.0700195,-49.69 L0.1,-49.66 C2.55996,-46.63 3.5,-43.1 3.5,-40.92 C3.5,-29.4 0,-23.24 0,-14.39 C0,-6.25 5.35996,-0.8 5.49004,-0.659961 C5.62002,-0.52002 5.8,-0.42998 5.94004,-0.52002 C6.07998,-0.609961 6.07998,-0.77998 5.95,-0.97998 C5.82002,-1.17998 2.25996,-6.92002 2.25996,-13.01 C2.25996,-18.66 6.2,-27.9 6.2,-37 C6.2,-44.3 2.69004,-48.12 0.92002,-50"/>
</svg>
