<?xml version="1.0" encoding="UTF-8" standalone="no"?>
<svg width="4209.44px" height="2976.38px" viewBox="0 0 4209.44 2976.38"
 xmlns="http://www.w3.org/2000/svg" xmlns:xlink="http://www.w3.org/1999/xlink" version="1.2" baseProfile="tiny">
<title>DoMajeur (11)</title>
<desc>Generated by MuseScore 3.6.2</desc>
<polyline class="StaffLines" fill="none" stroke="#000000" stroke-width="6.55" stroke-linejoin="bevel" points="153.819,558.425 4138.58,558.425"/>
<polyline class="StaffLines" fill="none" stroke="#000000" stroke-width="6.55" stroke-linejoin="bevel" points="153.819,647.717 4138.58,647.717"/>
<polyline class="StaffLines" fill="none" stroke="#000000" stroke-width="6.55" stroke-linejoin="bevel" points="153.819,737.008 4138.58,737.008"/>
<polyline class="StaffLines" fill="none" stroke="#000000" stroke-width="6.55" stroke-linejoin="bevel" points="153.819,826.299 4138.58,826.299"/>
<polyline class="StaffLines" fill="none" stroke="#000000" stroke-width="6.55" stroke-linejoin="bevel" points="153.819,915.591 4138.58,915.591"/>
<polyline class="StaffLines" fill="none" stroke="#000000" stroke-width="6.55" stroke-linejoin="bevel" points="153.819,1004.88 4138.58,1004.88"/>
<polyline class="StaffLines" fill="none" stroke="#000000" stroke-width="6.55" stroke-linejoin="bevel" points="153.819,1391.81 4138.58,1391.81"/>
<polyline class="StaffLines" fill="none" stroke="#000000" stroke-width="6.55" stroke-linejoin="bevel" points="153.819,1451.34 4138.58,1451.34"/>
<polyline class="StaffLines" fill="none" stroke="#000000" stroke-width="6.55" stroke-linejoin="bevel" points="153.819,1510.87 4138.58,1510.87"/>
<polyline class="StaffLines" fill="none" stroke="#000000" stroke-width="6.55" stroke-linejoin="bevel" points="153.819,1570.39 4138.58,1570.39"/>
<polyline class="StaffLines" fill="none" stroke="#000000" stroke-width="6.55" stroke-linejoin="bevel" points="153.819,1629.92 4138.58,1629.92"/>
<polyline class="StaffLines" fill="none" stroke="#000000" stroke-width="6.55" stroke-linejoin="bevel" points="153.819,2109.55 4138.58,2109.55"/>
<polyline class="StaffLines" fill="none" stroke="#000000" stroke-width="6.55" stroke-linejoin="bevel" points="153.819,2169.08 4138.58,2169.08"/>
<polyline class="StaffLines" fill="none" stroke="#000000" stroke-width="6.55" stroke-linejoin="bevel" points="153.819,2228.61 4138.58,2228.61"/>
<polyline class="StaffLines" fill="none" stroke="#000000" stroke-width="6.55" stroke-linejoin="bevel" points="153.819,2288.13 4138.58,2288.13"/>
<polyline class="StaffLines" fill="none" stroke="#000000" stroke-width="6.55" stroke-linejoin="bevel" points="153.819,2347.66 4138.58,2347.66"/>
<path class="Symbol" transform="matrix(2.3811,0,0,2.3811,1655.99,2139.32)" d="M0,-0.1 C0,7.7 4,14 10.4,18.1 L10.9,17.4 C7.5,14.8 6.3,13.3 5.2,10.1 C4.2,7.2 3.7,4 3.7,-0.2 C3.7,-8.1 4.8,-12.3 10.9,-17.4 L10.5,-18.1 C3.9,-13.6 0,-8.5 0,-0.1"/>
<path class="Symbol" transform="matrix(2.3811,0,0,2.3811,1770.75,2139.32)" d="M3.7,-0.2 C3.7,4 3.2,7.2 2.2,10.1 C1,13.3 -0.2,14.8 -3.6,17.4 L-3,18.1 C3.4,14.1 7.3,7.6 7.3,-0.1 C7.3,-8.4 3.4,-13.8 -3.2,-18.1 L-3.6,-17.4 C2.6,-12.4 3.7,-8.1 3.7,-0.2"/>
<path class="Symbol" transform="matrix(2.3811,0,0,2.3811,1655.99,1362.05)" d="M0,-0.1 C0,7.7 4,14 10.4,18.1 L10.9,17.4 C7.5,14.8 6.3,13.3 5.2,10.1 C4.2,7.2 3.7,4 3.7,-0.2 C3.7,-8.1 4.8,-12.3 10.9,-17.4 L10.5,-18.1 C3.9,-13.6 0,-8.5 0,-0.1"/>
<path class="Symbol" transform="matrix(2.3811,0,0,2.3811,1770.75,1362.05)" d="M3.7,-0.2 C3.7,4 3.2,7.2 2.2,10.1 C1,13.3 -0.2,14.8 -3.6,17.4 L-3,18.1 C3.4,14.1 7.3,7.6 7.3,-0.1 C7.3,-8.4 3.4,-13.8 -3.2,-18.1 L-3.6,-17.4 C2.6,-12.4 3.7,-8.1 3.7,-0.2"/>
<path class="Symbol" transform="matrix(2.3811,0,0,2.3811,1666.83,975.118)" d="M0,-0.1 C0,7.7 4,14 10.4,18.1 L10.9,17.4 C7.5,14.8 6.3,13.3 5.2,10.1 C4.2,7.2 3.7,4 3.7,-0.2 C3.7,-8.1 4.8,-12.3 10.9,-17.4 L10.5,-18.1 C3.9,-13.6 0,-8.5 0,-0.1"/>
<path class="Symbol" transform="matrix(2.3811,0,0,2.3811,1771.84,975.118)" d="M3.7,-0.2 C3.7,4 3.2,7.2 2.2,10.1 C1,13.3 -0.2,14.8 -3.6,17.4 L-3,18.1 C3.4,14.1 7.3,7.6 7.3,-0.1 C7.3,-8.4 3.4,-13.8 -3.2,-18.1 L-3.6,-17.4 C2.6,-12.4 3.7,-8.1 3.7,-0.2"/>
<path class="Symbol" transform="matrix(2.3811,0,0,2.3811,1666.83,707.244)" d="M0,-0.1 C0,7.7 4,14 10.4,18.1 L10.9,17.4 C7.5,14.8 6.3,13.3 5.2,10.1 C4.2,7.2 3.7,4 3.7,-0.2 C3.7,-8.1 4.8,-12.3 10.9,-17.4 L10.5,-18.1 C3.9,-13.6 0,-8.5 0,-0.1"/>
<path class="Symbol" transform="matrix(2.3811,0,0,2.3811,1771.84,707.244)" d="M3.7,-0.2 C3.7,4 3.2,7.2 2.2,10.1 C1,13.3 -0.2,14.8 -3.6,17.4 L-3,18.1 C3.4,14.1 7.3,7.6 7.3,-0.1 C7.3,-8.4 3.4,-13.8 -3.2,-18.1 L-3.6,-17.4 C2.6,-12.4 3.7,-8.1 3.7,-0.2"/>
<polyline class="BarLine" fill="none" stroke="#000000" stroke-width="10.71" stroke-linejoin="bevel" points="159.176,2106.28 159.176,2350.94"/>
<polyline class="BarLine" fill="none" stroke="#000000" stroke-width="10.71" stroke-linejoin="bevel" points="986.77,2106.28 986.77,2350.94"/>
<polyline class="BarLine" fill="none" stroke="#000000" stroke-width="10.71" stroke-linejoin="bevel" points="1573.25,2106.28 1573.25,2350.94"/>
<polyline class="BarLine" fill="none" stroke="#000000" stroke-width="10.71" stroke-linejoin="bevel" points="2176.18,2106.28 2176.18,2350.94"/>
<polyline class="BarLine" fill="none" stroke="#000000" stroke-width="10.71" stroke-linejoin="bevel" points="2820.29,2106.28 2820.29,2350.94"/>
<polyline class="BarLine" fill="none" stroke="#000000" stroke-width="10.71" stroke-linejoin="bevel" points="3503.57,2106.28 3503.57,2350.94"/>
<polyline class="BarLine" fill="none" stroke="#000000" stroke-width="10.71" stroke-linejoin="bevel" points="4080.54,2106.28 4080.54,2350.94"/>
<polyline class="BarLine" fill="none" stroke="#000000" stroke-width="32.74" stroke-linejoin="bevel" points="4122.21,2106.28 4122.21,2350.94"/>
<polyline class="BarLine" fill="none" stroke="#000000" stroke-width="10.71" stroke-linejoin="bevel" points="159.176,1388.54 159.176,2109.55"/>
<polyline class="BarLine" fill="none" stroke="#000000" stroke-width="10.71" stroke-linejoin="bevel" points="986.77,1388.54 986.77,1633.2"/>
<polyline class="BarLine" fill="none" stroke="#000000" stroke-width="10.71" stroke-linejoin="bevel" points="1573.25,1388.54 1573.25,1633.2"/>
<polyline class="BarLine" fill="none" stroke="#000000" stroke-width="10.71" stroke-linejoin="bevel" points="2176.18,1388.54 2176.18,1633.2"/>
<polyline class="BarLine" fill="none" stroke="#000000" stroke-width="10.71" stroke-linejoin="bevel" points="2820.29,1388.54 2820.29,1633.2"/>
<polyline class="BarLine" fill="none" stroke="#000000" stroke-width="10.71" stroke-linejoin="bevel" points="3503.57,1388.54 3503.57,1633.2"/>
<polyline class="BarLine" fill="none" stroke="#000000" stroke-width="10.71" stroke-linejoin="bevel" points="4080.54,1388.54 4080.54,1633.2"/>
<polyline class="BarLine" fill="none" stroke="#000000" stroke-width="32.74" stroke-linejoin="bevel" points="4122.21,1388.54 4122.21,1633.2"/>
<polyline class="BarLine" fill="none" stroke="#000000" stroke-width="10.71" stroke-linejoin="bevel" points="159.176,555.151 159.176,1391.81"/>
<polyline class="BarLine" fill="none" stroke="#000000" stroke-width="10.71" stroke-linejoin="bevel" points="986.77,555.151 986.77,1008.16"/>
<polyline class="BarLine" fill="none" stroke="#000000" stroke-width="10.71" stroke-linejoin="bevel" points="1573.25,555.151 1573.25,1008.16"/>
<polyline class="BarLine" fill="none" stroke="#000000" stroke-width="10.71" stroke-linejoin="bevel" points="2176.18,555.151 2176.18,1008.16"/>
<polyline class="BarLine" fill="none" stroke="#000000" stroke-width="10.71" stroke-linejoin="bevel" points="2820.29,555.151 2820.29,1008.16"/>
<polyline class="BarLine" fill="none" stroke="#000000" stroke-width="10.71" stroke-linejoin="bevel" points="3503.57,555.151 3503.57,1008.16"/>
<polyline class="BarLine" fill="none" stroke="#000000" stroke-width="10.71" stroke-linejoin="bevel" points="4080.54,555.151 4080.54,1008.16"/>
<polyline class="BarLine" fill="none" stroke="#000000" stroke-width="32.74" stroke-linejoin="bevel" points="4122.21,555.151 4122.21,1008.16"/>
<polyline class="LedgerLine" fill="none" stroke="#000000" stroke-width="9.52" stroke-linejoin="bevel" points="492.549,2050.02 623.026,2050.02"/>
<polyline class="LedgerLine" fill="none" stroke="#000000" stroke-width="9.52" stroke-linejoin="bevel" points="3586.32,2050.02 3716.79,2050.02"/>
<polyline class="Stem" fill="none" stroke="#000000" stroke-width="6.55" stroke-linejoin="bevel" points="2917.75,1370.05 2917.75,1696.89"/>
<polyline class="Stem" fill="none" stroke="#000000" stroke-width="6.55" stroke-linejoin="bevel" points="3209.62,1399.81 3209.62,1600.16"/>
<path class="Note" transform="matrix(2.3811,0,0,2.3811,513.384,2050.02)" d="M18.7,-13.6 C4.9,-13.6 0,-6.6 0,-0.1 C0,6.4 4.9,13.4 18.7,13.4 C32.5,13.4 37.3,6.4 37.3,-0.1 C37.3,-6.6 32.5,-13.6 18.7,-13.6 M10.4,-4.5 C10.3,-4.9 10.3,-5.3 10.3,-5.7 C10.3,-6.5 10.5,-7.3 10.9,-8 C11.6,-9 12.8,-9.7 14.3,-10 C15.6,-10.3 16.3,-10.5 18.9,-10.5 L19,-10.5 C23,-10.5 24.3,-6.8 25.4,-3 L25.7,-2 C26.5,0.6 26.9,2.8 26.9,4.5 C26.9,5.7 26.7,6.8 26.3,7.6 C25.7,8.7 24.7,9.4 23,9.8 C22.1,10 20.6,10.1 20.6,10.1 C20.1,10.1 19.7,10.2 19.3,10.2 C16.1,10.2 14.1,9 12.7,4.7 C11.5,1 11.3,-0.1 10.4,-4.5"/>
<path class="Note" transform="matrix(2.3811,0,0,2.3811,1075.23,2139.32)" d="M18.7,-13.6 C4.9,-13.6 0,-6.6 0,-0.1 C0,6.4 4.9,13.4 18.7,13.4 C32.5,13.4 37.3,6.4 37.3,-0.1 C37.3,-6.6 32.5,-13.6 18.7,-13.6 M10.4,-4.5 C10.3,-4.9 10.3,-5.3 10.3,-5.7 C10.3,-6.5 10.5,-7.3 10.9,-8 C11.6,-9 12.8,-9.7 14.3,-10 C15.6,-10.3 16.3,-10.5 18.9,-10.5 L19,-10.5 C23,-10.5 24.3,-6.8 25.4,-3 L25.7,-2 C26.5,0.6 26.9,2.8 26.9,4.5 C26.9,5.7 26.7,6.8 26.3,7.6 C25.7,8.7 24.7,9.4 23,9.8 C22.1,10 20.6,10.1 20.6,10.1 C20.1,10.1 19.7,10.2 19.3,10.2 C16.1,10.2 14.1,9 12.7,4.7 C11.5,1 11.3,-0.1 10.4,-4.5"/>
<path class="Note" transform="matrix(2.3811,0,0,2.3811,1681.94,2139.32)" d="M18.7,-13.6 C4.9,-13.6 0,-6.6 0,-0.1 C0,6.4 4.9,13.4 18.7,13.4 C32.5,13.4 37.3,6.4 37.3,-0.1 C37.3,-6.6 32.5,-13.6 18.7,-13.6 M10.4,-4.5 C10.3,-4.9 10.3,-5.3 10.3,-5.7 C10.3,-6.5 10.5,-7.3 10.9,-8 C11.6,-9 12.8,-9.7 14.3,-10 C15.6,-10.3 16.3,-10.5 18.9,-10.5 L19,-10.5 C23,-10.5 24.3,-6.8 25.4,-3 L25.7,-2 C26.5,0.6 26.9,2.8 26.9,4.5 C26.9,5.7 26.7,6.8 26.3,7.6 C25.7,8.7 24.7,9.4 23,9.8 C22.1,10 20.6,10.1 20.6,10.1 C20.1,10.1 19.7,10.2 19.3,10.2 C16.1,10.2 14.1,9 12.7,4.7 C11.5,1 11.3,-0.1 10.4,-4.5"/>
<path class="Note" transform="matrix(2.3811,0,0,2.3811,2346.9,2139.32)" d="M18.7,-13.6 C4.9,-13.6 0,-6.6 0,-0.1 C0,6.4 4.9,13.4 18.7,13.4 C32.5,13.4 37.3,6.4 37.3,-0.1 C37.3,-6.6 32.5,-13.6 18.7,-13.6 M10.4,-4.5 C10.3,-4.9 10.3,-5.3 10.3,-5.7 C10.3,-6.5 10.5,-7.3 10.9,-8 C11.6,-9 12.8,-9.7 14.3,-10 C15.6,-10.3 16.3,-10.5 18.9,-10.5 L19,-10.5 C23,-10.5 24.3,-6.8 25.4,-3 L25.7,-2 C26.5,0.6 26.9,2.8 26.9,4.5 C26.9,5.7 26.7,6.8 26.3,7.6 C25.7,8.7 24.7,9.4 23,9.8 C22.1,10 20.6,10.1 20.6,10.1 C20.1,10.1 19.7,10.2 19.3,10.2 C16.1,10.2 14.1,9 12.7,4.7 C11.5,1 11.3,-0.1 10.4,-4.5"/>
<path class="Note" transform="matrix(2.3811,0,0,2.3811,2908.75,2139.32)" d="M18.7,-13.6 C4.9,-13.6 0,-6.6 0,-0.1 C0,6.4 4.9,13.4 18.7,13.4 C32.5,13.4 37.3,6.4 37.3,-0.1 C37.3,-6.6 32.5,-13.6 18.7,-13.6 M10.4,-4.5 C10.3,-4.9 10.3,-5.3 10.3,-5.7 C10.3,-6.5 10.5,-7.3 10.9,-8 C11.6,-9 12.8,-9.7 14.3,-10 C15.6,-10.3 16.3,-10.5 18.9,-10.5 L19,-10.5 C23,-10.5 24.3,-6.8 25.4,-3 L25.7,-2 C26.5,0.6 26.9,2.8 26.9,4.5 C26.9,5.7 26.7,6.8 26.3,7.6 C25.7,8.7 24.7,9.4 23,9.8 C22.1,10 20.6,10.1 20.6,10.1 C20.1,10.1 19.7,10.2 19.3,10.2 C16.1,10.2 14.1,9 12.7,4.7 C11.5,1 11.3,-0.1 10.4,-4.5"/>
<path class="Note" transform="matrix(2.3811,0,0,2.3811,3607.15,2050.02)" d="M18.7,-13.6 C4.9,-13.6 0,-6.6 0,-0.1 C0,6.4 4.9,13.4 18.7,13.4 C32.5,13.4 37.3,6.4 37.3,-0.1 C37.3,-6.6 32.5,-13.6 18.7,-13.6 M10.4,-4.5 C10.3,-4.9 10.3,-5.3 10.3,-5.7 C10.3,-6.5 10.5,-7.3 10.9,-8 C11.6,-9 12.8,-9.7 14.3,-10 C15.6,-10.3 16.3,-10.5 18.9,-10.5 L19,-10.5 C23,-10.5 24.3,-6.8 25.4,-3 L25.7,-2 C26.5,0.6 26.9,2.8 26.9,4.5 C26.9,5.7 26.7,6.8 26.3,7.6 C25.7,8.7 24.7,9.4 23,9.8 C22.1,10 20.6,10.1 20.6,10.1 C20.1,10.1 19.7,10.2 19.3,10.2 C16.1,10.2 14.1,9 12.7,4.7 C11.5,1 11.3,-0.1 10.4,-4.5"/>
<path class="Note" transform="matrix(2.3811,0,0,2.3811,513.384,1481.1)" d="M18.7,-13.6 C4.9,-13.6 0,-6.6 0,-0.1 C0,6.4 4.9,13.4 18.7,13.4 C32.5,13.4 37.3,6.4 37.3,-0.1 C37.3,-6.6 32.5,-13.6 18.7,-13.6 M10.4,-4.5 C10.3,-4.9 10.3,-5.3 10.3,-5.7 C10.3,-6.5 10.5,-7.3 10.9,-8 C11.6,-9 12.8,-9.7 14.3,-10 C15.6,-10.3 16.3,-10.5 18.9,-10.5 L19,-10.5 C23,-10.5 24.3,-6.8 25.4,-3 L25.7,-2 C26.5,0.6 26.9,2.8 26.9,4.5 C26.9,5.7 26.7,6.8 26.3,7.6 C25.7,8.7 24.7,9.4 23,9.8 C22.1,10 20.6,10.1 20.6,10.1 C20.1,10.1 19.7,10.2 19.3,10.2 C16.1,10.2 14.1,9 12.7,4.7 C11.5,1 11.3,-0.1 10.4,-4.5"/>
<path class="Note" transform="matrix(2.3811,0,0,2.3811,513.384,1421.57)" d="M18.7,-13.6 C4.9,-13.6 0,-6.6 0,-0.1 C0,6.4 4.9,13.4 18.7,13.4 C32.5,13.4 37.3,6.4 37.3,-0.1 C37.3,-6.6 32.5,-13.6 18.7,-13.6 M10.4,-4.5 C10.3,-4.9 10.3,-5.3 10.3,-5.7 C10.3,-6.5 10.5,-7.3 10.9,-8 C11.6,-9 12.8,-9.7 14.3,-10 C15.6,-10.3 16.3,-10.5 18.9,-10.5 L19,-10.5 C23,-10.5 24.3,-6.8 25.4,-3 L25.7,-2 C26.5,0.6 26.9,2.8 26.9,4.5 C26.9,5.7 26.7,6.8 26.3,7.6 C25.7,8.7 24.7,9.4 23,9.8 C22.1,10 20.6,10.1 20.6,10.1 C20.1,10.1 19.7,10.2 19.3,10.2 C16.1,10.2 14.1,9 12.7,4.7 C11.5,1 11.3,-0.1 10.4,-4.5"/>
<path class="Note" transform="matrix(2.3811,0,0,2.3811,513.384,1362.05)" d="M18.7,-13.6 C4.9,-13.6 0,-6.6 0,-0.1 C0,6.4 4.9,13.4 18.7,13.4 C32.5,13.4 37.3,6.4 37.3,-0.1 C37.3,-6.6 32.5,-13.6 18.7,-13.6 M10.4,-4.5 C10.3,-4.9 10.3,-5.3 10.3,-5.7 C10.3,-6.5 10.5,-7.3 10.9,-8 C11.6,-9 12.8,-9.7 14.3,-10 C15.6,-10.3 16.3,-10.5 18.9,-10.5 L19,-10.5 C23,-10.5 24.3,-6.8 25.4,-3 L25.7,-2 C26.5,0.6 26.9,2.8 26.9,4.5 C26.9,5.7 26.7,6.8 26.3,7.6 C25.7,8.7 24.7,9.4 23,9.8 C22.1,10 20.6,10.1 20.6,10.1 C20.1,10.1 19.7,10.2 19.3,10.2 C16.1,10.2 14.1,9 12.7,4.7 C11.5,1 11.3,-0.1 10.4,-4.5"/>
<path class="Note" transform="matrix(2.3811,0,0,2.3811,1075.23,1510.87)" d="M18.7,-13.6 C4.9,-13.6 0,-6.6 0,-0.1 C0,6.4 4.9,13.4 18.7,13.4 C32.5,13.4 37.3,6.4 37.3,-0.1 C37.3,-6.6 32.5,-13.6 18.7,-13.6 M10.4,-4.5 C10.3,-4.9 10.3,-5.3 10.3,-5.7 C10.3,-6.5 10.5,-7.3 10.9,-8 C11.6,-9 12.8,-9.7 14.3,-10 C15.6,-10.3 16.3,-10.5 18.9,-10.5 L19,-10.5 C23,-10.5 24.3,-6.8 25.4,-3 L25.7,-2 C26.5,0.6 26.9,2.8 26.9,4.5 C26.9,5.7 26.7,6.8 26.3,7.6 C25.7,8.7 24.7,9.4 23,9.8 C22.1,10 20.6,10.1 20.6,10.1 C20.1,10.1 19.7,10.2 19.3,10.2 C16.1,10.2 14.1,9 12.7,4.7 C11.5,1 11.3,-0.1 10.4,-4.5"/>
<path class="Note" transform="matrix(2.3811,0,0,2.3811,1075.23,1451.34)" d="M18.7,-13.6 C4.9,-13.6 0,-6.6 0,-0.1 C0,6.4 4.9,13.4 18.7,13.4 C32.5,13.4 37.3,6.4 37.3,-0.1 C37.3,-6.6 32.5,-13.6 18.7,-13.6 M10.4,-4.5 C10.3,-4.9 10.3,-5.3 10.3,-5.7 C10.3,-6.5 10.5,-7.3 10.9,-8 C11.6,-9 12.8,-9.7 14.3,-10 C15.6,-10.3 16.3,-10.5 18.9,-10.5 L19,-10.5 C23,-10.5 24.3,-6.8 25.4,-3 L25.7,-2 C26.5,0.6 26.9,2.8 26.9,4.5 C26.9,5.7 26.7,6.8 26.3,7.6 C25.7,8.7 24.7,9.4 23,9.8 C22.1,10 20.6,10.1 20.6,10.1 C20.1,10.1 19.7,10.2 19.3,10.2 C16.1,10.2 14.1,9 12.7,4.7 C11.5,1 11.3,-0.1 10.4,-4.5"/>
<path class="Note" transform="matrix(2.3811,0,0,2.3811,1075.23,1362.05)" d="M18.7,-13.6 C4.9,-13.6 0,-6.6 0,-0.1 C0,6.4 4.9,13.4 18.7,13.4 C32.5,13.4 37.3,6.4 37.3,-0.1 C37.3,-6.6 32.5,-13.6 18.7,-13.6 M10.4,-4.5 C10.3,-4.9 10.3,-5.3 10.3,-5.7 C10.3,-6.5 10.5,-7.3 10.9,-8 C11.6,-9 12.8,-9.7 14.3,-10 C15.6,-10.3 16.3,-10.5 18.9,-10.5 L19,-10.5 C23,-10.5 24.3,-6.8 25.4,-3 L25.7,-2 C26.5,0.6 26.9,2.8 26.9,4.5 C26.9,5.7 26.7,6.8 26.3,7.6 C25.7,8.7 24.7,9.4 23,9.8 C22.1,10 20.6,10.1 20.6,10.1 C20.1,10.1 19.7,10.2 19.3,10.2 C16.1,10.2 14.1,9 12.7,4.7 C11.5,1 11.3,-0.1 10.4,-4.5"/>
<path class="Note" transform="matrix(2.3811,0,0,2.3811,1681.94,1481.1)" d="M18.7,-13.6 C4.9,-13.6 0,-6.6 0,-0.1 C0,6.4 4.9,13.4 18.7,13.4 C32.5,13.4 37.3,6.4 37.3,-0.1 C37.3,-6.6 32.5,-13.6 18.7,-13.6 M10.4,-4.5 C10.3,-4.9 10.3,-5.3 10.3,-5.7 C10.3,-6.5 10.5,-7.3 10.9,-8 C11.6,-9 12.8,-9.7 14.3,-10 C15.6,-10.3 16.3,-10.5 18.9,-10.5 L19,-10.5 C23,-10.5 24.3,-6.8 25.4,-3 L25.7,-2 C26.5,0.6 26.9,2.8 26.9,4.5 C26.9,5.7 26.7,6.8 26.3,7.6 C25.7,8.7 24.7,9.4 23,9.8 C22.1,10 20.6,10.1 20.6,10.1 C20.1,10.1 19.7,10.2 19.3,10.2 C16.1,10.2 14.1,9 12.7,4.7 C11.5,1 11.3,-0.1 10.4,-4.5"/>
<path class="Note" transform="matrix(2.3811,0,0,2.3811,1681.94,1421.57)" d="M18.7,-13.6 C4.9,-13.6 0,-6.6 0,-0.1 C0,6.4 4.9,13.4 18.7,13.4 C32.5,13.4 37.3,6.4 37.3,-0.1 C37.3,-6.6 32.5,-13.6 18.7,-13.6 M10.4,-4.5 C10.3,-4.9 10.3,-5.3 10.3,-5.7 C10.3,-6.5 10.5,-7.3 10.9,-8 C11.6,-9 12.8,-9.7 14.3,-10 C15.6,-10.3 16.3,-10.5 18.9,-10.5 L19,-10.5 C23,-10.5 24.3,-6.8 25.4,-3 L25.7,-2 C26.5,0.6 26.9,2.8 26.9,4.5 C26.9,5.7 26.7,6.8 26.3,7.6 C25.7,8.7 24.7,9.4 23,9.8 C22.1,10 20.6,10.1 20.6,10.1 C20.1,10.1 19.7,10.2 19.3,10.2 C16.1,10.2 14.1,9 12.7,4.7 C11.5,1 11.3,-0.1 10.4,-4.5"/>
<path class="Note" transform="matrix(2.3811,0,0,2.3811,1681.94,1362.05)" d="M18.7,-13.6 C4.9,-13.6 0,-6.6 0,-0.1 C0,6.4 4.9,13.4 18.7,13.4 C32.5,13.4 37.3,6.4 37.3,-0.1 C37.3,-6.6 32.5,-13.6 18.7,-13.6 M10.4,-4.5 C10.3,-4.9 10.3,-5.3 10.3,-5.7 C10.3,-6.5 10.5,-7.3 10.9,-8 C11.6,-9 12.8,-9.7 14.3,-10 C15.6,-10.3 16.3,-10.5 18.9,-10.5 L19,-10.5 C23,-10.5 24.3,-6.8 25.4,-3 L25.7,-2 C26.5,0.6 26.9,2.8 26.9,4.5 C26.9,5.7 26.7,6.8 26.3,7.6 C25.7,8.7 24.7,9.4 23,9.8 C22.1,10 20.6,10.1 20.6,10.1 C20.1,10.1 19.7,10.2 19.3,10.2 C16.1,10.2 14.1,9 12.7,4.7 C11.5,1 11.3,-0.1 10.4,-4.5"/>
<path class="Note" transform="matrix(2.3811,0,0,2.3811,2264.64,1481.1)" d="M18.7,-13.6 C4.9,-13.6 0,-6.6 0,-0.1 C0,6.4 4.9,13.4 18.7,13.4 C32.5,13.4 37.3,6.4 37.3,-0.1 C37.3,-6.6 32.5,-13.6 18.7,-13.6 M10.4,-4.5 C10.3,-4.9 10.3,-5.3 10.3,-5.7 C10.3,-6.5 10.5,-7.3 10.9,-8 C11.6,-9 12.8,-9.7 14.3,-10 C15.6,-10.3 16.3,-10.5 18.9,-10.5 L19,-10.5 C23,-10.5 24.3,-6.8 25.4,-3 L25.7,-2 C26.5,0.6 26.9,2.8 26.9,4.5 C26.9,5.7 26.7,6.8 26.3,7.6 C25.7,8.7 24.7,9.4 23,9.8 C22.1,10 20.6,10.1 20.6,10.1 C20.1,10.1 19.7,10.2 19.3,10.2 C16.1,10.2 14.1,9 12.7,4.7 C11.5,1 11.3,-0.1 10.4,-4.5"/>
<path class="Note" transform="matrix(2.3811,0,0,2.3811,2346.9,1451.34)" d="M18.7,-13.6 C4.9,-13.6 0,-6.6 0,-0.1 C0,6.4 4.9,13.4 18.7,13.4 C32.5,13.4 37.3,6.4 37.3,-0.1 C37.3,-6.6 32.5,-13.6 18.7,-13.6 M10.4,-4.5 C10.3,-4.9 10.3,-5.3 10.3,-5.7 C10.3,-6.5 10.5,-7.3 10.9,-8 C11.6,-9 12.8,-9.7 14.3,-10 C15.6,-10.3 16.3,-10.5 18.9,-10.5 L19,-10.5 C23,-10.5 24.3,-6.8 25.4,-3 L25.7,-2 C26.5,0.6 26.9,2.8 26.9,4.5 C26.9,5.7 26.7,6.8 26.3,7.6 C25.7,8.7 24.7,9.4 23,9.8 C22.1,10 20.6,10.1 20.6,10.1 C20.1,10.1 19.7,10.2 19.3,10.2 C16.1,10.2 14.1,9 12.7,4.7 C11.5,1 11.3,-0.1 10.4,-4.5"/>
<path class="Note" transform="matrix(2.3811,0,0,2.3811,2346.9,1362.05)" d="M18.7,-13.6 C4.9,-13.6 0,-6.6 0,-0.1 C0,6.4 4.9,13.4 18.7,13.4 C32.5,13.4 37.3,6.4 37.3,-0.1 C37.3,-6.6 32.5,-13.6 18.7,-13.6 M10.4,-4.5 C10.3,-4.9 10.3,-5.3 10.3,-5.7 C10.3,-6.5 10.5,-7.3 10.9,-8 C11.6,-9 12.8,-9.7 14.3,-10 C15.6,-10.3 16.3,-10.5 18.9,-10.5 L19,-10.5 C23,-10.5 24.3,-6.8 25.4,-3 L25.7,-2 C26.5,0.6 26.9,2.8 26.9,4.5 C26.9,5.7 26.7,6.8 26.3,7.6 C25.7,8.7 24.7,9.4 23,9.8 C22.1,10 20.6,10.1 20.6,10.1 C20.1,10.1 19.7,10.2 19.3,10.2 C16.1,10.2 14.1,9 12.7,4.7 C11.5,1 11.3,-0.1 10.4,-4.5"/>
<path class="Note" transform="matrix(2.3811,0,0,2.3811,2914.47,1510.87)" d="M31.5,-8.1 C29.7,-11.4 25.9,-13.2 21.3,-13.2 C17.9,-13.2 14.2,-12.2 10.6,-10.3 C4,-6.8 0,-0.9 0,4.2 C0,5.6 0.3,7 1,8.3 C2.8,11.6 6.6,13.3 11.2,13.3 C14.6,13.3 18.3,12.4 21.9,10.5 C28.5,7 32.5,1.1 32.5,-4 C32.5,-5.4 32.2,-6.8 31.5,-8.1 M27.2,-1.3 C25.5,0.4 22.1,2.5 18.5,4.5 C14.9,6.5 11.3,8 8.9,8.5 C8.4,8.6 7.9,8.7 7.4,8.7 C5.8,8.7 4.6,8.1 3.9,6.8 C3.6,6.3 3.4,5.7 3.4,5.1 C3.4,4 4.1,2.7 5.2,1.6 C6.9,-0.1 10.2,-2.2 13.8,-4.2 C17.4,-6.2 21,-7.7 23.4,-8.2 C23.9,-8.3 24.4,-8.4 24.9,-8.4 C26.5,-8.4 27.8,-7.8 28.5,-6.5 C28.8,-6 28.9,-5.4 28.9,-4.8 C28.9,-3.7 28.3,-2.5 27.2,-1.3"/>
<path class="Note" transform="matrix(2.3811,0,0,2.3811,2914.47,1451.34)" d="M31.5,-8.1 C29.7,-11.4 25.9,-13.2 21.3,-13.2 C17.9,-13.2 14.2,-12.2 10.6,-10.3 C4,-6.8 0,-0.9 0,4.2 C0,5.6 0.3,7 1,8.3 C2.8,11.6 6.6,13.3 11.2,13.3 C14.6,13.3 18.3,12.4 21.9,10.5 C28.5,7 32.5,1.1 32.5,-4 C32.5,-5.4 32.2,-6.8 31.5,-8.1 M27.2,-1.3 C25.5,0.4 22.1,2.5 18.5,4.5 C14.9,6.5 11.3,8 8.9,8.5 C8.4,8.6 7.9,8.7 7.4,8.7 C5.8,8.7 4.6,8.1 3.9,6.8 C3.6,6.3 3.4,5.7 3.4,5.1 C3.4,4 4.1,2.7 5.2,1.6 C6.9,-0.1 10.2,-2.2 13.8,-4.2 C17.4,-6.2 21,-7.7 23.4,-8.2 C23.9,-8.3 24.4,-8.4 24.9,-8.4 C26.5,-8.4 27.8,-7.8 28.5,-6.5 C28.8,-6 28.9,-5.4 28.9,-4.8 C28.9,-3.7 28.3,-2.5 27.2,-1.3"/>
<path class="Note" transform="matrix(2.3811,0,0,2.3811,2914.47,1362.05)" d="M31.5,-8.1 C29.7,-11.4 25.9,-13.2 21.3,-13.2 C17.9,-13.2 14.2,-12.2 10.6,-10.3 C4,-6.8 0,-0.9 0,4.2 C0,5.6 0.3,7 1,8.3 C2.8,11.6 6.6,13.3 11.2,13.3 C14.6,13.3 18.3,12.4 21.9,10.5 C28.5,7 32.5,1.1 32.5,-4 C32.5,-5.4 32.2,-6.8 31.5,-8.1 M27.2,-1.3 C25.5,0.4 22.1,2.5 18.5,4.5 C14.9,6.5 11.3,8 8.9,8.5 C8.4,8.6 7.9,8.7 7.4,8.7 C5.8,8.7 4.6,8.1 3.9,6.8 C3.6,6.3 3.4,5.7 3.4,5.1 C3.4,4 4.1,2.7 5.2,1.6 C6.9,-0.1 10.2,-2.2 13.8,-4.2 C17.4,-6.2 21,-7.7 23.4,-8.2 C23.9,-8.3 24.4,-8.4 24.9,-8.4 C26.5,-8.4 27.8,-7.8 28.5,-6.5 C28.8,-6 28.9,-5.4 28.9,-4.8 C28.9,-3.7 28.3,-2.5 27.2,-1.3"/>
<path class="Note" transform="matrix(2.3811,0,0,2.3811,3206.34,1391.81)" d="M31.5,-8.1 C29.7,-11.4 25.9,-13.2 21.3,-13.2 C17.9,-13.2 14.2,-12.2 10.6,-10.3 C4,-6.8 0,-0.9 0,4.2 C0,5.6 0.3,7 1,8.3 C2.8,11.6 6.6,13.3 11.2,13.3 C14.6,13.3 18.3,12.4 21.9,10.5 C28.5,7 32.5,1.1 32.5,-4 C32.5,-5.4 32.2,-6.8 31.5,-8.1 M27.2,-1.3 C25.5,0.4 22.1,2.5 18.5,4.5 C14.9,6.5 11.3,8 8.9,8.5 C8.4,8.6 7.9,8.7 7.4,8.7 C5.8,8.7 4.6,8.1 3.9,6.8 C3.6,6.3 3.4,5.7 3.4,5.1 C3.4,4 4.1,2.7 5.2,1.6 C6.9,-0.1 10.2,-2.2 13.8,-4.2 C17.4,-6.2 21,-7.7 23.4,-8.2 C23.9,-8.3 24.4,-8.4 24.9,-8.4 C26.5,-8.4 27.8,-7.8 28.5,-6.5 C28.8,-6 28.9,-5.4 28.9,-4.8 C28.9,-3.7 28.3,-2.5 27.2,-1.3"/>
<path class="Note" transform="matrix(2.3811,0,0,2.3811,3607.15,1481.1)" d="M18.7,-13.6 C4.9,-13.6 0,-6.6 0,-0.1 C0,6.4 4.9,13.4 18.7,13.4 C32.5,13.4 37.3,6.4 37.3,-0.1 C37.3,-6.6 32.5,-13.6 18.7,-13.6 M10.4,-4.5 C10.3,-4.9 10.3,-5.3 10.3,-5.7 C10.3,-6.5 10.5,-7.3 10.9,-8 C11.6,-9 12.8,-9.7 14.3,-10 C15.6,-10.3 16.3,-10.5 18.9,-10.5 L19,-10.5 C23,-10.5 24.3,-6.8 25.4,-3 L25.7,-2 C26.5,0.6 26.9,2.8 26.9,4.5 C26.9,5.7 26.7,6.8 26.3,7.6 C25.7,8.7 24.7,9.4 23,9.8 C22.1,10 20.6,10.1 20.6,10.1 C20.1,10.1 19.7,10.2 19.3,10.2 C16.1,10.2 14.1,9 12.7,4.7 C11.5,1 11.3,-0.1 10.4,-4.5"/>
<path class="Note" transform="matrix(2.3811,0,0,2.3811,3607.15,1421.57)" d="M18.7,-13.6 C4.9,-13.6 0,-6.6 0,-0.1 C0,6.4 4.9,13.4 18.7,13.4 C32.5,13.4 37.3,6.4 37.3,-0.1 C37.3,-6.6 32.5,-13.6 18.7,-13.6 M10.4,-4.5 C10.3,-4.9 10.3,-5.3 10.3,-5.7 C10.3,-6.5 10.5,-7.3 10.9,-8 C11.6,-9 12.8,-9.7 14.3,-10 C15.6,-10.3 16.3,-10.5 18.9,-10.5 L19,-10.5 C23,-10.5 24.3,-6.8 25.4,-3 L25.7,-2 C26.5,0.6 26.9,2.8 26.9,4.5 C26.9,5.7 26.7,6.8 26.3,7.6 C25.7,8.7 24.7,9.4 23,9.8 C22.1,10 20.6,10.1 20.6,10.1 C20.1,10.1 19.7,10.2 19.3,10.2 C16.1,10.2 14.1,9 12.7,4.7 C11.5,1 11.3,-0.1 10.4,-4.5"/>
<path class="Note" transform="matrix(2.3811,0,0,2.3811,3607.15,1362.05)" d="M18.7,-13.6 C4.9,-13.6 0,-6.6 0,-0.1 C0,6.4 4.9,13.4 18.7,13.4 C32.5,13.4 37.3,6.4 37.3,-0.1 C37.3,-6.6 32.5,-13.6 18.7,-13.6 M10.4,-4.5 C10.3,-4.9 10.3,-5.3 10.3,-5.7 C10.3,-6.5 10.5,-7.3 10.9,-8 C11.6,-9 12.8,-9.7 14.3,-10 C15.6,-10.3 16.3,-10.5 18.9,-10.5 L19,-10.5 C23,-10.5 24.3,-6.8 25.4,-3 L25.7,-2 C26.5,0.6 26.9,2.8 26.9,4.5 C26.9,5.7 26.7,6.8 26.3,7.6 C25.7,8.7 24.7,9.4 23,9.8 C22.1,10 20.6,10.1 20.6,10.1 C20.1,10.1 19.7,10.2 19.3,10.2 C16.1,10.2 14.1,9 12.7,4.7 C11.5,1 11.3,-0.1 10.4,-4.5"/>
<path class="Note" d="M568.961,804.541 C571.44,804.541 573.144,805.161 574.074,806.4 C575.469,808.492 576.166,811.436 576.166,815.232 C576.166,819.648 573.067,830.223 566.869,846.958 C556.72,875.391 551.645,890.459 551.645,892.164 C551.645,896.735 553.466,899.059 557.107,899.137 C558.657,899.137 562.608,896.735 568.961,891.931 C575.236,887.36 580.078,885.075 583.487,885.075 C584.882,885.075 585.579,885.927 585.579,887.632 C585.579,890.498 581.744,894.256 574.074,898.904 C561.523,906.574 552.846,910.409 548.043,910.409 C540.373,910.409 536.538,907.388 536.538,901.345 C536.538,901.19 541.845,883.409 552.459,848.004 C558.889,826.698 562.802,812.831 564.196,806.4 C564.429,805.161 566.017,804.541 568.961,804.541"/>
<path class="Note" d="M563.731,576.876 C567.528,576.876 569.426,579.781 569.426,585.592 C569.426,589.775 567.45,594.579 563.499,600.002 C560.013,604.883 558.269,612.436 558.269,622.663 C558.269,627.544 559.548,630.798 562.104,632.425 C563.886,633.664 567.218,634.323 572.099,634.4 C577.367,634.4 584.843,631.727 594.527,626.382 L596.387,628.241 C593.908,631.417 590.925,634.284 587.438,636.841 C582.248,640.637 576.941,642.535 571.518,642.535 C563.693,642.535 557.766,641.412 553.737,639.165 C548.701,636.376 546.184,632.889 546.184,628.706 C546.184,617.162 547.656,605.115 550.6,592.564 C551.684,587.993 554.047,583.81 557.688,580.013 C559.78,577.922 561.795,576.876 563.731,576.876"/>
<path class="Note" d="M595.341,747.207 C597.742,747.207 599.486,747.711 600.57,748.718 C601.81,749.803 602.43,751.391 602.43,753.483 C602.43,756.117 601.268,758.364 598.943,760.223 C588.872,767.351 578.529,776.415 567.915,787.416 C570.317,798.03 573.261,805.894 576.747,811.007 C581.318,817.748 584.456,821.118 586.16,821.118 C587.71,821.118 589.375,820.149 591.157,818.212 C592.397,816.895 593.598,816.237 594.76,816.237 C597.239,816.237 598.478,817.554 598.478,820.188 C598.478,822.977 596.27,826.773 591.854,831.577 C589.453,834.056 586.935,835.295 584.301,835.295 C578.878,835.295 573.416,830.221 567.915,820.072 C562.337,809.845 558.502,800.2 556.41,791.135 C552.536,803.066 550.6,810.388 550.6,813.099 C550.6,818.445 547.539,821.118 541.419,821.118 C538.088,821.118 536.422,818.019 536.422,811.821 C536.422,808.877 540.102,795.706 547.462,772.309 C551.103,760.843 554.086,752.824 556.41,748.253 C556.952,747.324 558.347,746.859 560.594,746.859 C563.228,746.859 565.048,747.401 566.056,748.486 C567.063,749.57 567.566,751.817 567.566,755.226 C567.566,756.93 565.901,762.818 562.569,772.89 C570.859,764.755 580.195,756.814 590.576,749.067 C592.203,747.827 593.791,747.207 595.341,747.207"/>
<path class="Note" d="M563.731,666.167 C567.528,666.167 569.426,669.072 569.426,674.883 C569.426,679.067 567.45,683.87 563.499,689.293 C560.013,694.174 558.269,701.728 558.269,711.954 C558.269,716.835 559.548,720.089 562.104,721.716 C563.886,722.956 567.218,723.614 572.099,723.692 C577.367,723.692 584.843,721.019 594.527,715.673 L596.387,717.532 C593.908,720.709 590.925,723.575 587.438,726.132 C582.248,729.928 576.941,731.826 571.518,731.826 C563.693,731.826 557.766,730.703 553.737,728.456 C548.701,725.667 546.184,722.181 546.184,717.997 C546.184,706.454 547.656,694.406 550.6,681.856 C551.684,677.285 554.047,673.101 557.688,669.305 C559.78,667.213 561.795,666.167 563.731,666.167"/>
<path class="Note" d="M1130.81,893.832 C1133.29,893.832 1134.99,894.452 1135.92,895.692 C1137.32,897.783 1138.02,900.727 1138.02,904.524 C1138.02,908.94 1134.92,919.515 1128.72,936.249 C1118.57,964.682 1113.5,979.751 1113.5,981.455 C1113.5,986.026 1115.32,988.35 1118.96,988.428 C1120.51,988.428 1124.46,986.026 1130.81,981.223 C1137.09,976.652 1141.93,974.366 1145.34,974.366 C1146.73,974.366 1147.43,975.219 1147.43,976.923 C1147.43,979.79 1143.59,983.547 1135.92,988.195 C1123.37,995.865 1114.7,999.7 1109.89,999.7 C1102.22,999.7 1098.39,996.679 1098.39,990.636 C1098.39,990.481 1103.69,972.701 1114.31,937.295 C1120.74,915.99 1124.65,902.122 1126.05,895.692 C1126.28,894.452 1127.87,893.832 1130.81,893.832"/>
<path class="Note" d="M1096.3,642.535 C1092.11,642.535 1090.02,640.637 1090.02,636.841 C1090.02,630.41 1090.99,625.684 1092.93,622.663 C1100.98,610.732 1118.49,588.419 1145.45,555.725 C1157.62,540.928 1173.31,533.529 1192.52,533.529 C1199.96,533.529 1205.11,534.575 1207.97,536.667 C1212.39,539.921 1214.6,543.833 1214.6,548.404 C1214.6,553.207 1210.73,558.553 1202.98,564.441 C1195.62,570.019 1188.65,572.808 1182.06,572.808 C1179.5,572.808 1178.22,572.537 1178.22,571.995 C1178.22,571.22 1179.46,570.407 1181.94,569.555 C1185.27,568.315 1188.84,565.797 1192.63,562.001 C1196.97,557.585 1199.14,553.595 1199.14,550.031 C1199.14,547.629 1197.48,545.344 1194.15,543.175 C1191.2,541.315 1186.44,540.386 1179.85,540.386 C1170.24,540.386 1158.12,550.07 1143.48,569.438 C1133.72,582.376 1125.81,593.765 1119.77,603.604 C1122.71,601.977 1126.24,600.002 1130.35,597.678 C1135.38,594.811 1139.72,593.378 1143.36,593.378 C1152.43,593.378 1156.96,596.632 1156.96,603.139 C1156.96,609.57 1153.24,616.62 1145.8,624.29 C1140.53,629.713 1137.9,633.742 1137.9,636.376 C1137.9,639.087 1140.53,640.443 1145.8,640.443 C1148.44,640.443 1151.15,639.513 1153.94,637.654 C1156.73,635.872 1158.78,634.981 1160.1,634.981 C1161.18,634.981 1161.72,635.679 1161.72,637.073 C1161.72,639.32 1159.55,641.683 1155.22,644.162 C1147.93,648.346 1142.08,650.437 1137.67,650.437 C1129.84,650.437 1125.93,646.254 1125.93,637.887 C1125.93,632.618 1128.95,626.769 1134.99,620.339 C1139.41,615.613 1141.62,610.926 1141.62,606.277 C1141.62,602.249 1139.45,600.234 1135.11,600.234 C1133.41,600.234 1127.75,602.249 1118.14,606.277 C1115.28,611.081 1112.88,615.497 1110.94,619.525 C1103.58,634.865 1098.7,642.535 1096.3,642.535"/>
<path class="Note" d="M1096.3,821.118 C1092.11,821.118 1090.02,819.22 1090.02,815.423 C1090.02,808.993 1090.99,804.267 1092.93,801.246 C1100.98,789.315 1118.49,767.002 1145.45,734.308 C1157.62,719.511 1173.31,712.112 1192.52,712.112 C1199.96,712.112 1205.11,713.158 1207.97,715.249 C1212.39,718.503 1214.6,722.416 1214.6,726.987 C1214.6,731.79 1210.73,737.136 1202.98,743.024 C1195.62,748.602 1188.65,751.391 1182.06,751.391 C1179.5,751.391 1178.22,751.12 1178.22,750.578 C1178.22,749.803 1179.46,748.989 1181.94,748.137 C1185.27,746.898 1188.84,744.38 1192.63,740.583 C1196.97,736.167 1199.14,732.178 1199.14,728.614 C1199.14,726.212 1197.48,723.927 1194.15,721.757 C1191.2,719.898 1186.44,718.968 1179.85,718.968 C1170.24,718.968 1158.12,728.652 1143.48,748.021 C1133.72,760.959 1125.81,772.348 1119.77,782.187 C1122.71,780.56 1126.24,778.584 1130.35,776.26 C1135.38,773.394 1139.72,771.96 1143.36,771.96 C1152.43,771.96 1156.96,775.214 1156.96,781.722 C1156.96,788.152 1153.24,795.203 1145.8,802.873 C1140.53,808.296 1137.9,812.324 1137.9,814.958 C1137.9,817.67 1140.53,819.026 1145.8,819.026 C1148.44,819.026 1151.15,818.096 1153.94,816.237 C1156.73,814.455 1158.78,813.564 1160.1,813.564 C1161.18,813.564 1161.72,814.261 1161.72,815.656 C1161.72,817.902 1159.55,820.265 1155.22,822.745 C1147.93,826.928 1142.08,829.02 1137.67,829.02 C1129.84,829.02 1125.93,824.836 1125.93,816.469 C1125.93,811.201 1128.95,805.352 1134.99,798.921 C1139.41,794.195 1141.62,789.508 1141.62,784.86 C1141.62,780.831 1139.45,778.817 1135.11,778.817 C1133.41,778.817 1127.75,780.831 1118.14,784.86 C1115.28,789.663 1112.88,794.079 1110.94,798.108 C1103.58,813.448 1098.7,821.118 1096.3,821.118"/>
<path class="Note" d="M1125.58,666.167 C1129.38,666.167 1131.28,669.072 1131.28,674.883 C1131.28,679.067 1129.3,683.87 1125.35,689.293 C1121.86,694.174 1120.12,701.728 1120.12,711.954 C1120.12,716.835 1121.4,720.089 1123.95,721.716 C1125.74,722.956 1129.07,723.614 1133.95,723.692 C1139.22,723.692 1146.69,721.019 1156.38,715.673 L1158.24,717.532 C1155.76,720.709 1152.77,723.575 1149.29,726.132 C1144.1,729.928 1138.79,731.826 1133.37,731.826 C1125.54,731.826 1119.62,730.703 1115.59,728.456 C1110.55,725.667 1108.03,722.181 1108.03,717.997 C1108.03,706.454 1109.51,694.406 1112.45,681.856 C1113.53,677.285 1115.9,673.101 1119.54,669.305 C1121.63,667.213 1123.64,666.167 1125.58,666.167"/>
<path class="Note" d="M1737.52,893.832 C1740,893.832 1741.7,894.452 1742.63,895.692 C1744.03,897.783 1744.73,900.727 1744.73,904.524 C1744.73,908.94 1741.63,919.515 1735.43,936.249 C1725.28,964.682 1720.2,979.751 1720.2,981.455 C1720.2,986.026 1722.03,988.35 1725.67,988.428 C1727.22,988.428 1731.17,986.026 1737.52,981.223 C1743.8,976.652 1748.64,974.366 1752.05,974.366 C1753.44,974.366 1754.14,975.219 1754.14,976.923 C1754.14,979.79 1750.3,983.547 1742.63,988.195 C1730.08,995.865 1721.41,999.7 1716.6,999.7 C1708.93,999.7 1705.1,996.679 1705.1,990.636 C1705.1,990.481 1710.4,972.701 1721.02,937.295 C1727.45,915.99 1731.36,902.122 1732.76,895.692 C1732.99,894.452 1734.58,893.832 1737.52,893.832"/>
<path class="Note" d="M1732.29,576.876 C1736.09,576.876 1737.98,579.781 1737.98,585.592 C1737.98,589.775 1736.01,594.579 1732.06,600.002 C1728.57,604.883 1726.83,612.436 1726.83,622.663 C1726.83,627.544 1728.11,630.798 1730.66,632.425 C1732.45,633.664 1735.78,634.323 1740.66,634.4 C1745.93,634.4 1753.4,631.727 1763.09,626.382 L1764.95,628.241 C1762.47,631.417 1759.48,634.284 1756,636.841 C1750.81,640.637 1745.5,642.535 1740.08,642.535 C1732.25,642.535 1726.33,641.412 1722.3,639.165 C1717.26,636.376 1714.74,632.889 1714.74,628.706 C1714.74,617.162 1716.21,605.115 1719.16,592.564 C1720.24,587.993 1722.61,583.81 1726.25,580.013 C1728.34,577.922 1730.35,576.876 1732.29,576.876"/>
<path class="Note" d="M1763.9,747.207 C1766.3,747.207 1768.04,747.711 1769.13,748.718 C1770.37,749.803 1770.99,751.391 1770.99,753.483 C1770.99,756.117 1769.83,758.364 1767.5,760.223 C1757.43,767.351 1747.09,776.415 1736.47,787.416 C1738.88,798.03 1741.82,805.894 1745.31,811.007 C1749.88,817.748 1753.01,821.118 1754.72,821.118 C1756.27,821.118 1757.93,820.149 1759.72,818.212 C1760.96,816.895 1762.16,816.237 1763.32,816.237 C1765.8,816.237 1767.04,817.554 1767.04,820.188 C1767.04,822.977 1764.83,826.773 1760.41,831.577 C1758.01,834.056 1755.49,835.295 1752.86,835.295 C1747.44,835.295 1741.97,830.221 1736.47,820.072 C1730.9,809.845 1727.06,800.2 1724.97,791.135 C1721.1,803.066 1719.16,810.388 1719.16,813.099 C1719.16,818.445 1716.1,821.118 1709.98,821.118 C1706.65,821.118 1704.98,818.019 1704.98,811.821 C1704.98,808.877 1708.66,795.706 1716.02,772.309 C1719.66,760.843 1722.65,752.824 1724.97,748.253 C1725.51,747.324 1726.91,746.859 1729.15,746.859 C1731.79,746.859 1733.61,747.401 1734.61,748.486 C1735.62,749.57 1736.13,751.817 1736.13,755.226 C1736.13,756.93 1734.46,762.818 1731.13,772.89 C1739.42,764.755 1748.75,756.814 1759.14,749.067 C1760.76,747.827 1762.35,747.207 1763.9,747.207"/>
<path class="Note" d="M1732.29,666.167 C1736.09,666.167 1737.98,669.072 1737.98,674.883 C1737.98,679.067 1736.01,683.87 1732.06,689.293 C1728.57,694.174 1726.83,701.728 1726.83,711.954 C1726.83,716.835 1728.11,720.089 1730.66,721.716 C1732.45,722.956 1735.78,723.614 1740.66,723.692 C1745.93,723.692 1753.4,721.019 1763.09,715.673 L1764.95,717.532 C1762.47,720.709 1759.48,723.575 1756,726.132 C1750.81,729.928 1745.5,731.826 1740.08,731.826 C1732.25,731.826 1726.33,730.703 1722.3,728.456 C1717.26,725.667 1714.74,722.181 1714.74,717.997 C1714.74,706.454 1716.21,694.406 1719.16,681.856 C1720.24,677.285 1722.61,673.101 1726.25,669.305 C1728.34,667.213 1730.35,666.167 1732.29,666.167"/>
<path class="Note" d="M2440.6,829.061 C2444.93,826.117 2448.07,823.677 2450.01,821.74 C2453.57,817.944 2455.36,814.457 2455.36,811.281 C2455.36,807.64 2453.34,805.819 2449.31,805.819 C2441.49,805.819 2433.12,812.714 2424.21,826.505 C2421.5,830.688 2415.53,844.324 2406.31,867.411 C2413.67,875.003 2417.35,879.303 2417.35,880.31 C2417.35,881.705 2416.46,882.402 2414.68,882.402 C2413.29,882.402 2409.45,880.039 2403.18,875.313 C2396.36,891.195 2386.02,904.753 2372.15,915.987 C2357.97,927.453 2341.04,933.186 2321.36,933.186 C2313.85,933.186 2304.44,931.443 2293.12,927.957 C2284.06,925.168 2279.53,920.713 2279.53,914.593 C2279.53,905.528 2283.01,900.996 2289.99,900.996 C2294.17,900.996 2296.26,902.933 2296.26,906.806 C2296.26,908.046 2295.29,909.363 2293.36,910.758 C2292.35,911.455 2291.85,912.811 2291.85,914.825 C2291.85,917.227 2294.52,919.706 2299.86,922.263 C2305.68,925.052 2314.2,926.446 2325.43,926.446 C2339.92,926.446 2353.9,920.171 2367.38,907.62 C2379.62,896.231 2388.42,882.983 2393.76,867.876 C2391.67,866.171 2389.42,864.312 2387.02,862.298 C2379.59,857.882 2375.87,853.349 2375.87,848.701 C2375.87,846.764 2377.15,845.796 2379.7,845.796 C2383.11,845.796 2387.72,848.701 2393.53,854.512 C2394.77,855.751 2395.93,856.913 2397.02,857.998 C2399.73,850.56 2404.07,841.109 2410.03,829.642 C2420.8,808.879 2433.89,798.498 2449.31,798.498 C2454.81,798.498 2459.15,799.544 2462.33,801.636 C2465.5,803.727 2467.09,806.594 2467.09,810.235 C2467.09,816.046 2464.96,820.965 2460.7,824.994 C2456.28,829.178 2451.68,831.269 2446.87,831.269 C2442.69,831.269 2440.6,830.533 2440.6,829.061"/>
<path class="Note" d="M2397.25,576.876 C2401.05,576.876 2402.94,579.781 2402.94,585.592 C2402.94,589.775 2400.97,594.579 2397.02,600.002 C2393.53,604.883 2391.79,612.436 2391.79,622.663 C2391.79,627.544 2393.07,630.798 2395.62,632.425 C2397.4,633.664 2400.74,634.323 2405.62,634.4 C2410.89,634.4 2418.36,631.727 2428.05,626.382 L2429.9,628.241 C2427.43,631.417 2424.44,634.284 2420.96,636.841 C2415.77,640.637 2410.46,642.535 2405.04,642.535 C2397.21,642.535 2391.28,641.412 2387.26,639.165 C2382.22,636.376 2379.7,632.889 2379.7,628.706 C2379.7,617.162 2381.17,605.115 2384.12,592.564 C2385.2,587.993 2387.57,583.81 2391.21,580.013 C2393.3,577.922 2395.31,576.876 2397.25,576.876"/>
<path class="Note" d="M2367.96,821.118 C2363.78,821.118 2361.69,819.22 2361.69,815.423 C2361.69,808.993 2362.66,804.267 2364.59,801.246 C2372.65,789.315 2390.16,767.002 2417.12,734.308 C2429.29,719.511 2444.97,712.112 2464.19,712.112 C2471.62,712.112 2476.78,713.158 2479.64,715.249 C2484.06,718.503 2486.27,722.416 2486.27,726.987 C2486.27,731.79 2482.39,737.136 2474.65,743.024 C2467.29,748.602 2460.31,751.391 2453.73,751.391 C2451.17,751.391 2449.89,751.12 2449.89,750.578 C2449.89,749.803 2451.13,748.989 2453.61,748.137 C2456.94,746.898 2460.51,744.38 2464.3,740.583 C2468.64,736.167 2470.81,732.178 2470.81,728.614 C2470.81,726.212 2469.15,723.927 2465.81,721.757 C2462.87,719.898 2458.11,718.968 2451.52,718.968 C2441.91,718.968 2429.79,728.652 2415.15,748.021 C2405.38,760.959 2397.48,772.348 2391.44,782.187 C2394.38,780.56 2397.91,778.584 2402.01,776.26 C2407.05,773.394 2411.39,771.96 2415.03,771.96 C2424.09,771.96 2428.63,775.214 2428.63,781.722 C2428.63,788.152 2424.91,795.203 2417.47,802.873 C2412.2,808.296 2409.57,812.324 2409.57,814.958 C2409.57,817.67 2412.2,819.026 2417.47,819.026 C2420.1,819.026 2422.82,818.096 2425.61,816.237 C2428.39,814.455 2430.45,813.564 2431.76,813.564 C2432.85,813.564 2433.39,814.261 2433.39,815.656 C2433.39,817.902 2431.22,820.265 2426.88,822.745 C2419.6,826.928 2413.75,829.02 2409.34,829.02 C2401.51,829.02 2397.6,824.836 2397.6,816.469 C2397.6,811.201 2400.62,805.352 2406.66,798.921 C2411.08,794.195 2413.29,789.508 2413.29,784.86 C2413.29,780.831 2411.12,778.817 2406.78,778.817 C2405.07,778.817 2399.42,780.831 2389.81,784.86 C2386.95,789.663 2384.54,794.079 2382.61,798.108 C2375.25,813.448 2370.37,821.118 2367.96,821.118"/>
<path class="Note" d="M2397.25,666.167 C2401.05,666.167 2402.94,669.072 2402.94,674.883 C2402.94,679.067 2400.97,683.87 2397.02,689.293 C2393.53,694.174 2391.79,701.728 2391.79,711.954 C2391.79,716.835 2393.07,720.089 2395.62,721.716 C2397.4,722.956 2400.74,723.614 2405.62,723.692 C2410.89,723.692 2418.36,721.019 2428.05,715.673 L2429.9,717.532 C2427.43,720.709 2424.44,723.575 2420.96,726.132 C2415.77,729.928 2410.46,731.826 2405.04,731.826 C2397.21,731.826 2391.28,730.703 2387.26,728.456 C2382.22,725.667 2379.7,722.181 2379.7,717.997 C2379.7,706.454 2381.17,694.406 2384.12,681.856 C2385.2,677.285 2387.57,673.101 2391.21,669.305 C2393.3,667.213 2395.31,666.167 2397.25,666.167"/>
<path class="Note" d="M3002.45,829.061 C3006.78,826.117 3009.92,823.677 3011.86,821.74 C3015.42,817.944 3017.2,814.457 3017.2,811.281 C3017.2,807.64 3015.19,805.819 3011.16,805.819 C3003.34,805.819 2994.97,812.714 2986.06,826.505 C2983.35,830.688 2977.38,844.324 2968.16,867.411 C2975.52,875.003 2979.2,879.303 2979.2,880.31 C2979.2,881.705 2978.31,882.402 2976.53,882.402 C2975.14,882.402 2971.3,880.039 2965.03,875.313 C2958.21,891.195 2947.87,904.753 2934,915.987 C2919.82,927.453 2902.89,933.186 2883.21,933.186 C2875.7,933.186 2866.29,931.443 2854.97,927.957 C2845.91,925.168 2841.38,920.713 2841.38,914.593 C2841.38,905.528 2844.86,900.996 2851.84,900.996 C2856.02,900.996 2858.11,902.933 2858.11,906.806 C2858.11,908.046 2857.14,909.363 2855.21,910.758 C2854.2,911.455 2853.7,912.811 2853.7,914.825 C2853.7,917.227 2856.37,919.706 2861.71,922.263 C2867.53,925.052 2876.05,926.446 2887.28,926.446 C2901.77,926.446 2915.75,920.171 2929.23,907.62 C2941.47,896.231 2950.27,882.983 2955.61,867.876 C2953.52,866.171 2951.27,864.312 2948.87,862.298 C2941.44,857.882 2937.72,853.349 2937.72,848.701 C2937.72,846.764 2938.99,845.796 2941.55,845.796 C2944.96,845.796 2949.57,848.701 2955.38,854.512 C2956.62,855.751 2957.78,856.913 2958.87,857.998 C2961.58,850.56 2965.92,841.109 2971.88,829.642 C2982.65,808.879 2995.74,798.498 3011.16,798.498 C3016.66,798.498 3021,799.544 3024.18,801.636 C3027.35,803.727 3028.94,806.594 3028.94,810.235 C3028.94,816.046 3026.81,820.965 3022.55,824.994 C3018.13,829.178 3013.52,831.269 3008.72,831.269 C3004.54,831.269 3002.45,830.533 3002.45,829.061"/>
<path class="Note" d="M2929.81,642.535 C2925.63,642.535 2923.54,640.637 2923.54,636.841 C2923.54,630.41 2924.51,625.684 2926.44,622.663 C2934.5,610.732 2952.01,588.419 2978.97,555.725 C2991.13,540.928 3006.82,533.529 3026.04,533.529 C3033.47,533.529 3038.63,534.575 3041.49,536.667 C3045.91,539.921 3048.12,543.833 3048.12,548.404 C3048.12,553.207 3044.24,558.553 3036.5,564.441 C3029.14,570.019 3022.16,572.808 3015.58,572.808 C3013.02,572.808 3011.74,572.537 3011.74,571.995 C3011.74,571.22 3012.98,570.407 3015.46,569.555 C3018.79,568.315 3022.36,565.797 3026.15,562.001 C3030.49,557.585 3032.66,553.595 3032.66,550.031 C3032.66,547.629 3031,545.344 3027.66,543.175 C3024.72,541.315 3019.96,540.386 3013.37,540.386 C3003.76,540.386 2991.64,550.07 2977,569.438 C2967.23,582.376 2959.33,593.765 2953.29,603.604 C2956.23,601.977 2959.76,600.002 2963.86,597.678 C2968.9,594.811 2973.24,593.378 2976.88,593.378 C2985.94,593.378 2990.48,596.632 2990.48,603.139 C2990.48,609.57 2986.76,616.62 2979.32,624.29 C2974.05,629.713 2971.42,633.742 2971.42,636.376 C2971.42,639.087 2974.05,640.443 2979.32,640.443 C2981.95,640.443 2984.67,639.513 2987.45,637.654 C2990.24,635.872 2992.3,634.981 2993.61,634.981 C2994.7,634.981 2995.24,635.679 2995.24,637.073 C2995.24,639.32 2993.07,641.683 2988.73,644.162 C2981.45,648.346 2975.6,650.437 2971.19,650.437 C2963.36,650.437 2959.45,646.254 2959.45,637.887 C2959.45,632.618 2962.47,626.769 2968.51,620.339 C2972.93,615.613 2975.14,610.926 2975.14,606.277 C2975.14,602.249 2972.97,600.234 2968.63,600.234 C2966.92,600.234 2961.27,602.249 2951.66,606.277 C2948.8,611.081 2946.39,615.497 2944.46,619.525 C2937.1,634.865 2932.22,642.535 2929.81,642.535"/>
<path class="Note" d="M2929.81,821.118 C2925.63,821.118 2923.54,819.22 2923.54,815.423 C2923.54,808.993 2924.51,804.267 2926.44,801.246 C2934.5,789.315 2952.01,767.002 2978.97,734.308 C2991.13,719.511 3006.82,712.112 3026.04,712.112 C3033.47,712.112 3038.63,713.158 3041.49,715.249 C3045.91,718.503 3048.12,722.416 3048.12,726.987 C3048.12,731.79 3044.24,737.136 3036.5,743.024 C3029.14,748.602 3022.16,751.391 3015.58,751.391 C3013.02,751.391 3011.74,751.12 3011.74,750.578 C3011.74,749.803 3012.98,748.989 3015.46,748.137 C3018.79,746.898 3022.36,744.38 3026.15,740.583 C3030.49,736.167 3032.66,732.178 3032.66,728.614 C3032.66,726.212 3031,723.927 3027.66,721.757 C3024.72,719.898 3019.96,718.968 3013.37,718.968 C3003.76,718.968 2991.64,728.652 2977,748.021 C2967.23,760.959 2959.33,772.348 2953.29,782.187 C2956.23,780.56 2959.76,778.584 2963.86,776.26 C2968.9,773.394 2973.24,771.96 2976.88,771.96 C2985.94,771.96 2990.48,775.214 2990.48,781.722 C2990.48,788.152 2986.76,795.203 2979.32,802.873 C2974.05,808.296 2971.42,812.324 2971.42,814.958 C2971.42,817.67 2974.05,819.026 2979.32,819.026 C2981.95,819.026 2984.67,818.096 2987.45,816.237 C2990.24,814.455 2992.3,813.564 2993.61,813.564 C2994.7,813.564 2995.24,814.261 2995.24,815.656 C2995.24,817.902 2993.07,820.265 2988.73,822.745 C2981.45,826.928 2975.6,829.02 2971.19,829.02 C2963.36,829.02 2959.45,824.836 2959.45,816.469 C2959.45,811.201 2962.47,805.352 2968.51,798.921 C2972.93,794.195 2975.14,789.508 2975.14,784.86 C2975.14,780.831 2972.97,778.817 2968.63,778.817 C2966.92,778.817 2961.27,780.831 2951.66,784.86 C2948.8,789.663 2946.39,794.079 2944.46,798.108 C2937.1,813.448 2932.22,821.118 2929.81,821.118"/>
<path class="Note" d="M2959.1,666.167 C2962.9,666.167 2964.79,669.072 2964.79,674.883 C2964.79,679.067 2962.82,683.87 2958.87,689.293 C2955.38,694.174 2953.64,701.728 2953.64,711.954 C2953.64,716.835 2954.92,720.089 2957.47,721.716 C2959.25,722.956 2962.59,723.614 2967.47,723.692 C2972.73,723.692 2980.21,721.019 2989.9,715.673 L2991.75,717.532 C2989.28,720.709 2986.29,723.575 2982.81,726.132 C2977.62,729.928 2972.31,731.826 2966.89,731.826 C2959.06,731.826 2953.13,730.703 2949.11,728.456 C2944.07,725.667 2941.55,722.181 2941.55,717.997 C2941.55,706.454 2943.02,694.406 2945.97,681.856 C2947.05,677.285 2949.42,673.101 2953.06,669.305 C2955.15,667.213 2957.16,666.167 2959.1,666.167"/>
<path class="Note" d="M3250.97,487.584 C3254.77,487.584 3256.67,490.49 3256.67,496.3 C3256.67,500.484 3254.69,505.287 3250.74,510.71 C3247.25,515.591 3245.51,523.145 3245.51,533.372 C3245.51,538.252 3246.79,541.506 3249.34,543.133 C3251.13,544.373 3254.46,545.031 3259.34,545.109 C3264.61,545.109 3272.08,542.436 3281.77,537.09 L3283.63,538.95 C3281.15,542.126 3278.17,544.993 3274.68,547.549 C3269.49,551.346 3264.18,553.244 3258.76,553.244 C3250.93,553.244 3245.01,552.12 3240.98,549.874 C3235.94,547.084 3233.42,543.598 3233.42,539.415 C3233.42,527.871 3234.9,515.824 3237.84,503.273 C3238.92,498.702 3241.29,494.518 3244.93,490.722 C3247.02,488.63 3249.04,487.584 3250.97,487.584"/>
<path class="Note" d="M3662.73,804.541 C3665.21,804.541 3666.91,805.161 3667.84,806.4 C3669.24,808.492 3669.93,811.436 3669.93,815.232 C3669.93,819.648 3666.84,830.223 3660.64,846.958 C3650.49,875.391 3645.41,890.459 3645.41,892.164 C3645.41,896.735 3647.23,899.059 3650.88,899.137 C3652.43,899.137 3656.38,896.735 3662.73,891.931 C3669,887.36 3673.85,885.075 3677.26,885.075 C3678.65,885.075 3679.35,885.927 3679.35,887.632 C3679.35,890.498 3675.51,894.256 3667.84,898.904 C3655.29,906.574 3646.61,910.409 3641.81,910.409 C3634.14,910.409 3630.31,907.388 3630.31,901.345 C3630.31,901.19 3635.61,883.409 3646.23,848.004 C3652.66,826.698 3656.57,812.831 3657.96,806.4 C3658.2,805.161 3659.79,804.541 3662.73,804.541"/>
<path class="Note" d="M3657.5,576.876 C3661.3,576.876 3663.19,579.781 3663.19,585.592 C3663.19,589.775 3661.22,594.579 3657.27,600.002 C3653.78,604.883 3652.04,612.436 3652.04,622.663 C3652.04,627.544 3653.32,630.798 3655.87,632.425 C3657.65,633.664 3660.99,634.323 3665.87,634.4 C3671.14,634.4 3678.61,631.727 3688.3,626.382 L3690.16,628.241 C3687.68,631.417 3684.69,634.284 3681.21,636.841 C3676.02,640.637 3670.71,642.535 3665.29,642.535 C3657.46,642.535 3651.53,641.412 3647.51,639.165 C3642.47,636.376 3639.95,632.889 3639.95,628.706 C3639.95,617.162 3641.42,605.115 3644.37,592.564 C3645.45,587.993 3647.82,583.81 3651.46,580.013 C3653.55,577.922 3655.56,576.876 3657.5,576.876"/>
<path class="Note" d="M3689.11,747.207 C3691.51,747.207 3693.25,747.711 3694.34,748.718 C3695.58,749.803 3696.2,751.391 3696.2,753.483 C3696.2,756.117 3695.04,758.364 3692.71,760.223 C3682.64,767.351 3672.3,776.415 3661.68,787.416 C3664.09,798.03 3667.03,805.894 3670.52,811.007 C3675.09,817.748 3678.22,821.118 3679.93,821.118 C3681.48,821.118 3683.14,820.149 3684.93,818.212 C3686.17,816.895 3687.37,816.237 3688.53,816.237 C3691.01,816.237 3692.25,817.554 3692.25,820.188 C3692.25,822.977 3690.04,826.773 3685.62,831.577 C3683.22,834.056 3680.7,835.295 3678.07,835.295 C3672.65,835.295 3667.18,830.221 3661.68,820.072 C3656.11,809.845 3652.27,800.2 3650.18,791.135 C3646.3,803.066 3644.37,810.388 3644.37,813.099 C3644.37,818.445 3641.31,821.118 3635.19,821.118 C3631.86,821.118 3630.19,818.019 3630.19,811.821 C3630.19,808.877 3633.87,795.706 3641.23,772.309 C3644.87,760.843 3647.85,752.824 3650.18,748.253 C3650.72,747.324 3652.12,746.859 3654.36,746.859 C3657,746.859 3658.82,747.401 3659.82,748.486 C3660.83,749.57 3661.33,751.817 3661.33,755.226 C3661.33,756.93 3659.67,762.818 3656.34,772.89 C3664.63,764.755 3673.96,756.814 3684.34,749.067 C3685.97,747.827 3687.56,747.207 3689.11,747.207"/>
<path class="Note" d="M3657.5,666.167 C3661.3,666.167 3663.19,669.072 3663.19,674.883 C3663.19,679.067 3661.22,683.87 3657.27,689.293 C3653.78,694.174 3652.04,701.728 3652.04,711.954 C3652.04,716.835 3653.32,720.089 3655.87,721.716 C3657.65,722.956 3660.99,723.614 3665.87,723.692 C3671.14,723.692 3678.61,721.019 3688.3,715.673 L3690.16,717.532 C3687.68,720.709 3684.69,723.575 3681.21,726.132 C3676.02,729.928 3670.71,731.826 3665.29,731.826 C3657.46,731.826 3651.53,730.703 3647.51,728.456 C3642.47,725.667 3639.95,722.181 3639.95,717.997 C3639.95,706.454 3641.42,694.406 3644.37,681.856 C3645.45,677.285 3647.82,673.101 3651.46,669.305 C3653.55,667.213 3655.56,666.167 3657.5,666.167"/>
<path class="Clef" transform="matrix(2.3811,0,0,2.3811,212.156,2169.08)" d="M25.4,-25.1 C17.8,-25.1 11.7,-20.7 11.6,-20.7 C5.8,-16.4 3.5,-11.3 2.6,-7.8 C2.1,-6 1.9,-4.2 1.9,-2.5 C1.9,-0.1 2.3,2.1 3.2,4 C4.4,6.7 6.7,8.6 9.7,9.6 C10.9,10 12.2,10.2 13.5,10.2 C15.7,10.2 18,9.6 19.9,8.5 C23,6.8 24.9,3.2 24.9,-0.7 C24.9,-4.2 23.1,-7.4 20.1,-9.3 C18,-10.7 16,-11.1 14.3,-11.1 C13.1,-11.1 12,-10.9 11.1,-10.6 C10.1,-10.2 8.4,-9.2 7.6,-8.5 C7.9,-10.4 9.1,-13.3 10.2,-14.9 C11.3,-16.5 13.5,-18.5 15.2,-19.4 C17.7,-20.8 20.9,-21.4 24.4,-21.4 C34.6,-21.4 39.6,-13.2 39.6,3.6 C39.6,12.9 36.1,21.8 33.1,27.7 C29.8,34.3 25.4,40.6 21.5,44.1 C11.1,53.6 1.3,58.1 1.2,58.1 C1.2,58.1 -0.3,59 0.1,60.5 C0.4,61.5 1.3,61.7 1.9,61.7 C2,61.7 2.3,61.6 2.4,61.6 C2.5,61.6 13.9,56.9 23,49.8 C28.1,46.1 32.7,42.1 36.7,37.8 C40.3,33.9 43.4,29.7 45.9,25.5 C50.3,18 52.8,10.2 52.8,3.5 C52.8,-4.8 50.6,-11.7 46.5,-16.6 C41.8,-22.2 34.7,-25.1 25.4,-25.1 M56.8,-12.4 C56.8,-9.6 59,-7.4 61.6,-7.4 C64.2,-7.4 66.4,-9.6 66.4,-12.4 C66.4,-15.2 64.2,-17.5 61.6,-17.5 C59,-17.5 56.8,-15.2 56.8,-12.4 M56.8,12.3 C56.8,15.1 59,17.4 61.6,17.4 C64.2,17.4 66.4,15.1 66.4,12.3 C66.4,9.5 64.2,7.2 61.6,7.2 C59,7.2 56.8,9.5 56.8,12.3"/>
<path class="Clef" transform="matrix(2.3811,0,0,2.3811,212.156,1570.39)" d="M63.37,-5.89004 C62.14,-11.32 59.5,-15.14 58.72,-16.1801 C55.5301,-20.45 51.52,-23.3 46.8301,-24.65 C43.72,-25.54 40.72,-25.65 38.3,-25.47 C37.2601,-31.4801 36.2601,-37.3601 35.35,-42.8101 C40.79,-48.97 44.42,-54.77 46.69,-59.07 C50.1601,-65.65 51.3101,-70.2301 51.3601,-70.4301 C53.0801,-75.64 53.44,-83.34 52.34,-91.55 C51.3301,-99.1 49.24,-105.81 46.89,-109.06 C45.8601,-110.49 44.8101,-111.22 43.77,-111.22 C42.55,-111.22 40.04,-109.98 37.15,-107.21 C34.85,-105.01 31.5801,-101.12 29.02,-95.1101 C26.02,-88.05 25.8101,-78.5601 26.1601,-71.84 C26.54,-64.57 27.65,-58.8801 27.6601,-58.8301 C27.6801,-58.74 27.94,-57.24 28.39,-54.67 C28.1601,-54.44 27.92,-54.22 27.67,-53.9801 C26.6301,-52.9801 25.44,-51.84 24.0601,-50.4601 C23.2,-49.6 22.25,-48.69 21.25,-47.72 C12.79,-39.57 0,-27.25 0,-8.1 C0,-3.4 0.9,1.01992 2.68008,5.02998 C4.27002,8.62998 6.57002,11.91 9.5,14.78 C17.2301,22.33 27.82,25.5399 34.8801,25.38 C37.8301,25.31 40.4601,25.0699 42.85,24.6199 C44.6801,34.2199 45.82,41.25 45.8601,46.5899 C45.9,53.1 44.25,57.0699 40.35,59.8399 C37.92,61.5699 35.1101,62.5199 32.0101,62.6699 C29.42,62.7899 27.1601,62.3199 25.7301,61.91 L25.72,61.91 C25.72,61.91 25.4301,61.83 25.42,61.63 C25.4101,61.45 25.7601,61.4 25.77,61.4 L25.79,61.4 C27.7101,60.96 31.2801,59.73 33.64,56.43 C35.44,53.91 36.3101,49.2899 34.47,45.35 C33.3601,42.96 30.85,40.01 25.2301,39.56 C22.74,39.36 20.47,39.8699 18.47,41.0699 C16.6601,42.15 15.1601,43.7899 14.1101,45.7899 C11.65,50.4899 12.1101,56.2199 15.24,60.06 C18.2,63.68 22.82,65.9899 28.25,66.5699 C29.1,66.66 29.95,66.7 30.8,66.7 C31.5101,66.7 32.22,66.6699 32.92,66.61 C31.72,66.9399 30.64,67.4899 29.77,68.25 C28.2801,69.5399 27.44,71.38 27.44,73.41 C27.44,75.28 28.0601,76.65 29.55,78.0399 C28.4101,78.5 27.55,78.98 26.79,79.56 C25.25,80.73 24.34,82.46 24.34,84.1899 C24.34,87.45 27.3,89.63 31.72,89.63 C37.1301,89.63 40.9101,86.63 40.9101,82.35 C40.9101,80.1199 39.9101,78.18 38.0801,76.83 C41.0101,75.6199 42.37,73.9399 42.37,71.56 C42.39,70.05 41.69,68.61 40.49,67.6899 C39.2801,66.7399 37.62,66.2399 35.69,66.2399 L35.5101,66.2399 C38.2801,65.7 40.92,64.7 43.2101,63.28 C46.87,60.71 48.99,56.73 49.67,51.1 C50.2301,46.46 49.84,40.55 48.44,32.48 C48.0801,30.3899 47.54,27.36 46.8801,23.6 C52.6301,21.68 56.79,18.11 60.5601,12.26 C63.85,6.51992 64.8,0.419922 63.37,-5.89004 M32.39,87.5399 C30.19,87.5399 28.7301,86.1199 28.7301,84.01 C28.7301,82.11 29.65,80.5 31.32,79.4699 C31.6801,79.66 31.77,79.71 32.1101,79.88 C33.3,80.48 33.3,80.48 33.55,80.63 L33.5601,80.6399 C35.47,81.73 36.25,82.76 36.25,84.18 C36.24,86.0899 34.59,87.5399 32.39,87.5399 M38.3101,71.63 C38.3101,73.2699 37.7301,74.3399 36.1801,75.53 C34.74,74.78 34.35,74.56 33.9801,74.3399 L33.8801,74.28 C32.3301,73.3399 31.85,72.66 31.85,71.4 C31.85,69.6 33.2301,68.3399 35.19,68.3399 C37.17,68.35 38.3101,69.55 38.3101,71.63 M33.15,-83.8101 C34.9301,-89.55 37.67,-92.8 39.6601,-94.5301 C41.4101,-96.05 43.0601,-96.7601 43.9801,-96.7601 C44.12,-96.7601 44.24,-96.74 44.34,-96.7101 C44.8,-96.57 45.3301,-96 45.8,-95.1301 C48.1101,-90.84 47.37,-84.1301 46.0301,-79.69 C44.4,-74.29 41.4801,-68.6801 32.69,-59.0601 C32.52,-60.17 32.3601,-61.22 32.2101,-62.2 C30.95,-70.49 31.27,-77.7601 33.15,-83.8101 M29.15,20.31 C24.5101,19.0899 20.0801,16.5899 16.32,13.0899 C15.0101,11.86 13.14,9.68994 11.67,6.3 C10.3101,3.13994 9.65,-0.290039 9.7,-3.88008 C9.77002,-8.57002 11.0801,-13.39 13.59,-18.1801 C16.5101,-23.7601 21.07,-29.29 27.1301,-34.62 C28.5801,-35.9 29.95,-37.1801 31.24,-38.4601 C32,-34.2 32.8301,-29.5101 33.7101,-24.6301 C29.8601,-23.3601 25.1101,-20.2101 22,-14.5601 C18.47,-7.99004 18.6101,-2.47002 19.34,1.00996 C20.2801,5.46992 22.8101,9.22998 26.27,11.3199 C27.2,11.88 31.3301,14.01 33.17,13.43 C33.54,13.31 33.8101,13.0899 33.95,12.76 C34.4601,11.5899 33.44,10.95 31.8801,9.98994 C31.2801,9.61992 30.6101,9.2 29.8801,8.66992 C26.5601,6.17998 25.1101,1.72998 26.1801,-2.65 C26.7601,-5.05 28.04,-7.21006 29.8801,-8.91006 C31.55,-10.4601 33.59,-11.5601 35.97,-12.2 C38.0101,-0.960059 40.07,10.1899 41.7101,18.55 C41.84,19.2399 41.9801,19.91 42.1101,20.58 C37.7101,21.51 33.37,21.4199 29.15,20.31 M54.9,10.1 C53.7301,13.28 51.27,17.35 46.14,19.41 C46.07,18.9899 45.99,18.56 45.9101,18.13 C44.3601,9.36992 42.4301,-1.61006 40.47,-12.87 C50.82,-13.35 55.09,-5.91006 55.9801,-1.08008 C56.45,1.45 56.45,5.88994 54.9,10.1"/>
<path class="FiguredBass" d="M1729.13,2482.85 C1724.56,2482.85 1721.51,2484.69 1719.99,2488.37 C1718.48,2492.05 1717.72,2497.26 1717.72,2504 L1717.72,2514.95 C1720.94,2513.65 1723.72,2512.97 1726.07,2512.91 C1734.11,2512.91 1740.43,2514.68 1745.04,2518.24 C1749.65,2521.8 1751.95,2527.09 1751.95,2534.1 C1751.95,2541.12 1749.62,2546.43 1744.95,2550.02 C1740.28,2553.6 1733.99,2555.4 1726.07,2555.4 C1717.97,2555.4 1711.63,2551.64 1707.05,2544.12 C1702.48,2536.61 1700.19,2527.69 1700.19,2517.36 C1700.19,2507.09 1702.85,2498.19 1708.17,2490.64 C1713.48,2483.09 1720.47,2479.32 1729.13,2479.32 C1734.82,2479.32 1739.74,2480.76 1743.88,2483.64 C1748.03,2486.51 1750.1,2490.3 1750.1,2495 C1750.1,2497.72 1749.11,2500.07 1747.13,2502.05 C1745.15,2504.03 1742.79,2505.02 1740.03,2505.02 C1737.28,2505.02 1734.91,2504.03 1732.94,2502.05 C1730.96,2500.07 1729.97,2497.72 1729.97,2495 C1729.97,2492.34 1730.96,2489.99 1732.94,2487.95 C1733.62,2487.15 1734.57,2486.47 1735.81,2485.91 C1735.5,2485.11 1734.88,2484.49 1733.96,2484.05 C1732.6,2483.25 1730.99,2482.85 1729.13,2482.85 M1733.68,2520.79 C1732.56,2517.89 1730.12,2516.43 1726.35,2516.43 C1722.58,2516.43 1720.24,2517.89 1719.34,2520.79 C1718.45,2523.7 1718,2528.12 1718,2534.06 C1718,2541.05 1718.45,2545.75 1719.34,2548.16 C1720.24,2550.57 1722.58,2551.78 1726.35,2551.78 C1730.12,2551.78 1732.56,2550.32 1733.68,2547.42 C1734.79,2544.51 1735.35,2540.07 1735.35,2534.1 C1735.35,2528.14 1734.79,2523.7 1733.68,2520.79"/>
<path class="FiguredBass" d="M1728.48,2587.02 C1730.83,2587.02 1733.31,2586.68 1735.9,2586 L1740.08,2584.89 C1740.88,2584.89 1741.52,2585.2 1741.98,2585.81 C1742.45,2586.43 1742.4,2586.99 1741.84,2587.48 L1698.7,2637.67 L1724.03,2637.67 L1724.03,2617.82 C1724.03,2616.4 1724.42,2615.3 1725.19,2614.53 C1725.96,2613.75 1726.95,2613.14 1728.16,2612.67 C1729.36,2612.21 1730.94,2610.83 1732.89,2608.54 C1734.84,2606.26 1736.71,2603.16 1738.5,2599.27 C1738.81,2598.65 1739.28,2598.34 1739.89,2598.34 C1741.19,2598.34 1741.84,2599.05 1741.84,2600.47 L1741.84,2637.67 L1752.79,2637.67 C1754.34,2637.67 1755.11,2638.39 1755.11,2639.81 C1755.11,2641.35 1754.34,2642.13 1752.79,2642.13 L1741.84,2642.13 L1741.84,2643.33 C1741.84,2647.17 1742.86,2650.51 1744.9,2653.35 C1746.94,2656.2 1749.57,2657.62 1752.79,2657.62 C1754.03,2657.62 1754.64,2658.18 1754.64,2659.29 C1754.64,2660.53 1754.03,2661.15 1752.79,2661.15 C1750.56,2661.15 1747.25,2660.82 1742.86,2660.17 C1738.47,2659.52 1735.15,2659.2 1732.89,2659.2 C1730.63,2659.2 1727.31,2659.52 1722.92,2660.17 C1718.52,2660.82 1715.22,2661.15 1712.99,2661.15 C1711.75,2661.15 1711.13,2660.53 1711.13,2659.29 C1711.13,2658.18 1711.75,2657.62 1712.99,2657.62 C1716.21,2657.62 1718.85,2656.2 1720.92,2653.35 C1722.99,2650.51 1724.03,2647.17 1724.03,2643.33 L1724.03,2642.13 L1698.7,2642.13 C1697.09,2642.13 1695.9,2641.74 1695.13,2640.97 C1694.36,2640.2 1693.97,2639.41 1693.97,2638.6 C1693.97,2638.29 1694.7,2637.23 1696.15,2635.4 C1697.6,2633.58 1699.38,2631.15 1701.49,2628.12 C1703.59,2625.09 1705.68,2621.64 1707.75,2617.77 C1709.82,2613.91 1711.58,2609.27 1713.04,2603.86 C1714.49,2598.45 1715.22,2592.99 1715.22,2587.48 C1715.22,2585.88 1715.9,2585.07 1717.26,2585.07 C1717.44,2585.07 1718.09,2585.23 1719.21,2585.54 C1720.32,2585.85 1721.74,2586.17 1723.47,2586.51 C1725.2,2586.85 1726.87,2587.02 1728.48,2587.02"/>
<path class="FiguredBass" d="M2393.44,2481.27 C2395.79,2481.27 2398.27,2480.93 2400.86,2480.25 L2405.04,2479.14 C2405.84,2479.14 2406.48,2479.45 2406.94,2480.06 C2407.4,2480.68 2407.36,2481.24 2406.8,2481.73 L2363.66,2531.92 L2388.99,2531.92 L2388.99,2512.07 C2388.99,2510.65 2389.38,2509.55 2390.15,2508.78 C2390.92,2508 2391.91,2507.39 2393.12,2506.92 C2394.32,2506.46 2395.9,2505.08 2397.85,2502.79 C2399.8,2500.51 2401.67,2497.41 2403.46,2493.52 C2403.77,2492.9 2404.23,2492.59 2404.85,2492.59 C2406.15,2492.59 2406.8,2493.3 2406.8,2494.72 L2406.8,2531.92 L2417.75,2531.92 C2419.29,2531.92 2420.07,2532.64 2420.07,2534.06 C2420.07,2535.6 2419.29,2536.38 2417.75,2536.38 L2406.8,2536.38 L2406.8,2537.58 C2406.8,2541.42 2407.82,2544.76 2409.86,2547.6 C2411.9,2550.45 2414.53,2551.87 2417.75,2551.87 C2418.99,2551.87 2419.6,2552.43 2419.6,2553.54 C2419.6,2554.78 2418.99,2555.4 2417.75,2555.4 C2415.52,2555.4 2412.21,2555.07 2407.82,2554.42 C2403.43,2553.77 2400.11,2553.45 2397.85,2553.45 C2395.59,2553.45 2392.27,2553.77 2387.88,2554.42 C2383.48,2555.07 2380.18,2555.4 2377.95,2555.4 C2376.71,2555.4 2376.09,2554.78 2376.09,2553.54 C2376.09,2552.43 2376.71,2551.87 2377.95,2551.87 C2381.16,2551.87 2383.81,2550.45 2385.88,2547.6 C2387.95,2544.76 2388.99,2541.42 2388.99,2537.58 L2388.99,2536.38 L2363.66,2536.38 C2362.05,2536.38 2360.86,2535.99 2360.09,2535.22 C2359.32,2534.45 2358.93,2533.66 2358.93,2532.85 C2358.93,2532.54 2359.66,2531.48 2361.11,2529.65 C2362.56,2527.83 2364.34,2525.4 2366.44,2522.37 C2368.55,2519.34 2370.63,2515.89 2372.71,2512.02 C2374.78,2508.16 2376.54,2503.52 2377.99,2498.11 C2379.45,2492.7 2380.18,2487.24 2380.18,2481.73 C2380.18,2480.13 2380.86,2479.32 2382.22,2479.32 C2382.4,2479.32 2383.05,2479.48 2384.16,2479.79 C2385.28,2480.1 2386.7,2480.42 2388.43,2480.76 C2390.16,2481.1 2391.83,2481.27 2393.44,2481.27"/>
<path class="FiguredBass" d="M2967.82,2515.04 C2967.82,2516.03 2968.37,2516.99 2969.49,2517.92 C2970.6,2518.84 2971.82,2519.73 2973.15,2520.56 C2974.48,2521.39 2975.7,2522.97 2976.81,2525.29 C2977.93,2527.61 2978.48,2530.53 2978.48,2534.06 C2978.48,2540.86 2975.92,2546.12 2970.78,2549.83 C2965.65,2553.54 2959.16,2555.4 2951.3,2555.4 C2944.99,2555.4 2939.5,2553.82 2934.83,2550.66 C2930.17,2547.51 2927.83,2543.37 2927.83,2538.23 C2927.83,2535.51 2928.82,2533.15 2930.8,2531.14 C2932.78,2529.13 2935.14,2528.12 2937.9,2528.12 C2940.65,2528.12 2942.98,2529.11 2944.9,2531.09 C2946.82,2533.07 2947.78,2535.45 2947.78,2538.23 C2947.78,2539.47 2946.76,2540.82 2944.72,2542.27 C2942.67,2543.72 2941.65,2545.07 2941.65,2546.3 C2941.65,2548.22 2942.6,2549.63 2944.48,2550.53 C2946.37,2551.42 2948.64,2551.87 2951.3,2551.87 C2954.77,2551.87 2957.22,2550.15 2958.68,2546.72 C2960.13,2543.29 2960.86,2539.07 2960.86,2534.06 L2960.86,2531.65 C2960.86,2528.31 2960.75,2525.77 2960.53,2524.04 C2960.32,2522.31 2959.64,2520.76 2958.49,2519.4 C2957.35,2518.04 2955.6,2517.36 2953.25,2517.36 L2941.1,2517.36 C2939.67,2517.36 2938.96,2516.59 2938.96,2515.04 C2938.96,2513.62 2939.67,2512.91 2941.1,2512.91 L2953.25,2512.91 C2955.79,2512.91 2957.77,2511.95 2959.19,2510.03 C2959.68,2509.35 2960.08,2508.24 2960.39,2506.69 C2960.7,2504.65 2960.86,2501.71 2960.86,2497.88 L2960.86,2496.67 C2960.86,2487.46 2957.46,2482.85 2950.65,2482.85 C2944.65,2482.85 2941.65,2484.52 2941.65,2487.86 C2941.65,2488.97 2942.57,2490.16 2944.39,2491.43 C2946.22,2492.7 2947.13,2493.89 2947.13,2495 C2947.13,2497.41 2946.28,2499.48 2944.58,2501.22 C2942.88,2502.95 2940.8,2503.81 2938.36,2503.81 C2935.92,2503.81 2933.86,2502.95 2932.19,2501.22 C2930.52,2499.48 2929.69,2497.41 2929.69,2495 C2929.69,2490.24 2931.76,2486.43 2935.9,2483.59 C2940.05,2480.74 2944.96,2479.32 2950.65,2479.32 C2958.14,2479.32 2964.29,2480.76 2969.11,2483.64 C2973.94,2486.51 2976.35,2490.86 2976.35,2496.67 C2976.35,2500.81 2975.92,2504.03 2975.05,2506.32 C2974.19,2508.61 2973.2,2510 2972.08,2510.49 C2970.97,2510.99 2969.98,2511.56 2969.11,2512.21 C2968.25,2512.86 2967.82,2513.8 2967.82,2515.04"/>
<path class="FiguredBass" d="M3224.71,2486.19 C3224.9,2486.19 3225.3,2485.79 3225.92,2484.98 C3228.58,2481.21 3232.29,2479.32 3237.05,2479.32 C3240.89,2479.32 3244.5,2480.74 3247.91,2483.59 C3251.31,2486.43 3254.12,2487.86 3256.35,2487.86 C3258.76,2487.86 3261.05,2487.15 3263.21,2485.72 C3265.38,2484.3 3267.09,2482.88 3268.36,2481.46 C3269.63,2480.03 3270.45,2479.32 3270.82,2479.32 C3271.44,2479.32 3272,2479.52 3272.49,2479.93 C3272.99,2480.33 3273.23,2480.84 3273.23,2481.46 C3273.23,2481.89 3271.97,2484.02 3269.43,2487.86 C3266.89,2491.69 3264.08,2496.13 3260.99,2501.17 C3257.89,2506.21 3255.08,2512.5 3252.54,2520.05 C3250.01,2527.6 3248.74,2534.8 3248.74,2541.67 C3248.74,2544.33 3249.02,2547.39 3249.58,2550.85 C3250.01,2553.51 3250.01,2555.03 3249.58,2555.4 C3249.27,2555.71 3248.74,2555.86 3248,2555.86 C3247.69,2555.86 3246.25,2555.46 3243.68,2554.65 C3241.12,2553.85 3238.66,2553.45 3236.31,2553.45 C3234.21,2553.45 3231.78,2553.85 3229.03,2554.65 C3226.27,2555.46 3224.74,2555.86 3224.43,2555.86 C3223.75,2555.86 3223.2,2555.58 3222.76,2555.03 C3222.33,2554.47 3222.27,2553.88 3222.58,2553.26 C3226.23,2544.54 3230.67,2536.05 3235.89,2527.8 C3241.12,2519.54 3247.66,2510.03 3255.51,2499.27 C3252.54,2500.88 3249.55,2501.68 3246.51,2501.68 C3243.3,2501.68 3240.05,2500.24 3236.77,2497.37 C3233.5,2494.49 3230.8,2493.05 3228.7,2493.05 C3227.16,2493.05 3225.81,2493.93 3224.67,2495.7 C3223.52,2497.46 3222.95,2500.1 3222.95,2503.63 L3222.95,2515.04 C3222.95,2516.59 3222.24,2517.36 3220.82,2517.36 C3219.27,2517.36 3218.5,2516.59 3218.5,2515.04 L3218.5,2481.64 C3218.5,2480.1 3219.27,2479.32 3220.82,2479.32 C3222.24,2479.32 3222.95,2480.1 3222.95,2481.64 L3222.95,2483.78 C3222.95,2484.27 3223.07,2484.7 3223.32,2485.07 C3224.06,2485.82 3224.53,2486.19 3224.71,2486.19"/>
<path class="FiguredBass" d="M3247.73,2642.87 C3247.05,2643.61 3246.15,2643.98 3245.03,2643.98 C3243.92,2643.98 3243.01,2643.6 3242.3,2642.82 C3241.59,2642.05 3241.23,2641.17 3241.23,2640.18 L3241.23,2626.91 L3227.96,2626.91 C3226.85,2626.91 3225.94,2626.53 3225.23,2625.75 C3224.52,2624.98 3224.16,2624.1 3224.16,2623.11 C3224.16,2622.12 3224.52,2621.24 3225.23,2620.47 C3225.94,2619.69 3226.85,2619.31 3227.96,2619.31 L3241.23,2619.31 L3241.23,2606.04 C3241.23,2605.05 3241.59,2604.17 3242.3,2603.39 C3243.01,2602.62 3243.92,2602.24 3245.03,2602.24 C3246.15,2602.24 3247.06,2602.62 3247.77,2603.39 C3248.48,2604.17 3248.84,2605.05 3248.84,2606.04 L3248.84,2619.31 L3262.11,2619.31 C3263.22,2619.31 3264.13,2619.69 3264.84,2620.47 C3265.55,2621.24 3265.91,2622.12 3265.91,2623.11 C3265.91,2624.1 3265.55,2624.98 3264.84,2625.75 C3264.13,2626.53 3263.22,2626.91 3262.11,2626.91 L3248.84,2626.91 L3248.84,2640.18 C3248.84,2641.17 3248.47,2642.07 3247.73,2642.87"/>
<path class="FiguredBass" d="M1737.48,1793.87 C1742.43,1788.49 1744.9,1783.29 1744.9,1778.28 C1744.9,1774.2 1743.16,1770.98 1739.66,1768.63 C1736.17,1766.28 1731.98,1765.11 1727.09,1765.11 C1723.63,1765.11 1720.86,1766.19 1718.79,1768.35 C1716.72,1770.52 1715.68,1773.02 1715.68,1775.87 C1715.68,1779.33 1717.2,1781.96 1720.23,1783.75 L1737.48,1793.87 M1742.03,1796.46 C1750.44,1801.35 1754.64,1807.78 1754.64,1815.76 C1754.64,1821.76 1752.08,1826.91 1746.94,1831.21 C1741.81,1835.51 1734.79,1837.66 1725.88,1837.66 C1718.4,1837.66 1711.89,1835.68 1706.36,1831.72 C1700.82,1827.76 1698.05,1822.63 1698.05,1816.32 C1698.05,1813.97 1698.73,1811.59 1700.09,1809.17 C1701.45,1806.76 1702.72,1804.95 1703.9,1803.75 C1705.07,1802.54 1706.99,1800.67 1709.65,1798.13 C1703.46,1793.87 1700.37,1788.49 1700.37,1781.99 C1700.37,1776.43 1702.75,1771.63 1707.52,1767.61 C1712.28,1763.59 1718.8,1761.58 1727.09,1761.58 C1733.71,1761.58 1739.45,1763.08 1744.3,1766.08 C1749.16,1769.08 1751.58,1773.15 1751.58,1778.28 C1751.58,1783.79 1748.4,1789.85 1742.03,1796.46 M1714.2,1800.83 C1707.89,1806.33 1704.73,1811.49 1704.73,1816.32 C1704.73,1821.39 1706.84,1825.63 1711.04,1829.03 C1715.25,1832.43 1720.19,1834.13 1725.88,1834.13 C1729.84,1834.13 1733.01,1832.86 1735.39,1830.33 C1737.78,1827.79 1738.97,1824.85 1738.97,1821.51 C1738.97,1817.25 1737.2,1814.09 1733.68,1812.05 L1714.2,1800.83 "/>
<path class="FiguredBass" d="M1729.13,1870.86 C1724.56,1870.86 1721.51,1872.7 1719.99,1876.38 C1718.48,1880.06 1717.72,1885.27 1717.72,1892.01 L1717.72,1902.96 C1720.94,1901.66 1723.72,1900.98 1726.07,1900.92 C1734.11,1900.92 1740.43,1902.69 1745.04,1906.25 C1749.65,1909.81 1751.95,1915.09 1751.95,1922.11 C1751.95,1929.13 1749.62,1934.44 1744.95,1938.03 C1740.28,1941.61 1733.99,1943.41 1726.07,1943.41 C1717.97,1943.41 1711.63,1939.65 1707.05,1932.13 C1702.48,1924.62 1700.19,1915.7 1700.19,1905.37 C1700.19,1895.1 1702.85,1886.2 1708.17,1878.65 C1713.48,1871.1 1720.47,1867.33 1729.13,1867.33 C1734.82,1867.33 1739.74,1868.77 1743.88,1871.65 C1748.03,1874.52 1750.1,1878.31 1750.1,1883.01 C1750.1,1885.73 1749.11,1888.08 1747.13,1890.06 C1745.15,1892.04 1742.79,1893.03 1740.03,1893.03 C1737.28,1893.03 1734.91,1892.04 1732.94,1890.06 C1730.96,1888.08 1729.97,1885.73 1729.97,1883.01 C1729.97,1880.35 1730.96,1878 1732.94,1875.96 C1733.62,1875.16 1734.57,1874.48 1735.81,1873.92 C1735.5,1873.11 1734.88,1872.5 1733.96,1872.06 C1732.6,1871.26 1730.99,1870.86 1729.13,1870.86 M1733.68,1908.8 C1732.56,1905.89 1730.12,1904.44 1726.35,1904.44 C1722.58,1904.44 1720.24,1905.89 1719.34,1908.8 C1718.45,1911.71 1718,1916.13 1718,1922.07 C1718,1929.06 1718.45,1933.76 1719.34,1936.17 C1720.24,1938.58 1722.58,1939.79 1726.35,1939.79 C1730.12,1939.79 1732.56,1938.33 1733.68,1935.43 C1734.79,1932.52 1735.35,1928.08 1735.35,1922.11 C1735.35,1916.15 1734.79,1911.71 1733.68,1908.8"/>
<path class="FiguredBass" d="M1728.48,1975.03 C1730.83,1975.03 1733.31,1974.69 1735.9,1974.01 L1740.08,1972.9 C1740.88,1972.9 1741.52,1973.21 1741.98,1973.82 C1742.45,1974.44 1742.4,1975 1741.84,1975.49 L1698.7,2025.68 L1724.03,2025.68 L1724.03,2005.83 C1724.03,2004.41 1724.42,2003.31 1725.19,2002.54 C1725.96,2001.76 1726.95,2001.15 1728.16,2000.68 C1729.36,2000.22 1730.94,1998.84 1732.89,1996.55 C1734.84,1994.27 1736.71,1991.17 1738.5,1987.28 C1738.81,1986.66 1739.28,1986.35 1739.89,1986.35 C1741.19,1986.35 1741.84,1987.06 1741.84,1988.48 L1741.84,2025.68 L1752.79,2025.68 C1754.34,2025.68 1755.11,2026.4 1755.11,2027.82 C1755.11,2029.36 1754.34,2030.14 1752.79,2030.14 L1741.84,2030.14 L1741.84,2031.34 C1741.84,2035.18 1742.86,2038.52 1744.9,2041.36 C1746.94,2044.21 1749.57,2045.63 1752.79,2045.63 C1754.03,2045.63 1754.64,2046.19 1754.64,2047.3 C1754.64,2048.54 1754.03,2049.16 1752.79,2049.16 C1750.56,2049.16 1747.25,2048.83 1742.86,2048.18 C1738.47,2047.53 1735.15,2047.21 1732.89,2047.21 C1730.63,2047.21 1727.31,2047.53 1722.92,2048.18 C1718.52,2048.83 1715.22,2049.16 1712.99,2049.16 C1711.75,2049.16 1711.13,2048.54 1711.13,2047.3 C1711.13,2046.19 1711.75,2045.63 1712.99,2045.63 C1716.21,2045.63 1718.85,2044.21 1720.92,2041.36 C1722.99,2038.52 1724.03,2035.18 1724.03,2031.34 L1724.03,2030.14 L1698.7,2030.14 C1697.09,2030.14 1695.9,2029.75 1695.13,2028.98 C1694.36,2028.2 1693.97,2027.42 1693.97,2026.61 C1693.97,2026.3 1694.7,2025.24 1696.15,2023.41 C1697.6,2021.59 1699.38,2019.16 1701.49,2016.13 C1703.59,2013.1 1705.68,2009.65 1707.75,2005.78 C1709.82,2001.92 1711.58,1997.28 1713.04,1991.87 C1714.49,1986.46 1715.22,1981 1715.22,1975.49 C1715.22,1973.89 1715.9,1973.08 1717.26,1973.08 C1717.44,1973.08 1718.09,1973.24 1719.21,1973.55 C1720.32,1973.86 1721.74,1974.18 1723.47,1974.52 C1725.2,1974.86 1726.87,1975.03 1728.48,1975.03"/>
<path class="FiguredBass" d="M2402.44,1793.87 C2407.39,1788.49 2409.86,1783.29 2409.86,1778.28 C2409.86,1774.2 2408.12,1770.98 2404.62,1768.63 C2401.13,1766.28 2396.94,1765.11 2392.05,1765.11 C2388.59,1765.11 2385.82,1766.19 2383.75,1768.35 C2381.67,1770.52 2380.64,1773.02 2380.64,1775.87 C2380.64,1779.33 2382.15,1781.96 2385.18,1783.75 L2402.44,1793.87 M2406.99,1796.46 C2415.4,1801.35 2419.6,1807.78 2419.6,1815.76 C2419.6,1821.76 2417.04,1826.91 2411.9,1831.21 C2406.77,1835.51 2399.75,1837.66 2390.84,1837.66 C2383.36,1837.66 2376.85,1835.68 2371.32,1831.72 C2365.78,1827.76 2363.01,1822.63 2363.01,1816.32 C2363.01,1813.97 2363.69,1811.59 2365.05,1809.17 C2366.41,1806.76 2367.68,1804.95 2368.86,1803.75 C2370.03,1802.54 2371.95,1800.67 2374.61,1798.13 C2368.42,1793.87 2365.33,1788.49 2365.33,1781.99 C2365.33,1776.43 2367.71,1771.63 2372.47,1767.61 C2377.24,1763.59 2383.76,1761.58 2392.05,1761.58 C2398.67,1761.58 2404.4,1763.08 2409.26,1766.08 C2414.11,1769.08 2416.54,1773.15 2416.54,1778.28 C2416.54,1783.79 2413.36,1789.85 2406.99,1796.46 M2379.15,1800.83 C2372.85,1806.33 2369.69,1811.49 2369.69,1816.32 C2369.69,1821.39 2371.79,1825.63 2376,1829.03 C2380.21,1832.43 2385.15,1834.13 2390.84,1834.13 C2394.8,1834.13 2397.97,1832.86 2400.35,1830.33 C2402.73,1827.79 2403.93,1824.85 2403.93,1821.51 C2403.93,1817.25 2402.16,1814.09 2398.64,1812.05 L2379.15,1800.83 "/>
<path class="FiguredBass" d="M2371.45,1867.33 C2371.45,1867.33 2372.94,1867.55 2375.91,1867.98 C2377.21,1868.17 2378.66,1868.35 2380.27,1868.54 C2384.54,1869.03 2388.65,1869.28 2392.61,1869.28 C2396.57,1869.28 2400.74,1869.03 2405.13,1868.54 C2406.86,1868.35 2408.38,1868.17 2409.68,1867.98 L2414.22,1867.33 C2415.15,1867.33 2415.85,1867.64 2416.31,1868.26 C2416.77,1868.88 2416.73,1869.37 2416.17,1869.74 C2406.71,1879.21 2393.38,1883.94 2376.19,1883.94 C2375.51,1883.94 2374.9,1884.19 2374.38,1884.68 C2373.85,1885.18 2373.59,1885.79 2373.59,1886.54 L2373.59,1901.1 C2377.98,1896.77 2383.3,1894.61 2389.55,1894.61 C2398.58,1894.61 2405.55,1896.63 2410.47,1900.68 C2415.38,1904.74 2417.84,1910.87 2417.84,1919.1 C2417.84,1926.09 2415.06,1931.89 2409.49,1936.49 C2403.93,1941.1 2397.28,1943.41 2389.55,1943.41 C2382.87,1943.41 2377.07,1941.89 2372.15,1938.86 C2367.23,1935.83 2364.77,1931.62 2364.77,1926.24 C2364.77,1923.52 2365.76,1921.16 2367.74,1919.15 C2369.72,1917.14 2372.09,1916.13 2374.84,1916.13 C2377.59,1916.13 2379.93,1917.12 2381.84,1919.1 C2383.76,1921.08 2384.72,1923.46 2384.72,1926.24 C2384.72,1927.48 2383.7,1928.83 2381.66,1930.28 C2379.62,1931.73 2378.6,1933.08 2378.6,1934.31 C2378.6,1938.03 2382.25,1939.88 2389.55,1939.88 C2396.66,1939.88 2400.21,1932.95 2400.21,1919.1 C2400.21,1905.74 2396.66,1899.03 2389.55,1898.97 C2383.17,1898.97 2378.72,1900.27 2376.19,1902.86 C2373.65,1905.46 2372.07,1906.76 2371.45,1906.76 C2369.91,1906.76 2369.17,1905.99 2369.23,1904.44 L2369.23,1869.74 C2369.23,1869.06 2369.44,1868.49 2369.88,1868.03 C2370.31,1867.56 2370.84,1867.33 2371.45,1867.33"/>
<path class="FiguredBass" d="M2393.44,1975.03 C2395.79,1975.03 2398.27,1974.69 2400.86,1974.01 L2405.04,1972.9 C2405.84,1972.9 2406.48,1973.21 2406.94,1973.82 C2407.4,1974.44 2407.36,1975 2406.8,1975.49 L2363.66,2025.68 L2388.99,2025.68 L2388.99,2005.83 C2388.99,2004.41 2389.38,2003.31 2390.15,2002.54 C2390.92,2001.76 2391.91,2001.15 2393.12,2000.68 C2394.32,2000.22 2395.9,1998.84 2397.85,1996.55 C2399.8,1994.27 2401.67,1991.17 2403.46,1987.28 C2403.77,1986.66 2404.23,1986.35 2404.85,1986.35 C2406.15,1986.35 2406.8,1987.06 2406.8,1988.48 L2406.8,2025.68 L2417.75,2025.68 C2419.29,2025.68 2420.07,2026.4 2420.07,2027.82 C2420.07,2029.36 2419.29,2030.14 2417.75,2030.14 L2406.8,2030.14 L2406.8,2031.34 C2406.8,2035.18 2407.82,2038.52 2409.86,2041.36 C2411.9,2044.21 2414.53,2045.63 2417.75,2045.63 C2418.99,2045.63 2419.6,2046.19 2419.6,2047.3 C2419.6,2048.54 2418.99,2049.16 2417.75,2049.16 C2415.52,2049.16 2412.21,2048.83 2407.82,2048.18 C2403.43,2047.53 2400.11,2047.21 2397.85,2047.21 C2395.59,2047.21 2392.27,2047.53 2387.88,2048.18 C2383.48,2048.83 2380.18,2049.16 2377.95,2049.16 C2376.71,2049.16 2376.09,2048.54 2376.09,2047.3 C2376.09,2046.19 2376.71,2045.63 2377.95,2045.63 C2381.16,2045.63 2383.81,2044.21 2385.88,2041.36 C2387.95,2038.52 2388.99,2035.18 2388.99,2031.34 L2388.99,2030.14 L2363.66,2030.14 C2362.05,2030.14 2360.86,2029.75 2360.09,2028.98 C2359.32,2028.2 2358.93,2027.42 2358.93,2026.61 C2358.93,2026.3 2359.66,2025.24 2361.11,2023.41 C2362.56,2021.59 2364.34,2019.16 2366.44,2016.13 C2368.55,2013.1 2370.63,2009.65 2372.71,2005.78 C2374.78,2001.92 2376.54,1997.28 2377.99,1991.87 C2379.45,1986.46 2380.18,1981 2380.18,1975.49 C2380.18,1973.89 2380.86,1973.08 2382.22,1973.08 C2382.4,1973.08 2383.05,1973.24 2384.16,1973.55 C2385.28,1973.86 2386.7,1974.18 2388.43,1974.52 C2390.16,1974.86 2391.83,1975.03 2393.44,1975.03"/>
<path class="FiguredBass" d="M3256.16,1793.87 C3261.11,1788.49 3263.58,1783.29 3263.58,1778.28 C3263.58,1774.2 3261.84,1770.98 3258.34,1768.63 C3254.85,1766.28 3250.66,1765.11 3245.77,1765.11 C3242.31,1765.11 3239.54,1766.19 3237.47,1768.35 C3235.4,1770.52 3234.36,1773.02 3234.36,1775.87 C3234.36,1779.33 3235.88,1781.96 3238.91,1783.75 L3256.16,1793.87 M3260.71,1796.46 C3269.12,1801.35 3273.33,1807.78 3273.33,1815.76 C3273.33,1821.76 3270.76,1826.91 3265.63,1831.21 C3260.49,1835.51 3253.47,1837.66 3244.57,1837.66 C3237.08,1837.66 3230.57,1835.68 3225.04,1831.72 C3219.5,1827.76 3216.73,1822.63 3216.73,1816.32 C3216.73,1813.97 3217.41,1811.59 3218.78,1809.17 C3220.14,1806.76 3221.4,1804.95 3222.58,1803.75 C3223.75,1802.54 3225.67,1800.67 3228.33,1798.13 C3222.15,1793.87 3219.05,1788.49 3219.05,1781.99 C3219.05,1776.43 3221.43,1771.63 3226.2,1767.61 C3230.96,1763.59 3237.48,1761.58 3245.77,1761.58 C3252.39,1761.58 3258.13,1763.08 3262.98,1766.08 C3267.84,1769.08 3270.26,1773.15 3270.26,1778.28 C3270.26,1783.79 3267.08,1789.85 3260.71,1796.46 M3232.88,1800.83 C3226.57,1806.33 3223.41,1811.49 3223.41,1816.32 C3223.41,1821.39 3225.52,1825.63 3229.72,1829.03 C3233.93,1832.43 3238.88,1834.13 3244.57,1834.13 C3248.52,1834.13 3251.69,1832.86 3254.08,1830.33 C3256.46,1827.79 3257.65,1824.85 3257.65,1821.51 C3257.65,1817.25 3255.88,1814.09 3252.36,1812.05 L3232.88,1800.83 "/>
<path class="FiguredBass" d="M3224.71,1874.2 C3224.9,1874.2 3225.3,1873.8 3225.92,1872.99 C3228.58,1869.22 3232.29,1867.33 3237.05,1867.33 C3240.89,1867.33 3244.5,1868.75 3247.91,1871.6 C3251.31,1874.44 3254.12,1875.87 3256.35,1875.87 C3258.76,1875.87 3261.05,1875.16 3263.21,1873.73 C3265.38,1872.31 3267.09,1870.89 3268.36,1869.47 C3269.63,1868.04 3270.45,1867.33 3270.82,1867.33 C3271.44,1867.33 3272,1867.53 3272.49,1867.93 C3272.99,1868.34 3273.23,1868.85 3273.23,1869.47 C3273.23,1869.9 3271.97,1872.03 3269.43,1875.87 C3266.89,1879.7 3264.08,1884.14 3260.99,1889.18 C3257.89,1894.22 3255.08,1900.51 3252.54,1908.06 C3250.01,1915.61 3248.74,1922.81 3248.74,1929.68 C3248.74,1932.34 3249.02,1935.4 3249.58,1938.86 C3250.01,1941.52 3250.01,1943.04 3249.58,1943.41 C3249.27,1943.72 3248.74,1943.87 3248,1943.87 C3247.69,1943.87 3246.25,1943.47 3243.68,1942.66 C3241.12,1941.86 3238.66,1941.46 3236.31,1941.46 C3234.21,1941.46 3231.78,1941.86 3229.03,1942.66 C3226.27,1943.47 3224.74,1943.87 3224.43,1943.87 C3223.75,1943.87 3223.2,1943.59 3222.76,1943.04 C3222.33,1942.48 3222.27,1941.89 3222.58,1941.27 C3226.23,1932.55 3230.67,1924.06 3235.89,1915.81 C3241.12,1907.55 3247.66,1898.04 3255.51,1887.28 C3252.54,1888.89 3249.55,1889.69 3246.51,1889.69 C3243.3,1889.69 3240.05,1888.25 3236.77,1885.38 C3233.5,1882.5 3230.8,1881.06 3228.7,1881.06 C3227.16,1881.06 3225.81,1881.94 3224.67,1883.71 C3223.52,1885.47 3222.95,1888.11 3222.95,1891.64 L3222.95,1903.05 C3222.95,1904.6 3222.24,1905.37 3220.82,1905.37 C3219.27,1905.37 3218.5,1904.6 3218.5,1903.05 L3218.5,1869.65 C3218.5,1868.11 3219.27,1867.33 3220.82,1867.33 C3222.24,1867.33 3222.95,1868.11 3222.95,1869.65 L3222.95,1871.79 C3222.95,1872.28 3223.07,1872.71 3223.32,1873.08 C3224.06,1873.83 3224.53,1874.2 3224.71,1874.2"/>
<path class="FiguredBass" d="M3259.69,2008.8 C3259.69,2009.79 3260.24,2010.75 3261.36,2011.68 C3262.47,2012.6 3263.69,2013.48 3265.02,2014.32 C3266.35,2015.15 3267.57,2016.73 3268.69,2019.05 C3269.8,2021.37 3270.36,2024.29 3270.36,2027.82 C3270.36,2034.62 3267.79,2039.88 3262.66,2043.59 C3257.52,2047.3 3251.03,2049.16 3243.17,2049.16 C3236.87,2049.16 3231.38,2047.58 3226.71,2044.42 C3222.04,2041.27 3219.7,2037.13 3219.7,2031.99 C3219.7,2029.27 3220.69,2026.91 3222.67,2024.9 C3224.65,2022.89 3227.02,2021.88 3229.77,2021.88 C3232.52,2021.88 3234.86,2022.87 3236.77,2024.85 C3238.69,2026.83 3239.65,2029.21 3239.65,2031.99 C3239.65,2033.23 3238.63,2034.58 3236.59,2036.03 C3234.55,2037.48 3233.53,2038.83 3233.53,2040.06 C3233.53,2041.98 3234.47,2043.39 3236.36,2044.29 C3238.24,2045.18 3240.52,2045.63 3243.17,2045.63 C3246.64,2045.63 3249.1,2043.91 3250.55,2040.48 C3252,2037.05 3252.73,2032.83 3252.73,2027.82 L3252.73,2025.41 C3252.73,2022.07 3252.62,2019.53 3252.41,2017.8 C3252.19,2016.07 3251.51,2014.52 3250.36,2013.16 C3249.22,2011.8 3247.47,2011.12 3245.12,2011.12 L3232.97,2011.12 C3231.55,2011.12 3230.84,2010.35 3230.84,2008.8 C3230.84,2007.38 3231.55,2006.67 3232.97,2006.67 L3245.12,2006.67 C3247.66,2006.67 3249.64,2005.71 3251.06,2003.79 C3251.56,2003.11 3251.96,2002 3252.27,2000.45 C3252.58,1998.41 3252.73,1995.47 3252.73,1991.64 L3252.73,1990.43 C3252.73,1981.22 3249.33,1976.61 3242.53,1976.61 C3236.53,1976.61 3233.53,1978.28 3233.53,1981.62 C3233.53,1982.73 3234.44,1983.92 3236.26,1985.19 C3238.09,1986.46 3239,1987.65 3239,1988.76 C3239,1991.17 3238.15,1993.24 3236.45,1994.98 C3234.75,1996.71 3232.68,1997.57 3230.23,1997.57 C3227.79,1997.57 3225.73,1996.71 3224.06,1994.98 C3222.39,1993.24 3221.56,1991.17 3221.56,1988.76 C3221.56,1984 3223.63,1980.19 3227.77,1977.35 C3231.92,1974.5 3236.84,1973.08 3242.53,1973.08 C3250.01,1973.08 3256.16,1974.52 3260.99,1977.4 C3265.81,1980.27 3268.22,1984.62 3268.22,1990.43 C3268.22,1994.57 3267.79,1997.79 3266.92,2000.08 C3266.06,2002.37 3265.07,2003.76 3263.96,2004.25 C3262.84,2004.75 3261.85,2005.32 3260.99,2005.97 C3260.12,2006.62 3259.69,2007.56 3259.69,2008.8"/>
<polyline class="FretDiagram" stroke="#0000ff" stroke-width="4.76" stroke-linejoin="bevel" points="1625.51,227.452 1838.62,227.452"/>
<polyline class="FretDiagram" stroke="#0000ff" stroke-width="4.76" stroke-linejoin="bevel" points="1627.89,215.547 1627.89,441.751"/>
<polyline class="FretDiagram" stroke="#0000ff" stroke-width="4.76" stroke-linejoin="bevel" points="1669.56,215.547 1669.56,441.751"/>
<polyline class="FretDiagram" stroke="#0000ff" stroke-width="4.76" stroke-linejoin="bevel" points="1711.23,215.547 1711.23,441.751"/>
<polyline class="FretDiagram" stroke="#0000ff" stroke-width="4.76" stroke-linejoin="bevel" points="1752.9,215.547 1752.9,441.751"/>
<polyline class="FretDiagram" stroke="#0000ff" stroke-width="4.76" stroke-linejoin="bevel" points="1794.57,215.547 1794.57,441.751"/>
<polyline class="FretDiagram" stroke="#0000ff" stroke-width="4.76" stroke-linejoin="bevel" points="1836.24,215.547 1836.24,441.751"/>
<polyline class="FretDiagram" stroke="#0000ff" stroke-width="4.76" stroke-linejoin="bevel" points="1627.89,275.074 1836.24,275.074"/>
<polyline class="FretDiagram" stroke="#0000ff" stroke-width="4.76" stroke-linejoin="bevel" points="1627.89,322.696 1836.24,322.696"/>
<polyline class="FretDiagram" stroke="#0000ff" stroke-width="4.76" stroke-linejoin="bevel" points="1627.89,370.318 1836.24,370.318"/>
<polyline class="FretDiagram" stroke="#0000ff" stroke-width="4.76" stroke-linejoin="bevel" points="1627.89,417.94 1836.24,417.94"/>
<path class="FretDiagram" fill="#0000ff" fill-rule="evenodd" d="M1642.48,346.507 C1642.48,354.562 1635.95,361.091 1627.89,361.091 C1619.84,361.091 1613.31,354.562 1613.31,346.507 C1613.31,338.453 1619.84,331.923 1627.89,331.923 C1635.95,331.923 1642.48,338.453 1642.48,346.507"/>
<path class="FretDiagram" fill="#0000ff" fill-rule="evenodd" d="M1725.82,298.885 C1725.82,306.94 1719.29,313.469 1711.23,313.469 C1703.18,313.469 1696.65,306.94 1696.65,298.885 C1696.65,290.83 1703.18,284.301 1711.23,284.301 C1719.29,284.301 1725.82,290.83 1725.82,298.885"/>
<polyline class="FretDiagram" fill="none" stroke="#0000ff" stroke-width="6.86" stroke-linecap="round" stroke-linejoin="bevel" points="1652.9,163.162 1686.23,196.498"/>
<polyline class="FretDiagram" fill="none" stroke="#0000ff" stroke-width="6.86" stroke-linecap="round" stroke-linejoin="bevel" points="1652.9,196.498 1686.23,163.162"/>
<path class="FretDiagram" fill="none" stroke="#0000ff" stroke-width="6.86" stroke-linecap="round" stroke-linejoin="bevel" fill-rule="evenodd" d="M1769.57,179.83 C1769.57,189.035 1762.11,196.498 1752.9,196.498 C1743.7,196.498 1736.23,189.035 1736.23,179.83 C1736.23,170.625 1743.7,163.162 1752.9,163.162 C1762.11,163.162 1769.57,170.625 1769.57,179.83"/>
<path class="FretDiagram" fill="none" stroke="#0000ff" stroke-width="6.86" stroke-linecap="round" stroke-linejoin="bevel" fill-rule="evenodd" d="M1811.24,179.83 C1811.24,189.035 1803.78,196.498 1794.57,196.498 C1785.37,196.498 1777.9,189.035 1777.9,179.83 C1777.9,170.625 1785.37,163.162 1794.57,163.162 C1803.78,163.162 1811.24,170.625 1811.24,179.83"/>
<polyline class="FretDiagram" fill="none" stroke="#0000ff" stroke-width="6.86" stroke-linecap="round" stroke-linejoin="bevel" points="1819.57,163.162 1852.91,196.498"/>
<polyline class="FretDiagram" fill="none" stroke="#0000ff" stroke-width="6.86" stroke-linecap="round" stroke-linejoin="bevel" points="1819.57,196.498 1852.91,163.162"/>
<polyline class="FretDiagram" fill="none" stroke="#0000ff" stroke-width="29.17" stroke-linecap="round" stroke-linejoin="bevel" points="1711.23,251.263 1836.24,251.263"/>
<path class="FretDiagram" fill="#0000ff" d="M1595.57,249.08 C1603.3,252.753 1607.16,258.358 1607.16,265.895 C1607.16,272.038 1605.05,277.041 1600.84,280.905 C1596.63,284.768 1591.2,286.7 1584.55,286.7 C1577.9,286.7 1572.47,284.752 1568.26,280.857 C1564.05,276.962 1561.94,271.943 1561.94,265.8 C1561.94,258.326 1565.77,252.753 1573.44,249.08 C1570.02,246.926 1567.64,244.836 1566.31,242.81 C1564.98,240.783 1564.32,238.218 1564.32,235.115 C1564.32,229.858 1566.2,225.551 1569.97,222.195 C1573.74,218.838 1578.6,217.16 1584.55,217.16 C1590.5,217.16 1595.36,218.838 1599.13,222.195 C1602.9,225.551 1604.79,229.858 1604.79,235.115 C1604.79,238.281 1604.12,240.878 1602.79,242.905 C1601.46,244.931 1599.05,246.99 1595.57,249.08 M1593.01,227.515 C1590.92,225.551 1588.1,224.57 1584.55,224.57 C1581,224.57 1578.17,225.535 1576.05,227.467 C1573.93,229.399 1572.87,231.98 1572.87,235.21 C1572.87,238.376 1573.93,240.925 1576.05,242.857 C1578.17,244.789 1581,245.755 1584.55,245.755 C1588.03,245.755 1590.85,244.805 1593.01,242.905 C1595.16,241.005 1596.24,238.471 1596.24,235.305 C1596.24,232.011 1595.16,229.415 1593.01,227.515 M1594.72,256.49 C1592.12,254.02 1588.73,252.785 1584.55,252.785 C1580.37,252.785 1576.98,254.004 1574.39,256.442 C1571.79,258.88 1570.49,262.063 1570.49,265.99 C1570.49,269.916 1571.77,273.115 1574.34,275.585 C1576.9,278.055 1580.24,279.29 1584.36,279.29 C1588.6,279.29 1592.04,278.07 1594.67,275.632 C1597.3,273.194 1598.61,269.98 1598.61,265.99 C1598.61,262.063 1597.31,258.896 1594.72,256.49"/>
<polyline class="FretDiagram" fill="#0000ff" stroke="#fc02ff" stroke-width="4.76" stroke-linejoin="bevel" points="2290.47,227.452 2503.58,227.452"/>
<polyline class="FretDiagram" fill="#0000ff" stroke="#fc02ff" stroke-width="4.76" stroke-linejoin="bevel" points="2292.85,215.547 2292.85,441.751"/>
<polyline class="FretDiagram" fill="#0000ff" stroke="#fc02ff" stroke-width="4.76" stroke-linejoin="bevel" points="2334.52,215.547 2334.52,441.751"/>
<polyline class="FretDiagram" fill="#0000ff" stroke="#fc02ff" stroke-width="4.76" stroke-linejoin="bevel" points="2376.19,215.547 2376.19,441.751"/>
<polyline class="FretDiagram" fill="#0000ff" stroke="#fc02ff" stroke-width="4.76" stroke-linejoin="bevel" points="2417.86,215.547 2417.86,441.751"/>
<polyline class="FretDiagram" fill="#0000ff" stroke="#fc02ff" stroke-width="4.76" stroke-linejoin="bevel" points="2459.53,215.547 2459.53,441.751"/>
<polyline class="FretDiagram" fill="#0000ff" stroke="#fc02ff" stroke-width="4.76" stroke-linejoin="bevel" points="2501.2,215.547 2501.2,441.751"/>
<polyline class="FretDiagram" fill="#0000ff" stroke="#fc02ff" stroke-width="4.76" stroke-linejoin="bevel" points="2292.85,275.074 2501.2,275.074"/>
<polyline class="FretDiagram" fill="#0000ff" stroke="#fc02ff" stroke-width="4.76" stroke-linejoin="bevel" points="2292.85,322.696 2501.2,322.696"/>
<polyline class="FretDiagram" fill="#0000ff" stroke="#fc02ff" stroke-width="4.76" stroke-linejoin="bevel" points="2292.85,370.318 2501.2,370.318"/>
<polyline class="FretDiagram" fill="#0000ff" stroke="#fc02ff" stroke-width="4.76" stroke-linejoin="bevel" points="2292.85,417.94 2501.2,417.94"/>
<path class="FretDiagram" fill="#fc02ff" fill-rule="evenodd" d="M2390.78,346.507 C2390.78,354.562 2384.25,361.091 2376.19,361.091 C2368.14,361.091 2361.61,354.562 2361.61,346.507 C2361.61,338.453 2368.14,331.923 2376.19,331.923 C2384.25,331.923 2390.78,338.453 2390.78,346.507"/>
<path class="FretDiagram" fill="#fc02ff" fill-rule="evenodd" d="M2432.45,394.129 C2432.45,402.184 2425.92,408.713 2417.86,408.713 C2409.81,408.713 2403.28,402.184 2403.28,394.129 C2403.28,386.075 2409.81,379.545 2417.86,379.545 C2425.92,379.545 2432.45,386.075 2432.45,394.129"/>
<path class="FretDiagram" fill="#fc02ff" fill-rule="evenodd" d="M2474.11,394.129 C2474.11,402.184 2467.58,408.713 2459.53,408.713 C2451.48,408.713 2444.95,402.184 2444.95,394.129 C2444.95,386.075 2451.48,379.545 2459.53,379.545 C2467.58,379.545 2474.11,386.075 2474.11,394.129"/>
<polyline class="FretDiagram" fill="none" stroke="#fc02ff" stroke-width="6.86" stroke-linecap="round" stroke-linejoin="bevel" points="2276.19,163.162 2309.52,196.498"/>
<polyline class="FretDiagram" fill="none" stroke="#fc02ff" stroke-width="6.86" stroke-linecap="round" stroke-linejoin="bevel" points="2276.19,196.498 2309.52,163.162"/>
<path class="FretDiagram" fill="none" stroke="#fc02ff" stroke-width="6.86" stroke-linecap="round" stroke-linejoin="bevel" fill-rule="evenodd" d="M2351.19,179.83 C2351.19,189.035 2343.73,196.498 2334.52,196.498 C2325.32,196.498 2317.85,189.035 2317.85,179.83 C2317.85,170.625 2325.32,163.162 2334.52,163.162 C2343.73,163.162 2351.19,170.625 2351.19,179.83"/>
<polyline class="FretDiagram" fill="none" stroke="#fc02ff" stroke-width="6.86" stroke-linecap="round" stroke-linejoin="bevel" points="2484.53,163.162 2517.87,196.498"/>
<polyline class="FretDiagram" fill="none" stroke="#fc02ff" stroke-width="6.86" stroke-linecap="round" stroke-linejoin="bevel" points="2484.53,196.498 2517.87,163.162"/>
<polyline class="FretDiagram" fill="none" stroke="#fc02ff" stroke-width="29.17" stroke-linecap="round" stroke-linejoin="bevel" points="2334.52,251.263 2501.2,251.263"/>
<path class="FretDiagram" fill="#fc02ff" d="M2268.6,217.16 L2268.6,225.425 L2240.58,225.425 L2237.92,244.235 C2241.66,241.511 2245.8,240.15 2250.36,240.15 C2256.82,240.15 2262.06,242.224 2266.09,246.372 C2270.11,250.52 2272.12,255.92 2272.12,262.57 C2272.12,269.663 2269.97,275.458 2265.66,279.955 C2261.35,284.451 2255.81,286.7 2249.03,286.7 C2246.44,286.7 2244.05,286.415 2241.86,285.845 C2239.68,285.275 2237.87,284.594 2236.45,283.802 C2235.02,283.01 2233.72,281.965 2232.55,280.667 C2231.38,279.369 2230.49,278.229 2229.89,277.247 C2229.29,276.265 2228.72,275.03 2228.18,273.542 C2227.64,272.054 2227.31,271.025 2227.18,270.455 C2227.06,269.885 2226.9,269.061 2226.71,267.985 L2235.07,267.985 C2237.03,275.521 2241.62,279.29 2248.84,279.29 C2253.4,279.29 2257,277.896 2259.63,275.11 C2262.25,272.323 2263.57,268.523 2263.57,263.71 C2263.57,258.706 2262.24,254.764 2259.58,251.882 C2256.92,249 2253.34,247.56 2248.84,247.56 C2246.25,247.56 2244.03,248.019 2242.19,248.937 C2240.36,249.855 2238.46,251.486 2236.49,253.83 L2228.8,253.83 L2233.83,217.16 L2268.6,217.16 "/>
<polyline class="FretDiagram" fill="#fc02ff" stroke="#fc02ff" stroke-width="4.76" stroke-linejoin="bevel" points="3138.47,227.452 3351.58,227.452"/>
<polyline class="FretDiagram" fill="#fc02ff" stroke="#fc02ff" stroke-width="4.76" stroke-linejoin="bevel" points="3140.85,215.547 3140.85,441.751"/>
<polyline class="FretDiagram" fill="#fc02ff" stroke="#fc02ff" stroke-width="4.76" stroke-linejoin="bevel" points="3182.52,215.547 3182.52,441.751"/>
<polyline class="FretDiagram" fill="#fc02ff" stroke="#fc02ff" stroke-width="4.76" stroke-linejoin="bevel" points="3224.19,215.547 3224.19,441.751"/>
<polyline class="FretDiagram" fill="#fc02ff" stroke="#fc02ff" stroke-width="4.76" stroke-linejoin="bevel" points="3265.86,215.547 3265.86,441.751"/>
<polyline class="FretDiagram" fill="#fc02ff" stroke="#fc02ff" stroke-width="4.76" stroke-linejoin="bevel" points="3307.53,215.547 3307.53,441.751"/>
<polyline class="FretDiagram" fill="#fc02ff" stroke="#fc02ff" stroke-width="4.76" stroke-linejoin="bevel" points="3349.2,215.547 3349.2,441.751"/>
<polyline class="FretDiagram" fill="#fc02ff" stroke="#fc02ff" stroke-width="4.76" stroke-linejoin="bevel" points="3140.85,275.074 3349.2,275.074"/>
<polyline class="FretDiagram" fill="#fc02ff" stroke="#fc02ff" stroke-width="4.76" stroke-linejoin="bevel" points="3140.85,322.696 3349.2,322.696"/>
<polyline class="FretDiagram" fill="#fc02ff" stroke="#fc02ff" stroke-width="4.76" stroke-linejoin="bevel" points="3140.85,370.318 3349.2,370.318"/>
<polyline class="FretDiagram" fill="#fc02ff" stroke="#fc02ff" stroke-width="4.76" stroke-linejoin="bevel" points="3140.85,417.94 3349.2,417.94"/>
<path class="FretDiagram" fill="#fc02ff" fill-rule="evenodd" d="M3280.45,394.129 C3280.45,402.184 3273.92,408.713 3265.86,408.713 C3257.81,408.713 3251.28,402.184 3251.28,394.129 C3251.28,386.075 3257.81,379.545 3265.86,379.545 C3273.92,379.545 3280.45,386.075 3280.45,394.129"/>
<path class="FretDiagram" fill="#fc02ff" fill-rule="evenodd" d="M3322.12,346.507 C3322.12,354.562 3315.59,361.091 3307.53,361.091 C3299.48,361.091 3292.95,354.562 3292.95,346.507 C3292.95,338.453 3299.48,331.923 3307.53,331.923 C3315.59,331.923 3322.12,338.453 3322.12,346.507"/>
<path class="FretDiagram" fill="#fc02ff" fill-rule="evenodd" d="M3363.79,394.129 C3363.79,402.184 3357.26,408.713 3349.2,408.713 C3341.15,408.713 3334.62,402.184 3334.62,394.129 C3334.62,386.075 3341.15,379.545 3349.2,379.545 C3357.26,379.545 3363.79,386.075 3363.79,394.129"/>
<polyline class="FretDiagram" fill="none" stroke="#fc02ff" stroke-width="6.86" stroke-linecap="round" stroke-linejoin="bevel" points="3124.19,163.162 3157.52,196.498"/>
<polyline class="FretDiagram" fill="none" stroke="#fc02ff" stroke-width="6.86" stroke-linecap="round" stroke-linejoin="bevel" points="3124.19,196.498 3157.52,163.162"/>
<path class="FretDiagram" fill="none" stroke="#fc02ff" stroke-width="6.86" stroke-linecap="round" stroke-linejoin="bevel" fill-rule="evenodd" d="M3199.19,179.83 C3199.19,189.035 3191.73,196.498 3182.52,196.498 C3173.32,196.498 3165.86,189.035 3165.86,179.83 C3165.86,170.625 3173.32,163.162 3182.52,163.162 C3191.73,163.162 3199.19,170.625 3199.19,179.83"/>
<polyline class="FretDiagram" fill="none" stroke="#fc02ff" stroke-width="6.86" stroke-linecap="round" stroke-linejoin="bevel" points="3207.53,163.162 3240.86,196.498"/>
<polyline class="FretDiagram" fill="none" stroke="#fc02ff" stroke-width="6.86" stroke-linecap="round" stroke-linejoin="bevel" points="3207.53,196.498 3240.86,163.162"/>
<polyline class="FretDiagram" fill="none" stroke="#fc02ff" stroke-width="29.17" stroke-linecap="round" stroke-linejoin="bevel" points="3182.52,251.263 3349.2,251.263"/>
<path class="FretDiagram" fill="#fc02ff" d="M3116.61,217.16 L3116.61,225.425 L3088.58,225.425 L3085.92,244.235 C3089.66,241.511 3093.81,240.15 3098.37,240.15 C3104.83,240.15 3110.07,242.224 3114.09,246.372 C3118.11,250.52 3120.12,255.92 3120.12,262.57 C3120.12,269.663 3117.97,275.458 3113.66,279.955 C3109.35,284.451 3103.81,286.7 3097.04,286.7 C3094.44,286.7 3092.05,286.415 3089.86,285.845 C3087.68,285.275 3085.87,284.594 3084.45,283.802 C3083.02,283.01 3081.73,281.965 3080.55,280.667 C3079.38,279.369 3078.5,278.229 3077.89,277.247 C3077.29,276.265 3076.72,275.03 3076.18,273.542 C3075.65,272.054 3075.31,271.025 3075.19,270.455 C3075.06,269.885 3074.9,269.061 3074.71,267.985 L3083.07,267.985 C3085.03,275.521 3089.63,279.29 3096.85,279.29 C3101.41,279.29 3105,277.896 3107.63,275.11 C3110.26,272.323 3111.57,268.523 3111.57,263.71 C3111.57,258.706 3110.24,254.764 3107.58,251.882 C3104.92,249 3101.34,247.56 3096.85,247.56 C3094.25,247.56 3092.03,248.019 3090.2,248.937 C3088.36,249.855 3086.46,251.486 3084.5,253.83 L3076.8,253.83 L3081.84,217.16 L3116.61,217.16 "/>
<path class="Bracket" transform="matrix(8.6315,0,0,9.5585,76.1283,2347.66)" d="M0.92002,-50 C2.69004,-51.88 6.2,-55.8 6.2,-63 C6.2,-72.1 2.25996,-81.32 2.25996,-86.97 C2.25996,-93.06 5.84004,-98.84 5.95,-99 C6.05996,-99.16 6.05,-99.39 5.94004,-99.46 C5.82998,-99.53 5.62002,-99.47 5.49004,-99.32 C5.35996,-99.17 0,-93.75 0,-85.6 C0,-76.75 3.5,-70.58 3.5,-59.07 C3.5,-56.89 2.55996,-53.36 0.1,-50.33 C-0.0799805,-50.17 -0.1,-49.89 0.0599609,-49.7 L0.0700195,-49.69 L0.1,-49.66 C2.55996,-46.63 3.5,-43.1 3.5,-40.92 C3.5,-29.4 0,-23.24 0,-14.39 C0,-6.25 5.35996,-0.8 5.49004,-0.659961 C5.62002,-0.52002 5.8,-0.42998 5.94004,-0.52002 C6.07998,-0.609961 6.07998,-0.77998 5.95,-0.97998 C5.82002,-1.17998 2.25996,-6.92002 2.25996,-13.01 C2.25996,-18.66 6.2,-27.9 6.2,-37 C6.2,-44.3 2.69004,-48.12 0.92002,-50"/>
</svg>
