<?xml version="1.0" encoding="UTF-8" standalone="no"?>
<svg width="4209.44px" height="2976.38px" viewBox="0 0 4209.44 2976.38"
 xmlns="http://www.w3.org/2000/svg" xmlns:xlink="http://www.w3.org/1999/xlink" version="1.2" baseProfile="tiny">
<title>DoMajeur (20)</title>
<desc>Generated by MuseScore 3.6.2</desc>
<polyline class="StaffLines" fill="none" stroke="#000000" stroke-width="6.55" stroke-linejoin="bevel" points="153.819,558.425 4138.58,558.425"/>
<polyline class="StaffLines" fill="none" stroke="#000000" stroke-width="6.55" stroke-linejoin="bevel" points="153.819,647.717 4138.58,647.717"/>
<polyline class="StaffLines" fill="none" stroke="#000000" stroke-width="6.55" stroke-linejoin="bevel" points="153.819,737.008 4138.58,737.008"/>
<polyline class="StaffLines" fill="none" stroke="#000000" stroke-width="6.55" stroke-linejoin="bevel" points="153.819,826.299 4138.58,826.299"/>
<polyline class="StaffLines" fill="none" stroke="#000000" stroke-width="6.55" stroke-linejoin="bevel" points="153.819,915.591 4138.58,915.591"/>
<polyline class="StaffLines" fill="none" stroke="#000000" stroke-width="6.55" stroke-linejoin="bevel" points="153.819,1004.88 4138.58,1004.88"/>
<polyline class="StaffLines" fill="none" stroke="#000000" stroke-width="6.55" stroke-linejoin="bevel" points="153.819,1391.81 4138.58,1391.81"/>
<polyline class="StaffLines" fill="none" stroke="#000000" stroke-width="6.55" stroke-linejoin="bevel" points="153.819,1451.34 4138.58,1451.34"/>
<polyline class="StaffLines" fill="none" stroke="#000000" stroke-width="6.55" stroke-linejoin="bevel" points="153.819,1510.87 4138.58,1510.87"/>
<polyline class="StaffLines" fill="none" stroke="#000000" stroke-width="6.55" stroke-linejoin="bevel" points="153.819,1570.39 4138.58,1570.39"/>
<polyline class="StaffLines" fill="none" stroke="#000000" stroke-width="6.55" stroke-linejoin="bevel" points="153.819,1629.92 4138.58,1629.92"/>
<polyline class="StaffLines" fill="none" stroke="#000000" stroke-width="6.55" stroke-linejoin="bevel" points="153.819,2187.89 4138.58,2187.89"/>
<polyline class="StaffLines" fill="none" stroke="#000000" stroke-width="6.55" stroke-linejoin="bevel" points="153.819,2247.41 4138.58,2247.41"/>
<polyline class="StaffLines" fill="none" stroke="#000000" stroke-width="6.55" stroke-linejoin="bevel" points="153.819,2306.94 4138.58,2306.94"/>
<polyline class="StaffLines" fill="none" stroke="#000000" stroke-width="6.55" stroke-linejoin="bevel" points="153.819,2366.47 4138.58,2366.47"/>
<polyline class="StaffLines" fill="none" stroke="#000000" stroke-width="6.55" stroke-linejoin="bevel" points="153.819,2426 4138.58,2426"/>
<polyline class="BarLine" fill="none" stroke="#000000" stroke-width="10.71" stroke-linejoin="bevel" points="159.176,2184.61 159.176,2429.27"/>
<polyline class="BarLine" fill="none" stroke="#000000" stroke-width="10.71" stroke-linejoin="bevel" points="1055.18,2184.61 1055.18,2429.27"/>
<polyline class="BarLine" fill="none" stroke="#000000" stroke-width="10.71" stroke-linejoin="bevel" points="1549.11,2184.61 1549.11,2429.27"/>
<polyline class="BarLine" fill="none" stroke="#000000" stroke-width="10.71" stroke-linejoin="bevel" points="2023.97,2184.61 2023.97,2429.27"/>
<polyline class="BarLine" fill="none" stroke="#000000" stroke-width="10.71" stroke-linejoin="bevel" points="2056.71,2184.61 2056.71,2429.27"/>
<polyline class="BarLine" fill="none" stroke="#000000" stroke-width="10.71" stroke-linejoin="bevel" points="2550.63,2184.61 2550.63,2429.27"/>
<polyline class="BarLine" fill="none" stroke="#000000" stroke-width="10.71" stroke-linejoin="bevel" points="3044.56,2184.61 3044.56,2429.27"/>
<polyline class="BarLine" fill="none" stroke="#000000" stroke-width="10.71" stroke-linejoin="bevel" points="3596.12,2184.61 3596.12,2429.27"/>
<polyline class="BarLine" fill="none" stroke="#000000" stroke-width="10.71" stroke-linejoin="bevel" points="4080.54,2184.61 4080.54,2429.27"/>
<polyline class="BarLine" fill="none" stroke="#000000" stroke-width="32.74" stroke-linejoin="bevel" points="4122.21,2184.61 4122.21,2429.27"/>
<polyline class="BarLine" fill="none" stroke="#000000" stroke-width="10.71" stroke-linejoin="bevel" points="159.176,1388.54 159.176,2187.89"/>
<polyline class="BarLine" fill="none" stroke="#000000" stroke-width="10.71" stroke-linejoin="bevel" points="1055.18,1388.54 1055.18,1633.2"/>
<polyline class="BarLine" fill="none" stroke="#000000" stroke-width="10.71" stroke-linejoin="bevel" points="1549.11,1388.54 1549.11,1633.2"/>
<polyline class="BarLine" fill="none" stroke="#000000" stroke-width="10.71" stroke-linejoin="bevel" points="2023.97,1388.54 2023.97,1633.2"/>
<polyline class="BarLine" fill="none" stroke="#000000" stroke-width="10.71" stroke-linejoin="bevel" points="2056.71,1388.54 2056.71,1633.2"/>
<polyline class="BarLine" fill="none" stroke="#000000" stroke-width="10.71" stroke-linejoin="bevel" points="2550.63,1388.54 2550.63,1633.2"/>
<polyline class="BarLine" fill="none" stroke="#000000" stroke-width="10.71" stroke-linejoin="bevel" points="3044.56,1388.54 3044.56,1633.2"/>
<polyline class="BarLine" fill="none" stroke="#000000" stroke-width="10.71" stroke-linejoin="bevel" points="3596.12,1388.54 3596.12,1633.2"/>
<polyline class="BarLine" fill="none" stroke="#000000" stroke-width="10.71" stroke-linejoin="bevel" points="4080.54,1388.54 4080.54,1633.2"/>
<polyline class="BarLine" fill="none" stroke="#000000" stroke-width="32.74" stroke-linejoin="bevel" points="4122.21,1388.54 4122.21,1633.2"/>
<polyline class="BarLine" fill="none" stroke="#000000" stroke-width="10.71" stroke-linejoin="bevel" points="159.176,555.151 159.176,1391.81"/>
<polyline class="BarLine" fill="none" stroke="#000000" stroke-width="10.71" stroke-linejoin="bevel" points="1055.18,555.151 1055.18,1008.16"/>
<polyline class="BarLine" fill="none" stroke="#000000" stroke-width="10.71" stroke-linejoin="bevel" points="1549.11,555.151 1549.11,1008.16"/>
<polyline class="BarLine" fill="none" stroke="#000000" stroke-width="10.71" stroke-linejoin="bevel" points="2023.97,555.151 2023.97,1008.16"/>
<polyline class="BarLine" fill="none" stroke="#000000" stroke-width="10.71" stroke-linejoin="bevel" points="2056.71,555.151 2056.71,1008.16"/>
<polyline class="BarLine" fill="none" stroke="#000000" stroke-width="10.71" stroke-linejoin="bevel" points="2550.63,555.151 2550.63,1008.16"/>
<polyline class="BarLine" fill="none" stroke="#000000" stroke-width="10.71" stroke-linejoin="bevel" points="3044.56,555.151 3044.56,1008.16"/>
<polyline class="BarLine" fill="none" stroke="#000000" stroke-width="10.71" stroke-linejoin="bevel" points="3596.12,555.151 3596.12,1008.16"/>
<polyline class="BarLine" fill="none" stroke="#000000" stroke-width="10.71" stroke-linejoin="bevel" points="4080.54,555.151 4080.54,1008.16"/>
<polyline class="BarLine" fill="none" stroke="#000000" stroke-width="32.74" stroke-linejoin="bevel" points="4122.21,555.151 4122.21,1008.16"/>
<path class="Accidental" transform="matrix(2.3811,0,0,2.3811,513.384,1391.81)" d="M23.3,-10.6 C23.9,-10.7 24.4,-11.4 24.4,-12 L24.4,-17.9 C24.4,-18.7 23.8,-19.3 23,-19.3 L22.8,-19.3 L19.5,-18.6 L19.5,-33.5 L16.7,-33.5 L16.7,-18 L7.8,-16.2 L7.8,-30.3 L5,-30.3 L5,-15.6 L1.1,-14.8 C0.5,-14.7 0,-14 0,-13.4 L0,-13.2 L0,-7.4 L0,-7.6 C0,-6.8 0.6,-6.2 1.4,-6.2 L1.7,-6.2 L5,-6.9 L5,9.6 L1.1,10.4 C0.5,10.5 0,11.2 0,11.8 L0,17.6 C0,18.4 0.6,19 1.4,19 L1.7,19 L5,18.3 L5,33.2 L7.8,33.2 L7.8,17.7 L16.7,15.9 L16.7,30 L19.5,30 L19.5,15.3 L23.3,14.6 C23.9,14.5 24.4,13.8 24.4,13.2 L24.4,7.3 C24.4,6.5 23.8,5.9 23,5.9 L22.8,5.9 L19.5,6.6 L19.5,-9.9 L23.3,-10.6 M7.8,9.1 L7.8,-7.5 L16.7,-9.3 L16.7,7.2 L7.8,9.1 "/>
<polyline class="LedgerLine" fill="none" stroke="#000000" stroke-width="9.52" stroke-linejoin="bevel" points="2139.45,2128.36 2269.93,2128.36"/>
<polyline class="LedgerLine" fill="none" stroke="#000000" stroke-width="9.52" stroke-linejoin="bevel" points="2633.38,2128.36 2763.86,2128.36"/>
<polyline class="LedgerLine" fill="none" stroke="#000000" stroke-width="9.52" stroke-linejoin="bevel" points="3678.87,2128.36 3809.34,2128.36"/>
<polyline class="LedgerLine" fill="none" stroke="#000000" stroke-width="9.52" stroke-linejoin="bevel" points="2633.38,1332.28 2763.86,1332.28"/>
<path class="Note" transform="matrix(2.3811,0,0,2.3811,674.341,2187.89)" d="M18.7,-13.6 C4.9,-13.6 0,-6.6 0,-0.1 C0,6.4 4.9,13.4 18.7,13.4 C32.5,13.4 37.3,6.4 37.3,-0.1 C37.3,-6.6 32.5,-13.6 18.7,-13.6 M10.4,-4.5 C10.3,-4.9 10.3,-5.3 10.3,-5.7 C10.3,-6.5 10.5,-7.3 10.9,-8 C11.6,-9 12.8,-9.7 14.3,-10 C15.6,-10.3 16.3,-10.5 18.9,-10.5 L19,-10.5 C23,-10.5 24.3,-6.8 25.4,-3 L25.7,-2 C26.5,0.6 26.9,2.8 26.9,4.5 C26.9,5.7 26.7,6.8 26.3,7.6 C25.7,8.7 24.7,9.4 23,9.8 C22.1,10 20.6,10.1 20.6,10.1 C20.1,10.1 19.7,10.2 19.3,10.2 C16.1,10.2 14.1,9 12.7,4.7 C11.5,1 11.3,-0.1 10.4,-4.5"/>
<path class="Note" transform="matrix(2.3811,0,0,2.3811,1143.64,2217.65)" d="M18.7,-13.6 C4.9,-13.6 0,-6.6 0,-0.1 C0,6.4 4.9,13.4 18.7,13.4 C32.5,13.4 37.3,6.4 37.3,-0.1 C37.3,-6.6 32.5,-13.6 18.7,-13.6 M10.4,-4.5 C10.3,-4.9 10.3,-5.3 10.3,-5.7 C10.3,-6.5 10.5,-7.3 10.9,-8 C11.6,-9 12.8,-9.7 14.3,-10 C15.6,-10.3 16.3,-10.5 18.9,-10.5 L19,-10.5 C23,-10.5 24.3,-6.8 25.4,-3 L25.7,-2 C26.5,0.6 26.9,2.8 26.9,4.5 C26.9,5.7 26.7,6.8 26.3,7.6 C25.7,8.7 24.7,9.4 23,9.8 C22.1,10 20.6,10.1 20.6,10.1 C20.1,10.1 19.7,10.2 19.3,10.2 C16.1,10.2 14.1,9 12.7,4.7 C11.5,1 11.3,-0.1 10.4,-4.5"/>
<path class="Note" transform="matrix(2.3811,0,0,2.3811,1637.57,2336.7)" d="M18.7,-13.6 C4.9,-13.6 0,-6.6 0,-0.1 C0,6.4 4.9,13.4 18.7,13.4 C32.5,13.4 37.3,6.4 37.3,-0.1 C37.3,-6.6 32.5,-13.6 18.7,-13.6 M10.4,-4.5 C10.3,-4.9 10.3,-5.3 10.3,-5.7 C10.3,-6.5 10.5,-7.3 10.9,-8 C11.6,-9 12.8,-9.7 14.3,-10 C15.6,-10.3 16.3,-10.5 18.9,-10.5 L19,-10.5 C23,-10.5 24.3,-6.8 25.4,-3 L25.7,-2 C26.5,0.6 26.9,2.8 26.9,4.5 C26.9,5.7 26.7,6.8 26.3,7.6 C25.7,8.7 24.7,9.4 23,9.8 C22.1,10 20.6,10.1 20.6,10.1 C20.1,10.1 19.7,10.2 19.3,10.2 C16.1,10.2 14.1,9 12.7,4.7 C11.5,1 11.3,-0.1 10.4,-4.5"/>
<path class="Note" transform="matrix(2.3811,0,0,2.3811,2160.28,2128.36)" d="M18.7,-13.6 C4.9,-13.6 0,-6.6 0,-0.1 C0,6.4 4.9,13.4 18.7,13.4 C32.5,13.4 37.3,6.4 37.3,-0.1 C37.3,-6.6 32.5,-13.6 18.7,-13.6 M10.4,-4.5 C10.3,-4.9 10.3,-5.3 10.3,-5.7 C10.3,-6.5 10.5,-7.3 10.9,-8 C11.6,-9 12.8,-9.7 14.3,-10 C15.6,-10.3 16.3,-10.5 18.9,-10.5 L19,-10.5 C23,-10.5 24.3,-6.8 25.4,-3 L25.7,-2 C26.5,0.6 26.9,2.8 26.9,4.5 C26.9,5.7 26.7,6.8 26.3,7.6 C25.7,8.7 24.7,9.4 23,9.8 C22.1,10 20.6,10.1 20.6,10.1 C20.1,10.1 19.7,10.2 19.3,10.2 C16.1,10.2 14.1,9 12.7,4.7 C11.5,1 11.3,-0.1 10.4,-4.5"/>
<path class="Note" transform="matrix(2.3811,0,0,2.3811,2654.21,2128.36)" d="M18.7,-13.6 C4.9,-13.6 0,-6.6 0,-0.1 C0,6.4 4.9,13.4 18.7,13.4 C32.5,13.4 37.3,6.4 37.3,-0.1 C37.3,-6.6 32.5,-13.6 18.7,-13.6 M10.4,-4.5 C10.3,-4.9 10.3,-5.3 10.3,-5.7 C10.3,-6.5 10.5,-7.3 10.9,-8 C11.6,-9 12.8,-9.7 14.3,-10 C15.6,-10.3 16.3,-10.5 18.9,-10.5 L19,-10.5 C23,-10.5 24.3,-6.8 25.4,-3 L25.7,-2 C26.5,0.6 26.9,2.8 26.9,4.5 C26.9,5.7 26.7,6.8 26.3,7.6 C25.7,8.7 24.7,9.4 23,9.8 C22.1,10 20.6,10.1 20.6,10.1 C20.1,10.1 19.7,10.2 19.3,10.2 C16.1,10.2 14.1,9 12.7,4.7 C11.5,1 11.3,-0.1 10.4,-4.5"/>
<path class="Note" transform="matrix(2.3811,0,0,2.3811,3215.29,2158.12)" d="M18.7,-13.6 C4.9,-13.6 0,-6.6 0,-0.1 C0,6.4 4.9,13.4 18.7,13.4 C32.5,13.4 37.3,6.4 37.3,-0.1 C37.3,-6.6 32.5,-13.6 18.7,-13.6 M10.4,-4.5 C10.3,-4.9 10.3,-5.3 10.3,-5.7 C10.3,-6.5 10.5,-7.3 10.9,-8 C11.6,-9 12.8,-9.7 14.3,-10 C15.6,-10.3 16.3,-10.5 18.9,-10.5 L19,-10.5 C23,-10.5 24.3,-6.8 25.4,-3 L25.7,-2 C26.5,0.6 26.9,2.8 26.9,4.5 C26.9,5.7 26.7,6.8 26.3,7.6 C25.7,8.7 24.7,9.4 23,9.8 C22.1,10 20.6,10.1 20.6,10.1 C20.1,10.1 19.7,10.2 19.3,10.2 C16.1,10.2 14.1,9 12.7,4.7 C11.5,1 11.3,-0.1 10.4,-4.5"/>
<path class="Note" transform="matrix(2.3811,0,0,2.3811,3699.7,2128.36)" d="M18.7,-13.6 C4.9,-13.6 0,-6.6 0,-0.1 C0,6.4 4.9,13.4 18.7,13.4 C32.5,13.4 37.3,6.4 37.3,-0.1 C37.3,-6.6 32.5,-13.6 18.7,-13.6 M10.4,-4.5 C10.3,-4.9 10.3,-5.3 10.3,-5.7 C10.3,-6.5 10.5,-7.3 10.9,-8 C11.6,-9 12.8,-9.7 14.3,-10 C15.6,-10.3 16.3,-10.5 18.9,-10.5 L19,-10.5 C23,-10.5 24.3,-6.8 25.4,-3 L25.7,-2 C26.5,0.6 26.9,2.8 26.9,4.5 C26.9,5.7 26.7,6.8 26.3,7.6 C25.7,8.7 24.7,9.4 23,9.8 C22.1,10 20.6,10.1 20.6,10.1 C20.1,10.1 19.7,10.2 19.3,10.2 C16.1,10.2 14.1,9 12.7,4.7 C11.5,1 11.3,-0.1 10.4,-4.5"/>
<path class="Note" transform="matrix(2.3811,0,0,2.3811,592.081,1481.1)" d="M18.7,-13.6 C4.9,-13.6 0,-6.6 0,-0.1 C0,6.4 4.9,13.4 18.7,13.4 C32.5,13.4 37.3,6.4 37.3,-0.1 C37.3,-6.6 32.5,-13.6 18.7,-13.6 M10.4,-4.5 C10.3,-4.9 10.3,-5.3 10.3,-5.7 C10.3,-6.5 10.5,-7.3 10.9,-8 C11.6,-9 12.8,-9.7 14.3,-10 C15.6,-10.3 16.3,-10.5 18.9,-10.5 L19,-10.5 C23,-10.5 24.3,-6.8 25.4,-3 L25.7,-2 C26.5,0.6 26.9,2.8 26.9,4.5 C26.9,5.7 26.7,6.8 26.3,7.6 C25.7,8.7 24.7,9.4 23,9.8 C22.1,10 20.6,10.1 20.6,10.1 C20.1,10.1 19.7,10.2 19.3,10.2 C16.1,10.2 14.1,9 12.7,4.7 C11.5,1 11.3,-0.1 10.4,-4.5"/>
<path class="Note" transform="matrix(2.3811,0,0,2.3811,674.341,1451.34)" d="M18.7,-13.6 C4.9,-13.6 0,-6.6 0,-0.1 C0,6.4 4.9,13.4 18.7,13.4 C32.5,13.4 37.3,6.4 37.3,-0.1 C37.3,-6.6 32.5,-13.6 18.7,-13.6 M10.4,-4.5 C10.3,-4.9 10.3,-5.3 10.3,-5.7 C10.3,-6.5 10.5,-7.3 10.9,-8 C11.6,-9 12.8,-9.7 14.3,-10 C15.6,-10.3 16.3,-10.5 18.9,-10.5 L19,-10.5 C23,-10.5 24.3,-6.8 25.4,-3 L25.7,-2 C26.5,0.6 26.9,2.8 26.9,4.5 C26.9,5.7 26.7,6.8 26.3,7.6 C25.7,8.7 24.7,9.4 23,9.8 C22.1,10 20.6,10.1 20.6,10.1 C20.1,10.1 19.7,10.2 19.3,10.2 C16.1,10.2 14.1,9 12.7,4.7 C11.5,1 11.3,-0.1 10.4,-4.5"/>
<path class="Note" transform="matrix(2.3811,0,0,2.3811,674.341,1391.81)" d="M18.7,-13.6 C4.9,-13.6 0,-6.6 0,-0.1 C0,6.4 4.9,13.4 18.7,13.4 C32.5,13.4 37.3,6.4 37.3,-0.1 C37.3,-6.6 32.5,-13.6 18.7,-13.6 M10.4,-4.5 C10.3,-4.9 10.3,-5.3 10.3,-5.7 C10.3,-6.5 10.5,-7.3 10.9,-8 C11.6,-9 12.8,-9.7 14.3,-10 C15.6,-10.3 16.3,-10.5 18.9,-10.5 L19,-10.5 C23,-10.5 24.3,-6.8 25.4,-3 L25.7,-2 C26.5,0.6 26.9,2.8 26.9,4.5 C26.9,5.7 26.7,6.8 26.3,7.6 C25.7,8.7 24.7,9.4 23,9.8 C22.1,10 20.6,10.1 20.6,10.1 C20.1,10.1 19.7,10.2 19.3,10.2 C16.1,10.2 14.1,9 12.7,4.7 C11.5,1 11.3,-0.1 10.4,-4.5"/>
<path class="Note" transform="matrix(2.3811,0,0,2.3811,1143.64,1510.87)" d="M18.7,-13.6 C4.9,-13.6 0,-6.6 0,-0.1 C0,6.4 4.9,13.4 18.7,13.4 C32.5,13.4 37.3,6.4 37.3,-0.1 C37.3,-6.6 32.5,-13.6 18.7,-13.6 M10.4,-4.5 C10.3,-4.9 10.3,-5.3 10.3,-5.7 C10.3,-6.5 10.5,-7.3 10.9,-8 C11.6,-9 12.8,-9.7 14.3,-10 C15.6,-10.3 16.3,-10.5 18.9,-10.5 L19,-10.5 C23,-10.5 24.3,-6.8 25.4,-3 L25.7,-2 C26.5,0.6 26.9,2.8 26.9,4.5 C26.9,5.7 26.7,6.8 26.3,7.6 C25.7,8.7 24.7,9.4 23,9.8 C22.1,10 20.6,10.1 20.6,10.1 C20.1,10.1 19.7,10.2 19.3,10.2 C16.1,10.2 14.1,9 12.7,4.7 C11.5,1 11.3,-0.1 10.4,-4.5"/>
<path class="Note" transform="matrix(2.3811,0,0,2.3811,1143.64,1451.34)" d="M18.7,-13.6 C4.9,-13.6 0,-6.6 0,-0.1 C0,6.4 4.9,13.4 18.7,13.4 C32.5,13.4 37.3,6.4 37.3,-0.1 C37.3,-6.6 32.5,-13.6 18.7,-13.6 M10.4,-4.5 C10.3,-4.9 10.3,-5.3 10.3,-5.7 C10.3,-6.5 10.5,-7.3 10.9,-8 C11.6,-9 12.8,-9.7 14.3,-10 C15.6,-10.3 16.3,-10.5 18.9,-10.5 L19,-10.5 C23,-10.5 24.3,-6.8 25.4,-3 L25.7,-2 C26.5,0.6 26.9,2.8 26.9,4.5 C26.9,5.7 26.7,6.8 26.3,7.6 C25.7,8.7 24.7,9.4 23,9.8 C22.1,10 20.6,10.1 20.6,10.1 C20.1,10.1 19.7,10.2 19.3,10.2 C16.1,10.2 14.1,9 12.7,4.7 C11.5,1 11.3,-0.1 10.4,-4.5"/>
<path class="Note" transform="matrix(2.3811,0,0,2.3811,1143.64,1362.05)" d="M18.7,-13.6 C4.9,-13.6 0,-6.6 0,-0.1 C0,6.4 4.9,13.4 18.7,13.4 C32.5,13.4 37.3,6.4 37.3,-0.1 C37.3,-6.6 32.5,-13.6 18.7,-13.6 M10.4,-4.5 C10.3,-4.9 10.3,-5.3 10.3,-5.7 C10.3,-6.5 10.5,-7.3 10.9,-8 C11.6,-9 12.8,-9.7 14.3,-10 C15.6,-10.3 16.3,-10.5 18.9,-10.5 L19,-10.5 C23,-10.5 24.3,-6.8 25.4,-3 L25.7,-2 C26.5,0.6 26.9,2.8 26.9,4.5 C26.9,5.7 26.7,6.8 26.3,7.6 C25.7,8.7 24.7,9.4 23,9.8 C22.1,10 20.6,10.1 20.6,10.1 C20.1,10.1 19.7,10.2 19.3,10.2 C16.1,10.2 14.1,9 12.7,4.7 C11.5,1 11.3,-0.1 10.4,-4.5"/>
<path class="Note" transform="matrix(2.3811,0,0,2.3811,1637.57,1481.1)" d="M18.7,-13.6 C4.9,-13.6 0,-6.6 0,-0.1 C0,6.4 4.9,13.4 18.7,13.4 C32.5,13.4 37.3,6.4 37.3,-0.1 C37.3,-6.6 32.5,-13.6 18.7,-13.6 M10.4,-4.5 C10.3,-4.9 10.3,-5.3 10.3,-5.7 C10.3,-6.5 10.5,-7.3 10.9,-8 C11.6,-9 12.8,-9.7 14.3,-10 C15.6,-10.3 16.3,-10.5 18.9,-10.5 L19,-10.5 C23,-10.5 24.3,-6.8 25.4,-3 L25.7,-2 C26.5,0.6 26.9,2.8 26.9,4.5 C26.9,5.7 26.7,6.8 26.3,7.6 C25.7,8.7 24.7,9.4 23,9.8 C22.1,10 20.6,10.1 20.6,10.1 C20.1,10.1 19.7,10.2 19.3,10.2 C16.1,10.2 14.1,9 12.7,4.7 C11.5,1 11.3,-0.1 10.4,-4.5"/>
<path class="Note" transform="matrix(2.3811,0,0,2.3811,1637.57,1421.57)" d="M18.7,-13.6 C4.9,-13.6 0,-6.6 0,-0.1 C0,6.4 4.9,13.4 18.7,13.4 C32.5,13.4 37.3,6.4 37.3,-0.1 C37.3,-6.6 32.5,-13.6 18.7,-13.6 M10.4,-4.5 C10.3,-4.9 10.3,-5.3 10.3,-5.7 C10.3,-6.5 10.5,-7.3 10.9,-8 C11.6,-9 12.8,-9.7 14.3,-10 C15.6,-10.3 16.3,-10.5 18.9,-10.5 L19,-10.5 C23,-10.5 24.3,-6.8 25.4,-3 L25.7,-2 C26.5,0.6 26.9,2.8 26.9,4.5 C26.9,5.7 26.7,6.8 26.3,7.6 C25.7,8.7 24.7,9.4 23,9.8 C22.1,10 20.6,10.1 20.6,10.1 C20.1,10.1 19.7,10.2 19.3,10.2 C16.1,10.2 14.1,9 12.7,4.7 C11.5,1 11.3,-0.1 10.4,-4.5"/>
<path class="Note" transform="matrix(2.3811,0,0,2.3811,1637.57,1362.05)" d="M18.7,-13.6 C4.9,-13.6 0,-6.6 0,-0.1 C0,6.4 4.9,13.4 18.7,13.4 C32.5,13.4 37.3,6.4 37.3,-0.1 C37.3,-6.6 32.5,-13.6 18.7,-13.6 M10.4,-4.5 C10.3,-4.9 10.3,-5.3 10.3,-5.7 C10.3,-6.5 10.5,-7.3 10.9,-8 C11.6,-9 12.8,-9.7 14.3,-10 C15.6,-10.3 16.3,-10.5 18.9,-10.5 L19,-10.5 C23,-10.5 24.3,-6.8 25.4,-3 L25.7,-2 C26.5,0.6 26.9,2.8 26.9,4.5 C26.9,5.7 26.7,6.8 26.3,7.6 C25.7,8.7 24.7,9.4 23,9.8 C22.1,10 20.6,10.1 20.6,10.1 C20.1,10.1 19.7,10.2 19.3,10.2 C16.1,10.2 14.1,9 12.7,4.7 C11.5,1 11.3,-0.1 10.4,-4.5"/>
<path class="Note" transform="matrix(2.3811,0,0,2.3811,2160.28,1481.1)" d="M18.7,-13.6 C4.9,-13.6 0,-6.6 0,-0.1 C0,6.4 4.9,13.4 18.7,13.4 C32.5,13.4 37.3,6.4 37.3,-0.1 C37.3,-6.6 32.5,-13.6 18.7,-13.6 M10.4,-4.5 C10.3,-4.9 10.3,-5.3 10.3,-5.7 C10.3,-6.5 10.5,-7.3 10.9,-8 C11.6,-9 12.8,-9.7 14.3,-10 C15.6,-10.3 16.3,-10.5 18.9,-10.5 L19,-10.5 C23,-10.5 24.3,-6.8 25.4,-3 L25.7,-2 C26.5,0.6 26.9,2.8 26.9,4.5 C26.9,5.7 26.7,6.8 26.3,7.6 C25.7,8.7 24.7,9.4 23,9.8 C22.1,10 20.6,10.1 20.6,10.1 C20.1,10.1 19.7,10.2 19.3,10.2 C16.1,10.2 14.1,9 12.7,4.7 C11.5,1 11.3,-0.1 10.4,-4.5"/>
<path class="Note" transform="matrix(2.3811,0,0,2.3811,2160.28,1421.57)" d="M18.7,-13.6 C4.9,-13.6 0,-6.6 0,-0.1 C0,6.4 4.9,13.4 18.7,13.4 C32.5,13.4 37.3,6.4 37.3,-0.1 C37.3,-6.6 32.5,-13.6 18.7,-13.6 M10.4,-4.5 C10.3,-4.9 10.3,-5.3 10.3,-5.7 C10.3,-6.5 10.5,-7.3 10.9,-8 C11.6,-9 12.8,-9.7 14.3,-10 C15.6,-10.3 16.3,-10.5 18.9,-10.5 L19,-10.5 C23,-10.5 24.3,-6.8 25.4,-3 L25.7,-2 C26.5,0.6 26.9,2.8 26.9,4.5 C26.9,5.7 26.7,6.8 26.3,7.6 C25.7,8.7 24.7,9.4 23,9.8 C22.1,10 20.6,10.1 20.6,10.1 C20.1,10.1 19.7,10.2 19.3,10.2 C16.1,10.2 14.1,9 12.7,4.7 C11.5,1 11.3,-0.1 10.4,-4.5"/>
<path class="Note" transform="matrix(2.3811,0,0,2.3811,2160.28,1362.05)" d="M18.7,-13.6 C4.9,-13.6 0,-6.6 0,-0.1 C0,6.4 4.9,13.4 18.7,13.4 C32.5,13.4 37.3,6.4 37.3,-0.1 C37.3,-6.6 32.5,-13.6 18.7,-13.6 M10.4,-4.5 C10.3,-4.9 10.3,-5.3 10.3,-5.7 C10.3,-6.5 10.5,-7.3 10.9,-8 C11.6,-9 12.8,-9.7 14.3,-10 C15.6,-10.3 16.3,-10.5 18.9,-10.5 L19,-10.5 C23,-10.5 24.3,-6.8 25.4,-3 L25.7,-2 C26.5,0.6 26.9,2.8 26.9,4.5 C26.9,5.7 26.7,6.8 26.3,7.6 C25.7,8.7 24.7,9.4 23,9.8 C22.1,10 20.6,10.1 20.6,10.1 C20.1,10.1 19.7,10.2 19.3,10.2 C16.1,10.2 14.1,9 12.7,4.7 C11.5,1 11.3,-0.1 10.4,-4.5"/>
<path class="Note" transform="matrix(2.3811,0,0,2.3811,2654.21,1451.34)" d="M18.7,-13.6 C4.9,-13.6 0,-6.6 0,-0.1 C0,6.4 4.9,13.4 18.7,13.4 C32.5,13.4 37.3,6.4 37.3,-0.1 C37.3,-6.6 32.5,-13.6 18.7,-13.6 M10.4,-4.5 C10.3,-4.9 10.3,-5.3 10.3,-5.7 C10.3,-6.5 10.5,-7.3 10.9,-8 C11.6,-9 12.8,-9.7 14.3,-10 C15.6,-10.3 16.3,-10.5 18.9,-10.5 L19,-10.5 C23,-10.5 24.3,-6.8 25.4,-3 L25.7,-2 C26.5,0.6 26.9,2.8 26.9,4.5 C26.9,5.7 26.7,6.8 26.3,7.6 C25.7,8.7 24.7,9.4 23,9.8 C22.1,10 20.6,10.1 20.6,10.1 C20.1,10.1 19.7,10.2 19.3,10.2 C16.1,10.2 14.1,9 12.7,4.7 C11.5,1 11.3,-0.1 10.4,-4.5"/>
<path class="Note" transform="matrix(2.3811,0,0,2.3811,2654.21,1391.81)" d="M18.7,-13.6 C4.9,-13.6 0,-6.6 0,-0.1 C0,6.4 4.9,13.4 18.7,13.4 C32.5,13.4 37.3,6.4 37.3,-0.1 C37.3,-6.6 32.5,-13.6 18.7,-13.6 M10.4,-4.5 C10.3,-4.9 10.3,-5.3 10.3,-5.7 C10.3,-6.5 10.5,-7.3 10.9,-8 C11.6,-9 12.8,-9.7 14.3,-10 C15.6,-10.3 16.3,-10.5 18.9,-10.5 L19,-10.5 C23,-10.5 24.3,-6.8 25.4,-3 L25.7,-2 C26.5,0.6 26.9,2.8 26.9,4.5 C26.9,5.7 26.7,6.8 26.3,7.6 C25.7,8.7 24.7,9.4 23,9.8 C22.1,10 20.6,10.1 20.6,10.1 C20.1,10.1 19.7,10.2 19.3,10.2 C16.1,10.2 14.1,9 12.7,4.7 C11.5,1 11.3,-0.1 10.4,-4.5"/>
<path class="Note" transform="matrix(2.3811,0,0,2.3811,2654.21,1332.28)" d="M18.7,-13.6 C4.9,-13.6 0,-6.6 0,-0.1 C0,6.4 4.9,13.4 18.7,13.4 C32.5,13.4 37.3,6.4 37.3,-0.1 C37.3,-6.6 32.5,-13.6 18.7,-13.6 M10.4,-4.5 C10.3,-4.9 10.3,-5.3 10.3,-5.7 C10.3,-6.5 10.5,-7.3 10.9,-8 C11.6,-9 12.8,-9.7 14.3,-10 C15.6,-10.3 16.3,-10.5 18.9,-10.5 L19,-10.5 C23,-10.5 24.3,-6.8 25.4,-3 L25.7,-2 C26.5,0.6 26.9,2.8 26.9,4.5 C26.9,5.7 26.7,6.8 26.3,7.6 C25.7,8.7 24.7,9.4 23,9.8 C22.1,10 20.6,10.1 20.6,10.1 C20.1,10.1 19.7,10.2 19.3,10.2 C16.1,10.2 14.1,9 12.7,4.7 C11.5,1 11.3,-0.1 10.4,-4.5"/>
<path class="Note" transform="matrix(2.3811,0,0,2.3811,3215.29,1451.34)" d="M18.7,-13.6 C4.9,-13.6 0,-6.6 0,-0.1 C0,6.4 4.9,13.4 18.7,13.4 C32.5,13.4 37.3,6.4 37.3,-0.1 C37.3,-6.6 32.5,-13.6 18.7,-13.6 M10.4,-4.5 C10.3,-4.9 10.3,-5.3 10.3,-5.7 C10.3,-6.5 10.5,-7.3 10.9,-8 C11.6,-9 12.8,-9.7 14.3,-10 C15.6,-10.3 16.3,-10.5 18.9,-10.5 L19,-10.5 C23,-10.5 24.3,-6.8 25.4,-3 L25.7,-2 C26.5,0.6 26.9,2.8 26.9,4.5 C26.9,5.7 26.7,6.8 26.3,7.6 C25.7,8.7 24.7,9.4 23,9.8 C22.1,10 20.6,10.1 20.6,10.1 C20.1,10.1 19.7,10.2 19.3,10.2 C16.1,10.2 14.1,9 12.7,4.7 C11.5,1 11.3,-0.1 10.4,-4.5"/>
<path class="Note" transform="matrix(2.3811,0,0,2.3811,3133.03,1391.81)" d="M18.7,-13.6 C4.9,-13.6 0,-6.6 0,-0.1 C0,6.4 4.9,13.4 18.7,13.4 C32.5,13.4 37.3,6.4 37.3,-0.1 C37.3,-6.6 32.5,-13.6 18.7,-13.6 M10.4,-4.5 C10.3,-4.9 10.3,-5.3 10.3,-5.7 C10.3,-6.5 10.5,-7.3 10.9,-8 C11.6,-9 12.8,-9.7 14.3,-10 C15.6,-10.3 16.3,-10.5 18.9,-10.5 L19,-10.5 C23,-10.5 24.3,-6.8 25.4,-3 L25.7,-2 C26.5,0.6 26.9,2.8 26.9,4.5 C26.9,5.7 26.7,6.8 26.3,7.6 C25.7,8.7 24.7,9.4 23,9.8 C22.1,10 20.6,10.1 20.6,10.1 C20.1,10.1 19.7,10.2 19.3,10.2 C16.1,10.2 14.1,9 12.7,4.7 C11.5,1 11.3,-0.1 10.4,-4.5"/>
<path class="Note" transform="matrix(2.3811,0,0,2.3811,3215.29,1362.05)" d="M18.7,-13.6 C4.9,-13.6 0,-6.6 0,-0.1 C0,6.4 4.9,13.4 18.7,13.4 C32.5,13.4 37.3,6.4 37.3,-0.1 C37.3,-6.6 32.5,-13.6 18.7,-13.6 M10.4,-4.5 C10.3,-4.9 10.3,-5.3 10.3,-5.7 C10.3,-6.5 10.5,-7.3 10.9,-8 C11.6,-9 12.8,-9.7 14.3,-10 C15.6,-10.3 16.3,-10.5 18.9,-10.5 L19,-10.5 C23,-10.5 24.3,-6.8 25.4,-3 L25.7,-2 C26.5,0.6 26.9,2.8 26.9,4.5 C26.9,5.7 26.7,6.8 26.3,7.6 C25.7,8.7 24.7,9.4 23,9.8 C22.1,10 20.6,10.1 20.6,10.1 C20.1,10.1 19.7,10.2 19.3,10.2 C16.1,10.2 14.1,9 12.7,4.7 C11.5,1 11.3,-0.1 10.4,-4.5"/>
<path class="Note" transform="matrix(2.3811,0,0,2.3811,3699.7,1481.1)" d="M18.7,-13.6 C4.9,-13.6 0,-6.6 0,-0.1 C0,6.4 4.9,13.4 18.7,13.4 C32.5,13.4 37.3,6.4 37.3,-0.1 C37.3,-6.6 32.5,-13.6 18.7,-13.6 M10.4,-4.5 C10.3,-4.9 10.3,-5.3 10.3,-5.7 C10.3,-6.5 10.5,-7.3 10.9,-8 C11.6,-9 12.8,-9.7 14.3,-10 C15.6,-10.3 16.3,-10.5 18.9,-10.5 L19,-10.5 C23,-10.5 24.3,-6.8 25.4,-3 L25.7,-2 C26.5,0.6 26.9,2.8 26.9,4.5 C26.9,5.7 26.7,6.8 26.3,7.6 C25.7,8.7 24.7,9.4 23,9.8 C22.1,10 20.6,10.1 20.6,10.1 C20.1,10.1 19.7,10.2 19.3,10.2 C16.1,10.2 14.1,9 12.7,4.7 C11.5,1 11.3,-0.1 10.4,-4.5"/>
<path class="Note" transform="matrix(2.3811,0,0,2.3811,3699.7,1421.57)" d="M18.7,-13.6 C4.9,-13.6 0,-6.6 0,-0.1 C0,6.4 4.9,13.4 18.7,13.4 C32.5,13.4 37.3,6.4 37.3,-0.1 C37.3,-6.6 32.5,-13.6 18.7,-13.6 M10.4,-4.5 C10.3,-4.9 10.3,-5.3 10.3,-5.7 C10.3,-6.5 10.5,-7.3 10.9,-8 C11.6,-9 12.8,-9.7 14.3,-10 C15.6,-10.3 16.3,-10.5 18.9,-10.5 L19,-10.5 C23,-10.5 24.3,-6.8 25.4,-3 L25.7,-2 C26.5,0.6 26.9,2.8 26.9,4.5 C26.9,5.7 26.7,6.8 26.3,7.6 C25.7,8.7 24.7,9.4 23,9.8 C22.1,10 20.6,10.1 20.6,10.1 C20.1,10.1 19.7,10.2 19.3,10.2 C16.1,10.2 14.1,9 12.7,4.7 C11.5,1 11.3,-0.1 10.4,-4.5"/>
<path class="Note" transform="matrix(2.3811,0,0,2.3811,3699.7,1362.05)" d="M18.7,-13.6 C4.9,-13.6 0,-6.6 0,-0.1 C0,6.4 4.9,13.4 18.7,13.4 C32.5,13.4 37.3,6.4 37.3,-0.1 C37.3,-6.6 32.5,-13.6 18.7,-13.6 M10.4,-4.5 C10.3,-4.9 10.3,-5.3 10.3,-5.7 C10.3,-6.5 10.5,-7.3 10.9,-8 C11.6,-9 12.8,-9.7 14.3,-10 C15.6,-10.3 16.3,-10.5 18.9,-10.5 L19,-10.5 C23,-10.5 24.3,-6.8 25.4,-3 L25.7,-2 C26.5,0.6 26.9,2.8 26.9,4.5 C26.9,5.7 26.7,6.8 26.3,7.6 C25.7,8.7 24.7,9.4 23,9.8 C22.1,10 20.6,10.1 20.6,10.1 C20.1,10.1 19.7,10.2 19.3,10.2 C16.1,10.2 14.1,9 12.7,4.7 C11.5,1 11.3,-0.1 10.4,-4.5"/>
<path class="Note" d="M695.403,910.409 C691.22,910.409 689.128,908.511 689.128,904.715 C689.128,898.284 690.096,893.558 692.033,890.537 C700.09,878.606 717.599,856.293 744.56,823.599 C756.724,808.802 772.412,801.403 791.626,801.403 C799.063,801.403 804.215,802.449 807.082,804.541 C811.498,807.795 813.706,811.707 813.706,816.278 C813.706,821.082 809.832,826.427 802.085,832.315 C794.725,837.893 787.752,840.682 781.167,840.682 C778.61,840.682 777.332,840.411 777.332,839.869 C777.332,839.094 778.571,838.281 781.051,837.429 C784.382,836.189 787.946,833.671 791.742,829.875 C796.081,825.459 798.25,821.469 798.25,817.905 C798.25,815.503 796.584,813.218 793.253,811.049 C790.309,809.189 785.544,808.26 778.959,808.26 C769.352,808.26 757.227,817.944 742.585,837.312 C732.823,850.25 724.921,861.639 718.878,871.478 C721.822,869.851 725.347,867.876 729.453,865.552 C734.489,862.685 738.827,861.252 742.469,861.252 C751.533,861.252 756.065,864.506 756.065,871.013 C756.065,877.444 752.347,884.494 744.909,892.164 C739.641,897.587 737.007,901.616 737.007,904.25 C737.007,906.961 739.641,908.317 744.909,908.317 C747.543,908.317 750.255,907.388 753.044,905.528 C755.833,903.746 757.886,902.855 759.203,902.855 C760.288,902.855 760.83,903.553 760.83,904.947 C760.83,907.194 758.661,909.557 754.322,912.036 C747.04,916.22 741.19,918.311 736.774,918.311 C728.949,918.311 725.037,914.128 725.037,905.761 C725.037,900.492 728.058,894.643 734.101,888.213 C738.517,883.487 740.725,878.8 740.725,874.151 C740.725,870.123 738.556,868.108 734.218,868.108 C732.513,868.108 726.858,870.123 717.251,874.151 C714.384,878.955 711.983,883.371 710.046,887.399 C702.686,902.739 697.805,910.409 695.403,910.409"/>
<path class="Note" d="M724.688,576.876 C728.485,576.876 730.383,579.781 730.383,585.592 C730.383,589.775 728.407,594.579 724.456,600.002 C720.97,604.883 719.226,612.436 719.226,622.663 C719.226,627.544 720.505,630.798 723.061,632.425 C724.843,633.664 728.175,634.323 733.056,634.4 C738.324,634.4 745.8,631.727 755.484,626.382 L757.344,628.241 C754.864,631.417 751.882,634.284 748.395,636.841 C743.205,640.637 737.898,642.535 732.474,642.535 C724.65,642.535 718.723,641.412 714.694,639.165 C709.658,636.376 707.14,632.889 707.14,628.706 C707.14,617.162 708.613,605.115 711.557,592.564 C712.641,587.993 715.004,583.81 718.645,580.013 C720.737,577.922 722.751,576.876 724.688,576.876"/>
<path class="Note" d="M695.403,821.118 C691.22,821.118 689.128,819.22 689.128,815.423 C689.128,808.993 690.096,804.267 692.033,801.246 C700.09,789.315 717.599,767.002 744.56,734.308 C756.724,719.511 772.412,712.112 791.626,712.112 C799.063,712.112 804.215,713.158 807.082,715.249 C811.498,718.503 813.706,722.416 813.706,726.987 C813.706,731.79 809.832,737.136 802.085,743.024 C794.725,748.602 787.752,751.391 781.167,751.391 C778.61,751.391 777.332,751.12 777.332,750.578 C777.332,749.803 778.571,748.989 781.051,748.137 C784.382,746.898 787.946,744.38 791.742,740.583 C796.081,736.167 798.25,732.178 798.25,728.614 C798.25,726.212 796.584,723.927 793.253,721.757 C790.309,719.898 785.544,718.968 778.959,718.968 C769.352,718.968 757.227,728.652 742.585,748.021 C732.823,760.959 724.921,772.348 718.878,782.187 C721.822,780.56 725.347,778.584 729.453,776.26 C734.489,773.394 738.827,771.96 742.469,771.96 C751.533,771.96 756.065,775.214 756.065,781.722 C756.065,788.152 752.347,795.203 744.909,802.873 C739.641,808.296 737.007,812.324 737.007,814.958 C737.007,817.67 739.641,819.026 744.909,819.026 C747.543,819.026 750.255,818.096 753.044,816.237 C755.833,814.455 757.886,813.564 759.203,813.564 C760.288,813.564 760.83,814.261 760.83,815.656 C760.83,817.902 758.661,820.265 754.322,822.745 C747.04,826.928 741.19,829.02 736.774,829.02 C728.949,829.02 725.037,824.836 725.037,816.469 C725.037,811.201 728.058,805.352 734.101,798.921 C738.517,794.195 740.725,789.508 740.725,784.86 C740.725,780.831 738.556,778.817 734.218,778.817 C732.513,778.817 726.858,780.831 717.251,784.86 C714.384,789.663 711.983,794.079 710.046,798.108 C702.686,813.448 697.805,821.118 695.403,821.118"/>
<path class="Note" d="M695.403,731.826 C691.22,731.826 689.128,729.928 689.128,726.132 C689.128,719.702 690.096,714.976 692.033,711.954 C700.09,700.023 717.599,677.711 744.56,645.017 C756.724,630.219 772.412,622.82 791.626,622.82 C799.063,622.82 804.215,623.866 807.082,625.958 C811.498,629.212 813.706,633.124 813.706,637.695 C813.706,642.499 809.832,647.845 802.085,653.733 C794.725,659.311 787.752,662.1 781.167,662.1 C778.61,662.1 777.332,661.829 777.332,661.286 C777.332,660.512 778.571,659.698 781.051,658.846 C784.382,657.606 787.946,655.088 791.742,651.292 C796.081,646.876 798.25,642.886 798.25,639.322 C798.25,636.921 796.584,634.635 793.253,632.466 C790.309,630.607 785.544,629.677 778.959,629.677 C769.352,629.677 757.227,639.361 742.585,658.73 C732.823,671.668 724.921,683.056 718.878,692.896 C721.822,691.269 725.347,689.293 729.453,686.969 C734.489,684.102 738.827,682.669 742.469,682.669 C751.533,682.669 756.065,685.923 756.065,692.431 C756.065,698.861 752.347,705.911 744.909,713.581 C739.641,719.004 737.007,723.033 737.007,725.667 C737.007,728.379 739.641,729.735 744.909,729.735 C747.543,729.735 750.255,728.805 753.044,726.945 C755.833,725.164 757.886,724.273 759.203,724.273 C760.288,724.273 760.83,724.97 760.83,726.364 C760.83,728.611 758.661,730.974 754.322,733.453 C747.04,737.637 741.19,739.729 736.774,739.729 C728.949,739.729 725.037,735.545 725.037,727.178 C725.037,721.91 728.058,716.06 734.101,709.63 C738.517,704.904 740.725,700.217 740.725,695.568 C740.725,691.54 738.556,689.526 734.218,689.526 C732.513,689.526 726.858,691.54 717.251,695.568 C714.384,700.372 711.983,704.788 710.046,708.817 C702.686,724.156 697.805,731.826 695.403,731.826"/>
<path class="Note" d="M1237.34,829.061 C1241.67,826.117 1244.81,823.677 1246.75,821.74 C1250.31,817.944 1252.09,814.457 1252.09,811.281 C1252.09,807.64 1250.08,805.819 1246.05,805.819 C1238.23,805.819 1229.86,812.714 1220.95,826.505 C1218.24,830.688 1212.27,844.324 1203.05,867.411 C1210.41,875.003 1214.09,879.303 1214.09,880.31 C1214.09,881.705 1213.2,882.402 1211.42,882.402 C1210.03,882.402 1206.19,880.039 1199.92,875.313 C1193.1,891.195 1182.75,904.753 1168.89,915.987 C1154.71,927.453 1137.78,933.186 1118.1,933.186 C1110.59,933.186 1101.17,931.443 1089.86,927.957 C1080.8,925.168 1076.27,920.713 1076.27,914.593 C1076.27,905.528 1079.75,900.996 1086.73,900.996 C1090.91,900.996 1093,902.933 1093,906.806 C1093,908.046 1092.03,909.363 1090.1,910.758 C1089.09,911.455 1088.59,912.811 1088.59,914.825 C1088.59,917.227 1091.26,919.706 1096.6,922.263 C1102.41,925.052 1110.94,926.446 1122.17,926.446 C1136.66,926.446 1150.64,920.171 1164.12,907.62 C1176.36,896.231 1185.16,882.983 1190.5,867.876 C1188.41,866.171 1186.16,864.312 1183.76,862.298 C1176.32,857.882 1172.61,853.349 1172.61,848.701 C1172.61,846.764 1173.88,845.796 1176.44,845.796 C1179.85,845.796 1184.46,848.701 1190.27,854.512 C1191.51,855.751 1192.67,856.913 1193.76,857.998 C1196.47,850.56 1200.81,841.109 1206.77,829.642 C1217.54,808.879 1230.63,798.498 1246.05,798.498 C1251.55,798.498 1255.89,799.544 1259.07,801.636 C1262.24,803.727 1263.83,806.594 1263.83,810.235 C1263.83,816.046 1261.7,820.965 1257.44,824.994 C1253.02,829.178 1248.41,831.269 1243.61,831.269 C1239.43,831.269 1237.34,830.533 1237.34,829.061"/>
<path class="Note" d="M1164.7,642.535 C1160.52,642.535 1158.43,640.637 1158.43,636.841 C1158.43,630.41 1159.4,625.684 1161.33,622.663 C1169.39,610.732 1186.9,588.419 1213.86,555.725 C1226.02,540.928 1241.71,533.529 1260.93,533.529 C1268.36,533.529 1273.52,534.575 1276.38,536.667 C1280.8,539.921 1283.01,543.833 1283.01,548.404 C1283.01,553.207 1279.13,558.553 1271.38,564.441 C1264.02,570.019 1257.05,572.808 1250.47,572.808 C1247.91,572.808 1246.63,572.537 1246.63,571.995 C1246.63,571.22 1247.87,570.407 1250.35,569.555 C1253.68,568.315 1257.25,565.797 1261.04,562.001 C1265.38,557.585 1267.55,553.595 1267.55,550.031 C1267.55,547.629 1265.88,545.344 1262.55,543.175 C1259.61,541.315 1254.84,540.386 1248.26,540.386 C1238.65,540.386 1226.53,550.07 1211.88,569.438 C1202.12,582.376 1194.22,593.765 1188.18,603.604 C1191.12,601.977 1194.65,600.002 1198.75,597.678 C1203.79,594.811 1208.13,593.378 1211.77,593.378 C1220.83,593.378 1225.37,596.632 1225.37,603.139 C1225.37,609.57 1221.65,616.62 1214.21,624.29 C1208.94,629.713 1206.31,633.742 1206.31,636.376 C1206.31,639.087 1208.94,640.443 1214.21,640.443 C1216.84,640.443 1219.55,639.513 1222.34,637.654 C1225.13,635.872 1227.19,634.981 1228.5,634.981 C1229.59,634.981 1230.13,635.679 1230.13,637.073 C1230.13,639.32 1227.96,641.683 1223.62,644.162 C1216.34,648.346 1210.49,650.437 1206.07,650.437 C1198.25,650.437 1194.34,646.254 1194.34,637.887 C1194.34,632.618 1197.36,626.769 1203.4,620.339 C1207.82,615.613 1210.03,610.926 1210.03,606.277 C1210.03,602.249 1207.86,600.234 1203.52,600.234 C1201.81,600.234 1196.16,602.249 1186.55,606.277 C1183.68,611.081 1181.28,615.497 1179.35,619.525 C1171.99,634.865 1167.1,642.535 1164.7,642.535"/>
<path class="Note" d="M1164.7,821.118 C1160.52,821.118 1158.43,819.22 1158.43,815.423 C1158.43,808.993 1159.4,804.267 1161.33,801.246 C1169.39,789.315 1186.9,767.002 1213.86,734.308 C1226.02,719.511 1241.71,712.112 1260.93,712.112 C1268.36,712.112 1273.52,713.158 1276.38,715.249 C1280.8,718.503 1283.01,722.416 1283.01,726.987 C1283.01,731.79 1279.13,737.136 1271.38,743.024 C1264.02,748.602 1257.05,751.391 1250.47,751.391 C1247.91,751.391 1246.63,751.12 1246.63,750.578 C1246.63,749.803 1247.87,748.989 1250.35,748.137 C1253.68,746.898 1257.25,744.38 1261.04,740.583 C1265.38,736.167 1267.55,732.178 1267.55,728.614 C1267.55,726.212 1265.88,723.927 1262.55,721.757 C1259.61,719.898 1254.84,718.968 1248.26,718.968 C1238.65,718.968 1226.53,728.652 1211.88,748.021 C1202.12,760.959 1194.22,772.348 1188.18,782.187 C1191.12,780.56 1194.65,778.584 1198.75,776.26 C1203.79,773.394 1208.13,771.96 1211.77,771.96 C1220.83,771.96 1225.37,775.214 1225.37,781.722 C1225.37,788.152 1221.65,795.203 1214.21,802.873 C1208.94,808.296 1206.31,812.324 1206.31,814.958 C1206.31,817.67 1208.94,819.026 1214.21,819.026 C1216.84,819.026 1219.55,818.096 1222.34,816.237 C1225.13,814.455 1227.19,813.564 1228.5,813.564 C1229.59,813.564 1230.13,814.261 1230.13,815.656 C1230.13,817.902 1227.96,820.265 1223.62,822.745 C1216.34,826.928 1210.49,829.02 1206.07,829.02 C1198.25,829.02 1194.34,824.836 1194.34,816.469 C1194.34,811.201 1197.36,805.352 1203.4,798.921 C1207.82,794.195 1210.03,789.508 1210.03,784.86 C1210.03,780.831 1207.86,778.817 1203.52,778.817 C1201.81,778.817 1196.16,780.831 1186.55,784.86 C1183.68,789.663 1181.28,794.079 1179.35,798.108 C1171.99,813.448 1167.1,821.118 1164.7,821.118"/>
<path class="Note" d="M1193.99,666.167 C1197.78,666.167 1199.68,669.072 1199.68,674.883 C1199.68,679.067 1197.71,683.87 1193.76,689.293 C1190.27,694.174 1188.53,701.728 1188.53,711.954 C1188.53,716.835 1189.8,720.089 1192.36,721.716 C1194.14,722.956 1197.47,723.614 1202.36,723.692 C1207.62,723.692 1215.1,721.019 1224.78,715.673 L1226.64,717.532 C1224.16,720.709 1221.18,723.575 1217.7,726.132 C1212.5,729.928 1207.2,731.826 1201.77,731.826 C1193.95,731.826 1188.02,730.703 1183.99,728.456 C1178.96,725.667 1176.44,722.181 1176.44,717.997 C1176.44,706.454 1177.91,694.406 1180.86,681.856 C1181.94,677.285 1184.3,673.101 1187.95,669.305 C1190.04,667.213 1192.05,666.167 1193.99,666.167"/>
<path class="Note" d="M1693.15,804.541 C1695.63,804.541 1697.33,805.161 1698.26,806.4 C1699.66,808.492 1700.35,811.436 1700.35,815.232 C1700.35,819.648 1697.25,830.223 1691.06,846.958 C1680.91,875.391 1675.83,890.459 1675.83,892.164 C1675.83,896.735 1677.65,899.059 1681.29,899.137 C1682.84,899.137 1686.79,896.735 1693.15,891.931 C1699.42,887.36 1704.26,885.075 1707.67,885.075 C1709.07,885.075 1709.77,885.927 1709.77,887.632 C1709.77,890.498 1705.93,894.256 1698.26,898.904 C1685.71,906.574 1677.03,910.409 1672.23,910.409 C1664.56,910.409 1660.72,907.388 1660.72,901.345 C1660.72,901.19 1666.03,883.409 1676.65,848.004 C1683.08,826.698 1686.99,812.831 1688.38,806.4 C1688.62,805.161 1690.2,804.541 1693.15,804.541"/>
<path class="Note" d="M1687.92,576.876 C1691.71,576.876 1693.61,579.781 1693.61,585.592 C1693.61,589.775 1691.64,594.579 1687.69,600.002 C1684.2,604.883 1682.46,612.436 1682.46,622.663 C1682.46,627.544 1683.73,630.798 1686.29,632.425 C1688.07,633.664 1691.4,634.323 1696.29,634.4 C1701.55,634.4 1709.03,631.727 1718.71,626.382 L1720.57,628.241 C1718.09,631.417 1715.11,634.284 1711.62,636.841 C1706.43,640.637 1701.13,642.535 1695.7,642.535 C1687.88,642.535 1681.95,641.412 1677.92,639.165 C1672.89,636.376 1670.37,632.889 1670.37,628.706 C1670.37,617.162 1671.84,605.115 1674.79,592.564 C1675.87,587.993 1678.23,583.81 1681.87,580.013 C1683.97,577.922 1685.98,576.876 1687.92,576.876"/>
<path class="Note" d="M1719.53,747.207 C1721.93,747.207 1723.67,747.711 1724.76,748.718 C1726,749.803 1726.62,751.391 1726.62,753.483 C1726.62,756.117 1725.45,758.364 1723.13,760.223 C1713.06,767.351 1702.72,776.415 1692.1,787.416 C1694.5,798.03 1697.45,805.894 1700.93,811.007 C1705.5,817.748 1708.64,821.118 1710.35,821.118 C1711.9,821.118 1713.56,820.149 1715.34,818.212 C1716.58,816.895 1717.78,816.237 1718.95,816.237 C1721.43,816.237 1722.67,817.554 1722.67,820.188 C1722.67,822.977 1720.46,826.773 1716.04,831.577 C1713.64,834.056 1711.12,835.295 1708.49,835.295 C1703.06,835.295 1697.6,830.221 1692.1,820.072 C1686.52,809.845 1682.69,800.2 1680.6,791.135 C1676.72,803.066 1674.79,810.388 1674.79,813.099 C1674.79,818.445 1671.73,821.118 1665.61,821.118 C1662.27,821.118 1660.61,818.019 1660.61,811.821 C1660.61,808.877 1664.29,795.706 1671.65,772.309 C1675.29,760.843 1678.27,752.824 1680.6,748.253 C1681.14,747.324 1682.53,746.859 1684.78,746.859 C1687.41,746.859 1689.23,747.401 1690.24,748.486 C1691.25,749.57 1691.75,751.817 1691.75,755.226 C1691.75,756.93 1690.09,762.818 1686.76,772.89 C1695.05,764.755 1704.38,756.814 1714.76,749.067 C1716.39,747.827 1717.98,747.207 1719.53,747.207"/>
<path class="Note" d="M1687.92,666.167 C1691.71,666.167 1693.61,669.072 1693.61,674.883 C1693.61,679.067 1691.64,683.87 1687.69,689.293 C1684.2,694.174 1682.46,701.728 1682.46,711.954 C1682.46,716.835 1683.73,720.089 1686.29,721.716 C1688.07,722.956 1691.4,723.614 1696.29,723.692 C1701.55,723.692 1709.03,721.019 1718.71,715.673 L1720.57,717.532 C1718.09,720.709 1715.11,723.575 1711.62,726.132 C1706.43,729.928 1701.13,731.826 1695.7,731.826 C1687.88,731.826 1681.95,730.703 1677.92,728.456 C1672.89,725.667 1670.37,722.181 1670.37,717.997 C1670.37,706.454 1671.84,694.406 1674.79,681.856 C1675.87,677.285 1678.23,673.101 1681.87,669.305 C1683.97,667.213 1685.98,666.167 1687.92,666.167"/>
<path class="Note" d="M2215.86,804.541 C2218.34,804.541 2220.04,805.161 2220.97,806.4 C2222.37,808.492 2223.07,811.436 2223.07,815.232 C2223.07,819.648 2219.97,830.223 2213.77,846.958 C2203.62,875.391 2198.54,890.459 2198.54,892.164 C2198.54,896.735 2200.37,899.059 2204.01,899.137 C2205.56,899.137 2209.51,896.735 2215.86,891.931 C2222.14,887.36 2226.98,885.075 2230.39,885.075 C2231.78,885.075 2232.48,885.927 2232.48,887.632 C2232.48,890.498 2228.64,894.256 2220.97,898.904 C2208.42,906.574 2199.75,910.409 2194.94,910.409 C2187.27,910.409 2183.44,907.388 2183.44,901.345 C2183.44,901.19 2188.74,883.409 2199.36,848.004 C2205.79,826.698 2209.7,812.831 2211.1,806.4 C2211.33,805.161 2212.92,804.541 2215.86,804.541"/>
<path class="Note" d="M2210.63,576.876 C2214.43,576.876 2216.33,579.781 2216.33,585.592 C2216.33,589.775 2214.35,594.579 2210.4,600.002 C2206.91,604.883 2205.17,612.436 2205.17,622.663 C2205.17,627.544 2206.45,630.798 2209,632.425 C2210.79,633.664 2214.12,634.323 2219,634.4 C2224.27,634.4 2231.74,631.727 2241.43,626.382 L2243.29,628.241 C2240.81,631.417 2237.82,634.284 2234.34,636.841 C2229.15,640.637 2223.84,642.535 2218.42,642.535 C2210.59,642.535 2204.67,641.412 2200.64,639.165 C2195.6,636.376 2193.08,632.889 2193.08,628.706 C2193.08,617.162 2194.56,605.115 2197.5,592.564 C2198.58,587.993 2200.95,583.81 2204.59,580.013 C2206.68,577.922 2208.69,576.876 2210.63,576.876"/>
<path class="Note" d="M2242.24,747.207 C2244.64,747.207 2246.39,747.711 2247.47,748.718 C2248.71,749.803 2249.33,751.391 2249.33,753.483 C2249.33,756.117 2248.17,758.364 2245.84,760.223 C2235.77,767.351 2225.43,776.415 2214.81,787.416 C2217.22,798.03 2220.16,805.894 2223.65,811.007 C2228.22,817.748 2231.36,821.118 2233.06,821.118 C2234.61,821.118 2236.27,820.149 2238.06,818.212 C2239.3,816.895 2240.5,816.237 2241.66,816.237 C2244.14,816.237 2245.38,817.554 2245.38,820.188 C2245.38,822.977 2243.17,826.773 2238.75,831.577 C2236.35,834.056 2233.83,835.295 2231.2,835.295 C2225.78,835.295 2220.32,830.221 2214.81,820.072 C2209.24,809.845 2205.4,800.2 2203.31,791.135 C2199.44,803.066 2197.5,810.388 2197.5,813.099 C2197.5,818.445 2194.44,821.118 2188.32,821.118 C2184.99,821.118 2183.32,818.019 2183.32,811.821 C2183.32,808.877 2187,795.706 2194.36,772.309 C2198,760.843 2200.99,752.824 2203.31,748.253 C2203.85,747.324 2205.25,746.859 2207.49,746.859 C2210.13,746.859 2211.95,747.401 2212.96,748.486 C2213.96,749.57 2214.47,751.817 2214.47,755.226 C2214.47,756.93 2212.8,762.818 2209.47,772.89 C2217.76,764.755 2227.09,756.814 2237.48,749.067 C2239.1,747.827 2240.69,747.207 2242.24,747.207"/>
<path class="Note" d="M2210.63,666.167 C2214.43,666.167 2216.33,669.072 2216.33,674.883 C2216.33,679.067 2214.35,683.87 2210.4,689.293 C2206.91,694.174 2205.17,701.728 2205.17,711.954 C2205.17,716.835 2206.45,720.089 2209,721.716 C2210.79,722.956 2214.12,723.614 2219,723.692 C2224.27,723.692 2231.74,721.019 2241.43,715.673 L2243.29,717.532 C2240.81,720.709 2237.82,723.575 2234.34,726.132 C2229.15,729.928 2223.84,731.826 2218.42,731.826 C2210.59,731.826 2204.67,730.703 2200.64,728.456 C2195.6,725.667 2193.08,722.181 2193.08,717.997 C2193.08,706.454 2194.56,694.406 2197.5,681.856 C2198.58,677.285 2200.95,673.101 2204.59,669.305 C2206.68,667.213 2208.69,666.167 2210.63,666.167"/>
<path class="Note" d="M2709.79,804.541 C2712.27,804.541 2713.97,805.161 2714.9,806.4 C2716.3,808.492 2717,811.436 2717,815.232 C2717,819.648 2713.9,830.223 2707.7,846.958 C2697.55,875.391 2692.47,890.459 2692.47,892.164 C2692.47,896.735 2694.3,899.059 2697.94,899.137 C2699.49,899.137 2703.44,896.735 2709.79,891.931 C2716.07,887.36 2720.91,885.075 2724.32,885.075 C2725.71,885.075 2726.41,885.927 2726.41,887.632 C2726.41,890.498 2722.57,894.256 2714.9,898.904 C2702.35,906.574 2693.68,910.409 2688.87,910.409 C2681.2,910.409 2677.37,907.388 2677.37,901.345 C2677.37,901.19 2682.67,883.409 2693.29,848.004 C2699.72,826.698 2703.63,812.831 2705.03,806.4 C2705.26,805.161 2706.85,804.541 2709.79,804.541"/>
<path class="Note" d="M2709.79,536.667 C2712.27,536.667 2713.97,537.287 2714.9,538.526 C2716.3,540.618 2717,543.562 2717,547.358 C2717,551.774 2713.9,562.349 2707.7,579.084 C2697.55,607.517 2692.47,622.585 2692.47,624.29 C2692.47,628.861 2694.3,631.185 2697.94,631.263 C2699.49,631.263 2703.44,628.861 2709.79,624.057 C2716.07,619.486 2720.91,617.201 2724.32,617.201 C2725.71,617.201 2726.41,618.053 2726.41,619.758 C2726.41,622.624 2722.57,626.382 2714.9,631.03 C2702.35,638.7 2693.68,642.535 2688.87,642.535 C2681.2,642.535 2677.37,639.513 2677.37,633.471 C2677.37,633.316 2682.67,615.535 2693.29,580.13 C2699.72,558.824 2703.63,544.957 2705.03,538.526 C2705.26,537.287 2706.85,536.667 2709.79,536.667"/>
<path class="Note" d="M2709.79,715.249 C2712.27,715.249 2713.97,715.869 2714.9,717.109 C2716.3,719.201 2717,722.145 2717,725.941 C2717,730.357 2713.9,740.932 2707.7,757.666 C2697.55,786.099 2692.47,801.168 2692.47,802.873 C2692.47,807.443 2694.3,809.768 2697.94,809.845 C2699.49,809.845 2703.44,807.443 2709.79,802.64 C2716.07,798.069 2720.91,795.784 2724.32,795.784 C2725.71,795.784 2726.41,796.636 2726.41,798.34 C2726.41,801.207 2722.57,804.964 2714.9,809.613 C2702.35,817.283 2693.68,821.118 2688.87,821.118 C2681.2,821.118 2677.37,818.096 2677.37,812.053 C2677.37,811.898 2682.67,794.118 2693.29,758.712 C2699.72,737.407 2703.63,723.539 2705.03,717.109 C2705.26,715.869 2706.85,715.249 2709.79,715.249"/>
<path class="Note" d="M2709.79,625.958 C2712.27,625.958 2713.97,626.578 2714.9,627.818 C2716.3,629.909 2717,632.853 2717,636.65 C2717,641.066 2713.9,651.641 2707.7,668.375 C2697.55,696.808 2692.47,711.877 2692.47,713.581 C2692.47,718.152 2694.3,720.476 2697.94,720.554 C2699.49,720.554 2703.44,718.152 2709.79,713.349 C2716.07,708.778 2720.91,706.492 2724.32,706.492 C2725.71,706.492 2726.41,707.345 2726.41,709.049 C2726.41,711.916 2722.57,715.673 2714.9,720.321 C2702.35,727.991 2693.68,731.826 2688.87,731.826 C2681.2,731.826 2677.37,728.805 2677.37,722.762 C2677.37,722.607 2682.67,704.827 2693.29,669.421 C2699.72,648.116 2703.63,634.248 2705.03,627.818 C2705.26,626.578 2706.85,625.958 2709.79,625.958"/>
<path class="Note" d="M3297.24,836.499 C3299.65,836.499 3301.39,837.002 3302.47,838.01 C3303.71,839.094 3304.33,840.682 3304.33,842.774 C3304.33,845.408 3303.17,847.655 3300.85,849.514 C3290.78,856.642 3280.43,865.707 3269.82,876.708 C3272.22,887.322 3275.16,895.185 3278.65,900.299 C3283.22,907.039 3286.36,910.409 3288.06,910.409 C3289.61,910.409 3291.28,909.441 3293.06,907.504 C3294.3,906.187 3295.5,905.528 3296.66,905.528 C3299.14,905.528 3300.38,906.845 3300.38,909.479 C3300.38,912.268 3298.17,916.065 3293.76,920.868 C3291.36,923.347 3288.84,924.587 3286.2,924.587 C3280.78,924.587 3275.32,919.512 3269.82,909.363 C3264.24,899.137 3260.41,889.491 3258.31,880.427 C3254.44,892.358 3252.5,899.679 3252.5,902.39 C3252.5,907.736 3249.44,910.409 3243.32,910.409 C3239.99,910.409 3238.33,907.31 3238.33,901.112 C3238.33,898.168 3242.01,884.998 3249.37,861.6 C3253.01,850.134 3255.99,842.116 3258.31,837.545 C3258.86,836.615 3260.25,836.15 3262.5,836.15 C3265.13,836.15 3266.95,836.693 3267.96,837.777 C3268.97,838.862 3269.47,841.109 3269.47,844.517 C3269.47,846.222 3267.8,852.11 3264.47,862.181 C3272.76,854.047 3282.1,846.106 3292.48,838.358 C3294.11,837.119 3295.7,836.499 3297.24,836.499"/>
<path class="Note" d="M3270.86,536.667 C3273.34,536.667 3275.05,537.287 3275.98,538.526 C3277.37,540.618 3278.07,543.562 3278.07,547.358 C3278.07,551.774 3274.97,562.349 3268.77,579.084 C3258.62,607.517 3253.55,622.585 3253.55,624.29 C3253.55,628.861 3255.37,631.185 3259.01,631.263 C3260.56,631.263 3264.51,628.861 3270.86,624.057 C3277.14,619.486 3281.98,617.201 3285.39,617.201 C3286.79,617.201 3287.48,618.053 3287.48,619.758 C3287.48,622.624 3283.65,626.382 3275.98,631.03 C3263.43,638.7 3254.75,642.535 3249.95,642.535 C3242.28,642.535 3238.44,639.513 3238.44,633.471 C3238.44,633.316 3243.75,615.535 3254.36,580.13 C3260.79,558.824 3264.71,544.957 3266.1,538.526 C3266.33,537.287 3267.92,536.667 3270.86,536.667"/>
<path class="Note" d="M3265.64,487.584 C3269.43,487.584 3271.33,490.49 3271.33,496.3 C3271.33,500.484 3269.35,505.287 3265.4,510.71 C3261.92,515.591 3260.17,523.145 3260.17,533.372 C3260.17,538.252 3261.45,541.506 3264.01,543.133 C3265.79,544.373 3269.12,545.031 3274,545.109 C3279.27,545.109 3286.75,542.436 3296.43,537.09 L3298.29,538.95 C3295.81,542.126 3292.83,544.993 3289.34,547.549 C3284.15,551.346 3278.84,553.244 3273.42,553.244 C3265.6,553.244 3259.67,552.12 3255.64,549.874 C3250.61,547.084 3248.09,543.598 3248.09,539.415 C3248.09,527.871 3249.56,515.824 3252.5,503.273 C3253.59,498.702 3255.95,494.518 3259.59,490.722 C3261.68,488.63 3263.7,487.584 3265.64,487.584"/>
<path class="Note" d="M3265.64,666.167 C3269.43,666.167 3271.33,669.072 3271.33,674.883 C3271.33,679.067 3269.35,683.87 3265.4,689.293 C3261.92,694.174 3260.17,701.728 3260.17,711.954 C3260.17,716.835 3261.45,720.089 3264.01,721.716 C3265.79,722.956 3269.12,723.614 3274,723.692 C3279.27,723.692 3286.75,721.019 3296.43,715.673 L3298.29,717.532 C3295.81,720.709 3292.83,723.575 3289.34,726.132 C3284.15,729.928 3278.84,731.826 3273.42,731.826 C3265.6,731.826 3259.67,730.703 3255.64,728.456 C3250.61,725.667 3248.09,722.181 3248.09,717.997 C3248.09,706.454 3249.56,694.406 3252.5,681.856 C3253.59,677.285 3255.95,673.101 3259.59,669.305 C3261.68,667.213 3263.7,666.167 3265.64,666.167"/>
<path class="Note" d="M3755.28,804.541 C3757.76,804.541 3759.46,805.161 3760.39,806.4 C3761.79,808.492 3762.48,811.436 3762.48,815.232 C3762.48,819.648 3759.39,830.223 3753.19,846.958 C3743.04,875.391 3737.96,890.459 3737.96,892.164 C3737.96,896.735 3739.78,899.059 3743.43,899.137 C3744.98,899.137 3748.93,896.735 3755.28,891.931 C3761.55,887.36 3766.4,885.075 3769.81,885.075 C3771.2,885.075 3771.9,885.927 3771.9,887.632 C3771.9,890.498 3768.06,894.256 3760.39,898.904 C3747.84,906.574 3739.16,910.409 3734.36,910.409 C3726.69,910.409 3722.86,907.388 3722.86,901.345 C3722.86,901.19 3728.16,883.409 3738.78,848.004 C3745.21,826.698 3749.12,812.831 3750.51,806.4 C3750.75,805.161 3752.34,804.541 3755.28,804.541"/>
<path class="Note" d="M3750.05,576.876 C3753.85,576.876 3755.74,579.781 3755.74,585.592 C3755.74,589.775 3753.77,594.579 3749.82,600.002 C3746.33,604.883 3744.59,612.436 3744.59,622.663 C3744.59,627.544 3745.87,630.798 3748.42,632.425 C3750.2,633.664 3753.54,634.323 3758.42,634.4 C3763.69,634.4 3771.16,631.727 3780.85,626.382 L3782.71,628.241 C3780.23,631.417 3777.24,634.284 3773.76,636.841 C3768.57,640.637 3763.26,642.535 3757.84,642.535 C3750.01,642.535 3744.08,641.412 3740.06,639.165 C3735.02,636.376 3732.5,632.889 3732.5,628.706 C3732.5,617.162 3733.97,605.115 3736.92,592.564 C3738,587.993 3740.37,583.81 3744.01,580.013 C3746.1,577.922 3748.11,576.876 3750.05,576.876"/>
<path class="Note" d="M3781.66,747.207 C3784.06,747.207 3785.8,747.711 3786.89,748.718 C3788.13,749.803 3788.75,751.391 3788.75,753.483 C3788.75,756.117 3787.59,758.364 3785.26,760.223 C3775.19,767.351 3764.85,776.415 3754.23,787.416 C3756.64,798.03 3759.58,805.894 3763.07,811.007 C3767.64,817.748 3770.77,821.118 3772.48,821.118 C3774.03,821.118 3775.69,820.149 3777.48,818.212 C3778.72,816.895 3779.92,816.237 3781.08,816.237 C3783.56,816.237 3784.8,817.554 3784.8,820.188 C3784.8,822.977 3782.59,826.773 3778.17,831.577 C3775.77,834.056 3773.25,835.295 3770.62,835.295 C3765.2,835.295 3759.73,830.221 3754.23,820.072 C3748.66,809.845 3744.82,800.2 3742.73,791.135 C3738.85,803.066 3736.92,810.388 3736.92,813.099 C3736.92,818.445 3733.86,821.118 3727.74,821.118 C3724.41,821.118 3722.74,818.019 3722.74,811.821 C3722.74,808.877 3726.42,795.706 3733.78,772.309 C3737.42,760.843 3740.4,752.824 3742.73,748.253 C3743.27,747.324 3744.67,746.859 3746.91,746.859 C3749.55,746.859 3751.37,747.401 3752.37,748.486 C3753.38,749.57 3753.88,751.817 3753.88,755.226 C3753.88,756.93 3752.22,762.818 3748.89,772.89 C3757.18,764.755 3766.51,756.814 3776.89,749.067 C3778.52,747.827 3780.11,747.207 3781.66,747.207"/>
<path class="Note" d="M3750.05,666.167 C3753.85,666.167 3755.74,669.072 3755.74,674.883 C3755.74,679.067 3753.77,683.87 3749.82,689.293 C3746.33,694.174 3744.59,701.728 3744.59,711.954 C3744.59,716.835 3745.87,720.089 3748.42,721.716 C3750.2,722.956 3753.54,723.614 3758.42,723.692 C3763.69,723.692 3771.16,721.019 3780.85,715.673 L3782.71,717.532 C3780.23,720.709 3777.24,723.575 3773.76,726.132 C3768.57,729.928 3763.26,731.826 3757.84,731.826 C3750.01,731.826 3744.08,730.703 3740.06,728.456 C3735.02,725.667 3732.5,722.181 3732.5,717.997 C3732.5,706.454 3733.97,694.406 3736.92,681.856 C3738,677.285 3740.37,673.101 3744.01,669.305 C3746.1,667.213 3748.11,666.167 3750.05,666.167"/>
<path class="Clef" transform="matrix(2.3811,0,0,2.3811,212.156,2247.41)" d="M25.4,-25.1 C17.8,-25.1 11.7,-20.7 11.6,-20.7 C5.8,-16.4 3.5,-11.3 2.6,-7.8 C2.1,-6 1.9,-4.2 1.9,-2.5 C1.9,-0.1 2.3,2.1 3.2,4 C4.4,6.7 6.7,8.6 9.7,9.6 C10.9,10 12.2,10.2 13.5,10.2 C15.7,10.2 18,9.6 19.9,8.5 C23,6.8 24.9,3.2 24.9,-0.7 C24.9,-4.2 23.1,-7.4 20.1,-9.3 C18,-10.7 16,-11.1 14.3,-11.1 C13.1,-11.1 12,-10.9 11.1,-10.6 C10.1,-10.2 8.4,-9.2 7.6,-8.5 C7.9,-10.4 9.1,-13.3 10.2,-14.9 C11.3,-16.5 13.5,-18.5 15.2,-19.4 C17.7,-20.8 20.9,-21.4 24.4,-21.4 C34.6,-21.4 39.6,-13.2 39.6,3.6 C39.6,12.9 36.1,21.8 33.1,27.7 C29.8,34.3 25.4,40.6 21.5,44.1 C11.1,53.6 1.3,58.1 1.2,58.1 C1.2,58.1 -0.3,59 0.1,60.5 C0.4,61.5 1.3,61.7 1.9,61.7 C2,61.7 2.3,61.6 2.4,61.6 C2.5,61.6 13.9,56.9 23,49.8 C28.1,46.1 32.7,42.1 36.7,37.8 C40.3,33.9 43.4,29.7 45.9,25.5 C50.3,18 52.8,10.2 52.8,3.5 C52.8,-4.8 50.6,-11.7 46.5,-16.6 C41.8,-22.2 34.7,-25.1 25.4,-25.1 M56.8,-12.4 C56.8,-9.6 59,-7.4 61.6,-7.4 C64.2,-7.4 66.4,-9.6 66.4,-12.4 C66.4,-15.2 64.2,-17.5 61.6,-17.5 C59,-17.5 56.8,-15.2 56.8,-12.4 M56.8,12.3 C56.8,15.1 59,17.4 61.6,17.4 C64.2,17.4 66.4,15.1 66.4,12.3 C66.4,9.5 64.2,7.2 61.6,7.2 C59,7.2 56.8,9.5 56.8,12.3"/>
<path class="Clef" transform="matrix(2.3811,0,0,2.3811,212.156,1570.39)" d="M63.37,-5.89004 C62.14,-11.32 59.5,-15.14 58.72,-16.1801 C55.5301,-20.45 51.52,-23.3 46.8301,-24.65 C43.72,-25.54 40.72,-25.65 38.3,-25.47 C37.2601,-31.4801 36.2601,-37.3601 35.35,-42.8101 C40.79,-48.97 44.42,-54.77 46.69,-59.07 C50.1601,-65.65 51.3101,-70.2301 51.3601,-70.4301 C53.0801,-75.64 53.44,-83.34 52.34,-91.55 C51.3301,-99.1 49.24,-105.81 46.89,-109.06 C45.8601,-110.49 44.8101,-111.22 43.77,-111.22 C42.55,-111.22 40.04,-109.98 37.15,-107.21 C34.85,-105.01 31.5801,-101.12 29.02,-95.1101 C26.02,-88.05 25.8101,-78.5601 26.1601,-71.84 C26.54,-64.57 27.65,-58.8801 27.6601,-58.8301 C27.6801,-58.74 27.94,-57.24 28.39,-54.67 C28.1601,-54.44 27.92,-54.22 27.67,-53.9801 C26.6301,-52.9801 25.44,-51.84 24.0601,-50.4601 C23.2,-49.6 22.25,-48.69 21.25,-47.72 C12.79,-39.57 0,-27.25 0,-8.1 C0,-3.4 0.9,1.01992 2.68008,5.02998 C4.27002,8.62998 6.57002,11.91 9.5,14.78 C17.2301,22.33 27.82,25.5399 34.8801,25.38 C37.8301,25.31 40.4601,25.0699 42.85,24.6199 C44.6801,34.2199 45.82,41.25 45.8601,46.5899 C45.9,53.1 44.25,57.0699 40.35,59.8399 C37.92,61.5699 35.1101,62.5199 32.0101,62.6699 C29.42,62.7899 27.1601,62.3199 25.7301,61.91 L25.72,61.91 C25.72,61.91 25.4301,61.83 25.42,61.63 C25.4101,61.45 25.7601,61.4 25.77,61.4 L25.79,61.4 C27.7101,60.96 31.2801,59.73 33.64,56.43 C35.44,53.91 36.3101,49.2899 34.47,45.35 C33.3601,42.96 30.85,40.01 25.2301,39.56 C22.74,39.36 20.47,39.8699 18.47,41.0699 C16.6601,42.15 15.1601,43.7899 14.1101,45.7899 C11.65,50.4899 12.1101,56.2199 15.24,60.06 C18.2,63.68 22.82,65.9899 28.25,66.5699 C29.1,66.66 29.95,66.7 30.8,66.7 C31.5101,66.7 32.22,66.6699 32.92,66.61 C31.72,66.9399 30.64,67.4899 29.77,68.25 C28.2801,69.5399 27.44,71.38 27.44,73.41 C27.44,75.28 28.0601,76.65 29.55,78.0399 C28.4101,78.5 27.55,78.98 26.79,79.56 C25.25,80.73 24.34,82.46 24.34,84.1899 C24.34,87.45 27.3,89.63 31.72,89.63 C37.1301,89.63 40.9101,86.63 40.9101,82.35 C40.9101,80.1199 39.9101,78.18 38.0801,76.83 C41.0101,75.6199 42.37,73.9399 42.37,71.56 C42.39,70.05 41.69,68.61 40.49,67.6899 C39.2801,66.7399 37.62,66.2399 35.69,66.2399 L35.5101,66.2399 C38.2801,65.7 40.92,64.7 43.2101,63.28 C46.87,60.71 48.99,56.73 49.67,51.1 C50.2301,46.46 49.84,40.55 48.44,32.48 C48.0801,30.3899 47.54,27.36 46.8801,23.6 C52.6301,21.68 56.79,18.11 60.5601,12.26 C63.85,6.51992 64.8,0.419922 63.37,-5.89004 M32.39,87.5399 C30.19,87.5399 28.7301,86.1199 28.7301,84.01 C28.7301,82.11 29.65,80.5 31.32,79.4699 C31.6801,79.66 31.77,79.71 32.1101,79.88 C33.3,80.48 33.3,80.48 33.55,80.63 L33.5601,80.6399 C35.47,81.73 36.25,82.76 36.25,84.18 C36.24,86.0899 34.59,87.5399 32.39,87.5399 M38.3101,71.63 C38.3101,73.2699 37.7301,74.3399 36.1801,75.53 C34.74,74.78 34.35,74.56 33.9801,74.3399 L33.8801,74.28 C32.3301,73.3399 31.85,72.66 31.85,71.4 C31.85,69.6 33.2301,68.3399 35.19,68.3399 C37.17,68.35 38.3101,69.55 38.3101,71.63 M33.15,-83.8101 C34.9301,-89.55 37.67,-92.8 39.6601,-94.5301 C41.4101,-96.05 43.0601,-96.7601 43.9801,-96.7601 C44.12,-96.7601 44.24,-96.74 44.34,-96.7101 C44.8,-96.57 45.3301,-96 45.8,-95.1301 C48.1101,-90.84 47.37,-84.1301 46.0301,-79.69 C44.4,-74.29 41.4801,-68.6801 32.69,-59.0601 C32.52,-60.17 32.3601,-61.22 32.2101,-62.2 C30.95,-70.49 31.27,-77.7601 33.15,-83.8101 M29.15,20.31 C24.5101,19.0899 20.0801,16.5899 16.32,13.0899 C15.0101,11.86 13.14,9.68994 11.67,6.3 C10.3101,3.13994 9.65,-0.290039 9.7,-3.88008 C9.77002,-8.57002 11.0801,-13.39 13.59,-18.1801 C16.5101,-23.7601 21.07,-29.29 27.1301,-34.62 C28.5801,-35.9 29.95,-37.1801 31.24,-38.4601 C32,-34.2 32.8301,-29.5101 33.7101,-24.6301 C29.8601,-23.3601 25.1101,-20.2101 22,-14.5601 C18.47,-7.99004 18.6101,-2.47002 19.34,1.00996 C20.2801,5.46992 22.8101,9.22998 26.27,11.3199 C27.2,11.88 31.3301,14.01 33.17,13.43 C33.54,13.31 33.8101,13.0899 33.95,12.76 C34.4601,11.5899 33.44,10.95 31.8801,9.98994 C31.2801,9.61992 30.6101,9.2 29.8801,8.66992 C26.5601,6.17998 25.1101,1.72998 26.1801,-2.65 C26.7601,-5.05 28.04,-7.21006 29.8801,-8.91006 C31.55,-10.4601 33.59,-11.5601 35.97,-12.2 C38.0101,-0.960059 40.07,10.1899 41.7101,18.55 C41.84,19.2399 41.9801,19.91 42.1101,20.58 C37.7101,21.51 33.37,21.4199 29.15,20.31 M54.9,10.1 C53.7301,13.28 51.27,17.35 46.14,19.41 C46.07,18.9899 45.99,18.56 45.9101,18.13 C44.3601,9.36992 42.4301,-1.61006 40.47,-12.87 C50.82,-13.35 55.09,-5.91006 55.9801,-1.08008 C56.45,1.45 56.45,5.88994 54.9,10.1"/>
<path class="FiguredBass" d="M668.106,2615.45 C667.426,2616.2 666.529,2616.57 665.415,2616.57 C664.302,2616.57 663.39,2616.18 662.679,2615.41 C661.967,2614.64 661.612,2613.75 661.612,2612.76 L661.612,2599.5 L648.345,2599.5 C647.232,2599.5 646.32,2599.11 645.608,2598.34 C644.897,2597.56 644.541,2596.68 644.541,2595.69 C644.541,2594.7 644.897,2593.82 645.608,2593.05 C646.32,2592.28 647.232,2591.89 648.345,2591.89 L661.612,2591.89 L661.612,2578.62 C661.612,2577.63 661.967,2576.75 662.679,2575.98 C663.39,2575.21 664.302,2574.82 665.415,2574.82 C666.529,2574.82 667.441,2575.21 668.152,2575.98 C668.864,2576.75 669.219,2577.63 669.219,2578.62 L669.219,2591.89 L682.486,2591.89 C683.599,2591.89 684.511,2592.28 685.223,2593.05 C685.934,2593.82 686.29,2594.7 686.29,2595.69 C686.29,2596.68 685.934,2597.56 685.223,2598.34 C684.511,2599.11 683.599,2599.5 682.486,2599.5 L669.219,2599.5 L669.219,2612.76 C669.219,2613.75 668.848,2614.65 668.106,2615.45 M721.53,2561.18 C716.953,2561.18 713.907,2563.02 712.392,2566.7 C710.876,2570.38 710.119,2575.59 710.119,2582.33 L710.119,2593.28 C713.335,2591.98 716.118,2591.3 718.468,2591.24 C726.509,2591.24 732.833,2593.02 737.44,2596.58 C742.048,2600.13 744.352,2605.42 744.352,2612.44 C744.352,2619.46 742.017,2624.76 737.348,2628.35 C732.678,2631.94 726.385,2633.73 718.468,2633.73 C710.366,2633.73 704.026,2629.97 699.45,2622.46 C694.873,2614.94 692.584,2606.02 692.584,2595.69 C692.584,2585.43 695.244,2576.52 700.563,2568.98 C705.882,2561.43 712.871,2557.66 721.53,2557.66 C727.22,2557.66 732.137,2559.09 736.281,2561.97 C740.425,2564.85 742.497,2568.63 742.497,2573.34 C742.497,2576.06 741.507,2578.41 739.528,2580.39 C737.549,2582.37 735.183,2583.35 732.431,2583.35 C729.678,2583.35 727.313,2582.37 725.333,2580.39 C723.354,2578.41 722.365,2576.06 722.365,2573.34 C722.365,2570.68 723.354,2568.33 725.333,2566.28 C726.014,2565.48 726.972,2564.8 728.209,2564.24 C727.9,2563.44 727.282,2562.82 726.354,2562.39 C724.993,2561.58 723.385,2561.18 721.53,2561.18 M726.076,2599.13 C724.962,2596.22 722.519,2594.77 718.747,2594.77 C714.974,2594.77 712.639,2596.22 711.742,2599.13 C710.845,2602.03 710.397,2606.46 710.397,2612.39 C710.397,2619.38 710.845,2624.08 711.742,2626.49 C712.639,2628.91 714.974,2630.11 718.747,2630.11 C722.519,2630.11 724.962,2628.66 726.076,2625.75 C727.189,2622.85 727.746,2618.41 727.746,2612.44 C727.746,2606.47 727.189,2602.03 726.076,2599.13"/>
<path class="FiguredBass" d="M2705.58,2633.73 C2699.58,2633.73 2695.22,2632.06 2692.5,2628.72 C2691.51,2627.48 2690.24,2626.34 2688.69,2625.29 C2687.15,2624.24 2685.44,2623.71 2683.59,2623.71 C2681.18,2623.71 2679.01,2624.47 2677.1,2625.98 C2675.18,2627.5 2674.22,2629.53 2674.22,2632.06 C2674.22,2633.17 2673.66,2633.73 2672.55,2633.73 C2671.31,2633.73 2670.69,2633.17 2670.69,2632.06 C2670.69,2628.29 2671.58,2624.84 2673.34,2621.72 C2675.1,2618.59 2677.31,2615.96 2679.97,2613.83 C2682.63,2611.7 2685.51,2609.41 2688.6,2606.97 C2691.69,2604.52 2694.55,2602.16 2697.18,2599.87 C2699.81,2597.58 2702,2594.69 2703.77,2591.19 C2705.53,2587.7 2706.41,2583.88 2706.41,2579.74 C2706.41,2574.54 2705.56,2570.15 2703.86,2566.56 C2702.16,2562.98 2699.48,2561.18 2695.84,2561.18 C2693.73,2561.18 2691.91,2561.69 2690.36,2562.71 C2688.82,2563.73 2688.04,2565.08 2688.04,2566.75 C2688.04,2568.05 2688.92,2569.75 2690.69,2571.85 C2692.45,2573.95 2693.33,2575.72 2693.33,2577.14 C2693.33,2580.11 2692.33,2582.6 2690.32,2584.61 C2688.31,2586.62 2685.88,2587.62 2683.03,2587.62 C2680.06,2587.62 2677.57,2586.59 2675.56,2584.51 C2673.55,2582.44 2672.55,2579.98 2672.55,2577.14 C2672.55,2571.45 2674.82,2566.78 2679.37,2563.13 C2683.91,2559.48 2689.4,2557.66 2695.84,2557.66 C2703.44,2557.66 2710.08,2559.71 2715.74,2563.83 C2721.39,2567.94 2724.22,2573.24 2724.22,2579.74 C2724.22,2584.13 2723.44,2587.93 2721.86,2591.15 C2720.28,2594.36 2718.02,2596.96 2715.09,2598.94 C2712.15,2600.92 2709.21,2602.61 2706.27,2604 C2703.33,2605.39 2699.89,2606.89 2695.93,2608.5 C2691.97,2610.1 2688.78,2611.68 2686.37,2613.23 C2687.67,2612.92 2689,2612.76 2690.36,2612.76 C2694.94,2612.76 2699.7,2614.25 2704.65,2617.22 C2709.6,2620.19 2713.49,2621.67 2716.34,2621.67 C2717.95,2621.67 2719.26,2621.38 2720.28,2620.79 C2721.3,2620.2 2721.97,2619.55 2722.28,2618.84 C2722.59,2618.13 2722.94,2617.46 2723.34,2616.85 C2723.74,2616.23 2724.19,2615.92 2724.69,2615.92 C2725.93,2615.92 2726.54,2616.54 2726.54,2617.77 C2726.54,2620.43 2724.63,2623.76 2720.79,2627.75 C2716.96,2631.74 2711.89,2633.73 2705.58,2633.73"/>
<path class="FiguredBass" d="M3262.48,2561.18 C3257.9,2561.18 3254.85,2563.02 3253.34,2566.7 C3251.82,2570.38 3251.07,2575.59 3251.07,2582.33 L3251.07,2593.28 C3254.28,2591.98 3257.06,2591.3 3259.42,2591.24 C3267.46,2591.24 3273.78,2593.02 3278.39,2596.58 C3283,2600.13 3285.3,2605.42 3285.3,2612.44 C3285.3,2619.46 3282.96,2624.76 3278.29,2628.35 C3273.62,2631.94 3267.33,2633.73 3259.42,2633.73 C3251.31,2633.73 3244.97,2629.97 3240.4,2622.46 C3235.82,2614.94 3233.53,2606.02 3233.53,2595.69 C3233.53,2585.43 3236.19,2576.52 3241.51,2568.98 C3246.83,2561.43 3253.82,2557.66 3262.48,2557.66 C3268.17,2557.66 3273.08,2559.09 3277.23,2561.97 C3281.37,2564.85 3283.44,2568.63 3283.44,2573.34 C3283.44,2576.06 3282.45,2578.41 3280.47,2580.39 C3278.5,2582.37 3276.13,2583.35 3273.38,2583.35 C3270.63,2583.35 3268.26,2582.37 3266.28,2580.39 C3264.3,2578.41 3263.31,2576.06 3263.31,2573.34 C3263.31,2570.68 3264.3,2568.33 3266.28,2566.28 C3266.96,2565.48 3267.92,2564.8 3269.16,2564.24 C3268.85,2563.44 3268.23,2562.82 3267.3,2562.39 C3265.94,2561.58 3264.33,2561.18 3262.48,2561.18 M3267.02,2599.13 C3265.91,2596.22 3263.47,2594.77 3259.69,2594.77 C3255.92,2594.77 3253.59,2596.22 3252.69,2599.13 C3251.79,2602.03 3251.34,2606.46 3251.34,2612.39 C3251.34,2619.38 3251.79,2624.08 3252.69,2626.49 C3253.59,2628.91 3255.92,2630.11 3259.69,2630.11 C3263.47,2630.11 3265.91,2628.66 3267.02,2625.75 C3268.14,2622.85 3268.69,2618.41 3268.69,2612.44 C3268.69,2606.47 3268.14,2602.03 3267.02,2599.13"/>
<path class="FiguredBass" d="M3239.84,2663.41 L3244.29,2664.06 C3245.47,2664.24 3246.92,2664.43 3248.65,2664.61 C3252.92,2665.11 3257.03,2665.35 3260.99,2665.35 C3264.95,2665.35 3269.13,2665.11 3273.52,2664.61 C3275.25,2664.43 3276.76,2664.24 3278.06,2664.06 L3282.61,2663.41 C3283.54,2663.41 3284.25,2663.72 3284.74,2664.33 C3285.11,2664.83 3285.05,2665.32 3284.56,2665.82 C3274.91,2675.28 3261.58,2680.01 3244.57,2680.01 C3243.89,2680.01 3243.29,2680.26 3242.76,2680.76 C3242.24,2681.25 3241.97,2681.87 3241.97,2682.61 L3241.97,2694.39 C3246.37,2690.06 3251.68,2687.9 3257.93,2687.9 C3266.65,2687.9 3273.45,2689.94 3278.34,2694.02 C3283.66,2690 3286.44,2684.87 3286.69,2678.62 C3286.75,2676.64 3287.4,2675.03 3288.64,2673.8 C3290,2672.56 3291.64,2671.94 3293.56,2671.94 C3295.47,2671.94 3297.1,2672.59 3298.43,2673.89 C3299.76,2675.19 3300.42,2676.77 3300.42,2678.62 C3300.42,2688.21 3294.76,2695.48 3283.44,2700.42 C3285.3,2704.07 3286.23,2708.53 3286.23,2713.78 C3286.23,2720.77 3283.44,2726.8 3277.88,2731.87 C3272.31,2736.95 3265.66,2739.48 3257.93,2739.48 C3251.25,2739.48 3245.45,2737.97 3240.54,2734.94 C3235.62,2731.9 3233.16,2727.7 3233.16,2722.32 C3233.16,2719.6 3234.15,2717.23 3236.13,2715.22 C3238.11,2713.21 3240.47,2712.21 3243.23,2712.21 C3245.98,2712.21 3248.31,2713.2 3250.23,2715.17 C3252.15,2717.15 3253.11,2719.53 3253.11,2722.32 C3253.11,2723.55 3252.09,2724.9 3250.05,2726.35 C3248,2727.81 3246.98,2729.15 3246.98,2730.39 C3246.98,2734.1 3250.63,2735.96 3257.93,2735.96 C3265.04,2735.96 3268.6,2728.56 3268.6,2713.78 C3268.6,2710.5 3268.41,2707.63 3268.04,2705.15 C3260.56,2706.7 3251.19,2707.91 3239.93,2708.77 C3238.39,2708.9 3237.61,2708.12 3237.61,2706.45 C3237.61,2705.09 3238.39,2704.35 3239.93,2704.23 C3251.31,2703.3 3260.28,2701.81 3266.84,2699.77 C3265.11,2694.83 3262.14,2692.32 3257.93,2692.26 C3251.56,2692.26 3247.11,2693.56 3244.57,2696.16 C3242.04,2698.75 3240.46,2700.05 3239.84,2700.05 C3238.36,2700.05 3237.61,2699.28 3237.61,2697.73 L3237.61,2665.82 C3237.61,2665.2 3237.83,2664.64 3238.26,2664.15 C3238.76,2663.65 3239.28,2663.41 3239.84,2663.41"/>
<path class="FiguredBass" d="M721.53,1765.11 C716.953,1765.11 713.907,1766.95 712.392,1770.63 C710.876,1774.31 710.119,1779.52 710.119,1786.26 L710.119,1797.21 C713.335,1795.91 716.118,1795.23 718.468,1795.17 C726.509,1795.17 732.833,1796.94 737.44,1800.5 C742.048,1804.06 744.352,1809.34 744.352,1816.36 C744.352,1823.38 742.017,1828.69 737.348,1832.28 C732.678,1835.86 726.385,1837.66 718.468,1837.66 C710.366,1837.66 704.026,1833.9 699.45,1826.38 C694.873,1818.87 692.584,1809.95 692.584,1799.62 C692.584,1789.35 695.244,1780.45 700.563,1772.9 C705.882,1765.35 712.871,1761.58 721.53,1761.58 C727.22,1761.58 732.137,1763.02 736.281,1765.9 C740.425,1768.77 742.497,1772.56 742.497,1777.26 C742.497,1779.98 741.507,1782.33 739.528,1784.31 C737.549,1786.29 735.183,1787.28 732.431,1787.28 C729.678,1787.28 727.313,1786.29 725.333,1784.31 C723.354,1782.33 722.365,1779.98 722.365,1777.26 C722.365,1774.6 723.354,1772.25 725.333,1770.21 C726.014,1769.41 726.972,1768.73 728.209,1768.17 C727.9,1767.36 727.282,1766.75 726.354,1766.31 C724.993,1765.51 723.385,1765.11 721.53,1765.11 M726.076,1803.05 C724.962,1800.14 722.519,1798.69 718.747,1798.69 C714.974,1798.69 712.639,1800.14 711.742,1803.05 C710.845,1805.96 710.397,1810.38 710.397,1816.32 C710.397,1823.31 710.845,1828.01 711.742,1830.42 C712.639,1832.83 714.974,1834.04 718.747,1834.04 C722.519,1834.04 724.962,1832.58 726.076,1829.68 C727.189,1826.77 727.746,1822.33 727.746,1816.36 C727.746,1810.4 727.189,1805.96 726.076,1803.05"/>
<path class="FiguredBass" d="M720.88,1869.28 C723.231,1869.28 725.705,1868.94 728.302,1868.26 L732.477,1867.15 C733.281,1867.15 733.915,1867.46 734.379,1868.07 C734.843,1868.69 734.796,1869.25 734.24,1869.74 L691.1,1919.93 L716.427,1919.93 L716.427,1900.08 C716.427,1898.66 716.814,1897.56 717.587,1896.79 C718.36,1896.01 719.35,1895.4 720.556,1894.93 C721.762,1894.47 723.339,1893.09 725.287,1890.8 C727.235,1888.52 729.106,1885.42 730.9,1881.53 C731.209,1880.91 731.673,1880.6 732.291,1880.6 C733.59,1880.6 734.24,1881.31 734.24,1882.73 L734.24,1919.93 L745.187,1919.93 C746.733,1919.93 747.506,1920.65 747.506,1922.07 C747.506,1923.61 746.733,1924.39 745.187,1924.39 L734.24,1924.39 L734.24,1925.59 C734.24,1929.43 735.26,1932.77 737.301,1935.61 C739.342,1938.46 741.971,1939.88 745.187,1939.88 C746.424,1939.88 747.042,1940.44 747.042,1941.55 C747.042,1942.79 746.424,1943.41 745.187,1943.41 C742.96,1943.41 739.651,1943.08 735.26,1942.43 C730.869,1941.78 727.545,1941.46 725.287,1941.46 C723.03,1941.46 719.705,1941.78 715.314,1942.43 C710.923,1943.08 707.614,1943.41 705.387,1943.41 C704.15,1943.41 703.532,1942.79 703.532,1941.55 C703.532,1940.44 704.15,1939.88 705.387,1939.88 C708.603,1939.88 711.247,1938.46 713.319,1935.61 C715.391,1932.77 716.427,1929.43 716.427,1925.59 L716.427,1924.39 L691.1,1924.39 C689.492,1924.39 688.301,1924 687.528,1923.23 C686.755,1922.45 686.369,1921.67 686.369,1920.86 C686.369,1920.55 687.095,1919.49 688.549,1917.66 C690.002,1915.84 691.78,1913.41 693.883,1910.38 C695.986,1907.35 698.074,1903.9 700.145,1900.03 C702.217,1896.17 703.98,1891.53 705.434,1886.12 C706.887,1880.71 707.614,1875.25 707.614,1869.74 C707.614,1868.14 708.294,1867.33 709.655,1867.33 C709.84,1867.33 710.49,1867.49 711.603,1867.8 C712.716,1868.11 714.139,1868.43 715.871,1868.77 C717.602,1869.11 719.272,1869.28 720.88,1869.28"/>
<path class="FiguredBass" d="M733.405,2008.8 C733.405,2009.79 733.961,2010.75 735.075,2011.68 C736.188,2012.6 737.409,2013.48 738.739,2014.32 C740.069,2015.15 741.29,2016.73 742.404,2019.05 C743.517,2021.37 744.074,2024.29 744.074,2027.82 C744.074,2034.62 741.507,2039.88 736.373,2043.59 C731.24,2047.3 724.746,2049.16 716.891,2049.16 C710.582,2049.16 705.093,2047.58 700.424,2044.42 C695.754,2041.27 693.419,2037.13 693.419,2031.99 C693.419,2029.27 694.409,2026.91 696.388,2024.9 C698.367,2022.89 700.733,2021.88 703.485,2021.88 C706.238,2021.88 708.572,2022.87 710.49,2024.85 C712.407,2026.83 713.366,2029.21 713.366,2031.99 C713.366,2033.23 712.345,2034.58 710.304,2036.03 C708.263,2037.48 707.243,2038.83 707.243,2040.06 C707.243,2041.98 708.186,2043.39 710.072,2044.29 C711.959,2045.18 714.232,2045.63 716.891,2045.63 C720.355,2045.63 722.813,2043.91 724.267,2040.48 C725.72,2037.05 726.447,2032.83 726.447,2027.82 L726.447,2025.41 C726.447,2022.07 726.339,2019.53 726.122,2017.8 C725.906,2016.07 725.225,2014.52 724.081,2013.16 C722.937,2011.8 721.19,2011.12 718.839,2011.12 L706.686,2011.12 C705.263,2011.12 704.552,2010.35 704.552,2008.8 C704.552,2007.38 705.263,2006.67 706.686,2006.67 L718.839,2006.67 C721.375,2006.67 723.354,2005.71 724.777,2003.79 C725.272,2003.11 725.674,2002 725.983,2000.45 C726.292,1998.41 726.447,1995.47 726.447,1991.64 L726.447,1990.43 C726.447,1981.22 723.045,1976.61 716.242,1976.61 C710.242,1976.61 707.243,1978.28 707.243,1981.62 C707.243,1982.73 708.155,1983.92 709.979,1985.19 C711.804,1986.46 712.716,1987.65 712.716,1988.76 C712.716,1991.17 711.866,1993.24 710.165,1994.98 C708.464,1996.71 706.392,1997.57 703.949,1997.57 C701.506,1997.57 699.45,1996.71 697.78,1994.98 C696.11,1993.24 695.275,1991.17 695.275,1988.76 C695.275,1984 697.347,1980.19 701.491,1977.35 C705.635,1974.5 710.552,1973.08 716.242,1973.08 C723.725,1973.08 729.879,1974.52 734.704,1977.4 C739.528,1980.27 741.94,1984.62 741.94,1990.43 C741.94,1994.57 741.507,1997.79 740.641,2000.08 C739.775,2002.37 738.786,2003.76 737.672,2004.25 C736.559,2004.75 735.569,2005.32 734.704,2005.97 C733.838,2006.62 733.405,2007.56 733.405,2008.8"/>
<path class="FiguredBass" d="M2701.4,1765.11 C2696.83,1765.11 2693.78,1766.95 2692.26,1770.63 C2690.75,1774.31 2689.99,1779.52 2689.99,1786.26 L2689.99,1797.21 C2693.21,1795.91 2695.99,1795.23 2698.34,1795.17 C2706.38,1795.17 2712.7,1796.94 2717.31,1800.5 C2721.92,1804.06 2724.22,1809.34 2724.22,1816.36 C2724.22,1823.38 2721.89,1828.69 2717.22,1832.28 C2712.55,1835.86 2706.26,1837.66 2698.34,1837.66 C2690.24,1837.66 2683.9,1833.9 2679.32,1826.38 C2674.74,1818.87 2672.46,1809.95 2672.46,1799.62 C2672.46,1789.35 2675.12,1780.45 2680.44,1772.9 C2685.75,1765.35 2692.74,1761.58 2701.4,1761.58 C2707.09,1761.58 2712.01,1763.02 2716.15,1765.9 C2720.3,1768.77 2722.37,1772.56 2722.37,1777.26 C2722.37,1779.98 2721.38,1782.33 2719.4,1784.31 C2717.42,1786.29 2715.06,1787.28 2712.3,1787.28 C2709.55,1787.28 2707.18,1786.29 2705.21,1784.31 C2703.23,1782.33 2702.24,1779.98 2702.24,1777.26 C2702.24,1774.6 2703.23,1772.25 2705.21,1770.21 C2705.89,1769.41 2706.84,1768.73 2708.08,1768.17 C2707.77,1767.36 2707.15,1766.75 2706.23,1766.31 C2704.87,1765.51 2703.26,1765.11 2701.4,1765.11 M2705.95,1803.05 C2704.83,1800.14 2702.39,1798.69 2698.62,1798.69 C2694.85,1798.69 2692.51,1800.14 2691.61,1803.05 C2690.72,1805.96 2690.27,1810.38 2690.27,1816.32 C2690.27,1823.31 2690.72,1828.01 2691.61,1830.42 C2692.51,1832.83 2694.85,1834.04 2698.62,1834.04 C2702.39,1834.04 2704.83,1832.58 2705.95,1829.68 C2707.06,1826.77 2707.62,1822.33 2707.62,1816.36 C2707.62,1810.4 2707.06,1805.96 2705.95,1803.05"/>
<path class="FiguredBass" d="M2700.75,1869.28 C2703.1,1869.28 2705.58,1868.94 2708.17,1868.26 L2712.35,1867.15 C2713.15,1867.15 2713.79,1867.46 2714.25,1868.07 C2714.71,1868.69 2714.67,1869.25 2714.11,1869.74 L2670.97,1919.93 L2696.3,1919.93 L2696.3,1900.08 C2696.3,1898.66 2696.69,1897.56 2697.46,1896.79 C2698.23,1896.01 2699.22,1895.4 2700.43,1894.93 C2701.63,1894.47 2703.21,1893.09 2705.16,1890.8 C2707.11,1888.52 2708.98,1885.42 2710.77,1881.53 C2711.08,1880.91 2711.55,1880.6 2712.16,1880.6 C2713.46,1880.6 2714.11,1881.31 2714.11,1882.73 L2714.11,1919.93 L2725.06,1919.93 C2726.61,1919.93 2727.38,1920.65 2727.38,1922.07 C2727.38,1923.61 2726.61,1924.39 2725.06,1924.39 L2714.11,1924.39 L2714.11,1925.59 C2714.11,1929.43 2715.13,1932.77 2717.17,1935.61 C2719.21,1938.46 2721.84,1939.88 2725.06,1939.88 C2726.3,1939.88 2726.91,1940.44 2726.91,1941.55 C2726.91,1942.79 2726.3,1943.41 2725.06,1943.41 C2722.83,1943.41 2719.52,1943.08 2715.13,1942.43 C2710.74,1941.78 2707.42,1941.46 2705.16,1941.46 C2702.9,1941.46 2699.58,1941.78 2695.19,1942.43 C2690.79,1943.08 2687.49,1943.41 2685.26,1943.41 C2684.02,1943.41 2683.4,1942.79 2683.4,1941.55 C2683.4,1940.44 2684.02,1939.88 2685.26,1939.88 C2688.48,1939.88 2691.12,1938.46 2693.19,1935.61 C2695.26,1932.77 2696.3,1929.43 2696.3,1925.59 L2696.3,1924.39 L2670.97,1924.39 C2669.36,1924.39 2668.17,1924 2667.4,1923.23 C2666.63,1922.45 2666.24,1921.67 2666.24,1920.86 C2666.24,1920.55 2666.97,1919.49 2668.42,1917.66 C2669.87,1915.84 2671.65,1913.41 2673.76,1910.38 C2675.86,1907.35 2677.95,1903.9 2680.02,1900.03 C2682.09,1896.17 2683.85,1891.53 2685.31,1886.12 C2686.76,1880.71 2687.49,1875.25 2687.49,1869.74 C2687.49,1868.14 2688.17,1867.33 2689.53,1867.33 C2689.71,1867.33 2690.36,1867.49 2691.48,1867.8 C2692.59,1868.11 2694.01,1868.43 2695.74,1868.77 C2697.47,1869.11 2699.14,1869.28 2700.75,1869.28"/>
<path class="FiguredBass" d="M2705.58,2049.16 C2699.58,2049.16 2695.22,2047.49 2692.5,2044.15 C2691.51,2042.91 2690.24,2041.77 2688.69,2040.71 C2687.15,2039.66 2685.44,2039.14 2683.59,2039.14 C2681.18,2039.14 2679.01,2039.89 2677.1,2041.41 C2675.18,2042.92 2674.22,2044.95 2674.22,2047.49 C2674.22,2048.6 2673.66,2049.16 2672.55,2049.16 C2671.31,2049.16 2670.69,2048.6 2670.69,2047.49 C2670.69,2043.71 2671.58,2040.27 2673.34,2037.14 C2675.1,2034.02 2677.31,2031.39 2679.97,2029.26 C2682.63,2027.12 2685.51,2024.83 2688.6,2022.39 C2691.69,2019.95 2694.55,2017.58 2697.18,2015.29 C2699.81,2013.01 2702,2010.11 2703.77,2006.62 C2705.53,2003.13 2706.41,1999.31 2706.41,1995.16 C2706.41,1989.97 2705.56,1985.58 2703.86,1981.99 C2702.16,1978.4 2699.48,1976.61 2695.84,1976.61 C2693.73,1976.61 2691.91,1977.12 2690.36,1978.14 C2688.82,1979.16 2688.04,1980.5 2688.04,1982.17 C2688.04,1983.47 2688.92,1985.17 2690.69,1987.28 C2692.45,1989.38 2693.33,1991.14 2693.33,1992.56 C2693.33,1995.53 2692.33,1998.02 2690.32,2000.03 C2688.31,2002.04 2685.88,2003.05 2683.03,2003.05 C2680.06,2003.05 2677.57,2002.01 2675.56,1999.94 C2673.55,1997.87 2672.55,1995.41 2672.55,1992.56 C2672.55,1986.87 2674.82,1982.2 2679.37,1978.56 C2683.91,1974.91 2689.4,1973.08 2695.84,1973.08 C2703.44,1973.08 2710.08,1975.14 2715.74,1979.25 C2721.39,1983.36 2724.22,1988.67 2724.22,1995.16 C2724.22,1999.55 2723.44,2003.36 2721.86,2006.57 C2720.28,2009.79 2718.02,2012.39 2715.09,2014.37 C2712.15,2016.35 2709.21,2018.03 2706.27,2019.42 C2703.33,2020.81 2699.89,2022.31 2695.93,2023.92 C2691.97,2025.53 2688.78,2027.11 2686.37,2028.65 C2687.67,2028.34 2689,2028.19 2690.36,2028.19 C2694.94,2028.19 2699.7,2029.67 2704.65,2032.64 C2709.6,2035.61 2713.49,2037.1 2716.34,2037.1 C2717.95,2037.1 2719.26,2036.8 2720.28,2036.21 C2721.3,2035.63 2721.97,2034.98 2722.28,2034.27 C2722.59,2033.55 2722.94,2032.89 2723.34,2032.27 C2723.74,2031.65 2724.19,2031.34 2724.69,2031.34 C2725.93,2031.34 2726.54,2031.96 2726.54,2033.2 C2726.54,2035.86 2724.63,2039.18 2720.79,2043.17 C2716.96,2047.16 2711.89,2049.16 2705.58,2049.16"/>
<polyline class="FretDiagram" stroke="#fc02ff" stroke-width="4.76" stroke-linejoin="bevel" points="617.91,227.452 831.019,227.452"/>
<polyline class="FretDiagram" stroke="#fc02ff" stroke-width="4.76" stroke-linejoin="bevel" points="620.292,215.547 620.292,441.751"/>
<polyline class="FretDiagram" stroke="#fc02ff" stroke-width="4.76" stroke-linejoin="bevel" points="661.961,215.547 661.961,441.751"/>
<polyline class="FretDiagram" stroke="#fc02ff" stroke-width="4.76" stroke-linejoin="bevel" points="703.63,215.547 703.63,441.751"/>
<polyline class="FretDiagram" stroke="#fc02ff" stroke-width="4.76" stroke-linejoin="bevel" points="745.299,215.547 745.299,441.751"/>
<polyline class="FretDiagram" stroke="#fc02ff" stroke-width="4.76" stroke-linejoin="bevel" points="786.969,215.547 786.969,441.751"/>
<polyline class="FretDiagram" stroke="#fc02ff" stroke-width="4.76" stroke-linejoin="bevel" points="828.638,215.547 828.638,441.751"/>
<polyline class="FretDiagram" stroke="#fc02ff" stroke-width="4.76" stroke-linejoin="bevel" points="620.292,275.074 828.638,275.074"/>
<polyline class="FretDiagram" stroke="#fc02ff" stroke-width="4.76" stroke-linejoin="bevel" points="620.292,322.696 828.638,322.696"/>
<polyline class="FretDiagram" stroke="#fc02ff" stroke-width="4.76" stroke-linejoin="bevel" points="620.292,370.318 828.638,370.318"/>
<polyline class="FretDiagram" stroke="#fc02ff" stroke-width="4.76" stroke-linejoin="bevel" points="620.292,417.94 828.638,417.94"/>
<path class="FretDiagram" fill="#fc02ff" fill-rule="evenodd" d="M801.553,298.885 C801.553,306.94 795.023,313.469 786.969,313.469 C778.914,313.469 772.385,306.94 772.385,298.885 C772.385,290.83 778.914,284.301 786.969,284.301 C795.023,284.301 801.553,290.83 801.553,298.885"/>
<polyline class="FretDiagram" fill="none" stroke="#fc02ff" stroke-width="6.86" stroke-linecap="round" stroke-linejoin="bevel" points="603.624,163.162 636.959,196.498"/>
<polyline class="FretDiagram" fill="none" stroke="#fc02ff" stroke-width="6.86" stroke-linecap="round" stroke-linejoin="bevel" points="603.624,196.498 636.959,163.162"/>
<path class="FretDiagram" fill="none" stroke="#fc02ff" stroke-width="6.86" stroke-linecap="round" stroke-linejoin="bevel" fill-rule="evenodd" d="M678.629,179.83 C678.629,189.035 671.166,196.498 661.961,196.498 C652.756,196.498 645.293,189.035 645.293,179.83 C645.293,170.625 652.756,163.162 661.961,163.162 C671.166,163.162 678.629,170.625 678.629,179.83"/>
<path class="FretDiagram" fill="none" stroke="#fc02ff" stroke-width="6.86" stroke-linecap="round" stroke-linejoin="bevel" fill-rule="evenodd" d="M720.298,179.83 C720.298,189.035 712.835,196.498 703.63,196.498 C694.425,196.498 686.962,189.035 686.962,179.83 C686.962,170.625 694.425,163.162 703.63,163.162 C712.835,163.162 720.298,170.625 720.298,179.83"/>
<path class="FretDiagram" fill="none" stroke="#fc02ff" stroke-width="6.86" stroke-linecap="round" stroke-linejoin="bevel" fill-rule="evenodd" d="M761.967,179.83 C761.967,189.035 754.505,196.498 745.299,196.498 C736.094,196.498 728.632,189.035 728.632,179.83 C728.632,170.625 736.094,163.162 745.299,163.162 C754.505,163.162 761.967,170.625 761.967,179.83"/>
<polyline class="FretDiagram" fill="none" stroke="#fc02ff" stroke-width="6.86" stroke-linecap="round" stroke-linejoin="bevel" points="811.97,163.162 845.306,196.498"/>
<polyline class="FretDiagram" fill="none" stroke="#fc02ff" stroke-width="6.86" stroke-linecap="round" stroke-linejoin="bevel" points="811.97,196.498 845.306,163.162"/>
<polyline class="FretDiagram" fill="none" stroke="#fc02ff" stroke-width="29.17" stroke-linecap="round" stroke-linejoin="bevel" points="661.961,251.263 828.638,251.263"/>
<path class="FretDiagram" fill="#fc02ff" d="M600.223,217.16 L600.223,224.19 C592.623,234.323 586.622,244.219 582.22,253.877 C577.819,263.535 574.7,273.748 572.863,284.515 L563.933,284.515 C566.466,273.431 569.696,263.678 573.623,255.255 C577.55,246.831 583.535,236.888 591.578,225.425 L555.193,225.425 L555.193,217.16 L600.223,217.16 "/>
<polyline class="FretDiagram" fill="#fc02ff" stroke="#fc02ff" stroke-width="4.76" stroke-linejoin="bevel" points="2597.78,227.452 2810.89,227.452"/>
<polyline class="FretDiagram" fill="#fc02ff" stroke="#fc02ff" stroke-width="4.76" stroke-linejoin="bevel" points="2600.16,215.547 2600.16,441.751"/>
<polyline class="FretDiagram" fill="#fc02ff" stroke="#fc02ff" stroke-width="4.76" stroke-linejoin="bevel" points="2641.83,215.547 2641.83,441.751"/>
<polyline class="FretDiagram" fill="#fc02ff" stroke="#fc02ff" stroke-width="4.76" stroke-linejoin="bevel" points="2683.5,215.547 2683.5,441.751"/>
<polyline class="FretDiagram" fill="#fc02ff" stroke="#fc02ff" stroke-width="4.76" stroke-linejoin="bevel" points="2725.17,215.547 2725.17,441.751"/>
<polyline class="FretDiagram" fill="#fc02ff" stroke="#fc02ff" stroke-width="4.76" stroke-linejoin="bevel" points="2766.84,215.547 2766.84,441.751"/>
<polyline class="FretDiagram" fill="#fc02ff" stroke="#fc02ff" stroke-width="4.76" stroke-linejoin="bevel" points="2808.51,215.547 2808.51,441.751"/>
<polyline class="FretDiagram" fill="#fc02ff" stroke="#fc02ff" stroke-width="4.76" stroke-linejoin="bevel" points="2600.16,275.074 2808.51,275.074"/>
<polyline class="FretDiagram" fill="#fc02ff" stroke="#fc02ff" stroke-width="4.76" stroke-linejoin="bevel" points="2600.16,322.696 2808.51,322.696"/>
<polyline class="FretDiagram" fill="#fc02ff" stroke="#fc02ff" stroke-width="4.76" stroke-linejoin="bevel" points="2600.16,370.318 2808.51,370.318"/>
<polyline class="FretDiagram" fill="#fc02ff" stroke="#fc02ff" stroke-width="4.76" stroke-linejoin="bevel" points="2600.16,417.94 2808.51,417.94"/>
<path class="FretDiagram" fill="#fc02ff" fill-rule="evenodd" d="M2656.42,251.263 C2656.42,259.318 2649.89,265.847 2641.83,265.847 C2633.78,265.847 2627.25,259.318 2627.25,251.263 C2627.25,243.208 2633.78,236.679 2641.83,236.679 C2649.89,236.679 2656.42,243.208 2656.42,251.263"/>
<path class="FretDiagram" fill="#fc02ff" fill-rule="evenodd" d="M2698.09,251.263 C2698.09,259.318 2691.56,265.847 2683.5,265.847 C2675.45,265.847 2668.92,259.318 2668.92,251.263 C2668.92,243.208 2675.45,236.679 2683.5,236.679 C2691.56,236.679 2698.09,243.208 2698.09,251.263"/>
<path class="FretDiagram" fill="#fc02ff" fill-rule="evenodd" d="M2739.76,251.263 C2739.76,259.318 2733.23,265.847 2725.17,265.847 C2717.12,265.847 2710.59,259.318 2710.59,251.263 C2710.59,243.208 2717.12,236.679 2725.17,236.679 C2733.23,236.679 2739.76,243.208 2739.76,251.263"/>
<path class="FretDiagram" fill="#fc02ff" fill-rule="evenodd" d="M2781.43,251.263 C2781.43,259.318 2774.9,265.847 2766.84,265.847 C2758.79,265.847 2752.26,259.318 2752.26,251.263 C2752.26,243.208 2758.79,236.679 2766.84,236.679 C2774.9,236.679 2781.43,243.208 2781.43,251.263"/>
<polyline class="FretDiagram" fill="none" stroke="#fc02ff" stroke-width="6.86" stroke-linecap="round" stroke-linejoin="bevel" points="2583.5,163.162 2616.83,196.498"/>
<polyline class="FretDiagram" fill="none" stroke="#fc02ff" stroke-width="6.86" stroke-linecap="round" stroke-linejoin="bevel" points="2583.5,196.498 2616.83,163.162"/>
<polyline class="FretDiagram" fill="none" stroke="#fc02ff" stroke-width="6.86" stroke-linecap="round" stroke-linejoin="bevel" points="2791.84,163.162 2825.18,196.498"/>
<polyline class="FretDiagram" fill="none" stroke="#fc02ff" stroke-width="6.86" stroke-linecap="round" stroke-linejoin="bevel" points="2791.84,196.498 2825.18,163.162"/>
<path class="FretDiagram" fill="#fc02ff" d="M2502.49,236.54 L2487.57,236.54 L2487.57,230.555 C2494.03,229.731 2498.24,228.591 2500.21,227.135 C2502.17,225.678 2503.88,222.353 2505.34,217.16 L2510.85,217.16 L2510.85,284.515 L2502.49,284.515 L2502.49,236.54 M2534.78,251.93 C2534.78,246.293 2535.25,241.321 2536.2,237.015 C2537.15,232.708 2538.36,229.335 2539.81,226.897 C2541.27,224.459 2543.01,222.48 2545.04,220.96 C2547.07,219.44 2549.01,218.426 2550.88,217.92 C2552.75,217.413 2554.73,217.16 2556.82,217.16 C2571.51,217.16 2578.86,228.94 2578.86,252.5 C2578.86,263.583 2576.98,272.054 2573.21,277.912 C2569.44,283.77 2563.98,286.7 2556.82,286.7 C2549.6,286.7 2544.12,283.739 2540.38,277.817 C2536.65,271.895 2534.78,263.266 2534.78,251.93 M2570.31,251.74 C2570.31,233.626 2565.81,224.57 2556.82,224.57 C2547.83,224.57 2543.33,233.721 2543.33,252.025 C2543.33,270.518 2547.76,279.765 2556.63,279.765 C2561.32,279.765 2564.77,277.485 2566.98,272.925 C2569.2,268.365 2570.31,261.303 2570.31,251.74"/>
<path class="Bracket" transform="matrix(8.6315,0,0,10.3419,76.1283,2426)" d="M0.92002,-50 C2.69004,-51.88 6.2,-55.8 6.2,-63 C6.2,-72.1 2.25996,-81.32 2.25996,-86.97 C2.25996,-93.06 5.84004,-98.84 5.95,-99 C6.05996,-99.16 6.05,-99.39 5.94004,-99.46 C5.82998,-99.53 5.62002,-99.47 5.49004,-99.32 C5.35996,-99.17 0,-93.75 0,-85.6 C0,-76.75 3.5,-70.58 3.5,-59.07 C3.5,-56.89 2.55996,-53.36 0.1,-50.33 C-0.0799805,-50.17 -0.1,-49.89 0.0599609,-49.7 L0.0700195,-49.69 L0.1,-49.66 C2.55996,-46.63 3.5,-43.1 3.5,-40.92 C3.5,-29.4 0,-23.24 0,-14.39 C0,-6.25 5.35996,-0.8 5.49004,-0.659961 C5.62002,-0.52002 5.8,-0.42998 5.94004,-0.52002 C6.07998,-0.609961 6.07998,-0.77998 5.95,-0.97998 C5.82002,-1.17998 2.25996,-6.92002 2.25996,-13.01 C2.25996,-18.66 6.2,-27.9 6.2,-37 C6.2,-44.3 2.69004,-48.12 0.92002,-50"/>
</svg>
