<?xml version="1.0" encoding="UTF-8" standalone="no"?>
<svg width="4209.44px" height="2976.38px" viewBox="0 0 4209.44 2976.38"
 xmlns="http://www.w3.org/2000/svg" xmlns:xlink="http://www.w3.org/1999/xlink" version="1.2" baseProfile="tiny">
<title>DoMajeur (6)</title>
<desc>Generated by MuseScore 3.6.2</desc>
<polyline class="StaffLines" fill="none" stroke="#000000" stroke-width="6.55" stroke-linejoin="bevel" points="153.819,596.523 4138.58,596.523"/>
<polyline class="StaffLines" fill="none" stroke="#000000" stroke-width="6.55" stroke-linejoin="bevel" points="153.819,685.814 4138.58,685.814"/>
<polyline class="StaffLines" fill="none" stroke="#000000" stroke-width="6.55" stroke-linejoin="bevel" points="153.819,775.106 4138.58,775.106"/>
<polyline class="StaffLines" fill="none" stroke="#000000" stroke-width="6.55" stroke-linejoin="bevel" points="153.819,864.397 4138.58,864.397"/>
<polyline class="StaffLines" fill="none" stroke="#000000" stroke-width="6.55" stroke-linejoin="bevel" points="153.819,953.688 4138.58,953.688"/>
<polyline class="StaffLines" fill="none" stroke="#000000" stroke-width="6.55" stroke-linejoin="bevel" points="153.819,1042.98 4138.58,1042.98"/>
<polyline class="StaffLines" fill="none" stroke="#000000" stroke-width="6.55" stroke-linejoin="bevel" points="153.819,1429.91 4138.58,1429.91"/>
<polyline class="StaffLines" fill="none" stroke="#000000" stroke-width="6.55" stroke-linejoin="bevel" points="153.819,1489.44 4138.58,1489.44"/>
<polyline class="StaffLines" fill="none" stroke="#000000" stroke-width="6.55" stroke-linejoin="bevel" points="153.819,1548.96 4138.58,1548.96"/>
<polyline class="StaffLines" fill="none" stroke="#000000" stroke-width="6.55" stroke-linejoin="bevel" points="153.819,1608.49 4138.58,1608.49"/>
<polyline class="StaffLines" fill="none" stroke="#000000" stroke-width="6.55" stroke-linejoin="bevel" points="153.819,1668.02 4138.58,1668.02"/>
<polyline class="StaffLines" fill="none" stroke="#000000" stroke-width="6.55" stroke-linejoin="bevel" points="153.819,2137.36 4138.58,2137.36"/>
<polyline class="StaffLines" fill="none" stroke="#000000" stroke-width="6.55" stroke-linejoin="bevel" points="153.819,2196.89 4138.58,2196.89"/>
<polyline class="StaffLines" fill="none" stroke="#000000" stroke-width="6.55" stroke-linejoin="bevel" points="153.819,2256.42 4138.58,2256.42"/>
<polyline class="StaffLines" fill="none" stroke="#000000" stroke-width="6.55" stroke-linejoin="bevel" points="153.819,2315.94 4138.58,2315.94"/>
<polyline class="StaffLines" fill="none" stroke="#000000" stroke-width="6.55" stroke-linejoin="bevel" points="153.819,2375.47 4138.58,2375.47"/>
<polyline class="BarLine" fill="none" stroke="#000000" stroke-width="10.71" stroke-linejoin="bevel" points="159.176,2134.09 159.176,2378.75"/>
<polyline class="BarLine" fill="none" stroke="#000000" stroke-width="10.71" stroke-linejoin="bevel" points="1336.33,2134.09 1336.33,2378.75"/>
<polyline class="BarLine" fill="none" stroke="#000000" stroke-width="10.71" stroke-linejoin="bevel" points="2236.33,2134.09 2236.33,2378.75"/>
<polyline class="BarLine" fill="none" stroke="#000000" stroke-width="10.71" stroke-linejoin="bevel" points="2269.07,2134.09 2269.07,2378.75"/>
<polyline class="BarLine" fill="none" stroke="#000000" stroke-width="10.71" stroke-linejoin="bevel" points="3187.66,2134.09 3187.66,2378.75"/>
<polyline class="BarLine" fill="none" stroke="#000000" stroke-width="10.71" stroke-linejoin="bevel" points="4080.54,2134.09 4080.54,2378.75"/>
<polyline class="BarLine" fill="none" stroke="#000000" stroke-width="32.74" stroke-linejoin="bevel" points="4122.21,2134.09 4122.21,2378.75"/>
<polyline class="BarLine" fill="none" stroke="#000000" stroke-width="10.71" stroke-linejoin="bevel" points="159.176,1426.63 159.176,2137.36"/>
<polyline class="BarLine" fill="none" stroke="#000000" stroke-width="10.71" stroke-linejoin="bevel" points="1336.33,1426.63 1336.33,1671.29"/>
<polyline class="BarLine" fill="none" stroke="#000000" stroke-width="10.71" stroke-linejoin="bevel" points="2236.33,1426.63 2236.33,1671.29"/>
<polyline class="BarLine" fill="none" stroke="#000000" stroke-width="10.71" stroke-linejoin="bevel" points="2269.07,1426.63 2269.07,1671.29"/>
<polyline class="BarLine" fill="none" stroke="#000000" stroke-width="10.71" stroke-linejoin="bevel" points="3187.66,1426.63 3187.66,1671.29"/>
<polyline class="BarLine" fill="none" stroke="#000000" stroke-width="10.71" stroke-linejoin="bevel" points="4080.54,1426.63 4080.54,1671.29"/>
<polyline class="BarLine" fill="none" stroke="#000000" stroke-width="32.74" stroke-linejoin="bevel" points="4122.21,1426.63 4122.21,1671.29"/>
<polyline class="BarLine" fill="none" stroke="#000000" stroke-width="10.71" stroke-linejoin="bevel" points="159.176,593.249 159.176,1429.91"/>
<polyline class="BarLine" fill="none" stroke="#000000" stroke-width="10.71" stroke-linejoin="bevel" points="1336.33,593.249 1336.33,1046.25"/>
<polyline class="BarLine" fill="none" stroke="#000000" stroke-width="10.71" stroke-linejoin="bevel" points="2236.33,593.249 2236.33,1046.25"/>
<polyline class="BarLine" fill="none" stroke="#000000" stroke-width="10.71" stroke-linejoin="bevel" points="2269.07,593.249 2269.07,1046.25"/>
<polyline class="BarLine" fill="none" stroke="#000000" stroke-width="10.71" stroke-linejoin="bevel" points="3187.66,593.249 3187.66,1046.25"/>
<polyline class="BarLine" fill="none" stroke="#000000" stroke-width="10.71" stroke-linejoin="bevel" points="4080.54,593.249 4080.54,1046.25"/>
<polyline class="BarLine" fill="none" stroke="#000000" stroke-width="32.74" stroke-linejoin="bevel" points="4122.21,593.249 4122.21,1046.25"/>
<path class="Note" transform="matrix(2.3811,0,0,2.3811,519.076,2286.18)" d="M18.7,-13.6 C4.9,-13.6 0,-6.6 0,-0.1 C0,6.4 4.9,13.4 18.7,13.4 C32.5,13.4 37.3,6.4 37.3,-0.1 C37.3,-6.6 32.5,-13.6 18.7,-13.6 M10.4,-4.5 C10.3,-4.9 10.3,-5.3 10.3,-5.7 C10.3,-6.5 10.5,-7.3 10.9,-8 C11.6,-9 12.8,-9.7 14.3,-10 C15.6,-10.3 16.3,-10.5 18.9,-10.5 L19,-10.5 C23,-10.5 24.3,-6.8 25.4,-3 L25.7,-2 C26.5,0.6 26.9,2.8 26.9,4.5 C26.9,5.7 26.7,6.8 26.3,7.6 C25.7,8.7 24.7,9.4 23,9.8 C22.1,10 20.6,10.1 20.6,10.1 C20.1,10.1 19.7,10.2 19.3,10.2 C16.1,10.2 14.1,9 12.7,4.7 C11.5,1 11.3,-0.1 10.4,-4.5"/>
<path class="Note" transform="matrix(2.3811,0,0,2.3811,1419.07,2315.94)" d="M18.7,-13.6 C4.9,-13.6 0,-6.6 0,-0.1 C0,6.4 4.9,13.4 18.7,13.4 C32.5,13.4 37.3,6.4 37.3,-0.1 C37.3,-6.6 32.5,-13.6 18.7,-13.6 M10.4,-4.5 C10.3,-4.9 10.3,-5.3 10.3,-5.7 C10.3,-6.5 10.5,-7.3 10.9,-8 C11.6,-9 12.8,-9.7 14.3,-10 C15.6,-10.3 16.3,-10.5 18.9,-10.5 L19,-10.5 C23,-10.5 24.3,-6.8 25.4,-3 L25.7,-2 C26.5,0.6 26.9,2.8 26.9,4.5 C26.9,5.7 26.7,6.8 26.3,7.6 C25.7,8.7 24.7,9.4 23,9.8 C22.1,10 20.6,10.1 20.6,10.1 C20.1,10.1 19.7,10.2 19.3,10.2 C16.1,10.2 14.1,9 12.7,4.7 C11.5,1 11.3,-0.1 10.4,-4.5"/>
<path class="Note" transform="matrix(2.3811,0,0,2.3811,2351.81,2375.47)" d="M18.7,-13.6 C4.9,-13.6 0,-6.6 0,-0.1 C0,6.4 4.9,13.4 18.7,13.4 C32.5,13.4 37.3,6.4 37.3,-0.1 C37.3,-6.6 32.5,-13.6 18.7,-13.6 M10.4,-4.5 C10.3,-4.9 10.3,-5.3 10.3,-5.7 C10.3,-6.5 10.5,-7.3 10.9,-8 C11.6,-9 12.8,-9.7 14.3,-10 C15.6,-10.3 16.3,-10.5 18.9,-10.5 L19,-10.5 C23,-10.5 24.3,-6.8 25.4,-3 L25.7,-2 C26.5,0.6 26.9,2.8 26.9,4.5 C26.9,5.7 26.7,6.8 26.3,7.6 C25.7,8.7 24.7,9.4 23,9.8 C22.1,10 20.6,10.1 20.6,10.1 C20.1,10.1 19.7,10.2 19.3,10.2 C16.1,10.2 14.1,9 12.7,4.7 C11.5,1 11.3,-0.1 10.4,-4.5"/>
<path class="Note" transform="matrix(2.3811,0,0,2.3811,3270.41,2345.71)" d="M18.7,-13.6 C4.9,-13.6 0,-6.6 0,-0.1 C0,6.4 4.9,13.4 18.7,13.4 C32.5,13.4 37.3,6.4 37.3,-0.1 C37.3,-6.6 32.5,-13.6 18.7,-13.6 M10.4,-4.5 C10.3,-4.9 10.3,-5.3 10.3,-5.7 C10.3,-6.5 10.5,-7.3 10.9,-8 C11.6,-9 12.8,-9.7 14.3,-10 C15.6,-10.3 16.3,-10.5 18.9,-10.5 L19,-10.5 C23,-10.5 24.3,-6.8 25.4,-3 L25.7,-2 C26.5,0.6 26.9,2.8 26.9,4.5 C26.9,5.7 26.7,6.8 26.3,7.6 C25.7,8.7 24.7,9.4 23,9.8 C22.1,10 20.6,10.1 20.6,10.1 C20.1,10.1 19.7,10.2 19.3,10.2 C16.1,10.2 14.1,9 12.7,4.7 C11.5,1 11.3,-0.1 10.4,-4.5"/>
<path class="Note" transform="matrix(2.3811,0,0,2.3811,519.076,1668.02)" d="M18.7,-13.6 C4.9,-13.6 0,-6.6 0,-0.1 C0,6.4 4.9,13.4 18.7,13.4 C32.5,13.4 37.3,6.4 37.3,-0.1 C37.3,-6.6 32.5,-13.6 18.7,-13.6 M10.4,-4.5 C10.3,-4.9 10.3,-5.3 10.3,-5.7 C10.3,-6.5 10.5,-7.3 10.9,-8 C11.6,-9 12.8,-9.7 14.3,-10 C15.6,-10.3 16.3,-10.5 18.9,-10.5 L19,-10.5 C23,-10.5 24.3,-6.8 25.4,-3 L25.7,-2 C26.5,0.6 26.9,2.8 26.9,4.5 C26.9,5.7 26.7,6.8 26.3,7.6 C25.7,8.7 24.7,9.4 23,9.8 C22.1,10 20.6,10.1 20.6,10.1 C20.1,10.1 19.7,10.2 19.3,10.2 C16.1,10.2 14.1,9 12.7,4.7 C11.5,1 11.3,-0.1 10.4,-4.5"/>
<path class="Note" transform="matrix(2.3811,0,0,2.3811,519.076,1608.49)" d="M18.7,-13.6 C4.9,-13.6 0,-6.6 0,-0.1 C0,6.4 4.9,13.4 18.7,13.4 C32.5,13.4 37.3,6.4 37.3,-0.1 C37.3,-6.6 32.5,-13.6 18.7,-13.6 M10.4,-4.5 C10.3,-4.9 10.3,-5.3 10.3,-5.7 C10.3,-6.5 10.5,-7.3 10.9,-8 C11.6,-9 12.8,-9.7 14.3,-10 C15.6,-10.3 16.3,-10.5 18.9,-10.5 L19,-10.5 C23,-10.5 24.3,-6.8 25.4,-3 L25.7,-2 C26.5,0.6 26.9,2.8 26.9,4.5 C26.9,5.7 26.7,6.8 26.3,7.6 C25.7,8.7 24.7,9.4 23,9.8 C22.1,10 20.6,10.1 20.6,10.1 C20.1,10.1 19.7,10.2 19.3,10.2 C16.1,10.2 14.1,9 12.7,4.7 C11.5,1 11.3,-0.1 10.4,-4.5"/>
<path class="Note" transform="matrix(2.3811,0,0,2.3811,519.076,1519.2)" d="M18.7,-13.6 C4.9,-13.6 0,-6.6 0,-0.1 C0,6.4 4.9,13.4 18.7,13.4 C32.5,13.4 37.3,6.4 37.3,-0.1 C37.3,-6.6 32.5,-13.6 18.7,-13.6 M10.4,-4.5 C10.3,-4.9 10.3,-5.3 10.3,-5.7 C10.3,-6.5 10.5,-7.3 10.9,-8 C11.6,-9 12.8,-9.7 14.3,-10 C15.6,-10.3 16.3,-10.5 18.9,-10.5 L19,-10.5 C23,-10.5 24.3,-6.8 25.4,-3 L25.7,-2 C26.5,0.6 26.9,2.8 26.9,4.5 C26.9,5.7 26.7,6.8 26.3,7.6 C25.7,8.7 24.7,9.4 23,9.8 C22.1,10 20.6,10.1 20.6,10.1 C20.1,10.1 19.7,10.2 19.3,10.2 C16.1,10.2 14.1,9 12.7,4.7 C11.5,1 11.3,-0.1 10.4,-4.5"/>
<path class="Note" transform="matrix(2.3811,0,0,2.3811,1419.07,1697.78)" d="M18.7,-13.6 C4.9,-13.6 0,-6.6 0,-0.1 C0,6.4 4.9,13.4 18.7,13.4 C32.5,13.4 37.3,6.4 37.3,-0.1 C37.3,-6.6 32.5,-13.6 18.7,-13.6 M10.4,-4.5 C10.3,-4.9 10.3,-5.3 10.3,-5.7 C10.3,-6.5 10.5,-7.3 10.9,-8 C11.6,-9 12.8,-9.7 14.3,-10 C15.6,-10.3 16.3,-10.5 18.9,-10.5 L19,-10.5 C23,-10.5 24.3,-6.8 25.4,-3 L25.7,-2 C26.5,0.6 26.9,2.8 26.9,4.5 C26.9,5.7 26.7,6.8 26.3,7.6 C25.7,8.7 24.7,9.4 23,9.8 C22.1,10 20.6,10.1 20.6,10.1 C20.1,10.1 19.7,10.2 19.3,10.2 C16.1,10.2 14.1,9 12.7,4.7 C11.5,1 11.3,-0.1 10.4,-4.5"/>
<path class="Note" transform="matrix(2.3811,0,0,2.3811,1419.07,1608.49)" d="M18.7,-13.6 C4.9,-13.6 0,-6.6 0,-0.1 C0,6.4 4.9,13.4 18.7,13.4 C32.5,13.4 37.3,6.4 37.3,-0.1 C37.3,-6.6 32.5,-13.6 18.7,-13.6 M10.4,-4.5 C10.3,-4.9 10.3,-5.3 10.3,-5.7 C10.3,-6.5 10.5,-7.3 10.9,-8 C11.6,-9 12.8,-9.7 14.3,-10 C15.6,-10.3 16.3,-10.5 18.9,-10.5 L19,-10.5 C23,-10.5 24.3,-6.8 25.4,-3 L25.7,-2 C26.5,0.6 26.9,2.8 26.9,4.5 C26.9,5.7 26.7,6.8 26.3,7.6 C25.7,8.7 24.7,9.4 23,9.8 C22.1,10 20.6,10.1 20.6,10.1 C20.1,10.1 19.7,10.2 19.3,10.2 C16.1,10.2 14.1,9 12.7,4.7 C11.5,1 11.3,-0.1 10.4,-4.5"/>
<path class="Note" transform="matrix(2.3811,0,0,2.3811,1419.07,1489.44)" d="M18.7,-13.6 C4.9,-13.6 0,-6.6 0,-0.1 C0,6.4 4.9,13.4 18.7,13.4 C32.5,13.4 37.3,6.4 37.3,-0.1 C37.3,-6.6 32.5,-13.6 18.7,-13.6 M10.4,-4.5 C10.3,-4.9 10.3,-5.3 10.3,-5.7 C10.3,-6.5 10.5,-7.3 10.9,-8 C11.6,-9 12.8,-9.7 14.3,-10 C15.6,-10.3 16.3,-10.5 18.9,-10.5 L19,-10.5 C23,-10.5 24.3,-6.8 25.4,-3 L25.7,-2 C26.5,0.6 26.9,2.8 26.9,4.5 C26.9,5.7 26.7,6.8 26.3,7.6 C25.7,8.7 24.7,9.4 23,9.8 C22.1,10 20.6,10.1 20.6,10.1 C20.1,10.1 19.7,10.2 19.3,10.2 C16.1,10.2 14.1,9 12.7,4.7 C11.5,1 11.3,-0.1 10.4,-4.5"/>
<path class="Note" transform="matrix(2.3811,0,0,2.3811,2351.81,1697.78)" d="M18.7,-13.6 C4.9,-13.6 0,-6.6 0,-0.1 C0,6.4 4.9,13.4 18.7,13.4 C32.5,13.4 37.3,6.4 37.3,-0.1 C37.3,-6.6 32.5,-13.6 18.7,-13.6 M10.4,-4.5 C10.3,-4.9 10.3,-5.3 10.3,-5.7 C10.3,-6.5 10.5,-7.3 10.9,-8 C11.6,-9 12.8,-9.7 14.3,-10 C15.6,-10.3 16.3,-10.5 18.9,-10.5 L19,-10.5 C23,-10.5 24.3,-6.8 25.4,-3 L25.7,-2 C26.5,0.6 26.9,2.8 26.9,4.5 C26.9,5.7 26.7,6.8 26.3,7.6 C25.7,8.7 24.7,9.4 23,9.8 C22.1,10 20.6,10.1 20.6,10.1 C20.1,10.1 19.7,10.2 19.3,10.2 C16.1,10.2 14.1,9 12.7,4.7 C11.5,1 11.3,-0.1 10.4,-4.5"/>
<path class="Note" transform="matrix(2.3811,0,0,2.3811,2351.81,1608.49)" d="M18.7,-13.6 C4.9,-13.6 0,-6.6 0,-0.1 C0,6.4 4.9,13.4 18.7,13.4 C32.5,13.4 37.3,6.4 37.3,-0.1 C37.3,-6.6 32.5,-13.6 18.7,-13.6 M10.4,-4.5 C10.3,-4.9 10.3,-5.3 10.3,-5.7 C10.3,-6.5 10.5,-7.3 10.9,-8 C11.6,-9 12.8,-9.7 14.3,-10 C15.6,-10.3 16.3,-10.5 18.9,-10.5 L19,-10.5 C23,-10.5 24.3,-6.8 25.4,-3 L25.7,-2 C26.5,0.6 26.9,2.8 26.9,4.5 C26.9,5.7 26.7,6.8 26.3,7.6 C25.7,8.7 24.7,9.4 23,9.8 C22.1,10 20.6,10.1 20.6,10.1 C20.1,10.1 19.7,10.2 19.3,10.2 C16.1,10.2 14.1,9 12.7,4.7 C11.5,1 11.3,-0.1 10.4,-4.5"/>
<path class="Note" transform="matrix(2.3811,0,0,2.3811,2351.81,1548.96)" d="M18.7,-13.6 C4.9,-13.6 0,-6.6 0,-0.1 C0,6.4 4.9,13.4 18.7,13.4 C32.5,13.4 37.3,6.4 37.3,-0.1 C37.3,-6.6 32.5,-13.6 18.7,-13.6 M10.4,-4.5 C10.3,-4.9 10.3,-5.3 10.3,-5.7 C10.3,-6.5 10.5,-7.3 10.9,-8 C11.6,-9 12.8,-9.7 14.3,-10 C15.6,-10.3 16.3,-10.5 18.9,-10.5 L19,-10.5 C23,-10.5 24.3,-6.8 25.4,-3 L25.7,-2 C26.5,0.6 26.9,2.8 26.9,4.5 C26.9,5.7 26.7,6.8 26.3,7.6 C25.7,8.7 24.7,9.4 23,9.8 C22.1,10 20.6,10.1 20.6,10.1 C20.1,10.1 19.7,10.2 19.3,10.2 C16.1,10.2 14.1,9 12.7,4.7 C11.5,1 11.3,-0.1 10.4,-4.5"/>
<path class="Note" transform="matrix(2.3811,0,0,2.3811,3270.41,1638.26)" d="M18.7,-13.6 C4.9,-13.6 0,-6.6 0,-0.1 C0,6.4 4.9,13.4 18.7,13.4 C32.5,13.4 37.3,6.4 37.3,-0.1 C37.3,-6.6 32.5,-13.6 18.7,-13.6 M10.4,-4.5 C10.3,-4.9 10.3,-5.3 10.3,-5.7 C10.3,-6.5 10.5,-7.3 10.9,-8 C11.6,-9 12.8,-9.7 14.3,-10 C15.6,-10.3 16.3,-10.5 18.9,-10.5 L19,-10.5 C23,-10.5 24.3,-6.8 25.4,-3 L25.7,-2 C26.5,0.6 26.9,2.8 26.9,4.5 C26.9,5.7 26.7,6.8 26.3,7.6 C25.7,8.7 24.7,9.4 23,9.8 C22.1,10 20.6,10.1 20.6,10.1 C20.1,10.1 19.7,10.2 19.3,10.2 C16.1,10.2 14.1,9 12.7,4.7 C11.5,1 11.3,-0.1 10.4,-4.5"/>
<path class="Note" transform="matrix(2.3811,0,0,2.3811,3270.41,1519.2)" d="M18.7,-13.6 C4.9,-13.6 0,-6.6 0,-0.1 C0,6.4 4.9,13.4 18.7,13.4 C32.5,13.4 37.3,6.4 37.3,-0.1 C37.3,-6.6 32.5,-13.6 18.7,-13.6 M10.4,-4.5 C10.3,-4.9 10.3,-5.3 10.3,-5.7 C10.3,-6.5 10.5,-7.3 10.9,-8 C11.6,-9 12.8,-9.7 14.3,-10 C15.6,-10.3 16.3,-10.5 18.9,-10.5 L19,-10.5 C23,-10.5 24.3,-6.8 25.4,-3 L25.7,-2 C26.5,0.6 26.9,2.8 26.9,4.5 C26.9,5.7 26.7,6.8 26.3,7.6 C25.7,8.7 24.7,9.4 23,9.8 C22.1,10 20.6,10.1 20.6,10.1 C20.1,10.1 19.7,10.2 19.3,10.2 C16.1,10.2 14.1,9 12.7,4.7 C11.5,1 11.3,-0.1 10.4,-4.5"/>
<path class="Note" d="M486.807,983.179 C487.117,971.48 493.586,961.099 506.214,952.034 C517.448,943.977 529.727,939.948 543.053,939.948 C561.724,939.948 578.187,947.27 592.443,961.912 C601.507,971.287 606.039,982.908 606.039,996.776 C606.039,1009.25 602.708,1018.82 596.045,1025.48 C587.91,1033.69 579.311,1037.8 570.246,1037.8 C564.048,1037.8 559.245,1036.4 555.836,1033.61 C550.258,1029.04 547.469,1022.92 547.469,1015.25 C547.469,1005.34 552.427,996.272 562.344,988.06 C570.479,981.319 578.652,976.903 586.864,974.812 C584.695,971.093 581.945,967.607 578.613,964.353 C568.232,954.204 556.456,949.129 543.285,949.129 C529.572,949.129 518.222,952.112 509.236,958.077 C499.939,964.198 492.462,972.565 486.807,983.179 M589.77,980.971 C585.509,984.922 581.248,989.144 576.986,993.638 C568.619,1002.47 564.436,1010.84 564.436,1018.74 C564.436,1027.18 566.373,1031.41 570.246,1031.41 C573.733,1031.41 578.613,1026.64 584.889,1017.11 C589.925,1009.52 592.443,1002.55 592.443,996.194 C592.443,990.771 591.552,985.697 589.77,980.971"/>
<path class="Note" d="M597.895,622.062 C602.466,622.062 604.752,624.929 604.752,630.662 C604.752,634.691 602.234,640.695 597.198,648.675 C593.17,655.105 591.155,661.38 591.155,667.501 C591.155,670.987 596.23,672.73 606.379,672.73 C614.746,672.73 626.406,668.198 641.358,659.134 C626.328,673.621 613.274,680.865 602.195,680.865 C592.201,680.865 585.228,679.354 581.277,676.333 C580.27,675.558 579.418,674.628 578.721,673.544 C574.847,678.27 568.378,680.633 559.313,680.633 C550.636,680.633 543.974,678.851 539.325,675.287 C536.226,672.885 534.677,669.05 534.677,663.782 C534.677,655.415 539.635,646.273 549.552,636.356 C560.166,625.742 572.445,620.435 586.391,620.435 C589.877,620.435 592.433,621.714 594.06,624.27 C595.378,622.798 596.656,622.062 597.895,622.062 M577.094,668.314 C577.016,667.694 576.977,667.075 576.977,666.455 C576.977,666.145 580.929,655.337 588.831,634.032 C589.606,631.94 590.38,630.158 591.155,628.686 C588.134,628.067 585.151,627.757 582.207,627.757 C576.784,627.757 569.579,632.366 560.592,641.586 C552.534,649.798 548.506,656.887 548.506,662.852 C548.506,669.438 551.643,672.73 557.919,672.73 C565.511,672.73 571.903,671.258 577.094,668.314"/>
<path class="Note" d="M597.895,800.645 C602.466,800.645 604.752,803.512 604.752,809.245 C604.752,813.273 602.234,819.277 597.198,827.257 C593.17,833.688 591.155,839.963 591.155,846.083 C591.155,849.57 596.23,851.313 606.379,851.313 C614.746,851.313 626.406,846.781 641.358,837.716 C626.328,852.204 613.274,859.448 602.195,859.448 C592.201,859.448 585.228,857.937 581.277,854.915 C580.27,854.141 579.418,853.211 578.721,852.126 C574.847,856.852 568.378,859.215 559.313,859.215 C550.636,859.215 543.974,857.433 539.325,853.87 C536.226,851.468 534.677,847.633 534.677,842.365 C534.677,833.998 539.635,824.856 549.552,814.939 C560.166,804.325 572.445,799.018 586.391,799.018 C589.877,799.018 592.433,800.296 594.06,802.853 C595.378,801.381 596.656,800.645 597.895,800.645 M577.094,846.897 C577.016,846.277 576.977,845.657 576.977,845.038 C576.977,844.728 580.929,833.92 588.831,812.615 C589.606,810.523 590.38,808.741 591.155,807.269 C588.134,806.649 585.151,806.339 582.207,806.339 C576.784,806.339 569.579,810.949 560.592,820.168 C552.534,828.381 548.506,835.47 548.506,841.435 C548.506,848.02 551.643,851.313 557.919,851.313 C565.511,851.313 571.903,849.841 577.094,846.897"/>
<path class="Note" d="M604.984,708.448 C615.443,701.863 623.036,696.479 627.762,692.295 C636.439,684.625 640.777,676.878 640.777,669.053 C640.777,659.911 634.657,655.34 622.416,655.34 C609.555,655.34 596.152,664.598 582.207,683.114 C572.755,695.665 566.054,707.519 562.102,718.675 C566.983,715.498 572.135,713.91 577.558,713.91 C582.672,713.91 586.739,716.196 589.761,720.767 C591.852,723.943 592.898,729.366 592.898,737.036 C592.898,743.931 589.257,752.027 581.975,761.324 C577.481,767.057 572.484,769.924 566.983,769.924 C560.011,769.924 555.13,768.529 552.341,765.74 C548.39,761.789 546.414,753.964 546.414,742.266 C546.414,722.587 554.355,703.219 570.237,684.16 C588.134,662.7 605.294,651.97 621.719,651.97 C634.424,651.97 643.915,654.953 650.19,660.918 C653.832,664.404 655.652,669.44 655.652,676.026 C655.652,683.386 648.408,691.598 633.921,700.662 C626.328,705.466 616.683,708.061 604.984,708.448 M560.592,723.556 C558.655,730.064 557.686,736.3 557.686,742.266 C557.686,756.443 559.933,763.532 564.427,763.532 C568.688,763.532 572.019,760.511 574.421,754.468 C577.21,747.65 578.604,740.096 578.604,731.807 C578.604,724.447 576.164,720.767 571.283,720.767 C567.874,720.767 564.31,721.696 560.592,723.556"/>
<path class="Note" d="M1453.62,1037.8 C1449.82,1037.8 1447.92,1033.73 1447.92,1025.6 L1447.92,991.546 C1447.92,988.292 1449.51,986.665 1452.69,986.665 C1454.08,986.665 1455.13,986.781 1455.82,987.014 C1458.3,982.675 1462.37,979.034 1468.03,976.09 C1475.93,971.984 1483.95,969.931 1492.08,969.931 C1498.51,969.931 1501.73,972.332 1501.73,977.136 C1501.73,981.164 1499.56,983.179 1495.22,983.179 C1492.12,983.179 1489.18,982.482 1486.39,981.087 C1483.91,979.847 1481.27,979.228 1478.49,979.228 C1473.68,979.228 1466.59,982.365 1457.22,988.641 C1458.54,994.916 1459.19,1002.24 1459.19,1010.6 C1459.19,1028.73 1457.34,1037.8 1453.62,1037.8"/>
<path class="Note" d="M1497.89,889.936 C1502.46,889.936 1504.75,892.803 1504.75,898.536 C1504.75,902.565 1502.23,908.569 1497.2,916.549 C1493.17,922.979 1491.15,929.254 1491.15,935.375 C1491.15,938.861 1496.23,940.604 1506.38,940.604 C1514.74,940.604 1526.4,936.072 1541.36,927.008 C1526.33,941.495 1513.27,948.739 1502.19,948.739 C1492.2,948.739 1485.23,947.228 1481.27,944.207 C1480.27,943.432 1479.42,942.502 1478.72,941.418 C1474.84,946.144 1468.38,948.507 1459.31,948.507 C1450.63,948.507 1443.97,946.725 1439.32,943.161 C1436.22,940.759 1434.67,936.924 1434.67,931.656 C1434.67,923.289 1439.63,914.147 1449.55,904.23 C1460.16,893.616 1472.44,888.309 1486.39,888.309 C1489.87,888.309 1492.43,889.588 1494.06,892.144 C1495.37,890.672 1496.65,889.936 1497.89,889.936 M1477.09,936.188 C1477.01,935.568 1476.97,934.949 1476.97,934.329 C1476.97,934.019 1480.93,923.211 1488.83,901.906 C1489.6,899.814 1490.38,898.032 1491.15,896.56 C1488.13,895.941 1485.15,895.631 1482.2,895.631 C1476.78,895.631 1469.58,900.24 1460.59,909.46 C1452.53,917.672 1448.5,924.761 1448.5,930.726 C1448.5,937.312 1451.64,940.604 1457.92,940.604 C1465.51,940.604 1471.9,939.132 1477.09,936.188"/>
<path class="Note" d="M1497.89,800.645 C1502.46,800.645 1504.75,803.512 1504.75,809.245 C1504.75,813.273 1502.23,819.277 1497.2,827.257 C1493.17,833.688 1491.15,839.963 1491.15,846.083 C1491.15,849.57 1496.23,851.313 1506.38,851.313 C1514.74,851.313 1526.4,846.781 1541.36,837.716 C1526.33,852.204 1513.27,859.448 1502.19,859.448 C1492.2,859.448 1485.23,857.937 1481.27,854.915 C1480.27,854.141 1479.42,853.211 1478.72,852.126 C1474.84,856.852 1468.38,859.215 1459.31,859.215 C1450.63,859.215 1443.97,857.433 1439.32,853.87 C1436.22,851.468 1434.67,847.633 1434.67,842.365 C1434.67,833.998 1439.63,824.856 1449.55,814.939 C1460.16,804.325 1472.44,799.018 1486.39,799.018 C1489.87,799.018 1492.43,800.296 1494.06,802.853 C1495.37,801.381 1496.65,800.645 1497.89,800.645 M1477.09,846.897 C1477.01,846.277 1476.97,845.657 1476.97,845.038 C1476.97,844.728 1480.93,833.92 1488.83,812.615 C1489.6,810.523 1490.38,808.741 1491.15,807.269 C1488.13,806.649 1485.15,806.339 1482.2,806.339 C1476.78,806.339 1469.58,810.949 1460.59,820.168 C1452.53,828.381 1448.5,835.47 1448.5,841.435 C1448.5,848.02 1451.64,851.313 1457.92,851.313 C1465.51,851.313 1471.9,849.841 1477.09,846.897"/>
<path class="Note" d="M1386.8,715.305 C1387.11,703.606 1393.58,693.225 1406.21,684.16 C1417.45,676.103 1429.72,672.074 1443.05,672.074 C1461.72,672.074 1478.18,679.396 1492.44,694.038 C1501.5,703.413 1506.04,715.034 1506.04,728.901 C1506.04,741.375 1502.71,750.943 1496.04,757.606 C1487.91,765.818 1479.31,769.924 1470.24,769.924 C1464.05,769.924 1459.24,768.529 1455.83,765.74 C1450.26,761.169 1447.47,755.049 1447.47,747.379 C1447.47,737.462 1452.42,728.398 1462.34,720.186 C1470.48,713.445 1478.65,709.029 1486.86,706.938 C1484.69,703.219 1481.94,699.733 1478.61,696.479 C1468.23,686.33 1456.45,681.255 1443.28,681.255 C1429.57,681.255 1418.22,684.238 1409.23,690.203 C1399.94,696.324 1392.46,704.691 1386.8,715.305 M1489.77,713.097 C1485.51,717.048 1481.25,721.27 1476.98,725.764 C1468.62,734.596 1464.43,742.963 1464.43,750.865 C1464.43,759.31 1466.37,763.532 1470.24,763.532 C1473.73,763.532 1478.61,758.768 1484.89,749.238 C1489.92,741.646 1492.44,734.673 1492.44,728.32 C1492.44,722.897 1491.55,717.823 1489.77,713.097"/>
<path class="Note" d="M2430.63,1097.99 C2435.2,1097.99 2437.49,1100.85 2437.49,1106.58 C2437.49,1110.61 2434.97,1116.62 2429.93,1124.6 C2425.9,1131.03 2423.89,1137.3 2423.89,1143.42 C2423.89,1146.91 2428.96,1148.65 2439.11,1148.65 C2447.48,1148.65 2459.14,1144.12 2474.09,1135.06 C2459.06,1149.54 2446.01,1156.79 2434.93,1156.79 C2424.94,1156.79 2417.96,1155.28 2414.01,1152.26 C2413.01,1151.48 2412.15,1150.55 2411.46,1149.47 C2407.58,1154.19 2401.11,1156.56 2392.05,1156.56 C2383.37,1156.56 2376.71,1154.77 2372.06,1151.21 C2368.96,1148.81 2367.41,1144.97 2367.41,1139.7 C2367.41,1131.34 2372.37,1122.2 2382.29,1112.28 C2392.9,1101.67 2405.18,1096.36 2419.13,1096.36 C2422.61,1096.36 2425.17,1097.64 2426.8,1100.19 C2428.11,1098.72 2429.39,1097.99 2430.63,1097.99 M2409.83,1144.24 C2409.75,1143.62 2409.71,1143 2409.71,1142.38 C2409.71,1142.07 2413.66,1131.26 2421.57,1109.95 C2422.34,1107.86 2423.12,1106.08 2423.89,1104.61 C2420.87,1103.99 2417.89,1103.68 2414.94,1103.68 C2409.52,1103.68 2402.31,1108.29 2393.33,1117.51 C2385.27,1125.72 2381.24,1132.81 2381.24,1138.78 C2381.24,1145.36 2384.38,1148.65 2390.65,1148.65 C2398.25,1148.65 2404.64,1147.18 2409.83,1144.24"/>
<path class="Note" d="M2430.63,889.936 C2435.2,889.936 2437.49,892.803 2437.49,898.536 C2437.49,902.565 2434.97,908.569 2429.93,916.549 C2425.9,922.979 2423.89,929.254 2423.89,935.375 C2423.89,938.861 2428.96,940.604 2439.11,940.604 C2447.48,940.604 2459.14,936.072 2474.09,927.008 C2459.06,941.495 2446.01,948.739 2434.93,948.739 C2424.94,948.739 2417.96,947.228 2414.01,944.207 C2413.01,943.432 2412.15,942.502 2411.46,941.418 C2407.58,946.144 2401.11,948.507 2392.05,948.507 C2383.37,948.507 2376.71,946.725 2372.06,943.161 C2368.96,940.759 2367.41,936.924 2367.41,931.656 C2367.41,923.289 2372.37,914.147 2382.29,904.23 C2392.9,893.616 2405.18,888.309 2419.13,888.309 C2422.61,888.309 2425.17,889.588 2426.8,892.144 C2428.11,890.672 2429.39,889.936 2430.63,889.936 M2409.83,936.188 C2409.75,935.568 2409.71,934.949 2409.71,934.329 C2409.71,934.019 2413.66,923.211 2421.57,901.906 C2422.34,899.814 2423.12,898.032 2423.89,896.56 C2420.87,895.941 2417.89,895.631 2414.94,895.631 C2409.52,895.631 2402.31,900.24 2393.33,909.46 C2385.27,917.672 2381.24,924.761 2381.24,930.726 C2381.24,937.312 2384.38,940.604 2390.65,940.604 C2398.25,940.604 2404.64,939.132 2409.83,936.188"/>
<path class="Note" d="M2430.63,800.645 C2435.2,800.645 2437.49,803.512 2437.49,809.245 C2437.49,813.273 2434.97,819.277 2429.93,827.257 C2425.9,833.688 2423.89,839.963 2423.89,846.083 C2423.89,849.57 2428.96,851.313 2439.11,851.313 C2447.48,851.313 2459.14,846.781 2474.09,837.716 C2459.06,852.204 2446.01,859.448 2434.93,859.448 C2424.94,859.448 2417.96,857.937 2414.01,854.915 C2413.01,854.141 2412.15,853.211 2411.46,852.126 C2407.58,856.852 2401.11,859.215 2392.05,859.215 C2383.37,859.215 2376.71,857.433 2372.06,853.87 C2368.96,851.468 2367.41,847.633 2367.41,842.365 C2367.41,833.998 2372.37,824.856 2382.29,814.939 C2392.9,804.325 2405.18,799.018 2419.13,799.018 C2422.61,799.018 2425.17,800.296 2426.8,802.853 C2428.11,801.381 2429.39,800.645 2430.63,800.645 M2409.83,846.897 C2409.75,846.277 2409.71,845.657 2409.71,845.038 C2409.71,844.728 2413.66,833.92 2421.57,812.615 C2422.34,810.523 2423.12,808.741 2423.89,807.269 C2420.87,806.649 2417.89,806.339 2414.94,806.339 C2409.52,806.339 2402.31,810.949 2393.33,820.168 C2385.27,828.381 2381.24,835.47 2381.24,841.435 C2381.24,848.02 2384.38,851.313 2390.65,851.313 C2398.25,851.313 2404.64,849.841 2409.83,846.897"/>
<path class="Note" d="M2430.63,711.354 C2435.2,711.354 2437.49,714.22 2437.49,719.953 C2437.49,723.982 2434.97,729.986 2429.93,737.966 C2425.9,744.396 2423.89,750.672 2423.89,756.792 C2423.89,760.278 2428.96,762.022 2439.11,762.022 C2447.48,762.022 2459.14,757.489 2474.09,748.425 C2459.06,762.913 2446.01,770.156 2434.93,770.156 C2424.94,770.156 2417.96,768.646 2414.01,765.624 C2413.01,764.849 2412.15,763.92 2411.46,762.835 C2407.58,767.561 2401.11,769.924 2392.05,769.924 C2383.37,769.924 2376.71,768.142 2372.06,764.578 C2368.96,762.177 2367.41,758.342 2367.41,753.073 C2367.41,744.706 2372.37,735.564 2382.29,725.648 C2392.9,715.034 2405.18,709.727 2419.13,709.727 C2422.61,709.727 2425.17,711.005 2426.8,713.562 C2428.11,712.09 2429.39,711.354 2430.63,711.354 M2409.83,757.606 C2409.75,756.986 2409.71,756.366 2409.71,755.746 C2409.71,755.436 2413.66,744.629 2421.57,723.323 C2422.34,721.232 2423.12,719.45 2423.89,717.978 C2420.87,717.358 2417.89,717.048 2414.94,717.048 C2409.52,717.048 2402.31,721.658 2393.33,730.877 C2385.27,739.089 2381.24,746.178 2381.24,752.144 C2381.24,758.729 2384.38,762.022 2390.65,762.022 C2398.25,762.022 2404.64,760.55 2409.83,757.606"/>
<path class="Note" d="M3349.22,979.228 C3353.8,979.228 3356.08,982.094 3356.08,987.827 C3356.08,991.856 3353.56,997.86 3348.53,1005.84 C3344.5,1012.27 3342.48,1018.55 3342.48,1024.67 C3342.48,1028.15 3347.56,1029.9 3357.71,1029.9 C3366.08,1029.9 3377.74,1025.36 3392.69,1016.3 C3377.66,1030.79 3364.6,1038.03 3353.52,1038.03 C3343.53,1038.03 3336.56,1036.52 3332.61,1033.5 C3331.6,1032.72 3330.75,1031.79 3330.05,1030.71 C3326.18,1035.44 3319.71,1037.8 3310.64,1037.8 C3301.97,1037.8 3295.3,1036.02 3290.65,1032.45 C3287.56,1030.05 3286.01,1026.22 3286.01,1020.95 C3286.01,1012.58 3290.96,1003.44 3300.88,993.522 C3311.49,982.908 3323.77,977.601 3337.72,977.601 C3341.21,977.601 3343.76,978.879 3345.39,981.436 C3346.71,979.964 3347.99,979.228 3349.22,979.228 M3328.42,1025.48 C3328.35,1024.86 3328.31,1024.24 3328.31,1023.62 C3328.31,1023.31 3332.26,1012.5 3340.16,991.197 C3340.94,989.106 3341.71,987.324 3342.48,985.852 C3339.46,985.232 3336.48,984.922 3333.54,984.922 C3328.11,984.922 3320.91,989.532 3311.92,998.751 C3303.86,1006.96 3299.84,1014.05 3299.84,1020.02 C3299.84,1026.6 3302.97,1029.9 3309.25,1029.9 C3316.84,1029.9 3323.23,1028.42 3328.42,1025.48"/>
<path class="Note" d="M3356.31,619.157 C3366.77,612.572 3374.37,607.187 3379.09,603.004 C3387.77,595.334 3392.11,587.586 3392.11,579.762 C3392.11,570.62 3385.99,566.049 3373.75,566.049 C3360.88,566.049 3347.48,575.307 3333.54,593.823 C3324.08,606.374 3317.38,618.227 3313.43,629.384 C3318.31,626.207 3323.46,624.619 3328.89,624.619 C3334,624.619 3338.07,626.904 3341.09,631.475 C3343.18,634.652 3344.23,640.075 3344.23,647.745 C3344.23,654.64 3340.59,662.736 3333.3,672.033 C3328.81,677.766 3323.81,680.633 3318.31,680.633 C3311.34,680.633 3306.46,679.238 3303.67,676.449 C3299.72,672.498 3297.74,664.673 3297.74,652.974 C3297.74,633.296 3305.68,613.928 3321.57,594.869 C3339.46,573.409 3356.62,562.679 3373.05,562.679 C3385.75,562.679 3395.24,565.661 3401.52,571.627 C3405.16,575.113 3406.98,580.149 3406.98,586.734 C3406.98,594.094 3399.74,602.306 3385.25,611.371 C3377.66,616.174 3368.01,618.77 3356.31,619.157 M3311.92,634.264 C3309.98,640.772 3309.02,647.009 3309.02,652.974 C3309.02,667.152 3311.26,674.241 3315.76,674.241 C3320.02,674.241 3323.35,671.22 3325.75,665.177 C3328.54,658.359 3329.93,650.805 3329.93,642.515 C3329.93,635.155 3327.49,631.475 3322.61,631.475 C3319.2,631.475 3315.64,632.405 3311.92,634.264"/>
<path class="Note" d="M3356.31,708.448 C3366.77,701.863 3374.37,696.479 3379.09,692.295 C3387.77,684.625 3392.11,676.878 3392.11,669.053 C3392.11,659.911 3385.99,655.34 3373.75,655.34 C3360.88,655.34 3347.48,664.598 3333.54,683.114 C3324.08,695.665 3317.38,707.519 3313.43,718.675 C3318.31,715.498 3323.46,713.91 3328.89,713.91 C3334,713.91 3338.07,716.196 3341.09,720.767 C3343.18,723.943 3344.23,729.366 3344.23,737.036 C3344.23,743.931 3340.59,752.027 3333.3,761.324 C3328.81,767.057 3323.81,769.924 3318.31,769.924 C3311.34,769.924 3306.46,768.529 3303.67,765.74 C3299.72,761.789 3297.74,753.964 3297.74,742.266 C3297.74,722.587 3305.68,703.219 3321.57,684.16 C3339.46,662.7 3356.62,651.97 3373.05,651.97 C3385.75,651.97 3395.24,654.953 3401.52,660.918 C3405.16,664.404 3406.98,669.44 3406.98,676.026 C3406.98,683.386 3399.74,691.598 3385.25,700.662 C3377.66,705.466 3368.01,708.061 3356.31,708.448 M3311.92,723.556 C3309.98,730.064 3309.02,736.3 3309.02,742.266 C3309.02,756.443 3311.26,763.532 3315.76,763.532 C3320.02,763.532 3323.35,760.511 3325.75,754.468 C3328.54,747.65 3329.93,740.096 3329.93,731.807 C3329.93,724.447 3327.49,720.767 3322.61,720.767 C3319.2,720.767 3315.64,721.696 3311.92,723.556"/>
<path class="Clef" transform="matrix(2.3811,0,0,2.3811,212.156,2196.89)" d="M25.4,-25.1 C17.8,-25.1 11.7,-20.7 11.6,-20.7 C5.8,-16.4 3.5,-11.3 2.6,-7.8 C2.1,-6 1.9,-4.2 1.9,-2.5 C1.9,-0.1 2.3,2.1 3.2,4 C4.4,6.7 6.7,8.6 9.7,9.6 C10.9,10 12.2,10.2 13.5,10.2 C15.7,10.2 18,9.6 19.9,8.5 C23,6.8 24.9,3.2 24.9,-0.7 C24.9,-4.2 23.1,-7.4 20.1,-9.3 C18,-10.7 16,-11.1 14.3,-11.1 C13.1,-11.1 12,-10.9 11.1,-10.6 C10.1,-10.2 8.4,-9.2 7.6,-8.5 C7.9,-10.4 9.1,-13.3 10.2,-14.9 C11.3,-16.5 13.5,-18.5 15.2,-19.4 C17.7,-20.8 20.9,-21.4 24.4,-21.4 C34.6,-21.4 39.6,-13.2 39.6,3.6 C39.6,12.9 36.1,21.8 33.1,27.7 C29.8,34.3 25.4,40.6 21.5,44.1 C11.1,53.6 1.3,58.1 1.2,58.1 C1.2,58.1 -0.3,59 0.1,60.5 C0.4,61.5 1.3,61.7 1.9,61.7 C2,61.7 2.3,61.6 2.4,61.6 C2.5,61.6 13.9,56.9 23,49.8 C28.1,46.1 32.7,42.1 36.7,37.8 C40.3,33.9 43.4,29.7 45.9,25.5 C50.3,18 52.8,10.2 52.8,3.5 C52.8,-4.8 50.6,-11.7 46.5,-16.6 C41.8,-22.2 34.7,-25.1 25.4,-25.1 M56.8,-12.4 C56.8,-9.6 59,-7.4 61.6,-7.4 C64.2,-7.4 66.4,-9.6 66.4,-12.4 C66.4,-15.2 64.2,-17.5 61.6,-17.5 C59,-17.5 56.8,-15.2 56.8,-12.4 M56.8,12.3 C56.8,15.1 59,17.4 61.6,17.4 C64.2,17.4 66.4,15.1 66.4,12.3 C66.4,9.5 64.2,7.2 61.6,7.2 C59,7.2 56.8,9.5 56.8,12.3"/>
<path class="Clef" transform="matrix(2.3811,0,0,2.3811,212.156,1608.49)" d="M63.37,-5.89004 C62.14,-11.32 59.5,-15.14 58.72,-16.1801 C55.5301,-20.45 51.52,-23.3 46.8301,-24.65 C43.72,-25.54 40.72,-25.65 38.3,-25.47 C37.2601,-31.4801 36.2601,-37.3601 35.35,-42.8101 C40.79,-48.97 44.42,-54.77 46.69,-59.07 C50.1601,-65.65 51.3101,-70.2301 51.3601,-70.4301 C53.0801,-75.64 53.44,-83.34 52.34,-91.55 C51.3301,-99.1 49.24,-105.81 46.89,-109.06 C45.8601,-110.49 44.8101,-111.22 43.77,-111.22 C42.55,-111.22 40.04,-109.98 37.15,-107.21 C34.85,-105.01 31.5801,-101.12 29.02,-95.1101 C26.02,-88.05 25.8101,-78.5601 26.1601,-71.84 C26.54,-64.57 27.65,-58.8801 27.6601,-58.8301 C27.6801,-58.74 27.94,-57.24 28.39,-54.67 C28.1601,-54.44 27.92,-54.22 27.67,-53.9801 C26.6301,-52.9801 25.44,-51.84 24.0601,-50.4601 C23.2,-49.6 22.25,-48.69 21.25,-47.72 C12.79,-39.57 0,-27.25 0,-8.1 C0,-3.4 0.9,1.01992 2.68008,5.02998 C4.27002,8.62998 6.57002,11.91 9.5,14.78 C17.2301,22.33 27.82,25.5399 34.8801,25.38 C37.8301,25.31 40.4601,25.0699 42.85,24.6199 C44.6801,34.2199 45.82,41.25 45.8601,46.5899 C45.9,53.1 44.25,57.0699 40.35,59.8399 C37.92,61.5699 35.1101,62.5199 32.0101,62.6699 C29.42,62.7899 27.1601,62.3199 25.7301,61.91 L25.72,61.91 C25.72,61.91 25.4301,61.83 25.42,61.63 C25.4101,61.45 25.7601,61.4 25.77,61.4 L25.79,61.4 C27.7101,60.96 31.2801,59.73 33.64,56.43 C35.44,53.91 36.3101,49.2899 34.47,45.35 C33.3601,42.96 30.85,40.01 25.2301,39.56 C22.74,39.36 20.47,39.8699 18.47,41.0699 C16.6601,42.15 15.1601,43.7899 14.1101,45.7899 C11.65,50.4899 12.1101,56.2199 15.24,60.06 C18.2,63.68 22.82,65.9899 28.25,66.5699 C29.1,66.66 29.95,66.7 30.8,66.7 C31.5101,66.7 32.22,66.6699 32.92,66.61 C31.72,66.9399 30.64,67.4899 29.77,68.25 C28.2801,69.5399 27.44,71.38 27.44,73.41 C27.44,75.28 28.0601,76.65 29.55,78.0399 C28.4101,78.5 27.55,78.98 26.79,79.56 C25.25,80.73 24.34,82.46 24.34,84.1899 C24.34,87.45 27.3,89.63 31.72,89.63 C37.1301,89.63 40.9101,86.63 40.9101,82.35 C40.9101,80.1199 39.9101,78.18 38.0801,76.83 C41.0101,75.6199 42.37,73.9399 42.37,71.56 C42.39,70.05 41.69,68.61 40.49,67.6899 C39.2801,66.7399 37.62,66.2399 35.69,66.2399 L35.5101,66.2399 C38.2801,65.7 40.92,64.7 43.2101,63.28 C46.87,60.71 48.99,56.73 49.67,51.1 C50.2301,46.46 49.84,40.55 48.44,32.48 C48.0801,30.3899 47.54,27.36 46.8801,23.6 C52.6301,21.68 56.79,18.11 60.5601,12.26 C63.85,6.51992 64.8,0.419922 63.37,-5.89004 M32.39,87.5399 C30.19,87.5399 28.7301,86.1199 28.7301,84.01 C28.7301,82.11 29.65,80.5 31.32,79.4699 C31.6801,79.66 31.77,79.71 32.1101,79.88 C33.3,80.48 33.3,80.48 33.55,80.63 L33.5601,80.6399 C35.47,81.73 36.25,82.76 36.25,84.18 C36.24,86.0899 34.59,87.5399 32.39,87.5399 M38.3101,71.63 C38.3101,73.2699 37.7301,74.3399 36.1801,75.53 C34.74,74.78 34.35,74.56 33.9801,74.3399 L33.8801,74.28 C32.3301,73.3399 31.85,72.66 31.85,71.4 C31.85,69.6 33.2301,68.3399 35.19,68.3399 C37.17,68.35 38.3101,69.55 38.3101,71.63 M33.15,-83.8101 C34.9301,-89.55 37.67,-92.8 39.6601,-94.5301 C41.4101,-96.05 43.0601,-96.7601 43.9801,-96.7601 C44.12,-96.7601 44.24,-96.74 44.34,-96.7101 C44.8,-96.57 45.3301,-96 45.8,-95.1301 C48.1101,-90.84 47.37,-84.1301 46.0301,-79.69 C44.4,-74.29 41.4801,-68.6801 32.69,-59.0601 C32.52,-60.17 32.3601,-61.22 32.2101,-62.2 C30.95,-70.49 31.27,-77.7601 33.15,-83.8101 M29.15,20.31 C24.5101,19.0899 20.0801,16.5899 16.32,13.0899 C15.0101,11.86 13.14,9.68994 11.67,6.3 C10.3101,3.13994 9.65,-0.290039 9.7,-3.88008 C9.77002,-8.57002 11.0801,-13.39 13.59,-18.1801 C16.5101,-23.7601 21.07,-29.29 27.1301,-34.62 C28.5801,-35.9 29.95,-37.1801 31.24,-38.4601 C32,-34.2 32.8301,-29.5101 33.7101,-24.6301 C29.8601,-23.3601 25.1101,-20.2101 22,-14.5601 C18.47,-7.99004 18.6101,-2.47002 19.34,1.00996 C20.2801,5.46992 22.8101,9.22998 26.27,11.3199 C27.2,11.88 31.3301,14.01 33.17,13.43 C33.54,13.31 33.8101,13.0899 33.95,12.76 C34.4601,11.5899 33.44,10.95 31.8801,9.98994 C31.2801,9.61992 30.6101,9.2 29.8801,8.66992 C26.5601,6.17998 25.1101,1.72998 26.1801,-2.65 C26.7601,-5.05 28.04,-7.21006 29.8801,-8.91006 C31.55,-10.4601 33.59,-11.5601 35.97,-12.2 C38.0101,-0.960059 40.07,10.1899 41.7101,18.55 C41.84,19.2399 41.9801,19.91 42.1101,20.58 C37.7101,21.51 33.37,21.4199 29.15,20.31 M54.9,10.1 C53.7301,13.28 51.27,17.35 46.14,19.41 C46.07,18.9899 45.99,18.56 45.9101,18.13 C44.3601,9.36992 42.4301,-1.61006 40.47,-12.87 C50.82,-13.35 55.09,-5.91006 55.9801,-1.08008 C56.45,1.45 56.45,5.88994 54.9,10.1"/>
<path class="FiguredBass" d="M1466.26,2510.66 C1461.69,2510.66 1458.64,2512.5 1457.12,2516.18 C1455.61,2519.86 1454.85,2525.07 1454.85,2531.81 L1454.85,2542.76 C1458.07,2541.46 1460.85,2540.78 1463.2,2540.72 C1471.24,2540.72 1477.57,2542.49 1482.17,2546.05 C1486.78,2549.61 1489.08,2554.9 1489.08,2561.92 C1489.08,2568.94 1486.75,2574.24 1482.08,2577.83 C1477.41,2581.41 1471.12,2583.21 1463.2,2583.21 C1455.1,2583.21 1448.76,2579.45 1444.18,2571.93 C1439.61,2564.42 1437.32,2555.5 1437.32,2545.17 C1437.32,2534.9 1439.98,2526 1445.3,2518.45 C1450.61,2510.91 1457.6,2507.13 1466.26,2507.13 C1471.95,2507.13 1476.87,2508.57 1481.01,2511.45 C1485.16,2514.32 1487.23,2518.11 1487.23,2522.81 C1487.23,2525.53 1486.24,2527.88 1484.26,2529.86 C1482.28,2531.84 1479.92,2532.83 1477.16,2532.83 C1474.41,2532.83 1472.05,2531.84 1470.07,2529.86 C1468.09,2527.88 1467.1,2525.53 1467.1,2522.81 C1467.1,2520.15 1468.09,2517.8 1470.07,2515.76 C1470.75,2514.96 1471.71,2514.28 1472.94,2513.72 C1472.63,2512.92 1472.01,2512.3 1471.09,2511.86 C1469.73,2511.06 1468.12,2510.66 1466.26,2510.66 M1470.81,2548.6 C1469.7,2545.7 1467.25,2544.24 1463.48,2544.24 C1459.71,2544.24 1457.37,2545.7 1456.47,2548.6 C1455.58,2551.51 1455.13,2555.93 1455.13,2561.87 C1455.13,2568.86 1455.58,2573.56 1456.47,2575.97 C1457.37,2578.38 1459.71,2579.59 1463.48,2579.59 C1467.25,2579.59 1469.7,2578.14 1470.81,2575.23 C1471.92,2572.32 1472.48,2567.88 1472.48,2561.92 C1472.48,2555.95 1471.92,2551.51 1470.81,2548.6"/>
<path class="FiguredBass" d="M3317.59,2510.66 C3313.02,2510.66 3309.97,2512.5 3308.46,2516.18 C3306.94,2519.86 3306.18,2525.07 3306.18,2531.81 L3306.18,2542.76 C3309.4,2541.46 3312.18,2540.78 3314.53,2540.72 C3322.57,2540.72 3328.9,2542.49 3333.51,2546.05 C3338.11,2549.61 3340.42,2554.9 3340.42,2561.92 C3340.42,2568.94 3338.08,2574.24 3333.41,2577.83 C3328.74,2581.41 3322.45,2583.21 3314.53,2583.21 C3306.43,2583.21 3300.09,2579.45 3295.51,2571.93 C3290.94,2564.42 3288.65,2555.5 3288.65,2545.17 C3288.65,2534.9 3291.31,2526 3296.63,2518.45 C3301.95,2510.91 3308.94,2507.13 3317.59,2507.13 C3323.28,2507.13 3328.2,2508.57 3332.35,2511.45 C3336.49,2514.32 3338.56,2518.11 3338.56,2522.81 C3338.56,2525.53 3337.57,2527.88 3335.59,2529.86 C3333.61,2531.84 3331.25,2532.83 3328.5,2532.83 C3325.74,2532.83 3323.38,2531.84 3321.4,2529.86 C3319.42,2527.88 3318.43,2525.53 3318.43,2522.81 C3318.43,2520.15 3319.42,2517.8 3321.4,2515.76 C3322.08,2514.96 3323.04,2514.28 3324.27,2513.72 C3323.96,2512.92 3323.35,2512.3 3322.42,2511.86 C3321.06,2511.06 3319.45,2510.66 3317.59,2510.66 M3322.14,2548.6 C3321.03,2545.7 3318.58,2544.24 3314.81,2544.24 C3311.04,2544.24 3308.7,2545.7 3307.81,2548.6 C3306.91,2551.51 3306.46,2555.93 3306.46,2561.87 C3306.46,2568.86 3306.91,2573.56 3307.81,2575.97 C3308.7,2578.38 3311.04,2579.59 3314.81,2579.59 C3318.58,2579.59 3321.03,2578.14 3322.14,2575.23 C3323.25,2572.32 3323.81,2567.88 3323.81,2561.92 C3323.81,2555.95 3323.25,2551.51 3322.14,2548.6"/>
<path class="FiguredBass" d="M1478.14,1835.4 C1478.14,1836.39 1478.69,1837.35 1479.81,1838.27 C1480.92,1839.2 1482.14,1840.08 1483.47,1840.92 C1484.8,1841.75 1486.02,1843.33 1487.14,1845.65 C1488.25,1847.97 1488.81,1850.89 1488.81,1854.42 C1488.81,1861.22 1486.24,1866.48 1481.11,1870.19 C1475.97,1873.9 1469.48,1875.75 1461.62,1875.75 C1455.32,1875.75 1449.83,1874.18 1445.16,1871.02 C1440.49,1867.87 1438.15,1863.72 1438.15,1858.59 C1438.15,1855.87 1439.14,1853.5 1441.12,1851.49 C1443.1,1849.48 1445.47,1848.48 1448.22,1848.48 C1450.97,1848.48 1453.31,1849.47 1455.22,1851.45 C1457.14,1853.43 1458.1,1855.81 1458.1,1858.59 C1458.1,1859.83 1457.08,1861.17 1455.04,1862.63 C1453,1864.08 1451.98,1865.43 1451.98,1866.66 C1451.98,1868.58 1452.92,1869.99 1454.81,1870.88 C1456.69,1871.78 1458.96,1872.23 1461.62,1872.23 C1465.09,1872.23 1467.55,1870.51 1469,1867.08 C1470.45,1863.65 1471.18,1859.43 1471.18,1854.42 L1471.18,1852 C1471.18,1848.66 1471.07,1846.13 1470.85,1844.4 C1470.64,1842.66 1469.96,1841.12 1468.81,1839.76 C1467.67,1838.4 1465.92,1837.72 1463.57,1837.72 L1451.42,1837.72 C1450,1837.72 1449.29,1836.94 1449.29,1835.4 C1449.29,1833.97 1450,1833.26 1451.42,1833.26 L1463.57,1833.26 C1466.11,1833.26 1468.09,1832.3 1469.51,1830.39 C1470,1829.71 1470.41,1828.59 1470.72,1827.05 C1471.02,1825.01 1471.18,1822.07 1471.18,1818.23 L1471.18,1817.03 C1471.18,1807.81 1467.78,1803.2 1460.97,1803.2 C1454.98,1803.2 1451.98,1804.87 1451.98,1808.21 C1451.98,1809.33 1452.89,1810.52 1454.71,1811.79 C1456.54,1813.05 1457.45,1814.24 1457.45,1815.36 C1457.45,1817.77 1456.6,1819.84 1454.9,1821.57 C1453.2,1823.31 1451.13,1824.17 1448.68,1824.17 C1446.24,1824.17 1444.18,1823.31 1442.51,1821.57 C1440.84,1819.84 1440.01,1817.77 1440.01,1815.36 C1440.01,1810.6 1442.08,1806.79 1446.22,1803.95 C1450.37,1801.1 1455.28,1799.68 1460.97,1799.68 C1468.46,1799.68 1474.61,1801.12 1479.44,1803.99 C1484.26,1806.87 1486.67,1811.21 1486.67,1817.03 C1486.67,1821.17 1486.24,1824.39 1485.37,1826.68 C1484.51,1828.97 1483.52,1830.36 1482.41,1830.85 C1481.29,1831.35 1480.3,1831.92 1479.44,1832.57 C1478.57,1833.22 1478.14,1834.16 1478.14,1835.4"/>
<path class="FiguredBass" d="M1466.26,1908.95 C1461.69,1908.95 1458.64,1910.79 1457.12,1914.47 C1455.61,1918.15 1454.85,1923.37 1454.85,1930.11 L1454.85,1941.05 C1458.07,1939.76 1460.85,1939.08 1463.2,1939.01 C1471.24,1939.01 1477.57,1940.79 1482.17,1944.35 C1486.78,1947.9 1489.08,1953.19 1489.08,1960.21 C1489.08,1967.23 1486.75,1972.54 1482.08,1976.12 C1477.41,1979.71 1471.12,1981.5 1463.2,1981.5 C1455.1,1981.5 1448.76,1977.75 1444.18,1970.23 C1439.61,1962.72 1437.32,1953.8 1437.32,1943.47 C1437.32,1933.2 1439.98,1924.29 1445.3,1916.75 C1450.61,1909.2 1457.6,1905.43 1466.26,1905.43 C1471.95,1905.43 1476.87,1906.87 1481.01,1909.74 C1485.16,1912.62 1487.23,1916.41 1487.23,1921.11 C1487.23,1923.83 1486.24,1926.18 1484.26,1928.16 C1482.28,1930.14 1479.92,1931.13 1477.16,1931.13 C1474.41,1931.13 1472.05,1930.14 1470.07,1928.16 C1468.09,1926.18 1467.1,1923.83 1467.1,1921.11 C1467.1,1918.45 1468.09,1916.1 1470.07,1914.06 C1470.75,1913.25 1471.71,1912.57 1472.94,1912.02 C1472.63,1911.21 1472.01,1910.59 1471.09,1910.16 C1469.73,1909.36 1468.12,1908.95 1466.26,1908.95 M1470.81,1946.9 C1469.7,1943.99 1467.25,1942.54 1463.48,1942.54 C1459.71,1942.54 1457.37,1943.99 1456.47,1946.9 C1455.58,1949.81 1455.13,1954.23 1455.13,1960.17 C1455.13,1967.15 1455.58,1971.86 1456.47,1974.27 C1457.37,1976.68 1459.71,1977.89 1463.48,1977.89 C1467.25,1977.89 1469.7,1976.43 1470.81,1973.53 C1471.92,1970.62 1472.48,1966.18 1472.48,1960.21 C1472.48,1954.24 1471.92,1949.81 1470.81,1946.9"/>
<path class="FiguredBass" d="M1478.14,2046.9 C1478.14,2047.89 1478.69,2048.85 1479.81,2049.77 C1480.92,2050.7 1482.14,2051.58 1483.47,2052.42 C1484.8,2053.25 1486.02,2054.83 1487.14,2057.15 C1488.25,2059.47 1488.81,2062.39 1488.81,2065.92 C1488.81,2072.72 1486.24,2077.98 1481.11,2081.69 C1475.97,2085.4 1469.48,2087.25 1461.62,2087.25 C1455.32,2087.25 1449.83,2085.68 1445.16,2082.52 C1440.49,2079.37 1438.15,2075.22 1438.15,2070.09 C1438.15,2067.37 1439.14,2065 1441.12,2062.99 C1443.1,2060.98 1445.47,2059.98 1448.22,2059.98 C1450.97,2059.98 1453.31,2060.97 1455.22,2062.95 C1457.14,2064.93 1458.1,2067.31 1458.1,2070.09 C1458.1,2071.33 1457.08,2072.67 1455.04,2074.13 C1453,2075.58 1451.98,2076.93 1451.98,2078.16 C1451.98,2080.08 1452.92,2081.49 1454.81,2082.38 C1456.69,2083.28 1458.96,2083.73 1461.62,2083.73 C1465.09,2083.73 1467.55,2082.01 1469,2078.58 C1470.45,2075.15 1471.18,2070.93 1471.18,2065.92 L1471.18,2063.5 C1471.18,2060.16 1471.07,2057.63 1470.85,2055.9 C1470.64,2054.16 1469.96,2052.62 1468.81,2051.26 C1467.67,2049.9 1465.92,2049.22 1463.57,2049.22 L1451.42,2049.22 C1450,2049.22 1449.29,2048.44 1449.29,2046.9 C1449.29,2045.47 1450,2044.76 1451.42,2044.76 L1463.57,2044.76 C1466.11,2044.76 1468.09,2043.8 1469.51,2041.89 C1470,2041.21 1470.41,2040.09 1470.72,2038.55 C1471.02,2036.51 1471.18,2033.57 1471.18,2029.73 L1471.18,2028.53 C1471.18,2019.31 1467.78,2014.7 1460.97,2014.7 C1454.98,2014.7 1451.98,2016.37 1451.98,2019.71 C1451.98,2020.83 1452.89,2022.02 1454.71,2023.29 C1456.54,2024.55 1457.45,2025.74 1457.45,2026.86 C1457.45,2029.27 1456.6,2031.34 1454.9,2033.07 C1453.2,2034.81 1451.13,2035.67 1448.68,2035.67 C1446.24,2035.67 1444.18,2034.81 1442.51,2033.07 C1440.84,2031.34 1440.01,2029.27 1440.01,2026.86 C1440.01,2022.1 1442.08,2018.29 1446.22,2015.45 C1450.37,2012.6 1455.28,2011.18 1460.97,2011.18 C1468.46,2011.18 1474.61,2012.62 1479.44,2015.49 C1484.26,2018.37 1486.67,2022.71 1486.67,2028.53 C1486.67,2032.67 1486.24,2035.89 1485.37,2038.18 C1484.51,2040.47 1483.52,2041.86 1482.41,2042.35 C1481.29,2042.85 1480.3,2043.42 1479.44,2044.07 C1478.57,2044.72 1478.14,2045.66 1478.14,2046.9"/>
<path class="FiguredBass" d="M3329.47,1835.4 C3329.47,1836.39 3330.03,1837.35 3331.14,1838.27 C3332.25,1839.2 3333.47,1840.08 3334.8,1840.92 C3336.13,1841.75 3337.36,1843.33 3338.47,1845.65 C3339.58,1847.97 3340.14,1850.89 3340.14,1854.42 C3340.14,1861.22 3337.57,1866.48 3332.44,1870.19 C3327.3,1873.9 3320.81,1875.75 3312.96,1875.75 C3306.65,1875.75 3301.16,1874.18 3296.49,1871.02 C3291.82,1867.87 3289.48,1863.72 3289.48,1858.59 C3289.48,1855.87 3290.47,1853.5 3292.45,1851.49 C3294.43,1849.48 3296.8,1848.48 3299.55,1848.48 C3302.3,1848.48 3304.64,1849.47 3306.55,1851.45 C3308.47,1853.43 3309.43,1855.81 3309.43,1858.59 C3309.43,1859.83 3308.41,1861.17 3306.37,1862.63 C3304.33,1864.08 3303.31,1865.43 3303.31,1866.66 C3303.31,1868.58 3304.25,1869.99 3306.14,1870.88 C3308.02,1871.78 3310.3,1872.23 3312.96,1872.23 C3316.42,1872.23 3318.88,1870.51 3320.33,1867.08 C3321.78,1863.65 3322.51,1859.43 3322.51,1854.42 L3322.51,1852 C3322.51,1848.66 3322.4,1846.13 3322.19,1844.4 C3321.97,1842.66 3321.29,1841.12 3320.15,1839.76 C3319,1838.4 3317.25,1837.72 3314.9,1837.72 L3302.75,1837.72 C3301.33,1837.72 3300.62,1836.94 3300.62,1835.4 C3300.62,1833.97 3301.33,1833.26 3302.75,1833.26 L3314.9,1833.26 C3317.44,1833.26 3319.42,1832.3 3320.84,1830.39 C3321.34,1829.71 3321.74,1828.59 3322.05,1827.05 C3322.36,1825.01 3322.51,1822.07 3322.51,1818.23 L3322.51,1817.03 C3322.51,1807.81 3319.11,1803.2 3312.31,1803.2 C3306.31,1803.2 3303.31,1804.87 3303.31,1808.21 C3303.31,1809.33 3304.22,1810.52 3306.04,1811.79 C3307.87,1813.05 3308.78,1814.24 3308.78,1815.36 C3308.78,1817.77 3307.93,1819.84 3306.23,1821.57 C3304.53,1823.31 3302.46,1824.17 3300.01,1824.17 C3297.57,1824.17 3295.51,1823.31 3293.84,1821.57 C3292.17,1819.84 3291.34,1817.77 3291.34,1815.36 C3291.34,1810.6 3293.41,1806.79 3297.56,1803.95 C3301.7,1801.1 3306.62,1799.68 3312.31,1799.68 C3319.79,1799.68 3325.94,1801.12 3330.77,1803.99 C3335.59,1806.87 3338,1811.21 3338,1817.03 C3338,1821.17 3337.57,1824.39 3336.71,1826.68 C3335.84,1828.97 3334.85,1830.36 3333.74,1830.85 C3332.62,1831.35 3331.63,1831.92 3330.77,1832.57 C3329.9,1833.22 3329.47,1834.16 3329.47,1835.4"/>
<path class="FiguredBass" d="M3317.59,1908.95 C3313.02,1908.95 3309.97,1910.79 3308.46,1914.47 C3306.94,1918.15 3306.18,1923.37 3306.18,1930.11 L3306.18,1941.05 C3309.4,1939.76 3312.18,1939.08 3314.53,1939.01 C3322.57,1939.01 3328.9,1940.79 3333.51,1944.35 C3338.11,1947.9 3340.42,1953.19 3340.42,1960.21 C3340.42,1967.23 3338.08,1972.54 3333.41,1976.12 C3328.74,1979.71 3322.45,1981.5 3314.53,1981.5 C3306.43,1981.5 3300.09,1977.75 3295.51,1970.23 C3290.94,1962.72 3288.65,1953.8 3288.65,1943.47 C3288.65,1933.2 3291.31,1924.29 3296.63,1916.75 C3301.95,1909.2 3308.94,1905.43 3317.59,1905.43 C3323.28,1905.43 3328.2,1906.87 3332.35,1909.74 C3336.49,1912.62 3338.56,1916.41 3338.56,1921.11 C3338.56,1923.83 3337.57,1926.18 3335.59,1928.16 C3333.61,1930.14 3331.25,1931.13 3328.5,1931.13 C3325.74,1931.13 3323.38,1930.14 3321.4,1928.16 C3319.42,1926.18 3318.43,1923.83 3318.43,1921.11 C3318.43,1918.45 3319.42,1916.1 3321.4,1914.06 C3322.08,1913.25 3323.04,1912.57 3324.27,1912.02 C3323.96,1911.21 3323.35,1910.59 3322.42,1910.16 C3321.06,1909.36 3319.45,1908.95 3317.59,1908.95 M3322.14,1946.9 C3321.03,1943.99 3318.58,1942.54 3314.81,1942.54 C3311.04,1942.54 3308.7,1943.99 3307.81,1946.9 C3306.91,1949.81 3306.46,1954.23 3306.46,1960.17 C3306.46,1967.15 3306.91,1971.86 3307.81,1974.27 C3308.7,1976.68 3311.04,1977.89 3314.81,1977.89 C3318.58,1977.89 3321.03,1976.43 3322.14,1973.53 C3323.25,1970.62 3323.81,1966.18 3323.81,1960.21 C3323.81,1954.24 3323.25,1949.81 3322.14,1946.9"/>
<polyline class="FretDiagram" stroke="#0000ff" stroke-width="11.91" stroke-linejoin="bevel" points="3213.98,206.022 3427.08,206.022"/>
<polyline class="FretDiagram" stroke="#0000ff" stroke-width="4.76" stroke-linejoin="bevel" points="3216.36,206.022 3216.36,420.321"/>
<polyline class="FretDiagram" stroke="#0000ff" stroke-width="4.76" stroke-linejoin="bevel" points="3258.03,206.022 3258.03,420.321"/>
<polyline class="FretDiagram" stroke="#0000ff" stroke-width="4.76" stroke-linejoin="bevel" points="3299.69,206.022 3299.69,420.321"/>
<polyline class="FretDiagram" stroke="#0000ff" stroke-width="4.76" stroke-linejoin="bevel" points="3341.36,206.022 3341.36,420.321"/>
<polyline class="FretDiagram" stroke="#0000ff" stroke-width="4.76" stroke-linejoin="bevel" points="3383.03,206.022 3383.03,420.321"/>
<polyline class="FretDiagram" stroke="#0000ff" stroke-width="4.76" stroke-linejoin="bevel" points="3424.7,206.022 3424.7,420.321"/>
<polyline class="FretDiagram" stroke="#0000ff" stroke-width="4.76" stroke-linejoin="bevel" points="3216.36,253.644 3424.7,253.644"/>
<polyline class="FretDiagram" stroke="#0000ff" stroke-width="4.76" stroke-linejoin="bevel" points="3216.36,301.266 3424.7,301.266"/>
<polyline class="FretDiagram" stroke="#0000ff" stroke-width="4.76" stroke-linejoin="bevel" points="3216.36,348.888 3424.7,348.888"/>
<polyline class="FretDiagram" stroke="#0000ff" stroke-width="4.76" stroke-linejoin="bevel" points="3216.36,396.51 3424.7,396.51"/>
<path class="FretDiagram" fill="#0000ff" fill-rule="evenodd" d="M3355.95,229.833 C3355.95,237.888 3349.42,244.417 3341.36,244.417 C3333.31,244.417 3326.78,237.888 3326.78,229.833 C3326.78,221.778 3333.31,215.249 3341.36,215.249 C3349.42,215.249 3355.95,221.778 3355.95,229.833"/>
<path class="FretDiagram" fill="#0000ff" fill-rule="evenodd" d="M3397.62,229.833 C3397.62,237.888 3391.09,244.417 3383.03,244.417 C3374.98,244.417 3368.45,237.888 3368.45,229.833 C3368.45,221.778 3374.98,215.249 3383.03,215.249 C3391.09,215.249 3397.62,221.778 3397.62,229.833"/>
<path class="FretDiagram" fill="none" stroke="#0000ff" stroke-width="6.86" stroke-linecap="round" stroke-linejoin="bevel" fill-rule="evenodd" d="M3233.02,158.4 C3233.02,167.605 3225.56,175.068 3216.36,175.068 C3207.15,175.068 3199.69,167.605 3199.69,158.4 C3199.69,149.195 3207.15,141.732 3216.36,141.732 C3225.56,141.732 3233.02,149.195 3233.02,158.4"/>
<polyline class="FretDiagram" fill="none" stroke="#0000ff" stroke-width="6.86" stroke-linecap="round" stroke-linejoin="bevel" points="3241.36,141.732 3274.69,175.068"/>
<polyline class="FretDiagram" fill="none" stroke="#0000ff" stroke-width="6.86" stroke-linecap="round" stroke-linejoin="bevel" points="3241.36,175.068 3274.69,141.732"/>
<polyline class="FretDiagram" fill="none" stroke="#0000ff" stroke-width="6.86" stroke-linecap="round" stroke-linejoin="bevel" points="3283.03,141.732 3316.36,175.068"/>
<polyline class="FretDiagram" fill="none" stroke="#0000ff" stroke-width="6.86" stroke-linecap="round" stroke-linejoin="bevel" points="3283.03,175.068 3316.36,141.732"/>
<polyline class="FretDiagram" fill="none" stroke="#0000ff" stroke-width="6.86" stroke-linecap="round" stroke-linejoin="bevel" points="3408.04,141.732 3441.37,175.068"/>
<polyline class="FretDiagram" fill="none" stroke="#0000ff" stroke-width="6.86" stroke-linecap="round" stroke-linejoin="bevel" points="3408.04,175.068 3441.37,141.732"/>
<path class="Bracket" transform="matrix(8.6315,0,0,9.45563,76.1283,2375.47)" d="M0.92002,-50 C2.69004,-51.88 6.2,-55.8 6.2,-63 C6.2,-72.1 2.25996,-81.32 2.25996,-86.97 C2.25996,-93.06 5.84004,-98.84 5.95,-99 C6.05996,-99.16 6.05,-99.39 5.94004,-99.46 C5.82998,-99.53 5.62002,-99.47 5.49004,-99.32 C5.35996,-99.17 0,-93.75 0,-85.6 C0,-76.75 3.5,-70.58 3.5,-59.07 C3.5,-56.89 2.55996,-53.36 0.1,-50.33 C-0.0799805,-50.17 -0.1,-49.89 0.0599609,-49.7 L0.0700195,-49.69 L0.1,-49.66 C2.55996,-46.63 3.5,-43.1 3.5,-40.92 C3.5,-29.4 0,-23.24 0,-14.39 C0,-6.25 5.35996,-0.8 5.49004,-0.659961 C5.62002,-0.52002 5.8,-0.42998 5.94004,-0.52002 C6.07998,-0.609961 6.07998,-0.77998 5.95,-0.97998 C5.82002,-1.17998 2.25996,-6.92002 2.25996,-13.01 C2.25996,-18.66 6.2,-27.9 6.2,-37 C6.2,-44.3 2.69004,-48.12 0.92002,-50"/>
</svg>
