<?xml version="1.0" encoding="UTF-8" standalone="no"?>
<svg width="4209.44px" height="2976.38px" viewBox="0 0 4209.44 2976.38"
 xmlns="http://www.w3.org/2000/svg" xmlns:xlink="http://www.w3.org/1999/xlink" version="1.2" baseProfile="tiny">
<title>DoMajeur (18)</title>
<desc>Generated by MuseScore 3.6.2</desc>
<polyline class="StaffLines" fill="none" stroke="#000000" stroke-width="6.55" stroke-linejoin="bevel" points="153.819,558.425 4138.58,558.425"/>
<polyline class="StaffLines" fill="none" stroke="#000000" stroke-width="6.55" stroke-linejoin="bevel" points="153.819,647.717 4138.58,647.717"/>
<polyline class="StaffLines" fill="none" stroke="#000000" stroke-width="6.55" stroke-linejoin="bevel" points="153.819,737.008 4138.58,737.008"/>
<polyline class="StaffLines" fill="none" stroke="#000000" stroke-width="6.55" stroke-linejoin="bevel" points="153.819,826.299 4138.58,826.299"/>
<polyline class="StaffLines" fill="none" stroke="#000000" stroke-width="6.55" stroke-linejoin="bevel" points="153.819,915.591 4138.58,915.591"/>
<polyline class="StaffLines" fill="none" stroke="#000000" stroke-width="6.55" stroke-linejoin="bevel" points="153.819,1004.88 4138.58,1004.88"/>
<polyline class="StaffLines" fill="none" stroke="#000000" stroke-width="6.55" stroke-linejoin="bevel" points="153.819,1391.81 4138.58,1391.81"/>
<polyline class="StaffLines" fill="none" stroke="#000000" stroke-width="6.55" stroke-linejoin="bevel" points="153.819,1451.34 4138.58,1451.34"/>
<polyline class="StaffLines" fill="none" stroke="#000000" stroke-width="6.55" stroke-linejoin="bevel" points="153.819,1510.87 4138.58,1510.87"/>
<polyline class="StaffLines" fill="none" stroke="#000000" stroke-width="6.55" stroke-linejoin="bevel" points="153.819,1570.39 4138.58,1570.39"/>
<polyline class="StaffLines" fill="none" stroke="#000000" stroke-width="6.55" stroke-linejoin="bevel" points="153.819,1629.92 4138.58,1629.92"/>
<polyline class="StaffLines" fill="none" stroke="#000000" stroke-width="6.55" stroke-linejoin="bevel" points="153.819,2187.89 4138.58,2187.89"/>
<polyline class="StaffLines" fill="none" stroke="#000000" stroke-width="6.55" stroke-linejoin="bevel" points="153.819,2247.41 4138.58,2247.41"/>
<polyline class="StaffLines" fill="none" stroke="#000000" stroke-width="6.55" stroke-linejoin="bevel" points="153.819,2306.94 4138.58,2306.94"/>
<polyline class="StaffLines" fill="none" stroke="#000000" stroke-width="6.55" stroke-linejoin="bevel" points="153.819,2366.47 4138.58,2366.47"/>
<polyline class="StaffLines" fill="none" stroke="#000000" stroke-width="6.55" stroke-linejoin="bevel" points="153.819,2426 4138.58,2426"/>
<path class="Symbol" transform="matrix(2.3811,0,0,2.3811,3146.81,1570.39)" d="M0,-0.1 C0,7.7 4,14 10.4,18.1 L10.9,17.4 C7.5,14.8 6.3,13.3 5.2,10.1 C4.2,7.2 3.7,4 3.7,-0.2 C3.7,-8.1 4.8,-12.3 10.9,-17.4 L10.5,-18.1 C3.9,-13.6 0,-8.5 0,-0.1"/>
<path class="Symbol" transform="matrix(2.3811,0,0,2.3811,3261.56,1570.39)" d="M3.7,-0.2 C3.7,4 3.2,7.2 2.2,10.1 C1,13.3 -0.2,14.8 -3.6,17.4 L-3,18.1 C3.4,14.1 7.3,7.6 7.3,-0.1 C7.3,-8.4 3.4,-13.8 -3.2,-18.1 L-3.6,-17.4 C2.6,-12.4 3.7,-8.1 3.7,-0.2"/>
<path class="Symbol" transform="matrix(2.3811,0,0,2.3811,3147.08,617.953)" d="M0,-0.1 C0,7.7 4,14 10.4,18.1 L10.9,17.4 C7.5,14.8 6.3,13.3 5.2,10.1 C4.2,7.2 3.7,4 3.7,-0.2 C3.7,-8.1 4.8,-12.3 10.9,-17.4 L10.5,-18.1 C3.9,-13.6 0,-8.5 0,-0.1"/>
<path class="Symbol" transform="matrix(2.3811,0,0,2.3811,3273.22,617.953)" d="M3.7,-0.2 C3.7,4 3.2,7.2 2.2,10.1 C1,13.3 -0.2,14.8 -3.6,17.4 L-3,18.1 C3.4,14.1 7.3,7.6 7.3,-0.1 C7.3,-8.4 3.4,-13.8 -3.2,-18.1 L-3.6,-17.4 C2.6,-12.4 3.7,-8.1 3.7,-0.2"/>
<polyline class="BarLine" fill="none" stroke="#000000" stroke-width="10.71" stroke-linejoin="bevel" points="159.176,2184.61 159.176,2429.27"/>
<polyline class="BarLine" fill="none" stroke="#000000" stroke-width="10.71" stroke-linejoin="bevel" points="1069.63,2184.61 1069.63,2429.27"/>
<polyline class="BarLine" fill="none" stroke="#000000" stroke-width="10.71" stroke-linejoin="bevel" points="1563.83,2184.61 1563.83,2429.27"/>
<polyline class="BarLine" fill="none" stroke="#000000" stroke-width="10.71" stroke-linejoin="bevel" points="2043.97,2184.61 2043.97,2429.27"/>
<polyline class="BarLine" fill="none" stroke="#000000" stroke-width="10.71" stroke-linejoin="bevel" points="2076.72,2184.61 2076.72,2429.27"/>
<polyline class="BarLine" fill="none" stroke="#000000" stroke-width="10.71" stroke-linejoin="bevel" points="2571.97,2184.61 2571.97,2429.27"/>
<polyline class="BarLine" fill="none" stroke="#000000" stroke-width="10.71" stroke-linejoin="bevel" points="3064.06,2184.61 3064.06,2429.27"/>
<polyline class="BarLine" fill="none" stroke="#000000" stroke-width="10.71" stroke-linejoin="bevel" points="3585.28,2184.61 3585.28,2429.27"/>
<polyline class="BarLine" fill="none" stroke="#000000" stroke-width="10.71" stroke-linejoin="bevel" points="4080.54,2184.61 4080.54,2429.27"/>
<polyline class="BarLine" fill="none" stroke="#000000" stroke-width="32.74" stroke-linejoin="bevel" points="4122.21,2184.61 4122.21,2429.27"/>
<polyline class="BarLine" fill="none" stroke="#000000" stroke-width="10.71" stroke-linejoin="bevel" points="159.176,1388.54 159.176,2187.89"/>
<polyline class="BarLine" fill="none" stroke="#000000" stroke-width="10.71" stroke-linejoin="bevel" points="1069.63,1388.54 1069.63,1633.2"/>
<polyline class="BarLine" fill="none" stroke="#000000" stroke-width="10.71" stroke-linejoin="bevel" points="1563.83,1388.54 1563.83,1633.2"/>
<polyline class="BarLine" fill="none" stroke="#000000" stroke-width="10.71" stroke-linejoin="bevel" points="2043.97,1388.54 2043.97,1633.2"/>
<polyline class="BarLine" fill="none" stroke="#000000" stroke-width="10.71" stroke-linejoin="bevel" points="2076.72,1388.54 2076.72,1633.2"/>
<polyline class="BarLine" fill="none" stroke="#000000" stroke-width="10.71" stroke-linejoin="bevel" points="2571.97,1388.54 2571.97,1633.2"/>
<polyline class="BarLine" fill="none" stroke="#000000" stroke-width="10.71" stroke-linejoin="bevel" points="3064.06,1388.54 3064.06,1633.2"/>
<polyline class="BarLine" fill="none" stroke="#000000" stroke-width="10.71" stroke-linejoin="bevel" points="3585.28,1388.54 3585.28,1633.2"/>
<polyline class="BarLine" fill="none" stroke="#000000" stroke-width="10.71" stroke-linejoin="bevel" points="4080.54,1388.54 4080.54,1633.2"/>
<polyline class="BarLine" fill="none" stroke="#000000" stroke-width="32.74" stroke-linejoin="bevel" points="4122.21,1388.54 4122.21,1633.2"/>
<polyline class="BarLine" fill="none" stroke="#000000" stroke-width="10.71" stroke-linejoin="bevel" points="159.176,555.151 159.176,1391.81"/>
<polyline class="BarLine" fill="none" stroke="#000000" stroke-width="10.71" stroke-linejoin="bevel" points="1069.63,555.151 1069.63,1008.16"/>
<polyline class="BarLine" fill="none" stroke="#000000" stroke-width="10.71" stroke-linejoin="bevel" points="1563.83,555.151 1563.83,1008.16"/>
<polyline class="BarLine" fill="none" stroke="#000000" stroke-width="10.71" stroke-linejoin="bevel" points="2043.97,555.151 2043.97,1008.16"/>
<polyline class="BarLine" fill="none" stroke="#000000" stroke-width="10.71" stroke-linejoin="bevel" points="2076.72,555.151 2076.72,1008.16"/>
<polyline class="BarLine" fill="none" stroke="#000000" stroke-width="10.71" stroke-linejoin="bevel" points="2571.97,555.151 2571.97,1008.16"/>
<polyline class="BarLine" fill="none" stroke="#000000" stroke-width="10.71" stroke-linejoin="bevel" points="3064.06,555.151 3064.06,1008.16"/>
<polyline class="BarLine" fill="none" stroke="#000000" stroke-width="10.71" stroke-linejoin="bevel" points="3585.28,555.151 3585.28,1008.16"/>
<polyline class="BarLine" fill="none" stroke="#000000" stroke-width="10.71" stroke-linejoin="bevel" points="4080.54,555.151 4080.54,1008.16"/>
<polyline class="BarLine" fill="none" stroke="#000000" stroke-width="32.74" stroke-linejoin="bevel" points="4122.21,555.151 4122.21,1008.16"/>
<path class="Accidental" transform="matrix(2.3811,0,0,2.3811,513.384,1600.16)" d="M23.3,-10.6 C23.9,-10.7 24.4,-11.4 24.4,-12 L24.4,-17.9 C24.4,-18.7 23.8,-19.3 23,-19.3 L22.8,-19.3 L19.5,-18.6 L19.5,-33.5 L16.7,-33.5 L16.7,-18 L7.8,-16.2 L7.8,-30.3 L5,-30.3 L5,-15.6 L1.1,-14.8 C0.5,-14.7 0,-14 0,-13.4 L0,-13.2 L0,-7.4 L0,-7.6 C0,-6.8 0.6,-6.2 1.4,-6.2 L1.7,-6.2 L5,-6.9 L5,9.6 L1.1,10.4 C0.5,10.5 0,11.2 0,11.8 L0,17.6 C0,18.4 0.6,19 1.4,19 L1.7,19 L5,18.3 L5,33.2 L7.8,33.2 L7.8,17.7 L16.7,15.9 L16.7,30 L19.5,30 L19.5,15.3 L23.3,14.6 C23.9,14.5 24.4,13.8 24.4,13.2 L24.4,7.3 C24.4,6.5 23.8,5.9 23,5.9 L22.8,5.9 L19.5,6.6 L19.5,-9.9 L23.3,-10.6 M7.8,9.1 L7.8,-7.5 L16.7,-9.3 L16.7,7.2 L7.8,9.1 "/>
<polyline class="LedgerLine" fill="none" stroke="#000000" stroke-width="9.52" stroke-linejoin="bevel" points="2159.46,2128.36 2289.94,2128.36"/>
<polyline class="LedgerLine" fill="none" stroke="#000000" stroke-width="9.52" stroke-linejoin="bevel" points="2654.71,2128.36 2785.19,2128.36"/>
<polyline class="LedgerLine" fill="none" stroke="#000000" stroke-width="9.52" stroke-linejoin="bevel" points="3668.03,2128.36 3798.5,2128.36"/>
<path class="Note" transform="matrix(2.3811,0,0,2.3811,586.361,2187.89)" d="M18.7,-13.6 C4.9,-13.6 0,-6.6 0,-0.1 C0,6.4 4.9,13.4 18.7,13.4 C32.5,13.4 37.3,6.4 37.3,-0.1 C37.3,-6.6 32.5,-13.6 18.7,-13.6 M10.4,-4.5 C10.3,-4.9 10.3,-5.3 10.3,-5.7 C10.3,-6.5 10.5,-7.3 10.9,-8 C11.6,-9 12.8,-9.7 14.3,-10 C15.6,-10.3 16.3,-10.5 18.9,-10.5 L19,-10.5 C23,-10.5 24.3,-6.8 25.4,-3 L25.7,-2 C26.5,0.6 26.9,2.8 26.9,4.5 C26.9,5.7 26.7,6.8 26.3,7.6 C25.7,8.7 24.7,9.4 23,9.8 C22.1,10 20.6,10.1 20.6,10.1 C20.1,10.1 19.7,10.2 19.3,10.2 C16.1,10.2 14.1,9 12.7,4.7 C11.5,1 11.3,-0.1 10.4,-4.5"/>
<path class="Note" transform="matrix(2.3811,0,0,2.3811,1158.09,2217.65)" d="M18.7,-13.6 C4.9,-13.6 0,-6.6 0,-0.1 C0,6.4 4.9,13.4 18.7,13.4 C32.5,13.4 37.3,6.4 37.3,-0.1 C37.3,-6.6 32.5,-13.6 18.7,-13.6 M10.4,-4.5 C10.3,-4.9 10.3,-5.3 10.3,-5.7 C10.3,-6.5 10.5,-7.3 10.9,-8 C11.6,-9 12.8,-9.7 14.3,-10 C15.6,-10.3 16.3,-10.5 18.9,-10.5 L19,-10.5 C23,-10.5 24.3,-6.8 25.4,-3 L25.7,-2 C26.5,0.6 26.9,2.8 26.9,4.5 C26.9,5.7 26.7,6.8 26.3,7.6 C25.7,8.7 24.7,9.4 23,9.8 C22.1,10 20.6,10.1 20.6,10.1 C20.1,10.1 19.7,10.2 19.3,10.2 C16.1,10.2 14.1,9 12.7,4.7 C11.5,1 11.3,-0.1 10.4,-4.5"/>
<path class="Note" transform="matrix(2.3811,0,0,2.3811,1652.3,2336.7)" d="M18.7,-13.6 C4.9,-13.6 0,-6.6 0,-0.1 C0,6.4 4.9,13.4 18.7,13.4 C32.5,13.4 37.3,6.4 37.3,-0.1 C37.3,-6.6 32.5,-13.6 18.7,-13.6 M10.4,-4.5 C10.3,-4.9 10.3,-5.3 10.3,-5.7 C10.3,-6.5 10.5,-7.3 10.9,-8 C11.6,-9 12.8,-9.7 14.3,-10 C15.6,-10.3 16.3,-10.5 18.9,-10.5 L19,-10.5 C23,-10.5 24.3,-6.8 25.4,-3 L25.7,-2 C26.5,0.6 26.9,2.8 26.9,4.5 C26.9,5.7 26.7,6.8 26.3,7.6 C25.7,8.7 24.7,9.4 23,9.8 C22.1,10 20.6,10.1 20.6,10.1 C20.1,10.1 19.7,10.2 19.3,10.2 C16.1,10.2 14.1,9 12.7,4.7 C11.5,1 11.3,-0.1 10.4,-4.5"/>
<path class="Note" transform="matrix(2.3811,0,0,2.3811,2180.29,2128.36)" d="M18.7,-13.6 C4.9,-13.6 0,-6.6 0,-0.1 C0,6.4 4.9,13.4 18.7,13.4 C32.5,13.4 37.3,6.4 37.3,-0.1 C37.3,-6.6 32.5,-13.6 18.7,-13.6 M10.4,-4.5 C10.3,-4.9 10.3,-5.3 10.3,-5.7 C10.3,-6.5 10.5,-7.3 10.9,-8 C11.6,-9 12.8,-9.7 14.3,-10 C15.6,-10.3 16.3,-10.5 18.9,-10.5 L19,-10.5 C23,-10.5 24.3,-6.8 25.4,-3 L25.7,-2 C26.5,0.6 26.9,2.8 26.9,4.5 C26.9,5.7 26.7,6.8 26.3,7.6 C25.7,8.7 24.7,9.4 23,9.8 C22.1,10 20.6,10.1 20.6,10.1 C20.1,10.1 19.7,10.2 19.3,10.2 C16.1,10.2 14.1,9 12.7,4.7 C11.5,1 11.3,-0.1 10.4,-4.5"/>
<path class="Note" transform="matrix(2.3811,0,0,2.3811,2675.55,2128.36)" d="M18.7,-13.6 C4.9,-13.6 0,-6.6 0,-0.1 C0,6.4 4.9,13.4 18.7,13.4 C32.5,13.4 37.3,6.4 37.3,-0.1 C37.3,-6.6 32.5,-13.6 18.7,-13.6 M10.4,-4.5 C10.3,-4.9 10.3,-5.3 10.3,-5.7 C10.3,-6.5 10.5,-7.3 10.9,-8 C11.6,-9 12.8,-9.7 14.3,-10 C15.6,-10.3 16.3,-10.5 18.9,-10.5 L19,-10.5 C23,-10.5 24.3,-6.8 25.4,-3 L25.7,-2 C26.5,0.6 26.9,2.8 26.9,4.5 C26.9,5.7 26.7,6.8 26.3,7.6 C25.7,8.7 24.7,9.4 23,9.8 C22.1,10 20.6,10.1 20.6,10.1 C20.1,10.1 19.7,10.2 19.3,10.2 C16.1,10.2 14.1,9 12.7,4.7 C11.5,1 11.3,-0.1 10.4,-4.5"/>
<path class="Note" transform="matrix(2.3811,0,0,2.3811,3172.76,2158.12)" d="M18.7,-13.6 C4.9,-13.6 0,-6.6 0,-0.1 C0,6.4 4.9,13.4 18.7,13.4 C32.5,13.4 37.3,6.4 37.3,-0.1 C37.3,-6.6 32.5,-13.6 18.7,-13.6 M10.4,-4.5 C10.3,-4.9 10.3,-5.3 10.3,-5.7 C10.3,-6.5 10.5,-7.3 10.9,-8 C11.6,-9 12.8,-9.7 14.3,-10 C15.6,-10.3 16.3,-10.5 18.9,-10.5 L19,-10.5 C23,-10.5 24.3,-6.8 25.4,-3 L25.7,-2 C26.5,0.6 26.9,2.8 26.9,4.5 C26.9,5.7 26.7,6.8 26.3,7.6 C25.7,8.7 24.7,9.4 23,9.8 C22.1,10 20.6,10.1 20.6,10.1 C20.1,10.1 19.7,10.2 19.3,10.2 C16.1,10.2 14.1,9 12.7,4.7 C11.5,1 11.3,-0.1 10.4,-4.5"/>
<path class="Note" transform="matrix(2.3811,0,0,2.3811,3688.86,2128.36)" d="M18.7,-13.6 C4.9,-13.6 0,-6.6 0,-0.1 C0,6.4 4.9,13.4 18.7,13.4 C32.5,13.4 37.3,6.4 37.3,-0.1 C37.3,-6.6 32.5,-13.6 18.7,-13.6 M10.4,-4.5 C10.3,-4.9 10.3,-5.3 10.3,-5.7 C10.3,-6.5 10.5,-7.3 10.9,-8 C11.6,-9 12.8,-9.7 14.3,-10 C15.6,-10.3 16.3,-10.5 18.9,-10.5 L19,-10.5 C23,-10.5 24.3,-6.8 25.4,-3 L25.7,-2 C26.5,0.6 26.9,2.8 26.9,4.5 C26.9,5.7 26.7,6.8 26.3,7.6 C25.7,8.7 24.7,9.4 23,9.8 C22.1,10 20.6,10.1 20.6,10.1 C20.1,10.1 19.7,10.2 19.3,10.2 C16.1,10.2 14.1,9 12.7,4.7 C11.5,1 11.3,-0.1 10.4,-4.5"/>
<path class="Note" transform="matrix(2.3811,0,0,2.3811,586.361,1600.16)" d="M18.7,-13.6 C4.9,-13.6 0,-6.6 0,-0.1 C0,6.4 4.9,13.4 18.7,13.4 C32.5,13.4 37.3,6.4 37.3,-0.1 C37.3,-6.6 32.5,-13.6 18.7,-13.6 M10.4,-4.5 C10.3,-4.9 10.3,-5.3 10.3,-5.7 C10.3,-6.5 10.5,-7.3 10.9,-8 C11.6,-9 12.8,-9.7 14.3,-10 C15.6,-10.3 16.3,-10.5 18.9,-10.5 L19,-10.5 C23,-10.5 24.3,-6.8 25.4,-3 L25.7,-2 C26.5,0.6 26.9,2.8 26.9,4.5 C26.9,5.7 26.7,6.8 26.3,7.6 C25.7,8.7 24.7,9.4 23,9.8 C22.1,10 20.6,10.1 20.6,10.1 C20.1,10.1 19.7,10.2 19.3,10.2 C16.1,10.2 14.1,9 12.7,4.7 C11.5,1 11.3,-0.1 10.4,-4.5"/>
<path class="Note" transform="matrix(2.3811,0,0,2.3811,586.361,1481.1)" d="M18.7,-13.6 C4.9,-13.6 0,-6.6 0,-0.1 C0,6.4 4.9,13.4 18.7,13.4 C32.5,13.4 37.3,6.4 37.3,-0.1 C37.3,-6.6 32.5,-13.6 18.7,-13.6 M10.4,-4.5 C10.3,-4.9 10.3,-5.3 10.3,-5.7 C10.3,-6.5 10.5,-7.3 10.9,-8 C11.6,-9 12.8,-9.7 14.3,-10 C15.6,-10.3 16.3,-10.5 18.9,-10.5 L19,-10.5 C23,-10.5 24.3,-6.8 25.4,-3 L25.7,-2 C26.5,0.6 26.9,2.8 26.9,4.5 C26.9,5.7 26.7,6.8 26.3,7.6 C25.7,8.7 24.7,9.4 23,9.8 C22.1,10 20.6,10.1 20.6,10.1 C20.1,10.1 19.7,10.2 19.3,10.2 C16.1,10.2 14.1,9 12.7,4.7 C11.5,1 11.3,-0.1 10.4,-4.5"/>
<path class="Note" transform="matrix(2.3811,0,0,2.3811,668.621,1451.34)" d="M18.7,-13.6 C4.9,-13.6 0,-6.6 0,-0.1 C0,6.4 4.9,13.4 18.7,13.4 C32.5,13.4 37.3,6.4 37.3,-0.1 C37.3,-6.6 32.5,-13.6 18.7,-13.6 M10.4,-4.5 C10.3,-4.9 10.3,-5.3 10.3,-5.7 C10.3,-6.5 10.5,-7.3 10.9,-8 C11.6,-9 12.8,-9.7 14.3,-10 C15.6,-10.3 16.3,-10.5 18.9,-10.5 L19,-10.5 C23,-10.5 24.3,-6.8 25.4,-3 L25.7,-2 C26.5,0.6 26.9,2.8 26.9,4.5 C26.9,5.7 26.7,6.8 26.3,7.6 C25.7,8.7 24.7,9.4 23,9.8 C22.1,10 20.6,10.1 20.6,10.1 C20.1,10.1 19.7,10.2 19.3,10.2 C16.1,10.2 14.1,9 12.7,4.7 C11.5,1 11.3,-0.1 10.4,-4.5"/>
<path class="Note" transform="matrix(2.3811,0,0,2.3811,1158.09,1570.39)" d="M18.7,-13.6 C4.9,-13.6 0,-6.6 0,-0.1 C0,6.4 4.9,13.4 18.7,13.4 C32.5,13.4 37.3,6.4 37.3,-0.1 C37.3,-6.6 32.5,-13.6 18.7,-13.6 M10.4,-4.5 C10.3,-4.9 10.3,-5.3 10.3,-5.7 C10.3,-6.5 10.5,-7.3 10.9,-8 C11.6,-9 12.8,-9.7 14.3,-10 C15.6,-10.3 16.3,-10.5 18.9,-10.5 L19,-10.5 C23,-10.5 24.3,-6.8 25.4,-3 L25.7,-2 C26.5,0.6 26.9,2.8 26.9,4.5 C26.9,5.7 26.7,6.8 26.3,7.6 C25.7,8.7 24.7,9.4 23,9.8 C22.1,10 20.6,10.1 20.6,10.1 C20.1,10.1 19.7,10.2 19.3,10.2 C16.1,10.2 14.1,9 12.7,4.7 C11.5,1 11.3,-0.1 10.4,-4.5"/>
<path class="Note" transform="matrix(2.3811,0,0,2.3811,1158.09,1510.87)" d="M18.7,-13.6 C4.9,-13.6 0,-6.6 0,-0.1 C0,6.4 4.9,13.4 18.7,13.4 C32.5,13.4 37.3,6.4 37.3,-0.1 C37.3,-6.6 32.5,-13.6 18.7,-13.6 M10.4,-4.5 C10.3,-4.9 10.3,-5.3 10.3,-5.7 C10.3,-6.5 10.5,-7.3 10.9,-8 C11.6,-9 12.8,-9.7 14.3,-10 C15.6,-10.3 16.3,-10.5 18.9,-10.5 L19,-10.5 C23,-10.5 24.3,-6.8 25.4,-3 L25.7,-2 C26.5,0.6 26.9,2.8 26.9,4.5 C26.9,5.7 26.7,6.8 26.3,7.6 C25.7,8.7 24.7,9.4 23,9.8 C22.1,10 20.6,10.1 20.6,10.1 C20.1,10.1 19.7,10.2 19.3,10.2 C16.1,10.2 14.1,9 12.7,4.7 C11.5,1 11.3,-0.1 10.4,-4.5"/>
<path class="Note" transform="matrix(2.3811,0,0,2.3811,1158.09,1451.34)" d="M18.7,-13.6 C4.9,-13.6 0,-6.6 0,-0.1 C0,6.4 4.9,13.4 18.7,13.4 C32.5,13.4 37.3,6.4 37.3,-0.1 C37.3,-6.6 32.5,-13.6 18.7,-13.6 M10.4,-4.5 C10.3,-4.9 10.3,-5.3 10.3,-5.7 C10.3,-6.5 10.5,-7.3 10.9,-8 C11.6,-9 12.8,-9.7 14.3,-10 C15.6,-10.3 16.3,-10.5 18.9,-10.5 L19,-10.5 C23,-10.5 24.3,-6.8 25.4,-3 L25.7,-2 C26.5,0.6 26.9,2.8 26.9,4.5 C26.9,5.7 26.7,6.8 26.3,7.6 C25.7,8.7 24.7,9.4 23,9.8 C22.1,10 20.6,10.1 20.6,10.1 C20.1,10.1 19.7,10.2 19.3,10.2 C16.1,10.2 14.1,9 12.7,4.7 C11.5,1 11.3,-0.1 10.4,-4.5"/>
<path class="Note" transform="matrix(2.3811,0,0,2.3811,1652.3,1570.39)" d="M18.7,-13.6 C4.9,-13.6 0,-6.6 0,-0.1 C0,6.4 4.9,13.4 18.7,13.4 C32.5,13.4 37.3,6.4 37.3,-0.1 C37.3,-6.6 32.5,-13.6 18.7,-13.6 M10.4,-4.5 C10.3,-4.9 10.3,-5.3 10.3,-5.7 C10.3,-6.5 10.5,-7.3 10.9,-8 C11.6,-9 12.8,-9.7 14.3,-10 C15.6,-10.3 16.3,-10.5 18.9,-10.5 L19,-10.5 C23,-10.5 24.3,-6.8 25.4,-3 L25.7,-2 C26.5,0.6 26.9,2.8 26.9,4.5 C26.9,5.7 26.7,6.8 26.3,7.6 C25.7,8.7 24.7,9.4 23,9.8 C22.1,10 20.6,10.1 20.6,10.1 C20.1,10.1 19.7,10.2 19.3,10.2 C16.1,10.2 14.1,9 12.7,4.7 C11.5,1 11.3,-0.1 10.4,-4.5"/>
<path class="Note" transform="matrix(2.3811,0,0,2.3811,1652.3,1481.1)" d="M18.7,-13.6 C4.9,-13.6 0,-6.6 0,-0.1 C0,6.4 4.9,13.4 18.7,13.4 C32.5,13.4 37.3,6.4 37.3,-0.1 C37.3,-6.6 32.5,-13.6 18.7,-13.6 M10.4,-4.5 C10.3,-4.9 10.3,-5.3 10.3,-5.7 C10.3,-6.5 10.5,-7.3 10.9,-8 C11.6,-9 12.8,-9.7 14.3,-10 C15.6,-10.3 16.3,-10.5 18.9,-10.5 L19,-10.5 C23,-10.5 24.3,-6.8 25.4,-3 L25.7,-2 C26.5,0.6 26.9,2.8 26.9,4.5 C26.9,5.7 26.7,6.8 26.3,7.6 C25.7,8.7 24.7,9.4 23,9.8 C22.1,10 20.6,10.1 20.6,10.1 C20.1,10.1 19.7,10.2 19.3,10.2 C16.1,10.2 14.1,9 12.7,4.7 C11.5,1 11.3,-0.1 10.4,-4.5"/>
<path class="Note" transform="matrix(2.3811,0,0,2.3811,1652.3,1421.57)" d="M18.7,-13.6 C4.9,-13.6 0,-6.6 0,-0.1 C0,6.4 4.9,13.4 18.7,13.4 C32.5,13.4 37.3,6.4 37.3,-0.1 C37.3,-6.6 32.5,-13.6 18.7,-13.6 M10.4,-4.5 C10.3,-4.9 10.3,-5.3 10.3,-5.7 C10.3,-6.5 10.5,-7.3 10.9,-8 C11.6,-9 12.8,-9.7 14.3,-10 C15.6,-10.3 16.3,-10.5 18.9,-10.5 L19,-10.5 C23,-10.5 24.3,-6.8 25.4,-3 L25.7,-2 C26.5,0.6 26.9,2.8 26.9,4.5 C26.9,5.7 26.7,6.8 26.3,7.6 C25.7,8.7 24.7,9.4 23,9.8 C22.1,10 20.6,10.1 20.6,10.1 C20.1,10.1 19.7,10.2 19.3,10.2 C16.1,10.2 14.1,9 12.7,4.7 C11.5,1 11.3,-0.1 10.4,-4.5"/>
<path class="Note" transform="matrix(2.3811,0,0,2.3811,2180.29,1570.39)" d="M18.7,-13.6 C4.9,-13.6 0,-6.6 0,-0.1 C0,6.4 4.9,13.4 18.7,13.4 C32.5,13.4 37.3,6.4 37.3,-0.1 C37.3,-6.6 32.5,-13.6 18.7,-13.6 M10.4,-4.5 C10.3,-4.9 10.3,-5.3 10.3,-5.7 C10.3,-6.5 10.5,-7.3 10.9,-8 C11.6,-9 12.8,-9.7 14.3,-10 C15.6,-10.3 16.3,-10.5 18.9,-10.5 L19,-10.5 C23,-10.5 24.3,-6.8 25.4,-3 L25.7,-2 C26.5,0.6 26.9,2.8 26.9,4.5 C26.9,5.7 26.7,6.8 26.3,7.6 C25.7,8.7 24.7,9.4 23,9.8 C22.1,10 20.6,10.1 20.6,10.1 C20.1,10.1 19.7,10.2 19.3,10.2 C16.1,10.2 14.1,9 12.7,4.7 C11.5,1 11.3,-0.1 10.4,-4.5"/>
<path class="Note" transform="matrix(2.3811,0,0,2.3811,2180.29,1481.1)" d="M18.7,-13.6 C4.9,-13.6 0,-6.6 0,-0.1 C0,6.4 4.9,13.4 18.7,13.4 C32.5,13.4 37.3,6.4 37.3,-0.1 C37.3,-6.6 32.5,-13.6 18.7,-13.6 M10.4,-4.5 C10.3,-4.9 10.3,-5.3 10.3,-5.7 C10.3,-6.5 10.5,-7.3 10.9,-8 C11.6,-9 12.8,-9.7 14.3,-10 C15.6,-10.3 16.3,-10.5 18.9,-10.5 L19,-10.5 C23,-10.5 24.3,-6.8 25.4,-3 L25.7,-2 C26.5,0.6 26.9,2.8 26.9,4.5 C26.9,5.7 26.7,6.8 26.3,7.6 C25.7,8.7 24.7,9.4 23,9.8 C22.1,10 20.6,10.1 20.6,10.1 C20.1,10.1 19.7,10.2 19.3,10.2 C16.1,10.2 14.1,9 12.7,4.7 C11.5,1 11.3,-0.1 10.4,-4.5"/>
<path class="Note" transform="matrix(2.3811,0,0,2.3811,2180.29,1421.57)" d="M18.7,-13.6 C4.9,-13.6 0,-6.6 0,-0.1 C0,6.4 4.9,13.4 18.7,13.4 C32.5,13.4 37.3,6.4 37.3,-0.1 C37.3,-6.6 32.5,-13.6 18.7,-13.6 M10.4,-4.5 C10.3,-4.9 10.3,-5.3 10.3,-5.7 C10.3,-6.5 10.5,-7.3 10.9,-8 C11.6,-9 12.8,-9.7 14.3,-10 C15.6,-10.3 16.3,-10.5 18.9,-10.5 L19,-10.5 C23,-10.5 24.3,-6.8 25.4,-3 L25.7,-2 C26.5,0.6 26.9,2.8 26.9,4.5 C26.9,5.7 26.7,6.8 26.3,7.6 C25.7,8.7 24.7,9.4 23,9.8 C22.1,10 20.6,10.1 20.6,10.1 C20.1,10.1 19.7,10.2 19.3,10.2 C16.1,10.2 14.1,9 12.7,4.7 C11.5,1 11.3,-0.1 10.4,-4.5"/>
<path class="Note" transform="matrix(2.3811,0,0,2.3811,2675.55,1540.63)" d="M18.7,-13.6 C4.9,-13.6 0,-6.6 0,-0.1 C0,6.4 4.9,13.4 18.7,13.4 C32.5,13.4 37.3,6.4 37.3,-0.1 C37.3,-6.6 32.5,-13.6 18.7,-13.6 M10.4,-4.5 C10.3,-4.9 10.3,-5.3 10.3,-5.7 C10.3,-6.5 10.5,-7.3 10.9,-8 C11.6,-9 12.8,-9.7 14.3,-10 C15.6,-10.3 16.3,-10.5 18.9,-10.5 L19,-10.5 C23,-10.5 24.3,-6.8 25.4,-3 L25.7,-2 C26.5,0.6 26.9,2.8 26.9,4.5 C26.9,5.7 26.7,6.8 26.3,7.6 C25.7,8.7 24.7,9.4 23,9.8 C22.1,10 20.6,10.1 20.6,10.1 C20.1,10.1 19.7,10.2 19.3,10.2 C16.1,10.2 14.1,9 12.7,4.7 C11.5,1 11.3,-0.1 10.4,-4.5"/>
<path class="Note" transform="matrix(2.3811,0,0,2.3811,2675.55,1451.34)" d="M18.7,-13.6 C4.9,-13.6 0,-6.6 0,-0.1 C0,6.4 4.9,13.4 18.7,13.4 C32.5,13.4 37.3,6.4 37.3,-0.1 C37.3,-6.6 32.5,-13.6 18.7,-13.6 M10.4,-4.5 C10.3,-4.9 10.3,-5.3 10.3,-5.7 C10.3,-6.5 10.5,-7.3 10.9,-8 C11.6,-9 12.8,-9.7 14.3,-10 C15.6,-10.3 16.3,-10.5 18.9,-10.5 L19,-10.5 C23,-10.5 24.3,-6.8 25.4,-3 L25.7,-2 C26.5,0.6 26.9,2.8 26.9,4.5 C26.9,5.7 26.7,6.8 26.3,7.6 C25.7,8.7 24.7,9.4 23,9.8 C22.1,10 20.6,10.1 20.6,10.1 C20.1,10.1 19.7,10.2 19.3,10.2 C16.1,10.2 14.1,9 12.7,4.7 C11.5,1 11.3,-0.1 10.4,-4.5"/>
<path class="Note" transform="matrix(2.3811,0,0,2.3811,2675.55,1391.81)" d="M18.7,-13.6 C4.9,-13.6 0,-6.6 0,-0.1 C0,6.4 4.9,13.4 18.7,13.4 C32.5,13.4 37.3,6.4 37.3,-0.1 C37.3,-6.6 32.5,-13.6 18.7,-13.6 M10.4,-4.5 C10.3,-4.9 10.3,-5.3 10.3,-5.7 C10.3,-6.5 10.5,-7.3 10.9,-8 C11.6,-9 12.8,-9.7 14.3,-10 C15.6,-10.3 16.3,-10.5 18.9,-10.5 L19,-10.5 C23,-10.5 24.3,-6.8 25.4,-3 L25.7,-2 C26.5,0.6 26.9,2.8 26.9,4.5 C26.9,5.7 26.7,6.8 26.3,7.6 C25.7,8.7 24.7,9.4 23,9.8 C22.1,10 20.6,10.1 20.6,10.1 C20.1,10.1 19.7,10.2 19.3,10.2 C16.1,10.2 14.1,9 12.7,4.7 C11.5,1 11.3,-0.1 10.4,-4.5"/>
<path class="Note" transform="matrix(2.3811,0,0,2.3811,3172.76,1570.39)" d="M18.7,-13.6 C4.9,-13.6 0,-6.6 0,-0.1 C0,6.4 4.9,13.4 18.7,13.4 C32.5,13.4 37.3,6.4 37.3,-0.1 C37.3,-6.6 32.5,-13.6 18.7,-13.6 M10.4,-4.5 C10.3,-4.9 10.3,-5.3 10.3,-5.7 C10.3,-6.5 10.5,-7.3 10.9,-8 C11.6,-9 12.8,-9.7 14.3,-10 C15.6,-10.3 16.3,-10.5 18.9,-10.5 L19,-10.5 C23,-10.5 24.3,-6.8 25.4,-3 L25.7,-2 C26.5,0.6 26.9,2.8 26.9,4.5 C26.9,5.7 26.7,6.8 26.3,7.6 C25.7,8.7 24.7,9.4 23,9.8 C22.1,10 20.6,10.1 20.6,10.1 C20.1,10.1 19.7,10.2 19.3,10.2 C16.1,10.2 14.1,9 12.7,4.7 C11.5,1 11.3,-0.1 10.4,-4.5"/>
<path class="Note" transform="matrix(2.3811,0,0,2.3811,3172.76,1451.34)" d="M18.7,-13.6 C4.9,-13.6 0,-6.6 0,-0.1 C0,6.4 4.9,13.4 18.7,13.4 C32.5,13.4 37.3,6.4 37.3,-0.1 C37.3,-6.6 32.5,-13.6 18.7,-13.6 M10.4,-4.5 C10.3,-4.9 10.3,-5.3 10.3,-5.7 C10.3,-6.5 10.5,-7.3 10.9,-8 C11.6,-9 12.8,-9.7 14.3,-10 C15.6,-10.3 16.3,-10.5 18.9,-10.5 L19,-10.5 C23,-10.5 24.3,-6.8 25.4,-3 L25.7,-2 C26.5,0.6 26.9,2.8 26.9,4.5 C26.9,5.7 26.7,6.8 26.3,7.6 C25.7,8.7 24.7,9.4 23,9.8 C22.1,10 20.6,10.1 20.6,10.1 C20.1,10.1 19.7,10.2 19.3,10.2 C16.1,10.2 14.1,9 12.7,4.7 C11.5,1 11.3,-0.1 10.4,-4.5"/>
<path class="Note" transform="matrix(2.3811,0,0,2.3811,3172.76,1391.81)" d="M18.7,-13.6 C4.9,-13.6 0,-6.6 0,-0.1 C0,6.4 4.9,13.4 18.7,13.4 C32.5,13.4 37.3,6.4 37.3,-0.1 C37.3,-6.6 32.5,-13.6 18.7,-13.6 M10.4,-4.5 C10.3,-4.9 10.3,-5.3 10.3,-5.7 C10.3,-6.5 10.5,-7.3 10.9,-8 C11.6,-9 12.8,-9.7 14.3,-10 C15.6,-10.3 16.3,-10.5 18.9,-10.5 L19,-10.5 C23,-10.5 24.3,-6.8 25.4,-3 L25.7,-2 C26.5,0.6 26.9,2.8 26.9,4.5 C26.9,5.7 26.7,6.8 26.3,7.6 C25.7,8.7 24.7,9.4 23,9.8 C22.1,10 20.6,10.1 20.6,10.1 C20.1,10.1 19.7,10.2 19.3,10.2 C16.1,10.2 14.1,9 12.7,4.7 C11.5,1 11.3,-0.1 10.4,-4.5"/>
<path class="Note" transform="matrix(2.3811,0,0,2.3811,3688.86,1570.39)" d="M18.7,-13.6 C4.9,-13.6 0,-6.6 0,-0.1 C0,6.4 4.9,13.4 18.7,13.4 C32.5,13.4 37.3,6.4 37.3,-0.1 C37.3,-6.6 32.5,-13.6 18.7,-13.6 M10.4,-4.5 C10.3,-4.9 10.3,-5.3 10.3,-5.7 C10.3,-6.5 10.5,-7.3 10.9,-8 C11.6,-9 12.8,-9.7 14.3,-10 C15.6,-10.3 16.3,-10.5 18.9,-10.5 L19,-10.5 C23,-10.5 24.3,-6.8 25.4,-3 L25.7,-2 C26.5,0.6 26.9,2.8 26.9,4.5 C26.9,5.7 26.7,6.8 26.3,7.6 C25.7,8.7 24.7,9.4 23,9.8 C22.1,10 20.6,10.1 20.6,10.1 C20.1,10.1 19.7,10.2 19.3,10.2 C16.1,10.2 14.1,9 12.7,4.7 C11.5,1 11.3,-0.1 10.4,-4.5"/>
<path class="Note" transform="matrix(2.3811,0,0,2.3811,3688.86,1481.1)" d="M18.7,-13.6 C4.9,-13.6 0,-6.6 0,-0.1 C0,6.4 4.9,13.4 18.7,13.4 C32.5,13.4 37.3,6.4 37.3,-0.1 C37.3,-6.6 32.5,-13.6 18.7,-13.6 M10.4,-4.5 C10.3,-4.9 10.3,-5.3 10.3,-5.7 C10.3,-6.5 10.5,-7.3 10.9,-8 C11.6,-9 12.8,-9.7 14.3,-10 C15.6,-10.3 16.3,-10.5 18.9,-10.5 L19,-10.5 C23,-10.5 24.3,-6.8 25.4,-3 L25.7,-2 C26.5,0.6 26.9,2.8 26.9,4.5 C26.9,5.7 26.7,6.8 26.3,7.6 C25.7,8.7 24.7,9.4 23,9.8 C22.1,10 20.6,10.1 20.6,10.1 C20.1,10.1 19.7,10.2 19.3,10.2 C16.1,10.2 14.1,9 12.7,4.7 C11.5,1 11.3,-0.1 10.4,-4.5"/>
<path class="Note" transform="matrix(2.3811,0,0,2.3811,3688.86,1421.57)" d="M18.7,-13.6 C4.9,-13.6 0,-6.6 0,-0.1 C0,6.4 4.9,13.4 18.7,13.4 C32.5,13.4 37.3,6.4 37.3,-0.1 C37.3,-6.6 32.5,-13.6 18.7,-13.6 M10.4,-4.5 C10.3,-4.9 10.3,-5.3 10.3,-5.7 C10.3,-6.5 10.5,-7.3 10.9,-8 C11.6,-9 12.8,-9.7 14.3,-10 C15.6,-10.3 16.3,-10.5 18.9,-10.5 L19,-10.5 C23,-10.5 24.3,-6.8 25.4,-3 L25.7,-2 C26.5,0.6 26.9,2.8 26.9,4.5 C26.9,5.7 26.7,6.8 26.3,7.6 C25.7,8.7 24.7,9.4 23,9.8 C22.1,10 20.6,10.1 20.6,10.1 C20.1,10.1 19.7,10.2 19.3,10.2 C16.1,10.2 14.1,9 12.7,4.7 C11.5,1 11.3,-0.1 10.4,-4.5"/>
<path class="Note" d="M620.904,642.535 C617.108,642.535 615.209,638.468 615.209,630.333 L615.209,596.283 C615.209,593.029 616.798,591.402 619.974,591.402 C621.369,591.402 622.415,591.518 623.112,591.751 C625.591,587.412 629.658,583.771 635.314,580.827 C643.216,576.721 651.235,574.668 659.37,574.668 C665.8,574.668 669.015,577.069 669.015,581.873 C669.015,585.902 666.846,587.916 662.507,587.916 C659.408,587.916 656.464,587.219 653.675,585.824 C651.196,584.584 648.562,583.965 645.773,583.965 C640.97,583.965 633.881,587.102 624.506,593.378 C625.823,599.653 626.482,606.974 626.482,615.342 C626.482,633.471 624.623,642.535 620.904,642.535"/>
<path class="Note" d="M620.904,821.118 C617.108,821.118 615.209,817.05 615.209,808.916 L615.209,774.866 C615.209,771.612 616.798,769.985 619.974,769.985 C621.369,769.985 622.415,770.101 623.112,770.333 C625.591,765.995 629.658,762.354 635.314,759.41 C643.216,755.304 651.235,753.25 659.37,753.25 C665.8,753.25 669.015,755.652 669.015,760.456 C669.015,764.484 666.846,766.499 662.507,766.499 C659.408,766.499 656.464,765.801 653.675,764.407 C651.196,763.167 648.562,762.547 645.773,762.547 C640.97,762.547 633.881,765.685 624.506,771.96 C625.823,778.236 626.482,785.557 626.482,793.924 C626.482,812.053 624.623,821.118 620.904,821.118"/>
<path class="Note" d="M554.092,498.624 C554.401,486.926 560.871,476.544 573.499,467.48 C584.733,459.423 597.012,455.394 610.338,455.394 C629.009,455.394 645.472,462.715 659.727,477.358 C668.792,486.732 673.324,498.353 673.324,512.221 C673.324,524.694 669.993,534.263 663.33,540.925 C655.195,549.138 646.595,553.244 637.531,553.244 C631.333,553.244 626.53,551.849 623.121,549.06 C617.543,544.489 614.754,538.369 614.754,530.699 C614.754,520.782 619.712,511.718 629.629,503.505 C637.763,496.765 645.937,492.349 654.149,490.257 C651.98,486.539 649.23,483.052 645.898,479.798 C635.517,469.649 623.741,464.575 610.57,464.575 C596.857,464.575 585.507,467.557 576.52,473.523 C567.223,479.643 559.747,488.011 554.092,498.624 M657.054,496.416 C652.793,500.368 648.532,504.59 644.271,509.083 C635.904,517.916 631.72,526.283 631.72,534.185 C631.72,542.63 633.657,546.852 637.531,546.852 C641.017,546.852 645.898,542.087 652.174,532.558 C657.209,524.966 659.727,517.993 659.727,511.64 C659.727,506.217 658.836,501.142 657.054,496.416"/>
<path class="Note" d="M554.092,677.207 C554.401,665.509 560.871,655.127 573.499,646.063 C584.733,638.005 597.012,633.977 610.338,633.977 C629.009,633.977 645.472,641.298 659.727,655.941 C668.792,665.315 673.324,676.936 673.324,690.804 C673.324,703.277 669.993,712.845 663.33,719.508 C655.195,727.72 646.595,731.826 637.531,731.826 C631.333,731.826 626.53,730.432 623.121,727.643 C617.543,723.072 614.754,716.951 614.754,709.281 C614.754,699.365 619.712,690.3 629.629,682.088 C637.763,675.348 645.937,670.932 654.149,668.84 C651.98,665.121 649.23,661.635 645.898,658.381 C635.517,648.232 623.741,643.157 610.57,643.157 C596.857,643.157 585.507,646.14 576.52,652.106 C567.223,658.226 559.747,666.593 554.092,677.207 M657.054,674.999 C652.793,678.95 648.532,683.173 644.271,687.666 C635.904,696.498 631.72,704.865 631.72,712.768 C631.72,721.212 633.657,725.435 637.531,725.435 C641.017,725.435 645.898,720.67 652.174,711.141 C657.209,703.548 659.727,696.576 659.727,690.223 C659.727,684.8 658.836,679.725 657.054,674.999"/>
<path class="Note" d="M1125.82,587.916 C1126.13,576.217 1132.6,565.836 1145.23,556.771 C1156.46,548.714 1168.74,544.685 1182.07,544.685 C1200.74,544.685 1217.2,552.007 1231.46,566.649 C1240.52,576.024 1245.06,587.645 1245.06,601.513 C1245.06,613.986 1241.72,623.554 1235.06,630.217 C1226.93,638.429 1218.33,642.535 1209.26,642.535 C1203.06,642.535 1198.26,641.14 1194.85,638.351 C1189.27,633.78 1186.49,627.66 1186.49,619.99 C1186.49,610.073 1191.44,601.009 1201.36,592.797 C1209.5,586.056 1217.67,581.64 1225.88,579.549 C1223.71,575.83 1220.96,572.344 1217.63,569.09 C1207.25,558.941 1195.47,553.866 1182.3,553.866 C1168.59,553.866 1157.24,556.849 1148.25,562.814 C1138.96,568.935 1131.48,577.302 1125.82,587.916 M1228.79,585.708 C1224.53,589.659 1220.26,593.881 1216,598.375 C1207.64,607.207 1203.45,615.574 1203.45,623.476 C1203.45,631.921 1205.39,636.143 1209.26,636.143 C1212.75,636.143 1217.63,631.379 1223.91,621.849 C1228.94,614.257 1231.46,607.284 1231.46,600.931 C1231.46,595.508 1230.57,590.434 1228.79,585.708"/>
<path class="Note" d="M1236.91,762.547 C1241.48,762.547 1243.77,765.414 1243.77,771.147 C1243.77,775.176 1241.25,781.18 1236.21,789.16 C1232.19,795.59 1230.17,801.865 1230.17,807.986 C1230.17,811.472 1235.25,813.215 1245.4,813.215 C1253.76,813.215 1265.42,808.683 1280.37,799.619 C1265.34,814.106 1252.29,821.35 1241.21,821.35 C1231.22,821.35 1224.24,819.839 1220.29,816.818 C1219.29,816.043 1218.43,815.113 1217.74,814.029 C1213.86,818.755 1207.39,821.118 1198.33,821.118 C1189.65,821.118 1182.99,819.336 1178.34,815.772 C1175.24,813.37 1173.69,809.535 1173.69,804.267 C1173.69,795.9 1178.65,786.758 1188.57,776.841 C1199.18,766.227 1211.46,760.92 1225.41,760.92 C1228.89,760.92 1231.45,762.199 1233.08,764.755 C1234.39,763.283 1235.67,762.547 1236.91,762.547 M1216.11,808.799 C1216.03,808.179 1215.99,807.56 1215.99,806.94 C1215.99,806.63 1219.95,795.822 1227.85,774.517 C1228.62,772.425 1229.4,770.643 1230.17,769.171 C1227.15,768.552 1224.17,768.242 1221.22,768.242 C1215.8,768.242 1208.6,772.851 1199.61,782.071 C1191.55,790.283 1187.52,797.372 1187.52,803.337 C1187.52,809.923 1190.66,813.215 1196.94,813.215 C1204.53,813.215 1210.92,811.743 1216.11,808.799"/>
<path class="Note" d="M1192.64,553.244 C1188.84,553.244 1186.94,549.176 1186.94,541.041 L1186.94,506.992 C1186.94,503.738 1188.53,502.111 1191.71,502.111 C1193.1,502.111 1194.15,502.227 1194.84,502.459 C1197.32,498.121 1201.39,494.48 1207.05,491.536 C1214.95,487.43 1222.97,485.376 1231.1,485.376 C1237.53,485.376 1240.75,487.778 1240.75,492.582 C1240.75,496.61 1238.58,498.624 1234.24,498.624 C1231.14,498.624 1228.2,497.927 1225.41,496.533 C1222.93,495.293 1220.29,494.673 1217.5,494.673 C1212.7,494.673 1205.61,497.811 1196.24,504.086 C1197.56,510.362 1198.21,517.683 1198.21,526.05 C1198.21,544.179 1196.35,553.244 1192.64,553.244"/>
<path class="Note" d="M1125.82,677.207 C1126.13,665.509 1132.6,655.127 1145.23,646.063 C1156.46,638.005 1168.74,633.977 1182.07,633.977 C1200.74,633.977 1217.2,641.298 1231.46,655.941 C1240.52,665.315 1245.06,676.936 1245.06,690.804 C1245.06,703.277 1241.72,712.845 1235.06,719.508 C1226.93,727.72 1218.33,731.826 1209.26,731.826 C1203.06,731.826 1198.26,730.432 1194.85,727.643 C1189.27,723.072 1186.49,716.951 1186.49,709.281 C1186.49,699.365 1191.44,690.3 1201.36,682.088 C1209.5,675.348 1217.67,670.932 1225.88,668.84 C1223.71,665.121 1220.96,661.635 1217.63,658.381 C1207.25,648.232 1195.47,643.157 1182.3,643.157 C1168.59,643.157 1157.24,646.14 1148.25,652.106 C1138.96,658.226 1131.48,666.593 1125.82,677.207 M1228.79,674.999 C1224.53,678.95 1220.26,683.173 1216,687.666 C1207.64,696.498 1203.45,704.865 1203.45,712.768 C1203.45,721.212 1205.39,725.435 1209.26,725.435 C1212.75,725.435 1217.63,720.67 1223.91,711.141 C1228.94,703.548 1231.46,696.576 1231.46,690.223 C1231.46,684.8 1230.57,679.725 1228.79,674.999"/>
<path class="Note" d="M1620.03,945.081 C1620.34,933.383 1626.81,923.001 1639.44,913.937 C1650.67,905.879 1662.95,901.851 1676.27,901.851 C1694.95,901.851 1711.41,909.172 1725.66,923.815 C1734.73,933.189 1739.26,944.81 1739.26,958.678 C1739.26,971.151 1735.93,980.719 1729.27,987.382 C1721.13,995.594 1712.53,999.7 1703.47,999.7 C1697.27,999.7 1692.47,998.306 1689.06,995.517 C1683.48,990.946 1680.69,984.825 1680.69,977.155 C1680.69,967.239 1685.65,958.174 1695.57,949.962 C1703.7,943.222 1711.87,938.806 1720.09,936.714 C1717.92,932.995 1715.17,929.509 1711.83,926.255 C1701.45,916.106 1689.68,911.031 1676.51,911.031 C1662.79,911.031 1651.44,914.014 1642.46,919.98 C1633.16,926.1 1625.68,934.467 1620.03,945.081 M1722.99,942.873 C1718.73,946.824 1714.47,951.047 1710.21,955.54 C1701.84,964.372 1697.66,972.739 1697.66,980.642 C1697.66,989.086 1699.59,993.309 1703.47,993.309 C1706.95,993.309 1711.83,988.544 1718.11,979.015 C1723.15,971.422 1725.66,964.45 1725.66,958.097 C1725.66,952.674 1724.77,947.599 1722.99,942.873"/>
<path class="Note" d="M1620.03,587.916 C1620.34,576.217 1626.81,565.836 1639.44,556.771 C1650.67,548.714 1662.95,544.685 1676.27,544.685 C1694.95,544.685 1711.41,552.007 1725.66,566.649 C1734.73,576.024 1739.26,587.645 1739.26,601.513 C1739.26,613.986 1735.93,623.554 1729.27,630.217 C1721.13,638.429 1712.53,642.535 1703.47,642.535 C1697.27,642.535 1692.47,641.14 1689.06,638.351 C1683.48,633.78 1680.69,627.66 1680.69,619.99 C1680.69,610.073 1685.65,601.009 1695.57,592.797 C1703.7,586.056 1711.87,581.64 1720.09,579.549 C1717.92,575.83 1715.17,572.344 1711.83,569.09 C1701.45,558.941 1689.68,553.866 1676.51,553.866 C1662.79,553.866 1651.44,556.849 1642.46,562.814 C1633.16,568.935 1625.68,577.302 1620.03,587.916 M1722.99,585.708 C1718.73,589.659 1714.47,593.881 1710.21,598.375 C1701.84,607.207 1697.66,615.574 1697.66,623.476 C1697.66,631.921 1699.59,636.143 1703.47,636.143 C1706.95,636.143 1711.83,631.379 1718.11,621.849 C1723.15,614.257 1725.66,607.284 1725.66,600.931 C1725.66,595.508 1724.77,590.434 1722.99,585.708"/>
<path class="Note" d="M1620.03,498.624 C1620.34,486.926 1626.81,476.544 1639.44,467.48 C1650.67,459.423 1662.95,455.394 1676.27,455.394 C1694.95,455.394 1711.41,462.715 1725.66,477.358 C1734.73,486.732 1739.26,498.353 1739.26,512.221 C1739.26,524.694 1735.93,534.263 1729.27,540.925 C1721.13,549.138 1712.53,553.244 1703.47,553.244 C1697.27,553.244 1692.47,551.849 1689.06,549.06 C1683.48,544.489 1680.69,538.369 1680.69,530.699 C1680.69,520.782 1685.65,511.718 1695.57,503.505 C1703.7,496.765 1711.87,492.349 1720.09,490.257 C1717.92,486.539 1715.17,483.052 1711.83,479.798 C1701.45,469.649 1689.68,464.575 1676.51,464.575 C1662.79,464.575 1651.44,467.557 1642.46,473.523 C1633.16,479.643 1625.68,488.011 1620.03,498.624 M1722.99,496.416 C1718.73,500.368 1714.47,504.59 1710.21,509.083 C1701.84,517.916 1697.66,526.283 1697.66,534.185 C1697.66,542.63 1699.59,546.852 1703.47,546.852 C1706.95,546.852 1711.83,542.087 1718.11,532.558 C1723.15,524.966 1725.66,517.993 1725.66,511.64 C1725.66,506.217 1724.77,501.142 1722.99,496.416"/>
<path class="Note" d="M1745.99,650.479 C1750.33,647.535 1753.47,645.094 1755.4,643.157 C1758.97,639.361 1760.75,635.875 1760.75,632.698 C1760.75,629.057 1758.74,627.236 1754.71,627.236 C1746.88,627.236 1738.52,634.132 1729.61,647.922 C1726.89,652.106 1720.93,665.741 1711.71,688.828 C1719.07,696.421 1722.75,700.721 1722.75,701.728 C1722.75,703.122 1721.86,703.819 1720.08,703.819 C1718.68,703.819 1714.85,701.457 1708.57,696.731 C1701.75,712.613 1691.41,726.171 1677.54,737.404 C1663.37,748.871 1646.44,754.604 1626.76,754.604 C1619.24,754.604 1609.83,752.86 1598.52,749.374 C1589.46,746.585 1584.92,742.13 1584.92,736.01 C1584.92,726.945 1588.41,722.413 1595.38,722.413 C1599.57,722.413 1601.66,724.35 1601.66,728.224 C1601.66,729.463 1600.69,730.78 1598.75,732.175 C1597.75,732.872 1597.24,734.228 1597.24,736.242 C1597.24,738.644 1599.91,741.123 1605.26,743.68 C1611.07,746.469 1619.59,747.863 1630.83,747.863 C1645.31,747.863 1659.3,741.588 1672.78,729.037 C1685.02,717.649 1693.81,704.401 1699.16,689.293 C1697.07,687.589 1694.82,685.729 1692.42,683.715 C1684.98,679.299 1681.26,674.767 1681.26,670.118 C1681.26,668.181 1682.54,667.213 1685.1,667.213 C1688.51,667.213 1693.12,670.118 1698.93,675.929 C1700.17,677.168 1701.33,678.331 1702.41,679.415 C1705.12,671.978 1709.46,662.526 1715.43,651.06 C1726.2,630.297 1739.29,619.915 1754.71,619.915 C1760.21,619.915 1764.55,620.961 1767.72,623.053 C1770.9,625.145 1772.49,628.011 1772.49,631.652 C1772.49,637.463 1770.36,642.383 1766.1,646.411 C1761.68,650.595 1757.07,652.687 1752.27,652.687 C1748.08,652.687 1745.99,651.951 1745.99,650.479"/>
<path class="Note" d="M2148.02,587.916 C2148.33,576.217 2154.8,565.836 2167.43,556.771 C2178.66,548.714 2190.94,544.685 2204.27,544.685 C2222.94,544.685 2239.4,552.007 2253.66,566.649 C2262.72,576.024 2267.26,587.645 2267.26,601.513 C2267.26,613.986 2263.92,623.554 2257.26,630.217 C2249.13,638.429 2240.53,642.535 2231.46,642.535 C2225.27,642.535 2220.46,641.14 2217.05,638.351 C2211.47,633.78 2208.69,627.66 2208.69,619.99 C2208.69,610.073 2213.64,601.009 2223.56,592.797 C2231.7,586.056 2239.87,581.64 2248.08,579.549 C2245.91,575.83 2243.16,572.344 2239.83,569.09 C2229.45,558.941 2217.67,553.866 2204.5,553.866 C2190.79,553.866 2179.44,556.849 2170.45,562.814 C2161.16,568.935 2153.68,577.302 2148.02,587.916 M2250.99,585.708 C2246.73,589.659 2242.46,593.881 2238.2,598.375 C2229.84,607.207 2225.65,615.574 2225.65,623.476 C2225.65,631.921 2227.59,636.143 2231.46,636.143 C2234.95,636.143 2239.83,631.379 2246.11,621.849 C2251.14,614.257 2253.66,607.284 2253.66,600.931 C2253.66,595.508 2252.77,590.434 2250.99,585.708"/>
<path class="Note" d="M2148.02,498.624 C2148.33,486.926 2154.8,476.544 2167.43,467.48 C2178.66,459.423 2190.94,455.394 2204.27,455.394 C2222.94,455.394 2239.4,462.715 2253.66,477.358 C2262.72,486.732 2267.26,498.353 2267.26,512.221 C2267.26,524.694 2263.92,534.263 2257.26,540.925 C2249.13,549.138 2240.53,553.244 2231.46,553.244 C2225.27,553.244 2220.46,551.849 2217.05,549.06 C2211.47,544.489 2208.69,538.369 2208.69,530.699 C2208.69,520.782 2213.64,511.718 2223.56,503.505 C2231.7,496.765 2239.87,492.349 2248.08,490.257 C2245.91,486.539 2243.16,483.052 2239.83,479.798 C2229.45,469.649 2217.67,464.575 2204.5,464.575 C2190.79,464.575 2179.44,467.557 2170.45,473.523 C2161.16,479.643 2153.68,488.011 2148.02,498.624 M2250.99,496.416 C2246.73,500.368 2242.46,504.59 2238.2,509.083 C2229.84,517.916 2225.65,526.283 2225.65,534.185 C2225.65,542.63 2227.59,546.852 2231.46,546.852 C2234.95,546.852 2239.83,542.087 2246.11,532.558 C2251.14,524.966 2253.66,517.993 2253.66,511.64 C2253.66,506.217 2252.77,501.142 2250.99,496.416"/>
<path class="Note" d="M2273.99,739.77 C2278.33,736.826 2281.46,734.386 2283.4,732.449 C2286.96,728.652 2288.75,725.166 2288.75,721.99 C2288.75,718.348 2286.73,716.528 2282.7,716.528 C2274.88,716.528 2266.51,723.423 2257.6,737.213 C2254.89,741.397 2248.92,755.032 2239.71,778.12 C2247.07,785.712 2250.75,790.012 2250.75,791.019 C2250.75,792.414 2249.85,793.111 2248.07,793.111 C2246.68,793.111 2242.84,790.748 2236.57,786.022 C2229.75,801.904 2219.41,815.462 2205.54,826.696 C2191.36,838.162 2174.43,843.895 2154.75,843.895 C2147.24,843.895 2137.83,842.152 2126.52,838.666 C2117.45,835.876 2112.92,831.422 2112.92,825.301 C2112.92,816.237 2116.41,811.705 2123.38,811.705 C2127.56,811.705 2129.65,813.641 2129.65,817.515 C2129.65,818.755 2128.68,820.072 2126.75,821.466 C2125.74,822.164 2125.24,823.519 2125.24,825.534 C2125.24,827.935 2127.91,830.415 2133.26,832.971 C2139.07,835.76 2147.59,837.155 2158.82,837.155 C2173.31,837.155 2187.29,830.879 2200.77,818.329 C2213.02,806.94 2221.81,793.692 2227.15,778.584 C2225.06,776.88 2222.82,775.021 2220.41,773.006 C2212.98,768.59 2209.26,764.058 2209.26,759.41 C2209.26,757.473 2210.54,756.504 2213.09,756.504 C2216.5,756.504 2221.11,759.41 2226.92,765.22 C2228.16,766.46 2229.32,767.622 2230.41,768.707 C2233.12,761.269 2237.46,751.817 2243.42,740.351 C2254.19,719.588 2267.29,709.207 2282.7,709.207 C2288.2,709.207 2292.54,710.252 2295.72,712.344 C2298.9,714.436 2300.48,717.303 2300.48,720.944 C2300.48,726.754 2298.35,731.674 2294.09,735.703 C2289.68,739.886 2285.07,741.978 2280.26,741.978 C2276.08,741.978 2273.99,741.242 2273.99,739.77"/>
<path class="Note" d="M2273.99,650.479 C2278.33,647.535 2281.46,645.094 2283.4,643.157 C2286.96,639.361 2288.75,635.875 2288.75,632.698 C2288.75,629.057 2286.73,627.236 2282.7,627.236 C2274.88,627.236 2266.51,634.132 2257.6,647.922 C2254.89,652.106 2248.92,665.741 2239.71,688.828 C2247.07,696.421 2250.75,700.721 2250.75,701.728 C2250.75,703.122 2249.85,703.819 2248.07,703.819 C2246.68,703.819 2242.84,701.457 2236.57,696.731 C2229.75,712.613 2219.41,726.171 2205.54,737.404 C2191.36,748.871 2174.43,754.604 2154.75,754.604 C2147.24,754.604 2137.83,752.86 2126.52,749.374 C2117.45,746.585 2112.92,742.13 2112.92,736.01 C2112.92,726.945 2116.41,722.413 2123.38,722.413 C2127.56,722.413 2129.65,724.35 2129.65,728.224 C2129.65,729.463 2128.68,730.78 2126.75,732.175 C2125.74,732.872 2125.24,734.228 2125.24,736.242 C2125.24,738.644 2127.91,741.123 2133.26,743.68 C2139.07,746.469 2147.59,747.863 2158.82,747.863 C2173.31,747.863 2187.29,741.588 2200.77,729.037 C2213.02,717.649 2221.81,704.401 2227.15,689.293 C2225.06,687.589 2222.82,685.729 2220.41,683.715 C2212.98,679.299 2209.26,674.767 2209.26,670.118 C2209.26,668.181 2210.54,667.213 2213.09,667.213 C2216.5,667.213 2221.11,670.118 2226.92,675.929 C2228.16,677.168 2229.32,678.331 2230.41,679.415 C2233.12,671.978 2237.46,662.526 2243.42,651.06 C2254.19,630.297 2267.29,619.915 2282.7,619.915 C2288.2,619.915 2292.54,620.961 2295.72,623.053 C2298.9,625.145 2300.48,628.011 2300.48,631.652 C2300.48,637.463 2298.35,642.383 2294.09,646.411 C2289.68,650.595 2285.07,652.687 2280.26,652.687 C2276.08,652.687 2273.99,651.951 2273.99,650.479"/>
<path class="Note" d="M2769.24,561.187 C2773.58,558.243 2776.72,555.803 2778.66,553.866 C2782.22,550.07 2784,546.583 2784,543.407 C2784,539.766 2781.99,537.945 2777.96,537.945 C2770.13,537.945 2761.77,544.84 2752.86,558.631 C2750.15,562.814 2744.18,576.45 2734.96,599.537 C2742.32,607.129 2746,611.429 2746,612.436 C2746,613.831 2745.11,614.528 2743.33,614.528 C2741.93,614.528 2738.1,612.165 2731.82,607.439 C2725.01,623.321 2714.66,636.879 2700.79,648.113 C2686.62,659.579 2669.69,665.312 2650.01,665.312 C2642.5,665.312 2633.08,663.569 2621.77,660.083 C2612.71,657.294 2608.17,652.839 2608.17,646.719 C2608.17,637.654 2611.66,633.122 2618.63,633.122 C2622.82,633.122 2624.91,635.059 2624.91,638.932 C2624.91,640.172 2623.94,641.489 2622,642.884 C2621,643.581 2620.49,644.937 2620.49,646.951 C2620.49,649.353 2623.17,651.832 2628.51,654.388 C2634.32,657.178 2642.84,658.572 2654.08,658.572 C2668.57,658.572 2682.55,652.297 2696.03,639.746 C2708.27,628.357 2717.06,615.109 2722.41,600.002 C2720.32,598.297 2718.07,596.438 2715.67,594.424 C2708.23,590.008 2704.51,585.475 2704.51,580.827 C2704.51,578.89 2705.79,577.922 2708.35,577.922 C2711.76,577.922 2716.37,580.827 2722.18,586.638 C2723.42,587.877 2724.58,589.039 2725.66,590.124 C2728.38,582.686 2732.71,573.235 2738.68,561.768 C2749.45,541.005 2762.54,530.624 2777.96,530.624 C2783.46,530.624 2787.8,531.67 2790.97,533.762 C2794.15,535.853 2795.74,538.72 2795.74,542.361 C2795.74,548.172 2793.61,553.091 2789.35,557.12 C2784.93,561.304 2780.32,563.395 2775.52,563.395 C2771.33,563.395 2769.24,562.659 2769.24,561.187"/>
<path class="Note" d="M2769.24,739.77 C2773.58,736.826 2776.72,734.386 2778.66,732.449 C2782.22,728.652 2784,725.166 2784,721.99 C2784,718.348 2781.99,716.528 2777.96,716.528 C2770.13,716.528 2761.77,723.423 2752.86,737.213 C2750.15,741.397 2744.18,755.032 2734.96,778.12 C2742.32,785.712 2746,790.012 2746,791.019 C2746,792.414 2745.11,793.111 2743.33,793.111 C2741.93,793.111 2738.1,790.748 2731.82,786.022 C2725.01,801.904 2714.66,815.462 2700.79,826.696 C2686.62,838.162 2669.69,843.895 2650.01,843.895 C2642.5,843.895 2633.08,842.152 2621.77,838.666 C2612.71,835.876 2608.17,831.422 2608.17,825.301 C2608.17,816.237 2611.66,811.705 2618.63,811.705 C2622.82,811.705 2624.91,813.641 2624.91,817.515 C2624.91,818.755 2623.94,820.072 2622,821.466 C2621,822.164 2620.49,823.519 2620.49,825.534 C2620.49,827.935 2623.17,830.415 2628.51,832.971 C2634.32,835.76 2642.84,837.155 2654.08,837.155 C2668.57,837.155 2682.55,830.879 2696.03,818.329 C2708.27,806.94 2717.06,793.692 2722.41,778.584 C2720.32,776.88 2718.07,775.021 2715.67,773.006 C2708.23,768.59 2704.51,764.058 2704.51,759.41 C2704.51,757.473 2705.79,756.504 2708.35,756.504 C2711.76,756.504 2716.37,759.41 2722.18,765.22 C2723.42,766.46 2724.58,767.622 2725.66,768.707 C2728.38,761.269 2732.71,751.817 2738.68,740.351 C2749.45,719.588 2762.54,709.207 2777.96,709.207 C2783.46,709.207 2787.8,710.252 2790.97,712.344 C2794.15,714.436 2795.74,717.303 2795.74,720.944 C2795.74,726.754 2793.61,731.674 2789.35,735.703 C2784.93,739.886 2780.32,741.978 2775.52,741.978 C2771.33,741.978 2769.24,741.242 2769.24,739.77"/>
<path class="Note" d="M2769.24,471.896 C2773.58,468.952 2776.72,466.512 2778.66,464.575 C2782.22,460.778 2784,457.292 2784,454.116 C2784,450.474 2781.99,448.654 2777.96,448.654 C2770.13,448.654 2761.77,455.549 2752.86,469.339 C2750.15,473.523 2744.18,487.158 2734.96,510.246 C2742.32,517.838 2746,522.138 2746,523.145 C2746,524.54 2745.11,525.237 2743.33,525.237 C2741.93,525.237 2738.1,522.874 2731.82,518.148 C2725.01,534.03 2714.66,547.588 2700.79,558.822 C2686.62,570.288 2669.69,576.021 2650.01,576.021 C2642.5,576.021 2633.08,574.278 2621.77,570.791 C2612.71,568.002 2608.17,563.548 2608.17,557.427 C2608.17,548.363 2611.66,543.831 2618.63,543.831 C2622.82,543.831 2624.91,545.767 2624.91,549.641 C2624.91,550.881 2623.94,552.198 2622,553.592 C2621,554.29 2620.49,555.645 2620.49,557.66 C2620.49,560.061 2623.17,562.541 2628.51,565.097 C2634.32,567.886 2642.84,569.281 2654.08,569.281 C2668.57,569.281 2682.55,563.005 2696.03,550.455 C2708.27,539.066 2717.06,525.818 2722.41,510.71 C2720.32,509.006 2718.07,507.147 2715.67,505.132 C2708.23,500.716 2704.51,496.184 2704.51,491.536 C2704.51,489.599 2705.79,488.63 2708.35,488.63 C2711.76,488.63 2716.37,491.536 2722.18,497.346 C2723.42,498.586 2724.58,499.748 2725.66,500.832 C2728.38,493.395 2732.71,483.943 2738.68,472.477 C2749.45,451.714 2762.54,441.332 2777.96,441.332 C2783.46,441.332 2787.8,442.378 2790.97,444.47 C2794.15,446.562 2795.74,449.429 2795.74,453.07 C2795.74,458.88 2793.61,463.8 2789.35,467.829 C2784.93,472.012 2780.32,474.104 2775.52,474.104 C2771.33,474.104 2769.24,473.368 2769.24,471.896"/>
<path class="Note" d="M2768.43,674.069 C2768.43,682.979 2758.28,702.541 2737.98,732.756 C2729.92,744.764 2718.34,753.558 2703.24,759.136 C2692.08,763.319 2679.18,765.411 2664.54,765.411 C2659.81,765.411 2655.63,764.443 2651.99,762.506 C2647.96,760.414 2645.94,758.129 2645.94,755.65 C2645.94,749.219 2649.39,746.004 2656.29,746.004 C2657.29,746.004 2657.8,746.624 2657.8,747.863 C2657.8,748.948 2657.29,750.149 2656.29,751.466 C2655.05,753.093 2654.43,754.294 2654.43,755.068 C2654.43,757.393 2657.91,758.555 2664.89,758.555 C2680.54,758.555 2692.89,756.657 2701.96,752.86 C2711.41,748.987 2720.82,739.109 2730.2,723.227 L2732.87,718.23 C2728.38,721.638 2723.92,723.343 2719.5,723.343 C2708.5,723.343 2703,718.888 2703,709.979 C2703,700.372 2709.47,690.262 2722.41,679.648 C2732.56,671.435 2741.58,667.329 2749.49,667.329 C2753.44,667.329 2756.73,668.375 2759.37,670.467 C2760.29,669.77 2761.46,669.421 2762.85,669.421 C2766.57,669.421 2768.43,670.971 2768.43,674.069 M2734.26,715.789 L2756.23,675.232 C2754.52,674.844 2752.62,674.651 2750.53,674.651 C2743.02,674.651 2735.74,679.028 2728.69,687.782 C2720.47,698.009 2716.37,706.182 2716.37,712.303 C2716.37,716.332 2719.04,718.346 2724.39,718.346 C2726.94,718.346 2730.23,717.494 2734.26,715.789"/>
<path class="Note" d="M3140.49,587.916 C3140.8,576.217 3147.27,565.836 3159.89,556.771 C3171.13,548.714 3183.41,544.685 3196.73,544.685 C3215.4,544.685 3231.87,552.007 3246.12,566.649 C3255.19,576.024 3259.72,587.645 3259.72,601.513 C3259.72,613.986 3256.39,623.554 3249.72,630.217 C3241.59,638.429 3232.99,642.535 3223.93,642.535 C3217.73,642.535 3212.92,641.14 3209.52,638.351 C3203.94,633.78 3201.15,627.66 3201.15,619.99 C3201.15,610.073 3206.11,601.009 3216.02,592.797 C3224.16,586.056 3232.33,581.64 3240.54,579.549 C3238.37,575.83 3235.62,572.344 3232.29,569.09 C3221.91,558.941 3210.14,553.866 3196.96,553.866 C3183.25,553.866 3171.9,556.849 3162.92,562.814 C3153.62,568.935 3146.14,577.302 3140.49,587.916 M3243.45,585.708 C3239.19,589.659 3234.93,593.881 3230.67,598.375 C3222.3,607.207 3218.12,615.574 3218.12,623.476 C3218.12,631.921 3220.05,636.143 3223.93,636.143 C3227.41,636.143 3232.29,631.379 3238.57,621.849 C3243.6,614.257 3246.12,607.284 3246.12,600.931 C3246.12,595.508 3245.23,590.434 3243.45,585.708"/>
<path class="Note" d="M3287.37,794.854 C3281.02,804.848 3270.98,813.138 3257.27,819.723 C3245.34,825.456 3234.18,828.323 3223.8,828.323 C3215.51,828.323 3208.62,826.657 3203.12,823.326 C3197.15,819.684 3194.17,815.346 3194.17,810.31 C3194.17,798.921 3197.15,789.121 3203.12,780.909 C3211.25,769.752 3219.46,764.174 3227.75,764.174 C3233.64,764.174 3237.82,765.336 3240.3,767.661 C3243.71,770.682 3245.42,774.827 3245.42,780.095 C3245.42,787.533 3239.88,794.002 3228.8,799.502 C3218.03,804.848 3210.55,808.334 3206.37,809.961 C3207.3,811.898 3208.5,813.641 3209.97,815.191 C3213.61,819.065 3218.57,821.001 3224.85,821.001 C3232.75,821.001 3243.36,818.096 3256.69,812.286 C3269.47,806.63 3279.7,800.819 3287.37,794.854 M3204.74,804.616 C3210.55,801.672 3215.86,798.224 3220.66,794.273 C3227.79,788.462 3231.35,782.187 3231.35,775.447 C3231.35,771.651 3229.61,769.752 3226.12,769.752 C3223.18,769.752 3219.15,773.123 3214.04,779.863 C3207.61,788.23 3204.39,795.048 3204.39,800.316 C3204.39,801.788 3204.51,803.221 3204.74,804.616"/>
<path class="Note" d="M3266.45,471.896 C3270.79,468.952 3273.93,466.512 3275.86,464.575 C3279.43,460.778 3281.21,457.292 3281.21,454.116 C3281.21,450.474 3279.19,448.654 3275.17,448.654 C3267.34,448.654 3258.97,455.549 3250.06,469.339 C3247.35,473.523 3241.39,487.158 3232.17,510.246 C3239.53,517.838 3243.21,522.138 3243.21,523.145 C3243.21,524.54 3242.32,525.237 3240.54,525.237 C3239.14,525.237 3235.31,522.874 3229.03,518.148 C3222.21,534.03 3211.87,547.588 3198,558.822 C3183.82,570.288 3166.9,576.021 3147.22,576.021 C3139.7,576.021 3130.29,574.278 3118.98,570.791 C3109.91,568.002 3105.38,563.548 3105.38,557.427 C3105.38,548.363 3108.87,543.831 3115.84,543.831 C3120.02,543.831 3122.12,545.767 3122.12,549.641 C3122.12,550.881 3121.15,552.198 3119.21,553.592 C3118.2,554.29 3117.7,555.645 3117.7,557.66 C3117.7,560.061 3120.37,562.541 3125.72,565.097 C3131.53,567.886 3140.05,569.281 3151.29,569.281 C3165.77,569.281 3179.76,563.005 3193.24,550.455 C3205.48,539.066 3214.27,525.818 3219.62,510.71 C3217.53,509.006 3215.28,507.147 3212.88,505.132 C3205.44,500.716 3201.72,496.184 3201.72,491.536 C3201.72,489.599 3203,488.63 3205.56,488.63 C3208.96,488.63 3213.57,491.536 3219.38,497.346 C3220.62,498.586 3221.79,499.748 3222.87,500.832 C3225.58,493.395 3229.92,483.943 3235.89,472.477 C3246.66,451.714 3259.75,441.332 3275.17,441.332 C3280.67,441.332 3285.01,442.378 3288.18,444.47 C3291.36,446.562 3292.95,449.429 3292.95,453.07 C3292.95,458.88 3290.82,463.8 3286.55,467.829 C3282.14,472.012 3277.53,474.104 3272.73,474.104 C3268.54,474.104 3266.45,473.368 3266.45,471.896"/>
<path class="Note" d="M3265.64,674.069 C3265.64,682.979 3255.49,702.541 3235.19,732.756 C3227.13,744.764 3215.55,753.558 3200.44,759.136 C3189.29,763.319 3176.39,765.411 3161.74,765.411 C3157.02,765.411 3152.83,764.443 3149.19,762.506 C3145.16,760.414 3143.15,758.129 3143.15,755.65 C3143.15,749.219 3146.6,746.004 3153.49,746.004 C3154.5,746.004 3155,746.624 3155,747.863 C3155,748.948 3154.5,750.149 3153.49,751.466 C3152.25,753.093 3151.63,754.294 3151.63,755.068 C3151.63,757.393 3155.12,758.555 3162.09,758.555 C3177.74,758.555 3190.1,756.657 3199.16,752.86 C3208.62,748.987 3218.03,739.109 3227.4,723.227 L3230.08,718.23 C3225.58,721.638 3221.13,723.343 3216.71,723.343 C3205.71,723.343 3200.21,718.888 3200.21,709.979 C3200.21,700.372 3206.68,690.262 3219.62,679.648 C3229.77,671.435 3238.79,667.329 3246.69,667.329 C3250.65,667.329 3253.94,668.375 3256.57,670.467 C3257.5,669.77 3258.66,669.421 3260.06,669.421 C3263.78,669.421 3265.64,670.971 3265.64,674.069 M3231.47,715.789 L3253.43,675.232 C3251.73,674.844 3249.83,674.651 3247.74,674.651 C3240.23,674.651 3232.94,679.028 3225.89,687.782 C3217.68,698.009 3213.57,706.182 3213.57,712.303 C3213.57,716.332 3216.25,718.346 3221.59,718.346 C3224.15,718.346 3227.44,717.494 3231.47,715.789"/>
<path class="Note" d="M3656.59,587.916 C3656.9,576.217 3663.37,565.836 3676,556.771 C3687.23,548.714 3699.51,544.685 3712.84,544.685 C3731.51,544.685 3747.97,552.007 3762.23,566.649 C3771.29,576.024 3775.82,587.645 3775.82,601.513 C3775.82,613.986 3772.49,623.554 3765.83,630.217 C3757.7,638.429 3749.1,642.535 3740.03,642.535 C3733.83,642.535 3729.03,641.14 3725.62,638.351 C3720.04,633.78 3717.25,627.66 3717.25,619.99 C3717.25,610.073 3722.21,601.009 3732.13,592.797 C3740.26,586.056 3748.44,581.64 3756.65,579.549 C3754.48,575.83 3751.73,572.344 3748.4,569.09 C3738.02,558.941 3726.24,553.866 3713.07,553.866 C3699.36,553.866 3688.01,556.849 3679.02,562.814 C3669.72,568.935 3662.25,577.302 3656.59,587.916 M3759.55,585.708 C3755.29,589.659 3751.03,593.881 3746.77,598.375 C3738.4,607.207 3734.22,615.574 3734.22,623.476 C3734.22,631.921 3736.16,636.143 3740.03,636.143 C3743.52,636.143 3748.4,631.379 3754.67,621.849 C3759.71,614.257 3762.23,607.284 3762.23,600.931 C3762.23,595.508 3761.34,590.434 3759.55,585.708"/>
<path class="Note" d="M3656.59,498.624 C3656.9,486.926 3663.37,476.544 3676,467.48 C3687.23,459.423 3699.51,455.394 3712.84,455.394 C3731.51,455.394 3747.97,462.715 3762.23,477.358 C3771.29,486.732 3775.82,498.353 3775.82,512.221 C3775.82,524.694 3772.49,534.263 3765.83,540.925 C3757.7,549.138 3749.1,553.244 3740.03,553.244 C3733.83,553.244 3729.03,551.849 3725.62,549.06 C3720.04,544.489 3717.25,538.369 3717.25,530.699 C3717.25,520.782 3722.21,511.718 3732.13,503.505 C3740.26,496.765 3748.44,492.349 3756.65,490.257 C3754.48,486.539 3751.73,483.052 3748.4,479.798 C3738.02,469.649 3726.24,464.575 3713.07,464.575 C3699.36,464.575 3688.01,467.557 3679.02,473.523 C3669.72,479.643 3662.25,488.011 3656.59,498.624 M3759.55,496.416 C3755.29,500.368 3751.03,504.59 3746.77,509.083 C3738.4,517.916 3734.22,526.283 3734.22,534.185 C3734.22,542.63 3736.16,546.852 3740.03,546.852 C3743.52,546.852 3748.4,542.087 3754.67,532.558 C3759.71,524.966 3762.23,517.993 3762.23,511.64 C3762.23,506.217 3761.34,501.142 3759.55,496.416"/>
<path class="Note" d="M3782.56,739.77 C3786.89,736.826 3790.03,734.386 3791.97,732.449 C3795.53,728.652 3797.31,725.166 3797.31,721.99 C3797.31,718.348 3795.3,716.528 3791.27,716.528 C3783.45,716.528 3775.08,723.423 3766.17,737.213 C3763.46,741.397 3757.49,755.032 3748.27,778.12 C3755.63,785.712 3759.31,790.012 3759.31,791.019 C3759.31,792.414 3758.42,793.111 3756.64,793.111 C3755.25,793.111 3751.41,790.748 3745.14,786.022 C3738.32,801.904 3727.97,815.462 3714.11,826.696 C3699.93,838.162 3683,843.895 3663.32,843.895 C3655.81,843.895 3646.39,842.152 3635.08,838.666 C3626.02,835.876 3621.49,831.422 3621.49,825.301 C3621.49,816.237 3624.97,811.705 3631.95,811.705 C3636.13,811.705 3638.22,813.641 3638.22,817.515 C3638.22,818.755 3637.25,820.072 3635.32,821.466 C3634.31,822.164 3633.81,823.519 3633.81,825.534 C3633.81,827.935 3636.48,830.415 3641.82,832.971 C3647.63,835.76 3656.16,837.155 3667.39,837.155 C3681.88,837.155 3695.86,830.879 3709.34,818.329 C3721.58,806.94 3730.38,793.692 3735.72,778.584 C3733.63,776.88 3731.38,775.021 3728.98,773.006 C3721.54,768.59 3717.83,764.058 3717.83,759.41 C3717.83,757.473 3719.1,756.504 3721.66,756.504 C3725.07,756.504 3729.68,759.41 3735.49,765.22 C3736.73,766.46 3737.89,767.622 3738.98,768.707 C3741.69,761.269 3746.03,751.817 3751.99,740.351 C3762.76,719.588 3775.85,709.207 3791.27,709.207 C3796.77,709.207 3801.11,710.252 3804.29,712.344 C3807.46,714.436 3809.05,717.303 3809.05,720.944 C3809.05,726.754 3806.92,731.674 3802.66,735.703 C3798.24,739.886 3793.63,741.978 3788.83,741.978 C3784.65,741.978 3782.56,741.242 3782.56,739.77"/>
<path class="Note" d="M3782.56,650.479 C3786.89,647.535 3790.03,645.094 3791.97,643.157 C3795.53,639.361 3797.31,635.875 3797.31,632.698 C3797.31,629.057 3795.3,627.236 3791.27,627.236 C3783.45,627.236 3775.08,634.132 3766.17,647.922 C3763.46,652.106 3757.49,665.741 3748.27,688.828 C3755.63,696.421 3759.31,700.721 3759.31,701.728 C3759.31,703.122 3758.42,703.819 3756.64,703.819 C3755.25,703.819 3751.41,701.457 3745.14,696.731 C3738.32,712.613 3727.97,726.171 3714.11,737.404 C3699.93,748.871 3683,754.604 3663.32,754.604 C3655.81,754.604 3646.39,752.86 3635.08,749.374 C3626.02,746.585 3621.49,742.13 3621.49,736.01 C3621.49,726.945 3624.97,722.413 3631.95,722.413 C3636.13,722.413 3638.22,724.35 3638.22,728.224 C3638.22,729.463 3637.25,730.78 3635.32,732.175 C3634.31,732.872 3633.81,734.228 3633.81,736.242 C3633.81,738.644 3636.48,741.123 3641.82,743.68 C3647.63,746.469 3656.16,747.863 3667.39,747.863 C3681.88,747.863 3695.86,741.588 3709.34,729.037 C3721.58,717.649 3730.38,704.401 3735.72,689.293 C3733.63,687.589 3731.38,685.729 3728.98,683.715 C3721.54,679.299 3717.83,674.767 3717.83,670.118 C3717.83,668.181 3719.1,667.213 3721.66,667.213 C3725.07,667.213 3729.68,670.118 3735.49,675.929 C3736.73,677.168 3737.89,678.331 3738.98,679.415 C3741.69,671.978 3746.03,662.526 3751.99,651.06 C3762.76,630.297 3775.85,619.915 3791.27,619.915 C3796.77,619.915 3801.11,620.961 3804.29,623.053 C3807.46,625.145 3809.05,628.011 3809.05,631.652 C3809.05,637.463 3806.92,642.383 3802.66,646.411 C3798.24,650.595 3793.63,652.687 3788.83,652.687 C3784.65,652.687 3782.56,651.951 3782.56,650.479"/>
<path class="Clef" transform="matrix(2.3811,0,0,2.3811,212.156,2247.41)" d="M25.4,-25.1 C17.8,-25.1 11.7,-20.7 11.6,-20.7 C5.8,-16.4 3.5,-11.3 2.6,-7.8 C2.1,-6 1.9,-4.2 1.9,-2.5 C1.9,-0.1 2.3,2.1 3.2,4 C4.4,6.7 6.7,8.6 9.7,9.6 C10.9,10 12.2,10.2 13.5,10.2 C15.7,10.2 18,9.6 19.9,8.5 C23,6.8 24.9,3.2 24.9,-0.7 C24.9,-4.2 23.1,-7.4 20.1,-9.3 C18,-10.7 16,-11.1 14.3,-11.1 C13.1,-11.1 12,-10.9 11.1,-10.6 C10.1,-10.2 8.4,-9.2 7.6,-8.5 C7.9,-10.4 9.1,-13.3 10.2,-14.9 C11.3,-16.5 13.5,-18.5 15.2,-19.4 C17.7,-20.8 20.9,-21.4 24.4,-21.4 C34.6,-21.4 39.6,-13.2 39.6,3.6 C39.6,12.9 36.1,21.8 33.1,27.7 C29.8,34.3 25.4,40.6 21.5,44.1 C11.1,53.6 1.3,58.1 1.2,58.1 C1.2,58.1 -0.3,59 0.1,60.5 C0.4,61.5 1.3,61.7 1.9,61.7 C2,61.7 2.3,61.6 2.4,61.6 C2.5,61.6 13.9,56.9 23,49.8 C28.1,46.1 32.7,42.1 36.7,37.8 C40.3,33.9 43.4,29.7 45.9,25.5 C50.3,18 52.8,10.2 52.8,3.5 C52.8,-4.8 50.6,-11.7 46.5,-16.6 C41.8,-22.2 34.7,-25.1 25.4,-25.1 M56.8,-12.4 C56.8,-9.6 59,-7.4 61.6,-7.4 C64.2,-7.4 66.4,-9.6 66.4,-12.4 C66.4,-15.2 64.2,-17.5 61.6,-17.5 C59,-17.5 56.8,-15.2 56.8,-12.4 M56.8,12.3 C56.8,15.1 59,17.4 61.6,17.4 C64.2,17.4 66.4,15.1 66.4,12.3 C66.4,9.5 64.2,7.2 61.6,7.2 C59,7.2 56.8,9.5 56.8,12.3"/>
<path class="Clef" transform="matrix(2.3811,0,0,2.3811,212.156,1570.39)" d="M63.37,-5.89004 C62.14,-11.32 59.5,-15.14 58.72,-16.1801 C55.5301,-20.45 51.52,-23.3 46.8301,-24.65 C43.72,-25.54 40.72,-25.65 38.3,-25.47 C37.2601,-31.4801 36.2601,-37.3601 35.35,-42.8101 C40.79,-48.97 44.42,-54.77 46.69,-59.07 C50.1601,-65.65 51.3101,-70.2301 51.3601,-70.4301 C53.0801,-75.64 53.44,-83.34 52.34,-91.55 C51.3301,-99.1 49.24,-105.81 46.89,-109.06 C45.8601,-110.49 44.8101,-111.22 43.77,-111.22 C42.55,-111.22 40.04,-109.98 37.15,-107.21 C34.85,-105.01 31.5801,-101.12 29.02,-95.1101 C26.02,-88.05 25.8101,-78.5601 26.1601,-71.84 C26.54,-64.57 27.65,-58.8801 27.6601,-58.8301 C27.6801,-58.74 27.94,-57.24 28.39,-54.67 C28.1601,-54.44 27.92,-54.22 27.67,-53.9801 C26.6301,-52.9801 25.44,-51.84 24.0601,-50.4601 C23.2,-49.6 22.25,-48.69 21.25,-47.72 C12.79,-39.57 0,-27.25 0,-8.1 C0,-3.4 0.9,1.01992 2.68008,5.02998 C4.27002,8.62998 6.57002,11.91 9.5,14.78 C17.2301,22.33 27.82,25.5399 34.8801,25.38 C37.8301,25.31 40.4601,25.0699 42.85,24.6199 C44.6801,34.2199 45.82,41.25 45.8601,46.5899 C45.9,53.1 44.25,57.0699 40.35,59.8399 C37.92,61.5699 35.1101,62.5199 32.0101,62.6699 C29.42,62.7899 27.1601,62.3199 25.7301,61.91 L25.72,61.91 C25.72,61.91 25.4301,61.83 25.42,61.63 C25.4101,61.45 25.7601,61.4 25.77,61.4 L25.79,61.4 C27.7101,60.96 31.2801,59.73 33.64,56.43 C35.44,53.91 36.3101,49.2899 34.47,45.35 C33.3601,42.96 30.85,40.01 25.2301,39.56 C22.74,39.36 20.47,39.8699 18.47,41.0699 C16.6601,42.15 15.1601,43.7899 14.1101,45.7899 C11.65,50.4899 12.1101,56.2199 15.24,60.06 C18.2,63.68 22.82,65.9899 28.25,66.5699 C29.1,66.66 29.95,66.7 30.8,66.7 C31.5101,66.7 32.22,66.6699 32.92,66.61 C31.72,66.9399 30.64,67.4899 29.77,68.25 C28.2801,69.5399 27.44,71.38 27.44,73.41 C27.44,75.28 28.0601,76.65 29.55,78.0399 C28.4101,78.5 27.55,78.98 26.79,79.56 C25.25,80.73 24.34,82.46 24.34,84.1899 C24.34,87.45 27.3,89.63 31.72,89.63 C37.1301,89.63 40.9101,86.63 40.9101,82.35 C40.9101,80.1199 39.9101,78.18 38.0801,76.83 C41.0101,75.6199 42.37,73.9399 42.37,71.56 C42.39,70.05 41.69,68.61 40.49,67.6899 C39.2801,66.7399 37.62,66.2399 35.69,66.2399 L35.5101,66.2399 C38.2801,65.7 40.92,64.7 43.2101,63.28 C46.87,60.71 48.99,56.73 49.67,51.1 C50.2301,46.46 49.84,40.55 48.44,32.48 C48.0801,30.3899 47.54,27.36 46.8801,23.6 C52.6301,21.68 56.79,18.11 60.5601,12.26 C63.85,6.51992 64.8,0.419922 63.37,-5.89004 M32.39,87.5399 C30.19,87.5399 28.7301,86.1199 28.7301,84.01 C28.7301,82.11 29.65,80.5 31.32,79.4699 C31.6801,79.66 31.77,79.71 32.1101,79.88 C33.3,80.48 33.3,80.48 33.55,80.63 L33.5601,80.6399 C35.47,81.73 36.25,82.76 36.25,84.18 C36.24,86.0899 34.59,87.5399 32.39,87.5399 M38.3101,71.63 C38.3101,73.2699 37.7301,74.3399 36.1801,75.53 C34.74,74.78 34.35,74.56 33.9801,74.3399 L33.8801,74.28 C32.3301,73.3399 31.85,72.66 31.85,71.4 C31.85,69.6 33.2301,68.3399 35.19,68.3399 C37.17,68.35 38.3101,69.55 38.3101,71.63 M33.15,-83.8101 C34.9301,-89.55 37.67,-92.8 39.6601,-94.5301 C41.4101,-96.05 43.0601,-96.7601 43.9801,-96.7601 C44.12,-96.7601 44.24,-96.74 44.34,-96.7101 C44.8,-96.57 45.3301,-96 45.8,-95.1301 C48.1101,-90.84 47.37,-84.1301 46.0301,-79.69 C44.4,-74.29 41.4801,-68.6801 32.69,-59.0601 C32.52,-60.17 32.3601,-61.22 32.2101,-62.2 C30.95,-70.49 31.27,-77.7601 33.15,-83.8101 M29.15,20.31 C24.5101,19.0899 20.0801,16.5899 16.32,13.0899 C15.0101,11.86 13.14,9.68994 11.67,6.3 C10.3101,3.13994 9.65,-0.290039 9.7,-3.88008 C9.77002,-8.57002 11.0801,-13.39 13.59,-18.1801 C16.5101,-23.7601 21.07,-29.29 27.1301,-34.62 C28.5801,-35.9 29.95,-37.1801 31.24,-38.4601 C32,-34.2 32.8301,-29.5101 33.7101,-24.6301 C29.8601,-23.3601 25.1101,-20.2101 22,-14.5601 C18.47,-7.99004 18.6101,-2.47002 19.34,1.00996 C20.2801,5.46992 22.8101,9.22998 26.27,11.3199 C27.2,11.88 31.3301,14.01 33.17,13.43 C33.54,13.31 33.8101,13.0899 33.95,12.76 C34.4601,11.5899 33.44,10.95 31.8801,9.98994 C31.2801,9.61992 30.6101,9.2 29.8801,8.66992 C26.5601,6.17998 25.1101,1.72998 26.1801,-2.65 C26.7601,-5.05 28.04,-7.21006 29.8801,-8.91006 C31.55,-10.4601 33.59,-11.5601 35.97,-12.2 C38.0101,-0.960059 40.07,10.1899 41.7101,18.55 C41.84,19.2399 41.9801,19.91 42.1101,20.58 C37.7101,21.51 33.37,21.4199 29.15,20.31 M54.9,10.1 C53.7301,13.28 51.27,17.35 46.14,19.41 C46.07,18.9899 45.99,18.56 45.9101,18.13 C44.3601,9.36992 42.4301,-1.61006 40.47,-12.87 C50.82,-13.35 55.09,-5.91006 55.9801,-1.08008 C56.45,1.45 56.45,5.88994 54.9,10.1"/>
<path class="FiguredBass" d="M580.126,2615.45 C579.446,2616.2 578.549,2616.57 577.436,2616.57 C576.322,2616.57 575.41,2616.18 574.699,2615.41 C573.988,2614.64 573.632,2613.75 573.632,2612.76 L573.632,2599.5 L560.365,2599.5 C559.252,2599.5 558.34,2599.11 557.628,2598.34 C556.917,2597.56 556.562,2596.68 556.562,2595.69 C556.562,2594.7 556.917,2593.82 557.628,2593.05 C558.34,2592.28 559.252,2591.89 560.365,2591.89 L573.632,2591.89 L573.632,2578.62 C573.632,2577.63 573.988,2576.75 574.699,2575.98 C575.41,2575.21 576.322,2574.82 577.436,2574.82 C578.549,2574.82 579.461,2575.21 580.172,2575.98 C580.884,2576.75 581.239,2577.63 581.239,2578.62 L581.239,2591.89 L594.506,2591.89 C595.619,2591.89 596.531,2592.28 597.243,2593.05 C597.954,2593.82 598.31,2594.7 598.31,2595.69 C598.31,2596.68 597.954,2597.56 597.243,2598.34 C596.531,2599.11 595.619,2599.5 594.506,2599.5 L581.239,2599.5 L581.239,2612.76 C581.239,2613.75 580.868,2614.65 580.126,2615.45 M633.55,2561.18 C628.973,2561.18 625.927,2563.02 624.412,2566.7 C622.896,2570.38 622.139,2575.59 622.139,2582.33 L622.139,2593.28 C625.355,2591.98 628.138,2591.3 630.488,2591.24 C638.529,2591.24 644.853,2593.02 649.461,2596.58 C654.068,2600.13 656.372,2605.42 656.372,2612.44 C656.372,2619.46 654.037,2624.76 649.368,2628.35 C644.698,2631.94 638.405,2633.73 630.488,2633.73 C622.386,2633.73 616.047,2629.97 611.47,2622.46 C606.893,2614.94 604.605,2606.02 604.605,2595.69 C604.605,2585.43 607.264,2576.52 612.583,2568.98 C617.902,2561.43 624.891,2557.66 633.55,2557.66 C639.24,2557.66 644.157,2559.09 648.301,2561.97 C652.445,2564.85 654.517,2568.63 654.517,2573.34 C654.517,2576.06 653.527,2578.41 651.548,2580.39 C649.569,2582.37 647.203,2583.35 644.451,2583.35 C641.698,2583.35 639.333,2582.37 637.354,2580.39 C635.374,2578.41 634.385,2576.06 634.385,2573.34 C634.385,2570.68 635.374,2568.33 637.354,2566.28 C638.034,2565.48 638.993,2564.8 640.23,2564.24 C639.92,2563.44 639.302,2562.82 638.374,2562.39 C637.013,2561.58 635.405,2561.18 633.55,2561.18 M638.096,2599.13 C636.982,2596.22 634.539,2594.77 630.767,2594.77 C626.994,2594.77 624.659,2596.22 623.762,2599.13 C622.865,2602.03 622.417,2606.46 622.417,2612.39 C622.417,2619.38 622.865,2624.08 623.762,2626.49 C624.659,2628.91 626.994,2630.11 630.767,2630.11 C634.539,2630.11 636.982,2628.66 638.096,2625.75 C639.209,2622.85 639.766,2618.41 639.766,2612.44 C639.766,2606.47 639.209,2602.03 638.096,2599.13"/>
<path class="FiguredBass" d="M2726.91,2633.73 C2720.91,2633.73 2716.55,2632.06 2713.83,2628.72 C2712.84,2627.48 2711.57,2626.34 2710.03,2625.29 C2708.48,2624.24 2706.78,2623.71 2704.93,2623.71 C2702.51,2623.71 2700.35,2624.47 2698.43,2625.98 C2696.51,2627.5 2695.56,2629.53 2695.56,2632.06 C2695.56,2633.17 2695,2633.73 2693.89,2633.73 C2692.65,2633.73 2692.03,2633.17 2692.03,2632.06 C2692.03,2628.29 2692.91,2624.84 2694.67,2621.72 C2696.44,2618.59 2698.65,2615.96 2701.31,2613.83 C2703.97,2611.7 2706.84,2609.41 2709.94,2606.97 C2713.03,2604.52 2715.89,2602.16 2718.52,2599.87 C2721.15,2597.58 2723.34,2594.69 2725.1,2591.19 C2726.87,2587.7 2727.75,2583.88 2727.75,2579.74 C2727.75,2574.54 2726.9,2570.15 2725.2,2566.56 C2723.5,2562.98 2720.82,2561.18 2717.17,2561.18 C2715.07,2561.18 2713.24,2561.69 2711.7,2562.71 C2710.15,2563.73 2709.38,2565.08 2709.38,2566.75 C2709.38,2568.05 2710.26,2569.75 2712.02,2571.85 C2713.79,2573.95 2714.67,2575.72 2714.67,2577.14 C2714.67,2580.11 2713.66,2582.6 2711.65,2584.61 C2709.64,2586.62 2707.21,2587.62 2704.37,2587.62 C2701.4,2587.62 2698.91,2586.59 2696.9,2584.51 C2694.89,2582.44 2693.89,2579.98 2693.89,2577.14 C2693.89,2571.45 2696.16,2566.78 2700.7,2563.13 C2705.25,2559.48 2710.74,2557.66 2717.17,2557.66 C2724.78,2557.66 2731.41,2559.71 2737.07,2563.83 C2742.73,2567.94 2745.56,2573.24 2745.56,2579.74 C2745.56,2584.13 2744.77,2587.93 2743.19,2591.15 C2741.62,2594.36 2739.36,2596.96 2736.42,2598.94 C2733.48,2600.92 2730.55,2602.61 2727.61,2604 C2724.67,2605.39 2721.22,2606.89 2717.26,2608.5 C2713.31,2610.1 2710.12,2611.68 2707.71,2613.23 C2709.01,2612.92 2710.34,2612.76 2711.7,2612.76 C2716.27,2612.76 2721.04,2614.25 2725.98,2617.22 C2730.93,2620.19 2734.83,2621.67 2737.67,2621.67 C2739.28,2621.67 2740.6,2621.38 2741.62,2620.79 C2742.64,2620.2 2743.3,2619.55 2743.61,2618.84 C2743.92,2618.13 2744.28,2617.46 2744.68,2616.85 C2745.08,2616.23 2745.53,2615.92 2746.02,2615.92 C2747.26,2615.92 2747.88,2616.54 2747.88,2617.77 C2747.88,2620.43 2745.96,2623.76 2742.13,2627.75 C2738.29,2631.74 2733.22,2633.73 2726.91,2633.73"/>
<path class="FiguredBass" d="M3219.94,2561.18 C3215.37,2561.18 3212.32,2563.02 3210.81,2566.7 C3209.29,2570.38 3208.53,2575.59 3208.53,2582.33 L3208.53,2593.28 C3211.75,2591.98 3214.53,2591.3 3216.88,2591.24 C3224.92,2591.24 3231.25,2593.02 3235.86,2596.58 C3240.46,2600.13 3242.77,2605.42 3242.77,2612.44 C3242.77,2619.46 3240.43,2624.76 3235.76,2628.35 C3231.09,2631.94 3224.8,2633.73 3216.88,2633.73 C3208.78,2633.73 3202.44,2629.97 3197.86,2622.46 C3193.29,2614.94 3191,2606.02 3191,2595.69 C3191,2585.43 3193.66,2576.52 3198.98,2568.98 C3204.3,2561.43 3211.29,2557.66 3219.94,2557.66 C3225.63,2557.66 3230.55,2559.09 3234.7,2561.97 C3238.84,2564.85 3240.91,2568.63 3240.91,2573.34 C3240.91,2576.06 3239.92,2578.41 3237.94,2580.39 C3235.96,2582.37 3233.6,2583.35 3230.85,2583.35 C3228.09,2583.35 3225.73,2582.37 3223.75,2580.39 C3221.77,2578.41 3220.78,2576.06 3220.78,2573.34 C3220.78,2570.68 3221.77,2568.33 3223.75,2566.28 C3224.43,2565.48 3225.39,2564.8 3226.62,2564.24 C3226.32,2563.44 3225.7,2562.82 3224.77,2562.39 C3223.41,2561.58 3221.8,2561.18 3219.94,2561.18 M3224.49,2599.13 C3223.38,2596.22 3220.93,2594.77 3217.16,2594.77 C3213.39,2594.77 3211.05,2596.22 3210.16,2599.13 C3209.26,2602.03 3208.81,2606.46 3208.81,2612.39 C3208.81,2619.38 3209.26,2624.08 3210.16,2626.49 C3211.05,2628.91 3213.39,2630.11 3217.16,2630.11 C3220.93,2630.11 3223.38,2628.66 3224.49,2625.75 C3225.6,2622.85 3226.16,2618.41 3226.16,2612.44 C3226.16,2606.47 3225.6,2602.03 3224.49,2599.13"/>
<path class="FiguredBass" d="M3197.31,2663.41 L3201.76,2664.06 C3202.94,2664.24 3204.39,2664.43 3206.12,2664.61 C3210.39,2665.11 3214.5,2665.35 3218.46,2665.35 C3222.42,2665.35 3226.59,2665.11 3230.98,2664.61 C3232.72,2664.43 3234.23,2664.24 3235.53,2664.06 L3240.08,2663.41 C3241,2663.41 3241.72,2663.72 3242.21,2664.33 C3242.58,2664.83 3242.52,2665.32 3242.02,2665.82 C3232.38,2675.28 3219.05,2680.01 3202.04,2680.01 C3201.36,2680.01 3200.76,2680.26 3200.23,2680.76 C3199.7,2681.25 3199.44,2681.87 3199.44,2682.61 L3199.44,2694.39 C3203.83,2690.06 3209.15,2687.9 3215.4,2687.9 C3224.12,2687.9 3230.92,2689.94 3235.81,2694.02 C3241.13,2690 3243.91,2684.87 3244.16,2678.62 C3244.22,2676.64 3244.87,2675.03 3246.11,2673.8 C3247.47,2672.56 3249.11,2671.94 3251.02,2671.94 C3252.94,2671.94 3254.56,2672.59 3255.89,2673.89 C3257.22,2675.19 3257.89,2676.77 3257.89,2678.62 C3257.89,2688.21 3252.23,2695.48 3240.91,2700.42 C3242.77,2704.07 3243.69,2708.53 3243.69,2713.78 C3243.69,2720.77 3240.91,2726.8 3235.35,2731.87 C3229.78,2736.95 3223.13,2739.48 3215.4,2739.48 C3208.72,2739.48 3202.92,2737.97 3198,2734.94 C3193.09,2731.9 3190.63,2727.7 3190.63,2722.32 C3190.63,2719.6 3191.62,2717.23 3193.6,2715.22 C3195.58,2713.21 3197.94,2712.21 3200.69,2712.21 C3203.45,2712.21 3205.78,2713.2 3207.7,2715.17 C3209.62,2717.15 3210.57,2719.53 3210.57,2722.32 C3210.57,2723.55 3209.55,2724.9 3207.51,2726.35 C3205.47,2727.81 3204.45,2729.15 3204.45,2730.39 C3204.45,2734.1 3208.1,2735.96 3215.4,2735.96 C3222.51,2735.96 3226.07,2728.56 3226.07,2713.78 C3226.07,2710.5 3225.88,2707.63 3225.51,2705.15 C3218.03,2706.7 3208.66,2707.91 3197.4,2708.77 C3195.85,2708.9 3195.08,2708.12 3195.08,2706.45 C3195.08,2705.09 3195.85,2704.35 3197.4,2704.23 C3208.78,2703.3 3217.75,2701.81 3224.31,2699.77 C3222.57,2694.83 3219.6,2692.32 3215.4,2692.26 C3209.03,2692.26 3204.58,2693.56 3202.04,2696.16 C3199.5,2698.75 3197.93,2700.05 3197.31,2700.05 C3195.82,2700.05 3195.08,2699.28 3195.08,2697.73 L3195.08,2665.82 C3195.08,2665.2 3195.3,2664.64 3195.73,2664.15 C3196.23,2663.65 3196.75,2663.41 3197.31,2663.41"/>
<path class="FiguredBass" d="M632.9,1763.53 C635.251,1763.53 637.725,1763.19 640.322,1762.51 L644.497,1761.4 C645.301,1761.4 645.935,1761.71 646.399,1762.32 C646.863,1762.94 646.816,1763.5 646.26,1763.99 L603.12,1814.18 L628.447,1814.18 L628.447,1794.33 C628.447,1792.91 628.834,1791.81 629.607,1791.04 C630.38,1790.26 631.37,1789.65 632.576,1789.18 C633.782,1788.72 635.359,1787.34 637.307,1785.05 C639.255,1782.77 641.126,1779.67 642.92,1775.78 C643.229,1775.16 643.693,1774.85 644.312,1774.85 C645.61,1774.85 646.26,1775.56 646.26,1776.98 L646.26,1814.18 L657.207,1814.18 C658.753,1814.18 659.526,1814.9 659.526,1816.32 C659.526,1817.86 658.753,1818.64 657.207,1818.64 L646.26,1818.64 L646.26,1819.84 C646.26,1823.68 647.28,1827.02 649.321,1829.86 C651.362,1832.71 653.991,1834.13 657.207,1834.13 C658.444,1834.13 659.063,1834.69 659.063,1835.8 C659.063,1837.04 658.444,1837.66 657.207,1837.66 C654.981,1837.66 651.672,1837.33 647.28,1836.68 C642.889,1836.03 639.565,1835.71 637.307,1835.71 C635.05,1835.71 631.725,1836.03 627.334,1836.68 C622.943,1837.33 619.634,1837.66 617.407,1837.66 C616.17,1837.66 615.552,1837.04 615.552,1835.8 C615.552,1834.69 616.17,1834.13 617.407,1834.13 C620.623,1834.13 623.267,1832.71 625.339,1829.86 C627.411,1827.02 628.447,1823.68 628.447,1819.84 L628.447,1818.64 L603.12,1818.64 C601.512,1818.64 600.322,1818.25 599.548,1817.48 C598.775,1816.7 598.389,1815.92 598.389,1815.11 C598.389,1814.8 599.115,1813.74 600.569,1811.91 C602.022,1810.09 603.801,1807.66 605.903,1804.63 C608.006,1801.6 610.094,1798.15 612.166,1794.28 C614.238,1790.42 616,1785.78 617.454,1780.37 C618.907,1774.96 619.634,1769.5 619.634,1763.99 C619.634,1762.39 620.314,1761.58 621.675,1761.58 C621.86,1761.58 622.51,1761.74 623.623,1762.05 C624.736,1762.36 626.159,1762.68 627.891,1763.02 C629.622,1763.36 631.292,1763.53 632.9,1763.53"/>
<path class="FiguredBass" d="M645.425,1903.05 C645.425,1904.04 645.982,1905 647.095,1905.93 C648.208,1906.85 649.43,1907.73 650.759,1908.57 C652.089,1909.4 653.311,1910.98 654.424,1913.3 C655.537,1915.62 656.094,1918.54 656.094,1922.07 C656.094,1928.87 653.527,1934.13 648.394,1937.84 C643.26,1941.55 636.766,1943.41 628.911,1943.41 C622.603,1943.41 617.114,1941.83 612.444,1938.67 C607.774,1935.52 605.44,1931.38 605.44,1926.24 C605.44,1923.52 606.429,1921.16 608.408,1919.15 C610.387,1917.14 612.753,1916.13 615.505,1916.13 C618.258,1916.13 620.593,1917.12 622.51,1919.1 C624.427,1921.08 625.386,1923.46 625.386,1926.24 C625.386,1927.48 624.365,1928.83 622.324,1930.28 C620.283,1931.73 619.263,1933.08 619.263,1934.31 C619.263,1936.23 620.206,1937.64 622.092,1938.54 C623.979,1939.43 626.252,1939.88 628.911,1939.88 C632.375,1939.88 634.833,1938.16 636.287,1934.73 C637.74,1931.3 638.467,1927.08 638.467,1922.07 L638.467,1919.66 C638.467,1916.32 638.359,1913.78 638.142,1912.05 C637.926,1910.32 637.245,1908.77 636.101,1907.41 C634.957,1906.05 633.21,1905.37 630.859,1905.37 L618.706,1905.37 C617.284,1905.37 616.572,1904.6 616.572,1903.05 C616.572,1901.63 617.284,1900.92 618.706,1900.92 L630.859,1900.92 C633.395,1900.92 635.374,1899.96 636.797,1898.04 C637.292,1897.36 637.694,1896.25 638.003,1894.7 C638.312,1892.66 638.467,1889.72 638.467,1885.89 L638.467,1884.68 C638.467,1875.47 635.065,1870.86 628.262,1870.86 C622.262,1870.86 619.263,1872.53 619.263,1875.87 C619.263,1876.98 620.175,1878.17 622,1879.44 C623.824,1880.71 624.736,1881.9 624.736,1883.01 C624.736,1885.42 623.886,1887.49 622.185,1889.23 C620.484,1890.96 618.412,1891.82 615.969,1891.82 C613.526,1891.82 611.47,1890.96 609.8,1889.23 C608.13,1887.49 607.295,1885.42 607.295,1883.01 C607.295,1878.25 609.367,1874.44 613.511,1871.6 C617.655,1868.75 622.572,1867.33 628.262,1867.33 C635.746,1867.33 641.899,1868.77 646.724,1871.65 C651.548,1874.52 653.96,1878.87 653.96,1884.68 C653.96,1888.82 653.527,1892.04 652.661,1894.33 C651.795,1896.62 650.806,1898.01 649.692,1898.5 C648.579,1899 647.59,1899.57 646.724,1900.22 C645.858,1900.87 645.425,1901.81 645.425,1903.05"/>
<path class="FiguredBass" d="M633.55,1976.61 C628.973,1976.61 625.927,1978.45 624.412,1982.13 C622.896,1985.81 622.139,1991.02 622.139,1997.76 L622.139,2008.71 C625.355,2007.41 628.138,2006.73 630.488,2006.67 C638.529,2006.67 644.853,2008.44 649.461,2012 C654.068,2015.56 656.372,2020.84 656.372,2027.86 C656.372,2034.88 654.037,2040.19 649.368,2043.78 C644.698,2047.36 638.405,2049.16 630.488,2049.16 C622.386,2049.16 616.047,2045.4 611.47,2037.88 C606.893,2030.37 604.605,2021.45 604.605,2011.12 C604.605,2000.85 607.264,1991.95 612.583,1984.4 C617.902,1976.85 624.891,1973.08 633.55,1973.08 C639.24,1973.08 644.157,1974.52 648.301,1977.4 C652.445,1980.27 654.517,1984.06 654.517,1988.76 C654.517,1991.48 653.527,1993.83 651.548,1995.81 C649.569,1997.79 647.203,1998.78 644.451,1998.78 C641.698,1998.78 639.333,1997.79 637.354,1995.81 C635.374,1993.83 634.385,1991.48 634.385,1988.76 C634.385,1986.1 635.374,1983.75 637.354,1981.71 C638.034,1980.91 638.993,1980.23 640.23,1979.67 C639.92,1978.86 639.302,1978.25 638.374,1977.81 C637.013,1977.01 635.405,1976.61 633.55,1976.61 M638.096,2014.55 C636.982,2011.64 634.539,2010.19 630.767,2010.19 C626.994,2010.19 624.659,2011.64 623.762,2014.55 C622.865,2017.46 622.417,2021.88 622.417,2027.82 C622.417,2034.81 622.865,2039.51 623.762,2041.92 C624.659,2044.33 626.994,2045.54 630.767,2045.54 C634.539,2045.54 636.982,2044.08 638.096,2041.18 C639.209,2038.27 639.766,2033.83 639.766,2027.86 C639.766,2021.9 639.209,2017.46 638.096,2014.55"/>
<path class="FiguredBass" d="M2722.09,1763.53 C2724.44,1763.53 2726.91,1763.19 2729.51,1762.51 L2733.69,1761.4 C2734.49,1761.4 2735.12,1761.71 2735.59,1762.32 C2736.05,1762.94 2736,1763.5 2735.45,1763.99 L2692.31,1814.18 L2717.64,1814.18 L2717.64,1794.33 C2717.64,1792.91 2718.02,1791.81 2718.79,1791.04 C2719.57,1790.26 2720.56,1789.65 2721.76,1789.18 C2722.97,1788.72 2724.55,1787.34 2726.5,1785.05 C2728.44,1782.77 2730.31,1779.67 2732.11,1775.78 C2732.42,1775.16 2732.88,1774.85 2733.5,1774.85 C2734.8,1774.85 2735.45,1775.56 2735.45,1776.98 L2735.45,1814.18 L2746.39,1814.18 C2747.94,1814.18 2748.71,1814.9 2748.71,1816.32 C2748.71,1817.86 2747.94,1818.64 2746.39,1818.64 L2735.45,1818.64 L2735.45,1819.84 C2735.45,1823.68 2736.47,1827.02 2738.51,1829.86 C2740.55,1832.71 2743.18,1834.13 2746.39,1834.13 C2747.63,1834.13 2748.25,1834.69 2748.25,1835.8 C2748.25,1837.04 2747.63,1837.66 2746.39,1837.66 C2744.17,1837.66 2740.86,1837.33 2736.47,1836.68 C2732.08,1836.03 2728.75,1835.71 2726.5,1835.71 C2724.24,1835.71 2720.91,1836.03 2716.52,1836.68 C2712.13,1837.33 2708.82,1837.66 2706.6,1837.66 C2705.36,1837.66 2704.74,1837.04 2704.74,1835.8 C2704.74,1834.69 2705.36,1834.13 2706.6,1834.13 C2709.81,1834.13 2712.46,1832.71 2714.53,1829.86 C2716.6,1827.02 2717.64,1823.68 2717.64,1819.84 L2717.64,1818.64 L2692.31,1818.64 C2690.7,1818.64 2689.51,1818.25 2688.74,1817.48 C2687.96,1816.7 2687.58,1815.92 2687.58,1815.11 C2687.58,1814.8 2688.3,1813.74 2689.76,1811.91 C2691.21,1810.09 2692.99,1807.66 2695.09,1804.63 C2697.19,1801.6 2699.28,1798.15 2701.35,1794.28 C2703.43,1790.42 2705.19,1785.78 2706.64,1780.37 C2708.09,1774.96 2708.82,1769.5 2708.82,1763.99 C2708.82,1762.39 2709.5,1761.58 2710.86,1761.58 C2711.05,1761.58 2711.7,1761.74 2712.81,1762.05 C2713.92,1762.36 2715.35,1762.68 2717.08,1763.02 C2718.81,1763.36 2720.48,1763.53 2722.09,1763.53"/>
<path class="FiguredBass" d="M2726.91,1943.41 C2720.91,1943.41 2716.55,1941.74 2713.83,1938.4 C2712.84,1937.16 2711.57,1936.02 2710.03,1934.96 C2708.48,1933.91 2706.78,1933.39 2704.93,1933.39 C2702.51,1933.39 2700.35,1934.14 2698.43,1935.66 C2696.51,1937.17 2695.56,1939.2 2695.56,1941.74 C2695.56,1942.85 2695,1943.41 2693.89,1943.41 C2692.65,1943.41 2692.03,1942.85 2692.03,1941.74 C2692.03,1937.96 2692.91,1934.52 2694.67,1931.39 C2696.44,1928.27 2698.65,1925.64 2701.31,1923.51 C2703.97,1921.37 2706.84,1919.08 2709.94,1916.64 C2713.03,1914.2 2715.89,1911.83 2718.52,1909.54 C2721.15,1907.26 2723.34,1904.36 2725.1,1900.87 C2726.87,1897.38 2727.75,1893.56 2727.75,1889.41 C2727.75,1884.22 2726.9,1879.83 2725.2,1876.24 C2723.5,1872.65 2720.82,1870.86 2717.17,1870.86 C2715.07,1870.86 2713.24,1871.37 2711.7,1872.39 C2710.15,1873.41 2709.38,1874.75 2709.38,1876.42 C2709.38,1877.72 2710.26,1879.42 2712.02,1881.53 C2713.79,1883.63 2714.67,1885.39 2714.67,1886.81 C2714.67,1889.78 2713.66,1892.27 2711.65,1894.28 C2709.64,1896.29 2707.21,1897.3 2704.37,1897.3 C2701.4,1897.3 2698.91,1896.26 2696.9,1894.19 C2694.89,1892.12 2693.89,1889.66 2693.89,1886.81 C2693.89,1881.12 2696.16,1876.45 2700.7,1872.81 C2705.25,1869.16 2710.74,1867.33 2717.17,1867.33 C2724.78,1867.33 2731.41,1869.39 2737.07,1873.5 C2742.73,1877.61 2745.56,1882.92 2745.56,1889.41 C2745.56,1893.8 2744.77,1897.61 2743.19,1900.82 C2741.62,1904.04 2739.36,1906.64 2736.42,1908.62 C2733.48,1910.6 2730.55,1912.28 2727.61,1913.67 C2724.67,1915.06 2721.22,1916.56 2717.26,1918.17 C2713.31,1919.78 2710.12,1921.36 2707.71,1922.9 C2709.01,1922.59 2710.34,1922.44 2711.7,1922.44 C2716.27,1922.44 2721.04,1923.92 2725.98,1926.89 C2730.93,1929.86 2734.83,1931.35 2737.67,1931.35 C2739.28,1931.35 2740.6,1931.05 2741.62,1930.46 C2742.64,1929.88 2743.3,1929.23 2743.61,1928.52 C2743.92,1927.8 2744.28,1927.14 2744.68,1926.52 C2745.08,1925.9 2745.53,1925.59 2746.02,1925.59 C2747.26,1925.59 2747.88,1926.21 2747.88,1927.45 C2747.88,1930.11 2745.96,1933.43 2742.13,1937.42 C2738.29,1941.41 2733.22,1943.41 2726.91,1943.41"/>
<path class="FiguredBass" d="M2722.74,1976.61 C2718.16,1976.61 2715.11,1978.45 2713.6,1982.13 C2712.08,1985.81 2711.33,1991.02 2711.33,1997.76 L2711.33,2008.71 C2714.54,2007.41 2717.33,2006.73 2719.68,2006.67 C2727.72,2006.67 2734.04,2008.44 2738.65,2012 C2743.26,2015.56 2745.56,2020.84 2745.56,2027.86 C2745.56,2034.88 2743.23,2040.19 2738.56,2043.78 C2733.89,2047.36 2727.59,2049.16 2719.68,2049.16 C2711.57,2049.16 2705.23,2045.4 2700.66,2037.88 C2696.08,2030.37 2693.79,2021.45 2693.79,2011.12 C2693.79,2000.85 2696.45,1991.95 2701.77,1984.4 C2707.09,1976.85 2714.08,1973.08 2722.74,1973.08 C2728.43,1973.08 2733.34,1974.52 2737.49,1977.4 C2741.63,1980.27 2743.7,1984.06 2743.7,1988.76 C2743.7,1991.48 2742.71,1993.83 2740.74,1995.81 C2738.76,1997.79 2736.39,1998.78 2733.64,1998.78 C2730.89,1998.78 2728.52,1997.79 2726.54,1995.81 C2724.56,1993.83 2723.57,1991.48 2723.57,1988.76 C2723.57,1986.1 2724.56,1983.75 2726.54,1981.71 C2727.22,1980.91 2728.18,1980.23 2729.42,1979.67 C2729.11,1978.86 2728.49,1978.25 2727.56,1977.81 C2726.2,1977.01 2724.59,1976.61 2722.74,1976.61 M2727.28,2014.55 C2726.17,2011.64 2723.73,2010.19 2719.95,2010.19 C2716.18,2010.19 2713.85,2011.64 2712.95,2014.55 C2712.05,2017.46 2711.6,2021.88 2711.6,2027.82 C2711.6,2034.81 2712.05,2039.51 2712.95,2041.92 C2713.85,2044.33 2716.18,2045.54 2719.95,2045.54 C2723.73,2045.54 2726.17,2044.08 2727.28,2041.18 C2728.4,2038.27 2728.95,2033.83 2728.95,2027.86 C2728.95,2021.9 2728.4,2017.46 2727.28,2014.55"/>
<polyline class="FretDiagram" stroke="#fc0107" stroke-width="4.76" stroke-linejoin="bevel" points="529.931,227.452 743.039,227.452"/>
<polyline class="FretDiagram" stroke="#fc0107" stroke-width="4.76" stroke-linejoin="bevel" points="532.312,215.547 532.312,441.751"/>
<polyline class="FretDiagram" stroke="#fc0107" stroke-width="4.76" stroke-linejoin="bevel" points="573.981,215.547 573.981,441.751"/>
<polyline class="FretDiagram" stroke="#fc0107" stroke-width="4.76" stroke-linejoin="bevel" points="615.65,215.547 615.65,441.751"/>
<polyline class="FretDiagram" stroke="#fc0107" stroke-width="4.76" stroke-linejoin="bevel" points="657.32,215.547 657.32,441.751"/>
<polyline class="FretDiagram" stroke="#fc0107" stroke-width="4.76" stroke-linejoin="bevel" points="698.989,215.547 698.989,441.751"/>
<polyline class="FretDiagram" stroke="#fc0107" stroke-width="4.76" stroke-linejoin="bevel" points="740.658,215.547 740.658,441.751"/>
<polyline class="FretDiagram" stroke="#fc0107" stroke-width="4.76" stroke-linejoin="bevel" points="532.312,275.074 740.658,275.074"/>
<polyline class="FretDiagram" stroke="#fc0107" stroke-width="4.76" stroke-linejoin="bevel" points="532.312,322.696 740.658,322.696"/>
<polyline class="FretDiagram" stroke="#fc0107" stroke-width="4.76" stroke-linejoin="bevel" points="532.312,370.318 740.658,370.318"/>
<polyline class="FretDiagram" stroke="#fc0107" stroke-width="4.76" stroke-linejoin="bevel" points="532.312,417.94 740.658,417.94"/>
<path class="FretDiagram" fill="#fc0107" fill-rule="evenodd" d="M630.235,251.263 C630.235,259.318 623.705,265.847 615.65,265.847 C607.596,265.847 601.066,259.318 601.066,251.263 C601.066,243.208 607.596,236.679 615.65,236.679 C623.705,236.679 630.235,243.208 630.235,251.263"/>
<path class="FretDiagram" fill="#fc0107" fill-rule="evenodd" d="M671.904,298.885 C671.904,306.94 665.374,313.469 657.32,313.469 C649.265,313.469 642.735,306.94 642.735,298.885 C642.735,290.83 649.265,284.301 657.32,284.301 C665.374,284.301 671.904,290.83 671.904,298.885"/>
<path class="FretDiagram" fill="#fc0107" fill-rule="evenodd" d="M713.573,251.263 C713.573,259.318 707.044,265.847 698.989,265.847 C690.934,265.847 684.405,259.318 684.405,251.263 C684.405,243.208 690.934,236.679 698.989,236.679 C707.044,236.679 713.573,243.208 713.573,251.263"/>
<path class="FretDiagram" fill="#fc0107" fill-rule="evenodd" d="M755.242,298.885 C755.242,306.94 748.713,313.469 740.658,313.469 C732.604,313.469 726.074,306.94 726.074,298.885 C726.074,290.83 732.604,284.301 740.658,284.301 C748.713,284.301 755.242,290.83 755.242,298.885"/>
<polyline class="FretDiagram" fill="none" stroke="#fc0107" stroke-width="6.86" stroke-linecap="round" stroke-linejoin="bevel" points="515.644,163.162 548.979,196.498"/>
<polyline class="FretDiagram" fill="none" stroke="#fc0107" stroke-width="6.86" stroke-linecap="round" stroke-linejoin="bevel" points="515.644,196.498 548.979,163.162"/>
<polyline class="FretDiagram" fill="none" stroke="#fc0107" stroke-width="6.86" stroke-linecap="round" stroke-linejoin="bevel" points="557.313,163.162 590.649,196.498"/>
<polyline class="FretDiagram" fill="none" stroke="#fc0107" stroke-width="6.86" stroke-linecap="round" stroke-linejoin="bevel" points="557.313,196.498 590.649,163.162"/>
<path class="FretDiagram" fill="#fc0107" d="M467.593,240.53 C468.036,224.95 475.446,217.16 489.823,217.16 C496.22,217.16 501.413,218.996 505.403,222.67 C509.393,226.343 511.388,231.093 511.388,236.92 C511.388,245.28 506.638,252.056 497.138,257.25 L487.638,262.38 C483.521,264.596 480.576,266.75 478.803,268.84 C477.03,270.93 475.921,273.4 475.478,276.25 L510.913,276.25 L510.913,284.515 L466.073,284.515 C466.453,277.105 467.941,271.389 470.538,267.367 C473.135,263.345 477.948,259.34 484.978,255.35 L493.718,250.41 C499.798,246.926 502.838,242.493 502.838,237.11 C502.838,233.5 501.571,230.491 499.038,228.085 C496.505,225.678 493.338,224.475 489.538,224.475 C481.115,224.475 476.586,229.826 475.953,240.53 L467.593,240.53 "/>
<polyline class="FretDiagram" fill="#fc0107" stroke="#fc0107" stroke-width="4.76" stroke-linejoin="bevel" points="2619.12,227.452 2832.23,227.452"/>
<polyline class="FretDiagram" fill="#fc0107" stroke="#fc0107" stroke-width="4.76" stroke-linejoin="bevel" points="2621.5,215.547 2621.5,441.751"/>
<polyline class="FretDiagram" fill="#fc0107" stroke="#fc0107" stroke-width="4.76" stroke-linejoin="bevel" points="2663.17,215.547 2663.17,441.751"/>
<polyline class="FretDiagram" fill="#fc0107" stroke="#fc0107" stroke-width="4.76" stroke-linejoin="bevel" points="2704.84,215.547 2704.84,441.751"/>
<polyline class="FretDiagram" fill="#fc0107" stroke="#fc0107" stroke-width="4.76" stroke-linejoin="bevel" points="2746.51,215.547 2746.51,441.751"/>
<polyline class="FretDiagram" fill="#fc0107" stroke="#fc0107" stroke-width="4.76" stroke-linejoin="bevel" points="2788.18,215.547 2788.18,441.751"/>
<polyline class="FretDiagram" fill="#fc0107" stroke="#fc0107" stroke-width="4.76" stroke-linejoin="bevel" points="2829.85,215.547 2829.85,441.751"/>
<polyline class="FretDiagram" fill="#fc0107" stroke="#fc0107" stroke-width="4.76" stroke-linejoin="bevel" points="2621.5,275.074 2829.85,275.074"/>
<polyline class="FretDiagram" fill="#fc0107" stroke="#fc0107" stroke-width="4.76" stroke-linejoin="bevel" points="2621.5,322.696 2829.85,322.696"/>
<polyline class="FretDiagram" fill="#fc0107" stroke="#fc0107" stroke-width="4.76" stroke-linejoin="bevel" points="2621.5,370.318 2829.85,370.318"/>
<polyline class="FretDiagram" fill="#fc0107" stroke="#fc0107" stroke-width="4.76" stroke-linejoin="bevel" points="2621.5,417.94 2829.85,417.94"/>
<path class="FretDiagram" fill="#fc0107" fill-rule="evenodd" d="M2761.09,298.885 C2761.09,306.94 2754.56,313.469 2746.51,313.469 C2738.45,313.469 2731.92,306.94 2731.92,298.885 C2731.92,290.83 2738.45,284.301 2746.51,284.301 C2754.56,284.301 2761.09,290.83 2761.09,298.885"/>
<polyline class="FretDiagram" fill="none" stroke="#fc0107" stroke-width="6.86" stroke-linecap="round" stroke-linejoin="bevel" points="2604.83,163.162 2638.17,196.498"/>
<polyline class="FretDiagram" fill="none" stroke="#fc0107" stroke-width="6.86" stroke-linecap="round" stroke-linejoin="bevel" points="2604.83,196.498 2638.17,163.162"/>
<polyline class="FretDiagram" fill="none" stroke="#fc0107" stroke-width="6.86" stroke-linecap="round" stroke-linejoin="bevel" points="2646.5,163.162 2679.84,196.498"/>
<polyline class="FretDiagram" fill="none" stroke="#fc0107" stroke-width="6.86" stroke-linecap="round" stroke-linejoin="bevel" points="2646.5,196.498 2679.84,163.162"/>
<path class="FretDiagram" fill="none" stroke="#fc0107" stroke-width="6.86" stroke-linecap="round" stroke-linejoin="bevel" fill-rule="evenodd" d="M2721.51,179.83 C2721.51,189.035 2714.04,196.498 2704.84,196.498 C2695.63,196.498 2688.17,189.035 2688.17,179.83 C2688.17,170.625 2695.63,163.162 2704.84,163.162 C2714.04,163.162 2721.51,170.625 2721.51,179.83"/>
<path class="FretDiagram" fill="none" stroke="#fc0107" stroke-width="6.86" stroke-linecap="round" stroke-linejoin="bevel" fill-rule="evenodd" d="M2804.84,179.83 C2804.84,189.035 2797.38,196.498 2788.18,196.498 C2778.97,196.498 2771.51,189.035 2771.51,179.83 C2771.51,170.625 2778.97,163.162 2788.18,163.162 C2797.38,163.162 2804.84,170.625 2804.84,179.83"/>
<path class="FretDiagram" fill="none" stroke="#fc0107" stroke-width="6.86" stroke-linecap="round" stroke-linejoin="bevel" fill-rule="evenodd" d="M2846.51,179.83 C2846.51,189.035 2839.05,196.498 2829.85,196.498 C2820.64,196.498 2813.18,189.035 2813.18,179.83 C2813.18,170.625 2820.64,163.162 2829.85,163.162 C2839.05,163.162 2846.51,170.625 2846.51,179.83"/>
<polyline class="FretDiagram" fill="none" stroke="#fc0107" stroke-width="29.17" stroke-linecap="round" stroke-linejoin="bevel" points="2704.84,251.263 2829.85,251.263"/>
<path class="FretDiagram" fill="#fc0107" d="M2597.25,217.16 L2597.25,225.425 L2569.23,225.425 L2566.57,244.235 C2570.3,241.511 2574.45,240.15 2579.01,240.15 C2585.47,240.15 2590.71,242.224 2594.73,246.372 C2598.75,250.52 2600.77,255.92 2600.77,262.57 C2600.77,269.663 2598.61,275.458 2594.31,279.955 C2590,284.451 2584.46,286.7 2577.68,286.7 C2575.08,286.7 2572.69,286.415 2570.51,285.845 C2568.32,285.275 2566.52,284.594 2565.09,283.802 C2563.67,283.01 2562.37,281.965 2561.2,280.667 C2560.03,279.369 2559.14,278.229 2558.54,277.247 C2557.94,276.265 2557.37,275.03 2556.83,273.542 C2556.29,272.054 2555.96,271.025 2555.83,270.455 C2555.7,269.885 2555.55,269.061 2555.36,267.985 L2563.72,267.985 C2565.68,275.521 2570.27,279.29 2577.49,279.29 C2582.05,279.29 2585.64,277.896 2588.27,275.11 C2590.9,272.323 2592.22,268.523 2592.22,263.71 C2592.22,258.706 2590.89,254.764 2588.23,251.882 C2585.57,249 2581.99,247.56 2577.49,247.56 C2574.89,247.56 2572.68,248.019 2570.84,248.937 C2569,249.855 2567.1,251.486 2565.14,253.83 L2557.45,253.83 L2562.48,217.16 L2597.25,217.16 "/>
<path class="Bracket" transform="matrix(8.6315,0,0,10.3419,76.1283,2426)" d="M0.92002,-50 C2.69004,-51.88 6.2,-55.8 6.2,-63 C6.2,-72.1 2.25996,-81.32 2.25996,-86.97 C2.25996,-93.06 5.84004,-98.84 5.95,-99 C6.05996,-99.16 6.05,-99.39 5.94004,-99.46 C5.82998,-99.53 5.62002,-99.47 5.49004,-99.32 C5.35996,-99.17 0,-93.75 0,-85.6 C0,-76.75 3.5,-70.58 3.5,-59.07 C3.5,-56.89 2.55996,-53.36 0.1,-50.33 C-0.0799805,-50.17 -0.1,-49.89 0.0599609,-49.7 L0.0700195,-49.69 L0.1,-49.66 C2.55996,-46.63 3.5,-43.1 3.5,-40.92 C3.5,-29.4 0,-23.24 0,-14.39 C0,-6.25 5.35996,-0.8 5.49004,-0.659961 C5.62002,-0.52002 5.8,-0.42998 5.94004,-0.52002 C6.07998,-0.609961 6.07998,-0.77998 5.95,-0.97998 C5.82002,-1.17998 2.25996,-6.92002 2.25996,-13.01 C2.25996,-18.66 6.2,-27.9 6.2,-37 C6.2,-44.3 2.69004,-48.12 0.92002,-50"/>
</svg>
