<?xml version="1.0" encoding="UTF-8" standalone="no"?>
<svg width="4209.44px" height="2976.38px" viewBox="0 0 4209.44 2976.38"
 xmlns="http://www.w3.org/2000/svg" xmlns:xlink="http://www.w3.org/1999/xlink" version="1.2" baseProfile="tiny">
<title>DoMajeur (24)</title>
<desc>Generated by MuseScore 3.6.2</desc>
<polyline class="StaffLines" fill="none" stroke="#000000" stroke-width="6.55" stroke-linejoin="bevel" points="153.819,558.425 4138.58,558.425"/>
<polyline class="StaffLines" fill="none" stroke="#000000" stroke-width="6.55" stroke-linejoin="bevel" points="153.819,647.717 4138.58,647.717"/>
<polyline class="StaffLines" fill="none" stroke="#000000" stroke-width="6.55" stroke-linejoin="bevel" points="153.819,737.008 4138.58,737.008"/>
<polyline class="StaffLines" fill="none" stroke="#000000" stroke-width="6.55" stroke-linejoin="bevel" points="153.819,826.299 4138.58,826.299"/>
<polyline class="StaffLines" fill="none" stroke="#000000" stroke-width="6.55" stroke-linejoin="bevel" points="153.819,915.591 4138.58,915.591"/>
<polyline class="StaffLines" fill="none" stroke="#000000" stroke-width="6.55" stroke-linejoin="bevel" points="153.819,1004.88 4138.58,1004.88"/>
<polyline class="StaffLines" fill="none" stroke="#000000" stroke-width="6.55" stroke-linejoin="bevel" points="153.819,1391.81 4138.58,1391.81"/>
<polyline class="StaffLines" fill="none" stroke="#000000" stroke-width="6.55" stroke-linejoin="bevel" points="153.819,1451.34 4138.58,1451.34"/>
<polyline class="StaffLines" fill="none" stroke="#000000" stroke-width="6.55" stroke-linejoin="bevel" points="153.819,1510.87 4138.58,1510.87"/>
<polyline class="StaffLines" fill="none" stroke="#000000" stroke-width="6.55" stroke-linejoin="bevel" points="153.819,1570.39 4138.58,1570.39"/>
<polyline class="StaffLines" fill="none" stroke="#000000" stroke-width="6.55" stroke-linejoin="bevel" points="153.819,1629.92 4138.58,1629.92"/>
<polyline class="StaffLines" fill="none" stroke="#000000" stroke-width="6.55" stroke-linejoin="bevel" points="153.819,2016.85 4138.58,2016.85"/>
<polyline class="StaffLines" fill="none" stroke="#000000" stroke-width="6.55" stroke-linejoin="bevel" points="153.819,2076.38 4138.58,2076.38"/>
<polyline class="StaffLines" fill="none" stroke="#000000" stroke-width="6.55" stroke-linejoin="bevel" points="153.819,2135.91 4138.58,2135.91"/>
<polyline class="StaffLines" fill="none" stroke="#000000" stroke-width="6.55" stroke-linejoin="bevel" points="153.819,2195.43 4138.58,2195.43"/>
<polyline class="StaffLines" fill="none" stroke="#000000" stroke-width="6.55" stroke-linejoin="bevel" points="153.819,2254.96 4138.58,2254.96"/>
<polyline class="BarLine" fill="none" stroke="#000000" stroke-width="10.71" stroke-linejoin="bevel" points="159.176,2013.58 159.176,2258.23"/>
<polyline class="BarLine" fill="none" stroke="#000000" stroke-width="10.71" stroke-linejoin="bevel" points="857.67,2013.58 857.67,2258.23"/>
<polyline class="BarLine" fill="none" stroke="#000000" stroke-width="10.71" stroke-linejoin="bevel" points="1304.48,2013.58 1304.48,2258.23"/>
<polyline class="BarLine" fill="none" stroke="#000000" stroke-width="10.71" stroke-linejoin="bevel" points="1864.76,2013.58 1864.76,2258.23"/>
<polyline class="BarLine" fill="none" stroke="#000000" stroke-width="10.71" stroke-linejoin="bevel" points="2311.58,2013.58 2311.58,2258.23"/>
<polyline class="BarLine" fill="none" stroke="#000000" stroke-width="10.71" stroke-linejoin="bevel" points="2758.39,2013.58 2758.39,2258.23"/>
<polyline class="BarLine" fill="none" stroke="#000000" stroke-width="10.71" stroke-linejoin="bevel" points="3203.09,2013.58 3203.09,2258.23"/>
<polyline class="BarLine" fill="none" stroke="#000000" stroke-width="10.71" stroke-linejoin="bevel" points="3647.79,2013.58 3647.79,2258.23"/>
<polyline class="BarLine" fill="none" stroke="#000000" stroke-width="10.71" stroke-linejoin="bevel" points="4080.54,2013.58 4080.54,2258.23"/>
<polyline class="BarLine" fill="none" stroke="#000000" stroke-width="32.74" stroke-linejoin="bevel" points="4122.21,2013.58 4122.21,2258.23"/>
<polyline class="BarLine" fill="none" stroke="#000000" stroke-width="10.71" stroke-linejoin="bevel" points="159.176,1388.54 159.176,2016.85"/>
<polyline class="BarLine" fill="none" stroke="#000000" stroke-width="10.71" stroke-linejoin="bevel" points="857.67,1388.54 857.67,1633.2"/>
<polyline class="BarLine" fill="none" stroke="#000000" stroke-width="10.71" stroke-linejoin="bevel" points="1304.48,1388.54 1304.48,1633.2"/>
<polyline class="BarLine" fill="none" stroke="#000000" stroke-width="10.71" stroke-linejoin="bevel" points="1864.76,1388.54 1864.76,1633.2"/>
<polyline class="BarLine" fill="none" stroke="#000000" stroke-width="10.71" stroke-linejoin="bevel" points="2311.58,1388.54 2311.58,1633.2"/>
<polyline class="BarLine" fill="none" stroke="#000000" stroke-width="10.71" stroke-linejoin="bevel" points="2758.39,1388.54 2758.39,1633.2"/>
<polyline class="BarLine" fill="none" stroke="#000000" stroke-width="10.71" stroke-linejoin="bevel" points="3203.09,1388.54 3203.09,1633.2"/>
<polyline class="BarLine" fill="none" stroke="#000000" stroke-width="10.71" stroke-linejoin="bevel" points="3647.79,1388.54 3647.79,1633.2"/>
<polyline class="BarLine" fill="none" stroke="#000000" stroke-width="10.71" stroke-linejoin="bevel" points="4080.54,1388.54 4080.54,1633.2"/>
<polyline class="BarLine" fill="none" stroke="#000000" stroke-width="32.74" stroke-linejoin="bevel" points="4122.21,1388.54 4122.21,1633.2"/>
<polyline class="BarLine" fill="none" stroke="#000000" stroke-width="10.71" stroke-linejoin="bevel" points="159.176,555.151 159.176,1391.81"/>
<polyline class="BarLine" fill="none" stroke="#000000" stroke-width="10.71" stroke-linejoin="bevel" points="857.67,555.151 857.67,1008.16"/>
<polyline class="BarLine" fill="none" stroke="#000000" stroke-width="10.71" stroke-linejoin="bevel" points="1304.48,555.151 1304.48,1008.16"/>
<polyline class="BarLine" fill="none" stroke="#000000" stroke-width="10.71" stroke-linejoin="bevel" points="1864.76,555.151 1864.76,1008.16"/>
<polyline class="BarLine" fill="none" stroke="#000000" stroke-width="10.71" stroke-linejoin="bevel" points="2311.58,555.151 2311.58,1008.16"/>
<polyline class="BarLine" fill="none" stroke="#000000" stroke-width="10.71" stroke-linejoin="bevel" points="2758.39,555.151 2758.39,1008.16"/>
<polyline class="BarLine" fill="none" stroke="#000000" stroke-width="10.71" stroke-linejoin="bevel" points="3203.09,555.151 3203.09,1008.16"/>
<polyline class="BarLine" fill="none" stroke="#000000" stroke-width="10.71" stroke-linejoin="bevel" points="3647.79,555.151 3647.79,1008.16"/>
<polyline class="BarLine" fill="none" stroke="#000000" stroke-width="10.71" stroke-linejoin="bevel" points="4080.54,555.151 4080.54,1008.16"/>
<polyline class="BarLine" fill="none" stroke="#000000" stroke-width="32.74" stroke-linejoin="bevel" points="4122.21,555.151 4122.21,1008.16"/>
<path class="Accidental" transform="matrix(2.3811,0,0,2.3811,1355.91,1600.16)" d="M23.3,-10.6 C23.9,-10.7 24.4,-11.4 24.4,-12 L24.4,-17.9 C24.4,-18.7 23.8,-19.3 23,-19.3 L22.8,-19.3 L19.5,-18.6 L19.5,-33.5 L16.7,-33.5 L16.7,-18 L7.8,-16.2 L7.8,-30.3 L5,-30.3 L5,-15.6 L1.1,-14.8 C0.5,-14.7 0,-14 0,-13.4 L0,-13.2 L0,-7.4 L0,-7.6 C0,-6.8 0.6,-6.2 1.4,-6.2 L1.7,-6.2 L5,-6.9 L5,9.6 L1.1,10.4 C0.5,10.5 0,11.2 0,11.8 L0,17.6 C0,18.4 0.6,19 1.4,19 L1.7,19 L5,18.3 L5,33.2 L7.8,33.2 L7.8,17.7 L16.7,15.9 L16.7,30 L19.5,30 L19.5,15.3 L23.3,14.6 C23.9,14.5 24.4,13.8 24.4,13.2 L24.4,7.3 C24.4,6.5 23.8,5.9 23,5.9 L22.8,5.9 L19.5,6.6 L19.5,-9.9 L23.3,-10.6 M7.8,9.1 L7.8,-7.5 L16.7,-9.3 L16.7,7.2 L7.8,9.1 "/>
<polyline class="LedgerLine" fill="none" stroke="#000000" stroke-width="9.52" stroke-linejoin="bevel" points="492.549,1957.32 623.026,1957.32"/>
<path class="Note" transform="matrix(2.3811,0,0,2.3811,513.384,1957.32)" d="M18.7,-13.6 C4.9,-13.6 0,-6.6 0,-0.1 C0,6.4 4.9,13.4 18.7,13.4 C32.5,13.4 37.3,6.4 37.3,-0.1 C37.3,-6.6 32.5,-13.6 18.7,-13.6 M10.4,-4.5 C10.3,-4.9 10.3,-5.3 10.3,-5.7 C10.3,-6.5 10.5,-7.3 10.9,-8 C11.6,-9 12.8,-9.7 14.3,-10 C15.6,-10.3 16.3,-10.5 18.9,-10.5 L19,-10.5 C23,-10.5 24.3,-6.8 25.4,-3 L25.7,-2 C26.5,0.6 26.9,2.8 26.9,4.5 C26.9,5.7 26.7,6.8 26.3,7.6 C25.7,8.7 24.7,9.4 23,9.8 C22.1,10 20.6,10.1 20.6,10.1 C20.1,10.1 19.7,10.2 19.3,10.2 C16.1,10.2 14.1,9 12.7,4.7 C11.5,1 11.3,-0.1 10.4,-4.5"/>
<path class="Note" transform="matrix(2.3811,0,0,2.3811,946.134,1987.09)" d="M18.7,-13.6 C4.9,-13.6 0,-6.6 0,-0.1 C0,6.4 4.9,13.4 18.7,13.4 C32.5,13.4 37.3,6.4 37.3,-0.1 C37.3,-6.6 32.5,-13.6 18.7,-13.6 M10.4,-4.5 C10.3,-4.9 10.3,-5.3 10.3,-5.7 C10.3,-6.5 10.5,-7.3 10.9,-8 C11.6,-9 12.8,-9.7 14.3,-10 C15.6,-10.3 16.3,-10.5 18.9,-10.5 L19,-10.5 C23,-10.5 24.3,-6.8 25.4,-3 L25.7,-2 C26.5,0.6 26.9,2.8 26.9,4.5 C26.9,5.7 26.7,6.8 26.3,7.6 C25.7,8.7 24.7,9.4 23,9.8 C22.1,10 20.6,10.1 20.6,10.1 C20.1,10.1 19.7,10.2 19.3,10.2 C16.1,10.2 14.1,9 12.7,4.7 C11.5,1 11.3,-0.1 10.4,-4.5"/>
<path class="Note" transform="matrix(2.3811,0,0,2.3811,1428.89,2016.85)" d="M18.7,-13.6 C4.9,-13.6 0,-6.6 0,-0.1 C0,6.4 4.9,13.4 18.7,13.4 C32.5,13.4 37.3,6.4 37.3,-0.1 C37.3,-6.6 32.5,-13.6 18.7,-13.6 M10.4,-4.5 C10.3,-4.9 10.3,-5.3 10.3,-5.7 C10.3,-6.5 10.5,-7.3 10.9,-8 C11.6,-9 12.8,-9.7 14.3,-10 C15.6,-10.3 16.3,-10.5 18.9,-10.5 L19,-10.5 C23,-10.5 24.3,-6.8 25.4,-3 L25.7,-2 C26.5,0.6 26.9,2.8 26.9,4.5 C26.9,5.7 26.7,6.8 26.3,7.6 C25.7,8.7 24.7,9.4 23,9.8 C22.1,10 20.6,10.1 20.6,10.1 C20.1,10.1 19.7,10.2 19.3,10.2 C16.1,10.2 14.1,9 12.7,4.7 C11.5,1 11.3,-0.1 10.4,-4.5"/>
<path class="Note" transform="matrix(2.3811,0,0,2.3811,1953.23,2046.61)" d="M18.7,-13.6 C4.9,-13.6 0,-6.6 0,-0.1 C0,6.4 4.9,13.4 18.7,13.4 C32.5,13.4 37.3,6.4 37.3,-0.1 C37.3,-6.6 32.5,-13.6 18.7,-13.6 M10.4,-4.5 C10.3,-4.9 10.3,-5.3 10.3,-5.7 C10.3,-6.5 10.5,-7.3 10.9,-8 C11.6,-9 12.8,-9.7 14.3,-10 C15.6,-10.3 16.3,-10.5 18.9,-10.5 L19,-10.5 C23,-10.5 24.3,-6.8 25.4,-3 L25.7,-2 C26.5,0.6 26.9,2.8 26.9,4.5 C26.9,5.7 26.7,6.8 26.3,7.6 C25.7,8.7 24.7,9.4 23,9.8 C22.1,10 20.6,10.1 20.6,10.1 C20.1,10.1 19.7,10.2 19.3,10.2 C16.1,10.2 14.1,9 12.7,4.7 C11.5,1 11.3,-0.1 10.4,-4.5"/>
<path class="Note" transform="matrix(2.3811,0,0,2.3811,2400.04,2076.38)" d="M18.7,-13.6 C4.9,-13.6 0,-6.6 0,-0.1 C0,6.4 4.9,13.4 18.7,13.4 C32.5,13.4 37.3,6.4 37.3,-0.1 C37.3,-6.6 32.5,-13.6 18.7,-13.6 M10.4,-4.5 C10.3,-4.9 10.3,-5.3 10.3,-5.7 C10.3,-6.5 10.5,-7.3 10.9,-8 C11.6,-9 12.8,-9.7 14.3,-10 C15.6,-10.3 16.3,-10.5 18.9,-10.5 L19,-10.5 C23,-10.5 24.3,-6.8 25.4,-3 L25.7,-2 C26.5,0.6 26.9,2.8 26.9,4.5 C26.9,5.7 26.7,6.8 26.3,7.6 C25.7,8.7 24.7,9.4 23,9.8 C22.1,10 20.6,10.1 20.6,10.1 C20.1,10.1 19.7,10.2 19.3,10.2 C16.1,10.2 14.1,9 12.7,4.7 C11.5,1 11.3,-0.1 10.4,-4.5"/>
<path class="Note" transform="matrix(2.3811,0,0,2.3811,2846.85,2106.14)" d="M18.7,-13.6 C4.9,-13.6 0,-6.6 0,-0.1 C0,6.4 4.9,13.4 18.7,13.4 C32.5,13.4 37.3,6.4 37.3,-0.1 C37.3,-6.6 32.5,-13.6 18.7,-13.6 M10.4,-4.5 C10.3,-4.9 10.3,-5.3 10.3,-5.7 C10.3,-6.5 10.5,-7.3 10.9,-8 C11.6,-9 12.8,-9.7 14.3,-10 C15.6,-10.3 16.3,-10.5 18.9,-10.5 L19,-10.5 C23,-10.5 24.3,-6.8 25.4,-3 L25.7,-2 C26.5,0.6 26.9,2.8 26.9,4.5 C26.9,5.7 26.7,6.8 26.3,7.6 C25.7,8.7 24.7,9.4 23,9.8 C22.1,10 20.6,10.1 20.6,10.1 C20.1,10.1 19.7,10.2 19.3,10.2 C16.1,10.2 14.1,9 12.7,4.7 C11.5,1 11.3,-0.1 10.4,-4.5"/>
<path class="Note" transform="matrix(2.3811,0,0,2.3811,3291.55,2135.91)" d="M18.7,-13.6 C4.9,-13.6 0,-6.6 0,-0.1 C0,6.4 4.9,13.4 18.7,13.4 C32.5,13.4 37.3,6.4 37.3,-0.1 C37.3,-6.6 32.5,-13.6 18.7,-13.6 M10.4,-4.5 C10.3,-4.9 10.3,-5.3 10.3,-5.7 C10.3,-6.5 10.5,-7.3 10.9,-8 C11.6,-9 12.8,-9.7 14.3,-10 C15.6,-10.3 16.3,-10.5 18.9,-10.5 L19,-10.5 C23,-10.5 24.3,-6.8 25.4,-3 L25.7,-2 C26.5,0.6 26.9,2.8 26.9,4.5 C26.9,5.7 26.7,6.8 26.3,7.6 C25.7,8.7 24.7,9.4 23,9.8 C22.1,10 20.6,10.1 20.6,10.1 C20.1,10.1 19.7,10.2 19.3,10.2 C16.1,10.2 14.1,9 12.7,4.7 C11.5,1 11.3,-0.1 10.4,-4.5"/>
<path class="Note" transform="matrix(2.3811,0,0,2.3811,3736.25,2165.67)" d="M18.7,-13.6 C4.9,-13.6 0,-6.6 0,-0.1 C0,6.4 4.9,13.4 18.7,13.4 C32.5,13.4 37.3,6.4 37.3,-0.1 C37.3,-6.6 32.5,-13.6 18.7,-13.6 M10.4,-4.5 C10.3,-4.9 10.3,-5.3 10.3,-5.7 C10.3,-6.5 10.5,-7.3 10.9,-8 C11.6,-9 12.8,-9.7 14.3,-10 C15.6,-10.3 16.3,-10.5 18.9,-10.5 L19,-10.5 C23,-10.5 24.3,-6.8 25.4,-3 L25.7,-2 C26.5,0.6 26.9,2.8 26.9,4.5 C26.9,5.7 26.7,6.8 26.3,7.6 C25.7,8.7 24.7,9.4 23,9.8 C22.1,10 20.6,10.1 20.6,10.1 C20.1,10.1 19.7,10.2 19.3,10.2 C16.1,10.2 14.1,9 12.7,4.7 C11.5,1 11.3,-0.1 10.4,-4.5"/>
<path class="Note" transform="matrix(2.3811,0,0,2.3811,513.384,1570.39)" d="M18.7,-13.6 C4.9,-13.6 0,-6.6 0,-0.1 C0,6.4 4.9,13.4 18.7,13.4 C32.5,13.4 37.3,6.4 37.3,-0.1 C37.3,-6.6 32.5,-13.6 18.7,-13.6 M10.4,-4.5 C10.3,-4.9 10.3,-5.3 10.3,-5.7 C10.3,-6.5 10.5,-7.3 10.9,-8 C11.6,-9 12.8,-9.7 14.3,-10 C15.6,-10.3 16.3,-10.5 18.9,-10.5 L19,-10.5 C23,-10.5 24.3,-6.8 25.4,-3 L25.7,-2 C26.5,0.6 26.9,2.8 26.9,4.5 C26.9,5.7 26.7,6.8 26.3,7.6 C25.7,8.7 24.7,9.4 23,9.8 C22.1,10 20.6,10.1 20.6,10.1 C20.1,10.1 19.7,10.2 19.3,10.2 C16.1,10.2 14.1,9 12.7,4.7 C11.5,1 11.3,-0.1 10.4,-4.5"/>
<path class="Note" transform="matrix(2.3811,0,0,2.3811,513.384,1481.1)" d="M18.7,-13.6 C4.9,-13.6 0,-6.6 0,-0.1 C0,6.4 4.9,13.4 18.7,13.4 C32.5,13.4 37.3,6.4 37.3,-0.1 C37.3,-6.6 32.5,-13.6 18.7,-13.6 M10.4,-4.5 C10.3,-4.9 10.3,-5.3 10.3,-5.7 C10.3,-6.5 10.5,-7.3 10.9,-8 C11.6,-9 12.8,-9.7 14.3,-10 C15.6,-10.3 16.3,-10.5 18.9,-10.5 L19,-10.5 C23,-10.5 24.3,-6.8 25.4,-3 L25.7,-2 C26.5,0.6 26.9,2.8 26.9,4.5 C26.9,5.7 26.7,6.8 26.3,7.6 C25.7,8.7 24.7,9.4 23,9.8 C22.1,10 20.6,10.1 20.6,10.1 C20.1,10.1 19.7,10.2 19.3,10.2 C16.1,10.2 14.1,9 12.7,4.7 C11.5,1 11.3,-0.1 10.4,-4.5"/>
<path class="Note" transform="matrix(2.3811,0,0,2.3811,513.384,1421.57)" d="M18.7,-13.6 C4.9,-13.6 0,-6.6 0,-0.1 C0,6.4 4.9,13.4 18.7,13.4 C32.5,13.4 37.3,6.4 37.3,-0.1 C37.3,-6.6 32.5,-13.6 18.7,-13.6 M10.4,-4.5 C10.3,-4.9 10.3,-5.3 10.3,-5.7 C10.3,-6.5 10.5,-7.3 10.9,-8 C11.6,-9 12.8,-9.7 14.3,-10 C15.6,-10.3 16.3,-10.5 18.9,-10.5 L19,-10.5 C23,-10.5 24.3,-6.8 25.4,-3 L25.7,-2 C26.5,0.6 26.9,2.8 26.9,4.5 C26.9,5.7 26.7,6.8 26.3,7.6 C25.7,8.7 24.7,9.4 23,9.8 C22.1,10 20.6,10.1 20.6,10.1 C20.1,10.1 19.7,10.2 19.3,10.2 C16.1,10.2 14.1,9 12.7,4.7 C11.5,1 11.3,-0.1 10.4,-4.5"/>
<path class="Note" transform="matrix(2.3811,0,0,2.3811,946.134,1570.39)" d="M18.7,-13.6 C4.9,-13.6 0,-6.6 0,-0.1 C0,6.4 4.9,13.4 18.7,13.4 C32.5,13.4 37.3,6.4 37.3,-0.1 C37.3,-6.6 32.5,-13.6 18.7,-13.6 M10.4,-4.5 C10.3,-4.9 10.3,-5.3 10.3,-5.7 C10.3,-6.5 10.5,-7.3 10.9,-8 C11.6,-9 12.8,-9.7 14.3,-10 C15.6,-10.3 16.3,-10.5 18.9,-10.5 L19,-10.5 C23,-10.5 24.3,-6.8 25.4,-3 L25.7,-2 C26.5,0.6 26.9,2.8 26.9,4.5 C26.9,5.7 26.7,6.8 26.3,7.6 C25.7,8.7 24.7,9.4 23,9.8 C22.1,10 20.6,10.1 20.6,10.1 C20.1,10.1 19.7,10.2 19.3,10.2 C16.1,10.2 14.1,9 12.7,4.7 C11.5,1 11.3,-0.1 10.4,-4.5"/>
<path class="Note" transform="matrix(2.3811,0,0,2.3811,946.134,1451.34)" d="M18.7,-13.6 C4.9,-13.6 0,-6.6 0,-0.1 C0,6.4 4.9,13.4 18.7,13.4 C32.5,13.4 37.3,6.4 37.3,-0.1 C37.3,-6.6 32.5,-13.6 18.7,-13.6 M10.4,-4.5 C10.3,-4.9 10.3,-5.3 10.3,-5.7 C10.3,-6.5 10.5,-7.3 10.9,-8 C11.6,-9 12.8,-9.7 14.3,-10 C15.6,-10.3 16.3,-10.5 18.9,-10.5 L19,-10.5 C23,-10.5 24.3,-6.8 25.4,-3 L25.7,-2 C26.5,0.6 26.9,2.8 26.9,4.5 C26.9,5.7 26.7,6.8 26.3,7.6 C25.7,8.7 24.7,9.4 23,9.8 C22.1,10 20.6,10.1 20.6,10.1 C20.1,10.1 19.7,10.2 19.3,10.2 C16.1,10.2 14.1,9 12.7,4.7 C11.5,1 11.3,-0.1 10.4,-4.5"/>
<path class="Note" transform="matrix(2.3811,0,0,2.3811,1428.89,1600.16)" d="M18.7,-13.6 C4.9,-13.6 0,-6.6 0,-0.1 C0,6.4 4.9,13.4 18.7,13.4 C32.5,13.4 37.3,6.4 37.3,-0.1 C37.3,-6.6 32.5,-13.6 18.7,-13.6 M10.4,-4.5 C10.3,-4.9 10.3,-5.3 10.3,-5.7 C10.3,-6.5 10.5,-7.3 10.9,-8 C11.6,-9 12.8,-9.7 14.3,-10 C15.6,-10.3 16.3,-10.5 18.9,-10.5 L19,-10.5 C23,-10.5 24.3,-6.8 25.4,-3 L25.7,-2 C26.5,0.6 26.9,2.8 26.9,4.5 C26.9,5.7 26.7,6.8 26.3,7.6 C25.7,8.7 24.7,9.4 23,9.8 C22.1,10 20.6,10.1 20.6,10.1 C20.1,10.1 19.7,10.2 19.3,10.2 C16.1,10.2 14.1,9 12.7,4.7 C11.5,1 11.3,-0.1 10.4,-4.5"/>
<path class="Note" transform="matrix(2.3811,0,0,2.3811,1428.89,1481.1)" d="M18.7,-13.6 C4.9,-13.6 0,-6.6 0,-0.1 C0,6.4 4.9,13.4 18.7,13.4 C32.5,13.4 37.3,6.4 37.3,-0.1 C37.3,-6.6 32.5,-13.6 18.7,-13.6 M10.4,-4.5 C10.3,-4.9 10.3,-5.3 10.3,-5.7 C10.3,-6.5 10.5,-7.3 10.9,-8 C11.6,-9 12.8,-9.7 14.3,-10 C15.6,-10.3 16.3,-10.5 18.9,-10.5 L19,-10.5 C23,-10.5 24.3,-6.8 25.4,-3 L25.7,-2 C26.5,0.6 26.9,2.8 26.9,4.5 C26.9,5.7 26.7,6.8 26.3,7.6 C25.7,8.7 24.7,9.4 23,9.8 C22.1,10 20.6,10.1 20.6,10.1 C20.1,10.1 19.7,10.2 19.3,10.2 C16.1,10.2 14.1,9 12.7,4.7 C11.5,1 11.3,-0.1 10.4,-4.5"/>
<path class="Note" transform="matrix(2.3811,0,0,2.3811,1511.15,1451.34)" d="M18.7,-13.6 C4.9,-13.6 0,-6.6 0,-0.1 C0,6.4 4.9,13.4 18.7,13.4 C32.5,13.4 37.3,6.4 37.3,-0.1 C37.3,-6.6 32.5,-13.6 18.7,-13.6 M10.4,-4.5 C10.3,-4.9 10.3,-5.3 10.3,-5.7 C10.3,-6.5 10.5,-7.3 10.9,-8 C11.6,-9 12.8,-9.7 14.3,-10 C15.6,-10.3 16.3,-10.5 18.9,-10.5 L19,-10.5 C23,-10.5 24.3,-6.8 25.4,-3 L25.7,-2 C26.5,0.6 26.9,2.8 26.9,4.5 C26.9,5.7 26.7,6.8 26.3,7.6 C25.7,8.7 24.7,9.4 23,9.8 C22.1,10 20.6,10.1 20.6,10.1 C20.1,10.1 19.7,10.2 19.3,10.2 C16.1,10.2 14.1,9 12.7,4.7 C11.5,1 11.3,-0.1 10.4,-4.5"/>
<path class="Note" transform="matrix(2.3811,0,0,2.3811,1953.23,1570.39)" d="M18.7,-13.6 C4.9,-13.6 0,-6.6 0,-0.1 C0,6.4 4.9,13.4 18.7,13.4 C32.5,13.4 37.3,6.4 37.3,-0.1 C37.3,-6.6 32.5,-13.6 18.7,-13.6 M10.4,-4.5 C10.3,-4.9 10.3,-5.3 10.3,-5.7 C10.3,-6.5 10.5,-7.3 10.9,-8 C11.6,-9 12.8,-9.7 14.3,-10 C15.6,-10.3 16.3,-10.5 18.9,-10.5 L19,-10.5 C23,-10.5 24.3,-6.8 25.4,-3 L25.7,-2 C26.5,0.6 26.9,2.8 26.9,4.5 C26.9,5.7 26.7,6.8 26.3,7.6 C25.7,8.7 24.7,9.4 23,9.8 C22.1,10 20.6,10.1 20.6,10.1 C20.1,10.1 19.7,10.2 19.3,10.2 C16.1,10.2 14.1,9 12.7,4.7 C11.5,1 11.3,-0.1 10.4,-4.5"/>
<path class="Note" transform="matrix(2.3811,0,0,2.3811,1953.23,1510.87)" d="M18.7,-13.6 C4.9,-13.6 0,-6.6 0,-0.1 C0,6.4 4.9,13.4 18.7,13.4 C32.5,13.4 37.3,6.4 37.3,-0.1 C37.3,-6.6 32.5,-13.6 18.7,-13.6 M10.4,-4.5 C10.3,-4.9 10.3,-5.3 10.3,-5.7 C10.3,-6.5 10.5,-7.3 10.9,-8 C11.6,-9 12.8,-9.7 14.3,-10 C15.6,-10.3 16.3,-10.5 18.9,-10.5 L19,-10.5 C23,-10.5 24.3,-6.8 25.4,-3 L25.7,-2 C26.5,0.6 26.9,2.8 26.9,4.5 C26.9,5.7 26.7,6.8 26.3,7.6 C25.7,8.7 24.7,9.4 23,9.8 C22.1,10 20.6,10.1 20.6,10.1 C20.1,10.1 19.7,10.2 19.3,10.2 C16.1,10.2 14.1,9 12.7,4.7 C11.5,1 11.3,-0.1 10.4,-4.5"/>
<path class="Note" transform="matrix(2.3811,0,0,2.3811,1953.23,1451.34)" d="M18.7,-13.6 C4.9,-13.6 0,-6.6 0,-0.1 C0,6.4 4.9,13.4 18.7,13.4 C32.5,13.4 37.3,6.4 37.3,-0.1 C37.3,-6.6 32.5,-13.6 18.7,-13.6 M10.4,-4.5 C10.3,-4.9 10.3,-5.3 10.3,-5.7 C10.3,-6.5 10.5,-7.3 10.9,-8 C11.6,-9 12.8,-9.7 14.3,-10 C15.6,-10.3 16.3,-10.5 18.9,-10.5 L19,-10.5 C23,-10.5 24.3,-6.8 25.4,-3 L25.7,-2 C26.5,0.6 26.9,2.8 26.9,4.5 C26.9,5.7 26.7,6.8 26.3,7.6 C25.7,8.7 24.7,9.4 23,9.8 C22.1,10 20.6,10.1 20.6,10.1 C20.1,10.1 19.7,10.2 19.3,10.2 C16.1,10.2 14.1,9 12.7,4.7 C11.5,1 11.3,-0.1 10.4,-4.5"/>
<path class="Note" transform="matrix(2.3811,0,0,2.3811,2400.04,1570.39)" d="M18.7,-13.6 C4.9,-13.6 0,-6.6 0,-0.1 C0,6.4 4.9,13.4 18.7,13.4 C32.5,13.4 37.3,6.4 37.3,-0.1 C37.3,-6.6 32.5,-13.6 18.7,-13.6 M10.4,-4.5 C10.3,-4.9 10.3,-5.3 10.3,-5.7 C10.3,-6.5 10.5,-7.3 10.9,-8 C11.6,-9 12.8,-9.7 14.3,-10 C15.6,-10.3 16.3,-10.5 18.9,-10.5 L19,-10.5 C23,-10.5 24.3,-6.8 25.4,-3 L25.7,-2 C26.5,0.6 26.9,2.8 26.9,4.5 C26.9,5.7 26.7,6.8 26.3,7.6 C25.7,8.7 24.7,9.4 23,9.8 C22.1,10 20.6,10.1 20.6,10.1 C20.1,10.1 19.7,10.2 19.3,10.2 C16.1,10.2 14.1,9 12.7,4.7 C11.5,1 11.3,-0.1 10.4,-4.5"/>
<path class="Note" transform="matrix(2.3811,0,0,2.3811,2400.04,1510.87)" d="M18.7,-13.6 C4.9,-13.6 0,-6.6 0,-0.1 C0,6.4 4.9,13.4 18.7,13.4 C32.5,13.4 37.3,6.4 37.3,-0.1 C37.3,-6.6 32.5,-13.6 18.7,-13.6 M10.4,-4.5 C10.3,-4.9 10.3,-5.3 10.3,-5.7 C10.3,-6.5 10.5,-7.3 10.9,-8 C11.6,-9 12.8,-9.7 14.3,-10 C15.6,-10.3 16.3,-10.5 18.9,-10.5 L19,-10.5 C23,-10.5 24.3,-6.8 25.4,-3 L25.7,-2 C26.5,0.6 26.9,2.8 26.9,4.5 C26.9,5.7 26.7,6.8 26.3,7.6 C25.7,8.7 24.7,9.4 23,9.8 C22.1,10 20.6,10.1 20.6,10.1 C20.1,10.1 19.7,10.2 19.3,10.2 C16.1,10.2 14.1,9 12.7,4.7 C11.5,1 11.3,-0.1 10.4,-4.5"/>
<path class="Note" transform="matrix(2.3811,0,0,2.3811,2400.04,1451.34)" d="M18.7,-13.6 C4.9,-13.6 0,-6.6 0,-0.1 C0,6.4 4.9,13.4 18.7,13.4 C32.5,13.4 37.3,6.4 37.3,-0.1 C37.3,-6.6 32.5,-13.6 18.7,-13.6 M10.4,-4.5 C10.3,-4.9 10.3,-5.3 10.3,-5.7 C10.3,-6.5 10.5,-7.3 10.9,-8 C11.6,-9 12.8,-9.7 14.3,-10 C15.6,-10.3 16.3,-10.5 18.9,-10.5 L19,-10.5 C23,-10.5 24.3,-6.8 25.4,-3 L25.7,-2 C26.5,0.6 26.9,2.8 26.9,4.5 C26.9,5.7 26.7,6.8 26.3,7.6 C25.7,8.7 24.7,9.4 23,9.8 C22.1,10 20.6,10.1 20.6,10.1 C20.1,10.1 19.7,10.2 19.3,10.2 C16.1,10.2 14.1,9 12.7,4.7 C11.5,1 11.3,-0.1 10.4,-4.5"/>
<path class="Note" transform="matrix(2.3811,0,0,2.3811,2846.85,1570.39)" d="M18.7,-13.6 C4.9,-13.6 0,-6.6 0,-0.1 C0,6.4 4.9,13.4 18.7,13.4 C32.5,13.4 37.3,6.4 37.3,-0.1 C37.3,-6.6 32.5,-13.6 18.7,-13.6 M10.4,-4.5 C10.3,-4.9 10.3,-5.3 10.3,-5.7 C10.3,-6.5 10.5,-7.3 10.9,-8 C11.6,-9 12.8,-9.7 14.3,-10 C15.6,-10.3 16.3,-10.5 18.9,-10.5 L19,-10.5 C23,-10.5 24.3,-6.8 25.4,-3 L25.7,-2 C26.5,0.6 26.9,2.8 26.9,4.5 C26.9,5.7 26.7,6.8 26.3,7.6 C25.7,8.7 24.7,9.4 23,9.8 C22.1,10 20.6,10.1 20.6,10.1 C20.1,10.1 19.7,10.2 19.3,10.2 C16.1,10.2 14.1,9 12.7,4.7 C11.5,1 11.3,-0.1 10.4,-4.5"/>
<path class="Note" transform="matrix(2.3811,0,0,2.3811,2846.85,1481.1)" d="M18.7,-13.6 C4.9,-13.6 0,-6.6 0,-0.1 C0,6.4 4.9,13.4 18.7,13.4 C32.5,13.4 37.3,6.4 37.3,-0.1 C37.3,-6.6 32.5,-13.6 18.7,-13.6 M10.4,-4.5 C10.3,-4.9 10.3,-5.3 10.3,-5.7 C10.3,-6.5 10.5,-7.3 10.9,-8 C11.6,-9 12.8,-9.7 14.3,-10 C15.6,-10.3 16.3,-10.5 18.9,-10.5 L19,-10.5 C23,-10.5 24.3,-6.8 25.4,-3 L25.7,-2 C26.5,0.6 26.9,2.8 26.9,4.5 C26.9,5.7 26.7,6.8 26.3,7.6 C25.7,8.7 24.7,9.4 23,9.8 C22.1,10 20.6,10.1 20.6,10.1 C20.1,10.1 19.7,10.2 19.3,10.2 C16.1,10.2 14.1,9 12.7,4.7 C11.5,1 11.3,-0.1 10.4,-4.5"/>
<path class="Note" transform="matrix(2.3811,0,0,2.3811,2846.85,1421.57)" d="M18.7,-13.6 C4.9,-13.6 0,-6.6 0,-0.1 C0,6.4 4.9,13.4 18.7,13.4 C32.5,13.4 37.3,6.4 37.3,-0.1 C37.3,-6.6 32.5,-13.6 18.7,-13.6 M10.4,-4.5 C10.3,-4.9 10.3,-5.3 10.3,-5.7 C10.3,-6.5 10.5,-7.3 10.9,-8 C11.6,-9 12.8,-9.7 14.3,-10 C15.6,-10.3 16.3,-10.5 18.9,-10.5 L19,-10.5 C23,-10.5 24.3,-6.8 25.4,-3 L25.7,-2 C26.5,0.6 26.9,2.8 26.9,4.5 C26.9,5.7 26.7,6.8 26.3,7.6 C25.7,8.7 24.7,9.4 23,9.8 C22.1,10 20.6,10.1 20.6,10.1 C20.1,10.1 19.7,10.2 19.3,10.2 C16.1,10.2 14.1,9 12.7,4.7 C11.5,1 11.3,-0.1 10.4,-4.5"/>
<path class="Note" transform="matrix(2.3811,0,0,2.3811,3291.55,1570.39)" d="M18.7,-13.6 C4.9,-13.6 0,-6.6 0,-0.1 C0,6.4 4.9,13.4 18.7,13.4 C32.5,13.4 37.3,6.4 37.3,-0.1 C37.3,-6.6 32.5,-13.6 18.7,-13.6 M10.4,-4.5 C10.3,-4.9 10.3,-5.3 10.3,-5.7 C10.3,-6.5 10.5,-7.3 10.9,-8 C11.6,-9 12.8,-9.7 14.3,-10 C15.6,-10.3 16.3,-10.5 18.9,-10.5 L19,-10.5 C23,-10.5 24.3,-6.8 25.4,-3 L25.7,-2 C26.5,0.6 26.9,2.8 26.9,4.5 C26.9,5.7 26.7,6.8 26.3,7.6 C25.7,8.7 24.7,9.4 23,9.8 C22.1,10 20.6,10.1 20.6,10.1 C20.1,10.1 19.7,10.2 19.3,10.2 C16.1,10.2 14.1,9 12.7,4.7 C11.5,1 11.3,-0.1 10.4,-4.5"/>
<path class="Note" transform="matrix(2.3811,0,0,2.3811,3291.55,1510.87)" d="M18.7,-13.6 C4.9,-13.6 0,-6.6 0,-0.1 C0,6.4 4.9,13.4 18.7,13.4 C32.5,13.4 37.3,6.4 37.3,-0.1 C37.3,-6.6 32.5,-13.6 18.7,-13.6 M10.4,-4.5 C10.3,-4.9 10.3,-5.3 10.3,-5.7 C10.3,-6.5 10.5,-7.3 10.9,-8 C11.6,-9 12.8,-9.7 14.3,-10 C15.6,-10.3 16.3,-10.5 18.9,-10.5 L19,-10.5 C23,-10.5 24.3,-6.8 25.4,-3 L25.7,-2 C26.5,0.6 26.9,2.8 26.9,4.5 C26.9,5.7 26.7,6.8 26.3,7.6 C25.7,8.7 24.7,9.4 23,9.8 C22.1,10 20.6,10.1 20.6,10.1 C20.1,10.1 19.7,10.2 19.3,10.2 C16.1,10.2 14.1,9 12.7,4.7 C11.5,1 11.3,-0.1 10.4,-4.5"/>
<path class="Note" transform="matrix(2.3811,0,0,2.3811,3291.55,1391.81)" d="M18.7,-13.6 C4.9,-13.6 0,-6.6 0,-0.1 C0,6.4 4.9,13.4 18.7,13.4 C32.5,13.4 37.3,6.4 37.3,-0.1 C37.3,-6.6 32.5,-13.6 18.7,-13.6 M10.4,-4.5 C10.3,-4.9 10.3,-5.3 10.3,-5.7 C10.3,-6.5 10.5,-7.3 10.9,-8 C11.6,-9 12.8,-9.7 14.3,-10 C15.6,-10.3 16.3,-10.5 18.9,-10.5 L19,-10.5 C23,-10.5 24.3,-6.8 25.4,-3 L25.7,-2 C26.5,0.6 26.9,2.8 26.9,4.5 C26.9,5.7 26.7,6.8 26.3,7.6 C25.7,8.7 24.7,9.4 23,9.8 C22.1,10 20.6,10.1 20.6,10.1 C20.1,10.1 19.7,10.2 19.3,10.2 C16.1,10.2 14.1,9 12.7,4.7 C11.5,1 11.3,-0.1 10.4,-4.5"/>
<path class="Note" transform="matrix(2.3811,0,0,2.3811,3736.25,1570.39)" d="M18.7,-13.6 C4.9,-13.6 0,-6.6 0,-0.1 C0,6.4 4.9,13.4 18.7,13.4 C32.5,13.4 37.3,6.4 37.3,-0.1 C37.3,-6.6 32.5,-13.6 18.7,-13.6 M10.4,-4.5 C10.3,-4.9 10.3,-5.3 10.3,-5.7 C10.3,-6.5 10.5,-7.3 10.9,-8 C11.6,-9 12.8,-9.7 14.3,-10 C15.6,-10.3 16.3,-10.5 18.9,-10.5 L19,-10.5 C23,-10.5 24.3,-6.8 25.4,-3 L25.7,-2 C26.5,0.6 26.9,2.8 26.9,4.5 C26.9,5.7 26.7,6.8 26.3,7.6 C25.7,8.7 24.7,9.4 23,9.8 C22.1,10 20.6,10.1 20.6,10.1 C20.1,10.1 19.7,10.2 19.3,10.2 C16.1,10.2 14.1,9 12.7,4.7 C11.5,1 11.3,-0.1 10.4,-4.5"/>
<path class="Note" transform="matrix(2.3811,0,0,2.3811,3736.25,1481.1)" d="M18.7,-13.6 C4.9,-13.6 0,-6.6 0,-0.1 C0,6.4 4.9,13.4 18.7,13.4 C32.5,13.4 37.3,6.4 37.3,-0.1 C37.3,-6.6 32.5,-13.6 18.7,-13.6 M10.4,-4.5 C10.3,-4.9 10.3,-5.3 10.3,-5.7 C10.3,-6.5 10.5,-7.3 10.9,-8 C11.6,-9 12.8,-9.7 14.3,-10 C15.6,-10.3 16.3,-10.5 18.9,-10.5 L19,-10.5 C23,-10.5 24.3,-6.8 25.4,-3 L25.7,-2 C26.5,0.6 26.9,2.8 26.9,4.5 C26.9,5.7 26.7,6.8 26.3,7.6 C25.7,8.7 24.7,9.4 23,9.8 C22.1,10 20.6,10.1 20.6,10.1 C20.1,10.1 19.7,10.2 19.3,10.2 C16.1,10.2 14.1,9 12.7,4.7 C11.5,1 11.3,-0.1 10.4,-4.5"/>
<path class="Note" transform="matrix(2.3811,0,0,2.3811,3736.25,1421.57)" d="M18.7,-13.6 C4.9,-13.6 0,-6.6 0,-0.1 C0,6.4 4.9,13.4 18.7,13.4 C32.5,13.4 37.3,6.4 37.3,-0.1 C37.3,-6.6 32.5,-13.6 18.7,-13.6 M10.4,-4.5 C10.3,-4.9 10.3,-5.3 10.3,-5.7 C10.3,-6.5 10.5,-7.3 10.9,-8 C11.6,-9 12.8,-9.7 14.3,-10 C15.6,-10.3 16.3,-10.5 18.9,-10.5 L19,-10.5 C23,-10.5 24.3,-6.8 25.4,-3 L25.7,-2 C26.5,0.6 26.9,2.8 26.9,4.5 C26.9,5.7 26.7,6.8 26.3,7.6 C25.7,8.7 24.7,9.4 23,9.8 C22.1,10 20.6,10.1 20.6,10.1 C20.1,10.1 19.7,10.2 19.3,10.2 C16.1,10.2 14.1,9 12.7,4.7 C11.5,1 11.3,-0.1 10.4,-4.5"/>
<path class="Note" d="M481.114,587.916 C481.424,576.217 487.893,565.836 500.522,556.771 C511.755,548.714 524.035,544.685 537.361,544.685 C556.032,544.685 572.495,552.007 586.75,566.649 C595.815,576.024 600.347,587.645 600.347,601.513 C600.347,613.986 597.016,623.554 590.353,630.217 C582.218,638.429 573.618,642.535 564.554,642.535 C558.356,642.535 553.553,641.14 550.144,638.351 C544.566,633.78 541.777,627.66 541.777,619.99 C541.777,610.073 546.735,601.009 556.652,592.797 C564.786,586.056 572.96,581.64 581.172,579.549 C579.003,575.83 576.253,572.344 572.921,569.09 C562.54,558.941 550.764,553.866 537.593,553.866 C523.88,553.866 512.53,556.849 503.543,562.814 C494.246,568.935 486.77,577.302 481.114,587.916 M584.077,585.708 C579.816,589.659 575.555,593.881 571.294,598.375 C562.927,607.207 558.743,615.574 558.743,623.476 C558.743,631.921 560.68,636.143 564.554,636.143 C568.04,636.143 572.921,631.379 579.197,621.849 C584.232,614.257 586.75,607.284 586.75,600.931 C586.75,595.508 585.859,590.434 584.077,585.708"/>
<path class="Note" d="M481.114,498.624 C481.424,486.926 487.893,476.544 500.522,467.48 C511.755,459.423 524.035,455.394 537.361,455.394 C556.032,455.394 572.495,462.715 586.75,477.358 C595.815,486.732 600.347,498.353 600.347,512.221 C600.347,524.694 597.016,534.263 590.353,540.925 C582.218,549.138 573.618,553.244 564.554,553.244 C558.356,553.244 553.553,551.849 550.144,549.06 C544.566,544.489 541.777,538.369 541.777,530.699 C541.777,520.782 546.735,511.718 556.652,503.505 C564.786,496.765 572.96,492.349 581.172,490.257 C579.003,486.539 576.253,483.052 572.921,479.798 C562.54,469.649 550.764,464.575 537.593,464.575 C523.88,464.575 512.53,467.557 503.543,473.523 C494.246,479.643 486.77,488.011 481.114,498.624 M584.077,496.416 C579.816,500.368 575.555,504.59 571.294,509.083 C562.927,517.916 558.743,526.283 558.743,534.185 C558.743,542.63 560.68,546.852 564.554,546.852 C568.04,546.852 572.921,542.087 579.197,532.558 C584.232,524.966 586.75,517.993 586.75,511.64 C586.75,506.217 585.859,501.142 584.077,496.416"/>
<path class="Note" d="M607.078,739.77 C611.417,736.826 614.554,734.386 616.491,732.449 C620.055,728.652 621.837,725.166 621.837,721.99 C621.837,718.348 619.823,716.528 615.794,716.528 C607.969,716.528 599.602,723.423 590.692,737.213 C587.981,741.397 582.015,755.032 572.796,778.12 C580.156,785.712 583.836,790.012 583.836,791.019 C583.836,792.414 582.945,793.111 581.163,793.111 C579.769,793.111 575.934,790.748 569.658,786.022 C562.84,801.904 552.498,815.462 538.63,826.696 C524.452,838.162 507.524,843.895 487.846,843.895 C480.331,843.895 470.918,842.152 459.606,838.666 C450.542,835.876 446.01,831.422 446.01,825.301 C446.01,816.237 449.496,811.705 456.469,811.705 C460.652,811.705 462.744,813.641 462.744,817.515 C462.744,818.755 461.776,820.072 459.839,821.466 C458.832,822.164 458.328,823.519 458.328,825.534 C458.328,827.935 461.001,830.415 466.347,832.971 C472.157,835.76 480.679,837.155 491.913,837.155 C506.401,837.155 520.385,830.879 533.865,818.329 C546.106,806.94 554.899,793.692 560.245,778.584 C558.153,776.88 555.907,775.021 553.505,773.006 C546.067,768.59 542.349,764.058 542.349,759.41 C542.349,757.473 543.627,756.504 546.184,756.504 C549.592,756.504 554.202,759.41 560.013,765.22 C561.252,766.46 562.414,767.622 563.499,768.707 C566.211,761.269 570.549,751.817 576.515,740.351 C587.283,719.588 600.377,709.207 615.794,709.207 C621.295,709.207 625.633,710.252 628.81,712.344 C631.986,714.436 633.574,717.303 633.574,720.944 C633.574,726.754 631.444,731.674 627.183,735.703 C622.767,739.886 618.157,741.978 613.353,741.978 C609.17,741.978 607.078,741.242 607.078,739.77"/>
<path class="Note" d="M607.078,650.479 C611.417,647.535 614.554,645.094 616.491,643.157 C620.055,639.361 621.837,635.875 621.837,632.698 C621.837,629.057 619.823,627.236 615.794,627.236 C607.969,627.236 599.602,634.132 590.692,647.922 C587.981,652.106 582.015,665.741 572.796,688.828 C580.156,696.421 583.836,700.721 583.836,701.728 C583.836,703.122 582.945,703.819 581.163,703.819 C579.769,703.819 575.934,701.457 569.658,696.731 C562.84,712.613 552.498,726.171 538.63,737.404 C524.452,748.871 507.524,754.604 487.846,754.604 C480.331,754.604 470.918,752.86 459.606,749.374 C450.542,746.585 446.01,742.13 446.01,736.01 C446.01,726.945 449.496,722.413 456.469,722.413 C460.652,722.413 462.744,724.35 462.744,728.224 C462.744,729.463 461.776,730.78 459.839,732.175 C458.832,732.872 458.328,734.228 458.328,736.242 C458.328,738.644 461.001,741.123 466.347,743.68 C472.157,746.469 480.679,747.863 491.913,747.863 C506.401,747.863 520.385,741.588 533.865,729.037 C546.106,717.649 554.899,704.401 560.245,689.293 C558.153,687.589 555.907,685.729 553.505,683.715 C546.067,679.299 542.349,674.767 542.349,670.118 C542.349,668.181 543.627,667.213 546.184,667.213 C549.592,667.213 554.202,670.118 560.013,675.929 C561.252,677.168 562.414,678.331 563.499,679.415 C566.211,671.978 570.549,662.526 576.515,651.06 C587.283,630.297 600.377,619.915 615.794,619.915 C621.295,619.915 625.633,620.961 628.81,623.053 C631.986,625.145 633.574,628.011 633.574,631.652 C633.574,637.463 631.444,642.383 627.183,646.411 C622.767,650.595 618.157,652.687 613.353,652.687 C609.17,652.687 607.078,651.951 607.078,650.479"/>
<path class="Note" d="M913.864,587.916 C914.174,576.217 920.643,565.836 933.271,556.771 C944.505,548.714 956.785,544.685 970.11,544.685 C988.781,544.685 1005.24,552.007 1019.5,566.649 C1028.56,576.024 1033.1,587.645 1033.1,601.513 C1033.1,613.986 1029.77,623.554 1023.1,630.217 C1014.97,638.429 1006.37,642.535 997.304,642.535 C991.106,642.535 986.302,641.14 982.893,638.351 C977.315,633.78 974.526,627.66 974.526,619.99 C974.526,610.073 979.485,601.009 989.401,592.797 C997.536,586.056 1005.71,581.64 1013.92,579.549 C1011.75,575.83 1009,572.344 1005.67,569.09 C995.289,558.941 983.513,553.866 970.343,553.866 C956.63,553.866 945.28,556.849 936.293,562.814 C926.996,568.935 919.52,577.302 913.864,587.916 M1016.83,585.708 C1012.57,589.659 1008.3,593.881 1004.04,598.375 C995.677,607.207 991.493,615.574 991.493,623.476 C991.493,631.921 993.43,636.143 997.304,636.143 C1000.79,636.143 1005.67,631.379 1011.95,621.849 C1016.98,614.257 1019.5,607.284 1019.5,600.931 C1019.5,595.508 1018.61,590.434 1016.83,585.708"/>
<path class="Note" d="M1060.75,794.854 C1054.39,804.848 1044.36,813.138 1030.65,819.723 C1018.72,825.456 1007.56,828.323 997.178,828.323 C988.889,828.323 981.993,826.657 976.493,823.326 C970.527,819.684 967.545,815.346 967.545,810.31 C967.545,798.921 970.527,789.121 976.493,780.909 C984.628,769.752 992.84,764.174 1001.13,764.174 C1007.02,764.174 1011.2,765.336 1013.68,767.661 C1017.09,770.682 1018.79,774.827 1018.79,780.095 C1018.79,787.533 1013.25,794.002 1002.18,799.502 C991.407,804.848 983.93,808.334 979.747,809.961 C980.676,811.898 981.877,813.641 983.349,815.191 C986.991,819.065 991.949,821.001 998.224,821.001 C1006.13,821.001 1016.74,818.096 1030.07,812.286 C1042.85,806.63 1053.08,800.819 1060.75,794.854 M978.12,804.616 C983.93,801.672 989.237,798.224 994.041,794.273 C1001.17,788.462 1004.73,782.187 1004.73,775.447 C1004.73,771.651 1002.99,769.752 999.503,769.752 C996.559,769.752 992.53,773.123 987.417,779.863 C980.986,788.23 977.771,795.048 977.771,800.316 C977.771,801.788 977.887,803.221 978.12,804.616"/>
<path class="Note" d="M913.864,677.207 C914.174,665.509 920.643,655.127 933.271,646.063 C944.505,638.005 956.785,633.977 970.11,633.977 C988.781,633.977 1005.24,641.298 1019.5,655.941 C1028.56,665.315 1033.1,676.936 1033.1,690.804 C1033.1,703.277 1029.77,712.845 1023.1,719.508 C1014.97,727.72 1006.37,731.826 997.304,731.826 C991.106,731.826 986.302,730.432 982.893,727.643 C977.315,723.072 974.526,716.951 974.526,709.281 C974.526,699.365 979.485,690.3 989.401,682.088 C997.536,675.348 1005.71,670.932 1013.92,668.84 C1011.75,665.121 1009,661.635 1005.67,658.381 C995.289,648.232 983.513,643.157 970.343,643.157 C956.63,643.157 945.28,646.14 936.293,652.106 C926.996,658.226 919.52,666.593 913.864,677.207 M1016.83,674.999 C1012.57,678.95 1008.3,683.173 1004.04,687.666 C995.677,696.498 991.493,704.865 991.493,712.768 C991.493,721.212 993.43,725.435 997.304,725.435 C1000.79,725.435 1005.67,720.67 1011.95,711.141 C1016.98,703.548 1019.5,696.576 1019.5,690.223 C1019.5,684.8 1018.61,679.725 1016.83,674.999"/>
<path class="Note" d="M1463.43,642.535 C1459.63,642.535 1457.73,638.468 1457.73,630.333 L1457.73,596.283 C1457.73,593.029 1459.32,591.402 1462.5,591.402 C1463.89,591.402 1464.94,591.518 1465.64,591.751 C1468.12,587.412 1472.18,583.771 1477.84,580.827 C1485.74,576.721 1493.76,574.668 1501.9,574.668 C1508.33,574.668 1511.54,577.069 1511.54,581.873 C1511.54,585.902 1509.37,587.916 1505.03,587.916 C1501.93,587.916 1498.99,587.219 1496.2,585.824 C1493.72,584.584 1491.09,583.965 1488.3,583.965 C1483.5,583.965 1476.41,587.102 1467.03,593.378 C1468.35,599.653 1469.01,606.974 1469.01,615.342 C1469.01,633.471 1467.15,642.535 1463.43,642.535"/>
<path class="Note" d="M1463.43,821.118 C1459.63,821.118 1457.73,817.05 1457.73,808.916 L1457.73,774.866 C1457.73,771.612 1459.32,769.985 1462.5,769.985 C1463.89,769.985 1464.94,770.101 1465.64,770.333 C1468.12,765.995 1472.18,762.354 1477.84,759.41 C1485.74,755.304 1493.76,753.25 1501.9,753.25 C1508.33,753.25 1511.54,755.652 1511.54,760.456 C1511.54,764.484 1509.37,766.499 1505.03,766.499 C1501.93,766.499 1498.99,765.801 1496.2,764.407 C1493.72,763.167 1491.09,762.547 1488.3,762.547 C1483.5,762.547 1476.41,765.685 1467.03,771.96 C1468.35,778.236 1469.01,785.557 1469.01,793.924 C1469.01,812.053 1467.15,821.118 1463.43,821.118"/>
<path class="Note" d="M1396.62,498.624 C1396.93,486.926 1403.4,476.544 1416.02,467.48 C1427.26,459.423 1439.54,455.394 1452.86,455.394 C1471.53,455.394 1488,462.715 1502.25,477.358 C1511.32,486.732 1515.85,498.353 1515.85,512.221 C1515.85,524.694 1512.52,534.263 1505.86,540.925 C1497.72,549.138 1489.12,553.244 1480.06,553.244 C1473.86,553.244 1469.06,551.849 1465.65,549.06 C1460.07,544.489 1457.28,538.369 1457.28,530.699 C1457.28,520.782 1462.24,511.718 1472.15,503.505 C1480.29,496.765 1488.46,492.349 1496.67,490.257 C1494.51,486.539 1491.76,483.052 1488.42,479.798 C1478.04,469.649 1466.27,464.575 1453.1,464.575 C1439.38,464.575 1428.03,467.557 1419.05,473.523 C1409.75,479.643 1402.27,488.011 1396.62,498.624 M1499.58,496.416 C1495.32,500.368 1491.06,504.59 1486.8,509.083 C1478.43,517.916 1474.25,526.283 1474.25,534.185 C1474.25,542.63 1476.18,546.852 1480.06,546.852 C1483.54,546.852 1488.42,542.087 1494.7,532.558 C1499.73,524.966 1502.25,517.993 1502.25,511.64 C1502.25,506.217 1501.36,501.142 1499.58,496.416"/>
<path class="Note" d="M1396.62,677.207 C1396.93,665.509 1403.4,655.127 1416.02,646.063 C1427.26,638.005 1439.54,633.977 1452.86,633.977 C1471.53,633.977 1488,641.298 1502.25,655.941 C1511.32,665.315 1515.85,676.936 1515.85,690.804 C1515.85,703.277 1512.52,712.845 1505.86,719.508 C1497.72,727.72 1489.12,731.826 1480.06,731.826 C1473.86,731.826 1469.06,730.432 1465.65,727.643 C1460.07,723.072 1457.28,716.951 1457.28,709.281 C1457.28,699.365 1462.24,690.3 1472.15,682.088 C1480.29,675.348 1488.46,670.932 1496.67,668.84 C1494.51,665.121 1491.76,661.635 1488.42,658.381 C1478.04,648.232 1466.27,643.157 1453.1,643.157 C1439.38,643.157 1428.03,646.14 1419.05,652.106 C1409.75,658.226 1402.27,666.593 1396.62,677.207 M1499.58,674.999 C1495.32,678.95 1491.06,683.173 1486.8,687.666 C1478.43,696.498 1474.25,704.865 1474.25,712.768 C1474.25,721.212 1476.18,725.435 1480.06,725.435 C1483.54,725.435 1488.42,720.67 1494.7,711.141 C1499.73,703.548 1502.25,696.576 1502.25,690.223 C1502.25,684.8 1501.36,679.725 1499.58,674.999"/>
<path class="Note" d="M2046.92,829.061 C2051.26,826.117 2054.4,823.677 2056.33,821.74 C2059.9,817.944 2061.68,814.457 2061.68,811.281 C2061.68,807.64 2059.67,805.819 2055.64,805.819 C2047.81,805.819 2039.44,812.714 2030.54,826.505 C2027.82,830.688 2021.86,844.324 2012.64,867.411 C2020,875.003 2023.68,879.303 2023.68,880.31 C2023.68,881.705 2022.79,882.402 2021.01,882.402 C2019.61,882.402 2015.78,880.039 2009.5,875.313 C2002.68,891.195 1992.34,904.753 1978.47,915.987 C1964.29,927.453 1947.37,933.186 1927.69,933.186 C1920.17,933.186 1910.76,931.443 1899.45,927.957 C1890.38,925.168 1885.85,920.713 1885.85,914.593 C1885.85,905.528 1889.34,900.996 1896.31,900.996 C1900.5,900.996 1902.59,902.933 1902.59,906.806 C1902.59,908.046 1901.62,909.363 1899.68,910.758 C1898.67,911.455 1898.17,912.811 1898.17,914.825 C1898.17,917.227 1900.84,919.706 1906.19,922.263 C1912,925.052 1920.52,926.446 1931.76,926.446 C1946.24,926.446 1960.23,920.171 1973.71,907.62 C1985.95,896.231 1994.74,882.983 2000.09,867.876 C1998,866.171 1995.75,864.312 1993.35,862.298 C1985.91,857.882 1982.19,853.349 1982.19,848.701 C1982.19,846.764 1983.47,845.796 1986.03,845.796 C1989.44,845.796 1994.04,848.701 1999.86,854.512 C2001.1,855.751 2002.26,856.913 2003.34,857.998 C2006.05,850.56 2010.39,841.109 2016.36,829.642 C2027.13,808.879 2040.22,798.498 2055.64,798.498 C2061.14,798.498 2065.48,799.544 2068.65,801.636 C2071.83,803.727 2073.42,806.594 2073.42,810.235 C2073.42,816.046 2071.29,820.965 2067.03,824.994 C2062.61,829.178 2058,831.269 2053.2,831.269 C2049.01,831.269 2046.92,830.533 2046.92,829.061"/>
<path class="Note" d="M1920.96,587.916 C1921.27,576.217 1927.74,565.836 1940.36,556.771 C1951.6,548.714 1963.88,544.685 1977.2,544.685 C1995.87,544.685 2012.34,552.007 2026.59,566.649 C2035.66,576.024 2040.19,587.645 2040.19,601.513 C2040.19,613.986 2036.86,623.554 2030.2,630.217 C2022.06,638.429 2013.46,642.535 2004.4,642.535 C1998.2,642.535 1993.4,641.14 1989.99,638.351 C1984.41,633.78 1981.62,627.66 1981.62,619.99 C1981.62,610.073 1986.58,601.009 1996.49,592.797 C2004.63,586.056 2012.8,581.64 2021.01,579.549 C2018.85,575.83 2016.1,572.344 2012.76,569.09 C2002.38,558.941 1990.61,553.866 1977.44,553.866 C1963.72,553.866 1952.37,556.849 1943.39,562.814 C1934.09,568.935 1926.61,577.302 1920.96,587.916 M2023.92,585.708 C2019.66,589.659 2015.4,593.881 2011.14,598.375 C2002.77,607.207 1998.59,615.574 1998.59,623.476 C1998.59,631.921 2000.52,636.143 2004.4,636.143 C2007.88,636.143 2012.76,631.379 2019.04,621.849 C2024.08,614.257 2026.59,607.284 2026.59,600.931 C2026.59,595.508 2025.7,590.434 2023.92,585.708"/>
<path class="Note" d="M2067.84,794.854 C2061.49,804.848 2051.45,813.138 2037.74,819.723 C2025.81,825.456 2014.65,828.323 2004.27,828.323 C1995.98,828.323 1989.09,826.657 1983.59,823.326 C1977.62,819.684 1974.64,815.346 1974.64,810.31 C1974.64,798.921 1977.62,789.121 1983.59,780.909 C1991.72,769.752 1999.93,764.174 2008.22,764.174 C2014.11,764.174 2018.29,765.336 2020.77,767.661 C2024.18,770.682 2025.89,774.827 2025.89,780.095 C2025.89,787.533 2020.35,794.002 2009.27,799.502 C1998.5,804.848 1991.02,808.334 1986.84,809.961 C1987.77,811.898 1988.97,813.641 1990.44,815.191 C1994.08,819.065 1999.04,821.001 2005.32,821.001 C2013.22,821.001 2023.83,818.096 2037.16,812.286 C2049.94,806.63 2060.17,800.819 2067.84,794.854 M1985.21,804.616 C1991.02,801.672 1996.33,798.224 2001.13,794.273 C2008.26,788.462 2011.83,782.187 2011.83,775.447 C2011.83,771.651 2010.08,769.752 2006.6,769.752 C2003.65,769.752 1999.62,773.123 1994.51,779.863 C1988.08,788.23 1984.86,795.048 1984.86,800.316 C1984.86,801.788 1984.98,803.221 1985.21,804.616"/>
<path class="Note" d="M1920.96,677.207 C1921.27,665.509 1927.74,655.127 1940.36,646.063 C1951.6,638.005 1963.88,633.977 1977.2,633.977 C1995.87,633.977 2012.34,641.298 2026.59,655.941 C2035.66,665.315 2040.19,676.936 2040.19,690.804 C2040.19,703.277 2036.86,712.845 2030.2,719.508 C2022.06,727.72 2013.46,731.826 2004.4,731.826 C1998.2,731.826 1993.4,730.432 1989.99,727.643 C1984.41,723.072 1981.62,716.951 1981.62,709.281 C1981.62,699.365 1986.58,690.3 1996.49,682.088 C2004.63,675.348 2012.8,670.932 2021.01,668.84 C2018.85,665.121 2016.1,661.635 2012.76,658.381 C2002.38,648.232 1990.61,643.157 1977.44,643.157 C1963.72,643.157 1952.37,646.14 1943.39,652.106 C1934.09,658.226 1926.61,666.593 1920.96,677.207 M2023.92,674.999 C2019.66,678.95 2015.4,683.173 2011.14,687.666 C2002.77,696.498 1998.59,704.865 1998.59,712.768 C1998.59,721.212 2000.52,725.435 2004.4,725.435 C2007.88,725.435 2012.76,720.67 2019.04,711.141 C2024.08,703.548 2026.59,696.576 2026.59,690.223 C2026.59,684.8 2025.7,679.725 2023.92,674.999"/>
<path class="Note" d="M2367.77,855.79 C2368.08,844.091 2374.55,833.71 2387.18,824.645 C2398.41,816.588 2410.69,812.559 2424.02,812.559 C2442.69,812.559 2459.15,819.881 2473.41,834.523 C2482.47,843.898 2487,855.519 2487,869.387 C2487,881.86 2483.67,891.428 2477.01,898.091 C2468.87,906.303 2460.27,910.409 2451.21,910.409 C2445.01,910.409 2440.21,909.014 2436.8,906.225 C2431.22,901.654 2428.43,895.534 2428.43,887.864 C2428.43,877.947 2433.39,868.883 2443.31,860.671 C2451.44,853.93 2459.62,849.514 2467.83,847.423 C2465.66,843.704 2462.91,840.218 2459.58,836.964 C2449.2,826.815 2437.42,821.74 2424.25,821.74 C2410.54,821.74 2399.19,824.723 2390.2,830.688 C2380.9,836.809 2373.43,845.176 2367.77,855.79 M2470.73,853.582 C2466.47,857.533 2462.21,861.755 2457.95,866.249 C2449.58,875.081 2445.4,883.448 2445.4,891.35 C2445.4,899.795 2447.34,904.017 2451.21,904.017 C2454.7,904.017 2459.58,899.253 2465.85,889.723 C2470.89,882.131 2473.41,875.158 2473.41,868.805 C2473.41,863.382 2472.52,858.308 2470.73,853.582"/>
<path class="Note" d="M2367.77,587.916 C2368.08,576.217 2374.55,565.836 2387.18,556.771 C2398.41,548.714 2410.69,544.685 2424.02,544.685 C2442.69,544.685 2459.15,552.007 2473.41,566.649 C2482.47,576.024 2487,587.645 2487,601.513 C2487,613.986 2483.67,623.554 2477.01,630.217 C2468.87,638.429 2460.27,642.535 2451.21,642.535 C2445.01,642.535 2440.21,641.14 2436.8,638.351 C2431.22,633.78 2428.43,627.66 2428.43,619.99 C2428.43,610.073 2433.39,601.009 2443.31,592.797 C2451.44,586.056 2459.62,581.64 2467.83,579.549 C2465.66,575.83 2462.91,572.344 2459.58,569.09 C2449.2,558.941 2437.42,553.866 2424.25,553.866 C2410.54,553.866 2399.19,556.849 2390.2,562.814 C2380.9,568.935 2373.43,577.302 2367.77,587.916 M2470.73,585.708 C2466.47,589.659 2462.21,593.881 2457.95,598.375 C2449.58,607.207 2445.4,615.574 2445.4,623.476 C2445.4,631.921 2447.34,636.143 2451.21,636.143 C2454.7,636.143 2459.58,631.379 2465.85,621.849 C2470.89,614.257 2473.41,607.284 2473.41,600.931 C2473.41,595.508 2472.52,590.434 2470.73,585.708"/>
<path class="Note" d="M2514.65,794.854 C2508.3,804.848 2498.27,813.138 2484.55,819.723 C2472.62,825.456 2461.47,828.323 2451.08,828.323 C2442.79,828.323 2435.9,826.657 2430.4,823.326 C2424.43,819.684 2421.45,815.346 2421.45,810.31 C2421.45,798.921 2424.43,789.121 2430.4,780.909 C2438.53,769.752 2446.75,764.174 2455.04,764.174 C2460.92,764.174 2465.11,765.336 2467.59,767.661 C2471,770.682 2472.7,774.827 2472.7,780.095 C2472.7,787.533 2467.16,794.002 2456.08,799.502 C2445.31,804.848 2437.84,808.334 2433.65,809.961 C2434.58,811.898 2435.78,813.641 2437.26,815.191 C2440.9,819.065 2445.86,821.001 2452.13,821.001 C2460.03,821.001 2470.65,818.096 2483.97,812.286 C2496.76,806.63 2506.98,800.819 2514.65,794.854 M2432.03,804.616 C2437.84,801.672 2443.14,798.224 2447.95,794.273 C2455.07,788.462 2458.64,782.187 2458.64,775.447 C2458.64,771.651 2456.9,769.752 2453.41,769.752 C2450.46,769.752 2446.44,773.123 2441.32,779.863 C2434.89,788.23 2431.68,795.048 2431.68,800.316 C2431.68,801.788 2431.79,803.221 2432.03,804.616"/>
<path class="Note" d="M2367.77,677.207 C2368.08,665.509 2374.55,655.127 2387.18,646.063 C2398.41,638.005 2410.69,633.977 2424.02,633.977 C2442.69,633.977 2459.15,641.298 2473.41,655.941 C2482.47,665.315 2487,676.936 2487,690.804 C2487,703.277 2483.67,712.845 2477.01,719.508 C2468.87,727.72 2460.27,731.826 2451.21,731.826 C2445.01,731.826 2440.21,730.432 2436.8,727.643 C2431.22,723.072 2428.43,716.951 2428.43,709.281 C2428.43,699.365 2433.39,690.3 2443.31,682.088 C2451.44,675.348 2459.62,670.932 2467.83,668.84 C2465.66,665.121 2462.91,661.635 2459.58,658.381 C2449.2,648.232 2437.42,643.157 2424.25,643.157 C2410.54,643.157 2399.19,646.14 2390.2,652.106 C2380.9,658.226 2373.43,666.593 2367.77,677.207 M2470.73,674.999 C2466.47,678.95 2462.21,683.173 2457.95,687.666 C2449.58,696.498 2445.4,704.865 2445.4,712.768 C2445.4,721.212 2447.34,725.435 2451.21,725.435 C2454.7,725.435 2459.58,720.67 2465.85,711.141 C2470.89,703.548 2473.41,696.576 2473.41,690.223 C2473.41,684.8 2472.52,679.725 2470.73,674.999"/>
<path class="Note" d="M2867.92,999.7 C2863.73,999.7 2861.64,997.802 2861.64,994.006 C2861.64,987.576 2862.61,982.85 2864.55,979.828 C2872.6,967.897 2890.11,945.585 2917.07,912.891 C2929.24,898.093 2944.92,890.694 2964.14,890.694 C2971.58,890.694 2976.73,891.74 2979.59,893.832 C2984.01,897.086 2986.22,900.999 2986.22,905.569 C2986.22,910.373 2982.34,915.719 2974.6,921.607 C2967.24,927.185 2960.26,929.974 2953.68,929.974 C2951.12,929.974 2949.84,929.703 2949.84,929.16 C2949.84,928.386 2951.08,927.572 2953.56,926.72 C2956.89,925.48 2960.46,922.962 2964.25,919.166 C2968.59,914.75 2970.76,910.76 2970.76,907.196 C2970.76,904.795 2969.1,902.509 2965.76,900.34 C2962.82,898.481 2958.06,897.551 2951.47,897.551 C2941.86,897.551 2929.74,907.235 2915.1,926.604 C2905.34,939.542 2897.43,950.93 2891.39,960.77 C2894.33,959.143 2897.86,957.167 2901.97,954.843 C2907,951.976 2911.34,950.543 2914.98,950.543 C2924.05,950.543 2928.58,953.797 2928.58,960.305 C2928.58,966.735 2924.86,973.785 2917.42,981.455 C2912.15,986.878 2909.52,990.907 2909.52,993.541 C2909.52,996.253 2912.15,997.609 2917.42,997.609 C2920.06,997.609 2922.77,996.679 2925.56,994.819 C2928.34,993.038 2930.4,992.147 2931.72,992.147 C2932.8,992.147 2933.34,992.844 2933.34,994.238 C2933.34,996.485 2931.17,998.848 2926.83,1001.33 C2919.55,1005.51 2913.7,1007.6 2909.29,1007.6 C2901.46,1007.6 2897.55,1003.42 2897.55,995.052 C2897.55,989.784 2900.57,983.934 2906.61,977.504 C2911.03,972.778 2913.24,968.091 2913.24,963.443 C2913.24,959.414 2911.07,957.4 2906.73,957.4 C2905.03,957.4 2899.37,959.414 2889.76,963.443 C2886.9,968.246 2884.49,972.662 2882.56,976.691 C2875.2,992.03 2870.32,999.7 2867.92,999.7"/>
<path class="Note" d="M2940.55,829.061 C2944.89,826.117 2948.02,823.677 2949.96,821.74 C2953.52,817.944 2955.31,814.457 2955.31,811.281 C2955.31,807.64 2953.29,805.819 2949.26,805.819 C2941.44,805.819 2933.07,812.714 2924.16,826.505 C2921.45,830.688 2915.48,844.324 2906.26,867.411 C2913.62,875.003 2917.3,879.303 2917.3,880.31 C2917.3,881.705 2916.41,882.402 2914.63,882.402 C2913.24,882.402 2909.4,880.039 2903.13,875.313 C2896.31,891.195 2885.97,904.753 2872.1,915.987 C2857.92,927.453 2840.99,933.186 2821.31,933.186 C2813.8,933.186 2804.39,931.443 2793.08,927.957 C2784.01,925.168 2779.48,920.713 2779.48,914.593 C2779.48,905.528 2782.97,900.996 2789.94,900.996 C2794.12,900.996 2796.21,902.933 2796.21,906.806 C2796.21,908.046 2795.24,909.363 2793.31,910.758 C2792.3,911.455 2791.8,912.811 2791.8,914.825 C2791.8,917.227 2794.47,919.706 2799.82,922.263 C2805.63,925.052 2814.15,926.446 2825.38,926.446 C2839.87,926.446 2853.85,920.171 2867.33,907.62 C2879.58,896.231 2888.37,882.983 2893.71,867.876 C2891.62,866.171 2889.38,864.312 2886.97,862.298 C2879.54,857.882 2875.82,853.349 2875.82,848.701 C2875.82,846.764 2877.1,845.796 2879.65,845.796 C2883.06,845.796 2887.67,848.701 2893.48,854.512 C2894.72,855.751 2895.88,856.913 2896.97,857.998 C2899.68,850.56 2904.02,841.109 2909.98,829.642 C2920.75,808.879 2933.85,798.498 2949.26,798.498 C2954.76,798.498 2959.1,799.544 2962.28,801.636 C2965.45,803.727 2967.04,806.594 2967.04,810.235 C2967.04,816.046 2964.91,820.965 2960.65,824.994 C2956.24,829.178 2951.63,831.269 2946.82,831.269 C2942.64,831.269 2940.55,830.533 2940.55,829.061"/>
<path class="Note" d="M2940.55,739.77 C2944.89,736.826 2948.02,734.386 2949.96,732.449 C2953.52,728.652 2955.31,725.166 2955.31,721.99 C2955.31,718.348 2953.29,716.528 2949.26,716.528 C2941.44,716.528 2933.07,723.423 2924.16,737.213 C2921.45,741.397 2915.48,755.032 2906.26,778.12 C2913.62,785.712 2917.3,790.012 2917.3,791.019 C2917.3,792.414 2916.41,793.111 2914.63,793.111 C2913.24,793.111 2909.4,790.748 2903.13,786.022 C2896.31,801.904 2885.97,815.462 2872.1,826.696 C2857.92,838.162 2840.99,843.895 2821.31,843.895 C2813.8,843.895 2804.39,842.152 2793.08,838.666 C2784.01,835.876 2779.48,831.422 2779.48,825.301 C2779.48,816.237 2782.97,811.705 2789.94,811.705 C2794.12,811.705 2796.21,813.641 2796.21,817.515 C2796.21,818.755 2795.24,820.072 2793.31,821.466 C2792.3,822.164 2791.8,823.519 2791.8,825.534 C2791.8,827.935 2794.47,830.415 2799.82,832.971 C2805.63,835.76 2814.15,837.155 2825.38,837.155 C2839.87,837.155 2853.85,830.879 2867.33,818.329 C2879.58,806.94 2888.37,793.692 2893.71,778.584 C2891.62,776.88 2889.38,775.021 2886.97,773.006 C2879.54,768.59 2875.82,764.058 2875.82,759.41 C2875.82,757.473 2877.1,756.504 2879.65,756.504 C2883.06,756.504 2887.67,759.41 2893.48,765.22 C2894.72,766.46 2895.88,767.622 2896.97,768.707 C2899.68,761.269 2904.02,751.817 2909.98,740.351 C2920.75,719.588 2933.85,709.207 2949.26,709.207 C2954.76,709.207 2959.1,710.252 2962.28,712.344 C2965.45,714.436 2967.04,717.303 2967.04,720.944 C2967.04,726.754 2964.91,731.674 2960.65,735.703 C2956.24,739.886 2951.63,741.978 2946.82,741.978 C2942.64,741.978 2940.55,741.242 2940.55,739.77"/>
<path class="Note" d="M2940.55,650.479 C2944.89,647.535 2948.02,645.094 2949.96,643.157 C2953.52,639.361 2955.31,635.875 2955.31,632.698 C2955.31,629.057 2953.29,627.236 2949.26,627.236 C2941.44,627.236 2933.07,634.132 2924.16,647.922 C2921.45,652.106 2915.48,665.741 2906.26,688.828 C2913.62,696.421 2917.3,700.721 2917.3,701.728 C2917.3,703.122 2916.41,703.819 2914.63,703.819 C2913.24,703.819 2909.4,701.457 2903.13,696.731 C2896.31,712.613 2885.97,726.171 2872.1,737.404 C2857.92,748.871 2840.99,754.604 2821.31,754.604 C2813.8,754.604 2804.39,752.86 2793.08,749.374 C2784.01,746.585 2779.48,742.13 2779.48,736.01 C2779.48,726.945 2782.97,722.413 2789.94,722.413 C2794.12,722.413 2796.21,724.35 2796.21,728.224 C2796.21,729.463 2795.24,730.78 2793.31,732.175 C2792.3,732.872 2791.8,734.228 2791.8,736.242 C2791.8,738.644 2794.47,741.123 2799.82,743.68 C2805.63,746.469 2814.15,747.863 2825.38,747.863 C2839.87,747.863 2853.85,741.588 2867.33,729.037 C2879.58,717.649 2888.37,704.401 2893.71,689.293 C2891.62,687.589 2889.38,685.729 2886.97,683.715 C2879.54,679.299 2875.82,674.767 2875.82,670.118 C2875.82,668.181 2877.1,667.213 2879.65,667.213 C2883.06,667.213 2887.67,670.118 2893.48,675.929 C2894.72,677.168 2895.88,678.331 2896.97,679.415 C2899.68,671.978 2904.02,662.526 2909.98,651.06 C2920.75,630.297 2933.85,619.915 2949.26,619.915 C2954.76,619.915 2959.1,620.961 2962.28,623.053 C2965.45,625.145 2967.04,628.011 2967.04,631.652 C2967.04,637.463 2964.91,642.383 2960.65,646.411 C2956.24,650.595 2951.63,652.687 2946.82,652.687 C2942.64,652.687 2940.55,651.951 2940.55,650.479"/>
<path class="Note" d="M3703.98,945.081 C3704.29,933.383 3710.76,923.001 3723.39,913.937 C3734.62,905.879 3746.9,901.851 3760.23,901.851 C3778.9,901.851 3795.36,909.172 3809.62,923.815 C3818.68,933.189 3823.22,944.81 3823.22,958.678 C3823.22,971.151 3819.88,980.719 3813.22,987.382 C3805.09,995.594 3796.49,999.7 3787.42,999.7 C3781.22,999.7 3776.42,998.306 3773.01,995.517 C3767.43,990.946 3764.65,984.825 3764.65,977.155 C3764.65,967.239 3769.6,958.174 3779.52,949.962 C3787.66,943.222 3795.83,938.806 3804.04,936.714 C3801.87,932.995 3799.12,929.509 3795.79,926.255 C3785.41,916.106 3773.63,911.031 3760.46,911.031 C3746.75,911.031 3735.4,914.014 3726.41,919.98 C3717.11,926.1 3709.64,934.467 3703.98,945.081 M3806.95,942.873 C3802.68,946.824 3798.42,951.047 3794.16,955.54 C3785.8,964.372 3781.61,972.739 3781.61,980.642 C3781.61,989.086 3783.55,993.309 3787.42,993.309 C3790.91,993.309 3795.79,988.544 3802.07,979.015 C3807.1,971.422 3809.62,964.45 3809.62,958.097 C3809.62,952.674 3808.73,947.599 3806.95,942.873"/>
<path class="Note" d="M3703.98,587.916 C3704.29,576.217 3710.76,565.836 3723.39,556.771 C3734.62,548.714 3746.9,544.685 3760.23,544.685 C3778.9,544.685 3795.36,552.007 3809.62,566.649 C3818.68,576.024 3823.22,587.645 3823.22,601.513 C3823.22,613.986 3819.88,623.554 3813.22,630.217 C3805.09,638.429 3796.49,642.535 3787.42,642.535 C3781.22,642.535 3776.42,641.14 3773.01,638.351 C3767.43,633.78 3764.65,627.66 3764.65,619.99 C3764.65,610.073 3769.6,601.009 3779.52,592.797 C3787.66,586.056 3795.83,581.64 3804.04,579.549 C3801.87,575.83 3799.12,572.344 3795.79,569.09 C3785.41,558.941 3773.63,553.866 3760.46,553.866 C3746.75,553.866 3735.4,556.849 3726.41,562.814 C3717.11,568.935 3709.64,577.302 3703.98,587.916 M3806.95,585.708 C3802.68,589.659 3798.42,593.881 3794.16,598.375 C3785.8,607.207 3781.61,615.574 3781.61,623.476 C3781.61,631.921 3783.55,636.143 3787.42,636.143 C3790.91,636.143 3795.79,631.379 3802.07,621.849 C3807.1,614.257 3809.62,607.284 3809.62,600.931 C3809.62,595.508 3808.73,590.434 3806.95,585.708"/>
<path class="Note" d="M3703.98,498.624 C3704.29,486.926 3710.76,476.544 3723.39,467.48 C3734.62,459.423 3746.9,455.394 3760.23,455.394 C3778.9,455.394 3795.36,462.715 3809.62,477.358 C3818.68,486.732 3823.22,498.353 3823.22,512.221 C3823.22,524.694 3819.88,534.263 3813.22,540.925 C3805.09,549.138 3796.49,553.244 3787.42,553.244 C3781.22,553.244 3776.42,551.849 3773.01,549.06 C3767.43,544.489 3764.65,538.369 3764.65,530.699 C3764.65,520.782 3769.6,511.718 3779.52,503.505 C3787.66,496.765 3795.83,492.349 3804.04,490.257 C3801.87,486.539 3799.12,483.052 3795.79,479.798 C3785.41,469.649 3773.63,464.575 3760.46,464.575 C3746.75,464.575 3735.4,467.557 3726.41,473.523 C3717.11,479.643 3709.64,488.011 3703.98,498.624 M3806.95,496.416 C3802.68,500.368 3798.42,504.59 3794.16,509.083 C3785.8,517.916 3781.61,526.283 3781.61,534.185 C3781.61,542.63 3783.55,546.852 3787.42,546.852 C3790.91,546.852 3795.79,542.087 3802.07,532.558 C3807.1,524.966 3809.62,517.993 3809.62,511.64 C3809.62,506.217 3808.73,501.142 3806.95,496.416"/>
<path class="Note" d="M3829.95,650.479 C3834.29,647.535 3837.42,645.094 3839.36,643.157 C3842.92,639.361 3844.71,635.875 3844.71,632.698 C3844.71,629.057 3842.69,627.236 3838.66,627.236 C3830.84,627.236 3822.47,634.132 3813.56,647.922 C3810.85,652.106 3804.88,665.741 3795.66,688.828 C3803.02,696.421 3806.7,700.721 3806.7,701.728 C3806.7,703.122 3805.81,703.819 3804.03,703.819 C3802.64,703.819 3798.8,701.457 3792.53,696.731 C3785.71,712.613 3775.37,726.171 3761.5,737.404 C3747.32,748.871 3730.39,754.604 3710.71,754.604 C3703.2,754.604 3693.79,752.86 3682.48,749.374 C3673.41,746.585 3668.88,742.13 3668.88,736.01 C3668.88,726.945 3672.36,722.413 3679.34,722.413 C3683.52,722.413 3685.61,724.35 3685.61,728.224 C3685.61,729.463 3684.64,730.78 3682.71,732.175 C3681.7,732.872 3681.2,734.228 3681.2,736.242 C3681.2,738.644 3683.87,741.123 3689.22,743.68 C3695.03,746.469 3703.55,747.863 3714.78,747.863 C3729.27,747.863 3743.25,741.588 3756.73,729.037 C3768.97,717.649 3777.77,704.401 3783.11,689.293 C3781.02,687.589 3778.78,685.729 3776.37,683.715 C3768.94,679.299 3765.22,674.767 3765.22,670.118 C3765.22,668.181 3766.5,667.213 3769.05,667.213 C3772.46,667.213 3777.07,670.118 3782.88,675.929 C3784.12,677.168 3785.28,678.331 3786.37,679.415 C3789.08,671.978 3793.42,662.526 3799.38,651.06 C3810.15,630.297 3823.25,619.915 3838.66,619.915 C3844.16,619.915 3848.5,620.961 3851.68,623.053 C3854.85,625.145 3856.44,628.011 3856.44,631.652 C3856.44,637.463 3854.31,642.383 3850.05,646.411 C3845.64,650.595 3841.03,652.687 3836.22,652.687 C3832.04,652.687 3829.95,651.951 3829.95,650.479"/>
<path class="Note" d="M3385.25,918.353 C3389.59,915.409 3392.72,912.968 3394.66,911.031 C3398.22,907.235 3400.01,903.749 3400.01,900.572 C3400.01,896.931 3397.99,895.11 3393.96,895.11 C3386.14,895.11 3377.77,902.006 3368.86,915.796 C3366.15,919.98 3360.18,933.615 3350.96,956.702 C3358.32,964.295 3362,968.595 3362,969.602 C3362,970.996 3361.11,971.693 3359.33,971.693 C3357.94,971.693 3354.1,969.331 3347.83,964.605 C3341.01,980.487 3330.67,994.045 3316.8,1005.28 C3302.62,1016.74 3285.69,1022.48 3266.01,1022.48 C3258.5,1022.48 3249.09,1020.73 3237.78,1017.25 C3228.71,1014.46 3224.18,1010 3224.18,1003.88 C3224.18,994.819 3227.66,990.287 3234.64,990.287 C3238.82,990.287 3240.91,992.224 3240.91,996.098 C3240.91,997.337 3239.94,998.654 3238.01,1000.05 C3237,1000.75 3236.5,1002.1 3236.5,1004.12 C3236.5,1006.52 3239.17,1009 3244.52,1011.55 C3250.33,1014.34 3258.85,1015.74 3270.08,1015.74 C3284.57,1015.74 3298.55,1009.46 3312.03,996.911 C3324.27,985.523 3333.07,972.275 3338.41,957.167 C3336.32,955.463 3334.08,953.603 3331.67,951.589 C3324.24,947.173 3320.52,942.641 3320.52,937.992 C3320.52,936.055 3321.8,935.087 3324.35,935.087 C3327.76,935.087 3332.37,937.992 3338.18,943.803 C3339.42,945.042 3340.58,946.205 3341.67,947.289 C3344.38,939.852 3348.72,930.4 3354.68,918.934 C3365.45,898.171 3378.55,887.789 3393.96,887.789 C3399.46,887.789 3403.8,888.835 3406.98,890.927 C3410.15,893.019 3411.74,895.885 3411.74,899.526 C3411.74,905.337 3409.61,910.257 3405.35,914.285 C3400.94,918.469 3396.33,920.561 3391.52,920.561 C3387.34,920.561 3385.25,919.825 3385.25,918.353"/>
<path class="Note" d="M3385.25,829.061 C3389.59,826.117 3392.72,823.677 3394.66,821.74 C3398.22,817.944 3400.01,814.457 3400.01,811.281 C3400.01,807.64 3397.99,805.819 3393.96,805.819 C3386.14,805.819 3377.77,812.714 3368.86,826.505 C3366.15,830.688 3360.18,844.324 3350.96,867.411 C3358.32,875.003 3362,879.303 3362,880.31 C3362,881.705 3361.11,882.402 3359.33,882.402 C3357.94,882.402 3354.1,880.039 3347.83,875.313 C3341.01,891.195 3330.67,904.753 3316.8,915.987 C3302.62,927.453 3285.69,933.186 3266.01,933.186 C3258.5,933.186 3249.09,931.443 3237.78,927.957 C3228.71,925.168 3224.18,920.713 3224.18,914.593 C3224.18,905.528 3227.66,900.996 3234.64,900.996 C3238.82,900.996 3240.91,902.933 3240.91,906.806 C3240.91,908.046 3239.94,909.363 3238.01,910.758 C3237,911.455 3236.5,912.811 3236.5,914.825 C3236.5,917.227 3239.17,919.706 3244.52,922.263 C3250.33,925.052 3258.85,926.446 3270.08,926.446 C3284.57,926.446 3298.55,920.171 3312.03,907.62 C3324.27,896.231 3333.07,882.983 3338.41,867.876 C3336.32,866.171 3334.08,864.312 3331.67,862.298 C3324.24,857.882 3320.52,853.349 3320.52,848.701 C3320.52,846.764 3321.8,845.796 3324.35,845.796 C3327.76,845.796 3332.37,848.701 3338.18,854.512 C3339.42,855.751 3340.58,856.913 3341.67,857.998 C3344.38,850.56 3348.72,841.109 3354.68,829.642 C3365.45,808.879 3378.55,798.498 3393.96,798.498 C3399.46,798.498 3403.8,799.544 3406.98,801.636 C3410.15,803.727 3411.74,806.594 3411.74,810.235 C3411.74,816.046 3409.61,820.965 3405.35,824.994 C3400.94,829.178 3396.33,831.269 3391.52,831.269 C3387.34,831.269 3385.25,830.533 3385.25,829.061"/>
<path class="Note" d="M3312.62,642.535 C3308.43,642.535 3306.34,640.637 3306.34,636.841 C3306.34,630.41 3307.31,625.684 3309.24,622.663 C3317.3,610.732 3334.81,588.419 3361.77,555.725 C3373.94,540.928 3389.62,533.529 3408.84,533.529 C3416.28,533.529 3421.43,534.575 3424.29,536.667 C3428.71,539.921 3430.92,543.833 3430.92,548.404 C3430.92,553.207 3427.04,558.553 3419.3,564.441 C3411.94,570.019 3404.96,572.808 3398.38,572.808 C3395.82,572.808 3394.54,572.537 3394.54,571.995 C3394.54,571.22 3395.78,570.407 3398.26,569.555 C3401.59,568.315 3405.16,565.797 3408.95,562.001 C3413.29,557.585 3415.46,553.595 3415.46,550.031 C3415.46,547.629 3413.8,545.344 3410.46,543.175 C3407.52,541.315 3402.76,540.386 3396.17,540.386 C3386.56,540.386 3374.44,550.07 3359.8,569.438 C3350.03,582.376 3342.13,593.765 3336.09,603.604 C3339.03,601.977 3342.56,600.002 3346.66,597.678 C3351.7,594.811 3356.04,593.378 3359.68,593.378 C3368.74,593.378 3373.28,596.632 3373.28,603.139 C3373.28,609.57 3369.56,616.62 3362.12,624.29 C3356.85,629.713 3354.22,633.742 3354.22,636.376 C3354.22,639.087 3356.85,640.443 3362.12,640.443 C3364.76,640.443 3367.47,639.513 3370.26,637.654 C3373.04,635.872 3375.1,634.981 3376.41,634.981 C3377.5,634.981 3378.04,635.679 3378.04,637.073 C3378.04,639.32 3375.87,641.683 3371.53,644.162 C3364.25,648.346 3358.4,650.437 3353.99,650.437 C3346.16,650.437 3342.25,646.254 3342.25,637.887 C3342.25,632.618 3345.27,626.769 3351.31,620.339 C3355.73,615.613 3357.94,610.926 3357.94,606.277 C3357.94,602.249 3355.77,600.234 3351.43,600.234 C3349.73,600.234 3344.07,602.249 3334.46,606.277 C3331.6,611.081 3329.19,615.497 3327.26,619.525 C3319.9,634.865 3315.02,642.535 3312.62,642.535"/>
<path class="Note" d="M3384.43,674.069 C3384.43,682.979 3374.28,702.541 3353.99,732.756 C3345.93,744.764 3334.35,753.558 3319.24,759.136 C3308.08,763.319 3295.18,765.411 3280.54,765.411 C3275.81,765.411 3271.63,764.443 3267.99,762.506 C3263.96,760.414 3261.95,758.129 3261.95,755.65 C3261.95,749.219 3265.39,746.004 3272.29,746.004 C3273.3,746.004 3273.8,746.624 3273.8,747.863 C3273.8,748.948 3273.3,750.149 3272.29,751.466 C3271.05,753.093 3270.43,754.294 3270.43,755.068 C3270.43,757.393 3273.92,758.555 3280.89,758.555 C3296.54,758.555 3308.9,756.657 3317.96,752.86 C3327.41,748.987 3336.83,739.109 3346.2,723.227 L3348.87,718.23 C3344.38,721.638 3339.92,723.343 3335.51,723.343 C3324.51,723.343 3319.01,718.888 3319.01,709.979 C3319.01,700.372 3325.48,690.262 3338.41,679.648 C3348.56,671.435 3357.59,667.329 3365.49,667.329 C3369.44,667.329 3372.73,668.375 3375.37,670.467 C3376.3,669.77 3377.46,669.421 3378.86,669.421 C3382.57,669.421 3384.43,670.971 3384.43,674.069 M3350.27,715.789 L3372.23,675.232 C3370.53,674.844 3368.63,674.651 3366.54,674.651 C3359.02,674.651 3351.74,679.028 3344.69,687.782 C3336.48,698.009 3332.37,706.182 3332.37,712.303 C3332.37,716.332 3335.04,718.346 3340.39,718.346 C3342.95,718.346 3346.24,717.494 3350.27,715.789"/>
<path class="Clef" transform="matrix(2.3811,0,0,2.3811,212.156,2076.38)" d="M25.4,-25.1 C17.8,-25.1 11.7,-20.7 11.6,-20.7 C5.8,-16.4 3.5,-11.3 2.6,-7.8 C2.1,-6 1.9,-4.2 1.9,-2.5 C1.9,-0.1 2.3,2.1 3.2,4 C4.4,6.7 6.7,8.6 9.7,9.6 C10.9,10 12.2,10.2 13.5,10.2 C15.7,10.2 18,9.6 19.9,8.5 C23,6.8 24.9,3.2 24.9,-0.7 C24.9,-4.2 23.1,-7.4 20.1,-9.3 C18,-10.7 16,-11.1 14.3,-11.1 C13.1,-11.1 12,-10.9 11.1,-10.6 C10.1,-10.2 8.4,-9.2 7.6,-8.5 C7.9,-10.4 9.1,-13.3 10.2,-14.9 C11.3,-16.5 13.5,-18.5 15.2,-19.4 C17.7,-20.8 20.9,-21.4 24.4,-21.4 C34.6,-21.4 39.6,-13.2 39.6,3.6 C39.6,12.9 36.1,21.8 33.1,27.7 C29.8,34.3 25.4,40.6 21.5,44.1 C11.1,53.6 1.3,58.1 1.2,58.1 C1.2,58.1 -0.3,59 0.1,60.5 C0.4,61.5 1.3,61.7 1.9,61.7 C2,61.7 2.3,61.6 2.4,61.6 C2.5,61.6 13.9,56.9 23,49.8 C28.1,46.1 32.7,42.1 36.7,37.8 C40.3,33.9 43.4,29.7 45.9,25.5 C50.3,18 52.8,10.2 52.8,3.5 C52.8,-4.8 50.6,-11.7 46.5,-16.6 C41.8,-22.2 34.7,-25.1 25.4,-25.1 M56.8,-12.4 C56.8,-9.6 59,-7.4 61.6,-7.4 C64.2,-7.4 66.4,-9.6 66.4,-12.4 C66.4,-15.2 64.2,-17.5 61.6,-17.5 C59,-17.5 56.8,-15.2 56.8,-12.4 M56.8,12.3 C56.8,15.1 59,17.4 61.6,17.4 C64.2,17.4 66.4,15.1 66.4,12.3 C66.4,9.5 64.2,7.2 61.6,7.2 C59,7.2 56.8,9.5 56.8,12.3"/>
<path class="Clef" transform="matrix(2.3811,0,0,2.3811,212.156,1570.39)" d="M63.37,-5.89004 C62.14,-11.32 59.5,-15.14 58.72,-16.1801 C55.5301,-20.45 51.52,-23.3 46.8301,-24.65 C43.72,-25.54 40.72,-25.65 38.3,-25.47 C37.2601,-31.4801 36.2601,-37.3601 35.35,-42.8101 C40.79,-48.97 44.42,-54.77 46.69,-59.07 C50.1601,-65.65 51.3101,-70.2301 51.3601,-70.4301 C53.0801,-75.64 53.44,-83.34 52.34,-91.55 C51.3301,-99.1 49.24,-105.81 46.89,-109.06 C45.8601,-110.49 44.8101,-111.22 43.77,-111.22 C42.55,-111.22 40.04,-109.98 37.15,-107.21 C34.85,-105.01 31.5801,-101.12 29.02,-95.1101 C26.02,-88.05 25.8101,-78.5601 26.1601,-71.84 C26.54,-64.57 27.65,-58.8801 27.6601,-58.8301 C27.6801,-58.74 27.94,-57.24 28.39,-54.67 C28.1601,-54.44 27.92,-54.22 27.67,-53.9801 C26.6301,-52.9801 25.44,-51.84 24.0601,-50.4601 C23.2,-49.6 22.25,-48.69 21.25,-47.72 C12.79,-39.57 0,-27.25 0,-8.1 C0,-3.4 0.9,1.01992 2.68008,5.02998 C4.27002,8.62998 6.57002,11.91 9.5,14.78 C17.2301,22.33 27.82,25.5399 34.8801,25.38 C37.8301,25.31 40.4601,25.0699 42.85,24.6199 C44.6801,34.2199 45.82,41.25 45.8601,46.5899 C45.9,53.1 44.25,57.0699 40.35,59.8399 C37.92,61.5699 35.1101,62.5199 32.0101,62.6699 C29.42,62.7899 27.1601,62.3199 25.7301,61.91 L25.72,61.91 C25.72,61.91 25.4301,61.83 25.42,61.63 C25.4101,61.45 25.7601,61.4 25.77,61.4 L25.79,61.4 C27.7101,60.96 31.2801,59.73 33.64,56.43 C35.44,53.91 36.3101,49.2899 34.47,45.35 C33.3601,42.96 30.85,40.01 25.2301,39.56 C22.74,39.36 20.47,39.8699 18.47,41.0699 C16.6601,42.15 15.1601,43.7899 14.1101,45.7899 C11.65,50.4899 12.1101,56.2199 15.24,60.06 C18.2,63.68 22.82,65.9899 28.25,66.5699 C29.1,66.66 29.95,66.7 30.8,66.7 C31.5101,66.7 32.22,66.6699 32.92,66.61 C31.72,66.9399 30.64,67.4899 29.77,68.25 C28.2801,69.5399 27.44,71.38 27.44,73.41 C27.44,75.28 28.0601,76.65 29.55,78.0399 C28.4101,78.5 27.55,78.98 26.79,79.56 C25.25,80.73 24.34,82.46 24.34,84.1899 C24.34,87.45 27.3,89.63 31.72,89.63 C37.1301,89.63 40.9101,86.63 40.9101,82.35 C40.9101,80.1199 39.9101,78.18 38.0801,76.83 C41.0101,75.6199 42.37,73.9399 42.37,71.56 C42.39,70.05 41.69,68.61 40.49,67.6899 C39.2801,66.7399 37.62,66.2399 35.69,66.2399 L35.5101,66.2399 C38.2801,65.7 40.92,64.7 43.2101,63.28 C46.87,60.71 48.99,56.73 49.67,51.1 C50.2301,46.46 49.84,40.55 48.44,32.48 C48.0801,30.3899 47.54,27.36 46.8801,23.6 C52.6301,21.68 56.79,18.11 60.5601,12.26 C63.85,6.51992 64.8,0.419922 63.37,-5.89004 M32.39,87.5399 C30.19,87.5399 28.7301,86.1199 28.7301,84.01 C28.7301,82.11 29.65,80.5 31.32,79.4699 C31.6801,79.66 31.77,79.71 32.1101,79.88 C33.3,80.48 33.3,80.48 33.55,80.63 L33.5601,80.6399 C35.47,81.73 36.25,82.76 36.25,84.18 C36.24,86.0899 34.59,87.5399 32.39,87.5399 M38.3101,71.63 C38.3101,73.2699 37.7301,74.3399 36.1801,75.53 C34.74,74.78 34.35,74.56 33.9801,74.3399 L33.8801,74.28 C32.3301,73.3399 31.85,72.66 31.85,71.4 C31.85,69.6 33.2301,68.3399 35.19,68.3399 C37.17,68.35 38.3101,69.55 38.3101,71.63 M33.15,-83.8101 C34.9301,-89.55 37.67,-92.8 39.6601,-94.5301 C41.4101,-96.05 43.0601,-96.7601 43.9801,-96.7601 C44.12,-96.7601 44.24,-96.74 44.34,-96.7101 C44.8,-96.57 45.3301,-96 45.8,-95.1301 C48.1101,-90.84 47.37,-84.1301 46.0301,-79.69 C44.4,-74.29 41.4801,-68.6801 32.69,-59.0601 C32.52,-60.17 32.3601,-61.22 32.2101,-62.2 C30.95,-70.49 31.27,-77.7601 33.15,-83.8101 M29.15,20.31 C24.5101,19.0899 20.0801,16.5899 16.32,13.0899 C15.0101,11.86 13.14,9.68994 11.67,6.3 C10.3101,3.13994 9.65,-0.290039 9.7,-3.88008 C9.77002,-8.57002 11.0801,-13.39 13.59,-18.1801 C16.5101,-23.7601 21.07,-29.29 27.1301,-34.62 C28.5801,-35.9 29.95,-37.1801 31.24,-38.4601 C32,-34.2 32.8301,-29.5101 33.7101,-24.6301 C29.8601,-23.3601 25.1101,-20.2101 22,-14.5601 C18.47,-7.99004 18.6101,-2.47002 19.34,1.00996 C20.2801,5.46992 22.8101,9.22998 26.27,11.3199 C27.2,11.88 31.3301,14.01 33.17,13.43 C33.54,13.31 33.8101,13.0899 33.95,12.76 C34.4601,11.5899 33.44,10.95 31.8801,9.98994 C31.2801,9.61992 30.6101,9.2 29.8801,8.66992 C26.5601,6.17998 25.1101,1.72998 26.1801,-2.65 C26.7601,-5.05 28.04,-7.21006 29.8801,-8.91006 C31.55,-10.4601 33.59,-11.5601 35.97,-12.2 C38.0101,-0.960059 40.07,10.1899 41.7101,18.55 C41.84,19.2399 41.9801,19.91 42.1101,20.58 C37.7101,21.51 33.37,21.4199 29.15,20.31 M54.9,10.1 C53.7301,13.28 51.27,17.35 46.14,19.41 C46.07,18.9899 45.99,18.56 45.9101,18.13 C44.3601,9.36992 42.4301,-1.61006 40.47,-12.87 C50.82,-13.35 55.09,-5.91006 55.9801,-1.08008 C56.45,1.45 56.45,5.88994 54.9,10.1"/>
<path class="FiguredBass" d="M993.323,2390.15 C988.746,2390.15 985.7,2391.99 984.184,2395.67 C982.669,2399.35 981.911,2404.56 981.911,2411.3 L981.911,2422.25 C985.128,2420.95 987.911,2420.27 990.261,2420.21 C998.301,2420.21 1004.63,2421.98 1009.23,2425.54 C1013.84,2429.1 1016.14,2434.38 1016.14,2441.4 C1016.14,2448.42 1013.81,2453.73 1009.14,2457.31 C1004.47,2460.9 998.178,2462.7 990.261,2462.7 C982.159,2462.7 975.819,2458.94 971.242,2451.42 C966.666,2443.91 964.377,2434.99 964.377,2424.66 C964.377,2414.39 967.037,2405.49 972.356,2397.94 C977.675,2390.39 984.664,2386.62 993.323,2386.62 C999.013,2386.62 1003.93,2388.06 1008.07,2390.94 C1012.22,2393.81 1014.29,2397.6 1014.29,2402.3 C1014.29,2405.02 1013.3,2407.37 1011.32,2409.35 C1009.34,2411.33 1006.98,2412.32 1004.22,2412.32 C1001.47,2412.32 999.105,2411.33 997.126,2409.35 C995.147,2407.37 994.157,2405.02 994.157,2402.3 C994.157,2399.64 995.147,2397.29 997.126,2395.25 C997.807,2394.45 998.765,2393.76 1000,2393.21 C999.693,2392.4 999.074,2391.79 998.147,2391.35 C996.786,2390.55 995.178,2390.15 993.323,2390.15 M997.868,2428.09 C996.755,2425.18 994.312,2423.73 990.539,2423.73 C986.767,2423.73 984.432,2425.18 983.535,2428.09 C982.638,2431 982.19,2435.42 982.19,2441.36 C982.19,2448.35 982.638,2453.05 983.535,2455.46 C984.432,2457.87 986.767,2459.08 990.539,2459.08 C994.312,2459.08 996.755,2457.62 997.868,2454.72 C998.982,2451.81 999.538,2447.37 999.538,2441.4 C999.538,2435.44 998.982,2431 997.868,2428.09"/>
<path class="FiguredBass" d="M1422.65,2444.42 C1421.97,2445.16 1421.07,2445.53 1419.96,2445.53 C1418.85,2445.53 1417.94,2445.15 1417.22,2444.37 C1416.51,2443.6 1416.16,2442.72 1416.16,2441.73 L1416.16,2428.46 L1402.89,2428.46 C1401.78,2428.46 1400.87,2428.08 1400.15,2427.3 C1399.44,2426.53 1399.09,2425.65 1399.09,2424.66 C1399.09,2423.67 1399.44,2422.79 1400.15,2422.01 C1400.87,2421.24 1401.78,2420.85 1402.89,2420.85 L1416.16,2420.85 L1416.16,2407.59 C1416.16,2406.6 1416.51,2405.72 1417.22,2404.94 C1417.94,2404.17 1418.85,2403.78 1419.96,2403.78 C1421.07,2403.78 1421.99,2404.17 1422.7,2404.94 C1423.41,2405.72 1423.76,2406.6 1423.76,2407.59 L1423.76,2420.85 L1437.03,2420.85 C1438.14,2420.85 1439.06,2421.24 1439.77,2422.01 C1440.48,2422.79 1440.84,2423.67 1440.84,2424.66 C1440.84,2425.65 1440.48,2426.53 1439.77,2427.3 C1439.06,2428.08 1438.14,2428.46 1437.03,2428.46 L1423.76,2428.46 L1423.76,2441.73 C1423.76,2442.72 1423.39,2443.62 1422.65,2444.42 M1476.08,2390.15 C1471.5,2390.15 1468.45,2391.99 1466.94,2395.67 C1465.42,2399.35 1464.66,2404.56 1464.66,2411.3 L1464.66,2422.25 C1467.88,2420.95 1470.66,2420.27 1473.01,2420.21 C1481.05,2420.21 1487.38,2421.98 1491.99,2425.54 C1496.59,2429.1 1498.9,2434.38 1498.9,2441.4 C1498.9,2448.42 1496.56,2453.73 1491.89,2457.31 C1487.22,2460.9 1480.93,2462.7 1473.01,2462.7 C1464.91,2462.7 1458.57,2458.94 1454,2451.42 C1449.42,2443.91 1447.13,2434.99 1447.13,2424.66 C1447.13,2414.39 1449.79,2405.49 1455.11,2397.94 C1460.43,2390.39 1467.42,2386.62 1476.08,2386.62 C1481.77,2386.62 1486.68,2388.06 1490.83,2390.94 C1494.97,2393.81 1497.04,2397.6 1497.04,2402.3 C1497.04,2405.02 1496.05,2407.37 1494.07,2409.35 C1492.09,2411.33 1489.73,2412.32 1486.98,2412.32 C1484.22,2412.32 1481.86,2411.33 1479.88,2409.35 C1477.9,2407.37 1476.91,2405.02 1476.91,2402.3 C1476.91,2399.64 1477.9,2397.29 1479.88,2395.25 C1480.56,2394.45 1481.52,2393.76 1482.76,2393.21 C1482.45,2392.4 1481.83,2391.79 1480.9,2391.35 C1479.54,2390.55 1477.93,2390.15 1476.08,2390.15 M1480.62,2428.09 C1479.51,2425.18 1477.06,2423.73 1473.29,2423.73 C1469.52,2423.73 1467.18,2425.18 1466.29,2428.09 C1465.39,2431 1464.94,2435.42 1464.94,2441.36 C1464.94,2448.35 1465.39,2453.05 1466.29,2455.46 C1467.18,2457.87 1469.52,2459.08 1473.29,2459.08 C1477.06,2459.08 1479.51,2457.62 1480.62,2454.72 C1481.73,2451.81 1482.29,2447.37 1482.29,2441.4 C1482.29,2435.44 1481.73,2431 1480.62,2428.09"/>
<path class="FiguredBass" d="M2393.8,2444.42 C2393.12,2445.16 2392.23,2445.53 2391.11,2445.53 C2390,2445.53 2389.09,2445.15 2388.38,2444.37 C2387.67,2443.6 2387.31,2442.72 2387.31,2441.73 L2387.31,2428.46 L2374.04,2428.46 C2372.93,2428.46 2372.02,2428.08 2371.31,2427.3 C2370.6,2426.53 2370.24,2425.65 2370.24,2424.66 C2370.24,2423.67 2370.6,2422.79 2371.31,2422.01 C2372.02,2421.24 2372.93,2420.85 2374.04,2420.85 L2387.31,2420.85 L2387.31,2407.59 C2387.31,2406.6 2387.67,2405.72 2388.38,2404.94 C2389.09,2404.17 2390,2403.78 2391.11,2403.78 C2392.23,2403.78 2393.14,2404.17 2393.85,2404.94 C2394.56,2405.72 2394.92,2406.6 2394.92,2407.59 L2394.92,2420.85 L2408.18,2420.85 C2409.3,2420.85 2410.21,2421.24 2410.92,2422.01 C2411.63,2422.79 2411.99,2423.67 2411.99,2424.66 C2411.99,2425.65 2411.63,2426.53 2410.92,2427.3 C2410.21,2428.08 2409.3,2428.46 2408.18,2428.46 L2394.92,2428.46 L2394.92,2441.73 C2394.92,2442.72 2394.55,2443.62 2393.8,2444.42 M2446.58,2388.57 C2448.93,2388.57 2451.4,2388.23 2454,2387.55 L2458.18,2386.44 C2458.98,2386.44 2459.61,2386.74 2460.08,2387.36 C2460.54,2387.98 2460.5,2388.54 2459.94,2389.03 L2416.8,2439.22 L2442.13,2439.22 L2442.13,2419.37 C2442.13,2417.95 2442.51,2416.85 2443.29,2416.08 C2444.06,2415.3 2445.05,2414.69 2446.25,2414.22 C2447.46,2413.76 2449.04,2412.38 2450.99,2410.09 C2452.93,2407.8 2454.81,2404.71 2456.6,2400.82 C2456.91,2400.2 2457.37,2399.89 2457.99,2399.89 C2459.29,2399.89 2459.94,2400.6 2459.94,2402.02 L2459.94,2439.22 L2470.89,2439.22 C2472.43,2439.22 2473.21,2439.94 2473.21,2441.36 C2473.21,2442.9 2472.43,2443.68 2470.89,2443.68 L2459.94,2443.68 L2459.94,2444.88 C2459.94,2448.72 2460.96,2452.06 2463,2454.9 C2465.04,2457.75 2467.67,2459.17 2470.89,2459.17 C2472.12,2459.17 2472.74,2459.73 2472.74,2460.84 C2472.74,2462.08 2472.12,2462.7 2470.89,2462.7 C2468.66,2462.7 2465.35,2462.37 2460.96,2461.72 C2456.57,2461.07 2453.24,2460.75 2450.99,2460.75 C2448.73,2460.75 2445.4,2461.07 2441.01,2461.72 C2436.62,2462.37 2433.31,2462.7 2431.09,2462.7 C2429.85,2462.7 2429.23,2462.08 2429.23,2460.84 C2429.23,2459.73 2429.85,2459.17 2431.09,2459.17 C2434.3,2459.17 2436.95,2457.75 2439.02,2454.9 C2441.09,2452.06 2442.13,2448.72 2442.13,2444.88 L2442.13,2443.68 L2416.8,2443.68 C2415.19,2443.68 2414,2443.29 2413.23,2442.52 C2412.45,2441.74 2412.07,2440.96 2412.07,2440.15 C2412.07,2439.84 2412.79,2438.78 2414.25,2436.95 C2415.7,2435.13 2417.48,2432.7 2419.58,2429.67 C2421.69,2426.64 2423.77,2423.19 2425.84,2419.32 C2427.92,2415.46 2429.68,2410.82 2431.13,2405.41 C2432.59,2400 2433.31,2394.54 2433.31,2389.03 C2433.31,2387.43 2433.99,2386.62 2435.35,2386.62 C2435.54,2386.62 2436.19,2386.78 2437.3,2387.09 C2438.42,2387.39 2439.84,2387.72 2441.57,2388.06 C2443.3,2388.4 2444.97,2388.57 2446.58,2388.57"/>
<path class="FiguredBass" d="M2894.04,2390.15 C2889.46,2390.15 2886.42,2391.99 2884.9,2395.67 C2883.39,2399.35 2882.63,2404.56 2882.63,2411.3 L2882.63,2422.25 C2885.85,2420.95 2888.63,2420.27 2890.98,2420.21 C2899.02,2420.21 2905.34,2421.98 2909.95,2425.54 C2914.56,2429.1 2916.86,2434.38 2916.86,2441.4 C2916.86,2448.42 2914.53,2453.73 2909.86,2457.31 C2905.19,2460.9 2898.9,2462.7 2890.98,2462.7 C2882.88,2462.7 2876.54,2458.94 2871.96,2451.42 C2867.38,2443.91 2865.1,2434.99 2865.1,2424.66 C2865.1,2414.39 2867.76,2405.49 2873.07,2397.94 C2878.39,2390.39 2885.38,2386.62 2894.04,2386.62 C2899.73,2386.62 2904.65,2388.06 2908.79,2390.94 C2912.94,2393.81 2915.01,2397.6 2915.01,2402.3 C2915.01,2405.02 2914.02,2407.37 2912.04,2409.35 C2910.06,2411.33 2907.69,2412.32 2904.94,2412.32 C2902.19,2412.32 2899.82,2411.33 2897.85,2409.35 C2895.87,2407.37 2894.88,2405.02 2894.88,2402.3 C2894.88,2399.64 2895.87,2397.29 2897.85,2395.25 C2898.53,2394.45 2899.48,2393.76 2900.72,2393.21 C2900.41,2392.4 2899.79,2391.79 2898.87,2391.35 C2897.51,2390.55 2895.9,2390.15 2894.04,2390.15 M2898.59,2428.09 C2897.47,2425.18 2895.03,2423.73 2891.26,2423.73 C2887.49,2423.73 2885.15,2425.18 2884.25,2428.09 C2883.36,2431 2882.91,2435.42 2882.91,2441.36 C2882.91,2448.35 2883.36,2453.05 2884.25,2455.46 C2885.15,2457.87 2887.49,2459.08 2891.26,2459.08 C2895.03,2459.08 2897.47,2457.62 2898.59,2454.72 C2899.7,2451.81 2900.26,2447.37 2900.26,2441.4 C2900.26,2435.44 2899.7,2431 2898.59,2428.09"/>
<path class="FiguredBass" d="M3285.32,2444.42 C3284.64,2445.16 3283.74,2445.53 3282.63,2445.53 C3281.51,2445.53 3280.6,2445.15 3279.89,2444.37 C3279.18,2443.6 3278.82,2442.72 3278.82,2441.73 L3278.82,2428.46 L3265.56,2428.46 C3264.44,2428.46 3263.53,2428.08 3262.82,2427.3 C3262.11,2426.53 3261.75,2425.65 3261.75,2424.66 C3261.75,2423.67 3262.11,2422.79 3262.82,2422.01 C3263.53,2421.24 3264.44,2420.85 3265.56,2420.85 L3278.82,2420.85 L3278.82,2407.59 C3278.82,2406.6 3279.18,2405.72 3279.89,2404.94 C3280.6,2404.17 3281.51,2403.78 3282.63,2403.78 C3283.74,2403.78 3284.65,2404.17 3285.36,2404.94 C3286.08,2405.72 3286.43,2406.6 3286.43,2407.59 L3286.43,2420.85 L3299.7,2420.85 C3300.81,2420.85 3301.72,2421.24 3302.43,2422.01 C3303.15,2422.79 3303.5,2423.67 3303.5,2424.66 C3303.5,2425.65 3303.15,2426.53 3302.43,2427.3 C3301.72,2428.08 3300.81,2428.46 3299.7,2428.46 L3286.43,2428.46 L3286.43,2441.73 C3286.43,2442.72 3286.06,2443.62 3285.32,2444.42 M3338.74,2390.15 C3334.16,2390.15 3331.12,2391.99 3329.6,2395.67 C3328.09,2399.35 3327.33,2404.56 3327.33,2411.3 L3327.33,2422.25 C3330.55,2420.95 3333.33,2420.27 3335.68,2420.21 C3343.72,2420.21 3350.04,2421.98 3354.65,2425.54 C3359.26,2429.1 3361.56,2434.38 3361.56,2441.4 C3361.56,2448.42 3359.23,2453.73 3354.56,2457.31 C3349.89,2460.9 3343.6,2462.7 3335.68,2462.7 C3327.58,2462.7 3321.24,2458.94 3316.66,2451.42 C3312.08,2443.91 3309.8,2434.99 3309.8,2424.66 C3309.8,2414.39 3312.46,2405.49 3317.77,2397.94 C3323.09,2390.39 3330.08,2386.62 3338.74,2386.62 C3344.43,2386.62 3349.35,2388.06 3353.49,2390.94 C3357.64,2393.81 3359.71,2397.6 3359.71,2402.3 C3359.71,2405.02 3358.72,2407.37 3356.74,2409.35 C3354.76,2411.33 3352.39,2412.32 3349.64,2412.32 C3346.89,2412.32 3344.52,2411.33 3342.55,2409.35 C3340.57,2407.37 3339.58,2405.02 3339.58,2402.3 C3339.58,2399.64 3340.57,2397.29 3342.55,2395.25 C3343.23,2394.45 3344.18,2393.76 3345.42,2393.21 C3345.11,2392.4 3344.49,2391.79 3343.57,2391.35 C3342.21,2390.55 3340.6,2390.15 3338.74,2390.15 M3343.29,2428.09 C3342.17,2425.18 3339.73,2423.73 3335.96,2423.73 C3332.19,2423.73 3329.85,2425.18 3328.95,2428.09 C3328.06,2431 3327.61,2435.42 3327.61,2441.36 C3327.61,2448.35 3328.06,2453.05 3328.95,2455.46 C3329.85,2457.87 3332.19,2459.08 3335.96,2459.08 C3339.73,2459.08 3342.17,2457.62 3343.29,2454.72 C3344.4,2451.81 3344.96,2447.37 3344.96,2441.4 C3344.96,2435.44 3344.4,2431 3343.29,2428.09"/>
<path class="Bracket" transform="matrix(8.6315,0,0,8.6315,76.1283,2254.96)" d="M0.92002,-50 C2.69004,-51.88 6.2,-55.8 6.2,-63 C6.2,-72.1 2.25996,-81.32 2.25996,-86.97 C2.25996,-93.06 5.84004,-98.84 5.95,-99 C6.05996,-99.16 6.05,-99.39 5.94004,-99.46 C5.82998,-99.53 5.62002,-99.47 5.49004,-99.32 C5.35996,-99.17 0,-93.75 0,-85.6 C0,-76.75 3.5,-70.58 3.5,-59.07 C3.5,-56.89 2.55996,-53.36 0.1,-50.33 C-0.0799805,-50.17 -0.1,-49.89 0.0599609,-49.7 L0.0700195,-49.69 L0.1,-49.66 C2.55996,-46.63 3.5,-43.1 3.5,-40.92 C3.5,-29.4 0,-23.24 0,-14.39 C0,-6.25 5.35996,-0.8 5.49004,-0.659961 C5.62002,-0.52002 5.8,-0.42998 5.94004,-0.52002 C6.07998,-0.609961 6.07998,-0.77998 5.95,-0.97998 C5.82002,-1.17998 2.25996,-6.92002 2.25996,-13.01 C2.25996,-18.66 6.2,-27.9 6.2,-37 C6.2,-44.3 2.69004,-48.12 0.92002,-50"/>
</svg>
