<?xml version="1.0" encoding="UTF-8" standalone="no"?>
<svg width="4209.44px" height="2976.38px" viewBox="0 0 4209.44 2976.38"
 xmlns="http://www.w3.org/2000/svg" xmlns:xlink="http://www.w3.org/1999/xlink" version="1.2" baseProfile="tiny">
<title>DoMajeur (11)</title>
<desc>Generated by MuseScore 3.6.2</desc>
<polyline class="StaffLines" fill="none" stroke="#000000" stroke-width="6.55" stroke-linejoin="bevel" points="153.819,566.759 4138.58,566.759"/>
<polyline class="StaffLines" fill="none" stroke="#000000" stroke-width="6.55" stroke-linejoin="bevel" points="153.819,656.05 4138.58,656.05"/>
<polyline class="StaffLines" fill="none" stroke="#000000" stroke-width="6.55" stroke-linejoin="bevel" points="153.819,745.342 4138.58,745.342"/>
<polyline class="StaffLines" fill="none" stroke="#000000" stroke-width="6.55" stroke-linejoin="bevel" points="153.819,834.633 4138.58,834.633"/>
<polyline class="StaffLines" fill="none" stroke="#000000" stroke-width="6.55" stroke-linejoin="bevel" points="153.819,923.924 4138.58,923.924"/>
<polyline class="StaffLines" fill="none" stroke="#000000" stroke-width="6.55" stroke-linejoin="bevel" points="153.819,1013.22 4138.58,1013.22"/>
<polyline class="StaffLines" fill="none" stroke="#000000" stroke-width="6.55" stroke-linejoin="bevel" points="153.819,1400.14 4138.58,1400.14"/>
<polyline class="StaffLines" fill="none" stroke="#000000" stroke-width="6.55" stroke-linejoin="bevel" points="153.819,1459.67 4138.58,1459.67"/>
<polyline class="StaffLines" fill="none" stroke="#000000" stroke-width="6.55" stroke-linejoin="bevel" points="153.819,1519.2 4138.58,1519.2"/>
<polyline class="StaffLines" fill="none" stroke="#000000" stroke-width="6.55" stroke-linejoin="bevel" points="153.819,1578.73 4138.58,1578.73"/>
<polyline class="StaffLines" fill="none" stroke="#000000" stroke-width="6.55" stroke-linejoin="bevel" points="153.819,1638.26 4138.58,1638.26"/>
<polyline class="StaffLines" fill="none" stroke="#000000" stroke-width="6.55" stroke-linejoin="bevel" points="153.819,2107.6 4138.58,2107.6"/>
<polyline class="StaffLines" fill="none" stroke="#000000" stroke-width="6.55" stroke-linejoin="bevel" points="153.819,2167.13 4138.58,2167.13"/>
<polyline class="StaffLines" fill="none" stroke="#000000" stroke-width="6.55" stroke-linejoin="bevel" points="153.819,2226.65 4138.58,2226.65"/>
<polyline class="StaffLines" fill="none" stroke="#000000" stroke-width="6.55" stroke-linejoin="bevel" points="153.819,2286.18 4138.58,2286.18"/>
<polyline class="StaffLines" fill="none" stroke="#000000" stroke-width="6.55" stroke-linejoin="bevel" points="153.819,2345.71 4138.58,2345.71"/>
<polyline class="BarLine" fill="none" stroke="#000000" stroke-width="10.71" stroke-linejoin="bevel" points="159.176,2104.32 159.176,2348.98"/>
<polyline class="BarLine" fill="none" stroke="#000000" stroke-width="10.71" stroke-linejoin="bevel" points="989.512,2104.32 989.512,2348.98"/>
<polyline class="BarLine" fill="none" stroke="#000000" stroke-width="10.71" stroke-linejoin="bevel" points="1578.73,2104.32 1578.73,2348.98"/>
<polyline class="BarLine" fill="none" stroke="#000000" stroke-width="10.71" stroke-linejoin="bevel" points="2167.95,2104.32 2167.95,2348.98"/>
<polyline class="BarLine" fill="none" stroke="#000000" stroke-width="10.71" stroke-linejoin="bevel" points="2814.8,2104.32 2814.8,2348.98"/>
<polyline class="BarLine" fill="none" stroke="#000000" stroke-width="10.71" stroke-linejoin="bevel" points="3500.83,2104.32 3500.83,2348.98"/>
<polyline class="BarLine" fill="none" stroke="#000000" stroke-width="10.71" stroke-linejoin="bevel" points="4080.54,2104.32 4080.54,2348.98"/>
<polyline class="BarLine" fill="none" stroke="#000000" stroke-width="32.74" stroke-linejoin="bevel" points="4122.21,2104.32 4122.21,2348.98"/>
<polyline class="BarLine" fill="none" stroke="#000000" stroke-width="10.71" stroke-linejoin="bevel" points="159.176,1396.87 159.176,2107.6"/>
<polyline class="BarLine" fill="none" stroke="#000000" stroke-width="10.71" stroke-linejoin="bevel" points="989.512,1396.87 989.512,1641.53"/>
<polyline class="BarLine" fill="none" stroke="#000000" stroke-width="10.71" stroke-linejoin="bevel" points="1578.73,1396.87 1578.73,1641.53"/>
<polyline class="BarLine" fill="none" stroke="#000000" stroke-width="10.71" stroke-linejoin="bevel" points="2167.95,1396.87 2167.95,1641.53"/>
<polyline class="BarLine" fill="none" stroke="#000000" stroke-width="10.71" stroke-linejoin="bevel" points="2814.8,1396.87 2814.8,1641.53"/>
<polyline class="BarLine" fill="none" stroke="#000000" stroke-width="10.71" stroke-linejoin="bevel" points="3500.83,1396.87 3500.83,1641.53"/>
<polyline class="BarLine" fill="none" stroke="#000000" stroke-width="10.71" stroke-linejoin="bevel" points="4080.54,1396.87 4080.54,1641.53"/>
<polyline class="BarLine" fill="none" stroke="#000000" stroke-width="32.74" stroke-linejoin="bevel" points="4122.21,1396.87 4122.21,1641.53"/>
<polyline class="BarLine" fill="none" stroke="#000000" stroke-width="10.71" stroke-linejoin="bevel" points="159.176,563.485 159.176,1400.14"/>
<polyline class="BarLine" fill="none" stroke="#000000" stroke-width="10.71" stroke-linejoin="bevel" points="989.512,563.485 989.512,1016.49"/>
<polyline class="BarLine" fill="none" stroke="#000000" stroke-width="10.71" stroke-linejoin="bevel" points="1578.73,563.485 1578.73,1016.49"/>
<polyline class="BarLine" fill="none" stroke="#000000" stroke-width="10.71" stroke-linejoin="bevel" points="2167.95,563.485 2167.95,1016.49"/>
<polyline class="BarLine" fill="none" stroke="#000000" stroke-width="10.71" stroke-linejoin="bevel" points="2814.8,563.485 2814.8,1016.49"/>
<polyline class="BarLine" fill="none" stroke="#000000" stroke-width="10.71" stroke-linejoin="bevel" points="3500.83,563.485 3500.83,1016.49"/>
<polyline class="BarLine" fill="none" stroke="#000000" stroke-width="10.71" stroke-linejoin="bevel" points="4080.54,563.485 4080.54,1016.49"/>
<polyline class="BarLine" fill="none" stroke="#000000" stroke-width="32.74" stroke-linejoin="bevel" points="4122.21,563.485 4122.21,1016.49"/>
<polyline class="LedgerLine" fill="none" stroke="#000000" stroke-width="9.52" stroke-linejoin="bevel" points="492.549,2048.07 623.026,2048.07"/>
<polyline class="LedgerLine" fill="none" stroke="#000000" stroke-width="9.52" stroke-linejoin="bevel" points="3583.58,2048.07 3714.05,2048.07"/>
<polyline class="Stem" fill="none" stroke="#000000" stroke-width="6.55" stroke-linejoin="bevel" points="2912.26,1378.38 2912.26,1705.22"/>
<polyline class="Stem" fill="none" stroke="#000000" stroke-width="6.55" stroke-linejoin="bevel" points="3205.51,1408.15 3205.51,1608.49"/>
<path class="Note" transform="matrix(2.3811,0,0,2.3811,513.384,2048.07)" d="M18.7,-13.6 C4.9,-13.6 0,-6.6 0,-0.1 C0,6.4 4.9,13.4 18.7,13.4 C32.5,13.4 37.3,6.4 37.3,-0.1 C37.3,-6.6 32.5,-13.6 18.7,-13.6 M10.4,-4.5 C10.3,-4.9 10.3,-5.3 10.3,-5.7 C10.3,-6.5 10.5,-7.3 10.9,-8 C11.6,-9 12.8,-9.7 14.3,-10 C15.6,-10.3 16.3,-10.5 18.9,-10.5 L19,-10.5 C23,-10.5 24.3,-6.8 25.4,-3 L25.7,-2 C26.5,0.6 26.9,2.8 26.9,4.5 C26.9,5.7 26.7,6.8 26.3,7.6 C25.7,8.7 24.7,9.4 23,9.8 C22.1,10 20.6,10.1 20.6,10.1 C20.1,10.1 19.7,10.2 19.3,10.2 C16.1,10.2 14.1,9 12.7,4.7 C11.5,1 11.3,-0.1 10.4,-4.5"/>
<path class="Note" transform="matrix(2.3811,0,0,2.3811,1077.98,2137.36)" d="M18.7,-13.6 C4.9,-13.6 0,-6.6 0,-0.1 C0,6.4 4.9,13.4 18.7,13.4 C32.5,13.4 37.3,6.4 37.3,-0.1 C37.3,-6.6 32.5,-13.6 18.7,-13.6 M10.4,-4.5 C10.3,-4.9 10.3,-5.3 10.3,-5.7 C10.3,-6.5 10.5,-7.3 10.9,-8 C11.6,-9 12.8,-9.7 14.3,-10 C15.6,-10.3 16.3,-10.5 18.9,-10.5 L19,-10.5 C23,-10.5 24.3,-6.8 25.4,-3 L25.7,-2 C26.5,0.6 26.9,2.8 26.9,4.5 C26.9,5.7 26.7,6.8 26.3,7.6 C25.7,8.7 24.7,9.4 23,9.8 C22.1,10 20.6,10.1 20.6,10.1 C20.1,10.1 19.7,10.2 19.3,10.2 C16.1,10.2 14.1,9 12.7,4.7 C11.5,1 11.3,-0.1 10.4,-4.5"/>
<path class="Note" transform="matrix(2.3811,0,0,2.3811,1667.2,2137.36)" d="M18.7,-13.6 C4.9,-13.6 0,-6.6 0,-0.1 C0,6.4 4.9,13.4 18.7,13.4 C32.5,13.4 37.3,6.4 37.3,-0.1 C37.3,-6.6 32.5,-13.6 18.7,-13.6 M10.4,-4.5 C10.3,-4.9 10.3,-5.3 10.3,-5.7 C10.3,-6.5 10.5,-7.3 10.9,-8 C11.6,-9 12.8,-9.7 14.3,-10 C15.6,-10.3 16.3,-10.5 18.9,-10.5 L19,-10.5 C23,-10.5 24.3,-6.8 25.4,-3 L25.7,-2 C26.5,0.6 26.9,2.8 26.9,4.5 C26.9,5.7 26.7,6.8 26.3,7.6 C25.7,8.7 24.7,9.4 23,9.8 C22.1,10 20.6,10.1 20.6,10.1 C20.1,10.1 19.7,10.2 19.3,10.2 C16.1,10.2 14.1,9 12.7,4.7 C11.5,1 11.3,-0.1 10.4,-4.5"/>
<path class="Note" transform="matrix(2.3811,0,0,2.3811,2338.68,2137.36)" d="M18.7,-13.6 C4.9,-13.6 0,-6.6 0,-0.1 C0,6.4 4.9,13.4 18.7,13.4 C32.5,13.4 37.3,6.4 37.3,-0.1 C37.3,-6.6 32.5,-13.6 18.7,-13.6 M10.4,-4.5 C10.3,-4.9 10.3,-5.3 10.3,-5.7 C10.3,-6.5 10.5,-7.3 10.9,-8 C11.6,-9 12.8,-9.7 14.3,-10 C15.6,-10.3 16.3,-10.5 18.9,-10.5 L19,-10.5 C23,-10.5 24.3,-6.8 25.4,-3 L25.7,-2 C26.5,0.6 26.9,2.8 26.9,4.5 C26.9,5.7 26.7,6.8 26.3,7.6 C25.7,8.7 24.7,9.4 23,9.8 C22.1,10 20.6,10.1 20.6,10.1 C20.1,10.1 19.7,10.2 19.3,10.2 C16.1,10.2 14.1,9 12.7,4.7 C11.5,1 11.3,-0.1 10.4,-4.5"/>
<path class="Note" transform="matrix(2.3811,0,0,2.3811,2903.27,2137.36)" d="M18.7,-13.6 C4.9,-13.6 0,-6.6 0,-0.1 C0,6.4 4.9,13.4 18.7,13.4 C32.5,13.4 37.3,6.4 37.3,-0.1 C37.3,-6.6 32.5,-13.6 18.7,-13.6 M10.4,-4.5 C10.3,-4.9 10.3,-5.3 10.3,-5.7 C10.3,-6.5 10.5,-7.3 10.9,-8 C11.6,-9 12.8,-9.7 14.3,-10 C15.6,-10.3 16.3,-10.5 18.9,-10.5 L19,-10.5 C23,-10.5 24.3,-6.8 25.4,-3 L25.7,-2 C26.5,0.6 26.9,2.8 26.9,4.5 C26.9,5.7 26.7,6.8 26.3,7.6 C25.7,8.7 24.7,9.4 23,9.8 C22.1,10 20.6,10.1 20.6,10.1 C20.1,10.1 19.7,10.2 19.3,10.2 C16.1,10.2 14.1,9 12.7,4.7 C11.5,1 11.3,-0.1 10.4,-4.5"/>
<path class="Note" transform="matrix(2.3811,0,0,2.3811,3604.41,2048.07)" d="M18.7,-13.6 C4.9,-13.6 0,-6.6 0,-0.1 C0,6.4 4.9,13.4 18.7,13.4 C32.5,13.4 37.3,6.4 37.3,-0.1 C37.3,-6.6 32.5,-13.6 18.7,-13.6 M10.4,-4.5 C10.3,-4.9 10.3,-5.3 10.3,-5.7 C10.3,-6.5 10.5,-7.3 10.9,-8 C11.6,-9 12.8,-9.7 14.3,-10 C15.6,-10.3 16.3,-10.5 18.9,-10.5 L19,-10.5 C23,-10.5 24.3,-6.8 25.4,-3 L25.7,-2 C26.5,0.6 26.9,2.8 26.9,4.5 C26.9,5.7 26.7,6.8 26.3,7.6 C25.7,8.7 24.7,9.4 23,9.8 C22.1,10 20.6,10.1 20.6,10.1 C20.1,10.1 19.7,10.2 19.3,10.2 C16.1,10.2 14.1,9 12.7,4.7 C11.5,1 11.3,-0.1 10.4,-4.5"/>
<path class="Note" transform="matrix(2.3811,0,0,2.3811,513.384,1489.44)" d="M18.7,-13.6 C4.9,-13.6 0,-6.6 0,-0.1 C0,6.4 4.9,13.4 18.7,13.4 C32.5,13.4 37.3,6.4 37.3,-0.1 C37.3,-6.6 32.5,-13.6 18.7,-13.6 M10.4,-4.5 C10.3,-4.9 10.3,-5.3 10.3,-5.7 C10.3,-6.5 10.5,-7.3 10.9,-8 C11.6,-9 12.8,-9.7 14.3,-10 C15.6,-10.3 16.3,-10.5 18.9,-10.5 L19,-10.5 C23,-10.5 24.3,-6.8 25.4,-3 L25.7,-2 C26.5,0.6 26.9,2.8 26.9,4.5 C26.9,5.7 26.7,6.8 26.3,7.6 C25.7,8.7 24.7,9.4 23,9.8 C22.1,10 20.6,10.1 20.6,10.1 C20.1,10.1 19.7,10.2 19.3,10.2 C16.1,10.2 14.1,9 12.7,4.7 C11.5,1 11.3,-0.1 10.4,-4.5"/>
<path class="Note" transform="matrix(2.3811,0,0,2.3811,513.384,1429.91)" d="M18.7,-13.6 C4.9,-13.6 0,-6.6 0,-0.1 C0,6.4 4.9,13.4 18.7,13.4 C32.5,13.4 37.3,6.4 37.3,-0.1 C37.3,-6.6 32.5,-13.6 18.7,-13.6 M10.4,-4.5 C10.3,-4.9 10.3,-5.3 10.3,-5.7 C10.3,-6.5 10.5,-7.3 10.9,-8 C11.6,-9 12.8,-9.7 14.3,-10 C15.6,-10.3 16.3,-10.5 18.9,-10.5 L19,-10.5 C23,-10.5 24.3,-6.8 25.4,-3 L25.7,-2 C26.5,0.6 26.9,2.8 26.9,4.5 C26.9,5.7 26.7,6.8 26.3,7.6 C25.7,8.7 24.7,9.4 23,9.8 C22.1,10 20.6,10.1 20.6,10.1 C20.1,10.1 19.7,10.2 19.3,10.2 C16.1,10.2 14.1,9 12.7,4.7 C11.5,1 11.3,-0.1 10.4,-4.5"/>
<path class="Note" transform="matrix(2.3811,0,0,2.3811,513.384,1370.38)" d="M18.7,-13.6 C4.9,-13.6 0,-6.6 0,-0.1 C0,6.4 4.9,13.4 18.7,13.4 C32.5,13.4 37.3,6.4 37.3,-0.1 C37.3,-6.6 32.5,-13.6 18.7,-13.6 M10.4,-4.5 C10.3,-4.9 10.3,-5.3 10.3,-5.7 C10.3,-6.5 10.5,-7.3 10.9,-8 C11.6,-9 12.8,-9.7 14.3,-10 C15.6,-10.3 16.3,-10.5 18.9,-10.5 L19,-10.5 C23,-10.5 24.3,-6.8 25.4,-3 L25.7,-2 C26.5,0.6 26.9,2.8 26.9,4.5 C26.9,5.7 26.7,6.8 26.3,7.6 C25.7,8.7 24.7,9.4 23,9.8 C22.1,10 20.6,10.1 20.6,10.1 C20.1,10.1 19.7,10.2 19.3,10.2 C16.1,10.2 14.1,9 12.7,4.7 C11.5,1 11.3,-0.1 10.4,-4.5"/>
<path class="Note" transform="matrix(2.3811,0,0,2.3811,1077.98,1519.2)" d="M18.7,-13.6 C4.9,-13.6 0,-6.6 0,-0.1 C0,6.4 4.9,13.4 18.7,13.4 C32.5,13.4 37.3,6.4 37.3,-0.1 C37.3,-6.6 32.5,-13.6 18.7,-13.6 M10.4,-4.5 C10.3,-4.9 10.3,-5.3 10.3,-5.7 C10.3,-6.5 10.5,-7.3 10.9,-8 C11.6,-9 12.8,-9.7 14.3,-10 C15.6,-10.3 16.3,-10.5 18.9,-10.5 L19,-10.5 C23,-10.5 24.3,-6.8 25.4,-3 L25.7,-2 C26.5,0.6 26.9,2.8 26.9,4.5 C26.9,5.7 26.7,6.8 26.3,7.6 C25.7,8.7 24.7,9.4 23,9.8 C22.1,10 20.6,10.1 20.6,10.1 C20.1,10.1 19.7,10.2 19.3,10.2 C16.1,10.2 14.1,9 12.7,4.7 C11.5,1 11.3,-0.1 10.4,-4.5"/>
<path class="Note" transform="matrix(2.3811,0,0,2.3811,1077.98,1459.67)" d="M18.7,-13.6 C4.9,-13.6 0,-6.6 0,-0.1 C0,6.4 4.9,13.4 18.7,13.4 C32.5,13.4 37.3,6.4 37.3,-0.1 C37.3,-6.6 32.5,-13.6 18.7,-13.6 M10.4,-4.5 C10.3,-4.9 10.3,-5.3 10.3,-5.7 C10.3,-6.5 10.5,-7.3 10.9,-8 C11.6,-9 12.8,-9.7 14.3,-10 C15.6,-10.3 16.3,-10.5 18.9,-10.5 L19,-10.5 C23,-10.5 24.3,-6.8 25.4,-3 L25.7,-2 C26.5,0.6 26.9,2.8 26.9,4.5 C26.9,5.7 26.7,6.8 26.3,7.6 C25.7,8.7 24.7,9.4 23,9.8 C22.1,10 20.6,10.1 20.6,10.1 C20.1,10.1 19.7,10.2 19.3,10.2 C16.1,10.2 14.1,9 12.7,4.7 C11.5,1 11.3,-0.1 10.4,-4.5"/>
<path class="Note" transform="matrix(2.3811,0,0,2.3811,1077.98,1370.38)" d="M18.7,-13.6 C4.9,-13.6 0,-6.6 0,-0.1 C0,6.4 4.9,13.4 18.7,13.4 C32.5,13.4 37.3,6.4 37.3,-0.1 C37.3,-6.6 32.5,-13.6 18.7,-13.6 M10.4,-4.5 C10.3,-4.9 10.3,-5.3 10.3,-5.7 C10.3,-6.5 10.5,-7.3 10.9,-8 C11.6,-9 12.8,-9.7 14.3,-10 C15.6,-10.3 16.3,-10.5 18.9,-10.5 L19,-10.5 C23,-10.5 24.3,-6.8 25.4,-3 L25.7,-2 C26.5,0.6 26.9,2.8 26.9,4.5 C26.9,5.7 26.7,6.8 26.3,7.6 C25.7,8.7 24.7,9.4 23,9.8 C22.1,10 20.6,10.1 20.6,10.1 C20.1,10.1 19.7,10.2 19.3,10.2 C16.1,10.2 14.1,9 12.7,4.7 C11.5,1 11.3,-0.1 10.4,-4.5"/>
<path class="Note" transform="matrix(2.3811,0,0,2.3811,1667.2,1489.44)" d="M18.7,-13.6 C4.9,-13.6 0,-6.6 0,-0.1 C0,6.4 4.9,13.4 18.7,13.4 C32.5,13.4 37.3,6.4 37.3,-0.1 C37.3,-6.6 32.5,-13.6 18.7,-13.6 M10.4,-4.5 C10.3,-4.9 10.3,-5.3 10.3,-5.7 C10.3,-6.5 10.5,-7.3 10.9,-8 C11.6,-9 12.8,-9.7 14.3,-10 C15.6,-10.3 16.3,-10.5 18.9,-10.5 L19,-10.5 C23,-10.5 24.3,-6.8 25.4,-3 L25.7,-2 C26.5,0.6 26.9,2.8 26.9,4.5 C26.9,5.7 26.7,6.8 26.3,7.6 C25.7,8.7 24.7,9.4 23,9.8 C22.1,10 20.6,10.1 20.6,10.1 C20.1,10.1 19.7,10.2 19.3,10.2 C16.1,10.2 14.1,9 12.7,4.7 C11.5,1 11.3,-0.1 10.4,-4.5"/>
<path class="Note" transform="matrix(2.3811,0,0,2.3811,1667.2,1429.91)" d="M18.7,-13.6 C4.9,-13.6 0,-6.6 0,-0.1 C0,6.4 4.9,13.4 18.7,13.4 C32.5,13.4 37.3,6.4 37.3,-0.1 C37.3,-6.6 32.5,-13.6 18.7,-13.6 M10.4,-4.5 C10.3,-4.9 10.3,-5.3 10.3,-5.7 C10.3,-6.5 10.5,-7.3 10.9,-8 C11.6,-9 12.8,-9.7 14.3,-10 C15.6,-10.3 16.3,-10.5 18.9,-10.5 L19,-10.5 C23,-10.5 24.3,-6.8 25.4,-3 L25.7,-2 C26.5,0.6 26.9,2.8 26.9,4.5 C26.9,5.7 26.7,6.8 26.3,7.6 C25.7,8.7 24.7,9.4 23,9.8 C22.1,10 20.6,10.1 20.6,10.1 C20.1,10.1 19.7,10.2 19.3,10.2 C16.1,10.2 14.1,9 12.7,4.7 C11.5,1 11.3,-0.1 10.4,-4.5"/>
<path class="Note" transform="matrix(2.3811,0,0,2.3811,1667.2,1370.38)" d="M18.7,-13.6 C4.9,-13.6 0,-6.6 0,-0.1 C0,6.4 4.9,13.4 18.7,13.4 C32.5,13.4 37.3,6.4 37.3,-0.1 C37.3,-6.6 32.5,-13.6 18.7,-13.6 M10.4,-4.5 C10.3,-4.9 10.3,-5.3 10.3,-5.7 C10.3,-6.5 10.5,-7.3 10.9,-8 C11.6,-9 12.8,-9.7 14.3,-10 C15.6,-10.3 16.3,-10.5 18.9,-10.5 L19,-10.5 C23,-10.5 24.3,-6.8 25.4,-3 L25.7,-2 C26.5,0.6 26.9,2.8 26.9,4.5 C26.9,5.7 26.7,6.8 26.3,7.6 C25.7,8.7 24.7,9.4 23,9.8 C22.1,10 20.6,10.1 20.6,10.1 C20.1,10.1 19.7,10.2 19.3,10.2 C16.1,10.2 14.1,9 12.7,4.7 C11.5,1 11.3,-0.1 10.4,-4.5"/>
<path class="Note" transform="matrix(2.3811,0,0,2.3811,2256.42,1489.44)" d="M18.7,-13.6 C4.9,-13.6 0,-6.6 0,-0.1 C0,6.4 4.9,13.4 18.7,13.4 C32.5,13.4 37.3,6.4 37.3,-0.1 C37.3,-6.6 32.5,-13.6 18.7,-13.6 M10.4,-4.5 C10.3,-4.9 10.3,-5.3 10.3,-5.7 C10.3,-6.5 10.5,-7.3 10.9,-8 C11.6,-9 12.8,-9.7 14.3,-10 C15.6,-10.3 16.3,-10.5 18.9,-10.5 L19,-10.5 C23,-10.5 24.3,-6.8 25.4,-3 L25.7,-2 C26.5,0.6 26.9,2.8 26.9,4.5 C26.9,5.7 26.7,6.8 26.3,7.6 C25.7,8.7 24.7,9.4 23,9.8 C22.1,10 20.6,10.1 20.6,10.1 C20.1,10.1 19.7,10.2 19.3,10.2 C16.1,10.2 14.1,9 12.7,4.7 C11.5,1 11.3,-0.1 10.4,-4.5"/>
<path class="Note" transform="matrix(2.3811,0,0,2.3811,2338.68,1459.67)" d="M18.7,-13.6 C4.9,-13.6 0,-6.6 0,-0.1 C0,6.4 4.9,13.4 18.7,13.4 C32.5,13.4 37.3,6.4 37.3,-0.1 C37.3,-6.6 32.5,-13.6 18.7,-13.6 M10.4,-4.5 C10.3,-4.9 10.3,-5.3 10.3,-5.7 C10.3,-6.5 10.5,-7.3 10.9,-8 C11.6,-9 12.8,-9.7 14.3,-10 C15.6,-10.3 16.3,-10.5 18.9,-10.5 L19,-10.5 C23,-10.5 24.3,-6.8 25.4,-3 L25.7,-2 C26.5,0.6 26.9,2.8 26.9,4.5 C26.9,5.7 26.7,6.8 26.3,7.6 C25.7,8.7 24.7,9.4 23,9.8 C22.1,10 20.6,10.1 20.6,10.1 C20.1,10.1 19.7,10.2 19.3,10.2 C16.1,10.2 14.1,9 12.7,4.7 C11.5,1 11.3,-0.1 10.4,-4.5"/>
<path class="Note" transform="matrix(2.3811,0,0,2.3811,2338.68,1370.38)" d="M18.7,-13.6 C4.9,-13.6 0,-6.6 0,-0.1 C0,6.4 4.9,13.4 18.7,13.4 C32.5,13.4 37.3,6.4 37.3,-0.1 C37.3,-6.6 32.5,-13.6 18.7,-13.6 M10.4,-4.5 C10.3,-4.9 10.3,-5.3 10.3,-5.7 C10.3,-6.5 10.5,-7.3 10.9,-8 C11.6,-9 12.8,-9.7 14.3,-10 C15.6,-10.3 16.3,-10.5 18.9,-10.5 L19,-10.5 C23,-10.5 24.3,-6.8 25.4,-3 L25.7,-2 C26.5,0.6 26.9,2.8 26.9,4.5 C26.9,5.7 26.7,6.8 26.3,7.6 C25.7,8.7 24.7,9.4 23,9.8 C22.1,10 20.6,10.1 20.6,10.1 C20.1,10.1 19.7,10.2 19.3,10.2 C16.1,10.2 14.1,9 12.7,4.7 C11.5,1 11.3,-0.1 10.4,-4.5"/>
<path class="Note" transform="matrix(2.3811,0,0,2.3811,2908.99,1519.2)" d="M31.5,-8.1 C29.7,-11.4 25.9,-13.2 21.3,-13.2 C17.9,-13.2 14.2,-12.2 10.6,-10.3 C4,-6.8 0,-0.9 0,4.2 C0,5.6 0.3,7 1,8.3 C2.8,11.6 6.6,13.3 11.2,13.3 C14.6,13.3 18.3,12.4 21.9,10.5 C28.5,7 32.5,1.1 32.5,-4 C32.5,-5.4 32.2,-6.8 31.5,-8.1 M27.2,-1.3 C25.5,0.4 22.1,2.5 18.5,4.5 C14.9,6.5 11.3,8 8.9,8.5 C8.4,8.6 7.9,8.7 7.4,8.7 C5.8,8.7 4.6,8.1 3.9,6.8 C3.6,6.3 3.4,5.7 3.4,5.1 C3.4,4 4.1,2.7 5.2,1.6 C6.9,-0.1 10.2,-2.2 13.8,-4.2 C17.4,-6.2 21,-7.7 23.4,-8.2 C23.9,-8.3 24.4,-8.4 24.9,-8.4 C26.5,-8.4 27.8,-7.8 28.5,-6.5 C28.8,-6 28.9,-5.4 28.9,-4.8 C28.9,-3.7 28.3,-2.5 27.2,-1.3"/>
<path class="Note" transform="matrix(2.3811,0,0,2.3811,2908.99,1459.67)" d="M31.5,-8.1 C29.7,-11.4 25.9,-13.2 21.3,-13.2 C17.9,-13.2 14.2,-12.2 10.6,-10.3 C4,-6.8 0,-0.9 0,4.2 C0,5.6 0.3,7 1,8.3 C2.8,11.6 6.6,13.3 11.2,13.3 C14.6,13.3 18.3,12.4 21.9,10.5 C28.5,7 32.5,1.1 32.5,-4 C32.5,-5.4 32.2,-6.8 31.5,-8.1 M27.2,-1.3 C25.5,0.4 22.1,2.5 18.5,4.5 C14.9,6.5 11.3,8 8.9,8.5 C8.4,8.6 7.9,8.7 7.4,8.7 C5.8,8.7 4.6,8.1 3.9,6.8 C3.6,6.3 3.4,5.7 3.4,5.1 C3.4,4 4.1,2.7 5.2,1.6 C6.9,-0.1 10.2,-2.2 13.8,-4.2 C17.4,-6.2 21,-7.7 23.4,-8.2 C23.9,-8.3 24.4,-8.4 24.9,-8.4 C26.5,-8.4 27.8,-7.8 28.5,-6.5 C28.8,-6 28.9,-5.4 28.9,-4.8 C28.9,-3.7 28.3,-2.5 27.2,-1.3"/>
<path class="Note" transform="matrix(2.3811,0,0,2.3811,2908.99,1370.38)" d="M31.5,-8.1 C29.7,-11.4 25.9,-13.2 21.3,-13.2 C17.9,-13.2 14.2,-12.2 10.6,-10.3 C4,-6.8 0,-0.9 0,4.2 C0,5.6 0.3,7 1,8.3 C2.8,11.6 6.6,13.3 11.2,13.3 C14.6,13.3 18.3,12.4 21.9,10.5 C28.5,7 32.5,1.1 32.5,-4 C32.5,-5.4 32.2,-6.8 31.5,-8.1 M27.2,-1.3 C25.5,0.4 22.1,2.5 18.5,4.5 C14.9,6.5 11.3,8 8.9,8.5 C8.4,8.6 7.9,8.7 7.4,8.7 C5.8,8.7 4.6,8.1 3.9,6.8 C3.6,6.3 3.4,5.7 3.4,5.1 C3.4,4 4.1,2.7 5.2,1.6 C6.9,-0.1 10.2,-2.2 13.8,-4.2 C17.4,-6.2 21,-7.7 23.4,-8.2 C23.9,-8.3 24.4,-8.4 24.9,-8.4 C26.5,-8.4 27.8,-7.8 28.5,-6.5 C28.8,-6 28.9,-5.4 28.9,-4.8 C28.9,-3.7 28.3,-2.5 27.2,-1.3"/>
<path class="Note" transform="matrix(2.3811,0,0,2.3811,3202.23,1400.14)" d="M31.5,-8.1 C29.7,-11.4 25.9,-13.2 21.3,-13.2 C17.9,-13.2 14.2,-12.2 10.6,-10.3 C4,-6.8 0,-0.9 0,4.2 C0,5.6 0.3,7 1,8.3 C2.8,11.6 6.6,13.3 11.2,13.3 C14.6,13.3 18.3,12.4 21.9,10.5 C28.5,7 32.5,1.1 32.5,-4 C32.5,-5.4 32.2,-6.8 31.5,-8.1 M27.2,-1.3 C25.5,0.4 22.1,2.5 18.5,4.5 C14.9,6.5 11.3,8 8.9,8.5 C8.4,8.6 7.9,8.7 7.4,8.7 C5.8,8.7 4.6,8.1 3.9,6.8 C3.6,6.3 3.4,5.7 3.4,5.1 C3.4,4 4.1,2.7 5.2,1.6 C6.9,-0.1 10.2,-2.2 13.8,-4.2 C17.4,-6.2 21,-7.7 23.4,-8.2 C23.9,-8.3 24.4,-8.4 24.9,-8.4 C26.5,-8.4 27.8,-7.8 28.5,-6.5 C28.8,-6 28.9,-5.4 28.9,-4.8 C28.9,-3.7 28.3,-2.5 27.2,-1.3"/>
<path class="Note" transform="matrix(2.3811,0,0,2.3811,3604.41,1489.44)" d="M18.7,-13.6 C4.9,-13.6 0,-6.6 0,-0.1 C0,6.4 4.9,13.4 18.7,13.4 C32.5,13.4 37.3,6.4 37.3,-0.1 C37.3,-6.6 32.5,-13.6 18.7,-13.6 M10.4,-4.5 C10.3,-4.9 10.3,-5.3 10.3,-5.7 C10.3,-6.5 10.5,-7.3 10.9,-8 C11.6,-9 12.8,-9.7 14.3,-10 C15.6,-10.3 16.3,-10.5 18.9,-10.5 L19,-10.5 C23,-10.5 24.3,-6.8 25.4,-3 L25.7,-2 C26.5,0.6 26.9,2.8 26.9,4.5 C26.9,5.7 26.7,6.8 26.3,7.6 C25.7,8.7 24.7,9.4 23,9.8 C22.1,10 20.6,10.1 20.6,10.1 C20.1,10.1 19.7,10.2 19.3,10.2 C16.1,10.2 14.1,9 12.7,4.7 C11.5,1 11.3,-0.1 10.4,-4.5"/>
<path class="Note" transform="matrix(2.3811,0,0,2.3811,3604.41,1429.91)" d="M18.7,-13.6 C4.9,-13.6 0,-6.6 0,-0.1 C0,6.4 4.9,13.4 18.7,13.4 C32.5,13.4 37.3,6.4 37.3,-0.1 C37.3,-6.6 32.5,-13.6 18.7,-13.6 M10.4,-4.5 C10.3,-4.9 10.3,-5.3 10.3,-5.7 C10.3,-6.5 10.5,-7.3 10.9,-8 C11.6,-9 12.8,-9.7 14.3,-10 C15.6,-10.3 16.3,-10.5 18.9,-10.5 L19,-10.5 C23,-10.5 24.3,-6.8 25.4,-3 L25.7,-2 C26.5,0.6 26.9,2.8 26.9,4.5 C26.9,5.7 26.7,6.8 26.3,7.6 C25.7,8.7 24.7,9.4 23,9.8 C22.1,10 20.6,10.1 20.6,10.1 C20.1,10.1 19.7,10.2 19.3,10.2 C16.1,10.2 14.1,9 12.7,4.7 C11.5,1 11.3,-0.1 10.4,-4.5"/>
<path class="Note" transform="matrix(2.3811,0,0,2.3811,3604.41,1370.38)" d="M18.7,-13.6 C4.9,-13.6 0,-6.6 0,-0.1 C0,6.4 4.9,13.4 18.7,13.4 C32.5,13.4 37.3,6.4 37.3,-0.1 C37.3,-6.6 32.5,-13.6 18.7,-13.6 M10.4,-4.5 C10.3,-4.9 10.3,-5.3 10.3,-5.7 C10.3,-6.5 10.5,-7.3 10.9,-8 C11.6,-9 12.8,-9.7 14.3,-10 C15.6,-10.3 16.3,-10.5 18.9,-10.5 L19,-10.5 C23,-10.5 24.3,-6.8 25.4,-3 L25.7,-2 C26.5,0.6 26.9,2.8 26.9,4.5 C26.9,5.7 26.7,6.8 26.3,7.6 C25.7,8.7 24.7,9.4 23,9.8 C22.1,10 20.6,10.1 20.6,10.1 C20.1,10.1 19.7,10.2 19.3,10.2 C16.1,10.2 14.1,9 12.7,4.7 C11.5,1 11.3,-0.1 10.4,-4.5"/>
<path class="Note" d="M568.961,812.875 C571.44,812.875 573.144,813.494 574.074,814.734 C575.469,816.826 576.166,819.77 576.166,823.566 C576.166,827.982 573.067,838.557 566.869,855.292 C556.72,883.725 551.645,898.793 551.645,900.498 C551.645,905.069 553.466,907.393 557.107,907.47 C558.657,907.47 562.608,905.069 568.961,900.265 C575.236,895.694 580.078,893.409 583.487,893.409 C584.882,893.409 585.579,894.261 585.579,895.966 C585.579,898.832 581.744,902.59 574.074,907.238 C561.523,914.908 552.846,918.743 548.043,918.743 C540.373,918.743 536.538,915.721 536.538,909.678 C536.538,909.523 541.845,891.743 552.459,856.338 C558.889,835.032 562.802,821.164 564.196,814.734 C564.429,813.494 566.017,812.875 568.961,812.875"/>
<path class="Note" d="M563.731,585.21 C567.528,585.21 569.426,588.115 569.426,593.925 C569.426,598.109 567.45,602.912 563.499,608.336 C560.013,613.216 558.269,620.77 558.269,630.997 C558.269,635.878 559.548,639.132 562.104,640.758 C563.886,641.998 567.218,642.657 572.099,642.734 C577.367,642.734 584.843,640.061 594.527,634.716 L596.387,636.575 C593.908,639.751 590.925,642.618 587.438,645.174 C582.248,648.971 576.941,650.869 571.518,650.869 C563.693,650.869 557.766,649.745 553.737,647.499 C548.701,644.71 546.184,641.223 546.184,637.04 C546.184,625.496 547.656,613.449 550.6,600.898 C551.684,596.327 554.047,592.144 557.688,588.347 C559.78,586.256 561.795,585.21 563.731,585.21"/>
<path class="Note" d="M595.341,755.541 C597.742,755.541 599.486,756.045 600.57,757.052 C601.81,758.137 602.43,759.725 602.43,761.817 C602.43,764.451 601.268,766.698 598.943,768.557 C588.872,775.685 578.529,784.749 567.915,795.75 C570.317,806.364 573.261,814.228 576.747,819.341 C581.318,826.081 584.456,829.452 586.16,829.452 C587.71,829.452 589.375,828.483 591.157,826.546 C592.397,825.229 593.598,824.571 594.76,824.571 C597.239,824.571 598.478,825.888 598.478,828.522 C598.478,831.311 596.27,835.107 591.854,839.91 C589.453,842.39 586.935,843.629 584.301,843.629 C578.878,843.629 573.416,838.555 567.915,828.406 C562.337,818.179 558.502,808.534 556.41,799.469 C552.536,811.4 550.6,818.721 550.6,821.433 C550.6,826.779 547.539,829.452 541.419,829.452 C538.088,829.452 536.422,826.353 536.422,820.155 C536.422,817.211 540.102,804.04 547.462,780.643 C551.103,769.177 554.086,761.158 556.41,756.587 C556.952,755.658 558.347,755.193 560.594,755.193 C563.228,755.193 565.048,755.735 566.056,756.82 C567.063,757.904 567.566,760.151 567.566,763.56 C567.566,765.264 565.901,771.152 562.569,781.224 C570.859,773.089 580.195,765.148 590.576,757.401 C592.203,756.161 593.791,755.541 595.341,755.541"/>
<path class="Note" d="M563.731,674.501 C567.528,674.501 569.426,677.406 569.426,683.217 C569.426,687.4 567.45,692.204 563.499,697.627 C560.013,702.508 558.269,710.062 558.269,720.288 C558.269,725.169 559.548,728.423 562.104,730.05 C563.886,731.289 567.218,731.948 572.099,732.025 C577.367,732.025 584.843,729.353 594.527,724.007 L596.387,725.866 C593.908,729.043 590.925,731.909 587.438,734.466 C582.248,738.262 576.941,740.16 571.518,740.16 C563.693,740.16 557.766,739.037 553.737,736.79 C548.701,734.001 546.184,730.515 546.184,726.331 C546.184,714.787 547.656,702.74 550.6,690.189 C551.684,685.619 554.047,681.435 557.688,677.639 C559.78,675.547 561.795,674.501 563.731,674.501"/>
<path class="Note" d="M1133.55,902.166 C1136.03,902.166 1137.74,902.786 1138.67,904.025 C1140.06,906.117 1140.76,909.061 1140.76,912.857 C1140.76,917.273 1137.66,927.849 1131.46,944.583 C1121.31,973.016 1116.24,988.085 1116.24,989.789 C1116.24,994.36 1118.06,996.684 1121.7,996.762 C1123.25,996.762 1127.2,994.36 1133.55,989.557 C1139.83,984.986 1144.67,982.7 1148.08,982.7 C1149.47,982.7 1150.17,983.552 1150.17,985.257 C1150.17,988.123 1146.34,991.881 1138.67,996.529 C1126.11,1004.2 1117.44,1008.03 1112.63,1008.03 C1104.96,1008.03 1101.13,1005.01 1101.13,998.97 C1101.13,998.815 1106.44,981.035 1117.05,945.629 C1123.48,924.324 1127.39,910.456 1128.79,904.025 C1129.02,902.786 1130.61,902.166 1133.55,902.166"/>
<path class="Note" d="M1099.04,650.869 C1094.85,650.869 1092.76,648.971 1092.76,645.174 C1092.76,638.744 1093.73,634.018 1095.67,630.997 C1103.72,619.066 1121.23,596.753 1148.19,564.059 C1160.36,549.262 1176.05,541.863 1195.26,541.863 C1202.7,541.863 1207.85,542.909 1210.72,545.001 C1215.13,548.255 1217.34,552.167 1217.34,556.738 C1217.34,561.541 1213.47,566.887 1205.72,572.775 C1198.36,578.353 1191.39,581.142 1184.8,581.142 C1182.24,581.142 1180.97,580.871 1180.97,580.329 C1180.97,579.554 1182.21,578.741 1184.69,577.888 C1188.02,576.649 1191.58,574.131 1195.38,570.335 C1199.72,565.919 1201.88,561.929 1201.88,558.365 C1201.88,555.963 1200.22,553.678 1196.89,551.508 C1193.94,549.649 1189.18,548.719 1182.59,548.719 C1172.99,548.719 1160.86,558.404 1146.22,577.772 C1136.46,590.71 1128.56,602.099 1122.51,611.938 C1125.46,610.311 1128.98,608.336 1133.09,606.011 C1138.12,603.145 1142.46,601.712 1146.1,601.712 C1155.17,601.712 1159.7,604.966 1159.7,611.473 C1159.7,617.904 1155.98,624.954 1148.54,632.624 C1143.28,638.047 1140.64,642.076 1140.64,644.71 C1140.64,647.421 1143.28,648.777 1148.54,648.777 C1151.18,648.777 1153.89,647.847 1156.68,645.988 C1159.47,644.206 1161.52,643.315 1162.84,643.315 C1163.92,643.315 1164.46,644.012 1164.46,645.407 C1164.46,647.654 1162.3,650.017 1157.96,652.496 C1150.67,656.679 1144.82,658.771 1140.41,658.771 C1132.58,658.771 1128.67,654.588 1128.67,646.22 C1128.67,640.952 1131.69,635.103 1137.74,628.673 C1142.15,623.947 1144.36,619.259 1144.36,614.611 C1144.36,610.582 1142.19,608.568 1137.85,608.568 C1136.15,608.568 1130.49,610.582 1120.89,614.611 C1118.02,619.414 1115.62,623.83 1113.68,627.859 C1106.32,643.199 1101.44,650.869 1099.04,650.869"/>
<path class="Note" d="M1099.04,829.452 C1094.85,829.452 1092.76,827.553 1092.76,823.757 C1092.76,817.327 1093.73,812.601 1095.67,809.579 C1103.72,797.648 1121.23,775.336 1148.19,742.642 C1160.36,727.844 1176.05,720.446 1195.26,720.446 C1202.7,720.446 1207.85,721.492 1210.72,723.583 C1215.13,726.837 1217.34,730.75 1217.34,735.321 C1217.34,740.124 1213.47,745.47 1205.72,751.358 C1198.36,756.936 1191.39,759.725 1184.8,759.725 C1182.24,759.725 1180.97,759.454 1180.97,758.911 C1180.97,758.137 1182.21,757.323 1184.69,756.471 C1188.02,755.231 1191.58,752.714 1195.38,748.917 C1199.72,744.501 1201.88,740.511 1201.88,736.948 C1201.88,734.546 1200.22,732.26 1196.89,730.091 C1193.94,728.232 1189.18,727.302 1182.59,727.302 C1172.99,727.302 1160.86,736.986 1146.22,756.355 C1136.46,769.293 1128.56,780.682 1122.51,790.521 C1125.46,788.894 1128.98,786.918 1133.09,784.594 C1138.12,781.728 1142.46,780.294 1146.1,780.294 C1155.17,780.294 1159.7,783.548 1159.7,790.056 C1159.7,796.486 1155.98,803.536 1148.54,811.206 C1143.28,816.63 1140.64,820.658 1140.64,823.292 C1140.64,826.004 1143.28,827.36 1148.54,827.36 C1151.18,827.36 1153.89,826.43 1156.68,824.571 C1159.47,822.789 1161.52,821.898 1162.84,821.898 C1163.92,821.898 1164.46,822.595 1164.46,823.99 C1164.46,826.236 1162.3,828.599 1157.96,831.078 C1150.67,835.262 1144.82,837.354 1140.41,837.354 C1132.58,837.354 1128.67,833.17 1128.67,824.803 C1128.67,819.535 1131.69,813.686 1137.74,807.255 C1142.15,802.529 1144.36,797.842 1144.36,793.194 C1144.36,789.165 1142.19,787.151 1137.85,787.151 C1136.15,787.151 1130.49,789.165 1120.89,793.194 C1118.02,797.997 1115.62,802.413 1113.68,806.442 C1106.32,821.782 1101.44,829.452 1099.04,829.452"/>
<path class="Note" d="M1128.32,674.501 C1132.12,674.501 1134.02,677.406 1134.02,683.217 C1134.02,687.4 1132.04,692.204 1128.09,697.627 C1124.6,702.508 1122.86,710.062 1122.86,720.288 C1122.86,725.169 1124.14,728.423 1126.7,730.05 C1128.48,731.289 1131.81,731.948 1136.69,732.025 C1141.96,732.025 1149.43,729.353 1159.12,724.007 L1160.98,725.866 C1158.5,729.043 1155.52,731.909 1152.03,734.466 C1146.84,738.262 1141.53,740.16 1136.11,740.16 C1128.28,740.16 1122.36,739.037 1118.33,736.79 C1113.29,734.001 1110.78,730.515 1110.78,726.331 C1110.78,714.787 1112.25,702.74 1115.19,690.189 C1116.28,685.619 1118.64,681.435 1122.28,677.639 C1124.37,675.547 1126.39,674.501 1128.32,674.501"/>
<path class="Note" d="M1722.77,902.166 C1725.25,902.166 1726.96,902.786 1727.89,904.025 C1729.28,906.117 1729.98,909.061 1729.98,912.857 C1729.98,917.273 1726.88,927.849 1720.68,944.583 C1710.53,973.016 1705.46,988.085 1705.46,989.789 C1705.46,994.36 1707.28,996.684 1710.92,996.762 C1712.47,996.762 1716.42,994.36 1722.77,989.557 C1729.05,984.986 1733.89,982.7 1737.3,982.7 C1738.69,982.7 1739.39,983.552 1739.39,985.257 C1739.39,988.123 1735.56,991.881 1727.89,996.529 C1715.34,1004.2 1706.66,1008.03 1701.86,1008.03 C1694.19,1008.03 1690.35,1005.01 1690.35,998.97 C1690.35,998.815 1695.66,981.035 1706.27,945.629 C1712.7,924.324 1716.61,910.456 1718.01,904.025 C1718.24,902.786 1719.83,902.166 1722.77,902.166"/>
<path class="Note" d="M1717.54,585.21 C1721.34,585.21 1723.24,588.115 1723.24,593.925 C1723.24,598.109 1721.26,602.912 1717.31,608.336 C1713.83,613.216 1712.08,620.77 1712.08,630.997 C1712.08,635.878 1713.36,639.132 1715.92,640.758 C1717.7,641.998 1721.03,642.657 1725.91,642.734 C1731.18,642.734 1738.66,640.061 1748.34,634.716 L1750.2,636.575 C1747.72,639.751 1744.74,642.618 1741.25,645.174 C1736.06,648.971 1730.75,650.869 1725.33,650.869 C1717.51,650.869 1711.58,649.745 1707.55,647.499 C1702.51,644.71 1700,641.223 1700,637.04 C1700,625.496 1701.47,613.449 1704.41,600.898 C1705.5,596.327 1707.86,592.144 1711.5,588.347 C1713.59,586.256 1715.61,585.21 1717.54,585.21"/>
<path class="Note" d="M1749.15,755.541 C1751.56,755.541 1753.3,756.045 1754.38,757.052 C1755.62,758.137 1756.24,759.725 1756.24,761.817 C1756.24,764.451 1755.08,766.698 1752.76,768.557 C1742.68,775.685 1732.34,784.749 1721.73,795.75 C1724.13,806.364 1727.07,814.228 1730.56,819.341 C1735.13,826.081 1738.27,829.452 1739.97,829.452 C1741.52,829.452 1743.19,828.483 1744.97,826.546 C1746.21,825.229 1747.41,824.571 1748.57,824.571 C1751.05,824.571 1752.29,825.888 1752.29,828.522 C1752.29,831.311 1750.08,835.107 1745.67,839.91 C1743.27,842.39 1740.75,843.629 1738.11,843.629 C1732.69,843.629 1727.23,838.555 1721.73,828.406 C1716.15,818.179 1712.31,808.534 1710.22,799.469 C1706.35,811.4 1704.41,818.721 1704.41,821.433 C1704.41,826.779 1701.35,829.452 1695.23,829.452 C1691.9,829.452 1690.23,826.353 1690.23,820.155 C1690.23,817.211 1693.91,804.04 1701.27,780.643 C1704.92,769.177 1707.9,761.158 1710.22,756.587 C1710.76,755.658 1712.16,755.193 1714.41,755.193 C1717.04,755.193 1718.86,755.735 1719.87,756.82 C1720.88,757.904 1721.38,760.151 1721.38,763.56 C1721.38,765.264 1719.71,771.152 1716.38,781.224 C1724.67,773.089 1734.01,765.148 1744.39,757.401 C1746.02,756.161 1747.6,755.541 1749.15,755.541"/>
<path class="Note" d="M1717.54,674.501 C1721.34,674.501 1723.24,677.406 1723.24,683.217 C1723.24,687.4 1721.26,692.204 1717.31,697.627 C1713.83,702.508 1712.08,710.062 1712.08,720.288 C1712.08,725.169 1713.36,728.423 1715.92,730.05 C1717.7,731.289 1721.03,731.948 1725.91,732.025 C1731.18,732.025 1738.66,729.353 1748.34,724.007 L1750.2,725.866 C1747.72,729.043 1744.74,731.909 1741.25,734.466 C1736.06,738.262 1730.75,740.16 1725.33,740.16 C1717.51,740.16 1711.58,739.037 1707.55,736.79 C1702.51,734.001 1700,730.515 1700,726.331 C1700,714.787 1701.47,702.74 1704.41,690.189 C1705.5,685.619 1707.86,681.435 1711.5,677.639 C1713.59,675.547 1715.61,674.501 1717.54,674.501"/>
<path class="Note" d="M2394.25,902.166 C2396.73,902.166 2398.44,902.786 2399.37,904.025 C2400.76,906.117 2401.46,909.061 2401.46,912.857 C2401.46,917.273 2398.36,927.849 2392.16,944.583 C2382.01,973.016 2376.94,988.085 2376.94,989.789 C2376.94,994.36 2378.76,996.684 2382.4,996.762 C2383.95,996.762 2387.9,994.36 2394.25,989.557 C2400.53,984.986 2405.37,982.7 2408.78,982.7 C2410.18,982.7 2410.87,983.552 2410.87,985.257 C2410.87,988.123 2407.04,991.881 2399.37,996.529 C2386.82,1004.2 2378.14,1008.03 2373.34,1008.03 C2365.67,1008.03 2361.83,1005.01 2361.83,998.97 C2361.83,998.815 2367.14,981.035 2377.75,945.629 C2384.18,924.324 2388.09,910.456 2389.49,904.025 C2389.72,902.786 2391.31,902.166 2394.25,902.166"/>
<path class="Note" d="M2394.25,812.875 C2396.73,812.875 2398.44,813.494 2399.37,814.734 C2400.76,816.826 2401.46,819.77 2401.46,823.566 C2401.46,827.982 2398.36,838.557 2392.16,855.292 C2382.01,883.725 2376.94,898.793 2376.94,900.498 C2376.94,905.069 2378.76,907.393 2382.4,907.47 C2383.95,907.47 2387.9,905.069 2394.25,900.265 C2400.53,895.694 2405.37,893.409 2408.78,893.409 C2410.18,893.409 2410.87,894.261 2410.87,895.966 C2410.87,898.832 2407.04,902.59 2399.37,907.238 C2386.82,914.908 2378.14,918.743 2373.34,918.743 C2365.67,918.743 2361.83,915.721 2361.83,909.678 C2361.83,909.523 2367.14,891.743 2377.75,856.338 C2384.18,835.032 2388.09,821.164 2389.49,814.734 C2389.72,813.494 2391.31,812.875 2394.25,812.875"/>
<path class="Note" d="M2394.25,545.001 C2396.73,545.001 2398.44,545.62 2399.37,546.86 C2400.76,548.952 2401.46,551.896 2401.46,555.692 C2401.46,560.108 2398.36,570.683 2392.16,587.418 C2382.01,615.851 2376.94,630.919 2376.94,632.624 C2376.94,637.195 2378.76,639.519 2382.4,639.596 C2383.95,639.596 2387.9,637.195 2394.25,632.391 C2400.53,627.82 2405.37,625.535 2408.78,625.535 C2410.18,625.535 2410.87,626.387 2410.87,628.091 C2410.87,630.958 2407.04,634.716 2399.37,639.364 C2386.82,647.034 2378.14,650.869 2373.34,650.869 C2365.67,650.869 2361.83,647.847 2361.83,641.804 C2361.83,641.649 2367.14,623.869 2377.75,588.464 C2384.18,567.158 2388.09,553.29 2389.49,546.86 C2389.72,545.62 2391.31,545.001 2394.25,545.001"/>
<path class="Note" d="M2389.02,674.501 C2392.82,674.501 2394.72,677.406 2394.72,683.217 C2394.72,687.4 2392.74,692.204 2388.79,697.627 C2385.31,702.508 2383.56,710.062 2383.56,720.288 C2383.56,725.169 2384.84,728.423 2387.4,730.05 C2389.18,731.289 2392.51,731.948 2397.39,732.025 C2402.66,732.025 2410.14,729.353 2419.82,724.007 L2421.68,725.866 C2419.2,729.043 2416.22,731.909 2412.73,734.466 C2407.54,738.262 2402.23,740.16 2396.81,740.16 C2388.99,740.16 2383.06,739.037 2379.03,736.79 C2373.99,734.001 2371.48,730.515 2371.48,726.331 C2371.48,714.787 2372.95,702.74 2375.89,690.189 C2376.98,685.619 2379.34,681.435 2382.98,677.639 C2385.07,675.547 2387.09,674.501 2389.02,674.501"/>
<path class="Note" d="M2958.85,902.166 C2961.32,902.166 2963.03,902.786 2963.96,904.025 C2965.35,906.117 2966.05,909.061 2966.05,912.857 C2966.05,917.273 2962.95,927.849 2956.75,944.583 C2946.6,973.016 2941.53,988.085 2941.53,989.789 C2941.53,994.36 2943.35,996.684 2946.99,996.762 C2948.54,996.762 2952.49,994.36 2958.85,989.557 C2965.12,984.986 2969.96,982.7 2973.37,982.7 C2974.77,982.7 2975.46,983.552 2975.46,985.257 C2975.46,988.123 2971.63,991.881 2963.96,996.529 C2951.41,1004.2 2942.73,1008.03 2937.93,1008.03 C2930.26,1008.03 2926.42,1005.01 2926.42,998.97 C2926.42,998.815 2931.73,981.035 2942.34,945.629 C2948.77,924.324 2952.69,910.456 2954.08,904.025 C2954.31,902.786 2955.9,902.166 2958.85,902.166"/>
<path class="Note" d="M2985.23,844.833 C2987.63,844.833 2989.37,845.336 2990.45,846.343 C2991.69,847.428 2992.31,849.016 2992.31,851.108 C2992.31,853.742 2991.15,855.989 2988.83,857.848 C2978.76,864.976 2968.41,874.04 2957.8,885.042 C2960.2,895.656 2963.15,903.519 2966.63,908.632 C2971.2,915.373 2974.34,918.743 2976.04,918.743 C2977.59,918.743 2979.26,917.774 2981.04,915.838 C2982.28,914.521 2983.48,913.862 2984.64,913.862 C2987.12,913.862 2988.36,915.179 2988.36,917.813 C2988.36,920.602 2986.16,924.398 2981.74,929.202 C2979.34,931.681 2976.82,932.921 2974.19,932.921 C2968.76,932.921 2963.3,927.846 2957.8,917.697 C2952.22,907.47 2948.39,897.825 2946.29,888.76 C2942.42,900.691 2940.48,908.013 2940.48,910.724 C2940.48,916.07 2937.42,918.743 2931.3,918.743 C2927.97,918.743 2926.31,915.644 2926.31,909.446 C2926.31,906.502 2929.99,893.331 2937.35,869.934 C2940.99,858.468 2943.97,850.45 2946.29,845.879 C2946.84,844.949 2948.23,844.484 2950.48,844.484 C2953.11,844.484 2954.93,845.026 2955.94,846.111 C2956.95,847.196 2957.45,849.442 2957.45,852.851 C2957.45,854.556 2955.79,860.444 2952.45,870.515 C2960.74,862.381 2970.08,854.439 2980.46,846.692 C2982.09,845.452 2983.68,844.833 2985.23,844.833"/>
<path class="Note" d="M2958.85,545.001 C2961.32,545.001 2963.03,545.62 2963.96,546.86 C2965.35,548.952 2966.05,551.896 2966.05,555.692 C2966.05,560.108 2962.95,570.683 2956.75,587.418 C2946.6,615.851 2941.53,630.919 2941.53,632.624 C2941.53,637.195 2943.35,639.519 2946.99,639.596 C2948.54,639.596 2952.49,637.195 2958.85,632.391 C2965.12,627.82 2969.96,625.535 2973.37,625.535 C2974.77,625.535 2975.46,626.387 2975.46,628.091 C2975.46,630.958 2971.63,634.716 2963.96,639.364 C2951.41,647.034 2942.73,650.869 2937.93,650.869 C2930.26,650.869 2926.42,647.847 2926.42,641.804 C2926.42,641.649 2931.73,623.869 2942.34,588.464 C2948.77,567.158 2952.69,553.29 2954.08,546.86 C2954.31,545.62 2955.9,545.001 2958.85,545.001"/>
<path class="Note" d="M2953.62,674.501 C2957.41,674.501 2959.31,677.406 2959.31,683.217 C2959.31,687.4 2957.33,692.204 2953.38,697.627 C2949.9,702.508 2948.15,710.062 2948.15,720.288 C2948.15,725.169 2949.43,728.423 2951.99,730.05 C2953.77,731.289 2957.1,731.948 2961.98,732.025 C2967.25,732.025 2974.73,729.353 2984.41,724.007 L2986.27,725.866 C2983.79,729.043 2980.81,731.909 2977.32,734.466 C2972.13,738.262 2966.83,740.16 2961.4,740.16 C2953.58,740.16 2947.65,739.037 2943.62,736.79 C2938.59,734.001 2936.07,730.515 2936.07,726.331 C2936.07,714.787 2937.54,702.74 2940.48,690.189 C2941.57,685.619 2943.93,681.435 2947.57,677.639 C2949.66,675.547 2951.68,674.501 2953.62,674.501"/>
<path class="Note" d="M3246.86,495.918 C3250.66,495.918 3252.55,498.824 3252.55,504.634 C3252.55,508.818 3250.58,513.621 3246.63,519.044 C3243.14,523.925 3241.4,531.479 3241.4,541.705 C3241.4,546.586 3242.68,549.84 3245.23,551.467 C3247.01,552.707 3250.35,553.365 3255.23,553.443 C3260.49,553.443 3267.97,550.77 3277.66,545.424 L3279.51,547.284 C3277.04,550.46 3274.05,553.327 3270.57,555.883 C3265.38,559.679 3260.07,561.577 3254.65,561.577 C3246.82,561.577 3240.89,560.454 3236.87,558.207 C3231.83,555.418 3229.31,551.932 3229.31,547.748 C3229.31,536.205 3230.78,524.158 3233.73,511.607 C3234.81,507.036 3237.18,502.852 3240.82,499.056 C3242.91,496.964 3244.92,495.918 3246.86,495.918"/>
<path class="Note" d="M3659.99,812.875 C3662.47,812.875 3664.17,813.494 3665.1,814.734 C3666.5,816.826 3667.19,819.77 3667.19,823.566 C3667.19,827.982 3664.09,838.557 3657.9,855.292 C3647.75,883.725 3642.67,898.793 3642.67,900.498 C3642.67,905.069 3644.49,907.393 3648.13,907.47 C3649.68,907.47 3653.63,905.069 3659.99,900.265 C3666.26,895.694 3671.11,893.409 3674.51,893.409 C3675.91,893.409 3676.61,894.261 3676.61,895.966 C3676.61,898.832 3672.77,902.59 3665.1,907.238 C3652.55,914.908 3643.87,918.743 3639.07,918.743 C3631.4,918.743 3627.56,915.721 3627.56,909.678 C3627.56,909.523 3632.87,891.743 3643.49,856.338 C3649.92,835.032 3653.83,821.164 3655.22,814.734 C3655.46,813.494 3657.04,812.875 3659.99,812.875"/>
<path class="Note" d="M3654.76,585.21 C3658.55,585.21 3660.45,588.115 3660.45,593.925 C3660.45,598.109 3658.48,602.912 3654.53,608.336 C3651.04,613.216 3649.3,620.77 3649.3,630.997 C3649.3,635.878 3650.57,639.132 3653.13,640.758 C3654.91,641.998 3658.24,642.657 3663.13,642.734 C3668.39,642.734 3675.87,640.061 3685.55,634.716 L3687.41,636.575 C3684.93,639.751 3681.95,642.618 3678.47,645.174 C3673.27,648.971 3667.97,650.869 3662.54,650.869 C3654.72,650.869 3648.79,649.745 3644.76,647.499 C3639.73,644.71 3637.21,641.223 3637.21,637.04 C3637.21,625.496 3638.68,613.449 3641.63,600.898 C3642.71,596.327 3645.07,592.144 3648.72,588.347 C3650.81,586.256 3652.82,585.21 3654.76,585.21"/>
<path class="Note" d="M3686.37,755.541 C3688.77,755.541 3690.51,756.045 3691.6,757.052 C3692.84,758.137 3693.46,759.725 3693.46,761.817 C3693.46,764.451 3692.29,766.698 3689.97,768.557 C3679.9,775.685 3669.56,784.749 3658.94,795.75 C3661.34,806.364 3664.29,814.228 3667.77,819.341 C3672.34,826.081 3675.48,829.452 3677.19,829.452 C3678.74,829.452 3680.4,828.483 3682.18,826.546 C3683.42,825.229 3684.62,824.571 3685.79,824.571 C3688.27,824.571 3689.51,825.888 3689.51,828.522 C3689.51,831.311 3687.3,835.107 3682.88,839.91 C3680.48,842.39 3677.96,843.629 3675.33,843.629 C3669.9,843.629 3664.44,838.555 3658.94,828.406 C3653.36,818.179 3649.53,808.534 3647.44,799.469 C3643.56,811.4 3641.63,818.721 3641.63,821.433 C3641.63,826.779 3638.57,829.452 3632.45,829.452 C3629.11,829.452 3627.45,826.353 3627.45,820.155 C3627.45,817.211 3631.13,804.04 3638.49,780.643 C3642.13,769.177 3645.11,761.158 3647.44,756.587 C3647.98,755.658 3649.37,755.193 3651.62,755.193 C3654.25,755.193 3656.08,755.735 3657.08,756.82 C3658.09,757.904 3658.59,760.151 3658.59,763.56 C3658.59,765.264 3656.93,771.152 3653.6,781.224 C3661.89,773.089 3671.22,765.148 3681.6,757.401 C3683.23,756.161 3684.82,755.541 3686.37,755.541"/>
<path class="Note" d="M3654.76,674.501 C3658.55,674.501 3660.45,677.406 3660.45,683.217 C3660.45,687.4 3658.48,692.204 3654.53,697.627 C3651.04,702.508 3649.3,710.062 3649.3,720.288 C3649.3,725.169 3650.57,728.423 3653.13,730.05 C3654.91,731.289 3658.24,731.948 3663.13,732.025 C3668.39,732.025 3675.87,729.353 3685.55,724.007 L3687.41,725.866 C3684.93,729.043 3681.95,731.909 3678.47,734.466 C3673.27,738.262 3667.97,740.16 3662.54,740.16 C3654.72,740.16 3648.79,739.037 3644.76,736.79 C3639.73,734.001 3637.21,730.515 3637.21,726.331 C3637.21,714.787 3638.68,702.74 3641.63,690.189 C3642.71,685.619 3645.07,681.435 3648.72,677.639 C3650.81,675.547 3652.82,674.501 3654.76,674.501"/>
<path class="Clef" transform="matrix(2.3811,0,0,2.3811,212.156,2167.13)" d="M25.4,-25.1 C17.8,-25.1 11.7,-20.7 11.6,-20.7 C5.8,-16.4 3.5,-11.3 2.6,-7.8 C2.1,-6 1.9,-4.2 1.9,-2.5 C1.9,-0.1 2.3,2.1 3.2,4 C4.4,6.7 6.7,8.6 9.7,9.6 C10.9,10 12.2,10.2 13.5,10.2 C15.7,10.2 18,9.6 19.9,8.5 C23,6.8 24.9,3.2 24.9,-0.7 C24.9,-4.2 23.1,-7.4 20.1,-9.3 C18,-10.7 16,-11.1 14.3,-11.1 C13.1,-11.1 12,-10.9 11.1,-10.6 C10.1,-10.2 8.4,-9.2 7.6,-8.5 C7.9,-10.4 9.1,-13.3 10.2,-14.9 C11.3,-16.5 13.5,-18.5 15.2,-19.4 C17.7,-20.8 20.9,-21.4 24.4,-21.4 C34.6,-21.4 39.6,-13.2 39.6,3.6 C39.6,12.9 36.1,21.8 33.1,27.7 C29.8,34.3 25.4,40.6 21.5,44.1 C11.1,53.6 1.3,58.1 1.2,58.1 C1.2,58.1 -0.3,59 0.1,60.5 C0.4,61.5 1.3,61.7 1.9,61.7 C2,61.7 2.3,61.6 2.4,61.6 C2.5,61.6 13.9,56.9 23,49.8 C28.1,46.1 32.7,42.1 36.7,37.8 C40.3,33.9 43.4,29.7 45.9,25.5 C50.3,18 52.8,10.2 52.8,3.5 C52.8,-4.8 50.6,-11.7 46.5,-16.6 C41.8,-22.2 34.7,-25.1 25.4,-25.1 M56.8,-12.4 C56.8,-9.6 59,-7.4 61.6,-7.4 C64.2,-7.4 66.4,-9.6 66.4,-12.4 C66.4,-15.2 64.2,-17.5 61.6,-17.5 C59,-17.5 56.8,-15.2 56.8,-12.4 M56.8,12.3 C56.8,15.1 59,17.4 61.6,17.4 C64.2,17.4 66.4,15.1 66.4,12.3 C66.4,9.5 64.2,7.2 61.6,7.2 C59,7.2 56.8,9.5 56.8,12.3"/>
<path class="Clef" transform="matrix(2.3811,0,0,2.3811,212.156,1578.73)" d="M63.37,-5.89004 C62.14,-11.32 59.5,-15.14 58.72,-16.1801 C55.5301,-20.45 51.52,-23.3 46.8301,-24.65 C43.72,-25.54 40.72,-25.65 38.3,-25.47 C37.2601,-31.4801 36.2601,-37.3601 35.35,-42.8101 C40.79,-48.97 44.42,-54.77 46.69,-59.07 C50.1601,-65.65 51.3101,-70.2301 51.3601,-70.4301 C53.0801,-75.64 53.44,-83.34 52.34,-91.55 C51.3301,-99.1 49.24,-105.81 46.89,-109.06 C45.8601,-110.49 44.8101,-111.22 43.77,-111.22 C42.55,-111.22 40.04,-109.98 37.15,-107.21 C34.85,-105.01 31.5801,-101.12 29.02,-95.1101 C26.02,-88.05 25.8101,-78.5601 26.1601,-71.84 C26.54,-64.57 27.65,-58.8801 27.6601,-58.8301 C27.6801,-58.74 27.94,-57.24 28.39,-54.67 C28.1601,-54.44 27.92,-54.22 27.67,-53.9801 C26.6301,-52.9801 25.44,-51.84 24.0601,-50.4601 C23.2,-49.6 22.25,-48.69 21.25,-47.72 C12.79,-39.57 0,-27.25 0,-8.1 C0,-3.4 0.9,1.01992 2.68008,5.02998 C4.27002,8.62998 6.57002,11.91 9.5,14.78 C17.2301,22.33 27.82,25.5399 34.8801,25.38 C37.8301,25.31 40.4601,25.0699 42.85,24.6199 C44.6801,34.2199 45.82,41.25 45.8601,46.5899 C45.9,53.1 44.25,57.0699 40.35,59.8399 C37.92,61.5699 35.1101,62.5199 32.0101,62.6699 C29.42,62.7899 27.1601,62.3199 25.7301,61.91 L25.72,61.91 C25.72,61.91 25.4301,61.83 25.42,61.63 C25.4101,61.45 25.7601,61.4 25.77,61.4 L25.79,61.4 C27.7101,60.96 31.2801,59.73 33.64,56.43 C35.44,53.91 36.3101,49.2899 34.47,45.35 C33.3601,42.96 30.85,40.01 25.2301,39.56 C22.74,39.36 20.47,39.8699 18.47,41.0699 C16.6601,42.15 15.1601,43.7899 14.1101,45.7899 C11.65,50.4899 12.1101,56.2199 15.24,60.06 C18.2,63.68 22.82,65.9899 28.25,66.5699 C29.1,66.66 29.95,66.7 30.8,66.7 C31.5101,66.7 32.22,66.6699 32.92,66.61 C31.72,66.9399 30.64,67.4899 29.77,68.25 C28.2801,69.5399 27.44,71.38 27.44,73.41 C27.44,75.28 28.0601,76.65 29.55,78.0399 C28.4101,78.5 27.55,78.98 26.79,79.56 C25.25,80.73 24.34,82.46 24.34,84.1899 C24.34,87.45 27.3,89.63 31.72,89.63 C37.1301,89.63 40.9101,86.63 40.9101,82.35 C40.9101,80.1199 39.9101,78.18 38.0801,76.83 C41.0101,75.6199 42.37,73.9399 42.37,71.56 C42.39,70.05 41.69,68.61 40.49,67.6899 C39.2801,66.7399 37.62,66.2399 35.69,66.2399 L35.5101,66.2399 C38.2801,65.7 40.92,64.7 43.2101,63.28 C46.87,60.71 48.99,56.73 49.67,51.1 C50.2301,46.46 49.84,40.55 48.44,32.48 C48.0801,30.3899 47.54,27.36 46.8801,23.6 C52.6301,21.68 56.79,18.11 60.5601,12.26 C63.85,6.51992 64.8,0.419922 63.37,-5.89004 M32.39,87.5399 C30.19,87.5399 28.7301,86.1199 28.7301,84.01 C28.7301,82.11 29.65,80.5 31.32,79.4699 C31.6801,79.66 31.77,79.71 32.1101,79.88 C33.3,80.48 33.3,80.48 33.55,80.63 L33.5601,80.6399 C35.47,81.73 36.25,82.76 36.25,84.18 C36.24,86.0899 34.59,87.5399 32.39,87.5399 M38.3101,71.63 C38.3101,73.2699 37.7301,74.3399 36.1801,75.53 C34.74,74.78 34.35,74.56 33.9801,74.3399 L33.8801,74.28 C32.3301,73.3399 31.85,72.66 31.85,71.4 C31.85,69.6 33.2301,68.3399 35.19,68.3399 C37.17,68.35 38.3101,69.55 38.3101,71.63 M33.15,-83.8101 C34.9301,-89.55 37.67,-92.8 39.6601,-94.5301 C41.4101,-96.05 43.0601,-96.7601 43.9801,-96.7601 C44.12,-96.7601 44.24,-96.74 44.34,-96.7101 C44.8,-96.57 45.3301,-96 45.8,-95.1301 C48.1101,-90.84 47.37,-84.1301 46.0301,-79.69 C44.4,-74.29 41.4801,-68.6801 32.69,-59.0601 C32.52,-60.17 32.3601,-61.22 32.2101,-62.2 C30.95,-70.49 31.27,-77.7601 33.15,-83.8101 M29.15,20.31 C24.5101,19.0899 20.0801,16.5899 16.32,13.0899 C15.0101,11.86 13.14,9.68994 11.67,6.3 C10.3101,3.13994 9.65,-0.290039 9.7,-3.88008 C9.77002,-8.57002 11.0801,-13.39 13.59,-18.1801 C16.5101,-23.7601 21.07,-29.29 27.1301,-34.62 C28.5801,-35.9 29.95,-37.1801 31.24,-38.4601 C32,-34.2 32.8301,-29.5101 33.7101,-24.6301 C29.8601,-23.3601 25.1101,-20.2101 22,-14.5601 C18.47,-7.99004 18.6101,-2.47002 19.34,1.00996 C20.2801,5.46992 22.8101,9.22998 26.27,11.3199 C27.2,11.88 31.3301,14.01 33.17,13.43 C33.54,13.31 33.8101,13.0899 33.95,12.76 C34.4601,11.5899 33.44,10.95 31.8801,9.98994 C31.2801,9.61992 30.6101,9.2 29.8801,8.66992 C26.5601,6.17998 25.1101,1.72998 26.1801,-2.65 C26.7601,-5.05 28.04,-7.21006 29.8801,-8.91006 C31.55,-10.4601 33.59,-11.5601 35.97,-12.2 C38.0101,-0.960059 40.07,10.1899 41.7101,18.55 C41.84,19.2399 41.9801,19.91 42.1101,20.58 C37.7101,21.51 33.37,21.4199 29.15,20.31 M54.9,10.1 C53.7301,13.28 51.27,17.35 46.14,19.41 C46.07,18.9899 45.99,18.56 45.9101,18.13 C44.3601,9.36992 42.4301,-1.61006 40.47,-12.87 C50.82,-13.35 55.09,-5.91006 55.9801,-1.08008 C56.45,1.45 56.45,5.88994 54.9,10.1"/>
<path class="FiguredBass" d="M1714.39,2480.89 C1709.81,2480.89 1706.76,2482.73 1705.25,2486.41 C1703.73,2490.09 1702.97,2495.31 1702.97,2502.05 L1702.97,2512.99 C1706.19,2511.7 1708.97,2511.01 1711.32,2510.95 C1719.36,2510.95 1725.69,2512.73 1730.3,2516.29 C1734.9,2519.84 1737.21,2525.13 1737.21,2532.15 C1737.21,2539.17 1734.87,2544.48 1730.2,2548.06 C1725.53,2551.65 1719.24,2553.44 1711.32,2553.44 C1703.22,2553.44 1696.88,2549.69 1692.31,2542.17 C1687.73,2534.66 1685.44,2525.73 1685.44,2515.41 C1685.44,2505.14 1688.1,2496.23 1693.42,2488.69 C1698.74,2481.14 1705.73,2477.37 1714.39,2477.37 C1720.08,2477.37 1724.99,2478.81 1729.14,2481.68 C1733.28,2484.56 1735.35,2488.35 1735.35,2493.05 C1735.35,2495.77 1734.36,2498.12 1732.38,2500.1 C1730.4,2502.08 1728.04,2503.07 1725.29,2503.07 C1722.53,2503.07 1720.17,2502.08 1718.19,2500.1 C1716.21,2498.12 1715.22,2495.77 1715.22,2493.05 C1715.22,2490.39 1716.21,2488.04 1718.19,2486 C1718.87,2485.19 1719.83,2484.51 1721.07,2483.96 C1720.76,2483.15 1720.14,2482.53 1719.21,2482.1 C1717.85,2481.3 1716.24,2480.89 1714.39,2480.89 M1718.93,2518.84 C1717.82,2515.93 1715.37,2514.48 1711.6,2514.48 C1707.83,2514.48 1705.49,2515.93 1704.6,2518.84 C1703.7,2521.75 1703.25,2526.17 1703.25,2532.11 C1703.25,2539.09 1703.7,2543.79 1704.6,2546.21 C1705.49,2548.62 1707.83,2549.82 1711.6,2549.82 C1715.37,2549.82 1717.82,2548.37 1718.93,2545.46 C1720.04,2542.56 1720.6,2538.12 1720.6,2532.15 C1720.6,2526.18 1720.04,2521.75 1718.93,2518.84"/>
<path class="FiguredBass" d="M1713.74,2585.07 C1716.09,2585.07 1718.56,2584.73 1721.16,2584.05 L1725.33,2582.93 C1726.14,2582.93 1726.77,2583.24 1727.23,2583.86 C1727.7,2584.48 1727.65,2585.04 1727.1,2585.53 L1683.96,2635.72 L1709.28,2635.72 L1709.28,2615.87 C1709.28,2614.45 1709.67,2613.35 1710.44,2612.57 C1711.22,2611.8 1712.21,2611.18 1713.41,2610.72 C1714.62,2610.26 1716.19,2608.88 1718.14,2606.59 C1720.09,2604.3 1721.96,2601.21 1723.76,2597.31 C1724.06,2596.69 1724.53,2596.39 1725.15,2596.39 C1726.45,2596.39 1727.1,2597.1 1727.1,2598.52 L1727.1,2635.72 L1738.04,2635.72 C1739.59,2635.72 1740.36,2636.43 1740.36,2637.86 C1740.36,2639.4 1739.59,2640.17 1738.04,2640.17 L1727.1,2640.17 L1727.1,2641.38 C1727.1,2645.22 1728.12,2648.56 1730.16,2651.4 C1732.2,2654.25 1734.83,2655.67 1738.04,2655.67 C1739.28,2655.67 1739.9,2656.22 1739.9,2657.34 C1739.9,2658.57 1739.28,2659.19 1738.04,2659.19 C1735.82,2659.19 1732.51,2658.87 1728.12,2658.22 C1723.72,2657.57 1720.4,2657.24 1718.14,2657.24 C1715.89,2657.24 1712.56,2657.57 1708.17,2658.22 C1703.78,2658.87 1700.47,2659.19 1698.24,2659.19 C1697.01,2659.19 1696.39,2658.57 1696.39,2657.34 C1696.39,2656.22 1697.01,2655.67 1698.24,2655.67 C1701.46,2655.67 1704.1,2654.25 1706.17,2651.4 C1708.25,2648.56 1709.28,2645.22 1709.28,2641.38 L1709.28,2640.17 L1683.96,2640.17 C1682.35,2640.17 1681.16,2639.79 1680.38,2639.01 C1679.61,2638.24 1679.22,2637.45 1679.22,2636.65 C1679.22,2636.34 1679.95,2635.27 1681.4,2633.45 C1682.86,2631.62 1684.64,2629.2 1686.74,2626.17 C1688.84,2623.14 1690.93,2619.69 1693,2615.82 C1695.07,2611.96 1696.84,2607.32 1698.29,2601.91 C1699.74,2596.49 1700.47,2591.04 1700.47,2585.53 C1700.47,2583.92 1701.15,2583.12 1702.51,2583.12 C1702.7,2583.12 1703.35,2583.27 1704.46,2583.58 C1705.57,2583.89 1706.99,2584.22 1708.73,2584.56 C1710.46,2584.9 1712.13,2585.07 1713.74,2585.07"/>
<path class="FiguredBass" d="M2385.22,2479.32 C2387.57,2479.32 2390.04,2478.98 2392.64,2478.3 L2396.81,2477.18 C2397.62,2477.18 2398.25,2477.49 2398.72,2478.11 C2399.18,2478.73 2399.13,2479.29 2398.58,2479.78 L2355.44,2529.97 L2380.76,2529.97 L2380.76,2510.12 C2380.76,2508.7 2381.15,2507.6 2381.92,2506.82 C2382.7,2506.05 2383.69,2505.43 2384.89,2504.97 C2386.1,2504.51 2387.68,2503.13 2389.62,2500.84 C2391.57,2498.55 2393.44,2495.46 2395.24,2491.56 C2395.55,2490.94 2396.01,2490.64 2396.63,2490.64 C2397.93,2490.64 2398.58,2491.35 2398.58,2492.77 L2398.58,2529.97 L2409.52,2529.97 C2411.07,2529.97 2411.84,2530.68 2411.84,2532.11 C2411.84,2533.65 2411.07,2534.42 2409.52,2534.42 L2398.58,2534.42 L2398.58,2535.63 C2398.58,2539.47 2399.6,2542.81 2401.64,2545.65 C2403.68,2548.5 2406.31,2549.92 2409.52,2549.92 C2410.76,2549.92 2411.38,2550.47 2411.38,2551.59 C2411.38,2552.82 2410.76,2553.44 2409.52,2553.44 C2407.3,2553.44 2403.99,2553.12 2399.6,2552.47 C2395.21,2551.82 2391.88,2551.49 2389.62,2551.49 C2387.37,2551.49 2384.04,2551.82 2379.65,2552.47 C2375.26,2553.12 2371.95,2553.44 2369.72,2553.44 C2368.49,2553.44 2367.87,2552.82 2367.87,2551.59 C2367.87,2550.47 2368.49,2549.92 2369.72,2549.92 C2372.94,2549.92 2375.58,2548.5 2377.66,2545.65 C2379.73,2542.81 2380.76,2539.47 2380.76,2535.63 L2380.76,2534.42 L2355.44,2534.42 C2353.83,2534.42 2352.64,2534.04 2351.86,2533.26 C2351.09,2532.49 2350.7,2531.7 2350.7,2530.9 C2350.7,2530.59 2351.43,2529.52 2352.89,2527.7 C2354.34,2525.87 2356.12,2523.45 2358.22,2520.42 C2360.32,2517.39 2362.41,2513.94 2364.48,2510.07 C2366.55,2506.21 2368.32,2501.57 2369.77,2496.16 C2371.22,2490.74 2371.95,2485.29 2371.95,2479.78 C2371.95,2478.17 2372.63,2477.37 2373.99,2477.37 C2374.18,2477.37 2374.83,2477.52 2375.94,2477.83 C2377.05,2478.14 2378.48,2478.47 2380.21,2478.81 C2381.94,2479.15 2383.61,2479.32 2385.22,2479.32"/>
<path class="FiguredBass" d="M2962.33,2513.09 C2962.33,2514.08 2962.89,2515.03 2964,2515.96 C2965.12,2516.89 2966.34,2517.77 2967.67,2518.61 C2969,2519.44 2970.22,2521.02 2971.33,2523.34 C2972.44,2525.66 2973,2528.58 2973,2532.11 C2973,2538.91 2970.43,2544.17 2965.3,2547.88 C2960.17,2551.59 2953.67,2553.44 2945.82,2553.44 C2939.51,2553.44 2934.02,2551.87 2929.35,2548.71 C2924.68,2545.56 2922.35,2541.41 2922.35,2536.28 C2922.35,2533.56 2923.34,2531.19 2925.32,2529.18 C2927.3,2527.17 2929.66,2526.17 2932.41,2526.17 C2935.17,2526.17 2937.5,2527.16 2939.42,2529.14 C2941.33,2531.12 2942.29,2533.5 2942.29,2536.28 C2942.29,2537.52 2941.27,2538.86 2939.23,2540.32 C2937.19,2541.77 2936.17,2543.11 2936.17,2544.35 C2936.17,2546.27 2937.11,2547.68 2939,2548.57 C2940.89,2549.47 2943.16,2549.92 2945.82,2549.92 C2949.28,2549.92 2951.74,2548.2 2953.19,2544.77 C2954.65,2541.34 2955.37,2537.12 2955.37,2532.11 L2955.37,2529.69 C2955.37,2526.35 2955.27,2523.82 2955.05,2522.09 C2954.83,2520.35 2954.15,2518.81 2953.01,2517.45 C2951.86,2516.09 2950.12,2515.41 2947.77,2515.41 L2935.61,2515.41 C2934.19,2515.41 2933.48,2514.63 2933.48,2513.09 C2933.48,2511.66 2934.19,2510.95 2935.61,2510.95 L2947.77,2510.95 C2950.3,2510.95 2952.28,2509.99 2953.7,2508.08 C2954.2,2507.4 2954.6,2506.28 2954.91,2504.74 C2955.22,2502.7 2955.37,2499.76 2955.37,2495.92 L2955.37,2494.72 C2955.37,2485.5 2951.97,2480.89 2945.17,2480.89 C2939.17,2480.89 2936.17,2482.56 2936.17,2485.9 C2936.17,2487.02 2937.08,2488.21 2938.91,2489.48 C2940.73,2490.74 2941.64,2491.93 2941.64,2493.05 C2941.64,2495.46 2940.79,2497.53 2939.09,2499.26 C2937.39,2501 2935.32,2501.86 2932.88,2501.86 C2930.43,2501.86 2928.38,2501 2926.71,2499.26 C2925.04,2497.53 2924.2,2495.46 2924.2,2493.05 C2924.2,2488.29 2926.27,2484.48 2930.42,2481.64 C2934.56,2478.79 2939.48,2477.37 2945.17,2477.37 C2952.65,2477.37 2958.81,2478.81 2963.63,2481.68 C2968.46,2484.56 2970.87,2488.9 2970.87,2494.72 C2970.87,2498.86 2970.43,2502.08 2969.57,2504.37 C2968.7,2506.65 2967.71,2508.05 2966.6,2508.54 C2965.49,2509.04 2964.5,2509.61 2963.63,2510.26 C2962.77,2510.91 2962.33,2511.85 2962.33,2513.09"/>
<path class="FiguredBass" d="M3220.6,2484.23 C3220.79,2484.23 3221.19,2483.83 3221.81,2483.03 C3224.47,2479.26 3228.18,2477.37 3232.94,2477.37 C3236.77,2477.37 3240.39,2478.79 3243.79,2481.64 C3247.2,2484.48 3250.01,2485.9 3252.24,2485.9 C3254.65,2485.9 3256.94,2485.19 3259.1,2483.77 C3261.27,2482.35 3262.98,2480.93 3264.25,2479.5 C3265.52,2478.08 3266.34,2477.37 3266.71,2477.37 C3267.33,2477.37 3267.88,2477.57 3268.38,2477.97 C3268.87,2478.37 3269.12,2478.88 3269.12,2479.5 C3269.12,2479.94 3267.85,2482.07 3265.32,2485.9 C3262.78,2489.74 3259.97,2494.18 3256.87,2499.22 C3253.78,2504.26 3250.97,2510.55 3248.43,2518.1 C3245.9,2525.64 3244.63,2532.85 3244.63,2539.71 C3244.63,2542.37 3244.91,2545.43 3245.46,2548.9 C3245.9,2551.56 3245.9,2553.07 3245.46,2553.44 C3245.15,2553.75 3244.63,2553.91 3243.89,2553.91 C3243.58,2553.91 3242.14,2553.5 3239.57,2552.7 C3237.01,2551.9 3234.55,2551.49 3232.2,2551.49 C3230.09,2551.49 3227.67,2551.9 3224.91,2552.7 C3222.16,2553.5 3220.63,2553.91 3220.32,2553.91 C3219.64,2553.91 3219.08,2553.63 3218.65,2553.07 C3218.22,2552.52 3218.16,2551.93 3218.47,2551.31 C3222.12,2542.59 3226.55,2534.1 3231.78,2525.84 C3237.01,2517.59 3243.55,2508.08 3251.4,2497.32 C3248.43,2498.92 3245.43,2499.73 3242.4,2499.73 C3239.19,2499.73 3235.94,2498.29 3232.66,2495.41 C3229.38,2492.54 3226.69,2491.1 3224.59,2491.1 C3223.04,2491.1 3221.7,2491.98 3220.55,2493.74 C3219.41,2495.51 3218.84,2498.15 3218.84,2501.68 L3218.84,2513.09 C3218.84,2514.63 3218.13,2515.41 3216.7,2515.41 C3215.16,2515.41 3214.38,2514.63 3214.38,2513.09 L3214.38,2479.69 C3214.38,2478.14 3215.16,2477.37 3216.7,2477.37 C3218.13,2477.37 3218.84,2478.14 3218.84,2479.69 L3218.84,2481.82 C3218.84,2482.32 3218.96,2482.75 3219.21,2483.12 C3219.95,2483.86 3220.41,2484.23 3220.6,2484.23"/>
<path class="FiguredBass" d="M3243.61,2640.92 C3242.93,2641.66 3242.04,2642.03 3240.92,2642.03 C3239.81,2642.03 3238.9,2641.64 3238.19,2640.87 C3237.47,2640.1 3237.12,2639.22 3237.12,2638.23 L3237.12,2624.96 L3223.85,2624.96 C3222.74,2624.96 3221.83,2624.57 3221.12,2623.8 C3220.4,2623.03 3220.05,2622.15 3220.05,2621.16 C3220.05,2620.17 3220.4,2619.29 3221.12,2618.51 C3221.83,2617.74 3222.74,2617.35 3223.85,2617.35 L3237.12,2617.35 L3237.12,2604.09 C3237.12,2603.1 3237.47,2602.21 3238.19,2601.44 C3238.9,2600.67 3239.81,2600.28 3240.92,2600.28 C3242.04,2600.28 3242.95,2600.67 3243.66,2601.44 C3244.37,2602.21 3244.73,2603.1 3244.73,2604.09 L3244.73,2617.35 L3257.99,2617.35 C3259.11,2617.35 3260.02,2617.74 3260.73,2618.51 C3261.44,2619.29 3261.8,2620.17 3261.8,2621.16 C3261.8,2622.15 3261.44,2623.03 3260.73,2623.8 C3260.02,2624.57 3259.11,2624.96 3257.99,2624.96 L3244.73,2624.96 L3244.73,2638.23 C3244.73,2639.22 3244.36,2640.11 3243.61,2640.92"/>
<path class="FiguredBass" d="M1722.73,1802.2 C1727.68,1796.82 1730.16,1791.62 1730.16,1786.62 C1730.16,1782.53 1728.41,1779.32 1724.92,1776.97 C1721.42,1774.62 1717.23,1773.44 1712.34,1773.44 C1708.88,1773.44 1706.11,1774.52 1704.04,1776.69 C1701.97,1778.85 1700.93,1781.36 1700.93,1784.2 C1700.93,1787.67 1702.45,1790.3 1705.48,1792.09 L1722.73,1802.2 M1727.28,1804.8 C1735.69,1809.68 1739.9,1816.12 1739.9,1824.1 C1739.9,1830.09 1737.33,1835.24 1732.2,1839.54 C1727.06,1843.84 1720.04,1845.99 1711.14,1845.99 C1703.65,1845.99 1697.14,1844.01 1691.61,1840.05 C1686.07,1836.09 1683.31,1830.96 1683.31,1824.65 C1683.31,1822.3 1683.99,1819.92 1685.35,1817.51 C1686.71,1815.1 1687.98,1813.29 1689.15,1812.08 C1690.33,1810.88 1692.24,1809 1694.9,1806.47 C1688.72,1802.2 1685.63,1796.82 1685.63,1790.33 C1685.63,1784.76 1688.01,1779.97 1692.77,1775.95 C1697.53,1771.93 1704.06,1769.92 1712.34,1769.92 C1718.96,1769.92 1724.7,1771.42 1729.55,1774.42 C1734.41,1777.41 1736.84,1781.48 1736.84,1786.62 C1736.84,1792.12 1733.65,1798.18 1727.28,1804.8 M1699.45,1809.16 C1693.14,1814.66 1689.99,1819.83 1689.99,1824.65 C1689.99,1829.72 1692.09,1833.96 1696.29,1837.36 C1700.5,1840.76 1705.45,1842.46 1711.14,1842.46 C1715.1,1842.46 1718.27,1841.2 1720.65,1838.66 C1723.03,1836.13 1724.22,1833.19 1724.22,1829.85 C1724.22,1825.58 1722.46,1822.43 1718.93,1820.38 L1699.45,1809.16 "/>
<path class="FiguredBass" d="M1714.39,1879.19 C1709.81,1879.19 1706.76,1881.03 1705.25,1884.71 C1703.73,1888.39 1702.97,1893.6 1702.97,1900.34 L1702.97,1911.29 C1706.19,1909.99 1708.97,1909.31 1711.32,1909.25 C1719.36,1909.25 1725.69,1911.03 1730.3,1914.58 C1734.9,1918.14 1737.21,1923.43 1737.21,1930.45 C1737.21,1937.47 1734.87,1942.77 1730.2,1946.36 C1725.53,1949.95 1719.24,1951.74 1711.32,1951.74 C1703.22,1951.74 1696.88,1947.98 1692.31,1940.47 C1687.73,1932.95 1685.44,1924.03 1685.44,1913.7 C1685.44,1903.44 1688.1,1894.53 1693.42,1886.98 C1698.74,1879.44 1705.73,1875.67 1714.39,1875.67 C1720.08,1875.67 1724.99,1877.1 1729.14,1879.98 C1733.28,1882.86 1735.35,1886.64 1735.35,1891.34 C1735.35,1894.07 1734.36,1896.42 1732.38,1898.4 C1730.4,1900.37 1728.04,1901.36 1725.29,1901.36 C1722.53,1901.36 1720.17,1900.37 1718.19,1898.4 C1716.21,1896.42 1715.22,1894.07 1715.22,1891.34 C1715.22,1888.68 1716.21,1886.33 1718.19,1884.29 C1718.87,1883.49 1719.83,1882.81 1721.07,1882.25 C1720.76,1881.45 1720.14,1880.83 1719.21,1880.4 C1717.85,1879.59 1716.24,1879.19 1714.39,1879.19 M1718.93,1917.14 C1717.82,1914.23 1715.37,1912.78 1711.6,1912.78 C1707.83,1912.78 1705.49,1914.23 1704.6,1917.14 C1703.7,1920.04 1703.25,1924.46 1703.25,1930.4 C1703.25,1937.39 1703.7,1942.09 1704.6,1944.5 C1705.49,1946.92 1707.83,1948.12 1711.6,1948.12 C1715.37,1948.12 1717.82,1946.67 1718.93,1943.76 C1720.04,1940.85 1720.6,1936.42 1720.6,1930.45 C1720.6,1924.48 1720.04,1920.04 1718.93,1917.14"/>
<path class="FiguredBass" d="M1713.74,1983.36 C1716.09,1983.36 1718.56,1983.02 1721.16,1982.34 L1725.33,1981.23 C1726.14,1981.23 1726.77,1981.54 1727.23,1982.16 C1727.7,1982.78 1727.65,1983.33 1727.1,1983.83 L1683.96,2034.02 L1709.28,2034.02 L1709.28,2014.16 C1709.28,2012.74 1709.67,2011.64 1710.44,2010.87 C1711.22,2010.1 1712.21,2009.48 1713.41,2009.02 C1714.62,2008.55 1716.19,2007.18 1718.14,2004.89 C1720.09,2002.6 1721.96,1999.51 1723.76,1995.61 C1724.06,1994.99 1724.53,1994.68 1725.15,1994.68 C1726.45,1994.68 1727.1,1995.39 1727.1,1996.82 L1727.1,2034.02 L1738.04,2034.02 C1739.59,2034.02 1740.36,2034.73 1740.36,2036.15 C1740.36,2037.7 1739.59,2038.47 1738.04,2038.47 L1727.1,2038.47 L1727.1,2039.68 C1727.1,2043.51 1728.12,2046.85 1730.16,2049.7 C1732.2,2052.54 1734.83,2053.96 1738.04,2053.96 C1739.28,2053.96 1739.9,2054.52 1739.9,2055.63 C1739.9,2056.87 1739.28,2057.49 1738.04,2057.49 C1735.82,2057.49 1732.51,2057.17 1728.12,2056.52 C1723.72,2055.87 1720.4,2055.54 1718.14,2055.54 C1715.89,2055.54 1712.56,2055.87 1708.17,2056.52 C1703.78,2057.17 1700.47,2057.49 1698.24,2057.49 C1697.01,2057.49 1696.39,2056.87 1696.39,2055.63 C1696.39,2054.52 1697.01,2053.96 1698.24,2053.96 C1701.46,2053.96 1704.1,2052.54 1706.17,2049.7 C1708.25,2046.85 1709.28,2043.51 1709.28,2039.68 L1709.28,2038.47 L1683.96,2038.47 C1682.35,2038.47 1681.16,2038.08 1680.38,2037.31 C1679.61,2036.54 1679.22,2035.75 1679.22,2034.95 C1679.22,2034.64 1679.95,2033.57 1681.4,2031.75 C1682.86,2029.92 1684.64,2027.49 1686.74,2024.46 C1688.84,2021.43 1690.93,2017.98 1693,2014.12 C1695.07,2010.25 1696.84,2005.61 1698.29,2000.2 C1699.74,1994.79 1700.47,1989.33 1700.47,1983.83 C1700.47,1982.22 1701.15,1981.42 1702.51,1981.42 C1702.7,1981.42 1703.35,1981.57 1704.46,1981.88 C1705.57,1982.19 1706.99,1982.51 1708.73,1982.85 C1710.46,1983.19 1712.13,1983.36 1713.74,1983.36"/>
<path class="FiguredBass" d="M2394.22,1802.2 C2399.16,1796.82 2401.64,1791.62 2401.64,1786.62 C2401.64,1782.53 2399.89,1779.32 2396.4,1776.97 C2392.9,1774.62 2388.71,1773.44 2383.82,1773.44 C2380.36,1773.44 2377.59,1774.52 2375.52,1776.69 C2373.45,1778.85 2372.41,1781.36 2372.41,1784.2 C2372.41,1787.67 2373.93,1790.3 2376.96,1792.09 L2394.22,1802.2 M2398.76,1804.8 C2407.17,1809.68 2411.38,1816.12 2411.38,1824.1 C2411.38,1830.09 2408.81,1835.24 2403.68,1839.54 C2398.55,1843.84 2391.53,1845.99 2382.62,1845.99 C2375.14,1845.99 2368.63,1844.01 2363.09,1840.05 C2357.55,1836.09 2354.79,1830.96 2354.79,1824.65 C2354.79,1822.3 2355.47,1819.92 2356.83,1817.51 C2358.19,1815.1 2359.46,1813.29 2360.63,1812.08 C2361.81,1810.88 2363.72,1809 2366.38,1806.47 C2360.2,1802.2 2357.11,1796.82 2357.11,1790.33 C2357.11,1784.76 2359.49,1779.97 2364.25,1775.95 C2369.01,1771.93 2375.54,1769.92 2383.82,1769.92 C2390.44,1769.92 2396.18,1771.42 2401.03,1774.42 C2405.89,1777.41 2408.32,1781.48 2408.32,1786.62 C2408.32,1792.12 2405.13,1798.18 2398.76,1804.8 M2370.93,1809.16 C2364.62,1814.66 2361.47,1819.83 2361.47,1824.65 C2361.47,1829.72 2363.57,1833.96 2367.78,1837.36 C2371.98,1840.76 2376.93,1842.46 2382.62,1842.46 C2386.58,1842.46 2389.75,1841.2 2392.13,1838.66 C2394.51,1836.13 2395.7,1833.19 2395.7,1829.85 C2395.7,1825.58 2393.94,1822.43 2390.41,1820.38 L2370.93,1809.16 "/>
<path class="FiguredBass" d="M2363.23,1875.67 C2363.23,1875.67 2364.71,1875.88 2367.68,1876.32 C2368.98,1876.5 2370.43,1876.69 2372.04,1876.87 C2376.31,1877.37 2380.42,1877.61 2384.38,1877.61 C2388.34,1877.61 2392.51,1877.37 2396.91,1876.87 C2398.64,1876.69 2400.15,1876.5 2401.45,1876.32 L2406,1875.67 C2406.93,1875.67 2407.62,1875.98 2408.09,1876.59 C2408.55,1877.21 2408.5,1877.71 2407.95,1878.08 C2398.48,1887.54 2385.15,1892.27 2367.96,1892.27 C2367.28,1892.27 2366.68,1892.52 2366.15,1893.01 C2365.63,1893.51 2365.36,1894.13 2365.36,1894.87 L2365.36,1909.44 C2369.75,1905.11 2375.07,1902.94 2381.32,1902.94 C2390.35,1902.94 2397.32,1904.97 2402.24,1909.02 C2407.16,1913.07 2409.62,1919.21 2409.62,1927.43 C2409.62,1934.42 2406.83,1940.22 2401.27,1944.83 C2395.7,1949.44 2389.05,1951.74 2381.32,1951.74 C2374.64,1951.74 2368.84,1950.22 2363.93,1947.19 C2359.01,1944.16 2356.55,1939.96 2356.55,1934.58 C2356.55,1931.86 2357.54,1929.49 2359.52,1927.48 C2361.5,1925.47 2363.86,1924.46 2366.62,1924.46 C2369.37,1924.46 2371.7,1925.45 2373.62,1927.43 C2375.54,1929.41 2376.5,1931.79 2376.5,1934.58 C2376.5,1935.81 2375.48,1937.16 2373.43,1938.61 C2371.39,1940.07 2370.37,1941.41 2370.37,1942.65 C2370.37,1946.36 2374.02,1948.21 2381.32,1948.21 C2388.43,1948.21 2391.99,1941.29 2391.99,1927.43 C2391.99,1914.07 2388.43,1907.36 2381.32,1907.3 C2374.95,1907.3 2370.5,1908.6 2367.96,1911.2 C2365.42,1913.8 2363.85,1915.09 2363.23,1915.09 C2361.68,1915.09 2360.94,1914.32 2361,1912.78 L2361,1878.08 C2361,1877.4 2361.22,1876.83 2361.65,1876.36 C2362.09,1875.9 2362.61,1875.67 2363.23,1875.67"/>
<path class="FiguredBass" d="M2385.22,1983.36 C2387.57,1983.36 2390.04,1983.02 2392.64,1982.34 L2396.81,1981.23 C2397.62,1981.23 2398.25,1981.54 2398.72,1982.16 C2399.18,1982.78 2399.13,1983.33 2398.58,1983.83 L2355.44,2034.02 L2380.76,2034.02 L2380.76,2014.16 C2380.76,2012.74 2381.15,2011.64 2381.92,2010.87 C2382.7,2010.1 2383.69,2009.48 2384.89,2009.02 C2386.1,2008.55 2387.68,2007.18 2389.62,2004.89 C2391.57,2002.6 2393.44,1999.51 2395.24,1995.61 C2395.55,1994.99 2396.01,1994.68 2396.63,1994.68 C2397.93,1994.68 2398.58,1995.39 2398.58,1996.82 L2398.58,2034.02 L2409.52,2034.02 C2411.07,2034.02 2411.84,2034.73 2411.84,2036.15 C2411.84,2037.7 2411.07,2038.47 2409.52,2038.47 L2398.58,2038.47 L2398.58,2039.68 C2398.58,2043.51 2399.6,2046.85 2401.64,2049.7 C2403.68,2052.54 2406.31,2053.96 2409.52,2053.96 C2410.76,2053.96 2411.38,2054.52 2411.38,2055.63 C2411.38,2056.87 2410.76,2057.49 2409.52,2057.49 C2407.3,2057.49 2403.99,2057.17 2399.6,2056.52 C2395.21,2055.87 2391.88,2055.54 2389.62,2055.54 C2387.37,2055.54 2384.04,2055.87 2379.65,2056.52 C2375.26,2057.17 2371.95,2057.49 2369.72,2057.49 C2368.49,2057.49 2367.87,2056.87 2367.87,2055.63 C2367.87,2054.52 2368.49,2053.96 2369.72,2053.96 C2372.94,2053.96 2375.58,2052.54 2377.66,2049.7 C2379.73,2046.85 2380.76,2043.51 2380.76,2039.68 L2380.76,2038.47 L2355.44,2038.47 C2353.83,2038.47 2352.64,2038.08 2351.86,2037.31 C2351.09,2036.54 2350.7,2035.75 2350.7,2034.95 C2350.7,2034.64 2351.43,2033.57 2352.89,2031.75 C2354.34,2029.92 2356.12,2027.49 2358.22,2024.46 C2360.32,2021.43 2362.41,2017.98 2364.48,2014.12 C2366.55,2010.25 2368.32,2005.61 2369.77,2000.2 C2371.22,1994.79 2371.95,1989.33 2371.95,1983.83 C2371.95,1982.22 2372.63,1981.42 2373.99,1981.42 C2374.18,1981.42 2374.83,1981.57 2375.94,1981.88 C2377.05,1982.19 2378.48,1982.51 2380.21,1982.85 C2381.94,1983.19 2383.61,1983.36 2385.22,1983.36"/>
<path class="FiguredBass" d="M3252.05,1802.2 C3257,1796.82 3259.47,1791.62 3259.47,1786.62 C3259.47,1782.53 3257.73,1779.32 3254.23,1776.97 C3250.74,1774.62 3246.55,1773.44 3241.66,1773.44 C3238.2,1773.44 3235.43,1774.52 3233.36,1776.69 C3231.28,1778.85 3230.25,1781.36 3230.25,1784.2 C3230.25,1787.67 3231.76,1790.3 3234.79,1792.09 L3252.05,1802.2 M3256.6,1804.8 C3265.01,1809.68 3269.21,1816.12 3269.21,1824.1 C3269.21,1830.09 3266.65,1835.24 3261.51,1839.54 C3256.38,1843.84 3249.36,1845.99 3240.45,1845.99 C3232.97,1845.99 3226.46,1844.01 3220.92,1840.05 C3215.39,1836.09 3212.62,1830.96 3212.62,1824.65 C3212.62,1822.3 3213.3,1819.92 3214.66,1817.51 C3216.02,1815.1 3217.29,1813.29 3218.47,1812.08 C3219.64,1810.88 3221.56,1809 3224.22,1806.47 C3218.03,1802.2 3214.94,1796.82 3214.94,1790.33 C3214.94,1784.76 3217.32,1779.97 3222.08,1775.95 C3226.85,1771.93 3233.37,1769.92 3241.66,1769.92 C3248.28,1769.92 3254.01,1771.42 3258.87,1774.42 C3263.72,1777.41 3266.15,1781.48 3266.15,1786.62 C3266.15,1792.12 3262.97,1798.18 3256.6,1804.8 M3228.76,1809.16 C3222.46,1814.66 3219.3,1819.83 3219.3,1824.65 C3219.3,1829.72 3221.4,1833.96 3225.61,1837.36 C3229.82,1840.76 3234.76,1842.46 3240.45,1842.46 C3244.41,1842.46 3247.58,1841.2 3249.96,1838.66 C3252.34,1836.13 3253.53,1833.19 3253.53,1829.85 C3253.53,1825.58 3251.77,1822.43 3248.25,1820.38 L3228.76,1809.16 "/>
<path class="FiguredBass" d="M3220.6,1882.53 C3220.79,1882.53 3221.19,1882.13 3221.81,1881.32 C3224.47,1877.55 3228.18,1875.67 3232.94,1875.67 C3236.77,1875.67 3240.39,1877.09 3243.79,1879.93 C3247.2,1882.78 3250.01,1884.2 3252.24,1884.2 C3254.65,1884.2 3256.94,1883.49 3259.1,1882.07 C3261.27,1880.64 3262.98,1879.22 3264.25,1877.8 C3265.52,1876.38 3266.34,1875.67 3266.71,1875.67 C3267.33,1875.67 3267.88,1875.87 3268.38,1876.27 C3268.87,1876.67 3269.12,1877.18 3269.12,1877.8 C3269.12,1878.23 3267.85,1880.37 3265.32,1884.2 C3262.78,1888.04 3259.97,1892.47 3256.87,1897.51 C3253.78,1902.55 3250.97,1908.85 3248.43,1916.39 C3245.9,1923.94 3244.63,1931.14 3244.63,1938.01 C3244.63,1940.67 3244.91,1943.73 3245.46,1947.19 C3245.9,1949.85 3245.9,1951.37 3245.46,1951.74 C3245.15,1952.05 3244.63,1952.2 3243.89,1952.2 C3243.58,1952.2 3242.14,1951.8 3239.57,1951 C3237.01,1950.19 3234.55,1949.79 3232.2,1949.79 C3230.09,1949.79 3227.67,1950.19 3224.91,1951 C3222.16,1951.8 3220.63,1952.2 3220.32,1952.2 C3219.64,1952.2 3219.08,1951.93 3218.65,1951.37 C3218.22,1950.81 3218.16,1950.22 3218.47,1949.61 C3222.12,1940.89 3226.55,1932.4 3231.78,1924.14 C3237.01,1915.88 3243.55,1906.37 3251.4,1895.61 C3248.43,1897.22 3245.43,1898.02 3242.4,1898.02 C3239.19,1898.02 3235.94,1896.59 3232.66,1893.71 C3229.38,1890.83 3226.69,1889.4 3224.59,1889.4 C3223.04,1889.4 3221.7,1890.28 3220.55,1892.04 C3219.41,1893.8 3218.84,1896.45 3218.84,1899.97 L3218.84,1911.38 C3218.84,1912.93 3218.13,1913.7 3216.7,1913.7 C3215.16,1913.7 3214.38,1912.93 3214.38,1911.38 L3214.38,1877.99 C3214.38,1876.44 3215.16,1875.67 3216.7,1875.67 C3218.13,1875.67 3218.84,1876.44 3218.84,1877.99 L3218.84,1880.12 C3218.84,1880.61 3218.96,1881.05 3219.21,1881.42 C3219.95,1882.16 3220.41,1882.53 3220.6,1882.53"/>
<path class="FiguredBass" d="M3255.58,2017.13 C3255.58,2018.12 3256.13,2019.08 3257.25,2020.01 C3258.36,2020.94 3259.58,2021.82 3260.91,2022.65 C3262.24,2023.49 3263.46,2025.07 3264.57,2027.39 C3265.69,2029.7 3266.24,2032.63 3266.24,2036.15 C3266.24,2042.96 3263.68,2048.21 3258.54,2051.92 C3253.41,2055.63 3246.92,2057.49 3239.06,2057.49 C3232.75,2057.49 3227.26,2055.91 3222.59,2052.76 C3217.93,2049.6 3215.59,2045.46 3215.59,2040.33 C3215.59,2037.61 3216.58,2035.24 3218.56,2033.23 C3220.54,2031.22 3222.9,2030.21 3225.66,2030.21 C3228.41,2030.21 3230.74,2031.2 3232.66,2033.18 C3234.58,2035.16 3235.54,2037.54 3235.54,2040.33 C3235.54,2041.56 3234.52,2042.91 3232.48,2044.36 C3230.43,2045.82 3229.41,2047.16 3229.41,2048.4 C3229.41,2050.32 3230.36,2051.72 3232.24,2052.62 C3234.13,2053.52 3236.4,2053.96 3239.06,2053.96 C3242.53,2053.96 3244.98,2052.25 3246.44,2048.82 C3247.89,2045.38 3248.62,2041.16 3248.62,2036.15 L3248.62,2033.74 C3248.62,2030.4 3248.51,2027.86 3248.29,2026.13 C3248.08,2024.4 3247.4,2022.85 3246.25,2021.49 C3245.11,2020.13 3243.36,2019.45 3241.01,2019.45 L3228.86,2019.45 C3227.43,2019.45 3226.72,2018.68 3226.72,2017.13 C3226.72,2015.71 3227.43,2015 3228.86,2015 L3241.01,2015 C3243.55,2015 3245.53,2014.04 3246.95,2012.12 C3247.44,2011.44 3247.84,2010.33 3248.15,2008.78 C3248.46,2006.74 3248.62,2003.81 3248.62,1999.97 L3248.62,1998.76 C3248.62,1989.55 3245.22,1984.94 3238.41,1984.94 C3232.41,1984.94 3229.41,1986.61 3229.41,1989.95 C3229.41,1991.06 3230.33,1992.25 3232.15,1993.52 C3233.98,1994.79 3234.89,1995.98 3234.89,1997.09 C3234.89,1999.51 3234.04,2001.58 3232.34,2003.31 C3230.64,2005.04 3228.56,2005.91 3226.12,2005.91 C3223.68,2005.91 3221.62,2005.04 3219.95,2003.31 C3218.28,2001.58 3217.45,1999.51 3217.45,1997.09 C3217.45,1992.33 3219.52,1988.53 3223.66,1985.68 C3227.81,1982.84 3232.72,1981.42 3238.41,1981.42 C3245.9,1981.42 3252.05,1982.85 3256.87,1985.73 C3261.7,1988.61 3264.11,1992.95 3264.11,1998.76 C3264.11,2002.91 3263.68,2006.12 3262.81,2008.41 C3261.95,2010.7 3260.96,2012.09 3259.84,2012.59 C3258.73,2013.08 3257.74,2013.65 3256.87,2014.3 C3256.01,2014.95 3255.58,2015.9 3255.58,2017.13"/>
<polyline class="FretDiagram" stroke="#0000ff" stroke-width="4.76" stroke-linejoin="bevel" points="1610.77,235.786 1823.87,235.786"/>
<polyline class="FretDiagram" stroke="#0000ff" stroke-width="4.76" stroke-linejoin="bevel" points="1613.15,223.88 1613.15,450.085"/>
<polyline class="FretDiagram" stroke="#0000ff" stroke-width="4.76" stroke-linejoin="bevel" points="1654.82,223.88 1654.82,450.085"/>
<polyline class="FretDiagram" stroke="#0000ff" stroke-width="4.76" stroke-linejoin="bevel" points="1696.49,223.88 1696.49,450.085"/>
<polyline class="FretDiagram" stroke="#0000ff" stroke-width="4.76" stroke-linejoin="bevel" points="1738.16,223.88 1738.16,450.085"/>
<polyline class="FretDiagram" stroke="#0000ff" stroke-width="4.76" stroke-linejoin="bevel" points="1779.82,223.88 1779.82,450.085"/>
<polyline class="FretDiagram" stroke="#0000ff" stroke-width="4.76" stroke-linejoin="bevel" points="1821.49,223.88 1821.49,450.085"/>
<polyline class="FretDiagram" stroke="#0000ff" stroke-width="4.76" stroke-linejoin="bevel" points="1613.15,283.408 1821.49,283.408"/>
<polyline class="FretDiagram" stroke="#0000ff" stroke-width="4.76" stroke-linejoin="bevel" points="1613.15,331.03 1821.49,331.03"/>
<polyline class="FretDiagram" stroke="#0000ff" stroke-width="4.76" stroke-linejoin="bevel" points="1613.15,378.652 1821.49,378.652"/>
<polyline class="FretDiagram" stroke="#0000ff" stroke-width="4.76" stroke-linejoin="bevel" points="1613.15,426.274 1821.49,426.274"/>
<path class="FretDiagram" fill="#0000ff" fill-rule="evenodd" d="M1627.73,354.841 C1627.73,362.896 1621.2,369.425 1613.15,369.425 C1605.09,369.425 1598.56,362.896 1598.56,354.841 C1598.56,346.786 1605.09,340.257 1613.15,340.257 C1621.2,340.257 1627.73,346.786 1627.73,354.841"/>
<path class="FretDiagram" fill="#0000ff" fill-rule="evenodd" d="M1711.07,307.219 C1711.07,315.274 1704.54,321.803 1696.49,321.803 C1688.43,321.803 1681.9,315.274 1681.9,307.219 C1681.9,299.164 1688.43,292.635 1696.49,292.635 C1704.54,292.635 1711.07,299.164 1711.07,307.219"/>
<polyline class="FretDiagram" fill="none" stroke="#0000ff" stroke-width="6.86" stroke-linecap="round" stroke-linejoin="bevel" points="1638.15,171.496 1671.48,204.832"/>
<polyline class="FretDiagram" fill="none" stroke="#0000ff" stroke-width="6.86" stroke-linecap="round" stroke-linejoin="bevel" points="1638.15,204.832 1671.48,171.496"/>
<path class="FretDiagram" fill="none" stroke="#0000ff" stroke-width="6.86" stroke-linecap="round" stroke-linejoin="bevel" fill-rule="evenodd" d="M1754.82,188.164 C1754.82,197.369 1747.36,204.832 1738.16,204.832 C1728.95,204.832 1721.49,197.369 1721.49,188.164 C1721.49,178.959 1728.95,171.496 1738.16,171.496 C1747.36,171.496 1754.82,178.959 1754.82,188.164"/>
<path class="FretDiagram" fill="none" stroke="#0000ff" stroke-width="6.86" stroke-linecap="round" stroke-linejoin="bevel" fill-rule="evenodd" d="M1796.49,188.164 C1796.49,197.369 1789.03,204.832 1779.82,204.832 C1770.62,204.832 1763.16,197.369 1763.16,188.164 C1763.16,178.959 1770.62,171.496 1779.82,171.496 C1789.03,171.496 1796.49,178.959 1796.49,188.164"/>
<polyline class="FretDiagram" fill="none" stroke="#0000ff" stroke-width="6.86" stroke-linecap="round" stroke-linejoin="bevel" points="1804.83,171.496 1838.16,204.832"/>
<polyline class="FretDiagram" fill="none" stroke="#0000ff" stroke-width="6.86" stroke-linecap="round" stroke-linejoin="bevel" points="1804.83,204.832 1838.16,171.496"/>
<polyline class="FretDiagram" fill="none" stroke="#0000ff" stroke-width="29.17" stroke-linecap="round" stroke-linejoin="bevel" points="1696.49,259.597 1821.49,259.597"/>
<path class="FretDiagram" fill="#0000ff" d="M1580.82,257.413 C1588.55,261.087 1592.41,266.692 1592.41,274.228 C1592.41,280.372 1590.31,285.375 1586.1,289.238 C1581.88,293.102 1576.45,295.033 1569.8,295.033 C1563.15,295.033 1557.72,293.086 1553.51,289.191 C1549.3,285.296 1547.19,280.277 1547.19,274.133 C1547.19,266.66 1551.03,261.087 1558.69,257.413 C1555.27,255.26 1552.89,253.17 1551.56,251.143 C1550.23,249.117 1549.57,246.552 1549.57,243.448 C1549.57,238.192 1551.45,233.885 1555.22,230.528 C1558.99,227.172 1563.85,225.493 1569.8,225.493 C1575.76,225.493 1580.62,227.172 1584.39,230.528 C1588.15,233.885 1590.04,238.192 1590.04,243.448 C1590.04,246.615 1589.37,249.212 1588.04,251.238 C1586.71,253.265 1584.31,255.323 1580.82,257.413 M1578.26,235.848 C1576.17,233.885 1573.35,232.903 1569.8,232.903 C1566.26,232.903 1563.42,233.869 1561.3,235.801 C1559.18,237.733 1558.12,240.313 1558.12,243.543 C1558.12,246.71 1559.18,249.259 1561.3,251.191 C1563.42,253.123 1566.26,254.088 1569.8,254.088 C1573.29,254.088 1576.11,253.138 1578.26,251.238 C1580.41,249.338 1581.49,246.805 1581.49,243.638 C1581.49,240.345 1580.41,237.748 1578.26,235.848 M1579.97,264.823 C1577.37,262.353 1573.98,261.118 1569.8,261.118 C1565.62,261.118 1562.24,262.338 1559.64,264.776 C1557.04,267.214 1555.74,270.397 1555.74,274.323 C1555.74,278.25 1557.03,281.448 1559.59,283.918 C1562.16,286.388 1565.5,287.623 1569.61,287.623 C1573.86,287.623 1577.29,286.404 1579.92,283.966 C1582.55,281.528 1583.86,278.313 1583.86,274.323 C1583.86,270.397 1582.57,267.23 1579.97,264.823"/>
<polyline class="FretDiagram" fill="#0000ff" stroke="#0000ff" stroke-width="4.76" stroke-linejoin="bevel" points="2282.25,206.022 2495.36,206.022"/>
<polyline class="FretDiagram" fill="#0000ff" stroke="#0000ff" stroke-width="4.76" stroke-linejoin="bevel" points="2284.63,194.117 2284.63,420.321"/>
<polyline class="FretDiagram" fill="#0000ff" stroke="#0000ff" stroke-width="4.76" stroke-linejoin="bevel" points="2326.3,194.117 2326.3,420.321"/>
<polyline class="FretDiagram" fill="#0000ff" stroke="#0000ff" stroke-width="4.76" stroke-linejoin="bevel" points="2367.97,194.117 2367.97,420.321"/>
<polyline class="FretDiagram" fill="#0000ff" stroke="#0000ff" stroke-width="4.76" stroke-linejoin="bevel" points="2409.64,194.117 2409.64,420.321"/>
<polyline class="FretDiagram" fill="#0000ff" stroke="#0000ff" stroke-width="4.76" stroke-linejoin="bevel" points="2451.31,194.117 2451.31,420.321"/>
<polyline class="FretDiagram" fill="#0000ff" stroke="#0000ff" stroke-width="4.76" stroke-linejoin="bevel" points="2492.97,194.117 2492.97,420.321"/>
<polyline class="FretDiagram" fill="#0000ff" stroke="#0000ff" stroke-width="4.76" stroke-linejoin="bevel" points="2284.63,253.644 2492.97,253.644"/>
<polyline class="FretDiagram" fill="#0000ff" stroke="#0000ff" stroke-width="4.76" stroke-linejoin="bevel" points="2284.63,301.266 2492.97,301.266"/>
<polyline class="FretDiagram" fill="#0000ff" stroke="#0000ff" stroke-width="4.76" stroke-linejoin="bevel" points="2284.63,348.888 2492.97,348.888"/>
<polyline class="FretDiagram" fill="#0000ff" stroke="#0000ff" stroke-width="4.76" stroke-linejoin="bevel" points="2284.63,396.51 2492.97,396.51"/>
<path class="FretDiagram" fill="#0000ff" fill-rule="evenodd" d="M2299.21,325.077 C2299.21,333.132 2292.68,339.661 2284.63,339.661 C2276.57,339.661 2270.04,333.132 2270.04,325.077 C2270.04,317.023 2276.57,310.493 2284.63,310.493 C2292.68,310.493 2299.21,317.023 2299.21,325.077"/>
<path class="FretDiagram" fill="#0000ff" fill-rule="evenodd" d="M2340.88,325.077 C2340.88,333.132 2334.35,339.661 2326.3,339.661 C2318.24,339.661 2311.71,333.132 2311.71,325.077 C2311.71,317.023 2318.24,310.493 2326.3,310.493 C2334.35,310.493 2340.88,317.023 2340.88,325.077"/>
<path class="FretDiagram" fill="#0000ff" fill-rule="evenodd" d="M2465.89,325.077 C2465.89,333.132 2459.36,339.661 2451.31,339.661 C2443.25,339.661 2436.72,333.132 2436.72,325.077 C2436.72,317.023 2443.25,310.493 2451.31,310.493 C2459.36,310.493 2465.89,317.023 2465.89,325.077"/>
<polyline class="FretDiagram" fill="none" stroke="#0000ff" stroke-width="6.86" stroke-linecap="round" stroke-linejoin="bevel" points="2351.3,141.732 2384.63,175.068"/>
<polyline class="FretDiagram" fill="none" stroke="#0000ff" stroke-width="6.86" stroke-linecap="round" stroke-linejoin="bevel" points="2351.3,175.068 2384.63,141.732"/>
<path class="FretDiagram" fill="none" stroke="#0000ff" stroke-width="6.86" stroke-linecap="round" stroke-linejoin="bevel" fill-rule="evenodd" d="M2426.3,158.4 C2426.3,167.605 2418.84,175.068 2409.64,175.068 C2400.43,175.068 2392.97,167.605 2392.97,158.4 C2392.97,149.195 2400.43,141.732 2409.64,141.732 C2418.84,141.732 2426.3,149.195 2426.3,158.4"/>
<polyline class="FretDiagram" fill="none" stroke="#0000ff" stroke-width="6.86" stroke-linecap="round" stroke-linejoin="bevel" points="2476.31,141.732 2509.64,175.068"/>
<polyline class="FretDiagram" fill="none" stroke="#0000ff" stroke-width="6.86" stroke-linecap="round" stroke-linejoin="bevel" points="2476.31,175.068 2509.64,141.732"/>
<polyline class="FretDiagram" fill="none" stroke="#0000ff" stroke-width="29.17" stroke-linecap="round" stroke-linejoin="bevel" points="2284.63,229.833 2492.97,229.833"/>
<path class="FretDiagram" fill="#0000ff" d="M2186.95,215.11 L2172.04,215.11 L2172.04,209.125 C2178.5,208.301 2182.71,207.161 2184.67,205.705 C2186.63,204.248 2188.34,200.923 2189.8,195.73 L2195.31,195.73 L2195.31,263.085 L2186.95,263.085 L2186.95,215.11 M2219.24,230.5 C2219.24,224.863 2219.72,219.891 2220.67,215.585 C2221.62,211.278 2222.82,207.905 2224.28,205.467 C2225.74,203.029 2227.48,201.05 2229.5,199.53 C2231.53,198.01 2233.48,196.996 2235.35,196.49 C2237.21,195.983 2239.19,195.73 2241.28,195.73 C2255.98,195.73 2263.32,207.51 2263.32,231.07 C2263.32,242.153 2261.44,250.624 2257.67,256.482 C2253.9,262.34 2248.44,265.27 2241.28,265.27 C2234.06,265.27 2228.59,262.309 2224.85,256.387 C2221.11,250.465 2219.24,241.836 2219.24,230.5 M2254.77,230.31 C2254.77,212.196 2250.28,203.14 2241.28,203.14 C2232.29,203.14 2227.79,212.291 2227.79,230.595 C2227.79,249.088 2232.23,258.335 2241.09,258.335 C2245.78,258.335 2249.23,256.055 2251.45,251.495 C2253.67,246.935 2254.77,239.873 2254.77,230.31"/>
<polyline class="FretDiagram" fill="#0000ff" stroke="#0000ff" stroke-width="4.76" stroke-linejoin="bevel" points="3134.36,235.786 3347.47,235.786"/>
<polyline class="FretDiagram" fill="#0000ff" stroke="#0000ff" stroke-width="4.76" stroke-linejoin="bevel" points="3136.74,223.88 3136.74,450.085"/>
<polyline class="FretDiagram" fill="#0000ff" stroke="#0000ff" stroke-width="4.76" stroke-linejoin="bevel" points="3178.41,223.88 3178.41,450.085"/>
<polyline class="FretDiagram" fill="#0000ff" stroke="#0000ff" stroke-width="4.76" stroke-linejoin="bevel" points="3220.08,223.88 3220.08,450.085"/>
<polyline class="FretDiagram" fill="#0000ff" stroke="#0000ff" stroke-width="4.76" stroke-linejoin="bevel" points="3261.75,223.88 3261.75,450.085"/>
<polyline class="FretDiagram" fill="#0000ff" stroke="#0000ff" stroke-width="4.76" stroke-linejoin="bevel" points="3303.42,223.88 3303.42,450.085"/>
<polyline class="FretDiagram" fill="#0000ff" stroke="#0000ff" stroke-width="4.76" stroke-linejoin="bevel" points="3345.09,223.88 3345.09,450.085"/>
<polyline class="FretDiagram" fill="#0000ff" stroke="#0000ff" stroke-width="4.76" stroke-linejoin="bevel" points="3136.74,283.408 3345.09,283.408"/>
<polyline class="FretDiagram" fill="#0000ff" stroke="#0000ff" stroke-width="4.76" stroke-linejoin="bevel" points="3136.74,331.03 3345.09,331.03"/>
<polyline class="FretDiagram" fill="#0000ff" stroke="#0000ff" stroke-width="4.76" stroke-linejoin="bevel" points="3136.74,378.652 3345.09,378.652"/>
<polyline class="FretDiagram" fill="#0000ff" stroke="#0000ff" stroke-width="4.76" stroke-linejoin="bevel" points="3136.74,426.274 3345.09,426.274"/>
<path class="FretDiagram" fill="#0000ff" fill-rule="evenodd" d="M3151.33,354.841 C3151.33,362.896 3144.8,369.425 3136.74,369.425 C3128.69,369.425 3122.16,362.896 3122.16,354.841 C3122.16,346.786 3128.69,340.257 3136.74,340.257 C3144.8,340.257 3151.33,346.786 3151.33,354.841"/>
<path class="FretDiagram" fill="#0000ff" fill-rule="evenodd" d="M3193,307.219 C3193,315.274 3186.47,321.803 3178.41,321.803 C3170.36,321.803 3163.83,315.274 3163.83,307.219 C3163.83,299.164 3170.36,292.635 3178.41,292.635 C3186.47,292.635 3193,299.164 3193,307.219"/>
<path class="FretDiagram" fill="#0000ff" fill-rule="evenodd" d="M3318,354.841 C3318,362.896 3311.47,369.425 3303.42,369.425 C3295.36,369.425 3288.84,362.896 3288.84,354.841 C3288.84,346.786 3295.36,340.257 3303.42,340.257 C3311.47,340.257 3318,346.786 3318,354.841"/>
<polyline class="FretDiagram" fill="none" stroke="#0000ff" stroke-width="6.86" stroke-linecap="round" stroke-linejoin="bevel" points="3203.41,171.496 3236.75,204.832"/>
<polyline class="FretDiagram" fill="none" stroke="#0000ff" stroke-width="6.86" stroke-linecap="round" stroke-linejoin="bevel" points="3203.41,204.832 3236.75,171.496"/>
<path class="FretDiagram" fill="none" stroke="#0000ff" stroke-width="6.86" stroke-linecap="round" stroke-linejoin="bevel" fill-rule="evenodd" d="M3278.42,188.164 C3278.42,197.369 3270.96,204.832 3261.75,204.832 C3252.54,204.832 3245.08,197.369 3245.08,188.164 C3245.08,178.959 3252.54,171.496 3261.75,171.496 C3270.96,171.496 3278.42,178.959 3278.42,188.164"/>
<path class="FretDiagram" fill="none" stroke="#0000ff" stroke-width="6.86" stroke-linecap="round" stroke-linejoin="bevel" fill-rule="evenodd" d="M3361.76,188.164 C3361.76,197.369 3354.29,204.832 3345.09,204.832 C3335.88,204.832 3328.42,197.369 3328.42,188.164 C3328.42,178.959 3335.88,171.496 3345.09,171.496 C3354.29,171.496 3361.76,178.959 3361.76,188.164"/>
<polyline class="FretDiagram" fill="none" stroke="#0000ff" stroke-width="29.17" stroke-linecap="round" stroke-linejoin="bevel" points="3220.08,259.597 3345.09,259.597"/>
<path class="FretDiagram" fill="#0000ff" d="M3039.07,244.873 L3024.15,244.873 L3024.15,238.888 C3030.61,238.065 3034.82,236.925 3036.79,235.468 C3038.75,234.012 3040.46,230.687 3041.92,225.493 L3047.43,225.493 L3047.43,292.848 L3039.07,292.848 L3039.07,244.873 M3071.36,260.263 C3071.36,254.627 3071.83,249.655 3072.78,245.348 C3073.73,241.042 3074.94,237.669 3076.39,235.231 C3077.85,232.793 3079.59,230.813 3081.62,229.293 C3083.65,227.773 3085.59,226.76 3087.46,226.253 C3089.33,225.747 3091.31,225.493 3093.4,225.493 C3108.09,225.493 3115.44,237.273 3115.44,260.833 C3115.44,271.917 3113.55,280.388 3109.79,286.246 C3106.02,292.104 3100.56,295.033 3093.4,295.033 C3086.18,295.033 3080.7,292.073 3076.96,286.151 C3073.23,280.229 3071.36,271.6 3071.36,260.263 M3106.89,260.073 C3106.89,241.96 3102.39,232.903 3093.4,232.903 C3084.41,232.903 3079.91,242.055 3079.91,260.358 C3079.91,278.852 3084.34,288.098 3093.21,288.098 C3097.9,288.098 3101.35,285.818 3103.56,281.258 C3105.78,276.698 3106.89,269.637 3106.89,260.073"/>
<path class="Bracket" transform="matrix(8.6315,0,0,9.45563,76.1283,2345.71)" d="M0.92002,-50 C2.69004,-51.88 6.2,-55.8 6.2,-63 C6.2,-72.1 2.25996,-81.32 2.25996,-86.97 C2.25996,-93.06 5.84004,-98.84 5.95,-99 C6.05996,-99.16 6.05,-99.39 5.94004,-99.46 C5.82998,-99.53 5.62002,-99.47 5.49004,-99.32 C5.35996,-99.17 0,-93.75 0,-85.6 C0,-76.75 3.5,-70.58 3.5,-59.07 C3.5,-56.89 2.55996,-53.36 0.1,-50.33 C-0.0799805,-50.17 -0.1,-49.89 0.0599609,-49.7 L0.0700195,-49.69 L0.1,-49.66 C2.55996,-46.63 3.5,-43.1 3.5,-40.92 C3.5,-29.4 0,-23.24 0,-14.39 C0,-6.25 5.35996,-0.8 5.49004,-0.659961 C5.62002,-0.52002 5.8,-0.42998 5.94004,-0.52002 C6.07998,-0.609961 6.07998,-0.77998 5.95,-0.97998 C5.82002,-1.17998 2.25996,-6.92002 2.25996,-13.01 C2.25996,-18.66 6.2,-27.9 6.2,-37 C6.2,-44.3 2.69004,-48.12 0.92002,-50"/>
</svg>
