<?xml version="1.0" encoding="UTF-8" standalone="no"?>
<svg width="4209.44px" height="2976.38px" viewBox="0 0 4209.44 2976.38"
 xmlns="http://www.w3.org/2000/svg" xmlns:xlink="http://www.w3.org/1999/xlink" version="1.2" baseProfile="tiny">
<title>DoMineur (4)</title>
<desc>Generated by MuseScore 3.6.2</desc>
<polyline class="StaffLines" fill="none" stroke="#000000" stroke-width="6.55" stroke-linejoin="bevel" points="153.819,558.425 4138.58,558.425"/>
<polyline class="StaffLines" fill="none" stroke="#000000" stroke-width="6.55" stroke-linejoin="bevel" points="153.819,647.717 4138.58,647.717"/>
<polyline class="StaffLines" fill="none" stroke="#000000" stroke-width="6.55" stroke-linejoin="bevel" points="153.819,737.008 4138.58,737.008"/>
<polyline class="StaffLines" fill="none" stroke="#000000" stroke-width="6.55" stroke-linejoin="bevel" points="153.819,826.299 4138.58,826.299"/>
<polyline class="StaffLines" fill="none" stroke="#000000" stroke-width="6.55" stroke-linejoin="bevel" points="153.819,915.591 4138.58,915.591"/>
<polyline class="StaffLines" fill="none" stroke="#000000" stroke-width="6.55" stroke-linejoin="bevel" points="153.819,1004.88 4138.58,1004.88"/>
<polyline class="StaffLines" fill="none" stroke="#000000" stroke-width="6.55" stroke-linejoin="bevel" points="153.819,1391.81 4138.58,1391.81"/>
<polyline class="StaffLines" fill="none" stroke="#000000" stroke-width="6.55" stroke-linejoin="bevel" points="153.819,1451.34 4138.58,1451.34"/>
<polyline class="StaffLines" fill="none" stroke="#000000" stroke-width="6.55" stroke-linejoin="bevel" points="153.819,1510.87 4138.58,1510.87"/>
<polyline class="StaffLines" fill="none" stroke="#000000" stroke-width="6.55" stroke-linejoin="bevel" points="153.819,1570.39 4138.58,1570.39"/>
<polyline class="StaffLines" fill="none" stroke="#000000" stroke-width="6.55" stroke-linejoin="bevel" points="153.819,1629.92 4138.58,1629.92"/>
<polyline class="StaffLines" fill="none" stroke="#000000" stroke-width="6.55" stroke-linejoin="bevel" points="153.819,2016.85 4138.58,2016.85"/>
<polyline class="StaffLines" fill="none" stroke="#000000" stroke-width="6.55" stroke-linejoin="bevel" points="153.819,2076.38 4138.58,2076.38"/>
<polyline class="StaffLines" fill="none" stroke="#000000" stroke-width="6.55" stroke-linejoin="bevel" points="153.819,2135.91 4138.58,2135.91"/>
<polyline class="StaffLines" fill="none" stroke="#000000" stroke-width="6.55" stroke-linejoin="bevel" points="153.819,2195.43 4138.58,2195.43"/>
<polyline class="StaffLines" fill="none" stroke="#000000" stroke-width="6.55" stroke-linejoin="bevel" points="153.819,2254.96 4138.58,2254.96"/>
<polyline class="BarLine" fill="none" stroke="#000000" stroke-width="10.71" stroke-linejoin="bevel" points="159.176,2013.58 159.176,2258.23"/>
<polyline class="BarLine" fill="none" stroke="#000000" stroke-width="10.71" stroke-linejoin="bevel" points="1077.42,2013.58 1077.42,2258.23"/>
<polyline class="BarLine" fill="none" stroke="#000000" stroke-width="10.71" stroke-linejoin="bevel" points="1490.55,2013.58 1490.55,2258.23"/>
<polyline class="BarLine" fill="none" stroke="#000000" stroke-width="10.71" stroke-linejoin="bevel" points="1981.2,2013.58 1981.2,2258.23"/>
<polyline class="BarLine" fill="none" stroke="#000000" stroke-width="10.71" stroke-linejoin="bevel" points="2410.25,2013.58 2410.25,2258.23"/>
<polyline class="BarLine" fill="none" stroke="#000000" stroke-width="10.71" stroke-linejoin="bevel" points="2839.3,2013.58 2839.3,2258.23"/>
<polyline class="BarLine" fill="none" stroke="#000000" stroke-width="10.71" stroke-linejoin="bevel" points="3252.43,2013.58 3252.43,2258.23"/>
<polyline class="BarLine" fill="none" stroke="#000000" stroke-width="10.71" stroke-linejoin="bevel" points="3681.48,2013.58 3681.48,2258.23"/>
<polyline class="BarLine" fill="none" stroke="#000000" stroke-width="10.71" stroke-linejoin="bevel" points="4080.54,2013.58 4080.54,2258.23"/>
<polyline class="BarLine" fill="none" stroke="#000000" stroke-width="32.74" stroke-linejoin="bevel" points="4122.21,2013.58 4122.21,2258.23"/>
<polyline class="BarLine" fill="none" stroke="#000000" stroke-width="10.71" stroke-linejoin="bevel" points="159.176,1388.54 159.176,2016.85"/>
<polyline class="BarLine" fill="none" stroke="#000000" stroke-width="10.71" stroke-linejoin="bevel" points="1077.42,1388.54 1077.42,1633.2"/>
<polyline class="BarLine" fill="none" stroke="#000000" stroke-width="10.71" stroke-linejoin="bevel" points="1490.55,1388.54 1490.55,1633.2"/>
<polyline class="BarLine" fill="none" stroke="#000000" stroke-width="10.71" stroke-linejoin="bevel" points="1981.2,1388.54 1981.2,1633.2"/>
<polyline class="BarLine" fill="none" stroke="#000000" stroke-width="10.71" stroke-linejoin="bevel" points="2410.25,1388.54 2410.25,1633.2"/>
<polyline class="BarLine" fill="none" stroke="#000000" stroke-width="10.71" stroke-linejoin="bevel" points="2839.3,1388.54 2839.3,1633.2"/>
<polyline class="BarLine" fill="none" stroke="#000000" stroke-width="10.71" stroke-linejoin="bevel" points="3252.43,1388.54 3252.43,1633.2"/>
<polyline class="BarLine" fill="none" stroke="#000000" stroke-width="10.71" stroke-linejoin="bevel" points="3681.48,1388.54 3681.48,1633.2"/>
<polyline class="BarLine" fill="none" stroke="#000000" stroke-width="10.71" stroke-linejoin="bevel" points="4080.54,1388.54 4080.54,1633.2"/>
<polyline class="BarLine" fill="none" stroke="#000000" stroke-width="32.74" stroke-linejoin="bevel" points="4122.21,1388.54 4122.21,1633.2"/>
<polyline class="BarLine" fill="none" stroke="#000000" stroke-width="10.71" stroke-linejoin="bevel" points="159.176,555.151 159.176,1391.81"/>
<polyline class="BarLine" fill="none" stroke="#000000" stroke-width="10.71" stroke-linejoin="bevel" points="1077.42,555.151 1077.42,1008.16"/>
<polyline class="BarLine" fill="none" stroke="#000000" stroke-width="10.71" stroke-linejoin="bevel" points="1490.55,555.151 1490.55,1008.16"/>
<polyline class="BarLine" fill="none" stroke="#000000" stroke-width="10.71" stroke-linejoin="bevel" points="1981.2,555.151 1981.2,1008.16"/>
<polyline class="BarLine" fill="none" stroke="#000000" stroke-width="10.71" stroke-linejoin="bevel" points="2410.25,555.151 2410.25,1008.16"/>
<polyline class="BarLine" fill="none" stroke="#000000" stroke-width="10.71" stroke-linejoin="bevel" points="2839.3,555.151 2839.3,1008.16"/>
<polyline class="BarLine" fill="none" stroke="#000000" stroke-width="10.71" stroke-linejoin="bevel" points="3252.43,555.151 3252.43,1008.16"/>
<polyline class="BarLine" fill="none" stroke="#000000" stroke-width="10.71" stroke-linejoin="bevel" points="3681.48,555.151 3681.48,1008.16"/>
<polyline class="BarLine" fill="none" stroke="#000000" stroke-width="10.71" stroke-linejoin="bevel" points="4080.54,555.151 4080.54,1008.16"/>
<polyline class="BarLine" fill="none" stroke="#000000" stroke-width="32.74" stroke-linejoin="bevel" points="4122.21,555.151 4122.21,1008.16"/>
<path class="Accidental" transform="matrix(2.3811,0,0,2.3811,2044.07,1510.87)" d="M16.6,-18.3 C16.4,-18.5 16.1,-18.6 15.8,-18.6 C15.7,-18.6 15.5,-18.5 15.4,-18.5 L2.8,-15 L2.8,-32.5 L0,-32.5 L0,17 C0,17.8 0.6,18.3 1.4,18.3 L1.8,18.3 L14.4,14.8 L14.4,32.3 L17.1,32.3 L17.1,-17.2 C17.1,-17.6 16.9,-18.1 16.6,-18.3 M14.4,6.5 L2.8,9.7 L2.8,-6.7 L14.4,-10 L14.4,6.5 "/>
<path class="Accidental" transform="matrix(2.3811,0,0,2.3811,2473.12,1510.87)" d="M16.6,-18.3 C16.4,-18.5 16.1,-18.6 15.8,-18.6 C15.7,-18.6 15.5,-18.5 15.4,-18.5 L2.8,-15 L2.8,-32.5 L0,-32.5 L0,17 C0,17.8 0.6,18.3 1.4,18.3 L1.8,18.3 L14.4,14.8 L14.4,32.3 L17.1,32.3 L17.1,-17.2 C17.1,-17.6 16.9,-18.1 16.6,-18.3 M14.4,6.5 L2.8,9.7 L2.8,-6.7 L14.4,-10 L14.4,6.5 "/>
<path class="Accidental" transform="matrix(2.3811,0,0,2.3811,3315.29,1510.87)" d="M16.6,-18.3 C16.4,-18.5 16.1,-18.6 15.8,-18.6 C15.7,-18.6 15.5,-18.5 15.4,-18.5 L2.8,-15 L2.8,-32.5 L0,-32.5 L0,17 C0,17.8 0.6,18.3 1.4,18.3 L1.8,18.3 L14.4,14.8 L14.4,32.3 L17.1,32.3 L17.1,-17.2 C17.1,-17.6 16.9,-18.1 16.6,-18.3 M14.4,6.5 L2.8,9.7 L2.8,-6.7 L14.4,-10 L14.4,6.5 "/>
<polyline class="LedgerLine" fill="none" stroke="#000000" stroke-width="9.52" stroke-linejoin="bevel" points="745.988,1957.32 876.465,1957.32"/>
<path class="Note" transform="matrix(2.3811,0,0,2.3811,766.822,1957.32)" d="M18.7,-13.6 C4.9,-13.6 0,-6.6 0,-0.1 C0,6.4 4.9,13.4 18.7,13.4 C32.5,13.4 37.3,6.4 37.3,-0.1 C37.3,-6.6 32.5,-13.6 18.7,-13.6 M10.4,-4.5 C10.3,-4.9 10.3,-5.3 10.3,-5.7 C10.3,-6.5 10.5,-7.3 10.9,-8 C11.6,-9 12.8,-9.7 14.3,-10 C15.6,-10.3 16.3,-10.5 18.9,-10.5 L19,-10.5 C23,-10.5 24.3,-6.8 25.4,-3 L25.7,-2 C26.5,0.6 26.9,2.8 26.9,4.5 C26.9,5.7 26.7,6.8 26.3,7.6 C25.7,8.7 24.7,9.4 23,9.8 C22.1,10 20.6,10.1 20.6,10.1 C20.1,10.1 19.7,10.2 19.3,10.2 C16.1,10.2 14.1,9 12.7,4.7 C11.5,1 11.3,-0.1 10.4,-4.5"/>
<path class="Note" transform="matrix(2.3811,0,0,2.3811,1165.89,1987.09)" d="M18.7,-13.6 C4.9,-13.6 0,-6.6 0,-0.1 C0,6.4 4.9,13.4 18.7,13.4 C32.5,13.4 37.3,6.4 37.3,-0.1 C37.3,-6.6 32.5,-13.6 18.7,-13.6 M10.4,-4.5 C10.3,-4.9 10.3,-5.3 10.3,-5.7 C10.3,-6.5 10.5,-7.3 10.9,-8 C11.6,-9 12.8,-9.7 14.3,-10 C15.6,-10.3 16.3,-10.5 18.9,-10.5 L19,-10.5 C23,-10.5 24.3,-6.8 25.4,-3 L25.7,-2 C26.5,0.6 26.9,2.8 26.9,4.5 C26.9,5.7 26.7,6.8 26.3,7.6 C25.7,8.7 24.7,9.4 23,9.8 C22.1,10 20.6,10.1 20.6,10.1 C20.1,10.1 19.7,10.2 19.3,10.2 C16.1,10.2 14.1,9 12.7,4.7 C11.5,1 11.3,-0.1 10.4,-4.5"/>
<path class="Note" transform="matrix(2.3811,0,0,2.3811,1579.01,2016.85)" d="M18.7,-13.6 C4.9,-13.6 0,-6.6 0,-0.1 C0,6.4 4.9,13.4 18.7,13.4 C32.5,13.4 37.3,6.4 37.3,-0.1 C37.3,-6.6 32.5,-13.6 18.7,-13.6 M10.4,-4.5 C10.3,-4.9 10.3,-5.3 10.3,-5.7 C10.3,-6.5 10.5,-7.3 10.9,-8 C11.6,-9 12.8,-9.7 14.3,-10 C15.6,-10.3 16.3,-10.5 18.9,-10.5 L19,-10.5 C23,-10.5 24.3,-6.8 25.4,-3 L25.7,-2 C26.5,0.6 26.9,2.8 26.9,4.5 C26.9,5.7 26.7,6.8 26.3,7.6 C25.7,8.7 24.7,9.4 23,9.8 C22.1,10 20.6,10.1 20.6,10.1 C20.1,10.1 19.7,10.2 19.3,10.2 C16.1,10.2 14.1,9 12.7,4.7 C11.5,1 11.3,-0.1 10.4,-4.5"/>
<path class="Note" transform="matrix(2.3811,0,0,2.3811,2099.65,2046.61)" d="M18.7,-13.6 C4.9,-13.6 0,-6.6 0,-0.1 C0,6.4 4.9,13.4 18.7,13.4 C32.5,13.4 37.3,6.4 37.3,-0.1 C37.3,-6.6 32.5,-13.6 18.7,-13.6 M10.4,-4.5 C10.3,-4.9 10.3,-5.3 10.3,-5.7 C10.3,-6.5 10.5,-7.3 10.9,-8 C11.6,-9 12.8,-9.7 14.3,-10 C15.6,-10.3 16.3,-10.5 18.9,-10.5 L19,-10.5 C23,-10.5 24.3,-6.8 25.4,-3 L25.7,-2 C26.5,0.6 26.9,2.8 26.9,4.5 C26.9,5.7 26.7,6.8 26.3,7.6 C25.7,8.7 24.7,9.4 23,9.8 C22.1,10 20.6,10.1 20.6,10.1 C20.1,10.1 19.7,10.2 19.3,10.2 C16.1,10.2 14.1,9 12.7,4.7 C11.5,1 11.3,-0.1 10.4,-4.5"/>
<path class="Note" transform="matrix(2.3811,0,0,2.3811,2528.7,2076.38)" d="M18.7,-13.6 C4.9,-13.6 0,-6.6 0,-0.1 C0,6.4 4.9,13.4 18.7,13.4 C32.5,13.4 37.3,6.4 37.3,-0.1 C37.3,-6.6 32.5,-13.6 18.7,-13.6 M10.4,-4.5 C10.3,-4.9 10.3,-5.3 10.3,-5.7 C10.3,-6.5 10.5,-7.3 10.9,-8 C11.6,-9 12.8,-9.7 14.3,-10 C15.6,-10.3 16.3,-10.5 18.9,-10.5 L19,-10.5 C23,-10.5 24.3,-6.8 25.4,-3 L25.7,-2 C26.5,0.6 26.9,2.8 26.9,4.5 C26.9,5.7 26.7,6.8 26.3,7.6 C25.7,8.7 24.7,9.4 23,9.8 C22.1,10 20.6,10.1 20.6,10.1 C20.1,10.1 19.7,10.2 19.3,10.2 C16.1,10.2 14.1,9 12.7,4.7 C11.5,1 11.3,-0.1 10.4,-4.5"/>
<path class="Note" transform="matrix(2.3811,0,0,2.3811,2927.76,2106.14)" d="M18.7,-13.6 C4.9,-13.6 0,-6.6 0,-0.1 C0,6.4 4.9,13.4 18.7,13.4 C32.5,13.4 37.3,6.4 37.3,-0.1 C37.3,-6.6 32.5,-13.6 18.7,-13.6 M10.4,-4.5 C10.3,-4.9 10.3,-5.3 10.3,-5.7 C10.3,-6.5 10.5,-7.3 10.9,-8 C11.6,-9 12.8,-9.7 14.3,-10 C15.6,-10.3 16.3,-10.5 18.9,-10.5 L19,-10.5 C23,-10.5 24.3,-6.8 25.4,-3 L25.7,-2 C26.5,0.6 26.9,2.8 26.9,4.5 C26.9,5.7 26.7,6.8 26.3,7.6 C25.7,8.7 24.7,9.4 23,9.8 C22.1,10 20.6,10.1 20.6,10.1 C20.1,10.1 19.7,10.2 19.3,10.2 C16.1,10.2 14.1,9 12.7,4.7 C11.5,1 11.3,-0.1 10.4,-4.5"/>
<path class="Note" transform="matrix(2.3811,0,0,2.3811,3370.88,2135.91)" d="M18.7,-13.6 C4.9,-13.6 0,-6.6 0,-0.1 C0,6.4 4.9,13.4 18.7,13.4 C32.5,13.4 37.3,6.4 37.3,-0.1 C37.3,-6.6 32.5,-13.6 18.7,-13.6 M10.4,-4.5 C10.3,-4.9 10.3,-5.3 10.3,-5.7 C10.3,-6.5 10.5,-7.3 10.9,-8 C11.6,-9 12.8,-9.7 14.3,-10 C15.6,-10.3 16.3,-10.5 18.9,-10.5 L19,-10.5 C23,-10.5 24.3,-6.8 25.4,-3 L25.7,-2 C26.5,0.6 26.9,2.8 26.9,4.5 C26.9,5.7 26.7,6.8 26.3,7.6 C25.7,8.7 24.7,9.4 23,9.8 C22.1,10 20.6,10.1 20.6,10.1 C20.1,10.1 19.7,10.2 19.3,10.2 C16.1,10.2 14.1,9 12.7,4.7 C11.5,1 11.3,-0.1 10.4,-4.5"/>
<path class="Note" transform="matrix(2.3811,0,0,2.3811,3769.94,2165.67)" d="M18.7,-13.6 C4.9,-13.6 0,-6.6 0,-0.1 C0,6.4 4.9,13.4 18.7,13.4 C32.5,13.4 37.3,6.4 37.3,-0.1 C37.3,-6.6 32.5,-13.6 18.7,-13.6 M10.4,-4.5 C10.3,-4.9 10.3,-5.3 10.3,-5.7 C10.3,-6.5 10.5,-7.3 10.9,-8 C11.6,-9 12.8,-9.7 14.3,-10 C15.6,-10.3 16.3,-10.5 18.9,-10.5 L19,-10.5 C23,-10.5 24.3,-6.8 25.4,-3 L25.7,-2 C26.5,0.6 26.9,2.8 26.9,4.5 C26.9,5.7 26.7,6.8 26.3,7.6 C25.7,8.7 24.7,9.4 23,9.8 C22.1,10 20.6,10.1 20.6,10.1 C20.1,10.1 19.7,10.2 19.3,10.2 C16.1,10.2 14.1,9 12.7,4.7 C11.5,1 11.3,-0.1 10.4,-4.5"/>
<path class="Note" transform="matrix(2.3811,0,0,2.3811,766.822,1570.39)" d="M18.7,-13.6 C4.9,-13.6 0,-6.6 0,-0.1 C0,6.4 4.9,13.4 18.7,13.4 C32.5,13.4 37.3,6.4 37.3,-0.1 C37.3,-6.6 32.5,-13.6 18.7,-13.6 M10.4,-4.5 C10.3,-4.9 10.3,-5.3 10.3,-5.7 C10.3,-6.5 10.5,-7.3 10.9,-8 C11.6,-9 12.8,-9.7 14.3,-10 C15.6,-10.3 16.3,-10.5 18.9,-10.5 L19,-10.5 C23,-10.5 24.3,-6.8 25.4,-3 L25.7,-2 C26.5,0.6 26.9,2.8 26.9,4.5 C26.9,5.7 26.7,6.8 26.3,7.6 C25.7,8.7 24.7,9.4 23,9.8 C22.1,10 20.6,10.1 20.6,10.1 C20.1,10.1 19.7,10.2 19.3,10.2 C16.1,10.2 14.1,9 12.7,4.7 C11.5,1 11.3,-0.1 10.4,-4.5"/>
<path class="Note" transform="matrix(2.3811,0,0,2.3811,766.822,1481.1)" d="M18.7,-13.6 C4.9,-13.6 0,-6.6 0,-0.1 C0,6.4 4.9,13.4 18.7,13.4 C32.5,13.4 37.3,6.4 37.3,-0.1 C37.3,-6.6 32.5,-13.6 18.7,-13.6 M10.4,-4.5 C10.3,-4.9 10.3,-5.3 10.3,-5.7 C10.3,-6.5 10.5,-7.3 10.9,-8 C11.6,-9 12.8,-9.7 14.3,-10 C15.6,-10.3 16.3,-10.5 18.9,-10.5 L19,-10.5 C23,-10.5 24.3,-6.8 25.4,-3 L25.7,-2 C26.5,0.6 26.9,2.8 26.9,4.5 C26.9,5.7 26.7,6.8 26.3,7.6 C25.7,8.7 24.7,9.4 23,9.8 C22.1,10 20.6,10.1 20.6,10.1 C20.1,10.1 19.7,10.2 19.3,10.2 C16.1,10.2 14.1,9 12.7,4.7 C11.5,1 11.3,-0.1 10.4,-4.5"/>
<path class="Note" transform="matrix(2.3811,0,0,2.3811,766.822,1421.57)" d="M18.7,-13.6 C4.9,-13.6 0,-6.6 0,-0.1 C0,6.4 4.9,13.4 18.7,13.4 C32.5,13.4 37.3,6.4 37.3,-0.1 C37.3,-6.6 32.5,-13.6 18.7,-13.6 M10.4,-4.5 C10.3,-4.9 10.3,-5.3 10.3,-5.7 C10.3,-6.5 10.5,-7.3 10.9,-8 C11.6,-9 12.8,-9.7 14.3,-10 C15.6,-10.3 16.3,-10.5 18.9,-10.5 L19,-10.5 C23,-10.5 24.3,-6.8 25.4,-3 L25.7,-2 C26.5,0.6 26.9,2.8 26.9,4.5 C26.9,5.7 26.7,6.8 26.3,7.6 C25.7,8.7 24.7,9.4 23,9.8 C22.1,10 20.6,10.1 20.6,10.1 C20.1,10.1 19.7,10.2 19.3,10.2 C16.1,10.2 14.1,9 12.7,4.7 C11.5,1 11.3,-0.1 10.4,-4.5"/>
<path class="Note" transform="matrix(2.3811,0,0,2.3811,1165.89,1570.39)" d="M18.7,-13.6 C4.9,-13.6 0,-6.6 0,-0.1 C0,6.4 4.9,13.4 18.7,13.4 C32.5,13.4 37.3,6.4 37.3,-0.1 C37.3,-6.6 32.5,-13.6 18.7,-13.6 M10.4,-4.5 C10.3,-4.9 10.3,-5.3 10.3,-5.7 C10.3,-6.5 10.5,-7.3 10.9,-8 C11.6,-9 12.8,-9.7 14.3,-10 C15.6,-10.3 16.3,-10.5 18.9,-10.5 L19,-10.5 C23,-10.5 24.3,-6.8 25.4,-3 L25.7,-2 C26.5,0.6 26.9,2.8 26.9,4.5 C26.9,5.7 26.7,6.8 26.3,7.6 C25.7,8.7 24.7,9.4 23,9.8 C22.1,10 20.6,10.1 20.6,10.1 C20.1,10.1 19.7,10.2 19.3,10.2 C16.1,10.2 14.1,9 12.7,4.7 C11.5,1 11.3,-0.1 10.4,-4.5"/>
<path class="Note" transform="matrix(2.3811,0,0,2.3811,1165.89,1451.34)" d="M18.7,-13.6 C4.9,-13.6 0,-6.6 0,-0.1 C0,6.4 4.9,13.4 18.7,13.4 C32.5,13.4 37.3,6.4 37.3,-0.1 C37.3,-6.6 32.5,-13.6 18.7,-13.6 M10.4,-4.5 C10.3,-4.9 10.3,-5.3 10.3,-5.7 C10.3,-6.5 10.5,-7.3 10.9,-8 C11.6,-9 12.8,-9.7 14.3,-10 C15.6,-10.3 16.3,-10.5 18.9,-10.5 L19,-10.5 C23,-10.5 24.3,-6.8 25.4,-3 L25.7,-2 C26.5,0.6 26.9,2.8 26.9,4.5 C26.9,5.7 26.7,6.8 26.3,7.6 C25.7,8.7 24.7,9.4 23,9.8 C22.1,10 20.6,10.1 20.6,10.1 C20.1,10.1 19.7,10.2 19.3,10.2 C16.1,10.2 14.1,9 12.7,4.7 C11.5,1 11.3,-0.1 10.4,-4.5"/>
<path class="Note" transform="matrix(2.3811,0,0,2.3811,1579.01,1600.16)" d="M18.7,-13.6 C4.9,-13.6 0,-6.6 0,-0.1 C0,6.4 4.9,13.4 18.7,13.4 C32.5,13.4 37.3,6.4 37.3,-0.1 C37.3,-6.6 32.5,-13.6 18.7,-13.6 M10.4,-4.5 C10.3,-4.9 10.3,-5.3 10.3,-5.7 C10.3,-6.5 10.5,-7.3 10.9,-8 C11.6,-9 12.8,-9.7 14.3,-10 C15.6,-10.3 16.3,-10.5 18.9,-10.5 L19,-10.5 C23,-10.5 24.3,-6.8 25.4,-3 L25.7,-2 C26.5,0.6 26.9,2.8 26.9,4.5 C26.9,5.7 26.7,6.8 26.3,7.6 C25.7,8.7 24.7,9.4 23,9.8 C22.1,10 20.6,10.1 20.6,10.1 C20.1,10.1 19.7,10.2 19.3,10.2 C16.1,10.2 14.1,9 12.7,4.7 C11.5,1 11.3,-0.1 10.4,-4.5"/>
<path class="Note" transform="matrix(2.3811,0,0,2.3811,1579.01,1481.1)" d="M18.7,-13.6 C4.9,-13.6 0,-6.6 0,-0.1 C0,6.4 4.9,13.4 18.7,13.4 C32.5,13.4 37.3,6.4 37.3,-0.1 C37.3,-6.6 32.5,-13.6 18.7,-13.6 M10.4,-4.5 C10.3,-4.9 10.3,-5.3 10.3,-5.7 C10.3,-6.5 10.5,-7.3 10.9,-8 C11.6,-9 12.8,-9.7 14.3,-10 C15.6,-10.3 16.3,-10.5 18.9,-10.5 L19,-10.5 C23,-10.5 24.3,-6.8 25.4,-3 L25.7,-2 C26.5,0.6 26.9,2.8 26.9,4.5 C26.9,5.7 26.7,6.8 26.3,7.6 C25.7,8.7 24.7,9.4 23,9.8 C22.1,10 20.6,10.1 20.6,10.1 C20.1,10.1 19.7,10.2 19.3,10.2 C16.1,10.2 14.1,9 12.7,4.7 C11.5,1 11.3,-0.1 10.4,-4.5"/>
<path class="Note" transform="matrix(2.3811,0,0,2.3811,1661.27,1451.34)" d="M18.7,-13.6 C4.9,-13.6 0,-6.6 0,-0.1 C0,6.4 4.9,13.4 18.7,13.4 C32.5,13.4 37.3,6.4 37.3,-0.1 C37.3,-6.6 32.5,-13.6 18.7,-13.6 M10.4,-4.5 C10.3,-4.9 10.3,-5.3 10.3,-5.7 C10.3,-6.5 10.5,-7.3 10.9,-8 C11.6,-9 12.8,-9.7 14.3,-10 C15.6,-10.3 16.3,-10.5 18.9,-10.5 L19,-10.5 C23,-10.5 24.3,-6.8 25.4,-3 L25.7,-2 C26.5,0.6 26.9,2.8 26.9,4.5 C26.9,5.7 26.7,6.8 26.3,7.6 C25.7,8.7 24.7,9.4 23,9.8 C22.1,10 20.6,10.1 20.6,10.1 C20.1,10.1 19.7,10.2 19.3,10.2 C16.1,10.2 14.1,9 12.7,4.7 C11.5,1 11.3,-0.1 10.4,-4.5"/>
<path class="Note" transform="matrix(2.3811,0,0,2.3811,2099.65,1570.39)" d="M18.7,-13.6 C4.9,-13.6 0,-6.6 0,-0.1 C0,6.4 4.9,13.4 18.7,13.4 C32.5,13.4 37.3,6.4 37.3,-0.1 C37.3,-6.6 32.5,-13.6 18.7,-13.6 M10.4,-4.5 C10.3,-4.9 10.3,-5.3 10.3,-5.7 C10.3,-6.5 10.5,-7.3 10.9,-8 C11.6,-9 12.8,-9.7 14.3,-10 C15.6,-10.3 16.3,-10.5 18.9,-10.5 L19,-10.5 C23,-10.5 24.3,-6.8 25.4,-3 L25.7,-2 C26.5,0.6 26.9,2.8 26.9,4.5 C26.9,5.7 26.7,6.8 26.3,7.6 C25.7,8.7 24.7,9.4 23,9.8 C22.1,10 20.6,10.1 20.6,10.1 C20.1,10.1 19.7,10.2 19.3,10.2 C16.1,10.2 14.1,9 12.7,4.7 C11.5,1 11.3,-0.1 10.4,-4.5"/>
<path class="Note" transform="matrix(2.3811,0,0,2.3811,2099.65,1510.87)" d="M18.7,-13.6 C4.9,-13.6 0,-6.6 0,-0.1 C0,6.4 4.9,13.4 18.7,13.4 C32.5,13.4 37.3,6.4 37.3,-0.1 C37.3,-6.6 32.5,-13.6 18.7,-13.6 M10.4,-4.5 C10.3,-4.9 10.3,-5.3 10.3,-5.7 C10.3,-6.5 10.5,-7.3 10.9,-8 C11.6,-9 12.8,-9.7 14.3,-10 C15.6,-10.3 16.3,-10.5 18.9,-10.5 L19,-10.5 C23,-10.5 24.3,-6.8 25.4,-3 L25.7,-2 C26.5,0.6 26.9,2.8 26.9,4.5 C26.9,5.7 26.7,6.8 26.3,7.6 C25.7,8.7 24.7,9.4 23,9.8 C22.1,10 20.6,10.1 20.6,10.1 C20.1,10.1 19.7,10.2 19.3,10.2 C16.1,10.2 14.1,9 12.7,4.7 C11.5,1 11.3,-0.1 10.4,-4.5"/>
<path class="Note" transform="matrix(2.3811,0,0,2.3811,2099.65,1451.34)" d="M18.7,-13.6 C4.9,-13.6 0,-6.6 0,-0.1 C0,6.4 4.9,13.4 18.7,13.4 C32.5,13.4 37.3,6.4 37.3,-0.1 C37.3,-6.6 32.5,-13.6 18.7,-13.6 M10.4,-4.5 C10.3,-4.9 10.3,-5.3 10.3,-5.7 C10.3,-6.5 10.5,-7.3 10.9,-8 C11.6,-9 12.8,-9.7 14.3,-10 C15.6,-10.3 16.3,-10.5 18.9,-10.5 L19,-10.5 C23,-10.5 24.3,-6.8 25.4,-3 L25.7,-2 C26.5,0.6 26.9,2.8 26.9,4.5 C26.9,5.7 26.7,6.8 26.3,7.6 C25.7,8.7 24.7,9.4 23,9.8 C22.1,10 20.6,10.1 20.6,10.1 C20.1,10.1 19.7,10.2 19.3,10.2 C16.1,10.2 14.1,9 12.7,4.7 C11.5,1 11.3,-0.1 10.4,-4.5"/>
<path class="Note" transform="matrix(2.3811,0,0,2.3811,2528.7,1570.39)" d="M18.7,-13.6 C4.9,-13.6 0,-6.6 0,-0.1 C0,6.4 4.9,13.4 18.7,13.4 C32.5,13.4 37.3,6.4 37.3,-0.1 C37.3,-6.6 32.5,-13.6 18.7,-13.6 M10.4,-4.5 C10.3,-4.9 10.3,-5.3 10.3,-5.7 C10.3,-6.5 10.5,-7.3 10.9,-8 C11.6,-9 12.8,-9.7 14.3,-10 C15.6,-10.3 16.3,-10.5 18.9,-10.5 L19,-10.5 C23,-10.5 24.3,-6.8 25.4,-3 L25.7,-2 C26.5,0.6 26.9,2.8 26.9,4.5 C26.9,5.7 26.7,6.8 26.3,7.6 C25.7,8.7 24.7,9.4 23,9.8 C22.1,10 20.6,10.1 20.6,10.1 C20.1,10.1 19.7,10.2 19.3,10.2 C16.1,10.2 14.1,9 12.7,4.7 C11.5,1 11.3,-0.1 10.4,-4.5"/>
<path class="Note" transform="matrix(2.3811,0,0,2.3811,2528.7,1510.87)" d="M18.7,-13.6 C4.9,-13.6 0,-6.6 0,-0.1 C0,6.4 4.9,13.4 18.7,13.4 C32.5,13.4 37.3,6.4 37.3,-0.1 C37.3,-6.6 32.5,-13.6 18.7,-13.6 M10.4,-4.5 C10.3,-4.9 10.3,-5.3 10.3,-5.7 C10.3,-6.5 10.5,-7.3 10.9,-8 C11.6,-9 12.8,-9.7 14.3,-10 C15.6,-10.3 16.3,-10.5 18.9,-10.5 L19,-10.5 C23,-10.5 24.3,-6.8 25.4,-3 L25.7,-2 C26.5,0.6 26.9,2.8 26.9,4.5 C26.9,5.7 26.7,6.8 26.3,7.6 C25.7,8.7 24.7,9.4 23,9.8 C22.1,10 20.6,10.1 20.6,10.1 C20.1,10.1 19.7,10.2 19.3,10.2 C16.1,10.2 14.1,9 12.7,4.7 C11.5,1 11.3,-0.1 10.4,-4.5"/>
<path class="Note" transform="matrix(2.3811,0,0,2.3811,2528.7,1451.34)" d="M18.7,-13.6 C4.9,-13.6 0,-6.6 0,-0.1 C0,6.4 4.9,13.4 18.7,13.4 C32.5,13.4 37.3,6.4 37.3,-0.1 C37.3,-6.6 32.5,-13.6 18.7,-13.6 M10.4,-4.5 C10.3,-4.9 10.3,-5.3 10.3,-5.7 C10.3,-6.5 10.5,-7.3 10.9,-8 C11.6,-9 12.8,-9.7 14.3,-10 C15.6,-10.3 16.3,-10.5 18.9,-10.5 L19,-10.5 C23,-10.5 24.3,-6.8 25.4,-3 L25.7,-2 C26.5,0.6 26.9,2.8 26.9,4.5 C26.9,5.7 26.7,6.8 26.3,7.6 C25.7,8.7 24.7,9.4 23,9.8 C22.1,10 20.6,10.1 20.6,10.1 C20.1,10.1 19.7,10.2 19.3,10.2 C16.1,10.2 14.1,9 12.7,4.7 C11.5,1 11.3,-0.1 10.4,-4.5"/>
<path class="Note" transform="matrix(2.3811,0,0,2.3811,2927.76,1570.39)" d="M18.7,-13.6 C4.9,-13.6 0,-6.6 0,-0.1 C0,6.4 4.9,13.4 18.7,13.4 C32.5,13.4 37.3,6.4 37.3,-0.1 C37.3,-6.6 32.5,-13.6 18.7,-13.6 M10.4,-4.5 C10.3,-4.9 10.3,-5.3 10.3,-5.7 C10.3,-6.5 10.5,-7.3 10.9,-8 C11.6,-9 12.8,-9.7 14.3,-10 C15.6,-10.3 16.3,-10.5 18.9,-10.5 L19,-10.5 C23,-10.5 24.3,-6.8 25.4,-3 L25.7,-2 C26.5,0.6 26.9,2.8 26.9,4.5 C26.9,5.7 26.7,6.8 26.3,7.6 C25.7,8.7 24.7,9.4 23,9.8 C22.1,10 20.6,10.1 20.6,10.1 C20.1,10.1 19.7,10.2 19.3,10.2 C16.1,10.2 14.1,9 12.7,4.7 C11.5,1 11.3,-0.1 10.4,-4.5"/>
<path class="Note" transform="matrix(2.3811,0,0,2.3811,2927.76,1481.1)" d="M18.7,-13.6 C4.9,-13.6 0,-6.6 0,-0.1 C0,6.4 4.9,13.4 18.7,13.4 C32.5,13.4 37.3,6.4 37.3,-0.1 C37.3,-6.6 32.5,-13.6 18.7,-13.6 M10.4,-4.5 C10.3,-4.9 10.3,-5.3 10.3,-5.7 C10.3,-6.5 10.5,-7.3 10.9,-8 C11.6,-9 12.8,-9.7 14.3,-10 C15.6,-10.3 16.3,-10.5 18.9,-10.5 L19,-10.5 C23,-10.5 24.3,-6.8 25.4,-3 L25.7,-2 C26.5,0.6 26.9,2.8 26.9,4.5 C26.9,5.7 26.7,6.8 26.3,7.6 C25.7,8.7 24.7,9.4 23,9.8 C22.1,10 20.6,10.1 20.6,10.1 C20.1,10.1 19.7,10.2 19.3,10.2 C16.1,10.2 14.1,9 12.7,4.7 C11.5,1 11.3,-0.1 10.4,-4.5"/>
<path class="Note" transform="matrix(2.3811,0,0,2.3811,2927.76,1421.57)" d="M18.7,-13.6 C4.9,-13.6 0,-6.6 0,-0.1 C0,6.4 4.9,13.4 18.7,13.4 C32.5,13.4 37.3,6.4 37.3,-0.1 C37.3,-6.6 32.5,-13.6 18.7,-13.6 M10.4,-4.5 C10.3,-4.9 10.3,-5.3 10.3,-5.7 C10.3,-6.5 10.5,-7.3 10.9,-8 C11.6,-9 12.8,-9.7 14.3,-10 C15.6,-10.3 16.3,-10.5 18.9,-10.5 L19,-10.5 C23,-10.5 24.3,-6.8 25.4,-3 L25.7,-2 C26.5,0.6 26.9,2.8 26.9,4.5 C26.9,5.7 26.7,6.8 26.3,7.6 C25.7,8.7 24.7,9.4 23,9.8 C22.1,10 20.6,10.1 20.6,10.1 C20.1,10.1 19.7,10.2 19.3,10.2 C16.1,10.2 14.1,9 12.7,4.7 C11.5,1 11.3,-0.1 10.4,-4.5"/>
<path class="Note" transform="matrix(2.3811,0,0,2.3811,3370.88,1570.39)" d="M18.7,-13.6 C4.9,-13.6 0,-6.6 0,-0.1 C0,6.4 4.9,13.4 18.7,13.4 C32.5,13.4 37.3,6.4 37.3,-0.1 C37.3,-6.6 32.5,-13.6 18.7,-13.6 M10.4,-4.5 C10.3,-4.9 10.3,-5.3 10.3,-5.7 C10.3,-6.5 10.5,-7.3 10.9,-8 C11.6,-9 12.8,-9.7 14.3,-10 C15.6,-10.3 16.3,-10.5 18.9,-10.5 L19,-10.5 C23,-10.5 24.3,-6.8 25.4,-3 L25.7,-2 C26.5,0.6 26.9,2.8 26.9,4.5 C26.9,5.7 26.7,6.8 26.3,7.6 C25.7,8.7 24.7,9.4 23,9.8 C22.1,10 20.6,10.1 20.6,10.1 C20.1,10.1 19.7,10.2 19.3,10.2 C16.1,10.2 14.1,9 12.7,4.7 C11.5,1 11.3,-0.1 10.4,-4.5"/>
<path class="Note" transform="matrix(2.3811,0,0,2.3811,3370.88,1510.87)" d="M18.7,-13.6 C4.9,-13.6 0,-6.6 0,-0.1 C0,6.4 4.9,13.4 18.7,13.4 C32.5,13.4 37.3,6.4 37.3,-0.1 C37.3,-6.6 32.5,-13.6 18.7,-13.6 M10.4,-4.5 C10.3,-4.9 10.3,-5.3 10.3,-5.7 C10.3,-6.5 10.5,-7.3 10.9,-8 C11.6,-9 12.8,-9.7 14.3,-10 C15.6,-10.3 16.3,-10.5 18.9,-10.5 L19,-10.5 C23,-10.5 24.3,-6.8 25.4,-3 L25.7,-2 C26.5,0.6 26.9,2.8 26.9,4.5 C26.9,5.7 26.7,6.8 26.3,7.6 C25.7,8.7 24.7,9.4 23,9.8 C22.1,10 20.6,10.1 20.6,10.1 C20.1,10.1 19.7,10.2 19.3,10.2 C16.1,10.2 14.1,9 12.7,4.7 C11.5,1 11.3,-0.1 10.4,-4.5"/>
<path class="Note" transform="matrix(2.3811,0,0,2.3811,3370.88,1391.81)" d="M18.7,-13.6 C4.9,-13.6 0,-6.6 0,-0.1 C0,6.4 4.9,13.4 18.7,13.4 C32.5,13.4 37.3,6.4 37.3,-0.1 C37.3,-6.6 32.5,-13.6 18.7,-13.6 M10.4,-4.5 C10.3,-4.9 10.3,-5.3 10.3,-5.7 C10.3,-6.5 10.5,-7.3 10.9,-8 C11.6,-9 12.8,-9.7 14.3,-10 C15.6,-10.3 16.3,-10.5 18.9,-10.5 L19,-10.5 C23,-10.5 24.3,-6.8 25.4,-3 L25.7,-2 C26.5,0.6 26.9,2.8 26.9,4.5 C26.9,5.7 26.7,6.8 26.3,7.6 C25.7,8.7 24.7,9.4 23,9.8 C22.1,10 20.6,10.1 20.6,10.1 C20.1,10.1 19.7,10.2 19.3,10.2 C16.1,10.2 14.1,9 12.7,4.7 C11.5,1 11.3,-0.1 10.4,-4.5"/>
<path class="Note" transform="matrix(2.3811,0,0,2.3811,3769.94,1570.39)" d="M18.7,-13.6 C4.9,-13.6 0,-6.6 0,-0.1 C0,6.4 4.9,13.4 18.7,13.4 C32.5,13.4 37.3,6.4 37.3,-0.1 C37.3,-6.6 32.5,-13.6 18.7,-13.6 M10.4,-4.5 C10.3,-4.9 10.3,-5.3 10.3,-5.7 C10.3,-6.5 10.5,-7.3 10.9,-8 C11.6,-9 12.8,-9.7 14.3,-10 C15.6,-10.3 16.3,-10.5 18.9,-10.5 L19,-10.5 C23,-10.5 24.3,-6.8 25.4,-3 L25.7,-2 C26.5,0.6 26.9,2.8 26.9,4.5 C26.9,5.7 26.7,6.8 26.3,7.6 C25.7,8.7 24.7,9.4 23,9.8 C22.1,10 20.6,10.1 20.6,10.1 C20.1,10.1 19.7,10.2 19.3,10.2 C16.1,10.2 14.1,9 12.7,4.7 C11.5,1 11.3,-0.1 10.4,-4.5"/>
<path class="Note" transform="matrix(2.3811,0,0,2.3811,3769.94,1481.1)" d="M18.7,-13.6 C4.9,-13.6 0,-6.6 0,-0.1 C0,6.4 4.9,13.4 18.7,13.4 C32.5,13.4 37.3,6.4 37.3,-0.1 C37.3,-6.6 32.5,-13.6 18.7,-13.6 M10.4,-4.5 C10.3,-4.9 10.3,-5.3 10.3,-5.7 C10.3,-6.5 10.5,-7.3 10.9,-8 C11.6,-9 12.8,-9.7 14.3,-10 C15.6,-10.3 16.3,-10.5 18.9,-10.5 L19,-10.5 C23,-10.5 24.3,-6.8 25.4,-3 L25.7,-2 C26.5,0.6 26.9,2.8 26.9,4.5 C26.9,5.7 26.7,6.8 26.3,7.6 C25.7,8.7 24.7,9.4 23,9.8 C22.1,10 20.6,10.1 20.6,10.1 C20.1,10.1 19.7,10.2 19.3,10.2 C16.1,10.2 14.1,9 12.7,4.7 C11.5,1 11.3,-0.1 10.4,-4.5"/>
<path class="Note" transform="matrix(2.3811,0,0,2.3811,3769.94,1421.57)" d="M18.7,-13.6 C4.9,-13.6 0,-6.6 0,-0.1 C0,6.4 4.9,13.4 18.7,13.4 C32.5,13.4 37.3,6.4 37.3,-0.1 C37.3,-6.6 32.5,-13.6 18.7,-13.6 M10.4,-4.5 C10.3,-4.9 10.3,-5.3 10.3,-5.7 C10.3,-6.5 10.5,-7.3 10.9,-8 C11.6,-9 12.8,-9.7 14.3,-10 C15.6,-10.3 16.3,-10.5 18.9,-10.5 L19,-10.5 C23,-10.5 24.3,-6.8 25.4,-3 L25.7,-2 C26.5,0.6 26.9,2.8 26.9,4.5 C26.9,5.7 26.7,6.8 26.3,7.6 C25.7,8.7 24.7,9.4 23,9.8 C22.1,10 20.6,10.1 20.6,10.1 C20.1,10.1 19.7,10.2 19.3,10.2 C16.1,10.2 14.1,9 12.7,4.7 C11.5,1 11.3,-0.1 10.4,-4.5"/>
<path class="Note" d="M734.553,587.916 C734.863,576.217 741.332,565.836 753.96,556.771 C765.194,548.714 777.474,544.685 790.799,544.685 C809.47,544.685 825.934,552.007 840.189,566.649 C849.253,576.024 853.785,587.645 853.785,601.513 C853.785,613.986 850.454,623.554 843.791,630.217 C835.657,638.429 827.057,642.535 817.993,642.535 C811.795,642.535 806.991,641.14 803.582,638.351 C798.004,633.78 795.215,627.66 795.215,619.99 C795.215,610.073 800.174,601.009 810.09,592.797 C818.225,586.056 826.398,581.64 834.611,579.549 C832.441,575.83 829.691,572.344 826.36,569.09 C815.978,558.941 804.202,553.866 791.032,553.866 C777.319,553.866 765.969,556.849 756.982,562.814 C747.685,568.935 740.209,577.302 734.553,587.916 M837.516,585.708 C833.255,589.659 828.994,593.881 824.733,598.375 C816.366,607.207 812.182,615.574 812.182,623.476 C812.182,631.921 814.119,636.143 817.993,636.143 C821.479,636.143 826.36,631.379 832.635,621.849 C837.671,614.257 840.189,607.284 840.189,600.931 C840.189,595.508 839.298,590.434 837.516,585.708"/>
<path class="Note" d="M734.553,498.624 C734.863,486.926 741.332,476.544 753.96,467.48 C765.194,459.423 777.474,455.394 790.799,455.394 C809.47,455.394 825.934,462.715 840.189,477.358 C849.253,486.732 853.785,498.353 853.785,512.221 C853.785,524.694 850.454,534.263 843.791,540.925 C835.657,549.138 827.057,553.244 817.993,553.244 C811.795,553.244 806.991,551.849 803.582,549.06 C798.004,544.489 795.215,538.369 795.215,530.699 C795.215,520.782 800.174,511.718 810.09,503.505 C818.225,496.765 826.398,492.349 834.611,490.257 C832.441,486.539 829.691,483.052 826.36,479.798 C815.978,469.649 804.202,464.575 791.032,464.575 C777.319,464.575 765.969,467.557 756.982,473.523 C747.685,479.643 740.209,488.011 734.553,498.624 M837.516,496.416 C833.255,500.368 828.994,504.59 824.733,509.083 C816.366,517.916 812.182,526.283 812.182,534.185 C812.182,542.63 814.119,546.852 817.993,546.852 C821.479,546.852 826.36,542.087 832.635,532.558 C837.671,524.966 840.189,517.993 840.189,511.64 C840.189,506.217 839.298,501.142 837.516,496.416"/>
<path class="Note" d="M860.517,739.77 C864.855,736.826 867.993,734.386 869.93,732.449 C873.494,728.652 875.275,725.166 875.275,721.99 C875.275,718.348 873.261,716.528 869.232,716.528 C861.408,716.528 853.04,723.423 844.131,737.213 C841.419,741.397 835.454,755.032 826.234,778.12 C833.594,785.712 837.274,790.012 837.274,791.019 C837.274,792.414 836.384,793.111 834.602,793.111 C833.207,793.111 829.372,790.748 823.097,786.022 C816.279,801.904 805.936,815.462 792.068,826.696 C777.891,838.162 760.963,843.895 741.284,843.895 C733.769,843.895 724.356,842.152 713.045,838.666 C703.981,835.876 699.448,831.422 699.448,825.301 C699.448,816.237 702.935,811.705 709.907,811.705 C714.091,811.705 716.183,813.641 716.183,817.515 C716.183,818.755 715.214,820.072 713.277,821.466 C712.27,822.164 711.767,823.519 711.767,825.534 C711.767,827.935 714.44,830.415 719.785,832.971 C725.596,835.76 734.118,837.155 745.352,837.155 C759.839,837.155 773.823,830.879 787.304,818.329 C799.545,806.94 808.338,793.692 813.684,778.584 C811.592,776.88 809.345,775.021 806.943,773.006 C799.506,768.59 795.787,764.058 795.787,759.41 C795.787,757.473 797.066,756.504 799.622,756.504 C803.031,756.504 807.641,759.41 813.451,765.22 C814.691,766.46 815.853,767.622 816.938,768.707 C819.649,761.269 823.988,751.817 829.953,740.351 C840.722,719.588 853.815,709.207 869.232,709.207 C874.733,709.207 879.072,710.252 882.248,712.344 C885.425,714.436 887.013,717.303 887.013,720.944 C887.013,726.754 884.882,731.674 880.621,735.703 C876.205,739.886 871.595,741.978 866.792,741.978 C862.608,741.978 860.517,741.242 860.517,739.77"/>
<path class="Note" d="M881.435,705.563 C875.082,715.557 865.049,723.846 851.336,730.432 C839.405,736.165 828.249,739.031 817.867,739.031 C809.578,739.031 802.682,737.366 797.182,734.034 C791.216,730.393 788.233,726.055 788.233,721.019 C788.233,709.63 791.216,699.83 797.182,691.617 C805.316,680.461 813.529,674.883 821.818,674.883 C827.706,674.883 831.89,676.045 834.369,678.369 C837.778,681.391 839.482,685.536 839.482,690.804 C839.482,698.241 833.943,704.71 822.864,710.211 C812.095,715.557 804.619,719.043 800.436,720.67 C801.365,722.607 802.566,724.35 804.038,725.9 C807.679,729.773 812.638,731.71 818.913,731.71 C826.816,731.71 837.429,728.805 850.755,722.994 C863.538,717.339 873.765,711.528 881.435,705.563 M798.809,715.324 C804.619,712.38 809.926,708.933 814.73,704.982 C821.857,699.171 825.421,692.896 825.421,686.155 C825.421,682.359 823.678,680.461 820.191,680.461 C817.247,680.461 813.219,683.831 808.106,690.571 C801.675,698.939 798.46,705.756 798.46,711.025 C798.46,712.497 798.576,713.93 798.809,715.324"/>
<path class="Note" d="M1133.62,587.916 C1133.93,576.217 1140.39,565.836 1153.02,556.771 C1164.26,548.714 1176.54,544.685 1189.86,544.685 C1208.53,544.685 1225,552.007 1239.25,566.649 C1248.32,576.024 1252.85,587.645 1252.85,601.513 C1252.85,613.986 1249.52,623.554 1242.85,630.217 C1234.72,638.429 1226.12,642.535 1217.06,642.535 C1210.86,642.535 1206.05,641.14 1202.65,638.351 C1197.07,633.78 1194.28,627.66 1194.28,619.99 C1194.28,610.073 1199.24,601.009 1209.15,592.797 C1217.29,586.056 1225.46,581.64 1233.67,579.549 C1231.5,575.83 1228.75,572.344 1225.42,569.09 C1215.04,558.941 1203.26,553.866 1190.09,553.866 C1176.38,553.866 1165.03,556.849 1156.04,562.814 C1146.75,568.935 1139.27,577.302 1133.62,587.916 M1236.58,585.708 C1232.32,589.659 1228.06,593.881 1223.8,598.375 C1215.43,607.207 1211.24,615.574 1211.24,623.476 C1211.24,631.921 1213.18,636.143 1217.06,636.143 C1220.54,636.143 1225.42,631.379 1231.7,621.849 C1236.73,614.257 1239.25,607.284 1239.25,600.931 C1239.25,595.508 1238.36,590.434 1236.58,585.708"/>
<path class="Note" d="M1133.62,766.499 C1133.93,754.8 1140.39,744.418 1153.02,735.354 C1164.26,727.297 1176.54,723.268 1189.86,723.268 C1208.53,723.268 1225,730.589 1239.25,745.232 C1248.32,754.606 1252.85,766.227 1252.85,780.095 C1252.85,792.568 1249.52,802.137 1242.85,808.799 C1234.72,817.012 1226.12,821.118 1217.06,821.118 C1210.86,821.118 1206.05,819.723 1202.65,816.934 C1197.07,812.363 1194.28,806.243 1194.28,798.573 C1194.28,788.656 1199.24,779.592 1209.15,771.379 C1217.29,764.639 1225.46,760.223 1233.67,758.131 C1231.5,754.413 1228.75,750.926 1225.42,747.672 C1215.04,737.523 1203.26,732.449 1190.09,732.449 C1176.38,732.449 1165.03,735.431 1156.04,741.397 C1146.75,747.517 1139.27,755.885 1133.62,766.499 M1236.58,764.291 C1232.32,768.242 1228.06,772.464 1223.8,776.957 C1215.43,785.79 1211.24,794.157 1211.24,802.059 C1211.24,810.504 1213.18,814.726 1217.06,814.726 C1220.54,814.726 1225.42,809.961 1231.7,800.432 C1236.73,792.84 1239.25,785.867 1239.25,779.514 C1239.25,774.091 1238.36,769.016 1236.58,764.291"/>
<path class="Note" d="M1133.62,677.207 C1133.93,665.509 1140.39,655.127 1153.02,646.063 C1164.26,638.005 1176.54,633.977 1189.86,633.977 C1208.53,633.977 1225,641.298 1239.25,655.941 C1248.32,665.315 1252.85,676.936 1252.85,690.804 C1252.85,703.277 1249.52,712.845 1242.85,719.508 C1234.72,727.72 1226.12,731.826 1217.06,731.826 C1210.86,731.826 1206.05,730.432 1202.65,727.643 C1197.07,723.072 1194.28,716.951 1194.28,709.281 C1194.28,699.365 1199.24,690.3 1209.15,682.088 C1217.29,675.348 1225.46,670.932 1233.67,668.84 C1231.5,665.121 1228.75,661.635 1225.42,658.381 C1215.04,648.232 1203.26,643.157 1190.09,643.157 C1176.38,643.157 1165.03,646.14 1156.04,652.106 C1146.75,658.226 1139.27,666.593 1133.62,677.207 M1236.58,674.999 C1232.32,678.95 1228.06,683.173 1223.8,687.666 C1215.43,696.498 1211.24,704.865 1211.24,712.768 C1211.24,721.212 1213.18,725.435 1217.06,725.435 C1220.54,725.435 1225.42,720.67 1231.7,711.141 C1236.73,703.548 1239.25,696.576 1239.25,690.223 C1239.25,684.8 1238.36,679.725 1236.58,674.999"/>
<path class="Note" d="M1664.92,581.059 C1675.38,574.474 1682.97,569.09 1687.7,564.906 C1696.37,557.236 1700.71,549.489 1700.71,541.664 C1700.71,532.522 1694.59,527.951 1682.35,527.951 C1669.49,527.951 1656.09,537.209 1642.14,555.725 C1632.69,568.276 1625.99,580.13 1622.04,591.286 C1626.92,588.11 1632.07,586.521 1637.49,586.521 C1642.61,586.521 1646.67,588.807 1649.7,593.378 C1651.79,596.554 1652.83,601.977 1652.83,609.647 C1652.83,616.542 1649.19,624.638 1641.91,633.935 C1637.42,639.668 1632.42,642.535 1626.92,642.535 C1619.95,642.535 1615.06,641.14 1612.28,638.351 C1608.32,634.4 1606.35,626.575 1606.35,614.877 C1606.35,595.198 1614.29,575.83 1630.17,556.771 C1648.07,535.311 1665.23,524.581 1681.65,524.581 C1694.36,524.581 1703.85,527.564 1710.13,533.529 C1713.77,537.015 1715.59,542.051 1715.59,548.637 C1715.59,555.997 1708.34,564.209 1693.86,573.273 C1686.26,578.077 1676.62,580.672 1664.92,581.059 M1620.53,596.167 C1618.59,602.675 1617.62,608.911 1617.62,614.877 C1617.62,629.055 1619.87,636.143 1624.36,636.143 C1628.62,636.143 1631.95,633.122 1634.36,627.079 C1637.14,620.261 1638.54,612.707 1638.54,604.418 C1638.54,597.058 1636.1,593.378 1631.22,593.378 C1627.81,593.378 1624.25,594.307 1620.53,596.167"/>
<path class="Note" d="M1664.92,759.642 C1675.38,753.057 1682.97,747.672 1687.7,743.489 C1696.37,735.819 1700.71,728.071 1700.71,720.247 C1700.71,711.105 1694.59,706.534 1682.35,706.534 C1669.49,706.534 1656.09,715.792 1642.14,734.308 C1632.69,746.859 1625.99,758.712 1622.04,769.869 C1626.92,766.692 1632.07,765.104 1637.49,765.104 C1642.61,765.104 1646.67,767.389 1649.7,771.96 C1651.79,775.137 1652.83,780.56 1652.83,788.23 C1652.83,795.125 1649.19,803.221 1641.91,812.518 C1637.42,818.251 1632.42,821.118 1626.92,821.118 C1619.95,821.118 1615.06,819.723 1612.28,816.934 C1608.32,812.983 1606.35,805.158 1606.35,793.459 C1606.35,773.781 1614.29,754.413 1630.17,735.354 C1648.07,713.894 1665.23,703.164 1681.65,703.164 C1694.36,703.164 1703.85,706.146 1710.13,712.112 C1713.77,715.598 1715.59,720.634 1715.59,727.219 C1715.59,734.579 1708.34,742.791 1693.86,751.856 C1686.26,756.659 1676.62,759.255 1664.92,759.642 M1620.53,774.749 C1618.59,781.257 1617.62,787.494 1617.62,793.459 C1617.62,807.637 1619.87,814.726 1624.36,814.726 C1628.62,814.726 1631.95,811.705 1634.36,805.662 C1637.14,798.844 1638.54,791.29 1638.54,783 C1638.54,775.64 1636.1,771.96 1631.22,771.96 C1627.81,771.96 1624.25,772.89 1620.53,774.749"/>
<path class="Note" d="M1546.74,498.624 C1547.05,486.926 1553.52,476.544 1566.15,467.48 C1577.38,459.423 1589.66,455.394 1602.99,455.394 C1621.66,455.394 1638.12,462.715 1652.38,477.358 C1661.44,486.732 1665.97,498.353 1665.97,512.221 C1665.97,524.694 1662.64,534.263 1655.98,540.925 C1647.85,549.138 1639.25,553.244 1630.18,553.244 C1623.98,553.244 1619.18,551.849 1615.77,549.06 C1610.19,544.489 1607.4,538.369 1607.4,530.699 C1607.4,520.782 1612.36,511.718 1622.28,503.505 C1630.41,496.765 1638.59,492.349 1646.8,490.257 C1644.63,486.539 1641.88,483.052 1638.55,479.798 C1628.17,469.649 1616.39,464.575 1603.22,464.575 C1589.51,464.575 1578.16,467.557 1569.17,473.523 C1559.87,479.643 1552.4,488.011 1546.74,498.624 M1649.7,496.416 C1645.44,500.368 1641.18,504.59 1636.92,509.083 C1628.55,517.916 1624.37,526.283 1624.37,534.185 C1624.37,542.63 1626.31,546.852 1630.18,546.852 C1633.67,546.852 1638.55,542.087 1644.82,532.558 C1649.86,524.966 1652.38,517.993 1652.38,511.64 C1652.38,506.217 1651.49,501.142 1649.7,496.416"/>
<path class="Note" d="M1546.74,677.207 C1547.05,665.509 1553.52,655.127 1566.15,646.063 C1577.38,638.005 1589.66,633.977 1602.99,633.977 C1621.66,633.977 1638.12,641.298 1652.38,655.941 C1661.44,665.315 1665.97,676.936 1665.97,690.804 C1665.97,703.277 1662.64,712.845 1655.98,719.508 C1647.85,727.72 1639.25,731.826 1630.18,731.826 C1623.98,731.826 1619.18,730.432 1615.77,727.643 C1610.19,723.072 1607.4,716.951 1607.4,709.281 C1607.4,699.365 1612.36,690.3 1622.28,682.088 C1630.41,675.348 1638.59,670.932 1646.8,668.84 C1644.63,665.121 1641.88,661.635 1638.55,658.381 C1628.17,648.232 1616.39,643.157 1603.22,643.157 C1589.51,643.157 1578.16,646.14 1569.17,652.106 C1559.87,658.226 1552.4,666.593 1546.74,677.207 M1649.7,674.999 C1645.44,678.95 1641.18,683.173 1636.92,687.666 C1628.55,696.498 1624.37,704.865 1624.37,712.768 C1624.37,721.212 1626.31,725.435 1630.18,725.435 C1633.67,725.435 1638.55,720.67 1644.82,711.141 C1649.86,703.548 1652.38,696.576 1652.38,690.223 C1652.38,684.8 1651.49,679.725 1649.7,674.999"/>
<path class="Note" d="M2067.38,587.916 C2067.69,576.217 2074.16,565.836 2086.79,556.771 C2098.02,548.714 2110.3,544.685 2123.63,544.685 C2142.3,544.685 2158.76,552.007 2173.02,566.649 C2182.08,576.024 2186.61,587.645 2186.61,601.513 C2186.61,613.986 2183.28,623.554 2176.62,630.217 C2168.49,638.429 2159.89,642.535 2150.82,642.535 C2144.62,642.535 2139.82,641.14 2136.41,638.351 C2130.83,633.78 2128.04,627.66 2128.04,619.99 C2128.04,610.073 2133,601.009 2142.92,592.797 C2151.05,586.056 2159.23,581.64 2167.44,579.549 C2165.27,575.83 2162.52,572.344 2159.19,569.09 C2148.81,558.941 2137.03,553.866 2123.86,553.866 C2110.15,553.866 2098.8,556.849 2089.81,562.814 C2080.51,568.935 2073.04,577.302 2067.38,587.916 M2170.34,585.708 C2166.08,589.659 2161.82,593.881 2157.56,598.375 C2149.19,607.207 2145.01,615.574 2145.01,623.476 C2145.01,631.921 2146.95,636.143 2150.82,636.143 C2154.31,636.143 2159.19,631.379 2165.46,621.849 C2170.5,614.257 2173.02,607.284 2173.02,600.931 C2173.02,595.508 2172.13,590.434 2170.34,585.708"/>
<path class="Note" d="M2178.47,762.547 C2183.04,762.547 2185.33,765.414 2185.33,771.147 C2185.33,775.176 2182.81,781.18 2177.77,789.16 C2173.74,795.59 2171.73,801.865 2171.73,807.986 C2171.73,811.472 2176.8,813.215 2186.95,813.215 C2195.32,813.215 2206.98,808.683 2221.93,799.619 C2206.9,814.106 2193.85,821.35 2182.77,821.35 C2172.78,821.35 2165.8,819.839 2161.85,816.818 C2160.85,816.043 2159.99,815.113 2159.3,814.029 C2155.42,818.755 2148.95,821.118 2139.89,821.118 C2131.21,821.118 2124.55,819.336 2119.9,815.772 C2116.8,813.37 2115.25,809.535 2115.25,804.267 C2115.25,795.9 2120.21,786.758 2130.13,776.841 C2140.74,766.227 2153.02,760.92 2166.97,760.92 C2170.45,760.92 2173.01,762.199 2174.64,764.755 C2175.95,763.283 2177.23,762.547 2178.47,762.547 M2157.67,808.799 C2157.59,808.179 2157.55,807.56 2157.55,806.94 C2157.55,806.63 2161.5,795.822 2169.41,774.517 C2170.18,772.425 2170.96,770.643 2171.73,769.171 C2168.71,768.552 2165.73,768.242 2162.78,768.242 C2157.36,768.242 2150.15,772.851 2141.17,782.071 C2133.11,790.283 2129.08,797.372 2129.08,803.337 C2129.08,809.923 2132.22,813.215 2138.49,813.215 C2146.09,813.215 2152.48,811.743 2157.67,808.799"/>
<path class="Note" d="M2134.19,553.244 C2130.4,553.244 2128.5,549.176 2128.5,541.041 L2128.5,506.992 C2128.5,503.738 2130.09,502.111 2133.26,502.111 C2134.66,502.111 2135.71,502.227 2136.4,502.459 C2138.88,498.121 2142.95,494.48 2148.6,491.536 C2156.51,487.43 2164.53,485.376 2172.66,485.376 C2179.09,485.376 2182.31,487.778 2182.31,492.582 C2182.31,496.61 2180.14,498.624 2175.8,498.624 C2172.7,498.624 2169.75,497.927 2166.97,496.533 C2164.49,495.293 2161.85,494.673 2159.06,494.673 C2154.26,494.673 2147.17,497.811 2137.8,504.086 C2139.11,510.362 2139.77,517.683 2139.77,526.05 C2139.77,544.179 2137.91,553.244 2134.19,553.244"/>
<path class="Note" d="M2067.38,677.207 C2067.69,665.509 2074.16,655.127 2086.79,646.063 C2098.02,638.005 2110.3,633.977 2123.63,633.977 C2142.3,633.977 2158.76,641.298 2173.02,655.941 C2182.08,665.315 2186.61,676.936 2186.61,690.804 C2186.61,703.277 2183.28,712.845 2176.62,719.508 C2168.49,727.72 2159.89,731.826 2150.82,731.826 C2144.62,731.826 2139.82,730.432 2136.41,727.643 C2130.83,723.072 2128.04,716.951 2128.04,709.281 C2128.04,699.365 2133,690.3 2142.92,682.088 C2151.05,675.348 2159.23,670.932 2167.44,668.84 C2165.27,665.121 2162.52,661.635 2159.19,658.381 C2148.81,648.232 2137.03,643.157 2123.86,643.157 C2110.15,643.157 2098.8,646.14 2089.81,652.106 C2080.51,658.226 2073.04,666.593 2067.38,677.207 M2170.34,674.999 C2166.08,678.95 2161.82,683.173 2157.56,687.666 C2149.19,696.498 2145.01,704.865 2145.01,712.768 C2145.01,721.212 2146.95,725.435 2150.82,725.435 C2154.31,725.435 2159.19,720.67 2165.46,711.141 C2170.5,703.548 2173.02,696.576 2173.02,690.223 C2173.02,684.8 2172.13,679.725 2170.34,674.999"/>
<path class="Note" d="M2496.43,855.79 C2496.74,844.091 2503.21,833.71 2515.84,824.645 C2527.07,816.588 2539.35,812.559 2552.68,812.559 C2571.35,812.559 2587.81,819.881 2602.07,834.523 C2611.13,843.898 2615.66,855.519 2615.66,869.387 C2615.66,881.86 2612.33,891.428 2605.67,898.091 C2597.54,906.303 2588.94,910.409 2579.87,910.409 C2573.67,910.409 2568.87,909.014 2565.46,906.225 C2559.88,901.654 2557.09,895.534 2557.09,887.864 C2557.09,877.947 2562.05,868.883 2571.97,860.671 C2580.1,853.93 2588.28,849.514 2596.49,847.423 C2594.32,843.704 2591.57,840.218 2588.24,836.964 C2577.86,826.815 2566.08,821.74 2552.91,821.74 C2539.2,821.74 2527.85,824.723 2518.86,830.688 C2509.56,836.809 2502.09,845.176 2496.43,855.79 M2599.39,853.582 C2595.13,857.533 2590.87,861.755 2586.61,866.249 C2578.24,875.081 2574.06,883.448 2574.06,891.35 C2574.06,899.795 2576,904.017 2579.87,904.017 C2583.36,904.017 2588.24,899.253 2594.51,889.723 C2599.55,882.131 2602.07,875.158 2602.07,868.805 C2602.07,863.382 2601.18,858.308 2599.39,853.582"/>
<path class="Note" d="M2496.43,587.916 C2496.74,576.217 2503.21,565.836 2515.84,556.771 C2527.07,548.714 2539.35,544.685 2552.68,544.685 C2571.35,544.685 2587.81,552.007 2602.07,566.649 C2611.13,576.024 2615.66,587.645 2615.66,601.513 C2615.66,613.986 2612.33,623.554 2605.67,630.217 C2597.54,638.429 2588.94,642.535 2579.87,642.535 C2573.67,642.535 2568.87,641.14 2565.46,638.351 C2559.88,633.78 2557.09,627.66 2557.09,619.99 C2557.09,610.073 2562.05,601.009 2571.97,592.797 C2580.1,586.056 2588.28,581.64 2596.49,579.549 C2594.32,575.83 2591.57,572.344 2588.24,569.09 C2577.86,558.941 2566.08,553.866 2552.91,553.866 C2539.2,553.866 2527.85,556.849 2518.86,562.814 C2509.56,568.935 2502.09,577.302 2496.43,587.916 M2599.39,585.708 C2595.13,589.659 2590.87,593.881 2586.61,598.375 C2578.24,607.207 2574.06,615.574 2574.06,623.476 C2574.06,631.921 2576,636.143 2579.87,636.143 C2583.36,636.143 2588.24,631.379 2594.51,621.849 C2599.55,614.257 2602.07,607.284 2602.07,600.931 C2602.07,595.508 2601.18,590.434 2599.39,585.708"/>
<path class="Note" d="M2563.24,553.244 C2559.45,553.244 2557.55,549.176 2557.55,541.041 L2557.55,506.992 C2557.55,503.738 2559.14,502.111 2562.31,502.111 C2563.71,502.111 2564.75,502.227 2565.45,502.459 C2567.93,498.121 2572,494.48 2577.65,491.536 C2585.56,487.43 2593.58,485.376 2601.71,485.376 C2608.14,485.376 2611.36,487.778 2611.36,492.582 C2611.36,496.61 2609.19,498.624 2604.85,498.624 C2601.75,498.624 2598.8,497.927 2596.02,496.533 C2593.54,495.293 2590.9,494.673 2588.11,494.673 C2583.31,494.673 2576.22,497.811 2566.85,504.086 C2568.16,510.362 2568.82,517.683 2568.82,526.05 C2568.82,544.179 2566.96,553.244 2563.24,553.244"/>
<path class="Note" d="M2496.43,677.207 C2496.74,665.509 2503.21,655.127 2515.84,646.063 C2527.07,638.005 2539.35,633.977 2552.68,633.977 C2571.35,633.977 2587.81,641.298 2602.07,655.941 C2611.13,665.315 2615.66,676.936 2615.66,690.804 C2615.66,703.277 2612.33,712.845 2605.67,719.508 C2597.54,727.72 2588.94,731.826 2579.87,731.826 C2573.67,731.826 2568.87,730.432 2565.46,727.643 C2559.88,723.072 2557.09,716.951 2557.09,709.281 C2557.09,699.365 2562.05,690.3 2571.97,682.088 C2580.1,675.348 2588.28,670.932 2596.49,668.84 C2594.32,665.121 2591.57,661.635 2588.24,658.381 C2577.86,648.232 2566.08,643.157 2552.91,643.157 C2539.2,643.157 2527.85,646.14 2518.86,652.106 C2509.56,658.226 2502.09,666.593 2496.43,677.207 M2599.39,674.999 C2595.13,678.95 2590.87,683.173 2586.61,687.666 C2578.24,696.498 2574.06,704.865 2574.06,712.768 C2574.06,721.212 2576,725.435 2579.87,725.435 C2583.36,725.435 2588.24,720.67 2594.51,711.141 C2599.55,703.548 2602.07,696.576 2602.07,690.223 C2602.07,684.8 2601.18,679.725 2599.39,674.999"/>
<path class="Note" d="M3020.64,941.943 C3020.64,950.853 3010.5,970.415 2990.2,1000.63 C2982.14,1012.64 2970.56,1021.43 2955.45,1027.01 C2944.29,1031.19 2931.39,1033.29 2916.75,1033.29 C2912.03,1033.29 2907.84,1032.32 2904.2,1030.38 C2900.17,1028.29 2898.16,1026 2898.16,1023.52 C2898.16,1017.09 2901.61,1013.88 2908.5,1013.88 C2909.51,1013.88 2910.01,1014.5 2910.01,1015.74 C2910.01,1016.82 2909.51,1018.02 2908.5,1019.34 C2907.26,1020.97 2906.64,1022.17 2906.64,1022.94 C2906.64,1025.27 2910.13,1026.43 2917.1,1026.43 C2932.75,1026.43 2945.11,1024.53 2954.17,1020.73 C2963.62,1016.86 2973.04,1006.98 2982.41,991.101 L2985.08,986.104 C2980.59,989.513 2976.14,991.217 2971.72,991.217 C2960.72,991.217 2955.22,986.762 2955.22,977.853 C2955.22,968.246 2961.69,958.136 2974.63,947.522 C2984.77,939.309 2993.8,935.203 3001.7,935.203 C3005.65,935.203 3008.95,936.249 3011.58,938.341 C3012.51,937.644 3013.67,937.295 3015.07,937.295 C3018.79,937.295 3020.64,938.845 3020.64,941.943 M2986.48,983.663 L3008.44,943.106 C3006.74,942.718 3004.84,942.525 3002.75,942.525 C2995.23,942.525 2987.95,946.902 2980.9,955.656 C2972.69,965.883 2968.58,974.056 2968.58,980.177 C2968.58,984.206 2971.25,986.22 2976.6,986.22 C2979.16,986.22 2982.45,985.368 2986.48,983.663"/>
<path class="Note" d="M2895.49,587.916 C2895.8,576.217 2902.27,565.836 2914.9,556.771 C2926.14,548.714 2938.41,544.685 2951.74,544.685 C2970.41,544.685 2986.87,552.007 3001.13,566.649 C3010.19,576.024 3014.73,587.645 3014.73,601.513 C3014.73,613.986 3011.4,623.554 3004.73,630.217 C2996.6,638.429 2988,642.535 2978.93,642.535 C2972.74,642.535 2967.93,641.14 2964.52,638.351 C2958.95,633.78 2956.16,627.66 2956.16,619.99 C2956.16,610.073 2961.11,601.009 2971.03,592.797 C2979.17,586.056 2987.34,581.64 2995.55,579.549 C2993.38,575.83 2990.63,572.344 2987.3,569.09 C2976.92,558.941 2965.14,553.866 2951.97,553.866 C2938.26,553.866 2926.91,556.849 2917.92,562.814 C2908.63,568.935 2901.15,577.302 2895.49,587.916 M2998.46,585.708 C2994.2,589.659 2989.94,593.881 2985.67,598.375 C2977.31,607.207 2973.12,615.574 2973.12,623.476 C2973.12,631.921 2975.06,636.143 2978.93,636.143 C2982.42,636.143 2987.3,631.379 2993.58,621.849 C2998.61,614.257 3001.13,607.284 3001.13,600.931 C3001.13,595.508 3000.24,590.434 2998.46,585.708"/>
<path class="Note" d="M2895.49,498.624 C2895.8,486.926 2902.27,476.544 2914.9,467.48 C2926.14,459.423 2938.41,455.394 2951.74,455.394 C2970.41,455.394 2986.87,462.715 3001.13,477.358 C3010.19,486.732 3014.73,498.353 3014.73,512.221 C3014.73,524.694 3011.4,534.263 3004.73,540.925 C2996.6,549.138 2988,553.244 2978.93,553.244 C2972.74,553.244 2967.93,551.849 2964.52,549.06 C2958.95,544.489 2956.16,538.369 2956.16,530.699 C2956.16,520.782 2961.11,511.718 2971.03,503.505 C2979.17,496.765 2987.34,492.349 2995.55,490.257 C2993.38,486.539 2990.63,483.052 2987.3,479.798 C2976.92,469.649 2965.14,464.575 2951.97,464.575 C2938.26,464.575 2926.91,467.557 2917.92,473.523 C2908.63,479.643 2901.15,488.011 2895.49,498.624 M2998.46,496.416 C2994.2,500.368 2989.94,504.59 2985.67,509.083 C2977.31,517.916 2973.12,526.283 2973.12,534.185 C2973.12,542.63 2975.06,546.852 2978.93,546.852 C2982.42,546.852 2987.3,542.087 2993.58,532.558 C2998.61,524.966 3001.13,517.993 3001.13,511.64 C3001.13,506.217 3000.24,501.142 2998.46,496.416"/>
<path class="Note" d="M3042.38,705.563 C3036.02,715.557 3025.99,723.846 3012.28,730.432 C3000.35,736.165 2989.19,739.031 2978.81,739.031 C2970.52,739.031 2963.62,737.366 2958.12,734.034 C2952.16,730.393 2949.17,726.055 2949.17,721.019 C2949.17,709.63 2952.16,699.83 2958.12,691.617 C2966.26,680.461 2974.47,674.883 2982.76,674.883 C2988.65,674.883 2992.83,676.045 2995.31,678.369 C2998.72,681.391 3000.42,685.536 3000.42,690.804 C3000.42,698.241 2994.88,704.71 2983.81,710.211 C2973.04,715.557 2965.56,719.043 2961.38,720.67 C2962.31,722.607 2963.51,724.35 2964.98,725.9 C2968.62,729.773 2973.58,731.71 2979.85,731.71 C2987.76,731.71 2998.37,728.805 3011.7,722.994 C3024.48,717.339 3034.71,711.528 3042.38,705.563 M2959.75,715.324 C2965.56,712.38 2970.87,708.933 2975.67,704.982 C2982.8,699.171 2986.36,692.896 2986.36,686.155 C2986.36,682.359 2984.62,680.461 2981.13,680.461 C2978.19,680.461 2974.16,683.831 2969.05,690.571 C2962.62,698.939 2959.4,705.756 2959.4,711.025 C2959.4,712.497 2959.52,713.93 2959.75,715.324"/>
<path class="Note" d="M3464.57,918.353 C3468.91,915.409 3472.05,912.968 3473.98,911.031 C3477.55,907.235 3479.33,903.749 3479.33,900.572 C3479.33,896.931 3477.32,895.11 3473.29,895.11 C3465.46,895.11 3457.09,902.006 3448.19,915.796 C3445.47,919.98 3439.51,933.615 3430.29,956.702 C3437.65,964.295 3441.33,968.595 3441.33,969.602 C3441.33,970.996 3440.44,971.693 3438.66,971.693 C3437.26,971.693 3433.43,969.331 3427.15,964.605 C3420.33,980.487 3409.99,994.045 3396.12,1005.28 C3381.95,1016.74 3365.02,1022.48 3345.34,1022.48 C3337.82,1022.48 3328.41,1020.73 3317.1,1017.25 C3308.03,1014.46 3303.5,1010 3303.5,1003.88 C3303.5,994.819 3306.99,990.287 3313.96,990.287 C3318.15,990.287 3320.24,992.224 3320.24,996.098 C3320.24,997.337 3319.27,998.654 3317.33,1000.05 C3316.32,1000.75 3315.82,1002.1 3315.82,1004.12 C3315.82,1006.52 3318.49,1009 3323.84,1011.55 C3329.65,1014.34 3338.17,1015.74 3349.41,1015.74 C3363.89,1015.74 3377.88,1009.46 3391.36,996.911 C3403.6,985.523 3412.39,972.275 3417.74,957.167 C3415.65,955.463 3413.4,953.603 3411,951.589 C3403.56,947.173 3399.84,942.641 3399.84,937.992 C3399.84,936.055 3401.12,935.087 3403.68,935.087 C3407.09,935.087 3411.7,937.992 3417.51,943.803 C3418.75,945.042 3419.91,946.205 3420.99,947.289 C3423.7,939.852 3428.04,930.4 3434.01,918.934 C3444.78,898.171 3457.87,887.789 3473.29,887.789 C3478.79,887.789 3483.13,888.835 3486.3,890.927 C3489.48,893.019 3491.07,895.885 3491.07,899.526 C3491.07,905.337 3488.94,910.257 3484.68,914.285 C3480.26,918.469 3475.65,920.561 3470.85,920.561 C3466.66,920.561 3464.57,919.825 3464.57,918.353"/>
<path class="Note" d="M3338.61,587.916 C3338.92,576.217 3345.39,565.836 3358.01,556.771 C3369.25,548.714 3381.53,544.685 3394.85,544.685 C3413.52,544.685 3429.99,552.007 3444.24,566.649 C3453.31,576.024 3457.84,587.645 3457.84,601.513 C3457.84,613.986 3454.51,623.554 3447.85,630.217 C3439.71,638.429 3431.11,642.535 3422.05,642.535 C3415.85,642.535 3411.05,641.14 3407.64,638.351 C3402.06,633.78 3399.27,627.66 3399.27,619.99 C3399.27,610.073 3404.23,601.009 3414.14,592.797 C3422.28,586.056 3430.45,581.64 3438.67,579.549 C3436.5,575.83 3433.75,572.344 3430.41,569.09 C3420.03,558.941 3408.26,553.866 3395.09,553.866 C3381.37,553.866 3370.02,556.849 3361.04,562.814 C3351.74,568.935 3344.26,577.302 3338.61,587.916 M3441.57,585.708 C3437.31,589.659 3433.05,593.881 3428.79,598.375 C3420.42,607.207 3416.24,615.574 3416.24,623.476 C3416.24,631.921 3418.17,636.143 3422.05,636.143 C3425.53,636.143 3430.41,631.379 3436.69,621.849 C3441.73,614.257 3444.24,607.284 3444.24,600.931 C3444.24,595.508 3443.35,590.434 3441.57,585.708"/>
<path class="Note" d="M3485.49,794.854 C3479.14,804.848 3469.1,813.138 3455.39,819.723 C3443.46,825.456 3432.3,828.323 3421.92,828.323 C3413.63,828.323 3406.74,826.657 3401.24,823.326 C3395.27,819.684 3392.29,815.346 3392.29,810.31 C3392.29,798.921 3395.27,789.121 3401.24,780.909 C3409.37,769.752 3417.58,764.174 3425.87,764.174 C3431.76,764.174 3435.94,765.336 3438.42,767.661 C3441.83,770.682 3443.54,774.827 3443.54,780.095 C3443.54,787.533 3438,794.002 3426.92,799.502 C3416.15,804.848 3408.67,808.334 3404.49,809.961 C3405.42,811.898 3406.62,813.641 3408.09,815.191 C3411.73,819.065 3416.69,821.001 3422.97,821.001 C3430.87,821.001 3441.48,818.096 3454.81,812.286 C3467.59,806.63 3477.82,800.819 3485.49,794.854 M3402.86,804.616 C3408.67,801.672 3413.98,798.224 3418.78,794.273 C3425.91,788.462 3429.48,782.187 3429.48,775.447 C3429.48,771.651 3427.73,769.752 3424.25,769.752 C3421.3,769.752 3417.27,773.123 3412.16,779.863 C3405.73,788.23 3402.51,795.048 3402.51,800.316 C3402.51,801.788 3402.63,803.221 3402.86,804.616"/>
<path class="Note" d="M3463.76,674.069 C3463.76,682.979 3453.61,702.541 3433.31,732.756 C3425.25,744.764 3413.67,753.558 3398.56,759.136 C3387.41,763.319 3374.51,765.411 3359.87,765.411 C3355.14,765.411 3350.96,764.443 3347.31,762.506 C3343.29,760.414 3341.27,758.129 3341.27,755.65 C3341.27,749.219 3344.72,746.004 3351.61,746.004 C3352.62,746.004 3353.12,746.624 3353.12,747.863 C3353.12,748.948 3352.62,750.149 3351.61,751.466 C3350.37,753.093 3349.75,754.294 3349.75,755.068 C3349.75,757.393 3353.24,758.555 3360.21,758.555 C3375.86,758.555 3388.22,756.657 3397.28,752.86 C3406.74,748.987 3416.15,739.109 3425.52,723.227 L3428.2,718.23 C3423.7,721.638 3419.25,723.343 3414.83,723.343 C3403.83,723.343 3398.33,718.888 3398.33,709.979 C3398.33,700.372 3404.8,690.262 3417.74,679.648 C3427.89,671.435 3436.91,667.329 3444.82,667.329 C3448.77,667.329 3452.06,668.375 3454.69,670.467 C3455.62,669.77 3456.78,669.421 3458.18,669.421 C3461.9,669.421 3463.76,670.971 3463.76,674.069 M3429.59,715.789 L3451.56,675.232 C3449.85,674.844 3447.95,674.651 3445.86,674.651 C3438.35,674.651 3431.06,679.028 3424.01,687.782 C3415.8,698.009 3411.7,706.182 3411.7,712.303 C3411.7,716.332 3414.37,718.346 3419.71,718.346 C3422.27,718.346 3425.56,717.494 3429.59,715.789"/>
<path class="Note" d="M3737.67,945.081 C3737.98,933.383 3744.45,923.001 3757.08,913.937 C3768.31,905.879 3780.59,901.851 3793.92,901.851 C3812.59,901.851 3829.05,909.172 3843.31,923.815 C3852.37,933.189 3856.9,944.81 3856.9,958.678 C3856.9,971.151 3853.57,980.719 3846.91,987.382 C3838.77,995.594 3830.17,999.7 3821.11,999.7 C3814.91,999.7 3810.11,998.306 3806.7,995.517 C3801.12,990.946 3798.33,984.825 3798.33,977.155 C3798.33,967.239 3803.29,958.174 3813.21,949.962 C3821.34,943.222 3829.52,938.806 3837.73,936.714 C3835.56,932.995 3832.81,929.509 3829.48,926.255 C3819.1,916.106 3807.32,911.031 3794.15,911.031 C3780.44,911.031 3769.09,914.014 3760.1,919.98 C3750.8,926.1 3743.33,934.467 3737.67,945.081 M3840.63,942.873 C3836.37,946.824 3832.11,951.047 3827.85,955.54 C3819.48,964.372 3815.3,972.739 3815.3,980.642 C3815.3,989.086 3817.24,993.309 3821.11,993.309 C3824.6,993.309 3829.48,988.544 3835.75,979.015 C3840.79,971.422 3843.31,964.45 3843.31,958.097 C3843.31,952.674 3842.41,947.599 3840.63,942.873"/>
<path class="Note" d="M3737.67,587.916 C3737.98,576.217 3744.45,565.836 3757.08,556.771 C3768.31,548.714 3780.59,544.685 3793.92,544.685 C3812.59,544.685 3829.05,552.007 3843.31,566.649 C3852.37,576.024 3856.9,587.645 3856.9,601.513 C3856.9,613.986 3853.57,623.554 3846.91,630.217 C3838.77,638.429 3830.17,642.535 3821.11,642.535 C3814.91,642.535 3810.11,641.14 3806.7,638.351 C3801.12,633.78 3798.33,627.66 3798.33,619.99 C3798.33,610.073 3803.29,601.009 3813.21,592.797 C3821.34,586.056 3829.52,581.64 3837.73,579.549 C3835.56,575.83 3832.81,572.344 3829.48,569.09 C3819.1,558.941 3807.32,553.866 3794.15,553.866 C3780.44,553.866 3769.09,556.849 3760.1,562.814 C3750.8,568.935 3743.33,577.302 3737.67,587.916 M3840.63,585.708 C3836.37,589.659 3832.11,593.881 3827.85,598.375 C3819.48,607.207 3815.3,615.574 3815.3,623.476 C3815.3,631.921 3817.24,636.143 3821.11,636.143 C3824.6,636.143 3829.48,631.379 3835.75,621.849 C3840.79,614.257 3843.31,607.284 3843.31,600.931 C3843.31,595.508 3842.41,590.434 3840.63,585.708"/>
<path class="Note" d="M3737.67,498.624 C3737.98,486.926 3744.45,476.544 3757.08,467.48 C3768.31,459.423 3780.59,455.394 3793.92,455.394 C3812.59,455.394 3829.05,462.715 3843.31,477.358 C3852.37,486.732 3856.9,498.353 3856.9,512.221 C3856.9,524.694 3853.57,534.263 3846.91,540.925 C3838.77,549.138 3830.17,553.244 3821.11,553.244 C3814.91,553.244 3810.11,551.849 3806.7,549.06 C3801.12,544.489 3798.33,538.369 3798.33,530.699 C3798.33,520.782 3803.29,511.718 3813.21,503.505 C3821.34,496.765 3829.52,492.349 3837.73,490.257 C3835.56,486.539 3832.81,483.052 3829.48,479.798 C3819.1,469.649 3807.32,464.575 3794.15,464.575 C3780.44,464.575 3769.09,467.557 3760.1,473.523 C3750.8,479.643 3743.33,488.011 3737.67,498.624 M3840.63,496.416 C3836.37,500.368 3832.11,504.59 3827.85,509.083 C3819.48,517.916 3815.3,526.283 3815.3,534.185 C3815.3,542.63 3817.24,546.852 3821.11,546.852 C3824.6,546.852 3829.48,542.087 3835.75,532.558 C3840.79,524.966 3843.31,517.993 3843.31,511.64 C3843.31,506.217 3842.41,501.142 3840.63,496.416"/>
<path class="Note" d="M3884.55,705.563 C3878.2,715.557 3868.17,723.846 3854.45,730.432 C3842.52,736.165 3831.37,739.031 3820.98,739.031 C3812.69,739.031 3805.8,737.366 3800.3,734.034 C3794.33,730.393 3791.35,726.055 3791.35,721.019 C3791.35,709.63 3794.33,699.83 3800.3,691.617 C3808.43,680.461 3816.65,674.883 3824.94,674.883 C3830.82,674.883 3835.01,676.045 3837.49,678.369 C3840.9,681.391 3842.6,685.536 3842.6,690.804 C3842.6,698.241 3837.06,704.71 3825.98,710.211 C3815.21,715.557 3807.74,719.043 3803.55,720.67 C3804.48,722.607 3805.68,724.35 3807.16,725.9 C3810.8,729.773 3815.75,731.71 3822.03,731.71 C3829.93,731.71 3840.55,728.805 3853.87,722.994 C3866.66,717.339 3876.88,711.528 3884.55,705.563 M3801.93,715.324 C3807.74,712.38 3813.04,708.933 3817.85,704.982 C3824.97,699.171 3828.54,692.896 3828.54,686.155 C3828.54,682.359 3826.79,680.461 3823.31,680.461 C3820.36,680.461 3816.34,683.831 3811.22,690.571 C3804.79,698.939 3801.58,705.756 3801.58,711.025 C3801.58,712.497 3801.69,713.93 3801.93,715.324"/>
<path class="Clef" transform="matrix(2.3811,0,0,2.3811,212.156,2076.38)" d="M25.4,-25.1 C17.8,-25.1 11.7,-20.7 11.6,-20.7 C5.8,-16.4 3.5,-11.3 2.6,-7.8 C2.1,-6 1.9,-4.2 1.9,-2.5 C1.9,-0.1 2.3,2.1 3.2,4 C4.4,6.7 6.7,8.6 9.7,9.6 C10.9,10 12.2,10.2 13.5,10.2 C15.7,10.2 18,9.6 19.9,8.5 C23,6.8 24.9,3.2 24.9,-0.7 C24.9,-4.2 23.1,-7.4 20.1,-9.3 C18,-10.7 16,-11.1 14.3,-11.1 C13.1,-11.1 12,-10.9 11.1,-10.6 C10.1,-10.2 8.4,-9.2 7.6,-8.5 C7.9,-10.4 9.1,-13.3 10.2,-14.9 C11.3,-16.5 13.5,-18.5 15.2,-19.4 C17.7,-20.8 20.9,-21.4 24.4,-21.4 C34.6,-21.4 39.6,-13.2 39.6,3.6 C39.6,12.9 36.1,21.8 33.1,27.7 C29.8,34.3 25.4,40.6 21.5,44.1 C11.1,53.6 1.3,58.1 1.2,58.1 C1.2,58.1 -0.3,59 0.1,60.5 C0.4,61.5 1.3,61.7 1.9,61.7 C2,61.7 2.3,61.6 2.4,61.6 C2.5,61.6 13.9,56.9 23,49.8 C28.1,46.1 32.7,42.1 36.7,37.8 C40.3,33.9 43.4,29.7 45.9,25.5 C50.3,18 52.8,10.2 52.8,3.5 C52.8,-4.8 50.6,-11.7 46.5,-16.6 C41.8,-22.2 34.7,-25.1 25.4,-25.1 M56.8,-12.4 C56.8,-9.6 59,-7.4 61.6,-7.4 C64.2,-7.4 66.4,-9.6 66.4,-12.4 C66.4,-15.2 64.2,-17.5 61.6,-17.5 C59,-17.5 56.8,-15.2 56.8,-12.4 M56.8,12.3 C56.8,15.1 59,17.4 61.6,17.4 C64.2,17.4 66.4,15.1 66.4,12.3 C66.4,9.5 64.2,7.2 61.6,7.2 C59,7.2 56.8,9.5 56.8,12.3"/>
<path class="Clef" transform="matrix(2.3811,0,0,2.3811,212.156,1570.39)" d="M63.37,-5.89004 C62.14,-11.32 59.5,-15.14 58.72,-16.1801 C55.5301,-20.45 51.52,-23.3 46.8301,-24.65 C43.72,-25.54 40.72,-25.65 38.3,-25.47 C37.2601,-31.4801 36.2601,-37.3601 35.35,-42.8101 C40.79,-48.97 44.42,-54.77 46.69,-59.07 C50.1601,-65.65 51.3101,-70.2301 51.3601,-70.4301 C53.0801,-75.64 53.44,-83.34 52.34,-91.55 C51.3301,-99.1 49.24,-105.81 46.89,-109.06 C45.8601,-110.49 44.8101,-111.22 43.77,-111.22 C42.55,-111.22 40.04,-109.98 37.15,-107.21 C34.85,-105.01 31.5801,-101.12 29.02,-95.1101 C26.02,-88.05 25.8101,-78.5601 26.1601,-71.84 C26.54,-64.57 27.65,-58.8801 27.6601,-58.8301 C27.6801,-58.74 27.94,-57.24 28.39,-54.67 C28.1601,-54.44 27.92,-54.22 27.67,-53.9801 C26.6301,-52.9801 25.44,-51.84 24.0601,-50.4601 C23.2,-49.6 22.25,-48.69 21.25,-47.72 C12.79,-39.57 0,-27.25 0,-8.1 C0,-3.4 0.9,1.01992 2.68008,5.02998 C4.27002,8.62998 6.57002,11.91 9.5,14.78 C17.2301,22.33 27.82,25.5399 34.8801,25.38 C37.8301,25.31 40.4601,25.0699 42.85,24.6199 C44.6801,34.2199 45.82,41.25 45.8601,46.5899 C45.9,53.1 44.25,57.0699 40.35,59.8399 C37.92,61.5699 35.1101,62.5199 32.0101,62.6699 C29.42,62.7899 27.1601,62.3199 25.7301,61.91 L25.72,61.91 C25.72,61.91 25.4301,61.83 25.42,61.63 C25.4101,61.45 25.7601,61.4 25.77,61.4 L25.79,61.4 C27.7101,60.96 31.2801,59.73 33.64,56.43 C35.44,53.91 36.3101,49.2899 34.47,45.35 C33.3601,42.96 30.85,40.01 25.2301,39.56 C22.74,39.36 20.47,39.8699 18.47,41.0699 C16.6601,42.15 15.1601,43.7899 14.1101,45.7899 C11.65,50.4899 12.1101,56.2199 15.24,60.06 C18.2,63.68 22.82,65.9899 28.25,66.5699 C29.1,66.66 29.95,66.7 30.8,66.7 C31.5101,66.7 32.22,66.6699 32.92,66.61 C31.72,66.9399 30.64,67.4899 29.77,68.25 C28.2801,69.5399 27.44,71.38 27.44,73.41 C27.44,75.28 28.0601,76.65 29.55,78.0399 C28.4101,78.5 27.55,78.98 26.79,79.56 C25.25,80.73 24.34,82.46 24.34,84.1899 C24.34,87.45 27.3,89.63 31.72,89.63 C37.1301,89.63 40.9101,86.63 40.9101,82.35 C40.9101,80.1199 39.9101,78.18 38.0801,76.83 C41.0101,75.6199 42.37,73.9399 42.37,71.56 C42.39,70.05 41.69,68.61 40.49,67.6899 C39.2801,66.7399 37.62,66.2399 35.69,66.2399 L35.5101,66.2399 C38.2801,65.7 40.92,64.7 43.2101,63.28 C46.87,60.71 48.99,56.73 49.67,51.1 C50.2301,46.46 49.84,40.55 48.44,32.48 C48.0801,30.3899 47.54,27.36 46.8801,23.6 C52.6301,21.68 56.79,18.11 60.5601,12.26 C63.85,6.51992 64.8,0.419922 63.37,-5.89004 M32.39,87.5399 C30.19,87.5399 28.7301,86.1199 28.7301,84.01 C28.7301,82.11 29.65,80.5 31.32,79.4699 C31.6801,79.66 31.77,79.71 32.1101,79.88 C33.3,80.48 33.3,80.48 33.55,80.63 L33.5601,80.6399 C35.47,81.73 36.25,82.76 36.25,84.18 C36.24,86.0899 34.59,87.5399 32.39,87.5399 M38.3101,71.63 C38.3101,73.2699 37.7301,74.3399 36.1801,75.53 C34.74,74.78 34.35,74.56 33.9801,74.3399 L33.8801,74.28 C32.3301,73.3399 31.85,72.66 31.85,71.4 C31.85,69.6 33.2301,68.3399 35.19,68.3399 C37.17,68.35 38.3101,69.55 38.3101,71.63 M33.15,-83.8101 C34.9301,-89.55 37.67,-92.8 39.6601,-94.5301 C41.4101,-96.05 43.0601,-96.7601 43.9801,-96.7601 C44.12,-96.7601 44.24,-96.74 44.34,-96.7101 C44.8,-96.57 45.3301,-96 45.8,-95.1301 C48.1101,-90.84 47.37,-84.1301 46.0301,-79.69 C44.4,-74.29 41.4801,-68.6801 32.69,-59.0601 C32.52,-60.17 32.3601,-61.22 32.2101,-62.2 C30.95,-70.49 31.27,-77.7601 33.15,-83.8101 M29.15,20.31 C24.5101,19.0899 20.0801,16.5899 16.32,13.0899 C15.0101,11.86 13.14,9.68994 11.67,6.3 C10.3101,3.13994 9.65,-0.290039 9.7,-3.88008 C9.77002,-8.57002 11.0801,-13.39 13.59,-18.1801 C16.5101,-23.7601 21.07,-29.29 27.1301,-34.62 C28.5801,-35.9 29.95,-37.1801 31.24,-38.4601 C32,-34.2 32.8301,-29.5101 33.7101,-24.6301 C29.8601,-23.3601 25.1101,-20.2101 22,-14.5601 C18.47,-7.99004 18.6101,-2.47002 19.34,1.00996 C20.2801,5.46992 22.8101,9.22998 26.27,11.3199 C27.2,11.88 31.3301,14.01 33.17,13.43 C33.54,13.31 33.8101,13.0899 33.95,12.76 C34.4601,11.5899 33.44,10.95 31.8801,9.98994 C31.2801,9.61992 30.6101,9.2 29.8801,8.66992 C26.5601,6.17998 25.1101,1.72998 26.1801,-2.65 C26.7601,-5.05 28.04,-7.21006 29.8801,-8.91006 C31.55,-10.4601 33.59,-11.5601 35.97,-12.2 C38.0101,-0.960059 40.07,10.1899 41.7101,18.55 C41.84,19.2399 41.9801,19.91 42.1101,20.58 C37.7101,21.51 33.37,21.4199 29.15,20.31 M54.9,10.1 C53.7301,13.28 51.27,17.35 46.14,19.41 C46.07,18.9899 45.99,18.56 45.9101,18.13 C44.3601,9.36992 42.4301,-1.61006 40.47,-12.87 C50.82,-13.35 55.09,-5.91006 55.9801,-1.08008 C56.45,1.45 56.45,5.88994 54.9,10.1"/>
<path class="KeySig" transform="matrix(2.3811,0,0,2.3811,548.84,2225.2)" d="M20.1,-7.9 C19.5,-11.8 17.1,-15.5 12,-15.5 C7,-15.5 4.1,-12.4 3.6,-11.8 L4,-43.9 C4,-44.7 3.4,-45.3 2.6,-45.3 L1.4,-45.3 C0.6,-45.3 0,-44.7 0,-43.9 L0.5,16.2 C0.5,17 1.1,17.6 1.9,17.6 C2.1,17.6 2.5,17.5 2.7,17.4 C3.1,17.2 9.6,14 15,7.9 C18.8,3.6 20.3,-1.3 20.3,-5.4 C20.3,-6.3 20.2,-7.1 20.1,-7.9 M13.2,-4 C13.2,-2.5 12.8,2.1 10.3,5.9 C8.6,8.5 5.2,11.2 3.3,12.7 L3.6,-6.8 C3.8,-7.7 5.3,-10.6 9.3,-10.6 C12.9,-10.6 13.2,-7.2 13.2,-5.1 L13.2,-4 "/>
<path class="KeySig" transform="matrix(2.3811,0,0,2.3811,489.312,2106.14)" d="M20.1,-7.9 C19.5,-11.8 17.1,-15.5 12,-15.5 C7,-15.5 4.1,-12.4 3.6,-11.8 L4,-43.9 C4,-44.7 3.4,-45.3 2.6,-45.3 L1.4,-45.3 C0.6,-45.3 0,-44.7 0,-43.9 L0.5,16.2 C0.5,17 1.1,17.6 1.9,17.6 C2.1,17.6 2.5,17.5 2.7,17.4 C3.1,17.2 9.6,14 15,7.9 C18.8,3.6 20.3,-1.3 20.3,-5.4 C20.3,-6.3 20.2,-7.1 20.1,-7.9 M13.2,-4 C13.2,-2.5 12.8,2.1 10.3,5.9 C8.6,8.5 5.2,11.2 3.3,12.7 L3.6,-6.8 C3.8,-7.7 5.3,-10.6 9.3,-10.6 C12.9,-10.6 13.2,-7.2 13.2,-5.1 L13.2,-4 "/>
<path class="KeySig" transform="matrix(2.3811,0,0,2.3811,429.785,2195.43)" d="M20.1,-7.9 C19.5,-11.8 17.1,-15.5 12,-15.5 C7,-15.5 4.1,-12.4 3.6,-11.8 L4,-43.9 C4,-44.7 3.4,-45.3 2.6,-45.3 L1.4,-45.3 C0.6,-45.3 0,-44.7 0,-43.9 L0.5,16.2 C0.5,17 1.1,17.6 1.9,17.6 C2.1,17.6 2.5,17.5 2.7,17.4 C3.1,17.2 9.6,14 15,7.9 C18.8,3.6 20.3,-1.3 20.3,-5.4 C20.3,-6.3 20.2,-7.1 20.1,-7.9 M13.2,-4 C13.2,-2.5 12.8,2.1 10.3,5.9 C8.6,8.5 5.2,11.2 3.3,12.7 L3.6,-6.8 C3.8,-7.7 5.3,-10.6 9.3,-10.6 C12.9,-10.6 13.2,-7.2 13.2,-5.1 L13.2,-4 "/>
<path class="KeySig" transform="matrix(2.3811,0,0,2.3811,548.84,1540.63)" d="M20.1,-7.9 C19.5,-11.8 17.1,-15.5 12,-15.5 C7,-15.5 4.1,-12.4 3.6,-11.8 L4,-43.9 C4,-44.7 3.4,-45.3 2.6,-45.3 L1.4,-45.3 C0.6,-45.3 0,-44.7 0,-43.9 L0.5,16.2 C0.5,17 1.1,17.6 1.9,17.6 C2.1,17.6 2.5,17.5 2.7,17.4 C3.1,17.2 9.6,14 15,7.9 C18.8,3.6 20.3,-1.3 20.3,-5.4 C20.3,-6.3 20.2,-7.1 20.1,-7.9 M13.2,-4 C13.2,-2.5 12.8,2.1 10.3,5.9 C8.6,8.5 5.2,11.2 3.3,12.7 L3.6,-6.8 C3.8,-7.7 5.3,-10.6 9.3,-10.6 C12.9,-10.6 13.2,-7.2 13.2,-5.1 L13.2,-4 "/>
<path class="KeySig" transform="matrix(2.3811,0,0,2.3811,489.312,1421.57)" d="M20.1,-7.9 C19.5,-11.8 17.1,-15.5 12,-15.5 C7,-15.5 4.1,-12.4 3.6,-11.8 L4,-43.9 C4,-44.7 3.4,-45.3 2.6,-45.3 L1.4,-45.3 C0.6,-45.3 0,-44.7 0,-43.9 L0.5,16.2 C0.5,17 1.1,17.6 1.9,17.6 C2.1,17.6 2.5,17.5 2.7,17.4 C3.1,17.2 9.6,14 15,7.9 C18.8,3.6 20.3,-1.3 20.3,-5.4 C20.3,-6.3 20.2,-7.1 20.1,-7.9 M13.2,-4 C13.2,-2.5 12.8,2.1 10.3,5.9 C8.6,8.5 5.2,11.2 3.3,12.7 L3.6,-6.8 C3.8,-7.7 5.3,-10.6 9.3,-10.6 C12.9,-10.6 13.2,-7.2 13.2,-5.1 L13.2,-4 "/>
<path class="KeySig" transform="matrix(2.3811,0,0,2.3811,429.785,1510.87)" d="M20.1,-7.9 C19.5,-11.8 17.1,-15.5 12,-15.5 C7,-15.5 4.1,-12.4 3.6,-11.8 L4,-43.9 C4,-44.7 3.4,-45.3 2.6,-45.3 L1.4,-45.3 C0.6,-45.3 0,-44.7 0,-43.9 L0.5,16.2 C0.5,17 1.1,17.6 1.9,17.6 C2.1,17.6 2.5,17.5 2.7,17.4 C3.1,17.2 9.6,14 15,7.9 C18.8,3.6 20.3,-1.3 20.3,-5.4 C20.3,-6.3 20.2,-7.1 20.1,-7.9 M13.2,-4 C13.2,-2.5 12.8,2.1 10.3,5.9 C8.6,8.5 5.2,11.2 3.3,12.7 L3.6,-6.8 C3.8,-7.7 5.3,-10.6 9.3,-10.6 C12.9,-10.6 13.2,-7.2 13.2,-5.1 L13.2,-4 "/>
<path class="FiguredBass" d="M1213.07,2390.15 C1208.5,2390.15 1205.45,2391.99 1203.94,2395.67 C1202.42,2399.35 1201.66,2404.56 1201.66,2411.3 L1201.66,2422.25 C1204.88,2420.95 1207.66,2420.27 1210.01,2420.21 C1218.05,2420.21 1224.38,2421.98 1228.98,2425.54 C1233.59,2429.1 1235.9,2434.38 1235.9,2441.4 C1235.9,2448.42 1233.56,2453.73 1228.89,2457.31 C1224.22,2460.9 1217.93,2462.7 1210.01,2462.7 C1201.91,2462.7 1195.57,2458.94 1190.99,2451.42 C1186.42,2443.91 1184.13,2434.99 1184.13,2424.66 C1184.13,2414.39 1186.79,2405.49 1192.11,2397.94 C1197.43,2390.39 1204.42,2386.62 1213.07,2386.62 C1218.76,2386.62 1223.68,2388.06 1227.83,2390.94 C1231.97,2393.81 1234.04,2397.6 1234.04,2402.3 C1234.04,2405.02 1233.05,2407.37 1231.07,2409.35 C1229.09,2411.33 1226.73,2412.32 1223.97,2412.32 C1221.22,2412.32 1218.86,2411.33 1216.88,2409.35 C1214.9,2407.37 1213.91,2405.02 1213.91,2402.3 C1213.91,2399.64 1214.9,2397.29 1216.88,2395.25 C1217.56,2394.45 1218.52,2393.76 1219.75,2393.21 C1219.44,2392.4 1218.83,2391.79 1217.9,2391.35 C1216.54,2390.55 1214.93,2390.15 1213.07,2390.15 M1217.62,2428.09 C1216.51,2425.18 1214.06,2423.73 1210.29,2423.73 C1206.52,2423.73 1204.18,2425.18 1203.29,2428.09 C1202.39,2431 1201.94,2435.42 1201.94,2441.36 C1201.94,2448.35 1202.39,2453.05 1203.29,2455.46 C1204.18,2457.87 1206.52,2459.08 1210.29,2459.08 C1214.06,2459.08 1216.51,2457.62 1217.62,2454.72 C1218.73,2451.81 1219.29,2447.37 1219.29,2441.4 C1219.29,2435.44 1218.73,2431 1217.62,2428.09"/>
<path class="FiguredBass" d="M1656.07,2436.07 L1656.07,2419.09 C1656.07,2418.1 1656.43,2417.22 1657.14,2416.45 C1657.85,2415.67 1658.76,2415.29 1659.88,2415.29 C1660.99,2415.29 1661.9,2415.67 1662.61,2416.45 C1663.32,2417.22 1663.68,2418.1 1663.68,2419.09 L1663.68,2436.07 L1676.95,2436.07 C1678.06,2436.07 1678.97,2436.46 1679.68,2437.23 C1680.4,2438 1680.75,2438.88 1680.75,2439.87 C1680.75,2440.86 1680.4,2441.74 1679.68,2442.52 C1678.97,2443.29 1678.06,2443.68 1676.95,2443.68 L1663.68,2443.68 L1663.68,2460.65 C1663.68,2461.64 1663.32,2462.53 1662.61,2463.3 C1661.9,2464.07 1660.99,2464.46 1659.88,2464.46 C1658.76,2464.46 1657.85,2464.07 1657.14,2463.3 C1656.43,2462.53 1656.07,2461.64 1656.07,2460.65 L1656.07,2443.68 L1638.91,2443.68 L1638.91,2444.88 C1638.91,2448.72 1639.93,2452.06 1641.97,2454.9 C1644.01,2457.75 1646.64,2459.17 1649.86,2459.17 C1651.09,2459.17 1651.71,2459.73 1651.71,2460.84 C1651.71,2462.08 1651.09,2462.7 1649.86,2462.7 C1647.63,2462.7 1644.32,2462.37 1639.93,2461.72 C1635.54,2461.07 1632.21,2460.75 1629.96,2460.75 C1627.7,2460.75 1624.38,2461.07 1619.98,2461.72 C1615.59,2462.37 1612.28,2462.7 1610.06,2462.7 C1608.82,2462.7 1608.2,2462.08 1608.2,2460.84 C1608.2,2459.73 1608.82,2459.17 1610.06,2459.17 C1613.27,2459.17 1615.92,2457.75 1617.99,2454.9 C1620.06,2452.06 1621.1,2448.72 1621.1,2444.88 L1621.1,2443.68 L1595.77,2443.68 C1594.16,2443.68 1592.97,2443.29 1592.2,2442.52 C1591.43,2441.74 1591.04,2440.96 1591.04,2440.15 C1591.04,2439.84 1591.77,2438.78 1593.22,2436.95 C1594.67,2435.13 1596.45,2432.7 1598.55,2429.67 C1600.66,2426.64 1602.74,2423.19 1604.82,2419.32 C1606.89,2415.46 1608.65,2410.82 1610.1,2405.41 C1611.56,2400 1612.28,2394.54 1612.28,2389.03 C1612.28,2387.43 1612.96,2386.62 1614.33,2386.62 C1614.51,2386.62 1615.16,2386.78 1616.27,2387.09 C1617.39,2387.39 1618.81,2387.72 1620.54,2388.06 C1622.27,2388.4 1623.94,2388.57 1625.55,2388.57 C1627.96,2388.57 1630.44,2388.23 1632.97,2387.55 L1637.15,2386.44 C1637.95,2386.44 1638.6,2386.74 1639.1,2387.36 C1639.47,2387.92 1639.4,2388.48 1638.91,2389.03 L1598.46,2436.07 L1621.1,2436.07 L1621.1,2419.37 C1621.1,2417.95 1621.48,2416.85 1622.26,2416.08 C1623.03,2415.3 1624.08,2414.65 1625.41,2414.13 C1626.74,2413.6 1628.27,2412.26 1630,2410.09 C1631.61,2408.05 1633.47,2404.96 1635.57,2400.82 C1635.88,2400.2 1636.34,2399.89 1636.96,2399.89 C1638.26,2399.89 1638.91,2400.6 1638.91,2402.02 L1638.91,2436.07 L1656.07,2436.07 "/>
<path class="FiguredBass" d="M1638.08,2528.09 C1638.08,2529.08 1638.63,2530.04 1639.75,2530.97 C1640.86,2531.89 1642.08,2532.77 1643.41,2533.61 C1644.74,2534.44 1645.96,2536.02 1647.07,2538.34 C1648.19,2540.66 1648.74,2543.58 1648.74,2547.11 C1648.74,2553.91 1646.18,2559.17 1641.04,2562.88 C1635.91,2566.59 1629.42,2568.45 1621.56,2568.45 C1615.25,2568.45 1609.76,2566.87 1605.09,2563.71 C1600.42,2560.56 1598.09,2556.42 1598.09,2551.28 C1598.09,2548.56 1599.08,2546.2 1601.06,2544.19 C1603.04,2542.18 1605.4,2541.17 1608.16,2541.17 C1610.91,2541.17 1613.24,2542.16 1615.16,2544.14 C1617.08,2546.12 1618.04,2548.5 1618.04,2551.28 C1618.04,2552.52 1617.02,2553.86 1614.97,2555.32 C1612.93,2556.77 1611.91,2558.12 1611.91,2559.35 C1611.91,2561.27 1612.86,2562.68 1614.74,2563.57 C1616.63,2564.47 1618.9,2564.92 1621.56,2564.92 C1625.02,2564.92 1627.48,2563.2 1628.94,2559.77 C1630.39,2556.34 1631.12,2552.12 1631.12,2547.11 L1631.12,2544.7 C1631.12,2541.36 1631.01,2538.82 1630.79,2537.09 C1630.58,2535.36 1629.9,2533.81 1628.75,2532.45 C1627.61,2531.09 1625.86,2530.41 1623.51,2530.41 L1611.36,2530.41 C1609.93,2530.41 1609.22,2529.64 1609.22,2528.09 C1609.22,2526.67 1609.93,2525.96 1611.36,2525.96 L1623.51,2525.96 C1626.05,2525.96 1628.02,2525 1629.45,2523.08 C1629.94,2522.4 1630.34,2521.29 1630.65,2519.74 C1630.96,2517.7 1631.12,2514.76 1631.12,2510.93 L1631.12,2509.72 C1631.12,2500.5 1627.72,2495.9 1620.91,2495.9 C1614.91,2495.9 1611.91,2497.57 1611.91,2500.91 C1611.91,2502.02 1612.83,2503.21 1614.65,2504.48 C1616.47,2505.75 1617.39,2506.94 1617.39,2508.05 C1617.39,2510.46 1616.54,2512.53 1614.84,2514.27 C1613.13,2516 1611.06,2516.86 1608.62,2516.86 C1606.18,2516.86 1604.12,2516 1602.45,2514.27 C1600.78,2512.53 1599.95,2510.46 1599.95,2508.05 C1599.95,2503.29 1602.02,2499.48 1606.16,2496.64 C1610.3,2493.79 1615.22,2492.37 1620.91,2492.37 C1628.4,2492.37 1634.55,2493.81 1639.37,2496.69 C1644.2,2499.56 1646.61,2503.91 1646.61,2509.72 C1646.61,2513.86 1646.18,2517.08 1645.31,2519.37 C1644.45,2521.66 1643.46,2523.05 1642.34,2523.54 C1641.23,2524.04 1640.24,2524.61 1639.37,2525.26 C1638.51,2525.91 1638.08,2526.85 1638.08,2528.09"/>
<path class="FiguredBass" d="M2138.03,2453.05 L2138.03,2472.44 C2138.03,2474.35 2137.05,2475.31 2135.1,2475.31 C2133.16,2475.31 2132.18,2474.35 2132.18,2472.44 L2132.18,2455.55 L2129.21,2456.76 C2128.9,2456.88 2128.5,2456.94 2128.01,2456.94 C2127.2,2456.94 2126.49,2456.63 2125.87,2456.02 C2125.26,2455.4 2124.95,2454.69 2124.95,2453.88 L2124.95,2444.42 C2124.95,2443.06 2125.6,2442.1 2126.89,2441.54 L2132.18,2439.32 L2132.18,2419.83 L2129.21,2421.04 C2129.03,2421.1 2128.78,2421.13 2128.47,2421.13 C2128.35,2421.13 2128.19,2421.13 2128.01,2421.13 C2127.08,2421.01 2126.34,2420.67 2125.78,2420.11 C2125.22,2419.56 2124.95,2418.91 2124.95,2418.16 L2124.95,2408.7 C2124.95,2407.4 2125.6,2406.47 2126.89,2405.92 L2132.18,2403.69 L2132.18,2383.93 C2132.18,2382.01 2133.16,2381.05 2135.1,2381.05 C2137.05,2381.05 2138.03,2382.01 2138.03,2383.93 L2138.03,2401.28 L2149.99,2396.27 L2149.99,2376.88 C2149.99,2374.96 2150.95,2374 2152.87,2374 C2154.79,2374 2155.75,2374.96 2155.75,2376.88 L2155.75,2393.95 L2158.99,2392.56 C2159.3,2392.44 2159.64,2392.37 2160.01,2392.37 C2160.82,2392.37 2161.54,2392.68 2162.19,2393.3 C2162.84,2393.92 2163.17,2394.63 2163.17,2395.43 L2163.17,2404.9 C2163.17,2406.26 2162.49,2407.22 2161.13,2407.77 L2155.75,2410 L2155.75,2429.58 L2158.99,2428.28 C2159.18,2428.21 2159.4,2428.18 2159.64,2428.18 C2159.77,2428.18 2159.89,2428.18 2160.01,2428.18 C2161.07,2428.37 2161.85,2428.71 2162.38,2429.2 C2162.91,2429.7 2163.17,2430.35 2163.17,2431.15 L2163.17,2440.62 C2163.17,2441.91 2162.49,2442.84 2161.13,2443.4 L2155.75,2445.63 L2155.75,2465.39 C2155.75,2467.3 2154.79,2468.26 2152.87,2468.26 C2150.95,2468.26 2149.99,2467.3 2149.99,2465.39 L2149.99,2448.04 L2138.03,2453.05 M2138.03,2436.9 L2149.99,2431.99 L2149.99,2412.41 L2138.03,2417.42 L2138.03,2436.9 "/>
<path class="FiguredBass" d="M2522.47,2444.42 C2521.79,2445.16 2520.89,2445.53 2519.78,2445.53 C2518.66,2445.53 2517.75,2445.15 2517.04,2444.37 C2516.33,2443.6 2515.97,2442.72 2515.97,2441.73 L2515.97,2428.46 L2502.71,2428.46 C2501.59,2428.46 2500.68,2428.08 2499.97,2427.3 C2499.26,2426.53 2498.9,2425.65 2498.9,2424.66 C2498.9,2423.67 2499.26,2422.79 2499.97,2422.01 C2500.68,2421.24 2501.59,2420.85 2502.71,2420.85 L2515.97,2420.85 L2515.97,2407.59 C2515.97,2406.6 2516.33,2405.72 2517.04,2404.94 C2517.75,2404.17 2518.66,2403.78 2519.78,2403.78 C2520.89,2403.78 2521.8,2404.17 2522.51,2404.94 C2523.22,2405.72 2523.58,2406.6 2523.58,2407.59 L2523.58,2420.85 L2536.85,2420.85 C2537.96,2420.85 2538.87,2421.24 2539.58,2422.01 C2540.29,2422.79 2540.65,2423.67 2540.65,2424.66 C2540.65,2425.65 2540.29,2426.53 2539.58,2427.3 C2538.87,2428.08 2537.96,2428.46 2536.85,2428.46 L2523.58,2428.46 L2523.58,2441.73 C2523.58,2442.72 2523.21,2443.62 2522.47,2444.42 M2575.24,2388.57 C2577.59,2388.57 2580.06,2388.23 2582.66,2387.55 L2586.84,2386.44 C2587.64,2386.44 2588.28,2386.74 2588.74,2387.36 C2589.2,2387.98 2589.16,2388.54 2588.6,2389.03 L2545.46,2439.22 L2570.79,2439.22 L2570.79,2419.37 C2570.79,2417.95 2571.17,2416.85 2571.95,2416.08 C2572.72,2415.3 2573.71,2414.69 2574.92,2414.22 C2576.12,2413.76 2577.7,2412.38 2579.65,2410.09 C2581.6,2407.8 2583.47,2404.71 2585.26,2400.82 C2585.57,2400.2 2586.03,2399.89 2586.65,2399.89 C2587.95,2399.89 2588.6,2400.6 2588.6,2402.02 L2588.6,2439.22 L2599.55,2439.22 C2601.09,2439.22 2601.87,2439.94 2601.87,2441.36 C2601.87,2442.9 2601.09,2443.68 2599.55,2443.68 L2588.6,2443.68 L2588.6,2444.88 C2588.6,2448.72 2589.62,2452.06 2591.66,2454.9 C2593.7,2457.75 2596.33,2459.17 2599.55,2459.17 C2600.78,2459.17 2601.4,2459.73 2601.4,2460.84 C2601.4,2462.08 2600.78,2462.7 2599.55,2462.7 C2597.32,2462.7 2594.01,2462.37 2589.62,2461.72 C2585.23,2461.07 2581.9,2460.75 2579.65,2460.75 C2577.39,2460.75 2574.07,2461.07 2569.67,2461.72 C2565.28,2462.37 2561.97,2462.7 2559.75,2462.7 C2558.51,2462.7 2557.89,2462.08 2557.89,2460.84 C2557.89,2459.73 2558.51,2459.17 2559.75,2459.17 C2562.96,2459.17 2565.61,2457.75 2567.68,2454.9 C2569.75,2452.06 2570.79,2448.72 2570.79,2444.88 L2570.79,2443.68 L2545.46,2443.68 C2543.85,2443.68 2542.66,2443.29 2541.89,2442.52 C2541.12,2441.74 2540.73,2440.96 2540.73,2440.15 C2540.73,2439.84 2541.46,2438.78 2542.91,2436.95 C2544.36,2435.13 2546.14,2432.7 2548.24,2429.67 C2550.35,2426.64 2552.43,2423.19 2554.51,2419.32 C2556.58,2415.46 2558.34,2410.82 2559.79,2405.41 C2561.25,2400 2561.97,2394.54 2561.97,2389.03 C2561.97,2387.43 2562.65,2386.62 2564.02,2386.62 C2564.2,2386.62 2564.85,2386.78 2565.96,2387.09 C2567.08,2387.39 2568.5,2387.72 2570.23,2388.06 C2571.96,2388.4 2573.63,2388.57 2575.24,2388.57"/>
<path class="FiguredBass" d="M2974.95,2390.15 C2970.38,2390.15 2967.33,2391.99 2965.81,2395.67 C2964.3,2399.35 2963.54,2404.56 2963.54,2411.3 L2963.54,2422.25 C2966.76,2420.95 2969.54,2420.27 2971.89,2420.21 C2979.93,2420.21 2986.26,2421.98 2990.86,2425.54 C2995.47,2429.1 2997.78,2434.38 2997.78,2441.4 C2997.78,2448.42 2995.44,2453.73 2990.77,2457.31 C2986.1,2460.9 2979.81,2462.7 2971.89,2462.7 C2963.79,2462.7 2957.45,2458.94 2952.87,2451.42 C2948.3,2443.91 2946.01,2434.99 2946.01,2424.66 C2946.01,2414.39 2948.67,2405.49 2953.99,2397.94 C2959.3,2390.39 2966.29,2386.62 2974.95,2386.62 C2980.64,2386.62 2985.56,2388.06 2989.7,2390.94 C2993.85,2393.81 2995.92,2397.6 2995.92,2402.3 C2995.92,2405.02 2994.93,2407.37 2992.95,2409.35 C2990.97,2411.33 2988.61,2412.32 2985.85,2412.32 C2983.1,2412.32 2980.74,2411.33 2978.76,2409.35 C2976.78,2407.37 2975.79,2405.02 2975.79,2402.3 C2975.79,2399.64 2976.78,2397.29 2978.76,2395.25 C2979.44,2394.45 2980.4,2393.76 2981.63,2393.21 C2981.32,2392.4 2980.7,2391.79 2979.78,2391.35 C2978.42,2390.55 2976.81,2390.15 2974.95,2390.15 M2979.5,2428.09 C2978.39,2425.18 2975.94,2423.73 2972.17,2423.73 C2968.4,2423.73 2966.06,2425.18 2965.17,2428.09 C2964.27,2431 2963.82,2435.42 2963.82,2441.36 C2963.82,2448.35 2964.27,2453.05 2965.17,2455.46 C2966.06,2457.87 2968.4,2459.08 2972.17,2459.08 C2975.94,2459.08 2978.39,2457.62 2979.5,2454.72 C2980.61,2451.81 2981.17,2447.37 2981.17,2441.4 C2981.17,2435.44 2980.61,2431 2979.5,2428.09"/>
<path class="FiguredBass" d="M3364.64,2444.42 C3363.96,2445.16 3363.06,2445.53 3361.95,2445.53 C3360.84,2445.53 3359.93,2445.15 3359.21,2444.37 C3358.5,2443.6 3358.15,2442.72 3358.15,2441.73 L3358.15,2428.46 L3344.88,2428.46 C3343.77,2428.46 3342.86,2428.08 3342.14,2427.3 C3341.43,2426.53 3341.08,2425.65 3341.08,2424.66 C3341.08,2423.67 3341.43,2422.79 3342.14,2422.01 C3342.86,2421.24 3343.77,2420.85 3344.88,2420.85 L3358.15,2420.85 L3358.15,2407.59 C3358.15,2406.6 3358.5,2405.72 3359.21,2404.94 C3359.93,2404.17 3360.84,2403.78 3361.95,2403.78 C3363.06,2403.78 3363.98,2404.17 3364.69,2404.94 C3365.4,2405.72 3365.76,2406.6 3365.76,2407.59 L3365.76,2420.85 L3379.02,2420.85 C3380.14,2420.85 3381.05,2421.24 3381.76,2422.01 C3382.47,2422.79 3382.83,2423.67 3382.83,2424.66 C3382.83,2425.65 3382.47,2426.53 3381.76,2427.3 C3381.05,2428.08 3380.14,2428.46 3379.02,2428.46 L3365.76,2428.46 L3365.76,2441.73 C3365.76,2442.72 3365.38,2443.62 3364.64,2444.42 M3418.07,2390.15 C3413.49,2390.15 3410.44,2391.99 3408.93,2395.67 C3407.41,2399.35 3406.65,2404.56 3406.65,2411.3 L3406.65,2422.25 C3409.87,2420.95 3412.65,2420.27 3415,2420.21 C3423.04,2420.21 3429.37,2421.98 3433.98,2425.54 C3438.58,2429.1 3440.89,2434.38 3440.89,2441.4 C3440.89,2448.42 3438.55,2453.73 3433.88,2457.31 C3429.21,2460.9 3422.92,2462.7 3415,2462.7 C3406.9,2462.7 3400.56,2458.94 3395.99,2451.42 C3391.41,2443.91 3389.12,2434.99 3389.12,2424.66 C3389.12,2414.39 3391.78,2405.49 3397.1,2397.94 C3402.42,2390.39 3409.41,2386.62 3418.07,2386.62 C3423.76,2386.62 3428.67,2388.06 3432.82,2390.94 C3436.96,2393.81 3439.03,2397.6 3439.03,2402.3 C3439.03,2405.02 3438.04,2407.37 3436.06,2409.35 C3434.08,2411.33 3431.72,2412.32 3428.97,2412.32 C3426.21,2412.32 3423.85,2411.33 3421.87,2409.35 C3419.89,2407.37 3418.9,2405.02 3418.9,2402.3 C3418.9,2399.64 3419.89,2397.29 3421.87,2395.25 C3422.55,2394.45 3423.51,2393.76 3424.75,2393.21 C3424.44,2392.4 3423.82,2391.79 3422.89,2391.35 C3421.53,2390.55 3419.92,2390.15 3418.07,2390.15 M3422.61,2428.09 C3421.5,2425.18 3419.06,2423.73 3415.28,2423.73 C3411.51,2423.73 3409.18,2425.18 3408.28,2428.09 C3407.38,2431 3406.93,2435.42 3406.93,2441.36 C3406.93,2448.35 3407.38,2453.05 3408.28,2455.46 C3409.18,2457.87 3411.51,2459.08 3415.28,2459.08 C3419.06,2459.08 3421.5,2457.62 3422.61,2454.72 C3423.72,2451.81 3424.28,2447.37 3424.28,2441.4 C3424.28,2435.44 3423.72,2431 3422.61,2428.09"/>
<path class="Bracket" transform="matrix(8.6315,0,0,8.6315,76.1283,2254.96)" d="M0.92002,-50 C2.69004,-51.88 6.2,-55.8 6.2,-63 C6.2,-72.1 2.25996,-81.32 2.25996,-86.97 C2.25996,-93.06 5.84004,-98.84 5.95,-99 C6.05996,-99.16 6.05,-99.39 5.94004,-99.46 C5.82998,-99.53 5.62002,-99.47 5.49004,-99.32 C5.35996,-99.17 0,-93.75 0,-85.6 C0,-76.75 3.5,-70.58 3.5,-59.07 C3.5,-56.89 2.55996,-53.36 0.1,-50.33 C-0.0799805,-50.17 -0.1,-49.89 0.0599609,-49.7 L0.0700195,-49.69 L0.1,-49.66 C2.55996,-46.63 3.5,-43.1 3.5,-40.92 C3.5,-29.4 0,-23.24 0,-14.39 C0,-6.25 5.35996,-0.8 5.49004,-0.659961 C5.62002,-0.52002 5.8,-0.42998 5.94004,-0.52002 C6.07998,-0.609961 6.07998,-0.77998 5.95,-0.97998 C5.82002,-1.17998 2.25996,-6.92002 2.25996,-13.01 C2.25996,-18.66 6.2,-27.9 6.2,-37 C6.2,-44.3 2.69004,-48.12 0.92002,-50"/>
</svg>
