<?xml version="1.0" encoding="UTF-8" standalone="no"?>
<svg width="4209.44px" height="850.392px" viewBox="0 0 4209.44 850.392"
 xmlns="http://www.w3.org/2000/svg" xmlns:xlink="http://www.w3.org/1999/xlink" version="1.2" baseProfile="tiny">
<title>ExercicesMiMineur (8)</title>
<desc>Generated by MuseScore 3.6.2</desc>
<polyline class="StaffLines" fill="none" stroke="#000000" stroke-width="4.68" stroke-linejoin="bevel" points="70.866,325.984 4138.58,325.984"/>
<polyline class="StaffLines" fill="none" stroke="#000000" stroke-width="4.68" stroke-linejoin="bevel" points="70.866,368.504 4138.58,368.504"/>
<polyline class="StaffLines" fill="none" stroke="#000000" stroke-width="4.68" stroke-linejoin="bevel" points="70.866,411.024 4138.58,411.024"/>
<polyline class="StaffLines" fill="none" stroke="#000000" stroke-width="4.68" stroke-linejoin="bevel" points="70.866,453.543 4138.58,453.543"/>
<polyline class="StaffLines" fill="none" stroke="#000000" stroke-width="4.68" stroke-linejoin="bevel" points="70.866,496.063 4138.58,496.063"/>
<polyline class="BarLine" fill="none" stroke="#000000" stroke-width="7.65" stroke-linejoin="bevel" points="782.54,323.646 782.54,498.402"/>
<polyline class="BarLine" fill="none" stroke="#000000" stroke-width="7.65" stroke-linejoin="bevel" points="1253.98,323.646 1253.98,498.402"/>
<polyline class="BarLine" fill="none" stroke="#000000" stroke-width="7.65" stroke-linejoin="bevel" points="1709.96,323.646 1709.96,498.402"/>
<polyline class="BarLine" fill="none" stroke="#000000" stroke-width="7.65" stroke-linejoin="bevel" points="2165.93,323.646 2165.93,498.402"/>
<polyline class="BarLine" fill="none" stroke="#000000" stroke-width="7.65" stroke-linejoin="bevel" points="2621.9,323.646 2621.9,498.402"/>
<polyline class="BarLine" fill="none" stroke="#000000" stroke-width="7.65" stroke-linejoin="bevel" points="3077.87,323.646 3077.87,498.402"/>
<polyline class="BarLine" fill="none" stroke="#000000" stroke-width="7.65" stroke-linejoin="bevel" points="3659.52,323.646 3659.52,498.402"/>
<polyline class="BarLine" fill="none" stroke="#000000" stroke-width="7.65" stroke-linejoin="bevel" points="4097.12,323.646 4097.12,498.402"/>
<polyline class="BarLine" fill="none" stroke="#000000" stroke-width="23.39" stroke-linejoin="bevel" points="4126.89,323.646 4126.89,498.402"/>
<path class="Accidental" transform="matrix(1.70079,0,0,1.70079,827.445,411.024)" d="M23.3,-10.6 C23.9,-10.7 24.4,-11.4 24.4,-12 L24.4,-17.9 C24.4,-18.7 23.8,-19.3 23,-19.3 L22.8,-19.3 L19.5,-18.6 L19.5,-33.5 L16.7,-33.5 L16.7,-18 L7.8,-16.2 L7.8,-30.3 L5,-30.3 L5,-15.6 L1.1,-14.8 C0.5,-14.7 0,-14 0,-13.4 L0,-13.2 L0,-7.4 L0,-7.6 C0,-6.8 0.6,-6.2 1.4,-6.2 L1.7,-6.2 L5,-6.9 L5,9.6 L1.1,10.4 C0.5,10.5 0,11.2 0,11.8 L0,17.6 C0,18.4 0.6,19 1.4,19 L1.7,19 L5,18.3 L5,33.2 L7.8,33.2 L7.8,17.7 L16.7,15.9 L16.7,30 L19.5,30 L19.5,15.3 L23.3,14.6 C23.9,14.5 24.4,13.8 24.4,13.2 L24.4,7.3 C24.4,6.5 23.8,5.9 23,5.9 L22.8,5.9 L19.5,6.6 L19.5,-9.9 L23.3,-10.6 M7.8,9.1 L7.8,-7.5 L16.7,-9.3 L16.7,7.2 L7.8,9.1 "/>
<path class="Note" transform="matrix(1.70079,0,0,1.70079,408.127,389.764)" d="M18.7,-13.6 C4.9,-13.6 0,-6.6 0,-0.1 C0,6.4 4.9,13.4 18.7,13.4 C32.5,13.4 37.3,6.4 37.3,-0.1 C37.3,-6.6 32.5,-13.6 18.7,-13.6 M10.4,-4.5 C10.3,-4.9 10.3,-5.3 10.3,-5.7 C10.3,-6.5 10.5,-7.3 10.9,-8 C11.6,-9 12.8,-9.7 14.3,-10 C15.6,-10.3 16.3,-10.5 18.9,-10.5 L19,-10.5 C23,-10.5 24.3,-6.8 25.4,-3 L25.7,-2 C26.5,0.6 26.9,2.8 26.9,4.5 C26.9,5.7 26.7,6.8 26.3,7.6 C25.7,8.7 24.7,9.4 23,9.8 C22.1,10 20.6,10.1 20.6,10.1 C20.1,10.1 19.7,10.2 19.3,10.2 C16.1,10.2 14.1,9 12.7,4.7 C11.5,1 11.3,-0.1 10.4,-4.5"/>
<path class="Note" transform="matrix(1.70079,0,0,1.70079,879.571,411.024)" d="M18.7,-13.6 C4.9,-13.6 0,-6.6 0,-0.1 C0,6.4 4.9,13.4 18.7,13.4 C32.5,13.4 37.3,6.4 37.3,-0.1 C37.3,-6.6 32.5,-13.6 18.7,-13.6 M10.4,-4.5 C10.3,-4.9 10.3,-5.3 10.3,-5.7 C10.3,-6.5 10.5,-7.3 10.9,-8 C11.6,-9 12.8,-9.7 14.3,-10 C15.6,-10.3 16.3,-10.5 18.9,-10.5 L19,-10.5 C23,-10.5 24.3,-6.8 25.4,-3 L25.7,-2 C26.5,0.6 26.9,2.8 26.9,4.5 C26.9,5.7 26.7,6.8 26.3,7.6 C25.7,8.7 24.7,9.4 23,9.8 C22.1,10 20.6,10.1 20.6,10.1 C20.1,10.1 19.7,10.2 19.3,10.2 C16.1,10.2 14.1,9 12.7,4.7 C11.5,1 11.3,-0.1 10.4,-4.5"/>
<path class="Note" transform="matrix(1.70079,0,0,1.70079,1317.17,389.764)" d="M18.7,-13.6 C4.9,-13.6 0,-6.6 0,-0.1 C0,6.4 4.9,13.4 18.7,13.4 C32.5,13.4 37.3,6.4 37.3,-0.1 C37.3,-6.6 32.5,-13.6 18.7,-13.6 M10.4,-4.5 C10.3,-4.9 10.3,-5.3 10.3,-5.7 C10.3,-6.5 10.5,-7.3 10.9,-8 C11.6,-9 12.8,-9.7 14.3,-10 C15.6,-10.3 16.3,-10.5 18.9,-10.5 L19,-10.5 C23,-10.5 24.3,-6.8 25.4,-3 L25.7,-2 C26.5,0.6 26.9,2.8 26.9,4.5 C26.9,5.7 26.7,6.8 26.3,7.6 C25.7,8.7 24.7,9.4 23,9.8 C22.1,10 20.6,10.1 20.6,10.1 C20.1,10.1 19.7,10.2 19.3,10.2 C16.1,10.2 14.1,9 12.7,4.7 C11.5,1 11.3,-0.1 10.4,-4.5"/>
<path class="Note" transform="matrix(1.70079,0,0,1.70079,1773.14,368.504)" d="M18.7,-13.6 C4.9,-13.6 0,-6.6 0,-0.1 C0,6.4 4.9,13.4 18.7,13.4 C32.5,13.4 37.3,6.4 37.3,-0.1 C37.3,-6.6 32.5,-13.6 18.7,-13.6 M10.4,-4.5 C10.3,-4.9 10.3,-5.3 10.3,-5.7 C10.3,-6.5 10.5,-7.3 10.9,-8 C11.6,-9 12.8,-9.7 14.3,-10 C15.6,-10.3 16.3,-10.5 18.9,-10.5 L19,-10.5 C23,-10.5 24.3,-6.8 25.4,-3 L25.7,-2 C26.5,0.6 26.9,2.8 26.9,4.5 C26.9,5.7 26.7,6.8 26.3,7.6 C25.7,8.7 24.7,9.4 23,9.8 C22.1,10 20.6,10.1 20.6,10.1 C20.1,10.1 19.7,10.2 19.3,10.2 C16.1,10.2 14.1,9 12.7,4.7 C11.5,1 11.3,-0.1 10.4,-4.5"/>
<path class="Note" transform="matrix(1.70079,0,0,1.70079,2229.11,347.244)" d="M18.7,-13.6 C4.9,-13.6 0,-6.6 0,-0.1 C0,6.4 4.9,13.4 18.7,13.4 C32.5,13.4 37.3,6.4 37.3,-0.1 C37.3,-6.6 32.5,-13.6 18.7,-13.6 M10.4,-4.5 C10.3,-4.9 10.3,-5.3 10.3,-5.7 C10.3,-6.5 10.5,-7.3 10.9,-8 C11.6,-9 12.8,-9.7 14.3,-10 C15.6,-10.3 16.3,-10.5 18.9,-10.5 L19,-10.5 C23,-10.5 24.3,-6.8 25.4,-3 L25.7,-2 C26.5,0.6 26.9,2.8 26.9,4.5 C26.9,5.7 26.7,6.8 26.3,7.6 C25.7,8.7 24.7,9.4 23,9.8 C22.1,10 20.6,10.1 20.6,10.1 C20.1,10.1 19.7,10.2 19.3,10.2 C16.1,10.2 14.1,9 12.7,4.7 C11.5,1 11.3,-0.1 10.4,-4.5"/>
<path class="Note" transform="matrix(1.70079,0,0,1.70079,2685.09,389.764)" d="M18.7,-13.6 C4.9,-13.6 0,-6.6 0,-0.1 C0,6.4 4.9,13.4 18.7,13.4 C32.5,13.4 37.3,6.4 37.3,-0.1 C37.3,-6.6 32.5,-13.6 18.7,-13.6 M10.4,-4.5 C10.3,-4.9 10.3,-5.3 10.3,-5.7 C10.3,-6.5 10.5,-7.3 10.9,-8 C11.6,-9 12.8,-9.7 14.3,-10 C15.6,-10.3 16.3,-10.5 18.9,-10.5 L19,-10.5 C23,-10.5 24.3,-6.8 25.4,-3 L25.7,-2 C26.5,0.6 26.9,2.8 26.9,4.5 C26.9,5.7 26.7,6.8 26.3,7.6 C25.7,8.7 24.7,9.4 23,9.8 C22.1,10 20.6,10.1 20.6,10.1 C20.1,10.1 19.7,10.2 19.3,10.2 C16.1,10.2 14.1,9 12.7,4.7 C11.5,1 11.3,-0.1 10.4,-4.5"/>
<path class="Note" transform="matrix(1.70079,0,0,1.70079,3136.97,453.543)" d="M18.7,-13.6 C4.9,-13.6 0,-6.6 0,-0.1 C0,6.4 4.9,13.4 18.7,13.4 C32.5,13.4 37.3,6.4 37.3,-0.1 C37.3,-6.6 32.5,-13.6 18.7,-13.6 M10.4,-4.5 C10.3,-4.9 10.3,-5.3 10.3,-5.7 C10.3,-6.5 10.5,-7.3 10.9,-8 C11.6,-9 12.8,-9.7 14.3,-10 C15.6,-10.3 16.3,-10.5 18.9,-10.5 L19,-10.5 C23,-10.5 24.3,-6.8 25.4,-3 L25.7,-2 C26.5,0.6 26.9,2.8 26.9,4.5 C26.9,5.7 26.7,6.8 26.3,7.6 C25.7,8.7 24.7,9.4 23,9.8 C22.1,10 20.6,10.1 20.6,10.1 C20.1,10.1 19.7,10.2 19.3,10.2 C16.1,10.2 14.1,9 12.7,4.7 C11.5,1 11.3,-0.1 10.4,-4.5"/>
<path class="Note" transform="matrix(1.70079,0,0,1.70079,3722.71,389.764)" d="M18.7,-13.6 C4.9,-13.6 0,-6.6 0,-0.1 C0,6.4 4.9,13.4 18.7,13.4 C32.5,13.4 37.3,6.4 37.3,-0.1 C37.3,-6.6 32.5,-13.6 18.7,-13.6 M10.4,-4.5 C10.3,-4.9 10.3,-5.3 10.3,-5.7 C10.3,-6.5 10.5,-7.3 10.9,-8 C11.6,-9 12.8,-9.7 14.3,-10 C15.6,-10.3 16.3,-10.5 18.9,-10.5 L19,-10.5 C23,-10.5 24.3,-6.8 25.4,-3 L25.7,-2 C26.5,0.6 26.9,2.8 26.9,4.5 C26.9,5.7 26.7,6.8 26.3,7.6 C25.7,8.7 24.7,9.4 23,9.8 C22.1,10 20.6,10.1 20.6,10.1 C20.1,10.1 19.7,10.2 19.3,10.2 C16.1,10.2 14.1,9 12.7,4.7 C11.5,1 11.3,-0.1 10.4,-4.5"/>
<path class="Clef" transform="matrix(1.70079,0,0,1.70079,104.882,368.504)" d="M25.4,-25.1 C17.8,-25.1 11.7,-20.7 11.6,-20.7 C5.8,-16.4 3.5,-11.3 2.6,-7.8 C2.1,-6 1.9,-4.2 1.9,-2.5 C1.9,-0.1 2.3,2.1 3.2,4 C4.4,6.7 6.7,8.6 9.7,9.6 C10.9,10 12.2,10.2 13.5,10.2 C15.7,10.2 18,9.6 19.9,8.5 C23,6.8 24.9,3.2 24.9,-0.7 C24.9,-4.2 23.1,-7.4 20.1,-9.3 C18,-10.7 16,-11.1 14.3,-11.1 C13.1,-11.1 12,-10.9 11.1,-10.6 C10.1,-10.2 8.4,-9.2 7.6,-8.5 C7.9,-10.4 9.1,-13.3 10.2,-14.9 C11.3,-16.5 13.5,-18.5 15.2,-19.4 C17.7,-20.8 20.9,-21.4 24.4,-21.4 C34.6,-21.4 39.6,-13.2 39.6,3.6 C39.6,12.9 36.1,21.8 33.1,27.7 C29.8,34.3 25.4,40.6 21.5,44.1 C11.1,53.6 1.3,58.1 1.2,58.1 C1.2,58.1 -0.3,59 0.1,60.5 C0.4,61.5 1.3,61.7 1.9,61.7 C2,61.7 2.3,61.6 2.4,61.6 C2.5,61.6 13.9,56.9 23,49.8 C28.1,46.1 32.7,42.1 36.7,37.8 C40.3,33.9 43.4,29.7 45.9,25.5 C50.3,18 52.8,10.2 52.8,3.5 C52.8,-4.8 50.6,-11.7 46.5,-16.6 C41.8,-22.2 34.7,-25.1 25.4,-25.1 M56.8,-12.4 C56.8,-9.6 59,-7.4 61.6,-7.4 C64.2,-7.4 66.4,-9.6 66.4,-12.4 C66.4,-15.2 64.2,-17.5 61.6,-17.5 C59,-17.5 56.8,-15.2 56.8,-12.4 M56.8,12.3 C56.8,15.1 59,17.4 61.6,17.4 C64.2,17.4 66.4,15.1 66.4,12.3 C66.4,9.5 64.2,7.2 61.6,7.2 C59,7.2 56.8,9.5 56.8,12.3"/>
<path class="KeySig" transform="matrix(1.70079,0,0,1.70079,260.331,368.504)" d="M23.3,-10.6 C23.9,-10.7 24.4,-11.4 24.4,-12 L24.4,-17.9 C24.4,-18.7 23.8,-19.3 23,-19.3 L22.8,-19.3 L19.5,-18.6 L19.5,-33.5 L16.7,-33.5 L16.7,-18 L7.8,-16.2 L7.8,-30.3 L5,-30.3 L5,-15.6 L1.1,-14.8 C0.5,-14.7 0,-14 0,-13.4 L0,-13.2 L0,-7.4 L0,-7.6 C0,-6.8 0.6,-6.2 1.4,-6.2 L1.7,-6.2 L5,-6.9 L5,9.6 L1.1,10.4 C0.5,10.5 0,11.2 0,11.8 L0,17.6 C0,18.4 0.6,19 1.4,19 L1.7,19 L5,18.3 L5,33.2 L7.8,33.2 L7.8,17.7 L16.7,15.9 L16.7,30 L19.5,30 L19.5,15.3 L23.3,14.6 C23.9,14.5 24.4,13.8 24.4,13.2 L24.4,7.3 C24.4,6.5 23.8,5.9 23,5.9 L22.8,5.9 L19.5,6.6 L19.5,-9.9 L23.3,-10.6 M7.8,9.1 L7.8,-7.5 L16.7,-9.3 L16.7,7.2 L7.8,9.1 "/>
<path class="FiguredBass" d="M913.28,592.657 C910.004,592.657 907.824,593.974 906.739,596.608 C905.655,599.242 905.112,602.972 905.112,607.798 L905.112,615.634 C907.414,614.704 909.407,614.217 911.089,614.173 C916.844,614.173 921.371,615.445 924.669,617.991 C927.967,620.537 929.616,624.322 929.616,629.347 C929.616,634.371 927.945,638.167 924.603,640.735 C921.26,643.303 916.756,644.587 911.089,644.587 C905.289,644.587 900.752,641.897 897.476,636.518 C894.2,631.139 892.562,624.753 892.562,617.36 C892.562,610.011 894.465,603.636 898.273,598.235 C902.08,592.834 907.082,590.134 913.28,590.134 C917.353,590.134 920.873,591.163 923.839,593.222 C926.805,595.28 928.288,597.992 928.288,601.356 C928.288,603.304 927.58,604.986 926.163,606.403 C924.746,607.82 923.053,608.528 921.083,608.528 C919.113,608.528 917.42,607.82 916.003,606.403 C914.586,604.986 913.878,603.304 913.878,601.356 C913.878,599.453 914.586,597.77 916.003,596.309 C916.49,595.734 917.176,595.247 918.062,594.848 C917.84,594.273 917.398,593.83 916.733,593.52 C915.76,592.945 914.608,592.657 913.28,592.657 M916.534,619.817 C915.737,617.736 913.989,616.696 911.288,616.696 C908.588,616.696 906.916,617.736 906.274,619.817 C905.633,621.898 905.312,625.063 905.312,629.313 C905.312,634.316 905.633,637.681 906.274,639.407 C906.916,641.134 908.588,641.997 911.288,641.997 C913.989,641.997 915.737,640.957 916.534,638.876 C917.331,636.795 917.73,633.619 917.73,629.347 C917.73,625.074 917.331,621.898 916.534,619.817"/>
<path class="FiguredBass" d="M897.077,665.837 L900.265,666.302 C901.106,666.434 902.146,666.567 903.386,666.7 C906.441,667.054 909.385,667.231 912.218,667.231 C915.051,667.231 918.039,667.054 921.183,666.7 C922.422,666.567 923.507,666.434 924.437,666.302 L927.691,665.837 C928.355,665.837 928.864,666.058 929.218,666.501 C929.483,666.855 929.439,667.209 929.085,667.563 C922.179,674.337 912.638,677.723 900.464,677.723 C899.977,677.723 899.545,677.901 899.169,678.255 C898.793,678.609 898.605,679.052 898.605,679.583 L898.605,688.016 C901.748,684.917 905.555,683.368 910.026,683.368 C916.269,683.368 921.138,684.829 924.636,687.751 C928.443,684.873 930.435,681.199 930.612,676.727 C930.657,675.311 931.121,674.16 932.007,673.274 C932.981,672.389 934.154,671.946 935.526,671.946 C936.899,671.946 938.061,672.411 939.013,673.341 C939.965,674.27 940.441,675.399 940.441,676.727 C940.441,683.589 936.39,688.791 928.288,692.333 C929.616,694.945 930.28,698.132 930.28,701.895 C930.28,706.898 928.288,711.214 924.304,714.845 C920.319,718.475 915.56,720.29 910.026,720.29 C905.245,720.29 901.095,719.205 897.575,717.036 C894.056,714.867 892.296,711.856 892.296,708.005 C892.296,706.057 893.004,704.363 894.421,702.925 C895.838,701.486 897.531,700.766 899.501,700.766 C901.471,700.766 903.142,701.475 904.515,702.891 C905.887,704.308 906.573,706.013 906.573,708.005 C906.573,708.89 905.843,709.853 904.382,710.893 C902.921,711.934 902.191,712.897 902.191,713.782 C902.191,716.438 904.802,717.766 910.026,717.766 C915.118,717.766 917.663,712.476 917.663,701.895 C917.663,699.549 917.53,697.49 917.265,695.72 C911.908,696.826 905.201,697.69 897.144,698.309 C896.037,698.398 895.483,697.845 895.483,696.649 C895.483,695.675 896.037,695.144 897.144,695.056 C905.289,694.391 911.709,693.329 916.401,691.868 C915.162,688.326 913.037,686.533 910.026,686.489 C905.467,686.489 902.279,687.419 900.464,689.278 C898.649,691.138 897.52,692.067 897.077,692.067 C896.015,692.067 895.483,691.514 895.483,690.407 L895.483,667.563 C895.483,667.121 895.638,666.722 895.948,666.368 C896.302,666.014 896.679,665.837 897.077,665.837"/>
<path class="FiguredBass" d="M1768.61,631.505 C1768.12,632.036 1767.48,632.302 1766.68,632.302 C1765.89,632.302 1765.23,632.025 1764.73,631.472 C1764.22,630.918 1763.96,630.287 1763.96,629.579 L1763.96,620.083 L1754.47,620.083 C1753.67,620.083 1753.02,619.806 1752.51,619.253 C1752,618.699 1751.74,618.069 1751.74,617.36 C1751.74,616.652 1752,616.021 1752.51,615.468 C1753.02,614.914 1753.67,614.638 1754.47,614.638 L1763.96,614.638 L1763.96,605.141 C1763.96,604.433 1764.22,603.802 1764.73,603.249 C1765.23,602.695 1765.89,602.419 1766.68,602.419 C1767.48,602.419 1768.13,602.695 1768.64,603.249 C1769.15,603.802 1769.41,604.433 1769.41,605.141 L1769.41,614.638 L1778.9,614.638 C1779.7,614.638 1780.35,614.914 1780.86,615.468 C1781.37,616.021 1781.63,616.652 1781.63,617.36 C1781.63,618.069 1781.37,618.699 1780.86,619.253 C1780.35,619.806 1779.7,620.083 1778.9,620.083 L1769.41,620.083 L1769.41,629.579 C1769.41,630.287 1769.14,630.929 1768.61,631.505 M1806.85,592.657 C1803.58,592.657 1801.4,593.974 1800.31,596.608 C1799.23,599.242 1798.68,602.972 1798.68,607.798 L1798.68,615.634 C1800.99,614.704 1802.98,614.217 1804.66,614.173 C1810.42,614.173 1814.94,615.445 1818.24,617.991 C1821.54,620.537 1823.19,624.322 1823.19,629.347 C1823.19,634.371 1821.52,638.167 1818.18,640.735 C1814.83,643.303 1810.33,644.587 1804.66,644.587 C1798.86,644.587 1794.32,641.897 1791.05,636.518 C1787.77,631.139 1786.13,624.753 1786.13,617.36 C1786.13,610.011 1788.04,603.636 1791.84,598.235 C1795.65,592.834 1800.65,590.134 1806.85,590.134 C1810.93,590.134 1814.45,591.163 1817.41,593.222 C1820.38,595.28 1821.86,597.992 1821.86,601.356 C1821.86,603.304 1821.15,604.986 1819.74,606.403 C1818.32,607.82 1816.63,608.528 1814.66,608.528 C1812.69,608.528 1810.99,607.82 1809.58,606.403 C1808.16,604.986 1807.45,603.304 1807.45,601.356 C1807.45,599.453 1808.16,597.77 1809.58,596.309 C1810.06,595.734 1810.75,595.247 1811.63,594.848 C1811.41,594.273 1810.97,593.83 1810.31,593.52 C1809.33,592.945 1808.18,592.657 1806.85,592.657 M1810.11,619.817 C1809.31,617.736 1807.56,616.696 1804.86,616.696 C1802.16,616.696 1800.49,617.736 1799.85,619.817 C1799.2,621.898 1798.88,625.063 1798.88,629.313 C1798.88,634.316 1799.2,637.681 1799.85,639.407 C1800.49,641.134 1802.16,641.997 1804.86,641.997 C1807.56,641.997 1809.31,640.957 1810.11,638.876 C1810.9,636.795 1811.3,633.619 1811.3,629.347 C1811.3,625.074 1810.9,621.898 1810.11,619.817"/>
<path class="FiguredBass" d="M2262.82,592.657 C2259.55,592.657 2257.37,593.974 2256.28,596.608 C2255.2,599.242 2254.66,602.972 2254.66,607.798 L2254.66,615.634 C2256.96,614.704 2258.95,614.217 2260.63,614.173 C2266.39,614.173 2270.91,615.445 2274.21,617.991 C2277.51,620.537 2279.16,624.322 2279.16,629.347 C2279.16,634.371 2277.49,638.167 2274.15,640.735 C2270.8,643.303 2266.3,644.587 2260.63,644.587 C2254.83,644.587 2250.3,641.897 2247.02,636.518 C2243.74,631.139 2242.11,624.753 2242.11,617.36 C2242.11,610.011 2244.01,603.636 2247.82,598.235 C2251.62,592.834 2256.63,590.134 2262.82,590.134 C2266.9,590.134 2270.42,591.163 2273.38,593.222 C2276.35,595.28 2277.83,597.992 2277.83,601.356 C2277.83,603.304 2277.12,604.986 2275.71,606.403 C2274.29,607.82 2272.6,608.528 2270.63,608.528 C2268.66,608.528 2266.96,607.82 2265.55,606.403 C2264.13,604.986 2263.42,603.304 2263.42,601.356 C2263.42,599.453 2264.13,597.77 2265.55,596.309 C2266.03,595.734 2266.72,595.247 2267.61,594.848 C2267.38,594.273 2266.94,593.83 2266.28,593.52 C2265.3,592.945 2264.15,592.657 2262.82,592.657 M2266.08,619.817 C2265.28,617.736 2263.53,616.696 2260.83,616.696 C2258.13,616.696 2256.46,617.736 2255.82,619.817 C2255.18,621.898 2254.86,625.063 2254.86,629.313 C2254.86,634.316 2255.18,637.681 2255.82,639.407 C2256.46,641.134 2258.13,641.997 2260.83,641.997 C2263.53,641.997 2265.28,640.957 2266.08,638.876 C2266.87,636.795 2267.27,633.619 2267.27,629.347 C2267.27,625.074 2266.87,621.898 2266.08,619.817"/>
<path class="FiguredBass" d="M3170.22,591.528 C3171.9,591.528 3173.67,591.285 3175.53,590.798 L3178.52,590.001 C3179.09,590.001 3179.55,590.222 3179.88,590.665 C3180.21,591.108 3180.18,591.506 3179.78,591.86 L3148.9,627.786 L3167.03,627.786 L3167.03,613.575 C3167.03,612.557 3167.3,611.771 3167.86,611.218 C3168.41,610.664 3169.12,610.222 3169.98,609.889 C3170.85,609.557 3171.98,608.572 3173.37,606.934 C3174.76,605.296 3176.1,603.083 3177.39,600.294 C3177.61,599.851 3177.94,599.63 3178.38,599.63 C3179.31,599.63 3179.78,600.139 3179.78,601.157 L3179.78,627.786 L3187.61,627.786 C3188.72,627.786 3189.27,628.295 3189.27,629.313 C3189.27,630.42 3188.72,630.973 3187.61,630.973 L3179.78,630.973 L3179.78,631.837 C3179.78,634.582 3180.51,636.972 3181.97,639.009 C3183.43,641.045 3185.31,642.063 3187.61,642.063 C3188.5,642.063 3188.94,642.462 3188.94,643.259 C3188.94,644.144 3188.5,644.587 3187.61,644.587 C3186.02,644.587 3183.65,644.354 3180.51,643.889 C3177.37,643.425 3174.99,643.192 3173.37,643.192 C3171.75,643.192 3169.37,643.425 3166.23,643.889 C3163.09,644.354 3160.72,644.587 3159.13,644.587 C3158.24,644.587 3157.8,644.144 3157.8,643.259 C3157.8,642.462 3158.24,642.063 3159.13,642.063 C3161.43,642.063 3163.32,641.045 3164.8,639.009 C3166.29,636.972 3167.03,634.582 3167.03,631.837 L3167.03,630.973 L3148.9,630.973 C3147.75,630.973 3146.9,630.697 3146.34,630.143 C3145.79,629.59 3145.51,629.026 3145.51,628.45 C3145.51,628.229 3146.03,627.465 3147.07,626.159 C3148.11,624.853 3149.39,623.115 3150.89,620.946 C3152.4,618.777 3153.89,616.309 3155.37,613.542 C3156.86,610.775 3158.12,607.455 3159.16,603.581 C3160.2,599.707 3160.72,595.8 3160.72,591.86 C3160.72,590.709 3161.21,590.134 3162.18,590.134 C3162.31,590.134 3162.78,590.244 3163.57,590.466 C3164.37,590.687 3165.39,590.919 3166.63,591.163 C3167.87,591.406 3169.06,591.528 3170.22,591.528"/>
<path class="FiguredBass" d="M3393.1,637.681 L3393.1,651.559 C3393.1,652.932 3392.4,653.618 3391.01,653.618 C3389.61,653.618 3388.92,652.932 3388.92,651.559 L3388.92,639.473 L3386.79,640.337 C3386.57,640.425 3386.28,640.47 3385.93,640.47 C3385.35,640.47 3384.84,640.248 3384.4,639.806 C3383.96,639.363 3383.74,638.854 3383.74,638.278 L3383.74,631.505 C3383.74,630.531 3384.2,629.845 3385.13,629.446 L3388.92,627.852 L3388.92,613.907 L3386.79,614.77 C3386.66,614.815 3386.48,614.837 3386.26,614.837 C3386.17,614.837 3386.06,614.837 3385.93,614.837 C3385.26,614.748 3384.73,614.505 3384.33,614.106 C3383.93,613.708 3383.74,613.243 3383.74,612.712 L3383.74,605.938 C3383.74,605.009 3384.2,604.345 3385.13,603.946 L3388.92,602.352 L3388.92,588.208 C3388.92,586.835 3389.61,586.149 3391.01,586.149 C3392.4,586.149 3393.1,586.835 3393.1,588.208 L3393.1,600.626 L3401.67,597.04 L3401.67,583.161 C3401.67,581.789 3402.35,581.102 3403.72,581.102 C3405.1,581.102 3405.78,581.789 3405.78,583.161 L3405.78,595.38 L3408.11,594.384 C3408.33,594.295 3408.57,594.251 3408.84,594.251 C3409.41,594.251 3409.93,594.472 3410.4,594.915 C3410.86,595.358 3411.1,595.867 3411.1,596.442 L3411.1,603.216 C3411.1,604.19 3410.61,604.876 3409.63,605.274 L3405.78,606.868 L3405.78,620.88 L3408.11,619.95 C3408.24,619.906 3408.39,619.884 3408.57,619.884 C3408.66,619.884 3408.75,619.884 3408.84,619.884 C3409.59,620.016 3410.15,620.26 3410.53,620.614 C3410.91,620.968 3411.1,621.433 3411.1,622.009 L3411.1,628.782 C3411.1,629.712 3410.61,630.376 3409.63,630.774 L3405.78,632.368 L3405.78,646.513 C3405.78,647.885 3405.1,648.571 3403.72,648.571 C3402.35,648.571 3401.67,647.885 3401.67,646.513 L3401.67,634.095 L3393.1,637.681 M3393.1,626.126 L3401.67,622.606 L3401.67,608.595 L3393.1,612.181 L3393.1,626.126 "/>
<path class="FiguredBass" d="M3525.83,595.048 C3525.96,595.048 3526.25,594.76 3526.69,594.184 C3528.59,591.484 3531.25,590.134 3534.66,590.134 C3537.4,590.134 3539.99,591.152 3542.43,593.188 C3544.86,595.225 3546.88,596.243 3548.47,596.243 C3550.2,596.243 3551.84,595.734 3553.39,594.716 C3554.93,593.697 3556.16,592.679 3557.07,591.661 C3557.98,590.643 3558.57,590.134 3558.83,590.134 C3559.27,590.134 3559.67,590.278 3560.03,590.565 C3560.38,590.853 3560.56,591.218 3560.56,591.661 C3560.56,591.971 3559.65,593.498 3557.83,596.243 C3556.02,598.988 3554.01,602.164 3551.79,605.772 C3549.58,609.38 3547.56,613.885 3545.75,619.286 C3543.93,624.687 3543.03,629.845 3543.03,634.759 C3543.03,636.662 3543.23,638.854 3543.62,641.333 C3543.93,643.236 3543.93,644.321 3543.62,644.587 C3543.4,644.808 3543.03,644.919 3542.49,644.919 C3542.27,644.919 3541.24,644.631 3539.41,644.056 C3537.57,643.48 3535.81,643.192 3534.13,643.192 C3532.62,643.192 3530.88,643.48 3528.91,644.056 C3526.94,644.631 3525.85,644.919 3525.63,644.919 C3525.14,644.919 3524.74,644.72 3524.43,644.321 C3524.12,643.923 3524.08,643.502 3524.3,643.059 C3526.91,636.817 3530.09,630.741 3533.83,624.831 C3537.57,618.921 3542.25,612.114 3547.87,604.411 C3545.75,605.562 3543.6,606.138 3541.43,606.138 C3539.13,606.138 3536.81,605.108 3534.46,603.05 C3532.11,600.991 3530.19,599.962 3528.68,599.962 C3527.58,599.962 3526.61,600.593 3525.79,601.854 C3524.97,603.116 3524.57,605.009 3524.57,607.532 L3524.57,615.7 C3524.57,616.807 3524.06,617.36 3523.04,617.36 C3521.93,617.36 3521.38,616.807 3521.38,615.7 L3521.38,591.794 C3521.38,590.687 3521.93,590.134 3523.04,590.134 C3524.06,590.134 3524.57,590.687 3524.57,591.794 L3524.57,593.321 C3524.57,593.675 3524.65,593.985 3524.83,594.251 C3525.36,594.782 3525.69,595.048 3525.83,595.048"/>
<path class="FiguredBass" d="M3542.3,707.208 C3541.81,707.739 3541.17,708.005 3540.37,708.005 C3539.58,708.005 3538.92,707.728 3538.41,707.175 C3537.91,706.621 3537.65,705.99 3537.65,705.282 L3537.65,695.786 L3528.16,695.786 C3527.36,695.786 3526.71,695.509 3526.2,694.956 C3525.69,694.403 3525.43,693.772 3525.43,693.063 C3525.43,692.355 3525.69,691.724 3526.2,691.171 C3526.71,690.617 3527.36,690.341 3528.16,690.341 L3537.65,690.341 L3537.65,680.845 C3537.65,680.136 3537.91,679.505 3538.41,678.952 C3538.92,678.399 3539.58,678.122 3540.37,678.122 C3541.17,678.122 3541.82,678.399 3542.33,678.952 C3542.84,679.505 3543.1,680.136 3543.1,680.845 L3543.1,690.341 L3552.59,690.341 C3553.39,690.341 3554.04,690.617 3554.55,691.171 C3555.06,691.724 3555.32,692.355 3555.32,693.063 C3555.32,693.772 3555.06,694.403 3554.55,694.956 C3554.04,695.509 3553.39,695.786 3552.59,695.786 L3543.1,695.786 L3543.1,705.282 C3543.1,705.99 3542.83,706.632 3542.3,707.208"/>
</svg>
