<?xml version="1.0" encoding="UTF-8" standalone="no"?>
<svg width="4209.44px" height="850.392px" viewBox="0 0 4209.44 850.392"
 xmlns="http://www.w3.org/2000/svg" xmlns:xlink="http://www.w3.org/1999/xlink" version="1.2" baseProfile="tiny">
<title>ExercicesSolMajeur (9)</title>
<desc>Generated by MuseScore 3.6.2</desc>
<polyline class="StaffLines" fill="none" stroke="#000000" stroke-width="4.68" stroke-linejoin="bevel" points="70.866,325.984 4138.58,325.984"/>
<polyline class="StaffLines" fill="none" stroke="#000000" stroke-width="4.68" stroke-linejoin="bevel" points="70.866,368.504 4138.58,368.504"/>
<polyline class="StaffLines" fill="none" stroke="#000000" stroke-width="4.68" stroke-linejoin="bevel" points="70.866,411.024 4138.58,411.024"/>
<polyline class="StaffLines" fill="none" stroke="#000000" stroke-width="4.68" stroke-linejoin="bevel" points="70.866,453.543 4138.58,453.543"/>
<polyline class="StaffLines" fill="none" stroke="#000000" stroke-width="4.68" stroke-linejoin="bevel" points="70.866,496.063 4138.58,496.063"/>
<polyline class="BarLine" fill="none" stroke="#000000" stroke-width="7.65" stroke-linejoin="bevel" points="674.879,323.646 674.879,498.402"/>
<polyline class="BarLine" fill="none" stroke="#000000" stroke-width="7.65" stroke-linejoin="bevel" points="1019.1,323.646 1019.1,498.402"/>
<polyline class="BarLine" fill="none" stroke="#000000" stroke-width="7.65" stroke-linejoin="bevel" points="1363.33,323.646 1363.33,498.402"/>
<polyline class="BarLine" fill="none" stroke="#000000" stroke-width="7.65" stroke-linejoin="bevel" points="1707.55,323.646 1707.55,498.402"/>
<polyline class="BarLine" fill="none" stroke="#000000" stroke-width="7.65" stroke-linejoin="bevel" points="2051.78,323.646 2051.78,498.402"/>
<polyline class="BarLine" fill="none" stroke="#000000" stroke-width="7.65" stroke-linejoin="bevel" points="2396,323.646 2396,498.402"/>
<polyline class="BarLine" fill="none" stroke="#000000" stroke-width="7.65" stroke-linejoin="bevel" points="2739.41,323.646 2739.41,498.402"/>
<polyline class="BarLine" fill="none" stroke="#000000" stroke-width="7.65" stroke-linejoin="bevel" points="3083.63,323.646 3083.63,498.402"/>
<polyline class="BarLine" fill="none" stroke="#000000" stroke-width="7.65" stroke-linejoin="bevel" points="3427.04,323.646 3427.04,498.402"/>
<polyline class="BarLine" fill="none" stroke="#000000" stroke-width="7.65" stroke-linejoin="bevel" points="3771.27,323.646 3771.27,498.402"/>
<polyline class="BarLine" fill="none" stroke="#000000" stroke-width="7.65" stroke-linejoin="bevel" points="4097.12,323.646 4097.12,498.402"/>
<polyline class="BarLine" fill="none" stroke="#000000" stroke-width="23.39" stroke-linejoin="bevel" points="4126.89,323.646 4126.89,498.402"/>
<polyline class="LedgerLine" fill="none" stroke="#000000" stroke-width="6.80" stroke-linejoin="bevel" points="3486.14,538.583 3579.34,538.583"/>
<path class="Note" transform="matrix(1.70079,0,0,1.70079,408.127,496.063)" d="M18.7,-13.6 C4.9,-13.6 0,-6.6 0,-0.1 C0,6.4 4.9,13.4 18.7,13.4 C32.5,13.4 37.3,6.4 37.3,-0.1 C37.3,-6.6 32.5,-13.6 18.7,-13.6 M10.4,-4.5 C10.3,-4.9 10.3,-5.3 10.3,-5.7 C10.3,-6.5 10.5,-7.3 10.9,-8 C11.6,-9 12.8,-9.7 14.3,-10 C15.6,-10.3 16.3,-10.5 18.9,-10.5 L19,-10.5 C23,-10.5 24.3,-6.8 25.4,-3 L25.7,-2 C26.5,0.6 26.9,2.8 26.9,4.5 C26.9,5.7 26.7,6.8 26.3,7.6 C25.7,8.7 24.7,9.4 23,9.8 C22.1,10 20.6,10.1 20.6,10.1 C20.1,10.1 19.7,10.2 19.3,10.2 C16.1,10.2 14.1,9 12.7,4.7 C11.5,1 11.3,-0.1 10.4,-4.5"/>
<path class="Note" transform="matrix(1.70079,0,0,1.70079,733.982,474.803)" d="M18.7,-13.6 C4.9,-13.6 0,-6.6 0,-0.1 C0,6.4 4.9,13.4 18.7,13.4 C32.5,13.4 37.3,6.4 37.3,-0.1 C37.3,-6.6 32.5,-13.6 18.7,-13.6 M10.4,-4.5 C10.3,-4.9 10.3,-5.3 10.3,-5.7 C10.3,-6.5 10.5,-7.3 10.9,-8 C11.6,-9 12.8,-9.7 14.3,-10 C15.6,-10.3 16.3,-10.5 18.9,-10.5 L19,-10.5 C23,-10.5 24.3,-6.8 25.4,-3 L25.7,-2 C26.5,0.6 26.9,2.8 26.9,4.5 C26.9,5.7 26.7,6.8 26.3,7.6 C25.7,8.7 24.7,9.4 23,9.8 C22.1,10 20.6,10.1 20.6,10.1 C20.1,10.1 19.7,10.2 19.3,10.2 C16.1,10.2 14.1,9 12.7,4.7 C11.5,1 11.3,-0.1 10.4,-4.5"/>
<path class="Note" transform="matrix(1.70079,0,0,1.70079,1078.21,474.803)" d="M18.7,-13.6 C4.9,-13.6 0,-6.6 0,-0.1 C0,6.4 4.9,13.4 18.7,13.4 C32.5,13.4 37.3,6.4 37.3,-0.1 C37.3,-6.6 32.5,-13.6 18.7,-13.6 M10.4,-4.5 C10.3,-4.9 10.3,-5.3 10.3,-5.7 C10.3,-6.5 10.5,-7.3 10.9,-8 C11.6,-9 12.8,-9.7 14.3,-10 C15.6,-10.3 16.3,-10.5 18.9,-10.5 L19,-10.5 C23,-10.5 24.3,-6.8 25.4,-3 L25.7,-2 C26.5,0.6 26.9,2.8 26.9,4.5 C26.9,5.7 26.7,6.8 26.3,7.6 C25.7,8.7 24.7,9.4 23,9.8 C22.1,10 20.6,10.1 20.6,10.1 C20.1,10.1 19.7,10.2 19.3,10.2 C16.1,10.2 14.1,9 12.7,4.7 C11.5,1 11.3,-0.1 10.4,-4.5"/>
<path class="Note" transform="matrix(1.70079,0,0,1.70079,1422.43,496.063)" d="M18.7,-13.6 C4.9,-13.6 0,-6.6 0,-0.1 C0,6.4 4.9,13.4 18.7,13.4 C32.5,13.4 37.3,6.4 37.3,-0.1 C37.3,-6.6 32.5,-13.6 18.7,-13.6 M10.4,-4.5 C10.3,-4.9 10.3,-5.3 10.3,-5.7 C10.3,-6.5 10.5,-7.3 10.9,-8 C11.6,-9 12.8,-9.7 14.3,-10 C15.6,-10.3 16.3,-10.5 18.9,-10.5 L19,-10.5 C23,-10.5 24.3,-6.8 25.4,-3 L25.7,-2 C26.5,0.6 26.9,2.8 26.9,4.5 C26.9,5.7 26.7,6.8 26.3,7.6 C25.7,8.7 24.7,9.4 23,9.8 C22.1,10 20.6,10.1 20.6,10.1 C20.1,10.1 19.7,10.2 19.3,10.2 C16.1,10.2 14.1,9 12.7,4.7 C11.5,1 11.3,-0.1 10.4,-4.5"/>
<path class="Note" transform="matrix(1.70079,0,0,1.70079,1766.66,496.063)" d="M18.7,-13.6 C4.9,-13.6 0,-6.6 0,-0.1 C0,6.4 4.9,13.4 18.7,13.4 C32.5,13.4 37.3,6.4 37.3,-0.1 C37.3,-6.6 32.5,-13.6 18.7,-13.6 M10.4,-4.5 C10.3,-4.9 10.3,-5.3 10.3,-5.7 C10.3,-6.5 10.5,-7.3 10.9,-8 C11.6,-9 12.8,-9.7 14.3,-10 C15.6,-10.3 16.3,-10.5 18.9,-10.5 L19,-10.5 C23,-10.5 24.3,-6.8 25.4,-3 L25.7,-2 C26.5,0.6 26.9,2.8 26.9,4.5 C26.9,5.7 26.7,6.8 26.3,7.6 C25.7,8.7 24.7,9.4 23,9.8 C22.1,10 20.6,10.1 20.6,10.1 C20.1,10.1 19.7,10.2 19.3,10.2 C16.1,10.2 14.1,9 12.7,4.7 C11.5,1 11.3,-0.1 10.4,-4.5"/>
<path class="Note" transform="matrix(1.70079,0,0,1.70079,2110.88,474.803)" d="M18.7,-13.6 C4.9,-13.6 0,-6.6 0,-0.1 C0,6.4 4.9,13.4 18.7,13.4 C32.5,13.4 37.3,6.4 37.3,-0.1 C37.3,-6.6 32.5,-13.6 18.7,-13.6 M10.4,-4.5 C10.3,-4.9 10.3,-5.3 10.3,-5.7 C10.3,-6.5 10.5,-7.3 10.9,-8 C11.6,-9 12.8,-9.7 14.3,-10 C15.6,-10.3 16.3,-10.5 18.9,-10.5 L19,-10.5 C23,-10.5 24.3,-6.8 25.4,-3 L25.7,-2 C26.5,0.6 26.9,2.8 26.9,4.5 C26.9,5.7 26.7,6.8 26.3,7.6 C25.7,8.7 24.7,9.4 23,9.8 C22.1,10 20.6,10.1 20.6,10.1 C20.1,10.1 19.7,10.2 19.3,10.2 C16.1,10.2 14.1,9 12.7,4.7 C11.5,1 11.3,-0.1 10.4,-4.5"/>
<path class="Note" transform="matrix(1.70079,0,0,1.70079,2459.19,411.024)" d="M18.7,-13.6 C4.9,-13.6 0,-6.6 0,-0.1 C0,6.4 4.9,13.4 18.7,13.4 C32.5,13.4 37.3,6.4 37.3,-0.1 C37.3,-6.6 32.5,-13.6 18.7,-13.6 M10.4,-4.5 C10.3,-4.9 10.3,-5.3 10.3,-5.7 C10.3,-6.5 10.5,-7.3 10.9,-8 C11.6,-9 12.8,-9.7 14.3,-10 C15.6,-10.3 16.3,-10.5 18.9,-10.5 L19,-10.5 C23,-10.5 24.3,-6.8 25.4,-3 L25.7,-2 C26.5,0.6 26.9,2.8 26.9,4.5 C26.9,5.7 26.7,6.8 26.3,7.6 C25.7,8.7 24.7,9.4 23,9.8 C22.1,10 20.6,10.1 20.6,10.1 C20.1,10.1 19.7,10.2 19.3,10.2 C16.1,10.2 14.1,9 12.7,4.7 C11.5,1 11.3,-0.1 10.4,-4.5"/>
<path class="Note" transform="matrix(1.70079,0,0,1.70079,2798.51,496.063)" d="M18.7,-13.6 C4.9,-13.6 0,-6.6 0,-0.1 C0,6.4 4.9,13.4 18.7,13.4 C32.5,13.4 37.3,6.4 37.3,-0.1 C37.3,-6.6 32.5,-13.6 18.7,-13.6 M10.4,-4.5 C10.3,-4.9 10.3,-5.3 10.3,-5.7 C10.3,-6.5 10.5,-7.3 10.9,-8 C11.6,-9 12.8,-9.7 14.3,-10 C15.6,-10.3 16.3,-10.5 18.9,-10.5 L19,-10.5 C23,-10.5 24.3,-6.8 25.4,-3 L25.7,-2 C26.5,0.6 26.9,2.8 26.9,4.5 C26.9,5.7 26.7,6.8 26.3,7.6 C25.7,8.7 24.7,9.4 23,9.8 C22.1,10 20.6,10.1 20.6,10.1 C20.1,10.1 19.7,10.2 19.3,10.2 C16.1,10.2 14.1,9 12.7,4.7 C11.5,1 11.3,-0.1 10.4,-4.5"/>
<path class="Note" transform="matrix(1.70079,0,0,1.70079,3146.82,411.024)" d="M18.7,-13.6 C4.9,-13.6 0,-6.6 0,-0.1 C0,6.4 4.9,13.4 18.7,13.4 C32.5,13.4 37.3,6.4 37.3,-0.1 C37.3,-6.6 32.5,-13.6 18.7,-13.6 M10.4,-4.5 C10.3,-4.9 10.3,-5.3 10.3,-5.7 C10.3,-6.5 10.5,-7.3 10.9,-8 C11.6,-9 12.8,-9.7 14.3,-10 C15.6,-10.3 16.3,-10.5 18.9,-10.5 L19,-10.5 C23,-10.5 24.3,-6.8 25.4,-3 L25.7,-2 C26.5,0.6 26.9,2.8 26.9,4.5 C26.9,5.7 26.7,6.8 26.3,7.6 C25.7,8.7 24.7,9.4 23,9.8 C22.1,10 20.6,10.1 20.6,10.1 C20.1,10.1 19.7,10.2 19.3,10.2 C16.1,10.2 14.1,9 12.7,4.7 C11.5,1 11.3,-0.1 10.4,-4.5"/>
<path class="Note" transform="matrix(1.70079,0,0,1.70079,3501.03,559.843)" d="M18.7,-13.6 C4.9,-13.6 0,-6.6 0,-0.1 C0,6.4 4.9,13.4 18.7,13.4 C32.5,13.4 37.3,6.4 37.3,-0.1 C37.3,-6.6 32.5,-13.6 18.7,-13.6 M10.4,-4.5 C10.3,-4.9 10.3,-5.3 10.3,-5.7 C10.3,-6.5 10.5,-7.3 10.9,-8 C11.6,-9 12.8,-9.7 14.3,-10 C15.6,-10.3 16.3,-10.5 18.9,-10.5 L19,-10.5 C23,-10.5 24.3,-6.8 25.4,-3 L25.7,-2 C26.5,0.6 26.9,2.8 26.9,4.5 C26.9,5.7 26.7,6.8 26.3,7.6 C25.7,8.7 24.7,9.4 23,9.8 C22.1,10 20.6,10.1 20.6,10.1 C20.1,10.1 19.7,10.2 19.3,10.2 C16.1,10.2 14.1,9 12.7,4.7 C11.5,1 11.3,-0.1 10.4,-4.5"/>
<path class="Note" transform="matrix(1.70079,0,0,1.70079,3830.37,496.063)" d="M18.7,-13.6 C4.9,-13.6 0,-6.6 0,-0.1 C0,6.4 4.9,13.4 18.7,13.4 C32.5,13.4 37.3,6.4 37.3,-0.1 C37.3,-6.6 32.5,-13.6 18.7,-13.6 M10.4,-4.5 C10.3,-4.9 10.3,-5.3 10.3,-5.7 C10.3,-6.5 10.5,-7.3 10.9,-8 C11.6,-9 12.8,-9.7 14.3,-10 C15.6,-10.3 16.3,-10.5 18.9,-10.5 L19,-10.5 C23,-10.5 24.3,-6.8 25.4,-3 L25.7,-2 C26.5,0.6 26.9,2.8 26.9,4.5 C26.9,5.7 26.7,6.8 26.3,7.6 C25.7,8.7 24.7,9.4 23,9.8 C22.1,10 20.6,10.1 20.6,10.1 C20.1,10.1 19.7,10.2 19.3,10.2 C16.1,10.2 14.1,9 12.7,4.7 C11.5,1 11.3,-0.1 10.4,-4.5"/>
<path class="Clef" transform="matrix(1.70079,0,0,1.70079,104.882,368.504)" d="M25.4,-25.1 C17.8,-25.1 11.7,-20.7 11.6,-20.7 C5.8,-16.4 3.5,-11.3 2.6,-7.8 C2.1,-6 1.9,-4.2 1.9,-2.5 C1.9,-0.1 2.3,2.1 3.2,4 C4.4,6.7 6.7,8.6 9.7,9.6 C10.9,10 12.2,10.2 13.5,10.2 C15.7,10.2 18,9.6 19.9,8.5 C23,6.8 24.9,3.2 24.9,-0.7 C24.9,-4.2 23.1,-7.4 20.1,-9.3 C18,-10.7 16,-11.1 14.3,-11.1 C13.1,-11.1 12,-10.9 11.1,-10.6 C10.1,-10.2 8.4,-9.2 7.6,-8.5 C7.9,-10.4 9.1,-13.3 10.2,-14.9 C11.3,-16.5 13.5,-18.5 15.2,-19.4 C17.7,-20.8 20.9,-21.4 24.4,-21.4 C34.6,-21.4 39.6,-13.2 39.6,3.6 C39.6,12.9 36.1,21.8 33.1,27.7 C29.8,34.3 25.4,40.6 21.5,44.1 C11.1,53.6 1.3,58.1 1.2,58.1 C1.2,58.1 -0.3,59 0.1,60.5 C0.4,61.5 1.3,61.7 1.9,61.7 C2,61.7 2.3,61.6 2.4,61.6 C2.5,61.6 13.9,56.9 23,49.8 C28.1,46.1 32.7,42.1 36.7,37.8 C40.3,33.9 43.4,29.7 45.9,25.5 C50.3,18 52.8,10.2 52.8,3.5 C52.8,-4.8 50.6,-11.7 46.5,-16.6 C41.8,-22.2 34.7,-25.1 25.4,-25.1 M56.8,-12.4 C56.8,-9.6 59,-7.4 61.6,-7.4 C64.2,-7.4 66.4,-9.6 66.4,-12.4 C66.4,-15.2 64.2,-17.5 61.6,-17.5 C59,-17.5 56.8,-15.2 56.8,-12.4 M56.8,12.3 C56.8,15.1 59,17.4 61.6,17.4 C64.2,17.4 66.4,15.1 66.4,12.3 C66.4,9.5 64.2,7.2 61.6,7.2 C59,7.2 56.8,9.5 56.8,12.3"/>
<path class="KeySig" transform="matrix(1.70079,0,0,1.70079,260.331,368.504)" d="M23.3,-10.6 C23.9,-10.7 24.4,-11.4 24.4,-12 L24.4,-17.9 C24.4,-18.7 23.8,-19.3 23,-19.3 L22.8,-19.3 L19.5,-18.6 L19.5,-33.5 L16.7,-33.5 L16.7,-18 L7.8,-16.2 L7.8,-30.3 L5,-30.3 L5,-15.6 L1.1,-14.8 C0.5,-14.7 0,-14 0,-13.4 L0,-13.2 L0,-7.4 L0,-7.6 C0,-6.8 0.6,-6.2 1.4,-6.2 L1.7,-6.2 L5,-6.9 L5,9.6 L1.1,10.4 C0.5,10.5 0,11.2 0,11.8 L0,17.6 C0,18.4 0.6,19 1.4,19 L1.7,19 L5,18.3 L5,33.2 L7.8,33.2 L7.8,17.7 L16.7,15.9 L16.7,30 L19.5,30 L19.5,15.3 L23.3,14.6 C23.9,14.5 24.4,13.8 24.4,13.2 L24.4,7.3 C24.4,6.5 23.8,5.9 23,5.9 L22.8,5.9 L19.5,6.6 L19.5,-9.9 L23.3,-10.6 M7.8,9.1 L7.8,-7.5 L16.7,-9.3 L16.7,7.2 L7.8,9.1 "/>
<path class="FiguredBass" d="M751.156,595.048 C751.288,595.048 751.576,594.76 752.019,594.184 C753.923,591.484 756.579,590.134 759.988,590.134 C762.732,590.134 765.322,591.152 767.757,593.188 C770.192,595.225 772.206,596.243 773.8,596.243 C775.527,596.243 777.165,595.734 778.714,594.716 C780.264,593.697 781.492,592.679 782.4,591.661 C783.307,590.643 783.894,590.134 784.16,590.134 C784.602,590.134 785.001,590.278 785.355,590.565 C785.709,590.853 785.886,591.218 785.886,591.661 C785.886,591.971 784.979,593.498 783.163,596.243 C781.348,598.988 779.334,602.164 777.121,605.772 C774.907,609.38 772.893,613.885 771.078,619.286 C769.262,624.687 768.355,629.845 768.355,634.759 C768.355,636.662 768.554,638.854 768.953,641.333 C769.262,643.236 769.262,644.321 768.953,644.587 C768.731,644.808 768.355,644.919 767.824,644.919 C767.602,644.919 766.573,644.631 764.736,644.056 C762.899,643.48 761.139,643.192 759.456,643.192 C757.951,643.192 756.214,643.48 754.244,644.056 C752.274,644.631 751.178,644.919 750.956,644.919 C750.469,644.919 750.071,644.72 749.761,644.321 C749.451,643.923 749.407,643.502 749.628,643.059 C752.24,636.817 755.417,630.741 759.158,624.831 C762.899,618.921 767.58,612.114 773.203,604.411 C771.078,605.562 768.93,606.138 766.761,606.138 C764.459,606.138 762.135,605.108 759.788,603.05 C757.442,600.991 755.516,599.962 754.011,599.962 C752.904,599.962 751.941,600.593 751.122,601.854 C750.303,603.116 749.894,605.009 749.894,607.532 L749.894,615.7 C749.894,616.807 749.385,617.36 748.367,617.36 C747.26,617.36 746.706,616.807 746.706,615.7 L746.706,591.794 C746.706,590.687 747.26,590.134 748.367,590.134 C749.385,590.134 749.894,590.687 749.894,591.794 L749.894,593.321 C749.894,593.675 749.982,593.985 750.16,594.251 C750.691,594.782 751.023,595.048 751.156,595.048"/>
<path class="FiguredBass" d="M1073.67,631.505 C1073.19,632.036 1072.54,632.302 1071.75,632.302 C1070.95,632.302 1070.3,632.025 1069.79,631.472 C1069.28,630.918 1069.02,630.287 1069.02,629.579 L1069.02,620.083 L1059.53,620.083 C1058.73,620.083 1058.08,619.806 1057.57,619.253 C1057.06,618.699 1056.81,618.069 1056.81,617.36 C1056.81,616.652 1057.06,616.021 1057.57,615.468 C1058.08,614.914 1058.73,614.638 1059.53,614.638 L1069.02,614.638 L1069.02,605.141 C1069.02,604.433 1069.28,603.802 1069.79,603.249 C1070.3,602.695 1070.95,602.419 1071.75,602.419 C1072.54,602.419 1073.2,602.695 1073.71,603.249 C1074.22,603.802 1074.47,604.433 1074.47,605.141 L1074.47,614.638 L1083.97,614.638 C1084.76,614.638 1085.42,614.914 1085.93,615.468 C1086.43,616.021 1086.69,616.652 1086.69,617.36 C1086.69,618.069 1086.43,618.699 1085.93,619.253 C1085.42,619.806 1084.76,620.083 1083.97,620.083 L1074.47,620.083 L1074.47,629.579 C1074.47,630.287 1074.2,630.929 1073.67,631.505 M1111.92,592.657 C1108.64,592.657 1106.46,593.974 1105.37,596.608 C1104.29,599.242 1103.75,602.972 1103.75,607.798 L1103.75,615.634 C1106.05,614.704 1108.04,614.217 1109.72,614.173 C1115.48,614.173 1120.01,615.445 1123.3,617.991 C1126.6,620.537 1128.25,624.322 1128.25,629.347 C1128.25,634.371 1126.58,638.167 1123.24,640.735 C1119.9,643.303 1115.39,644.587 1109.72,644.587 C1103.92,644.587 1099.39,641.897 1096.11,636.518 C1092.83,631.139 1091.2,624.753 1091.2,617.36 C1091.2,610.011 1093.1,603.636 1096.91,598.235 C1100.71,592.834 1105.72,590.134 1111.92,590.134 C1115.99,590.134 1119.51,591.163 1122.47,593.222 C1125.44,595.28 1126.92,597.992 1126.92,601.356 C1126.92,603.304 1126.21,604.986 1124.8,606.403 C1123.38,607.82 1121.69,608.528 1119.72,608.528 C1117.75,608.528 1116.05,607.82 1114.64,606.403 C1113.22,604.986 1112.51,603.304 1112.51,601.356 C1112.51,599.453 1113.22,597.77 1114.64,596.309 C1115.13,595.734 1115.81,595.247 1116.7,594.848 C1116.48,594.273 1116.03,593.83 1115.37,593.52 C1114.39,592.945 1113.24,592.657 1111.92,592.657 M1115.17,619.817 C1114.37,617.736 1112.62,616.696 1109.92,616.696 C1107.22,616.696 1105.55,617.736 1104.91,619.817 C1104.27,621.898 1103.95,625.063 1103.95,629.313 C1103.95,634.316 1104.27,637.681 1104.91,639.407 C1105.55,641.134 1107.22,641.997 1109.92,641.997 C1112.62,641.997 1114.37,640.957 1115.17,638.876 C1115.97,636.795 1116.36,633.619 1116.36,629.347 C1116.36,625.074 1115.97,621.898 1115.17,619.817"/>
<path class="FiguredBass" d="M2128.05,595.048 C2128.19,595.048 2128.47,594.76 2128.92,594.184 C2130.82,591.484 2133.48,590.134 2136.89,590.134 C2139.63,590.134 2142.22,591.152 2144.66,593.188 C2147.09,595.225 2149.1,596.243 2150.7,596.243 C2152.43,596.243 2154.06,595.734 2155.61,594.716 C2157.16,593.697 2158.39,592.679 2159.3,591.661 C2160.21,590.643 2160.79,590.134 2161.06,590.134 C2161.5,590.134 2161.9,590.278 2162.25,590.565 C2162.61,590.853 2162.78,591.218 2162.78,591.661 C2162.78,591.971 2161.88,593.498 2160.06,596.243 C2158.25,598.988 2156.23,602.164 2154.02,605.772 C2151.81,609.38 2149.79,613.885 2147.98,619.286 C2146.16,624.687 2145.25,629.845 2145.25,634.759 C2145.25,636.662 2145.45,638.854 2145.85,641.333 C2146.16,643.236 2146.16,644.321 2145.85,644.587 C2145.63,644.808 2145.25,644.919 2144.72,644.919 C2144.5,644.919 2143.47,644.631 2141.63,644.056 C2139.8,643.48 2138.04,643.192 2136.35,643.192 C2134.85,643.192 2133.11,643.48 2131.14,644.056 C2129.17,644.631 2128.08,644.919 2127.85,644.919 C2127.37,644.919 2126.97,644.72 2126.66,644.321 C2126.35,643.923 2126.31,643.502 2126.53,643.059 C2129.14,636.817 2132.32,630.741 2136.06,624.831 C2139.8,618.921 2144.48,612.114 2150.1,604.411 C2147.98,605.562 2145.83,606.138 2143.66,606.138 C2141.36,606.138 2139.03,605.108 2136.69,603.05 C2134.34,600.991 2132.41,599.962 2130.91,599.962 C2129.8,599.962 2128.84,600.593 2128.02,601.854 C2127.2,603.116 2126.79,605.009 2126.79,607.532 L2126.79,615.7 C2126.79,616.807 2126.28,617.36 2125.27,617.36 C2124.16,617.36 2123.6,616.807 2123.6,615.7 L2123.6,591.794 C2123.6,590.687 2124.16,590.134 2125.27,590.134 C2126.28,590.134 2126.79,590.687 2126.79,591.794 L2126.79,593.321 C2126.79,593.675 2126.88,593.985 2127.06,594.251 C2127.59,594.782 2127.92,595.048 2128.05,595.048"/>
<path class="FiguredBass" d="M2476.36,595.048 C2476.5,595.048 2476.79,594.76 2477.23,594.184 C2479.13,591.484 2481.79,590.134 2485.2,590.134 C2487.94,590.134 2490.53,591.152 2492.97,593.188 C2495.4,595.225 2497.42,596.243 2499.01,596.243 C2500.74,596.243 2502.37,595.734 2503.92,594.716 C2505.47,593.697 2506.7,592.679 2507.61,591.661 C2508.52,590.643 2509.1,590.134 2509.37,590.134 C2509.81,590.134 2510.21,590.278 2510.56,590.565 C2510.92,590.853 2511.1,591.218 2511.1,591.661 C2511.1,591.971 2510.19,593.498 2508.37,596.243 C2506.56,598.988 2504.54,602.164 2502.33,605.772 C2500.12,609.38 2498.1,613.885 2496.29,619.286 C2494.47,624.687 2493.56,629.845 2493.56,634.759 C2493.56,636.662 2493.76,638.854 2494.16,641.333 C2494.47,643.236 2494.47,644.321 2494.16,644.587 C2493.94,644.808 2493.56,644.919 2493.03,644.919 C2492.81,644.919 2491.78,644.631 2489.94,644.056 C2488.11,643.48 2486.35,643.192 2484.67,643.192 C2483.16,643.192 2481.42,643.48 2479.45,644.056 C2477.48,644.631 2476.39,644.919 2476.17,644.919 C2475.68,644.919 2475.28,644.72 2474.97,644.321 C2474.66,643.923 2474.62,643.502 2474.84,643.059 C2477.45,636.817 2480.63,630.741 2484.37,624.831 C2488.11,618.921 2492.79,612.114 2498.41,604.411 C2496.29,605.562 2494.14,606.138 2491.97,606.138 C2489.67,606.138 2487.34,605.108 2485,603.05 C2482.65,600.991 2480.73,599.962 2479.22,599.962 C2478.11,599.962 2477.15,600.593 2476.33,601.854 C2475.51,603.116 2475.1,605.009 2475.1,607.532 L2475.1,615.7 C2475.1,616.807 2474.59,617.36 2473.58,617.36 C2472.47,617.36 2471.92,616.807 2471.92,615.7 L2471.92,591.794 C2471.92,590.687 2472.47,590.134 2473.58,590.134 C2474.59,590.134 2475.1,590.687 2475.1,591.794 L2475.1,593.321 C2475.1,593.675 2475.19,593.985 2475.37,594.251 C2475.9,594.782 2476.23,595.048 2476.36,595.048"/>
<path class="FiguredBass" d="M2492.84,707.208 C2492.35,707.739 2491.71,708.005 2490.91,708.005 C2490.11,708.005 2489.46,707.728 2488.95,707.175 C2488.44,706.621 2488.19,705.99 2488.19,705.282 L2488.19,695.786 L2478.69,695.786 C2477.9,695.786 2477.24,695.509 2476.73,694.956 C2476.22,694.403 2475.97,693.772 2475.97,693.063 C2475.97,692.355 2476.22,691.724 2476.73,691.171 C2477.24,690.617 2477.9,690.341 2478.69,690.341 L2488.19,690.341 L2488.19,680.845 C2488.19,680.136 2488.44,679.505 2488.95,678.952 C2489.46,678.399 2490.11,678.122 2490.91,678.122 C2491.71,678.122 2492.36,678.399 2492.87,678.952 C2493.38,679.505 2493.63,680.136 2493.63,680.845 L2493.63,690.341 L2503.13,690.341 C2503.93,690.341 2504.58,690.617 2505.09,691.171 C2505.6,691.724 2505.85,692.355 2505.85,693.063 C2505.85,693.772 2505.6,694.403 2505.09,694.956 C2504.58,695.509 2503.93,695.786 2503.13,695.786 L2493.63,695.786 L2493.63,705.282 C2493.63,705.99 2493.37,706.632 2492.84,707.208"/>
<path class="FiguredBass" d="M3180.07,591.528 C3181.75,591.528 3183.52,591.285 3185.38,590.798 L3188.37,590.001 C3188.94,590.001 3189.4,590.222 3189.73,590.665 C3190.06,591.108 3190.03,591.506 3189.63,591.86 L3158.75,627.786 L3176.88,627.786 L3176.88,613.575 C3176.88,612.557 3177.16,611.771 3177.71,611.218 C3178.26,610.664 3178.97,610.222 3179.83,609.889 C3180.7,609.557 3181.83,608.572 3183.22,606.934 C3184.62,605.296 3185.96,603.083 3187.24,600.294 C3187.46,599.851 3187.79,599.63 3188.24,599.63 C3189.16,599.63 3189.63,600.139 3189.63,601.157 L3189.63,627.786 L3197.47,627.786 C3198.57,627.786 3199.13,628.295 3199.13,629.313 C3199.13,630.42 3198.57,630.973 3197.47,630.973 L3189.63,630.973 L3189.63,631.837 C3189.63,634.582 3190.36,636.972 3191.82,639.009 C3193.28,641.045 3195.16,642.063 3197.47,642.063 C3198.35,642.063 3198.79,642.462 3198.79,643.259 C3198.79,644.144 3198.35,644.587 3197.47,644.587 C3195.87,644.587 3193.5,644.354 3190.36,643.889 C3187.22,643.425 3184.84,643.192 3183.22,643.192 C3181.61,643.192 3179.23,643.425 3176.08,643.889 C3172.94,644.354 3170.57,644.587 3168.98,644.587 C3168.09,644.587 3167.65,644.144 3167.65,643.259 C3167.65,642.462 3168.09,642.063 3168.98,642.063 C3171.28,642.063 3173.17,641.045 3174.65,639.009 C3176.14,636.972 3176.88,634.582 3176.88,631.837 L3176.88,630.973 L3158.75,630.973 C3157.6,630.973 3156.75,630.697 3156.19,630.143 C3155.64,629.59 3155.36,629.026 3155.36,628.45 C3155.36,628.229 3155.88,627.465 3156.92,626.159 C3157.96,624.853 3159.24,623.115 3160.74,620.946 C3162.25,618.777 3163.74,616.309 3165.23,613.542 C3166.71,610.775 3167.97,607.455 3169.01,603.581 C3170.05,599.707 3170.57,595.8 3170.57,591.86 C3170.57,590.709 3171.06,590.134 3172.03,590.134 C3172.16,590.134 3172.63,590.244 3173.43,590.466 C3174.22,590.687 3175.24,590.919 3176.48,591.163 C3177.72,591.406 3178.92,591.528 3180.07,591.528"/>
<path class="FiguredBass" d="M3543.24,638.661 C3543.24,639.369 3543.63,640.055 3544.43,640.719 C3545.23,641.383 3546.1,642.014 3547.05,642.612 C3548.01,643.209 3548.88,644.338 3549.68,645.999 C3550.47,647.659 3550.87,649.751 3550.87,652.274 C3550.87,657.144 3549.03,660.907 3545.36,663.563 C3541.69,666.219 3537.04,667.547 3531.42,667.547 C3526.9,667.547 3522.97,666.418 3519.63,664.161 C3516.29,661.903 3514.61,658.937 3514.61,655.262 C3514.61,653.314 3515.32,651.621 3516.74,650.182 C3518.16,648.743 3519.85,648.024 3521.82,648.024 C3523.79,648.024 3525.46,648.732 3526.83,650.149 C3528.21,651.566 3528.89,653.27 3528.89,655.262 C3528.89,656.148 3528.16,657.111 3526.7,658.151 C3525.24,659.191 3524.51,660.154 3524.51,661.04 C3524.51,662.412 3525.18,663.419 3526.53,664.061 C3527.88,664.703 3529.51,665.024 3531.42,665.024 C3533.89,665.024 3535.65,663.795 3536.69,661.338 C3537.73,658.881 3538.25,655.86 3538.25,652.274 L3538.25,650.547 C3538.25,648.157 3538.18,646.342 3538.02,645.102 C3537.87,643.862 3537.38,642.756 3536.56,641.782 C3535.74,640.808 3534.49,640.321 3532.81,640.321 L3524.11,640.321 C3523.09,640.321 3522.58,639.767 3522.58,638.661 C3522.58,637.642 3523.09,637.133 3524.11,637.133 L3532.81,637.133 C3534.62,637.133 3536.04,636.447 3537.06,635.075 C3537.41,634.588 3537.7,633.791 3537.92,632.684 C3538.14,631.223 3538.25,629.12 3538.25,626.376 L3538.25,625.512 C3538.25,618.916 3535.82,615.618 3530.95,615.618 C3526.66,615.618 3524.51,616.813 3524.51,619.204 C3524.51,620.001 3525.16,620.853 3526.47,621.76 C3527.77,622.668 3528.43,623.52 3528.43,624.317 C3528.43,626.043 3527.82,627.527 3526.6,628.766 C3525.38,630.006 3523.9,630.626 3522.15,630.626 C3520.4,630.626 3518.93,630.006 3517.74,628.766 C3516.54,627.527 3515.94,626.043 3515.94,624.317 C3515.94,620.908 3517.43,618.185 3520.39,616.149 C3523.36,614.112 3526.88,613.094 3530.95,613.094 C3536.31,613.094 3540.71,614.124 3544.17,616.182 C3547.62,618.241 3549.34,621.351 3549.34,625.512 C3549.34,628.478 3549.03,630.78 3548.42,632.418 C3547.8,634.056 3547.09,635.053 3546.29,635.407 C3545.49,635.761 3544.78,636.17 3544.17,636.635 C3543.55,637.1 3543.24,637.775 3543.24,638.661"/>
</svg>
