<?xml version="1.0" encoding="UTF-8" standalone="no"?>
<svg width="4209.44px" height="850.392px" viewBox="0 0 4209.44 850.392"
 xmlns="http://www.w3.org/2000/svg" xmlns:xlink="http://www.w3.org/1999/xlink" version="1.2" baseProfile="tiny">
<title>ExercicesOctave (3)</title>
<desc>Generated by MuseScore 3.6.2</desc>
<polyline class="StaffLines" fill="none" stroke="#000000" stroke-width="4.68" stroke-linejoin="bevel" points="70.866,325.984 4138.58,325.984"/>
<polyline class="StaffLines" fill="none" stroke="#000000" stroke-width="4.68" stroke-linejoin="bevel" points="70.866,368.504 4138.58,368.504"/>
<polyline class="StaffLines" fill="none" stroke="#000000" stroke-width="4.68" stroke-linejoin="bevel" points="70.866,411.024 4138.58,411.024"/>
<polyline class="StaffLines" fill="none" stroke="#000000" stroke-width="4.68" stroke-linejoin="bevel" points="70.866,453.543 4138.58,453.543"/>
<polyline class="StaffLines" fill="none" stroke="#000000" stroke-width="4.68" stroke-linejoin="bevel" points="70.866,496.063 4138.58,496.063"/>
<polyline class="BarLine" fill="none" stroke="#000000" stroke-width="7.65" stroke-linejoin="bevel" points="668.734,323.646 668.734,498.402"/>
<polyline class="BarLine" fill="none" stroke="#000000" stroke-width="7.65" stroke-linejoin="bevel" points="913.868,323.646 913.868,498.402"/>
<polyline class="BarLine" fill="none" stroke="#000000" stroke-width="7.65" stroke-linejoin="bevel" points="1159,323.646 1159,498.402"/>
<polyline class="BarLine" fill="none" stroke="#000000" stroke-width="7.65" stroke-linejoin="bevel" points="1404.14,323.646 1404.14,498.402"/>
<polyline class="BarLine" fill="none" stroke="#000000" stroke-width="7.65" stroke-linejoin="bevel" points="1649.27,323.646 1649.27,498.402"/>
<polyline class="BarLine" fill="none" stroke="#000000" stroke-width="7.65" stroke-linejoin="bevel" points="1894.4,323.646 1894.4,498.402"/>
<polyline class="BarLine" fill="none" stroke="#000000" stroke-width="7.65" stroke-linejoin="bevel" points="2139.54,323.646 2139.54,498.402"/>
<polyline class="BarLine" fill="none" stroke="#000000" stroke-width="7.65" stroke-linejoin="bevel" points="2384.67,323.646 2384.67,498.402"/>
<polyline class="BarLine" fill="none" stroke="#000000" stroke-width="7.65" stroke-linejoin="bevel" points="2629.81,323.646 2629.81,498.402"/>
<polyline class="BarLine" fill="none" stroke="#000000" stroke-width="7.65" stroke-linejoin="bevel" points="2874.94,323.646 2874.94,498.402"/>
<polyline class="BarLine" fill="none" stroke="#000000" stroke-width="7.65" stroke-linejoin="bevel" points="3120.07,323.646 3120.07,498.402"/>
<polyline class="BarLine" fill="none" stroke="#000000" stroke-width="7.65" stroke-linejoin="bevel" points="3365.21,323.646 3365.21,498.402"/>
<polyline class="BarLine" fill="none" stroke="#000000" stroke-width="7.65" stroke-linejoin="bevel" points="3610.34,323.646 3610.34,498.402"/>
<polyline class="BarLine" fill="none" stroke="#000000" stroke-width="7.65" stroke-linejoin="bevel" points="3855.48,323.646 3855.48,498.402"/>
<polyline class="BarLine" fill="none" stroke="#000000" stroke-width="7.65" stroke-linejoin="bevel" points="4097.12,323.646 4097.12,498.402"/>
<polyline class="BarLine" fill="none" stroke="#000000" stroke-width="23.39" stroke-linejoin="bevel" points="4126.89,323.646 4126.89,498.402"/>
<path class="Accidental" transform="matrix(1.70079,0,0,1.70079,1686,474.803)" d="M16.6,-18.3 C16.4,-18.5 16.1,-18.6 15.8,-18.6 C15.7,-18.6 15.5,-18.5 15.4,-18.5 L2.8,-15 L2.8,-32.5 L0,-32.5 L0,17 C0,17.8 0.6,18.3 1.4,18.3 L1.8,18.3 L14.4,14.8 L14.4,32.3 L17.1,32.3 L17.1,-17.2 C17.1,-17.6 16.9,-18.1 16.6,-18.3 M14.4,6.5 L2.8,9.7 L2.8,-6.7 L14.4,-10 L14.4,6.5 "/>
<path class="Accidental" transform="matrix(1.70079,0,0,1.70079,1931.14,453.543)" d="M16.6,-18.3 C16.4,-18.5 16.1,-18.6 15.8,-18.6 C15.7,-18.6 15.5,-18.5 15.4,-18.5 L2.8,-15 L2.8,-32.5 L0,-32.5 L0,17 C0,17.8 0.6,18.3 1.4,18.3 L1.8,18.3 L14.4,14.8 L14.4,32.3 L17.1,32.3 L17.1,-17.2 C17.1,-17.6 16.9,-18.1 16.6,-18.3 M14.4,6.5 L2.8,9.7 L2.8,-6.7 L14.4,-10 L14.4,6.5 "/>
<polyline class="LedgerLine" fill="none" stroke="#000000" stroke-width="6.80" stroke-linejoin="bevel" points="486.19,581.102 579.388,581.102"/>
<polyline class="LedgerLine" fill="none" stroke="#000000" stroke-width="6.80" stroke-linejoin="bevel" points="486.19,538.583 579.388,538.583"/>
<polyline class="LedgerLine" fill="none" stroke="#000000" stroke-width="6.80" stroke-linejoin="bevel" points="727.836,538.583 821.034,538.583"/>
<polyline class="LedgerLine" fill="none" stroke="#000000" stroke-width="6.80" stroke-linejoin="bevel" points="972.97,538.583 1066.17,538.583"/>
<polyline class="LedgerLine" fill="none" stroke="#000000" stroke-width="6.80" stroke-linejoin="bevel" points="3424.31,538.583 3517.51,538.583"/>
<polyline class="LedgerLine" fill="none" stroke="#000000" stroke-width="6.80" stroke-linejoin="bevel" points="3669.44,538.583 3762.64,538.583"/>
<polyline class="LedgerLine" fill="none" stroke="#000000" stroke-width="6.80" stroke-linejoin="bevel" points="3914.58,581.102 4007.78,581.102"/>
<polyline class="LedgerLine" fill="none" stroke="#000000" stroke-width="6.80" stroke-linejoin="bevel" points="3914.58,538.583 4007.78,538.583"/>
<path class="Note" transform="matrix(1.70079,0,0,1.70079,501.072,581.102)" d="M18.7,-13.6 C4.9,-13.6 0,-6.6 0,-0.1 C0,6.4 4.9,13.4 18.7,13.4 C32.5,13.4 37.3,6.4 37.3,-0.1 C37.3,-6.6 32.5,-13.6 18.7,-13.6 M10.4,-4.5 C10.3,-4.9 10.3,-5.3 10.3,-5.7 C10.3,-6.5 10.5,-7.3 10.9,-8 C11.6,-9 12.8,-9.7 14.3,-10 C15.6,-10.3 16.3,-10.5 18.9,-10.5 L19,-10.5 C23,-10.5 24.3,-6.8 25.4,-3 L25.7,-2 C26.5,0.6 26.9,2.8 26.9,4.5 C26.9,5.7 26.7,6.8 26.3,7.6 C25.7,8.7 24.7,9.4 23,9.8 C22.1,10 20.6,10.1 20.6,10.1 C20.1,10.1 19.7,10.2 19.3,10.2 C16.1,10.2 14.1,9 12.7,4.7 C11.5,1 11.3,-0.1 10.4,-4.5"/>
<path class="Note" transform="matrix(1.70079,0,0,1.70079,742.718,559.843)" d="M18.7,-13.6 C4.9,-13.6 0,-6.6 0,-0.1 C0,6.4 4.9,13.4 18.7,13.4 C32.5,13.4 37.3,6.4 37.3,-0.1 C37.3,-6.6 32.5,-13.6 18.7,-13.6 M10.4,-4.5 C10.3,-4.9 10.3,-5.3 10.3,-5.7 C10.3,-6.5 10.5,-7.3 10.9,-8 C11.6,-9 12.8,-9.7 14.3,-10 C15.6,-10.3 16.3,-10.5 18.9,-10.5 L19,-10.5 C23,-10.5 24.3,-6.8 25.4,-3 L25.7,-2 C26.5,0.6 26.9,2.8 26.9,4.5 C26.9,5.7 26.7,6.8 26.3,7.6 C25.7,8.7 24.7,9.4 23,9.8 C22.1,10 20.6,10.1 20.6,10.1 C20.1,10.1 19.7,10.2 19.3,10.2 C16.1,10.2 14.1,9 12.7,4.7 C11.5,1 11.3,-0.1 10.4,-4.5"/>
<path class="Note" transform="matrix(1.70079,0,0,1.70079,987.852,538.583)" d="M18.7,-13.6 C4.9,-13.6 0,-6.6 0,-0.1 C0,6.4 4.9,13.4 18.7,13.4 C32.5,13.4 37.3,6.4 37.3,-0.1 C37.3,-6.6 32.5,-13.6 18.7,-13.6 M10.4,-4.5 C10.3,-4.9 10.3,-5.3 10.3,-5.7 C10.3,-6.5 10.5,-7.3 10.9,-8 C11.6,-9 12.8,-9.7 14.3,-10 C15.6,-10.3 16.3,-10.5 18.9,-10.5 L19,-10.5 C23,-10.5 24.3,-6.8 25.4,-3 L25.7,-2 C26.5,0.6 26.9,2.8 26.9,4.5 C26.9,5.7 26.7,6.8 26.3,7.6 C25.7,8.7 24.7,9.4 23,9.8 C22.1,10 20.6,10.1 20.6,10.1 C20.1,10.1 19.7,10.2 19.3,10.2 C16.1,10.2 14.1,9 12.7,4.7 C11.5,1 11.3,-0.1 10.4,-4.5"/>
<path class="Note" transform="matrix(1.70079,0,0,1.70079,1218.1,517.323)" d="M18.7,-13.6 C4.9,-13.6 0,-6.6 0,-0.1 C0,6.4 4.9,13.4 18.7,13.4 C32.5,13.4 37.3,6.4 37.3,-0.1 C37.3,-6.6 32.5,-13.6 18.7,-13.6 M10.4,-4.5 C10.3,-4.9 10.3,-5.3 10.3,-5.7 C10.3,-6.5 10.5,-7.3 10.9,-8 C11.6,-9 12.8,-9.7 14.3,-10 C15.6,-10.3 16.3,-10.5 18.9,-10.5 L19,-10.5 C23,-10.5 24.3,-6.8 25.4,-3 L25.7,-2 C26.5,0.6 26.9,2.8 26.9,4.5 C26.9,5.7 26.7,6.8 26.3,7.6 C25.7,8.7 24.7,9.4 23,9.8 C22.1,10 20.6,10.1 20.6,10.1 C20.1,10.1 19.7,10.2 19.3,10.2 C16.1,10.2 14.1,9 12.7,4.7 C11.5,1 11.3,-0.1 10.4,-4.5"/>
<path class="Note" transform="matrix(1.70079,0,0,1.70079,1463.24,496.063)" d="M18.7,-13.6 C4.9,-13.6 0,-6.6 0,-0.1 C0,6.4 4.9,13.4 18.7,13.4 C32.5,13.4 37.3,6.4 37.3,-0.1 C37.3,-6.6 32.5,-13.6 18.7,-13.6 M10.4,-4.5 C10.3,-4.9 10.3,-5.3 10.3,-5.7 C10.3,-6.5 10.5,-7.3 10.9,-8 C11.6,-9 12.8,-9.7 14.3,-10 C15.6,-10.3 16.3,-10.5 18.9,-10.5 L19,-10.5 C23,-10.5 24.3,-6.8 25.4,-3 L25.7,-2 C26.5,0.6 26.9,2.8 26.9,4.5 C26.9,5.7 26.7,6.8 26.3,7.6 C25.7,8.7 24.7,9.4 23,9.8 C22.1,10 20.6,10.1 20.6,10.1 C20.1,10.1 19.7,10.2 19.3,10.2 C16.1,10.2 14.1,9 12.7,4.7 C11.5,1 11.3,-0.1 10.4,-4.5"/>
<path class="Note" transform="matrix(1.70079,0,0,1.70079,1725.71,474.803)" d="M18.7,-13.6 C4.9,-13.6 0,-6.6 0,-0.1 C0,6.4 4.9,13.4 18.7,13.4 C32.5,13.4 37.3,6.4 37.3,-0.1 C37.3,-6.6 32.5,-13.6 18.7,-13.6 M10.4,-4.5 C10.3,-4.9 10.3,-5.3 10.3,-5.7 C10.3,-6.5 10.5,-7.3 10.9,-8 C11.6,-9 12.8,-9.7 14.3,-10 C15.6,-10.3 16.3,-10.5 18.9,-10.5 L19,-10.5 C23,-10.5 24.3,-6.8 25.4,-3 L25.7,-2 C26.5,0.6 26.9,2.8 26.9,4.5 C26.9,5.7 26.7,6.8 26.3,7.6 C25.7,8.7 24.7,9.4 23,9.8 C22.1,10 20.6,10.1 20.6,10.1 C20.1,10.1 19.7,10.2 19.3,10.2 C16.1,10.2 14.1,9 12.7,4.7 C11.5,1 11.3,-0.1 10.4,-4.5"/>
<path class="Note" transform="matrix(1.70079,0,0,1.70079,1970.84,453.543)" d="M18.7,-13.6 C4.9,-13.6 0,-6.6 0,-0.1 C0,6.4 4.9,13.4 18.7,13.4 C32.5,13.4 37.3,6.4 37.3,-0.1 C37.3,-6.6 32.5,-13.6 18.7,-13.6 M10.4,-4.5 C10.3,-4.9 10.3,-5.3 10.3,-5.7 C10.3,-6.5 10.5,-7.3 10.9,-8 C11.6,-9 12.8,-9.7 14.3,-10 C15.6,-10.3 16.3,-10.5 18.9,-10.5 L19,-10.5 C23,-10.5 24.3,-6.8 25.4,-3 L25.7,-2 C26.5,0.6 26.9,2.8 26.9,4.5 C26.9,5.7 26.7,6.8 26.3,7.6 C25.7,8.7 24.7,9.4 23,9.8 C22.1,10 20.6,10.1 20.6,10.1 C20.1,10.1 19.7,10.2 19.3,10.2 C16.1,10.2 14.1,9 12.7,4.7 C11.5,1 11.3,-0.1 10.4,-4.5"/>
<path class="Note" transform="matrix(1.70079,0,0,1.70079,2198.64,432.283)" d="M18.7,-13.6 C4.9,-13.6 0,-6.6 0,-0.1 C0,6.4 4.9,13.4 18.7,13.4 C32.5,13.4 37.3,6.4 37.3,-0.1 C37.3,-6.6 32.5,-13.6 18.7,-13.6 M10.4,-4.5 C10.3,-4.9 10.3,-5.3 10.3,-5.7 C10.3,-6.5 10.5,-7.3 10.9,-8 C11.6,-9 12.8,-9.7 14.3,-10 C15.6,-10.3 16.3,-10.5 18.9,-10.5 L19,-10.5 C23,-10.5 24.3,-6.8 25.4,-3 L25.7,-2 C26.5,0.6 26.9,2.8 26.9,4.5 C26.9,5.7 26.7,6.8 26.3,7.6 C25.7,8.7 24.7,9.4 23,9.8 C22.1,10 20.6,10.1 20.6,10.1 C20.1,10.1 19.7,10.2 19.3,10.2 C16.1,10.2 14.1,9 12.7,4.7 C11.5,1 11.3,-0.1 10.4,-4.5"/>
<path class="Note" transform="matrix(1.70079,0,0,1.70079,2443.77,453.543)" d="M18.7,-13.6 C4.9,-13.6 0,-6.6 0,-0.1 C0,6.4 4.9,13.4 18.7,13.4 C32.5,13.4 37.3,6.4 37.3,-0.1 C37.3,-6.6 32.5,-13.6 18.7,-13.6 M10.4,-4.5 C10.3,-4.9 10.3,-5.3 10.3,-5.7 C10.3,-6.5 10.5,-7.3 10.9,-8 C11.6,-9 12.8,-9.7 14.3,-10 C15.6,-10.3 16.3,-10.5 18.9,-10.5 L19,-10.5 C23,-10.5 24.3,-6.8 25.4,-3 L25.7,-2 C26.5,0.6 26.9,2.8 26.9,4.5 C26.9,5.7 26.7,6.8 26.3,7.6 C25.7,8.7 24.7,9.4 23,9.8 C22.1,10 20.6,10.1 20.6,10.1 C20.1,10.1 19.7,10.2 19.3,10.2 C16.1,10.2 14.1,9 12.7,4.7 C11.5,1 11.3,-0.1 10.4,-4.5"/>
<path class="Note" transform="matrix(1.70079,0,0,1.70079,2688.91,474.803)" d="M18.7,-13.6 C4.9,-13.6 0,-6.6 0,-0.1 C0,6.4 4.9,13.4 18.7,13.4 C32.5,13.4 37.3,6.4 37.3,-0.1 C37.3,-6.6 32.5,-13.6 18.7,-13.6 M10.4,-4.5 C10.3,-4.9 10.3,-5.3 10.3,-5.7 C10.3,-6.5 10.5,-7.3 10.9,-8 C11.6,-9 12.8,-9.7 14.3,-10 C15.6,-10.3 16.3,-10.5 18.9,-10.5 L19,-10.5 C23,-10.5 24.3,-6.8 25.4,-3 L25.7,-2 C26.5,0.6 26.9,2.8 26.9,4.5 C26.9,5.7 26.7,6.8 26.3,7.6 C25.7,8.7 24.7,9.4 23,9.8 C22.1,10 20.6,10.1 20.6,10.1 C20.1,10.1 19.7,10.2 19.3,10.2 C16.1,10.2 14.1,9 12.7,4.7 C11.5,1 11.3,-0.1 10.4,-4.5"/>
<path class="Note" transform="matrix(1.70079,0,0,1.70079,2934.04,496.063)" d="M18.7,-13.6 C4.9,-13.6 0,-6.6 0,-0.1 C0,6.4 4.9,13.4 18.7,13.4 C32.5,13.4 37.3,6.4 37.3,-0.1 C37.3,-6.6 32.5,-13.6 18.7,-13.6 M10.4,-4.5 C10.3,-4.9 10.3,-5.3 10.3,-5.7 C10.3,-6.5 10.5,-7.3 10.9,-8 C11.6,-9 12.8,-9.7 14.3,-10 C15.6,-10.3 16.3,-10.5 18.9,-10.5 L19,-10.5 C23,-10.5 24.3,-6.8 25.4,-3 L25.7,-2 C26.5,0.6 26.9,2.8 26.9,4.5 C26.9,5.7 26.7,6.8 26.3,7.6 C25.7,8.7 24.7,9.4 23,9.8 C22.1,10 20.6,10.1 20.6,10.1 C20.1,10.1 19.7,10.2 19.3,10.2 C16.1,10.2 14.1,9 12.7,4.7 C11.5,1 11.3,-0.1 10.4,-4.5"/>
<path class="Note" transform="matrix(1.70079,0,0,1.70079,3179.18,517.323)" d="M18.7,-13.6 C4.9,-13.6 0,-6.6 0,-0.1 C0,6.4 4.9,13.4 18.7,13.4 C32.5,13.4 37.3,6.4 37.3,-0.1 C37.3,-6.6 32.5,-13.6 18.7,-13.6 M10.4,-4.5 C10.3,-4.9 10.3,-5.3 10.3,-5.7 C10.3,-6.5 10.5,-7.3 10.9,-8 C11.6,-9 12.8,-9.7 14.3,-10 C15.6,-10.3 16.3,-10.5 18.9,-10.5 L19,-10.5 C23,-10.5 24.3,-6.8 25.4,-3 L25.7,-2 C26.5,0.6 26.9,2.8 26.9,4.5 C26.9,5.7 26.7,6.8 26.3,7.6 C25.7,8.7 24.7,9.4 23,9.8 C22.1,10 20.6,10.1 20.6,10.1 C20.1,10.1 19.7,10.2 19.3,10.2 C16.1,10.2 14.1,9 12.7,4.7 C11.5,1 11.3,-0.1 10.4,-4.5"/>
<path class="Note" transform="matrix(1.70079,0,0,1.70079,3439.19,538.583)" d="M18.7,-13.6 C4.9,-13.6 0,-6.6 0,-0.1 C0,6.4 4.9,13.4 18.7,13.4 C32.5,13.4 37.3,6.4 37.3,-0.1 C37.3,-6.6 32.5,-13.6 18.7,-13.6 M10.4,-4.5 C10.3,-4.9 10.3,-5.3 10.3,-5.7 C10.3,-6.5 10.5,-7.3 10.9,-8 C11.6,-9 12.8,-9.7 14.3,-10 C15.6,-10.3 16.3,-10.5 18.9,-10.5 L19,-10.5 C23,-10.5 24.3,-6.8 25.4,-3 L25.7,-2 C26.5,0.6 26.9,2.8 26.9,4.5 C26.9,5.7 26.7,6.8 26.3,7.6 C25.7,8.7 24.7,9.4 23,9.8 C22.1,10 20.6,10.1 20.6,10.1 C20.1,10.1 19.7,10.2 19.3,10.2 C16.1,10.2 14.1,9 12.7,4.7 C11.5,1 11.3,-0.1 10.4,-4.5"/>
<path class="Note" transform="matrix(1.70079,0,0,1.70079,3684.33,559.843)" d="M18.7,-13.6 C4.9,-13.6 0,-6.6 0,-0.1 C0,6.4 4.9,13.4 18.7,13.4 C32.5,13.4 37.3,6.4 37.3,-0.1 C37.3,-6.6 32.5,-13.6 18.7,-13.6 M10.4,-4.5 C10.3,-4.9 10.3,-5.3 10.3,-5.7 C10.3,-6.5 10.5,-7.3 10.9,-8 C11.6,-9 12.8,-9.7 14.3,-10 C15.6,-10.3 16.3,-10.5 18.9,-10.5 L19,-10.5 C23,-10.5 24.3,-6.8 25.4,-3 L25.7,-2 C26.5,0.6 26.9,2.8 26.9,4.5 C26.9,5.7 26.7,6.8 26.3,7.6 C25.7,8.7 24.7,9.4 23,9.8 C22.1,10 20.6,10.1 20.6,10.1 C20.1,10.1 19.7,10.2 19.3,10.2 C16.1,10.2 14.1,9 12.7,4.7 C11.5,1 11.3,-0.1 10.4,-4.5"/>
<path class="Note" transform="matrix(1.70079,0,0,1.70079,3929.46,581.102)" d="M18.7,-13.6 C4.9,-13.6 0,-6.6 0,-0.1 C0,6.4 4.9,13.4 18.7,13.4 C32.5,13.4 37.3,6.4 37.3,-0.1 C37.3,-6.6 32.5,-13.6 18.7,-13.6 M10.4,-4.5 C10.3,-4.9 10.3,-5.3 10.3,-5.7 C10.3,-6.5 10.5,-7.3 10.9,-8 C11.6,-9 12.8,-9.7 14.3,-10 C15.6,-10.3 16.3,-10.5 18.9,-10.5 L19,-10.5 C23,-10.5 24.3,-6.8 25.4,-3 L25.7,-2 C26.5,0.6 26.9,2.8 26.9,4.5 C26.9,5.7 26.7,6.8 26.3,7.6 C25.7,8.7 24.7,9.4 23,9.8 C22.1,10 20.6,10.1 20.6,10.1 C20.1,10.1 19.7,10.2 19.3,10.2 C16.1,10.2 14.1,9 12.7,4.7 C11.5,1 11.3,-0.1 10.4,-4.5"/>
<path class="Clef" transform="matrix(1.70079,0,0,1.70079,104.882,368.504)" d="M25.4,-25.1 C17.8,-25.1 11.7,-20.7 11.6,-20.7 C5.8,-16.4 3.5,-11.3 2.6,-7.8 C2.1,-6 1.9,-4.2 1.9,-2.5 C1.9,-0.1 2.3,2.1 3.2,4 C4.4,6.7 6.7,8.6 9.7,9.6 C10.9,10 12.2,10.2 13.5,10.2 C15.7,10.2 18,9.6 19.9,8.5 C23,6.8 24.9,3.2 24.9,-0.7 C24.9,-4.2 23.1,-7.4 20.1,-9.3 C18,-10.7 16,-11.1 14.3,-11.1 C13.1,-11.1 12,-10.9 11.1,-10.6 C10.1,-10.2 8.4,-9.2 7.6,-8.5 C7.9,-10.4 9.1,-13.3 10.2,-14.9 C11.3,-16.5 13.5,-18.5 15.2,-19.4 C17.7,-20.8 20.9,-21.4 24.4,-21.4 C34.6,-21.4 39.6,-13.2 39.6,3.6 C39.6,12.9 36.1,21.8 33.1,27.7 C29.8,34.3 25.4,40.6 21.5,44.1 C11.1,53.6 1.3,58.1 1.2,58.1 C1.2,58.1 -0.3,59 0.1,60.5 C0.4,61.5 1.3,61.7 1.9,61.7 C2,61.7 2.3,61.6 2.4,61.6 C2.5,61.6 13.9,56.9 23,49.8 C28.1,46.1 32.7,42.1 36.7,37.8 C40.3,33.9 43.4,29.7 45.9,25.5 C50.3,18 52.8,10.2 52.8,3.5 C52.8,-4.8 50.6,-11.7 46.5,-16.6 C41.8,-22.2 34.7,-25.1 25.4,-25.1 M56.8,-12.4 C56.8,-9.6 59,-7.4 61.6,-7.4 C64.2,-7.4 66.4,-9.6 66.4,-12.4 C66.4,-15.2 64.2,-17.5 61.6,-17.5 C59,-17.5 56.8,-15.2 56.8,-12.4 M56.8,12.3 C56.8,15.1 59,17.4 61.6,17.4 C64.2,17.4 66.4,15.1 66.4,12.3 C66.4,9.5 64.2,7.2 61.6,7.2 C59,7.2 56.8,9.5 56.8,12.3"/>
<path class="KeySig" transform="matrix(1.70079,0,0,1.70079,345.37,474.803)" d="M20.1,-7.9 C19.5,-11.8 17.1,-15.5 12,-15.5 C7,-15.5 4.1,-12.4 3.6,-11.8 L4,-43.9 C4,-44.7 3.4,-45.3 2.6,-45.3 L1.4,-45.3 C0.6,-45.3 0,-44.7 0,-43.9 L0.5,16.2 C0.5,17 1.1,17.6 1.9,17.6 C2.1,17.6 2.5,17.5 2.7,17.4 C3.1,17.2 9.6,14 15,7.9 C18.8,3.6 20.3,-1.3 20.3,-5.4 C20.3,-6.3 20.2,-7.1 20.1,-7.9 M13.2,-4 C13.2,-2.5 12.8,2.1 10.3,5.9 C8.6,8.5 5.2,11.2 3.3,12.7 L3.6,-6.8 C3.8,-7.7 5.3,-10.6 9.3,-10.6 C12.9,-10.6 13.2,-7.2 13.2,-5.1 L13.2,-4 "/>
<path class="KeySig" transform="matrix(1.70079,0,0,1.70079,302.851,389.764)" d="M20.1,-7.9 C19.5,-11.8 17.1,-15.5 12,-15.5 C7,-15.5 4.1,-12.4 3.6,-11.8 L4,-43.9 C4,-44.7 3.4,-45.3 2.6,-45.3 L1.4,-45.3 C0.6,-45.3 0,-44.7 0,-43.9 L0.5,16.2 C0.5,17 1.1,17.6 1.9,17.6 C2.1,17.6 2.5,17.5 2.7,17.4 C3.1,17.2 9.6,14 15,7.9 C18.8,3.6 20.3,-1.3 20.3,-5.4 C20.3,-6.3 20.2,-7.1 20.1,-7.9 M13.2,-4 C13.2,-2.5 12.8,2.1 10.3,5.9 C8.6,8.5 5.2,11.2 3.3,12.7 L3.6,-6.8 C3.8,-7.7 5.3,-10.6 9.3,-10.6 C12.9,-10.6 13.2,-7.2 13.2,-5.1 L13.2,-4 "/>
<path class="KeySig" transform="matrix(1.70079,0,0,1.70079,260.331,453.543)" d="M20.1,-7.9 C19.5,-11.8 17.1,-15.5 12,-15.5 C7,-15.5 4.1,-12.4 3.6,-11.8 L4,-43.9 C4,-44.7 3.4,-45.3 2.6,-45.3 L1.4,-45.3 C0.6,-45.3 0,-44.7 0,-43.9 L0.5,16.2 C0.5,17 1.1,17.6 1.9,17.6 C2.1,17.6 2.5,17.5 2.7,17.4 C3.1,17.2 9.6,14 15,7.9 C18.8,3.6 20.3,-1.3 20.3,-5.4 C20.3,-6.3 20.2,-7.1 20.1,-7.9 M13.2,-4 C13.2,-2.5 12.8,2.1 10.3,5.9 C8.6,8.5 5.2,11.2 3.3,12.7 L3.6,-6.8 C3.8,-7.7 5.3,-10.6 9.3,-10.6 C12.9,-10.6 13.2,-7.2 13.2,-5.1 L13.2,-4 "/>
<path class="FiguredBass" d="M738.185,654.465 C737.698,654.997 737.056,655.262 736.259,655.262 C735.463,655.262 734.81,654.986 734.3,654.432 C733.791,653.879 733.537,653.248 733.537,652.54 L733.537,643.043 L724.041,643.043 C723.244,643.043 722.591,642.767 722.082,642.213 C721.573,641.66 721.318,641.029 721.318,640.321 C721.318,639.612 721.573,638.982 722.082,638.428 C722.591,637.875 723.244,637.598 724.041,637.598 L733.537,637.598 L733.537,628.102 C733.537,627.394 733.791,626.763 734.3,626.209 C734.81,625.656 735.463,625.379 736.259,625.379 C737.056,625.379 737.709,625.656 738.218,626.209 C738.728,626.763 738.982,627.394 738.982,628.102 L738.982,637.598 L748.478,637.598 C749.275,637.598 749.928,637.875 750.437,638.428 C750.946,638.982 751.201,639.612 751.201,640.321 C751.201,641.029 750.946,641.66 750.437,642.213 C749.928,642.767 749.275,643.043 748.478,643.043 L738.982,643.043 L738.982,652.54 C738.982,653.248 738.716,653.89 738.185,654.465 M776.427,615.618 C773.151,615.618 770.971,616.935 769.886,619.569 C768.802,622.203 768.259,625.933 768.259,630.758 L768.259,638.594 C770.562,637.665 772.554,637.178 774.236,637.133 C779.991,637.133 784.518,638.406 787.816,640.952 C791.114,643.497 792.763,647.282 792.763,652.307 C792.763,657.332 791.092,661.128 787.75,663.696 C784.407,666.264 779.903,667.547 774.236,667.547 C768.437,667.547 763.899,664.858 760.623,659.479 C757.347,654.1 755.709,647.714 755.709,640.321 C755.709,632.972 757.612,626.597 761.42,621.196 C765.227,615.795 770.23,613.094 776.427,613.094 C780.5,613.094 784.02,614.124 786.986,616.182 C789.952,618.241 791.435,620.952 791.435,624.317 C791.435,626.265 790.727,627.947 789.31,629.364 C787.894,630.78 786.2,631.489 784.23,631.489 C782.26,631.489 780.567,630.78 779.15,629.364 C777.733,627.947 777.025,626.265 777.025,624.317 C777.025,622.413 777.733,620.731 779.15,619.27 C779.637,618.695 780.323,618.208 781.209,617.809 C780.987,617.234 780.545,616.791 779.881,616.481 C778.907,615.905 777.756,615.618 776.427,615.618 M779.681,642.778 C778.884,640.697 777.136,639.657 774.435,639.657 C771.735,639.657 770.063,640.697 769.422,642.778 C768.78,644.859 768.459,648.024 768.459,652.274 C768.459,657.277 768.78,660.641 769.422,662.368 C770.063,664.094 771.735,664.958 774.435,664.958 C777.136,664.958 778.884,663.917 779.681,661.836 C780.478,659.756 780.877,656.579 780.877,652.307 C780.877,648.035 780.478,644.859 779.681,642.778"/>
<path class="FiguredBass" d="M1021.56,594.358 C1018.29,594.358 1016.1,595.675 1015.02,598.309 C1013.94,600.943 1013.39,604.673 1013.39,609.498 L1013.39,617.334 C1015.7,616.405 1017.69,615.918 1019.37,615.873 C1025.13,615.873 1029.65,617.146 1032.95,619.692 C1036.25,622.237 1037.9,626.023 1037.9,631.047 C1037.9,636.072 1036.23,639.868 1032.88,642.436 C1029.54,645.004 1025.04,646.288 1019.37,646.288 C1013.57,646.288 1009.03,643.598 1005.76,638.219 C1002.48,632.84 1000.84,626.454 1000.84,619.061 C1000.84,611.712 1002.75,605.337 1006.55,599.936 C1010.36,594.535 1015.36,591.834 1021.56,591.834 C1025.63,591.834 1029.15,592.864 1032.12,594.922 C1035.09,596.981 1036.57,599.692 1036.57,603.057 C1036.57,605.005 1035.86,606.687 1034.44,608.104 C1033.03,609.521 1031.33,610.229 1029.36,610.229 C1027.39,610.229 1025.7,609.521 1024.28,608.104 C1022.87,606.687 1022.16,605.005 1022.16,603.057 C1022.16,601.153 1022.87,599.471 1024.28,598.01 C1024.77,597.435 1025.46,596.948 1026.34,596.549 C1026.12,595.974 1025.68,595.531 1025.01,595.221 C1024.04,594.646 1022.89,594.358 1021.56,594.358 M1024.82,621.518 C1024.02,619.437 1022.27,618.397 1019.57,618.397 C1016.87,618.397 1015.2,619.437 1014.56,621.518 C1013.91,623.599 1013.59,626.764 1013.59,631.014 C1013.59,636.017 1013.91,639.381 1014.56,641.108 C1015.2,642.834 1016.87,643.698 1019.57,643.698 C1022.27,643.698 1024.02,642.657 1024.82,640.577 C1025.61,638.496 1026.01,635.319 1026.01,631.047 C1026.01,626.775 1025.61,623.599 1024.82,621.518"/>
<path class="FiguredBass" d="M1251.81,592.657 C1248.54,592.657 1246.36,593.974 1245.27,596.608 C1244.19,599.242 1243.65,602.972 1243.65,607.798 L1243.65,615.634 C1245.95,614.704 1247.94,614.217 1249.62,614.173 C1255.38,614.173 1259.9,615.445 1263.2,617.991 C1266.5,620.537 1268.15,624.322 1268.15,629.347 C1268.15,634.371 1266.48,638.167 1263.14,640.735 C1259.79,643.303 1255.29,644.587 1249.62,644.587 C1243.82,644.587 1239.28,641.897 1236.01,636.518 C1232.73,631.139 1231.09,624.753 1231.09,617.36 C1231.09,610.011 1233,603.636 1236.81,598.235 C1240.61,592.834 1245.62,590.134 1251.81,590.134 C1255.89,590.134 1259.41,591.163 1262.37,593.222 C1265.34,595.28 1266.82,597.992 1266.82,601.356 C1266.82,603.304 1266.11,604.986 1264.7,606.403 C1263.28,607.82 1261.59,608.528 1259.62,608.528 C1257.65,608.528 1255.95,607.82 1254.54,606.403 C1253.12,604.986 1252.41,603.304 1252.41,601.356 C1252.41,599.453 1253.12,597.77 1254.54,596.309 C1255.02,595.734 1255.71,595.247 1256.59,594.848 C1256.37,594.273 1255.93,593.83 1255.27,593.52 C1254.29,592.945 1253.14,592.657 1251.81,592.657 M1255.07,619.817 C1254.27,617.736 1252.52,616.696 1249.82,616.696 C1247.12,616.696 1245.45,617.736 1244.81,619.817 C1244.17,621.898 1243.84,625.063 1243.84,629.313 C1243.84,634.316 1244.17,637.681 1244.81,639.407 C1245.45,641.134 1247.12,641.997 1249.82,641.997 C1252.52,641.997 1254.27,640.957 1255.07,638.876 C1255.86,636.795 1256.26,633.619 1256.26,629.347 C1256.26,625.074 1255.86,621.898 1255.07,619.817"/>
<path class="FiguredBass" d="M1235.61,665.837 C1235.61,665.837 1236.67,665.992 1238.8,666.302 C1239.73,666.434 1240.77,666.567 1241.92,666.7 C1244.97,667.054 1247.92,667.231 1250.75,667.231 C1253.58,667.231 1256.57,667.054 1259.72,666.7 C1260.96,666.567 1262.04,666.434 1262.97,666.302 L1266.22,665.837 C1266.89,665.837 1267.39,666.058 1267.72,666.501 C1268.05,666.944 1268.02,667.298 1267.62,667.563 C1260.84,674.337 1251.3,677.723 1239,677.723 C1238.51,677.723 1238.08,677.901 1237.7,678.255 C1237.33,678.609 1237.14,679.052 1237.14,679.583 L1237.14,690.009 C1240.28,686.91 1244.09,685.36 1248.56,685.36 C1255.02,685.36 1260.01,686.81 1263.53,689.71 C1267.05,692.61 1268.81,697.003 1268.81,702.891 C1268.81,707.894 1266.82,712.044 1262.84,715.343 C1258.85,718.641 1254.09,720.29 1248.56,720.29 C1243.78,720.29 1239.63,719.205 1236.11,717.036 C1232.59,714.867 1230.83,711.856 1230.83,708.005 C1230.83,706.057 1231.54,704.363 1232.95,702.925 C1234.37,701.486 1236.06,700.766 1238.03,700.766 C1240,700.766 1241.68,701.475 1243.05,702.891 C1244.42,704.308 1245.11,706.013 1245.11,708.005 C1245.11,708.89 1244.38,709.853 1242.91,710.893 C1241.45,711.934 1240.72,712.897 1240.72,713.782 C1240.72,716.438 1243.34,717.766 1248.56,717.766 C1253.65,717.766 1256.2,712.808 1256.2,702.891 C1256.2,693.329 1253.65,688.526 1248.56,688.481 C1244,688.481 1240.81,689.411 1239,691.27 C1237.18,693.13 1236.05,694.059 1235.61,694.059 C1234.5,694.059 1233.97,693.506 1234.02,692.399 L1234.02,667.563 C1234.02,667.076 1234.17,666.667 1234.48,666.335 C1234.79,666.003 1235.17,665.837 1235.61,665.837"/>
<path class="FiguredBass" d="M1485.06,586.88 C1486.08,586.393 1487.03,586.149 1487.92,586.149 C1488.71,586.149 1489.62,586.393 1490.64,586.88 L1490.31,601.223 L1501.8,599.032 L1502.13,599.032 C1503.46,599.032 1504.12,599.652 1504.12,600.891 L1504.85,647.841 C1503.83,648.328 1502.92,648.571 1502.13,648.571 C1501.33,648.571 1500.42,648.328 1499.4,647.841 L1499.74,633.497 L1488.18,635.688 L1487.92,635.688 C1486.63,635.688 1485.97,635.069 1485.92,633.829 L1485.06,586.88 M1499.87,622.938 L1500.2,609.923 L1490.17,611.782 L1489.84,624.798 L1499.87,622.938 "/>
<path class="FiguredBass" d="M1759.41,592.657 C1756.14,592.657 1753.96,593.974 1752.87,596.608 C1751.79,599.242 1751.25,602.972 1751.25,607.798 L1751.25,615.634 C1753.55,614.704 1755.54,614.217 1757.22,614.173 C1762.98,614.173 1767.51,615.445 1770.8,617.991 C1774.1,620.537 1775.75,624.322 1775.75,629.347 C1775.75,634.371 1774.08,638.167 1770.74,640.735 C1767.39,643.303 1762.89,644.587 1757.22,644.587 C1751.42,644.587 1746.89,641.897 1743.61,636.518 C1740.33,631.139 1738.7,624.753 1738.7,617.36 C1738.7,610.011 1740.6,603.636 1744.41,598.235 C1748.21,592.834 1753.22,590.134 1759.41,590.134 C1763.49,590.134 1767.01,591.163 1769.97,593.222 C1772.94,595.28 1774.42,597.992 1774.42,601.356 C1774.42,603.304 1773.71,604.986 1772.3,606.403 C1770.88,607.82 1769.19,608.528 1767.22,608.528 C1765.25,608.528 1763.55,607.82 1762.14,606.403 C1760.72,604.986 1760.01,603.304 1760.01,601.356 C1760.01,599.453 1760.72,597.77 1762.14,596.309 C1762.62,595.734 1763.31,595.247 1764.2,594.848 C1763.97,594.273 1763.53,593.83 1762.87,593.52 C1761.89,592.945 1760.74,592.657 1759.41,592.657 M1762.67,619.817 C1761.87,617.736 1760.12,616.696 1757.42,616.696 C1754.72,616.696 1753.05,617.736 1752.41,619.817 C1751.77,621.898 1751.45,625.063 1751.45,629.313 C1751.45,634.316 1751.77,637.681 1752.41,639.407 C1753.05,641.134 1754.72,641.997 1757.42,641.997 C1760.12,641.997 1761.87,640.957 1762.67,638.876 C1763.47,636.795 1763.86,633.619 1763.86,629.347 C1763.86,625.074 1763.47,621.898 1762.67,619.817"/>
<path class="FiguredBass" d="M2004.55,592.657 C2001.27,592.657 1999.09,593.974 1998.01,596.608 C1996.92,599.242 1996.38,602.972 1996.38,607.798 L1996.38,615.634 C1998.68,614.704 2000.67,614.217 2002.36,614.173 C2008.11,614.173 2012.64,615.445 2015.94,617.991 C2019.24,620.537 2020.88,624.322 2020.88,629.347 C2020.88,634.371 2019.21,638.167 2015.87,640.735 C2012.53,643.303 2008.02,644.587 2002.36,644.587 C1996.56,644.587 1992.02,641.897 1988.74,636.518 C1985.47,631.139 1983.83,624.753 1983.83,617.36 C1983.83,610.011 1985.73,603.636 1989.54,598.235 C1993.35,592.834 1998.35,590.134 2004.55,590.134 C2008.62,590.134 2012.14,591.163 2015.11,593.222 C2018.07,595.28 2019.56,597.992 2019.56,601.356 C2019.56,603.304 2018.85,604.986 2017.43,606.403 C2016.01,607.82 2014.32,608.528 2012.35,608.528 C2010.38,608.528 2008.69,607.82 2007.27,606.403 C2005.85,604.986 2005.15,603.304 2005.15,601.356 C2005.15,599.453 2005.85,597.77 2007.27,596.309 C2007.76,595.734 2008.44,595.247 2009.33,594.848 C2009.11,594.273 2008.67,593.83 2008,593.52 C2007.03,592.945 2005.88,592.657 2004.55,592.657 M2007.8,619.817 C2007.01,617.736 2005.26,616.696 2002.56,616.696 C1999.86,616.696 1998.18,617.736 1997.54,619.817 C1996.9,621.898 1996.58,625.063 1996.58,629.313 C1996.58,634.316 1996.9,637.681 1997.54,639.407 C1998.18,641.134 1999.86,641.997 2002.56,641.997 C2005.26,641.997 2007.01,640.957 2007.8,638.876 C2008.6,636.795 2009,633.619 2009,629.347 C2009,625.074 2008.6,621.898 2007.8,619.817"/>
<path class="FiguredBass" d="M1988.35,665.837 L1991.53,666.302 C1992.37,666.434 1993.41,666.567 1994.65,666.7 C1997.71,667.054 2000.65,667.231 2003.49,667.231 C2006.32,667.231 2009.31,667.054 2012.45,666.7 C2013.69,666.567 2014.78,666.434 2015.7,666.302 L2018.96,665.837 C2019.62,665.837 2020.13,666.058 2020.49,666.501 C2020.75,666.855 2020.71,667.209 2020.35,667.563 C2013.45,674.337 2003.91,677.723 1991.73,677.723 C1991.25,677.723 1990.81,677.901 1990.44,678.255 C1990.06,678.609 1989.87,679.052 1989.87,679.583 L1989.87,688.016 C1993.02,684.917 1996.82,683.368 2001.29,683.368 C2007.54,683.368 2012.41,684.829 2015.9,687.751 C2019.71,684.873 2021.7,681.199 2021.88,676.727 C2021.92,675.311 2022.39,674.16 2023.28,673.274 C2024.25,672.389 2025.42,671.946 2026.79,671.946 C2028.17,671.946 2029.33,672.411 2030.28,673.341 C2031.23,674.27 2031.71,675.399 2031.71,676.727 C2031.71,683.589 2027.66,688.791 2019.56,692.333 C2020.88,694.945 2021.55,698.132 2021.55,701.895 C2021.55,706.898 2019.56,711.214 2015.57,714.845 C2011.59,718.475 2006.83,720.29 2001.29,720.29 C1996.51,720.29 1992.36,719.205 1988.84,717.036 C1985.32,714.867 1983.56,711.856 1983.56,708.005 C1983.56,706.057 1984.27,704.363 1985.69,702.925 C1987.11,701.486 1988.8,700.766 1990.77,700.766 C1992.74,700.766 1994.41,701.475 1995.78,702.891 C1997.16,704.308 1997.84,706.013 1997.84,708.005 C1997.84,708.89 1997.11,709.853 1995.65,710.893 C1994.19,711.934 1993.46,712.897 1993.46,713.782 C1993.46,716.438 1996.07,717.766 2001.29,717.766 C2006.39,717.766 2008.93,712.476 2008.93,701.895 C2008.93,699.549 2008.8,697.49 2008.53,695.72 C2003.18,696.826 1996.47,697.69 1988.41,698.309 C1987.31,698.398 1986.75,697.845 1986.75,696.649 C1986.75,695.675 1987.31,695.144 1988.41,695.056 C1996.56,694.391 2002.98,693.329 2007.67,691.868 C2006.43,688.326 2004.31,686.533 2001.29,686.489 C1996.73,686.489 1993.55,687.419 1991.73,689.278 C1989.92,691.138 1988.79,692.067 1988.35,692.067 C1987.28,692.067 1986.75,691.514 1986.75,690.407 L1986.75,667.563 C1986.75,667.121 1986.91,666.722 1987.22,666.368 C1987.57,666.014 1987.95,665.837 1988.35,665.837"/>
<path class="FiguredBass" d="M2477.48,592.657 C2474.21,592.657 2472.03,593.974 2470.94,596.608 C2469.86,599.242 2469.32,602.972 2469.32,607.798 L2469.32,615.634 C2471.62,614.704 2473.61,614.217 2475.29,614.173 C2481.05,614.173 2485.57,615.445 2488.87,617.991 C2492.17,620.537 2493.82,624.322 2493.82,629.347 C2493.82,634.371 2492.15,638.167 2488.81,640.735 C2485.46,643.303 2480.96,644.587 2475.29,644.587 C2469.49,644.587 2464.95,641.897 2461.68,636.518 C2458.4,631.139 2456.76,624.753 2456.76,617.36 C2456.76,610.011 2458.67,603.636 2462.48,598.235 C2466.28,592.834 2471.29,590.134 2477.48,590.134 C2481.56,590.134 2485.08,591.163 2488.04,593.222 C2491.01,595.28 2492.49,597.992 2492.49,601.356 C2492.49,603.304 2491.78,604.986 2490.37,606.403 C2488.95,607.82 2487.26,608.528 2485.29,608.528 C2483.32,608.528 2481.62,607.82 2480.21,606.403 C2478.79,604.986 2478.08,603.304 2478.08,601.356 C2478.08,599.453 2478.79,597.77 2480.21,596.309 C2480.69,595.734 2481.38,595.247 2482.26,594.848 C2482.04,594.273 2481.6,593.83 2480.94,593.52 C2479.96,592.945 2478.81,592.657 2477.48,592.657 M2480.74,619.817 C2479.94,617.736 2478.19,616.696 2475.49,616.696 C2472.79,616.696 2471.12,617.736 2470.48,619.817 C2469.84,621.898 2469.51,625.063 2469.51,629.313 C2469.51,634.316 2469.84,637.681 2470.48,639.407 C2471.12,641.134 2472.79,641.997 2475.49,641.997 C2478.19,641.997 2479.94,640.957 2480.74,638.876 C2481.53,636.795 2481.93,633.619 2481.93,629.347 C2481.93,625.074 2481.53,621.898 2480.74,619.817"/>
<path class="FiguredBass" d="M2744,625.528 L2744,613.376 C2744,612.667 2744.25,612.037 2744.76,611.483 C2745.27,610.93 2745.93,610.653 2746.72,610.653 C2747.52,610.653 2748.17,610.93 2748.68,611.483 C2749.19,612.037 2749.45,612.667 2749.45,613.376 L2749.45,625.528 L2758.94,625.528 C2759.74,625.528 2760.39,625.805 2760.9,626.358 C2761.41,626.912 2761.66,627.542 2761.66,628.251 C2761.66,628.959 2761.41,629.59 2760.9,630.143 C2760.39,630.697 2759.74,630.973 2758.94,630.973 L2749.45,630.973 L2749.45,643.126 C2749.45,643.834 2749.19,644.465 2748.68,645.018 C2748.17,645.572 2747.52,645.848 2746.72,645.848 C2745.93,645.848 2745.27,645.572 2744.76,645.018 C2744.25,644.465 2744,643.834 2744,643.126 L2744,630.973 L2731.71,630.973 L2731.71,631.837 C2731.71,634.582 2732.45,636.972 2733.91,639.009 C2735.37,641.045 2737.25,642.063 2739.55,642.063 C2740.44,642.063 2740.88,642.462 2740.88,643.259 C2740.88,644.144 2740.44,644.587 2739.55,644.587 C2737.96,644.587 2735.59,644.354 2732.45,643.889 C2729.3,643.425 2726.92,643.192 2725.31,643.192 C2723.69,643.192 2721.31,643.425 2718.17,643.889 C2715.02,644.354 2712.66,644.587 2711.06,644.587 C2710.18,644.587 2709.73,644.144 2709.73,643.259 C2709.73,642.462 2710.18,642.063 2711.06,642.063 C2713.36,642.063 2715.26,641.045 2716.74,639.009 C2718.22,636.972 2718.96,634.582 2718.96,631.837 L2718.96,630.973 L2700.84,630.973 C2699.68,630.973 2698.83,630.697 2698.28,630.143 C2697.73,629.59 2697.45,629.026 2697.45,628.45 C2697.45,628.229 2697.97,627.465 2699.01,626.159 C2700.05,624.853 2701.32,623.115 2702.83,620.946 C2704.33,618.777 2705.83,616.309 2707.31,613.542 C2708.79,610.775 2710.06,607.455 2711.1,603.581 C2712.14,599.707 2712.66,595.8 2712.66,591.86 C2712.66,590.709 2713.14,590.134 2714.12,590.134 C2714.25,590.134 2714.71,590.244 2715.51,590.466 C2716.31,590.687 2717.33,590.919 2718.57,591.163 C2719.81,591.406 2721,591.528 2722.15,591.528 C2723.88,591.528 2725.65,591.285 2727.46,590.798 L2730.45,590.001 C2731.03,590.001 2731.49,590.222 2731.85,590.665 C2732.11,591.063 2732.07,591.462 2731.71,591.86 L2702.76,625.528 L2718.96,625.528 L2718.96,613.575 C2718.96,612.557 2719.24,611.771 2719.79,611.218 C2720.35,610.664 2721.1,610.199 2722.05,609.823 C2723,609.447 2724.1,608.484 2725.34,606.934 C2726.49,605.473 2727.82,603.26 2729.32,600.294 C2729.55,599.851 2729.88,599.63 2730.32,599.63 C2731.25,599.63 2731.71,600.139 2731.71,601.157 L2731.71,625.528 L2744,625.528 "/>
<path class="FiguredBass" d="M2731.12,691.403 C2731.12,692.111 2731.52,692.798 2732.31,693.462 C2733.11,694.126 2733.98,694.757 2734.94,695.354 C2735.89,695.952 2736.76,697.081 2737.56,698.741 C2738.36,700.401 2738.75,702.493 2738.75,705.016 C2738.75,709.886 2736.92,713.649 2733.24,716.306 C2729.57,718.962 2724.92,720.29 2719.3,720.29 C2714.78,720.29 2710.85,719.161 2707.51,716.903 C2704.17,714.645 2702.5,711.679 2702.5,708.005 C2702.5,706.057 2703.2,704.363 2704.62,702.925 C2706.04,701.486 2707.73,700.766 2709.7,700.766 C2711.67,700.766 2713.34,701.475 2714.71,702.891 C2716.09,704.308 2716.77,706.013 2716.77,708.005 C2716.77,708.89 2716.04,709.853 2714.58,710.893 C2713.12,711.934 2712.39,712.897 2712.39,713.782 C2712.39,715.154 2713.07,716.162 2714.42,716.804 C2715.77,717.445 2717.39,717.766 2719.3,717.766 C2721.78,717.766 2723.54,716.538 2724.58,714.081 C2725.62,711.624 2726.14,708.602 2726.14,705.016 L2726.14,703.29 C2726.14,700.899 2726.06,699.084 2725.9,697.845 C2725.75,696.605 2725.26,695.498 2724.44,694.524 C2723.62,693.55 2722.37,693.063 2720.69,693.063 L2711.99,693.063 C2710.97,693.063 2710.46,692.51 2710.46,691.403 C2710.46,690.385 2710.97,689.876 2711.99,689.876 L2720.69,689.876 C2722.51,689.876 2723.92,689.19 2724.94,687.817 C2725.3,687.33 2725.58,686.533 2725.8,685.427 C2726.03,683.966 2726.14,681.863 2726.14,679.118 L2726.14,678.255 C2726.14,671.658 2723.7,668.36 2718.83,668.36 C2714.54,668.36 2712.39,669.556 2712.39,671.946 C2712.39,672.743 2713.04,673.595 2714.35,674.503 C2715.66,675.41 2716.31,676.263 2716.31,677.059 C2716.31,678.786 2715.7,680.269 2714.48,681.509 C2713.26,682.748 2711.78,683.368 2710.03,683.368 C2708.28,683.368 2706.81,682.748 2705.62,681.509 C2704.42,680.269 2703.82,678.786 2703.82,677.059 C2703.82,673.651 2705.31,670.928 2708.27,668.891 C2711.24,666.855 2714.76,665.837 2718.83,665.837 C2724.19,665.837 2728.59,666.866 2732.05,668.925 C2735.5,670.983 2737.23,674.093 2737.23,678.255 C2737.23,681.221 2736.92,683.523 2736.3,685.161 C2735.68,686.799 2734.97,687.795 2734.17,688.149 C2733.37,688.503 2732.67,688.913 2732.05,689.378 C2731.43,689.843 2731.12,690.518 2731.12,691.403"/>
<path class="FiguredBass" d="M2961.44,637.681 L2961.44,651.559 C2961.44,652.932 2960.75,653.618 2959.35,653.618 C2957.96,653.618 2957.26,652.932 2957.26,651.559 L2957.26,639.473 L2955.13,640.337 C2954.91,640.425 2954.62,640.47 2954.27,640.47 C2953.7,640.47 2953.19,640.248 2952.74,639.806 C2952.3,639.363 2952.08,638.854 2952.08,638.278 L2952.08,631.505 C2952.08,630.531 2952.54,629.845 2953.47,629.446 L2957.26,627.852 L2957.26,613.907 L2955.13,614.77 C2955,614.815 2954.82,614.837 2954.6,614.837 C2954.51,614.837 2954.4,614.837 2954.27,614.837 C2953.61,614.748 2953.08,614.505 2952.68,614.106 C2952.28,613.708 2952.08,613.243 2952.08,612.712 L2952.08,605.938 C2952.08,605.009 2952.54,604.345 2953.47,603.946 L2957.26,602.352 L2957.26,588.208 C2957.26,586.835 2957.96,586.149 2959.35,586.149 C2960.75,586.149 2961.44,586.835 2961.44,588.208 L2961.44,600.626 L2970.01,597.04 L2970.01,583.161 C2970.01,581.789 2970.7,581.102 2972.07,581.102 C2973.44,581.102 2974.13,581.789 2974.13,583.161 L2974.13,595.38 L2976.45,594.384 C2976.67,594.295 2976.92,594.251 2977.18,594.251 C2977.76,594.251 2978.28,594.472 2978.74,594.915 C2979.21,595.358 2979.44,595.867 2979.44,596.442 L2979.44,603.216 C2979.44,604.19 2978.95,604.876 2977.98,605.274 L2974.13,606.868 L2974.13,620.88 L2976.45,619.95 C2976.58,619.906 2976.74,619.884 2976.92,619.884 C2977,619.884 2977.09,619.884 2977.18,619.884 C2977.93,620.016 2978.5,620.26 2978.87,620.614 C2979.25,620.968 2979.44,621.433 2979.44,622.009 L2979.44,628.782 C2979.44,629.712 2978.95,630.376 2977.98,630.774 L2974.13,632.368 L2974.13,646.513 C2974.13,647.885 2973.44,648.571 2972.07,648.571 C2970.7,648.571 2970.01,647.885 2970.01,646.513 L2970.01,634.095 L2961.44,637.681 M2961.44,626.126 L2970.01,622.606 L2970.01,608.595 L2961.44,612.181 L2961.44,626.126 "/>
<path class="FiguredBass" d="M3174.64,631.505 C3174.16,632.036 3173.51,632.302 3172.72,632.302 C3171.92,632.302 3171.27,632.025 3170.76,631.472 C3170.25,630.918 3169.99,630.287 3169.99,629.579 L3169.99,620.083 L3160.5,620.083 C3159.7,620.083 3159.05,619.806 3158.54,619.253 C3158.03,618.699 3157.78,618.069 3157.78,617.36 C3157.78,616.652 3158.03,616.021 3158.54,615.468 C3159.05,614.914 3159.7,614.638 3160.5,614.638 L3169.99,614.638 L3169.99,605.141 C3169.99,604.433 3170.25,603.802 3170.76,603.249 C3171.27,602.695 3171.92,602.419 3172.72,602.419 C3173.51,602.419 3174.17,602.695 3174.68,603.249 C3175.19,603.802 3175.44,604.433 3175.44,605.141 L3175.44,614.638 L3184.94,614.638 C3185.73,614.638 3186.39,614.914 3186.89,615.468 C3187.4,616.021 3187.66,616.652 3187.66,617.36 C3187.66,618.069 3187.4,618.699 3186.89,619.253 C3186.39,619.806 3185.73,620.083 3184.94,620.083 L3175.44,620.083 L3175.44,629.579 C3175.44,630.287 3175.17,630.929 3174.64,631.505 M3212.42,591.528 C3214.1,591.528 3215.87,591.285 3217.73,590.798 L3220.72,590.001 C3221.3,590.001 3221.75,590.222 3222.08,590.665 C3222.41,591.108 3222.38,591.506 3221.98,591.86 L3191.1,627.786 L3209.23,627.786 L3209.23,613.575 C3209.23,612.557 3209.51,611.771 3210.06,611.218 C3210.62,610.664 3211.32,610.222 3212.19,609.889 C3213.05,609.557 3214.18,608.572 3215.57,606.934 C3216.97,605.296 3218.31,603.083 3219.59,600.294 C3219.81,599.851 3220.15,599.63 3220.59,599.63 C3221.52,599.63 3221.98,600.139 3221.98,601.157 L3221.98,627.786 L3229.82,627.786 C3230.93,627.786 3231.48,628.295 3231.48,629.313 C3231.48,630.42 3230.93,630.973 3229.82,630.973 L3221.98,630.973 L3221.98,631.837 C3221.98,634.582 3222.71,636.972 3224.17,639.009 C3225.64,641.045 3227.52,642.063 3229.82,642.063 C3230.7,642.063 3231.15,642.462 3231.15,643.259 C3231.15,644.144 3230.7,644.587 3229.82,644.587 C3228.22,644.587 3225.86,644.354 3222.71,643.889 C3219.57,643.425 3217.19,643.192 3215.57,643.192 C3213.96,643.192 3211.58,643.425 3208.44,643.889 C3205.29,644.354 3202.92,644.587 3201.33,644.587 C3200.44,644.587 3200,644.144 3200,643.259 C3200,642.462 3200.44,642.063 3201.33,642.063 C3203.63,642.063 3205.53,641.045 3207.01,639.009 C3208.49,636.972 3209.23,634.582 3209.23,631.837 L3209.23,630.973 L3191.1,630.973 C3189.95,630.973 3189.1,630.697 3188.55,630.143 C3187.99,629.59 3187.72,629.026 3187.72,628.45 C3187.72,628.229 3188.24,627.465 3189.28,626.159 C3190.32,624.853 3191.59,623.115 3193.1,620.946 C3194.6,618.777 3196.1,616.309 3197.58,613.542 C3199.06,610.775 3200.32,607.455 3201.36,603.581 C3202.4,599.707 3202.92,595.8 3202.92,591.86 C3202.92,590.709 3203.41,590.134 3204.39,590.134 C3204.52,590.134 3204.98,590.244 3205.78,590.466 C3206.58,590.687 3207.59,590.919 3208.83,591.163 C3210.07,591.406 3211.27,591.528 3212.42,591.528"/>
<path class="FiguredBass" d="M3472.9,594.358 C3469.62,594.358 3467.44,595.675 3466.36,598.309 C3465.28,600.943 3464.73,604.673 3464.73,609.498 L3464.73,617.334 C3467.03,616.405 3469.03,615.918 3470.71,615.873 C3476.46,615.873 3480.99,617.146 3484.29,619.692 C3487.59,622.237 3489.24,626.023 3489.24,631.047 C3489.24,636.072 3487.57,639.868 3484.22,642.436 C3480.88,645.004 3476.38,646.288 3470.71,646.288 C3464.91,646.288 3460.37,643.598 3457.1,638.219 C3453.82,632.84 3452.18,626.454 3452.18,619.061 C3452.18,611.712 3454.09,605.337 3457.89,599.936 C3461.7,594.535 3466.7,591.834 3472.9,591.834 C3476.97,591.834 3480.49,592.864 3483.46,594.922 C3486.43,596.981 3487.91,599.692 3487.91,603.057 C3487.91,605.005 3487.2,606.687 3485.78,608.104 C3484.37,609.521 3482.67,610.229 3480.7,610.229 C3478.73,610.229 3477.04,609.521 3475.62,608.104 C3474.21,606.687 3473.5,605.005 3473.5,603.057 C3473.5,601.153 3474.21,599.471 3475.62,598.01 C3476.11,597.435 3476.8,596.948 3477.68,596.549 C3477.46,595.974 3477.02,595.531 3476.35,595.221 C3475.38,594.646 3474.23,594.358 3472.9,594.358 M3476.15,621.518 C3475.36,619.437 3473.61,618.397 3470.91,618.397 C3468.21,618.397 3466.54,619.437 3465.9,621.518 C3465.25,623.599 3464.93,626.764 3464.93,631.014 C3464.93,636.017 3465.25,639.381 3465.9,641.108 C3466.54,642.834 3468.21,643.698 3470.91,643.698 C3473.61,643.698 3475.36,642.657 3476.15,640.577 C3476.95,638.496 3477.35,635.319 3477.35,631.047 C3477.35,626.775 3476.95,623.599 3476.15,621.518"/>
<path class="FiguredBass" d="M3679.79,654.465 C3679.31,654.997 3678.66,655.262 3677.87,655.262 C3677.07,655.262 3676.42,654.986 3675.91,654.432 C3675.4,653.879 3675.14,653.248 3675.14,652.54 L3675.14,643.043 L3665.65,643.043 C3664.85,643.043 3664.2,642.767 3663.69,642.213 C3663.18,641.66 3662.93,641.029 3662.93,640.321 C3662.93,639.612 3663.18,638.982 3663.69,638.428 C3664.2,637.875 3664.85,637.598 3665.65,637.598 L3675.14,637.598 L3675.14,628.102 C3675.14,627.394 3675.4,626.763 3675.91,626.209 C3676.42,625.656 3677.07,625.379 3677.87,625.379 C3678.66,625.379 3679.32,625.656 3679.83,626.209 C3680.33,626.763 3680.59,627.394 3680.59,628.102 L3680.59,637.598 L3690.09,637.598 C3690.88,637.598 3691.54,637.875 3692.04,638.428 C3692.55,638.982 3692.81,639.612 3692.81,640.321 C3692.81,641.029 3692.55,641.66 3692.04,642.213 C3691.54,642.767 3690.88,643.043 3690.09,643.043 L3680.59,643.043 L3680.59,652.54 C3680.59,653.248 3680.32,653.89 3679.79,654.465 M3718.03,615.618 C3714.76,615.618 3712.58,616.935 3711.49,619.569 C3710.41,622.203 3709.87,625.933 3709.87,630.758 L3709.87,638.594 C3712.17,637.665 3714.16,637.178 3715.84,637.133 C3721.6,637.133 3726.13,638.406 3729.42,640.952 C3732.72,643.497 3734.37,647.282 3734.37,652.307 C3734.37,657.332 3732.7,661.128 3729.36,663.696 C3726.01,666.264 3721.51,667.547 3715.84,667.547 C3710.04,667.547 3705.51,664.858 3702.23,659.479 C3698.95,654.1 3697.32,647.714 3697.32,640.321 C3697.32,632.972 3699.22,626.597 3703.03,621.196 C3706.83,615.795 3711.84,613.094 3718.03,613.094 C3722.11,613.094 3725.63,614.124 3728.59,616.182 C3731.56,618.241 3733.04,620.952 3733.04,624.317 C3733.04,626.265 3732.33,627.947 3730.92,629.364 C3729.5,630.78 3727.81,631.489 3725.84,631.489 C3723.87,631.489 3722.17,630.78 3720.76,629.364 C3719.34,627.947 3718.63,626.265 3718.63,624.317 C3718.63,622.413 3719.34,620.731 3720.76,619.27 C3721.24,618.695 3721.93,618.208 3722.82,617.809 C3722.59,617.234 3722.15,616.791 3721.49,616.481 C3720.51,615.905 3719.36,615.618 3718.03,615.618 M3721.29,642.778 C3720.49,640.697 3718.74,639.657 3716.04,639.657 C3713.34,639.657 3711.67,640.697 3711.03,642.778 C3710.39,644.859 3710.07,648.024 3710.07,652.274 C3710.07,657.277 3710.39,660.641 3711.03,662.368 C3711.67,664.094 3713.34,664.958 3716.04,664.958 C3718.74,664.958 3720.49,663.917 3721.29,661.836 C3722.09,659.756 3722.48,656.579 3722.48,652.307 C3722.48,648.035 3722.09,644.859 3721.29,642.778"/>
</svg>
