<?xml version="1.0" encoding="UTF-8" standalone="no"?>
<svg width="4209.44px" height="850.392px" viewBox="0 0 4209.44 850.392"
 xmlns="http://www.w3.org/2000/svg" xmlns:xlink="http://www.w3.org/1999/xlink" version="1.2" baseProfile="tiny">
<title>ExercicesSolMajeur (2)</title>
<desc>Generated by MuseScore 3.6.2</desc>
<polyline class="StaffLines" fill="none" stroke="#000000" stroke-width="4.68" stroke-linejoin="bevel" points="70.866,325.984 4138.58,325.984"/>
<polyline class="StaffLines" fill="none" stroke="#000000" stroke-width="4.68" stroke-linejoin="bevel" points="70.866,368.504 4138.58,368.504"/>
<polyline class="StaffLines" fill="none" stroke="#000000" stroke-width="4.68" stroke-linejoin="bevel" points="70.866,411.024 4138.58,411.024"/>
<polyline class="StaffLines" fill="none" stroke="#000000" stroke-width="4.68" stroke-linejoin="bevel" points="70.866,453.543 4138.58,453.543"/>
<polyline class="StaffLines" fill="none" stroke="#000000" stroke-width="4.68" stroke-linejoin="bevel" points="70.866,496.063 4138.58,496.063"/>
<polyline class="BarLine" fill="none" stroke="#000000" stroke-width="7.65" stroke-linejoin="bevel" points="871.346,323.646 871.346,498.402"/>
<polyline class="BarLine" fill="none" stroke="#000000" stroke-width="7.65" stroke-linejoin="bevel" points="1412.04,323.646 1412.04,498.402"/>
<polyline class="BarLine" fill="none" stroke="#000000" stroke-width="7.65" stroke-linejoin="bevel" points="1952.73,323.646 1952.73,498.402"/>
<polyline class="BarLine" fill="none" stroke="#000000" stroke-width="7.65" stroke-linejoin="bevel" points="2493.42,323.646 2493.42,498.402"/>
<polyline class="BarLine" fill="none" stroke="#000000" stroke-width="7.65" stroke-linejoin="bevel" points="3034.11,323.646 3034.11,498.402"/>
<polyline class="BarLine" fill="none" stroke="#000000" stroke-width="7.65" stroke-linejoin="bevel" points="3574.8,323.646 3574.8,498.402"/>
<polyline class="BarLine" fill="none" stroke="#000000" stroke-width="7.65" stroke-linejoin="bevel" points="4097.12,323.646 4097.12,498.402"/>
<polyline class="BarLine" fill="none" stroke="#000000" stroke-width="23.39" stroke-linejoin="bevel" points="4126.89,323.646 4126.89,498.402"/>
<polyline class="LedgerLine" fill="none" stroke="#000000" stroke-width="6.80" stroke-linejoin="bevel" points="2011.83,538.583 2105.03,538.583"/>
<polyline class="LedgerLine" fill="none" stroke="#000000" stroke-width="6.80" stroke-linejoin="bevel" points="3093.21,538.583 3186.41,538.583"/>
<path class="Note" transform="matrix(1.70079,0,0,1.70079,408.127,496.063)" d="M18.7,-13.6 C4.9,-13.6 0,-6.6 0,-0.1 C0,6.4 4.9,13.4 18.7,13.4 C32.5,13.4 37.3,6.4 37.3,-0.1 C37.3,-6.6 32.5,-13.6 18.7,-13.6 M10.4,-4.5 C10.3,-4.9 10.3,-5.3 10.3,-5.7 C10.3,-6.5 10.5,-7.3 10.9,-8 C11.6,-9 12.8,-9.7 14.3,-10 C15.6,-10.3 16.3,-10.5 18.9,-10.5 L19,-10.5 C23,-10.5 24.3,-6.8 25.4,-3 L25.7,-2 C26.5,0.6 26.9,2.8 26.9,4.5 C26.9,5.7 26.7,6.8 26.3,7.6 C25.7,8.7 24.7,9.4 23,9.8 C22.1,10 20.6,10.1 20.6,10.1 C20.1,10.1 19.7,10.2 19.3,10.2 C16.1,10.2 14.1,9 12.7,4.7 C11.5,1 11.3,-0.1 10.4,-4.5"/>
<path class="Note" transform="matrix(1.70079,0,0,1.70079,930.448,453.543)" d="M18.7,-13.6 C4.9,-13.6 0,-6.6 0,-0.1 C0,6.4 4.9,13.4 18.7,13.4 C32.5,13.4 37.3,6.4 37.3,-0.1 C37.3,-6.6 32.5,-13.6 18.7,-13.6 M10.4,-4.5 C10.3,-4.9 10.3,-5.3 10.3,-5.7 C10.3,-6.5 10.5,-7.3 10.9,-8 C11.6,-9 12.8,-9.7 14.3,-10 C15.6,-10.3 16.3,-10.5 18.9,-10.5 L19,-10.5 C23,-10.5 24.3,-6.8 25.4,-3 L25.7,-2 C26.5,0.6 26.9,2.8 26.9,4.5 C26.9,5.7 26.7,6.8 26.3,7.6 C25.7,8.7 24.7,9.4 23,9.8 C22.1,10 20.6,10.1 20.6,10.1 C20.1,10.1 19.7,10.2 19.3,10.2 C16.1,10.2 14.1,9 12.7,4.7 C11.5,1 11.3,-0.1 10.4,-4.5"/>
<path class="Note" transform="matrix(1.70079,0,0,1.70079,1471.14,496.063)" d="M18.7,-13.6 C4.9,-13.6 0,-6.6 0,-0.1 C0,6.4 4.9,13.4 18.7,13.4 C32.5,13.4 37.3,6.4 37.3,-0.1 C37.3,-6.6 32.5,-13.6 18.7,-13.6 M10.4,-4.5 C10.3,-4.9 10.3,-5.3 10.3,-5.7 C10.3,-6.5 10.5,-7.3 10.9,-8 C11.6,-9 12.8,-9.7 14.3,-10 C15.6,-10.3 16.3,-10.5 18.9,-10.5 L19,-10.5 C23,-10.5 24.3,-6.8 25.4,-3 L25.7,-2 C26.5,0.6 26.9,2.8 26.9,4.5 C26.9,5.7 26.7,6.8 26.3,7.6 C25.7,8.7 24.7,9.4 23,9.8 C22.1,10 20.6,10.1 20.6,10.1 C20.1,10.1 19.7,10.2 19.3,10.2 C16.1,10.2 14.1,9 12.7,4.7 C11.5,1 11.3,-0.1 10.4,-4.5"/>
<path class="Note" transform="matrix(1.70079,0,0,1.70079,2026.71,559.843)" d="M18.7,-13.6 C4.9,-13.6 0,-6.6 0,-0.1 C0,6.4 4.9,13.4 18.7,13.4 C32.5,13.4 37.3,6.4 37.3,-0.1 C37.3,-6.6 32.5,-13.6 18.7,-13.6 M10.4,-4.5 C10.3,-4.9 10.3,-5.3 10.3,-5.7 C10.3,-6.5 10.5,-7.3 10.9,-8 C11.6,-9 12.8,-9.7 14.3,-10 C15.6,-10.3 16.3,-10.5 18.9,-10.5 L19,-10.5 C23,-10.5 24.3,-6.8 25.4,-3 L25.7,-2 C26.5,0.6 26.9,2.8 26.9,4.5 C26.9,5.7 26.7,6.8 26.3,7.6 C25.7,8.7 24.7,9.4 23,9.8 C22.1,10 20.6,10.1 20.6,10.1 C20.1,10.1 19.7,10.2 19.3,10.2 C16.1,10.2 14.1,9 12.7,4.7 C11.5,1 11.3,-0.1 10.4,-4.5"/>
<path class="Note" transform="matrix(1.70079,0,0,1.70079,2552.52,517.323)" d="M18.7,-13.6 C4.9,-13.6 0,-6.6 0,-0.1 C0,6.4 4.9,13.4 18.7,13.4 C32.5,13.4 37.3,6.4 37.3,-0.1 C37.3,-6.6 32.5,-13.6 18.7,-13.6 M10.4,-4.5 C10.3,-4.9 10.3,-5.3 10.3,-5.7 C10.3,-6.5 10.5,-7.3 10.9,-8 C11.6,-9 12.8,-9.7 14.3,-10 C15.6,-10.3 16.3,-10.5 18.9,-10.5 L19,-10.5 C23,-10.5 24.3,-6.8 25.4,-3 L25.7,-2 C26.5,0.6 26.9,2.8 26.9,4.5 C26.9,5.7 26.7,6.8 26.3,7.6 C25.7,8.7 24.7,9.4 23,9.8 C22.1,10 20.6,10.1 20.6,10.1 C20.1,10.1 19.7,10.2 19.3,10.2 C16.1,10.2 14.1,9 12.7,4.7 C11.5,1 11.3,-0.1 10.4,-4.5"/>
<path class="Note" transform="matrix(1.70079,0,0,1.70079,3108.09,559.843)" d="M18.7,-13.6 C4.9,-13.6 0,-6.6 0,-0.1 C0,6.4 4.9,13.4 18.7,13.4 C32.5,13.4 37.3,6.4 37.3,-0.1 C37.3,-6.6 32.5,-13.6 18.7,-13.6 M10.4,-4.5 C10.3,-4.9 10.3,-5.3 10.3,-5.7 C10.3,-6.5 10.5,-7.3 10.9,-8 C11.6,-9 12.8,-9.7 14.3,-10 C15.6,-10.3 16.3,-10.5 18.9,-10.5 L19,-10.5 C23,-10.5 24.3,-6.8 25.4,-3 L25.7,-2 C26.5,0.6 26.9,2.8 26.9,4.5 C26.9,5.7 26.7,6.8 26.3,7.6 C25.7,8.7 24.7,9.4 23,9.8 C22.1,10 20.6,10.1 20.6,10.1 C20.1,10.1 19.7,10.2 19.3,10.2 C16.1,10.2 14.1,9 12.7,4.7 C11.5,1 11.3,-0.1 10.4,-4.5"/>
<path class="Note" transform="matrix(1.70079,0,0,1.70079,3633.9,496.063)" d="M18.7,-13.6 C4.9,-13.6 0,-6.6 0,-0.1 C0,6.4 4.9,13.4 18.7,13.4 C32.5,13.4 37.3,6.4 37.3,-0.1 C37.3,-6.6 32.5,-13.6 18.7,-13.6 M10.4,-4.5 C10.3,-4.9 10.3,-5.3 10.3,-5.7 C10.3,-6.5 10.5,-7.3 10.9,-8 C11.6,-9 12.8,-9.7 14.3,-10 C15.6,-10.3 16.3,-10.5 18.9,-10.5 L19,-10.5 C23,-10.5 24.3,-6.8 25.4,-3 L25.7,-2 C26.5,0.6 26.9,2.8 26.9,4.5 C26.9,5.7 26.7,6.8 26.3,7.6 C25.7,8.7 24.7,9.4 23,9.8 C22.1,10 20.6,10.1 20.6,10.1 C20.1,10.1 19.7,10.2 19.3,10.2 C16.1,10.2 14.1,9 12.7,4.7 C11.5,1 11.3,-0.1 10.4,-4.5"/>
<path class="Clef" transform="matrix(1.70079,0,0,1.70079,104.882,368.504)" d="M25.4,-25.1 C17.8,-25.1 11.7,-20.7 11.6,-20.7 C5.8,-16.4 3.5,-11.3 2.6,-7.8 C2.1,-6 1.9,-4.2 1.9,-2.5 C1.9,-0.1 2.3,2.1 3.2,4 C4.4,6.7 6.7,8.6 9.7,9.6 C10.9,10 12.2,10.2 13.5,10.2 C15.7,10.2 18,9.6 19.9,8.5 C23,6.8 24.9,3.2 24.9,-0.7 C24.9,-4.2 23.1,-7.4 20.1,-9.3 C18,-10.7 16,-11.1 14.3,-11.1 C13.1,-11.1 12,-10.9 11.1,-10.6 C10.1,-10.2 8.4,-9.2 7.6,-8.5 C7.9,-10.4 9.1,-13.3 10.2,-14.9 C11.3,-16.5 13.5,-18.5 15.2,-19.4 C17.7,-20.8 20.9,-21.4 24.4,-21.4 C34.6,-21.4 39.6,-13.2 39.6,3.6 C39.6,12.9 36.1,21.8 33.1,27.7 C29.8,34.3 25.4,40.6 21.5,44.1 C11.1,53.6 1.3,58.1 1.2,58.1 C1.2,58.1 -0.3,59 0.1,60.5 C0.4,61.5 1.3,61.7 1.9,61.7 C2,61.7 2.3,61.6 2.4,61.6 C2.5,61.6 13.9,56.9 23,49.8 C28.1,46.1 32.7,42.1 36.7,37.8 C40.3,33.9 43.4,29.7 45.9,25.5 C50.3,18 52.8,10.2 52.8,3.5 C52.8,-4.8 50.6,-11.7 46.5,-16.6 C41.8,-22.2 34.7,-25.1 25.4,-25.1 M56.8,-12.4 C56.8,-9.6 59,-7.4 61.6,-7.4 C64.2,-7.4 66.4,-9.6 66.4,-12.4 C66.4,-15.2 64.2,-17.5 61.6,-17.5 C59,-17.5 56.8,-15.2 56.8,-12.4 M56.8,12.3 C56.8,15.1 59,17.4 61.6,17.4 C64.2,17.4 66.4,15.1 66.4,12.3 C66.4,9.5 64.2,7.2 61.6,7.2 C59,7.2 56.8,9.5 56.8,12.3"/>
<path class="KeySig" transform="matrix(1.70079,0,0,1.70079,260.331,368.504)" d="M23.3,-10.6 C23.9,-10.7 24.4,-11.4 24.4,-12 L24.4,-17.9 C24.4,-18.7 23.8,-19.3 23,-19.3 L22.8,-19.3 L19.5,-18.6 L19.5,-33.5 L16.7,-33.5 L16.7,-18 L7.8,-16.2 L7.8,-30.3 L5,-30.3 L5,-15.6 L1.1,-14.8 C0.5,-14.7 0,-14 0,-13.4 L0,-13.2 L0,-7.4 L0,-7.6 C0,-6.8 0.6,-6.2 1.4,-6.2 L1.7,-6.2 L5,-6.9 L5,9.6 L1.1,10.4 C0.5,10.5 0,11.2 0,11.8 L0,17.6 C0,18.4 0.6,19 1.4,19 L1.7,19 L5,18.3 L5,33.2 L7.8,33.2 L7.8,17.7 L16.7,15.9 L16.7,30 L19.5,30 L19.5,15.3 L23.3,14.6 C23.9,14.5 24.4,13.8 24.4,13.2 L24.4,7.3 C24.4,6.5 23.8,5.9 23,5.9 L22.8,5.9 L19.5,6.6 L19.5,-9.9 L23.3,-10.6 M7.8,9.1 L7.8,-7.5 L16.7,-9.3 L16.7,7.2 L7.8,9.1 "/>
<path class="FiguredBass" d="M964.157,592.657 C960.881,592.657 958.701,593.974 957.616,596.608 C956.531,599.242 955.989,602.972 955.989,607.798 L955.989,615.634 C958.291,614.704 960.283,614.217 961.966,614.173 C967.721,614.173 972.248,615.445 975.546,617.991 C978.844,620.537 980.493,624.322 980.493,629.347 C980.493,634.371 978.822,638.167 975.479,640.735 C972.137,643.303 967.632,644.587 961.966,644.587 C956.166,644.587 951.628,641.897 948.352,636.518 C945.076,631.139 943.438,624.753 943.438,617.36 C943.438,610.011 945.342,603.636 949.149,598.235 C952.957,592.834 957.959,590.134 964.157,590.134 C968.23,590.134 971.75,591.163 974.716,593.222 C977.682,595.28 979.165,597.992 979.165,601.356 C979.165,603.304 978.457,604.986 977.04,606.403 C975.623,607.82 973.93,608.528 971.96,608.528 C969.99,608.528 968.296,607.82 966.88,606.403 C965.463,604.986 964.755,603.304 964.755,601.356 C964.755,599.453 965.463,597.77 966.88,596.309 C967.367,595.734 968.053,595.247 968.938,594.848 C968.717,594.273 968.274,593.83 967.61,593.52 C966.636,592.945 965.485,592.657 964.157,592.657 M967.411,619.817 C966.614,617.736 964.865,616.696 962.165,616.696 C959.464,616.696 957.793,617.736 957.151,619.817 C956.509,621.898 956.188,625.063 956.188,629.313 C956.188,634.316 956.509,637.681 957.151,639.407 C957.793,641.134 959.464,641.997 962.165,641.997 C964.865,641.997 966.614,640.957 967.411,638.876 C968.208,636.795 968.606,633.619 968.606,629.347 C968.606,625.074 968.208,621.898 967.411,619.817"/>
<path class="FiguredBass" d="M2586.23,592.657 C2582.95,592.657 2580.77,593.974 2579.69,596.608 C2578.6,599.242 2578.06,602.972 2578.06,607.798 L2578.06,615.634 C2580.36,614.704 2582.36,614.217 2584.04,614.173 C2589.79,614.173 2594.32,615.445 2597.62,617.991 C2600.92,620.537 2602.57,624.322 2602.57,629.347 C2602.57,634.371 2600.89,638.167 2597.55,640.735 C2594.21,643.303 2589.71,644.587 2584.04,644.587 C2578.24,644.587 2573.7,641.897 2570.43,636.518 C2567.15,631.139 2565.51,624.753 2565.51,617.36 C2565.51,610.011 2567.41,603.636 2571.22,598.235 C2575.03,592.834 2580.03,590.134 2586.23,590.134 C2590.3,590.134 2593.82,591.163 2596.79,593.222 C2599.75,595.28 2601.24,597.992 2601.24,601.356 C2601.24,603.304 2600.53,604.986 2599.11,606.403 C2597.7,607.82 2596,608.528 2594.03,608.528 C2592.06,608.528 2590.37,607.82 2588.95,606.403 C2587.54,604.986 2586.83,603.304 2586.83,601.356 C2586.83,599.453 2587.54,597.77 2588.95,596.309 C2589.44,595.734 2590.13,595.247 2591.01,594.848 C2590.79,594.273 2590.35,593.83 2589.68,593.52 C2588.71,592.945 2587.56,592.657 2586.23,592.657 M2589.48,619.817 C2588.69,617.736 2586.94,616.696 2584.24,616.696 C2581.54,616.696 2579.87,617.736 2579.22,619.817 C2578.58,621.898 2578.26,625.063 2578.26,629.313 C2578.26,634.316 2578.58,637.681 2579.22,639.407 C2579.87,641.134 2581.54,641.997 2584.24,641.997 C2586.94,641.997 2588.69,640.957 2589.48,638.876 C2590.28,636.795 2590.68,633.619 2590.68,629.347 C2590.68,625.074 2590.28,621.898 2589.48,619.817"/>
</svg>
