<?xml version="1.0" encoding="UTF-8" standalone="no"?>
<svg width="4209.44px" height="850.392px" viewBox="0 0 4209.44 850.392"
 xmlns="http://www.w3.org/2000/svg" xmlns:xlink="http://www.w3.org/1999/xlink" version="1.2" baseProfile="tiny">
<title>ExercicesLaMineur (6)</title>
<desc>Generated by MuseScore 3.6.2</desc>
<polyline class="StaffLines" fill="none" stroke="#000000" stroke-width="4.68" stroke-linejoin="bevel" points="70.866,325.984 4138.58,325.984"/>
<polyline class="StaffLines" fill="none" stroke="#000000" stroke-width="4.68" stroke-linejoin="bevel" points="70.866,368.504 4138.58,368.504"/>
<polyline class="StaffLines" fill="none" stroke="#000000" stroke-width="4.68" stroke-linejoin="bevel" points="70.866,411.024 4138.58,411.024"/>
<polyline class="StaffLines" fill="none" stroke="#000000" stroke-width="4.68" stroke-linejoin="bevel" points="70.866,453.543 4138.58,453.543"/>
<polyline class="StaffLines" fill="none" stroke="#000000" stroke-width="4.68" stroke-linejoin="bevel" points="70.866,496.063 4138.58,496.063"/>
<polyline class="BarLine" fill="none" stroke="#000000" stroke-width="7.65" stroke-linejoin="bevel" points="790.416,323.646 790.416,498.402"/>
<polyline class="BarLine" fill="none" stroke="#000000" stroke-width="7.65" stroke-linejoin="bevel" points="1334.19,323.646 1334.19,498.402"/>
<polyline class="BarLine" fill="none" stroke="#000000" stroke-width="7.65" stroke-linejoin="bevel" points="1877.97,323.646 1877.97,498.402"/>
<polyline class="BarLine" fill="none" stroke="#000000" stroke-width="7.65" stroke-linejoin="bevel" points="2421.75,323.646 2421.75,498.402"/>
<polyline class="BarLine" fill="none" stroke="#000000" stroke-width="7.65" stroke-linejoin="bevel" points="2964.71,323.646 2964.71,498.402"/>
<polyline class="BarLine" fill="none" stroke="#000000" stroke-width="7.65" stroke-linejoin="bevel" points="3571.71,323.646 3571.71,498.402"/>
<polyline class="BarLine" fill="none" stroke="#000000" stroke-width="7.65" stroke-linejoin="bevel" points="4097.12,323.646 4097.12,498.402"/>
<polyline class="BarLine" fill="none" stroke="#000000" stroke-width="23.39" stroke-linejoin="bevel" points="4126.89,323.646 4126.89,498.402"/>
<polyline class="LedgerLine" fill="none" stroke="#000000" stroke-width="6.80" stroke-linejoin="bevel" points="3023.81,538.583 3117.01,538.583"/>
<path class="Note" transform="matrix(1.70079,0,0,1.70079,324.111,474.803)" d="M18.7,-13.6 C4.9,-13.6 0,-6.6 0,-0.1 C0,6.4 4.9,13.4 18.7,13.4 C32.5,13.4 37.3,6.4 37.3,-0.1 C37.3,-6.6 32.5,-13.6 18.7,-13.6 M10.4,-4.5 C10.3,-4.9 10.3,-5.3 10.3,-5.7 C10.3,-6.5 10.5,-7.3 10.9,-8 C11.6,-9 12.8,-9.7 14.3,-10 C15.6,-10.3 16.3,-10.5 18.9,-10.5 L19,-10.5 C23,-10.5 24.3,-6.8 25.4,-3 L25.7,-2 C26.5,0.6 26.9,2.8 26.9,4.5 C26.9,5.7 26.7,6.8 26.3,7.6 C25.7,8.7 24.7,9.4 23,9.8 C22.1,10 20.6,10.1 20.6,10.1 C20.1,10.1 19.7,10.2 19.3,10.2 C16.1,10.2 14.1,9 12.7,4.7 C11.5,1 11.3,-0.1 10.4,-4.5"/>
<path class="Note" transform="matrix(1.70079,0,0,1.70079,849.519,432.283)" d="M18.7,-13.6 C4.9,-13.6 0,-6.6 0,-0.1 C0,6.4 4.9,13.4 18.7,13.4 C32.5,13.4 37.3,6.4 37.3,-0.1 C37.3,-6.6 32.5,-13.6 18.7,-13.6 M10.4,-4.5 C10.3,-4.9 10.3,-5.3 10.3,-5.7 C10.3,-6.5 10.5,-7.3 10.9,-8 C11.6,-9 12.8,-9.7 14.3,-10 C15.6,-10.3 16.3,-10.5 18.9,-10.5 L19,-10.5 C23,-10.5 24.3,-6.8 25.4,-3 L25.7,-2 C26.5,0.6 26.9,2.8 26.9,4.5 C26.9,5.7 26.7,6.8 26.3,7.6 C25.7,8.7 24.7,9.4 23,9.8 C22.1,10 20.6,10.1 20.6,10.1 C20.1,10.1 19.7,10.2 19.3,10.2 C16.1,10.2 14.1,9 12.7,4.7 C11.5,1 11.3,-0.1 10.4,-4.5"/>
<path class="Note" transform="matrix(1.70079,0,0,1.70079,1393.3,453.543)" d="M18.7,-13.6 C4.9,-13.6 0,-6.6 0,-0.1 C0,6.4 4.9,13.4 18.7,13.4 C32.5,13.4 37.3,6.4 37.3,-0.1 C37.3,-6.6 32.5,-13.6 18.7,-13.6 M10.4,-4.5 C10.3,-4.9 10.3,-5.3 10.3,-5.7 C10.3,-6.5 10.5,-7.3 10.9,-8 C11.6,-9 12.8,-9.7 14.3,-10 C15.6,-10.3 16.3,-10.5 18.9,-10.5 L19,-10.5 C23,-10.5 24.3,-6.8 25.4,-3 L25.7,-2 C26.5,0.6 26.9,2.8 26.9,4.5 C26.9,5.7 26.7,6.8 26.3,7.6 C25.7,8.7 24.7,9.4 23,9.8 C22.1,10 20.6,10.1 20.6,10.1 C20.1,10.1 19.7,10.2 19.3,10.2 C16.1,10.2 14.1,9 12.7,4.7 C11.5,1 11.3,-0.1 10.4,-4.5"/>
<path class="Note" transform="matrix(1.70079,0,0,1.70079,1937.07,474.803)" d="M18.7,-13.6 C4.9,-13.6 0,-6.6 0,-0.1 C0,6.4 4.9,13.4 18.7,13.4 C32.5,13.4 37.3,6.4 37.3,-0.1 C37.3,-6.6 32.5,-13.6 18.7,-13.6 M10.4,-4.5 C10.3,-4.9 10.3,-5.3 10.3,-5.7 C10.3,-6.5 10.5,-7.3 10.9,-8 C11.6,-9 12.8,-9.7 14.3,-10 C15.6,-10.3 16.3,-10.5 18.9,-10.5 L19,-10.5 C23,-10.5 24.3,-6.8 25.4,-3 L25.7,-2 C26.5,0.6 26.9,2.8 26.9,4.5 C26.9,5.7 26.7,6.8 26.3,7.6 C25.7,8.7 24.7,9.4 23,9.8 C22.1,10 20.6,10.1 20.6,10.1 C20.1,10.1 19.7,10.2 19.3,10.2 C16.1,10.2 14.1,9 12.7,4.7 C11.5,1 11.3,-0.1 10.4,-4.5"/>
<path class="Note" transform="matrix(1.70079,0,0,1.70079,2484.94,389.764)" d="M18.7,-13.6 C4.9,-13.6 0,-6.6 0,-0.1 C0,6.4 4.9,13.4 18.7,13.4 C32.5,13.4 37.3,6.4 37.3,-0.1 C37.3,-6.6 32.5,-13.6 18.7,-13.6 M10.4,-4.5 C10.3,-4.9 10.3,-5.3 10.3,-5.7 C10.3,-6.5 10.5,-7.3 10.9,-8 C11.6,-9 12.8,-9.7 14.3,-10 C15.6,-10.3 16.3,-10.5 18.9,-10.5 L19,-10.5 C23,-10.5 24.3,-6.8 25.4,-3 L25.7,-2 C26.5,0.6 26.9,2.8 26.9,4.5 C26.9,5.7 26.7,6.8 26.3,7.6 C25.7,8.7 24.7,9.4 23,9.8 C22.1,10 20.6,10.1 20.6,10.1 C20.1,10.1 19.7,10.2 19.3,10.2 C16.1,10.2 14.1,9 12.7,4.7 C11.5,1 11.3,-0.1 10.4,-4.5"/>
<path class="Note" transform="matrix(1.70079,0,0,1.70079,3038.69,538.583)" d="M18.7,-13.6 C4.9,-13.6 0,-6.6 0,-0.1 C0,6.4 4.9,13.4 18.7,13.4 C32.5,13.4 37.3,6.4 37.3,-0.1 C37.3,-6.6 32.5,-13.6 18.7,-13.6 M10.4,-4.5 C10.3,-4.9 10.3,-5.3 10.3,-5.7 C10.3,-6.5 10.5,-7.3 10.9,-8 C11.6,-9 12.8,-9.7 14.3,-10 C15.6,-10.3 16.3,-10.5 18.9,-10.5 L19,-10.5 C23,-10.5 24.3,-6.8 25.4,-3 L25.7,-2 C26.5,0.6 26.9,2.8 26.9,4.5 C26.9,5.7 26.7,6.8 26.3,7.6 C25.7,8.7 24.7,9.4 23,9.8 C22.1,10 20.6,10.1 20.6,10.1 C20.1,10.1 19.7,10.2 19.3,10.2 C16.1,10.2 14.1,9 12.7,4.7 C11.5,1 11.3,-0.1 10.4,-4.5"/>
<path class="Note" transform="matrix(1.70079,0,0,1.70079,3630.82,474.803)" d="M18.7,-13.6 C4.9,-13.6 0,-6.6 0,-0.1 C0,6.4 4.9,13.4 18.7,13.4 C32.5,13.4 37.3,6.4 37.3,-0.1 C37.3,-6.6 32.5,-13.6 18.7,-13.6 M10.4,-4.5 C10.3,-4.9 10.3,-5.3 10.3,-5.7 C10.3,-6.5 10.5,-7.3 10.9,-8 C11.6,-9 12.8,-9.7 14.3,-10 C15.6,-10.3 16.3,-10.5 18.9,-10.5 L19,-10.5 C23,-10.5 24.3,-6.8 25.4,-3 L25.7,-2 C26.5,0.6 26.9,2.8 26.9,4.5 C26.9,5.7 26.7,6.8 26.3,7.6 C25.7,8.7 24.7,9.4 23,9.8 C22.1,10 20.6,10.1 20.6,10.1 C20.1,10.1 19.7,10.2 19.3,10.2 C16.1,10.2 14.1,9 12.7,4.7 C11.5,1 11.3,-0.1 10.4,-4.5"/>
<path class="Clef" transform="matrix(1.70079,0,0,1.70079,104.882,368.504)" d="M25.4,-25.1 C17.8,-25.1 11.7,-20.7 11.6,-20.7 C5.8,-16.4 3.5,-11.3 2.6,-7.8 C2.1,-6 1.9,-4.2 1.9,-2.5 C1.9,-0.1 2.3,2.1 3.2,4 C4.4,6.7 6.7,8.6 9.7,9.6 C10.9,10 12.2,10.2 13.5,10.2 C15.7,10.2 18,9.6 19.9,8.5 C23,6.8 24.9,3.2 24.9,-0.7 C24.9,-4.2 23.1,-7.4 20.1,-9.3 C18,-10.7 16,-11.1 14.3,-11.1 C13.1,-11.1 12,-10.9 11.1,-10.6 C10.1,-10.2 8.4,-9.2 7.6,-8.5 C7.9,-10.4 9.1,-13.3 10.2,-14.9 C11.3,-16.5 13.5,-18.5 15.2,-19.4 C17.7,-20.8 20.9,-21.4 24.4,-21.4 C34.6,-21.4 39.6,-13.2 39.6,3.6 C39.6,12.9 36.1,21.8 33.1,27.7 C29.8,34.3 25.4,40.6 21.5,44.1 C11.1,53.6 1.3,58.1 1.2,58.1 C1.2,58.1 -0.3,59 0.1,60.5 C0.4,61.5 1.3,61.7 1.9,61.7 C2,61.7 2.3,61.6 2.4,61.6 C2.5,61.6 13.9,56.9 23,49.8 C28.1,46.1 32.7,42.1 36.7,37.8 C40.3,33.9 43.4,29.7 45.9,25.5 C50.3,18 52.8,10.2 52.8,3.5 C52.8,-4.8 50.6,-11.7 46.5,-16.6 C41.8,-22.2 34.7,-25.1 25.4,-25.1 M56.8,-12.4 C56.8,-9.6 59,-7.4 61.6,-7.4 C64.2,-7.4 66.4,-9.6 66.4,-12.4 C66.4,-15.2 64.2,-17.5 61.6,-17.5 C59,-17.5 56.8,-15.2 56.8,-12.4 M56.8,12.3 C56.8,15.1 59,17.4 61.6,17.4 C64.2,17.4 66.4,15.1 66.4,12.3 C66.4,9.5 64.2,7.2 61.6,7.2 C59,7.2 56.8,9.5 56.8,12.3"/>
<path class="FiguredBass" d="M883.228,592.657 C879.952,592.657 877.771,593.974 876.687,596.608 C875.602,599.242 875.06,602.972 875.06,607.798 L875.06,615.634 C877.362,614.704 879.354,614.217 881.036,614.173 C886.792,614.173 891.318,615.445 894.616,617.991 C897.915,620.537 899.564,624.322 899.564,629.347 C899.564,634.371 897.892,638.167 894.55,640.735 C891.208,643.303 886.703,644.587 881.036,644.587 C875.237,644.587 870.699,641.897 867.423,636.518 C864.147,631.139 862.509,624.753 862.509,617.36 C862.509,610.011 864.413,603.636 868.22,598.235 C872.027,592.834 877.03,590.134 883.228,590.134 C887.301,590.134 890.82,591.163 893.786,593.222 C896.752,595.28 898.236,597.992 898.236,601.356 C898.236,603.304 897.527,604.986 896.111,606.403 C894.694,607.82 893.001,608.528 891.03,608.528 C889.06,608.528 887.367,607.82 885.95,606.403 C884.534,604.986 883.825,603.304 883.825,601.356 C883.825,599.453 884.534,597.77 885.95,596.309 C886.437,595.734 887.124,595.247 888.009,594.848 C887.788,594.273 887.345,593.83 886.681,593.52 C885.707,592.945 884.556,592.657 883.228,592.657 M886.482,619.817 C885.685,617.736 883.936,616.696 881.236,616.696 C878.535,616.696 876.864,617.736 876.222,619.817 C875.58,621.898 875.259,625.063 875.259,629.313 C875.259,634.316 875.58,637.681 876.222,639.407 C876.864,641.134 878.535,641.997 881.236,641.997 C883.936,641.997 885.685,640.957 886.482,638.876 C887.279,636.795 887.677,633.619 887.677,629.347 C887.677,625.074 887.279,621.898 886.482,619.817"/>
<path class="FiguredBass" d="M1388.76,631.505 C1388.28,632.036 1387.63,632.302 1386.84,632.302 C1386.04,632.302 1385.39,632.025 1384.88,631.472 C1384.37,630.918 1384.11,630.287 1384.11,629.579 L1384.11,620.083 L1374.62,620.083 C1373.82,620.083 1373.17,619.806 1372.66,619.253 C1372.15,618.699 1371.9,618.069 1371.9,617.36 C1371.9,616.652 1372.15,616.021 1372.66,615.468 C1373.17,614.914 1373.82,614.638 1374.62,614.638 L1384.11,614.638 L1384.11,605.141 C1384.11,604.433 1384.37,603.802 1384.88,603.249 C1385.39,602.695 1386.04,602.419 1386.84,602.419 C1387.63,602.419 1388.29,602.695 1388.8,603.249 C1389.31,603.802 1389.56,604.433 1389.56,605.141 L1389.56,614.638 L1399.06,614.638 C1399.85,614.638 1400.51,614.914 1401.02,615.468 C1401.52,616.021 1401.78,616.652 1401.78,617.36 C1401.78,618.069 1401.52,618.699 1401.02,619.253 C1400.51,619.806 1399.85,620.083 1399.06,620.083 L1389.56,620.083 L1389.56,629.579 C1389.56,630.287 1389.29,630.929 1388.76,631.505 M1427.01,592.657 C1423.73,592.657 1421.55,593.974 1420.46,596.608 C1419.38,599.242 1418.84,602.972 1418.84,607.798 L1418.84,615.634 C1421.14,614.704 1423.13,614.217 1424.81,614.173 C1430.57,614.173 1435.1,615.445 1438.39,617.991 C1441.69,620.537 1443.34,624.322 1443.34,629.347 C1443.34,634.371 1441.67,638.167 1438.33,640.735 C1434.99,643.303 1430.48,644.587 1424.81,644.587 C1419.01,644.587 1414.48,641.897 1411.2,636.518 C1407.92,631.139 1406.29,624.753 1406.29,617.36 C1406.29,610.011 1408.19,603.636 1412,598.235 C1415.81,592.834 1420.81,590.134 1427.01,590.134 C1431.08,590.134 1434.6,591.163 1437.56,593.222 C1440.53,595.28 1442.01,597.992 1442.01,601.356 C1442.01,603.304 1441.31,604.986 1439.89,606.403 C1438.47,607.82 1436.78,608.528 1434.81,608.528 C1432.84,608.528 1431.14,607.82 1429.73,606.403 C1428.31,604.986 1427.6,603.304 1427.6,601.356 C1427.6,599.453 1428.31,597.77 1429.73,596.309 C1430.22,595.734 1430.9,595.247 1431.79,594.848 C1431.57,594.273 1431.12,593.83 1430.46,593.52 C1429.48,592.945 1428.33,592.657 1427.01,592.657 M1430.26,619.817 C1429.46,617.736 1427.71,616.696 1425.01,616.696 C1422.31,616.696 1420.64,617.736 1420,619.817 C1419.36,621.898 1419.04,625.063 1419.04,629.313 C1419.04,634.316 1419.36,637.681 1420,639.407 C1420.64,641.134 1422.31,641.997 1425.01,641.997 C1427.71,641.997 1429.46,640.957 1430.26,638.876 C1431.06,636.795 1431.45,633.619 1431.45,629.347 C1431.45,625.074 1431.06,621.898 1430.26,619.817"/>
<path class="FiguredBass" d="M2518.18,591.528 C2519.86,591.528 2521.64,591.285 2523.49,590.798 L2526.48,590.001 C2527.06,590.001 2527.51,590.222 2527.84,590.665 C2528.18,591.108 2528.14,591.506 2527.74,591.86 L2496.87,627.786 L2514.99,627.786 L2514.99,613.575 C2514.99,612.557 2515.27,611.771 2515.82,611.218 C2516.38,610.664 2517.09,610.222 2517.95,609.889 C2518.81,609.557 2519.94,608.572 2521.34,606.934 C2522.73,605.296 2524.07,603.083 2525.35,600.294 C2525.58,599.851 2525.91,599.63 2526.35,599.63 C2527.28,599.63 2527.74,600.139 2527.74,601.157 L2527.74,627.786 L2535.58,627.786 C2536.69,627.786 2537.24,628.295 2537.24,629.313 C2537.24,630.42 2536.69,630.973 2535.58,630.973 L2527.74,630.973 L2527.74,631.837 C2527.74,634.582 2528.48,636.972 2529.94,639.009 C2531.4,641.045 2533.28,642.063 2535.58,642.063 C2536.47,642.063 2536.91,642.462 2536.91,643.259 C2536.91,644.144 2536.47,644.587 2535.58,644.587 C2533.99,644.587 2531.62,644.354 2528.48,643.889 C2525.33,643.425 2522.95,643.192 2521.34,643.192 C2519.72,643.192 2517.34,643.425 2514.2,643.889 C2511.05,644.354 2508.69,644.587 2507.09,644.587 C2506.21,644.587 2505.76,644.144 2505.76,643.259 C2505.76,642.462 2506.21,642.063 2507.09,642.063 C2509.39,642.063 2511.29,641.045 2512.77,639.009 C2514.25,636.972 2514.99,634.582 2514.99,631.837 L2514.99,630.973 L2496.87,630.973 C2495.71,630.973 2494.86,630.697 2494.31,630.143 C2493.76,629.59 2493.48,629.026 2493.48,628.45 C2493.48,628.229 2494,627.465 2495.04,626.159 C2496.08,624.853 2497.35,623.115 2498.86,620.946 C2500.36,618.777 2501.86,616.309 2503.34,613.542 C2504.82,610.775 2506.09,607.455 2507.13,603.581 C2508.17,599.707 2508.69,595.8 2508.69,591.86 C2508.69,590.709 2509.17,590.134 2510.15,590.134 C2510.28,590.134 2510.74,590.244 2511.54,590.466 C2512.34,590.687 2513.36,590.919 2514.6,591.163 C2515.84,591.406 2517.03,591.528 2518.18,591.528"/>
<path class="FiguredBass" d="M3066.1,639.381 L3066.1,653.26 C3066.1,654.633 3065.4,655.319 3064,655.319 C3062.61,655.319 3061.91,654.633 3061.91,653.26 L3061.91,641.174 L3059.79,642.038 C3059.57,642.126 3059.28,642.17 3058.92,642.17 C3058.35,642.17 3057.84,641.949 3057.4,641.506 C3056.95,641.064 3056.73,640.554 3056.73,639.979 L3056.73,633.206 C3056.73,632.232 3057.2,631.545 3058.13,631.147 L3061.91,629.553 L3061.91,615.608 L3059.79,616.471 C3059.65,616.515 3059.48,616.538 3059.26,616.538 C3059.17,616.538 3059.06,616.538 3058.92,616.538 C3058.26,616.449 3057.73,616.206 3057.33,615.807 C3056.93,615.409 3056.73,614.944 3056.73,614.413 L3056.73,607.639 C3056.73,606.709 3057.2,606.045 3058.13,605.647 L3061.91,604.053 L3061.91,589.909 C3061.91,588.536 3062.61,587.85 3064,587.85 C3065.4,587.85 3066.1,588.536 3066.1,589.909 L3066.1,602.327 L3074.66,598.741 L3074.66,584.862 C3074.66,583.489 3075.35,582.803 3076.72,582.803 C3078.09,582.803 3078.78,583.489 3078.78,584.862 L3078.78,597.081 L3081.1,596.084 C3081.32,595.996 3081.57,595.952 3081.83,595.952 C3082.41,595.952 3082.93,596.173 3083.39,596.616 C3083.86,597.058 3084.09,597.567 3084.09,598.143 L3084.09,604.916 C3084.09,605.89 3083.6,606.577 3082.63,606.975 L3078.78,608.569 L3078.78,622.581 L3081.1,621.651 C3081.24,621.607 3081.39,621.584 3081.57,621.584 C3081.66,621.584 3081.74,621.584 3081.83,621.584 C3082.59,621.717 3083.15,621.961 3083.53,622.315 C3083.9,622.669 3084.09,623.134 3084.09,623.709 L3084.09,630.483 C3084.09,631.413 3083.6,632.077 3082.63,632.475 L3078.78,634.069 L3078.78,648.213 C3078.78,649.586 3078.09,650.272 3076.72,650.272 C3075.35,650.272 3074.66,649.586 3074.66,648.213 L3074.66,635.795 L3066.1,639.381 M3066.1,627.827 L3074.66,624.307 L3074.66,610.295 L3066.1,613.881 L3066.1,627.827 "/>
<path class="FiguredBass" d="M3318.42,595.048 C3318.55,595.048 3318.84,594.76 3319.28,594.184 C3321.19,591.484 3323.84,590.134 3327.25,590.134 C3330,590.134 3332.59,591.152 3335.02,593.188 C3337.46,595.225 3339.47,596.243 3341.07,596.243 C3342.79,596.243 3344.43,595.734 3345.98,594.716 C3347.53,593.697 3348.76,592.679 3349.67,591.661 C3350.57,590.643 3351.16,590.134 3351.43,590.134 C3351.87,590.134 3352.27,590.278 3352.62,590.565 C3352.97,590.853 3353.15,591.218 3353.15,591.661 C3353.15,591.971 3352.24,593.498 3350.43,596.243 C3348.61,598.988 3346.6,602.164 3344.39,605.772 C3342.17,609.38 3340.16,613.885 3338.34,619.286 C3336.53,624.687 3335.62,629.845 3335.62,634.759 C3335.62,636.662 3335.82,638.854 3336.22,641.333 C3336.53,643.236 3336.53,644.321 3336.22,644.587 C3336,644.808 3335.62,644.919 3335.09,644.919 C3334.87,644.919 3333.84,644.631 3332,644.056 C3330.16,643.48 3328.4,643.192 3326.72,643.192 C3325.22,643.192 3323.48,643.48 3321.51,644.056 C3319.54,644.631 3318.44,644.919 3318.22,644.919 C3317.74,644.919 3317.34,644.72 3317.03,644.321 C3316.72,643.923 3316.67,643.502 3316.89,643.059 C3319.51,636.817 3322.68,630.741 3326.42,624.831 C3330.16,618.921 3334.85,612.114 3340.47,604.411 C3338.34,605.562 3336.2,606.138 3334.03,606.138 C3331.72,606.138 3329.4,605.108 3327.05,603.05 C3324.71,600.991 3322.78,599.962 3321.28,599.962 C3320.17,599.962 3319.21,600.593 3318.39,601.854 C3317.57,603.116 3317.16,605.009 3317.16,607.532 L3317.16,615.7 C3317.16,616.807 3316.65,617.36 3315.63,617.36 C3314.53,617.36 3313.97,616.807 3313.97,615.7 L3313.97,591.794 C3313.97,590.687 3314.53,590.134 3315.63,590.134 C3316.65,590.134 3317.16,590.687 3317.16,591.794 L3317.16,593.321 C3317.16,593.675 3317.25,593.985 3317.43,594.251 C3317.96,594.782 3318.29,595.048 3318.42,595.048"/>
<path class="FiguredBass" d="M3334.89,707.208 C3334.41,707.739 3333.77,708.005 3332.97,708.005 C3332.17,708.005 3331.52,707.728 3331.01,707.175 C3330.5,706.621 3330.25,705.99 3330.25,705.282 L3330.25,695.786 L3320.75,695.786 C3319.95,695.786 3319.3,695.509 3318.79,694.956 C3318.28,694.403 3318.03,693.772 3318.03,693.063 C3318.03,692.355 3318.28,691.724 3318.79,691.171 C3319.3,690.617 3319.95,690.341 3320.75,690.341 L3330.25,690.341 L3330.25,680.845 C3330.25,680.136 3330.5,679.505 3331.01,678.952 C3331.52,678.399 3332.17,678.122 3332.97,678.122 C3333.77,678.122 3334.42,678.399 3334.93,678.952 C3335.44,679.505 3335.69,680.136 3335.69,680.845 L3335.69,690.341 L3345.19,690.341 C3345.98,690.341 3346.64,690.617 3347.15,691.171 C3347.66,691.724 3347.91,692.355 3347.91,693.063 C3347.91,693.772 3347.66,694.403 3347.15,694.956 C3346.64,695.509 3345.98,695.786 3345.19,695.786 L3335.69,695.786 L3335.69,705.282 C3335.69,705.99 3335.43,706.632 3334.89,707.208"/>
</svg>
