<?xml version="1.0" encoding="UTF-8" standalone="no"?>
<svg width="4209.44px" height="850.392px" viewBox="0 0 4209.44 850.392"
 xmlns="http://www.w3.org/2000/svg" xmlns:xlink="http://www.w3.org/1999/xlink" version="1.2" baseProfile="tiny">
<title>ExercicesDoMajeur (6)</title>
<desc>Generated by MuseScore 3.6.2</desc>
<polyline class="StaffLines" fill="none" stroke="#000000" stroke-width="4.68" stroke-linejoin="bevel" points="70.866,325.984 4138.58,325.984"/>
<polyline class="StaffLines" fill="none" stroke="#000000" stroke-width="4.68" stroke-linejoin="bevel" points="70.866,368.504 4138.58,368.504"/>
<polyline class="StaffLines" fill="none" stroke="#000000" stroke-width="4.68" stroke-linejoin="bevel" points="70.866,411.024 4138.58,411.024"/>
<polyline class="StaffLines" fill="none" stroke="#000000" stroke-width="4.68" stroke-linejoin="bevel" points="70.866,453.543 4138.58,453.543"/>
<polyline class="StaffLines" fill="none" stroke="#000000" stroke-width="4.68" stroke-linejoin="bevel" points="70.866,496.063 4138.58,496.063"/>
<polyline class="BarLine" fill="none" stroke="#000000" stroke-width="7.65" stroke-linejoin="bevel" points="784.671,323.646 784.671,498.402"/>
<polyline class="BarLine" fill="none" stroke="#000000" stroke-width="7.65" stroke-linejoin="bevel" points="1326.79,323.646 1326.79,498.402"/>
<polyline class="BarLine" fill="none" stroke="#000000" stroke-width="7.65" stroke-linejoin="bevel" points="1868.91,323.646 1868.91,498.402"/>
<polyline class="BarLine" fill="none" stroke="#000000" stroke-width="7.65" stroke-linejoin="bevel" points="2411.03,323.646 2411.03,498.402"/>
<polyline class="BarLine" fill="none" stroke="#000000" stroke-width="7.65" stroke-linejoin="bevel" points="2953.15,323.646 2953.15,498.402"/>
<polyline class="BarLine" fill="none" stroke="#000000" stroke-width="7.65" stroke-linejoin="bevel" points="3558.49,323.646 3558.49,498.402"/>
<polyline class="BarLine" fill="none" stroke="#000000" stroke-width="7.65" stroke-linejoin="bevel" points="4097.12,323.646 4097.12,498.402"/>
<polyline class="BarLine" fill="none" stroke="#000000" stroke-width="23.39" stroke-linejoin="bevel" points="4126.89,323.646 4126.89,498.402"/>
<polyline class="LedgerLine" fill="none" stroke="#000000" stroke-width="6.80" stroke-linejoin="bevel" points="305.143,581.102 398.341,581.102"/>
<polyline class="LedgerLine" fill="none" stroke="#000000" stroke-width="6.80" stroke-linejoin="bevel" points="305.143,538.583 398.341,538.583"/>
<polyline class="LedgerLine" fill="none" stroke="#000000" stroke-width="6.80" stroke-linejoin="bevel" points="843.774,538.583 936.971,538.583"/>
<polyline class="LedgerLine" fill="none" stroke="#000000" stroke-width="6.80" stroke-linejoin="bevel" points="1385.89,538.583 1479.09,538.583"/>
<polyline class="LedgerLine" fill="none" stroke="#000000" stroke-width="6.80" stroke-linejoin="bevel" points="1928.01,581.102 2021.21,581.102"/>
<polyline class="LedgerLine" fill="none" stroke="#000000" stroke-width="6.80" stroke-linejoin="bevel" points="1928.01,538.583 2021.21,538.583"/>
<polyline class="LedgerLine" fill="none" stroke="#000000" stroke-width="6.80" stroke-linejoin="bevel" points="3012.25,623.622 3105.45,623.622"/>
<polyline class="LedgerLine" fill="none" stroke="#000000" stroke-width="6.80" stroke-linejoin="bevel" points="3012.25,581.102 3105.45,581.102"/>
<polyline class="LedgerLine" fill="none" stroke="#000000" stroke-width="6.80" stroke-linejoin="bevel" points="3012.25,538.583 3105.45,538.583"/>
<polyline class="LedgerLine" fill="none" stroke="#000000" stroke-width="6.80" stroke-linejoin="bevel" points="3617.59,581.102 3710.79,581.102"/>
<polyline class="LedgerLine" fill="none" stroke="#000000" stroke-width="6.80" stroke-linejoin="bevel" points="3617.59,538.583 3710.79,538.583"/>
<path class="Note" transform="matrix(1.70079,0,0,1.70079,320.025,581.102)" d="M18.7,-13.6 C4.9,-13.6 0,-6.6 0,-0.1 C0,6.4 4.9,13.4 18.7,13.4 C32.5,13.4 37.3,6.4 37.3,-0.1 C37.3,-6.6 32.5,-13.6 18.7,-13.6 M10.4,-4.5 C10.3,-4.9 10.3,-5.3 10.3,-5.7 C10.3,-6.5 10.5,-7.3 10.9,-8 C11.6,-9 12.8,-9.7 14.3,-10 C15.6,-10.3 16.3,-10.5 18.9,-10.5 L19,-10.5 C23,-10.5 24.3,-6.8 25.4,-3 L25.7,-2 C26.5,0.6 26.9,2.8 26.9,4.5 C26.9,5.7 26.7,6.8 26.3,7.6 C25.7,8.7 24.7,9.4 23,9.8 C22.1,10 20.6,10.1 20.6,10.1 C20.1,10.1 19.7,10.2 19.3,10.2 C16.1,10.2 14.1,9 12.7,4.7 C11.5,1 11.3,-0.1 10.4,-4.5"/>
<path class="Note" transform="matrix(1.70079,0,0,1.70079,858.656,538.583)" d="M18.7,-13.6 C4.9,-13.6 0,-6.6 0,-0.1 C0,6.4 4.9,13.4 18.7,13.4 C32.5,13.4 37.3,6.4 37.3,-0.1 C37.3,-6.6 32.5,-13.6 18.7,-13.6 M10.4,-4.5 C10.3,-4.9 10.3,-5.3 10.3,-5.7 C10.3,-6.5 10.5,-7.3 10.9,-8 C11.6,-9 12.8,-9.7 14.3,-10 C15.6,-10.3 16.3,-10.5 18.9,-10.5 L19,-10.5 C23,-10.5 24.3,-6.8 25.4,-3 L25.7,-2 C26.5,0.6 26.9,2.8 26.9,4.5 C26.9,5.7 26.7,6.8 26.3,7.6 C25.7,8.7 24.7,9.4 23,9.8 C22.1,10 20.6,10.1 20.6,10.1 C20.1,10.1 19.7,10.2 19.3,10.2 C16.1,10.2 14.1,9 12.7,4.7 C11.5,1 11.3,-0.1 10.4,-4.5"/>
<path class="Note" transform="matrix(1.70079,0,0,1.70079,1400.77,559.843)" d="M18.7,-13.6 C4.9,-13.6 0,-6.6 0,-0.1 C0,6.4 4.9,13.4 18.7,13.4 C32.5,13.4 37.3,6.4 37.3,-0.1 C37.3,-6.6 32.5,-13.6 18.7,-13.6 M10.4,-4.5 C10.3,-4.9 10.3,-5.3 10.3,-5.7 C10.3,-6.5 10.5,-7.3 10.9,-8 C11.6,-9 12.8,-9.7 14.3,-10 C15.6,-10.3 16.3,-10.5 18.9,-10.5 L19,-10.5 C23,-10.5 24.3,-6.8 25.4,-3 L25.7,-2 C26.5,0.6 26.9,2.8 26.9,4.5 C26.9,5.7 26.7,6.8 26.3,7.6 C25.7,8.7 24.7,9.4 23,9.8 C22.1,10 20.6,10.1 20.6,10.1 C20.1,10.1 19.7,10.2 19.3,10.2 C16.1,10.2 14.1,9 12.7,4.7 C11.5,1 11.3,-0.1 10.4,-4.5"/>
<path class="Note" transform="matrix(1.70079,0,0,1.70079,1942.89,581.102)" d="M18.7,-13.6 C4.9,-13.6 0,-6.6 0,-0.1 C0,6.4 4.9,13.4 18.7,13.4 C32.5,13.4 37.3,6.4 37.3,-0.1 C37.3,-6.6 32.5,-13.6 18.7,-13.6 M10.4,-4.5 C10.3,-4.9 10.3,-5.3 10.3,-5.7 C10.3,-6.5 10.5,-7.3 10.9,-8 C11.6,-9 12.8,-9.7 14.3,-10 C15.6,-10.3 16.3,-10.5 18.9,-10.5 L19,-10.5 C23,-10.5 24.3,-6.8 25.4,-3 L25.7,-2 C26.5,0.6 26.9,2.8 26.9,4.5 C26.9,5.7 26.7,6.8 26.3,7.6 C25.7,8.7 24.7,9.4 23,9.8 C22.1,10 20.6,10.1 20.6,10.1 C20.1,10.1 19.7,10.2 19.3,10.2 C16.1,10.2 14.1,9 12.7,4.7 C11.5,1 11.3,-0.1 10.4,-4.5"/>
<path class="Note" transform="matrix(1.70079,0,0,1.70079,2470.13,496.063)" d="M18.7,-13.6 C4.9,-13.6 0,-6.6 0,-0.1 C0,6.4 4.9,13.4 18.7,13.4 C32.5,13.4 37.3,6.4 37.3,-0.1 C37.3,-6.6 32.5,-13.6 18.7,-13.6 M10.4,-4.5 C10.3,-4.9 10.3,-5.3 10.3,-5.7 C10.3,-6.5 10.5,-7.3 10.9,-8 C11.6,-9 12.8,-9.7 14.3,-10 C15.6,-10.3 16.3,-10.5 18.9,-10.5 L19,-10.5 C23,-10.5 24.3,-6.8 25.4,-3 L25.7,-2 C26.5,0.6 26.9,2.8 26.9,4.5 C26.9,5.7 26.7,6.8 26.3,7.6 C25.7,8.7 24.7,9.4 23,9.8 C22.1,10 20.6,10.1 20.6,10.1 C20.1,10.1 19.7,10.2 19.3,10.2 C16.1,10.2 14.1,9 12.7,4.7 C11.5,1 11.3,-0.1 10.4,-4.5"/>
<path class="Note" transform="matrix(1.70079,0,0,1.70079,3027.13,644.882)" d="M18.7,-13.6 C4.9,-13.6 0,-6.6 0,-0.1 C0,6.4 4.9,13.4 18.7,13.4 C32.5,13.4 37.3,6.4 37.3,-0.1 C37.3,-6.6 32.5,-13.6 18.7,-13.6 M10.4,-4.5 C10.3,-4.9 10.3,-5.3 10.3,-5.7 C10.3,-6.5 10.5,-7.3 10.9,-8 C11.6,-9 12.8,-9.7 14.3,-10 C15.6,-10.3 16.3,-10.5 18.9,-10.5 L19,-10.5 C23,-10.5 24.3,-6.8 25.4,-3 L25.7,-2 C26.5,0.6 26.9,2.8 26.9,4.5 C26.9,5.7 26.7,6.8 26.3,7.6 C25.7,8.7 24.7,9.4 23,9.8 C22.1,10 20.6,10.1 20.6,10.1 C20.1,10.1 19.7,10.2 19.3,10.2 C16.1,10.2 14.1,9 12.7,4.7 C11.5,1 11.3,-0.1 10.4,-4.5"/>
<path class="Note" transform="matrix(1.70079,0,0,1.70079,3632.47,581.102)" d="M18.7,-13.6 C4.9,-13.6 0,-6.6 0,-0.1 C0,6.4 4.9,13.4 18.7,13.4 C32.5,13.4 37.3,6.4 37.3,-0.1 C37.3,-6.6 32.5,-13.6 18.7,-13.6 M10.4,-4.5 C10.3,-4.9 10.3,-5.3 10.3,-5.7 C10.3,-6.5 10.5,-7.3 10.9,-8 C11.6,-9 12.8,-9.7 14.3,-10 C15.6,-10.3 16.3,-10.5 18.9,-10.5 L19,-10.5 C23,-10.5 24.3,-6.8 25.4,-3 L25.7,-2 C26.5,0.6 26.9,2.8 26.9,4.5 C26.9,5.7 26.7,6.8 26.3,7.6 C25.7,8.7 24.7,9.4 23,9.8 C22.1,10 20.6,10.1 20.6,10.1 C20.1,10.1 19.7,10.2 19.3,10.2 C16.1,10.2 14.1,9 12.7,4.7 C11.5,1 11.3,-0.1 10.4,-4.5"/>
<path class="Clef" transform="matrix(1.70079,0,0,1.70079,104.882,368.504)" d="M25.4,-25.1 C17.8,-25.1 11.7,-20.7 11.6,-20.7 C5.8,-16.4 3.5,-11.3 2.6,-7.8 C2.1,-6 1.9,-4.2 1.9,-2.5 C1.9,-0.1 2.3,2.1 3.2,4 C4.4,6.7 6.7,8.6 9.7,9.6 C10.9,10 12.2,10.2 13.5,10.2 C15.7,10.2 18,9.6 19.9,8.5 C23,6.8 24.9,3.2 24.9,-0.7 C24.9,-4.2 23.1,-7.4 20.1,-9.3 C18,-10.7 16,-11.1 14.3,-11.1 C13.1,-11.1 12,-10.9 11.1,-10.6 C10.1,-10.2 8.4,-9.2 7.6,-8.5 C7.9,-10.4 9.1,-13.3 10.2,-14.9 C11.3,-16.5 13.5,-18.5 15.2,-19.4 C17.7,-20.8 20.9,-21.4 24.4,-21.4 C34.6,-21.4 39.6,-13.2 39.6,3.6 C39.6,12.9 36.1,21.8 33.1,27.7 C29.8,34.3 25.4,40.6 21.5,44.1 C11.1,53.6 1.3,58.1 1.2,58.1 C1.2,58.1 -0.3,59 0.1,60.5 C0.4,61.5 1.3,61.7 1.9,61.7 C2,61.7 2.3,61.6 2.4,61.6 C2.5,61.6 13.9,56.9 23,49.8 C28.1,46.1 32.7,42.1 36.7,37.8 C40.3,33.9 43.4,29.7 45.9,25.5 C50.3,18 52.8,10.2 52.8,3.5 C52.8,-4.8 50.6,-11.7 46.5,-16.6 C41.8,-22.2 34.7,-25.1 25.4,-25.1 M56.8,-12.4 C56.8,-9.6 59,-7.4 61.6,-7.4 C64.2,-7.4 66.4,-9.6 66.4,-12.4 C66.4,-15.2 64.2,-17.5 61.6,-17.5 C59,-17.5 56.8,-15.2 56.8,-12.4 M56.8,12.3 C56.8,15.1 59,17.4 61.6,17.4 C64.2,17.4 66.4,15.1 66.4,12.3 C66.4,9.5 64.2,7.2 61.6,7.2 C59,7.2 56.8,9.5 56.8,12.3"/>
<path class="FiguredBass" d="M892.365,594.358 C889.089,594.358 886.908,595.675 885.824,598.309 C884.739,600.943 884.197,604.673 884.197,609.498 L884.197,617.334 C886.499,616.405 888.491,615.918 890.173,615.873 C895.929,615.873 900.455,617.146 903.753,619.692 C907.052,622.237 908.701,626.023 908.701,631.047 C908.701,636.072 907.029,639.868 903.687,642.436 C900.345,645.004 895.84,646.288 890.173,646.288 C884.374,646.288 879.836,643.598 876.56,638.219 C873.284,632.84 871.646,626.454 871.646,619.061 C871.646,611.712 873.55,605.337 877.357,599.936 C881.164,594.535 886.167,591.834 892.365,591.834 C896.438,591.834 899.957,592.864 902.923,594.922 C905.889,596.981 907.373,599.692 907.373,603.057 C907.373,605.005 906.664,606.687 905.248,608.104 C903.831,609.521 902.138,610.229 900.167,610.229 C898.197,610.229 896.504,609.521 895.087,608.104 C893.671,606.687 892.962,605.005 892.962,603.057 C892.962,601.153 893.671,599.471 895.087,598.01 C895.574,597.435 896.261,596.948 897.146,596.549 C896.925,595.974 896.482,595.531 895.818,595.221 C894.844,594.646 893.693,594.358 892.365,594.358 M895.619,621.518 C894.822,619.437 893.073,618.397 890.373,618.397 C887.672,618.397 886.001,619.437 885.359,621.518 C884.717,623.599 884.396,626.764 884.396,631.014 C884.396,636.017 884.717,639.381 885.359,641.108 C886.001,642.834 887.672,643.698 890.373,643.698 C893.073,643.698 894.822,642.657 895.619,640.577 C896.416,638.496 896.814,635.319 896.814,631.047 C896.814,626.775 896.416,623.599 895.619,621.518"/>
<path class="FiguredBass" d="M1396.24,654.465 C1395.75,654.997 1395.11,655.262 1394.32,655.262 C1393.52,655.262 1392.87,654.986 1392.36,654.432 C1391.85,653.879 1391.59,653.248 1391.59,652.54 L1391.59,643.043 L1382.1,643.043 C1381.3,643.043 1380.65,642.767 1380.14,642.213 C1379.63,641.66 1379.37,641.029 1379.37,640.321 C1379.37,639.612 1379.63,638.982 1380.14,638.428 C1380.65,637.875 1381.3,637.598 1382.1,637.598 L1391.59,637.598 L1391.59,628.102 C1391.59,627.394 1391.85,626.763 1392.36,626.209 C1392.87,625.656 1393.52,625.379 1394.32,625.379 C1395.11,625.379 1395.77,625.656 1396.27,626.209 C1396.78,626.763 1397.04,627.394 1397.04,628.102 L1397.04,637.598 L1406.53,637.598 C1407.33,637.598 1407.98,637.875 1408.49,638.428 C1409,638.982 1409.26,639.612 1409.26,640.321 C1409.26,641.029 1409,641.66 1408.49,642.213 C1407.98,642.767 1407.33,643.043 1406.53,643.043 L1397.04,643.043 L1397.04,652.54 C1397.04,653.248 1396.77,653.89 1396.24,654.465 M1434.48,615.618 C1431.21,615.618 1429.03,616.935 1427.94,619.569 C1426.86,622.203 1426.32,625.933 1426.32,630.758 L1426.32,638.594 C1428.62,637.665 1430.61,637.178 1432.29,637.133 C1438.05,637.133 1442.57,638.406 1445.87,640.952 C1449.17,643.497 1450.82,647.282 1450.82,652.307 C1450.82,657.332 1449.15,661.128 1445.81,663.696 C1442.46,666.264 1437.96,667.547 1432.29,667.547 C1426.49,667.547 1421.95,664.858 1418.68,659.479 C1415.4,654.1 1413.76,647.714 1413.76,640.321 C1413.76,632.972 1415.67,626.597 1419.48,621.196 C1423.28,615.795 1428.29,613.094 1434.48,613.094 C1438.56,613.094 1442.08,614.124 1445.04,616.182 C1448.01,618.241 1449.49,620.952 1449.49,624.317 C1449.49,626.265 1448.78,627.947 1447.37,629.364 C1445.95,630.78 1444.26,631.489 1442.29,631.489 C1440.32,631.489 1438.62,630.78 1437.21,629.364 C1435.79,627.947 1435.08,626.265 1435.08,624.317 C1435.08,622.413 1435.79,620.731 1437.21,619.27 C1437.69,618.695 1438.38,618.208 1439.26,617.809 C1439.04,617.234 1438.6,616.791 1437.94,616.481 C1436.96,615.905 1435.81,615.618 1434.48,615.618 M1437.74,642.778 C1436.94,640.697 1435.19,639.657 1432.49,639.657 C1429.79,639.657 1428.12,640.697 1427.48,642.778 C1426.84,644.859 1426.51,648.024 1426.51,652.274 C1426.51,657.277 1426.84,660.641 1427.48,662.368 C1428.12,664.094 1429.79,664.958 1432.49,664.958 C1435.19,664.958 1436.94,663.917 1437.74,661.836 C1438.53,659.756 1438.93,656.579 1438.93,652.307 C1438.93,648.035 1438.53,644.859 1437.74,642.778"/>
<path class="FiguredBass" d="M2503.37,591.528 C2505.06,591.528 2506.83,591.285 2508.69,590.798 L2511.68,590.001 C2512.25,590.001 2512.7,590.222 2513.04,590.665 C2513.37,591.108 2513.34,591.506 2512.94,591.86 L2482.06,627.786 L2500.19,627.786 L2500.19,613.575 C2500.19,612.557 2500.46,611.771 2501.02,611.218 C2501.57,610.664 2502.28,610.222 2503.14,609.889 C2504.01,609.557 2505.13,608.572 2506.53,606.934 C2507.92,605.296 2509.26,603.083 2510.55,600.294 C2510.77,599.851 2511.1,599.63 2511.54,599.63 C2512.47,599.63 2512.94,600.139 2512.94,601.157 L2512.94,627.786 L2520.77,627.786 C2521.88,627.786 2522.43,628.295 2522.43,629.313 C2522.43,630.42 2521.88,630.973 2520.77,630.973 L2512.94,630.973 L2512.94,631.837 C2512.94,634.582 2513.67,636.972 2515.13,639.009 C2516.59,641.045 2518.47,642.063 2520.77,642.063 C2521.66,642.063 2522.1,642.462 2522.1,643.259 C2522.1,644.144 2521.66,644.587 2520.77,644.587 C2519.18,644.587 2516.81,644.354 2513.67,643.889 C2510.52,643.425 2508.14,643.192 2506.53,643.192 C2504.91,643.192 2502.53,643.425 2499.39,643.889 C2496.25,644.354 2493.88,644.587 2492.28,644.587 C2491.4,644.587 2490.96,644.144 2490.96,643.259 C2490.96,642.462 2491.4,642.063 2492.28,642.063 C2494.59,642.063 2496.48,641.045 2497.96,639.009 C2499.45,636.972 2500.19,634.582 2500.19,631.837 L2500.19,630.973 L2482.06,630.973 C2480.91,630.973 2480.05,630.697 2479.5,630.143 C2478.95,629.59 2478.67,629.026 2478.67,628.45 C2478.67,628.229 2479.19,627.465 2480.23,626.159 C2481.27,624.853 2482.54,623.115 2484.05,620.946 C2485.56,618.777 2487.05,616.309 2488.53,613.542 C2490.02,610.775 2491.28,607.455 2492.32,603.581 C2493.36,599.707 2493.88,595.8 2493.88,591.86 C2493.88,590.709 2494.37,590.134 2495.34,590.134 C2495.47,590.134 2495.94,590.244 2496.73,590.466 C2497.53,590.687 2498.55,590.919 2499.79,591.163 C2501.03,591.406 2502.22,591.528 2503.37,591.528"/>
<path class="FiguredBass" d="M3069.34,723.7 C3069.34,724.408 3069.74,725.095 3070.54,725.759 C3071.33,726.423 3072.21,727.054 3073.16,727.651 C3074.11,728.249 3074.98,729.378 3075.78,731.038 C3076.58,732.698 3076.98,734.79 3076.98,737.313 C3076.98,742.183 3075.14,745.946 3071.46,748.602 C3067.79,751.259 3063.14,752.587 3057.52,752.587 C3053,752.587 3049.07,751.458 3045.73,749.2 C3042.39,746.942 3040.72,743.976 3040.72,740.302 C3040.72,738.354 3041.43,736.66 3042.84,735.222 C3044.26,733.783 3045.95,733.063 3047.92,733.063 C3049.89,733.063 3051.57,733.772 3052.94,735.188 C3054.31,736.605 3055,738.309 3055,740.302 C3055,741.187 3054.27,742.15 3052.8,743.19 C3051.34,744.231 3050.61,745.194 3050.61,746.079 C3050.61,747.451 3051.29,748.458 3052.64,749.1 C3053.99,749.742 3055.62,750.063 3057.52,750.063 C3060,750.063 3061.76,748.835 3062.8,746.378 C3063.84,743.921 3064.36,740.899 3064.36,737.313 L3064.36,735.587 C3064.36,733.196 3064.28,731.381 3064.13,730.141 C3063.97,728.902 3063.48,727.795 3062.67,726.821 C3061.85,725.847 3060.6,725.36 3058.91,725.36 L3050.21,725.36 C3049.2,725.36 3048.69,724.807 3048.69,723.7 C3048.69,722.682 3049.2,722.173 3050.21,722.173 L3058.91,722.173 C3060.73,722.173 3062.15,721.486 3063.16,720.114 C3063.52,719.627 3063.81,718.83 3064.03,717.723 C3064.25,716.263 3064.36,714.16 3064.36,711.415 L3064.36,710.552 C3064.36,703.955 3061.92,700.657 3057.05,700.657 C3052.76,700.657 3050.61,701.852 3050.61,704.243 C3050.61,705.04 3051.27,705.892 3052.57,706.8 C3053.88,707.707 3054.53,708.559 3054.53,709.356 C3054.53,711.083 3053.92,712.566 3052.7,713.806 C3051.49,715.045 3050,715.665 3048.26,715.665 C3046.51,715.665 3045.04,715.045 3043.84,713.806 C3042.64,712.566 3042.05,711.083 3042.05,709.356 C3042.05,705.947 3043.53,703.225 3046.5,701.188 C3049.46,699.152 3052.98,698.134 3057.05,698.134 C3062.41,698.134 3066.82,699.163 3070.27,701.222 C3073.72,703.28 3075.45,706.39 3075.45,710.552 C3075.45,713.518 3075.14,715.82 3074.52,717.458 C3073.9,719.096 3073.19,720.092 3072.39,720.446 C3071.6,720.8 3070.89,721.21 3070.27,721.675 C3069.65,722.139 3069.34,722.815 3069.34,723.7"/>
<path class="FiguredBass" d="M3306.03,595.048 C3306.16,595.048 3306.45,594.76 3306.89,594.184 C3308.8,591.484 3311.45,590.134 3314.86,590.134 C3317.61,590.134 3320.19,591.152 3322.63,593.188 C3325.06,595.225 3327.08,596.243 3328.67,596.243 C3330.4,596.243 3332.04,595.734 3333.59,594.716 C3335.14,593.697 3336.36,592.679 3337.27,591.661 C3338.18,590.643 3338.77,590.134 3339.03,590.134 C3339.47,590.134 3339.87,590.278 3340.23,590.565 C3340.58,590.853 3340.76,591.218 3340.76,591.661 C3340.76,591.971 3339.85,593.498 3338.04,596.243 C3336.22,598.988 3334.21,602.164 3331.99,605.772 C3329.78,609.38 3327.77,613.885 3325.95,619.286 C3324.14,624.687 3323.23,629.845 3323.23,634.759 C3323.23,636.662 3323.43,638.854 3323.83,641.333 C3324.14,643.236 3324.14,644.321 3323.83,644.587 C3323.6,644.808 3323.23,644.919 3322.7,644.919 C3322.47,644.919 3321.45,644.631 3319.61,644.056 C3317.77,643.48 3316.01,643.192 3314.33,643.192 C3312.82,643.192 3311.09,643.48 3309.12,644.056 C3307.15,644.631 3306.05,644.919 3305.83,644.919 C3305.34,644.919 3304.94,644.72 3304.63,644.321 C3304.32,643.923 3304.28,643.502 3304.5,643.059 C3307.11,636.817 3310.29,630.741 3314.03,624.831 C3317.77,618.921 3322.45,612.114 3328.08,604.411 C3325.95,605.562 3323.8,606.138 3321.63,606.138 C3319.33,606.138 3317.01,605.108 3314.66,603.05 C3312.31,600.991 3310.39,599.962 3308.88,599.962 C3307.78,599.962 3306.81,600.593 3306,601.854 C3305.18,603.116 3304.77,605.009 3304.77,607.532 L3304.77,615.7 C3304.77,616.807 3304.26,617.36 3303.24,617.36 C3302.13,617.36 3301.58,616.807 3301.58,615.7 L3301.58,591.794 C3301.58,590.687 3302.13,590.134 3303.24,590.134 C3304.26,590.134 3304.77,590.687 3304.77,591.794 L3304.77,593.321 C3304.77,593.675 3304.86,593.985 3305.03,594.251 C3305.56,594.782 3305.9,595.048 3306.03,595.048"/>
<path class="FiguredBass" d="M3322.5,707.208 C3322.01,707.739 3321.37,708.005 3320.58,708.005 C3319.78,708.005 3319.13,707.728 3318.62,707.175 C3318.11,706.621 3317.85,705.99 3317.85,705.282 L3317.85,695.786 L3308.36,695.786 C3307.56,695.786 3306.91,695.509 3306.4,694.956 C3305.89,694.403 3305.63,693.772 3305.63,693.063 C3305.63,692.355 3305.89,691.724 3306.4,691.171 C3306.91,690.617 3307.56,690.341 3308.36,690.341 L3317.85,690.341 L3317.85,680.845 C3317.85,680.136 3318.11,679.505 3318.62,678.952 C3319.13,678.399 3319.78,678.122 3320.58,678.122 C3321.37,678.122 3322.03,678.399 3322.53,678.952 C3323.04,679.505 3323.3,680.136 3323.3,680.845 L3323.3,690.341 L3332.79,690.341 C3333.59,690.341 3334.24,690.617 3334.75,691.171 C3335.26,691.724 3335.52,692.355 3335.52,693.063 C3335.52,693.772 3335.26,694.403 3334.75,694.956 C3334.24,695.509 3333.59,695.786 3332.79,695.786 L3323.3,695.786 L3323.3,705.282 C3323.3,705.99 3323.03,706.632 3322.5,707.208"/>
</svg>
