<?xml version="1.0" encoding="UTF-8" standalone="no"?>
<svg width="4209.44px" height="850.392px" viewBox="0 0 4209.44 850.392"
 xmlns="http://www.w3.org/2000/svg" xmlns:xlink="http://www.w3.org/1999/xlink" version="1.2" baseProfile="tiny">
<title>ExercicesMiMineur (11)</title>
<desc>Generated by MuseScore 3.6.2</desc>
<polyline class="StaffLines" fill="none" stroke="#000000" stroke-width="4.68" stroke-linejoin="bevel" points="70.866,325.984 4138.58,325.984"/>
<polyline class="StaffLines" fill="none" stroke="#000000" stroke-width="4.68" stroke-linejoin="bevel" points="70.866,368.504 4138.58,368.504"/>
<polyline class="StaffLines" fill="none" stroke="#000000" stroke-width="4.68" stroke-linejoin="bevel" points="70.866,411.024 4138.58,411.024"/>
<polyline class="StaffLines" fill="none" stroke="#000000" stroke-width="4.68" stroke-linejoin="bevel" points="70.866,453.543 4138.58,453.543"/>
<polyline class="StaffLines" fill="none" stroke="#000000" stroke-width="4.68" stroke-linejoin="bevel" points="70.866,496.063 4138.58,496.063"/>
<polyline class="BarLine" fill="none" stroke="#000000" stroke-width="7.65" stroke-linejoin="bevel" points="721.044,323.646 721.044,498.402"/>
<polyline class="BarLine" fill="none" stroke="#000000" stroke-width="7.65" stroke-linejoin="bevel" points="1096.55,323.646 1096.55,498.402"/>
<polyline class="BarLine" fill="none" stroke="#000000" stroke-width="7.65" stroke-linejoin="bevel" points="1472.06,323.646 1472.06,498.402"/>
<polyline class="BarLine" fill="none" stroke="#000000" stroke-width="7.65" stroke-linejoin="bevel" points="1847.57,323.646 1847.57,498.402"/>
<polyline class="BarLine" fill="none" stroke="#000000" stroke-width="7.65" stroke-linejoin="bevel" points="2223.07,323.646 2223.07,498.402"/>
<polyline class="BarLine" fill="none" stroke="#000000" stroke-width="7.65" stroke-linejoin="bevel" points="2598.58,323.646 2598.58,498.402"/>
<polyline class="BarLine" fill="none" stroke="#000000" stroke-width="7.65" stroke-linejoin="bevel" points="2974.09,323.646 2974.09,498.402"/>
<polyline class="BarLine" fill="none" stroke="#000000" stroke-width="7.65" stroke-linejoin="bevel" points="3349.59,323.646 3349.59,498.402"/>
<polyline class="BarLine" fill="none" stroke="#000000" stroke-width="7.65" stroke-linejoin="bevel" points="3725.1,323.646 3725.1,498.402"/>
<polyline class="BarLine" fill="none" stroke="#000000" stroke-width="7.65" stroke-linejoin="bevel" points="4097.12,323.646 4097.12,498.402"/>
<polyline class="BarLine" fill="none" stroke="#000000" stroke-width="23.39" stroke-linejoin="bevel" points="4126.89,323.646 4126.89,498.402"/>
<polyline class="LedgerLine" fill="none" stroke="#000000" stroke-width="6.80" stroke-linejoin="bevel" points="408.127,538.583 501.325,538.583"/>
<polyline class="LedgerLine" fill="none" stroke="#000000" stroke-width="6.80" stroke-linejoin="bevel" points="3408.7,581.102 3501.89,581.102"/>
<polyline class="LedgerLine" fill="none" stroke="#000000" stroke-width="6.80" stroke-linejoin="bevel" points="3408.7,538.583 3501.89,538.583"/>
<polyline class="LedgerLine" fill="none" stroke="#000000" stroke-width="6.80" stroke-linejoin="bevel" points="3784.2,538.583 3877.4,538.583"/>
<path class="Note" transform="matrix(1.70079,0,0,1.70079,423.009,538.583)" d="M18.7,-13.6 C4.9,-13.6 0,-6.6 0,-0.1 C0,6.4 4.9,13.4 18.7,13.4 C32.5,13.4 37.3,6.4 37.3,-0.1 C37.3,-6.6 32.5,-13.6 18.7,-13.6 M10.4,-4.5 C10.3,-4.9 10.3,-5.3 10.3,-5.7 C10.3,-6.5 10.5,-7.3 10.9,-8 C11.6,-9 12.8,-9.7 14.3,-10 C15.6,-10.3 16.3,-10.5 18.9,-10.5 L19,-10.5 C23,-10.5 24.3,-6.8 25.4,-3 L25.7,-2 C26.5,0.6 26.9,2.8 26.9,4.5 C26.9,5.7 26.7,6.8 26.3,7.6 C25.7,8.7 24.7,9.4 23,9.8 C22.1,10 20.6,10.1 20.6,10.1 C20.1,10.1 19.7,10.2 19.3,10.2 C16.1,10.2 14.1,9 12.7,4.7 C11.5,1 11.3,-0.1 10.4,-4.5"/>
<path class="Note" transform="matrix(1.70079,0,0,1.70079,780.146,517.323)" d="M18.7,-13.6 C4.9,-13.6 0,-6.6 0,-0.1 C0,6.4 4.9,13.4 18.7,13.4 C32.5,13.4 37.3,6.4 37.3,-0.1 C37.3,-6.6 32.5,-13.6 18.7,-13.6 M10.4,-4.5 C10.3,-4.9 10.3,-5.3 10.3,-5.7 C10.3,-6.5 10.5,-7.3 10.9,-8 C11.6,-9 12.8,-9.7 14.3,-10 C15.6,-10.3 16.3,-10.5 18.9,-10.5 L19,-10.5 C23,-10.5 24.3,-6.8 25.4,-3 L25.7,-2 C26.5,0.6 26.9,2.8 26.9,4.5 C26.9,5.7 26.7,6.8 26.3,7.6 C25.7,8.7 24.7,9.4 23,9.8 C22.1,10 20.6,10.1 20.6,10.1 C20.1,10.1 19.7,10.2 19.3,10.2 C16.1,10.2 14.1,9 12.7,4.7 C11.5,1 11.3,-0.1 10.4,-4.5"/>
<path class="Note" transform="matrix(1.70079,0,0,1.70079,1155.65,496.063)" d="M18.7,-13.6 C4.9,-13.6 0,-6.6 0,-0.1 C0,6.4 4.9,13.4 18.7,13.4 C32.5,13.4 37.3,6.4 37.3,-0.1 C37.3,-6.6 32.5,-13.6 18.7,-13.6 M10.4,-4.5 C10.3,-4.9 10.3,-5.3 10.3,-5.7 C10.3,-6.5 10.5,-7.3 10.9,-8 C11.6,-9 12.8,-9.7 14.3,-10 C15.6,-10.3 16.3,-10.5 18.9,-10.5 L19,-10.5 C23,-10.5 24.3,-6.8 25.4,-3 L25.7,-2 C26.5,0.6 26.9,2.8 26.9,4.5 C26.9,5.7 26.7,6.8 26.3,7.6 C25.7,8.7 24.7,9.4 23,9.8 C22.1,10 20.6,10.1 20.6,10.1 C20.1,10.1 19.7,10.2 19.3,10.2 C16.1,10.2 14.1,9 12.7,4.7 C11.5,1 11.3,-0.1 10.4,-4.5"/>
<path class="Note" transform="matrix(1.70079,0,0,1.70079,1531.16,474.803)" d="M18.7,-13.6 C4.9,-13.6 0,-6.6 0,-0.1 C0,6.4 4.9,13.4 18.7,13.4 C32.5,13.4 37.3,6.4 37.3,-0.1 C37.3,-6.6 32.5,-13.6 18.7,-13.6 M10.4,-4.5 C10.3,-4.9 10.3,-5.3 10.3,-5.7 C10.3,-6.5 10.5,-7.3 10.9,-8 C11.6,-9 12.8,-9.7 14.3,-10 C15.6,-10.3 16.3,-10.5 18.9,-10.5 L19,-10.5 C23,-10.5 24.3,-6.8 25.4,-3 L25.7,-2 C26.5,0.6 26.9,2.8 26.9,4.5 C26.9,5.7 26.7,6.8 26.3,7.6 C25.7,8.7 24.7,9.4 23,9.8 C22.1,10 20.6,10.1 20.6,10.1 C20.1,10.1 19.7,10.2 19.3,10.2 C16.1,10.2 14.1,9 12.7,4.7 C11.5,1 11.3,-0.1 10.4,-4.5"/>
<path class="Note" transform="matrix(1.70079,0,0,1.70079,1906.67,453.543)" d="M18.7,-13.6 C4.9,-13.6 0,-6.6 0,-0.1 C0,6.4 4.9,13.4 18.7,13.4 C32.5,13.4 37.3,6.4 37.3,-0.1 C37.3,-6.6 32.5,-13.6 18.7,-13.6 M10.4,-4.5 C10.3,-4.9 10.3,-5.3 10.3,-5.7 C10.3,-6.5 10.5,-7.3 10.9,-8 C11.6,-9 12.8,-9.7 14.3,-10 C15.6,-10.3 16.3,-10.5 18.9,-10.5 L19,-10.5 C23,-10.5 24.3,-6.8 25.4,-3 L25.7,-2 C26.5,0.6 26.9,2.8 26.9,4.5 C26.9,5.7 26.7,6.8 26.3,7.6 C25.7,8.7 24.7,9.4 23,9.8 C22.1,10 20.6,10.1 20.6,10.1 C20.1,10.1 19.7,10.2 19.3,10.2 C16.1,10.2 14.1,9 12.7,4.7 C11.5,1 11.3,-0.1 10.4,-4.5"/>
<path class="Note" transform="matrix(1.70079,0,0,1.70079,2282.18,432.283)" d="M18.7,-13.6 C4.9,-13.6 0,-6.6 0,-0.1 C0,6.4 4.9,13.4 18.7,13.4 C32.5,13.4 37.3,6.4 37.3,-0.1 C37.3,-6.6 32.5,-13.6 18.7,-13.6 M10.4,-4.5 C10.3,-4.9 10.3,-5.3 10.3,-5.7 C10.3,-6.5 10.5,-7.3 10.9,-8 C11.6,-9 12.8,-9.7 14.3,-10 C15.6,-10.3 16.3,-10.5 18.9,-10.5 L19,-10.5 C23,-10.5 24.3,-6.8 25.4,-3 L25.7,-2 C26.5,0.6 26.9,2.8 26.9,4.5 C26.9,5.7 26.7,6.8 26.3,7.6 C25.7,8.7 24.7,9.4 23,9.8 C22.1,10 20.6,10.1 20.6,10.1 C20.1,10.1 19.7,10.2 19.3,10.2 C16.1,10.2 14.1,9 12.7,4.7 C11.5,1 11.3,-0.1 10.4,-4.5"/>
<path class="Note" transform="matrix(1.70079,0,0,1.70079,2657.68,474.803)" d="M18.7,-13.6 C4.9,-13.6 0,-6.6 0,-0.1 C0,6.4 4.9,13.4 18.7,13.4 C32.5,13.4 37.3,6.4 37.3,-0.1 C37.3,-6.6 32.5,-13.6 18.7,-13.6 M10.4,-4.5 C10.3,-4.9 10.3,-5.3 10.3,-5.7 C10.3,-6.5 10.5,-7.3 10.9,-8 C11.6,-9 12.8,-9.7 14.3,-10 C15.6,-10.3 16.3,-10.5 18.9,-10.5 L19,-10.5 C23,-10.5 24.3,-6.8 25.4,-3 L25.7,-2 C26.5,0.6 26.9,2.8 26.9,4.5 C26.9,5.7 26.7,6.8 26.3,7.6 C25.7,8.7 24.7,9.4 23,9.8 C22.1,10 20.6,10.1 20.6,10.1 C20.1,10.1 19.7,10.2 19.3,10.2 C16.1,10.2 14.1,9 12.7,4.7 C11.5,1 11.3,-0.1 10.4,-4.5"/>
<path class="Note" transform="matrix(1.70079,0,0,1.70079,3033.19,453.543)" d="M18.7,-13.6 C4.9,-13.6 0,-6.6 0,-0.1 C0,6.4 4.9,13.4 18.7,13.4 C32.5,13.4 37.3,6.4 37.3,-0.1 C37.3,-6.6 32.5,-13.6 18.7,-13.6 M10.4,-4.5 C10.3,-4.9 10.3,-5.3 10.3,-5.7 C10.3,-6.5 10.5,-7.3 10.9,-8 C11.6,-9 12.8,-9.7 14.3,-10 C15.6,-10.3 16.3,-10.5 18.9,-10.5 L19,-10.5 C23,-10.5 24.3,-6.8 25.4,-3 L25.7,-2 C26.5,0.6 26.9,2.8 26.9,4.5 C26.9,5.7 26.7,6.8 26.3,7.6 C25.7,8.7 24.7,9.4 23,9.8 C22.1,10 20.6,10.1 20.6,10.1 C20.1,10.1 19.7,10.2 19.3,10.2 C16.1,10.2 14.1,9 12.7,4.7 C11.5,1 11.3,-0.1 10.4,-4.5"/>
<path class="Note" transform="matrix(1.70079,0,0,1.70079,3423.58,602.362)" d="M18.7,-13.6 C4.9,-13.6 0,-6.6 0,-0.1 C0,6.4 4.9,13.4 18.7,13.4 C32.5,13.4 37.3,6.4 37.3,-0.1 C37.3,-6.6 32.5,-13.6 18.7,-13.6 M10.4,-4.5 C10.3,-4.9 10.3,-5.3 10.3,-5.7 C10.3,-6.5 10.5,-7.3 10.9,-8 C11.6,-9 12.8,-9.7 14.3,-10 C15.6,-10.3 16.3,-10.5 18.9,-10.5 L19,-10.5 C23,-10.5 24.3,-6.8 25.4,-3 L25.7,-2 C26.5,0.6 26.9,2.8 26.9,4.5 C26.9,5.7 26.7,6.8 26.3,7.6 C25.7,8.7 24.7,9.4 23,9.8 C22.1,10 20.6,10.1 20.6,10.1 C20.1,10.1 19.7,10.2 19.3,10.2 C16.1,10.2 14.1,9 12.7,4.7 C11.5,1 11.3,-0.1 10.4,-4.5"/>
<path class="Note" transform="matrix(1.70079,0,0,1.70079,3799.09,538.583)" d="M18.7,-13.6 C4.9,-13.6 0,-6.6 0,-0.1 C0,6.4 4.9,13.4 18.7,13.4 C32.5,13.4 37.3,6.4 37.3,-0.1 C37.3,-6.6 32.5,-13.6 18.7,-13.6 M10.4,-4.5 C10.3,-4.9 10.3,-5.3 10.3,-5.7 C10.3,-6.5 10.5,-7.3 10.9,-8 C11.6,-9 12.8,-9.7 14.3,-10 C15.6,-10.3 16.3,-10.5 18.9,-10.5 L19,-10.5 C23,-10.5 24.3,-6.8 25.4,-3 L25.7,-2 C26.5,0.6 26.9,2.8 26.9,4.5 C26.9,5.7 26.7,6.8 26.3,7.6 C25.7,8.7 24.7,9.4 23,9.8 C22.1,10 20.6,10.1 20.6,10.1 C20.1,10.1 19.7,10.2 19.3,10.2 C16.1,10.2 14.1,9 12.7,4.7 C11.5,1 11.3,-0.1 10.4,-4.5"/>
<path class="Clef" transform="matrix(1.70079,0,0,1.70079,104.882,368.504)" d="M25.4,-25.1 C17.8,-25.1 11.7,-20.7 11.6,-20.7 C5.8,-16.4 3.5,-11.3 2.6,-7.8 C2.1,-6 1.9,-4.2 1.9,-2.5 C1.9,-0.1 2.3,2.1 3.2,4 C4.4,6.7 6.7,8.6 9.7,9.6 C10.9,10 12.2,10.2 13.5,10.2 C15.7,10.2 18,9.6 19.9,8.5 C23,6.8 24.9,3.2 24.9,-0.7 C24.9,-4.2 23.1,-7.4 20.1,-9.3 C18,-10.7 16,-11.1 14.3,-11.1 C13.1,-11.1 12,-10.9 11.1,-10.6 C10.1,-10.2 8.4,-9.2 7.6,-8.5 C7.9,-10.4 9.1,-13.3 10.2,-14.9 C11.3,-16.5 13.5,-18.5 15.2,-19.4 C17.7,-20.8 20.9,-21.4 24.4,-21.4 C34.6,-21.4 39.6,-13.2 39.6,3.6 C39.6,12.9 36.1,21.8 33.1,27.7 C29.8,34.3 25.4,40.6 21.5,44.1 C11.1,53.6 1.3,58.1 1.2,58.1 C1.2,58.1 -0.3,59 0.1,60.5 C0.4,61.5 1.3,61.7 1.9,61.7 C2,61.7 2.3,61.6 2.4,61.6 C2.5,61.6 13.9,56.9 23,49.8 C28.1,46.1 32.7,42.1 36.7,37.8 C40.3,33.9 43.4,29.7 45.9,25.5 C50.3,18 52.8,10.2 52.8,3.5 C52.8,-4.8 50.6,-11.7 46.5,-16.6 C41.8,-22.2 34.7,-25.1 25.4,-25.1 M56.8,-12.4 C56.8,-9.6 59,-7.4 61.6,-7.4 C64.2,-7.4 66.4,-9.6 66.4,-12.4 C66.4,-15.2 64.2,-17.5 61.6,-17.5 C59,-17.5 56.8,-15.2 56.8,-12.4 M56.8,12.3 C56.8,15.1 59,17.4 61.6,17.4 C64.2,17.4 66.4,15.1 66.4,12.3 C66.4,9.5 64.2,7.2 61.6,7.2 C59,7.2 56.8,9.5 56.8,12.3"/>
<path class="KeySig" transform="matrix(1.70079,0,0,1.70079,260.331,368.504)" d="M23.3,-10.6 C23.9,-10.7 24.4,-11.4 24.4,-12 L24.4,-17.9 C24.4,-18.7 23.8,-19.3 23,-19.3 L22.8,-19.3 L19.5,-18.6 L19.5,-33.5 L16.7,-33.5 L16.7,-18 L7.8,-16.2 L7.8,-30.3 L5,-30.3 L5,-15.6 L1.1,-14.8 C0.5,-14.7 0,-14 0,-13.4 L0,-13.2 L0,-7.4 L0,-7.6 C0,-6.8 0.6,-6.2 1.4,-6.2 L1.7,-6.2 L5,-6.9 L5,9.6 L1.1,10.4 C0.5,10.5 0,11.2 0,11.8 L0,17.6 C0,18.4 0.6,19 1.4,19 L1.7,19 L5,18.3 L5,33.2 L7.8,33.2 L7.8,17.7 L16.7,15.9 L16.7,30 L19.5,30 L19.5,15.3 L23.3,14.6 C23.9,14.5 24.4,13.8 24.4,13.2 L24.4,7.3 C24.4,6.5 23.8,5.9 23,5.9 L22.8,5.9 L19.5,6.6 L19.5,-9.9 L23.3,-10.6 M7.8,9.1 L7.8,-7.5 L16.7,-9.3 L16.7,7.2 L7.8,9.1 "/>
<path class="FiguredBass" d="M775.613,631.505 C775.126,632.036 774.484,632.302 773.687,632.302 C772.891,632.302 772.238,632.025 771.728,631.472 C771.219,630.918 770.965,630.287 770.965,629.579 L770.965,620.083 L761.469,620.083 C760.672,620.083 760.019,619.806 759.51,619.253 C759.001,618.699 758.746,618.069 758.746,617.36 C758.746,616.652 759.001,616.021 759.51,615.468 C760.019,614.914 760.672,614.638 761.469,614.638 L770.965,614.638 L770.965,605.141 C770.965,604.433 771.219,603.802 771.728,603.249 C772.238,602.695 772.891,602.419 773.687,602.419 C774.484,602.419 775.137,602.695 775.646,603.249 C776.156,603.802 776.41,604.433 776.41,605.141 L776.41,614.638 L785.906,614.638 C786.703,614.638 787.356,614.914 787.865,615.468 C788.374,616.021 788.629,616.652 788.629,617.36 C788.629,618.069 788.374,618.699 787.865,619.253 C787.356,619.806 786.703,620.083 785.906,620.083 L776.41,620.083 L776.41,629.579 C776.41,630.287 776.144,630.929 775.613,631.505 M813.855,592.657 C810.579,592.657 808.399,593.974 807.314,596.608 C806.23,599.242 805.687,602.972 805.687,607.798 L805.687,615.634 C807.989,614.704 809.982,614.217 811.664,614.173 C817.419,614.173 821.946,615.445 825.244,617.991 C828.542,620.537 830.191,624.322 830.191,629.347 C830.191,634.371 828.52,638.167 825.178,640.735 C821.835,643.303 817.331,644.587 811.664,644.587 C805.864,644.587 801.327,641.897 798.051,636.518 C794.775,631.139 793.137,624.753 793.137,617.36 C793.137,610.011 795.04,603.636 798.848,598.235 C802.655,592.834 807.657,590.134 813.855,590.134 C817.928,590.134 821.448,591.163 824.414,593.222 C827.38,595.28 828.863,597.992 828.863,601.356 C828.863,603.304 828.155,604.986 826.738,606.403 C825.322,607.82 823.628,608.528 821.658,608.528 C819.688,608.528 817.995,607.82 816.578,606.403 C815.161,604.986 814.453,603.304 814.453,601.356 C814.453,599.453 815.161,597.77 816.578,596.309 C817.065,595.734 817.751,595.247 818.637,594.848 C818.415,594.273 817.973,593.83 817.308,593.52 C816.335,592.945 815.183,592.657 813.855,592.657 M817.109,619.817 C816.312,617.736 814.564,616.696 811.863,616.696 C809.163,616.696 807.491,617.736 806.85,619.817 C806.208,621.898 805.887,625.063 805.887,629.313 C805.887,634.316 806.208,637.681 806.85,639.407 C807.491,641.134 809.163,641.997 811.863,641.997 C814.564,641.997 816.312,640.957 817.109,638.876 C817.906,636.795 818.305,633.619 818.305,629.347 C818.305,625.074 817.906,621.898 817.109,619.817"/>
<path class="FiguredBass" d="M1189.36,592.657 C1186.09,592.657 1183.91,593.974 1182.82,596.608 C1181.74,599.242 1181.19,602.972 1181.19,607.798 L1181.19,615.634 C1183.5,614.704 1185.49,614.217 1187.17,614.173 C1192.93,614.173 1197.45,615.445 1200.75,617.991 C1204.05,620.537 1205.7,624.322 1205.7,629.347 C1205.7,634.371 1204.03,638.167 1200.68,640.735 C1197.34,643.303 1192.84,644.587 1187.17,644.587 C1181.37,644.587 1176.83,641.897 1173.56,636.518 C1170.28,631.139 1168.64,624.753 1168.64,617.36 C1168.64,610.011 1170.55,603.636 1174.35,598.235 C1178.16,592.834 1183.16,590.134 1189.36,590.134 C1193.44,590.134 1196.96,591.163 1199.92,593.222 C1202.89,595.28 1204.37,597.992 1204.37,601.356 C1204.37,603.304 1203.66,604.986 1202.25,606.403 C1200.83,607.82 1199.14,608.528 1197.17,608.528 C1195.2,608.528 1193.5,607.82 1192.09,606.403 C1190.67,604.986 1189.96,603.304 1189.96,601.356 C1189.96,599.453 1190.67,597.77 1192.09,596.309 C1192.57,595.734 1193.26,595.247 1194.14,594.848 C1193.92,594.273 1193.48,593.83 1192.82,593.52 C1191.84,592.945 1190.69,592.657 1189.36,592.657 M1192.62,619.817 C1191.82,617.736 1190.07,616.696 1187.37,616.696 C1184.67,616.696 1183,617.736 1182.36,619.817 C1181.71,621.898 1181.39,625.063 1181.39,629.313 C1181.39,634.316 1181.71,637.681 1182.36,639.407 C1183,641.134 1184.67,641.997 1187.37,641.997 C1190.07,641.997 1191.82,640.957 1192.62,638.876 C1193.41,636.795 1193.81,633.619 1193.81,629.347 C1193.81,625.074 1193.41,621.898 1192.62,619.817"/>
<path class="FiguredBass" d="M1564.87,592.657 C1561.59,592.657 1559.41,593.974 1558.33,596.608 C1557.24,599.242 1556.7,602.972 1556.7,607.798 L1556.7,615.634 C1559,614.704 1561,614.217 1562.68,614.173 C1568.43,614.173 1572.96,615.445 1576.26,617.991 C1579.56,620.537 1581.21,624.322 1581.21,629.347 C1581.21,634.371 1579.53,638.167 1576.19,640.735 C1572.85,643.303 1568.35,644.587 1562.68,644.587 C1556.88,644.587 1552.34,641.897 1549.07,636.518 C1545.79,631.139 1544.15,624.753 1544.15,617.36 C1544.15,610.011 1546.05,603.636 1549.86,598.235 C1553.67,592.834 1558.67,590.134 1564.87,590.134 C1568.94,590.134 1572.46,591.163 1575.43,593.222 C1578.39,595.28 1579.88,597.992 1579.88,601.356 C1579.88,603.304 1579.17,604.986 1577.75,606.403 C1576.34,607.82 1574.64,608.528 1572.67,608.528 C1570.7,608.528 1569.01,607.82 1567.59,606.403 C1566.18,604.986 1565.47,603.304 1565.47,601.356 C1565.47,599.453 1566.18,597.77 1567.59,596.309 C1568.08,595.734 1568.77,595.247 1569.65,594.848 C1569.43,594.273 1568.99,593.83 1568.32,593.52 C1567.35,592.945 1566.2,592.657 1564.87,592.657 M1568.12,619.817 C1567.33,617.736 1565.58,616.696 1562.88,616.696 C1560.18,616.696 1558.51,617.736 1557.86,619.817 C1557.22,621.898 1556.9,625.063 1556.9,629.313 C1556.9,634.316 1557.22,637.681 1557.86,639.407 C1558.51,641.134 1560.18,641.997 1562.88,641.997 C1565.58,641.997 1567.33,640.957 1568.12,638.876 C1568.92,636.795 1569.32,633.619 1569.32,629.347 C1569.32,625.074 1568.92,621.898 1568.12,619.817"/>
<path class="FiguredBass" d="M1548.67,665.837 C1548.67,665.837 1549.73,665.992 1551.85,666.302 C1552.78,666.434 1553.82,666.567 1554.98,666.7 C1558.03,667.054 1560.97,667.231 1563.81,667.231 C1566.64,667.231 1569.63,667.054 1572.77,666.7 C1574.01,666.567 1575.1,666.434 1576.03,666.302 L1579.28,665.837 C1579.94,665.837 1580.44,666.058 1580.77,666.501 C1581.11,666.944 1581.07,667.298 1580.67,667.563 C1573.9,674.337 1564.36,677.723 1552.05,677.723 C1551.57,677.723 1551.13,677.901 1550.76,678.255 C1550.38,678.609 1550.19,679.052 1550.19,679.583 L1550.19,690.009 C1553.34,686.91 1557.14,685.36 1561.62,685.36 C1568.08,685.36 1573.07,686.81 1576.59,689.71 C1580.11,692.61 1581.87,697.003 1581.87,702.891 C1581.87,707.894 1579.88,712.044 1575.89,715.343 C1571.91,718.641 1567.15,720.29 1561.62,720.29 C1556.83,720.29 1552.68,719.205 1549.16,717.036 C1545.65,714.867 1543.89,711.856 1543.89,708.005 C1543.89,706.057 1544.59,704.363 1546.01,702.925 C1547.43,701.486 1549.12,700.766 1551.09,700.766 C1553.06,700.766 1554.73,701.475 1556.1,702.891 C1557.48,704.308 1558.16,706.013 1558.16,708.005 C1558.16,708.89 1557.43,709.853 1555.97,710.893 C1554.51,711.934 1553.78,712.897 1553.78,713.782 C1553.78,716.438 1556.39,717.766 1561.62,717.766 C1566.71,717.766 1569.25,712.808 1569.25,702.891 C1569.25,693.329 1566.71,688.526 1561.62,688.481 C1557.06,688.481 1553.87,689.411 1552.05,691.27 C1550.24,693.13 1549.11,694.059 1548.67,694.059 C1547.56,694.059 1547.03,693.506 1547.07,692.399 L1547.07,667.563 C1547.07,667.076 1547.23,666.667 1547.54,666.335 C1547.85,666.003 1548.22,665.837 1548.67,665.837"/>
<path class="FiguredBass" d="M1934.07,637.681 L1934.07,651.559 C1934.07,652.932 1933.37,653.618 1931.98,653.618 C1930.58,653.618 1929.89,652.932 1929.89,651.559 L1929.89,639.473 L1927.76,640.337 C1927.54,640.425 1927.25,640.47 1926.9,640.47 C1926.32,640.47 1925.81,640.248 1925.37,639.806 C1924.93,639.363 1924.71,638.854 1924.71,638.278 L1924.71,631.505 C1924.71,630.531 1925.17,629.845 1926.1,629.446 L1929.89,627.852 L1929.89,613.907 L1927.76,614.77 C1927.63,614.815 1927.45,614.837 1927.23,614.837 C1927.14,614.837 1927.03,614.837 1926.9,614.837 C1926.23,614.748 1925.7,614.505 1925.3,614.106 C1924.9,613.708 1924.71,613.243 1924.71,612.712 L1924.71,605.938 C1924.71,605.009 1925.17,604.345 1926.1,603.946 L1929.89,602.352 L1929.89,588.208 C1929.89,586.835 1930.58,586.149 1931.98,586.149 C1933.37,586.149 1934.07,586.835 1934.07,588.208 L1934.07,600.626 L1942.64,597.04 L1942.64,583.161 C1942.64,581.789 1943.32,581.102 1944.69,581.102 C1946.07,581.102 1946.75,581.789 1946.75,583.161 L1946.75,595.38 L1949.08,594.384 C1949.3,594.295 1949.54,594.251 1949.81,594.251 C1950.38,594.251 1950.9,594.472 1951.37,594.915 C1951.83,595.358 1952.06,595.867 1952.06,596.442 L1952.06,603.216 C1952.06,604.19 1951.58,604.876 1950.6,605.274 L1946.75,606.868 L1946.75,620.88 L1949.08,619.95 C1949.21,619.906 1949.36,619.884 1949.54,619.884 C1949.63,619.884 1949.72,619.884 1949.81,619.884 C1950.56,620.016 1951.12,620.26 1951.5,620.614 C1951.88,620.968 1952.06,621.433 1952.06,622.009 L1952.06,628.782 C1952.06,629.712 1951.58,630.376 1950.6,630.774 L1946.75,632.368 L1946.75,646.513 C1946.75,647.885 1946.07,648.571 1944.69,648.571 C1943.32,648.571 1942.64,647.885 1942.64,646.513 L1942.64,634.095 L1934.07,637.681 M1934.07,626.126 L1942.64,622.606 L1942.64,608.595 L1934.07,612.181 L1934.07,626.126 "/>
<path class="FiguredBass" d="M2315.42,591.528 C2317.1,591.528 2318.87,591.285 2320.73,590.798 L2323.72,590.001 C2324.3,590.001 2324.75,590.222 2325.08,590.665 C2325.41,591.108 2325.38,591.506 2324.98,591.86 L2294.1,627.786 L2312.23,627.786 L2312.23,613.575 C2312.23,612.557 2312.51,611.771 2313.06,611.218 C2313.62,610.664 2314.32,610.222 2315.19,609.889 C2316.05,609.557 2317.18,608.572 2318.57,606.934 C2319.97,605.296 2321.31,603.083 2322.59,600.294 C2322.81,599.851 2323.14,599.63 2323.59,599.63 C2324.52,599.63 2324.98,600.139 2324.98,601.157 L2324.98,627.786 L2332.82,627.786 C2333.92,627.786 2334.48,628.295 2334.48,629.313 C2334.48,630.42 2333.92,630.973 2332.82,630.973 L2324.98,630.973 L2324.98,631.837 C2324.98,634.582 2325.71,636.972 2327.17,639.009 C2328.63,641.045 2330.52,642.063 2332.82,642.063 C2333.7,642.063 2334.15,642.462 2334.15,643.259 C2334.15,644.144 2333.7,644.587 2332.82,644.587 C2331.22,644.587 2328.86,644.354 2325.71,643.889 C2322.57,643.425 2320.19,643.192 2318.57,643.192 C2316.96,643.192 2314.58,643.425 2311.44,643.889 C2308.29,644.354 2305.92,644.587 2304.33,644.587 C2303.44,644.587 2303,644.144 2303,643.259 C2303,642.462 2303.44,642.063 2304.33,642.063 C2306.63,642.063 2308.52,641.045 2310.01,639.009 C2311.49,636.972 2312.23,634.582 2312.23,631.837 L2312.23,630.973 L2294.1,630.973 C2292.95,630.973 2292.1,630.697 2291.55,630.143 C2290.99,629.59 2290.72,629.026 2290.72,628.45 C2290.72,628.229 2291.24,627.465 2292.28,626.159 C2293.32,624.853 2294.59,623.115 2296.1,620.946 C2297.6,618.777 2299.09,616.309 2300.58,613.542 C2302.06,610.775 2303.32,607.455 2304.36,603.581 C2305.4,599.707 2305.92,595.8 2305.92,591.86 C2305.92,590.709 2306.41,590.134 2307.38,590.134 C2307.52,590.134 2307.98,590.244 2308.78,590.466 C2309.58,590.687 2310.59,590.919 2311.83,591.163 C2313.07,591.406 2314.27,591.528 2315.42,591.528"/>
<path class="FiguredBass" d="M2324.38,691.403 C2324.38,692.111 2324.78,692.798 2325.58,693.462 C2326.38,694.126 2327.25,694.757 2328.2,695.354 C2329.15,695.952 2330.03,697.081 2330.83,698.741 C2331.62,700.401 2332.02,702.493 2332.02,705.016 C2332.02,709.886 2330.18,713.649 2326.51,716.306 C2322.83,718.962 2318.19,720.29 2312.56,720.29 C2308.05,720.29 2304.12,719.161 2300.78,716.903 C2297.43,714.645 2295.76,711.679 2295.76,708.005 C2295.76,706.057 2296.47,704.363 2297.89,702.925 C2299.31,701.486 2301,700.766 2302.97,700.766 C2304.94,700.766 2306.61,701.475 2307.98,702.891 C2309.35,704.308 2310.04,706.013 2310.04,708.005 C2310.04,708.89 2309.31,709.853 2307.85,710.893 C2306.39,711.934 2305.66,712.897 2305.66,713.782 C2305.66,715.154 2306.33,716.162 2307.68,716.804 C2309.03,717.445 2310.66,717.766 2312.56,717.766 C2315.04,717.766 2316.8,716.538 2317.84,714.081 C2318.88,711.624 2319.4,708.602 2319.4,705.016 L2319.4,703.29 C2319.4,700.899 2319.33,699.084 2319.17,697.845 C2319.02,696.605 2318.53,695.498 2317.71,694.524 C2316.89,693.55 2315.64,693.063 2313.96,693.063 L2305.26,693.063 C2304.24,693.063 2303.73,692.51 2303.73,691.403 C2303.73,690.385 2304.24,689.876 2305.26,689.876 L2313.96,689.876 C2315.77,689.876 2317.19,689.19 2318.21,687.817 C2318.56,687.33 2318.85,686.533 2319.07,685.427 C2319.29,683.966 2319.4,681.863 2319.4,679.118 L2319.4,678.255 C2319.4,671.658 2316.97,668.36 2312.1,668.36 C2307.81,668.36 2305.66,669.556 2305.66,671.946 C2305.66,672.743 2306.31,673.595 2307.62,674.503 C2308.92,675.41 2309.58,676.263 2309.58,677.059 C2309.58,678.786 2308.97,680.269 2307.75,681.509 C2306.53,682.748 2305.05,683.368 2303.3,683.368 C2301.55,683.368 2300.08,682.748 2298.88,681.509 C2297.69,680.269 2297.09,678.786 2297.09,677.059 C2297.09,673.651 2298.57,670.928 2301.54,668.891 C2304.51,666.855 2308.03,665.837 2312.1,665.837 C2317.46,665.837 2321.86,666.866 2325.31,668.925 C2328.77,670.983 2330.49,674.093 2330.49,678.255 C2330.49,681.221 2330.18,683.523 2329.56,685.161 C2328.94,686.799 2328.24,687.795 2327.44,688.149 C2326.64,688.503 2325.93,688.913 2325.31,689.378 C2324.69,689.843 2324.38,690.518 2324.38,691.403"/>
<path class="FiguredBass" d="M2691.39,592.657 C2688.12,592.657 2685.94,593.974 2684.85,596.608 C2683.77,599.242 2683.22,602.972 2683.22,607.798 L2683.22,615.634 C2685.53,614.704 2687.52,614.217 2689.2,614.173 C2694.96,614.173 2699.48,615.445 2702.78,617.991 C2706.08,620.537 2707.73,624.322 2707.73,629.347 C2707.73,634.371 2706.06,638.167 2702.71,640.735 C2699.37,643.303 2694.87,644.587 2689.2,644.587 C2683.4,644.587 2678.86,641.897 2675.59,636.518 C2672.31,631.139 2670.67,624.753 2670.67,617.36 C2670.67,610.011 2672.58,603.636 2676.38,598.235 C2680.19,592.834 2685.19,590.134 2691.39,590.134 C2695.46,590.134 2698.98,591.163 2701.95,593.222 C2704.92,595.28 2706.4,597.992 2706.4,601.356 C2706.4,603.304 2705.69,604.986 2704.27,606.403 C2702.86,607.82 2701.16,608.528 2699.19,608.528 C2697.22,608.528 2695.53,607.82 2694.11,606.403 C2692.7,604.986 2691.99,603.304 2691.99,601.356 C2691.99,599.453 2692.7,597.77 2694.11,596.309 C2694.6,595.734 2695.29,595.247 2696.17,594.848 C2695.95,594.273 2695.51,593.83 2694.84,593.52 C2693.87,592.945 2692.72,592.657 2691.39,592.657 M2694.65,619.817 C2693.85,617.736 2692.1,616.696 2689.4,616.696 C2686.7,616.696 2685.03,617.736 2684.39,619.817 C2683.74,621.898 2683.42,625.063 2683.42,629.313 C2683.42,634.316 2683.74,637.681 2684.39,639.407 C2685.03,641.134 2686.7,641.997 2689.4,641.997 C2692.1,641.997 2693.85,640.957 2694.65,638.876 C2695.44,636.795 2695.84,633.619 2695.84,629.347 C2695.84,625.074 2695.44,621.898 2694.65,619.817"/>
<path class="FiguredBass" d="M2675.19,665.837 C2675.19,665.837 2676.25,665.992 2678.38,666.302 C2679.31,666.434 2680.35,666.567 2681.5,666.7 C2684.55,667.054 2687.5,667.231 2690.33,667.231 C2693.16,667.231 2696.15,667.054 2699.29,666.7 C2700.53,666.567 2701.62,666.434 2702.55,666.302 L2705.8,665.837 C2706.47,665.837 2706.96,666.058 2707.3,666.501 C2707.63,666.944 2707.59,667.298 2707.2,667.563 C2700.42,674.337 2690.88,677.723 2678.58,677.723 C2678.09,677.723 2677.66,677.901 2677.28,678.255 C2676.9,678.609 2676.72,679.052 2676.72,679.583 L2676.72,690.009 C2679.86,686.91 2683.67,685.36 2688.14,685.36 C2694.6,685.36 2699.59,686.81 2703.11,689.71 C2706.63,692.61 2708.39,697.003 2708.39,702.891 C2708.39,707.894 2706.4,712.044 2702.42,715.343 C2698.43,718.641 2693.67,720.29 2688.14,720.29 C2683.36,720.29 2679.21,719.205 2675.69,717.036 C2672.17,714.867 2670.41,711.856 2670.41,708.005 C2670.41,706.057 2671.12,704.363 2672.53,702.925 C2673.95,701.486 2675.64,700.766 2677.61,700.766 C2679.58,700.766 2681.25,701.475 2682.63,702.891 C2684,704.308 2684.68,706.013 2684.68,708.005 C2684.68,708.89 2683.95,709.853 2682.49,710.893 C2681.03,711.934 2680.3,712.897 2680.3,713.782 C2680.3,716.438 2682.91,717.766 2688.14,717.766 C2693.23,717.766 2695.77,712.808 2695.77,702.891 C2695.77,693.329 2693.23,688.526 2688.14,688.481 C2683.58,688.481 2680.39,689.411 2678.58,691.27 C2676.76,693.13 2675.63,694.059 2675.19,694.059 C2674.08,694.059 2673.55,693.506 2673.59,692.399 L2673.59,667.563 C2673.59,667.076 2673.75,666.667 2674.06,666.335 C2674.37,666.003 2674.75,665.837 2675.19,665.837"/>
<path class="FiguredBass" d="M3066.43,591.528 C3068.12,591.528 3069.89,591.285 3071.75,590.798 L3074.73,590.001 C3075.31,590.001 3075.76,590.222 3076.1,590.665 C3076.43,591.108 3076.4,591.506 3076,591.86 L3045.12,627.786 L3063.25,627.786 L3063.25,613.575 C3063.25,612.557 3063.52,611.771 3064.08,611.218 C3064.63,610.664 3065.34,610.222 3066.2,609.889 C3067.07,609.557 3068.19,608.572 3069.59,606.934 C3070.98,605.296 3072.32,603.083 3073.61,600.294 C3073.83,599.851 3074.16,599.63 3074.6,599.63 C3075.53,599.63 3076,600.139 3076,601.157 L3076,627.786 L3083.83,627.786 C3084.94,627.786 3085.49,628.295 3085.49,629.313 C3085.49,630.42 3084.94,630.973 3083.83,630.973 L3076,630.973 L3076,631.837 C3076,634.582 3076.73,636.972 3078.19,639.009 C3079.65,641.045 3081.53,642.063 3083.83,642.063 C3084.72,642.063 3085.16,642.462 3085.16,643.259 C3085.16,644.144 3084.72,644.587 3083.83,644.587 C3082.24,644.587 3079.87,644.354 3076.73,643.889 C3073.58,643.425 3071.2,643.192 3069.59,643.192 C3067.97,643.192 3065.59,643.425 3062.45,643.889 C3059.31,644.354 3056.94,644.587 3055.34,644.587 C3054.46,644.587 3054.02,644.144 3054.02,643.259 C3054.02,642.462 3054.46,642.063 3055.34,642.063 C3057.65,642.063 3059.54,641.045 3061.02,639.009 C3062.51,636.972 3063.25,634.582 3063.25,631.837 L3063.25,630.973 L3045.12,630.973 C3043.97,630.973 3043.11,630.697 3042.56,630.143 C3042.01,629.59 3041.73,629.026 3041.73,628.45 C3041.73,628.229 3042.25,627.465 3043.29,626.159 C3044.33,624.853 3045.6,623.115 3047.11,620.946 C3048.62,618.777 3050.11,616.309 3051.59,613.542 C3053.08,610.775 3054.34,607.455 3055.38,603.581 C3056.42,599.707 3056.94,595.8 3056.94,591.86 C3056.94,590.709 3057.43,590.134 3058.4,590.134 C3058.53,590.134 3059,590.244 3059.79,590.466 C3060.59,590.687 3061.61,590.919 3062.85,591.163 C3064.09,591.406 3065.28,591.528 3066.43,591.528"/>
<path class="FiguredBass" d="M3450.98,703.161 L3450.98,717.04 C3450.98,718.412 3450.28,719.098 3448.89,719.098 C3447.49,719.098 3446.8,718.412 3446.8,717.04 L3446.8,704.954 L3444.67,705.817 C3444.45,705.906 3444.16,705.95 3443.81,705.95 C3443.23,705.95 3442.72,705.729 3442.28,705.286 C3441.84,704.843 3441.62,704.334 3441.62,703.758 L3441.62,696.985 C3441.62,696.011 3442.08,695.325 3443.01,694.926 L3446.8,693.333 L3446.8,679.387 L3444.67,680.251 C3444.54,680.295 3444.36,680.317 3444.14,680.317 C3444.05,680.317 3443.94,680.317 3443.81,680.317 C3443.14,680.229 3442.61,679.985 3442.21,679.587 C3441.82,679.188 3441.62,678.723 3441.62,678.192 L3441.62,671.419 C3441.62,670.489 3442.08,669.825 3443.01,669.426 L3446.8,667.833 L3446.8,653.688 C3446.8,652.316 3447.49,651.63 3448.89,651.63 C3450.28,651.63 3450.98,652.316 3450.98,653.688 L3450.98,666.106 L3459.55,662.52 L3459.55,648.641 C3459.55,647.269 3460.23,646.583 3461.6,646.583 C3462.98,646.583 3463.66,647.269 3463.66,648.641 L3463.66,660.86 L3465.99,659.864 C3466.21,659.775 3466.45,659.731 3466.72,659.731 C3467.29,659.731 3467.81,659.952 3468.28,660.395 C3468.74,660.838 3468.98,661.347 3468.98,661.923 L3468.98,668.696 C3468.98,669.67 3468.49,670.356 3467.51,670.755 L3463.66,672.348 L3463.66,686.36 L3465.99,685.43 C3466.12,685.386 3466.28,685.364 3466.45,685.364 C3466.54,685.364 3466.63,685.364 3466.72,685.364 C3467.47,685.497 3468.03,685.74 3468.41,686.094 C3468.79,686.449 3468.98,686.913 3468.98,687.489 L3468.98,694.262 C3468.98,695.192 3468.49,695.856 3467.51,696.255 L3463.66,697.848 L3463.66,711.993 C3463.66,713.365 3462.98,714.051 3461.6,714.051 C3460.23,714.051 3459.55,713.365 3459.55,711.993 L3459.55,699.575 L3450.98,703.161 M3450.98,691.606 L3459.55,688.087 L3459.55,674.075 L3450.98,677.661 L3450.98,691.606 "/>
</svg>
