<?xml version="1.0" encoding="UTF-8" standalone="no"?>
<svg width="4209.44px" height="850.392px" viewBox="0 0 4209.44 850.392"
 xmlns="http://www.w3.org/2000/svg" xmlns:xlink="http://www.w3.org/1999/xlink" version="1.2" baseProfile="tiny">
<title>ExercicesLaMineur (1)</title>
<desc>Generated by MuseScore 3.6.2</desc>
<polyline class="StaffLines" fill="none" stroke="#000000" stroke-width="4.68" stroke-linejoin="bevel" points="70.866,325.984 4138.58,325.984"/>
<polyline class="StaffLines" fill="none" stroke="#000000" stroke-width="4.68" stroke-linejoin="bevel" points="70.866,368.504 4138.58,368.504"/>
<polyline class="StaffLines" fill="none" stroke="#000000" stroke-width="4.68" stroke-linejoin="bevel" points="70.866,411.024 4138.58,411.024"/>
<polyline class="StaffLines" fill="none" stroke="#000000" stroke-width="4.68" stroke-linejoin="bevel" points="70.866,453.543 4138.58,453.543"/>
<polyline class="StaffLines" fill="none" stroke="#000000" stroke-width="4.68" stroke-linejoin="bevel" points="70.866,496.063 4138.58,496.063"/>
<polyline class="BarLine" fill="none" stroke="#000000" stroke-width="7.65" stroke-linejoin="bevel" points="1214.26,323.646 1214.26,498.402"/>
<polyline class="BarLine" fill="none" stroke="#000000" stroke-width="7.65" stroke-linejoin="bevel" points="2181.06,323.646 2181.06,498.402"/>
<polyline class="BarLine" fill="none" stroke="#000000" stroke-width="7.65" stroke-linejoin="bevel" points="3147.87,323.646 3147.87,498.402"/>
<polyline class="BarLine" fill="none" stroke="#000000" stroke-width="7.65" stroke-linejoin="bevel" points="4097.12,323.646 4097.12,498.402"/>
<polyline class="BarLine" fill="none" stroke="#000000" stroke-width="23.39" stroke-linejoin="bevel" points="4126.89,323.646 4126.89,498.402"/>
<path class="Note" transform="matrix(1.70079,0,0,1.70079,324.111,474.803)" d="M18.7,-13.6 C4.9,-13.6 0,-6.6 0,-0.1 C0,6.4 4.9,13.4 18.7,13.4 C32.5,13.4 37.3,6.4 37.3,-0.1 C37.3,-6.6 32.5,-13.6 18.7,-13.6 M10.4,-4.5 C10.3,-4.9 10.3,-5.3 10.3,-5.7 C10.3,-6.5 10.5,-7.3 10.9,-8 C11.6,-9 12.8,-9.7 14.3,-10 C15.6,-10.3 16.3,-10.5 18.9,-10.5 L19,-10.5 C23,-10.5 24.3,-6.8 25.4,-3 L25.7,-2 C26.5,0.6 26.9,2.8 26.9,4.5 C26.9,5.7 26.7,6.8 26.3,7.6 C25.7,8.7 24.7,9.4 23,9.8 C22.1,10 20.6,10.1 20.6,10.1 C20.1,10.1 19.7,10.2 19.3,10.2 C16.1,10.2 14.1,9 12.7,4.7 C11.5,1 11.3,-0.1 10.4,-4.5"/>
<path class="Note" transform="matrix(1.70079,0,0,1.70079,1277.45,411.024)" d="M18.7,-13.6 C4.9,-13.6 0,-6.6 0,-0.1 C0,6.4 4.9,13.4 18.7,13.4 C32.5,13.4 37.3,6.4 37.3,-0.1 C37.3,-6.6 32.5,-13.6 18.7,-13.6 M10.4,-4.5 C10.3,-4.9 10.3,-5.3 10.3,-5.7 C10.3,-6.5 10.5,-7.3 10.9,-8 C11.6,-9 12.8,-9.7 14.3,-10 C15.6,-10.3 16.3,-10.5 18.9,-10.5 L19,-10.5 C23,-10.5 24.3,-6.8 25.4,-3 L25.7,-2 C26.5,0.6 26.9,2.8 26.9,4.5 C26.9,5.7 26.7,6.8 26.3,7.6 C25.7,8.7 24.7,9.4 23,9.8 C22.1,10 20.6,10.1 20.6,10.1 C20.1,10.1 19.7,10.2 19.3,10.2 C16.1,10.2 14.1,9 12.7,4.7 C11.5,1 11.3,-0.1 10.4,-4.5"/>
<path class="Note" transform="matrix(1.70079,0,0,1.70079,2244.25,389.764)" d="M18.7,-13.6 C4.9,-13.6 0,-6.6 0,-0.1 C0,6.4 4.9,13.4 18.7,13.4 C32.5,13.4 37.3,6.4 37.3,-0.1 C37.3,-6.6 32.5,-13.6 18.7,-13.6 M10.4,-4.5 C10.3,-4.9 10.3,-5.3 10.3,-5.7 C10.3,-6.5 10.5,-7.3 10.9,-8 C11.6,-9 12.8,-9.7 14.3,-10 C15.6,-10.3 16.3,-10.5 18.9,-10.5 L19,-10.5 C23,-10.5 24.3,-6.8 25.4,-3 L25.7,-2 C26.5,0.6 26.9,2.8 26.9,4.5 C26.9,5.7 26.7,6.8 26.3,7.6 C25.7,8.7 24.7,9.4 23,9.8 C22.1,10 20.6,10.1 20.6,10.1 C20.1,10.1 19.7,10.2 19.3,10.2 C16.1,10.2 14.1,9 12.7,4.7 C11.5,1 11.3,-0.1 10.4,-4.5"/>
<path class="Note" transform="matrix(1.70079,0,0,1.70079,3206.97,474.803)" d="M18.7,-13.6 C4.9,-13.6 0,-6.6 0,-0.1 C0,6.4 4.9,13.4 18.7,13.4 C32.5,13.4 37.3,6.4 37.3,-0.1 C37.3,-6.6 32.5,-13.6 18.7,-13.6 M10.4,-4.5 C10.3,-4.9 10.3,-5.3 10.3,-5.7 C10.3,-6.5 10.5,-7.3 10.9,-8 C11.6,-9 12.8,-9.7 14.3,-10 C15.6,-10.3 16.3,-10.5 18.9,-10.5 L19,-10.5 C23,-10.5 24.3,-6.8 25.4,-3 L25.7,-2 C26.5,0.6 26.9,2.8 26.9,4.5 C26.9,5.7 26.7,6.8 26.3,7.6 C25.7,8.7 24.7,9.4 23,9.8 C22.1,10 20.6,10.1 20.6,10.1 C20.1,10.1 19.7,10.2 19.3,10.2 C16.1,10.2 14.1,9 12.7,4.7 C11.5,1 11.3,-0.1 10.4,-4.5"/>
<path class="Clef" transform="matrix(1.70079,0,0,1.70079,104.882,368.504)" d="M25.4,-25.1 C17.8,-25.1 11.7,-20.7 11.6,-20.7 C5.8,-16.4 3.5,-11.3 2.6,-7.8 C2.1,-6 1.9,-4.2 1.9,-2.5 C1.9,-0.1 2.3,2.1 3.2,4 C4.4,6.7 6.7,8.6 9.7,9.6 C10.9,10 12.2,10.2 13.5,10.2 C15.7,10.2 18,9.6 19.9,8.5 C23,6.8 24.9,3.2 24.9,-0.7 C24.9,-4.2 23.1,-7.4 20.1,-9.3 C18,-10.7 16,-11.1 14.3,-11.1 C13.1,-11.1 12,-10.9 11.1,-10.6 C10.1,-10.2 8.4,-9.2 7.6,-8.5 C7.9,-10.4 9.1,-13.3 10.2,-14.9 C11.3,-16.5 13.5,-18.5 15.2,-19.4 C17.7,-20.8 20.9,-21.4 24.4,-21.4 C34.6,-21.4 39.6,-13.2 39.6,3.6 C39.6,12.9 36.1,21.8 33.1,27.7 C29.8,34.3 25.4,40.6 21.5,44.1 C11.1,53.6 1.3,58.1 1.2,58.1 C1.2,58.1 -0.3,59 0.1,60.5 C0.4,61.5 1.3,61.7 1.9,61.7 C2,61.7 2.3,61.6 2.4,61.6 C2.5,61.6 13.9,56.9 23,49.8 C28.1,46.1 32.7,42.1 36.7,37.8 C40.3,33.9 43.4,29.7 45.9,25.5 C50.3,18 52.8,10.2 52.8,3.5 C52.8,-4.8 50.6,-11.7 46.5,-16.6 C41.8,-22.2 34.7,-25.1 25.4,-25.1 M56.8,-12.4 C56.8,-9.6 59,-7.4 61.6,-7.4 C64.2,-7.4 66.4,-9.6 66.4,-12.4 C66.4,-15.2 64.2,-17.5 61.6,-17.5 C59,-17.5 56.8,-15.2 56.8,-12.4 M56.8,12.3 C56.8,15.1 59,17.4 61.6,17.4 C64.2,17.4 66.4,15.1 66.4,12.3 C66.4,9.5 64.2,7.2 61.6,7.2 C59,7.2 56.8,9.5 56.8,12.3"/>
<path class="FiguredBass" d="M2271.65,637.681 L2271.65,651.559 C2271.65,652.932 2270.96,653.618 2269.56,653.618 C2268.17,653.618 2267.47,652.932 2267.47,651.559 L2267.47,639.473 L2265.35,640.337 C2265.12,640.425 2264.84,640.47 2264.48,640.47 C2263.91,640.47 2263.4,640.248 2262.95,639.806 C2262.51,639.363 2262.29,638.854 2262.29,638.278 L2262.29,631.505 C2262.29,630.531 2262.76,629.845 2263.68,629.446 L2267.47,627.852 L2267.47,613.907 L2265.35,614.77 C2265.21,614.815 2265.04,614.837 2264.81,614.837 C2264.73,614.837 2264.61,614.837 2264.48,614.837 C2263.82,614.748 2263.29,614.505 2262.89,614.106 C2262.49,613.708 2262.29,613.243 2262.29,612.712 L2262.29,605.938 C2262.29,605.009 2262.76,604.345 2263.68,603.946 L2267.47,602.352 L2267.47,588.208 C2267.47,586.835 2268.17,586.149 2269.56,586.149 C2270.96,586.149 2271.65,586.835 2271.65,588.208 L2271.65,600.626 L2280.22,597.04 L2280.22,583.161 C2280.22,581.789 2280.91,581.102 2282.28,581.102 C2283.65,581.102 2284.34,581.789 2284.34,583.161 L2284.34,595.38 L2286.66,594.384 C2286.88,594.295 2287.13,594.251 2287.39,594.251 C2287.97,594.251 2288.49,594.472 2288.95,594.915 C2289.42,595.358 2289.65,595.867 2289.65,596.442 L2289.65,603.216 C2289.65,604.19 2289.16,604.876 2288.19,605.274 L2284.34,606.868 L2284.34,620.88 L2286.66,619.95 C2286.79,619.906 2286.95,619.884 2287.13,619.884 C2287.21,619.884 2287.3,619.884 2287.39,619.884 C2288.14,620.016 2288.71,620.26 2289.09,620.614 C2289.46,620.968 2289.65,621.433 2289.65,622.009 L2289.65,628.782 C2289.65,629.712 2289.16,630.376 2288.19,630.774 L2284.34,632.368 L2284.34,646.513 C2284.34,647.885 2283.65,648.571 2282.28,648.571 C2280.91,648.571 2280.22,647.885 2280.22,646.513 L2280.22,634.095 L2271.65,637.681 M2271.65,626.126 L2280.22,622.606 L2280.22,608.595 L2271.65,612.181 L2271.65,626.126 "/>
</svg>
