<?xml version="1.0" encoding="UTF-8" standalone="no"?>
<svg width="4209.44px" height="850.392px" viewBox="0 0 4209.44 850.392"
 xmlns="http://www.w3.org/2000/svg" xmlns:xlink="http://www.w3.org/1999/xlink" version="1.2" baseProfile="tiny">
<title>ExercicesSolMajeur (11)</title>
<desc>Generated by MuseScore 3.6.2</desc>
<polyline class="StaffLines" fill="none" stroke="#000000" stroke-width="4.68" stroke-linejoin="bevel" points="70.866,325.984 4138.58,325.984"/>
<polyline class="StaffLines" fill="none" stroke="#000000" stroke-width="4.68" stroke-linejoin="bevel" points="70.866,368.504 4138.58,368.504"/>
<polyline class="StaffLines" fill="none" stroke="#000000" stroke-width="4.68" stroke-linejoin="bevel" points="70.866,411.024 4138.58,411.024"/>
<polyline class="StaffLines" fill="none" stroke="#000000" stroke-width="4.68" stroke-linejoin="bevel" points="70.866,453.543 4138.58,453.543"/>
<polyline class="StaffLines" fill="none" stroke="#000000" stroke-width="4.68" stroke-linejoin="bevel" points="70.866,496.063 4138.58,496.063"/>
<polyline class="BarLine" fill="none" stroke="#000000" stroke-width="7.65" stroke-linejoin="bevel" points="803.861,323.646 803.861,498.402"/>
<polyline class="BarLine" fill="none" stroke="#000000" stroke-width="7.65" stroke-linejoin="bevel" points="1277.07,323.646 1277.07,498.402"/>
<polyline class="BarLine" fill="none" stroke="#000000" stroke-width="7.65" stroke-linejoin="bevel" points="1750.27,323.646 1750.27,498.402"/>
<polyline class="BarLine" fill="none" stroke="#000000" stroke-width="7.65" stroke-linejoin="bevel" points="2223.48,323.646 2223.48,498.402"/>
<polyline class="BarLine" fill="none" stroke="#000000" stroke-width="7.65" stroke-linejoin="bevel" points="2696.69,323.646 2696.69,498.402"/>
<polyline class="BarLine" fill="none" stroke="#000000" stroke-width="7.65" stroke-linejoin="bevel" points="3169.08,323.646 3169.08,498.402"/>
<polyline class="BarLine" fill="none" stroke="#000000" stroke-width="7.65" stroke-linejoin="bevel" points="3642.28,323.646 3642.28,498.402"/>
<polyline class="BarLine" fill="none" stroke="#000000" stroke-width="7.65" stroke-linejoin="bevel" points="4097.12,323.646 4097.12,498.402"/>
<polyline class="BarLine" fill="none" stroke="#000000" stroke-width="23.39" stroke-linejoin="bevel" points="4126.89,323.646 4126.89,498.402"/>
<polyline class="LedgerLine" fill="none" stroke="#000000" stroke-width="6.80" stroke-linejoin="bevel" points="3228.18,538.583 3321.38,538.583"/>
<path class="Note" transform="matrix(1.70079,0,0,1.70079,408.127,496.063)" d="M18.7,-13.6 C4.9,-13.6 0,-6.6 0,-0.1 C0,6.4 4.9,13.4 18.7,13.4 C32.5,13.4 37.3,6.4 37.3,-0.1 C37.3,-6.6 32.5,-13.6 18.7,-13.6 M10.4,-4.5 C10.3,-4.9 10.3,-5.3 10.3,-5.7 C10.3,-6.5 10.5,-7.3 10.9,-8 C11.6,-9 12.8,-9.7 14.3,-10 C15.6,-10.3 16.3,-10.5 18.9,-10.5 L19,-10.5 C23,-10.5 24.3,-6.8 25.4,-3 L25.7,-2 C26.5,0.6 26.9,2.8 26.9,4.5 C26.9,5.7 26.7,6.8 26.3,7.6 C25.7,8.7 24.7,9.4 23,9.8 C22.1,10 20.6,10.1 20.6,10.1 C20.1,10.1 19.7,10.2 19.3,10.2 C16.1,10.2 14.1,9 12.7,4.7 C11.5,1 11.3,-0.1 10.4,-4.5"/>
<path class="Note" transform="matrix(1.70079,0,0,1.70079,862.964,496.063)" d="M18.7,-13.6 C4.9,-13.6 0,-6.6 0,-0.1 C0,6.4 4.9,13.4 18.7,13.4 C32.5,13.4 37.3,6.4 37.3,-0.1 C37.3,-6.6 32.5,-13.6 18.7,-13.6 M10.4,-4.5 C10.3,-4.9 10.3,-5.3 10.3,-5.7 C10.3,-6.5 10.5,-7.3 10.9,-8 C11.6,-9 12.8,-9.7 14.3,-10 C15.6,-10.3 16.3,-10.5 18.9,-10.5 L19,-10.5 C23,-10.5 24.3,-6.8 25.4,-3 L25.7,-2 C26.5,0.6 26.9,2.8 26.9,4.5 C26.9,5.7 26.7,6.8 26.3,7.6 C25.7,8.7 24.7,9.4 23,9.8 C22.1,10 20.6,10.1 20.6,10.1 C20.1,10.1 19.7,10.2 19.3,10.2 C16.1,10.2 14.1,9 12.7,4.7 C11.5,1 11.3,-0.1 10.4,-4.5"/>
<path class="Note" transform="matrix(1.70079,0,0,1.70079,1336.17,517.323)" d="M18.7,-13.6 C4.9,-13.6 0,-6.6 0,-0.1 C0,6.4 4.9,13.4 18.7,13.4 C32.5,13.4 37.3,6.4 37.3,-0.1 C37.3,-6.6 32.5,-13.6 18.7,-13.6 M10.4,-4.5 C10.3,-4.9 10.3,-5.3 10.3,-5.7 C10.3,-6.5 10.5,-7.3 10.9,-8 C11.6,-9 12.8,-9.7 14.3,-10 C15.6,-10.3 16.3,-10.5 18.9,-10.5 L19,-10.5 C23,-10.5 24.3,-6.8 25.4,-3 L25.7,-2 C26.5,0.6 26.9,2.8 26.9,4.5 C26.9,5.7 26.7,6.8 26.3,7.6 C25.7,8.7 24.7,9.4 23,9.8 C22.1,10 20.6,10.1 20.6,10.1 C20.1,10.1 19.7,10.2 19.3,10.2 C16.1,10.2 14.1,9 12.7,4.7 C11.5,1 11.3,-0.1 10.4,-4.5"/>
<path class="Note" transform="matrix(1.70079,0,0,1.70079,1809.38,496.063)" d="M18.7,-13.6 C4.9,-13.6 0,-6.6 0,-0.1 C0,6.4 4.9,13.4 18.7,13.4 C32.5,13.4 37.3,6.4 37.3,-0.1 C37.3,-6.6 32.5,-13.6 18.7,-13.6 M10.4,-4.5 C10.3,-4.9 10.3,-5.3 10.3,-5.7 C10.3,-6.5 10.5,-7.3 10.9,-8 C11.6,-9 12.8,-9.7 14.3,-10 C15.6,-10.3 16.3,-10.5 18.9,-10.5 L19,-10.5 C23,-10.5 24.3,-6.8 25.4,-3 L25.7,-2 C26.5,0.6 26.9,2.8 26.9,4.5 C26.9,5.7 26.7,6.8 26.3,7.6 C25.7,8.7 24.7,9.4 23,9.8 C22.1,10 20.6,10.1 20.6,10.1 C20.1,10.1 19.7,10.2 19.3,10.2 C16.1,10.2 14.1,9 12.7,4.7 C11.5,1 11.3,-0.1 10.4,-4.5"/>
<path class="Note" transform="matrix(1.70079,0,0,1.70079,2282.58,432.283)" d="M18.7,-13.6 C4.9,-13.6 0,-6.6 0,-0.1 C0,6.4 4.9,13.4 18.7,13.4 C32.5,13.4 37.3,6.4 37.3,-0.1 C37.3,-6.6 32.5,-13.6 18.7,-13.6 M10.4,-4.5 C10.3,-4.9 10.3,-5.3 10.3,-5.7 C10.3,-6.5 10.5,-7.3 10.9,-8 C11.6,-9 12.8,-9.7 14.3,-10 C15.6,-10.3 16.3,-10.5 18.9,-10.5 L19,-10.5 C23,-10.5 24.3,-6.8 25.4,-3 L25.7,-2 C26.5,0.6 26.9,2.8 26.9,4.5 C26.9,5.7 26.7,6.8 26.3,7.6 C25.7,8.7 24.7,9.4 23,9.8 C22.1,10 20.6,10.1 20.6,10.1 C20.1,10.1 19.7,10.2 19.3,10.2 C16.1,10.2 14.1,9 12.7,4.7 C11.5,1 11.3,-0.1 10.4,-4.5"/>
<path class="Note" transform="matrix(1.70079,0,0,1.70079,2759.88,411.024)" d="M18.7,-13.6 C4.9,-13.6 0,-6.6 0,-0.1 C0,6.4 4.9,13.4 18.7,13.4 C32.5,13.4 37.3,6.4 37.3,-0.1 C37.3,-6.6 32.5,-13.6 18.7,-13.6 M10.4,-4.5 C10.3,-4.9 10.3,-5.3 10.3,-5.7 C10.3,-6.5 10.5,-7.3 10.9,-8 C11.6,-9 12.8,-9.7 14.3,-10 C15.6,-10.3 16.3,-10.5 18.9,-10.5 L19,-10.5 C23,-10.5 24.3,-6.8 25.4,-3 L25.7,-2 C26.5,0.6 26.9,2.8 26.9,4.5 C26.9,5.7 26.7,6.8 26.3,7.6 C25.7,8.7 24.7,9.4 23,9.8 C22.1,10 20.6,10.1 20.6,10.1 C20.1,10.1 19.7,10.2 19.3,10.2 C16.1,10.2 14.1,9 12.7,4.7 C11.5,1 11.3,-0.1 10.4,-4.5"/>
<path class="Note" transform="matrix(1.70079,0,0,1.70079,3243.06,559.843)" d="M18.7,-13.6 C4.9,-13.6 0,-6.6 0,-0.1 C0,6.4 4.9,13.4 18.7,13.4 C32.5,13.4 37.3,6.4 37.3,-0.1 C37.3,-6.6 32.5,-13.6 18.7,-13.6 M10.4,-4.5 C10.3,-4.9 10.3,-5.3 10.3,-5.7 C10.3,-6.5 10.5,-7.3 10.9,-8 C11.6,-9 12.8,-9.7 14.3,-10 C15.6,-10.3 16.3,-10.5 18.9,-10.5 L19,-10.5 C23,-10.5 24.3,-6.8 25.4,-3 L25.7,-2 C26.5,0.6 26.9,2.8 26.9,4.5 C26.9,5.7 26.7,6.8 26.3,7.6 C25.7,8.7 24.7,9.4 23,9.8 C22.1,10 20.6,10.1 20.6,10.1 C20.1,10.1 19.7,10.2 19.3,10.2 C16.1,10.2 14.1,9 12.7,4.7 C11.5,1 11.3,-0.1 10.4,-4.5"/>
<path class="Note" transform="matrix(1.70079,0,0,1.70079,3701.39,496.063)" d="M18.7,-13.6 C4.9,-13.6 0,-6.6 0,-0.1 C0,6.4 4.9,13.4 18.7,13.4 C32.5,13.4 37.3,6.4 37.3,-0.1 C37.3,-6.6 32.5,-13.6 18.7,-13.6 M10.4,-4.5 C10.3,-4.9 10.3,-5.3 10.3,-5.7 C10.3,-6.5 10.5,-7.3 10.9,-8 C11.6,-9 12.8,-9.7 14.3,-10 C15.6,-10.3 16.3,-10.5 18.9,-10.5 L19,-10.5 C23,-10.5 24.3,-6.8 25.4,-3 L25.7,-2 C26.5,0.6 26.9,2.8 26.9,4.5 C26.9,5.7 26.7,6.8 26.3,7.6 C25.7,8.7 24.7,9.4 23,9.8 C22.1,10 20.6,10.1 20.6,10.1 C20.1,10.1 19.7,10.2 19.3,10.2 C16.1,10.2 14.1,9 12.7,4.7 C11.5,1 11.3,-0.1 10.4,-4.5"/>
<path class="Clef" transform="matrix(1.70079,0,0,1.70079,104.882,368.504)" d="M25.4,-25.1 C17.8,-25.1 11.7,-20.7 11.6,-20.7 C5.8,-16.4 3.5,-11.3 2.6,-7.8 C2.1,-6 1.9,-4.2 1.9,-2.5 C1.9,-0.1 2.3,2.1 3.2,4 C4.4,6.7 6.7,8.6 9.7,9.6 C10.9,10 12.2,10.2 13.5,10.2 C15.7,10.2 18,9.6 19.9,8.5 C23,6.8 24.9,3.2 24.9,-0.7 C24.9,-4.2 23.1,-7.4 20.1,-9.3 C18,-10.7 16,-11.1 14.3,-11.1 C13.1,-11.1 12,-10.9 11.1,-10.6 C10.1,-10.2 8.4,-9.2 7.6,-8.5 C7.9,-10.4 9.1,-13.3 10.2,-14.9 C11.3,-16.5 13.5,-18.5 15.2,-19.4 C17.7,-20.8 20.9,-21.4 24.4,-21.4 C34.6,-21.4 39.6,-13.2 39.6,3.6 C39.6,12.9 36.1,21.8 33.1,27.7 C29.8,34.3 25.4,40.6 21.5,44.1 C11.1,53.6 1.3,58.1 1.2,58.1 C1.2,58.1 -0.3,59 0.1,60.5 C0.4,61.5 1.3,61.7 1.9,61.7 C2,61.7 2.3,61.6 2.4,61.6 C2.5,61.6 13.9,56.9 23,49.8 C28.1,46.1 32.7,42.1 36.7,37.8 C40.3,33.9 43.4,29.7 45.9,25.5 C50.3,18 52.8,10.2 52.8,3.5 C52.8,-4.8 50.6,-11.7 46.5,-16.6 C41.8,-22.2 34.7,-25.1 25.4,-25.1 M56.8,-12.4 C56.8,-9.6 59,-7.4 61.6,-7.4 C64.2,-7.4 66.4,-9.6 66.4,-12.4 C66.4,-15.2 64.2,-17.5 61.6,-17.5 C59,-17.5 56.8,-15.2 56.8,-12.4 M56.8,12.3 C56.8,15.1 59,17.4 61.6,17.4 C64.2,17.4 66.4,15.1 66.4,12.3 C66.4,9.5 64.2,7.2 61.6,7.2 C59,7.2 56.8,9.5 56.8,12.3"/>
<path class="KeySig" transform="matrix(1.70079,0,0,1.70079,260.331,368.504)" d="M23.3,-10.6 C23.9,-10.7 24.4,-11.4 24.4,-12 L24.4,-17.9 C24.4,-18.7 23.8,-19.3 23,-19.3 L22.8,-19.3 L19.5,-18.6 L19.5,-33.5 L16.7,-33.5 L16.7,-18 L7.8,-16.2 L7.8,-30.3 L5,-30.3 L5,-15.6 L1.1,-14.8 C0.5,-14.7 0,-14 0,-13.4 L0,-13.2 L0,-7.4 L0,-7.6 C0,-6.8 0.6,-6.2 1.4,-6.2 L1.7,-6.2 L5,-6.9 L5,9.6 L1.1,10.4 C0.5,10.5 0,11.2 0,11.8 L0,17.6 C0,18.4 0.6,19 1.4,19 L1.7,19 L5,18.3 L5,33.2 L7.8,33.2 L7.8,17.7 L16.7,15.9 L16.7,30 L19.5,30 L19.5,15.3 L23.3,14.6 C23.9,14.5 24.4,13.8 24.4,13.2 L24.4,7.3 C24.4,6.5 23.8,5.9 23,5.9 L22.8,5.9 L19.5,6.6 L19.5,-9.9 L23.3,-10.6 M7.8,9.1 L7.8,-7.5 L16.7,-9.3 L16.7,7.2 L7.8,9.1 "/>
<path class="FiguredBass" d="M899.661,644.587 C895.367,644.587 892.246,643.391 890.298,641.001 C889.59,640.115 888.682,639.296 887.575,638.544 C886.468,637.791 885.251,637.415 883.923,637.415 C882.196,637.415 880.647,637.957 879.274,639.042 C877.902,640.126 877.216,641.576 877.216,643.391 C877.216,644.188 876.817,644.587 876.021,644.587 C875.135,644.587 874.692,644.188 874.692,643.391 C874.692,640.691 875.323,638.223 876.585,635.987 C877.847,633.751 879.429,631.87 881.333,630.343 C883.237,628.815 885.295,627.177 887.509,625.429 C889.722,623.68 891.77,621.986 893.651,620.348 C895.533,618.71 897.105,616.641 898.366,614.139 C899.628,611.638 900.259,608.904 900.259,605.938 C900.259,602.22 899.65,599.076 898.433,596.509 C897.215,593.941 895.301,592.657 892.689,592.657 C891.183,592.657 889.877,593.022 888.771,593.753 C887.664,594.483 887.11,595.446 887.11,596.641 C887.11,597.571 887.741,598.789 889.003,600.294 C890.265,601.799 890.896,603.061 890.896,604.079 C890.896,606.204 890.176,607.986 888.737,609.425 C887.299,610.863 885.561,611.583 883.524,611.583 C881.399,611.583 879.618,610.841 878.179,609.358 C876.74,607.875 876.021,606.115 876.021,604.079 C876.021,600.006 877.648,596.664 880.901,594.052 C884.155,591.44 888.084,590.134 892.689,590.134 C898.134,590.134 902.882,591.606 906.933,594.55 C910.983,597.494 913.009,601.29 913.009,605.938 C913.009,609.082 912.444,611.804 911.315,614.106 C910.187,616.408 908.571,618.268 906.468,619.684 C904.365,621.101 902.262,622.307 900.159,623.304 C898.056,624.3 895.588,625.373 892.755,626.524 C889.922,627.675 887.642,628.804 885.915,629.911 C886.845,629.69 887.797,629.579 888.771,629.579 C892.047,629.579 895.455,630.641 898.997,632.766 C902.539,634.891 905.328,635.954 907.364,635.954 C908.515,635.954 909.456,635.744 910.187,635.323 C910.917,634.903 911.393,634.438 911.614,633.929 C911.836,633.419 912.09,632.944 912.378,632.501 C912.666,632.058 912.987,631.837 913.341,631.837 C914.226,631.837 914.669,632.279 914.669,633.165 C914.669,635.069 913.297,637.448 910.552,640.304 C907.807,643.159 904.177,644.587 899.661,644.587"/>
<path class="FiguredBass" d="M1369.88,592.657 C1366.6,592.657 1364.42,593.974 1363.34,596.608 C1362.25,599.242 1361.71,602.972 1361.71,607.798 L1361.71,615.634 C1364.01,614.704 1366.01,614.217 1367.69,614.173 C1373.44,614.173 1377.97,615.445 1381.27,617.991 C1384.57,620.537 1386.22,624.322 1386.22,629.347 C1386.22,634.371 1384.54,638.167 1381.2,640.735 C1377.86,643.303 1373.35,644.587 1367.69,644.587 C1361.89,644.587 1357.35,641.897 1354.07,636.518 C1350.8,631.139 1349.16,624.753 1349.16,617.36 C1349.16,610.011 1351.06,603.636 1354.87,598.235 C1358.68,592.834 1363.68,590.134 1369.88,590.134 C1373.95,590.134 1377.47,591.163 1380.44,593.222 C1383.4,595.28 1384.89,597.992 1384.89,601.356 C1384.89,603.304 1384.18,604.986 1382.76,606.403 C1381.35,607.82 1379.65,608.528 1377.68,608.528 C1375.71,608.528 1374.02,607.82 1372.6,606.403 C1371.19,604.986 1370.48,603.304 1370.48,601.356 C1370.48,599.453 1371.19,597.77 1372.6,596.309 C1373.09,595.734 1373.78,595.247 1374.66,594.848 C1374.44,594.273 1374,593.83 1373.33,593.52 C1372.36,592.945 1371.21,592.657 1369.88,592.657 M1373.13,619.817 C1372.34,617.736 1370.59,616.696 1367.89,616.696 C1365.19,616.696 1363.52,617.736 1362.87,619.817 C1362.23,621.898 1361.91,625.063 1361.91,629.313 C1361.91,634.316 1362.23,637.681 1362.87,639.407 C1363.52,641.134 1365.19,641.997 1367.89,641.997 C1370.59,641.997 1372.34,640.957 1373.13,638.876 C1373.93,636.795 1374.33,633.619 1374.33,629.347 C1374.33,625.074 1373.93,621.898 1373.13,619.817"/>
<path class="FiguredBass" d="M1353.68,665.837 L1356.86,666.302 C1357.71,666.434 1358.75,666.567 1359.99,666.7 C1363.04,667.054 1365.98,667.231 1368.82,667.231 C1371.65,667.231 1374.64,667.054 1377.78,666.7 C1379.02,666.567 1380.11,666.434 1381.04,666.302 L1384.29,665.837 C1384.95,665.837 1385.46,666.058 1385.82,666.501 C1386.08,666.855 1386.04,667.209 1385.68,667.563 C1378.78,674.337 1369.24,677.723 1357.06,677.723 C1356.58,677.723 1356.14,677.901 1355.77,678.255 C1355.39,678.609 1355.2,679.052 1355.2,679.583 L1355.2,688.016 C1358.35,684.917 1362.15,683.368 1366.63,683.368 C1372.87,683.368 1377.74,684.829 1381.24,687.751 C1385.04,684.873 1387.03,681.199 1387.21,676.727 C1387.26,675.311 1387.72,674.16 1388.61,673.274 C1389.58,672.389 1390.75,671.946 1392.13,671.946 C1393.5,671.946 1394.66,672.411 1395.61,673.341 C1396.56,674.27 1397.04,675.399 1397.04,676.727 C1397.04,683.589 1392.99,688.791 1384.89,692.333 C1386.22,694.945 1386.88,698.132 1386.88,701.895 C1386.88,706.898 1384.89,711.214 1380.9,714.845 C1376.92,718.475 1372.16,720.29 1366.63,720.29 C1361.84,720.29 1357.69,719.205 1354.17,717.036 C1350.66,714.867 1348.9,711.856 1348.9,708.005 C1348.9,706.057 1349.6,704.363 1351.02,702.925 C1352.44,701.486 1354.13,700.766 1356.1,700.766 C1358.07,700.766 1359.74,701.475 1361.11,702.891 C1362.49,704.308 1363.17,706.013 1363.17,708.005 C1363.17,708.89 1362.44,709.853 1360.98,710.893 C1359.52,711.934 1358.79,712.897 1358.79,713.782 C1358.79,716.438 1361.4,717.766 1366.63,717.766 C1371.72,717.766 1374.26,712.476 1374.26,701.895 C1374.26,699.549 1374.13,697.49 1373.86,695.72 C1368.51,696.826 1361.8,697.69 1353.74,698.309 C1352.64,698.398 1352.08,697.845 1352.08,696.649 C1352.08,695.675 1352.64,695.144 1353.74,695.056 C1361.89,694.391 1368.31,693.329 1373,691.868 C1371.76,688.326 1369.64,686.533 1366.63,686.489 C1362.07,686.489 1358.88,687.419 1357.06,689.278 C1355.25,691.138 1354.12,692.067 1353.68,692.067 C1352.61,692.067 1352.08,691.514 1352.08,690.407 L1352.08,667.563 C1352.08,667.121 1352.24,666.722 1352.55,666.368 C1352.9,666.014 1353.28,665.837 1353.68,665.837"/>
<path class="FiguredBass" d="M2316.29,592.657 C2313.02,592.657 2310.84,593.974 2309.75,596.608 C2308.67,599.242 2308.13,602.972 2308.13,607.798 L2308.13,615.634 C2310.43,614.704 2312.42,614.217 2314.1,614.173 C2319.86,614.173 2324.38,615.445 2327.68,617.991 C2330.98,620.537 2332.63,624.322 2332.63,629.347 C2332.63,634.371 2330.96,638.167 2327.62,640.735 C2324.27,643.303 2319.77,644.587 2314.1,644.587 C2308.3,644.587 2303.76,641.897 2300.49,636.518 C2297.21,631.139 2295.57,624.753 2295.57,617.36 C2295.57,610.011 2297.48,603.636 2301.29,598.235 C2305.09,592.834 2310.1,590.134 2316.29,590.134 C2320.37,590.134 2323.89,591.163 2326.85,593.222 C2329.82,595.28 2331.3,597.992 2331.3,601.356 C2331.3,603.304 2330.59,604.986 2329.18,606.403 C2327.76,607.82 2326.07,608.528 2324.1,608.528 C2322.13,608.528 2320.43,607.82 2319.02,606.403 C2317.6,604.986 2316.89,603.304 2316.89,601.356 C2316.89,599.453 2317.6,597.77 2319.02,596.309 C2319.5,595.734 2320.19,595.247 2321.07,594.848 C2320.85,594.273 2320.41,593.83 2319.75,593.52 C2318.77,592.945 2317.62,592.657 2316.29,592.657 M2319.55,619.817 C2318.75,617.736 2317,616.696 2314.3,616.696 C2311.6,616.696 2309.93,617.736 2309.29,619.817 C2308.65,621.898 2308.32,625.063 2308.32,629.313 C2308.32,634.316 2308.65,637.681 2309.29,639.407 C2309.93,641.134 2311.6,641.997 2314.3,641.997 C2317,641.997 2318.75,640.957 2319.55,638.876 C2320.34,636.795 2320.74,633.619 2320.74,629.347 C2320.74,625.074 2320.34,621.898 2319.55,619.817"/>
<path class="FiguredBass" d="M2300.09,665.837 C2300.09,665.837 2301.15,665.992 2303.28,666.302 C2304.21,666.434 2305.25,666.567 2306.4,666.7 C2309.45,667.054 2312.4,667.231 2315.23,667.231 C2318.06,667.231 2321.05,667.054 2324.2,666.7 C2325.43,666.567 2326.52,666.434 2327.45,666.302 L2330.7,665.837 C2331.37,665.837 2331.87,666.058 2332.2,666.501 C2332.53,666.944 2332.5,667.298 2332.1,667.563 C2325.32,674.337 2315.78,677.723 2303.48,677.723 C2302.99,677.723 2302.56,677.901 2302.18,678.255 C2301.81,678.609 2301.62,679.052 2301.62,679.583 L2301.62,690.009 C2304.76,686.91 2308.57,685.36 2313.04,685.36 C2319.5,685.36 2324.49,686.81 2328.01,689.71 C2331.53,692.61 2333.29,697.003 2333.29,702.891 C2333.29,707.894 2331.3,712.044 2327.32,715.343 C2323.33,718.641 2318.57,720.29 2313.04,720.29 C2308.26,720.29 2304.11,719.205 2300.59,717.036 C2297.07,714.867 2295.31,711.856 2295.31,708.005 C2295.31,706.057 2296.02,704.363 2297.43,702.925 C2298.85,701.486 2300.54,700.766 2302.51,700.766 C2304.48,700.766 2306.16,701.475 2307.53,702.891 C2308.9,704.308 2309.59,706.013 2309.59,708.005 C2309.59,708.89 2308.86,709.853 2307.39,710.893 C2305.93,711.934 2305.2,712.897 2305.2,713.782 C2305.2,716.438 2307.82,717.766 2313.04,717.766 C2318.13,717.766 2320.68,712.808 2320.68,702.891 C2320.68,693.329 2318.13,688.526 2313.04,688.481 C2308.48,688.481 2305.29,689.411 2303.48,691.27 C2301.66,693.13 2300.53,694.059 2300.09,694.059 C2298.98,694.059 2298.45,693.506 2298.5,692.399 L2298.5,667.563 C2298.5,667.076 2298.65,666.667 2298.96,666.335 C2299.27,666.003 2299.65,665.837 2300.09,665.837"/>
<path class="FiguredBass" d="M2793.12,591.528 C2794.8,591.528 2796.57,591.285 2798.43,590.798 L2801.42,590.001 C2802,590.001 2802.45,590.222 2802.78,590.665 C2803.11,591.108 2803.08,591.506 2802.68,591.86 L2771.8,627.786 L2789.93,627.786 L2789.93,613.575 C2789.93,612.557 2790.21,611.771 2790.76,611.218 C2791.32,610.664 2792.03,610.222 2792.89,609.889 C2793.75,609.557 2794.88,608.572 2796.28,606.934 C2797.67,605.296 2799.01,603.083 2800.29,600.294 C2800.51,599.851 2800.85,599.63 2801.29,599.63 C2802.22,599.63 2802.68,600.139 2802.68,601.157 L2802.68,627.786 L2810.52,627.786 C2811.63,627.786 2812.18,628.295 2812.18,629.313 C2812.18,630.42 2811.63,630.973 2810.52,630.973 L2802.68,630.973 L2802.68,631.837 C2802.68,634.582 2803.41,636.972 2804.87,639.009 C2806.34,641.045 2808.22,642.063 2810.52,642.063 C2811.4,642.063 2811.85,642.462 2811.85,643.259 C2811.85,644.144 2811.4,644.587 2810.52,644.587 C2808.93,644.587 2806.56,644.354 2803.41,643.889 C2800.27,643.425 2797.89,643.192 2796.28,643.192 C2794.66,643.192 2792.28,643.425 2789.14,643.889 C2785.99,644.354 2783.62,644.587 2782.03,644.587 C2781.15,644.587 2780.7,644.144 2780.7,643.259 C2780.7,642.462 2781.15,642.063 2782.03,642.063 C2784.33,642.063 2786.23,641.045 2787.71,639.009 C2789.19,636.972 2789.93,634.582 2789.93,631.837 L2789.93,630.973 L2771.8,630.973 C2770.65,630.973 2769.8,630.697 2769.25,630.143 C2768.69,629.59 2768.42,629.026 2768.42,628.45 C2768.42,628.229 2768.94,627.465 2769.98,626.159 C2771.02,624.853 2772.29,623.115 2773.8,620.946 C2775.3,618.777 2776.8,616.309 2778.28,613.542 C2779.76,610.775 2781.02,607.455 2782.06,603.581 C2783.1,599.707 2783.62,595.8 2783.62,591.86 C2783.62,590.709 2784.11,590.134 2785.09,590.134 C2785.22,590.134 2785.68,590.244 2786.48,590.466 C2787.28,590.687 2788.3,590.919 2789.53,591.163 C2790.77,591.406 2791.97,591.528 2793.12,591.528"/>
<path class="FiguredBass" d="M3285.27,638.661 C3285.27,639.369 3285.67,640.055 3286.47,640.719 C3287.26,641.383 3288.14,642.014 3289.09,642.612 C3290.04,643.209 3290.92,644.338 3291.71,645.999 C3292.51,647.659 3292.91,649.751 3292.91,652.274 C3292.91,657.144 3291.07,660.907 3287.4,663.563 C3283.72,666.219 3279.07,667.547 3273.45,667.547 C3268.94,667.547 3265.01,666.418 3261.66,664.161 C3258.32,661.903 3256.65,658.937 3256.65,655.262 C3256.65,653.314 3257.36,651.621 3258.78,650.182 C3260.19,648.743 3261.89,648.024 3263.86,648.024 C3265.83,648.024 3267.5,648.732 3268.87,650.149 C3270.24,651.566 3270.93,653.27 3270.93,655.262 C3270.93,656.148 3270.2,657.111 3268.74,658.151 C3267.28,659.191 3266.54,660.154 3266.54,661.04 C3266.54,662.412 3267.22,663.419 3268.57,664.061 C3269.92,664.703 3271.55,665.024 3273.45,665.024 C3275.93,665.024 3277.69,663.795 3278.73,661.338 C3279.77,658.881 3280.29,655.86 3280.29,652.274 L3280.29,650.547 C3280.29,648.157 3280.21,646.342 3280.06,645.102 C3279.9,643.862 3279.42,642.756 3278.6,641.782 C3277.78,640.808 3276.53,640.321 3274.85,640.321 L3266.15,640.321 C3265.13,640.321 3264.62,639.767 3264.62,638.661 C3264.62,637.642 3265.13,637.133 3266.15,637.133 L3274.85,637.133 C3276.66,637.133 3278.08,636.447 3279.1,635.075 C3279.45,634.588 3279.74,633.791 3279.96,632.684 C3280.18,631.223 3280.29,629.12 3280.29,626.376 L3280.29,625.512 C3280.29,618.916 3277.86,615.618 3272.99,615.618 C3268.69,615.618 3266.54,616.813 3266.54,619.204 C3266.54,620.001 3267.2,620.853 3268.5,621.76 C3269.81,622.668 3270.46,623.52 3270.46,624.317 C3270.46,626.043 3269.85,627.527 3268.64,628.766 C3267.42,630.006 3265.94,630.626 3264.19,630.626 C3262.44,630.626 3260.97,630.006 3259.77,628.766 C3258.58,627.527 3257.98,626.043 3257.98,624.317 C3257.98,620.908 3259.46,618.185 3262.43,616.149 C3265.39,614.112 3268.91,613.094 3272.99,613.094 C3278.34,613.094 3282.75,614.124 3286.2,616.182 C3289.65,618.241 3291.38,621.351 3291.38,625.512 C3291.38,628.478 3291.07,630.78 3290.45,632.418 C3289.83,634.056 3289.12,635.053 3288.33,635.407 C3287.53,635.761 3286.82,636.17 3286.2,636.635 C3285.58,637.1 3285.27,637.775 3285.27,638.661"/>
</svg>
