<?xml version="1.0" encoding="UTF-8" standalone="no"?>
<svg width="4209.44px" height="850.392px" viewBox="0 0 4209.44 850.392"
 xmlns="http://www.w3.org/2000/svg" xmlns:xlink="http://www.w3.org/1999/xlink" version="1.2" baseProfile="tiny">
<title>ExercicesFaMajeur (13)</title>
<desc>Generated by MuseScore 3.6.2</desc>
<polyline class="StaffLines" fill="none" stroke="#000000" stroke-width="4.68" stroke-linejoin="bevel" points="70.866,325.984 4138.58,325.984"/>
<polyline class="StaffLines" fill="none" stroke="#000000" stroke-width="4.68" stroke-linejoin="bevel" points="70.866,368.504 4138.58,368.504"/>
<polyline class="StaffLines" fill="none" stroke="#000000" stroke-width="4.68" stroke-linejoin="bevel" points="70.866,411.024 4138.58,411.024"/>
<polyline class="StaffLines" fill="none" stroke="#000000" stroke-width="4.68" stroke-linejoin="bevel" points="70.866,453.543 4138.58,453.543"/>
<polyline class="StaffLines" fill="none" stroke="#000000" stroke-width="4.68" stroke-linejoin="bevel" points="70.866,496.063 4138.58,496.063"/>
<polyline class="BarLine" fill="none" stroke="#000000" stroke-width="7.65" stroke-linejoin="bevel" points="576.739,323.646 576.739,498.402"/>
<polyline class="BarLine" fill="none" stroke="#000000" stroke-width="7.65" stroke-linejoin="bevel" points="829.799,323.646 829.799,498.402"/>
<polyline class="BarLine" fill="none" stroke="#000000" stroke-width="7.65" stroke-linejoin="bevel" points="1082.86,323.646 1082.86,498.402"/>
<polyline class="BarLine" fill="none" stroke="#000000" stroke-width="7.65" stroke-linejoin="bevel" points="1335.92,323.646 1335.92,498.402"/>
<polyline class="BarLine" fill="none" stroke="#000000" stroke-width="7.65" stroke-linejoin="bevel" points="1588.98,323.646 1588.98,498.402"/>
<polyline class="BarLine" fill="none" stroke="#000000" stroke-width="7.65" stroke-linejoin="bevel" points="1841.22,323.646 1841.22,498.402"/>
<polyline class="BarLine" fill="none" stroke="#000000" stroke-width="7.65" stroke-linejoin="bevel" points="2093.46,323.646 2093.46,498.402"/>
<polyline class="BarLine" fill="none" stroke="#000000" stroke-width="7.65" stroke-linejoin="bevel" points="2345.71,323.646 2345.71,498.402"/>
<polyline class="BarLine" fill="none" stroke="#000000" stroke-width="7.65" stroke-linejoin="bevel" points="2597.95,323.646 2597.95,498.402"/>
<polyline class="BarLine" fill="none" stroke="#000000" stroke-width="7.65" stroke-linejoin="bevel" points="2850.19,323.646 2850.19,498.402"/>
<polyline class="BarLine" fill="none" stroke="#000000" stroke-width="7.65" stroke-linejoin="bevel" points="3103.25,323.646 3103.25,498.402"/>
<polyline class="BarLine" fill="none" stroke="#000000" stroke-width="7.65" stroke-linejoin="bevel" points="3356.31,323.646 3356.31,498.402"/>
<polyline class="BarLine" fill="none" stroke="#000000" stroke-width="7.65" stroke-linejoin="bevel" points="3609.37,323.646 3609.37,498.402"/>
<polyline class="BarLine" fill="none" stroke="#000000" stroke-width="7.65" stroke-linejoin="bevel" points="3862.43,323.646 3862.43,498.402"/>
<polyline class="BarLine" fill="none" stroke="#000000" stroke-width="7.65" stroke-linejoin="bevel" points="4097.12,323.646 4097.12,498.402"/>
<polyline class="BarLine" fill="none" stroke="#000000" stroke-width="23.39" stroke-linejoin="bevel" points="4126.89,323.646 4126.89,498.402"/>
<path class="Note" transform="matrix(1.70079,0,0,1.70079,401.151,517.323)" d="M18.7,-13.6 C4.9,-13.6 0,-6.6 0,-0.1 C0,6.4 4.9,13.4 18.7,13.4 C32.5,13.4 37.3,6.4 37.3,-0.1 C37.3,-6.6 32.5,-13.6 18.7,-13.6 M10.4,-4.5 C10.3,-4.9 10.3,-5.3 10.3,-5.7 C10.3,-6.5 10.5,-7.3 10.9,-8 C11.6,-9 12.8,-9.7 14.3,-10 C15.6,-10.3 16.3,-10.5 18.9,-10.5 L19,-10.5 C23,-10.5 24.3,-6.8 25.4,-3 L25.7,-2 C26.5,0.6 26.9,2.8 26.9,4.5 C26.9,5.7 26.7,6.8 26.3,7.6 C25.7,8.7 24.7,9.4 23,9.8 C22.1,10 20.6,10.1 20.6,10.1 C20.1,10.1 19.7,10.2 19.3,10.2 C16.1,10.2 14.1,9 12.7,4.7 C11.5,1 11.3,-0.1 10.4,-4.5"/>
<path class="Note" transform="matrix(1.70079,0,0,1.70079,635.841,496.063)" d="M18.7,-13.6 C4.9,-13.6 0,-6.6 0,-0.1 C0,6.4 4.9,13.4 18.7,13.4 C32.5,13.4 37.3,6.4 37.3,-0.1 C37.3,-6.6 32.5,-13.6 18.7,-13.6 M10.4,-4.5 C10.3,-4.9 10.3,-5.3 10.3,-5.7 C10.3,-6.5 10.5,-7.3 10.9,-8 C11.6,-9 12.8,-9.7 14.3,-10 C15.6,-10.3 16.3,-10.5 18.9,-10.5 L19,-10.5 C23,-10.5 24.3,-6.8 25.4,-3 L25.7,-2 C26.5,0.6 26.9,2.8 26.9,4.5 C26.9,5.7 26.7,6.8 26.3,7.6 C25.7,8.7 24.7,9.4 23,9.8 C22.1,10 20.6,10.1 20.6,10.1 C20.1,10.1 19.7,10.2 19.3,10.2 C16.1,10.2 14.1,9 12.7,4.7 C11.5,1 11.3,-0.1 10.4,-4.5"/>
<path class="Note" transform="matrix(1.70079,0,0,1.70079,888.901,474.803)" d="M18.7,-13.6 C4.9,-13.6 0,-6.6 0,-0.1 C0,6.4 4.9,13.4 18.7,13.4 C32.5,13.4 37.3,6.4 37.3,-0.1 C37.3,-6.6 32.5,-13.6 18.7,-13.6 M10.4,-4.5 C10.3,-4.9 10.3,-5.3 10.3,-5.7 C10.3,-6.5 10.5,-7.3 10.9,-8 C11.6,-9 12.8,-9.7 14.3,-10 C15.6,-10.3 16.3,-10.5 18.9,-10.5 L19,-10.5 C23,-10.5 24.3,-6.8 25.4,-3 L25.7,-2 C26.5,0.6 26.9,2.8 26.9,4.5 C26.9,5.7 26.7,6.8 26.3,7.6 C25.7,8.7 24.7,9.4 23,9.8 C22.1,10 20.6,10.1 20.6,10.1 C20.1,10.1 19.7,10.2 19.3,10.2 C16.1,10.2 14.1,9 12.7,4.7 C11.5,1 11.3,-0.1 10.4,-4.5"/>
<path class="Note" transform="matrix(1.70079,0,0,1.70079,1141.96,453.543)" d="M18.7,-13.6 C4.9,-13.6 0,-6.6 0,-0.1 C0,6.4 4.9,13.4 18.7,13.4 C32.5,13.4 37.3,6.4 37.3,-0.1 C37.3,-6.6 32.5,-13.6 18.7,-13.6 M10.4,-4.5 C10.3,-4.9 10.3,-5.3 10.3,-5.7 C10.3,-6.5 10.5,-7.3 10.9,-8 C11.6,-9 12.8,-9.7 14.3,-10 C15.6,-10.3 16.3,-10.5 18.9,-10.5 L19,-10.5 C23,-10.5 24.3,-6.8 25.4,-3 L25.7,-2 C26.5,0.6 26.9,2.8 26.9,4.5 C26.9,5.7 26.7,6.8 26.3,7.6 C25.7,8.7 24.7,9.4 23,9.8 C22.1,10 20.6,10.1 20.6,10.1 C20.1,10.1 19.7,10.2 19.3,10.2 C16.1,10.2 14.1,9 12.7,4.7 C11.5,1 11.3,-0.1 10.4,-4.5"/>
<path class="Note" transform="matrix(1.70079,0,0,1.70079,1395.02,432.283)" d="M18.7,-13.6 C4.9,-13.6 0,-6.6 0,-0.1 C0,6.4 4.9,13.4 18.7,13.4 C32.5,13.4 37.3,6.4 37.3,-0.1 C37.3,-6.6 32.5,-13.6 18.7,-13.6 M10.4,-4.5 C10.3,-4.9 10.3,-5.3 10.3,-5.7 C10.3,-6.5 10.5,-7.3 10.9,-8 C11.6,-9 12.8,-9.7 14.3,-10 C15.6,-10.3 16.3,-10.5 18.9,-10.5 L19,-10.5 C23,-10.5 24.3,-6.8 25.4,-3 L25.7,-2 C26.5,0.6 26.9,2.8 26.9,4.5 C26.9,5.7 26.7,6.8 26.3,7.6 C25.7,8.7 24.7,9.4 23,9.8 C22.1,10 20.6,10.1 20.6,10.1 C20.1,10.1 19.7,10.2 19.3,10.2 C16.1,10.2 14.1,9 12.7,4.7 C11.5,1 11.3,-0.1 10.4,-4.5"/>
<path class="Note" transform="matrix(1.70079,0,0,1.70079,1652.17,411.024)" d="M18.7,-13.6 C4.9,-13.6 0,-6.6 0,-0.1 C0,6.4 4.9,13.4 18.7,13.4 C32.5,13.4 37.3,6.4 37.3,-0.1 C37.3,-6.6 32.5,-13.6 18.7,-13.6 M10.4,-4.5 C10.3,-4.9 10.3,-5.3 10.3,-5.7 C10.3,-6.5 10.5,-7.3 10.9,-8 C11.6,-9 12.8,-9.7 14.3,-10 C15.6,-10.3 16.3,-10.5 18.9,-10.5 L19,-10.5 C23,-10.5 24.3,-6.8 25.4,-3 L25.7,-2 C26.5,0.6 26.9,2.8 26.9,4.5 C26.9,5.7 26.7,6.8 26.3,7.6 C25.7,8.7 24.7,9.4 23,9.8 C22.1,10 20.6,10.1 20.6,10.1 C20.1,10.1 19.7,10.2 19.3,10.2 C16.1,10.2 14.1,9 12.7,4.7 C11.5,1 11.3,-0.1 10.4,-4.5"/>
<path class="Note" transform="matrix(1.70079,0,0,1.70079,1904.41,389.764)" d="M18.7,-13.6 C4.9,-13.6 0,-6.6 0,-0.1 C0,6.4 4.9,13.4 18.7,13.4 C32.5,13.4 37.3,6.4 37.3,-0.1 C37.3,-6.6 32.5,-13.6 18.7,-13.6 M10.4,-4.5 C10.3,-4.9 10.3,-5.3 10.3,-5.7 C10.3,-6.5 10.5,-7.3 10.9,-8 C11.6,-9 12.8,-9.7 14.3,-10 C15.6,-10.3 16.3,-10.5 18.9,-10.5 L19,-10.5 C23,-10.5 24.3,-6.8 25.4,-3 L25.7,-2 C26.5,0.6 26.9,2.8 26.9,4.5 C26.9,5.7 26.7,6.8 26.3,7.6 C25.7,8.7 24.7,9.4 23,9.8 C22.1,10 20.6,10.1 20.6,10.1 C20.1,10.1 19.7,10.2 19.3,10.2 C16.1,10.2 14.1,9 12.7,4.7 C11.5,1 11.3,-0.1 10.4,-4.5"/>
<path class="Note" transform="matrix(1.70079,0,0,1.70079,2156.65,368.504)" d="M18.7,-13.6 C4.9,-13.6 0,-6.6 0,-0.1 C0,6.4 4.9,13.4 18.7,13.4 C32.5,13.4 37.3,6.4 37.3,-0.1 C37.3,-6.6 32.5,-13.6 18.7,-13.6 M10.4,-4.5 C10.3,-4.9 10.3,-5.3 10.3,-5.7 C10.3,-6.5 10.5,-7.3 10.9,-8 C11.6,-9 12.8,-9.7 14.3,-10 C15.6,-10.3 16.3,-10.5 18.9,-10.5 L19,-10.5 C23,-10.5 24.3,-6.8 25.4,-3 L25.7,-2 C26.5,0.6 26.9,2.8 26.9,4.5 C26.9,5.7 26.7,6.8 26.3,7.6 C25.7,8.7 24.7,9.4 23,9.8 C22.1,10 20.6,10.1 20.6,10.1 C20.1,10.1 19.7,10.2 19.3,10.2 C16.1,10.2 14.1,9 12.7,4.7 C11.5,1 11.3,-0.1 10.4,-4.5"/>
<path class="Note" transform="matrix(1.70079,0,0,1.70079,2408.89,389.764)" d="M18.7,-13.6 C4.9,-13.6 0,-6.6 0,-0.1 C0,6.4 4.9,13.4 18.7,13.4 C32.5,13.4 37.3,6.4 37.3,-0.1 C37.3,-6.6 32.5,-13.6 18.7,-13.6 M10.4,-4.5 C10.3,-4.9 10.3,-5.3 10.3,-5.7 C10.3,-6.5 10.5,-7.3 10.9,-8 C11.6,-9 12.8,-9.7 14.3,-10 C15.6,-10.3 16.3,-10.5 18.9,-10.5 L19,-10.5 C23,-10.5 24.3,-6.8 25.4,-3 L25.7,-2 C26.5,0.6 26.9,2.8 26.9,4.5 C26.9,5.7 26.7,6.8 26.3,7.6 C25.7,8.7 24.7,9.4 23,9.8 C22.1,10 20.6,10.1 20.6,10.1 C20.1,10.1 19.7,10.2 19.3,10.2 C16.1,10.2 14.1,9 12.7,4.7 C11.5,1 11.3,-0.1 10.4,-4.5"/>
<path class="Note" transform="matrix(1.70079,0,0,1.70079,2661.14,411.024)" d="M18.7,-13.6 C4.9,-13.6 0,-6.6 0,-0.1 C0,6.4 4.9,13.4 18.7,13.4 C32.5,13.4 37.3,6.4 37.3,-0.1 C37.3,-6.6 32.5,-13.6 18.7,-13.6 M10.4,-4.5 C10.3,-4.9 10.3,-5.3 10.3,-5.7 C10.3,-6.5 10.5,-7.3 10.9,-8 C11.6,-9 12.8,-9.7 14.3,-10 C15.6,-10.3 16.3,-10.5 18.9,-10.5 L19,-10.5 C23,-10.5 24.3,-6.8 25.4,-3 L25.7,-2 C26.5,0.6 26.9,2.8 26.9,4.5 C26.9,5.7 26.7,6.8 26.3,7.6 C25.7,8.7 24.7,9.4 23,9.8 C22.1,10 20.6,10.1 20.6,10.1 C20.1,10.1 19.7,10.2 19.3,10.2 C16.1,10.2 14.1,9 12.7,4.7 C11.5,1 11.3,-0.1 10.4,-4.5"/>
<path class="Note" transform="matrix(1.70079,0,0,1.70079,2909.29,432.283)" d="M18.7,-13.6 C4.9,-13.6 0,-6.6 0,-0.1 C0,6.4 4.9,13.4 18.7,13.4 C32.5,13.4 37.3,6.4 37.3,-0.1 C37.3,-6.6 32.5,-13.6 18.7,-13.6 M10.4,-4.5 C10.3,-4.9 10.3,-5.3 10.3,-5.7 C10.3,-6.5 10.5,-7.3 10.9,-8 C11.6,-9 12.8,-9.7 14.3,-10 C15.6,-10.3 16.3,-10.5 18.9,-10.5 L19,-10.5 C23,-10.5 24.3,-6.8 25.4,-3 L25.7,-2 C26.5,0.6 26.9,2.8 26.9,4.5 C26.9,5.7 26.7,6.8 26.3,7.6 C25.7,8.7 24.7,9.4 23,9.8 C22.1,10 20.6,10.1 20.6,10.1 C20.1,10.1 19.7,10.2 19.3,10.2 C16.1,10.2 14.1,9 12.7,4.7 C11.5,1 11.3,-0.1 10.4,-4.5"/>
<path class="Note" transform="matrix(1.70079,0,0,1.70079,3162.35,453.543)" d="M18.7,-13.6 C4.9,-13.6 0,-6.6 0,-0.1 C0,6.4 4.9,13.4 18.7,13.4 C32.5,13.4 37.3,6.4 37.3,-0.1 C37.3,-6.6 32.5,-13.6 18.7,-13.6 M10.4,-4.5 C10.3,-4.9 10.3,-5.3 10.3,-5.7 C10.3,-6.5 10.5,-7.3 10.9,-8 C11.6,-9 12.8,-9.7 14.3,-10 C15.6,-10.3 16.3,-10.5 18.9,-10.5 L19,-10.5 C23,-10.5 24.3,-6.8 25.4,-3 L25.7,-2 C26.5,0.6 26.9,2.8 26.9,4.5 C26.9,5.7 26.7,6.8 26.3,7.6 C25.7,8.7 24.7,9.4 23,9.8 C22.1,10 20.6,10.1 20.6,10.1 C20.1,10.1 19.7,10.2 19.3,10.2 C16.1,10.2 14.1,9 12.7,4.7 C11.5,1 11.3,-0.1 10.4,-4.5"/>
<path class="Note" transform="matrix(1.70079,0,0,1.70079,3415.41,474.803)" d="M18.7,-13.6 C4.9,-13.6 0,-6.6 0,-0.1 C0,6.4 4.9,13.4 18.7,13.4 C32.5,13.4 37.3,6.4 37.3,-0.1 C37.3,-6.6 32.5,-13.6 18.7,-13.6 M10.4,-4.5 C10.3,-4.9 10.3,-5.3 10.3,-5.7 C10.3,-6.5 10.5,-7.3 10.9,-8 C11.6,-9 12.8,-9.7 14.3,-10 C15.6,-10.3 16.3,-10.5 18.9,-10.5 L19,-10.5 C23,-10.5 24.3,-6.8 25.4,-3 L25.7,-2 C26.5,0.6 26.9,2.8 26.9,4.5 C26.9,5.7 26.7,6.8 26.3,7.6 C25.7,8.7 24.7,9.4 23,9.8 C22.1,10 20.6,10.1 20.6,10.1 C20.1,10.1 19.7,10.2 19.3,10.2 C16.1,10.2 14.1,9 12.7,4.7 C11.5,1 11.3,-0.1 10.4,-4.5"/>
<path class="Note" transform="matrix(1.70079,0,0,1.70079,3668.47,496.063)" d="M18.7,-13.6 C4.9,-13.6 0,-6.6 0,-0.1 C0,6.4 4.9,13.4 18.7,13.4 C32.5,13.4 37.3,6.4 37.3,-0.1 C37.3,-6.6 32.5,-13.6 18.7,-13.6 M10.4,-4.5 C10.3,-4.9 10.3,-5.3 10.3,-5.7 C10.3,-6.5 10.5,-7.3 10.9,-8 C11.6,-9 12.8,-9.7 14.3,-10 C15.6,-10.3 16.3,-10.5 18.9,-10.5 L19,-10.5 C23,-10.5 24.3,-6.8 25.4,-3 L25.7,-2 C26.5,0.6 26.9,2.8 26.9,4.5 C26.9,5.7 26.7,6.8 26.3,7.6 C25.7,8.7 24.7,9.4 23,9.8 C22.1,10 20.6,10.1 20.6,10.1 C20.1,10.1 19.7,10.2 19.3,10.2 C16.1,10.2 14.1,9 12.7,4.7 C11.5,1 11.3,-0.1 10.4,-4.5"/>
<path class="Note" transform="matrix(1.70079,0,0,1.70079,3921.53,517.323)" d="M18.7,-13.6 C4.9,-13.6 0,-6.6 0,-0.1 C0,6.4 4.9,13.4 18.7,13.4 C32.5,13.4 37.3,6.4 37.3,-0.1 C37.3,-6.6 32.5,-13.6 18.7,-13.6 M10.4,-4.5 C10.3,-4.9 10.3,-5.3 10.3,-5.7 C10.3,-6.5 10.5,-7.3 10.9,-8 C11.6,-9 12.8,-9.7 14.3,-10 C15.6,-10.3 16.3,-10.5 18.9,-10.5 L19,-10.5 C23,-10.5 24.3,-6.8 25.4,-3 L25.7,-2 C26.5,0.6 26.9,2.8 26.9,4.5 C26.9,5.7 26.7,6.8 26.3,7.6 C25.7,8.7 24.7,9.4 23,9.8 C22.1,10 20.6,10.1 20.6,10.1 C20.1,10.1 19.7,10.2 19.3,10.2 C16.1,10.2 14.1,9 12.7,4.7 C11.5,1 11.3,-0.1 10.4,-4.5"/>
<path class="Clef" transform="matrix(1.70079,0,0,1.70079,104.882,368.504)" d="M25.4,-25.1 C17.8,-25.1 11.7,-20.7 11.6,-20.7 C5.8,-16.4 3.5,-11.3 2.6,-7.8 C2.1,-6 1.9,-4.2 1.9,-2.5 C1.9,-0.1 2.3,2.1 3.2,4 C4.4,6.7 6.7,8.6 9.7,9.6 C10.9,10 12.2,10.2 13.5,10.2 C15.7,10.2 18,9.6 19.9,8.5 C23,6.8 24.9,3.2 24.9,-0.7 C24.9,-4.2 23.1,-7.4 20.1,-9.3 C18,-10.7 16,-11.1 14.3,-11.1 C13.1,-11.1 12,-10.9 11.1,-10.6 C10.1,-10.2 8.4,-9.2 7.6,-8.5 C7.9,-10.4 9.1,-13.3 10.2,-14.9 C11.3,-16.5 13.5,-18.5 15.2,-19.4 C17.7,-20.8 20.9,-21.4 24.4,-21.4 C34.6,-21.4 39.6,-13.2 39.6,3.6 C39.6,12.9 36.1,21.8 33.1,27.7 C29.8,34.3 25.4,40.6 21.5,44.1 C11.1,53.6 1.3,58.1 1.2,58.1 C1.2,58.1 -0.3,59 0.1,60.5 C0.4,61.5 1.3,61.7 1.9,61.7 C2,61.7 2.3,61.6 2.4,61.6 C2.5,61.6 13.9,56.9 23,49.8 C28.1,46.1 32.7,42.1 36.7,37.8 C40.3,33.9 43.4,29.7 45.9,25.5 C50.3,18 52.8,10.2 52.8,3.5 C52.8,-4.8 50.6,-11.7 46.5,-16.6 C41.8,-22.2 34.7,-25.1 25.4,-25.1 M56.8,-12.4 C56.8,-9.6 59,-7.4 61.6,-7.4 C64.2,-7.4 66.4,-9.6 66.4,-12.4 C66.4,-15.2 64.2,-17.5 61.6,-17.5 C59,-17.5 56.8,-15.2 56.8,-12.4 M56.8,12.3 C56.8,15.1 59,17.4 61.6,17.4 C64.2,17.4 66.4,15.1 66.4,12.3 C66.4,9.5 64.2,7.2 61.6,7.2 C59,7.2 56.8,9.5 56.8,12.3"/>
<path class="KeySig" transform="matrix(1.70079,0,0,1.70079,260.331,453.543)" d="M20.1,-7.9 C19.5,-11.8 17.1,-15.5 12,-15.5 C7,-15.5 4.1,-12.4 3.6,-11.8 L4,-43.9 C4,-44.7 3.4,-45.3 2.6,-45.3 L1.4,-45.3 C0.6,-45.3 0,-44.7 0,-43.9 L0.5,16.2 C0.5,17 1.1,17.6 1.9,17.6 C2.1,17.6 2.5,17.5 2.7,17.4 C3.1,17.2 9.6,14 15,7.9 C18.8,3.6 20.3,-1.3 20.3,-5.4 C20.3,-6.3 20.2,-7.1 20.1,-7.9 M13.2,-4 C13.2,-2.5 12.8,2.1 10.3,5.9 C8.6,8.5 5.2,11.2 3.3,12.7 L3.6,-6.8 C3.8,-7.7 5.3,-10.6 9.3,-10.6 C12.9,-10.6 13.2,-7.2 13.2,-5.1 L13.2,-4 "/>
</svg>
