<?xml version="1.0" encoding="UTF-8" standalone="no"?>
<svg width="4209.44px" height="850.392px" viewBox="0 0 4209.44 850.392"
 xmlns="http://www.w3.org/2000/svg" xmlns:xlink="http://www.w3.org/1999/xlink" version="1.2" baseProfile="tiny">
<title>ExercicesDoMajeur (10)</title>
<desc>Generated by MuseScore 3.6.2</desc>
<polyline class="StaffLines" fill="none" stroke="#000000" stroke-width="4.68" stroke-linejoin="bevel" points="70.866,325.984 4138.58,325.984"/>
<polyline class="StaffLines" fill="none" stroke="#000000" stroke-width="4.68" stroke-linejoin="bevel" points="70.866,368.504 4138.58,368.504"/>
<polyline class="StaffLines" fill="none" stroke="#000000" stroke-width="4.68" stroke-linejoin="bevel" points="70.866,411.024 4138.58,411.024"/>
<polyline class="StaffLines" fill="none" stroke="#000000" stroke-width="4.68" stroke-linejoin="bevel" points="70.866,453.543 4138.58,453.543"/>
<polyline class="StaffLines" fill="none" stroke="#000000" stroke-width="4.68" stroke-linejoin="bevel" points="70.866,496.063 4138.58,496.063"/>
<polyline class="BarLine" fill="none" stroke="#000000" stroke-width="7.65" stroke-linejoin="bevel" points="671.225,323.646 671.225,498.402"/>
<polyline class="BarLine" fill="none" stroke="#000000" stroke-width="7.65" stroke-linejoin="bevel" points="1099.9,323.646 1099.9,498.402"/>
<polyline class="BarLine" fill="none" stroke="#000000" stroke-width="7.65" stroke-linejoin="bevel" points="1528.57,323.646 1528.57,498.402"/>
<polyline class="BarLine" fill="none" stroke="#000000" stroke-width="7.65" stroke-linejoin="bevel" points="1957.24,323.646 1957.24,498.402"/>
<polyline class="BarLine" fill="none" stroke="#000000" stroke-width="7.65" stroke-linejoin="bevel" points="2385.92,323.646 2385.92,498.402"/>
<polyline class="BarLine" fill="none" stroke="#000000" stroke-width="7.65" stroke-linejoin="bevel" points="2814.59,323.646 2814.59,498.402"/>
<polyline class="BarLine" fill="none" stroke="#000000" stroke-width="7.65" stroke-linejoin="bevel" points="3243.26,323.646 3243.26,498.402"/>
<polyline class="BarLine" fill="none" stroke="#000000" stroke-width="7.65" stroke-linejoin="bevel" points="3671.94,323.646 3671.94,498.402"/>
<polyline class="BarLine" fill="none" stroke="#000000" stroke-width="7.65" stroke-linejoin="bevel" points="4097.12,323.646 4097.12,498.402"/>
<polyline class="BarLine" fill="none" stroke="#000000" stroke-width="23.39" stroke-linejoin="bevel" points="4126.89,323.646 4126.89,498.402"/>
<polyline class="LedgerLine" fill="none" stroke="#000000" stroke-width="6.80" stroke-linejoin="bevel" points="305.143,581.102 398.341,581.102"/>
<polyline class="LedgerLine" fill="none" stroke="#000000" stroke-width="6.80" stroke-linejoin="bevel" points="305.143,538.583 398.341,538.583"/>
<polyline class="LedgerLine" fill="none" stroke="#000000" stroke-width="6.80" stroke-linejoin="bevel" points="730.328,538.583 823.526,538.583"/>
<polyline class="LedgerLine" fill="none" stroke="#000000" stroke-width="6.80" stroke-linejoin="bevel" points="1159,538.583 1252.2,538.583"/>
<polyline class="LedgerLine" fill="none" stroke="#000000" stroke-width="6.80" stroke-linejoin="bevel" points="3302.37,623.622 3395.56,623.622"/>
<polyline class="LedgerLine" fill="none" stroke="#000000" stroke-width="6.80" stroke-linejoin="bevel" points="3302.37,581.102 3395.56,581.102"/>
<polyline class="LedgerLine" fill="none" stroke="#000000" stroke-width="6.80" stroke-linejoin="bevel" points="3302.37,538.583 3395.56,538.583"/>
<polyline class="LedgerLine" fill="none" stroke="#000000" stroke-width="6.80" stroke-linejoin="bevel" points="3731.04,581.102 3824.24,581.102"/>
<polyline class="LedgerLine" fill="none" stroke="#000000" stroke-width="6.80" stroke-linejoin="bevel" points="3731.04,538.583 3824.24,538.583"/>
<path class="Note" transform="matrix(1.70079,0,0,1.70079,320.025,581.102)" d="M18.7,-13.6 C4.9,-13.6 0,-6.6 0,-0.1 C0,6.4 4.9,13.4 18.7,13.4 C32.5,13.4 37.3,6.4 37.3,-0.1 C37.3,-6.6 32.5,-13.6 18.7,-13.6 M10.4,-4.5 C10.3,-4.9 10.3,-5.3 10.3,-5.7 C10.3,-6.5 10.5,-7.3 10.9,-8 C11.6,-9 12.8,-9.7 14.3,-10 C15.6,-10.3 16.3,-10.5 18.9,-10.5 L19,-10.5 C23,-10.5 24.3,-6.8 25.4,-3 L25.7,-2 C26.5,0.6 26.9,2.8 26.9,4.5 C26.9,5.7 26.7,6.8 26.3,7.6 C25.7,8.7 24.7,9.4 23,9.8 C22.1,10 20.6,10.1 20.6,10.1 C20.1,10.1 19.7,10.2 19.3,10.2 C16.1,10.2 14.1,9 12.7,4.7 C11.5,1 11.3,-0.1 10.4,-4.5"/>
<path class="Note" transform="matrix(1.70079,0,0,1.70079,745.21,559.843)" d="M18.7,-13.6 C4.9,-13.6 0,-6.6 0,-0.1 C0,6.4 4.9,13.4 18.7,13.4 C32.5,13.4 37.3,6.4 37.3,-0.1 C37.3,-6.6 32.5,-13.6 18.7,-13.6 M10.4,-4.5 C10.3,-4.9 10.3,-5.3 10.3,-5.7 C10.3,-6.5 10.5,-7.3 10.9,-8 C11.6,-9 12.8,-9.7 14.3,-10 C15.6,-10.3 16.3,-10.5 18.9,-10.5 L19,-10.5 C23,-10.5 24.3,-6.8 25.4,-3 L25.7,-2 C26.5,0.6 26.9,2.8 26.9,4.5 C26.9,5.7 26.7,6.8 26.3,7.6 C25.7,8.7 24.7,9.4 23,9.8 C22.1,10 20.6,10.1 20.6,10.1 C20.1,10.1 19.7,10.2 19.3,10.2 C16.1,10.2 14.1,9 12.7,4.7 C11.5,1 11.3,-0.1 10.4,-4.5"/>
<path class="Note" transform="matrix(1.70079,0,0,1.70079,1173.88,538.583)" d="M18.7,-13.6 C4.9,-13.6 0,-6.6 0,-0.1 C0,6.4 4.9,13.4 18.7,13.4 C32.5,13.4 37.3,6.4 37.3,-0.1 C37.3,-6.6 32.5,-13.6 18.7,-13.6 M10.4,-4.5 C10.3,-4.9 10.3,-5.3 10.3,-5.7 C10.3,-6.5 10.5,-7.3 10.9,-8 C11.6,-9 12.8,-9.7 14.3,-10 C15.6,-10.3 16.3,-10.5 18.9,-10.5 L19,-10.5 C23,-10.5 24.3,-6.8 25.4,-3 L25.7,-2 C26.5,0.6 26.9,2.8 26.9,4.5 C26.9,5.7 26.7,6.8 26.3,7.6 C25.7,8.7 24.7,9.4 23,9.8 C22.1,10 20.6,10.1 20.6,10.1 C20.1,10.1 19.7,10.2 19.3,10.2 C16.1,10.2 14.1,9 12.7,4.7 C11.5,1 11.3,-0.1 10.4,-4.5"/>
<path class="Note" transform="matrix(1.70079,0,0,1.70079,1587.67,517.323)" d="M18.7,-13.6 C4.9,-13.6 0,-6.6 0,-0.1 C0,6.4 4.9,13.4 18.7,13.4 C32.5,13.4 37.3,6.4 37.3,-0.1 C37.3,-6.6 32.5,-13.6 18.7,-13.6 M10.4,-4.5 C10.3,-4.9 10.3,-5.3 10.3,-5.7 C10.3,-6.5 10.5,-7.3 10.9,-8 C11.6,-9 12.8,-9.7 14.3,-10 C15.6,-10.3 16.3,-10.5 18.9,-10.5 L19,-10.5 C23,-10.5 24.3,-6.8 25.4,-3 L25.7,-2 C26.5,0.6 26.9,2.8 26.9,4.5 C26.9,5.7 26.7,6.8 26.3,7.6 C25.7,8.7 24.7,9.4 23,9.8 C22.1,10 20.6,10.1 20.6,10.1 C20.1,10.1 19.7,10.2 19.3,10.2 C16.1,10.2 14.1,9 12.7,4.7 C11.5,1 11.3,-0.1 10.4,-4.5"/>
<path class="Note" transform="matrix(1.70079,0,0,1.70079,2016.35,496.063)" d="M18.7,-13.6 C4.9,-13.6 0,-6.6 0,-0.1 C0,6.4 4.9,13.4 18.7,13.4 C32.5,13.4 37.3,6.4 37.3,-0.1 C37.3,-6.6 32.5,-13.6 18.7,-13.6 M10.4,-4.5 C10.3,-4.9 10.3,-5.3 10.3,-5.7 C10.3,-6.5 10.5,-7.3 10.9,-8 C11.6,-9 12.8,-9.7 14.3,-10 C15.6,-10.3 16.3,-10.5 18.9,-10.5 L19,-10.5 C23,-10.5 24.3,-6.8 25.4,-3 L25.7,-2 C26.5,0.6 26.9,2.8 26.9,4.5 C26.9,5.7 26.7,6.8 26.3,7.6 C25.7,8.7 24.7,9.4 23,9.8 C22.1,10 20.6,10.1 20.6,10.1 C20.1,10.1 19.7,10.2 19.3,10.2 C16.1,10.2 14.1,9 12.7,4.7 C11.5,1 11.3,-0.1 10.4,-4.5"/>
<path class="Note" transform="matrix(1.70079,0,0,1.70079,2445.02,474.803)" d="M18.7,-13.6 C4.9,-13.6 0,-6.6 0,-0.1 C0,6.4 4.9,13.4 18.7,13.4 C32.5,13.4 37.3,6.4 37.3,-0.1 C37.3,-6.6 32.5,-13.6 18.7,-13.6 M10.4,-4.5 C10.3,-4.9 10.3,-5.3 10.3,-5.7 C10.3,-6.5 10.5,-7.3 10.9,-8 C11.6,-9 12.8,-9.7 14.3,-10 C15.6,-10.3 16.3,-10.5 18.9,-10.5 L19,-10.5 C23,-10.5 24.3,-6.8 25.4,-3 L25.7,-2 C26.5,0.6 26.9,2.8 26.9,4.5 C26.9,5.7 26.7,6.8 26.3,7.6 C25.7,8.7 24.7,9.4 23,9.8 C22.1,10 20.6,10.1 20.6,10.1 C20.1,10.1 19.7,10.2 19.3,10.2 C16.1,10.2 14.1,9 12.7,4.7 C11.5,1 11.3,-0.1 10.4,-4.5"/>
<path class="Note" transform="matrix(1.70079,0,0,1.70079,2873.69,496.063)" d="M18.7,-13.6 C4.9,-13.6 0,-6.6 0,-0.1 C0,6.4 4.9,13.4 18.7,13.4 C32.5,13.4 37.3,6.4 37.3,-0.1 C37.3,-6.6 32.5,-13.6 18.7,-13.6 M10.4,-4.5 C10.3,-4.9 10.3,-5.3 10.3,-5.7 C10.3,-6.5 10.5,-7.3 10.9,-8 C11.6,-9 12.8,-9.7 14.3,-10 C15.6,-10.3 16.3,-10.5 18.9,-10.5 L19,-10.5 C23,-10.5 24.3,-6.8 25.4,-3 L25.7,-2 C26.5,0.6 26.9,2.8 26.9,4.5 C26.9,5.7 26.7,6.8 26.3,7.6 C25.7,8.7 24.7,9.4 23,9.8 C22.1,10 20.6,10.1 20.6,10.1 C20.1,10.1 19.7,10.2 19.3,10.2 C16.1,10.2 14.1,9 12.7,4.7 C11.5,1 11.3,-0.1 10.4,-4.5"/>
<path class="Note" transform="matrix(1.70079,0,0,1.70079,3317.25,644.882)" d="M18.7,-13.6 C4.9,-13.6 0,-6.6 0,-0.1 C0,6.4 4.9,13.4 18.7,13.4 C32.5,13.4 37.3,6.4 37.3,-0.1 C37.3,-6.6 32.5,-13.6 18.7,-13.6 M10.4,-4.5 C10.3,-4.9 10.3,-5.3 10.3,-5.7 C10.3,-6.5 10.5,-7.3 10.9,-8 C11.6,-9 12.8,-9.7 14.3,-10 C15.6,-10.3 16.3,-10.5 18.9,-10.5 L19,-10.5 C23,-10.5 24.3,-6.8 25.4,-3 L25.7,-2 C26.5,0.6 26.9,2.8 26.9,4.5 C26.9,5.7 26.7,6.8 26.3,7.6 C25.7,8.7 24.7,9.4 23,9.8 C22.1,10 20.6,10.1 20.6,10.1 C20.1,10.1 19.7,10.2 19.3,10.2 C16.1,10.2 14.1,9 12.7,4.7 C11.5,1 11.3,-0.1 10.4,-4.5"/>
<path class="Note" transform="matrix(1.70079,0,0,1.70079,3745.92,581.102)" d="M18.7,-13.6 C4.9,-13.6 0,-6.6 0,-0.1 C0,6.4 4.9,13.4 18.7,13.4 C32.5,13.4 37.3,6.4 37.3,-0.1 C37.3,-6.6 32.5,-13.6 18.7,-13.6 M10.4,-4.5 C10.3,-4.9 10.3,-5.3 10.3,-5.7 C10.3,-6.5 10.5,-7.3 10.9,-8 C11.6,-9 12.8,-9.7 14.3,-10 C15.6,-10.3 16.3,-10.5 18.9,-10.5 L19,-10.5 C23,-10.5 24.3,-6.8 25.4,-3 L25.7,-2 C26.5,0.6 26.9,2.8 26.9,4.5 C26.9,5.7 26.7,6.8 26.3,7.6 C25.7,8.7 24.7,9.4 23,9.8 C22.1,10 20.6,10.1 20.6,10.1 C20.1,10.1 19.7,10.2 19.3,10.2 C16.1,10.2 14.1,9 12.7,4.7 C11.5,1 11.3,-0.1 10.4,-4.5"/>
<path class="Clef" transform="matrix(1.70079,0,0,1.70079,104.882,368.504)" d="M25.4,-25.1 C17.8,-25.1 11.7,-20.7 11.6,-20.7 C5.8,-16.4 3.5,-11.3 2.6,-7.8 C2.1,-6 1.9,-4.2 1.9,-2.5 C1.9,-0.1 2.3,2.1 3.2,4 C4.4,6.7 6.7,8.6 9.7,9.6 C10.9,10 12.2,10.2 13.5,10.2 C15.7,10.2 18,9.6 19.9,8.5 C23,6.8 24.9,3.2 24.9,-0.7 C24.9,-4.2 23.1,-7.4 20.1,-9.3 C18,-10.7 16,-11.1 14.3,-11.1 C13.1,-11.1 12,-10.9 11.1,-10.6 C10.1,-10.2 8.4,-9.2 7.6,-8.5 C7.9,-10.4 9.1,-13.3 10.2,-14.9 C11.3,-16.5 13.5,-18.5 15.2,-19.4 C17.7,-20.8 20.9,-21.4 24.4,-21.4 C34.6,-21.4 39.6,-13.2 39.6,3.6 C39.6,12.9 36.1,21.8 33.1,27.7 C29.8,34.3 25.4,40.6 21.5,44.1 C11.1,53.6 1.3,58.1 1.2,58.1 C1.2,58.1 -0.3,59 0.1,60.5 C0.4,61.5 1.3,61.7 1.9,61.7 C2,61.7 2.3,61.6 2.4,61.6 C2.5,61.6 13.9,56.9 23,49.8 C28.1,46.1 32.7,42.1 36.7,37.8 C40.3,33.9 43.4,29.7 45.9,25.5 C50.3,18 52.8,10.2 52.8,3.5 C52.8,-4.8 50.6,-11.7 46.5,-16.6 C41.8,-22.2 34.7,-25.1 25.4,-25.1 M56.8,-12.4 C56.8,-9.6 59,-7.4 61.6,-7.4 C64.2,-7.4 66.4,-9.6 66.4,-12.4 C66.4,-15.2 64.2,-17.5 61.6,-17.5 C59,-17.5 56.8,-15.2 56.8,-12.4 M56.8,12.3 C56.8,15.1 59,17.4 61.6,17.4 C64.2,17.4 66.4,15.1 66.4,12.3 C66.4,9.5 64.2,7.2 61.6,7.2 C59,7.2 56.8,9.5 56.8,12.3"/>
<path class="FiguredBass" d="M740.677,654.465 C740.19,654.997 739.548,655.262 738.751,655.262 C737.954,655.262 737.301,654.986 736.792,654.432 C736.283,653.879 736.028,653.248 736.028,652.54 L736.028,643.043 L726.532,643.043 C725.735,643.043 725.082,642.767 724.573,642.213 C724.064,641.66 723.81,641.029 723.81,640.321 C723.81,639.612 724.064,638.982 724.573,638.428 C725.082,637.875 725.735,637.598 726.532,637.598 L736.028,637.598 L736.028,628.102 C736.028,627.394 736.283,626.763 736.792,626.209 C737.301,625.656 737.954,625.379 738.751,625.379 C739.548,625.379 740.201,625.656 740.71,626.209 C741.219,626.763 741.474,627.394 741.474,628.102 L741.474,637.598 L750.97,637.598 C751.767,637.598 752.42,637.875 752.929,638.428 C753.438,638.982 753.692,639.612 753.692,640.321 C753.692,641.029 753.438,641.66 752.929,642.213 C752.42,642.767 751.767,643.043 750.97,643.043 L741.474,643.043 L741.474,652.54 C741.474,653.248 741.208,653.89 740.677,654.465 M778.919,615.618 C775.643,615.618 773.463,616.935 772.378,619.569 C771.293,622.203 770.751,625.933 770.751,630.758 L770.751,638.594 C773.053,637.665 775.045,637.178 776.728,637.133 C782.483,637.133 787.009,638.406 790.308,640.952 C793.606,643.497 795.255,647.282 795.255,652.307 C795.255,657.332 793.584,661.128 790.241,663.696 C786.899,666.264 782.394,667.547 776.728,667.547 C770.928,667.547 766.39,664.858 763.114,659.479 C759.838,654.1 758.2,647.714 758.2,640.321 C758.2,632.972 760.104,626.597 763.911,621.196 C767.718,615.795 772.721,613.094 778.919,613.094 C782.992,613.094 786.511,614.124 789.478,616.182 C792.444,618.241 793.927,620.952 793.927,624.317 C793.927,626.265 793.218,627.947 791.802,629.364 C790.385,630.78 788.692,631.489 786.722,631.489 C784.752,631.489 783.058,630.78 781.642,629.364 C780.225,627.947 779.517,626.265 779.517,624.317 C779.517,622.413 780.225,620.731 781.642,619.27 C782.129,618.695 782.815,618.208 783.7,617.809 C783.479,617.234 783.036,616.791 782.372,616.481 C781.398,615.905 780.247,615.618 778.919,615.618 M782.173,642.778 C781.376,640.697 779.627,639.657 776.927,639.657 C774.226,639.657 772.555,640.697 771.913,642.778 C771.271,644.859 770.95,648.024 770.95,652.274 C770.95,657.277 771.271,660.641 771.913,662.368 C772.555,664.094 774.226,664.958 776.927,664.958 C779.627,664.958 781.376,663.917 782.173,661.836 C782.97,659.756 783.368,656.579 783.368,652.307 C783.368,648.035 782.97,644.859 782.173,642.778"/>
<path class="FiguredBass" d="M1207.59,594.358 C1204.32,594.358 1202.14,595.675 1201.05,598.309 C1199.97,600.943 1199.42,604.673 1199.42,609.498 L1199.42,617.334 C1201.73,616.405 1203.72,615.918 1205.4,615.873 C1211.16,615.873 1215.68,617.146 1218.98,619.692 C1222.28,622.237 1223.93,626.023 1223.93,631.047 C1223.93,636.072 1222.26,639.868 1218.91,642.436 C1215.57,645.004 1211.07,646.288 1205.4,646.288 C1199.6,646.288 1195.06,643.598 1191.79,638.219 C1188.51,632.84 1186.87,626.454 1186.87,619.061 C1186.87,611.712 1188.78,605.337 1192.58,599.936 C1196.39,594.535 1201.39,591.834 1207.59,591.834 C1211.66,591.834 1215.18,592.864 1218.15,594.922 C1221.12,596.981 1222.6,599.692 1222.6,603.057 C1222.6,605.005 1221.89,606.687 1220.47,608.104 C1219.06,609.521 1217.36,610.229 1215.39,610.229 C1213.42,610.229 1211.73,609.521 1210.31,608.104 C1208.9,606.687 1208.19,605.005 1208.19,603.057 C1208.19,601.153 1208.9,599.471 1210.31,598.01 C1210.8,597.435 1211.49,596.948 1212.37,596.549 C1212.15,595.974 1211.71,595.531 1211.05,595.221 C1210.07,594.646 1208.92,594.358 1207.59,594.358 M1210.85,621.518 C1210.05,619.437 1208.3,618.397 1205.6,618.397 C1202.9,618.397 1201.23,619.437 1200.59,621.518 C1199.94,623.599 1199.62,626.764 1199.62,631.014 C1199.62,636.017 1199.94,639.381 1200.59,641.108 C1201.23,642.834 1202.9,643.698 1205.6,643.698 C1208.3,643.698 1210.05,642.657 1210.85,640.577 C1211.64,638.496 1212.04,635.319 1212.04,631.047 C1212.04,626.775 1211.64,623.599 1210.85,621.518"/>
<path class="FiguredBass" d="M1621.38,592.657 C1618.11,592.657 1615.93,593.974 1614.84,596.608 C1613.76,599.242 1613.22,602.972 1613.22,607.798 L1613.22,615.634 C1615.52,614.704 1617.51,614.217 1619.19,614.173 C1624.95,614.173 1629.47,615.445 1632.77,617.991 C1636.07,620.537 1637.72,624.322 1637.72,629.347 C1637.72,634.371 1636.05,638.167 1632.71,640.735 C1629.36,643.303 1624.86,644.587 1619.19,644.587 C1613.39,644.587 1608.85,641.897 1605.58,636.518 C1602.3,631.139 1600.66,624.753 1600.66,617.36 C1600.66,610.011 1602.57,603.636 1606.38,598.235 C1610.18,592.834 1615.19,590.134 1621.38,590.134 C1625.46,590.134 1628.98,591.163 1631.94,593.222 C1634.91,595.28 1636.39,597.992 1636.39,601.356 C1636.39,603.304 1635.68,604.986 1634.27,606.403 C1632.85,607.82 1631.16,608.528 1629.19,608.528 C1627.22,608.528 1625.52,607.82 1624.11,606.403 C1622.69,604.986 1621.98,603.304 1621.98,601.356 C1621.98,599.453 1622.69,597.77 1624.11,596.309 C1624.59,595.734 1625.28,595.247 1626.16,594.848 C1625.94,594.273 1625.5,593.83 1624.84,593.52 C1623.86,592.945 1622.71,592.657 1621.38,592.657 M1624.64,619.817 C1623.84,617.736 1622.09,616.696 1619.39,616.696 C1616.69,616.696 1615.02,617.736 1614.38,619.817 C1613.74,621.898 1613.41,625.063 1613.41,629.313 C1613.41,634.316 1613.74,637.681 1614.38,639.407 C1615.02,641.134 1616.69,641.997 1619.39,641.997 C1622.09,641.997 1623.84,640.957 1624.64,638.876 C1625.43,636.795 1625.83,633.619 1625.83,629.347 C1625.83,625.074 1625.43,621.898 1624.64,619.817"/>
<path class="FiguredBass" d="M1605.18,665.837 C1605.18,665.837 1606.24,665.992 1608.37,666.302 C1609.3,666.434 1610.34,666.567 1611.49,666.7 C1614.54,667.054 1617.49,667.231 1620.32,667.231 C1623.15,667.231 1626.14,667.054 1629.29,666.7 C1630.52,666.567 1631.61,666.434 1632.54,666.302 L1635.79,665.837 C1636.46,665.837 1636.96,666.058 1637.29,666.501 C1637.62,666.944 1637.59,667.298 1637.19,667.563 C1630.41,674.337 1620.87,677.723 1608.57,677.723 C1608.08,677.723 1607.65,677.901 1607.27,678.255 C1606.9,678.609 1606.71,679.052 1606.71,679.583 L1606.71,690.009 C1609.85,686.91 1613.66,685.36 1618.13,685.36 C1624.59,685.36 1629.58,686.81 1633.1,689.71 C1636.62,692.61 1638.38,697.003 1638.38,702.891 C1638.38,707.894 1636.39,712.044 1632.41,715.343 C1628.42,718.641 1623.66,720.29 1618.13,720.29 C1613.35,720.29 1609.2,719.205 1605.68,717.036 C1602.16,714.867 1600.4,711.856 1600.4,708.005 C1600.4,706.057 1601.11,704.363 1602.52,702.925 C1603.94,701.486 1605.63,700.766 1607.6,700.766 C1609.57,700.766 1611.24,701.475 1612.62,702.891 C1613.99,704.308 1614.68,706.013 1614.68,708.005 C1614.68,708.89 1613.95,709.853 1612.48,710.893 C1611.02,711.934 1610.29,712.897 1610.29,713.782 C1610.29,716.438 1612.91,717.766 1618.13,717.766 C1623.22,717.766 1625.77,712.808 1625.77,702.891 C1625.77,693.329 1623.22,688.526 1618.13,688.481 C1613.57,688.481 1610.38,689.411 1608.57,691.27 C1606.75,693.13 1605.62,694.059 1605.18,694.059 C1604.07,694.059 1603.54,693.506 1603.59,692.399 L1603.59,667.563 C1603.59,667.076 1603.74,666.667 1604.05,666.335 C1604.36,666.003 1604.74,665.837 1605.18,665.837"/>
<path class="FiguredBass" d="M2440.49,631.505 C2440,632.036 2439.36,632.302 2438.56,632.302 C2437.76,632.302 2437.11,632.025 2436.6,631.472 C2436.09,630.918 2435.84,630.287 2435.84,629.579 L2435.84,620.083 L2426.34,620.083 C2425.55,620.083 2424.89,619.806 2424.38,619.253 C2423.87,618.699 2423.62,618.069 2423.62,617.36 C2423.62,616.652 2423.87,616.021 2424.38,615.468 C2424.89,614.914 2425.55,614.638 2426.34,614.638 L2435.84,614.638 L2435.84,605.141 C2435.84,604.433 2436.09,603.802 2436.6,603.249 C2437.11,602.695 2437.76,602.419 2438.56,602.419 C2439.36,602.419 2440.01,602.695 2440.52,603.249 C2441.03,603.802 2441.28,604.433 2441.28,605.141 L2441.28,614.638 L2450.78,614.638 C2451.58,614.638 2452.23,614.914 2452.74,615.468 C2453.25,616.021 2453.5,616.652 2453.5,617.36 C2453.5,618.069 2453.25,618.699 2452.74,619.253 C2452.23,619.806 2451.58,620.083 2450.78,620.083 L2441.28,620.083 L2441.28,629.579 C2441.28,630.287 2441.02,630.929 2440.49,631.505 M2478.73,592.657 C2475.45,592.657 2473.27,593.974 2472.19,596.608 C2471.1,599.242 2470.56,602.972 2470.56,607.798 L2470.56,615.634 C2472.86,614.704 2474.86,614.217 2476.54,614.173 C2482.29,614.173 2486.82,615.445 2490.12,617.991 C2493.42,620.537 2495.06,624.322 2495.06,629.347 C2495.06,634.371 2493.39,638.167 2490.05,640.735 C2486.71,643.303 2482.2,644.587 2476.54,644.587 C2470.74,644.587 2466.2,641.897 2462.92,636.518 C2459.65,631.139 2458.01,624.753 2458.01,617.36 C2458.01,610.011 2459.91,603.636 2463.72,598.235 C2467.53,592.834 2472.53,590.134 2478.73,590.134 C2482.8,590.134 2486.32,591.163 2489.29,593.222 C2492.25,595.28 2493.74,597.992 2493.74,601.356 C2493.74,603.304 2493.03,604.986 2491.61,606.403 C2490.2,607.82 2488.5,608.528 2486.53,608.528 C2484.56,608.528 2482.87,607.82 2481.45,606.403 C2480.03,604.986 2479.33,603.304 2479.33,601.356 C2479.33,599.453 2480.03,597.77 2481.45,596.309 C2481.94,595.734 2482.62,595.247 2483.51,594.848 C2483.29,594.273 2482.85,593.83 2482.18,593.52 C2481.21,592.945 2480.06,592.657 2478.73,592.657 M2481.98,619.817 C2481.19,617.736 2479.44,616.696 2476.74,616.696 C2474.04,616.696 2472.37,617.736 2471.72,619.817 C2471.08,621.898 2470.76,625.063 2470.76,629.313 C2470.76,634.316 2471.08,637.681 2471.72,639.407 C2472.37,641.134 2474.04,641.997 2476.74,641.997 C2479.44,641.997 2481.19,640.957 2481.98,638.876 C2482.78,636.795 2483.18,633.619 2483.18,629.347 C2483.18,625.074 2482.78,621.898 2481.98,619.817"/>
<path class="FiguredBass" d="M2906.94,591.528 C2908.62,591.528 2910.39,591.285 2912.25,590.798 L2915.24,590.001 C2915.81,590.001 2916.27,590.222 2916.6,590.665 C2916.93,591.108 2916.9,591.506 2916.5,591.86 L2885.62,627.786 L2903.75,627.786 L2903.75,613.575 C2903.75,612.557 2904.03,611.771 2904.58,611.218 C2905.13,610.664 2905.84,610.222 2906.7,609.889 C2907.57,609.557 2908.7,608.572 2910.09,606.934 C2911.49,605.296 2912.83,603.083 2914.11,600.294 C2914.33,599.851 2914.66,599.63 2915.11,599.63 C2916.03,599.63 2916.5,600.139 2916.5,601.157 L2916.5,627.786 L2924.34,627.786 C2925.44,627.786 2926,628.295 2926,629.313 C2926,630.42 2925.44,630.973 2924.34,630.973 L2916.5,630.973 L2916.5,631.837 C2916.5,634.582 2917.23,636.972 2918.69,639.009 C2920.15,641.045 2922.03,642.063 2924.34,642.063 C2925.22,642.063 2925.66,642.462 2925.66,643.259 C2925.66,644.144 2925.22,644.587 2924.34,644.587 C2922.74,644.587 2920.37,644.354 2917.23,643.889 C2914.09,643.425 2911.71,643.192 2910.09,643.192 C2908.48,643.192 2906.1,643.425 2902.95,643.889 C2899.81,644.354 2897.44,644.587 2895.85,644.587 C2894.96,644.587 2894.52,644.144 2894.52,643.259 C2894.52,642.462 2894.96,642.063 2895.85,642.063 C2898.15,642.063 2900.04,641.045 2901.52,639.009 C2903.01,636.972 2903.75,634.582 2903.75,631.837 L2903.75,630.973 L2885.62,630.973 C2884.47,630.973 2883.62,630.697 2883.06,630.143 C2882.51,629.59 2882.23,629.026 2882.23,628.45 C2882.23,628.229 2882.75,627.465 2883.79,626.159 C2884.83,624.853 2886.11,623.115 2887.61,620.946 C2889.12,618.777 2890.61,616.309 2892.1,613.542 C2893.58,610.775 2894.84,607.455 2895.88,603.581 C2896.92,599.707 2897.44,595.8 2897.44,591.86 C2897.44,590.709 2897.93,590.134 2898.9,590.134 C2899.03,590.134 2899.5,590.244 2900.3,590.466 C2901.09,590.687 2902.11,590.919 2903.35,591.163 C2904.59,591.406 2905.79,591.528 2906.94,591.528"/>
<path class="FiguredBass" d="M3359.46,723.7 C3359.46,724.408 3359.86,725.095 3360.65,725.759 C3361.45,726.423 3362.32,727.054 3363.28,727.651 C3364.23,728.249 3365.1,729.378 3365.9,731.038 C3366.7,732.698 3367.09,734.79 3367.09,737.313 C3367.09,742.183 3365.26,745.946 3361.58,748.602 C3357.91,751.259 3353.26,752.587 3347.64,752.587 C3343.12,752.587 3339.19,751.458 3335.85,749.2 C3332.51,746.942 3330.84,743.976 3330.84,740.302 C3330.84,738.354 3331.54,736.66 3332.96,735.222 C3334.38,733.783 3336.07,733.063 3338.04,733.063 C3340.01,733.063 3341.68,733.772 3343.05,735.188 C3344.43,736.605 3345.11,738.309 3345.11,740.302 C3345.11,741.187 3344.38,742.15 3342.92,743.19 C3341.46,744.231 3340.73,745.194 3340.73,746.079 C3340.73,747.451 3341.41,748.458 3342.76,749.1 C3344.11,749.742 3345.73,750.063 3347.64,750.063 C3350.12,750.063 3351.88,748.835 3352.92,746.378 C3353.96,743.921 3354.48,740.899 3354.48,737.313 L3354.48,735.587 C3354.48,733.196 3354.4,731.381 3354.24,730.141 C3354.09,728.902 3353.6,727.795 3352.78,726.821 C3351.96,725.847 3350.71,725.36 3349.03,725.36 L3340.33,725.36 C3339.31,725.36 3338.8,724.807 3338.8,723.7 C3338.8,722.682 3339.31,722.173 3340.33,722.173 L3349.03,722.173 C3350.85,722.173 3352.26,721.486 3353.28,720.114 C3353.64,719.627 3353.92,718.83 3354.14,717.723 C3354.37,716.263 3354.48,714.16 3354.48,711.415 L3354.48,710.552 C3354.48,703.955 3352.04,700.657 3347.17,700.657 C3342.88,700.657 3340.73,701.852 3340.73,704.243 C3340.73,705.04 3341.38,705.892 3342.69,706.8 C3344,707.707 3344.65,708.559 3344.65,709.356 C3344.65,711.083 3344.04,712.566 3342.82,713.806 C3341.6,715.045 3340.12,715.665 3338.37,715.665 C3336.62,715.665 3335.15,715.045 3333.96,713.806 C3332.76,712.566 3332.16,711.083 3332.16,709.356 C3332.16,705.947 3333.65,703.225 3336.61,701.188 C3339.58,699.152 3343.1,698.134 3347.17,698.134 C3352.53,698.134 3356.93,699.163 3360.39,701.222 C3363.84,703.28 3365.57,706.39 3365.57,710.552 C3365.57,713.518 3365.26,715.82 3364.64,717.458 C3364.02,719.096 3363.31,720.092 3362.51,720.446 C3361.71,720.8 3361.01,721.21 3360.39,721.675 C3359.77,722.139 3359.46,722.815 3359.46,723.7"/>
</svg>
