<?xml version="1.0" encoding="UTF-8" standalone="no"?>
<svg width="4209.44px" height="850.392px" viewBox="0 0 4209.44 850.392"
 xmlns="http://www.w3.org/2000/svg" xmlns:xlink="http://www.w3.org/1999/xlink" version="1.2" baseProfile="tiny">
<title>ExercicesMiMineur (3)</title>
<desc>Generated by MuseScore 3.6.2</desc>
<polyline class="StaffLines" fill="none" stroke="#000000" stroke-width="4.68" stroke-linejoin="bevel" points="70.866,325.984 4138.58,325.984"/>
<polyline class="StaffLines" fill="none" stroke="#000000" stroke-width="4.68" stroke-linejoin="bevel" points="70.866,368.504 4138.58,368.504"/>
<polyline class="StaffLines" fill="none" stroke="#000000" stroke-width="4.68" stroke-linejoin="bevel" points="70.866,411.024 4138.58,411.024"/>
<polyline class="StaffLines" fill="none" stroke="#000000" stroke-width="4.68" stroke-linejoin="bevel" points="70.866,453.543 4138.58,453.543"/>
<polyline class="StaffLines" fill="none" stroke="#000000" stroke-width="4.68" stroke-linejoin="bevel" points="70.866,496.063 4138.58,496.063"/>
<polyline class="BarLine" fill="none" stroke="#000000" stroke-width="7.65" stroke-linejoin="bevel" points="744.212,323.646 744.212,498.402"/>
<polyline class="BarLine" fill="none" stroke="#000000" stroke-width="7.65" stroke-linejoin="bevel" points="1162.67,323.646 1162.67,498.402"/>
<polyline class="BarLine" fill="none" stroke="#000000" stroke-width="7.65" stroke-linejoin="bevel" points="1592.52,323.646 1592.52,498.402"/>
<polyline class="BarLine" fill="none" stroke="#000000" stroke-width="7.65" stroke-linejoin="bevel" points="2025.64,323.646 2025.64,498.402"/>
<polyline class="BarLine" fill="none" stroke="#000000" stroke-width="7.65" stroke-linejoin="bevel" points="2443.28,323.646 2443.28,498.402"/>
<polyline class="BarLine" fill="none" stroke="#000000" stroke-width="7.65" stroke-linejoin="bevel" points="2860.93,323.646 2860.93,498.402"/>
<polyline class="BarLine" fill="none" stroke="#000000" stroke-width="7.65" stroke-linejoin="bevel" points="3279.39,323.646 3279.39,498.402"/>
<polyline class="BarLine" fill="none" stroke="#000000" stroke-width="7.65" stroke-linejoin="bevel" points="3697.85,323.646 3697.85,498.402"/>
<polyline class="BarLine" fill="none" stroke="#000000" stroke-width="7.65" stroke-linejoin="bevel" points="4097.12,323.646 4097.12,498.402"/>
<polyline class="BarLine" fill="none" stroke="#000000" stroke-width="23.39" stroke-linejoin="bevel" points="4126.89,323.646 4126.89,498.402"/>
<path class="Accidental" transform="matrix(1.70079,0,0,1.70079,1199.41,432.283)" d="M23.3,-10.6 C23.9,-10.7 24.4,-11.4 24.4,-12 L24.4,-17.9 C24.4,-18.7 23.8,-19.3 23,-19.3 L22.8,-19.3 L19.5,-18.6 L19.5,-33.5 L16.7,-33.5 L16.7,-18 L7.8,-16.2 L7.8,-30.3 L5,-30.3 L5,-15.6 L1.1,-14.8 C0.5,-14.7 0,-14 0,-13.4 L0,-13.2 L0,-7.4 L0,-7.6 C0,-6.8 0.6,-6.2 1.4,-6.2 L1.7,-6.2 L5,-6.9 L5,9.6 L1.1,10.4 C0.5,10.5 0,11.2 0,11.8 L0,17.6 C0,18.4 0.6,19 1.4,19 L1.7,19 L5,18.3 L5,33.2 L7.8,33.2 L7.8,17.7 L16.7,15.9 L16.7,30 L19.5,30 L19.5,15.3 L23.3,14.6 C23.9,14.5 24.4,13.8 24.4,13.2 L24.4,7.3 C24.4,6.5 23.8,5.9 23,5.9 L22.8,5.9 L19.5,6.6 L19.5,-9.9 L23.3,-10.6 M7.8,9.1 L7.8,-7.5 L16.7,-9.3 L16.7,7.2 L7.8,9.1 "/>
<path class="Accidental" transform="matrix(1.70079,0,0,1.70079,1637.43,411.024)" d="M23.3,-10.6 C23.9,-10.7 24.4,-11.4 24.4,-12 L24.4,-17.9 C24.4,-18.7 23.8,-19.3 23,-19.3 L22.8,-19.3 L19.5,-18.6 L19.5,-33.5 L16.7,-33.5 L16.7,-18 L7.8,-16.2 L7.8,-30.3 L5,-30.3 L5,-15.6 L1.1,-14.8 C0.5,-14.7 0,-14 0,-13.4 L0,-13.2 L0,-7.4 L0,-7.6 C0,-6.8 0.6,-6.2 1.4,-6.2 L1.7,-6.2 L5,-6.9 L5,9.6 L1.1,10.4 C0.5,10.5 0,11.2 0,11.8 L0,17.6 C0,18.4 0.6,19 1.4,19 L1.7,19 L5,18.3 L5,33.2 L7.8,33.2 L7.8,17.7 L16.7,15.9 L16.7,30 L19.5,30 L19.5,15.3 L23.3,14.6 C23.9,14.5 24.4,13.8 24.4,13.2 L24.4,7.3 C24.4,6.5 23.8,5.9 23,5.9 L22.8,5.9 L19.5,6.6 L19.5,-9.9 L23.3,-10.6 M7.8,9.1 L7.8,-7.5 L16.7,-9.3 L16.7,7.2 L7.8,9.1 "/>
<path class="Note" transform="matrix(1.70079,0,0,1.70079,408.127,389.764)" d="M18.7,-13.6 C4.9,-13.6 0,-6.6 0,-0.1 C0,6.4 4.9,13.4 18.7,13.4 C32.5,13.4 37.3,6.4 37.3,-0.1 C37.3,-6.6 32.5,-13.6 18.7,-13.6 M10.4,-4.5 C10.3,-4.9 10.3,-5.3 10.3,-5.7 C10.3,-6.5 10.5,-7.3 10.9,-8 C11.6,-9 12.8,-9.7 14.3,-10 C15.6,-10.3 16.3,-10.5 18.9,-10.5 L19,-10.5 C23,-10.5 24.3,-6.8 25.4,-3 L25.7,-2 C26.5,0.6 26.9,2.8 26.9,4.5 C26.9,5.7 26.7,6.8 26.3,7.6 C25.7,8.7 24.7,9.4 23,9.8 C22.1,10 20.6,10.1 20.6,10.1 C20.1,10.1 19.7,10.2 19.3,10.2 C16.1,10.2 14.1,9 12.7,4.7 C11.5,1 11.3,-0.1 10.4,-4.5"/>
<path class="Note" transform="matrix(1.70079,0,0,1.70079,803.315,453.543)" d="M18.7,-13.6 C4.9,-13.6 0,-6.6 0,-0.1 C0,6.4 4.9,13.4 18.7,13.4 C32.5,13.4 37.3,6.4 37.3,-0.1 C37.3,-6.6 32.5,-13.6 18.7,-13.6 M10.4,-4.5 C10.3,-4.9 10.3,-5.3 10.3,-5.7 C10.3,-6.5 10.5,-7.3 10.9,-8 C11.6,-9 12.8,-9.7 14.3,-10 C15.6,-10.3 16.3,-10.5 18.9,-10.5 L19,-10.5 C23,-10.5 24.3,-6.8 25.4,-3 L25.7,-2 C26.5,0.6 26.9,2.8 26.9,4.5 C26.9,5.7 26.7,6.8 26.3,7.6 C25.7,8.7 24.7,9.4 23,9.8 C22.1,10 20.6,10.1 20.6,10.1 C20.1,10.1 19.7,10.2 19.3,10.2 C16.1,10.2 14.1,9 12.7,4.7 C11.5,1 11.3,-0.1 10.4,-4.5"/>
<path class="Note" transform="matrix(1.70079,0,0,1.70079,1251.53,432.283)" d="M18.7,-13.6 C4.9,-13.6 0,-6.6 0,-0.1 C0,6.4 4.9,13.4 18.7,13.4 C32.5,13.4 37.3,6.4 37.3,-0.1 C37.3,-6.6 32.5,-13.6 18.7,-13.6 M10.4,-4.5 C10.3,-4.9 10.3,-5.3 10.3,-5.7 C10.3,-6.5 10.5,-7.3 10.9,-8 C11.6,-9 12.8,-9.7 14.3,-10 C15.6,-10.3 16.3,-10.5 18.9,-10.5 L19,-10.5 C23,-10.5 24.3,-6.8 25.4,-3 L25.7,-2 C26.5,0.6 26.9,2.8 26.9,4.5 C26.9,5.7 26.7,6.8 26.3,7.6 C25.7,8.7 24.7,9.4 23,9.8 C22.1,10 20.6,10.1 20.6,10.1 C20.1,10.1 19.7,10.2 19.3,10.2 C16.1,10.2 14.1,9 12.7,4.7 C11.5,1 11.3,-0.1 10.4,-4.5"/>
<path class="Note" transform="matrix(1.70079,0,0,1.70079,1689.55,411.024)" d="M18.7,-13.6 C4.9,-13.6 0,-6.6 0,-0.1 C0,6.4 4.9,13.4 18.7,13.4 C32.5,13.4 37.3,6.4 37.3,-0.1 C37.3,-6.6 32.5,-13.6 18.7,-13.6 M10.4,-4.5 C10.3,-4.9 10.3,-5.3 10.3,-5.7 C10.3,-6.5 10.5,-7.3 10.9,-8 C11.6,-9 12.8,-9.7 14.3,-10 C15.6,-10.3 16.3,-10.5 18.9,-10.5 L19,-10.5 C23,-10.5 24.3,-6.8 25.4,-3 L25.7,-2 C26.5,0.6 26.9,2.8 26.9,4.5 C26.9,5.7 26.7,6.8 26.3,7.6 C25.7,8.7 24.7,9.4 23,9.8 C22.1,10 20.6,10.1 20.6,10.1 C20.1,10.1 19.7,10.2 19.3,10.2 C16.1,10.2 14.1,9 12.7,4.7 C11.5,1 11.3,-0.1 10.4,-4.5"/>
<path class="Note" transform="matrix(1.70079,0,0,1.70079,2088.83,389.764)" d="M18.7,-13.6 C4.9,-13.6 0,-6.6 0,-0.1 C0,6.4 4.9,13.4 18.7,13.4 C32.5,13.4 37.3,6.4 37.3,-0.1 C37.3,-6.6 32.5,-13.6 18.7,-13.6 M10.4,-4.5 C10.3,-4.9 10.3,-5.3 10.3,-5.7 C10.3,-6.5 10.5,-7.3 10.9,-8 C11.6,-9 12.8,-9.7 14.3,-10 C15.6,-10.3 16.3,-10.5 18.9,-10.5 L19,-10.5 C23,-10.5 24.3,-6.8 25.4,-3 L25.7,-2 C26.5,0.6 26.9,2.8 26.9,4.5 C26.9,5.7 26.7,6.8 26.3,7.6 C25.7,8.7 24.7,9.4 23,9.8 C22.1,10 20.6,10.1 20.6,10.1 C20.1,10.1 19.7,10.2 19.3,10.2 C16.1,10.2 14.1,9 12.7,4.7 C11.5,1 11.3,-0.1 10.4,-4.5"/>
<path class="Note" transform="matrix(1.70079,0,0,1.70079,2506.47,411.024)" d="M18.7,-13.6 C4.9,-13.6 0,-6.6 0,-0.1 C0,6.4 4.9,13.4 18.7,13.4 C32.5,13.4 37.3,6.4 37.3,-0.1 C37.3,-6.6 32.5,-13.6 18.7,-13.6 M10.4,-4.5 C10.3,-4.9 10.3,-5.3 10.3,-5.7 C10.3,-6.5 10.5,-7.3 10.9,-8 C11.6,-9 12.8,-9.7 14.3,-10 C15.6,-10.3 16.3,-10.5 18.9,-10.5 L19,-10.5 C23,-10.5 24.3,-6.8 25.4,-3 L25.7,-2 C26.5,0.6 26.9,2.8 26.9,4.5 C26.9,5.7 26.7,6.8 26.3,7.6 C25.7,8.7 24.7,9.4 23,9.8 C22.1,10 20.6,10.1 20.6,10.1 C20.1,10.1 19.7,10.2 19.3,10.2 C16.1,10.2 14.1,9 12.7,4.7 C11.5,1 11.3,-0.1 10.4,-4.5"/>
<path class="Note" transform="matrix(1.70079,0,0,1.70079,2920.03,432.283)" d="M18.7,-13.6 C4.9,-13.6 0,-6.6 0,-0.1 C0,6.4 4.9,13.4 18.7,13.4 C32.5,13.4 37.3,6.4 37.3,-0.1 C37.3,-6.6 32.5,-13.6 18.7,-13.6 M10.4,-4.5 C10.3,-4.9 10.3,-5.3 10.3,-5.7 C10.3,-6.5 10.5,-7.3 10.9,-8 C11.6,-9 12.8,-9.7 14.3,-10 C15.6,-10.3 16.3,-10.5 18.9,-10.5 L19,-10.5 C23,-10.5 24.3,-6.8 25.4,-3 L25.7,-2 C26.5,0.6 26.9,2.8 26.9,4.5 C26.9,5.7 26.7,6.8 26.3,7.6 C25.7,8.7 24.7,9.4 23,9.8 C22.1,10 20.6,10.1 20.6,10.1 C20.1,10.1 19.7,10.2 19.3,10.2 C16.1,10.2 14.1,9 12.7,4.7 C11.5,1 11.3,-0.1 10.4,-4.5"/>
<path class="Note" transform="matrix(1.70079,0,0,1.70079,3338.49,453.543)" d="M18.7,-13.6 C4.9,-13.6 0,-6.6 0,-0.1 C0,6.4 4.9,13.4 18.7,13.4 C32.5,13.4 37.3,6.4 37.3,-0.1 C37.3,-6.6 32.5,-13.6 18.7,-13.6 M10.4,-4.5 C10.3,-4.9 10.3,-5.3 10.3,-5.7 C10.3,-6.5 10.5,-7.3 10.9,-8 C11.6,-9 12.8,-9.7 14.3,-10 C15.6,-10.3 16.3,-10.5 18.9,-10.5 L19,-10.5 C23,-10.5 24.3,-6.8 25.4,-3 L25.7,-2 C26.5,0.6 26.9,2.8 26.9,4.5 C26.9,5.7 26.7,6.8 26.3,7.6 C25.7,8.7 24.7,9.4 23,9.8 C22.1,10 20.6,10.1 20.6,10.1 C20.1,10.1 19.7,10.2 19.3,10.2 C16.1,10.2 14.1,9 12.7,4.7 C11.5,1 11.3,-0.1 10.4,-4.5"/>
<path class="Note" transform="matrix(1.70079,0,0,1.70079,3761.04,389.764)" d="M18.7,-13.6 C4.9,-13.6 0,-6.6 0,-0.1 C0,6.4 4.9,13.4 18.7,13.4 C32.5,13.4 37.3,6.4 37.3,-0.1 C37.3,-6.6 32.5,-13.6 18.7,-13.6 M10.4,-4.5 C10.3,-4.9 10.3,-5.3 10.3,-5.7 C10.3,-6.5 10.5,-7.3 10.9,-8 C11.6,-9 12.8,-9.7 14.3,-10 C15.6,-10.3 16.3,-10.5 18.9,-10.5 L19,-10.5 C23,-10.5 24.3,-6.8 25.4,-3 L25.7,-2 C26.5,0.6 26.9,2.8 26.9,4.5 C26.9,5.7 26.7,6.8 26.3,7.6 C25.7,8.7 24.7,9.4 23,9.8 C22.1,10 20.6,10.1 20.6,10.1 C20.1,10.1 19.7,10.2 19.3,10.2 C16.1,10.2 14.1,9 12.7,4.7 C11.5,1 11.3,-0.1 10.4,-4.5"/>
<path class="Clef" transform="matrix(1.70079,0,0,1.70079,104.882,368.504)" d="M25.4,-25.1 C17.8,-25.1 11.7,-20.7 11.6,-20.7 C5.8,-16.4 3.5,-11.3 2.6,-7.8 C2.1,-6 1.9,-4.2 1.9,-2.5 C1.9,-0.1 2.3,2.1 3.2,4 C4.4,6.7 6.7,8.6 9.7,9.6 C10.9,10 12.2,10.2 13.5,10.2 C15.7,10.2 18,9.6 19.9,8.5 C23,6.8 24.9,3.2 24.9,-0.7 C24.9,-4.2 23.1,-7.4 20.1,-9.3 C18,-10.7 16,-11.1 14.3,-11.1 C13.1,-11.1 12,-10.9 11.1,-10.6 C10.1,-10.2 8.4,-9.2 7.6,-8.5 C7.9,-10.4 9.1,-13.3 10.2,-14.9 C11.3,-16.5 13.5,-18.5 15.2,-19.4 C17.7,-20.8 20.9,-21.4 24.4,-21.4 C34.6,-21.4 39.6,-13.2 39.6,3.6 C39.6,12.9 36.1,21.8 33.1,27.7 C29.8,34.3 25.4,40.6 21.5,44.1 C11.1,53.6 1.3,58.1 1.2,58.1 C1.2,58.1 -0.3,59 0.1,60.5 C0.4,61.5 1.3,61.7 1.9,61.7 C2,61.7 2.3,61.6 2.4,61.6 C2.5,61.6 13.9,56.9 23,49.8 C28.1,46.1 32.7,42.1 36.7,37.8 C40.3,33.9 43.4,29.7 45.9,25.5 C50.3,18 52.8,10.2 52.8,3.5 C52.8,-4.8 50.6,-11.7 46.5,-16.6 C41.8,-22.2 34.7,-25.1 25.4,-25.1 M56.8,-12.4 C56.8,-9.6 59,-7.4 61.6,-7.4 C64.2,-7.4 66.4,-9.6 66.4,-12.4 C66.4,-15.2 64.2,-17.5 61.6,-17.5 C59,-17.5 56.8,-15.2 56.8,-12.4 M56.8,12.3 C56.8,15.1 59,17.4 61.6,17.4 C64.2,17.4 66.4,15.1 66.4,12.3 C66.4,9.5 64.2,7.2 61.6,7.2 C59,7.2 56.8,9.5 56.8,12.3"/>
<path class="KeySig" transform="matrix(1.70079,0,0,1.70079,260.331,368.504)" d="M23.3,-10.6 C23.9,-10.7 24.4,-11.4 24.4,-12 L24.4,-17.9 C24.4,-18.7 23.8,-19.3 23,-19.3 L22.8,-19.3 L19.5,-18.6 L19.5,-33.5 L16.7,-33.5 L16.7,-18 L7.8,-16.2 L7.8,-30.3 L5,-30.3 L5,-15.6 L1.1,-14.8 C0.5,-14.7 0,-14 0,-13.4 L0,-13.2 L0,-7.4 L0,-7.6 C0,-6.8 0.6,-6.2 1.4,-6.2 L1.7,-6.2 L5,-6.9 L5,9.6 L1.1,10.4 C0.5,10.5 0,11.2 0,11.8 L0,17.6 C0,18.4 0.6,19 1.4,19 L1.7,19 L5,18.3 L5,33.2 L7.8,33.2 L7.8,17.7 L16.7,15.9 L16.7,30 L19.5,30 L19.5,15.3 L23.3,14.6 C23.9,14.5 24.4,13.8 24.4,13.2 L24.4,7.3 C24.4,6.5 23.8,5.9 23,5.9 L22.8,5.9 L19.5,6.6 L19.5,-9.9 L23.3,-10.6 M7.8,9.1 L7.8,-7.5 L16.7,-9.3 L16.7,7.2 L7.8,9.1 "/>
<path class="FiguredBass" d="M830.715,637.681 L830.715,651.559 C830.715,652.932 830.018,653.618 828.624,653.618 C827.229,653.618 826.532,652.932 826.532,651.559 L826.532,639.473 L824.407,640.337 C824.185,640.425 823.898,640.47 823.544,640.47 C822.968,640.47 822.459,640.248 822.016,639.806 C821.574,639.363 821.352,638.854 821.352,638.278 L821.352,631.505 C821.352,630.531 821.817,629.845 822.747,629.446 L826.532,627.852 L826.532,613.907 L824.407,614.77 C824.274,614.815 824.097,614.837 823.876,614.837 C823.787,614.837 823.676,614.837 823.544,614.837 C822.879,614.748 822.348,614.505 821.95,614.106 C821.551,613.708 821.352,613.243 821.352,612.712 L821.352,605.938 C821.352,605.009 821.817,604.345 822.747,603.946 L826.532,602.352 L826.532,588.208 C826.532,586.835 827.229,586.149 828.624,586.149 C830.018,586.149 830.715,586.835 830.715,588.208 L830.715,600.626 L839.282,597.04 L839.282,583.161 C839.282,581.789 839.968,581.102 841.34,581.102 C842.713,581.102 843.399,581.789 843.399,583.161 L843.399,595.38 L845.723,594.384 C845.945,594.295 846.188,594.251 846.454,594.251 C847.029,594.251 847.549,594.472 848.014,594.915 C848.479,595.358 848.712,595.867 848.712,596.442 L848.712,603.216 C848.712,604.19 848.225,604.876 847.251,605.274 L843.399,606.868 L843.399,620.88 L845.723,619.95 C845.856,619.906 846.011,619.884 846.188,619.884 C846.277,619.884 846.365,619.884 846.454,619.884 C847.206,620.016 847.771,620.26 848.147,620.614 C848.523,620.968 848.712,621.433 848.712,622.009 L848.712,628.782 C848.712,629.712 848.225,630.376 847.251,630.774 L843.399,632.368 L843.399,646.513 C843.399,647.885 842.713,648.571 841.34,648.571 C839.968,648.571 839.282,647.885 839.282,646.513 L839.282,634.095 L830.715,637.681 M830.715,626.126 L839.282,622.606 L839.282,608.595 L830.715,612.181 L830.715,626.126 "/>
<path class="FiguredBass" d="M1285.24,592.657 C1281.97,592.657 1279.79,593.974 1278.7,596.608 C1277.62,599.242 1277.07,602.972 1277.07,607.798 L1277.07,615.634 C1279.38,614.704 1281.37,614.217 1283.05,614.173 C1288.81,614.173 1293.33,615.445 1296.63,617.991 C1299.93,620.537 1301.58,624.322 1301.58,629.347 C1301.58,634.371 1299.91,638.167 1296.56,640.735 C1293.22,643.303 1288.72,644.587 1283.05,644.587 C1277.25,644.587 1272.71,641.897 1269.44,636.518 C1266.16,631.139 1264.52,624.753 1264.52,617.36 C1264.52,610.011 1266.43,603.636 1270.23,598.235 C1274.04,592.834 1279.04,590.134 1285.24,590.134 C1289.31,590.134 1292.83,591.163 1295.8,593.222 C1298.77,595.28 1300.25,597.992 1300.25,601.356 C1300.25,603.304 1299.54,604.986 1298.12,606.403 C1296.71,607.82 1295.01,608.528 1293.04,608.528 C1291.07,608.528 1289.38,607.82 1287.96,606.403 C1286.55,604.986 1285.84,603.304 1285.84,601.356 C1285.84,599.453 1286.55,597.77 1287.96,596.309 C1288.45,595.734 1289.14,595.247 1290.02,594.848 C1289.8,594.273 1289.36,593.83 1288.7,593.52 C1287.72,592.945 1286.57,592.657 1285.24,592.657 M1288.5,619.817 C1287.7,617.736 1285.95,616.696 1283.25,616.696 C1280.55,616.696 1278.88,617.736 1278.24,619.817 C1277.59,621.898 1277.27,625.063 1277.27,629.313 C1277.27,634.316 1277.59,637.681 1278.24,639.407 C1278.88,641.134 1280.55,641.997 1283.25,641.997 C1285.95,641.997 1287.7,640.957 1288.5,638.876 C1289.29,636.795 1289.69,633.619 1289.69,629.347 C1289.69,625.074 1289.29,621.898 1288.5,619.817"/>
<path class="FiguredBass" d="M1723.26,592.657 C1719.99,592.657 1717.81,593.974 1716.72,596.608 C1715.64,599.242 1715.09,602.972 1715.09,607.798 L1715.09,615.634 C1717.4,614.704 1719.39,614.217 1721.07,614.173 C1726.83,614.173 1731.35,615.445 1734.65,617.991 C1737.95,620.537 1739.6,624.322 1739.6,629.347 C1739.6,634.371 1737.93,638.167 1734.58,640.735 C1731.24,643.303 1726.74,644.587 1721.07,644.587 C1715.27,644.587 1710.73,641.897 1707.46,636.518 C1704.18,631.139 1702.54,624.753 1702.54,617.36 C1702.54,610.011 1704.45,603.636 1708.25,598.235 C1712.06,592.834 1717.06,590.134 1723.26,590.134 C1727.33,590.134 1730.85,591.163 1733.82,593.222 C1736.79,595.28 1738.27,597.992 1738.27,601.356 C1738.27,603.304 1737.56,604.986 1736.14,606.403 C1734.73,607.82 1733.03,608.528 1731.06,608.528 C1729.09,608.528 1727.4,607.82 1725.98,606.403 C1724.57,604.986 1723.86,603.304 1723.86,601.356 C1723.86,599.453 1724.57,597.77 1725.98,596.309 C1726.47,595.734 1727.16,595.247 1728.04,594.848 C1727.82,594.273 1727.38,593.83 1726.72,593.52 C1725.74,592.945 1724.59,592.657 1723.26,592.657 M1726.52,619.817 C1725.72,617.736 1723.97,616.696 1721.27,616.696 C1718.57,616.696 1716.9,617.736 1716.26,619.817 C1715.61,621.898 1715.29,625.063 1715.29,629.313 C1715.29,634.316 1715.61,637.681 1716.26,639.407 C1716.9,641.134 1718.57,641.997 1721.27,641.997 C1723.97,641.997 1725.72,640.957 1726.52,638.876 C1727.31,636.795 1727.71,633.619 1727.71,629.347 C1727.71,625.074 1727.31,621.898 1726.52,619.817"/>
<path class="FiguredBass" d="M2540.18,592.657 C2536.9,592.657 2534.72,593.974 2533.64,596.608 C2532.55,599.242 2532.01,602.972 2532.01,607.798 L2532.01,615.634 C2534.31,614.704 2536.31,614.217 2537.99,614.173 C2543.74,614.173 2548.27,615.445 2551.57,617.991 C2554.87,620.537 2556.52,624.322 2556.52,629.347 C2556.52,634.371 2554.84,638.167 2551.5,640.735 C2548.16,643.303 2543.65,644.587 2537.99,644.587 C2532.19,644.587 2527.65,641.897 2524.37,636.518 C2521.1,631.139 2519.46,624.753 2519.46,617.36 C2519.46,610.011 2521.36,603.636 2525.17,598.235 C2528.98,592.834 2533.98,590.134 2540.18,590.134 C2544.25,590.134 2547.77,591.163 2550.74,593.222 C2553.7,595.28 2555.19,597.992 2555.19,601.356 C2555.19,603.304 2554.48,604.986 2553.06,606.403 C2551.65,607.82 2549.95,608.528 2547.98,608.528 C2546.01,608.528 2544.32,607.82 2542.9,606.403 C2541.49,604.986 2540.78,603.304 2540.78,601.356 C2540.78,599.453 2541.49,597.77 2542.9,596.309 C2543.39,595.734 2544.08,595.247 2544.96,594.848 C2544.74,594.273 2544.3,593.83 2543.63,593.52 C2542.66,592.945 2541.51,592.657 2540.18,592.657 M2543.43,619.817 C2542.64,617.736 2540.89,616.696 2538.19,616.696 C2535.49,616.696 2533.82,617.736 2533.17,619.817 C2532.53,621.898 2532.21,625.063 2532.21,629.313 C2532.21,634.316 2532.53,637.681 2533.17,639.407 C2533.82,641.134 2535.49,641.997 2538.19,641.997 C2540.89,641.997 2542.64,640.957 2543.43,638.876 C2544.23,636.795 2544.63,633.619 2544.63,629.347 C2544.63,625.074 2544.23,621.898 2543.43,619.817"/>
<path class="FiguredBass" d="M2953.74,592.657 C2950.46,592.657 2948.28,593.974 2947.2,596.608 C2946.11,599.242 2945.57,602.972 2945.57,607.798 L2945.57,615.634 C2947.87,614.704 2949.86,614.217 2951.55,614.173 C2957.3,614.173 2961.83,615.445 2965.13,617.991 C2968.42,620.537 2970.07,624.322 2970.07,629.347 C2970.07,634.371 2968.4,638.167 2965.06,640.735 C2961.72,643.303 2957.21,644.587 2951.55,644.587 C2945.75,644.587 2941.21,641.897 2937.93,636.518 C2934.66,631.139 2933.02,624.753 2933.02,617.36 C2933.02,610.011 2934.92,603.636 2938.73,598.235 C2942.54,592.834 2947.54,590.134 2953.74,590.134 C2957.81,590.134 2961.33,591.163 2964.3,593.222 C2967.26,595.28 2968.75,597.992 2968.75,601.356 C2968.75,603.304 2968.04,604.986 2966.62,606.403 C2965.2,607.82 2963.51,608.528 2961.54,608.528 C2959.57,608.528 2957.88,607.82 2956.46,606.403 C2955.04,604.986 2954.33,603.304 2954.33,601.356 C2954.33,599.453 2955.04,597.77 2956.46,596.309 C2956.95,595.734 2957.63,595.247 2958.52,594.848 C2958.3,594.273 2957.85,593.83 2957.19,593.52 C2956.22,592.945 2955.07,592.657 2953.74,592.657 M2956.99,619.817 C2956.19,617.736 2954.45,616.696 2951.75,616.696 C2949.04,616.696 2947.37,617.736 2946.73,619.817 C2946.09,621.898 2945.77,625.063 2945.77,629.313 C2945.77,634.316 2946.09,637.681 2946.73,639.407 C2947.37,641.134 2949.04,641.997 2951.75,641.997 C2954.45,641.997 2956.19,640.957 2956.99,638.876 C2957.79,636.795 2958.19,633.619 2958.19,629.347 C2958.19,625.074 2957.79,621.898 2956.99,619.817"/>
<path class="FiguredBass" d="M3365.89,637.681 L3365.89,651.559 C3365.89,652.932 3365.19,653.618 3363.8,653.618 C3362.4,653.618 3361.71,652.932 3361.71,651.559 L3361.71,639.473 L3359.58,640.337 C3359.36,640.425 3359.07,640.47 3358.72,640.47 C3358.14,640.47 3357.63,640.248 3357.19,639.806 C3356.75,639.363 3356.53,638.854 3356.53,638.278 L3356.53,631.505 C3356.53,630.531 3356.99,629.845 3357.92,629.446 L3361.71,627.852 L3361.71,613.907 L3359.58,614.77 C3359.45,614.815 3359.27,614.837 3359.05,614.837 C3358.96,614.837 3358.85,614.837 3358.72,614.837 C3358.05,614.748 3357.52,614.505 3357.12,614.106 C3356.73,613.708 3356.53,613.243 3356.53,612.712 L3356.53,605.938 C3356.53,605.009 3356.99,604.345 3357.92,603.946 L3361.71,602.352 L3361.71,588.208 C3361.71,586.835 3362.4,586.149 3363.8,586.149 C3365.19,586.149 3365.89,586.835 3365.89,588.208 L3365.89,600.626 L3374.46,597.04 L3374.46,583.161 C3374.46,581.789 3375.14,581.102 3376.51,581.102 C3377.89,581.102 3378.57,581.789 3378.57,583.161 L3378.57,595.38 L3380.9,594.384 C3381.12,594.295 3381.36,594.251 3381.63,594.251 C3382.2,594.251 3382.72,594.472 3383.19,594.915 C3383.65,595.358 3383.89,595.867 3383.89,596.442 L3383.89,603.216 C3383.89,604.19 3383.4,604.876 3382.42,605.274 L3378.57,606.868 L3378.57,620.88 L3380.9,619.95 C3381.03,619.906 3381.19,619.884 3381.36,619.884 C3381.45,619.884 3381.54,619.884 3381.63,619.884 C3382.38,620.016 3382.94,620.26 3383.32,620.614 C3383.7,620.968 3383.89,621.433 3383.89,622.009 L3383.89,628.782 C3383.89,629.712 3383.4,630.376 3382.42,630.774 L3378.57,632.368 L3378.57,646.513 C3378.57,647.885 3377.89,648.571 3376.51,648.571 C3375.14,648.571 3374.46,647.885 3374.46,646.513 L3374.46,634.095 L3365.89,637.681 M3365.89,626.126 L3374.46,622.606 L3374.46,608.595 L3365.89,612.181 L3365.89,626.126 "/>
</svg>
