<?xml version="1.0" encoding="UTF-8" standalone="no"?>
<svg width="4209.44px" height="850.392px" viewBox="0 0 4209.44 850.392"
 xmlns="http://www.w3.org/2000/svg" xmlns:xlink="http://www.w3.org/1999/xlink" version="1.2" baseProfile="tiny">
<title>Exercices (17)</title>
<desc>Generated by MuseScore 3.6.2</desc>
<polyline class="StaffLines" fill="none" stroke="#000000" stroke-width="4.68" stroke-linejoin="bevel" points="70.866,325.984 4138.58,325.984"/>
<polyline class="StaffLines" fill="none" stroke="#000000" stroke-width="4.68" stroke-linejoin="bevel" points="70.866,368.504 4138.58,368.504"/>
<polyline class="StaffLines" fill="none" stroke="#000000" stroke-width="4.68" stroke-linejoin="bevel" points="70.866,411.024 4138.58,411.024"/>
<polyline class="StaffLines" fill="none" stroke="#000000" stroke-width="4.68" stroke-linejoin="bevel" points="70.866,453.543 4138.58,453.543"/>
<polyline class="StaffLines" fill="none" stroke="#000000" stroke-width="4.68" stroke-linejoin="bevel" points="70.866,496.063 4138.58,496.063"/>
<polyline class="BarLine" fill="none" stroke="#000000" stroke-width="7.65" stroke-linejoin="bevel" points="872.943,323.646 872.943,498.402"/>
<polyline class="BarLine" fill="none" stroke="#000000" stroke-width="7.65" stroke-linejoin="bevel" points="1400.35,323.646 1400.35,498.402"/>
<polyline class="BarLine" fill="none" stroke="#000000" stroke-width="7.65" stroke-linejoin="bevel" points="1927.76,323.646 1927.76,498.402"/>
<polyline class="BarLine" fill="none" stroke="#000000" stroke-width="7.65" stroke-linejoin="bevel" points="2455.16,323.646 2455.16,498.402"/>
<polyline class="BarLine" fill="none" stroke="#000000" stroke-width="7.65" stroke-linejoin="bevel" points="2982.57,323.646 2982.57,498.402"/>
<polyline class="BarLine" fill="none" stroke="#000000" stroke-width="7.65" stroke-linejoin="bevel" points="3573.2,323.646 3573.2,498.402"/>
<polyline class="BarLine" fill="none" stroke="#000000" stroke-width="7.65" stroke-linejoin="bevel" points="4097.12,323.646 4097.12,498.402"/>
<polyline class="BarLine" fill="none" stroke="#000000" stroke-width="23.39" stroke-linejoin="bevel" points="4126.89,323.646 4126.89,498.402"/>
<polyline class="LedgerLine" fill="none" stroke="#000000" stroke-width="6.80" stroke-linejoin="bevel" points="408.127,538.583 501.325,538.583"/>
<polyline class="LedgerLine" fill="none" stroke="#000000" stroke-width="6.80" stroke-linejoin="bevel" points="1986.86,538.583 2080.06,538.583"/>
<polyline class="LedgerLine" fill="none" stroke="#000000" stroke-width="6.80" stroke-linejoin="bevel" points="3041.67,581.102 3134.87,581.102"/>
<polyline class="LedgerLine" fill="none" stroke="#000000" stroke-width="6.80" stroke-linejoin="bevel" points="3041.67,538.583 3134.87,538.583"/>
<polyline class="LedgerLine" fill="none" stroke="#000000" stroke-width="6.80" stroke-linejoin="bevel" points="3632.3,538.583 3725.5,538.583"/>
<path class="Note" transform="matrix(1.70079,0,0,1.70079,423.009,538.583)" d="M18.7,-13.6 C4.9,-13.6 0,-6.6 0,-0.1 C0,6.4 4.9,13.4 18.7,13.4 C32.5,13.4 37.3,6.4 37.3,-0.1 C37.3,-6.6 32.5,-13.6 18.7,-13.6 M10.4,-4.5 C10.3,-4.9 10.3,-5.3 10.3,-5.7 C10.3,-6.5 10.5,-7.3 10.9,-8 C11.6,-9 12.8,-9.7 14.3,-10 C15.6,-10.3 16.3,-10.5 18.9,-10.5 L19,-10.5 C23,-10.5 24.3,-6.8 25.4,-3 L25.7,-2 C26.5,0.6 26.9,2.8 26.9,4.5 C26.9,5.7 26.7,6.8 26.3,7.6 C25.7,8.7 24.7,9.4 23,9.8 C22.1,10 20.6,10.1 20.6,10.1 C20.1,10.1 19.7,10.2 19.3,10.2 C16.1,10.2 14.1,9 12.7,4.7 C11.5,1 11.3,-0.1 10.4,-4.5"/>
<path class="Note" transform="matrix(1.70079,0,0,1.70079,932.046,496.063)" d="M18.7,-13.6 C4.9,-13.6 0,-6.6 0,-0.1 C0,6.4 4.9,13.4 18.7,13.4 C32.5,13.4 37.3,6.4 37.3,-0.1 C37.3,-6.6 32.5,-13.6 18.7,-13.6 M10.4,-4.5 C10.3,-4.9 10.3,-5.3 10.3,-5.7 C10.3,-6.5 10.5,-7.3 10.9,-8 C11.6,-9 12.8,-9.7 14.3,-10 C15.6,-10.3 16.3,-10.5 18.9,-10.5 L19,-10.5 C23,-10.5 24.3,-6.8 25.4,-3 L25.7,-2 C26.5,0.6 26.9,2.8 26.9,4.5 C26.9,5.7 26.7,6.8 26.3,7.6 C25.7,8.7 24.7,9.4 23,9.8 C22.1,10 20.6,10.1 20.6,10.1 C20.1,10.1 19.7,10.2 19.3,10.2 C16.1,10.2 14.1,9 12.7,4.7 C11.5,1 11.3,-0.1 10.4,-4.5"/>
<path class="Note" transform="matrix(1.70079,0,0,1.70079,1459.45,517.323)" d="M18.7,-13.6 C4.9,-13.6 0,-6.6 0,-0.1 C0,6.4 4.9,13.4 18.7,13.4 C32.5,13.4 37.3,6.4 37.3,-0.1 C37.3,-6.6 32.5,-13.6 18.7,-13.6 M10.4,-4.5 C10.3,-4.9 10.3,-5.3 10.3,-5.7 C10.3,-6.5 10.5,-7.3 10.9,-8 C11.6,-9 12.8,-9.7 14.3,-10 C15.6,-10.3 16.3,-10.5 18.9,-10.5 L19,-10.5 C23,-10.5 24.3,-6.8 25.4,-3 L25.7,-2 C26.5,0.6 26.9,2.8 26.9,4.5 C26.9,5.7 26.7,6.8 26.3,7.6 C25.7,8.7 24.7,9.4 23,9.8 C22.1,10 20.6,10.1 20.6,10.1 C20.1,10.1 19.7,10.2 19.3,10.2 C16.1,10.2 14.1,9 12.7,4.7 C11.5,1 11.3,-0.1 10.4,-4.5"/>
<path class="Note" transform="matrix(1.70079,0,0,1.70079,2001.74,538.583)" d="M18.7,-13.6 C4.9,-13.6 0,-6.6 0,-0.1 C0,6.4 4.9,13.4 18.7,13.4 C32.5,13.4 37.3,6.4 37.3,-0.1 C37.3,-6.6 32.5,-13.6 18.7,-13.6 M10.4,-4.5 C10.3,-4.9 10.3,-5.3 10.3,-5.7 C10.3,-6.5 10.5,-7.3 10.9,-8 C11.6,-9 12.8,-9.7 14.3,-10 C15.6,-10.3 16.3,-10.5 18.9,-10.5 L19,-10.5 C23,-10.5 24.3,-6.8 25.4,-3 L25.7,-2 C26.5,0.6 26.9,2.8 26.9,4.5 C26.9,5.7 26.7,6.8 26.3,7.6 C25.7,8.7 24.7,9.4 23,9.8 C22.1,10 20.6,10.1 20.6,10.1 C20.1,10.1 19.7,10.2 19.3,10.2 C16.1,10.2 14.1,9 12.7,4.7 C11.5,1 11.3,-0.1 10.4,-4.5"/>
<path class="Note" transform="matrix(1.70079,0,0,1.70079,2514.27,453.543)" d="M18.7,-13.6 C4.9,-13.6 0,-6.6 0,-0.1 C0,6.4 4.9,13.4 18.7,13.4 C32.5,13.4 37.3,6.4 37.3,-0.1 C37.3,-6.6 32.5,-13.6 18.7,-13.6 M10.4,-4.5 C10.3,-4.9 10.3,-5.3 10.3,-5.7 C10.3,-6.5 10.5,-7.3 10.9,-8 C11.6,-9 12.8,-9.7 14.3,-10 C15.6,-10.3 16.3,-10.5 18.9,-10.5 L19,-10.5 C23,-10.5 24.3,-6.8 25.4,-3 L25.7,-2 C26.5,0.6 26.9,2.8 26.9,4.5 C26.9,5.7 26.7,6.8 26.3,7.6 C25.7,8.7 24.7,9.4 23,9.8 C22.1,10 20.6,10.1 20.6,10.1 C20.1,10.1 19.7,10.2 19.3,10.2 C16.1,10.2 14.1,9 12.7,4.7 C11.5,1 11.3,-0.1 10.4,-4.5"/>
<path class="Note" transform="matrix(1.70079,0,0,1.70079,3056.55,602.362)" d="M18.7,-13.6 C4.9,-13.6 0,-6.6 0,-0.1 C0,6.4 4.9,13.4 18.7,13.4 C32.5,13.4 37.3,6.4 37.3,-0.1 C37.3,-6.6 32.5,-13.6 18.7,-13.6 M10.4,-4.5 C10.3,-4.9 10.3,-5.3 10.3,-5.7 C10.3,-6.5 10.5,-7.3 10.9,-8 C11.6,-9 12.8,-9.7 14.3,-10 C15.6,-10.3 16.3,-10.5 18.9,-10.5 L19,-10.5 C23,-10.5 24.3,-6.8 25.4,-3 L25.7,-2 C26.5,0.6 26.9,2.8 26.9,4.5 C26.9,5.7 26.7,6.8 26.3,7.6 C25.7,8.7 24.7,9.4 23,9.8 C22.1,10 20.6,10.1 20.6,10.1 C20.1,10.1 19.7,10.2 19.3,10.2 C16.1,10.2 14.1,9 12.7,4.7 C11.5,1 11.3,-0.1 10.4,-4.5"/>
<path class="Note" transform="matrix(1.70079,0,0,1.70079,3647.19,538.583)" d="M18.7,-13.6 C4.9,-13.6 0,-6.6 0,-0.1 C0,6.4 4.9,13.4 18.7,13.4 C32.5,13.4 37.3,6.4 37.3,-0.1 C37.3,-6.6 32.5,-13.6 18.7,-13.6 M10.4,-4.5 C10.3,-4.9 10.3,-5.3 10.3,-5.7 C10.3,-6.5 10.5,-7.3 10.9,-8 C11.6,-9 12.8,-9.7 14.3,-10 C15.6,-10.3 16.3,-10.5 18.9,-10.5 L19,-10.5 C23,-10.5 24.3,-6.8 25.4,-3 L25.7,-2 C26.5,0.6 26.9,2.8 26.9,4.5 C26.9,5.7 26.7,6.8 26.3,7.6 C25.7,8.7 24.7,9.4 23,9.8 C22.1,10 20.6,10.1 20.6,10.1 C20.1,10.1 19.7,10.2 19.3,10.2 C16.1,10.2 14.1,9 12.7,4.7 C11.5,1 11.3,-0.1 10.4,-4.5"/>
<path class="Clef" transform="matrix(1.70079,0,0,1.70079,104.882,368.504)" d="M25.4,-25.1 C17.8,-25.1 11.7,-20.7 11.6,-20.7 C5.8,-16.4 3.5,-11.3 2.6,-7.8 C2.1,-6 1.9,-4.2 1.9,-2.5 C1.9,-0.1 2.3,2.1 3.2,4 C4.4,6.7 6.7,8.6 9.7,9.6 C10.9,10 12.2,10.2 13.5,10.2 C15.7,10.2 18,9.6 19.9,8.5 C23,6.8 24.9,3.2 24.9,-0.7 C24.9,-4.2 23.1,-7.4 20.1,-9.3 C18,-10.7 16,-11.1 14.3,-11.1 C13.1,-11.1 12,-10.9 11.1,-10.6 C10.1,-10.2 8.4,-9.2 7.6,-8.5 C7.9,-10.4 9.1,-13.3 10.2,-14.9 C11.3,-16.5 13.5,-18.5 15.2,-19.4 C17.7,-20.8 20.9,-21.4 24.4,-21.4 C34.6,-21.4 39.6,-13.2 39.6,3.6 C39.6,12.9 36.1,21.8 33.1,27.7 C29.8,34.3 25.4,40.6 21.5,44.1 C11.1,53.6 1.3,58.1 1.2,58.1 C1.2,58.1 -0.3,59 0.1,60.5 C0.4,61.5 1.3,61.7 1.9,61.7 C2,61.7 2.3,61.6 2.4,61.6 C2.5,61.6 13.9,56.9 23,49.8 C28.1,46.1 32.7,42.1 36.7,37.8 C40.3,33.9 43.4,29.7 45.9,25.5 C50.3,18 52.8,10.2 52.8,3.5 C52.8,-4.8 50.6,-11.7 46.5,-16.6 C41.8,-22.2 34.7,-25.1 25.4,-25.1 M56.8,-12.4 C56.8,-9.6 59,-7.4 61.6,-7.4 C64.2,-7.4 66.4,-9.6 66.4,-12.4 C66.4,-15.2 64.2,-17.5 61.6,-17.5 C59,-17.5 56.8,-15.2 56.8,-12.4 M56.8,12.3 C56.8,15.1 59,17.4 61.6,17.4 C64.2,17.4 66.4,15.1 66.4,12.3 C66.4,9.5 64.2,7.2 61.6,7.2 C59,7.2 56.8,9.5 56.8,12.3"/>
<path class="KeySig" transform="matrix(1.70079,0,0,1.70079,260.331,368.504)" d="M23.3,-10.6 C23.9,-10.7 24.4,-11.4 24.4,-12 L24.4,-17.9 C24.4,-18.7 23.8,-19.3 23,-19.3 L22.8,-19.3 L19.5,-18.6 L19.5,-33.5 L16.7,-33.5 L16.7,-18 L7.8,-16.2 L7.8,-30.3 L5,-30.3 L5,-15.6 L1.1,-14.8 C0.5,-14.7 0,-14 0,-13.4 L0,-13.2 L0,-7.4 L0,-7.6 C0,-6.8 0.6,-6.2 1.4,-6.2 L1.7,-6.2 L5,-6.9 L5,9.6 L1.1,10.4 C0.5,10.5 0,11.2 0,11.8 L0,17.6 C0,18.4 0.6,19 1.4,19 L1.7,19 L5,18.3 L5,33.2 L7.8,33.2 L7.8,17.7 L16.7,15.9 L16.7,30 L19.5,30 L19.5,15.3 L23.3,14.6 C23.9,14.5 24.4,13.8 24.4,13.2 L24.4,7.3 C24.4,6.5 23.8,5.9 23,5.9 L22.8,5.9 L19.5,6.6 L19.5,-9.9 L23.3,-10.6 M7.8,9.1 L7.8,-7.5 L16.7,-9.3 L16.7,7.2 L7.8,9.1 "/>
<path class="FiguredBass" d="M965.755,592.657 C962.479,592.657 960.298,593.974 959.214,596.608 C958.129,599.242 957.587,602.972 957.587,607.798 L957.587,615.634 C959.889,614.704 961.881,614.217 963.563,614.173 C969.319,614.173 973.845,615.445 977.144,617.991 C980.442,620.537 982.091,624.322 982.091,629.347 C982.091,634.371 980.42,638.167 977.077,640.735 C973.735,643.303 969.23,644.587 963.563,644.587 C957.764,644.587 953.226,641.897 949.95,636.518 C946.674,631.139 945.036,624.753 945.036,617.36 C945.036,610.011 946.94,603.636 950.747,598.235 C954.554,592.834 959.557,590.134 965.755,590.134 C969.828,590.134 973.347,591.163 976.313,593.222 C979.28,595.28 980.763,597.992 980.763,601.356 C980.763,603.304 980.054,604.986 978.638,606.403 C977.221,607.82 975.528,608.528 973.558,608.528 C971.588,608.528 969.894,607.82 968.478,606.403 C967.061,604.986 966.353,603.304 966.353,601.356 C966.353,599.453 967.061,597.77 968.478,596.309 C968.964,595.734 969.651,595.247 970.536,594.848 C970.315,594.273 969.872,593.83 969.208,593.52 C968.234,592.945 967.083,592.657 965.755,592.657 M969.009,619.817 C968.212,617.736 966.463,616.696 963.763,616.696 C961.062,616.696 959.391,617.736 958.749,619.817 C958.107,621.898 957.786,625.063 957.786,629.313 C957.786,634.316 958.107,637.681 958.749,639.407 C959.391,641.134 961.062,641.997 963.763,641.997 C966.463,641.997 968.212,640.957 969.009,638.876 C969.806,636.795 970.204,633.619 970.204,629.347 C970.204,625.074 969.806,621.898 969.009,619.817"/>
<path class="FiguredBass" d="M1454.92,631.505 C1454.43,632.036 1453.79,632.302 1452.99,632.302 C1452.2,632.302 1451.54,632.025 1451.03,631.472 C1450.53,630.918 1450.27,630.287 1450.27,629.579 L1450.27,620.083 L1440.77,620.083 C1439.98,620.083 1439.33,619.806 1438.82,619.253 C1438.31,618.699 1438.05,618.069 1438.05,617.36 C1438.05,616.652 1438.31,616.021 1438.82,615.468 C1439.33,614.914 1439.98,614.638 1440.77,614.638 L1450.27,614.638 L1450.27,605.141 C1450.27,604.433 1450.53,603.802 1451.03,603.249 C1451.54,602.695 1452.2,602.419 1452.99,602.419 C1453.79,602.419 1454.44,602.695 1454.95,603.249 C1455.46,603.802 1455.72,604.433 1455.72,605.141 L1455.72,614.638 L1465.21,614.638 C1466.01,614.638 1466.66,614.914 1467.17,615.468 C1467.68,616.021 1467.94,616.652 1467.94,617.36 C1467.94,618.069 1467.68,618.699 1467.17,619.253 C1466.66,619.806 1466.01,620.083 1465.21,620.083 L1455.72,620.083 L1455.72,629.579 C1455.72,630.287 1455.45,630.929 1454.92,631.505 M1493.16,592.657 C1489.89,592.657 1487.71,593.974 1486.62,596.608 C1485.54,599.242 1484.99,602.972 1484.99,607.798 L1484.99,615.634 C1487.3,614.704 1489.29,614.217 1490.97,614.173 C1496.73,614.173 1501.25,615.445 1504.55,617.991 C1507.85,620.537 1509.5,624.322 1509.5,629.347 C1509.5,634.371 1507.83,638.167 1504.48,640.735 C1501.14,643.303 1496.64,644.587 1490.97,644.587 C1485.17,644.587 1480.63,641.897 1477.36,636.518 C1474.08,631.139 1472.44,624.753 1472.44,617.36 C1472.44,610.011 1474.35,603.636 1478.15,598.235 C1481.96,592.834 1486.96,590.134 1493.16,590.134 C1497.23,590.134 1500.75,591.163 1503.72,593.222 C1506.69,595.28 1508.17,597.992 1508.17,601.356 C1508.17,603.304 1507.46,604.986 1506.04,606.403 C1504.63,607.82 1502.93,608.528 1500.96,608.528 C1498.99,608.528 1497.3,607.82 1495.88,606.403 C1494.47,604.986 1493.76,603.304 1493.76,601.356 C1493.76,599.453 1494.47,597.77 1495.88,596.309 C1496.37,595.734 1497.06,595.247 1497.94,594.848 C1497.72,594.273 1497.28,593.83 1496.61,593.52 C1495.64,592.945 1494.49,592.657 1493.16,592.657 M1496.42,619.817 C1495.62,617.736 1493.87,616.696 1491.17,616.696 C1488.47,616.696 1486.8,617.736 1486.16,619.817 C1485.51,621.898 1485.19,625.063 1485.19,629.313 C1485.19,634.316 1485.51,637.681 1486.16,639.407 C1486.8,641.134 1488.47,641.997 1491.17,641.997 C1493.87,641.997 1495.62,640.957 1496.42,638.876 C1497.21,636.795 1497.61,633.619 1497.61,629.347 C1497.61,625.074 1497.21,621.898 1496.42,619.817"/>
<path class="FiguredBass" d="M2547.51,591.528 C2549.19,591.528 2550.96,591.285 2552.82,590.798 L2555.81,590.001 C2556.39,590.001 2556.84,590.222 2557.17,590.665 C2557.5,591.108 2557.47,591.506 2557.07,591.86 L2526.19,627.786 L2544.32,627.786 L2544.32,613.575 C2544.32,612.557 2544.6,611.771 2545.15,611.218 C2545.71,610.664 2546.41,610.222 2547.28,609.889 C2548.14,609.557 2549.27,608.572 2550.66,606.934 C2552.06,605.296 2553.4,603.083 2554.68,600.294 C2554.9,599.851 2555.24,599.63 2555.68,599.63 C2556.61,599.63 2557.07,600.139 2557.07,601.157 L2557.07,627.786 L2564.91,627.786 C2566.02,627.786 2566.57,628.295 2566.57,629.313 C2566.57,630.42 2566.02,630.973 2564.91,630.973 L2557.07,630.973 L2557.07,631.837 C2557.07,634.582 2557.8,636.972 2559.26,639.009 C2560.73,641.045 2562.61,642.063 2564.91,642.063 C2565.79,642.063 2566.24,642.462 2566.24,643.259 C2566.24,644.144 2565.79,644.587 2564.91,644.587 C2563.31,644.587 2560.95,644.354 2557.8,643.889 C2554.66,643.425 2552.28,643.192 2550.66,643.192 C2549.05,643.192 2546.67,643.425 2543.53,643.889 C2540.38,644.354 2538.01,644.587 2536.42,644.587 C2535.54,644.587 2535.09,644.144 2535.09,643.259 C2535.09,642.462 2535.54,642.063 2536.42,642.063 C2538.72,642.063 2540.62,641.045 2542.1,639.009 C2543.58,636.972 2544.32,634.582 2544.32,631.837 L2544.32,630.973 L2526.19,630.973 C2525.04,630.973 2524.19,630.697 2523.64,630.143 C2523.08,629.59 2522.81,629.026 2522.81,628.45 C2522.81,628.229 2523.33,627.465 2524.37,626.159 C2525.41,624.853 2526.68,623.115 2528.19,620.946 C2529.69,618.777 2531.19,616.309 2532.67,613.542 C2534.15,610.775 2535.41,607.455 2536.45,603.581 C2537.49,599.707 2538.01,595.8 2538.01,591.86 C2538.01,590.709 2538.5,590.134 2539.48,590.134 C2539.61,590.134 2540.07,590.244 2540.87,590.466 C2541.67,590.687 2542.68,590.919 2543.92,591.163 C2545.16,591.406 2546.36,591.528 2547.51,591.528"/>
<path class="FiguredBass" d="M3083.96,703.161 L3083.96,717.04 C3083.96,718.412 3083.26,719.098 3081.86,719.098 C3080.47,719.098 3079.77,718.412 3079.77,717.04 L3079.77,704.954 L3077.65,705.817 C3077.43,705.906 3077.14,705.95 3076.78,705.95 C3076.21,705.95 3075.7,705.729 3075.26,705.286 C3074.81,704.843 3074.59,704.334 3074.59,703.758 L3074.59,696.985 C3074.59,696.011 3075.06,695.325 3075.99,694.926 L3079.77,693.333 L3079.77,679.387 L3077.65,680.251 C3077.51,680.295 3077.34,680.317 3077.12,680.317 C3077.03,680.317 3076.92,680.317 3076.78,680.317 C3076.12,680.229 3075.59,679.985 3075.19,679.587 C3074.79,679.188 3074.59,678.723 3074.59,678.192 L3074.59,671.419 C3074.59,670.489 3075.06,669.825 3075.99,669.426 L3079.77,667.833 L3079.77,653.688 C3079.77,652.316 3080.47,651.63 3081.86,651.63 C3083.26,651.63 3083.96,652.316 3083.96,653.688 L3083.96,666.106 L3092.52,662.52 L3092.52,648.641 C3092.52,647.269 3093.21,646.583 3094.58,646.583 C3095.95,646.583 3096.64,647.269 3096.64,648.641 L3096.64,660.86 L3098.96,659.864 C3099.18,659.775 3099.43,659.731 3099.69,659.731 C3100.27,659.731 3100.79,659.952 3101.25,660.395 C3101.72,660.838 3101.95,661.347 3101.95,661.923 L3101.95,668.696 C3101.95,669.67 3101.46,670.356 3100.49,670.755 L3096.64,672.348 L3096.64,686.36 L3098.96,685.43 C3099.1,685.386 3099.25,685.364 3099.43,685.364 C3099.52,685.364 3099.6,685.364 3099.69,685.364 C3100.45,685.497 3101.01,685.74 3101.39,686.094 C3101.76,686.449 3101.95,686.913 3101.95,687.489 L3101.95,694.262 C3101.95,695.192 3101.46,695.856 3100.49,696.255 L3096.64,697.848 L3096.64,711.993 C3096.64,713.365 3095.95,714.051 3094.58,714.051 C3093.21,714.051 3092.52,713.365 3092.52,711.993 L3092.52,699.575 L3083.96,703.161 M3083.96,691.606 L3092.52,688.087 L3092.52,674.075 L3083.96,677.661 L3083.96,691.606 "/>
<path class="FiguredBass" d="M3328.1,595.048 C3328.23,595.048 3328.52,594.76 3328.96,594.184 C3330.86,591.484 3333.52,590.134 3336.93,590.134 C3339.67,590.134 3342.26,591.152 3344.7,593.188 C3347.13,595.225 3349.15,596.243 3350.74,596.243 C3352.47,596.243 3354.11,595.734 3355.65,594.716 C3357.2,593.697 3358.43,592.679 3359.34,591.661 C3360.25,590.643 3360.83,590.134 3361.1,590.134 C3361.54,590.134 3361.94,590.278 3362.3,590.565 C3362.65,590.853 3362.83,591.218 3362.83,591.661 C3362.83,591.971 3361.92,593.498 3360.1,596.243 C3358.29,598.988 3356.27,602.164 3354.06,605.772 C3351.85,609.38 3349.83,613.885 3348.02,619.286 C3346.2,624.687 3345.3,629.845 3345.3,634.759 C3345.3,636.662 3345.49,638.854 3345.89,641.333 C3346.2,643.236 3346.2,644.321 3345.89,644.587 C3345.67,644.808 3345.3,644.919 3344.76,644.919 C3344.54,644.919 3343.51,644.631 3341.68,644.056 C3339.84,643.48 3338.08,643.192 3336.4,643.192 C3334.89,643.192 3333.15,643.48 3331.18,644.056 C3329.21,644.631 3328.12,644.919 3327.9,644.919 C3327.41,644.919 3327.01,644.72 3326.7,644.321 C3326.39,643.923 3326.35,643.502 3326.57,643.059 C3329.18,636.817 3332.36,630.741 3336.1,624.831 C3339.84,618.921 3344.52,612.114 3350.14,604.411 C3348.02,605.562 3345.87,606.138 3343.7,606.138 C3341.4,606.138 3339.08,605.108 3336.73,603.05 C3334.38,600.991 3332.46,599.962 3330.95,599.962 C3329.84,599.962 3328.88,600.593 3328.06,601.854 C3327.24,603.116 3326.83,605.009 3326.83,607.532 L3326.83,615.7 C3326.83,616.807 3326.33,617.36 3325.31,617.36 C3324.2,617.36 3323.65,616.807 3323.65,615.7 L3323.65,591.794 C3323.65,590.687 3324.2,590.134 3325.31,590.134 C3326.33,590.134 3326.83,590.687 3326.83,591.794 L3326.83,593.321 C3326.83,593.675 3326.92,593.985 3327.1,594.251 C3327.63,594.782 3327.96,595.048 3328.1,595.048"/>
<path class="FiguredBass" d="M3344.57,707.208 C3344.08,707.739 3343.44,708.005 3342.64,708.005 C3341.85,708.005 3341.19,707.728 3340.68,707.175 C3340.18,706.621 3339.92,705.99 3339.92,705.282 L3339.92,695.786 L3330.42,695.786 C3329.63,695.786 3328.97,695.509 3328.47,694.956 C3327.96,694.403 3327.7,693.772 3327.7,693.063 C3327.7,692.355 3327.96,691.724 3328.47,691.171 C3328.97,690.617 3329.63,690.341 3330.42,690.341 L3339.92,690.341 L3339.92,680.845 C3339.92,680.136 3340.18,679.505 3340.68,678.952 C3341.19,678.399 3341.85,678.122 3342.64,678.122 C3343.44,678.122 3344.09,678.399 3344.6,678.952 C3345.11,679.505 3345.37,680.136 3345.37,680.845 L3345.37,690.341 L3354.86,690.341 C3355.66,690.341 3356.31,690.617 3356.82,691.171 C3357.33,691.724 3357.58,692.355 3357.58,693.063 C3357.58,693.772 3357.33,694.403 3356.82,694.956 C3356.31,695.509 3355.66,695.786 3354.86,695.786 L3345.37,695.786 L3345.37,705.282 C3345.37,705.99 3345.1,706.632 3344.57,707.208"/>
</svg>
