<?xml version="1.0" encoding="UTF-8" standalone="no"?>
<svg width="4209.44px" height="2976.38px" viewBox="0 0 4209.44 2976.38"
 xmlns="http://www.w3.org/2000/svg" xmlns:xlink="http://www.w3.org/1999/xlink" version="1.2" baseProfile="tiny">
<title>FaMajeur (21)</title>
<desc>Generated by MuseScore 3.6.2</desc>
<polyline class="StaffLines" fill="none" stroke="#000000" stroke-width="6.55" stroke-linejoin="bevel" points="153.819,558.425 4138.58,558.425"/>
<polyline class="StaffLines" fill="none" stroke="#000000" stroke-width="6.55" stroke-linejoin="bevel" points="153.819,647.717 4138.58,647.717"/>
<polyline class="StaffLines" fill="none" stroke="#000000" stroke-width="6.55" stroke-linejoin="bevel" points="153.819,737.008 4138.58,737.008"/>
<polyline class="StaffLines" fill="none" stroke="#000000" stroke-width="6.55" stroke-linejoin="bevel" points="153.819,826.299 4138.58,826.299"/>
<polyline class="StaffLines" fill="none" stroke="#000000" stroke-width="6.55" stroke-linejoin="bevel" points="153.819,915.591 4138.58,915.591"/>
<polyline class="StaffLines" fill="none" stroke="#000000" stroke-width="6.55" stroke-linejoin="bevel" points="153.819,1004.88 4138.58,1004.88"/>
<polyline class="StaffLines" fill="none" stroke="#000000" stroke-width="6.55" stroke-linejoin="bevel" points="153.819,1391.81 4138.58,1391.81"/>
<polyline class="StaffLines" fill="none" stroke="#000000" stroke-width="6.55" stroke-linejoin="bevel" points="153.819,1451.34 4138.58,1451.34"/>
<polyline class="StaffLines" fill="none" stroke="#000000" stroke-width="6.55" stroke-linejoin="bevel" points="153.819,1510.87 4138.58,1510.87"/>
<polyline class="StaffLines" fill="none" stroke="#000000" stroke-width="6.55" stroke-linejoin="bevel" points="153.819,1570.39 4138.58,1570.39"/>
<polyline class="StaffLines" fill="none" stroke="#000000" stroke-width="6.55" stroke-linejoin="bevel" points="153.819,1629.92 4138.58,1629.92"/>
<polyline class="StaffLines" fill="none" stroke="#000000" stroke-width="6.55" stroke-linejoin="bevel" points="153.819,2016.85 4138.58,2016.85"/>
<polyline class="StaffLines" fill="none" stroke="#000000" stroke-width="6.55" stroke-linejoin="bevel" points="153.819,2076.38 4138.58,2076.38"/>
<polyline class="StaffLines" fill="none" stroke="#000000" stroke-width="6.55" stroke-linejoin="bevel" points="153.819,2135.91 4138.58,2135.91"/>
<polyline class="StaffLines" fill="none" stroke="#000000" stroke-width="6.55" stroke-linejoin="bevel" points="153.819,2195.43 4138.58,2195.43"/>
<polyline class="StaffLines" fill="none" stroke="#000000" stroke-width="6.55" stroke-linejoin="bevel" points="153.819,2254.96 4138.58,2254.96"/>
<polyline class="BarLine" fill="none" stroke="#000000" stroke-width="10.71" stroke-linejoin="bevel" points="159.176,2013.58 159.176,2258.23"/>
<polyline class="BarLine" fill="none" stroke="#000000" stroke-width="10.71" stroke-linejoin="bevel" points="944.018,2013.58 944.018,2258.23"/>
<polyline class="BarLine" fill="none" stroke="#000000" stroke-width="10.71" stroke-linejoin="bevel" points="1434.66,2013.58 1434.66,2258.23"/>
<polyline class="BarLine" fill="none" stroke="#000000" stroke-width="10.71" stroke-linejoin="bevel" points="1852.3,2013.58 1852.3,2258.23"/>
<polyline class="BarLine" fill="none" stroke="#000000" stroke-width="10.71" stroke-linejoin="bevel" points="2342.94,2013.58 2342.94,2258.23"/>
<polyline class="BarLine" fill="none" stroke="#000000" stroke-width="10.71" stroke-linejoin="bevel" points="2761.77,2013.58 2761.77,2258.23"/>
<polyline class="BarLine" fill="none" stroke="#000000" stroke-width="10.71" stroke-linejoin="bevel" points="3179.41,2013.58 3179.41,2258.23"/>
<polyline class="BarLine" fill="none" stroke="#000000" stroke-width="10.71" stroke-linejoin="bevel" points="3675.77,2013.58 3675.77,2258.23"/>
<polyline class="BarLine" fill="none" stroke="#000000" stroke-width="10.71" stroke-linejoin="bevel" points="4080.54,2013.58 4080.54,2258.23"/>
<polyline class="BarLine" fill="none" stroke="#000000" stroke-width="32.74" stroke-linejoin="bevel" points="4122.21,2013.58 4122.21,2258.23"/>
<polyline class="BarLine" fill="none" stroke="#000000" stroke-width="10.71" stroke-linejoin="bevel" points="159.176,1388.54 159.176,2016.85"/>
<polyline class="BarLine" fill="none" stroke="#000000" stroke-width="10.71" stroke-linejoin="bevel" points="944.018,1388.54 944.018,1633.2"/>
<polyline class="BarLine" fill="none" stroke="#000000" stroke-width="10.71" stroke-linejoin="bevel" points="1434.66,1388.54 1434.66,1633.2"/>
<polyline class="BarLine" fill="none" stroke="#000000" stroke-width="10.71" stroke-linejoin="bevel" points="1852.3,1388.54 1852.3,1633.2"/>
<polyline class="BarLine" fill="none" stroke="#000000" stroke-width="10.71" stroke-linejoin="bevel" points="2342.94,1388.54 2342.94,1633.2"/>
<polyline class="BarLine" fill="none" stroke="#000000" stroke-width="10.71" stroke-linejoin="bevel" points="2761.77,1388.54 2761.77,1633.2"/>
<polyline class="BarLine" fill="none" stroke="#000000" stroke-width="10.71" stroke-linejoin="bevel" points="3179.41,1388.54 3179.41,1633.2"/>
<polyline class="BarLine" fill="none" stroke="#000000" stroke-width="10.71" stroke-linejoin="bevel" points="3675.77,1388.54 3675.77,1633.2"/>
<polyline class="BarLine" fill="none" stroke="#000000" stroke-width="10.71" stroke-linejoin="bevel" points="4080.54,1388.54 4080.54,1633.2"/>
<polyline class="BarLine" fill="none" stroke="#000000" stroke-width="32.74" stroke-linejoin="bevel" points="4122.21,1388.54 4122.21,1633.2"/>
<polyline class="BarLine" fill="none" stroke="#000000" stroke-width="10.71" stroke-linejoin="bevel" points="159.176,555.151 159.176,1391.81"/>
<polyline class="BarLine" fill="none" stroke="#000000" stroke-width="10.71" stroke-linejoin="bevel" points="944.018,555.151 944.018,1008.16"/>
<polyline class="BarLine" fill="none" stroke="#000000" stroke-width="10.71" stroke-linejoin="bevel" points="1434.66,555.151 1434.66,1008.16"/>
<polyline class="BarLine" fill="none" stroke="#000000" stroke-width="10.71" stroke-linejoin="bevel" points="1852.3,555.151 1852.3,1008.16"/>
<polyline class="BarLine" fill="none" stroke="#000000" stroke-width="10.71" stroke-linejoin="bevel" points="2342.94,555.151 2342.94,1008.16"/>
<polyline class="BarLine" fill="none" stroke="#000000" stroke-width="10.71" stroke-linejoin="bevel" points="2761.77,555.151 2761.77,1008.16"/>
<polyline class="BarLine" fill="none" stroke="#000000" stroke-width="10.71" stroke-linejoin="bevel" points="3179.41,555.151 3179.41,1008.16"/>
<polyline class="BarLine" fill="none" stroke="#000000" stroke-width="10.71" stroke-linejoin="bevel" points="3675.77,555.151 3675.77,1008.16"/>
<polyline class="BarLine" fill="none" stroke="#000000" stroke-width="10.71" stroke-linejoin="bevel" points="4080.54,555.151 4080.54,1008.16"/>
<polyline class="BarLine" fill="none" stroke="#000000" stroke-width="32.74" stroke-linejoin="bevel" points="4122.21,555.151 4122.21,1008.16"/>
<path class="Note" transform="matrix(2.3811,0,0,2.3811,626.933,2284.72)" d="M18.7,-13.6 C4.9,-13.6 0,-6.6 0,-0.1 C0,6.4 4.9,13.4 18.7,13.4 C32.5,13.4 37.3,6.4 37.3,-0.1 C37.3,-6.6 32.5,-13.6 18.7,-13.6 M10.4,-4.5 C10.3,-4.9 10.3,-5.3 10.3,-5.7 C10.3,-6.5 10.5,-7.3 10.9,-8 C11.6,-9 12.8,-9.7 14.3,-10 C15.6,-10.3 16.3,-10.5 18.9,-10.5 L19,-10.5 C23,-10.5 24.3,-6.8 25.4,-3 L25.7,-2 C26.5,0.6 26.9,2.8 26.9,4.5 C26.9,5.7 26.7,6.8 26.3,7.6 C25.7,8.7 24.7,9.4 23,9.8 C22.1,10 20.6,10.1 20.6,10.1 C20.1,10.1 19.7,10.2 19.3,10.2 C16.1,10.2 14.1,9 12.7,4.7 C11.5,1 11.3,-0.1 10.4,-4.5"/>
<path class="Note" transform="matrix(2.3811,0,0,2.3811,1026.76,2254.96)" d="M18.7,-13.6 C4.9,-13.6 0,-6.6 0,-0.1 C0,6.4 4.9,13.4 18.7,13.4 C32.5,13.4 37.3,6.4 37.3,-0.1 C37.3,-6.6 32.5,-13.6 18.7,-13.6 M10.4,-4.5 C10.3,-4.9 10.3,-5.3 10.3,-5.7 C10.3,-6.5 10.5,-7.3 10.9,-8 C11.6,-9 12.8,-9.7 14.3,-10 C15.6,-10.3 16.3,-10.5 18.9,-10.5 L19,-10.5 C23,-10.5 24.3,-6.8 25.4,-3 L25.7,-2 C26.5,0.6 26.9,2.8 26.9,4.5 C26.9,5.7 26.7,6.8 26.3,7.6 C25.7,8.7 24.7,9.4 23,9.8 C22.1,10 20.6,10.1 20.6,10.1 C20.1,10.1 19.7,10.2 19.3,10.2 C16.1,10.2 14.1,9 12.7,4.7 C11.5,1 11.3,-0.1 10.4,-4.5"/>
<path class="Note" transform="matrix(2.3811,0,0,2.3811,1517.4,2225.2)" d="M18.7,-13.6 C4.9,-13.6 0,-6.6 0,-0.1 C0,6.4 4.9,13.4 18.7,13.4 C32.5,13.4 37.3,6.4 37.3,-0.1 C37.3,-6.6 32.5,-13.6 18.7,-13.6 M10.4,-4.5 C10.3,-4.9 10.3,-5.3 10.3,-5.7 C10.3,-6.5 10.5,-7.3 10.9,-8 C11.6,-9 12.8,-9.7 14.3,-10 C15.6,-10.3 16.3,-10.5 18.9,-10.5 L19,-10.5 C23,-10.5 24.3,-6.8 25.4,-3 L25.7,-2 C26.5,0.6 26.9,2.8 26.9,4.5 C26.9,5.7 26.7,6.8 26.3,7.6 C25.7,8.7 24.7,9.4 23,9.8 C22.1,10 20.6,10.1 20.6,10.1 C20.1,10.1 19.7,10.2 19.3,10.2 C16.1,10.2 14.1,9 12.7,4.7 C11.5,1 11.3,-0.1 10.4,-4.5"/>
<path class="Note" transform="matrix(2.3811,0,0,2.3811,1935.04,2195.43)" d="M18.7,-13.6 C4.9,-13.6 0,-6.6 0,-0.1 C0,6.4 4.9,13.4 18.7,13.4 C32.5,13.4 37.3,6.4 37.3,-0.1 C37.3,-6.6 32.5,-13.6 18.7,-13.6 M10.4,-4.5 C10.3,-4.9 10.3,-5.3 10.3,-5.7 C10.3,-6.5 10.5,-7.3 10.9,-8 C11.6,-9 12.8,-9.7 14.3,-10 C15.6,-10.3 16.3,-10.5 18.9,-10.5 L19,-10.5 C23,-10.5 24.3,-6.8 25.4,-3 L25.7,-2 C26.5,0.6 26.9,2.8 26.9,4.5 C26.9,5.7 26.7,6.8 26.3,7.6 C25.7,8.7 24.7,9.4 23,9.8 C22.1,10 20.6,10.1 20.6,10.1 C20.1,10.1 19.7,10.2 19.3,10.2 C16.1,10.2 14.1,9 12.7,4.7 C11.5,1 11.3,-0.1 10.4,-4.5"/>
<path class="Note" transform="matrix(2.3811,0,0,2.3811,2425.68,2165.67)" d="M18.7,-13.6 C4.9,-13.6 0,-6.6 0,-0.1 C0,6.4 4.9,13.4 18.7,13.4 C32.5,13.4 37.3,6.4 37.3,-0.1 C37.3,-6.6 32.5,-13.6 18.7,-13.6 M10.4,-4.5 C10.3,-4.9 10.3,-5.3 10.3,-5.7 C10.3,-6.5 10.5,-7.3 10.9,-8 C11.6,-9 12.8,-9.7 14.3,-10 C15.6,-10.3 16.3,-10.5 18.9,-10.5 L19,-10.5 C23,-10.5 24.3,-6.8 25.4,-3 L25.7,-2 C26.5,0.6 26.9,2.8 26.9,4.5 C26.9,5.7 26.7,6.8 26.3,7.6 C25.7,8.7 24.7,9.4 23,9.8 C22.1,10 20.6,10.1 20.6,10.1 C20.1,10.1 19.7,10.2 19.3,10.2 C16.1,10.2 14.1,9 12.7,4.7 C11.5,1 11.3,-0.1 10.4,-4.5"/>
<path class="Note" transform="matrix(2.3811,0,0,2.3811,2850.23,2135.91)" d="M18.7,-13.6 C4.9,-13.6 0,-6.6 0,-0.1 C0,6.4 4.9,13.4 18.7,13.4 C32.5,13.4 37.3,6.4 37.3,-0.1 C37.3,-6.6 32.5,-13.6 18.7,-13.6 M10.4,-4.5 C10.3,-4.9 10.3,-5.3 10.3,-5.7 C10.3,-6.5 10.5,-7.3 10.9,-8 C11.6,-9 12.8,-9.7 14.3,-10 C15.6,-10.3 16.3,-10.5 18.9,-10.5 L19,-10.5 C23,-10.5 24.3,-6.8 25.4,-3 L25.7,-2 C26.5,0.6 26.9,2.8 26.9,4.5 C26.9,5.7 26.7,6.8 26.3,7.6 C25.7,8.7 24.7,9.4 23,9.8 C22.1,10 20.6,10.1 20.6,10.1 C20.1,10.1 19.7,10.2 19.3,10.2 C16.1,10.2 14.1,9 12.7,4.7 C11.5,1 11.3,-0.1 10.4,-4.5"/>
<path class="Note" transform="matrix(2.3811,0,0,2.3811,3267.88,2106.14)" d="M18.7,-13.6 C4.9,-13.6 0,-6.6 0,-0.1 C0,6.4 4.9,13.4 18.7,13.4 C32.5,13.4 37.3,6.4 37.3,-0.1 C37.3,-6.6 32.5,-13.6 18.7,-13.6 M10.4,-4.5 C10.3,-4.9 10.3,-5.3 10.3,-5.7 C10.3,-6.5 10.5,-7.3 10.9,-8 C11.6,-9 12.8,-9.7 14.3,-10 C15.6,-10.3 16.3,-10.5 18.9,-10.5 L19,-10.5 C23,-10.5 24.3,-6.8 25.4,-3 L25.7,-2 C26.5,0.6 26.9,2.8 26.9,4.5 C26.9,5.7 26.7,6.8 26.3,7.6 C25.7,8.7 24.7,9.4 23,9.8 C22.1,10 20.6,10.1 20.6,10.1 C20.1,10.1 19.7,10.2 19.3,10.2 C16.1,10.2 14.1,9 12.7,4.7 C11.5,1 11.3,-0.1 10.4,-4.5"/>
<path class="Note" transform="matrix(2.3811,0,0,2.3811,3764.23,2076.38)" d="M18.7,-13.6 C4.9,-13.6 0,-6.6 0,-0.1 C0,6.4 4.9,13.4 18.7,13.4 C32.5,13.4 37.3,6.4 37.3,-0.1 C37.3,-6.6 32.5,-13.6 18.7,-13.6 M10.4,-4.5 C10.3,-4.9 10.3,-5.3 10.3,-5.7 C10.3,-6.5 10.5,-7.3 10.9,-8 C11.6,-9 12.8,-9.7 14.3,-10 C15.6,-10.3 16.3,-10.5 18.9,-10.5 L19,-10.5 C23,-10.5 24.3,-6.8 25.4,-3 L25.7,-2 C26.5,0.6 26.9,2.8 26.9,4.5 C26.9,5.7 26.7,6.8 26.3,7.6 C25.7,8.7 24.7,9.4 23,9.8 C22.1,10 20.6,10.1 20.6,10.1 C20.1,10.1 19.7,10.2 19.3,10.2 C16.1,10.2 14.1,9 12.7,4.7 C11.5,1 11.3,-0.1 10.4,-4.5"/>
<path class="Note" transform="matrix(2.3811,0,0,2.3811,626.933,1600.16)" d="M18.7,-13.6 C4.9,-13.6 0,-6.6 0,-0.1 C0,6.4 4.9,13.4 18.7,13.4 C32.5,13.4 37.3,6.4 37.3,-0.1 C37.3,-6.6 32.5,-13.6 18.7,-13.6 M10.4,-4.5 C10.3,-4.9 10.3,-5.3 10.3,-5.7 C10.3,-6.5 10.5,-7.3 10.9,-8 C11.6,-9 12.8,-9.7 14.3,-10 C15.6,-10.3 16.3,-10.5 18.9,-10.5 L19,-10.5 C23,-10.5 24.3,-6.8 25.4,-3 L25.7,-2 C26.5,0.6 26.9,2.8 26.9,4.5 C26.9,5.7 26.7,6.8 26.3,7.6 C25.7,8.7 24.7,9.4 23,9.8 C22.1,10 20.6,10.1 20.6,10.1 C20.1,10.1 19.7,10.2 19.3,10.2 C16.1,10.2 14.1,9 12.7,4.7 C11.5,1 11.3,-0.1 10.4,-4.5"/>
<path class="Note" transform="matrix(2.3811,0,0,2.3811,626.933,1540.63)" d="M18.7,-13.6 C4.9,-13.6 0,-6.6 0,-0.1 C0,6.4 4.9,13.4 18.7,13.4 C32.5,13.4 37.3,6.4 37.3,-0.1 C37.3,-6.6 32.5,-13.6 18.7,-13.6 M10.4,-4.5 C10.3,-4.9 10.3,-5.3 10.3,-5.7 C10.3,-6.5 10.5,-7.3 10.9,-8 C11.6,-9 12.8,-9.7 14.3,-10 C15.6,-10.3 16.3,-10.5 18.9,-10.5 L19,-10.5 C23,-10.5 24.3,-6.8 25.4,-3 L25.7,-2 C26.5,0.6 26.9,2.8 26.9,4.5 C26.9,5.7 26.7,6.8 26.3,7.6 C25.7,8.7 24.7,9.4 23,9.8 C22.1,10 20.6,10.1 20.6,10.1 C20.1,10.1 19.7,10.2 19.3,10.2 C16.1,10.2 14.1,9 12.7,4.7 C11.5,1 11.3,-0.1 10.4,-4.5"/>
<path class="Note" transform="matrix(2.3811,0,0,2.3811,626.933,1481.1)" d="M18.7,-13.6 C4.9,-13.6 0,-6.6 0,-0.1 C0,6.4 4.9,13.4 18.7,13.4 C32.5,13.4 37.3,6.4 37.3,-0.1 C37.3,-6.6 32.5,-13.6 18.7,-13.6 M10.4,-4.5 C10.3,-4.9 10.3,-5.3 10.3,-5.7 C10.3,-6.5 10.5,-7.3 10.9,-8 C11.6,-9 12.8,-9.7 14.3,-10 C15.6,-10.3 16.3,-10.5 18.9,-10.5 L19,-10.5 C23,-10.5 24.3,-6.8 25.4,-3 L25.7,-2 C26.5,0.6 26.9,2.8 26.9,4.5 C26.9,5.7 26.7,6.8 26.3,7.6 C25.7,8.7 24.7,9.4 23,9.8 C22.1,10 20.6,10.1 20.6,10.1 C20.1,10.1 19.7,10.2 19.3,10.2 C16.1,10.2 14.1,9 12.7,4.7 C11.5,1 11.3,-0.1 10.4,-4.5"/>
<path class="Note" transform="matrix(2.3811,0,0,2.3811,1026.76,1629.92)" d="M18.7,-13.6 C4.9,-13.6 0,-6.6 0,-0.1 C0,6.4 4.9,13.4 18.7,13.4 C32.5,13.4 37.3,6.4 37.3,-0.1 C37.3,-6.6 32.5,-13.6 18.7,-13.6 M10.4,-4.5 C10.3,-4.9 10.3,-5.3 10.3,-5.7 C10.3,-6.5 10.5,-7.3 10.9,-8 C11.6,-9 12.8,-9.7 14.3,-10 C15.6,-10.3 16.3,-10.5 18.9,-10.5 L19,-10.5 C23,-10.5 24.3,-6.8 25.4,-3 L25.7,-2 C26.5,0.6 26.9,2.8 26.9,4.5 C26.9,5.7 26.7,6.8 26.3,7.6 C25.7,8.7 24.7,9.4 23,9.8 C22.1,10 20.6,10.1 20.6,10.1 C20.1,10.1 19.7,10.2 19.3,10.2 C16.1,10.2 14.1,9 12.7,4.7 C11.5,1 11.3,-0.1 10.4,-4.5"/>
<path class="Note" transform="matrix(2.3811,0,0,2.3811,1026.76,1510.87)" d="M18.7,-13.6 C4.9,-13.6 0,-6.6 0,-0.1 C0,6.4 4.9,13.4 18.7,13.4 C32.5,13.4 37.3,6.4 37.3,-0.1 C37.3,-6.6 32.5,-13.6 18.7,-13.6 M10.4,-4.5 C10.3,-4.9 10.3,-5.3 10.3,-5.7 C10.3,-6.5 10.5,-7.3 10.9,-8 C11.6,-9 12.8,-9.7 14.3,-10 C15.6,-10.3 16.3,-10.5 18.9,-10.5 L19,-10.5 C23,-10.5 24.3,-6.8 25.4,-3 L25.7,-2 C26.5,0.6 26.9,2.8 26.9,4.5 C26.9,5.7 26.7,6.8 26.3,7.6 C25.7,8.7 24.7,9.4 23,9.8 C22.1,10 20.6,10.1 20.6,10.1 C20.1,10.1 19.7,10.2 19.3,10.2 C16.1,10.2 14.1,9 12.7,4.7 C11.5,1 11.3,-0.1 10.4,-4.5"/>
<path class="Note" transform="matrix(2.3811,0,0,2.3811,1109.02,1481.1)" d="M18.7,-13.6 C4.9,-13.6 0,-6.6 0,-0.1 C0,6.4 4.9,13.4 18.7,13.4 C32.5,13.4 37.3,6.4 37.3,-0.1 C37.3,-6.6 32.5,-13.6 18.7,-13.6 M10.4,-4.5 C10.3,-4.9 10.3,-5.3 10.3,-5.7 C10.3,-6.5 10.5,-7.3 10.9,-8 C11.6,-9 12.8,-9.7 14.3,-10 C15.6,-10.3 16.3,-10.5 18.9,-10.5 L19,-10.5 C23,-10.5 24.3,-6.8 25.4,-3 L25.7,-2 C26.5,0.6 26.9,2.8 26.9,4.5 C26.9,5.7 26.7,6.8 26.3,7.6 C25.7,8.7 24.7,9.4 23,9.8 C22.1,10 20.6,10.1 20.6,10.1 C20.1,10.1 19.7,10.2 19.3,10.2 C16.1,10.2 14.1,9 12.7,4.7 C11.5,1 11.3,-0.1 10.4,-4.5"/>
<path class="Note" transform="matrix(2.3811,0,0,2.3811,1517.4,1600.16)" d="M18.7,-13.6 C4.9,-13.6 0,-6.6 0,-0.1 C0,6.4 4.9,13.4 18.7,13.4 C32.5,13.4 37.3,6.4 37.3,-0.1 C37.3,-6.6 32.5,-13.6 18.7,-13.6 M10.4,-4.5 C10.3,-4.9 10.3,-5.3 10.3,-5.7 C10.3,-6.5 10.5,-7.3 10.9,-8 C11.6,-9 12.8,-9.7 14.3,-10 C15.6,-10.3 16.3,-10.5 18.9,-10.5 L19,-10.5 C23,-10.5 24.3,-6.8 25.4,-3 L25.7,-2 C26.5,0.6 26.9,2.8 26.9,4.5 C26.9,5.7 26.7,6.8 26.3,7.6 C25.7,8.7 24.7,9.4 23,9.8 C22.1,10 20.6,10.1 20.6,10.1 C20.1,10.1 19.7,10.2 19.3,10.2 C16.1,10.2 14.1,9 12.7,4.7 C11.5,1 11.3,-0.1 10.4,-4.5"/>
<path class="Note" transform="matrix(2.3811,0,0,2.3811,1517.4,1540.63)" d="M18.7,-13.6 C4.9,-13.6 0,-6.6 0,-0.1 C0,6.4 4.9,13.4 18.7,13.4 C32.5,13.4 37.3,6.4 37.3,-0.1 C37.3,-6.6 32.5,-13.6 18.7,-13.6 M10.4,-4.5 C10.3,-4.9 10.3,-5.3 10.3,-5.7 C10.3,-6.5 10.5,-7.3 10.9,-8 C11.6,-9 12.8,-9.7 14.3,-10 C15.6,-10.3 16.3,-10.5 18.9,-10.5 L19,-10.5 C23,-10.5 24.3,-6.8 25.4,-3 L25.7,-2 C26.5,0.6 26.9,2.8 26.9,4.5 C26.9,5.7 26.7,6.8 26.3,7.6 C25.7,8.7 24.7,9.4 23,9.8 C22.1,10 20.6,10.1 20.6,10.1 C20.1,10.1 19.7,10.2 19.3,10.2 C16.1,10.2 14.1,9 12.7,4.7 C11.5,1 11.3,-0.1 10.4,-4.5"/>
<path class="Note" transform="matrix(2.3811,0,0,2.3811,1517.4,1481.1)" d="M18.7,-13.6 C4.9,-13.6 0,-6.6 0,-0.1 C0,6.4 4.9,13.4 18.7,13.4 C32.5,13.4 37.3,6.4 37.3,-0.1 C37.3,-6.6 32.5,-13.6 18.7,-13.6 M10.4,-4.5 C10.3,-4.9 10.3,-5.3 10.3,-5.7 C10.3,-6.5 10.5,-7.3 10.9,-8 C11.6,-9 12.8,-9.7 14.3,-10 C15.6,-10.3 16.3,-10.5 18.9,-10.5 L19,-10.5 C23,-10.5 24.3,-6.8 25.4,-3 L25.7,-2 C26.5,0.6 26.9,2.8 26.9,4.5 C26.9,5.7 26.7,6.8 26.3,7.6 C25.7,8.7 24.7,9.4 23,9.8 C22.1,10 20.6,10.1 20.6,10.1 C20.1,10.1 19.7,10.2 19.3,10.2 C16.1,10.2 14.1,9 12.7,4.7 C11.5,1 11.3,-0.1 10.4,-4.5"/>
<path class="Note" transform="matrix(2.3811,0,0,2.3811,1935.04,1600.16)" d="M18.7,-13.6 C4.9,-13.6 0,-6.6 0,-0.1 C0,6.4 4.9,13.4 18.7,13.4 C32.5,13.4 37.3,6.4 37.3,-0.1 C37.3,-6.6 32.5,-13.6 18.7,-13.6 M10.4,-4.5 C10.3,-4.9 10.3,-5.3 10.3,-5.7 C10.3,-6.5 10.5,-7.3 10.9,-8 C11.6,-9 12.8,-9.7 14.3,-10 C15.6,-10.3 16.3,-10.5 18.9,-10.5 L19,-10.5 C23,-10.5 24.3,-6.8 25.4,-3 L25.7,-2 C26.5,0.6 26.9,2.8 26.9,4.5 C26.9,5.7 26.7,6.8 26.3,7.6 C25.7,8.7 24.7,9.4 23,9.8 C22.1,10 20.6,10.1 20.6,10.1 C20.1,10.1 19.7,10.2 19.3,10.2 C16.1,10.2 14.1,9 12.7,4.7 C11.5,1 11.3,-0.1 10.4,-4.5"/>
<path class="Note" transform="matrix(2.3811,0,0,2.3811,2017.3,1570.39)" d="M18.7,-13.6 C4.9,-13.6 0,-6.6 0,-0.1 C0,6.4 4.9,13.4 18.7,13.4 C32.5,13.4 37.3,6.4 37.3,-0.1 C37.3,-6.6 32.5,-13.6 18.7,-13.6 M10.4,-4.5 C10.3,-4.9 10.3,-5.3 10.3,-5.7 C10.3,-6.5 10.5,-7.3 10.9,-8 C11.6,-9 12.8,-9.7 14.3,-10 C15.6,-10.3 16.3,-10.5 18.9,-10.5 L19,-10.5 C23,-10.5 24.3,-6.8 25.4,-3 L25.7,-2 C26.5,0.6 26.9,2.8 26.9,4.5 C26.9,5.7 26.7,6.8 26.3,7.6 C25.7,8.7 24.7,9.4 23,9.8 C22.1,10 20.6,10.1 20.6,10.1 C20.1,10.1 19.7,10.2 19.3,10.2 C16.1,10.2 14.1,9 12.7,4.7 C11.5,1 11.3,-0.1 10.4,-4.5"/>
<path class="Note" transform="matrix(2.3811,0,0,2.3811,1935.04,1451.34)" d="M18.7,-13.6 C4.9,-13.6 0,-6.6 0,-0.1 C0,6.4 4.9,13.4 18.7,13.4 C32.5,13.4 37.3,6.4 37.3,-0.1 C37.3,-6.6 32.5,-13.6 18.7,-13.6 M10.4,-4.5 C10.3,-4.9 10.3,-5.3 10.3,-5.7 C10.3,-6.5 10.5,-7.3 10.9,-8 C11.6,-9 12.8,-9.7 14.3,-10 C15.6,-10.3 16.3,-10.5 18.9,-10.5 L19,-10.5 C23,-10.5 24.3,-6.8 25.4,-3 L25.7,-2 C26.5,0.6 26.9,2.8 26.9,4.5 C26.9,5.7 26.7,6.8 26.3,7.6 C25.7,8.7 24.7,9.4 23,9.8 C22.1,10 20.6,10.1 20.6,10.1 C20.1,10.1 19.7,10.2 19.3,10.2 C16.1,10.2 14.1,9 12.7,4.7 C11.5,1 11.3,-0.1 10.4,-4.5"/>
<path class="Note" transform="matrix(2.3811,0,0,2.3811,2425.68,1629.92)" d="M18.7,-13.6 C4.9,-13.6 0,-6.6 0,-0.1 C0,6.4 4.9,13.4 18.7,13.4 C32.5,13.4 37.3,6.4 37.3,-0.1 C37.3,-6.6 32.5,-13.6 18.7,-13.6 M10.4,-4.5 C10.3,-4.9 10.3,-5.3 10.3,-5.7 C10.3,-6.5 10.5,-7.3 10.9,-8 C11.6,-9 12.8,-9.7 14.3,-10 C15.6,-10.3 16.3,-10.5 18.9,-10.5 L19,-10.5 C23,-10.5 24.3,-6.8 25.4,-3 L25.7,-2 C26.5,0.6 26.9,2.8 26.9,4.5 C26.9,5.7 26.7,6.8 26.3,7.6 C25.7,8.7 24.7,9.4 23,9.8 C22.1,10 20.6,10.1 20.6,10.1 C20.1,10.1 19.7,10.2 19.3,10.2 C16.1,10.2 14.1,9 12.7,4.7 C11.5,1 11.3,-0.1 10.4,-4.5"/>
<path class="Note" transform="matrix(2.3811,0,0,2.3811,2425.68,1570.39)" d="M18.7,-13.6 C4.9,-13.6 0,-6.6 0,-0.1 C0,6.4 4.9,13.4 18.7,13.4 C32.5,13.4 37.3,6.4 37.3,-0.1 C37.3,-6.6 32.5,-13.6 18.7,-13.6 M10.4,-4.5 C10.3,-4.9 10.3,-5.3 10.3,-5.7 C10.3,-6.5 10.5,-7.3 10.9,-8 C11.6,-9 12.8,-9.7 14.3,-10 C15.6,-10.3 16.3,-10.5 18.9,-10.5 L19,-10.5 C23,-10.5 24.3,-6.8 25.4,-3 L25.7,-2 C26.5,0.6 26.9,2.8 26.9,4.5 C26.9,5.7 26.7,6.8 26.3,7.6 C25.7,8.7 24.7,9.4 23,9.8 C22.1,10 20.6,10.1 20.6,10.1 C20.1,10.1 19.7,10.2 19.3,10.2 C16.1,10.2 14.1,9 12.7,4.7 C11.5,1 11.3,-0.1 10.4,-4.5"/>
<path class="Note" transform="matrix(2.3811,0,0,2.3811,2425.68,1481.1)" d="M18.7,-13.6 C4.9,-13.6 0,-6.6 0,-0.1 C0,6.4 4.9,13.4 18.7,13.4 C32.5,13.4 37.3,6.4 37.3,-0.1 C37.3,-6.6 32.5,-13.6 18.7,-13.6 M10.4,-4.5 C10.3,-4.9 10.3,-5.3 10.3,-5.7 C10.3,-6.5 10.5,-7.3 10.9,-8 C11.6,-9 12.8,-9.7 14.3,-10 C15.6,-10.3 16.3,-10.5 18.9,-10.5 L19,-10.5 C23,-10.5 24.3,-6.8 25.4,-3 L25.7,-2 C26.5,0.6 26.9,2.8 26.9,4.5 C26.9,5.7 26.7,6.8 26.3,7.6 C25.7,8.7 24.7,9.4 23,9.8 C22.1,10 20.6,10.1 20.6,10.1 C20.1,10.1 19.7,10.2 19.3,10.2 C16.1,10.2 14.1,9 12.7,4.7 C11.5,1 11.3,-0.1 10.4,-4.5"/>
<path class="Note" transform="matrix(2.3811,0,0,2.3811,2850.23,1600.16)" d="M18.7,-13.6 C4.9,-13.6 0,-6.6 0,-0.1 C0,6.4 4.9,13.4 18.7,13.4 C32.5,13.4 37.3,6.4 37.3,-0.1 C37.3,-6.6 32.5,-13.6 18.7,-13.6 M10.4,-4.5 C10.3,-4.9 10.3,-5.3 10.3,-5.7 C10.3,-6.5 10.5,-7.3 10.9,-8 C11.6,-9 12.8,-9.7 14.3,-10 C15.6,-10.3 16.3,-10.5 18.9,-10.5 L19,-10.5 C23,-10.5 24.3,-6.8 25.4,-3 L25.7,-2 C26.5,0.6 26.9,2.8 26.9,4.5 C26.9,5.7 26.7,6.8 26.3,7.6 C25.7,8.7 24.7,9.4 23,9.8 C22.1,10 20.6,10.1 20.6,10.1 C20.1,10.1 19.7,10.2 19.3,10.2 C16.1,10.2 14.1,9 12.7,4.7 C11.5,1 11.3,-0.1 10.4,-4.5"/>
<path class="Note" transform="matrix(2.3811,0,0,2.3811,2850.23,1510.87)" d="M18.7,-13.6 C4.9,-13.6 0,-6.6 0,-0.1 C0,6.4 4.9,13.4 18.7,13.4 C32.5,13.4 37.3,6.4 37.3,-0.1 C37.3,-6.6 32.5,-13.6 18.7,-13.6 M10.4,-4.5 C10.3,-4.9 10.3,-5.3 10.3,-5.7 C10.3,-6.5 10.5,-7.3 10.9,-8 C11.6,-9 12.8,-9.7 14.3,-10 C15.6,-10.3 16.3,-10.5 18.9,-10.5 L19,-10.5 C23,-10.5 24.3,-6.8 25.4,-3 L25.7,-2 C26.5,0.6 26.9,2.8 26.9,4.5 C26.9,5.7 26.7,6.8 26.3,7.6 C25.7,8.7 24.7,9.4 23,9.8 C22.1,10 20.6,10.1 20.6,10.1 C20.1,10.1 19.7,10.2 19.3,10.2 C16.1,10.2 14.1,9 12.7,4.7 C11.5,1 11.3,-0.1 10.4,-4.5"/>
<path class="Note" transform="matrix(2.3811,0,0,2.3811,3267.88,1570.39)" d="M18.7,-13.6 C4.9,-13.6 0,-6.6 0,-0.1 C0,6.4 4.9,13.4 18.7,13.4 C32.5,13.4 37.3,6.4 37.3,-0.1 C37.3,-6.6 32.5,-13.6 18.7,-13.6 M10.4,-4.5 C10.3,-4.9 10.3,-5.3 10.3,-5.7 C10.3,-6.5 10.5,-7.3 10.9,-8 C11.6,-9 12.8,-9.7 14.3,-10 C15.6,-10.3 16.3,-10.5 18.9,-10.5 L19,-10.5 C23,-10.5 24.3,-6.8 25.4,-3 L25.7,-2 C26.5,0.6 26.9,2.8 26.9,4.5 C26.9,5.7 26.7,6.8 26.3,7.6 C25.7,8.7 24.7,9.4 23,9.8 C22.1,10 20.6,10.1 20.6,10.1 C20.1,10.1 19.7,10.2 19.3,10.2 C16.1,10.2 14.1,9 12.7,4.7 C11.5,1 11.3,-0.1 10.4,-4.5"/>
<path class="Note" transform="matrix(2.3811,0,0,2.3811,3267.88,1510.87)" d="M18.7,-13.6 C4.9,-13.6 0,-6.6 0,-0.1 C0,6.4 4.9,13.4 18.7,13.4 C32.5,13.4 37.3,6.4 37.3,-0.1 C37.3,-6.6 32.5,-13.6 18.7,-13.6 M10.4,-4.5 C10.3,-4.9 10.3,-5.3 10.3,-5.7 C10.3,-6.5 10.5,-7.3 10.9,-8 C11.6,-9 12.8,-9.7 14.3,-10 C15.6,-10.3 16.3,-10.5 18.9,-10.5 L19,-10.5 C23,-10.5 24.3,-6.8 25.4,-3 L25.7,-2 C26.5,0.6 26.9,2.8 26.9,4.5 C26.9,5.7 26.7,6.8 26.3,7.6 C25.7,8.7 24.7,9.4 23,9.8 C22.1,10 20.6,10.1 20.6,10.1 C20.1,10.1 19.7,10.2 19.3,10.2 C16.1,10.2 14.1,9 12.7,4.7 C11.5,1 11.3,-0.1 10.4,-4.5"/>
<path class="Note" transform="matrix(2.3811,0,0,2.3811,3350.14,1481.1)" d="M18.7,-13.6 C4.9,-13.6 0,-6.6 0,-0.1 C0,6.4 4.9,13.4 18.7,13.4 C32.5,13.4 37.3,6.4 37.3,-0.1 C37.3,-6.6 32.5,-13.6 18.7,-13.6 M10.4,-4.5 C10.3,-4.9 10.3,-5.3 10.3,-5.7 C10.3,-6.5 10.5,-7.3 10.9,-8 C11.6,-9 12.8,-9.7 14.3,-10 C15.6,-10.3 16.3,-10.5 18.9,-10.5 L19,-10.5 C23,-10.5 24.3,-6.8 25.4,-3 L25.7,-2 C26.5,0.6 26.9,2.8 26.9,4.5 C26.9,5.7 26.7,6.8 26.3,7.6 C25.7,8.7 24.7,9.4 23,9.8 C22.1,10 20.6,10.1 20.6,10.1 C20.1,10.1 19.7,10.2 19.3,10.2 C16.1,10.2 14.1,9 12.7,4.7 C11.5,1 11.3,-0.1 10.4,-4.5"/>
<path class="Note" transform="matrix(2.3811,0,0,2.3811,3764.23,1600.16)" d="M18.7,-13.6 C4.9,-13.6 0,-6.6 0,-0.1 C0,6.4 4.9,13.4 18.7,13.4 C32.5,13.4 37.3,6.4 37.3,-0.1 C37.3,-6.6 32.5,-13.6 18.7,-13.6 M10.4,-4.5 C10.3,-4.9 10.3,-5.3 10.3,-5.7 C10.3,-6.5 10.5,-7.3 10.9,-8 C11.6,-9 12.8,-9.7 14.3,-10 C15.6,-10.3 16.3,-10.5 18.9,-10.5 L19,-10.5 C23,-10.5 24.3,-6.8 25.4,-3 L25.7,-2 C26.5,0.6 26.9,2.8 26.9,4.5 C26.9,5.7 26.7,6.8 26.3,7.6 C25.7,8.7 24.7,9.4 23,9.8 C22.1,10 20.6,10.1 20.6,10.1 C20.1,10.1 19.7,10.2 19.3,10.2 C16.1,10.2 14.1,9 12.7,4.7 C11.5,1 11.3,-0.1 10.4,-4.5"/>
<path class="Note" transform="matrix(2.3811,0,0,2.3811,3764.23,1540.63)" d="M18.7,-13.6 C4.9,-13.6 0,-6.6 0,-0.1 C0,6.4 4.9,13.4 18.7,13.4 C32.5,13.4 37.3,6.4 37.3,-0.1 C37.3,-6.6 32.5,-13.6 18.7,-13.6 M10.4,-4.5 C10.3,-4.9 10.3,-5.3 10.3,-5.7 C10.3,-6.5 10.5,-7.3 10.9,-8 C11.6,-9 12.8,-9.7 14.3,-10 C15.6,-10.3 16.3,-10.5 18.9,-10.5 L19,-10.5 C23,-10.5 24.3,-6.8 25.4,-3 L25.7,-2 C26.5,0.6 26.9,2.8 26.9,4.5 C26.9,5.7 26.7,6.8 26.3,7.6 C25.7,8.7 24.7,9.4 23,9.8 C22.1,10 20.6,10.1 20.6,10.1 C20.1,10.1 19.7,10.2 19.3,10.2 C16.1,10.2 14.1,9 12.7,4.7 C11.5,1 11.3,-0.1 10.4,-4.5"/>
<path class="Note" transform="matrix(2.3811,0,0,2.3811,3764.23,1481.1)" d="M18.7,-13.6 C4.9,-13.6 0,-6.6 0,-0.1 C0,6.4 4.9,13.4 18.7,13.4 C32.5,13.4 37.3,6.4 37.3,-0.1 C37.3,-6.6 32.5,-13.6 18.7,-13.6 M10.4,-4.5 C10.3,-4.9 10.3,-5.3 10.3,-5.7 C10.3,-6.5 10.5,-7.3 10.9,-8 C11.6,-9 12.8,-9.7 14.3,-10 C15.6,-10.3 16.3,-10.5 18.9,-10.5 L19,-10.5 C23,-10.5 24.3,-6.8 25.4,-3 L25.7,-2 C26.5,0.6 26.9,2.8 26.9,4.5 C26.9,5.7 26.7,6.8 26.3,7.6 C25.7,8.7 24.7,9.4 23,9.8 C22.1,10 20.6,10.1 20.6,10.1 C20.1,10.1 19.7,10.2 19.3,10.2 C16.1,10.2 14.1,9 12.7,4.7 C11.5,1 11.3,-0.1 10.4,-4.5"/>
<path class="Note" d="M633.408,1105.33 C633.02,1106.02 632.439,1106.37 631.665,1106.37 C630.967,1106.37 630.076,1106.06 628.992,1105.44 C627.365,1104.51 626.551,1103.58 626.551,1102.65 C626.551,1102.34 626.667,1101.96 626.9,1101.49 C644.641,1075.92 655.72,1054.39 660.136,1036.88 C660.446,1036.34 660.988,1036.06 661.763,1036.06 C662.77,1036.06 664.204,1036.61 666.063,1037.69 C668.62,1039.16 669.898,1040.48 669.898,1041.64 C669.898,1041.95 669.82,1042.22 669.666,1042.46 C663.778,1059.19 651.692,1080.15 633.408,1105.33 M716.957,1059.89 C721.528,1059.89 723.813,1062.75 723.813,1068.49 C723.813,1072.52 721.295,1078.52 716.259,1086.5 C712.231,1092.93 710.216,1099.21 710.216,1105.33 C710.216,1108.81 715.291,1110.56 725.44,1110.56 C733.807,1110.56 745.467,1106.02 760.419,1096.96 C745.39,1111.45 732.335,1118.69 721.256,1118.69 C711.262,1118.69 704.29,1117.18 700.338,1114.16 C699.331,1113.38 698.479,1112.45 697.782,1111.37 C693.908,1116.09 687.439,1118.46 678.375,1118.46 C669.697,1118.46 663.035,1116.68 658.386,1113.11 C655.287,1110.71 653.738,1106.88 653.738,1101.61 C653.738,1093.24 658.696,1084.1 668.613,1074.18 C679.227,1063.57 691.506,1058.26 705.452,1058.26 C708.938,1058.26 711.495,1059.54 713.122,1062.1 C714.439,1060.62 715.717,1059.89 716.957,1059.89 M696.155,1106.14 C696.077,1105.52 696.039,1104.9 696.039,1104.28 C696.039,1103.97 699.99,1093.16 707.892,1071.86 C708.667,1069.77 709.442,1067.98 710.216,1066.51 C707.195,1065.89 704.212,1065.58 701.268,1065.58 C695.845,1065.58 688.64,1070.19 679.653,1079.41 C671.596,1087.62 667.567,1094.71 667.567,1100.68 C667.567,1107.26 670.705,1110.56 676.98,1110.56 C684.572,1110.56 690.964,1109.08 696.155,1106.14"/>
<path class="Note" d="M712.841,581.059 C723.3,574.474 730.892,569.09 735.618,564.906 C744.295,557.236 748.634,549.489 748.634,541.664 C748.634,532.522 742.513,527.951 730.272,527.951 C717.412,527.951 704.009,537.209 690.063,555.725 C680.612,568.276 673.91,580.13 669.959,591.286 C674.84,588.11 679.992,586.521 685.415,586.521 C690.528,586.521 694.596,588.807 697.617,593.378 C699.709,596.554 700.755,601.977 700.755,609.647 C700.755,616.542 697.114,624.638 689.831,633.935 C685.338,639.668 680.34,642.535 674.84,642.535 C667.867,642.535 662.986,641.14 660.197,638.351 C656.246,634.4 654.27,626.575 654.27,614.877 C654.27,595.198 662.212,575.83 678.094,556.771 C695.99,535.311 713.151,524.581 729.575,524.581 C742.281,524.581 751.771,527.564 758.047,533.529 C761.688,537.015 763.509,542.051 763.509,548.637 C763.509,555.997 756.265,564.209 741.777,573.273 C734.185,578.077 724.539,580.672 712.841,581.059 M668.448,596.167 C666.511,602.675 665.543,608.911 665.543,614.877 C665.543,629.055 667.79,636.143 672.283,636.143 C676.544,636.143 679.876,633.122 682.277,627.079 C685.066,620.261 686.461,612.707 686.461,604.418 C686.461,597.058 684.02,593.378 679.14,593.378 C675.731,593.378 672.167,594.307 668.448,596.167"/>
<path class="Note" d="M661.476,821.118 C657.679,821.118 655.781,817.05 655.781,808.916 L655.781,774.866 C655.781,771.612 657.369,769.985 660.546,769.985 C661.94,769.985 662.986,770.101 663.684,770.333 C666.163,765.995 670.23,762.354 675.886,759.41 C683.788,755.304 691.807,753.25 699.941,753.25 C706.372,753.25 709.587,755.652 709.587,760.456 C709.587,764.484 707.418,766.499 703.079,766.499 C699.98,766.499 697.036,765.801 694.247,764.407 C691.768,763.167 689.134,762.547 686.345,762.547 C681.541,762.547 674.452,765.685 665.078,771.96 C666.395,778.236 667.054,785.557 667.054,793.924 C667.054,812.053 665.194,821.118 661.476,821.118"/>
<path class="Note" d="M712.841,670.351 C723.3,663.765 730.892,658.381 735.618,654.197 C744.295,646.527 748.634,638.78 748.634,630.955 C748.634,621.813 742.513,617.242 730.272,617.242 C717.412,617.242 704.009,626.5 690.063,645.017 C680.612,657.568 673.91,669.421 669.959,680.577 C674.84,677.401 679.992,675.813 685.415,675.813 C690.528,675.813 694.596,678.098 697.617,682.669 C699.709,685.846 700.755,691.269 700.755,698.939 C700.755,705.834 697.114,713.93 689.831,723.227 C685.338,728.96 680.34,731.826 674.84,731.826 C667.867,731.826 662.986,730.432 660.197,727.643 C656.246,723.692 654.27,715.867 654.27,704.168 C654.27,684.49 662.212,665.121 678.094,646.063 C695.99,624.602 713.151,613.872 729.575,613.872 C742.281,613.872 751.771,616.855 758.047,622.82 C761.688,626.307 763.509,631.343 763.509,637.928 C763.509,645.288 756.265,653.5 741.777,662.565 C734.185,667.368 724.539,669.963 712.841,670.351 M668.448,685.458 C666.511,691.966 665.543,698.203 665.543,704.168 C665.543,718.346 667.79,725.435 672.283,725.435 C676.544,725.435 679.876,722.413 682.277,716.37 C685.066,709.553 686.461,701.999 686.461,693.709 C686.461,686.349 684.02,682.669 679.14,682.669 C675.731,682.669 672.167,683.599 668.448,685.458"/>
<path class="Note" d="M1105.58,1059.89 C1110.15,1059.89 1112.44,1062.75 1112.44,1068.49 C1112.44,1072.52 1109.92,1078.52 1104.88,1086.5 C1100.85,1092.93 1098.84,1099.21 1098.84,1105.33 C1098.84,1108.81 1103.91,1110.56 1114.06,1110.56 C1122.43,1110.56 1134.09,1106.02 1149.04,1096.96 C1134.01,1111.45 1120.96,1118.69 1109.88,1118.69 C1099.89,1118.69 1092.91,1117.18 1088.96,1114.16 C1087.96,1113.38 1087.1,1112.45 1086.41,1111.37 C1082.53,1116.09 1076.06,1118.46 1067,1118.46 C1058.32,1118.46 1051.66,1116.68 1047.01,1113.11 C1043.91,1110.71 1042.36,1106.88 1042.36,1101.61 C1042.36,1093.24 1047.32,1084.1 1057.24,1074.18 C1067.85,1063.57 1080.13,1058.26 1094.08,1058.26 C1097.56,1058.26 1100.12,1059.54 1101.75,1062.1 C1103.06,1060.62 1104.34,1059.89 1105.58,1059.89 M1084.78,1106.14 C1084.7,1105.52 1084.66,1104.9 1084.66,1104.28 C1084.66,1103.97 1088.61,1093.16 1096.52,1071.86 C1097.29,1069.77 1098.07,1067.98 1098.84,1066.51 C1095.82,1065.89 1092.84,1065.58 1089.89,1065.58 C1084.47,1065.58 1077.26,1070.19 1068.28,1079.41 C1060.22,1087.62 1056.19,1094.71 1056.19,1100.68 C1056.19,1107.26 1059.33,1110.56 1065.6,1110.56 C1073.2,1110.56 1079.59,1109.08 1084.78,1106.14"/>
<path class="Note" d="M1105.58,583.965 C1110.15,583.965 1112.44,586.831 1112.44,592.564 C1112.44,596.593 1109.92,602.597 1104.88,610.577 C1100.85,617.007 1098.84,623.283 1098.84,629.403 C1098.84,632.889 1103.91,634.633 1114.06,634.633 C1122.43,634.633 1134.09,630.1 1149.04,621.036 C1134.01,635.524 1120.96,642.767 1109.88,642.767 C1099.89,642.767 1092.91,641.257 1088.96,638.235 C1087.96,637.46 1087.1,636.531 1086.41,635.446 C1082.53,640.172 1076.06,642.535 1067,642.535 C1058.32,642.535 1051.66,640.753 1047.01,637.189 C1043.91,634.788 1042.36,630.953 1042.36,625.684 C1042.36,617.317 1047.32,608.175 1057.24,598.259 C1067.85,587.645 1080.13,582.338 1094.08,582.338 C1097.56,582.338 1100.12,583.616 1101.75,586.173 C1103.06,584.701 1104.34,583.965 1105.58,583.965 M1084.78,630.217 C1084.7,629.597 1084.66,628.977 1084.66,628.357 C1084.66,628.047 1088.61,617.24 1096.52,595.934 C1097.29,593.843 1098.07,592.061 1098.84,590.589 C1095.82,589.969 1092.84,589.659 1089.89,589.659 C1084.47,589.659 1077.26,594.269 1068.28,603.488 C1060.22,611.7 1056.19,618.789 1056.19,624.755 C1056.19,631.34 1059.33,634.633 1065.6,634.633 C1073.2,634.633 1079.59,633.161 1084.78,630.217"/>
<path class="Note" d="M1112.67,491.768 C1123.13,485.183 1130.72,479.798 1135.45,475.615 C1144.12,467.945 1148.46,460.197 1148.46,452.373 C1148.46,443.231 1142.34,438.66 1130.1,438.66 C1117.24,438.66 1103.84,447.918 1089.89,466.434 C1080.44,478.985 1073.74,490.838 1069.79,501.995 C1074.67,498.818 1079.82,497.23 1085.24,497.23 C1090.36,497.23 1094.42,499.515 1097.45,504.086 C1099.54,507.263 1100.58,512.686 1100.58,520.356 C1100.58,527.251 1096.94,535.347 1089.66,544.644 C1085.17,550.377 1080.17,553.244 1074.67,553.244 C1067.7,553.244 1062.81,551.849 1060.03,549.06 C1056.07,545.109 1054.1,537.284 1054.1,525.585 C1054.1,505.907 1062.04,486.539 1077.92,467.48 C1095.82,446.02 1112.98,435.29 1129.4,435.29 C1142.11,435.29 1151.6,438.272 1157.88,444.238 C1161.52,447.724 1163.34,452.76 1163.34,459.345 C1163.34,466.705 1156.09,474.917 1141.61,483.982 C1134.01,488.785 1124.37,491.381 1112.67,491.768 M1068.28,506.875 C1066.34,513.383 1065.37,519.62 1065.37,525.585 C1065.37,539.763 1067.62,546.852 1072.11,546.852 C1076.37,546.852 1079.7,543.831 1082.11,537.788 C1084.89,530.97 1086.29,523.416 1086.29,515.126 C1086.29,507.766 1083.85,504.086 1078.97,504.086 C1075.56,504.086 1072,505.016 1068.28,506.875"/>
<path class="Note" d="M1112.67,670.351 C1123.13,663.765 1130.72,658.381 1135.45,654.197 C1144.12,646.527 1148.46,638.78 1148.46,630.955 C1148.46,621.813 1142.34,617.242 1130.1,617.242 C1117.24,617.242 1103.84,626.5 1089.89,645.017 C1080.44,657.568 1073.74,669.421 1069.79,680.577 C1074.67,677.401 1079.82,675.813 1085.24,675.813 C1090.36,675.813 1094.42,678.098 1097.45,682.669 C1099.54,685.846 1100.58,691.269 1100.58,698.939 C1100.58,705.834 1096.94,713.93 1089.66,723.227 C1085.17,728.96 1080.17,731.826 1074.67,731.826 C1067.7,731.826 1062.81,730.432 1060.03,727.643 C1056.07,723.692 1054.1,715.867 1054.1,704.168 C1054.1,684.49 1062.04,665.121 1077.92,646.063 C1095.82,624.602 1112.98,613.872 1129.4,613.872 C1142.11,613.872 1151.6,616.855 1157.88,622.82 C1161.52,626.307 1163.34,631.343 1163.34,637.928 C1163.34,645.288 1156.09,653.5 1141.61,662.565 C1134.01,667.368 1124.37,669.963 1112.67,670.351 M1068.28,685.458 C1066.34,691.966 1065.37,698.203 1065.37,704.168 C1065.37,718.346 1067.62,725.435 1072.11,725.435 C1076.37,725.435 1079.7,722.413 1082.11,716.37 C1084.89,709.553 1086.29,701.999 1086.29,693.709 C1086.29,686.349 1083.85,682.669 1078.97,682.669 C1075.56,682.669 1072,683.599 1068.28,685.458"/>
<path class="Note" d="M1596.22,941.13 C1600.79,941.13 1603.07,943.997 1603.07,949.73 C1603.07,953.758 1600.56,959.763 1595.52,967.742 C1591.49,974.173 1589.48,980.448 1589.48,986.568 C1589.48,990.055 1594.55,991.798 1604.7,991.798 C1613.07,991.798 1624.73,987.266 1639.68,978.201 C1624.65,992.689 1611.6,999.933 1600.52,999.933 C1590.52,999.933 1583.55,998.422 1579.6,995.401 C1578.59,994.626 1577.74,993.696 1577.04,992.611 C1573.17,997.337 1566.7,999.7 1557.64,999.7 C1548.96,999.7 1542.3,997.918 1537.65,994.355 C1534.55,991.953 1533,988.118 1533,982.85 C1533,974.483 1537.96,965.341 1547.87,955.424 C1558.49,944.81 1570.77,939.503 1584.71,939.503 C1588.2,939.503 1590.76,940.781 1592.38,943.338 C1593.7,941.866 1594.98,941.13 1596.22,941.13 M1575.42,987.382 C1575.34,986.762 1575.3,986.142 1575.3,985.523 C1575.3,985.213 1579.25,974.405 1587.15,953.1 C1587.93,951.008 1588.7,949.226 1589.48,947.754 C1586.46,947.134 1583.47,946.824 1580.53,946.824 C1575.11,946.824 1567.9,951.434 1558.91,960.653 C1550.86,968.866 1546.83,975.955 1546.83,981.92 C1546.83,988.505 1549.97,991.798 1556.24,991.798 C1563.83,991.798 1570.23,990.326 1575.42,987.382"/>
<path class="Note" d="M1603.31,581.059 C1613.77,574.474 1621.36,569.09 1626.08,564.906 C1634.76,557.236 1639.1,549.489 1639.1,541.664 C1639.1,532.522 1632.98,527.951 1620.74,527.951 C1607.88,527.951 1594.48,537.209 1580.53,555.725 C1571.08,568.276 1564.38,580.13 1560.43,591.286 C1565.31,588.11 1570.46,586.521 1575.88,586.521 C1580.99,586.521 1585.06,588.807 1588.08,593.378 C1590.18,596.554 1591.22,601.977 1591.22,609.647 C1591.22,616.542 1587.58,624.638 1580.3,633.935 C1575.8,639.668 1570.81,642.535 1565.31,642.535 C1558.33,642.535 1553.45,641.14 1550.66,638.351 C1546.71,634.4 1544.74,626.575 1544.74,614.877 C1544.74,595.198 1552.68,575.83 1568.56,556.771 C1586.46,535.311 1603.62,524.581 1620.04,524.581 C1632.75,524.581 1642.24,527.564 1648.51,533.529 C1652.15,537.015 1653.98,542.051 1653.98,548.637 C1653.98,555.997 1646.73,564.209 1632.24,573.273 C1624.65,578.077 1615.01,580.672 1603.31,581.059 M1558.91,596.167 C1556.98,602.675 1556.01,608.911 1556.01,614.877 C1556.01,629.055 1558.26,636.143 1562.75,636.143 C1567.01,636.143 1570.34,633.122 1572.74,627.079 C1575.53,620.261 1576.93,612.707 1576.93,604.418 C1576.93,597.058 1574.49,593.378 1569.61,593.378 C1566.2,593.378 1562.63,594.307 1558.91,596.167"/>
<path class="Note" d="M1551.94,821.118 C1548.15,821.118 1546.25,817.05 1546.25,808.916 L1546.25,774.866 C1546.25,771.612 1547.84,769.985 1551.01,769.985 C1552.41,769.985 1553.45,770.101 1554.15,770.333 C1556.63,765.995 1560.7,762.354 1566.35,759.41 C1574.25,755.304 1582.27,753.25 1590.41,753.25 C1596.84,753.25 1600.05,755.652 1600.05,760.456 C1600.05,764.484 1597.88,766.499 1593.55,766.499 C1590.45,766.499 1587.5,765.801 1584.71,764.407 C1582.23,763.167 1579.6,762.547 1576.81,762.547 C1572.01,762.547 1564.92,765.685 1555.54,771.96 C1556.86,778.236 1557.52,785.557 1557.52,793.924 C1557.52,812.053 1555.66,821.118 1551.94,821.118"/>
<path class="Note" d="M1603.31,670.351 C1613.77,663.765 1621.36,658.381 1626.08,654.197 C1634.76,646.527 1639.1,638.78 1639.1,630.955 C1639.1,621.813 1632.98,617.242 1620.74,617.242 C1607.88,617.242 1594.48,626.5 1580.53,645.017 C1571.08,657.568 1564.38,669.421 1560.43,680.577 C1565.31,677.401 1570.46,675.813 1575.88,675.813 C1580.99,675.813 1585.06,678.098 1588.08,682.669 C1590.18,685.846 1591.22,691.269 1591.22,698.939 C1591.22,705.834 1587.58,713.93 1580.3,723.227 C1575.8,728.96 1570.81,731.826 1565.31,731.826 C1558.33,731.826 1553.45,730.432 1550.66,727.643 C1546.71,723.692 1544.74,715.867 1544.74,704.168 C1544.74,684.49 1552.68,665.121 1568.56,646.063 C1586.46,624.602 1603.62,613.872 1620.04,613.872 C1632.75,613.872 1642.24,616.855 1648.51,622.82 C1652.15,626.307 1653.98,631.343 1653.98,637.928 C1653.98,645.288 1646.73,653.5 1632.24,662.565 C1624.65,667.368 1615.01,669.963 1603.31,670.351 M1558.91,685.458 C1556.98,691.966 1556.01,698.203 1556.01,704.168 C1556.01,718.346 1558.26,725.435 1562.75,725.435 C1567.01,725.435 1570.34,722.413 1572.74,716.37 C1575.53,709.553 1576.93,701.999 1576.93,693.709 C1576.93,686.349 1574.49,682.669 1569.61,682.669 C1566.2,682.669 1562.63,683.599 1558.91,685.458"/>
<path class="Note" d="M2020.95,938.225 C2031.41,931.639 2039,926.255 2043.73,922.071 C2052.41,914.401 2056.74,906.654 2056.74,898.829 C2056.74,889.687 2050.62,885.116 2038.38,885.116 C2025.52,885.116 2012.12,894.374 1998.17,912.891 C1988.72,925.442 1982.02,937.295 1978.07,948.451 C1982.95,945.275 1988.1,943.687 1993.53,943.687 C1998.64,943.687 2002.71,945.972 2005.73,950.543 C2007.82,953.72 2008.87,959.143 2008.87,966.813 C2008.87,973.708 2005.22,981.804 1997.94,991.101 C1993.45,996.834 1988.45,999.7 1982.95,999.7 C1975.98,999.7 1971.1,998.306 1968.31,995.517 C1964.36,991.566 1962.38,983.741 1962.38,972.042 C1962.38,952.364 1970.32,932.995 1986.2,913.937 C2004.1,892.476 2021.26,881.746 2037.69,881.746 C2050.39,881.746 2059.88,884.729 2066.16,890.694 C2069.8,894.181 2071.62,899.217 2071.62,905.802 C2071.62,913.162 2064.38,921.374 2049.89,930.439 C2042.3,935.242 2032.65,937.837 2020.95,938.225 M1976.56,953.332 C1974.62,959.84 1973.65,966.077 1973.65,972.042 C1973.65,986.22 1975.9,993.309 1980.39,993.309 C1984.65,993.309 1987.99,990.287 1990.39,984.244 C1993.18,977.427 1994.57,969.873 1994.57,961.583 C1994.57,954.223 1992.13,950.543 1987.25,950.543 C1983.84,950.543 1980.28,951.473 1976.56,953.332"/>
<path class="Note" d="M1902.77,855.79 C1903.08,844.091 1909.55,833.71 1922.18,824.645 C1933.41,816.588 1945.69,812.559 1959.02,812.559 C1977.69,812.559 1994.15,819.881 2008.41,834.523 C2017.47,843.898 2022.01,855.519 2022.01,869.387 C2022.01,881.86 2018.67,891.428 2012.01,898.091 C2003.88,906.303 1995.28,910.409 1986.21,910.409 C1980.02,910.409 1975.21,909.014 1971.8,906.225 C1966.23,901.654 1963.44,895.534 1963.44,887.864 C1963.44,877.947 1968.39,868.883 1978.31,860.671 C1986.45,853.93 1994.62,849.514 2002.83,847.423 C2000.66,843.704 1997.91,840.218 1994.58,836.964 C1984.2,826.815 1972.42,821.74 1959.25,821.74 C1945.54,821.74 1934.19,824.723 1925.2,830.688 C1915.91,836.809 1908.43,845.176 1902.77,855.79 M2005.74,853.582 C2001.48,857.533 1997.21,861.755 1992.95,866.249 C1984.59,875.081 1980.4,883.448 1980.4,891.35 C1980.4,899.795 1982.34,904.017 1986.21,904.017 C1989.7,904.017 1994.58,899.253 2000.86,889.723 C2005.89,882.131 2008.41,875.158 2008.41,868.805 C2008.41,863.382 2007.52,858.308 2005.74,853.582"/>
<path class="Note" d="M1902.77,587.916 C1903.08,576.217 1909.55,565.836 1922.18,556.771 C1933.41,548.714 1945.69,544.685 1959.02,544.685 C1977.69,544.685 1994.15,552.007 2008.41,566.649 C2017.47,576.024 2022.01,587.645 2022.01,601.513 C2022.01,613.986 2018.67,623.554 2012.01,630.217 C2003.88,638.429 1995.28,642.535 1986.21,642.535 C1980.02,642.535 1975.21,641.14 1971.8,638.351 C1966.23,633.78 1963.44,627.66 1963.44,619.99 C1963.44,610.073 1968.39,601.009 1978.31,592.797 C1986.45,586.056 1994.62,581.64 2002.83,579.549 C2000.66,575.83 1997.91,572.344 1994.58,569.09 C1984.2,558.941 1972.42,553.866 1959.25,553.866 C1945.54,553.866 1934.19,556.849 1925.2,562.814 C1915.91,568.935 1908.43,577.302 1902.77,587.916 M2005.74,585.708 C2001.48,589.659 1997.21,593.881 1992.95,598.375 C1984.59,607.207 1980.4,615.574 1980.4,623.476 C1980.4,631.921 1982.34,636.143 1986.21,636.143 C1989.7,636.143 1994.58,631.379 2000.86,621.849 C2005.89,614.257 2008.41,607.284 2008.41,600.931 C2008.41,595.508 2007.52,590.434 2005.74,585.708"/>
<path class="Note" d="M1902.77,677.207 C1903.08,665.509 1909.55,655.127 1922.18,646.063 C1933.41,638.005 1945.69,633.977 1959.02,633.977 C1977.69,633.977 1994.15,641.298 2008.41,655.941 C2017.47,665.315 2022.01,676.936 2022.01,690.804 C2022.01,703.277 2018.67,712.845 2012.01,719.508 C2003.88,727.72 1995.28,731.826 1986.21,731.826 C1980.02,731.826 1975.21,730.432 1971.8,727.643 C1966.23,723.072 1963.44,716.951 1963.44,709.281 C1963.44,699.365 1968.39,690.3 1978.31,682.088 C1986.45,675.348 1994.62,670.932 2002.83,668.84 C2000.66,665.121 1997.91,661.635 1994.58,658.381 C1984.2,648.232 1972.42,643.157 1959.25,643.157 C1945.54,643.157 1934.19,646.14 1925.2,652.106 C1915.91,658.226 1908.43,666.593 1902.77,677.207 M2005.74,674.999 C2001.48,678.95 1997.21,683.173 1992.95,687.666 C1984.59,696.498 1980.4,704.865 1980.4,712.768 C1980.4,721.212 1982.34,725.435 1986.21,725.435 C1989.7,725.435 1994.58,720.67 2000.86,711.141 C2005.89,703.548 2008.41,696.576 2008.41,690.223 C2008.41,684.8 2007.52,679.725 2005.74,674.999"/>
<path class="Note" d="M2393.41,945.081 C2393.72,933.383 2400.19,923.001 2412.82,913.937 C2424.05,905.879 2436.33,901.851 2449.66,901.851 C2468.33,901.851 2484.79,909.172 2499.05,923.815 C2508.11,933.189 2512.64,944.81 2512.64,958.678 C2512.64,971.151 2509.31,980.719 2502.65,987.382 C2494.52,995.594 2485.92,999.7 2476.85,999.7 C2470.65,999.7 2465.85,998.306 2462.44,995.517 C2456.86,990.946 2454.07,984.825 2454.07,977.155 C2454.07,967.239 2459.03,958.174 2468.95,949.962 C2477.08,943.222 2485.26,938.806 2493.47,936.714 C2491.3,932.995 2488.55,929.509 2485.22,926.255 C2474.84,916.106 2463.06,911.031 2449.89,911.031 C2436.18,911.031 2424.83,914.014 2415.84,919.98 C2406.54,926.1 2399.07,934.467 2393.41,945.081 M2496.37,942.873 C2492.11,946.824 2487.85,951.047 2483.59,955.54 C2475.22,964.372 2471.04,972.739 2471.04,980.642 C2471.04,989.086 2472.98,993.309 2476.85,993.309 C2480.34,993.309 2485.22,988.544 2491.49,979.015 C2496.53,971.422 2499.05,964.45 2499.05,958.097 C2499.05,952.674 2498.16,947.599 2496.37,942.873"/>
<path class="Note" d="M2504.5,583.965 C2509.07,583.965 2511.36,586.831 2511.36,592.564 C2511.36,596.593 2508.84,602.597 2503.8,610.577 C2499.77,617.007 2497.76,623.283 2497.76,629.403 C2497.76,632.889 2502.83,634.633 2512.98,634.633 C2521.35,634.633 2533.01,630.1 2547.96,621.036 C2532.93,635.524 2519.88,642.767 2508.8,642.767 C2498.81,642.767 2491.83,641.257 2487.88,638.235 C2486.88,637.46 2486.02,636.531 2485.33,635.446 C2481.45,640.172 2474.98,642.535 2465.92,642.535 C2457.24,642.535 2450.58,640.753 2445.93,637.189 C2442.83,634.788 2441.28,630.953 2441.28,625.684 C2441.28,617.317 2446.24,608.175 2456.16,598.259 C2466.77,587.645 2479.05,582.338 2493,582.338 C2496.48,582.338 2499.04,583.616 2500.67,586.173 C2501.98,584.701 2503.26,583.965 2504.5,583.965 M2483.7,630.217 C2483.62,629.597 2483.58,628.977 2483.58,628.357 C2483.58,628.047 2487.53,617.24 2495.44,595.934 C2496.21,593.843 2496.99,592.061 2497.76,590.589 C2494.74,589.969 2491.76,589.659 2488.81,589.659 C2483.39,589.659 2476.18,594.269 2467.2,603.488 C2459.14,611.7 2455.11,618.789 2455.11,624.755 C2455.11,631.34 2458.25,634.633 2464.52,634.633 C2472.12,634.633 2478.51,633.161 2483.7,630.217"/>
<path class="Note" d="M2504.5,762.547 C2509.07,762.547 2511.36,765.414 2511.36,771.147 C2511.36,775.176 2508.84,781.18 2503.8,789.16 C2499.77,795.59 2497.76,801.865 2497.76,807.986 C2497.76,811.472 2502.83,813.215 2512.98,813.215 C2521.35,813.215 2533.01,808.683 2547.96,799.619 C2532.93,814.106 2519.88,821.35 2508.8,821.35 C2498.81,821.35 2491.83,819.839 2487.88,816.818 C2486.88,816.043 2486.02,815.113 2485.33,814.029 C2481.45,818.755 2474.98,821.118 2465.92,821.118 C2457.24,821.118 2450.58,819.336 2445.93,815.772 C2442.83,813.37 2441.28,809.535 2441.28,804.267 C2441.28,795.9 2446.24,786.758 2456.16,776.841 C2466.77,766.227 2479.05,760.92 2493,760.92 C2496.48,760.92 2499.04,762.199 2500.67,764.755 C2501.98,763.283 2503.26,762.547 2504.5,762.547 M2483.7,808.799 C2483.62,808.179 2483.58,807.56 2483.58,806.94 C2483.58,806.63 2487.53,795.822 2495.44,774.517 C2496.21,772.425 2496.99,770.643 2497.76,769.171 C2494.74,768.552 2491.76,768.242 2488.81,768.242 C2483.39,768.242 2476.18,772.851 2467.2,782.071 C2459.14,790.283 2455.11,797.372 2455.11,803.337 C2455.11,809.923 2458.25,813.215 2464.52,813.215 C2472.12,813.215 2478.51,811.743 2483.7,808.799"/>
<path class="Note" d="M2511.59,670.351 C2522.05,663.765 2529.64,658.381 2534.37,654.197 C2543.04,646.527 2547.38,638.78 2547.38,630.955 C2547.38,621.813 2541.26,617.242 2529.02,617.242 C2516.16,617.242 2502.76,626.5 2488.81,645.017 C2479.36,657.568 2472.66,669.421 2468.71,680.577 C2473.59,677.401 2478.74,675.813 2484.16,675.813 C2489.28,675.813 2493.34,678.098 2496.37,682.669 C2498.46,685.846 2499.5,691.269 2499.5,698.939 C2499.5,705.834 2495.86,713.93 2488.58,723.227 C2484.09,728.96 2479.09,731.826 2473.59,731.826 C2466.62,731.826 2461.73,730.432 2458.95,727.643 C2454.99,723.692 2453.02,715.867 2453.02,704.168 C2453.02,684.49 2460.96,665.121 2476.84,646.063 C2494.74,624.602 2511.9,613.872 2528.32,613.872 C2541.03,613.872 2550.52,616.855 2556.8,622.82 C2560.44,626.307 2562.26,631.343 2562.26,637.928 C2562.26,645.288 2555.01,653.5 2540.53,662.565 C2532.93,667.368 2523.29,669.963 2511.59,670.351 M2467.2,685.458 C2465.26,691.966 2464.29,698.203 2464.29,704.168 C2464.29,718.346 2466.54,725.435 2471.03,725.435 C2475.29,725.435 2478.62,722.413 2481.03,716.37 C2483.81,709.553 2485.21,701.999 2485.21,693.709 C2485.21,686.349 2482.77,682.669 2477.89,682.669 C2474.48,682.669 2470.92,683.599 2467.2,685.458"/>
<path class="Note" d="M2929.05,851.839 C2933.62,851.839 2935.91,854.705 2935.91,860.438 C2935.91,864.467 2933.39,870.471 2928.35,878.451 C2924.33,884.881 2922.31,891.157 2922.31,897.277 C2922.31,900.763 2927.39,902.507 2937.54,902.507 C2945.9,902.507 2957.56,897.974 2972.51,888.91 C2957.48,903.398 2944.43,910.641 2933.35,910.641 C2923.36,910.641 2916.38,909.131 2912.43,906.109 C2911.43,905.334 2910.57,904.405 2909.88,903.32 C2906,908.046 2899.53,910.409 2890.47,910.409 C2881.79,910.409 2875.13,908.627 2870.48,905.063 C2867.38,902.662 2865.83,898.827 2865.83,893.558 C2865.83,885.191 2870.79,876.049 2880.71,866.133 C2891.32,855.519 2903.6,850.212 2917.55,850.212 C2921.03,850.212 2923.59,851.49 2925.22,854.047 C2926.53,852.575 2927.81,851.839 2929.05,851.839 M2908.25,898.091 C2908.17,897.471 2908.13,896.851 2908.13,896.231 C2908.13,895.921 2912.08,885.114 2919.99,863.808 C2920.76,861.717 2921.54,859.935 2922.31,858.463 C2919.29,857.843 2916.31,857.533 2913.36,857.533 C2907.94,857.533 2900.73,862.143 2891.75,871.362 C2883.69,879.574 2879.66,886.663 2879.66,892.629 C2879.66,899.214 2882.8,902.507 2889.08,902.507 C2896.67,902.507 2903.06,901.035 2908.25,898.091"/>
<path class="Note" d="M2936.14,581.059 C2946.6,574.474 2954.19,569.09 2958.92,564.906 C2967.59,557.236 2971.93,549.489 2971.93,541.664 C2971.93,532.522 2965.81,527.951 2953.57,527.951 C2940.71,527.951 2927.31,537.209 2913.36,555.725 C2903.91,568.276 2897.21,580.13 2893.26,591.286 C2898.14,588.11 2903.29,586.521 2908.71,586.521 C2913.83,586.521 2917.9,588.807 2920.92,593.378 C2923.01,596.554 2924.05,601.977 2924.05,609.647 C2924.05,616.542 2920.41,624.638 2913.13,633.935 C2908.64,639.668 2903.64,642.535 2898.14,642.535 C2891.17,642.535 2886.29,641.14 2883.5,638.351 C2879.55,634.4 2877.57,626.575 2877.57,614.877 C2877.57,595.198 2885.51,575.83 2901.39,556.771 C2919.29,535.311 2936.45,524.581 2952.87,524.581 C2965.58,524.581 2975.07,527.564 2981.35,533.529 C2984.99,537.015 2986.81,542.051 2986.81,548.637 C2986.81,555.997 2979.56,564.209 2965.08,573.273 C2957.48,578.077 2947.84,580.672 2936.14,581.059 M2891.75,596.167 C2889.81,602.675 2888.84,608.911 2888.84,614.877 C2888.84,629.055 2891.09,636.143 2895.58,636.143 C2899.84,636.143 2903.18,633.122 2905.58,627.079 C2908.37,620.261 2909.76,612.707 2909.76,604.418 C2909.76,597.058 2907.32,593.378 2902.44,593.378 C2899.03,593.378 2895.47,594.307 2891.75,596.167"/>
<path class="Note" d="M2936.14,491.768 C2946.6,485.183 2954.19,479.798 2958.92,475.615 C2967.59,467.945 2971.93,460.197 2971.93,452.373 C2971.93,443.231 2965.81,438.66 2953.57,438.66 C2940.71,438.66 2927.31,447.918 2913.36,466.434 C2903.91,478.985 2897.21,490.838 2893.26,501.995 C2898.14,498.818 2903.29,497.23 2908.71,497.23 C2913.83,497.23 2917.9,499.515 2920.92,504.086 C2923.01,507.263 2924.05,512.686 2924.05,520.356 C2924.05,527.251 2920.41,535.347 2913.13,544.644 C2908.64,550.377 2903.64,553.244 2898.14,553.244 C2891.17,553.244 2886.29,551.849 2883.5,549.06 C2879.55,545.109 2877.57,537.284 2877.57,525.585 C2877.57,505.907 2885.51,486.539 2901.39,467.48 C2919.29,446.02 2936.45,435.29 2952.87,435.29 C2965.58,435.29 2975.07,438.272 2981.35,444.238 C2984.99,447.724 2986.81,452.76 2986.81,459.345 C2986.81,466.705 2979.56,474.917 2965.08,483.982 C2957.48,488.785 2947.84,491.381 2936.14,491.768 M2891.75,506.875 C2889.81,513.383 2888.84,519.62 2888.84,525.585 C2888.84,539.763 2891.09,546.852 2895.58,546.852 C2899.84,546.852 2903.18,543.831 2905.58,537.788 C2908.37,530.97 2909.76,523.416 2909.76,515.126 C2909.76,507.766 2907.32,504.086 2902.44,504.086 C2899.03,504.086 2895.47,505.016 2891.75,506.875"/>
<path class="Note" d="M3302.42,910.409 C3298.62,910.409 3296.73,906.342 3296.73,898.207 L3296.73,864.157 C3296.73,860.903 3298.31,859.276 3301.49,859.276 C3302.88,859.276 3303.93,859.392 3304.63,859.625 C3307.11,855.286 3311.17,851.645 3316.83,848.701 C3324.73,844.595 3332.75,842.542 3340.89,842.542 C3347.32,842.542 3350.53,844.943 3350.53,849.747 C3350.53,853.776 3348.36,855.79 3344.02,855.79 C3340.92,855.79 3337.98,855.093 3335.19,853.698 C3332.71,852.458 3330.08,851.839 3327.29,851.839 C3322.49,851.839 3315.4,854.976 3306.02,861.252 C3307.34,867.527 3308,874.848 3308,883.216 C3308,901.345 3306.14,910.409 3302.42,910.409"/>
<path class="Note" d="M3235.61,587.916 C3235.92,576.217 3242.39,565.836 3255.01,556.771 C3266.25,548.714 3278.53,544.685 3291.85,544.685 C3310.52,544.685 3326.99,552.007 3341.24,566.649 C3350.31,576.024 3354.84,587.645 3354.84,601.513 C3354.84,613.986 3351.51,623.554 3344.85,630.217 C3336.71,638.429 3328.11,642.535 3319.05,642.535 C3312.85,642.535 3308.05,641.14 3304.64,638.351 C3299.06,633.78 3296.27,627.66 3296.27,619.99 C3296.27,610.073 3301.23,601.009 3311.14,592.797 C3319.28,586.056 3327.45,581.64 3335.66,579.549 C3333.5,575.83 3330.75,572.344 3327.41,569.09 C3317.03,558.941 3305.26,553.866 3292.09,553.866 C3278.37,553.866 3267.02,556.849 3258.04,562.814 C3248.74,568.935 3241.26,577.302 3235.61,587.916 M3338.57,585.708 C3334.31,589.659 3330.05,593.881 3325.79,598.375 C3317.42,607.207 3313.24,615.574 3313.24,623.476 C3313.24,631.921 3315.17,636.143 3319.05,636.143 C3322.53,636.143 3327.41,631.379 3333.69,621.849 C3338.72,614.257 3341.24,607.284 3341.24,600.931 C3341.24,595.508 3340.35,590.434 3338.57,585.708"/>
<path class="Note" d="M3353.78,491.768 C3364.24,485.183 3371.84,479.798 3376.56,475.615 C3385.24,467.945 3389.58,460.197 3389.58,452.373 C3389.58,443.231 3383.46,438.66 3371.22,438.66 C3358.36,438.66 3344.95,447.918 3331.01,466.434 C3321.56,478.985 3314.85,490.838 3310.9,501.995 C3315.78,498.818 3320.94,497.23 3326.36,497.23 C3331.47,497.23 3335.54,499.515 3338.56,504.086 C3340.65,507.263 3341.7,512.686 3341.7,520.356 C3341.7,527.251 3338.06,535.347 3330.77,544.644 C3326.28,550.377 3321.28,553.244 3315.78,553.244 C3308.81,553.244 3303.93,551.849 3301.14,549.06 C3297.19,545.109 3295.21,537.284 3295.21,525.585 C3295.21,505.907 3303.16,486.539 3319.04,467.48 C3336.93,446.02 3354.09,435.29 3370.52,435.29 C3383.22,435.29 3392.72,438.272 3398.99,444.238 C3402.63,447.724 3404.45,452.76 3404.45,459.345 C3404.45,466.705 3397.21,474.917 3382.72,483.982 C3375.13,488.785 3365.48,491.381 3353.78,491.768 M3309.39,506.875 C3307.46,513.383 3306.49,519.62 3306.49,525.585 C3306.49,539.763 3308.73,546.852 3313.23,546.852 C3317.49,546.852 3320.82,543.831 3323.22,537.788 C3326.01,530.97 3327.4,523.416 3327.4,515.126 C3327.4,507.766 3324.96,504.086 3320.08,504.086 C3316.67,504.086 3313.11,505.016 3309.39,506.875"/>
<path class="Note" d="M3353.78,670.351 C3364.24,663.765 3371.84,658.381 3376.56,654.197 C3385.24,646.527 3389.58,638.78 3389.58,630.955 C3389.58,621.813 3383.46,617.242 3371.22,617.242 C3358.36,617.242 3344.95,626.5 3331.01,645.017 C3321.56,657.568 3314.85,669.421 3310.9,680.577 C3315.78,677.401 3320.94,675.813 3326.36,675.813 C3331.47,675.813 3335.54,678.098 3338.56,682.669 C3340.65,685.846 3341.7,691.269 3341.7,698.939 C3341.7,705.834 3338.06,713.93 3330.77,723.227 C3326.28,728.96 3321.28,731.826 3315.78,731.826 C3308.81,731.826 3303.93,730.432 3301.14,727.643 C3297.19,723.692 3295.21,715.867 3295.21,704.168 C3295.21,684.49 3303.16,665.121 3319.04,646.063 C3336.93,624.602 3354.09,613.872 3370.52,613.872 C3383.22,613.872 3392.72,616.855 3398.99,622.82 C3402.63,626.307 3404.45,631.343 3404.45,637.928 C3404.45,645.288 3397.21,653.5 3382.72,662.565 C3375.13,667.368 3365.48,669.963 3353.78,670.351 M3309.39,685.458 C3307.46,691.966 3306.49,698.203 3306.49,704.168 C3306.49,718.346 3308.73,725.435 3313.23,725.435 C3317.49,725.435 3320.82,722.413 3323.22,716.37 C3326.01,709.553 3327.4,701.999 3327.4,693.709 C3327.4,686.349 3324.96,682.669 3320.08,682.669 C3316.67,682.669 3313.11,683.599 3309.39,685.458"/>
<path class="Note" d="M3850.14,581.059 C3860.6,574.474 3868.19,569.09 3872.92,564.906 C3881.6,557.236 3885.94,549.489 3885.94,541.664 C3885.94,532.522 3879.82,527.951 3867.57,527.951 C3854.71,527.951 3841.31,537.209 3827.37,555.725 C3817.91,568.276 3811.21,580.13 3807.26,591.286 C3812.14,588.11 3817.29,586.521 3822.72,586.521 C3827.83,586.521 3831.9,588.807 3834.92,593.378 C3837.01,596.554 3838.06,601.977 3838.06,609.647 C3838.06,616.542 3834.42,624.638 3827.13,633.935 C3822.64,639.668 3817.64,642.535 3812.14,642.535 C3805.17,642.535 3800.29,641.14 3797.5,638.351 C3793.55,634.4 3791.57,626.575 3791.57,614.877 C3791.57,595.198 3799.51,575.83 3815.4,556.771 C3833.29,535.311 3850.45,524.581 3866.88,524.581 C3879.58,524.581 3889.07,527.564 3895.35,533.529 C3898.99,537.015 3900.81,542.051 3900.81,548.637 C3900.81,555.997 3893.57,564.209 3879.08,573.273 C3871.49,578.077 3861.84,580.672 3850.14,581.059 M3805.75,596.167 C3803.81,602.675 3802.84,608.911 3802.84,614.877 C3802.84,629.055 3805.09,636.143 3809.59,636.143 C3813.85,636.143 3817.18,633.122 3819.58,627.079 C3822.37,620.261 3823.76,612.707 3823.76,604.418 C3823.76,597.058 3821.32,593.378 3816.44,593.378 C3813.03,593.378 3809.47,594.307 3805.75,596.167"/>
<path class="Note" d="M3731.97,855.79 C3732.28,844.091 3738.74,833.71 3751.37,824.645 C3762.61,816.588 3774.89,812.559 3788.21,812.559 C3806.88,812.559 3823.35,819.881 3837.6,834.523 C3846.67,843.898 3851.2,855.519 3851.2,869.387 C3851.2,881.86 3847.87,891.428 3841.2,898.091 C3833.07,906.303 3824.47,910.409 3815.4,910.409 C3809.21,910.409 3804.4,909.014 3800.99,906.225 C3795.42,901.654 3792.63,895.534 3792.63,887.864 C3792.63,877.947 3797.59,868.883 3807.5,860.671 C3815.64,853.93 3823.81,849.514 3832.02,847.423 C3829.85,843.704 3827.1,840.218 3823.77,836.964 C3813.39,826.815 3801.61,821.74 3788.44,821.74 C3774.73,821.74 3763.38,824.723 3754.39,830.688 C3745.1,836.809 3737.62,845.176 3731.97,855.79 M3834.93,853.582 C3830.67,857.533 3826.41,861.755 3822.14,866.249 C3813.78,875.081 3809.59,883.448 3809.59,891.35 C3809.59,899.795 3811.53,904.017 3815.4,904.017 C3818.89,904.017 3823.77,899.253 3830.05,889.723 C3835.08,882.131 3837.6,875.158 3837.6,868.805 C3837.6,863.382 3836.71,858.308 3834.93,853.582"/>
<path class="Note" d="M3798.78,821.118 C3794.98,821.118 3793.08,817.05 3793.08,808.916 L3793.08,774.866 C3793.08,771.612 3794.67,769.985 3797.85,769.985 C3799.24,769.985 3800.29,770.101 3800.99,770.333 C3803.46,765.995 3807.53,762.354 3813.19,759.41 C3821.09,755.304 3829.11,753.25 3837.24,753.25 C3843.67,753.25 3846.89,755.652 3846.89,760.456 C3846.89,764.484 3844.72,766.499 3840.38,766.499 C3837.28,766.499 3834.34,765.801 3831.55,764.407 C3829.07,763.167 3826.44,762.547 3823.65,762.547 C3818.84,762.547 3811.75,765.685 3802.38,771.96 C3803.7,778.236 3804.36,785.557 3804.36,793.924 C3804.36,812.053 3802.5,821.118 3798.78,821.118"/>
<path class="Note" d="M3850.14,670.351 C3860.6,663.765 3868.19,658.381 3872.92,654.197 C3881.6,646.527 3885.94,638.78 3885.94,630.955 C3885.94,621.813 3879.82,617.242 3867.57,617.242 C3854.71,617.242 3841.31,626.5 3827.37,645.017 C3817.91,657.568 3811.21,669.421 3807.26,680.577 C3812.14,677.401 3817.29,675.813 3822.72,675.813 C3827.83,675.813 3831.9,678.098 3834.92,682.669 C3837.01,685.846 3838.06,691.269 3838.06,698.939 C3838.06,705.834 3834.42,713.93 3827.13,723.227 C3822.64,728.96 3817.64,731.826 3812.14,731.826 C3805.17,731.826 3800.29,730.432 3797.5,727.643 C3793.55,723.692 3791.57,715.867 3791.57,704.168 C3791.57,684.49 3799.51,665.121 3815.4,646.063 C3833.29,624.602 3850.45,613.872 3866.88,613.872 C3879.58,613.872 3889.07,616.855 3895.35,622.82 C3898.99,626.307 3900.81,631.343 3900.81,637.928 C3900.81,645.288 3893.57,653.5 3879.08,662.565 C3871.49,667.368 3861.84,669.963 3850.14,670.351 M3805.75,685.458 C3803.81,691.966 3802.84,698.203 3802.84,704.168 C3802.84,718.346 3805.09,725.435 3809.59,725.435 C3813.85,725.435 3817.18,722.413 3819.58,716.37 C3822.37,709.553 3823.76,701.999 3823.76,693.709 C3823.76,686.349 3821.32,682.669 3816.44,682.669 C3813.03,682.669 3809.47,683.599 3805.75,685.458"/>
<path class="Clef" transform="matrix(2.3811,0,0,2.3811,212.156,2076.38)" d="M25.4,-25.1 C17.8,-25.1 11.7,-20.7 11.6,-20.7 C5.8,-16.4 3.5,-11.3 2.6,-7.8 C2.1,-6 1.9,-4.2 1.9,-2.5 C1.9,-0.1 2.3,2.1 3.2,4 C4.4,6.7 6.7,8.6 9.7,9.6 C10.9,10 12.2,10.2 13.5,10.2 C15.7,10.2 18,9.6 19.9,8.5 C23,6.8 24.9,3.2 24.9,-0.7 C24.9,-4.2 23.1,-7.4 20.1,-9.3 C18,-10.7 16,-11.1 14.3,-11.1 C13.1,-11.1 12,-10.9 11.1,-10.6 C10.1,-10.2 8.4,-9.2 7.6,-8.5 C7.9,-10.4 9.1,-13.3 10.2,-14.9 C11.3,-16.5 13.5,-18.5 15.2,-19.4 C17.7,-20.8 20.9,-21.4 24.4,-21.4 C34.6,-21.4 39.6,-13.2 39.6,3.6 C39.6,12.9 36.1,21.8 33.1,27.7 C29.8,34.3 25.4,40.6 21.5,44.1 C11.1,53.6 1.3,58.1 1.2,58.1 C1.2,58.1 -0.3,59 0.1,60.5 C0.4,61.5 1.3,61.7 1.9,61.7 C2,61.7 2.3,61.6 2.4,61.6 C2.5,61.6 13.9,56.9 23,49.8 C28.1,46.1 32.7,42.1 36.7,37.8 C40.3,33.9 43.4,29.7 45.9,25.5 C50.3,18 52.8,10.2 52.8,3.5 C52.8,-4.8 50.6,-11.7 46.5,-16.6 C41.8,-22.2 34.7,-25.1 25.4,-25.1 M56.8,-12.4 C56.8,-9.6 59,-7.4 61.6,-7.4 C64.2,-7.4 66.4,-9.6 66.4,-12.4 C66.4,-15.2 64.2,-17.5 61.6,-17.5 C59,-17.5 56.8,-15.2 56.8,-12.4 M56.8,12.3 C56.8,15.1 59,17.4 61.6,17.4 C64.2,17.4 66.4,15.1 66.4,12.3 C66.4,9.5 64.2,7.2 61.6,7.2 C59,7.2 56.8,9.5 56.8,12.3"/>
<path class="Clef" transform="matrix(2.3811,0,0,2.3811,212.156,1570.39)" d="M63.37,-5.89004 C62.14,-11.32 59.5,-15.14 58.72,-16.1801 C55.5301,-20.45 51.52,-23.3 46.8301,-24.65 C43.72,-25.54 40.72,-25.65 38.3,-25.47 C37.2601,-31.4801 36.2601,-37.3601 35.35,-42.8101 C40.79,-48.97 44.42,-54.77 46.69,-59.07 C50.1601,-65.65 51.3101,-70.2301 51.3601,-70.4301 C53.0801,-75.64 53.44,-83.34 52.34,-91.55 C51.3301,-99.1 49.24,-105.81 46.89,-109.06 C45.8601,-110.49 44.8101,-111.22 43.77,-111.22 C42.55,-111.22 40.04,-109.98 37.15,-107.21 C34.85,-105.01 31.5801,-101.12 29.02,-95.1101 C26.02,-88.05 25.8101,-78.5601 26.1601,-71.84 C26.54,-64.57 27.65,-58.8801 27.6601,-58.8301 C27.6801,-58.74 27.94,-57.24 28.39,-54.67 C28.1601,-54.44 27.92,-54.22 27.67,-53.9801 C26.6301,-52.9801 25.44,-51.84 24.0601,-50.4601 C23.2,-49.6 22.25,-48.69 21.25,-47.72 C12.79,-39.57 0,-27.25 0,-8.1 C0,-3.4 0.9,1.01992 2.68008,5.02998 C4.27002,8.62998 6.57002,11.91 9.5,14.78 C17.2301,22.33 27.82,25.5399 34.8801,25.38 C37.8301,25.31 40.4601,25.0699 42.85,24.6199 C44.6801,34.2199 45.82,41.25 45.8601,46.5899 C45.9,53.1 44.25,57.0699 40.35,59.8399 C37.92,61.5699 35.1101,62.5199 32.0101,62.6699 C29.42,62.7899 27.1601,62.3199 25.7301,61.91 L25.72,61.91 C25.72,61.91 25.4301,61.83 25.42,61.63 C25.4101,61.45 25.7601,61.4 25.77,61.4 L25.79,61.4 C27.7101,60.96 31.2801,59.73 33.64,56.43 C35.44,53.91 36.3101,49.2899 34.47,45.35 C33.3601,42.96 30.85,40.01 25.2301,39.56 C22.74,39.36 20.47,39.8699 18.47,41.0699 C16.6601,42.15 15.1601,43.7899 14.1101,45.7899 C11.65,50.4899 12.1101,56.2199 15.24,60.06 C18.2,63.68 22.82,65.9899 28.25,66.5699 C29.1,66.66 29.95,66.7 30.8,66.7 C31.5101,66.7 32.22,66.6699 32.92,66.61 C31.72,66.9399 30.64,67.4899 29.77,68.25 C28.2801,69.5399 27.44,71.38 27.44,73.41 C27.44,75.28 28.0601,76.65 29.55,78.0399 C28.4101,78.5 27.55,78.98 26.79,79.56 C25.25,80.73 24.34,82.46 24.34,84.1899 C24.34,87.45 27.3,89.63 31.72,89.63 C37.1301,89.63 40.9101,86.63 40.9101,82.35 C40.9101,80.1199 39.9101,78.18 38.0801,76.83 C41.0101,75.6199 42.37,73.9399 42.37,71.56 C42.39,70.05 41.69,68.61 40.49,67.6899 C39.2801,66.7399 37.62,66.2399 35.69,66.2399 L35.5101,66.2399 C38.2801,65.7 40.92,64.7 43.2101,63.28 C46.87,60.71 48.99,56.73 49.67,51.1 C50.2301,46.46 49.84,40.55 48.44,32.48 C48.0801,30.3899 47.54,27.36 46.8801,23.6 C52.6301,21.68 56.79,18.11 60.5601,12.26 C63.85,6.51992 64.8,0.419922 63.37,-5.89004 M32.39,87.5399 C30.19,87.5399 28.7301,86.1199 28.7301,84.01 C28.7301,82.11 29.65,80.5 31.32,79.4699 C31.6801,79.66 31.77,79.71 32.1101,79.88 C33.3,80.48 33.3,80.48 33.55,80.63 L33.5601,80.6399 C35.47,81.73 36.25,82.76 36.25,84.18 C36.24,86.0899 34.59,87.5399 32.39,87.5399 M38.3101,71.63 C38.3101,73.2699 37.7301,74.3399 36.1801,75.53 C34.74,74.78 34.35,74.56 33.9801,74.3399 L33.8801,74.28 C32.3301,73.3399 31.85,72.66 31.85,71.4 C31.85,69.6 33.2301,68.3399 35.19,68.3399 C37.17,68.35 38.3101,69.55 38.3101,71.63 M33.15,-83.8101 C34.9301,-89.55 37.67,-92.8 39.6601,-94.5301 C41.4101,-96.05 43.0601,-96.7601 43.9801,-96.7601 C44.12,-96.7601 44.24,-96.74 44.34,-96.7101 C44.8,-96.57 45.3301,-96 45.8,-95.1301 C48.1101,-90.84 47.37,-84.1301 46.0301,-79.69 C44.4,-74.29 41.4801,-68.6801 32.69,-59.0601 C32.52,-60.17 32.3601,-61.22 32.2101,-62.2 C30.95,-70.49 31.27,-77.7601 33.15,-83.8101 M29.15,20.31 C24.5101,19.0899 20.0801,16.5899 16.32,13.0899 C15.0101,11.86 13.14,9.68994 11.67,6.3 C10.3101,3.13994 9.65,-0.290039 9.7,-3.88008 C9.77002,-8.57002 11.0801,-13.39 13.59,-18.1801 C16.5101,-23.7601 21.07,-29.29 27.1301,-34.62 C28.5801,-35.9 29.95,-37.1801 31.24,-38.4601 C32,-34.2 32.8301,-29.5101 33.7101,-24.6301 C29.8601,-23.3601 25.1101,-20.2101 22,-14.5601 C18.47,-7.99004 18.6101,-2.47002 19.34,1.00996 C20.2801,5.46992 22.8101,9.22998 26.27,11.3199 C27.2,11.88 31.3301,14.01 33.17,13.43 C33.54,13.31 33.8101,13.0899 33.95,12.76 C34.4601,11.5899 33.44,10.95 31.8801,9.98994 C31.2801,9.61992 30.6101,9.2 29.8801,8.66992 C26.5601,6.17998 25.1101,1.72998 26.1801,-2.65 C26.7601,-5.05 28.04,-7.21006 29.8801,-8.91006 C31.55,-10.4601 33.59,-11.5601 35.97,-12.2 C38.0101,-0.960059 40.07,10.1899 41.7101,18.55 C41.84,19.2399 41.9801,19.91 42.1101,20.58 C37.7101,21.51 33.37,21.4199 29.15,20.31 M54.9,10.1 C53.7301,13.28 51.27,17.35 46.14,19.41 C46.07,18.9899 45.99,18.56 45.9101,18.13 C44.3601,9.36992 42.4301,-1.61006 40.47,-12.87 C50.82,-13.35 55.09,-5.91006 55.9801,-1.08008 C56.45,1.45 56.45,5.88994 54.9,10.1"/>
<path class="KeySig" transform="matrix(2.3811,0,0,2.3811,429.785,2195.43)" d="M20.1,-7.9 C19.5,-11.8 17.1,-15.5 12,-15.5 C7,-15.5 4.1,-12.4 3.6,-11.8 L4,-43.9 C4,-44.7 3.4,-45.3 2.6,-45.3 L1.4,-45.3 C0.6,-45.3 0,-44.7 0,-43.9 L0.5,16.2 C0.5,17 1.1,17.6 1.9,17.6 C2.1,17.6 2.5,17.5 2.7,17.4 C3.1,17.2 9.6,14 15,7.9 C18.8,3.6 20.3,-1.3 20.3,-5.4 C20.3,-6.3 20.2,-7.1 20.1,-7.9 M13.2,-4 C13.2,-2.5 12.8,2.1 10.3,5.9 C8.6,8.5 5.2,11.2 3.3,12.7 L3.6,-6.8 C3.8,-7.7 5.3,-10.6 9.3,-10.6 C12.9,-10.6 13.2,-7.2 13.2,-5.1 L13.2,-4 "/>
<path class="KeySig" transform="matrix(2.3811,0,0,2.3811,429.785,1510.87)" d="M20.1,-7.9 C19.5,-11.8 17.1,-15.5 12,-15.5 C7,-15.5 4.1,-12.4 3.6,-11.8 L4,-43.9 C4,-44.7 3.4,-45.3 2.6,-45.3 L1.4,-45.3 C0.6,-45.3 0,-44.7 0,-43.9 L0.5,16.2 C0.5,17 1.1,17.6 1.9,17.6 C2.1,17.6 2.5,17.5 2.7,17.4 C3.1,17.2 9.6,14 15,7.9 C18.8,3.6 20.3,-1.3 20.3,-5.4 C20.3,-6.3 20.2,-7.1 20.1,-7.9 M13.2,-4 C13.2,-2.5 12.8,2.1 10.3,5.9 C8.6,8.5 5.2,11.2 3.3,12.7 L3.6,-6.8 C3.8,-7.7 5.3,-10.6 9.3,-10.6 C12.9,-10.6 13.2,-7.2 13.2,-5.1 L13.2,-4 "/>
<path class="FiguredBass" d="M1020.53,2444.42 C1019.85,2445.16 1018.95,2445.53 1017.84,2445.53 C1016.72,2445.53 1015.81,2445.15 1015.1,2444.37 C1014.39,2443.6 1014.03,2442.72 1014.03,2441.73 L1014.03,2428.46 L1000.77,2428.46 C999.652,2428.46 998.74,2428.08 998.029,2427.3 C997.318,2426.53 996.962,2425.65 996.962,2424.66 C996.962,2423.67 997.318,2422.79 998.029,2422.01 C998.74,2421.24 999.652,2420.85 1000.77,2420.85 L1014.03,2420.85 L1014.03,2407.59 C1014.03,2406.6 1014.39,2405.72 1015.1,2404.94 C1015.81,2404.17 1016.72,2403.78 1017.84,2403.78 C1018.95,2403.78 1019.86,2404.17 1020.57,2404.94 C1021.28,2405.72 1021.64,2406.6 1021.64,2407.59 L1021.64,2420.85 L1034.91,2420.85 C1036.02,2420.85 1036.93,2421.24 1037.64,2422.01 C1038.35,2422.79 1038.71,2423.67 1038.71,2424.66 C1038.71,2425.65 1038.35,2426.53 1037.64,2427.3 C1036.93,2428.08 1036.02,2428.46 1034.91,2428.46 L1021.64,2428.46 L1021.64,2441.73 C1021.64,2442.72 1021.27,2443.62 1020.53,2444.42 M1073.95,2390.15 C1069.37,2390.15 1066.33,2391.99 1064.81,2395.67 C1063.3,2399.35 1062.54,2404.56 1062.54,2411.3 L1062.54,2422.25 C1065.76,2420.95 1068.54,2420.27 1070.89,2420.21 C1078.93,2420.21 1085.25,2421.98 1089.86,2425.54 C1094.47,2429.1 1096.77,2434.38 1096.77,2441.4 C1096.77,2448.42 1094.44,2453.73 1089.77,2457.31 C1085.1,2460.9 1078.81,2462.7 1070.89,2462.7 C1062.79,2462.7 1056.45,2458.94 1051.87,2451.42 C1047.29,2443.91 1045,2434.99 1045,2424.66 C1045,2414.39 1047.66,2405.49 1052.98,2397.94 C1058.3,2390.39 1065.29,2386.62 1073.95,2386.62 C1079.64,2386.62 1084.56,2388.06 1088.7,2390.94 C1092.85,2393.81 1094.92,2397.6 1094.92,2402.3 C1094.92,2405.02 1093.93,2407.37 1091.95,2409.35 C1089.97,2411.33 1087.6,2412.32 1084.85,2412.32 C1082.1,2412.32 1079.73,2411.33 1077.75,2409.35 C1075.77,2407.37 1074.79,2405.02 1074.79,2402.3 C1074.79,2399.64 1075.77,2397.29 1077.75,2395.25 C1078.43,2394.45 1079.39,2393.76 1080.63,2393.21 C1080.32,2392.4 1079.7,2391.79 1078.77,2391.35 C1077.41,2390.55 1075.81,2390.15 1073.95,2390.15 M1078.5,2428.09 C1077.38,2425.18 1074.94,2423.73 1071.17,2423.73 C1067.39,2423.73 1065.06,2425.18 1064.16,2428.09 C1063.27,2431 1062.82,2435.42 1062.82,2441.36 C1062.82,2448.35 1063.27,2453.05 1064.16,2455.46 C1065.06,2457.87 1067.39,2459.08 1071.17,2459.08 C1074.94,2459.08 1077.38,2457.62 1078.5,2454.72 C1079.61,2451.81 1080.17,2447.37 1080.17,2441.4 C1080.17,2435.44 1079.61,2431 1078.5,2428.09"/>
<path class="FiguredBass" d="M1564.59,2390.15 C1560.01,2390.15 1556.97,2391.99 1555.45,2395.67 C1553.93,2399.35 1553.18,2404.56 1553.18,2411.3 L1553.18,2422.25 C1556.39,2420.95 1559.18,2420.27 1561.53,2420.21 C1569.57,2420.21 1575.89,2421.98 1580.5,2425.54 C1585.11,2429.1 1587.41,2434.38 1587.41,2441.4 C1587.41,2448.42 1585.08,2453.73 1580.41,2457.31 C1575.74,2460.9 1569.44,2462.7 1561.53,2462.7 C1553.42,2462.7 1547.08,2458.94 1542.51,2451.42 C1537.93,2443.91 1535.64,2434.99 1535.64,2424.66 C1535.64,2414.39 1538.3,2405.49 1543.62,2397.94 C1548.94,2390.39 1555.93,2386.62 1564.59,2386.62 C1570.28,2386.62 1575.2,2388.06 1579.34,2390.94 C1583.48,2393.81 1585.55,2397.6 1585.55,2402.3 C1585.55,2405.02 1584.57,2407.37 1582.59,2409.35 C1580.61,2411.33 1578.24,2412.32 1575.49,2412.32 C1572.74,2412.32 1570.37,2411.33 1568.39,2409.35 C1566.41,2407.37 1565.42,2405.02 1565.42,2402.3 C1565.42,2399.64 1566.41,2397.29 1568.39,2395.25 C1569.07,2394.45 1570.03,2393.76 1571.27,2393.21 C1570.96,2392.4 1570.34,2391.79 1569.41,2391.35 C1568.05,2390.55 1566.44,2390.15 1564.59,2390.15 M1569.13,2428.09 C1568.02,2425.18 1565.58,2423.73 1561.8,2423.73 C1558.03,2423.73 1555.7,2425.18 1554.8,2428.09 C1553.9,2431 1553.46,2435.42 1553.46,2441.36 C1553.46,2448.35 1553.9,2453.05 1554.8,2455.46 C1555.7,2457.87 1558.03,2459.08 1561.8,2459.08 C1565.58,2459.08 1568.02,2457.62 1569.13,2454.72 C1570.25,2451.81 1570.8,2447.37 1570.8,2441.4 C1570.8,2435.44 1570.25,2431 1569.13,2428.09"/>
<path class="FiguredBass" d="M1982.23,2390.15 C1977.66,2390.15 1974.61,2391.99 1973.09,2395.67 C1971.58,2399.35 1970.82,2404.56 1970.82,2411.3 L1970.82,2422.25 C1974.04,2420.95 1976.82,2420.27 1979.17,2420.21 C1987.21,2420.21 1993.54,2421.98 1998.14,2425.54 C2002.75,2429.1 2005.05,2434.38 2005.05,2441.4 C2005.05,2448.42 2002.72,2453.73 1998.05,2457.31 C1993.38,2460.9 1987.09,2462.7 1979.17,2462.7 C1971.07,2462.7 1964.73,2458.94 1960.15,2451.42 C1955.58,2443.91 1953.29,2434.99 1953.29,2424.66 C1953.29,2414.39 1955.95,2405.49 1961.27,2397.94 C1966.58,2390.39 1973.57,2386.62 1982.23,2386.62 C1987.92,2386.62 1992.84,2388.06 1996.98,2390.94 C2001.13,2393.81 2003.2,2397.6 2003.2,2402.3 C2003.2,2405.02 2002.21,2407.37 2000.23,2409.35 C1998.25,2411.33 1995.89,2412.32 1993.13,2412.32 C1990.38,2412.32 1988.02,2411.33 1986.04,2409.35 C1984.06,2407.37 1983.07,2405.02 1983.07,2402.3 C1983.07,2399.64 1984.06,2397.29 1986.04,2395.25 C1986.72,2394.45 1987.67,2393.76 1988.91,2393.21 C1988.6,2392.4 1987.98,2391.79 1987.06,2391.35 C1985.7,2390.55 1984.09,2390.15 1982.23,2390.15 M1986.78,2428.09 C1985.66,2425.18 1983.22,2423.73 1979.45,2423.73 C1975.68,2423.73 1973.34,2425.18 1972.44,2428.09 C1971.55,2431 1971.1,2435.42 1971.1,2441.36 C1971.1,2448.35 1971.55,2453.05 1972.44,2455.46 C1973.34,2457.87 1975.68,2459.08 1979.45,2459.08 C1983.22,2459.08 1985.66,2457.62 1986.78,2454.72 C1987.89,2451.81 1988.45,2447.37 1988.45,2441.4 C1988.45,2435.44 1987.89,2431 1986.78,2428.09"/>
<path class="FiguredBass" d="M1959.6,2492.37 C1959.6,2492.37 1961.08,2492.59 1964.05,2493.02 C1965.35,2493.21 1966.8,2493.39 1968.41,2493.58 C1972.68,2494.07 1976.79,2494.32 1980.75,2494.32 C1984.71,2494.32 1988.88,2494.07 1993.27,2493.58 C1995,2493.39 1996.52,2493.21 1997.82,2493.02 L2002.36,2492.37 C2003.29,2492.37 2003.99,2492.68 2004.45,2493.3 C2004.92,2493.92 2004.87,2494.41 2004.31,2494.78 C1994.85,2504.25 1981.52,2508.98 1964.33,2508.98 C1963.65,2508.98 1963.04,2509.23 1962.52,2509.72 C1961.99,2510.21 1961.73,2510.83 1961.73,2511.58 L1961.73,2526.14 C1966.12,2521.81 1971.44,2519.65 1977.69,2519.65 C1986.72,2519.65 1993.69,2521.67 1998.61,2525.72 C2003.52,2529.77 2005.98,2535.91 2005.98,2544.14 C2005.98,2551.13 2003.2,2556.93 1997.63,2561.53 C1992.07,2566.14 1985.42,2568.45 1977.69,2568.45 C1971.01,2568.45 1965.21,2566.93 1960.29,2563.9 C1955.37,2560.87 1952.92,2556.66 1952.92,2551.28 C1952.92,2548.56 1953.91,2546.2 1955.88,2544.19 C1957.86,2542.18 1960.23,2541.17 1962.98,2541.17 C1965.73,2541.17 1968.07,2542.16 1969.99,2544.14 C1971.9,2546.12 1972.86,2548.5 1972.86,2551.28 C1972.86,2552.52 1971.84,2553.86 1969.8,2555.32 C1967.76,2556.77 1966.74,2558.12 1966.74,2559.35 C1966.74,2563.06 1970.39,2564.92 1977.69,2564.92 C1984.8,2564.92 1988.36,2557.99 1988.36,2544.14 C1988.36,2530.78 1984.8,2524.07 1977.69,2524.01 C1971.32,2524.01 1966.86,2525.31 1964.33,2527.9 C1961.79,2530.5 1960.21,2531.8 1959.6,2531.8 C1958.05,2531.8 1957.31,2531.03 1957.37,2529.48 L1957.37,2494.78 C1957.37,2494.1 1957.59,2493.53 1958.02,2493.07 C1958.45,2492.6 1958.98,2492.37 1959.6,2492.37"/>
<path class="FiguredBass" d="M2897.42,2390.15 C2892.84,2390.15 2889.8,2391.99 2888.28,2395.67 C2886.77,2399.35 2886.01,2404.56 2886.01,2411.3 L2886.01,2422.25 C2889.23,2420.95 2892.01,2420.27 2894.36,2420.21 C2902.4,2420.21 2908.72,2421.98 2913.33,2425.54 C2917.94,2429.1 2920.24,2434.38 2920.24,2441.4 C2920.24,2448.42 2917.91,2453.73 2913.24,2457.31 C2908.57,2460.9 2902.28,2462.7 2894.36,2462.7 C2886.26,2462.7 2879.92,2458.94 2875.34,2451.42 C2870.76,2443.91 2868.48,2434.99 2868.48,2424.66 C2868.48,2414.39 2871.14,2405.49 2876.45,2397.94 C2881.77,2390.39 2888.76,2386.62 2897.42,2386.62 C2903.11,2386.62 2908.03,2388.06 2912.17,2390.94 C2916.32,2393.81 2918.39,2397.6 2918.39,2402.3 C2918.39,2405.02 2917.4,2407.37 2915.42,2409.35 C2913.44,2411.33 2911.07,2412.32 2908.32,2412.32 C2905.57,2412.32 2903.2,2411.33 2901.23,2409.35 C2899.25,2407.37 2898.26,2405.02 2898.26,2402.3 C2898.26,2399.64 2899.25,2397.29 2901.23,2395.25 C2901.91,2394.45 2902.86,2393.76 2904.1,2393.21 C2903.79,2392.4 2903.17,2391.79 2902.25,2391.35 C2900.88,2390.55 2899.28,2390.15 2897.42,2390.15 M2901.97,2428.09 C2900.85,2425.18 2898.41,2423.73 2894.64,2423.73 C2890.87,2423.73 2888.53,2425.18 2887.63,2428.09 C2886.74,2431 2886.29,2435.42 2886.29,2441.36 C2886.29,2448.35 2886.74,2453.05 2887.63,2455.46 C2888.53,2457.87 2890.87,2459.08 2894.64,2459.08 C2898.41,2459.08 2900.85,2457.62 2901.97,2454.72 C2903.08,2451.81 2903.64,2447.37 2903.64,2441.4 C2903.64,2435.44 2903.08,2431 2901.97,2428.09"/>
<path class="FiguredBass" d="M3315.07,2390.15 C3310.49,2390.15 3307.44,2391.99 3305.93,2395.67 C3304.41,2399.35 3303.65,2404.56 3303.65,2411.3 L3303.65,2422.25 C3306.87,2420.95 3309.65,2420.27 3312,2420.21 C3320.04,2420.21 3326.37,2421.98 3330.98,2425.54 C3335.58,2429.1 3337.89,2434.38 3337.89,2441.4 C3337.89,2448.42 3335.55,2453.73 3330.88,2457.31 C3326.21,2460.9 3319.92,2462.7 3312,2462.7 C3303.9,2462.7 3297.56,2458.94 3292.99,2451.42 C3288.41,2443.91 3286.12,2434.99 3286.12,2424.66 C3286.12,2414.39 3288.78,2405.49 3294.1,2397.94 C3299.42,2390.39 3306.41,2386.62 3315.07,2386.62 C3320.76,2386.62 3325.67,2388.06 3329.82,2390.94 C3333.96,2393.81 3336.03,2397.6 3336.03,2402.3 C3336.03,2405.02 3335.04,2407.37 3333.06,2409.35 C3331.08,2411.33 3328.72,2412.32 3325.97,2412.32 C3323.21,2412.32 3320.85,2411.33 3318.87,2409.35 C3316.89,2407.37 3315.9,2405.02 3315.9,2402.3 C3315.9,2399.64 3316.89,2397.29 3318.87,2395.25 C3319.55,2394.45 3320.51,2393.76 3321.75,2393.21 C3321.44,2392.4 3320.82,2391.79 3319.89,2391.35 C3318.53,2390.55 3316.92,2390.15 3315.07,2390.15 M3319.61,2428.09 C3318.5,2425.18 3316.06,2423.73 3312.28,2423.73 C3308.51,2423.73 3306.17,2425.18 3305.28,2428.09 C3304.38,2431 3303.93,2435.42 3303.93,2441.36 C3303.93,2448.35 3304.38,2453.05 3305.28,2455.46 C3306.17,2457.87 3308.51,2459.08 3312.28,2459.08 C3316.06,2459.08 3318.5,2457.62 3319.61,2454.72 C3320.72,2451.81 3321.28,2447.37 3321.28,2441.4 C3321.28,2435.44 3320.72,2431 3319.61,2428.09"/>
<path class="FiguredBass" d="M3292.43,2492.37 L3296.88,2493.02 C3298.06,2493.21 3299.51,2493.39 3301.24,2493.58 C3305.51,2494.07 3309.62,2494.32 3313.58,2494.32 C3317.54,2494.32 3321.71,2494.07 3326.11,2493.58 C3327.84,2493.39 3329.35,2493.21 3330.65,2493.02 L3335.2,2492.37 C3336.13,2492.37 3336.84,2492.68 3337.33,2493.3 C3337.7,2493.79 3337.64,2494.29 3337.15,2494.78 C3327.5,2504.25 3314.17,2508.98 3297.16,2508.98 C3296.48,2508.98 3295.88,2509.23 3295.35,2509.72 C3294.83,2510.21 3294.56,2510.83 3294.56,2511.58 L3294.56,2523.36 C3298.95,2519.03 3304.27,2516.86 3310.52,2516.86 C3319.24,2516.86 3326.04,2518.9 3330.93,2522.99 C3336.25,2518.97 3339.03,2513.83 3339.28,2507.59 C3339.34,2505.61 3339.99,2504 3341.23,2502.76 C3342.59,2501.52 3344.23,2500.91 3346.14,2500.91 C3348.06,2500.91 3349.69,2501.56 3351.02,2502.85 C3352.34,2504.15 3353.01,2505.73 3353.01,2507.59 C3353.01,2517.17 3347.35,2524.44 3336.03,2529.39 C3337.89,2533.04 3338.82,2537.49 3338.82,2542.75 C3338.82,2549.74 3336.03,2555.77 3330.47,2560.84 C3324.9,2565.91 3318.25,2568.45 3310.52,2568.45 C3303.84,2568.45 3298.04,2566.93 3293.12,2563.9 C3288.21,2560.87 3285.75,2556.66 3285.75,2551.28 C3285.75,2548.56 3286.74,2546.2 3288.72,2544.19 C3290.7,2542.18 3293.06,2541.17 3295.81,2541.17 C3298.57,2541.17 3300.9,2542.16 3302.82,2544.14 C3304.74,2546.12 3305.7,2548.5 3305.7,2551.28 C3305.7,2552.52 3304.67,2553.86 3302.63,2555.32 C3300.59,2556.77 3299.57,2558.12 3299.57,2559.35 C3299.57,2563.06 3303.22,2564.92 3310.52,2564.92 C3317.63,2564.92 3321.19,2557.53 3321.19,2542.75 C3321.19,2539.47 3321,2536.59 3320.63,2534.12 C3313.15,2535.67 3303.78,2536.87 3292.52,2537.74 C3290.98,2537.86 3290.2,2537.09 3290.2,2535.42 C3290.2,2534.06 3290.98,2533.32 3292.52,2533.19 C3303.9,2532.26 3312.87,2530.78 3319.43,2528.74 C3317.69,2523.79 3314.73,2521.29 3310.52,2521.22 C3304.15,2521.22 3299.7,2522.52 3297.16,2525.12 C3294.62,2527.72 3293.05,2529.02 3292.43,2529.02 C3290.94,2529.02 3290.2,2528.24 3290.2,2526.7 L3290.2,2494.78 C3290.2,2494.16 3290.42,2493.61 3290.85,2493.11 C3291.35,2492.62 3291.87,2492.37 3292.43,2492.37"/>
<path class="Bracket" transform="matrix(8.6315,0,0,8.6315,76.1283,2254.96)" d="M0.92002,-50 C2.69004,-51.88 6.2,-55.8 6.2,-63 C6.2,-72.1 2.25996,-81.32 2.25996,-86.97 C2.25996,-93.06 5.84004,-98.84 5.95,-99 C6.05996,-99.16 6.05,-99.39 5.94004,-99.46 C5.82998,-99.53 5.62002,-99.47 5.49004,-99.32 C5.35996,-99.17 0,-93.75 0,-85.6 C0,-76.75 3.5,-70.58 3.5,-59.07 C3.5,-56.89 2.55996,-53.36 0.1,-50.33 C-0.0799805,-50.17 -0.1,-49.89 0.0599609,-49.7 L0.0700195,-49.69 L0.1,-49.66 C2.55996,-46.63 3.5,-43.1 3.5,-40.92 C3.5,-29.4 0,-23.24 0,-14.39 C0,-6.25 5.35996,-0.8 5.49004,-0.659961 C5.62002,-0.52002 5.8,-0.42998 5.94004,-0.52002 C6.07998,-0.609961 6.07998,-0.77998 5.95,-0.97998 C5.82002,-1.17998 2.25996,-6.92002 2.25996,-13.01 C2.25996,-18.66 6.2,-27.9 6.2,-37 C6.2,-44.3 2.69004,-48.12 0.92002,-50"/>
</svg>
