<?xml version="1.0" encoding="UTF-8" standalone="no"?>
<svg width="4209.44px" height="2976.38px" viewBox="0 0 4209.44 2976.38"
 xmlns="http://www.w3.org/2000/svg" xmlns:xlink="http://www.w3.org/1999/xlink" version="1.2" baseProfile="tiny">
<title>FaMajeur (7)</title>
<desc>Generated by MuseScore 3.6.2</desc>
<polyline class="StaffLines" fill="none" stroke="#000000" stroke-width="6.55" stroke-linejoin="bevel" points="153.819,596.523 4138.58,596.523"/>
<polyline class="StaffLines" fill="none" stroke="#000000" stroke-width="6.55" stroke-linejoin="bevel" points="153.819,685.814 4138.58,685.814"/>
<polyline class="StaffLines" fill="none" stroke="#000000" stroke-width="6.55" stroke-linejoin="bevel" points="153.819,775.106 4138.58,775.106"/>
<polyline class="StaffLines" fill="none" stroke="#000000" stroke-width="6.55" stroke-linejoin="bevel" points="153.819,864.397 4138.58,864.397"/>
<polyline class="StaffLines" fill="none" stroke="#000000" stroke-width="6.55" stroke-linejoin="bevel" points="153.819,953.688 4138.58,953.688"/>
<polyline class="StaffLines" fill="none" stroke="#000000" stroke-width="6.55" stroke-linejoin="bevel" points="153.819,1042.98 4138.58,1042.98"/>
<polyline class="StaffLines" fill="none" stroke="#000000" stroke-width="6.55" stroke-linejoin="bevel" points="153.819,1429.91 4138.58,1429.91"/>
<polyline class="StaffLines" fill="none" stroke="#000000" stroke-width="6.55" stroke-linejoin="bevel" points="153.819,1489.44 4138.58,1489.44"/>
<polyline class="StaffLines" fill="none" stroke="#000000" stroke-width="6.55" stroke-linejoin="bevel" points="153.819,1548.96 4138.58,1548.96"/>
<polyline class="StaffLines" fill="none" stroke="#000000" stroke-width="6.55" stroke-linejoin="bevel" points="153.819,1608.49 4138.58,1608.49"/>
<polyline class="StaffLines" fill="none" stroke="#000000" stroke-width="6.55" stroke-linejoin="bevel" points="153.819,1668.02 4138.58,1668.02"/>
<polyline class="StaffLines" fill="none" stroke="#000000" stroke-width="6.55" stroke-linejoin="bevel" points="153.819,2137.36 4138.58,2137.36"/>
<polyline class="StaffLines" fill="none" stroke="#000000" stroke-width="6.55" stroke-linejoin="bevel" points="153.819,2196.89 4138.58,2196.89"/>
<polyline class="StaffLines" fill="none" stroke="#000000" stroke-width="6.55" stroke-linejoin="bevel" points="153.819,2256.42 4138.58,2256.42"/>
<polyline class="StaffLines" fill="none" stroke="#000000" stroke-width="6.55" stroke-linejoin="bevel" points="153.819,2315.94 4138.58,2315.94"/>
<polyline class="StaffLines" fill="none" stroke="#000000" stroke-width="6.55" stroke-linejoin="bevel" points="153.819,2375.47 4138.58,2375.47"/>
<polyline class="BarLine" fill="none" stroke="#000000" stroke-width="10.71" stroke-linejoin="bevel" points="159.176,2134.09 159.176,2378.75"/>
<polyline class="BarLine" fill="none" stroke="#000000" stroke-width="10.71" stroke-linejoin="bevel" points="1414.1,2134.09 1414.1,2378.75"/>
<polyline class="BarLine" fill="none" stroke="#000000" stroke-width="10.71" stroke-linejoin="bevel" points="2289.73,2134.09 2289.73,2378.75"/>
<polyline class="BarLine" fill="none" stroke="#000000" stroke-width="10.71" stroke-linejoin="bevel" points="2322.47,2134.09 2322.47,2378.75"/>
<polyline class="BarLine" fill="none" stroke="#000000" stroke-width="10.71" stroke-linejoin="bevel" points="3224.85,2134.09 3224.85,2378.75"/>
<polyline class="BarLine" fill="none" stroke="#000000" stroke-width="10.71" stroke-linejoin="bevel" points="4100.48,2134.09 4100.48,2378.75"/>
<polyline class="BarLine" fill="none" stroke="#000000" stroke-width="10.71" stroke-linejoin="bevel" points="4133.22,2134.09 4133.22,2378.75"/>
<polyline class="BarLine" fill="none" stroke="#000000" stroke-width="10.71" stroke-linejoin="bevel" points="159.176,1426.63 159.176,2137.36"/>
<polyline class="BarLine" fill="none" stroke="#000000" stroke-width="10.71" stroke-linejoin="bevel" points="1414.1,1426.63 1414.1,1671.29"/>
<polyline class="BarLine" fill="none" stroke="#000000" stroke-width="10.71" stroke-linejoin="bevel" points="2289.73,1426.63 2289.73,1671.29"/>
<polyline class="BarLine" fill="none" stroke="#000000" stroke-width="10.71" stroke-linejoin="bevel" points="2322.47,1426.63 2322.47,1671.29"/>
<polyline class="BarLine" fill="none" stroke="#000000" stroke-width="10.71" stroke-linejoin="bevel" points="3224.85,1426.63 3224.85,1671.29"/>
<polyline class="BarLine" fill="none" stroke="#000000" stroke-width="10.71" stroke-linejoin="bevel" points="4100.48,1426.63 4100.48,1671.29"/>
<polyline class="BarLine" fill="none" stroke="#000000" stroke-width="10.71" stroke-linejoin="bevel" points="4133.22,1426.63 4133.22,1671.29"/>
<polyline class="BarLine" fill="none" stroke="#000000" stroke-width="10.71" stroke-linejoin="bevel" points="159.176,593.249 159.176,1429.91"/>
<polyline class="BarLine" fill="none" stroke="#000000" stroke-width="10.71" stroke-linejoin="bevel" points="1414.1,593.249 1414.1,1046.25"/>
<polyline class="BarLine" fill="none" stroke="#000000" stroke-width="10.71" stroke-linejoin="bevel" points="2289.73,593.249 2289.73,1046.25"/>
<polyline class="BarLine" fill="none" stroke="#000000" stroke-width="10.71" stroke-linejoin="bevel" points="2322.47,593.249 2322.47,1046.25"/>
<polyline class="BarLine" fill="none" stroke="#000000" stroke-width="10.71" stroke-linejoin="bevel" points="3224.85,593.249 3224.85,1046.25"/>
<polyline class="BarLine" fill="none" stroke="#000000" stroke-width="10.71" stroke-linejoin="bevel" points="4100.48,593.249 4100.48,1046.25"/>
<polyline class="BarLine" fill="none" stroke="#000000" stroke-width="10.71" stroke-linejoin="bevel" points="4133.22,593.249 4133.22,1046.25"/>
<path class="Note" transform="matrix(2.3811,0,0,2.3811,626.933,2196.89)" d="M18.7,-13.6 C4.9,-13.6 0,-6.6 0,-0.1 C0,6.4 4.9,13.4 18.7,13.4 C32.5,13.4 37.3,6.4 37.3,-0.1 C37.3,-6.6 32.5,-13.6 18.7,-13.6 M10.4,-4.5 C10.3,-4.9 10.3,-5.3 10.3,-5.7 C10.3,-6.5 10.5,-7.3 10.9,-8 C11.6,-9 12.8,-9.7 14.3,-10 C15.6,-10.3 16.3,-10.5 18.9,-10.5 L19,-10.5 C23,-10.5 24.3,-6.8 25.4,-3 L25.7,-2 C26.5,0.6 26.9,2.8 26.9,4.5 C26.9,5.7 26.7,6.8 26.3,7.6 C25.7,8.7 24.7,9.4 23,9.8 C22.1,10 20.6,10.1 20.6,10.1 C20.1,10.1 19.7,10.2 19.3,10.2 C16.1,10.2 14.1,9 12.7,4.7 C11.5,1 11.3,-0.1 10.4,-4.5"/>
<path class="Note" transform="matrix(2.3811,0,0,2.3811,1502.56,2226.65)" d="M18.7,-13.6 C4.9,-13.6 0,-6.6 0,-0.1 C0,6.4 4.9,13.4 18.7,13.4 C32.5,13.4 37.3,6.4 37.3,-0.1 C37.3,-6.6 32.5,-13.6 18.7,-13.6 M10.4,-4.5 C10.3,-4.9 10.3,-5.3 10.3,-5.7 C10.3,-6.5 10.5,-7.3 10.9,-8 C11.6,-9 12.8,-9.7 14.3,-10 C15.6,-10.3 16.3,-10.5 18.9,-10.5 L19,-10.5 C23,-10.5 24.3,-6.8 25.4,-3 L25.7,-2 C26.5,0.6 26.9,2.8 26.9,4.5 C26.9,5.7 26.7,6.8 26.3,7.6 C25.7,8.7 24.7,9.4 23,9.8 C22.1,10 20.6,10.1 20.6,10.1 C20.1,10.1 19.7,10.2 19.3,10.2 C16.1,10.2 14.1,9 12.7,4.7 C11.5,1 11.3,-0.1 10.4,-4.5"/>
<path class="Note" transform="matrix(2.3811,0,0,2.3811,2410.94,2286.18)" d="M18.7,-13.6 C4.9,-13.6 0,-6.6 0,-0.1 C0,6.4 4.9,13.4 18.7,13.4 C32.5,13.4 37.3,6.4 37.3,-0.1 C37.3,-6.6 32.5,-13.6 18.7,-13.6 M10.4,-4.5 C10.3,-4.9 10.3,-5.3 10.3,-5.7 C10.3,-6.5 10.5,-7.3 10.9,-8 C11.6,-9 12.8,-9.7 14.3,-10 C15.6,-10.3 16.3,-10.5 18.9,-10.5 L19,-10.5 C23,-10.5 24.3,-6.8 25.4,-3 L25.7,-2 C26.5,0.6 26.9,2.8 26.9,4.5 C26.9,5.7 26.7,6.8 26.3,7.6 C25.7,8.7 24.7,9.4 23,9.8 C22.1,10 20.6,10.1 20.6,10.1 C20.1,10.1 19.7,10.2 19.3,10.2 C16.1,10.2 14.1,9 12.7,4.7 C11.5,1 11.3,-0.1 10.4,-4.5"/>
<path class="Note" transform="matrix(2.3811,0,0,2.3811,3313.31,2256.42)" d="M18.7,-13.6 C4.9,-13.6 0,-6.6 0,-0.1 C0,6.4 4.9,13.4 18.7,13.4 C32.5,13.4 37.3,6.4 37.3,-0.1 C37.3,-6.6 32.5,-13.6 18.7,-13.6 M10.4,-4.5 C10.3,-4.9 10.3,-5.3 10.3,-5.7 C10.3,-6.5 10.5,-7.3 10.9,-8 C11.6,-9 12.8,-9.7 14.3,-10 C15.6,-10.3 16.3,-10.5 18.9,-10.5 L19,-10.5 C23,-10.5 24.3,-6.8 25.4,-3 L25.7,-2 C26.5,0.6 26.9,2.8 26.9,4.5 C26.9,5.7 26.7,6.8 26.3,7.6 C25.7,8.7 24.7,9.4 23,9.8 C22.1,10 20.6,10.1 20.6,10.1 C20.1,10.1 19.7,10.2 19.3,10.2 C16.1,10.2 14.1,9 12.7,4.7 C11.5,1 11.3,-0.1 10.4,-4.5"/>
<path class="Note" transform="matrix(2.3811,0,0,2.3811,626.933,1578.73)" d="M18.7,-13.6 C4.9,-13.6 0,-6.6 0,-0.1 C0,6.4 4.9,13.4 18.7,13.4 C32.5,13.4 37.3,6.4 37.3,-0.1 C37.3,-6.6 32.5,-13.6 18.7,-13.6 M10.4,-4.5 C10.3,-4.9 10.3,-5.3 10.3,-5.7 C10.3,-6.5 10.5,-7.3 10.9,-8 C11.6,-9 12.8,-9.7 14.3,-10 C15.6,-10.3 16.3,-10.5 18.9,-10.5 L19,-10.5 C23,-10.5 24.3,-6.8 25.4,-3 L25.7,-2 C26.5,0.6 26.9,2.8 26.9,4.5 C26.9,5.7 26.7,6.8 26.3,7.6 C25.7,8.7 24.7,9.4 23,9.8 C22.1,10 20.6,10.1 20.6,10.1 C20.1,10.1 19.7,10.2 19.3,10.2 C16.1,10.2 14.1,9 12.7,4.7 C11.5,1 11.3,-0.1 10.4,-4.5"/>
<path class="Note" transform="matrix(2.3811,0,0,2.3811,626.933,1519.2)" d="M18.7,-13.6 C4.9,-13.6 0,-6.6 0,-0.1 C0,6.4 4.9,13.4 18.7,13.4 C32.5,13.4 37.3,6.4 37.3,-0.1 C37.3,-6.6 32.5,-13.6 18.7,-13.6 M10.4,-4.5 C10.3,-4.9 10.3,-5.3 10.3,-5.7 C10.3,-6.5 10.5,-7.3 10.9,-8 C11.6,-9 12.8,-9.7 14.3,-10 C15.6,-10.3 16.3,-10.5 18.9,-10.5 L19,-10.5 C23,-10.5 24.3,-6.8 25.4,-3 L25.7,-2 C26.5,0.6 26.9,2.8 26.9,4.5 C26.9,5.7 26.7,6.8 26.3,7.6 C25.7,8.7 24.7,9.4 23,9.8 C22.1,10 20.6,10.1 20.6,10.1 C20.1,10.1 19.7,10.2 19.3,10.2 C16.1,10.2 14.1,9 12.7,4.7 C11.5,1 11.3,-0.1 10.4,-4.5"/>
<path class="Note" transform="matrix(2.3811,0,0,2.3811,626.933,1429.91)" d="M18.7,-13.6 C4.9,-13.6 0,-6.6 0,-0.1 C0,6.4 4.9,13.4 18.7,13.4 C32.5,13.4 37.3,6.4 37.3,-0.1 C37.3,-6.6 32.5,-13.6 18.7,-13.6 M10.4,-4.5 C10.3,-4.9 10.3,-5.3 10.3,-5.7 C10.3,-6.5 10.5,-7.3 10.9,-8 C11.6,-9 12.8,-9.7 14.3,-10 C15.6,-10.3 16.3,-10.5 18.9,-10.5 L19,-10.5 C23,-10.5 24.3,-6.8 25.4,-3 L25.7,-2 C26.5,0.6 26.9,2.8 26.9,4.5 C26.9,5.7 26.7,6.8 26.3,7.6 C25.7,8.7 24.7,9.4 23,9.8 C22.1,10 20.6,10.1 20.6,10.1 C20.1,10.1 19.7,10.2 19.3,10.2 C16.1,10.2 14.1,9 12.7,4.7 C11.5,1 11.3,-0.1 10.4,-4.5"/>
<path class="Note" transform="matrix(2.3811,0,0,2.3811,1502.56,1608.49)" d="M18.7,-13.6 C4.9,-13.6 0,-6.6 0,-0.1 C0,6.4 4.9,13.4 18.7,13.4 C32.5,13.4 37.3,6.4 37.3,-0.1 C37.3,-6.6 32.5,-13.6 18.7,-13.6 M10.4,-4.5 C10.3,-4.9 10.3,-5.3 10.3,-5.7 C10.3,-6.5 10.5,-7.3 10.9,-8 C11.6,-9 12.8,-9.7 14.3,-10 C15.6,-10.3 16.3,-10.5 18.9,-10.5 L19,-10.5 C23,-10.5 24.3,-6.8 25.4,-3 L25.7,-2 C26.5,0.6 26.9,2.8 26.9,4.5 C26.9,5.7 26.7,6.8 26.3,7.6 C25.7,8.7 24.7,9.4 23,9.8 C22.1,10 20.6,10.1 20.6,10.1 C20.1,10.1 19.7,10.2 19.3,10.2 C16.1,10.2 14.1,9 12.7,4.7 C11.5,1 11.3,-0.1 10.4,-4.5"/>
<path class="Note" transform="matrix(2.3811,0,0,2.3811,1502.56,1519.2)" d="M18.7,-13.6 C4.9,-13.6 0,-6.6 0,-0.1 C0,6.4 4.9,13.4 18.7,13.4 C32.5,13.4 37.3,6.4 37.3,-0.1 C37.3,-6.6 32.5,-13.6 18.7,-13.6 M10.4,-4.5 C10.3,-4.9 10.3,-5.3 10.3,-5.7 C10.3,-6.5 10.5,-7.3 10.9,-8 C11.6,-9 12.8,-9.7 14.3,-10 C15.6,-10.3 16.3,-10.5 18.9,-10.5 L19,-10.5 C23,-10.5 24.3,-6.8 25.4,-3 L25.7,-2 C26.5,0.6 26.9,2.8 26.9,4.5 C26.9,5.7 26.7,6.8 26.3,7.6 C25.7,8.7 24.7,9.4 23,9.8 C22.1,10 20.6,10.1 20.6,10.1 C20.1,10.1 19.7,10.2 19.3,10.2 C16.1,10.2 14.1,9 12.7,4.7 C11.5,1 11.3,-0.1 10.4,-4.5"/>
<path class="Note" transform="matrix(2.3811,0,0,2.3811,1502.56,1400.14)" d="M18.7,-13.6 C4.9,-13.6 0,-6.6 0,-0.1 C0,6.4 4.9,13.4 18.7,13.4 C32.5,13.4 37.3,6.4 37.3,-0.1 C37.3,-6.6 32.5,-13.6 18.7,-13.6 M10.4,-4.5 C10.3,-4.9 10.3,-5.3 10.3,-5.7 C10.3,-6.5 10.5,-7.3 10.9,-8 C11.6,-9 12.8,-9.7 14.3,-10 C15.6,-10.3 16.3,-10.5 18.9,-10.5 L19,-10.5 C23,-10.5 24.3,-6.8 25.4,-3 L25.7,-2 C26.5,0.6 26.9,2.8 26.9,4.5 C26.9,5.7 26.7,6.8 26.3,7.6 C25.7,8.7 24.7,9.4 23,9.8 C22.1,10 20.6,10.1 20.6,10.1 C20.1,10.1 19.7,10.2 19.3,10.2 C16.1,10.2 14.1,9 12.7,4.7 C11.5,1 11.3,-0.1 10.4,-4.5"/>
<path class="Note" transform="matrix(2.3811,0,0,2.3811,2410.94,1608.49)" d="M18.7,-13.6 C4.9,-13.6 0,-6.6 0,-0.1 C0,6.4 4.9,13.4 18.7,13.4 C32.5,13.4 37.3,6.4 37.3,-0.1 C37.3,-6.6 32.5,-13.6 18.7,-13.6 M10.4,-4.5 C10.3,-4.9 10.3,-5.3 10.3,-5.7 C10.3,-6.5 10.5,-7.3 10.9,-8 C11.6,-9 12.8,-9.7 14.3,-10 C15.6,-10.3 16.3,-10.5 18.9,-10.5 L19,-10.5 C23,-10.5 24.3,-6.8 25.4,-3 L25.7,-2 C26.5,0.6 26.9,2.8 26.9,4.5 C26.9,5.7 26.7,6.8 26.3,7.6 C25.7,8.7 24.7,9.4 23,9.8 C22.1,10 20.6,10.1 20.6,10.1 C20.1,10.1 19.7,10.2 19.3,10.2 C16.1,10.2 14.1,9 12.7,4.7 C11.5,1 11.3,-0.1 10.4,-4.5"/>
<path class="Note" transform="matrix(2.3811,0,0,2.3811,2410.94,1519.2)" d="M18.7,-13.6 C4.9,-13.6 0,-6.6 0,-0.1 C0,6.4 4.9,13.4 18.7,13.4 C32.5,13.4 37.3,6.4 37.3,-0.1 C37.3,-6.6 32.5,-13.6 18.7,-13.6 M10.4,-4.5 C10.3,-4.9 10.3,-5.3 10.3,-5.7 C10.3,-6.5 10.5,-7.3 10.9,-8 C11.6,-9 12.8,-9.7 14.3,-10 C15.6,-10.3 16.3,-10.5 18.9,-10.5 L19,-10.5 C23,-10.5 24.3,-6.8 25.4,-3 L25.7,-2 C26.5,0.6 26.9,2.8 26.9,4.5 C26.9,5.7 26.7,6.8 26.3,7.6 C25.7,8.7 24.7,9.4 23,9.8 C22.1,10 20.6,10.1 20.6,10.1 C20.1,10.1 19.7,10.2 19.3,10.2 C16.1,10.2 14.1,9 12.7,4.7 C11.5,1 11.3,-0.1 10.4,-4.5"/>
<path class="Note" transform="matrix(2.3811,0,0,2.3811,2410.94,1459.67)" d="M18.7,-13.6 C4.9,-13.6 0,-6.6 0,-0.1 C0,6.4 4.9,13.4 18.7,13.4 C32.5,13.4 37.3,6.4 37.3,-0.1 C37.3,-6.6 32.5,-13.6 18.7,-13.6 M10.4,-4.5 C10.3,-4.9 10.3,-5.3 10.3,-5.7 C10.3,-6.5 10.5,-7.3 10.9,-8 C11.6,-9 12.8,-9.7 14.3,-10 C15.6,-10.3 16.3,-10.5 18.9,-10.5 L19,-10.5 C23,-10.5 24.3,-6.8 25.4,-3 L25.7,-2 C26.5,0.6 26.9,2.8 26.9,4.5 C26.9,5.7 26.7,6.8 26.3,7.6 C25.7,8.7 24.7,9.4 23,9.8 C22.1,10 20.6,10.1 20.6,10.1 C20.1,10.1 19.7,10.2 19.3,10.2 C16.1,10.2 14.1,9 12.7,4.7 C11.5,1 11.3,-0.1 10.4,-4.5"/>
<path class="Note" transform="matrix(2.3811,0,0,2.3811,3313.31,1548.96)" d="M18.7,-13.6 C4.9,-13.6 0,-6.6 0,-0.1 C0,6.4 4.9,13.4 18.7,13.4 C32.5,13.4 37.3,6.4 37.3,-0.1 C37.3,-6.6 32.5,-13.6 18.7,-13.6 M10.4,-4.5 C10.3,-4.9 10.3,-5.3 10.3,-5.7 C10.3,-6.5 10.5,-7.3 10.9,-8 C11.6,-9 12.8,-9.7 14.3,-10 C15.6,-10.3 16.3,-10.5 18.9,-10.5 L19,-10.5 C23,-10.5 24.3,-6.8 25.4,-3 L25.7,-2 C26.5,0.6 26.9,2.8 26.9,4.5 C26.9,5.7 26.7,6.8 26.3,7.6 C25.7,8.7 24.7,9.4 23,9.8 C22.1,10 20.6,10.1 20.6,10.1 C20.1,10.1 19.7,10.2 19.3,10.2 C16.1,10.2 14.1,9 12.7,4.7 C11.5,1 11.3,-0.1 10.4,-4.5"/>
<path class="Note" transform="matrix(2.3811,0,0,2.3811,3313.31,1429.91)" d="M18.7,-13.6 C4.9,-13.6 0,-6.6 0,-0.1 C0,6.4 4.9,13.4 18.7,13.4 C32.5,13.4 37.3,6.4 37.3,-0.1 C37.3,-6.6 32.5,-13.6 18.7,-13.6 M10.4,-4.5 C10.3,-4.9 10.3,-5.3 10.3,-5.7 C10.3,-6.5 10.5,-7.3 10.9,-8 C11.6,-9 12.8,-9.7 14.3,-10 C15.6,-10.3 16.3,-10.5 18.9,-10.5 L19,-10.5 C23,-10.5 24.3,-6.8 25.4,-3 L25.7,-2 C26.5,0.6 26.9,2.8 26.9,4.5 C26.9,5.7 26.7,6.8 26.3,7.6 C25.7,8.7 24.7,9.4 23,9.8 C22.1,10 20.6,10.1 20.6,10.1 C20.1,10.1 19.7,10.2 19.3,10.2 C16.1,10.2 14.1,9 12.7,4.7 C11.5,1 11.3,-0.1 10.4,-4.5"/>
<path class="Note" d="M677.28,972.139 C681.076,972.139 682.975,975.044 682.975,980.855 C682.975,985.038 680.999,989.842 677.048,995.265 C673.561,1000.15 671.818,1007.7 671.818,1017.93 C671.818,1022.81 673.097,1026.06 675.653,1027.69 C677.435,1028.93 680.767,1029.59 685.647,1029.66 C690.916,1029.66 698.392,1026.99 708.076,1021.64 L709.936,1023.5 C707.456,1026.68 704.474,1029.55 700.987,1032.1 C695.797,1035.9 690.49,1037.8 685.066,1037.8 C677.241,1037.8 671.315,1036.67 667.286,1034.43 C662.25,1031.64 659.732,1028.15 659.732,1023.97 C659.732,1012.43 661.204,1000.38 664.148,987.827 C665.233,983.256 667.596,979.073 671.237,975.276 C673.329,973.185 675.343,972.139 677.28,972.139"/>
<path class="Note" d="M720.627,599.285 C724.965,596.341 728.103,593.901 730.04,591.964 C733.604,588.167 735.386,584.681 735.386,581.505 C735.386,577.863 733.371,576.043 729.343,576.043 C721.518,576.043 713.151,582.938 704.241,596.728 C701.53,600.912 695.564,614.547 686.345,637.635 C693.705,645.227 697.385,649.527 697.385,650.534 C697.385,651.929 696.494,652.626 694.712,652.626 C693.317,652.626 689.482,650.263 683.207,645.537 C676.389,661.419 666.047,674.977 652.179,686.211 C638.001,697.677 621.073,703.41 601.394,703.41 C593.88,703.41 584.466,701.667 573.155,698.18 C564.091,695.391 559.559,690.937 559.559,684.816 C559.559,675.752 563.045,671.22 570.018,671.22 C574.201,671.22 576.293,673.156 576.293,677.03 C576.293,678.27 575.324,679.587 573.388,680.981 C572.38,681.679 571.877,683.034 571.877,685.049 C571.877,687.45 574.55,689.929 579.895,692.486 C585.706,695.275 594.228,696.67 605.462,696.67 C619.949,696.67 633.934,690.394 647.414,677.844 C659.655,666.455 668.448,653.207 673.794,638.099 C671.702,636.395 669.455,634.536 667.054,632.521 C659.616,628.105 655.897,623.573 655.897,618.925 C655.897,616.988 657.176,616.019 659.732,616.019 C663.141,616.019 667.751,618.925 673.561,624.735 C674.801,625.975 675.963,627.137 677.048,628.221 C679.759,620.784 684.098,611.332 690.063,599.866 C700.832,579.103 713.925,568.721 729.343,568.721 C734.843,568.721 739.182,569.767 742.358,571.859 C745.535,573.951 747.123,576.818 747.123,580.459 C747.123,586.269 744.992,591.189 740.731,595.218 C736.315,599.401 731.706,601.493 726.902,601.493 C722.719,601.493 720.627,600.757 720.627,599.285"/>
<path class="Note" d="M720.627,777.868 C724.965,774.924 728.103,772.483 730.04,770.546 C733.604,766.75 735.386,763.264 735.386,760.087 C735.386,756.446 733.371,754.625 729.343,754.625 C721.518,754.625 713.151,761.521 704.241,775.311 C701.53,779.495 695.564,793.13 686.345,816.217 C693.705,823.81 697.385,828.109 697.385,829.117 C697.385,830.511 696.494,831.208 694.712,831.208 C693.317,831.208 689.482,828.845 683.207,824.12 C676.389,840.002 666.047,853.56 652.179,864.793 C638.001,876.26 621.073,881.993 601.394,881.993 C593.88,881.993 584.466,880.249 573.155,876.763 C564.091,873.974 559.559,869.519 559.559,863.399 C559.559,854.334 563.045,849.802 570.018,849.802 C574.201,849.802 576.293,851.739 576.293,855.613 C576.293,856.852 575.324,858.169 573.388,859.564 C572.38,860.261 571.877,861.617 571.877,863.631 C571.877,866.033 574.55,868.512 579.895,871.069 C585.706,873.858 594.228,875.252 605.462,875.252 C619.949,875.252 633.934,868.977 647.414,856.426 C659.655,845.038 668.448,831.79 673.794,816.682 C671.702,814.978 669.455,813.118 667.054,811.104 C659.616,806.688 655.897,802.156 655.897,797.507 C655.897,795.57 657.176,794.602 659.732,794.602 C663.141,794.602 667.751,797.507 673.561,803.318 C674.801,804.557 675.963,805.72 677.048,806.804 C679.759,799.367 684.098,789.915 690.063,778.449 C700.832,757.686 713.925,747.304 729.343,747.304 C734.843,747.304 739.182,748.35 742.358,750.442 C745.535,752.534 747.123,755.4 747.123,759.041 C747.123,764.852 744.992,769.772 740.731,773.8 C736.315,777.984 731.706,780.076 726.902,780.076 C722.719,780.076 720.627,779.34 720.627,777.868"/>
<path class="Note" d="M719.813,712.167 C719.813,721.077 709.664,740.639 689.366,770.854 C681.309,782.862 669.727,791.655 654.619,797.234 C643.463,801.417 630.563,803.509 615.921,803.509 C611.195,803.509 607.011,802.54 603.37,800.604 C599.341,798.512 597.327,796.226 597.327,793.747 C597.327,787.317 600.775,784.102 607.67,784.102 C608.677,784.102 609.181,784.721 609.181,785.961 C609.181,787.046 608.677,788.247 607.67,789.564 C606.43,791.191 605.811,792.391 605.811,793.166 C605.811,795.49 609.297,796.652 616.269,796.652 C631.919,796.652 644.276,794.754 653.341,790.958 C662.793,787.084 672.206,777.206 681.58,761.324 L684.253,756.327 C679.759,759.736 675.305,761.441 670.889,761.441 C659.887,761.441 654.387,756.986 654.387,748.076 C654.387,738.47 660.856,728.359 673.794,717.745 C683.943,709.533 692.969,705.427 700.871,705.427 C704.822,705.427 708.115,706.473 710.749,708.565 C711.679,707.867 712.841,707.519 714.235,707.519 C717.954,707.519 719.813,709.068 719.813,712.167 M685.647,753.887 L707.611,713.329 C705.907,712.942 704.009,712.748 701.917,712.748 C694.402,712.748 687.119,717.125 680.069,725.88 C671.857,736.107 667.751,744.28 667.751,750.401 C667.751,754.429 670.424,756.443 675.769,756.443 C678.326,756.443 681.619,755.591 685.647,753.887"/>
<path class="Note" d="M1523.63,1037.8 C1519.44,1037.8 1517.35,1035.9 1517.35,1032.1 C1517.35,1025.67 1518.32,1020.95 1520.26,1017.93 C1528.31,1005.99 1545.82,983.682 1572.78,950.988 C1584.95,936.191 1600.64,928.792 1619.85,928.792 C1627.29,928.792 1632.44,929.838 1635.31,931.93 C1639.72,935.184 1641.93,939.096 1641.93,943.667 C1641.93,948.47 1638.06,953.816 1630.31,959.704 C1622.95,965.282 1615.98,968.071 1609.39,968.071 C1606.83,968.071 1605.56,967.8 1605.56,967.258 C1605.56,966.483 1606.8,965.67 1609.27,964.817 C1612.61,963.578 1616.17,961.06 1619.97,957.264 C1624.3,952.848 1626.47,948.858 1626.47,945.294 C1626.47,942.892 1624.81,940.607 1621.48,938.438 C1618.53,936.578 1613.77,935.649 1607.18,935.649 C1597.58,935.649 1585.45,945.333 1570.81,964.701 C1561.05,977.639 1553.14,989.028 1547.1,998.867 C1550.05,997.24 1553.57,995.265 1557.68,992.941 C1562.71,990.074 1567.05,988.641 1570.69,988.641 C1579.76,988.641 1584.29,991.895 1584.29,998.402 C1584.29,1004.83 1580.57,1011.88 1573.13,1019.55 C1567.86,1024.98 1565.23,1029 1565.23,1031.64 C1565.23,1034.35 1567.86,1035.71 1573.13,1035.71 C1575.77,1035.71 1578.48,1034.78 1581.27,1032.92 C1584.06,1031.14 1586.11,1030.24 1587.43,1030.24 C1588.51,1030.24 1589.05,1030.94 1589.05,1032.34 C1589.05,1034.58 1586.88,1036.95 1582.55,1039.42 C1575.26,1043.61 1569.41,1045.7 1565,1045.7 C1557.17,1045.7 1553.26,1041.52 1553.26,1033.15 C1553.26,1027.88 1556.28,1022.03 1562.33,1015.6 C1566.74,1010.88 1568.95,1006.19 1568.95,1001.54 C1568.95,997.512 1566.78,995.497 1562.44,995.497 C1560.74,995.497 1555.08,997.512 1545.47,1001.54 C1542.61,1006.34 1540.21,1010.76 1538.27,1014.79 C1530.91,1030.13 1526.03,1037.8 1523.63,1037.8"/>
<path class="Note" d="M1581.38,800.645 C1585.95,800.645 1588.24,803.512 1588.24,809.245 C1588.24,813.273 1585.72,819.277 1580.69,827.257 C1576.66,833.688 1574.64,839.963 1574.64,846.083 C1574.64,849.57 1579.72,851.313 1589.87,851.313 C1598.23,851.313 1609.89,846.781 1624.85,837.716 C1609.82,852.204 1596.76,859.448 1585.68,859.448 C1575.69,859.448 1568.72,857.937 1564.77,854.915 C1563.76,854.141 1562.91,853.211 1562.21,852.126 C1558.34,856.852 1551.87,859.215 1542.8,859.215 C1534.12,859.215 1527.46,857.433 1522.81,853.87 C1519.71,851.468 1518.17,847.633 1518.17,842.365 C1518.17,833.998 1523.12,824.856 1533.04,814.939 C1543.65,804.325 1555.93,799.018 1569.88,799.018 C1573.37,799.018 1575.92,800.296 1577.55,802.853 C1578.87,801.381 1580.14,800.645 1581.38,800.645 M1560.58,846.897 C1560.5,846.277 1560.47,845.657 1560.47,845.038 C1560.47,844.728 1564.42,833.92 1572.32,812.615 C1573.09,810.523 1573.87,808.741 1574.64,807.269 C1571.62,806.649 1568.64,806.339 1565.7,806.339 C1560.27,806.339 1553.07,810.949 1544.08,820.168 C1536.02,828.381 1531.99,835.47 1531.99,841.435 C1531.99,848.02 1535.13,851.313 1541.41,851.313 C1549,851.313 1555.39,849.841 1560.58,846.897"/>
<path class="Note" d="M1552.91,614.973 C1556.71,614.973 1558.61,617.879 1558.61,623.689 C1558.61,627.873 1556.63,632.676 1552.68,638.099 C1549.19,642.98 1547.45,650.534 1547.45,660.761 C1547.45,665.641 1548.73,668.895 1551.29,670.522 C1553.07,671.762 1556.4,672.42 1561.28,672.498 C1566.55,672.498 1574.02,669.825 1583.71,664.479 L1585.57,666.339 C1583.09,669.515 1580.11,672.382 1576.62,674.938 C1571.43,678.734 1566.12,680.633 1560.7,680.633 C1552.87,680.633 1546.95,679.509 1542.92,677.262 C1537.88,674.473 1535.36,670.987 1535.36,666.804 C1535.36,655.26 1536.84,643.213 1539.78,630.662 C1540.87,626.091 1543.23,621.907 1546.87,618.111 C1548.96,616.019 1550.98,614.973 1552.91,614.973"/>
<path class="Note" d="M1552.91,704.265 C1556.71,704.265 1558.61,707.17 1558.61,712.981 C1558.61,717.164 1556.63,721.968 1552.68,727.391 C1549.19,732.272 1547.45,739.825 1547.45,750.052 C1547.45,754.933 1548.73,758.187 1551.29,759.814 C1553.07,761.053 1556.4,761.712 1561.28,761.789 C1566.55,761.789 1574.02,759.116 1583.71,753.771 L1585.57,755.63 C1583.09,758.806 1580.11,761.673 1576.62,764.23 C1571.43,768.026 1566.12,769.924 1560.7,769.924 C1552.87,769.924 1546.95,768.801 1542.92,766.554 C1537.88,763.765 1535.36,760.278 1535.36,756.095 C1535.36,744.551 1536.84,732.504 1539.78,719.953 C1540.87,715.382 1543.23,711.199 1546.87,707.402 C1548.96,705.311 1550.98,704.265 1552.91,704.265"/>
<path class="Note" d="M2378.67,983.179 C2378.98,971.48 2385.45,961.099 2398.07,952.034 C2409.31,943.977 2421.59,939.948 2434.91,939.948 C2453.58,939.948 2470.05,947.27 2484.3,961.912 C2493.37,971.287 2497.9,982.908 2497.9,996.776 C2497.9,1009.25 2494.57,1018.82 2487.91,1025.48 C2479.77,1033.69 2471.17,1037.8 2462.11,1037.8 C2455.91,1037.8 2451.11,1036.4 2447.7,1033.61 C2442.12,1029.04 2439.33,1022.92 2439.33,1015.25 C2439.33,1005.34 2444.29,996.272 2454.2,988.06 C2462.34,981.319 2470.51,976.903 2478.73,974.812 C2476.56,971.093 2473.81,967.607 2470.47,964.353 C2460.09,954.204 2448.32,949.129 2435.15,949.129 C2421.43,949.129 2410.08,952.112 2401.1,958.077 C2391.8,964.198 2384.32,972.565 2378.67,983.179 M2481.63,980.971 C2477.37,984.922 2473.11,989.144 2468.85,993.638 C2460.48,1002.47 2456.3,1010.84 2456.3,1018.74 C2456.3,1027.18 2458.23,1031.41 2462.11,1031.41 C2465.59,1031.41 2470.47,1026.64 2476.75,1017.11 C2481.79,1009.52 2484.3,1002.55 2484.3,996.194 C2484.3,990.771 2483.41,985.697 2481.63,980.971"/>
<path class="Note" d="M2378.67,626.013 C2378.98,614.315 2385.45,603.933 2398.07,594.869 C2409.31,586.812 2421.59,582.783 2434.91,582.783 C2453.58,582.783 2470.05,590.104 2484.3,604.747 C2493.37,614.121 2497.9,625.742 2497.9,639.61 C2497.9,652.083 2494.57,661.651 2487.91,668.314 C2479.77,676.526 2471.17,680.633 2462.11,680.633 C2455.91,680.633 2451.11,679.238 2447.7,676.449 C2442.12,671.878 2439.33,665.758 2439.33,658.088 C2439.33,648.171 2444.29,639.107 2454.2,630.894 C2462.34,624.154 2470.51,619.738 2478.73,617.646 C2476.56,613.928 2473.81,610.441 2470.47,607.187 C2460.09,597.038 2448.32,591.964 2435.15,591.964 C2421.43,591.964 2410.08,594.946 2401.1,600.912 C2391.8,607.032 2384.32,615.4 2378.67,626.013 M2481.63,623.805 C2477.37,627.757 2473.11,631.979 2468.85,636.472 C2460.48,645.304 2456.3,653.672 2456.3,661.574 C2456.3,670.019 2458.23,674.241 2462.11,674.241 C2465.59,674.241 2470.47,669.476 2476.75,659.947 C2481.79,652.355 2484.3,645.382 2484.3,639.029 C2484.3,633.606 2483.41,628.531 2481.63,623.805"/>
<path class="Note" d="M2378.67,536.722 C2378.98,525.024 2385.45,514.642 2398.07,505.578 C2409.31,497.52 2421.59,493.492 2434.91,493.492 C2453.58,493.492 2470.05,500.813 2484.3,515.456 C2493.37,524.83 2497.9,536.451 2497.9,550.319 C2497.9,562.792 2494.57,572.36 2487.91,579.023 C2479.77,587.235 2471.17,591.341 2462.11,591.341 C2455.91,591.341 2451.11,589.947 2447.7,587.158 C2442.12,582.587 2439.33,576.466 2439.33,568.796 C2439.33,558.88 2444.29,549.815 2454.2,541.603 C2462.34,534.863 2470.51,530.447 2478.73,528.355 C2476.56,524.636 2473.81,521.15 2470.47,517.896 C2460.09,507.747 2448.32,502.672 2435.15,502.672 C2421.43,502.672 2410.08,505.655 2401.1,511.621 C2391.8,517.741 2384.32,526.108 2378.67,536.722 M2481.63,534.514 C2477.37,538.465 2473.11,542.688 2468.85,547.181 C2460.48,556.013 2456.3,564.38 2456.3,572.283 C2456.3,580.727 2458.23,584.95 2462.11,584.95 C2465.59,584.95 2470.47,580.185 2476.75,570.656 C2481.79,563.063 2484.3,556.091 2484.3,549.738 C2484.3,544.315 2483.41,539.24 2481.63,534.514"/>
<path class="Note" d="M2504.63,688.576 C2508.97,685.632 2512.11,683.192 2514.04,681.255 C2517.61,677.459 2519.39,673.972 2519.39,670.796 C2519.39,667.155 2517.38,665.334 2513.35,665.334 C2505.52,665.334 2497.16,672.229 2488.25,686.02 C2485.53,690.203 2479.57,703.839 2470.35,726.926 C2477.71,734.518 2481.39,738.818 2481.39,739.825 C2481.39,741.22 2480.5,741.917 2478.72,741.917 C2477.32,741.917 2473.49,739.554 2467.21,734.828 C2460.39,750.71 2450.05,764.268 2436.18,775.502 C2422.01,786.968 2405.08,792.701 2385.4,792.701 C2377.88,792.701 2368.47,790.958 2357.16,787.472 C2348.1,784.683 2343.56,780.228 2343.56,774.108 C2343.56,765.043 2347.05,760.511 2354.02,760.511 C2358.21,760.511 2360.3,762.448 2360.3,766.321 C2360.3,767.561 2359.33,768.878 2357.39,770.273 C2356.38,770.97 2355.88,772.326 2355.88,774.34 C2355.88,776.742 2358.55,779.221 2363.9,781.777 C2369.71,784.567 2378.23,785.961 2389.47,785.961 C2403.95,785.961 2417.94,779.686 2431.42,767.135 C2443.66,755.746 2452.45,742.498 2457.8,727.391 C2455.71,725.686 2453.46,723.827 2451.06,721.813 C2443.62,717.397 2439.9,712.864 2439.9,708.216 C2439.9,706.279 2441.18,705.311 2443.74,705.311 C2447.15,705.311 2451.76,708.216 2457.57,714.026 C2458.81,715.266 2459.97,716.428 2461.05,717.513 C2463.76,710.075 2468.1,700.623 2474.07,689.157 C2484.84,668.394 2497.93,658.013 2513.35,658.013 C2518.85,658.013 2523.19,659.059 2526.36,661.151 C2529.54,663.242 2531.13,666.109 2531.13,669.75 C2531.13,675.561 2529,680.48 2524.74,684.509 C2520.32,688.693 2515.71,690.784 2510.91,690.784 C2506.72,690.784 2504.63,690.048 2504.63,688.576"/>
<path class="Note" d="M3407.01,956.45 C3411.34,953.506 3414.48,951.066 3416.42,949.129 C3419.98,945.333 3421.76,941.846 3421.76,938.67 C3421.76,935.029 3419.75,933.208 3415.72,933.208 C3407.9,933.208 3399.53,940.103 3390.62,953.894 C3387.91,958.077 3381.94,971.713 3372.72,994.8 C3380.08,1002.39 3383.76,1006.69 3383.76,1007.7 C3383.76,1009.09 3382.87,1009.79 3381.09,1009.79 C3379.7,1009.79 3375.86,1007.43 3369.59,1002.7 C3362.77,1018.58 3352.43,1032.14 3338.56,1043.38 C3324.38,1054.84 3307.45,1060.58 3287.77,1060.58 C3280.26,1060.58 3270.85,1058.83 3259.53,1055.35 C3250.47,1052.56 3245.94,1048.1 3245.94,1041.98 C3245.94,1032.92 3249.42,1028.38 3256.4,1028.38 C3260.58,1028.38 3262.67,1030.32 3262.67,1034.2 C3262.67,1035.44 3261.7,1036.75 3259.77,1038.15 C3258.76,1038.84 3258.26,1040.2 3258.26,1042.21 C3258.26,1044.62 3260.93,1047.09 3266.27,1049.65 C3272.09,1052.44 3280.61,1053.84 3291.84,1053.84 C3306.33,1053.84 3320.31,1047.56 3333.79,1035.01 C3346.03,1023.62 3354.83,1010.37 3360.17,995.265 C3358.08,993.56 3355.83,991.701 3353.43,989.687 C3346,985.271 3342.28,980.738 3342.28,976.09 C3342.28,974.153 3343.55,973.185 3346.11,973.185 C3349.52,973.185 3354.13,976.09 3359.94,981.901 C3361.18,983.14 3362.34,984.302 3363.43,985.387 C3366.14,977.949 3370.48,968.498 3376.44,957.031 C3387.21,936.268 3400.3,925.887 3415.72,925.887 C3421.22,925.887 3425.56,926.933 3428.74,929.025 C3431.91,931.116 3433.5,933.983 3433.5,937.624 C3433.5,943.435 3431.37,948.354 3427.11,952.383 C3422.69,956.567 3418.08,958.658 3413.28,958.658 C3409.1,958.658 3407.01,957.922 3407.01,956.45"/>
<path class="Note" d="M3406.19,622.876 C3406.19,631.785 3396.04,651.347 3375.75,681.562 C3367.69,693.571 3356.11,702.364 3341,707.942 C3329.84,712.126 3316.94,714.218 3302.3,714.218 C3297.57,714.218 3293.39,713.249 3289.75,711.312 C3285.72,709.22 3283.71,706.935 3283.71,704.456 C3283.71,698.026 3287.15,694.81 3294.05,694.81 C3295.06,694.81 3295.56,695.43 3295.56,696.67 C3295.56,697.754 3295.06,698.955 3294.05,700.272 C3292.81,701.899 3292.19,703.1 3292.19,703.875 C3292.19,706.199 3295.68,707.361 3302.65,707.361 C3318.3,707.361 3330.66,705.463 3339.72,701.667 C3349.17,697.793 3358.58,687.915 3367.96,672.033 L3370.63,667.036 C3366.14,670.445 3361.68,672.149 3357.27,672.149 C3346.27,672.149 3340.77,667.694 3340.77,658.785 C3340.77,649.178 3347.23,639.068 3360.17,628.454 C3370.32,620.242 3379.35,616.136 3387.25,616.136 C3391.2,616.136 3394.49,617.181 3397.13,619.273 C3398.06,618.576 3399.22,618.227 3400.61,618.227 C3404.33,618.227 3406.19,619.777 3406.19,622.876 M3372.03,664.595 L3393.99,624.038 C3392.29,623.651 3390.39,623.457 3388.3,623.457 C3380.78,623.457 3373.5,627.834 3366.45,636.589 C3358.24,646.815 3354.13,654.989 3354.13,661.109 C3354.13,665.138 3356.8,667.152 3362.15,667.152 C3364.71,667.152 3368,666.3 3372.03,664.595"/>
<path class="Note" d="M3406.19,712.167 C3406.19,721.077 3396.04,740.639 3375.75,770.854 C3367.69,782.862 3356.11,791.655 3341,797.234 C3329.84,801.417 3316.94,803.509 3302.3,803.509 C3297.57,803.509 3293.39,802.54 3289.75,800.604 C3285.72,798.512 3283.71,796.226 3283.71,793.747 C3283.71,787.317 3287.15,784.102 3294.05,784.102 C3295.06,784.102 3295.56,784.721 3295.56,785.961 C3295.56,787.046 3295.06,788.247 3294.05,789.564 C3292.81,791.191 3292.19,792.391 3292.19,793.166 C3292.19,795.49 3295.68,796.652 3302.65,796.652 C3318.3,796.652 3330.66,794.754 3339.72,790.958 C3349.17,787.084 3358.58,777.206 3367.96,761.324 L3370.63,756.327 C3366.14,759.736 3361.68,761.441 3357.27,761.441 C3346.27,761.441 3340.77,756.986 3340.77,748.076 C3340.77,738.47 3347.23,728.359 3360.17,717.745 C3370.32,709.533 3379.35,705.427 3387.25,705.427 C3391.2,705.427 3394.49,706.473 3397.13,708.565 C3398.06,707.867 3399.22,707.519 3400.61,707.519 C3404.33,707.519 3406.19,709.068 3406.19,712.167 M3372.03,753.887 L3393.99,713.329 C3392.29,712.942 3390.39,712.748 3388.3,712.748 C3380.78,712.748 3373.5,717.125 3366.45,725.88 C3358.24,736.107 3354.13,744.28 3354.13,750.401 C3354.13,754.429 3356.8,756.443 3362.15,756.443 C3364.71,756.443 3368,755.591 3372.03,753.887"/>
<path class="Clef" transform="matrix(2.3811,0,0,2.3811,212.156,2196.89)" d="M25.4,-25.1 C17.8,-25.1 11.7,-20.7 11.6,-20.7 C5.8,-16.4 3.5,-11.3 2.6,-7.8 C2.1,-6 1.9,-4.2 1.9,-2.5 C1.9,-0.1 2.3,2.1 3.2,4 C4.4,6.7 6.7,8.6 9.7,9.6 C10.9,10 12.2,10.2 13.5,10.2 C15.7,10.2 18,9.6 19.9,8.5 C23,6.8 24.9,3.2 24.9,-0.7 C24.9,-4.2 23.1,-7.4 20.1,-9.3 C18,-10.7 16,-11.1 14.3,-11.1 C13.1,-11.1 12,-10.9 11.1,-10.6 C10.1,-10.2 8.4,-9.2 7.6,-8.5 C7.9,-10.4 9.1,-13.3 10.2,-14.9 C11.3,-16.5 13.5,-18.5 15.2,-19.4 C17.7,-20.8 20.9,-21.4 24.4,-21.4 C34.6,-21.4 39.6,-13.2 39.6,3.6 C39.6,12.9 36.1,21.8 33.1,27.7 C29.8,34.3 25.4,40.6 21.5,44.1 C11.1,53.6 1.3,58.1 1.2,58.1 C1.2,58.1 -0.3,59 0.1,60.5 C0.4,61.5 1.3,61.7 1.9,61.7 C2,61.7 2.3,61.6 2.4,61.6 C2.5,61.6 13.9,56.9 23,49.8 C28.1,46.1 32.7,42.1 36.7,37.8 C40.3,33.9 43.4,29.7 45.9,25.5 C50.3,18 52.8,10.2 52.8,3.5 C52.8,-4.8 50.6,-11.7 46.5,-16.6 C41.8,-22.2 34.7,-25.1 25.4,-25.1 M56.8,-12.4 C56.8,-9.6 59,-7.4 61.6,-7.4 C64.2,-7.4 66.4,-9.6 66.4,-12.4 C66.4,-15.2 64.2,-17.5 61.6,-17.5 C59,-17.5 56.8,-15.2 56.8,-12.4 M56.8,12.3 C56.8,15.1 59,17.4 61.6,17.4 C64.2,17.4 66.4,15.1 66.4,12.3 C66.4,9.5 64.2,7.2 61.6,7.2 C59,7.2 56.8,9.5 56.8,12.3"/>
<path class="Clef" transform="matrix(2.3811,0,0,2.3811,212.156,1608.49)" d="M63.37,-5.89004 C62.14,-11.32 59.5,-15.14 58.72,-16.1801 C55.5301,-20.45 51.52,-23.3 46.8301,-24.65 C43.72,-25.54 40.72,-25.65 38.3,-25.47 C37.2601,-31.4801 36.2601,-37.3601 35.35,-42.8101 C40.79,-48.97 44.42,-54.77 46.69,-59.07 C50.1601,-65.65 51.3101,-70.2301 51.3601,-70.4301 C53.0801,-75.64 53.44,-83.34 52.34,-91.55 C51.3301,-99.1 49.24,-105.81 46.89,-109.06 C45.8601,-110.49 44.8101,-111.22 43.77,-111.22 C42.55,-111.22 40.04,-109.98 37.15,-107.21 C34.85,-105.01 31.5801,-101.12 29.02,-95.1101 C26.02,-88.05 25.8101,-78.5601 26.1601,-71.84 C26.54,-64.57 27.65,-58.8801 27.6601,-58.8301 C27.6801,-58.74 27.94,-57.24 28.39,-54.67 C28.1601,-54.44 27.92,-54.22 27.67,-53.9801 C26.6301,-52.9801 25.44,-51.84 24.0601,-50.4601 C23.2,-49.6 22.25,-48.69 21.25,-47.72 C12.79,-39.57 0,-27.25 0,-8.1 C0,-3.4 0.9,1.01992 2.68008,5.02998 C4.27002,8.62998 6.57002,11.91 9.5,14.78 C17.2301,22.33 27.82,25.5399 34.8801,25.38 C37.8301,25.31 40.4601,25.0699 42.85,24.6199 C44.6801,34.2199 45.82,41.25 45.8601,46.5899 C45.9,53.1 44.25,57.0699 40.35,59.8399 C37.92,61.5699 35.1101,62.5199 32.0101,62.6699 C29.42,62.7899 27.1601,62.3199 25.7301,61.91 L25.72,61.91 C25.72,61.91 25.4301,61.83 25.42,61.63 C25.4101,61.45 25.7601,61.4 25.77,61.4 L25.79,61.4 C27.7101,60.96 31.2801,59.73 33.64,56.43 C35.44,53.91 36.3101,49.2899 34.47,45.35 C33.3601,42.96 30.85,40.01 25.2301,39.56 C22.74,39.36 20.47,39.8699 18.47,41.0699 C16.6601,42.15 15.1601,43.7899 14.1101,45.7899 C11.65,50.4899 12.1101,56.2199 15.24,60.06 C18.2,63.68 22.82,65.9899 28.25,66.5699 C29.1,66.66 29.95,66.7 30.8,66.7 C31.5101,66.7 32.22,66.6699 32.92,66.61 C31.72,66.9399 30.64,67.4899 29.77,68.25 C28.2801,69.5399 27.44,71.38 27.44,73.41 C27.44,75.28 28.0601,76.65 29.55,78.0399 C28.4101,78.5 27.55,78.98 26.79,79.56 C25.25,80.73 24.34,82.46 24.34,84.1899 C24.34,87.45 27.3,89.63 31.72,89.63 C37.1301,89.63 40.9101,86.63 40.9101,82.35 C40.9101,80.1199 39.9101,78.18 38.0801,76.83 C41.0101,75.6199 42.37,73.9399 42.37,71.56 C42.39,70.05 41.69,68.61 40.49,67.6899 C39.2801,66.7399 37.62,66.2399 35.69,66.2399 L35.5101,66.2399 C38.2801,65.7 40.92,64.7 43.2101,63.28 C46.87,60.71 48.99,56.73 49.67,51.1 C50.2301,46.46 49.84,40.55 48.44,32.48 C48.0801,30.3899 47.54,27.36 46.8801,23.6 C52.6301,21.68 56.79,18.11 60.5601,12.26 C63.85,6.51992 64.8,0.419922 63.37,-5.89004 M32.39,87.5399 C30.19,87.5399 28.7301,86.1199 28.7301,84.01 C28.7301,82.11 29.65,80.5 31.32,79.4699 C31.6801,79.66 31.77,79.71 32.1101,79.88 C33.3,80.48 33.3,80.48 33.55,80.63 L33.5601,80.6399 C35.47,81.73 36.25,82.76 36.25,84.18 C36.24,86.0899 34.59,87.5399 32.39,87.5399 M38.3101,71.63 C38.3101,73.2699 37.7301,74.3399 36.1801,75.53 C34.74,74.78 34.35,74.56 33.9801,74.3399 L33.8801,74.28 C32.3301,73.3399 31.85,72.66 31.85,71.4 C31.85,69.6 33.2301,68.3399 35.19,68.3399 C37.17,68.35 38.3101,69.55 38.3101,71.63 M33.15,-83.8101 C34.9301,-89.55 37.67,-92.8 39.6601,-94.5301 C41.4101,-96.05 43.0601,-96.7601 43.9801,-96.7601 C44.12,-96.7601 44.24,-96.74 44.34,-96.7101 C44.8,-96.57 45.3301,-96 45.8,-95.1301 C48.1101,-90.84 47.37,-84.1301 46.0301,-79.69 C44.4,-74.29 41.4801,-68.6801 32.69,-59.0601 C32.52,-60.17 32.3601,-61.22 32.2101,-62.2 C30.95,-70.49 31.27,-77.7601 33.15,-83.8101 M29.15,20.31 C24.5101,19.0899 20.0801,16.5899 16.32,13.0899 C15.0101,11.86 13.14,9.68994 11.67,6.3 C10.3101,3.13994 9.65,-0.290039 9.7,-3.88008 C9.77002,-8.57002 11.0801,-13.39 13.59,-18.1801 C16.5101,-23.7601 21.07,-29.29 27.1301,-34.62 C28.5801,-35.9 29.95,-37.1801 31.24,-38.4601 C32,-34.2 32.8301,-29.5101 33.7101,-24.6301 C29.8601,-23.3601 25.1101,-20.2101 22,-14.5601 C18.47,-7.99004 18.6101,-2.47002 19.34,1.00996 C20.2801,5.46992 22.8101,9.22998 26.27,11.3199 C27.2,11.88 31.3301,14.01 33.17,13.43 C33.54,13.31 33.8101,13.0899 33.95,12.76 C34.4601,11.5899 33.44,10.95 31.8801,9.98994 C31.2801,9.61992 30.6101,9.2 29.8801,8.66992 C26.5601,6.17998 25.1101,1.72998 26.1801,-2.65 C26.7601,-5.05 28.04,-7.21006 29.8801,-8.91006 C31.55,-10.4601 33.59,-11.5601 35.97,-12.2 C38.0101,-0.960059 40.07,10.1899 41.7101,18.55 C41.84,19.2399 41.9801,19.91 42.1101,20.58 C37.7101,21.51 33.37,21.4199 29.15,20.31 M54.9,10.1 C53.7301,13.28 51.27,17.35 46.14,19.41 C46.07,18.9899 45.99,18.56 45.9101,18.13 C44.3601,9.36992 42.4301,-1.61006 40.47,-12.87 C50.82,-13.35 55.09,-5.91006 55.9801,-1.08008 C56.45,1.45 56.45,5.88994 54.9,10.1"/>
<path class="KeySig" transform="matrix(2.3811,0,0,2.3811,429.785,2315.94)" d="M20.1,-7.9 C19.5,-11.8 17.1,-15.5 12,-15.5 C7,-15.5 4.1,-12.4 3.6,-11.8 L4,-43.9 C4,-44.7 3.4,-45.3 2.6,-45.3 L1.4,-45.3 C0.6,-45.3 0,-44.7 0,-43.9 L0.5,16.2 C0.5,17 1.1,17.6 1.9,17.6 C2.1,17.6 2.5,17.5 2.7,17.4 C3.1,17.2 9.6,14 15,7.9 C18.8,3.6 20.3,-1.3 20.3,-5.4 C20.3,-6.3 20.2,-7.1 20.1,-7.9 M13.2,-4 C13.2,-2.5 12.8,2.1 10.3,5.9 C8.6,8.5 5.2,11.2 3.3,12.7 L3.6,-6.8 C3.8,-7.7 5.3,-10.6 9.3,-10.6 C12.9,-10.6 13.2,-7.2 13.2,-5.1 L13.2,-4 "/>
<path class="KeySig" transform="matrix(2.3811,0,0,2.3811,429.785,1548.96)" d="M20.1,-7.9 C19.5,-11.8 17.1,-15.5 12,-15.5 C7,-15.5 4.1,-12.4 3.6,-11.8 L4,-43.9 C4,-44.7 3.4,-45.3 2.6,-45.3 L1.4,-45.3 C0.6,-45.3 0,-44.7 0,-43.9 L0.5,16.2 C0.5,17 1.1,17.6 1.9,17.6 C2.1,17.6 2.5,17.5 2.7,17.4 C3.1,17.2 9.6,14 15,7.9 C18.8,3.6 20.3,-1.3 20.3,-5.4 C20.3,-6.3 20.2,-7.1 20.1,-7.9 M13.2,-4 C13.2,-2.5 12.8,2.1 10.3,5.9 C8.6,8.5 5.2,11.2 3.3,12.7 L3.6,-6.8 C3.8,-7.7 5.3,-10.6 9.3,-10.6 C12.9,-10.6 13.2,-7.2 13.2,-5.1 L13.2,-4 "/>
<path class="FiguredBass" d="M1549.75,2510.66 C1545.18,2510.66 1542.13,2512.5 1540.62,2516.18 C1539.1,2519.86 1538.34,2525.07 1538.34,2531.81 L1538.34,2542.76 C1541.56,2541.46 1544.34,2540.78 1546.69,2540.72 C1554.73,2540.72 1561.06,2542.49 1565.66,2546.05 C1570.27,2549.61 1572.58,2554.9 1572.58,2561.92 C1572.58,2568.94 1570.24,2574.24 1565.57,2577.83 C1560.9,2581.41 1554.61,2583.21 1546.69,2583.21 C1538.59,2583.21 1532.25,2579.45 1527.67,2571.93 C1523.1,2564.42 1520.81,2555.5 1520.81,2545.17 C1520.81,2534.9 1523.47,2526 1528.79,2518.45 C1534.11,2510.91 1541.09,2507.13 1549.75,2507.13 C1555.44,2507.13 1560.36,2508.57 1564.5,2511.45 C1568.65,2514.32 1570.72,2518.11 1570.72,2522.81 C1570.72,2525.53 1569.73,2527.88 1567.75,2529.86 C1565.77,2531.84 1563.41,2532.83 1560.65,2532.83 C1557.9,2532.83 1555.54,2531.84 1553.56,2529.86 C1551.58,2527.88 1550.59,2525.53 1550.59,2522.81 C1550.59,2520.15 1551.58,2517.8 1553.56,2515.76 C1554.24,2514.96 1555.2,2514.28 1556.43,2513.72 C1556.12,2512.92 1555.51,2512.3 1554.58,2511.86 C1553.22,2511.06 1551.61,2510.66 1549.75,2510.66 M1554.3,2548.6 C1553.19,2545.7 1550.74,2544.24 1546.97,2544.24 C1543.2,2544.24 1540.86,2545.7 1539.97,2548.6 C1539.07,2551.51 1538.62,2555.93 1538.62,2561.87 C1538.62,2568.86 1539.07,2573.56 1539.97,2575.97 C1540.86,2578.38 1543.2,2579.59 1546.97,2579.59 C1550.74,2579.59 1553.19,2578.14 1554.3,2575.23 C1555.41,2572.32 1555.97,2567.88 1555.97,2561.92 C1555.97,2555.95 1555.41,2551.51 1554.3,2548.6"/>
<path class="FiguredBass" d="M3360.5,2510.66 C3355.92,2510.66 3352.88,2512.5 3351.36,2516.18 C3349.85,2519.86 3349.09,2525.07 3349.09,2531.81 L3349.09,2542.76 C3352.31,2541.46 3355.09,2540.78 3357.44,2540.72 C3365.48,2540.72 3371.8,2542.49 3376.41,2546.05 C3381.02,2549.61 3383.32,2554.9 3383.32,2561.92 C3383.32,2568.94 3380.99,2574.24 3376.32,2577.83 C3371.65,2581.41 3365.36,2583.21 3357.44,2583.21 C3349.34,2583.21 3343,2579.45 3338.42,2571.93 C3333.84,2564.42 3331.56,2555.5 3331.56,2545.17 C3331.56,2534.9 3334.21,2526 3339.53,2518.45 C3344.85,2510.91 3351.84,2507.13 3360.5,2507.13 C3366.19,2507.13 3371.11,2508.57 3375.25,2511.45 C3379.4,2514.32 3381.47,2518.11 3381.47,2522.81 C3381.47,2525.53 3380.48,2527.88 3378.5,2529.86 C3376.52,2531.84 3374.15,2532.83 3371.4,2532.83 C3368.65,2532.83 3366.28,2531.84 3364.3,2529.86 C3362.33,2527.88 3361.34,2525.53 3361.34,2522.81 C3361.34,2520.15 3362.33,2517.8 3364.3,2515.76 C3364.98,2514.96 3365.94,2514.28 3367.18,2513.72 C3366.87,2512.92 3366.25,2512.3 3365.33,2511.86 C3363.96,2511.06 3362.36,2510.66 3360.5,2510.66 M3365.05,2548.6 C3363.93,2545.7 3361.49,2544.24 3357.72,2544.24 C3353.94,2544.24 3351.61,2545.7 3350.71,2548.6 C3349.82,2551.51 3349.37,2555.93 3349.37,2561.87 C3349.37,2568.86 3349.82,2573.56 3350.71,2575.97 C3351.61,2578.38 3353.94,2579.59 3357.72,2579.59 C3361.49,2579.59 3363.93,2578.14 3365.05,2575.23 C3366.16,2572.32 3366.72,2567.88 3366.72,2561.92 C3366.72,2555.95 3366.16,2551.51 3365.05,2548.6"/>
<path class="FiguredBass" d="M1561.63,1835.4 C1561.63,1836.39 1562.19,1837.35 1563.3,1838.27 C1564.41,1839.2 1565.63,1840.08 1566.96,1840.92 C1568.29,1841.75 1569.51,1843.33 1570.63,1845.65 C1571.74,1847.97 1572.3,1850.89 1572.3,1854.42 C1572.3,1861.22 1569.73,1866.48 1564.6,1870.19 C1559.46,1873.9 1552.97,1875.75 1545.12,1875.75 C1538.81,1875.75 1533.32,1874.18 1528.65,1871.02 C1523.98,1867.87 1521.64,1863.72 1521.64,1858.59 C1521.64,1855.87 1522.63,1853.5 1524.61,1851.49 C1526.59,1849.48 1528.96,1848.48 1531.71,1848.48 C1534.46,1848.48 1536.8,1849.47 1538.71,1851.45 C1540.63,1853.43 1541.59,1855.81 1541.59,1858.59 C1541.59,1859.83 1540.57,1861.17 1538.53,1862.63 C1536.49,1864.08 1535.47,1865.43 1535.47,1866.66 C1535.47,1868.58 1536.41,1869.99 1538.3,1870.88 C1540.18,1871.78 1542.46,1872.23 1545.12,1872.23 C1548.58,1872.23 1551.04,1870.51 1552.49,1867.08 C1553.94,1863.65 1554.67,1859.43 1554.67,1854.42 L1554.67,1852 C1554.67,1848.66 1554.56,1846.13 1554.35,1844.4 C1554.13,1842.66 1553.45,1841.12 1552.3,1839.76 C1551.16,1838.4 1549.41,1837.72 1547.06,1837.72 L1534.91,1837.72 C1533.49,1837.72 1532.78,1836.94 1532.78,1835.4 C1532.78,1833.97 1533.49,1833.26 1534.91,1833.26 L1547.06,1833.26 C1549.6,1833.26 1551.58,1832.3 1553,1830.39 C1553.5,1829.71 1553.9,1828.59 1554.21,1827.05 C1554.52,1825.01 1554.67,1822.07 1554.67,1818.23 L1554.67,1817.03 C1554.67,1807.81 1551.27,1803.2 1544.47,1803.2 C1538.47,1803.2 1535.47,1804.87 1535.47,1808.21 C1535.47,1809.33 1536.38,1810.52 1538.2,1811.79 C1540.03,1813.05 1540.94,1814.24 1540.94,1815.36 C1540.94,1817.77 1540.09,1819.84 1538.39,1821.57 C1536.69,1823.31 1534.62,1824.17 1532.17,1824.17 C1529.73,1824.17 1527.67,1823.31 1526,1821.57 C1524.33,1819.84 1523.5,1817.77 1523.5,1815.36 C1523.5,1810.6 1525.57,1806.79 1529.71,1803.95 C1533.86,1801.1 1538.78,1799.68 1544.47,1799.68 C1551.95,1799.68 1558.1,1801.12 1562.93,1803.99 C1567.75,1806.87 1570.16,1811.21 1570.16,1817.03 C1570.16,1821.17 1569.73,1824.39 1568.87,1826.68 C1568,1828.97 1567.01,1830.36 1565.9,1830.85 C1564.78,1831.35 1563.79,1831.92 1562.93,1832.57 C1562.06,1833.22 1561.63,1834.16 1561.63,1835.4"/>
<path class="FiguredBass" d="M1549.75,1908.95 C1545.18,1908.95 1542.13,1910.79 1540.62,1914.47 C1539.1,1918.15 1538.34,1923.37 1538.34,1930.11 L1538.34,1941.05 C1541.56,1939.76 1544.34,1939.08 1546.69,1939.01 C1554.73,1939.01 1561.06,1940.79 1565.66,1944.35 C1570.27,1947.9 1572.58,1953.19 1572.58,1960.21 C1572.58,1967.23 1570.24,1972.54 1565.57,1976.12 C1560.9,1979.71 1554.61,1981.5 1546.69,1981.5 C1538.59,1981.5 1532.25,1977.75 1527.67,1970.23 C1523.1,1962.72 1520.81,1953.8 1520.81,1943.47 C1520.81,1933.2 1523.47,1924.29 1528.79,1916.75 C1534.11,1909.2 1541.09,1905.43 1549.75,1905.43 C1555.44,1905.43 1560.36,1906.87 1564.5,1909.74 C1568.65,1912.62 1570.72,1916.41 1570.72,1921.11 C1570.72,1923.83 1569.73,1926.18 1567.75,1928.16 C1565.77,1930.14 1563.41,1931.13 1560.65,1931.13 C1557.9,1931.13 1555.54,1930.14 1553.56,1928.16 C1551.58,1926.18 1550.59,1923.83 1550.59,1921.11 C1550.59,1918.45 1551.58,1916.1 1553.56,1914.06 C1554.24,1913.25 1555.2,1912.57 1556.43,1912.02 C1556.12,1911.21 1555.51,1910.59 1554.58,1910.16 C1553.22,1909.36 1551.61,1908.95 1549.75,1908.95 M1554.3,1946.9 C1553.19,1943.99 1550.74,1942.54 1546.97,1942.54 C1543.2,1942.54 1540.86,1943.99 1539.97,1946.9 C1539.07,1949.81 1538.62,1954.23 1538.62,1960.17 C1538.62,1967.15 1539.07,1971.86 1539.97,1974.27 C1540.86,1976.68 1543.2,1977.89 1546.97,1977.89 C1550.74,1977.89 1553.19,1976.43 1554.3,1973.53 C1555.41,1970.62 1555.97,1966.18 1555.97,1960.21 C1555.97,1954.24 1555.41,1949.81 1554.3,1946.9"/>
<path class="FiguredBass" d="M1561.63,2046.9 C1561.63,2047.89 1562.19,2048.85 1563.3,2049.77 C1564.41,2050.7 1565.63,2051.58 1566.96,2052.42 C1568.29,2053.25 1569.51,2054.83 1570.63,2057.15 C1571.74,2059.47 1572.3,2062.39 1572.3,2065.92 C1572.3,2072.72 1569.73,2077.98 1564.6,2081.69 C1559.46,2085.4 1552.97,2087.25 1545.12,2087.25 C1538.81,2087.25 1533.32,2085.68 1528.65,2082.52 C1523.98,2079.37 1521.64,2075.22 1521.64,2070.09 C1521.64,2067.37 1522.63,2065 1524.61,2062.99 C1526.59,2060.98 1528.96,2059.98 1531.71,2059.98 C1534.46,2059.98 1536.8,2060.97 1538.71,2062.95 C1540.63,2064.93 1541.59,2067.31 1541.59,2070.09 C1541.59,2071.33 1540.57,2072.67 1538.53,2074.13 C1536.49,2075.58 1535.47,2076.93 1535.47,2078.16 C1535.47,2080.08 1536.41,2081.49 1538.3,2082.38 C1540.18,2083.28 1542.46,2083.73 1545.12,2083.73 C1548.58,2083.73 1551.04,2082.01 1552.49,2078.58 C1553.94,2075.15 1554.67,2070.93 1554.67,2065.92 L1554.67,2063.5 C1554.67,2060.16 1554.56,2057.63 1554.35,2055.9 C1554.13,2054.16 1553.45,2052.62 1552.3,2051.26 C1551.16,2049.9 1549.41,2049.22 1547.06,2049.22 L1534.91,2049.22 C1533.49,2049.22 1532.78,2048.44 1532.78,2046.9 C1532.78,2045.47 1533.49,2044.76 1534.91,2044.76 L1547.06,2044.76 C1549.6,2044.76 1551.58,2043.8 1553,2041.89 C1553.5,2041.21 1553.9,2040.09 1554.21,2038.55 C1554.52,2036.51 1554.67,2033.57 1554.67,2029.73 L1554.67,2028.53 C1554.67,2019.31 1551.27,2014.7 1544.47,2014.7 C1538.47,2014.7 1535.47,2016.37 1535.47,2019.71 C1535.47,2020.83 1536.38,2022.02 1538.2,2023.29 C1540.03,2024.55 1540.94,2025.74 1540.94,2026.86 C1540.94,2029.27 1540.09,2031.34 1538.39,2033.07 C1536.69,2034.81 1534.62,2035.67 1532.17,2035.67 C1529.73,2035.67 1527.67,2034.81 1526,2033.07 C1524.33,2031.34 1523.5,2029.27 1523.5,2026.86 C1523.5,2022.1 1525.57,2018.29 1529.71,2015.45 C1533.86,2012.6 1538.78,2011.18 1544.47,2011.18 C1551.95,2011.18 1558.1,2012.62 1562.93,2015.49 C1567.75,2018.37 1570.16,2022.71 1570.16,2028.53 C1570.16,2032.67 1569.73,2035.89 1568.87,2038.18 C1568,2040.47 1567.01,2041.86 1565.9,2042.35 C1564.78,2042.85 1563.79,2043.42 1562.93,2044.07 C1562.06,2044.72 1561.63,2045.66 1561.63,2046.9"/>
<path class="FiguredBass" d="M3372.38,1835.4 C3372.38,1836.39 3372.93,1837.35 3374.05,1838.27 C3375.16,1839.2 3376.38,1840.08 3377.71,1840.92 C3379.04,1841.75 3380.26,1843.33 3381.37,1845.65 C3382.49,1847.97 3383.04,1850.89 3383.04,1854.42 C3383.04,1861.22 3380.48,1866.48 3375.34,1870.19 C3370.21,1873.9 3363.72,1875.75 3355.86,1875.75 C3349.55,1875.75 3344.06,1874.18 3339.39,1871.02 C3334.73,1867.87 3332.39,1863.72 3332.39,1858.59 C3332.39,1855.87 3333.38,1853.5 3335.36,1851.49 C3337.34,1849.48 3339.7,1848.48 3342.46,1848.48 C3345.21,1848.48 3347.54,1849.47 3349.46,1851.45 C3351.38,1853.43 3352.34,1855.81 3352.34,1858.59 C3352.34,1859.83 3351.32,1861.17 3349.28,1862.63 C3347.23,1864.08 3346.21,1865.43 3346.21,1866.66 C3346.21,1868.58 3347.16,1869.99 3349.04,1870.88 C3350.93,1871.78 3353.2,1872.23 3355.86,1872.23 C3359.33,1872.23 3361.78,1870.51 3363.24,1867.08 C3364.69,1863.65 3365.42,1859.43 3365.42,1854.42 L3365.42,1852 C3365.42,1848.66 3365.31,1846.13 3365.09,1844.4 C3364.88,1842.66 3364.2,1841.12 3363.05,1839.76 C3361.91,1838.4 3360.16,1837.72 3357.81,1837.72 L3345.66,1837.72 C3344.23,1837.72 3343.52,1836.94 3343.52,1835.4 C3343.52,1833.97 3344.23,1833.26 3345.66,1833.26 L3357.81,1833.26 C3360.35,1833.26 3362.33,1832.3 3363.75,1830.39 C3364.24,1829.71 3364.64,1828.59 3364.95,1827.05 C3365.26,1825.01 3365.42,1822.07 3365.42,1818.23 L3365.42,1817.03 C3365.42,1807.81 3362.02,1803.2 3355.21,1803.2 C3349.21,1803.2 3346.21,1804.87 3346.21,1808.21 C3346.21,1809.33 3347.13,1810.52 3348.95,1811.79 C3350.78,1813.05 3351.69,1814.24 3351.69,1815.36 C3351.69,1817.77 3350.84,1819.84 3349.14,1821.57 C3347.44,1823.31 3345.36,1824.17 3342.92,1824.17 C3340.48,1824.17 3338.42,1823.31 3336.75,1821.57 C3335.08,1819.84 3334.25,1817.77 3334.25,1815.36 C3334.25,1810.6 3336.32,1806.79 3340.46,1803.95 C3344.61,1801.1 3349.52,1799.68 3355.21,1799.68 C3362.7,1799.68 3368.85,1801.12 3373.67,1803.99 C3378.5,1806.87 3380.91,1811.21 3380.91,1817.03 C3380.91,1821.17 3380.48,1824.39 3379.61,1826.68 C3378.75,1828.97 3377.76,1830.36 3376.64,1830.85 C3375.53,1831.35 3374.54,1831.92 3373.67,1832.57 C3372.81,1833.22 3372.38,1834.16 3372.38,1835.4"/>
<path class="FiguredBass" d="M3360.5,1908.95 C3355.92,1908.95 3352.88,1910.79 3351.36,1914.47 C3349.85,1918.15 3349.09,1923.37 3349.09,1930.11 L3349.09,1941.05 C3352.31,1939.76 3355.09,1939.08 3357.44,1939.01 C3365.48,1939.01 3371.8,1940.79 3376.41,1944.35 C3381.02,1947.9 3383.32,1953.19 3383.32,1960.21 C3383.32,1967.23 3380.99,1972.54 3376.32,1976.12 C3371.65,1979.71 3365.36,1981.5 3357.44,1981.5 C3349.34,1981.5 3343,1977.75 3338.42,1970.23 C3333.84,1962.72 3331.56,1953.8 3331.56,1943.47 C3331.56,1933.2 3334.21,1924.29 3339.53,1916.75 C3344.85,1909.2 3351.84,1905.43 3360.5,1905.43 C3366.19,1905.43 3371.11,1906.87 3375.25,1909.74 C3379.4,1912.62 3381.47,1916.41 3381.47,1921.11 C3381.47,1923.83 3380.48,1926.18 3378.5,1928.16 C3376.52,1930.14 3374.15,1931.13 3371.4,1931.13 C3368.65,1931.13 3366.28,1930.14 3364.3,1928.16 C3362.33,1926.18 3361.34,1923.83 3361.34,1921.11 C3361.34,1918.45 3362.33,1916.1 3364.3,1914.06 C3364.98,1913.25 3365.94,1912.57 3367.18,1912.02 C3366.87,1911.21 3366.25,1910.59 3365.33,1910.16 C3363.96,1909.36 3362.36,1908.95 3360.5,1908.95 M3365.05,1946.9 C3363.93,1943.99 3361.49,1942.54 3357.72,1942.54 C3353.94,1942.54 3351.61,1943.99 3350.71,1946.9 C3349.82,1949.81 3349.37,1954.23 3349.37,1960.17 C3349.37,1967.15 3349.82,1971.86 3350.71,1974.27 C3351.61,1976.68 3353.94,1977.89 3357.72,1977.89 C3361.49,1977.89 3363.93,1976.43 3365.05,1973.53 C3366.16,1970.62 3366.72,1966.18 3366.72,1960.21 C3366.72,1954.24 3366.16,1949.81 3365.05,1946.9"/>
<polyline class="FretDiagram" stroke="#0000ff" stroke-width="4.76" stroke-linejoin="bevel" points="3256.88,206.022 3469.99,206.022"/>
<polyline class="FretDiagram" stroke="#0000ff" stroke-width="4.76" stroke-linejoin="bevel" points="3259.26,194.117 3259.26,420.321"/>
<polyline class="FretDiagram" stroke="#0000ff" stroke-width="4.76" stroke-linejoin="bevel" points="3300.93,194.117 3300.93,420.321"/>
<polyline class="FretDiagram" stroke="#0000ff" stroke-width="4.76" stroke-linejoin="bevel" points="3342.6,194.117 3342.6,420.321"/>
<polyline class="FretDiagram" stroke="#0000ff" stroke-width="4.76" stroke-linejoin="bevel" points="3384.27,194.117 3384.27,420.321"/>
<polyline class="FretDiagram" stroke="#0000ff" stroke-width="4.76" stroke-linejoin="bevel" points="3425.94,194.117 3425.94,420.321"/>
<polyline class="FretDiagram" stroke="#0000ff" stroke-width="4.76" stroke-linejoin="bevel" points="3467.61,194.117 3467.61,420.321"/>
<polyline class="FretDiagram" stroke="#0000ff" stroke-width="4.76" stroke-linejoin="bevel" points="3259.26,253.644 3467.61,253.644"/>
<polyline class="FretDiagram" stroke="#0000ff" stroke-width="4.76" stroke-linejoin="bevel" points="3259.26,301.266 3467.61,301.266"/>
<polyline class="FretDiagram" stroke="#0000ff" stroke-width="4.76" stroke-linejoin="bevel" points="3259.26,348.888 3467.61,348.888"/>
<polyline class="FretDiagram" stroke="#0000ff" stroke-width="4.76" stroke-linejoin="bevel" points="3259.26,396.51 3467.61,396.51"/>
<path class="FretDiagram" fill="#0000ff" fill-rule="evenodd" d="M3273.85,229.833 C3273.85,237.888 3267.32,244.417 3259.26,244.417 C3251.21,244.417 3244.68,237.888 3244.68,229.833 C3244.68,221.778 3251.21,215.249 3259.26,215.249 C3267.32,215.249 3273.85,221.778 3273.85,229.833"/>
<path class="FretDiagram" fill="#0000ff" fill-rule="evenodd" d="M3398.85,277.455 C3398.85,285.51 3392.33,292.039 3384.27,292.039 C3376.22,292.039 3369.69,285.51 3369.69,277.455 C3369.69,269.401 3376.22,262.871 3384.27,262.871 C3392.33,262.871 3398.85,269.401 3398.85,277.455"/>
<path class="FretDiagram" fill="#0000ff" fill-rule="evenodd" d="M3440.52,277.455 C3440.52,285.51 3433.99,292.039 3425.94,292.039 C3417.89,292.039 3411.36,285.51 3411.36,277.455 C3411.36,269.401 3417.89,262.871 3425.94,262.871 C3433.99,262.871 3440.52,269.401 3440.52,277.455"/>
<polyline class="FretDiagram" fill="none" stroke="#0000ff" stroke-width="6.86" stroke-linecap="round" stroke-linejoin="bevel" points="3284.26,141.732 3317.6,175.068"/>
<polyline class="FretDiagram" fill="none" stroke="#0000ff" stroke-width="6.86" stroke-linecap="round" stroke-linejoin="bevel" points="3284.26,175.068 3317.6,141.732"/>
<polyline class="FretDiagram" fill="none" stroke="#0000ff" stroke-width="6.86" stroke-linecap="round" stroke-linejoin="bevel" points="3325.93,141.732 3359.27,175.068"/>
<polyline class="FretDiagram" fill="none" stroke="#0000ff" stroke-width="6.86" stroke-linecap="round" stroke-linejoin="bevel" points="3325.93,175.068 3359.27,141.732"/>
<polyline class="FretDiagram" fill="none" stroke="#0000ff" stroke-width="6.86" stroke-linecap="round" stroke-linejoin="bevel" points="3450.94,141.732 3484.28,175.068"/>
<polyline class="FretDiagram" fill="none" stroke="#0000ff" stroke-width="6.86" stroke-linecap="round" stroke-linejoin="bevel" points="3450.94,175.068 3484.28,141.732"/>
<path class="FretDiagram" fill="#0000ff" d="M3235.01,195.73 L3235.01,203.995 L3206.99,203.995 L3204.33,222.805 C3208.07,220.081 3212.21,218.72 3216.77,218.72 C3223.23,218.72 3228.47,220.794 3232.5,224.942 C3236.52,229.09 3238.53,234.49 3238.53,241.14 C3238.53,248.233 3236.38,254.028 3232.07,258.525 C3227.76,263.021 3222.22,265.27 3215.44,265.27 C3212.85,265.27 3210.46,264.985 3208.27,264.415 C3206.09,263.845 3204.28,263.164 3202.86,262.372 C3201.43,261.58 3200.13,260.535 3198.96,259.237 C3197.79,257.939 3196.9,256.799 3196.3,255.817 C3195.7,254.835 3195.13,253.6 3194.59,252.112 C3194.05,250.624 3193.72,249.595 3193.59,249.025 C3193.47,248.455 3193.31,247.631 3193.12,246.555 L3201.48,246.555 C3203.44,254.091 3208.03,257.86 3215.25,257.86 C3219.81,257.86 3223.41,256.466 3226.04,253.68 C3228.66,250.893 3229.98,247.093 3229.98,242.28 C3229.98,237.276 3228.65,233.334 3225.99,230.452 C3223.33,227.57 3219.75,226.13 3215.25,226.13 C3212.66,226.13 3210.44,226.589 3208.6,227.507 C3206.77,228.425 3204.87,230.056 3202.9,232.4 L3195.21,232.4 L3200.24,195.73 L3235.01,195.73 "/>
<path class="Bracket" transform="matrix(8.6315,0,0,9.45563,76.1283,2375.47)" d="M0.92002,-50 C2.69004,-51.88 6.2,-55.8 6.2,-63 C6.2,-72.1 2.25996,-81.32 2.25996,-86.97 C2.25996,-93.06 5.84004,-98.84 5.95,-99 C6.05996,-99.16 6.05,-99.39 5.94004,-99.46 C5.82998,-99.53 5.62002,-99.47 5.49004,-99.32 C5.35996,-99.17 0,-93.75 0,-85.6 C0,-76.75 3.5,-70.58 3.5,-59.07 C3.5,-56.89 2.55996,-53.36 0.1,-50.33 C-0.0799805,-50.17 -0.1,-49.89 0.0599609,-49.7 L0.0700195,-49.69 L0.1,-49.66 C2.55996,-46.63 3.5,-43.1 3.5,-40.92 C3.5,-29.4 0,-23.24 0,-14.39 C0,-6.25 5.35996,-0.8 5.49004,-0.659961 C5.62002,-0.52002 5.8,-0.42998 5.94004,-0.52002 C6.07998,-0.609961 6.07998,-0.77998 5.95,-0.97998 C5.82002,-1.17998 2.25996,-6.92002 2.25996,-13.01 C2.25996,-18.66 6.2,-27.9 6.2,-37 C6.2,-44.3 2.69004,-48.12 0.92002,-50"/>
</svg>
