<?xml version="1.0" encoding="UTF-8" standalone="no"?>
<svg width="4209.44px" height="2976.38px" viewBox="0 0 4209.44 2976.38"
 xmlns="http://www.w3.org/2000/svg" xmlns:xlink="http://www.w3.org/1999/xlink" version="1.2" baseProfile="tiny">
<title>FaMajeur (9)</title>
<desc>Generated by MuseScore 3.6.2</desc>
<polyline class="StaffLines" fill="none" stroke="#000000" stroke-width="6.55" stroke-linejoin="bevel" points="153.819,558.425 4138.58,558.425"/>
<polyline class="StaffLines" fill="none" stroke="#000000" stroke-width="6.55" stroke-linejoin="bevel" points="153.819,647.717 4138.58,647.717"/>
<polyline class="StaffLines" fill="none" stroke="#000000" stroke-width="6.55" stroke-linejoin="bevel" points="153.819,737.008 4138.58,737.008"/>
<polyline class="StaffLines" fill="none" stroke="#000000" stroke-width="6.55" stroke-linejoin="bevel" points="153.819,826.299 4138.58,826.299"/>
<polyline class="StaffLines" fill="none" stroke="#000000" stroke-width="6.55" stroke-linejoin="bevel" points="153.819,915.591 4138.58,915.591"/>
<polyline class="StaffLines" fill="none" stroke="#000000" stroke-width="6.55" stroke-linejoin="bevel" points="153.819,1004.88 4138.58,1004.88"/>
<polyline class="StaffLines" fill="none" stroke="#000000" stroke-width="6.55" stroke-linejoin="bevel" points="153.819,1391.81 4138.58,1391.81"/>
<polyline class="StaffLines" fill="none" stroke="#000000" stroke-width="6.55" stroke-linejoin="bevel" points="153.819,1451.34 4138.58,1451.34"/>
<polyline class="StaffLines" fill="none" stroke="#000000" stroke-width="6.55" stroke-linejoin="bevel" points="153.819,1510.87 4138.58,1510.87"/>
<polyline class="StaffLines" fill="none" stroke="#000000" stroke-width="6.55" stroke-linejoin="bevel" points="153.819,1570.39 4138.58,1570.39"/>
<polyline class="StaffLines" fill="none" stroke="#000000" stroke-width="6.55" stroke-linejoin="bevel" points="153.819,1629.92 4138.58,1629.92"/>
<polyline class="StaffLines" fill="none" stroke="#000000" stroke-width="6.55" stroke-linejoin="bevel" points="153.819,2099.26 4138.58,2099.26"/>
<polyline class="StaffLines" fill="none" stroke="#000000" stroke-width="6.55" stroke-linejoin="bevel" points="153.819,2158.79 4138.58,2158.79"/>
<polyline class="StaffLines" fill="none" stroke="#000000" stroke-width="6.55" stroke-linejoin="bevel" points="153.819,2218.32 4138.58,2218.32"/>
<polyline class="StaffLines" fill="none" stroke="#000000" stroke-width="6.55" stroke-linejoin="bevel" points="153.819,2277.85 4138.58,2277.85"/>
<polyline class="StaffLines" fill="none" stroke="#000000" stroke-width="6.55" stroke-linejoin="bevel" points="153.819,2337.37 4138.58,2337.37"/>
<polyline class="BarLine" fill="none" stroke="#000000" stroke-width="10.71" stroke-linejoin="bevel" points="159.176,2095.99 159.176,2340.65"/>
<polyline class="BarLine" fill="none" stroke="#000000" stroke-width="10.71" stroke-linejoin="bevel" points="1089.44,2095.99 1089.44,2340.65"/>
<polyline class="BarLine" fill="none" stroke="#000000" stroke-width="10.71" stroke-linejoin="bevel" points="1654.47,2095.99 1654.47,2340.65"/>
<polyline class="BarLine" fill="none" stroke="#000000" stroke-width="10.71" stroke-linejoin="bevel" points="2219.5,2095.99 2219.5,2340.65"/>
<polyline class="BarLine" fill="none" stroke="#000000" stroke-width="10.71" stroke-linejoin="bevel" points="2856.34,2095.99 2856.34,2340.65"/>
<polyline class="BarLine" fill="none" stroke="#000000" stroke-width="10.71" stroke-linejoin="bevel" points="3529.57,2095.99 3529.57,2340.65"/>
<polyline class="BarLine" fill="none" stroke="#000000" stroke-width="10.71" stroke-linejoin="bevel" points="4080.54,2095.99 4080.54,2340.65"/>
<polyline class="BarLine" fill="none" stroke="#000000" stroke-width="32.74" stroke-linejoin="bevel" points="4122.21,2095.99 4122.21,2340.65"/>
<polyline class="BarLine" fill="none" stroke="#000000" stroke-width="10.71" stroke-linejoin="bevel" points="159.176,1388.54 159.176,2099.26"/>
<polyline class="BarLine" fill="none" stroke="#000000" stroke-width="10.71" stroke-linejoin="bevel" points="1089.44,1388.54 1089.44,1633.2"/>
<polyline class="BarLine" fill="none" stroke="#000000" stroke-width="10.71" stroke-linejoin="bevel" points="1654.47,1388.54 1654.47,1633.2"/>
<polyline class="BarLine" fill="none" stroke="#000000" stroke-width="10.71" stroke-linejoin="bevel" points="2219.5,1388.54 2219.5,1633.2"/>
<polyline class="BarLine" fill="none" stroke="#000000" stroke-width="10.71" stroke-linejoin="bevel" points="2856.34,1388.54 2856.34,1633.2"/>
<polyline class="BarLine" fill="none" stroke="#000000" stroke-width="10.71" stroke-linejoin="bevel" points="3529.57,1388.54 3529.57,1633.2"/>
<polyline class="BarLine" fill="none" stroke="#000000" stroke-width="10.71" stroke-linejoin="bevel" points="4080.54,1388.54 4080.54,1633.2"/>
<polyline class="BarLine" fill="none" stroke="#000000" stroke-width="32.74" stroke-linejoin="bevel" points="4122.21,1388.54 4122.21,1633.2"/>
<polyline class="BarLine" fill="none" stroke="#000000" stroke-width="10.71" stroke-linejoin="bevel" points="159.176,555.151 159.176,1391.81"/>
<polyline class="BarLine" fill="none" stroke="#000000" stroke-width="10.71" stroke-linejoin="bevel" points="1089.44,555.151 1089.44,1008.16"/>
<polyline class="BarLine" fill="none" stroke="#000000" stroke-width="10.71" stroke-linejoin="bevel" points="1654.47,555.151 1654.47,1008.16"/>
<polyline class="BarLine" fill="none" stroke="#000000" stroke-width="10.71" stroke-linejoin="bevel" points="2219.5,555.151 2219.5,1008.16"/>
<polyline class="BarLine" fill="none" stroke="#000000" stroke-width="10.71" stroke-linejoin="bevel" points="2856.34,555.151 2856.34,1008.16"/>
<polyline class="BarLine" fill="none" stroke="#000000" stroke-width="10.71" stroke-linejoin="bevel" points="3529.57,555.151 3529.57,1008.16"/>
<polyline class="BarLine" fill="none" stroke="#000000" stroke-width="10.71" stroke-linejoin="bevel" points="4080.54,555.151 4080.54,1008.16"/>
<polyline class="BarLine" fill="none" stroke="#000000" stroke-width="32.74" stroke-linejoin="bevel" points="4122.21,555.151 4122.21,1008.16"/>
<polyline class="Stem" fill="none" stroke="#000000" stroke-width="6.55" stroke-linejoin="bevel" points="3018.9,1622.3 3018.9,1302.52"/>
<polyline class="Stem" fill="none" stroke="#000000" stroke-width="6.55" stroke-linejoin="bevel" points="3237.78,1518.87 3237.78,1696.89"/>
<path class="Note" transform="matrix(2.3811,0,0,2.3811,626.933,2158.79)" d="M18.7,-13.6 C4.9,-13.6 0,-6.6 0,-0.1 C0,6.4 4.9,13.4 18.7,13.4 C32.5,13.4 37.3,6.4 37.3,-0.1 C37.3,-6.6 32.5,-13.6 18.7,-13.6 M10.4,-4.5 C10.3,-4.9 10.3,-5.3 10.3,-5.7 C10.3,-6.5 10.5,-7.3 10.9,-8 C11.6,-9 12.8,-9.7 14.3,-10 C15.6,-10.3 16.3,-10.5 18.9,-10.5 L19,-10.5 C23,-10.5 24.3,-6.8 25.4,-3 L25.7,-2 C26.5,0.6 26.9,2.8 26.9,4.5 C26.9,5.7 26.7,6.8 26.3,7.6 C25.7,8.7 24.7,9.4 23,9.8 C22.1,10 20.6,10.1 20.6,10.1 C20.1,10.1 19.7,10.2 19.3,10.2 C16.1,10.2 14.1,9 12.7,4.7 C11.5,1 11.3,-0.1 10.4,-4.5"/>
<path class="Note" transform="matrix(2.3811,0,0,2.3811,1172.18,2248.08)" d="M18.7,-13.6 C4.9,-13.6 0,-6.6 0,-0.1 C0,6.4 4.9,13.4 18.7,13.4 C32.5,13.4 37.3,6.4 37.3,-0.1 C37.3,-6.6 32.5,-13.6 18.7,-13.6 M10.4,-4.5 C10.3,-4.9 10.3,-5.3 10.3,-5.7 C10.3,-6.5 10.5,-7.3 10.9,-8 C11.6,-9 12.8,-9.7 14.3,-10 C15.6,-10.3 16.3,-10.5 18.9,-10.5 L19,-10.5 C23,-10.5 24.3,-6.8 25.4,-3 L25.7,-2 C26.5,0.6 26.9,2.8 26.9,4.5 C26.9,5.7 26.7,6.8 26.3,7.6 C25.7,8.7 24.7,9.4 23,9.8 C22.1,10 20.6,10.1 20.6,10.1 C20.1,10.1 19.7,10.2 19.3,10.2 C16.1,10.2 14.1,9 12.7,4.7 C11.5,1 11.3,-0.1 10.4,-4.5"/>
<path class="Note" transform="matrix(2.3811,0,0,2.3811,1737.21,2248.08)" d="M18.7,-13.6 C4.9,-13.6 0,-6.6 0,-0.1 C0,6.4 4.9,13.4 18.7,13.4 C32.5,13.4 37.3,6.4 37.3,-0.1 C37.3,-6.6 32.5,-13.6 18.7,-13.6 M10.4,-4.5 C10.3,-4.9 10.3,-5.3 10.3,-5.7 C10.3,-6.5 10.5,-7.3 10.9,-8 C11.6,-9 12.8,-9.7 14.3,-10 C15.6,-10.3 16.3,-10.5 18.9,-10.5 L19,-10.5 C23,-10.5 24.3,-6.8 25.4,-3 L25.7,-2 C26.5,0.6 26.9,2.8 26.9,4.5 C26.9,5.7 26.7,6.8 26.3,7.6 C25.7,8.7 24.7,9.4 23,9.8 C22.1,10 20.6,10.1 20.6,10.1 C20.1,10.1 19.7,10.2 19.3,10.2 C16.1,10.2 14.1,9 12.7,4.7 C11.5,1 11.3,-0.1 10.4,-4.5"/>
<path class="Note" transform="matrix(2.3811,0,0,2.3811,2302.25,2248.08)" d="M18.7,-13.6 C4.9,-13.6 0,-6.6 0,-0.1 C0,6.4 4.9,13.4 18.7,13.4 C32.5,13.4 37.3,6.4 37.3,-0.1 C37.3,-6.6 32.5,-13.6 18.7,-13.6 M10.4,-4.5 C10.3,-4.9 10.3,-5.3 10.3,-5.7 C10.3,-6.5 10.5,-7.3 10.9,-8 C11.6,-9 12.8,-9.7 14.3,-10 C15.6,-10.3 16.3,-10.5 18.9,-10.5 L19,-10.5 C23,-10.5 24.3,-6.8 25.4,-3 L25.7,-2 C26.5,0.6 26.9,2.8 26.9,4.5 C26.9,5.7 26.7,6.8 26.3,7.6 C25.7,8.7 24.7,9.4 23,9.8 C22.1,10 20.6,10.1 20.6,10.1 C20.1,10.1 19.7,10.2 19.3,10.2 C16.1,10.2 14.1,9 12.7,4.7 C11.5,1 11.3,-0.1 10.4,-4.5"/>
<path class="Note" transform="matrix(2.3811,0,0,2.3811,2939.09,2248.08)" d="M18.7,-13.6 C4.9,-13.6 0,-6.6 0,-0.1 C0,6.4 4.9,13.4 18.7,13.4 C32.5,13.4 37.3,6.4 37.3,-0.1 C37.3,-6.6 32.5,-13.6 18.7,-13.6 M10.4,-4.5 C10.3,-4.9 10.3,-5.3 10.3,-5.7 C10.3,-6.5 10.5,-7.3 10.9,-8 C11.6,-9 12.8,-9.7 14.3,-10 C15.6,-10.3 16.3,-10.5 18.9,-10.5 L19,-10.5 C23,-10.5 24.3,-6.8 25.4,-3 L25.7,-2 C26.5,0.6 26.9,2.8 26.9,4.5 C26.9,5.7 26.7,6.8 26.3,7.6 C25.7,8.7 24.7,9.4 23,9.8 C22.1,10 20.6,10.1 20.6,10.1 C20.1,10.1 19.7,10.2 19.3,10.2 C16.1,10.2 14.1,9 12.7,4.7 C11.5,1 11.3,-0.1 10.4,-4.5"/>
<path class="Note" transform="matrix(2.3811,0,0,2.3811,3618.03,2158.79)" d="M18.7,-13.6 C4.9,-13.6 0,-6.6 0,-0.1 C0,6.4 4.9,13.4 18.7,13.4 C32.5,13.4 37.3,6.4 37.3,-0.1 C37.3,-6.6 32.5,-13.6 18.7,-13.6 M10.4,-4.5 C10.3,-4.9 10.3,-5.3 10.3,-5.7 C10.3,-6.5 10.5,-7.3 10.9,-8 C11.6,-9 12.8,-9.7 14.3,-10 C15.6,-10.3 16.3,-10.5 18.9,-10.5 L19,-10.5 C23,-10.5 24.3,-6.8 25.4,-3 L25.7,-2 C26.5,0.6 26.9,2.8 26.9,4.5 C26.9,5.7 26.7,6.8 26.3,7.6 C25.7,8.7 24.7,9.4 23,9.8 C22.1,10 20.6,10.1 20.6,10.1 C20.1,10.1 19.7,10.2 19.3,10.2 C16.1,10.2 14.1,9 12.7,4.7 C11.5,1 11.3,-0.1 10.4,-4.5"/>
<path class="Note" transform="matrix(2.3811,0,0,2.3811,626.933,1600.16)" d="M18.7,-13.6 C4.9,-13.6 0,-6.6 0,-0.1 C0,6.4 4.9,13.4 18.7,13.4 C32.5,13.4 37.3,6.4 37.3,-0.1 C37.3,-6.6 32.5,-13.6 18.7,-13.6 M10.4,-4.5 C10.3,-4.9 10.3,-5.3 10.3,-5.7 C10.3,-6.5 10.5,-7.3 10.9,-8 C11.6,-9 12.8,-9.7 14.3,-10 C15.6,-10.3 16.3,-10.5 18.9,-10.5 L19,-10.5 C23,-10.5 24.3,-6.8 25.4,-3 L25.7,-2 C26.5,0.6 26.9,2.8 26.9,4.5 C26.9,5.7 26.7,6.8 26.3,7.6 C25.7,8.7 24.7,9.4 23,9.8 C22.1,10 20.6,10.1 20.6,10.1 C20.1,10.1 19.7,10.2 19.3,10.2 C16.1,10.2 14.1,9 12.7,4.7 C11.5,1 11.3,-0.1 10.4,-4.5"/>
<path class="Note" transform="matrix(2.3811,0,0,2.3811,626.933,1540.63)" d="M18.7,-13.6 C4.9,-13.6 0,-6.6 0,-0.1 C0,6.4 4.9,13.4 18.7,13.4 C32.5,13.4 37.3,6.4 37.3,-0.1 C37.3,-6.6 32.5,-13.6 18.7,-13.6 M10.4,-4.5 C10.3,-4.9 10.3,-5.3 10.3,-5.7 C10.3,-6.5 10.5,-7.3 10.9,-8 C11.6,-9 12.8,-9.7 14.3,-10 C15.6,-10.3 16.3,-10.5 18.9,-10.5 L19,-10.5 C23,-10.5 24.3,-6.8 25.4,-3 L25.7,-2 C26.5,0.6 26.9,2.8 26.9,4.5 C26.9,5.7 26.7,6.8 26.3,7.6 C25.7,8.7 24.7,9.4 23,9.8 C22.1,10 20.6,10.1 20.6,10.1 C20.1,10.1 19.7,10.2 19.3,10.2 C16.1,10.2 14.1,9 12.7,4.7 C11.5,1 11.3,-0.1 10.4,-4.5"/>
<path class="Note" transform="matrix(2.3811,0,0,2.3811,626.933,1481.1)" d="M18.7,-13.6 C4.9,-13.6 0,-6.6 0,-0.1 C0,6.4 4.9,13.4 18.7,13.4 C32.5,13.4 37.3,6.4 37.3,-0.1 C37.3,-6.6 32.5,-13.6 18.7,-13.6 M10.4,-4.5 C10.3,-4.9 10.3,-5.3 10.3,-5.7 C10.3,-6.5 10.5,-7.3 10.9,-8 C11.6,-9 12.8,-9.7 14.3,-10 C15.6,-10.3 16.3,-10.5 18.9,-10.5 L19,-10.5 C23,-10.5 24.3,-6.8 25.4,-3 L25.7,-2 C26.5,0.6 26.9,2.8 26.9,4.5 C26.9,5.7 26.7,6.8 26.3,7.6 C25.7,8.7 24.7,9.4 23,9.8 C22.1,10 20.6,10.1 20.6,10.1 C20.1,10.1 19.7,10.2 19.3,10.2 C16.1,10.2 14.1,9 12.7,4.7 C11.5,1 11.3,-0.1 10.4,-4.5"/>
<path class="Note" transform="matrix(2.3811,0,0,2.3811,1172.18,1629.92)" d="M18.7,-13.6 C4.9,-13.6 0,-6.6 0,-0.1 C0,6.4 4.9,13.4 18.7,13.4 C32.5,13.4 37.3,6.4 37.3,-0.1 C37.3,-6.6 32.5,-13.6 18.7,-13.6 M10.4,-4.5 C10.3,-4.9 10.3,-5.3 10.3,-5.7 C10.3,-6.5 10.5,-7.3 10.9,-8 C11.6,-9 12.8,-9.7 14.3,-10 C15.6,-10.3 16.3,-10.5 18.9,-10.5 L19,-10.5 C23,-10.5 24.3,-6.8 25.4,-3 L25.7,-2 C26.5,0.6 26.9,2.8 26.9,4.5 C26.9,5.7 26.7,6.8 26.3,7.6 C25.7,8.7 24.7,9.4 23,9.8 C22.1,10 20.6,10.1 20.6,10.1 C20.1,10.1 19.7,10.2 19.3,10.2 C16.1,10.2 14.1,9 12.7,4.7 C11.5,1 11.3,-0.1 10.4,-4.5"/>
<path class="Note" transform="matrix(2.3811,0,0,2.3811,1172.18,1570.39)" d="M18.7,-13.6 C4.9,-13.6 0,-6.6 0,-0.1 C0,6.4 4.9,13.4 18.7,13.4 C32.5,13.4 37.3,6.4 37.3,-0.1 C37.3,-6.6 32.5,-13.6 18.7,-13.6 M10.4,-4.5 C10.3,-4.9 10.3,-5.3 10.3,-5.7 C10.3,-6.5 10.5,-7.3 10.9,-8 C11.6,-9 12.8,-9.7 14.3,-10 C15.6,-10.3 16.3,-10.5 18.9,-10.5 L19,-10.5 C23,-10.5 24.3,-6.8 25.4,-3 L25.7,-2 C26.5,0.6 26.9,2.8 26.9,4.5 C26.9,5.7 26.7,6.8 26.3,7.6 C25.7,8.7 24.7,9.4 23,9.8 C22.1,10 20.6,10.1 20.6,10.1 C20.1,10.1 19.7,10.2 19.3,10.2 C16.1,10.2 14.1,9 12.7,4.7 C11.5,1 11.3,-0.1 10.4,-4.5"/>
<path class="Note" transform="matrix(2.3811,0,0,2.3811,1172.18,1481.1)" d="M18.7,-13.6 C4.9,-13.6 0,-6.6 0,-0.1 C0,6.4 4.9,13.4 18.7,13.4 C32.5,13.4 37.3,6.4 37.3,-0.1 C37.3,-6.6 32.5,-13.6 18.7,-13.6 M10.4,-4.5 C10.3,-4.9 10.3,-5.3 10.3,-5.7 C10.3,-6.5 10.5,-7.3 10.9,-8 C11.6,-9 12.8,-9.7 14.3,-10 C15.6,-10.3 16.3,-10.5 18.9,-10.5 L19,-10.5 C23,-10.5 24.3,-6.8 25.4,-3 L25.7,-2 C26.5,0.6 26.9,2.8 26.9,4.5 C26.9,5.7 26.7,6.8 26.3,7.6 C25.7,8.7 24.7,9.4 23,9.8 C22.1,10 20.6,10.1 20.6,10.1 C20.1,10.1 19.7,10.2 19.3,10.2 C16.1,10.2 14.1,9 12.7,4.7 C11.5,1 11.3,-0.1 10.4,-4.5"/>
<path class="Note" transform="matrix(2.3811,0,0,2.3811,1737.21,1600.16)" d="M18.7,-13.6 C4.9,-13.6 0,-6.6 0,-0.1 C0,6.4 4.9,13.4 18.7,13.4 C32.5,13.4 37.3,6.4 37.3,-0.1 C37.3,-6.6 32.5,-13.6 18.7,-13.6 M10.4,-4.5 C10.3,-4.9 10.3,-5.3 10.3,-5.7 C10.3,-6.5 10.5,-7.3 10.9,-8 C11.6,-9 12.8,-9.7 14.3,-10 C15.6,-10.3 16.3,-10.5 18.9,-10.5 L19,-10.5 C23,-10.5 24.3,-6.8 25.4,-3 L25.7,-2 C26.5,0.6 26.9,2.8 26.9,4.5 C26.9,5.7 26.7,6.8 26.3,7.6 C25.7,8.7 24.7,9.4 23,9.8 C22.1,10 20.6,10.1 20.6,10.1 C20.1,10.1 19.7,10.2 19.3,10.2 C16.1,10.2 14.1,9 12.7,4.7 C11.5,1 11.3,-0.1 10.4,-4.5"/>
<path class="Note" transform="matrix(2.3811,0,0,2.3811,1737.21,1540.63)" d="M18.7,-13.6 C4.9,-13.6 0,-6.6 0,-0.1 C0,6.4 4.9,13.4 18.7,13.4 C32.5,13.4 37.3,6.4 37.3,-0.1 C37.3,-6.6 32.5,-13.6 18.7,-13.6 M10.4,-4.5 C10.3,-4.9 10.3,-5.3 10.3,-5.7 C10.3,-6.5 10.5,-7.3 10.9,-8 C11.6,-9 12.8,-9.7 14.3,-10 C15.6,-10.3 16.3,-10.5 18.9,-10.5 L19,-10.5 C23,-10.5 24.3,-6.8 25.4,-3 L25.7,-2 C26.5,0.6 26.9,2.8 26.9,4.5 C26.9,5.7 26.7,6.8 26.3,7.6 C25.7,8.7 24.7,9.4 23,9.8 C22.1,10 20.6,10.1 20.6,10.1 C20.1,10.1 19.7,10.2 19.3,10.2 C16.1,10.2 14.1,9 12.7,4.7 C11.5,1 11.3,-0.1 10.4,-4.5"/>
<path class="Note" transform="matrix(2.3811,0,0,2.3811,1737.21,1481.1)" d="M18.7,-13.6 C4.9,-13.6 0,-6.6 0,-0.1 C0,6.4 4.9,13.4 18.7,13.4 C32.5,13.4 37.3,6.4 37.3,-0.1 C37.3,-6.6 32.5,-13.6 18.7,-13.6 M10.4,-4.5 C10.3,-4.9 10.3,-5.3 10.3,-5.7 C10.3,-6.5 10.5,-7.3 10.9,-8 C11.6,-9 12.8,-9.7 14.3,-10 C15.6,-10.3 16.3,-10.5 18.9,-10.5 L19,-10.5 C23,-10.5 24.3,-6.8 25.4,-3 L25.7,-2 C26.5,0.6 26.9,2.8 26.9,4.5 C26.9,5.7 26.7,6.8 26.3,7.6 C25.7,8.7 24.7,9.4 23,9.8 C22.1,10 20.6,10.1 20.6,10.1 C20.1,10.1 19.7,10.2 19.3,10.2 C16.1,10.2 14.1,9 12.7,4.7 C11.5,1 11.3,-0.1 10.4,-4.5"/>
<path class="Note" transform="matrix(2.3811,0,0,2.3811,2302.25,1600.16)" d="M18.7,-13.6 C4.9,-13.6 0,-6.6 0,-0.1 C0,6.4 4.9,13.4 18.7,13.4 C32.5,13.4 37.3,6.4 37.3,-0.1 C37.3,-6.6 32.5,-13.6 18.7,-13.6 M10.4,-4.5 C10.3,-4.9 10.3,-5.3 10.3,-5.7 C10.3,-6.5 10.5,-7.3 10.9,-8 C11.6,-9 12.8,-9.7 14.3,-10 C15.6,-10.3 16.3,-10.5 18.9,-10.5 L19,-10.5 C23,-10.5 24.3,-6.8 25.4,-3 L25.7,-2 C26.5,0.6 26.9,2.8 26.9,4.5 C26.9,5.7 26.7,6.8 26.3,7.6 C25.7,8.7 24.7,9.4 23,9.8 C22.1,10 20.6,10.1 20.6,10.1 C20.1,10.1 19.7,10.2 19.3,10.2 C16.1,10.2 14.1,9 12.7,4.7 C11.5,1 11.3,-0.1 10.4,-4.5"/>
<path class="Note" transform="matrix(2.3811,0,0,2.3811,2384.51,1570.39)" d="M18.7,-13.6 C4.9,-13.6 0,-6.6 0,-0.1 C0,6.4 4.9,13.4 18.7,13.4 C32.5,13.4 37.3,6.4 37.3,-0.1 C37.3,-6.6 32.5,-13.6 18.7,-13.6 M10.4,-4.5 C10.3,-4.9 10.3,-5.3 10.3,-5.7 C10.3,-6.5 10.5,-7.3 10.9,-8 C11.6,-9 12.8,-9.7 14.3,-10 C15.6,-10.3 16.3,-10.5 18.9,-10.5 L19,-10.5 C23,-10.5 24.3,-6.8 25.4,-3 L25.7,-2 C26.5,0.6 26.9,2.8 26.9,4.5 C26.9,5.7 26.7,6.8 26.3,7.6 C25.7,8.7 24.7,9.4 23,9.8 C22.1,10 20.6,10.1 20.6,10.1 C20.1,10.1 19.7,10.2 19.3,10.2 C16.1,10.2 14.1,9 12.7,4.7 C11.5,1 11.3,-0.1 10.4,-4.5"/>
<path class="Note" transform="matrix(2.3811,0,0,2.3811,2302.25,1481.1)" d="M18.7,-13.6 C4.9,-13.6 0,-6.6 0,-0.1 C0,6.4 4.9,13.4 18.7,13.4 C32.5,13.4 37.3,6.4 37.3,-0.1 C37.3,-6.6 32.5,-13.6 18.7,-13.6 M10.4,-4.5 C10.3,-4.9 10.3,-5.3 10.3,-5.7 C10.3,-6.5 10.5,-7.3 10.9,-8 C11.6,-9 12.8,-9.7 14.3,-10 C15.6,-10.3 16.3,-10.5 18.9,-10.5 L19,-10.5 C23,-10.5 24.3,-6.8 25.4,-3 L25.7,-2 C26.5,0.6 26.9,2.8 26.9,4.5 C26.9,5.7 26.7,6.8 26.3,7.6 C25.7,8.7 24.7,9.4 23,9.8 C22.1,10 20.6,10.1 20.6,10.1 C20.1,10.1 19.7,10.2 19.3,10.2 C16.1,10.2 14.1,9 12.7,4.7 C11.5,1 11.3,-0.1 10.4,-4.5"/>
<path class="Note" transform="matrix(2.3811,0,0,2.3811,2944.81,1629.92)" d="M31.5,-8.1 C29.7,-11.4 25.9,-13.2 21.3,-13.2 C17.9,-13.2 14.2,-12.2 10.6,-10.3 C4,-6.8 0,-0.9 0,4.2 C0,5.6 0.3,7 1,8.3 C2.8,11.6 6.6,13.3 11.2,13.3 C14.6,13.3 18.3,12.4 21.9,10.5 C28.5,7 32.5,1.1 32.5,-4 C32.5,-5.4 32.2,-6.8 31.5,-8.1 M27.2,-1.3 C25.5,0.4 22.1,2.5 18.5,4.5 C14.9,6.5 11.3,8 8.9,8.5 C8.4,8.6 7.9,8.7 7.4,8.7 C5.8,8.7 4.6,8.1 3.9,6.8 C3.6,6.3 3.4,5.7 3.4,5.1 C3.4,4 4.1,2.7 5.2,1.6 C6.9,-0.1 10.2,-2.2 13.8,-4.2 C17.4,-6.2 21,-7.7 23.4,-8.2 C23.9,-8.3 24.4,-8.4 24.9,-8.4 C26.5,-8.4 27.8,-7.8 28.5,-6.5 C28.8,-6 28.9,-5.4 28.9,-4.8 C28.9,-3.7 28.3,-2.5 27.2,-1.3"/>
<path class="Note" transform="matrix(2.3811,0,0,2.3811,2944.81,1570.39)" d="M31.5,-8.1 C29.7,-11.4 25.9,-13.2 21.3,-13.2 C17.9,-13.2 14.2,-12.2 10.6,-10.3 C4,-6.8 0,-0.9 0,4.2 C0,5.6 0.3,7 1,8.3 C2.8,11.6 6.6,13.3 11.2,13.3 C14.6,13.3 18.3,12.4 21.9,10.5 C28.5,7 32.5,1.1 32.5,-4 C32.5,-5.4 32.2,-6.8 31.5,-8.1 M27.2,-1.3 C25.5,0.4 22.1,2.5 18.5,4.5 C14.9,6.5 11.3,8 8.9,8.5 C8.4,8.6 7.9,8.7 7.4,8.7 C5.8,8.7 4.6,8.1 3.9,6.8 C3.6,6.3 3.4,5.7 3.4,5.1 C3.4,4 4.1,2.7 5.2,1.6 C6.9,-0.1 10.2,-2.2 13.8,-4.2 C17.4,-6.2 21,-7.7 23.4,-8.2 C23.9,-8.3 24.4,-8.4 24.9,-8.4 C26.5,-8.4 27.8,-7.8 28.5,-6.5 C28.8,-6 28.9,-5.4 28.9,-4.8 C28.9,-3.7 28.3,-2.5 27.2,-1.3"/>
<path class="Note" transform="matrix(2.3811,0,0,2.3811,2944.81,1481.1)" d="M31.5,-8.1 C29.7,-11.4 25.9,-13.2 21.3,-13.2 C17.9,-13.2 14.2,-12.2 10.6,-10.3 C4,-6.8 0,-0.9 0,4.2 C0,5.6 0.3,7 1,8.3 C2.8,11.6 6.6,13.3 11.2,13.3 C14.6,13.3 18.3,12.4 21.9,10.5 C28.5,7 32.5,1.1 32.5,-4 C32.5,-5.4 32.2,-6.8 31.5,-8.1 M27.2,-1.3 C25.5,0.4 22.1,2.5 18.5,4.5 C14.9,6.5 11.3,8 8.9,8.5 C8.4,8.6 7.9,8.7 7.4,8.7 C5.8,8.7 4.6,8.1 3.9,6.8 C3.6,6.3 3.4,5.7 3.4,5.1 C3.4,4 4.1,2.7 5.2,1.6 C6.9,-0.1 10.2,-2.2 13.8,-4.2 C17.4,-6.2 21,-7.7 23.4,-8.2 C23.9,-8.3 24.4,-8.4 24.9,-8.4 C26.5,-8.4 27.8,-7.8 28.5,-6.5 C28.8,-6 28.9,-5.4 28.9,-4.8 C28.9,-3.7 28.3,-2.5 27.2,-1.3"/>
<path class="Note" transform="matrix(2.3811,0,0,2.3811,3234.51,1510.87)" d="M31.5,-8.1 C29.7,-11.4 25.9,-13.2 21.3,-13.2 C17.9,-13.2 14.2,-12.2 10.6,-10.3 C4,-6.8 0,-0.9 0,4.2 C0,5.6 0.3,7 1,8.3 C2.8,11.6 6.6,13.3 11.2,13.3 C14.6,13.3 18.3,12.4 21.9,10.5 C28.5,7 32.5,1.1 32.5,-4 C32.5,-5.4 32.2,-6.8 31.5,-8.1 M27.2,-1.3 C25.5,0.4 22.1,2.5 18.5,4.5 C14.9,6.5 11.3,8 8.9,8.5 C8.4,8.6 7.9,8.7 7.4,8.7 C5.8,8.7 4.6,8.1 3.9,6.8 C3.6,6.3 3.4,5.7 3.4,5.1 C3.4,4 4.1,2.7 5.2,1.6 C6.9,-0.1 10.2,-2.2 13.8,-4.2 C17.4,-6.2 21,-7.7 23.4,-8.2 C23.9,-8.3 24.4,-8.4 24.9,-8.4 C26.5,-8.4 27.8,-7.8 28.5,-6.5 C28.8,-6 28.9,-5.4 28.9,-4.8 C28.9,-3.7 28.3,-2.5 27.2,-1.3"/>
<path class="Note" transform="matrix(2.3811,0,0,2.3811,3618.03,1600.16)" d="M18.7,-13.6 C4.9,-13.6 0,-6.6 0,-0.1 C0,6.4 4.9,13.4 18.7,13.4 C32.5,13.4 37.3,6.4 37.3,-0.1 C37.3,-6.6 32.5,-13.6 18.7,-13.6 M10.4,-4.5 C10.3,-4.9 10.3,-5.3 10.3,-5.7 C10.3,-6.5 10.5,-7.3 10.9,-8 C11.6,-9 12.8,-9.7 14.3,-10 C15.6,-10.3 16.3,-10.5 18.9,-10.5 L19,-10.5 C23,-10.5 24.3,-6.8 25.4,-3 L25.7,-2 C26.5,0.6 26.9,2.8 26.9,4.5 C26.9,5.7 26.7,6.8 26.3,7.6 C25.7,8.7 24.7,9.4 23,9.8 C22.1,10 20.6,10.1 20.6,10.1 C20.1,10.1 19.7,10.2 19.3,10.2 C16.1,10.2 14.1,9 12.7,4.7 C11.5,1 11.3,-0.1 10.4,-4.5"/>
<path class="Note" transform="matrix(2.3811,0,0,2.3811,3618.03,1540.63)" d="M18.7,-13.6 C4.9,-13.6 0,-6.6 0,-0.1 C0,6.4 4.9,13.4 18.7,13.4 C32.5,13.4 37.3,6.4 37.3,-0.1 C37.3,-6.6 32.5,-13.6 18.7,-13.6 M10.4,-4.5 C10.3,-4.9 10.3,-5.3 10.3,-5.7 C10.3,-6.5 10.5,-7.3 10.9,-8 C11.6,-9 12.8,-9.7 14.3,-10 C15.6,-10.3 16.3,-10.5 18.9,-10.5 L19,-10.5 C23,-10.5 24.3,-6.8 25.4,-3 L25.7,-2 C26.5,0.6 26.9,2.8 26.9,4.5 C26.9,5.7 26.7,6.8 26.3,7.6 C25.7,8.7 24.7,9.4 23,9.8 C22.1,10 20.6,10.1 20.6,10.1 C20.1,10.1 19.7,10.2 19.3,10.2 C16.1,10.2 14.1,9 12.7,4.7 C11.5,1 11.3,-0.1 10.4,-4.5"/>
<path class="Note" transform="matrix(2.3811,0,0,2.3811,3618.03,1481.1)" d="M18.7,-13.6 C4.9,-13.6 0,-6.6 0,-0.1 C0,6.4 4.9,13.4 18.7,13.4 C32.5,13.4 37.3,6.4 37.3,-0.1 C37.3,-6.6 32.5,-13.6 18.7,-13.6 M10.4,-4.5 C10.3,-4.9 10.3,-5.3 10.3,-5.7 C10.3,-6.5 10.5,-7.3 10.9,-8 C11.6,-9 12.8,-9.7 14.3,-10 C15.6,-10.3 16.3,-10.5 18.9,-10.5 L19,-10.5 C23,-10.5 24.3,-6.8 25.4,-3 L25.7,-2 C26.5,0.6 26.9,2.8 26.9,4.5 C26.9,5.7 26.7,6.8 26.3,7.6 C25.7,8.7 24.7,9.4 23,9.8 C22.1,10 20.6,10.1 20.6,10.1 C20.1,10.1 19.7,10.2 19.3,10.2 C16.1,10.2 14.1,9 12.7,4.7 C11.5,1 11.3,-0.1 10.4,-4.5"/>
<path class="Note" d="M712.841,581.059 C723.3,574.474 730.892,569.09 735.618,564.906 C744.295,557.236 748.634,549.489 748.634,541.664 C748.634,532.522 742.513,527.951 730.272,527.951 C717.412,527.951 704.009,537.209 690.063,555.725 C680.612,568.276 673.91,580.13 669.959,591.286 C674.84,588.11 679.992,586.521 685.415,586.521 C690.528,586.521 694.596,588.807 697.617,593.378 C699.709,596.554 700.755,601.977 700.755,609.647 C700.755,616.542 697.114,624.638 689.831,633.935 C685.338,639.668 680.34,642.535 674.84,642.535 C667.867,642.535 662.986,641.14 660.197,638.351 C656.246,634.4 654.27,626.575 654.27,614.877 C654.27,595.198 662.212,575.83 678.094,556.771 C695.99,535.311 713.151,524.581 729.575,524.581 C742.281,524.581 751.771,527.564 758.047,533.529 C761.688,537.015 763.509,542.051 763.509,548.637 C763.509,555.997 756.265,564.209 741.777,573.273 C734.185,578.077 724.539,580.672 712.841,581.059 M668.448,596.167 C666.511,602.675 665.543,608.911 665.543,614.877 C665.543,629.055 667.79,636.143 672.283,636.143 C676.544,636.143 679.876,633.122 682.277,627.079 C685.066,620.261 686.461,612.707 686.461,604.418 C686.461,597.058 684.02,593.378 679.14,593.378 C675.731,593.378 672.167,594.307 668.448,596.167"/>
<path class="Note" d="M594.663,855.79 C594.973,844.091 601.442,833.71 614.071,824.645 C625.304,816.588 637.584,812.559 650.909,812.559 C669.581,812.559 686.044,819.881 700.299,834.523 C709.364,843.898 713.896,855.519 713.896,869.387 C713.896,881.86 710.564,891.428 703.902,898.091 C695.767,906.303 687.167,910.409 678.103,910.409 C671.905,910.409 667.101,909.014 663.693,906.225 C658.114,901.654 655.325,895.534 655.325,887.864 C655.325,877.947 660.284,868.883 670.2,860.671 C678.335,853.93 686.509,849.514 694.721,847.423 C692.552,843.704 689.801,840.218 686.47,836.964 C676.088,826.815 664.312,821.74 651.142,821.74 C637.429,821.74 626.079,824.723 617.092,830.688 C607.795,836.809 600.319,845.176 594.663,855.79 M697.626,853.582 C693.365,857.533 689.104,861.755 684.843,866.249 C676.476,875.081 672.292,883.448 672.292,891.35 C672.292,899.795 674.229,904.017 678.103,904.017 C681.589,904.017 686.47,899.253 692.745,889.723 C697.781,882.131 700.299,875.158 700.299,868.805 C700.299,863.382 699.408,858.308 697.626,853.582"/>
<path class="Note" d="M661.476,821.118 C657.679,821.118 655.781,817.05 655.781,808.916 L655.781,774.866 C655.781,771.612 657.369,769.985 660.546,769.985 C661.94,769.985 662.986,770.101 663.684,770.333 C666.163,765.995 670.23,762.354 675.886,759.41 C683.788,755.304 691.807,753.25 699.941,753.25 C706.372,753.25 709.587,755.652 709.587,760.456 C709.587,764.484 707.418,766.499 703.079,766.499 C699.98,766.499 697.036,765.801 694.247,764.407 C691.768,763.167 689.134,762.547 686.345,762.547 C681.541,762.547 674.452,765.685 665.078,771.96 C666.395,778.236 667.054,785.557 667.054,793.924 C667.054,812.053 665.194,821.118 661.476,821.118"/>
<path class="Note" d="M712.841,670.351 C723.3,663.765 730.892,658.381 735.618,654.197 C744.295,646.527 748.634,638.78 748.634,630.955 C748.634,621.813 742.513,617.242 730.272,617.242 C717.412,617.242 704.009,626.5 690.063,645.017 C680.612,657.568 673.91,669.421 669.959,680.577 C674.84,677.401 679.992,675.813 685.415,675.813 C690.528,675.813 694.596,678.098 697.617,682.669 C699.709,685.846 700.755,691.269 700.755,698.939 C700.755,705.834 697.114,713.93 689.831,723.227 C685.338,728.96 680.34,731.826 674.84,731.826 C667.867,731.826 662.986,730.432 660.197,727.643 C656.246,723.692 654.27,715.867 654.27,704.168 C654.27,684.49 662.212,665.121 678.094,646.063 C695.99,624.602 713.151,613.872 729.575,613.872 C742.281,613.872 751.771,616.855 758.047,622.82 C761.688,626.307 763.509,631.343 763.509,637.928 C763.509,645.288 756.265,653.5 741.777,662.565 C734.185,667.368 724.539,669.963 712.841,670.351 M668.448,685.458 C666.511,691.966 665.543,698.203 665.543,704.168 C665.543,718.346 667.79,725.435 672.283,725.435 C676.544,725.435 679.876,722.413 682.277,716.37 C685.066,709.553 686.461,701.999 686.461,693.709 C686.461,686.349 684.02,682.669 679.14,682.669 C675.731,682.669 672.167,683.599 668.448,685.458"/>
<path class="Note" d="M1139.91,945.081 C1140.22,933.383 1146.69,923.001 1159.32,913.937 C1170.55,905.879 1182.83,901.851 1196.16,901.851 C1214.83,901.851 1231.29,909.172 1245.55,923.815 C1254.61,933.189 1259.14,944.81 1259.14,958.678 C1259.14,971.151 1255.81,980.719 1249.15,987.382 C1241.02,995.594 1232.42,999.7 1223.35,999.7 C1217.15,999.7 1212.35,998.306 1208.94,995.517 C1203.36,990.946 1200.57,984.825 1200.57,977.155 C1200.57,967.239 1205.53,958.174 1215.45,949.962 C1223.58,943.222 1231.76,938.806 1239.97,936.714 C1237.8,932.995 1235.05,929.509 1231.72,926.255 C1221.34,916.106 1209.56,911.031 1196.39,911.031 C1182.68,911.031 1171.33,914.014 1162.34,919.98 C1153.04,926.1 1145.57,934.467 1139.91,945.081 M1242.88,942.873 C1238.61,946.824 1234.35,951.047 1230.09,955.54 C1221.72,964.372 1217.54,972.739 1217.54,980.642 C1217.54,989.086 1219.48,993.309 1223.35,993.309 C1226.84,993.309 1231.72,988.544 1237.99,979.015 C1243.03,971.422 1245.55,964.45 1245.55,958.097 C1245.55,952.674 1244.66,947.599 1242.88,942.873"/>
<path class="Note" d="M1251,583.965 C1255.57,583.965 1257.86,586.831 1257.86,592.564 C1257.86,596.593 1255.34,602.597 1250.3,610.577 C1246.28,617.007 1244.26,623.283 1244.26,629.403 C1244.26,632.889 1249.34,634.633 1259.48,634.633 C1267.85,634.633 1279.51,630.1 1294.46,621.036 C1279.43,635.524 1266.38,642.767 1255.3,642.767 C1245.31,642.767 1238.33,641.257 1234.38,638.235 C1233.38,637.46 1232.52,636.531 1231.83,635.446 C1227.95,640.172 1221.48,642.535 1212.42,642.535 C1203.74,642.535 1197.08,640.753 1192.43,637.189 C1189.33,634.788 1187.78,630.953 1187.78,625.684 C1187.78,617.317 1192.74,608.175 1202.66,598.259 C1213.27,587.645 1225.55,582.338 1239.5,582.338 C1242.98,582.338 1245.54,583.616 1247.17,586.173 C1248.48,584.701 1249.76,583.965 1251,583.965 M1230.2,630.217 C1230.12,629.597 1230.08,628.977 1230.08,628.357 C1230.08,628.047 1234.03,617.24 1241.94,595.934 C1242.71,593.843 1243.49,592.061 1244.26,590.589 C1241.24,589.969 1238.26,589.659 1235.31,589.659 C1229.89,589.659 1222.68,594.269 1213.7,603.488 C1205.64,611.7 1201.61,618.789 1201.61,624.755 C1201.61,631.34 1204.75,634.633 1211.02,634.633 C1218.62,634.633 1225.01,633.161 1230.2,630.217"/>
<path class="Note" d="M1251,762.547 C1255.57,762.547 1257.86,765.414 1257.86,771.147 C1257.86,775.176 1255.34,781.18 1250.3,789.16 C1246.28,795.59 1244.26,801.865 1244.26,807.986 C1244.26,811.472 1249.34,813.215 1259.48,813.215 C1267.85,813.215 1279.51,808.683 1294.46,799.619 C1279.43,814.106 1266.38,821.35 1255.3,821.35 C1245.31,821.35 1238.33,819.839 1234.38,816.818 C1233.38,816.043 1232.52,815.113 1231.83,814.029 C1227.95,818.755 1221.48,821.118 1212.42,821.118 C1203.74,821.118 1197.08,819.336 1192.43,815.772 C1189.33,813.37 1187.78,809.535 1187.78,804.267 C1187.78,795.9 1192.74,786.758 1202.66,776.841 C1213.27,766.227 1225.55,760.92 1239.5,760.92 C1242.98,760.92 1245.54,762.199 1247.17,764.755 C1248.48,763.283 1249.76,762.547 1251,762.547 M1230.2,808.799 C1230.12,808.179 1230.08,807.56 1230.08,806.94 C1230.08,806.63 1234.03,795.822 1241.94,774.517 C1242.71,772.425 1243.49,770.643 1244.26,769.171 C1241.24,768.552 1238.26,768.242 1235.31,768.242 C1229.89,768.242 1222.68,772.851 1213.7,782.071 C1205.64,790.283 1201.61,797.372 1201.61,803.337 C1201.61,809.923 1204.75,813.215 1211.02,813.215 C1218.62,813.215 1225.01,811.743 1230.2,808.799"/>
<path class="Note" d="M1258.09,670.351 C1268.55,663.765 1276.14,658.381 1280.87,654.197 C1289.54,646.527 1293.88,638.78 1293.88,630.955 C1293.88,621.813 1287.76,617.242 1275.52,617.242 C1262.66,617.242 1249.26,626.5 1235.31,645.017 C1225.86,657.568 1219.16,669.421 1215.21,680.577 C1220.09,677.401 1225.24,675.813 1230.66,675.813 C1235.78,675.813 1239.84,678.098 1242.87,682.669 C1244.96,685.846 1246,691.269 1246,698.939 C1246,705.834 1242.36,713.93 1235.08,723.227 C1230.59,728.96 1225.59,731.826 1220.09,731.826 C1213.12,731.826 1208.24,730.432 1205.45,727.643 C1201.5,723.692 1199.52,715.867 1199.52,704.168 C1199.52,684.49 1207.46,665.121 1223.34,646.063 C1241.24,624.602 1258.4,613.872 1274.82,613.872 C1287.53,613.872 1297.02,616.855 1303.3,622.82 C1306.94,626.307 1308.76,631.343 1308.76,637.928 C1308.76,645.288 1301.51,653.5 1287.03,662.565 C1279.43,667.368 1269.79,669.963 1258.09,670.351 M1213.7,685.458 C1211.76,691.966 1210.79,698.203 1210.79,704.168 C1210.79,718.346 1213.04,725.435 1217.53,725.435 C1221.79,725.435 1225.12,722.413 1227.53,716.37 C1230.32,709.553 1231.71,701.999 1231.71,693.709 C1231.71,686.349 1229.27,682.669 1224.39,682.669 C1220.98,682.669 1217.42,683.599 1213.7,685.458"/>
<path class="Note" d="M1704.95,945.081 C1705.25,933.383 1711.72,923.001 1724.35,913.937 C1735.59,905.879 1747.87,901.851 1761.19,901.851 C1779.86,901.851 1796.33,909.172 1810.58,923.815 C1819.65,933.189 1824.18,944.81 1824.18,958.678 C1824.18,971.151 1820.85,980.719 1814.18,987.382 C1806.05,995.594 1797.45,999.7 1788.38,999.7 C1782.19,999.7 1777.38,998.306 1773.97,995.517 C1768.4,990.946 1765.61,984.825 1765.61,977.155 C1765.61,967.239 1770.57,958.174 1780.48,949.962 C1788.62,943.222 1796.79,938.806 1805,936.714 C1802.83,932.995 1800.08,929.509 1796.75,926.255 C1786.37,916.106 1774.59,911.031 1761.42,911.031 C1747.71,911.031 1736.36,914.014 1727.37,919.98 C1718.08,926.1 1710.6,934.467 1704.95,945.081 M1807.91,942.873 C1803.65,946.824 1799.39,951.047 1795.12,955.54 C1786.76,964.372 1782.57,972.739 1782.57,980.642 C1782.57,989.086 1784.51,993.309 1788.38,993.309 C1791.87,993.309 1796.75,988.544 1803.03,979.015 C1808.06,971.422 1810.58,964.45 1810.58,958.097 C1810.58,952.674 1809.69,947.599 1807.91,942.873"/>
<path class="Note" d="M1823.12,581.059 C1833.58,574.474 1841.17,569.09 1845.9,564.906 C1854.58,557.236 1858.92,549.489 1858.92,541.664 C1858.92,532.522 1852.8,527.951 1840.55,527.951 C1827.69,527.951 1814.29,537.209 1800.35,555.725 C1790.89,568.276 1784.19,580.13 1780.24,591.286 C1785.12,588.11 1790.27,586.521 1795.7,586.521 C1800.81,586.521 1804.88,588.807 1807.9,593.378 C1809.99,596.554 1811.04,601.977 1811.04,609.647 C1811.04,616.542 1807.4,624.638 1800.11,633.935 C1795.62,639.668 1790.62,642.535 1785.12,642.535 C1778.15,642.535 1773.27,641.14 1770.48,638.351 C1766.53,634.4 1764.55,626.575 1764.55,614.877 C1764.55,595.198 1772.49,575.83 1788.38,556.771 C1806.27,535.311 1823.43,524.581 1839.86,524.581 C1852.56,524.581 1862.05,527.564 1868.33,533.529 C1871.97,537.015 1873.79,542.051 1873.79,548.637 C1873.79,555.997 1866.55,564.209 1852.06,573.273 C1844.47,578.077 1834.82,580.672 1823.12,581.059 M1778.73,596.167 C1776.79,602.675 1775.82,608.911 1775.82,614.877 C1775.82,629.055 1778.07,636.143 1782.56,636.143 C1786.83,636.143 1790.16,633.122 1792.56,627.079 C1795.35,620.261 1796.74,612.707 1796.74,604.418 C1796.74,597.058 1794.3,593.378 1789.42,593.378 C1786.01,593.378 1782.45,594.307 1778.73,596.167"/>
<path class="Note" d="M1771.76,821.118 C1767.96,821.118 1766.06,817.05 1766.06,808.916 L1766.06,774.866 C1766.06,771.612 1767.65,769.985 1770.83,769.985 C1772.22,769.985 1773.27,770.101 1773.97,770.333 C1776.44,765.995 1780.51,762.354 1786.17,759.41 C1794.07,755.304 1802.09,753.25 1810.22,753.25 C1816.65,753.25 1819.87,755.652 1819.87,760.456 C1819.87,764.484 1817.7,766.499 1813.36,766.499 C1810.26,766.499 1807.32,765.801 1804.53,764.407 C1802.05,763.167 1799.42,762.547 1796.63,762.547 C1791.82,762.547 1784.73,765.685 1775.36,771.96 C1776.68,778.236 1777.34,785.557 1777.34,793.924 C1777.34,812.053 1775.48,821.118 1771.76,821.118"/>
<path class="Note" d="M1823.12,670.351 C1833.58,663.765 1841.17,658.381 1845.9,654.197 C1854.58,646.527 1858.92,638.78 1858.92,630.955 C1858.92,621.813 1852.8,617.242 1840.55,617.242 C1827.69,617.242 1814.29,626.5 1800.35,645.017 C1790.89,657.568 1784.19,669.421 1780.24,680.577 C1785.12,677.401 1790.27,675.813 1795.7,675.813 C1800.81,675.813 1804.88,678.098 1807.9,682.669 C1809.99,685.846 1811.04,691.269 1811.04,698.939 C1811.04,705.834 1807.4,713.93 1800.11,723.227 C1795.62,728.96 1790.62,731.826 1785.12,731.826 C1778.15,731.826 1773.27,730.432 1770.48,727.643 C1766.53,723.692 1764.55,715.867 1764.55,704.168 C1764.55,684.49 1772.49,665.121 1788.38,646.063 C1806.27,624.602 1823.43,613.872 1839.86,613.872 C1852.56,613.872 1862.05,616.855 1868.33,622.82 C1871.97,626.307 1873.79,631.343 1873.79,637.928 C1873.79,645.288 1866.55,653.5 1852.06,662.565 C1844.47,667.368 1834.82,669.963 1823.12,670.351 M1778.73,685.458 C1776.79,691.966 1775.82,698.203 1775.82,704.168 C1775.82,718.346 1778.07,725.435 1782.56,725.435 C1786.83,725.435 1790.16,722.413 1792.56,716.37 C1795.35,709.553 1796.74,701.999 1796.74,693.709 C1796.74,686.349 1794.3,682.669 1789.42,682.669 C1786.01,682.669 1782.45,683.599 1778.73,685.458"/>
<path class="Note" d="M2269.98,945.081 C2270.29,933.383 2276.76,923.001 2289.38,913.937 C2300.62,905.879 2312.9,901.851 2326.22,901.851 C2344.9,901.851 2361.36,909.172 2375.61,923.815 C2384.68,933.189 2389.21,944.81 2389.21,958.678 C2389.21,971.151 2385.88,980.719 2379.22,987.382 C2371.08,995.594 2362.48,999.7 2353.42,999.7 C2347.22,999.7 2342.42,998.306 2339.01,995.517 C2333.43,990.946 2330.64,984.825 2330.64,977.155 C2330.64,967.239 2335.6,958.174 2345.51,949.962 C2353.65,943.222 2361.82,938.806 2370.04,936.714 C2367.87,932.995 2365.12,929.509 2361.78,926.255 C2351.4,916.106 2339.63,911.031 2326.46,911.031 C2312.74,911.031 2301.39,914.014 2292.41,919.98 C2283.11,926.1 2275.63,934.467 2269.98,945.081 M2372.94,942.873 C2368.68,946.824 2364.42,951.047 2360.16,955.54 C2351.79,964.372 2347.61,972.739 2347.61,980.642 C2347.61,989.086 2349.54,993.309 2353.42,993.309 C2356.9,993.309 2361.78,988.544 2368.06,979.015 C2373.1,971.422 2375.61,964.45 2375.61,958.097 C2375.61,952.674 2374.72,947.599 2372.94,942.873"/>
<path class="Note" d="M2388.16,581.059 C2398.61,574.474 2406.21,569.09 2410.93,564.906 C2419.61,557.236 2423.95,549.489 2423.95,541.664 C2423.95,532.522 2417.83,527.951 2405.59,527.951 C2392.73,527.951 2379.32,537.209 2365.38,555.725 C2355.93,568.276 2349.22,580.13 2345.27,591.286 C2350.15,588.11 2355.31,586.521 2360.73,586.521 C2365.84,586.521 2369.91,588.807 2372.93,593.378 C2375.02,596.554 2376.07,601.977 2376.07,609.647 C2376.07,616.542 2372.43,624.638 2365.15,633.935 C2360.65,639.668 2355.65,642.535 2350.15,642.535 C2343.18,642.535 2338.3,641.14 2335.51,638.351 C2331.56,634.4 2329.58,626.575 2329.58,614.877 C2329.58,595.198 2337.53,575.83 2353.41,556.771 C2371.3,535.311 2388.47,524.581 2404.89,524.581 C2417.6,524.581 2427.09,527.564 2433.36,533.529 C2437,537.015 2438.82,542.051 2438.82,548.637 C2438.82,555.997 2431.58,564.209 2417.09,573.273 C2409.5,578.077 2399.85,580.672 2388.16,581.059 M2343.76,596.167 C2341.83,602.675 2340.86,608.911 2340.86,614.877 C2340.86,629.055 2343.1,636.143 2347.6,636.143 C2351.86,636.143 2355.19,633.122 2357.59,627.079 C2360.38,620.261 2361.78,612.707 2361.78,604.418 C2361.78,597.058 2359.33,593.378 2354.45,593.378 C2351.05,593.378 2347.48,594.307 2343.76,596.167"/>
<path class="Note" d="M2381.07,762.547 C2385.64,762.547 2387.92,765.414 2387.92,771.147 C2387.92,775.176 2385.4,781.18 2380.37,789.16 C2376.34,795.59 2374.33,801.865 2374.33,807.986 C2374.33,811.472 2379.4,813.215 2389.55,813.215 C2397.92,813.215 2409.58,808.683 2424.53,799.619 C2409.5,814.106 2396.44,821.35 2385.37,821.35 C2375.37,821.35 2368.4,819.839 2364.45,816.818 C2363.44,816.043 2362.59,815.113 2361.89,814.029 C2358.02,818.755 2351.55,821.118 2342.48,821.118 C2333.81,821.118 2327.14,819.336 2322.5,815.772 C2319.4,813.37 2317.85,809.535 2317.85,804.267 C2317.85,795.9 2322.81,786.758 2332.72,776.841 C2343.34,766.227 2355.62,760.92 2369.56,760.92 C2373.05,760.92 2375.6,762.199 2377.23,764.755 C2378.55,763.283 2379.83,762.547 2381.07,762.547 M2360.26,808.799 C2360.19,808.179 2360.15,807.56 2360.15,806.94 C2360.15,806.63 2364.1,795.822 2372,774.517 C2372.78,772.425 2373.55,770.643 2374.33,769.171 C2371.3,768.552 2368.32,768.242 2365.38,768.242 C2359.95,768.242 2352.75,772.851 2343.76,782.071 C2335.71,790.283 2331.68,797.372 2331.68,803.337 C2331.68,809.923 2334.81,813.215 2341.09,813.215 C2348.68,813.215 2355.07,811.743 2360.26,808.799"/>
<path class="Note" d="M2388.16,670.351 C2398.61,663.765 2406.21,658.381 2410.93,654.197 C2419.61,646.527 2423.95,638.78 2423.95,630.955 C2423.95,621.813 2417.83,617.242 2405.59,617.242 C2392.73,617.242 2379.32,626.5 2365.38,645.017 C2355.93,657.568 2349.22,669.421 2345.27,680.577 C2350.15,677.401 2355.31,675.813 2360.73,675.813 C2365.84,675.813 2369.91,678.098 2372.93,682.669 C2375.02,685.846 2376.07,691.269 2376.07,698.939 C2376.07,705.834 2372.43,713.93 2365.15,723.227 C2360.65,728.96 2355.65,731.826 2350.15,731.826 C2343.18,731.826 2338.3,730.432 2335.51,727.643 C2331.56,723.692 2329.58,715.867 2329.58,704.168 C2329.58,684.49 2337.53,665.121 2353.41,646.063 C2371.3,624.602 2388.47,613.872 2404.89,613.872 C2417.6,613.872 2427.09,616.855 2433.36,622.82 C2437,626.307 2438.82,631.343 2438.82,637.928 C2438.82,645.288 2431.58,653.5 2417.09,662.565 C2409.5,667.368 2399.85,669.963 2388.16,670.351 M2343.76,685.458 C2341.83,691.966 2340.86,698.203 2340.86,704.168 C2340.86,718.346 2343.1,725.435 2347.6,725.435 C2351.86,725.435 2355.19,722.413 2357.59,716.37 C2360.38,709.553 2361.78,701.999 2361.78,693.709 C2361.78,686.349 2359.33,682.669 2354.45,682.669 C2351.05,682.669 2347.48,683.599 2343.76,685.458"/>
<path class="Note" d="M2906.82,945.081 C2907.13,933.383 2913.6,923.001 2926.22,913.937 C2937.46,905.879 2949.74,901.851 2963.06,901.851 C2981.73,901.851 2998.2,909.172 3012.45,923.815 C3021.52,933.189 3026.05,944.81 3026.05,958.678 C3026.05,971.151 3022.72,980.719 3016.06,987.382 C3007.92,995.594 2999.32,999.7 2990.26,999.7 C2984.06,999.7 2979.26,998.306 2975.85,995.517 C2970.27,990.946 2967.48,984.825 2967.48,977.155 C2967.48,967.239 2972.44,958.174 2982.35,949.962 C2990.49,943.222 2998.66,938.806 3006.88,936.714 C3004.71,932.995 3001.96,929.509 2998.62,926.255 C2988.24,916.106 2976.47,911.031 2963.3,911.031 C2949.58,911.031 2938.23,914.014 2929.25,919.98 C2919.95,926.1 2912.47,934.467 2906.82,945.081 M3009.78,942.873 C3005.52,946.824 3001.26,951.047 2997,955.54 C2988.63,964.372 2984.45,972.739 2984.45,980.642 C2984.45,989.086 2986.38,993.309 2990.26,993.309 C2993.74,993.309 2998.62,988.544 3004.9,979.015 C3009.94,971.422 3012.45,964.45 3012.45,958.097 C3012.45,952.674 3011.56,947.599 3009.78,942.873"/>
<path class="Note" d="M3017.91,583.965 C3022.48,583.965 3024.76,586.831 3024.76,592.564 C3024.76,596.593 3022.24,602.597 3017.21,610.577 C3013.18,617.007 3011.17,623.283 3011.17,629.403 C3011.17,632.889 3016.24,634.633 3026.39,634.633 C3034.76,634.633 3046.42,630.1 3061.37,621.036 C3046.34,635.524 3033.28,642.767 3022.21,642.767 C3012.21,642.767 3005.24,641.257 3001.29,638.235 C3000.28,637.46 2999.43,636.531 2998.73,635.446 C2994.86,640.172 2988.39,642.535 2979.32,642.535 C2970.65,642.535 2963.98,640.753 2959.34,637.189 C2956.24,634.788 2954.69,630.953 2954.69,625.684 C2954.69,617.317 2959.65,608.175 2969.56,598.259 C2980.18,587.645 2992.46,582.338 3006.4,582.338 C3009.89,582.338 3012.44,583.616 3014.07,586.173 C3015.39,584.701 3016.67,583.965 3017.91,583.965 M2997.1,630.217 C2997.03,629.597 2996.99,628.977 2996.99,628.357 C2996.99,628.047 3000.94,617.24 3008.84,595.934 C3009.62,593.843 3010.39,592.061 3011.17,590.589 C3008.14,589.969 3005.16,589.659 3002.22,589.659 C2996.79,589.659 2989.59,594.269 2980.6,603.488 C2972.55,611.7 2968.52,618.789 2968.52,624.755 C2968.52,631.34 2971.65,634.633 2977.93,634.633 C2985.52,634.633 2991.91,633.161 2997.1,630.217"/>
<path class="Note" d="M3017.91,762.547 C3022.48,762.547 3024.76,765.414 3024.76,771.147 C3024.76,775.176 3022.24,781.18 3017.21,789.16 C3013.18,795.59 3011.17,801.865 3011.17,807.986 C3011.17,811.472 3016.24,813.215 3026.39,813.215 C3034.76,813.215 3046.42,808.683 3061.37,799.619 C3046.34,814.106 3033.28,821.35 3022.21,821.35 C3012.21,821.35 3005.24,819.839 3001.29,816.818 C3000.28,816.043 2999.43,815.113 2998.73,814.029 C2994.86,818.755 2988.39,821.118 2979.32,821.118 C2970.65,821.118 2963.98,819.336 2959.34,815.772 C2956.24,813.37 2954.69,809.535 2954.69,804.267 C2954.69,795.9 2959.65,786.758 2969.56,776.841 C2980.18,766.227 2992.46,760.92 3006.4,760.92 C3009.89,760.92 3012.44,762.199 3014.07,764.755 C3015.39,763.283 3016.67,762.547 3017.91,762.547 M2997.1,808.799 C2997.03,808.179 2996.99,807.56 2996.99,806.94 C2996.99,806.63 3000.94,795.822 3008.84,774.517 C3009.62,772.425 3010.39,770.643 3011.17,769.171 C3008.14,768.552 3005.16,768.242 3002.22,768.242 C2996.79,768.242 2989.59,772.851 2980.6,782.071 C2972.55,790.283 2968.52,797.372 2968.52,803.337 C2968.52,809.923 2971.65,813.215 2977.93,813.215 C2985.52,813.215 2991.91,811.743 2997.1,808.799"/>
<path class="Note" d="M3024.99,670.351 C3035.45,663.765 3043.05,658.381 3047.77,654.197 C3056.45,646.527 3060.79,638.78 3060.79,630.955 C3060.79,621.813 3054.67,617.242 3042.43,617.242 C3029.57,617.242 3016.16,626.5 3002.22,645.017 C2992.77,657.568 2986.06,669.421 2982.11,680.577 C2986.99,677.401 2992.15,675.813 2997.57,675.813 C3002.68,675.813 3006.75,678.098 3009.77,682.669 C3011.86,685.846 3012.91,691.269 3012.91,698.939 C3012.91,705.834 3009.27,713.93 3001.99,723.227 C2997.49,728.96 2992.49,731.826 2986.99,731.826 C2980.02,731.826 2975.14,730.432 2972.35,727.643 C2968.4,723.692 2966.42,715.867 2966.42,704.168 C2966.42,684.49 2974.37,665.121 2990.25,646.063 C3008.14,624.602 3025.3,613.872 3041.73,613.872 C3054.43,613.872 3063.93,616.855 3070.2,622.82 C3073.84,626.307 3075.66,631.343 3075.66,637.928 C3075.66,645.288 3068.42,653.5 3053.93,662.565 C3046.34,667.368 3036.69,669.963 3024.99,670.351 M2980.6,685.458 C2978.67,691.966 2977.7,698.203 2977.7,704.168 C2977.7,718.346 2979.94,725.435 2984.44,725.435 C2988.7,725.435 2992.03,722.413 2994.43,716.37 C2997.22,709.553 2998.62,701.999 2998.62,693.709 C2998.62,686.349 2996.17,682.669 2991.29,682.669 C2987.88,682.669 2984.32,683.599 2980.6,685.458"/>
<path class="Note" d="M3196.52,766.499 C3196.83,754.8 3203.3,744.418 3215.93,735.354 C3227.16,727.297 3239.44,723.268 3252.77,723.268 C3271.44,723.268 3287.9,730.589 3302.16,745.232 C3311.22,754.606 3315.75,766.227 3315.75,780.095 C3315.75,792.568 3312.42,802.137 3305.76,808.799 C3297.62,817.012 3289.02,821.118 3279.96,821.118 C3273.76,821.118 3268.96,819.723 3265.55,816.934 C3259.97,812.363 3257.18,806.243 3257.18,798.573 C3257.18,788.656 3262.14,779.592 3272.06,771.379 C3280.19,764.639 3288.37,760.223 3296.58,758.131 C3294.41,754.413 3291.66,750.926 3288.33,747.672 C3277.94,737.523 3266.17,732.449 3253,732.449 C3239.29,732.449 3227.94,735.431 3218.95,741.397 C3209.65,747.517 3202.18,755.885 3196.52,766.499 M3299.48,764.291 C3295.22,768.242 3290.96,772.464 3286.7,776.957 C3278.33,785.79 3274.15,794.157 3274.15,802.059 C3274.15,810.504 3276.09,814.726 3279.96,814.726 C3283.45,814.726 3288.33,809.961 3294.6,800.432 C3299.64,792.84 3302.16,785.867 3302.16,779.514 C3302.16,774.091 3301.26,769.016 3299.48,764.291"/>
<path class="Note" d="M3703.94,581.059 C3714.4,574.474 3721.99,569.09 3726.72,564.906 C3735.4,557.236 3739.73,549.489 3739.73,541.664 C3739.73,532.522 3733.61,527.951 3721.37,527.951 C3708.51,527.951 3695.11,537.209 3681.16,555.725 C3671.71,568.276 3665.01,580.13 3661.06,591.286 C3665.94,588.11 3671.09,586.521 3676.52,586.521 C3681.63,586.521 3685.7,588.807 3688.72,593.378 C3690.81,596.554 3691.86,601.977 3691.86,609.647 C3691.86,616.542 3688.21,624.638 3680.93,633.935 C3676.44,639.668 3671.44,642.535 3665.94,642.535 C3658.97,642.535 3654.09,641.14 3651.3,638.351 C3647.35,634.4 3645.37,626.575 3645.37,614.877 C3645.37,595.198 3653.31,575.83 3669.19,556.771 C3687.09,535.311 3704.25,524.581 3720.68,524.581 C3733.38,524.581 3742.87,527.564 3749.15,533.529 C3752.79,537.015 3754.61,542.051 3754.61,548.637 C3754.61,555.997 3747.37,564.209 3732.88,573.273 C3725.29,578.077 3715.64,580.672 3703.94,581.059 M3659.55,596.167 C3657.61,602.675 3656.64,608.911 3656.64,614.877 C3656.64,629.055 3658.89,636.143 3663.38,636.143 C3667.64,636.143 3670.98,633.122 3673.38,627.079 C3676.17,620.261 3677.56,612.707 3677.56,604.418 C3677.56,597.058 3675.12,593.378 3670.24,593.378 C3666.83,593.378 3663.27,594.307 3659.55,596.167"/>
<path class="Note" d="M3585.76,855.79 C3586.07,844.091 3592.54,833.71 3605.17,824.645 C3616.4,816.588 3628.68,812.559 3642.01,812.559 C3660.68,812.559 3677.14,819.881 3691.4,834.523 C3700.46,843.898 3705,855.519 3705,869.387 C3705,881.86 3701.66,891.428 3695,898.091 C3686.87,906.303 3678.27,910.409 3669.2,910.409 C3663.01,910.409 3658.2,909.014 3654.79,906.225 C3649.21,901.654 3646.43,895.534 3646.43,887.864 C3646.43,877.947 3651.38,868.883 3661.3,860.671 C3669.44,853.93 3677.61,849.514 3685.82,847.423 C3683.65,843.704 3680.9,840.218 3677.57,836.964 C3667.19,826.815 3655.41,821.74 3642.24,821.74 C3628.53,821.74 3617.18,824.723 3608.19,830.688 C3598.9,836.809 3591.42,845.176 3585.76,855.79 M3688.73,853.582 C3684.47,857.533 3680.2,861.755 3675.94,866.249 C3667.58,875.081 3663.39,883.448 3663.39,891.35 C3663.39,899.795 3665.33,904.017 3669.2,904.017 C3672.69,904.017 3677.57,899.253 3683.85,889.723 C3688.88,882.131 3691.4,875.158 3691.4,868.805 C3691.4,863.382 3690.51,858.308 3688.73,853.582"/>
<path class="Note" d="M3652.58,821.118 C3648.78,821.118 3646.88,817.05 3646.88,808.916 L3646.88,774.866 C3646.88,771.612 3648.47,769.985 3651.65,769.985 C3653.04,769.985 3654.09,770.101 3654.78,770.333 C3657.26,765.995 3661.33,762.354 3666.99,759.41 C3674.89,755.304 3682.91,753.25 3691.04,753.25 C3697.47,753.25 3700.69,755.652 3700.69,760.456 C3700.69,764.484 3698.52,766.499 3694.18,766.499 C3691.08,766.499 3688.14,765.801 3685.35,764.407 C3682.87,763.167 3680.23,762.547 3677.44,762.547 C3672.64,762.547 3665.55,765.685 3656.18,771.96 C3657.5,778.236 3658.15,785.557 3658.15,793.924 C3658.15,812.053 3656.29,821.118 3652.58,821.118"/>
<path class="Note" d="M3703.94,670.351 C3714.4,663.765 3721.99,658.381 3726.72,654.197 C3735.4,646.527 3739.73,638.78 3739.73,630.955 C3739.73,621.813 3733.61,617.242 3721.37,617.242 C3708.51,617.242 3695.11,626.5 3681.16,645.017 C3671.71,657.568 3665.01,669.421 3661.06,680.577 C3665.94,677.401 3671.09,675.813 3676.52,675.813 C3681.63,675.813 3685.7,678.098 3688.72,682.669 C3690.81,685.846 3691.86,691.269 3691.86,698.939 C3691.86,705.834 3688.21,713.93 3680.93,723.227 C3676.44,728.96 3671.44,731.826 3665.94,731.826 C3658.97,731.826 3654.09,730.432 3651.3,727.643 C3647.35,723.692 3645.37,715.867 3645.37,704.168 C3645.37,684.49 3653.31,665.121 3669.19,646.063 C3687.09,624.602 3704.25,613.872 3720.68,613.872 C3733.38,613.872 3742.87,616.855 3749.15,622.82 C3752.79,626.307 3754.61,631.343 3754.61,637.928 C3754.61,645.288 3747.37,653.5 3732.88,662.565 C3725.29,667.368 3715.64,669.963 3703.94,670.351 M3659.55,685.458 C3657.61,691.966 3656.64,698.203 3656.64,704.168 C3656.64,718.346 3658.89,725.435 3663.38,725.435 C3667.64,725.435 3670.98,722.413 3673.38,716.37 C3676.17,709.553 3677.56,701.999 3677.56,693.709 C3677.56,686.349 3675.12,682.669 3670.24,682.669 C3666.83,682.669 3663.27,683.599 3659.55,685.458"/>
<path class="Clef" transform="matrix(2.3811,0,0,2.3811,212.156,2158.79)" d="M25.4,-25.1 C17.8,-25.1 11.7,-20.7 11.6,-20.7 C5.8,-16.4 3.5,-11.3 2.6,-7.8 C2.1,-6 1.9,-4.2 1.9,-2.5 C1.9,-0.1 2.3,2.1 3.2,4 C4.4,6.7 6.7,8.6 9.7,9.6 C10.9,10 12.2,10.2 13.5,10.2 C15.7,10.2 18,9.6 19.9,8.5 C23,6.8 24.9,3.2 24.9,-0.7 C24.9,-4.2 23.1,-7.4 20.1,-9.3 C18,-10.7 16,-11.1 14.3,-11.1 C13.1,-11.1 12,-10.9 11.1,-10.6 C10.1,-10.2 8.4,-9.2 7.6,-8.5 C7.9,-10.4 9.1,-13.3 10.2,-14.9 C11.3,-16.5 13.5,-18.5 15.2,-19.4 C17.7,-20.8 20.9,-21.4 24.4,-21.4 C34.6,-21.4 39.6,-13.2 39.6,3.6 C39.6,12.9 36.1,21.8 33.1,27.7 C29.8,34.3 25.4,40.6 21.5,44.1 C11.1,53.6 1.3,58.1 1.2,58.1 C1.2,58.1 -0.3,59 0.1,60.5 C0.4,61.5 1.3,61.7 1.9,61.7 C2,61.7 2.3,61.6 2.4,61.6 C2.5,61.6 13.9,56.9 23,49.8 C28.1,46.1 32.7,42.1 36.7,37.8 C40.3,33.9 43.4,29.7 45.9,25.5 C50.3,18 52.8,10.2 52.8,3.5 C52.8,-4.8 50.6,-11.7 46.5,-16.6 C41.8,-22.2 34.7,-25.1 25.4,-25.1 M56.8,-12.4 C56.8,-9.6 59,-7.4 61.6,-7.4 C64.2,-7.4 66.4,-9.6 66.4,-12.4 C66.4,-15.2 64.2,-17.5 61.6,-17.5 C59,-17.5 56.8,-15.2 56.8,-12.4 M56.8,12.3 C56.8,15.1 59,17.4 61.6,17.4 C64.2,17.4 66.4,15.1 66.4,12.3 C66.4,9.5 64.2,7.2 61.6,7.2 C59,7.2 56.8,9.5 56.8,12.3"/>
<path class="Clef" transform="matrix(2.3811,0,0,2.3811,212.156,1570.39)" d="M63.37,-5.89004 C62.14,-11.32 59.5,-15.14 58.72,-16.1801 C55.5301,-20.45 51.52,-23.3 46.8301,-24.65 C43.72,-25.54 40.72,-25.65 38.3,-25.47 C37.2601,-31.4801 36.2601,-37.3601 35.35,-42.8101 C40.79,-48.97 44.42,-54.77 46.69,-59.07 C50.1601,-65.65 51.3101,-70.2301 51.3601,-70.4301 C53.0801,-75.64 53.44,-83.34 52.34,-91.55 C51.3301,-99.1 49.24,-105.81 46.89,-109.06 C45.8601,-110.49 44.8101,-111.22 43.77,-111.22 C42.55,-111.22 40.04,-109.98 37.15,-107.21 C34.85,-105.01 31.5801,-101.12 29.02,-95.1101 C26.02,-88.05 25.8101,-78.5601 26.1601,-71.84 C26.54,-64.57 27.65,-58.8801 27.6601,-58.8301 C27.6801,-58.74 27.94,-57.24 28.39,-54.67 C28.1601,-54.44 27.92,-54.22 27.67,-53.9801 C26.6301,-52.9801 25.44,-51.84 24.0601,-50.4601 C23.2,-49.6 22.25,-48.69 21.25,-47.72 C12.79,-39.57 0,-27.25 0,-8.1 C0,-3.4 0.9,1.01992 2.68008,5.02998 C4.27002,8.62998 6.57002,11.91 9.5,14.78 C17.2301,22.33 27.82,25.5399 34.8801,25.38 C37.8301,25.31 40.4601,25.0699 42.85,24.6199 C44.6801,34.2199 45.82,41.25 45.8601,46.5899 C45.9,53.1 44.25,57.0699 40.35,59.8399 C37.92,61.5699 35.1101,62.5199 32.0101,62.6699 C29.42,62.7899 27.1601,62.3199 25.7301,61.91 L25.72,61.91 C25.72,61.91 25.4301,61.83 25.42,61.63 C25.4101,61.45 25.7601,61.4 25.77,61.4 L25.79,61.4 C27.7101,60.96 31.2801,59.73 33.64,56.43 C35.44,53.91 36.3101,49.2899 34.47,45.35 C33.3601,42.96 30.85,40.01 25.2301,39.56 C22.74,39.36 20.47,39.8699 18.47,41.0699 C16.6601,42.15 15.1601,43.7899 14.1101,45.7899 C11.65,50.4899 12.1101,56.2199 15.24,60.06 C18.2,63.68 22.82,65.9899 28.25,66.5699 C29.1,66.66 29.95,66.7 30.8,66.7 C31.5101,66.7 32.22,66.6699 32.92,66.61 C31.72,66.9399 30.64,67.4899 29.77,68.25 C28.2801,69.5399 27.44,71.38 27.44,73.41 C27.44,75.28 28.0601,76.65 29.55,78.0399 C28.4101,78.5 27.55,78.98 26.79,79.56 C25.25,80.73 24.34,82.46 24.34,84.1899 C24.34,87.45 27.3,89.63 31.72,89.63 C37.1301,89.63 40.9101,86.63 40.9101,82.35 C40.9101,80.1199 39.9101,78.18 38.0801,76.83 C41.0101,75.6199 42.37,73.9399 42.37,71.56 C42.39,70.05 41.69,68.61 40.49,67.6899 C39.2801,66.7399 37.62,66.2399 35.69,66.2399 L35.5101,66.2399 C38.2801,65.7 40.92,64.7 43.2101,63.28 C46.87,60.71 48.99,56.73 49.67,51.1 C50.2301,46.46 49.84,40.55 48.44,32.48 C48.0801,30.3899 47.54,27.36 46.8801,23.6 C52.6301,21.68 56.79,18.11 60.5601,12.26 C63.85,6.51992 64.8,0.419922 63.37,-5.89004 M32.39,87.5399 C30.19,87.5399 28.7301,86.1199 28.7301,84.01 C28.7301,82.11 29.65,80.5 31.32,79.4699 C31.6801,79.66 31.77,79.71 32.1101,79.88 C33.3,80.48 33.3,80.48 33.55,80.63 L33.5601,80.6399 C35.47,81.73 36.25,82.76 36.25,84.18 C36.24,86.0899 34.59,87.5399 32.39,87.5399 M38.3101,71.63 C38.3101,73.2699 37.7301,74.3399 36.1801,75.53 C34.74,74.78 34.35,74.56 33.9801,74.3399 L33.8801,74.28 C32.3301,73.3399 31.85,72.66 31.85,71.4 C31.85,69.6 33.2301,68.3399 35.19,68.3399 C37.17,68.35 38.3101,69.55 38.3101,71.63 M33.15,-83.8101 C34.9301,-89.55 37.67,-92.8 39.6601,-94.5301 C41.4101,-96.05 43.0601,-96.7601 43.9801,-96.7601 C44.12,-96.7601 44.24,-96.74 44.34,-96.7101 C44.8,-96.57 45.3301,-96 45.8,-95.1301 C48.1101,-90.84 47.37,-84.1301 46.0301,-79.69 C44.4,-74.29 41.4801,-68.6801 32.69,-59.0601 C32.52,-60.17 32.3601,-61.22 32.2101,-62.2 C30.95,-70.49 31.27,-77.7601 33.15,-83.8101 M29.15,20.31 C24.5101,19.0899 20.0801,16.5899 16.32,13.0899 C15.0101,11.86 13.14,9.68994 11.67,6.3 C10.3101,3.13994 9.65,-0.290039 9.7,-3.88008 C9.77002,-8.57002 11.0801,-13.39 13.59,-18.1801 C16.5101,-23.7601 21.07,-29.29 27.1301,-34.62 C28.5801,-35.9 29.95,-37.1801 31.24,-38.4601 C32,-34.2 32.8301,-29.5101 33.7101,-24.6301 C29.8601,-23.3601 25.1101,-20.2101 22,-14.5601 C18.47,-7.99004 18.6101,-2.47002 19.34,1.00996 C20.2801,5.46992 22.8101,9.22998 26.27,11.3199 C27.2,11.88 31.3301,14.01 33.17,13.43 C33.54,13.31 33.8101,13.0899 33.95,12.76 C34.4601,11.5899 33.44,10.95 31.8801,9.98994 C31.2801,9.61992 30.6101,9.2 29.8801,8.66992 C26.5601,6.17998 25.1101,1.72998 26.1801,-2.65 C26.7601,-5.05 28.04,-7.21006 29.8801,-8.91006 C31.55,-10.4601 33.59,-11.5601 35.97,-12.2 C38.0101,-0.960059 40.07,10.1899 41.7101,18.55 C41.84,19.2399 41.9801,19.91 42.1101,20.58 C37.7101,21.51 33.37,21.4199 29.15,20.31 M54.9,10.1 C53.7301,13.28 51.27,17.35 46.14,19.41 C46.07,18.9899 45.99,18.56 45.9101,18.13 C44.3601,9.36992 42.4301,-1.61006 40.47,-12.87 C50.82,-13.35 55.09,-5.91006 55.9801,-1.08008 C56.45,1.45 56.45,5.88994 54.9,10.1"/>
<path class="KeySig" transform="matrix(2.3811,0,0,2.3811,429.785,2277.85)" d="M20.1,-7.9 C19.5,-11.8 17.1,-15.5 12,-15.5 C7,-15.5 4.1,-12.4 3.6,-11.8 L4,-43.9 C4,-44.7 3.4,-45.3 2.6,-45.3 L1.4,-45.3 C0.6,-45.3 0,-44.7 0,-43.9 L0.5,16.2 C0.5,17 1.1,17.6 1.9,17.6 C2.1,17.6 2.5,17.5 2.7,17.4 C3.1,17.2 9.6,14 15,7.9 C18.8,3.6 20.3,-1.3 20.3,-5.4 C20.3,-6.3 20.2,-7.1 20.1,-7.9 M13.2,-4 C13.2,-2.5 12.8,2.1 10.3,5.9 C8.6,8.5 5.2,11.2 3.3,12.7 L3.6,-6.8 C3.8,-7.7 5.3,-10.6 9.3,-10.6 C12.9,-10.6 13.2,-7.2 13.2,-5.1 L13.2,-4 "/>
<path class="KeySig" transform="matrix(2.3811,0,0,2.3811,429.785,1510.87)" d="M20.1,-7.9 C19.5,-11.8 17.1,-15.5 12,-15.5 C7,-15.5 4.1,-12.4 3.6,-11.8 L4,-43.9 C4,-44.7 3.4,-45.3 2.6,-45.3 L1.4,-45.3 C0.6,-45.3 0,-44.7 0,-43.9 L0.5,16.2 C0.5,17 1.1,17.6 1.9,17.6 C2.1,17.6 2.5,17.5 2.7,17.4 C3.1,17.2 9.6,14 15,7.9 C18.8,3.6 20.3,-1.3 20.3,-5.4 C20.3,-6.3 20.2,-7.1 20.1,-7.9 M13.2,-4 C13.2,-2.5 12.8,2.1 10.3,5.9 C8.6,8.5 5.2,11.2 3.3,12.7 L3.6,-6.8 C3.8,-7.7 5.3,-10.6 9.3,-10.6 C12.9,-10.6 13.2,-7.2 13.2,-5.1 L13.2,-4 "/>
<path class="FiguredBass" d="M1784.4,2472.56 C1779.83,2472.56 1776.78,2474.4 1775.27,2478.08 C1773.75,2481.76 1772.99,2486.97 1772.99,2493.71 L1772.99,2504.66 C1776.21,2503.36 1778.99,2502.68 1781.34,2502.62 C1789.38,2502.62 1795.71,2504.4 1800.31,2507.95 C1804.92,2511.51 1807.23,2516.8 1807.23,2523.82 C1807.23,2530.84 1804.89,2536.14 1800.22,2539.73 C1795.55,2543.32 1789.26,2545.11 1781.34,2545.11 C1773.24,2545.11 1766.9,2541.35 1762.32,2533.84 C1757.75,2526.32 1755.46,2517.4 1755.46,2507.07 C1755.46,2496.81 1758.12,2487.9 1763.44,2480.35 C1768.76,2472.81 1775.74,2469.04 1784.4,2469.04 C1790.09,2469.04 1795.01,2470.47 1799.15,2473.35 C1803.3,2476.23 1805.37,2480.01 1805.37,2484.71 C1805.37,2487.44 1804.38,2489.79 1802.4,2491.76 C1800.42,2493.74 1798.06,2494.73 1795.3,2494.73 C1792.55,2494.73 1790.19,2493.74 1788.21,2491.76 C1786.23,2489.79 1785.24,2487.44 1785.24,2484.71 C1785.24,2482.05 1786.23,2479.7 1788.21,2477.66 C1788.89,2476.86 1789.85,2476.18 1791.08,2475.62 C1790.77,2474.82 1790.16,2474.2 1789.23,2473.77 C1787.87,2472.96 1786.26,2472.56 1784.4,2472.56 M1788.95,2510.5 C1787.84,2507.6 1785.39,2506.14 1781.62,2506.14 C1777.85,2506.14 1775.51,2507.6 1774.62,2510.5 C1773.72,2513.41 1773.27,2517.83 1773.27,2523.77 C1773.27,2530.76 1773.72,2535.46 1774.62,2537.87 C1775.51,2540.29 1777.85,2541.49 1781.62,2541.49 C1785.39,2541.49 1787.84,2540.04 1788.95,2537.13 C1790.06,2534.22 1790.62,2529.79 1790.62,2523.82 C1790.62,2517.85 1790.06,2513.41 1788.95,2510.5"/>
<path class="FiguredBass" d="M1783.75,2576.73 C1786.1,2576.73 1788.58,2576.39 1791.18,2575.71 L1795.35,2574.6 C1796.15,2574.6 1796.79,2574.91 1797.25,2575.53 C1797.72,2576.15 1797.67,2576.7 1797.11,2577.2 L1753.97,2627.39 L1779.3,2627.39 L1779.3,2607.53 C1779.3,2606.11 1779.69,2605.01 1780.46,2604.24 C1781.23,2603.47 1782.22,2602.85 1783.43,2602.39 C1784.64,2601.92 1786.21,2600.55 1788.16,2598.26 C1790.11,2595.97 1791.98,2592.88 1793.77,2588.98 C1794.08,2588.36 1794.55,2588.05 1795.17,2588.05 C1796.46,2588.05 1797.11,2588.76 1797.11,2590.19 L1797.11,2627.39 L1808.06,2627.39 C1809.61,2627.39 1810.38,2628.1 1810.38,2629.52 C1810.38,2631.07 1809.61,2631.84 1808.06,2631.84 L1797.11,2631.84 L1797.11,2633.05 C1797.11,2636.88 1798.13,2640.22 1800.17,2643.07 C1802.22,2645.91 1804.84,2647.33 1808.06,2647.33 C1809.3,2647.33 1809.92,2647.89 1809.92,2649 C1809.92,2650.24 1809.3,2650.86 1808.06,2650.86 C1805.83,2650.86 1802.53,2650.53 1798.13,2649.89 C1793.74,2649.24 1790.42,2648.91 1788.16,2648.91 C1785.9,2648.91 1782.58,2649.24 1778.19,2649.89 C1773.8,2650.53 1770.49,2650.86 1768.26,2650.86 C1767.02,2650.86 1766.41,2650.24 1766.41,2649 C1766.41,2647.89 1767.02,2647.33 1768.26,2647.33 C1771.48,2647.33 1774.12,2645.91 1776.19,2643.07 C1778.26,2640.22 1779.3,2636.88 1779.3,2633.05 L1779.3,2631.84 L1753.97,2631.84 C1752.37,2631.84 1751.18,2631.45 1750.4,2630.68 C1749.63,2629.91 1749.24,2629.12 1749.24,2628.32 C1749.24,2628.01 1749.97,2626.94 1751.42,2625.11 C1752.88,2623.29 1754.65,2620.86 1756.76,2617.83 C1758.86,2614.8 1760.95,2611.35 1763.02,2607.49 C1765.09,2603.62 1766.85,2598.98 1768.31,2593.57 C1769.76,2588.16 1770.49,2582.7 1770.49,2577.2 C1770.49,2575.59 1771.17,2574.79 1772.53,2574.79 C1772.71,2574.79 1773.36,2574.94 1774.48,2575.25 C1775.59,2575.56 1777.01,2575.88 1778.74,2576.22 C1780.48,2576.56 1782.15,2576.73 1783.75,2576.73"/>
<path class="FiguredBass" d="M2348.79,2470.98 C2351.14,2470.98 2353.61,2470.64 2356.21,2469.96 L2360.38,2468.85 C2361.19,2468.85 2361.82,2469.16 2362.29,2469.78 C2362.75,2470.4 2362.7,2470.95 2362.15,2471.45 L2319.01,2521.64 L2344.33,2521.64 L2344.33,2501.78 C2344.33,2500.36 2344.72,2499.26 2345.49,2498.49 C2346.27,2497.72 2347.26,2497.1 2348.46,2496.64 C2349.67,2496.17 2351.25,2494.8 2353.19,2492.51 C2355.14,2490.22 2357.01,2487.13 2358.81,2483.23 C2359.12,2482.61 2359.58,2482.3 2360.2,2482.3 C2361.5,2482.3 2362.15,2483.01 2362.15,2484.44 L2362.15,2521.64 L2373.09,2521.64 C2374.64,2521.64 2375.41,2522.35 2375.41,2523.77 C2375.41,2525.32 2374.64,2526.09 2373.09,2526.09 L2362.15,2526.09 L2362.15,2527.3 C2362.15,2531.13 2363.17,2534.47 2365.21,2537.32 C2367.25,2540.16 2369.88,2541.58 2373.09,2541.58 C2374.33,2541.58 2374.95,2542.14 2374.95,2543.25 C2374.95,2544.49 2374.33,2545.11 2373.09,2545.11 C2370.87,2545.11 2367.56,2544.78 2363.17,2544.14 C2358.78,2543.49 2355.45,2543.16 2353.19,2543.16 C2350.94,2543.16 2347.61,2543.49 2343.22,2544.14 C2338.83,2544.78 2335.52,2545.11 2333.29,2545.11 C2332.06,2545.11 2331.44,2544.49 2331.44,2543.25 C2331.44,2542.14 2332.06,2541.58 2333.29,2541.58 C2336.51,2541.58 2339.15,2540.16 2341.23,2537.32 C2343.3,2534.47 2344.33,2531.13 2344.33,2527.3 L2344.33,2526.09 L2319.01,2526.09 C2317.4,2526.09 2316.21,2525.7 2315.43,2524.93 C2314.66,2524.16 2314.27,2523.37 2314.27,2522.57 C2314.27,2522.26 2315,2521.19 2316.46,2519.36 C2317.91,2517.54 2319.69,2515.11 2321.79,2512.08 C2323.89,2509.05 2325.98,2505.6 2328.05,2501.74 C2330.12,2497.87 2331.89,2493.23 2333.34,2487.82 C2334.79,2482.41 2335.52,2476.95 2335.52,2471.45 C2335.52,2469.84 2336.2,2469.04 2337.56,2469.04 C2337.75,2469.04 2338.4,2469.19 2339.51,2469.5 C2340.62,2469.81 2342.05,2470.13 2343.78,2470.47 C2345.51,2470.81 2347.18,2470.98 2348.79,2470.98"/>
<path class="FiguredBass" d="M2998.15,2504.75 C2998.15,2505.74 2998.71,2506.7 2999.82,2507.63 C3000.93,2508.56 3002.16,2509.44 3003.49,2510.27 C3004.81,2511.11 3006.04,2512.68 3007.15,2515 C3008.26,2517.32 3008.82,2520.25 3008.82,2523.77 C3008.82,2530.57 3006.25,2535.83 3001.12,2539.54 C2995.99,2543.25 2989.49,2545.11 2981.64,2545.11 C2975.33,2545.11 2969.84,2543.53 2965.17,2540.38 C2960.5,2537.22 2958.17,2533.08 2958.17,2527.95 C2958.17,2525.22 2959.15,2522.86 2961.13,2520.85 C2963.11,2518.84 2965.48,2517.83 2968.23,2517.83 C2970.98,2517.83 2973.32,2518.82 2975.24,2520.8 C2977.15,2522.78 2978.11,2525.16 2978.11,2527.95 C2978.11,2529.18 2977.09,2530.53 2975.05,2531.98 C2973.01,2533.44 2971.99,2534.78 2971.99,2536.02 C2971.99,2537.93 2972.93,2539.34 2974.82,2540.24 C2976.7,2541.14 2978.98,2541.58 2981.64,2541.58 C2985.1,2541.58 2987.56,2539.87 2989.01,2536.43 C2990.47,2533 2991.19,2528.78 2991.19,2523.77 L2991.19,2521.36 C2991.19,2518.02 2991.08,2515.48 2990.87,2513.75 C2990.65,2512.02 2989.97,2510.47 2988.83,2509.11 C2987.68,2507.75 2985.94,2507.07 2983.59,2507.07 L2971.43,2507.07 C2970.01,2507.07 2969.3,2506.3 2969.3,2504.75 C2969.3,2503.33 2970.01,2502.62 2971.43,2502.62 L2983.59,2502.62 C2986.12,2502.62 2988.1,2501.66 2989.52,2499.74 C2990.02,2499.06 2990.42,2497.95 2990.73,2496.4 C2991.04,2494.36 2991.19,2491.42 2991.19,2487.59 L2991.19,2486.38 C2991.19,2477.17 2987.79,2472.56 2980.99,2472.56 C2974.99,2472.56 2971.99,2474.23 2971.99,2477.57 C2971.99,2478.68 2972.9,2479.87 2974.73,2481.14 C2976.55,2482.41 2977.46,2483.6 2977.46,2484.71 C2977.46,2487.13 2976.61,2489.2 2974.91,2490.93 C2973.21,2492.66 2971.14,2493.53 2968.7,2493.53 C2966.25,2493.53 2964.2,2492.66 2962.53,2490.93 C2960.86,2489.2 2960.02,2487.13 2960.02,2484.71 C2960.02,2479.95 2962.09,2476.15 2966.24,2473.3 C2970.38,2470.46 2975.3,2469.04 2980.99,2469.04 C2988.47,2469.04 2994.63,2470.47 2999.45,2473.35 C3004.27,2476.23 3006.69,2480.57 3006.69,2486.38 C3006.69,2490.53 3006.25,2493.74 3005.39,2496.03 C3004.52,2498.32 3003.53,2499.71 3002.42,2500.21 C3001.31,2500.7 3000.32,2501.27 2999.45,2501.92 C2998.58,2502.57 2998.15,2503.52 2998.15,2504.75"/>
<path class="FiguredBass" d="M3252.88,2475.9 C3253.06,2475.9 3253.47,2475.5 3254.08,2474.69 C3256.74,2470.92 3260.45,2469.04 3265.22,2469.04 C3269.05,2469.04 3272.67,2470.46 3276.07,2473.3 C3279.47,2476.15 3282.29,2477.57 3284.51,2477.57 C3286.93,2477.57 3289.21,2476.86 3291.38,2475.44 C3293.54,2474.01 3295.26,2472.59 3296.53,2471.17 C3297.8,2469.75 3298.61,2469.04 3298.99,2469.04 C3299.6,2469.04 3300.16,2469.24 3300.66,2469.64 C3301.15,2470.04 3301.4,2470.55 3301.4,2471.17 C3301.4,2471.6 3300.13,2473.74 3297.59,2477.57 C3295.06,2481.4 3292.24,2485.84 3289.15,2490.88 C3286.06,2495.92 3283.25,2502.22 3280.71,2509.76 C3278.17,2517.31 3276.91,2524.51 3276.91,2531.38 C3276.91,2534.04 3277.18,2537.1 3277.74,2540.56 C3278.17,2543.22 3278.17,2544.74 3277.74,2545.11 C3277.43,2545.42 3276.91,2545.57 3276.16,2545.57 C3275.85,2545.57 3274.42,2545.17 3271.85,2544.37 C3269.28,2543.56 3266.82,2543.16 3264.47,2543.16 C3262.37,2543.16 3259.94,2543.56 3257.19,2544.37 C3254.44,2545.17 3252.91,2545.57 3252.6,2545.57 C3251.92,2545.57 3251.36,2545.29 3250.93,2544.74 C3250.5,2544.18 3250.43,2543.59 3250.74,2542.98 C3254.39,2534.25 3258.83,2525.77 3264.06,2517.51 C3269.28,2509.25 3275.82,2499.74 3283.68,2488.98 C3280.71,2490.59 3277.71,2491.39 3274.68,2491.39 C3271.46,2491.39 3268.22,2489.96 3264.94,2487.08 C3261.66,2484.2 3258.97,2482.77 3256.87,2482.77 C3255.32,2482.77 3253.98,2483.65 3252.83,2485.41 C3251.69,2487.17 3251.11,2489.82 3251.11,2493.34 L3251.11,2504.75 C3251.11,2506.3 3250.4,2507.07 3248.98,2507.07 C3247.43,2507.07 3246.66,2506.3 3246.66,2504.75 L3246.66,2471.35 C3246.66,2469.81 3247.43,2469.04 3248.98,2469.04 C3250.4,2469.04 3251.11,2469.81 3251.11,2471.35 L3251.11,2473.49 C3251.11,2473.98 3251.24,2474.42 3251.49,2474.79 C3252.23,2475.53 3252.69,2475.9 3252.88,2475.9"/>
<path class="FiguredBass" d="M3275.89,2632.58 C3275.21,2633.33 3274.31,2633.7 3273.2,2633.7 C3272.09,2633.7 3271.17,2633.31 3270.46,2632.54 C3269.75,2631.76 3269.4,2630.88 3269.4,2629.89 L3269.4,2616.63 L3256.13,2616.63 C3255.02,2616.63 3254.1,2616.24 3253.39,2615.47 C3252.68,2614.69 3252.33,2613.81 3252.33,2612.82 C3252.33,2611.83 3252.68,2610.95 3253.39,2610.18 C3254.1,2609.41 3255.02,2609.02 3256.13,2609.02 L3269.4,2609.02 L3269.4,2595.75 C3269.4,2594.76 3269.75,2593.88 3270.46,2593.11 C3271.17,2592.33 3272.09,2591.95 3273.2,2591.95 C3274.31,2591.95 3275.23,2592.33 3275.94,2593.11 C3276.65,2593.88 3277,2594.76 3277,2595.75 L3277,2609.02 L3290.27,2609.02 C3291.38,2609.02 3292.3,2609.41 3293.01,2610.18 C3293.72,2610.95 3294.07,2611.83 3294.07,2612.82 C3294.07,2613.81 3293.72,2614.69 3293.01,2615.47 C3292.3,2616.24 3291.38,2616.63 3290.27,2616.63 L3277,2616.63 L3277,2629.89 C3277,2630.88 3276.63,2631.78 3275.89,2632.58"/>
<path class="FiguredBass" d="M1792.75,1793.87 C1797.7,1788.49 1800.17,1783.29 1800.17,1778.28 C1800.17,1774.2 1798.43,1770.98 1794.93,1768.63 C1791.44,1766.28 1787.25,1765.11 1782.36,1765.11 C1778.9,1765.11 1776.13,1766.19 1774.06,1768.35 C1771.99,1770.52 1770.95,1773.02 1770.95,1775.87 C1770.95,1779.33 1772.47,1781.96 1775.5,1783.75 L1792.75,1793.87 M1797.3,1796.46 C1805.71,1801.35 1809.92,1807.78 1809.92,1815.76 C1809.92,1821.76 1807.35,1826.91 1802.22,1831.21 C1797.08,1835.51 1790.06,1837.66 1781.16,1837.66 C1773.67,1837.66 1767.16,1835.68 1761.63,1831.72 C1756.09,1827.76 1753.32,1822.63 1753.32,1816.32 C1753.32,1813.97 1754,1811.59 1755.37,1809.17 C1756.73,1806.76 1757.99,1804.95 1759.17,1803.75 C1760.34,1802.54 1762.26,1800.67 1764.92,1798.13 C1758.74,1793.87 1755.64,1788.49 1755.64,1781.99 C1755.64,1776.43 1758.02,1771.63 1762.79,1767.61 C1767.55,1763.59 1774.07,1761.58 1782.36,1761.58 C1788.98,1761.58 1794.72,1763.08 1799.57,1766.08 C1804.43,1769.08 1806.85,1773.15 1806.85,1778.28 C1806.85,1783.79 1803.67,1789.85 1797.3,1796.46 M1769.47,1800.83 C1763.16,1806.33 1760,1811.49 1760,1816.32 C1760,1821.39 1762.11,1825.63 1766.31,1829.03 C1770.52,1832.43 1775.47,1834.13 1781.16,1834.13 C1785.11,1834.13 1788.28,1832.86 1790.67,1830.33 C1793.05,1827.79 1794.24,1824.85 1794.24,1821.51 C1794.24,1817.25 1792.47,1814.09 1788.95,1812.05 L1769.47,1800.83 "/>
<path class="FiguredBass" d="M1784.4,1870.86 C1779.83,1870.86 1776.78,1872.7 1775.27,1876.38 C1773.75,1880.06 1772.99,1885.27 1772.99,1892.01 L1772.99,1902.96 C1776.21,1901.66 1778.99,1900.98 1781.34,1900.92 C1789.38,1900.92 1795.71,1902.69 1800.31,1906.25 C1804.92,1909.81 1807.23,1915.09 1807.23,1922.11 C1807.23,1929.13 1804.89,1934.44 1800.22,1938.03 C1795.55,1941.61 1789.26,1943.41 1781.34,1943.41 C1773.24,1943.41 1766.9,1939.65 1762.32,1932.13 C1757.75,1924.62 1755.46,1915.7 1755.46,1905.37 C1755.46,1895.1 1758.12,1886.2 1763.44,1878.65 C1768.76,1871.1 1775.74,1867.33 1784.4,1867.33 C1790.09,1867.33 1795.01,1868.77 1799.15,1871.65 C1803.3,1874.52 1805.37,1878.31 1805.37,1883.01 C1805.37,1885.73 1804.38,1888.08 1802.4,1890.06 C1800.42,1892.04 1798.06,1893.03 1795.3,1893.03 C1792.55,1893.03 1790.19,1892.04 1788.21,1890.06 C1786.23,1888.08 1785.24,1885.73 1785.24,1883.01 C1785.24,1880.35 1786.23,1878 1788.21,1875.96 C1788.89,1875.16 1789.85,1874.48 1791.08,1873.92 C1790.77,1873.11 1790.16,1872.5 1789.23,1872.06 C1787.87,1871.26 1786.26,1870.86 1784.4,1870.86 M1788.95,1908.8 C1787.84,1905.89 1785.39,1904.44 1781.62,1904.44 C1777.85,1904.44 1775.51,1905.89 1774.62,1908.8 C1773.72,1911.71 1773.27,1916.13 1773.27,1922.07 C1773.27,1929.06 1773.72,1933.76 1774.62,1936.17 C1775.51,1938.58 1777.85,1939.79 1781.62,1939.79 C1785.39,1939.79 1787.84,1938.33 1788.95,1935.43 C1790.06,1932.52 1790.62,1928.08 1790.62,1922.11 C1790.62,1916.15 1790.06,1911.71 1788.95,1908.8"/>
<path class="FiguredBass" d="M1783.75,1975.03 C1786.1,1975.03 1788.58,1974.69 1791.18,1974.01 L1795.35,1972.9 C1796.15,1972.9 1796.79,1973.21 1797.25,1973.82 C1797.72,1974.44 1797.67,1975 1797.11,1975.49 L1753.97,2025.68 L1779.3,2025.68 L1779.3,2005.83 C1779.3,2004.41 1779.69,2003.31 1780.46,2002.54 C1781.23,2001.76 1782.22,2001.15 1783.43,2000.68 C1784.64,2000.22 1786.21,1998.84 1788.16,1996.55 C1790.11,1994.27 1791.98,1991.17 1793.77,1987.28 C1794.08,1986.66 1794.55,1986.35 1795.17,1986.35 C1796.46,1986.35 1797.11,1987.06 1797.11,1988.48 L1797.11,2025.68 L1808.06,2025.68 C1809.61,2025.68 1810.38,2026.4 1810.38,2027.82 C1810.38,2029.36 1809.61,2030.14 1808.06,2030.14 L1797.11,2030.14 L1797.11,2031.34 C1797.11,2035.18 1798.13,2038.52 1800.17,2041.36 C1802.22,2044.21 1804.84,2045.63 1808.06,2045.63 C1809.3,2045.63 1809.92,2046.19 1809.92,2047.3 C1809.92,2048.54 1809.3,2049.16 1808.06,2049.16 C1805.83,2049.16 1802.53,2048.83 1798.13,2048.18 C1793.74,2047.53 1790.42,2047.21 1788.16,2047.21 C1785.9,2047.21 1782.58,2047.53 1778.19,2048.18 C1773.8,2048.83 1770.49,2049.16 1768.26,2049.16 C1767.02,2049.16 1766.41,2048.54 1766.41,2047.3 C1766.41,2046.19 1767.02,2045.63 1768.26,2045.63 C1771.48,2045.63 1774.12,2044.21 1776.19,2041.36 C1778.26,2038.52 1779.3,2035.18 1779.3,2031.34 L1779.3,2030.14 L1753.97,2030.14 C1752.37,2030.14 1751.18,2029.75 1750.4,2028.98 C1749.63,2028.2 1749.24,2027.42 1749.24,2026.61 C1749.24,2026.3 1749.97,2025.24 1751.42,2023.41 C1752.88,2021.59 1754.65,2019.16 1756.76,2016.13 C1758.86,2013.1 1760.95,2009.65 1763.02,2005.78 C1765.09,2001.92 1766.85,1997.28 1768.31,1991.87 C1769.76,1986.46 1770.49,1981 1770.49,1975.49 C1770.49,1973.89 1771.17,1973.08 1772.53,1973.08 C1772.71,1973.08 1773.36,1973.24 1774.48,1973.55 C1775.59,1973.86 1777.01,1974.18 1778.74,1974.52 C1780.48,1974.86 1782.15,1975.03 1783.75,1975.03"/>
<path class="FiguredBass" d="M2357.79,1793.87 C2362.73,1788.49 2365.21,1783.29 2365.21,1778.28 C2365.21,1774.2 2363.46,1770.98 2359.97,1768.63 C2356.47,1766.28 2352.28,1765.11 2347.4,1765.11 C2343.93,1765.11 2341.16,1766.19 2339.09,1768.35 C2337.02,1770.52 2335.98,1773.02 2335.98,1775.87 C2335.98,1779.33 2337.5,1781.96 2340.53,1783.75 L2357.79,1793.87 M2362.33,1796.46 C2370.74,1801.35 2374.95,1807.78 2374.95,1815.76 C2374.95,1821.76 2372.38,1826.91 2367.25,1831.21 C2362.12,1835.51 2355.1,1837.66 2346.19,1837.66 C2338.71,1837.66 2332.2,1835.68 2326.66,1831.72 C2321.12,1827.76 2318.36,1822.63 2318.36,1816.32 C2318.36,1813.97 2319.04,1811.59 2320.4,1809.17 C2321.76,1806.76 2323.03,1804.95 2324.2,1803.75 C2325.38,1802.54 2327.29,1800.67 2329.95,1798.13 C2323.77,1793.87 2320.68,1788.49 2320.68,1781.99 C2320.68,1776.43 2323.06,1771.63 2327.82,1767.61 C2332.58,1763.59 2339.11,1761.58 2347.4,1761.58 C2354.01,1761.58 2359.75,1763.08 2364.6,1766.08 C2369.46,1769.08 2371.89,1773.15 2371.89,1778.28 C2371.89,1783.79 2368.7,1789.85 2362.33,1796.46 M2334.5,1800.83 C2328.19,1806.33 2325.04,1811.49 2325.04,1816.32 C2325.04,1821.39 2327.14,1825.63 2331.35,1829.03 C2335.55,1832.43 2340.5,1834.13 2346.19,1834.13 C2350.15,1834.13 2353.32,1832.86 2355.7,1830.33 C2358.08,1827.79 2359.27,1824.85 2359.27,1821.51 C2359.27,1817.25 2357.51,1814.09 2353.98,1812.05 L2334.5,1800.83 "/>
<path class="FiguredBass" d="M2326.8,1867.33 C2326.8,1867.33 2328.28,1867.55 2331.25,1867.98 C2332.55,1868.17 2334,1868.35 2335.61,1868.54 C2339.88,1869.03 2343.99,1869.28 2347.95,1869.28 C2351.91,1869.28 2356.08,1869.03 2360.48,1868.54 C2362.21,1868.35 2363.72,1868.17 2365.02,1867.98 L2369.57,1867.33 C2370.5,1867.33 2371.19,1867.64 2371.66,1868.26 C2372.12,1868.88 2372.07,1869.37 2371.52,1869.74 C2362.05,1879.21 2348.72,1883.94 2331.53,1883.94 C2330.85,1883.94 2330.25,1884.19 2329.72,1884.68 C2329.2,1885.18 2328.93,1885.79 2328.93,1886.54 L2328.93,1901.1 C2333.32,1896.77 2338.64,1894.61 2344.89,1894.61 C2353.92,1894.61 2360.89,1896.63 2365.81,1900.68 C2370.73,1904.74 2373.19,1910.87 2373.19,1919.1 C2373.19,1926.09 2370.4,1931.89 2364.84,1936.49 C2359.27,1941.1 2352.62,1943.41 2344.89,1943.41 C2338.21,1943.41 2332.41,1941.89 2327.5,1938.86 C2322.58,1935.83 2320.12,1931.62 2320.12,1926.24 C2320.12,1923.52 2321.11,1921.16 2323.09,1919.15 C2325.07,1917.14 2327.43,1916.13 2330.19,1916.13 C2332.94,1916.13 2335.27,1917.12 2337.19,1919.1 C2339.11,1921.08 2340.07,1923.46 2340.07,1926.24 C2340.07,1927.48 2339.05,1928.83 2337,1930.28 C2334.96,1931.73 2333.94,1933.08 2333.94,1934.31 C2333.94,1938.03 2337.59,1939.88 2344.89,1939.88 C2352,1939.88 2355.56,1932.95 2355.56,1919.1 C2355.56,1905.74 2352,1899.03 2344.89,1898.97 C2338.52,1898.97 2334.07,1900.27 2331.53,1902.86 C2328.99,1905.46 2327.42,1906.76 2326.8,1906.76 C2325.25,1906.76 2324.51,1905.99 2324.57,1904.44 L2324.57,1869.74 C2324.57,1869.06 2324.79,1868.49 2325.22,1868.03 C2325.66,1867.56 2326.18,1867.33 2326.8,1867.33"/>
<path class="FiguredBass" d="M2348.79,1975.03 C2351.14,1975.03 2353.61,1974.69 2356.21,1974.01 L2360.38,1972.9 C2361.19,1972.9 2361.82,1973.21 2362.29,1973.82 C2362.75,1974.44 2362.7,1975 2362.15,1975.49 L2319.01,2025.68 L2344.33,2025.68 L2344.33,2005.83 C2344.33,2004.41 2344.72,2003.31 2345.49,2002.54 C2346.27,2001.76 2347.26,2001.15 2348.46,2000.68 C2349.67,2000.22 2351.25,1998.84 2353.19,1996.55 C2355.14,1994.27 2357.01,1991.17 2358.81,1987.28 C2359.12,1986.66 2359.58,1986.35 2360.2,1986.35 C2361.5,1986.35 2362.15,1987.06 2362.15,1988.48 L2362.15,2025.68 L2373.09,2025.68 C2374.64,2025.68 2375.41,2026.4 2375.41,2027.82 C2375.41,2029.36 2374.64,2030.14 2373.09,2030.14 L2362.15,2030.14 L2362.15,2031.34 C2362.15,2035.18 2363.17,2038.52 2365.21,2041.36 C2367.25,2044.21 2369.88,2045.63 2373.09,2045.63 C2374.33,2045.63 2374.95,2046.19 2374.95,2047.3 C2374.95,2048.54 2374.33,2049.16 2373.09,2049.16 C2370.87,2049.16 2367.56,2048.83 2363.17,2048.18 C2358.78,2047.53 2355.45,2047.21 2353.19,2047.21 C2350.94,2047.21 2347.61,2047.53 2343.22,2048.18 C2338.83,2048.83 2335.52,2049.16 2333.29,2049.16 C2332.06,2049.16 2331.44,2048.54 2331.44,2047.3 C2331.44,2046.19 2332.06,2045.63 2333.29,2045.63 C2336.51,2045.63 2339.15,2044.21 2341.23,2041.36 C2343.3,2038.52 2344.33,2035.18 2344.33,2031.34 L2344.33,2030.14 L2319.01,2030.14 C2317.4,2030.14 2316.21,2029.75 2315.43,2028.98 C2314.66,2028.2 2314.27,2027.42 2314.27,2026.61 C2314.27,2026.3 2315,2025.24 2316.46,2023.41 C2317.91,2021.59 2319.69,2019.16 2321.79,2016.13 C2323.89,2013.1 2325.98,2009.65 2328.05,2005.78 C2330.12,2001.92 2331.89,1997.28 2333.34,1991.87 C2334.79,1986.46 2335.52,1981 2335.52,1975.49 C2335.52,1973.89 2336.2,1973.08 2337.56,1973.08 C2337.75,1973.08 2338.4,1973.24 2339.51,1973.55 C2340.62,1973.86 2342.05,1974.18 2343.78,1974.52 C2345.51,1974.86 2347.18,1975.03 2348.79,1975.03"/>
<path class="FiguredBass" d="M3284.33,1793.87 C3289.28,1788.49 3291.75,1783.29 3291.75,1778.28 C3291.75,1774.2 3290,1770.98 3286.51,1768.63 C3283.01,1766.28 3278.82,1765.11 3273.94,1765.11 C3270.47,1765.11 3267.71,1766.19 3265.63,1768.35 C3263.56,1770.52 3262.53,1773.02 3262.53,1775.87 C3262.53,1779.33 3264.04,1781.96 3267.07,1783.75 L3284.33,1793.87 M3288.87,1796.46 C3297.29,1801.35 3301.49,1807.78 3301.49,1815.76 C3301.49,1821.76 3298.92,1826.91 3293.79,1831.21 C3288.66,1835.51 3281.64,1837.66 3272.73,1837.66 C3265.25,1837.66 3258.74,1835.68 3253.2,1831.72 C3247.67,1827.76 3244.9,1822.63 3244.9,1816.32 C3244.9,1813.97 3245.58,1811.59 3246.94,1809.17 C3248.3,1806.76 3249.57,1804.95 3250.74,1803.75 C3251.92,1802.54 3253.84,1800.67 3256.5,1798.13 C3250.31,1793.87 3247.22,1788.49 3247.22,1781.99 C3247.22,1776.43 3249.6,1771.63 3254.36,1767.61 C3259.12,1763.59 3265.65,1761.58 3273.94,1761.58 C3280.56,1761.58 3286.29,1763.08 3291.15,1766.08 C3296,1769.08 3298.43,1773.15 3298.43,1778.28 C3298.43,1783.79 3295.24,1789.85 3288.87,1796.46 M3261.04,1800.83 C3254.73,1806.33 3251.58,1811.49 3251.58,1816.32 C3251.58,1821.39 3253.68,1825.63 3257.89,1829.03 C3262.09,1832.43 3267.04,1834.13 3272.73,1834.13 C3276.69,1834.13 3279.86,1832.86 3282.24,1830.33 C3284.62,1827.79 3285.81,1824.85 3285.81,1821.51 C3285.81,1817.25 3284.05,1814.09 3280.52,1812.05 L3261.04,1800.83 "/>
<path class="FiguredBass" d="M3252.88,1874.2 C3253.06,1874.2 3253.47,1873.8 3254.08,1872.99 C3256.74,1869.22 3260.45,1867.33 3265.22,1867.33 C3269.05,1867.33 3272.67,1868.75 3276.07,1871.6 C3279.47,1874.44 3282.29,1875.87 3284.51,1875.87 C3286.93,1875.87 3289.21,1875.16 3291.38,1873.73 C3293.54,1872.31 3295.26,1870.89 3296.53,1869.47 C3297.8,1868.04 3298.61,1867.33 3298.99,1867.33 C3299.6,1867.33 3300.16,1867.53 3300.66,1867.93 C3301.15,1868.34 3301.4,1868.85 3301.4,1869.47 C3301.4,1869.9 3300.13,1872.03 3297.59,1875.87 C3295.06,1879.7 3292.24,1884.14 3289.15,1889.18 C3286.06,1894.22 3283.25,1900.51 3280.71,1908.06 C3278.17,1915.61 3276.91,1922.81 3276.91,1929.68 C3276.91,1932.34 3277.18,1935.4 3277.74,1938.86 C3278.17,1941.52 3278.17,1943.04 3277.74,1943.41 C3277.43,1943.72 3276.91,1943.87 3276.16,1943.87 C3275.85,1943.87 3274.42,1943.47 3271.85,1942.66 C3269.28,1941.86 3266.82,1941.46 3264.47,1941.46 C3262.37,1941.46 3259.94,1941.86 3257.19,1942.66 C3254.44,1943.47 3252.91,1943.87 3252.6,1943.87 C3251.92,1943.87 3251.36,1943.59 3250.93,1943.04 C3250.5,1942.48 3250.43,1941.89 3250.74,1941.27 C3254.39,1932.55 3258.83,1924.06 3264.06,1915.81 C3269.28,1907.55 3275.82,1898.04 3283.68,1887.28 C3280.71,1888.89 3277.71,1889.69 3274.68,1889.69 C3271.46,1889.69 3268.22,1888.25 3264.94,1885.38 C3261.66,1882.5 3258.97,1881.06 3256.87,1881.06 C3255.32,1881.06 3253.98,1881.94 3252.83,1883.71 C3251.69,1885.47 3251.11,1888.11 3251.11,1891.64 L3251.11,1903.05 C3251.11,1904.6 3250.4,1905.37 3248.98,1905.37 C3247.43,1905.37 3246.66,1904.6 3246.66,1903.05 L3246.66,1869.65 C3246.66,1868.11 3247.43,1867.33 3248.98,1867.33 C3250.4,1867.33 3251.11,1868.11 3251.11,1869.65 L3251.11,1871.79 C3251.11,1872.28 3251.24,1872.71 3251.49,1873.08 C3252.23,1873.83 3252.69,1874.2 3252.88,1874.2"/>
<path class="FiguredBass" d="M3287.85,2008.8 C3287.85,2009.79 3288.41,2010.75 3289.52,2011.68 C3290.64,2012.6 3291.86,2013.48 3293.19,2014.32 C3294.52,2015.15 3295.74,2016.73 3296.85,2019.05 C3297.97,2021.37 3298.52,2024.29 3298.52,2027.82 C3298.52,2034.62 3295.96,2039.88 3290.82,2043.59 C3285.69,2047.3 3279.19,2049.16 3271.34,2049.16 C3265.03,2049.16 3259.54,2047.58 3254.87,2044.42 C3250.2,2041.27 3247.87,2037.13 3247.87,2031.99 C3247.87,2029.27 3248.86,2026.91 3250.84,2024.9 C3252.82,2022.89 3255.18,2021.88 3257.93,2021.88 C3260.69,2021.88 3263.02,2022.87 3264.94,2024.85 C3266.86,2026.83 3267.81,2029.21 3267.81,2031.99 C3267.81,2033.23 3266.79,2034.58 3264.75,2036.03 C3262.71,2037.48 3261.69,2038.83 3261.69,2040.06 C3261.69,2041.98 3262.63,2043.39 3264.52,2044.29 C3266.41,2045.18 3268.68,2045.63 3271.34,2045.63 C3274.8,2045.63 3277.26,2043.91 3278.71,2040.48 C3280.17,2037.05 3280.9,2032.83 3280.9,2027.82 L3280.9,2025.41 C3280.9,2022.07 3280.79,2019.53 3280.57,2017.8 C3280.35,2016.07 3279.67,2014.52 3278.53,2013.16 C3277.39,2011.8 3275.64,2011.12 3273.29,2011.12 L3261.13,2011.12 C3259.71,2011.12 3259,2010.35 3259,2008.8 C3259,2007.38 3259.71,2006.67 3261.13,2006.67 L3273.29,2006.67 C3275.82,2006.67 3277.8,2005.71 3279.23,2003.79 C3279.72,2003.11 3280.12,2002 3280.43,2000.45 C3280.74,1998.41 3280.9,1995.47 3280.9,1991.64 L3280.9,1990.43 C3280.9,1981.22 3277.49,1976.61 3270.69,1976.61 C3264.69,1976.61 3261.69,1978.28 3261.69,1981.62 C3261.69,1982.73 3262.6,1983.92 3264.43,1985.19 C3266.25,1986.46 3267.16,1987.65 3267.16,1988.76 C3267.16,1991.17 3266.31,1993.24 3264.61,1994.98 C3262.91,1996.71 3260.84,1997.57 3258.4,1997.57 C3255.95,1997.57 3253.9,1996.71 3252.23,1994.98 C3250.56,1993.24 3249.72,1991.17 3249.72,1988.76 C3249.72,1984 3251.8,1980.19 3255.94,1977.35 C3260.08,1974.5 3265,1973.08 3270.69,1973.08 C3278.17,1973.08 3284.33,1974.52 3289.15,1977.4 C3293.98,1980.27 3296.39,1984.62 3296.39,1990.43 C3296.39,1994.57 3295.96,1997.79 3295.09,2000.08 C3294.22,2002.37 3293.23,2003.76 3292.12,2004.25 C3291.01,2004.75 3290.02,2005.32 3289.15,2005.97 C3288.29,2006.62 3287.85,2007.56 3287.85,2008.8"/>
<polyline class="FretDiagram" stroke="#0000ff" stroke-width="11.91" stroke-linejoin="bevel" points="1680.78,227.452 1893.89,227.452"/>
<polyline class="FretDiagram" stroke="#0000ff" stroke-width="4.76" stroke-linejoin="bevel" points="1683.17,227.452 1683.17,441.751"/>
<polyline class="FretDiagram" stroke="#0000ff" stroke-width="4.76" stroke-linejoin="bevel" points="1724.83,227.452 1724.83,441.751"/>
<polyline class="FretDiagram" stroke="#0000ff" stroke-width="4.76" stroke-linejoin="bevel" points="1766.5,227.452 1766.5,441.751"/>
<polyline class="FretDiagram" stroke="#0000ff" stroke-width="4.76" stroke-linejoin="bevel" points="1808.17,227.452 1808.17,441.751"/>
<polyline class="FretDiagram" stroke="#0000ff" stroke-width="4.76" stroke-linejoin="bevel" points="1849.84,227.452 1849.84,441.751"/>
<polyline class="FretDiagram" stroke="#0000ff" stroke-width="4.76" stroke-linejoin="bevel" points="1891.51,227.452 1891.51,441.751"/>
<polyline class="FretDiagram" stroke="#0000ff" stroke-width="4.76" stroke-linejoin="bevel" points="1683.17,275.074 1891.51,275.074"/>
<polyline class="FretDiagram" stroke="#0000ff" stroke-width="4.76" stroke-linejoin="bevel" points="1683.17,322.696 1891.51,322.696"/>
<polyline class="FretDiagram" stroke="#0000ff" stroke-width="4.76" stroke-linejoin="bevel" points="1683.17,370.318 1891.51,370.318"/>
<polyline class="FretDiagram" stroke="#0000ff" stroke-width="4.76" stroke-linejoin="bevel" points="1683.17,417.94 1891.51,417.94"/>
<path class="FretDiagram" fill="#0000ff" fill-rule="evenodd" d="M1697.75,346.507 C1697.75,354.562 1691.22,361.091 1683.17,361.091 C1675.11,361.091 1668.58,354.562 1668.58,346.507 C1668.58,338.453 1675.11,331.923 1683.17,331.923 C1691.22,331.923 1697.75,338.453 1697.75,346.507"/>
<path class="FretDiagram" fill="#0000ff" fill-rule="evenodd" d="M1781.09,298.885 C1781.09,306.94 1774.56,313.469 1766.5,313.469 C1758.45,313.469 1751.92,306.94 1751.92,298.885 C1751.92,290.83 1758.45,284.301 1766.5,284.301 C1774.56,284.301 1781.09,290.83 1781.09,298.885"/>
<polyline class="FretDiagram" fill="none" stroke="#0000ff" stroke-width="6.86" stroke-linecap="round" stroke-linejoin="bevel" points="1708.17,163.162 1741.5,196.498"/>
<polyline class="FretDiagram" fill="none" stroke="#0000ff" stroke-width="6.86" stroke-linecap="round" stroke-linejoin="bevel" points="1708.17,196.498 1741.5,163.162"/>
<path class="FretDiagram" fill="none" stroke="#0000ff" stroke-width="6.86" stroke-linecap="round" stroke-linejoin="bevel" fill-rule="evenodd" d="M1824.84,179.83 C1824.84,189.035 1817.38,196.498 1808.17,196.498 C1798.97,196.498 1791.51,189.035 1791.51,179.83 C1791.51,170.625 1798.97,163.162 1808.17,163.162 C1817.38,163.162 1824.84,170.625 1824.84,179.83"/>
<path class="FretDiagram" fill="none" stroke="#0000ff" stroke-width="6.86" stroke-linecap="round" stroke-linejoin="bevel" fill-rule="evenodd" d="M1866.51,179.83 C1866.51,189.035 1859.05,196.498 1849.84,196.498 C1840.64,196.498 1833.17,189.035 1833.17,179.83 C1833.17,170.625 1840.64,163.162 1849.84,163.162 C1859.05,163.162 1866.51,170.625 1866.51,179.83"/>
<polyline class="FretDiagram" fill="none" stroke="#0000ff" stroke-width="6.86" stroke-linecap="round" stroke-linejoin="bevel" points="1874.84,163.162 1908.18,196.498"/>
<polyline class="FretDiagram" fill="none" stroke="#0000ff" stroke-width="6.86" stroke-linecap="round" stroke-linejoin="bevel" points="1874.84,196.498 1908.18,163.162"/>
<polyline class="FretDiagram" fill="none" stroke="#0000ff" stroke-width="29.17" stroke-linecap="round" stroke-linejoin="bevel" points="1766.5,251.263 1891.51,251.263"/>
<path class="Bracket" transform="matrix(8.6315,0,0,9.45563,76.1283,2337.37)" d="M0.92002,-50 C2.69004,-51.88 6.2,-55.8 6.2,-63 C6.2,-72.1 2.25996,-81.32 2.25996,-86.97 C2.25996,-93.06 5.84004,-98.84 5.95,-99 C6.05996,-99.16 6.05,-99.39 5.94004,-99.46 C5.82998,-99.53 5.62002,-99.47 5.49004,-99.32 C5.35996,-99.17 0,-93.75 0,-85.6 C0,-76.75 3.5,-70.58 3.5,-59.07 C3.5,-56.89 2.55996,-53.36 0.1,-50.33 C-0.0799805,-50.17 -0.1,-49.89 0.0599609,-49.7 L0.0700195,-49.69 L0.1,-49.66 C2.55996,-46.63 3.5,-43.1 3.5,-40.92 C3.5,-29.4 0,-23.24 0,-14.39 C0,-6.25 5.35996,-0.8 5.49004,-0.659961 C5.62002,-0.52002 5.8,-0.42998 5.94004,-0.52002 C6.07998,-0.609961 6.07998,-0.77998 5.95,-0.97998 C5.82002,-1.17998 2.25996,-6.92002 2.25996,-13.01 C2.25996,-18.66 6.2,-27.9 6.2,-37 C6.2,-44.3 2.69004,-48.12 0.92002,-50"/>
</svg>
