<?xml version="1.0" encoding="UTF-8" standalone="no"?>
<svg width="4209.44px" height="2976.38px" viewBox="0 0 4209.44 2976.38"
 xmlns="http://www.w3.org/2000/svg" xmlns:xlink="http://www.w3.org/1999/xlink" version="1.2" baseProfile="tiny">
<title>LaMajeur (2)</title>
<desc>Generated by MuseScore 3.6.2</desc>
<polyline class="StaffLines" fill="none" stroke="#000000" stroke-width="6.55" stroke-linejoin="bevel" points="153.819,558.425 4138.58,558.425"/>
<polyline class="StaffLines" fill="none" stroke="#000000" stroke-width="6.55" stroke-linejoin="bevel" points="153.819,647.717 4138.58,647.717"/>
<polyline class="StaffLines" fill="none" stroke="#000000" stroke-width="6.55" stroke-linejoin="bevel" points="153.819,737.008 4138.58,737.008"/>
<polyline class="StaffLines" fill="none" stroke="#000000" stroke-width="6.55" stroke-linejoin="bevel" points="153.819,826.299 4138.58,826.299"/>
<polyline class="StaffLines" fill="none" stroke="#000000" stroke-width="6.55" stroke-linejoin="bevel" points="153.819,915.591 4138.58,915.591"/>
<polyline class="StaffLines" fill="none" stroke="#000000" stroke-width="6.55" stroke-linejoin="bevel" points="153.819,1004.88 4138.58,1004.88"/>
<polyline class="StaffLines" fill="none" stroke="#000000" stroke-width="6.55" stroke-linejoin="bevel" points="153.819,1391.81 4138.58,1391.81"/>
<polyline class="StaffLines" fill="none" stroke="#000000" stroke-width="6.55" stroke-linejoin="bevel" points="153.819,1451.34 4138.58,1451.34"/>
<polyline class="StaffLines" fill="none" stroke="#000000" stroke-width="6.55" stroke-linejoin="bevel" points="153.819,1510.87 4138.58,1510.87"/>
<polyline class="StaffLines" fill="none" stroke="#000000" stroke-width="6.55" stroke-linejoin="bevel" points="153.819,1570.39 4138.58,1570.39"/>
<polyline class="StaffLines" fill="none" stroke="#000000" stroke-width="6.55" stroke-linejoin="bevel" points="153.819,1629.92 4138.58,1629.92"/>
<polyline class="StaffLines" fill="none" stroke="#000000" stroke-width="6.55" stroke-linejoin="bevel" points="153.819,2016.85 4138.58,2016.85"/>
<polyline class="StaffLines" fill="none" stroke="#000000" stroke-width="6.55" stroke-linejoin="bevel" points="153.819,2076.38 4138.58,2076.38"/>
<polyline class="StaffLines" fill="none" stroke="#000000" stroke-width="6.55" stroke-linejoin="bevel" points="153.819,2135.91 4138.58,2135.91"/>
<polyline class="StaffLines" fill="none" stroke="#000000" stroke-width="6.55" stroke-linejoin="bevel" points="153.819,2195.43 4138.58,2195.43"/>
<polyline class="StaffLines" fill="none" stroke="#000000" stroke-width="6.55" stroke-linejoin="bevel" points="153.819,2254.96 4138.58,2254.96"/>
<polyline class="BarLine" fill="none" stroke="#000000" stroke-width="10.71" stroke-linejoin="bevel" points="159.176,2013.58 159.176,2258.23"/>
<polyline class="BarLine" fill="none" stroke="#000000" stroke-width="10.71" stroke-linejoin="bevel" points="1065.18,2013.58 1065.18,2258.23"/>
<polyline class="BarLine" fill="none" stroke="#000000" stroke-width="10.71" stroke-linejoin="bevel" points="1483.07,2013.58 1483.07,2258.23"/>
<polyline class="BarLine" fill="none" stroke="#000000" stroke-width="10.71" stroke-linejoin="bevel" points="2015.62,2013.58 2015.62,2258.23"/>
<polyline class="BarLine" fill="none" stroke="#000000" stroke-width="10.71" stroke-linejoin="bevel" points="2433.51,2013.58 2433.51,2258.23"/>
<polyline class="BarLine" fill="none" stroke="#000000" stroke-width="10.71" stroke-linejoin="bevel" points="2851.4,2013.58 2851.4,2258.23"/>
<polyline class="BarLine" fill="none" stroke="#000000" stroke-width="10.71" stroke-linejoin="bevel" points="3269.29,2013.58 3269.29,2258.23"/>
<polyline class="BarLine" fill="none" stroke="#000000" stroke-width="10.71" stroke-linejoin="bevel" points="3688.37,2013.58 3688.37,2258.23"/>
<polyline class="BarLine" fill="none" stroke="#000000" stroke-width="10.71" stroke-linejoin="bevel" points="4080.54,2013.58 4080.54,2258.23"/>
<polyline class="BarLine" fill="none" stroke="#000000" stroke-width="32.74" stroke-linejoin="bevel" points="4122.21,2013.58 4122.21,2258.23"/>
<polyline class="BarLine" fill="none" stroke="#000000" stroke-width="10.71" stroke-linejoin="bevel" points="159.176,1388.54 159.176,2016.85"/>
<polyline class="BarLine" fill="none" stroke="#000000" stroke-width="10.71" stroke-linejoin="bevel" points="1065.18,1388.54 1065.18,1633.2"/>
<polyline class="BarLine" fill="none" stroke="#000000" stroke-width="10.71" stroke-linejoin="bevel" points="1483.07,1388.54 1483.07,1633.2"/>
<polyline class="BarLine" fill="none" stroke="#000000" stroke-width="10.71" stroke-linejoin="bevel" points="2015.62,1388.54 2015.62,1633.2"/>
<polyline class="BarLine" fill="none" stroke="#000000" stroke-width="10.71" stroke-linejoin="bevel" points="2433.51,1388.54 2433.51,1633.2"/>
<polyline class="BarLine" fill="none" stroke="#000000" stroke-width="10.71" stroke-linejoin="bevel" points="2851.4,1388.54 2851.4,1633.2"/>
<polyline class="BarLine" fill="none" stroke="#000000" stroke-width="10.71" stroke-linejoin="bevel" points="3269.29,1388.54 3269.29,1633.2"/>
<polyline class="BarLine" fill="none" stroke="#000000" stroke-width="10.71" stroke-linejoin="bevel" points="3688.37,1388.54 3688.37,1633.2"/>
<polyline class="BarLine" fill="none" stroke="#000000" stroke-width="10.71" stroke-linejoin="bevel" points="4080.54,1388.54 4080.54,1633.2"/>
<polyline class="BarLine" fill="none" stroke="#000000" stroke-width="32.74" stroke-linejoin="bevel" points="4122.21,1388.54 4122.21,1633.2"/>
<polyline class="BarLine" fill="none" stroke="#000000" stroke-width="10.71" stroke-linejoin="bevel" points="159.176,555.151 159.176,1391.81"/>
<polyline class="BarLine" fill="none" stroke="#000000" stroke-width="10.71" stroke-linejoin="bevel" points="1065.18,555.151 1065.18,1008.16"/>
<polyline class="BarLine" fill="none" stroke="#000000" stroke-width="10.71" stroke-linejoin="bevel" points="1483.07,555.151 1483.07,1008.16"/>
<polyline class="BarLine" fill="none" stroke="#000000" stroke-width="10.71" stroke-linejoin="bevel" points="2015.62,555.151 2015.62,1008.16"/>
<polyline class="BarLine" fill="none" stroke="#000000" stroke-width="10.71" stroke-linejoin="bevel" points="2433.51,555.151 2433.51,1008.16"/>
<polyline class="BarLine" fill="none" stroke="#000000" stroke-width="10.71" stroke-linejoin="bevel" points="2851.4,555.151 2851.4,1008.16"/>
<polyline class="BarLine" fill="none" stroke="#000000" stroke-width="10.71" stroke-linejoin="bevel" points="3269.29,555.151 3269.29,1008.16"/>
<polyline class="BarLine" fill="none" stroke="#000000" stroke-width="10.71" stroke-linejoin="bevel" points="3688.37,555.151 3688.37,1008.16"/>
<polyline class="BarLine" fill="none" stroke="#000000" stroke-width="10.71" stroke-linejoin="bevel" points="4080.54,555.151 4080.54,1008.16"/>
<polyline class="BarLine" fill="none" stroke="#000000" stroke-width="32.74" stroke-linejoin="bevel" points="4122.21,555.151 4122.21,1008.16"/>
<path class="Accidental" transform="matrix(2.3811,0,0,2.3811,1534.5,1659.69)" d="M23.3,-10.6 C23.9,-10.7 24.4,-11.4 24.4,-12 L24.4,-17.9 C24.4,-18.7 23.8,-19.3 23,-19.3 L22.8,-19.3 L19.5,-18.6 L19.5,-33.5 L16.7,-33.5 L16.7,-18 L7.8,-16.2 L7.8,-30.3 L5,-30.3 L5,-15.6 L1.1,-14.8 C0.5,-14.7 0,-14 0,-13.4 L0,-13.2 L0,-7.4 L0,-7.6 C0,-6.8 0.6,-6.2 1.4,-6.2 L1.7,-6.2 L5,-6.9 L5,9.6 L1.1,10.4 C0.5,10.5 0,11.2 0,11.8 L0,17.6 C0,18.4 0.6,19 1.4,19 L1.7,19 L5,18.3 L5,33.2 L7.8,33.2 L7.8,17.7 L16.7,15.9 L16.7,30 L19.5,30 L19.5,15.3 L23.3,14.6 C23.9,14.5 24.4,13.8 24.4,13.2 L24.4,7.3 C24.4,6.5 23.8,5.9 23,5.9 L22.8,5.9 L19.5,6.6 L19.5,-9.9 L23.3,-10.6 M7.8,9.1 L7.8,-7.5 L16.7,-9.3 L16.7,7.2 L7.8,9.1 "/>
<path class="Note" transform="matrix(2.3811,0,0,2.3811,755.754,2016.85)" d="M18.7,-13.6 C4.9,-13.6 0,-6.6 0,-0.1 C0,6.4 4.9,13.4 18.7,13.4 C32.5,13.4 37.3,6.4 37.3,-0.1 C37.3,-6.6 32.5,-13.6 18.7,-13.6 M10.4,-4.5 C10.3,-4.9 10.3,-5.3 10.3,-5.7 C10.3,-6.5 10.5,-7.3 10.9,-8 C11.6,-9 12.8,-9.7 14.3,-10 C15.6,-10.3 16.3,-10.5 18.9,-10.5 L19,-10.5 C23,-10.5 24.3,-6.8 25.4,-3 L25.7,-2 C26.5,0.6 26.9,2.8 26.9,4.5 C26.9,5.7 26.7,6.8 26.3,7.6 C25.7,8.7 24.7,9.4 23,9.8 C22.1,10 20.6,10.1 20.6,10.1 C20.1,10.1 19.7,10.2 19.3,10.2 C16.1,10.2 14.1,9 12.7,4.7 C11.5,1 11.3,-0.1 10.4,-4.5"/>
<path class="Note" transform="matrix(2.3811,0,0,2.3811,1153.65,2046.61)" d="M18.7,-13.6 C4.9,-13.6 0,-6.6 0,-0.1 C0,6.4 4.9,13.4 18.7,13.4 C32.5,13.4 37.3,6.4 37.3,-0.1 C37.3,-6.6 32.5,-13.6 18.7,-13.6 M10.4,-4.5 C10.3,-4.9 10.3,-5.3 10.3,-5.7 C10.3,-6.5 10.5,-7.3 10.9,-8 C11.6,-9 12.8,-9.7 14.3,-10 C15.6,-10.3 16.3,-10.5 18.9,-10.5 L19,-10.5 C23,-10.5 24.3,-6.8 25.4,-3 L25.7,-2 C26.5,0.6 26.9,2.8 26.9,4.5 C26.9,5.7 26.7,6.8 26.3,7.6 C25.7,8.7 24.7,9.4 23,9.8 C22.1,10 20.6,10.1 20.6,10.1 C20.1,10.1 19.7,10.2 19.3,10.2 C16.1,10.2 14.1,9 12.7,4.7 C11.5,1 11.3,-0.1 10.4,-4.5"/>
<path class="Note" transform="matrix(2.3811,0,0,2.3811,1607.48,2076.38)" d="M18.7,-13.6 C4.9,-13.6 0,-6.6 0,-0.1 C0,6.4 4.9,13.4 18.7,13.4 C32.5,13.4 37.3,6.4 37.3,-0.1 C37.3,-6.6 32.5,-13.6 18.7,-13.6 M10.4,-4.5 C10.3,-4.9 10.3,-5.3 10.3,-5.7 C10.3,-6.5 10.5,-7.3 10.9,-8 C11.6,-9 12.8,-9.7 14.3,-10 C15.6,-10.3 16.3,-10.5 18.9,-10.5 L19,-10.5 C23,-10.5 24.3,-6.8 25.4,-3 L25.7,-2 C26.5,0.6 26.9,2.8 26.9,4.5 C26.9,5.7 26.7,6.8 26.3,7.6 C25.7,8.7 24.7,9.4 23,9.8 C22.1,10 20.6,10.1 20.6,10.1 C20.1,10.1 19.7,10.2 19.3,10.2 C16.1,10.2 14.1,9 12.7,4.7 C11.5,1 11.3,-0.1 10.4,-4.5"/>
<path class="Note" transform="matrix(2.3811,0,0,2.3811,2104.08,2106.14)" d="M18.7,-13.6 C4.9,-13.6 0,-6.6 0,-0.1 C0,6.4 4.9,13.4 18.7,13.4 C32.5,13.4 37.3,6.4 37.3,-0.1 C37.3,-6.6 32.5,-13.6 18.7,-13.6 M10.4,-4.5 C10.3,-4.9 10.3,-5.3 10.3,-5.7 C10.3,-6.5 10.5,-7.3 10.9,-8 C11.6,-9 12.8,-9.7 14.3,-10 C15.6,-10.3 16.3,-10.5 18.9,-10.5 L19,-10.5 C23,-10.5 24.3,-6.8 25.4,-3 L25.7,-2 C26.5,0.6 26.9,2.8 26.9,4.5 C26.9,5.7 26.7,6.8 26.3,7.6 C25.7,8.7 24.7,9.4 23,9.8 C22.1,10 20.6,10.1 20.6,10.1 C20.1,10.1 19.7,10.2 19.3,10.2 C16.1,10.2 14.1,9 12.7,4.7 C11.5,1 11.3,-0.1 10.4,-4.5"/>
<path class="Note" transform="matrix(2.3811,0,0,2.3811,2521.97,2135.91)" d="M18.7,-13.6 C4.9,-13.6 0,-6.6 0,-0.1 C0,6.4 4.9,13.4 18.7,13.4 C32.5,13.4 37.3,6.4 37.3,-0.1 C37.3,-6.6 32.5,-13.6 18.7,-13.6 M10.4,-4.5 C10.3,-4.9 10.3,-5.3 10.3,-5.7 C10.3,-6.5 10.5,-7.3 10.9,-8 C11.6,-9 12.8,-9.7 14.3,-10 C15.6,-10.3 16.3,-10.5 18.9,-10.5 L19,-10.5 C23,-10.5 24.3,-6.8 25.4,-3 L25.7,-2 C26.5,0.6 26.9,2.8 26.9,4.5 C26.9,5.7 26.7,6.8 26.3,7.6 C25.7,8.7 24.7,9.4 23,9.8 C22.1,10 20.6,10.1 20.6,10.1 C20.1,10.1 19.7,10.2 19.3,10.2 C16.1,10.2 14.1,9 12.7,4.7 C11.5,1 11.3,-0.1 10.4,-4.5"/>
<path class="Note" transform="matrix(2.3811,0,0,2.3811,2934.14,2165.67)" d="M18.7,-13.6 C4.9,-13.6 0,-6.6 0,-0.1 C0,6.4 4.9,13.4 18.7,13.4 C32.5,13.4 37.3,6.4 37.3,-0.1 C37.3,-6.6 32.5,-13.6 18.7,-13.6 M10.4,-4.5 C10.3,-4.9 10.3,-5.3 10.3,-5.7 C10.3,-6.5 10.5,-7.3 10.9,-8 C11.6,-9 12.8,-9.7 14.3,-10 C15.6,-10.3 16.3,-10.5 18.9,-10.5 L19,-10.5 C23,-10.5 24.3,-6.8 25.4,-3 L25.7,-2 C26.5,0.6 26.9,2.8 26.9,4.5 C26.9,5.7 26.7,6.8 26.3,7.6 C25.7,8.7 24.7,9.4 23,9.8 C22.1,10 20.6,10.1 20.6,10.1 C20.1,10.1 19.7,10.2 19.3,10.2 C16.1,10.2 14.1,9 12.7,4.7 C11.5,1 11.3,-0.1 10.4,-4.5"/>
<path class="Note" transform="matrix(2.3811,0,0,2.3811,3352.03,2195.43)" d="M18.7,-13.6 C4.9,-13.6 0,-6.6 0,-0.1 C0,6.4 4.9,13.4 18.7,13.4 C32.5,13.4 37.3,6.4 37.3,-0.1 C37.3,-6.6 32.5,-13.6 18.7,-13.6 M10.4,-4.5 C10.3,-4.9 10.3,-5.3 10.3,-5.7 C10.3,-6.5 10.5,-7.3 10.9,-8 C11.6,-9 12.8,-9.7 14.3,-10 C15.6,-10.3 16.3,-10.5 18.9,-10.5 L19,-10.5 C23,-10.5 24.3,-6.8 25.4,-3 L25.7,-2 C26.5,0.6 26.9,2.8 26.9,4.5 C26.9,5.7 26.7,6.8 26.3,7.6 C25.7,8.7 24.7,9.4 23,9.8 C22.1,10 20.6,10.1 20.6,10.1 C20.1,10.1 19.7,10.2 19.3,10.2 C16.1,10.2 14.1,9 12.7,4.7 C11.5,1 11.3,-0.1 10.4,-4.5"/>
<path class="Note" transform="matrix(2.3811,0,0,2.3811,3771.11,2225.2)" d="M18.7,-13.6 C4.9,-13.6 0,-6.6 0,-0.1 C0,6.4 4.9,13.4 18.7,13.4 C32.5,13.4 37.3,6.4 37.3,-0.1 C37.3,-6.6 32.5,-13.6 18.7,-13.6 M10.4,-4.5 C10.3,-4.9 10.3,-5.3 10.3,-5.7 C10.3,-6.5 10.5,-7.3 10.9,-8 C11.6,-9 12.8,-9.7 14.3,-10 C15.6,-10.3 16.3,-10.5 18.9,-10.5 L19,-10.5 C23,-10.5 24.3,-6.8 25.4,-3 L25.7,-2 C26.5,0.6 26.9,2.8 26.9,4.5 C26.9,5.7 26.7,6.8 26.3,7.6 C25.7,8.7 24.7,9.4 23,9.8 C22.1,10 20.6,10.1 20.6,10.1 C20.1,10.1 19.7,10.2 19.3,10.2 C16.1,10.2 14.1,9 12.7,4.7 C11.5,1 11.3,-0.1 10.4,-4.5"/>
<path class="Note" transform="matrix(2.3811,0,0,2.3811,755.754,1629.92)" d="M18.7,-13.6 C4.9,-13.6 0,-6.6 0,-0.1 C0,6.4 4.9,13.4 18.7,13.4 C32.5,13.4 37.3,6.4 37.3,-0.1 C37.3,-6.6 32.5,-13.6 18.7,-13.6 M10.4,-4.5 C10.3,-4.9 10.3,-5.3 10.3,-5.7 C10.3,-6.5 10.5,-7.3 10.9,-8 C11.6,-9 12.8,-9.7 14.3,-10 C15.6,-10.3 16.3,-10.5 18.9,-10.5 L19,-10.5 C23,-10.5 24.3,-6.8 25.4,-3 L25.7,-2 C26.5,0.6 26.9,2.8 26.9,4.5 C26.9,5.7 26.7,6.8 26.3,7.6 C25.7,8.7 24.7,9.4 23,9.8 C22.1,10 20.6,10.1 20.6,10.1 C20.1,10.1 19.7,10.2 19.3,10.2 C16.1,10.2 14.1,9 12.7,4.7 C11.5,1 11.3,-0.1 10.4,-4.5"/>
<path class="Note" transform="matrix(2.3811,0,0,2.3811,755.754,1540.63)" d="M18.7,-13.6 C4.9,-13.6 0,-6.6 0,-0.1 C0,6.4 4.9,13.4 18.7,13.4 C32.5,13.4 37.3,6.4 37.3,-0.1 C37.3,-6.6 32.5,-13.6 18.7,-13.6 M10.4,-4.5 C10.3,-4.9 10.3,-5.3 10.3,-5.7 C10.3,-6.5 10.5,-7.3 10.9,-8 C11.6,-9 12.8,-9.7 14.3,-10 C15.6,-10.3 16.3,-10.5 18.9,-10.5 L19,-10.5 C23,-10.5 24.3,-6.8 25.4,-3 L25.7,-2 C26.5,0.6 26.9,2.8 26.9,4.5 C26.9,5.7 26.7,6.8 26.3,7.6 C25.7,8.7 24.7,9.4 23,9.8 C22.1,10 20.6,10.1 20.6,10.1 C20.1,10.1 19.7,10.2 19.3,10.2 C16.1,10.2 14.1,9 12.7,4.7 C11.5,1 11.3,-0.1 10.4,-4.5"/>
<path class="Note" transform="matrix(2.3811,0,0,2.3811,755.754,1481.1)" d="M18.7,-13.6 C4.9,-13.6 0,-6.6 0,-0.1 C0,6.4 4.9,13.4 18.7,13.4 C32.5,13.4 37.3,6.4 37.3,-0.1 C37.3,-6.6 32.5,-13.6 18.7,-13.6 M10.4,-4.5 C10.3,-4.9 10.3,-5.3 10.3,-5.7 C10.3,-6.5 10.5,-7.3 10.9,-8 C11.6,-9 12.8,-9.7 14.3,-10 C15.6,-10.3 16.3,-10.5 18.9,-10.5 L19,-10.5 C23,-10.5 24.3,-6.8 25.4,-3 L25.7,-2 C26.5,0.6 26.9,2.8 26.9,4.5 C26.9,5.7 26.7,6.8 26.3,7.6 C25.7,8.7 24.7,9.4 23,9.8 C22.1,10 20.6,10.1 20.6,10.1 C20.1,10.1 19.7,10.2 19.3,10.2 C16.1,10.2 14.1,9 12.7,4.7 C11.5,1 11.3,-0.1 10.4,-4.5"/>
<path class="Note" transform="matrix(2.3811,0,0,2.3811,1153.65,1629.92)" d="M18.7,-13.6 C4.9,-13.6 0,-6.6 0,-0.1 C0,6.4 4.9,13.4 18.7,13.4 C32.5,13.4 37.3,6.4 37.3,-0.1 C37.3,-6.6 32.5,-13.6 18.7,-13.6 M10.4,-4.5 C10.3,-4.9 10.3,-5.3 10.3,-5.7 C10.3,-6.5 10.5,-7.3 10.9,-8 C11.6,-9 12.8,-9.7 14.3,-10 C15.6,-10.3 16.3,-10.5 18.9,-10.5 L19,-10.5 C23,-10.5 24.3,-6.8 25.4,-3 L25.7,-2 C26.5,0.6 26.9,2.8 26.9,4.5 C26.9,5.7 26.7,6.8 26.3,7.6 C25.7,8.7 24.7,9.4 23,9.8 C22.1,10 20.6,10.1 20.6,10.1 C20.1,10.1 19.7,10.2 19.3,10.2 C16.1,10.2 14.1,9 12.7,4.7 C11.5,1 11.3,-0.1 10.4,-4.5"/>
<path class="Note" transform="matrix(2.3811,0,0,2.3811,1153.65,1510.87)" d="M18.7,-13.6 C4.9,-13.6 0,-6.6 0,-0.1 C0,6.4 4.9,13.4 18.7,13.4 C32.5,13.4 37.3,6.4 37.3,-0.1 C37.3,-6.6 32.5,-13.6 18.7,-13.6 M10.4,-4.5 C10.3,-4.9 10.3,-5.3 10.3,-5.7 C10.3,-6.5 10.5,-7.3 10.9,-8 C11.6,-9 12.8,-9.7 14.3,-10 C15.6,-10.3 16.3,-10.5 18.9,-10.5 L19,-10.5 C23,-10.5 24.3,-6.8 25.4,-3 L25.7,-2 C26.5,0.6 26.9,2.8 26.9,4.5 C26.9,5.7 26.7,6.8 26.3,7.6 C25.7,8.7 24.7,9.4 23,9.8 C22.1,10 20.6,10.1 20.6,10.1 C20.1,10.1 19.7,10.2 19.3,10.2 C16.1,10.2 14.1,9 12.7,4.7 C11.5,1 11.3,-0.1 10.4,-4.5"/>
<path class="Note" transform="matrix(2.3811,0,0,2.3811,1607.48,1659.69)" d="M18.7,-13.6 C4.9,-13.6 0,-6.6 0,-0.1 C0,6.4 4.9,13.4 18.7,13.4 C32.5,13.4 37.3,6.4 37.3,-0.1 C37.3,-6.6 32.5,-13.6 18.7,-13.6 M10.4,-4.5 C10.3,-4.9 10.3,-5.3 10.3,-5.7 C10.3,-6.5 10.5,-7.3 10.9,-8 C11.6,-9 12.8,-9.7 14.3,-10 C15.6,-10.3 16.3,-10.5 18.9,-10.5 L19,-10.5 C23,-10.5 24.3,-6.8 25.4,-3 L25.7,-2 C26.5,0.6 26.9,2.8 26.9,4.5 C26.9,5.7 26.7,6.8 26.3,7.6 C25.7,8.7 24.7,9.4 23,9.8 C22.1,10 20.6,10.1 20.6,10.1 C20.1,10.1 19.7,10.2 19.3,10.2 C16.1,10.2 14.1,9 12.7,4.7 C11.5,1 11.3,-0.1 10.4,-4.5"/>
<path class="Note" transform="matrix(2.3811,0,0,2.3811,1607.48,1540.63)" d="M18.7,-13.6 C4.9,-13.6 0,-6.6 0,-0.1 C0,6.4 4.9,13.4 18.7,13.4 C32.5,13.4 37.3,6.4 37.3,-0.1 C37.3,-6.6 32.5,-13.6 18.7,-13.6 M10.4,-4.5 C10.3,-4.9 10.3,-5.3 10.3,-5.7 C10.3,-6.5 10.5,-7.3 10.9,-8 C11.6,-9 12.8,-9.7 14.3,-10 C15.6,-10.3 16.3,-10.5 18.9,-10.5 L19,-10.5 C23,-10.5 24.3,-6.8 25.4,-3 L25.7,-2 C26.5,0.6 26.9,2.8 26.9,4.5 C26.9,5.7 26.7,6.8 26.3,7.6 C25.7,8.7 24.7,9.4 23,9.8 C22.1,10 20.6,10.1 20.6,10.1 C20.1,10.1 19.7,10.2 19.3,10.2 C16.1,10.2 14.1,9 12.7,4.7 C11.5,1 11.3,-0.1 10.4,-4.5"/>
<path class="Note" transform="matrix(2.3811,0,0,2.3811,1689.74,1510.87)" d="M18.7,-13.6 C4.9,-13.6 0,-6.6 0,-0.1 C0,6.4 4.9,13.4 18.7,13.4 C32.5,13.4 37.3,6.4 37.3,-0.1 C37.3,-6.6 32.5,-13.6 18.7,-13.6 M10.4,-4.5 C10.3,-4.9 10.3,-5.3 10.3,-5.7 C10.3,-6.5 10.5,-7.3 10.9,-8 C11.6,-9 12.8,-9.7 14.3,-10 C15.6,-10.3 16.3,-10.5 18.9,-10.5 L19,-10.5 C23,-10.5 24.3,-6.8 25.4,-3 L25.7,-2 C26.5,0.6 26.9,2.8 26.9,4.5 C26.9,5.7 26.7,6.8 26.3,7.6 C25.7,8.7 24.7,9.4 23,9.8 C22.1,10 20.6,10.1 20.6,10.1 C20.1,10.1 19.7,10.2 19.3,10.2 C16.1,10.2 14.1,9 12.7,4.7 C11.5,1 11.3,-0.1 10.4,-4.5"/>
<path class="Note" transform="matrix(2.3811,0,0,2.3811,2104.08,1629.92)" d="M18.7,-13.6 C4.9,-13.6 0,-6.6 0,-0.1 C0,6.4 4.9,13.4 18.7,13.4 C32.5,13.4 37.3,6.4 37.3,-0.1 C37.3,-6.6 32.5,-13.6 18.7,-13.6 M10.4,-4.5 C10.3,-4.9 10.3,-5.3 10.3,-5.7 C10.3,-6.5 10.5,-7.3 10.9,-8 C11.6,-9 12.8,-9.7 14.3,-10 C15.6,-10.3 16.3,-10.5 18.9,-10.5 L19,-10.5 C23,-10.5 24.3,-6.8 25.4,-3 L25.7,-2 C26.5,0.6 26.9,2.8 26.9,4.5 C26.9,5.7 26.7,6.8 26.3,7.6 C25.7,8.7 24.7,9.4 23,9.8 C22.1,10 20.6,10.1 20.6,10.1 C20.1,10.1 19.7,10.2 19.3,10.2 C16.1,10.2 14.1,9 12.7,4.7 C11.5,1 11.3,-0.1 10.4,-4.5"/>
<path class="Note" transform="matrix(2.3811,0,0,2.3811,2104.08,1570.39)" d="M18.7,-13.6 C4.9,-13.6 0,-6.6 0,-0.1 C0,6.4 4.9,13.4 18.7,13.4 C32.5,13.4 37.3,6.4 37.3,-0.1 C37.3,-6.6 32.5,-13.6 18.7,-13.6 M10.4,-4.5 C10.3,-4.9 10.3,-5.3 10.3,-5.7 C10.3,-6.5 10.5,-7.3 10.9,-8 C11.6,-9 12.8,-9.7 14.3,-10 C15.6,-10.3 16.3,-10.5 18.9,-10.5 L19,-10.5 C23,-10.5 24.3,-6.8 25.4,-3 L25.7,-2 C26.5,0.6 26.9,2.8 26.9,4.5 C26.9,5.7 26.7,6.8 26.3,7.6 C25.7,8.7 24.7,9.4 23,9.8 C22.1,10 20.6,10.1 20.6,10.1 C20.1,10.1 19.7,10.2 19.3,10.2 C16.1,10.2 14.1,9 12.7,4.7 C11.5,1 11.3,-0.1 10.4,-4.5"/>
<path class="Note" transform="matrix(2.3811,0,0,2.3811,2104.08,1510.87)" d="M18.7,-13.6 C4.9,-13.6 0,-6.6 0,-0.1 C0,6.4 4.9,13.4 18.7,13.4 C32.5,13.4 37.3,6.4 37.3,-0.1 C37.3,-6.6 32.5,-13.6 18.7,-13.6 M10.4,-4.5 C10.3,-4.9 10.3,-5.3 10.3,-5.7 C10.3,-6.5 10.5,-7.3 10.9,-8 C11.6,-9 12.8,-9.7 14.3,-10 C15.6,-10.3 16.3,-10.5 18.9,-10.5 L19,-10.5 C23,-10.5 24.3,-6.8 25.4,-3 L25.7,-2 C26.5,0.6 26.9,2.8 26.9,4.5 C26.9,5.7 26.7,6.8 26.3,7.6 C25.7,8.7 24.7,9.4 23,9.8 C22.1,10 20.6,10.1 20.6,10.1 C20.1,10.1 19.7,10.2 19.3,10.2 C16.1,10.2 14.1,9 12.7,4.7 C11.5,1 11.3,-0.1 10.4,-4.5"/>
<path class="Note" transform="matrix(2.3811,0,0,2.3811,2521.97,1629.92)" d="M18.7,-13.6 C4.9,-13.6 0,-6.6 0,-0.1 C0,6.4 4.9,13.4 18.7,13.4 C32.5,13.4 37.3,6.4 37.3,-0.1 C37.3,-6.6 32.5,-13.6 18.7,-13.6 M10.4,-4.5 C10.3,-4.9 10.3,-5.3 10.3,-5.7 C10.3,-6.5 10.5,-7.3 10.9,-8 C11.6,-9 12.8,-9.7 14.3,-10 C15.6,-10.3 16.3,-10.5 18.9,-10.5 L19,-10.5 C23,-10.5 24.3,-6.8 25.4,-3 L25.7,-2 C26.5,0.6 26.9,2.8 26.9,4.5 C26.9,5.7 26.7,6.8 26.3,7.6 C25.7,8.7 24.7,9.4 23,9.8 C22.1,10 20.6,10.1 20.6,10.1 C20.1,10.1 19.7,10.2 19.3,10.2 C16.1,10.2 14.1,9 12.7,4.7 C11.5,1 11.3,-0.1 10.4,-4.5"/>
<path class="Note" transform="matrix(2.3811,0,0,2.3811,2521.97,1570.39)" d="M18.7,-13.6 C4.9,-13.6 0,-6.6 0,-0.1 C0,6.4 4.9,13.4 18.7,13.4 C32.5,13.4 37.3,6.4 37.3,-0.1 C37.3,-6.6 32.5,-13.6 18.7,-13.6 M10.4,-4.5 C10.3,-4.9 10.3,-5.3 10.3,-5.7 C10.3,-6.5 10.5,-7.3 10.9,-8 C11.6,-9 12.8,-9.7 14.3,-10 C15.6,-10.3 16.3,-10.5 18.9,-10.5 L19,-10.5 C23,-10.5 24.3,-6.8 25.4,-3 L25.7,-2 C26.5,0.6 26.9,2.8 26.9,4.5 C26.9,5.7 26.7,6.8 26.3,7.6 C25.7,8.7 24.7,9.4 23,9.8 C22.1,10 20.6,10.1 20.6,10.1 C20.1,10.1 19.7,10.2 19.3,10.2 C16.1,10.2 14.1,9 12.7,4.7 C11.5,1 11.3,-0.1 10.4,-4.5"/>
<path class="Note" transform="matrix(2.3811,0,0,2.3811,2521.97,1510.87)" d="M18.7,-13.6 C4.9,-13.6 0,-6.6 0,-0.1 C0,6.4 4.9,13.4 18.7,13.4 C32.5,13.4 37.3,6.4 37.3,-0.1 C37.3,-6.6 32.5,-13.6 18.7,-13.6 M10.4,-4.5 C10.3,-4.9 10.3,-5.3 10.3,-5.7 C10.3,-6.5 10.5,-7.3 10.9,-8 C11.6,-9 12.8,-9.7 14.3,-10 C15.6,-10.3 16.3,-10.5 18.9,-10.5 L19,-10.5 C23,-10.5 24.3,-6.8 25.4,-3 L25.7,-2 C26.5,0.6 26.9,2.8 26.9,4.5 C26.9,5.7 26.7,6.8 26.3,7.6 C25.7,8.7 24.7,9.4 23,9.8 C22.1,10 20.6,10.1 20.6,10.1 C20.1,10.1 19.7,10.2 19.3,10.2 C16.1,10.2 14.1,9 12.7,4.7 C11.5,1 11.3,-0.1 10.4,-4.5"/>
<path class="Note" transform="matrix(2.3811,0,0,2.3811,2934.14,1629.92)" d="M18.7,-13.6 C4.9,-13.6 0,-6.6 0,-0.1 C0,6.4 4.9,13.4 18.7,13.4 C32.5,13.4 37.3,6.4 37.3,-0.1 C37.3,-6.6 32.5,-13.6 18.7,-13.6 M10.4,-4.5 C10.3,-4.9 10.3,-5.3 10.3,-5.7 C10.3,-6.5 10.5,-7.3 10.9,-8 C11.6,-9 12.8,-9.7 14.3,-10 C15.6,-10.3 16.3,-10.5 18.9,-10.5 L19,-10.5 C23,-10.5 24.3,-6.8 25.4,-3 L25.7,-2 C26.5,0.6 26.9,2.8 26.9,4.5 C26.9,5.7 26.7,6.8 26.3,7.6 C25.7,8.7 24.7,9.4 23,9.8 C22.1,10 20.6,10.1 20.6,10.1 C20.1,10.1 19.7,10.2 19.3,10.2 C16.1,10.2 14.1,9 12.7,4.7 C11.5,1 11.3,-0.1 10.4,-4.5"/>
<path class="Note" transform="matrix(2.3811,0,0,2.3811,2934.14,1540.63)" d="M18.7,-13.6 C4.9,-13.6 0,-6.6 0,-0.1 C0,6.4 4.9,13.4 18.7,13.4 C32.5,13.4 37.3,6.4 37.3,-0.1 C37.3,-6.6 32.5,-13.6 18.7,-13.6 M10.4,-4.5 C10.3,-4.9 10.3,-5.3 10.3,-5.7 C10.3,-6.5 10.5,-7.3 10.9,-8 C11.6,-9 12.8,-9.7 14.3,-10 C15.6,-10.3 16.3,-10.5 18.9,-10.5 L19,-10.5 C23,-10.5 24.3,-6.8 25.4,-3 L25.7,-2 C26.5,0.6 26.9,2.8 26.9,4.5 C26.9,5.7 26.7,6.8 26.3,7.6 C25.7,8.7 24.7,9.4 23,9.8 C22.1,10 20.6,10.1 20.6,10.1 C20.1,10.1 19.7,10.2 19.3,10.2 C16.1,10.2 14.1,9 12.7,4.7 C11.5,1 11.3,-0.1 10.4,-4.5"/>
<path class="Note" transform="matrix(2.3811,0,0,2.3811,2934.14,1481.1)" d="M18.7,-13.6 C4.9,-13.6 0,-6.6 0,-0.1 C0,6.4 4.9,13.4 18.7,13.4 C32.5,13.4 37.3,6.4 37.3,-0.1 C37.3,-6.6 32.5,-13.6 18.7,-13.6 M10.4,-4.5 C10.3,-4.9 10.3,-5.3 10.3,-5.7 C10.3,-6.5 10.5,-7.3 10.9,-8 C11.6,-9 12.8,-9.7 14.3,-10 C15.6,-10.3 16.3,-10.5 18.9,-10.5 L19,-10.5 C23,-10.5 24.3,-6.8 25.4,-3 L25.7,-2 C26.5,0.6 26.9,2.8 26.9,4.5 C26.9,5.7 26.7,6.8 26.3,7.6 C25.7,8.7 24.7,9.4 23,9.8 C22.1,10 20.6,10.1 20.6,10.1 C20.1,10.1 19.7,10.2 19.3,10.2 C16.1,10.2 14.1,9 12.7,4.7 C11.5,1 11.3,-0.1 10.4,-4.5"/>
<path class="Note" transform="matrix(2.3811,0,0,2.3811,3352.03,1629.92)" d="M18.7,-13.6 C4.9,-13.6 0,-6.6 0,-0.1 C0,6.4 4.9,13.4 18.7,13.4 C32.5,13.4 37.3,6.4 37.3,-0.1 C37.3,-6.6 32.5,-13.6 18.7,-13.6 M10.4,-4.5 C10.3,-4.9 10.3,-5.3 10.3,-5.7 C10.3,-6.5 10.5,-7.3 10.9,-8 C11.6,-9 12.8,-9.7 14.3,-10 C15.6,-10.3 16.3,-10.5 18.9,-10.5 L19,-10.5 C23,-10.5 24.3,-6.8 25.4,-3 L25.7,-2 C26.5,0.6 26.9,2.8 26.9,4.5 C26.9,5.7 26.7,6.8 26.3,7.6 C25.7,8.7 24.7,9.4 23,9.8 C22.1,10 20.6,10.1 20.6,10.1 C20.1,10.1 19.7,10.2 19.3,10.2 C16.1,10.2 14.1,9 12.7,4.7 C11.5,1 11.3,-0.1 10.4,-4.5"/>
<path class="Note" transform="matrix(2.3811,0,0,2.3811,3352.03,1570.39)" d="M18.7,-13.6 C4.9,-13.6 0,-6.6 0,-0.1 C0,6.4 4.9,13.4 18.7,13.4 C32.5,13.4 37.3,6.4 37.3,-0.1 C37.3,-6.6 32.5,-13.6 18.7,-13.6 M10.4,-4.5 C10.3,-4.9 10.3,-5.3 10.3,-5.7 C10.3,-6.5 10.5,-7.3 10.9,-8 C11.6,-9 12.8,-9.7 14.3,-10 C15.6,-10.3 16.3,-10.5 18.9,-10.5 L19,-10.5 C23,-10.5 24.3,-6.8 25.4,-3 L25.7,-2 C26.5,0.6 26.9,2.8 26.9,4.5 C26.9,5.7 26.7,6.8 26.3,7.6 C25.7,8.7 24.7,9.4 23,9.8 C22.1,10 20.6,10.1 20.6,10.1 C20.1,10.1 19.7,10.2 19.3,10.2 C16.1,10.2 14.1,9 12.7,4.7 C11.5,1 11.3,-0.1 10.4,-4.5"/>
<path class="Note" transform="matrix(2.3811,0,0,2.3811,3352.03,1510.87)" d="M18.7,-13.6 C4.9,-13.6 0,-6.6 0,-0.1 C0,6.4 4.9,13.4 18.7,13.4 C32.5,13.4 37.3,6.4 37.3,-0.1 C37.3,-6.6 32.5,-13.6 18.7,-13.6 M10.4,-4.5 C10.3,-4.9 10.3,-5.3 10.3,-5.7 C10.3,-6.5 10.5,-7.3 10.9,-8 C11.6,-9 12.8,-9.7 14.3,-10 C15.6,-10.3 16.3,-10.5 18.9,-10.5 L19,-10.5 C23,-10.5 24.3,-6.8 25.4,-3 L25.7,-2 C26.5,0.6 26.9,2.8 26.9,4.5 C26.9,5.7 26.7,6.8 26.3,7.6 C25.7,8.7 24.7,9.4 23,9.8 C22.1,10 20.6,10.1 20.6,10.1 C20.1,10.1 19.7,10.2 19.3,10.2 C16.1,10.2 14.1,9 12.7,4.7 C11.5,1 11.3,-0.1 10.4,-4.5"/>
<path class="Note" transform="matrix(2.3811,0,0,2.3811,3352.03,1451.34)" d="M18.7,-13.6 C4.9,-13.6 0,-6.6 0,-0.1 C0,6.4 4.9,13.4 18.7,13.4 C32.5,13.4 37.3,6.4 37.3,-0.1 C37.3,-6.6 32.5,-13.6 18.7,-13.6 M10.4,-4.5 C10.3,-4.9 10.3,-5.3 10.3,-5.7 C10.3,-6.5 10.5,-7.3 10.9,-8 C11.6,-9 12.8,-9.7 14.3,-10 C15.6,-10.3 16.3,-10.5 18.9,-10.5 L19,-10.5 C23,-10.5 24.3,-6.8 25.4,-3 L25.7,-2 C26.5,0.6 26.9,2.8 26.9,4.5 C26.9,5.7 26.7,6.8 26.3,7.6 C25.7,8.7 24.7,9.4 23,9.8 C22.1,10 20.6,10.1 20.6,10.1 C20.1,10.1 19.7,10.2 19.3,10.2 C16.1,10.2 14.1,9 12.7,4.7 C11.5,1 11.3,-0.1 10.4,-4.5"/>
<path class="Note" transform="matrix(2.3811,0,0,2.3811,3771.11,1629.92)" d="M18.7,-13.6 C4.9,-13.6 0,-6.6 0,-0.1 C0,6.4 4.9,13.4 18.7,13.4 C32.5,13.4 37.3,6.4 37.3,-0.1 C37.3,-6.6 32.5,-13.6 18.7,-13.6 M10.4,-4.5 C10.3,-4.9 10.3,-5.3 10.3,-5.7 C10.3,-6.5 10.5,-7.3 10.9,-8 C11.6,-9 12.8,-9.7 14.3,-10 C15.6,-10.3 16.3,-10.5 18.9,-10.5 L19,-10.5 C23,-10.5 24.3,-6.8 25.4,-3 L25.7,-2 C26.5,0.6 26.9,2.8 26.9,4.5 C26.9,5.7 26.7,6.8 26.3,7.6 C25.7,8.7 24.7,9.4 23,9.8 C22.1,10 20.6,10.1 20.6,10.1 C20.1,10.1 19.7,10.2 19.3,10.2 C16.1,10.2 14.1,9 12.7,4.7 C11.5,1 11.3,-0.1 10.4,-4.5"/>
<path class="Note" transform="matrix(2.3811,0,0,2.3811,3771.11,1540.63)" d="M18.7,-13.6 C4.9,-13.6 0,-6.6 0,-0.1 C0,6.4 4.9,13.4 18.7,13.4 C32.5,13.4 37.3,6.4 37.3,-0.1 C37.3,-6.6 32.5,-13.6 18.7,-13.6 M10.4,-4.5 C10.3,-4.9 10.3,-5.3 10.3,-5.7 C10.3,-6.5 10.5,-7.3 10.9,-8 C11.6,-9 12.8,-9.7 14.3,-10 C15.6,-10.3 16.3,-10.5 18.9,-10.5 L19,-10.5 C23,-10.5 24.3,-6.8 25.4,-3 L25.7,-2 C26.5,0.6 26.9,2.8 26.9,4.5 C26.9,5.7 26.7,6.8 26.3,7.6 C25.7,8.7 24.7,9.4 23,9.8 C22.1,10 20.6,10.1 20.6,10.1 C20.1,10.1 19.7,10.2 19.3,10.2 C16.1,10.2 14.1,9 12.7,4.7 C11.5,1 11.3,-0.1 10.4,-4.5"/>
<path class="Note" transform="matrix(2.3811,0,0,2.3811,3771.11,1481.1)" d="M18.7,-13.6 C4.9,-13.6 0,-6.6 0,-0.1 C0,6.4 4.9,13.4 18.7,13.4 C32.5,13.4 37.3,6.4 37.3,-0.1 C37.3,-6.6 32.5,-13.6 18.7,-13.6 M10.4,-4.5 C10.3,-4.9 10.3,-5.3 10.3,-5.7 C10.3,-6.5 10.5,-7.3 10.9,-8 C11.6,-9 12.8,-9.7 14.3,-10 C15.6,-10.3 16.3,-10.5 18.9,-10.5 L19,-10.5 C23,-10.5 24.3,-6.8 25.4,-3 L25.7,-2 C26.5,0.6 26.9,2.8 26.9,4.5 C26.9,5.7 26.7,6.8 26.3,7.6 C25.7,8.7 24.7,9.4 23,9.8 C22.1,10 20.6,10.1 20.6,10.1 C20.1,10.1 19.7,10.2 19.3,10.2 C16.1,10.2 14.1,9 12.7,4.7 C11.5,1 11.3,-0.1 10.4,-4.5"/>
<path class="Note" d="M834.573,583.965 C839.144,583.965 841.43,586.831 841.43,592.564 C841.43,596.593 838.912,602.597 833.876,610.577 C829.847,617.007 827.833,623.283 827.833,629.403 C827.833,632.889 832.908,634.633 843.057,634.633 C851.424,634.633 863.084,630.1 878.036,621.036 C863.006,635.524 849.952,642.767 838.873,642.767 C828.879,642.767 821.906,641.257 817.955,638.235 C816.948,637.46 816.096,636.531 815.398,635.446 C811.525,640.172 805.056,642.535 795.991,642.535 C787.314,642.535 780.651,640.753 776.003,637.189 C772.904,634.788 771.355,630.953 771.355,625.684 C771.355,617.317 776.313,608.175 786.23,598.259 C796.843,587.645 809.123,582.338 823.068,582.338 C826.555,582.338 829.111,583.616 830.738,586.173 C832.055,584.701 833.334,583.965 834.573,583.965 M813.772,630.217 C813.694,629.597 813.655,628.977 813.655,628.357 C813.655,628.047 817.606,617.24 825.509,595.934 C826.284,593.843 827.058,592.061 827.833,590.589 C824.812,589.969 821.829,589.659 818.885,589.659 C813.462,589.659 806.257,594.269 797.27,603.488 C789.212,611.7 785.184,618.789 785.184,624.755 C785.184,631.34 788.321,634.633 794.597,634.633 C802.189,634.633 808.581,633.161 813.772,630.217"/>
<path class="Note" d="M834.573,494.673 C839.144,494.673 841.43,497.54 841.43,503.273 C841.43,507.302 838.912,513.306 833.876,521.286 C829.847,527.716 827.833,533.991 827.833,540.112 C827.833,543.598 832.908,545.341 843.057,545.341 C851.424,545.341 863.084,540.809 878.036,531.745 C863.006,546.232 849.952,553.476 838.873,553.476 C828.879,553.476 821.906,551.965 817.955,548.944 C816.948,548.169 816.096,547.239 815.398,546.155 C811.525,550.881 805.056,553.244 795.991,553.244 C787.314,553.244 780.651,551.462 776.003,547.898 C772.904,545.496 771.355,541.661 771.355,536.393 C771.355,528.026 776.313,518.884 786.23,508.967 C796.843,498.353 809.123,493.046 823.068,493.046 C826.555,493.046 829.111,494.325 830.738,496.881 C832.055,495.409 833.334,494.673 834.573,494.673 M813.772,540.925 C813.694,540.305 813.655,539.686 813.655,539.066 C813.655,538.756 817.606,527.948 825.509,506.643 C826.284,504.551 827.058,502.769 827.833,501.297 C824.812,500.678 821.829,500.368 818.885,500.368 C813.462,500.368 806.257,504.977 797.27,514.197 C789.212,522.409 785.184,529.498 785.184,535.463 C785.184,542.049 788.321,545.341 794.597,545.341 C802.189,545.341 808.581,543.869 813.772,540.925"/>
<path class="Note" d="M790.297,821.118 C786.501,821.118 784.603,817.05 784.603,808.916 L784.603,774.866 C784.603,771.612 786.191,769.985 789.367,769.985 C790.762,769.985 791.808,770.101 792.505,770.333 C794.984,765.995 799.051,762.354 804.707,759.41 C812.609,755.304 820.628,753.25 828.763,753.25 C835.193,753.25 838.408,755.652 838.408,760.456 C838.408,764.484 836.239,766.499 831.9,766.499 C828.801,766.499 825.857,765.801 823.068,764.407 C820.589,763.167 817.955,762.547 815.166,762.547 C810.363,762.547 803.274,765.685 793.899,771.96 C795.216,778.236 795.875,785.557 795.875,793.924 C795.875,812.053 794.016,821.118 790.297,821.118"/>
<path class="Note" d="M790.297,731.826 C786.501,731.826 784.603,727.759 784.603,719.624 L784.603,685.574 C784.603,682.32 786.191,680.693 789.367,680.693 C790.762,680.693 791.808,680.81 792.505,681.042 C794.984,676.704 799.051,673.062 804.707,670.118 C812.609,666.012 820.628,663.959 828.763,663.959 C835.193,663.959 838.408,666.361 838.408,671.164 C838.408,675.193 836.239,677.207 831.9,677.207 C828.801,677.207 825.857,676.51 823.068,675.115 C820.589,673.876 817.955,673.256 815.166,673.256 C810.363,673.256 803.274,676.394 793.899,682.669 C795.216,688.944 795.875,696.266 795.875,704.633 C795.875,722.762 794.016,731.826 790.297,731.826"/>
<path class="Note" d="M1232.47,583.965 C1237.04,583.965 1239.32,586.831 1239.32,592.564 C1239.32,596.593 1236.8,602.597 1231.77,610.577 C1227.74,617.007 1225.73,623.283 1225.73,629.403 C1225.73,632.889 1230.8,634.633 1240.95,634.633 C1249.32,634.633 1260.98,630.1 1275.93,621.036 C1260.9,635.524 1247.84,642.767 1236.77,642.767 C1226.77,642.767 1219.8,641.257 1215.85,638.235 C1214.84,637.46 1213.99,636.531 1213.29,635.446 C1209.42,640.172 1202.95,642.535 1193.88,642.535 C1185.21,642.535 1178.54,640.753 1173.9,637.189 C1170.8,634.788 1169.25,630.953 1169.25,625.684 C1169.25,617.317 1174.21,608.175 1184.12,598.259 C1194.74,587.645 1207.02,582.338 1220.96,582.338 C1224.45,582.338 1227,583.616 1228.63,586.173 C1229.95,584.701 1231.23,583.965 1232.47,583.965 M1211.66,630.217 C1211.59,629.597 1211.55,628.977 1211.55,628.357 C1211.55,628.047 1215.5,617.24 1223.4,595.934 C1224.18,593.843 1224.95,592.061 1225.73,590.589 C1222.7,589.969 1219.72,589.659 1216.78,589.659 C1211.35,589.659 1204.15,594.269 1195.16,603.488 C1187.11,611.7 1183.08,618.789 1183.08,624.755 C1183.08,631.34 1186.21,634.633 1192.49,634.633 C1200.08,634.633 1206.47,633.161 1211.66,630.217"/>
<path class="Note" d="M1239.55,759.642 C1250.01,753.057 1257.61,747.672 1262.33,743.489 C1271.01,735.819 1275.35,728.071 1275.35,720.247 C1275.35,711.105 1269.23,706.534 1256.99,706.534 C1244.13,706.534 1230.72,715.792 1216.78,734.308 C1207.33,746.859 1200.62,758.712 1196.67,769.869 C1201.55,766.692 1206.71,765.104 1212.13,765.104 C1217.24,765.104 1221.31,767.389 1224.33,771.96 C1226.42,775.137 1227.47,780.56 1227.47,788.23 C1227.47,795.125 1223.83,803.221 1216.55,812.518 C1212.05,818.251 1207.05,821.118 1201.55,821.118 C1194.58,821.118 1189.7,819.723 1186.91,816.934 C1182.96,812.983 1180.98,805.158 1180.98,793.459 C1180.98,773.781 1188.93,754.413 1204.81,735.354 C1222.7,713.894 1239.86,703.164 1256.29,703.164 C1269,703.164 1278.49,706.146 1284.76,712.112 C1288.4,715.598 1290.22,720.634 1290.22,727.219 C1290.22,734.579 1282.98,742.791 1268.49,751.856 C1260.9,756.659 1251.25,759.255 1239.55,759.642 M1195.16,774.749 C1193.23,781.257 1192.26,787.494 1192.26,793.459 C1192.26,807.637 1194.5,814.726 1199,814.726 C1203.26,814.726 1206.59,811.705 1208.99,805.662 C1211.78,798.844 1213.18,791.29 1213.18,783 C1213.18,775.64 1210.73,771.96 1205.85,771.96 C1202.44,771.96 1198.88,772.89 1195.16,774.749"/>
<path class="Note" d="M1232.47,673.256 C1237.04,673.256 1239.32,676.123 1239.32,681.856 C1239.32,685.884 1236.8,691.888 1231.77,699.868 C1227.74,706.299 1225.73,712.574 1225.73,718.694 C1225.73,722.181 1230.8,723.924 1240.95,723.924 C1249.32,723.924 1260.98,719.392 1275.93,710.327 C1260.9,724.815 1247.84,732.059 1236.77,732.059 C1226.77,732.059 1219.8,730.548 1215.85,727.527 C1214.84,726.752 1213.99,725.822 1213.29,724.737 C1209.42,729.463 1202.95,731.826 1193.88,731.826 C1185.21,731.826 1178.54,730.044 1173.9,726.481 C1170.8,724.079 1169.25,720.244 1169.25,714.976 C1169.25,706.609 1174.21,697.467 1184.12,687.55 C1194.74,676.936 1207.02,671.629 1220.96,671.629 C1224.45,671.629 1227,672.907 1228.63,675.464 C1229.95,673.992 1231.23,673.256 1232.47,673.256 M1211.66,719.508 C1211.59,718.888 1211.55,718.268 1211.55,717.649 C1211.55,717.339 1215.5,706.531 1223.4,685.226 C1224.18,683.134 1224.95,681.352 1225.73,679.88 C1222.7,679.26 1219.72,678.95 1216.78,678.95 C1211.35,678.95 1204.15,683.56 1195.16,692.779 C1187.11,700.992 1183.08,708.081 1183.08,714.046 C1183.08,720.631 1186.21,723.924 1192.49,723.924 C1200.08,723.924 1206.47,722.452 1211.66,719.508"/>
<path class="Note" d="M1693.39,848.933 C1703.84,842.348 1711.44,836.964 1716.16,832.78 C1724.84,825.11 1729.18,817.363 1729.18,809.538 C1729.18,800.396 1723.06,795.825 1710.82,795.825 C1697.96,795.825 1684.55,805.083 1670.61,823.599 C1661.16,836.15 1654.45,848.004 1650.5,859.16 C1655.38,855.984 1660.54,854.395 1665.96,854.395 C1671.07,854.395 1675.14,856.681 1678.16,861.252 C1680.25,864.428 1681.3,869.851 1681.3,877.521 C1681.3,884.416 1677.66,892.513 1670.38,901.809 C1665.88,907.542 1660.88,910.409 1655.38,910.409 C1648.41,910.409 1643.53,909.014 1640.74,906.225 C1636.79,902.274 1634.81,894.449 1634.81,882.751 C1634.81,863.072 1642.76,843.704 1658.64,824.645 C1676.53,803.185 1693.69,792.455 1710.12,792.455 C1722.83,792.455 1732.32,795.438 1738.59,801.403 C1742.23,804.889 1744.05,809.925 1744.05,816.511 C1744.05,823.871 1736.81,832.083 1722.32,841.147 C1714.73,845.951 1705.08,848.546 1693.39,848.933 M1648.99,864.041 C1647.06,870.549 1646.09,876.785 1646.09,882.751 C1646.09,896.929 1648.33,904.017 1652.83,904.017 C1657.09,904.017 1660.42,900.996 1662.82,894.953 C1665.61,888.135 1667.01,880.582 1667.01,872.292 C1667.01,864.932 1664.56,861.252 1659.68,861.252 C1656.28,861.252 1652.71,862.181 1648.99,864.041"/>
<path class="Note" d="M1642.02,642.535 C1638.22,642.535 1636.33,638.468 1636.33,630.333 L1636.33,596.283 C1636.33,593.029 1637.91,591.402 1641.09,591.402 C1642.48,591.402 1643.53,591.518 1644.23,591.751 C1646.71,587.412 1650.77,583.771 1656.43,580.827 C1664.33,576.721 1672.35,574.668 1680.49,574.668 C1686.92,574.668 1690.13,577.069 1690.13,581.873 C1690.13,585.902 1687.96,587.916 1683.62,587.916 C1680.52,587.916 1677.58,587.219 1674.79,585.824 C1672.31,584.584 1669.68,583.965 1666.89,583.965 C1662.09,583.965 1655,587.102 1645.62,593.378 C1646.94,599.653 1647.6,606.974 1647.6,615.342 C1647.6,633.471 1645.74,642.535 1642.02,642.535"/>
<path class="Note" d="M1642.02,821.118 C1638.22,821.118 1636.33,817.05 1636.33,808.916 L1636.33,774.866 C1636.33,771.612 1637.91,769.985 1641.09,769.985 C1642.48,769.985 1643.53,770.101 1644.23,770.333 C1646.71,765.995 1650.77,762.354 1656.43,759.41 C1664.33,755.304 1672.35,753.25 1680.49,753.25 C1686.92,753.25 1690.13,755.652 1690.13,760.456 C1690.13,764.484 1687.96,766.499 1683.62,766.499 C1680.52,766.499 1677.58,765.801 1674.79,764.407 C1672.31,763.167 1669.68,762.547 1666.89,762.547 C1662.09,762.547 1655,765.685 1645.62,771.96 C1646.94,778.236 1647.6,785.557 1647.6,793.924 C1647.6,812.053 1645.74,821.118 1642.02,821.118"/>
<path class="Note" d="M1686.3,673.256 C1690.87,673.256 1693.15,676.123 1693.15,681.856 C1693.15,685.884 1690.63,691.888 1685.6,699.868 C1681.57,706.299 1679.56,712.574 1679.56,718.694 C1679.56,722.181 1684.63,723.924 1694.78,723.924 C1703.15,723.924 1714.81,719.392 1729.76,710.327 C1714.73,724.815 1701.67,732.059 1690.6,732.059 C1680.6,732.059 1673.63,730.548 1669.68,727.527 C1668.67,726.752 1667.82,725.822 1667.12,724.737 C1663.25,729.463 1656.78,731.826 1647.71,731.826 C1639.04,731.826 1632.37,730.044 1627.73,726.481 C1624.63,724.079 1623.08,720.244 1623.08,714.976 C1623.08,706.609 1628.04,697.467 1637.95,687.55 C1648.57,676.936 1660.85,671.629 1674.79,671.629 C1678.28,671.629 1680.83,672.907 1682.46,675.464 C1683.78,673.992 1685.06,673.256 1686.3,673.256 M1665.49,719.508 C1665.42,718.888 1665.38,718.268 1665.38,717.649 C1665.38,717.339 1669.33,706.531 1677.23,685.226 C1678.01,683.134 1678.78,681.352 1679.56,679.88 C1676.53,679.26 1673.55,678.95 1670.61,678.95 C1665.18,678.95 1657.98,683.56 1648.99,692.779 C1640.94,700.992 1636.91,708.081 1636.91,714.046 C1636.91,720.631 1640.04,723.924 1646.32,723.924 C1653.91,723.924 1660.3,722.452 1665.49,719.508"/>
<path class="Note" d="M2182.9,583.965 C2187.47,583.965 2189.76,586.831 2189.76,592.564 C2189.76,596.593 2187.24,602.597 2182.2,610.577 C2178.17,617.007 2176.16,623.283 2176.16,629.403 C2176.16,632.889 2181.23,634.633 2191.38,634.633 C2199.75,634.633 2211.41,630.1 2226.36,621.036 C2211.33,635.524 2198.28,642.767 2187.2,642.767 C2177.21,642.767 2170.23,641.257 2166.28,638.235 C2165.28,637.46 2164.42,636.531 2163.73,635.446 C2159.85,640.172 2153.38,642.535 2144.32,642.535 C2135.64,642.535 2128.98,640.753 2124.33,637.189 C2121.23,634.788 2119.68,630.953 2119.68,625.684 C2119.68,617.317 2124.64,608.175 2134.56,598.259 C2145.17,587.645 2157.45,582.338 2171.4,582.338 C2174.88,582.338 2177.44,583.616 2179.07,586.173 C2180.38,584.701 2181.66,583.965 2182.9,583.965 M2162.1,630.217 C2162.02,629.597 2161.98,628.977 2161.98,628.357 C2161.98,628.047 2165.93,617.24 2173.84,595.934 C2174.61,593.843 2175.39,592.061 2176.16,590.589 C2173.14,589.969 2170.16,589.659 2167.21,589.659 C2161.79,589.659 2154.58,594.269 2145.6,603.488 C2137.54,611.7 2133.51,618.789 2133.51,624.755 C2133.51,631.34 2136.65,634.633 2142.92,634.633 C2150.52,634.633 2156.91,633.161 2162.1,630.217"/>
<path class="Note" d="M2138.62,910.409 C2134.83,910.409 2132.93,906.342 2132.93,898.207 L2132.93,864.157 C2132.93,860.903 2134.52,859.276 2137.69,859.276 C2139.09,859.276 2140.13,859.392 2140.83,859.625 C2143.31,855.286 2147.38,851.645 2153.03,848.701 C2160.94,844.595 2168.96,842.542 2177.09,842.542 C2183.52,842.542 2186.74,844.943 2186.74,849.747 C2186.74,853.776 2184.57,855.79 2180.23,855.79 C2177.13,855.79 2174.18,855.093 2171.4,853.698 C2168.92,852.458 2166.28,851.839 2163.49,851.839 C2158.69,851.839 2151.6,854.976 2142.23,861.252 C2143.54,867.527 2144.2,874.848 2144.2,883.216 C2144.2,901.345 2142.34,910.409 2138.62,910.409"/>
<path class="Note" d="M2189.99,759.642 C2200.45,753.057 2208.04,747.672 2212.77,743.489 C2221.44,735.819 2225.78,728.071 2225.78,720.247 C2225.78,711.105 2219.66,706.534 2207.42,706.534 C2194.56,706.534 2181.16,715.792 2167.21,734.308 C2157.76,746.859 2151.06,758.712 2147.11,769.869 C2151.99,766.692 2157.14,765.104 2162.56,765.104 C2167.68,765.104 2171.74,767.389 2174.77,771.96 C2176.86,775.137 2177.9,780.56 2177.9,788.23 C2177.9,795.125 2174.26,803.221 2166.98,812.518 C2162.49,818.251 2157.49,821.118 2151.99,821.118 C2145.02,821.118 2140.13,819.723 2137.35,816.934 C2133.39,812.983 2131.42,805.158 2131.42,793.459 C2131.42,773.781 2139.36,754.413 2155.24,735.354 C2173.14,713.894 2190.3,703.164 2206.72,703.164 C2219.43,703.164 2228.92,706.146 2235.2,712.112 C2238.84,715.598 2240.66,720.634 2240.66,727.219 C2240.66,734.579 2233.41,742.791 2218.93,751.856 C2211.33,756.659 2201.69,759.255 2189.99,759.642 M2145.6,774.749 C2143.66,781.257 2142.69,787.494 2142.69,793.459 C2142.69,807.637 2144.94,814.726 2149.43,814.726 C2153.69,814.726 2157.02,811.705 2159.43,805.662 C2162.22,798.844 2163.61,791.29 2163.61,783 C2163.61,775.64 2161.17,771.96 2156.29,771.96 C2152.88,771.96 2149.32,772.89 2145.6,774.749"/>
<path class="Note" d="M2182.9,673.256 C2187.47,673.256 2189.76,676.123 2189.76,681.856 C2189.76,685.884 2187.24,691.888 2182.2,699.868 C2178.17,706.299 2176.16,712.574 2176.16,718.694 C2176.16,722.181 2181.23,723.924 2191.38,723.924 C2199.75,723.924 2211.41,719.392 2226.36,710.327 C2211.33,724.815 2198.28,732.059 2187.2,732.059 C2177.21,732.059 2170.23,730.548 2166.28,727.527 C2165.28,726.752 2164.42,725.822 2163.73,724.737 C2159.85,729.463 2153.38,731.826 2144.32,731.826 C2135.64,731.826 2128.98,730.044 2124.33,726.481 C2121.23,724.079 2119.68,720.244 2119.68,714.976 C2119.68,706.609 2124.64,697.467 2134.56,687.55 C2145.17,676.936 2157.45,671.629 2171.4,671.629 C2174.88,671.629 2177.44,672.907 2179.07,675.464 C2180.38,673.992 2181.66,673.256 2182.9,673.256 M2162.1,719.508 C2162.02,718.888 2161.98,718.268 2161.98,717.649 C2161.98,717.339 2165.93,706.531 2173.84,685.226 C2174.61,683.134 2175.39,681.352 2176.16,679.88 C2173.14,679.26 2170.16,678.95 2167.21,678.95 C2161.79,678.95 2154.58,683.56 2145.6,692.779 C2137.54,700.992 2133.51,708.081 2133.51,714.046 C2133.51,720.631 2136.65,723.924 2142.92,723.924 C2150.52,723.924 2156.91,722.452 2162.1,719.508"/>
<path class="Note" d="M2600.79,583.965 C2605.36,583.965 2607.65,586.831 2607.65,592.564 C2607.65,596.593 2605.13,602.597 2600.09,610.577 C2596.07,617.007 2594.05,623.283 2594.05,629.403 C2594.05,632.889 2599.13,634.633 2609.27,634.633 C2617.64,634.633 2629.3,630.1 2644.25,621.036 C2629.22,635.524 2616.17,642.767 2605.09,642.767 C2595.1,642.767 2588.12,641.257 2584.17,638.235 C2583.17,637.46 2582.31,636.531 2581.62,635.446 C2577.74,640.172 2571.27,642.535 2562.21,642.535 C2553.53,642.535 2546.87,640.753 2542.22,637.189 C2539.12,634.788 2537.57,630.953 2537.57,625.684 C2537.57,617.317 2542.53,608.175 2552.45,598.259 C2563.06,587.645 2575.34,582.338 2589.29,582.338 C2592.77,582.338 2595.33,583.616 2596.96,586.173 C2598.27,584.701 2599.55,583.965 2600.79,583.965 M2579.99,630.217 C2579.91,629.597 2579.87,628.977 2579.87,628.357 C2579.87,628.047 2583.82,617.24 2591.73,595.934 C2592.5,593.843 2593.28,592.061 2594.05,590.589 C2591.03,589.969 2588.05,589.659 2585.1,589.659 C2579.68,589.659 2572.47,594.269 2563.49,603.488 C2555.43,611.7 2551.4,618.789 2551.4,624.755 C2551.4,631.34 2554.54,634.633 2560.81,634.633 C2568.41,634.633 2574.8,633.161 2579.99,630.217"/>
<path class="Note" d="M2600.79,851.839 C2605.36,851.839 2607.65,854.705 2607.65,860.438 C2607.65,864.467 2605.13,870.471 2600.09,878.451 C2596.07,884.881 2594.05,891.157 2594.05,897.277 C2594.05,900.763 2599.13,902.507 2609.27,902.507 C2617.64,902.507 2629.3,897.974 2644.25,888.91 C2629.22,903.398 2616.17,910.641 2605.09,910.641 C2595.1,910.641 2588.12,909.131 2584.17,906.109 C2583.17,905.334 2582.31,904.405 2581.62,903.32 C2577.74,908.046 2571.27,910.409 2562.21,910.409 C2553.53,910.409 2546.87,908.627 2542.22,905.063 C2539.12,902.662 2537.57,898.827 2537.57,893.558 C2537.57,885.191 2542.53,876.049 2552.45,866.133 C2563.06,855.519 2575.34,850.212 2589.29,850.212 C2592.77,850.212 2595.33,851.49 2596.96,854.047 C2598.27,852.575 2599.55,851.839 2600.79,851.839 M2579.99,898.091 C2579.91,897.471 2579.87,896.851 2579.87,896.231 C2579.87,895.921 2583.82,885.114 2591.73,863.808 C2592.5,861.717 2593.28,859.935 2594.05,858.463 C2591.03,857.843 2588.05,857.533 2585.1,857.533 C2579.68,857.533 2572.47,862.143 2563.49,871.362 C2555.43,879.574 2551.4,886.663 2551.4,892.629 C2551.4,899.214 2554.54,902.507 2560.81,902.507 C2568.41,902.507 2574.8,901.035 2579.99,898.091"/>
<path class="Note" d="M2607.88,759.642 C2618.34,753.057 2625.93,747.672 2630.66,743.489 C2639.33,735.819 2643.67,728.071 2643.67,720.247 C2643.67,711.105 2637.55,706.534 2625.31,706.534 C2612.45,706.534 2599.05,715.792 2585.1,734.308 C2575.65,746.859 2568.95,758.712 2565,769.869 C2569.88,766.692 2575.03,765.104 2580.45,765.104 C2585.57,765.104 2589.63,767.389 2592.66,771.96 C2594.75,775.137 2595.79,780.56 2595.79,788.23 C2595.79,795.125 2592.15,803.221 2584.87,812.518 C2580.38,818.251 2575.38,821.118 2569.88,821.118 C2562.91,821.118 2558.03,819.723 2555.24,816.934 C2551.29,812.983 2549.31,805.158 2549.31,793.459 C2549.31,773.781 2557.25,754.413 2573.13,735.354 C2591.03,713.894 2608.19,703.164 2624.61,703.164 C2637.32,703.164 2646.81,706.146 2653.09,712.112 C2656.73,715.598 2658.55,720.634 2658.55,727.219 C2658.55,734.579 2651.3,742.791 2636.82,751.856 C2629.22,756.659 2619.58,759.255 2607.88,759.642 M2563.49,774.749 C2561.55,781.257 2560.58,787.494 2560.58,793.459 C2560.58,807.637 2562.83,814.726 2567.32,814.726 C2571.58,814.726 2574.91,811.705 2577.32,805.662 C2580.11,798.844 2581.5,791.29 2581.5,783 C2581.5,775.64 2579.06,771.96 2574.18,771.96 C2570.77,771.96 2567.21,772.89 2563.49,774.749"/>
<path class="Note" d="M2600.79,673.256 C2605.36,673.256 2607.65,676.123 2607.65,681.856 C2607.65,685.884 2605.13,691.888 2600.09,699.868 C2596.07,706.299 2594.05,712.574 2594.05,718.694 C2594.05,722.181 2599.13,723.924 2609.27,723.924 C2617.64,723.924 2629.3,719.392 2644.25,710.327 C2629.22,724.815 2616.17,732.059 2605.09,732.059 C2595.1,732.059 2588.12,730.548 2584.17,727.527 C2583.17,726.752 2582.31,725.822 2581.62,724.737 C2577.74,729.463 2571.27,731.826 2562.21,731.826 C2553.53,731.826 2546.87,730.044 2542.22,726.481 C2539.12,724.079 2537.57,720.244 2537.57,714.976 C2537.57,706.609 2542.53,697.467 2552.45,687.55 C2563.06,676.936 2575.34,671.629 2589.29,671.629 C2592.77,671.629 2595.33,672.907 2596.96,675.464 C2598.27,673.992 2599.55,673.256 2600.79,673.256 M2579.99,719.508 C2579.91,718.888 2579.87,718.268 2579.87,717.649 C2579.87,717.339 2583.82,706.531 2591.73,685.226 C2592.5,683.134 2593.28,681.352 2594.05,679.88 C2591.03,679.26 2588.05,678.95 2585.1,678.95 C2579.68,678.95 2572.47,683.56 2563.49,692.779 C2555.43,700.992 2551.4,708.081 2551.4,714.046 C2551.4,720.631 2554.54,723.924 2560.81,723.924 C2568.41,723.924 2574.8,722.452 2579.99,719.508"/>
<path class="Note" d="M3048.75,973.437 C3042.4,983.431 3032.37,991.721 3018.66,998.306 C3006.72,1004.04 2995.57,1006.91 2985.19,1006.91 C2976.9,1006.91 2970,1005.24 2964.5,1001.91 C2958.54,998.267 2955.55,993.929 2955.55,988.893 C2955.55,977.504 2958.54,967.704 2964.5,959.491 C2972.64,948.335 2980.85,942.757 2989.14,942.757 C2995.03,942.757 2999.21,943.919 3001.69,946.243 C3005.1,949.265 3006.8,953.41 3006.8,958.678 C3006.8,966.115 3001.26,972.584 2990.18,978.085 C2979.41,983.431 2971.94,986.917 2967.76,988.544 C2968.68,990.481 2969.89,992.224 2971.36,993.774 C2975,997.647 2979.96,999.584 2986.23,999.584 C2994.13,999.584 3004.75,996.679 3018.07,990.868 C3030.86,985.213 3041.08,979.402 3048.75,973.437 M2966.13,983.198 C2971.94,980.254 2977.25,976.807 2982.05,972.856 C2989.18,967.045 2992.74,960.77 2992.74,954.029 C2992.74,950.233 2991,948.335 2987.51,948.335 C2984.57,948.335 2980.54,951.705 2975.42,958.445 C2968.99,966.813 2965.78,973.63 2965.78,978.899 C2965.78,980.371 2965.9,981.804 2966.13,983.198"/>
<path class="Note" d="M3012.96,583.965 C3017.53,583.965 3019.82,586.831 3019.82,592.564 C3019.82,596.593 3017.3,602.597 3012.26,610.577 C3008.24,617.007 3006.22,623.283 3006.22,629.403 C3006.22,632.889 3011.3,634.633 3021.44,634.633 C3029.81,634.633 3041.47,630.1 3056.42,621.036 C3041.39,635.524 3028.34,642.767 3017.26,642.767 C3007.27,642.767 3000.29,641.257 2996.34,638.235 C2995.34,637.46 2994.48,636.531 2993.79,635.446 C2989.91,640.172 2983.44,642.535 2974.38,642.535 C2965.7,642.535 2959.04,640.753 2954.39,637.189 C2951.29,634.788 2949.74,630.953 2949.74,625.684 C2949.74,617.317 2954.7,608.175 2964.62,598.259 C2975.23,587.645 2987.51,582.338 3001.46,582.338 C3004.94,582.338 3007.5,583.616 3009.13,586.173 C3010.44,584.701 3011.72,583.965 3012.96,583.965 M2992.16,630.217 C2992.08,629.597 2992.04,628.977 2992.04,628.357 C2992.04,628.047 2995.99,617.24 3003.9,595.934 C3004.67,593.843 3005.45,592.061 3006.22,590.589 C3003.2,589.969 3000.22,589.659 2997.27,589.659 C2991.85,589.659 2984.64,594.269 2975.66,603.488 C2967.6,611.7 2963.57,618.789 2963.57,624.755 C2963.57,631.34 2966.71,634.633 2972.98,634.633 C2980.58,634.633 2986.97,633.161 2992.16,630.217"/>
<path class="Note" d="M3012.96,494.673 C3017.53,494.673 3019.82,497.54 3019.82,503.273 C3019.82,507.302 3017.3,513.306 3012.26,521.286 C3008.24,527.716 3006.22,533.991 3006.22,540.112 C3006.22,543.598 3011.3,545.341 3021.44,545.341 C3029.81,545.341 3041.47,540.809 3056.42,531.745 C3041.39,546.232 3028.34,553.476 3017.26,553.476 C3007.27,553.476 3000.29,551.965 2996.34,548.944 C2995.34,548.169 2994.48,547.239 2993.79,546.155 C2989.91,550.881 2983.44,553.244 2974.38,553.244 C2965.7,553.244 2959.04,551.462 2954.39,547.898 C2951.29,545.496 2949.74,541.661 2949.74,536.393 C2949.74,528.026 2954.7,518.884 2964.62,508.967 C2975.23,498.353 2987.51,493.046 3001.46,493.046 C3004.94,493.046 3007.5,494.325 3009.13,496.881 C3010.44,495.409 3011.72,494.673 3012.96,494.673 M2992.16,540.925 C2992.08,540.305 2992.04,539.686 2992.04,539.066 C2992.04,538.756 2995.99,527.948 3003.9,506.643 C3004.67,504.551 3005.45,502.769 3006.22,501.297 C3003.2,500.678 3000.22,500.368 2997.27,500.368 C2991.85,500.368 2984.64,504.977 2975.66,514.197 C2967.6,522.409 2963.57,529.498 2963.57,535.463 C2963.57,542.049 2966.71,545.341 2972.98,545.341 C2980.58,545.341 2986.97,543.869 2992.16,540.925"/>
<path class="Note" d="M2968.68,731.826 C2964.89,731.826 2962.99,727.759 2962.99,719.624 L2962.99,685.574 C2962.99,682.32 2964.58,680.693 2967.76,680.693 C2969.15,680.693 2970.2,680.81 2970.89,681.042 C2973.37,676.704 2977.44,673.062 2983.09,670.118 C2991,666.012 2999.02,663.959 3007.15,663.959 C3013.58,663.959 3016.8,666.361 3016.8,671.164 C3016.8,675.193 3014.63,677.207 3010.29,677.207 C3007.19,677.207 3004.25,676.51 3001.46,675.115 C2998.98,673.876 2996.34,673.256 2993.55,673.256 C2988.75,673.256 2981.66,676.394 2972.29,682.669 C2973.6,688.944 2974.26,696.266 2974.26,704.633 C2974.26,722.762 2972.4,731.826 2968.68,731.826"/>
<path class="Note" d="M3386.58,999.7 C3382.78,999.7 3380.88,995.633 3380.88,987.498 L3380.88,953.448 C3380.88,950.194 3382.47,948.568 3385.65,948.568 C3387.04,948.568 3388.09,948.684 3388.78,948.916 C3391.26,944.578 3395.33,940.936 3400.99,937.992 C3408.89,933.886 3416.91,931.833 3425.04,931.833 C3431.47,931.833 3434.69,934.235 3434.69,939.038 C3434.69,943.067 3432.52,945.081 3428.18,945.081 C3425.08,945.081 3422.14,944.384 3419.35,942.989 C3416.87,941.75 3414.23,941.13 3411.44,941.13 C3406.64,941.13 3399.55,944.268 3390.18,950.543 C3391.49,956.818 3392.15,964.14 3392.15,972.507 C3392.15,990.636 3390.29,999.7 3386.58,999.7"/>
<path class="Note" d="M3386.58,910.409 C3382.78,910.409 3380.88,906.342 3380.88,898.207 L3380.88,864.157 C3380.88,860.903 3382.47,859.276 3385.65,859.276 C3387.04,859.276 3388.09,859.392 3388.78,859.625 C3391.26,855.286 3395.33,851.645 3400.99,848.701 C3408.89,844.595 3416.91,842.542 3425.04,842.542 C3431.47,842.542 3434.69,844.943 3434.69,849.747 C3434.69,853.776 3432.52,855.79 3428.18,855.79 C3425.08,855.79 3422.14,855.093 3419.35,853.698 C3416.87,852.458 3414.23,851.839 3411.44,851.839 C3406.64,851.839 3399.55,854.976 3390.18,861.252 C3391.49,867.527 3392.15,874.848 3392.15,883.216 C3392.15,901.345 3390.29,910.409 3386.58,910.409"/>
<path class="Note" d="M3466.64,616.271 C3460.29,626.265 3450.26,634.555 3436.55,641.14 C3424.61,646.874 3413.46,649.74 3403.08,649.74 C3394.79,649.74 3387.89,648.074 3382.39,644.743 C3376.43,641.102 3373.44,636.763 3373.44,631.727 C3373.44,620.339 3376.43,610.538 3382.39,602.326 C3390.53,591.17 3398.74,585.592 3407.03,585.592 C3412.92,585.592 3417.1,586.754 3419.58,589.078 C3422.99,592.099 3424.69,596.244 3424.69,601.513 C3424.69,608.95 3419.15,615.419 3408.07,620.92 C3397.31,626.265 3389.83,629.752 3385.65,631.379 C3386.58,633.316 3387.78,635.059 3389.25,636.608 C3392.89,640.482 3397.85,642.419 3404.12,642.419 C3412.03,642.419 3422.64,639.513 3435.96,633.703 C3448.75,628.047 3458.97,622.237 3466.64,616.271 M3384.02,626.033 C3389.83,623.089 3395.14,619.641 3399.94,615.69 C3407.07,609.88 3410.63,603.604 3410.63,596.864 C3410.63,593.068 3408.89,591.17 3405.4,591.17 C3402.46,591.17 3398.43,594.54 3393.32,601.28 C3386.88,609.647 3383.67,616.465 3383.67,621.733 C3383.67,623.205 3383.79,624.638 3384.02,626.033"/>
<path class="Note" d="M3466.64,794.854 C3460.29,804.848 3450.26,813.138 3436.55,819.723 C3424.61,825.456 3413.46,828.323 3403.08,828.323 C3394.79,828.323 3387.89,826.657 3382.39,823.326 C3376.43,819.684 3373.44,815.346 3373.44,810.31 C3373.44,798.921 3376.43,789.121 3382.39,780.909 C3390.53,769.752 3398.74,764.174 3407.03,764.174 C3412.92,764.174 3417.1,765.336 3419.58,767.661 C3422.99,770.682 3424.69,774.827 3424.69,780.095 C3424.69,787.533 3419.15,794.002 3408.07,799.502 C3397.31,804.848 3389.83,808.334 3385.65,809.961 C3386.58,811.898 3387.78,813.641 3389.25,815.191 C3392.89,819.065 3397.85,821.001 3404.12,821.001 C3412.03,821.001 3422.64,818.096 3435.96,812.286 C3448.75,806.63 3458.97,800.819 3466.64,794.854 M3384.02,804.616 C3389.83,801.672 3395.14,798.224 3399.94,794.273 C3407.07,788.462 3410.63,782.187 3410.63,775.447 C3410.63,771.651 3408.89,769.752 3405.4,769.752 C3402.46,769.752 3398.43,773.123 3393.32,779.863 C3386.88,788.23 3383.67,795.048 3383.67,800.316 C3383.67,801.788 3383.79,803.221 3384.02,804.616"/>
<path class="Note" d="M3386.58,553.244 C3382.78,553.244 3380.88,549.176 3380.88,541.041 L3380.88,506.992 C3380.88,503.738 3382.47,502.111 3385.65,502.111 C3387.04,502.111 3388.09,502.227 3388.78,502.459 C3391.26,498.121 3395.33,494.48 3400.99,491.536 C3408.89,487.43 3416.91,485.376 3425.04,485.376 C3431.47,485.376 3434.69,487.778 3434.69,492.582 C3434.69,496.61 3432.52,498.624 3428.18,498.624 C3425.08,498.624 3422.14,497.927 3419.35,496.533 C3416.87,495.293 3414.23,494.673 3411.44,494.673 C3406.64,494.673 3399.55,497.811 3390.18,504.086 C3391.49,510.362 3392.15,517.683 3392.15,526.05 C3392.15,544.179 3390.29,553.244 3386.58,553.244"/>
<path class="Note" d="M3319.76,677.207 C3320.07,665.509 3326.54,655.127 3339.17,646.063 C3350.4,638.005 3362.68,633.977 3376.01,633.977 C3394.68,633.977 3411.14,641.298 3425.4,655.941 C3434.46,665.315 3439,676.936 3439,690.804 C3439,703.277 3435.66,712.845 3429,719.508 C3420.87,727.72 3412.27,731.826 3403.2,731.826 C3397,731.826 3392.2,730.432 3388.79,727.643 C3383.21,723.072 3380.42,716.951 3380.42,709.281 C3380.42,699.365 3385.38,690.3 3395.3,682.088 C3403.43,675.348 3411.61,670.932 3419.82,668.84 C3417.65,665.121 3414.9,661.635 3411.57,658.381 C3401.19,648.232 3389.41,643.157 3376.24,643.157 C3362.53,643.157 3351.18,646.14 3342.19,652.106 C3332.89,658.226 3325.42,666.593 3319.76,677.207 M3422.73,674.999 C3418.46,678.95 3414.2,683.173 3409.94,687.666 C3401.58,696.498 3397.39,704.865 3397.39,712.768 C3397.39,721.212 3399.33,725.435 3403.2,725.435 C3406.69,725.435 3411.57,720.67 3417.84,711.141 C3422.88,703.548 3425.4,696.576 3425.4,690.223 C3425.4,684.8 3424.51,679.725 3422.73,674.999"/>
<path class="Note" d="M3849.93,941.13 C3854.5,941.13 3856.79,943.997 3856.79,949.73 C3856.79,953.758 3854.27,959.763 3849.23,967.742 C3845.2,974.173 3843.19,980.448 3843.19,986.568 C3843.19,990.055 3848.26,991.798 3858.41,991.798 C3866.78,991.798 3878.44,987.266 3893.39,978.201 C3878.36,992.689 3865.31,999.933 3854.23,999.933 C3844.23,999.933 3837.26,998.422 3833.31,995.401 C3832.3,994.626 3831.45,993.696 3830.75,992.611 C3826.88,997.337 3820.41,999.7 3811.35,999.7 C3802.67,999.7 3796.01,997.918 3791.36,994.355 C3788.26,991.953 3786.71,988.118 3786.71,982.85 C3786.71,974.483 3791.67,965.341 3801.58,955.424 C3812.2,944.81 3824.48,939.503 3838.42,939.503 C3841.91,939.503 3844.47,940.781 3846.09,943.338 C3847.41,941.866 3848.69,941.13 3849.93,941.13 M3829.13,987.382 C3829.05,986.762 3829.01,986.142 3829.01,985.523 C3829.01,985.213 3832.96,974.405 3840.86,953.1 C3841.64,951.008 3842.41,949.226 3843.19,947.754 C3840.17,947.134 3837.18,946.824 3834.24,946.824 C3828.82,946.824 3821.61,951.434 3812.62,960.653 C3804.57,968.866 3800.54,975.955 3800.54,981.92 C3800.54,988.505 3803.68,991.798 3809.95,991.798 C3817.54,991.798 3823.94,990.326 3829.13,987.382"/>
<path class="Note" d="M3849.93,583.965 C3854.5,583.965 3856.79,586.831 3856.79,592.564 C3856.79,596.593 3854.27,602.597 3849.23,610.577 C3845.2,617.007 3843.19,623.283 3843.19,629.403 C3843.19,632.889 3848.26,634.633 3858.41,634.633 C3866.78,634.633 3878.44,630.1 3893.39,621.036 C3878.36,635.524 3865.31,642.767 3854.23,642.767 C3844.23,642.767 3837.26,641.257 3833.31,638.235 C3832.3,637.46 3831.45,636.531 3830.75,635.446 C3826.88,640.172 3820.41,642.535 3811.35,642.535 C3802.67,642.535 3796.01,640.753 3791.36,637.189 C3788.26,634.788 3786.71,630.953 3786.71,625.684 C3786.71,617.317 3791.67,608.175 3801.58,598.259 C3812.2,587.645 3824.48,582.338 3838.42,582.338 C3841.91,582.338 3844.47,583.616 3846.09,586.173 C3847.41,584.701 3848.69,583.965 3849.93,583.965 M3829.13,630.217 C3829.05,629.597 3829.01,628.977 3829.01,628.357 C3829.01,628.047 3832.96,617.24 3840.86,595.934 C3841.64,593.843 3842.41,592.061 3843.19,590.589 C3840.17,589.969 3837.18,589.659 3834.24,589.659 C3828.82,589.659 3821.61,594.269 3812.62,603.488 C3804.57,611.7 3800.54,618.789 3800.54,624.755 C3800.54,631.34 3803.68,634.633 3809.95,634.633 C3817.54,634.633 3823.94,633.161 3829.13,630.217"/>
<path class="Note" d="M3849.93,494.673 C3854.5,494.673 3856.79,497.54 3856.79,503.273 C3856.79,507.302 3854.27,513.306 3849.23,521.286 C3845.2,527.716 3843.19,533.991 3843.19,540.112 C3843.19,543.598 3848.26,545.341 3858.41,545.341 C3866.78,545.341 3878.44,540.809 3893.39,531.745 C3878.36,546.232 3865.31,553.476 3854.23,553.476 C3844.23,553.476 3837.26,551.965 3833.31,548.944 C3832.3,548.169 3831.45,547.239 3830.75,546.155 C3826.88,550.881 3820.41,553.244 3811.35,553.244 C3802.67,553.244 3796.01,551.462 3791.36,547.898 C3788.26,545.496 3786.71,541.661 3786.71,536.393 C3786.71,528.026 3791.67,518.884 3801.58,508.967 C3812.2,498.353 3824.48,493.046 3838.42,493.046 C3841.91,493.046 3844.47,494.325 3846.09,496.881 C3847.41,495.409 3848.69,494.673 3849.93,494.673 M3829.13,540.925 C3829.05,540.305 3829.01,539.686 3829.01,539.066 C3829.01,538.756 3832.96,527.948 3840.86,506.643 C3841.64,504.551 3842.41,502.769 3843.19,501.297 C3840.17,500.678 3837.18,500.368 3834.24,500.368 C3828.82,500.368 3821.61,504.977 3812.62,514.197 C3804.57,522.409 3800.54,529.498 3800.54,535.463 C3800.54,542.049 3803.68,545.341 3809.95,545.341 C3817.54,545.341 3823.94,543.869 3829.13,540.925"/>
<path class="Note" d="M3805.65,731.826 C3801.86,731.826 3799.96,727.759 3799.96,719.624 L3799.96,685.574 C3799.96,682.32 3801.55,680.693 3804.72,680.693 C3806.12,680.693 3807.16,680.81 3807.86,681.042 C3810.34,676.704 3814.41,673.062 3820.06,670.118 C3827.96,666.012 3835.98,663.959 3844.12,663.959 C3850.55,663.959 3853.76,666.361 3853.76,671.164 C3853.76,675.193 3851.59,677.207 3847.26,677.207 C3844.16,677.207 3841.21,676.51 3838.42,675.115 C3835.94,673.876 3833.31,673.256 3830.52,673.256 C3825.72,673.256 3818.63,676.394 3809.25,682.669 C3810.57,688.944 3811.23,696.266 3811.23,704.633 C3811.23,722.762 3809.37,731.826 3805.65,731.826"/>
<path class="Clef" transform="matrix(2.3811,0,0,2.3811,212.156,2076.38)" d="M25.4,-25.1 C17.8,-25.1 11.7,-20.7 11.6,-20.7 C5.8,-16.4 3.5,-11.3 2.6,-7.8 C2.1,-6 1.9,-4.2 1.9,-2.5 C1.9,-0.1 2.3,2.1 3.2,4 C4.4,6.7 6.7,8.6 9.7,9.6 C10.9,10 12.2,10.2 13.5,10.2 C15.7,10.2 18,9.6 19.9,8.5 C23,6.8 24.9,3.2 24.9,-0.7 C24.9,-4.2 23.1,-7.4 20.1,-9.3 C18,-10.7 16,-11.1 14.3,-11.1 C13.1,-11.1 12,-10.9 11.1,-10.6 C10.1,-10.2 8.4,-9.2 7.6,-8.5 C7.9,-10.4 9.1,-13.3 10.2,-14.9 C11.3,-16.5 13.5,-18.5 15.2,-19.4 C17.7,-20.8 20.9,-21.4 24.4,-21.4 C34.6,-21.4 39.6,-13.2 39.6,3.6 C39.6,12.9 36.1,21.8 33.1,27.7 C29.8,34.3 25.4,40.6 21.5,44.1 C11.1,53.6 1.3,58.1 1.2,58.1 C1.2,58.1 -0.3,59 0.1,60.5 C0.4,61.5 1.3,61.7 1.9,61.7 C2,61.7 2.3,61.6 2.4,61.6 C2.5,61.6 13.9,56.9 23,49.8 C28.1,46.1 32.7,42.1 36.7,37.8 C40.3,33.9 43.4,29.7 45.9,25.5 C50.3,18 52.8,10.2 52.8,3.5 C52.8,-4.8 50.6,-11.7 46.5,-16.6 C41.8,-22.2 34.7,-25.1 25.4,-25.1 M56.8,-12.4 C56.8,-9.6 59,-7.4 61.6,-7.4 C64.2,-7.4 66.4,-9.6 66.4,-12.4 C66.4,-15.2 64.2,-17.5 61.6,-17.5 C59,-17.5 56.8,-15.2 56.8,-12.4 M56.8,12.3 C56.8,15.1 59,17.4 61.6,17.4 C64.2,17.4 66.4,15.1 66.4,12.3 C66.4,9.5 64.2,7.2 61.6,7.2 C59,7.2 56.8,9.5 56.8,12.3"/>
<path class="Clef" transform="matrix(2.3811,0,0,2.3811,212.156,1570.39)" d="M63.37,-5.89004 C62.14,-11.32 59.5,-15.14 58.72,-16.1801 C55.5301,-20.45 51.52,-23.3 46.8301,-24.65 C43.72,-25.54 40.72,-25.65 38.3,-25.47 C37.2601,-31.4801 36.2601,-37.3601 35.35,-42.8101 C40.79,-48.97 44.42,-54.77 46.69,-59.07 C50.1601,-65.65 51.3101,-70.2301 51.3601,-70.4301 C53.0801,-75.64 53.44,-83.34 52.34,-91.55 C51.3301,-99.1 49.24,-105.81 46.89,-109.06 C45.8601,-110.49 44.8101,-111.22 43.77,-111.22 C42.55,-111.22 40.04,-109.98 37.15,-107.21 C34.85,-105.01 31.5801,-101.12 29.02,-95.1101 C26.02,-88.05 25.8101,-78.5601 26.1601,-71.84 C26.54,-64.57 27.65,-58.8801 27.6601,-58.8301 C27.6801,-58.74 27.94,-57.24 28.39,-54.67 C28.1601,-54.44 27.92,-54.22 27.67,-53.9801 C26.6301,-52.9801 25.44,-51.84 24.0601,-50.4601 C23.2,-49.6 22.25,-48.69 21.25,-47.72 C12.79,-39.57 0,-27.25 0,-8.1 C0,-3.4 0.9,1.01992 2.68008,5.02998 C4.27002,8.62998 6.57002,11.91 9.5,14.78 C17.2301,22.33 27.82,25.5399 34.8801,25.38 C37.8301,25.31 40.4601,25.0699 42.85,24.6199 C44.6801,34.2199 45.82,41.25 45.8601,46.5899 C45.9,53.1 44.25,57.0699 40.35,59.8399 C37.92,61.5699 35.1101,62.5199 32.0101,62.6699 C29.42,62.7899 27.1601,62.3199 25.7301,61.91 L25.72,61.91 C25.72,61.91 25.4301,61.83 25.42,61.63 C25.4101,61.45 25.7601,61.4 25.77,61.4 L25.79,61.4 C27.7101,60.96 31.2801,59.73 33.64,56.43 C35.44,53.91 36.3101,49.2899 34.47,45.35 C33.3601,42.96 30.85,40.01 25.2301,39.56 C22.74,39.36 20.47,39.8699 18.47,41.0699 C16.6601,42.15 15.1601,43.7899 14.1101,45.7899 C11.65,50.4899 12.1101,56.2199 15.24,60.06 C18.2,63.68 22.82,65.9899 28.25,66.5699 C29.1,66.66 29.95,66.7 30.8,66.7 C31.5101,66.7 32.22,66.6699 32.92,66.61 C31.72,66.9399 30.64,67.4899 29.77,68.25 C28.2801,69.5399 27.44,71.38 27.44,73.41 C27.44,75.28 28.0601,76.65 29.55,78.0399 C28.4101,78.5 27.55,78.98 26.79,79.56 C25.25,80.73 24.34,82.46 24.34,84.1899 C24.34,87.45 27.3,89.63 31.72,89.63 C37.1301,89.63 40.9101,86.63 40.9101,82.35 C40.9101,80.1199 39.9101,78.18 38.0801,76.83 C41.0101,75.6199 42.37,73.9399 42.37,71.56 C42.39,70.05 41.69,68.61 40.49,67.6899 C39.2801,66.7399 37.62,66.2399 35.69,66.2399 L35.5101,66.2399 C38.2801,65.7 40.92,64.7 43.2101,63.28 C46.87,60.71 48.99,56.73 49.67,51.1 C50.2301,46.46 49.84,40.55 48.44,32.48 C48.0801,30.3899 47.54,27.36 46.8801,23.6 C52.6301,21.68 56.79,18.11 60.5601,12.26 C63.85,6.51992 64.8,0.419922 63.37,-5.89004 M32.39,87.5399 C30.19,87.5399 28.7301,86.1199 28.7301,84.01 C28.7301,82.11 29.65,80.5 31.32,79.4699 C31.6801,79.66 31.77,79.71 32.1101,79.88 C33.3,80.48 33.3,80.48 33.55,80.63 L33.5601,80.6399 C35.47,81.73 36.25,82.76 36.25,84.18 C36.24,86.0899 34.59,87.5399 32.39,87.5399 M38.3101,71.63 C38.3101,73.2699 37.7301,74.3399 36.1801,75.53 C34.74,74.78 34.35,74.56 33.9801,74.3399 L33.8801,74.28 C32.3301,73.3399 31.85,72.66 31.85,71.4 C31.85,69.6 33.2301,68.3399 35.19,68.3399 C37.17,68.35 38.3101,69.55 38.3101,71.63 M33.15,-83.8101 C34.9301,-89.55 37.67,-92.8 39.6601,-94.5301 C41.4101,-96.05 43.0601,-96.7601 43.9801,-96.7601 C44.12,-96.7601 44.24,-96.74 44.34,-96.7101 C44.8,-96.57 45.3301,-96 45.8,-95.1301 C48.1101,-90.84 47.37,-84.1301 46.0301,-79.69 C44.4,-74.29 41.4801,-68.6801 32.69,-59.0601 C32.52,-60.17 32.3601,-61.22 32.2101,-62.2 C30.95,-70.49 31.27,-77.7601 33.15,-83.8101 M29.15,20.31 C24.5101,19.0899 20.0801,16.5899 16.32,13.0899 C15.0101,11.86 13.14,9.68994 11.67,6.3 C10.3101,3.13994 9.65,-0.290039 9.7,-3.88008 C9.77002,-8.57002 11.0801,-13.39 13.59,-18.1801 C16.5101,-23.7601 21.07,-29.29 27.1301,-34.62 C28.5801,-35.9 29.95,-37.1801 31.24,-38.4601 C32,-34.2 32.8301,-29.5101 33.7101,-24.6301 C29.8601,-23.3601 25.1101,-20.2101 22,-14.5601 C18.47,-7.99004 18.6101,-2.47002 19.34,1.00996 C20.2801,5.46992 22.8101,9.22998 26.27,11.3199 C27.2,11.88 31.3301,14.01 33.17,13.43 C33.54,13.31 33.8101,13.0899 33.95,12.76 C34.4601,11.5899 33.44,10.95 31.8801,9.98994 C31.2801,9.61992 30.6101,9.2 29.8801,8.66992 C26.5601,6.17998 25.1101,1.72998 26.1801,-2.65 C26.7601,-5.05 28.04,-7.21006 29.8801,-8.91006 C31.55,-10.4601 33.59,-11.5601 35.97,-12.2 C38.0101,-0.960059 40.07,10.1899 41.7101,18.55 C41.84,19.2399 41.9801,19.91 42.1101,20.58 C37.7101,21.51 33.37,21.4199 29.15,20.31 M54.9,10.1 C53.7301,13.28 51.27,17.35 46.14,19.41 C46.07,18.9899 45.99,18.56 45.9101,18.13 C44.3601,9.36992 42.4301,-1.61006 40.47,-12.87 C50.82,-13.35 55.09,-5.91006 55.9801,-1.08008 C56.45,1.45 56.45,5.88994 54.9,10.1"/>
<path class="KeySig" transform="matrix(2.3811,0,0,2.3811,548.84,2046.61)" d="M23.3,-10.6 C23.9,-10.7 24.4,-11.4 24.4,-12 L24.4,-17.9 C24.4,-18.7 23.8,-19.3 23,-19.3 L22.8,-19.3 L19.5,-18.6 L19.5,-33.5 L16.7,-33.5 L16.7,-18 L7.8,-16.2 L7.8,-30.3 L5,-30.3 L5,-15.6 L1.1,-14.8 C0.5,-14.7 0,-14 0,-13.4 L0,-13.2 L0,-7.4 L0,-7.6 C0,-6.8 0.6,-6.2 1.4,-6.2 L1.7,-6.2 L5,-6.9 L5,9.6 L1.1,10.4 C0.5,10.5 0,11.2 0,11.8 L0,17.6 C0,18.4 0.6,19 1.4,19 L1.7,19 L5,18.3 L5,33.2 L7.8,33.2 L7.8,17.7 L16.7,15.9 L16.7,30 L19.5,30 L19.5,15.3 L23.3,14.6 C23.9,14.5 24.4,13.8 24.4,13.2 L24.4,7.3 C24.4,6.5 23.8,5.9 23,5.9 L22.8,5.9 L19.5,6.6 L19.5,-9.9 L23.3,-10.6 M7.8,9.1 L7.8,-7.5 L16.7,-9.3 L16.7,7.2 L7.8,9.1 "/>
<path class="KeySig" transform="matrix(2.3811,0,0,2.3811,489.312,2165.67)" d="M23.3,-10.6 C23.9,-10.7 24.4,-11.4 24.4,-12 L24.4,-17.9 C24.4,-18.7 23.8,-19.3 23,-19.3 L22.8,-19.3 L19.5,-18.6 L19.5,-33.5 L16.7,-33.5 L16.7,-18 L7.8,-16.2 L7.8,-30.3 L5,-30.3 L5,-15.6 L1.1,-14.8 C0.5,-14.7 0,-14 0,-13.4 L0,-13.2 L0,-7.4 L0,-7.6 C0,-6.8 0.6,-6.2 1.4,-6.2 L1.7,-6.2 L5,-6.9 L5,9.6 L1.1,10.4 C0.5,10.5 0,11.2 0,11.8 L0,17.6 C0,18.4 0.6,19 1.4,19 L1.7,19 L5,18.3 L5,33.2 L7.8,33.2 L7.8,17.7 L16.7,15.9 L16.7,30 L19.5,30 L19.5,15.3 L23.3,14.6 C23.9,14.5 24.4,13.8 24.4,13.2 L24.4,7.3 C24.4,6.5 23.8,5.9 23,5.9 L22.8,5.9 L19.5,6.6 L19.5,-9.9 L23.3,-10.6 M7.8,9.1 L7.8,-7.5 L16.7,-9.3 L16.7,7.2 L7.8,9.1 "/>
<path class="KeySig" transform="matrix(2.3811,0,0,2.3811,429.785,2076.38)" d="M23.3,-10.6 C23.9,-10.7 24.4,-11.4 24.4,-12 L24.4,-17.9 C24.4,-18.7 23.8,-19.3 23,-19.3 L22.8,-19.3 L19.5,-18.6 L19.5,-33.5 L16.7,-33.5 L16.7,-18 L7.8,-16.2 L7.8,-30.3 L5,-30.3 L5,-15.6 L1.1,-14.8 C0.5,-14.7 0,-14 0,-13.4 L0,-13.2 L0,-7.4 L0,-7.6 C0,-6.8 0.6,-6.2 1.4,-6.2 L1.7,-6.2 L5,-6.9 L5,9.6 L1.1,10.4 C0.5,10.5 0,11.2 0,11.8 L0,17.6 C0,18.4 0.6,19 1.4,19 L1.7,19 L5,18.3 L5,33.2 L7.8,33.2 L7.8,17.7 L16.7,15.9 L16.7,30 L19.5,30 L19.5,15.3 L23.3,14.6 C23.9,14.5 24.4,13.8 24.4,13.2 L24.4,7.3 C24.4,6.5 23.8,5.9 23,5.9 L22.8,5.9 L19.5,6.6 L19.5,-9.9 L23.3,-10.6 M7.8,9.1 L7.8,-7.5 L16.7,-9.3 L16.7,7.2 L7.8,9.1 "/>
<path class="KeySig" transform="matrix(2.3811,0,0,2.3811,548.84,1362.05)" d="M23.3,-10.6 C23.9,-10.7 24.4,-11.4 24.4,-12 L24.4,-17.9 C24.4,-18.7 23.8,-19.3 23,-19.3 L22.8,-19.3 L19.5,-18.6 L19.5,-33.5 L16.7,-33.5 L16.7,-18 L7.8,-16.2 L7.8,-30.3 L5,-30.3 L5,-15.6 L1.1,-14.8 C0.5,-14.7 0,-14 0,-13.4 L0,-13.2 L0,-7.4 L0,-7.6 C0,-6.8 0.6,-6.2 1.4,-6.2 L1.7,-6.2 L5,-6.9 L5,9.6 L1.1,10.4 C0.5,10.5 0,11.2 0,11.8 L0,17.6 C0,18.4 0.6,19 1.4,19 L1.7,19 L5,18.3 L5,33.2 L7.8,33.2 L7.8,17.7 L16.7,15.9 L16.7,30 L19.5,30 L19.5,15.3 L23.3,14.6 C23.9,14.5 24.4,13.8 24.4,13.2 L24.4,7.3 C24.4,6.5 23.8,5.9 23,5.9 L22.8,5.9 L19.5,6.6 L19.5,-9.9 L23.3,-10.6 M7.8,9.1 L7.8,-7.5 L16.7,-9.3 L16.7,7.2 L7.8,9.1 "/>
<path class="KeySig" transform="matrix(2.3811,0,0,2.3811,489.312,1481.1)" d="M23.3,-10.6 C23.9,-10.7 24.4,-11.4 24.4,-12 L24.4,-17.9 C24.4,-18.7 23.8,-19.3 23,-19.3 L22.8,-19.3 L19.5,-18.6 L19.5,-33.5 L16.7,-33.5 L16.7,-18 L7.8,-16.2 L7.8,-30.3 L5,-30.3 L5,-15.6 L1.1,-14.8 C0.5,-14.7 0,-14 0,-13.4 L0,-13.2 L0,-7.4 L0,-7.6 C0,-6.8 0.6,-6.2 1.4,-6.2 L1.7,-6.2 L5,-6.9 L5,9.6 L1.1,10.4 C0.5,10.5 0,11.2 0,11.8 L0,17.6 C0,18.4 0.6,19 1.4,19 L1.7,19 L5,18.3 L5,33.2 L7.8,33.2 L7.8,17.7 L16.7,15.9 L16.7,30 L19.5,30 L19.5,15.3 L23.3,14.6 C23.9,14.5 24.4,13.8 24.4,13.2 L24.4,7.3 C24.4,6.5 23.8,5.9 23,5.9 L22.8,5.9 L19.5,6.6 L19.5,-9.9 L23.3,-10.6 M7.8,9.1 L7.8,-7.5 L16.7,-9.3 L16.7,7.2 L7.8,9.1 "/>
<path class="KeySig" transform="matrix(2.3811,0,0,2.3811,429.785,1391.81)" d="M23.3,-10.6 C23.9,-10.7 24.4,-11.4 24.4,-12 L24.4,-17.9 C24.4,-18.7 23.8,-19.3 23,-19.3 L22.8,-19.3 L19.5,-18.6 L19.5,-33.5 L16.7,-33.5 L16.7,-18 L7.8,-16.2 L7.8,-30.3 L5,-30.3 L5,-15.6 L1.1,-14.8 C0.5,-14.7 0,-14 0,-13.4 L0,-13.2 L0,-7.4 L0,-7.6 C0,-6.8 0.6,-6.2 1.4,-6.2 L1.7,-6.2 L5,-6.9 L5,9.6 L1.1,10.4 C0.5,10.5 0,11.2 0,11.8 L0,17.6 C0,18.4 0.6,19 1.4,19 L1.7,19 L5,18.3 L5,33.2 L7.8,33.2 L7.8,17.7 L16.7,15.9 L16.7,30 L19.5,30 L19.5,15.3 L23.3,14.6 C23.9,14.5 24.4,13.8 24.4,13.2 L24.4,7.3 C24.4,6.5 23.8,5.9 23,5.9 L22.8,5.9 L19.5,6.6 L19.5,-9.9 L23.3,-10.6 M7.8,9.1 L7.8,-7.5 L16.7,-9.3 L16.7,7.2 L7.8,9.1 "/>
<path class="FiguredBass" d="M1200.84,2390.15 C1196.26,2390.15 1193.21,2391.99 1191.7,2395.67 C1190.18,2399.35 1189.42,2404.56 1189.42,2411.3 L1189.42,2422.25 C1192.64,2420.95 1195.42,2420.27 1197.77,2420.21 C1205.81,2420.21 1212.14,2421.98 1216.75,2425.54 C1221.35,2429.1 1223.66,2434.38 1223.66,2441.4 C1223.66,2448.42 1221.32,2453.73 1216.65,2457.31 C1211.98,2460.9 1205.69,2462.7 1197.77,2462.7 C1189.67,2462.7 1183.33,2458.94 1178.76,2451.42 C1174.18,2443.91 1171.89,2434.99 1171.89,2424.66 C1171.89,2414.39 1174.55,2405.49 1179.87,2397.94 C1185.19,2390.39 1192.18,2386.62 1200.84,2386.62 C1206.53,2386.62 1211.44,2388.06 1215.59,2390.94 C1219.73,2393.81 1221.8,2397.6 1221.8,2402.3 C1221.8,2405.02 1220.81,2407.37 1218.83,2409.35 C1216.85,2411.33 1214.49,2412.32 1211.74,2412.32 C1208.98,2412.32 1206.62,2411.33 1204.64,2409.35 C1202.66,2407.37 1201.67,2405.02 1201.67,2402.3 C1201.67,2399.64 1202.66,2397.29 1204.64,2395.25 C1205.32,2394.45 1206.28,2393.76 1207.52,2393.21 C1207.21,2392.4 1206.59,2391.79 1205.66,2391.35 C1204.3,2390.55 1202.69,2390.15 1200.84,2390.15 M1205.38,2428.09 C1204.27,2425.18 1201.83,2423.73 1198.05,2423.73 C1194.28,2423.73 1191.95,2425.18 1191.05,2428.09 C1190.15,2431 1189.7,2435.42 1189.7,2441.36 C1189.7,2448.35 1190.15,2453.05 1191.05,2455.46 C1191.95,2457.87 1194.28,2459.08 1198.05,2459.08 C1201.83,2459.08 1204.27,2457.62 1205.38,2454.72 C1206.49,2451.81 1207.05,2447.37 1207.05,2441.4 C1207.05,2435.44 1206.49,2431 1205.38,2428.09"/>
<path class="FiguredBass" d="M1601.24,2444.42 C1600.56,2445.16 1599.66,2445.53 1598.55,2445.53 C1597.44,2445.53 1596.53,2445.15 1595.81,2444.37 C1595.1,2443.6 1594.75,2442.72 1594.75,2441.73 L1594.75,2428.46 L1581.48,2428.46 C1580.37,2428.46 1579.46,2428.08 1578.74,2427.3 C1578.03,2426.53 1577.68,2425.65 1577.68,2424.66 C1577.68,2423.67 1578.03,2422.79 1578.74,2422.01 C1579.46,2421.24 1580.37,2420.85 1581.48,2420.85 L1594.75,2420.85 L1594.75,2407.59 C1594.75,2406.6 1595.1,2405.72 1595.81,2404.94 C1596.53,2404.17 1597.44,2403.78 1598.55,2403.78 C1599.66,2403.78 1600.58,2404.17 1601.29,2404.94 C1602,2405.72 1602.36,2406.6 1602.36,2407.59 L1602.36,2420.85 L1615.62,2420.85 C1616.74,2420.85 1617.65,2421.24 1618.36,2422.01 C1619.07,2422.79 1619.43,2423.67 1619.43,2424.66 C1619.43,2425.65 1619.07,2426.53 1618.36,2427.3 C1617.65,2428.08 1616.74,2428.46 1615.62,2428.46 L1602.36,2428.46 L1602.36,2441.73 C1602.36,2442.72 1601.98,2443.62 1601.24,2444.42 M1654.67,2390.15 C1650.09,2390.15 1647.04,2391.99 1645.53,2395.67 C1644.01,2399.35 1643.25,2404.56 1643.25,2411.3 L1643.25,2422.25 C1646.47,2420.95 1649.25,2420.27 1651.6,2420.21 C1659.64,2420.21 1665.97,2421.98 1670.58,2425.54 C1675.18,2429.1 1677.49,2434.38 1677.49,2441.4 C1677.49,2448.42 1675.15,2453.73 1670.48,2457.31 C1665.81,2460.9 1659.52,2462.7 1651.6,2462.7 C1643.5,2462.7 1637.16,2458.94 1632.59,2451.42 C1628.01,2443.91 1625.72,2434.99 1625.72,2424.66 C1625.72,2414.39 1628.38,2405.49 1633.7,2397.94 C1639.02,2390.39 1646.01,2386.62 1654.67,2386.62 C1660.36,2386.62 1665.27,2388.06 1669.42,2390.94 C1673.56,2393.81 1675.63,2397.6 1675.63,2402.3 C1675.63,2405.02 1674.64,2407.37 1672.66,2409.35 C1670.68,2411.33 1668.32,2412.32 1665.57,2412.32 C1662.81,2412.32 1660.45,2411.33 1658.47,2409.35 C1656.49,2407.37 1655.5,2405.02 1655.5,2402.3 C1655.5,2399.64 1656.49,2397.29 1658.47,2395.25 C1659.15,2394.45 1660.11,2393.76 1661.35,2393.21 C1661.04,2392.4 1660.42,2391.79 1659.49,2391.35 C1658.13,2390.55 1656.52,2390.15 1654.67,2390.15 M1659.21,2428.09 C1658.1,2425.18 1655.66,2423.73 1651.88,2423.73 C1648.11,2423.73 1645.78,2425.18 1644.88,2428.09 C1643.98,2431 1643.53,2435.42 1643.53,2441.36 C1643.53,2448.35 1643.98,2453.05 1644.88,2455.46 C1645.78,2457.87 1648.11,2459.08 1651.88,2459.08 C1655.66,2459.08 1658.1,2457.62 1659.21,2454.72 C1660.33,2451.81 1660.88,2447.37 1660.88,2441.4 C1660.88,2435.44 1660.33,2431 1659.21,2428.09"/>
<path class="FiguredBass" d="M2515.74,2444.42 C2515.06,2445.16 2514.16,2445.53 2513.05,2445.53 C2511.93,2445.53 2511.02,2445.15 2510.31,2444.37 C2509.6,2443.6 2509.24,2442.72 2509.24,2441.73 L2509.24,2428.46 L2495.98,2428.46 C2494.86,2428.46 2493.95,2428.08 2493.24,2427.3 C2492.53,2426.53 2492.17,2425.65 2492.17,2424.66 C2492.17,2423.67 2492.53,2422.79 2493.24,2422.01 C2493.95,2421.24 2494.86,2420.85 2495.98,2420.85 L2509.24,2420.85 L2509.24,2407.59 C2509.24,2406.6 2509.6,2405.72 2510.31,2404.94 C2511.02,2404.17 2511.93,2403.78 2513.05,2403.78 C2514.16,2403.78 2515.07,2404.17 2515.78,2404.94 C2516.49,2405.72 2516.85,2406.6 2516.85,2407.59 L2516.85,2420.85 L2530.12,2420.85 C2531.23,2420.85 2532.14,2421.24 2532.85,2422.01 C2533.56,2422.79 2533.92,2423.67 2533.92,2424.66 C2533.92,2425.65 2533.56,2426.53 2532.85,2427.3 C2532.14,2428.08 2531.23,2428.46 2530.12,2428.46 L2516.85,2428.46 L2516.85,2441.73 C2516.85,2442.72 2516.48,2443.62 2515.74,2444.42 M2568.51,2388.57 C2570.86,2388.57 2573.34,2388.23 2575.93,2387.55 L2580.11,2386.44 C2580.91,2386.44 2581.55,2386.74 2582.01,2387.36 C2582.47,2387.98 2582.43,2388.54 2581.87,2389.03 L2538.73,2439.22 L2564.06,2439.22 L2564.06,2419.37 C2564.06,2417.95 2564.44,2416.85 2565.22,2416.08 C2565.99,2415.3 2566.98,2414.69 2568.19,2414.22 C2569.39,2413.76 2570.97,2412.38 2572.92,2410.09 C2574.87,2407.8 2576.74,2404.71 2578.53,2400.82 C2578.84,2400.2 2579.3,2399.89 2579.92,2399.89 C2581.22,2399.89 2581.87,2400.6 2581.87,2402.02 L2581.87,2439.22 L2592.82,2439.22 C2594.36,2439.22 2595.14,2439.94 2595.14,2441.36 C2595.14,2442.9 2594.36,2443.68 2592.82,2443.68 L2581.87,2443.68 L2581.87,2444.88 C2581.87,2448.72 2582.89,2452.06 2584.93,2454.9 C2586.97,2457.75 2589.6,2459.17 2592.82,2459.17 C2594.05,2459.17 2594.67,2459.73 2594.67,2460.84 C2594.67,2462.08 2594.05,2462.7 2592.82,2462.7 C2590.59,2462.7 2587.28,2462.37 2582.89,2461.72 C2578.5,2461.07 2575.18,2460.75 2572.92,2460.75 C2570.66,2460.75 2567.34,2461.07 2562.94,2461.72 C2558.55,2462.37 2555.24,2462.7 2553.02,2462.7 C2551.78,2462.7 2551.16,2462.08 2551.16,2460.84 C2551.16,2459.73 2551.78,2459.17 2553.02,2459.17 C2556.23,2459.17 2558.88,2457.75 2560.95,2454.9 C2563.02,2452.06 2564.06,2448.72 2564.06,2444.88 L2564.06,2443.68 L2538.73,2443.68 C2537.12,2443.68 2535.93,2443.29 2535.16,2442.52 C2534.39,2441.74 2534,2440.96 2534,2440.15 C2534,2439.84 2534.73,2438.78 2536.18,2436.95 C2537.63,2435.13 2539.41,2432.7 2541.51,2429.67 C2543.62,2426.64 2545.7,2423.19 2547.78,2419.32 C2549.85,2415.46 2551.61,2410.82 2553.06,2405.41 C2554.52,2400 2555.24,2394.54 2555.24,2389.03 C2555.24,2387.43 2555.92,2386.62 2557.29,2386.62 C2557.47,2386.62 2558.12,2386.78 2559.23,2387.09 C2560.35,2387.39 2561.77,2387.72 2563.5,2388.06 C2565.23,2388.4 2566.9,2388.57 2568.51,2388.57"/>
<path class="FiguredBass" d="M2981.33,2390.15 C2976.75,2390.15 2973.71,2391.99 2972.19,2395.67 C2970.68,2399.35 2969.92,2404.56 2969.92,2411.3 L2969.92,2422.25 C2973.14,2420.95 2975.92,2420.27 2978.27,2420.21 C2986.31,2420.21 2992.63,2421.98 2997.24,2425.54 C3001.85,2429.1 3004.15,2434.38 3004.15,2441.4 C3004.15,2448.42 3001.82,2453.73 2997.15,2457.31 C2992.48,2460.9 2986.19,2462.7 2978.27,2462.7 C2970.17,2462.7 2963.83,2458.94 2959.25,2451.42 C2954.67,2443.91 2952.39,2434.99 2952.39,2424.66 C2952.39,2414.39 2955.04,2405.49 2960.36,2397.94 C2965.68,2390.39 2972.67,2386.62 2981.33,2386.62 C2987.02,2386.62 2991.94,2388.06 2996.08,2390.94 C3000.23,2393.81 3002.3,2397.6 3002.3,2402.3 C3002.3,2405.02 3001.31,2407.37 2999.33,2409.35 C2997.35,2411.33 2994.98,2412.32 2992.23,2412.32 C2989.48,2412.32 2987.11,2411.33 2985.13,2409.35 C2983.16,2407.37 2982.17,2405.02 2982.17,2402.3 C2982.17,2399.64 2983.16,2397.29 2985.13,2395.25 C2985.81,2394.45 2986.77,2393.76 2988.01,2393.21 C2987.7,2392.4 2987.08,2391.79 2986.16,2391.35 C2984.79,2390.55 2983.19,2390.15 2981.33,2390.15 M2985.88,2428.09 C2984.76,2425.18 2982.32,2423.73 2978.55,2423.73 C2974.77,2423.73 2972.44,2425.18 2971.54,2428.09 C2970.65,2431 2970.2,2435.42 2970.2,2441.36 C2970.2,2448.35 2970.65,2453.05 2971.54,2455.46 C2972.44,2457.87 2974.77,2459.08 2978.55,2459.08 C2982.32,2459.08 2984.76,2457.62 2985.88,2454.72 C2986.99,2451.81 2987.55,2447.37 2987.55,2441.4 C2987.55,2435.44 2986.99,2431 2985.88,2428.09"/>
<path class="FiguredBass" d="M3345.8,2444.42 C3345.12,2445.16 3344.22,2445.53 3343.11,2445.53 C3341.99,2445.53 3341.08,2445.15 3340.37,2444.37 C3339.66,2443.6 3339.3,2442.72 3339.3,2441.73 L3339.3,2428.46 L3326.04,2428.46 C3324.92,2428.46 3324.01,2428.08 3323.3,2427.3 C3322.59,2426.53 3322.23,2425.65 3322.23,2424.66 C3322.23,2423.67 3322.59,2422.79 3323.3,2422.01 C3324.01,2421.24 3324.92,2420.85 3326.04,2420.85 L3339.3,2420.85 L3339.3,2407.59 C3339.3,2406.6 3339.66,2405.72 3340.37,2404.94 C3341.08,2404.17 3341.99,2403.78 3343.11,2403.78 C3344.22,2403.78 3345.13,2404.17 3345.84,2404.94 C3346.55,2405.72 3346.91,2406.6 3346.91,2407.59 L3346.91,2420.85 L3360.18,2420.85 C3361.29,2420.85 3362.2,2421.24 3362.91,2422.01 C3363.63,2422.79 3363.98,2423.67 3363.98,2424.66 C3363.98,2425.65 3363.63,2426.53 3362.91,2427.3 C3362.2,2428.08 3361.29,2428.46 3360.18,2428.46 L3346.91,2428.46 L3346.91,2441.73 C3346.91,2442.72 3346.54,2443.62 3345.8,2444.42 M3399.22,2390.15 C3394.64,2390.15 3391.6,2391.99 3390.08,2395.67 C3388.57,2399.35 3387.81,2404.56 3387.81,2411.3 L3387.81,2422.25 C3391.03,2420.95 3393.81,2420.27 3396.16,2420.21 C3404.2,2420.21 3410.52,2421.98 3415.13,2425.54 C3419.74,2429.1 3422.04,2434.38 3422.04,2441.4 C3422.04,2448.42 3419.71,2453.73 3415.04,2457.31 C3410.37,2460.9 3404.08,2462.7 3396.16,2462.7 C3388.06,2462.7 3381.72,2458.94 3377.14,2451.42 C3372.56,2443.91 3370.28,2434.99 3370.28,2424.66 C3370.28,2414.39 3372.94,2405.49 3378.25,2397.94 C3383.57,2390.39 3390.56,2386.62 3399.22,2386.62 C3404.91,2386.62 3409.83,2388.06 3413.97,2390.94 C3418.12,2393.81 3420.19,2397.6 3420.19,2402.3 C3420.19,2405.02 3419.2,2407.37 3417.22,2409.35 C3415.24,2411.33 3412.87,2412.32 3410.12,2412.32 C3407.37,2412.32 3405,2411.33 3403.02,2409.35 C3401.05,2407.37 3400.06,2405.02 3400.06,2402.3 C3400.06,2399.64 3401.05,2397.29 3403.02,2395.25 C3403.71,2394.45 3404.66,2393.76 3405.9,2393.21 C3405.59,2392.4 3404.97,2391.79 3404.05,2391.35 C3402.68,2390.55 3401.08,2390.15 3399.22,2390.15 M3403.77,2428.09 C3402.65,2425.18 3400.21,2423.73 3396.44,2423.73 C3392.67,2423.73 3390.33,2425.18 3389.43,2428.09 C3388.54,2431 3388.09,2435.42 3388.09,2441.36 C3388.09,2448.35 3388.54,2453.05 3389.43,2455.46 C3390.33,2457.87 3392.67,2459.08 3396.44,2459.08 C3400.21,2459.08 3402.65,2457.62 3403.77,2454.72 C3404.88,2451.81 3405.44,2447.37 3405.44,2441.4 C3405.44,2435.44 3404.88,2431 3403.77,2428.09"/>
<path class="Bracket" transform="matrix(8.6315,0,0,8.6315,76.1283,2254.96)" d="M0.92002,-50 C2.69004,-51.88 6.2,-55.8 6.2,-63 C6.2,-72.1 2.25996,-81.32 2.25996,-86.97 C2.25996,-93.06 5.84004,-98.84 5.95,-99 C6.05996,-99.16 6.05,-99.39 5.94004,-99.46 C5.82998,-99.53 5.62002,-99.47 5.49004,-99.32 C5.35996,-99.17 0,-93.75 0,-85.6 C0,-76.75 3.5,-70.58 3.5,-59.07 C3.5,-56.89 2.55996,-53.36 0.1,-50.33 C-0.0799805,-50.17 -0.1,-49.89 0.0599609,-49.7 L0.0700195,-49.69 L0.1,-49.66 C2.55996,-46.63 3.5,-43.1 3.5,-40.92 C3.5,-29.4 0,-23.24 0,-14.39 C0,-6.25 5.35996,-0.8 5.49004,-0.659961 C5.62002,-0.52002 5.8,-0.42998 5.94004,-0.52002 C6.07998,-0.609961 6.07998,-0.77998 5.95,-0.97998 C5.82002,-1.17998 2.25996,-6.92002 2.25996,-13.01 C2.25996,-18.66 6.2,-27.9 6.2,-37 C6.2,-44.3 2.69004,-48.12 0.92002,-50"/>
</svg>
