<?xml version="1.0" encoding="UTF-8" standalone="no"?>
<svg width="4209.44px" height="2976.38px" viewBox="0 0 4209.44 2976.38"
 xmlns="http://www.w3.org/2000/svg" xmlns:xlink="http://www.w3.org/1999/xlink" version="1.2" baseProfile="tiny">
<title>LaMineur (32)</title>
<desc>Generated by MuseScore 3.6.2</desc>
<polyline class="StaffLines" fill="none" stroke="#000000" stroke-width="6.55" stroke-linejoin="bevel" points="153.819,558.425 4138.58,558.425"/>
<polyline class="StaffLines" fill="none" stroke="#000000" stroke-width="6.55" stroke-linejoin="bevel" points="153.819,647.717 4138.58,647.717"/>
<polyline class="StaffLines" fill="none" stroke="#000000" stroke-width="6.55" stroke-linejoin="bevel" points="153.819,737.008 4138.58,737.008"/>
<polyline class="StaffLines" fill="none" stroke="#000000" stroke-width="6.55" stroke-linejoin="bevel" points="153.819,826.299 4138.58,826.299"/>
<polyline class="StaffLines" fill="none" stroke="#000000" stroke-width="6.55" stroke-linejoin="bevel" points="153.819,915.591 4138.58,915.591"/>
<polyline class="StaffLines" fill="none" stroke="#000000" stroke-width="6.55" stroke-linejoin="bevel" points="153.819,1004.88 4138.58,1004.88"/>
<polyline class="StaffLines" fill="none" stroke="#000000" stroke-width="6.55" stroke-linejoin="bevel" points="153.819,1391.81 4138.58,1391.81"/>
<polyline class="StaffLines" fill="none" stroke="#000000" stroke-width="6.55" stroke-linejoin="bevel" points="153.819,1451.34 4138.58,1451.34"/>
<polyline class="StaffLines" fill="none" stroke="#000000" stroke-width="6.55" stroke-linejoin="bevel" points="153.819,1510.87 4138.58,1510.87"/>
<polyline class="StaffLines" fill="none" stroke="#000000" stroke-width="6.55" stroke-linejoin="bevel" points="153.819,1570.39 4138.58,1570.39"/>
<polyline class="StaffLines" fill="none" stroke="#000000" stroke-width="6.55" stroke-linejoin="bevel" points="153.819,1629.92 4138.58,1629.92"/>
<polyline class="StaffLines" fill="none" stroke="#000000" stroke-width="6.55" stroke-linejoin="bevel" points="153.819,2016.85 4138.58,2016.85"/>
<polyline class="StaffLines" fill="none" stroke="#000000" stroke-width="6.55" stroke-linejoin="bevel" points="153.819,2076.38 4138.58,2076.38"/>
<polyline class="StaffLines" fill="none" stroke="#000000" stroke-width="6.55" stroke-linejoin="bevel" points="153.819,2135.91 4138.58,2135.91"/>
<polyline class="StaffLines" fill="none" stroke="#000000" stroke-width="6.55" stroke-linejoin="bevel" points="153.819,2195.43 4138.58,2195.43"/>
<polyline class="StaffLines" fill="none" stroke="#000000" stroke-width="6.55" stroke-linejoin="bevel" points="153.819,2254.96 4138.58,2254.96"/>
<polyline class="BarLine" fill="none" stroke="#000000" stroke-width="10.71" stroke-linejoin="bevel" points="159.176,2013.58 159.176,2258.23"/>
<polyline class="BarLine" fill="none" stroke="#000000" stroke-width="10.71" stroke-linejoin="bevel" points="824.436,2013.58 824.436,2258.23"/>
<polyline class="BarLine" fill="none" stroke="#000000" stroke-width="10.71" stroke-linejoin="bevel" points="1343.15,2013.58 1343.15,2258.23"/>
<polyline class="BarLine" fill="none" stroke="#000000" stroke-width="10.71" stroke-linejoin="bevel" points="1874.34,2013.58 1874.34,2258.23"/>
<polyline class="BarLine" fill="none" stroke="#000000" stroke-width="10.71" stroke-linejoin="bevel" points="2350.42,2013.58 2350.42,2258.23"/>
<polyline class="BarLine" fill="none" stroke="#000000" stroke-width="10.71" stroke-linejoin="bevel" points="2791.63,2013.58 2791.63,2258.23"/>
<polyline class="BarLine" fill="none" stroke="#000000" stroke-width="10.71" stroke-linejoin="bevel" points="3245.51,2013.58 3245.51,2258.23"/>
<polyline class="BarLine" fill="none" stroke="#000000" stroke-width="10.71" stroke-linejoin="bevel" points="3686.72,2013.58 3686.72,2258.23"/>
<polyline class="BarLine" fill="none" stroke="#000000" stroke-width="10.71" stroke-linejoin="bevel" points="4080.54,2013.58 4080.54,2258.23"/>
<polyline class="BarLine" fill="none" stroke="#000000" stroke-width="32.74" stroke-linejoin="bevel" points="4122.21,2013.58 4122.21,2258.23"/>
<polyline class="BarLine" fill="none" stroke="#000000" stroke-width="10.71" stroke-linejoin="bevel" points="159.176,1388.54 159.176,2016.85"/>
<polyline class="BarLine" fill="none" stroke="#000000" stroke-width="10.71" stroke-linejoin="bevel" points="824.436,1388.54 824.436,1633.2"/>
<polyline class="BarLine" fill="none" stroke="#000000" stroke-width="10.71" stroke-linejoin="bevel" points="1343.15,1388.54 1343.15,1633.2"/>
<polyline class="BarLine" fill="none" stroke="#000000" stroke-width="10.71" stroke-linejoin="bevel" points="1874.34,1388.54 1874.34,1633.2"/>
<polyline class="BarLine" fill="none" stroke="#000000" stroke-width="10.71" stroke-linejoin="bevel" points="2350.42,1388.54 2350.42,1633.2"/>
<polyline class="BarLine" fill="none" stroke="#000000" stroke-width="10.71" stroke-linejoin="bevel" points="2791.63,1388.54 2791.63,1633.2"/>
<polyline class="BarLine" fill="none" stroke="#000000" stroke-width="10.71" stroke-linejoin="bevel" points="3245.51,1388.54 3245.51,1633.2"/>
<polyline class="BarLine" fill="none" stroke="#000000" stroke-width="10.71" stroke-linejoin="bevel" points="3686.72,1388.54 3686.72,1633.2"/>
<polyline class="BarLine" fill="none" stroke="#000000" stroke-width="10.71" stroke-linejoin="bevel" points="4080.54,1388.54 4080.54,1633.2"/>
<polyline class="BarLine" fill="none" stroke="#000000" stroke-width="32.74" stroke-linejoin="bevel" points="4122.21,1388.54 4122.21,1633.2"/>
<polyline class="BarLine" fill="none" stroke="#000000" stroke-width="10.71" stroke-linejoin="bevel" points="159.176,555.151 159.176,1391.81"/>
<polyline class="BarLine" fill="none" stroke="#000000" stroke-width="10.71" stroke-linejoin="bevel" points="824.436,555.151 824.436,1008.16"/>
<polyline class="BarLine" fill="none" stroke="#000000" stroke-width="10.71" stroke-linejoin="bevel" points="1343.15,555.151 1343.15,1008.16"/>
<polyline class="BarLine" fill="none" stroke="#000000" stroke-width="10.71" stroke-linejoin="bevel" points="1874.34,555.151 1874.34,1008.16"/>
<polyline class="BarLine" fill="none" stroke="#000000" stroke-width="10.71" stroke-linejoin="bevel" points="2350.42,555.151 2350.42,1008.16"/>
<polyline class="BarLine" fill="none" stroke="#000000" stroke-width="10.71" stroke-linejoin="bevel" points="2791.63,555.151 2791.63,1008.16"/>
<polyline class="BarLine" fill="none" stroke="#000000" stroke-width="10.71" stroke-linejoin="bevel" points="3245.51,555.151 3245.51,1008.16"/>
<polyline class="BarLine" fill="none" stroke="#000000" stroke-width="10.71" stroke-linejoin="bevel" points="3686.72,555.151 3686.72,1008.16"/>
<polyline class="BarLine" fill="none" stroke="#000000" stroke-width="10.71" stroke-linejoin="bevel" points="4080.54,555.151 4080.54,1008.16"/>
<polyline class="BarLine" fill="none" stroke="#000000" stroke-width="32.74" stroke-linejoin="bevel" points="4122.21,555.151 4122.21,1008.16"/>
<path class="Accidental" transform="matrix(2.3811,0,0,2.3811,2854.49,2076.38)" d="M23.3,-10.6 C23.9,-10.7 24.4,-11.4 24.4,-12 L24.4,-17.9 C24.4,-18.7 23.8,-19.3 23,-19.3 L22.8,-19.3 L19.5,-18.6 L19.5,-33.5 L16.7,-33.5 L16.7,-18 L7.8,-16.2 L7.8,-30.3 L5,-30.3 L5,-15.6 L1.1,-14.8 C0.5,-14.7 0,-14 0,-13.4 L0,-13.2 L0,-7.4 L0,-7.6 C0,-6.8 0.6,-6.2 1.4,-6.2 L1.7,-6.2 L5,-6.9 L5,9.6 L1.1,10.4 C0.5,10.5 0,11.2 0,11.8 L0,17.6 C0,18.4 0.6,19 1.4,19 L1.7,19 L5,18.3 L5,33.2 L7.8,33.2 L7.8,17.7 L16.7,15.9 L16.7,30 L19.5,30 L19.5,15.3 L23.3,14.6 C23.9,14.5 24.4,13.8 24.4,13.2 L24.4,7.3 C24.4,6.5 23.8,5.9 23,5.9 L22.8,5.9 L19.5,6.6 L19.5,-9.9 L23.3,-10.6 M7.8,9.1 L7.8,-7.5 L16.7,-9.3 L16.7,7.2 L7.8,9.1 "/>
<path class="Accidental" transform="matrix(2.3811,0,0,2.3811,3308.38,2046.61)" d="M23.3,-10.6 C23.9,-10.7 24.4,-11.4 24.4,-12 L24.4,-17.9 C24.4,-18.7 23.8,-19.3 23,-19.3 L22.8,-19.3 L19.5,-18.6 L19.5,-33.5 L16.7,-33.5 L16.7,-18 L7.8,-16.2 L7.8,-30.3 L5,-30.3 L5,-15.6 L1.1,-14.8 C0.5,-14.7 0,-14 0,-13.4 L0,-13.2 L0,-7.4 L0,-7.6 C0,-6.8 0.6,-6.2 1.4,-6.2 L1.7,-6.2 L5,-6.9 L5,9.6 L1.1,10.4 C0.5,10.5 0,11.2 0,11.8 L0,17.6 C0,18.4 0.6,19 1.4,19 L1.7,19 L5,18.3 L5,33.2 L7.8,33.2 L7.8,17.7 L16.7,15.9 L16.7,30 L19.5,30 L19.5,15.3 L23.3,14.6 C23.9,14.5 24.4,13.8 24.4,13.2 L24.4,7.3 C24.4,6.5 23.8,5.9 23,5.9 L22.8,5.9 L19.5,6.6 L19.5,-9.9 L23.3,-10.6 M7.8,9.1 L7.8,-7.5 L16.7,-9.3 L16.7,7.2 L7.8,9.1 "/>
<path class="Accidental" transform="matrix(2.3811,0,0,2.3811,887.303,1570.39)" d="M23.3,-10.6 C23.9,-10.7 24.4,-11.4 24.4,-12 L24.4,-17.9 C24.4,-18.7 23.8,-19.3 23,-19.3 L22.8,-19.3 L19.5,-18.6 L19.5,-33.5 L16.7,-33.5 L16.7,-18 L7.8,-16.2 L7.8,-30.3 L5,-30.3 L5,-15.6 L1.1,-14.8 C0.5,-14.7 0,-14 0,-13.4 L0,-13.2 L0,-7.4 L0,-7.6 C0,-6.8 0.6,-6.2 1.4,-6.2 L1.7,-6.2 L5,-6.9 L5,9.6 L1.1,10.4 C0.5,10.5 0,11.2 0,11.8 L0,17.6 C0,18.4 0.6,19 1.4,19 L1.7,19 L5,18.3 L5,33.2 L7.8,33.2 L7.8,17.7 L16.7,15.9 L16.7,30 L19.5,30 L19.5,15.3 L23.3,14.6 C23.9,14.5 24.4,13.8 24.4,13.2 L24.4,7.3 C24.4,6.5 23.8,5.9 23,5.9 L22.8,5.9 L19.5,6.6 L19.5,-9.9 L23.3,-10.6 M7.8,9.1 L7.8,-7.5 L16.7,-9.3 L16.7,7.2 L7.8,9.1 "/>
<path class="Accidental" transform="matrix(2.3811,0,0,2.3811,2413.29,1570.39)" d="M23.3,-10.6 C23.9,-10.7 24.4,-11.4 24.4,-12 L24.4,-17.9 C24.4,-18.7 23.8,-19.3 23,-19.3 L22.8,-19.3 L19.5,-18.6 L19.5,-33.5 L16.7,-33.5 L16.7,-18 L7.8,-16.2 L7.8,-30.3 L5,-30.3 L5,-15.6 L1.1,-14.8 C0.5,-14.7 0,-14 0,-13.4 L0,-13.2 L0,-7.4 L0,-7.6 C0,-6.8 0.6,-6.2 1.4,-6.2 L1.7,-6.2 L5,-6.9 L5,9.6 L1.1,10.4 C0.5,10.5 0,11.2 0,11.8 L0,17.6 C0,18.4 0.6,19 1.4,19 L1.7,19 L5,18.3 L5,33.2 L7.8,33.2 L7.8,17.7 L16.7,15.9 L16.7,30 L19.5,30 L19.5,15.3 L23.3,14.6 C23.9,14.5 24.4,13.8 24.4,13.2 L24.4,7.3 C24.4,6.5 23.8,5.9 23,5.9 L22.8,5.9 L19.5,6.6 L19.5,-9.9 L23.3,-10.6 M7.8,9.1 L7.8,-7.5 L16.7,-9.3 L16.7,7.2 L7.8,9.1 "/>
<polyline class="LedgerLine" fill="none" stroke="#000000" stroke-width="9.52" stroke-linejoin="bevel" points="1425.89,1957.32 1544.93,1957.32"/>
<polyline class="Stem" fill="none" stroke="#000000" stroke-width="6.55" stroke-linejoin="bevel" points="1450,1965.32 1450,2165.67"/>
<polyline class="Stem" fill="none" stroke="#000000" stroke-width="6.55" stroke-linejoin="bevel" points="1731.95,2158.05 1731.95,1972.2"/>
<polyline class="Stem" fill="none" stroke="#000000" stroke-width="6.55" stroke-linejoin="bevel" points="1491.37,364.961 1491.37,275.669"/>
<polyline class="Stem" fill="none" stroke="#000000" stroke-width="6.55" stroke-linejoin="bevel" points="1702.5,364.961 1702.5,275.669"/>
<path class="Note" transform="matrix(2.3811,0,0,2.3811,519.076,2016.85)" d="M18.7,-13.6 C4.9,-13.6 0,-6.6 0,-0.1 C0,6.4 4.9,13.4 18.7,13.4 C32.5,13.4 37.3,6.4 37.3,-0.1 C37.3,-6.6 32.5,-13.6 18.7,-13.6 M10.4,-4.5 C10.3,-4.9 10.3,-5.3 10.3,-5.7 C10.3,-6.5 10.5,-7.3 10.9,-8 C11.6,-9 12.8,-9.7 14.3,-10 C15.6,-10.3 16.3,-10.5 18.9,-10.5 L19,-10.5 C23,-10.5 24.3,-6.8 25.4,-3 L25.7,-2 C26.5,0.6 26.9,2.8 26.9,4.5 C26.9,5.7 26.7,6.8 26.3,7.6 C25.7,8.7 24.7,9.4 23,9.8 C22.1,10 20.6,10.1 20.6,10.1 C20.1,10.1 19.7,10.2 19.3,10.2 C16.1,10.2 14.1,9 12.7,4.7 C11.5,1 11.3,-0.1 10.4,-4.5"/>
<path class="Note" transform="matrix(2.3811,0,0,2.3811,1037.79,1987.09)" d="M18.7,-13.6 C4.9,-13.6 0,-6.6 0,-0.1 C0,6.4 4.9,13.4 18.7,13.4 C32.5,13.4 37.3,6.4 37.3,-0.1 C37.3,-6.6 32.5,-13.6 18.7,-13.6 M10.4,-4.5 C10.3,-4.9 10.3,-5.3 10.3,-5.7 C10.3,-6.5 10.5,-7.3 10.9,-8 C11.6,-9 12.8,-9.7 14.3,-10 C15.6,-10.3 16.3,-10.5 18.9,-10.5 L19,-10.5 C23,-10.5 24.3,-6.8 25.4,-3 L25.7,-2 C26.5,0.6 26.9,2.8 26.9,4.5 C26.9,5.7 26.7,6.8 26.3,7.6 C25.7,8.7 24.7,9.4 23,9.8 C22.1,10 20.6,10.1 20.6,10.1 C20.1,10.1 19.7,10.2 19.3,10.2 C16.1,10.2 14.1,9 12.7,4.7 C11.5,1 11.3,-0.1 10.4,-4.5"/>
<path class="Note" transform="matrix(2.3811,0,0,2.3811,1446.72,1957.32)" d="M31.5,-8.1 C29.7,-11.4 25.9,-13.2 21.3,-13.2 C17.9,-13.2 14.2,-12.2 10.6,-10.3 C4,-6.8 0,-0.9 0,4.2 C0,5.6 0.3,7 1,8.3 C2.8,11.6 6.6,13.3 11.2,13.3 C14.6,13.3 18.3,12.4 21.9,10.5 C28.5,7 32.5,1.1 32.5,-4 C32.5,-5.4 32.2,-6.8 31.5,-8.1 M27.2,-1.3 C25.5,0.4 22.1,2.5 18.5,4.5 C14.9,6.5 11.3,8 8.9,8.5 C8.4,8.6 7.9,8.7 7.4,8.7 C5.8,8.7 4.6,8.1 3.9,6.8 C3.6,6.3 3.4,5.7 3.4,5.1 C3.4,4 4.1,2.7 5.2,1.6 C6.9,-0.1 10.2,-2.2 13.8,-4.2 C17.4,-6.2 21,-7.7 23.4,-8.2 C23.9,-8.3 24.4,-8.4 24.9,-8.4 C26.5,-8.4 27.8,-7.8 28.5,-6.5 C28.8,-6 28.9,-5.4 28.9,-4.8 C28.9,-3.7 28.3,-2.5 27.2,-1.3"/>
<path class="Note" transform="matrix(2.3811,0,0,2.3811,1657.85,2165.67)" d="M31.5,-8.1 C29.7,-11.4 25.9,-13.2 21.3,-13.2 C17.9,-13.2 14.2,-12.2 10.6,-10.3 C4,-6.8 0,-0.9 0,4.2 C0,5.6 0.3,7 1,8.3 C2.8,11.6 6.6,13.3 11.2,13.3 C14.6,13.3 18.3,12.4 21.9,10.5 C28.5,7 32.5,1.1 32.5,-4 C32.5,-5.4 32.2,-6.8 31.5,-8.1 M27.2,-1.3 C25.5,0.4 22.1,2.5 18.5,4.5 C14.9,6.5 11.3,8 8.9,8.5 C8.4,8.6 7.9,8.7 7.4,8.7 C5.8,8.7 4.6,8.1 3.9,6.8 C3.6,6.3 3.4,5.7 3.4,5.1 C3.4,4 4.1,2.7 5.2,1.6 C6.9,-0.1 10.2,-2.2 13.8,-4.2 C17.4,-6.2 21,-7.7 23.4,-8.2 C23.9,-8.3 24.4,-8.4 24.9,-8.4 C26.5,-8.4 27.8,-7.8 28.5,-6.5 C28.8,-6 28.9,-5.4 28.9,-4.8 C28.9,-3.7 28.3,-2.5 27.2,-1.3"/>
<path class="Note" transform="matrix(2.3811,0,0,2.3811,2045.06,2135.91)" d="M18.7,-13.6 C4.9,-13.6 0,-6.6 0,-0.1 C0,6.4 4.9,13.4 18.7,13.4 C32.5,13.4 37.3,6.4 37.3,-0.1 C37.3,-6.6 32.5,-13.6 18.7,-13.6 M10.4,-4.5 C10.3,-4.9 10.3,-5.3 10.3,-5.7 C10.3,-6.5 10.5,-7.3 10.9,-8 C11.6,-9 12.8,-9.7 14.3,-10 C15.6,-10.3 16.3,-10.5 18.9,-10.5 L19,-10.5 C23,-10.5 24.3,-6.8 25.4,-3 L25.7,-2 C26.5,0.6 26.9,2.8 26.9,4.5 C26.9,5.7 26.7,6.8 26.3,7.6 C25.7,8.7 24.7,9.4 23,9.8 C22.1,10 20.6,10.1 20.6,10.1 C20.1,10.1 19.7,10.2 19.3,10.2 C16.1,10.2 14.1,9 12.7,4.7 C11.5,1 11.3,-0.1 10.4,-4.5"/>
<path class="Note" transform="matrix(2.3811,0,0,2.3811,2486.27,2106.14)" d="M18.7,-13.6 C4.9,-13.6 0,-6.6 0,-0.1 C0,6.4 4.9,13.4 18.7,13.4 C32.5,13.4 37.3,6.4 37.3,-0.1 C37.3,-6.6 32.5,-13.6 18.7,-13.6 M10.4,-4.5 C10.3,-4.9 10.3,-5.3 10.3,-5.7 C10.3,-6.5 10.5,-7.3 10.9,-8 C11.6,-9 12.8,-9.7 14.3,-10 C15.6,-10.3 16.3,-10.5 18.9,-10.5 L19,-10.5 C23,-10.5 24.3,-6.8 25.4,-3 L25.7,-2 C26.5,0.6 26.9,2.8 26.9,4.5 C26.9,5.7 26.7,6.8 26.3,7.6 C25.7,8.7 24.7,9.4 23,9.8 C22.1,10 20.6,10.1 20.6,10.1 C20.1,10.1 19.7,10.2 19.3,10.2 C16.1,10.2 14.1,9 12.7,4.7 C11.5,1 11.3,-0.1 10.4,-4.5"/>
<path class="Note" transform="matrix(2.3811,0,0,2.3811,2927.47,2076.38)" d="M18.7,-13.6 C4.9,-13.6 0,-6.6 0,-0.1 C0,6.4 4.9,13.4 18.7,13.4 C32.5,13.4 37.3,6.4 37.3,-0.1 C37.3,-6.6 32.5,-13.6 18.7,-13.6 M10.4,-4.5 C10.3,-4.9 10.3,-5.3 10.3,-5.7 C10.3,-6.5 10.5,-7.3 10.9,-8 C11.6,-9 12.8,-9.7 14.3,-10 C15.6,-10.3 16.3,-10.5 18.9,-10.5 L19,-10.5 C23,-10.5 24.3,-6.8 25.4,-3 L25.7,-2 C26.5,0.6 26.9,2.8 26.9,4.5 C26.9,5.7 26.7,6.8 26.3,7.6 C25.7,8.7 24.7,9.4 23,9.8 C22.1,10 20.6,10.1 20.6,10.1 C20.1,10.1 19.7,10.2 19.3,10.2 C16.1,10.2 14.1,9 12.7,4.7 C11.5,1 11.3,-0.1 10.4,-4.5"/>
<path class="Note" transform="matrix(2.3811,0,0,2.3811,3381.36,2046.61)" d="M18.7,-13.6 C4.9,-13.6 0,-6.6 0,-0.1 C0,6.4 4.9,13.4 18.7,13.4 C32.5,13.4 37.3,6.4 37.3,-0.1 C37.3,-6.6 32.5,-13.6 18.7,-13.6 M10.4,-4.5 C10.3,-4.9 10.3,-5.3 10.3,-5.7 C10.3,-6.5 10.5,-7.3 10.9,-8 C11.6,-9 12.8,-9.7 14.3,-10 C15.6,-10.3 16.3,-10.5 18.9,-10.5 L19,-10.5 C23,-10.5 24.3,-6.8 25.4,-3 L25.7,-2 C26.5,0.6 26.9,2.8 26.9,4.5 C26.9,5.7 26.7,6.8 26.3,7.6 C25.7,8.7 24.7,9.4 23,9.8 C22.1,10 20.6,10.1 20.6,10.1 C20.1,10.1 19.7,10.2 19.3,10.2 C16.1,10.2 14.1,9 12.7,4.7 C11.5,1 11.3,-0.1 10.4,-4.5"/>
<path class="Note" transform="matrix(2.3811,0,0,2.3811,3775.18,2016.85)" d="M18.7,-13.6 C4.9,-13.6 0,-6.6 0,-0.1 C0,6.4 4.9,13.4 18.7,13.4 C32.5,13.4 37.3,6.4 37.3,-0.1 C37.3,-6.6 32.5,-13.6 18.7,-13.6 M10.4,-4.5 C10.3,-4.9 10.3,-5.3 10.3,-5.7 C10.3,-6.5 10.5,-7.3 10.9,-8 C11.6,-9 12.8,-9.7 14.3,-10 C15.6,-10.3 16.3,-10.5 18.9,-10.5 L19,-10.5 C23,-10.5 24.3,-6.8 25.4,-3 L25.7,-2 C26.5,0.6 26.9,2.8 26.9,4.5 C26.9,5.7 26.7,6.8 26.3,7.6 C25.7,8.7 24.7,9.4 23,9.8 C22.1,10 20.6,10.1 20.6,10.1 C20.1,10.1 19.7,10.2 19.3,10.2 C16.1,10.2 14.1,9 12.7,4.7 C11.5,1 11.3,-0.1 10.4,-4.5"/>
<path class="Note" transform="matrix(2.3811,0,0,2.3811,519.076,1540.63)" d="M18.7,-13.6 C4.9,-13.6 0,-6.6 0,-0.1 C0,6.4 4.9,13.4 18.7,13.4 C32.5,13.4 37.3,6.4 37.3,-0.1 C37.3,-6.6 32.5,-13.6 18.7,-13.6 M10.4,-4.5 C10.3,-4.9 10.3,-5.3 10.3,-5.7 C10.3,-6.5 10.5,-7.3 10.9,-8 C11.6,-9 12.8,-9.7 14.3,-10 C15.6,-10.3 16.3,-10.5 18.9,-10.5 L19,-10.5 C23,-10.5 24.3,-6.8 25.4,-3 L25.7,-2 C26.5,0.6 26.9,2.8 26.9,4.5 C26.9,5.7 26.7,6.8 26.3,7.6 C25.7,8.7 24.7,9.4 23,9.8 C22.1,10 20.6,10.1 20.6,10.1 C20.1,10.1 19.7,10.2 19.3,10.2 C16.1,10.2 14.1,9 12.7,4.7 C11.5,1 11.3,-0.1 10.4,-4.5"/>
<path class="Note" transform="matrix(2.3811,0,0,2.3811,519.076,1481.1)" d="M18.7,-13.6 C4.9,-13.6 0,-6.6 0,-0.1 C0,6.4 4.9,13.4 18.7,13.4 C32.5,13.4 37.3,6.4 37.3,-0.1 C37.3,-6.6 32.5,-13.6 18.7,-13.6 M10.4,-4.5 C10.3,-4.9 10.3,-5.3 10.3,-5.7 C10.3,-6.5 10.5,-7.3 10.9,-8 C11.6,-9 12.8,-9.7 14.3,-10 C15.6,-10.3 16.3,-10.5 18.9,-10.5 L19,-10.5 C23,-10.5 24.3,-6.8 25.4,-3 L25.7,-2 C26.5,0.6 26.9,2.8 26.9,4.5 C26.9,5.7 26.7,6.8 26.3,7.6 C25.7,8.7 24.7,9.4 23,9.8 C22.1,10 20.6,10.1 20.6,10.1 C20.1,10.1 19.7,10.2 19.3,10.2 C16.1,10.2 14.1,9 12.7,4.7 C11.5,1 11.3,-0.1 10.4,-4.5"/>
<path class="Note" transform="matrix(2.3811,0,0,2.3811,519.076,1421.57)" d="M18.7,-13.6 C4.9,-13.6 0,-6.6 0,-0.1 C0,6.4 4.9,13.4 18.7,13.4 C32.5,13.4 37.3,6.4 37.3,-0.1 C37.3,-6.6 32.5,-13.6 18.7,-13.6 M10.4,-4.5 C10.3,-4.9 10.3,-5.3 10.3,-5.7 C10.3,-6.5 10.5,-7.3 10.9,-8 C11.6,-9 12.8,-9.7 14.3,-10 C15.6,-10.3 16.3,-10.5 18.9,-10.5 L19,-10.5 C23,-10.5 24.3,-6.8 25.4,-3 L25.7,-2 C26.5,0.6 26.9,2.8 26.9,4.5 C26.9,5.7 26.7,6.8 26.3,7.6 C25.7,8.7 24.7,9.4 23,9.8 C22.1,10 20.6,10.1 20.6,10.1 C20.1,10.1 19.7,10.2 19.3,10.2 C16.1,10.2 14.1,9 12.7,4.7 C11.5,1 11.3,-0.1 10.4,-4.5"/>
<path class="Note" transform="matrix(2.3811,0,0,2.3811,1037.79,1570.39)" d="M18.7,-13.6 C4.9,-13.6 0,-6.6 0,-0.1 C0,6.4 4.9,13.4 18.7,13.4 C32.5,13.4 37.3,6.4 37.3,-0.1 C37.3,-6.6 32.5,-13.6 18.7,-13.6 M10.4,-4.5 C10.3,-4.9 10.3,-5.3 10.3,-5.7 C10.3,-6.5 10.5,-7.3 10.9,-8 C11.6,-9 12.8,-9.7 14.3,-10 C15.6,-10.3 16.3,-10.5 18.9,-10.5 L19,-10.5 C23,-10.5 24.3,-6.8 25.4,-3 L25.7,-2 C26.5,0.6 26.9,2.8 26.9,4.5 C26.9,5.7 26.7,6.8 26.3,7.6 C25.7,8.7 24.7,9.4 23,9.8 C22.1,10 20.6,10.1 20.6,10.1 C20.1,10.1 19.7,10.2 19.3,10.2 C16.1,10.2 14.1,9 12.7,4.7 C11.5,1 11.3,-0.1 10.4,-4.5"/>
<path class="Note" transform="matrix(2.3811,0,0,2.3811,955.527,1451.34)" d="M18.7,-13.6 C4.9,-13.6 0,-6.6 0,-0.1 C0,6.4 4.9,13.4 18.7,13.4 C32.5,13.4 37.3,6.4 37.3,-0.1 C37.3,-6.6 32.5,-13.6 18.7,-13.6 M10.4,-4.5 C10.3,-4.9 10.3,-5.3 10.3,-5.7 C10.3,-6.5 10.5,-7.3 10.9,-8 C11.6,-9 12.8,-9.7 14.3,-10 C15.6,-10.3 16.3,-10.5 18.9,-10.5 L19,-10.5 C23,-10.5 24.3,-6.8 25.4,-3 L25.7,-2 C26.5,0.6 26.9,2.8 26.9,4.5 C26.9,5.7 26.7,6.8 26.3,7.6 C25.7,8.7 24.7,9.4 23,9.8 C22.1,10 20.6,10.1 20.6,10.1 C20.1,10.1 19.7,10.2 19.3,10.2 C16.1,10.2 14.1,9 12.7,4.7 C11.5,1 11.3,-0.1 10.4,-4.5"/>
<path class="Note" transform="matrix(2.3811,0,0,2.3811,1037.79,1421.57)" d="M18.7,-13.6 C4.9,-13.6 0,-6.6 0,-0.1 C0,6.4 4.9,13.4 18.7,13.4 C32.5,13.4 37.3,6.4 37.3,-0.1 C37.3,-6.6 32.5,-13.6 18.7,-13.6 M10.4,-4.5 C10.3,-4.9 10.3,-5.3 10.3,-5.7 C10.3,-6.5 10.5,-7.3 10.9,-8 C11.6,-9 12.8,-9.7 14.3,-10 C15.6,-10.3 16.3,-10.5 18.9,-10.5 L19,-10.5 C23,-10.5 24.3,-6.8 25.4,-3 L25.7,-2 C26.5,0.6 26.9,2.8 26.9,4.5 C26.9,5.7 26.7,6.8 26.3,7.6 C25.7,8.7 24.7,9.4 23,9.8 C22.1,10 20.6,10.1 20.6,10.1 C20.1,10.1 19.7,10.2 19.3,10.2 C16.1,10.2 14.1,9 12.7,4.7 C11.5,1 11.3,-0.1 10.4,-4.5"/>
<path class="Note" transform="matrix(2.3811,0,0,2.3811,1441,1540.63)" d="M18.7,-13.6 C4.9,-13.6 0,-6.6 0,-0.1 C0,6.4 4.9,13.4 18.7,13.4 C32.5,13.4 37.3,6.4 37.3,-0.1 C37.3,-6.6 32.5,-13.6 18.7,-13.6 M10.4,-4.5 C10.3,-4.9 10.3,-5.3 10.3,-5.7 C10.3,-6.5 10.5,-7.3 10.9,-8 C11.6,-9 12.8,-9.7 14.3,-10 C15.6,-10.3 16.3,-10.5 18.9,-10.5 L19,-10.5 C23,-10.5 24.3,-6.8 25.4,-3 L25.7,-2 C26.5,0.6 26.9,2.8 26.9,4.5 C26.9,5.7 26.7,6.8 26.3,7.6 C25.7,8.7 24.7,9.4 23,9.8 C22.1,10 20.6,10.1 20.6,10.1 C20.1,10.1 19.7,10.2 19.3,10.2 C16.1,10.2 14.1,9 12.7,4.7 C11.5,1 11.3,-0.1 10.4,-4.5"/>
<path class="Note" transform="matrix(2.3811,0,0,2.3811,1441,1481.1)" d="M18.7,-13.6 C4.9,-13.6 0,-6.6 0,-0.1 C0,6.4 4.9,13.4 18.7,13.4 C32.5,13.4 37.3,6.4 37.3,-0.1 C37.3,-6.6 32.5,-13.6 18.7,-13.6 M10.4,-4.5 C10.3,-4.9 10.3,-5.3 10.3,-5.7 C10.3,-6.5 10.5,-7.3 10.9,-8 C11.6,-9 12.8,-9.7 14.3,-10 C15.6,-10.3 16.3,-10.5 18.9,-10.5 L19,-10.5 C23,-10.5 24.3,-6.8 25.4,-3 L25.7,-2 C26.5,0.6 26.9,2.8 26.9,4.5 C26.9,5.7 26.7,6.8 26.3,7.6 C25.7,8.7 24.7,9.4 23,9.8 C22.1,10 20.6,10.1 20.6,10.1 C20.1,10.1 19.7,10.2 19.3,10.2 C16.1,10.2 14.1,9 12.7,4.7 C11.5,1 11.3,-0.1 10.4,-4.5"/>
<path class="Note" transform="matrix(2.3811,0,0,2.3811,1441,1421.57)" d="M18.7,-13.6 C4.9,-13.6 0,-6.6 0,-0.1 C0,6.4 4.9,13.4 18.7,13.4 C32.5,13.4 37.3,6.4 37.3,-0.1 C37.3,-6.6 32.5,-13.6 18.7,-13.6 M10.4,-4.5 C10.3,-4.9 10.3,-5.3 10.3,-5.7 C10.3,-6.5 10.5,-7.3 10.9,-8 C11.6,-9 12.8,-9.7 14.3,-10 C15.6,-10.3 16.3,-10.5 18.9,-10.5 L19,-10.5 C23,-10.5 24.3,-6.8 25.4,-3 L25.7,-2 C26.5,0.6 26.9,2.8 26.9,4.5 C26.9,5.7 26.7,6.8 26.3,7.6 C25.7,8.7 24.7,9.4 23,9.8 C22.1,10 20.6,10.1 20.6,10.1 C20.1,10.1 19.7,10.2 19.3,10.2 C16.1,10.2 14.1,9 12.7,4.7 C11.5,1 11.3,-0.1 10.4,-4.5"/>
<path class="Note" transform="matrix(2.3811,0,0,2.3811,1962.8,1540.63)" d="M18.7,-13.6 C4.9,-13.6 0,-6.6 0,-0.1 C0,6.4 4.9,13.4 18.7,13.4 C32.5,13.4 37.3,6.4 37.3,-0.1 C37.3,-6.6 32.5,-13.6 18.7,-13.6 M10.4,-4.5 C10.3,-4.9 10.3,-5.3 10.3,-5.7 C10.3,-6.5 10.5,-7.3 10.9,-8 C11.6,-9 12.8,-9.7 14.3,-10 C15.6,-10.3 16.3,-10.5 18.9,-10.5 L19,-10.5 C23,-10.5 24.3,-6.8 25.4,-3 L25.7,-2 C26.5,0.6 26.9,2.8 26.9,4.5 C26.9,5.7 26.7,6.8 26.3,7.6 C25.7,8.7 24.7,9.4 23,9.8 C22.1,10 20.6,10.1 20.6,10.1 C20.1,10.1 19.7,10.2 19.3,10.2 C16.1,10.2 14.1,9 12.7,4.7 C11.5,1 11.3,-0.1 10.4,-4.5"/>
<path class="Note" transform="matrix(2.3811,0,0,2.3811,2045.06,1510.87)" d="M18.7,-13.6 C4.9,-13.6 0,-6.6 0,-0.1 C0,6.4 4.9,13.4 18.7,13.4 C32.5,13.4 37.3,6.4 37.3,-0.1 C37.3,-6.6 32.5,-13.6 18.7,-13.6 M10.4,-4.5 C10.3,-4.9 10.3,-5.3 10.3,-5.7 C10.3,-6.5 10.5,-7.3 10.9,-8 C11.6,-9 12.8,-9.7 14.3,-10 C15.6,-10.3 16.3,-10.5 18.9,-10.5 L19,-10.5 C23,-10.5 24.3,-6.8 25.4,-3 L25.7,-2 C26.5,0.6 26.9,2.8 26.9,4.5 C26.9,5.7 26.7,6.8 26.3,7.6 C25.7,8.7 24.7,9.4 23,9.8 C22.1,10 20.6,10.1 20.6,10.1 C20.1,10.1 19.7,10.2 19.3,10.2 C16.1,10.2 14.1,9 12.7,4.7 C11.5,1 11.3,-0.1 10.4,-4.5"/>
<path class="Note" transform="matrix(2.3811,0,0,2.3811,2045.06,1391.81)" d="M18.7,-13.6 C4.9,-13.6 0,-6.6 0,-0.1 C0,6.4 4.9,13.4 18.7,13.4 C32.5,13.4 37.3,6.4 37.3,-0.1 C37.3,-6.6 32.5,-13.6 18.7,-13.6 M10.4,-4.5 C10.3,-4.9 10.3,-5.3 10.3,-5.7 C10.3,-6.5 10.5,-7.3 10.9,-8 C11.6,-9 12.8,-9.7 14.3,-10 C15.6,-10.3 16.3,-10.5 18.9,-10.5 L19,-10.5 C23,-10.5 24.3,-6.8 25.4,-3 L25.7,-2 C26.5,0.6 26.9,2.8 26.9,4.5 C26.9,5.7 26.7,6.8 26.3,7.6 C25.7,8.7 24.7,9.4 23,9.8 C22.1,10 20.6,10.1 20.6,10.1 C20.1,10.1 19.7,10.2 19.3,10.2 C16.1,10.2 14.1,9 12.7,4.7 C11.5,1 11.3,-0.1 10.4,-4.5"/>
<path class="Note" transform="matrix(2.3811,0,0,2.3811,2486.27,1570.39)" d="M18.7,-13.6 C4.9,-13.6 0,-6.6 0,-0.1 C0,6.4 4.9,13.4 18.7,13.4 C32.5,13.4 37.3,6.4 37.3,-0.1 C37.3,-6.6 32.5,-13.6 18.7,-13.6 M10.4,-4.5 C10.3,-4.9 10.3,-5.3 10.3,-5.7 C10.3,-6.5 10.5,-7.3 10.9,-8 C11.6,-9 12.8,-9.7 14.3,-10 C15.6,-10.3 16.3,-10.5 18.9,-10.5 L19,-10.5 C23,-10.5 24.3,-6.8 25.4,-3 L25.7,-2 C26.5,0.6 26.9,2.8 26.9,4.5 C26.9,5.7 26.7,6.8 26.3,7.6 C25.7,8.7 24.7,9.4 23,9.8 C22.1,10 20.6,10.1 20.6,10.1 C20.1,10.1 19.7,10.2 19.3,10.2 C16.1,10.2 14.1,9 12.7,4.7 C11.5,1 11.3,-0.1 10.4,-4.5"/>
<path class="Note" transform="matrix(2.3811,0,0,2.3811,2486.27,1510.87)" d="M18.7,-13.6 C4.9,-13.6 0,-6.6 0,-0.1 C0,6.4 4.9,13.4 18.7,13.4 C32.5,13.4 37.3,6.4 37.3,-0.1 C37.3,-6.6 32.5,-13.6 18.7,-13.6 M10.4,-4.5 C10.3,-4.9 10.3,-5.3 10.3,-5.7 C10.3,-6.5 10.5,-7.3 10.9,-8 C11.6,-9 12.8,-9.7 14.3,-10 C15.6,-10.3 16.3,-10.5 18.9,-10.5 L19,-10.5 C23,-10.5 24.3,-6.8 25.4,-3 L25.7,-2 C26.5,0.6 26.9,2.8 26.9,4.5 C26.9,5.7 26.7,6.8 26.3,7.6 C25.7,8.7 24.7,9.4 23,9.8 C22.1,10 20.6,10.1 20.6,10.1 C20.1,10.1 19.7,10.2 19.3,10.2 C16.1,10.2 14.1,9 12.7,4.7 C11.5,1 11.3,-0.1 10.4,-4.5"/>
<path class="Note" transform="matrix(2.3811,0,0,2.3811,2486.27,1421.57)" d="M18.7,-13.6 C4.9,-13.6 0,-6.6 0,-0.1 C0,6.4 4.9,13.4 18.7,13.4 C32.5,13.4 37.3,6.4 37.3,-0.1 C37.3,-6.6 32.5,-13.6 18.7,-13.6 M10.4,-4.5 C10.3,-4.9 10.3,-5.3 10.3,-5.7 C10.3,-6.5 10.5,-7.3 10.9,-8 C11.6,-9 12.8,-9.7 14.3,-10 C15.6,-10.3 16.3,-10.5 18.9,-10.5 L19,-10.5 C23,-10.5 24.3,-6.8 25.4,-3 L25.7,-2 C26.5,0.6 26.9,2.8 26.9,4.5 C26.9,5.7 26.7,6.8 26.3,7.6 C25.7,8.7 24.7,9.4 23,9.8 C22.1,10 20.6,10.1 20.6,10.1 C20.1,10.1 19.7,10.2 19.3,10.2 C16.1,10.2 14.1,9 12.7,4.7 C11.5,1 11.3,-0.1 10.4,-4.5"/>
<path class="Note" transform="matrix(2.3811,0,0,2.3811,2927.47,1540.63)" d="M18.7,-13.6 C4.9,-13.6 0,-6.6 0,-0.1 C0,6.4 4.9,13.4 18.7,13.4 C32.5,13.4 37.3,6.4 37.3,-0.1 C37.3,-6.6 32.5,-13.6 18.7,-13.6 M10.4,-4.5 C10.3,-4.9 10.3,-5.3 10.3,-5.7 C10.3,-6.5 10.5,-7.3 10.9,-8 C11.6,-9 12.8,-9.7 14.3,-10 C15.6,-10.3 16.3,-10.5 18.9,-10.5 L19,-10.5 C23,-10.5 24.3,-6.8 25.4,-3 L25.7,-2 C26.5,0.6 26.9,2.8 26.9,4.5 C26.9,5.7 26.7,6.8 26.3,7.6 C25.7,8.7 24.7,9.4 23,9.8 C22.1,10 20.6,10.1 20.6,10.1 C20.1,10.1 19.7,10.2 19.3,10.2 C16.1,10.2 14.1,9 12.7,4.7 C11.5,1 11.3,-0.1 10.4,-4.5"/>
<path class="Note" transform="matrix(2.3811,0,0,2.3811,2927.47,1451.34)" d="M18.7,-13.6 C4.9,-13.6 0,-6.6 0,-0.1 C0,6.4 4.9,13.4 18.7,13.4 C32.5,13.4 37.3,6.4 37.3,-0.1 C37.3,-6.6 32.5,-13.6 18.7,-13.6 M10.4,-4.5 C10.3,-4.9 10.3,-5.3 10.3,-5.7 C10.3,-6.5 10.5,-7.3 10.9,-8 C11.6,-9 12.8,-9.7 14.3,-10 C15.6,-10.3 16.3,-10.5 18.9,-10.5 L19,-10.5 C23,-10.5 24.3,-6.8 25.4,-3 L25.7,-2 C26.5,0.6 26.9,2.8 26.9,4.5 C26.9,5.7 26.7,6.8 26.3,7.6 C25.7,8.7 24.7,9.4 23,9.8 C22.1,10 20.6,10.1 20.6,10.1 C20.1,10.1 19.7,10.2 19.3,10.2 C16.1,10.2 14.1,9 12.7,4.7 C11.5,1 11.3,-0.1 10.4,-4.5"/>
<path class="Note" transform="matrix(2.3811,0,0,2.3811,3381.36,1510.87)" d="M18.7,-13.6 C4.9,-13.6 0,-6.6 0,-0.1 C0,6.4 4.9,13.4 18.7,13.4 C32.5,13.4 37.3,6.4 37.3,-0.1 C37.3,-6.6 32.5,-13.6 18.7,-13.6 M10.4,-4.5 C10.3,-4.9 10.3,-5.3 10.3,-5.7 C10.3,-6.5 10.5,-7.3 10.9,-8 C11.6,-9 12.8,-9.7 14.3,-10 C15.6,-10.3 16.3,-10.5 18.9,-10.5 L19,-10.5 C23,-10.5 24.3,-6.8 25.4,-3 L25.7,-2 C26.5,0.6 26.9,2.8 26.9,4.5 C26.9,5.7 26.7,6.8 26.3,7.6 C25.7,8.7 24.7,9.4 23,9.8 C22.1,10 20.6,10.1 20.6,10.1 C20.1,10.1 19.7,10.2 19.3,10.2 C16.1,10.2 14.1,9 12.7,4.7 C11.5,1 11.3,-0.1 10.4,-4.5"/>
<path class="Note" transform="matrix(2.3811,0,0,2.3811,3299.1,1451.34)" d="M18.7,-13.6 C4.9,-13.6 0,-6.6 0,-0.1 C0,6.4 4.9,13.4 18.7,13.4 C32.5,13.4 37.3,6.4 37.3,-0.1 C37.3,-6.6 32.5,-13.6 18.7,-13.6 M10.4,-4.5 C10.3,-4.9 10.3,-5.3 10.3,-5.7 C10.3,-6.5 10.5,-7.3 10.9,-8 C11.6,-9 12.8,-9.7 14.3,-10 C15.6,-10.3 16.3,-10.5 18.9,-10.5 L19,-10.5 C23,-10.5 24.3,-6.8 25.4,-3 L25.7,-2 C26.5,0.6 26.9,2.8 26.9,4.5 C26.9,5.7 26.7,6.8 26.3,7.6 C25.7,8.7 24.7,9.4 23,9.8 C22.1,10 20.6,10.1 20.6,10.1 C20.1,10.1 19.7,10.2 19.3,10.2 C16.1,10.2 14.1,9 12.7,4.7 C11.5,1 11.3,-0.1 10.4,-4.5"/>
<path class="Note" transform="matrix(2.3811,0,0,2.3811,3381.36,1421.57)" d="M18.7,-13.6 C4.9,-13.6 0,-6.6 0,-0.1 C0,6.4 4.9,13.4 18.7,13.4 C32.5,13.4 37.3,6.4 37.3,-0.1 C37.3,-6.6 32.5,-13.6 18.7,-13.6 M10.4,-4.5 C10.3,-4.9 10.3,-5.3 10.3,-5.7 C10.3,-6.5 10.5,-7.3 10.9,-8 C11.6,-9 12.8,-9.7 14.3,-10 C15.6,-10.3 16.3,-10.5 18.9,-10.5 L19,-10.5 C23,-10.5 24.3,-6.8 25.4,-3 L25.7,-2 C26.5,0.6 26.9,2.8 26.9,4.5 C26.9,5.7 26.7,6.8 26.3,7.6 C25.7,8.7 24.7,9.4 23,9.8 C22.1,10 20.6,10.1 20.6,10.1 C20.1,10.1 19.7,10.2 19.3,10.2 C16.1,10.2 14.1,9 12.7,4.7 C11.5,1 11.3,-0.1 10.4,-4.5"/>
<path class="Note" transform="matrix(2.3811,0,0,2.3811,3775.18,1540.63)" d="M18.7,-13.6 C4.9,-13.6 0,-6.6 0,-0.1 C0,6.4 4.9,13.4 18.7,13.4 C32.5,13.4 37.3,6.4 37.3,-0.1 C37.3,-6.6 32.5,-13.6 18.7,-13.6 M10.4,-4.5 C10.3,-4.9 10.3,-5.3 10.3,-5.7 C10.3,-6.5 10.5,-7.3 10.9,-8 C11.6,-9 12.8,-9.7 14.3,-10 C15.6,-10.3 16.3,-10.5 18.9,-10.5 L19,-10.5 C23,-10.5 24.3,-6.8 25.4,-3 L25.7,-2 C26.5,0.6 26.9,2.8 26.9,4.5 C26.9,5.7 26.7,6.8 26.3,7.6 C25.7,8.7 24.7,9.4 23,9.8 C22.1,10 20.6,10.1 20.6,10.1 C20.1,10.1 19.7,10.2 19.3,10.2 C16.1,10.2 14.1,9 12.7,4.7 C11.5,1 11.3,-0.1 10.4,-4.5"/>
<path class="Note" transform="matrix(2.3811,0,0,2.3811,3775.18,1481.1)" d="M18.7,-13.6 C4.9,-13.6 0,-6.6 0,-0.1 C0,6.4 4.9,13.4 18.7,13.4 C32.5,13.4 37.3,6.4 37.3,-0.1 C37.3,-6.6 32.5,-13.6 18.7,-13.6 M10.4,-4.5 C10.3,-4.9 10.3,-5.3 10.3,-5.7 C10.3,-6.5 10.5,-7.3 10.9,-8 C11.6,-9 12.8,-9.7 14.3,-10 C15.6,-10.3 16.3,-10.5 18.9,-10.5 L19,-10.5 C23,-10.5 24.3,-6.8 25.4,-3 L25.7,-2 C26.5,0.6 26.9,2.8 26.9,4.5 C26.9,5.7 26.7,6.8 26.3,7.6 C25.7,8.7 24.7,9.4 23,9.8 C22.1,10 20.6,10.1 20.6,10.1 C20.1,10.1 19.7,10.2 19.3,10.2 C16.1,10.2 14.1,9 12.7,4.7 C11.5,1 11.3,-0.1 10.4,-4.5"/>
<path class="Note" transform="matrix(2.3811,0,0,2.3811,3775.18,1421.57)" d="M18.7,-13.6 C4.9,-13.6 0,-6.6 0,-0.1 C0,6.4 4.9,13.4 18.7,13.4 C32.5,13.4 37.3,6.4 37.3,-0.1 C37.3,-6.6 32.5,-13.6 18.7,-13.6 M10.4,-4.5 C10.3,-4.9 10.3,-5.3 10.3,-5.7 C10.3,-6.5 10.5,-7.3 10.9,-8 C11.6,-9 12.8,-9.7 14.3,-10 C15.6,-10.3 16.3,-10.5 18.9,-10.5 L19,-10.5 C23,-10.5 24.3,-6.8 25.4,-3 L25.7,-2 C26.5,0.6 26.9,2.8 26.9,4.5 C26.9,5.7 26.7,6.8 26.3,7.6 C25.7,8.7 24.7,9.4 23,9.8 C22.1,10 20.6,10.1 20.6,10.1 C20.1,10.1 19.7,10.2 19.3,10.2 C16.1,10.2 14.1,9 12.7,4.7 C11.5,1 11.3,-0.1 10.4,-4.5"/>
<path class="Note" d="M612.77,561.187 C617.109,558.243 620.247,555.803 622.183,553.866 C625.747,550.07 627.529,546.583 627.529,543.407 C627.529,539.766 625.515,537.945 621.486,537.945 C613.661,537.945 605.294,544.84 596.385,558.631 C593.673,562.814 587.708,576.45 578.488,599.537 C585.848,607.129 589.528,611.429 589.528,612.436 C589.528,613.831 588.637,614.528 586.855,614.528 C585.461,614.528 581.626,612.165 575.35,607.439 C568.533,623.321 558.19,636.879 544.322,648.113 C530.144,659.579 513.216,665.312 493.538,665.312 C486.023,665.312 476.61,663.569 465.299,660.083 C456.234,657.294 451.702,652.839 451.702,646.719 C451.702,637.654 455.188,633.122 462.161,633.122 C466.345,633.122 468.436,635.059 468.436,638.932 C468.436,640.172 467.468,641.489 465.531,642.884 C464.524,643.581 464.02,644.937 464.02,646.951 C464.02,649.353 466.693,651.832 472.039,654.388 C477.85,657.178 486.372,658.572 497.605,658.572 C512.093,658.572 526.077,652.297 539.558,639.746 C551.798,628.357 560.592,615.109 565.937,600.002 C563.846,598.297 561.599,596.438 559.197,594.424 C551.76,590.008 548.041,585.475 548.041,580.827 C548.041,578.89 549.319,577.922 551.876,577.922 C555.285,577.922 559.894,580.827 565.705,586.638 C566.945,587.877 568.107,589.039 569.191,590.124 C571.903,582.686 576.241,573.235 582.207,561.768 C592.976,541.005 606.069,530.624 621.486,530.624 C626.987,530.624 631.325,531.67 634.502,533.762 C637.678,535.853 639.267,538.72 639.267,542.361 C639.267,548.172 637.136,553.091 632.875,557.12 C628.459,561.304 623.849,563.395 619.046,563.395 C614.862,563.395 612.77,562.659 612.77,561.187"/>
<path class="Note" d="M540.139,910.409 C535.955,910.409 533.863,908.511 533.863,904.715 C533.863,898.284 534.832,893.558 536.768,890.537 C544.826,878.606 562.335,856.293 589.296,823.599 C601.459,808.802 617.148,801.403 636.361,801.403 C643.799,801.403 648.951,802.449 651.817,804.541 C656.233,807.795 658.441,811.707 658.441,816.278 C658.441,821.082 654.568,826.427 646.82,832.315 C639.46,837.893 632.488,840.682 625.902,840.682 C623.346,840.682 622.067,840.411 622.067,839.869 C622.067,839.094 623.307,838.281 625.786,837.429 C629.117,836.189 632.681,833.671 636.477,829.875 C640.816,825.459 642.985,821.469 642.985,817.905 C642.985,815.503 641.32,813.218 637.988,811.049 C635.044,809.189 630.28,808.26 623.694,808.26 C614.087,808.26 601.963,817.944 587.32,837.312 C577.558,850.25 569.656,861.639 563.613,871.478 C566.557,869.851 570.082,867.876 574.188,865.552 C579.224,862.685 583.563,861.252 587.204,861.252 C596.268,861.252 600.801,864.506 600.801,871.013 C600.801,877.444 597.082,884.494 589.644,892.164 C584.376,897.587 581.742,901.616 581.742,904.25 C581.742,906.961 584.376,908.317 589.644,908.317 C592.279,908.317 594.99,907.388 597.779,905.528 C600.568,903.746 602.621,902.855 603.938,902.855 C605.023,902.855 605.565,903.553 605.565,904.947 C605.565,907.194 603.396,909.557 599.058,912.036 C591.775,916.22 585.926,918.311 581.51,918.311 C573.685,918.311 569.772,914.128 569.772,905.761 C569.772,900.492 572.794,894.643 578.837,888.213 C583.253,883.487 585.461,878.8 585.461,874.151 C585.461,870.123 583.292,868.108 578.953,868.108 C577.249,868.108 571.593,870.123 561.986,874.151 C559.12,878.955 556.718,883.371 554.781,887.399 C547.421,902.739 542.54,910.409 540.139,910.409"/>
<path class="Note" d="M612.77,739.77 C617.109,736.826 620.247,734.386 622.183,732.449 C625.747,728.652 627.529,725.166 627.529,721.99 C627.529,718.348 625.515,716.528 621.486,716.528 C613.661,716.528 605.294,723.423 596.385,737.213 C593.673,741.397 587.708,755.032 578.488,778.12 C585.848,785.712 589.528,790.012 589.528,791.019 C589.528,792.414 588.637,793.111 586.855,793.111 C585.461,793.111 581.626,790.748 575.35,786.022 C568.533,801.904 558.19,815.462 544.322,826.696 C530.144,838.162 513.216,843.895 493.538,843.895 C486.023,843.895 476.61,842.152 465.299,838.666 C456.234,835.876 451.702,831.422 451.702,825.301 C451.702,816.237 455.188,811.705 462.161,811.705 C466.345,811.705 468.436,813.641 468.436,817.515 C468.436,818.755 467.468,820.072 465.531,821.466 C464.524,822.164 464.02,823.519 464.02,825.534 C464.02,827.935 466.693,830.415 472.039,832.971 C477.85,835.76 486.372,837.155 497.605,837.155 C512.093,837.155 526.077,830.879 539.558,818.329 C551.798,806.94 560.592,793.692 565.937,778.584 C563.846,776.88 561.599,775.021 559.197,773.006 C551.76,768.59 548.041,764.058 548.041,759.41 C548.041,757.473 549.319,756.504 551.876,756.504 C555.285,756.504 559.894,759.41 565.705,765.22 C566.945,766.46 568.107,767.622 569.191,768.707 C571.903,761.269 576.241,751.817 582.207,740.351 C592.976,719.588 606.069,709.207 621.486,709.207 C626.987,709.207 631.325,710.252 634.502,712.344 C637.678,714.436 639.267,717.303 639.267,720.944 C639.267,726.754 637.136,731.674 632.875,735.703 C628.459,739.886 623.849,741.978 619.046,741.978 C614.862,741.978 612.77,741.242 612.77,739.77"/>
<path class="Note" d="M612.77,650.479 C617.109,647.535 620.247,645.094 622.183,643.157 C625.747,639.361 627.529,635.875 627.529,632.698 C627.529,629.057 625.515,627.236 621.486,627.236 C613.661,627.236 605.294,634.132 596.385,647.922 C593.673,652.106 587.708,665.741 578.488,688.828 C585.848,696.421 589.528,700.721 589.528,701.728 C589.528,703.122 588.637,703.819 586.855,703.819 C585.461,703.819 581.626,701.457 575.35,696.731 C568.533,712.613 558.19,726.171 544.322,737.404 C530.144,748.871 513.216,754.604 493.538,754.604 C486.023,754.604 476.61,752.86 465.299,749.374 C456.234,746.585 451.702,742.13 451.702,736.01 C451.702,726.945 455.188,722.413 462.161,722.413 C466.345,722.413 468.436,724.35 468.436,728.224 C468.436,729.463 467.468,730.78 465.531,732.175 C464.524,732.872 464.02,734.228 464.02,736.242 C464.02,738.644 466.693,741.123 472.039,743.68 C477.85,746.469 486.372,747.863 497.605,747.863 C512.093,747.863 526.077,741.588 539.558,729.037 C551.798,717.649 560.592,704.401 565.937,689.293 C563.846,687.589 561.599,685.729 559.197,683.715 C551.76,679.299 548.041,674.767 548.041,670.118 C548.041,668.181 549.319,667.213 551.876,667.213 C555.285,667.213 559.894,670.118 565.705,675.929 C566.945,677.168 568.107,678.331 569.191,679.415 C571.903,671.978 576.241,662.526 582.207,651.06 C592.976,630.297 606.069,619.915 621.486,619.915 C626.987,619.915 631.325,620.961 634.502,623.053 C637.678,625.145 639.267,628.011 639.267,631.652 C639.267,637.463 637.136,642.383 632.875,646.411 C628.459,650.595 623.849,652.687 619.046,652.687 C614.862,652.687 612.77,651.951 612.77,650.479"/>
<path class="Note" d="M1152.4,616.271 C1146.05,626.265 1136.01,634.555 1122.3,641.14 C1110.37,646.874 1099.21,649.74 1088.83,649.74 C1080.54,649.74 1073.65,648.074 1068.15,644.743 C1062.18,641.102 1059.2,636.763 1059.2,631.727 C1059.2,620.339 1062.18,610.538 1068.15,602.326 C1076.28,591.17 1084.49,585.592 1092.78,585.592 C1098.67,585.592 1102.85,586.754 1105.33,589.078 C1108.74,592.099 1110.45,596.244 1110.45,601.513 C1110.45,608.95 1104.91,615.419 1093.83,620.92 C1083.06,626.265 1075.58,629.752 1071.4,631.379 C1072.33,633.316 1073.53,635.059 1075,636.608 C1078.64,640.482 1083.6,642.419 1089.88,642.419 C1097.78,642.419 1108.39,639.513 1121.72,633.703 C1134.5,628.047 1144.73,622.237 1152.4,616.271 M1069.77,626.033 C1075.58,623.089 1080.89,619.641 1085.69,615.69 C1092.82,609.88 1096.39,603.604 1096.39,596.864 C1096.39,593.068 1094.64,591.17 1091.16,591.17 C1088.21,591.17 1084.18,594.54 1079.07,601.28 C1072.64,609.647 1069.42,616.465 1069.42,621.733 C1069.42,623.205 1069.54,624.638 1069.77,626.033"/>
<path class="Note" d="M1152.4,794.854 C1146.05,804.848 1136.01,813.138 1122.3,819.723 C1110.37,825.456 1099.21,828.323 1088.83,828.323 C1080.54,828.323 1073.65,826.657 1068.15,823.326 C1062.18,819.684 1059.2,815.346 1059.2,810.31 C1059.2,798.921 1062.18,789.121 1068.15,780.909 C1076.28,769.752 1084.49,764.174 1092.78,764.174 C1098.67,764.174 1102.85,765.336 1105.33,767.661 C1108.74,770.682 1110.45,774.827 1110.45,780.095 C1110.45,787.533 1104.91,794.002 1093.83,799.502 C1083.06,804.848 1075.58,808.334 1071.4,809.961 C1072.33,811.898 1073.53,813.641 1075,815.191 C1078.64,819.065 1083.6,821.001 1089.88,821.001 C1097.78,821.001 1108.39,818.096 1121.72,812.286 C1134.5,806.63 1144.73,800.819 1152.4,794.854 M1069.77,804.616 C1075.58,801.672 1080.89,798.224 1085.69,794.273 C1092.82,788.462 1096.39,782.187 1096.39,775.447 C1096.39,771.651 1094.64,769.752 1091.16,769.752 C1088.21,769.752 1084.18,773.123 1079.07,779.863 C1072.64,788.23 1069.42,795.048 1069.42,800.316 C1069.42,801.788 1069.54,803.221 1069.77,804.616"/>
<path class="Note" d="M1131.48,471.896 C1135.82,468.952 1138.96,466.512 1140.89,464.575 C1144.46,460.778 1146.24,457.292 1146.24,454.116 C1146.24,450.474 1144.23,448.654 1140.2,448.654 C1132.37,448.654 1124,455.549 1115.1,469.339 C1112.38,473.523 1106.42,487.158 1097.2,510.246 C1104.56,517.838 1108.24,522.138 1108.24,523.145 C1108.24,524.54 1107.35,525.237 1105.57,525.237 C1104.17,525.237 1100.34,522.874 1094.06,518.148 C1087.24,534.03 1076.9,547.588 1063.03,558.822 C1048.85,570.288 1031.93,576.021 1012.25,576.021 C1004.73,576.021 995.32,574.278 984.009,570.791 C974.945,568.002 970.413,563.548 970.413,557.427 C970.413,548.363 973.899,543.831 980.872,543.831 C985.055,543.831 987.147,545.767 987.147,549.641 C987.147,550.881 986.179,552.198 984.242,553.592 C983.235,554.29 982.731,555.645 982.731,557.66 C982.731,560.061 985.404,562.541 990.749,565.097 C996.56,567.886 1005.08,569.281 1016.32,569.281 C1030.8,569.281 1044.79,563.005 1058.27,550.455 C1070.51,539.066 1079.3,525.818 1084.65,510.71 C1082.56,509.006 1080.31,507.147 1077.91,505.132 C1070.47,500.716 1066.75,496.184 1066.75,491.536 C1066.75,489.599 1068.03,488.63 1070.59,488.63 C1074,488.63 1078.6,491.536 1084.42,497.346 C1085.66,498.586 1086.82,499.748 1087.9,500.832 C1090.61,493.395 1094.95,483.943 1100.92,472.477 C1111.69,451.714 1124.78,441.332 1140.2,441.332 C1145.7,441.332 1150.04,442.378 1153.21,444.47 C1156.39,446.562 1157.98,449.429 1157.98,453.07 C1157.98,458.88 1155.85,463.8 1151.59,467.829 C1147.17,472.012 1142.56,474.104 1137.76,474.104 C1133.57,474.104 1131.48,473.368 1131.48,471.896"/>
<path class="Note" d="M1131.48,650.479 C1135.82,647.535 1138.96,645.094 1140.89,643.157 C1144.46,639.361 1146.24,635.875 1146.24,632.698 C1146.24,629.057 1144.23,627.236 1140.2,627.236 C1132.37,627.236 1124,634.132 1115.1,647.922 C1112.38,652.106 1106.42,665.741 1097.2,688.828 C1104.56,696.421 1108.24,700.721 1108.24,701.728 C1108.24,703.122 1107.35,703.819 1105.57,703.819 C1104.17,703.819 1100.34,701.457 1094.06,696.731 C1087.24,712.613 1076.9,726.171 1063.03,737.404 C1048.85,748.871 1031.93,754.604 1012.25,754.604 C1004.73,754.604 995.32,752.86 984.009,749.374 C974.945,746.585 970.413,742.13 970.413,736.01 C970.413,726.945 973.899,722.413 980.872,722.413 C985.055,722.413 987.147,724.35 987.147,728.224 C987.147,729.463 986.179,730.78 984.242,732.175 C983.235,732.872 982.731,734.228 982.731,736.242 C982.731,738.644 985.404,741.123 990.749,743.68 C996.56,746.469 1005.08,747.863 1016.32,747.863 C1030.8,747.863 1044.79,741.588 1058.27,729.037 C1070.51,717.649 1079.3,704.401 1084.65,689.293 C1082.56,687.589 1080.31,685.729 1077.91,683.715 C1070.47,679.299 1066.75,674.767 1066.75,670.118 C1066.75,668.181 1068.03,667.213 1070.59,667.213 C1074,667.213 1078.6,670.118 1084.42,675.929 C1085.66,677.168 1086.82,678.331 1087.9,679.415 C1090.61,671.978 1094.95,662.526 1100.92,651.06 C1111.69,630.297 1124.78,619.915 1140.2,619.915 C1145.7,619.915 1150.04,620.961 1153.21,623.053 C1156.39,625.145 1157.98,628.011 1157.98,631.652 C1157.98,637.463 1155.85,642.383 1151.59,646.411 C1147.17,650.595 1142.56,652.687 1137.76,652.687 C1133.57,652.687 1131.48,651.951 1131.48,650.479"/>
<path class="Note" d="M1534.7,561.187 C1539.04,558.243 1542.17,555.803 1544.11,553.866 C1547.68,550.07 1549.46,546.583 1549.46,543.407 C1549.46,539.766 1547.44,537.945 1543.41,537.945 C1535.59,537.945 1527.22,544.84 1518.31,558.631 C1515.6,562.814 1509.64,576.45 1500.42,599.537 C1507.78,607.129 1511.46,611.429 1511.46,612.436 C1511.46,613.831 1510.57,614.528 1508.78,614.528 C1507.39,614.528 1503.55,612.165 1497.28,607.439 C1490.46,623.321 1480.12,636.879 1466.25,648.113 C1452.07,659.579 1435.14,665.312 1415.47,665.312 C1407.95,665.312 1398.54,663.569 1387.23,660.083 C1378.16,657.294 1373.63,652.839 1373.63,646.719 C1373.63,637.654 1377.12,633.122 1384.09,633.122 C1388.27,633.122 1390.36,635.059 1390.36,638.932 C1390.36,640.172 1389.4,641.489 1387.46,642.884 C1386.45,643.581 1385.95,644.937 1385.95,646.951 C1385.95,649.353 1388.62,651.832 1393.97,654.388 C1399.78,657.178 1408.3,658.572 1419.53,658.572 C1434.02,658.572 1448.01,652.297 1461.49,639.746 C1473.73,628.357 1482.52,615.109 1487.87,600.002 C1485.77,598.297 1483.53,596.438 1481.13,594.424 C1473.69,590.008 1469.97,585.475 1469.97,580.827 C1469.97,578.89 1471.25,577.922 1473.8,577.922 C1477.21,577.922 1481.82,580.827 1487.63,586.638 C1488.87,587.877 1490.03,589.039 1491.12,590.124 C1493.83,582.686 1498.17,573.235 1504.14,561.768 C1514.9,541.005 1528,530.624 1543.41,530.624 C1548.92,530.624 1553.25,531.67 1556.43,533.762 C1559.61,535.853 1561.19,538.72 1561.19,542.361 C1561.19,548.172 1559.06,553.091 1554.8,557.12 C1550.39,561.304 1545.78,563.395 1540.97,563.395 C1536.79,563.395 1534.7,562.659 1534.7,561.187"/>
<path class="Note" d="M1534.7,739.77 C1539.04,736.826 1542.17,734.386 1544.11,732.449 C1547.68,728.652 1549.46,725.166 1549.46,721.99 C1549.46,718.348 1547.44,716.528 1543.41,716.528 C1535.59,716.528 1527.22,723.423 1518.31,737.213 C1515.6,741.397 1509.64,755.032 1500.42,778.12 C1507.78,785.712 1511.46,790.012 1511.46,791.019 C1511.46,792.414 1510.57,793.111 1508.78,793.111 C1507.39,793.111 1503.55,790.748 1497.28,786.022 C1490.46,801.904 1480.12,815.462 1466.25,826.696 C1452.07,838.162 1435.14,843.895 1415.47,843.895 C1407.95,843.895 1398.54,842.152 1387.23,838.666 C1378.16,835.876 1373.63,831.422 1373.63,825.301 C1373.63,816.237 1377.12,811.705 1384.09,811.705 C1388.27,811.705 1390.36,813.641 1390.36,817.515 C1390.36,818.755 1389.4,820.072 1387.46,821.466 C1386.45,822.164 1385.95,823.519 1385.95,825.534 C1385.95,827.935 1388.62,830.415 1393.97,832.971 C1399.78,835.76 1408.3,837.155 1419.53,837.155 C1434.02,837.155 1448.01,830.879 1461.49,818.329 C1473.73,806.94 1482.52,793.692 1487.87,778.584 C1485.77,776.88 1483.53,775.021 1481.13,773.006 C1473.69,768.59 1469.97,764.058 1469.97,759.41 C1469.97,757.473 1471.25,756.504 1473.8,756.504 C1477.21,756.504 1481.82,759.41 1487.63,765.22 C1488.87,766.46 1490.03,767.622 1491.12,768.707 C1493.83,761.269 1498.17,751.817 1504.14,740.351 C1514.9,719.588 1528,709.207 1543.41,709.207 C1548.92,709.207 1553.25,710.252 1556.43,712.344 C1559.61,714.436 1561.19,717.303 1561.19,720.944 C1561.19,726.754 1559.06,731.674 1554.8,735.703 C1550.39,739.886 1545.78,741.978 1540.97,741.978 C1536.79,741.978 1534.7,741.242 1534.7,739.77"/>
<path class="Note" d="M1534.7,650.479 C1539.04,647.535 1542.17,645.094 1544.11,643.157 C1547.68,639.361 1549.46,635.875 1549.46,632.698 C1549.46,629.057 1547.44,627.236 1543.41,627.236 C1535.59,627.236 1527.22,634.132 1518.31,647.922 C1515.6,652.106 1509.64,665.741 1500.42,688.828 C1507.78,696.421 1511.46,700.721 1511.46,701.728 C1511.46,703.122 1510.57,703.819 1508.78,703.819 C1507.39,703.819 1503.55,701.457 1497.28,696.731 C1490.46,712.613 1480.12,726.171 1466.25,737.404 C1452.07,748.871 1435.14,754.604 1415.47,754.604 C1407.95,754.604 1398.54,752.86 1387.23,749.374 C1378.16,746.585 1373.63,742.13 1373.63,736.01 C1373.63,726.945 1377.12,722.413 1384.09,722.413 C1388.27,722.413 1390.36,724.35 1390.36,728.224 C1390.36,729.463 1389.4,730.78 1387.46,732.175 C1386.45,732.872 1385.95,734.228 1385.95,736.242 C1385.95,738.644 1388.62,741.123 1393.97,743.68 C1399.78,746.469 1408.3,747.863 1419.53,747.863 C1434.02,747.863 1448.01,741.588 1461.49,729.037 C1473.73,717.649 1482.52,704.401 1487.87,689.293 C1485.77,687.589 1483.53,685.729 1481.13,683.715 C1473.69,679.299 1469.97,674.767 1469.97,670.118 C1469.97,668.181 1471.25,667.213 1473.8,667.213 C1477.21,667.213 1481.82,670.118 1487.63,675.929 C1488.87,677.168 1490.03,678.331 1491.12,679.415 C1493.83,671.978 1498.17,662.526 1504.14,651.06 C1514.9,630.297 1528,619.915 1543.41,619.915 C1548.92,619.915 1553.25,620.961 1556.43,623.053 C1559.61,625.145 1561.19,628.011 1561.19,631.652 C1561.19,637.463 1559.06,642.383 1554.8,646.411 C1550.39,650.595 1545.78,652.687 1540.97,652.687 C1536.79,652.687 1534.7,651.951 1534.7,650.479"/>
<path class="Note" d="M1619.86,945.081 C1620.17,933.383 1626.64,923.001 1639.27,913.937 C1650.51,905.879 1662.79,901.851 1676.11,901.851 C1694.78,901.851 1711.25,909.172 1725.5,923.815 C1734.56,933.189 1739.1,944.81 1739.1,958.678 C1739.1,971.151 1735.77,980.719 1729.1,987.382 C1720.97,995.594 1712.37,999.7 1703.3,999.7 C1697.11,999.7 1692.3,998.306 1688.89,995.517 C1683.32,990.946 1680.53,984.825 1680.53,977.155 C1680.53,967.239 1685.49,958.174 1695.4,949.962 C1703.54,943.222 1711.71,938.806 1719.92,936.714 C1717.75,932.995 1715,929.509 1711.67,926.255 C1701.29,916.106 1689.51,911.031 1676.34,911.031 C1662.63,911.031 1651.28,914.014 1642.29,919.98 C1633,926.1 1625.52,934.467 1619.86,945.081 M1722.83,942.873 C1718.57,946.824 1714.31,951.047 1710.04,955.54 C1701.68,964.372 1697.49,972.739 1697.49,980.642 C1697.49,989.086 1699.43,993.309 1703.3,993.309 C1706.79,993.309 1711.67,988.544 1717.95,979.015 C1722.98,971.422 1725.5,964.45 1725.5,958.097 C1725.5,952.674 1724.61,947.599 1722.83,942.873"/>
<path class="Note" d="M2123.88,851.839 C2128.45,851.839 2130.74,854.705 2130.74,860.438 C2130.74,864.467 2128.22,870.471 2123.19,878.451 C2119.16,884.881 2117.14,891.157 2117.14,897.277 C2117.14,900.763 2122.22,902.507 2132.37,902.507 C2140.73,902.507 2152.39,897.974 2167.35,888.91 C2152.32,903.398 2139.26,910.641 2128.18,910.641 C2118.19,910.641 2111.22,909.131 2107.27,906.109 C2106.26,905.334 2105.41,904.405 2104.71,903.32 C2100.84,908.046 2094.37,910.409 2085.3,910.409 C2076.62,910.409 2069.96,908.627 2065.31,905.063 C2062.21,902.662 2060.66,898.827 2060.66,893.558 C2060.66,885.191 2065.62,876.049 2075.54,866.133 C2086.15,855.519 2098.43,850.212 2112.38,850.212 C2115.87,850.212 2118.42,851.49 2120.05,854.047 C2121.37,852.575 2122.64,851.839 2123.88,851.839 M2103.08,898.091 C2103,897.471 2102.97,896.851 2102.97,896.231 C2102.97,895.921 2106.92,885.114 2114.82,863.808 C2115.59,861.717 2116.37,859.935 2117.14,858.463 C2114.12,857.843 2111.14,857.533 2108.2,857.533 C2102.77,857.533 2095.57,862.143 2086.58,871.362 C2078.52,879.574 2074.49,886.663 2074.49,892.629 C2074.49,899.214 2077.63,902.507 2083.91,902.507 C2091.5,902.507 2097.89,901.035 2103.08,898.091"/>
<path class="Note" d="M2138.76,561.187 C2143.1,558.243 2146.23,555.803 2148.17,553.866 C2151.74,550.07 2153.52,546.583 2153.52,543.407 C2153.52,539.766 2151.5,537.945 2147.47,537.945 C2139.65,537.945 2131.28,544.84 2122.37,558.631 C2119.66,562.814 2113.7,576.45 2104.48,599.537 C2111.84,607.129 2115.52,611.429 2115.52,612.436 C2115.52,613.831 2114.63,614.528 2112.84,614.528 C2111.45,614.528 2107.61,612.165 2101.34,607.439 C2094.52,623.321 2084.18,636.879 2070.31,648.113 C2056.13,659.579 2039.2,665.312 2019.53,665.312 C2012.01,665.312 2002.6,663.569 1991.29,660.083 C1982.22,657.294 1977.69,652.839 1977.69,646.719 C1977.69,637.654 1981.18,633.122 1988.15,633.122 C1992.33,633.122 1994.42,635.059 1994.42,638.932 C1994.42,640.172 1993.46,641.489 1991.52,642.884 C1990.51,643.581 1990.01,644.937 1990.01,646.951 C1990.01,649.353 1992.68,651.832 1998.03,654.388 C2003.84,657.178 2012.36,658.572 2023.59,658.572 C2038.08,658.572 2052.07,652.297 2065.55,639.746 C2077.79,628.357 2086.58,615.109 2091.93,600.002 C2089.83,598.297 2087.59,596.438 2085.19,594.424 C2077.75,590.008 2074.03,585.475 2074.03,580.827 C2074.03,578.89 2075.31,577.922 2077.86,577.922 C2081.27,577.922 2085.88,580.827 2091.69,586.638 C2092.93,587.877 2094.09,589.039 2095.18,590.124 C2097.89,582.686 2102.23,573.235 2108.2,561.768 C2118.96,541.005 2132.06,530.624 2147.47,530.624 C2152.98,530.624 2157.31,531.67 2160.49,533.762 C2163.67,535.853 2165.25,538.72 2165.25,542.361 C2165.25,548.172 2163.12,553.091 2158.86,557.12 C2154.45,561.304 2149.84,563.395 2145.03,563.395 C2140.85,563.395 2138.76,562.659 2138.76,561.187"/>
<path class="Note" d="M2159.68,794.854 C2153.32,804.848 2143.29,813.138 2129.58,819.723 C2117.65,825.456 2106.49,828.323 2096.11,828.323 C2087.82,828.323 2080.92,826.657 2075.42,823.326 C2069.46,819.684 2066.48,815.346 2066.48,810.31 C2066.48,798.921 2069.46,789.121 2075.42,780.909 C2083.56,769.752 2091.77,764.174 2100.06,764.174 C2105.95,764.174 2110.13,765.336 2112.61,767.661 C2116.02,770.682 2117.72,774.827 2117.72,780.095 C2117.72,787.533 2112.19,794.002 2101.11,799.502 C2090.34,804.848 2082.86,808.334 2078.68,809.961 C2079.61,811.898 2080.81,813.641 2082.28,815.191 C2085.92,819.065 2090.88,821.001 2097.16,821.001 C2105.06,821.001 2115.67,818.096 2129,812.286 C2141.78,806.63 2152.01,800.819 2159.68,794.854 M2077.05,804.616 C2082.86,801.672 2088.17,798.224 2092.97,794.273 C2100.1,788.462 2103.66,782.187 2103.66,775.447 C2103.66,771.651 2101.92,769.752 2098.43,769.752 C2095.49,769.752 2091.46,773.123 2086.35,779.863 C2079.92,788.23 2076.7,795.048 2076.7,800.316 C2076.7,801.788 2076.82,803.221 2077.05,804.616"/>
<path class="Note" d="M2137.95,674.069 C2137.95,682.979 2127.8,702.541 2107.5,732.756 C2099.44,744.764 2087.86,753.558 2072.75,759.136 C2061.59,763.319 2048.7,765.411 2034.05,765.411 C2029.33,765.411 2025.14,764.443 2021.5,762.506 C2017.47,760.414 2015.46,758.129 2015.46,755.65 C2015.46,749.219 2018.91,746.004 2025.8,746.004 C2026.81,746.004 2027.31,746.624 2027.31,747.863 C2027.31,748.948 2026.81,750.149 2025.8,751.466 C2024.56,753.093 2023.94,754.294 2023.94,755.068 C2023.94,757.393 2027.43,758.555 2034.4,758.555 C2050.05,758.555 2062.41,756.657 2071.47,752.86 C2080.92,748.987 2090.34,739.109 2099.71,723.227 L2102.38,718.23 C2097.89,721.638 2093.44,723.343 2089.02,723.343 C2078.02,723.343 2072.52,718.888 2072.52,709.979 C2072.52,700.372 2078.99,690.262 2091.93,679.648 C2102.07,671.435 2111.1,667.329 2119,667.329 C2122.95,667.329 2126.25,668.375 2128.88,670.467 C2129.81,669.77 2130.97,669.421 2132.37,669.421 C2136.09,669.421 2137.95,670.971 2137.95,674.069 M2103.78,715.789 L2125.74,675.232 C2124.04,674.844 2122.14,674.651 2120.05,674.651 C2112.53,674.651 2105.25,679.028 2098.2,687.782 C2089.99,698.009 2085.88,706.182 2085.88,712.303 C2085.88,716.332 2088.56,718.346 2093.9,718.346 C2096.46,718.346 2099.75,717.494 2103.78,715.789"/>
<path class="Note" d="M2507.33,999.7 C2503.15,999.7 2501.06,997.802 2501.06,994.006 C2501.06,987.576 2502.02,982.85 2503.96,979.828 C2512.02,967.897 2529.53,945.585 2556.49,912.891 C2568.65,898.093 2584.34,890.694 2603.55,890.694 C2610.99,890.694 2616.14,891.74 2619.01,893.832 C2623.43,897.086 2625.63,900.999 2625.63,905.569 C2625.63,910.373 2621.76,915.719 2614.01,921.607 C2606.65,927.185 2599.68,929.974 2593.09,929.974 C2590.54,929.974 2589.26,929.703 2589.26,929.16 C2589.26,928.386 2590.5,927.572 2592.98,926.72 C2596.31,925.48 2599.87,922.962 2603.67,919.166 C2608.01,914.75 2610.18,910.76 2610.18,907.196 C2610.18,904.795 2608.51,902.509 2605.18,900.34 C2602.24,898.481 2597.47,897.551 2590.89,897.551 C2581.28,897.551 2569.15,907.235 2554.51,926.604 C2544.75,939.542 2536.85,950.93 2530.81,960.77 C2533.75,959.143 2537.27,957.167 2541.38,954.843 C2546.42,951.976 2550.75,950.543 2554.4,950.543 C2563.46,950.543 2567.99,953.797 2567.99,960.305 C2567.99,966.735 2564.27,973.785 2556.84,981.455 C2551.57,986.878 2548.93,990.907 2548.93,993.541 C2548.93,996.253 2551.57,997.609 2556.84,997.609 C2559.47,997.609 2562.18,996.679 2564.97,994.819 C2567.76,993.038 2569.81,992.147 2571.13,992.147 C2572.22,992.147 2572.76,992.844 2572.76,994.238 C2572.76,996.485 2570.59,998.848 2566.25,1001.33 C2558.97,1005.51 2553.12,1007.6 2548.7,1007.6 C2540.88,1007.6 2536.96,1003.42 2536.96,995.052 C2536.96,989.784 2539.99,983.934 2546.03,977.504 C2550.44,972.778 2552.65,968.091 2552.65,963.443 C2552.65,959.414 2550.48,957.4 2546.15,957.4 C2544.44,957.4 2538.79,959.414 2529.18,963.443 C2526.31,968.246 2523.91,972.662 2521.97,976.691 C2514.61,992.03 2509.73,999.7 2507.33,999.7"/>
<path class="Note" d="M2600.88,616.271 C2594.53,626.265 2584.49,634.555 2570.78,641.14 C2558.85,646.874 2547.69,649.74 2537.31,649.74 C2529.02,649.74 2522.13,648.074 2516.63,644.743 C2510.66,641.102 2507.68,636.763 2507.68,631.727 C2507.68,620.339 2510.66,610.538 2516.63,602.326 C2524.76,591.17 2532.97,585.592 2541.26,585.592 C2547.15,585.592 2551.34,586.754 2553.81,589.078 C2557.22,592.099 2558.93,596.244 2558.93,601.513 C2558.93,608.95 2553.39,615.419 2542.31,620.92 C2531.54,626.265 2524.06,629.752 2519.88,631.379 C2520.81,633.316 2522.01,635.059 2523.48,636.608 C2527.13,640.482 2532.08,642.419 2538.36,642.419 C2546.26,642.419 2556.88,639.513 2570.2,633.703 C2582.98,628.047 2593.21,622.237 2600.88,616.271 M2518.25,626.033 C2524.06,623.089 2529.37,619.641 2534.18,615.69 C2541.3,609.88 2544.87,603.604 2544.87,596.864 C2544.87,593.068 2543.12,591.17 2539.64,591.17 C2536.69,591.17 2532.66,594.54 2527.55,601.28 C2521.12,609.647 2517.91,616.465 2517.91,621.733 C2517.91,623.205 2518.02,624.638 2518.25,626.033"/>
<path class="Note" d="M2600.88,794.854 C2594.53,804.848 2584.49,813.138 2570.78,819.723 C2558.85,825.456 2547.69,828.323 2537.31,828.323 C2529.02,828.323 2522.13,826.657 2516.63,823.326 C2510.66,819.684 2507.68,815.346 2507.68,810.31 C2507.68,798.921 2510.66,789.121 2516.63,780.909 C2524.76,769.752 2532.97,764.174 2541.26,764.174 C2547.15,764.174 2551.34,765.336 2553.81,767.661 C2557.22,770.682 2558.93,774.827 2558.93,780.095 C2558.93,787.533 2553.39,794.002 2542.31,799.502 C2531.54,804.848 2524.06,808.334 2519.88,809.961 C2520.81,811.898 2522.01,813.641 2523.48,815.191 C2527.13,819.065 2532.08,821.001 2538.36,821.001 C2546.26,821.001 2556.88,818.096 2570.2,812.286 C2582.98,806.63 2593.21,800.819 2600.88,794.854 M2518.25,804.616 C2524.06,801.672 2529.37,798.224 2534.18,794.273 C2541.3,788.462 2544.87,782.187 2544.87,775.447 C2544.87,771.651 2543.12,769.752 2539.64,769.752 C2536.69,769.752 2532.66,773.123 2527.55,779.863 C2521.12,788.23 2517.91,795.048 2517.91,800.316 C2517.91,801.788 2518.02,803.221 2518.25,804.616"/>
<path class="Note" d="M2579.96,650.479 C2584.3,647.535 2587.44,645.094 2589.38,643.157 C2592.94,639.361 2594.72,635.875 2594.72,632.698 C2594.72,629.057 2592.71,627.236 2588.68,627.236 C2580.85,627.236 2572.49,634.132 2563.58,647.922 C2560.87,652.106 2554.9,665.741 2545.68,688.828 C2553.04,696.421 2556.72,700.721 2556.72,701.728 C2556.72,703.122 2555.83,703.819 2554.05,703.819 C2552.65,703.819 2548.82,701.457 2542.54,696.731 C2535.72,712.613 2525.38,726.171 2511.51,737.404 C2497.34,748.871 2480.41,754.604 2460.73,754.604 C2453.22,754.604 2443.8,752.86 2432.49,749.374 C2423.43,746.585 2418.89,742.13 2418.89,736.01 C2418.89,726.945 2422.38,722.413 2429.35,722.413 C2433.54,722.413 2435.63,724.35 2435.63,728.224 C2435.63,729.463 2434.66,730.78 2432.72,732.175 C2431.72,732.872 2431.21,734.228 2431.21,736.242 C2431.21,738.644 2433.89,741.123 2439.23,743.68 C2445.04,746.469 2453.56,747.863 2464.8,747.863 C2479.29,747.863 2493.27,741.588 2506.75,729.037 C2518.99,717.649 2527.78,704.401 2533.13,689.293 C2531.04,687.589 2528.79,685.729 2526.39,683.715 C2518.95,679.299 2515.23,674.767 2515.23,670.118 C2515.23,668.181 2516.51,667.213 2519.07,667.213 C2522.48,667.213 2527.09,670.118 2532.9,675.929 C2534.14,677.168 2535.3,678.331 2536.38,679.415 C2539.09,671.978 2543.43,662.526 2549.4,651.06 C2560.17,630.297 2573.26,619.915 2588.68,619.915 C2594.18,619.915 2598.52,620.961 2601.69,623.053 C2604.87,625.145 2606.46,628.011 2606.46,631.652 C2606.46,637.463 2604.33,642.383 2600.07,646.411 C2595.65,650.595 2591.04,652.687 2586.24,652.687 C2582.05,652.687 2579.96,651.951 2579.96,650.479"/>
<path class="Note" d="M3042.08,884.145 C3035.73,894.139 3025.7,902.429 3011.99,909.014 C3000.05,914.748 2988.9,917.614 2978.52,917.614 C2970.23,917.614 2963.33,915.948 2957.83,912.617 C2951.87,908.976 2948.88,904.637 2948.88,899.601 C2948.88,888.213 2951.87,878.412 2957.83,870.2 C2965.97,859.044 2974.18,853.466 2982.47,853.466 C2988.36,853.466 2992.54,854.628 2995.02,856.952 C2998.43,859.973 3000.13,864.118 3000.13,869.387 C3000.13,876.824 2994.59,883.293 2983.51,888.794 C2972.74,894.139 2965.27,897.626 2961.09,899.253 C2962.01,901.19 2963.22,902.933 2964.69,904.482 C2968.33,908.356 2973.29,910.293 2979.56,910.293 C2987.47,910.293 2998.08,907.388 3011.4,901.577 C3024.19,895.921 3034.41,890.111 3042.08,884.145 M2959.46,893.907 C2965.27,890.963 2970.58,887.515 2975.38,883.564 C2982.51,877.754 2986.07,871.478 2986.07,864.738 C2986.07,860.942 2984.33,859.044 2980.84,859.044 C2977.9,859.044 2973.87,862.414 2968.76,869.154 C2962.32,877.521 2959.11,884.339 2959.11,889.607 C2959.11,891.079 2959.23,892.513 2959.46,893.907"/>
<path class="Note" d="M3021.17,561.187 C3025.5,558.243 3028.64,555.803 3030.58,553.866 C3034.14,550.07 3035.92,546.583 3035.92,543.407 C3035.92,539.766 3033.91,537.945 3029.88,537.945 C3022.06,537.945 3013.69,544.84 3004.78,558.631 C3002.07,562.814 2996.1,576.45 2986.88,599.537 C2994.24,607.129 2997.92,611.429 2997.92,612.436 C2997.92,613.831 2997.03,614.528 2995.25,614.528 C2993.86,614.528 2990.02,612.165 2983.75,607.439 C2976.93,623.321 2966.59,636.879 2952.72,648.113 C2938.54,659.579 2921.61,665.312 2901.93,665.312 C2894.42,665.312 2885.01,663.569 2873.69,660.083 C2864.63,657.294 2860.1,652.839 2860.1,646.719 C2860.1,637.654 2863.58,633.122 2870.56,633.122 C2874.74,633.122 2876.83,635.059 2876.83,638.932 C2876.83,640.172 2875.86,641.489 2873.93,642.884 C2872.92,643.581 2872.42,644.937 2872.42,646.951 C2872.42,649.353 2875.09,651.832 2880.43,654.388 C2886.25,657.178 2894.77,658.572 2906,658.572 C2920.49,658.572 2934.47,652.297 2947.95,639.746 C2960.19,628.357 2968.99,615.109 2974.33,600.002 C2972.24,598.297 2969.99,596.438 2967.59,594.424 C2960.16,590.008 2956.44,585.475 2956.44,580.827 C2956.44,578.89 2957.72,577.922 2960.27,577.922 C2963.68,577.922 2968.29,580.827 2974.1,586.638 C2975.34,587.877 2976.5,589.039 2977.59,590.124 C2980.3,582.686 2984.64,573.235 2990.6,561.768 C3001.37,541.005 3014.46,530.624 3029.88,530.624 C3035.38,530.624 3039.72,531.67 3042.9,533.762 C3046.07,535.853 3047.66,538.72 3047.66,542.361 C3047.66,548.172 3045.53,553.091 3041.27,557.12 C3036.85,561.304 3032.24,563.395 3027.44,563.395 C3023.26,563.395 3021.17,562.659 3021.17,561.187"/>
<path class="Note" d="M2895.2,677.207 C2895.51,665.509 2901.98,655.127 2914.61,646.063 C2925.84,638.005 2938.12,633.977 2951.45,633.977 C2970.12,633.977 2986.58,641.298 3000.84,655.941 C3009.9,665.315 3014.44,676.936 3014.44,690.804 C3014.44,703.277 3011.1,712.845 3004.44,719.508 C2996.31,727.72 2987.71,731.826 2978.64,731.826 C2972.44,731.826 2967.64,730.432 2964.23,727.643 C2958.65,723.072 2955.86,716.951 2955.86,709.281 C2955.86,699.365 2960.82,690.3 2970.74,682.088 C2978.87,675.348 2987.05,670.932 2995.26,668.84 C2993.09,665.121 2990.34,661.635 2987.01,658.381 C2976.63,648.232 2964.85,643.157 2951.68,643.157 C2937.97,643.157 2926.62,646.14 2917.63,652.106 C2908.33,658.226 2900.86,666.593 2895.2,677.207 M2998.17,674.999 C2993.9,678.95 2989.64,683.173 2985.38,687.666 C2977.02,696.498 2972.83,704.865 2972.83,712.768 C2972.83,721.212 2974.77,725.435 2978.64,725.435 C2982.13,725.435 2987.01,720.67 2993.28,711.141 C2998.32,703.548 3000.84,696.576 3000.84,690.223 C3000.84,684.8 2999.95,679.725 2998.17,674.999"/>
<path class="Note" d="M3474.24,852.652 C3474.24,861.562 3464.09,881.124 3443.79,911.339 C3435.73,923.347 3424.15,932.14 3409.04,937.719 C3397.89,941.902 3384.99,943.994 3370.34,943.994 C3365.62,943.994 3361.43,943.026 3357.79,941.089 C3353.76,938.997 3351.75,936.711 3351.75,934.232 C3351.75,927.802 3355.2,924.587 3362.09,924.587 C3363.1,924.587 3363.6,925.207 3363.6,926.446 C3363.6,927.531 3363.1,928.732 3362.09,930.049 C3360.85,931.676 3360.23,932.876 3360.23,933.651 C3360.23,935.975 3363.72,937.138 3370.69,937.138 C3386.34,937.138 3398.7,935.239 3407.76,931.443 C3417.22,927.569 3426.63,917.692 3436,901.809 L3438.68,896.812 C3434.18,900.221 3429.73,901.926 3425.31,901.926 C3414.31,901.926 3408.81,897.471 3408.81,888.561 C3408.81,878.955 3415.28,868.844 3428.22,858.23 C3438.37,850.018 3447.39,845.912 3455.29,845.912 C3459.24,845.912 3462.54,846.958 3465.17,849.05 C3466.1,848.352 3467.26,848.004 3468.66,848.004 C3472.38,848.004 3474.24,849.553 3474.24,852.652 M3440.07,894.372 L3462.03,853.814 C3460.33,853.427 3458.43,853.233 3456.34,853.233 C3448.82,853.233 3441.54,857.61 3434.49,866.365 C3426.28,876.592 3422.17,884.765 3422.17,890.886 C3422.17,894.914 3424.85,896.929 3430.19,896.929 C3432.75,896.929 3436.04,896.076 3440.07,894.372"/>
<path class="Note" d="M3402.42,642.535 C3398.23,642.535 3396.14,640.637 3396.14,636.841 C3396.14,630.41 3397.11,625.684 3399.05,622.663 C3407.1,610.732 3424.61,588.419 3451.57,555.725 C3463.74,540.928 3479.43,533.529 3498.64,533.529 C3506.08,533.529 3511.23,534.575 3514.1,536.667 C3518.51,539.921 3520.72,543.833 3520.72,548.404 C3520.72,553.207 3516.85,558.553 3509.1,564.441 C3501.74,570.019 3494.77,572.808 3488.18,572.808 C3485.62,572.808 3484.35,572.537 3484.35,571.995 C3484.35,571.22 3485.59,570.407 3488.06,569.555 C3491.4,568.315 3494.96,565.797 3498.76,562.001 C3503.09,557.585 3505.26,553.595 3505.26,550.031 C3505.26,547.629 3503.6,545.344 3500.27,543.175 C3497.32,541.315 3492.56,540.386 3485.97,540.386 C3476.37,540.386 3464.24,550.07 3449.6,569.438 C3439.84,582.376 3431.94,593.765 3425.89,603.604 C3428.84,601.977 3432.36,600.002 3436.47,597.678 C3441.5,594.811 3445.84,593.378 3449.48,593.378 C3458.55,593.378 3463.08,596.632 3463.08,603.139 C3463.08,609.57 3459.36,616.62 3451.92,624.29 C3446.66,629.713 3444.02,633.742 3444.02,636.376 C3444.02,639.087 3446.66,640.443 3451.92,640.443 C3454.56,640.443 3457.27,639.513 3460.06,637.654 C3462.85,635.872 3464.9,634.981 3466.22,634.981 C3467.3,634.981 3467.84,635.679 3467.84,637.073 C3467.84,639.32 3465.67,641.683 3461.34,644.162 C3454.05,648.346 3448.2,650.437 3443.79,650.437 C3435.96,650.437 3432.05,646.254 3432.05,637.887 C3432.05,632.618 3435.07,626.769 3441.12,620.339 C3445.53,615.613 3447.74,610.926 3447.74,606.277 C3447.74,602.249 3445.57,600.234 3441.23,600.234 C3439.53,600.234 3433.87,602.249 3424.27,606.277 C3421.4,611.081 3419,615.497 3417.06,619.525 C3409.7,634.865 3404.82,642.535 3402.42,642.535"/>
<path class="Note" d="M3475.05,471.896 C3479.39,468.952 3482.53,466.512 3484.46,464.575 C3488.03,460.778 3489.81,457.292 3489.81,454.116 C3489.81,450.474 3487.79,448.654 3483.77,448.654 C3475.94,448.654 3467.57,455.549 3458.66,469.339 C3455.95,473.523 3449.99,487.158 3440.77,510.246 C3448.13,517.838 3451.81,522.138 3451.81,523.145 C3451.81,524.54 3450.92,525.237 3449.13,525.237 C3447.74,525.237 3443.9,522.874 3437.63,518.148 C3430.81,534.03 3420.47,547.588 3406.6,558.822 C3392.42,570.288 3375.5,576.021 3355.82,576.021 C3348.3,576.021 3338.89,574.278 3327.58,570.791 C3318.51,568.002 3313.98,563.548 3313.98,557.427 C3313.98,548.363 3317.47,543.831 3324.44,543.831 C3328.62,543.831 3330.72,545.767 3330.72,549.641 C3330.72,550.881 3329.75,552.198 3327.81,553.592 C3326.8,554.29 3326.3,555.645 3326.3,557.66 C3326.3,560.061 3328.97,562.541 3334.32,565.097 C3340.13,567.886 3348.65,569.281 3359.88,569.281 C3374.37,569.281 3388.36,563.005 3401.84,550.455 C3414.08,539.066 3422.87,525.818 3428.22,510.71 C3426.12,509.006 3423.88,507.147 3421.48,505.132 C3414.04,500.716 3410.32,496.184 3410.32,491.536 C3410.32,489.599 3411.6,488.63 3414.15,488.63 C3417.56,488.63 3422.17,491.536 3427.98,497.346 C3429.22,498.586 3430.39,499.748 3431.47,500.832 C3434.18,493.395 3438.52,483.943 3444.49,472.477 C3455.25,451.714 3468.35,441.332 3483.77,441.332 C3489.27,441.332 3493.6,442.378 3496.78,444.47 C3499.96,446.562 3501.55,449.429 3501.55,453.07 C3501.55,458.88 3499.41,463.8 3495.15,467.829 C3490.74,472.012 3486.13,474.104 3481.32,474.104 C3477.14,474.104 3475.05,473.368 3475.05,471.896"/>
<path class="Note" d="M3475.05,650.479 C3479.39,647.535 3482.53,645.094 3484.46,643.157 C3488.03,639.361 3489.81,635.875 3489.81,632.698 C3489.81,629.057 3487.79,627.236 3483.77,627.236 C3475.94,627.236 3467.57,634.132 3458.66,647.922 C3455.95,652.106 3449.99,665.741 3440.77,688.828 C3448.13,696.421 3451.81,700.721 3451.81,701.728 C3451.81,703.122 3450.92,703.819 3449.13,703.819 C3447.74,703.819 3443.9,701.457 3437.63,696.731 C3430.81,712.613 3420.47,726.171 3406.6,737.404 C3392.42,748.871 3375.5,754.604 3355.82,754.604 C3348.3,754.604 3338.89,752.86 3327.58,749.374 C3318.51,746.585 3313.98,742.13 3313.98,736.01 C3313.98,726.945 3317.47,722.413 3324.44,722.413 C3328.62,722.413 3330.72,724.35 3330.72,728.224 C3330.72,729.463 3329.75,730.78 3327.81,732.175 C3326.8,732.872 3326.3,734.228 3326.3,736.242 C3326.3,738.644 3328.97,741.123 3334.32,743.68 C3340.13,746.469 3348.65,747.863 3359.88,747.863 C3374.37,747.863 3388.36,741.588 3401.84,729.037 C3414.08,717.649 3422.87,704.401 3428.22,689.293 C3426.12,687.589 3423.88,685.729 3421.48,683.715 C3414.04,679.299 3410.32,674.767 3410.32,670.118 C3410.32,668.181 3411.6,667.213 3414.15,667.213 C3417.56,667.213 3422.17,670.118 3427.98,675.929 C3429.22,677.168 3430.39,678.331 3431.47,679.415 C3434.18,671.978 3438.52,662.526 3444.49,651.06 C3455.25,630.297 3468.35,619.915 3483.77,619.915 C3489.27,619.915 3493.6,620.961 3496.78,623.053 C3499.96,625.145 3501.55,628.011 3501.55,631.652 C3501.55,637.463 3499.41,642.383 3495.15,646.411 C3490.74,650.595 3486.13,652.687 3481.32,652.687 C3477.14,652.687 3475.05,651.951 3475.05,650.479"/>
<path class="Note" d="M3868.87,561.187 C3873.21,558.243 3876.35,555.803 3878.29,553.866 C3881.85,550.07 3883.63,546.583 3883.63,543.407 C3883.63,539.766 3881.62,537.945 3877.59,537.945 C3869.76,537.945 3861.4,544.84 3852.49,558.631 C3849.78,562.814 3843.81,576.45 3834.59,599.537 C3841.95,607.129 3845.63,611.429 3845.63,612.436 C3845.63,613.831 3844.74,614.528 3842.96,614.528 C3841.56,614.528 3837.73,612.165 3831.45,607.439 C3824.64,623.321 3814.29,636.879 3800.42,648.113 C3786.25,659.579 3769.32,665.312 3749.64,665.312 C3742.13,665.312 3732.71,663.569 3721.4,660.083 C3712.34,657.294 3707.8,652.839 3707.8,646.719 C3707.8,637.654 3711.29,633.122 3718.26,633.122 C3722.45,633.122 3724.54,635.059 3724.54,638.932 C3724.54,640.172 3723.57,641.489 3721.63,642.884 C3720.63,643.581 3720.12,644.937 3720.12,646.951 C3720.12,649.353 3722.8,651.832 3728.14,654.388 C3733.95,657.178 3742.47,658.572 3753.71,658.572 C3768.2,658.572 3782.18,652.297 3795.66,639.746 C3807.9,628.357 3816.69,615.109 3822.04,600.002 C3819.95,598.297 3817.7,596.438 3815.3,594.424 C3807.86,590.008 3804.14,585.475 3804.14,580.827 C3804.14,578.89 3805.42,577.922 3807.98,577.922 C3811.39,577.922 3816,580.827 3821.81,586.638 C3823.05,587.877 3824.21,589.039 3825.29,590.124 C3828.01,582.686 3832.34,573.235 3838.31,561.768 C3849.08,541.005 3862.17,530.624 3877.59,530.624 C3883.09,530.624 3887.43,531.67 3890.6,533.762 C3893.78,535.853 3895.37,538.72 3895.37,542.361 C3895.37,548.172 3893.24,553.091 3888.98,557.12 C3884.56,561.304 3879.95,563.395 3875.15,563.395 C3870.96,563.395 3868.87,562.659 3868.87,561.187"/>
<path class="Note" d="M3796.24,910.409 C3792.06,910.409 3789.97,908.511 3789.97,904.715 C3789.97,898.284 3790.93,893.558 3792.87,890.537 C3800.93,878.606 3818.44,856.293 3845.4,823.599 C3857.56,808.802 3873.25,801.403 3892.46,801.403 C3899.9,801.403 3905.05,802.449 3907.92,804.541 C3912.34,807.795 3914.54,811.707 3914.54,816.278 C3914.54,821.082 3910.67,826.427 3902.92,832.315 C3895.56,837.893 3888.59,840.682 3882,840.682 C3879.45,840.682 3878.17,840.411 3878.17,839.869 C3878.17,839.094 3879.41,838.281 3881.89,837.429 C3885.22,836.189 3888.78,833.671 3892.58,829.875 C3896.92,825.459 3899.09,821.469 3899.09,817.905 C3899.09,815.503 3897.42,813.218 3894.09,811.049 C3891.15,809.189 3886.38,808.26 3879.8,808.26 C3870.19,808.26 3858.07,817.944 3843.42,837.312 C3833.66,850.25 3825.76,861.639 3819.72,871.478 C3822.66,869.851 3826.18,867.876 3830.29,865.552 C3835.33,862.685 3839.67,861.252 3843.31,861.252 C3852.37,861.252 3856.9,864.506 3856.9,871.013 C3856.9,877.444 3853.18,884.494 3845.75,892.164 C3840.48,897.587 3837.84,901.616 3837.84,904.25 C3837.84,906.961 3840.48,908.317 3845.75,908.317 C3848.38,908.317 3851.09,907.388 3853.88,905.528 C3856.67,903.746 3858.72,902.855 3860.04,902.855 C3861.13,902.855 3861.67,903.553 3861.67,904.947 C3861.67,907.194 3859.5,909.557 3855.16,912.036 C3847.88,916.22 3842.03,918.311 3837.61,918.311 C3829.79,918.311 3825.87,914.128 3825.87,905.761 C3825.87,900.492 3828.9,894.643 3834.94,888.213 C3839.36,883.487 3841.56,878.8 3841.56,874.151 C3841.56,870.123 3839.39,868.108 3835.06,868.108 C3833.35,868.108 3827.7,870.123 3818.09,874.151 C3815.22,878.955 3812.82,883.371 3810.88,887.399 C3803.52,902.739 3798.64,910.409 3796.24,910.409"/>
<path class="Note" d="M3868.87,739.77 C3873.21,736.826 3876.35,734.386 3878.29,732.449 C3881.85,728.652 3883.63,725.166 3883.63,721.99 C3883.63,718.348 3881.62,716.528 3877.59,716.528 C3869.76,716.528 3861.4,723.423 3852.49,737.213 C3849.78,741.397 3843.81,755.032 3834.59,778.12 C3841.95,785.712 3845.63,790.012 3845.63,791.019 C3845.63,792.414 3844.74,793.111 3842.96,793.111 C3841.56,793.111 3837.73,790.748 3831.45,786.022 C3824.64,801.904 3814.29,815.462 3800.42,826.696 C3786.25,838.162 3769.32,843.895 3749.64,843.895 C3742.13,843.895 3732.71,842.152 3721.4,838.666 C3712.34,835.876 3707.8,831.422 3707.8,825.301 C3707.8,816.237 3711.29,811.705 3718.26,811.705 C3722.45,811.705 3724.54,813.641 3724.54,817.515 C3724.54,818.755 3723.57,820.072 3721.63,821.466 C3720.63,822.164 3720.12,823.519 3720.12,825.534 C3720.12,827.935 3722.8,830.415 3728.14,832.971 C3733.95,835.76 3742.47,837.155 3753.71,837.155 C3768.2,837.155 3782.18,830.879 3795.66,818.329 C3807.9,806.94 3816.69,793.692 3822.04,778.584 C3819.95,776.88 3817.7,775.021 3815.3,773.006 C3807.86,768.59 3804.14,764.058 3804.14,759.41 C3804.14,757.473 3805.42,756.504 3807.98,756.504 C3811.39,756.504 3816,759.41 3821.81,765.22 C3823.05,766.46 3824.21,767.622 3825.29,768.707 C3828.01,761.269 3832.34,751.817 3838.31,740.351 C3849.08,719.588 3862.17,709.207 3877.59,709.207 C3883.09,709.207 3887.43,710.252 3890.6,712.344 C3893.78,714.436 3895.37,717.303 3895.37,720.944 C3895.37,726.754 3893.24,731.674 3888.98,735.703 C3884.56,739.886 3879.95,741.978 3875.15,741.978 C3870.96,741.978 3868.87,741.242 3868.87,739.77"/>
<path class="Note" d="M3868.87,650.479 C3873.21,647.535 3876.35,645.094 3878.29,643.157 C3881.85,639.361 3883.63,635.875 3883.63,632.698 C3883.63,629.057 3881.62,627.236 3877.59,627.236 C3869.76,627.236 3861.4,634.132 3852.49,647.922 C3849.78,652.106 3843.81,665.741 3834.59,688.828 C3841.95,696.421 3845.63,700.721 3845.63,701.728 C3845.63,703.122 3844.74,703.819 3842.96,703.819 C3841.56,703.819 3837.73,701.457 3831.45,696.731 C3824.64,712.613 3814.29,726.171 3800.42,737.404 C3786.25,748.871 3769.32,754.604 3749.64,754.604 C3742.13,754.604 3732.71,752.86 3721.4,749.374 C3712.34,746.585 3707.8,742.13 3707.8,736.01 C3707.8,726.945 3711.29,722.413 3718.26,722.413 C3722.45,722.413 3724.54,724.35 3724.54,728.224 C3724.54,729.463 3723.57,730.78 3721.63,732.175 C3720.63,732.872 3720.12,734.228 3720.12,736.242 C3720.12,738.644 3722.8,741.123 3728.14,743.68 C3733.95,746.469 3742.47,747.863 3753.71,747.863 C3768.2,747.863 3782.18,741.588 3795.66,729.037 C3807.9,717.649 3816.69,704.401 3822.04,689.293 C3819.95,687.589 3817.7,685.729 3815.3,683.715 C3807.86,679.299 3804.14,674.767 3804.14,670.118 C3804.14,668.181 3805.42,667.213 3807.98,667.213 C3811.39,667.213 3816,670.118 3821.81,675.929 C3823.05,677.168 3824.21,678.331 3825.29,679.415 C3828.01,671.978 3832.34,662.526 3838.31,651.06 C3849.08,630.297 3862.17,619.915 3877.59,619.915 C3883.09,619.915 3887.43,620.961 3890.6,623.053 C3893.78,625.145 3895.37,628.011 3895.37,631.652 C3895.37,637.463 3893.24,642.383 3888.98,646.411 C3884.56,650.595 3879.95,652.687 3875.15,652.687 C3870.96,652.687 3868.87,651.951 3868.87,650.479"/>
<path class="Clef" transform="matrix(2.3811,0,0,2.3811,212.156,2076.38)" d="M25.4,-25.1 C17.8,-25.1 11.7,-20.7 11.6,-20.7 C5.8,-16.4 3.5,-11.3 2.6,-7.8 C2.1,-6 1.9,-4.2 1.9,-2.5 C1.9,-0.1 2.3,2.1 3.2,4 C4.4,6.7 6.7,8.6 9.7,9.6 C10.9,10 12.2,10.2 13.5,10.2 C15.7,10.2 18,9.6 19.9,8.5 C23,6.8 24.9,3.2 24.9,-0.7 C24.9,-4.2 23.1,-7.4 20.1,-9.3 C18,-10.7 16,-11.1 14.3,-11.1 C13.1,-11.1 12,-10.9 11.1,-10.6 C10.1,-10.2 8.4,-9.2 7.6,-8.5 C7.9,-10.4 9.1,-13.3 10.2,-14.9 C11.3,-16.5 13.5,-18.5 15.2,-19.4 C17.7,-20.8 20.9,-21.4 24.4,-21.4 C34.6,-21.4 39.6,-13.2 39.6,3.6 C39.6,12.9 36.1,21.8 33.1,27.7 C29.8,34.3 25.4,40.6 21.5,44.1 C11.1,53.6 1.3,58.1 1.2,58.1 C1.2,58.1 -0.3,59 0.1,60.5 C0.4,61.5 1.3,61.7 1.9,61.7 C2,61.7 2.3,61.6 2.4,61.6 C2.5,61.6 13.9,56.9 23,49.8 C28.1,46.1 32.7,42.1 36.7,37.8 C40.3,33.9 43.4,29.7 45.9,25.5 C50.3,18 52.8,10.2 52.8,3.5 C52.8,-4.8 50.6,-11.7 46.5,-16.6 C41.8,-22.2 34.7,-25.1 25.4,-25.1 M56.8,-12.4 C56.8,-9.6 59,-7.4 61.6,-7.4 C64.2,-7.4 66.4,-9.6 66.4,-12.4 C66.4,-15.2 64.2,-17.5 61.6,-17.5 C59,-17.5 56.8,-15.2 56.8,-12.4 M56.8,12.3 C56.8,15.1 59,17.4 61.6,17.4 C64.2,17.4 66.4,15.1 66.4,12.3 C66.4,9.5 64.2,7.2 61.6,7.2 C59,7.2 56.8,9.5 56.8,12.3"/>
<path class="Clef" transform="matrix(2.3811,0,0,2.3811,212.156,1570.39)" d="M63.37,-5.89004 C62.14,-11.32 59.5,-15.14 58.72,-16.1801 C55.5301,-20.45 51.52,-23.3 46.8301,-24.65 C43.72,-25.54 40.72,-25.65 38.3,-25.47 C37.2601,-31.4801 36.2601,-37.3601 35.35,-42.8101 C40.79,-48.97 44.42,-54.77 46.69,-59.07 C50.1601,-65.65 51.3101,-70.2301 51.3601,-70.4301 C53.0801,-75.64 53.44,-83.34 52.34,-91.55 C51.3301,-99.1 49.24,-105.81 46.89,-109.06 C45.8601,-110.49 44.8101,-111.22 43.77,-111.22 C42.55,-111.22 40.04,-109.98 37.15,-107.21 C34.85,-105.01 31.5801,-101.12 29.02,-95.1101 C26.02,-88.05 25.8101,-78.5601 26.1601,-71.84 C26.54,-64.57 27.65,-58.8801 27.6601,-58.8301 C27.6801,-58.74 27.94,-57.24 28.39,-54.67 C28.1601,-54.44 27.92,-54.22 27.67,-53.9801 C26.6301,-52.9801 25.44,-51.84 24.0601,-50.4601 C23.2,-49.6 22.25,-48.69 21.25,-47.72 C12.79,-39.57 0,-27.25 0,-8.1 C0,-3.4 0.9,1.01992 2.68008,5.02998 C4.27002,8.62998 6.57002,11.91 9.5,14.78 C17.2301,22.33 27.82,25.5399 34.8801,25.38 C37.8301,25.31 40.4601,25.0699 42.85,24.6199 C44.6801,34.2199 45.82,41.25 45.8601,46.5899 C45.9,53.1 44.25,57.0699 40.35,59.8399 C37.92,61.5699 35.1101,62.5199 32.0101,62.6699 C29.42,62.7899 27.1601,62.3199 25.7301,61.91 L25.72,61.91 C25.72,61.91 25.4301,61.83 25.42,61.63 C25.4101,61.45 25.7601,61.4 25.77,61.4 L25.79,61.4 C27.7101,60.96 31.2801,59.73 33.64,56.43 C35.44,53.91 36.3101,49.2899 34.47,45.35 C33.3601,42.96 30.85,40.01 25.2301,39.56 C22.74,39.36 20.47,39.8699 18.47,41.0699 C16.6601,42.15 15.1601,43.7899 14.1101,45.7899 C11.65,50.4899 12.1101,56.2199 15.24,60.06 C18.2,63.68 22.82,65.9899 28.25,66.5699 C29.1,66.66 29.95,66.7 30.8,66.7 C31.5101,66.7 32.22,66.6699 32.92,66.61 C31.72,66.9399 30.64,67.4899 29.77,68.25 C28.2801,69.5399 27.44,71.38 27.44,73.41 C27.44,75.28 28.0601,76.65 29.55,78.0399 C28.4101,78.5 27.55,78.98 26.79,79.56 C25.25,80.73 24.34,82.46 24.34,84.1899 C24.34,87.45 27.3,89.63 31.72,89.63 C37.1301,89.63 40.9101,86.63 40.9101,82.35 C40.9101,80.1199 39.9101,78.18 38.0801,76.83 C41.0101,75.6199 42.37,73.9399 42.37,71.56 C42.39,70.05 41.69,68.61 40.49,67.6899 C39.2801,66.7399 37.62,66.2399 35.69,66.2399 L35.5101,66.2399 C38.2801,65.7 40.92,64.7 43.2101,63.28 C46.87,60.71 48.99,56.73 49.67,51.1 C50.2301,46.46 49.84,40.55 48.44,32.48 C48.0801,30.3899 47.54,27.36 46.8801,23.6 C52.6301,21.68 56.79,18.11 60.5601,12.26 C63.85,6.51992 64.8,0.419922 63.37,-5.89004 M32.39,87.5399 C30.19,87.5399 28.7301,86.1199 28.7301,84.01 C28.7301,82.11 29.65,80.5 31.32,79.4699 C31.6801,79.66 31.77,79.71 32.1101,79.88 C33.3,80.48 33.3,80.48 33.55,80.63 L33.5601,80.6399 C35.47,81.73 36.25,82.76 36.25,84.18 C36.24,86.0899 34.59,87.5399 32.39,87.5399 M38.3101,71.63 C38.3101,73.2699 37.7301,74.3399 36.1801,75.53 C34.74,74.78 34.35,74.56 33.9801,74.3399 L33.8801,74.28 C32.3301,73.3399 31.85,72.66 31.85,71.4 C31.85,69.6 33.2301,68.3399 35.19,68.3399 C37.17,68.35 38.3101,69.55 38.3101,71.63 M33.15,-83.8101 C34.9301,-89.55 37.67,-92.8 39.6601,-94.5301 C41.4101,-96.05 43.0601,-96.7601 43.9801,-96.7601 C44.12,-96.7601 44.24,-96.74 44.34,-96.7101 C44.8,-96.57 45.3301,-96 45.8,-95.1301 C48.1101,-90.84 47.37,-84.1301 46.0301,-79.69 C44.4,-74.29 41.4801,-68.6801 32.69,-59.0601 C32.52,-60.17 32.3601,-61.22 32.2101,-62.2 C30.95,-70.49 31.27,-77.7601 33.15,-83.8101 M29.15,20.31 C24.5101,19.0899 20.0801,16.5899 16.32,13.0899 C15.0101,11.86 13.14,9.68994 11.67,6.3 C10.3101,3.13994 9.65,-0.290039 9.7,-3.88008 C9.77002,-8.57002 11.0801,-13.39 13.59,-18.1801 C16.5101,-23.7601 21.07,-29.29 27.1301,-34.62 C28.5801,-35.9 29.95,-37.1801 31.24,-38.4601 C32,-34.2 32.8301,-29.5101 33.7101,-24.6301 C29.8601,-23.3601 25.1101,-20.2101 22,-14.5601 C18.47,-7.99004 18.6101,-2.47002 19.34,1.00996 C20.2801,5.46992 22.8101,9.22998 26.27,11.3199 C27.2,11.88 31.3301,14.01 33.17,13.43 C33.54,13.31 33.8101,13.0899 33.95,12.76 C34.4601,11.5899 33.44,10.95 31.8801,9.98994 C31.2801,9.61992 30.6101,9.2 29.8801,8.66992 C26.5601,6.17998 25.1101,1.72998 26.1801,-2.65 C26.7601,-5.05 28.04,-7.21006 29.8801,-8.91006 C31.55,-10.4601 33.59,-11.5601 35.97,-12.2 C38.0101,-0.960059 40.07,10.1899 41.7101,18.55 C41.84,19.2399 41.9801,19.91 42.1101,20.58 C37.7101,21.51 33.37,21.4199 29.15,20.31 M54.9,10.1 C53.7301,13.28 51.27,17.35 46.14,19.41 C46.07,18.9899 45.99,18.56 45.9101,18.13 C44.3601,9.36992 42.4301,-1.61006 40.47,-12.87 C50.82,-13.35 55.09,-5.91006 55.9801,-1.08008 C56.45,1.45 56.45,5.88994 54.9,10.1"/>
<path class="FiguredBass" d="M1031.55,2444.42 C1030.87,2445.16 1029.97,2445.53 1028.86,2445.53 C1027.75,2445.53 1026.84,2445.15 1026.12,2444.37 C1025.41,2443.6 1025.06,2442.72 1025.06,2441.73 L1025.06,2428.46 L1011.79,2428.46 C1010.68,2428.46 1009.77,2428.08 1009.05,2427.3 C1008.34,2426.53 1007.99,2425.65 1007.99,2424.66 C1007.99,2423.67 1008.34,2422.79 1009.05,2422.01 C1009.77,2421.24 1010.68,2420.85 1011.79,2420.85 L1025.06,2420.85 L1025.06,2407.59 C1025.06,2406.6 1025.41,2405.72 1026.12,2404.94 C1026.84,2404.17 1027.75,2403.78 1028.86,2403.78 C1029.97,2403.78 1030.89,2404.17 1031.6,2404.94 C1032.31,2405.72 1032.67,2406.6 1032.67,2407.59 L1032.67,2420.85 L1045.93,2420.85 C1047.04,2420.85 1047.96,2421.24 1048.67,2422.01 C1049.38,2422.79 1049.74,2423.67 1049.74,2424.66 C1049.74,2425.65 1049.38,2426.53 1048.67,2427.3 C1047.96,2428.08 1047.04,2428.46 1045.93,2428.46 L1032.67,2428.46 L1032.67,2441.73 C1032.67,2442.72 1032.29,2443.62 1031.55,2444.42 M1084.98,2390.15 C1080.4,2390.15 1077.35,2391.99 1075.84,2395.67 C1074.32,2399.35 1073.56,2404.56 1073.56,2411.3 L1073.56,2422.25 C1076.78,2420.95 1079.56,2420.27 1081.91,2420.21 C1089.95,2420.21 1096.28,2421.98 1100.89,2425.54 C1105.49,2429.1 1107.8,2434.38 1107.8,2441.4 C1107.8,2448.42 1105.46,2453.73 1100.79,2457.31 C1096.12,2460.9 1089.83,2462.7 1081.91,2462.7 C1073.81,2462.7 1067.47,2458.94 1062.9,2451.42 C1058.32,2443.91 1056.03,2434.99 1056.03,2424.66 C1056.03,2414.39 1058.69,2405.49 1064.01,2397.94 C1069.33,2390.39 1076.32,2386.62 1084.98,2386.62 C1090.67,2386.62 1095.58,2388.06 1099.73,2390.94 C1103.87,2393.81 1105.94,2397.6 1105.94,2402.3 C1105.94,2405.02 1104.95,2407.37 1102.97,2409.35 C1100.99,2411.33 1098.63,2412.32 1095.88,2412.32 C1093.12,2412.32 1090.76,2411.33 1088.78,2409.35 C1086.8,2407.37 1085.81,2405.02 1085.81,2402.3 C1085.81,2399.64 1086.8,2397.29 1088.78,2395.25 C1089.46,2394.45 1090.42,2393.76 1091.66,2393.21 C1091.35,2392.4 1090.73,2391.79 1089.8,2391.35 C1088.44,2390.55 1086.83,2390.15 1084.98,2390.15 M1089.52,2428.09 C1088.41,2425.18 1085.97,2423.73 1082.19,2423.73 C1078.42,2423.73 1076.08,2425.18 1075.19,2428.09 C1074.29,2431 1073.84,2435.42 1073.84,2441.36 C1073.84,2448.35 1074.29,2453.05 1075.19,2455.46 C1076.08,2457.87 1078.42,2459.08 1082.19,2459.08 C1085.97,2459.08 1088.41,2457.62 1089.52,2454.72 C1090.63,2451.81 1091.19,2447.37 1091.19,2441.4 C1091.19,2435.44 1090.63,2431 1089.52,2428.09"/>
<path class="FiguredBass" d="M1488.19,2390.15 C1483.62,2390.15 1480.57,2391.99 1479.06,2395.67 C1477.54,2399.35 1476.78,2404.56 1476.78,2411.3 L1476.78,2422.25 C1480,2420.95 1482.78,2420.27 1485.13,2420.21 C1493.17,2420.21 1499.5,2421.98 1504.1,2425.54 C1508.71,2429.1 1511.02,2434.38 1511.02,2441.4 C1511.02,2448.42 1508.68,2453.73 1504.01,2457.31 C1499.34,2460.9 1493.05,2462.7 1485.13,2462.7 C1477.03,2462.7 1470.69,2458.94 1466.11,2451.42 C1461.54,2443.91 1459.25,2434.99 1459.25,2424.66 C1459.25,2414.39 1461.91,2405.49 1467.23,2397.94 C1472.55,2390.39 1479.53,2386.62 1488.19,2386.62 C1493.88,2386.62 1498.8,2388.06 1502.94,2390.94 C1507.09,2393.81 1509.16,2397.6 1509.16,2402.3 C1509.16,2405.02 1508.17,2407.37 1506.19,2409.35 C1504.21,2411.33 1501.85,2412.32 1499.09,2412.32 C1496.34,2412.32 1493.98,2411.33 1492,2409.35 C1490.02,2407.37 1489.03,2405.02 1489.03,2402.3 C1489.03,2399.64 1490.02,2397.29 1492,2395.25 C1492.68,2394.45 1493.64,2393.76 1494.87,2393.21 C1494.56,2392.4 1493.95,2391.79 1493.02,2391.35 C1491.66,2390.55 1490.05,2390.15 1488.19,2390.15 M1492.74,2428.09 C1491.63,2425.18 1489.18,2423.73 1485.41,2423.73 C1481.64,2423.73 1479.3,2425.18 1478.41,2428.09 C1477.51,2431 1477.06,2435.42 1477.06,2441.36 C1477.06,2448.35 1477.51,2453.05 1478.41,2455.46 C1479.3,2457.87 1481.64,2459.08 1485.41,2459.08 C1489.18,2459.08 1491.63,2457.62 1492.74,2454.72 C1493.85,2451.81 1494.41,2447.37 1494.41,2441.4 C1494.41,2435.44 1493.85,2431 1492.74,2428.09"/>
<path class="FiguredBass" d="M2092.25,2390.15 C2087.68,2390.15 2084.63,2391.99 2083.12,2395.67 C2081.6,2399.35 2080.84,2404.56 2080.84,2411.3 L2080.84,2422.25 C2084.06,2420.95 2086.84,2420.27 2089.19,2420.21 C2097.23,2420.21 2103.56,2421.98 2108.16,2425.54 C2112.77,2429.1 2115.08,2434.38 2115.08,2441.4 C2115.08,2448.42 2112.74,2453.73 2108.07,2457.31 C2103.4,2460.9 2097.11,2462.7 2089.19,2462.7 C2081.09,2462.7 2074.75,2458.94 2070.17,2451.42 C2065.6,2443.91 2063.31,2434.99 2063.31,2424.66 C2063.31,2414.39 2065.97,2405.49 2071.29,2397.94 C2076.61,2390.39 2083.59,2386.62 2092.25,2386.62 C2097.94,2386.62 2102.86,2388.06 2107,2390.94 C2111.15,2393.81 2113.22,2397.6 2113.22,2402.3 C2113.22,2405.02 2112.23,2407.37 2110.25,2409.35 C2108.27,2411.33 2105.91,2412.32 2103.15,2412.32 C2100.4,2412.32 2098.04,2411.33 2096.06,2409.35 C2094.08,2407.37 2093.09,2405.02 2093.09,2402.3 C2093.09,2399.64 2094.08,2397.29 2096.06,2395.25 C2096.74,2394.45 2097.7,2393.76 2098.93,2393.21 C2098.62,2392.4 2098.01,2391.79 2097.08,2391.35 C2095.72,2390.55 2094.11,2390.15 2092.25,2390.15 M2096.8,2428.09 C2095.69,2425.18 2093.24,2423.73 2089.47,2423.73 C2085.7,2423.73 2083.36,2425.18 2082.47,2428.09 C2081.57,2431 2081.12,2435.42 2081.12,2441.36 C2081.12,2448.35 2081.57,2453.05 2082.47,2455.46 C2083.36,2457.87 2085.7,2459.08 2089.47,2459.08 C2093.24,2459.08 2095.69,2457.62 2096.8,2454.72 C2097.91,2451.81 2098.47,2447.37 2098.47,2441.4 C2098.47,2435.44 2097.91,2431 2096.8,2428.09"/>
<path class="FiguredBass" d="M2069.62,2492.37 C2069.62,2492.37 2071.1,2492.59 2074.07,2493.02 C2075.37,2493.21 2076.82,2493.39 2078.43,2493.58 C2082.7,2494.07 2086.81,2494.32 2090.77,2494.32 C2094.73,2494.32 2098.9,2494.07 2103.29,2493.58 C2105.03,2493.39 2106.54,2493.21 2107.84,2493.02 L2112.39,2492.37 C2113.31,2492.37 2114.01,2492.68 2114.47,2493.3 C2114.94,2493.92 2114.89,2494.41 2114.33,2494.78 C2104.87,2504.25 2091.54,2508.98 2074.35,2508.98 C2073.67,2508.98 2073.06,2509.23 2072.54,2509.72 C2072.01,2510.21 2071.75,2510.83 2071.75,2511.58 L2071.75,2526.14 C2076.14,2521.81 2081.46,2519.65 2087.71,2519.65 C2096.74,2519.65 2103.71,2521.67 2108.63,2525.72 C2113.54,2529.77 2116,2535.91 2116,2544.14 C2116,2551.13 2113.22,2556.93 2107.65,2561.53 C2102.09,2566.14 2095.44,2568.45 2087.71,2568.45 C2081.03,2568.45 2075.23,2566.93 2070.31,2563.9 C2065.4,2560.87 2062.94,2556.66 2062.94,2551.28 C2062.94,2548.56 2063.93,2546.2 2065.91,2544.19 C2067.88,2542.18 2070.25,2541.17 2073,2541.17 C2075.76,2541.17 2078.09,2542.16 2080.01,2544.14 C2081.92,2546.12 2082.88,2548.5 2082.88,2551.28 C2082.88,2552.52 2081.86,2553.86 2079.82,2555.32 C2077.78,2556.77 2076.76,2558.12 2076.76,2559.35 C2076.76,2563.06 2080.41,2564.92 2087.71,2564.92 C2094.82,2564.92 2098.38,2557.99 2098.38,2544.14 C2098.38,2530.78 2094.82,2524.07 2087.71,2524.01 C2081.34,2524.01 2076.88,2525.31 2074.35,2527.9 C2071.81,2530.5 2070.24,2531.8 2069.62,2531.8 C2068.07,2531.8 2067.33,2531.03 2067.39,2529.48 L2067.39,2494.78 C2067.39,2494.1 2067.61,2493.53 2068.04,2493.07 C2068.47,2492.6 2069,2492.37 2069.62,2492.37"/>
<path class="FiguredBass" d="M2524.64,2453.05 L2524.64,2472.44 C2524.64,2474.35 2523.67,2475.31 2521.72,2475.31 C2519.77,2475.31 2518.8,2474.35 2518.8,2472.44 L2518.8,2455.55 L2515.83,2456.76 C2515.52,2456.88 2515.12,2456.94 2514.62,2456.94 C2513.82,2456.94 2513.11,2456.63 2512.49,2456.02 C2511.87,2455.4 2511.56,2454.69 2511.56,2453.88 L2511.56,2444.42 C2511.56,2443.06 2512.21,2442.1 2513.51,2441.54 L2518.8,2439.32 L2518.8,2419.83 L2515.83,2421.04 C2515.64,2421.1 2515.4,2421.13 2515.09,2421.13 C2514.96,2421.13 2514.81,2421.13 2514.62,2421.13 C2513.7,2421.01 2512.95,2420.67 2512.4,2420.11 C2511.84,2419.56 2511.56,2418.91 2511.56,2418.16 L2511.56,2408.7 C2511.56,2407.4 2512.21,2406.47 2513.51,2405.92 L2518.8,2403.69 L2518.8,2383.93 C2518.8,2382.01 2519.77,2381.05 2521.72,2381.05 C2523.67,2381.05 2524.64,2382.01 2524.64,2383.93 L2524.64,2401.28 L2536.61,2396.27 L2536.61,2376.88 C2536.61,2374.96 2537.57,2374 2539.49,2374 C2541.4,2374 2542.36,2374.96 2542.36,2376.88 L2542.36,2393.95 L2545.61,2392.56 C2545.92,2392.44 2546.26,2392.37 2546.63,2392.37 C2547.44,2392.37 2548.16,2392.68 2548.81,2393.3 C2549.46,2393.92 2549.79,2394.63 2549.79,2395.43 L2549.79,2404.9 C2549.79,2406.26 2549.1,2407.22 2547.74,2407.77 L2542.36,2410 L2542.36,2429.58 L2545.61,2428.28 C2545.8,2428.21 2546.01,2428.18 2546.26,2428.18 C2546.38,2428.18 2546.51,2428.18 2546.63,2428.18 C2547.68,2428.37 2548.47,2428.71 2549,2429.2 C2549.52,2429.7 2549.79,2430.35 2549.79,2431.15 L2549.79,2440.62 C2549.79,2441.91 2549.1,2442.84 2547.74,2443.4 L2542.36,2445.63 L2542.36,2465.39 C2542.36,2467.3 2541.4,2468.26 2539.49,2468.26 C2537.57,2468.26 2536.61,2467.3 2536.61,2465.39 L2536.61,2448.04 L2524.64,2453.05 M2524.64,2436.9 L2536.61,2431.99 L2536.61,2412.41 L2524.64,2417.42 L2524.64,2436.9 "/>
<path class="FiguredBass" d="M2974.66,2390.15 C2970.08,2390.15 2967.04,2391.99 2965.52,2395.67 C2964.01,2399.35 2963.25,2404.56 2963.25,2411.3 L2963.25,2422.25 C2966.47,2420.95 2969.25,2420.27 2971.6,2420.21 C2979.64,2420.21 2985.96,2421.98 2990.57,2425.54 C2995.18,2429.1 2997.48,2434.38 2997.48,2441.4 C2997.48,2448.42 2995.15,2453.73 2990.48,2457.31 C2985.81,2460.9 2979.52,2462.7 2971.6,2462.7 C2963.5,2462.7 2957.16,2458.94 2952.58,2451.42 C2948,2443.91 2945.72,2434.99 2945.72,2424.66 C2945.72,2414.39 2948.38,2405.49 2953.69,2397.94 C2959.01,2390.39 2966,2386.62 2974.66,2386.62 C2980.35,2386.62 2985.27,2388.06 2989.41,2390.94 C2993.56,2393.81 2995.63,2397.6 2995.63,2402.3 C2995.63,2405.02 2994.64,2407.37 2992.66,2409.35 C2990.68,2411.33 2988.31,2412.32 2985.56,2412.32 C2982.81,2412.32 2980.44,2411.33 2978.46,2409.35 C2976.49,2407.37 2975.5,2405.02 2975.5,2402.3 C2975.5,2399.64 2976.49,2397.29 2978.46,2395.25 C2979.14,2394.45 2980.1,2393.76 2981.34,2393.21 C2981.03,2392.4 2980.41,2391.79 2979.49,2391.35 C2978.12,2390.55 2976.52,2390.15 2974.66,2390.15 M2979.21,2428.09 C2978.09,2425.18 2975.65,2423.73 2971.88,2423.73 C2968.1,2423.73 2965.77,2425.18 2964.87,2428.09 C2963.98,2431 2963.53,2435.42 2963.53,2441.36 C2963.53,2448.35 2963.98,2453.05 2964.87,2455.46 C2965.77,2457.87 2968.1,2459.08 2971.88,2459.08 C2975.65,2459.08 2978.09,2457.62 2979.21,2454.72 C2980.32,2451.81 2980.88,2447.37 2980.88,2441.4 C2980.88,2435.44 2980.32,2431 2979.21,2428.09"/>
<path class="FiguredBass" d="M3428.54,2390.15 C3423.97,2390.15 3420.92,2391.99 3419.41,2395.67 C3417.89,2399.35 3417.13,2404.56 3417.13,2411.3 L3417.13,2422.25 C3420.35,2420.95 3423.13,2420.27 3425.48,2420.21 C3433.52,2420.21 3439.85,2421.98 3444.45,2425.54 C3449.06,2429.1 3451.37,2434.38 3451.37,2441.4 C3451.37,2448.42 3449.03,2453.73 3444.36,2457.31 C3439.69,2460.9 3433.4,2462.7 3425.48,2462.7 C3417.38,2462.7 3411.04,2458.94 3406.46,2451.42 C3401.89,2443.91 3399.6,2434.99 3399.6,2424.66 C3399.6,2414.39 3402.26,2405.49 3407.58,2397.94 C3412.9,2390.39 3419.89,2386.62 3428.54,2386.62 C3434.23,2386.62 3439.15,2388.06 3443.3,2390.94 C3447.44,2393.81 3449.51,2397.6 3449.51,2402.3 C3449.51,2405.02 3448.52,2407.37 3446.54,2409.35 C3444.56,2411.33 3442.2,2412.32 3439.44,2412.32 C3436.69,2412.32 3434.33,2411.33 3432.35,2409.35 C3430.37,2407.37 3429.38,2405.02 3429.38,2402.3 C3429.38,2399.64 3430.37,2397.29 3432.35,2395.25 C3433.03,2394.45 3433.99,2393.76 3435.22,2393.21 C3434.91,2392.4 3434.3,2391.79 3433.37,2391.35 C3432.01,2390.55 3430.4,2390.15 3428.54,2390.15 M3433.09,2428.09 C3431.98,2425.18 3429.53,2423.73 3425.76,2423.73 C3421.99,2423.73 3419.65,2425.18 3418.76,2428.09 C3417.86,2431 3417.41,2435.42 3417.41,2441.36 C3417.41,2448.35 3417.86,2453.05 3418.76,2455.46 C3419.65,2457.87 3421.99,2459.08 3425.76,2459.08 C3429.53,2459.08 3431.98,2457.62 3433.09,2454.72 C3434.2,2451.81 3434.76,2447.37 3434.76,2441.4 C3434.76,2435.44 3434.2,2431 3433.09,2428.09"/>
<path class="FiguredBass" d="M3405.91,2492.37 L3410.36,2493.02 C3411.54,2493.21 3412.99,2493.39 3414.72,2493.58 C3418.99,2494.07 3423.1,2494.32 3427.06,2494.32 C3431.02,2494.32 3435.19,2494.07 3439.58,2493.58 C3441.32,2493.39 3442.83,2493.21 3444.13,2493.02 L3448.68,2492.37 C3449.6,2492.37 3450.31,2492.68 3450.81,2493.3 C3451.18,2493.79 3451.12,2494.29 3450.62,2494.78 C3440.98,2504.25 3427.65,2508.98 3410.64,2508.98 C3409.96,2508.98 3409.36,2509.23 3408.83,2509.72 C3408.3,2510.21 3408.04,2510.83 3408.04,2511.58 L3408.04,2523.36 C3412.43,2519.03 3417.75,2516.86 3424,2516.86 C3432.72,2516.86 3439.52,2518.9 3444.41,2522.99 C3449.73,2518.97 3452.51,2513.83 3452.76,2507.59 C3452.82,2505.61 3453.47,2504 3454.71,2502.76 C3456.07,2501.52 3457.71,2500.91 3459.62,2500.91 C3461.54,2500.91 3463.16,2501.56 3464.49,2502.85 C3465.82,2504.15 3466.49,2505.73 3466.49,2507.59 C3466.49,2517.17 3460.83,2524.44 3449.51,2529.39 C3451.37,2533.04 3452.29,2537.49 3452.29,2542.75 C3452.29,2549.74 3449.51,2555.77 3443.94,2560.84 C3438.38,2565.91 3431.73,2568.45 3424,2568.45 C3417.32,2568.45 3411.52,2566.93 3406.6,2563.9 C3401.69,2560.87 3399.23,2556.66 3399.23,2551.28 C3399.23,2548.56 3400.22,2546.2 3402.2,2544.19 C3404.18,2542.18 3406.54,2541.17 3409.29,2541.17 C3412.05,2541.17 3414.38,2542.16 3416.3,2544.14 C3418.22,2546.12 3419.17,2548.5 3419.17,2551.28 C3419.17,2552.52 3418.15,2553.86 3416.11,2555.32 C3414.07,2556.77 3413.05,2558.12 3413.05,2559.35 C3413.05,2563.06 3416.7,2564.92 3424,2564.92 C3431.11,2564.92 3434.67,2557.53 3434.67,2542.75 C3434.67,2539.47 3434.48,2536.59 3434.11,2534.12 C3426.63,2535.67 3417.26,2536.87 3406,2537.74 C3404.45,2537.86 3403.68,2537.09 3403.68,2535.42 C3403.68,2534.06 3404.45,2533.32 3406,2533.19 C3417.38,2532.26 3426.35,2530.78 3432.9,2528.74 C3431.17,2523.79 3428.2,2521.29 3424,2521.22 C3417.63,2521.22 3413.17,2522.52 3410.64,2525.12 C3408.1,2527.72 3406.53,2529.02 3405.91,2529.02 C3404.42,2529.02 3403.68,2528.24 3403.68,2526.7 L3403.68,2494.78 C3403.68,2494.16 3403.9,2493.61 3404.33,2493.11 C3404.82,2492.62 3405.35,2492.37 3405.91,2492.37"/>
<path class="Bracket" transform="matrix(8.6315,0,0,8.6315,76.1283,2254.96)" d="M0.92002,-50 C2.69004,-51.88 6.2,-55.8 6.2,-63 C6.2,-72.1 2.25996,-81.32 2.25996,-86.97 C2.25996,-93.06 5.84004,-98.84 5.95,-99 C6.05996,-99.16 6.05,-99.39 5.94004,-99.46 C5.82998,-99.53 5.62002,-99.47 5.49004,-99.32 C5.35996,-99.17 0,-93.75 0,-85.6 C0,-76.75 3.5,-70.58 3.5,-59.07 C3.5,-56.89 2.55996,-53.36 0.1,-50.33 C-0.0799805,-50.17 -0.1,-49.89 0.0599609,-49.7 L0.0700195,-49.69 L0.1,-49.66 C2.55996,-46.63 3.5,-43.1 3.5,-40.92 C3.5,-29.4 0,-23.24 0,-14.39 C0,-6.25 5.35996,-0.8 5.49004,-0.659961 C5.62002,-0.52002 5.8,-0.42998 5.94004,-0.52002 C6.07998,-0.609961 6.07998,-0.77998 5.95,-0.97998 C5.82002,-1.17998 2.25996,-6.92002 2.25996,-13.01 C2.25996,-18.66 6.2,-27.9 6.2,-37 C6.2,-44.3 2.69004,-48.12 0.92002,-50"/>
</svg>
