<?xml version="1.0" encoding="UTF-8" standalone="no"?>
<svg width="4535.42px" height="2976.38px" viewBox="0 0 4535.42 2976.38"
 xmlns="http://www.w3.org/2000/svg" xmlns:xlink="http://www.w3.org/1999/xlink" version="1.2" baseProfile="tiny">
<title>LaMineur (25)</title>
<desc>Generated by MuseScore 3.6.2</desc>
<polyline class="StaffLines" fill="none" stroke="#000000" stroke-width="6.55" stroke-linejoin="bevel" points="153.819,558.425 4464.56,558.425"/>
<polyline class="StaffLines" fill="none" stroke="#000000" stroke-width="6.55" stroke-linejoin="bevel" points="153.819,647.717 4464.56,647.717"/>
<polyline class="StaffLines" fill="none" stroke="#000000" stroke-width="6.55" stroke-linejoin="bevel" points="153.819,737.008 4464.56,737.008"/>
<polyline class="StaffLines" fill="none" stroke="#000000" stroke-width="6.55" stroke-linejoin="bevel" points="153.819,826.299 4464.56,826.299"/>
<polyline class="StaffLines" fill="none" stroke="#000000" stroke-width="6.55" stroke-linejoin="bevel" points="153.819,915.591 4464.56,915.591"/>
<polyline class="StaffLines" fill="none" stroke="#000000" stroke-width="6.55" stroke-linejoin="bevel" points="153.819,1004.88 4464.56,1004.88"/>
<polyline class="StaffLines" fill="none" stroke="#000000" stroke-width="6.55" stroke-linejoin="bevel" points="153.819,1391.81 4464.56,1391.81"/>
<polyline class="StaffLines" fill="none" stroke="#000000" stroke-width="6.55" stroke-linejoin="bevel" points="153.819,1451.34 4464.56,1451.34"/>
<polyline class="StaffLines" fill="none" stroke="#000000" stroke-width="6.55" stroke-linejoin="bevel" points="153.819,1510.87 4464.56,1510.87"/>
<polyline class="StaffLines" fill="none" stroke="#000000" stroke-width="6.55" stroke-linejoin="bevel" points="153.819,1570.39 4464.56,1570.39"/>
<polyline class="StaffLines" fill="none" stroke="#000000" stroke-width="6.55" stroke-linejoin="bevel" points="153.819,1629.92 4464.56,1629.92"/>
<polyline class="StaffLines" fill="none" stroke="#000000" stroke-width="6.55" stroke-linejoin="bevel" points="153.819,2016.85 4464.56,2016.85"/>
<polyline class="StaffLines" fill="none" stroke="#000000" stroke-width="6.55" stroke-linejoin="bevel" points="153.819,2076.38 4464.56,2076.38"/>
<polyline class="StaffLines" fill="none" stroke="#000000" stroke-width="6.55" stroke-linejoin="bevel" points="153.819,2135.91 4464.56,2135.91"/>
<polyline class="StaffLines" fill="none" stroke="#000000" stroke-width="6.55" stroke-linejoin="bevel" points="153.819,2195.43 4464.56,2195.43"/>
<polyline class="StaffLines" fill="none" stroke="#000000" stroke-width="6.55" stroke-linejoin="bevel" points="153.819,2254.96 4464.56,2254.96"/>
<polyline class="BarLine" fill="none" stroke="#000000" stroke-width="10.71" stroke-linejoin="bevel" points="159.176,2013.58 159.176,2258.23"/>
<polyline class="BarLine" fill="none" stroke="#000000" stroke-width="10.71" stroke-linejoin="bevel" points="894.117,2013.58 894.117,2258.23"/>
<polyline class="BarLine" fill="none" stroke="#000000" stroke-width="10.71" stroke-linejoin="bevel" points="1372.52,2013.58 1372.52,2258.23"/>
<polyline class="BarLine" fill="none" stroke="#000000" stroke-width="10.71" stroke-linejoin="bevel" points="1949.64,2013.58 1949.64,2258.23"/>
<polyline class="BarLine" fill="none" stroke="#000000" stroke-width="10.71" stroke-linejoin="bevel" points="2454.83,2013.58 2454.83,2258.23"/>
<polyline class="BarLine" fill="none" stroke="#000000" stroke-width="10.71" stroke-linejoin="bevel" points="2960.02,2013.58 2960.02,2258.23"/>
<polyline class="BarLine" fill="none" stroke="#000000" stroke-width="10.71" stroke-linejoin="bevel" points="3430.67,2013.58 3430.67,2258.23"/>
<polyline class="BarLine" fill="none" stroke="#000000" stroke-width="10.71" stroke-linejoin="bevel" points="3942.99,2013.58 3942.99,2258.23"/>
<polyline class="BarLine" fill="none" stroke="#000000" stroke-width="10.71" stroke-linejoin="bevel" points="4406.52,2013.58 4406.52,2258.23"/>
<polyline class="BarLine" fill="none" stroke="#000000" stroke-width="32.74" stroke-linejoin="bevel" points="4448.19,2013.58 4448.19,2258.23"/>
<polyline class="BarLine" fill="none" stroke="#000000" stroke-width="10.71" stroke-linejoin="bevel" points="159.176,1388.54 159.176,2016.85"/>
<polyline class="BarLine" fill="none" stroke="#000000" stroke-width="10.71" stroke-linejoin="bevel" points="894.117,1388.54 894.117,1633.2"/>
<polyline class="BarLine" fill="none" stroke="#000000" stroke-width="10.71" stroke-linejoin="bevel" points="1372.52,1388.54 1372.52,1633.2"/>
<polyline class="BarLine" fill="none" stroke="#000000" stroke-width="10.71" stroke-linejoin="bevel" points="1949.64,1388.54 1949.64,1633.2"/>
<polyline class="BarLine" fill="none" stroke="#000000" stroke-width="10.71" stroke-linejoin="bevel" points="2454.83,1388.54 2454.83,1633.2"/>
<polyline class="BarLine" fill="none" stroke="#000000" stroke-width="10.71" stroke-linejoin="bevel" points="2960.02,1388.54 2960.02,1633.2"/>
<polyline class="BarLine" fill="none" stroke="#000000" stroke-width="10.71" stroke-linejoin="bevel" points="3430.67,1388.54 3430.67,1633.2"/>
<polyline class="BarLine" fill="none" stroke="#000000" stroke-width="10.71" stroke-linejoin="bevel" points="3942.99,1388.54 3942.99,1633.2"/>
<polyline class="BarLine" fill="none" stroke="#000000" stroke-width="10.71" stroke-linejoin="bevel" points="4406.52,1388.54 4406.52,1633.2"/>
<polyline class="BarLine" fill="none" stroke="#000000" stroke-width="32.74" stroke-linejoin="bevel" points="4448.19,1388.54 4448.19,1633.2"/>
<polyline class="BarLine" fill="none" stroke="#000000" stroke-width="10.71" stroke-linejoin="bevel" points="159.176,555.151 159.176,1391.81"/>
<polyline class="BarLine" fill="none" stroke="#000000" stroke-width="10.71" stroke-linejoin="bevel" points="894.117,555.151 894.117,1008.16"/>
<polyline class="BarLine" fill="none" stroke="#000000" stroke-width="10.71" stroke-linejoin="bevel" points="1372.52,555.151 1372.52,1008.16"/>
<polyline class="BarLine" fill="none" stroke="#000000" stroke-width="10.71" stroke-linejoin="bevel" points="1949.64,555.151 1949.64,1008.16"/>
<polyline class="BarLine" fill="none" stroke="#000000" stroke-width="10.71" stroke-linejoin="bevel" points="2454.83,555.151 2454.83,1008.16"/>
<polyline class="BarLine" fill="none" stroke="#000000" stroke-width="10.71" stroke-linejoin="bevel" points="2960.02,555.151 2960.02,1008.16"/>
<polyline class="BarLine" fill="none" stroke="#000000" stroke-width="10.71" stroke-linejoin="bevel" points="3430.67,555.151 3430.67,1008.16"/>
<polyline class="BarLine" fill="none" stroke="#000000" stroke-width="10.71" stroke-linejoin="bevel" points="3942.99,555.151 3942.99,1008.16"/>
<polyline class="BarLine" fill="none" stroke="#000000" stroke-width="10.71" stroke-linejoin="bevel" points="4406.52,555.151 4406.52,1008.16"/>
<polyline class="BarLine" fill="none" stroke="#000000" stroke-width="32.74" stroke-linejoin="bevel" points="4448.19,555.151 4448.19,1008.16"/>
<path class="Accidental" transform="matrix(2.3811,0,0,2.3811,956.983,2046.61)" d="M16.6,-18.3 C16.4,-18.5 16.1,-18.6 15.8,-18.6 C15.7,-18.6 15.5,-18.5 15.4,-18.5 L2.8,-15 L2.8,-32.5 L0,-32.5 L0,17 C0,17.8 0.6,18.3 1.4,18.3 L1.8,18.3 L14.4,14.8 L14.4,32.3 L17.1,32.3 L17.1,-17.2 C17.1,-17.6 16.9,-18.1 16.6,-18.3 M14.4,6.5 L2.8,9.7 L2.8,-6.7 L14.4,-10 L14.4,6.5 "/>
<path class="Accidental" transform="matrix(2.3811,0,0,2.3811,1435.39,2076.38)" d="M16.6,-18.3 C16.4,-18.5 16.1,-18.6 15.8,-18.6 C15.7,-18.6 15.5,-18.5 15.4,-18.5 L2.8,-15 L2.8,-32.5 L0,-32.5 L0,17 C0,17.8 0.6,18.3 1.4,18.3 L1.8,18.3 L14.4,14.8 L14.4,32.3 L17.1,32.3 L17.1,-17.2 C17.1,-17.6 16.9,-18.1 16.6,-18.3 M14.4,6.5 L2.8,9.7 L2.8,-6.7 L14.4,-10 L14.4,6.5 "/>
<path class="Accidental" transform="matrix(2.3811,0,0,2.3811,2001.06,1778.74)" d="M23.3,-10.6 C23.9,-10.7 24.4,-11.4 24.4,-12 L24.4,-17.9 C24.4,-18.7 23.8,-19.3 23,-19.3 L22.8,-19.3 L19.5,-18.6 L19.5,-33.5 L16.7,-33.5 L16.7,-18 L7.8,-16.2 L7.8,-30.3 L5,-30.3 L5,-15.6 L1.1,-14.8 C0.5,-14.7 0,-14 0,-13.4 L0,-13.2 L0,-7.4 L0,-7.6 C0,-6.8 0.6,-6.2 1.4,-6.2 L1.7,-6.2 L5,-6.9 L5,9.6 L1.1,10.4 C0.5,10.5 0,11.2 0,11.8 L0,17.6 C0,18.4 0.6,19 1.4,19 L1.7,19 L5,18.3 L5,33.2 L7.8,33.2 L7.8,17.7 L16.7,15.9 L16.7,30 L19.5,30 L19.5,15.3 L23.3,14.6 C23.9,14.5 24.4,13.8 24.4,13.2 L24.4,7.3 C24.4,6.5 23.8,5.9 23,5.9 L22.8,5.9 L19.5,6.6 L19.5,-9.9 L23.3,-10.6 M7.8,9.1 L7.8,-7.5 L16.7,-9.3 L16.7,7.2 L7.8,9.1 "/>
<path class="Accidental" transform="matrix(2.3811,0,0,2.3811,2506.26,1778.74)" d="M23.3,-10.6 C23.9,-10.7 24.4,-11.4 24.4,-12 L24.4,-17.9 C24.4,-18.7 23.8,-19.3 23,-19.3 L22.8,-19.3 L19.5,-18.6 L19.5,-33.5 L16.7,-33.5 L16.7,-18 L7.8,-16.2 L7.8,-30.3 L5,-30.3 L5,-15.6 L1.1,-14.8 C0.5,-14.7 0,-14 0,-13.4 L0,-13.2 L0,-7.4 L0,-7.6 C0,-6.8 0.6,-6.2 1.4,-6.2 L1.7,-6.2 L5,-6.9 L5,9.6 L1.1,10.4 C0.5,10.5 0,11.2 0,11.8 L0,17.6 C0,18.4 0.6,19 1.4,19 L1.7,19 L5,18.3 L5,33.2 L7.8,33.2 L7.8,17.7 L16.7,15.9 L16.7,30 L19.5,30 L19.5,15.3 L23.3,14.6 C23.9,14.5 24.4,13.8 24.4,13.2 L24.4,7.3 C24.4,6.5 23.8,5.9 23,5.9 L22.8,5.9 L19.5,6.6 L19.5,-9.9 L23.3,-10.6 M7.8,9.1 L7.8,-7.5 L16.7,-9.3 L16.7,7.2 L7.8,9.1 "/>
<path class="Accidental" transform="matrix(2.3811,0,0,2.3811,3482.1,1778.74)" d="M23.3,-10.6 C23.9,-10.7 24.4,-11.4 24.4,-12 L24.4,-17.9 C24.4,-18.7 23.8,-19.3 23,-19.3 L22.8,-19.3 L19.5,-18.6 L19.5,-33.5 L16.7,-33.5 L16.7,-18 L7.8,-16.2 L7.8,-30.3 L5,-30.3 L5,-15.6 L1.1,-14.8 C0.5,-14.7 0,-14 0,-13.4 L0,-13.2 L0,-7.4 L0,-7.6 C0,-6.8 0.6,-6.2 1.4,-6.2 L1.7,-6.2 L5,-6.9 L5,9.6 L1.1,10.4 C0.5,10.5 0,11.2 0,11.8 L0,17.6 C0,18.4 0.6,19 1.4,19 L1.7,19 L5,18.3 L5,33.2 L7.8,33.2 L7.8,17.7 L16.7,15.9 L16.7,30 L19.5,30 L19.5,15.3 L23.3,14.6 C23.9,14.5 24.4,13.8 24.4,13.2 L24.4,7.3 C24.4,6.5 23.8,5.9 23,5.9 L22.8,5.9 L19.5,6.6 L19.5,-9.9 L23.3,-10.6 M7.8,9.1 L7.8,-7.5 L16.7,-9.3 L16.7,7.2 L7.8,9.1 "/>
<polyline class="LedgerLine" fill="none" stroke="#000000" stroke-width="9.52" stroke-linejoin="bevel" points="513.328,1808.5 643.805,1808.5"/>
<polyline class="LedgerLine" fill="none" stroke="#000000" stroke-width="9.52" stroke-linejoin="bevel" points="513.328,1748.98 643.805,1748.98"/>
<polyline class="LedgerLine" fill="none" stroke="#000000" stroke-width="9.52" stroke-linejoin="bevel" points="513.328,1689.45 643.805,1689.45"/>
<polyline class="LedgerLine" fill="none" stroke="#000000" stroke-width="9.52" stroke-linejoin="bevel" points="991.733,1808.5 1122.21,1808.5"/>
<polyline class="LedgerLine" fill="none" stroke="#000000" stroke-width="9.52" stroke-linejoin="bevel" points="991.733,1748.98 1122.21,1748.98"/>
<polyline class="LedgerLine" fill="none" stroke="#000000" stroke-width="9.52" stroke-linejoin="bevel" points="991.733,1689.45 1122.21,1689.45"/>
<polyline class="LedgerLine" fill="none" stroke="#000000" stroke-width="9.52" stroke-linejoin="bevel" points="1470.14,1748.98 1600.61,1748.98"/>
<polyline class="LedgerLine" fill="none" stroke="#000000" stroke-width="9.52" stroke-linejoin="bevel" points="1470.14,1689.45 1682.87,1689.45"/>
<polyline class="LedgerLine" fill="none" stroke="#000000" stroke-width="9.52" stroke-linejoin="bevel" points="2074.04,1808.5 2204.52,1808.5"/>
<polyline class="LedgerLine" fill="none" stroke="#000000" stroke-width="9.52" stroke-linejoin="bevel" points="2074.04,1748.98 2204.52,1748.98"/>
<polyline class="LedgerLine" fill="none" stroke="#000000" stroke-width="9.52" stroke-linejoin="bevel" points="2074.04,1689.45 2204.52,1689.45"/>
<polyline class="LedgerLine" fill="none" stroke="#000000" stroke-width="9.52" stroke-linejoin="bevel" points="2579.23,1808.5 2709.71,1808.5"/>
<polyline class="LedgerLine" fill="none" stroke="#000000" stroke-width="9.52" stroke-linejoin="bevel" points="2579.23,1748.98 2709.71,1748.98"/>
<polyline class="LedgerLine" fill="none" stroke="#000000" stroke-width="9.52" stroke-linejoin="bevel" points="2579.23,1689.45 2709.71,1689.45"/>
<polyline class="LedgerLine" fill="none" stroke="#000000" stroke-width="9.52" stroke-linejoin="bevel" points="3042.76,1808.5 3173.24,1808.5"/>
<polyline class="LedgerLine" fill="none" stroke="#000000" stroke-width="9.52" stroke-linejoin="bevel" points="3042.76,1748.98 3173.24,1748.98"/>
<polyline class="LedgerLine" fill="none" stroke="#000000" stroke-width="9.52" stroke-linejoin="bevel" points="3042.76,1689.45 3173.24,1689.45"/>
<polyline class="LedgerLine" fill="none" stroke="#000000" stroke-width="9.52" stroke-linejoin="bevel" points="3555.08,1808.5 3685.55,1808.5"/>
<polyline class="LedgerLine" fill="none" stroke="#000000" stroke-width="9.52" stroke-linejoin="bevel" points="3555.08,1748.98 3685.55,1748.98"/>
<polyline class="LedgerLine" fill="none" stroke="#000000" stroke-width="9.52" stroke-linejoin="bevel" points="3555.08,1689.45 3685.55,1689.45"/>
<polyline class="LedgerLine" fill="none" stroke="#000000" stroke-width="9.52" stroke-linejoin="bevel" points="4025.73,1808.5 4156.21,1808.5"/>
<polyline class="LedgerLine" fill="none" stroke="#000000" stroke-width="9.52" stroke-linejoin="bevel" points="4025.73,1748.98 4156.21,1748.98"/>
<polyline class="LedgerLine" fill="none" stroke="#000000" stroke-width="9.52" stroke-linejoin="bevel" points="4025.73,1689.45 4156.21,1689.45"/>
<path class="Note" transform="matrix(2.3811,0,0,2.3811,534.163,2016.85)" d="M18.7,-13.6 C4.9,-13.6 0,-6.6 0,-0.1 C0,6.4 4.9,13.4 18.7,13.4 C32.5,13.4 37.3,6.4 37.3,-0.1 C37.3,-6.6 32.5,-13.6 18.7,-13.6 M10.4,-4.5 C10.3,-4.9 10.3,-5.3 10.3,-5.7 C10.3,-6.5 10.5,-7.3 10.9,-8 C11.6,-9 12.8,-9.7 14.3,-10 C15.6,-10.3 16.3,-10.5 18.9,-10.5 L19,-10.5 C23,-10.5 24.3,-6.8 25.4,-3 L25.7,-2 C26.5,0.6 26.9,2.8 26.9,4.5 C26.9,5.7 26.7,6.8 26.3,7.6 C25.7,8.7 24.7,9.4 23,9.8 C22.1,10 20.6,10.1 20.6,10.1 C20.1,10.1 19.7,10.2 19.3,10.2 C16.1,10.2 14.1,9 12.7,4.7 C11.5,1 11.3,-0.1 10.4,-4.5"/>
<path class="Note" transform="matrix(2.3811,0,0,2.3811,1012.57,2046.61)" d="M18.7,-13.6 C4.9,-13.6 0,-6.6 0,-0.1 C0,6.4 4.9,13.4 18.7,13.4 C32.5,13.4 37.3,6.4 37.3,-0.1 C37.3,-6.6 32.5,-13.6 18.7,-13.6 M10.4,-4.5 C10.3,-4.9 10.3,-5.3 10.3,-5.7 C10.3,-6.5 10.5,-7.3 10.9,-8 C11.6,-9 12.8,-9.7 14.3,-10 C15.6,-10.3 16.3,-10.5 18.9,-10.5 L19,-10.5 C23,-10.5 24.3,-6.8 25.4,-3 L25.7,-2 C26.5,0.6 26.9,2.8 26.9,4.5 C26.9,5.7 26.7,6.8 26.3,7.6 C25.7,8.7 24.7,9.4 23,9.8 C22.1,10 20.6,10.1 20.6,10.1 C20.1,10.1 19.7,10.2 19.3,10.2 C16.1,10.2 14.1,9 12.7,4.7 C11.5,1 11.3,-0.1 10.4,-4.5"/>
<path class="Note" transform="matrix(2.3811,0,0,2.3811,1490.97,2076.38)" d="M18.7,-13.6 C4.9,-13.6 0,-6.6 0,-0.1 C0,6.4 4.9,13.4 18.7,13.4 C32.5,13.4 37.3,6.4 37.3,-0.1 C37.3,-6.6 32.5,-13.6 18.7,-13.6 M10.4,-4.5 C10.3,-4.9 10.3,-5.3 10.3,-5.7 C10.3,-6.5 10.5,-7.3 10.9,-8 C11.6,-9 12.8,-9.7 14.3,-10 C15.6,-10.3 16.3,-10.5 18.9,-10.5 L19,-10.5 C23,-10.5 24.3,-6.8 25.4,-3 L25.7,-2 C26.5,0.6 26.9,2.8 26.9,4.5 C26.9,5.7 26.7,6.8 26.3,7.6 C25.7,8.7 24.7,9.4 23,9.8 C22.1,10 20.6,10.1 20.6,10.1 C20.1,10.1 19.7,10.2 19.3,10.2 C16.1,10.2 14.1,9 12.7,4.7 C11.5,1 11.3,-0.1 10.4,-4.5"/>
<path class="Note" transform="matrix(2.3811,0,0,2.3811,2094.88,2106.14)" d="M18.7,-13.6 C4.9,-13.6 0,-6.6 0,-0.1 C0,6.4 4.9,13.4 18.7,13.4 C32.5,13.4 37.3,6.4 37.3,-0.1 C37.3,-6.6 32.5,-13.6 18.7,-13.6 M10.4,-4.5 C10.3,-4.9 10.3,-5.3 10.3,-5.7 C10.3,-6.5 10.5,-7.3 10.9,-8 C11.6,-9 12.8,-9.7 14.3,-10 C15.6,-10.3 16.3,-10.5 18.9,-10.5 L19,-10.5 C23,-10.5 24.3,-6.8 25.4,-3 L25.7,-2 C26.5,0.6 26.9,2.8 26.9,4.5 C26.9,5.7 26.7,6.8 26.3,7.6 C25.7,8.7 24.7,9.4 23,9.8 C22.1,10 20.6,10.1 20.6,10.1 C20.1,10.1 19.7,10.2 19.3,10.2 C16.1,10.2 14.1,9 12.7,4.7 C11.5,1 11.3,-0.1 10.4,-4.5"/>
<path class="Note" transform="matrix(2.3811,0,0,2.3811,2600.07,2135.91)" d="M18.7,-13.6 C4.9,-13.6 0,-6.6 0,-0.1 C0,6.4 4.9,13.4 18.7,13.4 C32.5,13.4 37.3,6.4 37.3,-0.1 C37.3,-6.6 32.5,-13.6 18.7,-13.6 M10.4,-4.5 C10.3,-4.9 10.3,-5.3 10.3,-5.7 C10.3,-6.5 10.5,-7.3 10.9,-8 C11.6,-9 12.8,-9.7 14.3,-10 C15.6,-10.3 16.3,-10.5 18.9,-10.5 L19,-10.5 C23,-10.5 24.3,-6.8 25.4,-3 L25.7,-2 C26.5,0.6 26.9,2.8 26.9,4.5 C26.9,5.7 26.7,6.8 26.3,7.6 C25.7,8.7 24.7,9.4 23,9.8 C22.1,10 20.6,10.1 20.6,10.1 C20.1,10.1 19.7,10.2 19.3,10.2 C16.1,10.2 14.1,9 12.7,4.7 C11.5,1 11.3,-0.1 10.4,-4.5"/>
<path class="Note" transform="matrix(2.3811,0,0,2.3811,3063.6,2165.67)" d="M18.7,-13.6 C4.9,-13.6 0,-6.6 0,-0.1 C0,6.4 4.9,13.4 18.7,13.4 C32.5,13.4 37.3,6.4 37.3,-0.1 C37.3,-6.6 32.5,-13.6 18.7,-13.6 M10.4,-4.5 C10.3,-4.9 10.3,-5.3 10.3,-5.7 C10.3,-6.5 10.5,-7.3 10.9,-8 C11.6,-9 12.8,-9.7 14.3,-10 C15.6,-10.3 16.3,-10.5 18.9,-10.5 L19,-10.5 C23,-10.5 24.3,-6.8 25.4,-3 L25.7,-2 C26.5,0.6 26.9,2.8 26.9,4.5 C26.9,5.7 26.7,6.8 26.3,7.6 C25.7,8.7 24.7,9.4 23,9.8 C22.1,10 20.6,10.1 20.6,10.1 C20.1,10.1 19.7,10.2 19.3,10.2 C16.1,10.2 14.1,9 12.7,4.7 C11.5,1 11.3,-0.1 10.4,-4.5"/>
<path class="Note" transform="matrix(2.3811,0,0,2.3811,3575.91,2195.43)" d="M18.7,-13.6 C4.9,-13.6 0,-6.6 0,-0.1 C0,6.4 4.9,13.4 18.7,13.4 C32.5,13.4 37.3,6.4 37.3,-0.1 C37.3,-6.6 32.5,-13.6 18.7,-13.6 M10.4,-4.5 C10.3,-4.9 10.3,-5.3 10.3,-5.7 C10.3,-6.5 10.5,-7.3 10.9,-8 C11.6,-9 12.8,-9.7 14.3,-10 C15.6,-10.3 16.3,-10.5 18.9,-10.5 L19,-10.5 C23,-10.5 24.3,-6.8 25.4,-3 L25.7,-2 C26.5,0.6 26.9,2.8 26.9,4.5 C26.9,5.7 26.7,6.8 26.3,7.6 C25.7,8.7 24.7,9.4 23,9.8 C22.1,10 20.6,10.1 20.6,10.1 C20.1,10.1 19.7,10.2 19.3,10.2 C16.1,10.2 14.1,9 12.7,4.7 C11.5,1 11.3,-0.1 10.4,-4.5"/>
<path class="Note" transform="matrix(2.3811,0,0,2.3811,4046.56,2225.2)" d="M18.7,-13.6 C4.9,-13.6 0,-6.6 0,-0.1 C0,6.4 4.9,13.4 18.7,13.4 C32.5,13.4 37.3,6.4 37.3,-0.1 C37.3,-6.6 32.5,-13.6 18.7,-13.6 M10.4,-4.5 C10.3,-4.9 10.3,-5.3 10.3,-5.7 C10.3,-6.5 10.5,-7.3 10.9,-8 C11.6,-9 12.8,-9.7 14.3,-10 C15.6,-10.3 16.3,-10.5 18.9,-10.5 L19,-10.5 C23,-10.5 24.3,-6.8 25.4,-3 L25.7,-2 C26.5,0.6 26.9,2.8 26.9,4.5 C26.9,5.7 26.7,6.8 26.3,7.6 C25.7,8.7 24.7,9.4 23,9.8 C22.1,10 20.6,10.1 20.6,10.1 C20.1,10.1 19.7,10.2 19.3,10.2 C16.1,10.2 14.1,9 12.7,4.7 C11.5,1 11.3,-0.1 10.4,-4.5"/>
<path class="Note" transform="matrix(2.3811,0,0,2.3811,534.163,1838.27)" d="M18.7,-13.6 C4.9,-13.6 0,-6.6 0,-0.1 C0,6.4 4.9,13.4 18.7,13.4 C32.5,13.4 37.3,6.4 37.3,-0.1 C37.3,-6.6 32.5,-13.6 18.7,-13.6 M10.4,-4.5 C10.3,-4.9 10.3,-5.3 10.3,-5.7 C10.3,-6.5 10.5,-7.3 10.9,-8 C11.6,-9 12.8,-9.7 14.3,-10 C15.6,-10.3 16.3,-10.5 18.9,-10.5 L19,-10.5 C23,-10.5 24.3,-6.8 25.4,-3 L25.7,-2 C26.5,0.6 26.9,2.8 26.9,4.5 C26.9,5.7 26.7,6.8 26.3,7.6 C25.7,8.7 24.7,9.4 23,9.8 C22.1,10 20.6,10.1 20.6,10.1 C20.1,10.1 19.7,10.2 19.3,10.2 C16.1,10.2 14.1,9 12.7,4.7 C11.5,1 11.3,-0.1 10.4,-4.5"/>
<path class="Note" transform="matrix(2.3811,0,0,2.3811,534.163,1748.98)" d="M18.7,-13.6 C4.9,-13.6 0,-6.6 0,-0.1 C0,6.4 4.9,13.4 18.7,13.4 C32.5,13.4 37.3,6.4 37.3,-0.1 C37.3,-6.6 32.5,-13.6 18.7,-13.6 M10.4,-4.5 C10.3,-4.9 10.3,-5.3 10.3,-5.7 C10.3,-6.5 10.5,-7.3 10.9,-8 C11.6,-9 12.8,-9.7 14.3,-10 C15.6,-10.3 16.3,-10.5 18.9,-10.5 L19,-10.5 C23,-10.5 24.3,-6.8 25.4,-3 L25.7,-2 C26.5,0.6 26.9,2.8 26.9,4.5 C26.9,5.7 26.7,6.8 26.3,7.6 C25.7,8.7 24.7,9.4 23,9.8 C22.1,10 20.6,10.1 20.6,10.1 C20.1,10.1 19.7,10.2 19.3,10.2 C16.1,10.2 14.1,9 12.7,4.7 C11.5,1 11.3,-0.1 10.4,-4.5"/>
<path class="Note" transform="matrix(2.3811,0,0,2.3811,534.163,1689.45)" d="M18.7,-13.6 C4.9,-13.6 0,-6.6 0,-0.1 C0,6.4 4.9,13.4 18.7,13.4 C32.5,13.4 37.3,6.4 37.3,-0.1 C37.3,-6.6 32.5,-13.6 18.7,-13.6 M10.4,-4.5 C10.3,-4.9 10.3,-5.3 10.3,-5.7 C10.3,-6.5 10.5,-7.3 10.9,-8 C11.6,-9 12.8,-9.7 14.3,-10 C15.6,-10.3 16.3,-10.5 18.9,-10.5 L19,-10.5 C23,-10.5 24.3,-6.8 25.4,-3 L25.7,-2 C26.5,0.6 26.9,2.8 26.9,4.5 C26.9,5.7 26.7,6.8 26.3,7.6 C25.7,8.7 24.7,9.4 23,9.8 C22.1,10 20.6,10.1 20.6,10.1 C20.1,10.1 19.7,10.2 19.3,10.2 C16.1,10.2 14.1,9 12.7,4.7 C11.5,1 11.3,-0.1 10.4,-4.5"/>
<path class="Note" transform="matrix(2.3811,0,0,2.3811,1012.57,1838.27)" d="M18.7,-13.6 C4.9,-13.6 0,-6.6 0,-0.1 C0,6.4 4.9,13.4 18.7,13.4 C32.5,13.4 37.3,6.4 37.3,-0.1 C37.3,-6.6 32.5,-13.6 18.7,-13.6 M10.4,-4.5 C10.3,-4.9 10.3,-5.3 10.3,-5.7 C10.3,-6.5 10.5,-7.3 10.9,-8 C11.6,-9 12.8,-9.7 14.3,-10 C15.6,-10.3 16.3,-10.5 18.9,-10.5 L19,-10.5 C23,-10.5 24.3,-6.8 25.4,-3 L25.7,-2 C26.5,0.6 26.9,2.8 26.9,4.5 C26.9,5.7 26.7,6.8 26.3,7.6 C25.7,8.7 24.7,9.4 23,9.8 C22.1,10 20.6,10.1 20.6,10.1 C20.1,10.1 19.7,10.2 19.3,10.2 C16.1,10.2 14.1,9 12.7,4.7 C11.5,1 11.3,-0.1 10.4,-4.5"/>
<path class="Note" transform="matrix(2.3811,0,0,2.3811,1012.57,1719.21)" d="M18.7,-13.6 C4.9,-13.6 0,-6.6 0,-0.1 C0,6.4 4.9,13.4 18.7,13.4 C32.5,13.4 37.3,6.4 37.3,-0.1 C37.3,-6.6 32.5,-13.6 18.7,-13.6 M10.4,-4.5 C10.3,-4.9 10.3,-5.3 10.3,-5.7 C10.3,-6.5 10.5,-7.3 10.9,-8 C11.6,-9 12.8,-9.7 14.3,-10 C15.6,-10.3 16.3,-10.5 18.9,-10.5 L19,-10.5 C23,-10.5 24.3,-6.8 25.4,-3 L25.7,-2 C26.5,0.6 26.9,2.8 26.9,4.5 C26.9,5.7 26.7,6.8 26.3,7.6 C25.7,8.7 24.7,9.4 23,9.8 C22.1,10 20.6,10.1 20.6,10.1 C20.1,10.1 19.7,10.2 19.3,10.2 C16.1,10.2 14.1,9 12.7,4.7 C11.5,1 11.3,-0.1 10.4,-4.5"/>
<path class="Note" transform="matrix(2.3811,0,0,2.3811,1490.97,1748.98)" d="M18.7,-13.6 C4.9,-13.6 0,-6.6 0,-0.1 C0,6.4 4.9,13.4 18.7,13.4 C32.5,13.4 37.3,6.4 37.3,-0.1 C37.3,-6.6 32.5,-13.6 18.7,-13.6 M10.4,-4.5 C10.3,-4.9 10.3,-5.3 10.3,-5.7 C10.3,-6.5 10.5,-7.3 10.9,-8 C11.6,-9 12.8,-9.7 14.3,-10 C15.6,-10.3 16.3,-10.5 18.9,-10.5 L19,-10.5 C23,-10.5 24.3,-6.8 25.4,-3 L25.7,-2 C26.5,0.6 26.9,2.8 26.9,4.5 C26.9,5.7 26.7,6.8 26.3,7.6 C25.7,8.7 24.7,9.4 23,9.8 C22.1,10 20.6,10.1 20.6,10.1 C20.1,10.1 19.7,10.2 19.3,10.2 C16.1,10.2 14.1,9 12.7,4.7 C11.5,1 11.3,-0.1 10.4,-4.5"/>
<path class="Note" transform="matrix(2.3811,0,0,2.3811,1573.23,1719.21)" d="M18.7,-13.6 C4.9,-13.6 0,-6.6 0,-0.1 C0,6.4 4.9,13.4 18.7,13.4 C32.5,13.4 37.3,6.4 37.3,-0.1 C37.3,-6.6 32.5,-13.6 18.7,-13.6 M10.4,-4.5 C10.3,-4.9 10.3,-5.3 10.3,-5.7 C10.3,-6.5 10.5,-7.3 10.9,-8 C11.6,-9 12.8,-9.7 14.3,-10 C15.6,-10.3 16.3,-10.5 18.9,-10.5 L19,-10.5 C23,-10.5 24.3,-6.8 25.4,-3 L25.7,-2 C26.5,0.6 26.9,2.8 26.9,4.5 C26.9,5.7 26.7,6.8 26.3,7.6 C25.7,8.7 24.7,9.4 23,9.8 C22.1,10 20.6,10.1 20.6,10.1 C20.1,10.1 19.7,10.2 19.3,10.2 C16.1,10.2 14.1,9 12.7,4.7 C11.5,1 11.3,-0.1 10.4,-4.5"/>
<path class="Note" transform="matrix(2.3811,0,0,2.3811,2094.88,1838.27)" d="M18.7,-13.6 C4.9,-13.6 0,-6.6 0,-0.1 C0,6.4 4.9,13.4 18.7,13.4 C32.5,13.4 37.3,6.4 37.3,-0.1 C37.3,-6.6 32.5,-13.6 18.7,-13.6 M10.4,-4.5 C10.3,-4.9 10.3,-5.3 10.3,-5.7 C10.3,-6.5 10.5,-7.3 10.9,-8 C11.6,-9 12.8,-9.7 14.3,-10 C15.6,-10.3 16.3,-10.5 18.9,-10.5 L19,-10.5 C23,-10.5 24.3,-6.8 25.4,-3 L25.7,-2 C26.5,0.6 26.9,2.8 26.9,4.5 C26.9,5.7 26.7,6.8 26.3,7.6 C25.7,8.7 24.7,9.4 23,9.8 C22.1,10 20.6,10.1 20.6,10.1 C20.1,10.1 19.7,10.2 19.3,10.2 C16.1,10.2 14.1,9 12.7,4.7 C11.5,1 11.3,-0.1 10.4,-4.5"/>
<path class="Note" transform="matrix(2.3811,0,0,2.3811,2094.88,1778.74)" d="M18.7,-13.6 C4.9,-13.6 0,-6.6 0,-0.1 C0,6.4 4.9,13.4 18.7,13.4 C32.5,13.4 37.3,6.4 37.3,-0.1 C37.3,-6.6 32.5,-13.6 18.7,-13.6 M10.4,-4.5 C10.3,-4.9 10.3,-5.3 10.3,-5.7 C10.3,-6.5 10.5,-7.3 10.9,-8 C11.6,-9 12.8,-9.7 14.3,-10 C15.6,-10.3 16.3,-10.5 18.9,-10.5 L19,-10.5 C23,-10.5 24.3,-6.8 25.4,-3 L25.7,-2 C26.5,0.6 26.9,2.8 26.9,4.5 C26.9,5.7 26.7,6.8 26.3,7.6 C25.7,8.7 24.7,9.4 23,9.8 C22.1,10 20.6,10.1 20.6,10.1 C20.1,10.1 19.7,10.2 19.3,10.2 C16.1,10.2 14.1,9 12.7,4.7 C11.5,1 11.3,-0.1 10.4,-4.5"/>
<path class="Note" transform="matrix(2.3811,0,0,2.3811,2094.88,1719.21)" d="M18.7,-13.6 C4.9,-13.6 0,-6.6 0,-0.1 C0,6.4 4.9,13.4 18.7,13.4 C32.5,13.4 37.3,6.4 37.3,-0.1 C37.3,-6.6 32.5,-13.6 18.7,-13.6 M10.4,-4.5 C10.3,-4.9 10.3,-5.3 10.3,-5.7 C10.3,-6.5 10.5,-7.3 10.9,-8 C11.6,-9 12.8,-9.7 14.3,-10 C15.6,-10.3 16.3,-10.5 18.9,-10.5 L19,-10.5 C23,-10.5 24.3,-6.8 25.4,-3 L25.7,-2 C26.5,0.6 26.9,2.8 26.9,4.5 C26.9,5.7 26.7,6.8 26.3,7.6 C25.7,8.7 24.7,9.4 23,9.8 C22.1,10 20.6,10.1 20.6,10.1 C20.1,10.1 19.7,10.2 19.3,10.2 C16.1,10.2 14.1,9 12.7,4.7 C11.5,1 11.3,-0.1 10.4,-4.5"/>
<path class="Note" transform="matrix(2.3811,0,0,2.3811,2600.07,1838.27)" d="M18.7,-13.6 C4.9,-13.6 0,-6.6 0,-0.1 C0,6.4 4.9,13.4 18.7,13.4 C32.5,13.4 37.3,6.4 37.3,-0.1 C37.3,-6.6 32.5,-13.6 18.7,-13.6 M10.4,-4.5 C10.3,-4.9 10.3,-5.3 10.3,-5.7 C10.3,-6.5 10.5,-7.3 10.9,-8 C11.6,-9 12.8,-9.7 14.3,-10 C15.6,-10.3 16.3,-10.5 18.9,-10.5 L19,-10.5 C23,-10.5 24.3,-6.8 25.4,-3 L25.7,-2 C26.5,0.6 26.9,2.8 26.9,4.5 C26.9,5.7 26.7,6.8 26.3,7.6 C25.7,8.7 24.7,9.4 23,9.8 C22.1,10 20.6,10.1 20.6,10.1 C20.1,10.1 19.7,10.2 19.3,10.2 C16.1,10.2 14.1,9 12.7,4.7 C11.5,1 11.3,-0.1 10.4,-4.5"/>
<path class="Note" transform="matrix(2.3811,0,0,2.3811,2600.07,1778.74)" d="M18.7,-13.6 C4.9,-13.6 0,-6.6 0,-0.1 C0,6.4 4.9,13.4 18.7,13.4 C32.5,13.4 37.3,6.4 37.3,-0.1 C37.3,-6.6 32.5,-13.6 18.7,-13.6 M10.4,-4.5 C10.3,-4.9 10.3,-5.3 10.3,-5.7 C10.3,-6.5 10.5,-7.3 10.9,-8 C11.6,-9 12.8,-9.7 14.3,-10 C15.6,-10.3 16.3,-10.5 18.9,-10.5 L19,-10.5 C23,-10.5 24.3,-6.8 25.4,-3 L25.7,-2 C26.5,0.6 26.9,2.8 26.9,4.5 C26.9,5.7 26.7,6.8 26.3,7.6 C25.7,8.7 24.7,9.4 23,9.8 C22.1,10 20.6,10.1 20.6,10.1 C20.1,10.1 19.7,10.2 19.3,10.2 C16.1,10.2 14.1,9 12.7,4.7 C11.5,1 11.3,-0.1 10.4,-4.5"/>
<path class="Note" transform="matrix(2.3811,0,0,2.3811,2600.07,1719.21)" d="M18.7,-13.6 C4.9,-13.6 0,-6.6 0,-0.1 C0,6.4 4.9,13.4 18.7,13.4 C32.5,13.4 37.3,6.4 37.3,-0.1 C37.3,-6.6 32.5,-13.6 18.7,-13.6 M10.4,-4.5 C10.3,-4.9 10.3,-5.3 10.3,-5.7 C10.3,-6.5 10.5,-7.3 10.9,-8 C11.6,-9 12.8,-9.7 14.3,-10 C15.6,-10.3 16.3,-10.5 18.9,-10.5 L19,-10.5 C23,-10.5 24.3,-6.8 25.4,-3 L25.7,-2 C26.5,0.6 26.9,2.8 26.9,4.5 C26.9,5.7 26.7,6.8 26.3,7.6 C25.7,8.7 24.7,9.4 23,9.8 C22.1,10 20.6,10.1 20.6,10.1 C20.1,10.1 19.7,10.2 19.3,10.2 C16.1,10.2 14.1,9 12.7,4.7 C11.5,1 11.3,-0.1 10.4,-4.5"/>
<path class="Note" transform="matrix(2.3811,0,0,2.3811,3063.6,1838.27)" d="M18.7,-13.6 C4.9,-13.6 0,-6.6 0,-0.1 C0,6.4 4.9,13.4 18.7,13.4 C32.5,13.4 37.3,6.4 37.3,-0.1 C37.3,-6.6 32.5,-13.6 18.7,-13.6 M10.4,-4.5 C10.3,-4.9 10.3,-5.3 10.3,-5.7 C10.3,-6.5 10.5,-7.3 10.9,-8 C11.6,-9 12.8,-9.7 14.3,-10 C15.6,-10.3 16.3,-10.5 18.9,-10.5 L19,-10.5 C23,-10.5 24.3,-6.8 25.4,-3 L25.7,-2 C26.5,0.6 26.9,2.8 26.9,4.5 C26.9,5.7 26.7,6.8 26.3,7.6 C25.7,8.7 24.7,9.4 23,9.8 C22.1,10 20.6,10.1 20.6,10.1 C20.1,10.1 19.7,10.2 19.3,10.2 C16.1,10.2 14.1,9 12.7,4.7 C11.5,1 11.3,-0.1 10.4,-4.5"/>
<path class="Note" transform="matrix(2.3811,0,0,2.3811,3063.6,1748.98)" d="M18.7,-13.6 C4.9,-13.6 0,-6.6 0,-0.1 C0,6.4 4.9,13.4 18.7,13.4 C32.5,13.4 37.3,6.4 37.3,-0.1 C37.3,-6.6 32.5,-13.6 18.7,-13.6 M10.4,-4.5 C10.3,-4.9 10.3,-5.3 10.3,-5.7 C10.3,-6.5 10.5,-7.3 10.9,-8 C11.6,-9 12.8,-9.7 14.3,-10 C15.6,-10.3 16.3,-10.5 18.9,-10.5 L19,-10.5 C23,-10.5 24.3,-6.8 25.4,-3 L25.7,-2 C26.5,0.6 26.9,2.8 26.9,4.5 C26.9,5.7 26.7,6.8 26.3,7.6 C25.7,8.7 24.7,9.4 23,9.8 C22.1,10 20.6,10.1 20.6,10.1 C20.1,10.1 19.7,10.2 19.3,10.2 C16.1,10.2 14.1,9 12.7,4.7 C11.5,1 11.3,-0.1 10.4,-4.5"/>
<path class="Note" transform="matrix(2.3811,0,0,2.3811,3063.6,1689.45)" d="M18.7,-13.6 C4.9,-13.6 0,-6.6 0,-0.1 C0,6.4 4.9,13.4 18.7,13.4 C32.5,13.4 37.3,6.4 37.3,-0.1 C37.3,-6.6 32.5,-13.6 18.7,-13.6 M10.4,-4.5 C10.3,-4.9 10.3,-5.3 10.3,-5.7 C10.3,-6.5 10.5,-7.3 10.9,-8 C11.6,-9 12.8,-9.7 14.3,-10 C15.6,-10.3 16.3,-10.5 18.9,-10.5 L19,-10.5 C23,-10.5 24.3,-6.8 25.4,-3 L25.7,-2 C26.5,0.6 26.9,2.8 26.9,4.5 C26.9,5.7 26.7,6.8 26.3,7.6 C25.7,8.7 24.7,9.4 23,9.8 C22.1,10 20.6,10.1 20.6,10.1 C20.1,10.1 19.7,10.2 19.3,10.2 C16.1,10.2 14.1,9 12.7,4.7 C11.5,1 11.3,-0.1 10.4,-4.5"/>
<path class="Note" transform="matrix(2.3811,0,0,2.3811,3575.91,1838.27)" d="M18.7,-13.6 C4.9,-13.6 0,-6.6 0,-0.1 C0,6.4 4.9,13.4 18.7,13.4 C32.5,13.4 37.3,6.4 37.3,-0.1 C37.3,-6.6 32.5,-13.6 18.7,-13.6 M10.4,-4.5 C10.3,-4.9 10.3,-5.3 10.3,-5.7 C10.3,-6.5 10.5,-7.3 10.9,-8 C11.6,-9 12.8,-9.7 14.3,-10 C15.6,-10.3 16.3,-10.5 18.9,-10.5 L19,-10.5 C23,-10.5 24.3,-6.8 25.4,-3 L25.7,-2 C26.5,0.6 26.9,2.8 26.9,4.5 C26.9,5.7 26.7,6.8 26.3,7.6 C25.7,8.7 24.7,9.4 23,9.8 C22.1,10 20.6,10.1 20.6,10.1 C20.1,10.1 19.7,10.2 19.3,10.2 C16.1,10.2 14.1,9 12.7,4.7 C11.5,1 11.3,-0.1 10.4,-4.5"/>
<path class="Note" transform="matrix(2.3811,0,0,2.3811,3575.91,1778.74)" d="M18.7,-13.6 C4.9,-13.6 0,-6.6 0,-0.1 C0,6.4 4.9,13.4 18.7,13.4 C32.5,13.4 37.3,6.4 37.3,-0.1 C37.3,-6.6 32.5,-13.6 18.7,-13.6 M10.4,-4.5 C10.3,-4.9 10.3,-5.3 10.3,-5.7 C10.3,-6.5 10.5,-7.3 10.9,-8 C11.6,-9 12.8,-9.7 14.3,-10 C15.6,-10.3 16.3,-10.5 18.9,-10.5 L19,-10.5 C23,-10.5 24.3,-6.8 25.4,-3 L25.7,-2 C26.5,0.6 26.9,2.8 26.9,4.5 C26.9,5.7 26.7,6.8 26.3,7.6 C25.7,8.7 24.7,9.4 23,9.8 C22.1,10 20.6,10.1 20.6,10.1 C20.1,10.1 19.7,10.2 19.3,10.2 C16.1,10.2 14.1,9 12.7,4.7 C11.5,1 11.3,-0.1 10.4,-4.5"/>
<path class="Note" transform="matrix(2.3811,0,0,2.3811,3575.91,1659.69)" d="M18.7,-13.6 C4.9,-13.6 0,-6.6 0,-0.1 C0,6.4 4.9,13.4 18.7,13.4 C32.5,13.4 37.3,6.4 37.3,-0.1 C37.3,-6.6 32.5,-13.6 18.7,-13.6 M10.4,-4.5 C10.3,-4.9 10.3,-5.3 10.3,-5.7 C10.3,-6.5 10.5,-7.3 10.9,-8 C11.6,-9 12.8,-9.7 14.3,-10 C15.6,-10.3 16.3,-10.5 18.9,-10.5 L19,-10.5 C23,-10.5 24.3,-6.8 25.4,-3 L25.7,-2 C26.5,0.6 26.9,2.8 26.9,4.5 C26.9,5.7 26.7,6.8 26.3,7.6 C25.7,8.7 24.7,9.4 23,9.8 C22.1,10 20.6,10.1 20.6,10.1 C20.1,10.1 19.7,10.2 19.3,10.2 C16.1,10.2 14.1,9 12.7,4.7 C11.5,1 11.3,-0.1 10.4,-4.5"/>
<path class="Note" transform="matrix(2.3811,0,0,2.3811,4046.56,1838.27)" d="M18.7,-13.6 C4.9,-13.6 0,-6.6 0,-0.1 C0,6.4 4.9,13.4 18.7,13.4 C32.5,13.4 37.3,6.4 37.3,-0.1 C37.3,-6.6 32.5,-13.6 18.7,-13.6 M10.4,-4.5 C10.3,-4.9 10.3,-5.3 10.3,-5.7 C10.3,-6.5 10.5,-7.3 10.9,-8 C11.6,-9 12.8,-9.7 14.3,-10 C15.6,-10.3 16.3,-10.5 18.9,-10.5 L19,-10.5 C23,-10.5 24.3,-6.8 25.4,-3 L25.7,-2 C26.5,0.6 26.9,2.8 26.9,4.5 C26.9,5.7 26.7,6.8 26.3,7.6 C25.7,8.7 24.7,9.4 23,9.8 C22.1,10 20.6,10.1 20.6,10.1 C20.1,10.1 19.7,10.2 19.3,10.2 C16.1,10.2 14.1,9 12.7,4.7 C11.5,1 11.3,-0.1 10.4,-4.5"/>
<path class="Note" transform="matrix(2.3811,0,0,2.3811,4046.56,1748.98)" d="M18.7,-13.6 C4.9,-13.6 0,-6.6 0,-0.1 C0,6.4 4.9,13.4 18.7,13.4 C32.5,13.4 37.3,6.4 37.3,-0.1 C37.3,-6.6 32.5,-13.6 18.7,-13.6 M10.4,-4.5 C10.3,-4.9 10.3,-5.3 10.3,-5.7 C10.3,-6.5 10.5,-7.3 10.9,-8 C11.6,-9 12.8,-9.7 14.3,-10 C15.6,-10.3 16.3,-10.5 18.9,-10.5 L19,-10.5 C23,-10.5 24.3,-6.8 25.4,-3 L25.7,-2 C26.5,0.6 26.9,2.8 26.9,4.5 C26.9,5.7 26.7,6.8 26.3,7.6 C25.7,8.7 24.7,9.4 23,9.8 C22.1,10 20.6,10.1 20.6,10.1 C20.1,10.1 19.7,10.2 19.3,10.2 C16.1,10.2 14.1,9 12.7,4.7 C11.5,1 11.3,-0.1 10.4,-4.5"/>
<path class="Note" transform="matrix(2.3811,0,0,2.3811,4046.56,1689.45)" d="M18.7,-13.6 C4.9,-13.6 0,-6.6 0,-0.1 C0,6.4 4.9,13.4 18.7,13.4 C32.5,13.4 37.3,6.4 37.3,-0.1 C37.3,-6.6 32.5,-13.6 18.7,-13.6 M10.4,-4.5 C10.3,-4.9 10.3,-5.3 10.3,-5.7 C10.3,-6.5 10.5,-7.3 10.9,-8 C11.6,-9 12.8,-9.7 14.3,-10 C15.6,-10.3 16.3,-10.5 18.9,-10.5 L19,-10.5 C23,-10.5 24.3,-6.8 25.4,-3 L25.7,-2 C26.5,0.6 26.9,2.8 26.9,4.5 C26.9,5.7 26.7,6.8 26.3,7.6 C25.7,8.7 24.7,9.4 23,9.8 C22.1,10 20.6,10.1 20.6,10.1 C20.1,10.1 19.7,10.2 19.3,10.2 C16.1,10.2 14.1,9 12.7,4.7 C11.5,1 11.3,-0.1 10.4,-4.5"/>
<path class="Note" d="M612.982,583.965 C617.553,583.965 619.838,586.831 619.838,592.564 C619.838,596.593 617.32,602.597 612.285,610.577 C608.256,617.007 606.242,623.283 606.242,629.403 C606.242,632.889 611.316,634.633 621.465,634.633 C629.833,634.633 641.492,630.1 656.445,621.036 C641.415,635.524 628.361,642.767 617.282,642.767 C607.288,642.767 600.315,641.257 596.364,638.235 C595.357,637.46 594.504,636.531 593.807,635.446 C589.933,640.172 583.464,642.535 574.4,642.535 C565.723,642.535 559.06,640.753 554.412,637.189 C551.313,634.788 549.763,630.953 549.763,625.684 C549.763,617.317 554.722,608.175 564.638,598.259 C575.252,587.645 587.532,582.338 601.477,582.338 C604.963,582.338 607.52,583.616 609.147,586.173 C610.464,584.701 611.742,583.965 612.982,583.965 M592.18,630.217 C592.103,629.597 592.064,628.977 592.064,628.357 C592.064,628.047 596.015,617.24 603.917,595.934 C604.692,593.843 605.467,592.061 606.242,590.589 C603.22,589.969 600.237,589.659 597.293,589.659 C591.87,589.659 584.665,594.269 575.678,603.488 C567.621,611.7 563.592,618.789 563.592,624.755 C563.592,631.34 566.73,634.633 573.005,634.633 C580.598,634.633 586.989,633.161 592.18,630.217"/>
<path class="Note" d="M612.982,494.673 C617.553,494.673 619.838,497.54 619.838,503.273 C619.838,507.302 617.32,513.306 612.285,521.286 C608.256,527.716 606.242,533.991 606.242,540.112 C606.242,543.598 611.316,545.341 621.465,545.341 C629.833,545.341 641.492,540.809 656.445,531.745 C641.415,546.232 628.361,553.476 617.282,553.476 C607.288,553.476 600.315,551.965 596.364,548.944 C595.357,548.169 594.504,547.239 593.807,546.155 C589.933,550.881 583.464,553.244 574.4,553.244 C565.723,553.244 559.06,551.462 554.412,547.898 C551.313,545.496 549.763,541.661 549.763,536.393 C549.763,528.026 554.722,518.884 564.638,508.967 C575.252,498.353 587.532,493.046 601.477,493.046 C604.963,493.046 607.52,494.325 609.147,496.881 C610.464,495.409 611.742,494.673 612.982,494.673 M592.18,540.925 C592.103,540.305 592.064,539.686 592.064,539.066 C592.064,538.756 596.015,527.948 603.917,506.643 C604.692,504.551 605.467,502.769 606.242,501.297 C603.22,500.678 600.237,500.368 597.293,500.368 C591.87,500.368 584.665,504.977 575.678,514.197 C567.621,522.409 563.592,529.498 563.592,535.463 C563.592,542.049 566.73,545.341 573.005,545.341 C580.598,545.341 586.989,543.869 592.18,540.925"/>
<path class="Note" d="M568.706,821.118 C564.909,821.118 563.011,817.05 563.011,808.916 L563.011,774.866 C563.011,771.612 564.599,769.985 567.776,769.985 C569.17,769.985 570.216,770.101 570.914,770.333 C573.393,765.995 577.46,762.354 583.116,759.41 C591.018,755.304 599.037,753.25 607.171,753.25 C613.602,753.25 616.817,755.652 616.817,760.456 C616.817,764.484 614.648,766.499 610.309,766.499 C607.21,766.499 604.266,765.801 601.477,764.407 C598.998,763.167 596.364,762.547 593.575,762.547 C588.771,762.547 581.682,765.685 572.308,771.96 C573.625,778.236 574.284,785.557 574.284,793.924 C574.284,812.053 572.424,821.118 568.706,821.118"/>
<path class="Note" d="M620.071,670.351 C630.53,663.765 638.122,658.381 642.848,654.197 C651.525,646.527 655.864,638.78 655.864,630.955 C655.864,621.813 649.743,617.242 637.502,617.242 C624.642,617.242 611.239,626.5 597.293,645.017 C587.842,657.568 581.14,669.421 577.189,680.577 C582.07,677.401 587.222,675.813 592.645,675.813 C597.758,675.813 601.826,678.098 604.847,682.669 C606.939,685.846 607.985,691.269 607.985,698.939 C607.985,705.834 604.344,713.93 597.061,723.227 C592.568,728.96 587.57,731.826 582.07,731.826 C575.097,731.826 570.216,730.432 567.427,727.643 C563.476,723.692 561.5,715.867 561.5,704.168 C561.5,684.49 569.442,665.121 585.324,646.063 C603.22,624.602 620.381,613.872 636.805,613.872 C649.511,613.872 659.001,616.855 665.277,622.82 C668.918,626.307 670.739,631.343 670.739,637.928 C670.739,645.288 663.495,653.5 649.007,662.565 C641.415,667.368 631.769,669.963 620.071,670.351 M575.678,685.458 C573.741,691.966 572.773,698.203 572.773,704.168 C572.773,718.346 575.02,725.435 579.513,725.435 C583.774,725.435 587.106,722.413 589.507,716.37 C592.296,709.553 593.691,701.999 593.691,693.709 C593.691,686.349 591.25,682.669 586.37,682.669 C582.961,682.669 579.397,683.599 575.678,685.458"/>
<path class="Note" d="M1091.39,583.965 C1095.96,583.965 1098.24,586.831 1098.24,592.564 C1098.24,596.593 1095.72,602.597 1090.69,610.577 C1086.66,617.007 1084.65,623.283 1084.65,629.403 C1084.65,632.889 1089.72,634.633 1099.87,634.633 C1108.24,634.633 1119.9,630.1 1134.85,621.036 C1119.82,635.524 1106.77,642.767 1095.69,642.767 C1085.69,642.767 1078.72,641.257 1074.77,638.235 C1073.76,637.46 1072.91,636.531 1072.21,635.446 C1068.34,640.172 1061.87,642.535 1052.8,642.535 C1044.13,642.535 1037.46,640.753 1032.82,637.189 C1029.72,634.788 1028.17,630.953 1028.17,625.684 C1028.17,617.317 1033.13,608.175 1043.04,598.259 C1053.66,587.645 1065.94,582.338 1079.88,582.338 C1083.37,582.338 1085.92,583.616 1087.55,586.173 C1088.87,584.701 1090.15,583.965 1091.39,583.965 M1070.58,630.217 C1070.51,629.597 1070.47,628.977 1070.47,628.357 C1070.47,628.047 1074.42,617.24 1082.32,595.934 C1083.1,593.843 1083.87,592.061 1084.65,590.589 C1081.62,589.969 1078.64,589.659 1075.7,589.659 C1070.27,589.659 1063.07,594.269 1054.08,603.488 C1046.03,611.7 1042,618.789 1042,624.755 C1042,631.34 1045.13,634.633 1051.41,634.633 C1059,634.633 1065.39,633.161 1070.58,630.217"/>
<path class="Note" d="M1091.39,762.547 C1095.96,762.547 1098.24,765.414 1098.24,771.147 C1098.24,775.176 1095.72,781.18 1090.69,789.16 C1086.66,795.59 1084.65,801.865 1084.65,807.986 C1084.65,811.472 1089.72,813.215 1099.87,813.215 C1108.24,813.215 1119.9,808.683 1134.85,799.619 C1119.82,814.106 1106.77,821.35 1095.69,821.35 C1085.69,821.35 1078.72,819.839 1074.77,816.818 C1073.76,816.043 1072.91,815.113 1072.21,814.029 C1068.34,818.755 1061.87,821.118 1052.8,821.118 C1044.13,821.118 1037.46,819.336 1032.82,815.772 C1029.72,813.37 1028.17,809.535 1028.17,804.267 C1028.17,795.9 1033.13,786.758 1043.04,776.841 C1053.66,766.227 1065.94,760.92 1079.88,760.92 C1083.37,760.92 1085.92,762.199 1087.55,764.755 C1088.87,763.283 1090.15,762.547 1091.39,762.547 M1070.58,808.799 C1070.51,808.179 1070.47,807.56 1070.47,806.94 C1070.47,806.63 1074.42,795.822 1082.32,774.517 C1083.1,772.425 1083.87,770.643 1084.65,769.171 C1081.62,768.552 1078.64,768.242 1075.7,768.242 C1070.27,768.242 1063.07,772.851 1054.08,782.071 C1046.03,790.283 1042,797.372 1042,803.337 C1042,809.923 1045.13,813.215 1051.41,813.215 C1059,813.215 1065.39,811.743 1070.58,808.799"/>
<path class="Note" d="M1091.39,673.256 C1095.96,673.256 1098.24,676.123 1098.24,681.856 C1098.24,685.884 1095.72,691.888 1090.69,699.868 C1086.66,706.299 1084.65,712.574 1084.65,718.694 C1084.65,722.181 1089.72,723.924 1099.87,723.924 C1108.24,723.924 1119.9,719.392 1134.85,710.327 C1119.82,724.815 1106.77,732.059 1095.69,732.059 C1085.69,732.059 1078.72,730.548 1074.77,727.527 C1073.76,726.752 1072.91,725.822 1072.21,724.737 C1068.34,729.463 1061.87,731.826 1052.8,731.826 C1044.13,731.826 1037.46,730.044 1032.82,726.481 C1029.72,724.079 1028.17,720.244 1028.17,714.976 C1028.17,706.609 1033.13,697.467 1043.04,687.55 C1053.66,676.936 1065.94,671.629 1079.88,671.629 C1083.37,671.629 1085.92,672.907 1087.55,675.464 C1088.87,673.992 1090.15,673.256 1091.39,673.256 M1070.58,719.508 C1070.51,718.888 1070.47,718.268 1070.47,717.649 C1070.47,717.339 1074.42,706.531 1082.32,685.226 C1083.1,683.134 1083.87,681.352 1084.65,679.88 C1081.62,679.26 1078.64,678.95 1075.7,678.95 C1070.27,678.95 1063.07,683.56 1054.08,692.779 C1046.03,700.992 1042,708.081 1042,714.046 C1042,720.631 1045.13,723.924 1051.41,723.924 C1059,723.924 1065.39,722.452 1070.58,719.508"/>
<path class="Note" d="M1458.7,855.79 C1459.01,844.091 1465.48,833.71 1478.11,824.645 C1489.34,816.588 1501.62,812.559 1514.95,812.559 C1533.62,812.559 1550.08,819.881 1564.34,834.523 C1573.4,843.898 1577.93,855.519 1577.93,869.387 C1577.93,881.86 1574.6,891.428 1567.94,898.091 C1559.81,906.303 1551.21,910.409 1542.14,910.409 C1535.94,910.409 1531.14,909.014 1527.73,906.225 C1522.15,901.654 1519.36,895.534 1519.36,887.864 C1519.36,877.947 1524.32,868.883 1534.24,860.671 C1542.37,853.93 1550.55,849.514 1558.76,847.423 C1556.59,843.704 1553.84,840.218 1550.51,836.964 C1540.13,826.815 1528.35,821.74 1515.18,821.74 C1501.47,821.74 1490.12,824.723 1481.13,830.688 C1471.83,836.809 1464.36,845.176 1458.7,855.79 M1561.67,853.582 C1557.4,857.533 1553.14,861.755 1548.88,866.249 C1540.51,875.081 1536.33,883.448 1536.33,891.35 C1536.33,899.795 1538.27,904.017 1542.14,904.017 C1545.63,904.017 1550.51,899.253 1556.78,889.723 C1561.82,882.131 1564.34,875.158 1564.34,868.805 C1564.34,863.382 1563.45,858.308 1561.67,853.582"/>
<path class="Note" d="M1525.51,821.118 C1521.72,821.118 1519.82,817.05 1519.82,808.916 L1519.82,774.866 C1519.82,771.612 1521.41,769.985 1524.58,769.985 C1525.98,769.985 1527.03,770.101 1527.72,770.333 C1530.2,765.995 1534.27,762.354 1539.92,759.41 C1547.83,755.304 1555.85,753.25 1563.98,753.25 C1570.41,753.25 1573.63,755.652 1573.63,760.456 C1573.63,764.484 1571.46,766.499 1567.12,766.499 C1564.02,766.499 1561.08,765.801 1558.29,764.407 C1555.81,763.167 1553.17,762.547 1550.38,762.547 C1545.58,762.547 1538.49,765.685 1529.12,771.96 C1530.43,778.236 1531.09,785.557 1531.09,793.924 C1531.09,812.053 1529.23,821.118 1525.51,821.118"/>
<path class="Note" d="M1569.79,673.256 C1574.36,673.256 1576.65,676.123 1576.65,681.856 C1576.65,685.884 1574.13,691.888 1569.09,699.868 C1565.07,706.299 1563.05,712.574 1563.05,718.694 C1563.05,722.181 1568.13,723.924 1578.27,723.924 C1586.64,723.924 1598.3,719.392 1613.25,710.327 C1598.22,724.815 1585.17,732.059 1574.09,732.059 C1564.1,732.059 1557.12,730.548 1553.17,727.527 C1552.17,726.752 1551.31,725.822 1550.62,724.737 C1546.74,729.463 1540.27,731.826 1531.21,731.826 C1522.53,731.826 1515.87,730.044 1511.22,726.481 C1508.12,724.079 1506.57,720.244 1506.57,714.976 C1506.57,706.609 1511.53,697.467 1521.45,687.55 C1532.06,676.936 1544.34,671.629 1558.29,671.629 C1561.77,671.629 1564.33,672.907 1565.96,675.464 C1567.27,673.992 1568.55,673.256 1569.79,673.256 M1548.99,719.508 C1548.91,718.888 1548.87,718.268 1548.87,717.649 C1548.87,717.339 1552.82,706.531 1560.73,685.226 C1561.5,683.134 1562.28,681.352 1563.05,679.88 C1560.03,679.26 1557.05,678.95 1554.1,678.95 C1548.68,678.95 1541.47,683.56 1532.49,692.779 C1524.43,700.992 1520.4,708.081 1520.4,714.046 C1520.4,720.631 1523.54,723.924 1529.81,723.924 C1537.41,723.924 1543.8,722.452 1548.99,719.508"/>
<path class="Note" d="M2173.69,583.965 C2178.27,583.965 2180.55,586.831 2180.55,592.564 C2180.55,596.593 2178.03,602.597 2173,610.577 C2168.97,617.007 2166.95,623.283 2166.95,629.403 C2166.95,632.889 2172.03,634.633 2182.18,634.633 C2190.54,634.633 2202.2,630.1 2217.16,621.036 C2202.13,635.524 2189.07,642.767 2177.99,642.767 C2168,642.767 2161.03,641.257 2157.08,638.235 C2156.07,637.46 2155.22,636.531 2154.52,635.446 C2150.65,640.172 2144.18,642.535 2135.11,642.535 C2126.44,642.535 2119.77,640.753 2115.12,637.189 C2112.03,634.788 2110.48,630.953 2110.48,625.684 C2110.48,617.317 2115.43,608.175 2125.35,598.259 C2135.96,587.645 2148.24,582.338 2162.19,582.338 C2165.68,582.338 2168.23,583.616 2169.86,586.173 C2171.18,584.701 2172.45,583.965 2173.69,583.965 M2152.89,630.217 C2152.82,629.597 2152.78,628.977 2152.78,628.357 C2152.78,628.047 2156.73,617.24 2164.63,595.934 C2165.4,593.843 2166.18,592.061 2166.95,590.589 C2163.93,589.969 2160.95,589.659 2158.01,589.659 C2152.58,589.659 2145.38,594.269 2136.39,603.488 C2128.33,611.7 2124.3,618.789 2124.3,624.755 C2124.3,631.34 2127.44,634.633 2133.72,634.633 C2141.31,634.633 2147.7,633.161 2152.89,630.217"/>
<path class="Note" d="M2129.42,910.409 C2125.62,910.409 2123.72,906.342 2123.72,898.207 L2123.72,864.157 C2123.72,860.903 2125.31,859.276 2128.49,859.276 C2129.88,859.276 2130.93,859.392 2131.63,859.625 C2134.11,855.286 2138.17,851.645 2143.83,848.701 C2151.73,844.595 2159.75,842.542 2167.88,842.542 C2174.31,842.542 2177.53,844.943 2177.53,849.747 C2177.53,853.776 2175.36,855.79 2171.02,855.79 C2167.92,855.79 2164.98,855.093 2162.19,853.698 C2159.71,852.458 2157.08,851.839 2154.29,851.839 C2149.48,851.839 2142.39,854.976 2133.02,861.252 C2134.34,867.527 2135,874.848 2135,883.216 C2135,901.345 2133.14,910.409 2129.42,910.409"/>
<path class="Note" d="M2180.78,759.642 C2191.24,753.057 2198.83,747.672 2203.56,743.489 C2212.24,735.819 2216.58,728.071 2216.58,720.247 C2216.58,711.105 2210.46,706.534 2198.21,706.534 C2185.35,706.534 2171.95,715.792 2158.01,734.308 C2148.55,746.859 2141.85,758.712 2137.9,769.869 C2142.78,766.692 2147.93,765.104 2153.36,765.104 C2158.47,765.104 2162.54,767.389 2165.56,771.96 C2167.65,775.137 2168.7,780.56 2168.7,788.23 C2168.7,795.125 2165.06,803.221 2157.77,812.518 C2153.28,818.251 2148.28,821.118 2142.78,821.118 C2135.81,821.118 2130.93,819.723 2128.14,816.934 C2124.19,812.983 2122.21,805.158 2122.21,793.459 C2122.21,773.781 2130.15,754.413 2146.04,735.354 C2163.93,713.894 2181.09,703.164 2197.52,703.164 C2210.22,703.164 2219.71,706.146 2225.99,712.112 C2229.63,715.598 2231.45,720.634 2231.45,727.219 C2231.45,734.579 2224.21,742.791 2209.72,751.856 C2202.13,756.659 2192.48,759.255 2180.78,759.642 M2136.39,774.749 C2134.45,781.257 2133.49,787.494 2133.49,793.459 C2133.49,807.637 2135.73,814.726 2140.23,814.726 C2144.49,814.726 2147.82,811.705 2150.22,805.662 C2153.01,798.844 2154.4,791.29 2154.4,783 C2154.4,775.64 2151.96,771.96 2147.08,771.96 C2143.67,771.96 2140.11,772.89 2136.39,774.749"/>
<path class="Note" d="M2173.69,673.256 C2178.27,673.256 2180.55,676.123 2180.55,681.856 C2180.55,685.884 2178.03,691.888 2173,699.868 C2168.97,706.299 2166.95,712.574 2166.95,718.694 C2166.95,722.181 2172.03,723.924 2182.18,723.924 C2190.54,723.924 2202.2,719.392 2217.16,710.327 C2202.13,724.815 2189.07,732.059 2177.99,732.059 C2168,732.059 2161.03,730.548 2157.08,727.527 C2156.07,726.752 2155.22,725.822 2154.52,724.737 C2150.65,729.463 2144.18,731.826 2135.11,731.826 C2126.44,731.826 2119.77,730.044 2115.12,726.481 C2112.03,724.079 2110.48,720.244 2110.48,714.976 C2110.48,706.609 2115.43,697.467 2125.35,687.55 C2135.96,676.936 2148.24,671.629 2162.19,671.629 C2165.68,671.629 2168.23,672.907 2169.86,675.464 C2171.18,673.992 2172.45,673.256 2173.69,673.256 M2152.89,719.508 C2152.82,718.888 2152.78,718.268 2152.78,717.649 C2152.78,717.339 2156.73,706.531 2164.63,685.226 C2165.4,683.134 2166.18,681.352 2166.95,679.88 C2163.93,679.26 2160.95,678.95 2158.01,678.95 C2152.58,678.95 2145.38,683.56 2136.39,692.779 C2128.33,700.992 2124.3,708.081 2124.3,714.046 C2124.3,720.631 2127.44,723.924 2133.72,723.924 C2141.31,723.924 2147.7,722.452 2152.89,719.508"/>
<path class="Note" d="M2678.89,851.839 C2683.46,851.839 2685.74,854.705 2685.74,860.438 C2685.74,864.467 2683.22,870.471 2678.19,878.451 C2674.16,884.881 2672.15,891.157 2672.15,897.277 C2672.15,900.763 2677.22,902.507 2687.37,902.507 C2695.74,902.507 2707.4,897.974 2722.35,888.91 C2707.32,903.398 2694.26,910.641 2683.19,910.641 C2673.19,910.641 2666.22,909.131 2662.27,906.109 C2661.26,905.334 2660.41,904.405 2659.71,903.32 C2655.84,908.046 2649.37,910.409 2640.3,910.409 C2631.63,910.409 2624.96,908.627 2620.32,905.063 C2617.22,902.662 2615.67,898.827 2615.67,893.558 C2615.67,885.191 2620.63,876.049 2630.54,866.133 C2641.16,855.519 2653.44,850.212 2667.38,850.212 C2670.87,850.212 2673.42,851.49 2675.05,854.047 C2676.37,852.575 2677.65,851.839 2678.89,851.839 M2658.08,898.091 C2658.01,897.471 2657.97,896.851 2657.97,896.231 C2657.97,895.921 2661.92,885.114 2669.82,863.808 C2670.6,861.717 2671.37,859.935 2672.15,858.463 C2669.12,857.843 2666.14,857.533 2663.2,857.533 C2657.77,857.533 2650.57,862.143 2641.58,871.362 C2633.53,879.574 2629.5,886.663 2629.5,892.629 C2629.5,899.214 2632.63,902.507 2638.91,902.507 C2646.5,902.507 2652.89,901.035 2658.08,898.091"/>
<path class="Note" d="M2678.89,583.965 C2683.46,583.965 2685.74,586.831 2685.74,592.564 C2685.74,596.593 2683.22,602.597 2678.19,610.577 C2674.16,617.007 2672.15,623.283 2672.15,629.403 C2672.15,632.889 2677.22,634.633 2687.37,634.633 C2695.74,634.633 2707.4,630.1 2722.35,621.036 C2707.32,635.524 2694.26,642.767 2683.19,642.767 C2673.19,642.767 2666.22,641.257 2662.27,638.235 C2661.26,637.46 2660.41,636.531 2659.71,635.446 C2655.84,640.172 2649.37,642.535 2640.3,642.535 C2631.63,642.535 2624.96,640.753 2620.32,637.189 C2617.22,634.788 2615.67,630.953 2615.67,625.684 C2615.67,617.317 2620.63,608.175 2630.54,598.259 C2641.16,587.645 2653.44,582.338 2667.38,582.338 C2670.87,582.338 2673.42,583.616 2675.05,586.173 C2676.37,584.701 2677.65,583.965 2678.89,583.965 M2658.08,630.217 C2658.01,629.597 2657.97,628.977 2657.97,628.357 C2657.97,628.047 2661.92,617.24 2669.82,595.934 C2670.6,593.843 2671.37,592.061 2672.15,590.589 C2669.12,589.969 2666.14,589.659 2663.2,589.659 C2657.77,589.659 2650.57,594.269 2641.58,603.488 C2633.53,611.7 2629.5,618.789 2629.5,624.755 C2629.5,631.34 2632.63,634.633 2638.91,634.633 C2646.5,634.633 2652.89,633.161 2658.08,630.217"/>
<path class="Note" d="M2685.98,759.642 C2696.43,753.057 2704.03,747.672 2708.75,743.489 C2717.43,735.819 2721.77,728.071 2721.77,720.247 C2721.77,711.105 2715.65,706.534 2703.41,706.534 C2690.55,706.534 2677.14,715.792 2663.2,734.308 C2653.75,746.859 2647.04,758.712 2643.09,769.869 C2647.97,766.692 2653.13,765.104 2658.55,765.104 C2663.66,765.104 2667.73,767.389 2670.75,771.96 C2672.84,775.137 2673.89,780.56 2673.89,788.23 C2673.89,795.125 2670.25,803.221 2662.97,812.518 C2658.47,818.251 2653.47,821.118 2647.97,821.118 C2641,821.118 2636.12,819.723 2633.33,816.934 C2629.38,812.983 2627.4,805.158 2627.4,793.459 C2627.4,773.781 2635.35,754.413 2651.23,735.354 C2669.12,713.894 2686.29,703.164 2702.71,703.164 C2715.42,703.164 2724.91,706.146 2731.18,712.112 C2734.82,715.598 2736.64,720.634 2736.64,727.219 C2736.64,734.579 2729.4,742.791 2714.91,751.856 C2707.32,756.659 2697.67,759.255 2685.98,759.642 M2641.58,774.749 C2639.65,781.257 2638.68,787.494 2638.68,793.459 C2638.68,807.637 2640.92,814.726 2645.42,814.726 C2649.68,814.726 2653.01,811.705 2655.41,805.662 C2658.2,798.844 2659.6,791.29 2659.6,783 C2659.6,775.64 2657.15,771.96 2652.27,771.96 C2648.87,771.96 2645.3,772.89 2641.58,774.749"/>
<path class="Note" d="M2678.89,673.256 C2683.46,673.256 2685.74,676.123 2685.74,681.856 C2685.74,685.884 2683.22,691.888 2678.19,699.868 C2674.16,706.299 2672.15,712.574 2672.15,718.694 C2672.15,722.181 2677.22,723.924 2687.37,723.924 C2695.74,723.924 2707.4,719.392 2722.35,710.327 C2707.32,724.815 2694.26,732.059 2683.19,732.059 C2673.19,732.059 2666.22,730.548 2662.27,727.527 C2661.26,726.752 2660.41,725.822 2659.71,724.737 C2655.84,729.463 2649.37,731.826 2640.3,731.826 C2631.63,731.826 2624.96,730.044 2620.32,726.481 C2617.22,724.079 2615.67,720.244 2615.67,714.976 C2615.67,706.609 2620.63,697.467 2630.54,687.55 C2641.16,676.936 2653.44,671.629 2667.38,671.629 C2670.87,671.629 2673.42,672.907 2675.05,675.464 C2676.37,673.992 2677.65,673.256 2678.89,673.256 M2658.08,719.508 C2658.01,718.888 2657.97,718.268 2657.97,717.649 C2657.97,717.339 2661.92,706.531 2669.82,685.226 C2670.6,683.134 2671.37,681.352 2672.15,679.88 C2669.12,679.26 2666.14,678.95 2663.2,678.95 C2657.77,678.95 2650.57,683.56 2641.58,692.779 C2633.53,700.992 2629.5,708.081 2629.5,714.046 C2629.5,720.631 2632.63,723.924 2638.91,723.924 C2646.5,723.924 2652.89,722.452 2658.08,719.508"/>
<path class="Note" d="M3031.33,945.081 C3031.64,933.383 3038.11,923.001 3050.74,913.937 C3061.97,905.879 3074.25,901.851 3087.58,901.851 C3106.25,901.851 3122.71,909.172 3136.97,923.815 C3146.03,933.189 3150.56,944.81 3150.56,958.678 C3150.56,971.151 3147.23,980.719 3140.57,987.382 C3132.43,995.594 3123.83,999.7 3114.77,999.7 C3108.57,999.7 3103.77,998.306 3100.36,995.517 C3094.78,990.946 3091.99,984.825 3091.99,977.155 C3091.99,967.239 3096.95,958.174 3106.87,949.962 C3115,943.222 3123.17,938.806 3131.39,936.714 C3129.22,932.995 3126.47,929.509 3123.14,926.255 C3112.75,916.106 3100.98,911.031 3087.81,911.031 C3074.1,911.031 3062.75,914.014 3053.76,919.98 C3044.46,926.1 3036.99,934.467 3031.33,945.081 M3134.29,942.873 C3130.03,946.824 3125.77,951.047 3121.51,955.54 C3113.14,964.372 3108.96,972.739 3108.96,980.642 C3108.96,989.086 3110.9,993.309 3114.77,993.309 C3118.26,993.309 3123.14,988.544 3129.41,979.015 C3134.45,971.422 3136.97,964.45 3136.97,958.097 C3136.97,952.674 3136.07,947.599 3134.29,942.873"/>
<path class="Note" d="M3142.42,583.965 C3146.99,583.965 3149.27,586.831 3149.27,592.564 C3149.27,596.593 3146.76,602.597 3141.72,610.577 C3137.69,617.007 3135.68,623.283 3135.68,629.403 C3135.68,632.889 3140.75,634.633 3150.9,634.633 C3159.27,634.633 3170.93,630.1 3185.88,621.036 C3170.85,635.524 3157.8,642.767 3146.72,642.767 C3136.72,642.767 3129.75,641.257 3125.8,638.235 C3124.79,637.46 3123.94,636.531 3123.24,635.446 C3119.37,640.172 3112.9,642.535 3103.84,642.535 C3095.16,642.535 3088.5,640.753 3083.85,637.189 C3080.75,634.788 3079.2,630.953 3079.2,625.684 C3079.2,617.317 3084.16,608.175 3094.07,598.259 C3104.69,587.645 3116.97,582.338 3130.91,582.338 C3134.4,582.338 3136.96,583.616 3138.58,586.173 C3139.9,584.701 3141.18,583.965 3142.42,583.965 M3121.62,630.217 C3121.54,629.597 3121.5,628.977 3121.5,628.357 C3121.5,628.047 3125.45,617.24 3133.35,595.934 C3134.13,593.843 3134.9,592.061 3135.68,590.589 C3132.66,589.969 3129.67,589.659 3126.73,589.659 C3121.31,589.659 3114.1,594.269 3105.11,603.488 C3097.06,611.7 3093.03,618.789 3093.03,624.755 C3093.03,631.34 3096.17,634.633 3102.44,634.633 C3110.03,634.633 3116.43,633.161 3121.62,630.217"/>
<path class="Note" d="M3142.42,494.673 C3146.99,494.673 3149.27,497.54 3149.27,503.273 C3149.27,507.302 3146.76,513.306 3141.72,521.286 C3137.69,527.716 3135.68,533.991 3135.68,540.112 C3135.68,543.598 3140.75,545.341 3150.9,545.341 C3159.27,545.341 3170.93,540.809 3185.88,531.745 C3170.85,546.232 3157.8,553.476 3146.72,553.476 C3136.72,553.476 3129.75,551.965 3125.8,548.944 C3124.79,548.169 3123.94,547.239 3123.24,546.155 C3119.37,550.881 3112.9,553.244 3103.84,553.244 C3095.16,553.244 3088.5,551.462 3083.85,547.898 C3080.75,545.496 3079.2,541.661 3079.2,536.393 C3079.2,528.026 3084.16,518.884 3094.07,508.967 C3104.69,498.353 3116.97,493.046 3130.91,493.046 C3134.4,493.046 3136.96,494.325 3138.58,496.881 C3139.9,495.409 3141.18,494.673 3142.42,494.673 M3121.62,540.925 C3121.54,540.305 3121.5,539.686 3121.5,539.066 C3121.5,538.756 3125.45,527.948 3133.35,506.643 C3134.13,504.551 3134.9,502.769 3135.68,501.297 C3132.66,500.678 3129.67,500.368 3126.73,500.368 C3121.31,500.368 3114.1,504.977 3105.11,514.197 C3097.06,522.409 3093.03,529.498 3093.03,535.463 C3093.03,542.049 3096.17,545.341 3102.44,545.341 C3110.03,545.341 3116.43,543.869 3121.62,540.925"/>
<path class="Note" d="M3149.51,670.351 C3159.97,663.765 3167.56,658.381 3172.28,654.197 C3180.96,646.527 3185.3,638.78 3185.3,630.955 C3185.3,621.813 3179.18,617.242 3166.94,617.242 C3154.08,617.242 3140.68,626.5 3126.73,645.017 C3117.28,657.568 3110.58,669.421 3106.63,680.577 C3111.51,677.401 3116.66,675.813 3122.08,675.813 C3127.19,675.813 3131.26,678.098 3134.28,682.669 C3136.38,685.846 3137.42,691.269 3137.42,698.939 C3137.42,705.834 3133.78,713.93 3126.5,723.227 C3122,728.96 3117.01,731.826 3111.51,731.826 C3104.53,731.826 3099.65,730.432 3096.86,727.643 C3092.91,723.692 3090.94,715.867 3090.94,704.168 C3090.94,684.49 3098.88,665.121 3114.76,646.063 C3132.66,624.602 3149.82,613.872 3166.24,613.872 C3178.95,613.872 3188.44,616.855 3194.71,622.82 C3198.35,626.307 3200.18,631.343 3200.18,637.928 C3200.18,645.288 3192.93,653.5 3178.44,662.565 C3170.85,667.368 3161.21,669.963 3149.51,670.351 M3105.11,685.458 C3103.18,691.966 3102.21,698.203 3102.21,704.168 C3102.21,718.346 3104.46,725.435 3108.95,725.435 C3113.21,725.435 3116.54,722.413 3118.94,716.37 C3121.73,709.553 3123.13,701.999 3123.13,693.709 C3123.13,686.349 3120.69,682.669 3115.81,682.669 C3112.4,682.669 3108.83,683.599 3105.11,685.458"/>
<path class="Note" d="M3610.45,999.7 C3606.66,999.7 3604.76,995.633 3604.76,987.498 L3604.76,953.448 C3604.76,950.194 3606.35,948.568 3609.53,948.568 C3610.92,948.568 3611.97,948.684 3612.66,948.916 C3615.14,944.578 3619.21,940.936 3624.86,937.992 C3632.77,933.886 3640.79,931.833 3648.92,931.833 C3655.35,931.833 3658.57,934.235 3658.57,939.038 C3658.57,943.067 3656.4,945.081 3652.06,945.081 C3648.96,945.081 3646.02,944.384 3643.23,942.989 C3640.75,941.75 3638.11,941.13 3635.32,941.13 C3630.52,941.13 3623.43,944.268 3614.06,950.543 C3615.37,956.818 3616.03,964.14 3616.03,972.507 C3616.03,990.636 3614.17,999.7 3610.45,999.7"/>
<path class="Note" d="M3654.73,583.965 C3659.3,583.965 3661.59,586.831 3661.59,592.564 C3661.59,596.593 3659.07,602.597 3654.03,610.577 C3650.01,617.007 3647.99,623.283 3647.99,629.403 C3647.99,632.889 3653.07,634.633 3663.21,634.633 C3671.58,634.633 3683.24,630.1 3698.19,621.036 C3683.16,635.524 3670.11,642.767 3659.03,642.767 C3649.04,642.767 3642.06,641.257 3638.11,638.235 C3637.11,637.46 3636.25,636.531 3635.56,635.446 C3631.68,640.172 3625.21,642.535 3616.15,642.535 C3607.47,642.535 3600.81,640.753 3596.16,637.189 C3593.06,634.788 3591.51,630.953 3591.51,625.684 C3591.51,617.317 3596.47,608.175 3606.39,598.259 C3617,587.645 3629.28,582.338 3643.23,582.338 C3646.71,582.338 3649.27,583.616 3650.9,586.173 C3652.21,584.701 3653.49,583.965 3654.73,583.965 M3633.93,630.217 C3633.85,629.597 3633.81,628.977 3633.81,628.357 C3633.81,628.047 3637.76,617.24 3645.67,595.934 C3646.44,593.843 3647.22,592.061 3647.99,590.589 C3644.97,589.969 3641.99,589.659 3639.04,589.659 C3633.62,589.659 3626.41,594.269 3617.43,603.488 C3609.37,611.7 3605.34,618.789 3605.34,624.755 C3605.34,631.34 3608.48,634.633 3614.75,634.633 C3622.35,634.633 3628.74,633.161 3633.93,630.217"/>
<path class="Note" d="M3661.82,759.642 C3672.28,753.057 3679.87,747.672 3684.6,743.489 C3693.27,735.819 3697.61,728.071 3697.61,720.247 C3697.61,711.105 3691.49,706.534 3679.25,706.534 C3666.39,706.534 3652.99,715.792 3639.04,734.308 C3629.59,746.859 3622.89,758.712 3618.94,769.869 C3623.82,766.692 3628.97,765.104 3634.39,765.104 C3639.51,765.104 3643.57,767.389 3646.6,771.96 C3648.69,775.137 3649.73,780.56 3649.73,788.23 C3649.73,795.125 3646.09,803.221 3638.81,812.518 C3634.32,818.251 3629.32,821.118 3623.82,821.118 C3616.85,821.118 3611.97,819.723 3609.18,816.934 C3605.23,812.983 3603.25,805.158 3603.25,793.459 C3603.25,773.781 3611.19,754.413 3627.07,735.354 C3644.97,713.894 3662.13,703.164 3678.55,703.164 C3691.26,703.164 3700.75,706.146 3707.03,712.112 C3710.67,715.598 3712.49,720.634 3712.49,727.219 C3712.49,734.579 3705.24,742.791 3690.76,751.856 C3683.16,756.659 3673.52,759.255 3661.82,759.642 M3617.43,774.749 C3615.49,781.257 3614.52,787.494 3614.52,793.459 C3614.52,807.637 3616.77,814.726 3621.26,814.726 C3625.52,814.726 3628.85,811.705 3631.26,805.662 C3634.05,798.844 3635.44,791.29 3635.44,783 C3635.44,775.64 3633,771.96 3628.12,771.96 C3624.71,771.96 3621.15,772.89 3617.43,774.749"/>
<path class="Note" d="M3543.64,677.207 C3543.95,665.509 3550.42,655.127 3563.05,646.063 C3574.28,638.005 3586.56,633.977 3599.89,633.977 C3618.56,633.977 3635.02,641.298 3649.28,655.941 C3658.34,665.315 3662.87,676.936 3662.87,690.804 C3662.87,703.277 3659.54,712.845 3652.88,719.508 C3644.75,727.72 3636.15,731.826 3627.08,731.826 C3620.88,731.826 3616.08,730.432 3612.67,727.643 C3607.09,723.072 3604.3,716.951 3604.3,709.281 C3604.3,699.365 3609.26,690.3 3619.18,682.088 C3627.31,675.348 3635.49,670.932 3643.7,668.84 C3641.53,665.121 3638.78,661.635 3635.45,658.381 C3625.07,648.232 3613.29,643.157 3600.12,643.157 C3586.41,643.157 3575.06,646.14 3566.07,652.106 C3556.77,658.226 3549.3,666.593 3543.64,677.207 M3646.61,674.999 C3642.34,678.95 3638.08,683.173 3633.82,687.666 C3625.45,696.498 3621.27,704.865 3621.27,712.768 C3621.27,721.212 3623.21,725.435 3627.08,725.435 C3630.57,725.435 3635.45,720.67 3641.72,711.141 C3646.76,703.548 3649.28,696.576 3649.28,690.223 C3649.28,684.8 3648.39,679.725 3646.61,674.999"/>
<path class="Note" d="M4125.38,941.13 C4129.95,941.13 4132.24,943.997 4132.24,949.73 C4132.24,953.758 4129.72,959.763 4124.69,967.742 C4120.66,974.173 4118.64,980.448 4118.64,986.568 C4118.64,990.055 4123.72,991.798 4133.87,991.798 C4142.23,991.798 4153.89,987.266 4168.85,978.201 C4153.82,992.689 4140.76,999.933 4129.68,999.933 C4119.69,999.933 4112.72,998.422 4108.77,995.401 C4107.76,994.626 4106.91,993.696 4106.21,992.611 C4102.34,997.337 4095.87,999.7 4086.8,999.7 C4078.12,999.7 4071.46,997.918 4066.81,994.355 C4063.71,991.953 4062.17,988.118 4062.17,982.85 C4062.17,974.483 4067.12,965.341 4077.04,955.424 C4087.65,944.81 4099.93,939.503 4113.88,939.503 C4117.37,939.503 4119.92,940.781 4121.55,943.338 C4122.87,941.866 4124.14,941.13 4125.38,941.13 M4104.58,987.382 C4104.5,986.762 4104.47,986.142 4104.47,985.523 C4104.47,985.213 4108.42,974.405 4116.32,953.1 C4117.09,951.008 4117.87,949.226 4118.64,947.754 C4115.62,947.134 4112.64,946.824 4109.7,946.824 C4104.27,946.824 4097.07,951.434 4088.08,960.653 C4080.02,968.866 4075.99,975.955 4075.99,981.92 C4075.99,988.505 4079.13,991.798 4085.41,991.798 C4093,991.798 4099.39,990.326 4104.58,987.382"/>
<path class="Note" d="M4125.38,583.965 C4129.95,583.965 4132.24,586.831 4132.24,592.564 C4132.24,596.593 4129.72,602.597 4124.69,610.577 C4120.66,617.007 4118.64,623.283 4118.64,629.403 C4118.64,632.889 4123.72,634.633 4133.87,634.633 C4142.23,634.633 4153.89,630.1 4168.85,621.036 C4153.82,635.524 4140.76,642.767 4129.68,642.767 C4119.69,642.767 4112.72,641.257 4108.77,638.235 C4107.76,637.46 4106.91,636.531 4106.21,635.446 C4102.34,640.172 4095.87,642.535 4086.8,642.535 C4078.12,642.535 4071.46,640.753 4066.81,637.189 C4063.71,634.788 4062.17,630.953 4062.17,625.684 C4062.17,617.317 4067.12,608.175 4077.04,598.259 C4087.65,587.645 4099.93,582.338 4113.88,582.338 C4117.37,582.338 4119.92,583.616 4121.55,586.173 C4122.87,584.701 4124.14,583.965 4125.38,583.965 M4104.58,630.217 C4104.5,629.597 4104.47,628.977 4104.47,628.357 C4104.47,628.047 4108.42,617.24 4116.32,595.934 C4117.09,593.843 4117.87,592.061 4118.64,590.589 C4115.62,589.969 4112.64,589.659 4109.7,589.659 C4104.27,589.659 4097.07,594.269 4088.08,603.488 C4080.02,611.7 4075.99,618.789 4075.99,624.755 C4075.99,631.34 4079.13,634.633 4085.41,634.633 C4093,634.633 4099.39,633.161 4104.58,630.217"/>
<path class="Note" d="M4125.38,494.673 C4129.95,494.673 4132.24,497.54 4132.24,503.273 C4132.24,507.302 4129.72,513.306 4124.69,521.286 C4120.66,527.716 4118.64,533.991 4118.64,540.112 C4118.64,543.598 4123.72,545.341 4133.87,545.341 C4142.23,545.341 4153.89,540.809 4168.85,531.745 C4153.82,546.232 4140.76,553.476 4129.68,553.476 C4119.69,553.476 4112.72,551.965 4108.77,548.944 C4107.76,548.169 4106.91,547.239 4106.21,546.155 C4102.34,550.881 4095.87,553.244 4086.8,553.244 C4078.12,553.244 4071.46,551.462 4066.81,547.898 C4063.71,545.496 4062.17,541.661 4062.17,536.393 C4062.17,528.026 4067.12,518.884 4077.04,508.967 C4087.65,498.353 4099.93,493.046 4113.88,493.046 C4117.37,493.046 4119.92,494.325 4121.55,496.881 C4122.87,495.409 4124.14,494.673 4125.38,494.673 M4104.58,540.925 C4104.5,540.305 4104.47,539.686 4104.47,539.066 C4104.47,538.756 4108.42,527.948 4116.32,506.643 C4117.09,504.551 4117.87,502.769 4118.64,501.297 C4115.62,500.678 4112.64,500.368 4109.7,500.368 C4104.27,500.368 4097.07,504.977 4088.08,514.197 C4080.02,522.409 4075.99,529.498 4075.99,535.463 C4075.99,542.049 4079.13,545.341 4085.41,545.341 C4093,545.341 4099.39,543.869 4104.58,540.925"/>
<path class="Note" d="M4132.47,670.351 C4142.93,663.765 4150.52,658.381 4155.25,654.197 C4163.93,646.527 4168.27,638.78 4168.27,630.955 C4168.27,621.813 4162.15,617.242 4149.9,617.242 C4137.04,617.242 4123.64,626.5 4109.7,645.017 C4100.24,657.568 4093.54,669.421 4089.59,680.577 C4094.47,677.401 4099.62,675.813 4105.05,675.813 C4110.16,675.813 4114.23,678.098 4117.25,682.669 C4119.34,685.846 4120.39,691.269 4120.39,698.939 C4120.39,705.834 4116.75,713.93 4109.46,723.227 C4104.97,728.96 4099.97,731.826 4094.47,731.826 C4087.5,731.826 4082.62,730.432 4079.83,727.643 C4075.88,723.692 4073.9,715.867 4073.9,704.168 C4073.9,684.49 4081.84,665.121 4097.73,646.063 C4115.62,624.602 4132.78,613.872 4149.21,613.872 C4161.91,613.872 4171.4,616.855 4177.68,622.82 C4181.32,626.307 4183.14,631.343 4183.14,637.928 C4183.14,645.288 4175.9,653.5 4161.41,662.565 C4153.82,667.368 4144.17,669.963 4132.47,670.351 M4088.08,685.458 C4086.14,691.966 4085.17,698.203 4085.17,704.168 C4085.17,718.346 4087.42,725.435 4091.92,725.435 C4096.18,725.435 4099.51,722.413 4101.91,716.37 C4104.7,709.553 4106.09,701.999 4106.09,693.709 C4106.09,686.349 4103.65,682.669 4098.77,682.669 C4095.36,682.669 4091.8,683.599 4088.08,685.458"/>
<path class="Clef" transform="matrix(2.3811,0,0,2.3811,212.156,2076.38)" d="M25.4,-25.1 C17.8,-25.1 11.7,-20.7 11.6,-20.7 C5.8,-16.4 3.5,-11.3 2.6,-7.8 C2.1,-6 1.9,-4.2 1.9,-2.5 C1.9,-0.1 2.3,2.1 3.2,4 C4.4,6.7 6.7,8.6 9.7,9.6 C10.9,10 12.2,10.2 13.5,10.2 C15.7,10.2 18,9.6 19.9,8.5 C23,6.8 24.9,3.2 24.9,-0.7 C24.9,-4.2 23.1,-7.4 20.1,-9.3 C18,-10.7 16,-11.1 14.3,-11.1 C13.1,-11.1 12,-10.9 11.1,-10.6 C10.1,-10.2 8.4,-9.2 7.6,-8.5 C7.9,-10.4 9.1,-13.3 10.2,-14.9 C11.3,-16.5 13.5,-18.5 15.2,-19.4 C17.7,-20.8 20.9,-21.4 24.4,-21.4 C34.6,-21.4 39.6,-13.2 39.6,3.6 C39.6,12.9 36.1,21.8 33.1,27.7 C29.8,34.3 25.4,40.6 21.5,44.1 C11.1,53.6 1.3,58.1 1.2,58.1 C1.2,58.1 -0.3,59 0.1,60.5 C0.4,61.5 1.3,61.7 1.9,61.7 C2,61.7 2.3,61.6 2.4,61.6 C2.5,61.6 13.9,56.9 23,49.8 C28.1,46.1 32.7,42.1 36.7,37.8 C40.3,33.9 43.4,29.7 45.9,25.5 C50.3,18 52.8,10.2 52.8,3.5 C52.8,-4.8 50.6,-11.7 46.5,-16.6 C41.8,-22.2 34.7,-25.1 25.4,-25.1 M56.8,-12.4 C56.8,-9.6 59,-7.4 61.6,-7.4 C64.2,-7.4 66.4,-9.6 66.4,-12.4 C66.4,-15.2 64.2,-17.5 61.6,-17.5 C59,-17.5 56.8,-15.2 56.8,-12.4 M56.8,12.3 C56.8,15.1 59,17.4 61.6,17.4 C64.2,17.4 66.4,15.1 66.4,12.3 C66.4,9.5 64.2,7.2 61.6,7.2 C59,7.2 56.8,9.5 56.8,12.3"/>
<path class="Clef" transform="matrix(2.3811,0,0,2.3811,212.156,1570.39)" d="M63.35,-5.86992 C62.12,-11.3 59.48,-15.1199 58.7,-16.16 C55.51,-20.43 51.5,-23.28 46.81,-24.63 C43.7,-25.5199 40.7,-25.63 38.28,-25.45 C37.24,-31.46 36.24,-37.3399 35.33,-42.7899 C40.78,-48.96 44.4,-54.76 46.68,-59.06 C50.15,-65.6399 51.3,-70.2199 51.35,-70.4199 C53.07,-75.63 53.43,-83.33 52.33,-91.5399 C51.32,-99.0899 49.23,-105.8 46.88,-109.05 C45.85,-110.48 44.8,-111.21 43.76,-111.21 C42.54,-111.21 40.03,-109.97 37.14,-107.2 C34.84,-105 31.57,-101.11 29.01,-95.1 C26.01,-88.0399 25.8,-78.55 26.15,-71.83 C26.53,-64.56 27.64,-58.8699 27.65,-58.8199 C27.67,-58.73 27.93,-57.23 28.38,-54.66 C28.15,-54.43 27.91,-54.21 27.66,-53.9699 C26.62,-52.9699 25.43,-51.83 24.05,-50.45 C23.19,-49.5899 22.24,-48.68 21.24,-47.71 C12.79,-39.5699 0,-27.25 0,-8.1 C0,-3.4 0.9,1.02002 2.67998,5.03008 C4.27002,8.63008 6.57002,11.9101 9.5,14.7801 C17.23,22.3301 27.82,25.54 34.88,25.3801 C37.83,25.3101 40.46,25.07 42.85,24.62 C44.68,34.22 45.82,41.25 45.86,46.59 C45.9,53.1 44.25,57.07 40.35,59.84 C37.92,61.57 35.11,62.52 32.01,62.67 C29.42,62.79 27.16,62.32 25.73,61.9101 L25.72,61.9101 C25.72,61.9101 25.43,61.8301 25.42,61.6301 C25.41,61.45 25.76,61.4 25.77,61.4 L25.79,61.4 C27.71,60.9601 31.28,59.7301 33.64,56.4301 C35.44,53.9101 36.31,49.29 34.47,45.35 C33.36,42.9601 30.85,40.0101 25.23,39.5601 C22.74,39.3601 20.47,39.87 18.47,41.07 C16.66,42.15 15.16,43.79 14.11,45.79 C11.65,50.49 12.11,56.22 15.24,60.0601 C18.2,63.6801 22.82,65.99 28.25,66.57 C29.1,66.6601 29.95,66.7 30.8,66.7 C35.23,66.7 39.63,65.5 43.2,63.29 C46.86,60.72 48.98,56.74 49.66,51.1101 C50.22,46.47 49.83,40.5601 48.43,32.49 C48.07,30.4 47.53,27.37 46.87,23.6101 C52.62,21.69 56.78,18.12 60.55,12.27 C63.84,6.53008 64.78,0.430078 63.35,-5.86992 M29.14,20.32 C24.5,19.1 20.07,16.6 16.31,13.1 C15,11.87 13.13,9.7 11.66,6.31006 C10.29,3.15 9.62998,-0.27998 9.67998,-3.86992 C9.75,-8.55996 11.06,-13.38 13.57,-18.1699 C16.49,-23.75 21.05,-29.28 27.11,-34.61 C28.56,-35.8899 29.93,-37.1699 31.22,-38.45 C31.98,-34.1899 32.81,-29.5 33.69,-24.6199 C29.84,-23.35 25.09,-20.2 21.98,-14.55 C18.44,-7.97998 18.58,-2.45996 19.31,1.02002 C20.25,5.48008 22.78,9.24004 26.24,11.3301 C27.17,11.89 31.3,14.02 33.14,13.44 C33.51,13.32 33.78,13.1 33.92,12.77 C34.43,11.6 33.41,10.9601 31.85,10 C31.25,9.63008 30.58,9.21006 29.85,8.68008 C26.53,6.19004 25.08,1.74004 26.15,-2.63994 C26.73,-5.03994 28.01,-7.2 29.85,-8.9 C31.52,-10.45 33.56,-11.55 35.94,-12.1899 C37.98,-0.95 40.04,10.2 41.68,18.5601 C41.81,19.25 41.95,19.92 42.08,20.59 C37.7,21.52 33.35,21.4301 29.14,20.32 M40.46,-12.86 C50.81,-13.33 55.08,-5.88994 55.97,-1.05996 C56.44,1.47002 56.43,5.91006 54.89,10.12 C53.72,13.3 51.26,17.37 46.13,19.4301 C46.06,19.0101 45.98,18.5801 45.9,18.15 C44.36,9.38008 42.42,-1.60996 40.46,-12.86 M33.14,-83.8 C34.92,-89.5399 37.66,-92.7899 39.65,-94.5199 C41.4,-96.0399 43.05,-96.75 43.97,-96.75 C44.11,-96.75 44.23,-96.73 44.33,-96.7 C44.79,-96.56 45.32,-95.9899 45.79,-95.1199 C48.1,-90.83 47.36,-84.1199 46.02,-79.68 C44.39,-74.28 41.47,-68.66 32.67,-59.05 C32.5,-60.16 32.34,-61.21 32.19,-62.1899 C30.94,-70.48 31.26,-77.75 33.14,-83.8"/>
<path class="FiguredBass" d="M1059.76,2390.15 C1055.18,2390.15 1052.13,2391.99 1050.62,2395.67 C1049.1,2399.35 1048.35,2404.56 1048.35,2411.3 L1048.35,2422.25 C1051.56,2420.95 1054.34,2420.27 1056.69,2420.21 C1064.73,2420.21 1071.06,2421.98 1075.67,2425.54 C1080.27,2429.1 1082.58,2434.38 1082.58,2441.4 C1082.58,2448.42 1080.24,2453.73 1075.57,2457.31 C1070.9,2460.9 1064.61,2462.7 1056.69,2462.7 C1048.59,2462.7 1042.25,2458.94 1037.68,2451.42 C1033.1,2443.91 1030.81,2434.99 1030.81,2424.66 C1030.81,2414.39 1033.47,2405.49 1038.79,2397.94 C1044.11,2390.39 1051.1,2386.62 1059.76,2386.62 C1065.45,2386.62 1070.36,2388.06 1074.51,2390.94 C1078.65,2393.81 1080.72,2397.6 1080.72,2402.3 C1080.72,2405.02 1079.73,2407.37 1077.75,2409.35 C1075.78,2411.33 1073.41,2412.32 1070.66,2412.32 C1067.9,2412.32 1065.54,2411.33 1063.56,2409.35 C1061.58,2407.37 1060.59,2405.02 1060.59,2402.3 C1060.59,2399.64 1061.58,2397.29 1063.56,2395.25 C1064.24,2394.45 1065.2,2393.76 1066.44,2393.21 C1066.13,2392.4 1065.51,2391.79 1064.58,2391.35 C1063.22,2390.55 1061.61,2390.15 1059.76,2390.15 M1064.3,2428.09 C1063.19,2425.18 1060.75,2423.73 1056.97,2423.73 C1053.2,2423.73 1050.87,2425.18 1049.97,2428.09 C1049.07,2431 1048.62,2435.42 1048.62,2441.36 C1048.62,2448.35 1049.07,2453.05 1049.97,2455.46 C1050.87,2457.87 1053.2,2459.08 1056.97,2459.08 C1060.75,2459.08 1063.19,2457.62 1064.3,2454.72 C1065.42,2451.81 1065.97,2447.37 1065.97,2441.4 C1065.97,2435.44 1065.42,2431 1064.3,2428.09"/>
<path class="FiguredBass" d="M1568.03,2436.07 L1568.03,2419.09 C1568.03,2418.1 1568.39,2417.22 1569.1,2416.45 C1569.81,2415.67 1570.72,2415.29 1571.84,2415.29 C1572.95,2415.29 1573.86,2415.67 1574.57,2416.45 C1575.29,2417.22 1575.64,2418.1 1575.64,2419.09 L1575.64,2436.07 L1588.91,2436.07 C1590.02,2436.07 1590.93,2436.46 1591.64,2437.23 C1592.36,2438 1592.71,2438.88 1592.71,2439.87 C1592.71,2440.86 1592.36,2441.74 1591.64,2442.52 C1590.93,2443.29 1590.02,2443.68 1588.91,2443.68 L1575.64,2443.68 L1575.64,2460.65 C1575.64,2461.64 1575.29,2462.53 1574.57,2463.3 C1573.86,2464.07 1572.95,2464.46 1571.84,2464.46 C1570.72,2464.46 1569.81,2464.07 1569.1,2463.3 C1568.39,2462.53 1568.03,2461.64 1568.03,2460.65 L1568.03,2443.68 L1550.87,2443.68 L1550.87,2444.88 C1550.87,2448.72 1551.89,2452.06 1553.93,2454.9 C1555.97,2457.75 1558.6,2459.17 1561.82,2459.17 C1563.05,2459.17 1563.67,2459.73 1563.67,2460.84 C1563.67,2462.08 1563.05,2462.7 1561.82,2462.7 C1559.59,2462.7 1556.28,2462.37 1551.89,2461.72 C1547.5,2461.07 1544.18,2460.75 1541.92,2460.75 C1539.66,2460.75 1536.34,2461.07 1531.94,2461.72 C1527.55,2462.37 1524.24,2462.7 1522.02,2462.7 C1520.78,2462.7 1520.16,2462.08 1520.16,2460.84 C1520.16,2459.73 1520.78,2459.17 1522.02,2459.17 C1525.23,2459.17 1527.88,2457.75 1529.95,2454.9 C1532.02,2452.06 1533.06,2448.72 1533.06,2444.88 L1533.06,2443.68 L1507.73,2443.68 C1506.12,2443.68 1504.93,2443.29 1504.16,2442.52 C1503.39,2441.74 1503,2440.96 1503,2440.15 C1503,2439.84 1503.73,2438.78 1505.18,2436.95 C1506.63,2435.13 1508.41,2432.7 1510.51,2429.67 C1512.62,2426.64 1514.7,2423.19 1516.78,2419.32 C1518.85,2415.46 1520.61,2410.82 1522.06,2405.41 C1523.52,2400 1524.24,2394.54 1524.24,2389.03 C1524.24,2387.43 1524.92,2386.62 1526.29,2386.62 C1526.47,2386.62 1527.12,2386.78 1528.23,2387.09 C1529.35,2387.39 1530.77,2387.72 1532.5,2388.06 C1534.23,2388.4 1535.9,2388.57 1537.51,2388.57 C1539.92,2388.57 1542.4,2388.23 1544.93,2387.55 L1549.11,2386.44 C1549.91,2386.44 1550.56,2386.74 1551.06,2387.36 C1551.43,2387.92 1551.37,2388.48 1550.87,2389.03 L1510.42,2436.07 L1533.06,2436.07 L1533.06,2419.37 C1533.06,2417.95 1533.44,2416.85 1534.22,2416.08 C1534.99,2415.3 1536.04,2414.65 1537.37,2414.13 C1538.7,2413.6 1540.23,2412.26 1541.96,2410.09 C1543.57,2408.05 1545.43,2404.96 1547.53,2400.82 C1547.84,2400.2 1548.3,2399.89 1548.92,2399.89 C1550.22,2399.89 1550.87,2400.6 1550.87,2402.02 L1550.87,2436.07 L1568.03,2436.07 "/>
<path class="FiguredBass" d="M1550.04,2528.09 C1550.04,2529.08 1550.59,2530.04 1551.71,2530.97 C1552.82,2531.89 1554.04,2532.77 1555.37,2533.61 C1556.7,2534.44 1557.92,2536.02 1559.03,2538.34 C1560.15,2540.66 1560.7,2543.58 1560.7,2547.11 C1560.7,2553.91 1558.14,2559.17 1553,2562.88 C1547.87,2566.59 1541.38,2568.45 1533.52,2568.45 C1527.21,2568.45 1521.72,2566.87 1517.05,2563.71 C1512.39,2560.56 1510.05,2556.42 1510.05,2551.28 C1510.05,2548.56 1511.04,2546.2 1513.02,2544.19 C1515,2542.18 1517.36,2541.17 1520.12,2541.17 C1522.87,2541.17 1525.2,2542.16 1527.12,2544.14 C1529.04,2546.12 1530,2548.5 1530,2551.28 C1530,2552.52 1528.98,2553.86 1526.94,2555.32 C1524.89,2556.77 1523.87,2558.12 1523.87,2559.35 C1523.87,2561.27 1524.82,2562.68 1526.7,2563.57 C1528.59,2564.47 1530.86,2564.92 1533.52,2564.92 C1536.99,2564.92 1539.44,2563.2 1540.9,2559.77 C1542.35,2556.34 1543.08,2552.12 1543.08,2547.11 L1543.08,2544.7 C1543.08,2541.36 1542.97,2538.82 1542.75,2537.09 C1542.54,2535.36 1541.86,2533.81 1540.71,2532.45 C1539.57,2531.09 1537.82,2530.41 1535.47,2530.41 L1523.32,2530.41 C1521.89,2530.41 1521.18,2529.64 1521.18,2528.09 C1521.18,2526.67 1521.89,2525.96 1523.32,2525.96 L1535.47,2525.96 C1538.01,2525.96 1539.99,2525 1541.41,2523.08 C1541.9,2522.4 1542.3,2521.29 1542.61,2519.74 C1542.92,2517.7 1543.08,2514.76 1543.08,2510.93 L1543.08,2509.72 C1543.08,2500.5 1539.68,2495.9 1532.87,2495.9 C1526.87,2495.9 1523.87,2497.57 1523.87,2500.91 C1523.87,2502.02 1524.79,2503.21 1526.61,2504.48 C1528.43,2505.75 1529.35,2506.94 1529.35,2508.05 C1529.35,2510.46 1528.5,2512.53 1526.8,2514.27 C1525.1,2516 1523.02,2516.86 1520.58,2516.86 C1518.14,2516.86 1516.08,2516 1514.41,2514.27 C1512.74,2512.53 1511.91,2510.46 1511.91,2508.05 C1511.91,2503.29 1513.98,2499.48 1518.12,2496.64 C1522.27,2493.79 1527.18,2492.37 1532.87,2492.37 C1540.36,2492.37 1546.51,2493.81 1551.33,2496.69 C1556.16,2499.56 1558.57,2503.91 1558.57,2509.72 C1558.57,2513.86 1558.14,2517.08 1557.27,2519.37 C1556.41,2521.66 1555.42,2523.05 1554.3,2523.54 C1553.19,2524.04 1552.2,2524.61 1551.33,2525.26 C1550.47,2525.91 1550.04,2526.85 1550.04,2528.09"/>
<path class="FiguredBass" d="M2133.25,2453.05 L2133.25,2472.44 C2133.25,2474.35 2132.28,2475.31 2130.33,2475.31 C2128.38,2475.31 2127.41,2474.35 2127.41,2472.44 L2127.41,2455.55 L2124.44,2456.76 C2124.13,2456.88 2123.73,2456.94 2123.23,2456.94 C2122.43,2456.94 2121.72,2456.63 2121.1,2456.02 C2120.48,2455.4 2120.17,2454.69 2120.17,2453.88 L2120.17,2444.42 C2120.17,2443.06 2120.82,2442.1 2122.12,2441.54 L2127.41,2439.32 L2127.41,2419.83 L2124.44,2421.04 C2124.25,2421.1 2124,2421.13 2123.69,2421.13 C2123.57,2421.13 2123.42,2421.13 2123.23,2421.13 C2122.3,2421.01 2121.56,2420.67 2121,2420.11 C2120.45,2419.56 2120.17,2418.91 2120.17,2418.16 L2120.17,2408.7 C2120.17,2407.4 2120.82,2406.47 2122.12,2405.92 L2127.41,2403.69 L2127.41,2383.93 C2127.41,2382.01 2128.38,2381.05 2130.33,2381.05 C2132.28,2381.05 2133.25,2382.01 2133.25,2383.93 L2133.25,2401.28 L2145.22,2396.27 L2145.22,2376.88 C2145.22,2374.96 2146.18,2374 2148.09,2374 C2150.01,2374 2150.97,2374.96 2150.97,2376.88 L2150.97,2393.95 L2154.22,2392.56 C2154.53,2392.44 2154.87,2392.37 2155.24,2392.37 C2156.04,2392.37 2156.77,2392.68 2157.42,2393.3 C2158.07,2393.92 2158.39,2394.63 2158.39,2395.43 L2158.39,2404.9 C2158.39,2406.26 2157.71,2407.22 2156.35,2407.77 L2150.97,2410 L2150.97,2429.58 L2154.22,2428.28 C2154.4,2428.21 2154.62,2428.18 2154.87,2428.18 C2154.99,2428.18 2155.11,2428.18 2155.24,2428.18 C2156.29,2428.37 2157.08,2428.71 2157.6,2429.2 C2158.13,2429.7 2158.39,2430.35 2158.39,2431.15 L2158.39,2440.62 C2158.39,2441.91 2157.71,2442.84 2156.35,2443.4 L2150.97,2445.63 L2150.97,2465.39 C2150.97,2467.3 2150.01,2468.26 2148.09,2468.26 C2146.18,2468.26 2145.22,2467.3 2145.22,2465.39 L2145.22,2448.04 L2133.25,2453.05 M2133.25,2436.9 L2145.22,2431.99 L2145.22,2412.41 L2133.25,2417.42 L2133.25,2436.9 "/>
<path class="FiguredBass" d="M2677.13,2436.07 L2677.13,2419.09 C2677.13,2418.1 2677.48,2417.22 2678.2,2416.45 C2678.91,2415.67 2679.82,2415.29 2680.93,2415.29 C2682.05,2415.29 2682.96,2415.67 2683.67,2416.45 C2684.38,2417.22 2684.74,2418.1 2684.74,2419.09 L2684.74,2436.07 L2698,2436.07 C2699.12,2436.07 2700.03,2436.46 2700.74,2437.23 C2701.45,2438 2701.81,2438.88 2701.81,2439.87 C2701.81,2440.86 2701.45,2441.74 2700.74,2442.52 C2700.03,2443.29 2699.12,2443.68 2698,2443.68 L2684.74,2443.68 L2684.74,2460.65 C2684.74,2461.64 2684.38,2462.53 2683.67,2463.3 C2682.96,2464.07 2682.05,2464.46 2680.93,2464.46 C2679.82,2464.46 2678.91,2464.07 2678.2,2463.3 C2677.48,2462.53 2677.13,2461.64 2677.13,2460.65 L2677.13,2443.68 L2659.97,2443.68 L2659.97,2444.88 C2659.97,2448.72 2660.99,2452.06 2663.03,2454.9 C2665.07,2457.75 2667.7,2459.17 2670.91,2459.17 C2672.15,2459.17 2672.77,2459.73 2672.77,2460.84 C2672.77,2462.08 2672.15,2462.7 2670.91,2462.7 C2668.69,2462.7 2665.38,2462.37 2660.99,2461.72 C2656.6,2461.07 2653.27,2460.75 2651.01,2460.75 C2648.76,2460.75 2645.43,2461.07 2641.04,2461.72 C2636.65,2462.37 2633.34,2462.7 2631.11,2462.7 C2629.88,2462.7 2629.26,2462.08 2629.26,2460.84 C2629.26,2459.73 2629.88,2459.17 2631.11,2459.17 C2634.33,2459.17 2636.97,2457.75 2639.05,2454.9 C2641.12,2452.06 2642.15,2448.72 2642.15,2444.88 L2642.15,2443.68 L2616.83,2443.68 C2615.22,2443.68 2614.03,2443.29 2613.25,2442.52 C2612.48,2441.74 2612.09,2440.96 2612.09,2440.15 C2612.09,2439.84 2612.82,2438.78 2614.28,2436.95 C2615.73,2435.13 2617.51,2432.7 2619.61,2429.67 C2621.71,2426.64 2623.8,2423.19 2625.87,2419.32 C2627.94,2415.46 2629.71,2410.82 2631.16,2405.41 C2632.61,2400 2633.34,2394.54 2633.34,2389.03 C2633.34,2387.43 2634.02,2386.62 2635.38,2386.62 C2635.57,2386.62 2636.22,2386.78 2637.33,2387.09 C2638.44,2387.39 2639.87,2387.72 2641.6,2388.06 C2643.33,2388.4 2645,2388.57 2646.61,2388.57 C2649.02,2388.57 2651.49,2388.23 2654.03,2387.55 L2658.2,2386.44 C2659.01,2386.44 2659.66,2386.74 2660.15,2387.36 C2660.52,2387.92 2660.46,2388.48 2659.97,2389.03 L2619.52,2436.07 L2642.15,2436.07 L2642.15,2419.37 C2642.15,2417.95 2642.54,2416.85 2643.31,2416.08 C2644.09,2415.3 2645.14,2414.65 2646.47,2414.13 C2647.8,2413.6 2649.33,2412.26 2651.06,2410.09 C2652.67,2408.05 2654.52,2404.96 2656.63,2400.82 C2656.94,2400.2 2657.4,2399.89 2658.02,2399.89 C2659.32,2399.89 2659.97,2400.6 2659.97,2402.02 L2659.97,2436.07 L2677.13,2436.07 "/>
<path class="FiguredBass" d="M3110.79,2390.15 C3106.21,2390.15 3103.17,2391.99 3101.65,2395.67 C3100.13,2399.35 3099.38,2404.56 3099.38,2411.3 L3099.38,2422.25 C3102.59,2420.95 3105.38,2420.27 3107.73,2420.21 C3115.77,2420.21 3122.09,2421.98 3126.7,2425.54 C3131.31,2429.1 3133.61,2434.38 3133.61,2441.4 C3133.61,2448.42 3131.28,2453.73 3126.61,2457.31 C3121.94,2460.9 3115.64,2462.7 3107.73,2462.7 C3099.62,2462.7 3093.28,2458.94 3088.71,2451.42 C3084.13,2443.91 3081.84,2434.99 3081.84,2424.66 C3081.84,2414.39 3084.5,2405.49 3089.82,2397.94 C3095.14,2390.39 3102.13,2386.62 3110.79,2386.62 C3116.48,2386.62 3121.4,2388.06 3125.54,2390.94 C3129.68,2393.81 3131.75,2397.6 3131.75,2402.3 C3131.75,2405.02 3130.77,2407.37 3128.79,2409.35 C3126.81,2411.33 3124.44,2412.32 3121.69,2412.32 C3118.94,2412.32 3116.57,2411.33 3114.59,2409.35 C3112.61,2407.37 3111.62,2405.02 3111.62,2402.3 C3111.62,2399.64 3112.61,2397.29 3114.59,2395.25 C3115.27,2394.45 3116.23,2393.76 3117.47,2393.21 C3117.16,2392.4 3116.54,2391.79 3115.61,2391.35 C3114.25,2390.55 3112.64,2390.15 3110.79,2390.15 M3115.33,2428.09 C3114.22,2425.18 3111.78,2423.73 3108,2423.73 C3104.23,2423.73 3101.9,2425.18 3101,2428.09 C3100.1,2431 3099.66,2435.42 3099.66,2441.36 C3099.66,2448.35 3100.1,2453.05 3101,2455.46 C3101.9,2457.87 3104.23,2459.08 3108,2459.08 C3111.78,2459.08 3114.22,2457.62 3115.33,2454.72 C3116.45,2451.81 3117,2447.37 3117,2441.4 C3117,2435.44 3116.45,2431 3115.33,2428.09"/>
<path class="FiguredBass" d="M3627.65,2428.09 C3626.53,2425.18 3624.09,2423.73 3620.32,2423.73 C3616.54,2423.73 3614.21,2425.18 3613.31,2428.09 C3612.42,2431 3611.97,2435.42 3611.97,2441.36 C3611.97,2448.35 3612.42,2453.05 3613.31,2455.46 C3614.21,2457.87 3616.54,2459.08 3620.32,2459.08 C3624.09,2459.08 3626.53,2457.62 3627.65,2454.72 C3628.76,2451.81 3629.32,2447.37 3629.32,2441.4 C3629.32,2435.44 3628.76,2431 3627.65,2428.09 M3593.51,2380.59 C3592.7,2379.85 3592.3,2378.95 3592.3,2377.9 C3592.3,2376.85 3592.62,2375.97 3593.27,2375.26 C3593.92,2374.55 3594.77,2374.13 3595.83,2374 C3595.95,2374 3596.07,2374 3596.2,2374 C3597.12,2374 3597.93,2374.31 3598.61,2374.93 L3615.22,2389.96 C3620.16,2387.73 3629.22,2386.62 3642.4,2386.62 C3644.25,2386.62 3645.18,2387.43 3645.18,2389.03 C3645.18,2389.1 3645.18,2389.16 3645.18,2389.22 C3645.12,2390.89 3644.19,2391.72 3642.4,2391.72 C3634.48,2391.72 3628.61,2392.71 3624.77,2394.69 C3623.9,2395.13 3623.07,2395.65 3622.27,2396.27 L3651.58,2422.62 C3652.39,2423.36 3652.79,2424.26 3652.79,2425.31 L3652.79,2425.4 C3652.79,2426.45 3652.48,2427.32 3651.86,2428 C3651.18,2428.74 3650.31,2429.17 3649.26,2429.3 C3649.14,2429.3 3649.02,2429.3 3648.89,2429.3 C3647.96,2429.3 3647.16,2428.96 3646.48,2428.28 L3616.88,2401.65 C3616.08,2402.7 3615.31,2403.88 3614.57,2405.18 C3612.65,2409.63 3611.69,2415.32 3611.69,2422.25 C3614.91,2420.95 3617.69,2420.27 3620.04,2420.21 C3627.96,2420.21 3634.3,2422 3639.06,2425.59 C3643.63,2429.05 3645.92,2434.31 3645.92,2441.36 C3645.92,2448.16 3643.57,2453.45 3638.87,2457.22 C3634.23,2460.87 3627.96,2462.7 3620.04,2462.7 C3611.94,2462.7 3605.6,2458.94 3601.02,2451.42 C3596.44,2443.91 3594.16,2434.99 3594.16,2424.66 C3594.16,2413.46 3596.78,2405.05 3602.04,2399.42 C3604.02,2397.32 3606.09,2395.5 3608.26,2393.95 L3593.51,2380.59 "/>
<path class="Bracket" transform="matrix(8.6315,0,0,8.6315,76.1283,2254.96)" d="M0.92002,-50 C2.69004,-51.88 6.2,-55.8 6.2,-63 C6.2,-72.1 2.25996,-81.32 2.25996,-86.97 C2.25996,-93.06 5.84004,-98.84 5.95,-99 C6.05996,-99.16 6.05,-99.39 5.94004,-99.46 C5.82998,-99.53 5.62002,-99.47 5.49004,-99.32 C5.35996,-99.17 0,-93.75 0,-85.6 C0,-76.75 3.5,-70.58 3.5,-59.07 C3.5,-56.89 2.55996,-53.36 0.1,-50.33 C-0.0799805,-50.17 -0.1,-49.89 0.0599609,-49.7 L0.0700195,-49.69 L0.1,-49.66 C2.55996,-46.63 3.5,-43.1 3.5,-40.92 C3.5,-29.4 0,-23.24 0,-14.39 C0,-6.25 5.35996,-0.8 5.49004,-0.659961 C5.62002,-0.52002 5.8,-0.42998 5.94004,-0.52002 C6.07998,-0.609961 6.07998,-0.77998 5.95,-0.97998 C5.82002,-1.17998 2.25996,-6.92002 2.25996,-13.01 C2.25996,-18.66 6.2,-27.9 6.2,-37 C6.2,-44.3 2.69004,-48.12 0.92002,-50"/>
</svg>
