<?xml version="1.0" encoding="UTF-8" standalone="no"?>
<svg width="4535.42px" height="2976.38px" viewBox="0 0 4535.42 2976.38"
 xmlns="http://www.w3.org/2000/svg" xmlns:xlink="http://www.w3.org/1999/xlink" version="1.2" baseProfile="tiny">
<title>LaMineur (21)</title>
<desc>Generated by MuseScore 3.6.2</desc>
<polyline class="StaffLines" fill="none" stroke="#000000" stroke-width="6.55" stroke-linejoin="bevel" points="153.819,558.425 4464.56,558.425"/>
<polyline class="StaffLines" fill="none" stroke="#000000" stroke-width="6.55" stroke-linejoin="bevel" points="153.819,647.717 4464.56,647.717"/>
<polyline class="StaffLines" fill="none" stroke="#000000" stroke-width="6.55" stroke-linejoin="bevel" points="153.819,737.008 4464.56,737.008"/>
<polyline class="StaffLines" fill="none" stroke="#000000" stroke-width="6.55" stroke-linejoin="bevel" points="153.819,826.299 4464.56,826.299"/>
<polyline class="StaffLines" fill="none" stroke="#000000" stroke-width="6.55" stroke-linejoin="bevel" points="153.819,915.591 4464.56,915.591"/>
<polyline class="StaffLines" fill="none" stroke="#000000" stroke-width="6.55" stroke-linejoin="bevel" points="153.819,1004.88 4464.56,1004.88"/>
<polyline class="StaffLines" fill="none" stroke="#000000" stroke-width="6.55" stroke-linejoin="bevel" points="153.819,1391.81 4464.56,1391.81"/>
<polyline class="StaffLines" fill="none" stroke="#000000" stroke-width="6.55" stroke-linejoin="bevel" points="153.819,1451.34 4464.56,1451.34"/>
<polyline class="StaffLines" fill="none" stroke="#000000" stroke-width="6.55" stroke-linejoin="bevel" points="153.819,1510.87 4464.56,1510.87"/>
<polyline class="StaffLines" fill="none" stroke="#000000" stroke-width="6.55" stroke-linejoin="bevel" points="153.819,1570.39 4464.56,1570.39"/>
<polyline class="StaffLines" fill="none" stroke="#000000" stroke-width="6.55" stroke-linejoin="bevel" points="153.819,1629.92 4464.56,1629.92"/>
<polyline class="StaffLines" fill="none" stroke="#000000" stroke-width="6.55" stroke-linejoin="bevel" points="153.819,2160.5 4464.56,2160.5"/>
<polyline class="StaffLines" fill="none" stroke="#000000" stroke-width="6.55" stroke-linejoin="bevel" points="153.819,2220.03 4464.56,2220.03"/>
<polyline class="StaffLines" fill="none" stroke="#000000" stroke-width="6.55" stroke-linejoin="bevel" points="153.819,2279.56 4464.56,2279.56"/>
<polyline class="StaffLines" fill="none" stroke="#000000" stroke-width="6.55" stroke-linejoin="bevel" points="153.819,2339.09 4464.56,2339.09"/>
<polyline class="StaffLines" fill="none" stroke="#000000" stroke-width="6.55" stroke-linejoin="bevel" points="153.819,2398.61 4464.56,2398.61"/>
<polyline class="BarLine" fill="none" stroke="#000000" stroke-width="10.71" stroke-linejoin="bevel" points="159.176,2157.23 159.176,2401.89"/>
<polyline class="BarLine" fill="none" stroke="#000000" stroke-width="10.71" stroke-linejoin="bevel" points="1390.6,2157.23 1390.6,2401.89"/>
<polyline class="BarLine" fill="none" stroke="#000000" stroke-width="10.71" stroke-linejoin="bevel" points="2355.5,2157.23 2355.5,2401.89"/>
<polyline class="BarLine" fill="none" stroke="#000000" stroke-width="10.71" stroke-linejoin="bevel" points="3446.5,2157.23 3446.5,2401.89"/>
<polyline class="BarLine" fill="none" stroke="#000000" stroke-width="10.71" stroke-linejoin="bevel" points="4406.52,2157.23 4406.52,2401.89"/>
<polyline class="BarLine" fill="none" stroke="#000000" stroke-width="32.74" stroke-linejoin="bevel" points="4448.19,2157.23 4448.19,2401.89"/>
<polyline class="BarLine" fill="none" stroke="#000000" stroke-width="10.71" stroke-linejoin="bevel" points="159.176,1388.54 159.176,2160.5"/>
<polyline class="BarLine" fill="none" stroke="#000000" stroke-width="10.71" stroke-linejoin="bevel" points="1390.6,1388.54 1390.6,1633.2"/>
<polyline class="BarLine" fill="none" stroke="#000000" stroke-width="10.71" stroke-linejoin="bevel" points="2355.5,1388.54 2355.5,1633.2"/>
<polyline class="BarLine" fill="none" stroke="#000000" stroke-width="10.71" stroke-linejoin="bevel" points="3446.5,1388.54 3446.5,1633.2"/>
<polyline class="BarLine" fill="none" stroke="#000000" stroke-width="10.71" stroke-linejoin="bevel" points="4406.52,1388.54 4406.52,1633.2"/>
<polyline class="BarLine" fill="none" stroke="#000000" stroke-width="32.74" stroke-linejoin="bevel" points="4448.19,1388.54 4448.19,1633.2"/>
<polyline class="BarLine" fill="none" stroke="#000000" stroke-width="10.71" stroke-linejoin="bevel" points="159.176,555.151 159.176,1391.81"/>
<polyline class="BarLine" fill="none" stroke="#000000" stroke-width="10.71" stroke-linejoin="bevel" points="1390.6,555.151 1390.6,1008.16"/>
<polyline class="BarLine" fill="none" stroke="#000000" stroke-width="10.71" stroke-linejoin="bevel" points="2355.5,555.151 2355.5,1008.16"/>
<polyline class="BarLine" fill="none" stroke="#000000" stroke-width="10.71" stroke-linejoin="bevel" points="3446.5,555.151 3446.5,1008.16"/>
<polyline class="BarLine" fill="none" stroke="#000000" stroke-width="10.71" stroke-linejoin="bevel" points="4406.52,555.151 4406.52,1008.16"/>
<polyline class="BarLine" fill="none" stroke="#000000" stroke-width="32.74" stroke-linejoin="bevel" points="4448.19,555.151 4448.19,1008.16"/>
<path class="Accidental" transform="matrix(2.3811,0,0,2.3811,2418.37,2190.27)" d="M23.3,-10.6 C23.9,-10.7 24.4,-11.4 24.4,-12 L24.4,-17.9 C24.4,-18.7 23.8,-19.3 23,-19.3 L22.8,-19.3 L19.5,-18.6 L19.5,-33.5 L16.7,-33.5 L16.7,-18 L7.8,-16.2 L7.8,-30.3 L5,-30.3 L5,-15.6 L1.1,-14.8 C0.5,-14.7 0,-14 0,-13.4 L0,-13.2 L0,-7.4 L0,-7.6 C0,-6.8 0.6,-6.2 1.4,-6.2 L1.7,-6.2 L5,-6.9 L5,9.6 L1.1,10.4 C0.5,10.5 0,11.2 0,11.8 L0,17.6 C0,18.4 0.6,19 1.4,19 L1.7,19 L5,18.3 L5,33.2 L7.8,33.2 L7.8,17.7 L16.7,15.9 L16.7,30 L19.5,30 L19.5,15.3 L23.3,14.6 C23.9,14.5 24.4,13.8 24.4,13.2 L24.4,7.3 C24.4,6.5 23.8,5.9 23,5.9 L22.8,5.9 L19.5,6.6 L19.5,-9.9 L23.3,-10.6 M7.8,9.1 L7.8,-7.5 L16.7,-9.3 L16.7,7.2 L7.8,9.1 "/>
<polyline class="LedgerLine" fill="none" stroke="#000000" stroke-width="9.52" stroke-linejoin="bevel" points="513.328,1748.98 643.805,1748.98"/>
<polyline class="LedgerLine" fill="none" stroke="#000000" stroke-width="9.52" stroke-linejoin="bevel" points="513.328,1689.45 643.805,1689.45"/>
<polyline class="LedgerLine" fill="none" stroke="#000000" stroke-width="9.52" stroke-linejoin="bevel" points="1473.35,1689.45 1603.82,1689.45"/>
<polyline class="LedgerLine" fill="none" stroke="#000000" stroke-width="9.52" stroke-linejoin="bevel" points="2470.51,1689.45 2600.99,1689.45"/>
<polyline class="LedgerLine" fill="none" stroke="#000000" stroke-width="9.52" stroke-linejoin="bevel" points="3529.24,1748.98 3659.72,1748.98"/>
<polyline class="LedgerLine" fill="none" stroke="#000000" stroke-width="9.52" stroke-linejoin="bevel" points="3529.24,1689.45 3659.72,1689.45"/>
<path class="Note" transform="matrix(2.3811,0,0,2.3811,534.163,2160.5)" d="M18.7,-13.6 C4.9,-13.6 0,-6.6 0,-0.1 C0,6.4 4.9,13.4 18.7,13.4 C32.5,13.4 37.3,6.4 37.3,-0.1 C37.3,-6.6 32.5,-13.6 18.7,-13.6 M10.4,-4.5 C10.3,-4.9 10.3,-5.3 10.3,-5.7 C10.3,-6.5 10.5,-7.3 10.9,-8 C11.6,-9 12.8,-9.7 14.3,-10 C15.6,-10.3 16.3,-10.5 18.9,-10.5 L19,-10.5 C23,-10.5 24.3,-6.8 25.4,-3 L25.7,-2 C26.5,0.6 26.9,2.8 26.9,4.5 C26.9,5.7 26.7,6.8 26.3,7.6 C25.7,8.7 24.7,9.4 23,9.8 C22.1,10 20.6,10.1 20.6,10.1 C20.1,10.1 19.7,10.2 19.3,10.2 C16.1,10.2 14.1,9 12.7,4.7 C11.5,1 11.3,-0.1 10.4,-4.5"/>
<path class="Note" transform="matrix(2.3811,0,0,2.3811,1494.18,2160.5)" d="M18.7,-13.6 C4.9,-13.6 0,-6.6 0,-0.1 C0,6.4 4.9,13.4 18.7,13.4 C32.5,13.4 37.3,6.4 37.3,-0.1 C37.3,-6.6 32.5,-13.6 18.7,-13.6 M10.4,-4.5 C10.3,-4.9 10.3,-5.3 10.3,-5.7 C10.3,-6.5 10.5,-7.3 10.9,-8 C11.6,-9 12.8,-9.7 14.3,-10 C15.6,-10.3 16.3,-10.5 18.9,-10.5 L19,-10.5 C23,-10.5 24.3,-6.8 25.4,-3 L25.7,-2 C26.5,0.6 26.9,2.8 26.9,4.5 C26.9,5.7 26.7,6.8 26.3,7.6 C25.7,8.7 24.7,9.4 23,9.8 C22.1,10 20.6,10.1 20.6,10.1 C20.1,10.1 19.7,10.2 19.3,10.2 C16.1,10.2 14.1,9 12.7,4.7 C11.5,1 11.3,-0.1 10.4,-4.5"/>
<path class="Note" transform="matrix(2.3811,0,0,2.3811,2491.35,2190.27)" d="M18.7,-13.6 C4.9,-13.6 0,-6.6 0,-0.1 C0,6.4 4.9,13.4 18.7,13.4 C32.5,13.4 37.3,6.4 37.3,-0.1 C37.3,-6.6 32.5,-13.6 18.7,-13.6 M10.4,-4.5 C10.3,-4.9 10.3,-5.3 10.3,-5.7 C10.3,-6.5 10.5,-7.3 10.9,-8 C11.6,-9 12.8,-9.7 14.3,-10 C15.6,-10.3 16.3,-10.5 18.9,-10.5 L19,-10.5 C23,-10.5 24.3,-6.8 25.4,-3 L25.7,-2 C26.5,0.6 26.9,2.8 26.9,4.5 C26.9,5.7 26.7,6.8 26.3,7.6 C25.7,8.7 24.7,9.4 23,9.8 C22.1,10 20.6,10.1 20.6,10.1 C20.1,10.1 19.7,10.2 19.3,10.2 C16.1,10.2 14.1,9 12.7,4.7 C11.5,1 11.3,-0.1 10.4,-4.5"/>
<path class="Note" transform="matrix(2.3811,0,0,2.3811,3550.08,2160.5)" d="M18.7,-13.6 C4.9,-13.6 0,-6.6 0,-0.1 C0,6.4 4.9,13.4 18.7,13.4 C32.5,13.4 37.3,6.4 37.3,-0.1 C37.3,-6.6 32.5,-13.6 18.7,-13.6 M10.4,-4.5 C10.3,-4.9 10.3,-5.3 10.3,-5.7 C10.3,-6.5 10.5,-7.3 10.9,-8 C11.6,-9 12.8,-9.7 14.3,-10 C15.6,-10.3 16.3,-10.5 18.9,-10.5 L19,-10.5 C23,-10.5 24.3,-6.8 25.4,-3 L25.7,-2 C26.5,0.6 26.9,2.8 26.9,4.5 C26.9,5.7 26.7,6.8 26.3,7.6 C25.7,8.7 24.7,9.4 23,9.8 C22.1,10 20.6,10.1 20.6,10.1 C20.1,10.1 19.7,10.2 19.3,10.2 C16.1,10.2 14.1,9 12.7,4.7 C11.5,1 11.3,-0.1 10.4,-4.5"/>
<path class="Note" transform="matrix(2.3811,0,0,2.3811,534.163,1748.98)" d="M18.7,-13.6 C4.9,-13.6 0,-6.6 0,-0.1 C0,6.4 4.9,13.4 18.7,13.4 C32.5,13.4 37.3,6.4 37.3,-0.1 C37.3,-6.6 32.5,-13.6 18.7,-13.6 M10.4,-4.5 C10.3,-4.9 10.3,-5.3 10.3,-5.7 C10.3,-6.5 10.5,-7.3 10.9,-8 C11.6,-9 12.8,-9.7 14.3,-10 C15.6,-10.3 16.3,-10.5 18.9,-10.5 L19,-10.5 C23,-10.5 24.3,-6.8 25.4,-3 L25.7,-2 C26.5,0.6 26.9,2.8 26.9,4.5 C26.9,5.7 26.7,6.8 26.3,7.6 C25.7,8.7 24.7,9.4 23,9.8 C22.1,10 20.6,10.1 20.6,10.1 C20.1,10.1 19.7,10.2 19.3,10.2 C16.1,10.2 14.1,9 12.7,4.7 C11.5,1 11.3,-0.1 10.4,-4.5"/>
<path class="Note" transform="matrix(2.3811,0,0,2.3811,534.163,1689.45)" d="M18.7,-13.6 C4.9,-13.6 0,-6.6 0,-0.1 C0,6.4 4.9,13.4 18.7,13.4 C32.5,13.4 37.3,6.4 37.3,-0.1 C37.3,-6.6 32.5,-13.6 18.7,-13.6 M10.4,-4.5 C10.3,-4.9 10.3,-5.3 10.3,-5.7 C10.3,-6.5 10.5,-7.3 10.9,-8 C11.6,-9 12.8,-9.7 14.3,-10 C15.6,-10.3 16.3,-10.5 18.9,-10.5 L19,-10.5 C23,-10.5 24.3,-6.8 25.4,-3 L25.7,-2 C26.5,0.6 26.9,2.8 26.9,4.5 C26.9,5.7 26.7,6.8 26.3,7.6 C25.7,8.7 24.7,9.4 23,9.8 C22.1,10 20.6,10.1 20.6,10.1 C20.1,10.1 19.7,10.2 19.3,10.2 C16.1,10.2 14.1,9 12.7,4.7 C11.5,1 11.3,-0.1 10.4,-4.5"/>
<path class="Note" transform="matrix(2.3811,0,0,2.3811,534.163,1629.92)" d="M18.7,-13.6 C4.9,-13.6 0,-6.6 0,-0.1 C0,6.4 4.9,13.4 18.7,13.4 C32.5,13.4 37.3,6.4 37.3,-0.1 C37.3,-6.6 32.5,-13.6 18.7,-13.6 M10.4,-4.5 C10.3,-4.9 10.3,-5.3 10.3,-5.7 C10.3,-6.5 10.5,-7.3 10.9,-8 C11.6,-9 12.8,-9.7 14.3,-10 C15.6,-10.3 16.3,-10.5 18.9,-10.5 L19,-10.5 C23,-10.5 24.3,-6.8 25.4,-3 L25.7,-2 C26.5,0.6 26.9,2.8 26.9,4.5 C26.9,5.7 26.7,6.8 26.3,7.6 C25.7,8.7 24.7,9.4 23,9.8 C22.1,10 20.6,10.1 20.6,10.1 C20.1,10.1 19.7,10.2 19.3,10.2 C16.1,10.2 14.1,9 12.7,4.7 C11.5,1 11.3,-0.1 10.4,-4.5"/>
<path class="Note" transform="matrix(2.3811,0,0,2.3811,1494.18,1719.21)" d="M18.7,-13.6 C4.9,-13.6 0,-6.6 0,-0.1 C0,6.4 4.9,13.4 18.7,13.4 C32.5,13.4 37.3,6.4 37.3,-0.1 C37.3,-6.6 32.5,-13.6 18.7,-13.6 M10.4,-4.5 C10.3,-4.9 10.3,-5.3 10.3,-5.7 C10.3,-6.5 10.5,-7.3 10.9,-8 C11.6,-9 12.8,-9.7 14.3,-10 C15.6,-10.3 16.3,-10.5 18.9,-10.5 L19,-10.5 C23,-10.5 24.3,-6.8 25.4,-3 L25.7,-2 C26.5,0.6 26.9,2.8 26.9,4.5 C26.9,5.7 26.7,6.8 26.3,7.6 C25.7,8.7 24.7,9.4 23,9.8 C22.1,10 20.6,10.1 20.6,10.1 C20.1,10.1 19.7,10.2 19.3,10.2 C16.1,10.2 14.1,9 12.7,4.7 C11.5,1 11.3,-0.1 10.4,-4.5"/>
<path class="Note" transform="matrix(2.3811,0,0,2.3811,1494.18,1659.69)" d="M18.7,-13.6 C4.9,-13.6 0,-6.6 0,-0.1 C0,6.4 4.9,13.4 18.7,13.4 C32.5,13.4 37.3,6.4 37.3,-0.1 C37.3,-6.6 32.5,-13.6 18.7,-13.6 M10.4,-4.5 C10.3,-4.9 10.3,-5.3 10.3,-5.7 C10.3,-6.5 10.5,-7.3 10.9,-8 C11.6,-9 12.8,-9.7 14.3,-10 C15.6,-10.3 16.3,-10.5 18.9,-10.5 L19,-10.5 C23,-10.5 24.3,-6.8 25.4,-3 L25.7,-2 C26.5,0.6 26.9,2.8 26.9,4.5 C26.9,5.7 26.7,6.8 26.3,7.6 C25.7,8.7 24.7,9.4 23,9.8 C22.1,10 20.6,10.1 20.6,10.1 C20.1,10.1 19.7,10.2 19.3,10.2 C16.1,10.2 14.1,9 12.7,4.7 C11.5,1 11.3,-0.1 10.4,-4.5"/>
<path class="Note" transform="matrix(2.3811,0,0,2.3811,1494.18,1600.16)" d="M18.7,-13.6 C4.9,-13.6 0,-6.6 0,-0.1 C0,6.4 4.9,13.4 18.7,13.4 C32.5,13.4 37.3,6.4 37.3,-0.1 C37.3,-6.6 32.5,-13.6 18.7,-13.6 M10.4,-4.5 C10.3,-4.9 10.3,-5.3 10.3,-5.7 C10.3,-6.5 10.5,-7.3 10.9,-8 C11.6,-9 12.8,-9.7 14.3,-10 C15.6,-10.3 16.3,-10.5 18.9,-10.5 L19,-10.5 C23,-10.5 24.3,-6.8 25.4,-3 L25.7,-2 C26.5,0.6 26.9,2.8 26.9,4.5 C26.9,5.7 26.7,6.8 26.3,7.6 C25.7,8.7 24.7,9.4 23,9.8 C22.1,10 20.6,10.1 20.6,10.1 C20.1,10.1 19.7,10.2 19.3,10.2 C16.1,10.2 14.1,9 12.7,4.7 C11.5,1 11.3,-0.1 10.4,-4.5"/>
<path class="Note" transform="matrix(2.3811,0,0,2.3811,2491.35,1719.21)" d="M18.7,-13.6 C4.9,-13.6 0,-6.6 0,-0.1 C0,6.4 4.9,13.4 18.7,13.4 C32.5,13.4 37.3,6.4 37.3,-0.1 C37.3,-6.6 32.5,-13.6 18.7,-13.6 M10.4,-4.5 C10.3,-4.9 10.3,-5.3 10.3,-5.7 C10.3,-6.5 10.5,-7.3 10.9,-8 C11.6,-9 12.8,-9.7 14.3,-10 C15.6,-10.3 16.3,-10.5 18.9,-10.5 L19,-10.5 C23,-10.5 24.3,-6.8 25.4,-3 L25.7,-2 C26.5,0.6 26.9,2.8 26.9,4.5 C26.9,5.7 26.7,6.8 26.3,7.6 C25.7,8.7 24.7,9.4 23,9.8 C22.1,10 20.6,10.1 20.6,10.1 C20.1,10.1 19.7,10.2 19.3,10.2 C16.1,10.2 14.1,9 12.7,4.7 C11.5,1 11.3,-0.1 10.4,-4.5"/>
<path class="Note" transform="matrix(2.3811,0,0,2.3811,2491.35,1659.69)" d="M18.7,-13.6 C4.9,-13.6 0,-6.6 0,-0.1 C0,6.4 4.9,13.4 18.7,13.4 C32.5,13.4 37.3,6.4 37.3,-0.1 C37.3,-6.6 32.5,-13.6 18.7,-13.6 M10.4,-4.5 C10.3,-4.9 10.3,-5.3 10.3,-5.7 C10.3,-6.5 10.5,-7.3 10.9,-8 C11.6,-9 12.8,-9.7 14.3,-10 C15.6,-10.3 16.3,-10.5 18.9,-10.5 L19,-10.5 C23,-10.5 24.3,-6.8 25.4,-3 L25.7,-2 C26.5,0.6 26.9,2.8 26.9,4.5 C26.9,5.7 26.7,6.8 26.3,7.6 C25.7,8.7 24.7,9.4 23,9.8 C22.1,10 20.6,10.1 20.6,10.1 C20.1,10.1 19.7,10.2 19.3,10.2 C16.1,10.2 14.1,9 12.7,4.7 C11.5,1 11.3,-0.1 10.4,-4.5"/>
<path class="Note" transform="matrix(2.3811,0,0,2.3811,2573.61,1629.92)" d="M18.7,-13.6 C4.9,-13.6 0,-6.6 0,-0.1 C0,6.4 4.9,13.4 18.7,13.4 C32.5,13.4 37.3,6.4 37.3,-0.1 C37.3,-6.6 32.5,-13.6 18.7,-13.6 M10.4,-4.5 C10.3,-4.9 10.3,-5.3 10.3,-5.7 C10.3,-6.5 10.5,-7.3 10.9,-8 C11.6,-9 12.8,-9.7 14.3,-10 C15.6,-10.3 16.3,-10.5 18.9,-10.5 L19,-10.5 C23,-10.5 24.3,-6.8 25.4,-3 L25.7,-2 C26.5,0.6 26.9,2.8 26.9,4.5 C26.9,5.7 26.7,6.8 26.3,7.6 C25.7,8.7 24.7,9.4 23,9.8 C22.1,10 20.6,10.1 20.6,10.1 C20.1,10.1 19.7,10.2 19.3,10.2 C16.1,10.2 14.1,9 12.7,4.7 C11.5,1 11.3,-0.1 10.4,-4.5"/>
<path class="Note" transform="matrix(2.3811,0,0,2.3811,3550.08,1748.98)" d="M18.7,-13.6 C4.9,-13.6 0,-6.6 0,-0.1 C0,6.4 4.9,13.4 18.7,13.4 C32.5,13.4 37.3,6.4 37.3,-0.1 C37.3,-6.6 32.5,-13.6 18.7,-13.6 M10.4,-4.5 C10.3,-4.9 10.3,-5.3 10.3,-5.7 C10.3,-6.5 10.5,-7.3 10.9,-8 C11.6,-9 12.8,-9.7 14.3,-10 C15.6,-10.3 16.3,-10.5 18.9,-10.5 L19,-10.5 C23,-10.5 24.3,-6.8 25.4,-3 L25.7,-2 C26.5,0.6 26.9,2.8 26.9,4.5 C26.9,5.7 26.7,6.8 26.3,7.6 C25.7,8.7 24.7,9.4 23,9.8 C22.1,10 20.6,10.1 20.6,10.1 C20.1,10.1 19.7,10.2 19.3,10.2 C16.1,10.2 14.1,9 12.7,4.7 C11.5,1 11.3,-0.1 10.4,-4.5"/>
<path class="Note" transform="matrix(2.3811,0,0,2.3811,3550.08,1689.45)" d="M18.7,-13.6 C4.9,-13.6 0,-6.6 0,-0.1 C0,6.4 4.9,13.4 18.7,13.4 C32.5,13.4 37.3,6.4 37.3,-0.1 C37.3,-6.6 32.5,-13.6 18.7,-13.6 M10.4,-4.5 C10.3,-4.9 10.3,-5.3 10.3,-5.7 C10.3,-6.5 10.5,-7.3 10.9,-8 C11.6,-9 12.8,-9.7 14.3,-10 C15.6,-10.3 16.3,-10.5 18.9,-10.5 L19,-10.5 C23,-10.5 24.3,-6.8 25.4,-3 L25.7,-2 C26.5,0.6 26.9,2.8 26.9,4.5 C26.9,5.7 26.7,6.8 26.3,7.6 C25.7,8.7 24.7,9.4 23,9.8 C22.1,10 20.6,10.1 20.6,10.1 C20.1,10.1 19.7,10.2 19.3,10.2 C16.1,10.2 14.1,9 12.7,4.7 C11.5,1 11.3,-0.1 10.4,-4.5"/>
<path class="Note" transform="matrix(2.3811,0,0,2.3811,3550.08,1629.92)" d="M18.7,-13.6 C4.9,-13.6 0,-6.6 0,-0.1 C0,6.4 4.9,13.4 18.7,13.4 C32.5,13.4 37.3,6.4 37.3,-0.1 C37.3,-6.6 32.5,-13.6 18.7,-13.6 M10.4,-4.5 C10.3,-4.9 10.3,-5.3 10.3,-5.7 C10.3,-6.5 10.5,-7.3 10.9,-8 C11.6,-9 12.8,-9.7 14.3,-10 C15.6,-10.3 16.3,-10.5 18.9,-10.5 L19,-10.5 C23,-10.5 24.3,-6.8 25.4,-3 L25.7,-2 C26.5,0.6 26.9,2.8 26.9,4.5 C26.9,5.7 26.7,6.8 26.3,7.6 C25.7,8.7 24.7,9.4 23,9.8 C22.1,10 20.6,10.1 20.6,10.1 C20.1,10.1 19.7,10.2 19.3,10.2 C16.1,10.2 14.1,9 12.7,4.7 C11.5,1 11.3,-0.1 10.4,-4.5"/>
<path class="Note" d="M627.857,561.187 C632.195,558.243 635.333,555.803 637.27,553.866 C640.834,550.07 642.616,546.583 642.616,543.407 C642.616,539.766 640.601,537.945 636.573,537.945 C628.748,537.945 620.381,544.84 611.471,558.631 C608.76,562.814 602.794,576.45 593.575,599.537 C600.935,607.129 604.615,611.429 604.615,612.436 C604.615,613.831 603.724,614.528 601.942,614.528 C600.547,614.528 596.712,612.165 590.437,607.439 C583.619,623.321 573.277,636.879 559.409,648.113 C545.231,659.579 528.303,665.312 508.625,665.312 C501.11,665.312 491.696,663.569 480.385,660.083 C471.321,657.294 466.789,652.839 466.789,646.719 C466.789,637.654 470.275,633.122 477.248,633.122 C481.431,633.122 483.523,635.059 483.523,638.932 C483.523,640.172 482.555,641.489 480.618,642.884 C479.611,643.581 479.107,644.937 479.107,646.951 C479.107,649.353 481.78,651.832 487.125,654.388 C492.936,657.178 501.458,658.572 512.692,658.572 C527.18,658.572 541.164,652.297 554.644,639.746 C566.885,628.357 575.678,615.109 581.024,600.002 C578.932,598.297 576.685,596.438 574.284,594.424 C566.846,590.008 563.127,585.475 563.127,580.827 C563.127,578.89 564.406,577.922 566.962,577.922 C570.371,577.922 574.981,580.827 580.791,586.638 C582.031,587.877 583.193,589.039 584.278,590.124 C586.989,582.686 591.328,573.235 597.293,561.768 C608.062,541.005 621.155,530.624 636.573,530.624 C642.073,530.624 646.412,531.67 649.588,533.762 C652.765,535.853 654.353,538.72 654.353,542.361 C654.353,548.172 652.222,553.091 647.961,557.12 C643.545,561.304 638.936,563.395 634.132,563.395 C629.949,563.395 627.857,562.659 627.857,561.187"/>
<path class="Note" d="M555.225,910.409 C551.041,910.409 548.95,908.511 548.95,904.715 C548.95,898.284 549.918,893.558 551.855,890.537 C559.912,878.606 577.421,856.293 604.382,823.599 C616.546,808.802 632.234,801.403 651.448,801.403 C658.885,801.403 664.037,802.449 666.904,804.541 C671.32,807.795 673.528,811.707 673.528,816.278 C673.528,821.082 669.654,826.427 661.907,832.315 C654.547,837.893 647.574,840.682 640.989,840.682 C638.432,840.682 637.154,840.411 637.154,839.869 C637.154,839.094 638.393,838.281 640.873,837.429 C644.204,836.189 647.768,833.671 651.564,829.875 C655.903,825.459 658.072,821.469 658.072,817.905 C658.072,815.503 656.406,813.218 653.075,811.049 C650.131,809.189 645.366,808.26 638.781,808.26 C629.174,808.26 617.049,817.944 602.407,837.312 C592.645,850.25 584.743,861.639 578.7,871.478 C581.644,869.851 585.169,867.876 589.275,865.552 C594.311,862.685 598.649,861.252 602.291,861.252 C611.355,861.252 615.887,864.506 615.887,871.013 C615.887,877.444 612.168,884.494 604.731,892.164 C599.463,897.587 596.829,901.616 596.829,904.25 C596.829,906.961 599.463,908.317 604.731,908.317 C607.365,908.317 610.077,907.388 612.866,905.528 C615.655,903.746 617.708,902.855 619.025,902.855 C620.11,902.855 620.652,903.553 620.652,904.947 C620.652,907.194 618.483,909.557 614.144,912.036 C606.861,916.22 601.012,918.311 596.596,918.311 C588.771,918.311 584.859,914.128 584.859,905.761 C584.859,900.492 587.88,894.643 593.923,888.213 C598.339,883.487 600.547,878.8 600.547,874.151 C600.547,870.123 598.378,868.108 594.04,868.108 C592.335,868.108 586.68,870.123 577.073,874.151 C574.206,878.955 571.805,883.371 569.868,887.399 C562.508,902.739 557.627,910.409 555.225,910.409"/>
<path class="Note" d="M627.857,739.77 C632.195,736.826 635.333,734.386 637.27,732.449 C640.834,728.652 642.616,725.166 642.616,721.99 C642.616,718.348 640.601,716.528 636.573,716.528 C628.748,716.528 620.381,723.423 611.471,737.213 C608.76,741.397 602.794,755.032 593.575,778.12 C600.935,785.712 604.615,790.012 604.615,791.019 C604.615,792.414 603.724,793.111 601.942,793.111 C600.547,793.111 596.712,790.748 590.437,786.022 C583.619,801.904 573.277,815.462 559.409,826.696 C545.231,838.162 528.303,843.895 508.625,843.895 C501.11,843.895 491.696,842.152 480.385,838.666 C471.321,835.876 466.789,831.422 466.789,825.301 C466.789,816.237 470.275,811.705 477.248,811.705 C481.431,811.705 483.523,813.641 483.523,817.515 C483.523,818.755 482.555,820.072 480.618,821.466 C479.611,822.164 479.107,823.519 479.107,825.534 C479.107,827.935 481.78,830.415 487.125,832.971 C492.936,835.76 501.458,837.155 512.692,837.155 C527.18,837.155 541.164,830.879 554.644,818.329 C566.885,806.94 575.678,793.692 581.024,778.584 C578.932,776.88 576.685,775.021 574.284,773.006 C566.846,768.59 563.127,764.058 563.127,759.41 C563.127,757.473 564.406,756.504 566.962,756.504 C570.371,756.504 574.981,759.41 580.791,765.22 C582.031,766.46 583.193,767.622 584.278,768.707 C586.989,761.269 591.328,751.817 597.293,740.351 C608.062,719.588 621.155,709.207 636.573,709.207 C642.073,709.207 646.412,710.252 649.588,712.344 C652.765,714.436 654.353,717.303 654.353,720.944 C654.353,726.754 652.222,731.674 647.961,735.703 C643.545,739.886 638.936,741.978 634.132,741.978 C629.949,741.978 627.857,741.242 627.857,739.77"/>
<path class="Note" d="M627.857,650.479 C632.195,647.535 635.333,645.094 637.27,643.157 C640.834,639.361 642.616,635.875 642.616,632.698 C642.616,629.057 640.601,627.236 636.573,627.236 C628.748,627.236 620.381,634.132 611.471,647.922 C608.76,652.106 602.794,665.741 593.575,688.828 C600.935,696.421 604.615,700.721 604.615,701.728 C604.615,703.122 603.724,703.819 601.942,703.819 C600.547,703.819 596.712,701.457 590.437,696.731 C583.619,712.613 573.277,726.171 559.409,737.404 C545.231,748.871 528.303,754.604 508.625,754.604 C501.11,754.604 491.696,752.86 480.385,749.374 C471.321,746.585 466.789,742.13 466.789,736.01 C466.789,726.945 470.275,722.413 477.248,722.413 C481.431,722.413 483.523,724.35 483.523,728.224 C483.523,729.463 482.555,730.78 480.618,732.175 C479.611,732.872 479.107,734.228 479.107,736.242 C479.107,738.644 481.78,741.123 487.125,743.68 C492.936,746.469 501.458,747.863 512.692,747.863 C527.18,747.863 541.164,741.588 554.644,729.037 C566.885,717.649 575.678,704.401 581.024,689.293 C578.932,687.589 576.685,685.729 574.284,683.715 C566.846,679.299 563.127,674.767 563.127,670.118 C563.127,668.181 564.406,667.213 566.962,667.213 C570.371,667.213 574.981,670.118 580.791,675.929 C582.031,677.168 583.193,678.331 584.278,679.415 C586.989,671.978 591.328,662.526 597.293,651.06 C608.062,630.297 621.155,619.915 636.573,619.915 C642.073,619.915 646.412,620.961 649.588,623.053 C652.765,625.145 654.353,628.011 654.353,631.652 C654.353,637.463 652.222,642.383 647.961,646.411 C643.545,650.595 638.936,652.687 634.132,652.687 C629.949,652.687 627.857,651.951 627.857,650.479"/>
<path class="Note" d="M1515.24,910.409 C1511.06,910.409 1508.97,908.511 1508.97,904.715 C1508.97,898.284 1509.94,893.558 1511.87,890.537 C1519.93,878.606 1537.44,856.293 1564.4,823.599 C1576.56,808.802 1592.25,801.403 1611.47,801.403 C1618.9,801.403 1624.06,802.449 1626.92,804.541 C1631.34,807.795 1633.55,811.707 1633.55,816.278 C1633.55,821.082 1629.67,826.427 1621.93,832.315 C1614.57,837.893 1607.59,840.682 1601.01,840.682 C1598.45,840.682 1597.17,840.411 1597.17,839.869 C1597.17,839.094 1598.41,838.281 1600.89,837.429 C1604.22,836.189 1607.79,833.671 1611.58,829.875 C1615.92,825.459 1618.09,821.469 1618.09,817.905 C1618.09,815.503 1616.42,813.218 1613.09,811.049 C1610.15,809.189 1605.38,808.26 1598.8,808.26 C1589.19,808.26 1577.07,817.944 1562.43,837.312 C1552.66,850.25 1544.76,861.639 1538.72,871.478 C1541.66,869.851 1545.19,867.876 1549.29,865.552 C1554.33,862.685 1558.67,861.252 1562.31,861.252 C1571.37,861.252 1575.91,864.506 1575.91,871.013 C1575.91,877.444 1572.19,884.494 1564.75,892.164 C1559.48,897.587 1556.85,901.616 1556.85,904.25 C1556.85,906.961 1559.48,908.317 1564.75,908.317 C1567.38,908.317 1570.1,907.388 1572.88,905.528 C1575.67,903.746 1577.73,902.855 1579.04,902.855 C1580.13,902.855 1580.67,903.553 1580.67,904.947 C1580.67,907.194 1578.5,909.557 1574.16,912.036 C1566.88,916.22 1561.03,918.311 1556.61,918.311 C1548.79,918.311 1544.88,914.128 1544.88,905.761 C1544.88,900.492 1547.9,894.643 1553.94,888.213 C1558.36,883.487 1560.57,878.8 1560.57,874.151 C1560.57,870.123 1558.4,868.108 1554.06,868.108 C1552.35,868.108 1546.7,870.123 1537.09,874.151 C1534.22,878.955 1531.82,883.371 1529.89,887.399 C1522.53,902.739 1517.65,910.409 1515.24,910.409"/>
<path class="Note" d="M1515.24,642.535 C1511.06,642.535 1508.97,640.637 1508.97,636.841 C1508.97,630.41 1509.94,625.684 1511.87,622.663 C1519.93,610.732 1537.44,588.419 1564.4,555.725 C1576.56,540.928 1592.25,533.529 1611.47,533.529 C1618.9,533.529 1624.06,534.575 1626.92,536.667 C1631.34,539.921 1633.55,543.833 1633.55,548.404 C1633.55,553.207 1629.67,558.553 1621.93,564.441 C1614.57,570.019 1607.59,572.808 1601.01,572.808 C1598.45,572.808 1597.17,572.537 1597.17,571.995 C1597.17,571.22 1598.41,570.407 1600.89,569.555 C1604.22,568.315 1607.79,565.797 1611.58,562.001 C1615.92,557.585 1618.09,553.595 1618.09,550.031 C1618.09,547.629 1616.42,545.344 1613.09,543.175 C1610.15,541.315 1605.38,540.386 1598.8,540.386 C1589.19,540.386 1577.07,550.07 1562.43,569.438 C1552.66,582.376 1544.76,593.765 1538.72,603.604 C1541.66,601.977 1545.19,600.002 1549.29,597.678 C1554.33,594.811 1558.67,593.378 1562.31,593.378 C1571.37,593.378 1575.91,596.632 1575.91,603.139 C1575.91,609.57 1572.19,616.62 1564.75,624.29 C1559.48,629.713 1556.85,633.742 1556.85,636.376 C1556.85,639.087 1559.48,640.443 1564.75,640.443 C1567.38,640.443 1570.1,639.513 1572.88,637.654 C1575.67,635.872 1577.73,634.981 1579.04,634.981 C1580.13,634.981 1580.67,635.679 1580.67,637.073 C1580.67,639.32 1578.5,641.683 1574.16,644.162 C1566.88,648.346 1561.03,650.437 1556.61,650.437 C1548.79,650.437 1544.88,646.254 1544.88,637.887 C1544.88,632.618 1547.9,626.769 1553.94,620.339 C1558.36,615.613 1560.57,610.926 1560.57,606.277 C1560.57,602.249 1558.4,600.234 1554.06,600.234 C1552.35,600.234 1546.7,602.249 1537.09,606.277 C1534.22,611.081 1531.82,615.497 1529.89,619.525 C1522.53,634.865 1517.65,642.535 1515.24,642.535"/>
<path class="Note" d="M1515.24,821.118 C1511.06,821.118 1508.97,819.22 1508.97,815.423 C1508.97,808.993 1509.94,804.267 1511.87,801.246 C1519.93,789.315 1537.44,767.002 1564.4,734.308 C1576.56,719.511 1592.25,712.112 1611.47,712.112 C1618.9,712.112 1624.06,713.158 1626.92,715.249 C1631.34,718.503 1633.55,722.416 1633.55,726.987 C1633.55,731.79 1629.67,737.136 1621.93,743.024 C1614.57,748.602 1607.59,751.391 1601.01,751.391 C1598.45,751.391 1597.17,751.12 1597.17,750.578 C1597.17,749.803 1598.41,748.989 1600.89,748.137 C1604.22,746.898 1607.79,744.38 1611.58,740.583 C1615.92,736.167 1618.09,732.178 1618.09,728.614 C1618.09,726.212 1616.42,723.927 1613.09,721.757 C1610.15,719.898 1605.38,718.968 1598.8,718.968 C1589.19,718.968 1577.07,728.652 1562.43,748.021 C1552.66,760.959 1544.76,772.348 1538.72,782.187 C1541.66,780.56 1545.19,778.584 1549.29,776.26 C1554.33,773.394 1558.67,771.96 1562.31,771.96 C1571.37,771.96 1575.91,775.214 1575.91,781.722 C1575.91,788.152 1572.19,795.203 1564.75,802.873 C1559.48,808.296 1556.85,812.324 1556.85,814.958 C1556.85,817.67 1559.48,819.026 1564.75,819.026 C1567.38,819.026 1570.1,818.096 1572.88,816.237 C1575.67,814.455 1577.73,813.564 1579.04,813.564 C1580.13,813.564 1580.67,814.261 1580.67,815.656 C1580.67,817.902 1578.5,820.265 1574.16,822.745 C1566.88,826.928 1561.03,829.02 1556.61,829.02 C1548.79,829.02 1544.88,824.836 1544.88,816.469 C1544.88,811.201 1547.9,805.352 1553.94,798.921 C1558.36,794.195 1560.57,789.508 1560.57,784.86 C1560.57,780.831 1558.4,778.817 1554.06,778.817 C1552.35,778.817 1546.7,780.831 1537.09,784.86 C1534.22,789.663 1531.82,794.079 1529.89,798.108 C1522.53,813.448 1517.65,821.118 1515.24,821.118"/>
<path class="Note" d="M1587.06,674.069 C1587.06,682.979 1576.91,702.541 1556.61,732.756 C1548.56,744.764 1536.97,753.558 1521.87,759.136 C1510.71,763.319 1497.81,765.411 1483.17,765.411 C1478.44,765.411 1474.26,764.443 1470.62,762.506 C1466.59,760.414 1464.58,758.129 1464.58,755.65 C1464.58,749.219 1468.02,746.004 1474.92,746.004 C1475.93,746.004 1476.43,746.624 1476.43,747.863 C1476.43,748.948 1475.93,750.149 1474.92,751.466 C1473.68,753.093 1473.06,754.294 1473.06,755.068 C1473.06,757.393 1476.55,758.555 1483.52,758.555 C1499.17,758.555 1511.52,756.657 1520.59,752.86 C1530.04,748.987 1539.45,739.109 1548.83,723.227 L1551.5,718.23 C1547.01,721.638 1542.55,723.343 1538.14,723.343 C1527.14,723.343 1521.64,718.888 1521.64,709.979 C1521.64,700.372 1528.1,690.262 1541.04,679.648 C1551.19,671.435 1560.22,667.329 1568.12,667.329 C1572.07,667.329 1575.36,668.375 1578,670.467 C1578.93,669.77 1580.09,669.421 1581.48,669.421 C1585.2,669.421 1587.06,670.971 1587.06,674.069 M1552.9,715.789 L1574.86,675.232 C1573.16,674.844 1571.26,674.651 1569.17,674.651 C1561.65,674.651 1554.37,679.028 1547.32,687.782 C1539.11,698.009 1535,706.182 1535,712.303 C1535,716.332 1537.67,718.346 1543.02,718.346 C1545.57,718.346 1548.87,717.494 1552.9,715.789"/>
<path class="Note" d="M2584.23,852.652 C2584.23,861.562 2574.08,881.124 2553.78,911.339 C2545.72,923.347 2534.14,932.14 2519.03,937.719 C2507.88,941.902 2494.98,943.994 2480.34,943.994 C2475.61,943.994 2471.43,943.026 2467.79,941.089 C2463.76,938.997 2461.74,936.711 2461.74,934.232 C2461.74,927.802 2465.19,924.587 2472.09,924.587 C2473.09,924.587 2473.6,925.207 2473.6,926.446 C2473.6,927.531 2473.09,928.732 2472.09,930.049 C2470.85,931.676 2470.23,932.876 2470.23,933.651 C2470.23,935.975 2473.71,937.138 2480.69,937.138 C2496.33,937.138 2508.69,935.239 2517.76,931.443 C2527.21,927.569 2536.62,917.692 2546,901.809 L2548.67,896.812 C2544.18,900.221 2539.72,901.926 2535.3,901.926 C2524.3,901.926 2518.8,897.471 2518.8,888.561 C2518.8,878.955 2525.27,868.844 2538.21,858.23 C2548.36,850.018 2557.38,845.912 2565.29,845.912 C2569.24,845.912 2572.53,846.958 2575.16,849.05 C2576.09,848.352 2577.26,848.004 2578.65,848.004 C2582.37,848.004 2584.23,849.553 2584.23,852.652 M2550.06,894.372 L2572.03,853.814 C2570.32,853.427 2568.42,853.233 2566.33,853.233 C2558.82,853.233 2551.54,857.61 2544.48,866.365 C2536.27,876.592 2532.17,884.765 2532.17,890.886 C2532.17,894.914 2534.84,896.929 2540.19,896.929 C2542.74,896.929 2546.03,896.076 2550.06,894.372"/>
<path class="Note" d="M2512.41,642.535 C2508.23,642.535 2506.14,640.637 2506.14,636.841 C2506.14,630.41 2507.1,625.684 2509.04,622.663 C2517.1,610.732 2534.61,588.419 2561.57,555.725 C2573.73,540.928 2589.42,533.529 2608.63,533.529 C2616.07,533.529 2621.22,534.575 2624.09,536.667 C2628.51,539.921 2630.71,543.833 2630.71,548.404 C2630.71,553.207 2626.84,558.553 2619.09,564.441 C2611.73,570.019 2604.76,572.808 2598.17,572.808 C2595.62,572.808 2594.34,572.537 2594.34,571.995 C2594.34,571.22 2595.58,570.407 2598.06,569.555 C2601.39,568.315 2604.95,565.797 2608.75,562.001 C2613.09,557.585 2615.26,553.595 2615.26,550.031 C2615.26,547.629 2613.59,545.344 2610.26,543.175 C2607.32,541.315 2602.55,540.386 2595.97,540.386 C2586.36,540.386 2574.23,550.07 2559.59,569.438 C2549.83,582.376 2541.93,593.765 2535.89,603.604 C2538.83,601.977 2542.35,600.002 2546.46,597.678 C2551.5,594.811 2555.83,593.378 2559.48,593.378 C2568.54,593.378 2573.07,596.632 2573.07,603.139 C2573.07,609.57 2569.35,616.62 2561.92,624.29 C2556.65,629.713 2554.01,633.742 2554.01,636.376 C2554.01,639.087 2556.65,640.443 2561.92,640.443 C2564.55,640.443 2567.26,639.513 2570.05,637.654 C2572.84,635.872 2574.89,634.981 2576.21,634.981 C2577.3,634.981 2577.84,635.679 2577.84,637.073 C2577.84,639.32 2575.67,641.683 2571.33,644.162 C2564.05,648.346 2558.2,650.437 2553.78,650.437 C2545.96,650.437 2542.04,646.254 2542.04,637.887 C2542.04,632.618 2545.07,626.769 2551.11,620.339 C2555.52,615.613 2557.73,610.926 2557.73,606.277 C2557.73,602.249 2555.56,600.234 2551.23,600.234 C2549.52,600.234 2543.87,602.249 2534.26,606.277 C2531.39,611.081 2528.99,615.497 2527.05,619.525 C2519.69,634.865 2514.81,642.535 2512.41,642.535"/>
<path class="Note" d="M2585.04,471.896 C2589.38,468.952 2592.52,466.512 2594.46,464.575 C2598.02,460.778 2599.8,457.292 2599.8,454.116 C2599.8,450.474 2597.79,448.654 2593.76,448.654 C2585.93,448.654 2577.57,455.549 2568.66,469.339 C2565.95,473.523 2559.98,487.158 2550.76,510.246 C2558.12,517.838 2561.8,522.138 2561.8,523.145 C2561.8,524.54 2560.91,525.237 2559.13,525.237 C2557.73,525.237 2553.9,522.874 2547.62,518.148 C2540.8,534.03 2530.46,547.588 2516.59,558.822 C2502.42,570.288 2485.49,576.021 2465.81,576.021 C2458.3,576.021 2448.88,574.278 2437.57,570.791 C2428.51,568.002 2423.97,563.548 2423.97,557.427 C2423.97,548.363 2427.46,543.831 2434.43,543.831 C2438.62,543.831 2440.71,545.767 2440.71,549.641 C2440.71,550.881 2439.74,552.198 2437.8,553.592 C2436.8,554.29 2436.29,555.645 2436.29,557.66 C2436.29,560.061 2438.97,562.541 2444.31,565.097 C2450.12,567.886 2458.64,569.281 2469.88,569.281 C2484.37,569.281 2498.35,563.005 2511.83,550.455 C2524.07,539.066 2532.86,525.818 2538.21,510.71 C2536.12,509.006 2533.87,507.147 2531.47,505.132 C2524.03,500.716 2520.31,496.184 2520.31,491.536 C2520.31,489.599 2521.59,488.63 2524.15,488.63 C2527.56,488.63 2532.17,491.536 2537.98,497.346 C2539.22,498.586 2540.38,499.748 2541.46,500.832 C2544.18,493.395 2548.51,483.943 2554.48,472.477 C2565.25,451.714 2578.34,441.332 2593.76,441.332 C2599.26,441.332 2603.6,442.378 2606.77,444.47 C2609.95,446.562 2611.54,449.429 2611.54,453.07 C2611.54,458.88 2609.41,463.8 2605.15,467.829 C2600.73,472.012 2596.12,474.104 2591.32,474.104 C2587.13,474.104 2585.04,473.368 2585.04,471.896"/>
<path class="Note" d="M2585.04,650.479 C2589.38,647.535 2592.52,645.094 2594.46,643.157 C2598.02,639.361 2599.8,635.875 2599.8,632.698 C2599.8,629.057 2597.79,627.236 2593.76,627.236 C2585.93,627.236 2577.57,634.132 2568.66,647.922 C2565.95,652.106 2559.98,665.741 2550.76,688.828 C2558.12,696.421 2561.8,700.721 2561.8,701.728 C2561.8,703.122 2560.91,703.819 2559.13,703.819 C2557.73,703.819 2553.9,701.457 2547.62,696.731 C2540.8,712.613 2530.46,726.171 2516.59,737.404 C2502.42,748.871 2485.49,754.604 2465.81,754.604 C2458.3,754.604 2448.88,752.86 2437.57,749.374 C2428.51,746.585 2423.97,742.13 2423.97,736.01 C2423.97,726.945 2427.46,722.413 2434.43,722.413 C2438.62,722.413 2440.71,724.35 2440.71,728.224 C2440.71,729.463 2439.74,730.78 2437.8,732.175 C2436.8,732.872 2436.29,734.228 2436.29,736.242 C2436.29,738.644 2438.97,741.123 2444.31,743.68 C2450.12,746.469 2458.64,747.863 2469.88,747.863 C2484.37,747.863 2498.35,741.588 2511.83,729.037 C2524.07,717.649 2532.86,704.401 2538.21,689.293 C2536.12,687.589 2533.87,685.729 2531.47,683.715 C2524.03,679.299 2520.31,674.767 2520.31,670.118 C2520.31,668.181 2521.59,667.213 2524.15,667.213 C2527.56,667.213 2532.17,670.118 2537.98,675.929 C2539.22,677.168 2540.38,678.331 2541.46,679.415 C2544.18,671.978 2548.51,662.526 2554.48,651.06 C2565.25,630.297 2578.34,619.915 2593.76,619.915 C2599.26,619.915 2603.6,620.961 2606.77,623.053 C2609.95,625.145 2611.54,628.011 2611.54,631.652 C2611.54,637.463 2609.41,642.383 2605.15,646.411 C2600.73,650.595 2596.12,652.687 2591.32,652.687 C2587.13,652.687 2585.04,651.951 2585.04,650.479"/>
<path class="Note" d="M3643.77,561.187 C3648.11,558.243 3651.25,555.803 3653.19,553.866 C3656.75,550.07 3658.53,546.583 3658.53,543.407 C3658.53,539.766 3656.52,537.945 3652.49,537.945 C3644.66,537.945 3636.3,544.84 3627.39,558.631 C3624.68,562.814 3618.71,576.45 3609.49,599.537 C3616.85,607.129 3620.53,611.429 3620.53,612.436 C3620.53,613.831 3619.64,614.528 3617.86,614.528 C3616.46,614.528 3612.63,612.165 3606.35,607.439 C3599.53,623.321 3589.19,636.879 3575.32,648.113 C3561.15,659.579 3544.22,665.312 3524.54,665.312 C3517.03,665.312 3507.61,663.569 3496.3,660.083 C3487.24,657.294 3482.7,652.839 3482.7,646.719 C3482.7,637.654 3486.19,633.122 3493.16,633.122 C3497.35,633.122 3499.44,635.059 3499.44,638.932 C3499.44,640.172 3498.47,641.489 3496.53,642.884 C3495.53,643.581 3495.02,644.937 3495.02,646.951 C3495.02,649.353 3497.7,651.832 3503.04,654.388 C3508.85,657.178 3517.37,658.572 3528.61,658.572 C3543.1,658.572 3557.08,652.297 3570.56,639.746 C3582.8,628.357 3591.59,615.109 3596.94,600.002 C3594.85,598.297 3592.6,596.438 3590.2,594.424 C3582.76,590.008 3579.04,585.475 3579.04,580.827 C3579.04,578.89 3580.32,577.922 3582.88,577.922 C3586.29,577.922 3590.9,580.827 3596.71,586.638 C3597.95,587.877 3599.11,589.039 3600.19,590.124 C3602.9,582.686 3607.24,573.235 3613.21,561.768 C3623.98,541.005 3637.07,530.624 3652.49,530.624 C3657.99,530.624 3662.33,531.67 3665.5,533.762 C3668.68,535.853 3670.27,538.72 3670.27,542.361 C3670.27,548.172 3668.14,553.091 3663.88,557.12 C3659.46,561.304 3654.85,563.395 3650.05,563.395 C3645.86,563.395 3643.77,562.659 3643.77,561.187"/>
<path class="Note" d="M3571.14,910.409 C3566.96,910.409 3564.87,908.511 3564.87,904.715 C3564.87,898.284 3565.83,893.558 3567.77,890.537 C3575.83,878.606 3593.34,856.293 3620.3,823.599 C3632.46,808.802 3648.15,801.403 3667.36,801.403 C3674.8,801.403 3679.95,802.449 3682.82,804.541 C3687.24,807.795 3689.44,811.707 3689.44,816.278 C3689.44,821.082 3685.57,826.427 3677.82,832.315 C3670.46,837.893 3663.49,840.682 3656.9,840.682 C3654.35,840.682 3653.07,840.411 3653.07,839.869 C3653.07,839.094 3654.31,838.281 3656.79,837.429 C3660.12,836.189 3663.68,833.671 3667.48,829.875 C3671.82,825.459 3673.99,821.469 3673.99,817.905 C3673.99,815.503 3672.32,813.218 3668.99,811.049 C3666.05,809.189 3661.28,808.26 3654.7,808.26 C3645.09,808.26 3632.96,817.944 3618.32,837.312 C3608.56,850.25 3600.66,861.639 3594.62,871.478 C3597.56,869.851 3601.08,867.876 3605.19,865.552 C3610.23,862.685 3614.56,861.252 3618.21,861.252 C3627.27,861.252 3631.8,864.506 3631.8,871.013 C3631.8,877.444 3628.08,884.494 3620.65,892.164 C3615.38,897.587 3612.74,901.616 3612.74,904.25 C3612.74,906.961 3615.38,908.317 3620.65,908.317 C3623.28,908.317 3625.99,907.388 3628.78,905.528 C3631.57,903.746 3633.62,902.855 3634.94,902.855 C3636.03,902.855 3636.57,903.553 3636.57,904.947 C3636.57,907.194 3634.4,909.557 3630.06,912.036 C3622.78,916.22 3616.93,918.311 3612.51,918.311 C3604.69,918.311 3600.77,914.128 3600.77,905.761 C3600.77,900.492 3603.8,894.643 3609.84,888.213 C3614.25,883.487 3616.46,878.8 3616.46,874.151 C3616.46,870.123 3614.29,868.108 3609.96,868.108 C3608.25,868.108 3602.6,870.123 3592.99,874.151 C3590.12,878.955 3587.72,883.371 3585.78,887.399 C3578.42,902.739 3573.54,910.409 3571.14,910.409"/>
<path class="Note" d="M3643.77,739.77 C3648.11,736.826 3651.25,734.386 3653.19,732.449 C3656.75,728.652 3658.53,725.166 3658.53,721.99 C3658.53,718.348 3656.52,716.528 3652.49,716.528 C3644.66,716.528 3636.3,723.423 3627.39,737.213 C3624.68,741.397 3618.71,755.032 3609.49,778.12 C3616.85,785.712 3620.53,790.012 3620.53,791.019 C3620.53,792.414 3619.64,793.111 3617.86,793.111 C3616.46,793.111 3612.63,790.748 3606.35,786.022 C3599.53,801.904 3589.19,815.462 3575.32,826.696 C3561.15,838.162 3544.22,843.895 3524.54,843.895 C3517.03,843.895 3507.61,842.152 3496.3,838.666 C3487.24,835.876 3482.7,831.422 3482.7,825.301 C3482.7,816.237 3486.19,811.705 3493.16,811.705 C3497.35,811.705 3499.44,813.641 3499.44,817.515 C3499.44,818.755 3498.47,820.072 3496.53,821.466 C3495.53,822.164 3495.02,823.519 3495.02,825.534 C3495.02,827.935 3497.7,830.415 3503.04,832.971 C3508.85,835.76 3517.37,837.155 3528.61,837.155 C3543.1,837.155 3557.08,830.879 3570.56,818.329 C3582.8,806.94 3591.59,793.692 3596.94,778.584 C3594.85,776.88 3592.6,775.021 3590.2,773.006 C3582.76,768.59 3579.04,764.058 3579.04,759.41 C3579.04,757.473 3580.32,756.504 3582.88,756.504 C3586.29,756.504 3590.9,759.41 3596.71,765.22 C3597.95,766.46 3599.11,767.622 3600.19,768.707 C3602.9,761.269 3607.24,751.817 3613.21,740.351 C3623.98,719.588 3637.07,709.207 3652.49,709.207 C3657.99,709.207 3662.33,710.252 3665.5,712.344 C3668.68,714.436 3670.27,717.303 3670.27,720.944 C3670.27,726.754 3668.14,731.674 3663.88,735.703 C3659.46,739.886 3654.85,741.978 3650.05,741.978 C3645.86,741.978 3643.77,741.242 3643.77,739.77"/>
<path class="Note" d="M3643.77,650.479 C3648.11,647.535 3651.25,645.094 3653.19,643.157 C3656.75,639.361 3658.53,635.875 3658.53,632.698 C3658.53,629.057 3656.52,627.236 3652.49,627.236 C3644.66,627.236 3636.3,634.132 3627.39,647.922 C3624.68,652.106 3618.71,665.741 3609.49,688.828 C3616.85,696.421 3620.53,700.721 3620.53,701.728 C3620.53,703.122 3619.64,703.819 3617.86,703.819 C3616.46,703.819 3612.63,701.457 3606.35,696.731 C3599.53,712.613 3589.19,726.171 3575.32,737.404 C3561.15,748.871 3544.22,754.604 3524.54,754.604 C3517.03,754.604 3507.61,752.86 3496.3,749.374 C3487.24,746.585 3482.7,742.13 3482.7,736.01 C3482.7,726.945 3486.19,722.413 3493.16,722.413 C3497.35,722.413 3499.44,724.35 3499.44,728.224 C3499.44,729.463 3498.47,730.78 3496.53,732.175 C3495.53,732.872 3495.02,734.228 3495.02,736.242 C3495.02,738.644 3497.7,741.123 3503.04,743.68 C3508.85,746.469 3517.37,747.863 3528.61,747.863 C3543.1,747.863 3557.08,741.588 3570.56,729.037 C3582.8,717.649 3591.59,704.401 3596.94,689.293 C3594.85,687.589 3592.6,685.729 3590.2,683.715 C3582.76,679.299 3579.04,674.767 3579.04,670.118 C3579.04,668.181 3580.32,667.213 3582.88,667.213 C3586.29,667.213 3590.9,670.118 3596.71,675.929 C3597.95,677.168 3599.11,678.331 3600.19,679.415 C3602.9,671.978 3607.24,662.526 3613.21,651.06 C3623.98,630.297 3637.07,619.915 3652.49,619.915 C3657.99,619.915 3662.33,620.961 3665.5,623.053 C3668.68,625.145 3670.27,628.011 3670.27,631.652 C3670.27,637.463 3668.14,642.383 3663.88,646.411 C3659.46,650.595 3654.85,652.687 3650.05,652.687 C3645.86,652.687 3643.77,651.951 3643.77,650.479"/>
<path class="Clef" transform="matrix(2.3811,0,0,2.3811,212.156,2220.03)" d="M25.4,-25.1 C17.8,-25.1 11.7,-20.7 11.6,-20.7 C5.8,-16.4 3.5,-11.3 2.6,-7.8 C2.1,-6 1.9,-4.2 1.9,-2.5 C1.9,-0.1 2.3,2.1 3.2,4 C4.4,6.7 6.7,8.6 9.7,9.6 C10.9,10 12.2,10.2 13.5,10.2 C15.7,10.2 18,9.6 19.9,8.5 C23,6.8 24.9,3.2 24.9,-0.7 C24.9,-4.2 23.1,-7.4 20.1,-9.3 C18,-10.7 16,-11.1 14.3,-11.1 C13.1,-11.1 12,-10.9 11.1,-10.6 C10.1,-10.2 8.4,-9.2 7.6,-8.5 C7.9,-10.4 9.1,-13.3 10.2,-14.9 C11.3,-16.5 13.5,-18.5 15.2,-19.4 C17.7,-20.8 20.9,-21.4 24.4,-21.4 C34.6,-21.4 39.6,-13.2 39.6,3.6 C39.6,12.9 36.1,21.8 33.1,27.7 C29.8,34.3 25.4,40.6 21.5,44.1 C11.1,53.6 1.3,58.1 1.2,58.1 C1.2,58.1 -0.3,59 0.1,60.5 C0.4,61.5 1.3,61.7 1.9,61.7 C2,61.7 2.3,61.6 2.4,61.6 C2.5,61.6 13.9,56.9 23,49.8 C28.1,46.1 32.7,42.1 36.7,37.8 C40.3,33.9 43.4,29.7 45.9,25.5 C50.3,18 52.8,10.2 52.8,3.5 C52.8,-4.8 50.6,-11.7 46.5,-16.6 C41.8,-22.2 34.7,-25.1 25.4,-25.1 M56.8,-12.4 C56.8,-9.6 59,-7.4 61.6,-7.4 C64.2,-7.4 66.4,-9.6 66.4,-12.4 C66.4,-15.2 64.2,-17.5 61.6,-17.5 C59,-17.5 56.8,-15.2 56.8,-12.4 M56.8,12.3 C56.8,15.1 59,17.4 61.6,17.4 C64.2,17.4 66.4,15.1 66.4,12.3 C66.4,9.5 64.2,7.2 61.6,7.2 C59,7.2 56.8,9.5 56.8,12.3"/>
<path class="Clef" transform="matrix(2.3811,0,0,2.3811,212.156,1570.39)" d="M63.35,-5.86992 C62.12,-11.3 59.48,-15.1199 58.7,-16.16 C55.51,-20.43 51.5,-23.28 46.81,-24.63 C43.7,-25.5199 40.7,-25.63 38.28,-25.45 C37.24,-31.46 36.24,-37.3399 35.33,-42.7899 C40.78,-48.96 44.4,-54.76 46.68,-59.06 C50.15,-65.6399 51.3,-70.2199 51.35,-70.4199 C53.07,-75.63 53.43,-83.33 52.33,-91.5399 C51.32,-99.0899 49.23,-105.8 46.88,-109.05 C45.85,-110.48 44.8,-111.21 43.76,-111.21 C42.54,-111.21 40.03,-109.97 37.14,-107.2 C34.84,-105 31.57,-101.11 29.01,-95.1 C26.01,-88.0399 25.8,-78.55 26.15,-71.83 C26.53,-64.56 27.64,-58.8699 27.65,-58.8199 C27.67,-58.73 27.93,-57.23 28.38,-54.66 C28.15,-54.43 27.91,-54.21 27.66,-53.9699 C26.62,-52.9699 25.43,-51.83 24.05,-50.45 C23.19,-49.5899 22.24,-48.68 21.24,-47.71 C12.79,-39.5699 0,-27.25 0,-8.1 C0,-3.4 0.9,1.02002 2.67998,5.03008 C4.27002,8.63008 6.57002,11.9101 9.5,14.7801 C17.23,22.3301 27.82,25.54 34.88,25.3801 C37.83,25.3101 40.46,25.07 42.85,24.62 C44.68,34.22 45.82,41.25 45.86,46.59 C45.9,53.1 44.25,57.07 40.35,59.84 C37.92,61.57 35.11,62.52 32.01,62.67 C29.42,62.79 27.16,62.32 25.73,61.9101 L25.72,61.9101 C25.72,61.9101 25.43,61.8301 25.42,61.6301 C25.41,61.45 25.76,61.4 25.77,61.4 L25.79,61.4 C27.71,60.9601 31.28,59.7301 33.64,56.4301 C35.44,53.9101 36.31,49.29 34.47,45.35 C33.36,42.9601 30.85,40.0101 25.23,39.5601 C22.74,39.3601 20.47,39.87 18.47,41.07 C16.66,42.15 15.16,43.79 14.11,45.79 C11.65,50.49 12.11,56.22 15.24,60.0601 C18.2,63.6801 22.82,65.99 28.25,66.57 C29.1,66.6601 29.95,66.7 30.8,66.7 C35.23,66.7 39.63,65.5 43.2,63.29 C46.86,60.72 48.98,56.74 49.66,51.1101 C50.22,46.47 49.83,40.5601 48.43,32.49 C48.07,30.4 47.53,27.37 46.87,23.6101 C52.62,21.69 56.78,18.12 60.55,12.27 C63.84,6.53008 64.78,0.430078 63.35,-5.86992 M29.14,20.32 C24.5,19.1 20.07,16.6 16.31,13.1 C15,11.87 13.13,9.7 11.66,6.31006 C10.29,3.15 9.62998,-0.27998 9.67998,-3.86992 C9.75,-8.55996 11.06,-13.38 13.57,-18.1699 C16.49,-23.75 21.05,-29.28 27.11,-34.61 C28.56,-35.8899 29.93,-37.1699 31.22,-38.45 C31.98,-34.1899 32.81,-29.5 33.69,-24.6199 C29.84,-23.35 25.09,-20.2 21.98,-14.55 C18.44,-7.97998 18.58,-2.45996 19.31,1.02002 C20.25,5.48008 22.78,9.24004 26.24,11.3301 C27.17,11.89 31.3,14.02 33.14,13.44 C33.51,13.32 33.78,13.1 33.92,12.77 C34.43,11.6 33.41,10.9601 31.85,10 C31.25,9.63008 30.58,9.21006 29.85,8.68008 C26.53,6.19004 25.08,1.74004 26.15,-2.63994 C26.73,-5.03994 28.01,-7.2 29.85,-8.9 C31.52,-10.45 33.56,-11.55 35.94,-12.1899 C37.98,-0.95 40.04,10.2 41.68,18.5601 C41.81,19.25 41.95,19.92 42.08,20.59 C37.7,21.52 33.35,21.4301 29.14,20.32 M40.46,-12.86 C50.81,-13.33 55.08,-5.88994 55.97,-1.05996 C56.44,1.47002 56.43,5.91006 54.89,10.12 C53.72,13.3 51.26,17.37 46.13,19.4301 C46.06,19.0101 45.98,18.5801 45.9,18.15 C44.36,9.38008 42.42,-1.60996 40.46,-12.86 M33.14,-83.8 C34.92,-89.5399 37.66,-92.7899 39.65,-94.5199 C41.4,-96.0399 43.05,-96.75 43.97,-96.75 C44.11,-96.75 44.23,-96.73 44.33,-96.7 C44.79,-96.56 45.32,-95.9899 45.79,-95.1199 C48.1,-90.83 47.36,-84.1199 46.02,-79.68 C44.39,-74.28 41.47,-68.66 32.67,-59.05 C32.5,-60.16 32.34,-61.21 32.19,-62.1899 C30.94,-70.48 31.26,-77.75 33.14,-83.8"/>
<path class="FiguredBass" d="M1545.54,2606.35 C1539.55,2606.35 1535.19,2604.68 1532.46,2601.34 C1531.47,2600.1 1530.21,2598.96 1528.66,2597.91 C1527.11,2596.85 1525.41,2596.33 1523.56,2596.33 C1521.15,2596.33 1518.98,2597.09 1517.06,2598.6 C1515.15,2600.12 1514.19,2602.14 1514.19,2604.68 C1514.19,2605.79 1513.63,2606.35 1512.52,2606.35 C1511.28,2606.35 1510.66,2605.79 1510.66,2604.68 C1510.66,2600.91 1511.54,2597.46 1513.31,2594.33 C1515.07,2591.21 1517.28,2588.58 1519.94,2586.45 C1522.6,2584.31 1525.47,2582.03 1528.57,2579.58 C1531.66,2577.14 1534.52,2574.77 1537.15,2572.49 C1539.78,2570.2 1541.97,2567.31 1543.74,2563.81 C1545.5,2560.32 1546.38,2556.5 1546.38,2552.35 C1546.38,2547.16 1545.53,2542.77 1543.83,2539.18 C1542.13,2535.59 1539.45,2533.8 1535.8,2533.8 C1533.7,2533.8 1531.88,2534.31 1530.33,2535.33 C1528.78,2536.35 1528.01,2537.7 1528.01,2539.37 C1528.01,2540.66 1528.89,2542.37 1530.65,2544.47 C1532.42,2546.57 1533.3,2548.33 1533.3,2549.76 C1533.3,2552.73 1532.29,2555.21 1530.28,2557.22 C1528.27,2559.23 1525.85,2560.24 1523,2560.24 C1520.03,2560.24 1517.54,2559.2 1515.53,2557.13 C1513.52,2555.06 1512.52,2552.6 1512.52,2549.76 C1512.52,2544.07 1514.79,2539.4 1519.34,2535.75 C1523.88,2532.1 1529.37,2530.27 1535.8,2530.27 C1543.41,2530.27 1550.04,2532.33 1555.7,2536.44 C1561.36,2540.56 1564.19,2545.86 1564.19,2552.35 C1564.19,2556.75 1563.4,2560.55 1561.83,2563.77 C1560.25,2566.98 1557.99,2569.58 1555.05,2571.56 C1552.12,2573.54 1549.18,2575.22 1546.24,2576.61 C1543.3,2578.01 1539.85,2579.51 1535.9,2581.11 C1531.94,2582.72 1528.75,2584.3 1526.34,2585.85 C1527.64,2585.54 1528.97,2585.38 1530.33,2585.38 C1534.91,2585.38 1539.67,2586.87 1544.62,2589.83 C1549.56,2592.8 1553.46,2594.29 1556.31,2594.29 C1557.91,2594.29 1559.23,2593.99 1560.25,2593.41 C1561.27,2592.82 1561.93,2592.17 1562.24,2591.46 C1562.55,2590.75 1562.91,2590.08 1563.31,2589.46 C1563.71,2588.85 1564.16,2588.54 1564.66,2588.54 C1565.89,2588.54 1566.51,2589.15 1566.51,2590.39 C1566.51,2593.05 1564.59,2596.38 1560.76,2600.36 C1556.93,2604.35 1551.85,2606.35 1545.54,2606.35"/>
<path class="FiguredBass" d="M2538.54,2533.8 C2533.96,2533.8 2530.91,2535.64 2529.4,2539.32 C2527.88,2543 2527.13,2548.21 2527.13,2554.95 L2527.13,2565.9 C2530.34,2564.6 2533.13,2563.92 2535.48,2563.86 C2543.52,2563.86 2549.84,2565.64 2554.45,2569.19 C2559.06,2572.75 2561.36,2578.04 2561.36,2585.06 C2561.36,2592.08 2559.02,2597.38 2554.36,2600.97 C2549.69,2604.55 2543.39,2606.35 2535.48,2606.35 C2527.37,2606.35 2521.03,2602.59 2516.46,2595.08 C2511.88,2587.56 2509.59,2578.64 2509.59,2568.31 C2509.59,2558.04 2512.25,2549.14 2517.57,2541.59 C2522.89,2534.05 2529.88,2530.27 2538.54,2530.27 C2544.23,2530.27 2549.14,2531.71 2553.29,2534.59 C2557.43,2537.46 2559.5,2541.25 2559.5,2545.95 C2559.5,2548.67 2558.51,2551.02 2556.54,2553 C2554.56,2554.98 2552.19,2555.97 2549.44,2555.97 C2546.69,2555.97 2544.32,2554.98 2542.34,2553 C2540.36,2551.02 2539.37,2548.67 2539.37,2545.95 C2539.37,2543.29 2540.36,2540.94 2542.34,2538.9 C2543.02,2538.1 2543.98,2537.42 2545.22,2536.86 C2544.91,2536.06 2544.29,2535.44 2543.36,2535.01 C2542,2534.2 2540.39,2533.8 2538.54,2533.8 M2543.08,2571.74 C2541.97,2568.84 2539.53,2567.38 2535.75,2567.38 C2531.98,2567.38 2529.65,2568.84 2528.75,2571.74 C2527.85,2574.65 2527.4,2579.07 2527.4,2585.01 C2527.4,2592 2527.85,2596.7 2528.75,2599.11 C2529.65,2601.52 2531.98,2602.73 2535.75,2602.73 C2539.53,2602.73 2541.97,2601.28 2543.08,2598.37 C2544.2,2595.46 2544.75,2591.03 2544.75,2585.06 C2544.75,2579.09 2544.2,2574.65 2543.08,2571.74"/>
<path class="FiguredBass" d="M2515.9,2636.02 L2520.35,2636.67 C2521.53,2636.86 2522.98,2637.04 2524.71,2637.23 C2528.98,2637.72 2533.09,2637.97 2537.05,2637.97 C2541.01,2637.97 2545.19,2637.72 2549.58,2637.23 C2551.31,2637.04 2552.82,2636.86 2554.12,2636.67 L2558.67,2636.02 C2559.6,2636.02 2560.31,2636.33 2560.8,2636.95 C2561.17,2637.45 2561.11,2637.94 2560.62,2638.44 C2550.97,2647.9 2537.64,2652.63 2520.63,2652.63 C2519.95,2652.63 2519.35,2652.88 2518.82,2653.37 C2518.3,2653.87 2518.03,2654.49 2518.03,2655.23 L2518.03,2667.01 C2522.43,2662.68 2527.74,2660.52 2533.99,2660.52 C2542.71,2660.52 2549.52,2662.56 2554.4,2666.64 C2559.72,2662.62 2562.5,2657.49 2562.75,2651.24 C2562.81,2649.26 2563.46,2647.65 2564.7,2646.41 C2566.06,2645.18 2567.7,2644.56 2569.62,2644.56 C2571.53,2644.56 2573.16,2645.21 2574.49,2646.51 C2575.82,2647.81 2576.48,2649.38 2576.48,2651.24 C2576.48,2660.83 2570.82,2668.09 2559.5,2673.04 C2561.36,2676.69 2562.29,2681.14 2562.29,2686.4 C2562.29,2693.39 2559.5,2699.42 2553.94,2704.49 C2548.37,2709.56 2541.72,2712.1 2533.99,2712.1 C2527.31,2712.1 2521.51,2710.58 2516.6,2707.55 C2511.68,2704.52 2509.22,2700.32 2509.22,2694.94 C2509.22,2692.21 2510.21,2689.85 2512.19,2687.84 C2514.17,2685.83 2516.53,2684.82 2519.29,2684.82 C2522.04,2684.82 2524.37,2685.81 2526.29,2687.79 C2528.21,2689.77 2529.17,2692.15 2529.17,2694.94 C2529.17,2696.17 2528.15,2697.52 2526.11,2698.97 C2524.06,2700.42 2523.04,2701.77 2523.04,2703.01 C2523.04,2706.72 2526.69,2708.57 2533.99,2708.57 C2541.1,2708.57 2544.66,2701.18 2544.66,2686.4 C2544.66,2683.12 2544.47,2680.25 2544.1,2677.77 C2536.62,2679.32 2527.25,2680.52 2515.99,2681.39 C2514.45,2681.51 2513.67,2680.74 2513.67,2679.07 C2513.67,2677.71 2514.45,2676.97 2515.99,2676.84 C2527.37,2675.92 2536.34,2674.43 2542.9,2672.39 C2541.17,2667.44 2538.2,2664.94 2533.99,2664.88 C2527.62,2664.88 2523.17,2666.18 2520.63,2668.77 C2518.1,2671.37 2516.52,2672.67 2515.9,2672.67 C2514.42,2672.67 2513.67,2671.9 2513.67,2670.35 L2513.67,2638.44 C2513.67,2637.82 2513.89,2637.26 2514.32,2636.77 C2514.82,2636.27 2515.34,2636.02 2515.9,2636.02"/>
<path class="FiguredBass" d="M1541.37,1797.25 C1536.79,1797.25 1533.75,1799.09 1532.23,1802.77 C1530.72,1806.45 1529.96,1811.66 1529.96,1818.4 L1529.96,1829.35 C1533.18,1828.05 1535.96,1827.37 1538.31,1827.31 C1546.35,1827.31 1552.67,1829.09 1557.28,1832.65 C1561.89,1836.2 1564.19,1841.49 1564.19,1848.51 C1564.19,1855.53 1561.86,1860.83 1557.19,1864.42 C1552.52,1868.01 1546.23,1869.8 1538.31,1869.8 C1530.21,1869.8 1523.87,1866.04 1519.29,1858.53 C1514.71,1851.01 1512.42,1842.09 1512.42,1831.76 C1512.42,1821.5 1515.08,1812.59 1520.4,1805.05 C1525.72,1797.5 1532.71,1793.73 1541.37,1793.73 C1547.06,1793.73 1551.98,1795.16 1556.12,1798.04 C1560.26,1800.92 1562.34,1804.7 1562.34,1809.41 C1562.34,1812.13 1561.35,1814.48 1559.37,1816.46 C1557.39,1818.44 1555.02,1819.43 1552.27,1819.43 C1549.52,1819.43 1547.15,1818.44 1545.17,1816.46 C1543.19,1814.48 1542.2,1812.13 1542.2,1809.41 C1542.2,1806.75 1543.19,1804.4 1545.17,1802.35 C1545.85,1801.55 1546.81,1800.87 1548.05,1800.31 C1547.74,1799.51 1547.12,1798.89 1546.19,1798.46 C1544.83,1797.65 1543.23,1797.25 1541.37,1797.25 M1545.92,1835.2 C1544.8,1832.29 1542.36,1830.84 1538.59,1830.84 C1534.81,1830.84 1532.48,1832.29 1531.58,1835.2 C1530.69,1838.1 1530.24,1842.53 1530.24,1848.46 C1530.24,1855.45 1530.69,1860.15 1531.58,1862.56 C1532.48,1864.98 1534.81,1866.18 1538.59,1866.18 C1542.36,1866.18 1544.8,1864.73 1545.92,1861.82 C1547.03,1858.92 1547.59,1854.48 1547.59,1848.51 C1547.59,1842.54 1547.03,1838.1 1545.92,1835.2"/>
<path class="FiguredBass" d="M1540.72,1901.43 C1543.07,1901.43 1545.54,1901.08 1548.14,1900.4 L1552.32,1899.29 C1553.12,1899.29 1553.76,1899.6 1554.22,1900.22 C1554.68,1900.84 1554.64,1901.39 1554.08,1901.89 L1510.94,1952.08 L1536.27,1952.08 L1536.27,1932.23 C1536.27,1930.8 1536.65,1929.71 1537.43,1928.93 C1538.2,1928.16 1539.19,1927.54 1540.4,1927.08 C1541.6,1926.61 1543.18,1925.24 1545.13,1922.95 C1547.08,1920.66 1548.95,1917.57 1550.74,1913.67 C1551.05,1913.05 1551.51,1912.74 1552.13,1912.74 C1553.43,1912.74 1554.08,1913.45 1554.08,1914.88 L1554.08,1952.08 L1565.03,1952.08 C1566.57,1952.08 1567.35,1952.79 1567.35,1954.21 C1567.35,1955.76 1566.57,1956.53 1565.03,1956.53 L1554.08,1956.53 L1554.08,1957.74 C1554.08,1961.57 1555.1,1964.91 1557.14,1967.76 C1559.18,1970.6 1561.81,1972.03 1565.03,1972.03 C1566.26,1972.03 1566.88,1972.58 1566.88,1973.7 C1566.88,1974.93 1566.26,1975.55 1565.03,1975.55 C1562.8,1975.55 1559.49,1975.23 1555.1,1974.58 C1550.71,1973.93 1547.38,1973.6 1545.13,1973.6 C1542.87,1973.6 1539.55,1973.93 1535.15,1974.58 C1530.76,1975.23 1527.45,1975.55 1525.23,1975.55 C1523.99,1975.55 1523.37,1974.93 1523.37,1973.7 C1523.37,1972.58 1523.99,1972.03 1525.23,1972.03 C1528.44,1972.03 1531.09,1970.6 1533.16,1967.76 C1535.23,1964.91 1536.27,1961.57 1536.27,1957.74 L1536.27,1956.53 L1510.94,1956.53 C1509.33,1956.53 1508.14,1956.15 1507.37,1955.37 C1506.6,1954.6 1506.21,1953.81 1506.21,1953.01 C1506.21,1952.7 1506.94,1951.63 1508.39,1949.81 C1509.84,1947.98 1511.62,1945.55 1513.72,1942.52 C1515.83,1939.49 1517.91,1936.05 1519.99,1932.18 C1522.06,1928.31 1523.82,1923.68 1525.27,1918.26 C1526.73,1912.85 1527.45,1907.39 1527.45,1901.89 C1527.45,1900.28 1528.13,1899.48 1529.5,1899.48 C1529.68,1899.48 1530.33,1899.63 1531.44,1899.94 C1532.56,1900.25 1533.98,1900.57 1535.71,1900.91 C1537.44,1901.25 1539.11,1901.43 1540.72,1901.43"/>
<path class="FiguredBass" d="M1545.54,2081.3 C1539.55,2081.3 1535.19,2079.63 1532.46,2076.29 C1531.47,2075.05 1530.21,2073.91 1528.66,2072.86 C1527.11,2071.81 1525.41,2071.28 1523.56,2071.28 C1521.15,2071.28 1518.98,2072.04 1517.06,2073.55 C1515.15,2075.07 1514.19,2077.1 1514.19,2079.63 C1514.19,2080.74 1513.63,2081.3 1512.52,2081.3 C1511.28,2081.3 1510.66,2080.74 1510.66,2079.63 C1510.66,2075.86 1511.54,2072.41 1513.31,2069.29 C1515.07,2066.16 1517.28,2063.53 1519.94,2061.4 C1522.6,2059.27 1525.47,2056.98 1528.57,2054.54 C1531.66,2052.09 1534.52,2049.73 1537.15,2047.44 C1539.78,2045.15 1541.97,2042.26 1543.74,2038.76 C1545.5,2035.27 1546.38,2031.45 1546.38,2027.31 C1546.38,2022.11 1545.53,2017.72 1543.83,2014.13 C1542.13,2010.55 1539.45,2008.75 1535.8,2008.75 C1533.7,2008.75 1531.88,2009.26 1530.33,2010.28 C1528.78,2011.3 1528.01,2012.65 1528.01,2014.32 C1528.01,2015.62 1528.89,2017.32 1530.65,2019.42 C1532.42,2021.52 1533.3,2023.29 1533.3,2024.71 C1533.3,2027.68 1532.29,2030.17 1530.28,2032.18 C1528.27,2034.19 1525.85,2035.19 1523,2035.19 C1520.03,2035.19 1517.54,2034.16 1515.53,2032.08 C1513.52,2030.01 1512.52,2027.55 1512.52,2024.71 C1512.52,2019.02 1514.79,2014.35 1519.34,2010.7 C1523.88,2007.05 1529.37,2005.23 1535.8,2005.23 C1543.41,2005.23 1550.04,2007.28 1555.7,2011.4 C1561.36,2015.51 1564.19,2020.81 1564.19,2027.31 C1564.19,2031.7 1563.4,2035.5 1561.83,2038.72 C1560.25,2041.93 1557.99,2044.53 1555.05,2046.51 C1552.12,2048.49 1549.18,2050.18 1546.24,2051.57 C1543.3,2052.96 1539.85,2054.46 1535.9,2056.07 C1531.94,2057.67 1528.75,2059.25 1526.34,2060.8 C1527.64,2060.49 1528.97,2060.33 1530.33,2060.33 C1534.91,2060.33 1539.67,2061.82 1544.62,2064.79 C1549.56,2067.76 1553.46,2069.24 1556.31,2069.24 C1557.91,2069.24 1559.23,2068.95 1560.25,2068.36 C1561.27,2067.77 1561.93,2067.12 1562.24,2066.41 C1562.55,2065.7 1562.91,2065.03 1563.31,2064.42 C1563.71,2063.8 1564.16,2063.49 1564.66,2063.49 C1565.89,2063.49 1566.51,2064.11 1566.51,2065.34 C1566.51,2068 1564.59,2071.33 1560.76,2075.32 C1556.93,2079.31 1551.85,2081.3 1545.54,2081.3"/>
<polyline class="FretDiagram" stroke="#fc02ff" stroke-width="4.76" stroke-linejoin="bevel" points="1437.75,227.452 1650.86,227.452"/>
<polyline class="FretDiagram" stroke="#fc02ff" stroke-width="4.76" stroke-linejoin="bevel" points="1440.13,215.547 1440.13,441.751"/>
<polyline class="FretDiagram" stroke="#fc02ff" stroke-width="4.76" stroke-linejoin="bevel" points="1481.8,215.547 1481.8,441.751"/>
<polyline class="FretDiagram" stroke="#fc02ff" stroke-width="4.76" stroke-linejoin="bevel" points="1523.47,215.547 1523.47,441.751"/>
<polyline class="FretDiagram" stroke="#fc02ff" stroke-width="4.76" stroke-linejoin="bevel" points="1565.14,215.547 1565.14,441.751"/>
<polyline class="FretDiagram" stroke="#fc02ff" stroke-width="4.76" stroke-linejoin="bevel" points="1606.81,215.547 1606.81,441.751"/>
<polyline class="FretDiagram" stroke="#fc02ff" stroke-width="4.76" stroke-linejoin="bevel" points="1648.48,215.547 1648.48,441.751"/>
<polyline class="FretDiagram" stroke="#fc02ff" stroke-width="4.76" stroke-linejoin="bevel" points="1440.13,275.074 1648.48,275.074"/>
<polyline class="FretDiagram" stroke="#fc02ff" stroke-width="4.76" stroke-linejoin="bevel" points="1440.13,322.696 1648.48,322.696"/>
<polyline class="FretDiagram" stroke="#fc02ff" stroke-width="4.76" stroke-linejoin="bevel" points="1440.13,370.318 1648.48,370.318"/>
<polyline class="FretDiagram" stroke="#fc02ff" stroke-width="4.76" stroke-linejoin="bevel" points="1440.13,417.94 1648.48,417.94"/>
<path class="FretDiagram" fill="#fc02ff" fill-rule="evenodd" d="M1496.39,298.885 C1496.39,306.94 1489.86,313.469 1481.8,313.469 C1473.75,313.469 1467.22,306.94 1467.22,298.885 C1467.22,290.83 1473.75,284.301 1481.8,284.301 C1489.86,284.301 1496.39,290.83 1496.39,298.885"/>
<path class="FretDiagram" fill="#fc02ff" fill-rule="evenodd" d="M1538.05,298.885 C1538.05,306.94 1531.53,313.469 1523.47,313.469 C1515.42,313.469 1508.89,306.94 1508.89,298.885 C1508.89,290.83 1515.42,284.301 1523.47,284.301 C1531.53,284.301 1538.05,290.83 1538.05,298.885"/>
<path class="FretDiagram" fill="#fc02ff" fill-rule="evenodd" d="M1579.72,251.263 C1579.72,259.318 1573.19,265.847 1565.14,265.847 C1557.09,265.847 1550.56,259.318 1550.56,251.263 C1550.56,243.208 1557.09,236.679 1565.14,236.679 C1573.19,236.679 1579.72,243.208 1579.72,251.263"/>
<path class="FretDiagram" fill="#fc02ff" fill-rule="evenodd" d="M1621.39,298.885 C1621.39,306.94 1614.86,313.469 1606.81,313.469 C1598.75,313.469 1592.22,306.94 1592.22,298.885 C1592.22,290.83 1598.75,284.301 1606.81,284.301 C1614.86,284.301 1621.39,290.83 1621.39,298.885"/>
<polyline class="FretDiagram" fill="none" stroke="#fc02ff" stroke-width="6.86" stroke-linecap="round" stroke-linejoin="bevel" points="1423.46,163.162 1456.8,196.498"/>
<polyline class="FretDiagram" fill="none" stroke="#fc02ff" stroke-width="6.86" stroke-linecap="round" stroke-linejoin="bevel" points="1423.46,196.498 1456.8,163.162"/>
<polyline class="FretDiagram" fill="none" stroke="#fc02ff" stroke-width="6.86" stroke-linecap="round" stroke-linejoin="bevel" points="1631.81,163.162 1665.15,196.498"/>
<polyline class="FretDiagram" fill="none" stroke="#fc02ff" stroke-width="6.86" stroke-linecap="round" stroke-linejoin="bevel" points="1631.81,196.498 1665.15,163.162"/>
<path class="FretDiagram" fill="#fc02ff" d="M1374.75,253.83 C1374.75,247.876 1375.29,242.635 1376.36,238.107 C1377.44,233.579 1378.79,230.016 1380.4,227.42 C1382.02,224.823 1383.95,222.717 1386.2,221.102 C1388.44,219.487 1390.57,218.426 1392.56,217.92 C1394.56,217.413 1396.66,217.16 1398.88,217.16 C1404.01,217.16 1408.27,218.711 1411.66,221.815 C1415.04,224.918 1417.15,229.225 1417.97,234.735 L1409.61,234.735 C1408.92,231.505 1407.59,229.003 1405.62,227.23 C1403.66,225.456 1401.22,224.57 1398.31,224.57 C1393.49,224.57 1389.81,226.77 1387.24,231.172 C1384.68,235.574 1383.36,241.891 1383.3,250.125 C1386.97,245.121 1392.13,242.62 1398.78,242.62 C1404.8,242.62 1409.74,244.615 1413.6,248.605 C1417.47,252.595 1419.4,257.725 1419.4,263.995 C1419.4,270.581 1417.32,276.012 1413.18,280.287 C1409.03,284.562 1403.75,286.7 1397.36,286.7 C1382.28,286.7 1374.75,275.743 1374.75,253.83 M1397.74,250.03 C1393.62,250.03 1390.26,251.344 1387.67,253.972 C1385.07,256.6 1383.77,260.005 1383.77,264.185 C1383.77,268.491 1385.07,272.085 1387.67,274.967 C1390.26,277.849 1393.53,279.29 1397.45,279.29 C1401.32,279.29 1404.51,277.912 1407.05,275.157 C1409.58,272.402 1410.85,268.903 1410.85,264.66 C1410.85,260.163 1409.68,256.6 1407.33,253.972 C1404.99,251.344 1401.79,250.03 1397.74,250.03"/>
<path class="Bracket" transform="matrix(8.6315,0,0,10.068,76.1283,2398.61)" d="M0.92002,-50 C2.69004,-51.88 6.2,-55.8 6.2,-63 C6.2,-72.1 2.25996,-81.32 2.25996,-86.97 C2.25996,-93.06 5.84004,-98.84 5.95,-99 C6.05996,-99.16 6.05,-99.39 5.94004,-99.46 C5.82998,-99.53 5.62002,-99.47 5.49004,-99.32 C5.35996,-99.17 0,-93.75 0,-85.6 C0,-76.75 3.5,-70.58 3.5,-59.07 C3.5,-56.89 2.55996,-53.36 0.1,-50.33 C-0.0799805,-50.17 -0.1,-49.89 0.0599609,-49.7 L0.0700195,-49.69 L0.1,-49.66 C2.55996,-46.63 3.5,-43.1 3.5,-40.92 C3.5,-29.4 0,-23.24 0,-14.39 C0,-6.25 5.35996,-0.8 5.49004,-0.659961 C5.62002,-0.52002 5.8,-0.42998 5.94004,-0.52002 C6.07998,-0.609961 6.07998,-0.77998 5.95,-0.97998 C5.82002,-1.17998 2.25996,-6.92002 2.25996,-13.01 C2.25996,-18.66 6.2,-27.9 6.2,-37 C6.2,-44.3 2.69004,-48.12 0.92002,-50"/>
</svg>
