<?xml version="1.0" encoding="UTF-8" standalone="no"?>
<svg width="4209.44px" height="2976.38px" viewBox="0 0 4209.44 2976.38"
 xmlns="http://www.w3.org/2000/svg" xmlns:xlink="http://www.w3.org/1999/xlink" version="1.2" baseProfile="tiny">
<title>LaMineur (24)</title>
<desc>Generated by MuseScore 3.6.2</desc>
<polyline class="StaffLines" fill="none" stroke="#000000" stroke-width="6.55" stroke-linejoin="bevel" points="153.819,558.425 4138.58,558.425"/>
<polyline class="StaffLines" fill="none" stroke="#000000" stroke-width="6.55" stroke-linejoin="bevel" points="153.819,647.717 4138.58,647.717"/>
<polyline class="StaffLines" fill="none" stroke="#000000" stroke-width="6.55" stroke-linejoin="bevel" points="153.819,737.008 4138.58,737.008"/>
<polyline class="StaffLines" fill="none" stroke="#000000" stroke-width="6.55" stroke-linejoin="bevel" points="153.819,826.299 4138.58,826.299"/>
<polyline class="StaffLines" fill="none" stroke="#000000" stroke-width="6.55" stroke-linejoin="bevel" points="153.819,915.591 4138.58,915.591"/>
<polyline class="StaffLines" fill="none" stroke="#000000" stroke-width="6.55" stroke-linejoin="bevel" points="153.819,1004.88 4138.58,1004.88"/>
<polyline class="StaffLines" fill="none" stroke="#000000" stroke-width="6.55" stroke-linejoin="bevel" points="153.819,1391.81 4138.58,1391.81"/>
<polyline class="StaffLines" fill="none" stroke="#000000" stroke-width="6.55" stroke-linejoin="bevel" points="153.819,1451.34 4138.58,1451.34"/>
<polyline class="StaffLines" fill="none" stroke="#000000" stroke-width="6.55" stroke-linejoin="bevel" points="153.819,1510.87 4138.58,1510.87"/>
<polyline class="StaffLines" fill="none" stroke="#000000" stroke-width="6.55" stroke-linejoin="bevel" points="153.819,1570.39 4138.58,1570.39"/>
<polyline class="StaffLines" fill="none" stroke="#000000" stroke-width="6.55" stroke-linejoin="bevel" points="153.819,1629.92 4138.58,1629.92"/>
<polyline class="StaffLines" fill="none" stroke="#000000" stroke-width="6.55" stroke-linejoin="bevel" points="153.819,2052.37 4138.58,2052.37"/>
<polyline class="StaffLines" fill="none" stroke="#000000" stroke-width="6.55" stroke-linejoin="bevel" points="153.819,2111.9 4138.58,2111.9"/>
<polyline class="StaffLines" fill="none" stroke="#000000" stroke-width="6.55" stroke-linejoin="bevel" points="153.819,2171.43 4138.58,2171.43"/>
<polyline class="StaffLines" fill="none" stroke="#000000" stroke-width="6.55" stroke-linejoin="bevel" points="153.819,2230.95 4138.58,2230.95"/>
<polyline class="StaffLines" fill="none" stroke="#000000" stroke-width="6.55" stroke-linejoin="bevel" points="153.819,2290.48 4138.58,2290.48"/>
<path class="Symbol" transform="matrix(2.3811,0,0,2.3811,3014.89,1421.57)" d="M0,-0.1 C0,7.7 4,14 10.4,18.1 L10.9,17.4 C7.5,14.8 6.3,13.3 5.2,10.1 C4.2,7.2 3.7,4 3.7,-0.2 C3.7,-8.1 4.8,-12.3 10.9,-17.4 L10.5,-18.1 C3.9,-13.6 0,-8.5 0,-0.1"/>
<path class="Symbol" transform="matrix(2.3811,0,0,2.3811,3129.65,1421.57)" d="M3.7,-0.2 C3.7,4 3.2,7.2 2.2,10.1 C1,13.3 -0.2,14.8 -3.6,17.4 L-3,18.1 C3.4,14.1 7.3,7.6 7.3,-0.1 C7.3,-8.4 3.4,-13.8 -3.2,-18.1 L-3.6,-17.4 C2.6,-12.4 3.7,-8.1 3.7,-0.2"/>
<path class="Symbol" transform="matrix(2.3811,0,0,2.3811,3025.73,707.244)" d="M0,-0.1 C0,7.7 4,14 10.4,18.1 L10.9,17.4 C7.5,14.8 6.3,13.3 5.2,10.1 C4.2,7.2 3.7,4 3.7,-0.2 C3.7,-8.1 4.8,-12.3 10.9,-17.4 L10.5,-18.1 C3.9,-13.6 0,-8.5 0,-0.1"/>
<path class="Symbol" transform="matrix(2.3811,0,0,2.3811,3130.74,707.244)" d="M3.7,-0.2 C3.7,4 3.2,7.2 2.2,10.1 C1,13.3 -0.2,14.8 -3.6,17.4 L-3,18.1 C3.4,14.1 7.3,7.6 7.3,-0.1 C7.3,-8.4 3.4,-13.8 -3.2,-18.1 L-3.6,-17.4 C2.6,-12.4 3.7,-8.1 3.7,-0.2"/>
<polyline class="BarLine" fill="none" stroke="#000000" stroke-width="10.71" stroke-linejoin="bevel" points="159.176,2049.1 159.176,2293.76"/>
<polyline class="BarLine" fill="none" stroke="#000000" stroke-width="10.71" stroke-linejoin="bevel" points="984.268,2049.1 984.268,2293.76"/>
<polyline class="BarLine" fill="none" stroke="#000000" stroke-width="10.71" stroke-linejoin="bevel" points="1662.81,2049.1 1662.81,2293.76"/>
<polyline class="BarLine" fill="none" stroke="#000000" stroke-width="10.71" stroke-linejoin="bevel" points="2216.47,2049.1 2216.47,2293.76"/>
<polyline class="BarLine" fill="none" stroke="#000000" stroke-width="10.71" stroke-linejoin="bevel" points="2249.21,2049.1 2249.21,2293.76"/>
<polyline class="BarLine" fill="none" stroke="#000000" stroke-width="10.71" stroke-linejoin="bevel" points="2827.49,2049.1 2827.49,2293.76"/>
<polyline class="BarLine" fill="none" stroke="#000000" stroke-width="10.71" stroke-linejoin="bevel" points="3526.88,2049.1 3526.88,2293.76"/>
<polyline class="BarLine" fill="none" stroke="#000000" stroke-width="10.71" stroke-linejoin="bevel" points="4080.54,2049.1 4080.54,2293.76"/>
<polyline class="BarLine" fill="none" stroke="#000000" stroke-width="32.74" stroke-linejoin="bevel" points="4122.21,2049.1 4122.21,2293.76"/>
<polyline class="BarLine" fill="none" stroke="#000000" stroke-width="10.71" stroke-linejoin="bevel" points="159.176,1388.54 159.176,2052.37"/>
<polyline class="BarLine" fill="none" stroke="#000000" stroke-width="10.71" stroke-linejoin="bevel" points="984.268,1388.54 984.268,1633.2"/>
<polyline class="BarLine" fill="none" stroke="#000000" stroke-width="10.71" stroke-linejoin="bevel" points="1662.81,1388.54 1662.81,1633.2"/>
<polyline class="BarLine" fill="none" stroke="#000000" stroke-width="10.71" stroke-linejoin="bevel" points="2216.47,1388.54 2216.47,1633.2"/>
<polyline class="BarLine" fill="none" stroke="#000000" stroke-width="10.71" stroke-linejoin="bevel" points="2249.21,1388.54 2249.21,1633.2"/>
<polyline class="BarLine" fill="none" stroke="#000000" stroke-width="10.71" stroke-linejoin="bevel" points="2827.49,1388.54 2827.49,1633.2"/>
<polyline class="BarLine" fill="none" stroke="#000000" stroke-width="10.71" stroke-linejoin="bevel" points="3526.88,1388.54 3526.88,1633.2"/>
<polyline class="BarLine" fill="none" stroke="#000000" stroke-width="10.71" stroke-linejoin="bevel" points="4080.54,1388.54 4080.54,1633.2"/>
<polyline class="BarLine" fill="none" stroke="#000000" stroke-width="32.74" stroke-linejoin="bevel" points="4122.21,1388.54 4122.21,1633.2"/>
<polyline class="BarLine" fill="none" stroke="#000000" stroke-width="10.71" stroke-linejoin="bevel" points="159.176,555.151 159.176,1391.81"/>
<polyline class="BarLine" fill="none" stroke="#000000" stroke-width="10.71" stroke-linejoin="bevel" points="984.268,555.151 984.268,1008.16"/>
<polyline class="BarLine" fill="none" stroke="#000000" stroke-width="10.71" stroke-linejoin="bevel" points="1662.81,555.151 1662.81,1008.16"/>
<polyline class="BarLine" fill="none" stroke="#000000" stroke-width="10.71" stroke-linejoin="bevel" points="2216.47,555.151 2216.47,1008.16"/>
<polyline class="BarLine" fill="none" stroke="#000000" stroke-width="10.71" stroke-linejoin="bevel" points="2249.21,555.151 2249.21,1008.16"/>
<polyline class="BarLine" fill="none" stroke="#000000" stroke-width="10.71" stroke-linejoin="bevel" points="2827.49,555.151 2827.49,1008.16"/>
<polyline class="BarLine" fill="none" stroke="#000000" stroke-width="10.71" stroke-linejoin="bevel" points="3526.88,555.151 3526.88,1008.16"/>
<polyline class="BarLine" fill="none" stroke="#000000" stroke-width="10.71" stroke-linejoin="bevel" points="4080.54,555.151 4080.54,1008.16"/>
<polyline class="BarLine" fill="none" stroke="#000000" stroke-width="32.74" stroke-linejoin="bevel" points="4122.21,555.151 4122.21,1008.16"/>
<path class="Accidental" transform="matrix(2.3811,0,0,2.3811,1047.13,1570.39)" d="M23.3,-10.6 C23.9,-10.7 24.4,-11.4 24.4,-12 L24.4,-17.9 C24.4,-18.7 23.8,-19.3 23,-19.3 L22.8,-19.3 L19.5,-18.6 L19.5,-33.5 L16.7,-33.5 L16.7,-18 L7.8,-16.2 L7.8,-30.3 L5,-30.3 L5,-15.6 L1.1,-14.8 C0.5,-14.7 0,-14 0,-13.4 L0,-13.2 L0,-7.4 L0,-7.6 C0,-6.8 0.6,-6.2 1.4,-6.2 L1.7,-6.2 L5,-6.9 L5,9.6 L1.1,10.4 C0.5,10.5 0,11.2 0,11.8 L0,17.6 C0,18.4 0.6,19 1.4,19 L1.7,19 L5,18.3 L5,33.2 L7.8,33.2 L7.8,17.7 L16.7,15.9 L16.7,30 L19.5,30 L19.5,15.3 L23.3,14.6 C23.9,14.5 24.4,13.8 24.4,13.2 L24.4,7.3 C24.4,6.5 23.8,5.9 23,5.9 L22.8,5.9 L19.5,6.6 L19.5,-9.9 L23.3,-10.6 M7.8,9.1 L7.8,-7.5 L16.7,-9.3 L16.7,7.2 L7.8,9.1 "/>
<path class="Accidental" transform="matrix(2.3811,0,0,2.3811,2890.36,1570.39)" d="M23.3,-10.6 C23.9,-10.7 24.4,-11.4 24.4,-12 L24.4,-17.9 C24.4,-18.7 23.8,-19.3 23,-19.3 L22.8,-19.3 L19.5,-18.6 L19.5,-33.5 L16.7,-33.5 L16.7,-18 L7.8,-16.2 L7.8,-30.3 L5,-30.3 L5,-15.6 L1.1,-14.8 C0.5,-14.7 0,-14 0,-13.4 L0,-13.2 L0,-7.4 L0,-7.6 C0,-6.8 0.6,-6.2 1.4,-6.2 L1.7,-6.2 L5,-6.9 L5,9.6 L1.1,10.4 C0.5,10.5 0,11.2 0,11.8 L0,17.6 C0,18.4 0.6,19 1.4,19 L1.7,19 L5,18.3 L5,33.2 L7.8,33.2 L7.8,17.7 L16.7,15.9 L16.7,30 L19.5,30 L19.5,15.3 L23.3,14.6 C23.9,14.5 24.4,13.8 24.4,13.2 L24.4,7.3 C24.4,6.5 23.8,5.9 23,5.9 L22.8,5.9 L19.5,6.6 L19.5,-9.9 L23.3,-10.6 M7.8,9.1 L7.8,-7.5 L16.7,-9.3 L16.7,7.2 L7.8,9.1 "/>
<path class="Note" transform="matrix(2.3811,0,0,2.3811,519.076,2022.61)" d="M18.7,-13.6 C4.9,-13.6 0,-6.6 0,-0.1 C0,6.4 4.9,13.4 18.7,13.4 C32.5,13.4 37.3,6.4 37.3,-0.1 C37.3,-6.6 32.5,-13.6 18.7,-13.6 M10.4,-4.5 C10.3,-4.9 10.3,-5.3 10.3,-5.7 C10.3,-6.5 10.5,-7.3 10.9,-8 C11.6,-9 12.8,-9.7 14.3,-10 C15.6,-10.3 16.3,-10.5 18.9,-10.5 L19,-10.5 C23,-10.5 24.3,-6.8 25.4,-3 L25.7,-2 C26.5,0.6 26.9,2.8 26.9,4.5 C26.9,5.7 26.7,6.8 26.3,7.6 C25.7,8.7 24.7,9.4 23,9.8 C22.1,10 20.6,10.1 20.6,10.1 C20.1,10.1 19.7,10.2 19.3,10.2 C16.1,10.2 14.1,9 12.7,4.7 C11.5,1 11.3,-0.1 10.4,-4.5"/>
<path class="Note" transform="matrix(2.3811,0,0,2.3811,1197.62,2022.61)" d="M18.7,-13.6 C4.9,-13.6 0,-6.6 0,-0.1 C0,6.4 4.9,13.4 18.7,13.4 C32.5,13.4 37.3,6.4 37.3,-0.1 C37.3,-6.6 32.5,-13.6 18.7,-13.6 M10.4,-4.5 C10.3,-4.9 10.3,-5.3 10.3,-5.7 C10.3,-6.5 10.5,-7.3 10.9,-8 C11.6,-9 12.8,-9.7 14.3,-10 C15.6,-10.3 16.3,-10.5 18.9,-10.5 L19,-10.5 C23,-10.5 24.3,-6.8 25.4,-3 L25.7,-2 C26.5,0.6 26.9,2.8 26.9,4.5 C26.9,5.7 26.7,6.8 26.3,7.6 C25.7,8.7 24.7,9.4 23,9.8 C22.1,10 20.6,10.1 20.6,10.1 C20.1,10.1 19.7,10.2 19.3,10.2 C16.1,10.2 14.1,9 12.7,4.7 C11.5,1 11.3,-0.1 10.4,-4.5"/>
<path class="Note" transform="matrix(2.3811,0,0,2.3811,1751.27,2052.37)" d="M18.7,-13.6 C4.9,-13.6 0,-6.6 0,-0.1 C0,6.4 4.9,13.4 18.7,13.4 C32.5,13.4 37.3,6.4 37.3,-0.1 C37.3,-6.6 32.5,-13.6 18.7,-13.6 M10.4,-4.5 C10.3,-4.9 10.3,-5.3 10.3,-5.7 C10.3,-6.5 10.5,-7.3 10.9,-8 C11.6,-9 12.8,-9.7 14.3,-10 C15.6,-10.3 16.3,-10.5 18.9,-10.5 L19,-10.5 C23,-10.5 24.3,-6.8 25.4,-3 L25.7,-2 C26.5,0.6 26.9,2.8 26.9,4.5 C26.9,5.7 26.7,6.8 26.3,7.6 C25.7,8.7 24.7,9.4 23,9.8 C22.1,10 20.6,10.1 20.6,10.1 C20.1,10.1 19.7,10.2 19.3,10.2 C16.1,10.2 14.1,9 12.7,4.7 C11.5,1 11.3,-0.1 10.4,-4.5"/>
<path class="Note" transform="matrix(2.3811,0,0,2.3811,2337.67,2022.61)" d="M18.7,-13.6 C4.9,-13.6 0,-6.6 0,-0.1 C0,6.4 4.9,13.4 18.7,13.4 C32.5,13.4 37.3,6.4 37.3,-0.1 C37.3,-6.6 32.5,-13.6 18.7,-13.6 M10.4,-4.5 C10.3,-4.9 10.3,-5.3 10.3,-5.7 C10.3,-6.5 10.5,-7.3 10.9,-8 C11.6,-9 12.8,-9.7 14.3,-10 C15.6,-10.3 16.3,-10.5 18.9,-10.5 L19,-10.5 C23,-10.5 24.3,-6.8 25.4,-3 L25.7,-2 C26.5,0.6 26.9,2.8 26.9,4.5 C26.9,5.7 26.7,6.8 26.3,7.6 C25.7,8.7 24.7,9.4 23,9.8 C22.1,10 20.6,10.1 20.6,10.1 C20.1,10.1 19.7,10.2 19.3,10.2 C16.1,10.2 14.1,9 12.7,4.7 C11.5,1 11.3,-0.1 10.4,-4.5"/>
<path class="Note" transform="matrix(2.3811,0,0,2.3811,3040.84,2141.66)" d="M18.7,-13.6 C4.9,-13.6 0,-6.6 0,-0.1 C0,6.4 4.9,13.4 18.7,13.4 C32.5,13.4 37.3,6.4 37.3,-0.1 C37.3,-6.6 32.5,-13.6 18.7,-13.6 M10.4,-4.5 C10.3,-4.9 10.3,-5.3 10.3,-5.7 C10.3,-6.5 10.5,-7.3 10.9,-8 C11.6,-9 12.8,-9.7 14.3,-10 C15.6,-10.3 16.3,-10.5 18.9,-10.5 L19,-10.5 C23,-10.5 24.3,-6.8 25.4,-3 L25.7,-2 C26.5,0.6 26.9,2.8 26.9,4.5 C26.9,5.7 26.7,6.8 26.3,7.6 C25.7,8.7 24.7,9.4 23,9.8 C22.1,10 20.6,10.1 20.6,10.1 C20.1,10.1 19.7,10.2 19.3,10.2 C16.1,10.2 14.1,9 12.7,4.7 C11.5,1 11.3,-0.1 10.4,-4.5"/>
<path class="Note" transform="matrix(2.3811,0,0,2.3811,3615.35,2052.37)" d="M18.7,-13.6 C4.9,-13.6 0,-6.6 0,-0.1 C0,6.4 4.9,13.4 18.7,13.4 C32.5,13.4 37.3,6.4 37.3,-0.1 C37.3,-6.6 32.5,-13.6 18.7,-13.6 M10.4,-4.5 C10.3,-4.9 10.3,-5.3 10.3,-5.7 C10.3,-6.5 10.5,-7.3 10.9,-8 C11.6,-9 12.8,-9.7 14.3,-10 C15.6,-10.3 16.3,-10.5 18.9,-10.5 L19,-10.5 C23,-10.5 24.3,-6.8 25.4,-3 L25.7,-2 C26.5,0.6 26.9,2.8 26.9,4.5 C26.9,5.7 26.7,6.8 26.3,7.6 C25.7,8.7 24.7,9.4 23,9.8 C22.1,10 20.6,10.1 20.6,10.1 C20.1,10.1 19.7,10.2 19.3,10.2 C16.1,10.2 14.1,9 12.7,4.7 C11.5,1 11.3,-0.1 10.4,-4.5"/>
<path class="Note" transform="matrix(2.3811,0,0,2.3811,519.076,1540.63)" d="M18.7,-13.6 C4.9,-13.6 0,-6.6 0,-0.1 C0,6.4 4.9,13.4 18.7,13.4 C32.5,13.4 37.3,6.4 37.3,-0.1 C37.3,-6.6 32.5,-13.6 18.7,-13.6 M10.4,-4.5 C10.3,-4.9 10.3,-5.3 10.3,-5.7 C10.3,-6.5 10.5,-7.3 10.9,-8 C11.6,-9 12.8,-9.7 14.3,-10 C15.6,-10.3 16.3,-10.5 18.9,-10.5 L19,-10.5 C23,-10.5 24.3,-6.8 25.4,-3 L25.7,-2 C26.5,0.6 26.9,2.8 26.9,4.5 C26.9,5.7 26.7,6.8 26.3,7.6 C25.7,8.7 24.7,9.4 23,9.8 C22.1,10 20.6,10.1 20.6,10.1 C20.1,10.1 19.7,10.2 19.3,10.2 C16.1,10.2 14.1,9 12.7,4.7 C11.5,1 11.3,-0.1 10.4,-4.5"/>
<path class="Note" transform="matrix(2.3811,0,0,2.3811,519.076,1451.34)" d="M18.7,-13.6 C4.9,-13.6 0,-6.6 0,-0.1 C0,6.4 4.9,13.4 18.7,13.4 C32.5,13.4 37.3,6.4 37.3,-0.1 C37.3,-6.6 32.5,-13.6 18.7,-13.6 M10.4,-4.5 C10.3,-4.9 10.3,-5.3 10.3,-5.7 C10.3,-6.5 10.5,-7.3 10.9,-8 C11.6,-9 12.8,-9.7 14.3,-10 C15.6,-10.3 16.3,-10.5 18.9,-10.5 L19,-10.5 C23,-10.5 24.3,-6.8 25.4,-3 L25.7,-2 C26.5,0.6 26.9,2.8 26.9,4.5 C26.9,5.7 26.7,6.8 26.3,7.6 C25.7,8.7 24.7,9.4 23,9.8 C22.1,10 20.6,10.1 20.6,10.1 C20.1,10.1 19.7,10.2 19.3,10.2 C16.1,10.2 14.1,9 12.7,4.7 C11.5,1 11.3,-0.1 10.4,-4.5"/>
<path class="Note" transform="matrix(2.3811,0,0,2.3811,1197.62,1570.39)" d="M18.7,-13.6 C4.9,-13.6 0,-6.6 0,-0.1 C0,6.4 4.9,13.4 18.7,13.4 C32.5,13.4 37.3,6.4 37.3,-0.1 C37.3,-6.6 32.5,-13.6 18.7,-13.6 M10.4,-4.5 C10.3,-4.9 10.3,-5.3 10.3,-5.7 C10.3,-6.5 10.5,-7.3 10.9,-8 C11.6,-9 12.8,-9.7 14.3,-10 C15.6,-10.3 16.3,-10.5 18.9,-10.5 L19,-10.5 C23,-10.5 24.3,-6.8 25.4,-3 L25.7,-2 C26.5,0.6 26.9,2.8 26.9,4.5 C26.9,5.7 26.7,6.8 26.3,7.6 C25.7,8.7 24.7,9.4 23,9.8 C22.1,10 20.6,10.1 20.6,10.1 C20.1,10.1 19.7,10.2 19.3,10.2 C16.1,10.2 14.1,9 12.7,4.7 C11.5,1 11.3,-0.1 10.4,-4.5"/>
<path class="Note" transform="matrix(2.3811,0,0,2.3811,1115.36,1451.34)" d="M18.7,-13.6 C4.9,-13.6 0,-6.6 0,-0.1 C0,6.4 4.9,13.4 18.7,13.4 C32.5,13.4 37.3,6.4 37.3,-0.1 C37.3,-6.6 32.5,-13.6 18.7,-13.6 M10.4,-4.5 C10.3,-4.9 10.3,-5.3 10.3,-5.7 C10.3,-6.5 10.5,-7.3 10.9,-8 C11.6,-9 12.8,-9.7 14.3,-10 C15.6,-10.3 16.3,-10.5 18.9,-10.5 L19,-10.5 C23,-10.5 24.3,-6.8 25.4,-3 L25.7,-2 C26.5,0.6 26.9,2.8 26.9,4.5 C26.9,5.7 26.7,6.8 26.3,7.6 C25.7,8.7 24.7,9.4 23,9.8 C22.1,10 20.6,10.1 20.6,10.1 C20.1,10.1 19.7,10.2 19.3,10.2 C16.1,10.2 14.1,9 12.7,4.7 C11.5,1 11.3,-0.1 10.4,-4.5"/>
<path class="Note" transform="matrix(2.3811,0,0,2.3811,1197.62,1421.57)" d="M18.7,-13.6 C4.9,-13.6 0,-6.6 0,-0.1 C0,6.4 4.9,13.4 18.7,13.4 C32.5,13.4 37.3,6.4 37.3,-0.1 C37.3,-6.6 32.5,-13.6 18.7,-13.6 M10.4,-4.5 C10.3,-4.9 10.3,-5.3 10.3,-5.7 C10.3,-6.5 10.5,-7.3 10.9,-8 C11.6,-9 12.8,-9.7 14.3,-10 C15.6,-10.3 16.3,-10.5 18.9,-10.5 L19,-10.5 C23,-10.5 24.3,-6.8 25.4,-3 L25.7,-2 C26.5,0.6 26.9,2.8 26.9,4.5 C26.9,5.7 26.7,6.8 26.3,7.6 C25.7,8.7 24.7,9.4 23,9.8 C22.1,10 20.6,10.1 20.6,10.1 C20.1,10.1 19.7,10.2 19.3,10.2 C16.1,10.2 14.1,9 12.7,4.7 C11.5,1 11.3,-0.1 10.4,-4.5"/>
<path class="Note" transform="matrix(2.3811,0,0,2.3811,1751.27,1540.63)" d="M18.7,-13.6 C4.9,-13.6 0,-6.6 0,-0.1 C0,6.4 4.9,13.4 18.7,13.4 C32.5,13.4 37.3,6.4 37.3,-0.1 C37.3,-6.6 32.5,-13.6 18.7,-13.6 M10.4,-4.5 C10.3,-4.9 10.3,-5.3 10.3,-5.7 C10.3,-6.5 10.5,-7.3 10.9,-8 C11.6,-9 12.8,-9.7 14.3,-10 C15.6,-10.3 16.3,-10.5 18.9,-10.5 L19,-10.5 C23,-10.5 24.3,-6.8 25.4,-3 L25.7,-2 C26.5,0.6 26.9,2.8 26.9,4.5 C26.9,5.7 26.7,6.8 26.3,7.6 C25.7,8.7 24.7,9.4 23,9.8 C22.1,10 20.6,10.1 20.6,10.1 C20.1,10.1 19.7,10.2 19.3,10.2 C16.1,10.2 14.1,9 12.7,4.7 C11.5,1 11.3,-0.1 10.4,-4.5"/>
<path class="Note" transform="matrix(2.3811,0,0,2.3811,1751.27,1481.1)" d="M18.7,-13.6 C4.9,-13.6 0,-6.6 0,-0.1 C0,6.4 4.9,13.4 18.7,13.4 C32.5,13.4 37.3,6.4 37.3,-0.1 C37.3,-6.6 32.5,-13.6 18.7,-13.6 M10.4,-4.5 C10.3,-4.9 10.3,-5.3 10.3,-5.7 C10.3,-6.5 10.5,-7.3 10.9,-8 C11.6,-9 12.8,-9.7 14.3,-10 C15.6,-10.3 16.3,-10.5 18.9,-10.5 L19,-10.5 C23,-10.5 24.3,-6.8 25.4,-3 L25.7,-2 C26.5,0.6 26.9,2.8 26.9,4.5 C26.9,5.7 26.7,6.8 26.3,7.6 C25.7,8.7 24.7,9.4 23,9.8 C22.1,10 20.6,10.1 20.6,10.1 C20.1,10.1 19.7,10.2 19.3,10.2 C16.1,10.2 14.1,9 12.7,4.7 C11.5,1 11.3,-0.1 10.4,-4.5"/>
<path class="Note" transform="matrix(2.3811,0,0,2.3811,1751.27,1421.57)" d="M18.7,-13.6 C4.9,-13.6 0,-6.6 0,-0.1 C0,6.4 4.9,13.4 18.7,13.4 C32.5,13.4 37.3,6.4 37.3,-0.1 C37.3,-6.6 32.5,-13.6 18.7,-13.6 M10.4,-4.5 C10.3,-4.9 10.3,-5.3 10.3,-5.7 C10.3,-6.5 10.5,-7.3 10.9,-8 C11.6,-9 12.8,-9.7 14.3,-10 C15.6,-10.3 16.3,-10.5 18.9,-10.5 L19,-10.5 C23,-10.5 24.3,-6.8 25.4,-3 L25.7,-2 C26.5,0.6 26.9,2.8 26.9,4.5 C26.9,5.7 26.7,6.8 26.3,7.6 C25.7,8.7 24.7,9.4 23,9.8 C22.1,10 20.6,10.1 20.6,10.1 C20.1,10.1 19.7,10.2 19.3,10.2 C16.1,10.2 14.1,9 12.7,4.7 C11.5,1 11.3,-0.1 10.4,-4.5"/>
<path class="Note" transform="matrix(2.3811,0,0,2.3811,2337.67,1540.63)" d="M18.7,-13.6 C4.9,-13.6 0,-6.6 0,-0.1 C0,6.4 4.9,13.4 18.7,13.4 C32.5,13.4 37.3,6.4 37.3,-0.1 C37.3,-6.6 32.5,-13.6 18.7,-13.6 M10.4,-4.5 C10.3,-4.9 10.3,-5.3 10.3,-5.7 C10.3,-6.5 10.5,-7.3 10.9,-8 C11.6,-9 12.8,-9.7 14.3,-10 C15.6,-10.3 16.3,-10.5 18.9,-10.5 L19,-10.5 C23,-10.5 24.3,-6.8 25.4,-3 L25.7,-2 C26.5,0.6 26.9,2.8 26.9,4.5 C26.9,5.7 26.7,6.8 26.3,7.6 C25.7,8.7 24.7,9.4 23,9.8 C22.1,10 20.6,10.1 20.6,10.1 C20.1,10.1 19.7,10.2 19.3,10.2 C16.1,10.2 14.1,9 12.7,4.7 C11.5,1 11.3,-0.1 10.4,-4.5"/>
<path class="Note" transform="matrix(2.3811,0,0,2.3811,2337.67,1451.34)" d="M18.7,-13.6 C4.9,-13.6 0,-6.6 0,-0.1 C0,6.4 4.9,13.4 18.7,13.4 C32.5,13.4 37.3,6.4 37.3,-0.1 C37.3,-6.6 32.5,-13.6 18.7,-13.6 M10.4,-4.5 C10.3,-4.9 10.3,-5.3 10.3,-5.7 C10.3,-6.5 10.5,-7.3 10.9,-8 C11.6,-9 12.8,-9.7 14.3,-10 C15.6,-10.3 16.3,-10.5 18.9,-10.5 L19,-10.5 C23,-10.5 24.3,-6.8 25.4,-3 L25.7,-2 C26.5,0.6 26.9,2.8 26.9,4.5 C26.9,5.7 26.7,6.8 26.3,7.6 C25.7,8.7 24.7,9.4 23,9.8 C22.1,10 20.6,10.1 20.6,10.1 C20.1,10.1 19.7,10.2 19.3,10.2 C16.1,10.2 14.1,9 12.7,4.7 C11.5,1 11.3,-0.1 10.4,-4.5"/>
<path class="Note" transform="matrix(2.3811,0,0,2.3811,3040.84,1570.39)" d="M18.7,-13.6 C4.9,-13.6 0,-6.6 0,-0.1 C0,6.4 4.9,13.4 18.7,13.4 C32.5,13.4 37.3,6.4 37.3,-0.1 C37.3,-6.6 32.5,-13.6 18.7,-13.6 M10.4,-4.5 C10.3,-4.9 10.3,-5.3 10.3,-5.7 C10.3,-6.5 10.5,-7.3 10.9,-8 C11.6,-9 12.8,-9.7 14.3,-10 C15.6,-10.3 16.3,-10.5 18.9,-10.5 L19,-10.5 C23,-10.5 24.3,-6.8 25.4,-3 L25.7,-2 C26.5,0.6 26.9,2.8 26.9,4.5 C26.9,5.7 26.7,6.8 26.3,7.6 C25.7,8.7 24.7,9.4 23,9.8 C22.1,10 20.6,10.1 20.6,10.1 C20.1,10.1 19.7,10.2 19.3,10.2 C16.1,10.2 14.1,9 12.7,4.7 C11.5,1 11.3,-0.1 10.4,-4.5"/>
<path class="Note" transform="matrix(2.3811,0,0,2.3811,2958.58,1451.34)" d="M18.7,-13.6 C4.9,-13.6 0,-6.6 0,-0.1 C0,6.4 4.9,13.4 18.7,13.4 C32.5,13.4 37.3,6.4 37.3,-0.1 C37.3,-6.6 32.5,-13.6 18.7,-13.6 M10.4,-4.5 C10.3,-4.9 10.3,-5.3 10.3,-5.7 C10.3,-6.5 10.5,-7.3 10.9,-8 C11.6,-9 12.8,-9.7 14.3,-10 C15.6,-10.3 16.3,-10.5 18.9,-10.5 L19,-10.5 C23,-10.5 24.3,-6.8 25.4,-3 L25.7,-2 C26.5,0.6 26.9,2.8 26.9,4.5 C26.9,5.7 26.7,6.8 26.3,7.6 C25.7,8.7 24.7,9.4 23,9.8 C22.1,10 20.6,10.1 20.6,10.1 C20.1,10.1 19.7,10.2 19.3,10.2 C16.1,10.2 14.1,9 12.7,4.7 C11.5,1 11.3,-0.1 10.4,-4.5"/>
<path class="Note" transform="matrix(2.3811,0,0,2.3811,3040.84,1421.57)" d="M18.7,-13.6 C4.9,-13.6 0,-6.6 0,-0.1 C0,6.4 4.9,13.4 18.7,13.4 C32.5,13.4 37.3,6.4 37.3,-0.1 C37.3,-6.6 32.5,-13.6 18.7,-13.6 M10.4,-4.5 C10.3,-4.9 10.3,-5.3 10.3,-5.7 C10.3,-6.5 10.5,-7.3 10.9,-8 C11.6,-9 12.8,-9.7 14.3,-10 C15.6,-10.3 16.3,-10.5 18.9,-10.5 L19,-10.5 C23,-10.5 24.3,-6.8 25.4,-3 L25.7,-2 C26.5,0.6 26.9,2.8 26.9,4.5 C26.9,5.7 26.7,6.8 26.3,7.6 C25.7,8.7 24.7,9.4 23,9.8 C22.1,10 20.6,10.1 20.6,10.1 C20.1,10.1 19.7,10.2 19.3,10.2 C16.1,10.2 14.1,9 12.7,4.7 C11.5,1 11.3,-0.1 10.4,-4.5"/>
<path class="Note" transform="matrix(2.3811,0,0,2.3811,3615.35,1540.63)" d="M18.7,-13.6 C4.9,-13.6 0,-6.6 0,-0.1 C0,6.4 4.9,13.4 18.7,13.4 C32.5,13.4 37.3,6.4 37.3,-0.1 C37.3,-6.6 32.5,-13.6 18.7,-13.6 M10.4,-4.5 C10.3,-4.9 10.3,-5.3 10.3,-5.7 C10.3,-6.5 10.5,-7.3 10.9,-8 C11.6,-9 12.8,-9.7 14.3,-10 C15.6,-10.3 16.3,-10.5 18.9,-10.5 L19,-10.5 C23,-10.5 24.3,-6.8 25.4,-3 L25.7,-2 C26.5,0.6 26.9,2.8 26.9,4.5 C26.9,5.7 26.7,6.8 26.3,7.6 C25.7,8.7 24.7,9.4 23,9.8 C22.1,10 20.6,10.1 20.6,10.1 C20.1,10.1 19.7,10.2 19.3,10.2 C16.1,10.2 14.1,9 12.7,4.7 C11.5,1 11.3,-0.1 10.4,-4.5"/>
<path class="Note" transform="matrix(2.3811,0,0,2.3811,3615.35,1481.1)" d="M18.7,-13.6 C4.9,-13.6 0,-6.6 0,-0.1 C0,6.4 4.9,13.4 18.7,13.4 C32.5,13.4 37.3,6.4 37.3,-0.1 C37.3,-6.6 32.5,-13.6 18.7,-13.6 M10.4,-4.5 C10.3,-4.9 10.3,-5.3 10.3,-5.7 C10.3,-6.5 10.5,-7.3 10.9,-8 C11.6,-9 12.8,-9.7 14.3,-10 C15.6,-10.3 16.3,-10.5 18.9,-10.5 L19,-10.5 C23,-10.5 24.3,-6.8 25.4,-3 L25.7,-2 C26.5,0.6 26.9,2.8 26.9,4.5 C26.9,5.7 26.7,6.8 26.3,7.6 C25.7,8.7 24.7,9.4 23,9.8 C22.1,10 20.6,10.1 20.6,10.1 C20.1,10.1 19.7,10.2 19.3,10.2 C16.1,10.2 14.1,9 12.7,4.7 C11.5,1 11.3,-0.1 10.4,-4.5"/>
<path class="Note" transform="matrix(2.3811,0,0,2.3811,3615.35,1421.57)" d="M18.7,-13.6 C4.9,-13.6 0,-6.6 0,-0.1 C0,6.4 4.9,13.4 18.7,13.4 C32.5,13.4 37.3,6.4 37.3,-0.1 C37.3,-6.6 32.5,-13.6 18.7,-13.6 M10.4,-4.5 C10.3,-4.9 10.3,-5.3 10.3,-5.7 C10.3,-6.5 10.5,-7.3 10.9,-8 C11.6,-9 12.8,-9.7 14.3,-10 C15.6,-10.3 16.3,-10.5 18.9,-10.5 L19,-10.5 C23,-10.5 24.3,-6.8 25.4,-3 L25.7,-2 C26.5,0.6 26.9,2.8 26.9,4.5 C26.9,5.7 26.7,6.8 26.3,7.6 C25.7,8.7 24.7,9.4 23,9.8 C22.1,10 20.6,10.1 20.6,10.1 C20.1,10.1 19.7,10.2 19.3,10.2 C16.1,10.2 14.1,9 12.7,4.7 C11.5,1 11.3,-0.1 10.4,-4.5"/>
<path class="Note" d="M612.77,561.187 C617.109,558.243 620.247,555.803 622.183,553.866 C625.747,550.07 627.529,546.583 627.529,543.407 C627.529,539.766 625.515,537.945 621.486,537.945 C613.661,537.945 605.294,544.84 596.385,558.631 C593.673,562.814 587.708,576.45 578.488,599.537 C585.848,607.129 589.528,611.429 589.528,612.436 C589.528,613.831 588.637,614.528 586.855,614.528 C585.461,614.528 581.626,612.165 575.35,607.439 C568.533,623.321 558.19,636.879 544.322,648.113 C530.144,659.579 513.216,665.312 493.538,665.312 C486.023,665.312 476.61,663.569 465.299,660.083 C456.234,657.294 451.702,652.839 451.702,646.719 C451.702,637.654 455.188,633.122 462.161,633.122 C466.345,633.122 468.436,635.059 468.436,638.932 C468.436,640.172 467.468,641.489 465.531,642.884 C464.524,643.581 464.02,644.937 464.02,646.951 C464.02,649.353 466.693,651.832 472.039,654.388 C477.85,657.178 486.372,658.572 497.605,658.572 C512.093,658.572 526.077,652.297 539.558,639.746 C551.798,628.357 560.592,615.109 565.937,600.002 C563.846,598.297 561.599,596.438 559.197,594.424 C551.76,590.008 548.041,585.475 548.041,580.827 C548.041,578.89 549.319,577.922 551.876,577.922 C555.285,577.922 559.894,580.827 565.705,586.638 C566.945,587.877 568.107,589.039 569.191,590.124 C571.903,582.686 576.241,573.235 582.207,561.768 C592.976,541.005 606.069,530.624 621.486,530.624 C626.987,530.624 631.325,531.67 634.502,533.762 C637.678,535.853 639.267,538.72 639.267,542.361 C639.267,548.172 637.136,553.091 632.875,557.12 C628.459,561.304 623.849,563.395 619.046,563.395 C614.862,563.395 612.77,562.659 612.77,561.187"/>
<path class="Note" d="M633.688,794.854 C627.336,804.848 617.303,813.138 603.59,819.723 C591.659,825.456 580.503,828.323 570.121,828.323 C561.831,828.323 554.936,826.657 549.435,823.326 C543.47,819.684 540.487,815.346 540.487,810.31 C540.487,798.921 543.47,789.121 549.435,780.909 C557.57,769.752 565.782,764.174 574.072,764.174 C579.96,764.174 584.144,765.336 586.623,767.661 C590.032,770.682 591.736,774.827 591.736,780.095 C591.736,787.533 586.197,794.002 575.118,799.502 C564.349,804.848 556.873,808.334 552.689,809.961 C553.619,811.898 554.82,813.641 556.292,815.191 C559.933,819.065 564.892,821.001 571.167,821.001 C579.069,821.001 589.683,818.096 603.009,812.286 C615.792,806.63 626.018,800.819 633.688,794.854 M551.062,804.616 C556.873,801.672 562.18,798.224 566.983,794.273 C574.111,788.462 577.675,782.187 577.675,775.447 C577.675,771.651 575.932,769.752 572.445,769.752 C569.501,769.752 565.473,773.123 560.359,779.863 C553.929,788.23 550.714,795.048 550.714,800.316 C550.714,801.788 550.83,803.221 551.062,804.616"/>
<path class="Note" d="M612.77,471.896 C617.109,468.952 620.247,466.512 622.183,464.575 C625.747,460.778 627.529,457.292 627.529,454.116 C627.529,450.474 625.515,448.654 621.486,448.654 C613.661,448.654 605.294,455.549 596.385,469.339 C593.673,473.523 587.708,487.158 578.488,510.246 C585.848,517.838 589.528,522.138 589.528,523.145 C589.528,524.54 588.637,525.237 586.855,525.237 C585.461,525.237 581.626,522.874 575.35,518.148 C568.533,534.03 558.19,547.588 544.322,558.822 C530.144,570.288 513.216,576.021 493.538,576.021 C486.023,576.021 476.61,574.278 465.299,570.791 C456.234,568.002 451.702,563.548 451.702,557.427 C451.702,548.363 455.188,543.831 462.161,543.831 C466.345,543.831 468.436,545.767 468.436,549.641 C468.436,550.881 467.468,552.198 465.531,553.592 C464.524,554.29 464.02,555.645 464.02,557.66 C464.02,560.061 466.693,562.541 472.039,565.097 C477.85,567.886 486.372,569.281 497.605,569.281 C512.093,569.281 526.077,563.005 539.558,550.455 C551.798,539.066 560.592,525.818 565.937,510.71 C563.846,509.006 561.599,507.147 559.197,505.132 C551.76,500.716 548.041,496.184 548.041,491.536 C548.041,489.599 549.319,488.63 551.876,488.63 C555.285,488.63 559.894,491.536 565.705,497.346 C566.945,498.586 568.107,499.748 569.191,500.832 C571.903,493.395 576.241,483.943 582.207,472.477 C592.976,451.714 606.069,441.332 621.486,441.332 C626.987,441.332 631.325,442.378 634.502,444.47 C637.678,446.562 639.267,449.429 639.267,453.07 C639.267,458.88 637.136,463.8 632.875,467.829 C628.459,472.012 623.849,474.104 619.046,474.104 C614.862,474.104 612.77,473.368 612.77,471.896"/>
<path class="Note" d="M1312.23,616.271 C1305.88,626.265 1295.85,634.555 1282.13,641.14 C1270.2,646.874 1259.04,649.74 1248.66,649.74 C1240.37,649.74 1233.48,648.074 1227.98,644.743 C1222.01,641.102 1219.03,636.763 1219.03,631.727 C1219.03,620.339 1222.01,610.538 1227.98,602.326 C1236.11,591.17 1244.32,585.592 1252.61,585.592 C1258.5,585.592 1262.69,586.754 1265.17,589.078 C1268.57,592.099 1270.28,596.244 1270.28,601.513 C1270.28,608.95 1264.74,615.419 1253.66,620.92 C1242.89,626.265 1235.42,629.752 1231.23,631.379 C1232.16,633.316 1233.36,635.059 1234.83,636.608 C1238.48,640.482 1243.43,642.419 1249.71,642.419 C1257.61,642.419 1268.23,639.513 1281.55,633.703 C1294.33,628.047 1304.56,622.237 1312.23,616.271 M1229.6,626.033 C1235.42,623.089 1240.72,619.641 1245.53,615.69 C1252.65,609.88 1256.22,603.604 1256.22,596.864 C1256.22,593.068 1254.47,591.17 1250.99,591.17 C1248.04,591.17 1244.02,594.54 1238.9,601.28 C1232.47,609.647 1229.26,616.465 1229.26,621.733 C1229.26,623.205 1229.37,624.638 1229.6,626.033"/>
<path class="Note" d="M1312.23,794.854 C1305.88,804.848 1295.85,813.138 1282.13,819.723 C1270.2,825.456 1259.04,828.323 1248.66,828.323 C1240.37,828.323 1233.48,826.657 1227.98,823.326 C1222.01,819.684 1219.03,815.346 1219.03,810.31 C1219.03,798.921 1222.01,789.121 1227.98,780.909 C1236.11,769.752 1244.32,764.174 1252.61,764.174 C1258.5,764.174 1262.69,765.336 1265.17,767.661 C1268.57,770.682 1270.28,774.827 1270.28,780.095 C1270.28,787.533 1264.74,794.002 1253.66,799.502 C1242.89,804.848 1235.42,808.334 1231.23,809.961 C1232.16,811.898 1233.36,813.641 1234.83,815.191 C1238.48,819.065 1243.43,821.001 1249.71,821.001 C1257.61,821.001 1268.23,818.096 1281.55,812.286 C1294.33,806.63 1304.56,800.819 1312.23,794.854 M1229.6,804.616 C1235.42,801.672 1240.72,798.224 1245.53,794.273 C1252.65,788.462 1256.22,782.187 1256.22,775.447 C1256.22,771.651 1254.47,769.752 1250.99,769.752 C1248.04,769.752 1244.02,773.123 1238.9,779.863 C1232.47,788.23 1229.26,795.048 1229.26,800.316 C1229.26,801.788 1229.37,803.221 1229.6,804.616"/>
<path class="Note" d="M1291.31,471.896 C1295.65,468.952 1298.79,466.512 1300.73,464.575 C1304.29,460.778 1306.07,457.292 1306.07,454.116 C1306.07,450.474 1304.06,448.654 1300.03,448.654 C1292.2,448.654 1283.84,455.549 1274.93,469.339 C1272.22,473.523 1266.25,487.158 1257.03,510.246 C1264.39,517.838 1268.07,522.138 1268.07,523.145 C1268.07,524.54 1267.18,525.237 1265.4,525.237 C1264,525.237 1260.17,522.874 1253.89,518.148 C1247.08,534.03 1236.73,547.588 1222.86,558.822 C1208.69,570.288 1191.76,576.021 1172.08,576.021 C1164.57,576.021 1155.15,574.278 1143.84,570.791 C1134.78,568.002 1130.24,563.548 1130.24,557.427 C1130.24,548.363 1133.73,543.831 1140.7,543.831 C1144.89,543.831 1146.98,545.767 1146.98,549.641 C1146.98,550.881 1146.01,552.198 1144.07,553.592 C1143.07,554.29 1142.56,555.645 1142.56,557.66 C1142.56,560.061 1145.24,562.541 1150.58,565.097 C1156.39,567.886 1164.91,569.281 1176.15,569.281 C1190.64,569.281 1204.62,563.005 1218.1,550.455 C1230.34,539.066 1239.13,525.818 1244.48,510.71 C1242.39,509.006 1240.14,507.147 1237.74,505.132 C1230.3,500.716 1226.58,496.184 1226.58,491.536 C1226.58,489.599 1227.86,488.63 1230.42,488.63 C1233.83,488.63 1238.44,491.536 1244.25,497.346 C1245.49,498.586 1246.65,499.748 1247.73,500.832 C1250.45,493.395 1254.78,483.943 1260.75,472.477 C1271.52,451.714 1284.61,441.332 1300.03,441.332 C1305.53,441.332 1309.87,442.378 1313.04,444.47 C1316.22,446.562 1317.81,449.429 1317.81,453.07 C1317.81,458.88 1315.68,463.8 1311.42,467.829 C1307,472.012 1302.39,474.104 1297.59,474.104 C1293.4,474.104 1291.31,473.368 1291.31,471.896"/>
<path class="Note" d="M1291.31,650.479 C1295.65,647.535 1298.79,645.094 1300.73,643.157 C1304.29,639.361 1306.07,635.875 1306.07,632.698 C1306.07,629.057 1304.06,627.236 1300.03,627.236 C1292.2,627.236 1283.84,634.132 1274.93,647.922 C1272.22,652.106 1266.25,665.741 1257.03,688.828 C1264.39,696.421 1268.07,700.721 1268.07,701.728 C1268.07,703.122 1267.18,703.819 1265.4,703.819 C1264,703.819 1260.17,701.457 1253.89,696.731 C1247.08,712.613 1236.73,726.171 1222.86,737.404 C1208.69,748.871 1191.76,754.604 1172.08,754.604 C1164.57,754.604 1155.15,752.86 1143.84,749.374 C1134.78,746.585 1130.24,742.13 1130.24,736.01 C1130.24,726.945 1133.73,722.413 1140.7,722.413 C1144.89,722.413 1146.98,724.35 1146.98,728.224 C1146.98,729.463 1146.01,730.78 1144.07,732.175 C1143.07,732.872 1142.56,734.228 1142.56,736.242 C1142.56,738.644 1145.24,741.123 1150.58,743.68 C1156.39,746.469 1164.91,747.863 1176.15,747.863 C1190.64,747.863 1204.62,741.588 1218.1,729.037 C1230.34,717.649 1239.13,704.401 1244.48,689.293 C1242.39,687.589 1240.14,685.729 1237.74,683.715 C1230.3,679.299 1226.58,674.767 1226.58,670.118 C1226.58,668.181 1227.86,667.213 1230.42,667.213 C1233.83,667.213 1238.44,670.118 1244.25,675.929 C1245.49,677.168 1246.65,678.331 1247.73,679.415 C1250.45,671.978 1254.78,662.526 1260.75,651.06 C1271.52,630.297 1284.61,619.915 1300.03,619.915 C1305.53,619.915 1309.87,620.961 1313.04,623.053 C1316.22,625.145 1317.81,628.011 1317.81,631.652 C1317.81,637.463 1315.68,642.383 1311.42,646.411 C1307,650.595 1302.39,652.687 1297.59,652.687 C1293.4,652.687 1291.31,651.951 1291.31,650.479"/>
<path class="Note" d="M1844.97,561.187 C1849.31,558.243 1852.44,555.803 1854.38,553.866 C1857.95,550.07 1859.73,546.583 1859.73,543.407 C1859.73,539.766 1857.71,537.945 1853.68,537.945 C1845.86,537.945 1837.49,544.84 1828.58,558.631 C1825.87,562.814 1819.91,576.45 1810.69,599.537 C1818.05,607.129 1821.73,611.429 1821.73,612.436 C1821.73,613.831 1820.84,614.528 1819.05,614.528 C1817.66,614.528 1813.82,612.165 1807.55,607.439 C1800.73,623.321 1790.39,636.879 1776.52,648.113 C1762.34,659.579 1745.41,665.312 1725.74,665.312 C1718.22,665.312 1708.81,663.569 1697.5,660.083 C1688.43,657.294 1683.9,652.839 1683.9,646.719 C1683.9,637.654 1687.39,633.122 1694.36,633.122 C1698.54,633.122 1700.63,635.059 1700.63,638.932 C1700.63,640.172 1699.67,641.489 1697.73,642.884 C1696.72,643.581 1696.22,644.937 1696.22,646.951 C1696.22,649.353 1698.89,651.832 1704.24,654.388 C1710.05,657.178 1718.57,658.572 1729.8,658.572 C1744.29,658.572 1758.27,652.297 1771.76,639.746 C1784,628.357 1792.79,615.109 1798.14,600.002 C1796.04,598.297 1793.8,596.438 1791.4,594.424 C1783.96,590.008 1780.24,585.475 1780.24,580.827 C1780.24,578.89 1781.52,577.922 1784.07,577.922 C1787.48,577.922 1792.09,580.827 1797.9,586.638 C1799.14,587.877 1800.3,589.039 1801.39,590.124 C1804.1,582.686 1808.44,573.235 1814.4,561.768 C1825.17,541.005 1838.27,530.624 1853.68,530.624 C1859.18,530.624 1863.52,531.67 1866.7,533.762 C1869.88,535.853 1871.46,538.72 1871.46,542.361 C1871.46,548.172 1869.33,553.091 1865.07,557.12 C1860.66,561.304 1856.05,563.395 1851.24,563.395 C1847.06,563.395 1844.97,562.659 1844.97,561.187"/>
<path class="Note" d="M1772.34,910.409 C1768.15,910.409 1766.06,908.511 1766.06,904.715 C1766.06,898.284 1767.03,893.558 1768.97,890.537 C1777.02,878.606 1794.53,856.293 1821.49,823.599 C1833.66,808.802 1849.35,801.403 1868.56,801.403 C1876,801.403 1881.15,802.449 1884.02,804.541 C1888.43,807.795 1890.64,811.707 1890.64,816.278 C1890.64,821.082 1886.77,826.427 1879.02,832.315 C1871.66,837.893 1864.69,840.682 1858.1,840.682 C1855.54,840.682 1854.27,840.411 1854.27,839.869 C1854.27,839.094 1855.5,838.281 1857.98,837.429 C1861.32,836.189 1864.88,833.671 1868.68,829.875 C1873.01,825.459 1875.18,821.469 1875.18,817.905 C1875.18,815.503 1873.52,813.218 1870.19,811.049 C1867.24,809.189 1862.48,808.26 1855.89,808.26 C1846.29,808.26 1834.16,817.944 1819.52,837.312 C1809.76,850.25 1801.85,861.639 1795.81,871.478 C1798.76,869.851 1802.28,867.876 1806.39,865.552 C1811.42,862.685 1815.76,861.252 1819.4,861.252 C1828.47,861.252 1833,864.506 1833,871.013 C1833,877.444 1829.28,884.494 1821.84,892.164 C1816.57,897.587 1813.94,901.616 1813.94,904.25 C1813.94,906.961 1816.57,908.317 1821.84,908.317 C1824.48,908.317 1827.19,907.388 1829.98,905.528 C1832.77,903.746 1834.82,902.855 1836.14,902.855 C1837.22,902.855 1837.76,903.553 1837.76,904.947 C1837.76,907.194 1835.59,909.557 1831.26,912.036 C1823.97,916.22 1818.12,918.311 1813.71,918.311 C1805.88,918.311 1801.97,914.128 1801.97,905.761 C1801.97,900.492 1804.99,894.643 1811.03,888.213 C1815.45,883.487 1817.66,878.8 1817.66,874.151 C1817.66,870.123 1815.49,868.108 1811.15,868.108 C1809.45,868.108 1803.79,870.123 1794.18,874.151 C1791.32,878.955 1788.92,883.371 1786.98,887.399 C1779.62,902.739 1774.74,910.409 1772.34,910.409"/>
<path class="Note" d="M1844.97,739.77 C1849.31,736.826 1852.44,734.386 1854.38,732.449 C1857.95,728.652 1859.73,725.166 1859.73,721.99 C1859.73,718.348 1857.71,716.528 1853.68,716.528 C1845.86,716.528 1837.49,723.423 1828.58,737.213 C1825.87,741.397 1819.91,755.032 1810.69,778.12 C1818.05,785.712 1821.73,790.012 1821.73,791.019 C1821.73,792.414 1820.84,793.111 1819.05,793.111 C1817.66,793.111 1813.82,790.748 1807.55,786.022 C1800.73,801.904 1790.39,815.462 1776.52,826.696 C1762.34,838.162 1745.41,843.895 1725.74,843.895 C1718.22,843.895 1708.81,842.152 1697.5,838.666 C1688.43,835.876 1683.9,831.422 1683.9,825.301 C1683.9,816.237 1687.39,811.705 1694.36,811.705 C1698.54,811.705 1700.63,813.641 1700.63,817.515 C1700.63,818.755 1699.67,820.072 1697.73,821.466 C1696.72,822.164 1696.22,823.519 1696.22,825.534 C1696.22,827.935 1698.89,830.415 1704.24,832.971 C1710.05,835.76 1718.57,837.155 1729.8,837.155 C1744.29,837.155 1758.27,830.879 1771.76,818.329 C1784,806.94 1792.79,793.692 1798.14,778.584 C1796.04,776.88 1793.8,775.021 1791.4,773.006 C1783.96,768.59 1780.24,764.058 1780.24,759.41 C1780.24,757.473 1781.52,756.504 1784.07,756.504 C1787.48,756.504 1792.09,759.41 1797.9,765.22 C1799.14,766.46 1800.3,767.622 1801.39,768.707 C1804.1,761.269 1808.44,751.817 1814.4,740.351 C1825.17,719.588 1838.27,709.207 1853.68,709.207 C1859.18,709.207 1863.52,710.252 1866.7,712.344 C1869.88,714.436 1871.46,717.303 1871.46,720.944 C1871.46,726.754 1869.33,731.674 1865.07,735.703 C1860.66,739.886 1856.05,741.978 1851.24,741.978 C1847.06,741.978 1844.97,741.242 1844.97,739.77"/>
<path class="Note" d="M1844.97,650.479 C1849.31,647.535 1852.44,645.094 1854.38,643.157 C1857.95,639.361 1859.73,635.875 1859.73,632.698 C1859.73,629.057 1857.71,627.236 1853.68,627.236 C1845.86,627.236 1837.49,634.132 1828.58,647.922 C1825.87,652.106 1819.91,665.741 1810.69,688.828 C1818.05,696.421 1821.73,700.721 1821.73,701.728 C1821.73,703.122 1820.84,703.819 1819.05,703.819 C1817.66,703.819 1813.82,701.457 1807.55,696.731 C1800.73,712.613 1790.39,726.171 1776.52,737.404 C1762.34,748.871 1745.41,754.604 1725.74,754.604 C1718.22,754.604 1708.81,752.86 1697.5,749.374 C1688.43,746.585 1683.9,742.13 1683.9,736.01 C1683.9,726.945 1687.39,722.413 1694.36,722.413 C1698.54,722.413 1700.63,724.35 1700.63,728.224 C1700.63,729.463 1699.67,730.78 1697.73,732.175 C1696.72,732.872 1696.22,734.228 1696.22,736.242 C1696.22,738.644 1698.89,741.123 1704.24,743.68 C1710.05,746.469 1718.57,747.863 1729.8,747.863 C1744.29,747.863 1758.27,741.588 1771.76,729.037 C1784,717.649 1792.79,704.401 1798.14,689.293 C1796.04,687.589 1793.8,685.729 1791.4,683.715 C1783.96,679.299 1780.24,674.767 1780.24,670.118 C1780.24,668.181 1781.52,667.213 1784.07,667.213 C1787.48,667.213 1792.09,670.118 1797.9,675.929 C1799.14,677.168 1800.3,678.331 1801.39,679.415 C1804.1,671.978 1808.44,662.526 1814.4,651.06 C1825.17,630.297 1838.27,619.915 1853.68,619.915 C1859.18,619.915 1863.52,620.961 1866.7,623.053 C1869.88,625.145 1871.46,628.011 1871.46,631.652 C1871.46,637.463 1869.33,642.383 1865.07,646.411 C1860.66,650.595 1856.05,652.687 1851.24,652.687 C1847.06,652.687 1844.97,651.951 1844.97,650.479"/>
<path class="Note" d="M2431.36,561.187 C2435.7,558.243 2438.84,555.803 2440.78,553.866 C2444.34,550.07 2446.12,546.583 2446.12,543.407 C2446.12,539.766 2444.11,537.945 2440.08,537.945 C2432.25,537.945 2423.89,544.84 2414.98,558.631 C2412.27,562.814 2406.3,576.45 2397.08,599.537 C2404.44,607.129 2408.12,611.429 2408.12,612.436 C2408.12,613.831 2407.23,614.528 2405.45,614.528 C2404.05,614.528 2400.22,612.165 2393.94,607.439 C2387.13,623.321 2376.78,636.879 2362.92,648.113 C2348.74,659.579 2331.81,665.312 2312.13,665.312 C2304.62,665.312 2295.2,663.569 2283.89,660.083 C2274.83,657.294 2270.3,652.839 2270.3,646.719 C2270.3,637.654 2273.78,633.122 2280.75,633.122 C2284.94,633.122 2287.03,635.059 2287.03,638.932 C2287.03,640.172 2286.06,641.489 2284.12,642.884 C2283.12,643.581 2282.61,644.937 2282.61,646.951 C2282.61,649.353 2285.29,651.832 2290.63,654.388 C2296.44,657.178 2304.97,658.572 2316.2,658.572 C2330.69,658.572 2344.67,652.297 2358.15,639.746 C2370.39,628.357 2379.19,615.109 2384.53,600.002 C2382.44,598.297 2380.19,596.438 2377.79,594.424 C2370.35,590.008 2366.63,585.475 2366.63,580.827 C2366.63,578.89 2367.91,577.922 2370.47,577.922 C2373.88,577.922 2378.49,580.827 2384.3,586.638 C2385.54,587.877 2386.7,589.039 2387.78,590.124 C2390.5,582.686 2394.84,573.235 2400.8,561.768 C2411.57,541.005 2424.66,530.624 2440.08,530.624 C2445.58,530.624 2449.92,531.67 2453.1,533.762 C2456.27,535.853 2457.86,538.72 2457.86,542.361 C2457.86,548.172 2455.73,553.091 2451.47,557.12 C2447.05,561.304 2442.44,563.395 2437.64,563.395 C2433.46,563.395 2431.36,562.659 2431.36,561.187"/>
<path class="Note" d="M2452.28,794.854 C2445.93,804.848 2435.9,813.138 2422.18,819.723 C2410.25,825.456 2399.1,828.323 2388.71,828.323 C2380.42,828.323 2373.53,826.657 2368.03,823.326 C2362.06,819.684 2359.08,815.346 2359.08,810.31 C2359.08,798.921 2362.06,789.121 2368.03,780.909 C2376.16,769.752 2384.38,764.174 2392.67,764.174 C2398.55,764.174 2402.74,765.336 2405.22,767.661 C2408.63,770.682 2410.33,774.827 2410.33,780.095 C2410.33,787.533 2404.79,794.002 2393.71,799.502 C2382.94,804.848 2375.47,808.334 2371.28,809.961 C2372.21,811.898 2373.41,813.641 2374.89,815.191 C2378.53,819.065 2383.49,821.001 2389.76,821.001 C2397.66,821.001 2408.28,818.096 2421.6,812.286 C2434.39,806.63 2444.61,800.819 2452.28,794.854 M2369.66,804.616 C2375.47,801.672 2380.77,798.224 2385.58,794.273 C2392.7,788.462 2396.27,782.187 2396.27,775.447 C2396.27,771.651 2394.53,769.752 2391.04,769.752 C2388.09,769.752 2384.07,773.123 2378.95,779.863 C2372.52,788.23 2369.31,795.048 2369.31,800.316 C2369.31,801.788 2369.42,803.221 2369.66,804.616"/>
<path class="Note" d="M2431.36,471.896 C2435.7,468.952 2438.84,466.512 2440.78,464.575 C2444.34,460.778 2446.12,457.292 2446.12,454.116 C2446.12,450.474 2444.11,448.654 2440.08,448.654 C2432.25,448.654 2423.89,455.549 2414.98,469.339 C2412.27,473.523 2406.3,487.158 2397.08,510.246 C2404.44,517.838 2408.12,522.138 2408.12,523.145 C2408.12,524.54 2407.23,525.237 2405.45,525.237 C2404.05,525.237 2400.22,522.874 2393.94,518.148 C2387.13,534.03 2376.78,547.588 2362.92,558.822 C2348.74,570.288 2331.81,576.021 2312.13,576.021 C2304.62,576.021 2295.2,574.278 2283.89,570.791 C2274.83,568.002 2270.3,563.548 2270.3,557.427 C2270.3,548.363 2273.78,543.831 2280.75,543.831 C2284.94,543.831 2287.03,545.767 2287.03,549.641 C2287.03,550.881 2286.06,552.198 2284.12,553.592 C2283.12,554.29 2282.61,555.645 2282.61,557.66 C2282.61,560.061 2285.29,562.541 2290.63,565.097 C2296.44,567.886 2304.97,569.281 2316.2,569.281 C2330.69,569.281 2344.67,563.005 2358.15,550.455 C2370.39,539.066 2379.19,525.818 2384.53,510.71 C2382.44,509.006 2380.19,507.147 2377.79,505.132 C2370.35,500.716 2366.63,496.184 2366.63,491.536 C2366.63,489.599 2367.91,488.63 2370.47,488.63 C2373.88,488.63 2378.49,491.536 2384.3,497.346 C2385.54,498.586 2386.7,499.748 2387.78,500.832 C2390.5,493.395 2394.84,483.943 2400.8,472.477 C2411.57,451.714 2424.66,441.332 2440.08,441.332 C2445.58,441.332 2449.92,442.378 2453.1,444.47 C2456.27,446.562 2457.86,449.429 2457.86,453.07 C2457.86,458.88 2455.73,463.8 2451.47,467.829 C2447.05,472.012 2442.44,474.104 2437.64,474.104 C2433.46,474.104 2431.36,473.368 2431.36,471.896"/>
<path class="Note" d="M3075.38,910.409 C3071.59,910.409 3069.69,906.342 3069.69,898.207 L3069.69,864.157 C3069.69,860.903 3071.28,859.276 3074.45,859.276 C3075.85,859.276 3076.9,859.392 3077.59,859.625 C3080.07,855.286 3084.14,851.645 3089.79,848.701 C3097.7,844.595 3105.72,842.542 3113.85,842.542 C3120.28,842.542 3123.5,844.943 3123.5,849.747 C3123.5,853.776 3121.33,855.79 3116.99,855.79 C3113.89,855.79 3110.95,855.093 3108.16,853.698 C3105.68,852.458 3103.04,851.839 3100.25,851.839 C3095.45,851.839 3088.36,854.976 3078.99,861.252 C3080.3,867.527 3080.96,874.848 3080.96,883.216 C3080.96,901.345 3079.1,910.409 3075.38,910.409"/>
<path class="Note" d="M3155.45,616.271 C3149.1,626.265 3139.07,634.555 3125.36,641.14 C3113.42,646.874 3102.27,649.74 3091.89,649.74 C3083.6,649.74 3076.7,648.074 3071.2,644.743 C3065.24,641.102 3062.25,636.763 3062.25,631.727 C3062.25,620.339 3065.24,610.538 3071.2,602.326 C3079.34,591.17 3087.55,585.592 3095.84,585.592 C3101.73,585.592 3105.91,586.754 3108.39,589.078 C3111.8,592.099 3113.5,596.244 3113.5,601.513 C3113.5,608.95 3107.96,615.419 3096.88,620.92 C3086.11,626.265 3078.64,629.752 3074.45,631.379 C3075.38,633.316 3076.59,635.059 3078.06,636.608 C3081.7,640.482 3086.66,642.419 3092.93,642.419 C3100.83,642.419 3111.45,639.513 3124.77,633.703 C3137.56,628.047 3147.78,622.237 3155.45,616.271 M3072.83,626.033 C3078.64,623.089 3083.95,619.641 3088.75,615.69 C3095.88,609.88 3099.44,603.604 3099.44,596.864 C3099.44,593.068 3097.7,591.17 3094.21,591.17 C3091.27,591.17 3087.24,594.54 3082.12,601.28 C3075.69,609.647 3072.48,616.465 3072.48,621.733 C3072.48,623.205 3072.6,624.638 3072.83,626.033"/>
<path class="Note" d="M3134.54,471.896 C3138.87,468.952 3142.01,466.512 3143.95,464.575 C3147.51,460.778 3149.29,457.292 3149.29,454.116 C3149.29,450.474 3147.28,448.654 3143.25,448.654 C3135.43,448.654 3127.06,455.549 3118.15,469.339 C3115.44,473.523 3109.47,487.158 3100.25,510.246 C3107.61,517.838 3111.29,522.138 3111.29,523.145 C3111.29,524.54 3110.4,525.237 3108.62,525.237 C3107.23,525.237 3103.39,522.874 3097.12,518.148 C3090.3,534.03 3079.96,547.588 3066.09,558.822 C3051.91,570.288 3034.98,576.021 3015.3,576.021 C3007.79,576.021 2998.38,574.278 2987.06,570.791 C2978,568.002 2973.47,563.548 2973.47,557.427 C2973.47,548.363 2976.95,543.831 2983.93,543.831 C2988.11,543.831 2990.2,545.767 2990.2,549.641 C2990.2,550.881 2989.23,552.198 2987.3,553.592 C2986.29,554.29 2985.79,555.645 2985.79,557.66 C2985.79,560.061 2988.46,562.541 2993.8,565.097 C2999.62,567.886 3008.14,569.281 3019.37,569.281 C3033.86,569.281 3047.84,563.005 3061.32,550.455 C3073.56,539.066 3082.36,525.818 3087.7,510.71 C3085.61,509.006 3083.36,507.147 3080.96,505.132 C3073.53,500.716 3069.81,496.184 3069.81,491.536 C3069.81,489.599 3071.08,488.63 3073.64,488.63 C3077.05,488.63 3081.66,491.536 3087.47,497.346 C3088.71,498.586 3089.87,499.748 3090.96,500.832 C3093.67,493.395 3098.01,483.943 3103.97,472.477 C3114.74,451.714 3127.83,441.332 3143.25,441.332 C3148.75,441.332 3153.09,442.378 3156.27,444.47 C3159.44,446.562 3161.03,449.429 3161.03,453.07 C3161.03,458.88 3158.9,463.8 3154.64,467.829 C3150.22,472.012 3145.61,474.104 3140.81,474.104 C3136.63,474.104 3134.54,473.368 3134.54,471.896"/>
<path class="Note" d="M3134.54,650.479 C3138.87,647.535 3142.01,645.094 3143.95,643.157 C3147.51,639.361 3149.29,635.875 3149.29,632.698 C3149.29,629.057 3147.28,627.236 3143.25,627.236 C3135.43,627.236 3127.06,634.132 3118.15,647.922 C3115.44,652.106 3109.47,665.741 3100.25,688.828 C3107.61,696.421 3111.29,700.721 3111.29,701.728 C3111.29,703.122 3110.4,703.819 3108.62,703.819 C3107.23,703.819 3103.39,701.457 3097.12,696.731 C3090.3,712.613 3079.96,726.171 3066.09,737.404 C3051.91,748.871 3034.98,754.604 3015.3,754.604 C3007.79,754.604 2998.38,752.86 2987.06,749.374 C2978,746.585 2973.47,742.13 2973.47,736.01 C2973.47,726.945 2976.95,722.413 2983.93,722.413 C2988.11,722.413 2990.2,724.35 2990.2,728.224 C2990.2,729.463 2989.23,730.78 2987.3,732.175 C2986.29,732.872 2985.79,734.228 2985.79,736.242 C2985.79,738.644 2988.46,741.123 2993.8,743.68 C2999.62,746.469 3008.14,747.863 3019.37,747.863 C3033.86,747.863 3047.84,741.588 3061.32,729.037 C3073.56,717.649 3082.36,704.401 3087.7,689.293 C3085.61,687.589 3083.36,685.729 3080.96,683.715 C3073.53,679.299 3069.81,674.767 3069.81,670.118 C3069.81,668.181 3071.08,667.213 3073.64,667.213 C3077.05,667.213 3081.66,670.118 3087.47,675.929 C3088.71,677.168 3089.87,678.331 3090.96,679.415 C3093.67,671.978 3098.01,662.526 3103.97,651.06 C3114.74,630.297 3127.83,619.915 3143.25,619.915 C3148.75,619.915 3153.09,620.961 3156.27,623.053 C3159.44,625.145 3161.03,628.011 3161.03,631.652 C3161.03,637.463 3158.9,642.383 3154.64,646.411 C3150.22,650.595 3145.61,652.687 3140.81,652.687 C3136.63,652.687 3134.54,651.951 3134.54,650.479"/>
<path class="Note" d="M3709.04,561.187 C3713.38,558.243 3716.52,555.803 3718.45,553.866 C3722.02,550.07 3723.8,546.583 3723.8,543.407 C3723.8,539.766 3721.79,537.945 3717.76,537.945 C3709.93,537.945 3701.56,544.84 3692.66,558.631 C3689.94,562.814 3683.98,576.45 3674.76,599.537 C3682.12,607.129 3685.8,611.429 3685.8,612.436 C3685.8,613.831 3684.91,614.528 3683.13,614.528 C3681.73,614.528 3677.9,612.165 3671.62,607.439 C3664.8,623.321 3654.46,636.879 3640.59,648.113 C3626.41,659.579 3609.49,665.312 3589.81,665.312 C3582.29,665.312 3572.88,663.569 3561.57,660.083 C3552.5,657.294 3547.97,652.839 3547.97,646.719 C3547.97,637.654 3551.46,633.122 3558.43,633.122 C3562.62,633.122 3564.71,635.059 3564.71,638.932 C3564.71,640.172 3563.74,641.489 3561.8,642.884 C3560.79,643.581 3560.29,644.937 3560.29,646.951 C3560.29,649.353 3562.96,651.832 3568.31,654.388 C3574.12,657.178 3582.64,658.572 3593.88,658.572 C3608.36,658.572 3622.35,652.297 3635.83,639.746 C3648.07,628.357 3656.86,615.109 3662.21,600.002 C3660.12,598.297 3657.87,596.438 3655.47,594.424 C3648.03,590.008 3644.31,585.475 3644.31,580.827 C3644.31,578.89 3645.59,577.922 3648.15,577.922 C3651.56,577.922 3656.16,580.827 3661.98,586.638 C3663.22,587.877 3664.38,589.039 3665.46,590.124 C3668.17,582.686 3672.51,573.235 3678.48,561.768 C3689.25,541.005 3702.34,530.624 3717.76,530.624 C3723.26,530.624 3727.6,531.67 3730.77,533.762 C3733.95,535.853 3735.54,538.72 3735.54,542.361 C3735.54,548.172 3733.41,553.091 3729.15,557.12 C3724.73,561.304 3720.12,563.395 3715.32,563.395 C3711.13,563.395 3709.04,562.659 3709.04,561.187"/>
<path class="Note" d="M3636.41,910.409 C3632.23,910.409 3630.13,908.511 3630.13,904.715 C3630.13,898.284 3631.1,893.558 3633.04,890.537 C3641.1,878.606 3658.61,856.293 3685.57,823.599 C3697.73,808.802 3713.42,801.403 3732.63,801.403 C3740.07,801.403 3745.22,802.449 3748.09,804.541 C3752.5,807.795 3754.71,811.707 3754.71,816.278 C3754.71,821.082 3750.84,826.427 3743.09,832.315 C3735.73,837.893 3728.76,840.682 3722.17,840.682 C3719.62,840.682 3718.34,840.411 3718.34,839.869 C3718.34,839.094 3719.58,838.281 3722.06,837.429 C3725.39,836.189 3728.95,833.671 3732.75,829.875 C3737.09,825.459 3739.26,821.469 3739.26,817.905 C3739.26,815.503 3737.59,813.218 3734.26,811.049 C3731.31,809.189 3726.55,808.26 3719.96,808.26 C3710.36,808.26 3698.23,817.944 3683.59,837.312 C3673.83,850.25 3665.93,861.639 3659.88,871.478 C3662.83,869.851 3666.35,867.876 3670.46,865.552 C3675.49,862.685 3679.83,861.252 3683.47,861.252 C3692.54,861.252 3697.07,864.506 3697.07,871.013 C3697.07,877.444 3693.35,884.494 3685.91,892.164 C3680.65,897.587 3678.01,901.616 3678.01,904.25 C3678.01,906.961 3680.65,908.317 3685.91,908.317 C3688.55,908.317 3691.26,907.388 3694.05,905.528 C3696.84,903.746 3698.89,902.855 3700.21,902.855 C3701.29,902.855 3701.84,903.553 3701.84,904.947 C3701.84,907.194 3699.67,909.557 3695.33,912.036 C3688.05,916.22 3682.2,918.311 3677.78,918.311 C3669.96,918.311 3666.04,914.128 3666.04,905.761 C3666.04,900.492 3669.06,894.643 3675.11,888.213 C3679.52,883.487 3681.73,878.8 3681.73,874.151 C3681.73,870.123 3679.56,868.108 3675.22,868.108 C3673.52,868.108 3667.86,870.123 3658.26,874.151 C3655.39,878.955 3652.99,883.371 3651.05,887.399 C3643.69,902.739 3638.81,910.409 3636.41,910.409"/>
<path class="Note" d="M3709.04,739.77 C3713.38,736.826 3716.52,734.386 3718.45,732.449 C3722.02,728.652 3723.8,725.166 3723.8,721.99 C3723.8,718.348 3721.79,716.528 3717.76,716.528 C3709.93,716.528 3701.56,723.423 3692.66,737.213 C3689.94,741.397 3683.98,755.032 3674.76,778.12 C3682.12,785.712 3685.8,790.012 3685.8,791.019 C3685.8,792.414 3684.91,793.111 3683.13,793.111 C3681.73,793.111 3677.9,790.748 3671.62,786.022 C3664.8,801.904 3654.46,815.462 3640.59,826.696 C3626.41,838.162 3609.49,843.895 3589.81,843.895 C3582.29,843.895 3572.88,842.152 3561.57,838.666 C3552.5,835.876 3547.97,831.422 3547.97,825.301 C3547.97,816.237 3551.46,811.705 3558.43,811.705 C3562.62,811.705 3564.71,813.641 3564.71,817.515 C3564.71,818.755 3563.74,820.072 3561.8,821.466 C3560.79,822.164 3560.29,823.519 3560.29,825.534 C3560.29,827.935 3562.96,830.415 3568.31,832.971 C3574.12,835.76 3582.64,837.155 3593.88,837.155 C3608.36,837.155 3622.35,830.879 3635.83,818.329 C3648.07,806.94 3656.86,793.692 3662.21,778.584 C3660.12,776.88 3657.87,775.021 3655.47,773.006 C3648.03,768.59 3644.31,764.058 3644.31,759.41 C3644.31,757.473 3645.59,756.504 3648.15,756.504 C3651.56,756.504 3656.16,759.41 3661.98,765.22 C3663.22,766.46 3664.38,767.622 3665.46,768.707 C3668.17,761.269 3672.51,751.817 3678.48,740.351 C3689.25,719.588 3702.34,709.207 3717.76,709.207 C3723.26,709.207 3727.6,710.252 3730.77,712.344 C3733.95,714.436 3735.54,717.303 3735.54,720.944 C3735.54,726.754 3733.41,731.674 3729.15,735.703 C3724.73,739.886 3720.12,741.978 3715.32,741.978 C3711.13,741.978 3709.04,741.242 3709.04,739.77"/>
<path class="Note" d="M3709.04,650.479 C3713.38,647.535 3716.52,645.094 3718.45,643.157 C3722.02,639.361 3723.8,635.875 3723.8,632.698 C3723.8,629.057 3721.79,627.236 3717.76,627.236 C3709.93,627.236 3701.56,634.132 3692.66,647.922 C3689.94,652.106 3683.98,665.741 3674.76,688.828 C3682.12,696.421 3685.8,700.721 3685.8,701.728 C3685.8,703.122 3684.91,703.819 3683.13,703.819 C3681.73,703.819 3677.9,701.457 3671.62,696.731 C3664.8,712.613 3654.46,726.171 3640.59,737.404 C3626.41,748.871 3609.49,754.604 3589.81,754.604 C3582.29,754.604 3572.88,752.86 3561.57,749.374 C3552.5,746.585 3547.97,742.13 3547.97,736.01 C3547.97,726.945 3551.46,722.413 3558.43,722.413 C3562.62,722.413 3564.71,724.35 3564.71,728.224 C3564.71,729.463 3563.74,730.78 3561.8,732.175 C3560.79,732.872 3560.29,734.228 3560.29,736.242 C3560.29,738.644 3562.96,741.123 3568.31,743.68 C3574.12,746.469 3582.64,747.863 3593.88,747.863 C3608.36,747.863 3622.35,741.588 3635.83,729.037 C3648.07,717.649 3656.86,704.401 3662.21,689.293 C3660.12,687.589 3657.87,685.729 3655.47,683.715 C3648.03,679.299 3644.31,674.767 3644.31,670.118 C3644.31,668.181 3645.59,667.213 3648.15,667.213 C3651.56,667.213 3656.16,670.118 3661.98,675.929 C3663.22,677.168 3664.38,678.331 3665.46,679.415 C3668.17,671.978 3672.51,662.526 3678.48,651.06 C3689.25,630.297 3702.34,619.915 3717.76,619.915 C3723.26,619.915 3727.6,620.961 3730.77,623.053 C3733.95,625.145 3735.54,628.011 3735.54,631.652 C3735.54,637.463 3733.41,642.383 3729.15,646.411 C3724.73,650.595 3720.12,652.687 3715.32,652.687 C3711.13,652.687 3709.04,651.951 3709.04,650.479"/>
<path class="Clef" transform="matrix(2.3811,0,0,2.3811,212.156,2111.9)" d="M25.4,-25.1 C17.8,-25.1 11.7,-20.7 11.6,-20.7 C5.8,-16.4 3.5,-11.3 2.6,-7.8 C2.1,-6 1.9,-4.2 1.9,-2.5 C1.9,-0.1 2.3,2.1 3.2,4 C4.4,6.7 6.7,8.6 9.7,9.6 C10.9,10 12.2,10.2 13.5,10.2 C15.7,10.2 18,9.6 19.9,8.5 C23,6.8 24.9,3.2 24.9,-0.7 C24.9,-4.2 23.1,-7.4 20.1,-9.3 C18,-10.7 16,-11.1 14.3,-11.1 C13.1,-11.1 12,-10.9 11.1,-10.6 C10.1,-10.2 8.4,-9.2 7.6,-8.5 C7.9,-10.4 9.1,-13.3 10.2,-14.9 C11.3,-16.5 13.5,-18.5 15.2,-19.4 C17.7,-20.8 20.9,-21.4 24.4,-21.4 C34.6,-21.4 39.6,-13.2 39.6,3.6 C39.6,12.9 36.1,21.8 33.1,27.7 C29.8,34.3 25.4,40.6 21.5,44.1 C11.1,53.6 1.3,58.1 1.2,58.1 C1.2,58.1 -0.3,59 0.1,60.5 C0.4,61.5 1.3,61.7 1.9,61.7 C2,61.7 2.3,61.6 2.4,61.6 C2.5,61.6 13.9,56.9 23,49.8 C28.1,46.1 32.7,42.1 36.7,37.8 C40.3,33.9 43.4,29.7 45.9,25.5 C50.3,18 52.8,10.2 52.8,3.5 C52.8,-4.8 50.6,-11.7 46.5,-16.6 C41.8,-22.2 34.7,-25.1 25.4,-25.1 M56.8,-12.4 C56.8,-9.6 59,-7.4 61.6,-7.4 C64.2,-7.4 66.4,-9.6 66.4,-12.4 C66.4,-15.2 64.2,-17.5 61.6,-17.5 C59,-17.5 56.8,-15.2 56.8,-12.4 M56.8,12.3 C56.8,15.1 59,17.4 61.6,17.4 C64.2,17.4 66.4,15.1 66.4,12.3 C66.4,9.5 64.2,7.2 61.6,7.2 C59,7.2 56.8,9.5 56.8,12.3"/>
<path class="Clef" transform="matrix(2.3811,0,0,2.3811,212.156,1570.39)" d="M63.37,-5.89004 C62.14,-11.32 59.5,-15.14 58.72,-16.1801 C55.5301,-20.45 51.52,-23.3 46.8301,-24.65 C43.72,-25.54 40.72,-25.65 38.3,-25.47 C37.2601,-31.4801 36.2601,-37.3601 35.35,-42.8101 C40.79,-48.97 44.42,-54.77 46.69,-59.07 C50.1601,-65.65 51.3101,-70.2301 51.3601,-70.4301 C53.0801,-75.64 53.44,-83.34 52.34,-91.55 C51.3301,-99.1 49.24,-105.81 46.89,-109.06 C45.8601,-110.49 44.8101,-111.22 43.77,-111.22 C42.55,-111.22 40.04,-109.98 37.15,-107.21 C34.85,-105.01 31.5801,-101.12 29.02,-95.1101 C26.02,-88.05 25.8101,-78.5601 26.1601,-71.84 C26.54,-64.57 27.65,-58.8801 27.6601,-58.8301 C27.6801,-58.74 27.94,-57.24 28.39,-54.67 C28.1601,-54.44 27.92,-54.22 27.67,-53.9801 C26.6301,-52.9801 25.44,-51.84 24.0601,-50.4601 C23.2,-49.6 22.25,-48.69 21.25,-47.72 C12.79,-39.57 0,-27.25 0,-8.1 C0,-3.4 0.9,1.01992 2.68008,5.02998 C4.27002,8.62998 6.57002,11.91 9.5,14.78 C17.2301,22.33 27.82,25.5399 34.8801,25.38 C37.8301,25.31 40.4601,25.0699 42.85,24.6199 C44.6801,34.2199 45.82,41.25 45.8601,46.5899 C45.9,53.1 44.25,57.0699 40.35,59.8399 C37.92,61.5699 35.1101,62.5199 32.0101,62.6699 C29.42,62.7899 27.1601,62.3199 25.7301,61.91 L25.72,61.91 C25.72,61.91 25.4301,61.83 25.42,61.63 C25.4101,61.45 25.7601,61.4 25.77,61.4 L25.79,61.4 C27.7101,60.96 31.2801,59.73 33.64,56.43 C35.44,53.91 36.3101,49.2899 34.47,45.35 C33.3601,42.96 30.85,40.01 25.2301,39.56 C22.74,39.36 20.47,39.8699 18.47,41.0699 C16.6601,42.15 15.1601,43.7899 14.1101,45.7899 C11.65,50.4899 12.1101,56.2199 15.24,60.06 C18.2,63.68 22.82,65.9899 28.25,66.5699 C29.1,66.66 29.95,66.7 30.8,66.7 C31.5101,66.7 32.22,66.6699 32.92,66.61 C31.72,66.9399 30.64,67.4899 29.77,68.25 C28.2801,69.5399 27.44,71.38 27.44,73.41 C27.44,75.28 28.0601,76.65 29.55,78.0399 C28.4101,78.5 27.55,78.98 26.79,79.56 C25.25,80.73 24.34,82.46 24.34,84.1899 C24.34,87.45 27.3,89.63 31.72,89.63 C37.1301,89.63 40.9101,86.63 40.9101,82.35 C40.9101,80.1199 39.9101,78.18 38.0801,76.83 C41.0101,75.6199 42.37,73.9399 42.37,71.56 C42.39,70.05 41.69,68.61 40.49,67.6899 C39.2801,66.7399 37.62,66.2399 35.69,66.2399 L35.5101,66.2399 C38.2801,65.7 40.92,64.7 43.2101,63.28 C46.87,60.71 48.99,56.73 49.67,51.1 C50.2301,46.46 49.84,40.55 48.44,32.48 C48.0801,30.3899 47.54,27.36 46.8801,23.6 C52.6301,21.68 56.79,18.11 60.5601,12.26 C63.85,6.51992 64.8,0.419922 63.37,-5.89004 M32.39,87.5399 C30.19,87.5399 28.7301,86.1199 28.7301,84.01 C28.7301,82.11 29.65,80.5 31.32,79.4699 C31.6801,79.66 31.77,79.71 32.1101,79.88 C33.3,80.48 33.3,80.48 33.55,80.63 L33.5601,80.6399 C35.47,81.73 36.25,82.76 36.25,84.18 C36.24,86.0899 34.59,87.5399 32.39,87.5399 M38.3101,71.63 C38.3101,73.2699 37.7301,74.3399 36.1801,75.53 C34.74,74.78 34.35,74.56 33.9801,74.3399 L33.8801,74.28 C32.3301,73.3399 31.85,72.66 31.85,71.4 C31.85,69.6 33.2301,68.3399 35.19,68.3399 C37.17,68.35 38.3101,69.55 38.3101,71.63 M33.15,-83.8101 C34.9301,-89.55 37.67,-92.8 39.6601,-94.5301 C41.4101,-96.05 43.0601,-96.7601 43.9801,-96.7601 C44.12,-96.7601 44.24,-96.74 44.34,-96.7101 C44.8,-96.57 45.3301,-96 45.8,-95.1301 C48.1101,-90.84 47.37,-84.1301 46.0301,-79.69 C44.4,-74.29 41.4801,-68.6801 32.69,-59.0601 C32.52,-60.17 32.3601,-61.22 32.2101,-62.2 C30.95,-70.49 31.27,-77.7601 33.15,-83.8101 M29.15,20.31 C24.5101,19.0899 20.0801,16.5899 16.32,13.0899 C15.0101,11.86 13.14,9.68994 11.67,6.3 C10.3101,3.13994 9.65,-0.290039 9.7,-3.88008 C9.77002,-8.57002 11.0801,-13.39 13.59,-18.1801 C16.5101,-23.7601 21.07,-29.29 27.1301,-34.62 C28.5801,-35.9 29.95,-37.1801 31.24,-38.4601 C32,-34.2 32.8301,-29.5101 33.7101,-24.6301 C29.8601,-23.3601 25.1101,-20.2101 22,-14.5601 C18.47,-7.99004 18.6101,-2.47002 19.34,1.00996 C20.2801,5.46992 22.8101,9.22998 26.27,11.3199 C27.2,11.88 31.3301,14.01 33.17,13.43 C33.54,13.31 33.8101,13.0899 33.95,12.76 C34.4601,11.5899 33.44,10.95 31.8801,9.98994 C31.2801,9.61992 30.6101,9.2 29.8801,8.66992 C26.5601,6.17998 25.1101,1.72998 26.1801,-2.65 C26.7601,-5.05 28.04,-7.21006 29.8801,-8.91006 C31.55,-10.4601 33.59,-11.5601 35.97,-12.2 C38.0101,-0.960059 40.07,10.1899 41.7101,18.55 C41.84,19.2399 41.9801,19.91 42.1101,20.58 C37.7101,21.51 33.37,21.4199 29.15,20.31 M54.9,10.1 C53.7301,13.28 51.27,17.35 46.14,19.41 C46.07,18.9899 45.99,18.56 45.9101,18.13 C44.3601,9.36992 42.4301,-1.61006 40.47,-12.87 C50.82,-13.35 55.09,-5.91006 55.9801,-1.08008 C56.45,1.45 56.45,5.88994 54.9,10.1"/>
<path class="FiguredBass" d="M543.165,2429.01 C543.35,2429.01 543.752,2428.61 544.371,2427.8 C547.03,2424.03 550.741,2422.14 555.503,2422.14 C559.338,2422.14 562.956,2423.57 566.358,2426.41 C569.76,2429.26 572.574,2430.68 574.8,2430.68 C577.212,2430.68 579.501,2429.97 581.666,2428.54 C583.83,2427.12 585.547,2425.7 586.814,2424.28 C588.082,2422.85 588.902,2422.14 589.273,2422.14 C589.891,2422.14 590.448,2422.34 590.943,2422.75 C591.438,2423.15 591.685,2423.66 591.685,2424.28 C591.685,2424.71 590.417,2426.84 587.881,2430.68 C585.346,2434.51 582.531,2438.95 579.439,2443.99 C576.347,2449.03 573.532,2455.32 570.997,2462.87 C568.461,2470.42 567.193,2477.62 567.193,2484.49 C567.193,2487.15 567.471,2490.21 568.028,2493.67 C568.461,2496.33 568.461,2497.85 568.028,2498.22 C567.719,2498.53 567.193,2498.68 566.451,2498.68 C566.141,2498.68 564.703,2498.28 562.137,2497.47 C559.57,2496.67 557.111,2496.27 554.761,2496.27 C552.658,2496.27 550.231,2496.67 547.479,2497.47 C544.726,2498.28 543.195,2498.68 542.886,2498.68 C542.206,2498.68 541.649,2498.4 541.216,2497.85 C540.783,2497.29 540.722,2496.7 541.031,2496.08 C544.68,2487.36 549.118,2478.87 554.344,2470.62 C559.57,2462.36 566.111,2452.85 573.965,2442.09 C570.997,2443.7 567.997,2444.5 564.966,2444.5 C561.75,2444.5 558.503,2443.06 555.225,2440.19 C551.947,2437.31 549.257,2435.87 547.154,2435.87 C545.608,2435.87 544.262,2436.75 543.118,2438.52 C541.974,2440.28 541.402,2442.92 541.402,2446.45 L541.402,2457.86 C541.402,2459.41 540.691,2460.18 539.268,2460.18 C537.722,2460.18 536.949,2459.41 536.949,2457.86 L536.949,2424.46 C536.949,2422.92 537.722,2422.14 539.268,2422.14 C540.691,2422.14 541.402,2422.92 541.402,2424.46 L541.402,2426.6 C541.402,2427.09 541.526,2427.52 541.773,2427.89 C542.515,2428.64 542.979,2429.01 543.165,2429.01"/>
<path class="FiguredBass" d="M1191.38,2479.94 C1190.7,2480.68 1189.81,2481.05 1188.69,2481.05 C1187.58,2481.05 1186.67,2480.67 1185.96,2479.89 C1185.25,2479.12 1184.89,2478.24 1184.89,2477.25 L1184.89,2463.98 L1171.62,2463.98 C1170.51,2463.98 1169.6,2463.6 1168.89,2462.82 C1168.17,2462.05 1167.82,2461.17 1167.82,2460.18 C1167.82,2459.19 1168.17,2458.31 1168.89,2457.54 C1169.6,2456.76 1170.51,2456.38 1171.62,2456.38 L1184.89,2456.38 L1184.89,2443.11 C1184.89,2442.12 1185.25,2441.24 1185.96,2440.47 C1186.67,2439.69 1187.58,2439.31 1188.69,2439.31 C1189.81,2439.31 1190.72,2439.69 1191.43,2440.47 C1192.14,2441.24 1192.5,2442.12 1192.5,2443.11 L1192.5,2456.38 L1205.76,2456.38 C1206.88,2456.38 1207.79,2456.76 1208.5,2457.54 C1209.21,2458.31 1209.57,2459.19 1209.57,2460.18 C1209.57,2461.17 1209.21,2462.05 1208.5,2462.82 C1207.79,2463.6 1206.88,2463.98 1205.76,2463.98 L1192.5,2463.98 L1192.5,2477.25 C1192.5,2478.24 1192.13,2479.14 1191.38,2479.94 M1244.81,2425.67 C1240.23,2425.67 1237.18,2427.51 1235.67,2431.19 C1234.15,2434.87 1233.4,2440.08 1233.4,2446.82 L1233.4,2457.77 C1236.61,2456.47 1239.4,2455.79 1241.75,2455.73 C1249.79,2455.73 1256.11,2457.51 1260.72,2461.06 C1265.33,2464.62 1267.63,2469.91 1267.63,2476.93 C1267.63,2483.95 1265.3,2489.25 1260.63,2492.84 C1255.96,2496.42 1249.66,2498.22 1241.75,2498.22 C1233.64,2498.22 1227.3,2494.46 1222.73,2486.95 C1218.15,2479.43 1215.86,2470.51 1215.86,2460.18 C1215.86,2449.91 1218.52,2441.01 1223.84,2433.46 C1229.16,2425.92 1236.15,2422.14 1244.81,2422.14 C1250.5,2422.14 1255.41,2423.58 1259.56,2426.46 C1263.7,2429.33 1265.77,2433.12 1265.77,2437.82 C1265.77,2440.54 1264.78,2442.89 1262.81,2444.87 C1260.83,2446.85 1258.46,2447.84 1255.71,2447.84 C1252.96,2447.84 1250.59,2446.85 1248.61,2444.87 C1246.63,2442.89 1245.64,2440.54 1245.64,2437.82 C1245.64,2435.16 1246.63,2432.81 1248.61,2430.77 C1249.29,2429.97 1250.25,2429.29 1251.49,2428.73 C1251.18,2427.93 1250.56,2427.31 1249.63,2426.87 C1248.27,2426.07 1246.66,2425.67 1244.81,2425.67 M1249.35,2463.61 C1248.24,2460.71 1245.8,2459.25 1242.02,2459.25 C1238.25,2459.25 1235.92,2460.71 1235.02,2463.61 C1234.12,2466.52 1233.67,2470.94 1233.67,2476.88 C1233.67,2483.87 1234.12,2488.57 1235.02,2490.98 C1235.92,2493.39 1238.25,2494.6 1242.02,2494.6 C1245.8,2494.6 1248.24,2493.15 1249.35,2490.24 C1250.47,2487.33 1251.02,2482.89 1251.02,2476.93 C1251.02,2470.96 1250.47,2466.52 1249.35,2463.61"/>
<path class="FiguredBass" d="M2361.76,2429.01 C2361.94,2429.01 2362.35,2428.61 2362.96,2427.8 C2365.62,2424.03 2369.33,2422.14 2374.1,2422.14 C2377.93,2422.14 2381.55,2423.57 2384.95,2426.41 C2388.35,2429.26 2391.17,2430.68 2393.39,2430.68 C2395.81,2430.68 2398.09,2429.97 2400.26,2428.54 C2402.42,2427.12 2404.14,2425.7 2405.41,2424.28 C2406.68,2422.85 2407.5,2422.14 2407.87,2422.14 C2408.48,2422.14 2409.04,2422.34 2409.54,2422.75 C2410.03,2423.15 2410.28,2423.66 2410.28,2424.28 C2410.28,2424.71 2409.01,2426.84 2406.47,2430.68 C2403.94,2434.51 2401.12,2438.95 2398.03,2443.99 C2394.94,2449.03 2392.13,2455.32 2389.59,2462.87 C2387.05,2470.42 2385.79,2477.62 2385.79,2484.49 C2385.79,2487.15 2386.06,2490.21 2386.62,2493.67 C2387.05,2496.33 2387.05,2497.85 2386.62,2498.22 C2386.31,2498.53 2385.79,2498.68 2385.04,2498.68 C2384.73,2498.68 2383.3,2498.28 2380.73,2497.47 C2378.16,2496.67 2375.71,2496.27 2373.35,2496.27 C2371.25,2496.27 2368.82,2496.67 2366.07,2497.47 C2363.32,2498.28 2361.79,2498.68 2361.48,2498.68 C2360.8,2498.68 2360.24,2498.4 2359.81,2497.85 C2359.38,2497.29 2359.32,2496.7 2359.62,2496.08 C2363.27,2487.36 2367.71,2478.87 2372.94,2470.62 C2378.16,2462.36 2384.7,2452.85 2392.56,2442.09 C2389.59,2443.7 2386.59,2444.5 2383.56,2444.5 C2380.34,2444.5 2377.1,2443.06 2373.82,2440.19 C2370.54,2437.31 2367.85,2435.87 2365.75,2435.87 C2364.2,2435.87 2362.86,2436.75 2361.71,2438.52 C2360.57,2440.28 2360,2442.92 2360,2446.45 L2360,2457.86 C2360,2459.41 2359.28,2460.18 2357.86,2460.18 C2356.32,2460.18 2355.54,2459.41 2355.54,2457.86 L2355.54,2424.46 C2355.54,2422.92 2356.32,2422.14 2357.86,2422.14 C2359.28,2422.14 2360,2422.92 2360,2424.46 L2360,2426.6 C2360,2427.09 2360.12,2427.52 2360.37,2427.89 C2361.11,2428.64 2361.57,2429.01 2361.76,2429.01"/>
<path class="FiguredBass" d="M3064.93,2429.01 C3065.12,2429.01 3065.52,2428.61 3066.14,2427.8 C3068.8,2424.03 3072.51,2422.14 3077.27,2422.14 C3081.1,2422.14 3084.72,2423.57 3088.12,2426.41 C3091.53,2429.26 3094.34,2430.68 3096.57,2430.68 C3098.98,2430.68 3101.27,2429.97 3103.43,2428.54 C3105.6,2427.12 3107.31,2425.7 3108.58,2424.28 C3109.85,2422.85 3110.67,2422.14 3111.04,2422.14 C3111.66,2422.14 3112.21,2422.34 3112.71,2422.75 C3113.2,2423.15 3113.45,2423.66 3113.45,2424.28 C3113.45,2424.71 3112.18,2426.84 3109.65,2430.68 C3107.11,2434.51 3104.3,2438.95 3101.2,2443.99 C3098.11,2449.03 3095.3,2455.32 3092.76,2462.87 C3090.23,2470.42 3088.96,2477.62 3088.96,2484.49 C3088.96,2487.15 3089.24,2490.21 3089.79,2493.67 C3090.23,2496.33 3090.23,2497.85 3089.79,2498.22 C3089.48,2498.53 3088.96,2498.68 3088.22,2498.68 C3087.91,2498.68 3086.47,2498.28 3083.9,2497.47 C3081.34,2496.67 3078.88,2496.27 3076.53,2496.27 C3074.42,2496.27 3072,2496.67 3069.24,2497.47 C3066.49,2498.28 3064.96,2498.68 3064.65,2498.68 C3063.97,2498.68 3063.41,2498.4 3062.98,2497.85 C3062.55,2497.29 3062.49,2496.7 3062.8,2496.08 C3066.45,2487.36 3070.88,2478.87 3076.11,2470.62 C3081.34,2462.36 3087.88,2452.85 3095.73,2442.09 C3092.76,2443.7 3089.76,2444.5 3086.73,2444.5 C3083.52,2444.5 3080.27,2443.06 3076.99,2440.19 C3073.71,2437.31 3071.02,2435.87 3068.92,2435.87 C3067.37,2435.87 3066.03,2436.75 3064.88,2438.52 C3063.74,2440.28 3063.17,2442.92 3063.17,2446.45 L3063.17,2457.86 C3063.17,2459.41 3062.46,2460.18 3061.03,2460.18 C3059.49,2460.18 3058.71,2459.41 3058.71,2457.86 L3058.71,2424.46 C3058.71,2422.92 3059.49,2422.14 3061.03,2422.14 C3062.46,2422.14 3063.17,2422.92 3063.17,2424.46 L3063.17,2426.6 C3063.17,2427.09 3063.29,2427.52 3063.54,2427.89 C3064.28,2428.64 3064.74,2429.01 3064.93,2429.01"/>
<path class="FiguredBass" d="M3087.94,2585.69 C3087.26,2586.43 3086.37,2586.8 3085.25,2586.8 C3084.14,2586.8 3083.23,2586.42 3082.52,2585.64 C3081.8,2584.87 3081.45,2583.99 3081.45,2583 L3081.45,2569.73 L3068.18,2569.73 C3067.07,2569.73 3066.16,2569.35 3065.45,2568.57 C3064.73,2567.8 3064.38,2566.92 3064.38,2565.93 C3064.38,2564.94 3064.73,2564.06 3065.45,2563.29 C3066.16,2562.51 3067.07,2562.13 3068.18,2562.13 L3081.45,2562.13 L3081.45,2548.86 C3081.45,2547.87 3081.8,2546.99 3082.52,2546.22 C3083.23,2545.44 3084.14,2545.06 3085.25,2545.06 C3086.37,2545.06 3087.28,2545.44 3087.99,2546.22 C3088.7,2546.99 3089.06,2547.87 3089.06,2548.86 L3089.06,2562.13 L3102.32,2562.13 C3103.44,2562.13 3104.35,2562.51 3105.06,2563.29 C3105.77,2564.06 3106.13,2564.94 3106.13,2565.93 C3106.13,2566.92 3105.77,2567.8 3105.06,2568.57 C3104.35,2569.35 3103.44,2569.73 3102.32,2569.73 L3089.06,2569.73 L3089.06,2583 C3089.06,2583.99 3088.68,2584.89 3087.94,2585.69"/>
<path class="FiguredBass" d="M578.14,1797.3 C578.14,1798.29 578.697,1799.25 579.81,1800.18 C580.923,1801.1 582.145,1801.98 583.475,1802.82 C584.804,1803.65 586.026,1805.23 587.139,1807.55 C588.252,1809.87 588.809,1812.79 588.809,1816.32 C588.809,1823.12 586.242,1828.38 581.109,1832.09 C575.975,1835.8 569.481,1837.66 561.626,1837.66 C555.318,1837.66 549.829,1836.08 545.159,1832.92 C540.49,1829.77 538.155,1825.63 538.155,1820.49 C538.155,1817.77 539.144,1815.41 541.124,1813.4 C543.103,1811.39 545.468,1810.38 548.221,1810.38 C550.973,1810.38 553.308,1811.37 555.225,1813.35 C557.142,1815.33 558.101,1817.71 558.101,1820.49 C558.101,1821.73 557.081,1823.08 555.04,1824.53 C552.999,1825.98 551.978,1827.33 551.978,1828.56 C551.978,1830.48 552.921,1831.89 554.808,1832.79 C556.694,1833.68 558.967,1834.13 561.626,1834.13 C565.09,1834.13 567.548,1832.41 569.002,1828.98 C570.455,1825.55 571.182,1821.33 571.182,1816.32 L571.182,1813.91 C571.182,1810.57 571.074,1808.03 570.857,1806.3 C570.641,1804.57 569.961,1803.02 568.816,1801.66 C567.672,1800.3 565.925,1799.62 563.575,1799.62 L551.421,1799.62 C549.999,1799.62 549.288,1798.85 549.288,1797.3 C549.288,1795.88 549.999,1795.17 551.421,1795.17 L563.575,1795.17 C566.111,1795.17 568.09,1794.21 569.512,1792.29 C570.007,1791.61 570.409,1790.5 570.718,1788.95 C571.028,1786.91 571.182,1783.97 571.182,1780.14 L571.182,1778.93 C571.182,1769.72 567.78,1765.11 560.977,1765.11 C554.978,1765.11 551.978,1766.78 551.978,1770.12 C551.978,1771.23 552.89,1772.42 554.715,1773.69 C556.539,1774.96 557.452,1776.15 557.452,1777.26 C557.452,1779.67 556.601,1781.74 554.9,1783.48 C553.2,1785.21 551.128,1786.07 548.685,1786.07 C546.242,1786.07 544.185,1785.21 542.515,1783.48 C540.845,1781.74 540.01,1779.67 540.01,1777.26 C540.01,1772.5 542.082,1768.69 546.226,1765.85 C550.37,1763 555.287,1761.58 560.977,1761.58 C568.461,1761.58 574.615,1763.02 579.439,1765.9 C584.263,1768.77 586.675,1773.12 586.675,1778.93 C586.675,1783.07 586.242,1786.29 585.376,1788.58 C584.511,1790.87 583.521,1792.26 582.408,1792.75 C581.294,1793.25 580.305,1793.82 579.439,1794.47 C578.573,1795.12 578.14,1796.06 578.14,1797.3"/>
<path class="FiguredBass" d="M543.165,1874.2 C543.35,1874.2 543.752,1873.8 544.371,1872.99 C547.03,1869.22 550.741,1867.33 555.503,1867.33 C559.338,1867.33 562.956,1868.75 566.358,1871.6 C569.76,1874.44 572.574,1875.87 574.8,1875.87 C577.212,1875.87 579.501,1875.16 581.666,1873.73 C583.83,1872.31 585.547,1870.89 586.814,1869.47 C588.082,1868.04 588.902,1867.33 589.273,1867.33 C589.891,1867.33 590.448,1867.53 590.943,1867.93 C591.438,1868.34 591.685,1868.85 591.685,1869.47 C591.685,1869.9 590.417,1872.03 587.881,1875.87 C585.346,1879.7 582.531,1884.14 579.439,1889.18 C576.347,1894.22 573.532,1900.51 570.997,1908.06 C568.461,1915.61 567.193,1922.81 567.193,1929.68 C567.193,1932.34 567.471,1935.4 568.028,1938.86 C568.461,1941.52 568.461,1943.04 568.028,1943.41 C567.719,1943.72 567.193,1943.87 566.451,1943.87 C566.141,1943.87 564.703,1943.47 562.137,1942.66 C559.57,1941.86 557.111,1941.46 554.761,1941.46 C552.658,1941.46 550.231,1941.86 547.479,1942.66 C544.726,1943.47 543.195,1943.87 542.886,1943.87 C542.206,1943.87 541.649,1943.59 541.216,1943.04 C540.783,1942.48 540.722,1941.89 541.031,1941.27 C544.68,1932.55 549.118,1924.06 554.344,1915.81 C559.57,1907.55 566.111,1898.04 573.965,1887.28 C570.997,1888.89 567.997,1889.69 564.966,1889.69 C561.75,1889.69 558.503,1888.25 555.225,1885.38 C551.947,1882.5 549.257,1881.06 547.154,1881.06 C545.608,1881.06 544.262,1881.94 543.118,1883.71 C541.974,1885.47 541.402,1888.11 541.402,1891.64 L541.402,1903.05 C541.402,1904.6 540.691,1905.37 539.268,1905.37 C537.722,1905.37 536.949,1904.6 536.949,1903.05 L536.949,1869.65 C536.949,1868.11 537.722,1867.33 539.268,1867.33 C540.691,1867.33 541.402,1868.11 541.402,1869.65 L541.402,1871.79 C541.402,1872.28 541.526,1872.71 541.773,1873.08 C542.515,1873.83 542.979,1874.2 543.165,1874.2"/>
<path class="FiguredBass" d="M2396.73,1797.3 C2396.73,1798.29 2397.29,1799.25 2398.4,1800.18 C2399.52,1801.1 2400.74,1801.98 2402.07,1802.82 C2403.4,1803.65 2404.62,1805.23 2405.73,1807.55 C2406.85,1809.87 2407.4,1812.79 2407.4,1816.32 C2407.4,1823.12 2404.84,1828.38 2399.7,1832.09 C2394.57,1835.8 2388.07,1837.66 2380.22,1837.66 C2373.91,1837.66 2368.42,1836.08 2363.75,1832.92 C2359.08,1829.77 2356.75,1825.63 2356.75,1820.49 C2356.75,1817.77 2357.74,1815.41 2359.72,1813.4 C2361.7,1811.39 2364.06,1810.38 2366.81,1810.38 C2369.57,1810.38 2371.9,1811.37 2373.82,1813.35 C2375.74,1815.33 2376.69,1817.71 2376.69,1820.49 C2376.69,1821.73 2375.67,1823.08 2373.63,1824.53 C2371.59,1825.98 2370.57,1827.33 2370.57,1828.56 C2370.57,1830.48 2371.51,1831.89 2373.4,1832.79 C2375.29,1833.68 2377.56,1834.13 2380.22,1834.13 C2383.68,1834.13 2386.14,1832.41 2387.6,1828.98 C2389.05,1825.55 2389.78,1821.33 2389.78,1816.32 L2389.78,1813.91 C2389.78,1810.57 2389.67,1808.03 2389.45,1806.3 C2389.23,1804.57 2388.55,1803.02 2387.41,1801.66 C2386.27,1800.3 2384.52,1799.62 2382.17,1799.62 L2370.01,1799.62 C2368.59,1799.62 2367.88,1798.85 2367.88,1797.3 C2367.88,1795.88 2368.59,1795.17 2370.01,1795.17 L2382.17,1795.17 C2384.7,1795.17 2386.68,1794.21 2388.11,1792.29 C2388.6,1791.61 2389,1790.5 2389.31,1788.95 C2389.62,1786.91 2389.78,1783.97 2389.78,1780.14 L2389.78,1778.93 C2389.78,1769.72 2386.37,1765.11 2379.57,1765.11 C2373.57,1765.11 2370.57,1766.78 2370.57,1770.12 C2370.57,1771.23 2371.48,1772.42 2373.31,1773.69 C2375.13,1774.96 2376.05,1776.15 2376.05,1777.26 C2376.05,1779.67 2375.19,1781.74 2373.49,1783.48 C2371.79,1785.21 2369.72,1786.07 2367.28,1786.07 C2364.84,1786.07 2362.78,1785.21 2361.11,1783.48 C2359.44,1781.74 2358.6,1779.67 2358.6,1777.26 C2358.6,1772.5 2360.68,1768.69 2364.82,1765.85 C2368.96,1763 2373.88,1761.58 2379.57,1761.58 C2387.05,1761.58 2393.21,1763.02 2398.03,1765.9 C2402.86,1768.77 2405.27,1773.12 2405.27,1778.93 C2405.27,1783.07 2404.84,1786.29 2403.97,1788.58 C2403.1,1790.87 2402.11,1792.26 2401,1792.75 C2399.89,1793.25 2398.9,1793.82 2398.03,1794.47 C2397.17,1795.12 2396.73,1796.06 2396.73,1797.3"/>
<path class="FiguredBass" d="M2361.76,1874.2 C2361.94,1874.2 2362.35,1873.8 2362.96,1872.99 C2365.62,1869.22 2369.33,1867.33 2374.1,1867.33 C2377.93,1867.33 2381.55,1868.75 2384.95,1871.6 C2388.35,1874.44 2391.17,1875.87 2393.39,1875.87 C2395.81,1875.87 2398.09,1875.16 2400.26,1873.73 C2402.42,1872.31 2404.14,1870.89 2405.41,1869.47 C2406.68,1868.04 2407.5,1867.33 2407.87,1867.33 C2408.48,1867.33 2409.04,1867.53 2409.54,1867.93 C2410.03,1868.34 2410.28,1868.85 2410.28,1869.47 C2410.28,1869.9 2409.01,1872.03 2406.47,1875.87 C2403.94,1879.7 2401.12,1884.14 2398.03,1889.18 C2394.94,1894.22 2392.13,1900.51 2389.59,1908.06 C2387.05,1915.61 2385.79,1922.81 2385.79,1929.68 C2385.79,1932.34 2386.06,1935.4 2386.62,1938.86 C2387.05,1941.52 2387.05,1943.04 2386.62,1943.41 C2386.31,1943.72 2385.79,1943.87 2385.04,1943.87 C2384.73,1943.87 2383.3,1943.47 2380.73,1942.66 C2378.16,1941.86 2375.71,1941.46 2373.35,1941.46 C2371.25,1941.46 2368.82,1941.86 2366.07,1942.66 C2363.32,1943.47 2361.79,1943.87 2361.48,1943.87 C2360.8,1943.87 2360.24,1943.59 2359.81,1943.04 C2359.38,1942.48 2359.32,1941.89 2359.62,1941.27 C2363.27,1932.55 2367.71,1924.06 2372.94,1915.81 C2378.16,1907.55 2384.7,1898.04 2392.56,1887.28 C2389.59,1888.89 2386.59,1889.69 2383.56,1889.69 C2380.34,1889.69 2377.1,1888.25 2373.82,1885.38 C2370.54,1882.5 2367.85,1881.06 2365.75,1881.06 C2364.2,1881.06 2362.86,1881.94 2361.71,1883.71 C2360.57,1885.47 2360,1888.11 2360,1891.64 L2360,1903.05 C2360,1904.6 2359.28,1905.37 2357.86,1905.37 C2356.32,1905.37 2355.54,1904.6 2355.54,1903.05 L2355.54,1869.65 C2355.54,1868.11 2356.32,1867.33 2357.86,1867.33 C2359.28,1867.33 2360,1868.11 2360,1869.65 L2360,1871.79 C2360,1872.28 2360.12,1872.71 2360.37,1873.08 C2361.11,1873.83 2361.57,1874.2 2361.76,1874.2"/>
<polyline class="FretDiagram" stroke="#fc0107" stroke-width="4.76" stroke-linejoin="bevel" points="462.646,227.452 675.755,227.452"/>
<polyline class="FretDiagram" stroke="#fc0107" stroke-width="4.76" stroke-linejoin="bevel" points="465.027,215.547 465.027,441.751"/>
<polyline class="FretDiagram" stroke="#fc0107" stroke-width="4.76" stroke-linejoin="bevel" points="506.696,215.547 506.696,441.751"/>
<polyline class="FretDiagram" stroke="#fc0107" stroke-width="4.76" stroke-linejoin="bevel" points="548.366,215.547 548.366,441.751"/>
<polyline class="FretDiagram" stroke="#fc0107" stroke-width="4.76" stroke-linejoin="bevel" points="590.035,215.547 590.035,441.751"/>
<polyline class="FretDiagram" stroke="#fc0107" stroke-width="4.76" stroke-linejoin="bevel" points="631.704,215.547 631.704,441.751"/>
<polyline class="FretDiagram" stroke="#fc0107" stroke-width="4.76" stroke-linejoin="bevel" points="673.373,215.547 673.373,441.751"/>
<polyline class="FretDiagram" stroke="#fc0107" stroke-width="4.76" stroke-linejoin="bevel" points="465.027,275.074 673.373,275.074"/>
<polyline class="FretDiagram" stroke="#fc0107" stroke-width="4.76" stroke-linejoin="bevel" points="465.027,322.696 673.373,322.696"/>
<polyline class="FretDiagram" stroke="#fc0107" stroke-width="4.76" stroke-linejoin="bevel" points="465.027,370.318 673.373,370.318"/>
<polyline class="FretDiagram" stroke="#fc0107" stroke-width="4.76" stroke-linejoin="bevel" points="465.027,417.94 673.373,417.94"/>
<path class="FretDiagram" fill="#fc0107" fill-rule="evenodd" d="M562.95,251.263 C562.95,259.318 556.42,265.847 548.366,265.847 C540.311,265.847 533.781,259.318 533.781,251.263 C533.781,243.208 540.311,236.679 548.366,236.679 C556.42,236.679 562.95,243.208 562.95,251.263"/>
<path class="FretDiagram" fill="#fc0107" fill-rule="evenodd" d="M646.288,298.885 C646.288,306.94 639.759,313.469 631.704,313.469 C623.649,313.469 617.12,306.94 617.12,298.885 C617.12,290.83 623.649,284.301 631.704,284.301 C639.759,284.301 646.288,290.83 646.288,298.885"/>
<path class="FretDiagram" fill="#fc0107" fill-rule="evenodd" d="M687.958,298.885 C687.958,306.94 681.428,313.469 673.373,313.469 C665.319,313.469 658.789,306.94 658.789,298.885 C658.789,290.83 665.319,284.301 673.373,284.301 C681.428,284.301 687.958,290.83 687.958,298.885"/>
<polyline class="FretDiagram" fill="none" stroke="#fc0107" stroke-width="6.86" stroke-linecap="round" stroke-linejoin="bevel" points="448.359,163.162 481.695,196.498"/>
<polyline class="FretDiagram" fill="none" stroke="#fc0107" stroke-width="6.86" stroke-linecap="round" stroke-linejoin="bevel" points="448.359,196.498 481.695,163.162"/>
<polyline class="FretDiagram" fill="none" stroke="#fc0107" stroke-width="6.86" stroke-linecap="round" stroke-linejoin="bevel" points="490.029,163.162 523.364,196.498"/>
<polyline class="FretDiagram" fill="none" stroke="#fc0107" stroke-width="6.86" stroke-linecap="round" stroke-linejoin="bevel" points="490.029,196.498 523.364,163.162"/>
<polyline class="FretDiagram" fill="none" stroke="#fc0107" stroke-width="6.86" stroke-linecap="round" stroke-linejoin="bevel" points="573.367,163.162 606.703,196.498"/>
<polyline class="FretDiagram" fill="none" stroke="#fc0107" stroke-width="6.86" stroke-linecap="round" stroke-linejoin="bevel" points="573.367,196.498 606.703,163.162"/>
<path class="FretDiagram" fill="#fc0107" d="M426.623,268.365 L398.218,268.365 L398.218,259.53 L428.808,217.16 L434.983,217.16 L434.983,260.86 L444.958,260.86 L444.958,268.365 L434.983,268.365 L434.983,284.515 L426.623,284.515 L426.623,268.365 M426.623,260.86 L426.623,231.41 L405.533,260.86 L426.623,260.86 "/>
<path class="Bracket" transform="matrix(8.6315,0,0,8.98671,76.1283,2290.48)" d="M0.92002,-50 C2.69004,-51.88 6.2,-55.8 6.2,-63 C6.2,-72.1 2.25996,-81.32 2.25996,-86.97 C2.25996,-93.06 5.84004,-98.84 5.95,-99 C6.05996,-99.16 6.05,-99.39 5.94004,-99.46 C5.82998,-99.53 5.62002,-99.47 5.49004,-99.32 C5.35996,-99.17 0,-93.75 0,-85.6 C0,-76.75 3.5,-70.58 3.5,-59.07 C3.5,-56.89 2.55996,-53.36 0.1,-50.33 C-0.0799805,-50.17 -0.1,-49.89 0.0599609,-49.7 L0.0700195,-49.69 L0.1,-49.66 C2.55996,-46.63 3.5,-43.1 3.5,-40.92 C3.5,-29.4 0,-23.24 0,-14.39 C0,-6.25 5.35996,-0.8 5.49004,-0.659961 C5.62002,-0.52002 5.8,-0.42998 5.94004,-0.52002 C6.07998,-0.609961 6.07998,-0.77998 5.95,-0.97998 C5.82002,-1.17998 2.25996,-6.92002 2.25996,-13.01 C2.25996,-18.66 6.2,-27.9 6.2,-37 C6.2,-44.3 2.69004,-48.12 0.92002,-50"/>
</svg>
