<?xml version="1.0" encoding="UTF-8" standalone="no"?>
<svg width="4209.44px" height="2976.38px" viewBox="0 0 4209.44 2976.38"
 xmlns="http://www.w3.org/2000/svg" xmlns:xlink="http://www.w3.org/1999/xlink" version="1.2" baseProfile="tiny">
<title>LaMineur (33)</title>
<desc>Generated by MuseScore 3.6.2</desc>
<polyline class="StaffLines" fill="none" stroke="#000000" stroke-width="6.55" stroke-linejoin="bevel" points="153.819,558.425 4138.58,558.425"/>
<polyline class="StaffLines" fill="none" stroke="#000000" stroke-width="6.55" stroke-linejoin="bevel" points="153.819,647.717 4138.58,647.717"/>
<polyline class="StaffLines" fill="none" stroke="#000000" stroke-width="6.55" stroke-linejoin="bevel" points="153.819,737.008 4138.58,737.008"/>
<polyline class="StaffLines" fill="none" stroke="#000000" stroke-width="6.55" stroke-linejoin="bevel" points="153.819,826.299 4138.58,826.299"/>
<polyline class="StaffLines" fill="none" stroke="#000000" stroke-width="6.55" stroke-linejoin="bevel" points="153.819,915.591 4138.58,915.591"/>
<polyline class="StaffLines" fill="none" stroke="#000000" stroke-width="6.55" stroke-linejoin="bevel" points="153.819,1004.88 4138.58,1004.88"/>
<polyline class="StaffLines" fill="none" stroke="#000000" stroke-width="6.55" stroke-linejoin="bevel" points="153.819,1391.81 4138.58,1391.81"/>
<polyline class="StaffLines" fill="none" stroke="#000000" stroke-width="6.55" stroke-linejoin="bevel" points="153.819,1451.34 4138.58,1451.34"/>
<polyline class="StaffLines" fill="none" stroke="#000000" stroke-width="6.55" stroke-linejoin="bevel" points="153.819,1510.87 4138.58,1510.87"/>
<polyline class="StaffLines" fill="none" stroke="#000000" stroke-width="6.55" stroke-linejoin="bevel" points="153.819,1570.39 4138.58,1570.39"/>
<polyline class="StaffLines" fill="none" stroke="#000000" stroke-width="6.55" stroke-linejoin="bevel" points="153.819,1629.92 4138.58,1629.92"/>
<polyline class="StaffLines" fill="none" stroke="#000000" stroke-width="6.55" stroke-linejoin="bevel" points="153.819,2016.85 4138.58,2016.85"/>
<polyline class="StaffLines" fill="none" stroke="#000000" stroke-width="6.55" stroke-linejoin="bevel" points="153.819,2076.38 4138.58,2076.38"/>
<polyline class="StaffLines" fill="none" stroke="#000000" stroke-width="6.55" stroke-linejoin="bevel" points="153.819,2135.91 4138.58,2135.91"/>
<polyline class="StaffLines" fill="none" stroke="#000000" stroke-width="6.55" stroke-linejoin="bevel" points="153.819,2195.43 4138.58,2195.43"/>
<polyline class="StaffLines" fill="none" stroke="#000000" stroke-width="6.55" stroke-linejoin="bevel" points="153.819,2254.96 4138.58,2254.96"/>
<polyline class="BarLine" fill="none" stroke="#000000" stroke-width="10.71" stroke-linejoin="bevel" points="159.176,2013.58 159.176,2258.23"/>
<polyline class="BarLine" fill="none" stroke="#000000" stroke-width="10.71" stroke-linejoin="bevel" points="844.581,2013.58 844.581,2258.23"/>
<polyline class="BarLine" fill="none" stroke="#000000" stroke-width="10.71" stroke-linejoin="bevel" points="1288.54,2013.58 1288.54,2258.23"/>
<polyline class="BarLine" fill="none" stroke="#000000" stroke-width="10.71" stroke-linejoin="bevel" points="1758.75,2013.58 1758.75,2258.23"/>
<polyline class="BarLine" fill="none" stroke="#000000" stroke-width="10.71" stroke-linejoin="bevel" points="2220.1,2013.58 2220.1,2258.23"/>
<polyline class="BarLine" fill="none" stroke="#000000" stroke-width="10.71" stroke-linejoin="bevel" points="2681.45,2013.58 2681.45,2258.23"/>
<polyline class="BarLine" fill="none" stroke="#000000" stroke-width="10.71" stroke-linejoin="bevel" points="3122.16,2013.58 3122.16,2258.23"/>
<polyline class="BarLine" fill="none" stroke="#000000" stroke-width="10.71" stroke-linejoin="bevel" points="3661.01,2013.58 3661.01,2258.23"/>
<polyline class="BarLine" fill="none" stroke="#000000" stroke-width="10.71" stroke-linejoin="bevel" points="4080.54,2013.58 4080.54,2258.23"/>
<polyline class="BarLine" fill="none" stroke="#000000" stroke-width="32.74" stroke-linejoin="bevel" points="4122.21,2013.58 4122.21,2258.23"/>
<polyline class="BarLine" fill="none" stroke="#000000" stroke-width="10.71" stroke-linejoin="bevel" points="159.176,1388.54 159.176,2016.85"/>
<polyline class="BarLine" fill="none" stroke="#000000" stroke-width="10.71" stroke-linejoin="bevel" points="844.581,1388.54 844.581,1633.2"/>
<polyline class="BarLine" fill="none" stroke="#000000" stroke-width="10.71" stroke-linejoin="bevel" points="1288.54,1388.54 1288.54,1633.2"/>
<polyline class="BarLine" fill="none" stroke="#000000" stroke-width="10.71" stroke-linejoin="bevel" points="1758.75,1388.54 1758.75,1633.2"/>
<polyline class="BarLine" fill="none" stroke="#000000" stroke-width="10.71" stroke-linejoin="bevel" points="2220.1,1388.54 2220.1,1633.2"/>
<polyline class="BarLine" fill="none" stroke="#000000" stroke-width="10.71" stroke-linejoin="bevel" points="2681.45,1388.54 2681.45,1633.2"/>
<polyline class="BarLine" fill="none" stroke="#000000" stroke-width="10.71" stroke-linejoin="bevel" points="3122.16,1388.54 3122.16,1633.2"/>
<polyline class="BarLine" fill="none" stroke="#000000" stroke-width="10.71" stroke-linejoin="bevel" points="3661.01,1388.54 3661.01,1633.2"/>
<polyline class="BarLine" fill="none" stroke="#000000" stroke-width="10.71" stroke-linejoin="bevel" points="4080.54,1388.54 4080.54,1633.2"/>
<polyline class="BarLine" fill="none" stroke="#000000" stroke-width="32.74" stroke-linejoin="bevel" points="4122.21,1388.54 4122.21,1633.2"/>
<polyline class="BarLine" fill="none" stroke="#000000" stroke-width="10.71" stroke-linejoin="bevel" points="159.176,555.151 159.176,1391.81"/>
<polyline class="BarLine" fill="none" stroke="#000000" stroke-width="10.71" stroke-linejoin="bevel" points="844.581,555.151 844.581,1008.16"/>
<polyline class="BarLine" fill="none" stroke="#000000" stroke-width="10.71" stroke-linejoin="bevel" points="1288.54,555.151 1288.54,1008.16"/>
<polyline class="BarLine" fill="none" stroke="#000000" stroke-width="10.71" stroke-linejoin="bevel" points="1758.75,555.151 1758.75,1008.16"/>
<polyline class="BarLine" fill="none" stroke="#000000" stroke-width="10.71" stroke-linejoin="bevel" points="2220.1,555.151 2220.1,1008.16"/>
<polyline class="BarLine" fill="none" stroke="#000000" stroke-width="10.71" stroke-linejoin="bevel" points="2681.45,555.151 2681.45,1008.16"/>
<polyline class="BarLine" fill="none" stroke="#000000" stroke-width="10.71" stroke-linejoin="bevel" points="3122.16,555.151 3122.16,1008.16"/>
<polyline class="BarLine" fill="none" stroke="#000000" stroke-width="10.71" stroke-linejoin="bevel" points="3661.01,555.151 3661.01,1008.16"/>
<polyline class="BarLine" fill="none" stroke="#000000" stroke-width="10.71" stroke-linejoin="bevel" points="4080.54,555.151 4080.54,1008.16"/>
<polyline class="BarLine" fill="none" stroke="#000000" stroke-width="32.74" stroke-linejoin="bevel" points="4122.21,555.151 4122.21,1008.16"/>
<path class="Accidental" transform="matrix(2.3811,0,0,2.3811,907.447,2046.61)" d="M16.6,-18.3 C16.4,-18.5 16.1,-18.6 15.8,-18.6 C15.7,-18.6 15.5,-18.5 15.4,-18.5 L2.8,-15 L2.8,-32.5 L0,-32.5 L0,17 C0,17.8 0.6,18.3 1.4,18.3 L1.8,18.3 L14.4,14.8 L14.4,32.3 L17.1,32.3 L17.1,-17.2 C17.1,-17.6 16.9,-18.1 16.6,-18.3 M14.4,6.5 L2.8,9.7 L2.8,-6.7 L14.4,-10 L14.4,6.5 "/>
<path class="Accidental" transform="matrix(2.3811,0,0,2.3811,1364.98,2076.38)" d="M16.6,-18.3 C16.4,-18.5 16.1,-18.6 15.8,-18.6 C15.7,-18.6 15.5,-18.5 15.4,-18.5 L2.8,-15 L2.8,-32.5 L0,-32.5 L0,17 C0,17.8 0.6,18.3 1.4,18.3 L1.8,18.3 L14.4,14.8 L14.4,32.3 L17.1,32.3 L17.1,-17.2 C17.1,-17.6 16.9,-18.1 16.6,-18.3 M14.4,6.5 L2.8,9.7 L2.8,-6.7 L14.4,-10 L14.4,6.5 "/>
<path class="Accidental" transform="matrix(2.3811,0,0,2.3811,1821.62,1570.39)" d="M23.3,-10.6 C23.9,-10.7 24.4,-11.4 24.4,-12 L24.4,-17.9 C24.4,-18.7 23.8,-19.3 23,-19.3 L22.8,-19.3 L19.5,-18.6 L19.5,-33.5 L16.7,-33.5 L16.7,-18 L7.8,-16.2 L7.8,-30.3 L5,-30.3 L5,-15.6 L1.1,-14.8 C0.5,-14.7 0,-14 0,-13.4 L0,-13.2 L0,-7.4 L0,-7.6 C0,-6.8 0.6,-6.2 1.4,-6.2 L1.7,-6.2 L5,-6.9 L5,9.6 L1.1,10.4 C0.5,10.5 0,11.2 0,11.8 L0,17.6 C0,18.4 0.6,19 1.4,19 L1.7,19 L5,18.3 L5,33.2 L7.8,33.2 L7.8,17.7 L16.7,15.9 L16.7,30 L19.5,30 L19.5,15.3 L23.3,14.6 C23.9,14.5 24.4,13.8 24.4,13.2 L24.4,7.3 C24.4,6.5 23.8,5.9 23,5.9 L22.8,5.9 L19.5,6.6 L19.5,-9.9 L23.3,-10.6 M7.8,9.1 L7.8,-7.5 L16.7,-9.3 L16.7,7.2 L7.8,9.1 "/>
<path class="Accidental" transform="matrix(2.3811,0,0,2.3811,2282.96,1570.39)" d="M23.3,-10.6 C23.9,-10.7 24.4,-11.4 24.4,-12 L24.4,-17.9 C24.4,-18.7 23.8,-19.3 23,-19.3 L22.8,-19.3 L19.5,-18.6 L19.5,-33.5 L16.7,-33.5 L16.7,-18 L7.8,-16.2 L7.8,-30.3 L5,-30.3 L5,-15.6 L1.1,-14.8 C0.5,-14.7 0,-14 0,-13.4 L0,-13.2 L0,-7.4 L0,-7.6 C0,-6.8 0.6,-6.2 1.4,-6.2 L1.7,-6.2 L5,-6.9 L5,9.6 L1.1,10.4 C0.5,10.5 0,11.2 0,11.8 L0,17.6 C0,18.4 0.6,19 1.4,19 L1.7,19 L5,18.3 L5,33.2 L7.8,33.2 L7.8,17.7 L16.7,15.9 L16.7,30 L19.5,30 L19.5,15.3 L23.3,14.6 C23.9,14.5 24.4,13.8 24.4,13.2 L24.4,7.3 C24.4,6.5 23.8,5.9 23,5.9 L22.8,5.9 L19.5,6.6 L19.5,-9.9 L23.3,-10.6 M7.8,9.1 L7.8,-7.5 L16.7,-9.3 L16.7,7.2 L7.8,9.1 "/>
<path class="Accidental" transform="matrix(2.3811,0,0,2.3811,3185.02,1570.39)" d="M23.3,-10.6 C23.9,-10.7 24.4,-11.4 24.4,-12 L24.4,-17.9 C24.4,-18.7 23.8,-19.3 23,-19.3 L22.8,-19.3 L19.5,-18.6 L19.5,-33.5 L16.7,-33.5 L16.7,-18 L7.8,-16.2 L7.8,-30.3 L5,-30.3 L5,-15.6 L1.1,-14.8 C0.5,-14.7 0,-14 0,-13.4 L0,-13.2 L0,-7.4 L0,-7.6 C0,-6.8 0.6,-6.2 1.4,-6.2 L1.7,-6.2 L5,-6.9 L5,9.6 L1.1,10.4 C0.5,10.5 0,11.2 0,11.8 L0,17.6 C0,18.4 0.6,19 1.4,19 L1.7,19 L5,18.3 L5,33.2 L7.8,33.2 L7.8,17.7 L16.7,15.9 L16.7,30 L19.5,30 L19.5,15.3 L23.3,14.6 C23.9,14.5 24.4,13.8 24.4,13.2 L24.4,7.3 C24.4,6.5 23.8,5.9 23,5.9 L22.8,5.9 L19.5,6.6 L19.5,-9.9 L23.3,-10.6 M7.8,9.1 L7.8,-7.5 L16.7,-9.3 L16.7,7.2 L7.8,9.1 "/>
<path class="Note" transform="matrix(2.3811,0,0,2.3811,519.076,2016.85)" d="M18.7,-13.6 C4.9,-13.6 0,-6.6 0,-0.1 C0,6.4 4.9,13.4 18.7,13.4 C32.5,13.4 37.3,6.4 37.3,-0.1 C37.3,-6.6 32.5,-13.6 18.7,-13.6 M10.4,-4.5 C10.3,-4.9 10.3,-5.3 10.3,-5.7 C10.3,-6.5 10.5,-7.3 10.9,-8 C11.6,-9 12.8,-9.7 14.3,-10 C15.6,-10.3 16.3,-10.5 18.9,-10.5 L19,-10.5 C23,-10.5 24.3,-6.8 25.4,-3 L25.7,-2 C26.5,0.6 26.9,2.8 26.9,4.5 C26.9,5.7 26.7,6.8 26.3,7.6 C25.7,8.7 24.7,9.4 23,9.8 C22.1,10 20.6,10.1 20.6,10.1 C20.1,10.1 19.7,10.2 19.3,10.2 C16.1,10.2 14.1,9 12.7,4.7 C11.5,1 11.3,-0.1 10.4,-4.5"/>
<path class="Note" transform="matrix(2.3811,0,0,2.3811,963.031,2046.61)" d="M18.7,-13.6 C4.9,-13.6 0,-6.6 0,-0.1 C0,6.4 4.9,13.4 18.7,13.4 C32.5,13.4 37.3,6.4 37.3,-0.1 C37.3,-6.6 32.5,-13.6 18.7,-13.6 M10.4,-4.5 C10.3,-4.9 10.3,-5.3 10.3,-5.7 C10.3,-6.5 10.5,-7.3 10.9,-8 C11.6,-9 12.8,-9.7 14.3,-10 C15.6,-10.3 16.3,-10.5 18.9,-10.5 L19,-10.5 C23,-10.5 24.3,-6.8 25.4,-3 L25.7,-2 C26.5,0.6 26.9,2.8 26.9,4.5 C26.9,5.7 26.7,6.8 26.3,7.6 C25.7,8.7 24.7,9.4 23,9.8 C22.1,10 20.6,10.1 20.6,10.1 C20.1,10.1 19.7,10.2 19.3,10.2 C16.1,10.2 14.1,9 12.7,4.7 C11.5,1 11.3,-0.1 10.4,-4.5"/>
<path class="Note" transform="matrix(2.3811,0,0,2.3811,1420.57,2076.38)" d="M18.7,-13.6 C4.9,-13.6 0,-6.6 0,-0.1 C0,6.4 4.9,13.4 18.7,13.4 C32.5,13.4 37.3,6.4 37.3,-0.1 C37.3,-6.6 32.5,-13.6 18.7,-13.6 M10.4,-4.5 C10.3,-4.9 10.3,-5.3 10.3,-5.7 C10.3,-6.5 10.5,-7.3 10.9,-8 C11.6,-9 12.8,-9.7 14.3,-10 C15.6,-10.3 16.3,-10.5 18.9,-10.5 L19,-10.5 C23,-10.5 24.3,-6.8 25.4,-3 L25.7,-2 C26.5,0.6 26.9,2.8 26.9,4.5 C26.9,5.7 26.7,6.8 26.3,7.6 C25.7,8.7 24.7,9.4 23,9.8 C22.1,10 20.6,10.1 20.6,10.1 C20.1,10.1 19.7,10.2 19.3,10.2 C16.1,10.2 14.1,9 12.7,4.7 C11.5,1 11.3,-0.1 10.4,-4.5"/>
<path class="Note" transform="matrix(2.3811,0,0,2.3811,1894.59,2106.14)" d="M18.7,-13.6 C4.9,-13.6 0,-6.6 0,-0.1 C0,6.4 4.9,13.4 18.7,13.4 C32.5,13.4 37.3,6.4 37.3,-0.1 C37.3,-6.6 32.5,-13.6 18.7,-13.6 M10.4,-4.5 C10.3,-4.9 10.3,-5.3 10.3,-5.7 C10.3,-6.5 10.5,-7.3 10.9,-8 C11.6,-9 12.8,-9.7 14.3,-10 C15.6,-10.3 16.3,-10.5 18.9,-10.5 L19,-10.5 C23,-10.5 24.3,-6.8 25.4,-3 L25.7,-2 C26.5,0.6 26.9,2.8 26.9,4.5 C26.9,5.7 26.7,6.8 26.3,7.6 C25.7,8.7 24.7,9.4 23,9.8 C22.1,10 20.6,10.1 20.6,10.1 C20.1,10.1 19.7,10.2 19.3,10.2 C16.1,10.2 14.1,9 12.7,4.7 C11.5,1 11.3,-0.1 10.4,-4.5"/>
<path class="Note" transform="matrix(2.3811,0,0,2.3811,2355.94,2135.91)" d="M18.7,-13.6 C4.9,-13.6 0,-6.6 0,-0.1 C0,6.4 4.9,13.4 18.7,13.4 C32.5,13.4 37.3,6.4 37.3,-0.1 C37.3,-6.6 32.5,-13.6 18.7,-13.6 M10.4,-4.5 C10.3,-4.9 10.3,-5.3 10.3,-5.7 C10.3,-6.5 10.5,-7.3 10.9,-8 C11.6,-9 12.8,-9.7 14.3,-10 C15.6,-10.3 16.3,-10.5 18.9,-10.5 L19,-10.5 C23,-10.5 24.3,-6.8 25.4,-3 L25.7,-2 C26.5,0.6 26.9,2.8 26.9,4.5 C26.9,5.7 26.7,6.8 26.3,7.6 C25.7,8.7 24.7,9.4 23,9.8 C22.1,10 20.6,10.1 20.6,10.1 C20.1,10.1 19.7,10.2 19.3,10.2 C16.1,10.2 14.1,9 12.7,4.7 C11.5,1 11.3,-0.1 10.4,-4.5"/>
<path class="Note" transform="matrix(2.3811,0,0,2.3811,2769.91,2165.67)" d="M18.7,-13.6 C4.9,-13.6 0,-6.6 0,-0.1 C0,6.4 4.9,13.4 18.7,13.4 C32.5,13.4 37.3,6.4 37.3,-0.1 C37.3,-6.6 32.5,-13.6 18.7,-13.6 M10.4,-4.5 C10.3,-4.9 10.3,-5.3 10.3,-5.7 C10.3,-6.5 10.5,-7.3 10.9,-8 C11.6,-9 12.8,-9.7 14.3,-10 C15.6,-10.3 16.3,-10.5 18.9,-10.5 L19,-10.5 C23,-10.5 24.3,-6.8 25.4,-3 L25.7,-2 C26.5,0.6 26.9,2.8 26.9,4.5 C26.9,5.7 26.7,6.8 26.3,7.6 C25.7,8.7 24.7,9.4 23,9.8 C22.1,10 20.6,10.1 20.6,10.1 C20.1,10.1 19.7,10.2 19.3,10.2 C16.1,10.2 14.1,9 12.7,4.7 C11.5,1 11.3,-0.1 10.4,-4.5"/>
<path class="Note" transform="matrix(2.3811,0,0,2.3811,3335.51,1987.09)" d="M18.7,-13.6 C4.9,-13.6 0,-6.6 0,-0.1 C0,6.4 4.9,13.4 18.7,13.4 C32.5,13.4 37.3,6.4 37.3,-0.1 C37.3,-6.6 32.5,-13.6 18.7,-13.6 M10.4,-4.5 C10.3,-4.9 10.3,-5.3 10.3,-5.7 C10.3,-6.5 10.5,-7.3 10.9,-8 C11.6,-9 12.8,-9.7 14.3,-10 C15.6,-10.3 16.3,-10.5 18.9,-10.5 L19,-10.5 C23,-10.5 24.3,-6.8 25.4,-3 L25.7,-2 C26.5,0.6 26.9,2.8 26.9,4.5 C26.9,5.7 26.7,6.8 26.3,7.6 C25.7,8.7 24.7,9.4 23,9.8 C22.1,10 20.6,10.1 20.6,10.1 C20.1,10.1 19.7,10.2 19.3,10.2 C16.1,10.2 14.1,9 12.7,4.7 C11.5,1 11.3,-0.1 10.4,-4.5"/>
<path class="Note" transform="matrix(2.3811,0,0,2.3811,3749.48,2225.2)" d="M18.7,-13.6 C4.9,-13.6 0,-6.6 0,-0.1 C0,6.4 4.9,13.4 18.7,13.4 C32.5,13.4 37.3,6.4 37.3,-0.1 C37.3,-6.6 32.5,-13.6 18.7,-13.6 M10.4,-4.5 C10.3,-4.9 10.3,-5.3 10.3,-5.7 C10.3,-6.5 10.5,-7.3 10.9,-8 C11.6,-9 12.8,-9.7 14.3,-10 C15.6,-10.3 16.3,-10.5 18.9,-10.5 L19,-10.5 C23,-10.5 24.3,-6.8 25.4,-3 L25.7,-2 C26.5,0.6 26.9,2.8 26.9,4.5 C26.9,5.7 26.7,6.8 26.3,7.6 C25.7,8.7 24.7,9.4 23,9.8 C22.1,10 20.6,10.1 20.6,10.1 C20.1,10.1 19.7,10.2 19.3,10.2 C16.1,10.2 14.1,9 12.7,4.7 C11.5,1 11.3,-0.1 10.4,-4.5"/>
<path class="Note" transform="matrix(2.3811,0,0,2.3811,519.076,1540.63)" d="M18.7,-13.6 C4.9,-13.6 0,-6.6 0,-0.1 C0,6.4 4.9,13.4 18.7,13.4 C32.5,13.4 37.3,6.4 37.3,-0.1 C37.3,-6.6 32.5,-13.6 18.7,-13.6 M10.4,-4.5 C10.3,-4.9 10.3,-5.3 10.3,-5.7 C10.3,-6.5 10.5,-7.3 10.9,-8 C11.6,-9 12.8,-9.7 14.3,-10 C15.6,-10.3 16.3,-10.5 18.9,-10.5 L19,-10.5 C23,-10.5 24.3,-6.8 25.4,-3 L25.7,-2 C26.5,0.6 26.9,2.8 26.9,4.5 C26.9,5.7 26.7,6.8 26.3,7.6 C25.7,8.7 24.7,9.4 23,9.8 C22.1,10 20.6,10.1 20.6,10.1 C20.1,10.1 19.7,10.2 19.3,10.2 C16.1,10.2 14.1,9 12.7,4.7 C11.5,1 11.3,-0.1 10.4,-4.5"/>
<path class="Note" transform="matrix(2.3811,0,0,2.3811,519.076,1481.1)" d="M18.7,-13.6 C4.9,-13.6 0,-6.6 0,-0.1 C0,6.4 4.9,13.4 18.7,13.4 C32.5,13.4 37.3,6.4 37.3,-0.1 C37.3,-6.6 32.5,-13.6 18.7,-13.6 M10.4,-4.5 C10.3,-4.9 10.3,-5.3 10.3,-5.7 C10.3,-6.5 10.5,-7.3 10.9,-8 C11.6,-9 12.8,-9.7 14.3,-10 C15.6,-10.3 16.3,-10.5 18.9,-10.5 L19,-10.5 C23,-10.5 24.3,-6.8 25.4,-3 L25.7,-2 C26.5,0.6 26.9,2.8 26.9,4.5 C26.9,5.7 26.7,6.8 26.3,7.6 C25.7,8.7 24.7,9.4 23,9.8 C22.1,10 20.6,10.1 20.6,10.1 C20.1,10.1 19.7,10.2 19.3,10.2 C16.1,10.2 14.1,9 12.7,4.7 C11.5,1 11.3,-0.1 10.4,-4.5"/>
<path class="Note" transform="matrix(2.3811,0,0,2.3811,519.076,1421.57)" d="M18.7,-13.6 C4.9,-13.6 0,-6.6 0,-0.1 C0,6.4 4.9,13.4 18.7,13.4 C32.5,13.4 37.3,6.4 37.3,-0.1 C37.3,-6.6 32.5,-13.6 18.7,-13.6 M10.4,-4.5 C10.3,-4.9 10.3,-5.3 10.3,-5.7 C10.3,-6.5 10.5,-7.3 10.9,-8 C11.6,-9 12.8,-9.7 14.3,-10 C15.6,-10.3 16.3,-10.5 18.9,-10.5 L19,-10.5 C23,-10.5 24.3,-6.8 25.4,-3 L25.7,-2 C26.5,0.6 26.9,2.8 26.9,4.5 C26.9,5.7 26.7,6.8 26.3,7.6 C25.7,8.7 24.7,9.4 23,9.8 C22.1,10 20.6,10.1 20.6,10.1 C20.1,10.1 19.7,10.2 19.3,10.2 C16.1,10.2 14.1,9 12.7,4.7 C11.5,1 11.3,-0.1 10.4,-4.5"/>
<path class="Note" transform="matrix(2.3811,0,0,2.3811,963.031,1510.87)" d="M18.7,-13.6 C4.9,-13.6 0,-6.6 0,-0.1 C0,6.4 4.9,13.4 18.7,13.4 C32.5,13.4 37.3,6.4 37.3,-0.1 C37.3,-6.6 32.5,-13.6 18.7,-13.6 M10.4,-4.5 C10.3,-4.9 10.3,-5.3 10.3,-5.7 C10.3,-6.5 10.5,-7.3 10.9,-8 C11.6,-9 12.8,-9.7 14.3,-10 C15.6,-10.3 16.3,-10.5 18.9,-10.5 L19,-10.5 C23,-10.5 24.3,-6.8 25.4,-3 L25.7,-2 C26.5,0.6 26.9,2.8 26.9,4.5 C26.9,5.7 26.7,6.8 26.3,7.6 C25.7,8.7 24.7,9.4 23,9.8 C22.1,10 20.6,10.1 20.6,10.1 C20.1,10.1 19.7,10.2 19.3,10.2 C16.1,10.2 14.1,9 12.7,4.7 C11.5,1 11.3,-0.1 10.4,-4.5"/>
<path class="Note" transform="matrix(2.3811,0,0,2.3811,963.031,1421.57)" d="M18.7,-13.6 C4.9,-13.6 0,-6.6 0,-0.1 C0,6.4 4.9,13.4 18.7,13.4 C32.5,13.4 37.3,6.4 37.3,-0.1 C37.3,-6.6 32.5,-13.6 18.7,-13.6 M10.4,-4.5 C10.3,-4.9 10.3,-5.3 10.3,-5.7 C10.3,-6.5 10.5,-7.3 10.9,-8 C11.6,-9 12.8,-9.7 14.3,-10 C15.6,-10.3 16.3,-10.5 18.9,-10.5 L19,-10.5 C23,-10.5 24.3,-6.8 25.4,-3 L25.7,-2 C26.5,0.6 26.9,2.8 26.9,4.5 C26.9,5.7 26.7,6.8 26.3,7.6 C25.7,8.7 24.7,9.4 23,9.8 C22.1,10 20.6,10.1 20.6,10.1 C20.1,10.1 19.7,10.2 19.3,10.2 C16.1,10.2 14.1,9 12.7,4.7 C11.5,1 11.3,-0.1 10.4,-4.5"/>
<path class="Note" transform="matrix(2.3811,0,0,2.3811,1338.31,1540.63)" d="M18.7,-13.6 C4.9,-13.6 0,-6.6 0,-0.1 C0,6.4 4.9,13.4 18.7,13.4 C32.5,13.4 37.3,6.4 37.3,-0.1 C37.3,-6.6 32.5,-13.6 18.7,-13.6 M10.4,-4.5 C10.3,-4.9 10.3,-5.3 10.3,-5.7 C10.3,-6.5 10.5,-7.3 10.9,-8 C11.6,-9 12.8,-9.7 14.3,-10 C15.6,-10.3 16.3,-10.5 18.9,-10.5 L19,-10.5 C23,-10.5 24.3,-6.8 25.4,-3 L25.7,-2 C26.5,0.6 26.9,2.8 26.9,4.5 C26.9,5.7 26.7,6.8 26.3,7.6 C25.7,8.7 24.7,9.4 23,9.8 C22.1,10 20.6,10.1 20.6,10.1 C20.1,10.1 19.7,10.2 19.3,10.2 C16.1,10.2 14.1,9 12.7,4.7 C11.5,1 11.3,-0.1 10.4,-4.5"/>
<path class="Note" transform="matrix(2.3811,0,0,2.3811,1420.57,1510.87)" d="M18.7,-13.6 C4.9,-13.6 0,-6.6 0,-0.1 C0,6.4 4.9,13.4 18.7,13.4 C32.5,13.4 37.3,6.4 37.3,-0.1 C37.3,-6.6 32.5,-13.6 18.7,-13.6 M10.4,-4.5 C10.3,-4.9 10.3,-5.3 10.3,-5.7 C10.3,-6.5 10.5,-7.3 10.9,-8 C11.6,-9 12.8,-9.7 14.3,-10 C15.6,-10.3 16.3,-10.5 18.9,-10.5 L19,-10.5 C23,-10.5 24.3,-6.8 25.4,-3 L25.7,-2 C26.5,0.6 26.9,2.8 26.9,4.5 C26.9,5.7 26.7,6.8 26.3,7.6 C25.7,8.7 24.7,9.4 23,9.8 C22.1,10 20.6,10.1 20.6,10.1 C20.1,10.1 19.7,10.2 19.3,10.2 C16.1,10.2 14.1,9 12.7,4.7 C11.5,1 11.3,-0.1 10.4,-4.5"/>
<path class="Note" transform="matrix(2.3811,0,0,2.3811,1420.57,1451.34)" d="M18.7,-13.6 C4.9,-13.6 0,-6.6 0,-0.1 C0,6.4 4.9,13.4 18.7,13.4 C32.5,13.4 37.3,6.4 37.3,-0.1 C37.3,-6.6 32.5,-13.6 18.7,-13.6 M10.4,-4.5 C10.3,-4.9 10.3,-5.3 10.3,-5.7 C10.3,-6.5 10.5,-7.3 10.9,-8 C11.6,-9 12.8,-9.7 14.3,-10 C15.6,-10.3 16.3,-10.5 18.9,-10.5 L19,-10.5 C23,-10.5 24.3,-6.8 25.4,-3 L25.7,-2 C26.5,0.6 26.9,2.8 26.9,4.5 C26.9,5.7 26.7,6.8 26.3,7.6 C25.7,8.7 24.7,9.4 23,9.8 C22.1,10 20.6,10.1 20.6,10.1 C20.1,10.1 19.7,10.2 19.3,10.2 C16.1,10.2 14.1,9 12.7,4.7 C11.5,1 11.3,-0.1 10.4,-4.5"/>
<path class="Note" transform="matrix(2.3811,0,0,2.3811,1894.59,1570.39)" d="M18.7,-13.6 C4.9,-13.6 0,-6.6 0,-0.1 C0,6.4 4.9,13.4 18.7,13.4 C32.5,13.4 37.3,6.4 37.3,-0.1 C37.3,-6.6 32.5,-13.6 18.7,-13.6 M10.4,-4.5 C10.3,-4.9 10.3,-5.3 10.3,-5.7 C10.3,-6.5 10.5,-7.3 10.9,-8 C11.6,-9 12.8,-9.7 14.3,-10 C15.6,-10.3 16.3,-10.5 18.9,-10.5 L19,-10.5 C23,-10.5 24.3,-6.8 25.4,-3 L25.7,-2 C26.5,0.6 26.9,2.8 26.9,4.5 C26.9,5.7 26.7,6.8 26.3,7.6 C25.7,8.7 24.7,9.4 23,9.8 C22.1,10 20.6,10.1 20.6,10.1 C20.1,10.1 19.7,10.2 19.3,10.2 C16.1,10.2 14.1,9 12.7,4.7 C11.5,1 11.3,-0.1 10.4,-4.5"/>
<path class="Note" transform="matrix(2.3811,0,0,2.3811,1894.59,1510.87)" d="M18.7,-13.6 C4.9,-13.6 0,-6.6 0,-0.1 C0,6.4 4.9,13.4 18.7,13.4 C32.5,13.4 37.3,6.4 37.3,-0.1 C37.3,-6.6 32.5,-13.6 18.7,-13.6 M10.4,-4.5 C10.3,-4.9 10.3,-5.3 10.3,-5.7 C10.3,-6.5 10.5,-7.3 10.9,-8 C11.6,-9 12.8,-9.7 14.3,-10 C15.6,-10.3 16.3,-10.5 18.9,-10.5 L19,-10.5 C23,-10.5 24.3,-6.8 25.4,-3 L25.7,-2 C26.5,0.6 26.9,2.8 26.9,4.5 C26.9,5.7 26.7,6.8 26.3,7.6 C25.7,8.7 24.7,9.4 23,9.8 C22.1,10 20.6,10.1 20.6,10.1 C20.1,10.1 19.7,10.2 19.3,10.2 C16.1,10.2 14.1,9 12.7,4.7 C11.5,1 11.3,-0.1 10.4,-4.5"/>
<path class="Note" transform="matrix(2.3811,0,0,2.3811,1894.59,1421.57)" d="M18.7,-13.6 C4.9,-13.6 0,-6.6 0,-0.1 C0,6.4 4.9,13.4 18.7,13.4 C32.5,13.4 37.3,6.4 37.3,-0.1 C37.3,-6.6 32.5,-13.6 18.7,-13.6 M10.4,-4.5 C10.3,-4.9 10.3,-5.3 10.3,-5.7 C10.3,-6.5 10.5,-7.3 10.9,-8 C11.6,-9 12.8,-9.7 14.3,-10 C15.6,-10.3 16.3,-10.5 18.9,-10.5 L19,-10.5 C23,-10.5 24.3,-6.8 25.4,-3 L25.7,-2 C26.5,0.6 26.9,2.8 26.9,4.5 C26.9,5.7 26.7,6.8 26.3,7.6 C25.7,8.7 24.7,9.4 23,9.8 C22.1,10 20.6,10.1 20.6,10.1 C20.1,10.1 19.7,10.2 19.3,10.2 C16.1,10.2 14.1,9 12.7,4.7 C11.5,1 11.3,-0.1 10.4,-4.5"/>
<path class="Note" transform="matrix(2.3811,0,0,2.3811,2355.94,1570.39)" d="M18.7,-13.6 C4.9,-13.6 0,-6.6 0,-0.1 C0,6.4 4.9,13.4 18.7,13.4 C32.5,13.4 37.3,6.4 37.3,-0.1 C37.3,-6.6 32.5,-13.6 18.7,-13.6 M10.4,-4.5 C10.3,-4.9 10.3,-5.3 10.3,-5.7 C10.3,-6.5 10.5,-7.3 10.9,-8 C11.6,-9 12.8,-9.7 14.3,-10 C15.6,-10.3 16.3,-10.5 18.9,-10.5 L19,-10.5 C23,-10.5 24.3,-6.8 25.4,-3 L25.7,-2 C26.5,0.6 26.9,2.8 26.9,4.5 C26.9,5.7 26.7,6.8 26.3,7.6 C25.7,8.7 24.7,9.4 23,9.8 C22.1,10 20.6,10.1 20.6,10.1 C20.1,10.1 19.7,10.2 19.3,10.2 C16.1,10.2 14.1,9 12.7,4.7 C11.5,1 11.3,-0.1 10.4,-4.5"/>
<path class="Note" transform="matrix(2.3811,0,0,2.3811,2355.94,1510.87)" d="M18.7,-13.6 C4.9,-13.6 0,-6.6 0,-0.1 C0,6.4 4.9,13.4 18.7,13.4 C32.5,13.4 37.3,6.4 37.3,-0.1 C37.3,-6.6 32.5,-13.6 18.7,-13.6 M10.4,-4.5 C10.3,-4.9 10.3,-5.3 10.3,-5.7 C10.3,-6.5 10.5,-7.3 10.9,-8 C11.6,-9 12.8,-9.7 14.3,-10 C15.6,-10.3 16.3,-10.5 18.9,-10.5 L19,-10.5 C23,-10.5 24.3,-6.8 25.4,-3 L25.7,-2 C26.5,0.6 26.9,2.8 26.9,4.5 C26.9,5.7 26.7,6.8 26.3,7.6 C25.7,8.7 24.7,9.4 23,9.8 C22.1,10 20.6,10.1 20.6,10.1 C20.1,10.1 19.7,10.2 19.3,10.2 C16.1,10.2 14.1,9 12.7,4.7 C11.5,1 11.3,-0.1 10.4,-4.5"/>
<path class="Note" transform="matrix(2.3811,0,0,2.3811,2355.94,1421.57)" d="M18.7,-13.6 C4.9,-13.6 0,-6.6 0,-0.1 C0,6.4 4.9,13.4 18.7,13.4 C32.5,13.4 37.3,6.4 37.3,-0.1 C37.3,-6.6 32.5,-13.6 18.7,-13.6 M10.4,-4.5 C10.3,-4.9 10.3,-5.3 10.3,-5.7 C10.3,-6.5 10.5,-7.3 10.9,-8 C11.6,-9 12.8,-9.7 14.3,-10 C15.6,-10.3 16.3,-10.5 18.9,-10.5 L19,-10.5 C23,-10.5 24.3,-6.8 25.4,-3 L25.7,-2 C26.5,0.6 26.9,2.8 26.9,4.5 C26.9,5.7 26.7,6.8 26.3,7.6 C25.7,8.7 24.7,9.4 23,9.8 C22.1,10 20.6,10.1 20.6,10.1 C20.1,10.1 19.7,10.2 19.3,10.2 C16.1,10.2 14.1,9 12.7,4.7 C11.5,1 11.3,-0.1 10.4,-4.5"/>
<path class="Note" transform="matrix(2.3811,0,0,2.3811,2769.91,1540.63)" d="M18.7,-13.6 C4.9,-13.6 0,-6.6 0,-0.1 C0,6.4 4.9,13.4 18.7,13.4 C32.5,13.4 37.3,6.4 37.3,-0.1 C37.3,-6.6 32.5,-13.6 18.7,-13.6 M10.4,-4.5 C10.3,-4.9 10.3,-5.3 10.3,-5.7 C10.3,-6.5 10.5,-7.3 10.9,-8 C11.6,-9 12.8,-9.7 14.3,-10 C15.6,-10.3 16.3,-10.5 18.9,-10.5 L19,-10.5 C23,-10.5 24.3,-6.8 25.4,-3 L25.7,-2 C26.5,0.6 26.9,2.8 26.9,4.5 C26.9,5.7 26.7,6.8 26.3,7.6 C25.7,8.7 24.7,9.4 23,9.8 C22.1,10 20.6,10.1 20.6,10.1 C20.1,10.1 19.7,10.2 19.3,10.2 C16.1,10.2 14.1,9 12.7,4.7 C11.5,1 11.3,-0.1 10.4,-4.5"/>
<path class="Note" transform="matrix(2.3811,0,0,2.3811,2769.91,1481.1)" d="M18.7,-13.6 C4.9,-13.6 0,-6.6 0,-0.1 C0,6.4 4.9,13.4 18.7,13.4 C32.5,13.4 37.3,6.4 37.3,-0.1 C37.3,-6.6 32.5,-13.6 18.7,-13.6 M10.4,-4.5 C10.3,-4.9 10.3,-5.3 10.3,-5.7 C10.3,-6.5 10.5,-7.3 10.9,-8 C11.6,-9 12.8,-9.7 14.3,-10 C15.6,-10.3 16.3,-10.5 18.9,-10.5 L19,-10.5 C23,-10.5 24.3,-6.8 25.4,-3 L25.7,-2 C26.5,0.6 26.9,2.8 26.9,4.5 C26.9,5.7 26.7,6.8 26.3,7.6 C25.7,8.7 24.7,9.4 23,9.8 C22.1,10 20.6,10.1 20.6,10.1 C20.1,10.1 19.7,10.2 19.3,10.2 C16.1,10.2 14.1,9 12.7,4.7 C11.5,1 11.3,-0.1 10.4,-4.5"/>
<path class="Note" transform="matrix(2.3811,0,0,2.3811,2769.91,1421.57)" d="M18.7,-13.6 C4.9,-13.6 0,-6.6 0,-0.1 C0,6.4 4.9,13.4 18.7,13.4 C32.5,13.4 37.3,6.4 37.3,-0.1 C37.3,-6.6 32.5,-13.6 18.7,-13.6 M10.4,-4.5 C10.3,-4.9 10.3,-5.3 10.3,-5.7 C10.3,-6.5 10.5,-7.3 10.9,-8 C11.6,-9 12.8,-9.7 14.3,-10 C15.6,-10.3 16.3,-10.5 18.9,-10.5 L19,-10.5 C23,-10.5 24.3,-6.8 25.4,-3 L25.7,-2 C26.5,0.6 26.9,2.8 26.9,4.5 C26.9,5.7 26.7,6.8 26.3,7.6 C25.7,8.7 24.7,9.4 23,9.8 C22.1,10 20.6,10.1 20.6,10.1 C20.1,10.1 19.7,10.2 19.3,10.2 C16.1,10.2 14.1,9 12.7,4.7 C11.5,1 11.3,-0.1 10.4,-4.5"/>
<path class="Note" transform="matrix(2.3811,0,0,2.3811,3335.51,1570.39)" d="M18.7,-13.6 C4.9,-13.6 0,-6.6 0,-0.1 C0,6.4 4.9,13.4 18.7,13.4 C32.5,13.4 37.3,6.4 37.3,-0.1 C37.3,-6.6 32.5,-13.6 18.7,-13.6 M10.4,-4.5 C10.3,-4.9 10.3,-5.3 10.3,-5.7 C10.3,-6.5 10.5,-7.3 10.9,-8 C11.6,-9 12.8,-9.7 14.3,-10 C15.6,-10.3 16.3,-10.5 18.9,-10.5 L19,-10.5 C23,-10.5 24.3,-6.8 25.4,-3 L25.7,-2 C26.5,0.6 26.9,2.8 26.9,4.5 C26.9,5.7 26.7,6.8 26.3,7.6 C25.7,8.7 24.7,9.4 23,9.8 C22.1,10 20.6,10.1 20.6,10.1 C20.1,10.1 19.7,10.2 19.3,10.2 C16.1,10.2 14.1,9 12.7,4.7 C11.5,1 11.3,-0.1 10.4,-4.5"/>
<path class="Note" transform="matrix(2.3811,0,0,2.3811,3253.25,1451.34)" d="M18.7,-13.6 C4.9,-13.6 0,-6.6 0,-0.1 C0,6.4 4.9,13.4 18.7,13.4 C32.5,13.4 37.3,6.4 37.3,-0.1 C37.3,-6.6 32.5,-13.6 18.7,-13.6 M10.4,-4.5 C10.3,-4.9 10.3,-5.3 10.3,-5.7 C10.3,-6.5 10.5,-7.3 10.9,-8 C11.6,-9 12.8,-9.7 14.3,-10 C15.6,-10.3 16.3,-10.5 18.9,-10.5 L19,-10.5 C23,-10.5 24.3,-6.8 25.4,-3 L25.7,-2 C26.5,0.6 26.9,2.8 26.9,4.5 C26.9,5.7 26.7,6.8 26.3,7.6 C25.7,8.7 24.7,9.4 23,9.8 C22.1,10 20.6,10.1 20.6,10.1 C20.1,10.1 19.7,10.2 19.3,10.2 C16.1,10.2 14.1,9 12.7,4.7 C11.5,1 11.3,-0.1 10.4,-4.5"/>
<path class="Note" transform="matrix(2.3811,0,0,2.3811,3335.51,1421.57)" d="M18.7,-13.6 C4.9,-13.6 0,-6.6 0,-0.1 C0,6.4 4.9,13.4 18.7,13.4 C32.5,13.4 37.3,6.4 37.3,-0.1 C37.3,-6.6 32.5,-13.6 18.7,-13.6 M10.4,-4.5 C10.3,-4.9 10.3,-5.3 10.3,-5.7 C10.3,-6.5 10.5,-7.3 10.9,-8 C11.6,-9 12.8,-9.7 14.3,-10 C15.6,-10.3 16.3,-10.5 18.9,-10.5 L19,-10.5 C23,-10.5 24.3,-6.8 25.4,-3 L25.7,-2 C26.5,0.6 26.9,2.8 26.9,4.5 C26.9,5.7 26.7,6.8 26.3,7.6 C25.7,8.7 24.7,9.4 23,9.8 C22.1,10 20.6,10.1 20.6,10.1 C20.1,10.1 19.7,10.2 19.3,10.2 C16.1,10.2 14.1,9 12.7,4.7 C11.5,1 11.3,-0.1 10.4,-4.5"/>
<path class="Note" transform="matrix(2.3811,0,0,2.3811,3749.48,1540.63)" d="M18.7,-13.6 C4.9,-13.6 0,-6.6 0,-0.1 C0,6.4 4.9,13.4 18.7,13.4 C32.5,13.4 37.3,6.4 37.3,-0.1 C37.3,-6.6 32.5,-13.6 18.7,-13.6 M10.4,-4.5 C10.3,-4.9 10.3,-5.3 10.3,-5.7 C10.3,-6.5 10.5,-7.3 10.9,-8 C11.6,-9 12.8,-9.7 14.3,-10 C15.6,-10.3 16.3,-10.5 18.9,-10.5 L19,-10.5 C23,-10.5 24.3,-6.8 25.4,-3 L25.7,-2 C26.5,0.6 26.9,2.8 26.9,4.5 C26.9,5.7 26.7,6.8 26.3,7.6 C25.7,8.7 24.7,9.4 23,9.8 C22.1,10 20.6,10.1 20.6,10.1 C20.1,10.1 19.7,10.2 19.3,10.2 C16.1,10.2 14.1,9 12.7,4.7 C11.5,1 11.3,-0.1 10.4,-4.5"/>
<path class="Note" transform="matrix(2.3811,0,0,2.3811,3749.48,1481.1)" d="M18.7,-13.6 C4.9,-13.6 0,-6.6 0,-0.1 C0,6.4 4.9,13.4 18.7,13.4 C32.5,13.4 37.3,6.4 37.3,-0.1 C37.3,-6.6 32.5,-13.6 18.7,-13.6 M10.4,-4.5 C10.3,-4.9 10.3,-5.3 10.3,-5.7 C10.3,-6.5 10.5,-7.3 10.9,-8 C11.6,-9 12.8,-9.7 14.3,-10 C15.6,-10.3 16.3,-10.5 18.9,-10.5 L19,-10.5 C23,-10.5 24.3,-6.8 25.4,-3 L25.7,-2 C26.5,0.6 26.9,2.8 26.9,4.5 C26.9,5.7 26.7,6.8 26.3,7.6 C25.7,8.7 24.7,9.4 23,9.8 C22.1,10 20.6,10.1 20.6,10.1 C20.1,10.1 19.7,10.2 19.3,10.2 C16.1,10.2 14.1,9 12.7,4.7 C11.5,1 11.3,-0.1 10.4,-4.5"/>
<path class="Note" transform="matrix(2.3811,0,0,2.3811,3749.48,1421.57)" d="M18.7,-13.6 C4.9,-13.6 0,-6.6 0,-0.1 C0,6.4 4.9,13.4 18.7,13.4 C32.5,13.4 37.3,6.4 37.3,-0.1 C37.3,-6.6 32.5,-13.6 18.7,-13.6 M10.4,-4.5 C10.3,-4.9 10.3,-5.3 10.3,-5.7 C10.3,-6.5 10.5,-7.3 10.9,-8 C11.6,-9 12.8,-9.7 14.3,-10 C15.6,-10.3 16.3,-10.5 18.9,-10.5 L19,-10.5 C23,-10.5 24.3,-6.8 25.4,-3 L25.7,-2 C26.5,0.6 26.9,2.8 26.9,4.5 C26.9,5.7 26.7,6.8 26.3,7.6 C25.7,8.7 24.7,9.4 23,9.8 C22.1,10 20.6,10.1 20.6,10.1 C20.1,10.1 19.7,10.2 19.3,10.2 C16.1,10.2 14.1,9 12.7,4.7 C11.5,1 11.3,-0.1 10.4,-4.5"/>
<path class="Note" d="M612.77,561.187 C617.109,558.243 620.247,555.803 622.183,553.866 C625.747,550.07 627.529,546.583 627.529,543.407 C627.529,539.766 625.515,537.945 621.486,537.945 C613.661,537.945 605.294,544.84 596.385,558.631 C593.673,562.814 587.708,576.45 578.488,599.537 C585.848,607.129 589.528,611.429 589.528,612.436 C589.528,613.831 588.637,614.528 586.855,614.528 C585.461,614.528 581.626,612.165 575.35,607.439 C568.533,623.321 558.19,636.879 544.322,648.113 C530.144,659.579 513.216,665.312 493.538,665.312 C486.023,665.312 476.61,663.569 465.299,660.083 C456.234,657.294 451.702,652.839 451.702,646.719 C451.702,637.654 455.188,633.122 462.161,633.122 C466.345,633.122 468.436,635.059 468.436,638.932 C468.436,640.172 467.468,641.489 465.531,642.884 C464.524,643.581 464.02,644.937 464.02,646.951 C464.02,649.353 466.693,651.832 472.039,654.388 C477.85,657.178 486.372,658.572 497.605,658.572 C512.093,658.572 526.077,652.297 539.558,639.746 C551.798,628.357 560.592,615.109 565.937,600.002 C563.846,598.297 561.599,596.438 559.197,594.424 C551.76,590.008 548.041,585.475 548.041,580.827 C548.041,578.89 549.319,577.922 551.876,577.922 C555.285,577.922 559.894,580.827 565.705,586.638 C566.945,587.877 568.107,589.039 569.191,590.124 C571.903,582.686 576.241,573.235 582.207,561.768 C592.976,541.005 606.069,530.624 621.486,530.624 C626.987,530.624 631.325,531.67 634.502,533.762 C637.678,535.853 639.267,538.72 639.267,542.361 C639.267,548.172 637.136,553.091 632.875,557.12 C628.459,561.304 623.849,563.395 619.046,563.395 C614.862,563.395 612.77,562.659 612.77,561.187"/>
<path class="Note" d="M540.139,910.409 C535.955,910.409 533.863,908.511 533.863,904.715 C533.863,898.284 534.832,893.558 536.768,890.537 C544.826,878.606 562.335,856.293 589.296,823.599 C601.459,808.802 617.148,801.403 636.361,801.403 C643.799,801.403 648.951,802.449 651.817,804.541 C656.233,807.795 658.441,811.707 658.441,816.278 C658.441,821.082 654.568,826.427 646.82,832.315 C639.46,837.893 632.488,840.682 625.902,840.682 C623.346,840.682 622.067,840.411 622.067,839.869 C622.067,839.094 623.307,838.281 625.786,837.429 C629.117,836.189 632.681,833.671 636.477,829.875 C640.816,825.459 642.985,821.469 642.985,817.905 C642.985,815.503 641.32,813.218 637.988,811.049 C635.044,809.189 630.28,808.26 623.694,808.26 C614.087,808.26 601.963,817.944 587.32,837.312 C577.558,850.25 569.656,861.639 563.613,871.478 C566.557,869.851 570.082,867.876 574.188,865.552 C579.224,862.685 583.563,861.252 587.204,861.252 C596.268,861.252 600.801,864.506 600.801,871.013 C600.801,877.444 597.082,884.494 589.644,892.164 C584.376,897.587 581.742,901.616 581.742,904.25 C581.742,906.961 584.376,908.317 589.644,908.317 C592.279,908.317 594.99,907.388 597.779,905.528 C600.568,903.746 602.621,902.855 603.938,902.855 C605.023,902.855 605.565,903.553 605.565,904.947 C605.565,907.194 603.396,909.557 599.058,912.036 C591.775,916.22 585.926,918.311 581.51,918.311 C573.685,918.311 569.772,914.128 569.772,905.761 C569.772,900.492 572.794,894.643 578.837,888.213 C583.253,883.487 585.461,878.8 585.461,874.151 C585.461,870.123 583.292,868.108 578.953,868.108 C577.249,868.108 571.593,870.123 561.986,874.151 C559.12,878.955 556.718,883.371 554.781,887.399 C547.421,902.739 542.54,910.409 540.139,910.409"/>
<path class="Note" d="M612.77,739.77 C617.109,736.826 620.247,734.386 622.183,732.449 C625.747,728.652 627.529,725.166 627.529,721.99 C627.529,718.348 625.515,716.528 621.486,716.528 C613.661,716.528 605.294,723.423 596.385,737.213 C593.673,741.397 587.708,755.032 578.488,778.12 C585.848,785.712 589.528,790.012 589.528,791.019 C589.528,792.414 588.637,793.111 586.855,793.111 C585.461,793.111 581.626,790.748 575.35,786.022 C568.533,801.904 558.19,815.462 544.322,826.696 C530.144,838.162 513.216,843.895 493.538,843.895 C486.023,843.895 476.61,842.152 465.299,838.666 C456.234,835.876 451.702,831.422 451.702,825.301 C451.702,816.237 455.188,811.705 462.161,811.705 C466.345,811.705 468.436,813.641 468.436,817.515 C468.436,818.755 467.468,820.072 465.531,821.466 C464.524,822.164 464.02,823.519 464.02,825.534 C464.02,827.935 466.693,830.415 472.039,832.971 C477.85,835.76 486.372,837.155 497.605,837.155 C512.093,837.155 526.077,830.879 539.558,818.329 C551.798,806.94 560.592,793.692 565.937,778.584 C563.846,776.88 561.599,775.021 559.197,773.006 C551.76,768.59 548.041,764.058 548.041,759.41 C548.041,757.473 549.319,756.504 551.876,756.504 C555.285,756.504 559.894,759.41 565.705,765.22 C566.945,766.46 568.107,767.622 569.191,768.707 C571.903,761.269 576.241,751.817 582.207,740.351 C592.976,719.588 606.069,709.207 621.486,709.207 C626.987,709.207 631.325,710.252 634.502,712.344 C637.678,714.436 639.267,717.303 639.267,720.944 C639.267,726.754 637.136,731.674 632.875,735.703 C628.459,739.886 623.849,741.978 619.046,741.978 C614.862,741.978 612.77,741.242 612.77,739.77"/>
<path class="Note" d="M612.77,650.479 C617.109,647.535 620.247,645.094 622.183,643.157 C625.747,639.361 627.529,635.875 627.529,632.698 C627.529,629.057 625.515,627.236 621.486,627.236 C613.661,627.236 605.294,634.132 596.385,647.922 C593.673,652.106 587.708,665.741 578.488,688.828 C585.848,696.421 589.528,700.721 589.528,701.728 C589.528,703.122 588.637,703.819 586.855,703.819 C585.461,703.819 581.626,701.457 575.35,696.731 C568.533,712.613 558.19,726.171 544.322,737.404 C530.144,748.871 513.216,754.604 493.538,754.604 C486.023,754.604 476.61,752.86 465.299,749.374 C456.234,746.585 451.702,742.13 451.702,736.01 C451.702,726.945 455.188,722.413 462.161,722.413 C466.345,722.413 468.436,724.35 468.436,728.224 C468.436,729.463 467.468,730.78 465.531,732.175 C464.524,732.872 464.02,734.228 464.02,736.242 C464.02,738.644 466.693,741.123 472.039,743.68 C477.85,746.469 486.372,747.863 497.605,747.863 C512.093,747.863 526.077,741.588 539.558,729.037 C551.798,717.649 560.592,704.401 565.937,689.293 C563.846,687.589 561.599,685.729 559.197,683.715 C551.76,679.299 548.041,674.767 548.041,670.118 C548.041,668.181 549.319,667.213 551.876,667.213 C555.285,667.213 559.894,670.118 565.705,675.929 C566.945,677.168 568.107,678.331 569.191,679.415 C571.903,671.978 576.241,662.526 582.207,651.06 C592.976,630.297 606.069,619.915 621.486,619.915 C626.987,619.915 631.325,620.961 634.502,623.053 C637.678,625.145 639.267,628.011 639.267,631.652 C639.267,637.463 637.136,642.383 632.875,646.411 C628.459,650.595 623.849,652.687 619.046,652.687 C614.862,652.687 612.77,651.951 612.77,650.479"/>
<path class="Note" d="M1056.73,829.061 C1061.06,826.117 1064.2,823.677 1066.14,821.74 C1069.7,817.944 1071.48,814.457 1071.48,811.281 C1071.48,807.64 1069.47,805.819 1065.44,805.819 C1057.62,805.819 1049.25,812.714 1040.34,826.505 C1037.63,830.688 1031.66,844.324 1022.44,867.411 C1029.8,875.003 1033.48,879.303 1033.48,880.31 C1033.48,881.705 1032.59,882.402 1030.81,882.402 C1029.42,882.402 1025.58,880.039 1019.31,875.313 C1012.49,891.195 1002.15,904.753 988.277,915.987 C974.099,927.453 957.171,933.186 937.493,933.186 C929.978,933.186 920.565,931.443 909.254,927.957 C900.189,925.168 895.657,920.713 895.657,914.593 C895.657,905.528 899.143,900.996 906.116,900.996 C910.3,900.996 912.391,902.933 912.391,906.806 C912.391,908.046 911.423,909.363 909.486,910.758 C908.479,911.455 907.975,912.811 907.975,914.825 C907.975,917.227 910.648,919.706 915.994,922.263 C921.805,925.052 930.327,926.446 941.56,926.446 C956.048,926.446 970.032,920.171 983.513,907.62 C995.753,896.231 1004.55,882.983 1009.89,867.876 C1007.8,866.171 1005.55,864.312 1003.15,862.298 C995.715,857.882 991.996,853.349 991.996,848.701 C991.996,846.764 993.274,845.796 995.831,845.796 C999.24,845.796 1003.85,848.701 1009.66,854.512 C1010.9,855.751 1012.06,856.913 1013.15,857.998 C1015.86,850.56 1020.2,841.109 1026.16,829.642 C1036.93,808.879 1050.02,798.498 1065.44,798.498 C1070.94,798.498 1075.28,799.544 1078.46,801.636 C1081.63,803.727 1083.22,806.594 1083.22,810.235 C1083.22,816.046 1081.09,820.965 1076.83,824.994 C1072.41,829.178 1067.8,831.269 1063,831.269 C1058.82,831.269 1056.73,830.533 1056.73,829.061"/>
<path class="Note" d="M1077.64,794.854 C1071.29,804.848 1061.26,813.138 1047.54,819.723 C1035.61,825.456 1024.46,828.323 1014.08,828.323 C1005.79,828.323 998.891,826.657 993.391,823.326 C987.425,819.684 984.442,815.346 984.442,810.31 C984.442,798.921 987.425,789.121 993.391,780.909 C1001.53,769.752 1009.74,764.174 1018.03,764.174 C1023.92,764.174 1028.1,765.336 1030.58,767.661 C1033.99,770.682 1035.69,774.827 1035.69,780.095 C1035.69,787.533 1030.15,794.002 1019.07,799.502 C1008.3,804.848 1000.83,808.334 996.644,809.961 C997.574,811.898 998.775,813.641 1000.25,815.191 C1003.89,819.065 1008.85,821.001 1015.12,821.001 C1023.02,821.001 1033.64,818.096 1046.96,812.286 C1059.75,806.63 1069.97,800.819 1077.64,794.854 M995.017,804.616 C1000.83,801.672 1006.13,798.224 1010.94,794.273 C1018.07,788.462 1021.63,782.187 1021.63,775.447 C1021.63,771.651 1019.89,769.752 1016.4,769.752 C1013.46,769.752 1009.43,773.123 1004.31,779.863 C997.884,788.23 994.669,795.048 994.669,800.316 C994.669,801.788 994.785,803.221 995.017,804.616"/>
<path class="Note" d="M1056.73,650.479 C1061.06,647.535 1064.2,645.094 1066.14,643.157 C1069.7,639.361 1071.48,635.875 1071.48,632.698 C1071.48,629.057 1069.47,627.236 1065.44,627.236 C1057.62,627.236 1049.25,634.132 1040.34,647.922 C1037.63,652.106 1031.66,665.741 1022.44,688.828 C1029.8,696.421 1033.48,700.721 1033.48,701.728 C1033.48,703.122 1032.59,703.819 1030.81,703.819 C1029.42,703.819 1025.58,701.457 1019.31,696.731 C1012.49,712.613 1002.15,726.171 988.277,737.404 C974.099,748.871 957.171,754.604 937.493,754.604 C929.978,754.604 920.565,752.86 909.254,749.374 C900.189,746.585 895.657,742.13 895.657,736.01 C895.657,726.945 899.143,722.413 906.116,722.413 C910.3,722.413 912.391,724.35 912.391,728.224 C912.391,729.463 911.423,730.78 909.486,732.175 C908.479,732.872 907.975,734.228 907.975,736.242 C907.975,738.644 910.648,741.123 915.994,743.68 C921.805,746.469 930.327,747.863 941.56,747.863 C956.048,747.863 970.032,741.588 983.513,729.037 C995.753,717.649 1004.55,704.401 1009.89,689.293 C1007.8,687.589 1005.55,685.729 1003.15,683.715 C995.715,679.299 991.996,674.767 991.996,670.118 C991.996,668.181 993.274,667.213 995.831,667.213 C999.24,667.213 1003.85,670.118 1009.66,675.929 C1010.9,677.168 1012.06,678.331 1013.15,679.415 C1015.86,671.978 1020.2,662.526 1026.16,651.06 C1036.93,630.297 1050.02,619.915 1065.44,619.915 C1070.94,619.915 1075.28,620.961 1078.46,623.053 C1081.63,625.145 1083.22,628.011 1083.22,631.652 C1083.22,637.463 1081.09,642.383 1076.83,646.411 C1072.41,650.595 1067.8,652.687 1063,652.687 C1058.82,652.687 1056.73,651.951 1056.73,650.479"/>
<path class="Note" d="M1388.3,855.79 C1388.61,844.091 1395.08,833.71 1407.7,824.645 C1418.94,816.588 1431.22,812.559 1444.54,812.559 C1463.21,812.559 1479.68,819.881 1493.93,834.523 C1503,843.898 1507.53,855.519 1507.53,869.387 C1507.53,881.86 1504.2,891.428 1497.53,898.091 C1489.4,906.303 1480.8,910.409 1471.74,910.409 C1465.54,910.409 1460.73,909.014 1457.33,906.225 C1451.75,901.654 1448.96,895.534 1448.96,887.864 C1448.96,877.947 1453.92,868.883 1463.83,860.671 C1471.97,853.93 1480.14,849.514 1488.35,847.423 C1486.18,843.704 1483.43,840.218 1480.1,836.964 C1469.72,826.815 1457.95,821.74 1444.78,821.74 C1431.06,821.74 1419.71,824.723 1410.73,830.688 C1401.43,836.809 1393.95,845.176 1388.3,855.79 M1491.26,853.582 C1487,857.533 1482.74,861.755 1478.48,866.249 C1470.11,875.081 1465.93,883.448 1465.93,891.35 C1465.93,899.795 1467.86,904.017 1471.74,904.017 C1475.22,904.017 1480.1,899.253 1486.38,889.723 C1491.41,882.131 1493.93,875.158 1493.93,868.805 C1493.93,863.382 1493.04,858.308 1491.26,853.582"/>
<path class="Note" d="M1514.26,561.187 C1518.6,558.243 1521.74,555.803 1523.67,553.866 C1527.24,550.07 1529.02,546.583 1529.02,543.407 C1529.02,539.766 1527,537.945 1522.98,537.945 C1515.15,537.945 1506.78,544.84 1497.87,558.631 C1495.16,562.814 1489.2,576.45 1479.98,599.537 C1487.34,607.129 1491.02,611.429 1491.02,612.436 C1491.02,613.831 1490.13,614.528 1488.35,614.528 C1486.95,614.528 1483.12,612.165 1476.84,607.439 C1470.02,623.321 1459.68,636.879 1445.81,648.113 C1431.63,659.579 1414.71,665.312 1395.03,665.312 C1387.51,665.312 1378.1,663.569 1366.79,660.083 C1357.72,657.294 1353.19,652.839 1353.19,646.719 C1353.19,637.654 1356.68,633.122 1363.65,633.122 C1367.83,633.122 1369.93,635.059 1369.93,638.932 C1369.93,640.172 1368.96,641.489 1367.02,642.884 C1366.01,643.581 1365.51,644.937 1365.51,646.951 C1365.51,649.353 1368.18,651.832 1373.53,654.388 C1379.34,657.178 1387.86,658.572 1399.1,658.572 C1413.58,658.572 1427.57,652.297 1441.05,639.746 C1453.29,628.357 1462.08,615.109 1467.43,600.002 C1465.34,598.297 1463.09,596.438 1460.69,594.424 C1453.25,590.008 1449.53,585.475 1449.53,580.827 C1449.53,578.89 1450.81,577.922 1453.37,577.922 C1456.77,577.922 1461.38,580.827 1467.19,586.638 C1468.43,587.877 1469.6,589.039 1470.68,590.124 C1473.39,582.686 1477.73,573.235 1483.7,561.768 C1494.47,541.005 1507.56,530.624 1522.98,530.624 C1528.48,530.624 1532.82,531.67 1535.99,533.762 C1539.17,535.853 1540.76,538.72 1540.76,542.361 C1540.76,548.172 1538.63,553.091 1534.36,557.12 C1529.95,561.304 1525.34,563.395 1520.54,563.395 C1516.35,563.395 1514.26,562.659 1514.26,561.187"/>
<path class="Note" d="M1535.18,794.854 C1528.83,804.848 1518.79,813.138 1505.08,819.723 C1493.15,825.456 1481.99,828.323 1471.61,828.323 C1463.32,828.323 1456.43,826.657 1450.93,823.326 C1444.96,819.684 1441.98,815.346 1441.98,810.31 C1441.98,798.921 1444.96,789.121 1450.93,780.909 C1459.06,769.752 1467.27,764.174 1475.56,764.174 C1481.45,764.174 1485.63,765.336 1488.11,767.661 C1491.52,770.682 1493.23,774.827 1493.23,780.095 C1493.23,787.533 1487.69,794.002 1476.61,799.502 C1465.84,804.848 1458.36,808.334 1454.18,809.961 C1455.11,811.898 1456.31,813.641 1457.78,815.191 C1461.42,819.065 1466.38,821.001 1472.66,821.001 C1480.56,821.001 1491.17,818.096 1504.5,812.286 C1517.28,806.63 1527.51,800.819 1535.18,794.854 M1452.55,804.616 C1458.36,801.672 1463.67,798.224 1468.47,794.273 C1475.6,788.462 1479.16,782.187 1479.16,775.447 C1479.16,771.651 1477.42,769.752 1473.94,769.752 C1470.99,769.752 1466.96,773.123 1461.85,779.863 C1455.42,788.23 1452.2,795.048 1452.2,800.316 C1452.2,801.788 1452.32,803.221 1452.55,804.616"/>
<path class="Note" d="M1388.3,677.207 C1388.61,665.509 1395.08,655.127 1407.7,646.063 C1418.94,638.005 1431.22,633.977 1444.54,633.977 C1463.21,633.977 1479.68,641.298 1493.93,655.941 C1503,665.315 1507.53,676.936 1507.53,690.804 C1507.53,703.277 1504.2,712.845 1497.53,719.508 C1489.4,727.72 1480.8,731.826 1471.74,731.826 C1465.54,731.826 1460.73,730.432 1457.33,727.643 C1451.75,723.072 1448.96,716.951 1448.96,709.281 C1448.96,699.365 1453.92,690.3 1463.83,682.088 C1471.97,675.348 1480.14,670.932 1488.35,668.84 C1486.18,665.121 1483.43,661.635 1480.1,658.381 C1469.72,648.232 1457.95,643.157 1444.78,643.157 C1431.06,643.157 1419.71,646.14 1410.73,652.106 C1401.43,658.226 1393.95,666.593 1388.3,677.207 M1491.26,674.999 C1487,678.95 1482.74,683.173 1478.48,687.666 C1470.11,696.498 1465.93,704.865 1465.93,712.768 C1465.93,721.212 1467.86,725.435 1471.74,725.435 C1475.22,725.435 1480.1,720.67 1486.38,711.141 C1491.41,703.548 1493.93,696.576 1493.93,690.223 C1493.93,684.8 1493.04,679.725 1491.26,674.999"/>
<path class="Note" d="M1915.66,999.7 C1911.47,999.7 1909.38,997.802 1909.38,994.006 C1909.38,987.576 1910.35,982.85 1912.29,979.828 C1920.34,967.897 1937.85,945.585 1964.81,912.891 C1976.98,898.093 1992.67,890.694 2011.88,890.694 C2019.32,890.694 2024.47,891.74 2027.33,893.832 C2031.75,897.086 2033.96,900.999 2033.96,905.569 C2033.96,910.373 2030.09,915.719 2022.34,921.607 C2014.98,927.185 2008.01,929.974 2001.42,929.974 C1998.86,929.974 1997.58,929.703 1997.58,929.16 C1997.58,928.386 1998.82,927.572 2001.3,926.72 C2004.63,925.48 2008.2,922.962 2011.99,919.166 C2016.33,914.75 2018.5,910.76 2018.5,907.196 C2018.5,904.795 2016.84,902.509 2013.51,900.34 C2010.56,898.481 2005.8,897.551 1999.21,897.551 C1989.6,897.551 1977.48,907.235 1962.84,926.604 C1953.08,939.542 1945.17,950.93 1939.13,960.77 C1942.07,959.143 1945.6,957.167 1949.71,954.843 C1954.74,951.976 1959.08,950.543 1962.72,950.543 C1971.79,950.543 1976.32,953.797 1976.32,960.305 C1976.32,966.735 1972.6,973.785 1965.16,981.455 C1959.89,986.878 1957.26,990.907 1957.26,993.541 C1957.26,996.253 1959.89,997.609 1965.16,997.609 C1967.8,997.609 1970.51,996.679 1973.3,994.819 C1976.09,993.038 1978.14,992.147 1979.46,992.147 C1980.54,992.147 1981.08,992.844 1981.08,994.238 C1981.08,996.485 1978.91,998.848 1974.57,1001.33 C1967.29,1005.51 1961.44,1007.6 1957.03,1007.6 C1949.2,1007.6 1945.29,1003.42 1945.29,995.052 C1945.29,989.784 1948.31,983.934 1954.35,977.504 C1958.77,972.778 1960.98,968.091 1960.98,963.443 C1960.98,959.414 1958.81,957.4 1954.47,957.4 C1952.77,957.4 1947.11,959.414 1937.5,963.443 C1934.64,968.246 1932.24,972.662 1930.3,976.691 C1922.94,992.03 1918.06,999.7 1915.66,999.7"/>
<path class="Note" d="M2009.21,616.271 C2002.85,626.265 1992.82,634.555 1979.11,641.14 C1967.18,646.874 1956.02,649.74 1945.64,649.74 C1937.35,649.74 1930.45,648.074 1924.95,644.743 C1918.99,641.102 1916,636.763 1916,631.727 C1916,620.339 1918.99,610.538 1924.95,602.326 C1933.09,591.17 1941.3,585.592 1949.59,585.592 C1955.48,585.592 1959.66,586.754 1962.14,589.078 C1965.55,592.099 1967.25,596.244 1967.25,601.513 C1967.25,608.95 1961.71,615.419 1950.64,620.92 C1939.87,626.265 1932.39,629.752 1928.21,631.379 C1929.14,633.316 1930.34,635.059 1931.81,636.608 C1935.45,640.482 1940.41,642.419 1946.68,642.419 C1954.59,642.419 1965.2,639.513 1978.53,633.703 C1991.31,628.047 2001.54,622.237 2009.21,616.271 M1926.58,626.033 C1932.39,623.089 1937.7,619.641 1942.5,615.69 C1949.63,609.88 1953.19,603.604 1953.19,596.864 C1953.19,593.068 1951.45,591.17 1947.96,591.17 C1945.02,591.17 1940.99,594.54 1935.88,601.28 C1929.45,609.647 1926.23,616.465 1926.23,621.733 C1926.23,623.205 1926.35,624.638 1926.58,626.033"/>
<path class="Note" d="M2009.21,794.854 C2002.85,804.848 1992.82,813.138 1979.11,819.723 C1967.18,825.456 1956.02,828.323 1945.64,828.323 C1937.35,828.323 1930.45,826.657 1924.95,823.326 C1918.99,819.684 1916,815.346 1916,810.31 C1916,798.921 1918.99,789.121 1924.95,780.909 C1933.09,769.752 1941.3,764.174 1949.59,764.174 C1955.48,764.174 1959.66,765.336 1962.14,767.661 C1965.55,770.682 1967.25,774.827 1967.25,780.095 C1967.25,787.533 1961.71,794.002 1950.64,799.502 C1939.87,804.848 1932.39,808.334 1928.21,809.961 C1929.14,811.898 1930.34,813.641 1931.81,815.191 C1935.45,819.065 1940.41,821.001 1946.68,821.001 C1954.59,821.001 1965.2,818.096 1978.53,812.286 C1991.31,806.63 2001.54,800.819 2009.21,794.854 M1926.58,804.616 C1932.39,801.672 1937.7,798.224 1942.5,794.273 C1949.63,788.462 1953.19,782.187 1953.19,775.447 C1953.19,771.651 1951.45,769.752 1947.96,769.752 C1945.02,769.752 1940.99,773.123 1935.88,779.863 C1929.45,788.23 1926.23,795.048 1926.23,800.316 C1926.23,801.788 1926.35,803.221 1926.58,804.616"/>
<path class="Note" d="M1988.29,650.479 C1992.63,647.535 1995.76,645.094 1997.7,643.157 C2001.26,639.361 2003.05,635.875 2003.05,632.698 C2003.05,629.057 2001.03,627.236 1997,627.236 C1989.18,627.236 1980.81,634.132 1971.9,647.922 C1969.19,652.106 1963.23,665.741 1954.01,688.828 C1961.37,696.421 1965.05,700.721 1965.05,701.728 C1965.05,703.122 1964.15,703.819 1962.37,703.819 C1960.98,703.819 1957.14,701.457 1950.87,696.731 C1944.05,712.613 1933.71,726.171 1919.84,737.404 C1905.66,748.871 1888.73,754.604 1869.06,754.604 C1861.54,754.604 1852.13,752.86 1840.82,749.374 C1831.75,746.585 1827.22,742.13 1827.22,736.01 C1827.22,726.945 1830.71,722.413 1837.68,722.413 C1841.86,722.413 1843.95,724.35 1843.95,728.224 C1843.95,729.463 1842.99,730.78 1841.05,732.175 C1840.04,732.872 1839.54,734.228 1839.54,736.242 C1839.54,738.644 1842.21,741.123 1847.56,743.68 C1853.37,746.469 1861.89,747.863 1873.12,747.863 C1887.61,747.863 1901.59,741.588 1915.07,729.037 C1927.32,717.649 1936.11,704.401 1941.45,689.293 C1939.36,687.589 1937.12,685.729 1934.71,683.715 C1927.28,679.299 1923.56,674.767 1923.56,670.118 C1923.56,668.181 1924.84,667.213 1927.39,667.213 C1930.8,667.213 1935.41,670.118 1941.22,675.929 C1942.46,677.168 1943.62,678.331 1944.71,679.415 C1947.42,671.978 1951.76,662.526 1957.72,651.06 C1968.49,630.297 1981.59,619.915 1997,619.915 C2002.5,619.915 2006.84,620.961 2010.02,623.053 C2013.2,625.145 2014.78,628.011 2014.78,631.652 C2014.78,637.463 2012.65,642.383 2008.39,646.411 C2003.98,650.595 1999.37,652.687 1994.56,652.687 C1990.38,652.687 1988.29,651.951 1988.29,650.479"/>
<path class="Note" d="M2449.64,918.353 C2453.97,915.409 2457.11,912.968 2459.05,911.031 C2462.61,907.235 2464.39,903.749 2464.39,900.572 C2464.39,896.931 2462.38,895.11 2458.35,895.11 C2450.53,895.11 2442.16,902.006 2433.25,915.796 C2430.54,919.98 2424.57,933.615 2415.35,956.702 C2422.71,964.295 2426.39,968.595 2426.39,969.602 C2426.39,970.996 2425.5,971.693 2423.72,971.693 C2422.33,971.693 2418.49,969.331 2412.22,964.605 C2405.4,980.487 2395.06,994.045 2381.19,1005.28 C2367.01,1016.74 2350.08,1022.48 2330.4,1022.48 C2322.89,1022.48 2313.48,1020.73 2302.16,1017.25 C2293.1,1014.46 2288.57,1010 2288.57,1003.88 C2288.57,994.819 2292.05,990.287 2299.03,990.287 C2303.21,990.287 2305.3,992.224 2305.3,996.098 C2305.3,997.337 2304.33,998.654 2302.4,1000.05 C2301.39,1000.75 2300.89,1002.1 2300.89,1004.12 C2300.89,1006.52 2303.56,1009 2308.9,1011.55 C2314.72,1014.34 2323.24,1015.74 2334.47,1015.74 C2348.96,1015.74 2362.94,1009.46 2376.42,996.911 C2388.66,985.523 2397.46,972.275 2402.8,957.167 C2400.71,955.463 2398.46,953.603 2396.06,951.589 C2388.63,947.173 2384.91,942.641 2384.91,937.992 C2384.91,936.055 2386.18,935.087 2388.74,935.087 C2392.15,935.087 2396.76,937.992 2402.57,943.803 C2403.81,945.042 2404.97,946.205 2406.06,947.289 C2408.77,939.852 2413.11,930.4 2419.07,918.934 C2429.84,898.171 2442.93,887.789 2458.35,887.789 C2463.85,887.789 2468.19,888.835 2471.37,890.927 C2474.54,893.019 2476.13,895.885 2476.13,899.526 C2476.13,905.337 2474,910.257 2469.74,914.285 C2465.32,918.469 2460.71,920.561 2455.91,920.561 C2451.73,920.561 2449.64,919.825 2449.64,918.353"/>
<path class="Note" d="M2470.55,616.271 C2464.2,626.265 2454.17,634.555 2440.46,641.14 C2428.52,646.874 2417.37,649.74 2406.99,649.74 C2398.7,649.74 2391.8,648.074 2386.3,644.743 C2380.34,641.102 2377.35,636.763 2377.35,631.727 C2377.35,620.339 2380.34,610.538 2386.3,602.326 C2394.44,591.17 2402.65,585.592 2410.94,585.592 C2416.83,585.592 2421.01,586.754 2423.49,589.078 C2426.9,592.099 2428.6,596.244 2428.6,601.513 C2428.6,608.95 2423.06,615.419 2411.98,620.92 C2401.21,626.265 2393.74,629.752 2389.56,631.379 C2390.48,633.316 2391.69,635.059 2393.16,636.608 C2396.8,640.482 2401.76,642.419 2408.03,642.419 C2415.93,642.419 2426.55,639.513 2439.87,633.703 C2452.66,628.047 2462.88,622.237 2470.55,616.271 M2387.93,626.033 C2393.74,623.089 2399.05,619.641 2403.85,615.69 C2410.98,609.88 2414.54,603.604 2414.54,596.864 C2414.54,593.068 2412.8,591.17 2409.31,591.17 C2406.37,591.17 2402.34,594.54 2397.23,601.28 C2390.79,609.647 2387.58,616.465 2387.58,621.733 C2387.58,623.205 2387.7,624.638 2387.93,626.033"/>
<path class="Note" d="M2470.55,794.854 C2464.2,804.848 2454.17,813.138 2440.46,819.723 C2428.52,825.456 2417.37,828.323 2406.99,828.323 C2398.7,828.323 2391.8,826.657 2386.3,823.326 C2380.34,819.684 2377.35,815.346 2377.35,810.31 C2377.35,798.921 2380.34,789.121 2386.3,780.909 C2394.44,769.752 2402.65,764.174 2410.94,764.174 C2416.83,764.174 2421.01,765.336 2423.49,767.661 C2426.9,770.682 2428.6,774.827 2428.6,780.095 C2428.6,787.533 2423.06,794.002 2411.98,799.502 C2401.21,804.848 2393.74,808.334 2389.56,809.961 C2390.48,811.898 2391.69,813.641 2393.16,815.191 C2396.8,819.065 2401.76,821.001 2408.03,821.001 C2415.93,821.001 2426.55,818.096 2439.87,812.286 C2452.66,806.63 2462.88,800.819 2470.55,794.854 M2387.93,804.616 C2393.74,801.672 2399.05,798.224 2403.85,794.273 C2410.98,788.462 2414.54,782.187 2414.54,775.447 C2414.54,771.651 2412.8,769.752 2409.31,769.752 C2406.37,769.752 2402.34,773.123 2397.23,779.863 C2390.79,788.23 2387.58,795.048 2387.58,800.316 C2387.58,801.788 2387.7,803.221 2387.93,804.616"/>
<path class="Note" d="M2449.64,650.479 C2453.97,647.535 2457.11,645.094 2459.05,643.157 C2462.61,639.361 2464.39,635.875 2464.39,632.698 C2464.39,629.057 2462.38,627.236 2458.35,627.236 C2450.53,627.236 2442.16,634.132 2433.25,647.922 C2430.54,652.106 2424.57,665.741 2415.35,688.828 C2422.71,696.421 2426.39,700.721 2426.39,701.728 C2426.39,703.122 2425.5,703.819 2423.72,703.819 C2422.33,703.819 2418.49,701.457 2412.22,696.731 C2405.4,712.613 2395.06,726.171 2381.19,737.404 C2367.01,748.871 2350.08,754.604 2330.4,754.604 C2322.89,754.604 2313.48,752.86 2302.16,749.374 C2293.1,746.585 2288.57,742.13 2288.57,736.01 C2288.57,726.945 2292.05,722.413 2299.03,722.413 C2303.21,722.413 2305.3,724.35 2305.3,728.224 C2305.3,729.463 2304.33,730.78 2302.4,732.175 C2301.39,732.872 2300.89,734.228 2300.89,736.242 C2300.89,738.644 2303.56,741.123 2308.9,743.68 C2314.72,746.469 2323.24,747.863 2334.47,747.863 C2348.96,747.863 2362.94,741.588 2376.42,729.037 C2388.66,717.649 2397.46,704.401 2402.8,689.293 C2400.71,687.589 2398.46,685.729 2396.06,683.715 C2388.63,679.299 2384.91,674.767 2384.91,670.118 C2384.91,668.181 2386.18,667.213 2388.74,667.213 C2392.15,667.213 2396.76,670.118 2402.57,675.929 C2403.81,677.168 2404.97,678.331 2406.06,679.415 C2408.77,671.978 2413.11,662.526 2419.07,651.06 C2429.84,630.297 2442.93,619.915 2458.35,619.915 C2463.85,619.915 2468.19,620.961 2471.37,623.053 C2474.54,625.145 2476.13,628.011 2476.13,631.652 C2476.13,637.463 2474,642.383 2469.74,646.411 C2465.32,650.595 2460.71,652.687 2455.91,652.687 C2451.73,652.687 2449.64,651.951 2449.64,650.479"/>
<path class="Note" d="M2737.64,945.081 C2737.95,933.383 2744.42,923.001 2757.05,913.937 C2768.28,905.879 2780.56,901.851 2793.89,901.851 C2812.56,901.851 2829.02,909.172 2843.28,923.815 C2852.34,933.189 2856.87,944.81 2856.87,958.678 C2856.87,971.151 2853.54,980.719 2846.88,987.382 C2838.74,995.594 2830.14,999.7 2821.08,999.7 C2814.88,999.7 2810.08,998.306 2806.67,995.517 C2801.09,990.946 2798.3,984.825 2798.3,977.155 C2798.3,967.239 2803.26,958.174 2813.18,949.962 C2821.31,943.222 2829.49,938.806 2837.7,936.714 C2835.53,932.995 2832.78,929.509 2829.45,926.255 C2819.07,916.106 2807.29,911.031 2794.12,911.031 C2780.41,911.031 2769.06,914.014 2760.07,919.98 C2750.77,926.1 2743.3,934.467 2737.64,945.081 M2840.6,942.873 C2836.34,946.824 2832.08,951.047 2827.82,955.54 C2819.45,964.372 2815.27,972.739 2815.27,980.642 C2815.27,989.086 2817.21,993.309 2821.08,993.309 C2824.57,993.309 2829.45,988.544 2835.72,979.015 C2840.76,971.422 2843.28,964.45 2843.28,958.097 C2843.28,952.674 2842.39,947.599 2840.6,942.873"/>
<path class="Note" d="M2863.6,561.187 C2867.94,558.243 2871.08,555.803 2873.02,553.866 C2876.58,550.07 2878.36,546.583 2878.36,543.407 C2878.36,539.766 2876.35,537.945 2872.32,537.945 C2864.5,537.945 2856.13,544.84 2847.22,558.631 C2844.51,562.814 2838.54,576.45 2829.32,599.537 C2836.68,607.129 2840.36,611.429 2840.36,612.436 C2840.36,613.831 2839.47,614.528 2837.69,614.528 C2836.29,614.528 2832.46,612.165 2826.18,607.439 C2819.37,623.321 2809.02,636.879 2795.16,648.113 C2780.98,659.579 2764.05,665.312 2744.37,665.312 C2736.86,665.312 2727.44,663.569 2716.13,660.083 C2707.07,657.294 2702.54,652.839 2702.54,646.719 C2702.54,637.654 2706.02,633.122 2712.99,633.122 C2717.18,633.122 2719.27,635.059 2719.27,638.932 C2719.27,640.172 2718.3,641.489 2716.36,642.884 C2715.36,643.581 2714.85,644.937 2714.85,646.951 C2714.85,649.353 2717.53,651.832 2722.87,654.388 C2728.68,657.178 2737.21,658.572 2748.44,658.572 C2762.93,658.572 2776.91,652.297 2790.39,639.746 C2802.63,628.357 2811.43,615.109 2816.77,600.002 C2814.68,598.297 2812.43,596.438 2810.03,594.424 C2802.59,590.008 2798.87,585.475 2798.87,580.827 C2798.87,578.89 2800.15,577.922 2802.71,577.922 C2806.12,577.922 2810.73,580.827 2816.54,586.638 C2817.78,587.877 2818.94,589.039 2820.03,590.124 C2822.74,582.686 2827.08,573.235 2833.04,561.768 C2843.81,541.005 2856.9,530.624 2872.32,530.624 C2877.82,530.624 2882.16,531.67 2885.34,533.762 C2888.51,535.853 2890.1,538.72 2890.1,542.361 C2890.1,548.172 2887.97,553.091 2883.71,557.12 C2879.29,561.304 2874.68,563.395 2869.88,563.395 C2865.7,563.395 2863.6,562.659 2863.6,561.187"/>
<path class="Note" d="M2863.6,739.77 C2867.94,736.826 2871.08,734.386 2873.02,732.449 C2876.58,728.652 2878.36,725.166 2878.36,721.99 C2878.36,718.348 2876.35,716.528 2872.32,716.528 C2864.5,716.528 2856.13,723.423 2847.22,737.213 C2844.51,741.397 2838.54,755.032 2829.32,778.12 C2836.68,785.712 2840.36,790.012 2840.36,791.019 C2840.36,792.414 2839.47,793.111 2837.69,793.111 C2836.29,793.111 2832.46,790.748 2826.18,786.022 C2819.37,801.904 2809.02,815.462 2795.16,826.696 C2780.98,838.162 2764.05,843.895 2744.37,843.895 C2736.86,843.895 2727.44,842.152 2716.13,838.666 C2707.07,835.876 2702.54,831.422 2702.54,825.301 C2702.54,816.237 2706.02,811.705 2712.99,811.705 C2717.18,811.705 2719.27,813.641 2719.27,817.515 C2719.27,818.755 2718.3,820.072 2716.36,821.466 C2715.36,822.164 2714.85,823.519 2714.85,825.534 C2714.85,827.935 2717.53,830.415 2722.87,832.971 C2728.68,835.76 2737.21,837.155 2748.44,837.155 C2762.93,837.155 2776.91,830.879 2790.39,818.329 C2802.63,806.94 2811.43,793.692 2816.77,778.584 C2814.68,776.88 2812.43,775.021 2810.03,773.006 C2802.59,768.59 2798.87,764.058 2798.87,759.41 C2798.87,757.473 2800.15,756.504 2802.71,756.504 C2806.12,756.504 2810.73,759.41 2816.54,765.22 C2817.78,766.46 2818.94,767.622 2820.03,768.707 C2822.74,761.269 2827.08,751.817 2833.04,740.351 C2843.81,719.588 2856.9,709.207 2872.32,709.207 C2877.82,709.207 2882.16,710.252 2885.34,712.344 C2888.51,714.436 2890.1,717.303 2890.1,720.944 C2890.1,726.754 2887.97,731.674 2883.71,735.703 C2879.29,739.886 2874.68,741.978 2869.88,741.978 C2865.7,741.978 2863.6,741.242 2863.6,739.77"/>
<path class="Note" d="M2863.6,650.479 C2867.94,647.535 2871.08,645.094 2873.02,643.157 C2876.58,639.361 2878.36,635.875 2878.36,632.698 C2878.36,629.057 2876.35,627.236 2872.32,627.236 C2864.5,627.236 2856.13,634.132 2847.22,647.922 C2844.51,652.106 2838.54,665.741 2829.32,688.828 C2836.68,696.421 2840.36,700.721 2840.36,701.728 C2840.36,703.122 2839.47,703.819 2837.69,703.819 C2836.29,703.819 2832.46,701.457 2826.18,696.731 C2819.37,712.613 2809.02,726.171 2795.16,737.404 C2780.98,748.871 2764.05,754.604 2744.37,754.604 C2736.86,754.604 2727.44,752.86 2716.13,749.374 C2707.07,746.585 2702.54,742.13 2702.54,736.01 C2702.54,726.945 2706.02,722.413 2712.99,722.413 C2717.18,722.413 2719.27,724.35 2719.27,728.224 C2719.27,729.463 2718.3,730.78 2716.36,732.175 C2715.36,732.872 2714.85,734.228 2714.85,736.242 C2714.85,738.644 2717.53,741.123 2722.87,743.68 C2728.68,746.469 2737.21,747.863 2748.44,747.863 C2762.93,747.863 2776.91,741.588 2790.39,729.037 C2802.63,717.649 2811.43,704.401 2816.77,689.293 C2814.68,687.589 2812.43,685.729 2810.03,683.715 C2802.59,679.299 2798.87,674.767 2798.87,670.118 C2798.87,668.181 2800.15,667.213 2802.71,667.213 C2806.12,667.213 2810.73,670.118 2816.54,675.929 C2817.78,677.168 2818.94,678.331 2820.03,679.415 C2822.74,671.978 2827.08,662.526 2833.04,651.06 C2843.81,630.297 2856.9,619.915 2872.32,619.915 C2877.82,619.915 2882.16,620.961 2885.34,623.053 C2888.51,625.145 2890.1,628.011 2890.1,631.652 C2890.1,637.463 2887.97,642.383 2883.71,646.411 C2879.29,650.595 2874.68,652.687 2869.88,652.687 C2865.7,652.687 2863.6,651.951 2863.6,650.479"/>
<path class="Note" d="M3450.12,616.271 C3443.77,626.265 3433.73,634.555 3420.02,641.14 C3408.09,646.874 3396.93,649.74 3386.55,649.74 C3378.26,649.74 3371.37,648.074 3365.87,644.743 C3359.9,641.102 3356.92,636.763 3356.92,631.727 C3356.92,620.339 3359.9,610.538 3365.87,602.326 C3374,591.17 3382.21,585.592 3390.5,585.592 C3396.39,585.592 3400.58,586.754 3403.05,589.078 C3406.46,592.099 3408.17,596.244 3408.17,601.513 C3408.17,608.95 3402.63,615.419 3391.55,620.92 C3380.78,626.265 3373.3,629.752 3369.12,631.379 C3370.05,633.316 3371.25,635.059 3372.72,636.608 C3376.36,640.482 3381.32,642.419 3387.6,642.419 C3395.5,642.419 3406.11,639.513 3419.44,633.703 C3432.22,628.047 3442.45,622.237 3450.12,616.271 M3367.49,626.033 C3373.3,623.089 3378.61,619.641 3383.41,615.69 C3390.54,609.88 3394.11,603.604 3394.11,596.864 C3394.11,593.068 3392.36,591.17 3388.88,591.17 C3385.93,591.17 3381.9,594.54 3376.79,601.28 C3370.36,609.647 3367.15,616.465 3367.15,621.733 C3367.15,623.205 3367.26,624.638 3367.49,626.033"/>
<path class="Note" d="M3450.12,794.854 C3443.77,804.848 3433.73,813.138 3420.02,819.723 C3408.09,825.456 3396.93,828.323 3386.55,828.323 C3378.26,828.323 3371.37,826.657 3365.87,823.326 C3359.9,819.684 3356.92,815.346 3356.92,810.31 C3356.92,798.921 3359.9,789.121 3365.87,780.909 C3374,769.752 3382.21,764.174 3390.5,764.174 C3396.39,764.174 3400.58,765.336 3403.05,767.661 C3406.46,770.682 3408.17,774.827 3408.17,780.095 C3408.17,787.533 3402.63,794.002 3391.55,799.502 C3380.78,804.848 3373.3,808.334 3369.12,809.961 C3370.05,811.898 3371.25,813.641 3372.72,815.191 C3376.36,819.065 3381.32,821.001 3387.6,821.001 C3395.5,821.001 3406.11,818.096 3419.44,812.286 C3432.22,806.63 3442.45,800.819 3450.12,794.854 M3367.49,804.616 C3373.3,801.672 3378.61,798.224 3383.41,794.273 C3390.54,788.462 3394.11,782.187 3394.11,775.447 C3394.11,771.651 3392.36,769.752 3388.88,769.752 C3385.93,769.752 3381.9,773.123 3376.79,779.863 C3370.36,788.23 3367.15,795.048 3367.15,800.316 C3367.15,801.788 3367.26,803.221 3367.49,804.616"/>
<path class="Note" d="M3429.2,471.896 C3433.54,468.952 3436.68,466.512 3438.62,464.575 C3442.18,460.778 3443.96,457.292 3443.96,454.116 C3443.96,450.474 3441.95,448.654 3437.92,448.654 C3430.09,448.654 3421.73,455.549 3412.82,469.339 C3410.1,473.523 3404.14,487.158 3394.92,510.246 C3402.28,517.838 3405.96,522.138 3405.96,523.145 C3405.96,524.54 3405.07,525.237 3403.29,525.237 C3401.89,525.237 3398.06,522.874 3391.78,518.148 C3384.96,534.03 3374.62,547.588 3360.75,558.822 C3346.58,570.288 3329.65,576.021 3309.97,576.021 C3302.45,576.021 3293.04,574.278 3281.73,570.791 C3272.67,568.002 3268.13,563.548 3268.13,557.427 C3268.13,548.363 3271.62,543.831 3278.59,543.831 C3282.78,543.831 3284.87,545.767 3284.87,549.641 C3284.87,550.881 3283.9,552.198 3281.96,553.592 C3280.96,554.29 3280.45,555.645 3280.45,557.66 C3280.45,560.061 3283.12,562.541 3288.47,565.097 C3294.28,567.886 3302.8,569.281 3314.04,569.281 C3328.52,569.281 3342.51,563.005 3355.99,550.455 C3368.23,539.066 3377.02,525.818 3382.37,510.71 C3380.28,509.006 3378.03,507.147 3375.63,505.132 C3368.19,500.716 3364.47,496.184 3364.47,491.536 C3364.47,489.599 3365.75,488.63 3368.31,488.63 C3371.72,488.63 3376.33,491.536 3382.14,497.346 C3383.38,498.586 3384.54,499.748 3385.62,500.832 C3388.33,493.395 3392.67,483.943 3398.64,472.477 C3409.41,451.714 3422.5,441.332 3437.92,441.332 C3443.42,441.332 3447.76,442.378 3450.93,444.47 C3454.11,446.562 3455.7,449.429 3455.7,453.07 C3455.7,458.88 3453.57,463.8 3449.31,467.829 C3444.89,472.012 3440.28,474.104 3435.48,474.104 C3431.29,474.104 3429.2,473.368 3429.2,471.896"/>
<path class="Note" d="M3429.2,650.479 C3433.54,647.535 3436.68,645.094 3438.62,643.157 C3442.18,639.361 3443.96,635.875 3443.96,632.698 C3443.96,629.057 3441.95,627.236 3437.92,627.236 C3430.09,627.236 3421.73,634.132 3412.82,647.922 C3410.1,652.106 3404.14,665.741 3394.92,688.828 C3402.28,696.421 3405.96,700.721 3405.96,701.728 C3405.96,703.122 3405.07,703.819 3403.29,703.819 C3401.89,703.819 3398.06,701.457 3391.78,696.731 C3384.96,712.613 3374.62,726.171 3360.75,737.404 C3346.58,748.871 3329.65,754.604 3309.97,754.604 C3302.45,754.604 3293.04,752.86 3281.73,749.374 C3272.67,746.585 3268.13,742.13 3268.13,736.01 C3268.13,726.945 3271.62,722.413 3278.59,722.413 C3282.78,722.413 3284.87,724.35 3284.87,728.224 C3284.87,729.463 3283.9,730.78 3281.96,732.175 C3280.96,732.872 3280.45,734.228 3280.45,736.242 C3280.45,738.644 3283.12,741.123 3288.47,743.68 C3294.28,746.469 3302.8,747.863 3314.04,747.863 C3328.52,747.863 3342.51,741.588 3355.99,729.037 C3368.23,717.649 3377.02,704.401 3382.37,689.293 C3380.28,687.589 3378.03,685.729 3375.63,683.715 C3368.19,679.299 3364.47,674.767 3364.47,670.118 C3364.47,668.181 3365.75,667.213 3368.31,667.213 C3371.72,667.213 3376.33,670.118 3382.14,675.929 C3383.38,677.168 3384.54,678.331 3385.62,679.415 C3388.33,671.978 3392.67,662.526 3398.64,651.06 C3409.41,630.297 3422.5,619.915 3437.92,619.915 C3443.42,619.915 3447.76,620.961 3450.93,623.053 C3454.11,625.145 3455.7,628.011 3455.7,631.652 C3455.7,637.463 3453.57,642.383 3449.31,646.411 C3444.89,650.595 3440.28,652.687 3435.48,652.687 C3431.29,652.687 3429.2,651.951 3429.2,650.479"/>
<path class="Note" d="M3828.3,941.13 C3832.87,941.13 3835.15,943.997 3835.15,949.73 C3835.15,953.758 3832.63,959.763 3827.6,967.742 C3823.57,974.173 3821.55,980.448 3821.55,986.568 C3821.55,990.055 3826.63,991.798 3836.78,991.798 C3845.15,991.798 3856.81,987.266 3871.76,978.201 C3856.73,992.689 3843.67,999.933 3832.59,999.933 C3822.6,999.933 3815.63,998.422 3811.68,995.401 C3810.67,994.626 3809.82,993.696 3809.12,992.611 C3805.25,997.337 3798.78,999.7 3789.71,999.7 C3781.04,999.7 3774.37,997.918 3769.72,994.355 C3766.63,991.953 3765.08,988.118 3765.08,982.85 C3765.08,974.483 3770.03,965.341 3779.95,955.424 C3790.57,944.81 3802.84,939.503 3816.79,939.503 C3820.28,939.503 3822.83,940.781 3824.46,943.338 C3825.78,941.866 3827.06,941.13 3828.3,941.13 M3807.49,987.382 C3807.42,986.762 3807.38,986.142 3807.38,985.523 C3807.38,985.213 3811.33,974.405 3819.23,953.1 C3820.01,951.008 3820.78,949.226 3821.55,947.754 C3818.53,947.134 3815.55,946.824 3812.61,946.824 C3807.18,946.824 3799.98,951.434 3790.99,960.653 C3782.93,968.866 3778.91,975.955 3778.91,981.92 C3778.91,988.505 3782.04,991.798 3788.32,991.798 C3795.91,991.798 3802.3,990.326 3807.49,987.382"/>
<path class="Note" d="M3843.17,561.187 C3847.51,558.243 3850.65,555.803 3852.58,553.866 C3856.15,550.07 3857.93,546.583 3857.93,543.407 C3857.93,539.766 3855.91,537.945 3851.89,537.945 C3844.06,537.945 3835.69,544.84 3826.78,558.631 C3824.07,562.814 3818.11,576.45 3808.89,599.537 C3816.25,607.129 3819.93,611.429 3819.93,612.436 C3819.93,613.831 3819.04,614.528 3817.25,614.528 C3815.86,614.528 3812.03,612.165 3805.75,607.439 C3798.93,623.321 3788.59,636.879 3774.72,648.113 C3760.54,659.579 3743.62,665.312 3723.94,665.312 C3716.42,665.312 3707.01,663.569 3695.7,660.083 C3686.63,657.294 3682.1,652.839 3682.1,646.719 C3682.1,637.654 3685.59,633.122 3692.56,633.122 C3696.74,633.122 3698.84,635.059 3698.84,638.932 C3698.84,640.172 3697.87,641.489 3695.93,642.884 C3694.92,643.581 3694.42,644.937 3694.42,646.951 C3694.42,649.353 3697.09,651.832 3702.44,654.388 C3708.25,657.178 3716.77,658.572 3728,658.572 C3742.49,658.572 3756.48,652.297 3769.96,639.746 C3782.2,628.357 3790.99,615.109 3796.34,600.002 C3794.25,598.297 3792,596.438 3789.6,594.424 C3782.16,590.008 3778.44,585.475 3778.44,580.827 C3778.44,578.89 3779.72,577.922 3782.28,577.922 C3785.68,577.922 3790.29,580.827 3796.1,586.638 C3797.34,587.877 3798.51,589.039 3799.59,590.124 C3802.3,582.686 3806.64,573.235 3812.61,561.768 C3823.38,541.005 3836.47,530.624 3851.89,530.624 C3857.39,530.624 3861.73,531.67 3864.9,533.762 C3868.08,535.853 3869.67,538.72 3869.67,542.361 C3869.67,548.172 3867.54,553.091 3863.27,557.12 C3858.86,561.304 3854.25,563.395 3849.45,563.395 C3845.26,563.395 3843.17,562.659 3843.17,561.187"/>
<path class="Note" d="M3843.17,739.77 C3847.51,736.826 3850.65,734.386 3852.58,732.449 C3856.15,728.652 3857.93,725.166 3857.93,721.99 C3857.93,718.348 3855.91,716.528 3851.89,716.528 C3844.06,716.528 3835.69,723.423 3826.78,737.213 C3824.07,741.397 3818.11,755.032 3808.89,778.12 C3816.25,785.712 3819.93,790.012 3819.93,791.019 C3819.93,792.414 3819.04,793.111 3817.25,793.111 C3815.86,793.111 3812.03,790.748 3805.75,786.022 C3798.93,801.904 3788.59,815.462 3774.72,826.696 C3760.54,838.162 3743.62,843.895 3723.94,843.895 C3716.42,843.895 3707.01,842.152 3695.7,838.666 C3686.63,835.876 3682.1,831.422 3682.1,825.301 C3682.1,816.237 3685.59,811.705 3692.56,811.705 C3696.74,811.705 3698.84,813.641 3698.84,817.515 C3698.84,818.755 3697.87,820.072 3695.93,821.466 C3694.92,822.164 3694.42,823.519 3694.42,825.534 C3694.42,827.935 3697.09,830.415 3702.44,832.971 C3708.25,835.76 3716.77,837.155 3728,837.155 C3742.49,837.155 3756.48,830.879 3769.96,818.329 C3782.2,806.94 3790.99,793.692 3796.34,778.584 C3794.25,776.88 3792,775.021 3789.6,773.006 C3782.16,768.59 3778.44,764.058 3778.44,759.41 C3778.44,757.473 3779.72,756.504 3782.28,756.504 C3785.68,756.504 3790.29,759.41 3796.1,765.22 C3797.34,766.46 3798.51,767.622 3799.59,768.707 C3802.3,761.269 3806.64,751.817 3812.61,740.351 C3823.38,719.588 3836.47,709.207 3851.89,709.207 C3857.39,709.207 3861.73,710.252 3864.9,712.344 C3868.08,714.436 3869.67,717.303 3869.67,720.944 C3869.67,726.754 3867.54,731.674 3863.27,735.703 C3858.86,739.886 3854.25,741.978 3849.45,741.978 C3845.26,741.978 3843.17,741.242 3843.17,739.77"/>
<path class="Note" d="M3843.17,650.479 C3847.51,647.535 3850.65,645.094 3852.58,643.157 C3856.15,639.361 3857.93,635.875 3857.93,632.698 C3857.93,629.057 3855.91,627.236 3851.89,627.236 C3844.06,627.236 3835.69,634.132 3826.78,647.922 C3824.07,652.106 3818.11,665.741 3808.89,688.828 C3816.25,696.421 3819.93,700.721 3819.93,701.728 C3819.93,703.122 3819.04,703.819 3817.25,703.819 C3815.86,703.819 3812.03,701.457 3805.75,696.731 C3798.93,712.613 3788.59,726.171 3774.72,737.404 C3760.54,748.871 3743.62,754.604 3723.94,754.604 C3716.42,754.604 3707.01,752.86 3695.7,749.374 C3686.63,746.585 3682.1,742.13 3682.1,736.01 C3682.1,726.945 3685.59,722.413 3692.56,722.413 C3696.74,722.413 3698.84,724.35 3698.84,728.224 C3698.84,729.463 3697.87,730.78 3695.93,732.175 C3694.92,732.872 3694.42,734.228 3694.42,736.242 C3694.42,738.644 3697.09,741.123 3702.44,743.68 C3708.25,746.469 3716.77,747.863 3728,747.863 C3742.49,747.863 3756.48,741.588 3769.96,729.037 C3782.2,717.649 3790.99,704.401 3796.34,689.293 C3794.25,687.589 3792,685.729 3789.6,683.715 C3782.16,679.299 3778.44,674.767 3778.44,670.118 C3778.44,668.181 3779.72,667.213 3782.28,667.213 C3785.68,667.213 3790.29,670.118 3796.1,675.929 C3797.34,677.168 3798.51,678.331 3799.59,679.415 C3802.3,671.978 3806.64,662.526 3812.61,651.06 C3823.38,630.297 3836.47,619.915 3851.89,619.915 C3857.39,619.915 3861.73,620.961 3864.9,623.053 C3868.08,625.145 3869.67,628.011 3869.67,631.652 C3869.67,637.463 3867.54,642.383 3863.27,646.411 C3858.86,650.595 3854.25,652.687 3849.45,652.687 C3845.26,652.687 3843.17,651.951 3843.17,650.479"/>
<path class="Clef" transform="matrix(2.3811,0,0,2.3811,212.156,2076.38)" d="M25.4,-25.1 C17.8,-25.1 11.7,-20.7 11.6,-20.7 C5.8,-16.4 3.5,-11.3 2.6,-7.8 C2.1,-6 1.9,-4.2 1.9,-2.5 C1.9,-0.1 2.3,2.1 3.2,4 C4.4,6.7 6.7,8.6 9.7,9.6 C10.9,10 12.2,10.2 13.5,10.2 C15.7,10.2 18,9.6 19.9,8.5 C23,6.8 24.9,3.2 24.9,-0.7 C24.9,-4.2 23.1,-7.4 20.1,-9.3 C18,-10.7 16,-11.1 14.3,-11.1 C13.1,-11.1 12,-10.9 11.1,-10.6 C10.1,-10.2 8.4,-9.2 7.6,-8.5 C7.9,-10.4 9.1,-13.3 10.2,-14.9 C11.3,-16.5 13.5,-18.5 15.2,-19.4 C17.7,-20.8 20.9,-21.4 24.4,-21.4 C34.6,-21.4 39.6,-13.2 39.6,3.6 C39.6,12.9 36.1,21.8 33.1,27.7 C29.8,34.3 25.4,40.6 21.5,44.1 C11.1,53.6 1.3,58.1 1.2,58.1 C1.2,58.1 -0.3,59 0.1,60.5 C0.4,61.5 1.3,61.7 1.9,61.7 C2,61.7 2.3,61.6 2.4,61.6 C2.5,61.6 13.9,56.9 23,49.8 C28.1,46.1 32.7,42.1 36.7,37.8 C40.3,33.9 43.4,29.7 45.9,25.5 C50.3,18 52.8,10.2 52.8,3.5 C52.8,-4.8 50.6,-11.7 46.5,-16.6 C41.8,-22.2 34.7,-25.1 25.4,-25.1 M56.8,-12.4 C56.8,-9.6 59,-7.4 61.6,-7.4 C64.2,-7.4 66.4,-9.6 66.4,-12.4 C66.4,-15.2 64.2,-17.5 61.6,-17.5 C59,-17.5 56.8,-15.2 56.8,-12.4 M56.8,12.3 C56.8,15.1 59,17.4 61.6,17.4 C64.2,17.4 66.4,15.1 66.4,12.3 C66.4,9.5 64.2,7.2 61.6,7.2 C59,7.2 56.8,9.5 56.8,12.3"/>
<path class="Clef" transform="matrix(2.3811,0,0,2.3811,212.156,1570.39)" d="M63.37,-5.89004 C62.14,-11.32 59.5,-15.14 58.72,-16.1801 C55.5301,-20.45 51.52,-23.3 46.8301,-24.65 C43.72,-25.54 40.72,-25.65 38.3,-25.47 C37.2601,-31.4801 36.2601,-37.3601 35.35,-42.8101 C40.79,-48.97 44.42,-54.77 46.69,-59.07 C50.1601,-65.65 51.3101,-70.2301 51.3601,-70.4301 C53.0801,-75.64 53.44,-83.34 52.34,-91.55 C51.3301,-99.1 49.24,-105.81 46.89,-109.06 C45.8601,-110.49 44.8101,-111.22 43.77,-111.22 C42.55,-111.22 40.04,-109.98 37.15,-107.21 C34.85,-105.01 31.5801,-101.12 29.02,-95.1101 C26.02,-88.05 25.8101,-78.5601 26.1601,-71.84 C26.54,-64.57 27.65,-58.8801 27.6601,-58.8301 C27.6801,-58.74 27.94,-57.24 28.39,-54.67 C28.1601,-54.44 27.92,-54.22 27.67,-53.9801 C26.6301,-52.9801 25.44,-51.84 24.0601,-50.4601 C23.2,-49.6 22.25,-48.69 21.25,-47.72 C12.79,-39.57 0,-27.25 0,-8.1 C0,-3.4 0.9,1.01992 2.68008,5.02998 C4.27002,8.62998 6.57002,11.91 9.5,14.78 C17.2301,22.33 27.82,25.5399 34.8801,25.38 C37.8301,25.31 40.4601,25.0699 42.85,24.6199 C44.6801,34.2199 45.82,41.25 45.8601,46.5899 C45.9,53.1 44.25,57.0699 40.35,59.8399 C37.92,61.5699 35.1101,62.5199 32.0101,62.6699 C29.42,62.7899 27.1601,62.3199 25.7301,61.91 L25.72,61.91 C25.72,61.91 25.4301,61.83 25.42,61.63 C25.4101,61.45 25.7601,61.4 25.77,61.4 L25.79,61.4 C27.7101,60.96 31.2801,59.73 33.64,56.43 C35.44,53.91 36.3101,49.2899 34.47,45.35 C33.3601,42.96 30.85,40.01 25.2301,39.56 C22.74,39.36 20.47,39.8699 18.47,41.0699 C16.6601,42.15 15.1601,43.7899 14.1101,45.7899 C11.65,50.4899 12.1101,56.2199 15.24,60.06 C18.2,63.68 22.82,65.9899 28.25,66.5699 C29.1,66.66 29.95,66.7 30.8,66.7 C31.5101,66.7 32.22,66.6699 32.92,66.61 C31.72,66.9399 30.64,67.4899 29.77,68.25 C28.2801,69.5399 27.44,71.38 27.44,73.41 C27.44,75.28 28.0601,76.65 29.55,78.0399 C28.4101,78.5 27.55,78.98 26.79,79.56 C25.25,80.73 24.34,82.46 24.34,84.1899 C24.34,87.45 27.3,89.63 31.72,89.63 C37.1301,89.63 40.9101,86.63 40.9101,82.35 C40.9101,80.1199 39.9101,78.18 38.0801,76.83 C41.0101,75.6199 42.37,73.9399 42.37,71.56 C42.39,70.05 41.69,68.61 40.49,67.6899 C39.2801,66.7399 37.62,66.2399 35.69,66.2399 L35.5101,66.2399 C38.2801,65.7 40.92,64.7 43.2101,63.28 C46.87,60.71 48.99,56.73 49.67,51.1 C50.2301,46.46 49.84,40.55 48.44,32.48 C48.0801,30.3899 47.54,27.36 46.8801,23.6 C52.6301,21.68 56.79,18.11 60.5601,12.26 C63.85,6.51992 64.8,0.419922 63.37,-5.89004 M32.39,87.5399 C30.19,87.5399 28.7301,86.1199 28.7301,84.01 C28.7301,82.11 29.65,80.5 31.32,79.4699 C31.6801,79.66 31.77,79.71 32.1101,79.88 C33.3,80.48 33.3,80.48 33.55,80.63 L33.5601,80.6399 C35.47,81.73 36.25,82.76 36.25,84.18 C36.24,86.0899 34.59,87.5399 32.39,87.5399 M38.3101,71.63 C38.3101,73.2699 37.7301,74.3399 36.1801,75.53 C34.74,74.78 34.35,74.56 33.9801,74.3399 L33.8801,74.28 C32.3301,73.3399 31.85,72.66 31.85,71.4 C31.85,69.6 33.2301,68.3399 35.19,68.3399 C37.17,68.35 38.3101,69.55 38.3101,71.63 M33.15,-83.8101 C34.9301,-89.55 37.67,-92.8 39.6601,-94.5301 C41.4101,-96.05 43.0601,-96.7601 43.9801,-96.7601 C44.12,-96.7601 44.24,-96.74 44.34,-96.7101 C44.8,-96.57 45.3301,-96 45.8,-95.1301 C48.1101,-90.84 47.37,-84.1301 46.0301,-79.69 C44.4,-74.29 41.4801,-68.6801 32.69,-59.0601 C32.52,-60.17 32.3601,-61.22 32.2101,-62.2 C30.95,-70.49 31.27,-77.7601 33.15,-83.8101 M29.15,20.31 C24.5101,19.0899 20.0801,16.5899 16.32,13.0899 C15.0101,11.86 13.14,9.68994 11.67,6.3 C10.3101,3.13994 9.65,-0.290039 9.7,-3.88008 C9.77002,-8.57002 11.0801,-13.39 13.59,-18.1801 C16.5101,-23.7601 21.07,-29.29 27.1301,-34.62 C28.5801,-35.9 29.95,-37.1801 31.24,-38.4601 C32,-34.2 32.8301,-29.5101 33.7101,-24.6301 C29.8601,-23.3601 25.1101,-20.2101 22,-14.5601 C18.47,-7.99004 18.6101,-2.47002 19.34,1.00996 C20.2801,5.46992 22.8101,9.22998 26.27,11.3199 C27.2,11.88 31.3301,14.01 33.17,13.43 C33.54,13.31 33.8101,13.0899 33.95,12.76 C34.4601,11.5899 33.44,10.95 31.8801,9.98994 C31.2801,9.61992 30.6101,9.2 29.8801,8.66992 C26.5601,6.17998 25.1101,1.72998 26.1801,-2.65 C26.7601,-5.05 28.04,-7.21006 29.8801,-8.91006 C31.55,-10.4601 33.59,-11.5601 35.97,-12.2 C38.0101,-0.960059 40.07,10.1899 41.7101,18.55 C41.84,19.2399 41.9801,19.91 42.1101,20.58 C37.7101,21.51 33.37,21.4199 29.15,20.31 M54.9,10.1 C53.7301,13.28 51.27,17.35 46.14,19.41 C46.07,18.9899 45.99,18.56 45.9101,18.13 C44.3601,9.36992 42.4301,-1.61006 40.47,-12.87 C50.82,-13.35 55.09,-5.91006 55.9801,-1.08008 C56.45,1.45 56.45,5.88994 54.9,10.1"/>
<path class="FiguredBass" d="M1010.22,2390.15 C1005.64,2390.15 1002.6,2391.99 1001.08,2395.67 C999.567,2399.35 998.809,2404.56 998.809,2411.3 L998.809,2422.25 C1002.03,2420.95 1004.81,2420.27 1007.16,2420.21 C1015.2,2420.21 1021.52,2421.98 1026.13,2425.54 C1030.74,2429.1 1033.04,2434.38 1033.04,2441.4 C1033.04,2448.42 1030.71,2453.73 1026.04,2457.31 C1021.37,2460.9 1015.08,2462.7 1007.16,2462.7 C999.056,2462.7 992.717,2458.94 988.14,2451.42 C983.563,2443.91 981.275,2434.99 981.275,2424.66 C981.275,2414.39 983.934,2405.49 989.253,2397.94 C994.572,2390.39 1001.56,2386.62 1010.22,2386.62 C1015.91,2386.62 1020.83,2388.06 1024.97,2390.94 C1029.12,2393.81 1031.19,2397.6 1031.19,2402.3 C1031.19,2405.02 1030.2,2407.37 1028.22,2409.35 C1026.24,2411.33 1023.87,2412.32 1021.12,2412.32 C1018.37,2412.32 1016,2411.33 1014.02,2409.35 C1012.04,2407.37 1011.06,2405.02 1011.06,2402.3 C1011.06,2399.64 1012.04,2397.29 1014.02,2395.25 C1014.7,2394.45 1015.66,2393.76 1016.9,2393.21 C1016.59,2392.4 1015.97,2391.79 1015.04,2391.35 C1013.68,2390.55 1012.08,2390.15 1010.22,2390.15 M1014.77,2428.09 C1013.65,2425.18 1011.21,2423.73 1007.44,2423.73 C1003.66,2423.73 1001.33,2425.18 1000.43,2428.09 C999.536,2431 999.087,2435.42 999.087,2441.36 C999.087,2448.35 999.536,2453.05 1000.43,2455.46 C1001.33,2457.87 1003.66,2459.08 1007.44,2459.08 C1011.21,2459.08 1013.65,2457.62 1014.77,2454.72 C1015.88,2451.81 1016.44,2447.37 1016.44,2441.4 C1016.44,2435.44 1015.88,2431 1014.77,2428.09"/>
<path class="FiguredBass" d="M1497.63,2436.07 L1497.63,2419.09 C1497.63,2418.1 1497.98,2417.22 1498.69,2416.45 C1499.41,2415.67 1500.32,2415.29 1501.43,2415.29 C1502.55,2415.29 1503.46,2415.67 1504.17,2416.45 C1504.88,2417.22 1505.24,2418.1 1505.24,2419.09 L1505.24,2436.07 L1518.5,2436.07 C1519.62,2436.07 1520.53,2436.46 1521.24,2437.23 C1521.95,2438 1522.31,2438.88 1522.31,2439.87 C1522.31,2440.86 1521.95,2441.74 1521.24,2442.52 C1520.53,2443.29 1519.62,2443.68 1518.5,2443.68 L1505.24,2443.68 L1505.24,2460.65 C1505.24,2461.64 1504.88,2462.53 1504.17,2463.3 C1503.46,2464.07 1502.55,2464.46 1501.43,2464.46 C1500.32,2464.46 1499.41,2464.07 1498.69,2463.3 C1497.98,2462.53 1497.63,2461.64 1497.63,2460.65 L1497.63,2443.68 L1480.46,2443.68 L1480.46,2444.88 C1480.46,2448.72 1481.49,2452.06 1483.53,2454.9 C1485.57,2457.75 1488.2,2459.17 1491.41,2459.17 C1492.65,2459.17 1493.27,2459.73 1493.27,2460.84 C1493.27,2462.08 1492.65,2462.7 1491.41,2462.7 C1489.19,2462.7 1485.88,2462.37 1481.49,2461.72 C1477.09,2461.07 1473.77,2460.75 1471.51,2460.75 C1469.25,2460.75 1465.93,2461.07 1461.54,2461.72 C1457.15,2462.37 1453.84,2462.7 1451.61,2462.7 C1450.38,2462.7 1449.76,2462.08 1449.76,2460.84 C1449.76,2459.73 1450.38,2459.17 1451.61,2459.17 C1454.83,2459.17 1457.47,2457.75 1459.54,2454.9 C1461.62,2452.06 1462.65,2448.72 1462.65,2444.88 L1462.65,2443.68 L1437.33,2443.68 C1435.72,2443.68 1434.53,2443.29 1433.75,2442.52 C1432.98,2441.74 1432.59,2440.96 1432.59,2440.15 C1432.59,2439.84 1433.32,2438.78 1434.77,2436.95 C1436.23,2435.13 1438.01,2432.7 1440.11,2429.67 C1442.21,2426.64 1444.3,2423.19 1446.37,2419.32 C1448.44,2415.46 1450.21,2410.82 1451.66,2405.41 C1453.11,2400 1453.84,2394.54 1453.84,2389.03 C1453.84,2387.43 1454.52,2386.62 1455.88,2386.62 C1456.07,2386.62 1456.71,2386.78 1457.83,2387.09 C1458.94,2387.39 1460.36,2387.72 1462.1,2388.06 C1463.83,2388.4 1465.5,2388.57 1467.11,2388.57 C1469.52,2388.57 1471.99,2388.23 1474.53,2387.55 L1478.7,2386.44 C1479.51,2386.44 1480.16,2386.74 1480.65,2387.36 C1481.02,2387.92 1480.96,2388.48 1480.46,2389.03 L1440.02,2436.07 L1462.65,2436.07 L1462.65,2419.37 C1462.65,2417.95 1463.04,2416.85 1463.81,2416.08 C1464.59,2415.3 1465.64,2414.65 1466.97,2414.13 C1468.3,2413.6 1469.83,2412.26 1471.56,2410.09 C1473.17,2408.05 1475.02,2404.96 1477.13,2400.82 C1477.43,2400.2 1477.9,2399.89 1478.52,2399.89 C1479.82,2399.89 1480.46,2400.6 1480.46,2402.02 L1480.46,2436.07 L1497.63,2436.07 "/>
<path class="FiguredBass" d="M1479.63,2528.09 C1479.63,2529.08 1480.19,2530.04 1481.3,2530.97 C1482.41,2531.89 1483.63,2532.77 1484.96,2533.61 C1486.29,2534.44 1487.52,2536.02 1488.63,2538.34 C1489.74,2540.66 1490.3,2543.58 1490.3,2547.11 C1490.3,2553.91 1487.73,2559.17 1482.6,2562.88 C1477.47,2566.59 1470.97,2568.45 1463.12,2568.45 C1456.81,2568.45 1451.32,2566.87 1446.65,2563.71 C1441.98,2560.56 1439.64,2556.42 1439.64,2551.28 C1439.64,2548.56 1440.63,2546.2 1442.61,2544.19 C1444.59,2542.18 1446.96,2541.17 1449.71,2541.17 C1452.46,2541.17 1454.8,2542.16 1456.71,2544.14 C1458.63,2546.12 1459.59,2548.5 1459.59,2551.28 C1459.59,2552.52 1458.57,2553.86 1456.53,2555.32 C1454.49,2556.77 1453.47,2558.12 1453.47,2559.35 C1453.47,2561.27 1454.41,2562.68 1456.3,2563.57 C1458.18,2564.47 1460.46,2564.92 1463.12,2564.92 C1466.58,2564.92 1469.04,2563.2 1470.49,2559.77 C1471.95,2556.34 1472.67,2552.12 1472.67,2547.11 L1472.67,2544.7 C1472.67,2541.36 1472.56,2538.82 1472.35,2537.09 C1472.13,2535.36 1471.45,2533.81 1470.31,2532.45 C1469.16,2531.09 1467.41,2530.41 1465.06,2530.41 L1452.91,2530.41 C1451.49,2530.41 1450.78,2529.64 1450.78,2528.09 C1450.78,2526.67 1451.49,2525.96 1452.91,2525.96 L1465.06,2525.96 C1467.6,2525.96 1469.58,2525 1471,2523.08 C1471.5,2522.4 1471.9,2521.29 1472.21,2519.74 C1472.52,2517.7 1472.67,2514.76 1472.67,2510.93 L1472.67,2509.72 C1472.67,2500.5 1469.27,2495.9 1462.47,2495.9 C1456.47,2495.9 1453.47,2497.57 1453.47,2500.91 C1453.47,2502.02 1454.38,2503.21 1456.2,2504.48 C1458.03,2505.75 1458.94,2506.94 1458.94,2508.05 C1458.94,2510.46 1458.09,2512.53 1456.39,2514.27 C1454.69,2516 1452.62,2516.86 1450.17,2516.86 C1447.73,2516.86 1445.67,2516 1444,2514.27 C1442.34,2512.53 1441.5,2510.46 1441.5,2508.05 C1441.5,2503.29 1443.57,2499.48 1447.72,2496.64 C1451.86,2493.79 1456.78,2492.37 1462.47,2492.37 C1469.95,2492.37 1476.1,2493.81 1480.93,2496.69 C1485.75,2499.56 1488.17,2503.91 1488.17,2509.72 C1488.17,2513.86 1487.73,2517.08 1486.87,2519.37 C1486,2521.66 1485.01,2523.05 1483.9,2523.54 C1482.78,2524.04 1481.79,2524.61 1480.93,2525.26 C1480.06,2525.91 1479.63,2526.85 1479.63,2528.09"/>
<path class="FiguredBass" d="M1932.97,2453.05 L1932.97,2472.44 C1932.97,2474.35 1932,2475.31 1930.05,2475.31 C1928.1,2475.31 1927.12,2474.35 1927.12,2472.44 L1927.12,2455.55 L1924.16,2456.76 C1923.85,2456.88 1923.44,2456.94 1922.95,2456.94 C1922.15,2456.94 1921.43,2456.63 1920.82,2456.02 C1920.2,2455.4 1919.89,2454.69 1919.89,2453.88 L1919.89,2444.42 C1919.89,2443.06 1920.54,2442.1 1921.84,2441.54 L1927.12,2439.32 L1927.12,2419.83 L1924.16,2421.04 C1923.97,2421.1 1923.72,2421.13 1923.41,2421.13 C1923.29,2421.13 1923.14,2421.13 1922.95,2421.13 C1922.02,2421.01 1921.28,2420.67 1920.72,2420.11 C1920.17,2419.56 1919.89,2418.91 1919.89,2418.16 L1919.89,2408.7 C1919.89,2407.4 1920.54,2406.47 1921.84,2405.92 L1927.12,2403.69 L1927.12,2383.93 C1927.12,2382.01 1928.1,2381.05 1930.05,2381.05 C1932,2381.05 1932.97,2382.01 1932.97,2383.93 L1932.97,2401.28 L1944.94,2396.27 L1944.94,2376.88 C1944.94,2374.96 1945.9,2374 1947.81,2374 C1949.73,2374 1950.69,2374.96 1950.69,2376.88 L1950.69,2393.95 L1953.94,2392.56 C1954.25,2392.44 1954.59,2392.37 1954.96,2392.37 C1955.76,2392.37 1956.49,2392.68 1957.14,2393.3 C1957.79,2393.92 1958.11,2394.63 1958.11,2395.43 L1958.11,2404.9 C1958.11,2406.26 1957.43,2407.22 1956.07,2407.77 L1950.69,2410 L1950.69,2429.58 L1953.94,2428.28 C1954.12,2428.21 1954.34,2428.18 1954.59,2428.18 C1954.71,2428.18 1954.83,2428.18 1954.96,2428.18 C1956.01,2428.37 1956.8,2428.71 1957.32,2429.2 C1957.85,2429.7 1958.11,2430.35 1958.11,2431.15 L1958.11,2440.62 C1958.11,2441.91 1957.43,2442.84 1956.07,2443.4 L1950.69,2445.63 L1950.69,2465.39 C1950.69,2467.3 1949.73,2468.26 1947.81,2468.26 C1945.9,2468.26 1944.94,2467.3 1944.94,2465.39 L1944.94,2448.04 L1932.97,2453.05 M1932.97,2436.9 L1944.94,2431.99 L1944.94,2412.41 L1932.97,2417.42 L1932.97,2436.9 "/>
<path class="FiguredBass" d="M2349.71,2444.42 C2349.03,2445.16 2348.13,2445.53 2347.02,2445.53 C2345.9,2445.53 2344.99,2445.15 2344.28,2444.37 C2343.57,2443.6 2343.21,2442.72 2343.21,2441.73 L2343.21,2428.46 L2329.95,2428.46 C2328.83,2428.46 2327.92,2428.08 2327.21,2427.3 C2326.5,2426.53 2326.14,2425.65 2326.14,2424.66 C2326.14,2423.67 2326.5,2422.79 2327.21,2422.01 C2327.92,2421.24 2328.83,2420.85 2329.95,2420.85 L2343.21,2420.85 L2343.21,2407.59 C2343.21,2406.6 2343.57,2405.72 2344.28,2404.94 C2344.99,2404.17 2345.9,2403.78 2347.02,2403.78 C2348.13,2403.78 2349.04,2404.17 2349.75,2404.94 C2350.46,2405.72 2350.82,2406.6 2350.82,2407.59 L2350.82,2420.85 L2364.09,2420.85 C2365.2,2420.85 2366.11,2421.24 2366.82,2422.01 C2367.54,2422.79 2367.89,2423.67 2367.89,2424.66 C2367.89,2425.65 2367.54,2426.53 2366.82,2427.3 C2366.11,2428.08 2365.2,2428.46 2364.09,2428.46 L2350.82,2428.46 L2350.82,2441.73 C2350.82,2442.72 2350.45,2443.62 2349.71,2444.42 M2402.48,2388.57 C2404.83,2388.57 2407.31,2388.23 2409.9,2387.55 L2414.08,2386.44 C2414.88,2386.44 2415.52,2386.74 2415.98,2387.36 C2416.44,2387.98 2416.4,2388.54 2415.84,2389.03 L2372.7,2439.22 L2398.03,2439.22 L2398.03,2419.37 C2398.03,2417.95 2398.41,2416.85 2399.19,2416.08 C2399.96,2415.3 2400.95,2414.69 2402.16,2414.22 C2403.36,2413.76 2404.94,2412.38 2406.89,2410.09 C2408.84,2407.8 2410.71,2404.71 2412.5,2400.82 C2412.81,2400.2 2413.27,2399.89 2413.89,2399.89 C2415.19,2399.89 2415.84,2400.6 2415.84,2402.02 L2415.84,2439.22 L2426.79,2439.22 C2428.33,2439.22 2429.11,2439.94 2429.11,2441.36 C2429.11,2442.9 2428.33,2443.68 2426.79,2443.68 L2415.84,2443.68 L2415.84,2444.88 C2415.84,2448.72 2416.86,2452.06 2418.9,2454.9 C2420.94,2457.75 2423.57,2459.17 2426.79,2459.17 C2428.03,2459.17 2428.64,2459.73 2428.64,2460.84 C2428.64,2462.08 2428.03,2462.7 2426.79,2462.7 C2424.56,2462.7 2421.25,2462.37 2416.86,2461.72 C2412.47,2461.07 2409.15,2460.75 2406.89,2460.75 C2404.63,2460.75 2401.31,2461.07 2396.92,2461.72 C2392.52,2462.37 2389.21,2462.7 2386.99,2462.7 C2385.75,2462.7 2385.13,2462.08 2385.13,2460.84 C2385.13,2459.73 2385.75,2459.17 2386.99,2459.17 C2390.2,2459.17 2392.85,2457.75 2394.92,2454.9 C2396.99,2452.06 2398.03,2448.72 2398.03,2444.88 L2398.03,2443.68 L2372.7,2443.68 C2371.09,2443.68 2369.9,2443.29 2369.13,2442.52 C2368.36,2441.74 2367.97,2440.96 2367.97,2440.15 C2367.97,2439.84 2368.7,2438.78 2370.15,2436.95 C2371.6,2435.13 2373.38,2432.7 2375.48,2429.67 C2377.59,2426.64 2379.67,2423.19 2381.75,2419.32 C2383.82,2415.46 2385.58,2410.82 2387.03,2405.41 C2388.49,2400 2389.21,2394.54 2389.21,2389.03 C2389.21,2387.43 2389.9,2386.62 2391.26,2386.62 C2391.44,2386.62 2392.09,2386.78 2393.2,2387.09 C2394.32,2387.39 2395.74,2387.72 2397.47,2388.06 C2399.2,2388.4 2400.87,2388.57 2402.48,2388.57"/>
<path class="FiguredBass" d="M2817.1,2390.15 C2812.52,2390.15 2809.48,2391.99 2807.96,2395.67 C2806.45,2399.35 2805.69,2404.56 2805.69,2411.3 L2805.69,2422.25 C2808.9,2420.95 2811.69,2420.27 2814.04,2420.21 C2822.08,2420.21 2828.4,2421.98 2833.01,2425.54 C2837.62,2429.1 2839.92,2434.38 2839.92,2441.4 C2839.92,2448.42 2837.59,2453.73 2832.92,2457.31 C2828.25,2460.9 2821.95,2462.7 2814.04,2462.7 C2805.94,2462.7 2799.6,2458.94 2795.02,2451.42 C2790.44,2443.91 2788.15,2434.99 2788.15,2424.66 C2788.15,2414.39 2790.81,2405.49 2796.13,2397.94 C2801.45,2390.39 2808.44,2386.62 2817.1,2386.62 C2822.79,2386.62 2827.71,2388.06 2831.85,2390.94 C2835.99,2393.81 2838.07,2397.6 2838.07,2402.3 C2838.07,2405.02 2837.08,2407.37 2835.1,2409.35 C2833.12,2411.33 2830.75,2412.32 2828,2412.32 C2825.25,2412.32 2822.88,2411.33 2820.9,2409.35 C2818.92,2407.37 2817.93,2405.02 2817.93,2402.3 C2817.93,2399.64 2818.92,2397.29 2820.9,2395.25 C2821.58,2394.45 2822.54,2393.76 2823.78,2393.21 C2823.47,2392.4 2822.85,2391.79 2821.92,2391.35 C2820.56,2390.55 2818.95,2390.15 2817.1,2390.15 M2821.64,2428.09 C2820.53,2425.18 2818.09,2423.73 2814.32,2423.73 C2810.54,2423.73 2808.21,2425.18 2807.31,2428.09 C2806.41,2431 2805.97,2435.42 2805.97,2441.36 C2805.97,2448.35 2806.41,2453.05 2807.31,2455.46 C2808.21,2457.87 2810.54,2459.08 2814.32,2459.08 C2818.09,2459.08 2820.53,2457.62 2821.64,2454.72 C2822.76,2451.81 2823.31,2447.37 2823.31,2441.4 C2823.31,2435.44 2822.76,2431 2821.64,2428.09"/>
<path class="FiguredBass" d="M3329.27,2444.42 C3328.59,2445.16 3327.7,2445.53 3326.58,2445.53 C3325.47,2445.53 3324.56,2445.15 3323.85,2444.37 C3323.13,2443.6 3322.78,2442.72 3322.78,2441.73 L3322.78,2428.46 L3309.51,2428.46 C3308.4,2428.46 3307.49,2428.08 3306.78,2427.3 C3306.06,2426.53 3305.71,2425.65 3305.71,2424.66 C3305.71,2423.67 3306.06,2422.79 3306.78,2422.01 C3307.49,2421.24 3308.4,2420.85 3309.51,2420.85 L3322.78,2420.85 L3322.78,2407.59 C3322.78,2406.6 3323.13,2405.72 3323.85,2404.94 C3324.56,2404.17 3325.47,2403.78 3326.58,2403.78 C3327.7,2403.78 3328.61,2404.17 3329.32,2404.94 C3330.03,2405.72 3330.39,2406.6 3330.39,2407.59 L3330.39,2420.85 L3343.65,2420.85 C3344.77,2420.85 3345.68,2421.24 3346.39,2422.01 C3347.1,2422.79 3347.46,2423.67 3347.46,2424.66 C3347.46,2425.65 3347.1,2426.53 3346.39,2427.3 C3345.68,2428.08 3344.77,2428.46 3343.65,2428.46 L3330.39,2428.46 L3330.39,2441.73 C3330.39,2442.72 3330.02,2443.62 3329.27,2444.42 M3382.7,2390.15 C3378.12,2390.15 3375.07,2391.99 3373.56,2395.67 C3372.04,2399.35 3371.29,2404.56 3371.29,2411.3 L3371.29,2422.25 C3374.5,2420.95 3377.28,2420.27 3379.64,2420.21 C3387.68,2420.21 3394,2421.98 3398.61,2425.54 C3403.22,2429.1 3405.52,2434.38 3405.52,2441.4 C3405.52,2448.42 3403.18,2453.73 3398.51,2457.31 C3393.84,2460.9 3387.55,2462.7 3379.64,2462.7 C3371.53,2462.7 3365.19,2458.94 3360.62,2451.42 C3356.04,2443.91 3353.75,2434.99 3353.75,2424.66 C3353.75,2414.39 3356.41,2405.49 3361.73,2397.94 C3367.05,2390.39 3374.04,2386.62 3382.7,2386.62 C3388.39,2386.62 3393.3,2388.06 3397.45,2390.94 C3401.59,2393.81 3403.66,2397.6 3403.66,2402.3 C3403.66,2405.02 3402.67,2407.37 3400.69,2409.35 C3398.72,2411.33 3396.35,2412.32 3393.6,2412.32 C3390.85,2412.32 3388.48,2411.33 3386.5,2409.35 C3384.52,2407.37 3383.53,2405.02 3383.53,2402.3 C3383.53,2399.64 3384.52,2397.29 3386.5,2395.25 C3387.18,2394.45 3388.14,2393.76 3389.38,2393.21 C3389.07,2392.4 3388.45,2391.79 3387.52,2391.35 C3386.16,2390.55 3384.55,2390.15 3382.7,2390.15 M3387.24,2428.09 C3386.13,2425.18 3383.69,2423.73 3379.91,2423.73 C3376.14,2423.73 3373.81,2425.18 3372.91,2428.09 C3372.01,2431 3371.56,2435.42 3371.56,2441.36 C3371.56,2448.35 3372.01,2453.05 3372.91,2455.46 C3373.81,2457.87 3376.14,2459.08 3379.91,2459.08 C3383.69,2459.08 3386.13,2457.62 3387.24,2454.72 C3388.36,2451.81 3388.91,2447.37 3388.91,2441.4 C3388.91,2435.44 3388.36,2431 3387.24,2428.09"/>
<path class="Bracket" transform="matrix(8.6315,0,0,8.6315,76.1283,2254.96)" d="M0.92002,-50 C2.69004,-51.88 6.2,-55.8 6.2,-63 C6.2,-72.1 2.25996,-81.32 2.25996,-86.97 C2.25996,-93.06 5.84004,-98.84 5.95,-99 C6.05996,-99.16 6.05,-99.39 5.94004,-99.46 C5.82998,-99.53 5.62002,-99.47 5.49004,-99.32 C5.35996,-99.17 0,-93.75 0,-85.6 C0,-76.75 3.5,-70.58 3.5,-59.07 C3.5,-56.89 2.55996,-53.36 0.1,-50.33 C-0.0799805,-50.17 -0.1,-49.89 0.0599609,-49.7 L0.0700195,-49.69 L0.1,-49.66 C2.55996,-46.63 3.5,-43.1 3.5,-40.92 C3.5,-29.4 0,-23.24 0,-14.39 C0,-6.25 5.35996,-0.8 5.49004,-0.659961 C5.62002,-0.52002 5.8,-0.42998 5.94004,-0.52002 C6.07998,-0.609961 6.07998,-0.77998 5.95,-0.97998 C5.82002,-1.17998 2.25996,-6.92002 2.25996,-13.01 C2.25996,-18.66 6.2,-27.9 6.2,-37 C6.2,-44.3 2.69004,-48.12 0.92002,-50"/>
</svg>
