<?xml version="1.0" encoding="UTF-8" standalone="no"?>
<svg width="4209.44px" height="2976.38px" viewBox="0 0 4209.44 2976.38"
 xmlns="http://www.w3.org/2000/svg" xmlns:xlink="http://www.w3.org/1999/xlink" version="1.2" baseProfile="tiny">
<title>LaMineur (35)</title>
<desc>Generated by MuseScore 3.6.2</desc>
<polyline class="StaffLines" fill="none" stroke="#000000" stroke-width="6.55" stroke-linejoin="bevel" points="153.819,558.425 4138.58,558.425"/>
<polyline class="StaffLines" fill="none" stroke="#000000" stroke-width="6.55" stroke-linejoin="bevel" points="153.819,647.717 4138.58,647.717"/>
<polyline class="StaffLines" fill="none" stroke="#000000" stroke-width="6.55" stroke-linejoin="bevel" points="153.819,737.008 4138.58,737.008"/>
<polyline class="StaffLines" fill="none" stroke="#000000" stroke-width="6.55" stroke-linejoin="bevel" points="153.819,826.299 4138.58,826.299"/>
<polyline class="StaffLines" fill="none" stroke="#000000" stroke-width="6.55" stroke-linejoin="bevel" points="153.819,915.591 4138.58,915.591"/>
<polyline class="StaffLines" fill="none" stroke="#000000" stroke-width="6.55" stroke-linejoin="bevel" points="153.819,1004.88 4138.58,1004.88"/>
<polyline class="StaffLines" fill="none" stroke="#000000" stroke-width="6.55" stroke-linejoin="bevel" points="153.819,1391.81 4138.58,1391.81"/>
<polyline class="StaffLines" fill="none" stroke="#000000" stroke-width="6.55" stroke-linejoin="bevel" points="153.819,1451.34 4138.58,1451.34"/>
<polyline class="StaffLines" fill="none" stroke="#000000" stroke-width="6.55" stroke-linejoin="bevel" points="153.819,1510.87 4138.58,1510.87"/>
<polyline class="StaffLines" fill="none" stroke="#000000" stroke-width="6.55" stroke-linejoin="bevel" points="153.819,1570.39 4138.58,1570.39"/>
<polyline class="StaffLines" fill="none" stroke="#000000" stroke-width="6.55" stroke-linejoin="bevel" points="153.819,1629.92 4138.58,1629.92"/>
<polyline class="StaffLines" fill="none" stroke="#000000" stroke-width="6.55" stroke-linejoin="bevel" points="153.819,2016.85 4138.58,2016.85"/>
<polyline class="StaffLines" fill="none" stroke="#000000" stroke-width="6.55" stroke-linejoin="bevel" points="153.819,2076.38 4138.58,2076.38"/>
<polyline class="StaffLines" fill="none" stroke="#000000" stroke-width="6.55" stroke-linejoin="bevel" points="153.819,2135.91 4138.58,2135.91"/>
<polyline class="StaffLines" fill="none" stroke="#000000" stroke-width="6.55" stroke-linejoin="bevel" points="153.819,2195.43 4138.58,2195.43"/>
<polyline class="StaffLines" fill="none" stroke="#000000" stroke-width="6.55" stroke-linejoin="bevel" points="153.819,2254.96 4138.58,2254.96"/>
<polyline class="BarLine" fill="none" stroke="#000000" stroke-width="10.71" stroke-linejoin="bevel" points="159.176,2013.58 159.176,2258.23"/>
<polyline class="BarLine" fill="none" stroke="#000000" stroke-width="10.71" stroke-linejoin="bevel" points="860.212,2013.58 860.212,2258.23"/>
<polyline class="BarLine" fill="none" stroke="#000000" stroke-width="10.71" stroke-linejoin="bevel" points="1299.3,2013.58 1299.3,2258.23"/>
<polyline class="BarLine" fill="none" stroke="#000000" stroke-width="10.71" stroke-linejoin="bevel" points="1738.39,2013.58 1738.39,2258.23"/>
<polyline class="BarLine" fill="none" stroke="#000000" stroke-width="10.71" stroke-linejoin="bevel" points="2200.22,2013.58 2200.22,2258.23"/>
<polyline class="BarLine" fill="none" stroke="#000000" stroke-width="10.71" stroke-linejoin="bevel" points="2662.06,2013.58 2662.06,2258.23"/>
<polyline class="BarLine" fill="none" stroke="#000000" stroke-width="10.71" stroke-linejoin="bevel" points="3101.15,2013.58 3101.15,2258.23"/>
<polyline class="BarLine" fill="none" stroke="#000000" stroke-width="10.71" stroke-linejoin="bevel" points="3650.97,2013.58 3650.97,2258.23"/>
<polyline class="BarLine" fill="none" stroke="#000000" stroke-width="10.71" stroke-linejoin="bevel" points="4080.54,2013.58 4080.54,2258.23"/>
<polyline class="BarLine" fill="none" stroke="#000000" stroke-width="32.74" stroke-linejoin="bevel" points="4122.21,2013.58 4122.21,2258.23"/>
<polyline class="BarLine" fill="none" stroke="#000000" stroke-width="10.71" stroke-linejoin="bevel" points="159.176,1388.54 159.176,2016.85"/>
<polyline class="BarLine" fill="none" stroke="#000000" stroke-width="10.71" stroke-linejoin="bevel" points="860.212,1388.54 860.212,1633.2"/>
<polyline class="BarLine" fill="none" stroke="#000000" stroke-width="10.71" stroke-linejoin="bevel" points="1299.3,1388.54 1299.3,1633.2"/>
<polyline class="BarLine" fill="none" stroke="#000000" stroke-width="10.71" stroke-linejoin="bevel" points="1738.39,1388.54 1738.39,1633.2"/>
<polyline class="BarLine" fill="none" stroke="#000000" stroke-width="10.71" stroke-linejoin="bevel" points="2200.22,1388.54 2200.22,1633.2"/>
<polyline class="BarLine" fill="none" stroke="#000000" stroke-width="10.71" stroke-linejoin="bevel" points="2662.06,1388.54 2662.06,1633.2"/>
<polyline class="BarLine" fill="none" stroke="#000000" stroke-width="10.71" stroke-linejoin="bevel" points="3101.15,1388.54 3101.15,1633.2"/>
<polyline class="BarLine" fill="none" stroke="#000000" stroke-width="10.71" stroke-linejoin="bevel" points="3650.97,1388.54 3650.97,1633.2"/>
<polyline class="BarLine" fill="none" stroke="#000000" stroke-width="10.71" stroke-linejoin="bevel" points="4080.54,1388.54 4080.54,1633.2"/>
<polyline class="BarLine" fill="none" stroke="#000000" stroke-width="32.74" stroke-linejoin="bevel" points="4122.21,1388.54 4122.21,1633.2"/>
<polyline class="BarLine" fill="none" stroke="#000000" stroke-width="10.71" stroke-linejoin="bevel" points="159.176,555.151 159.176,1391.81"/>
<polyline class="BarLine" fill="none" stroke="#000000" stroke-width="10.71" stroke-linejoin="bevel" points="860.212,555.151 860.212,1008.16"/>
<polyline class="BarLine" fill="none" stroke="#000000" stroke-width="10.71" stroke-linejoin="bevel" points="1299.3,555.151 1299.3,1008.16"/>
<polyline class="BarLine" fill="none" stroke="#000000" stroke-width="10.71" stroke-linejoin="bevel" points="1738.39,555.151 1738.39,1008.16"/>
<polyline class="BarLine" fill="none" stroke="#000000" stroke-width="10.71" stroke-linejoin="bevel" points="2200.22,555.151 2200.22,1008.16"/>
<polyline class="BarLine" fill="none" stroke="#000000" stroke-width="10.71" stroke-linejoin="bevel" points="2662.06,555.151 2662.06,1008.16"/>
<polyline class="BarLine" fill="none" stroke="#000000" stroke-width="10.71" stroke-linejoin="bevel" points="3101.15,555.151 3101.15,1008.16"/>
<polyline class="BarLine" fill="none" stroke="#000000" stroke-width="10.71" stroke-linejoin="bevel" points="3650.97,555.151 3650.97,1008.16"/>
<polyline class="BarLine" fill="none" stroke="#000000" stroke-width="10.71" stroke-linejoin="bevel" points="4080.54,555.151 4080.54,1008.16"/>
<polyline class="BarLine" fill="none" stroke="#000000" stroke-width="32.74" stroke-linejoin="bevel" points="4122.21,555.151 4122.21,1008.16"/>
<path class="Accidental" transform="matrix(2.3811,0,0,2.3811,1801.25,1362.05)" d="M23.3,-10.6 C23.9,-10.7 24.4,-11.4 24.4,-12 L24.4,-17.9 C24.4,-18.7 23.8,-19.3 23,-19.3 L22.8,-19.3 L19.5,-18.6 L19.5,-33.5 L16.7,-33.5 L16.7,-18 L7.8,-16.2 L7.8,-30.3 L5,-30.3 L5,-15.6 L1.1,-14.8 C0.5,-14.7 0,-14 0,-13.4 L0,-13.2 L0,-7.4 L0,-7.6 C0,-6.8 0.6,-6.2 1.4,-6.2 L1.7,-6.2 L5,-6.9 L5,9.6 L1.1,10.4 C0.5,10.5 0,11.2 0,11.8 L0,17.6 C0,18.4 0.6,19 1.4,19 L1.7,19 L5,18.3 L5,33.2 L7.8,33.2 L7.8,17.7 L16.7,15.9 L16.7,30 L19.5,30 L19.5,15.3 L23.3,14.6 C23.9,14.5 24.4,13.8 24.4,13.2 L24.4,7.3 C24.4,6.5 23.8,5.9 23,5.9 L22.8,5.9 L19.5,6.6 L19.5,-9.9 L23.3,-10.6 M7.8,9.1 L7.8,-7.5 L16.7,-9.3 L16.7,7.2 L7.8,9.1 "/>
<path class="Accidental" transform="matrix(2.3811,0,0,2.3811,2263.09,1362.05)" d="M23.3,-10.6 C23.9,-10.7 24.4,-11.4 24.4,-12 L24.4,-17.9 C24.4,-18.7 23.8,-19.3 23,-19.3 L22.8,-19.3 L19.5,-18.6 L19.5,-33.5 L16.7,-33.5 L16.7,-18 L7.8,-16.2 L7.8,-30.3 L5,-30.3 L5,-15.6 L1.1,-14.8 C0.5,-14.7 0,-14 0,-13.4 L0,-13.2 L0,-7.4 L0,-7.6 C0,-6.8 0.6,-6.2 1.4,-6.2 L1.7,-6.2 L5,-6.9 L5,9.6 L1.1,10.4 C0.5,10.5 0,11.2 0,11.8 L0,17.6 C0,18.4 0.6,19 1.4,19 L1.7,19 L5,18.3 L5,33.2 L7.8,33.2 L7.8,17.7 L16.7,15.9 L16.7,30 L19.5,30 L19.5,15.3 L23.3,14.6 C23.9,14.5 24.4,13.8 24.4,13.2 L24.4,7.3 C24.4,6.5 23.8,5.9 23,5.9 L22.8,5.9 L19.5,6.6 L19.5,-9.9 L23.3,-10.6 M7.8,9.1 L7.8,-7.5 L16.7,-9.3 L16.7,7.2 L7.8,9.1 "/>
<path class="Accidental" transform="matrix(2.3811,0,0,2.3811,3164.02,1362.05)" d="M23.3,-10.6 C23.9,-10.7 24.4,-11.4 24.4,-12 L24.4,-17.9 C24.4,-18.7 23.8,-19.3 23,-19.3 L22.8,-19.3 L19.5,-18.6 L19.5,-33.5 L16.7,-33.5 L16.7,-18 L7.8,-16.2 L7.8,-30.3 L5,-30.3 L5,-15.6 L1.1,-14.8 C0.5,-14.7 0,-14 0,-13.4 L0,-13.2 L0,-7.4 L0,-7.6 C0,-6.8 0.6,-6.2 1.4,-6.2 L1.7,-6.2 L5,-6.9 L5,9.6 L1.1,10.4 C0.5,10.5 0,11.2 0,11.8 L0,17.6 C0,18.4 0.6,19 1.4,19 L1.7,19 L5,18.3 L5,33.2 L7.8,33.2 L7.8,17.7 L16.7,15.9 L16.7,30 L19.5,30 L19.5,15.3 L23.3,14.6 C23.9,14.5 24.4,13.8 24.4,13.2 L24.4,7.3 C24.4,6.5 23.8,5.9 23,5.9 L22.8,5.9 L19.5,6.6 L19.5,-9.9 L23.3,-10.6 M7.8,9.1 L7.8,-7.5 L16.7,-9.3 L16.7,7.2 L7.8,9.1 "/>
<polyline class="LedgerLine" fill="none" stroke="#000000" stroke-width="9.52" stroke-linejoin="bevel" points="1853.4,1957.32 1983.87,1957.32"/>
<polyline class="LedgerLine" fill="none" stroke="#000000" stroke-width="9.52" stroke-linejoin="bevel" points="1853.4,1897.8 1983.87,1897.8"/>
<polyline class="LedgerLine" fill="none" stroke="#000000" stroke-width="9.52" stroke-linejoin="bevel" points="2315.23,1957.32 2445.71,1957.32"/>
<polyline class="LedgerLine" fill="none" stroke="#000000" stroke-width="9.52" stroke-linejoin="bevel" points="2744.81,1957.32 2875.28,1957.32"/>
<polyline class="LedgerLine" fill="none" stroke="#000000" stroke-width="9.52" stroke-linejoin="bevel" points="513.384,1332.28 643.861,1332.28"/>
<polyline class="LedgerLine" fill="none" stroke="#000000" stroke-width="9.52" stroke-linejoin="bevel" points="942.956,1332.28 1073.43,1332.28"/>
<polyline class="LedgerLine" fill="none" stroke="#000000" stroke-width="9.52" stroke-linejoin="bevel" points="1382.04,1332.28 1512.52,1332.28"/>
<polyline class="LedgerLine" fill="none" stroke="#000000" stroke-width="9.52" stroke-linejoin="bevel" points="2744.81,1332.28 2875.28,1332.28"/>
<polyline class="LedgerLine" fill="none" stroke="#000000" stroke-width="9.52" stroke-linejoin="bevel" points="3733.71,1332.28 3864.19,1332.28"/>
<path class="Note" transform="matrix(2.3811,0,0,2.3811,534.218,2016.85)" d="M18.7,-13.6 C4.9,-13.6 0,-6.6 0,-0.1 C0,6.4 4.9,13.4 18.7,13.4 C32.5,13.4 37.3,6.4 37.3,-0.1 C37.3,-6.6 32.5,-13.6 18.7,-13.6 M10.4,-4.5 C10.3,-4.9 10.3,-5.3 10.3,-5.7 C10.3,-6.5 10.5,-7.3 10.9,-8 C11.6,-9 12.8,-9.7 14.3,-10 C15.6,-10.3 16.3,-10.5 18.9,-10.5 L19,-10.5 C23,-10.5 24.3,-6.8 25.4,-3 L25.7,-2 C26.5,0.6 26.9,2.8 26.9,4.5 C26.9,5.7 26.7,6.8 26.3,7.6 C25.7,8.7 24.7,9.4 23,9.8 C22.1,10 20.6,10.1 20.6,10.1 C20.1,10.1 19.7,10.2 19.3,10.2 C16.1,10.2 14.1,9 12.7,4.7 C11.5,1 11.3,-0.1 10.4,-4.5"/>
<path class="Note" transform="matrix(2.3811,0,0,2.3811,963.79,2046.61)" d="M18.7,-13.6 C4.9,-13.6 0,-6.6 0,-0.1 C0,6.4 4.9,13.4 18.7,13.4 C32.5,13.4 37.3,6.4 37.3,-0.1 C37.3,-6.6 32.5,-13.6 18.7,-13.6 M10.4,-4.5 C10.3,-4.9 10.3,-5.3 10.3,-5.7 C10.3,-6.5 10.5,-7.3 10.9,-8 C11.6,-9 12.8,-9.7 14.3,-10 C15.6,-10.3 16.3,-10.5 18.9,-10.5 L19,-10.5 C23,-10.5 24.3,-6.8 25.4,-3 L25.7,-2 C26.5,0.6 26.9,2.8 26.9,4.5 C26.9,5.7 26.7,6.8 26.3,7.6 C25.7,8.7 24.7,9.4 23,9.8 C22.1,10 20.6,10.1 20.6,10.1 C20.1,10.1 19.7,10.2 19.3,10.2 C16.1,10.2 14.1,9 12.7,4.7 C11.5,1 11.3,-0.1 10.4,-4.5"/>
<path class="Note" transform="matrix(2.3811,0,0,2.3811,1402.88,2076.38)" d="M18.7,-13.6 C4.9,-13.6 0,-6.6 0,-0.1 C0,6.4 4.9,13.4 18.7,13.4 C32.5,13.4 37.3,6.4 37.3,-0.1 C37.3,-6.6 32.5,-13.6 18.7,-13.6 M10.4,-4.5 C10.3,-4.9 10.3,-5.3 10.3,-5.7 C10.3,-6.5 10.5,-7.3 10.9,-8 C11.6,-9 12.8,-9.7 14.3,-10 C15.6,-10.3 16.3,-10.5 18.9,-10.5 L19,-10.5 C23,-10.5 24.3,-6.8 25.4,-3 L25.7,-2 C26.5,0.6 26.9,2.8 26.9,4.5 C26.9,5.7 26.7,6.8 26.3,7.6 C25.7,8.7 24.7,9.4 23,9.8 C22.1,10 20.6,10.1 20.6,10.1 C20.1,10.1 19.7,10.2 19.3,10.2 C16.1,10.2 14.1,9 12.7,4.7 C11.5,1 11.3,-0.1 10.4,-4.5"/>
<path class="Note" transform="matrix(2.3811,0,0,2.3811,1874.23,2106.14)" d="M18.7,-13.6 C4.9,-13.6 0,-6.6 0,-0.1 C0,6.4 4.9,13.4 18.7,13.4 C32.5,13.4 37.3,6.4 37.3,-0.1 C37.3,-6.6 32.5,-13.6 18.7,-13.6 M10.4,-4.5 C10.3,-4.9 10.3,-5.3 10.3,-5.7 C10.3,-6.5 10.5,-7.3 10.9,-8 C11.6,-9 12.8,-9.7 14.3,-10 C15.6,-10.3 16.3,-10.5 18.9,-10.5 L19,-10.5 C23,-10.5 24.3,-6.8 25.4,-3 L25.7,-2 C26.5,0.6 26.9,2.8 26.9,4.5 C26.9,5.7 26.7,6.8 26.3,7.6 C25.7,8.7 24.7,9.4 23,9.8 C22.1,10 20.6,10.1 20.6,10.1 C20.1,10.1 19.7,10.2 19.3,10.2 C16.1,10.2 14.1,9 12.7,4.7 C11.5,1 11.3,-0.1 10.4,-4.5"/>
<path class="Note" transform="matrix(2.3811,0,0,2.3811,2336.07,1927.56)" d="M18.7,-13.6 C4.9,-13.6 0,-6.6 0,-0.1 C0,6.4 4.9,13.4 18.7,13.4 C32.5,13.4 37.3,6.4 37.3,-0.1 C37.3,-6.6 32.5,-13.6 18.7,-13.6 M10.4,-4.5 C10.3,-4.9 10.3,-5.3 10.3,-5.7 C10.3,-6.5 10.5,-7.3 10.9,-8 C11.6,-9 12.8,-9.7 14.3,-10 C15.6,-10.3 16.3,-10.5 18.9,-10.5 L19,-10.5 C23,-10.5 24.3,-6.8 25.4,-3 L25.7,-2 C26.5,0.6 26.9,2.8 26.9,4.5 C26.9,5.7 26.7,6.8 26.3,7.6 C25.7,8.7 24.7,9.4 23,9.8 C22.1,10 20.6,10.1 20.6,10.1 C20.1,10.1 19.7,10.2 19.3,10.2 C16.1,10.2 14.1,9 12.7,4.7 C11.5,1 11.3,-0.1 10.4,-4.5"/>
<path class="Note" transform="matrix(2.3811,0,0,2.3811,2765.64,1957.32)" d="M18.7,-13.6 C4.9,-13.6 0,-6.6 0,-0.1 C0,6.4 4.9,13.4 18.7,13.4 C32.5,13.4 37.3,6.4 37.3,-0.1 C37.3,-6.6 32.5,-13.6 18.7,-13.6 M10.4,-4.5 C10.3,-4.9 10.3,-5.3 10.3,-5.7 C10.3,-6.5 10.5,-7.3 10.9,-8 C11.6,-9 12.8,-9.7 14.3,-10 C15.6,-10.3 16.3,-10.5 18.9,-10.5 L19,-10.5 C23,-10.5 24.3,-6.8 25.4,-3 L25.7,-2 C26.5,0.6 26.9,2.8 26.9,4.5 C26.9,5.7 26.7,6.8 26.3,7.6 C25.7,8.7 24.7,9.4 23,9.8 C22.1,10 20.6,10.1 20.6,10.1 C20.1,10.1 19.7,10.2 19.3,10.2 C16.1,10.2 14.1,9 12.7,4.7 C11.5,1 11.3,-0.1 10.4,-4.5"/>
<path class="Note" transform="matrix(2.3811,0,0,2.3811,3324.97,1987.09)" d="M18.7,-13.6 C4.9,-13.6 0,-6.6 0,-0.1 C0,6.4 4.9,13.4 18.7,13.4 C32.5,13.4 37.3,6.4 37.3,-0.1 C37.3,-6.6 32.5,-13.6 18.7,-13.6 M10.4,-4.5 C10.3,-4.9 10.3,-5.3 10.3,-5.7 C10.3,-6.5 10.5,-7.3 10.9,-8 C11.6,-9 12.8,-9.7 14.3,-10 C15.6,-10.3 16.3,-10.5 18.9,-10.5 L19,-10.5 C23,-10.5 24.3,-6.8 25.4,-3 L25.7,-2 C26.5,0.6 26.9,2.8 26.9,4.5 C26.9,5.7 26.7,6.8 26.3,7.6 C25.7,8.7 24.7,9.4 23,9.8 C22.1,10 20.6,10.1 20.6,10.1 C20.1,10.1 19.7,10.2 19.3,10.2 C16.1,10.2 14.1,9 12.7,4.7 C11.5,1 11.3,-0.1 10.4,-4.5"/>
<path class="Note" transform="matrix(2.3811,0,0,2.3811,3754.54,2016.85)" d="M18.7,-13.6 C4.9,-13.6 0,-6.6 0,-0.1 C0,6.4 4.9,13.4 18.7,13.4 C32.5,13.4 37.3,6.4 37.3,-0.1 C37.3,-6.6 32.5,-13.6 18.7,-13.6 M10.4,-4.5 C10.3,-4.9 10.3,-5.3 10.3,-5.7 C10.3,-6.5 10.5,-7.3 10.9,-8 C11.6,-9 12.8,-9.7 14.3,-10 C15.6,-10.3 16.3,-10.5 18.9,-10.5 L19,-10.5 C23,-10.5 24.3,-6.8 25.4,-3 L25.7,-2 C26.5,0.6 26.9,2.8 26.9,4.5 C26.9,5.7 26.7,6.8 26.3,7.6 C25.7,8.7 24.7,9.4 23,9.8 C22.1,10 20.6,10.1 20.6,10.1 C20.1,10.1 19.7,10.2 19.3,10.2 C16.1,10.2 14.1,9 12.7,4.7 C11.5,1 11.3,-0.1 10.4,-4.5"/>
<path class="Note" transform="matrix(2.3811,0,0,2.3811,534.218,1481.1)" d="M18.7,-13.6 C4.9,-13.6 0,-6.6 0,-0.1 C0,6.4 4.9,13.4 18.7,13.4 C32.5,13.4 37.3,6.4 37.3,-0.1 C37.3,-6.6 32.5,-13.6 18.7,-13.6 M10.4,-4.5 C10.3,-4.9 10.3,-5.3 10.3,-5.7 C10.3,-6.5 10.5,-7.3 10.9,-8 C11.6,-9 12.8,-9.7 14.3,-10 C15.6,-10.3 16.3,-10.5 18.9,-10.5 L19,-10.5 C23,-10.5 24.3,-6.8 25.4,-3 L25.7,-2 C26.5,0.6 26.9,2.8 26.9,4.5 C26.9,5.7 26.7,6.8 26.3,7.6 C25.7,8.7 24.7,9.4 23,9.8 C22.1,10 20.6,10.1 20.6,10.1 C20.1,10.1 19.7,10.2 19.3,10.2 C16.1,10.2 14.1,9 12.7,4.7 C11.5,1 11.3,-0.1 10.4,-4.5"/>
<path class="Note" transform="matrix(2.3811,0,0,2.3811,534.218,1421.57)" d="M18.7,-13.6 C4.9,-13.6 0,-6.6 0,-0.1 C0,6.4 4.9,13.4 18.7,13.4 C32.5,13.4 37.3,6.4 37.3,-0.1 C37.3,-6.6 32.5,-13.6 18.7,-13.6 M10.4,-4.5 C10.3,-4.9 10.3,-5.3 10.3,-5.7 C10.3,-6.5 10.5,-7.3 10.9,-8 C11.6,-9 12.8,-9.7 14.3,-10 C15.6,-10.3 16.3,-10.5 18.9,-10.5 L19,-10.5 C23,-10.5 24.3,-6.8 25.4,-3 L25.7,-2 C26.5,0.6 26.9,2.8 26.9,4.5 C26.9,5.7 26.7,6.8 26.3,7.6 C25.7,8.7 24.7,9.4 23,9.8 C22.1,10 20.6,10.1 20.6,10.1 C20.1,10.1 19.7,10.2 19.3,10.2 C16.1,10.2 14.1,9 12.7,4.7 C11.5,1 11.3,-0.1 10.4,-4.5"/>
<path class="Note" transform="matrix(2.3811,0,0,2.3811,534.218,1332.28)" d="M18.7,-13.6 C4.9,-13.6 0,-6.6 0,-0.1 C0,6.4 4.9,13.4 18.7,13.4 C32.5,13.4 37.3,6.4 37.3,-0.1 C37.3,-6.6 32.5,-13.6 18.7,-13.6 M10.4,-4.5 C10.3,-4.9 10.3,-5.3 10.3,-5.7 C10.3,-6.5 10.5,-7.3 10.9,-8 C11.6,-9 12.8,-9.7 14.3,-10 C15.6,-10.3 16.3,-10.5 18.9,-10.5 L19,-10.5 C23,-10.5 24.3,-6.8 25.4,-3 L25.7,-2 C26.5,0.6 26.9,2.8 26.9,4.5 C26.9,5.7 26.7,6.8 26.3,7.6 C25.7,8.7 24.7,9.4 23,9.8 C22.1,10 20.6,10.1 20.6,10.1 C20.1,10.1 19.7,10.2 19.3,10.2 C16.1,10.2 14.1,9 12.7,4.7 C11.5,1 11.3,-0.1 10.4,-4.5"/>
<path class="Note" transform="matrix(2.3811,0,0,2.3811,963.79,1421.57)" d="M18.7,-13.6 C4.9,-13.6 0,-6.6 0,-0.1 C0,6.4 4.9,13.4 18.7,13.4 C32.5,13.4 37.3,6.4 37.3,-0.1 C37.3,-6.6 32.5,-13.6 18.7,-13.6 M10.4,-4.5 C10.3,-4.9 10.3,-5.3 10.3,-5.7 C10.3,-6.5 10.5,-7.3 10.9,-8 C11.6,-9 12.8,-9.7 14.3,-10 C15.6,-10.3 16.3,-10.5 18.9,-10.5 L19,-10.5 C23,-10.5 24.3,-6.8 25.4,-3 L25.7,-2 C26.5,0.6 26.9,2.8 26.9,4.5 C26.9,5.7 26.7,6.8 26.3,7.6 C25.7,8.7 24.7,9.4 23,9.8 C22.1,10 20.6,10.1 20.6,10.1 C20.1,10.1 19.7,10.2 19.3,10.2 C16.1,10.2 14.1,9 12.7,4.7 C11.5,1 11.3,-0.1 10.4,-4.5"/>
<path class="Note" transform="matrix(2.3811,0,0,2.3811,963.79,1302.52)" d="M18.7,-13.6 C4.9,-13.6 0,-6.6 0,-0.1 C0,6.4 4.9,13.4 18.7,13.4 C32.5,13.4 37.3,6.4 37.3,-0.1 C37.3,-6.6 32.5,-13.6 18.7,-13.6 M10.4,-4.5 C10.3,-4.9 10.3,-5.3 10.3,-5.7 C10.3,-6.5 10.5,-7.3 10.9,-8 C11.6,-9 12.8,-9.7 14.3,-10 C15.6,-10.3 16.3,-10.5 18.9,-10.5 L19,-10.5 C23,-10.5 24.3,-6.8 25.4,-3 L25.7,-2 C26.5,0.6 26.9,2.8 26.9,4.5 C26.9,5.7 26.7,6.8 26.3,7.6 C25.7,8.7 24.7,9.4 23,9.8 C22.1,10 20.6,10.1 20.6,10.1 C20.1,10.1 19.7,10.2 19.3,10.2 C16.1,10.2 14.1,9 12.7,4.7 C11.5,1 11.3,-0.1 10.4,-4.5"/>
<path class="Note" transform="matrix(2.3811,0,0,2.3811,1402.88,1510.87)" d="M18.7,-13.6 C4.9,-13.6 0,-6.6 0,-0.1 C0,6.4 4.9,13.4 18.7,13.4 C32.5,13.4 37.3,6.4 37.3,-0.1 C37.3,-6.6 32.5,-13.6 18.7,-13.6 M10.4,-4.5 C10.3,-4.9 10.3,-5.3 10.3,-5.7 C10.3,-6.5 10.5,-7.3 10.9,-8 C11.6,-9 12.8,-9.7 14.3,-10 C15.6,-10.3 16.3,-10.5 18.9,-10.5 L19,-10.5 C23,-10.5 24.3,-6.8 25.4,-3 L25.7,-2 C26.5,0.6 26.9,2.8 26.9,4.5 C26.9,5.7 26.7,6.8 26.3,7.6 C25.7,8.7 24.7,9.4 23,9.8 C22.1,10 20.6,10.1 20.6,10.1 C20.1,10.1 19.7,10.2 19.3,10.2 C16.1,10.2 14.1,9 12.7,4.7 C11.5,1 11.3,-0.1 10.4,-4.5"/>
<path class="Note" transform="matrix(2.3811,0,0,2.3811,1402.88,1451.34)" d="M18.7,-13.6 C4.9,-13.6 0,-6.6 0,-0.1 C0,6.4 4.9,13.4 18.7,13.4 C32.5,13.4 37.3,6.4 37.3,-0.1 C37.3,-6.6 32.5,-13.6 18.7,-13.6 M10.4,-4.5 C10.3,-4.9 10.3,-5.3 10.3,-5.7 C10.3,-6.5 10.5,-7.3 10.9,-8 C11.6,-9 12.8,-9.7 14.3,-10 C15.6,-10.3 16.3,-10.5 18.9,-10.5 L19,-10.5 C23,-10.5 24.3,-6.8 25.4,-3 L25.7,-2 C26.5,0.6 26.9,2.8 26.9,4.5 C26.9,5.7 26.7,6.8 26.3,7.6 C25.7,8.7 24.7,9.4 23,9.8 C22.1,10 20.6,10.1 20.6,10.1 C20.1,10.1 19.7,10.2 19.3,10.2 C16.1,10.2 14.1,9 12.7,4.7 C11.5,1 11.3,-0.1 10.4,-4.5"/>
<path class="Note" transform="matrix(2.3811,0,0,2.3811,1402.88,1332.28)" d="M18.7,-13.6 C4.9,-13.6 0,-6.6 0,-0.1 C0,6.4 4.9,13.4 18.7,13.4 C32.5,13.4 37.3,6.4 37.3,-0.1 C37.3,-6.6 32.5,-13.6 18.7,-13.6 M10.4,-4.5 C10.3,-4.9 10.3,-5.3 10.3,-5.7 C10.3,-6.5 10.5,-7.3 10.9,-8 C11.6,-9 12.8,-9.7 14.3,-10 C15.6,-10.3 16.3,-10.5 18.9,-10.5 L19,-10.5 C23,-10.5 24.3,-6.8 25.4,-3 L25.7,-2 C26.5,0.6 26.9,2.8 26.9,4.5 C26.9,5.7 26.7,6.8 26.3,7.6 C25.7,8.7 24.7,9.4 23,9.8 C22.1,10 20.6,10.1 20.6,10.1 C20.1,10.1 19.7,10.2 19.3,10.2 C16.1,10.2 14.1,9 12.7,4.7 C11.5,1 11.3,-0.1 10.4,-4.5"/>
<path class="Note" transform="matrix(2.3811,0,0,2.3811,1874.23,1510.87)" d="M18.7,-13.6 C4.9,-13.6 0,-6.6 0,-0.1 C0,6.4 4.9,13.4 18.7,13.4 C32.5,13.4 37.3,6.4 37.3,-0.1 C37.3,-6.6 32.5,-13.6 18.7,-13.6 M10.4,-4.5 C10.3,-4.9 10.3,-5.3 10.3,-5.7 C10.3,-6.5 10.5,-7.3 10.9,-8 C11.6,-9 12.8,-9.7 14.3,-10 C15.6,-10.3 16.3,-10.5 18.9,-10.5 L19,-10.5 C23,-10.5 24.3,-6.8 25.4,-3 L25.7,-2 C26.5,0.6 26.9,2.8 26.9,4.5 C26.9,5.7 26.7,6.8 26.3,7.6 C25.7,8.7 24.7,9.4 23,9.8 C22.1,10 20.6,10.1 20.6,10.1 C20.1,10.1 19.7,10.2 19.3,10.2 C16.1,10.2 14.1,9 12.7,4.7 C11.5,1 11.3,-0.1 10.4,-4.5"/>
<path class="Note" transform="matrix(2.3811,0,0,2.3811,1874.23,1421.57)" d="M18.7,-13.6 C4.9,-13.6 0,-6.6 0,-0.1 C0,6.4 4.9,13.4 18.7,13.4 C32.5,13.4 37.3,6.4 37.3,-0.1 C37.3,-6.6 32.5,-13.6 18.7,-13.6 M10.4,-4.5 C10.3,-4.9 10.3,-5.3 10.3,-5.7 C10.3,-6.5 10.5,-7.3 10.9,-8 C11.6,-9 12.8,-9.7 14.3,-10 C15.6,-10.3 16.3,-10.5 18.9,-10.5 L19,-10.5 C23,-10.5 24.3,-6.8 25.4,-3 L25.7,-2 C26.5,0.6 26.9,2.8 26.9,4.5 C26.9,5.7 26.7,6.8 26.3,7.6 C25.7,8.7 24.7,9.4 23,9.8 C22.1,10 20.6,10.1 20.6,10.1 C20.1,10.1 19.7,10.2 19.3,10.2 C16.1,10.2 14.1,9 12.7,4.7 C11.5,1 11.3,-0.1 10.4,-4.5"/>
<path class="Note" transform="matrix(2.3811,0,0,2.3811,1874.23,1362.05)" d="M18.7,-13.6 C4.9,-13.6 0,-6.6 0,-0.1 C0,6.4 4.9,13.4 18.7,13.4 C32.5,13.4 37.3,6.4 37.3,-0.1 C37.3,-6.6 32.5,-13.6 18.7,-13.6 M10.4,-4.5 C10.3,-4.9 10.3,-5.3 10.3,-5.7 C10.3,-6.5 10.5,-7.3 10.9,-8 C11.6,-9 12.8,-9.7 14.3,-10 C15.6,-10.3 16.3,-10.5 18.9,-10.5 L19,-10.5 C23,-10.5 24.3,-6.8 25.4,-3 L25.7,-2 C26.5,0.6 26.9,2.8 26.9,4.5 C26.9,5.7 26.7,6.8 26.3,7.6 C25.7,8.7 24.7,9.4 23,9.8 C22.1,10 20.6,10.1 20.6,10.1 C20.1,10.1 19.7,10.2 19.3,10.2 C16.1,10.2 14.1,9 12.7,4.7 C11.5,1 11.3,-0.1 10.4,-4.5"/>
<path class="Note" transform="matrix(2.3811,0,0,2.3811,2336.07,1510.87)" d="M18.7,-13.6 C4.9,-13.6 0,-6.6 0,-0.1 C0,6.4 4.9,13.4 18.7,13.4 C32.5,13.4 37.3,6.4 37.3,-0.1 C37.3,-6.6 32.5,-13.6 18.7,-13.6 M10.4,-4.5 C10.3,-4.9 10.3,-5.3 10.3,-5.7 C10.3,-6.5 10.5,-7.3 10.9,-8 C11.6,-9 12.8,-9.7 14.3,-10 C15.6,-10.3 16.3,-10.5 18.9,-10.5 L19,-10.5 C23,-10.5 24.3,-6.8 25.4,-3 L25.7,-2 C26.5,0.6 26.9,2.8 26.9,4.5 C26.9,5.7 26.7,6.8 26.3,7.6 C25.7,8.7 24.7,9.4 23,9.8 C22.1,10 20.6,10.1 20.6,10.1 C20.1,10.1 19.7,10.2 19.3,10.2 C16.1,10.2 14.1,9 12.7,4.7 C11.5,1 11.3,-0.1 10.4,-4.5"/>
<path class="Note" transform="matrix(2.3811,0,0,2.3811,2336.07,1421.57)" d="M18.7,-13.6 C4.9,-13.6 0,-6.6 0,-0.1 C0,6.4 4.9,13.4 18.7,13.4 C32.5,13.4 37.3,6.4 37.3,-0.1 C37.3,-6.6 32.5,-13.6 18.7,-13.6 M10.4,-4.5 C10.3,-4.9 10.3,-5.3 10.3,-5.7 C10.3,-6.5 10.5,-7.3 10.9,-8 C11.6,-9 12.8,-9.7 14.3,-10 C15.6,-10.3 16.3,-10.5 18.9,-10.5 L19,-10.5 C23,-10.5 24.3,-6.8 25.4,-3 L25.7,-2 C26.5,0.6 26.9,2.8 26.9,4.5 C26.9,5.7 26.7,6.8 26.3,7.6 C25.7,8.7 24.7,9.4 23,9.8 C22.1,10 20.6,10.1 20.6,10.1 C20.1,10.1 19.7,10.2 19.3,10.2 C16.1,10.2 14.1,9 12.7,4.7 C11.5,1 11.3,-0.1 10.4,-4.5"/>
<path class="Note" transform="matrix(2.3811,0,0,2.3811,2336.07,1362.05)" d="M18.7,-13.6 C4.9,-13.6 0,-6.6 0,-0.1 C0,6.4 4.9,13.4 18.7,13.4 C32.5,13.4 37.3,6.4 37.3,-0.1 C37.3,-6.6 32.5,-13.6 18.7,-13.6 M10.4,-4.5 C10.3,-4.9 10.3,-5.3 10.3,-5.7 C10.3,-6.5 10.5,-7.3 10.9,-8 C11.6,-9 12.8,-9.7 14.3,-10 C15.6,-10.3 16.3,-10.5 18.9,-10.5 L19,-10.5 C23,-10.5 24.3,-6.8 25.4,-3 L25.7,-2 C26.5,0.6 26.9,2.8 26.9,4.5 C26.9,5.7 26.7,6.8 26.3,7.6 C25.7,8.7 24.7,9.4 23,9.8 C22.1,10 20.6,10.1 20.6,10.1 C20.1,10.1 19.7,10.2 19.3,10.2 C16.1,10.2 14.1,9 12.7,4.7 C11.5,1 11.3,-0.1 10.4,-4.5"/>
<path class="Note" transform="matrix(2.3811,0,0,2.3811,2765.64,1481.1)" d="M18.7,-13.6 C4.9,-13.6 0,-6.6 0,-0.1 C0,6.4 4.9,13.4 18.7,13.4 C32.5,13.4 37.3,6.4 37.3,-0.1 C37.3,-6.6 32.5,-13.6 18.7,-13.6 M10.4,-4.5 C10.3,-4.9 10.3,-5.3 10.3,-5.7 C10.3,-6.5 10.5,-7.3 10.9,-8 C11.6,-9 12.8,-9.7 14.3,-10 C15.6,-10.3 16.3,-10.5 18.9,-10.5 L19,-10.5 C23,-10.5 24.3,-6.8 25.4,-3 L25.7,-2 C26.5,0.6 26.9,2.8 26.9,4.5 C26.9,5.7 26.7,6.8 26.3,7.6 C25.7,8.7 24.7,9.4 23,9.8 C22.1,10 20.6,10.1 20.6,10.1 C20.1,10.1 19.7,10.2 19.3,10.2 C16.1,10.2 14.1,9 12.7,4.7 C11.5,1 11.3,-0.1 10.4,-4.5"/>
<path class="Note" transform="matrix(2.3811,0,0,2.3811,2765.64,1421.57)" d="M18.7,-13.6 C4.9,-13.6 0,-6.6 0,-0.1 C0,6.4 4.9,13.4 18.7,13.4 C32.5,13.4 37.3,6.4 37.3,-0.1 C37.3,-6.6 32.5,-13.6 18.7,-13.6 M10.4,-4.5 C10.3,-4.9 10.3,-5.3 10.3,-5.7 C10.3,-6.5 10.5,-7.3 10.9,-8 C11.6,-9 12.8,-9.7 14.3,-10 C15.6,-10.3 16.3,-10.5 18.9,-10.5 L19,-10.5 C23,-10.5 24.3,-6.8 25.4,-3 L25.7,-2 C26.5,0.6 26.9,2.8 26.9,4.5 C26.9,5.7 26.7,6.8 26.3,7.6 C25.7,8.7 24.7,9.4 23,9.8 C22.1,10 20.6,10.1 20.6,10.1 C20.1,10.1 19.7,10.2 19.3,10.2 C16.1,10.2 14.1,9 12.7,4.7 C11.5,1 11.3,-0.1 10.4,-4.5"/>
<path class="Note" transform="matrix(2.3811,0,0,2.3811,2765.64,1332.28)" d="M18.7,-13.6 C4.9,-13.6 0,-6.6 0,-0.1 C0,6.4 4.9,13.4 18.7,13.4 C32.5,13.4 37.3,6.4 37.3,-0.1 C37.3,-6.6 32.5,-13.6 18.7,-13.6 M10.4,-4.5 C10.3,-4.9 10.3,-5.3 10.3,-5.7 C10.3,-6.5 10.5,-7.3 10.9,-8 C11.6,-9 12.8,-9.7 14.3,-10 C15.6,-10.3 16.3,-10.5 18.9,-10.5 L19,-10.5 C23,-10.5 24.3,-6.8 25.4,-3 L25.7,-2 C26.5,0.6 26.9,2.8 26.9,4.5 C26.9,5.7 26.7,6.8 26.3,7.6 C25.7,8.7 24.7,9.4 23,9.8 C22.1,10 20.6,10.1 20.6,10.1 C20.1,10.1 19.7,10.2 19.3,10.2 C16.1,10.2 14.1,9 12.7,4.7 C11.5,1 11.3,-0.1 10.4,-4.5"/>
<path class="Note" transform="matrix(2.3811,0,0,2.3811,3242.71,1451.34)" d="M18.7,-13.6 C4.9,-13.6 0,-6.6 0,-0.1 C0,6.4 4.9,13.4 18.7,13.4 C32.5,13.4 37.3,6.4 37.3,-0.1 C37.3,-6.6 32.5,-13.6 18.7,-13.6 M10.4,-4.5 C10.3,-4.9 10.3,-5.3 10.3,-5.7 C10.3,-6.5 10.5,-7.3 10.9,-8 C11.6,-9 12.8,-9.7 14.3,-10 C15.6,-10.3 16.3,-10.5 18.9,-10.5 L19,-10.5 C23,-10.5 24.3,-6.8 25.4,-3 L25.7,-2 C26.5,0.6 26.9,2.8 26.9,4.5 C26.9,5.7 26.7,6.8 26.3,7.6 C25.7,8.7 24.7,9.4 23,9.8 C22.1,10 20.6,10.1 20.6,10.1 C20.1,10.1 19.7,10.2 19.3,10.2 C16.1,10.2 14.1,9 12.7,4.7 C11.5,1 11.3,-0.1 10.4,-4.5"/>
<path class="Note" transform="matrix(2.3811,0,0,2.3811,3324.97,1421.57)" d="M18.7,-13.6 C4.9,-13.6 0,-6.6 0,-0.1 C0,6.4 4.9,13.4 18.7,13.4 C32.5,13.4 37.3,6.4 37.3,-0.1 C37.3,-6.6 32.5,-13.6 18.7,-13.6 M10.4,-4.5 C10.3,-4.9 10.3,-5.3 10.3,-5.7 C10.3,-6.5 10.5,-7.3 10.9,-8 C11.6,-9 12.8,-9.7 14.3,-10 C15.6,-10.3 16.3,-10.5 18.9,-10.5 L19,-10.5 C23,-10.5 24.3,-6.8 25.4,-3 L25.7,-2 C26.5,0.6 26.9,2.8 26.9,4.5 C26.9,5.7 26.7,6.8 26.3,7.6 C25.7,8.7 24.7,9.4 23,9.8 C22.1,10 20.6,10.1 20.6,10.1 C20.1,10.1 19.7,10.2 19.3,10.2 C16.1,10.2 14.1,9 12.7,4.7 C11.5,1 11.3,-0.1 10.4,-4.5"/>
<path class="Note" transform="matrix(2.3811,0,0,2.3811,3324.97,1362.05)" d="M18.7,-13.6 C4.9,-13.6 0,-6.6 0,-0.1 C0,6.4 4.9,13.4 18.7,13.4 C32.5,13.4 37.3,6.4 37.3,-0.1 C37.3,-6.6 32.5,-13.6 18.7,-13.6 M10.4,-4.5 C10.3,-4.9 10.3,-5.3 10.3,-5.7 C10.3,-6.5 10.5,-7.3 10.9,-8 C11.6,-9 12.8,-9.7 14.3,-10 C15.6,-10.3 16.3,-10.5 18.9,-10.5 L19,-10.5 C23,-10.5 24.3,-6.8 25.4,-3 L25.7,-2 C26.5,0.6 26.9,2.8 26.9,4.5 C26.9,5.7 26.7,6.8 26.3,7.6 C25.7,8.7 24.7,9.4 23,9.8 C22.1,10 20.6,10.1 20.6,10.1 C20.1,10.1 19.7,10.2 19.3,10.2 C16.1,10.2 14.1,9 12.7,4.7 C11.5,1 11.3,-0.1 10.4,-4.5"/>
<path class="Note" transform="matrix(2.3811,0,0,2.3811,3754.54,1481.1)" d="M18.7,-13.6 C4.9,-13.6 0,-6.6 0,-0.1 C0,6.4 4.9,13.4 18.7,13.4 C32.5,13.4 37.3,6.4 37.3,-0.1 C37.3,-6.6 32.5,-13.6 18.7,-13.6 M10.4,-4.5 C10.3,-4.9 10.3,-5.3 10.3,-5.7 C10.3,-6.5 10.5,-7.3 10.9,-8 C11.6,-9 12.8,-9.7 14.3,-10 C15.6,-10.3 16.3,-10.5 18.9,-10.5 L19,-10.5 C23,-10.5 24.3,-6.8 25.4,-3 L25.7,-2 C26.5,0.6 26.9,2.8 26.9,4.5 C26.9,5.7 26.7,6.8 26.3,7.6 C25.7,8.7 24.7,9.4 23,9.8 C22.1,10 20.6,10.1 20.6,10.1 C20.1,10.1 19.7,10.2 19.3,10.2 C16.1,10.2 14.1,9 12.7,4.7 C11.5,1 11.3,-0.1 10.4,-4.5"/>
<path class="Note" transform="matrix(2.3811,0,0,2.3811,3754.54,1421.57)" d="M18.7,-13.6 C4.9,-13.6 0,-6.6 0,-0.1 C0,6.4 4.9,13.4 18.7,13.4 C32.5,13.4 37.3,6.4 37.3,-0.1 C37.3,-6.6 32.5,-13.6 18.7,-13.6 M10.4,-4.5 C10.3,-4.9 10.3,-5.3 10.3,-5.7 C10.3,-6.5 10.5,-7.3 10.9,-8 C11.6,-9 12.8,-9.7 14.3,-10 C15.6,-10.3 16.3,-10.5 18.9,-10.5 L19,-10.5 C23,-10.5 24.3,-6.8 25.4,-3 L25.7,-2 C26.5,0.6 26.9,2.8 26.9,4.5 C26.9,5.7 26.7,6.8 26.3,7.6 C25.7,8.7 24.7,9.4 23,9.8 C22.1,10 20.6,10.1 20.6,10.1 C20.1,10.1 19.7,10.2 19.3,10.2 C16.1,10.2 14.1,9 12.7,4.7 C11.5,1 11.3,-0.1 10.4,-4.5"/>
<path class="Note" transform="matrix(2.3811,0,0,2.3811,3754.54,1332.28)" d="M18.7,-13.6 C4.9,-13.6 0,-6.6 0,-0.1 C0,6.4 4.9,13.4 18.7,13.4 C32.5,13.4 37.3,6.4 37.3,-0.1 C37.3,-6.6 32.5,-13.6 18.7,-13.6 M10.4,-4.5 C10.3,-4.9 10.3,-5.3 10.3,-5.7 C10.3,-6.5 10.5,-7.3 10.9,-8 C11.6,-9 12.8,-9.7 14.3,-10 C15.6,-10.3 16.3,-10.5 18.9,-10.5 L19,-10.5 C23,-10.5 24.3,-6.8 25.4,-3 L25.7,-2 C26.5,0.6 26.9,2.8 26.9,4.5 C26.9,5.7 26.7,6.8 26.3,7.6 C25.7,8.7 24.7,9.4 23,9.8 C22.1,10 20.6,10.1 20.6,10.1 C20.1,10.1 19.7,10.2 19.3,10.2 C16.1,10.2 14.1,9 12.7,4.7 C11.5,1 11.3,-0.1 10.4,-4.5"/>
<path class="Note" d="M555.281,910.409 C551.097,910.409 549.006,908.511 549.006,904.715 C549.006,898.284 549.974,893.558 551.911,890.537 C559.968,878.606 577.477,856.293 604.438,823.599 C616.602,808.802 632.29,801.403 651.504,801.403 C658.941,801.403 664.093,802.449 666.96,804.541 C671.376,807.795 673.584,811.707 673.584,816.278 C673.584,821.082 669.71,826.427 661.963,832.315 C654.603,837.893 647.63,840.682 641.045,840.682 C638.488,840.682 637.21,840.411 637.21,839.869 C637.21,839.094 638.449,838.281 640.928,837.429 C644.26,836.189 647.824,833.671 651.62,829.875 C655.958,825.459 658.128,821.469 658.128,817.905 C658.128,815.503 656.462,813.218 653.131,811.049 C650.186,809.189 645.422,808.26 638.837,808.26 C629.23,808.26 617.105,817.944 602.463,837.312 C592.701,850.25 584.798,861.639 578.756,871.478 C581.7,869.851 585.225,867.876 589.331,865.552 C594.367,862.685 598.705,861.252 602.346,861.252 C611.411,861.252 615.943,864.506 615.943,871.013 C615.943,877.444 612.224,884.494 604.787,892.164 C599.519,897.587 596.884,901.616 596.884,904.25 C596.884,906.961 599.519,908.317 604.787,908.317 C607.421,908.317 610.132,907.388 612.922,905.528 C615.711,903.746 617.764,902.855 619.081,902.855 C620.165,902.855 620.708,903.553 620.708,904.947 C620.708,907.194 618.538,909.557 614.2,912.036 C606.917,916.22 601.068,918.311 596.652,918.311 C588.827,918.311 584.915,914.128 584.915,905.761 C584.915,900.492 587.936,894.643 593.979,888.213 C598.395,883.487 600.603,878.8 600.603,874.151 C600.603,870.123 598.434,868.108 594.095,868.108 C592.391,868.108 586.735,870.123 577.129,874.151 C574.262,878.955 571.86,883.371 569.923,887.399 C562.563,902.739 557.683,910.409 555.281,910.409"/>
<path class="Note" d="M584.566,576.876 C588.362,576.876 590.26,579.781 590.26,585.592 C590.26,589.775 588.285,594.579 584.334,600.002 C580.847,604.883 579.104,612.436 579.104,622.663 C579.104,627.544 580.382,630.798 582.939,632.425 C584.721,633.664 588.052,634.323 592.933,634.4 C598.201,634.4 605.678,631.727 615.362,626.382 L617.221,628.241 C614.742,631.417 611.759,634.284 608.273,636.841 C603.082,640.637 597.775,642.535 592.352,642.535 C584.527,642.535 578.601,641.412 574.572,639.165 C569.536,636.376 567.018,632.889 567.018,628.706 C567.018,617.162 568.49,605.115 571.434,592.564 C572.519,587.993 574.882,583.81 578.523,580.013 C580.615,577.922 582.629,576.876 584.566,576.876"/>
<path class="Note" d="M616.175,747.207 C618.577,747.207 620.32,747.711 621.405,748.718 C622.645,749.803 623.264,751.391 623.264,753.483 C623.264,756.117 622.102,758.364 619.778,760.223 C609.706,767.351 599.364,776.415 588.75,787.416 C591.151,798.03 594.095,805.894 597.582,811.007 C602.153,817.748 605.29,821.118 606.995,821.118 C608.544,821.118 610.21,820.149 611.992,818.212 C613.231,816.895 614.432,816.237 615.594,816.237 C618.074,816.237 619.313,817.554 619.313,820.188 C619.313,822.977 617.105,826.773 612.689,831.577 C610.287,834.056 607.77,835.295 605.135,835.295 C599.712,835.295 594.25,830.221 588.75,820.072 C583.172,809.845 579.337,800.2 577.245,791.135 C573.371,803.066 571.434,810.388 571.434,813.099 C571.434,818.445 568.374,821.118 562.254,821.118 C558.922,821.118 557.256,818.019 557.256,811.821 C557.256,808.877 560.936,795.706 568.297,772.309 C571.938,760.843 574.921,752.824 577.245,748.253 C577.787,747.324 579.182,746.859 581.428,746.859 C584.062,746.859 585.883,747.401 586.89,748.486 C587.897,749.57 588.401,751.817 588.401,755.226 C588.401,756.93 586.735,762.818 583.404,772.89 C591.694,764.755 601.029,756.814 611.411,749.067 C613.038,747.827 614.626,747.207 616.175,747.207"/>
<path class="Note" d="M589.796,625.958 C592.275,625.958 593.979,626.578 594.909,627.818 C596.303,629.909 597.001,632.853 597.001,636.65 C597.001,641.066 593.902,651.641 587.704,668.375 C577.555,696.808 572.48,711.877 572.48,713.581 C572.48,718.152 574.301,720.476 577.942,720.554 C579.492,720.554 583.443,718.152 589.796,713.349 C596.071,708.778 600.913,706.492 604.322,706.492 C605.716,706.492 606.414,707.345 606.414,709.049 C606.414,711.916 602.579,715.673 594.909,720.321 C582.358,727.991 573.681,731.826 568.878,731.826 C561.208,731.826 557.373,728.805 557.373,722.762 C557.373,722.607 562.68,704.827 573.294,669.421 C579.724,648.116 583.636,634.248 585.031,627.818 C585.263,626.578 586.852,625.958 589.796,625.958"/>
<path class="Note" d="M1019.37,893.832 C1021.85,893.832 1023.55,894.452 1024.48,895.692 C1025.88,897.783 1026.57,900.727 1026.57,904.524 C1026.57,908.94 1023.47,919.515 1017.28,936.249 C1007.13,964.682 1002.05,979.751 1002.05,981.455 C1002.05,986.026 1003.87,988.35 1007.51,988.428 C1009.06,988.428 1013.01,986.026 1019.37,981.223 C1025.64,976.652 1030.49,974.366 1033.89,974.366 C1035.29,974.366 1035.99,975.219 1035.99,976.923 C1035.99,979.79 1032.15,983.547 1024.48,988.195 C1011.93,995.865 1003.25,999.7 998.45,999.7 C990.78,999.7 986.945,996.679 986.945,990.636 C986.945,990.481 992.252,972.701 1002.87,937.295 C1009.3,915.99 1013.21,902.122 1014.6,895.692 C1014.84,894.452 1016.42,893.832 1019.37,893.832"/>
<path class="Note" d="M1045.75,747.207 C1048.15,747.207 1049.89,747.711 1050.98,748.718 C1052.22,749.803 1052.84,751.391 1052.84,753.483 C1052.84,756.117 1051.67,758.364 1049.35,760.223 C1039.28,767.351 1028.94,776.415 1018.32,787.416 C1020.72,798.03 1023.67,805.894 1027.15,811.007 C1031.72,817.748 1034.86,821.118 1036.57,821.118 C1038.12,821.118 1039.78,820.149 1041.56,818.212 C1042.8,816.895 1044,816.237 1045.17,816.237 C1047.65,816.237 1048.89,817.554 1048.89,820.188 C1048.89,822.977 1046.68,826.773 1042.26,831.577 C1039.86,834.056 1037.34,835.295 1034.71,835.295 C1029.28,835.295 1023.82,830.221 1018.32,820.072 C1012.74,809.845 1008.91,800.2 1006.82,791.135 C1002.94,803.066 1001.01,810.388 1001.01,813.099 C1001.01,818.445 997.946,821.118 991.825,821.118 C988.494,821.118 986.828,818.019 986.828,811.821 C986.828,808.877 990.508,795.706 997.868,772.309 C1001.51,760.843 1004.49,752.824 1006.82,748.253 C1007.36,747.324 1008.75,746.859 1011,746.859 C1013.63,746.859 1015.46,747.401 1016.46,748.486 C1017.47,749.57 1017.97,751.817 1017.97,755.226 C1017.97,756.93 1016.31,762.818 1012.98,772.89 C1021.27,764.755 1030.6,756.814 1040.98,749.067 C1042.61,747.827 1044.2,747.207 1045.75,747.207"/>
<path class="Note" d="M1012.51,685.11 C1015.07,683.638 1018.01,682.011 1021.34,680.229 C1026.53,677.362 1030.87,675.929 1034.36,675.929 C1043.42,675.929 1047.96,679.183 1047.96,685.691 C1047.96,690.029 1044.59,696.15 1037.85,704.052 C1031.88,711.102 1028.9,716.099 1028.9,719.043 C1028.9,721.677 1031.53,722.994 1036.8,722.994 C1039.43,722.994 1042.14,722.065 1044.93,720.205 C1047.72,718.423 1049.78,717.532 1051.09,717.532 C1052.18,717.532 1052.72,718.23 1052.72,719.624 C1052.72,721.871 1050.55,724.234 1046.21,726.713 C1038.93,730.897 1033.08,732.988 1028.66,732.988 C1020.61,732.988 1016.58,729.308 1016.58,721.948 C1016.58,718.54 1019.75,712.729 1026.11,704.517 C1030.45,699.171 1032.62,693.942 1032.62,688.828 C1032.62,684.8 1030.45,682.785 1026.11,682.785 C1024.56,682.785 1019.48,684.567 1010.88,688.131 C1007.79,693.709 1003.99,700.604 999.495,708.817 C991.128,724.156 986.247,731.826 984.853,731.826 C980.669,731.826 978.577,729.928 978.577,726.132 C978.577,723.265 983.226,714.201 992.523,698.939 C998.721,688.79 1002.59,682.049 1004.14,678.718 L996.009,674.767 L1020.88,670.699 C1020.26,671.319 1017.47,676.123 1012.51,685.11"/>
<path class="Note" d="M1453.23,934.041 C1457.02,934.041 1458.92,936.946 1458.92,942.757 C1458.92,946.941 1456.94,951.744 1452.99,957.167 C1449.51,962.048 1447.76,969.602 1447.76,979.828 C1447.76,984.709 1449.04,987.963 1451.6,989.59 C1453.38,990.83 1456.71,991.488 1461.59,991.566 C1466.86,991.566 1474.34,988.893 1484.02,983.547 L1485.88,985.406 C1483.4,988.583 1480.42,991.449 1476.93,994.006 C1471.74,997.802 1466.43,999.7 1461.01,999.7 C1453.19,999.7 1447.26,998.577 1443.23,996.33 C1438.2,993.541 1435.68,990.055 1435.68,985.871 C1435.68,974.328 1437.15,962.28 1440.09,949.73 C1441.18,945.159 1443.54,940.975 1447.18,937.179 C1449.27,935.087 1451.29,934.041 1453.23,934.041"/>
<path class="Note" d="M1423.94,642.535 C1419.76,642.535 1417.66,640.637 1417.66,636.841 C1417.66,630.41 1418.63,625.684 1420.57,622.663 C1428.63,610.732 1446.14,588.419 1473.1,555.725 C1485.26,540.928 1500.95,533.529 1520.16,533.529 C1527.6,533.529 1532.75,534.575 1535.62,536.667 C1540.03,539.921 1542.24,543.833 1542.24,548.404 C1542.24,553.207 1538.37,558.553 1530.62,564.441 C1523.26,570.019 1516.29,572.808 1509.7,572.808 C1507.15,572.808 1505.87,572.537 1505.87,571.995 C1505.87,571.22 1507.11,570.407 1509.59,569.555 C1512.92,568.315 1516.48,565.797 1520.28,562.001 C1524.62,557.585 1526.79,553.595 1526.79,550.031 C1526.79,547.629 1525.12,545.344 1521.79,543.175 C1518.85,541.315 1514.08,540.386 1507.5,540.386 C1497.89,540.386 1485.76,550.07 1471.12,569.438 C1461.36,582.376 1453.46,593.765 1447.41,603.604 C1450.36,601.977 1453.88,600.002 1457.99,597.678 C1463.03,594.811 1467.36,593.378 1471.01,593.378 C1480.07,593.378 1484.6,596.632 1484.6,603.139 C1484.6,609.57 1480.88,616.62 1473.45,624.29 C1468.18,629.713 1465.54,633.742 1465.54,636.376 C1465.54,639.087 1468.18,640.443 1473.45,640.443 C1476.08,640.443 1478.79,639.513 1481.58,637.654 C1484.37,635.872 1486.42,634.981 1487.74,634.981 C1488.82,634.981 1489.37,635.679 1489.37,637.073 C1489.37,639.32 1487.2,641.683 1482.86,644.162 C1475.58,648.346 1469.73,650.437 1465.31,650.437 C1457.49,650.437 1453.57,646.254 1453.57,637.887 C1453.57,632.618 1456.6,626.769 1462.64,620.339 C1467.05,615.613 1469.26,610.926 1469.26,606.277 C1469.26,602.249 1467.09,600.234 1462.75,600.234 C1461.05,600.234 1455.39,602.249 1445.79,606.277 C1442.92,611.081 1440.52,615.497 1438.58,619.525 C1431.22,634.865 1426.34,642.535 1423.94,642.535"/>
<path class="Note" d="M1423.94,821.118 C1419.76,821.118 1417.66,819.22 1417.66,815.423 C1417.66,808.993 1418.63,804.267 1420.57,801.246 C1428.63,789.315 1446.14,767.002 1473.1,734.308 C1485.26,719.511 1500.95,712.112 1520.16,712.112 C1527.6,712.112 1532.75,713.158 1535.62,715.249 C1540.03,718.503 1542.24,722.416 1542.24,726.987 C1542.24,731.79 1538.37,737.136 1530.62,743.024 C1523.26,748.602 1516.29,751.391 1509.7,751.391 C1507.15,751.391 1505.87,751.12 1505.87,750.578 C1505.87,749.803 1507.11,748.989 1509.59,748.137 C1512.92,746.898 1516.48,744.38 1520.28,740.583 C1524.62,736.167 1526.79,732.178 1526.79,728.614 C1526.79,726.212 1525.12,723.927 1521.79,721.757 C1518.85,719.898 1514.08,718.968 1507.5,718.968 C1497.89,718.968 1485.76,728.652 1471.12,748.021 C1461.36,760.959 1453.46,772.348 1447.41,782.187 C1450.36,780.56 1453.88,778.584 1457.99,776.26 C1463.03,773.394 1467.36,771.96 1471.01,771.96 C1480.07,771.96 1484.6,775.214 1484.6,781.722 C1484.6,788.152 1480.88,795.203 1473.45,802.873 C1468.18,808.296 1465.54,812.324 1465.54,814.958 C1465.54,817.67 1468.18,819.026 1473.45,819.026 C1476.08,819.026 1478.79,818.096 1481.58,816.237 C1484.37,814.455 1486.42,813.564 1487.74,813.564 C1488.82,813.564 1489.37,814.261 1489.37,815.656 C1489.37,817.902 1487.2,820.265 1482.86,822.745 C1475.58,826.928 1469.73,829.02 1465.31,829.02 C1457.49,829.02 1453.57,824.836 1453.57,816.469 C1453.57,811.201 1456.6,805.352 1462.64,798.921 C1467.05,794.195 1469.26,789.508 1469.26,784.86 C1469.26,780.831 1467.09,778.817 1462.75,778.817 C1461.05,778.817 1455.39,780.831 1445.79,784.86 C1442.92,789.663 1440.52,794.079 1438.58,798.108 C1431.22,813.448 1426.34,821.118 1423.94,821.118"/>
<path class="Note" d="M1458.45,625.958 C1460.93,625.958 1462.64,626.578 1463.57,627.818 C1464.96,629.909 1465.66,632.853 1465.66,636.65 C1465.66,641.066 1462.56,651.641 1456.36,668.375 C1446.21,696.808 1441.14,711.877 1441.14,713.581 C1441.14,718.152 1442.96,720.476 1446.6,720.554 C1448.15,720.554 1452.1,718.152 1458.45,713.349 C1464.73,708.778 1469.57,706.492 1472.98,706.492 C1474.38,706.492 1475.07,707.345 1475.07,709.049 C1475.07,711.916 1471.24,715.673 1463.57,720.321 C1451.02,727.991 1442.34,731.826 1437.54,731.826 C1429.87,731.826 1426.03,728.805 1426.03,722.762 C1426.03,722.607 1431.34,704.827 1441.95,669.421 C1448.38,648.116 1452.3,634.248 1453.69,627.818 C1453.92,626.578 1455.51,625.958 1458.45,625.958"/>
<path class="Note" d="M1895.29,999.7 C1891.11,999.7 1889.02,997.802 1889.02,994.006 C1889.02,987.576 1889.99,982.85 1891.92,979.828 C1899.98,967.897 1917.49,945.585 1944.45,912.891 C1956.61,898.093 1972.3,890.694 1991.52,890.694 C1998.95,890.694 2004.1,891.74 2006.97,893.832 C2011.39,897.086 2013.6,900.999 2013.6,905.569 C2013.6,910.373 2009.72,915.719 2001.97,921.607 C1994.61,927.185 1987.64,929.974 1981.06,929.974 C1978.5,929.974 1977.22,929.703 1977.22,929.16 C1977.22,928.386 1978.46,927.572 1980.94,926.72 C1984.27,925.48 1987.84,922.962 1991.63,919.166 C1995.97,914.75 1998.14,910.76 1998.14,907.196 C1998.14,904.795 1996.47,902.509 1993.14,900.34 C1990.2,898.481 1985.43,897.551 1978.85,897.551 C1969.24,897.551 1957.12,907.235 1942.47,926.604 C1932.71,939.542 1924.81,950.93 1918.77,960.77 C1921.71,959.143 1925.24,957.167 1929.34,954.843 C1934.38,951.976 1938.72,950.543 1942.36,950.543 C1951.42,950.543 1955.95,953.797 1955.95,960.305 C1955.95,966.735 1952.24,973.785 1944.8,981.455 C1939.53,986.878 1936.9,990.907 1936.9,993.541 C1936.9,996.253 1939.53,997.609 1944.8,997.609 C1947.43,997.609 1950.14,996.679 1952.93,994.819 C1955.72,993.038 1957.78,992.147 1959.09,992.147 C1960.18,992.147 1960.72,992.844 1960.72,994.238 C1960.72,996.485 1958.55,998.848 1954.21,1001.33 C1946.93,1005.51 1941.08,1007.6 1936.66,1007.6 C1928.84,1007.6 1924.93,1003.42 1924.93,995.052 C1924.93,989.784 1927.95,983.934 1933.99,977.504 C1938.41,972.778 1940.62,968.091 1940.62,963.443 C1940.62,959.414 1938.45,957.4 1934.11,957.4 C1932.4,957.4 1926.75,959.414 1917.14,963.443 C1914.27,968.246 1911.87,972.662 1909.94,976.691 C1902.58,992.03 1897.69,999.7 1895.29,999.7"/>
<path class="Note" d="M1895.29,642.535 C1891.11,642.535 1889.02,640.637 1889.02,636.841 C1889.02,630.41 1889.99,625.684 1891.92,622.663 C1899.98,610.732 1917.49,588.419 1944.45,555.725 C1956.61,540.928 1972.3,533.529 1991.52,533.529 C1998.95,533.529 2004.1,534.575 2006.97,536.667 C2011.39,539.921 2013.6,543.833 2013.6,548.404 C2013.6,553.207 2009.72,558.553 2001.97,564.441 C1994.61,570.019 1987.64,572.808 1981.06,572.808 C1978.5,572.808 1977.22,572.537 1977.22,571.995 C1977.22,571.22 1978.46,570.407 1980.94,569.555 C1984.27,568.315 1987.84,565.797 1991.63,562.001 C1995.97,557.585 1998.14,553.595 1998.14,550.031 C1998.14,547.629 1996.47,545.344 1993.14,543.175 C1990.2,541.315 1985.43,540.386 1978.85,540.386 C1969.24,540.386 1957.12,550.07 1942.47,569.438 C1932.71,582.376 1924.81,593.765 1918.77,603.604 C1921.71,601.977 1925.24,600.002 1929.34,597.678 C1934.38,594.811 1938.72,593.378 1942.36,593.378 C1951.42,593.378 1955.95,596.632 1955.95,603.139 C1955.95,609.57 1952.24,616.62 1944.8,624.29 C1939.53,629.713 1936.9,633.742 1936.9,636.376 C1936.9,639.087 1939.53,640.443 1944.8,640.443 C1947.43,640.443 1950.14,639.513 1952.93,637.654 C1955.72,635.872 1957.78,634.981 1959.09,634.981 C1960.18,634.981 1960.72,635.679 1960.72,637.073 C1960.72,639.32 1958.55,641.683 1954.21,644.162 C1946.93,648.346 1941.08,650.437 1936.66,650.437 C1928.84,650.437 1924.93,646.254 1924.93,637.887 C1924.93,632.618 1927.95,626.769 1933.99,620.339 C1938.41,615.613 1940.62,610.926 1940.62,606.277 C1940.62,602.249 1938.45,600.234 1934.11,600.234 C1932.4,600.234 1926.75,602.249 1917.14,606.277 C1914.27,611.081 1911.87,615.497 1909.94,619.525 C1902.58,634.865 1897.69,642.535 1895.29,642.535"/>
<path class="Note" d="M1895.29,553.244 C1891.11,553.244 1889.02,551.346 1889.02,547.549 C1889.02,541.119 1889.99,536.393 1891.92,533.372 C1899.98,521.441 1917.49,499.128 1944.45,466.434 C1956.61,451.637 1972.3,444.238 1991.52,444.238 C1998.95,444.238 2004.1,445.284 2006.97,447.375 C2011.39,450.629 2013.6,454.542 2013.6,459.113 C2013.6,463.916 2009.72,469.262 2001.97,475.15 C1994.61,480.728 1987.64,483.517 1981.06,483.517 C1978.5,483.517 1977.22,483.246 1977.22,482.704 C1977.22,481.929 1978.46,481.115 1980.94,480.263 C1984.27,479.024 1987.84,476.506 1991.63,472.709 C1995.97,468.293 1998.14,464.304 1998.14,460.74 C1998.14,458.338 1996.47,456.053 1993.14,453.883 C1990.2,452.024 1985.43,451.094 1978.85,451.094 C1969.24,451.094 1957.12,460.778 1942.47,480.147 C1932.71,493.085 1924.81,504.474 1918.77,514.313 C1921.71,512.686 1925.24,510.71 1929.34,508.386 C1934.38,505.52 1938.72,504.086 1942.36,504.086 C1951.42,504.086 1955.95,507.34 1955.95,513.848 C1955.95,520.278 1952.24,527.329 1944.8,534.999 C1939.53,540.422 1936.9,544.45 1936.9,547.084 C1936.9,549.796 1939.53,551.152 1944.8,551.152 C1947.43,551.152 1950.14,550.222 1952.93,548.363 C1955.72,546.581 1957.78,545.69 1959.09,545.69 C1960.18,545.69 1960.72,546.387 1960.72,547.782 C1960.72,550.028 1958.55,552.391 1954.21,554.871 C1946.93,559.054 1941.08,561.146 1936.66,561.146 C1928.84,561.146 1924.93,556.962 1924.93,548.595 C1924.93,543.327 1927.95,537.478 1933.99,531.047 C1938.41,526.321 1940.62,521.634 1940.62,516.986 C1940.62,512.957 1938.45,510.943 1934.11,510.943 C1932.4,510.943 1926.75,512.957 1917.14,516.986 C1914.27,521.789 1911.87,526.205 1909.94,530.234 C1902.58,545.574 1897.69,553.244 1895.29,553.244"/>
<path class="Note" d="M1956.19,747.207 C1958.59,747.207 1960.33,747.711 1961.42,748.718 C1962.66,749.803 1963.28,751.391 1963.28,753.483 C1963.28,756.117 1962.11,758.364 1959.79,760.223 C1949.72,767.351 1939.38,776.415 1928.76,787.416 C1931.16,798.03 1934.11,805.894 1937.59,811.007 C1942.16,817.748 1945.3,821.118 1947.01,821.118 C1948.56,821.118 1950.22,820.149 1952,818.212 C1953.24,816.895 1954.44,816.237 1955.61,816.237 C1958.09,816.237 1959.32,817.554 1959.32,820.188 C1959.32,822.977 1957.12,826.773 1952.7,831.577 C1950.3,834.056 1947.78,835.295 1945.15,835.295 C1939.72,835.295 1934.26,830.221 1928.76,820.072 C1923.18,809.845 1919.35,800.2 1917.26,791.135 C1913.38,803.066 1911.45,810.388 1911.45,813.099 C1911.45,818.445 1908.39,821.118 1902.27,821.118 C1898.93,821.118 1897.27,818.019 1897.27,811.821 C1897.27,808.877 1900.95,795.706 1908.31,772.309 C1911.95,760.843 1914.93,752.824 1917.26,748.253 C1917.8,747.324 1919.19,746.859 1921.44,746.859 C1924.07,746.859 1925.89,747.401 1926.9,748.486 C1927.91,749.57 1928.41,751.817 1928.41,755.226 C1928.41,756.93 1926.75,762.818 1923.42,772.89 C1931.71,764.755 1941.04,756.814 1951.42,749.067 C1953.05,747.827 1954.64,747.207 1956.19,747.207"/>
<path class="Note" d="M1956.19,657.916 C1958.59,657.916 1960.33,658.42 1961.42,659.427 C1962.66,660.512 1963.28,662.1 1963.28,664.192 C1963.28,666.826 1962.11,669.072 1959.79,670.932 C1949.72,678.059 1939.38,687.124 1928.76,698.125 C1931.16,708.739 1934.11,716.603 1937.59,721.716 C1942.16,728.456 1945.3,731.826 1947.01,731.826 C1948.56,731.826 1950.22,730.858 1952,728.921 C1953.24,727.604 1954.44,726.945 1955.61,726.945 C1958.09,726.945 1959.32,728.263 1959.32,730.897 C1959.32,733.686 1957.12,737.482 1952.7,742.285 C1950.3,744.764 1947.78,746.004 1945.15,746.004 C1939.72,746.004 1934.26,740.93 1928.76,730.78 C1923.18,720.554 1919.35,710.908 1917.26,701.844 C1913.38,713.775 1911.45,721.096 1911.45,723.808 C1911.45,729.153 1908.39,731.826 1902.27,731.826 C1898.93,731.826 1897.27,728.727 1897.27,722.529 C1897.27,719.585 1900.95,706.415 1908.31,683.018 C1911.95,671.552 1914.93,663.533 1917.26,658.962 C1917.8,658.032 1919.19,657.568 1921.44,657.568 C1924.07,657.568 1925.89,658.11 1926.9,659.194 C1927.91,660.279 1928.41,662.526 1928.41,665.935 C1928.41,667.639 1926.75,673.527 1923.42,683.599 C1931.71,675.464 1941.04,667.523 1951.42,659.776 C1953.05,658.536 1954.64,657.916 1956.19,657.916"/>
<path class="Note" d="M2357.13,642.535 C2352.95,642.535 2350.86,640.637 2350.86,636.841 C2350.86,630.41 2351.82,625.684 2353.76,622.663 C2361.82,610.732 2379.33,588.419 2406.29,555.725 C2418.45,540.928 2434.14,533.529 2453.35,533.529 C2460.79,533.529 2465.94,534.575 2468.81,536.667 C2473.23,539.921 2475.43,543.833 2475.43,548.404 C2475.43,553.207 2471.56,558.553 2463.81,564.441 C2456.45,570.019 2449.48,572.808 2442.89,572.808 C2440.34,572.808 2439.06,572.537 2439.06,571.995 C2439.06,571.22 2440.3,570.407 2442.78,569.555 C2446.11,568.315 2449.67,565.797 2453.47,562.001 C2457.81,557.585 2459.98,553.595 2459.98,550.031 C2459.98,547.629 2458.31,545.344 2454.98,543.175 C2452.04,541.315 2447.27,540.386 2440.69,540.386 C2431.08,540.386 2418.95,550.07 2404.31,569.438 C2394.55,582.376 2386.65,593.765 2380.61,603.604 C2383.55,601.977 2387.07,600.002 2391.18,597.678 C2396.22,594.811 2400.55,593.378 2404.2,593.378 C2413.26,593.378 2417.79,596.632 2417.79,603.139 C2417.79,609.57 2414.07,616.62 2406.64,624.29 C2401.37,629.713 2398.73,633.742 2398.73,636.376 C2398.73,639.087 2401.37,640.443 2406.64,640.443 C2409.27,640.443 2411.98,639.513 2414.77,637.654 C2417.56,635.872 2419.61,634.981 2420.93,634.981 C2422.01,634.981 2422.56,635.679 2422.56,637.073 C2422.56,639.32 2420.39,641.683 2416.05,644.162 C2408.77,648.346 2402.92,650.437 2398.5,650.437 C2390.68,650.437 2386.76,646.254 2386.76,637.887 C2386.76,632.618 2389.79,626.769 2395.83,620.339 C2400.24,615.613 2402.45,610.926 2402.45,606.277 C2402.45,602.249 2400.28,600.234 2395.94,600.234 C2394.24,600.234 2388.58,602.249 2378.98,606.277 C2376.11,611.081 2373.71,615.497 2371.77,619.525 C2364.41,634.865 2359.53,642.535 2357.13,642.535"/>
<path class="Note" d="M2357.13,821.118 C2352.95,821.118 2350.86,819.22 2350.86,815.423 C2350.86,808.993 2351.82,804.267 2353.76,801.246 C2361.82,789.315 2379.33,767.002 2406.29,734.308 C2418.45,719.511 2434.14,712.112 2453.35,712.112 C2460.79,712.112 2465.94,713.158 2468.81,715.249 C2473.23,718.503 2475.43,722.416 2475.43,726.987 C2475.43,731.79 2471.56,737.136 2463.81,743.024 C2456.45,748.602 2449.48,751.391 2442.89,751.391 C2440.34,751.391 2439.06,751.12 2439.06,750.578 C2439.06,749.803 2440.3,748.989 2442.78,748.137 C2446.11,746.898 2449.67,744.38 2453.47,740.583 C2457.81,736.167 2459.98,732.178 2459.98,728.614 C2459.98,726.212 2458.31,723.927 2454.98,721.757 C2452.04,719.898 2447.27,718.968 2440.69,718.968 C2431.08,718.968 2418.95,728.652 2404.31,748.021 C2394.55,760.959 2386.65,772.348 2380.61,782.187 C2383.55,780.56 2387.07,778.584 2391.18,776.26 C2396.22,773.394 2400.55,771.96 2404.2,771.96 C2413.26,771.96 2417.79,775.214 2417.79,781.722 C2417.79,788.152 2414.07,795.203 2406.64,802.873 C2401.37,808.296 2398.73,812.324 2398.73,814.958 C2398.73,817.67 2401.37,819.026 2406.64,819.026 C2409.27,819.026 2411.98,818.096 2414.77,816.237 C2417.56,814.455 2419.61,813.564 2420.93,813.564 C2422.01,813.564 2422.56,814.261 2422.56,815.656 C2422.56,817.902 2420.39,820.265 2416.05,822.745 C2408.77,826.928 2402.92,829.02 2398.5,829.02 C2390.68,829.02 2386.76,824.836 2386.76,816.469 C2386.76,811.201 2389.79,805.352 2395.83,798.921 C2400.24,794.195 2402.45,789.508 2402.45,784.86 C2402.45,780.831 2400.28,778.817 2395.94,778.817 C2394.24,778.817 2388.58,780.831 2378.98,784.86 C2376.11,789.663 2373.71,794.079 2371.77,798.108 C2364.41,813.448 2359.53,821.118 2357.13,821.118"/>
<path class="Note" d="M2357.13,553.244 C2352.95,553.244 2350.86,551.346 2350.86,547.549 C2350.86,541.119 2351.82,536.393 2353.76,533.372 C2361.82,521.441 2379.33,499.128 2406.29,466.434 C2418.45,451.637 2434.14,444.238 2453.35,444.238 C2460.79,444.238 2465.94,445.284 2468.81,447.375 C2473.23,450.629 2475.43,454.542 2475.43,459.113 C2475.43,463.916 2471.56,469.262 2463.81,475.15 C2456.45,480.728 2449.48,483.517 2442.89,483.517 C2440.34,483.517 2439.06,483.246 2439.06,482.704 C2439.06,481.929 2440.3,481.115 2442.78,480.263 C2446.11,479.024 2449.67,476.506 2453.47,472.709 C2457.81,468.293 2459.98,464.304 2459.98,460.74 C2459.98,458.338 2458.31,456.053 2454.98,453.883 C2452.04,452.024 2447.27,451.094 2440.69,451.094 C2431.08,451.094 2418.95,460.778 2404.31,480.147 C2394.55,493.085 2386.65,504.474 2380.61,514.313 C2383.55,512.686 2387.07,510.71 2391.18,508.386 C2396.22,505.52 2400.55,504.086 2404.2,504.086 C2413.26,504.086 2417.79,507.34 2417.79,513.848 C2417.79,520.278 2414.07,527.329 2406.64,534.999 C2401.37,540.422 2398.73,544.45 2398.73,547.084 C2398.73,549.796 2401.37,551.152 2406.64,551.152 C2409.27,551.152 2411.98,550.222 2414.77,548.363 C2417.56,546.581 2419.61,545.69 2420.93,545.69 C2422.01,545.69 2422.56,546.387 2422.56,547.782 C2422.56,550.028 2420.39,552.391 2416.05,554.871 C2408.77,559.054 2402.92,561.146 2398.5,561.146 C2390.68,561.146 2386.76,556.962 2386.76,548.595 C2386.76,543.327 2389.79,537.478 2395.83,531.047 C2400.24,526.321 2402.45,521.634 2402.45,516.986 C2402.45,512.957 2400.28,510.943 2395.94,510.943 C2394.24,510.943 2388.58,512.957 2378.98,516.986 C2376.11,521.789 2373.71,526.205 2371.77,530.234 C2364.41,545.574 2359.53,553.244 2357.13,553.244"/>
<path class="Note" d="M2418.03,657.916 C2420.43,657.916 2422.17,658.42 2423.25,659.427 C2424.49,660.512 2425.11,662.1 2425.11,664.192 C2425.11,666.826 2423.95,669.072 2421.63,670.932 C2411.56,678.059 2401.21,687.124 2390.6,698.125 C2393,708.739 2395.94,716.603 2399.43,721.716 C2404,728.456 2407.14,731.826 2408.84,731.826 C2410.39,731.826 2412.06,730.858 2413.84,728.921 C2415.08,727.604 2416.28,726.945 2417.44,726.945 C2419.92,726.945 2421.16,728.263 2421.16,730.897 C2421.16,733.686 2418.95,737.482 2414.54,742.285 C2412.14,744.764 2409.62,746.004 2406.98,746.004 C2401.56,746.004 2396.1,740.93 2390.6,730.78 C2385.02,720.554 2381.19,710.908 2379.09,701.844 C2375.22,713.775 2373.28,721.096 2373.28,723.808 C2373.28,729.153 2370.22,731.826 2364.1,731.826 C2360.77,731.826 2359.11,728.727 2359.11,722.529 C2359.11,719.585 2362.79,706.415 2370.15,683.018 C2373.79,671.552 2376.77,663.533 2379.09,658.962 C2379.64,658.032 2381.03,657.568 2383.28,657.568 C2385.91,657.568 2387.73,658.11 2388.74,659.194 C2389.75,660.279 2390.25,662.526 2390.25,665.935 C2390.25,667.639 2388.58,673.527 2385.25,683.599 C2393.54,675.464 2402.88,667.523 2413.26,659.776 C2414.89,658.536 2416.48,657.916 2418.03,657.916"/>
<path class="Note" d="M2821.22,804.541 C2823.7,804.541 2825.4,805.161 2826.33,806.4 C2827.72,808.492 2828.42,811.436 2828.42,815.232 C2828.42,819.648 2825.32,830.223 2819.13,846.958 C2808.98,875.391 2803.9,890.459 2803.9,892.164 C2803.9,896.735 2805.72,899.059 2809.36,899.137 C2810.91,899.137 2814.86,896.735 2821.22,891.931 C2827.49,887.36 2832.33,885.075 2835.74,885.075 C2837.14,885.075 2837.84,885.927 2837.84,887.632 C2837.84,890.498 2834,894.256 2826.33,898.904 C2813.78,906.574 2805.1,910.409 2800.3,910.409 C2792.63,910.409 2788.79,907.388 2788.79,901.345 C2788.79,901.19 2794.1,883.409 2804.72,848.004 C2811.15,826.698 2815.06,812.831 2816.45,806.4 C2816.68,805.161 2818.27,804.541 2821.22,804.541"/>
<path class="Note" d="M2815.99,576.876 C2819.78,576.876 2821.68,579.781 2821.68,585.592 C2821.68,589.775 2819.71,594.579 2815.76,600.002 C2812.27,604.883 2810.53,612.436 2810.53,622.663 C2810.53,627.544 2811.8,630.798 2814.36,632.425 C2816.14,633.664 2819.47,634.323 2824.35,634.4 C2829.62,634.4 2837.1,631.727 2846.78,626.382 L2848.64,628.241 C2846.16,631.417 2843.18,634.284 2839.69,636.841 C2834.5,640.637 2829.2,642.535 2823.77,642.535 C2815.95,642.535 2810.02,641.412 2805.99,639.165 C2800.96,636.376 2798.44,632.889 2798.44,628.706 C2798.44,617.162 2799.91,605.115 2802.86,592.564 C2803.94,587.993 2806.3,583.81 2809.94,580.013 C2812.04,577.922 2814.05,576.876 2815.99,576.876"/>
<path class="Note" d="M2786.7,553.244 C2782.52,553.244 2780.43,551.346 2780.43,547.549 C2780.43,541.119 2781.4,536.393 2783.33,533.372 C2791.39,521.441 2808.9,499.128 2835.86,466.434 C2848.02,451.637 2863.71,444.238 2882.93,444.238 C2890.36,444.238 2895.51,445.284 2898.38,447.375 C2902.8,450.629 2905.01,454.542 2905.01,459.113 C2905.01,463.916 2901.13,469.262 2893.38,475.15 C2886.02,480.728 2879.05,483.517 2872.47,483.517 C2869.91,483.517 2868.63,483.246 2868.63,482.704 C2868.63,481.929 2869.87,481.115 2872.35,480.263 C2875.68,479.024 2879.25,476.506 2883.04,472.709 C2887.38,468.293 2889.55,464.304 2889.55,460.74 C2889.55,458.338 2887.88,456.053 2884.55,453.883 C2881.61,452.024 2876.84,451.094 2870.26,451.094 C2860.65,451.094 2848.53,460.778 2833.88,480.147 C2824.12,493.085 2816.22,504.474 2810.18,514.313 C2813.12,512.686 2816.65,510.71 2820.75,508.386 C2825.79,505.52 2830.13,504.086 2833.77,504.086 C2842.83,504.086 2847.36,507.34 2847.36,513.848 C2847.36,520.278 2843.65,527.329 2836.21,534.999 C2830.94,540.422 2828.31,544.45 2828.31,547.084 C2828.31,549.796 2830.94,551.152 2836.21,551.152 C2838.84,551.152 2841.55,550.222 2844.34,548.363 C2847.13,546.581 2849.19,545.69 2850.5,545.69 C2851.59,545.69 2852.13,546.387 2852.13,547.782 C2852.13,550.028 2849.96,552.391 2845.62,554.871 C2838.34,559.054 2832.49,561.146 2828.07,561.146 C2820.25,561.146 2816.34,556.962 2816.34,548.595 C2816.34,543.327 2819.36,537.478 2825.4,531.047 C2829.82,526.321 2832.02,521.634 2832.02,516.986 C2832.02,512.957 2829.86,510.943 2825.52,510.943 C2823.81,510.943 2818.16,512.957 2808.55,516.986 C2805.68,521.789 2803.28,526.205 2801.34,530.234 C2793.98,545.574 2789.1,553.244 2786.7,553.244"/>
<path class="Note" d="M2821.22,625.958 C2823.7,625.958 2825.4,626.578 2826.33,627.818 C2827.72,629.909 2828.42,632.853 2828.42,636.65 C2828.42,641.066 2825.32,651.641 2819.13,668.375 C2808.98,696.808 2803.9,711.877 2803.9,713.581 C2803.9,718.152 2805.72,720.476 2809.36,720.554 C2810.91,720.554 2814.86,718.152 2821.22,713.349 C2827.49,708.778 2832.33,706.492 2835.74,706.492 C2837.14,706.492 2837.84,707.345 2837.84,709.049 C2837.84,711.916 2834,715.673 2826.33,720.321 C2813.78,727.991 2805.1,731.826 2800.3,731.826 C2792.63,731.826 2788.79,728.805 2788.79,722.762 C2788.79,722.607 2794.1,704.827 2804.72,669.421 C2811.15,648.116 2815.06,634.248 2816.45,627.818 C2816.68,626.578 2818.27,625.958 2821.22,625.958"/>
<path class="Note" d="M3406.93,836.499 C3409.33,836.499 3411.07,837.002 3412.16,838.01 C3413.4,839.094 3414.02,840.682 3414.02,842.774 C3414.02,845.408 3412.86,847.655 3410.53,849.514 C3400.46,856.642 3390.12,865.707 3379.5,876.708 C3381.91,887.322 3384.85,895.185 3388.34,900.299 C3392.91,907.039 3396.04,910.409 3397.75,910.409 C3399.3,910.409 3400.96,909.441 3402.75,907.504 C3403.99,906.187 3405.19,905.528 3406.35,905.528 C3408.83,905.528 3410.07,906.845 3410.07,909.479 C3410.07,912.268 3407.86,916.065 3403.44,920.868 C3401.04,923.347 3398.52,924.587 3395.89,924.587 C3390.47,924.587 3385,919.512 3379.5,909.363 C3373.93,899.137 3370.09,889.491 3368,880.427 C3364.13,892.358 3362.19,899.679 3362.19,902.39 C3362.19,907.736 3359.13,910.409 3353.01,910.409 C3349.68,910.409 3348.01,907.31 3348.01,901.112 C3348.01,898.168 3351.69,884.998 3359.05,861.6 C3362.69,850.134 3365.67,842.116 3368,837.545 C3368.54,836.615 3369.94,836.15 3372.18,836.15 C3374.82,836.15 3376.64,836.693 3377.64,837.777 C3378.65,838.862 3379.16,841.109 3379.16,844.517 C3379.16,846.222 3377.49,852.11 3374.16,862.181 C3382.45,854.047 3391.78,846.106 3402.17,838.358 C3403.79,837.119 3405.38,836.499 3406.93,836.499"/>
<path class="Note" d="M3380.55,536.667 C3383.03,536.667 3384.73,537.287 3385.66,538.526 C3387.06,540.618 3387.75,543.562 3387.75,547.358 C3387.75,551.774 3384.66,562.349 3378.46,579.084 C3368.31,607.517 3363.23,622.585 3363.23,624.29 C3363.23,628.861 3365.05,631.185 3368.7,631.263 C3370.25,631.263 3374.2,628.861 3380.55,624.057 C3386.83,619.486 3391.67,617.201 3395.08,617.201 C3396.47,617.201 3397.17,618.053 3397.17,619.758 C3397.17,622.624 3393.33,626.382 3385.66,631.03 C3373.11,638.7 3364.44,642.535 3359.63,642.535 C3351.96,642.535 3348.13,639.513 3348.13,633.471 C3348.13,633.316 3353.43,615.535 3364.05,580.13 C3370.48,558.824 3374.39,544.957 3375.79,538.526 C3376.02,537.287 3377.61,536.667 3380.55,536.667"/>
<path class="Note" d="M3406.93,747.207 C3409.33,747.207 3411.07,747.711 3412.16,748.718 C3413.4,749.803 3414.02,751.391 3414.02,753.483 C3414.02,756.117 3412.86,758.364 3410.53,760.223 C3400.46,767.351 3390.12,776.415 3379.5,787.416 C3381.91,798.03 3384.85,805.894 3388.34,811.007 C3392.91,817.748 3396.04,821.118 3397.75,821.118 C3399.3,821.118 3400.96,820.149 3402.75,818.212 C3403.99,816.895 3405.19,816.237 3406.35,816.237 C3408.83,816.237 3410.07,817.554 3410.07,820.188 C3410.07,822.977 3407.86,826.773 3403.44,831.577 C3401.04,834.056 3398.52,835.295 3395.89,835.295 C3390.47,835.295 3385,830.221 3379.5,820.072 C3373.93,809.845 3370.09,800.2 3368,791.135 C3364.13,803.066 3362.19,810.388 3362.19,813.099 C3362.19,818.445 3359.13,821.118 3353.01,821.118 C3349.68,821.118 3348.01,818.019 3348.01,811.821 C3348.01,808.877 3351.69,795.706 3359.05,772.309 C3362.69,760.843 3365.67,752.824 3368,748.253 C3368.54,747.324 3369.94,746.859 3372.18,746.859 C3374.82,746.859 3376.64,747.401 3377.64,748.486 C3378.65,749.57 3379.16,751.817 3379.16,755.226 C3379.16,756.93 3377.49,762.818 3374.16,772.89 C3382.45,764.755 3391.78,756.814 3402.17,749.067 C3403.79,747.827 3405.38,747.207 3406.93,747.207"/>
<path class="Note" d="M3406.93,657.916 C3409.33,657.916 3411.07,658.42 3412.16,659.427 C3413.4,660.512 3414.02,662.1 3414.02,664.192 C3414.02,666.826 3412.86,669.072 3410.53,670.932 C3400.46,678.059 3390.12,687.124 3379.5,698.125 C3381.91,708.739 3384.85,716.603 3388.34,721.716 C3392.91,728.456 3396.04,731.826 3397.75,731.826 C3399.3,731.826 3400.96,730.858 3402.75,728.921 C3403.99,727.604 3405.19,726.945 3406.35,726.945 C3408.83,726.945 3410.07,728.263 3410.07,730.897 C3410.07,733.686 3407.86,737.482 3403.44,742.285 C3401.04,744.764 3398.52,746.004 3395.89,746.004 C3390.47,746.004 3385,740.93 3379.5,730.78 C3373.93,720.554 3370.09,710.908 3368,701.844 C3364.13,713.775 3362.19,721.096 3362.19,723.808 C3362.19,729.153 3359.13,731.826 3353.01,731.826 C3349.68,731.826 3348.01,728.727 3348.01,722.529 C3348.01,719.585 3351.69,706.415 3359.05,683.018 C3362.69,671.552 3365.67,663.533 3368,658.962 C3368.54,658.032 3369.94,657.568 3372.18,657.568 C3374.82,657.568 3376.64,658.11 3377.64,659.194 C3378.65,660.279 3379.16,662.526 3379.16,665.935 C3379.16,667.639 3377.49,673.527 3374.16,683.599 C3382.45,675.464 3391.78,667.523 3402.17,659.776 C3403.79,658.536 3405.38,657.916 3406.93,657.916"/>
<path class="Note" d="M3775.61,910.409 C3771.42,910.409 3769.33,908.511 3769.33,904.715 C3769.33,898.284 3770.3,893.558 3772.24,890.537 C3780.29,878.606 3797.8,856.293 3824.76,823.599 C3836.93,808.802 3852.62,801.403 3871.83,801.403 C3879.27,801.403 3884.42,802.449 3887.29,804.541 C3891.7,807.795 3893.91,811.707 3893.91,816.278 C3893.91,821.082 3890.04,826.427 3882.29,832.315 C3874.93,837.893 3867.96,840.682 3861.37,840.682 C3858.81,840.682 3857.54,840.411 3857.54,839.869 C3857.54,839.094 3858.78,838.281 3861.25,837.429 C3864.59,836.189 3868.15,833.671 3871.95,829.875 C3876.28,825.459 3878.45,821.469 3878.45,817.905 C3878.45,815.503 3876.79,813.218 3873.46,811.049 C3870.51,809.189 3865.75,808.26 3859.16,808.26 C3849.56,808.26 3837.43,817.944 3822.79,837.312 C3813.03,850.25 3805.12,861.639 3799.08,871.478 C3802.03,869.851 3805.55,867.876 3809.66,865.552 C3814.69,862.685 3819.03,861.252 3822.67,861.252 C3831.74,861.252 3836.27,864.506 3836.27,871.013 C3836.27,877.444 3832.55,884.494 3825.11,892.164 C3819.84,897.587 3817.21,901.616 3817.21,904.25 C3817.21,906.961 3819.84,908.317 3825.11,908.317 C3827.75,908.317 3830.46,907.388 3833.25,905.528 C3836.04,903.746 3838.09,902.855 3839.41,902.855 C3840.49,902.855 3841.03,903.553 3841.03,904.947 C3841.03,907.194 3838.86,909.557 3834.53,912.036 C3827.24,916.22 3821.39,918.311 3816.98,918.311 C3809.15,918.311 3805.24,914.128 3805.24,905.761 C3805.24,900.492 3808.26,894.643 3814.31,888.213 C3818.72,883.487 3820.93,878.8 3820.93,874.151 C3820.93,870.123 3818.76,868.108 3814.42,868.108 C3812.72,868.108 3807.06,870.123 3797.45,874.151 C3794.59,878.955 3792.19,883.371 3790.25,887.399 C3782.89,902.739 3778.01,910.409 3775.61,910.409"/>
<path class="Note" d="M3804.89,576.876 C3808.69,576.876 3810.59,579.781 3810.59,585.592 C3810.59,589.775 3808.61,594.579 3804.66,600.002 C3801.17,604.883 3799.43,612.436 3799.43,622.663 C3799.43,627.544 3800.71,630.798 3803.27,632.425 C3805.05,633.664 3808.38,634.323 3813.26,634.4 C3818.53,634.4 3826,631.727 3835.69,626.382 L3837.55,628.241 C3835.07,631.417 3832.09,634.284 3828.6,636.841 C3823.41,640.637 3818.1,642.535 3812.68,642.535 C3804.85,642.535 3798.93,641.412 3794.9,639.165 C3789.86,636.376 3787.34,632.889 3787.34,628.706 C3787.34,617.162 3788.82,605.115 3791.76,592.564 C3792.85,587.993 3795.21,583.81 3798.85,580.013 C3800.94,577.922 3802.96,576.876 3804.89,576.876"/>
<path class="Note" d="M3775.61,553.244 C3771.42,553.244 3769.33,551.346 3769.33,547.549 C3769.33,541.119 3770.3,536.393 3772.24,533.372 C3780.29,521.441 3797.8,499.128 3824.76,466.434 C3836.93,451.637 3852.62,444.238 3871.83,444.238 C3879.27,444.238 3884.42,445.284 3887.29,447.375 C3891.7,450.629 3893.91,454.542 3893.91,459.113 C3893.91,463.916 3890.04,469.262 3882.29,475.15 C3874.93,480.728 3867.96,483.517 3861.37,483.517 C3858.81,483.517 3857.54,483.246 3857.54,482.704 C3857.54,481.929 3858.78,481.115 3861.25,480.263 C3864.59,479.024 3868.15,476.506 3871.95,472.709 C3876.28,468.293 3878.45,464.304 3878.45,460.74 C3878.45,458.338 3876.79,456.053 3873.46,453.883 C3870.51,452.024 3865.75,451.094 3859.16,451.094 C3849.56,451.094 3837.43,460.778 3822.79,480.147 C3813.03,493.085 3805.12,504.474 3799.08,514.313 C3802.03,512.686 3805.55,510.71 3809.66,508.386 C3814.69,505.52 3819.03,504.086 3822.67,504.086 C3831.74,504.086 3836.27,507.34 3836.27,513.848 C3836.27,520.278 3832.55,527.329 3825.11,534.999 C3819.84,540.422 3817.21,544.45 3817.21,547.084 C3817.21,549.796 3819.84,551.152 3825.11,551.152 C3827.75,551.152 3830.46,550.222 3833.25,548.363 C3836.04,546.581 3838.09,545.69 3839.41,545.69 C3840.49,545.69 3841.03,546.387 3841.03,547.782 C3841.03,550.028 3838.86,552.391 3834.53,554.871 C3827.24,559.054 3821.39,561.146 3816.98,561.146 C3809.15,561.146 3805.24,556.962 3805.24,548.595 C3805.24,543.327 3808.26,537.478 3814.31,531.047 C3818.72,526.321 3820.93,521.634 3820.93,516.986 C3820.93,512.957 3818.76,510.943 3814.42,510.943 C3812.72,510.943 3807.06,512.957 3797.45,516.986 C3794.59,521.789 3792.19,526.205 3790.25,530.234 C3782.89,545.574 3778.01,553.244 3775.61,553.244"/>
<path class="Note" d="M3810.12,625.958 C3812.6,625.958 3814.31,626.578 3815.24,627.818 C3816.63,629.909 3817.33,632.853 3817.33,636.65 C3817.33,641.066 3814.23,651.641 3808.03,668.375 C3797.88,696.808 3792.81,711.877 3792.81,713.581 C3792.81,718.152 3794.63,720.476 3798.27,720.554 C3799.82,720.554 3803.77,718.152 3810.12,713.349 C3816.4,708.778 3821.24,706.492 3824.65,706.492 C3826.04,706.492 3826.74,707.345 3826.74,709.049 C3826.74,711.916 3822.9,715.673 3815.24,720.321 C3802.68,727.991 3794.01,731.826 3789.2,731.826 C3781.53,731.826 3777.7,728.805 3777.7,722.762 C3777.7,722.607 3783.01,704.827 3793.62,669.421 C3800.05,648.116 3803.96,634.248 3805.36,627.818 C3805.59,626.578 3807.18,625.958 3810.12,625.958"/>
<path class="Note" transform="matrix(2.3811,0,0,2.3811,1874.23,1897.8)" d="M18.7,-13.6 C4.9,-13.6 0,-6.6 0,-0.1 C0,6.4 4.9,13.4 18.7,13.4 C32.5,13.4 37.3,6.4 37.3,-0.1 C37.3,-6.6 32.5,-13.6 18.7,-13.6 M10.4,-4.5 C10.3,-4.9 10.3,-5.3 10.3,-5.7 C10.3,-6.5 10.5,-7.3 10.9,-8 C11.6,-9 12.8,-9.7 14.3,-10 C15.6,-10.3 16.3,-10.5 18.9,-10.5 L19,-10.5 C23,-10.5 24.3,-6.8 25.4,-3 L25.7,-2 C26.5,0.6 26.9,2.8 26.9,4.5 C26.9,5.7 26.7,6.8 26.3,7.6 C25.7,8.7 24.7,9.4 23,9.8 C22.1,10 20.6,10.1 20.6,10.1 C20.1,10.1 19.7,10.2 19.3,10.2 C16.1,10.2 14.1,9 12.7,4.7 C11.5,1 11.3,-0.1 10.4,-4.5"/>
<path class="Clef" transform="matrix(2.3811,0,0,2.3811,212.156,2076.38)" d="M25.4,-25.1 C17.8,-25.1 11.7,-20.7 11.6,-20.7 C5.8,-16.4 3.5,-11.3 2.6,-7.8 C2.1,-6 1.9,-4.2 1.9,-2.5 C1.9,-0.1 2.3,2.1 3.2,4 C4.4,6.7 6.7,8.6 9.7,9.6 C10.9,10 12.2,10.2 13.5,10.2 C15.7,10.2 18,9.6 19.9,8.5 C23,6.8 24.9,3.2 24.9,-0.7 C24.9,-4.2 23.1,-7.4 20.1,-9.3 C18,-10.7 16,-11.1 14.3,-11.1 C13.1,-11.1 12,-10.9 11.1,-10.6 C10.1,-10.2 8.4,-9.2 7.6,-8.5 C7.9,-10.4 9.1,-13.3 10.2,-14.9 C11.3,-16.5 13.5,-18.5 15.2,-19.4 C17.7,-20.8 20.9,-21.4 24.4,-21.4 C34.6,-21.4 39.6,-13.2 39.6,3.6 C39.6,12.9 36.1,21.8 33.1,27.7 C29.8,34.3 25.4,40.6 21.5,44.1 C11.1,53.6 1.3,58.1 1.2,58.1 C1.2,58.1 -0.3,59 0.1,60.5 C0.4,61.5 1.3,61.7 1.9,61.7 C2,61.7 2.3,61.6 2.4,61.6 C2.5,61.6 13.9,56.9 23,49.8 C28.1,46.1 32.7,42.1 36.7,37.8 C40.3,33.9 43.4,29.7 45.9,25.5 C50.3,18 52.8,10.2 52.8,3.5 C52.8,-4.8 50.6,-11.7 46.5,-16.6 C41.8,-22.2 34.7,-25.1 25.4,-25.1 M56.8,-12.4 C56.8,-9.6 59,-7.4 61.6,-7.4 C64.2,-7.4 66.4,-9.6 66.4,-12.4 C66.4,-15.2 64.2,-17.5 61.6,-17.5 C59,-17.5 56.8,-15.2 56.8,-12.4 M56.8,12.3 C56.8,15.1 59,17.4 61.6,17.4 C64.2,17.4 66.4,15.1 66.4,12.3 C66.4,9.5 64.2,7.2 61.6,7.2 C59,7.2 56.8,9.5 56.8,12.3"/>
<path class="Clef" transform="matrix(2.3811,0,0,2.3811,212.156,1570.39)" d="M63.37,-5.89004 C62.14,-11.32 59.5,-15.14 58.72,-16.1801 C55.5301,-20.45 51.52,-23.3 46.8301,-24.65 C43.72,-25.54 40.72,-25.65 38.3,-25.47 C37.2601,-31.4801 36.2601,-37.3601 35.35,-42.8101 C40.79,-48.97 44.42,-54.77 46.69,-59.07 C50.1601,-65.65 51.3101,-70.2301 51.3601,-70.4301 C53.0801,-75.64 53.44,-83.34 52.34,-91.55 C51.3301,-99.1 49.24,-105.81 46.89,-109.06 C45.8601,-110.49 44.8101,-111.22 43.77,-111.22 C42.55,-111.22 40.04,-109.98 37.15,-107.21 C34.85,-105.01 31.5801,-101.12 29.02,-95.1101 C26.02,-88.05 25.8101,-78.5601 26.1601,-71.84 C26.54,-64.57 27.65,-58.8801 27.6601,-58.8301 C27.6801,-58.74 27.94,-57.24 28.39,-54.67 C28.1601,-54.44 27.92,-54.22 27.67,-53.9801 C26.6301,-52.9801 25.44,-51.84 24.0601,-50.4601 C23.2,-49.6 22.25,-48.69 21.25,-47.72 C12.79,-39.57 0,-27.25 0,-8.1 C0,-3.4 0.9,1.01992 2.68008,5.02998 C4.27002,8.62998 6.57002,11.91 9.5,14.78 C17.2301,22.33 27.82,25.5399 34.8801,25.38 C37.8301,25.31 40.4601,25.0699 42.85,24.6199 C44.6801,34.2199 45.82,41.25 45.8601,46.5899 C45.9,53.1 44.25,57.0699 40.35,59.8399 C37.92,61.5699 35.1101,62.5199 32.0101,62.6699 C29.42,62.7899 27.1601,62.3199 25.7301,61.91 L25.72,61.91 C25.72,61.91 25.4301,61.83 25.42,61.63 C25.4101,61.45 25.7601,61.4 25.77,61.4 L25.79,61.4 C27.7101,60.96 31.2801,59.73 33.64,56.43 C35.44,53.91 36.3101,49.2899 34.47,45.35 C33.3601,42.96 30.85,40.01 25.2301,39.56 C22.74,39.36 20.47,39.8699 18.47,41.0699 C16.6601,42.15 15.1601,43.7899 14.1101,45.7899 C11.65,50.4899 12.1101,56.2199 15.24,60.06 C18.2,63.68 22.82,65.9899 28.25,66.5699 C29.1,66.66 29.95,66.7 30.8,66.7 C31.5101,66.7 32.22,66.6699 32.92,66.61 C31.72,66.9399 30.64,67.4899 29.77,68.25 C28.2801,69.5399 27.44,71.38 27.44,73.41 C27.44,75.28 28.0601,76.65 29.55,78.0399 C28.4101,78.5 27.55,78.98 26.79,79.56 C25.25,80.73 24.34,82.46 24.34,84.1899 C24.34,87.45 27.3,89.63 31.72,89.63 C37.1301,89.63 40.9101,86.63 40.9101,82.35 C40.9101,80.1199 39.9101,78.18 38.0801,76.83 C41.0101,75.6199 42.37,73.9399 42.37,71.56 C42.39,70.05 41.69,68.61 40.49,67.6899 C39.2801,66.7399 37.62,66.2399 35.69,66.2399 L35.5101,66.2399 C38.2801,65.7 40.92,64.7 43.2101,63.28 C46.87,60.71 48.99,56.73 49.67,51.1 C50.2301,46.46 49.84,40.55 48.44,32.48 C48.0801,30.3899 47.54,27.36 46.8801,23.6 C52.6301,21.68 56.79,18.11 60.5601,12.26 C63.85,6.51992 64.8,0.419922 63.37,-5.89004 M32.39,87.5399 C30.19,87.5399 28.7301,86.1199 28.7301,84.01 C28.7301,82.11 29.65,80.5 31.32,79.4699 C31.6801,79.66 31.77,79.71 32.1101,79.88 C33.3,80.48 33.3,80.48 33.55,80.63 L33.5601,80.6399 C35.47,81.73 36.25,82.76 36.25,84.18 C36.24,86.0899 34.59,87.5399 32.39,87.5399 M38.3101,71.63 C38.3101,73.2699 37.7301,74.3399 36.1801,75.53 C34.74,74.78 34.35,74.56 33.9801,74.3399 L33.8801,74.28 C32.3301,73.3399 31.85,72.66 31.85,71.4 C31.85,69.6 33.2301,68.3399 35.19,68.3399 C37.17,68.35 38.3101,69.55 38.3101,71.63 M33.15,-83.8101 C34.9301,-89.55 37.67,-92.8 39.6601,-94.5301 C41.4101,-96.05 43.0601,-96.7601 43.9801,-96.7601 C44.12,-96.7601 44.24,-96.74 44.34,-96.7101 C44.8,-96.57 45.3301,-96 45.8,-95.1301 C48.1101,-90.84 47.37,-84.1301 46.0301,-79.69 C44.4,-74.29 41.4801,-68.6801 32.69,-59.0601 C32.52,-60.17 32.3601,-61.22 32.2101,-62.2 C30.95,-70.49 31.27,-77.7601 33.15,-83.8101 M29.15,20.31 C24.5101,19.0899 20.0801,16.5899 16.32,13.0899 C15.0101,11.86 13.14,9.68994 11.67,6.3 C10.3101,3.13994 9.65,-0.290039 9.7,-3.88008 C9.77002,-8.57002 11.0801,-13.39 13.59,-18.1801 C16.5101,-23.7601 21.07,-29.29 27.1301,-34.62 C28.5801,-35.9 29.95,-37.1801 31.24,-38.4601 C32,-34.2 32.8301,-29.5101 33.7101,-24.6301 C29.8601,-23.3601 25.1101,-20.2101 22,-14.5601 C18.47,-7.99004 18.6101,-2.47002 19.34,1.00996 C20.2801,5.46992 22.8101,9.22998 26.27,11.3199 C27.2,11.88 31.3301,14.01 33.17,13.43 C33.54,13.31 33.8101,13.0899 33.95,12.76 C34.4601,11.5899 33.44,10.95 31.8801,9.98994 C31.2801,9.61992 30.6101,9.2 29.8801,8.66992 C26.5601,6.17998 25.1101,1.72998 26.1801,-2.65 C26.7601,-5.05 28.04,-7.21006 29.8801,-8.91006 C31.55,-10.4601 33.59,-11.5601 35.97,-12.2 C38.0101,-0.960059 40.07,10.1899 41.7101,18.55 C41.84,19.2399 41.9801,19.91 42.1101,20.58 C37.7101,21.51 33.37,21.4199 29.15,20.31 M54.9,10.1 C53.7301,13.28 51.27,17.35 46.14,19.41 C46.07,18.9899 45.99,18.56 45.9101,18.13 C44.3601,9.36992 42.4301,-1.61006 40.47,-12.87 C50.82,-13.35 55.09,-5.91006 55.9801,-1.08008 C56.45,1.45 56.45,5.88994 54.9,10.1"/>
<path class="FiguredBass" d="M1010.98,2390.15 C1006.4,2390.15 1003.36,2391.99 1001.84,2395.67 C1000.33,2399.35 999.568,2404.56 999.568,2411.3 L999.568,2422.25 C1002.78,2420.95 1005.57,2420.27 1007.92,2420.21 C1015.96,2420.21 1022.28,2421.98 1026.89,2425.54 C1031.5,2429.1 1033.8,2434.38 1033.8,2441.4 C1033.8,2448.42 1031.47,2453.73 1026.8,2457.31 C1022.13,2460.9 1015.83,2462.7 1007.92,2462.7 C999.816,2462.7 993.476,2458.94 988.899,2451.42 C984.322,2443.91 982.034,2434.99 982.034,2424.66 C982.034,2414.39 984.694,2405.49 990.013,2397.94 C995.332,2390.39 1002.32,2386.62 1010.98,2386.62 C1016.67,2386.62 1021.59,2388.06 1025.73,2390.94 C1029.87,2393.81 1031.95,2397.6 1031.95,2402.3 C1031.95,2405.02 1030.96,2407.37 1028.98,2409.35 C1027,2411.33 1024.63,2412.32 1021.88,2412.32 C1019.13,2412.32 1016.76,2411.33 1014.78,2409.35 C1012.8,2407.37 1011.81,2405.02 1011.81,2402.3 C1011.81,2399.64 1012.8,2397.29 1014.78,2395.25 C1015.46,2394.45 1016.42,2393.76 1017.66,2393.21 C1017.35,2392.4 1016.73,2391.79 1015.8,2391.35 C1014.44,2390.55 1012.83,2390.15 1010.98,2390.15 M1015.53,2428.09 C1014.41,2425.18 1011.97,2423.73 1008.2,2423.73 C1004.42,2423.73 1002.09,2425.18 1001.19,2428.09 C1000.29,2431 999.847,2435.42 999.847,2441.36 C999.847,2448.35 1000.29,2453.05 1001.19,2455.46 C1002.09,2457.87 1004.42,2459.08 1008.2,2459.08 C1011.97,2459.08 1014.41,2457.62 1015.53,2454.72 C1016.64,2451.81 1017.2,2447.37 1017.2,2441.4 C1017.2,2435.44 1016.64,2431 1015.53,2428.09"/>
<path class="FiguredBass" d="M1479.94,2436.07 L1479.94,2419.09 C1479.94,2418.1 1480.3,2417.22 1481.01,2416.45 C1481.72,2415.67 1482.63,2415.29 1483.74,2415.29 C1484.86,2415.29 1485.77,2415.67 1486.48,2416.45 C1487.19,2417.22 1487.55,2418.1 1487.55,2419.09 L1487.55,2436.07 L1500.81,2436.07 C1501.93,2436.07 1502.84,2436.46 1503.55,2437.23 C1504.26,2438 1504.62,2438.88 1504.62,2439.87 C1504.62,2440.86 1504.26,2441.74 1503.55,2442.52 C1502.84,2443.29 1501.93,2443.68 1500.81,2443.68 L1487.55,2443.68 L1487.55,2460.65 C1487.55,2461.64 1487.19,2462.53 1486.48,2463.3 C1485.77,2464.07 1484.86,2464.46 1483.74,2464.46 C1482.63,2464.46 1481.72,2464.07 1481.01,2463.3 C1480.3,2462.53 1479.94,2461.64 1479.94,2460.65 L1479.94,2443.68 L1462.78,2443.68 L1462.78,2444.88 C1462.78,2448.72 1463.8,2452.06 1465.84,2454.9 C1467.88,2457.75 1470.51,2459.17 1473.72,2459.17 C1474.96,2459.17 1475.58,2459.73 1475.58,2460.84 C1475.58,2462.08 1474.96,2462.7 1473.72,2462.7 C1471.5,2462.7 1468.19,2462.37 1463.8,2461.72 C1459.41,2461.07 1456.08,2460.75 1453.82,2460.75 C1451.57,2460.75 1448.24,2461.07 1443.85,2461.72 C1439.46,2462.37 1436.15,2462.7 1433.92,2462.7 C1432.69,2462.7 1432.07,2462.08 1432.07,2460.84 C1432.07,2459.73 1432.69,2459.17 1433.92,2459.17 C1437.14,2459.17 1439.78,2457.75 1441.86,2454.9 C1443.93,2452.06 1444.96,2448.72 1444.96,2444.88 L1444.96,2443.68 L1419.64,2443.68 C1418.03,2443.68 1416.84,2443.29 1416.06,2442.52 C1415.29,2441.74 1414.91,2440.96 1414.91,2440.15 C1414.91,2439.84 1415.63,2438.78 1417.09,2436.95 C1418.54,2435.13 1420.32,2432.7 1422.42,2429.67 C1424.52,2426.64 1426.61,2423.19 1428.68,2419.32 C1430.75,2415.46 1432.52,2410.82 1433.97,2405.41 C1435.42,2400 1436.15,2394.54 1436.15,2389.03 C1436.15,2387.43 1436.83,2386.62 1438.19,2386.62 C1438.38,2386.62 1439.03,2386.78 1440.14,2387.09 C1441.25,2387.39 1442.68,2387.72 1444.41,2388.06 C1446.14,2388.4 1447.81,2388.57 1449.42,2388.57 C1451.83,2388.57 1454.3,2388.23 1456.84,2387.55 L1461.01,2386.44 C1461.82,2386.44 1462.47,2386.74 1462.96,2387.36 C1463.33,2387.92 1463.27,2388.48 1462.78,2389.03 L1422.33,2436.07 L1444.96,2436.07 L1444.96,2419.37 C1444.96,2417.95 1445.35,2416.85 1446.12,2416.08 C1446.9,2415.3 1447.95,2414.65 1449.28,2414.13 C1450.61,2413.6 1452.14,2412.26 1453.87,2410.09 C1455.48,2408.05 1457.33,2404.96 1459.44,2400.82 C1459.75,2400.2 1460.21,2399.89 1460.83,2399.89 C1462.13,2399.89 1462.78,2400.6 1462.78,2402.02 L1462.78,2436.07 L1479.94,2436.07 "/>
<path class="FiguredBass" d="M1461.94,2528.09 C1461.94,2529.08 1462.5,2530.04 1463.61,2530.97 C1464.72,2531.89 1465.95,2532.77 1467.28,2533.61 C1468.61,2534.44 1469.83,2536.02 1470.94,2538.34 C1472.05,2540.66 1472.61,2543.58 1472.61,2547.11 C1472.61,2553.91 1470.04,2559.17 1464.91,2562.88 C1459.78,2566.59 1453.28,2568.45 1445.43,2568.45 C1439.12,2568.45 1433.63,2566.87 1428.96,2563.71 C1424.29,2560.56 1421.96,2556.42 1421.96,2551.28 C1421.96,2548.56 1422.95,2546.2 1424.92,2544.19 C1426.9,2542.18 1429.27,2541.17 1432.02,2541.17 C1434.77,2541.17 1437.11,2542.16 1439.03,2544.14 C1440.94,2546.12 1441.9,2548.5 1441.9,2551.28 C1441.9,2552.52 1440.88,2553.86 1438.84,2555.32 C1436.8,2556.77 1435.78,2558.12 1435.78,2559.35 C1435.78,2561.27 1436.72,2562.68 1438.61,2563.57 C1440.5,2564.47 1442.77,2564.92 1445.43,2564.92 C1448.89,2564.92 1451.35,2563.2 1452.8,2559.77 C1454.26,2556.34 1454.98,2552.12 1454.98,2547.11 L1454.98,2544.7 C1454.98,2541.36 1454.88,2538.82 1454.66,2537.09 C1454.44,2535.36 1453.76,2533.81 1452.62,2532.45 C1451.47,2531.09 1449.73,2530.41 1447.38,2530.41 L1435.22,2530.41 C1433.8,2530.41 1433.09,2529.64 1433.09,2528.09 C1433.09,2526.67 1433.8,2525.96 1435.22,2525.96 L1447.38,2525.96 C1449.91,2525.96 1451.89,2525 1453.31,2523.08 C1453.81,2522.4 1454.21,2521.29 1454.52,2519.74 C1454.83,2517.7 1454.98,2514.76 1454.98,2510.93 L1454.98,2509.72 C1454.98,2500.5 1451.58,2495.9 1444.78,2495.9 C1438.78,2495.9 1435.78,2497.57 1435.78,2500.91 C1435.78,2502.02 1436.69,2503.21 1438.52,2504.48 C1440.34,2505.75 1441.25,2506.94 1441.25,2508.05 C1441.25,2510.46 1440.4,2512.53 1438.7,2514.27 C1437,2516 1434.93,2516.86 1432.49,2516.86 C1430.04,2516.86 1427.99,2516 1426.32,2514.27 C1424.65,2512.53 1423.81,2510.46 1423.81,2508.05 C1423.81,2503.29 1425.88,2499.48 1430.03,2496.64 C1434.17,2493.79 1439.09,2492.37 1444.78,2492.37 C1452.26,2492.37 1458.42,2493.81 1463.24,2496.69 C1468.06,2499.56 1470.48,2503.91 1470.48,2509.72 C1470.48,2513.86 1470.04,2517.08 1469.18,2519.37 C1468.31,2521.66 1467.32,2523.05 1466.21,2523.54 C1465.1,2524.04 1464.11,2524.61 1463.24,2525.26 C1462.37,2525.91 1461.94,2526.85 1461.94,2528.09"/>
<path class="FiguredBass" d="M1912.61,2453.05 L1912.61,2472.44 C1912.61,2474.35 1911.63,2475.31 1909.68,2475.31 C1907.74,2475.31 1906.76,2474.35 1906.76,2472.44 L1906.76,2455.55 L1903.79,2456.76 C1903.48,2456.88 1903.08,2456.94 1902.59,2456.94 C1901.78,2456.94 1901.07,2456.63 1900.45,2456.02 C1899.83,2455.4 1899.52,2454.69 1899.52,2453.88 L1899.52,2444.42 C1899.52,2443.06 1900.17,2442.1 1901.47,2441.54 L1906.76,2439.32 L1906.76,2419.83 L1903.79,2421.04 C1903.61,2421.1 1903.36,2421.13 1903.05,2421.13 C1902.93,2421.13 1902.77,2421.13 1902.59,2421.13 C1901.66,2421.01 1900.92,2420.67 1900.36,2420.11 C1899.8,2419.56 1899.52,2418.91 1899.52,2418.16 L1899.52,2408.7 C1899.52,2407.4 1900.17,2406.47 1901.47,2405.92 L1906.76,2403.69 L1906.76,2383.93 C1906.76,2382.01 1907.74,2381.05 1909.68,2381.05 C1911.63,2381.05 1912.61,2382.01 1912.61,2383.93 L1912.61,2401.28 L1924.57,2396.27 L1924.57,2376.88 C1924.57,2374.96 1925.53,2374 1927.45,2374 C1929.37,2374 1930.33,2374.96 1930.33,2376.88 L1930.33,2393.95 L1933.57,2392.56 C1933.88,2392.44 1934.22,2392.37 1934.59,2392.37 C1935.4,2392.37 1936.12,2392.68 1936.77,2393.3 C1937.42,2393.92 1937.75,2394.63 1937.75,2395.43 L1937.75,2404.9 C1937.75,2406.26 1937.07,2407.22 1935.71,2407.77 L1930.33,2410 L1930.33,2429.58 L1933.57,2428.28 C1933.76,2428.21 1933.97,2428.18 1934.22,2428.18 C1934.35,2428.18 1934.47,2428.18 1934.59,2428.18 C1935.64,2428.37 1936.43,2428.71 1936.96,2429.2 C1937.48,2429.7 1937.75,2430.35 1937.75,2431.15 L1937.75,2440.62 C1937.75,2441.91 1937.07,2442.84 1935.71,2443.4 L1930.33,2445.63 L1930.33,2465.39 C1930.33,2467.3 1929.37,2468.26 1927.45,2468.26 C1925.53,2468.26 1924.57,2467.3 1924.57,2465.39 L1924.57,2448.04 L1912.61,2453.05 M1912.61,2436.9 L1924.57,2431.99 L1924.57,2412.41 L1912.61,2417.42 L1912.61,2436.9 "/>
<path class="FiguredBass" d="M2329.83,2444.42 C2329.15,2445.16 2328.26,2445.53 2327.14,2445.53 C2326.03,2445.53 2325.12,2445.15 2324.41,2444.37 C2323.69,2443.6 2323.34,2442.72 2323.34,2441.73 L2323.34,2428.46 L2310.07,2428.46 C2308.96,2428.46 2308.05,2428.08 2307.34,2427.3 C2306.62,2426.53 2306.27,2425.65 2306.27,2424.66 C2306.27,2423.67 2306.62,2422.79 2307.34,2422.01 C2308.05,2421.24 2308.96,2420.85 2310.07,2420.85 L2323.34,2420.85 L2323.34,2407.59 C2323.34,2406.6 2323.69,2405.72 2324.41,2404.94 C2325.12,2404.17 2326.03,2403.78 2327.14,2403.78 C2328.26,2403.78 2329.17,2404.17 2329.88,2404.94 C2330.59,2405.72 2330.95,2406.6 2330.95,2407.59 L2330.95,2420.85 L2344.21,2420.85 C2345.33,2420.85 2346.24,2421.24 2346.95,2422.01 C2347.66,2422.79 2348.02,2423.67 2348.02,2424.66 C2348.02,2425.65 2347.66,2426.53 2346.95,2427.3 C2346.24,2428.08 2345.33,2428.46 2344.21,2428.46 L2330.95,2428.46 L2330.95,2441.73 C2330.95,2442.72 2330.58,2443.62 2329.83,2444.42 M2382.61,2388.57 C2384.96,2388.57 2387.43,2388.23 2390.03,2387.55 L2394.2,2386.44 C2395.01,2386.44 2395.64,2386.74 2396.11,2387.36 C2396.57,2387.98 2396.52,2388.54 2395.97,2389.03 L2352.83,2439.22 L2378.15,2439.22 L2378.15,2419.37 C2378.15,2417.95 2378.54,2416.85 2379.31,2416.08 C2380.09,2415.3 2381.08,2414.69 2382.28,2414.22 C2383.49,2413.76 2385.07,2412.38 2387.01,2410.09 C2388.96,2407.8 2390.83,2404.71 2392.63,2400.82 C2392.94,2400.2 2393.4,2399.89 2394.02,2399.89 C2395.32,2399.89 2395.97,2400.6 2395.97,2402.02 L2395.97,2439.22 L2406.91,2439.22 C2408.46,2439.22 2409.23,2439.94 2409.23,2441.36 C2409.23,2442.9 2408.46,2443.68 2406.91,2443.68 L2395.97,2443.68 L2395.97,2444.88 C2395.97,2448.72 2396.99,2452.06 2399.03,2454.9 C2401.07,2457.75 2403.7,2459.17 2406.91,2459.17 C2408.15,2459.17 2408.77,2459.73 2408.77,2460.84 C2408.77,2462.08 2408.15,2462.7 2406.91,2462.7 C2404.69,2462.7 2401.38,2462.37 2396.99,2461.72 C2392.6,2461.07 2389.27,2460.75 2387.01,2460.75 C2384.76,2460.75 2381.43,2461.07 2377.04,2461.72 C2372.65,2462.37 2369.34,2462.7 2367.11,2462.7 C2365.88,2462.7 2365.26,2462.08 2365.26,2460.84 C2365.26,2459.73 2365.88,2459.17 2367.11,2459.17 C2370.33,2459.17 2372.97,2457.75 2375.05,2454.9 C2377.12,2452.06 2378.15,2448.72 2378.15,2444.88 L2378.15,2443.68 L2352.83,2443.68 C2351.22,2443.68 2350.03,2443.29 2349.26,2442.52 C2348.48,2441.74 2348.1,2440.96 2348.1,2440.15 C2348.1,2439.84 2348.82,2438.78 2350.28,2436.95 C2351.73,2435.13 2353.51,2432.7 2355.61,2429.67 C2357.71,2426.64 2359.8,2423.19 2361.87,2419.32 C2363.94,2415.46 2365.71,2410.82 2367.16,2405.41 C2368.61,2400 2369.34,2394.54 2369.34,2389.03 C2369.34,2387.43 2370.02,2386.62 2371.38,2386.62 C2371.57,2386.62 2372.22,2386.78 2373.33,2387.09 C2374.44,2387.39 2375.87,2387.72 2377.6,2388.06 C2379.33,2388.4 2381,2388.57 2382.61,2388.57"/>
<path class="FiguredBass" d="M2812.83,2390.15 C2808.25,2390.15 2805.21,2391.99 2803.69,2395.67 C2802.18,2399.35 2801.42,2404.56 2801.42,2411.3 L2801.42,2422.25 C2804.63,2420.95 2807.42,2420.27 2809.77,2420.21 C2817.81,2420.21 2824.13,2421.98 2828.74,2425.54 C2833.35,2429.1 2835.65,2434.38 2835.65,2441.4 C2835.65,2448.42 2833.32,2453.73 2828.65,2457.31 C2823.98,2460.9 2817.68,2462.7 2809.77,2462.7 C2801.67,2462.7 2795.33,2458.94 2790.75,2451.42 C2786.17,2443.91 2783.88,2434.99 2783.88,2424.66 C2783.88,2414.39 2786.54,2405.49 2791.86,2397.94 C2797.18,2390.39 2804.17,2386.62 2812.83,2386.62 C2818.52,2386.62 2823.44,2388.06 2827.58,2390.94 C2831.72,2393.81 2833.8,2397.6 2833.8,2402.3 C2833.8,2405.02 2832.81,2407.37 2830.83,2409.35 C2828.85,2411.33 2826.48,2412.32 2823.73,2412.32 C2820.98,2412.32 2818.61,2411.33 2816.63,2409.35 C2814.65,2407.37 2813.66,2405.02 2813.66,2402.3 C2813.66,2399.64 2814.65,2397.29 2816.63,2395.25 C2817.31,2394.45 2818.27,2393.76 2819.51,2393.21 C2819.2,2392.4 2818.58,2391.79 2817.65,2391.35 C2816.29,2390.55 2814.68,2390.15 2812.83,2390.15 M2817.37,2428.09 C2816.26,2425.18 2813.82,2423.73 2810.05,2423.73 C2806.27,2423.73 2803.94,2425.18 2803.04,2428.09 C2802.14,2431 2801.7,2435.42 2801.7,2441.36 C2801.7,2448.35 2802.14,2453.05 2803.04,2455.46 C2803.94,2457.87 2806.27,2459.08 2810.05,2459.08 C2813.82,2459.08 2816.26,2457.62 2817.37,2454.72 C2818.49,2451.81 2819.04,2447.37 2819.04,2441.4 C2819.04,2435.44 2818.49,2431 2817.37,2428.09"/>
<path class="FiguredBass" d="M3318.74,2444.42 C3318.06,2445.16 3317.16,2445.53 3316.05,2445.53 C3314.93,2445.53 3314.02,2445.15 3313.31,2444.37 C3312.6,2443.6 3312.24,2442.72 3312.24,2441.73 L3312.24,2428.46 L3298.98,2428.46 C3297.86,2428.46 3296.95,2428.08 3296.24,2427.3 C3295.53,2426.53 3295.17,2425.65 3295.17,2424.66 C3295.17,2423.67 3295.53,2422.79 3296.24,2422.01 C3296.95,2421.24 3297.86,2420.85 3298.98,2420.85 L3312.24,2420.85 L3312.24,2407.59 C3312.24,2406.6 3312.6,2405.72 3313.31,2404.94 C3314.02,2404.17 3314.93,2403.78 3316.05,2403.78 C3317.16,2403.78 3318.07,2404.17 3318.78,2404.94 C3319.5,2405.72 3319.85,2406.6 3319.85,2407.59 L3319.85,2420.85 L3333.12,2420.85 C3334.23,2420.85 3335.14,2421.24 3335.85,2422.01 C3336.57,2422.79 3336.92,2423.67 3336.92,2424.66 C3336.92,2425.65 3336.57,2426.53 3335.85,2427.3 C3335.14,2428.08 3334.23,2428.46 3333.12,2428.46 L3319.85,2428.46 L3319.85,2441.73 C3319.85,2442.72 3319.48,2443.62 3318.74,2444.42 M3372.16,2390.15 C3367.58,2390.15 3364.54,2391.99 3363.02,2395.67 C3361.51,2399.35 3360.75,2404.56 3360.75,2411.3 L3360.75,2422.25 C3363.97,2420.95 3366.75,2420.27 3369.1,2420.21 C3377.14,2420.21 3383.46,2421.98 3388.07,2425.54 C3392.68,2429.1 3394.98,2434.38 3394.98,2441.4 C3394.98,2448.42 3392.65,2453.73 3387.98,2457.31 C3383.31,2460.9 3377.02,2462.7 3369.1,2462.7 C3361,2462.7 3354.66,2458.94 3350.08,2451.42 C3345.5,2443.91 3343.22,2434.99 3343.22,2424.66 C3343.22,2414.39 3345.88,2405.49 3351.19,2397.94 C3356.51,2390.39 3363.5,2386.62 3372.16,2386.62 C3377.85,2386.62 3382.77,2388.06 3386.91,2390.94 C3391.06,2393.81 3393.13,2397.6 3393.13,2402.3 C3393.13,2405.02 3392.14,2407.37 3390.16,2409.35 C3388.18,2411.33 3385.81,2412.32 3383.06,2412.32 C3380.31,2412.32 3377.94,2411.33 3375.97,2409.35 C3373.99,2407.37 3373,2405.02 3373,2402.3 C3373,2399.64 3373.99,2397.29 3375.97,2395.25 C3376.65,2394.45 3377.6,2393.76 3378.84,2393.21 C3378.53,2392.4 3377.91,2391.79 3376.99,2391.35 C3375.63,2390.55 3374.02,2390.15 3372.16,2390.15 M3376.71,2428.09 C3375.59,2425.18 3373.15,2423.73 3369.38,2423.73 C3365.61,2423.73 3363.27,2425.18 3362.37,2428.09 C3361.48,2431 3361.03,2435.42 3361.03,2441.36 C3361.03,2448.35 3361.48,2453.05 3362.37,2455.46 C3363.27,2457.87 3365.61,2459.08 3369.38,2459.08 C3373.15,2459.08 3375.59,2457.62 3376.71,2454.72 C3377.82,2451.81 3378.38,2447.37 3378.38,2441.4 C3378.38,2435.44 3377.82,2431 3376.71,2428.09"/>
<path class="Bracket" transform="matrix(8.6315,0,0,8.6315,76.1283,2254.96)" d="M0.92002,-50 C2.69004,-51.88 6.2,-55.8 6.2,-63 C6.2,-72.1 2.25996,-81.32 2.25996,-86.97 C2.25996,-93.06 5.84004,-98.84 5.95,-99 C6.05996,-99.16 6.05,-99.39 5.94004,-99.46 C5.82998,-99.53 5.62002,-99.47 5.49004,-99.32 C5.35996,-99.17 0,-93.75 0,-85.6 C0,-76.75 3.5,-70.58 3.5,-59.07 C3.5,-56.89 2.55996,-53.36 0.1,-50.33 C-0.0799805,-50.17 -0.1,-49.89 0.0599609,-49.7 L0.0700195,-49.69 L0.1,-49.66 C2.55996,-46.63 3.5,-43.1 3.5,-40.92 C3.5,-29.4 0,-23.24 0,-14.39 C0,-6.25 5.35996,-0.8 5.49004,-0.659961 C5.62002,-0.52002 5.8,-0.42998 5.94004,-0.52002 C6.07998,-0.609961 6.07998,-0.77998 5.95,-0.97998 C5.82002,-1.17998 2.25996,-6.92002 2.25996,-13.01 C2.25996,-18.66 6.2,-27.9 6.2,-37 C6.2,-44.3 2.69004,-48.12 0.92002,-50"/>
</svg>
