<?xml version="1.0" encoding="UTF-8" standalone="no"?>
<svg width="4209.44px" height="2976.38px" viewBox="0 0 4209.44 2976.38"
 xmlns="http://www.w3.org/2000/svg" xmlns:xlink="http://www.w3.org/1999/xlink" version="1.2" baseProfile="tiny">
<title>LaMineur (32)</title>
<desc>Generated by MuseScore 3.6.2</desc>
<polyline class="StaffLines" fill="none" stroke="#000000" stroke-width="6.55" stroke-linejoin="bevel" points="153.819,558.425 4138.58,558.425"/>
<polyline class="StaffLines" fill="none" stroke="#000000" stroke-width="6.55" stroke-linejoin="bevel" points="153.819,647.717 4138.58,647.717"/>
<polyline class="StaffLines" fill="none" stroke="#000000" stroke-width="6.55" stroke-linejoin="bevel" points="153.819,737.008 4138.58,737.008"/>
<polyline class="StaffLines" fill="none" stroke="#000000" stroke-width="6.55" stroke-linejoin="bevel" points="153.819,826.299 4138.58,826.299"/>
<polyline class="StaffLines" fill="none" stroke="#000000" stroke-width="6.55" stroke-linejoin="bevel" points="153.819,915.591 4138.58,915.591"/>
<polyline class="StaffLines" fill="none" stroke="#000000" stroke-width="6.55" stroke-linejoin="bevel" points="153.819,1004.88 4138.58,1004.88"/>
<polyline class="StaffLines" fill="none" stroke="#000000" stroke-width="6.55" stroke-linejoin="bevel" points="153.819,1391.81 4138.58,1391.81"/>
<polyline class="StaffLines" fill="none" stroke="#000000" stroke-width="6.55" stroke-linejoin="bevel" points="153.819,1451.34 4138.58,1451.34"/>
<polyline class="StaffLines" fill="none" stroke="#000000" stroke-width="6.55" stroke-linejoin="bevel" points="153.819,1510.87 4138.58,1510.87"/>
<polyline class="StaffLines" fill="none" stroke="#000000" stroke-width="6.55" stroke-linejoin="bevel" points="153.819,1570.39 4138.58,1570.39"/>
<polyline class="StaffLines" fill="none" stroke="#000000" stroke-width="6.55" stroke-linejoin="bevel" points="153.819,1629.92 4138.58,1629.92"/>
<polyline class="StaffLines" fill="none" stroke="#000000" stroke-width="6.55" stroke-linejoin="bevel" points="153.819,2016.85 4138.58,2016.85"/>
<polyline class="StaffLines" fill="none" stroke="#000000" stroke-width="6.55" stroke-linejoin="bevel" points="153.819,2076.38 4138.58,2076.38"/>
<polyline class="StaffLines" fill="none" stroke="#000000" stroke-width="6.55" stroke-linejoin="bevel" points="153.819,2135.91 4138.58,2135.91"/>
<polyline class="StaffLines" fill="none" stroke="#000000" stroke-width="6.55" stroke-linejoin="bevel" points="153.819,2195.43 4138.58,2195.43"/>
<polyline class="StaffLines" fill="none" stroke="#000000" stroke-width="6.55" stroke-linejoin="bevel" points="153.819,2254.96 4138.58,2254.96"/>
<polyline class="BarLine" fill="none" stroke="#000000" stroke-width="10.71" stroke-linejoin="bevel" points="159.176,2013.58 159.176,2258.23"/>
<polyline class="BarLine" fill="none" stroke="#000000" stroke-width="10.71" stroke-linejoin="bevel" points="843.128,2013.58 843.128,2258.23"/>
<polyline class="BarLine" fill="none" stroke="#000000" stroke-width="10.71" stroke-linejoin="bevel" points="1374.97,2013.58 1374.97,2258.23"/>
<polyline class="BarLine" fill="none" stroke="#000000" stroke-width="10.71" stroke-linejoin="bevel" points="1808.67,2013.58 1808.67,2258.23"/>
<polyline class="BarLine" fill="none" stroke="#000000" stroke-width="10.71" stroke-linejoin="bevel" points="2297.89,2013.58 2297.89,2258.23"/>
<polyline class="BarLine" fill="none" stroke="#000000" stroke-width="10.71" stroke-linejoin="bevel" points="2752.23,2013.58 2752.23,2258.23"/>
<polyline class="BarLine" fill="none" stroke="#000000" stroke-width="10.71" stroke-linejoin="bevel" points="3219.24,2013.58 3219.24,2258.23"/>
<polyline class="BarLine" fill="none" stroke="#000000" stroke-width="10.71" stroke-linejoin="bevel" points="3673.58,2013.58 3673.58,2258.23"/>
<polyline class="BarLine" fill="none" stroke="#000000" stroke-width="10.71" stroke-linejoin="bevel" points="4080.54,2013.58 4080.54,2258.23"/>
<polyline class="BarLine" fill="none" stroke="#000000" stroke-width="32.74" stroke-linejoin="bevel" points="4122.21,2013.58 4122.21,2258.23"/>
<polyline class="BarLine" fill="none" stroke="#000000" stroke-width="10.71" stroke-linejoin="bevel" points="159.176,1388.54 159.176,2016.85"/>
<polyline class="BarLine" fill="none" stroke="#000000" stroke-width="10.71" stroke-linejoin="bevel" points="843.128,1388.54 843.128,1633.2"/>
<polyline class="BarLine" fill="none" stroke="#000000" stroke-width="10.71" stroke-linejoin="bevel" points="1374.97,1388.54 1374.97,1633.2"/>
<polyline class="BarLine" fill="none" stroke="#000000" stroke-width="10.71" stroke-linejoin="bevel" points="1808.67,1388.54 1808.67,1633.2"/>
<polyline class="BarLine" fill="none" stroke="#000000" stroke-width="10.71" stroke-linejoin="bevel" points="2297.89,1388.54 2297.89,1633.2"/>
<polyline class="BarLine" fill="none" stroke="#000000" stroke-width="10.71" stroke-linejoin="bevel" points="2752.23,1388.54 2752.23,1633.2"/>
<polyline class="BarLine" fill="none" stroke="#000000" stroke-width="10.71" stroke-linejoin="bevel" points="3219.24,1388.54 3219.24,1633.2"/>
<polyline class="BarLine" fill="none" stroke="#000000" stroke-width="10.71" stroke-linejoin="bevel" points="3673.58,1388.54 3673.58,1633.2"/>
<polyline class="BarLine" fill="none" stroke="#000000" stroke-width="10.71" stroke-linejoin="bevel" points="4080.54,1388.54 4080.54,1633.2"/>
<polyline class="BarLine" fill="none" stroke="#000000" stroke-width="32.74" stroke-linejoin="bevel" points="4122.21,1388.54 4122.21,1633.2"/>
<polyline class="BarLine" fill="none" stroke="#000000" stroke-width="10.71" stroke-linejoin="bevel" points="159.176,555.151 159.176,1391.81"/>
<polyline class="BarLine" fill="none" stroke="#000000" stroke-width="10.71" stroke-linejoin="bevel" points="843.128,555.151 843.128,1008.16"/>
<polyline class="BarLine" fill="none" stroke="#000000" stroke-width="10.71" stroke-linejoin="bevel" points="1374.97,555.151 1374.97,1008.16"/>
<polyline class="BarLine" fill="none" stroke="#000000" stroke-width="10.71" stroke-linejoin="bevel" points="1808.67,555.151 1808.67,1008.16"/>
<polyline class="BarLine" fill="none" stroke="#000000" stroke-width="10.71" stroke-linejoin="bevel" points="2297.89,555.151 2297.89,1008.16"/>
<polyline class="BarLine" fill="none" stroke="#000000" stroke-width="10.71" stroke-linejoin="bevel" points="2752.23,555.151 2752.23,1008.16"/>
<polyline class="BarLine" fill="none" stroke="#000000" stroke-width="10.71" stroke-linejoin="bevel" points="3219.24,555.151 3219.24,1008.16"/>
<polyline class="BarLine" fill="none" stroke="#000000" stroke-width="10.71" stroke-linejoin="bevel" points="3673.58,555.151 3673.58,1008.16"/>
<polyline class="BarLine" fill="none" stroke="#000000" stroke-width="10.71" stroke-linejoin="bevel" points="4080.54,555.151 4080.54,1008.16"/>
<polyline class="BarLine" fill="none" stroke="#000000" stroke-width="32.74" stroke-linejoin="bevel" points="4122.21,555.151 4122.21,1008.16"/>
<path class="Accidental" transform="matrix(2.3811,0,0,2.3811,2815.09,2076.38)" d="M23.3,-10.6 C23.9,-10.7 24.4,-11.4 24.4,-12 L24.4,-17.9 C24.4,-18.7 23.8,-19.3 23,-19.3 L22.8,-19.3 L19.5,-18.6 L19.5,-33.5 L16.7,-33.5 L16.7,-18 L7.8,-16.2 L7.8,-30.3 L5,-30.3 L5,-15.6 L1.1,-14.8 C0.5,-14.7 0,-14 0,-13.4 L0,-13.2 L0,-7.4 L0,-7.6 C0,-6.8 0.6,-6.2 1.4,-6.2 L1.7,-6.2 L5,-6.9 L5,9.6 L1.1,10.4 C0.5,10.5 0,11.2 0,11.8 L0,17.6 C0,18.4 0.6,19 1.4,19 L1.7,19 L5,18.3 L5,33.2 L7.8,33.2 L7.8,17.7 L16.7,15.9 L16.7,30 L19.5,30 L19.5,15.3 L23.3,14.6 C23.9,14.5 24.4,13.8 24.4,13.2 L24.4,7.3 C24.4,6.5 23.8,5.9 23,5.9 L22.8,5.9 L19.5,6.6 L19.5,-9.9 L23.3,-10.6 M7.8,9.1 L7.8,-7.5 L16.7,-9.3 L16.7,7.2 L7.8,9.1 "/>
<path class="Accidental" transform="matrix(2.3811,0,0,2.3811,3282.11,2046.61)" d="M23.3,-10.6 C23.9,-10.7 24.4,-11.4 24.4,-12 L24.4,-17.9 C24.4,-18.7 23.8,-19.3 23,-19.3 L22.8,-19.3 L19.5,-18.6 L19.5,-33.5 L16.7,-33.5 L16.7,-18 L7.8,-16.2 L7.8,-30.3 L5,-30.3 L5,-15.6 L1.1,-14.8 C0.5,-14.7 0,-14 0,-13.4 L0,-13.2 L0,-7.4 L0,-7.6 C0,-6.8 0.6,-6.2 1.4,-6.2 L1.7,-6.2 L5,-6.9 L5,9.6 L1.1,10.4 C0.5,10.5 0,11.2 0,11.8 L0,17.6 C0,18.4 0.6,19 1.4,19 L1.7,19 L5,18.3 L5,33.2 L7.8,33.2 L7.8,17.7 L16.7,15.9 L16.7,30 L19.5,30 L19.5,15.3 L23.3,14.6 C23.9,14.5 24.4,13.8 24.4,13.2 L24.4,7.3 C24.4,6.5 23.8,5.9 23,5.9 L22.8,5.9 L19.5,6.6 L19.5,-9.9 L23.3,-10.6 M7.8,9.1 L7.8,-7.5 L16.7,-9.3 L16.7,7.2 L7.8,9.1 "/>
<path class="Accidental" transform="matrix(2.3811,0,0,2.3811,905.995,1570.39)" d="M23.3,-10.6 C23.9,-10.7 24.4,-11.4 24.4,-12 L24.4,-17.9 C24.4,-18.7 23.8,-19.3 23,-19.3 L22.8,-19.3 L19.5,-18.6 L19.5,-33.5 L16.7,-33.5 L16.7,-18 L7.8,-16.2 L7.8,-30.3 L5,-30.3 L5,-15.6 L1.1,-14.8 C0.5,-14.7 0,-14 0,-13.4 L0,-13.2 L0,-7.4 L0,-7.6 C0,-6.8 0.6,-6.2 1.4,-6.2 L1.7,-6.2 L5,-6.9 L5,9.6 L1.1,10.4 C0.5,10.5 0,11.2 0,11.8 L0,17.6 C0,18.4 0.6,19 1.4,19 L1.7,19 L5,18.3 L5,33.2 L7.8,33.2 L7.8,17.7 L16.7,15.9 L16.7,30 L19.5,30 L19.5,15.3 L23.3,14.6 C23.9,14.5 24.4,13.8 24.4,13.2 L24.4,7.3 C24.4,6.5 23.8,5.9 23,5.9 L22.8,5.9 L19.5,6.6 L19.5,-9.9 L23.3,-10.6 M7.8,9.1 L7.8,-7.5 L16.7,-9.3 L16.7,7.2 L7.8,9.1 "/>
<path class="Accidental" transform="matrix(2.3811,0,0,2.3811,2360.76,1570.39)" d="M23.3,-10.6 C23.9,-10.7 24.4,-11.4 24.4,-12 L24.4,-17.9 C24.4,-18.7 23.8,-19.3 23,-19.3 L22.8,-19.3 L19.5,-18.6 L19.5,-33.5 L16.7,-33.5 L16.7,-18 L7.8,-16.2 L7.8,-30.3 L5,-30.3 L5,-15.6 L1.1,-14.8 C0.5,-14.7 0,-14 0,-13.4 L0,-13.2 L0,-7.4 L0,-7.6 C0,-6.8 0.6,-6.2 1.4,-6.2 L1.7,-6.2 L5,-6.9 L5,9.6 L1.1,10.4 C0.5,10.5 0,11.2 0,11.8 L0,17.6 C0,18.4 0.6,19 1.4,19 L1.7,19 L5,18.3 L5,33.2 L7.8,33.2 L7.8,17.7 L16.7,15.9 L16.7,30 L19.5,30 L19.5,15.3 L23.3,14.6 C23.9,14.5 24.4,13.8 24.4,13.2 L24.4,7.3 C24.4,6.5 23.8,5.9 23,5.9 L22.8,5.9 L19.5,6.6 L19.5,-9.9 L23.3,-10.6 M7.8,9.1 L7.8,-7.5 L16.7,-9.3 L16.7,7.2 L7.8,9.1 "/>
<path class="Note" transform="matrix(2.3811,0,0,2.3811,519.076,2225.2)" d="M18.7,-13.6 C4.9,-13.6 0,-6.6 0,-0.1 C0,6.4 4.9,13.4 18.7,13.4 C32.5,13.4 37.3,6.4 37.3,-0.1 C37.3,-6.6 32.5,-13.6 18.7,-13.6 M10.4,-4.5 C10.3,-4.9 10.3,-5.3 10.3,-5.7 C10.3,-6.5 10.5,-7.3 10.9,-8 C11.6,-9 12.8,-9.7 14.3,-10 C15.6,-10.3 16.3,-10.5 18.9,-10.5 L19,-10.5 C23,-10.5 24.3,-6.8 25.4,-3 L25.7,-2 C26.5,0.6 26.9,2.8 26.9,4.5 C26.9,5.7 26.7,6.8 26.3,7.6 C25.7,8.7 24.7,9.4 23,9.8 C22.1,10 20.6,10.1 20.6,10.1 C20.1,10.1 19.7,10.2 19.3,10.2 C16.1,10.2 14.1,9 12.7,4.7 C11.5,1 11.3,-0.1 10.4,-4.5"/>
<path class="Note" transform="matrix(2.3811,0,0,2.3811,1056.48,1987.09)" d="M18.7,-13.6 C4.9,-13.6 0,-6.6 0,-0.1 C0,6.4 4.9,13.4 18.7,13.4 C32.5,13.4 37.3,6.4 37.3,-0.1 C37.3,-6.6 32.5,-13.6 18.7,-13.6 M10.4,-4.5 C10.3,-4.9 10.3,-5.3 10.3,-5.7 C10.3,-6.5 10.5,-7.3 10.9,-8 C11.6,-9 12.8,-9.7 14.3,-10 C15.6,-10.3 16.3,-10.5 18.9,-10.5 L19,-10.5 C23,-10.5 24.3,-6.8 25.4,-3 L25.7,-2 C26.5,0.6 26.9,2.8 26.9,4.5 C26.9,5.7 26.7,6.8 26.3,7.6 C25.7,8.7 24.7,9.4 23,9.8 C22.1,10 20.6,10.1 20.6,10.1 C20.1,10.1 19.7,10.2 19.3,10.2 C16.1,10.2 14.1,9 12.7,4.7 C11.5,1 11.3,-0.1 10.4,-4.5"/>
<path class="Note" transform="matrix(2.3811,0,0,2.3811,1463.44,2165.67)" d="M18.7,-13.6 C4.9,-13.6 0,-6.6 0,-0.1 C0,6.4 4.9,13.4 18.7,13.4 C32.5,13.4 37.3,6.4 37.3,-0.1 C37.3,-6.6 32.5,-13.6 18.7,-13.6 M10.4,-4.5 C10.3,-4.9 10.3,-5.3 10.3,-5.7 C10.3,-6.5 10.5,-7.3 10.9,-8 C11.6,-9 12.8,-9.7 14.3,-10 C15.6,-10.3 16.3,-10.5 18.9,-10.5 L19,-10.5 C23,-10.5 24.3,-6.8 25.4,-3 L25.7,-2 C26.5,0.6 26.9,2.8 26.9,4.5 C26.9,5.7 26.7,6.8 26.3,7.6 C25.7,8.7 24.7,9.4 23,9.8 C22.1,10 20.6,10.1 20.6,10.1 C20.1,10.1 19.7,10.2 19.3,10.2 C16.1,10.2 14.1,9 12.7,4.7 C11.5,1 11.3,-0.1 10.4,-4.5"/>
<path class="Note" transform="matrix(2.3811,0,0,2.3811,1979.4,2135.91)" d="M18.7,-13.6 C4.9,-13.6 0,-6.6 0,-0.1 C0,6.4 4.9,13.4 18.7,13.4 C32.5,13.4 37.3,6.4 37.3,-0.1 C37.3,-6.6 32.5,-13.6 18.7,-13.6 M10.4,-4.5 C10.3,-4.9 10.3,-5.3 10.3,-5.7 C10.3,-6.5 10.5,-7.3 10.9,-8 C11.6,-9 12.8,-9.7 14.3,-10 C15.6,-10.3 16.3,-10.5 18.9,-10.5 L19,-10.5 C23,-10.5 24.3,-6.8 25.4,-3 L25.7,-2 C26.5,0.6 26.9,2.8 26.9,4.5 C26.9,5.7 26.7,6.8 26.3,7.6 C25.7,8.7 24.7,9.4 23,9.8 C22.1,10 20.6,10.1 20.6,10.1 C20.1,10.1 19.7,10.2 19.3,10.2 C16.1,10.2 14.1,9 12.7,4.7 C11.5,1 11.3,-0.1 10.4,-4.5"/>
<path class="Note" transform="matrix(2.3811,0,0,2.3811,2433.73,2106.14)" d="M18.7,-13.6 C4.9,-13.6 0,-6.6 0,-0.1 C0,6.4 4.9,13.4 18.7,13.4 C32.5,13.4 37.3,6.4 37.3,-0.1 C37.3,-6.6 32.5,-13.6 18.7,-13.6 M10.4,-4.5 C10.3,-4.9 10.3,-5.3 10.3,-5.7 C10.3,-6.5 10.5,-7.3 10.9,-8 C11.6,-9 12.8,-9.7 14.3,-10 C15.6,-10.3 16.3,-10.5 18.9,-10.5 L19,-10.5 C23,-10.5 24.3,-6.8 25.4,-3 L25.7,-2 C26.5,0.6 26.9,2.8 26.9,4.5 C26.9,5.7 26.7,6.8 26.3,7.6 C25.7,8.7 24.7,9.4 23,9.8 C22.1,10 20.6,10.1 20.6,10.1 C20.1,10.1 19.7,10.2 19.3,10.2 C16.1,10.2 14.1,9 12.7,4.7 C11.5,1 11.3,-0.1 10.4,-4.5"/>
<path class="Note" transform="matrix(2.3811,0,0,2.3811,2888.07,2076.38)" d="M18.7,-13.6 C4.9,-13.6 0,-6.6 0,-0.1 C0,6.4 4.9,13.4 18.7,13.4 C32.5,13.4 37.3,6.4 37.3,-0.1 C37.3,-6.6 32.5,-13.6 18.7,-13.6 M10.4,-4.5 C10.3,-4.9 10.3,-5.3 10.3,-5.7 C10.3,-6.5 10.5,-7.3 10.9,-8 C11.6,-9 12.8,-9.7 14.3,-10 C15.6,-10.3 16.3,-10.5 18.9,-10.5 L19,-10.5 C23,-10.5 24.3,-6.8 25.4,-3 L25.7,-2 C26.5,0.6 26.9,2.8 26.9,4.5 C26.9,5.7 26.7,6.8 26.3,7.6 C25.7,8.7 24.7,9.4 23,9.8 C22.1,10 20.6,10.1 20.6,10.1 C20.1,10.1 19.7,10.2 19.3,10.2 C16.1,10.2 14.1,9 12.7,4.7 C11.5,1 11.3,-0.1 10.4,-4.5"/>
<path class="Note" transform="matrix(2.3811,0,0,2.3811,3355.09,2046.61)" d="M18.7,-13.6 C4.9,-13.6 0,-6.6 0,-0.1 C0,6.4 4.9,13.4 18.7,13.4 C32.5,13.4 37.3,6.4 37.3,-0.1 C37.3,-6.6 32.5,-13.6 18.7,-13.6 M10.4,-4.5 C10.3,-4.9 10.3,-5.3 10.3,-5.7 C10.3,-6.5 10.5,-7.3 10.9,-8 C11.6,-9 12.8,-9.7 14.3,-10 C15.6,-10.3 16.3,-10.5 18.9,-10.5 L19,-10.5 C23,-10.5 24.3,-6.8 25.4,-3 L25.7,-2 C26.5,0.6 26.9,2.8 26.9,4.5 C26.9,5.7 26.7,6.8 26.3,7.6 C25.7,8.7 24.7,9.4 23,9.8 C22.1,10 20.6,10.1 20.6,10.1 C20.1,10.1 19.7,10.2 19.3,10.2 C16.1,10.2 14.1,9 12.7,4.7 C11.5,1 11.3,-0.1 10.4,-4.5"/>
<path class="Note" transform="matrix(2.3811,0,0,2.3811,3762.04,2016.85)" d="M18.7,-13.6 C4.9,-13.6 0,-6.6 0,-0.1 C0,6.4 4.9,13.4 18.7,13.4 C32.5,13.4 37.3,6.4 37.3,-0.1 C37.3,-6.6 32.5,-13.6 18.7,-13.6 M10.4,-4.5 C10.3,-4.9 10.3,-5.3 10.3,-5.7 C10.3,-6.5 10.5,-7.3 10.9,-8 C11.6,-9 12.8,-9.7 14.3,-10 C15.6,-10.3 16.3,-10.5 18.9,-10.5 L19,-10.5 C23,-10.5 24.3,-6.8 25.4,-3 L25.7,-2 C26.5,0.6 26.9,2.8 26.9,4.5 C26.9,5.7 26.7,6.8 26.3,7.6 C25.7,8.7 24.7,9.4 23,9.8 C22.1,10 20.6,10.1 20.6,10.1 C20.1,10.1 19.7,10.2 19.3,10.2 C16.1,10.2 14.1,9 12.7,4.7 C11.5,1 11.3,-0.1 10.4,-4.5"/>
<path class="Note" transform="matrix(2.3811,0,0,2.3811,519.076,1540.63)" d="M18.7,-13.6 C4.9,-13.6 0,-6.6 0,-0.1 C0,6.4 4.9,13.4 18.7,13.4 C32.5,13.4 37.3,6.4 37.3,-0.1 C37.3,-6.6 32.5,-13.6 18.7,-13.6 M10.4,-4.5 C10.3,-4.9 10.3,-5.3 10.3,-5.7 C10.3,-6.5 10.5,-7.3 10.9,-8 C11.6,-9 12.8,-9.7 14.3,-10 C15.6,-10.3 16.3,-10.5 18.9,-10.5 L19,-10.5 C23,-10.5 24.3,-6.8 25.4,-3 L25.7,-2 C26.5,0.6 26.9,2.8 26.9,4.5 C26.9,5.7 26.7,6.8 26.3,7.6 C25.7,8.7 24.7,9.4 23,9.8 C22.1,10 20.6,10.1 20.6,10.1 C20.1,10.1 19.7,10.2 19.3,10.2 C16.1,10.2 14.1,9 12.7,4.7 C11.5,1 11.3,-0.1 10.4,-4.5"/>
<path class="Note" transform="matrix(2.3811,0,0,2.3811,519.076,1481.1)" d="M18.7,-13.6 C4.9,-13.6 0,-6.6 0,-0.1 C0,6.4 4.9,13.4 18.7,13.4 C32.5,13.4 37.3,6.4 37.3,-0.1 C37.3,-6.6 32.5,-13.6 18.7,-13.6 M10.4,-4.5 C10.3,-4.9 10.3,-5.3 10.3,-5.7 C10.3,-6.5 10.5,-7.3 10.9,-8 C11.6,-9 12.8,-9.7 14.3,-10 C15.6,-10.3 16.3,-10.5 18.9,-10.5 L19,-10.5 C23,-10.5 24.3,-6.8 25.4,-3 L25.7,-2 C26.5,0.6 26.9,2.8 26.9,4.5 C26.9,5.7 26.7,6.8 26.3,7.6 C25.7,8.7 24.7,9.4 23,9.8 C22.1,10 20.6,10.1 20.6,10.1 C20.1,10.1 19.7,10.2 19.3,10.2 C16.1,10.2 14.1,9 12.7,4.7 C11.5,1 11.3,-0.1 10.4,-4.5"/>
<path class="Note" transform="matrix(2.3811,0,0,2.3811,519.076,1421.57)" d="M18.7,-13.6 C4.9,-13.6 0,-6.6 0,-0.1 C0,6.4 4.9,13.4 18.7,13.4 C32.5,13.4 37.3,6.4 37.3,-0.1 C37.3,-6.6 32.5,-13.6 18.7,-13.6 M10.4,-4.5 C10.3,-4.9 10.3,-5.3 10.3,-5.7 C10.3,-6.5 10.5,-7.3 10.9,-8 C11.6,-9 12.8,-9.7 14.3,-10 C15.6,-10.3 16.3,-10.5 18.9,-10.5 L19,-10.5 C23,-10.5 24.3,-6.8 25.4,-3 L25.7,-2 C26.5,0.6 26.9,2.8 26.9,4.5 C26.9,5.7 26.7,6.8 26.3,7.6 C25.7,8.7 24.7,9.4 23,9.8 C22.1,10 20.6,10.1 20.6,10.1 C20.1,10.1 19.7,10.2 19.3,10.2 C16.1,10.2 14.1,9 12.7,4.7 C11.5,1 11.3,-0.1 10.4,-4.5"/>
<path class="Note" transform="matrix(2.3811,0,0,2.3811,1056.48,1570.39)" d="M18.7,-13.6 C4.9,-13.6 0,-6.6 0,-0.1 C0,6.4 4.9,13.4 18.7,13.4 C32.5,13.4 37.3,6.4 37.3,-0.1 C37.3,-6.6 32.5,-13.6 18.7,-13.6 M10.4,-4.5 C10.3,-4.9 10.3,-5.3 10.3,-5.7 C10.3,-6.5 10.5,-7.3 10.9,-8 C11.6,-9 12.8,-9.7 14.3,-10 C15.6,-10.3 16.3,-10.5 18.9,-10.5 L19,-10.5 C23,-10.5 24.3,-6.8 25.4,-3 L25.7,-2 C26.5,0.6 26.9,2.8 26.9,4.5 C26.9,5.7 26.7,6.8 26.3,7.6 C25.7,8.7 24.7,9.4 23,9.8 C22.1,10 20.6,10.1 20.6,10.1 C20.1,10.1 19.7,10.2 19.3,10.2 C16.1,10.2 14.1,9 12.7,4.7 C11.5,1 11.3,-0.1 10.4,-4.5"/>
<path class="Note" transform="matrix(2.3811,0,0,2.3811,974.219,1451.34)" d="M18.7,-13.6 C4.9,-13.6 0,-6.6 0,-0.1 C0,6.4 4.9,13.4 18.7,13.4 C32.5,13.4 37.3,6.4 37.3,-0.1 C37.3,-6.6 32.5,-13.6 18.7,-13.6 M10.4,-4.5 C10.3,-4.9 10.3,-5.3 10.3,-5.7 C10.3,-6.5 10.5,-7.3 10.9,-8 C11.6,-9 12.8,-9.7 14.3,-10 C15.6,-10.3 16.3,-10.5 18.9,-10.5 L19,-10.5 C23,-10.5 24.3,-6.8 25.4,-3 L25.7,-2 C26.5,0.6 26.9,2.8 26.9,4.5 C26.9,5.7 26.7,6.8 26.3,7.6 C25.7,8.7 24.7,9.4 23,9.8 C22.1,10 20.6,10.1 20.6,10.1 C20.1,10.1 19.7,10.2 19.3,10.2 C16.1,10.2 14.1,9 12.7,4.7 C11.5,1 11.3,-0.1 10.4,-4.5"/>
<path class="Note" transform="matrix(2.3811,0,0,2.3811,1056.48,1421.57)" d="M18.7,-13.6 C4.9,-13.6 0,-6.6 0,-0.1 C0,6.4 4.9,13.4 18.7,13.4 C32.5,13.4 37.3,6.4 37.3,-0.1 C37.3,-6.6 32.5,-13.6 18.7,-13.6 M10.4,-4.5 C10.3,-4.9 10.3,-5.3 10.3,-5.7 C10.3,-6.5 10.5,-7.3 10.9,-8 C11.6,-9 12.8,-9.7 14.3,-10 C15.6,-10.3 16.3,-10.5 18.9,-10.5 L19,-10.5 C23,-10.5 24.3,-6.8 25.4,-3 L25.7,-2 C26.5,0.6 26.9,2.8 26.9,4.5 C26.9,5.7 26.7,6.8 26.3,7.6 C25.7,8.7 24.7,9.4 23,9.8 C22.1,10 20.6,10.1 20.6,10.1 C20.1,10.1 19.7,10.2 19.3,10.2 C16.1,10.2 14.1,9 12.7,4.7 C11.5,1 11.3,-0.1 10.4,-4.5"/>
<path class="Note" transform="matrix(2.3811,0,0,2.3811,1463.44,1540.63)" d="M18.7,-13.6 C4.9,-13.6 0,-6.6 0,-0.1 C0,6.4 4.9,13.4 18.7,13.4 C32.5,13.4 37.3,6.4 37.3,-0.1 C37.3,-6.6 32.5,-13.6 18.7,-13.6 M10.4,-4.5 C10.3,-4.9 10.3,-5.3 10.3,-5.7 C10.3,-6.5 10.5,-7.3 10.9,-8 C11.6,-9 12.8,-9.7 14.3,-10 C15.6,-10.3 16.3,-10.5 18.9,-10.5 L19,-10.5 C23,-10.5 24.3,-6.8 25.4,-3 L25.7,-2 C26.5,0.6 26.9,2.8 26.9,4.5 C26.9,5.7 26.7,6.8 26.3,7.6 C25.7,8.7 24.7,9.4 23,9.8 C22.1,10 20.6,10.1 20.6,10.1 C20.1,10.1 19.7,10.2 19.3,10.2 C16.1,10.2 14.1,9 12.7,4.7 C11.5,1 11.3,-0.1 10.4,-4.5"/>
<path class="Note" transform="matrix(2.3811,0,0,2.3811,1463.44,1481.1)" d="M18.7,-13.6 C4.9,-13.6 0,-6.6 0,-0.1 C0,6.4 4.9,13.4 18.7,13.4 C32.5,13.4 37.3,6.4 37.3,-0.1 C37.3,-6.6 32.5,-13.6 18.7,-13.6 M10.4,-4.5 C10.3,-4.9 10.3,-5.3 10.3,-5.7 C10.3,-6.5 10.5,-7.3 10.9,-8 C11.6,-9 12.8,-9.7 14.3,-10 C15.6,-10.3 16.3,-10.5 18.9,-10.5 L19,-10.5 C23,-10.5 24.3,-6.8 25.4,-3 L25.7,-2 C26.5,0.6 26.9,2.8 26.9,4.5 C26.9,5.7 26.7,6.8 26.3,7.6 C25.7,8.7 24.7,9.4 23,9.8 C22.1,10 20.6,10.1 20.6,10.1 C20.1,10.1 19.7,10.2 19.3,10.2 C16.1,10.2 14.1,9 12.7,4.7 C11.5,1 11.3,-0.1 10.4,-4.5"/>
<path class="Note" transform="matrix(2.3811,0,0,2.3811,1463.44,1421.57)" d="M18.7,-13.6 C4.9,-13.6 0,-6.6 0,-0.1 C0,6.4 4.9,13.4 18.7,13.4 C32.5,13.4 37.3,6.4 37.3,-0.1 C37.3,-6.6 32.5,-13.6 18.7,-13.6 M10.4,-4.5 C10.3,-4.9 10.3,-5.3 10.3,-5.7 C10.3,-6.5 10.5,-7.3 10.9,-8 C11.6,-9 12.8,-9.7 14.3,-10 C15.6,-10.3 16.3,-10.5 18.9,-10.5 L19,-10.5 C23,-10.5 24.3,-6.8 25.4,-3 L25.7,-2 C26.5,0.6 26.9,2.8 26.9,4.5 C26.9,5.7 26.7,6.8 26.3,7.6 C25.7,8.7 24.7,9.4 23,9.8 C22.1,10 20.6,10.1 20.6,10.1 C20.1,10.1 19.7,10.2 19.3,10.2 C16.1,10.2 14.1,9 12.7,4.7 C11.5,1 11.3,-0.1 10.4,-4.5"/>
<path class="Note" transform="matrix(2.3811,0,0,2.3811,1897.14,1540.63)" d="M18.7,-13.6 C4.9,-13.6 0,-6.6 0,-0.1 C0,6.4 4.9,13.4 18.7,13.4 C32.5,13.4 37.3,6.4 37.3,-0.1 C37.3,-6.6 32.5,-13.6 18.7,-13.6 M10.4,-4.5 C10.3,-4.9 10.3,-5.3 10.3,-5.7 C10.3,-6.5 10.5,-7.3 10.9,-8 C11.6,-9 12.8,-9.7 14.3,-10 C15.6,-10.3 16.3,-10.5 18.9,-10.5 L19,-10.5 C23,-10.5 24.3,-6.8 25.4,-3 L25.7,-2 C26.5,0.6 26.9,2.8 26.9,4.5 C26.9,5.7 26.7,6.8 26.3,7.6 C25.7,8.7 24.7,9.4 23,9.8 C22.1,10 20.6,10.1 20.6,10.1 C20.1,10.1 19.7,10.2 19.3,10.2 C16.1,10.2 14.1,9 12.7,4.7 C11.5,1 11.3,-0.1 10.4,-4.5"/>
<path class="Note" transform="matrix(2.3811,0,0,2.3811,1979.4,1510.87)" d="M18.7,-13.6 C4.9,-13.6 0,-6.6 0,-0.1 C0,6.4 4.9,13.4 18.7,13.4 C32.5,13.4 37.3,6.4 37.3,-0.1 C37.3,-6.6 32.5,-13.6 18.7,-13.6 M10.4,-4.5 C10.3,-4.9 10.3,-5.3 10.3,-5.7 C10.3,-6.5 10.5,-7.3 10.9,-8 C11.6,-9 12.8,-9.7 14.3,-10 C15.6,-10.3 16.3,-10.5 18.9,-10.5 L19,-10.5 C23,-10.5 24.3,-6.8 25.4,-3 L25.7,-2 C26.5,0.6 26.9,2.8 26.9,4.5 C26.9,5.7 26.7,6.8 26.3,7.6 C25.7,8.7 24.7,9.4 23,9.8 C22.1,10 20.6,10.1 20.6,10.1 C20.1,10.1 19.7,10.2 19.3,10.2 C16.1,10.2 14.1,9 12.7,4.7 C11.5,1 11.3,-0.1 10.4,-4.5"/>
<path class="Note" transform="matrix(2.3811,0,0,2.3811,1979.4,1391.81)" d="M18.7,-13.6 C4.9,-13.6 0,-6.6 0,-0.1 C0,6.4 4.9,13.4 18.7,13.4 C32.5,13.4 37.3,6.4 37.3,-0.1 C37.3,-6.6 32.5,-13.6 18.7,-13.6 M10.4,-4.5 C10.3,-4.9 10.3,-5.3 10.3,-5.7 C10.3,-6.5 10.5,-7.3 10.9,-8 C11.6,-9 12.8,-9.7 14.3,-10 C15.6,-10.3 16.3,-10.5 18.9,-10.5 L19,-10.5 C23,-10.5 24.3,-6.8 25.4,-3 L25.7,-2 C26.5,0.6 26.9,2.8 26.9,4.5 C26.9,5.7 26.7,6.8 26.3,7.6 C25.7,8.7 24.7,9.4 23,9.8 C22.1,10 20.6,10.1 20.6,10.1 C20.1,10.1 19.7,10.2 19.3,10.2 C16.1,10.2 14.1,9 12.7,4.7 C11.5,1 11.3,-0.1 10.4,-4.5"/>
<path class="Note" transform="matrix(2.3811,0,0,2.3811,2433.73,1570.39)" d="M18.7,-13.6 C4.9,-13.6 0,-6.6 0,-0.1 C0,6.4 4.9,13.4 18.7,13.4 C32.5,13.4 37.3,6.4 37.3,-0.1 C37.3,-6.6 32.5,-13.6 18.7,-13.6 M10.4,-4.5 C10.3,-4.9 10.3,-5.3 10.3,-5.7 C10.3,-6.5 10.5,-7.3 10.9,-8 C11.6,-9 12.8,-9.7 14.3,-10 C15.6,-10.3 16.3,-10.5 18.9,-10.5 L19,-10.5 C23,-10.5 24.3,-6.8 25.4,-3 L25.7,-2 C26.5,0.6 26.9,2.8 26.9,4.5 C26.9,5.7 26.7,6.8 26.3,7.6 C25.7,8.7 24.7,9.4 23,9.8 C22.1,10 20.6,10.1 20.6,10.1 C20.1,10.1 19.7,10.2 19.3,10.2 C16.1,10.2 14.1,9 12.7,4.7 C11.5,1 11.3,-0.1 10.4,-4.5"/>
<path class="Note" transform="matrix(2.3811,0,0,2.3811,2433.73,1510.87)" d="M18.7,-13.6 C4.9,-13.6 0,-6.6 0,-0.1 C0,6.4 4.9,13.4 18.7,13.4 C32.5,13.4 37.3,6.4 37.3,-0.1 C37.3,-6.6 32.5,-13.6 18.7,-13.6 M10.4,-4.5 C10.3,-4.9 10.3,-5.3 10.3,-5.7 C10.3,-6.5 10.5,-7.3 10.9,-8 C11.6,-9 12.8,-9.7 14.3,-10 C15.6,-10.3 16.3,-10.5 18.9,-10.5 L19,-10.5 C23,-10.5 24.3,-6.8 25.4,-3 L25.7,-2 C26.5,0.6 26.9,2.8 26.9,4.5 C26.9,5.7 26.7,6.8 26.3,7.6 C25.7,8.7 24.7,9.4 23,9.8 C22.1,10 20.6,10.1 20.6,10.1 C20.1,10.1 19.7,10.2 19.3,10.2 C16.1,10.2 14.1,9 12.7,4.7 C11.5,1 11.3,-0.1 10.4,-4.5"/>
<path class="Note" transform="matrix(2.3811,0,0,2.3811,2433.73,1421.57)" d="M18.7,-13.6 C4.9,-13.6 0,-6.6 0,-0.1 C0,6.4 4.9,13.4 18.7,13.4 C32.5,13.4 37.3,6.4 37.3,-0.1 C37.3,-6.6 32.5,-13.6 18.7,-13.6 M10.4,-4.5 C10.3,-4.9 10.3,-5.3 10.3,-5.7 C10.3,-6.5 10.5,-7.3 10.9,-8 C11.6,-9 12.8,-9.7 14.3,-10 C15.6,-10.3 16.3,-10.5 18.9,-10.5 L19,-10.5 C23,-10.5 24.3,-6.8 25.4,-3 L25.7,-2 C26.5,0.6 26.9,2.8 26.9,4.5 C26.9,5.7 26.7,6.8 26.3,7.6 C25.7,8.7 24.7,9.4 23,9.8 C22.1,10 20.6,10.1 20.6,10.1 C20.1,10.1 19.7,10.2 19.3,10.2 C16.1,10.2 14.1,9 12.7,4.7 C11.5,1 11.3,-0.1 10.4,-4.5"/>
<path class="Note" transform="matrix(2.3811,0,0,2.3811,2888.07,1540.63)" d="M18.7,-13.6 C4.9,-13.6 0,-6.6 0,-0.1 C0,6.4 4.9,13.4 18.7,13.4 C32.5,13.4 37.3,6.4 37.3,-0.1 C37.3,-6.6 32.5,-13.6 18.7,-13.6 M10.4,-4.5 C10.3,-4.9 10.3,-5.3 10.3,-5.7 C10.3,-6.5 10.5,-7.3 10.9,-8 C11.6,-9 12.8,-9.7 14.3,-10 C15.6,-10.3 16.3,-10.5 18.9,-10.5 L19,-10.5 C23,-10.5 24.3,-6.8 25.4,-3 L25.7,-2 C26.5,0.6 26.9,2.8 26.9,4.5 C26.9,5.7 26.7,6.8 26.3,7.6 C25.7,8.7 24.7,9.4 23,9.8 C22.1,10 20.6,10.1 20.6,10.1 C20.1,10.1 19.7,10.2 19.3,10.2 C16.1,10.2 14.1,9 12.7,4.7 C11.5,1 11.3,-0.1 10.4,-4.5"/>
<path class="Note" transform="matrix(2.3811,0,0,2.3811,2888.07,1451.34)" d="M18.7,-13.6 C4.9,-13.6 0,-6.6 0,-0.1 C0,6.4 4.9,13.4 18.7,13.4 C32.5,13.4 37.3,6.4 37.3,-0.1 C37.3,-6.6 32.5,-13.6 18.7,-13.6 M10.4,-4.5 C10.3,-4.9 10.3,-5.3 10.3,-5.7 C10.3,-6.5 10.5,-7.3 10.9,-8 C11.6,-9 12.8,-9.7 14.3,-10 C15.6,-10.3 16.3,-10.5 18.9,-10.5 L19,-10.5 C23,-10.5 24.3,-6.8 25.4,-3 L25.7,-2 C26.5,0.6 26.9,2.8 26.9,4.5 C26.9,5.7 26.7,6.8 26.3,7.6 C25.7,8.7 24.7,9.4 23,9.8 C22.1,10 20.6,10.1 20.6,10.1 C20.1,10.1 19.7,10.2 19.3,10.2 C16.1,10.2 14.1,9 12.7,4.7 C11.5,1 11.3,-0.1 10.4,-4.5"/>
<path class="Note" transform="matrix(2.3811,0,0,2.3811,3355.09,1510.87)" d="M18.7,-13.6 C4.9,-13.6 0,-6.6 0,-0.1 C0,6.4 4.9,13.4 18.7,13.4 C32.5,13.4 37.3,6.4 37.3,-0.1 C37.3,-6.6 32.5,-13.6 18.7,-13.6 M10.4,-4.5 C10.3,-4.9 10.3,-5.3 10.3,-5.7 C10.3,-6.5 10.5,-7.3 10.9,-8 C11.6,-9 12.8,-9.7 14.3,-10 C15.6,-10.3 16.3,-10.5 18.9,-10.5 L19,-10.5 C23,-10.5 24.3,-6.8 25.4,-3 L25.7,-2 C26.5,0.6 26.9,2.8 26.9,4.5 C26.9,5.7 26.7,6.8 26.3,7.6 C25.7,8.7 24.7,9.4 23,9.8 C22.1,10 20.6,10.1 20.6,10.1 C20.1,10.1 19.7,10.2 19.3,10.2 C16.1,10.2 14.1,9 12.7,4.7 C11.5,1 11.3,-0.1 10.4,-4.5"/>
<path class="Note" transform="matrix(2.3811,0,0,2.3811,3272.83,1451.34)" d="M18.7,-13.6 C4.9,-13.6 0,-6.6 0,-0.1 C0,6.4 4.9,13.4 18.7,13.4 C32.5,13.4 37.3,6.4 37.3,-0.1 C37.3,-6.6 32.5,-13.6 18.7,-13.6 M10.4,-4.5 C10.3,-4.9 10.3,-5.3 10.3,-5.7 C10.3,-6.5 10.5,-7.3 10.9,-8 C11.6,-9 12.8,-9.7 14.3,-10 C15.6,-10.3 16.3,-10.5 18.9,-10.5 L19,-10.5 C23,-10.5 24.3,-6.8 25.4,-3 L25.7,-2 C26.5,0.6 26.9,2.8 26.9,4.5 C26.9,5.7 26.7,6.8 26.3,7.6 C25.7,8.7 24.7,9.4 23,9.8 C22.1,10 20.6,10.1 20.6,10.1 C20.1,10.1 19.7,10.2 19.3,10.2 C16.1,10.2 14.1,9 12.7,4.7 C11.5,1 11.3,-0.1 10.4,-4.5"/>
<path class="Note" transform="matrix(2.3811,0,0,2.3811,3355.09,1421.57)" d="M18.7,-13.6 C4.9,-13.6 0,-6.6 0,-0.1 C0,6.4 4.9,13.4 18.7,13.4 C32.5,13.4 37.3,6.4 37.3,-0.1 C37.3,-6.6 32.5,-13.6 18.7,-13.6 M10.4,-4.5 C10.3,-4.9 10.3,-5.3 10.3,-5.7 C10.3,-6.5 10.5,-7.3 10.9,-8 C11.6,-9 12.8,-9.7 14.3,-10 C15.6,-10.3 16.3,-10.5 18.9,-10.5 L19,-10.5 C23,-10.5 24.3,-6.8 25.4,-3 L25.7,-2 C26.5,0.6 26.9,2.8 26.9,4.5 C26.9,5.7 26.7,6.8 26.3,7.6 C25.7,8.7 24.7,9.4 23,9.8 C22.1,10 20.6,10.1 20.6,10.1 C20.1,10.1 19.7,10.2 19.3,10.2 C16.1,10.2 14.1,9 12.7,4.7 C11.5,1 11.3,-0.1 10.4,-4.5"/>
<path class="Note" transform="matrix(2.3811,0,0,2.3811,3762.04,1540.63)" d="M18.7,-13.6 C4.9,-13.6 0,-6.6 0,-0.1 C0,6.4 4.9,13.4 18.7,13.4 C32.5,13.4 37.3,6.4 37.3,-0.1 C37.3,-6.6 32.5,-13.6 18.7,-13.6 M10.4,-4.5 C10.3,-4.9 10.3,-5.3 10.3,-5.7 C10.3,-6.5 10.5,-7.3 10.9,-8 C11.6,-9 12.8,-9.7 14.3,-10 C15.6,-10.3 16.3,-10.5 18.9,-10.5 L19,-10.5 C23,-10.5 24.3,-6.8 25.4,-3 L25.7,-2 C26.5,0.6 26.9,2.8 26.9,4.5 C26.9,5.7 26.7,6.8 26.3,7.6 C25.7,8.7 24.7,9.4 23,9.8 C22.1,10 20.6,10.1 20.6,10.1 C20.1,10.1 19.7,10.2 19.3,10.2 C16.1,10.2 14.1,9 12.7,4.7 C11.5,1 11.3,-0.1 10.4,-4.5"/>
<path class="Note" transform="matrix(2.3811,0,0,2.3811,3762.04,1481.1)" d="M18.7,-13.6 C4.9,-13.6 0,-6.6 0,-0.1 C0,6.4 4.9,13.4 18.7,13.4 C32.5,13.4 37.3,6.4 37.3,-0.1 C37.3,-6.6 32.5,-13.6 18.7,-13.6 M10.4,-4.5 C10.3,-4.9 10.3,-5.3 10.3,-5.7 C10.3,-6.5 10.5,-7.3 10.9,-8 C11.6,-9 12.8,-9.7 14.3,-10 C15.6,-10.3 16.3,-10.5 18.9,-10.5 L19,-10.5 C23,-10.5 24.3,-6.8 25.4,-3 L25.7,-2 C26.5,0.6 26.9,2.8 26.9,4.5 C26.9,5.7 26.7,6.8 26.3,7.6 C25.7,8.7 24.7,9.4 23,9.8 C22.1,10 20.6,10.1 20.6,10.1 C20.1,10.1 19.7,10.2 19.3,10.2 C16.1,10.2 14.1,9 12.7,4.7 C11.5,1 11.3,-0.1 10.4,-4.5"/>
<path class="Note" transform="matrix(2.3811,0,0,2.3811,3762.04,1421.57)" d="M18.7,-13.6 C4.9,-13.6 0,-6.6 0,-0.1 C0,6.4 4.9,13.4 18.7,13.4 C32.5,13.4 37.3,6.4 37.3,-0.1 C37.3,-6.6 32.5,-13.6 18.7,-13.6 M10.4,-4.5 C10.3,-4.9 10.3,-5.3 10.3,-5.7 C10.3,-6.5 10.5,-7.3 10.9,-8 C11.6,-9 12.8,-9.7 14.3,-10 C15.6,-10.3 16.3,-10.5 18.9,-10.5 L19,-10.5 C23,-10.5 24.3,-6.8 25.4,-3 L25.7,-2 C26.5,0.6 26.9,2.8 26.9,4.5 C26.9,5.7 26.7,6.8 26.3,7.6 C25.7,8.7 24.7,9.4 23,9.8 C22.1,10 20.6,10.1 20.6,10.1 C20.1,10.1 19.7,10.2 19.3,10.2 C16.1,10.2 14.1,9 12.7,4.7 C11.5,1 11.3,-0.1 10.4,-4.5"/>
<path class="Note" d="M597.895,941.13 C602.466,941.13 604.752,943.997 604.752,949.73 C604.752,953.758 602.234,959.763 597.198,967.742 C593.17,974.173 591.155,980.448 591.155,986.568 C591.155,990.055 596.23,991.798 606.379,991.798 C614.746,991.798 626.406,987.266 641.358,978.201 C626.328,992.689 613.274,999.933 602.195,999.933 C592.201,999.933 585.228,998.422 581.277,995.401 C580.27,994.626 579.418,993.696 578.721,992.611 C574.847,997.337 568.378,999.7 559.313,999.7 C550.636,999.7 543.974,997.918 539.325,994.355 C536.226,991.953 534.677,988.118 534.677,982.85 C534.677,974.483 539.635,965.341 549.552,955.424 C560.166,944.81 572.445,939.503 586.391,939.503 C589.877,939.503 592.433,940.781 594.06,943.338 C595.378,941.866 596.656,941.13 597.895,941.13 M577.094,987.382 C577.016,986.762 576.977,986.142 576.977,985.523 C576.977,985.213 580.929,974.405 588.831,953.1 C589.606,951.008 590.38,949.226 591.155,947.754 C588.134,947.134 585.151,946.824 582.207,946.824 C576.784,946.824 569.579,951.434 560.592,960.653 C552.534,968.866 548.506,975.955 548.506,981.92 C548.506,988.505 551.643,991.798 557.919,991.798 C565.511,991.798 571.903,990.326 577.094,987.382"/>
<path class="Note" d="M612.77,561.187 C617.109,558.243 620.247,555.803 622.183,553.866 C625.747,550.07 627.529,546.583 627.529,543.407 C627.529,539.766 625.515,537.945 621.486,537.945 C613.661,537.945 605.294,544.84 596.385,558.631 C593.673,562.814 587.708,576.45 578.488,599.537 C585.848,607.129 589.528,611.429 589.528,612.436 C589.528,613.831 588.637,614.528 586.855,614.528 C585.461,614.528 581.626,612.165 575.35,607.439 C568.533,623.321 558.19,636.879 544.322,648.113 C530.144,659.579 513.216,665.312 493.538,665.312 C486.023,665.312 476.61,663.569 465.299,660.083 C456.234,657.294 451.702,652.839 451.702,646.719 C451.702,637.654 455.188,633.122 462.161,633.122 C466.345,633.122 468.436,635.059 468.436,638.932 C468.436,640.172 467.468,641.489 465.531,642.884 C464.524,643.581 464.02,644.937 464.02,646.951 C464.02,649.353 466.693,651.832 472.039,654.388 C477.85,657.178 486.372,658.572 497.605,658.572 C512.093,658.572 526.077,652.297 539.558,639.746 C551.798,628.357 560.592,615.109 565.937,600.002 C563.846,598.297 561.599,596.438 559.197,594.424 C551.76,590.008 548.041,585.475 548.041,580.827 C548.041,578.89 549.319,577.922 551.876,577.922 C555.285,577.922 559.894,580.827 565.705,586.638 C566.945,587.877 568.107,589.039 569.191,590.124 C571.903,582.686 576.241,573.235 582.207,561.768 C592.976,541.005 606.069,530.624 621.486,530.624 C626.987,530.624 631.325,531.67 634.502,533.762 C637.678,535.853 639.267,538.72 639.267,542.361 C639.267,548.172 637.136,553.091 632.875,557.12 C628.459,561.304 623.849,563.395 619.046,563.395 C614.862,563.395 612.77,562.659 612.77,561.187"/>
<path class="Note" d="M612.77,739.77 C617.109,736.826 620.247,734.386 622.183,732.449 C625.747,728.652 627.529,725.166 627.529,721.99 C627.529,718.348 625.515,716.528 621.486,716.528 C613.661,716.528 605.294,723.423 596.385,737.213 C593.673,741.397 587.708,755.032 578.488,778.12 C585.848,785.712 589.528,790.012 589.528,791.019 C589.528,792.414 588.637,793.111 586.855,793.111 C585.461,793.111 581.626,790.748 575.35,786.022 C568.533,801.904 558.19,815.462 544.322,826.696 C530.144,838.162 513.216,843.895 493.538,843.895 C486.023,843.895 476.61,842.152 465.299,838.666 C456.234,835.876 451.702,831.422 451.702,825.301 C451.702,816.237 455.188,811.705 462.161,811.705 C466.345,811.705 468.436,813.641 468.436,817.515 C468.436,818.755 467.468,820.072 465.531,821.466 C464.524,822.164 464.02,823.519 464.02,825.534 C464.02,827.935 466.693,830.415 472.039,832.971 C477.85,835.76 486.372,837.155 497.605,837.155 C512.093,837.155 526.077,830.879 539.558,818.329 C551.798,806.94 560.592,793.692 565.937,778.584 C563.846,776.88 561.599,775.021 559.197,773.006 C551.76,768.59 548.041,764.058 548.041,759.41 C548.041,757.473 549.319,756.504 551.876,756.504 C555.285,756.504 559.894,759.41 565.705,765.22 C566.945,766.46 568.107,767.622 569.191,768.707 C571.903,761.269 576.241,751.817 582.207,740.351 C592.976,719.588 606.069,709.207 621.486,709.207 C626.987,709.207 631.325,710.252 634.502,712.344 C637.678,714.436 639.267,717.303 639.267,720.944 C639.267,726.754 637.136,731.674 632.875,735.703 C628.459,739.886 623.849,741.978 619.046,741.978 C614.862,741.978 612.77,741.242 612.77,739.77"/>
<path class="Note" d="M612.77,650.479 C617.109,647.535 620.247,645.094 622.183,643.157 C625.747,639.361 627.529,635.875 627.529,632.698 C627.529,629.057 625.515,627.236 621.486,627.236 C613.661,627.236 605.294,634.132 596.385,647.922 C593.673,652.106 587.708,665.741 578.488,688.828 C585.848,696.421 589.528,700.721 589.528,701.728 C589.528,703.122 588.637,703.819 586.855,703.819 C585.461,703.819 581.626,701.457 575.35,696.731 C568.533,712.613 558.19,726.171 544.322,737.404 C530.144,748.871 513.216,754.604 493.538,754.604 C486.023,754.604 476.61,752.86 465.299,749.374 C456.234,746.585 451.702,742.13 451.702,736.01 C451.702,726.945 455.188,722.413 462.161,722.413 C466.345,722.413 468.436,724.35 468.436,728.224 C468.436,729.463 467.468,730.78 465.531,732.175 C464.524,732.872 464.02,734.228 464.02,736.242 C464.02,738.644 466.693,741.123 472.039,743.68 C477.85,746.469 486.372,747.863 497.605,747.863 C512.093,747.863 526.077,741.588 539.558,729.037 C551.798,717.649 560.592,704.401 565.937,689.293 C563.846,687.589 561.599,685.729 559.197,683.715 C551.76,679.299 548.041,674.767 548.041,670.118 C548.041,668.181 549.319,667.213 551.876,667.213 C555.285,667.213 559.894,670.118 565.705,675.929 C566.945,677.168 568.107,678.331 569.191,679.415 C571.903,671.978 576.241,662.526 582.207,651.06 C592.976,630.297 606.069,619.915 621.486,619.915 C626.987,619.915 631.325,620.961 634.502,623.053 C637.678,625.145 639.267,628.011 639.267,631.652 C639.267,637.463 637.136,642.383 632.875,646.411 C628.459,650.595 623.849,652.687 619.046,652.687 C614.862,652.687 612.77,651.951 612.77,650.479"/>
<path class="Note" d="M1171.09,616.271 C1164.74,626.265 1154.71,634.555 1140.99,641.14 C1129.06,646.874 1117.91,649.74 1107.52,649.74 C1099.23,649.74 1092.34,648.074 1086.84,644.743 C1080.87,641.102 1077.89,636.763 1077.89,631.727 C1077.89,620.339 1080.87,610.538 1086.84,602.326 C1094.97,591.17 1103.19,585.592 1111.47,585.592 C1117.36,585.592 1121.55,586.754 1124.03,589.078 C1127.43,592.099 1129.14,596.244 1129.14,601.513 C1129.14,608.95 1123.6,615.419 1112.52,620.92 C1101.75,626.265 1094.28,629.752 1090.09,631.379 C1091.02,633.316 1092.22,635.059 1093.69,636.608 C1097.34,640.482 1102.29,642.419 1108.57,642.419 C1116.47,642.419 1127.09,639.513 1140.41,633.703 C1153.19,628.047 1163.42,622.237 1171.09,616.271 M1088.47,626.033 C1094.28,623.089 1099.58,619.641 1104.39,615.69 C1111.51,609.88 1115.08,603.604 1115.08,596.864 C1115.08,593.068 1113.33,591.17 1109.85,591.17 C1106.9,591.17 1102.88,594.54 1097.76,601.28 C1091.33,609.647 1088.12,616.465 1088.12,621.733 C1088.12,623.205 1088.23,624.638 1088.47,626.033"/>
<path class="Note" d="M1171.09,794.854 C1164.74,804.848 1154.71,813.138 1140.99,819.723 C1129.06,825.456 1117.91,828.323 1107.52,828.323 C1099.23,828.323 1092.34,826.657 1086.84,823.326 C1080.87,819.684 1077.89,815.346 1077.89,810.31 C1077.89,798.921 1080.87,789.121 1086.84,780.909 C1094.97,769.752 1103.19,764.174 1111.47,764.174 C1117.36,764.174 1121.55,765.336 1124.03,767.661 C1127.43,770.682 1129.14,774.827 1129.14,780.095 C1129.14,787.533 1123.6,794.002 1112.52,799.502 C1101.75,804.848 1094.28,808.334 1090.09,809.961 C1091.02,811.898 1092.22,813.641 1093.69,815.191 C1097.34,819.065 1102.29,821.001 1108.57,821.001 C1116.47,821.001 1127.09,818.096 1140.41,812.286 C1153.19,806.63 1163.42,800.819 1171.09,794.854 M1088.47,804.616 C1094.28,801.672 1099.58,798.224 1104.39,794.273 C1111.51,788.462 1115.08,782.187 1115.08,775.447 C1115.08,771.651 1113.33,769.752 1109.85,769.752 C1106.9,769.752 1102.88,773.123 1097.76,779.863 C1091.33,788.23 1088.12,795.048 1088.12,800.316 C1088.12,801.788 1088.23,803.221 1088.47,804.616"/>
<path class="Note" d="M1150.17,471.896 C1154.51,468.952 1157.65,466.512 1159.59,464.575 C1163.15,460.778 1164.93,457.292 1164.93,454.116 C1164.93,450.474 1162.92,448.654 1158.89,448.654 C1151.06,448.654 1142.7,455.549 1133.79,469.339 C1131.08,473.523 1125.11,487.158 1115.89,510.246 C1123.25,517.838 1126.93,522.138 1126.93,523.145 C1126.93,524.54 1126.04,525.237 1124.26,525.237 C1122.86,525.237 1119.03,522.874 1112.75,518.148 C1105.94,534.03 1095.59,547.588 1081.72,558.822 C1067.55,570.288 1050.62,576.021 1030.94,576.021 C1023.43,576.021 1014.01,574.278 1002.7,570.791 C993.637,568.002 989.105,563.548 989.105,557.427 C989.105,548.363 992.591,543.831 999.564,543.831 C1003.75,543.831 1005.84,545.767 1005.84,549.641 C1005.84,550.881 1004.87,552.198 1002.93,553.592 C1001.93,554.29 1001.42,555.645 1001.42,557.66 C1001.42,560.061 1004.1,562.541 1009.44,565.097 C1015.25,567.886 1023.77,569.281 1035.01,569.281 C1049.5,569.281 1063.48,563.005 1076.96,550.455 C1089.2,539.066 1097.99,525.818 1103.34,510.71 C1101.25,509.006 1099,507.147 1096.6,505.132 C1089.16,500.716 1085.44,496.184 1085.44,491.536 C1085.44,489.599 1086.72,488.63 1089.28,488.63 C1092.69,488.63 1097.3,491.536 1103.11,497.346 C1104.35,498.586 1105.51,499.748 1106.59,500.832 C1109.31,493.395 1113.64,483.943 1119.61,472.477 C1130.38,451.714 1143.47,441.332 1158.89,441.332 C1164.39,441.332 1168.73,442.378 1171.9,444.47 C1175.08,446.562 1176.67,449.429 1176.67,453.07 C1176.67,458.88 1174.54,463.8 1170.28,467.829 C1165.86,472.012 1161.25,474.104 1156.45,474.104 C1152.26,474.104 1150.17,473.368 1150.17,471.896"/>
<path class="Note" d="M1150.17,650.479 C1154.51,647.535 1157.65,645.094 1159.59,643.157 C1163.15,639.361 1164.93,635.875 1164.93,632.698 C1164.93,629.057 1162.92,627.236 1158.89,627.236 C1151.06,627.236 1142.7,634.132 1133.79,647.922 C1131.08,652.106 1125.11,665.741 1115.89,688.828 C1123.25,696.421 1126.93,700.721 1126.93,701.728 C1126.93,703.122 1126.04,703.819 1124.26,703.819 C1122.86,703.819 1119.03,701.457 1112.75,696.731 C1105.94,712.613 1095.59,726.171 1081.72,737.404 C1067.55,748.871 1050.62,754.604 1030.94,754.604 C1023.43,754.604 1014.01,752.86 1002.7,749.374 C993.637,746.585 989.105,742.13 989.105,736.01 C989.105,726.945 992.591,722.413 999.564,722.413 C1003.75,722.413 1005.84,724.35 1005.84,728.224 C1005.84,729.463 1004.87,730.78 1002.93,732.175 C1001.93,732.872 1001.42,734.228 1001.42,736.242 C1001.42,738.644 1004.1,741.123 1009.44,743.68 C1015.25,746.469 1023.77,747.863 1035.01,747.863 C1049.5,747.863 1063.48,741.588 1076.96,729.037 C1089.2,717.649 1097.99,704.401 1103.34,689.293 C1101.25,687.589 1099,685.729 1096.6,683.715 C1089.16,679.299 1085.44,674.767 1085.44,670.118 C1085.44,668.181 1086.72,667.213 1089.28,667.213 C1092.69,667.213 1097.3,670.118 1103.11,675.929 C1104.35,677.168 1105.51,678.331 1106.59,679.415 C1109.31,671.978 1113.64,662.526 1119.61,651.06 C1130.38,630.297 1143.47,619.915 1158.89,619.915 C1164.39,619.915 1168.73,620.961 1171.9,623.053 C1175.08,625.145 1176.67,628.011 1176.67,631.652 C1176.67,637.463 1174.54,642.383 1170.28,646.411 C1165.86,650.595 1161.25,652.687 1156.45,652.687 C1152.26,652.687 1150.17,651.951 1150.17,650.479"/>
<path class="Note" d="M1431.17,945.081 C1431.48,933.383 1437.95,923.001 1450.57,913.937 C1461.81,905.879 1474.09,901.851 1487.41,901.851 C1506.08,901.851 1522.55,909.172 1536.8,923.815 C1545.87,933.189 1550.4,944.81 1550.4,958.678 C1550.4,971.151 1547.07,980.719 1540.41,987.382 C1532.27,995.594 1523.67,999.7 1514.61,999.7 C1508.41,999.7 1503.6,998.306 1500.2,995.517 C1494.62,990.946 1491.83,984.825 1491.83,977.155 C1491.83,967.239 1496.79,958.174 1506.7,949.962 C1514.84,943.222 1523.01,938.806 1531.22,936.714 C1529.06,932.995 1526.3,929.509 1522.97,926.255 C1512.59,916.106 1500.82,911.031 1487.65,911.031 C1473.93,911.031 1462.58,914.014 1453.6,919.98 C1444.3,926.1 1436.82,934.467 1431.17,945.081 M1534.13,942.873 C1529.87,946.824 1525.61,951.047 1521.35,955.54 C1512.98,964.372 1508.8,972.739 1508.8,980.642 C1508.8,989.086 1510.73,993.309 1514.61,993.309 C1518.09,993.309 1522.97,988.544 1529.25,979.015 C1534.28,971.422 1536.8,964.45 1536.8,958.097 C1536.8,952.674 1535.91,947.599 1534.13,942.873"/>
<path class="Note" d="M1557.13,561.187 C1561.47,558.243 1564.61,555.803 1566.54,553.866 C1570.11,550.07 1571.89,546.583 1571.89,543.407 C1571.89,539.766 1569.87,537.945 1565.85,537.945 C1558.02,537.945 1549.65,544.84 1540.74,558.631 C1538.03,562.814 1532.07,576.45 1522.85,599.537 C1530.21,607.129 1533.89,611.429 1533.89,612.436 C1533.89,613.831 1533,614.528 1531.22,614.528 C1529.82,614.528 1525.99,612.165 1519.71,607.439 C1512.89,623.321 1502.55,636.879 1488.68,648.113 C1474.5,659.579 1457.58,665.312 1437.9,665.312 C1430.38,665.312 1420.97,663.569 1409.66,660.083 C1400.59,657.294 1396.06,652.839 1396.06,646.719 C1396.06,637.654 1399.55,633.122 1406.52,633.122 C1410.7,633.122 1412.8,635.059 1412.8,638.932 C1412.8,640.172 1411.83,641.489 1409.89,642.884 C1408.88,643.581 1408.38,644.937 1408.38,646.951 C1408.38,649.353 1411.05,651.832 1416.4,654.388 C1422.21,657.178 1430.73,658.572 1441.97,658.572 C1456.45,658.572 1470.44,652.297 1483.92,639.746 C1496.16,628.357 1504.95,615.109 1510.3,600.002 C1508.21,598.297 1505.96,596.438 1503.56,594.424 C1496.12,590.008 1492.4,585.475 1492.4,580.827 C1492.4,578.89 1493.68,577.922 1496.24,577.922 C1499.64,577.922 1504.25,580.827 1510.06,586.638 C1511.3,587.877 1512.47,589.039 1513.55,590.124 C1516.26,582.686 1520.6,573.235 1526.57,561.768 C1537.34,541.005 1550.43,530.624 1565.85,530.624 C1571.35,530.624 1575.69,531.67 1578.86,533.762 C1582.04,535.853 1583.63,538.72 1583.63,542.361 C1583.63,548.172 1581.5,553.091 1577.23,557.12 C1572.82,561.304 1568.21,563.395 1563.41,563.395 C1559.22,563.395 1557.13,562.659 1557.13,561.187"/>
<path class="Note" d="M1557.13,739.77 C1561.47,736.826 1564.61,734.386 1566.54,732.449 C1570.11,728.652 1571.89,725.166 1571.89,721.99 C1571.89,718.348 1569.87,716.528 1565.85,716.528 C1558.02,716.528 1549.65,723.423 1540.74,737.213 C1538.03,741.397 1532.07,755.032 1522.85,778.12 C1530.21,785.712 1533.89,790.012 1533.89,791.019 C1533.89,792.414 1533,793.111 1531.22,793.111 C1529.82,793.111 1525.99,790.748 1519.71,786.022 C1512.89,801.904 1502.55,815.462 1488.68,826.696 C1474.5,838.162 1457.58,843.895 1437.9,843.895 C1430.38,843.895 1420.97,842.152 1409.66,838.666 C1400.59,835.876 1396.06,831.422 1396.06,825.301 C1396.06,816.237 1399.55,811.705 1406.52,811.705 C1410.7,811.705 1412.8,813.641 1412.8,817.515 C1412.8,818.755 1411.83,820.072 1409.89,821.466 C1408.88,822.164 1408.38,823.519 1408.38,825.534 C1408.38,827.935 1411.05,830.415 1416.4,832.971 C1422.21,835.76 1430.73,837.155 1441.97,837.155 C1456.45,837.155 1470.44,830.879 1483.92,818.329 C1496.16,806.94 1504.95,793.692 1510.3,778.584 C1508.21,776.88 1505.96,775.021 1503.56,773.006 C1496.12,768.59 1492.4,764.058 1492.4,759.41 C1492.4,757.473 1493.68,756.504 1496.24,756.504 C1499.64,756.504 1504.25,759.41 1510.06,765.22 C1511.3,766.46 1512.47,767.622 1513.55,768.707 C1516.26,761.269 1520.6,751.817 1526.57,740.351 C1537.34,719.588 1550.43,709.207 1565.85,709.207 C1571.35,709.207 1575.69,710.252 1578.86,712.344 C1582.04,714.436 1583.63,717.303 1583.63,720.944 C1583.63,726.754 1581.5,731.674 1577.23,735.703 C1572.82,739.886 1568.21,741.978 1563.41,741.978 C1559.22,741.978 1557.13,741.242 1557.13,739.77"/>
<path class="Note" d="M1557.13,650.479 C1561.47,647.535 1564.61,645.094 1566.54,643.157 C1570.11,639.361 1571.89,635.875 1571.89,632.698 C1571.89,629.057 1569.87,627.236 1565.85,627.236 C1558.02,627.236 1549.65,634.132 1540.74,647.922 C1538.03,652.106 1532.07,665.741 1522.85,688.828 C1530.21,696.421 1533.89,700.721 1533.89,701.728 C1533.89,703.122 1533,703.819 1531.22,703.819 C1529.82,703.819 1525.99,701.457 1519.71,696.731 C1512.89,712.613 1502.55,726.171 1488.68,737.404 C1474.5,748.871 1457.58,754.604 1437.9,754.604 C1430.38,754.604 1420.97,752.86 1409.66,749.374 C1400.59,746.585 1396.06,742.13 1396.06,736.01 C1396.06,726.945 1399.55,722.413 1406.52,722.413 C1410.7,722.413 1412.8,724.35 1412.8,728.224 C1412.8,729.463 1411.83,730.78 1409.89,732.175 C1408.88,732.872 1408.38,734.228 1408.38,736.242 C1408.38,738.644 1411.05,741.123 1416.4,743.68 C1422.21,746.469 1430.73,747.863 1441.97,747.863 C1456.45,747.863 1470.44,741.588 1483.92,729.037 C1496.16,717.649 1504.95,704.401 1510.3,689.293 C1508.21,687.589 1505.96,685.729 1503.56,683.715 C1496.12,679.299 1492.4,674.767 1492.4,670.118 C1492.4,668.181 1493.68,667.213 1496.24,667.213 C1499.64,667.213 1504.25,670.118 1510.06,675.929 C1511.3,677.168 1512.47,678.331 1513.55,679.415 C1516.26,671.978 1520.6,662.526 1526.57,651.06 C1537.34,630.297 1550.43,619.915 1565.85,619.915 C1571.35,619.915 1575.69,620.961 1578.86,623.053 C1582.04,625.145 1583.63,628.011 1583.63,631.652 C1583.63,637.463 1581.5,642.383 1577.23,646.411 C1572.82,650.595 1568.21,652.687 1563.41,652.687 C1559.22,652.687 1557.13,651.951 1557.13,650.479"/>
<path class="Note" d="M2073.09,918.353 C2077.43,915.409 2080.57,912.968 2082.5,911.031 C2086.07,907.235 2087.85,903.749 2087.85,900.572 C2087.85,896.931 2085.83,895.11 2081.81,895.11 C2073.98,895.11 2065.61,902.006 2056.7,915.796 C2053.99,919.98 2048.03,933.615 2038.81,956.702 C2046.17,964.295 2049.85,968.595 2049.85,969.602 C2049.85,970.996 2048.96,971.693 2047.17,971.693 C2045.78,971.693 2041.95,969.331 2035.67,964.605 C2028.85,980.487 2018.51,994.045 2004.64,1005.28 C1990.46,1016.74 1973.54,1022.48 1953.86,1022.48 C1946.34,1022.48 1936.93,1020.73 1925.62,1017.25 C1916.55,1014.46 1912.02,1010 1912.02,1003.88 C1912.02,994.819 1915.51,990.287 1922.48,990.287 C1926.66,990.287 1928.76,992.224 1928.76,996.098 C1928.76,997.337 1927.79,998.654 1925.85,1000.05 C1924.84,1000.75 1924.34,1002.1 1924.34,1004.12 C1924.34,1006.52 1927.01,1009 1932.36,1011.55 C1938.17,1014.34 1946.69,1015.74 1957.92,1015.74 C1972.41,1015.74 1986.4,1009.46 1999.88,996.911 C2012.12,985.523 2020.91,972.275 2026.26,957.167 C2024.17,955.463 2021.92,953.603 2019.52,951.589 C2012.08,947.173 2008.36,942.641 2008.36,937.992 C2008.36,936.055 2009.64,935.087 2012.2,935.087 C2015.6,935.087 2020.21,937.992 2026.02,943.803 C2027.26,945.042 2028.43,946.205 2029.51,947.289 C2032.22,939.852 2036.56,930.4 2042.53,918.934 C2053.3,898.171 2066.39,887.789 2081.81,887.789 C2087.31,887.789 2091.65,888.835 2094.82,890.927 C2098,893.019 2099.59,895.885 2099.59,899.526 C2099.59,905.337 2097.46,910.257 2093.19,914.285 C2088.78,918.469 2084.17,920.561 2079.37,920.561 C2075.18,920.561 2073.09,919.825 2073.09,918.353"/>
<path class="Note" d="M2073.09,561.187 C2077.43,558.243 2080.57,555.803 2082.5,553.866 C2086.07,550.07 2087.85,546.583 2087.85,543.407 C2087.85,539.766 2085.83,537.945 2081.81,537.945 C2073.98,537.945 2065.61,544.84 2056.7,558.631 C2053.99,562.814 2048.03,576.45 2038.81,599.537 C2046.17,607.129 2049.85,611.429 2049.85,612.436 C2049.85,613.831 2048.96,614.528 2047.17,614.528 C2045.78,614.528 2041.95,612.165 2035.67,607.439 C2028.85,623.321 2018.51,636.879 2004.64,648.113 C1990.46,659.579 1973.54,665.312 1953.86,665.312 C1946.34,665.312 1936.93,663.569 1925.62,660.083 C1916.55,657.294 1912.02,652.839 1912.02,646.719 C1912.02,637.654 1915.51,633.122 1922.48,633.122 C1926.66,633.122 1928.76,635.059 1928.76,638.932 C1928.76,640.172 1927.79,641.489 1925.85,642.884 C1924.84,643.581 1924.34,644.937 1924.34,646.951 C1924.34,649.353 1927.01,651.832 1932.36,654.388 C1938.17,657.178 1946.69,658.572 1957.92,658.572 C1972.41,658.572 1986.4,652.297 1999.88,639.746 C2012.12,628.357 2020.91,615.109 2026.26,600.002 C2024.17,598.297 2021.92,596.438 2019.52,594.424 C2012.08,590.008 2008.36,585.475 2008.36,580.827 C2008.36,578.89 2009.64,577.922 2012.2,577.922 C2015.6,577.922 2020.21,580.827 2026.02,586.638 C2027.26,587.877 2028.43,589.039 2029.51,590.124 C2032.22,582.686 2036.56,573.235 2042.53,561.768 C2053.3,541.005 2066.39,530.624 2081.81,530.624 C2087.31,530.624 2091.65,531.67 2094.82,533.762 C2098,535.853 2099.59,538.72 2099.59,542.361 C2099.59,548.172 2097.46,553.091 2093.19,557.12 C2088.78,561.304 2084.17,563.395 2079.37,563.395 C2075.18,563.395 2073.09,562.659 2073.09,561.187"/>
<path class="Note" d="M2094.01,794.854 C2087.66,804.848 2077.62,813.138 2063.91,819.723 C2051.98,825.456 2040.82,828.323 2030.44,828.323 C2022.15,828.323 2015.26,826.657 2009.76,823.326 C2003.79,819.684 2000.81,815.346 2000.81,810.31 C2000.81,798.921 2003.79,789.121 2009.76,780.909 C2017.89,769.752 2026.1,764.174 2034.39,764.174 C2040.28,764.174 2044.46,765.336 2046.94,767.661 C2050.35,770.682 2052.06,774.827 2052.06,780.095 C2052.06,787.533 2046.52,794.002 2035.44,799.502 C2024.67,804.848 2017.19,808.334 2013.01,809.961 C2013.94,811.898 2015.14,813.641 2016.61,815.191 C2020.25,819.065 2025.21,821.001 2031.49,821.001 C2039.39,821.001 2050,818.096 2063.33,812.286 C2076.11,806.63 2086.34,800.819 2094.01,794.854 M2011.38,804.616 C2017.19,801.672 2022.5,798.224 2027.3,794.273 C2034.43,788.462 2037.99,782.187 2037.99,775.447 C2037.99,771.651 2036.25,769.752 2032.76,769.752 C2029.82,769.752 2025.79,773.123 2020.68,779.863 C2014.25,788.23 2011.03,795.048 2011.03,800.316 C2011.03,801.788 2011.15,803.221 2011.38,804.616"/>
<path class="Note" d="M2072.28,674.069 C2072.28,682.979 2062.13,702.541 2041.83,732.756 C2033.77,744.764 2022.19,753.558 2007.08,759.136 C1995.93,763.319 1983.03,765.411 1968.38,765.411 C1963.66,765.411 1959.47,764.443 1955.83,762.506 C1951.8,760.414 1949.79,758.129 1949.79,755.65 C1949.79,749.219 1953.24,746.004 1960.13,746.004 C1961.14,746.004 1961.64,746.624 1961.64,747.863 C1961.64,748.948 1961.14,750.149 1960.13,751.466 C1958.89,753.093 1958.27,754.294 1958.27,755.068 C1958.27,757.393 1961.76,758.555 1968.73,758.555 C1984.38,758.555 1996.74,756.657 2005.8,752.86 C2015.26,748.987 2024.67,739.109 2034.04,723.227 L2036.72,718.23 C2032.22,721.638 2027.77,723.343 2023.35,723.343 C2012.35,723.343 2006.85,718.888 2006.85,709.979 C2006.85,700.372 2013.32,690.262 2026.26,679.648 C2036.41,671.435 2045.43,667.329 2053.33,667.329 C2057.29,667.329 2060.58,668.375 2063.21,670.467 C2064.14,669.77 2065.3,669.421 2066.7,669.421 C2070.42,669.421 2072.28,670.971 2072.28,674.069 M2038.11,715.789 L2060.07,675.232 C2058.37,674.844 2056.47,674.651 2054.38,674.651 C2046.87,674.651 2039.58,679.028 2032.53,687.782 C2024.32,698.009 2020.21,706.182 2020.21,712.303 C2020.21,716.332 2022.89,718.346 2028.23,718.346 C2030.79,718.346 2034.08,717.494 2038.11,715.789"/>
<path class="Note" d="M2454.8,999.7 C2450.61,999.7 2448.52,997.802 2448.52,994.006 C2448.52,987.576 2449.49,982.85 2451.43,979.828 C2459.48,967.897 2476.99,945.585 2503.95,912.891 C2516.12,898.093 2531.8,890.694 2551.02,890.694 C2558.46,890.694 2563.61,891.74 2566.47,893.832 C2570.89,897.086 2573.1,900.999 2573.1,905.569 C2573.1,910.373 2569.22,915.719 2561.48,921.607 C2554.12,927.185 2547.14,929.974 2540.56,929.974 C2538,929.974 2536.72,929.703 2536.72,929.16 C2536.72,928.386 2537.96,927.572 2540.44,926.72 C2543.77,925.48 2547.34,922.962 2551.13,919.166 C2555.47,914.75 2557.64,910.76 2557.64,907.196 C2557.64,904.795 2555.98,902.509 2552.65,900.34 C2549.7,898.481 2544.94,897.551 2538.35,897.551 C2528.74,897.551 2516.62,907.235 2501.98,926.604 C2492.22,939.542 2484.31,950.93 2478.27,960.77 C2481.21,959.143 2484.74,957.167 2488.85,954.843 C2493.88,951.976 2498.22,950.543 2501.86,950.543 C2510.93,950.543 2515.46,953.797 2515.46,960.305 C2515.46,966.735 2511.74,973.785 2504.3,981.455 C2499.03,986.878 2496.4,990.907 2496.4,993.541 C2496.4,996.253 2499.03,997.609 2504.3,997.609 C2506.94,997.609 2509.65,996.679 2512.44,994.819 C2515.23,993.038 2517.28,992.147 2518.6,992.147 C2519.68,992.147 2520.22,992.844 2520.22,994.238 C2520.22,996.485 2518.05,998.848 2513.71,1001.33 C2506.43,1005.51 2500.58,1007.6 2496.17,1007.6 C2488.34,1007.6 2484.43,1003.42 2484.43,995.052 C2484.43,989.784 2487.45,983.934 2493.49,977.504 C2497.91,972.778 2500.12,968.091 2500.12,963.443 C2500.12,959.414 2497.95,957.4 2493.61,957.4 C2491.91,957.4 2486.25,959.414 2476.64,963.443 C2473.78,968.246 2471.38,972.662 2469.44,976.691 C2462.08,992.03 2457.2,999.7 2454.8,999.7"/>
<path class="Note" d="M2548.35,616.271 C2541.99,626.265 2531.96,634.555 2518.25,641.14 C2506.32,646.874 2495.16,649.74 2484.78,649.74 C2476.49,649.74 2469.59,648.074 2464.09,644.743 C2458.13,641.102 2455.14,636.763 2455.14,631.727 C2455.14,620.339 2458.13,610.538 2464.09,602.326 C2472.23,591.17 2480.44,585.592 2488.73,585.592 C2494.62,585.592 2498.8,586.754 2501.28,589.078 C2504.69,592.099 2506.39,596.244 2506.39,601.513 C2506.39,608.95 2500.85,615.419 2489.78,620.92 C2479.01,626.265 2471.53,629.752 2467.35,631.379 C2468.28,633.316 2469.48,635.059 2470.95,636.608 C2474.59,640.482 2479.55,642.419 2485.82,642.419 C2493.73,642.419 2504.34,639.513 2517.67,633.703 C2530.45,628.047 2540.68,622.237 2548.35,616.271 M2465.72,626.033 C2471.53,623.089 2476.84,619.641 2481.64,615.69 C2488.77,609.88 2492.33,603.604 2492.33,596.864 C2492.33,593.068 2490.59,591.17 2487.1,591.17 C2484.16,591.17 2480.13,594.54 2475.02,601.28 C2468.59,609.647 2465.37,616.465 2465.37,621.733 C2465.37,623.205 2465.49,624.638 2465.72,626.033"/>
<path class="Note" d="M2548.35,794.854 C2541.99,804.848 2531.96,813.138 2518.25,819.723 C2506.32,825.456 2495.16,828.323 2484.78,828.323 C2476.49,828.323 2469.59,826.657 2464.09,823.326 C2458.13,819.684 2455.14,815.346 2455.14,810.31 C2455.14,798.921 2458.13,789.121 2464.09,780.909 C2472.23,769.752 2480.44,764.174 2488.73,764.174 C2494.62,764.174 2498.8,765.336 2501.28,767.661 C2504.69,770.682 2506.39,774.827 2506.39,780.095 C2506.39,787.533 2500.85,794.002 2489.78,799.502 C2479.01,804.848 2471.53,808.334 2467.35,809.961 C2468.28,811.898 2469.48,813.641 2470.95,815.191 C2474.59,819.065 2479.55,821.001 2485.82,821.001 C2493.73,821.001 2504.34,818.096 2517.67,812.286 C2530.45,806.63 2540.68,800.819 2548.35,794.854 M2465.72,804.616 C2471.53,801.672 2476.84,798.224 2481.64,794.273 C2488.77,788.462 2492.33,782.187 2492.33,775.447 C2492.33,771.651 2490.59,769.752 2487.1,769.752 C2484.16,769.752 2480.13,773.123 2475.02,779.863 C2468.59,788.23 2465.37,795.048 2465.37,800.316 C2465.37,801.788 2465.49,803.221 2465.72,804.616"/>
<path class="Note" d="M2527.43,650.479 C2531.77,647.535 2534.9,645.094 2536.84,643.157 C2540.4,639.361 2542.19,635.875 2542.19,632.698 C2542.19,629.057 2540.17,627.236 2536.14,627.236 C2528.32,627.236 2519.95,634.132 2511.04,647.922 C2508.33,652.106 2502.36,665.741 2493.15,688.828 C2500.51,696.421 2504.19,700.721 2504.19,701.728 C2504.19,703.122 2503.29,703.819 2501.51,703.819 C2500.12,703.819 2496.28,701.457 2490.01,696.731 C2483.19,712.613 2472.85,726.171 2458.98,737.404 C2444.8,748.871 2427.87,754.604 2408.2,754.604 C2400.68,754.604 2391.27,752.86 2379.96,749.374 C2370.89,746.585 2366.36,742.13 2366.36,736.01 C2366.36,726.945 2369.85,722.413 2376.82,722.413 C2381,722.413 2383.09,724.35 2383.09,728.224 C2383.09,729.463 2382.13,730.78 2380.19,732.175 C2379.18,732.872 2378.68,734.228 2378.68,736.242 C2378.68,738.644 2381.35,741.123 2386.7,743.68 C2392.51,746.469 2401.03,747.863 2412.26,747.863 C2426.75,747.863 2440.73,741.588 2454.21,729.037 C2466.46,717.649 2475.25,704.401 2480.59,689.293 C2478.5,687.589 2476.26,685.729 2473.85,683.715 C2466.42,679.299 2462.7,674.767 2462.7,670.118 C2462.7,668.181 2463.98,667.213 2466.53,667.213 C2469.94,667.213 2474.55,670.118 2480.36,675.929 C2481.6,677.168 2482.76,678.331 2483.85,679.415 C2486.56,671.978 2490.9,662.526 2496.86,651.06 C2507.63,630.297 2520.73,619.915 2536.14,619.915 C2541.64,619.915 2545.98,620.961 2549.16,623.053 C2552.34,625.145 2553.92,628.011 2553.92,631.652 C2553.92,637.463 2551.79,642.383 2547.53,646.411 C2543.12,650.595 2538.51,652.687 2533.7,652.687 C2529.52,652.687 2527.43,651.951 2527.43,650.479"/>
<path class="Note" d="M3002.68,884.145 C2996.33,894.139 2986.3,902.429 2972.58,909.014 C2960.65,914.748 2949.5,917.614 2939.12,917.614 C2930.83,917.614 2923.93,915.948 2918.43,912.617 C2912.46,908.976 2909.48,904.637 2909.48,899.601 C2909.48,888.213 2912.46,878.412 2918.43,870.2 C2926.56,859.044 2934.78,853.466 2943.07,853.466 C2948.95,853.466 2953.14,854.628 2955.62,856.952 C2959.03,859.973 2960.73,864.118 2960.73,869.387 C2960.73,876.824 2955.19,883.293 2944.11,888.794 C2933.34,894.139 2925.87,897.626 2921.68,899.253 C2922.61,901.19 2923.81,902.933 2925.29,904.482 C2928.93,908.356 2933.89,910.293 2940.16,910.293 C2948.06,910.293 2958.68,907.388 2972,901.577 C2984.79,895.921 2995.01,890.111 3002.68,884.145 M2920.06,893.907 C2925.87,890.963 2931.17,887.515 2935.98,883.564 C2943.11,877.754 2946.67,871.478 2946.67,864.738 C2946.67,860.942 2944.93,859.044 2941.44,859.044 C2938.5,859.044 2934.47,862.414 2929.35,869.154 C2922.92,877.521 2919.71,884.339 2919.71,889.607 C2919.71,891.079 2919.82,892.513 2920.06,893.907"/>
<path class="Note" d="M2981.77,561.187 C2986.1,558.243 2989.24,555.803 2991.18,553.866 C2994.74,550.07 2996.52,546.583 2996.52,543.407 C2996.52,539.766 2994.51,537.945 2990.48,537.945 C2982.66,537.945 2974.29,544.84 2965.38,558.631 C2962.67,562.814 2956.7,576.45 2947.48,599.537 C2954.84,607.129 2958.52,611.429 2958.52,612.436 C2958.52,613.831 2957.63,614.528 2955.85,614.528 C2954.46,614.528 2950.62,612.165 2944.35,607.439 C2937.53,623.321 2927.18,636.879 2913.32,648.113 C2899.14,659.579 2882.21,665.312 2862.53,665.312 C2855.02,665.312 2845.6,663.569 2834.29,660.083 C2825.23,657.294 2820.7,652.839 2820.7,646.719 C2820.7,637.654 2824.18,633.122 2831.16,633.122 C2835.34,633.122 2837.43,635.059 2837.43,638.932 C2837.43,640.172 2836.46,641.489 2834.53,642.884 C2833.52,643.581 2833.02,644.937 2833.02,646.951 C2833.02,649.353 2835.69,651.832 2841.03,654.388 C2846.84,657.178 2855.37,658.572 2866.6,658.572 C2881.09,658.572 2895.07,652.297 2908.55,639.746 C2920.79,628.357 2929.59,615.109 2934.93,600.002 C2932.84,598.297 2930.59,596.438 2928.19,594.424 C2920.75,590.008 2917.04,585.475 2917.04,580.827 C2917.04,578.89 2918.31,577.922 2920.87,577.922 C2924.28,577.922 2928.89,580.827 2934.7,586.638 C2935.94,587.877 2937.1,589.039 2938.19,590.124 C2940.9,582.686 2945.24,573.235 2951.2,561.768 C2961.97,541.005 2975.06,530.624 2990.48,530.624 C2995.98,530.624 3000.32,531.67 3003.5,533.762 C3006.67,535.853 3008.26,538.72 3008.26,542.361 C3008.26,548.172 3006.13,553.091 3001.87,557.12 C2997.45,561.304 2992.84,563.395 2988.04,563.395 C2983.86,563.395 2981.77,562.659 2981.77,561.187"/>
<path class="Note" d="M2855.8,677.207 C2856.11,665.509 2862.58,655.127 2875.21,646.063 C2886.44,638.005 2898.72,633.977 2912.05,633.977 C2930.72,633.977 2947.18,641.298 2961.44,655.941 C2970.5,665.315 2975.03,676.936 2975.03,690.804 C2975.03,703.277 2971.7,712.845 2965.04,719.508 C2956.9,727.72 2948.31,731.826 2939.24,731.826 C2933.04,731.826 2928.24,730.432 2924.83,727.643 C2919.25,723.072 2916.46,716.951 2916.46,709.281 C2916.46,699.365 2921.42,690.3 2931.34,682.088 C2939.47,675.348 2947.65,670.932 2955.86,668.84 C2953.69,665.121 2950.94,661.635 2947.61,658.381 C2937.23,648.232 2925.45,643.157 2912.28,643.157 C2898.57,643.157 2887.22,646.14 2878.23,652.106 C2868.93,658.226 2861.46,666.593 2855.8,677.207 M2958.76,674.999 C2954.5,678.95 2950.24,683.173 2945.98,687.666 C2937.61,696.498 2933.43,704.865 2933.43,712.768 C2933.43,721.212 2935.37,725.435 2939.24,725.435 C2942.73,725.435 2947.61,720.67 2953.88,711.141 C2958.92,703.548 2961.44,696.576 2961.44,690.223 C2961.44,684.8 2960.55,679.725 2958.76,674.999"/>
<path class="Note" d="M3447.97,852.652 C3447.97,861.562 3437.82,881.124 3417.52,911.339 C3409.46,923.347 3397.88,932.14 3382.77,937.719 C3371.62,941.902 3358.72,943.994 3344.08,943.994 C3339.35,943.994 3335.17,943.026 3331.53,941.089 C3327.5,938.997 3325.48,936.711 3325.48,934.232 C3325.48,927.802 3328.93,924.587 3335.82,924.587 C3336.83,924.587 3337.34,925.207 3337.34,926.446 C3337.34,927.531 3336.83,928.732 3335.82,930.049 C3334.59,931.676 3333.97,932.876 3333.97,933.651 C3333.97,935.975 3337.45,937.138 3344.42,937.138 C3360.07,937.138 3372.43,935.239 3381.5,931.443 C3390.95,927.569 3400.36,917.692 3409.73,901.809 L3412.41,896.812 C3407.91,900.221 3403.46,901.926 3399.04,901.926 C3388.04,901.926 3382.54,897.471 3382.54,888.561 C3382.54,878.955 3389.01,868.844 3401.95,858.23 C3412.1,850.018 3421.12,845.912 3429.03,845.912 C3432.98,845.912 3436.27,846.958 3438.9,849.05 C3439.83,848.352 3441,848.004 3442.39,848.004 C3446.11,848.004 3447.97,849.553 3447.97,852.652 M3413.8,894.372 L3435.77,853.814 C3434.06,853.427 3432.16,853.233 3430.07,853.233 C3422.56,853.233 3415.27,857.61 3408.22,866.365 C3400.01,876.592 3395.91,884.765 3395.91,890.886 C3395.91,894.914 3398.58,896.929 3403.92,896.929 C3406.48,896.929 3409.77,896.076 3413.8,894.372"/>
<path class="Note" d="M3376.15,642.535 C3371.97,642.535 3369.87,640.637 3369.87,636.841 C3369.87,630.41 3370.84,625.684 3372.78,622.663 C3380.84,610.732 3398.35,588.419 3425.31,555.725 C3437.47,540.928 3453.16,533.529 3472.37,533.529 C3479.81,533.529 3484.96,534.575 3487.83,536.667 C3492.24,539.921 3494.45,543.833 3494.45,548.404 C3494.45,553.207 3490.58,558.553 3482.83,564.441 C3475.47,570.019 3468.5,572.808 3461.91,572.808 C3459.36,572.808 3458.08,572.537 3458.08,571.995 C3458.08,571.22 3459.32,570.407 3461.8,569.555 C3465.13,568.315 3468.69,565.797 3472.49,562.001 C3476.83,557.585 3479,553.595 3479,550.031 C3479,547.629 3477.33,545.344 3474,543.175 C3471.06,541.315 3466.29,540.386 3459.71,540.386 C3450.1,540.386 3437.97,550.07 3423.33,569.438 C3413.57,582.376 3405.67,593.765 3399.62,603.604 C3402.57,601.977 3406.09,600.002 3410.2,597.678 C3415.24,594.811 3419.57,593.378 3423.22,593.378 C3432.28,593.378 3436.81,596.632 3436.81,603.139 C3436.81,609.57 3433.09,616.62 3425.66,624.29 C3420.39,629.713 3417.75,633.742 3417.75,636.376 C3417.75,639.087 3420.39,640.443 3425.66,640.443 C3428.29,640.443 3431,639.513 3433.79,637.654 C3436.58,635.872 3438.63,634.981 3439.95,634.981 C3441.03,634.981 3441.58,635.679 3441.58,637.073 C3441.58,639.32 3439.41,641.683 3435.07,644.162 C3427.79,648.346 3421.94,650.437 3417.52,650.437 C3409.7,650.437 3405.78,646.254 3405.78,637.887 C3405.78,632.618 3408.81,626.769 3414.85,620.339 C3419.26,615.613 3421.47,610.926 3421.47,606.277 C3421.47,602.249 3419.3,600.234 3414.96,600.234 C3413.26,600.234 3407.6,602.249 3398,606.277 C3395.13,611.081 3392.73,615.497 3390.79,619.525 C3383.43,634.865 3378.55,642.535 3376.15,642.535"/>
<path class="Note" d="M3448.78,471.896 C3453.12,468.952 3456.26,466.512 3458.19,464.575 C3461.76,460.778 3463.54,457.292 3463.54,454.116 C3463.54,450.474 3461.53,448.654 3457.5,448.654 C3449.67,448.654 3441.31,455.549 3432.4,469.339 C3429.68,473.523 3423.72,487.158 3414.5,510.246 C3421.86,517.838 3425.54,522.138 3425.54,523.145 C3425.54,524.54 3424.65,525.237 3422.87,525.237 C3421.47,525.237 3417.64,522.874 3411.36,518.148 C3404.54,534.03 3394.2,547.588 3380.33,558.822 C3366.16,570.288 3349.23,576.021 3329.55,576.021 C3322.03,576.021 3312.62,574.278 3301.31,570.791 C3292.25,568.002 3287.71,563.548 3287.71,557.427 C3287.71,548.363 3291.2,543.831 3298.17,543.831 C3302.36,543.831 3304.45,545.767 3304.45,549.641 C3304.45,550.881 3303.48,552.198 3301.54,553.592 C3300.54,554.29 3300.03,555.645 3300.03,557.66 C3300.03,560.061 3302.7,562.541 3308.05,565.097 C3313.86,567.886 3322.38,569.281 3333.62,569.281 C3348.1,569.281 3362.09,563.005 3375.57,550.455 C3387.81,539.066 3396.6,525.818 3401.95,510.71 C3399.86,509.006 3397.61,507.147 3395.21,505.132 C3387.77,500.716 3384.05,496.184 3384.05,491.536 C3384.05,489.599 3385.33,488.63 3387.89,488.63 C3391.3,488.63 3395.91,491.536 3401.72,497.346 C3402.96,498.586 3404.12,499.748 3405.2,500.832 C3407.91,493.395 3412.25,483.943 3418.22,472.477 C3428.99,451.714 3442.08,441.332 3457.5,441.332 C3463,441.332 3467.34,442.378 3470.51,444.47 C3473.69,446.562 3475.28,449.429 3475.28,453.07 C3475.28,458.88 3473.15,463.8 3468.89,467.829 C3464.47,472.012 3459.86,474.104 3455.06,474.104 C3450.87,474.104 3448.78,473.368 3448.78,471.896"/>
<path class="Note" d="M3448.78,650.479 C3453.12,647.535 3456.26,645.094 3458.19,643.157 C3461.76,639.361 3463.54,635.875 3463.54,632.698 C3463.54,629.057 3461.53,627.236 3457.5,627.236 C3449.67,627.236 3441.31,634.132 3432.4,647.922 C3429.68,652.106 3423.72,665.741 3414.5,688.828 C3421.86,696.421 3425.54,700.721 3425.54,701.728 C3425.54,703.122 3424.65,703.819 3422.87,703.819 C3421.47,703.819 3417.64,701.457 3411.36,696.731 C3404.54,712.613 3394.2,726.171 3380.33,737.404 C3366.16,748.871 3349.23,754.604 3329.55,754.604 C3322.03,754.604 3312.62,752.86 3301.31,749.374 C3292.25,746.585 3287.71,742.13 3287.71,736.01 C3287.71,726.945 3291.2,722.413 3298.17,722.413 C3302.36,722.413 3304.45,724.35 3304.45,728.224 C3304.45,729.463 3303.48,730.78 3301.54,732.175 C3300.54,732.872 3300.03,734.228 3300.03,736.242 C3300.03,738.644 3302.7,741.123 3308.05,743.68 C3313.86,746.469 3322.38,747.863 3333.62,747.863 C3348.1,747.863 3362.09,741.588 3375.57,729.037 C3387.81,717.649 3396.6,704.401 3401.95,689.293 C3399.86,687.589 3397.61,685.729 3395.21,683.715 C3387.77,679.299 3384.05,674.767 3384.05,670.118 C3384.05,668.181 3385.33,667.213 3387.89,667.213 C3391.3,667.213 3395.91,670.118 3401.72,675.929 C3402.96,677.168 3404.12,678.331 3405.2,679.415 C3407.91,671.978 3412.25,662.526 3418.22,651.06 C3428.99,630.297 3442.08,619.915 3457.5,619.915 C3463,619.915 3467.34,620.961 3470.51,623.053 C3473.69,625.145 3475.28,628.011 3475.28,631.652 C3475.28,637.463 3473.15,642.383 3468.89,646.411 C3464.47,650.595 3459.86,652.687 3455.06,652.687 C3450.87,652.687 3448.78,651.951 3448.78,650.479"/>
<path class="Note" d="M3855.74,561.187 C3860.08,558.243 3863.22,555.803 3865.15,553.866 C3868.72,550.07 3870.5,546.583 3870.5,543.407 C3870.5,539.766 3868.48,537.945 3864.45,537.945 C3856.63,537.945 3848.26,544.84 3839.35,558.631 C3836.64,562.814 3830.68,576.45 3821.46,599.537 C3828.82,607.129 3832.5,611.429 3832.5,612.436 C3832.5,613.831 3831.61,614.528 3829.82,614.528 C3828.43,614.528 3824.59,612.165 3818.32,607.439 C3811.5,623.321 3801.16,636.879 3787.29,648.113 C3773.11,659.579 3756.19,665.312 3736.51,665.312 C3728.99,665.312 3719.58,663.569 3708.27,660.083 C3699.2,657.294 3694.67,652.839 3694.67,646.719 C3694.67,637.654 3698.16,633.122 3705.13,633.122 C3709.31,633.122 3711.41,635.059 3711.41,638.932 C3711.41,640.172 3710.44,641.489 3708.5,642.884 C3707.49,643.581 3706.99,644.937 3706.99,646.951 C3706.99,649.353 3709.66,651.832 3715.01,654.388 C3720.82,657.178 3729.34,658.572 3740.57,658.572 C3755.06,658.572 3769.05,652.297 3782.53,639.746 C3794.77,628.357 3803.56,615.109 3808.91,600.002 C3806.81,598.297 3804.57,596.438 3802.17,594.424 C3794.73,590.008 3791.01,585.475 3791.01,580.827 C3791.01,578.89 3792.29,577.922 3794.84,577.922 C3798.25,577.922 3802.86,580.827 3808.67,586.638 C3809.91,587.877 3811.08,589.039 3812.16,590.124 C3814.87,582.686 3819.21,573.235 3825.18,561.768 C3835.94,541.005 3849.04,530.624 3864.45,530.624 C3869.96,530.624 3874.29,531.67 3877.47,533.762 C3880.65,535.853 3882.24,538.72 3882.24,542.361 C3882.24,548.172 3880.1,553.091 3875.84,557.12 C3871.43,561.304 3866.82,563.395 3862.01,563.395 C3857.83,563.395 3855.74,562.659 3855.74,561.187"/>
<path class="Note" d="M3783.11,910.409 C3778.92,910.409 3776.83,908.511 3776.83,904.715 C3776.83,898.284 3777.8,893.558 3779.74,890.537 C3787.79,878.606 3805.3,856.293 3832.26,823.599 C3844.43,808.802 3860.12,801.403 3879.33,801.403 C3886.77,801.403 3891.92,802.449 3894.79,804.541 C3899.2,807.795 3901.41,811.707 3901.41,816.278 C3901.41,821.082 3897.54,826.427 3889.79,832.315 C3882.43,837.893 3875.46,840.682 3868.87,840.682 C3866.31,840.682 3865.04,840.411 3865.04,839.869 C3865.04,839.094 3866.28,838.281 3868.75,837.429 C3872.09,836.189 3875.65,833.671 3879.45,829.875 C3883.78,825.459 3885.95,821.469 3885.95,817.905 C3885.95,815.503 3884.29,813.218 3880.96,811.049 C3878.01,809.189 3873.25,808.26 3866.66,808.26 C3857.06,808.26 3844.93,817.944 3830.29,837.312 C3820.53,850.25 3812.62,861.639 3806.58,871.478 C3809.53,869.851 3813.05,867.876 3817.16,865.552 C3822.19,862.685 3826.53,861.252 3830.17,861.252 C3839.24,861.252 3843.77,864.506 3843.77,871.013 C3843.77,877.444 3840.05,884.494 3832.61,892.164 C3827.34,897.587 3824.71,901.616 3824.71,904.25 C3824.71,906.961 3827.34,908.317 3832.61,908.317 C3835.25,908.317 3837.96,907.388 3840.75,905.528 C3843.54,903.746 3845.59,902.855 3846.91,902.855 C3847.99,902.855 3848.53,903.553 3848.53,904.947 C3848.53,907.194 3846.36,909.557 3842.03,912.036 C3834.74,916.22 3828.89,918.311 3824.48,918.311 C3816.65,918.311 3812.74,914.128 3812.74,905.761 C3812.74,900.492 3815.76,894.643 3821.81,888.213 C3826.22,883.487 3828.43,878.8 3828.43,874.151 C3828.43,870.123 3826.26,868.108 3821.92,868.108 C3820.22,868.108 3814.56,870.123 3804.95,874.151 C3802.09,878.955 3799.69,883.371 3797.75,887.399 C3790.39,902.739 3785.51,910.409 3783.11,910.409"/>
<path class="Note" d="M3855.74,739.77 C3860.08,736.826 3863.22,734.386 3865.15,732.449 C3868.72,728.652 3870.5,725.166 3870.5,721.99 C3870.5,718.348 3868.48,716.528 3864.45,716.528 C3856.63,716.528 3848.26,723.423 3839.35,737.213 C3836.64,741.397 3830.68,755.032 3821.46,778.12 C3828.82,785.712 3832.5,790.012 3832.5,791.019 C3832.5,792.414 3831.61,793.111 3829.82,793.111 C3828.43,793.111 3824.59,790.748 3818.32,786.022 C3811.5,801.904 3801.16,815.462 3787.29,826.696 C3773.11,838.162 3756.19,843.895 3736.51,843.895 C3728.99,843.895 3719.58,842.152 3708.27,838.666 C3699.2,835.876 3694.67,831.422 3694.67,825.301 C3694.67,816.237 3698.16,811.705 3705.13,811.705 C3709.31,811.705 3711.41,813.641 3711.41,817.515 C3711.41,818.755 3710.44,820.072 3708.5,821.466 C3707.49,822.164 3706.99,823.519 3706.99,825.534 C3706.99,827.935 3709.66,830.415 3715.01,832.971 C3720.82,835.76 3729.34,837.155 3740.57,837.155 C3755.06,837.155 3769.05,830.879 3782.53,818.329 C3794.77,806.94 3803.56,793.692 3808.91,778.584 C3806.81,776.88 3804.57,775.021 3802.17,773.006 C3794.73,768.59 3791.01,764.058 3791.01,759.41 C3791.01,757.473 3792.29,756.504 3794.84,756.504 C3798.25,756.504 3802.86,759.41 3808.67,765.22 C3809.91,766.46 3811.08,767.622 3812.16,768.707 C3814.87,761.269 3819.21,751.817 3825.18,740.351 C3835.94,719.588 3849.04,709.207 3864.45,709.207 C3869.96,709.207 3874.29,710.252 3877.47,712.344 C3880.65,714.436 3882.24,717.303 3882.24,720.944 C3882.24,726.754 3880.1,731.674 3875.84,735.703 C3871.43,739.886 3866.82,741.978 3862.01,741.978 C3857.83,741.978 3855.74,741.242 3855.74,739.77"/>
<path class="Note" d="M3855.74,650.479 C3860.08,647.535 3863.22,645.094 3865.15,643.157 C3868.72,639.361 3870.5,635.875 3870.5,632.698 C3870.5,629.057 3868.48,627.236 3864.45,627.236 C3856.63,627.236 3848.26,634.132 3839.35,647.922 C3836.64,652.106 3830.68,665.741 3821.46,688.828 C3828.82,696.421 3832.5,700.721 3832.5,701.728 C3832.5,703.122 3831.61,703.819 3829.82,703.819 C3828.43,703.819 3824.59,701.457 3818.32,696.731 C3811.5,712.613 3801.16,726.171 3787.29,737.404 C3773.11,748.871 3756.19,754.604 3736.51,754.604 C3728.99,754.604 3719.58,752.86 3708.27,749.374 C3699.2,746.585 3694.67,742.13 3694.67,736.01 C3694.67,726.945 3698.16,722.413 3705.13,722.413 C3709.31,722.413 3711.41,724.35 3711.41,728.224 C3711.41,729.463 3710.44,730.78 3708.5,732.175 C3707.49,732.872 3706.99,734.228 3706.99,736.242 C3706.99,738.644 3709.66,741.123 3715.01,743.68 C3720.82,746.469 3729.34,747.863 3740.57,747.863 C3755.06,747.863 3769.05,741.588 3782.53,729.037 C3794.77,717.649 3803.56,704.401 3808.91,689.293 C3806.81,687.589 3804.57,685.729 3802.17,683.715 C3794.73,679.299 3791.01,674.767 3791.01,670.118 C3791.01,668.181 3792.29,667.213 3794.84,667.213 C3798.25,667.213 3802.86,670.118 3808.67,675.929 C3809.91,677.168 3811.08,678.331 3812.16,679.415 C3814.87,671.978 3819.21,662.526 3825.18,651.06 C3835.94,630.297 3849.04,619.915 3864.45,619.915 C3869.96,619.915 3874.29,620.961 3877.47,623.053 C3880.65,625.145 3882.24,628.011 3882.24,631.652 C3882.24,637.463 3880.1,642.383 3875.84,646.411 C3871.43,650.595 3866.82,652.687 3862.01,652.687 C3857.83,652.687 3855.74,651.951 3855.74,650.479"/>
<path class="Clef" transform="matrix(2.3811,0,0,2.3811,212.156,2076.38)" d="M25.4,-25.1 C17.8,-25.1 11.7,-20.7 11.6,-20.7 C5.8,-16.4 3.5,-11.3 2.6,-7.8 C2.1,-6 1.9,-4.2 1.9,-2.5 C1.9,-0.1 2.3,2.1 3.2,4 C4.4,6.7 6.7,8.6 9.7,9.6 C10.9,10 12.2,10.2 13.5,10.2 C15.7,10.2 18,9.6 19.9,8.5 C23,6.8 24.9,3.2 24.9,-0.7 C24.9,-4.2 23.1,-7.4 20.1,-9.3 C18,-10.7 16,-11.1 14.3,-11.1 C13.1,-11.1 12,-10.9 11.1,-10.6 C10.1,-10.2 8.4,-9.2 7.6,-8.5 C7.9,-10.4 9.1,-13.3 10.2,-14.9 C11.3,-16.5 13.5,-18.5 15.2,-19.4 C17.7,-20.8 20.9,-21.4 24.4,-21.4 C34.6,-21.4 39.6,-13.2 39.6,3.6 C39.6,12.9 36.1,21.8 33.1,27.7 C29.8,34.3 25.4,40.6 21.5,44.1 C11.1,53.6 1.3,58.1 1.2,58.1 C1.2,58.1 -0.3,59 0.1,60.5 C0.4,61.5 1.3,61.7 1.9,61.7 C2,61.7 2.3,61.6 2.4,61.6 C2.5,61.6 13.9,56.9 23,49.8 C28.1,46.1 32.7,42.1 36.7,37.8 C40.3,33.9 43.4,29.7 45.9,25.5 C50.3,18 52.8,10.2 52.8,3.5 C52.8,-4.8 50.6,-11.7 46.5,-16.6 C41.8,-22.2 34.7,-25.1 25.4,-25.1 M56.8,-12.4 C56.8,-9.6 59,-7.4 61.6,-7.4 C64.2,-7.4 66.4,-9.6 66.4,-12.4 C66.4,-15.2 64.2,-17.5 61.6,-17.5 C59,-17.5 56.8,-15.2 56.8,-12.4 M56.8,12.3 C56.8,15.1 59,17.4 61.6,17.4 C64.2,17.4 66.4,15.1 66.4,12.3 C66.4,9.5 64.2,7.2 61.6,7.2 C59,7.2 56.8,9.5 56.8,12.3"/>
<path class="Clef" transform="matrix(2.3811,0,0,2.3811,212.156,1570.39)" d="M63.37,-5.89004 C62.14,-11.32 59.5,-15.14 58.72,-16.1801 C55.5301,-20.45 51.52,-23.3 46.8301,-24.65 C43.72,-25.54 40.72,-25.65 38.3,-25.47 C37.2601,-31.4801 36.2601,-37.3601 35.35,-42.8101 C40.79,-48.97 44.42,-54.77 46.69,-59.07 C50.1601,-65.65 51.3101,-70.2301 51.3601,-70.4301 C53.0801,-75.64 53.44,-83.34 52.34,-91.55 C51.3301,-99.1 49.24,-105.81 46.89,-109.06 C45.8601,-110.49 44.8101,-111.22 43.77,-111.22 C42.55,-111.22 40.04,-109.98 37.15,-107.21 C34.85,-105.01 31.5801,-101.12 29.02,-95.1101 C26.02,-88.05 25.8101,-78.5601 26.1601,-71.84 C26.54,-64.57 27.65,-58.8801 27.6601,-58.8301 C27.6801,-58.74 27.94,-57.24 28.39,-54.67 C28.1601,-54.44 27.92,-54.22 27.67,-53.9801 C26.6301,-52.9801 25.44,-51.84 24.0601,-50.4601 C23.2,-49.6 22.25,-48.69 21.25,-47.72 C12.79,-39.57 0,-27.25 0,-8.1 C0,-3.4 0.9,1.01992 2.68008,5.02998 C4.27002,8.62998 6.57002,11.91 9.5,14.78 C17.2301,22.33 27.82,25.5399 34.8801,25.38 C37.8301,25.31 40.4601,25.0699 42.85,24.6199 C44.6801,34.2199 45.82,41.25 45.8601,46.5899 C45.9,53.1 44.25,57.0699 40.35,59.8399 C37.92,61.5699 35.1101,62.5199 32.0101,62.6699 C29.42,62.7899 27.1601,62.3199 25.7301,61.91 L25.72,61.91 C25.72,61.91 25.4301,61.83 25.42,61.63 C25.4101,61.45 25.7601,61.4 25.77,61.4 L25.79,61.4 C27.7101,60.96 31.2801,59.73 33.64,56.43 C35.44,53.91 36.3101,49.2899 34.47,45.35 C33.3601,42.96 30.85,40.01 25.2301,39.56 C22.74,39.36 20.47,39.8699 18.47,41.0699 C16.6601,42.15 15.1601,43.7899 14.1101,45.7899 C11.65,50.4899 12.1101,56.2199 15.24,60.06 C18.2,63.68 22.82,65.9899 28.25,66.5699 C29.1,66.66 29.95,66.7 30.8,66.7 C31.5101,66.7 32.22,66.6699 32.92,66.61 C31.72,66.9399 30.64,67.4899 29.77,68.25 C28.2801,69.5399 27.44,71.38 27.44,73.41 C27.44,75.28 28.0601,76.65 29.55,78.0399 C28.4101,78.5 27.55,78.98 26.79,79.56 C25.25,80.73 24.34,82.46 24.34,84.1899 C24.34,87.45 27.3,89.63 31.72,89.63 C37.1301,89.63 40.9101,86.63 40.9101,82.35 C40.9101,80.1199 39.9101,78.18 38.0801,76.83 C41.0101,75.6199 42.37,73.9399 42.37,71.56 C42.39,70.05 41.69,68.61 40.49,67.6899 C39.2801,66.7399 37.62,66.2399 35.69,66.2399 L35.5101,66.2399 C38.2801,65.7 40.92,64.7 43.2101,63.28 C46.87,60.71 48.99,56.73 49.67,51.1 C50.2301,46.46 49.84,40.55 48.44,32.48 C48.0801,30.3899 47.54,27.36 46.8801,23.6 C52.6301,21.68 56.79,18.11 60.5601,12.26 C63.85,6.51992 64.8,0.419922 63.37,-5.89004 M32.39,87.5399 C30.19,87.5399 28.7301,86.1199 28.7301,84.01 C28.7301,82.11 29.65,80.5 31.32,79.4699 C31.6801,79.66 31.77,79.71 32.1101,79.88 C33.3,80.48 33.3,80.48 33.55,80.63 L33.5601,80.6399 C35.47,81.73 36.25,82.76 36.25,84.18 C36.24,86.0899 34.59,87.5399 32.39,87.5399 M38.3101,71.63 C38.3101,73.2699 37.7301,74.3399 36.1801,75.53 C34.74,74.78 34.35,74.56 33.9801,74.3399 L33.8801,74.28 C32.3301,73.3399 31.85,72.66 31.85,71.4 C31.85,69.6 33.2301,68.3399 35.19,68.3399 C37.17,68.35 38.3101,69.55 38.3101,71.63 M33.15,-83.8101 C34.9301,-89.55 37.67,-92.8 39.6601,-94.5301 C41.4101,-96.05 43.0601,-96.7601 43.9801,-96.7601 C44.12,-96.7601 44.24,-96.74 44.34,-96.7101 C44.8,-96.57 45.3301,-96 45.8,-95.1301 C48.1101,-90.84 47.37,-84.1301 46.0301,-79.69 C44.4,-74.29 41.4801,-68.6801 32.69,-59.0601 C32.52,-60.17 32.3601,-61.22 32.2101,-62.2 C30.95,-70.49 31.27,-77.7601 33.15,-83.8101 M29.15,20.31 C24.5101,19.0899 20.0801,16.5899 16.32,13.0899 C15.0101,11.86 13.14,9.68994 11.67,6.3 C10.3101,3.13994 9.65,-0.290039 9.7,-3.88008 C9.77002,-8.57002 11.0801,-13.39 13.59,-18.1801 C16.5101,-23.7601 21.07,-29.29 27.1301,-34.62 C28.5801,-35.9 29.95,-37.1801 31.24,-38.4601 C32,-34.2 32.8301,-29.5101 33.7101,-24.6301 C29.8601,-23.3601 25.1101,-20.2101 22,-14.5601 C18.47,-7.99004 18.6101,-2.47002 19.34,1.00996 C20.2801,5.46992 22.8101,9.22998 26.27,11.3199 C27.2,11.88 31.3301,14.01 33.17,13.43 C33.54,13.31 33.8101,13.0899 33.95,12.76 C34.4601,11.5899 33.44,10.95 31.8801,9.98994 C31.2801,9.61992 30.6101,9.2 29.8801,8.66992 C26.5601,6.17998 25.1101,1.72998 26.1801,-2.65 C26.7601,-5.05 28.04,-7.21006 29.8801,-8.91006 C31.55,-10.4601 33.59,-11.5601 35.97,-12.2 C38.0101,-0.960059 40.07,10.1899 41.7101,18.55 C41.84,19.2399 41.9801,19.91 42.1101,20.58 C37.7101,21.51 33.37,21.4199 29.15,20.31 M54.9,10.1 C53.7301,13.28 51.27,17.35 46.14,19.41 C46.07,18.9899 45.99,18.56 45.9101,18.13 C44.3601,9.36992 42.4301,-1.61006 40.47,-12.87 C50.82,-13.35 55.09,-5.91006 55.9801,-1.08008 C56.45,1.45 56.45,5.88994 54.9,10.1"/>
<path class="FiguredBass" d="M1050.24,2444.42 C1049.56,2445.16 1048.67,2445.53 1047.55,2445.53 C1046.44,2445.53 1045.53,2445.15 1044.82,2444.37 C1044.11,2443.6 1043.75,2442.72 1043.75,2441.73 L1043.75,2428.46 L1030.48,2428.46 C1029.37,2428.46 1028.46,2428.08 1027.75,2427.3 C1027.04,2426.53 1026.68,2425.65 1026.68,2424.66 C1026.68,2423.67 1027.04,2422.79 1027.75,2422.01 C1028.46,2421.24 1029.37,2420.85 1030.48,2420.85 L1043.75,2420.85 L1043.75,2407.59 C1043.75,2406.6 1044.11,2405.72 1044.82,2404.94 C1045.53,2404.17 1046.44,2403.78 1047.55,2403.78 C1048.67,2403.78 1049.58,2404.17 1050.29,2404.94 C1051,2405.72 1051.36,2406.6 1051.36,2407.59 L1051.36,2420.85 L1064.62,2420.85 C1065.74,2420.85 1066.65,2421.24 1067.36,2422.01 C1068.07,2422.79 1068.43,2423.67 1068.43,2424.66 C1068.43,2425.65 1068.07,2426.53 1067.36,2427.3 C1066.65,2428.08 1065.74,2428.46 1064.62,2428.46 L1051.36,2428.46 L1051.36,2441.73 C1051.36,2442.72 1050.99,2443.62 1050.24,2444.42 M1103.67,2390.15 C1099.09,2390.15 1096.04,2391.99 1094.53,2395.67 C1093.01,2399.35 1092.26,2404.56 1092.26,2411.3 L1092.26,2422.25 C1095.47,2420.95 1098.26,2420.27 1100.61,2420.21 C1108.65,2420.21 1114.97,2421.98 1119.58,2425.54 C1124.19,2429.1 1126.49,2434.38 1126.49,2441.4 C1126.49,2448.42 1124.16,2453.73 1119.49,2457.31 C1114.82,2460.9 1108.52,2462.7 1100.61,2462.7 C1092.5,2462.7 1086.16,2458.94 1081.59,2451.42 C1077.01,2443.91 1074.72,2434.99 1074.72,2424.66 C1074.72,2414.39 1077.38,2405.49 1082.7,2397.94 C1088.02,2390.39 1095.01,2386.62 1103.67,2386.62 C1109.36,2386.62 1114.27,2388.06 1118.42,2390.94 C1122.56,2393.81 1124.63,2397.6 1124.63,2402.3 C1124.63,2405.02 1123.64,2407.37 1121.67,2409.35 C1119.69,2411.33 1117.32,2412.32 1114.57,2412.32 C1111.82,2412.32 1109.45,2411.33 1107.47,2409.35 C1105.49,2407.37 1104.5,2405.02 1104.5,2402.3 C1104.5,2399.64 1105.49,2397.29 1107.47,2395.25 C1108.15,2394.45 1109.11,2393.76 1110.35,2393.21 C1110.04,2392.4 1109.42,2391.79 1108.49,2391.35 C1107.13,2390.55 1105.52,2390.15 1103.67,2390.15 M1108.21,2428.09 C1107.1,2425.18 1104.66,2423.73 1100.88,2423.73 C1097.11,2423.73 1094.78,2425.18 1093.88,2428.09 C1092.98,2431 1092.53,2435.42 1092.53,2441.36 C1092.53,2448.35 1092.98,2453.05 1093.88,2455.46 C1094.78,2457.87 1097.11,2459.08 1100.88,2459.08 C1104.66,2459.08 1107.1,2457.62 1108.21,2454.72 C1109.33,2451.81 1109.88,2447.37 1109.88,2441.4 C1109.88,2435.44 1109.33,2431 1108.21,2428.09"/>
<path class="FiguredBass" d="M1510.63,2390.15 C1506.05,2390.15 1503,2391.99 1501.49,2395.67 C1499.97,2399.35 1499.21,2404.56 1499.21,2411.3 L1499.21,2422.25 C1502.43,2420.95 1505.21,2420.27 1507.56,2420.21 C1515.6,2420.21 1521.93,2421.98 1526.54,2425.54 C1531.14,2429.1 1533.45,2434.38 1533.45,2441.4 C1533.45,2448.42 1531.11,2453.73 1526.44,2457.31 C1521.77,2460.9 1515.48,2462.7 1507.56,2462.7 C1499.46,2462.7 1493.12,2458.94 1488.54,2451.42 C1483.97,2443.91 1481.68,2434.99 1481.68,2424.66 C1481.68,2414.39 1484.34,2405.49 1489.66,2397.94 C1494.98,2390.39 1501.97,2386.62 1510.63,2386.62 C1516.32,2386.62 1521.23,2388.06 1525.38,2390.94 C1529.52,2393.81 1531.59,2397.6 1531.59,2402.3 C1531.59,2405.02 1530.6,2407.37 1528.62,2409.35 C1526.64,2411.33 1524.28,2412.32 1521.53,2412.32 C1518.77,2412.32 1516.41,2411.33 1514.43,2409.35 C1512.45,2407.37 1511.46,2405.02 1511.46,2402.3 C1511.46,2399.64 1512.45,2397.29 1514.43,2395.25 C1515.11,2394.45 1516.07,2393.76 1517.3,2393.21 C1517,2392.4 1516.38,2391.79 1515.45,2391.35 C1514.09,2390.55 1512.48,2390.15 1510.63,2390.15 M1515.17,2428.09 C1514.06,2425.18 1511.61,2423.73 1507.84,2423.73 C1504.07,2423.73 1501.73,2425.18 1500.84,2428.09 C1499.94,2431 1499.49,2435.42 1499.49,2441.36 C1499.49,2448.35 1499.94,2453.05 1500.84,2455.46 C1501.73,2457.87 1504.07,2459.08 1507.84,2459.08 C1511.61,2459.08 1514.06,2457.62 1515.17,2454.72 C1516.28,2451.81 1516.84,2447.37 1516.84,2441.4 C1516.84,2435.44 1516.28,2431 1515.17,2428.09"/>
<path class="FiguredBass" d="M2026.58,2390.15 C2022.01,2390.15 2018.96,2391.99 2017.45,2395.67 C2015.93,2399.35 2015.17,2404.56 2015.17,2411.3 L2015.17,2422.25 C2018.39,2420.95 2021.17,2420.27 2023.52,2420.21 C2031.56,2420.21 2037.89,2421.98 2042.5,2425.54 C2047.1,2429.1 2049.41,2434.38 2049.41,2441.4 C2049.41,2448.42 2047.07,2453.73 2042.4,2457.31 C2037.73,2460.9 2031.44,2462.7 2023.52,2462.7 C2015.42,2462.7 2009.08,2458.94 2004.5,2451.42 C1999.93,2443.91 1997.64,2434.99 1997.64,2424.66 C1997.64,2414.39 2000.3,2405.49 2005.62,2397.94 C2010.94,2390.39 2017.93,2386.62 2026.58,2386.62 C2032.27,2386.62 2037.19,2388.06 2041.34,2390.94 C2045.48,2393.81 2047.55,2397.6 2047.55,2402.3 C2047.55,2405.02 2046.56,2407.37 2044.58,2409.35 C2042.6,2411.33 2040.24,2412.32 2037.49,2412.32 C2034.73,2412.32 2032.37,2411.33 2030.39,2409.35 C2028.41,2407.37 2027.42,2405.02 2027.42,2402.3 C2027.42,2399.64 2028.41,2397.29 2030.39,2395.25 C2031.07,2394.45 2032.03,2393.76 2033.26,2393.21 C2032.96,2392.4 2032.34,2391.79 2031.41,2391.35 C2030.05,2390.55 2028.44,2390.15 2026.58,2390.15 M2031.13,2428.09 C2030.02,2425.18 2027.57,2423.73 2023.8,2423.73 C2020.03,2423.73 2017.69,2425.18 2016.8,2428.09 C2015.9,2431 2015.45,2435.42 2015.45,2441.36 C2015.45,2448.35 2015.9,2453.05 2016.8,2455.46 C2017.69,2457.87 2020.03,2459.08 2023.8,2459.08 C2027.57,2459.08 2030.02,2457.62 2031.13,2454.72 C2032.24,2451.81 2032.8,2447.37 2032.8,2441.4 C2032.8,2435.44 2032.24,2431 2031.13,2428.09"/>
<path class="FiguredBass" d="M2003.95,2492.37 C2003.95,2492.37 2005.43,2492.59 2008.4,2493.02 C2009.7,2493.21 2011.15,2493.39 2012.76,2493.58 C2017.03,2494.07 2021.14,2494.32 2025.1,2494.32 C2029.06,2494.32 2033.23,2494.07 2037.62,2493.58 C2039.36,2493.39 2040.87,2493.21 2042.17,2493.02 L2046.72,2492.37 C2047.64,2492.37 2048.34,2492.68 2048.8,2493.3 C2049.27,2493.92 2049.22,2494.41 2048.66,2494.78 C2039.2,2504.25 2025.87,2508.98 2008.68,2508.98 C2008,2508.98 2007.4,2509.23 2006.87,2509.72 C2006.34,2510.21 2006.08,2510.83 2006.08,2511.58 L2006.08,2526.14 C2010.47,2521.81 2015.79,2519.65 2022.04,2519.65 C2031.07,2519.65 2038.04,2521.67 2042.96,2525.72 C2047.88,2529.77 2050.33,2535.91 2050.33,2544.14 C2050.33,2551.13 2047.55,2556.93 2041.99,2561.53 C2036.42,2566.14 2029.77,2568.45 2022.04,2568.45 C2015.36,2568.45 2009.56,2566.93 2004.64,2563.9 C1999.73,2560.87 1997.27,2556.66 1997.27,2551.28 C1997.27,2548.56 1998.26,2546.2 2000.24,2544.19 C2002.22,2542.18 2004.58,2541.17 2007.33,2541.17 C2010.09,2541.17 2012.42,2542.16 2014.34,2544.14 C2016.26,2546.12 2017.21,2548.5 2017.21,2551.28 C2017.21,2552.52 2016.19,2553.86 2014.15,2555.32 C2012.11,2556.77 2011.09,2558.12 2011.09,2559.35 C2011.09,2563.06 2014.74,2564.92 2022.04,2564.92 C2029.15,2564.92 2032.71,2557.99 2032.71,2544.14 C2032.71,2530.78 2029.15,2524.07 2022.04,2524.01 C2015.67,2524.01 2011.22,2525.31 2008.68,2527.9 C2006.14,2530.5 2004.57,2531.8 2003.95,2531.8 C2002.4,2531.8 2001.66,2531.03 2001.72,2529.48 L2001.72,2494.78 C2001.72,2494.1 2001.94,2493.53 2002.37,2493.07 C2002.8,2492.6 2003.33,2492.37 2003.95,2492.37"/>
<path class="FiguredBass" d="M2472.11,2453.05 L2472.11,2472.44 C2472.11,2474.35 2471.13,2475.31 2469.19,2475.31 C2467.24,2475.31 2466.26,2474.35 2466.26,2472.44 L2466.26,2455.55 L2463.3,2456.76 C2462.99,2456.88 2462.58,2456.94 2462.09,2456.94 C2461.29,2456.94 2460.57,2456.63 2459.96,2456.02 C2459.34,2455.4 2459.03,2454.69 2459.03,2453.88 L2459.03,2444.42 C2459.03,2443.06 2459.68,2442.1 2460.98,2441.54 L2466.26,2439.32 L2466.26,2419.83 L2463.3,2421.04 C2463.11,2421.1 2462.86,2421.13 2462.55,2421.13 C2462.43,2421.13 2462.27,2421.13 2462.09,2421.13 C2461.16,2421.01 2460.42,2420.67 2459.86,2420.11 C2459.31,2419.56 2459.03,2418.91 2459.03,2418.16 L2459.03,2408.7 C2459.03,2407.4 2459.68,2406.47 2460.98,2405.92 L2466.26,2403.69 L2466.26,2383.93 C2466.26,2382.01 2467.24,2381.05 2469.19,2381.05 C2471.13,2381.05 2472.11,2382.01 2472.11,2383.93 L2472.11,2401.28 L2484.08,2396.27 L2484.08,2376.88 C2484.08,2374.96 2485.04,2374 2486.95,2374 C2488.87,2374 2489.83,2374.96 2489.83,2376.88 L2489.83,2393.95 L2493.08,2392.56 C2493.38,2392.44 2493.72,2392.37 2494.1,2392.37 C2494.9,2392.37 2495.63,2392.68 2496.28,2393.3 C2496.93,2393.92 2497.25,2394.63 2497.25,2395.43 L2497.25,2404.9 C2497.25,2406.26 2496.57,2407.22 2495.21,2407.77 L2489.83,2410 L2489.83,2429.58 L2493.08,2428.28 C2493.26,2428.21 2493.48,2428.18 2493.72,2428.18 C2493.85,2428.18 2493.97,2428.18 2494.1,2428.18 C2495.15,2428.37 2495.94,2428.71 2496.46,2429.2 C2496.99,2429.7 2497.25,2430.35 2497.25,2431.15 L2497.25,2440.62 C2497.25,2441.91 2496.57,2442.84 2495.21,2443.4 L2489.83,2445.63 L2489.83,2465.39 C2489.83,2467.3 2488.87,2468.26 2486.95,2468.26 C2485.04,2468.26 2484.08,2467.3 2484.08,2465.39 L2484.08,2448.04 L2472.11,2453.05 M2472.11,2436.9 L2484.08,2431.99 L2484.08,2412.41 L2472.11,2417.42 L2472.11,2436.9 "/>
<path class="FiguredBass" d="M2935.26,2390.15 C2930.68,2390.15 2927.64,2391.99 2926.12,2395.67 C2924.61,2399.35 2923.85,2404.56 2923.85,2411.3 L2923.85,2422.25 C2927.06,2420.95 2929.85,2420.27 2932.2,2420.21 C2940.24,2420.21 2946.56,2421.98 2951.17,2425.54 C2955.78,2429.1 2958.08,2434.38 2958.08,2441.4 C2958.08,2448.42 2955.75,2453.73 2951.08,2457.31 C2946.41,2460.9 2940.11,2462.7 2932.2,2462.7 C2924.1,2462.7 2917.76,2458.94 2913.18,2451.42 C2908.6,2443.91 2906.31,2434.99 2906.31,2424.66 C2906.31,2414.39 2908.97,2405.49 2914.29,2397.94 C2919.61,2390.39 2926.6,2386.62 2935.26,2386.62 C2940.95,2386.62 2945.87,2388.06 2950.01,2390.94 C2954.15,2393.81 2956.23,2397.6 2956.23,2402.3 C2956.23,2405.02 2955.24,2407.37 2953.26,2409.35 C2951.28,2411.33 2948.91,2412.32 2946.16,2412.32 C2943.41,2412.32 2941.04,2411.33 2939.06,2409.35 C2937.08,2407.37 2936.09,2405.02 2936.09,2402.3 C2936.09,2399.64 2937.08,2397.29 2939.06,2395.25 C2939.74,2394.45 2940.7,2393.76 2941.94,2393.21 C2941.63,2392.4 2941.01,2391.79 2940.08,2391.35 C2938.72,2390.55 2937.12,2390.15 2935.26,2390.15 M2939.81,2428.09 C2938.69,2425.18 2936.25,2423.73 2932.48,2423.73 C2928.7,2423.73 2926.37,2425.18 2925.47,2428.09 C2924.58,2431 2924.13,2435.42 2924.13,2441.36 C2924.13,2448.35 2924.58,2453.05 2925.47,2455.46 C2926.37,2457.87 2928.7,2459.08 2932.48,2459.08 C2936.25,2459.08 2938.69,2457.62 2939.81,2454.72 C2940.92,2451.81 2941.48,2447.37 2941.48,2441.4 C2941.48,2435.44 2940.92,2431 2939.81,2428.09"/>
<path class="FiguredBass" d="M3402.28,2390.15 C3397.7,2390.15 3394.65,2391.99 3393.14,2395.67 C3391.62,2399.35 3390.87,2404.56 3390.87,2411.3 L3390.87,2422.25 C3394.08,2420.95 3396.86,2420.27 3399.22,2420.21 C3407.26,2420.21 3413.58,2421.98 3418.19,2425.54 C3422.79,2429.1 3425.1,2434.38 3425.1,2441.4 C3425.1,2448.42 3422.76,2453.73 3418.09,2457.31 C3413.42,2460.9 3407.13,2462.7 3399.22,2462.7 C3391.11,2462.7 3384.77,2458.94 3380.2,2451.42 C3375.62,2443.91 3373.33,2434.99 3373.33,2424.66 C3373.33,2414.39 3375.99,2405.49 3381.31,2397.94 C3386.63,2390.39 3393.62,2386.62 3402.28,2386.62 C3407.97,2386.62 3412.88,2388.06 3417.03,2390.94 C3421.17,2393.81 3423.24,2397.6 3423.24,2402.3 C3423.24,2405.02 3422.25,2407.37 3420.27,2409.35 C3418.3,2411.33 3415.93,2412.32 3413.18,2412.32 C3410.43,2412.32 3408.06,2411.33 3406.08,2409.35 C3404.1,2407.37 3403.11,2405.02 3403.11,2402.3 C3403.11,2399.64 3404.1,2397.29 3406.08,2395.25 C3406.76,2394.45 3407.72,2393.76 3408.96,2393.21 C3408.65,2392.4 3408.03,2391.79 3407.1,2391.35 C3405.74,2390.55 3404.13,2390.15 3402.28,2390.15 M3406.82,2428.09 C3405.71,2425.18 3403.27,2423.73 3399.49,2423.73 C3395.72,2423.73 3393.39,2425.18 3392.49,2428.09 C3391.59,2431 3391.14,2435.42 3391.14,2441.36 C3391.14,2448.35 3391.59,2453.05 3392.49,2455.46 C3393.39,2457.87 3395.72,2459.08 3399.49,2459.08 C3403.27,2459.08 3405.71,2457.62 3406.82,2454.72 C3407.94,2451.81 3408.49,2447.37 3408.49,2441.4 C3408.49,2435.44 3407.94,2431 3406.82,2428.09"/>
<path class="FiguredBass" d="M3379.64,2492.37 L3384.09,2493.02 C3385.27,2493.21 3386.72,2493.39 3388.45,2493.58 C3392.72,2494.07 3396.83,2494.32 3400.79,2494.32 C3404.75,2494.32 3408.93,2494.07 3413.32,2493.58 C3415.05,2493.39 3416.56,2493.21 3417.86,2493.02 L3422.41,2492.37 C3423.34,2492.37 3424.05,2492.68 3424.54,2493.3 C3424.91,2493.79 3424.85,2494.29 3424.36,2494.78 C3414.71,2504.25 3401.38,2508.98 3384.37,2508.98 C3383.69,2508.98 3383.09,2509.23 3382.56,2509.72 C3382.04,2510.21 3381.77,2510.83 3381.77,2511.58 L3381.77,2523.36 C3386.16,2519.03 3391.48,2516.86 3397.73,2516.86 C3406.45,2516.86 3413.25,2518.9 3418.14,2522.99 C3423.46,2518.97 3426.24,2513.83 3426.49,2507.59 C3426.55,2505.61 3427.2,2504 3428.44,2502.76 C3429.8,2501.52 3431.44,2500.91 3433.36,2500.91 C3435.27,2500.91 3436.9,2501.56 3438.23,2502.85 C3439.56,2504.15 3440.22,2505.73 3440.22,2507.59 C3440.22,2517.17 3434.56,2524.44 3423.24,2529.39 C3425.1,2533.04 3426.03,2537.49 3426.03,2542.75 C3426.03,2549.74 3423.24,2555.77 3417.68,2560.84 C3412.11,2565.91 3405.46,2568.45 3397.73,2568.45 C3391.05,2568.45 3385.25,2566.93 3380.34,2563.9 C3375.42,2560.87 3372.96,2556.66 3372.96,2551.28 C3372.96,2548.56 3373.95,2546.2 3375.93,2544.19 C3377.91,2542.18 3380.27,2541.17 3383.03,2541.17 C3385.78,2541.17 3388.11,2542.16 3390.03,2544.14 C3391.95,2546.12 3392.91,2548.5 3392.91,2551.28 C3392.91,2552.52 3391.89,2553.86 3389.84,2555.32 C3387.8,2556.77 3386.78,2558.12 3386.78,2559.35 C3386.78,2563.06 3390.43,2564.92 3397.73,2564.92 C3404.84,2564.92 3408.4,2557.53 3408.4,2542.75 C3408.4,2539.47 3408.21,2536.59 3407.84,2534.12 C3400.36,2535.67 3390.99,2536.87 3379.73,2537.74 C3378.19,2537.86 3377.41,2537.09 3377.41,2535.42 C3377.41,2534.06 3378.19,2533.32 3379.73,2533.19 C3391.11,2532.26 3400.08,2530.78 3406.64,2528.74 C3404.91,2523.79 3401.94,2521.29 3397.73,2521.22 C3391.36,2521.22 3386.91,2522.52 3384.37,2525.12 C3381.84,2527.72 3380.26,2529.02 3379.64,2529.02 C3378.16,2529.02 3377.41,2528.24 3377.41,2526.7 L3377.41,2494.78 C3377.41,2494.16 3377.63,2493.61 3378.06,2493.11 C3378.56,2492.62 3379.08,2492.37 3379.64,2492.37"/>
<path class="Bracket" transform="matrix(8.6315,0,0,8.6315,76.1283,2254.96)" d="M0.92002,-50 C2.69004,-51.88 6.2,-55.8 6.2,-63 C6.2,-72.1 2.25996,-81.32 2.25996,-86.97 C2.25996,-93.06 5.84004,-98.84 5.95,-99 C6.05996,-99.16 6.05,-99.39 5.94004,-99.46 C5.82998,-99.53 5.62002,-99.47 5.49004,-99.32 C5.35996,-99.17 0,-93.75 0,-85.6 C0,-76.75 3.5,-70.58 3.5,-59.07 C3.5,-56.89 2.55996,-53.36 0.1,-50.33 C-0.0799805,-50.17 -0.1,-49.89 0.0599609,-49.7 L0.0700195,-49.69 L0.1,-49.66 C2.55996,-46.63 3.5,-43.1 3.5,-40.92 C3.5,-29.4 0,-23.24 0,-14.39 C0,-6.25 5.35996,-0.8 5.49004,-0.659961 C5.62002,-0.52002 5.8,-0.42998 5.94004,-0.52002 C6.07998,-0.609961 6.07998,-0.77998 5.95,-0.97998 C5.82002,-1.17998 2.25996,-6.92002 2.25996,-13.01 C2.25996,-18.66 6.2,-27.9 6.2,-37 C6.2,-44.3 2.69004,-48.12 0.92002,-50"/>
</svg>
