<?xml version="1.0" encoding="UTF-8" standalone="no"?>
<svg width="4209.44px" height="2976.38px" viewBox="0 0 4209.44 2976.38"
 xmlns="http://www.w3.org/2000/svg" xmlns:xlink="http://www.w3.org/1999/xlink" version="1.2" baseProfile="tiny">
<title>MiMineur (6)</title>
<desc>Generated by MuseScore 3.6.2</desc>
<polyline class="StaffLines" fill="none" stroke="#000000" stroke-width="6.55" stroke-linejoin="bevel" points="153.819,558.425 4138.58,558.425"/>
<polyline class="StaffLines" fill="none" stroke="#000000" stroke-width="6.55" stroke-linejoin="bevel" points="153.819,647.717 4138.58,647.717"/>
<polyline class="StaffLines" fill="none" stroke="#000000" stroke-width="6.55" stroke-linejoin="bevel" points="153.819,737.008 4138.58,737.008"/>
<polyline class="StaffLines" fill="none" stroke="#000000" stroke-width="6.55" stroke-linejoin="bevel" points="153.819,826.299 4138.58,826.299"/>
<polyline class="StaffLines" fill="none" stroke="#000000" stroke-width="6.55" stroke-linejoin="bevel" points="153.819,915.591 4138.58,915.591"/>
<polyline class="StaffLines" fill="none" stroke="#000000" stroke-width="6.55" stroke-linejoin="bevel" points="153.819,1004.88 4138.58,1004.88"/>
<polyline class="StaffLines" fill="none" stroke="#000000" stroke-width="6.55" stroke-linejoin="bevel" points="153.819,1391.81 4138.58,1391.81"/>
<polyline class="StaffLines" fill="none" stroke="#000000" stroke-width="6.55" stroke-linejoin="bevel" points="153.819,1451.34 4138.58,1451.34"/>
<polyline class="StaffLines" fill="none" stroke="#000000" stroke-width="6.55" stroke-linejoin="bevel" points="153.819,1510.87 4138.58,1510.87"/>
<polyline class="StaffLines" fill="none" stroke="#000000" stroke-width="6.55" stroke-linejoin="bevel" points="153.819,1570.39 4138.58,1570.39"/>
<polyline class="StaffLines" fill="none" stroke="#000000" stroke-width="6.55" stroke-linejoin="bevel" points="153.819,1629.92 4138.58,1629.92"/>
<polyline class="StaffLines" fill="none" stroke="#000000" stroke-width="6.55" stroke-linejoin="bevel" points="153.819,2016.85 4138.58,2016.85"/>
<polyline class="StaffLines" fill="none" stroke="#000000" stroke-width="6.55" stroke-linejoin="bevel" points="153.819,2076.38 4138.58,2076.38"/>
<polyline class="StaffLines" fill="none" stroke="#000000" stroke-width="6.55" stroke-linejoin="bevel" points="153.819,2135.91 4138.58,2135.91"/>
<polyline class="StaffLines" fill="none" stroke="#000000" stroke-width="6.55" stroke-linejoin="bevel" points="153.819,2195.43 4138.58,2195.43"/>
<polyline class="StaffLines" fill="none" stroke="#000000" stroke-width="6.55" stroke-linejoin="bevel" points="153.819,2254.96 4138.58,2254.96"/>
<polyline class="BarLine" fill="none" stroke="#000000" stroke-width="10.71" stroke-linejoin="bevel" points="159.176,2013.58 159.176,2258.23"/>
<polyline class="BarLine" fill="none" stroke="#000000" stroke-width="10.71" stroke-linejoin="bevel" points="1022.73,2013.58 1022.73,2258.23"/>
<polyline class="BarLine" fill="none" stroke="#000000" stroke-width="10.71" stroke-linejoin="bevel" points="1424.24,2013.58 1424.24,2258.23"/>
<polyline class="BarLine" fill="none" stroke="#000000" stroke-width="10.71" stroke-linejoin="bevel" points="1456.98,2013.58 1456.98,2258.23"/>
<polyline class="BarLine" fill="none" stroke="#000000" stroke-width="10.71" stroke-linejoin="bevel" points="1878.49,2013.58 1878.49,2258.23"/>
<polyline class="BarLine" fill="none" stroke="#000000" stroke-width="10.71" stroke-linejoin="bevel" points="2280,2013.58 2280,2258.23"/>
<polyline class="BarLine" fill="none" stroke="#000000" stroke-width="10.71" stroke-linejoin="bevel" points="2312.74,2013.58 2312.74,2258.23"/>
<polyline class="BarLine" fill="none" stroke="#000000" stroke-width="10.71" stroke-linejoin="bevel" points="2750.2,2013.58 2750.2,2258.23"/>
<polyline class="BarLine" fill="none" stroke="#000000" stroke-width="10.71" stroke-linejoin="bevel" points="3187.65,2013.58 3187.65,2258.23"/>
<polyline class="BarLine" fill="none" stroke="#000000" stroke-width="10.71" stroke-linejoin="bevel" points="3220.39,2013.58 3220.39,2258.23"/>
<polyline class="BarLine" fill="none" stroke="#000000" stroke-width="10.71" stroke-linejoin="bevel" points="3643.09,2013.58 3643.09,2258.23"/>
<polyline class="BarLine" fill="none" stroke="#000000" stroke-width="10.71" stroke-linejoin="bevel" points="4080.54,2013.58 4080.54,2258.23"/>
<polyline class="BarLine" fill="none" stroke="#000000" stroke-width="32.74" stroke-linejoin="bevel" points="4122.21,2013.58 4122.21,2258.23"/>
<polyline class="BarLine" fill="none" stroke="#000000" stroke-width="10.71" stroke-linejoin="bevel" points="159.176,1388.54 159.176,2016.85"/>
<polyline class="BarLine" fill="none" stroke="#000000" stroke-width="10.71" stroke-linejoin="bevel" points="1022.73,1388.54 1022.73,1633.2"/>
<polyline class="BarLine" fill="none" stroke="#000000" stroke-width="10.71" stroke-linejoin="bevel" points="1424.24,1388.54 1424.24,1633.2"/>
<polyline class="BarLine" fill="none" stroke="#000000" stroke-width="10.71" stroke-linejoin="bevel" points="1456.98,1388.54 1456.98,1633.2"/>
<polyline class="BarLine" fill="none" stroke="#000000" stroke-width="10.71" stroke-linejoin="bevel" points="1878.49,1388.54 1878.49,1633.2"/>
<polyline class="BarLine" fill="none" stroke="#000000" stroke-width="10.71" stroke-linejoin="bevel" points="2280,1388.54 2280,1633.2"/>
<polyline class="BarLine" fill="none" stroke="#000000" stroke-width="10.71" stroke-linejoin="bevel" points="2312.74,1388.54 2312.74,1633.2"/>
<polyline class="BarLine" fill="none" stroke="#000000" stroke-width="10.71" stroke-linejoin="bevel" points="2750.2,1388.54 2750.2,1633.2"/>
<polyline class="BarLine" fill="none" stroke="#000000" stroke-width="10.71" stroke-linejoin="bevel" points="3187.65,1388.54 3187.65,1633.2"/>
<polyline class="BarLine" fill="none" stroke="#000000" stroke-width="10.71" stroke-linejoin="bevel" points="3220.39,1388.54 3220.39,1633.2"/>
<polyline class="BarLine" fill="none" stroke="#000000" stroke-width="10.71" stroke-linejoin="bevel" points="3643.09,1388.54 3643.09,1633.2"/>
<polyline class="BarLine" fill="none" stroke="#000000" stroke-width="10.71" stroke-linejoin="bevel" points="4080.54,1388.54 4080.54,1633.2"/>
<polyline class="BarLine" fill="none" stroke="#000000" stroke-width="32.74" stroke-linejoin="bevel" points="4122.21,1388.54 4122.21,1633.2"/>
<polyline class="BarLine" fill="none" stroke="#000000" stroke-width="10.71" stroke-linejoin="bevel" points="159.176,555.151 159.176,1391.81"/>
<polyline class="BarLine" fill="none" stroke="#000000" stroke-width="10.71" stroke-linejoin="bevel" points="1022.73,555.151 1022.73,1008.16"/>
<polyline class="BarLine" fill="none" stroke="#000000" stroke-width="10.71" stroke-linejoin="bevel" points="1424.24,555.151 1424.24,1008.16"/>
<polyline class="BarLine" fill="none" stroke="#000000" stroke-width="10.71" stroke-linejoin="bevel" points="1456.98,555.151 1456.98,1008.16"/>
<polyline class="BarLine" fill="none" stroke="#000000" stroke-width="10.71" stroke-linejoin="bevel" points="1878.49,555.151 1878.49,1008.16"/>
<polyline class="BarLine" fill="none" stroke="#000000" stroke-width="10.71" stroke-linejoin="bevel" points="2280,555.151 2280,1008.16"/>
<polyline class="BarLine" fill="none" stroke="#000000" stroke-width="10.71" stroke-linejoin="bevel" points="2312.74,555.151 2312.74,1008.16"/>
<polyline class="BarLine" fill="none" stroke="#000000" stroke-width="10.71" stroke-linejoin="bevel" points="2750.2,555.151 2750.2,1008.16"/>
<polyline class="BarLine" fill="none" stroke="#000000" stroke-width="10.71" stroke-linejoin="bevel" points="3187.65,555.151 3187.65,1008.16"/>
<polyline class="BarLine" fill="none" stroke="#000000" stroke-width="10.71" stroke-linejoin="bevel" points="3220.39,555.151 3220.39,1008.16"/>
<polyline class="BarLine" fill="none" stroke="#000000" stroke-width="10.71" stroke-linejoin="bevel" points="3643.09,555.151 3643.09,1008.16"/>
<polyline class="BarLine" fill="none" stroke="#000000" stroke-width="10.71" stroke-linejoin="bevel" points="4080.54,555.151 4080.54,1008.16"/>
<polyline class="BarLine" fill="none" stroke="#000000" stroke-width="32.74" stroke-linejoin="bevel" points="4122.21,555.151 4122.21,1008.16"/>
<path class="Accidental" transform="matrix(2.3811,0,0,2.3811,636.699,2135.91)" d="M23.3,-10.6 C23.9,-10.7 24.4,-11.4 24.4,-12 L24.4,-17.9 C24.4,-18.7 23.8,-19.3 23,-19.3 L22.8,-19.3 L19.5,-18.6 L19.5,-33.5 L16.7,-33.5 L16.7,-18 L7.8,-16.2 L7.8,-30.3 L5,-30.3 L5,-15.6 L1.1,-14.8 C0.5,-14.7 0,-14 0,-13.4 L0,-13.2 L0,-7.4 L0,-7.6 C0,-6.8 0.6,-6.2 1.4,-6.2 L1.7,-6.2 L5,-6.9 L5,9.6 L1.1,10.4 C0.5,10.5 0,11.2 0,11.8 L0,17.6 C0,18.4 0.6,19 1.4,19 L1.7,19 L5,18.3 L5,33.2 L7.8,33.2 L7.8,17.7 L16.7,15.9 L16.7,30 L19.5,30 L19.5,15.3 L23.3,14.6 C23.9,14.5 24.4,13.8 24.4,13.2 L24.4,7.3 C24.4,6.5 23.8,5.9 23,5.9 L22.8,5.9 L19.5,6.6 L19.5,-9.9 L23.3,-10.6 M7.8,9.1 L7.8,-7.5 L16.7,-9.3 L16.7,7.2 L7.8,9.1 "/>
<path class="Accidental" transform="matrix(2.3811,0,0,2.3811,2801.62,2165.67)" d="M23.3,-10.6 C23.9,-10.7 24.4,-11.4 24.4,-12 L24.4,-17.9 C24.4,-18.7 23.8,-19.3 23,-19.3 L22.8,-19.3 L19.5,-18.6 L19.5,-33.5 L16.7,-33.5 L16.7,-18 L7.8,-16.2 L7.8,-30.3 L5,-30.3 L5,-15.6 L1.1,-14.8 C0.5,-14.7 0,-14 0,-13.4 L0,-13.2 L0,-7.4 L0,-7.6 C0,-6.8 0.6,-6.2 1.4,-6.2 L1.7,-6.2 L5,-6.9 L5,9.6 L1.1,10.4 C0.5,10.5 0,11.2 0,11.8 L0,17.6 C0,18.4 0.6,19 1.4,19 L1.7,19 L5,18.3 L5,33.2 L7.8,33.2 L7.8,17.7 L16.7,15.9 L16.7,30 L19.5,30 L19.5,15.3 L23.3,14.6 C23.9,14.5 24.4,13.8 24.4,13.2 L24.4,7.3 C24.4,6.5 23.8,5.9 23,5.9 L22.8,5.9 L19.5,6.6 L19.5,-9.9 L23.3,-10.6 M7.8,9.1 L7.8,-7.5 L16.7,-9.3 L16.7,7.2 L7.8,9.1 "/>
<path class="Accidental" transform="matrix(2.3811,0,0,2.3811,2364.17,1659.69)" d="M23.3,-10.6 C23.9,-10.7 24.4,-11.4 24.4,-12 L24.4,-17.9 C24.4,-18.7 23.8,-19.3 23,-19.3 L22.8,-19.3 L19.5,-18.6 L19.5,-33.5 L16.7,-33.5 L16.7,-18 L7.8,-16.2 L7.8,-30.3 L5,-30.3 L5,-15.6 L1.1,-14.8 C0.5,-14.7 0,-14 0,-13.4 L0,-13.2 L0,-7.4 L0,-7.6 C0,-6.8 0.6,-6.2 1.4,-6.2 L1.7,-6.2 L5,-6.9 L5,9.6 L1.1,10.4 C0.5,10.5 0,11.2 0,11.8 L0,17.6 C0,18.4 0.6,19 1.4,19 L1.7,19 L5,18.3 L5,33.2 L7.8,33.2 L7.8,17.7 L16.7,15.9 L16.7,30 L19.5,30 L19.5,15.3 L23.3,14.6 C23.9,14.5 24.4,13.8 24.4,13.2 L24.4,7.3 C24.4,6.5 23.8,5.9 23,5.9 L22.8,5.9 L19.5,6.6 L19.5,-9.9 L23.3,-10.6 M7.8,9.1 L7.8,-7.5 L16.7,-9.3 L16.7,7.2 L7.8,9.1 "/>
<path class="Accidental" transform="matrix(2.3811,0,0,2.3811,3694.51,1659.69)" d="M23.3,-10.6 C23.9,-10.7 24.4,-11.4 24.4,-12 L24.4,-17.9 C24.4,-18.7 23.8,-19.3 23,-19.3 L22.8,-19.3 L19.5,-18.6 L19.5,-33.5 L16.7,-33.5 L16.7,-18 L7.8,-16.2 L7.8,-30.3 L5,-30.3 L5,-15.6 L1.1,-14.8 C0.5,-14.7 0,-14 0,-13.4 L0,-13.2 L0,-7.4 L0,-7.6 C0,-6.8 0.6,-6.2 1.4,-6.2 L1.7,-6.2 L5,-6.9 L5,9.6 L1.1,10.4 C0.5,10.5 0,11.2 0,11.8 L0,17.6 C0,18.4 0.6,19 1.4,19 L1.7,19 L5,18.3 L5,33.2 L7.8,33.2 L7.8,17.7 L16.7,15.9 L16.7,30 L19.5,30 L19.5,15.3 L23.3,14.6 C23.9,14.5 24.4,13.8 24.4,13.2 L24.4,7.3 C24.4,6.5 23.8,5.9 23,5.9 L22.8,5.9 L19.5,6.6 L19.5,-9.9 L23.3,-10.6 M7.8,9.1 L7.8,-7.5 L16.7,-9.3 L16.7,7.2 L7.8,9.1 "/>
<path class="Note" transform="matrix(2.3811,0,0,2.3811,709.676,2135.91)" d="M18.7,-13.6 C4.9,-13.6 0,-6.6 0,-0.1 C0,6.4 4.9,13.4 18.7,13.4 C32.5,13.4 37.3,6.4 37.3,-0.1 C37.3,-6.6 32.5,-13.6 18.7,-13.6 M10.4,-4.5 C10.3,-4.9 10.3,-5.3 10.3,-5.7 C10.3,-6.5 10.5,-7.3 10.9,-8 C11.6,-9 12.8,-9.7 14.3,-10 C15.6,-10.3 16.3,-10.5 18.9,-10.5 L19,-10.5 C23,-10.5 24.3,-6.8 25.4,-3 L25.7,-2 C26.5,0.6 26.9,2.8 26.9,4.5 C26.9,5.7 26.7,6.8 26.3,7.6 C25.7,8.7 24.7,9.4 23,9.8 C22.1,10 20.6,10.1 20.6,10.1 C20.1,10.1 19.7,10.2 19.3,10.2 C16.1,10.2 14.1,9 12.7,4.7 C11.5,1 11.3,-0.1 10.4,-4.5"/>
<path class="Note" transform="matrix(2.3811,0,0,2.3811,1111.19,2106.14)" d="M18.7,-13.6 C4.9,-13.6 0,-6.6 0,-0.1 C0,6.4 4.9,13.4 18.7,13.4 C32.5,13.4 37.3,6.4 37.3,-0.1 C37.3,-6.6 32.5,-13.6 18.7,-13.6 M10.4,-4.5 C10.3,-4.9 10.3,-5.3 10.3,-5.7 C10.3,-6.5 10.5,-7.3 10.9,-8 C11.6,-9 12.8,-9.7 14.3,-10 C15.6,-10.3 16.3,-10.5 18.9,-10.5 L19,-10.5 C23,-10.5 24.3,-6.8 25.4,-3 L25.7,-2 C26.5,0.6 26.9,2.8 26.9,4.5 C26.9,5.7 26.7,6.8 26.3,7.6 C25.7,8.7 24.7,9.4 23,9.8 C22.1,10 20.6,10.1 20.6,10.1 C20.1,10.1 19.7,10.2 19.3,10.2 C16.1,10.2 14.1,9 12.7,4.7 C11.5,1 11.3,-0.1 10.4,-4.5"/>
<path class="Note" transform="matrix(2.3811,0,0,2.3811,1545.44,2106.14)" d="M18.7,-13.6 C4.9,-13.6 0,-6.6 0,-0.1 C0,6.4 4.9,13.4 18.7,13.4 C32.5,13.4 37.3,6.4 37.3,-0.1 C37.3,-6.6 32.5,-13.6 18.7,-13.6 M10.4,-4.5 C10.3,-4.9 10.3,-5.3 10.3,-5.7 C10.3,-6.5 10.5,-7.3 10.9,-8 C11.6,-9 12.8,-9.7 14.3,-10 C15.6,-10.3 16.3,-10.5 18.9,-10.5 L19,-10.5 C23,-10.5 24.3,-6.8 25.4,-3 L25.7,-2 C26.5,0.6 26.9,2.8 26.9,4.5 C26.9,5.7 26.7,6.8 26.3,7.6 C25.7,8.7 24.7,9.4 23,9.8 C22.1,10 20.6,10.1 20.6,10.1 C20.1,10.1 19.7,10.2 19.3,10.2 C16.1,10.2 14.1,9 12.7,4.7 C11.5,1 11.3,-0.1 10.4,-4.5"/>
<path class="Note" transform="matrix(2.3811,0,0,2.3811,1966.95,2135.91)" d="M18.7,-13.6 C4.9,-13.6 0,-6.6 0,-0.1 C0,6.4 4.9,13.4 18.7,13.4 C32.5,13.4 37.3,6.4 37.3,-0.1 C37.3,-6.6 32.5,-13.6 18.7,-13.6 M10.4,-4.5 C10.3,-4.9 10.3,-5.3 10.3,-5.7 C10.3,-6.5 10.5,-7.3 10.9,-8 C11.6,-9 12.8,-9.7 14.3,-10 C15.6,-10.3 16.3,-10.5 18.9,-10.5 L19,-10.5 C23,-10.5 24.3,-6.8 25.4,-3 L25.7,-2 C26.5,0.6 26.9,2.8 26.9,4.5 C26.9,5.7 26.7,6.8 26.3,7.6 C25.7,8.7 24.7,9.4 23,9.8 C22.1,10 20.6,10.1 20.6,10.1 C20.1,10.1 19.7,10.2 19.3,10.2 C16.1,10.2 14.1,9 12.7,4.7 C11.5,1 11.3,-0.1 10.4,-4.5"/>
<path class="Note" transform="matrix(2.3811,0,0,2.3811,2437.15,2195.43)" d="M18.7,-13.6 C4.9,-13.6 0,-6.6 0,-0.1 C0,6.4 4.9,13.4 18.7,13.4 C32.5,13.4 37.3,6.4 37.3,-0.1 C37.3,-6.6 32.5,-13.6 18.7,-13.6 M10.4,-4.5 C10.3,-4.9 10.3,-5.3 10.3,-5.7 C10.3,-6.5 10.5,-7.3 10.9,-8 C11.6,-9 12.8,-9.7 14.3,-10 C15.6,-10.3 16.3,-10.5 18.9,-10.5 L19,-10.5 C23,-10.5 24.3,-6.8 25.4,-3 L25.7,-2 C26.5,0.6 26.9,2.8 26.9,4.5 C26.9,5.7 26.7,6.8 26.3,7.6 C25.7,8.7 24.7,9.4 23,9.8 C22.1,10 20.6,10.1 20.6,10.1 C20.1,10.1 19.7,10.2 19.3,10.2 C16.1,10.2 14.1,9 12.7,4.7 C11.5,1 11.3,-0.1 10.4,-4.5"/>
<path class="Note" transform="matrix(2.3811,0,0,2.3811,2874.6,2165.67)" d="M18.7,-13.6 C4.9,-13.6 0,-6.6 0,-0.1 C0,6.4 4.9,13.4 18.7,13.4 C32.5,13.4 37.3,6.4 37.3,-0.1 C37.3,-6.6 32.5,-13.6 18.7,-13.6 M10.4,-4.5 C10.3,-4.9 10.3,-5.3 10.3,-5.7 C10.3,-6.5 10.5,-7.3 10.9,-8 C11.6,-9 12.8,-9.7 14.3,-10 C15.6,-10.3 16.3,-10.5 18.9,-10.5 L19,-10.5 C23,-10.5 24.3,-6.8 25.4,-3 L25.7,-2 C26.5,0.6 26.9,2.8 26.9,4.5 C26.9,5.7 26.7,6.8 26.3,7.6 C25.7,8.7 24.7,9.4 23,9.8 C22.1,10 20.6,10.1 20.6,10.1 C20.1,10.1 19.7,10.2 19.3,10.2 C16.1,10.2 14.1,9 12.7,4.7 C11.5,1 11.3,-0.1 10.4,-4.5"/>
<path class="Note" transform="matrix(2.3811,0,0,2.3811,3303.13,2165.67)" d="M18.7,-13.6 C4.9,-13.6 0,-6.6 0,-0.1 C0,6.4 4.9,13.4 18.7,13.4 C32.5,13.4 37.3,6.4 37.3,-0.1 C37.3,-6.6 32.5,-13.6 18.7,-13.6 M10.4,-4.5 C10.3,-4.9 10.3,-5.3 10.3,-5.7 C10.3,-6.5 10.5,-7.3 10.9,-8 C11.6,-9 12.8,-9.7 14.3,-10 C15.6,-10.3 16.3,-10.5 18.9,-10.5 L19,-10.5 C23,-10.5 24.3,-6.8 25.4,-3 L25.7,-2 C26.5,0.6 26.9,2.8 26.9,4.5 C26.9,5.7 26.7,6.8 26.3,7.6 C25.7,8.7 24.7,9.4 23,9.8 C22.1,10 20.6,10.1 20.6,10.1 C20.1,10.1 19.7,10.2 19.3,10.2 C16.1,10.2 14.1,9 12.7,4.7 C11.5,1 11.3,-0.1 10.4,-4.5"/>
<path class="Note" transform="matrix(2.3811,0,0,2.3811,3767.49,2195.43)" d="M18.7,-13.6 C4.9,-13.6 0,-6.6 0,-0.1 C0,6.4 4.9,13.4 18.7,13.4 C32.5,13.4 37.3,6.4 37.3,-0.1 C37.3,-6.6 32.5,-13.6 18.7,-13.6 M10.4,-4.5 C10.3,-4.9 10.3,-5.3 10.3,-5.7 C10.3,-6.5 10.5,-7.3 10.9,-8 C11.6,-9 12.8,-9.7 14.3,-10 C15.6,-10.3 16.3,-10.5 18.9,-10.5 L19,-10.5 C23,-10.5 24.3,-6.8 25.4,-3 L25.7,-2 C26.5,0.6 26.9,2.8 26.9,4.5 C26.9,5.7 26.7,6.8 26.3,7.6 C25.7,8.7 24.7,9.4 23,9.8 C22.1,10 20.6,10.1 20.6,10.1 C20.1,10.1 19.7,10.2 19.3,10.2 C16.1,10.2 14.1,9 12.7,4.7 C11.5,1 11.3,-0.1 10.4,-4.5"/>
<path class="Note" transform="matrix(2.3811,0,0,2.3811,709.676,1600.16)" d="M18.7,-13.6 C4.9,-13.6 0,-6.6 0,-0.1 C0,6.4 4.9,13.4 18.7,13.4 C32.5,13.4 37.3,6.4 37.3,-0.1 C37.3,-6.6 32.5,-13.6 18.7,-13.6 M10.4,-4.5 C10.3,-4.9 10.3,-5.3 10.3,-5.7 C10.3,-6.5 10.5,-7.3 10.9,-8 C11.6,-9 12.8,-9.7 14.3,-10 C15.6,-10.3 16.3,-10.5 18.9,-10.5 L19,-10.5 C23,-10.5 24.3,-6.8 25.4,-3 L25.7,-2 C26.5,0.6 26.9,2.8 26.9,4.5 C26.9,5.7 26.7,6.8 26.3,7.6 C25.7,8.7 24.7,9.4 23,9.8 C22.1,10 20.6,10.1 20.6,10.1 C20.1,10.1 19.7,10.2 19.3,10.2 C16.1,10.2 14.1,9 12.7,4.7 C11.5,1 11.3,-0.1 10.4,-4.5"/>
<path class="Note" transform="matrix(2.3811,0,0,2.3811,709.676,1510.87)" d="M18.7,-13.6 C4.9,-13.6 0,-6.6 0,-0.1 C0,6.4 4.9,13.4 18.7,13.4 C32.5,13.4 37.3,6.4 37.3,-0.1 C37.3,-6.6 32.5,-13.6 18.7,-13.6 M10.4,-4.5 C10.3,-4.9 10.3,-5.3 10.3,-5.7 C10.3,-6.5 10.5,-7.3 10.9,-8 C11.6,-9 12.8,-9.7 14.3,-10 C15.6,-10.3 16.3,-10.5 18.9,-10.5 L19,-10.5 C23,-10.5 24.3,-6.8 25.4,-3 L25.7,-2 C26.5,0.6 26.9,2.8 26.9,4.5 C26.9,5.7 26.7,6.8 26.3,7.6 C25.7,8.7 24.7,9.4 23,9.8 C22.1,10 20.6,10.1 20.6,10.1 C20.1,10.1 19.7,10.2 19.3,10.2 C16.1,10.2 14.1,9 12.7,4.7 C11.5,1 11.3,-0.1 10.4,-4.5"/>
<path class="Note" transform="matrix(2.3811,0,0,2.3811,1111.19,1629.92)" d="M18.7,-13.6 C4.9,-13.6 0,-6.6 0,-0.1 C0,6.4 4.9,13.4 18.7,13.4 C32.5,13.4 37.3,6.4 37.3,-0.1 C37.3,-6.6 32.5,-13.6 18.7,-13.6 M10.4,-4.5 C10.3,-4.9 10.3,-5.3 10.3,-5.7 C10.3,-6.5 10.5,-7.3 10.9,-8 C11.6,-9 12.8,-9.7 14.3,-10 C15.6,-10.3 16.3,-10.5 18.9,-10.5 L19,-10.5 C23,-10.5 24.3,-6.8 25.4,-3 L25.7,-2 C26.5,0.6 26.9,2.8 26.9,4.5 C26.9,5.7 26.7,6.8 26.3,7.6 C25.7,8.7 24.7,9.4 23,9.8 C22.1,10 20.6,10.1 20.6,10.1 C20.1,10.1 19.7,10.2 19.3,10.2 C16.1,10.2 14.1,9 12.7,4.7 C11.5,1 11.3,-0.1 10.4,-4.5"/>
<path class="Note" transform="matrix(2.3811,0,0,2.3811,1111.19,1570.39)" d="M18.7,-13.6 C4.9,-13.6 0,-6.6 0,-0.1 C0,6.4 4.9,13.4 18.7,13.4 C32.5,13.4 37.3,6.4 37.3,-0.1 C37.3,-6.6 32.5,-13.6 18.7,-13.6 M10.4,-4.5 C10.3,-4.9 10.3,-5.3 10.3,-5.7 C10.3,-6.5 10.5,-7.3 10.9,-8 C11.6,-9 12.8,-9.7 14.3,-10 C15.6,-10.3 16.3,-10.5 18.9,-10.5 L19,-10.5 C23,-10.5 24.3,-6.8 25.4,-3 L25.7,-2 C26.5,0.6 26.9,2.8 26.9,4.5 C26.9,5.7 26.7,6.8 26.3,7.6 C25.7,8.7 24.7,9.4 23,9.8 C22.1,10 20.6,10.1 20.6,10.1 C20.1,10.1 19.7,10.2 19.3,10.2 C16.1,10.2 14.1,9 12.7,4.7 C11.5,1 11.3,-0.1 10.4,-4.5"/>
<path class="Note" transform="matrix(2.3811,0,0,2.3811,1111.19,1510.87)" d="M18.7,-13.6 C4.9,-13.6 0,-6.6 0,-0.1 C0,6.4 4.9,13.4 18.7,13.4 C32.5,13.4 37.3,6.4 37.3,-0.1 C37.3,-6.6 32.5,-13.6 18.7,-13.6 M10.4,-4.5 C10.3,-4.9 10.3,-5.3 10.3,-5.7 C10.3,-6.5 10.5,-7.3 10.9,-8 C11.6,-9 12.8,-9.7 14.3,-10 C15.6,-10.3 16.3,-10.5 18.9,-10.5 L19,-10.5 C23,-10.5 24.3,-6.8 25.4,-3 L25.7,-2 C26.5,0.6 26.9,2.8 26.9,4.5 C26.9,5.7 26.7,6.8 26.3,7.6 C25.7,8.7 24.7,9.4 23,9.8 C22.1,10 20.6,10.1 20.6,10.1 C20.1,10.1 19.7,10.2 19.3,10.2 C16.1,10.2 14.1,9 12.7,4.7 C11.5,1 11.3,-0.1 10.4,-4.5"/>
<path class="Note" transform="matrix(2.3811,0,0,2.3811,1545.44,1629.92)" d="M18.7,-13.6 C4.9,-13.6 0,-6.6 0,-0.1 C0,6.4 4.9,13.4 18.7,13.4 C32.5,13.4 37.3,6.4 37.3,-0.1 C37.3,-6.6 32.5,-13.6 18.7,-13.6 M10.4,-4.5 C10.3,-4.9 10.3,-5.3 10.3,-5.7 C10.3,-6.5 10.5,-7.3 10.9,-8 C11.6,-9 12.8,-9.7 14.3,-10 C15.6,-10.3 16.3,-10.5 18.9,-10.5 L19,-10.5 C23,-10.5 24.3,-6.8 25.4,-3 L25.7,-2 C26.5,0.6 26.9,2.8 26.9,4.5 C26.9,5.7 26.7,6.8 26.3,7.6 C25.7,8.7 24.7,9.4 23,9.8 C22.1,10 20.6,10.1 20.6,10.1 C20.1,10.1 19.7,10.2 19.3,10.2 C16.1,10.2 14.1,9 12.7,4.7 C11.5,1 11.3,-0.1 10.4,-4.5"/>
<path class="Note" transform="matrix(2.3811,0,0,2.3811,1545.44,1570.39)" d="M18.7,-13.6 C4.9,-13.6 0,-6.6 0,-0.1 C0,6.4 4.9,13.4 18.7,13.4 C32.5,13.4 37.3,6.4 37.3,-0.1 C37.3,-6.6 32.5,-13.6 18.7,-13.6 M10.4,-4.5 C10.3,-4.9 10.3,-5.3 10.3,-5.7 C10.3,-6.5 10.5,-7.3 10.9,-8 C11.6,-9 12.8,-9.7 14.3,-10 C15.6,-10.3 16.3,-10.5 18.9,-10.5 L19,-10.5 C23,-10.5 24.3,-6.8 25.4,-3 L25.7,-2 C26.5,0.6 26.9,2.8 26.9,4.5 C26.9,5.7 26.7,6.8 26.3,7.6 C25.7,8.7 24.7,9.4 23,9.8 C22.1,10 20.6,10.1 20.6,10.1 C20.1,10.1 19.7,10.2 19.3,10.2 C16.1,10.2 14.1,9 12.7,4.7 C11.5,1 11.3,-0.1 10.4,-4.5"/>
<path class="Note" transform="matrix(2.3811,0,0,2.3811,1545.44,1510.87)" d="M18.7,-13.6 C4.9,-13.6 0,-6.6 0,-0.1 C0,6.4 4.9,13.4 18.7,13.4 C32.5,13.4 37.3,6.4 37.3,-0.1 C37.3,-6.6 32.5,-13.6 18.7,-13.6 M10.4,-4.5 C10.3,-4.9 10.3,-5.3 10.3,-5.7 C10.3,-6.5 10.5,-7.3 10.9,-8 C11.6,-9 12.8,-9.7 14.3,-10 C15.6,-10.3 16.3,-10.5 18.9,-10.5 L19,-10.5 C23,-10.5 24.3,-6.8 25.4,-3 L25.7,-2 C26.5,0.6 26.9,2.8 26.9,4.5 C26.9,5.7 26.7,6.8 26.3,7.6 C25.7,8.7 24.7,9.4 23,9.8 C22.1,10 20.6,10.1 20.6,10.1 C20.1,10.1 19.7,10.2 19.3,10.2 C16.1,10.2 14.1,9 12.7,4.7 C11.5,1 11.3,-0.1 10.4,-4.5"/>
<path class="Note" transform="matrix(2.3811,0,0,2.3811,1966.95,1600.16)" d="M18.7,-13.6 C4.9,-13.6 0,-6.6 0,-0.1 C0,6.4 4.9,13.4 18.7,13.4 C32.5,13.4 37.3,6.4 37.3,-0.1 C37.3,-6.6 32.5,-13.6 18.7,-13.6 M10.4,-4.5 C10.3,-4.9 10.3,-5.3 10.3,-5.7 C10.3,-6.5 10.5,-7.3 10.9,-8 C11.6,-9 12.8,-9.7 14.3,-10 C15.6,-10.3 16.3,-10.5 18.9,-10.5 L19,-10.5 C23,-10.5 24.3,-6.8 25.4,-3 L25.7,-2 C26.5,0.6 26.9,2.8 26.9,4.5 C26.9,5.7 26.7,6.8 26.3,7.6 C25.7,8.7 24.7,9.4 23,9.8 C22.1,10 20.6,10.1 20.6,10.1 C20.1,10.1 19.7,10.2 19.3,10.2 C16.1,10.2 14.1,9 12.7,4.7 C11.5,1 11.3,-0.1 10.4,-4.5"/>
<path class="Note" transform="matrix(2.3811,0,0,2.3811,1966.95,1510.87)" d="M18.7,-13.6 C4.9,-13.6 0,-6.6 0,-0.1 C0,6.4 4.9,13.4 18.7,13.4 C32.5,13.4 37.3,6.4 37.3,-0.1 C37.3,-6.6 32.5,-13.6 18.7,-13.6 M10.4,-4.5 C10.3,-4.9 10.3,-5.3 10.3,-5.7 C10.3,-6.5 10.5,-7.3 10.9,-8 C11.6,-9 12.8,-9.7 14.3,-10 C15.6,-10.3 16.3,-10.5 18.9,-10.5 L19,-10.5 C23,-10.5 24.3,-6.8 25.4,-3 L25.7,-2 C26.5,0.6 26.9,2.8 26.9,4.5 C26.9,5.7 26.7,6.8 26.3,7.6 C25.7,8.7 24.7,9.4 23,9.8 C22.1,10 20.6,10.1 20.6,10.1 C20.1,10.1 19.7,10.2 19.3,10.2 C16.1,10.2 14.1,9 12.7,4.7 C11.5,1 11.3,-0.1 10.4,-4.5"/>
<path class="Note" transform="matrix(2.3811,0,0,2.3811,2437.15,1659.69)" d="M18.7,-13.6 C4.9,-13.6 0,-6.6 0,-0.1 C0,6.4 4.9,13.4 18.7,13.4 C32.5,13.4 37.3,6.4 37.3,-0.1 C37.3,-6.6 32.5,-13.6 18.7,-13.6 M10.4,-4.5 C10.3,-4.9 10.3,-5.3 10.3,-5.7 C10.3,-6.5 10.5,-7.3 10.9,-8 C11.6,-9 12.8,-9.7 14.3,-10 C15.6,-10.3 16.3,-10.5 18.9,-10.5 L19,-10.5 C23,-10.5 24.3,-6.8 25.4,-3 L25.7,-2 C26.5,0.6 26.9,2.8 26.9,4.5 C26.9,5.7 26.7,6.8 26.3,7.6 C25.7,8.7 24.7,9.4 23,9.8 C22.1,10 20.6,10.1 20.6,10.1 C20.1,10.1 19.7,10.2 19.3,10.2 C16.1,10.2 14.1,9 12.7,4.7 C11.5,1 11.3,-0.1 10.4,-4.5"/>
<path class="Note" transform="matrix(2.3811,0,0,2.3811,2437.15,1600.16)" d="M18.7,-13.6 C4.9,-13.6 0,-6.6 0,-0.1 C0,6.4 4.9,13.4 18.7,13.4 C32.5,13.4 37.3,6.4 37.3,-0.1 C37.3,-6.6 32.5,-13.6 18.7,-13.6 M10.4,-4.5 C10.3,-4.9 10.3,-5.3 10.3,-5.7 C10.3,-6.5 10.5,-7.3 10.9,-8 C11.6,-9 12.8,-9.7 14.3,-10 C15.6,-10.3 16.3,-10.5 18.9,-10.5 L19,-10.5 C23,-10.5 24.3,-6.8 25.4,-3 L25.7,-2 C26.5,0.6 26.9,2.8 26.9,4.5 C26.9,5.7 26.7,6.8 26.3,7.6 C25.7,8.7 24.7,9.4 23,9.8 C22.1,10 20.6,10.1 20.6,10.1 C20.1,10.1 19.7,10.2 19.3,10.2 C16.1,10.2 14.1,9 12.7,4.7 C11.5,1 11.3,-0.1 10.4,-4.5"/>
<path class="Note" transform="matrix(2.3811,0,0,2.3811,2437.15,1510.87)" d="M18.7,-13.6 C4.9,-13.6 0,-6.6 0,-0.1 C0,6.4 4.9,13.4 18.7,13.4 C32.5,13.4 37.3,6.4 37.3,-0.1 C37.3,-6.6 32.5,-13.6 18.7,-13.6 M10.4,-4.5 C10.3,-4.9 10.3,-5.3 10.3,-5.7 C10.3,-6.5 10.5,-7.3 10.9,-8 C11.6,-9 12.8,-9.7 14.3,-10 C15.6,-10.3 16.3,-10.5 18.9,-10.5 L19,-10.5 C23,-10.5 24.3,-6.8 25.4,-3 L25.7,-2 C26.5,0.6 26.9,2.8 26.9,4.5 C26.9,5.7 26.7,6.8 26.3,7.6 C25.7,8.7 24.7,9.4 23,9.8 C22.1,10 20.6,10.1 20.6,10.1 C20.1,10.1 19.7,10.2 19.3,10.2 C16.1,10.2 14.1,9 12.7,4.7 C11.5,1 11.3,-0.1 10.4,-4.5"/>
<path class="Note" transform="matrix(2.3811,0,0,2.3811,2874.6,1629.92)" d="M18.7,-13.6 C4.9,-13.6 0,-6.6 0,-0.1 C0,6.4 4.9,13.4 18.7,13.4 C32.5,13.4 37.3,6.4 37.3,-0.1 C37.3,-6.6 32.5,-13.6 18.7,-13.6 M10.4,-4.5 C10.3,-4.9 10.3,-5.3 10.3,-5.7 C10.3,-6.5 10.5,-7.3 10.9,-8 C11.6,-9 12.8,-9.7 14.3,-10 C15.6,-10.3 16.3,-10.5 18.9,-10.5 L19,-10.5 C23,-10.5 24.3,-6.8 25.4,-3 L25.7,-2 C26.5,0.6 26.9,2.8 26.9,4.5 C26.9,5.7 26.7,6.8 26.3,7.6 C25.7,8.7 24.7,9.4 23,9.8 C22.1,10 20.6,10.1 20.6,10.1 C20.1,10.1 19.7,10.2 19.3,10.2 C16.1,10.2 14.1,9 12.7,4.7 C11.5,1 11.3,-0.1 10.4,-4.5"/>
<path class="Note" transform="matrix(2.3811,0,0,2.3811,2874.6,1540.63)" d="M18.7,-13.6 C4.9,-13.6 0,-6.6 0,-0.1 C0,6.4 4.9,13.4 18.7,13.4 C32.5,13.4 37.3,6.4 37.3,-0.1 C37.3,-6.6 32.5,-13.6 18.7,-13.6 M10.4,-4.5 C10.3,-4.9 10.3,-5.3 10.3,-5.7 C10.3,-6.5 10.5,-7.3 10.9,-8 C11.6,-9 12.8,-9.7 14.3,-10 C15.6,-10.3 16.3,-10.5 18.9,-10.5 L19,-10.5 C23,-10.5 24.3,-6.8 25.4,-3 L25.7,-2 C26.5,0.6 26.9,2.8 26.9,4.5 C26.9,5.7 26.7,6.8 26.3,7.6 C25.7,8.7 24.7,9.4 23,9.8 C22.1,10 20.6,10.1 20.6,10.1 C20.1,10.1 19.7,10.2 19.3,10.2 C16.1,10.2 14.1,9 12.7,4.7 C11.5,1 11.3,-0.1 10.4,-4.5"/>
<path class="Note" transform="matrix(2.3811,0,0,2.3811,3303.13,1629.92)" d="M18.7,-13.6 C4.9,-13.6 0,-6.6 0,-0.1 C0,6.4 4.9,13.4 18.7,13.4 C32.5,13.4 37.3,6.4 37.3,-0.1 C37.3,-6.6 32.5,-13.6 18.7,-13.6 M10.4,-4.5 C10.3,-4.9 10.3,-5.3 10.3,-5.7 C10.3,-6.5 10.5,-7.3 10.9,-8 C11.6,-9 12.8,-9.7 14.3,-10 C15.6,-10.3 16.3,-10.5 18.9,-10.5 L19,-10.5 C23,-10.5 24.3,-6.8 25.4,-3 L25.7,-2 C26.5,0.6 26.9,2.8 26.9,4.5 C26.9,5.7 26.7,6.8 26.3,7.6 C25.7,8.7 24.7,9.4 23,9.8 C22.1,10 20.6,10.1 20.6,10.1 C20.1,10.1 19.7,10.2 19.3,10.2 C16.1,10.2 14.1,9 12.7,4.7 C11.5,1 11.3,-0.1 10.4,-4.5"/>
<path class="Note" transform="matrix(2.3811,0,0,2.3811,3303.13,1540.63)" d="M18.7,-13.6 C4.9,-13.6 0,-6.6 0,-0.1 C0,6.4 4.9,13.4 18.7,13.4 C32.5,13.4 37.3,6.4 37.3,-0.1 C37.3,-6.6 32.5,-13.6 18.7,-13.6 M10.4,-4.5 C10.3,-4.9 10.3,-5.3 10.3,-5.7 C10.3,-6.5 10.5,-7.3 10.9,-8 C11.6,-9 12.8,-9.7 14.3,-10 C15.6,-10.3 16.3,-10.5 18.9,-10.5 L19,-10.5 C23,-10.5 24.3,-6.8 25.4,-3 L25.7,-2 C26.5,0.6 26.9,2.8 26.9,4.5 C26.9,5.7 26.7,6.8 26.3,7.6 C25.7,8.7 24.7,9.4 23,9.8 C22.1,10 20.6,10.1 20.6,10.1 C20.1,10.1 19.7,10.2 19.3,10.2 C16.1,10.2 14.1,9 12.7,4.7 C11.5,1 11.3,-0.1 10.4,-4.5"/>
<path class="Note" transform="matrix(2.3811,0,0,2.3811,3767.49,1659.69)" d="M18.7,-13.6 C4.9,-13.6 0,-6.6 0,-0.1 C0,6.4 4.9,13.4 18.7,13.4 C32.5,13.4 37.3,6.4 37.3,-0.1 C37.3,-6.6 32.5,-13.6 18.7,-13.6 M10.4,-4.5 C10.3,-4.9 10.3,-5.3 10.3,-5.7 C10.3,-6.5 10.5,-7.3 10.9,-8 C11.6,-9 12.8,-9.7 14.3,-10 C15.6,-10.3 16.3,-10.5 18.9,-10.5 L19,-10.5 C23,-10.5 24.3,-6.8 25.4,-3 L25.7,-2 C26.5,0.6 26.9,2.8 26.9,4.5 C26.9,5.7 26.7,6.8 26.3,7.6 C25.7,8.7 24.7,9.4 23,9.8 C22.1,10 20.6,10.1 20.6,10.1 C20.1,10.1 19.7,10.2 19.3,10.2 C16.1,10.2 14.1,9 12.7,4.7 C11.5,1 11.3,-0.1 10.4,-4.5"/>
<path class="Note" transform="matrix(2.3811,0,0,2.3811,3767.49,1600.16)" d="M18.7,-13.6 C4.9,-13.6 0,-6.6 0,-0.1 C0,6.4 4.9,13.4 18.7,13.4 C32.5,13.4 37.3,6.4 37.3,-0.1 C37.3,-6.6 32.5,-13.6 18.7,-13.6 M10.4,-4.5 C10.3,-4.9 10.3,-5.3 10.3,-5.7 C10.3,-6.5 10.5,-7.3 10.9,-8 C11.6,-9 12.8,-9.7 14.3,-10 C15.6,-10.3 16.3,-10.5 18.9,-10.5 L19,-10.5 C23,-10.5 24.3,-6.8 25.4,-3 L25.7,-2 C26.5,0.6 26.9,2.8 26.9,4.5 C26.9,5.7 26.7,6.8 26.3,7.6 C25.7,8.7 24.7,9.4 23,9.8 C22.1,10 20.6,10.1 20.6,10.1 C20.1,10.1 19.7,10.2 19.3,10.2 C16.1,10.2 14.1,9 12.7,4.7 C11.5,1 11.3,-0.1 10.4,-4.5"/>
<path class="Note" transform="matrix(2.3811,0,0,2.3811,3767.49,1510.87)" d="M18.7,-13.6 C4.9,-13.6 0,-6.6 0,-0.1 C0,6.4 4.9,13.4 18.7,13.4 C32.5,13.4 37.3,6.4 37.3,-0.1 C37.3,-6.6 32.5,-13.6 18.7,-13.6 M10.4,-4.5 C10.3,-4.9 10.3,-5.3 10.3,-5.7 C10.3,-6.5 10.5,-7.3 10.9,-8 C11.6,-9 12.8,-9.7 14.3,-10 C15.6,-10.3 16.3,-10.5 18.9,-10.5 L19,-10.5 C23,-10.5 24.3,-6.8 25.4,-3 L25.7,-2 C26.5,0.6 26.9,2.8 26.9,4.5 C26.9,5.7 26.7,6.8 26.3,7.6 C25.7,8.7 24.7,9.4 23,9.8 C22.1,10 20.6,10.1 20.6,10.1 C20.1,10.1 19.7,10.2 19.3,10.2 C16.1,10.2 14.1,9 12.7,4.7 C11.5,1 11.3,-0.1 10.4,-4.5"/>
<path class="Note" d="M795.584,848.933 C806.043,842.348 813.636,836.964 818.361,832.78 C827.039,825.11 831.377,817.363 831.377,809.538 C831.377,800.396 825.257,795.825 813.016,795.825 C800.155,795.825 786.752,805.083 772.807,823.599 C763.355,836.15 756.653,848.004 752.702,859.16 C757.583,855.984 762.735,854.395 768.158,854.395 C773.272,854.395 777.339,856.681 780.36,861.252 C782.452,864.428 783.498,869.851 783.498,877.521 C783.498,884.416 779.857,892.513 772.574,901.809 C768.081,907.542 763.084,910.409 757.583,910.409 C750.61,910.409 745.73,909.014 742.941,906.225 C738.989,902.274 737.014,894.449 737.014,882.751 C737.014,863.072 744.955,843.704 760.837,824.645 C778.733,803.185 795.894,792.455 812.318,792.455 C825.024,792.455 834.515,795.438 840.79,801.403 C844.431,804.889 846.252,809.925 846.252,816.511 C846.252,823.871 839.008,832.083 824.521,841.147 C816.928,845.951 807.283,848.546 795.584,848.933 M751.192,864.041 C749.255,870.549 748.286,876.785 748.286,882.751 C748.286,896.929 750.533,904.017 755.026,904.017 C759.288,904.017 762.619,900.996 765.021,894.953 C767.81,888.135 769.204,880.582 769.204,872.292 C769.204,864.932 766.764,861.252 761.883,861.252 C758.474,861.252 754.91,862.181 751.192,864.041"/>
<path class="Note" d="M744.219,642.535 C740.423,642.535 738.525,638.468 738.525,630.333 L738.525,596.283 C738.525,593.029 740.113,591.402 743.289,591.402 C744.684,591.402 745.73,591.518 746.427,591.751 C748.906,587.412 752.973,583.771 758.629,580.827 C766.531,576.721 774.55,574.668 782.685,574.668 C789.115,574.668 792.33,577.069 792.33,581.873 C792.33,585.902 790.161,587.916 785.822,587.916 C782.723,587.916 779.779,587.219 776.99,585.824 C774.511,584.584 771.877,583.965 769.088,583.965 C764.285,583.965 757.196,587.102 747.821,593.378 C749.138,599.653 749.797,606.974 749.797,615.342 C749.797,633.471 747.938,642.535 744.219,642.535"/>
<path class="Note" d="M788.495,673.256 C793.066,673.256 795.352,676.123 795.352,681.856 C795.352,685.884 792.834,691.888 787.798,699.868 C783.769,706.299 781.755,712.574 781.755,718.694 C781.755,722.181 786.83,723.924 796.979,723.924 C805.346,723.924 817.006,719.392 831.958,710.327 C816.928,724.815 803.874,732.059 792.795,732.059 C782.801,732.059 775.828,730.548 771.877,727.527 C770.87,726.752 770.018,725.822 769.32,724.737 C765.447,729.463 758.978,731.826 749.913,731.826 C741.236,731.826 734.573,730.044 729.925,726.481 C726.826,724.079 725.276,720.244 725.276,714.976 C725.276,706.609 730.235,697.467 740.151,687.55 C750.765,676.936 763.045,671.629 776.99,671.629 C780.477,671.629 783.033,672.907 784.66,675.464 C785.977,673.992 787.256,673.256 788.495,673.256 M767.693,719.508 C767.616,718.888 767.577,718.268 767.577,717.649 C767.577,717.339 771.528,706.531 779.431,685.226 C780.206,683.134 780.98,681.352 781.755,679.88 C778.733,679.26 775.751,678.95 772.807,678.95 C767.384,678.95 760.178,683.56 751.192,692.779 C743.134,700.992 739.106,708.081 739.106,714.046 C739.106,720.631 742.243,723.924 748.519,723.924 C756.111,723.924 762.503,722.452 767.693,719.508"/>
<path class="Note" d="M1190.01,583.965 C1194.58,583.965 1196.86,586.831 1196.86,592.564 C1196.86,596.593 1194.35,602.597 1189.31,610.577 C1185.28,617.007 1183.27,623.283 1183.27,629.403 C1183.27,632.889 1188.34,634.633 1198.49,634.633 C1206.86,634.633 1218.52,630.1 1233.47,621.036 C1218.44,635.524 1205.39,642.767 1194.31,642.767 C1184.31,642.767 1177.34,641.257 1173.39,638.235 C1172.38,637.46 1171.53,636.531 1170.83,635.446 C1166.96,640.172 1160.49,642.535 1151.43,642.535 C1142.75,642.535 1136.09,640.753 1131.44,637.189 C1128.34,634.788 1126.79,630.953 1126.79,625.684 C1126.79,617.317 1131.75,608.175 1141.66,598.259 C1152.28,587.645 1164.56,582.338 1178.5,582.338 C1181.99,582.338 1184.55,583.616 1186.17,586.173 C1187.49,584.701 1188.77,583.965 1190.01,583.965 M1169.21,630.217 C1169.13,629.597 1169.09,628.977 1169.09,628.357 C1169.09,628.047 1173.04,617.24 1180.94,595.934 C1181.72,593.843 1182.49,592.061 1183.27,590.589 C1180.25,589.969 1177.26,589.659 1174.32,589.659 C1168.9,589.659 1161.69,594.269 1152.7,603.488 C1144.65,611.7 1140.62,618.789 1140.62,624.755 C1140.62,631.34 1143.76,634.633 1150.03,634.633 C1157.62,634.633 1164.02,633.161 1169.21,630.217"/>
<path class="Note" d="M1145.73,910.409 C1141.94,910.409 1140.04,906.342 1140.04,898.207 L1140.04,864.157 C1140.04,860.903 1141.63,859.276 1144.8,859.276 C1146.2,859.276 1147.24,859.392 1147.94,859.625 C1150.42,855.286 1154.49,851.645 1160.14,848.701 C1168.04,844.595 1176.06,842.542 1184.2,842.542 C1190.63,842.542 1193.84,844.943 1193.84,849.747 C1193.84,853.776 1191.67,855.79 1187.34,855.79 C1184.24,855.79 1181.29,855.093 1178.5,853.698 C1176.02,852.458 1173.39,851.839 1170.6,851.839 C1165.8,851.839 1158.71,854.976 1149.33,861.252 C1150.65,867.527 1151.31,874.848 1151.31,883.216 C1151.31,901.345 1149.45,910.409 1145.73,910.409"/>
<path class="Note" d="M1190.01,762.547 C1194.58,762.547 1196.86,765.414 1196.86,771.147 C1196.86,775.176 1194.35,781.18 1189.31,789.16 C1185.28,795.59 1183.27,801.865 1183.27,807.986 C1183.27,811.472 1188.34,813.215 1198.49,813.215 C1206.86,813.215 1218.52,808.683 1233.47,799.619 C1218.44,814.106 1205.39,821.35 1194.31,821.35 C1184.31,821.35 1177.34,819.839 1173.39,816.818 C1172.38,816.043 1171.53,815.113 1170.83,814.029 C1166.96,818.755 1160.49,821.118 1151.43,821.118 C1142.75,821.118 1136.09,819.336 1131.44,815.772 C1128.34,813.37 1126.79,809.535 1126.79,804.267 C1126.79,795.9 1131.75,786.758 1141.66,776.841 C1152.28,766.227 1164.56,760.92 1178.5,760.92 C1181.99,760.92 1184.55,762.199 1186.17,764.755 C1187.49,763.283 1188.77,762.547 1190.01,762.547 M1169.21,808.799 C1169.13,808.179 1169.09,807.56 1169.09,806.94 C1169.09,806.63 1173.04,795.822 1180.94,774.517 C1181.72,772.425 1182.49,770.643 1183.27,769.171 C1180.25,768.552 1177.26,768.242 1174.32,768.242 C1168.9,768.242 1161.69,772.851 1152.7,782.071 C1144.65,790.283 1140.62,797.372 1140.62,803.337 C1140.62,809.923 1143.76,813.215 1150.03,813.215 C1157.62,813.215 1164.02,811.743 1169.21,808.799"/>
<path class="Note" d="M1190.01,673.256 C1194.58,673.256 1196.86,676.123 1196.86,681.856 C1196.86,685.884 1194.35,691.888 1189.31,699.868 C1185.28,706.299 1183.27,712.574 1183.27,718.694 C1183.27,722.181 1188.34,723.924 1198.49,723.924 C1206.86,723.924 1218.52,719.392 1233.47,710.327 C1218.44,724.815 1205.39,732.059 1194.31,732.059 C1184.31,732.059 1177.34,730.548 1173.39,727.527 C1172.38,726.752 1171.53,725.822 1170.83,724.737 C1166.96,729.463 1160.49,731.826 1151.43,731.826 C1142.75,731.826 1136.09,730.044 1131.44,726.481 C1128.34,724.079 1126.79,720.244 1126.79,714.976 C1126.79,706.609 1131.75,697.467 1141.66,687.55 C1152.28,676.936 1164.56,671.629 1178.5,671.629 C1181.99,671.629 1184.55,672.907 1186.17,675.464 C1187.49,673.992 1188.77,673.256 1190.01,673.256 M1169.21,719.508 C1169.13,718.888 1169.09,718.268 1169.09,717.649 C1169.09,717.339 1173.04,706.531 1180.94,685.226 C1181.72,683.134 1182.49,681.352 1183.27,679.88 C1180.25,679.26 1177.26,678.95 1174.32,678.95 C1168.9,678.95 1161.69,683.56 1152.7,692.779 C1144.65,700.992 1140.62,708.081 1140.62,714.046 C1140.62,720.631 1143.76,723.924 1150.03,723.924 C1157.62,723.924 1164.02,722.452 1169.21,719.508"/>
<path class="Note" d="M1624.26,583.965 C1628.83,583.965 1631.12,586.831 1631.12,592.564 C1631.12,596.593 1628.6,602.597 1623.56,610.577 C1619.54,617.007 1617.52,623.283 1617.52,629.403 C1617.52,632.889 1622.6,634.633 1632.74,634.633 C1641.11,634.633 1652.77,630.1 1667.72,621.036 C1652.69,635.524 1639.64,642.767 1628.56,642.767 C1618.57,642.767 1611.59,641.257 1607.64,638.235 C1606.64,637.46 1605.78,636.531 1605.09,635.446 C1601.21,640.172 1594.74,642.535 1585.68,642.535 C1577,642.535 1570.34,640.753 1565.69,637.189 C1562.59,634.788 1561.04,630.953 1561.04,625.684 C1561.04,617.317 1566,608.175 1575.92,598.259 C1586.53,587.645 1598.81,582.338 1612.76,582.338 C1616.24,582.338 1618.8,583.616 1620.43,586.173 C1621.74,584.701 1623.02,583.965 1624.26,583.965 M1603.46,630.217 C1603.38,629.597 1603.34,628.977 1603.34,628.357 C1603.34,628.047 1607.29,617.24 1615.2,595.934 C1615.97,593.843 1616.75,592.061 1617.52,590.589 C1614.5,589.969 1611.52,589.659 1608.57,589.659 C1603.15,589.659 1595.94,594.269 1586.96,603.488 C1578.9,611.7 1574.87,618.789 1574.87,624.755 C1574.87,631.34 1578.01,634.633 1584.28,634.633 C1591.88,634.633 1598.27,633.161 1603.46,630.217"/>
<path class="Note" d="M1579.99,910.409 C1576.19,910.409 1574.29,906.342 1574.29,898.207 L1574.29,864.157 C1574.29,860.903 1575.88,859.276 1579.06,859.276 C1580.45,859.276 1581.5,859.392 1582.19,859.625 C1584.67,855.286 1588.74,851.645 1594.4,848.701 C1602.3,844.595 1610.32,842.542 1618.45,842.542 C1624.88,842.542 1628.1,844.943 1628.1,849.747 C1628.1,853.776 1625.93,855.79 1621.59,855.79 C1618.49,855.79 1615.55,855.093 1612.76,853.698 C1610.28,852.458 1607.64,851.839 1604.85,851.839 C1600.05,851.839 1592.96,854.976 1583.59,861.252 C1584.9,867.527 1585.56,874.848 1585.56,883.216 C1585.56,901.345 1583.7,910.409 1579.99,910.409"/>
<path class="Note" d="M1624.26,762.547 C1628.83,762.547 1631.12,765.414 1631.12,771.147 C1631.12,775.176 1628.6,781.18 1623.56,789.16 C1619.54,795.59 1617.52,801.865 1617.52,807.986 C1617.52,811.472 1622.6,813.215 1632.74,813.215 C1641.11,813.215 1652.77,808.683 1667.72,799.619 C1652.69,814.106 1639.64,821.35 1628.56,821.35 C1618.57,821.35 1611.59,819.839 1607.64,816.818 C1606.64,816.043 1605.78,815.113 1605.09,814.029 C1601.21,818.755 1594.74,821.118 1585.68,821.118 C1577,821.118 1570.34,819.336 1565.69,815.772 C1562.59,813.37 1561.04,809.535 1561.04,804.267 C1561.04,795.9 1566,786.758 1575.92,776.841 C1586.53,766.227 1598.81,760.92 1612.76,760.92 C1616.24,760.92 1618.8,762.199 1620.43,764.755 C1621.74,763.283 1623.02,762.547 1624.26,762.547 M1603.46,808.799 C1603.38,808.179 1603.34,807.56 1603.34,806.94 C1603.34,806.63 1607.29,795.822 1615.2,774.517 C1615.97,772.425 1616.75,770.643 1617.52,769.171 C1614.5,768.552 1611.52,768.242 1608.57,768.242 C1603.15,768.242 1595.94,772.851 1586.96,782.071 C1578.9,790.283 1574.87,797.372 1574.87,803.337 C1574.87,809.923 1578.01,813.215 1584.28,813.215 C1591.88,813.215 1598.27,811.743 1603.46,808.799"/>
<path class="Note" d="M1624.26,673.256 C1628.83,673.256 1631.12,676.123 1631.12,681.856 C1631.12,685.884 1628.6,691.888 1623.56,699.868 C1619.54,706.299 1617.52,712.574 1617.52,718.694 C1617.52,722.181 1622.6,723.924 1632.74,723.924 C1641.11,723.924 1652.77,719.392 1667.72,710.327 C1652.69,724.815 1639.64,732.059 1628.56,732.059 C1618.57,732.059 1611.59,730.548 1607.64,727.527 C1606.64,726.752 1605.78,725.822 1605.09,724.737 C1601.21,729.463 1594.74,731.826 1585.68,731.826 C1577,731.826 1570.34,730.044 1565.69,726.481 C1562.59,724.079 1561.04,720.244 1561.04,714.976 C1561.04,706.609 1566,697.467 1575.92,687.55 C1586.53,676.936 1598.81,671.629 1612.76,671.629 C1616.24,671.629 1618.8,672.907 1620.43,675.464 C1621.74,673.992 1623.02,673.256 1624.26,673.256 M1603.46,719.508 C1603.38,718.888 1603.34,718.268 1603.34,717.649 C1603.34,717.339 1607.29,706.531 1615.2,685.226 C1615.97,683.134 1616.75,681.352 1617.52,679.88 C1614.5,679.26 1611.52,678.95 1608.57,678.95 C1603.15,678.95 1595.94,683.56 1586.96,692.779 C1578.9,700.992 1574.87,708.081 1574.87,714.046 C1574.87,720.631 1578.01,723.924 1584.28,723.924 C1591.88,723.924 1598.27,722.452 1603.46,719.508"/>
<path class="Note" d="M2045.77,851.839 C2050.34,851.839 2052.63,854.705 2052.63,860.438 C2052.63,864.467 2050.11,870.471 2045.07,878.451 C2041.05,884.881 2039.03,891.157 2039.03,897.277 C2039.03,900.763 2044.11,902.507 2054.26,902.507 C2062.62,902.507 2074.28,897.974 2089.24,888.91 C2074.21,903.398 2061.15,910.641 2050.07,910.641 C2040.08,910.641 2033.11,909.131 2029.15,906.109 C2028.15,905.334 2027.29,904.405 2026.6,903.32 C2022.72,908.046 2016.25,910.409 2007.19,910.409 C1998.51,910.409 1991.85,908.627 1987.2,905.063 C1984.1,902.662 1982.55,898.827 1982.55,893.558 C1982.55,885.191 1987.51,876.049 1997.43,866.133 C2008.04,855.519 2020.32,850.212 2034.27,850.212 C2037.75,850.212 2040.31,851.49 2041.94,854.047 C2043.25,852.575 2044.53,851.839 2045.77,851.839 M2024.97,898.091 C2024.89,897.471 2024.85,896.851 2024.85,896.231 C2024.85,895.921 2028.81,885.114 2036.71,863.808 C2037.48,861.717 2038.26,859.935 2039.03,858.463 C2036.01,857.843 2033.03,857.533 2030.08,857.533 C2024.66,857.533 2017.46,862.143 2008.47,871.362 C2000.41,879.574 1996.38,886.663 1996.38,892.629 C1996.38,899.214 1999.52,902.507 2005.8,902.507 C2013.39,902.507 2019.78,901.035 2024.97,898.091"/>
<path class="Note" d="M2001.5,642.535 C1997.7,642.535 1995.8,638.468 1995.8,630.333 L1995.8,596.283 C1995.8,593.029 1997.39,591.402 2000.57,591.402 C2001.96,591.402 2003.01,591.518 2003.7,591.751 C2006.18,587.412 2010.25,583.771 2015.91,580.827 C2023.81,576.721 2031.83,574.668 2039.96,574.668 C2046.39,574.668 2049.61,577.069 2049.61,581.873 C2049.61,585.902 2047.44,587.916 2043.1,587.916 C2040,587.916 2037.06,587.219 2034.27,585.824 C2031.79,584.584 2029.15,583.965 2026.36,583.965 C2021.56,583.965 2014.47,587.102 2005.1,593.378 C2006.42,599.653 2007.07,606.974 2007.07,615.342 C2007.07,633.471 2005.21,642.535 2001.5,642.535"/>
<path class="Note" d="M2045.77,673.256 C2050.34,673.256 2052.63,676.123 2052.63,681.856 C2052.63,685.884 2050.11,691.888 2045.07,699.868 C2041.05,706.299 2039.03,712.574 2039.03,718.694 C2039.03,722.181 2044.11,723.924 2054.26,723.924 C2062.62,723.924 2074.28,719.392 2089.24,710.327 C2074.21,724.815 2061.15,732.059 2050.07,732.059 C2040.08,732.059 2033.11,730.548 2029.15,727.527 C2028.15,726.752 2027.29,725.822 2026.6,724.737 C2022.72,729.463 2016.25,731.826 2007.19,731.826 C1998.51,731.826 1991.85,730.044 1987.2,726.481 C1984.1,724.079 1982.55,720.244 1982.55,714.976 C1982.55,706.609 1987.51,697.467 1997.43,687.55 C2008.04,676.936 2020.32,671.629 2034.27,671.629 C2037.75,671.629 2040.31,672.907 2041.94,675.464 C2043.25,673.992 2044.53,673.256 2045.77,673.256 M2024.97,719.508 C2024.89,718.888 2024.85,718.268 2024.85,717.649 C2024.85,717.339 2028.81,706.531 2036.71,685.226 C2037.48,683.134 2038.26,681.352 2039.03,679.88 C2036.01,679.26 2033.03,678.95 2030.08,678.95 C2024.66,678.95 2017.46,683.56 2008.47,692.779 C2000.41,700.992 1996.38,708.081 1996.38,714.046 C1996.38,720.631 1999.52,723.924 2005.8,723.924 C2013.39,723.924 2019.78,722.452 2024.97,719.508"/>
<path class="Note" d="M2471.69,999.7 C2467.89,999.7 2465.99,995.633 2465.99,987.498 L2465.99,953.448 C2465.99,950.194 2467.58,948.568 2470.76,948.568 C2472.15,948.568 2473.2,948.684 2473.9,948.916 C2476.38,944.578 2480.44,940.936 2486.1,937.992 C2494,933.886 2502.02,931.833 2510.15,931.833 C2516.58,931.833 2519.8,934.235 2519.8,939.038 C2519.8,943.067 2517.63,945.081 2513.29,945.081 C2510.19,945.081 2507.25,944.384 2504.46,942.989 C2501.98,941.75 2499.35,941.13 2496.56,941.13 C2491.75,941.13 2484.67,944.268 2475.29,950.543 C2476.61,956.818 2477.27,964.14 2477.27,972.507 C2477.27,990.636 2475.41,999.7 2471.69,999.7"/>
<path class="Note" d="M2523.05,848.933 C2533.51,842.348 2541.11,836.964 2545.83,832.78 C2554.51,825.11 2558.85,817.363 2558.85,809.538 C2558.85,800.396 2552.73,795.825 2540.49,795.825 C2527.62,795.825 2514.22,805.083 2500.28,823.599 C2490.82,836.15 2484.12,848.004 2480.17,859.16 C2485.05,855.984 2490.21,854.395 2495.63,854.395 C2500.74,854.395 2504.81,856.681 2507.83,861.252 C2509.92,864.428 2510.97,869.851 2510.97,877.521 C2510.97,884.416 2507.33,892.513 2500.04,901.809 C2495.55,907.542 2490.55,910.409 2485.05,910.409 C2478.08,910.409 2473.2,909.014 2470.41,906.225 C2466.46,902.274 2464.48,894.449 2464.48,882.751 C2464.48,863.072 2472.42,843.704 2488.31,824.645 C2506.2,803.185 2523.36,792.455 2539.79,792.455 C2552.49,792.455 2561.98,795.438 2568.26,801.403 C2571.9,804.889 2573.72,809.925 2573.72,816.511 C2573.72,823.871 2566.48,832.083 2551.99,841.147 C2544.4,845.951 2534.75,848.546 2523.05,848.933 M2478.66,864.041 C2476.72,870.549 2475.76,876.785 2475.76,882.751 C2475.76,896.929 2478,904.017 2482.5,904.017 C2486.76,904.017 2490.09,900.996 2492.49,894.953 C2495.28,888.135 2496.67,880.582 2496.67,872.292 C2496.67,864.932 2494.23,861.252 2489.35,861.252 C2485.94,861.252 2482.38,862.181 2478.66,864.041"/>
<path class="Note" d="M2471.69,642.535 C2467.89,642.535 2465.99,638.468 2465.99,630.333 L2465.99,596.283 C2465.99,593.029 2467.58,591.402 2470.76,591.402 C2472.15,591.402 2473.2,591.518 2473.9,591.751 C2476.38,587.412 2480.44,583.771 2486.1,580.827 C2494,576.721 2502.02,574.668 2510.15,574.668 C2516.58,574.668 2519.8,577.069 2519.8,581.873 C2519.8,585.902 2517.63,587.916 2513.29,587.916 C2510.19,587.916 2507.25,587.219 2504.46,585.824 C2501.98,584.584 2499.35,583.965 2496.56,583.965 C2491.75,583.965 2484.67,587.102 2475.29,593.378 C2476.61,599.653 2477.27,606.974 2477.27,615.342 C2477.27,633.471 2475.41,642.535 2471.69,642.535"/>
<path class="Note" d="M2515.97,673.256 C2520.54,673.256 2522.82,676.123 2522.82,681.856 C2522.82,685.884 2520.3,691.888 2515.27,699.868 C2511.24,706.299 2509.22,712.574 2509.22,718.694 C2509.22,722.181 2514.3,723.924 2524.45,723.924 C2532.82,723.924 2544.48,719.392 2559.43,710.327 C2544.4,724.815 2531.34,732.059 2520.26,732.059 C2510.27,732.059 2503.3,730.548 2499.35,727.527 C2498.34,726.752 2497.49,725.822 2496.79,724.737 C2492.92,729.463 2486.45,731.826 2477.38,731.826 C2468.71,731.826 2462.04,730.044 2457.39,726.481 C2454.3,724.079 2452.75,720.244 2452.75,714.976 C2452.75,706.609 2457.7,697.467 2467.62,687.55 C2478.24,676.936 2490.51,671.629 2504.46,671.629 C2507.95,671.629 2510.5,672.907 2512.13,675.464 C2513.45,673.992 2514.73,673.256 2515.97,673.256 M2495.16,719.508 C2495.09,718.888 2495.05,718.268 2495.05,717.649 C2495.05,717.339 2499,706.531 2506.9,685.226 C2507.68,683.134 2508.45,681.352 2509.22,679.88 C2506.2,679.26 2503.22,678.95 2500.28,678.95 C2494.85,678.95 2487.65,683.56 2478.66,692.779 C2470.6,700.992 2466.58,708.081 2466.58,714.046 C2466.58,720.631 2469.71,723.924 2475.99,723.924 C2483.58,723.924 2489.97,722.452 2495.16,719.508"/>
<path class="Note" d="M2989.21,973.437 C2982.86,983.431 2972.83,991.721 2959.11,998.306 C2947.18,1004.04 2936.03,1006.91 2925.64,1006.91 C2917.35,1006.91 2910.46,1005.24 2904.96,1001.91 C2898.99,998.267 2896.01,993.929 2896.01,988.893 C2896.01,977.504 2898.99,967.704 2904.96,959.491 C2913.09,948.335 2921.3,942.757 2929.59,942.757 C2935.48,942.757 2939.67,943.919 2942.15,946.243 C2945.55,949.265 2947.26,953.41 2947.26,958.678 C2947.26,966.115 2941.72,972.584 2930.64,978.085 C2919.87,983.431 2912.4,986.917 2908.21,988.544 C2909.14,990.481 2910.34,992.224 2911.81,993.774 C2915.46,997.647 2920.41,999.584 2926.69,999.584 C2934.59,999.584 2945.21,996.679 2958.53,990.868 C2971.31,985.213 2981.54,979.402 2989.21,973.437 M2906.58,983.198 C2912.4,980.254 2917.7,976.807 2922.51,972.856 C2929.63,967.045 2933.2,960.77 2933.2,954.029 C2933.2,950.233 2931.45,948.335 2927.97,948.335 C2925.02,948.335 2921,951.705 2915.88,958.445 C2909.45,966.813 2906.24,973.63 2906.24,978.899 C2906.24,980.371 2906.35,981.804 2906.58,983.198"/>
<path class="Note" d="M2953.42,583.965 C2957.99,583.965 2960.27,586.831 2960.27,592.564 C2960.27,596.593 2957.76,602.597 2952.72,610.577 C2948.69,617.007 2946.68,623.283 2946.68,629.403 C2946.68,632.889 2951.75,634.633 2961.9,634.633 C2970.27,634.633 2981.93,630.1 2996.88,621.036 C2981.85,635.524 2968.8,642.767 2957.72,642.767 C2947.72,642.767 2940.75,641.257 2936.8,638.235 C2935.79,637.46 2934.94,636.531 2934.24,635.446 C2930.37,640.172 2923.9,642.535 2914.84,642.535 C2906.16,642.535 2899.5,640.753 2894.85,637.189 C2891.75,634.788 2890.2,630.953 2890.2,625.684 C2890.2,617.317 2895.16,608.175 2905.07,598.259 C2915.69,587.645 2927.97,582.338 2941.91,582.338 C2945.4,582.338 2947.96,583.616 2949.58,586.173 C2950.9,584.701 2952.18,583.965 2953.42,583.965 M2932.62,630.217 C2932.54,629.597 2932.5,628.977 2932.5,628.357 C2932.5,628.047 2936.45,617.24 2944.35,595.934 C2945.13,593.843 2945.9,592.061 2946.68,590.589 C2943.66,589.969 2940.67,589.659 2937.73,589.659 C2932.31,589.659 2925.1,594.269 2916.11,603.488 C2908.06,611.7 2904.03,618.789 2904.03,624.755 C2904.03,631.34 2907.17,634.633 2913.44,634.633 C2921.03,634.633 2927.43,633.161 2932.62,630.217"/>
<path class="Note" d="M2953.42,494.673 C2957.99,494.673 2960.27,497.54 2960.27,503.273 C2960.27,507.302 2957.76,513.306 2952.72,521.286 C2948.69,527.716 2946.68,533.991 2946.68,540.112 C2946.68,543.598 2951.75,545.341 2961.9,545.341 C2970.27,545.341 2981.93,540.809 2996.88,531.745 C2981.85,546.232 2968.8,553.476 2957.72,553.476 C2947.72,553.476 2940.75,551.965 2936.8,548.944 C2935.79,548.169 2934.94,547.239 2934.24,546.155 C2930.37,550.881 2923.9,553.244 2914.84,553.244 C2906.16,553.244 2899.5,551.462 2894.85,547.898 C2891.75,545.496 2890.2,541.661 2890.2,536.393 C2890.2,528.026 2895.16,518.884 2905.07,508.967 C2915.69,498.353 2927.97,493.046 2941.91,493.046 C2945.4,493.046 2947.96,494.325 2949.58,496.881 C2950.9,495.409 2952.18,494.673 2953.42,494.673 M2932.62,540.925 C2932.54,540.305 2932.5,539.686 2932.5,539.066 C2932.5,538.756 2936.45,527.948 2944.35,506.643 C2945.13,504.551 2945.9,502.769 2946.68,501.297 C2943.66,500.678 2940.67,500.368 2937.73,500.368 C2932.31,500.368 2925.1,504.977 2916.11,514.197 C2908.06,522.409 2904.03,529.498 2904.03,535.463 C2904.03,542.049 2907.17,545.341 2913.44,545.341 C2921.03,545.341 2927.43,543.869 2932.62,540.925"/>
<path class="Note" d="M3270.86,945.081 C3271.17,933.383 3277.64,923.001 3290.27,913.937 C3301.5,905.879 3313.78,901.851 3327.11,901.851 C3345.78,901.851 3362.24,909.172 3376.5,923.815 C3385.56,933.189 3390.09,944.81 3390.09,958.678 C3390.09,971.151 3386.76,980.719 3380.1,987.382 C3371.97,995.594 3363.37,999.7 3354.3,999.7 C3348.1,999.7 3343.3,998.306 3339.89,995.517 C3334.31,990.946 3331.52,984.825 3331.52,977.155 C3331.52,967.239 3336.48,958.174 3346.4,949.962 C3354.53,943.222 3362.71,938.806 3370.92,936.714 C3368.75,932.995 3366,929.509 3362.67,926.255 C3352.29,916.106 3340.51,911.031 3327.34,911.031 C3313.63,911.031 3302.28,914.014 3293.29,919.98 C3283.99,926.1 3276.52,934.467 3270.86,945.081 M3373.83,942.873 C3369.56,946.824 3365.3,951.047 3361.04,955.54 C3352.67,964.372 3348.49,972.739 3348.49,980.642 C3348.49,989.086 3350.43,993.309 3354.3,993.309 C3357.79,993.309 3362.67,988.544 3368.94,979.015 C3373.98,971.422 3376.5,964.45 3376.5,958.097 C3376.5,952.674 3375.61,947.599 3373.83,942.873"/>
<path class="Note" d="M3381.95,583.965 C3386.52,583.965 3388.81,586.831 3388.81,592.564 C3388.81,596.593 3386.29,602.597 3381.25,610.577 C3377.23,617.007 3375.21,623.283 3375.21,629.403 C3375.21,632.889 3380.29,634.633 3390.43,634.633 C3398.8,634.633 3410.46,630.1 3425.41,621.036 C3410.38,635.524 3397.33,642.767 3386.25,642.767 C3376.26,642.767 3369.28,641.257 3365.33,638.235 C3364.33,637.46 3363.47,636.531 3362.78,635.446 C3358.9,640.172 3352.43,642.535 3343.37,642.535 C3334.69,642.535 3328.03,640.753 3323.38,637.189 C3320.28,634.788 3318.73,630.953 3318.73,625.684 C3318.73,617.317 3323.69,608.175 3333.61,598.259 C3344.22,587.645 3356.5,582.338 3370.45,582.338 C3373.93,582.338 3376.49,583.616 3378.12,586.173 C3379.43,584.701 3380.71,583.965 3381.95,583.965 M3361.15,630.217 C3361.07,629.597 3361.03,628.977 3361.03,628.357 C3361.03,628.047 3364.98,617.24 3372.89,595.934 C3373.66,593.843 3374.44,592.061 3375.21,590.589 C3372.19,589.969 3369.21,589.659 3366.26,589.659 C3360.84,589.659 3353.63,594.269 3344.65,603.488 C3336.59,611.7 3332.56,618.789 3332.56,624.755 C3332.56,631.34 3335.7,634.633 3341.97,634.633 C3349.57,634.633 3355.96,633.161 3361.15,630.217"/>
<path class="Note" d="M3381.95,494.673 C3386.52,494.673 3388.81,497.54 3388.81,503.273 C3388.81,507.302 3386.29,513.306 3381.25,521.286 C3377.23,527.716 3375.21,533.991 3375.21,540.112 C3375.21,543.598 3380.29,545.341 3390.43,545.341 C3398.8,545.341 3410.46,540.809 3425.41,531.745 C3410.38,546.232 3397.33,553.476 3386.25,553.476 C3376.26,553.476 3369.28,551.965 3365.33,548.944 C3364.33,548.169 3363.47,547.239 3362.78,546.155 C3358.9,550.881 3352.43,553.244 3343.37,553.244 C3334.69,553.244 3328.03,551.462 3323.38,547.898 C3320.28,545.496 3318.73,541.661 3318.73,536.393 C3318.73,528.026 3323.69,518.884 3333.61,508.967 C3344.22,498.353 3356.5,493.046 3370.45,493.046 C3373.93,493.046 3376.49,494.325 3378.12,496.881 C3379.43,495.409 3380.71,494.673 3381.95,494.673 M3361.15,540.925 C3361.07,540.305 3361.03,539.686 3361.03,539.066 C3361.03,538.756 3364.98,527.948 3372.89,506.643 C3373.66,504.551 3374.44,502.769 3375.21,501.297 C3372.19,500.678 3369.21,500.368 3366.26,500.368 C3360.84,500.368 3353.63,504.977 3344.65,514.197 C3336.59,522.409 3332.56,529.498 3332.56,535.463 C3332.56,542.049 3335.7,545.341 3341.97,545.341 C3349.57,545.341 3355.96,543.869 3361.15,540.925"/>
<path class="Note" d="M3802.03,999.7 C3798.24,999.7 3796.34,995.633 3796.34,987.498 L3796.34,953.448 C3796.34,950.194 3797.93,948.568 3801.1,948.568 C3802.5,948.568 3803.54,948.684 3804.24,948.916 C3806.72,944.578 3810.79,940.936 3816.44,937.992 C3824.34,933.886 3832.36,931.833 3840.5,931.833 C3846.93,931.833 3850.14,934.235 3850.14,939.038 C3850.14,943.067 3847.97,945.081 3843.64,945.081 C3840.54,945.081 3837.59,944.384 3834.8,942.989 C3832.32,941.75 3829.69,941.13 3826.9,941.13 C3822.1,941.13 3815.01,944.268 3805.63,950.543 C3806.95,956.818 3807.61,964.14 3807.61,972.507 C3807.61,990.636 3805.75,999.7 3802.03,999.7"/>
<path class="Note" d="M3853.4,848.933 C3863.86,842.348 3871.45,836.964 3876.17,832.78 C3884.85,825.11 3889.19,817.363 3889.19,809.538 C3889.19,800.396 3883.07,795.825 3870.83,795.825 C3857.97,795.825 3844.57,805.083 3830.62,823.599 C3821.17,836.15 3814.47,848.004 3810.52,859.16 C3815.4,855.984 3820.55,854.395 3825.97,854.395 C3831.08,854.395 3835.15,856.681 3838.17,861.252 C3840.27,864.428 3841.31,869.851 3841.31,877.521 C3841.31,884.416 3837.67,892.513 3830.39,901.809 C3825.89,907.542 3820.9,910.409 3815.4,910.409 C3808.42,910.409 3803.54,909.014 3800.75,906.225 C3796.8,902.274 3794.83,894.449 3794.83,882.751 C3794.83,863.072 3802.77,843.704 3818.65,824.645 C3836.55,803.185 3853.71,792.455 3870.13,792.455 C3882.84,792.455 3892.33,795.438 3898.6,801.403 C3902.24,804.889 3904.07,809.925 3904.07,816.511 C3904.07,823.871 3896.82,832.083 3882.33,841.147 C3874.74,845.951 3865.1,848.546 3853.4,848.933 M3809,864.041 C3807.07,870.549 3806.1,876.785 3806.1,882.751 C3806.1,896.929 3808.35,904.017 3812.84,904.017 C3817.1,904.017 3820.43,900.996 3822.83,894.953 C3825.62,888.135 3827.02,880.582 3827.02,872.292 C3827.02,864.932 3824.58,861.252 3819.7,861.252 C3816.29,861.252 3812.72,862.181 3809,864.041"/>
<path class="Note" d="M3802.03,642.535 C3798.24,642.535 3796.34,638.468 3796.34,630.333 L3796.34,596.283 C3796.34,593.029 3797.93,591.402 3801.1,591.402 C3802.5,591.402 3803.54,591.518 3804.24,591.751 C3806.72,587.412 3810.79,583.771 3816.44,580.827 C3824.34,576.721 3832.36,574.668 3840.5,574.668 C3846.93,574.668 3850.14,577.069 3850.14,581.873 C3850.14,585.902 3847.97,587.916 3843.64,587.916 C3840.54,587.916 3837.59,587.219 3834.8,585.824 C3832.32,584.584 3829.69,583.965 3826.9,583.965 C3822.1,583.965 3815.01,587.102 3805.63,593.378 C3806.95,599.653 3807.61,606.974 3807.61,615.342 C3807.61,633.471 3805.75,642.535 3802.03,642.535"/>
<path class="Note" d="M3846.31,673.256 C3850.88,673.256 3853.16,676.123 3853.16,681.856 C3853.16,685.884 3850.65,691.888 3845.61,699.868 C3841.58,706.299 3839.57,712.574 3839.57,718.694 C3839.57,722.181 3844.64,723.924 3854.79,723.924 C3863.16,723.924 3874.82,719.392 3889.77,710.327 C3874.74,724.815 3861.69,732.059 3850.61,732.059 C3840.61,732.059 3833.64,730.548 3829.69,727.527 C3828.68,726.752 3827.83,725.822 3827.13,724.737 C3823.26,729.463 3816.79,731.826 3807.73,731.826 C3799.05,731.826 3792.39,730.044 3787.74,726.481 C3784.64,724.079 3783.09,720.244 3783.09,714.976 C3783.09,706.609 3788.05,697.467 3797.96,687.55 C3808.58,676.936 3820.86,671.629 3834.8,671.629 C3838.29,671.629 3840.85,672.907 3842.47,675.464 C3843.79,673.992 3845.07,673.256 3846.31,673.256 M3825.51,719.508 C3825.43,718.888 3825.39,718.268 3825.39,717.649 C3825.39,717.339 3829.34,706.531 3837.24,685.226 C3838.02,683.134 3838.79,681.352 3839.57,679.88 C3836.55,679.26 3833.56,678.95 3830.62,678.95 C3825.2,678.95 3817.99,683.56 3809,692.779 C3800.95,700.992 3796.92,708.081 3796.92,714.046 C3796.92,720.631 3800.06,723.924 3806.33,723.924 C3813.92,723.924 3820.32,722.452 3825.51,719.508"/>
<path class="Clef" transform="matrix(2.3811,0,0,2.3811,212.156,2076.38)" d="M25.4,-25.1 C17.8,-25.1 11.7,-20.7 11.6,-20.7 C5.8,-16.4 3.5,-11.3 2.6,-7.8 C2.1,-6 1.9,-4.2 1.9,-2.5 C1.9,-0.1 2.3,2.1 3.2,4 C4.4,6.7 6.7,8.6 9.7,9.6 C10.9,10 12.2,10.2 13.5,10.2 C15.7,10.2 18,9.6 19.9,8.5 C23,6.8 24.9,3.2 24.9,-0.7 C24.9,-4.2 23.1,-7.4 20.1,-9.3 C18,-10.7 16,-11.1 14.3,-11.1 C13.1,-11.1 12,-10.9 11.1,-10.6 C10.1,-10.2 8.4,-9.2 7.6,-8.5 C7.9,-10.4 9.1,-13.3 10.2,-14.9 C11.3,-16.5 13.5,-18.5 15.2,-19.4 C17.7,-20.8 20.9,-21.4 24.4,-21.4 C34.6,-21.4 39.6,-13.2 39.6,3.6 C39.6,12.9 36.1,21.8 33.1,27.7 C29.8,34.3 25.4,40.6 21.5,44.1 C11.1,53.6 1.3,58.1 1.2,58.1 C1.2,58.1 -0.3,59 0.1,60.5 C0.4,61.5 1.3,61.7 1.9,61.7 C2,61.7 2.3,61.6 2.4,61.6 C2.5,61.6 13.9,56.9 23,49.8 C28.1,46.1 32.7,42.1 36.7,37.8 C40.3,33.9 43.4,29.7 45.9,25.5 C50.3,18 52.8,10.2 52.8,3.5 C52.8,-4.8 50.6,-11.7 46.5,-16.6 C41.8,-22.2 34.7,-25.1 25.4,-25.1 M56.8,-12.4 C56.8,-9.6 59,-7.4 61.6,-7.4 C64.2,-7.4 66.4,-9.6 66.4,-12.4 C66.4,-15.2 64.2,-17.5 61.6,-17.5 C59,-17.5 56.8,-15.2 56.8,-12.4 M56.8,12.3 C56.8,15.1 59,17.4 61.6,17.4 C64.2,17.4 66.4,15.1 66.4,12.3 C66.4,9.5 64.2,7.2 61.6,7.2 C59,7.2 56.8,9.5 56.8,12.3"/>
<path class="Clef" transform="matrix(2.3811,0,0,2.3811,212.156,1570.39)" d="M63.37,-5.89004 C62.14,-11.32 59.5,-15.14 58.72,-16.1801 C55.5301,-20.45 51.52,-23.3 46.8301,-24.65 C43.72,-25.54 40.72,-25.65 38.3,-25.47 C37.2601,-31.4801 36.2601,-37.3601 35.35,-42.8101 C40.79,-48.97 44.42,-54.77 46.69,-59.07 C50.1601,-65.65 51.3101,-70.2301 51.3601,-70.4301 C53.0801,-75.64 53.44,-83.34 52.34,-91.55 C51.3301,-99.1 49.24,-105.81 46.89,-109.06 C45.8601,-110.49 44.8101,-111.22 43.77,-111.22 C42.55,-111.22 40.04,-109.98 37.15,-107.21 C34.85,-105.01 31.5801,-101.12 29.02,-95.1101 C26.02,-88.05 25.8101,-78.5601 26.1601,-71.84 C26.54,-64.57 27.65,-58.8801 27.6601,-58.8301 C27.6801,-58.74 27.94,-57.24 28.39,-54.67 C28.1601,-54.44 27.92,-54.22 27.67,-53.9801 C26.6301,-52.9801 25.44,-51.84 24.0601,-50.4601 C23.2,-49.6 22.25,-48.69 21.25,-47.72 C12.79,-39.57 0,-27.25 0,-8.1 C0,-3.4 0.9,1.01992 2.68008,5.02998 C4.27002,8.62998 6.57002,11.91 9.5,14.78 C17.2301,22.33 27.82,25.5399 34.8801,25.38 C37.8301,25.31 40.4601,25.0699 42.85,24.6199 C44.6801,34.2199 45.82,41.25 45.8601,46.5899 C45.9,53.1 44.25,57.0699 40.35,59.8399 C37.92,61.5699 35.1101,62.5199 32.0101,62.6699 C29.42,62.7899 27.1601,62.3199 25.7301,61.91 L25.72,61.91 C25.72,61.91 25.4301,61.83 25.42,61.63 C25.4101,61.45 25.7601,61.4 25.77,61.4 L25.79,61.4 C27.7101,60.96 31.2801,59.73 33.64,56.43 C35.44,53.91 36.3101,49.2899 34.47,45.35 C33.3601,42.96 30.85,40.01 25.2301,39.56 C22.74,39.36 20.47,39.8699 18.47,41.0699 C16.6601,42.15 15.1601,43.7899 14.1101,45.7899 C11.65,50.4899 12.1101,56.2199 15.24,60.06 C18.2,63.68 22.82,65.9899 28.25,66.5699 C29.1,66.66 29.95,66.7 30.8,66.7 C31.5101,66.7 32.22,66.6699 32.92,66.61 C31.72,66.9399 30.64,67.4899 29.77,68.25 C28.2801,69.5399 27.44,71.38 27.44,73.41 C27.44,75.28 28.0601,76.65 29.55,78.0399 C28.4101,78.5 27.55,78.98 26.79,79.56 C25.25,80.73 24.34,82.46 24.34,84.1899 C24.34,87.45 27.3,89.63 31.72,89.63 C37.1301,89.63 40.9101,86.63 40.9101,82.35 C40.9101,80.1199 39.9101,78.18 38.0801,76.83 C41.0101,75.6199 42.37,73.9399 42.37,71.56 C42.39,70.05 41.69,68.61 40.49,67.6899 C39.2801,66.7399 37.62,66.2399 35.69,66.2399 L35.5101,66.2399 C38.2801,65.7 40.92,64.7 43.2101,63.28 C46.87,60.71 48.99,56.73 49.67,51.1 C50.2301,46.46 49.84,40.55 48.44,32.48 C48.0801,30.3899 47.54,27.36 46.8801,23.6 C52.6301,21.68 56.79,18.11 60.5601,12.26 C63.85,6.51992 64.8,0.419922 63.37,-5.89004 M32.39,87.5399 C30.19,87.5399 28.7301,86.1199 28.7301,84.01 C28.7301,82.11 29.65,80.5 31.32,79.4699 C31.6801,79.66 31.77,79.71 32.1101,79.88 C33.3,80.48 33.3,80.48 33.55,80.63 L33.5601,80.6399 C35.47,81.73 36.25,82.76 36.25,84.18 C36.24,86.0899 34.59,87.5399 32.39,87.5399 M38.3101,71.63 C38.3101,73.2699 37.7301,74.3399 36.1801,75.53 C34.74,74.78 34.35,74.56 33.9801,74.3399 L33.8801,74.28 C32.3301,73.3399 31.85,72.66 31.85,71.4 C31.85,69.6 33.2301,68.3399 35.19,68.3399 C37.17,68.35 38.3101,69.55 38.3101,71.63 M33.15,-83.8101 C34.9301,-89.55 37.67,-92.8 39.6601,-94.5301 C41.4101,-96.05 43.0601,-96.7601 43.9801,-96.7601 C44.12,-96.7601 44.24,-96.74 44.34,-96.7101 C44.8,-96.57 45.3301,-96 45.8,-95.1301 C48.1101,-90.84 47.37,-84.1301 46.0301,-79.69 C44.4,-74.29 41.4801,-68.6801 32.69,-59.0601 C32.52,-60.17 32.3601,-61.22 32.2101,-62.2 C30.95,-70.49 31.27,-77.7601 33.15,-83.8101 M29.15,20.31 C24.5101,19.0899 20.0801,16.5899 16.32,13.0899 C15.0101,11.86 13.14,9.68994 11.67,6.3 C10.3101,3.13994 9.65,-0.290039 9.7,-3.88008 C9.77002,-8.57002 11.0801,-13.39 13.59,-18.1801 C16.5101,-23.7601 21.07,-29.29 27.1301,-34.62 C28.5801,-35.9 29.95,-37.1801 31.24,-38.4601 C32,-34.2 32.8301,-29.5101 33.7101,-24.6301 C29.8601,-23.3601 25.1101,-20.2101 22,-14.5601 C18.47,-7.99004 18.6101,-2.47002 19.34,1.00996 C20.2801,5.46992 22.8101,9.22998 26.27,11.3199 C27.2,11.88 31.3301,14.01 33.17,13.43 C33.54,13.31 33.8101,13.0899 33.95,12.76 C34.4601,11.5899 33.44,10.95 31.8801,9.98994 C31.2801,9.61992 30.6101,9.2 29.8801,8.66992 C26.5601,6.17998 25.1101,1.72998 26.1801,-2.65 C26.7601,-5.05 28.04,-7.21006 29.8801,-8.91006 C31.55,-10.4601 33.59,-11.5601 35.97,-12.2 C38.0101,-0.960059 40.07,10.1899 41.7101,18.55 C41.84,19.2399 41.9801,19.91 42.1101,20.58 C37.7101,21.51 33.37,21.4199 29.15,20.31 M54.9,10.1 C53.7301,13.28 51.27,17.35 46.14,19.41 C46.07,18.9899 45.99,18.56 45.9101,18.13 C44.3601,9.36992 42.4301,-1.61006 40.47,-12.87 C50.82,-13.35 55.09,-5.91006 55.9801,-1.08008 C56.45,1.45 56.45,5.88994 54.9,10.1"/>
<path class="KeySig" transform="matrix(2.3811,0,0,2.3811,429.785,2076.38)" d="M23.3,-10.6 C23.9,-10.7 24.4,-11.4 24.4,-12 L24.4,-17.9 C24.4,-18.7 23.8,-19.3 23,-19.3 L22.8,-19.3 L19.5,-18.6 L19.5,-33.5 L16.7,-33.5 L16.7,-18 L7.8,-16.2 L7.8,-30.3 L5,-30.3 L5,-15.6 L1.1,-14.8 C0.5,-14.7 0,-14 0,-13.4 L0,-13.2 L0,-7.4 L0,-7.6 C0,-6.8 0.6,-6.2 1.4,-6.2 L1.7,-6.2 L5,-6.9 L5,9.6 L1.1,10.4 C0.5,10.5 0,11.2 0,11.8 L0,17.6 C0,18.4 0.6,19 1.4,19 L1.7,19 L5,18.3 L5,33.2 L7.8,33.2 L7.8,17.7 L16.7,15.9 L16.7,30 L19.5,30 L19.5,15.3 L23.3,14.6 C23.9,14.5 24.4,13.8 24.4,13.2 L24.4,7.3 C24.4,6.5 23.8,5.9 23,5.9 L22.8,5.9 L19.5,6.6 L19.5,-9.9 L23.3,-10.6 M7.8,9.1 L7.8,-7.5 L16.7,-9.3 L16.7,7.2 L7.8,9.1 "/>
<path class="KeySig" transform="matrix(2.3811,0,0,2.3811,429.785,1391.81)" d="M23.3,-10.6 C23.9,-10.7 24.4,-11.4 24.4,-12 L24.4,-17.9 C24.4,-18.7 23.8,-19.3 23,-19.3 L22.8,-19.3 L19.5,-18.6 L19.5,-33.5 L16.7,-33.5 L16.7,-18 L7.8,-16.2 L7.8,-30.3 L5,-30.3 L5,-15.6 L1.1,-14.8 C0.5,-14.7 0,-14 0,-13.4 L0,-13.2 L0,-7.4 L0,-7.6 C0,-6.8 0.6,-6.2 1.4,-6.2 L1.7,-6.2 L5,-6.9 L5,9.6 L1.1,10.4 C0.5,10.5 0,11.2 0,11.8 L0,17.6 C0,18.4 0.6,19 1.4,19 L1.7,19 L5,18.3 L5,33.2 L7.8,33.2 L7.8,17.7 L16.7,15.9 L16.7,30 L19.5,30 L19.5,15.3 L23.3,14.6 C23.9,14.5 24.4,13.8 24.4,13.2 L24.4,7.3 C24.4,6.5 23.8,5.9 23,5.9 L22.8,5.9 L19.5,6.6 L19.5,-9.9 L23.3,-10.6 M7.8,9.1 L7.8,-7.5 L16.7,-9.3 L16.7,7.2 L7.8,9.1 "/>
<path class="FiguredBass" d="M756.865,2390.15 C752.288,2390.15 749.242,2391.99 747.727,2395.67 C746.211,2399.35 745.454,2404.56 745.454,2411.3 L745.454,2422.25 C748.67,2420.95 751.453,2420.27 753.803,2420.21 C761.844,2420.21 768.168,2421.98 772.776,2425.54 C777.383,2429.1 779.687,2434.38 779.687,2441.4 C779.687,2448.42 777.352,2453.73 772.683,2457.31 C768.013,2460.9 761.72,2462.7 753.803,2462.7 C745.701,2462.7 739.362,2458.94 734.785,2451.42 C730.208,2443.91 727.92,2434.99 727.92,2424.66 C727.92,2414.39 730.579,2405.49 735.898,2397.94 C741.217,2390.39 748.206,2386.62 756.865,2386.62 C762.555,2386.62 767.472,2388.06 771.616,2390.94 C775.76,2393.81 777.832,2397.6 777.832,2402.3 C777.832,2405.02 776.842,2407.37 774.863,2409.35 C772.884,2411.33 770.518,2412.32 767.766,2412.32 C765.014,2412.32 762.648,2411.33 760.669,2409.35 C758.689,2407.37 757.7,2405.02 757.7,2402.3 C757.7,2399.64 758.689,2397.29 760.669,2395.25 C761.349,2394.45 762.308,2393.76 763.545,2393.21 C763.235,2392.4 762.617,2391.79 761.689,2391.35 C760.328,2390.55 758.72,2390.15 756.865,2390.15 M761.411,2428.09 C760.298,2425.18 757.855,2423.73 754.082,2423.73 C750.309,2423.73 747.974,2425.18 747.077,2428.09 C746.181,2431 745.732,2435.42 745.732,2441.36 C745.732,2448.35 746.181,2453.05 747.077,2455.46 C747.974,2457.87 750.309,2459.08 754.082,2459.08 C757.855,2459.08 760.298,2457.62 761.411,2454.72 C762.524,2451.81 763.081,2447.37 763.081,2441.4 C763.081,2435.44 762.524,2431 761.411,2428.09"/>
<path class="FiguredBass" d="M2014.14,2390.15 C2009.57,2390.15 2006.52,2391.99 2005,2395.67 C2003.49,2399.35 2002.73,2404.56 2002.73,2411.3 L2002.73,2422.25 C2005.95,2420.95 2008.73,2420.27 2011.08,2420.21 C2019.12,2420.21 2025.44,2421.98 2030.05,2425.54 C2034.66,2429.1 2036.96,2434.38 2036.96,2441.4 C2036.96,2448.42 2034.63,2453.73 2029.96,2457.31 C2025.29,2460.9 2019,2462.7 2011.08,2462.7 C2002.98,2462.7 1996.64,2458.94 1992.06,2451.42 C1987.48,2443.91 1985.2,2434.99 1985.2,2424.66 C1985.2,2414.39 1987.86,2405.49 1993.18,2397.94 C1998.49,2390.39 2005.48,2386.62 2014.14,2386.62 C2019.83,2386.62 2024.75,2388.06 2028.89,2390.94 C2033.04,2393.81 2035.11,2397.6 2035.11,2402.3 C2035.11,2405.02 2034.12,2407.37 2032.14,2409.35 C2030.16,2411.33 2027.79,2412.32 2025.04,2412.32 C2022.29,2412.32 2019.92,2411.33 2017.95,2409.35 C2015.97,2407.37 2014.98,2405.02 2014.98,2402.3 C2014.98,2399.64 2015.97,2397.29 2017.95,2395.25 C2018.63,2394.45 2019.58,2393.76 2020.82,2393.21 C2020.51,2392.4 2019.89,2391.79 2018.97,2391.35 C2017.61,2390.55 2016,2390.15 2014.14,2390.15 M2018.69,2428.09 C2017.57,2425.18 2015.13,2423.73 2011.36,2423.73 C2007.59,2423.73 2005.25,2425.18 2004.35,2428.09 C2003.46,2431 2003.01,2435.42 2003.01,2441.36 C2003.01,2448.35 2003.46,2453.05 2004.35,2455.46 C2005.25,2457.87 2007.59,2459.08 2011.36,2459.08 C2015.13,2459.08 2017.57,2457.62 2018.69,2454.72 C2019.8,2451.81 2020.36,2447.37 2020.36,2441.4 C2020.36,2435.44 2019.8,2431 2018.69,2428.09"/>
<path class="FiguredBass" d="M2921.79,2390.15 C2917.21,2390.15 2914.16,2391.99 2912.65,2395.67 C2911.13,2399.35 2910.38,2404.56 2910.38,2411.3 L2910.38,2422.25 C2913.59,2420.95 2916.38,2420.27 2918.73,2420.21 C2926.77,2420.21 2933.09,2421.98 2937.7,2425.54 C2942.31,2429.1 2944.61,2434.38 2944.61,2441.4 C2944.61,2448.42 2942.28,2453.73 2937.61,2457.31 C2932.94,2460.9 2926.64,2462.7 2918.73,2462.7 C2910.62,2462.7 2904.28,2458.94 2899.71,2451.42 C2895.13,2443.91 2892.84,2434.99 2892.84,2424.66 C2892.84,2414.39 2895.5,2405.49 2900.82,2397.94 C2906.14,2390.39 2913.13,2386.62 2921.79,2386.62 C2927.48,2386.62 2932.39,2388.06 2936.54,2390.94 C2940.68,2393.81 2942.75,2397.6 2942.75,2402.3 C2942.75,2405.02 2941.76,2407.37 2939.79,2409.35 C2937.81,2411.33 2935.44,2412.32 2932.69,2412.32 C2929.94,2412.32 2927.57,2411.33 2925.59,2409.35 C2923.61,2407.37 2922.62,2405.02 2922.62,2402.3 C2922.62,2399.64 2923.61,2397.29 2925.59,2395.25 C2926.27,2394.45 2927.23,2393.76 2928.47,2393.21 C2928.16,2392.4 2927.54,2391.79 2926.61,2391.35 C2925.25,2390.55 2923.64,2390.15 2921.79,2390.15 M2926.33,2428.09 C2925.22,2425.18 2922.78,2423.73 2919,2423.73 C2915.23,2423.73 2912.9,2425.18 2912,2428.09 C2911.1,2431 2910.65,2435.42 2910.65,2441.36 C2910.65,2448.35 2911.1,2453.05 2912,2455.46 C2912.9,2457.87 2915.23,2459.08 2919,2459.08 C2922.78,2459.08 2925.22,2457.62 2926.33,2454.72 C2927.45,2451.81 2928,2447.37 2928,2441.4 C2928,2435.44 2927.45,2431 2926.33,2428.09"/>
<path class="FiguredBass" d="M3350.32,2390.15 C3345.74,2390.15 3342.7,2391.99 3341.18,2395.67 C3339.67,2399.35 3338.91,2404.56 3338.91,2411.3 L3338.91,2422.25 C3342.13,2420.95 3344.91,2420.27 3347.26,2420.21 C3355.3,2420.21 3361.62,2421.98 3366.23,2425.54 C3370.84,2429.1 3373.14,2434.38 3373.14,2441.4 C3373.14,2448.42 3370.81,2453.73 3366.14,2457.31 C3361.47,2460.9 3355.18,2462.7 3347.26,2462.7 C3339.16,2462.7 3332.82,2458.94 3328.24,2451.42 C3323.66,2443.91 3321.38,2434.99 3321.38,2424.66 C3321.38,2414.39 3324.03,2405.49 3329.35,2397.94 C3334.67,2390.39 3341.66,2386.62 3350.32,2386.62 C3356.01,2386.62 3360.93,2388.06 3365.07,2390.94 C3369.22,2393.81 3371.29,2397.6 3371.29,2402.3 C3371.29,2405.02 3370.3,2407.37 3368.32,2409.35 C3366.34,2411.33 3363.97,2412.32 3361.22,2412.32 C3358.47,2412.32 3356.1,2411.33 3354.12,2409.35 C3352.15,2407.37 3351.16,2405.02 3351.16,2402.3 C3351.16,2399.64 3352.15,2397.29 3354.12,2395.25 C3354.8,2394.45 3355.76,2393.76 3357,2393.21 C3356.69,2392.4 3356.07,2391.79 3355.14,2391.35 C3353.78,2390.55 3352.18,2390.15 3350.32,2390.15 M3354.87,2428.09 C3353.75,2425.18 3351.31,2423.73 3347.54,2423.73 C3343.76,2423.73 3341.43,2425.18 3340.53,2428.09 C3339.64,2431 3339.19,2435.42 3339.19,2441.36 C3339.19,2448.35 3339.64,2453.05 3340.53,2455.46 C3341.43,2457.87 3343.76,2459.08 3347.54,2459.08 C3351.31,2459.08 3353.75,2457.62 3354.87,2454.72 C3355.98,2451.81 3356.54,2447.37 3356.54,2441.4 C3356.54,2435.44 3355.98,2431 3354.87,2428.09"/>
<path class="FiguredBass" d="M3805.86,2453.05 L3805.86,2472.44 C3805.86,2474.35 3804.89,2475.31 3802.94,2475.31 C3800.99,2475.31 3800.02,2474.35 3800.02,2472.44 L3800.02,2455.55 L3797.05,2456.76 C3796.74,2456.88 3796.34,2456.94 3795.85,2456.94 C3795.04,2456.94 3794.33,2456.63 3793.71,2456.02 C3793.09,2455.4 3792.78,2454.69 3792.78,2453.88 L3792.78,2444.42 C3792.78,2443.06 3793.43,2442.1 3794.73,2441.54 L3800.02,2439.32 L3800.02,2419.83 L3797.05,2421.04 C3796.87,2421.1 3796.62,2421.13 3796.31,2421.13 C3796.19,2421.13 3796.03,2421.13 3795.85,2421.13 C3794.92,2421.01 3794.18,2420.67 3793.62,2420.11 C3793.06,2419.56 3792.78,2418.91 3792.78,2418.16 L3792.78,2408.7 C3792.78,2407.4 3793.43,2406.47 3794.73,2405.92 L3800.02,2403.69 L3800.02,2383.93 C3800.02,2382.01 3800.99,2381.05 3802.94,2381.05 C3804.89,2381.05 3805.86,2382.01 3805.86,2383.93 L3805.86,2401.28 L3817.83,2396.27 L3817.83,2376.88 C3817.83,2374.96 3818.79,2374 3820.71,2374 C3822.63,2374 3823.58,2374.96 3823.58,2376.88 L3823.58,2393.95 L3826.83,2392.56 C3827.14,2392.44 3827.48,2392.37 3827.85,2392.37 C3828.66,2392.37 3829.38,2392.68 3830.03,2393.3 C3830.68,2393.92 3831.01,2394.63 3831.01,2395.43 L3831.01,2404.9 C3831.01,2406.26 3830.33,2407.22 3828.97,2407.77 L3823.58,2410 L3823.58,2429.58 L3826.83,2428.28 C3827.02,2428.21 3827.23,2428.18 3827.48,2428.18 C3827.6,2428.18 3827.73,2428.18 3827.85,2428.18 C3828.9,2428.37 3829.69,2428.71 3830.22,2429.2 C3830.74,2429.7 3831.01,2430.35 3831.01,2431.15 L3831.01,2440.62 C3831.01,2441.91 3830.33,2442.84 3828.97,2443.4 L3823.58,2445.63 L3823.58,2465.39 C3823.58,2467.3 3822.63,2468.26 3820.71,2468.26 C3818.79,2468.26 3817.83,2467.3 3817.83,2465.39 L3817.83,2448.04 L3805.86,2453.05 M3805.86,2436.9 L3817.83,2431.99 L3817.83,2412.41 L3805.86,2417.42 L3805.86,2436.9 "/>
<path class="FiguredBass" d="M756.865,1765.11 C752.288,1765.11 749.242,1766.95 747.727,1770.63 C746.211,1774.31 745.454,1779.52 745.454,1786.26 L745.454,1797.21 C748.67,1795.91 751.453,1795.23 753.803,1795.17 C761.844,1795.17 768.168,1796.94 772.776,1800.5 C777.383,1804.06 779.687,1809.34 779.687,1816.36 C779.687,1823.38 777.352,1828.69 772.683,1832.28 C768.013,1835.86 761.72,1837.66 753.803,1837.66 C745.701,1837.66 739.362,1833.9 734.785,1826.38 C730.208,1818.87 727.92,1809.95 727.92,1799.62 C727.92,1789.35 730.579,1780.45 735.898,1772.9 C741.217,1765.35 748.206,1761.58 756.865,1761.58 C762.555,1761.58 767.472,1763.02 771.616,1765.9 C775.76,1768.77 777.832,1772.56 777.832,1777.26 C777.832,1779.98 776.842,1782.33 774.863,1784.31 C772.884,1786.29 770.518,1787.28 767.766,1787.28 C765.014,1787.28 762.648,1786.29 760.669,1784.31 C758.689,1782.33 757.7,1779.98 757.7,1777.26 C757.7,1774.6 758.689,1772.25 760.669,1770.21 C761.349,1769.41 762.308,1768.73 763.545,1768.17 C763.235,1767.36 762.617,1766.75 761.689,1766.31 C760.328,1765.51 758.72,1765.11 756.865,1765.11 M761.411,1803.05 C760.298,1800.14 757.855,1798.69 754.082,1798.69 C750.309,1798.69 747.974,1800.14 747.077,1803.05 C746.181,1805.96 745.732,1810.38 745.732,1816.32 C745.732,1823.31 746.181,1828.01 747.077,1830.42 C747.974,1832.83 750.309,1834.04 754.082,1834.04 C757.855,1834.04 760.298,1832.58 761.411,1829.68 C762.524,1826.77 763.081,1822.33 763.081,1816.36 C763.081,1810.4 762.524,1805.96 761.411,1803.05"/>
<path class="FiguredBass" d="M768.74,1903.05 C768.74,1904.04 769.297,1905 770.41,1905.93 C771.523,1906.85 772.745,1907.73 774.074,1908.57 C775.404,1909.4 776.626,1910.98 777.739,1913.3 C778.852,1915.62 779.409,1918.54 779.409,1922.07 C779.409,1928.87 776.842,1934.13 771.709,1937.84 C766.575,1941.55 760.081,1943.41 752.226,1943.41 C745.918,1943.41 740.429,1941.83 735.759,1938.67 C731.089,1935.52 728.755,1931.38 728.755,1926.24 C728.755,1923.52 729.744,1921.16 731.723,1919.15 C733.703,1917.14 736.068,1916.13 738.821,1916.13 C741.573,1916.13 743.908,1917.12 745.825,1919.1 C747.742,1921.08 748.701,1923.46 748.701,1926.24 C748.701,1927.48 747.68,1928.83 745.639,1930.28 C743.598,1931.73 742.578,1933.08 742.578,1934.31 C742.578,1936.23 743.521,1937.64 745.407,1938.54 C747.294,1939.43 749.567,1939.88 752.226,1939.88 C755.69,1939.88 758.148,1938.16 759.602,1934.73 C761.055,1931.3 761.782,1927.08 761.782,1922.07 L761.782,1919.66 C761.782,1916.32 761.674,1913.78 761.457,1912.05 C761.241,1910.32 760.56,1908.77 759.416,1907.41 C758.272,1906.05 756.525,1905.37 754.175,1905.37 L742.021,1905.37 C740.599,1905.37 739.887,1904.6 739.887,1903.05 C739.887,1901.63 740.599,1900.92 742.021,1900.92 L754.175,1900.92 C756.71,1900.92 758.689,1899.96 760.112,1898.04 C760.607,1897.36 761.009,1896.25 761.318,1894.7 C761.627,1892.66 761.782,1889.72 761.782,1885.89 L761.782,1884.68 C761.782,1875.47 758.38,1870.86 751.577,1870.86 C745.578,1870.86 742.578,1872.53 742.578,1875.87 C742.578,1876.98 743.49,1878.17 745.315,1879.44 C747.139,1880.71 748.051,1881.9 748.051,1883.01 C748.051,1885.42 747.201,1887.49 745.5,1889.23 C743.799,1890.96 741.727,1891.82 739.284,1891.82 C736.841,1891.82 734.785,1890.96 733.115,1889.23 C731.445,1887.49 730.61,1885.42 730.61,1883.01 C730.61,1878.25 732.682,1874.44 736.826,1871.6 C740.97,1868.75 745.887,1867.33 751.577,1867.33 C759.061,1867.33 765.215,1868.77 770.039,1871.65 C774.863,1874.52 777.275,1878.87 777.275,1884.68 C777.275,1888.82 776.842,1892.04 775.976,1894.33 C775.11,1896.62 774.121,1898.01 773.008,1898.5 C771.894,1899 770.905,1899.57 770.039,1900.22 C769.173,1900.87 768.74,1901.81 768.74,1903.05"/>
<path class="FiguredBass" d="M2014.14,1765.11 C2009.57,1765.11 2006.52,1766.95 2005,1770.63 C2003.49,1774.31 2002.73,1779.52 2002.73,1786.26 L2002.73,1797.21 C2005.95,1795.91 2008.73,1795.23 2011.08,1795.17 C2019.12,1795.17 2025.44,1796.94 2030.05,1800.5 C2034.66,1804.06 2036.96,1809.34 2036.96,1816.36 C2036.96,1823.38 2034.63,1828.69 2029.96,1832.28 C2025.29,1835.86 2019,1837.66 2011.08,1837.66 C2002.98,1837.66 1996.64,1833.9 1992.06,1826.38 C1987.48,1818.87 1985.2,1809.95 1985.2,1799.62 C1985.2,1789.35 1987.86,1780.45 1993.18,1772.9 C1998.49,1765.35 2005.48,1761.58 2014.14,1761.58 C2019.83,1761.58 2024.75,1763.02 2028.89,1765.9 C2033.04,1768.77 2035.11,1772.56 2035.11,1777.26 C2035.11,1779.98 2034.12,1782.33 2032.14,1784.31 C2030.16,1786.29 2027.79,1787.28 2025.04,1787.28 C2022.29,1787.28 2019.92,1786.29 2017.95,1784.31 C2015.97,1782.33 2014.98,1779.98 2014.98,1777.26 C2014.98,1774.6 2015.97,1772.25 2017.95,1770.21 C2018.63,1769.41 2019.58,1768.73 2020.82,1768.17 C2020.51,1767.36 2019.89,1766.75 2018.97,1766.31 C2017.61,1765.51 2016,1765.11 2014.14,1765.11 M2018.69,1803.05 C2017.57,1800.14 2015.13,1798.69 2011.36,1798.69 C2007.59,1798.69 2005.25,1800.14 2004.35,1803.05 C2003.46,1805.96 2003.01,1810.38 2003.01,1816.32 C2003.01,1823.31 2003.46,1828.01 2004.35,1830.42 C2005.25,1832.83 2007.59,1834.04 2011.36,1834.04 C2015.13,1834.04 2017.57,1832.58 2018.69,1829.68 C2019.8,1826.77 2020.36,1822.33 2020.36,1816.36 C2020.36,1810.4 2019.8,1805.96 2018.69,1803.05"/>
<path class="FiguredBass" d="M2026.02,1903.05 C2026.02,1904.04 2026.57,1905 2027.69,1905.93 C2028.8,1906.85 2030.02,1907.73 2031.35,1908.57 C2032.68,1909.4 2033.9,1910.98 2035.02,1913.3 C2036.13,1915.62 2036.69,1918.54 2036.69,1922.07 C2036.69,1928.87 2034.12,1934.13 2028.99,1937.84 C2023.85,1941.55 2017.36,1943.41 2009.5,1943.41 C2003.19,1943.41 1997.71,1941.83 1993.04,1938.67 C1988.37,1935.52 1986.03,1931.38 1986.03,1926.24 C1986.03,1923.52 1987.02,1921.16 1989,1919.15 C1990.98,1917.14 1993.35,1916.13 1996.1,1916.13 C1998.85,1916.13 2001.18,1917.12 2003.1,1919.1 C2005.02,1921.08 2005.98,1923.46 2005.98,1926.24 C2005.98,1927.48 2004.96,1928.83 2002.92,1930.28 C2000.88,1931.73 1999.85,1933.08 1999.85,1934.31 C1999.85,1936.23 2000.8,1937.64 2002.68,1938.54 C2004.57,1939.43 2006.84,1939.88 2009.5,1939.88 C2012.97,1939.88 2015.43,1938.16 2016.88,1934.73 C2018.33,1931.3 2019.06,1927.08 2019.06,1922.07 L2019.06,1919.66 C2019.06,1916.32 2018.95,1913.78 2018.73,1912.05 C2018.52,1910.32 2017.84,1908.77 2016.69,1907.41 C2015.55,1906.05 2013.8,1905.37 2011.45,1905.37 L1999.3,1905.37 C1997.88,1905.37 1997.16,1904.6 1997.16,1903.05 C1997.16,1901.63 1997.88,1900.92 1999.3,1900.92 L2011.45,1900.92 C2013.99,1900.92 2015.97,1899.96 2017.39,1898.04 C2017.88,1897.36 2018.29,1896.25 2018.59,1894.7 C2018.9,1892.66 2019.06,1889.72 2019.06,1885.89 L2019.06,1884.68 C2019.06,1875.47 2015.66,1870.86 2008.85,1870.86 C2002.85,1870.86 1999.85,1872.53 1999.85,1875.87 C1999.85,1876.98 2000.77,1878.17 2002.59,1879.44 C2004.42,1880.71 2005.33,1881.9 2005.33,1883.01 C2005.33,1885.42 2004.48,1887.49 2002.78,1889.23 C2001.08,1890.96 1999,1891.82 1996.56,1891.82 C1994.12,1891.82 1992.06,1890.96 1990.39,1889.23 C1988.72,1887.49 1987.89,1885.42 1987.89,1883.01 C1987.89,1878.25 1989.96,1874.44 1994.1,1871.6 C1998.25,1868.75 2003.16,1867.33 2008.85,1867.33 C2016.34,1867.33 2022.49,1868.77 2027.32,1871.65 C2032.14,1874.52 2034.55,1878.87 2034.55,1884.68 C2034.55,1888.82 2034.12,1892.04 2033.25,1894.33 C2032.39,1896.62 2031.4,1898.01 2030.28,1898.5 C2029.17,1899 2028.18,1899.57 2027.32,1900.22 C2026.45,1900.87 2026.02,1901.81 2026.02,1903.05"/>
<path class="FiguredBass" d="M2921.79,1765.11 C2917.21,1765.11 2914.16,1766.95 2912.65,1770.63 C2911.13,1774.31 2910.38,1779.52 2910.38,1786.26 L2910.38,1797.21 C2913.59,1795.91 2916.38,1795.23 2918.73,1795.17 C2926.77,1795.17 2933.09,1796.94 2937.7,1800.5 C2942.31,1804.06 2944.61,1809.34 2944.61,1816.36 C2944.61,1823.38 2942.28,1828.69 2937.61,1832.28 C2932.94,1835.86 2926.64,1837.66 2918.73,1837.66 C2910.62,1837.66 2904.28,1833.9 2899.71,1826.38 C2895.13,1818.87 2892.84,1809.95 2892.84,1799.62 C2892.84,1789.35 2895.5,1780.45 2900.82,1772.9 C2906.14,1765.35 2913.13,1761.58 2921.79,1761.58 C2927.48,1761.58 2932.39,1763.02 2936.54,1765.9 C2940.68,1768.77 2942.75,1772.56 2942.75,1777.26 C2942.75,1779.98 2941.76,1782.33 2939.79,1784.31 C2937.81,1786.29 2935.44,1787.28 2932.69,1787.28 C2929.94,1787.28 2927.57,1786.29 2925.59,1784.31 C2923.61,1782.33 2922.62,1779.98 2922.62,1777.26 C2922.62,1774.6 2923.61,1772.25 2925.59,1770.21 C2926.27,1769.41 2927.23,1768.73 2928.47,1768.17 C2928.16,1767.36 2927.54,1766.75 2926.61,1766.31 C2925.25,1765.51 2923.64,1765.11 2921.79,1765.11 M2926.33,1803.05 C2925.22,1800.14 2922.78,1798.69 2919,1798.69 C2915.23,1798.69 2912.9,1800.14 2912,1803.05 C2911.1,1805.96 2910.65,1810.38 2910.65,1816.32 C2910.65,1823.31 2911.1,1828.01 2912,1830.42 C2912.9,1832.83 2915.23,1834.04 2919,1834.04 C2922.78,1834.04 2925.22,1832.58 2926.33,1829.68 C2927.45,1826.77 2928,1822.33 2928,1816.36 C2928,1810.4 2927.45,1805.96 2926.33,1803.05"/>
<path class="FiguredBass" d="M2933.66,1903.05 C2933.66,1904.04 2934.22,1905 2935.33,1905.93 C2936.45,1906.85 2937.67,1907.73 2939,1908.57 C2940.33,1909.4 2941.55,1910.98 2942.66,1913.3 C2943.77,1915.62 2944.33,1918.54 2944.33,1922.07 C2944.33,1928.87 2941.76,1934.13 2936.63,1937.84 C2931.5,1941.55 2925,1943.41 2917.15,1943.41 C2910.84,1943.41 2905.35,1941.83 2900.68,1938.67 C2896.01,1935.52 2893.68,1931.38 2893.68,1926.24 C2893.68,1923.52 2894.67,1921.16 2896.65,1919.15 C2898.63,1917.14 2900.99,1916.13 2903.74,1916.13 C2906.5,1916.13 2908.83,1917.12 2910.75,1919.1 C2912.66,1921.08 2913.62,1923.46 2913.62,1926.24 C2913.62,1927.48 2912.6,1928.83 2910.56,1930.28 C2908.52,1931.73 2907.5,1933.08 2907.5,1934.31 C2907.5,1936.23 2908.44,1937.64 2910.33,1938.54 C2912.22,1939.43 2914.49,1939.88 2917.15,1939.88 C2920.61,1939.88 2923.07,1938.16 2924.52,1934.73 C2925.98,1931.3 2926.7,1927.08 2926.7,1922.07 L2926.7,1919.66 C2926.7,1916.32 2926.6,1913.78 2926.38,1912.05 C2926.16,1910.32 2925.48,1908.77 2924.34,1907.41 C2923.19,1906.05 2921.45,1905.37 2919.1,1905.37 L2906.94,1905.37 C2905.52,1905.37 2904.81,1904.6 2904.81,1903.05 C2904.81,1901.63 2905.52,1900.92 2906.94,1900.92 L2919.1,1900.92 C2921.63,1900.92 2923.61,1899.96 2925.03,1898.04 C2925.53,1897.36 2925.93,1896.25 2926.24,1894.7 C2926.55,1892.66 2926.7,1889.72 2926.7,1885.89 L2926.7,1884.68 C2926.7,1875.47 2923.3,1870.86 2916.5,1870.86 C2910.5,1870.86 2907.5,1872.53 2907.5,1875.87 C2907.5,1876.98 2908.41,1878.17 2910.24,1879.44 C2912.06,1880.71 2912.97,1881.9 2912.97,1883.01 C2912.97,1885.42 2912.12,1887.49 2910.42,1889.23 C2908.72,1890.96 2906.65,1891.82 2904.21,1891.82 C2901.76,1891.82 2899.71,1890.96 2898.04,1889.23 C2896.37,1887.49 2895.53,1885.42 2895.53,1883.01 C2895.53,1878.25 2897.6,1874.44 2901.75,1871.6 C2905.89,1868.75 2910.81,1867.33 2916.5,1867.33 C2923.98,1867.33 2930.14,1868.77 2934.96,1871.65 C2939.79,1874.52 2942.2,1878.87 2942.2,1884.68 C2942.2,1888.82 2941.76,1892.04 2940.9,1894.33 C2940.03,1896.62 2939.04,1898.01 2937.93,1898.5 C2936.82,1899 2935.83,1899.57 2934.96,1900.22 C2934.1,1900.87 2933.66,1901.81 2933.66,1903.05"/>
<path class="FiguredBass" d="M3350.32,1765.11 C3345.74,1765.11 3342.7,1766.95 3341.18,1770.63 C3339.67,1774.31 3338.91,1779.52 3338.91,1786.26 L3338.91,1797.21 C3342.13,1795.91 3344.91,1795.23 3347.26,1795.17 C3355.3,1795.17 3361.62,1796.94 3366.23,1800.5 C3370.84,1804.06 3373.14,1809.34 3373.14,1816.36 C3373.14,1823.38 3370.81,1828.69 3366.14,1832.28 C3361.47,1835.86 3355.18,1837.66 3347.26,1837.66 C3339.16,1837.66 3332.82,1833.9 3328.24,1826.38 C3323.66,1818.87 3321.38,1809.95 3321.38,1799.62 C3321.38,1789.35 3324.03,1780.45 3329.35,1772.9 C3334.67,1765.35 3341.66,1761.58 3350.32,1761.58 C3356.01,1761.58 3360.93,1763.02 3365.07,1765.9 C3369.22,1768.77 3371.29,1772.56 3371.29,1777.26 C3371.29,1779.98 3370.3,1782.33 3368.32,1784.31 C3366.34,1786.29 3363.97,1787.28 3361.22,1787.28 C3358.47,1787.28 3356.1,1786.29 3354.12,1784.31 C3352.15,1782.33 3351.16,1779.98 3351.16,1777.26 C3351.16,1774.6 3352.15,1772.25 3354.12,1770.21 C3354.8,1769.41 3355.76,1768.73 3357,1768.17 C3356.69,1767.36 3356.07,1766.75 3355.14,1766.31 C3353.78,1765.51 3352.18,1765.11 3350.32,1765.11 M3354.87,1803.05 C3353.75,1800.14 3351.31,1798.69 3347.54,1798.69 C3343.76,1798.69 3341.43,1800.14 3340.53,1803.05 C3339.64,1805.96 3339.19,1810.38 3339.19,1816.32 C3339.19,1823.31 3339.64,1828.01 3340.53,1830.42 C3341.43,1832.83 3343.76,1834.04 3347.54,1834.04 C3351.31,1834.04 3353.75,1832.58 3354.87,1829.68 C3355.98,1826.77 3356.54,1822.33 3356.54,1816.36 C3356.54,1810.4 3355.98,1805.96 3354.87,1803.05"/>
<path class="FiguredBass" d="M3362.2,1903.05 C3362.2,1904.04 3362.75,1905 3363.87,1905.93 C3364.98,1906.85 3366.2,1907.73 3367.53,1908.57 C3368.86,1909.4 3370.08,1910.98 3371.19,1913.3 C3372.31,1915.62 3372.86,1918.54 3372.86,1922.07 C3372.86,1928.87 3370.3,1934.13 3365.16,1937.84 C3360.03,1941.55 3353.54,1943.41 3345.68,1943.41 C3339.37,1943.41 3333.88,1941.83 3329.21,1938.67 C3324.55,1935.52 3322.21,1931.38 3322.21,1926.24 C3322.21,1923.52 3323.2,1921.16 3325.18,1919.15 C3327.16,1917.14 3329.52,1916.13 3332.28,1916.13 C3335.03,1916.13 3337.36,1917.12 3339.28,1919.1 C3341.2,1921.08 3342.16,1923.46 3342.16,1926.24 C3342.16,1927.48 3341.14,1928.83 3339.1,1930.28 C3337.05,1931.73 3336.03,1933.08 3336.03,1934.31 C3336.03,1936.23 3336.98,1937.64 3338.86,1938.54 C3340.75,1939.43 3343.02,1939.88 3345.68,1939.88 C3349.15,1939.88 3351.6,1938.16 3353.06,1934.73 C3354.51,1931.3 3355.24,1927.08 3355.24,1922.07 L3355.24,1919.66 C3355.24,1916.32 3355.13,1913.78 3354.91,1912.05 C3354.7,1910.32 3354.02,1908.77 3352.87,1907.41 C3351.73,1906.05 3349.98,1905.37 3347.63,1905.37 L3335.48,1905.37 C3334.05,1905.37 3333.34,1904.6 3333.34,1903.05 C3333.34,1901.63 3334.05,1900.92 3335.48,1900.92 L3347.63,1900.92 C3350.17,1900.92 3352.15,1899.96 3353.57,1898.04 C3354.06,1897.36 3354.46,1896.25 3354.77,1894.7 C3355.08,1892.66 3355.24,1889.72 3355.24,1885.89 L3355.24,1884.68 C3355.24,1875.47 3351.84,1870.86 3345.03,1870.86 C3339.03,1870.86 3336.03,1872.53 3336.03,1875.87 C3336.03,1876.98 3336.95,1878.17 3338.77,1879.44 C3340.59,1880.71 3341.51,1881.9 3341.51,1883.01 C3341.51,1885.42 3340.66,1887.49 3338.96,1889.23 C3337.26,1890.96 3335.18,1891.82 3332.74,1891.82 C3330.3,1891.82 3328.24,1890.96 3326.57,1889.23 C3324.9,1887.49 3324.07,1885.42 3324.07,1883.01 C3324.07,1878.25 3326.14,1874.44 3330.28,1871.6 C3334.43,1868.75 3339.34,1867.33 3345.03,1867.33 C3352.52,1867.33 3358.67,1868.77 3363.49,1871.65 C3368.32,1874.52 3370.73,1878.87 3370.73,1884.68 C3370.73,1888.82 3370.3,1892.04 3369.43,1894.33 C3368.57,1896.62 3367.58,1898.01 3366.46,1898.5 C3365.35,1899 3364.36,1899.57 3363.49,1900.22 C3362.63,1900.87 3362.2,1901.81 3362.2,1903.05"/>
<polyline class="FretDiagram" stroke="#fc02ff" stroke-width="11.91" stroke-linejoin="bevel" points="1910.52,227.452 2123.63,227.452"/>
<polyline class="FretDiagram" stroke="#fc02ff" stroke-width="4.76" stroke-linejoin="bevel" points="1912.9,227.452 1912.9,441.751"/>
<polyline class="FretDiagram" stroke="#fc02ff" stroke-width="4.76" stroke-linejoin="bevel" points="1954.57,227.452 1954.57,441.751"/>
<polyline class="FretDiagram" stroke="#fc02ff" stroke-width="4.76" stroke-linejoin="bevel" points="1996.24,227.452 1996.24,441.751"/>
<polyline class="FretDiagram" stroke="#fc02ff" stroke-width="4.76" stroke-linejoin="bevel" points="2037.91,227.452 2037.91,441.751"/>
<polyline class="FretDiagram" stroke="#fc02ff" stroke-width="4.76" stroke-linejoin="bevel" points="2079.58,227.452 2079.58,441.751"/>
<polyline class="FretDiagram" stroke="#fc02ff" stroke-width="4.76" stroke-linejoin="bevel" points="2121.25,227.452 2121.25,441.751"/>
<polyline class="FretDiagram" stroke="#fc02ff" stroke-width="4.76" stroke-linejoin="bevel" points="1912.9,275.074 2121.25,275.074"/>
<polyline class="FretDiagram" stroke="#fc02ff" stroke-width="4.76" stroke-linejoin="bevel" points="1912.9,322.696 2121.25,322.696"/>
<polyline class="FretDiagram" stroke="#fc02ff" stroke-width="4.76" stroke-linejoin="bevel" points="1912.9,370.318 2121.25,370.318"/>
<polyline class="FretDiagram" stroke="#fc02ff" stroke-width="4.76" stroke-linejoin="bevel" points="1912.9,417.94 2121.25,417.94"/>
<path class="FretDiagram" fill="#fc02ff" fill-rule="evenodd" d="M2094.17,298.885 C2094.17,306.94 2087.64,313.469 2079.58,313.469 C2071.53,313.469 2065,306.94 2065,298.885 C2065,290.83 2071.53,284.301 2079.58,284.301 C2087.64,284.301 2094.17,290.83 2094.17,298.885"/>
<polyline class="FretDiagram" fill="none" stroke="#fc02ff" stroke-width="6.86" stroke-linecap="round" stroke-linejoin="bevel" points="1896.24,163.162 1929.57,196.498"/>
<polyline class="FretDiagram" fill="none" stroke="#fc02ff" stroke-width="6.86" stroke-linecap="round" stroke-linejoin="bevel" points="1896.24,196.498 1929.57,163.162"/>
<path class="FretDiagram" fill="none" stroke="#fc02ff" stroke-width="6.86" stroke-linecap="round" stroke-linejoin="bevel" fill-rule="evenodd" d="M1971.24,179.83 C1971.24,189.035 1963.78,196.498 1954.57,196.498 C1945.37,196.498 1937.91,189.035 1937.91,179.83 C1937.91,170.625 1945.37,163.162 1954.57,163.162 C1963.78,163.162 1971.24,170.625 1971.24,179.83"/>
<polyline class="FretDiagram" fill="none" stroke="#fc02ff" stroke-width="6.86" stroke-linecap="round" stroke-linejoin="bevel" points="1979.57,163.162 2012.91,196.498"/>
<polyline class="FretDiagram" fill="none" stroke="#fc02ff" stroke-width="6.86" stroke-linecap="round" stroke-linejoin="bevel" points="1979.57,196.498 2012.91,163.162"/>
<path class="FretDiagram" fill="none" stroke="#fc02ff" stroke-width="6.86" stroke-linecap="round" stroke-linejoin="bevel" fill-rule="evenodd" d="M2054.58,179.83 C2054.58,189.035 2047.12,196.498 2037.91,196.498 C2028.71,196.498 2021.24,189.035 2021.24,179.83 C2021.24,170.625 2028.71,163.162 2037.91,163.162 C2047.12,163.162 2054.58,170.625 2054.58,179.83"/>
<polyline class="FretDiagram" fill="none" stroke="#fc02ff" stroke-width="6.86" stroke-linecap="round" stroke-linejoin="bevel" points="2104.58,163.162 2137.92,196.498"/>
<polyline class="FretDiagram" fill="none" stroke="#fc02ff" stroke-width="6.86" stroke-linecap="round" stroke-linejoin="bevel" points="2104.58,196.498 2137.92,163.162"/>
<polyline class="FretDiagram" fill="#fc02ff" stroke="#0000ff" stroke-width="11.91" stroke-linejoin="bevel" points="3246.7,227.452 3459.81,227.452"/>
<polyline class="FretDiagram" fill="#fc02ff" stroke="#0000ff" stroke-width="4.76" stroke-linejoin="bevel" points="3249.08,227.452 3249.08,441.751"/>
<polyline class="FretDiagram" fill="#fc02ff" stroke="#0000ff" stroke-width="4.76" stroke-linejoin="bevel" points="3290.75,227.452 3290.75,441.751"/>
<polyline class="FretDiagram" fill="#fc02ff" stroke="#0000ff" stroke-width="4.76" stroke-linejoin="bevel" points="3332.42,227.452 3332.42,441.751"/>
<polyline class="FretDiagram" fill="#fc02ff" stroke="#0000ff" stroke-width="4.76" stroke-linejoin="bevel" points="3374.09,227.452 3374.09,441.751"/>
<polyline class="FretDiagram" fill="#fc02ff" stroke="#0000ff" stroke-width="4.76" stroke-linejoin="bevel" points="3415.76,227.452 3415.76,441.751"/>
<polyline class="FretDiagram" fill="#fc02ff" stroke="#0000ff" stroke-width="4.76" stroke-linejoin="bevel" points="3457.43,227.452 3457.43,441.751"/>
<polyline class="FretDiagram" fill="#fc02ff" stroke="#0000ff" stroke-width="4.76" stroke-linejoin="bevel" points="3249.08,275.074 3457.43,275.074"/>
<polyline class="FretDiagram" fill="#fc02ff" stroke="#0000ff" stroke-width="4.76" stroke-linejoin="bevel" points="3249.08,322.696 3457.43,322.696"/>
<polyline class="FretDiagram" fill="#fc02ff" stroke="#0000ff" stroke-width="4.76" stroke-linejoin="bevel" points="3249.08,370.318 3457.43,370.318"/>
<polyline class="FretDiagram" fill="#fc02ff" stroke="#0000ff" stroke-width="4.76" stroke-linejoin="bevel" points="3249.08,417.94 3457.43,417.94"/>
<path class="FretDiagram" fill="#0000ff" fill-rule="evenodd" d="M3263.67,346.507 C3263.67,354.562 3257.14,361.091 3249.08,361.091 C3241.03,361.091 3234.5,354.562 3234.5,346.507 C3234.5,338.453 3241.03,331.923 3249.08,331.923 C3257.14,331.923 3263.67,338.453 3263.67,346.507"/>
<polyline class="FretDiagram" fill="none" stroke="#0000ff" stroke-width="6.86" stroke-linecap="round" stroke-linejoin="bevel" points="3274.08,163.162 3307.42,196.498"/>
<polyline class="FretDiagram" fill="none" stroke="#0000ff" stroke-width="6.86" stroke-linecap="round" stroke-linejoin="bevel" points="3274.08,196.498 3307.42,163.162"/>
<polyline class="FretDiagram" fill="none" stroke="#0000ff" stroke-width="6.86" stroke-linecap="round" stroke-linejoin="bevel" points="3315.75,163.162 3349.09,196.498"/>
<polyline class="FretDiagram" fill="none" stroke="#0000ff" stroke-width="6.86" stroke-linecap="round" stroke-linejoin="bevel" points="3315.75,196.498 3349.09,163.162"/>
<polyline class="FretDiagram" fill="none" stroke="#0000ff" stroke-width="6.86" stroke-linecap="round" stroke-linejoin="bevel" points="3357.42,163.162 3390.76,196.498"/>
<polyline class="FretDiagram" fill="none" stroke="#0000ff" stroke-width="6.86" stroke-linecap="round" stroke-linejoin="bevel" points="3357.42,196.498 3390.76,163.162"/>
<path class="FretDiagram" fill="none" stroke="#0000ff" stroke-width="6.86" stroke-linecap="round" stroke-linejoin="bevel" fill-rule="evenodd" d="M3432.43,179.83 C3432.43,189.035 3424.96,196.498 3415.76,196.498 C3406.55,196.498 3399.09,189.035 3399.09,179.83 C3399.09,170.625 3406.55,163.162 3415.76,163.162 C3424.96,163.162 3432.43,170.625 3432.43,179.83"/>
<path class="FretDiagram" fill="none" stroke="#0000ff" stroke-width="6.86" stroke-linecap="round" stroke-linejoin="bevel" fill-rule="evenodd" d="M3474.1,179.83 C3474.1,189.035 3466.63,196.498 3457.43,196.498 C3448.22,196.498 3440.76,189.035 3440.76,179.83 C3440.76,170.625 3448.22,163.162 3457.43,163.162 C3466.63,163.162 3474.1,170.625 3474.1,179.83"/>
<path class="Bracket" transform="matrix(8.6315,0,0,8.6315,76.1283,2254.96)" d="M0.92002,-50 C2.69004,-51.88 6.2,-55.8 6.2,-63 C6.2,-72.1 2.25996,-81.32 2.25996,-86.97 C2.25996,-93.06 5.84004,-98.84 5.95,-99 C6.05996,-99.16 6.05,-99.39 5.94004,-99.46 C5.82998,-99.53 5.62002,-99.47 5.49004,-99.32 C5.35996,-99.17 0,-93.75 0,-85.6 C0,-76.75 3.5,-70.58 3.5,-59.07 C3.5,-56.89 2.55996,-53.36 0.1,-50.33 C-0.0799805,-50.17 -0.1,-49.89 0.0599609,-49.7 L0.0700195,-49.69 L0.1,-49.66 C2.55996,-46.63 3.5,-43.1 3.5,-40.92 C3.5,-29.4 0,-23.24 0,-14.39 C0,-6.25 5.35996,-0.8 5.49004,-0.659961 C5.62002,-0.52002 5.8,-0.42998 5.94004,-0.52002 C6.07998,-0.609961 6.07998,-0.77998 5.95,-0.97998 C5.82002,-1.17998 2.25996,-6.92002 2.25996,-13.01 C2.25996,-18.66 6.2,-27.9 6.2,-37 C6.2,-44.3 2.69004,-48.12 0.92002,-50"/>
</svg>
