<?xml version="1.0" encoding="UTF-8" standalone="no"?>
<svg width="4209.44px" height="2976.38px" viewBox="0 0 4209.44 2976.38"
 xmlns="http://www.w3.org/2000/svg" xmlns:xlink="http://www.w3.org/1999/xlink" version="1.2" baseProfile="tiny">
<title>ReMineur (26)</title>
<desc>Generated by MuseScore 3.6.2</desc>
<polyline class="StaffLines" fill="none" stroke="#000000" stroke-width="6.55" stroke-linejoin="bevel" points="153.819,558.425 4138.58,558.425"/>
<polyline class="StaffLines" fill="none" stroke="#000000" stroke-width="6.55" stroke-linejoin="bevel" points="153.819,647.717 4138.58,647.717"/>
<polyline class="StaffLines" fill="none" stroke="#000000" stroke-width="6.55" stroke-linejoin="bevel" points="153.819,737.008 4138.58,737.008"/>
<polyline class="StaffLines" fill="none" stroke="#000000" stroke-width="6.55" stroke-linejoin="bevel" points="153.819,826.299 4138.58,826.299"/>
<polyline class="StaffLines" fill="none" stroke="#000000" stroke-width="6.55" stroke-linejoin="bevel" points="153.819,915.591 4138.58,915.591"/>
<polyline class="StaffLines" fill="none" stroke="#000000" stroke-width="6.55" stroke-linejoin="bevel" points="153.819,1004.88 4138.58,1004.88"/>
<polyline class="StaffLines" fill="none" stroke="#000000" stroke-width="6.55" stroke-linejoin="bevel" points="153.819,1391.81 4138.58,1391.81"/>
<polyline class="StaffLines" fill="none" stroke="#000000" stroke-width="6.55" stroke-linejoin="bevel" points="153.819,1451.34 4138.58,1451.34"/>
<polyline class="StaffLines" fill="none" stroke="#000000" stroke-width="6.55" stroke-linejoin="bevel" points="153.819,1510.87 4138.58,1510.87"/>
<polyline class="StaffLines" fill="none" stroke="#000000" stroke-width="6.55" stroke-linejoin="bevel" points="153.819,1570.39 4138.58,1570.39"/>
<polyline class="StaffLines" fill="none" stroke="#000000" stroke-width="6.55" stroke-linejoin="bevel" points="153.819,1629.92 4138.58,1629.92"/>
<polyline class="StaffLines" fill="none" stroke="#000000" stroke-width="6.55" stroke-linejoin="bevel" points="153.819,2016.85 4138.58,2016.85"/>
<polyline class="StaffLines" fill="none" stroke="#000000" stroke-width="6.55" stroke-linejoin="bevel" points="153.819,2076.38 4138.58,2076.38"/>
<polyline class="StaffLines" fill="none" stroke="#000000" stroke-width="6.55" stroke-linejoin="bevel" points="153.819,2135.91 4138.58,2135.91"/>
<polyline class="StaffLines" fill="none" stroke="#000000" stroke-width="6.55" stroke-linejoin="bevel" points="153.819,2195.43 4138.58,2195.43"/>
<polyline class="StaffLines" fill="none" stroke="#000000" stroke-width="6.55" stroke-linejoin="bevel" points="153.819,2254.96 4138.58,2254.96"/>
<path class="Symbol" transform="matrix(2.3811,0,0,2.3811,3308.69,1540.63)" d="M0,-0.1 C0,7.7 4,14 10.4,18.1 L10.9,17.4 C7.5,14.8 6.3,13.3 5.2,10.1 C4.2,7.2 3.7,4 3.7,-0.2 C3.7,-8.1 4.8,-12.3 10.9,-17.4 L10.5,-18.1 C3.9,-13.6 0,-8.5 0,-0.1"/>
<path class="Symbol" transform="matrix(2.3811,0,0,2.3811,3423.45,1540.63)" d="M3.7,-0.2 C3.7,4 3.2,7.2 2.2,10.1 C1,13.3 -0.2,14.8 -3.6,17.4 L-3,18.1 C3.4,14.1 7.3,7.6 7.3,-0.1 C7.3,-8.4 3.4,-13.8 -3.2,-18.1 L-3.6,-17.4 C2.6,-12.4 3.7,-8.1 3.7,-0.2"/>
<path class="Symbol" transform="matrix(2.3811,0,0,2.3811,3319.53,617.953)" d="M0,-0.1 C0,7.7 4,14 10.4,18.1 L10.9,17.4 C7.5,14.8 6.3,13.3 5.2,10.1 C4.2,7.2 3.7,4 3.7,-0.2 C3.7,-8.1 4.8,-12.3 10.9,-17.4 L10.5,-18.1 C3.9,-13.6 0,-8.5 0,-0.1"/>
<path class="Symbol" transform="matrix(2.3811,0,0,2.3811,3424.54,617.953)" d="M3.7,-0.2 C3.7,4 3.2,7.2 2.2,10.1 C1,13.3 -0.2,14.8 -3.6,17.4 L-3,18.1 C3.4,14.1 7.3,7.6 7.3,-0.1 C7.3,-8.4 3.4,-13.8 -3.2,-18.1 L-3.6,-17.4 C2.6,-12.4 3.7,-8.1 3.7,-0.2"/>
<polyline class="BarLine" fill="none" stroke="#000000" stroke-width="10.71" stroke-linejoin="bevel" points="159.176,2013.58 159.176,2258.23"/>
<polyline class="BarLine" fill="none" stroke="#000000" stroke-width="10.71" stroke-linejoin="bevel" points="937.666,2013.58 937.666,2258.23"/>
<polyline class="BarLine" fill="none" stroke="#000000" stroke-width="10.71" stroke-linejoin="bevel" points="1384.24,2013.58 1384.24,2258.23"/>
<polyline class="BarLine" fill="none" stroke="#000000" stroke-width="10.71" stroke-linejoin="bevel" points="1808.07,2013.58 1808.07,2258.23"/>
<polyline class="BarLine" fill="none" stroke="#000000" stroke-width="10.71" stroke-linejoin="bevel" points="2302.21,2013.58 2302.21,2258.23"/>
<polyline class="BarLine" fill="none" stroke="#000000" stroke-width="10.71" stroke-linejoin="bevel" points="2748.78,2013.58 2748.78,2258.23"/>
<polyline class="BarLine" fill="none" stroke="#000000" stroke-width="10.71" stroke-linejoin="bevel" points="3177.97,2013.58 3177.97,2258.23"/>
<polyline class="BarLine" fill="none" stroke="#000000" stroke-width="10.71" stroke-linejoin="bevel" points="3666.23,2013.58 3666.23,2258.23"/>
<polyline class="BarLine" fill="none" stroke="#000000" stroke-width="10.71" stroke-linejoin="bevel" points="4080.54,2013.58 4080.54,2258.23"/>
<polyline class="BarLine" fill="none" stroke="#000000" stroke-width="32.74" stroke-linejoin="bevel" points="4122.21,2013.58 4122.21,2258.23"/>
<polyline class="BarLine" fill="none" stroke="#000000" stroke-width="10.71" stroke-linejoin="bevel" points="159.176,1388.54 159.176,2016.85"/>
<polyline class="BarLine" fill="none" stroke="#000000" stroke-width="10.71" stroke-linejoin="bevel" points="937.666,1388.54 937.666,1633.2"/>
<polyline class="BarLine" fill="none" stroke="#000000" stroke-width="10.71" stroke-linejoin="bevel" points="1384.24,1388.54 1384.24,1633.2"/>
<polyline class="BarLine" fill="none" stroke="#000000" stroke-width="10.71" stroke-linejoin="bevel" points="1808.07,1388.54 1808.07,1633.2"/>
<polyline class="BarLine" fill="none" stroke="#000000" stroke-width="10.71" stroke-linejoin="bevel" points="2302.21,1388.54 2302.21,1633.2"/>
<polyline class="BarLine" fill="none" stroke="#000000" stroke-width="10.71" stroke-linejoin="bevel" points="2748.78,1388.54 2748.78,1633.2"/>
<polyline class="BarLine" fill="none" stroke="#000000" stroke-width="10.71" stroke-linejoin="bevel" points="3177.97,1388.54 3177.97,1633.2"/>
<polyline class="BarLine" fill="none" stroke="#000000" stroke-width="10.71" stroke-linejoin="bevel" points="3666.23,1388.54 3666.23,1633.2"/>
<polyline class="BarLine" fill="none" stroke="#000000" stroke-width="10.71" stroke-linejoin="bevel" points="4080.54,1388.54 4080.54,1633.2"/>
<polyline class="BarLine" fill="none" stroke="#000000" stroke-width="32.74" stroke-linejoin="bevel" points="4122.21,1388.54 4122.21,1633.2"/>
<polyline class="BarLine" fill="none" stroke="#000000" stroke-width="10.71" stroke-linejoin="bevel" points="159.176,555.151 159.176,1391.81"/>
<polyline class="BarLine" fill="none" stroke="#000000" stroke-width="10.71" stroke-linejoin="bevel" points="937.666,555.151 937.666,1008.16"/>
<polyline class="BarLine" fill="none" stroke="#000000" stroke-width="10.71" stroke-linejoin="bevel" points="1384.24,555.151 1384.24,1008.16"/>
<polyline class="BarLine" fill="none" stroke="#000000" stroke-width="10.71" stroke-linejoin="bevel" points="1808.07,555.151 1808.07,1008.16"/>
<polyline class="BarLine" fill="none" stroke="#000000" stroke-width="10.71" stroke-linejoin="bevel" points="2302.21,555.151 2302.21,1008.16"/>
<polyline class="BarLine" fill="none" stroke="#000000" stroke-width="10.71" stroke-linejoin="bevel" points="2748.78,555.151 2748.78,1008.16"/>
<polyline class="BarLine" fill="none" stroke="#000000" stroke-width="10.71" stroke-linejoin="bevel" points="3177.97,555.151 3177.97,1008.16"/>
<polyline class="BarLine" fill="none" stroke="#000000" stroke-width="10.71" stroke-linejoin="bevel" points="3666.23,555.151 3666.23,1008.16"/>
<polyline class="BarLine" fill="none" stroke="#000000" stroke-width="10.71" stroke-linejoin="bevel" points="4080.54,555.151 4080.54,1008.16"/>
<polyline class="BarLine" fill="none" stroke="#000000" stroke-width="32.74" stroke-linejoin="bevel" points="4122.21,555.151 4122.21,1008.16"/>
<path class="Accidental" transform="matrix(2.3811,0,0,2.3811,2811.65,1987.09)" d="M16.6,-18.3 C16.4,-18.5 16.1,-18.6 15.8,-18.6 C15.7,-18.6 15.5,-18.5 15.4,-18.5 L2.8,-15 L2.8,-32.5 L0,-32.5 L0,17 C0,17.8 0.6,18.3 1.4,18.3 L1.8,18.3 L14.4,14.8 L14.4,32.3 L17.1,32.3 L17.1,-17.2 C17.1,-17.6 16.9,-18.1 16.6,-18.3 M14.4,6.5 L2.8,9.7 L2.8,-6.7 L14.4,-10 L14.4,6.5 "/>
<path class="Accidental" transform="matrix(2.3811,0,0,2.3811,3240.83,1957.32)" d="M23.3,-10.6 C23.9,-10.7 24.4,-11.4 24.4,-12 L24.4,-17.9 C24.4,-18.7 23.8,-19.3 23,-19.3 L22.8,-19.3 L19.5,-18.6 L19.5,-33.5 L16.7,-33.5 L16.7,-18 L7.8,-16.2 L7.8,-30.3 L5,-30.3 L5,-15.6 L1.1,-14.8 C0.5,-14.7 0,-14 0,-13.4 L0,-13.2 L0,-7.4 L0,-7.6 C0,-6.8 0.6,-6.2 1.4,-6.2 L1.7,-6.2 L5,-6.9 L5,9.6 L1.1,10.4 C0.5,10.5 0,11.2 0,11.8 L0,17.6 C0,18.4 0.6,19 1.4,19 L1.7,19 L5,18.3 L5,33.2 L7.8,33.2 L7.8,17.7 L16.7,15.9 L16.7,30 L19.5,30 L19.5,15.3 L23.3,14.6 C23.9,14.5 24.4,13.8 24.4,13.2 L24.4,7.3 C24.4,6.5 23.8,5.9 23,5.9 L22.8,5.9 L19.5,6.6 L19.5,-9.9 L23.3,-10.6 M7.8,9.1 L7.8,-7.5 L16.7,-9.3 L16.7,7.2 L7.8,9.1 "/>
<path class="Accidental" transform="matrix(2.3811,0,0,2.3811,1000.53,1481.1)" d="M23.3,-10.6 C23.9,-10.7 24.4,-11.4 24.4,-12 L24.4,-17.9 C24.4,-18.7 23.8,-19.3 23,-19.3 L22.8,-19.3 L19.5,-18.6 L19.5,-33.5 L16.7,-33.5 L16.7,-18 L7.8,-16.2 L7.8,-30.3 L5,-30.3 L5,-15.6 L1.1,-14.8 C0.5,-14.7 0,-14 0,-13.4 L0,-13.2 L0,-7.4 L0,-7.6 C0,-6.8 0.6,-6.2 1.4,-6.2 L1.7,-6.2 L5,-6.9 L5,9.6 L1.1,10.4 C0.5,10.5 0,11.2 0,11.8 L0,17.6 C0,18.4 0.6,19 1.4,19 L1.7,19 L5,18.3 L5,33.2 L7.8,33.2 L7.8,17.7 L16.7,15.9 L16.7,30 L19.5,30 L19.5,15.3 L23.3,14.6 C23.9,14.5 24.4,13.8 24.4,13.2 L24.4,7.3 C24.4,6.5 23.8,5.9 23,5.9 L22.8,5.9 L19.5,6.6 L19.5,-9.9 L23.3,-10.6 M7.8,9.1 L7.8,-7.5 L16.7,-9.3 L16.7,7.2 L7.8,9.1 "/>
<path class="Accidental" transform="matrix(2.3811,0,0,2.3811,2365.07,1481.1)" d="M23.3,-10.6 C23.9,-10.7 24.4,-11.4 24.4,-12 L24.4,-17.9 C24.4,-18.7 23.8,-19.3 23,-19.3 L22.8,-19.3 L19.5,-18.6 L19.5,-33.5 L16.7,-33.5 L16.7,-18 L7.8,-16.2 L7.8,-30.3 L5,-30.3 L5,-15.6 L1.1,-14.8 C0.5,-14.7 0,-14 0,-13.4 L0,-13.2 L0,-7.4 L0,-7.6 C0,-6.8 0.6,-6.2 1.4,-6.2 L1.7,-6.2 L5,-6.9 L5,9.6 L1.1,10.4 C0.5,10.5 0,11.2 0,11.8 L0,17.6 C0,18.4 0.6,19 1.4,19 L1.7,19 L5,18.3 L5,33.2 L7.8,33.2 L7.8,17.7 L16.7,15.9 L16.7,30 L19.5,30 L19.5,15.3 L23.3,14.6 C23.9,14.5 24.4,13.8 24.4,13.2 L24.4,7.3 C24.4,6.5 23.8,5.9 23,5.9 L22.8,5.9 L19.5,6.6 L19.5,-9.9 L23.3,-10.6 M7.8,9.1 L7.8,-7.5 L16.7,-9.3 L16.7,7.2 L7.8,9.1 "/>
<polyline class="LedgerLine" fill="none" stroke="#000000" stroke-width="9.52" stroke-linejoin="bevel" points="3313.81,1957.32 3444.29,1957.32"/>
<polyline class="LedgerLine" fill="none" stroke="#000000" stroke-width="9.52" stroke-linejoin="bevel" points="3748.97,1957.32 3879.45,1957.32"/>
<path class="Note" transform="matrix(2.3811,0,0,2.3811,626.933,2135.91)" d="M18.7,-13.6 C4.9,-13.6 0,-6.6 0,-0.1 C0,6.4 4.9,13.4 18.7,13.4 C32.5,13.4 37.3,6.4 37.3,-0.1 C37.3,-6.6 32.5,-13.6 18.7,-13.6 M10.4,-4.5 C10.3,-4.9 10.3,-5.3 10.3,-5.7 C10.3,-6.5 10.5,-7.3 10.9,-8 C11.6,-9 12.8,-9.7 14.3,-10 C15.6,-10.3 16.3,-10.5 18.9,-10.5 L19,-10.5 C23,-10.5 24.3,-6.8 25.4,-3 L25.7,-2 C26.5,0.6 26.9,2.8 26.9,4.5 C26.9,5.7 26.7,6.8 26.3,7.6 C25.7,8.7 24.7,9.4 23,9.8 C22.1,10 20.6,10.1 20.6,10.1 C20.1,10.1 19.7,10.2 19.3,10.2 C16.1,10.2 14.1,9 12.7,4.7 C11.5,1 11.3,-0.1 10.4,-4.5"/>
<path class="Note" transform="matrix(2.3811,0,0,2.3811,1073.51,2106.14)" d="M18.7,-13.6 C4.9,-13.6 0,-6.6 0,-0.1 C0,6.4 4.9,13.4 18.7,13.4 C32.5,13.4 37.3,6.4 37.3,-0.1 C37.3,-6.6 32.5,-13.6 18.7,-13.6 M10.4,-4.5 C10.3,-4.9 10.3,-5.3 10.3,-5.7 C10.3,-6.5 10.5,-7.3 10.9,-8 C11.6,-9 12.8,-9.7 14.3,-10 C15.6,-10.3 16.3,-10.5 18.9,-10.5 L19,-10.5 C23,-10.5 24.3,-6.8 25.4,-3 L25.7,-2 C26.5,0.6 26.9,2.8 26.9,4.5 C26.9,5.7 26.7,6.8 26.3,7.6 C25.7,8.7 24.7,9.4 23,9.8 C22.1,10 20.6,10.1 20.6,10.1 C20.1,10.1 19.7,10.2 19.3,10.2 C16.1,10.2 14.1,9 12.7,4.7 C11.5,1 11.3,-0.1 10.4,-4.5"/>
<path class="Note" transform="matrix(2.3811,0,0,2.3811,1472.71,2076.38)" d="M18.7,-13.6 C4.9,-13.6 0,-6.6 0,-0.1 C0,6.4 4.9,13.4 18.7,13.4 C32.5,13.4 37.3,6.4 37.3,-0.1 C37.3,-6.6 32.5,-13.6 18.7,-13.6 M10.4,-4.5 C10.3,-4.9 10.3,-5.3 10.3,-5.7 C10.3,-6.5 10.5,-7.3 10.9,-8 C11.6,-9 12.8,-9.7 14.3,-10 C15.6,-10.3 16.3,-10.5 18.9,-10.5 L19,-10.5 C23,-10.5 24.3,-6.8 25.4,-3 L25.7,-2 C26.5,0.6 26.9,2.8 26.9,4.5 C26.9,5.7 26.7,6.8 26.3,7.6 C25.7,8.7 24.7,9.4 23,9.8 C22.1,10 20.6,10.1 20.6,10.1 C20.1,10.1 19.7,10.2 19.3,10.2 C16.1,10.2 14.1,9 12.7,4.7 C11.5,1 11.3,-0.1 10.4,-4.5"/>
<path class="Note" transform="matrix(2.3811,0,0,2.3811,1978.79,2046.61)" d="M18.7,-13.6 C4.9,-13.6 0,-6.6 0,-0.1 C0,6.4 4.9,13.4 18.7,13.4 C32.5,13.4 37.3,6.4 37.3,-0.1 C37.3,-6.6 32.5,-13.6 18.7,-13.6 M10.4,-4.5 C10.3,-4.9 10.3,-5.3 10.3,-5.7 C10.3,-6.5 10.5,-7.3 10.9,-8 C11.6,-9 12.8,-9.7 14.3,-10 C15.6,-10.3 16.3,-10.5 18.9,-10.5 L19,-10.5 C23,-10.5 24.3,-6.8 25.4,-3 L25.7,-2 C26.5,0.6 26.9,2.8 26.9,4.5 C26.9,5.7 26.7,6.8 26.3,7.6 C25.7,8.7 24.7,9.4 23,9.8 C22.1,10 20.6,10.1 20.6,10.1 C20.1,10.1 19.7,10.2 19.3,10.2 C16.1,10.2 14.1,9 12.7,4.7 C11.5,1 11.3,-0.1 10.4,-4.5"/>
<path class="Note" transform="matrix(2.3811,0,0,2.3811,2438.05,2016.85)" d="M18.7,-13.6 C4.9,-13.6 0,-6.6 0,-0.1 C0,6.4 4.9,13.4 18.7,13.4 C32.5,13.4 37.3,6.4 37.3,-0.1 C37.3,-6.6 32.5,-13.6 18.7,-13.6 M10.4,-4.5 C10.3,-4.9 10.3,-5.3 10.3,-5.7 C10.3,-6.5 10.5,-7.3 10.9,-8 C11.6,-9 12.8,-9.7 14.3,-10 C15.6,-10.3 16.3,-10.5 18.9,-10.5 L19,-10.5 C23,-10.5 24.3,-6.8 25.4,-3 L25.7,-2 C26.5,0.6 26.9,2.8 26.9,4.5 C26.9,5.7 26.7,6.8 26.3,7.6 C25.7,8.7 24.7,9.4 23,9.8 C22.1,10 20.6,10.1 20.6,10.1 C20.1,10.1 19.7,10.2 19.3,10.2 C16.1,10.2 14.1,9 12.7,4.7 C11.5,1 11.3,-0.1 10.4,-4.5"/>
<path class="Note" transform="matrix(2.3811,0,0,2.3811,2867.23,1987.09)" d="M18.7,-13.6 C4.9,-13.6 0,-6.6 0,-0.1 C0,6.4 4.9,13.4 18.7,13.4 C32.5,13.4 37.3,6.4 37.3,-0.1 C37.3,-6.6 32.5,-13.6 18.7,-13.6 M10.4,-4.5 C10.3,-4.9 10.3,-5.3 10.3,-5.7 C10.3,-6.5 10.5,-7.3 10.9,-8 C11.6,-9 12.8,-9.7 14.3,-10 C15.6,-10.3 16.3,-10.5 18.9,-10.5 L19,-10.5 C23,-10.5 24.3,-6.8 25.4,-3 L25.7,-2 C26.5,0.6 26.9,2.8 26.9,4.5 C26.9,5.7 26.7,6.8 26.3,7.6 C25.7,8.7 24.7,9.4 23,9.8 C22.1,10 20.6,10.1 20.6,10.1 C20.1,10.1 19.7,10.2 19.3,10.2 C16.1,10.2 14.1,9 12.7,4.7 C11.5,1 11.3,-0.1 10.4,-4.5"/>
<path class="Note" transform="matrix(2.3811,0,0,2.3811,3334.64,1957.32)" d="M18.7,-13.6 C4.9,-13.6 0,-6.6 0,-0.1 C0,6.4 4.9,13.4 18.7,13.4 C32.5,13.4 37.3,6.4 37.3,-0.1 C37.3,-6.6 32.5,-13.6 18.7,-13.6 M10.4,-4.5 C10.3,-4.9 10.3,-5.3 10.3,-5.7 C10.3,-6.5 10.5,-7.3 10.9,-8 C11.6,-9 12.8,-9.7 14.3,-10 C15.6,-10.3 16.3,-10.5 18.9,-10.5 L19,-10.5 C23,-10.5 24.3,-6.8 25.4,-3 L25.7,-2 C26.5,0.6 26.9,2.8 26.9,4.5 C26.9,5.7 26.7,6.8 26.3,7.6 C25.7,8.7 24.7,9.4 23,9.8 C22.1,10 20.6,10.1 20.6,10.1 C20.1,10.1 19.7,10.2 19.3,10.2 C16.1,10.2 14.1,9 12.7,4.7 C11.5,1 11.3,-0.1 10.4,-4.5"/>
<path class="Note" transform="matrix(2.3811,0,0,2.3811,3769.81,1927.56)" d="M18.7,-13.6 C4.9,-13.6 0,-6.6 0,-0.1 C0,6.4 4.9,13.4 18.7,13.4 C32.5,13.4 37.3,6.4 37.3,-0.1 C37.3,-6.6 32.5,-13.6 18.7,-13.6 M10.4,-4.5 C10.3,-4.9 10.3,-5.3 10.3,-5.7 C10.3,-6.5 10.5,-7.3 10.9,-8 C11.6,-9 12.8,-9.7 14.3,-10 C15.6,-10.3 16.3,-10.5 18.9,-10.5 L19,-10.5 C23,-10.5 24.3,-6.8 25.4,-3 L25.7,-2 C26.5,0.6 26.9,2.8 26.9,4.5 C26.9,5.7 26.7,6.8 26.3,7.6 C25.7,8.7 24.7,9.4 23,9.8 C22.1,10 20.6,10.1 20.6,10.1 C20.1,10.1 19.7,10.2 19.3,10.2 C16.1,10.2 14.1,9 12.7,4.7 C11.5,1 11.3,-0.1 10.4,-4.5"/>
<path class="Note" transform="matrix(2.3811,0,0,2.3811,626.933,1540.63)" d="M18.7,-13.6 C4.9,-13.6 0,-6.6 0,-0.1 C0,6.4 4.9,13.4 18.7,13.4 C32.5,13.4 37.3,6.4 37.3,-0.1 C37.3,-6.6 32.5,-13.6 18.7,-13.6 M10.4,-4.5 C10.3,-4.9 10.3,-5.3 10.3,-5.7 C10.3,-6.5 10.5,-7.3 10.9,-8 C11.6,-9 12.8,-9.7 14.3,-10 C15.6,-10.3 16.3,-10.5 18.9,-10.5 L19,-10.5 C23,-10.5 24.3,-6.8 25.4,-3 L25.7,-2 C26.5,0.6 26.9,2.8 26.9,4.5 C26.9,5.7 26.7,6.8 26.3,7.6 C25.7,8.7 24.7,9.4 23,9.8 C22.1,10 20.6,10.1 20.6,10.1 C20.1,10.1 19.7,10.2 19.3,10.2 C16.1,10.2 14.1,9 12.7,4.7 C11.5,1 11.3,-0.1 10.4,-4.5"/>
<path class="Note" transform="matrix(2.3811,0,0,2.3811,626.933,1451.34)" d="M18.7,-13.6 C4.9,-13.6 0,-6.6 0,-0.1 C0,6.4 4.9,13.4 18.7,13.4 C32.5,13.4 37.3,6.4 37.3,-0.1 C37.3,-6.6 32.5,-13.6 18.7,-13.6 M10.4,-4.5 C10.3,-4.9 10.3,-5.3 10.3,-5.7 C10.3,-6.5 10.5,-7.3 10.9,-8 C11.6,-9 12.8,-9.7 14.3,-10 C15.6,-10.3 16.3,-10.5 18.9,-10.5 L19,-10.5 C23,-10.5 24.3,-6.8 25.4,-3 L25.7,-2 C26.5,0.6 26.9,2.8 26.9,4.5 C26.9,5.7 26.7,6.8 26.3,7.6 C25.7,8.7 24.7,9.4 23,9.8 C22.1,10 20.6,10.1 20.6,10.1 C20.1,10.1 19.7,10.2 19.3,10.2 C16.1,10.2 14.1,9 12.7,4.7 C11.5,1 11.3,-0.1 10.4,-4.5"/>
<path class="Note" transform="matrix(2.3811,0,0,2.3811,626.933,1391.81)" d="M18.7,-13.6 C4.9,-13.6 0,-6.6 0,-0.1 C0,6.4 4.9,13.4 18.7,13.4 C32.5,13.4 37.3,6.4 37.3,-0.1 C37.3,-6.6 32.5,-13.6 18.7,-13.6 M10.4,-4.5 C10.3,-4.9 10.3,-5.3 10.3,-5.7 C10.3,-6.5 10.5,-7.3 10.9,-8 C11.6,-9 12.8,-9.7 14.3,-10 C15.6,-10.3 16.3,-10.5 18.9,-10.5 L19,-10.5 C23,-10.5 24.3,-6.8 25.4,-3 L25.7,-2 C26.5,0.6 26.9,2.8 26.9,4.5 C26.9,5.7 26.7,6.8 26.3,7.6 C25.7,8.7 24.7,9.4 23,9.8 C22.1,10 20.6,10.1 20.6,10.1 C20.1,10.1 19.7,10.2 19.3,10.2 C16.1,10.2 14.1,9 12.7,4.7 C11.5,1 11.3,-0.1 10.4,-4.5"/>
<path class="Note" transform="matrix(2.3811,0,0,2.3811,1073.51,1540.63)" d="M18.7,-13.6 C4.9,-13.6 0,-6.6 0,-0.1 C0,6.4 4.9,13.4 18.7,13.4 C32.5,13.4 37.3,6.4 37.3,-0.1 C37.3,-6.6 32.5,-13.6 18.7,-13.6 M10.4,-4.5 C10.3,-4.9 10.3,-5.3 10.3,-5.7 C10.3,-6.5 10.5,-7.3 10.9,-8 C11.6,-9 12.8,-9.7 14.3,-10 C15.6,-10.3 16.3,-10.5 18.9,-10.5 L19,-10.5 C23,-10.5 24.3,-6.8 25.4,-3 L25.7,-2 C26.5,0.6 26.9,2.8 26.9,4.5 C26.9,5.7 26.7,6.8 26.3,7.6 C25.7,8.7 24.7,9.4 23,9.8 C22.1,10 20.6,10.1 20.6,10.1 C20.1,10.1 19.7,10.2 19.3,10.2 C16.1,10.2 14.1,9 12.7,4.7 C11.5,1 11.3,-0.1 10.4,-4.5"/>
<path class="Note" transform="matrix(2.3811,0,0,2.3811,1073.51,1481.1)" d="M18.7,-13.6 C4.9,-13.6 0,-6.6 0,-0.1 C0,6.4 4.9,13.4 18.7,13.4 C32.5,13.4 37.3,6.4 37.3,-0.1 C37.3,-6.6 32.5,-13.6 18.7,-13.6 M10.4,-4.5 C10.3,-4.9 10.3,-5.3 10.3,-5.7 C10.3,-6.5 10.5,-7.3 10.9,-8 C11.6,-9 12.8,-9.7 14.3,-10 C15.6,-10.3 16.3,-10.5 18.9,-10.5 L19,-10.5 C23,-10.5 24.3,-6.8 25.4,-3 L25.7,-2 C26.5,0.6 26.9,2.8 26.9,4.5 C26.9,5.7 26.7,6.8 26.3,7.6 C25.7,8.7 24.7,9.4 23,9.8 C22.1,10 20.6,10.1 20.6,10.1 C20.1,10.1 19.7,10.2 19.3,10.2 C16.1,10.2 14.1,9 12.7,4.7 C11.5,1 11.3,-0.1 10.4,-4.5"/>
<path class="Note" transform="matrix(2.3811,0,0,2.3811,1073.51,1362.05)" d="M18.7,-13.6 C4.9,-13.6 0,-6.6 0,-0.1 C0,6.4 4.9,13.4 18.7,13.4 C32.5,13.4 37.3,6.4 37.3,-0.1 C37.3,-6.6 32.5,-13.6 18.7,-13.6 M10.4,-4.5 C10.3,-4.9 10.3,-5.3 10.3,-5.7 C10.3,-6.5 10.5,-7.3 10.9,-8 C11.6,-9 12.8,-9.7 14.3,-10 C15.6,-10.3 16.3,-10.5 18.9,-10.5 L19,-10.5 C23,-10.5 24.3,-6.8 25.4,-3 L25.7,-2 C26.5,0.6 26.9,2.8 26.9,4.5 C26.9,5.7 26.7,6.8 26.3,7.6 C25.7,8.7 24.7,9.4 23,9.8 C22.1,10 20.6,10.1 20.6,10.1 C20.1,10.1 19.7,10.2 19.3,10.2 C16.1,10.2 14.1,9 12.7,4.7 C11.5,1 11.3,-0.1 10.4,-4.5"/>
<path class="Note" transform="matrix(2.3811,0,0,2.3811,1472.71,1540.63)" d="M18.7,-13.6 C4.9,-13.6 0,-6.6 0,-0.1 C0,6.4 4.9,13.4 18.7,13.4 C32.5,13.4 37.3,6.4 37.3,-0.1 C37.3,-6.6 32.5,-13.6 18.7,-13.6 M10.4,-4.5 C10.3,-4.9 10.3,-5.3 10.3,-5.7 C10.3,-6.5 10.5,-7.3 10.9,-8 C11.6,-9 12.8,-9.7 14.3,-10 C15.6,-10.3 16.3,-10.5 18.9,-10.5 L19,-10.5 C23,-10.5 24.3,-6.8 25.4,-3 L25.7,-2 C26.5,0.6 26.9,2.8 26.9,4.5 C26.9,5.7 26.7,6.8 26.3,7.6 C25.7,8.7 24.7,9.4 23,9.8 C22.1,10 20.6,10.1 20.6,10.1 C20.1,10.1 19.7,10.2 19.3,10.2 C16.1,10.2 14.1,9 12.7,4.7 C11.5,1 11.3,-0.1 10.4,-4.5"/>
<path class="Note" transform="matrix(2.3811,0,0,2.3811,1472.71,1451.34)" d="M18.7,-13.6 C4.9,-13.6 0,-6.6 0,-0.1 C0,6.4 4.9,13.4 18.7,13.4 C32.5,13.4 37.3,6.4 37.3,-0.1 C37.3,-6.6 32.5,-13.6 18.7,-13.6 M10.4,-4.5 C10.3,-4.9 10.3,-5.3 10.3,-5.7 C10.3,-6.5 10.5,-7.3 10.9,-8 C11.6,-9 12.8,-9.7 14.3,-10 C15.6,-10.3 16.3,-10.5 18.9,-10.5 L19,-10.5 C23,-10.5 24.3,-6.8 25.4,-3 L25.7,-2 C26.5,0.6 26.9,2.8 26.9,4.5 C26.9,5.7 26.7,6.8 26.3,7.6 C25.7,8.7 24.7,9.4 23,9.8 C22.1,10 20.6,10.1 20.6,10.1 C20.1,10.1 19.7,10.2 19.3,10.2 C16.1,10.2 14.1,9 12.7,4.7 C11.5,1 11.3,-0.1 10.4,-4.5"/>
<path class="Note" transform="matrix(2.3811,0,0,2.3811,1472.71,1391.81)" d="M18.7,-13.6 C4.9,-13.6 0,-6.6 0,-0.1 C0,6.4 4.9,13.4 18.7,13.4 C32.5,13.4 37.3,6.4 37.3,-0.1 C37.3,-6.6 32.5,-13.6 18.7,-13.6 M10.4,-4.5 C10.3,-4.9 10.3,-5.3 10.3,-5.7 C10.3,-6.5 10.5,-7.3 10.9,-8 C11.6,-9 12.8,-9.7 14.3,-10 C15.6,-10.3 16.3,-10.5 18.9,-10.5 L19,-10.5 C23,-10.5 24.3,-6.8 25.4,-3 L25.7,-2 C26.5,0.6 26.9,2.8 26.9,4.5 C26.9,5.7 26.7,6.8 26.3,7.6 C25.7,8.7 24.7,9.4 23,9.8 C22.1,10 20.6,10.1 20.6,10.1 C20.1,10.1 19.7,10.2 19.3,10.2 C16.1,10.2 14.1,9 12.7,4.7 C11.5,1 11.3,-0.1 10.4,-4.5"/>
<path class="Note" transform="matrix(2.3811,0,0,2.3811,1978.79,1510.87)" d="M18.7,-13.6 C4.9,-13.6 0,-6.6 0,-0.1 C0,6.4 4.9,13.4 18.7,13.4 C32.5,13.4 37.3,6.4 37.3,-0.1 C37.3,-6.6 32.5,-13.6 18.7,-13.6 M10.4,-4.5 C10.3,-4.9 10.3,-5.3 10.3,-5.7 C10.3,-6.5 10.5,-7.3 10.9,-8 C11.6,-9 12.8,-9.7 14.3,-10 C15.6,-10.3 16.3,-10.5 18.9,-10.5 L19,-10.5 C23,-10.5 24.3,-6.8 25.4,-3 L25.7,-2 C26.5,0.6 26.9,2.8 26.9,4.5 C26.9,5.7 26.7,6.8 26.3,7.6 C25.7,8.7 24.7,9.4 23,9.8 C22.1,10 20.6,10.1 20.6,10.1 C20.1,10.1 19.7,10.2 19.3,10.2 C16.1,10.2 14.1,9 12.7,4.7 C11.5,1 11.3,-0.1 10.4,-4.5"/>
<path class="Note" transform="matrix(2.3811,0,0,2.3811,1896.53,1451.34)" d="M18.7,-13.6 C4.9,-13.6 0,-6.6 0,-0.1 C0,6.4 4.9,13.4 18.7,13.4 C32.5,13.4 37.3,6.4 37.3,-0.1 C37.3,-6.6 32.5,-13.6 18.7,-13.6 M10.4,-4.5 C10.3,-4.9 10.3,-5.3 10.3,-5.7 C10.3,-6.5 10.5,-7.3 10.9,-8 C11.6,-9 12.8,-9.7 14.3,-10 C15.6,-10.3 16.3,-10.5 18.9,-10.5 L19,-10.5 C23,-10.5 24.3,-6.8 25.4,-3 L25.7,-2 C26.5,0.6 26.9,2.8 26.9,4.5 C26.9,5.7 26.7,6.8 26.3,7.6 C25.7,8.7 24.7,9.4 23,9.8 C22.1,10 20.6,10.1 20.6,10.1 C20.1,10.1 19.7,10.2 19.3,10.2 C16.1,10.2 14.1,9 12.7,4.7 C11.5,1 11.3,-0.1 10.4,-4.5"/>
<path class="Note" transform="matrix(2.3811,0,0,2.3811,1978.79,1421.57)" d="M18.7,-13.6 C4.9,-13.6 0,-6.6 0,-0.1 C0,6.4 4.9,13.4 18.7,13.4 C32.5,13.4 37.3,6.4 37.3,-0.1 C37.3,-6.6 32.5,-13.6 18.7,-13.6 M10.4,-4.5 C10.3,-4.9 10.3,-5.3 10.3,-5.7 C10.3,-6.5 10.5,-7.3 10.9,-8 C11.6,-9 12.8,-9.7 14.3,-10 C15.6,-10.3 16.3,-10.5 18.9,-10.5 L19,-10.5 C23,-10.5 24.3,-6.8 25.4,-3 L25.7,-2 C26.5,0.6 26.9,2.8 26.9,4.5 C26.9,5.7 26.7,6.8 26.3,7.6 C25.7,8.7 24.7,9.4 23,9.8 C22.1,10 20.6,10.1 20.6,10.1 C20.1,10.1 19.7,10.2 19.3,10.2 C16.1,10.2 14.1,9 12.7,4.7 C11.5,1 11.3,-0.1 10.4,-4.5"/>
<path class="Note" transform="matrix(2.3811,0,0,2.3811,2438.05,1540.63)" d="M18.7,-13.6 C4.9,-13.6 0,-6.6 0,-0.1 C0,6.4 4.9,13.4 18.7,13.4 C32.5,13.4 37.3,6.4 37.3,-0.1 C37.3,-6.6 32.5,-13.6 18.7,-13.6 M10.4,-4.5 C10.3,-4.9 10.3,-5.3 10.3,-5.7 C10.3,-6.5 10.5,-7.3 10.9,-8 C11.6,-9 12.8,-9.7 14.3,-10 C15.6,-10.3 16.3,-10.5 18.9,-10.5 L19,-10.5 C23,-10.5 24.3,-6.8 25.4,-3 L25.7,-2 C26.5,0.6 26.9,2.8 26.9,4.5 C26.9,5.7 26.7,6.8 26.3,7.6 C25.7,8.7 24.7,9.4 23,9.8 C22.1,10 20.6,10.1 20.6,10.1 C20.1,10.1 19.7,10.2 19.3,10.2 C16.1,10.2 14.1,9 12.7,4.7 C11.5,1 11.3,-0.1 10.4,-4.5"/>
<path class="Note" transform="matrix(2.3811,0,0,2.3811,2438.05,1481.1)" d="M18.7,-13.6 C4.9,-13.6 0,-6.6 0,-0.1 C0,6.4 4.9,13.4 18.7,13.4 C32.5,13.4 37.3,6.4 37.3,-0.1 C37.3,-6.6 32.5,-13.6 18.7,-13.6 M10.4,-4.5 C10.3,-4.9 10.3,-5.3 10.3,-5.7 C10.3,-6.5 10.5,-7.3 10.9,-8 C11.6,-9 12.8,-9.7 14.3,-10 C15.6,-10.3 16.3,-10.5 18.9,-10.5 L19,-10.5 C23,-10.5 24.3,-6.8 25.4,-3 L25.7,-2 C26.5,0.6 26.9,2.8 26.9,4.5 C26.9,5.7 26.7,6.8 26.3,7.6 C25.7,8.7 24.7,9.4 23,9.8 C22.1,10 20.6,10.1 20.6,10.1 C20.1,10.1 19.7,10.2 19.3,10.2 C16.1,10.2 14.1,9 12.7,4.7 C11.5,1 11.3,-0.1 10.4,-4.5"/>
<path class="Note" transform="matrix(2.3811,0,0,2.3811,2438.05,1421.57)" d="M18.7,-13.6 C4.9,-13.6 0,-6.6 0,-0.1 C0,6.4 4.9,13.4 18.7,13.4 C32.5,13.4 37.3,6.4 37.3,-0.1 C37.3,-6.6 32.5,-13.6 18.7,-13.6 M10.4,-4.5 C10.3,-4.9 10.3,-5.3 10.3,-5.7 C10.3,-6.5 10.5,-7.3 10.9,-8 C11.6,-9 12.8,-9.7 14.3,-10 C15.6,-10.3 16.3,-10.5 18.9,-10.5 L19,-10.5 C23,-10.5 24.3,-6.8 25.4,-3 L25.7,-2 C26.5,0.6 26.9,2.8 26.9,4.5 C26.9,5.7 26.7,6.8 26.3,7.6 C25.7,8.7 24.7,9.4 23,9.8 C22.1,10 20.6,10.1 20.6,10.1 C20.1,10.1 19.7,10.2 19.3,10.2 C16.1,10.2 14.1,9 12.7,4.7 C11.5,1 11.3,-0.1 10.4,-4.5"/>
<path class="Note" transform="matrix(2.3811,0,0,2.3811,2867.23,1451.34)" d="M18.7,-13.6 C4.9,-13.6 0,-6.6 0,-0.1 C0,6.4 4.9,13.4 18.7,13.4 C32.5,13.4 37.3,6.4 37.3,-0.1 C37.3,-6.6 32.5,-13.6 18.7,-13.6 M10.4,-4.5 C10.3,-4.9 10.3,-5.3 10.3,-5.7 C10.3,-6.5 10.5,-7.3 10.9,-8 C11.6,-9 12.8,-9.7 14.3,-10 C15.6,-10.3 16.3,-10.5 18.9,-10.5 L19,-10.5 C23,-10.5 24.3,-6.8 25.4,-3 L25.7,-2 C26.5,0.6 26.9,2.8 26.9,4.5 C26.9,5.7 26.7,6.8 26.3,7.6 C25.7,8.7 24.7,9.4 23,9.8 C22.1,10 20.6,10.1 20.6,10.1 C20.1,10.1 19.7,10.2 19.3,10.2 C16.1,10.2 14.1,9 12.7,4.7 C11.5,1 11.3,-0.1 10.4,-4.5"/>
<path class="Note" transform="matrix(2.3811,0,0,2.3811,2867.23,1362.05)" d="M18.7,-13.6 C4.9,-13.6 0,-6.6 0,-0.1 C0,6.4 4.9,13.4 18.7,13.4 C32.5,13.4 37.3,6.4 37.3,-0.1 C37.3,-6.6 32.5,-13.6 18.7,-13.6 M10.4,-4.5 C10.3,-4.9 10.3,-5.3 10.3,-5.7 C10.3,-6.5 10.5,-7.3 10.9,-8 C11.6,-9 12.8,-9.7 14.3,-10 C15.6,-10.3 16.3,-10.5 18.9,-10.5 L19,-10.5 C23,-10.5 24.3,-6.8 25.4,-3 L25.7,-2 C26.5,0.6 26.9,2.8 26.9,4.5 C26.9,5.7 26.7,6.8 26.3,7.6 C25.7,8.7 24.7,9.4 23,9.8 C22.1,10 20.6,10.1 20.6,10.1 C20.1,10.1 19.7,10.2 19.3,10.2 C16.1,10.2 14.1,9 12.7,4.7 C11.5,1 11.3,-0.1 10.4,-4.5"/>
<path class="Note" transform="matrix(2.3811,0,0,2.3811,3334.64,1540.63)" d="M18.7,-13.6 C4.9,-13.6 0,-6.6 0,-0.1 C0,6.4 4.9,13.4 18.7,13.4 C32.5,13.4 37.3,6.4 37.3,-0.1 C37.3,-6.6 32.5,-13.6 18.7,-13.6 M10.4,-4.5 C10.3,-4.9 10.3,-5.3 10.3,-5.7 C10.3,-6.5 10.5,-7.3 10.9,-8 C11.6,-9 12.8,-9.7 14.3,-10 C15.6,-10.3 16.3,-10.5 18.9,-10.5 L19,-10.5 C23,-10.5 24.3,-6.8 25.4,-3 L25.7,-2 C26.5,0.6 26.9,2.8 26.9,4.5 C26.9,5.7 26.7,6.8 26.3,7.6 C25.7,8.7 24.7,9.4 23,9.8 C22.1,10 20.6,10.1 20.6,10.1 C20.1,10.1 19.7,10.2 19.3,10.2 C16.1,10.2 14.1,9 12.7,4.7 C11.5,1 11.3,-0.1 10.4,-4.5"/>
<path class="Note" transform="matrix(2.3811,0,0,2.3811,3334.64,1421.57)" d="M18.7,-13.6 C4.9,-13.6 0,-6.6 0,-0.1 C0,6.4 4.9,13.4 18.7,13.4 C32.5,13.4 37.3,6.4 37.3,-0.1 C37.3,-6.6 32.5,-13.6 18.7,-13.6 M10.4,-4.5 C10.3,-4.9 10.3,-5.3 10.3,-5.7 C10.3,-6.5 10.5,-7.3 10.9,-8 C11.6,-9 12.8,-9.7 14.3,-10 C15.6,-10.3 16.3,-10.5 18.9,-10.5 L19,-10.5 C23,-10.5 24.3,-6.8 25.4,-3 L25.7,-2 C26.5,0.6 26.9,2.8 26.9,4.5 C26.9,5.7 26.7,6.8 26.3,7.6 C25.7,8.7 24.7,9.4 23,9.8 C22.1,10 20.6,10.1 20.6,10.1 C20.1,10.1 19.7,10.2 19.3,10.2 C16.1,10.2 14.1,9 12.7,4.7 C11.5,1 11.3,-0.1 10.4,-4.5"/>
<path class="Note" transform="matrix(2.3811,0,0,2.3811,3334.64,1362.05)" d="M18.7,-13.6 C4.9,-13.6 0,-6.6 0,-0.1 C0,6.4 4.9,13.4 18.7,13.4 C32.5,13.4 37.3,6.4 37.3,-0.1 C37.3,-6.6 32.5,-13.6 18.7,-13.6 M10.4,-4.5 C10.3,-4.9 10.3,-5.3 10.3,-5.7 C10.3,-6.5 10.5,-7.3 10.9,-8 C11.6,-9 12.8,-9.7 14.3,-10 C15.6,-10.3 16.3,-10.5 18.9,-10.5 L19,-10.5 C23,-10.5 24.3,-6.8 25.4,-3 L25.7,-2 C26.5,0.6 26.9,2.8 26.9,4.5 C26.9,5.7 26.7,6.8 26.3,7.6 C25.7,8.7 24.7,9.4 23,9.8 C22.1,10 20.6,10.1 20.6,10.1 C20.1,10.1 19.7,10.2 19.3,10.2 C16.1,10.2 14.1,9 12.7,4.7 C11.5,1 11.3,-0.1 10.4,-4.5"/>
<path class="Note" transform="matrix(2.3811,0,0,2.3811,3769.81,1540.63)" d="M18.7,-13.6 C4.9,-13.6 0,-6.6 0,-0.1 C0,6.4 4.9,13.4 18.7,13.4 C32.5,13.4 37.3,6.4 37.3,-0.1 C37.3,-6.6 32.5,-13.6 18.7,-13.6 M10.4,-4.5 C10.3,-4.9 10.3,-5.3 10.3,-5.7 C10.3,-6.5 10.5,-7.3 10.9,-8 C11.6,-9 12.8,-9.7 14.3,-10 C15.6,-10.3 16.3,-10.5 18.9,-10.5 L19,-10.5 C23,-10.5 24.3,-6.8 25.4,-3 L25.7,-2 C26.5,0.6 26.9,2.8 26.9,4.5 C26.9,5.7 26.7,6.8 26.3,7.6 C25.7,8.7 24.7,9.4 23,9.8 C22.1,10 20.6,10.1 20.6,10.1 C20.1,10.1 19.7,10.2 19.3,10.2 C16.1,10.2 14.1,9 12.7,4.7 C11.5,1 11.3,-0.1 10.4,-4.5"/>
<path class="Note" transform="matrix(2.3811,0,0,2.3811,3769.81,1451.34)" d="M18.7,-13.6 C4.9,-13.6 0,-6.6 0,-0.1 C0,6.4 4.9,13.4 18.7,13.4 C32.5,13.4 37.3,6.4 37.3,-0.1 C37.3,-6.6 32.5,-13.6 18.7,-13.6 M10.4,-4.5 C10.3,-4.9 10.3,-5.3 10.3,-5.7 C10.3,-6.5 10.5,-7.3 10.9,-8 C11.6,-9 12.8,-9.7 14.3,-10 C15.6,-10.3 16.3,-10.5 18.9,-10.5 L19,-10.5 C23,-10.5 24.3,-6.8 25.4,-3 L25.7,-2 C26.5,0.6 26.9,2.8 26.9,4.5 C26.9,5.7 26.7,6.8 26.3,7.6 C25.7,8.7 24.7,9.4 23,9.8 C22.1,10 20.6,10.1 20.6,10.1 C20.1,10.1 19.7,10.2 19.3,10.2 C16.1,10.2 14.1,9 12.7,4.7 C11.5,1 11.3,-0.1 10.4,-4.5"/>
<path class="Note" transform="matrix(2.3811,0,0,2.3811,3769.81,1391.81)" d="M18.7,-13.6 C4.9,-13.6 0,-6.6 0,-0.1 C0,6.4 4.9,13.4 18.7,13.4 C32.5,13.4 37.3,6.4 37.3,-0.1 C37.3,-6.6 32.5,-13.6 18.7,-13.6 M10.4,-4.5 C10.3,-4.9 10.3,-5.3 10.3,-5.7 C10.3,-6.5 10.5,-7.3 10.9,-8 C11.6,-9 12.8,-9.7 14.3,-10 C15.6,-10.3 16.3,-10.5 18.9,-10.5 L19,-10.5 C23,-10.5 24.3,-6.8 25.4,-3 L25.7,-2 C26.5,0.6 26.9,2.8 26.9,4.5 C26.9,5.7 26.7,6.8 26.3,7.6 C25.7,8.7 24.7,9.4 23,9.8 C22.1,10 20.6,10.1 20.6,10.1 C20.1,10.1 19.7,10.2 19.3,10.2 C16.1,10.2 14.1,9 12.7,4.7 C11.5,1 11.3,-0.1 10.4,-4.5"/>
<path class="Note" d="M705.752,851.839 C710.323,851.839 712.608,854.705 712.608,860.438 C712.608,864.467 710.09,870.471 705.055,878.451 C701.026,884.881 699.012,891.157 699.012,897.277 C699.012,900.763 704.086,902.507 714.235,902.507 C722.602,902.507 734.262,897.974 749.215,888.91 C734.185,903.398 721.13,910.641 710.052,910.641 C700.058,910.641 693.085,909.131 689.134,906.109 C688.127,905.334 687.274,904.405 686.577,903.32 C682.703,908.046 676.234,910.409 667.17,910.409 C658.493,910.409 651.83,908.627 647.182,905.063 C644.083,902.662 642.533,898.827 642.533,893.558 C642.533,885.191 647.491,876.049 657.408,866.133 C668.022,855.519 680.302,850.212 694.247,850.212 C697.733,850.212 700.29,851.49 701.917,854.047 C703.234,852.575 704.512,851.839 705.752,851.839 M684.95,898.091 C684.873,897.471 684.834,896.851 684.834,896.231 C684.834,895.921 688.785,885.114 696.687,863.808 C697.462,861.717 698.237,859.935 699.012,858.463 C695.99,857.843 693.007,857.533 690.063,857.533 C684.64,857.533 677.435,862.143 668.448,871.362 C660.391,879.574 656.362,886.663 656.362,892.629 C656.362,899.214 659.5,902.507 665.775,902.507 C673.368,902.507 679.759,901.035 684.95,898.091"/>
<path class="Note" d="M720.627,561.187 C724.965,558.243 728.103,555.803 730.04,553.866 C733.604,550.07 735.386,546.583 735.386,543.407 C735.386,539.766 733.371,537.945 729.343,537.945 C721.518,537.945 713.151,544.84 704.241,558.631 C701.53,562.814 695.564,576.45 686.345,599.537 C693.705,607.129 697.385,611.429 697.385,612.436 C697.385,613.831 696.494,614.528 694.712,614.528 C693.317,614.528 689.482,612.165 683.207,607.439 C676.389,623.321 666.047,636.879 652.179,648.113 C638.001,659.579 621.073,665.312 601.394,665.312 C593.88,665.312 584.466,663.569 573.155,660.083 C564.091,657.294 559.559,652.839 559.559,646.719 C559.559,637.654 563.045,633.122 570.018,633.122 C574.201,633.122 576.293,635.059 576.293,638.932 C576.293,640.172 575.324,641.489 573.388,642.884 C572.38,643.581 571.877,644.937 571.877,646.951 C571.877,649.353 574.55,651.832 579.895,654.388 C585.706,657.178 594.228,658.572 605.462,658.572 C619.949,658.572 633.934,652.297 647.414,639.746 C659.655,628.357 668.448,615.109 673.794,600.002 C671.702,598.297 669.455,596.438 667.054,594.424 C659.616,590.008 655.897,585.475 655.897,580.827 C655.897,578.89 657.176,577.922 659.732,577.922 C663.141,577.922 667.751,580.827 673.561,586.638 C674.801,587.877 675.963,589.039 677.048,590.124 C679.759,582.686 684.098,573.235 690.063,561.768 C700.832,541.005 713.925,530.624 729.343,530.624 C734.843,530.624 739.182,531.67 742.358,533.762 C745.535,535.853 747.123,538.72 747.123,542.361 C747.123,548.172 744.992,553.091 740.731,557.12 C736.315,561.304 731.706,563.395 726.902,563.395 C722.719,563.395 720.627,562.659 720.627,561.187"/>
<path class="Note" d="M720.627,471.896 C724.965,468.952 728.103,466.512 730.04,464.575 C733.604,460.778 735.386,457.292 735.386,454.116 C735.386,450.474 733.371,448.654 729.343,448.654 C721.518,448.654 713.151,455.549 704.241,469.339 C701.53,473.523 695.564,487.158 686.345,510.246 C693.705,517.838 697.385,522.138 697.385,523.145 C697.385,524.54 696.494,525.237 694.712,525.237 C693.317,525.237 689.482,522.874 683.207,518.148 C676.389,534.03 666.047,547.588 652.179,558.822 C638.001,570.288 621.073,576.021 601.394,576.021 C593.88,576.021 584.466,574.278 573.155,570.791 C564.091,568.002 559.559,563.548 559.559,557.427 C559.559,548.363 563.045,543.831 570.018,543.831 C574.201,543.831 576.293,545.767 576.293,549.641 C576.293,550.881 575.324,552.198 573.388,553.592 C572.38,554.29 571.877,555.645 571.877,557.66 C571.877,560.061 574.55,562.541 579.895,565.097 C585.706,567.886 594.228,569.281 605.462,569.281 C619.949,569.281 633.934,563.005 647.414,550.455 C659.655,539.066 668.448,525.818 673.794,510.71 C671.702,509.006 669.455,507.147 667.054,505.132 C659.616,500.716 655.897,496.184 655.897,491.536 C655.897,489.599 657.176,488.63 659.732,488.63 C663.141,488.63 667.751,491.536 673.561,497.346 C674.801,498.586 675.963,499.748 677.048,500.832 C679.759,493.395 684.098,483.943 690.063,472.477 C700.832,451.714 713.925,441.332 729.343,441.332 C734.843,441.332 739.182,442.378 742.358,444.47 C745.535,446.562 747.123,449.429 747.123,453.07 C747.123,458.88 744.992,463.8 740.731,467.829 C736.315,472.012 731.706,474.104 726.902,474.104 C722.719,474.104 720.627,473.368 720.627,471.896"/>
<path class="Note" d="M719.813,674.069 C719.813,682.979 709.664,702.541 689.366,732.756 C681.309,744.764 669.727,753.558 654.619,759.136 C643.463,763.319 630.563,765.411 615.921,765.411 C611.195,765.411 607.011,764.443 603.37,762.506 C599.341,760.414 597.327,758.129 597.327,755.65 C597.327,749.219 600.775,746.004 607.67,746.004 C608.677,746.004 609.181,746.624 609.181,747.863 C609.181,748.948 608.677,750.149 607.67,751.466 C606.43,753.093 605.811,754.294 605.811,755.068 C605.811,757.393 609.297,758.555 616.269,758.555 C631.919,758.555 644.276,756.657 653.341,752.86 C662.793,748.987 672.206,739.109 681.58,723.227 L684.253,718.23 C679.759,721.638 675.305,723.343 670.889,723.343 C659.887,723.343 654.387,718.888 654.387,709.979 C654.387,700.372 660.856,690.262 673.794,679.648 C683.943,671.435 692.969,667.329 700.871,667.329 C704.822,667.329 708.115,668.375 710.749,670.467 C711.679,669.77 712.841,669.421 714.235,669.421 C717.954,669.421 719.813,670.971 719.813,674.069 M685.647,715.789 L707.611,675.232 C705.907,674.844 704.009,674.651 701.917,674.651 C694.402,674.651 687.119,679.028 680.069,687.782 C671.857,698.009 667.751,706.182 667.751,712.303 C667.751,716.332 670.424,718.346 675.769,718.346 C678.326,718.346 681.619,717.494 685.647,715.789"/>
<path class="Note" d="M1094.57,999.7 C1090.39,999.7 1088.3,997.802 1088.3,994.006 C1088.3,987.576 1089.27,982.85 1091.2,979.828 C1099.26,967.897 1116.77,945.585 1143.73,912.891 C1155.89,898.093 1171.58,890.694 1190.79,890.694 C1198.23,890.694 1203.38,891.74 1206.25,893.832 C1210.67,897.086 1212.87,900.999 1212.87,905.569 C1212.87,910.373 1209,915.719 1201.25,921.607 C1193.89,927.185 1186.92,929.974 1180.34,929.974 C1177.78,929.974 1176.5,929.703 1176.5,929.16 C1176.5,928.386 1177.74,927.572 1180.22,926.72 C1183.55,925.48 1187.11,922.962 1190.91,919.166 C1195.25,914.75 1197.42,910.76 1197.42,907.196 C1197.42,904.795 1195.75,902.509 1192.42,900.34 C1189.48,898.481 1184.71,897.551 1178.13,897.551 C1168.52,897.551 1156.4,907.235 1141.75,926.604 C1131.99,939.542 1124.09,950.93 1118.05,960.77 C1120.99,959.143 1124.52,957.167 1128.62,954.843 C1133.66,951.976 1138,950.543 1141.64,950.543 C1150.7,950.543 1155.23,953.797 1155.23,960.305 C1155.23,966.735 1151.52,973.785 1144.08,981.455 C1138.81,986.878 1136.18,990.907 1136.18,993.541 C1136.18,996.253 1138.81,997.609 1144.08,997.609 C1146.71,997.609 1149.42,996.679 1152.21,994.819 C1155,993.038 1157.05,992.147 1158.37,992.147 C1159.46,992.147 1160,992.844 1160,994.238 C1160,996.485 1157.83,998.848 1153.49,1001.33 C1146.21,1005.51 1140.36,1007.6 1135.94,1007.6 C1128.12,1007.6 1124.21,1003.42 1124.21,995.052 C1124.21,989.784 1127.23,983.934 1133.27,977.504 C1137.69,972.778 1139.89,968.091 1139.89,963.443 C1139.89,959.414 1137.73,957.4 1133.39,957.4 C1131.68,957.4 1126.03,959.414 1116.42,963.443 C1113.55,968.246 1111.15,972.662 1109.21,976.691 C1101.85,992.03 1096.97,999.7 1094.57,999.7"/>
<path class="Note" d="M1094.57,910.409 C1090.39,910.409 1088.3,908.511 1088.3,904.715 C1088.3,898.284 1089.27,893.558 1091.2,890.537 C1099.26,878.606 1116.77,856.293 1143.73,823.599 C1155.89,808.802 1171.58,801.403 1190.79,801.403 C1198.23,801.403 1203.38,802.449 1206.25,804.541 C1210.67,807.795 1212.87,811.707 1212.87,816.278 C1212.87,821.082 1209,826.427 1201.25,832.315 C1193.89,837.893 1186.92,840.682 1180.34,840.682 C1177.78,840.682 1176.5,840.411 1176.5,839.869 C1176.5,839.094 1177.74,838.281 1180.22,837.429 C1183.55,836.189 1187.11,833.671 1190.91,829.875 C1195.25,825.459 1197.42,821.469 1197.42,817.905 C1197.42,815.503 1195.75,813.218 1192.42,811.049 C1189.48,809.189 1184.71,808.26 1178.13,808.26 C1168.52,808.26 1156.4,817.944 1141.75,837.312 C1131.99,850.25 1124.09,861.639 1118.05,871.478 C1120.99,869.851 1124.52,867.876 1128.62,865.552 C1133.66,862.685 1138,861.252 1141.64,861.252 C1150.7,861.252 1155.23,864.506 1155.23,871.013 C1155.23,877.444 1151.52,884.494 1144.08,892.164 C1138.81,897.587 1136.18,901.616 1136.18,904.25 C1136.18,906.961 1138.81,908.317 1144.08,908.317 C1146.71,908.317 1149.42,907.388 1152.21,905.528 C1155,903.746 1157.05,902.855 1158.37,902.855 C1159.46,902.855 1160,903.553 1160,904.947 C1160,907.194 1157.83,909.557 1153.49,912.036 C1146.21,916.22 1140.36,918.311 1135.94,918.311 C1128.12,918.311 1124.21,914.128 1124.21,905.761 C1124.21,900.492 1127.23,894.643 1133.27,888.213 C1137.69,883.487 1139.89,878.8 1139.89,874.151 C1139.89,870.123 1137.73,868.108 1133.39,868.108 C1131.68,868.108 1126.03,870.123 1116.42,874.151 C1113.55,878.955 1111.15,883.371 1109.21,887.399 C1101.85,902.739 1096.97,910.409 1094.57,910.409"/>
<path class="Note" d="M1155.47,568.625 C1157.87,568.625 1159.61,569.128 1160.7,570.136 C1161.94,571.22 1162.56,572.808 1162.56,574.9 C1162.56,577.534 1161.39,579.781 1159.07,581.64 C1149,588.768 1138.65,597.832 1128.04,608.834 C1130.44,619.448 1133.39,627.311 1136.87,632.425 C1141.44,639.165 1144.58,642.535 1146.29,642.535 C1147.84,642.535 1149.5,641.567 1151.28,639.63 C1152.52,638.313 1153.72,637.654 1154.89,637.654 C1157.36,637.654 1158.6,638.971 1158.6,641.605 C1158.6,644.394 1156.4,648.191 1151.98,652.994 C1149.58,655.473 1147.06,656.713 1144.43,656.713 C1139,656.713 1133.54,651.638 1128.04,641.489 C1122.46,631.263 1118.63,621.617 1116.54,612.553 C1112.66,624.484 1110.73,631.805 1110.73,634.516 C1110.73,639.862 1107.67,642.535 1101.54,642.535 C1098.21,642.535 1096.55,639.436 1096.55,633.238 C1096.55,630.294 1100.23,617.124 1107.59,593.726 C1111.23,582.26 1114.21,574.242 1116.54,569.671 C1117.08,568.741 1118.47,568.276 1120.72,568.276 C1123.35,568.276 1125.17,568.818 1126.18,569.903 C1127.19,570.988 1127.69,573.235 1127.69,576.643 C1127.69,578.348 1126.03,584.236 1122.7,594.307 C1130.98,586.173 1140.32,578.232 1150.7,570.484 C1152.33,569.245 1153.92,568.625 1155.47,568.625"/>
<path class="Note" d="M1123.86,666.167 C1127.65,666.167 1129.55,669.072 1129.55,674.883 C1129.55,679.067 1127.58,683.87 1123.62,689.293 C1120.14,694.174 1118.4,701.728 1118.4,711.954 C1118.4,716.835 1119.67,720.089 1122.23,721.716 C1124.01,722.956 1127.34,723.614 1132.22,723.692 C1137.49,723.692 1144.97,721.019 1154.65,715.673 L1156.51,717.532 C1154.03,720.709 1151.05,723.575 1147.56,726.132 C1142.37,729.928 1137.07,731.826 1131.64,731.826 C1123.82,731.826 1117.89,730.703 1113.86,728.456 C1108.83,725.667 1106.31,722.181 1106.31,717.997 C1106.31,706.454 1107.78,694.406 1110.73,681.856 C1111.81,677.285 1114.17,673.101 1117.81,669.305 C1119.91,667.213 1121.92,666.167 1123.86,666.167"/>
<path class="Note" d="M1523.05,934.041 C1526.85,934.041 1528.75,936.946 1528.75,942.757 C1528.75,946.941 1526.77,951.744 1522.82,957.167 C1519.34,962.048 1517.59,969.602 1517.59,979.828 C1517.59,984.709 1518.87,987.963 1521.43,989.59 C1523.21,990.83 1526.54,991.488 1531.42,991.566 C1536.69,991.566 1544.17,988.893 1553.85,983.547 L1555.71,985.406 C1553.23,988.583 1550.25,991.449 1546.76,994.006 C1541.57,997.802 1536.26,999.7 1530.84,999.7 C1523.02,999.7 1517.09,998.577 1513.06,996.33 C1508.02,993.541 1505.51,990.055 1505.51,985.871 C1505.51,974.328 1506.98,962.28 1509.92,949.73 C1511.01,945.159 1513.37,940.975 1517.01,937.179 C1519.1,935.087 1521.12,934.041 1523.05,934.041"/>
<path class="Note" d="M1566.4,561.187 C1570.74,558.243 1573.88,555.803 1575.81,553.866 C1579.38,550.07 1581.16,546.583 1581.16,543.407 C1581.16,539.766 1579.15,537.945 1575.12,537.945 C1567.29,537.945 1558.92,544.84 1550.02,558.631 C1547.3,562.814 1541.34,576.45 1532.12,599.537 C1539.48,607.129 1543.16,611.429 1543.16,612.436 C1543.16,613.831 1542.27,614.528 1540.49,614.528 C1539.09,614.528 1535.26,612.165 1528.98,607.439 C1522.16,623.321 1511.82,636.879 1497.95,648.113 C1483.77,659.579 1466.85,665.312 1447.17,665.312 C1439.65,665.312 1430.24,663.569 1418.93,660.083 C1409.86,657.294 1405.33,652.839 1405.33,646.719 C1405.33,637.654 1408.82,633.122 1415.79,633.122 C1419.98,633.122 1422.07,635.059 1422.07,638.932 C1422.07,640.172 1421.1,641.489 1419.16,642.884 C1418.15,643.581 1417.65,644.937 1417.65,646.951 C1417.65,649.353 1420.32,651.832 1425.67,654.388 C1431.48,657.178 1440,658.572 1451.24,658.572 C1465.72,658.572 1479.71,652.297 1493.19,639.746 C1505.43,628.357 1514.22,615.109 1519.57,600.002 C1517.48,598.297 1515.23,596.438 1512.83,594.424 C1505.39,590.008 1501.67,585.475 1501.67,580.827 C1501.67,578.89 1502.95,577.922 1505.51,577.922 C1508.92,577.922 1513.52,580.827 1519.34,586.638 C1520.57,587.877 1521.74,589.039 1522.82,590.124 C1525.53,582.686 1529.87,573.235 1535.84,561.768 C1546.61,541.005 1559.7,530.624 1575.12,530.624 C1580.62,530.624 1584.96,531.67 1588.13,533.762 C1591.31,535.853 1592.9,538.72 1592.9,542.361 C1592.9,548.172 1590.77,553.091 1586.51,557.12 C1582.09,561.304 1577.48,563.395 1572.68,563.395 C1568.49,563.395 1566.4,562.659 1566.4,561.187"/>
<path class="Note" d="M1566.4,471.896 C1570.74,468.952 1573.88,466.512 1575.81,464.575 C1579.38,460.778 1581.16,457.292 1581.16,454.116 C1581.16,450.474 1579.15,448.654 1575.12,448.654 C1567.29,448.654 1558.92,455.549 1550.02,469.339 C1547.3,473.523 1541.34,487.158 1532.12,510.246 C1539.48,517.838 1543.16,522.138 1543.16,523.145 C1543.16,524.54 1542.27,525.237 1540.49,525.237 C1539.09,525.237 1535.26,522.874 1528.98,518.148 C1522.16,534.03 1511.82,547.588 1497.95,558.822 C1483.77,570.288 1466.85,576.021 1447.17,576.021 C1439.65,576.021 1430.24,574.278 1418.93,570.791 C1409.86,568.002 1405.33,563.548 1405.33,557.427 C1405.33,548.363 1408.82,543.831 1415.79,543.831 C1419.98,543.831 1422.07,545.767 1422.07,549.641 C1422.07,550.881 1421.1,552.198 1419.16,553.592 C1418.15,554.29 1417.65,555.645 1417.65,557.66 C1417.65,560.061 1420.32,562.541 1425.67,565.097 C1431.48,567.886 1440,569.281 1451.24,569.281 C1465.72,569.281 1479.71,563.005 1493.19,550.455 C1505.43,539.066 1514.22,525.818 1519.57,510.71 C1517.48,509.006 1515.23,507.147 1512.83,505.132 C1505.39,500.716 1501.67,496.184 1501.67,491.536 C1501.67,489.599 1502.95,488.63 1505.51,488.63 C1508.92,488.63 1513.52,491.536 1519.34,497.346 C1520.57,498.586 1521.74,499.748 1522.82,500.832 C1525.53,493.395 1529.87,483.943 1535.84,472.477 C1546.61,451.714 1559.7,441.332 1575.12,441.332 C1580.62,441.332 1584.96,442.378 1588.13,444.47 C1591.31,446.562 1592.9,449.429 1592.9,453.07 C1592.9,458.88 1590.77,463.8 1586.51,467.829 C1582.09,472.012 1577.48,474.104 1572.68,474.104 C1568.49,474.104 1566.4,473.368 1566.4,471.896"/>
<path class="Note" d="M1565.59,674.069 C1565.59,682.979 1555.44,702.541 1535.14,732.756 C1527.08,744.764 1515.5,753.558 1500.39,759.136 C1489.24,763.319 1476.34,765.411 1461.69,765.411 C1456.97,765.411 1452.79,764.443 1449.14,762.506 C1445.12,760.414 1443.1,758.129 1443.1,755.65 C1443.1,749.219 1446.55,746.004 1453.44,746.004 C1454.45,746.004 1454.95,746.624 1454.95,747.863 C1454.95,748.948 1454.45,750.149 1453.44,751.466 C1452.2,753.093 1451.58,754.294 1451.58,755.068 C1451.58,757.393 1455.07,758.555 1462.04,758.555 C1477.69,758.555 1490.05,756.657 1499.11,752.86 C1508.57,748.987 1517.98,739.109 1527.35,723.227 L1530.03,718.23 C1525.53,721.638 1521.08,723.343 1516.66,723.343 C1505.66,723.343 1500.16,718.888 1500.16,709.979 C1500.16,700.372 1506.63,690.262 1519.57,679.648 C1529.72,671.435 1538.74,667.329 1546.64,667.329 C1550.6,667.329 1553.89,668.375 1556.52,670.467 C1557.45,669.77 1558.61,669.421 1560.01,669.421 C1563.73,669.421 1565.59,670.971 1565.59,674.069 M1531.42,715.789 L1553.39,675.232 C1551.68,674.844 1549.78,674.651 1547.69,674.651 C1540.18,674.651 1532.89,679.028 1525.84,687.782 C1517.63,698.009 1513.52,706.182 1513.52,712.303 C1513.52,716.332 1516.2,718.346 1521.54,718.346 C1524.1,718.346 1527.39,717.494 1531.42,715.789"/>
<path class="Note" d="M1946.52,587.916 C1946.83,576.217 1953.3,565.836 1965.93,556.771 C1977.16,548.714 1989.44,544.685 2002.77,544.685 C2021.44,544.685 2037.9,552.007 2052.16,566.649 C2061.22,576.024 2065.76,587.645 2065.76,601.513 C2065.76,613.986 2062.42,623.554 2055.76,630.217 C2047.63,638.429 2039.03,642.535 2029.96,642.535 C2023.76,642.535 2018.96,641.14 2015.55,638.351 C2009.97,633.78 2007.19,627.66 2007.19,619.99 C2007.19,610.073 2012.14,601.009 2022.06,592.797 C2030.2,586.056 2038.37,581.64 2046.58,579.549 C2044.41,575.83 2041.66,572.344 2038.33,569.09 C2027.95,558.941 2016.17,553.866 2003,553.866 C1989.29,553.866 1977.94,556.849 1968.95,562.814 C1959.66,568.935 1952.18,577.302 1946.52,587.916 M2049.49,585.708 C2045.23,589.659 2040.96,593.881 2036.7,598.375 C2028.34,607.207 2024.15,615.574 2024.15,623.476 C2024.15,631.921 2026.09,636.143 2029.96,636.143 C2033.45,636.143 2038.33,631.379 2044.61,621.849 C2049.64,614.257 2052.16,607.284 2052.16,600.931 C2052.16,595.508 2051.27,590.434 2049.49,585.708"/>
<path class="Note" d="M2057.61,762.547 C2062.18,762.547 2064.47,765.414 2064.47,771.147 C2064.47,775.176 2061.95,781.18 2056.91,789.16 C2052.89,795.59 2050.87,801.865 2050.87,807.986 C2050.87,811.472 2055.95,813.215 2066.1,813.215 C2074.46,813.215 2086.12,808.683 2101.07,799.619 C2086.04,814.106 2072.99,821.35 2061.91,821.35 C2051.92,821.35 2044.94,819.839 2040.99,816.818 C2039.99,816.043 2039.13,815.113 2038.44,814.029 C2034.56,818.755 2028.09,821.118 2019.03,821.118 C2010.35,821.118 2003.69,819.336 1999.04,815.772 C1995.94,813.37 1994.39,809.535 1994.39,804.267 C1994.39,795.9 1999.35,786.758 2009.27,776.841 C2019.88,766.227 2032.16,760.92 2046.11,760.92 C2049.59,760.92 2052.15,762.199 2053.78,764.755 C2055.09,763.283 2056.37,762.547 2057.61,762.547 M2036.81,808.799 C2036.73,808.179 2036.69,807.56 2036.69,806.94 C2036.69,806.63 2040.65,795.822 2048.55,774.517 C2049.32,772.425 2050.1,770.643 2050.87,769.171 C2047.85,768.552 2044.87,768.242 2041.92,768.242 C2036.5,768.242 2029.3,772.851 2020.31,782.071 C2012.25,790.283 2008.22,797.372 2008.22,803.337 C2008.22,809.923 2011.36,813.215 2017.64,813.215 C2025.23,813.215 2031.62,811.743 2036.81,808.799"/>
<path class="Note" d="M2072.49,471.896 C2076.83,468.952 2079.96,466.512 2081.9,464.575 C2085.46,460.778 2087.25,457.292 2087.25,454.116 C2087.25,450.474 2085.23,448.654 2081.2,448.654 C2073.38,448.654 2065.01,455.549 2056.1,469.339 C2053.39,473.523 2047.42,487.158 2038.2,510.246 C2045.56,517.838 2049.24,522.138 2049.24,523.145 C2049.24,524.54 2048.35,525.237 2046.57,525.237 C2045.18,525.237 2041.34,522.874 2035.07,518.148 C2028.25,534.03 2017.91,547.588 2004.04,558.822 C1989.86,570.288 1972.93,576.021 1953.25,576.021 C1945.74,576.021 1936.33,574.278 1925.02,570.791 C1915.95,568.002 1911.42,563.548 1911.42,557.427 C1911.42,548.363 1914.9,543.831 1921.88,543.831 C1926.06,543.831 1928.15,545.767 1928.15,549.641 C1928.15,550.881 1927.18,552.198 1925.25,553.592 C1924.24,554.29 1923.74,555.645 1923.74,557.66 C1923.74,560.061 1926.41,562.541 1931.76,565.097 C1937.57,567.886 1946.09,569.281 1957.32,569.281 C1971.81,569.281 1985.79,563.005 1999.27,550.455 C2011.51,539.066 2020.31,525.818 2025.65,510.71 C2023.56,509.006 2021.32,507.147 2018.91,505.132 C2011.48,500.716 2007.76,496.184 2007.76,491.536 C2007.76,489.599 2009.04,488.63 2011.59,488.63 C2015,488.63 2019.61,491.536 2025.42,497.346 C2026.66,498.586 2027.82,499.748 2028.91,500.832 C2031.62,493.395 2035.96,483.943 2041.92,472.477 C2052.69,451.714 2065.79,441.332 2081.2,441.332 C2086.7,441.332 2091.04,442.378 2094.22,444.47 C2097.39,446.562 2098.98,449.429 2098.98,453.07 C2098.98,458.88 2096.85,463.8 2092.59,467.829 C2088.18,472.012 2083.57,474.104 2078.76,474.104 C2074.58,474.104 2072.49,473.368 2072.49,471.896"/>
<path class="Note" d="M2072.49,650.479 C2076.83,647.535 2079.96,645.094 2081.9,643.157 C2085.46,639.361 2087.25,635.875 2087.25,632.698 C2087.25,629.057 2085.23,627.236 2081.2,627.236 C2073.38,627.236 2065.01,634.132 2056.1,647.922 C2053.39,652.106 2047.42,665.741 2038.2,688.828 C2045.56,696.421 2049.24,700.721 2049.24,701.728 C2049.24,703.122 2048.35,703.819 2046.57,703.819 C2045.18,703.819 2041.34,701.457 2035.07,696.731 C2028.25,712.613 2017.91,726.171 2004.04,737.404 C1989.86,748.871 1972.93,754.604 1953.25,754.604 C1945.74,754.604 1936.33,752.86 1925.02,749.374 C1915.95,746.585 1911.42,742.13 1911.42,736.01 C1911.42,726.945 1914.9,722.413 1921.88,722.413 C1926.06,722.413 1928.15,724.35 1928.15,728.224 C1928.15,729.463 1927.18,730.78 1925.25,732.175 C1924.24,732.872 1923.74,734.228 1923.74,736.242 C1923.74,738.644 1926.41,741.123 1931.76,743.68 C1937.57,746.469 1946.09,747.863 1957.32,747.863 C1971.81,747.863 1985.79,741.588 1999.27,729.037 C2011.51,717.649 2020.31,704.401 2025.65,689.293 C2023.56,687.589 2021.32,685.729 2018.91,683.715 C2011.48,679.299 2007.76,674.767 2007.76,670.118 C2007.76,668.181 2009.04,667.213 2011.59,667.213 C2015,667.213 2019.61,670.118 2025.42,675.929 C2026.66,677.168 2027.82,678.331 2028.91,679.415 C2031.62,671.978 2035.96,662.526 2041.92,651.06 C2052.69,630.297 2065.79,619.915 2081.2,619.915 C2086.7,619.915 2091.04,620.961 2094.22,623.053 C2097.39,625.145 2098.98,628.011 2098.98,631.652 C2098.98,637.463 2096.85,642.383 2092.59,646.411 C2088.18,650.595 2083.57,652.687 2078.76,652.687 C2074.58,652.687 2072.49,651.951 2072.49,650.479"/>
<path class="Note" d="M2459.11,910.409 C2454.93,910.409 2452.84,908.511 2452.84,904.715 C2452.84,898.284 2453.8,893.558 2455.74,890.537 C2463.8,878.606 2481.31,856.293 2508.27,823.599 C2520.43,808.802 2536.12,801.403 2555.33,801.403 C2562.77,801.403 2567.92,802.449 2570.79,804.541 C2575.21,807.795 2577.41,811.707 2577.41,816.278 C2577.41,821.082 2573.54,826.427 2565.79,832.315 C2558.43,837.893 2551.46,840.682 2544.88,840.682 C2542.32,840.682 2541.04,840.411 2541.04,839.869 C2541.04,839.094 2542.28,838.281 2544.76,837.429 C2548.09,836.189 2551.65,833.671 2555.45,829.875 C2559.79,825.459 2561.96,821.469 2561.96,817.905 C2561.96,815.503 2560.29,813.218 2556.96,811.049 C2554.02,809.189 2549.25,808.26 2542.67,808.26 C2533.06,808.26 2520.94,817.944 2506.29,837.312 C2496.53,850.25 2488.63,861.639 2482.59,871.478 C2485.53,869.851 2489.06,867.876 2493.16,865.552 C2498.2,862.685 2502.54,861.252 2506.18,861.252 C2515.24,861.252 2519.77,864.506 2519.77,871.013 C2519.77,877.444 2516.05,884.494 2508.62,892.164 C2503.35,897.587 2500.71,901.616 2500.71,904.25 C2500.71,906.961 2503.35,908.317 2508.62,908.317 C2511.25,908.317 2513.96,907.388 2516.75,905.528 C2519.54,903.746 2521.59,902.855 2522.91,902.855 C2524,902.855 2524.54,903.553 2524.54,904.947 C2524.54,907.194 2522.37,909.557 2518.03,912.036 C2510.75,916.22 2504.9,918.311 2500.48,918.311 C2492.66,918.311 2488.75,914.128 2488.75,905.761 C2488.75,900.492 2491.77,894.643 2497.81,888.213 C2502.23,883.487 2504.43,878.8 2504.43,874.151 C2504.43,870.123 2502.26,868.108 2497.93,868.108 C2496.22,868.108 2490.57,870.123 2480.96,874.151 C2478.09,878.955 2475.69,883.371 2473.75,887.399 C2466.39,902.739 2461.51,910.409 2459.11,910.409"/>
<path class="Note" d="M2531.74,561.187 C2536.08,558.243 2539.22,555.803 2541.16,553.866 C2544.72,550.07 2546.5,546.583 2546.5,543.407 C2546.5,539.766 2544.49,537.945 2540.46,537.945 C2532.63,537.945 2524.27,544.84 2515.36,558.631 C2512.65,562.814 2506.68,576.45 2497.46,599.537 C2504.82,607.129 2508.5,611.429 2508.5,612.436 C2508.5,613.831 2507.61,614.528 2505.83,614.528 C2504.43,614.528 2500.6,612.165 2494.32,607.439 C2487.51,623.321 2477.16,636.879 2463.3,648.113 C2449.12,659.579 2432.19,665.312 2412.51,665.312 C2405,665.312 2395.58,663.569 2384.27,660.083 C2375.21,657.294 2370.67,652.839 2370.67,646.719 C2370.67,637.654 2374.16,633.122 2381.13,633.122 C2385.32,633.122 2387.41,635.059 2387.41,638.932 C2387.41,640.172 2386.44,641.489 2384.5,642.884 C2383.5,643.581 2382.99,644.937 2382.99,646.951 C2382.99,649.353 2385.67,651.832 2391.01,654.388 C2396.82,657.178 2405.34,658.572 2416.58,658.572 C2431.07,658.572 2445.05,652.297 2458.53,639.746 C2470.77,628.357 2479.56,615.109 2484.91,600.002 C2482.82,598.297 2480.57,596.438 2478.17,594.424 C2470.73,590.008 2467.01,585.475 2467.01,580.827 C2467.01,578.89 2468.29,577.922 2470.85,577.922 C2474.26,577.922 2478.87,580.827 2484.68,586.638 C2485.92,587.877 2487.08,589.039 2488.16,590.124 C2490.88,582.686 2495.21,573.235 2501.18,561.768 C2511.95,541.005 2525.04,530.624 2540.46,530.624 C2545.96,530.624 2550.3,531.67 2553.47,533.762 C2556.65,535.853 2558.24,538.72 2558.24,542.361 C2558.24,548.172 2556.11,553.091 2551.85,557.12 C2547.43,561.304 2542.82,563.395 2538.02,563.395 C2533.84,563.395 2531.74,562.659 2531.74,561.187"/>
<path class="Note" d="M2530.93,763.361 C2530.93,772.27 2520.78,791.832 2500.48,822.047 C2492.43,834.056 2480.84,842.849 2465.74,848.427 C2454.58,852.611 2441.68,854.703 2427.04,854.703 C2422.31,854.703 2418.13,853.734 2414.49,851.797 C2410.46,849.706 2408.44,847.42 2408.44,844.941 C2408.44,838.511 2411.89,835.295 2418.79,835.295 C2419.79,835.295 2420.3,835.915 2420.3,837.155 C2420.3,838.239 2419.79,839.44 2418.79,840.757 C2417.55,842.384 2416.93,843.585 2416.93,844.36 C2416.93,846.684 2420.41,847.846 2427.39,847.846 C2443.04,847.846 2455.39,845.948 2464.46,842.152 C2473.91,838.278 2483.32,828.4 2492.7,812.518 L2495.37,807.521 C2490.88,810.93 2486.42,812.634 2482,812.634 C2471,812.634 2465.5,808.179 2465.5,799.27 C2465.5,789.663 2471.97,779.553 2484.91,768.939 C2495.06,760.727 2504.09,756.621 2511.99,756.621 C2515.94,756.621 2519.23,757.666 2521.87,759.758 C2522.8,759.061 2523.96,758.712 2525.35,758.712 C2529.07,758.712 2530.93,760.262 2530.93,763.361 M2496.76,805.081 L2518.73,764.523 C2517.02,764.136 2515.13,763.942 2513.03,763.942 C2505.52,763.942 2498.24,768.319 2491.19,777.074 C2482.97,787.3 2478.87,795.474 2478.87,801.594 C2478.87,805.623 2481.54,807.637 2486.89,807.637 C2489.44,807.637 2492.74,806.785 2496.76,805.081"/>
<path class="Note" d="M2531.74,650.479 C2536.08,647.535 2539.22,645.094 2541.16,643.157 C2544.72,639.361 2546.5,635.875 2546.5,632.698 C2546.5,629.057 2544.49,627.236 2540.46,627.236 C2532.63,627.236 2524.27,634.132 2515.36,647.922 C2512.65,652.106 2506.68,665.741 2497.46,688.828 C2504.82,696.421 2508.5,700.721 2508.5,701.728 C2508.5,703.122 2507.61,703.819 2505.83,703.819 C2504.43,703.819 2500.6,701.457 2494.32,696.731 C2487.51,712.613 2477.16,726.171 2463.3,737.404 C2449.12,748.871 2432.19,754.604 2412.51,754.604 C2405,754.604 2395.58,752.86 2384.27,749.374 C2375.21,746.585 2370.67,742.13 2370.67,736.01 C2370.67,726.945 2374.16,722.413 2381.13,722.413 C2385.32,722.413 2387.41,724.35 2387.41,728.224 C2387.41,729.463 2386.44,730.78 2384.5,732.175 C2383.5,732.872 2382.99,734.228 2382.99,736.242 C2382.99,738.644 2385.67,741.123 2391.01,743.68 C2396.82,746.469 2405.34,747.863 2416.58,747.863 C2431.07,747.863 2445.05,741.588 2458.53,729.037 C2470.77,717.649 2479.56,704.401 2484.91,689.293 C2482.82,687.589 2480.57,685.729 2478.17,683.715 C2470.73,679.299 2467.01,674.767 2467.01,670.118 C2467.01,668.181 2468.29,667.213 2470.85,667.213 C2474.26,667.213 2478.87,670.118 2484.68,675.929 C2485.92,677.168 2487.08,678.331 2488.16,679.415 C2490.88,671.978 2495.21,662.526 2501.18,651.06 C2511.95,630.297 2525.04,619.915 2540.46,619.915 C2545.96,619.915 2550.3,620.961 2553.47,623.053 C2556.65,625.145 2558.24,628.011 2558.24,631.652 C2558.24,637.463 2556.11,642.383 2551.85,646.411 C2547.43,650.595 2542.82,652.687 2538.02,652.687 C2533.84,652.687 2531.74,651.951 2531.74,650.479"/>
<path class="Note" d="M2949.19,836.499 C2951.59,836.499 2953.33,837.002 2954.42,838.01 C2955.66,839.094 2956.28,840.682 2956.28,842.774 C2956.28,845.408 2955.12,847.655 2952.79,849.514 C2942.72,856.642 2932.38,865.707 2921.76,876.708 C2924.17,887.322 2927.11,895.185 2930.6,900.299 C2935.17,907.039 2938.3,910.409 2940.01,910.409 C2941.56,910.409 2943.22,909.441 2945.01,907.504 C2946.25,906.187 2947.45,905.528 2948.61,905.528 C2951.09,905.528 2952.33,906.845 2952.33,909.479 C2952.33,912.268 2950.12,916.065 2945.7,920.868 C2943.3,923.347 2940.78,924.587 2938.15,924.587 C2932.73,924.587 2927.26,919.512 2921.76,909.363 C2916.19,899.137 2912.35,889.491 2910.26,880.427 C2906.39,892.358 2904.45,899.679 2904.45,902.39 C2904.45,907.736 2901.39,910.409 2895.27,910.409 C2891.94,910.409 2890.27,907.31 2890.27,901.112 C2890.27,898.168 2893.95,884.998 2901.31,861.6 C2904.95,850.134 2907.93,842.116 2910.26,837.545 C2910.8,836.615 2912.2,836.15 2914.44,836.15 C2917.08,836.15 2918.9,836.693 2919.9,837.777 C2920.91,838.862 2921.42,841.109 2921.42,844.517 C2921.42,846.222 2919.75,852.11 2916.42,862.181 C2924.71,854.047 2934.04,846.106 2944.43,838.358 C2946.05,837.119 2947.64,836.499 2949.19,836.499"/>
<path class="Note" d="M2888.3,821.118 C2884.11,821.118 2882.02,819.22 2882.02,815.423 C2882.02,808.993 2882.99,804.267 2884.93,801.246 C2892.98,789.315 2910.49,767.002 2937.45,734.308 C2949.62,719.511 2965.3,712.112 2984.52,712.112 C2991.96,712.112 2997.11,713.158 2999.97,715.249 C3004.39,718.503 3006.6,722.416 3006.6,726.987 C3006.6,731.79 3002.72,737.136 2994.98,743.024 C2987.62,748.602 2980.64,751.391 2974.06,751.391 C2971.5,751.391 2970.22,751.12 2970.22,750.578 C2970.22,749.803 2971.46,748.989 2973.94,748.137 C2977.27,746.898 2980.84,744.38 2984.63,740.583 C2988.97,736.167 2991.14,732.178 2991.14,728.614 C2991.14,726.212 2989.48,723.927 2986.14,721.757 C2983.2,719.898 2978.44,718.968 2971.85,718.968 C2962.24,718.968 2950.12,728.652 2935.48,748.021 C2925.72,760.959 2917.81,772.348 2911.77,782.187 C2914.71,780.56 2918.24,778.584 2922.35,776.26 C2927.38,773.394 2931.72,771.96 2935.36,771.96 C2944.43,771.96 2948.96,775.214 2948.96,781.722 C2948.96,788.152 2945.24,795.203 2937.8,802.873 C2932.53,808.296 2929.9,812.324 2929.9,814.958 C2929.9,817.67 2932.53,819.026 2937.8,819.026 C2940.44,819.026 2943.15,818.096 2945.94,816.237 C2948.72,814.455 2950.78,813.564 2952.1,813.564 C2953.18,813.564 2953.72,814.261 2953.72,815.656 C2953.72,817.902 2951.55,820.265 2947.21,822.745 C2939.93,826.928 2934.08,829.02 2929.67,829.02 C2921.84,829.02 2917.93,824.836 2917.93,816.469 C2917.93,811.201 2920.95,805.352 2926.99,798.921 C2931.41,794.195 2933.62,789.508 2933.62,784.86 C2933.62,780.831 2931.45,778.817 2927.11,778.817 C2925.41,778.817 2919.75,780.831 2910.14,784.86 C2907.28,789.663 2904.87,794.079 2902.94,798.108 C2895.58,813.448 2890.7,821.118 2888.3,821.118"/>
<path class="Note" d="M2917.58,666.167 C2921.38,666.167 2923.27,669.072 2923.27,674.883 C2923.27,679.067 2921.3,683.87 2917.35,689.293 C2913.86,694.174 2912.12,701.728 2912.12,711.954 C2912.12,716.835 2913.4,720.089 2915.95,721.716 C2917.74,722.956 2921.07,723.614 2925.95,723.692 C2931.22,723.692 2938.69,721.019 2948.38,715.673 L2950.24,717.532 C2947.76,720.709 2944.77,723.575 2941.29,726.132 C2936.1,729.928 2930.79,731.826 2925.37,731.826 C2917.54,731.826 2911.61,730.703 2907.59,728.456 C2902.55,725.667 2900.03,722.181 2900.03,717.997 C2900.03,706.454 2901.5,694.406 2904.45,681.856 C2905.53,677.285 2907.9,673.101 2911.54,669.305 C2913.63,667.213 2915.64,666.167 2917.58,666.167"/>
<path class="Note" d="M3428.34,561.187 C3432.68,558.243 3435.82,555.803 3437.75,553.866 C3441.32,550.07 3443.1,546.583 3443.1,543.407 C3443.1,539.766 3441.08,537.945 3437.05,537.945 C3429.23,537.945 3420.86,544.84 3411.95,558.631 C3409.24,562.814 3403.28,576.45 3394.06,599.537 C3401.42,607.129 3405.1,611.429 3405.1,612.436 C3405.1,613.831 3404.21,614.528 3402.42,614.528 C3401.03,614.528 3397.19,612.165 3390.92,607.439 C3384.1,623.321 3373.76,636.879 3359.89,648.113 C3345.71,659.579 3328.78,665.312 3309.11,665.312 C3301.59,665.312 3292.18,663.569 3280.87,660.083 C3271.8,657.294 3267.27,652.839 3267.27,646.719 C3267.27,637.654 3270.76,633.122 3277.73,633.122 C3281.91,633.122 3284,635.059 3284,638.932 C3284,640.172 3283.04,641.489 3281.1,642.884 C3280.09,643.581 3279.59,644.937 3279.59,646.951 C3279.59,649.353 3282.26,651.832 3287.61,654.388 C3293.42,657.178 3301.94,658.572 3313.17,658.572 C3327.66,658.572 3341.65,652.297 3355.13,639.746 C3367.37,628.357 3376.16,615.109 3381.51,600.002 C3379.41,598.297 3377.17,596.438 3374.77,594.424 C3367.33,590.008 3363.61,585.475 3363.61,580.827 C3363.61,578.89 3364.89,577.922 3367.44,577.922 C3370.85,577.922 3375.46,580.827 3381.27,586.638 C3382.51,587.877 3383.68,589.039 3384.76,590.124 C3387.47,582.686 3391.81,573.235 3397.78,561.768 C3408.54,541.005 3421.64,530.624 3437.05,530.624 C3442.56,530.624 3446.89,531.67 3450.07,533.762 C3453.25,535.853 3454.83,538.72 3454.83,542.361 C3454.83,548.172 3452.7,553.091 3448.44,557.12 C3444.03,561.304 3439.42,563.395 3434.61,563.395 C3430.43,563.395 3428.34,562.659 3428.34,561.187"/>
<path class="Note" d="M3427.53,763.361 C3427.53,772.27 3417.38,791.832 3397.08,822.047 C3389.02,834.056 3377.44,842.849 3362.33,848.427 C3351.17,852.611 3338.28,854.703 3323.63,854.703 C3318.91,854.703 3314.72,853.734 3311.08,851.797 C3307.05,849.706 3305.04,847.42 3305.04,844.941 C3305.04,838.511 3308.49,835.295 3315.38,835.295 C3316.39,835.295 3316.89,835.915 3316.89,837.155 C3316.89,838.239 3316.39,839.44 3315.38,840.757 C3314.14,842.384 3313.52,843.585 3313.52,844.36 C3313.52,846.684 3317.01,847.846 3323.98,847.846 C3339.63,847.846 3351.99,845.948 3361.05,842.152 C3370.5,838.278 3379.92,828.4 3389.29,812.518 L3391.96,807.521 C3387.47,810.93 3383.02,812.634 3378.6,812.634 C3367.6,812.634 3362.1,808.179 3362.1,799.27 C3362.1,789.663 3368.57,779.553 3381.51,768.939 C3391.65,760.727 3400.68,756.621 3408.58,756.621 C3412.53,756.621 3415.83,757.666 3418.46,759.758 C3419.39,759.061 3420.55,758.712 3421.95,758.712 C3425.67,758.712 3427.53,760.262 3427.53,763.361 M3393.36,805.081 L3415.32,764.523 C3413.62,764.136 3411.72,763.942 3409.63,763.942 C3402.11,763.942 3394.83,768.319 3387.78,777.074 C3379.57,787.3 3375.46,795.474 3375.46,801.594 C3375.46,805.623 3378.14,807.637 3383.48,807.637 C3386.04,807.637 3389.33,806.785 3393.36,805.081"/>
<path class="Note" d="M3355.71,553.244 C3351.52,553.244 3349.43,551.346 3349.43,547.549 C3349.43,541.119 3350.4,536.393 3352.34,533.372 C3360.39,521.441 3377.9,499.128 3404.86,466.434 C3417.03,451.637 3432.72,444.238 3451.93,444.238 C3459.37,444.238 3464.52,445.284 3467.39,447.375 C3471.8,450.629 3474.01,454.542 3474.01,459.113 C3474.01,463.916 3470.14,469.262 3462.39,475.15 C3455.03,480.728 3448.06,483.517 3441.47,483.517 C3438.91,483.517 3437.64,483.246 3437.64,482.704 C3437.64,481.929 3438.88,481.115 3441.35,480.263 C3444.69,479.024 3448.25,476.506 3452.05,472.709 C3456.38,468.293 3458.55,464.304 3458.55,460.74 C3458.55,458.338 3456.89,456.053 3453.56,453.883 C3450.61,452.024 3445.85,451.094 3439.26,451.094 C3429.66,451.094 3417.53,460.778 3402.89,480.147 C3393.13,493.085 3385.22,504.474 3379.18,514.313 C3382.13,512.686 3385.65,510.71 3389.76,508.386 C3394.79,505.52 3399.13,504.086 3402.77,504.086 C3411.84,504.086 3416.37,507.34 3416.37,513.848 C3416.37,520.278 3412.65,527.329 3405.21,534.999 C3399.94,540.422 3397.31,544.45 3397.31,547.084 C3397.31,549.796 3399.94,551.152 3405.21,551.152 C3407.85,551.152 3410.56,550.222 3413.35,548.363 C3416.14,546.581 3418.19,545.69 3419.51,545.69 C3420.59,545.69 3421.13,546.387 3421.13,547.782 C3421.13,550.028 3418.96,552.391 3414.63,554.871 C3407.34,559.054 3401.49,561.146 3397.08,561.146 C3389.25,561.146 3385.34,556.962 3385.34,548.595 C3385.34,543.327 3388.36,537.478 3394.41,531.047 C3398.82,526.321 3401.03,521.634 3401.03,516.986 C3401.03,512.957 3398.86,510.943 3394.52,510.943 C3392.82,510.943 3387.16,512.957 3377.55,516.986 C3374.69,521.789 3372.29,526.205 3370.35,530.234 C3362.99,545.574 3358.11,553.244 3355.71,553.244"/>
<path class="Note" d="M3384.99,666.167 C3388.79,666.167 3390.69,669.072 3390.69,674.883 C3390.69,679.067 3388.71,683.87 3384.76,689.293 C3381.27,694.174 3379.53,701.728 3379.53,711.954 C3379.53,716.835 3380.81,720.089 3383.37,721.716 C3385.15,722.956 3388.48,723.614 3393.36,723.692 C3398.63,723.692 3406.1,721.019 3415.79,715.673 L3417.65,717.532 C3415.17,720.709 3412.19,723.575 3408.7,726.132 C3403.51,729.928 3398.2,731.826 3392.78,731.826 C3384.95,731.826 3379.03,730.703 3375,728.456 C3369.96,725.667 3367.44,722.181 3367.44,717.997 C3367.44,706.454 3368.92,694.406 3371.86,681.856 C3372.94,677.285 3375.31,673.101 3378.95,669.305 C3381.04,667.213 3383.06,666.167 3384.99,666.167"/>
<path class="Note" d="M3863.5,561.187 C3867.84,558.243 3870.98,555.803 3872.91,553.866 C3876.48,550.07 3878.26,546.583 3878.26,543.407 C3878.26,539.766 3876.24,537.945 3872.22,537.945 C3864.39,537.945 3856.02,544.84 3847.11,558.631 C3844.4,562.814 3838.44,576.45 3829.22,599.537 C3836.58,607.129 3840.26,611.429 3840.26,612.436 C3840.26,613.831 3839.37,614.528 3837.58,614.528 C3836.19,614.528 3832.36,612.165 3826.08,607.439 C3819.26,623.321 3808.92,636.879 3795.05,648.113 C3780.87,659.579 3763.95,665.312 3744.27,665.312 C3736.75,665.312 3727.34,663.569 3716.03,660.083 C3706.96,657.294 3702.43,652.839 3702.43,646.719 C3702.43,637.654 3705.92,633.122 3712.89,633.122 C3717.07,633.122 3719.17,635.059 3719.17,638.932 C3719.17,640.172 3718.2,641.489 3716.26,642.884 C3715.25,643.581 3714.75,644.937 3714.75,646.951 C3714.75,649.353 3717.42,651.832 3722.77,654.388 C3728.58,657.178 3737.1,658.572 3748.33,658.572 C3762.82,658.572 3776.81,652.297 3790.29,639.746 C3802.53,628.357 3811.32,615.109 3816.67,600.002 C3814.57,598.297 3812.33,596.438 3809.93,594.424 C3802.49,590.008 3798.77,585.475 3798.77,580.827 C3798.77,578.89 3800.05,577.922 3802.61,577.922 C3806.01,577.922 3810.62,580.827 3816.43,586.638 C3817.67,587.877 3818.84,589.039 3819.92,590.124 C3822.63,582.686 3826.97,573.235 3832.94,561.768 C3843.7,541.005 3856.8,530.624 3872.22,530.624 C3877.72,530.624 3882.05,531.67 3885.23,533.762 C3888.41,535.853 3890,538.72 3890,542.361 C3890,548.172 3887.87,553.091 3883.6,557.12 C3879.19,561.304 3874.58,563.395 3869.77,563.395 C3865.59,563.395 3863.5,562.659 3863.5,561.187"/>
<path class="Note" d="M3863.5,471.896 C3867.84,468.952 3870.98,466.512 3872.91,464.575 C3876.48,460.778 3878.26,457.292 3878.26,454.116 C3878.26,450.474 3876.24,448.654 3872.22,448.654 C3864.39,448.654 3856.02,455.549 3847.11,469.339 C3844.4,473.523 3838.44,487.158 3829.22,510.246 C3836.58,517.838 3840.26,522.138 3840.26,523.145 C3840.26,524.54 3839.37,525.237 3837.58,525.237 C3836.19,525.237 3832.36,522.874 3826.08,518.148 C3819.26,534.03 3808.92,547.588 3795.05,558.822 C3780.87,570.288 3763.95,576.021 3744.27,576.021 C3736.75,576.021 3727.34,574.278 3716.03,570.791 C3706.96,568.002 3702.43,563.548 3702.43,557.427 C3702.43,548.363 3705.92,543.831 3712.89,543.831 C3717.07,543.831 3719.17,545.767 3719.17,549.641 C3719.17,550.881 3718.2,552.198 3716.26,553.592 C3715.25,554.29 3714.75,555.645 3714.75,557.66 C3714.75,560.061 3717.42,562.541 3722.77,565.097 C3728.58,567.886 3737.1,569.281 3748.33,569.281 C3762.82,569.281 3776.81,563.005 3790.29,550.455 C3802.53,539.066 3811.32,525.818 3816.67,510.71 C3814.57,509.006 3812.33,507.147 3809.93,505.132 C3802.49,500.716 3798.77,496.184 3798.77,491.536 C3798.77,489.599 3800.05,488.63 3802.61,488.63 C3806.01,488.63 3810.62,491.536 3816.43,497.346 C3817.67,498.586 3818.84,499.748 3819.92,500.832 C3822.63,493.395 3826.97,483.943 3832.94,472.477 C3843.7,451.714 3856.8,441.332 3872.22,441.332 C3877.72,441.332 3882.05,442.378 3885.23,444.47 C3888.41,446.562 3890,449.429 3890,453.07 C3890,458.88 3887.87,463.8 3883.6,467.829 C3879.19,472.012 3874.58,474.104 3869.77,474.104 C3865.59,474.104 3863.5,473.368 3863.5,471.896"/>
<path class="Note" d="M3790.87,821.118 C3786.68,821.118 3784.59,819.22 3784.59,815.423 C3784.59,808.993 3785.56,804.267 3787.5,801.246 C3795.55,789.315 3813.06,767.002 3840.02,734.308 C3852.19,719.511 3867.88,712.112 3887.09,712.112 C3894.53,712.112 3899.68,713.158 3902.55,715.249 C3906.96,718.503 3909.17,722.416 3909.17,726.987 C3909.17,731.79 3905.3,737.136 3897.55,743.024 C3890.19,748.602 3883.22,751.391 3876.63,751.391 C3874.07,751.391 3872.8,751.12 3872.8,750.578 C3872.8,749.803 3874.04,748.989 3876.52,748.137 C3879.85,746.898 3883.41,744.38 3887.21,740.583 C3891.55,736.167 3893.71,732.178 3893.71,728.614 C3893.71,726.212 3892.05,723.927 3888.72,721.757 C3885.77,719.898 3881.01,718.968 3874.42,718.968 C3864.82,718.968 3852.69,728.652 3838.05,748.021 C3828.29,760.959 3820.39,772.348 3814.34,782.187 C3817.29,780.56 3820.81,778.584 3824.92,776.26 C3829.95,773.394 3834.29,771.96 3837.93,771.96 C3847,771.96 3851.53,775.214 3851.53,781.722 C3851.53,788.152 3847.81,795.203 3840.37,802.873 C3835.11,808.296 3832.47,812.324 3832.47,814.958 C3832.47,817.67 3835.11,819.026 3840.37,819.026 C3843.01,819.026 3845.72,818.096 3848.51,816.237 C3851.3,814.455 3853.35,813.564 3854.67,813.564 C3855.75,813.564 3856.29,814.261 3856.29,815.656 C3856.29,817.902 3854.13,820.265 3849.79,822.745 C3842.5,826.928 3836.65,829.02 3832.24,829.02 C3824.41,829.02 3820.5,824.836 3820.5,816.469 C3820.5,811.201 3823.52,805.352 3829.57,798.921 C3833.98,794.195 3836.19,789.508 3836.19,784.86 C3836.19,780.831 3834.02,778.817 3829.68,778.817 C3827.98,778.817 3822.32,780.831 3812.72,784.86 C3809.85,789.663 3807.45,794.079 3805.51,798.108 C3798.15,813.448 3793.27,821.118 3790.87,821.118"/>
<path class="Note" d="M3862.69,674.069 C3862.69,682.979 3852.54,702.541 3832.24,732.756 C3824.18,744.764 3812.6,753.558 3797.49,759.136 C3786.34,763.319 3773.44,765.411 3758.79,765.411 C3754.07,765.411 3749.88,764.443 3746.24,762.506 C3742.21,760.414 3740.2,758.129 3740.2,755.65 C3740.2,749.219 3743.65,746.004 3750.54,746.004 C3751.55,746.004 3752.05,746.624 3752.05,747.863 C3752.05,748.948 3751.55,750.149 3750.54,751.466 C3749.3,753.093 3748.68,754.294 3748.68,755.068 C3748.68,757.393 3752.17,758.555 3759.14,758.555 C3774.79,758.555 3787.15,756.657 3796.21,752.86 C3805.67,748.987 3815.08,739.109 3824.45,723.227 L3827.13,718.23 C3822.63,721.638 3818.18,723.343 3813.76,723.343 C3802.76,723.343 3797.26,718.888 3797.26,709.979 C3797.26,700.372 3803.73,690.262 3816.67,679.648 C3826.82,671.435 3835.84,667.329 3843.74,667.329 C3847.69,667.329 3850.99,668.375 3853.62,670.467 C3854.55,669.77 3855.71,669.421 3857.11,669.421 C3860.83,669.421 3862.69,670.971 3862.69,674.069 M3828.52,715.789 L3850.48,675.232 C3848.78,674.844 3846.88,674.651 3844.79,674.651 C3837.27,674.651 3829.99,679.028 3822.94,687.782 C3814.73,698.009 3810.62,706.182 3810.62,712.303 C3810.62,716.332 3813.3,718.346 3818.64,718.346 C3821.2,718.346 3824.49,717.494 3828.52,715.789"/>
<path class="Clef" transform="matrix(2.3811,0,0,2.3811,212.156,2076.38)" d="M25.4,-25.1 C17.8,-25.1 11.7,-20.7 11.6,-20.7 C5.8,-16.4 3.5,-11.3 2.6,-7.8 C2.1,-6 1.9,-4.2 1.9,-2.5 C1.9,-0.1 2.3,2.1 3.2,4 C4.4,6.7 6.7,8.6 9.7,9.6 C10.9,10 12.2,10.2 13.5,10.2 C15.7,10.2 18,9.6 19.9,8.5 C23,6.8 24.9,3.2 24.9,-0.7 C24.9,-4.2 23.1,-7.4 20.1,-9.3 C18,-10.7 16,-11.1 14.3,-11.1 C13.1,-11.1 12,-10.9 11.1,-10.6 C10.1,-10.2 8.4,-9.2 7.6,-8.5 C7.9,-10.4 9.1,-13.3 10.2,-14.9 C11.3,-16.5 13.5,-18.5 15.2,-19.4 C17.7,-20.8 20.9,-21.4 24.4,-21.4 C34.6,-21.4 39.6,-13.2 39.6,3.6 C39.6,12.9 36.1,21.8 33.1,27.7 C29.8,34.3 25.4,40.6 21.5,44.1 C11.1,53.6 1.3,58.1 1.2,58.1 C1.2,58.1 -0.3,59 0.1,60.5 C0.4,61.5 1.3,61.7 1.9,61.7 C2,61.7 2.3,61.6 2.4,61.6 C2.5,61.6 13.9,56.9 23,49.8 C28.1,46.1 32.7,42.1 36.7,37.8 C40.3,33.9 43.4,29.7 45.9,25.5 C50.3,18 52.8,10.2 52.8,3.5 C52.8,-4.8 50.6,-11.7 46.5,-16.6 C41.8,-22.2 34.7,-25.1 25.4,-25.1 M56.8,-12.4 C56.8,-9.6 59,-7.4 61.6,-7.4 C64.2,-7.4 66.4,-9.6 66.4,-12.4 C66.4,-15.2 64.2,-17.5 61.6,-17.5 C59,-17.5 56.8,-15.2 56.8,-12.4 M56.8,12.3 C56.8,15.1 59,17.4 61.6,17.4 C64.2,17.4 66.4,15.1 66.4,12.3 C66.4,9.5 64.2,7.2 61.6,7.2 C59,7.2 56.8,9.5 56.8,12.3"/>
<path class="Clef" transform="matrix(2.3811,0,0,2.3811,212.156,1570.39)" d="M63.37,-5.89004 C62.14,-11.32 59.5,-15.14 58.72,-16.1801 C55.5301,-20.45 51.52,-23.3 46.8301,-24.65 C43.72,-25.54 40.72,-25.65 38.3,-25.47 C37.2601,-31.4801 36.2601,-37.3601 35.35,-42.8101 C40.79,-48.97 44.42,-54.77 46.69,-59.07 C50.1601,-65.65 51.3101,-70.2301 51.3601,-70.4301 C53.0801,-75.64 53.44,-83.34 52.34,-91.55 C51.3301,-99.1 49.24,-105.81 46.89,-109.06 C45.8601,-110.49 44.8101,-111.22 43.77,-111.22 C42.55,-111.22 40.04,-109.98 37.15,-107.21 C34.85,-105.01 31.5801,-101.12 29.02,-95.1101 C26.02,-88.05 25.8101,-78.5601 26.1601,-71.84 C26.54,-64.57 27.65,-58.8801 27.6601,-58.8301 C27.6801,-58.74 27.94,-57.24 28.39,-54.67 C28.1601,-54.44 27.92,-54.22 27.67,-53.9801 C26.6301,-52.9801 25.44,-51.84 24.0601,-50.4601 C23.2,-49.6 22.25,-48.69 21.25,-47.72 C12.79,-39.57 0,-27.25 0,-8.1 C0,-3.4 0.9,1.01992 2.68008,5.02998 C4.27002,8.62998 6.57002,11.91 9.5,14.78 C17.2301,22.33 27.82,25.5399 34.8801,25.38 C37.8301,25.31 40.4601,25.0699 42.85,24.6199 C44.6801,34.2199 45.82,41.25 45.8601,46.5899 C45.9,53.1 44.25,57.0699 40.35,59.8399 C37.92,61.5699 35.1101,62.5199 32.0101,62.6699 C29.42,62.7899 27.1601,62.3199 25.7301,61.91 L25.72,61.91 C25.72,61.91 25.4301,61.83 25.42,61.63 C25.4101,61.45 25.7601,61.4 25.77,61.4 L25.79,61.4 C27.7101,60.96 31.2801,59.73 33.64,56.43 C35.44,53.91 36.3101,49.2899 34.47,45.35 C33.3601,42.96 30.85,40.01 25.2301,39.56 C22.74,39.36 20.47,39.8699 18.47,41.0699 C16.6601,42.15 15.1601,43.7899 14.1101,45.7899 C11.65,50.4899 12.1101,56.2199 15.24,60.06 C18.2,63.68 22.82,65.9899 28.25,66.5699 C29.1,66.66 29.95,66.7 30.8,66.7 C31.5101,66.7 32.22,66.6699 32.92,66.61 C31.72,66.9399 30.64,67.4899 29.77,68.25 C28.2801,69.5399 27.44,71.38 27.44,73.41 C27.44,75.28 28.0601,76.65 29.55,78.0399 C28.4101,78.5 27.55,78.98 26.79,79.56 C25.25,80.73 24.34,82.46 24.34,84.1899 C24.34,87.45 27.3,89.63 31.72,89.63 C37.1301,89.63 40.9101,86.63 40.9101,82.35 C40.9101,80.1199 39.9101,78.18 38.0801,76.83 C41.0101,75.6199 42.37,73.9399 42.37,71.56 C42.39,70.05 41.69,68.61 40.49,67.6899 C39.2801,66.7399 37.62,66.2399 35.69,66.2399 L35.5101,66.2399 C38.2801,65.7 40.92,64.7 43.2101,63.28 C46.87,60.71 48.99,56.73 49.67,51.1 C50.2301,46.46 49.84,40.55 48.44,32.48 C48.0801,30.3899 47.54,27.36 46.8801,23.6 C52.6301,21.68 56.79,18.11 60.5601,12.26 C63.85,6.51992 64.8,0.419922 63.37,-5.89004 M32.39,87.5399 C30.19,87.5399 28.7301,86.1199 28.7301,84.01 C28.7301,82.11 29.65,80.5 31.32,79.4699 C31.6801,79.66 31.77,79.71 32.1101,79.88 C33.3,80.48 33.3,80.48 33.55,80.63 L33.5601,80.6399 C35.47,81.73 36.25,82.76 36.25,84.18 C36.24,86.0899 34.59,87.5399 32.39,87.5399 M38.3101,71.63 C38.3101,73.2699 37.7301,74.3399 36.1801,75.53 C34.74,74.78 34.35,74.56 33.9801,74.3399 L33.8801,74.28 C32.3301,73.3399 31.85,72.66 31.85,71.4 C31.85,69.6 33.2301,68.3399 35.19,68.3399 C37.17,68.35 38.3101,69.55 38.3101,71.63 M33.15,-83.8101 C34.9301,-89.55 37.67,-92.8 39.6601,-94.5301 C41.4101,-96.05 43.0601,-96.7601 43.9801,-96.7601 C44.12,-96.7601 44.24,-96.74 44.34,-96.7101 C44.8,-96.57 45.3301,-96 45.8,-95.1301 C48.1101,-90.84 47.37,-84.1301 46.0301,-79.69 C44.4,-74.29 41.4801,-68.6801 32.69,-59.0601 C32.52,-60.17 32.3601,-61.22 32.2101,-62.2 C30.95,-70.49 31.27,-77.7601 33.15,-83.8101 M29.15,20.31 C24.5101,19.0899 20.0801,16.5899 16.32,13.0899 C15.0101,11.86 13.14,9.68994 11.67,6.3 C10.3101,3.13994 9.65,-0.290039 9.7,-3.88008 C9.77002,-8.57002 11.0801,-13.39 13.59,-18.1801 C16.5101,-23.7601 21.07,-29.29 27.1301,-34.62 C28.5801,-35.9 29.95,-37.1801 31.24,-38.4601 C32,-34.2 32.8301,-29.5101 33.7101,-24.6301 C29.8601,-23.3601 25.1101,-20.2101 22,-14.5601 C18.47,-7.99004 18.6101,-2.47002 19.34,1.00996 C20.2801,5.46992 22.8101,9.22998 26.27,11.3199 C27.2,11.88 31.3301,14.01 33.17,13.43 C33.54,13.31 33.8101,13.0899 33.95,12.76 C34.4601,11.5899 33.44,10.95 31.8801,9.98994 C31.2801,9.61992 30.6101,9.2 29.8801,8.66992 C26.5601,6.17998 25.1101,1.72998 26.1801,-2.65 C26.7601,-5.05 28.04,-7.21006 29.8801,-8.91006 C31.55,-10.4601 33.59,-11.5601 35.97,-12.2 C38.0101,-0.960059 40.07,10.1899 41.7101,18.55 C41.84,19.2399 41.9801,19.91 42.1101,20.58 C37.7101,21.51 33.37,21.4199 29.15,20.31 M54.9,10.1 C53.7301,13.28 51.27,17.35 46.14,19.41 C46.07,18.9899 45.99,18.56 45.9101,18.13 C44.3601,9.36992 42.4301,-1.61006 40.47,-12.87 C50.82,-13.35 55.09,-5.91006 55.9801,-1.08008 C56.45,1.45 56.45,5.88994 54.9,10.1"/>
<path class="KeySig" transform="matrix(2.3811,0,0,2.3811,429.785,2195.43)" d="M20.1,-7.9 C19.5,-11.8 17.1,-15.5 12,-15.5 C7,-15.5 4.1,-12.4 3.6,-11.8 L4,-43.9 C4,-44.7 3.4,-45.3 2.6,-45.3 L1.4,-45.3 C0.6,-45.3 0,-44.7 0,-43.9 L0.5,16.2 C0.5,17 1.1,17.6 1.9,17.6 C2.1,17.6 2.5,17.5 2.7,17.4 C3.1,17.2 9.6,14 15,7.9 C18.8,3.6 20.3,-1.3 20.3,-5.4 C20.3,-6.3 20.2,-7.1 20.1,-7.9 M13.2,-4 C13.2,-2.5 12.8,2.1 10.3,5.9 C8.6,8.5 5.2,11.2 3.3,12.7 L3.6,-6.8 C3.8,-7.7 5.3,-10.6 9.3,-10.6 C12.9,-10.6 13.2,-7.2 13.2,-5.1 L13.2,-4 "/>
<path class="KeySig" transform="matrix(2.3811,0,0,2.3811,429.785,1510.87)" d="M20.1,-7.9 C19.5,-11.8 17.1,-15.5 12,-15.5 C7,-15.5 4.1,-12.4 3.6,-11.8 L4,-43.9 C4,-44.7 3.4,-45.3 2.6,-45.3 L1.4,-45.3 C0.6,-45.3 0,-44.7 0,-43.9 L0.5,16.2 C0.5,17 1.1,17.6 1.9,17.6 C2.1,17.6 2.5,17.5 2.7,17.4 C3.1,17.2 9.6,14 15,7.9 C18.8,3.6 20.3,-1.3 20.3,-5.4 C20.3,-6.3 20.2,-7.1 20.1,-7.9 M13.2,-4 C13.2,-2.5 12.8,2.1 10.3,5.9 C8.6,8.5 5.2,11.2 3.3,12.7 L3.6,-6.8 C3.8,-7.7 5.3,-10.6 9.3,-10.6 C12.9,-10.6 13.2,-7.2 13.2,-5.1 L13.2,-4 "/>
<path class="FiguredBass" d="M1067.27,2444.42 C1066.59,2445.16 1065.7,2445.53 1064.58,2445.53 C1063.47,2445.53 1062.56,2445.15 1061.85,2444.37 C1061.14,2443.6 1060.78,2442.72 1060.78,2441.73 L1060.78,2428.46 L1047.51,2428.46 C1046.4,2428.46 1045.49,2428.08 1044.78,2427.3 C1044.07,2426.53 1043.71,2425.65 1043.71,2424.66 C1043.71,2423.67 1044.07,2422.79 1044.78,2422.01 C1045.49,2421.24 1046.4,2420.85 1047.51,2420.85 L1060.78,2420.85 L1060.78,2407.59 C1060.78,2406.6 1061.14,2405.72 1061.85,2404.94 C1062.56,2404.17 1063.47,2403.78 1064.58,2403.78 C1065.7,2403.78 1066.61,2404.17 1067.32,2404.94 C1068.03,2405.72 1068.39,2406.6 1068.39,2407.59 L1068.39,2420.85 L1081.65,2420.85 C1082.77,2420.85 1083.68,2421.24 1084.39,2422.01 C1085.1,2422.79 1085.46,2423.67 1085.46,2424.66 C1085.46,2425.65 1085.1,2426.53 1084.39,2427.3 C1083.68,2428.08 1082.77,2428.46 1081.65,2428.46 L1068.39,2428.46 L1068.39,2441.73 C1068.39,2442.72 1068.02,2443.62 1067.27,2444.42 M1120.7,2390.15 C1116.12,2390.15 1113.08,2391.99 1111.56,2395.67 C1110.05,2399.35 1109.29,2404.56 1109.29,2411.3 L1109.29,2422.25 C1112.5,2420.95 1115.29,2420.27 1117.64,2420.21 C1125.68,2420.21 1132,2421.98 1136.61,2425.54 C1141.22,2429.1 1143.52,2434.38 1143.52,2441.4 C1143.52,2448.42 1141.19,2453.73 1136.52,2457.31 C1131.85,2460.9 1125.55,2462.7 1117.64,2462.7 C1109.53,2462.7 1103.2,2458.94 1098.62,2451.42 C1094.04,2443.91 1091.75,2434.99 1091.75,2424.66 C1091.75,2414.39 1094.41,2405.49 1099.73,2397.94 C1105.05,2390.39 1112.04,2386.62 1120.7,2386.62 C1126.39,2386.62 1131.31,2388.06 1135.45,2390.94 C1139.59,2393.81 1141.67,2397.6 1141.67,2402.3 C1141.67,2405.02 1140.68,2407.37 1138.7,2409.35 C1136.72,2411.33 1134.35,2412.32 1131.6,2412.32 C1128.85,2412.32 1126.48,2411.33 1124.5,2409.35 C1122.52,2407.37 1121.53,2405.02 1121.53,2402.3 C1121.53,2399.64 1122.52,2397.29 1124.5,2395.25 C1125.18,2394.45 1126.14,2393.76 1127.38,2393.21 C1127.07,2392.4 1126.45,2391.79 1125.52,2391.35 C1124.16,2390.55 1122.55,2390.15 1120.7,2390.15 M1125.24,2428.09 C1124.13,2425.18 1121.69,2423.73 1117.92,2423.73 C1114.14,2423.73 1111.81,2425.18 1110.91,2428.09 C1110.01,2431 1109.57,2435.42 1109.57,2441.36 C1109.57,2448.35 1110.01,2453.05 1110.91,2455.46 C1111.81,2457.87 1114.14,2459.08 1117.92,2459.08 C1121.69,2459.08 1124.13,2457.62 1125.24,2454.72 C1126.36,2451.81 1126.91,2447.37 1126.91,2441.4 C1126.91,2435.44 1126.36,2431 1125.24,2428.09"/>
<path class="FiguredBass" d="M1519.9,2390.15 C1515.32,2390.15 1512.27,2391.99 1510.76,2395.67 C1509.24,2399.35 1508.48,2404.56 1508.48,2411.3 L1508.48,2422.25 C1511.7,2420.95 1514.48,2420.27 1516.83,2420.21 C1524.87,2420.21 1531.2,2421.98 1535.81,2425.54 C1540.41,2429.1 1542.72,2434.38 1542.72,2441.4 C1542.72,2448.42 1540.38,2453.73 1535.71,2457.31 C1531.04,2460.9 1524.75,2462.7 1516.83,2462.7 C1508.73,2462.7 1502.39,2458.94 1497.82,2451.42 C1493.24,2443.91 1490.95,2434.99 1490.95,2424.66 C1490.95,2414.39 1493.61,2405.49 1498.93,2397.94 C1504.25,2390.39 1511.24,2386.62 1519.9,2386.62 C1525.59,2386.62 1530.5,2388.06 1534.65,2390.94 C1538.79,2393.81 1540.86,2397.6 1540.86,2402.3 C1540.86,2405.02 1539.87,2407.37 1537.89,2409.35 C1535.91,2411.33 1533.55,2412.32 1530.8,2412.32 C1528.04,2412.32 1525.68,2411.33 1523.7,2409.35 C1521.72,2407.37 1520.73,2405.02 1520.73,2402.3 C1520.73,2399.64 1521.72,2397.29 1523.7,2395.25 C1524.38,2394.45 1525.34,2393.76 1526.58,2393.21 C1526.27,2392.4 1525.65,2391.79 1524.72,2391.35 C1523.36,2390.55 1521.75,2390.15 1519.9,2390.15 M1524.44,2428.09 C1523.33,2425.18 1520.89,2423.73 1517.11,2423.73 C1513.34,2423.73 1511,2425.18 1510.11,2428.09 C1509.21,2431 1508.76,2435.42 1508.76,2441.36 C1508.76,2448.35 1509.21,2453.05 1510.11,2455.46 C1511,2457.87 1513.34,2459.08 1517.11,2459.08 C1520.89,2459.08 1523.33,2457.62 1524.44,2454.72 C1525.55,2451.81 1526.11,2447.37 1526.11,2441.4 C1526.11,2435.44 1525.55,2431 1524.44,2428.09"/>
<path class="FiguredBass" d="M2025.98,2390.15 C2021.4,2390.15 2018.36,2391.99 2016.84,2395.67 C2015.33,2399.35 2014.57,2404.56 2014.57,2411.3 L2014.57,2422.25 C2017.79,2420.95 2020.57,2420.27 2022.92,2420.21 C2030.96,2420.21 2037.28,2421.98 2041.89,2425.54 C2046.5,2429.1 2048.8,2434.38 2048.8,2441.4 C2048.8,2448.42 2046.47,2453.73 2041.8,2457.31 C2037.13,2460.9 2030.84,2462.7 2022.92,2462.7 C2014.82,2462.7 2008.48,2458.94 2003.9,2451.42 C1999.32,2443.91 1997.04,2434.99 1997.04,2424.66 C1997.04,2414.39 1999.7,2405.49 2005.01,2397.94 C2010.33,2390.39 2017.32,2386.62 2025.98,2386.62 C2031.67,2386.62 2036.59,2388.06 2040.73,2390.94 C2044.88,2393.81 2046.95,2397.6 2046.95,2402.3 C2046.95,2405.02 2045.96,2407.37 2043.98,2409.35 C2042,2411.33 2039.63,2412.32 2036.88,2412.32 C2034.13,2412.32 2031.76,2411.33 2029.79,2409.35 C2027.81,2407.37 2026.82,2405.02 2026.82,2402.3 C2026.82,2399.64 2027.81,2397.29 2029.79,2395.25 C2030.47,2394.45 2031.42,2393.76 2032.66,2393.21 C2032.35,2392.4 2031.73,2391.79 2030.81,2391.35 C2029.45,2390.55 2027.84,2390.15 2025.98,2390.15 M2030.53,2428.09 C2029.41,2425.18 2026.97,2423.73 2023.2,2423.73 C2019.43,2423.73 2017.09,2425.18 2016.19,2428.09 C2015.3,2431 2014.85,2435.42 2014.85,2441.36 C2014.85,2448.35 2015.3,2453.05 2016.19,2455.46 C2017.09,2457.87 2019.43,2459.08 2023.2,2459.08 C2026.97,2459.08 2029.41,2457.62 2030.53,2454.72 C2031.64,2451.81 2032.2,2447.37 2032.2,2441.4 C2032.2,2435.44 2031.64,2431 2030.53,2428.09"/>
<path class="FiguredBass" d="M2003.34,2492.37 C2003.34,2492.37 2004.83,2492.59 2007.8,2493.02 C2009.1,2493.21 2010.55,2493.39 2012.16,2493.58 C2016.43,2494.07 2020.54,2494.32 2024.5,2494.32 C2028.46,2494.32 2032.63,2494.07 2037.02,2493.58 C2038.75,2493.39 2040.27,2493.21 2041.57,2493.02 L2046.11,2492.37 C2047.04,2492.37 2047.74,2492.68 2048.2,2493.3 C2048.66,2493.92 2048.62,2494.41 2048.06,2494.78 C2038.6,2504.25 2025.27,2508.98 2008.08,2508.98 C2007.4,2508.98 2006.79,2509.23 2006.27,2509.72 C2005.74,2510.21 2005.48,2510.83 2005.48,2511.58 L2005.48,2526.14 C2009.87,2521.81 2015.19,2519.65 2021.44,2519.65 C2030.47,2519.65 2037.44,2521.67 2042.36,2525.72 C2047.27,2529.77 2049.73,2535.91 2049.73,2544.14 C2049.73,2551.13 2046.95,2556.93 2041.38,2561.53 C2035.82,2566.14 2029.17,2568.45 2021.44,2568.45 C2014.76,2568.45 2008.96,2566.93 2004.04,2563.9 C1999.12,2560.87 1996.67,2556.66 1996.67,2551.28 C1996.67,2548.56 1997.65,2546.2 1999.63,2544.19 C2001.61,2542.18 2003.98,2541.17 2006.73,2541.17 C2009.48,2541.17 2011.82,2542.16 2013.74,2544.14 C2015.65,2546.12 2016.61,2548.5 2016.61,2551.28 C2016.61,2552.52 2015.59,2553.86 2013.55,2555.32 C2011.51,2556.77 2010.49,2558.12 2010.49,2559.35 C2010.49,2563.06 2014.14,2564.92 2021.44,2564.92 C2028.55,2564.92 2032.1,2557.99 2032.1,2544.14 C2032.1,2530.78 2028.55,2524.07 2021.44,2524.01 C2015.07,2524.01 2010.61,2525.31 2008.08,2527.9 C2005.54,2530.5 2003.96,2531.8 2003.34,2531.8 C2001.8,2531.8 2001.06,2531.03 2001.12,2529.48 L2001.12,2494.78 C2001.12,2494.1 2001.33,2493.53 2001.77,2493.07 C2002.2,2492.6 2002.73,2492.37 2003.34,2492.37"/>
<path class="FiguredBass" d="M2476.42,2453.05 L2476.42,2472.44 C2476.42,2474.35 2475.45,2475.31 2473.5,2475.31 C2471.55,2475.31 2470.58,2474.35 2470.58,2472.44 L2470.58,2455.55 L2467.61,2456.76 C2467.3,2456.88 2466.9,2456.94 2466.4,2456.94 C2465.6,2456.94 2464.89,2456.63 2464.27,2456.02 C2463.65,2455.4 2463.34,2454.69 2463.34,2453.88 L2463.34,2444.42 C2463.34,2443.06 2463.99,2442.1 2465.29,2441.54 L2470.58,2439.32 L2470.58,2419.83 L2467.61,2421.04 C2467.43,2421.1 2467.18,2421.13 2466.87,2421.13 C2466.75,2421.13 2466.59,2421.13 2466.4,2421.13 C2465.48,2421.01 2464.74,2420.67 2464.18,2420.11 C2463.62,2419.56 2463.34,2418.91 2463.34,2418.16 L2463.34,2408.7 C2463.34,2407.4 2463.99,2406.47 2465.29,2405.92 L2470.58,2403.69 L2470.58,2383.93 C2470.58,2382.01 2471.55,2381.05 2473.5,2381.05 C2475.45,2381.05 2476.42,2382.01 2476.42,2383.93 L2476.42,2401.28 L2488.39,2396.27 L2488.39,2376.88 C2488.39,2374.96 2489.35,2374 2491.27,2374 C2493.19,2374 2494.14,2374.96 2494.14,2376.88 L2494.14,2393.95 L2497.39,2392.56 C2497.7,2392.44 2498.04,2392.37 2498.41,2392.37 C2499.22,2392.37 2499.94,2392.68 2500.59,2393.3 C2501.24,2393.92 2501.57,2394.63 2501.57,2395.43 L2501.57,2404.9 C2501.57,2406.26 2500.89,2407.22 2499.53,2407.77 L2494.14,2410 L2494.14,2429.58 L2497.39,2428.28 C2497.58,2428.21 2497.79,2428.18 2498.04,2428.18 C2498.16,2428.18 2498.29,2428.18 2498.41,2428.18 C2499.46,2428.37 2500.25,2428.71 2500.78,2429.2 C2501.3,2429.7 2501.57,2430.35 2501.57,2431.15 L2501.57,2440.62 C2501.57,2441.91 2500.89,2442.84 2499.53,2443.4 L2494.14,2445.63 L2494.14,2465.39 C2494.14,2467.3 2493.19,2468.26 2491.27,2468.26 C2489.35,2468.26 2488.39,2467.3 2488.39,2465.39 L2488.39,2448.04 L2476.42,2453.05 M2476.42,2436.9 L2488.39,2431.99 L2488.39,2412.41 L2476.42,2417.42 L2476.42,2436.9 "/>
<path class="FiguredBass" d="M2914.42,2390.15 C2909.85,2390.15 2906.8,2391.99 2905.28,2395.67 C2903.77,2399.35 2903.01,2404.56 2903.01,2411.3 L2903.01,2422.25 C2906.23,2420.95 2909.01,2420.27 2911.36,2420.21 C2919.4,2420.21 2925.72,2421.98 2930.33,2425.54 C2934.94,2429.1 2937.24,2434.38 2937.24,2441.4 C2937.24,2448.42 2934.91,2453.73 2930.24,2457.31 C2925.57,2460.9 2919.28,2462.7 2911.36,2462.7 C2903.26,2462.7 2896.92,2458.94 2892.34,2451.42 C2887.76,2443.91 2885.48,2434.99 2885.48,2424.66 C2885.48,2414.39 2888.14,2405.49 2893.46,2397.94 C2898.77,2390.39 2905.76,2386.62 2914.42,2386.62 C2920.11,2386.62 2925.03,2388.06 2929.17,2390.94 C2933.32,2393.81 2935.39,2397.6 2935.39,2402.3 C2935.39,2405.02 2934.4,2407.37 2932.42,2409.35 C2930.44,2411.33 2928.07,2412.32 2925.32,2412.32 C2922.57,2412.32 2920.2,2411.33 2918.23,2409.35 C2916.25,2407.37 2915.26,2405.02 2915.26,2402.3 C2915.26,2399.64 2916.25,2397.29 2918.23,2395.25 C2918.91,2394.45 2919.86,2393.76 2921.1,2393.21 C2920.79,2392.4 2920.17,2391.79 2919.25,2391.35 C2917.89,2390.55 2916.28,2390.15 2914.42,2390.15 M2918.97,2428.09 C2917.85,2425.18 2915.41,2423.73 2911.64,2423.73 C2907.87,2423.73 2905.53,2425.18 2904.63,2428.09 C2903.74,2431 2903.29,2435.42 2903.29,2441.36 C2903.29,2448.35 2903.74,2453.05 2904.63,2455.46 C2905.53,2457.87 2907.87,2459.08 2911.64,2459.08 C2915.41,2459.08 2917.85,2457.62 2918.97,2454.72 C2920.08,2451.81 2920.64,2447.37 2920.64,2441.4 C2920.64,2435.44 2920.08,2431 2918.97,2428.09"/>
<path class="FiguredBass" d="M3381.83,2390.15 C3377.26,2390.15 3374.21,2391.99 3372.7,2395.67 C3371.18,2399.35 3370.42,2404.56 3370.42,2411.3 L3370.42,2422.25 C3373.64,2420.95 3376.42,2420.27 3378.77,2420.21 C3386.81,2420.21 3393.14,2421.98 3397.74,2425.54 C3402.35,2429.1 3404.66,2434.38 3404.66,2441.4 C3404.66,2448.42 3402.32,2453.73 3397.65,2457.31 C3392.98,2460.9 3386.69,2462.7 3378.77,2462.7 C3370.67,2462.7 3364.33,2458.94 3359.75,2451.42 C3355.18,2443.91 3352.89,2434.99 3352.89,2424.66 C3352.89,2414.39 3355.55,2405.49 3360.87,2397.94 C3366.19,2390.39 3373.17,2386.62 3381.83,2386.62 C3387.52,2386.62 3392.44,2388.06 3396.58,2390.94 C3400.73,2393.81 3402.8,2397.6 3402.8,2402.3 C3402.8,2405.02 3401.81,2407.37 3399.83,2409.35 C3397.85,2411.33 3395.49,2412.32 3392.73,2412.32 C3389.98,2412.32 3387.62,2411.33 3385.64,2409.35 C3383.66,2407.37 3382.67,2405.02 3382.67,2402.3 C3382.67,2399.64 3383.66,2397.29 3385.64,2395.25 C3386.32,2394.45 3387.28,2393.76 3388.51,2393.21 C3388.2,2392.4 3387.59,2391.79 3386.66,2391.35 C3385.3,2390.55 3383.69,2390.15 3381.83,2390.15 M3386.38,2428.09 C3385.27,2425.18 3382.82,2423.73 3379.05,2423.73 C3375.28,2423.73 3372.94,2425.18 3372.05,2428.09 C3371.15,2431 3370.7,2435.42 3370.7,2441.36 C3370.7,2448.35 3371.15,2453.05 3372.05,2455.46 C3372.94,2457.87 3375.28,2459.08 3379.05,2459.08 C3382.82,2459.08 3385.27,2457.62 3386.38,2454.72 C3387.49,2451.81 3388.05,2447.37 3388.05,2441.4 C3388.05,2435.44 3387.49,2431 3386.38,2428.09"/>
<path class="FiguredBass" d="M3359.2,2492.37 L3363.65,2493.02 C3364.83,2493.21 3366.28,2493.39 3368.01,2493.58 C3372.28,2494.07 3376.39,2494.32 3380.35,2494.32 C3384.31,2494.32 3388.48,2494.07 3392.87,2493.58 C3394.61,2493.39 3396.12,2493.21 3397.42,2493.02 L3401.97,2492.37 C3402.89,2492.37 3403.6,2492.68 3404.1,2493.3 C3404.47,2493.79 3404.41,2494.29 3403.91,2494.78 C3394.27,2504.25 3380.94,2508.98 3363.93,2508.98 C3363.25,2508.98 3362.64,2509.23 3362.12,2509.72 C3361.59,2510.21 3361.33,2510.83 3361.33,2511.58 L3361.33,2523.36 C3365.72,2519.03 3371.04,2516.86 3377.29,2516.86 C3386.01,2516.86 3392.81,2518.9 3397.7,2522.99 C3403.02,2518.97 3405.8,2513.83 3406.05,2507.59 C3406.11,2505.61 3406.76,2504 3408,2502.76 C3409.36,2501.52 3411,2500.91 3412.91,2500.91 C3414.83,2500.91 3416.45,2501.56 3417.78,2502.85 C3419.11,2504.15 3419.78,2505.73 3419.78,2507.59 C3419.78,2517.17 3414.12,2524.44 3402.8,2529.39 C3404.66,2533.04 3405.58,2537.49 3405.58,2542.75 C3405.58,2549.74 3402.8,2555.77 3397.23,2560.84 C3391.67,2565.91 3385.02,2568.45 3377.29,2568.45 C3370.61,2568.45 3364.81,2566.93 3359.89,2563.9 C3354.98,2560.87 3352.52,2556.66 3352.52,2551.28 C3352.52,2548.56 3353.51,2546.2 3355.49,2544.19 C3357.47,2542.18 3359.83,2541.17 3362.58,2541.17 C3365.34,2541.17 3367.67,2542.16 3369.59,2544.14 C3371.5,2546.12 3372.46,2548.5 3372.46,2551.28 C3372.46,2552.52 3371.44,2553.86 3369.4,2555.32 C3367.36,2556.77 3366.34,2558.12 3366.34,2559.35 C3366.34,2563.06 3369.99,2564.92 3377.29,2564.92 C3384.4,2564.92 3387.96,2557.53 3387.96,2542.75 C3387.96,2539.47 3387.77,2536.59 3387.4,2534.12 C3379.92,2535.67 3370.55,2536.87 3359.29,2537.74 C3357.74,2537.86 3356.97,2537.09 3356.97,2535.42 C3356.97,2534.06 3357.74,2533.32 3359.29,2533.19 C3370.67,2532.26 3379.64,2530.78 3386.19,2528.74 C3384.46,2523.79 3381.49,2521.29 3377.29,2521.22 C3370.92,2521.22 3366.46,2522.52 3363.93,2525.12 C3361.39,2527.72 3359.82,2529.02 3359.2,2529.02 C3357.71,2529.02 3356.97,2528.24 3356.97,2526.7 L3356.97,2494.78 C3356.97,2494.16 3357.19,2493.61 3357.62,2493.11 C3358.11,2492.62 3358.64,2492.37 3359.2,2492.37"/>
<path class="Bracket" transform="matrix(8.6315,0,0,8.6315,76.1283,2254.96)" d="M0.92002,-50 C2.69004,-51.88 6.2,-55.8 6.2,-63 C6.2,-72.1 2.25996,-81.32 2.25996,-86.97 C2.25996,-93.06 5.84004,-98.84 5.95,-99 C6.05996,-99.16 6.05,-99.39 5.94004,-99.46 C5.82998,-99.53 5.62002,-99.47 5.49004,-99.32 C5.35996,-99.17 0,-93.75 0,-85.6 C0,-76.75 3.5,-70.58 3.5,-59.07 C3.5,-56.89 2.55996,-53.36 0.1,-50.33 C-0.0799805,-50.17 -0.1,-49.89 0.0599609,-49.7 L0.0700195,-49.69 L0.1,-49.66 C2.55996,-46.63 3.5,-43.1 3.5,-40.92 C3.5,-29.4 0,-23.24 0,-14.39 C0,-6.25 5.35996,-0.8 5.49004,-0.659961 C5.62002,-0.52002 5.8,-0.42998 5.94004,-0.52002 C6.07998,-0.609961 6.07998,-0.77998 5.95,-0.97998 C5.82002,-1.17998 2.25996,-6.92002 2.25996,-13.01 C2.25996,-18.66 6.2,-27.9 6.2,-37 C6.2,-44.3 2.69004,-48.12 0.92002,-50"/>
</svg>
