<?xml version="1.0" encoding="UTF-8" standalone="no"?>
<svg width="4209.44px" height="2976.38px" viewBox="0 0 4209.44 2976.38"
 xmlns="http://www.w3.org/2000/svg" xmlns:xlink="http://www.w3.org/1999/xlink" version="1.2" baseProfile="tiny">
<title>ReMineur (10)</title>
<desc>Generated by MuseScore 3.6.2</desc>
<polyline class="StaffLines" fill="none" stroke="#000000" stroke-width="6.55" stroke-linejoin="bevel" points="153.819,596.523 4138.58,596.523"/>
<polyline class="StaffLines" fill="none" stroke="#000000" stroke-width="6.55" stroke-linejoin="bevel" points="153.819,685.814 4138.58,685.814"/>
<polyline class="StaffLines" fill="none" stroke="#000000" stroke-width="6.55" stroke-linejoin="bevel" points="153.819,775.106 4138.58,775.106"/>
<polyline class="StaffLines" fill="none" stroke="#000000" stroke-width="6.55" stroke-linejoin="bevel" points="153.819,864.397 4138.58,864.397"/>
<polyline class="StaffLines" fill="none" stroke="#000000" stroke-width="6.55" stroke-linejoin="bevel" points="153.819,953.688 4138.58,953.688"/>
<polyline class="StaffLines" fill="none" stroke="#000000" stroke-width="6.55" stroke-linejoin="bevel" points="153.819,1042.98 4138.58,1042.98"/>
<polyline class="StaffLines" fill="none" stroke="#000000" stroke-width="6.55" stroke-linejoin="bevel" points="153.819,1429.91 4138.58,1429.91"/>
<polyline class="StaffLines" fill="none" stroke="#000000" stroke-width="6.55" stroke-linejoin="bevel" points="153.819,1489.44 4138.58,1489.44"/>
<polyline class="StaffLines" fill="none" stroke="#000000" stroke-width="6.55" stroke-linejoin="bevel" points="153.819,1548.96 4138.58,1548.96"/>
<polyline class="StaffLines" fill="none" stroke="#000000" stroke-width="6.55" stroke-linejoin="bevel" points="153.819,1608.49 4138.58,1608.49"/>
<polyline class="StaffLines" fill="none" stroke="#000000" stroke-width="6.55" stroke-linejoin="bevel" points="153.819,1668.02 4138.58,1668.02"/>
<polyline class="StaffLines" fill="none" stroke="#000000" stroke-width="6.55" stroke-linejoin="bevel" points="153.819,2120.23 4138.58,2120.23"/>
<polyline class="StaffLines" fill="none" stroke="#000000" stroke-width="6.55" stroke-linejoin="bevel" points="153.819,2179.76 4138.58,2179.76"/>
<polyline class="StaffLines" fill="none" stroke="#000000" stroke-width="6.55" stroke-linejoin="bevel" points="153.819,2239.29 4138.58,2239.29"/>
<polyline class="StaffLines" fill="none" stroke="#000000" stroke-width="6.55" stroke-linejoin="bevel" points="153.819,2298.82 4138.58,2298.82"/>
<polyline class="StaffLines" fill="none" stroke="#000000" stroke-width="6.55" stroke-linejoin="bevel" points="153.819,2358.34 4138.58,2358.34"/>
<polyline class="BarLine" fill="none" stroke="#000000" stroke-width="10.71" stroke-linejoin="bevel" points="159.176,2116.96 159.176,2361.62"/>
<polyline class="BarLine" fill="none" stroke="#000000" stroke-width="10.71" stroke-linejoin="bevel" points="1408.31,2116.96 1408.31,2361.62"/>
<polyline class="BarLine" fill="none" stroke="#000000" stroke-width="10.71" stroke-linejoin="bevel" points="2272.42,2116.96 2272.42,2361.62"/>
<polyline class="BarLine" fill="none" stroke="#000000" stroke-width="10.71" stroke-linejoin="bevel" points="2305.16,2116.96 2305.16,2361.62"/>
<polyline class="BarLine" fill="none" stroke="#000000" stroke-width="10.71" stroke-linejoin="bevel" points="3201.55,2116.96 3201.55,2361.62"/>
<polyline class="BarLine" fill="none" stroke="#000000" stroke-width="10.71" stroke-linejoin="bevel" points="4080.54,2116.96 4080.54,2361.62"/>
<polyline class="BarLine" fill="none" stroke="#000000" stroke-width="32.74" stroke-linejoin="bevel" points="4122.21,2116.96 4122.21,2361.62"/>
<polyline class="BarLine" fill="none" stroke="#000000" stroke-width="10.71" stroke-linejoin="bevel" points="159.176,1426.63 159.176,2120.23"/>
<polyline class="BarLine" fill="none" stroke="#000000" stroke-width="10.71" stroke-linejoin="bevel" points="1408.31,1426.63 1408.31,1671.29"/>
<polyline class="BarLine" fill="none" stroke="#000000" stroke-width="10.71" stroke-linejoin="bevel" points="2272.42,1426.63 2272.42,1671.29"/>
<polyline class="BarLine" fill="none" stroke="#000000" stroke-width="10.71" stroke-linejoin="bevel" points="2305.16,1426.63 2305.16,1671.29"/>
<polyline class="BarLine" fill="none" stroke="#000000" stroke-width="10.71" stroke-linejoin="bevel" points="3201.55,1426.63 3201.55,1671.29"/>
<polyline class="BarLine" fill="none" stroke="#000000" stroke-width="10.71" stroke-linejoin="bevel" points="4080.54,1426.63 4080.54,1671.29"/>
<polyline class="BarLine" fill="none" stroke="#000000" stroke-width="32.74" stroke-linejoin="bevel" points="4122.21,1426.63 4122.21,1671.29"/>
<polyline class="BarLine" fill="none" stroke="#000000" stroke-width="10.71" stroke-linejoin="bevel" points="159.176,593.249 159.176,1429.91"/>
<polyline class="BarLine" fill="none" stroke="#000000" stroke-width="10.71" stroke-linejoin="bevel" points="1408.31,593.249 1408.31,1046.25"/>
<polyline class="BarLine" fill="none" stroke="#000000" stroke-width="10.71" stroke-linejoin="bevel" points="2272.42,593.249 2272.42,1046.25"/>
<polyline class="BarLine" fill="none" stroke="#000000" stroke-width="10.71" stroke-linejoin="bevel" points="2305.16,593.249 2305.16,1046.25"/>
<polyline class="BarLine" fill="none" stroke="#000000" stroke-width="10.71" stroke-linejoin="bevel" points="3201.55,593.249 3201.55,1046.25"/>
<polyline class="BarLine" fill="none" stroke="#000000" stroke-width="10.71" stroke-linejoin="bevel" points="4080.54,593.249 4080.54,1046.25"/>
<polyline class="BarLine" fill="none" stroke="#000000" stroke-width="32.74" stroke-linejoin="bevel" points="4122.21,593.249 4122.21,1046.25"/>
<path class="Accidental" transform="matrix(2.3811,0,0,2.3811,3264.42,2090.47)" d="M16.6,-18.3 C16.4,-18.5 16.1,-18.6 15.8,-18.6 C15.7,-18.6 15.5,-18.5 15.4,-18.5 L2.8,-15 L2.8,-32.5 L0,-32.5 L0,17 C0,17.8 0.6,18.3 1.4,18.3 L1.8,18.3 L14.4,14.8 L14.4,32.3 L17.1,32.3 L17.1,-17.2 C17.1,-17.6 16.9,-18.1 16.6,-18.3 M14.4,6.5 L2.8,9.7 L2.8,-6.7 L14.4,-10 L14.4,6.5 "/>
<path class="Accidental" transform="matrix(2.3811,0,0,2.3811,2368.03,1519.2)" d="M23.3,-10.6 C23.9,-10.7 24.4,-11.4 24.4,-12 L24.4,-17.9 C24.4,-18.7 23.8,-19.3 23,-19.3 L22.8,-19.3 L19.5,-18.6 L19.5,-33.5 L16.7,-33.5 L16.7,-18 L7.8,-16.2 L7.8,-30.3 L5,-30.3 L5,-15.6 L1.1,-14.8 C0.5,-14.7 0,-14 0,-13.4 L0,-13.2 L0,-7.4 L0,-7.6 C0,-6.8 0.6,-6.2 1.4,-6.2 L1.7,-6.2 L5,-6.9 L5,9.6 L1.1,10.4 C0.5,10.5 0,11.2 0,11.8 L0,17.6 C0,18.4 0.6,19 1.4,19 L1.7,19 L5,18.3 L5,33.2 L7.8,33.2 L7.8,17.7 L16.7,15.9 L16.7,30 L19.5,30 L19.5,15.3 L23.3,14.6 C23.9,14.5 24.4,13.8 24.4,13.2 L24.4,7.3 C24.4,6.5 23.8,5.9 23,5.9 L22.8,5.9 L19.5,6.6 L19.5,-9.9 L23.3,-10.6 M7.8,9.1 L7.8,-7.5 L16.7,-9.3 L16.7,7.2 L7.8,9.1 "/>
<polyline class="LedgerLine" fill="none" stroke="#000000" stroke-width="9.52" stroke-linejoin="bevel" points="626.933,2060.71 757.41,2060.71"/>
<polyline class="LedgerLine" fill="none" stroke="#000000" stroke-width="9.52" stroke-linejoin="bevel" points="1491.05,2060.71 1621.53,2060.71"/>
<polyline class="LedgerLine" fill="none" stroke="#000000" stroke-width="9.52" stroke-linejoin="bevel" points="626.933,1370.38 757.41,1370.38"/>
<polyline class="LedgerLine" fill="none" stroke="#000000" stroke-width="9.52" stroke-linejoin="bevel" points="1491.05,1370.38 1621.53,1370.38"/>
<polyline class="LedgerLine" fill="none" stroke="#000000" stroke-width="9.52" stroke-linejoin="bevel" points="2420.17,1370.38 2550.65,1370.38"/>
<path class="Note" transform="matrix(2.3811,0,0,2.3811,647.767,2030.94)" d="M18.7,-13.6 C4.9,-13.6 0,-6.6 0,-0.1 C0,6.4 4.9,13.4 18.7,13.4 C32.5,13.4 37.3,6.4 37.3,-0.1 C37.3,-6.6 32.5,-13.6 18.7,-13.6 M10.4,-4.5 C10.3,-4.9 10.3,-5.3 10.3,-5.7 C10.3,-6.5 10.5,-7.3 10.9,-8 C11.6,-9 12.8,-9.7 14.3,-10 C15.6,-10.3 16.3,-10.5 18.9,-10.5 L19,-10.5 C23,-10.5 24.3,-6.8 25.4,-3 L25.7,-2 C26.5,0.6 26.9,2.8 26.9,4.5 C26.9,5.7 26.7,6.8 26.3,7.6 C25.7,8.7 24.7,9.4 23,9.8 C22.1,10 20.6,10.1 20.6,10.1 C20.1,10.1 19.7,10.2 19.3,10.2 C16.1,10.2 14.1,9 12.7,4.7 C11.5,1 11.3,-0.1 10.4,-4.5"/>
<path class="Note" transform="matrix(2.3811,0,0,2.3811,1511.88,2060.71)" d="M18.7,-13.6 C4.9,-13.6 0,-6.6 0,-0.1 C0,6.4 4.9,13.4 18.7,13.4 C32.5,13.4 37.3,6.4 37.3,-0.1 C37.3,-6.6 32.5,-13.6 18.7,-13.6 M10.4,-4.5 C10.3,-4.9 10.3,-5.3 10.3,-5.7 C10.3,-6.5 10.5,-7.3 10.9,-8 C11.6,-9 12.8,-9.7 14.3,-10 C15.6,-10.3 16.3,-10.5 18.9,-10.5 L19,-10.5 C23,-10.5 24.3,-6.8 25.4,-3 L25.7,-2 C26.5,0.6 26.9,2.8 26.9,4.5 C26.9,5.7 26.7,6.8 26.3,7.6 C25.7,8.7 24.7,9.4 23,9.8 C22.1,10 20.6,10.1 20.6,10.1 C20.1,10.1 19.7,10.2 19.3,10.2 C16.1,10.2 14.1,9 12.7,4.7 C11.5,1 11.3,-0.1 10.4,-4.5"/>
<path class="Note" transform="matrix(2.3811,0,0,2.3811,2441.01,2120.23)" d="M18.7,-13.6 C4.9,-13.6 0,-6.6 0,-0.1 C0,6.4 4.9,13.4 18.7,13.4 C32.5,13.4 37.3,6.4 37.3,-0.1 C37.3,-6.6 32.5,-13.6 18.7,-13.6 M10.4,-4.5 C10.3,-4.9 10.3,-5.3 10.3,-5.7 C10.3,-6.5 10.5,-7.3 10.9,-8 C11.6,-9 12.8,-9.7 14.3,-10 C15.6,-10.3 16.3,-10.5 18.9,-10.5 L19,-10.5 C23,-10.5 24.3,-6.8 25.4,-3 L25.7,-2 C26.5,0.6 26.9,2.8 26.9,4.5 C26.9,5.7 26.7,6.8 26.3,7.6 C25.7,8.7 24.7,9.4 23,9.8 C22.1,10 20.6,10.1 20.6,10.1 C20.1,10.1 19.7,10.2 19.3,10.2 C16.1,10.2 14.1,9 12.7,4.7 C11.5,1 11.3,-0.1 10.4,-4.5"/>
<path class="Note" transform="matrix(2.3811,0,0,2.3811,3320,2090.47)" d="M18.7,-13.6 C4.9,-13.6 0,-6.6 0,-0.1 C0,6.4 4.9,13.4 18.7,13.4 C32.5,13.4 37.3,6.4 37.3,-0.1 C37.3,-6.6 32.5,-13.6 18.7,-13.6 M10.4,-4.5 C10.3,-4.9 10.3,-5.3 10.3,-5.7 C10.3,-6.5 10.5,-7.3 10.9,-8 C11.6,-9 12.8,-9.7 14.3,-10 C15.6,-10.3 16.3,-10.5 18.9,-10.5 L19,-10.5 C23,-10.5 24.3,-6.8 25.4,-3 L25.7,-2 C26.5,0.6 26.9,2.8 26.9,4.5 C26.9,5.7 26.7,6.8 26.3,7.6 C25.7,8.7 24.7,9.4 23,9.8 C22.1,10 20.6,10.1 20.6,10.1 C20.1,10.1 19.7,10.2 19.3,10.2 C16.1,10.2 14.1,9 12.7,4.7 C11.5,1 11.3,-0.1 10.4,-4.5"/>
<path class="Note" transform="matrix(2.3811,0,0,2.3811,647.767,1489.44)" d="M18.7,-13.6 C4.9,-13.6 0,-6.6 0,-0.1 C0,6.4 4.9,13.4 18.7,13.4 C32.5,13.4 37.3,6.4 37.3,-0.1 C37.3,-6.6 32.5,-13.6 18.7,-13.6 M10.4,-4.5 C10.3,-4.9 10.3,-5.3 10.3,-5.7 C10.3,-6.5 10.5,-7.3 10.9,-8 C11.6,-9 12.8,-9.7 14.3,-10 C15.6,-10.3 16.3,-10.5 18.9,-10.5 L19,-10.5 C23,-10.5 24.3,-6.8 25.4,-3 L25.7,-2 C26.5,0.6 26.9,2.8 26.9,4.5 C26.9,5.7 26.7,6.8 26.3,7.6 C25.7,8.7 24.7,9.4 23,9.8 C22.1,10 20.6,10.1 20.6,10.1 C20.1,10.1 19.7,10.2 19.3,10.2 C16.1,10.2 14.1,9 12.7,4.7 C11.5,1 11.3,-0.1 10.4,-4.5"/>
<path class="Note" transform="matrix(2.3811,0,0,2.3811,647.767,1429.91)" d="M18.7,-13.6 C4.9,-13.6 0,-6.6 0,-0.1 C0,6.4 4.9,13.4 18.7,13.4 C32.5,13.4 37.3,6.4 37.3,-0.1 C37.3,-6.6 32.5,-13.6 18.7,-13.6 M10.4,-4.5 C10.3,-4.9 10.3,-5.3 10.3,-5.7 C10.3,-6.5 10.5,-7.3 10.9,-8 C11.6,-9 12.8,-9.7 14.3,-10 C15.6,-10.3 16.3,-10.5 18.9,-10.5 L19,-10.5 C23,-10.5 24.3,-6.8 25.4,-3 L25.7,-2 C26.5,0.6 26.9,2.8 26.9,4.5 C26.9,5.7 26.7,6.8 26.3,7.6 C25.7,8.7 24.7,9.4 23,9.8 C22.1,10 20.6,10.1 20.6,10.1 C20.1,10.1 19.7,10.2 19.3,10.2 C16.1,10.2 14.1,9 12.7,4.7 C11.5,1 11.3,-0.1 10.4,-4.5"/>
<path class="Note" transform="matrix(2.3811,0,0,2.3811,647.767,1370.38)" d="M18.7,-13.6 C4.9,-13.6 0,-6.6 0,-0.1 C0,6.4 4.9,13.4 18.7,13.4 C32.5,13.4 37.3,6.4 37.3,-0.1 C37.3,-6.6 32.5,-13.6 18.7,-13.6 M10.4,-4.5 C10.3,-4.9 10.3,-5.3 10.3,-5.7 C10.3,-6.5 10.5,-7.3 10.9,-8 C11.6,-9 12.8,-9.7 14.3,-10 C15.6,-10.3 16.3,-10.5 18.9,-10.5 L19,-10.5 C23,-10.5 24.3,-6.8 25.4,-3 L25.7,-2 C26.5,0.6 26.9,2.8 26.9,4.5 C26.9,5.7 26.7,6.8 26.3,7.6 C25.7,8.7 24.7,9.4 23,9.8 C22.1,10 20.6,10.1 20.6,10.1 C20.1,10.1 19.7,10.2 19.3,10.2 C16.1,10.2 14.1,9 12.7,4.7 C11.5,1 11.3,-0.1 10.4,-4.5"/>
<path class="Note" transform="matrix(2.3811,0,0,2.3811,1511.88,1459.67)" d="M18.7,-13.6 C4.9,-13.6 0,-6.6 0,-0.1 C0,6.4 4.9,13.4 18.7,13.4 C32.5,13.4 37.3,6.4 37.3,-0.1 C37.3,-6.6 32.5,-13.6 18.7,-13.6 M10.4,-4.5 C10.3,-4.9 10.3,-5.3 10.3,-5.7 C10.3,-6.5 10.5,-7.3 10.9,-8 C11.6,-9 12.8,-9.7 14.3,-10 C15.6,-10.3 16.3,-10.5 18.9,-10.5 L19,-10.5 C23,-10.5 24.3,-6.8 25.4,-3 L25.7,-2 C26.5,0.6 26.9,2.8 26.9,4.5 C26.9,5.7 26.7,6.8 26.3,7.6 C25.7,8.7 24.7,9.4 23,9.8 C22.1,10 20.6,10.1 20.6,10.1 C20.1,10.1 19.7,10.2 19.3,10.2 C16.1,10.2 14.1,9 12.7,4.7 C11.5,1 11.3,-0.1 10.4,-4.5"/>
<path class="Note" transform="matrix(2.3811,0,0,2.3811,1511.88,1370.38)" d="M18.7,-13.6 C4.9,-13.6 0,-6.6 0,-0.1 C0,6.4 4.9,13.4 18.7,13.4 C32.5,13.4 37.3,6.4 37.3,-0.1 C37.3,-6.6 32.5,-13.6 18.7,-13.6 M10.4,-4.5 C10.3,-4.9 10.3,-5.3 10.3,-5.7 C10.3,-6.5 10.5,-7.3 10.9,-8 C11.6,-9 12.8,-9.7 14.3,-10 C15.6,-10.3 16.3,-10.5 18.9,-10.5 L19,-10.5 C23,-10.5 24.3,-6.8 25.4,-3 L25.7,-2 C26.5,0.6 26.9,2.8 26.9,4.5 C26.9,5.7 26.7,6.8 26.3,7.6 C25.7,8.7 24.7,9.4 23,9.8 C22.1,10 20.6,10.1 20.6,10.1 C20.1,10.1 19.7,10.2 19.3,10.2 C16.1,10.2 14.1,9 12.7,4.7 C11.5,1 11.3,-0.1 10.4,-4.5"/>
<path class="Note" transform="matrix(2.3811,0,0,2.3811,2441.01,1519.2)" d="M18.7,-13.6 C4.9,-13.6 0,-6.6 0,-0.1 C0,6.4 4.9,13.4 18.7,13.4 C32.5,13.4 37.3,6.4 37.3,-0.1 C37.3,-6.6 32.5,-13.6 18.7,-13.6 M10.4,-4.5 C10.3,-4.9 10.3,-5.3 10.3,-5.7 C10.3,-6.5 10.5,-7.3 10.9,-8 C11.6,-9 12.8,-9.7 14.3,-10 C15.6,-10.3 16.3,-10.5 18.9,-10.5 L19,-10.5 C23,-10.5 24.3,-6.8 25.4,-3 L25.7,-2 C26.5,0.6 26.9,2.8 26.9,4.5 C26.9,5.7 26.7,6.8 26.3,7.6 C25.7,8.7 24.7,9.4 23,9.8 C22.1,10 20.6,10.1 20.6,10.1 C20.1,10.1 19.7,10.2 19.3,10.2 C16.1,10.2 14.1,9 12.7,4.7 C11.5,1 11.3,-0.1 10.4,-4.5"/>
<path class="Note" transform="matrix(2.3811,0,0,2.3811,2441.01,1459.67)" d="M18.7,-13.6 C4.9,-13.6 0,-6.6 0,-0.1 C0,6.4 4.9,13.4 18.7,13.4 C32.5,13.4 37.3,6.4 37.3,-0.1 C37.3,-6.6 32.5,-13.6 18.7,-13.6 M10.4,-4.5 C10.3,-4.9 10.3,-5.3 10.3,-5.7 C10.3,-6.5 10.5,-7.3 10.9,-8 C11.6,-9 12.8,-9.7 14.3,-10 C15.6,-10.3 16.3,-10.5 18.9,-10.5 L19,-10.5 C23,-10.5 24.3,-6.8 25.4,-3 L25.7,-2 C26.5,0.6 26.9,2.8 26.9,4.5 C26.9,5.7 26.7,6.8 26.3,7.6 C25.7,8.7 24.7,9.4 23,9.8 C22.1,10 20.6,10.1 20.6,10.1 C20.1,10.1 19.7,10.2 19.3,10.2 C16.1,10.2 14.1,9 12.7,4.7 C11.5,1 11.3,-0.1 10.4,-4.5"/>
<path class="Note" transform="matrix(2.3811,0,0,2.3811,2441.01,1370.38)" d="M18.7,-13.6 C4.9,-13.6 0,-6.6 0,-0.1 C0,6.4 4.9,13.4 18.7,13.4 C32.5,13.4 37.3,6.4 37.3,-0.1 C37.3,-6.6 32.5,-13.6 18.7,-13.6 M10.4,-4.5 C10.3,-4.9 10.3,-5.3 10.3,-5.7 C10.3,-6.5 10.5,-7.3 10.9,-8 C11.6,-9 12.8,-9.7 14.3,-10 C15.6,-10.3 16.3,-10.5 18.9,-10.5 L19,-10.5 C23,-10.5 24.3,-6.8 25.4,-3 L25.7,-2 C26.5,0.6 26.9,2.8 26.9,4.5 C26.9,5.7 26.7,6.8 26.3,7.6 C25.7,8.7 24.7,9.4 23,9.8 C22.1,10 20.6,10.1 20.6,10.1 C20.1,10.1 19.7,10.2 19.3,10.2 C16.1,10.2 14.1,9 12.7,4.7 C11.5,1 11.3,-0.1 10.4,-4.5"/>
<path class="Note" transform="matrix(2.3811,0,0,2.3811,3320,1489.44)" d="M18.7,-13.6 C4.9,-13.6 0,-6.6 0,-0.1 C0,6.4 4.9,13.4 18.7,13.4 C32.5,13.4 37.3,6.4 37.3,-0.1 C37.3,-6.6 32.5,-13.6 18.7,-13.6 M10.4,-4.5 C10.3,-4.9 10.3,-5.3 10.3,-5.7 C10.3,-6.5 10.5,-7.3 10.9,-8 C11.6,-9 12.8,-9.7 14.3,-10 C15.6,-10.3 16.3,-10.5 18.9,-10.5 L19,-10.5 C23,-10.5 24.3,-6.8 25.4,-3 L25.7,-2 C26.5,0.6 26.9,2.8 26.9,4.5 C26.9,5.7 26.7,6.8 26.3,7.6 C25.7,8.7 24.7,9.4 23,9.8 C22.1,10 20.6,10.1 20.6,10.1 C20.1,10.1 19.7,10.2 19.3,10.2 C16.1,10.2 14.1,9 12.7,4.7 C11.5,1 11.3,-0.1 10.4,-4.5"/>
<path class="Note" transform="matrix(2.3811,0,0,2.3811,3320,1400.14)" d="M18.7,-13.6 C4.9,-13.6 0,-6.6 0,-0.1 C0,6.4 4.9,13.4 18.7,13.4 C32.5,13.4 37.3,6.4 37.3,-0.1 C37.3,-6.6 32.5,-13.6 18.7,-13.6 M10.4,-4.5 C10.3,-4.9 10.3,-5.3 10.3,-5.7 C10.3,-6.5 10.5,-7.3 10.9,-8 C11.6,-9 12.8,-9.7 14.3,-10 C15.6,-10.3 16.3,-10.5 18.9,-10.5 L19,-10.5 C23,-10.5 24.3,-6.8 25.4,-3 L25.7,-2 C26.5,0.6 26.9,2.8 26.9,4.5 C26.9,5.7 26.7,6.8 26.3,7.6 C25.7,8.7 24.7,9.4 23,9.8 C22.1,10 20.6,10.1 20.6,10.1 C20.1,10.1 19.7,10.2 19.3,10.2 C16.1,10.2 14.1,9 12.7,4.7 C11.5,1 11.3,-0.1 10.4,-4.5"/>
<path class="Note" d="M696.488,901.79 C699.045,900.318 701.989,898.691 705.32,896.909 C710.511,894.042 714.849,892.609 718.336,892.609 C727.4,892.609 731.932,895.863 731.932,902.371 C731.932,906.709 728.562,912.83 721.822,920.732 C715.856,927.782 712.874,932.779 712.874,935.723 C712.874,938.358 715.508,939.675 720.776,939.675 C723.41,939.675 726.122,938.745 728.911,936.886 C731.7,935.104 733.753,934.213 735.07,934.213 C736.155,934.213 736.697,934.91 736.697,936.304 C736.697,938.551 734.528,940.914 730.189,943.393 C722.907,947.577 717.057,949.669 712.641,949.669 C704.584,949.669 700.555,945.989 700.555,938.629 C700.555,935.22 703.732,929.409 710.085,921.197 C714.423,915.851 716.592,910.622 716.592,905.509 C716.592,901.48 714.423,899.466 710.085,899.466 C708.535,899.466 703.461,901.248 694.861,904.811 C691.762,910.389 687.966,917.285 683.472,925.497 C675.105,940.837 670.224,948.507 668.83,948.507 C664.646,948.507 662.554,946.609 662.554,942.812 C662.554,939.946 667.203,930.881 676.5,915.619 C682.698,905.47 686.571,898.73 688.121,895.398 L679.986,891.447 L704.855,887.38 C704.235,887.999 701.446,892.803 696.488,901.79"/>
<path class="Note" d="M703.344,574.764 C705.824,574.764 707.528,575.384 708.458,576.624 C709.852,578.716 710.549,581.66 710.549,585.456 C710.549,589.872 707.45,600.447 701.253,617.181 C691.103,645.614 686.029,660.683 686.029,662.387 C686.029,666.958 687.85,669.283 691.491,669.36 C693.04,669.36 696.992,666.958 703.344,662.155 C709.62,657.584 714.462,655.299 717.871,655.299 C719.265,655.299 719.963,656.151 719.963,657.855 C719.963,660.722 716.128,664.479 708.458,669.128 C695.907,676.798 687.23,680.633 682.426,680.633 C674.756,680.633 670.922,677.611 670.922,671.568 C670.922,671.413 676.228,653.633 686.842,618.227 C693.273,596.922 697.185,583.054 698.58,576.624 C698.812,575.384 700.4,574.764 703.344,574.764"/>
<path class="Note" d="M703.344,753.347 C705.824,753.347 707.528,753.967 708.458,755.206 C709.852,757.298 710.549,760.242 710.549,764.039 C710.549,768.455 707.45,779.03 701.253,795.764 C691.103,824.197 686.029,839.266 686.029,840.97 C686.029,845.541 687.85,847.865 691.491,847.943 C693.04,847.943 696.992,845.541 703.344,840.738 C709.62,836.167 714.462,833.881 717.871,833.881 C719.265,833.881 719.963,834.734 719.963,836.438 C719.963,839.304 716.128,843.062 708.458,847.71 C695.907,855.38 687.23,859.215 682.426,859.215 C674.756,859.215 670.922,856.194 670.922,850.151 C670.922,849.996 676.228,832.216 686.842,796.81 C693.273,775.505 697.185,761.637 698.58,755.206 C698.812,753.967 700.4,753.347 703.344,753.347"/>
<path class="Note" d="M703.344,664.056 C705.824,664.056 707.528,664.676 708.458,665.915 C709.852,668.007 710.549,670.951 710.549,674.747 C710.549,679.163 707.45,689.738 701.253,706.473 C691.103,734.906 686.029,749.974 686.029,751.679 C686.029,756.25 687.85,758.574 691.491,758.651 C693.04,758.651 696.992,756.25 703.344,751.446 C709.62,746.875 714.462,744.59 717.871,744.59 C719.265,744.59 719.963,745.442 719.963,747.147 C719.963,750.013 716.128,753.771 708.458,758.419 C695.907,766.089 687.23,769.924 682.426,769.924 C674.756,769.924 670.922,766.902 670.922,760.859 C670.922,760.705 676.228,742.924 686.842,707.519 C693.273,686.213 697.185,672.345 698.58,665.915 C698.812,664.676 700.4,664.056 703.344,664.056"/>
<path class="Note" d="M1567.46,842.638 C1569.94,842.638 1571.65,843.258 1572.58,844.498 C1573.97,846.59 1574.67,849.534 1574.67,853.33 C1574.67,857.746 1571.57,868.321 1565.37,885.055 C1555.22,913.488 1550.15,928.557 1550.15,930.262 C1550.15,934.832 1551.97,937.157 1555.61,937.234 C1557.16,937.234 1561.11,934.832 1567.46,930.029 C1573.74,925.458 1578.58,923.173 1581.99,923.173 C1583.38,923.173 1584.08,924.025 1584.08,925.729 C1584.08,928.596 1580.25,932.353 1572.58,937.002 C1560.02,944.672 1551.35,948.507 1546.54,948.507 C1538.87,948.507 1535.04,945.485 1535.04,939.442 C1535.04,939.287 1540.35,921.507 1550.96,886.101 C1557.39,864.796 1561.3,850.928 1562.7,844.498 C1562.93,843.258 1564.52,842.638 1567.46,842.638"/>
<path class="Note" d="M1593.84,785.305 C1596.24,785.305 1597.99,785.809 1599.07,786.816 C1600.31,787.901 1600.93,789.489 1600.93,791.581 C1600.93,794.215 1599.77,796.461 1597.44,798.321 C1587.37,805.448 1577.03,814.513 1566.42,825.514 C1568.82,836.128 1571.76,843.992 1575.25,849.105 C1579.82,855.845 1582.96,859.215 1584.66,859.215 C1586.21,859.215 1587.88,858.247 1589.66,856.31 C1590.9,854.993 1592.1,854.334 1593.26,854.334 C1595.74,854.334 1596.98,855.651 1596.98,858.286 C1596.98,861.075 1594.77,864.871 1590.36,869.674 C1587.95,872.153 1585.44,873.393 1582.8,873.393 C1577.38,873.393 1571.92,868.318 1566.42,858.169 C1560.84,847.943 1557,838.297 1554.91,829.233 C1551.04,841.164 1549.1,848.485 1549.1,851.197 C1549.1,856.542 1546.04,859.215 1539.92,859.215 C1536.59,859.215 1534.92,856.116 1534.92,849.918 C1534.92,846.974 1538.6,833.804 1545.96,810.407 C1549.6,798.941 1552.59,790.922 1554.91,786.351 C1555.45,785.421 1556.85,784.956 1559.09,784.956 C1561.73,784.956 1563.55,785.499 1564.56,786.583 C1565.56,787.668 1566.07,789.915 1566.07,793.324 C1566.07,795.028 1564.4,800.916 1561.07,810.988 C1569.36,802.853 1578.7,794.912 1589.08,787.165 C1590.7,785.925 1592.29,785.305 1593.84,785.305"/>
<path class="Note" d="M1567.46,664.056 C1569.94,664.056 1571.65,664.676 1572.58,665.915 C1573.97,668.007 1574.67,670.951 1574.67,674.747 C1574.67,679.163 1571.57,689.738 1565.37,706.473 C1555.22,734.906 1550.15,749.974 1550.15,751.679 C1550.15,756.25 1551.97,758.574 1555.61,758.651 C1557.16,758.651 1561.11,756.25 1567.46,751.446 C1573.74,746.875 1578.58,744.59 1581.99,744.59 C1583.38,744.59 1584.08,745.442 1584.08,747.147 C1584.08,750.013 1580.25,753.771 1572.58,758.419 C1560.02,766.089 1551.35,769.924 1546.54,769.924 C1538.87,769.924 1535.04,766.902 1535.04,760.859 C1535.04,760.705 1540.35,742.924 1550.96,707.519 C1557.39,686.213 1561.3,672.345 1562.7,665.915 C1562.93,664.676 1564.52,664.056 1567.46,664.056"/>
<path class="Note" d="M2462.07,948.507 C2457.89,948.507 2455.8,946.609 2455.8,942.812 C2455.8,936.382 2456.76,931.656 2458.7,928.635 C2466.76,916.704 2484.27,894.391 2511.23,861.697 C2523.39,846.9 2539.08,839.501 2558.29,839.501 C2565.73,839.501 2570.88,840.547 2573.75,842.638 C2578.17,845.892 2580.37,849.805 2580.37,854.376 C2580.37,859.179 2576.5,864.525 2568.75,870.413 C2561.39,875.991 2554.42,878.78 2547.83,878.78 C2545.28,878.78 2544,878.509 2544,877.967 C2544,877.192 2545.24,876.378 2547.72,875.526 C2551.05,874.287 2554.61,871.769 2558.41,867.972 C2562.75,863.556 2564.92,859.567 2564.92,856.003 C2564.92,853.601 2563.25,851.316 2559.92,849.146 C2556.98,847.287 2552.21,846.357 2545.63,846.357 C2536.02,846.357 2523.9,856.041 2509.25,875.41 C2499.49,888.348 2491.59,899.737 2485.55,909.576 C2488.49,907.949 2492.01,905.973 2496.12,903.649 C2501.16,900.783 2505.5,899.349 2509.14,899.349 C2518.2,899.349 2522.73,902.603 2522.73,909.111 C2522.73,915.541 2519.01,922.592 2511.58,930.262 C2506.31,935.685 2503.67,939.713 2503.67,942.347 C2503.67,945.059 2506.31,946.415 2511.58,946.415 C2514.21,946.415 2516.92,945.485 2519.71,943.626 C2522.5,941.844 2524.55,940.953 2525.87,940.953 C2526.96,940.953 2527.5,941.65 2527.5,943.045 C2527.5,945.291 2525.33,947.654 2520.99,950.134 C2513.71,954.317 2507.86,956.409 2503.44,956.409 C2495.62,956.409 2491.7,952.225 2491.7,943.858 C2491.7,938.59 2494.73,932.741 2500.77,926.31 C2505.19,921.584 2507.39,916.897 2507.39,912.249 C2507.39,908.22 2505.22,906.206 2500.89,906.206 C2499.18,906.206 2493.53,908.22 2483.92,912.249 C2481.05,917.052 2478.65,921.468 2476.71,925.497 C2469.35,940.837 2464.47,948.507 2462.07,948.507"/>
<path class="Note" d="M2522.97,606.722 C2525.37,606.722 2527.11,607.226 2528.2,608.233 C2529.43,609.318 2530.05,610.906 2530.05,612.998 C2530.05,615.632 2528.89,617.879 2526.57,619.738 C2516.5,626.866 2506.15,635.93 2495.54,646.931 C2497.94,657.545 2500.89,665.409 2504.37,670.522 C2508.94,677.262 2512.08,680.633 2513.78,680.633 C2515.33,680.633 2517,679.664 2518.78,677.727 C2520.02,676.41 2521.22,675.752 2522.38,675.752 C2524.86,675.752 2526.1,677.069 2526.1,679.703 C2526.1,682.492 2523.9,686.288 2519.48,691.092 C2517.08,693.571 2514.56,694.81 2511.93,694.81 C2506.5,694.81 2501.04,689.736 2495.54,679.587 C2489.96,669.36 2486.13,659.715 2484.03,650.65 C2480.16,662.581 2478.22,669.902 2478.22,672.614 C2478.22,677.96 2475.16,680.633 2469.04,680.633 C2465.71,680.633 2464.05,677.534 2464.05,671.336 C2464.05,668.392 2467.73,655.221 2475.09,631.824 C2478.73,620.358 2481.71,612.339 2484.03,607.768 C2484.58,606.839 2485.97,606.374 2488.22,606.374 C2490.85,606.374 2492.67,606.916 2493.68,608.001 C2494.69,609.085 2495.19,611.332 2495.19,614.741 C2495.19,616.445 2493.53,622.333 2490.19,632.405 C2498.48,624.27 2507.82,616.329 2518.2,608.582 C2519.83,607.342 2521.42,606.722 2522.97,606.722"/>
<path class="Note" d="M2522.97,785.305 C2525.37,785.305 2527.11,785.809 2528.2,786.816 C2529.43,787.901 2530.05,789.489 2530.05,791.581 C2530.05,794.215 2528.89,796.461 2526.57,798.321 C2516.5,805.448 2506.15,814.513 2495.54,825.514 C2497.94,836.128 2500.89,843.992 2504.37,849.105 C2508.94,855.845 2512.08,859.215 2513.78,859.215 C2515.33,859.215 2517,858.247 2518.78,856.31 C2520.02,854.993 2521.22,854.334 2522.38,854.334 C2524.86,854.334 2526.1,855.651 2526.1,858.286 C2526.1,861.075 2523.9,864.871 2519.48,869.674 C2517.08,872.153 2514.56,873.393 2511.93,873.393 C2506.5,873.393 2501.04,868.318 2495.54,858.169 C2489.96,847.943 2486.13,838.297 2484.03,829.233 C2480.16,841.164 2478.22,848.485 2478.22,851.197 C2478.22,856.542 2475.16,859.215 2469.04,859.215 C2465.71,859.215 2464.05,856.116 2464.05,849.918 C2464.05,846.974 2467.73,833.804 2475.09,810.407 C2478.73,798.941 2481.71,790.922 2484.03,786.351 C2484.58,785.421 2485.97,784.956 2488.22,784.956 C2490.85,784.956 2492.67,785.499 2493.68,786.583 C2494.69,787.668 2495.19,789.915 2495.19,793.324 C2495.19,795.028 2493.53,800.916 2490.19,810.988 C2498.48,802.853 2507.82,794.912 2518.2,787.165 C2519.83,785.925 2521.42,785.305 2522.97,785.305"/>
<path class="Note" d="M2496.59,664.056 C2499.06,664.056 2500.77,664.676 2501.7,665.915 C2503.09,668.007 2503.79,670.951 2503.79,674.747 C2503.79,679.163 2500.69,689.738 2494.49,706.473 C2484.34,734.906 2479.27,749.974 2479.27,751.679 C2479.27,756.25 2481.09,758.574 2484.73,758.651 C2486.28,758.651 2490.23,756.25 2496.59,751.446 C2502.86,746.875 2507.7,744.59 2511.11,744.59 C2512.51,744.59 2513.2,745.442 2513.2,747.147 C2513.2,750.013 2509.37,753.771 2501.7,758.419 C2489.15,766.089 2480.47,769.924 2475.67,769.924 C2468,769.924 2464.16,766.902 2464.16,760.859 C2464.16,760.705 2469.47,742.924 2480.08,707.519 C2486.51,686.213 2490.43,672.345 2491.82,665.915 C2492.05,664.676 2493.64,664.056 2496.59,664.056"/>
<path class="Note" d="M3401.96,874.596 C3404.36,874.596 3406.1,875.1 3407.19,876.107 C3408.42,877.192 3409.04,878.78 3409.04,880.872 C3409.04,883.506 3407.88,885.753 3405.56,887.612 C3395.49,894.74 3385.14,903.804 3374.53,914.805 C3376.93,925.419 3379.88,933.283 3383.36,938.396 C3387.93,945.137 3391.07,948.507 3392.78,948.507 C3394.32,948.507 3395.99,947.538 3397.77,945.601 C3399.01,944.284 3400.21,943.626 3401.37,943.626 C3403.85,943.626 3405.09,944.943 3405.09,947.577 C3405.09,950.366 3402.89,954.162 3398.47,958.966 C3396.07,961.445 3393.55,962.684 3390.92,962.684 C3385.49,962.684 3380.03,957.61 3374.53,947.461 C3368.95,937.234 3365.12,927.589 3363.03,918.524 C3359.15,930.455 3357.21,937.776 3357.21,940.488 C3357.21,945.834 3354.15,948.507 3348.03,948.507 C3344.7,948.507 3343.04,945.408 3343.04,939.21 C3343.04,936.266 3346.72,923.095 3354.08,899.698 C3357.72,888.232 3360.7,880.213 3363.03,875.642 C3363.57,874.713 3364.96,874.248 3367.21,874.248 C3369.84,874.248 3371.66,874.79 3372.67,875.875 C3373.68,876.959 3374.18,879.206 3374.18,882.615 C3374.18,884.319 3372.52,890.207 3369.18,900.279 C3377.47,892.144 3386.81,884.203 3397.19,876.456 C3398.82,875.216 3400.41,874.596 3401.96,874.596"/>
<path class="Note" d="M3341.06,859.215 C3336.88,859.215 3334.79,857.317 3334.79,853.521 C3334.79,847.091 3335.75,842.365 3337.69,839.343 C3345.75,827.412 3363.26,805.1 3390.22,772.406 C3402.38,757.608 3418.07,750.209 3437.28,750.209 C3444.72,750.209 3449.87,751.255 3452.74,753.347 C3457.16,756.601 3459.36,760.513 3459.36,765.084 C3459.36,769.888 3455.49,775.234 3447.74,781.122 C3440.38,786.7 3433.41,789.489 3426.83,789.489 C3424.27,789.489 3422.99,789.218 3422.99,788.675 C3422.99,787.901 3424.23,787.087 3426.71,786.235 C3430.04,784.995 3433.6,782.477 3437.4,778.681 C3441.74,774.265 3443.91,770.275 3443.91,766.711 C3443.91,764.31 3442.24,762.024 3438.91,759.855 C3435.97,757.996 3431.2,757.066 3424.62,757.066 C3415.01,757.066 3402.89,766.75 3388.24,786.119 C3378.48,799.057 3370.58,810.445 3364.54,820.285 C3367.48,818.658 3371.01,816.682 3375.11,814.358 C3380.15,811.491 3384.49,810.058 3388.13,810.058 C3397.19,810.058 3401.72,813.312 3401.72,819.82 C3401.72,826.25 3398,833.3 3390.57,840.97 C3385.3,846.393 3382.66,850.422 3382.66,853.056 C3382.66,855.768 3385.3,857.123 3390.57,857.123 C3393.2,857.123 3395.91,856.194 3398.7,854.334 C3401.49,852.553 3403.54,851.662 3404.86,851.662 C3405.95,851.662 3406.49,852.359 3406.49,853.753 C3406.49,856 3404.32,858.363 3399.98,860.842 C3392.7,865.026 3386.85,867.118 3382.43,867.118 C3374.61,867.118 3370.7,862.934 3370.7,854.567 C3370.7,849.299 3373.72,843.449 3379.76,837.019 C3384.18,832.293 3386.38,827.606 3386.38,822.957 C3386.38,818.929 3384.21,816.915 3379.88,816.915 C3378.17,816.915 3372.52,818.929 3362.91,822.957 C3360.04,827.761 3357.64,832.177 3355.7,836.206 C3348.34,851.545 3343.46,859.215 3341.06,859.215"/>
<path class="Note" d="M3370.35,704.265 C3374.14,704.265 3376.04,707.17 3376.04,712.981 C3376.04,717.164 3374.07,721.968 3370.11,727.391 C3366.63,732.272 3364.88,739.825 3364.88,750.052 C3364.88,754.933 3366.16,758.187 3368.72,759.814 C3370.5,761.053 3373.83,761.712 3378.71,761.789 C3383.98,761.789 3391.46,759.116 3401.14,753.771 L3403,755.63 C3400.52,758.806 3397.54,761.673 3394.05,764.23 C3388.86,768.026 3383.56,769.924 3378.13,769.924 C3370.31,769.924 3364.38,768.801 3360.35,766.554 C3355.32,763.765 3352.8,760.278 3352.8,756.095 C3352.8,744.551 3354.27,732.504 3357.21,719.953 C3358.3,715.382 3360.66,711.199 3364.3,707.402 C3366.4,705.311 3368.41,704.265 3370.35,704.265"/>
<path class="Clef" transform="matrix(2.3811,0,0,2.3811,212.156,2179.76)" d="M25.4,-25.1 C17.8,-25.1 11.7,-20.7 11.6,-20.7 C5.8,-16.4 3.5,-11.3 2.6,-7.8 C2.1,-6 1.9,-4.2 1.9,-2.5 C1.9,-0.1 2.3,2.1 3.2,4 C4.4,6.7 6.7,8.6 9.7,9.6 C10.9,10 12.2,10.2 13.5,10.2 C15.7,10.2 18,9.6 19.9,8.5 C23,6.8 24.9,3.2 24.9,-0.7 C24.9,-4.2 23.1,-7.4 20.1,-9.3 C18,-10.7 16,-11.1 14.3,-11.1 C13.1,-11.1 12,-10.9 11.1,-10.6 C10.1,-10.2 8.4,-9.2 7.6,-8.5 C7.9,-10.4 9.1,-13.3 10.2,-14.9 C11.3,-16.5 13.5,-18.5 15.2,-19.4 C17.7,-20.8 20.9,-21.4 24.4,-21.4 C34.6,-21.4 39.6,-13.2 39.6,3.6 C39.6,12.9 36.1,21.8 33.1,27.7 C29.8,34.3 25.4,40.6 21.5,44.1 C11.1,53.6 1.3,58.1 1.2,58.1 C1.2,58.1 -0.3,59 0.1,60.5 C0.4,61.5 1.3,61.7 1.9,61.7 C2,61.7 2.3,61.6 2.4,61.6 C2.5,61.6 13.9,56.9 23,49.8 C28.1,46.1 32.7,42.1 36.7,37.8 C40.3,33.9 43.4,29.7 45.9,25.5 C50.3,18 52.8,10.2 52.8,3.5 C52.8,-4.8 50.6,-11.7 46.5,-16.6 C41.8,-22.2 34.7,-25.1 25.4,-25.1 M56.8,-12.4 C56.8,-9.6 59,-7.4 61.6,-7.4 C64.2,-7.4 66.4,-9.6 66.4,-12.4 C66.4,-15.2 64.2,-17.5 61.6,-17.5 C59,-17.5 56.8,-15.2 56.8,-12.4 M56.8,12.3 C56.8,15.1 59,17.4 61.6,17.4 C64.2,17.4 66.4,15.1 66.4,12.3 C66.4,9.5 64.2,7.2 61.6,7.2 C59,7.2 56.8,9.5 56.8,12.3"/>
<path class="Clef" transform="matrix(2.3811,0,0,2.3811,212.156,1608.49)" d="M63.37,-5.89004 C62.14,-11.32 59.5,-15.14 58.72,-16.1801 C55.5301,-20.45 51.52,-23.3 46.8301,-24.65 C43.72,-25.54 40.72,-25.65 38.3,-25.47 C37.2601,-31.4801 36.2601,-37.3601 35.35,-42.8101 C40.79,-48.97 44.42,-54.77 46.69,-59.07 C50.1601,-65.65 51.3101,-70.2301 51.3601,-70.4301 C53.0801,-75.64 53.44,-83.34 52.34,-91.55 C51.3301,-99.1 49.24,-105.81 46.89,-109.06 C45.8601,-110.49 44.8101,-111.22 43.77,-111.22 C42.55,-111.22 40.04,-109.98 37.15,-107.21 C34.85,-105.01 31.5801,-101.12 29.02,-95.1101 C26.02,-88.05 25.8101,-78.5601 26.1601,-71.84 C26.54,-64.57 27.65,-58.8801 27.6601,-58.8301 C27.6801,-58.74 27.94,-57.24 28.39,-54.67 C28.1601,-54.44 27.92,-54.22 27.67,-53.9801 C26.6301,-52.9801 25.44,-51.84 24.0601,-50.4601 C23.2,-49.6 22.25,-48.69 21.25,-47.72 C12.79,-39.57 0,-27.25 0,-8.1 C0,-3.4 0.9,1.01992 2.68008,5.02998 C4.27002,8.62998 6.57002,11.91 9.5,14.78 C17.2301,22.33 27.82,25.5399 34.8801,25.38 C37.8301,25.31 40.4601,25.0699 42.85,24.6199 C44.6801,34.2199 45.82,41.25 45.8601,46.5899 C45.9,53.1 44.25,57.0699 40.35,59.8399 C37.92,61.5699 35.1101,62.5199 32.0101,62.6699 C29.42,62.7899 27.1601,62.3199 25.7301,61.91 L25.72,61.91 C25.72,61.91 25.4301,61.83 25.42,61.63 C25.4101,61.45 25.7601,61.4 25.77,61.4 L25.79,61.4 C27.7101,60.96 31.2801,59.73 33.64,56.43 C35.44,53.91 36.3101,49.2899 34.47,45.35 C33.3601,42.96 30.85,40.01 25.2301,39.56 C22.74,39.36 20.47,39.8699 18.47,41.0699 C16.6601,42.15 15.1601,43.7899 14.1101,45.7899 C11.65,50.4899 12.1101,56.2199 15.24,60.06 C18.2,63.68 22.82,65.9899 28.25,66.5699 C29.1,66.66 29.95,66.7 30.8,66.7 C31.5101,66.7 32.22,66.6699 32.92,66.61 C31.72,66.9399 30.64,67.4899 29.77,68.25 C28.2801,69.5399 27.44,71.38 27.44,73.41 C27.44,75.28 28.0601,76.65 29.55,78.0399 C28.4101,78.5 27.55,78.98 26.79,79.56 C25.25,80.73 24.34,82.46 24.34,84.1899 C24.34,87.45 27.3,89.63 31.72,89.63 C37.1301,89.63 40.9101,86.63 40.9101,82.35 C40.9101,80.1199 39.9101,78.18 38.0801,76.83 C41.0101,75.6199 42.37,73.9399 42.37,71.56 C42.39,70.05 41.69,68.61 40.49,67.6899 C39.2801,66.7399 37.62,66.2399 35.69,66.2399 L35.5101,66.2399 C38.2801,65.7 40.92,64.7 43.2101,63.28 C46.87,60.71 48.99,56.73 49.67,51.1 C50.2301,46.46 49.84,40.55 48.44,32.48 C48.0801,30.3899 47.54,27.36 46.8801,23.6 C52.6301,21.68 56.79,18.11 60.5601,12.26 C63.85,6.51992 64.8,0.419922 63.37,-5.89004 M32.39,87.5399 C30.19,87.5399 28.7301,86.1199 28.7301,84.01 C28.7301,82.11 29.65,80.5 31.32,79.4699 C31.6801,79.66 31.77,79.71 32.1101,79.88 C33.3,80.48 33.3,80.48 33.55,80.63 L33.5601,80.6399 C35.47,81.73 36.25,82.76 36.25,84.18 C36.24,86.0899 34.59,87.5399 32.39,87.5399 M38.3101,71.63 C38.3101,73.2699 37.7301,74.3399 36.1801,75.53 C34.74,74.78 34.35,74.56 33.9801,74.3399 L33.8801,74.28 C32.3301,73.3399 31.85,72.66 31.85,71.4 C31.85,69.6 33.2301,68.3399 35.19,68.3399 C37.17,68.35 38.3101,69.55 38.3101,71.63 M33.15,-83.8101 C34.9301,-89.55 37.67,-92.8 39.6601,-94.5301 C41.4101,-96.05 43.0601,-96.7601 43.9801,-96.7601 C44.12,-96.7601 44.24,-96.74 44.34,-96.7101 C44.8,-96.57 45.3301,-96 45.8,-95.1301 C48.1101,-90.84 47.37,-84.1301 46.0301,-79.69 C44.4,-74.29 41.4801,-68.6801 32.69,-59.0601 C32.52,-60.17 32.3601,-61.22 32.2101,-62.2 C30.95,-70.49 31.27,-77.7601 33.15,-83.8101 M29.15,20.31 C24.5101,19.0899 20.0801,16.5899 16.32,13.0899 C15.0101,11.86 13.14,9.68994 11.67,6.3 C10.3101,3.13994 9.65,-0.290039 9.7,-3.88008 C9.77002,-8.57002 11.0801,-13.39 13.59,-18.1801 C16.5101,-23.7601 21.07,-29.29 27.1301,-34.62 C28.5801,-35.9 29.95,-37.1801 31.24,-38.4601 C32,-34.2 32.8301,-29.5101 33.7101,-24.6301 C29.8601,-23.3601 25.1101,-20.2101 22,-14.5601 C18.47,-7.99004 18.6101,-2.47002 19.34,1.00996 C20.2801,5.46992 22.8101,9.22998 26.27,11.3199 C27.2,11.88 31.3301,14.01 33.17,13.43 C33.54,13.31 33.8101,13.0899 33.95,12.76 C34.4601,11.5899 33.44,10.95 31.8801,9.98994 C31.2801,9.61992 30.6101,9.2 29.8801,8.66992 C26.5601,6.17998 25.1101,1.72998 26.1801,-2.65 C26.7601,-5.05 28.04,-7.21006 29.8801,-8.91006 C31.55,-10.4601 33.59,-11.5601 35.97,-12.2 C38.0101,-0.960059 40.07,10.1899 41.7101,18.55 C41.84,19.2399 41.9801,19.91 42.1101,20.58 C37.7101,21.51 33.37,21.4199 29.15,20.31 M54.9,10.1 C53.7301,13.28 51.27,17.35 46.14,19.41 C46.07,18.9899 45.99,18.56 45.9101,18.13 C44.3601,9.36992 42.4301,-1.61006 40.47,-12.87 C50.82,-13.35 55.09,-5.91006 55.9801,-1.08008 C56.45,1.45 56.45,5.88994 54.9,10.1"/>
<path class="KeySig" transform="matrix(2.3811,0,0,2.3811,429.785,2298.82)" d="M20.1,-7.9 C19.5,-11.8 17.1,-15.5 12,-15.5 C7,-15.5 4.1,-12.4 3.6,-11.8 L4,-43.9 C4,-44.7 3.4,-45.3 2.6,-45.3 L1.4,-45.3 C0.6,-45.3 0,-44.7 0,-43.9 L0.5,16.2 C0.5,17 1.1,17.6 1.9,17.6 C2.1,17.6 2.5,17.5 2.7,17.4 C3.1,17.2 9.6,14 15,7.9 C18.8,3.6 20.3,-1.3 20.3,-5.4 C20.3,-6.3 20.2,-7.1 20.1,-7.9 M13.2,-4 C13.2,-2.5 12.8,2.1 10.3,5.9 C8.6,8.5 5.2,11.2 3.3,12.7 L3.6,-6.8 C3.8,-7.7 5.3,-10.6 9.3,-10.6 C12.9,-10.6 13.2,-7.2 13.2,-5.1 L13.2,-4 "/>
<path class="KeySig" transform="matrix(2.3811,0,0,2.3811,429.785,1548.96)" d="M20.1,-7.9 C19.5,-11.8 17.1,-15.5 12,-15.5 C7,-15.5 4.1,-12.4 3.6,-11.8 L4,-43.9 C4,-44.7 3.4,-45.3 2.6,-45.3 L1.4,-45.3 C0.6,-45.3 0,-44.7 0,-43.9 L0.5,16.2 C0.5,17 1.1,17.6 1.9,17.6 C2.1,17.6 2.5,17.5 2.7,17.4 C3.1,17.2 9.6,14 15,7.9 C18.8,3.6 20.3,-1.3 20.3,-5.4 C20.3,-6.3 20.2,-7.1 20.1,-7.9 M13.2,-4 C13.2,-2.5 12.8,2.1 10.3,5.9 C8.6,8.5 5.2,11.2 3.3,12.7 L3.6,-6.8 C3.8,-7.7 5.3,-10.6 9.3,-10.6 C12.9,-10.6 13.2,-7.2 13.2,-5.1 L13.2,-4 "/>
<path class="FiguredBass" d="M1559.07,2493.53 C1554.5,2493.53 1551.45,2495.37 1549.94,2499.05 C1548.42,2502.73 1547.66,2507.94 1547.66,2514.68 L1547.66,2525.63 C1550.88,2524.33 1553.66,2523.65 1556.01,2523.59 C1564.05,2523.59 1570.38,2525.37 1574.98,2528.92 C1579.59,2532.48 1581.9,2537.77 1581.9,2544.79 C1581.9,2551.81 1579.56,2557.11 1574.89,2560.7 C1570.22,2564.28 1563.93,2566.08 1556.01,2566.08 C1547.91,2566.08 1541.57,2562.32 1536.99,2554.81 C1532.42,2547.29 1530.13,2538.37 1530.13,2528.04 C1530.13,2517.77 1532.79,2508.87 1538.11,2501.32 C1543.43,2493.78 1550.42,2490 1559.07,2490 C1564.76,2490 1569.68,2491.44 1573.82,2494.32 C1577.97,2497.19 1580.04,2500.98 1580.04,2505.68 C1580.04,2508.4 1579.05,2510.75 1577.07,2512.73 C1575.09,2514.71 1572.73,2515.7 1569.97,2515.7 C1567.22,2515.7 1564.86,2514.71 1562.88,2512.73 C1560.9,2510.75 1559.91,2508.4 1559.91,2505.68 C1559.91,2503.02 1560.9,2500.67 1562.88,2498.63 C1563.56,2497.83 1564.52,2497.15 1565.75,2496.59 C1565.44,2495.79 1564.83,2495.17 1563.9,2494.74 C1562.54,2493.93 1560.93,2493.53 1559.07,2493.53 M1563.62,2531.47 C1562.51,2528.57 1560.06,2527.11 1556.29,2527.11 C1552.52,2527.11 1550.18,2528.57 1549.29,2531.47 C1548.39,2534.38 1547.94,2538.8 1547.94,2544.74 C1547.94,2551.73 1548.39,2556.43 1549.29,2558.84 C1550.18,2561.25 1552.52,2562.46 1556.29,2562.46 C1560.06,2562.46 1562.51,2561.01 1563.62,2558.1 C1564.73,2555.19 1565.29,2550.76 1565.29,2544.79 C1565.29,2538.82 1564.73,2534.38 1563.62,2531.47"/>
<path class="FiguredBass" d="M2479.38,2556.43 L2479.38,2575.82 C2479.38,2577.74 2478.41,2578.7 2476.46,2578.7 C2474.51,2578.7 2473.54,2577.74 2473.54,2575.82 L2473.54,2558.94 L2470.57,2560.14 C2470.26,2560.26 2469.86,2560.33 2469.36,2560.33 C2468.56,2560.33 2467.85,2560.02 2467.23,2559.4 C2466.61,2558.78 2466.3,2558.07 2466.3,2557.27 L2466.3,2547.8 C2466.3,2546.44 2466.95,2545.48 2468.25,2544.93 L2473.54,2542.7 L2473.54,2523.22 L2470.57,2524.42 C2470.39,2524.49 2470.14,2524.52 2469.83,2524.52 C2469.7,2524.52 2469.55,2524.52 2469.36,2524.52 C2468.44,2524.39 2467.69,2524.05 2467.14,2523.5 C2466.58,2522.94 2466.3,2522.29 2466.3,2521.55 L2466.3,2512.08 C2466.3,2510.79 2466.95,2509.86 2468.25,2509.3 L2473.54,2507.07 L2473.54,2487.31 C2473.54,2485.4 2474.51,2484.44 2476.46,2484.44 C2478.41,2484.44 2479.38,2485.4 2479.38,2487.31 L2479.38,2504.66 L2491.35,2499.65 L2491.35,2480.26 C2491.35,2478.35 2492.31,2477.39 2494.23,2477.39 C2496.15,2477.39 2497.1,2478.35 2497.1,2480.26 L2497.1,2497.33 L2500.35,2495.94 C2500.66,2495.82 2501,2495.76 2501.37,2495.76 C2502.18,2495.76 2502.9,2496.07 2503.55,2496.68 C2504.2,2497.3 2504.53,2498.01 2504.53,2498.82 L2504.53,2508.28 C2504.53,2509.64 2503.85,2510.6 2502.48,2511.16 L2497.1,2513.38 L2497.1,2532.96 L2500.35,2531.66 C2500.54,2531.6 2500.75,2531.57 2501,2531.57 C2501.12,2531.57 2501.25,2531.57 2501.37,2531.57 C2502.42,2531.75 2503.21,2532.09 2503.74,2532.59 C2504.26,2533.08 2504.53,2533.73 2504.53,2534.54 L2504.53,2544 C2504.53,2545.3 2503.85,2546.23 2502.48,2546.78 L2497.1,2549.01 L2497.1,2568.77 C2497.1,2570.69 2496.15,2571.64 2494.23,2571.64 C2492.31,2571.64 2491.35,2570.69 2491.35,2568.77 L2491.35,2551.42 L2479.38,2556.43 M2479.38,2540.29 L2491.35,2535.37 L2491.35,2515.8 L2479.38,2520.81 L2479.38,2540.29 "/>
<path class="FiguredBass" d="M3367.19,2493.53 C3362.61,2493.53 3359.57,2495.37 3358.05,2499.05 C3356.53,2502.73 3355.78,2507.94 3355.78,2514.68 L3355.78,2525.63 C3358.99,2524.33 3361.78,2523.65 3364.13,2523.59 C3372.17,2523.59 3378.49,2525.37 3383.1,2528.92 C3387.71,2532.48 3390.01,2537.77 3390.01,2544.79 C3390.01,2551.81 3387.68,2557.11 3383.01,2560.7 C3378.34,2564.28 3372.04,2566.08 3364.13,2566.08 C3356.02,2566.08 3349.68,2562.32 3345.11,2554.81 C3340.53,2547.29 3338.24,2538.37 3338.24,2528.04 C3338.24,2517.77 3340.9,2508.87 3346.22,2501.32 C3351.54,2493.78 3358.53,2490 3367.19,2490 C3372.88,2490 3377.79,2491.44 3381.94,2494.32 C3386.08,2497.19 3388.15,2500.98 3388.15,2505.68 C3388.15,2508.4 3387.17,2510.75 3385.19,2512.73 C3383.21,2514.71 3380.84,2515.7 3378.09,2515.7 C3375.34,2515.7 3372.97,2514.71 3370.99,2512.73 C3369.01,2510.75 3368.02,2508.4 3368.02,2505.68 C3368.02,2503.02 3369.01,2500.67 3370.99,2498.63 C3371.67,2497.83 3372.63,2497.15 3373.87,2496.59 C3373.56,2495.79 3372.94,2495.17 3372.01,2494.74 C3370.65,2493.93 3369.04,2493.53 3367.19,2493.53 M3371.73,2531.47 C3370.62,2528.57 3368.18,2527.11 3364.4,2527.11 C3360.63,2527.11 3358.3,2528.57 3357.4,2531.47 C3356.5,2534.38 3356.06,2538.8 3356.06,2544.74 C3356.06,2551.73 3356.5,2556.43 3357.4,2558.84 C3358.3,2561.25 3360.63,2562.46 3364.4,2562.46 C3368.18,2562.46 3370.62,2561.01 3371.73,2558.1 C3372.85,2555.19 3373.4,2550.76 3373.4,2544.79 C3373.4,2538.82 3372.85,2534.38 3371.73,2531.47"/>
<path class="FiguredBass" d="M1559.07,1803.2 C1554.5,1803.2 1551.45,1805.04 1549.94,1808.72 C1548.42,1812.4 1547.66,1817.62 1547.66,1824.36 L1547.66,1835.3 C1550.88,1834.01 1553.66,1833.33 1556.01,1833.26 C1564.05,1833.26 1570.38,1835.04 1574.98,1838.6 C1579.59,1842.15 1581.9,1847.44 1581.9,1854.46 C1581.9,1861.48 1579.56,1866.79 1574.89,1870.37 C1570.22,1873.96 1563.93,1875.75 1556.01,1875.75 C1547.91,1875.75 1541.57,1872 1536.99,1864.48 C1532.42,1856.97 1530.13,1848.05 1530.13,1837.72 C1530.13,1827.45 1532.79,1818.54 1538.11,1811 C1543.43,1803.45 1550.42,1799.68 1559.07,1799.68 C1564.76,1799.68 1569.68,1801.12 1573.82,1803.99 C1577.97,1806.87 1580.04,1810.66 1580.04,1815.36 C1580.04,1818.08 1579.05,1820.43 1577.07,1822.41 C1575.09,1824.39 1572.73,1825.38 1569.97,1825.38 C1567.22,1825.38 1564.86,1824.39 1562.88,1822.41 C1560.9,1820.43 1559.91,1818.08 1559.91,1815.36 C1559.91,1812.7 1560.9,1810.35 1562.88,1808.31 C1563.56,1807.5 1564.52,1806.82 1565.75,1806.27 C1565.44,1805.46 1564.83,1804.84 1563.9,1804.41 C1562.54,1803.61 1560.93,1803.2 1559.07,1803.2 M1563.62,1841.15 C1562.51,1838.24 1560.06,1836.79 1556.29,1836.79 C1552.52,1836.79 1550.18,1838.24 1549.29,1841.15 C1548.39,1844.06 1547.94,1848.48 1547.94,1854.42 C1547.94,1861.4 1548.39,1866.11 1549.29,1868.52 C1550.18,1870.93 1552.52,1872.14 1556.29,1872.14 C1560.06,1872.14 1562.51,1870.68 1563.62,1867.78 C1564.73,1864.87 1565.29,1860.43 1565.29,1854.46 C1565.29,1848.49 1564.73,1844.06 1563.62,1841.15"/>
<path class="FiguredBass" d="M1570.95,1941.15 C1570.95,1942.14 1571.51,1943.1 1572.62,1944.02 C1573.73,1944.95 1574.95,1945.83 1576.28,1946.67 C1577.61,1947.5 1578.83,1949.08 1579.95,1951.4 C1581.06,1953.72 1581.62,1956.64 1581.62,1960.17 C1581.62,1966.97 1579.05,1972.23 1573.92,1975.94 C1568.78,1979.65 1562.29,1981.5 1554.44,1981.5 C1548.13,1981.5 1542.64,1979.93 1537.97,1976.77 C1533.3,1973.62 1530.96,1969.47 1530.96,1964.34 C1530.96,1961.62 1531.95,1959.25 1533.93,1957.24 C1535.91,1955.23 1538.28,1954.23 1541.03,1954.23 C1543.78,1954.23 1546.12,1955.22 1548.03,1957.2 C1549.95,1959.18 1550.91,1961.56 1550.91,1964.34 C1550.91,1965.58 1549.89,1966.92 1547.85,1968.38 C1545.81,1969.83 1544.79,1971.18 1544.79,1972.41 C1544.79,1974.33 1545.73,1975.74 1547.62,1976.63 C1549.5,1977.53 1551.78,1977.98 1554.44,1977.98 C1557.9,1977.98 1560.36,1976.26 1561.81,1972.83 C1563.26,1969.4 1563.99,1965.18 1563.99,1960.17 L1563.99,1957.75 C1563.99,1954.41 1563.88,1951.88 1563.67,1950.15 C1563.45,1948.41 1562.77,1946.87 1561.63,1945.51 C1560.48,1944.15 1558.73,1943.47 1556.38,1943.47 L1544.23,1943.47 C1542.81,1943.47 1542.1,1942.69 1542.1,1941.15 C1542.1,1939.72 1542.81,1939.01 1544.23,1939.01 L1556.38,1939.01 C1558.92,1939.01 1560.9,1938.05 1562.32,1936.14 C1562.82,1935.46 1563.22,1934.34 1563.53,1932.8 C1563.84,1930.76 1563.99,1927.82 1563.99,1923.98 L1563.99,1922.78 C1563.99,1913.56 1560.59,1908.95 1553.79,1908.95 C1547.79,1908.95 1544.79,1910.62 1544.79,1913.96 C1544.79,1915.08 1545.7,1916.27 1547.52,1917.54 C1549.35,1918.8 1550.26,1919.99 1550.26,1921.11 C1550.26,1923.52 1549.41,1925.59 1547.71,1927.32 C1546.01,1929.06 1543.94,1929.92 1541.49,1929.92 C1539.05,1929.92 1536.99,1929.06 1535.32,1927.32 C1533.65,1925.59 1532.82,1923.52 1532.82,1921.11 C1532.82,1916.35 1534.89,1912.54 1539.03,1909.7 C1543.18,1906.85 1548.1,1905.43 1553.79,1905.43 C1561.27,1905.43 1567.42,1906.87 1572.25,1909.74 C1577.07,1912.62 1579.48,1916.96 1579.48,1922.78 C1579.48,1926.92 1579.05,1930.14 1578.19,1932.43 C1577.32,1934.72 1576.33,1936.11 1575.22,1936.6 C1574.1,1937.1 1573.11,1937.67 1572.25,1938.32 C1571.38,1938.97 1570.95,1939.91 1570.95,1941.15"/>
<path class="FiguredBass" d="M3367.19,1803.2 C3362.61,1803.2 3359.57,1805.04 3358.05,1808.72 C3356.53,1812.4 3355.78,1817.62 3355.78,1824.36 L3355.78,1835.3 C3358.99,1834.01 3361.78,1833.33 3364.13,1833.26 C3372.17,1833.26 3378.49,1835.04 3383.1,1838.6 C3387.71,1842.15 3390.01,1847.44 3390.01,1854.46 C3390.01,1861.48 3387.68,1866.79 3383.01,1870.37 C3378.34,1873.96 3372.04,1875.75 3364.13,1875.75 C3356.02,1875.75 3349.68,1872 3345.11,1864.48 C3340.53,1856.97 3338.24,1848.05 3338.24,1837.72 C3338.24,1827.45 3340.9,1818.54 3346.22,1811 C3351.54,1803.45 3358.53,1799.68 3367.19,1799.68 C3372.88,1799.68 3377.79,1801.12 3381.94,1803.99 C3386.08,1806.87 3388.15,1810.66 3388.15,1815.36 C3388.15,1818.08 3387.17,1820.43 3385.19,1822.41 C3383.21,1824.39 3380.84,1825.38 3378.09,1825.38 C3375.34,1825.38 3372.97,1824.39 3370.99,1822.41 C3369.01,1820.43 3368.02,1818.08 3368.02,1815.36 C3368.02,1812.7 3369.01,1810.35 3370.99,1808.31 C3371.67,1807.5 3372.63,1806.82 3373.87,1806.27 C3373.56,1805.46 3372.94,1804.84 3372.01,1804.41 C3370.65,1803.61 3369.04,1803.2 3367.19,1803.2 M3371.73,1841.15 C3370.62,1838.24 3368.18,1836.79 3364.4,1836.79 C3360.63,1836.79 3358.3,1838.24 3357.4,1841.15 C3356.5,1844.06 3356.06,1848.48 3356.06,1854.42 C3356.06,1861.4 3356.5,1866.11 3357.4,1868.52 C3358.3,1870.93 3360.63,1872.14 3364.4,1872.14 C3368.18,1872.14 3370.62,1870.68 3371.73,1867.78 C3372.85,1864.87 3373.4,1860.43 3373.4,1854.46 C3373.4,1848.49 3372.85,1844.06 3371.73,1841.15"/>
<path class="FiguredBass" d="M3379.06,1941.15 C3379.06,1942.14 3379.62,1943.1 3380.73,1944.02 C3381.85,1944.95 3383.07,1945.83 3384.4,1946.67 C3385.73,1947.5 3386.95,1949.08 3388.06,1951.4 C3389.18,1953.72 3389.73,1956.64 3389.73,1960.17 C3389.73,1966.97 3387.17,1972.23 3382.03,1975.94 C3376.9,1979.65 3370.4,1981.5 3362.55,1981.5 C3356.24,1981.5 3350.75,1979.93 3346.08,1976.77 C3341.41,1973.62 3339.08,1969.47 3339.08,1964.34 C3339.08,1961.62 3340.07,1959.25 3342.05,1957.24 C3344.03,1955.23 3346.39,1954.23 3349.14,1954.23 C3351.9,1954.23 3354.23,1955.22 3356.15,1957.2 C3358.07,1959.18 3359.02,1961.56 3359.02,1964.34 C3359.02,1965.58 3358,1966.92 3355.96,1968.38 C3353.92,1969.83 3352.9,1971.18 3352.9,1972.41 C3352.9,1974.33 3353.84,1975.74 3355.73,1976.63 C3357.62,1977.53 3359.89,1977.98 3362.55,1977.98 C3366.01,1977.98 3368.47,1976.26 3369.92,1972.83 C3371.38,1969.4 3372.1,1965.18 3372.1,1960.17 L3372.1,1957.75 C3372.1,1954.41 3372,1951.88 3371.78,1950.15 C3371.56,1948.41 3370.88,1946.87 3369.74,1945.51 C3368.59,1944.15 3366.85,1943.47 3364.5,1943.47 L3352.34,1943.47 C3350.92,1943.47 3350.21,1942.69 3350.21,1941.15 C3350.21,1939.72 3350.92,1939.01 3352.34,1939.01 L3364.5,1939.01 C3367.03,1939.01 3369.01,1938.05 3370.43,1936.14 C3370.93,1935.46 3371.33,1934.34 3371.64,1932.8 C3371.95,1930.76 3372.1,1927.82 3372.1,1923.98 L3372.1,1922.78 C3372.1,1913.56 3368.7,1908.95 3361.9,1908.95 C3355.9,1908.95 3352.9,1910.62 3352.9,1913.96 C3352.9,1915.08 3353.81,1916.27 3355.64,1917.54 C3357.46,1918.8 3358.37,1919.99 3358.37,1921.11 C3358.37,1923.52 3357.52,1925.59 3355.82,1927.32 C3354.12,1929.06 3352.05,1929.92 3349.61,1929.92 C3347.16,1929.92 3345.11,1929.06 3343.44,1927.32 C3341.77,1925.59 3340.93,1923.52 3340.93,1921.11 C3340.93,1916.35 3343,1912.54 3347.15,1909.7 C3351.29,1906.85 3356.21,1905.43 3361.9,1905.43 C3369.38,1905.43 3375.54,1906.87 3380.36,1909.74 C3385.19,1912.62 3387.6,1916.96 3387.6,1922.78 C3387.6,1926.92 3387.17,1930.14 3386.3,1932.43 C3385.43,1934.72 3384.44,1936.11 3383.33,1936.6 C3382.22,1937.1 3381.23,1937.67 3380.36,1938.32 C3379.5,1938.97 3379.06,1939.91 3379.06,1941.15"/>
<polyline class="FretDiagram" stroke="#fc02ff" stroke-width="4.76" stroke-linejoin="bevel" points="1455.45,206.022 1668.56,206.022"/>
<polyline class="FretDiagram" stroke="#fc02ff" stroke-width="4.76" stroke-linejoin="bevel" points="1457.84,194.117 1457.84,420.321"/>
<polyline class="FretDiagram" stroke="#fc02ff" stroke-width="4.76" stroke-linejoin="bevel" points="1499.51,194.117 1499.51,420.321"/>
<polyline class="FretDiagram" stroke="#fc02ff" stroke-width="4.76" stroke-linejoin="bevel" points="1541.17,194.117 1541.17,420.321"/>
<polyline class="FretDiagram" stroke="#fc02ff" stroke-width="4.76" stroke-linejoin="bevel" points="1582.84,194.117 1582.84,420.321"/>
<polyline class="FretDiagram" stroke="#fc02ff" stroke-width="4.76" stroke-linejoin="bevel" points="1624.51,194.117 1624.51,420.321"/>
<polyline class="FretDiagram" stroke="#fc02ff" stroke-width="4.76" stroke-linejoin="bevel" points="1666.18,194.117 1666.18,420.321"/>
<polyline class="FretDiagram" stroke="#fc02ff" stroke-width="4.76" stroke-linejoin="bevel" points="1457.84,253.644 1666.18,253.644"/>
<polyline class="FretDiagram" stroke="#fc02ff" stroke-width="4.76" stroke-linejoin="bevel" points="1457.84,301.266 1666.18,301.266"/>
<polyline class="FretDiagram" stroke="#fc02ff" stroke-width="4.76" stroke-linejoin="bevel" points="1457.84,348.888 1666.18,348.888"/>
<polyline class="FretDiagram" stroke="#fc02ff" stroke-width="4.76" stroke-linejoin="bevel" points="1457.84,396.51 1666.18,396.51"/>
<path class="FretDiagram" fill="#fc02ff" fill-rule="evenodd" d="M1514.09,277.455 C1514.09,285.51 1507.56,292.039 1499.51,292.039 C1491.45,292.039 1484.92,285.51 1484.92,277.455 C1484.92,269.401 1491.45,262.871 1499.51,262.871 C1507.56,262.871 1514.09,269.401 1514.09,277.455"/>
<path class="FretDiagram" fill="#fc02ff" fill-rule="evenodd" d="M1555.76,229.833 C1555.76,237.888 1549.23,244.417 1541.17,244.417 C1533.12,244.417 1526.59,237.888 1526.59,229.833 C1526.59,221.778 1533.12,215.249 1541.17,215.249 C1549.23,215.249 1555.76,221.778 1555.76,229.833"/>
<path class="FretDiagram" fill="#fc02ff" fill-rule="evenodd" d="M1597.43,277.455 C1597.43,285.51 1590.9,292.039 1582.84,292.039 C1574.79,292.039 1568.26,285.51 1568.26,277.455 C1568.26,269.401 1574.79,262.871 1582.84,262.871 C1590.9,262.871 1597.43,269.401 1597.43,277.455"/>
<polyline class="FretDiagram" fill="none" stroke="#fc02ff" stroke-width="6.86" stroke-linecap="round" stroke-linejoin="bevel" points="1441.17,141.732 1474.5,175.068"/>
<polyline class="FretDiagram" fill="none" stroke="#fc02ff" stroke-width="6.86" stroke-linecap="round" stroke-linejoin="bevel" points="1441.17,175.068 1474.5,141.732"/>
<polyline class="FretDiagram" fill="none" stroke="#fc02ff" stroke-width="6.86" stroke-linecap="round" stroke-linejoin="bevel" points="1607.85,141.732 1641.18,175.068"/>
<polyline class="FretDiagram" fill="none" stroke="#fc02ff" stroke-width="6.86" stroke-linecap="round" stroke-linejoin="bevel" points="1607.85,175.068 1641.18,141.732"/>
<polyline class="FretDiagram" fill="none" stroke="#fc02ff" stroke-width="6.86" stroke-linecap="round" stroke-linejoin="bevel" points="1649.51,141.732 1682.85,175.068"/>
<polyline class="FretDiagram" fill="none" stroke="#fc02ff" stroke-width="6.86" stroke-linecap="round" stroke-linejoin="bevel" points="1649.51,175.068 1682.85,141.732"/>
<path class="FretDiagram" fill="#fc02ff" d="M1436.72,228.6 C1436.72,234.553 1436.18,239.794 1435.11,244.322 C1434.03,248.85 1432.68,252.413 1431.07,255.01 C1429.45,257.606 1427.52,259.712 1425.27,261.327 C1423.03,262.942 1420.89,264.003 1418.86,264.51 C1416.84,265.016 1414.71,265.27 1412.5,265.27 C1407.37,265.27 1403.11,263.718 1399.72,260.615 C1396.33,257.511 1394.23,253.205 1393.4,247.695 L1401.76,247.695 C1402.46,250.925 1403.79,253.426 1405.75,255.2 C1407.72,256.973 1410.15,257.86 1413.07,257.86 C1417.88,257.86 1421.57,255.659 1424.13,251.257 C1426.7,246.855 1428.01,240.538 1428.08,232.305 C1423.9,237.308 1418.77,239.81 1412.69,239.81 C1406.61,239.81 1401.64,237.815 1397.77,233.825 C1393.91,229.835 1391.98,224.705 1391.98,218.435 C1391.98,211.848 1394.05,206.417 1398.2,202.142 C1402.35,197.867 1407.62,195.73 1414.02,195.73 C1429.15,195.73 1436.72,206.686 1436.72,228.6 M1413.92,203.045 C1410.06,203.045 1406.86,204.438 1404.33,207.225 C1401.79,210.011 1400.53,213.526 1400.53,217.77 C1400.53,222.266 1401.7,225.829 1404.04,228.457 C1406.39,231.085 1409.58,232.4 1413.64,232.4 C1417.69,232.4 1421.03,231.07 1423.66,228.41 C1426.29,225.75 1427.6,222.361 1427.6,218.245 C1427.6,213.875 1426.3,210.249 1423.71,207.367 C1421.11,204.485 1417.85,203.045 1413.92,203.045"/>
<path class="Bracket" transform="matrix(8.6315,0,0,9.28435,76.1283,2358.34)" d="M0.92002,-50 C2.69004,-51.88 6.2,-55.8 6.2,-63 C6.2,-72.1 2.25996,-81.32 2.25996,-86.97 C2.25996,-93.06 5.84004,-98.84 5.95,-99 C6.05996,-99.16 6.05,-99.39 5.94004,-99.46 C5.82998,-99.53 5.62002,-99.47 5.49004,-99.32 C5.35996,-99.17 0,-93.75 0,-85.6 C0,-76.75 3.5,-70.58 3.5,-59.07 C3.5,-56.89 2.55996,-53.36 0.1,-50.33 C-0.0799805,-50.17 -0.1,-49.89 0.0599609,-49.7 L0.0700195,-49.69 L0.1,-49.66 C2.55996,-46.63 3.5,-43.1 3.5,-40.92 C3.5,-29.4 0,-23.24 0,-14.39 C0,-6.25 5.35996,-0.8 5.49004,-0.659961 C5.62002,-0.52002 5.8,-0.42998 5.94004,-0.52002 C6.07998,-0.609961 6.07998,-0.77998 5.95,-0.97998 C5.82002,-1.17998 2.25996,-6.92002 2.25996,-13.01 C2.25996,-18.66 6.2,-27.9 6.2,-37 C6.2,-44.3 2.69004,-48.12 0.92002,-50"/>
</svg>
