<?xml version="1.0" encoding="UTF-8" standalone="no"?>
<svg width="4209.44px" height="2976.38px" viewBox="0 0 4209.44 2976.38"
 xmlns="http://www.w3.org/2000/svg" xmlns:xlink="http://www.w3.org/1999/xlink" version="1.2" baseProfile="tiny">
<title>ReMineur (18)</title>
<desc>Generated by MuseScore 3.6.2</desc>
<polyline class="StaffLines" fill="none" stroke="#000000" stroke-width="6.55" stroke-linejoin="bevel" points="153.819,558.425 4138.58,558.425"/>
<polyline class="StaffLines" fill="none" stroke="#000000" stroke-width="6.55" stroke-linejoin="bevel" points="153.819,647.717 4138.58,647.717"/>
<polyline class="StaffLines" fill="none" stroke="#000000" stroke-width="6.55" stroke-linejoin="bevel" points="153.819,737.008 4138.58,737.008"/>
<polyline class="StaffLines" fill="none" stroke="#000000" stroke-width="6.55" stroke-linejoin="bevel" points="153.819,826.299 4138.58,826.299"/>
<polyline class="StaffLines" fill="none" stroke="#000000" stroke-width="6.55" stroke-linejoin="bevel" points="153.819,915.591 4138.58,915.591"/>
<polyline class="StaffLines" fill="none" stroke="#000000" stroke-width="6.55" stroke-linejoin="bevel" points="153.819,1004.88 4138.58,1004.88"/>
<polyline class="StaffLines" fill="none" stroke="#000000" stroke-width="6.55" stroke-linejoin="bevel" points="153.819,1391.81 4138.58,1391.81"/>
<polyline class="StaffLines" fill="none" stroke="#000000" stroke-width="6.55" stroke-linejoin="bevel" points="153.819,1451.34 4138.58,1451.34"/>
<polyline class="StaffLines" fill="none" stroke="#000000" stroke-width="6.55" stroke-linejoin="bevel" points="153.819,1510.87 4138.58,1510.87"/>
<polyline class="StaffLines" fill="none" stroke="#000000" stroke-width="6.55" stroke-linejoin="bevel" points="153.819,1570.39 4138.58,1570.39"/>
<polyline class="StaffLines" fill="none" stroke="#000000" stroke-width="6.55" stroke-linejoin="bevel" points="153.819,1629.92 4138.58,1629.92"/>
<polyline class="StaffLines" fill="none" stroke="#000000" stroke-width="6.55" stroke-linejoin="bevel" points="153.819,2099.26 4138.58,2099.26"/>
<polyline class="StaffLines" fill="none" stroke="#000000" stroke-width="6.55" stroke-linejoin="bevel" points="153.819,2158.79 4138.58,2158.79"/>
<polyline class="StaffLines" fill="none" stroke="#000000" stroke-width="6.55" stroke-linejoin="bevel" points="153.819,2218.32 4138.58,2218.32"/>
<polyline class="StaffLines" fill="none" stroke="#000000" stroke-width="6.55" stroke-linejoin="bevel" points="153.819,2277.85 4138.58,2277.85"/>
<polyline class="StaffLines" fill="none" stroke="#000000" stroke-width="6.55" stroke-linejoin="bevel" points="153.819,2337.37 4138.58,2337.37"/>
<polyline class="BarLine" fill="none" stroke="#000000" stroke-width="10.71" stroke-linejoin="bevel" points="159.176,2095.99 159.176,2340.65"/>
<polyline class="BarLine" fill="none" stroke="#000000" stroke-width="10.71" stroke-linejoin="bevel" points="1083.8,2095.99 1083.8,2340.65"/>
<polyline class="BarLine" fill="none" stroke="#000000" stroke-width="10.71" stroke-linejoin="bevel" points="1743.34,2095.99 1743.34,2340.65"/>
<polyline class="BarLine" fill="none" stroke="#000000" stroke-width="10.71" stroke-linejoin="bevel" points="2295.99,2095.99 2295.99,2340.65"/>
<polyline class="BarLine" fill="none" stroke="#000000" stroke-width="10.71" stroke-linejoin="bevel" points="2328.73,2095.99 2328.73,2340.65"/>
<polyline class="BarLine" fill="none" stroke="#000000" stroke-width="10.71" stroke-linejoin="bevel" points="2868.35,2095.99 2868.35,2340.65"/>
<polyline class="BarLine" fill="none" stroke="#000000" stroke-width="10.71" stroke-linejoin="bevel" points="3527.88,2095.99 3527.88,2340.65"/>
<polyline class="BarLine" fill="none" stroke="#000000" stroke-width="10.71" stroke-linejoin="bevel" points="4080.54,2095.99 4080.54,2340.65"/>
<polyline class="BarLine" fill="none" stroke="#000000" stroke-width="32.74" stroke-linejoin="bevel" points="4122.21,2095.99 4122.21,2340.65"/>
<polyline class="BarLine" fill="none" stroke="#000000" stroke-width="10.71" stroke-linejoin="bevel" points="159.176,1388.54 159.176,2099.26"/>
<polyline class="BarLine" fill="none" stroke="#000000" stroke-width="10.71" stroke-linejoin="bevel" points="1083.8,1388.54 1083.8,1633.2"/>
<polyline class="BarLine" fill="none" stroke="#000000" stroke-width="10.71" stroke-linejoin="bevel" points="1743.34,1388.54 1743.34,1633.2"/>
<polyline class="BarLine" fill="none" stroke="#000000" stroke-width="10.71" stroke-linejoin="bevel" points="2295.99,1388.54 2295.99,1633.2"/>
<polyline class="BarLine" fill="none" stroke="#000000" stroke-width="10.71" stroke-linejoin="bevel" points="2328.73,1388.54 2328.73,1633.2"/>
<polyline class="BarLine" fill="none" stroke="#000000" stroke-width="10.71" stroke-linejoin="bevel" points="2868.35,1388.54 2868.35,1633.2"/>
<polyline class="BarLine" fill="none" stroke="#000000" stroke-width="10.71" stroke-linejoin="bevel" points="3527.88,1388.54 3527.88,1633.2"/>
<polyline class="BarLine" fill="none" stroke="#000000" stroke-width="10.71" stroke-linejoin="bevel" points="4080.54,1388.54 4080.54,1633.2"/>
<polyline class="BarLine" fill="none" stroke="#000000" stroke-width="32.74" stroke-linejoin="bevel" points="4122.21,1388.54 4122.21,1633.2"/>
<polyline class="BarLine" fill="none" stroke="#000000" stroke-width="10.71" stroke-linejoin="bevel" points="159.176,555.151 159.176,1391.81"/>
<polyline class="BarLine" fill="none" stroke="#000000" stroke-width="10.71" stroke-linejoin="bevel" points="1083.8,555.151 1083.8,1008.16"/>
<polyline class="BarLine" fill="none" stroke="#000000" stroke-width="10.71" stroke-linejoin="bevel" points="1743.34,555.151 1743.34,1008.16"/>
<polyline class="BarLine" fill="none" stroke="#000000" stroke-width="10.71" stroke-linejoin="bevel" points="2295.99,555.151 2295.99,1008.16"/>
<polyline class="BarLine" fill="none" stroke="#000000" stroke-width="10.71" stroke-linejoin="bevel" points="2328.73,555.151 2328.73,1008.16"/>
<polyline class="BarLine" fill="none" stroke="#000000" stroke-width="10.71" stroke-linejoin="bevel" points="2868.35,555.151 2868.35,1008.16"/>
<polyline class="BarLine" fill="none" stroke="#000000" stroke-width="10.71" stroke-linejoin="bevel" points="3527.88,555.151 3527.88,1008.16"/>
<polyline class="BarLine" fill="none" stroke="#000000" stroke-width="10.71" stroke-linejoin="bevel" points="4080.54,555.151 4080.54,1008.16"/>
<polyline class="BarLine" fill="none" stroke="#000000" stroke-width="32.74" stroke-linejoin="bevel" points="4122.21,555.151 4122.21,1008.16"/>
<path class="Accidental" transform="matrix(2.3811,0,0,2.3811,1135.23,1689.45)" d="M23.3,-10.6 C23.9,-10.7 24.4,-11.4 24.4,-12 L24.4,-17.9 C24.4,-18.7 23.8,-19.3 23,-19.3 L22.8,-19.3 L19.5,-18.6 L19.5,-33.5 L16.7,-33.5 L16.7,-18 L7.8,-16.2 L7.8,-30.3 L5,-30.3 L5,-15.6 L1.1,-14.8 C0.5,-14.7 0,-14 0,-13.4 L0,-13.2 L0,-7.4 L0,-7.6 C0,-6.8 0.6,-6.2 1.4,-6.2 L1.7,-6.2 L5,-6.9 L5,9.6 L1.1,10.4 C0.5,10.5 0,11.2 0,11.8 L0,17.6 C0,18.4 0.6,19 1.4,19 L1.7,19 L5,18.3 L5,33.2 L7.8,33.2 L7.8,17.7 L16.7,15.9 L16.7,30 L19.5,30 L19.5,15.3 L23.3,14.6 C23.9,14.5 24.4,13.8 24.4,13.2 L24.4,7.3 C24.4,6.5 23.8,5.9 23,5.9 L22.8,5.9 L19.5,6.6 L19.5,-9.9 L23.3,-10.6 M7.8,9.1 L7.8,-7.5 L16.7,-9.3 L16.7,7.2 L7.8,9.1 "/>
<path class="Accidental" transform="matrix(2.3811,0,0,2.3811,2919.77,1689.45)" d="M23.3,-10.6 C23.9,-10.7 24.4,-11.4 24.4,-12 L24.4,-17.9 C24.4,-18.7 23.8,-19.3 23,-19.3 L22.8,-19.3 L19.5,-18.6 L19.5,-33.5 L16.7,-33.5 L16.7,-18 L7.8,-16.2 L7.8,-30.3 L5,-30.3 L5,-15.6 L1.1,-14.8 C0.5,-14.7 0,-14 0,-13.4 L0,-13.2 L0,-7.4 L0,-7.6 C0,-6.8 0.6,-6.2 1.4,-6.2 L1.7,-6.2 L5,-6.9 L5,9.6 L1.1,10.4 C0.5,10.5 0,11.2 0,11.8 L0,17.6 C0,18.4 0.6,19 1.4,19 L1.7,19 L5,18.3 L5,33.2 L7.8,33.2 L7.8,17.7 L16.7,15.9 L16.7,30 L19.5,30 L19.5,15.3 L23.3,14.6 C23.9,14.5 24.4,13.8 24.4,13.2 L24.4,7.3 C24.4,6.5 23.8,5.9 23,5.9 L22.8,5.9 L19.5,6.6 L19.5,-9.9 L23.3,-10.6 M7.8,9.1 L7.8,-7.5 L16.7,-9.3 L16.7,7.2 L7.8,9.1 "/>
<polyline class="LedgerLine" fill="none" stroke="#000000" stroke-width="9.52" stroke-linejoin="bevel" points="626.933,2396.9 757.41,2396.9"/>
<polyline class="LedgerLine" fill="none" stroke="#000000" stroke-width="9.52" stroke-linejoin="bevel" points="1208.21,2396.9 1338.68,2396.9"/>
<polyline class="LedgerLine" fill="none" stroke="#000000" stroke-width="9.52" stroke-linejoin="bevel" points="1826.56,2396.9 1957.03,2396.9"/>
<polyline class="LedgerLine" fill="none" stroke="#000000" stroke-width="9.52" stroke-linejoin="bevel" points="2411.48,2396.9 2541.95,2396.9"/>
<polyline class="LedgerLine" fill="none" stroke="#000000" stroke-width="9.52" stroke-linejoin="bevel" points="3611.1,2396.9 3741.58,2396.9"/>
<polyline class="LedgerLine" fill="none" stroke="#000000" stroke-width="9.52" stroke-linejoin="bevel" points="1208.21,1689.45 1338.68,1689.45"/>
<polyline class="LedgerLine" fill="none" stroke="#000000" stroke-width="9.52" stroke-linejoin="bevel" points="2992.75,1689.45 3123.23,1689.45"/>
<path class="Note" transform="matrix(2.3811,0,0,2.3811,647.767,2396.9)" d="M18.7,-13.6 C4.9,-13.6 0,-6.6 0,-0.1 C0,6.4 4.9,13.4 18.7,13.4 C32.5,13.4 37.3,6.4 37.3,-0.1 C37.3,-6.6 32.5,-13.6 18.7,-13.6 M10.4,-4.5 C10.3,-4.9 10.3,-5.3 10.3,-5.7 C10.3,-6.5 10.5,-7.3 10.9,-8 C11.6,-9 12.8,-9.7 14.3,-10 C15.6,-10.3 16.3,-10.5 18.9,-10.5 L19,-10.5 C23,-10.5 24.3,-6.8 25.4,-3 L25.7,-2 C26.5,0.6 26.9,2.8 26.9,4.5 C26.9,5.7 26.7,6.8 26.3,7.6 C25.7,8.7 24.7,9.4 23,9.8 C22.1,10 20.6,10.1 20.6,10.1 C20.1,10.1 19.7,10.2 19.3,10.2 C16.1,10.2 14.1,9 12.7,4.7 C11.5,1 11.3,-0.1 10.4,-4.5"/>
<path class="Note" transform="matrix(2.3811,0,0,2.3811,1229.04,2396.9)" d="M18.7,-13.6 C4.9,-13.6 0,-6.6 0,-0.1 C0,6.4 4.9,13.4 18.7,13.4 C32.5,13.4 37.3,6.4 37.3,-0.1 C37.3,-6.6 32.5,-13.6 18.7,-13.6 M10.4,-4.5 C10.3,-4.9 10.3,-5.3 10.3,-5.7 C10.3,-6.5 10.5,-7.3 10.9,-8 C11.6,-9 12.8,-9.7 14.3,-10 C15.6,-10.3 16.3,-10.5 18.9,-10.5 L19,-10.5 C23,-10.5 24.3,-6.8 25.4,-3 L25.7,-2 C26.5,0.6 26.9,2.8 26.9,4.5 C26.9,5.7 26.7,6.8 26.3,7.6 C25.7,8.7 24.7,9.4 23,9.8 C22.1,10 20.6,10.1 20.6,10.1 C20.1,10.1 19.7,10.2 19.3,10.2 C16.1,10.2 14.1,9 12.7,4.7 C11.5,1 11.3,-0.1 10.4,-4.5"/>
<path class="Note" transform="matrix(2.3811,0,0,2.3811,1847.39,2426.67)" d="M18.7,-13.6 C4.9,-13.6 0,-6.6 0,-0.1 C0,6.4 4.9,13.4 18.7,13.4 C32.5,13.4 37.3,6.4 37.3,-0.1 C37.3,-6.6 32.5,-13.6 18.7,-13.6 M10.4,-4.5 C10.3,-4.9 10.3,-5.3 10.3,-5.7 C10.3,-6.5 10.5,-7.3 10.9,-8 C11.6,-9 12.8,-9.7 14.3,-10 C15.6,-10.3 16.3,-10.5 18.9,-10.5 L19,-10.5 C23,-10.5 24.3,-6.8 25.4,-3 L25.7,-2 C26.5,0.6 26.9,2.8 26.9,4.5 C26.9,5.7 26.7,6.8 26.3,7.6 C25.7,8.7 24.7,9.4 23,9.8 C22.1,10 20.6,10.1 20.6,10.1 C20.1,10.1 19.7,10.2 19.3,10.2 C16.1,10.2 14.1,9 12.7,4.7 C11.5,1 11.3,-0.1 10.4,-4.5"/>
<path class="Note" transform="matrix(2.3811,0,0,2.3811,2432.31,2396.9)" d="M18.7,-13.6 C4.9,-13.6 0,-6.6 0,-0.1 C0,6.4 4.9,13.4 18.7,13.4 C32.5,13.4 37.3,6.4 37.3,-0.1 C37.3,-6.6 32.5,-13.6 18.7,-13.6 M10.4,-4.5 C10.3,-4.9 10.3,-5.3 10.3,-5.7 C10.3,-6.5 10.5,-7.3 10.9,-8 C11.6,-9 12.8,-9.7 14.3,-10 C15.6,-10.3 16.3,-10.5 18.9,-10.5 L19,-10.5 C23,-10.5 24.3,-6.8 25.4,-3 L25.7,-2 C26.5,0.6 26.9,2.8 26.9,4.5 C26.9,5.7 26.7,6.8 26.3,7.6 C25.7,8.7 24.7,9.4 23,9.8 C22.1,10 20.6,10.1 20.6,10.1 C20.1,10.1 19.7,10.2 19.3,10.2 C16.1,10.2 14.1,9 12.7,4.7 C11.5,1 11.3,-0.1 10.4,-4.5"/>
<path class="Note" transform="matrix(2.3811,0,0,2.3811,3013.58,2307.61)" d="M18.7,-13.6 C4.9,-13.6 0,-6.6 0,-0.1 C0,6.4 4.9,13.4 18.7,13.4 C32.5,13.4 37.3,6.4 37.3,-0.1 C37.3,-6.6 32.5,-13.6 18.7,-13.6 M10.4,-4.5 C10.3,-4.9 10.3,-5.3 10.3,-5.7 C10.3,-6.5 10.5,-7.3 10.9,-8 C11.6,-9 12.8,-9.7 14.3,-10 C15.6,-10.3 16.3,-10.5 18.9,-10.5 L19,-10.5 C23,-10.5 24.3,-6.8 25.4,-3 L25.7,-2 C26.5,0.6 26.9,2.8 26.9,4.5 C26.9,5.7 26.7,6.8 26.3,7.6 C25.7,8.7 24.7,9.4 23,9.8 C22.1,10 20.6,10.1 20.6,10.1 C20.1,10.1 19.7,10.2 19.3,10.2 C16.1,10.2 14.1,9 12.7,4.7 C11.5,1 11.3,-0.1 10.4,-4.5"/>
<path class="Note" transform="matrix(2.3811,0,0,2.3811,3631.94,2426.67)" d="M18.7,-13.6 C4.9,-13.6 0,-6.6 0,-0.1 C0,6.4 4.9,13.4 18.7,13.4 C32.5,13.4 37.3,6.4 37.3,-0.1 C37.3,-6.6 32.5,-13.6 18.7,-13.6 M10.4,-4.5 C10.3,-4.9 10.3,-5.3 10.3,-5.7 C10.3,-6.5 10.5,-7.3 10.9,-8 C11.6,-9 12.8,-9.7 14.3,-10 C15.6,-10.3 16.3,-10.5 18.9,-10.5 L19,-10.5 C23,-10.5 24.3,-6.8 25.4,-3 L25.7,-2 C26.5,0.6 26.9,2.8 26.9,4.5 C26.9,5.7 26.7,6.8 26.3,7.6 C25.7,8.7 24.7,9.4 23,9.8 C22.1,10 20.6,10.1 20.6,10.1 C20.1,10.1 19.7,10.2 19.3,10.2 C16.1,10.2 14.1,9 12.7,4.7 C11.5,1 11.3,-0.1 10.4,-4.5"/>
<path class="Note" transform="matrix(2.3811,0,0,2.3811,647.767,1659.69)" d="M18.7,-13.6 C4.9,-13.6 0,-6.6 0,-0.1 C0,6.4 4.9,13.4 18.7,13.4 C32.5,13.4 37.3,6.4 37.3,-0.1 C37.3,-6.6 32.5,-13.6 18.7,-13.6 M10.4,-4.5 C10.3,-4.9 10.3,-5.3 10.3,-5.7 C10.3,-6.5 10.5,-7.3 10.9,-8 C11.6,-9 12.8,-9.7 14.3,-10 C15.6,-10.3 16.3,-10.5 18.9,-10.5 L19,-10.5 C23,-10.5 24.3,-6.8 25.4,-3 L25.7,-2 C26.5,0.6 26.9,2.8 26.9,4.5 C26.9,5.7 26.7,6.8 26.3,7.6 C25.7,8.7 24.7,9.4 23,9.8 C22.1,10 20.6,10.1 20.6,10.1 C20.1,10.1 19.7,10.2 19.3,10.2 C16.1,10.2 14.1,9 12.7,4.7 C11.5,1 11.3,-0.1 10.4,-4.5"/>
<path class="Note" transform="matrix(2.3811,0,0,2.3811,647.767,1570.39)" d="M18.7,-13.6 C4.9,-13.6 0,-6.6 0,-0.1 C0,6.4 4.9,13.4 18.7,13.4 C32.5,13.4 37.3,6.4 37.3,-0.1 C37.3,-6.6 32.5,-13.6 18.7,-13.6 M10.4,-4.5 C10.3,-4.9 10.3,-5.3 10.3,-5.7 C10.3,-6.5 10.5,-7.3 10.9,-8 C11.6,-9 12.8,-9.7 14.3,-10 C15.6,-10.3 16.3,-10.5 18.9,-10.5 L19,-10.5 C23,-10.5 24.3,-6.8 25.4,-3 L25.7,-2 C26.5,0.6 26.9,2.8 26.9,4.5 C26.9,5.7 26.7,6.8 26.3,7.6 C25.7,8.7 24.7,9.4 23,9.8 C22.1,10 20.6,10.1 20.6,10.1 C20.1,10.1 19.7,10.2 19.3,10.2 C16.1,10.2 14.1,9 12.7,4.7 C11.5,1 11.3,-0.1 10.4,-4.5"/>
<path class="Note" transform="matrix(2.3811,0,0,2.3811,647.767,1510.87)" d="M18.7,-13.6 C4.9,-13.6 0,-6.6 0,-0.1 C0,6.4 4.9,13.4 18.7,13.4 C32.5,13.4 37.3,6.4 37.3,-0.1 C37.3,-6.6 32.5,-13.6 18.7,-13.6 M10.4,-4.5 C10.3,-4.9 10.3,-5.3 10.3,-5.7 C10.3,-6.5 10.5,-7.3 10.9,-8 C11.6,-9 12.8,-9.7 14.3,-10 C15.6,-10.3 16.3,-10.5 18.9,-10.5 L19,-10.5 C23,-10.5 24.3,-6.8 25.4,-3 L25.7,-2 C26.5,0.6 26.9,2.8 26.9,4.5 C26.9,5.7 26.7,6.8 26.3,7.6 C25.7,8.7 24.7,9.4 23,9.8 C22.1,10 20.6,10.1 20.6,10.1 C20.1,10.1 19.7,10.2 19.3,10.2 C16.1,10.2 14.1,9 12.7,4.7 C11.5,1 11.3,-0.1 10.4,-4.5"/>
<path class="Note" transform="matrix(2.3811,0,0,2.3811,1229.04,1689.45)" d="M18.7,-13.6 C4.9,-13.6 0,-6.6 0,-0.1 C0,6.4 4.9,13.4 18.7,13.4 C32.5,13.4 37.3,6.4 37.3,-0.1 C37.3,-6.6 32.5,-13.6 18.7,-13.6 M10.4,-4.5 C10.3,-4.9 10.3,-5.3 10.3,-5.7 C10.3,-6.5 10.5,-7.3 10.9,-8 C11.6,-9 12.8,-9.7 14.3,-10 C15.6,-10.3 16.3,-10.5 18.9,-10.5 L19,-10.5 C23,-10.5 24.3,-6.8 25.4,-3 L25.7,-2 C26.5,0.6 26.9,2.8 26.9,4.5 C26.9,5.7 26.7,6.8 26.3,7.6 C25.7,8.7 24.7,9.4 23,9.8 C22.1,10 20.6,10.1 20.6,10.1 C20.1,10.1 19.7,10.2 19.3,10.2 C16.1,10.2 14.1,9 12.7,4.7 C11.5,1 11.3,-0.1 10.4,-4.5"/>
<path class="Note" transform="matrix(2.3811,0,0,2.3811,1229.04,1570.39)" d="M18.7,-13.6 C4.9,-13.6 0,-6.6 0,-0.1 C0,6.4 4.9,13.4 18.7,13.4 C32.5,13.4 37.3,6.4 37.3,-0.1 C37.3,-6.6 32.5,-13.6 18.7,-13.6 M10.4,-4.5 C10.3,-4.9 10.3,-5.3 10.3,-5.7 C10.3,-6.5 10.5,-7.3 10.9,-8 C11.6,-9 12.8,-9.7 14.3,-10 C15.6,-10.3 16.3,-10.5 18.9,-10.5 L19,-10.5 C23,-10.5 24.3,-6.8 25.4,-3 L25.7,-2 C26.5,0.6 26.9,2.8 26.9,4.5 C26.9,5.7 26.7,6.8 26.3,7.6 C25.7,8.7 24.7,9.4 23,9.8 C22.1,10 20.6,10.1 20.6,10.1 C20.1,10.1 19.7,10.2 19.3,10.2 C16.1,10.2 14.1,9 12.7,4.7 C11.5,1 11.3,-0.1 10.4,-4.5"/>
<path class="Note" transform="matrix(2.3811,0,0,2.3811,1311.3,1540.63)" d="M18.7,-13.6 C4.9,-13.6 0,-6.6 0,-0.1 C0,6.4 4.9,13.4 18.7,13.4 C32.5,13.4 37.3,6.4 37.3,-0.1 C37.3,-6.6 32.5,-13.6 18.7,-13.6 M10.4,-4.5 C10.3,-4.9 10.3,-5.3 10.3,-5.7 C10.3,-6.5 10.5,-7.3 10.9,-8 C11.6,-9 12.8,-9.7 14.3,-10 C15.6,-10.3 16.3,-10.5 18.9,-10.5 L19,-10.5 C23,-10.5 24.3,-6.8 25.4,-3 L25.7,-2 C26.5,0.6 26.9,2.8 26.9,4.5 C26.9,5.7 26.7,6.8 26.3,7.6 C25.7,8.7 24.7,9.4 23,9.8 C22.1,10 20.6,10.1 20.6,10.1 C20.1,10.1 19.7,10.2 19.3,10.2 C16.1,10.2 14.1,9 12.7,4.7 C11.5,1 11.3,-0.1 10.4,-4.5"/>
<path class="Note" transform="matrix(2.3811,0,0,2.3811,1847.39,1659.69)" d="M18.7,-13.6 C4.9,-13.6 0,-6.6 0,-0.1 C0,6.4 4.9,13.4 18.7,13.4 C32.5,13.4 37.3,6.4 37.3,-0.1 C37.3,-6.6 32.5,-13.6 18.7,-13.6 M10.4,-4.5 C10.3,-4.9 10.3,-5.3 10.3,-5.7 C10.3,-6.5 10.5,-7.3 10.9,-8 C11.6,-9 12.8,-9.7 14.3,-10 C15.6,-10.3 16.3,-10.5 18.9,-10.5 L19,-10.5 C23,-10.5 24.3,-6.8 25.4,-3 L25.7,-2 C26.5,0.6 26.9,2.8 26.9,4.5 C26.9,5.7 26.7,6.8 26.3,7.6 C25.7,8.7 24.7,9.4 23,9.8 C22.1,10 20.6,10.1 20.6,10.1 C20.1,10.1 19.7,10.2 19.3,10.2 C16.1,10.2 14.1,9 12.7,4.7 C11.5,1 11.3,-0.1 10.4,-4.5"/>
<path class="Note" transform="matrix(2.3811,0,0,2.3811,1847.39,1600.16)" d="M18.7,-13.6 C4.9,-13.6 0,-6.6 0,-0.1 C0,6.4 4.9,13.4 18.7,13.4 C32.5,13.4 37.3,6.4 37.3,-0.1 C37.3,-6.6 32.5,-13.6 18.7,-13.6 M10.4,-4.5 C10.3,-4.9 10.3,-5.3 10.3,-5.7 C10.3,-6.5 10.5,-7.3 10.9,-8 C11.6,-9 12.8,-9.7 14.3,-10 C15.6,-10.3 16.3,-10.5 18.9,-10.5 L19,-10.5 C23,-10.5 24.3,-6.8 25.4,-3 L25.7,-2 C26.5,0.6 26.9,2.8 26.9,4.5 C26.9,5.7 26.7,6.8 26.3,7.6 C25.7,8.7 24.7,9.4 23,9.8 C22.1,10 20.6,10.1 20.6,10.1 C20.1,10.1 19.7,10.2 19.3,10.2 C16.1,10.2 14.1,9 12.7,4.7 C11.5,1 11.3,-0.1 10.4,-4.5"/>
<path class="Note" transform="matrix(2.3811,0,0,2.3811,1847.39,1540.63)" d="M18.7,-13.6 C4.9,-13.6 0,-6.6 0,-0.1 C0,6.4 4.9,13.4 18.7,13.4 C32.5,13.4 37.3,6.4 37.3,-0.1 C37.3,-6.6 32.5,-13.6 18.7,-13.6 M10.4,-4.5 C10.3,-4.9 10.3,-5.3 10.3,-5.7 C10.3,-6.5 10.5,-7.3 10.9,-8 C11.6,-9 12.8,-9.7 14.3,-10 C15.6,-10.3 16.3,-10.5 18.9,-10.5 L19,-10.5 C23,-10.5 24.3,-6.8 25.4,-3 L25.7,-2 C26.5,0.6 26.9,2.8 26.9,4.5 C26.9,5.7 26.7,6.8 26.3,7.6 C25.7,8.7 24.7,9.4 23,9.8 C22.1,10 20.6,10.1 20.6,10.1 C20.1,10.1 19.7,10.2 19.3,10.2 C16.1,10.2 14.1,9 12.7,4.7 C11.5,1 11.3,-0.1 10.4,-4.5"/>
<path class="Note" transform="matrix(2.3811,0,0,2.3811,2432.31,1659.69)" d="M18.7,-13.6 C4.9,-13.6 0,-6.6 0,-0.1 C0,6.4 4.9,13.4 18.7,13.4 C32.5,13.4 37.3,6.4 37.3,-0.1 C37.3,-6.6 32.5,-13.6 18.7,-13.6 M10.4,-4.5 C10.3,-4.9 10.3,-5.3 10.3,-5.7 C10.3,-6.5 10.5,-7.3 10.9,-8 C11.6,-9 12.8,-9.7 14.3,-10 C15.6,-10.3 16.3,-10.5 18.9,-10.5 L19,-10.5 C23,-10.5 24.3,-6.8 25.4,-3 L25.7,-2 C26.5,0.6 26.9,2.8 26.9,4.5 C26.9,5.7 26.7,6.8 26.3,7.6 C25.7,8.7 24.7,9.4 23,9.8 C22.1,10 20.6,10.1 20.6,10.1 C20.1,10.1 19.7,10.2 19.3,10.2 C16.1,10.2 14.1,9 12.7,4.7 C11.5,1 11.3,-0.1 10.4,-4.5"/>
<path class="Note" transform="matrix(2.3811,0,0,2.3811,2432.31,1570.39)" d="M18.7,-13.6 C4.9,-13.6 0,-6.6 0,-0.1 C0,6.4 4.9,13.4 18.7,13.4 C32.5,13.4 37.3,6.4 37.3,-0.1 C37.3,-6.6 32.5,-13.6 18.7,-13.6 M10.4,-4.5 C10.3,-4.9 10.3,-5.3 10.3,-5.7 C10.3,-6.5 10.5,-7.3 10.9,-8 C11.6,-9 12.8,-9.7 14.3,-10 C15.6,-10.3 16.3,-10.5 18.9,-10.5 L19,-10.5 C23,-10.5 24.3,-6.8 25.4,-3 L25.7,-2 C26.5,0.6 26.9,2.8 26.9,4.5 C26.9,5.7 26.7,6.8 26.3,7.6 C25.7,8.7 24.7,9.4 23,9.8 C22.1,10 20.6,10.1 20.6,10.1 C20.1,10.1 19.7,10.2 19.3,10.2 C16.1,10.2 14.1,9 12.7,4.7 C11.5,1 11.3,-0.1 10.4,-4.5"/>
<path class="Note" transform="matrix(2.3811,0,0,2.3811,2432.31,1510.87)" d="M18.7,-13.6 C4.9,-13.6 0,-6.6 0,-0.1 C0,6.4 4.9,13.4 18.7,13.4 C32.5,13.4 37.3,6.4 37.3,-0.1 C37.3,-6.6 32.5,-13.6 18.7,-13.6 M10.4,-4.5 C10.3,-4.9 10.3,-5.3 10.3,-5.7 C10.3,-6.5 10.5,-7.3 10.9,-8 C11.6,-9 12.8,-9.7 14.3,-10 C15.6,-10.3 16.3,-10.5 18.9,-10.5 L19,-10.5 C23,-10.5 24.3,-6.8 25.4,-3 L25.7,-2 C26.5,0.6 26.9,2.8 26.9,4.5 C26.9,5.7 26.7,6.8 26.3,7.6 C25.7,8.7 24.7,9.4 23,9.8 C22.1,10 20.6,10.1 20.6,10.1 C20.1,10.1 19.7,10.2 19.3,10.2 C16.1,10.2 14.1,9 12.7,4.7 C11.5,1 11.3,-0.1 10.4,-4.5"/>
<path class="Note" transform="matrix(2.3811,0,0,2.3811,3013.58,1689.45)" d="M18.7,-13.6 C4.9,-13.6 0,-6.6 0,-0.1 C0,6.4 4.9,13.4 18.7,13.4 C32.5,13.4 37.3,6.4 37.3,-0.1 C37.3,-6.6 32.5,-13.6 18.7,-13.6 M10.4,-4.5 C10.3,-4.9 10.3,-5.3 10.3,-5.7 C10.3,-6.5 10.5,-7.3 10.9,-8 C11.6,-9 12.8,-9.7 14.3,-10 C15.6,-10.3 16.3,-10.5 18.9,-10.5 L19,-10.5 C23,-10.5 24.3,-6.8 25.4,-3 L25.7,-2 C26.5,0.6 26.9,2.8 26.9,4.5 C26.9,5.7 26.7,6.8 26.3,7.6 C25.7,8.7 24.7,9.4 23,9.8 C22.1,10 20.6,10.1 20.6,10.1 C20.1,10.1 19.7,10.2 19.3,10.2 C16.1,10.2 14.1,9 12.7,4.7 C11.5,1 11.3,-0.1 10.4,-4.5"/>
<path class="Note" transform="matrix(2.3811,0,0,2.3811,3013.58,1570.39)" d="M18.7,-13.6 C4.9,-13.6 0,-6.6 0,-0.1 C0,6.4 4.9,13.4 18.7,13.4 C32.5,13.4 37.3,6.4 37.3,-0.1 C37.3,-6.6 32.5,-13.6 18.7,-13.6 M10.4,-4.5 C10.3,-4.9 10.3,-5.3 10.3,-5.7 C10.3,-6.5 10.5,-7.3 10.9,-8 C11.6,-9 12.8,-9.7 14.3,-10 C15.6,-10.3 16.3,-10.5 18.9,-10.5 L19,-10.5 C23,-10.5 24.3,-6.8 25.4,-3 L25.7,-2 C26.5,0.6 26.9,2.8 26.9,4.5 C26.9,5.7 26.7,6.8 26.3,7.6 C25.7,8.7 24.7,9.4 23,9.8 C22.1,10 20.6,10.1 20.6,10.1 C20.1,10.1 19.7,10.2 19.3,10.2 C16.1,10.2 14.1,9 12.7,4.7 C11.5,1 11.3,-0.1 10.4,-4.5"/>
<path class="Note" transform="matrix(2.3811,0,0,2.3811,3095.84,1540.63)" d="M18.7,-13.6 C4.9,-13.6 0,-6.6 0,-0.1 C0,6.4 4.9,13.4 18.7,13.4 C32.5,13.4 37.3,6.4 37.3,-0.1 C37.3,-6.6 32.5,-13.6 18.7,-13.6 M10.4,-4.5 C10.3,-4.9 10.3,-5.3 10.3,-5.7 C10.3,-6.5 10.5,-7.3 10.9,-8 C11.6,-9 12.8,-9.7 14.3,-10 C15.6,-10.3 16.3,-10.5 18.9,-10.5 L19,-10.5 C23,-10.5 24.3,-6.8 25.4,-3 L25.7,-2 C26.5,0.6 26.9,2.8 26.9,4.5 C26.9,5.7 26.7,6.8 26.3,7.6 C25.7,8.7 24.7,9.4 23,9.8 C22.1,10 20.6,10.1 20.6,10.1 C20.1,10.1 19.7,10.2 19.3,10.2 C16.1,10.2 14.1,9 12.7,4.7 C11.5,1 11.3,-0.1 10.4,-4.5"/>
<path class="Note" transform="matrix(2.3811,0,0,2.3811,3631.94,1659.69)" d="M18.7,-13.6 C4.9,-13.6 0,-6.6 0,-0.1 C0,6.4 4.9,13.4 18.7,13.4 C32.5,13.4 37.3,6.4 37.3,-0.1 C37.3,-6.6 32.5,-13.6 18.7,-13.6 M10.4,-4.5 C10.3,-4.9 10.3,-5.3 10.3,-5.7 C10.3,-6.5 10.5,-7.3 10.9,-8 C11.6,-9 12.8,-9.7 14.3,-10 C15.6,-10.3 16.3,-10.5 18.9,-10.5 L19,-10.5 C23,-10.5 24.3,-6.8 25.4,-3 L25.7,-2 C26.5,0.6 26.9,2.8 26.9,4.5 C26.9,5.7 26.7,6.8 26.3,7.6 C25.7,8.7 24.7,9.4 23,9.8 C22.1,10 20.6,10.1 20.6,10.1 C20.1,10.1 19.7,10.2 19.3,10.2 C16.1,10.2 14.1,9 12.7,4.7 C11.5,1 11.3,-0.1 10.4,-4.5"/>
<path class="Note" transform="matrix(2.3811,0,0,2.3811,3631.94,1600.16)" d="M18.7,-13.6 C4.9,-13.6 0,-6.6 0,-0.1 C0,6.4 4.9,13.4 18.7,13.4 C32.5,13.4 37.3,6.4 37.3,-0.1 C37.3,-6.6 32.5,-13.6 18.7,-13.6 M10.4,-4.5 C10.3,-4.9 10.3,-5.3 10.3,-5.7 C10.3,-6.5 10.5,-7.3 10.9,-8 C11.6,-9 12.8,-9.7 14.3,-10 C15.6,-10.3 16.3,-10.5 18.9,-10.5 L19,-10.5 C23,-10.5 24.3,-6.8 25.4,-3 L25.7,-2 C26.5,0.6 26.9,2.8 26.9,4.5 C26.9,5.7 26.7,6.8 26.3,7.6 C25.7,8.7 24.7,9.4 23,9.8 C22.1,10 20.6,10.1 20.6,10.1 C20.1,10.1 19.7,10.2 19.3,10.2 C16.1,10.2 14.1,9 12.7,4.7 C11.5,1 11.3,-0.1 10.4,-4.5"/>
<path class="Note" transform="matrix(2.3811,0,0,2.3811,3631.94,1540.63)" d="M18.7,-13.6 C4.9,-13.6 0,-6.6 0,-0.1 C0,6.4 4.9,13.4 18.7,13.4 C32.5,13.4 37.3,6.4 37.3,-0.1 C37.3,-6.6 32.5,-13.6 18.7,-13.6 M10.4,-4.5 C10.3,-4.9 10.3,-5.3 10.3,-5.7 C10.3,-6.5 10.5,-7.3 10.9,-8 C11.6,-9 12.8,-9.7 14.3,-10 C15.6,-10.3 16.3,-10.5 18.9,-10.5 L19,-10.5 C23,-10.5 24.3,-6.8 25.4,-3 L25.7,-2 C26.5,0.6 26.9,2.8 26.9,4.5 C26.9,5.7 26.7,6.8 26.3,7.6 C25.7,8.7 24.7,9.4 23,9.8 C22.1,10 20.6,10.1 20.6,10.1 C20.1,10.1 19.7,10.2 19.3,10.2 C16.1,10.2 14.1,9 12.7,4.7 C11.5,1 11.3,-0.1 10.4,-4.5"/>
<path class="Note" d="M643.788,1098.35 C643.4,1099.05 642.819,1099.4 642.045,1099.4 C641.347,1099.4 640.456,1099.09 639.372,1098.47 C637.745,1097.54 636.931,1096.61 636.931,1095.68 C636.931,1095.37 637.048,1094.98 637.28,1094.52 C655.022,1068.95 666.1,1047.41 670.516,1029.91 C670.826,1029.36 671.369,1029.09 672.143,1029.09 C673.15,1029.09 674.584,1029.63 676.443,1030.72 C679,1032.19 680.278,1033.51 680.278,1034.67 C680.278,1034.98 680.201,1035.25 680.046,1035.48 C674.158,1052.22 662.072,1073.17 643.788,1098.35 M664.706,1105.33 C664.318,1106.02 663.737,1106.37 662.963,1106.37 C662.265,1106.37 661.374,1106.06 660.29,1105.44 C658.663,1104.51 657.849,1103.58 657.849,1102.65 C657.849,1102.34 657.966,1101.96 658.198,1101.49 C675.94,1075.92 687.018,1054.39 691.434,1036.88 C691.744,1036.34 692.287,1036.06 693.061,1036.06 C694.068,1036.06 695.502,1036.61 697.361,1037.69 C699.918,1039.16 701.196,1040.48 701.196,1041.64 C701.196,1041.95 701.119,1042.22 700.964,1042.46 C695.076,1059.19 682.99,1080.15 664.706,1105.33 M748.259,1059.89 C752.83,1059.89 755.115,1062.75 755.115,1068.49 C755.115,1072.52 752.597,1078.52 747.561,1086.5 C743.533,1092.93 741.518,1099.21 741.518,1105.33 C741.518,1108.81 746.593,1110.56 756.742,1110.56 C765.109,1110.56 776.769,1106.02 791.721,1096.96 C776.691,1111.45 763.637,1118.69 752.558,1118.69 C742.564,1118.69 735.592,1117.18 731.64,1114.16 C730.633,1113.38 729.781,1112.45 729.084,1111.37 C725.21,1116.09 718.741,1118.46 709.677,1118.46 C700.999,1118.46 694.337,1116.68 689.688,1113.11 C686.589,1110.71 685.04,1106.88 685.04,1101.61 C685.04,1093.24 689.998,1084.1 699.915,1074.18 C710.529,1063.57 722.808,1058.26 736.754,1058.26 C740.24,1058.26 742.797,1059.54 744.424,1062.1 C745.741,1060.62 747.019,1059.89 748.259,1059.89 M727.457,1106.14 C727.379,1105.52 727.341,1104.9 727.341,1104.28 C727.341,1103.97 731.292,1093.16 739.194,1071.86 C739.969,1069.77 740.744,1067.98 741.518,1066.51 C738.497,1065.89 735.514,1065.58 732.57,1065.58 C727.147,1065.58 719.942,1070.19 710.955,1079.41 C702.898,1087.62 698.869,1094.71 698.869,1100.68 C698.869,1107.26 702.007,1110.56 708.282,1110.56 C715.874,1110.56 722.266,1109.08 727.457,1106.14"/>
<path class="Note" d="M726.587,851.839 C731.158,851.839 733.443,854.705 733.443,860.438 C733.443,864.467 730.925,870.471 725.889,878.451 C721.861,884.881 719.846,891.157 719.846,897.277 C719.846,900.763 724.921,902.507 735.07,902.507 C743.437,902.507 755.097,897.974 770.049,888.91 C755.019,903.398 741.965,910.641 730.886,910.641 C720.892,910.641 713.92,909.131 709.968,906.109 C708.961,905.334 708.109,904.405 707.412,903.32 C703.538,908.046 697.069,910.409 688.005,910.409 C679.327,910.409 672.665,908.627 668.016,905.063 C664.917,902.662 663.368,898.827 663.368,893.558 C663.368,885.191 668.326,876.049 678.243,866.133 C688.857,855.519 701.136,850.212 715.082,850.212 C718.568,850.212 721.125,851.49 722.752,854.047 C724.069,852.575 725.347,851.839 726.587,851.839 M705.785,898.091 C705.707,897.471 705.669,896.851 705.669,896.231 C705.669,895.921 709.62,885.114 717.522,863.808 C718.297,861.717 719.072,859.935 719.846,858.463 C716.825,857.843 713.842,857.533 710.898,857.533 C705.475,857.533 698.27,862.143 689.283,871.362 C681.226,879.574 677.197,886.663 677.197,892.629 C677.197,899.214 680.335,902.507 686.61,902.507 C694.202,902.507 700.594,901.035 705.785,898.091"/>
<path class="Note" d="M726.587,762.547 C731.158,762.547 733.443,765.414 733.443,771.147 C733.443,775.176 730.925,781.18 725.889,789.16 C721.861,795.59 719.846,801.865 719.846,807.986 C719.846,811.472 724.921,813.215 735.07,813.215 C743.437,813.215 755.097,808.683 770.049,799.619 C755.019,814.106 741.965,821.35 730.886,821.35 C720.892,821.35 713.92,819.839 709.968,816.818 C708.961,816.043 708.109,815.113 707.412,814.029 C703.538,818.755 697.069,821.118 688.005,821.118 C679.327,821.118 672.665,819.336 668.016,815.772 C664.917,813.37 663.368,809.535 663.368,804.267 C663.368,795.9 668.326,786.758 678.243,776.841 C688.857,766.227 701.136,760.92 715.082,760.92 C718.568,760.92 721.125,762.199 722.752,764.755 C724.069,763.283 725.347,762.547 726.587,762.547 M705.785,808.799 C705.707,808.179 705.669,807.56 705.669,806.94 C705.669,806.63 709.62,795.822 717.522,774.517 C718.297,772.425 719.072,770.643 719.846,769.171 C716.825,768.552 713.842,768.242 710.898,768.242 C705.475,768.242 698.27,772.851 689.283,782.071 C681.226,790.283 677.197,797.372 677.197,803.337 C677.197,809.923 680.335,813.215 686.61,813.215 C694.202,813.215 700.594,811.743 705.785,808.799"/>
<path class="Note" d="M733.675,491.768 C744.134,485.183 751.727,479.798 756.453,475.615 C765.13,467.945 769.468,460.197 769.468,452.373 C769.468,443.231 763.348,438.66 751.107,438.66 C738.246,438.66 724.843,447.918 710.898,466.434 C701.446,478.985 694.745,490.838 690.794,501.995 C695.674,498.818 700.826,497.23 706.25,497.23 C711.363,497.23 715.43,499.515 718.452,504.086 C720.544,507.263 721.589,512.686 721.589,520.356 C721.589,527.251 717.948,535.347 710.666,544.644 C706.172,550.377 701.175,553.244 695.674,553.244 C688.702,553.244 683.821,551.849 681.032,549.06 C677.081,545.109 675.105,537.284 675.105,525.585 C675.105,505.907 683.046,486.539 698.928,467.48 C716.825,446.02 733.985,435.29 750.41,435.29 C763.116,435.29 772.606,438.272 778.881,444.238 C782.523,447.724 784.343,452.76 784.343,459.345 C784.343,466.705 777.1,474.917 762.612,483.982 C755.019,488.785 745.374,491.381 733.675,491.768 M689.283,506.875 C687.346,513.383 686.378,519.62 686.378,525.585 C686.378,539.763 688.624,546.852 693.118,546.852 C697.379,546.852 700.71,543.831 703.112,537.788 C705.901,530.97 707.296,523.416 707.296,515.126 C707.296,507.766 704.855,504.086 699.974,504.086 C696.565,504.086 693.002,505.016 689.283,506.875"/>
<path class="Note" d="M1225.06,1098.35 C1224.67,1099.05 1224.09,1099.4 1223.32,1099.4 C1222.62,1099.4 1221.73,1099.09 1220.64,1098.47 C1219.02,1097.54 1218.2,1096.61 1218.2,1095.68 C1218.2,1095.37 1218.32,1094.98 1218.55,1094.52 C1236.29,1068.95 1247.37,1047.41 1251.79,1029.91 C1252.1,1029.36 1252.64,1029.09 1253.42,1029.09 C1254.42,1029.09 1255.86,1029.63 1257.72,1030.72 C1260.27,1032.19 1261.55,1033.51 1261.55,1034.67 C1261.55,1034.98 1261.47,1035.25 1261.32,1035.48 C1255.43,1052.22 1243.34,1073.17 1225.06,1098.35 M1245.98,1105.33 C1245.59,1106.02 1245.01,1106.37 1244.24,1106.37 C1243.54,1106.37 1242.65,1106.06 1241.56,1105.44 C1239.94,1104.51 1239.12,1103.58 1239.12,1102.65 C1239.12,1102.34 1239.24,1101.96 1239.47,1101.49 C1257.21,1075.92 1268.29,1054.39 1272.71,1036.88 C1273.02,1036.34 1273.56,1036.06 1274.33,1036.06 C1275.34,1036.06 1276.77,1036.61 1278.63,1037.69 C1281.19,1039.16 1282.47,1040.48 1282.47,1041.64 C1282.47,1041.95 1282.39,1042.22 1282.24,1042.46 C1276.35,1059.19 1264.26,1080.15 1245.98,1105.33 M1329.53,1059.89 C1334.1,1059.89 1336.39,1062.75 1336.39,1068.49 C1336.39,1072.52 1333.87,1078.52 1328.83,1086.5 C1324.81,1092.93 1322.79,1099.21 1322.79,1105.33 C1322.79,1108.81 1327.87,1110.56 1338.01,1110.56 C1346.38,1110.56 1358.04,1106.02 1372.99,1096.96 C1357.96,1111.45 1344.91,1118.69 1333.83,1118.69 C1323.84,1118.69 1316.86,1117.18 1312.91,1114.16 C1311.91,1113.38 1311.05,1112.45 1310.36,1111.37 C1306.48,1116.09 1300.01,1118.46 1290.95,1118.46 C1282.27,1118.46 1275.61,1116.68 1270.96,1113.11 C1267.86,1110.71 1266.31,1106.88 1266.31,1101.61 C1266.31,1093.24 1271.27,1084.1 1281.19,1074.18 C1291.8,1063.57 1304.08,1058.26 1318.03,1058.26 C1321.51,1058.26 1324.07,1059.54 1325.7,1062.1 C1327.01,1060.62 1328.29,1059.89 1329.53,1059.89 M1308.73,1106.14 C1308.65,1105.52 1308.61,1104.9 1308.61,1104.28 C1308.61,1103.97 1312.56,1093.16 1320.47,1071.86 C1321.24,1069.77 1322.02,1067.98 1322.79,1066.51 C1319.77,1065.89 1316.79,1065.58 1313.84,1065.58 C1308.42,1065.58 1301.21,1070.19 1292.23,1079.41 C1284.17,1087.62 1280.14,1094.71 1280.14,1100.68 C1280.14,1107.26 1283.28,1110.56 1289.55,1110.56 C1297.15,1110.56 1303.54,1109.08 1308.73,1106.14"/>
<path class="Note" d="M1343.65,973.437 C1337.3,983.431 1327.27,991.721 1313.55,998.306 C1301.62,1004.04 1290.47,1006.91 1280.08,1006.91 C1271.8,1006.91 1264.9,1005.24 1259.4,1001.91 C1253.43,998.267 1250.45,993.929 1250.45,988.893 C1250.45,977.504 1253.43,967.704 1259.4,959.491 C1267.53,948.335 1275.75,942.757 1284.04,942.757 C1289.92,942.757 1294.11,943.919 1296.59,946.243 C1300,949.265 1301.7,953.41 1301.7,958.678 C1301.7,966.115 1296.16,972.584 1285.08,978.085 C1274.31,983.431 1266.84,986.917 1262.65,988.544 C1263.58,990.481 1264.78,992.224 1266.26,993.774 C1269.9,997.647 1274.86,999.584 1281.13,999.584 C1289.03,999.584 1299.65,996.679 1312.97,990.868 C1325.76,985.213 1335.98,979.402 1343.65,973.437 M1261.03,983.198 C1266.84,980.254 1272.14,976.807 1276.95,972.856 C1284.07,967.045 1287.64,960.77 1287.64,954.029 C1287.64,950.233 1285.9,948.335 1282.41,948.335 C1279.47,948.335 1275.44,951.705 1270.32,958.445 C1263.89,966.813 1260.68,973.63 1260.68,978.899 C1260.68,980.371 1260.79,981.804 1261.03,983.198"/>
<path class="Note" d="M1196.77,587.916 C1197.08,576.217 1203.55,565.836 1216.18,556.771 C1227.41,548.714 1239.69,544.685 1253.02,544.685 C1271.69,544.685 1288.15,552.007 1302.41,566.649 C1311.47,576.024 1316,587.645 1316,601.513 C1316,613.986 1312.67,623.554 1306.01,630.217 C1297.87,638.429 1289.27,642.535 1280.21,642.535 C1274.01,642.535 1269.21,641.14 1265.8,638.351 C1260.22,633.78 1257.43,627.66 1257.43,619.99 C1257.43,610.073 1262.39,601.009 1272.31,592.797 C1280.44,586.056 1288.62,581.64 1296.83,579.549 C1294.66,575.83 1291.91,572.344 1288.58,569.09 C1278.2,558.941 1266.42,553.866 1253.25,553.866 C1239.54,553.866 1228.19,556.849 1219.2,562.814 C1209.9,568.935 1202.43,577.302 1196.77,587.916 M1299.73,585.708 C1295.47,589.659 1291.21,593.881 1286.95,598.375 C1278.58,607.207 1274.4,615.574 1274.4,623.476 C1274.4,631.921 1276.34,636.143 1280.21,636.143 C1283.7,636.143 1288.58,631.379 1294.85,621.849 C1299.89,614.257 1302.41,607.284 1302.41,600.931 C1302.41,595.508 1301.52,590.434 1299.73,585.708"/>
<path class="Note" d="M1307.86,494.673 C1312.43,494.673 1314.72,497.54 1314.72,503.273 C1314.72,507.302 1312.2,513.306 1307.16,521.286 C1303.13,527.716 1301.12,533.991 1301.12,540.112 C1301.12,543.598 1306.19,545.341 1316.34,545.341 C1324.71,545.341 1336.37,540.809 1351.32,531.745 C1336.29,546.232 1323.24,553.476 1312.16,553.476 C1302.17,553.476 1295.19,551.965 1291.24,548.944 C1290.23,548.169 1289.38,547.239 1288.68,546.155 C1284.81,550.881 1278.34,553.244 1269.28,553.244 C1260.6,553.244 1253.94,551.462 1249.29,547.898 C1246.19,545.496 1244.64,541.661 1244.64,536.393 C1244.64,528.026 1249.6,518.884 1259.52,508.967 C1270.13,498.353 1282.41,493.046 1296.35,493.046 C1299.84,493.046 1302.4,494.325 1304.02,496.881 C1305.34,495.409 1306.62,494.673 1307.86,494.673 M1287.06,540.925 C1286.98,540.305 1286.94,539.686 1286.94,539.066 C1286.94,538.756 1290.89,527.948 1298.79,506.643 C1299.57,504.551 1300.34,502.769 1301.12,501.297 C1298.1,500.678 1295.11,500.368 1292.17,500.368 C1286.75,500.368 1279.54,504.977 1270.56,514.197 C1262.5,522.409 1258.47,529.498 1258.47,535.463 C1258.47,542.049 1261.61,545.341 1267.88,545.341 C1275.48,545.341 1281.87,543.869 1287.06,540.925"/>
<path class="Note" d="M1832.94,1091.38 C1832.55,1092.08 1831.97,1092.43 1831.2,1092.43 C1830.5,1092.43 1829.61,1092.12 1828.52,1091.5 C1826.9,1090.57 1826.08,1089.64 1826.08,1088.71 C1826.08,1088.4 1826.2,1088.01 1826.43,1087.55 C1844.17,1061.98 1855.25,1040.44 1859.67,1022.93 C1859.98,1022.39 1860.52,1022.12 1861.29,1022.12 C1862.3,1022.12 1863.73,1022.66 1865.59,1023.75 C1868.15,1025.22 1869.43,1026.53 1869.43,1027.7 C1869.43,1028.01 1869.35,1028.28 1869.2,1028.51 C1863.31,1045.24 1851.22,1066.2 1832.94,1091.38 M1853.86,1098.35 C1853.47,1099.05 1852.89,1099.4 1852.11,1099.4 C1851.42,1099.4 1850.53,1099.09 1849.44,1098.47 C1847.81,1097.54 1847,1096.61 1847,1095.68 C1847,1095.37 1847.12,1094.98 1847.35,1094.52 C1865.09,1068.95 1876.17,1047.41 1880.59,1029.91 C1880.9,1029.36 1881.44,1029.09 1882.21,1029.09 C1883.22,1029.09 1884.65,1029.63 1886.51,1030.72 C1889.07,1032.19 1890.35,1033.51 1890.35,1034.67 C1890.35,1034.98 1890.27,1035.25 1890.11,1035.48 C1884.23,1052.22 1872.14,1073.17 1853.86,1098.35 M1874.77,1105.33 C1874.39,1106.02 1873.81,1106.37 1873.03,1106.37 C1872.33,1106.37 1871.44,1106.06 1870.36,1105.44 C1868.73,1104.51 1867.92,1103.58 1867.92,1102.65 C1867.92,1102.34 1868.03,1101.96 1868.27,1101.49 C1886.01,1075.92 1897.09,1054.39 1901.5,1036.88 C1901.81,1036.34 1902.36,1036.06 1903.13,1036.06 C1904.14,1036.06 1905.57,1036.61 1907.43,1037.69 C1909.99,1039.16 1911.26,1040.48 1911.26,1041.64 C1911.26,1041.95 1911.19,1042.22 1911.03,1042.46 C1905.14,1059.19 1893.06,1080.15 1874.77,1105.33 M1958.32,1059.89 C1962.89,1059.89 1965.17,1062.75 1965.17,1068.49 C1965.17,1072.52 1962.65,1078.52 1957.62,1086.5 C1953.59,1092.93 1951.58,1099.21 1951.58,1105.33 C1951.58,1108.81 1956.65,1110.56 1966.8,1110.56 C1975.17,1110.56 1986.83,1106.02 2001.78,1096.96 C1986.75,1111.45 1973.69,1118.69 1962.62,1118.69 C1952.62,1118.69 1945.65,1117.18 1941.7,1114.16 C1940.69,1113.38 1939.84,1112.45 1939.14,1111.37 C1935.27,1116.09 1928.8,1118.46 1919.73,1118.46 C1911.06,1118.46 1904.39,1116.68 1899.75,1113.11 C1896.65,1110.71 1895.1,1106.88 1895.1,1101.61 C1895.1,1093.24 1900.06,1084.1 1909.97,1074.18 C1920.59,1063.57 1932.87,1058.26 1946.81,1058.26 C1950.3,1058.26 1952.85,1059.54 1954.48,1062.1 C1955.8,1060.62 1957.08,1059.89 1958.32,1059.89 M1937.51,1106.14 C1937.44,1105.52 1937.4,1104.9 1937.4,1104.28 C1937.4,1103.97 1941.35,1093.16 1949.25,1071.86 C1950.03,1069.77 1950.8,1067.98 1951.58,1066.51 C1948.55,1065.89 1945.57,1065.58 1942.63,1065.58 C1937.2,1065.58 1930,1070.19 1921.01,1079.41 C1912.95,1087.62 1908.93,1094.71 1908.93,1100.68 C1908.93,1107.26 1912.06,1110.56 1918.34,1110.56 C1925.93,1110.56 1932.32,1109.08 1937.51,1106.14"/>
<path class="Note" d="M1926.21,851.839 C1930.78,851.839 1933.07,854.705 1933.07,860.438 C1933.07,864.467 1930.55,870.471 1925.51,878.451 C1921.48,884.881 1919.47,891.157 1919.47,897.277 C1919.47,900.763 1924.54,902.507 1934.69,902.507 C1943.06,902.507 1954.72,897.974 1969.67,888.91 C1954.64,903.398 1941.59,910.641 1930.51,910.641 C1920.52,910.641 1913.54,909.131 1909.59,906.109 C1908.59,905.334 1907.73,904.405 1907.04,903.32 C1903.16,908.046 1896.69,910.409 1887.63,910.409 C1878.95,910.409 1872.29,908.627 1867.64,905.063 C1864.54,902.662 1862.99,898.827 1862.99,893.558 C1862.99,885.191 1867.95,876.049 1877.87,866.133 C1888.48,855.519 1900.76,850.212 1914.71,850.212 C1918.19,850.212 1920.75,851.49 1922.38,854.047 C1923.69,852.575 1924.97,851.839 1926.21,851.839 M1905.41,898.091 C1905.33,897.471 1905.29,896.851 1905.29,896.231 C1905.29,895.921 1909.24,885.114 1917.15,863.808 C1917.92,861.717 1918.7,859.935 1919.47,858.463 C1916.45,857.843 1913.47,857.533 1910.52,857.533 C1905.1,857.533 1897.89,862.143 1888.91,871.362 C1880.85,879.574 1876.82,886.663 1876.82,892.629 C1876.82,899.214 1879.96,902.507 1886.23,902.507 C1893.83,902.507 1900.22,901.035 1905.41,898.091"/>
<path class="Note" d="M1933.3,581.059 C1943.76,574.474 1951.35,569.09 1956.08,564.906 C1964.75,557.236 1969.09,549.489 1969.09,541.664 C1969.09,532.522 1962.97,527.951 1950.73,527.951 C1937.87,527.951 1924.47,537.209 1910.52,555.725 C1901.07,568.276 1894.37,580.13 1890.42,591.286 C1895.3,588.11 1900.45,586.521 1905.87,586.521 C1910.99,586.521 1915.05,588.807 1918.08,593.378 C1920.17,596.554 1921.21,601.977 1921.21,609.647 C1921.21,616.542 1917.57,624.638 1910.29,633.935 C1905.8,639.668 1900.8,642.535 1895.3,642.535 C1888.33,642.535 1883.44,641.14 1880.66,638.351 C1876.7,634.4 1874.73,626.575 1874.73,614.877 C1874.73,595.198 1882.67,575.83 1898.55,556.771 C1916.45,535.311 1933.61,524.581 1950.03,524.581 C1962.74,524.581 1972.23,527.564 1978.51,533.529 C1982.15,537.015 1983.97,542.051 1983.97,548.637 C1983.97,555.997 1976.72,564.209 1962.24,573.273 C1954.64,578.077 1945,580.672 1933.3,581.059 M1888.91,596.167 C1886.97,602.675 1886,608.911 1886,614.877 C1886,629.055 1888.25,636.143 1892.74,636.143 C1897,636.143 1900.33,633.122 1902.74,627.079 C1905.52,620.261 1906.92,612.707 1906.92,604.418 C1906.92,597.058 1904.48,593.378 1899.6,593.378 C1896.19,593.378 1892.63,594.307 1888.91,596.167"/>
<path class="Note" d="M1926.21,494.673 C1930.78,494.673 1933.07,497.54 1933.07,503.273 C1933.07,507.302 1930.55,513.306 1925.51,521.286 C1921.48,527.716 1919.47,533.991 1919.47,540.112 C1919.47,543.598 1924.54,545.341 1934.69,545.341 C1943.06,545.341 1954.72,540.809 1969.67,531.745 C1954.64,546.232 1941.59,553.476 1930.51,553.476 C1920.52,553.476 1913.54,551.965 1909.59,548.944 C1908.59,548.169 1907.73,547.239 1907.04,546.155 C1903.16,550.881 1896.69,553.244 1887.63,553.244 C1878.95,553.244 1872.29,551.462 1867.64,547.898 C1864.54,545.496 1862.99,541.661 1862.99,536.393 C1862.99,528.026 1867.95,518.884 1877.87,508.967 C1888.48,498.353 1900.76,493.046 1914.71,493.046 C1918.19,493.046 1920.75,494.325 1922.38,496.881 C1923.69,495.409 1924.97,494.673 1926.21,494.673 M1905.41,540.925 C1905.33,540.305 1905.29,539.686 1905.29,539.066 C1905.29,538.756 1909.24,527.948 1917.15,506.643 C1917.92,504.551 1918.7,502.769 1919.47,501.297 C1916.45,500.678 1913.47,500.368 1910.52,500.368 C1905.1,500.368 1897.89,504.977 1888.91,514.197 C1880.85,522.409 1876.82,529.498 1876.82,535.463 C1876.82,542.049 1879.96,545.341 1886.23,545.341 C1893.83,545.341 1900.22,543.869 1905.41,540.925"/>
<path class="Note" d="M2428.33,1098.35 C2427.95,1099.05 2427.36,1099.4 2426.59,1099.4 C2425.89,1099.4 2425,1099.09 2423.92,1098.47 C2422.29,1097.54 2421.48,1096.61 2421.48,1095.68 C2421.48,1095.37 2421.59,1094.98 2421.82,1094.52 C2439.57,1068.95 2450.65,1047.41 2455.06,1029.91 C2455.37,1029.36 2455.91,1029.09 2456.69,1029.09 C2457.7,1029.09 2459.13,1029.63 2460.99,1030.72 C2463.54,1032.19 2464.82,1033.51 2464.82,1034.67 C2464.82,1034.98 2464.75,1035.25 2464.59,1035.48 C2458.7,1052.22 2446.62,1073.17 2428.33,1098.35 M2449.25,1105.33 C2448.86,1106.02 2448.28,1106.37 2447.51,1106.37 C2446.81,1106.37 2445.92,1106.06 2444.83,1105.44 C2443.21,1104.51 2442.39,1103.58 2442.39,1102.65 C2442.39,1102.34 2442.51,1101.96 2442.74,1101.49 C2460.48,1075.92 2471.56,1054.39 2475.98,1036.88 C2476.29,1036.34 2476.83,1036.06 2477.61,1036.06 C2478.61,1036.06 2480.05,1036.61 2481.91,1037.69 C2484.46,1039.16 2485.74,1040.48 2485.74,1041.64 C2485.74,1041.95 2485.66,1042.22 2485.51,1042.46 C2479.62,1059.19 2467.53,1080.15 2449.25,1105.33 M2532.8,1059.89 C2537.37,1059.89 2539.66,1062.75 2539.66,1068.49 C2539.66,1072.52 2537.14,1078.52 2532.11,1086.5 C2528.08,1092.93 2526.06,1099.21 2526.06,1105.33 C2526.06,1108.81 2531.14,1110.56 2541.29,1110.56 C2549.65,1110.56 2561.31,1106.02 2576.27,1096.96 C2561.24,1111.45 2548.18,1118.69 2537.1,1118.69 C2527.11,1118.69 2520.14,1117.18 2516.19,1114.16 C2515.18,1113.38 2514.33,1112.45 2513.63,1111.37 C2509.75,1116.09 2503.29,1118.46 2494.22,1118.46 C2485.54,1118.46 2478.88,1116.68 2474.23,1113.11 C2471.13,1110.71 2469.58,1106.88 2469.58,1101.61 C2469.58,1093.24 2474.54,1084.1 2484.46,1074.18 C2495.07,1063.57 2507.35,1058.26 2521.3,1058.26 C2524.78,1058.26 2527.34,1059.54 2528.97,1062.1 C2530.29,1060.62 2531.56,1059.89 2532.8,1059.89 M2512,1106.14 C2511.92,1105.52 2511.89,1104.9 2511.89,1104.28 C2511.89,1103.97 2515.84,1093.16 2523.74,1071.86 C2524.51,1069.77 2525.29,1067.98 2526.06,1066.51 C2523.04,1065.89 2520.06,1065.58 2517.11,1065.58 C2511.69,1065.58 2504.49,1070.19 2495.5,1079.41 C2487.44,1087.62 2483.41,1094.71 2483.41,1100.68 C2483.41,1107.26 2486.55,1110.56 2492.83,1110.56 C2500.42,1110.56 2506.81,1109.08 2512,1106.14"/>
<path class="Note" d="M2511.13,851.839 C2515.7,851.839 2517.99,854.705 2517.99,860.438 C2517.99,864.467 2515.47,870.471 2510.43,878.451 C2506.41,884.881 2504.39,891.157 2504.39,897.277 C2504.39,900.763 2509.47,902.507 2519.61,902.507 C2527.98,902.507 2539.64,897.974 2554.59,888.91 C2539.56,903.398 2526.51,910.641 2515.43,910.641 C2505.44,910.641 2498.46,909.131 2494.51,906.109 C2493.51,905.334 2492.65,904.405 2491.96,903.32 C2488.08,908.046 2481.61,910.409 2472.55,910.409 C2463.87,910.409 2457.21,908.627 2452.56,905.063 C2449.46,902.662 2447.91,898.827 2447.91,893.558 C2447.91,885.191 2452.87,876.049 2462.79,866.133 C2473.4,855.519 2485.68,850.212 2499.63,850.212 C2503.11,850.212 2505.67,851.49 2507.3,854.047 C2508.61,852.575 2509.89,851.839 2511.13,851.839 M2490.33,898.091 C2490.25,897.471 2490.21,896.851 2490.21,896.231 C2490.21,895.921 2494.16,885.114 2502.07,863.808 C2502.84,861.717 2503.62,859.935 2504.39,858.463 C2501.37,857.843 2498.39,857.533 2495.44,857.533 C2490.02,857.533 2482.81,862.143 2473.83,871.362 C2465.77,879.574 2461.74,886.663 2461.74,892.629 C2461.74,899.214 2464.88,902.507 2471.15,902.507 C2478.75,902.507 2485.14,901.035 2490.33,898.091"/>
<path class="Note" d="M2511.13,762.547 C2515.7,762.547 2517.99,765.414 2517.99,771.147 C2517.99,775.176 2515.47,781.18 2510.43,789.16 C2506.41,795.59 2504.39,801.865 2504.39,807.986 C2504.39,811.472 2509.47,813.215 2519.61,813.215 C2527.98,813.215 2539.64,808.683 2554.59,799.619 C2539.56,814.106 2526.51,821.35 2515.43,821.35 C2505.44,821.35 2498.46,819.839 2494.51,816.818 C2493.51,816.043 2492.65,815.113 2491.96,814.029 C2488.08,818.755 2481.61,821.118 2472.55,821.118 C2463.87,821.118 2457.21,819.336 2452.56,815.772 C2449.46,813.37 2447.91,809.535 2447.91,804.267 C2447.91,795.9 2452.87,786.758 2462.79,776.841 C2473.4,766.227 2485.68,760.92 2499.63,760.92 C2503.11,760.92 2505.67,762.199 2507.3,764.755 C2508.61,763.283 2509.89,762.547 2511.13,762.547 M2490.33,808.799 C2490.25,808.179 2490.21,807.56 2490.21,806.94 C2490.21,806.63 2494.16,795.822 2502.07,774.517 C2502.84,772.425 2503.62,770.643 2504.39,769.171 C2501.37,768.552 2498.39,768.242 2495.44,768.242 C2490.02,768.242 2482.81,772.851 2473.83,782.071 C2465.77,790.283 2461.74,797.372 2461.74,803.337 C2461.74,809.923 2464.88,813.215 2471.15,813.215 C2478.75,813.215 2485.14,811.743 2490.33,808.799"/>
<path class="Note" d="M2518.22,491.768 C2528.68,485.183 2536.27,479.798 2541,475.615 C2549.67,467.945 2554.01,460.197 2554.01,452.373 C2554.01,443.231 2547.89,438.66 2535.65,438.66 C2522.79,438.66 2509.39,447.918 2495.44,466.434 C2485.99,478.985 2479.29,490.838 2475.34,501.995 C2480.22,498.818 2485.37,497.23 2490.79,497.23 C2495.91,497.23 2499.98,499.515 2503,504.086 C2505.09,507.263 2506.13,512.686 2506.13,520.356 C2506.13,527.251 2502.49,535.347 2495.21,544.644 C2490.72,550.377 2485.72,553.244 2480.22,553.244 C2473.25,553.244 2468.37,551.849 2465.58,549.06 C2461.63,545.109 2459.65,537.284 2459.65,525.585 C2459.65,505.907 2467.59,486.539 2483.47,467.48 C2501.37,446.02 2518.53,435.29 2534.95,435.29 C2547.66,435.29 2557.15,438.272 2563.43,444.238 C2567.07,447.724 2568.89,452.76 2568.89,459.345 C2568.89,466.705 2561.64,474.917 2547.16,483.982 C2539.56,488.785 2529.92,491.381 2518.22,491.768 M2473.83,506.875 C2471.89,513.383 2470.92,519.62 2470.92,525.585 C2470.92,539.763 2473.17,546.852 2477.66,546.852 C2481.92,546.852 2485.25,543.831 2487.66,537.788 C2490.45,530.97 2491.84,523.416 2491.84,515.126 C2491.84,507.766 2489.4,504.086 2484.52,504.086 C2481.11,504.086 2477.55,505.016 2473.83,506.875"/>
<path class="Note" d="M3048.13,1118.46 C3044.33,1118.46 3042.43,1114.39 3042.43,1106.26 L3042.43,1072.21 C3042.43,1068.95 3044.02,1067.32 3047.2,1067.32 C3048.59,1067.32 3049.64,1067.44 3050.34,1067.67 C3052.81,1063.34 3056.88,1059.69 3062.54,1056.75 C3070.44,1052.64 3078.46,1050.59 3086.59,1050.59 C3093.02,1050.59 3096.24,1052.99 3096.24,1057.8 C3096.24,1061.82 3094.07,1063.84 3089.73,1063.84 C3086.63,1063.84 3083.69,1063.14 3080.9,1061.75 C3078.42,1060.51 3075.79,1059.89 3073,1059.89 C3068.19,1059.89 3061.1,1063.03 3051.73,1069.3 C3053.05,1075.58 3053.71,1082.9 3053.71,1091.26 C3053.71,1109.39 3051.85,1118.46 3048.13,1118.46"/>
<path class="Note" d="M3128.2,973.437 C3121.84,983.431 3111.81,991.721 3098.1,998.306 C3086.17,1004.04 3075.01,1006.91 3064.63,1006.91 C3056.34,1006.91 3049.44,1005.24 3043.94,1001.91 C3037.98,998.267 3035,993.929 3035,988.893 C3035,977.504 3037.98,967.704 3043.94,959.491 C3052.08,948.335 3060.29,942.757 3068.58,942.757 C3074.47,942.757 3078.65,943.919 3081.13,946.243 C3084.54,949.265 3086.24,953.41 3086.24,958.678 C3086.24,966.115 3080.71,972.584 3069.63,978.085 C3058.86,983.431 3051.38,986.917 3047.2,988.544 C3048.13,990.481 3049.33,992.224 3050.8,993.774 C3054.44,997.647 3059.4,999.584 3065.68,999.584 C3073.58,999.584 3084.19,996.679 3097.52,990.868 C3110.3,985.213 3120.53,979.402 3128.2,973.437 M3045.57,983.198 C3051.38,980.254 3056.69,976.807 3061.49,972.856 C3068.62,967.045 3072.18,960.77 3072.18,954.029 C3072.18,950.233 3070.44,948.335 3066.95,948.335 C3064.01,948.335 3059.98,951.705 3054.87,958.445 C3048.44,966.813 3045.22,973.63 3045.22,978.899 C3045.22,980.371 3045.34,981.804 3045.57,983.198"/>
<path class="Note" d="M2981.32,587.916 C2981.63,576.217 2988.09,565.836 3000.72,556.771 C3011.96,548.714 3024.24,544.685 3037.56,544.685 C3056.23,544.685 3072.7,552.007 3086.95,566.649 C3096.02,576.024 3100.55,587.645 3100.55,601.513 C3100.55,613.986 3097.22,623.554 3090.55,630.217 C3082.42,638.429 3073.82,642.535 3064.75,642.535 C3058.56,642.535 3053.75,641.14 3050.34,638.351 C3044.77,633.78 3041.98,627.66 3041.98,619.99 C3041.98,610.073 3046.94,601.009 3056.85,592.797 C3064.99,586.056 3073.16,581.64 3081.37,579.549 C3079.2,575.83 3076.45,572.344 3073.12,569.09 C3062.74,558.941 3050.96,553.866 3037.79,553.866 C3024.08,553.866 3012.73,556.849 3003.74,562.814 C2994.45,568.935 2986.97,577.302 2981.32,587.916 M3084.28,585.708 C3080.02,589.659 3075.76,593.881 3071.5,598.375 C3063.13,607.207 3058.94,615.574 3058.94,623.476 C3058.94,631.921 3060.88,636.143 3064.75,636.143 C3068.24,636.143 3073.12,631.379 3079.4,621.849 C3084.43,614.257 3086.95,607.284 3086.95,600.931 C3086.95,595.508 3086.06,590.434 3084.28,585.708"/>
<path class="Note" d="M3092.4,494.673 C3096.98,494.673 3099.26,497.54 3099.26,503.273 C3099.26,507.302 3096.74,513.306 3091.71,521.286 C3087.68,527.716 3085.66,533.991 3085.66,540.112 C3085.66,543.598 3090.74,545.341 3100.89,545.341 C3109.25,545.341 3120.91,540.809 3135.87,531.745 C3120.84,546.232 3107.78,553.476 3096.7,553.476 C3086.71,553.476 3079.74,551.965 3075.79,548.944 C3074.78,548.169 3073.93,547.239 3073.23,546.155 C3069.36,550.881 3062.89,553.244 3053.82,553.244 C3045.15,553.244 3038.48,551.462 3033.83,547.898 C3030.73,545.496 3029.19,541.661 3029.19,536.393 C3029.19,528.026 3034.14,518.884 3044.06,508.967 C3054.67,498.353 3066.95,493.046 3080.9,493.046 C3084.39,493.046 3086.94,494.325 3088.57,496.881 C3089.89,495.409 3091.16,494.673 3092.4,494.673 M3071.6,540.925 C3071.52,540.305 3071.49,539.686 3071.49,539.066 C3071.49,538.756 3075.44,527.948 3083.34,506.643 C3084.11,504.551 3084.89,502.769 3085.66,501.297 C3082.64,500.678 3079.66,500.368 3076.72,500.368 C3071.29,500.368 3064.09,504.977 3055.1,514.197 C3047.04,522.409 3043.01,529.498 3043.01,535.463 C3043.01,542.049 3046.15,545.341 3052.43,545.341 C3060.02,545.341 3066.41,543.869 3071.6,540.925"/>
<path class="Note" d="M3617.48,1091.38 C3617.1,1092.08 3616.51,1092.43 3615.74,1092.43 C3615.04,1092.43 3614.15,1092.12 3613.07,1091.5 C3611.44,1090.57 3610.63,1089.64 3610.63,1088.71 C3610.63,1088.4 3610.74,1088.01 3610.98,1087.55 C3628.72,1061.98 3639.8,1040.44 3644.21,1022.93 C3644.52,1022.39 3645.06,1022.12 3645.84,1022.12 C3646.85,1022.12 3648.28,1022.66 3650.14,1023.75 C3652.7,1025.22 3653.97,1026.53 3653.97,1027.7 C3653.97,1028.01 3653.9,1028.28 3653.74,1028.51 C3647.85,1045.24 3635.77,1066.2 3617.48,1091.38 M3638.4,1098.35 C3638.01,1099.05 3637.43,1099.4 3636.66,1099.4 C3635.96,1099.4 3635.07,1099.09 3633.99,1098.47 C3632.36,1097.54 3631.54,1096.61 3631.54,1095.68 C3631.54,1095.37 3631.66,1094.98 3631.89,1094.52 C3649.64,1068.95 3660.71,1047.41 3665.13,1029.91 C3665.44,1029.36 3665.98,1029.09 3666.76,1029.09 C3667.76,1029.09 3669.2,1029.63 3671.06,1030.72 C3673.61,1032.19 3674.89,1033.51 3674.89,1034.67 C3674.89,1034.98 3674.81,1035.25 3674.66,1035.48 C3668.77,1052.22 3656.69,1073.17 3638.4,1098.35 M3659.32,1105.33 C3658.93,1106.02 3658.35,1106.37 3657.58,1106.37 C3656.88,1106.37 3655.99,1106.06 3654.9,1105.44 C3653.28,1104.51 3652.46,1103.58 3652.46,1102.65 C3652.46,1102.34 3652.58,1101.96 3652.81,1101.49 C3670.55,1075.92 3681.63,1054.39 3686.05,1036.88 C3686.36,1036.34 3686.9,1036.06 3687.67,1036.06 C3688.68,1036.06 3690.12,1036.61 3691.97,1037.69 C3694.53,1039.16 3695.81,1040.48 3695.81,1041.64 C3695.81,1041.95 3695.73,1042.22 3695.58,1042.46 C3689.69,1059.19 3677.6,1080.15 3659.32,1105.33 M3742.86,1059.89 C3747.43,1059.89 3749.72,1062.75 3749.72,1068.49 C3749.72,1072.52 3747.2,1078.52 3742.16,1086.5 C3738.13,1092.93 3736.12,1099.21 3736.12,1105.33 C3736.12,1108.81 3741.19,1110.56 3751.34,1110.56 C3759.71,1110.56 3771.37,1106.02 3786.32,1096.96 C3771.29,1111.45 3758.24,1118.69 3747.16,1118.69 C3737.17,1118.69 3730.19,1117.18 3726.24,1114.16 C3725.24,1113.38 3724.38,1112.45 3723.69,1111.37 C3719.81,1116.09 3713.34,1118.46 3704.28,1118.46 C3695.6,1118.46 3688.94,1116.68 3684.29,1113.11 C3681.19,1110.71 3679.64,1106.88 3679.64,1101.61 C3679.64,1093.24 3684.6,1084.1 3694.52,1074.18 C3705.13,1063.57 3717.41,1058.26 3731.36,1058.26 C3734.84,1058.26 3737.4,1059.54 3739.03,1062.1 C3740.34,1060.62 3741.62,1059.89 3742.86,1059.89 M3722.06,1106.14 C3721.98,1105.52 3721.94,1104.9 3721.94,1104.28 C3721.94,1103.97 3725.89,1093.16 3733.8,1071.86 C3734.57,1069.77 3735.35,1067.98 3736.12,1066.51 C3733.1,1065.89 3730.12,1065.58 3727.17,1065.58 C3721.75,1065.58 3714.54,1070.19 3705.56,1079.41 C3697.5,1087.62 3693.47,1094.71 3693.47,1100.68 C3693.47,1107.26 3696.61,1110.56 3702.88,1110.56 C3710.48,1110.56 3716.87,1109.08 3722.06,1106.14"/>
<path class="Note" d="M3710.76,851.839 C3715.33,851.839 3717.61,854.705 3717.61,860.438 C3717.61,864.467 3715.09,870.471 3710.06,878.451 C3706.03,884.881 3704.01,891.157 3704.01,897.277 C3704.01,900.763 3709.09,902.507 3719.24,902.507 C3727.61,902.507 3739.27,897.974 3754.22,888.91 C3739.19,903.398 3726.13,910.641 3715.06,910.641 C3705.06,910.641 3698.09,909.131 3694.14,906.109 C3693.13,905.334 3692.28,904.405 3691.58,903.32 C3687.71,908.046 3681.24,910.409 3672.17,910.409 C3663.5,910.409 3656.83,908.627 3652.18,905.063 C3649.09,902.662 3647.54,898.827 3647.54,893.558 C3647.54,885.191 3652.49,876.049 3662.41,866.133 C3673.03,855.519 3685.31,850.212 3699.25,850.212 C3702.74,850.212 3705.29,851.49 3706.92,854.047 C3708.24,852.575 3709.52,851.839 3710.76,851.839 M3689.95,898.091 C3689.88,897.471 3689.84,896.851 3689.84,896.231 C3689.84,895.921 3693.79,885.114 3701.69,863.808 C3702.47,861.717 3703.24,859.935 3704.01,858.463 C3700.99,857.843 3698.01,857.533 3695.07,857.533 C3689.64,857.533 3682.44,862.143 3673.45,871.362 C3665.39,879.574 3661.37,886.663 3661.37,892.629 C3661.37,899.214 3664.5,902.507 3670.78,902.507 C3678.37,902.507 3684.76,901.035 3689.95,898.091"/>
<path class="Note" d="M3717.84,581.059 C3728.3,574.474 3735.9,569.09 3740.62,564.906 C3749.3,557.236 3753.64,549.489 3753.64,541.664 C3753.64,532.522 3747.52,527.951 3735.28,527.951 C3722.42,527.951 3709.01,537.209 3695.07,555.725 C3685.61,568.276 3678.91,580.13 3674.96,591.286 C3679.84,588.11 3685,586.521 3690.42,586.521 C3695.53,586.521 3699.6,588.807 3702.62,593.378 C3704.71,596.554 3705.76,601.977 3705.76,609.647 C3705.76,616.542 3702.12,624.638 3694.83,633.935 C3690.34,639.668 3685.34,642.535 3679.84,642.535 C3672.87,642.535 3667.99,641.14 3665.2,638.351 C3661.25,634.4 3659.27,626.575 3659.27,614.877 C3659.27,595.198 3667.21,575.83 3683.1,556.771 C3700.99,535.311 3718.15,524.581 3734.58,524.581 C3747.28,524.581 3756.77,527.564 3763.05,533.529 C3766.69,537.015 3768.51,542.051 3768.51,548.637 C3768.51,555.997 3761.27,564.209 3746.78,573.273 C3739.19,578.077 3729.54,580.672 3717.84,581.059 M3673.45,596.167 C3671.51,602.675 3670.55,608.911 3670.55,614.877 C3670.55,629.055 3672.79,636.143 3677.29,636.143 C3681.55,636.143 3684.88,633.122 3687.28,627.079 C3690.07,620.261 3691.46,612.707 3691.46,604.418 C3691.46,597.058 3689.02,593.378 3684.14,593.378 C3680.73,593.378 3677.17,594.307 3673.45,596.167"/>
<path class="Note" d="M3710.76,494.673 C3715.33,494.673 3717.61,497.54 3717.61,503.273 C3717.61,507.302 3715.09,513.306 3710.06,521.286 C3706.03,527.716 3704.01,533.991 3704.01,540.112 C3704.01,543.598 3709.09,545.341 3719.24,545.341 C3727.61,545.341 3739.27,540.809 3754.22,531.745 C3739.19,546.232 3726.13,553.476 3715.06,553.476 C3705.06,553.476 3698.09,551.965 3694.14,548.944 C3693.13,548.169 3692.28,547.239 3691.58,546.155 C3687.71,550.881 3681.24,553.244 3672.17,553.244 C3663.5,553.244 3656.83,551.462 3652.18,547.898 C3649.09,545.496 3647.54,541.661 3647.54,536.393 C3647.54,528.026 3652.49,518.884 3662.41,508.967 C3673.03,498.353 3685.31,493.046 3699.25,493.046 C3702.74,493.046 3705.29,494.325 3706.92,496.881 C3708.24,495.409 3709.52,494.673 3710.76,494.673 M3689.95,540.925 C3689.88,540.305 3689.84,539.686 3689.84,539.066 C3689.84,538.756 3693.79,527.948 3701.69,506.643 C3702.47,504.551 3703.24,502.769 3704.01,501.297 C3700.99,500.678 3698.01,500.368 3695.07,500.368 C3689.64,500.368 3682.44,504.977 3673.45,514.197 C3665.39,522.409 3661.37,529.498 3661.37,535.463 C3661.37,542.049 3664.5,545.341 3670.78,545.341 C3678.37,545.341 3684.76,543.869 3689.95,540.925"/>
<path class="Clef" transform="matrix(2.3811,0,0,2.3811,212.156,2158.79)" d="M25.4,-25.1 C17.8,-25.1 11.7,-20.7 11.6,-20.7 C5.8,-16.4 3.5,-11.3 2.6,-7.8 C2.1,-6 1.9,-4.2 1.9,-2.5 C1.9,-0.1 2.3,2.1 3.2,4 C4.4,6.7 6.7,8.6 9.7,9.6 C10.9,10 12.2,10.2 13.5,10.2 C15.7,10.2 18,9.6 19.9,8.5 C23,6.8 24.9,3.2 24.9,-0.7 C24.9,-4.2 23.1,-7.4 20.1,-9.3 C18,-10.7 16,-11.1 14.3,-11.1 C13.1,-11.1 12,-10.9 11.1,-10.6 C10.1,-10.2 8.4,-9.2 7.6,-8.5 C7.9,-10.4 9.1,-13.3 10.2,-14.9 C11.3,-16.5 13.5,-18.5 15.2,-19.4 C17.7,-20.8 20.9,-21.4 24.4,-21.4 C34.6,-21.4 39.6,-13.2 39.6,3.6 C39.6,12.9 36.1,21.8 33.1,27.7 C29.8,34.3 25.4,40.6 21.5,44.1 C11.1,53.6 1.3,58.1 1.2,58.1 C1.2,58.1 -0.3,59 0.1,60.5 C0.4,61.5 1.3,61.7 1.9,61.7 C2,61.7 2.3,61.6 2.4,61.6 C2.5,61.6 13.9,56.9 23,49.8 C28.1,46.1 32.7,42.1 36.7,37.8 C40.3,33.9 43.4,29.7 45.9,25.5 C50.3,18 52.8,10.2 52.8,3.5 C52.8,-4.8 50.6,-11.7 46.5,-16.6 C41.8,-22.2 34.7,-25.1 25.4,-25.1 M56.8,-12.4 C56.8,-9.6 59,-7.4 61.6,-7.4 C64.2,-7.4 66.4,-9.6 66.4,-12.4 C66.4,-15.2 64.2,-17.5 61.6,-17.5 C59,-17.5 56.8,-15.2 56.8,-12.4 M56.8,12.3 C56.8,15.1 59,17.4 61.6,17.4 C64.2,17.4 66.4,15.1 66.4,12.3 C66.4,9.5 64.2,7.2 61.6,7.2 C59,7.2 56.8,9.5 56.8,12.3"/>
<path class="Clef" transform="matrix(2.3811,0,0,2.3811,212.156,1570.39)" d="M63.37,-5.89004 C62.14,-11.32 59.5,-15.14 58.72,-16.1801 C55.5301,-20.45 51.52,-23.3 46.8301,-24.65 C43.72,-25.54 40.72,-25.65 38.3,-25.47 C37.2601,-31.4801 36.2601,-37.3601 35.35,-42.8101 C40.79,-48.97 44.42,-54.77 46.69,-59.07 C50.1601,-65.65 51.3101,-70.2301 51.3601,-70.4301 C53.0801,-75.64 53.44,-83.34 52.34,-91.55 C51.3301,-99.1 49.24,-105.81 46.89,-109.06 C45.8601,-110.49 44.8101,-111.22 43.77,-111.22 C42.55,-111.22 40.04,-109.98 37.15,-107.21 C34.85,-105.01 31.5801,-101.12 29.02,-95.1101 C26.02,-88.05 25.8101,-78.5601 26.1601,-71.84 C26.54,-64.57 27.65,-58.8801 27.6601,-58.8301 C27.6801,-58.74 27.94,-57.24 28.39,-54.67 C28.1601,-54.44 27.92,-54.22 27.67,-53.9801 C26.6301,-52.9801 25.44,-51.84 24.0601,-50.4601 C23.2,-49.6 22.25,-48.69 21.25,-47.72 C12.79,-39.57 0,-27.25 0,-8.1 C0,-3.4 0.9,1.01992 2.68008,5.02998 C4.27002,8.62998 6.57002,11.91 9.5,14.78 C17.2301,22.33 27.82,25.5399 34.8801,25.38 C37.8301,25.31 40.4601,25.0699 42.85,24.6199 C44.6801,34.2199 45.82,41.25 45.8601,46.5899 C45.9,53.1 44.25,57.0699 40.35,59.8399 C37.92,61.5699 35.1101,62.5199 32.0101,62.6699 C29.42,62.7899 27.1601,62.3199 25.7301,61.91 L25.72,61.91 C25.72,61.91 25.4301,61.83 25.42,61.63 C25.4101,61.45 25.7601,61.4 25.77,61.4 L25.79,61.4 C27.7101,60.96 31.2801,59.73 33.64,56.43 C35.44,53.91 36.3101,49.2899 34.47,45.35 C33.3601,42.96 30.85,40.01 25.2301,39.56 C22.74,39.36 20.47,39.8699 18.47,41.0699 C16.6601,42.15 15.1601,43.7899 14.1101,45.7899 C11.65,50.4899 12.1101,56.2199 15.24,60.06 C18.2,63.68 22.82,65.9899 28.25,66.5699 C29.1,66.66 29.95,66.7 30.8,66.7 C31.5101,66.7 32.22,66.6699 32.92,66.61 C31.72,66.9399 30.64,67.4899 29.77,68.25 C28.2801,69.5399 27.44,71.38 27.44,73.41 C27.44,75.28 28.0601,76.65 29.55,78.0399 C28.4101,78.5 27.55,78.98 26.79,79.56 C25.25,80.73 24.34,82.46 24.34,84.1899 C24.34,87.45 27.3,89.63 31.72,89.63 C37.1301,89.63 40.9101,86.63 40.9101,82.35 C40.9101,80.1199 39.9101,78.18 38.0801,76.83 C41.0101,75.6199 42.37,73.9399 42.37,71.56 C42.39,70.05 41.69,68.61 40.49,67.6899 C39.2801,66.7399 37.62,66.2399 35.69,66.2399 L35.5101,66.2399 C38.2801,65.7 40.92,64.7 43.2101,63.28 C46.87,60.71 48.99,56.73 49.67,51.1 C50.2301,46.46 49.84,40.55 48.44,32.48 C48.0801,30.3899 47.54,27.36 46.8801,23.6 C52.6301,21.68 56.79,18.11 60.5601,12.26 C63.85,6.51992 64.8,0.419922 63.37,-5.89004 M32.39,87.5399 C30.19,87.5399 28.7301,86.1199 28.7301,84.01 C28.7301,82.11 29.65,80.5 31.32,79.4699 C31.6801,79.66 31.77,79.71 32.1101,79.88 C33.3,80.48 33.3,80.48 33.55,80.63 L33.5601,80.6399 C35.47,81.73 36.25,82.76 36.25,84.18 C36.24,86.0899 34.59,87.5399 32.39,87.5399 M38.3101,71.63 C38.3101,73.2699 37.7301,74.3399 36.1801,75.53 C34.74,74.78 34.35,74.56 33.9801,74.3399 L33.8801,74.28 C32.3301,73.3399 31.85,72.66 31.85,71.4 C31.85,69.6 33.2301,68.3399 35.19,68.3399 C37.17,68.35 38.3101,69.55 38.3101,71.63 M33.15,-83.8101 C34.9301,-89.55 37.67,-92.8 39.6601,-94.5301 C41.4101,-96.05 43.0601,-96.7601 43.9801,-96.7601 C44.12,-96.7601 44.24,-96.74 44.34,-96.7101 C44.8,-96.57 45.3301,-96 45.8,-95.1301 C48.1101,-90.84 47.37,-84.1301 46.0301,-79.69 C44.4,-74.29 41.4801,-68.6801 32.69,-59.0601 C32.52,-60.17 32.3601,-61.22 32.2101,-62.2 C30.95,-70.49 31.27,-77.7601 33.15,-83.8101 M29.15,20.31 C24.5101,19.0899 20.0801,16.5899 16.32,13.0899 C15.0101,11.86 13.14,9.68994 11.67,6.3 C10.3101,3.13994 9.65,-0.290039 9.7,-3.88008 C9.77002,-8.57002 11.0801,-13.39 13.59,-18.1801 C16.5101,-23.7601 21.07,-29.29 27.1301,-34.62 C28.5801,-35.9 29.95,-37.1801 31.24,-38.4601 C32,-34.2 32.8301,-29.5101 33.7101,-24.6301 C29.8601,-23.3601 25.1101,-20.2101 22,-14.5601 C18.47,-7.99004 18.6101,-2.47002 19.34,1.00996 C20.2801,5.46992 22.8101,9.22998 26.27,11.3199 C27.2,11.88 31.3301,14.01 33.17,13.43 C33.54,13.31 33.8101,13.0899 33.95,12.76 C34.4601,11.5899 33.44,10.95 31.8801,9.98994 C31.2801,9.61992 30.6101,9.2 29.8801,8.66992 C26.5601,6.17998 25.1101,1.72998 26.1801,-2.65 C26.7601,-5.05 28.04,-7.21006 29.8801,-8.91006 C31.55,-10.4601 33.59,-11.5601 35.97,-12.2 C38.0101,-0.960059 40.07,10.1899 41.7101,18.55 C41.84,19.2399 41.9801,19.91 42.1101,20.58 C37.7101,21.51 33.37,21.4199 29.15,20.31 M54.9,10.1 C53.7301,13.28 51.27,17.35 46.14,19.41 C46.07,18.9899 45.99,18.56 45.9101,18.13 C44.3601,9.36992 42.4301,-1.61006 40.47,-12.87 C50.82,-13.35 55.09,-5.91006 55.9801,-1.08008 C56.45,1.45 56.45,5.88994 54.9,10.1"/>
<path class="KeySig" transform="matrix(2.3811,0,0,2.3811,429.785,2277.85)" d="M20.1,-7.9 C19.5,-11.8 17.1,-15.5 12,-15.5 C7,-15.5 4.1,-12.4 3.6,-11.8 L4,-43.9 C4,-44.7 3.4,-45.3 2.6,-45.3 L1.4,-45.3 C0.6,-45.3 0,-44.7 0,-43.9 L0.5,16.2 C0.5,17 1.1,17.6 1.9,17.6 C2.1,17.6 2.5,17.5 2.7,17.4 C3.1,17.2 9.6,14 15,7.9 C18.8,3.6 20.3,-1.3 20.3,-5.4 C20.3,-6.3 20.2,-7.1 20.1,-7.9 M13.2,-4 C13.2,-2.5 12.8,2.1 10.3,5.9 C8.6,8.5 5.2,11.2 3.3,12.7 L3.6,-6.8 C3.8,-7.7 5.3,-10.6 9.3,-10.6 C12.9,-10.6 13.2,-7.2 13.2,-5.1 L13.2,-4 "/>
<path class="KeySig" transform="matrix(2.3811,0,0,2.3811,429.785,1510.87)" d="M20.1,-7.9 C19.5,-11.8 17.1,-15.5 12,-15.5 C7,-15.5 4.1,-12.4 3.6,-11.8 L4,-43.9 C4,-44.7 3.4,-45.3 2.6,-45.3 L1.4,-45.3 C0.6,-45.3 0,-44.7 0,-43.9 L0.5,16.2 C0.5,17 1.1,17.6 1.9,17.6 C2.1,17.6 2.5,17.5 2.7,17.4 C3.1,17.2 9.6,14 15,7.9 C18.8,3.6 20.3,-1.3 20.3,-5.4 C20.3,-6.3 20.2,-7.1 20.1,-7.9 M13.2,-4 C13.2,-2.5 12.8,2.1 10.3,5.9 C8.6,8.5 5.2,11.2 3.3,12.7 L3.6,-6.8 C3.8,-7.7 5.3,-10.6 9.3,-10.6 C12.9,-10.6 13.2,-7.2 13.2,-5.1 L13.2,-4 "/>
<path class="FiguredBass" d="M671.856,2478.28 C672.041,2478.28 672.443,2477.88 673.062,2477.08 C675.721,2473.3 679.432,2471.42 684.195,2471.42 C688.029,2471.42 691.647,2472.84 695.049,2475.68 C698.451,2478.53 701.265,2479.95 703.491,2479.95 C705.904,2479.95 708.192,2479.24 710.357,2477.82 C712.521,2476.4 714.238,2474.97 715.506,2473.55 C716.773,2472.13 717.593,2471.42 717.964,2471.42 C718.583,2471.42 719.139,2471.62 719.634,2472.02 C720.129,2472.42 720.376,2472.93 720.376,2473.55 C720.376,2473.98 719.108,2476.12 716.572,2479.95 C714.037,2483.79 711.223,2488.22 708.13,2493.26 C705.038,2498.31 702.224,2504.6 699.688,2512.14 C697.152,2519.69 695.884,2526.89 695.884,2533.76 C695.884,2536.42 696.162,2539.48 696.719,2542.94 C697.152,2545.6 697.152,2547.12 696.719,2547.49 C696.41,2547.8 695.884,2547.95 695.142,2547.95 C694.833,2547.95 693.395,2547.55 690.828,2546.75 C688.261,2545.94 685.803,2545.54 683.452,2545.54 C681.35,2545.54 678.922,2545.94 676.17,2546.75 C673.417,2547.55 671.887,2547.95 671.577,2547.95 C670.897,2547.95 670.34,2547.68 669.907,2547.12 C669.475,2546.56 669.413,2545.98 669.722,2545.36 C673.371,2536.64 677.809,2528.15 683.035,2519.89 C688.261,2511.63 694.802,2502.12 702.656,2491.36 C699.688,2492.97 696.688,2493.77 693.657,2493.77 C690.441,2493.77 687.194,2492.34 683.916,2489.46 C680.638,2486.58 677.948,2485.15 675.845,2485.15 C674.299,2485.15 672.954,2486.03 671.809,2487.79 C670.665,2489.55 670.093,2492.2 670.093,2495.72 L670.093,2507.13 C670.093,2508.68 669.382,2509.45 667.959,2509.45 C666.413,2509.45 665.64,2508.68 665.64,2507.13 L665.64,2473.74 C665.64,2472.19 666.413,2471.42 667.959,2471.42 C669.382,2471.42 670.093,2472.19 670.093,2473.74 L670.093,2475.87 C670.093,2476.36 670.217,2476.8 670.464,2477.17 C671.206,2477.91 671.67,2478.28 671.856,2478.28"/>
<path class="FiguredBass" d="M1222.81,2529.21 C1222.12,2529.96 1221.23,2530.33 1220.11,2530.33 C1219,2530.33 1218.09,2529.94 1217.38,2529.17 C1216.67,2528.39 1216.31,2527.51 1216.31,2526.52 L1216.31,2513.26 L1203.04,2513.26 C1201.93,2513.26 1201.02,2512.87 1200.31,2512.1 C1199.6,2511.32 1199.24,2510.44 1199.24,2509.45 C1199.24,2508.46 1199.6,2507.58 1200.31,2506.81 C1201.02,2506.04 1201.93,2505.65 1203.04,2505.65 L1216.31,2505.65 L1216.31,2492.38 C1216.31,2491.39 1216.67,2490.51 1217.38,2489.74 C1218.09,2488.97 1219,2488.58 1220.11,2488.58 C1221.23,2488.58 1222.14,2488.97 1222.85,2489.74 C1223.56,2490.51 1223.92,2491.39 1223.92,2492.38 L1223.92,2505.65 L1237.19,2505.65 C1238.3,2505.65 1239.21,2506.04 1239.92,2506.81 C1240.63,2507.58 1240.99,2508.46 1240.99,2509.45 C1240.99,2510.44 1240.63,2511.32 1239.92,2512.1 C1239.21,2512.87 1238.3,2513.26 1237.19,2513.26 L1223.92,2513.26 L1223.92,2526.52 C1223.92,2527.51 1223.55,2528.41 1222.81,2529.21 M1276.23,2474.94 C1271.65,2474.94 1268.61,2476.78 1267.09,2480.46 C1265.58,2484.14 1264.82,2489.35 1264.82,2496.09 L1264.82,2507.04 C1268.03,2505.74 1270.82,2505.06 1273.17,2505 C1281.21,2505 1287.53,2506.78 1292.14,2510.33 C1296.75,2513.89 1299.05,2519.18 1299.05,2526.2 C1299.05,2533.22 1296.72,2538.52 1292.05,2542.11 C1287.38,2545.7 1281.08,2547.49 1273.17,2547.49 C1265.07,2547.49 1258.73,2543.73 1254.15,2536.22 C1249.57,2528.7 1247.28,2519.78 1247.28,2509.45 C1247.28,2499.19 1249.94,2490.28 1255.26,2482.73 C1260.58,2475.19 1267.57,2471.42 1276.23,2471.42 C1281.92,2471.42 1286.84,2472.85 1290.98,2475.73 C1295.12,2478.61 1297.2,2482.39 1297.2,2487.09 C1297.2,2489.82 1296.21,2492.17 1294.23,2494.15 C1292.25,2496.12 1289.88,2497.11 1287.13,2497.11 C1284.38,2497.11 1282.01,2496.12 1280.03,2494.15 C1278.05,2492.17 1277.06,2489.82 1277.06,2487.09 C1277.06,2484.44 1278.05,2482.09 1280.03,2480.04 C1280.71,2479.24 1281.67,2478.56 1282.91,2478 C1282.6,2477.2 1281.98,2476.58 1281.05,2476.15 C1279.69,2475.34 1278.08,2474.94 1276.23,2474.94 M1280.78,2512.89 C1279.66,2509.98 1277.22,2508.53 1273.45,2508.53 C1269.67,2508.53 1267.34,2509.98 1266.44,2512.89 C1265.54,2515.79 1265.1,2520.22 1265.1,2526.15 C1265.1,2533.14 1265.54,2537.84 1266.44,2540.25 C1267.34,2542.67 1269.67,2543.87 1273.45,2543.87 C1277.22,2543.87 1279.66,2542.42 1280.78,2539.51 C1281.89,2536.6 1282.44,2532.17 1282.44,2526.2 C1282.44,2520.23 1281.89,2515.79 1280.78,2512.89"/>
<path class="FiguredBass" d="M2456.4,2478.28 C2456.59,2478.28 2456.99,2477.88 2457.61,2477.08 C2460.27,2473.3 2463.98,2471.42 2468.74,2471.42 C2472.57,2471.42 2476.19,2472.84 2479.59,2475.68 C2483,2478.53 2485.81,2479.95 2488.04,2479.95 C2490.45,2479.95 2492.74,2479.24 2494.9,2477.82 C2497.07,2476.4 2498.78,2474.97 2500.05,2473.55 C2501.32,2472.13 2502.14,2471.42 2502.51,2471.42 C2503.13,2471.42 2503.68,2471.62 2504.18,2472.02 C2504.67,2472.42 2504.92,2472.93 2504.92,2473.55 C2504.92,2473.98 2503.65,2476.12 2501.12,2479.95 C2498.58,2483.79 2495.77,2488.22 2492.67,2493.26 C2489.58,2498.31 2486.77,2504.6 2484.23,2512.14 C2481.7,2519.69 2480.43,2526.89 2480.43,2533.76 C2480.43,2536.42 2480.71,2539.48 2481.26,2542.94 C2481.7,2545.6 2481.7,2547.12 2481.26,2547.49 C2480.95,2547.8 2480.43,2547.95 2479.69,2547.95 C2479.38,2547.95 2477.94,2547.55 2475.37,2546.75 C2472.81,2545.94 2470.35,2545.54 2468,2545.54 C2465.89,2545.54 2463.47,2545.94 2460.71,2546.75 C2457.96,2547.55 2456.43,2547.95 2456.12,2547.95 C2455.44,2547.95 2454.89,2547.68 2454.45,2547.12 C2454.02,2546.56 2453.96,2545.98 2454.27,2545.36 C2457.92,2536.64 2462.35,2528.15 2467.58,2519.89 C2472.81,2511.63 2479.35,2502.12 2487.2,2491.36 C2484.23,2492.97 2481.23,2493.77 2478.2,2493.77 C2474.99,2493.77 2471.74,2492.34 2468.46,2489.46 C2465.18,2486.58 2462.49,2485.15 2460.39,2485.15 C2458.84,2485.15 2457.5,2486.03 2456.35,2487.79 C2455.21,2489.55 2454.64,2492.2 2454.64,2495.72 L2454.64,2507.13 C2454.64,2508.68 2453.93,2509.45 2452.5,2509.45 C2450.96,2509.45 2450.18,2508.68 2450.18,2507.13 L2450.18,2473.74 C2450.18,2472.19 2450.96,2471.42 2452.5,2471.42 C2453.93,2471.42 2454.64,2472.19 2454.64,2473.74 L2454.64,2475.87 C2454.64,2476.36 2454.76,2476.8 2455.01,2477.17 C2455.75,2477.91 2456.21,2478.28 2456.4,2478.28"/>
<path class="FiguredBass" d="M3037.67,2475.9 C3037.86,2475.9 3038.26,2475.5 3038.88,2474.69 C3041.54,2470.92 3045.25,2469.04 3050.01,2469.04 C3053.85,2469.04 3057.46,2470.46 3060.87,2473.3 C3064.27,2476.15 3067.08,2477.57 3069.31,2477.57 C3071.72,2477.57 3074.01,2476.86 3076.17,2475.44 C3078.34,2474.01 3080.06,2472.59 3081.32,2471.17 C3082.59,2469.75 3083.41,2469.04 3083.78,2469.04 C3084.4,2469.04 3084.96,2469.24 3085.45,2469.64 C3085.95,2470.04 3086.19,2470.55 3086.19,2471.17 C3086.19,2471.6 3084.93,2473.74 3082.39,2477.57 C3079.85,2481.4 3077.04,2485.84 3073.95,2490.88 C3070.86,2495.92 3068.04,2502.22 3065.51,2509.76 C3062.97,2517.31 3061.7,2524.51 3061.7,2531.38 C3061.7,2534.04 3061.98,2537.1 3062.54,2540.56 C3062.97,2543.22 3062.97,2544.74 3062.54,2545.11 C3062.23,2545.42 3061.7,2545.57 3060.96,2545.57 C3060.65,2545.57 3059.21,2545.17 3056.65,2544.37 C3054.08,2543.56 3051.62,2543.16 3049.27,2543.16 C3047.17,2543.16 3044.74,2543.56 3041.99,2544.37 C3039.23,2545.17 3037.7,2545.57 3037.39,2545.57 C3036.71,2545.57 3036.16,2545.29 3035.73,2544.74 C3035.29,2544.18 3035.23,2543.59 3035.54,2542.98 C3039.19,2534.25 3043.63,2525.77 3048.85,2517.51 C3054.08,2509.25 3060.62,2499.74 3068.47,2488.98 C3065.51,2490.59 3062.51,2491.39 3059.48,2491.39 C3056.26,2491.39 3053.01,2489.96 3049.73,2487.08 C3046.46,2484.2 3043.77,2482.77 3041.66,2482.77 C3040.12,2482.77 3038.77,2483.65 3037.63,2485.41 C3036.48,2487.17 3035.91,2489.82 3035.91,2493.34 L3035.91,2504.75 C3035.91,2506.3 3035.2,2507.07 3033.78,2507.07 C3032.23,2507.07 3031.46,2506.3 3031.46,2504.75 L3031.46,2471.35 C3031.46,2469.81 3032.23,2469.04 3033.78,2469.04 C3035.2,2469.04 3035.91,2469.81 3035.91,2471.35 L3035.91,2473.49 C3035.91,2473.98 3036.03,2474.42 3036.28,2474.79 C3037.02,2475.53 3037.49,2475.9 3037.67,2475.9"/>
<path class="FiguredBass" d="M3060.69,2632.58 C3060.01,2633.33 3059.11,2633.7 3058,2633.7 C3056.88,2633.7 3055.97,2633.31 3055.26,2632.54 C3054.55,2631.76 3054.19,2630.88 3054.19,2629.89 L3054.19,2616.63 L3040.93,2616.63 C3039.81,2616.63 3038.9,2616.24 3038.19,2615.47 C3037.48,2614.69 3037.12,2613.81 3037.12,2612.82 C3037.12,2611.83 3037.48,2610.95 3038.19,2610.18 C3038.9,2609.41 3039.81,2609.02 3040.93,2609.02 L3054.19,2609.02 L3054.19,2595.75 C3054.19,2594.76 3054.55,2593.88 3055.26,2593.11 C3055.97,2592.33 3056.88,2591.95 3058,2591.95 C3059.11,2591.95 3060.02,2592.33 3060.73,2593.11 C3061.44,2593.88 3061.8,2594.76 3061.8,2595.75 L3061.8,2609.02 L3075.07,2609.02 C3076.18,2609.02 3077.09,2609.41 3077.8,2610.18 C3078.51,2610.95 3078.87,2611.83 3078.87,2612.82 C3078.87,2613.81 3078.51,2614.69 3077.8,2615.47 C3077.09,2616.24 3076.18,2616.63 3075.07,2616.63 L3061.8,2616.63 L3061.8,2629.89 C3061.8,2630.88 3061.43,2631.78 3060.69,2632.58"/>
<path class="FiguredBass" d="M672.32,1761.58 C672.32,1761.58 673.804,1761.8 676.773,1762.23 C678.072,1762.42 679.525,1762.6 681.133,1762.79 C685.401,1763.28 689.514,1763.53 693.472,1763.53 C697.43,1763.53 701.605,1763.28 705.996,1762.79 C707.728,1762.6 709.243,1762.42 710.542,1762.23 L715.088,1761.58 C716.016,1761.58 716.712,1761.89 717.176,1762.51 C717.639,1763.13 717.593,1763.62 717.036,1763.99 C707.573,1773.46 694.245,1778.19 677.051,1778.19 C676.371,1778.19 675.768,1778.44 675.242,1778.93 C674.716,1779.43 674.453,1780.04 674.453,1780.79 L674.453,1795.35 C678.845,1791.02 684.164,1788.86 690.41,1788.86 C699.44,1788.86 706.414,1790.88 711.331,1794.93 C716.248,1798.99 718.706,1805.12 718.706,1813.35 C718.706,1820.34 715.923,1826.14 710.357,1830.74 C704.79,1835.35 698.141,1837.66 690.41,1837.66 C683.731,1837.66 677.932,1836.14 673.015,1833.11 C668.098,1830.08 665.64,1825.87 665.64,1820.49 C665.64,1817.77 666.629,1815.41 668.609,1813.4 C670.588,1811.39 672.954,1810.38 675.706,1810.38 C678.458,1810.38 680.793,1811.37 682.71,1813.35 C684.627,1815.33 685.586,1817.71 685.586,1820.49 C685.586,1821.73 684.566,1823.08 682.525,1824.53 C680.484,1825.98 679.463,1827.33 679.463,1828.56 C679.463,1832.28 683.112,1834.13 690.41,1834.13 C697.523,1834.13 701.079,1827.2 701.079,1813.35 C701.079,1799.99 697.523,1793.28 690.41,1793.22 C684.04,1793.22 679.587,1794.52 677.051,1797.11 C674.515,1799.71 672.938,1801.01 672.32,1801.01 C670.773,1801.01 670.031,1800.24 670.093,1798.69 L670.093,1763.99 C670.093,1763.31 670.309,1762.74 670.742,1762.28 C671.175,1761.81 671.701,1761.58 672.32,1761.58"/>
<path class="FiguredBass" d="M706.831,1903.05 C706.831,1904.04 707.388,1905 708.501,1905.93 C709.614,1906.85 710.836,1907.73 712.166,1908.57 C713.495,1909.4 714.717,1910.98 715.83,1913.3 C716.944,1915.62 717.5,1918.54 717.5,1922.07 C717.5,1928.87 714.933,1934.13 709.8,1937.84 C704.667,1941.55 698.172,1943.41 690.318,1943.41 C684.009,1943.41 678.52,1941.83 673.85,1938.67 C669.181,1935.52 666.846,1931.38 666.846,1926.24 C666.846,1923.52 667.836,1921.16 669.815,1919.15 C671.794,1917.14 674.16,1916.13 676.912,1916.13 C679.664,1916.13 681.999,1917.12 683.916,1919.1 C685.834,1921.08 686.792,1923.46 686.792,1926.24 C686.792,1927.48 685.772,1928.83 683.731,1930.28 C681.69,1931.73 680.669,1933.08 680.669,1934.31 C680.669,1936.23 681.612,1937.64 683.499,1938.54 C685.385,1939.43 687.658,1939.88 690.318,1939.88 C693.781,1939.88 696.24,1938.16 697.693,1934.73 C699.147,1931.3 699.873,1927.08 699.873,1922.07 L699.873,1919.66 C699.873,1916.32 699.765,1913.78 699.549,1912.05 C699.332,1910.32 698.652,1908.77 697.508,1907.41 C696.363,1906.05 694.616,1905.37 692.266,1905.37 L680.113,1905.37 C678.69,1905.37 677.979,1904.6 677.979,1903.05 C677.979,1901.63 678.69,1900.92 680.113,1900.92 L692.266,1900.92 C694.802,1900.92 696.781,1899.96 698.203,1898.04 C698.698,1897.36 699.1,1896.25 699.409,1894.7 C699.719,1892.66 699.873,1889.72 699.873,1885.89 L699.873,1884.68 C699.873,1875.47 696.472,1870.86 689.668,1870.86 C683.669,1870.86 680.669,1872.53 680.669,1875.87 C680.669,1876.98 681.581,1878.17 683.406,1879.44 C685.231,1880.71 686.143,1881.9 686.143,1883.01 C686.143,1885.42 685.292,1887.49 683.592,1889.23 C681.891,1890.96 679.819,1891.82 677.376,1891.82 C674.933,1891.82 672.876,1890.96 671.206,1889.23 C669.536,1887.49 668.701,1885.42 668.701,1883.01 C668.701,1878.25 670.773,1874.44 674.917,1871.6 C679.061,1868.75 683.978,1867.33 689.668,1867.33 C697.152,1867.33 703.306,1868.77 708.13,1871.65 C712.954,1874.52 715.366,1878.87 715.366,1884.68 C715.366,1888.82 714.933,1892.04 714.068,1894.33 C713.202,1896.62 712.212,1898.01 711.099,1898.5 C709.986,1899 708.996,1899.57 708.13,1900.22 C707.264,1900.87 706.831,1901.81 706.831,1903.05"/>
<path class="FiguredBass" d="M671.856,1979.95 C672.041,1979.95 672.443,1979.55 673.062,1978.74 C675.721,1974.97 679.432,1973.08 684.195,1973.08 C688.029,1973.08 691.647,1974.5 695.049,1977.35 C698.451,1980.19 701.265,1981.62 703.491,1981.62 C705.904,1981.62 708.192,1980.91 710.357,1979.48 C712.521,1978.06 714.238,1976.64 715.506,1975.22 C716.773,1973.79 717.593,1973.08 717.964,1973.08 C718.583,1973.08 719.139,1973.28 719.634,1973.68 C720.129,1974.09 720.376,1974.6 720.376,1975.22 C720.376,1975.65 719.108,1977.78 716.572,1981.62 C714.037,1985.45 711.223,1989.89 708.13,1994.93 C705.038,1999.97 702.224,2006.26 699.688,2013.81 C697.152,2021.36 695.884,2028.56 695.884,2035.43 C695.884,2038.09 696.162,2041.15 696.719,2044.61 C697.152,2047.27 697.152,2048.79 696.719,2049.16 C696.41,2049.47 695.884,2049.62 695.142,2049.62 C694.833,2049.62 693.395,2049.22 690.828,2048.41 C688.261,2047.61 685.803,2047.21 683.452,2047.21 C681.35,2047.21 678.922,2047.61 676.17,2048.41 C673.417,2049.22 671.887,2049.62 671.577,2049.62 C670.897,2049.62 670.34,2049.34 669.907,2048.79 C669.475,2048.23 669.413,2047.64 669.722,2047.02 C673.371,2038.3 677.809,2029.81 683.035,2021.56 C688.261,2013.3 694.802,2003.79 702.656,1993.03 C699.688,1994.64 696.688,1995.44 693.657,1995.44 C690.441,1995.44 687.194,1994 683.916,1991.13 C680.638,1988.25 677.948,1986.81 675.845,1986.81 C674.299,1986.81 672.954,1987.69 671.809,1989.46 C670.665,1991.22 670.093,1993.86 670.093,1997.39 L670.093,2008.8 C670.093,2010.35 669.382,2011.12 667.959,2011.12 C666.413,2011.12 665.64,2010.35 665.64,2008.8 L665.64,1975.4 C665.64,1973.86 666.413,1973.08 667.959,1973.08 C669.382,1973.08 670.093,1973.86 670.093,1975.4 L670.093,1977.54 C670.093,1978.03 670.217,1978.46 670.464,1978.83 C671.206,1979.58 671.67,1979.95 671.856,1979.95"/>
<path class="FiguredBass" d="M2456.86,1761.58 C2456.86,1761.58 2458.35,1761.8 2461.32,1762.23 C2462.62,1762.42 2464.07,1762.6 2465.68,1762.79 C2469.95,1763.28 2474.06,1763.53 2478.02,1763.53 C2481.97,1763.53 2486.15,1763.28 2490.54,1762.79 C2492.27,1762.6 2493.79,1762.42 2495.09,1762.23 L2499.63,1761.58 C2500.56,1761.58 2501.26,1761.89 2501.72,1762.51 C2502.18,1763.13 2502.14,1763.62 2501.58,1763.99 C2492.12,1773.46 2478.79,1778.19 2461.6,1778.19 C2460.92,1778.19 2460.31,1778.44 2459.79,1778.93 C2459.26,1779.43 2459,1780.04 2459,1780.79 L2459,1795.35 C2463.39,1791.02 2468.71,1788.86 2474.96,1788.86 C2483.99,1788.86 2490.96,1790.88 2495.88,1794.93 C2500.79,1798.99 2503.25,1805.12 2503.25,1813.35 C2503.25,1820.34 2500.47,1826.14 2494.9,1830.74 C2489.33,1835.35 2482.69,1837.66 2474.96,1837.66 C2468.28,1837.66 2462.48,1836.14 2457.56,1833.11 C2452.64,1830.08 2450.18,1825.87 2450.18,1820.49 C2450.18,1817.77 2451.17,1815.41 2453.15,1813.4 C2455.13,1811.39 2457.5,1810.38 2460.25,1810.38 C2463,1810.38 2465.34,1811.37 2467.25,1813.35 C2469.17,1815.33 2470.13,1817.71 2470.13,1820.49 C2470.13,1821.73 2469.11,1823.08 2467.07,1824.53 C2465.03,1825.98 2464.01,1827.33 2464.01,1828.56 C2464.01,1832.28 2467.66,1834.13 2474.96,1834.13 C2482.07,1834.13 2485.62,1827.2 2485.62,1813.35 C2485.62,1799.99 2482.07,1793.28 2474.96,1793.22 C2468.58,1793.22 2464.13,1794.52 2461.6,1797.11 C2459.06,1799.71 2457.48,1801.01 2456.86,1801.01 C2455.32,1801.01 2454.58,1800.24 2454.64,1798.69 L2454.64,1763.99 C2454.64,1763.31 2454.85,1762.74 2455.29,1762.28 C2455.72,1761.81 2456.25,1761.58 2456.86,1761.58"/>
<path class="FiguredBass" d="M2491.38,1903.05 C2491.38,1904.04 2491.93,1905 2493.05,1905.93 C2494.16,1906.85 2495.38,1907.73 2496.71,1908.57 C2498.04,1909.4 2499.26,1910.98 2500.38,1913.3 C2501.49,1915.62 2502.04,1918.54 2502.04,1922.07 C2502.04,1928.87 2499.48,1934.13 2494.34,1937.84 C2489.21,1941.55 2482.72,1943.41 2474.86,1943.41 C2468.55,1943.41 2463.06,1941.83 2458.4,1938.67 C2453.73,1935.52 2451.39,1931.38 2451.39,1926.24 C2451.39,1923.52 2452.38,1921.16 2454.36,1919.15 C2456.34,1917.14 2458.7,1916.13 2461.46,1916.13 C2464.21,1916.13 2466.54,1917.12 2468.46,1919.1 C2470.38,1921.08 2471.34,1923.46 2471.34,1926.24 C2471.34,1927.48 2470.32,1928.83 2468.28,1930.28 C2466.23,1931.73 2465.21,1933.08 2465.21,1934.31 C2465.21,1936.23 2466.16,1937.64 2468.04,1938.54 C2469.93,1939.43 2472.2,1939.88 2474.86,1939.88 C2478.33,1939.88 2480.78,1938.16 2482.24,1934.73 C2483.69,1931.3 2484.42,1927.08 2484.42,1922.07 L2484.42,1919.66 C2484.42,1916.32 2484.31,1913.78 2484.09,1912.05 C2483.88,1910.32 2483.2,1908.77 2482.05,1907.41 C2480.91,1906.05 2479.16,1905.37 2476.81,1905.37 L2464.66,1905.37 C2463.23,1905.37 2462.52,1904.6 2462.52,1903.05 C2462.52,1901.63 2463.23,1900.92 2464.66,1900.92 L2476.81,1900.92 C2479.35,1900.92 2481.33,1899.96 2482.75,1898.04 C2483.24,1897.36 2483.64,1896.25 2483.95,1894.7 C2484.26,1892.66 2484.42,1889.72 2484.42,1885.89 L2484.42,1884.68 C2484.42,1875.47 2481.02,1870.86 2474.21,1870.86 C2468.21,1870.86 2465.21,1872.53 2465.21,1875.87 C2465.21,1876.98 2466.13,1878.17 2467.95,1879.44 C2469.78,1880.71 2470.69,1881.9 2470.69,1883.01 C2470.69,1885.42 2469.84,1887.49 2468.14,1889.23 C2466.44,1890.96 2464.36,1891.82 2461.92,1891.82 C2459.48,1891.82 2457.42,1890.96 2455.75,1889.23 C2454.08,1887.49 2453.25,1885.42 2453.25,1883.01 C2453.25,1878.25 2455.32,1874.44 2459.46,1871.6 C2463.61,1868.75 2468.52,1867.33 2474.21,1867.33 C2481.7,1867.33 2487.85,1868.77 2492.67,1871.65 C2497.5,1874.52 2499.91,1878.87 2499.91,1884.68 C2499.91,1888.82 2499.48,1892.04 2498.61,1894.33 C2497.75,1896.62 2496.76,1898.01 2495.64,1898.5 C2494.53,1899 2493.54,1899.57 2492.67,1900.22 C2491.81,1900.87 2491.38,1901.81 2491.38,1903.05"/>
<path class="FiguredBass" d="M2456.4,1979.95 C2456.59,1979.95 2456.99,1979.55 2457.61,1978.74 C2460.27,1974.97 2463.98,1973.08 2468.74,1973.08 C2472.57,1973.08 2476.19,1974.5 2479.59,1977.35 C2483,1980.19 2485.81,1981.62 2488.04,1981.62 C2490.45,1981.62 2492.74,1980.91 2494.9,1979.48 C2497.07,1978.06 2498.78,1976.64 2500.05,1975.22 C2501.32,1973.79 2502.14,1973.08 2502.51,1973.08 C2503.13,1973.08 2503.68,1973.28 2504.18,1973.68 C2504.67,1974.09 2504.92,1974.6 2504.92,1975.22 C2504.92,1975.65 2503.65,1977.78 2501.12,1981.62 C2498.58,1985.45 2495.77,1989.89 2492.67,1994.93 C2489.58,1999.97 2486.77,2006.26 2484.23,2013.81 C2481.7,2021.36 2480.43,2028.56 2480.43,2035.43 C2480.43,2038.09 2480.71,2041.15 2481.26,2044.61 C2481.7,2047.27 2481.7,2048.79 2481.26,2049.16 C2480.95,2049.47 2480.43,2049.62 2479.69,2049.62 C2479.38,2049.62 2477.94,2049.22 2475.37,2048.41 C2472.81,2047.61 2470.35,2047.21 2468,2047.21 C2465.89,2047.21 2463.47,2047.61 2460.71,2048.41 C2457.96,2049.22 2456.43,2049.62 2456.12,2049.62 C2455.44,2049.62 2454.89,2049.34 2454.45,2048.79 C2454.02,2048.23 2453.96,2047.64 2454.27,2047.02 C2457.92,2038.3 2462.35,2029.81 2467.58,2021.56 C2472.81,2013.3 2479.35,2003.79 2487.2,1993.03 C2484.23,1994.64 2481.23,1995.44 2478.2,1995.44 C2474.99,1995.44 2471.74,1994 2468.46,1991.13 C2465.18,1988.25 2462.49,1986.81 2460.39,1986.81 C2458.84,1986.81 2457.5,1987.69 2456.35,1989.46 C2455.21,1991.22 2454.64,1993.86 2454.64,1997.39 L2454.64,2008.8 C2454.64,2010.35 2453.93,2011.12 2452.5,2011.12 C2450.96,2011.12 2450.18,2010.35 2450.18,2008.8 L2450.18,1975.4 C2450.18,1973.86 2450.96,1973.08 2452.5,1973.08 C2453.93,1973.08 2454.64,1973.86 2454.64,1975.4 L2454.64,1977.54 C2454.64,1978.03 2454.76,1978.46 2455.01,1978.83 C2455.75,1979.58 2456.21,1979.95 2456.4,1979.95"/>
<path class="Bracket" transform="matrix(8.6315,0,0,9.45563,76.1283,2337.37)" d="M0.92002,-50 C2.69004,-51.88 6.2,-55.8 6.2,-63 C6.2,-72.1 2.25996,-81.32 2.25996,-86.97 C2.25996,-93.06 5.84004,-98.84 5.95,-99 C6.05996,-99.16 6.05,-99.39 5.94004,-99.46 C5.82998,-99.53 5.62002,-99.47 5.49004,-99.32 C5.35996,-99.17 0,-93.75 0,-85.6 C0,-76.75 3.5,-70.58 3.5,-59.07 C3.5,-56.89 2.55996,-53.36 0.1,-50.33 C-0.0799805,-50.17 -0.1,-49.89 0.0599609,-49.7 L0.0700195,-49.69 L0.1,-49.66 C2.55996,-46.63 3.5,-43.1 3.5,-40.92 C3.5,-29.4 0,-23.24 0,-14.39 C0,-6.25 5.35996,-0.8 5.49004,-0.659961 C5.62002,-0.52002 5.8,-0.42998 5.94004,-0.52002 C6.07998,-0.609961 6.07998,-0.77998 5.95,-0.97998 C5.82002,-1.17998 2.25996,-6.92002 2.25996,-13.01 C2.25996,-18.66 6.2,-27.9 6.2,-37 C6.2,-44.3 2.69004,-48.12 0.92002,-50"/>
</svg>
