<?xml version="1.0" encoding="UTF-8" standalone="no"?>
<svg width="4209.44px" height="2976.38px" viewBox="0 0 4209.44 2976.38"
 xmlns="http://www.w3.org/2000/svg" xmlns:xlink="http://www.w3.org/1999/xlink" version="1.2" baseProfile="tiny">
<title>ReMineur (6)</title>
<desc>Generated by MuseScore 3.6.2</desc>
<polyline class="StaffLines" fill="none" stroke="#000000" stroke-width="6.55" stroke-linejoin="bevel" points="153.819,558.425 4138.58,558.425"/>
<polyline class="StaffLines" fill="none" stroke="#000000" stroke-width="6.55" stroke-linejoin="bevel" points="153.819,647.717 4138.58,647.717"/>
<polyline class="StaffLines" fill="none" stroke="#000000" stroke-width="6.55" stroke-linejoin="bevel" points="153.819,737.008 4138.58,737.008"/>
<polyline class="StaffLines" fill="none" stroke="#000000" stroke-width="6.55" stroke-linejoin="bevel" points="153.819,826.299 4138.58,826.299"/>
<polyline class="StaffLines" fill="none" stroke="#000000" stroke-width="6.55" stroke-linejoin="bevel" points="153.819,915.591 4138.58,915.591"/>
<polyline class="StaffLines" fill="none" stroke="#000000" stroke-width="6.55" stroke-linejoin="bevel" points="153.819,1004.88 4138.58,1004.88"/>
<polyline class="StaffLines" fill="none" stroke="#000000" stroke-width="6.55" stroke-linejoin="bevel" points="153.819,1391.81 4138.58,1391.81"/>
<polyline class="StaffLines" fill="none" stroke="#000000" stroke-width="6.55" stroke-linejoin="bevel" points="153.819,1451.34 4138.58,1451.34"/>
<polyline class="StaffLines" fill="none" stroke="#000000" stroke-width="6.55" stroke-linejoin="bevel" points="153.819,1510.87 4138.58,1510.87"/>
<polyline class="StaffLines" fill="none" stroke="#000000" stroke-width="6.55" stroke-linejoin="bevel" points="153.819,1570.39 4138.58,1570.39"/>
<polyline class="StaffLines" fill="none" stroke="#000000" stroke-width="6.55" stroke-linejoin="bevel" points="153.819,1629.92 4138.58,1629.92"/>
<polyline class="StaffLines" fill="none" stroke="#000000" stroke-width="6.55" stroke-linejoin="bevel" points="153.819,2016.85 4138.58,2016.85"/>
<polyline class="StaffLines" fill="none" stroke="#000000" stroke-width="6.55" stroke-linejoin="bevel" points="153.819,2076.38 4138.58,2076.38"/>
<polyline class="StaffLines" fill="none" stroke="#000000" stroke-width="6.55" stroke-linejoin="bevel" points="153.819,2135.91 4138.58,2135.91"/>
<polyline class="StaffLines" fill="none" stroke="#000000" stroke-width="6.55" stroke-linejoin="bevel" points="153.819,2195.43 4138.58,2195.43"/>
<polyline class="StaffLines" fill="none" stroke="#000000" stroke-width="6.55" stroke-linejoin="bevel" points="153.819,2254.96 4138.58,2254.96"/>
<polyline class="BarLine" fill="none" stroke="#000000" stroke-width="10.71" stroke-linejoin="bevel" points="159.176,2013.58 159.176,2258.23"/>
<polyline class="BarLine" fill="none" stroke="#000000" stroke-width="10.71" stroke-linejoin="bevel" points="1396.62,2013.58 1396.62,2258.23"/>
<polyline class="BarLine" fill="none" stroke="#000000" stroke-width="10.71" stroke-linejoin="bevel" points="2256.17,2013.58 2256.17,2258.23"/>
<polyline class="BarLine" fill="none" stroke="#000000" stroke-width="10.71" stroke-linejoin="bevel" points="2288.91,2013.58 2288.91,2258.23"/>
<polyline class="BarLine" fill="none" stroke="#000000" stroke-width="10.71" stroke-linejoin="bevel" points="3203.84,2013.58 3203.84,2258.23"/>
<polyline class="BarLine" fill="none" stroke="#000000" stroke-width="10.71" stroke-linejoin="bevel" points="4080.54,2013.58 4080.54,2258.23"/>
<polyline class="BarLine" fill="none" stroke="#000000" stroke-width="32.74" stroke-linejoin="bevel" points="4122.21,2013.58 4122.21,2258.23"/>
<polyline class="BarLine" fill="none" stroke="#000000" stroke-width="10.71" stroke-linejoin="bevel" points="159.176,1388.54 159.176,2016.85"/>
<polyline class="BarLine" fill="none" stroke="#000000" stroke-width="10.71" stroke-linejoin="bevel" points="1396.62,1388.54 1396.62,1633.2"/>
<polyline class="BarLine" fill="none" stroke="#000000" stroke-width="10.71" stroke-linejoin="bevel" points="2256.17,1388.54 2256.17,1633.2"/>
<polyline class="BarLine" fill="none" stroke="#000000" stroke-width="10.71" stroke-linejoin="bevel" points="2288.91,1388.54 2288.91,1633.2"/>
<polyline class="BarLine" fill="none" stroke="#000000" stroke-width="10.71" stroke-linejoin="bevel" points="3203.84,1388.54 3203.84,1633.2"/>
<polyline class="BarLine" fill="none" stroke="#000000" stroke-width="10.71" stroke-linejoin="bevel" points="4080.54,1388.54 4080.54,1633.2"/>
<polyline class="BarLine" fill="none" stroke="#000000" stroke-width="32.74" stroke-linejoin="bevel" points="4122.21,1388.54 4122.21,1633.2"/>
<polyline class="BarLine" fill="none" stroke="#000000" stroke-width="10.71" stroke-linejoin="bevel" points="159.176,555.151 159.176,1391.81"/>
<polyline class="BarLine" fill="none" stroke="#000000" stroke-width="10.71" stroke-linejoin="bevel" points="1396.62,555.151 1396.62,1008.16"/>
<polyline class="BarLine" fill="none" stroke="#000000" stroke-width="10.71" stroke-linejoin="bevel" points="2256.17,555.151 2256.17,1008.16"/>
<polyline class="BarLine" fill="none" stroke="#000000" stroke-width="10.71" stroke-linejoin="bevel" points="2288.91,555.151 2288.91,1008.16"/>
<polyline class="BarLine" fill="none" stroke="#000000" stroke-width="10.71" stroke-linejoin="bevel" points="3203.84,555.151 3203.84,1008.16"/>
<polyline class="BarLine" fill="none" stroke="#000000" stroke-width="10.71" stroke-linejoin="bevel" points="4080.54,555.151 4080.54,1008.16"/>
<polyline class="BarLine" fill="none" stroke="#000000" stroke-width="32.74" stroke-linejoin="bevel" points="4122.21,555.151 4122.21,1008.16"/>
<path class="Accidental" transform="matrix(2.3811,0,0,2.3811,3255.27,2195.43)" d="M16.6,-18.3 C16.4,-18.5 16.1,-18.6 15.8,-18.6 C15.7,-18.6 15.5,-18.5 15.4,-18.5 L2.8,-15 L2.8,-32.5 L0,-32.5 L0,17 C0,17.8 0.6,18.3 1.4,18.3 L1.8,18.3 L14.4,14.8 L14.4,32.3 L17.1,32.3 L17.1,-17.2 C17.1,-17.6 16.9,-18.1 16.6,-18.3 M14.4,6.5 L2.8,9.7 L2.8,-6.7 L14.4,-10 L14.4,6.5 "/>
<path class="Accidental" transform="matrix(2.3811,0,0,2.3811,2340.34,1689.45)" d="M23.3,-10.6 C23.9,-10.7 24.4,-11.4 24.4,-12 L24.4,-17.9 C24.4,-18.7 23.8,-19.3 23,-19.3 L22.8,-19.3 L19.5,-18.6 L19.5,-33.5 L16.7,-33.5 L16.7,-18 L7.8,-16.2 L7.8,-30.3 L5,-30.3 L5,-15.6 L1.1,-14.8 C0.5,-14.7 0,-14 0,-13.4 L0,-13.2 L0,-7.4 L0,-7.6 C0,-6.8 0.6,-6.2 1.4,-6.2 L1.7,-6.2 L5,-6.9 L5,9.6 L1.1,10.4 C0.5,10.5 0,11.2 0,11.8 L0,17.6 C0,18.4 0.6,19 1.4,19 L1.7,19 L5,18.3 L5,33.2 L7.8,33.2 L7.8,17.7 L16.7,15.9 L16.7,30 L19.5,30 L19.5,15.3 L23.3,14.6 C23.9,14.5 24.4,13.8 24.4,13.2 L24.4,7.3 C24.4,6.5 23.8,5.9 23,5.9 L22.8,5.9 L19.5,6.6 L19.5,-9.9 L23.3,-10.6 M7.8,9.1 L7.8,-7.5 L16.7,-9.3 L16.7,7.2 L7.8,9.1 "/>
<polyline class="LedgerLine" fill="none" stroke="#000000" stroke-width="9.52" stroke-linejoin="bevel" points="2413.32,1689.45 2543.79,1689.45"/>
<path class="Note" transform="matrix(2.3811,0,0,2.3811,626.933,2135.91)" d="M18.7,-13.6 C4.9,-13.6 0,-6.6 0,-0.1 C0,6.4 4.9,13.4 18.7,13.4 C32.5,13.4 37.3,6.4 37.3,-0.1 C37.3,-6.6 32.5,-13.6 18.7,-13.6 M10.4,-4.5 C10.3,-4.9 10.3,-5.3 10.3,-5.7 C10.3,-6.5 10.5,-7.3 10.9,-8 C11.6,-9 12.8,-9.7 14.3,-10 C15.6,-10.3 16.3,-10.5 18.9,-10.5 L19,-10.5 C23,-10.5 24.3,-6.8 25.4,-3 L25.7,-2 C26.5,0.6 26.9,2.8 26.9,4.5 C26.9,5.7 26.7,6.8 26.3,7.6 C25.7,8.7 24.7,9.4 23,9.8 C22.1,10 20.6,10.1 20.6,10.1 C20.1,10.1 19.7,10.2 19.3,10.2 C16.1,10.2 14.1,9 12.7,4.7 C11.5,1 11.3,-0.1 10.4,-4.5"/>
<path class="Note" transform="matrix(2.3811,0,0,2.3811,1479.36,2165.67)" d="M18.7,-13.6 C4.9,-13.6 0,-6.6 0,-0.1 C0,6.4 4.9,13.4 18.7,13.4 C32.5,13.4 37.3,6.4 37.3,-0.1 C37.3,-6.6 32.5,-13.6 18.7,-13.6 M10.4,-4.5 C10.3,-4.9 10.3,-5.3 10.3,-5.7 C10.3,-6.5 10.5,-7.3 10.9,-8 C11.6,-9 12.8,-9.7 14.3,-10 C15.6,-10.3 16.3,-10.5 18.9,-10.5 L19,-10.5 C23,-10.5 24.3,-6.8 25.4,-3 L25.7,-2 C26.5,0.6 26.9,2.8 26.9,4.5 C26.9,5.7 26.7,6.8 26.3,7.6 C25.7,8.7 24.7,9.4 23,9.8 C22.1,10 20.6,10.1 20.6,10.1 C20.1,10.1 19.7,10.2 19.3,10.2 C16.1,10.2 14.1,9 12.7,4.7 C11.5,1 11.3,-0.1 10.4,-4.5"/>
<path class="Note" transform="matrix(2.3811,0,0,2.3811,2434.15,2225.2)" d="M18.7,-13.6 C4.9,-13.6 0,-6.6 0,-0.1 C0,6.4 4.9,13.4 18.7,13.4 C32.5,13.4 37.3,6.4 37.3,-0.1 C37.3,-6.6 32.5,-13.6 18.7,-13.6 M10.4,-4.5 C10.3,-4.9 10.3,-5.3 10.3,-5.7 C10.3,-6.5 10.5,-7.3 10.9,-8 C11.6,-9 12.8,-9.7 14.3,-10 C15.6,-10.3 16.3,-10.5 18.9,-10.5 L19,-10.5 C23,-10.5 24.3,-6.8 25.4,-3 L25.7,-2 C26.5,0.6 26.9,2.8 26.9,4.5 C26.9,5.7 26.7,6.8 26.3,7.6 C25.7,8.7 24.7,9.4 23,9.8 C22.1,10 20.6,10.1 20.6,10.1 C20.1,10.1 19.7,10.2 19.3,10.2 C16.1,10.2 14.1,9 12.7,4.7 C11.5,1 11.3,-0.1 10.4,-4.5"/>
<path class="Note" transform="matrix(2.3811,0,0,2.3811,3310.85,2195.43)" d="M18.7,-13.6 C4.9,-13.6 0,-6.6 0,-0.1 C0,6.4 4.9,13.4 18.7,13.4 C32.5,13.4 37.3,6.4 37.3,-0.1 C37.3,-6.6 32.5,-13.6 18.7,-13.6 M10.4,-4.5 C10.3,-4.9 10.3,-5.3 10.3,-5.7 C10.3,-6.5 10.5,-7.3 10.9,-8 C11.6,-9 12.8,-9.7 14.3,-10 C15.6,-10.3 16.3,-10.5 18.9,-10.5 L19,-10.5 C23,-10.5 24.3,-6.8 25.4,-3 L25.7,-2 C26.5,0.6 26.9,2.8 26.9,4.5 C26.9,5.7 26.7,6.8 26.3,7.6 C25.7,8.7 24.7,9.4 23,9.8 C22.1,10 20.6,10.1 20.6,10.1 C20.1,10.1 19.7,10.2 19.3,10.2 C16.1,10.2 14.1,9 12.7,4.7 C11.5,1 11.3,-0.1 10.4,-4.5"/>
<path class="Note" transform="matrix(2.3811,0,0,2.3811,626.933,1600.16)" d="M18.7,-13.6 C4.9,-13.6 0,-6.6 0,-0.1 C0,6.4 4.9,13.4 18.7,13.4 C32.5,13.4 37.3,6.4 37.3,-0.1 C37.3,-6.6 32.5,-13.6 18.7,-13.6 M10.4,-4.5 C10.3,-4.9 10.3,-5.3 10.3,-5.7 C10.3,-6.5 10.5,-7.3 10.9,-8 C11.6,-9 12.8,-9.7 14.3,-10 C15.6,-10.3 16.3,-10.5 18.9,-10.5 L19,-10.5 C23,-10.5 24.3,-6.8 25.4,-3 L25.7,-2 C26.5,0.6 26.9,2.8 26.9,4.5 C26.9,5.7 26.7,6.8 26.3,7.6 C25.7,8.7 24.7,9.4 23,9.8 C22.1,10 20.6,10.1 20.6,10.1 C20.1,10.1 19.7,10.2 19.3,10.2 C16.1,10.2 14.1,9 12.7,4.7 C11.5,1 11.3,-0.1 10.4,-4.5"/>
<path class="Note" transform="matrix(2.3811,0,0,2.3811,626.933,1540.63)" d="M18.7,-13.6 C4.9,-13.6 0,-6.6 0,-0.1 C0,6.4 4.9,13.4 18.7,13.4 C32.5,13.4 37.3,6.4 37.3,-0.1 C37.3,-6.6 32.5,-13.6 18.7,-13.6 M10.4,-4.5 C10.3,-4.9 10.3,-5.3 10.3,-5.7 C10.3,-6.5 10.5,-7.3 10.9,-8 C11.6,-9 12.8,-9.7 14.3,-10 C15.6,-10.3 16.3,-10.5 18.9,-10.5 L19,-10.5 C23,-10.5 24.3,-6.8 25.4,-3 L25.7,-2 C26.5,0.6 26.9,2.8 26.9,4.5 C26.9,5.7 26.7,6.8 26.3,7.6 C25.7,8.7 24.7,9.4 23,9.8 C22.1,10 20.6,10.1 20.6,10.1 C20.1,10.1 19.7,10.2 19.3,10.2 C16.1,10.2 14.1,9 12.7,4.7 C11.5,1 11.3,-0.1 10.4,-4.5"/>
<path class="Note" transform="matrix(2.3811,0,0,2.3811,1479.36,1629.92)" d="M18.7,-13.6 C4.9,-13.6 0,-6.6 0,-0.1 C0,6.4 4.9,13.4 18.7,13.4 C32.5,13.4 37.3,6.4 37.3,-0.1 C37.3,-6.6 32.5,-13.6 18.7,-13.6 M10.4,-4.5 C10.3,-4.9 10.3,-5.3 10.3,-5.7 C10.3,-6.5 10.5,-7.3 10.9,-8 C11.6,-9 12.8,-9.7 14.3,-10 C15.6,-10.3 16.3,-10.5 18.9,-10.5 L19,-10.5 C23,-10.5 24.3,-6.8 25.4,-3 L25.7,-2 C26.5,0.6 26.9,2.8 26.9,4.5 C26.9,5.7 26.7,6.8 26.3,7.6 C25.7,8.7 24.7,9.4 23,9.8 C22.1,10 20.6,10.1 20.6,10.1 C20.1,10.1 19.7,10.2 19.3,10.2 C16.1,10.2 14.1,9 12.7,4.7 C11.5,1 11.3,-0.1 10.4,-4.5"/>
<path class="Note" transform="matrix(2.3811,0,0,2.3811,1479.36,1540.63)" d="M18.7,-13.6 C4.9,-13.6 0,-6.6 0,-0.1 C0,6.4 4.9,13.4 18.7,13.4 C32.5,13.4 37.3,6.4 37.3,-0.1 C37.3,-6.6 32.5,-13.6 18.7,-13.6 M10.4,-4.5 C10.3,-4.9 10.3,-5.3 10.3,-5.7 C10.3,-6.5 10.5,-7.3 10.9,-8 C11.6,-9 12.8,-9.7 14.3,-10 C15.6,-10.3 16.3,-10.5 18.9,-10.5 L19,-10.5 C23,-10.5 24.3,-6.8 25.4,-3 L25.7,-2 C26.5,0.6 26.9,2.8 26.9,4.5 C26.9,5.7 26.7,6.8 26.3,7.6 C25.7,8.7 24.7,9.4 23,9.8 C22.1,10 20.6,10.1 20.6,10.1 C20.1,10.1 19.7,10.2 19.3,10.2 C16.1,10.2 14.1,9 12.7,4.7 C11.5,1 11.3,-0.1 10.4,-4.5"/>
<path class="Note" transform="matrix(2.3811,0,0,2.3811,2434.15,1689.45)" d="M18.7,-13.6 C4.9,-13.6 0,-6.6 0,-0.1 C0,6.4 4.9,13.4 18.7,13.4 C32.5,13.4 37.3,6.4 37.3,-0.1 C37.3,-6.6 32.5,-13.6 18.7,-13.6 M10.4,-4.5 C10.3,-4.9 10.3,-5.3 10.3,-5.7 C10.3,-6.5 10.5,-7.3 10.9,-8 C11.6,-9 12.8,-9.7 14.3,-10 C15.6,-10.3 16.3,-10.5 18.9,-10.5 L19,-10.5 C23,-10.5 24.3,-6.8 25.4,-3 L25.7,-2 C26.5,0.6 26.9,2.8 26.9,4.5 C26.9,5.7 26.7,6.8 26.3,7.6 C25.7,8.7 24.7,9.4 23,9.8 C22.1,10 20.6,10.1 20.6,10.1 C20.1,10.1 19.7,10.2 19.3,10.2 C16.1,10.2 14.1,9 12.7,4.7 C11.5,1 11.3,-0.1 10.4,-4.5"/>
<path class="Note" transform="matrix(2.3811,0,0,2.3811,2434.15,1629.92)" d="M18.7,-13.6 C4.9,-13.6 0,-6.6 0,-0.1 C0,6.4 4.9,13.4 18.7,13.4 C32.5,13.4 37.3,6.4 37.3,-0.1 C37.3,-6.6 32.5,-13.6 18.7,-13.6 M10.4,-4.5 C10.3,-4.9 10.3,-5.3 10.3,-5.7 C10.3,-6.5 10.5,-7.3 10.9,-8 C11.6,-9 12.8,-9.7 14.3,-10 C15.6,-10.3 16.3,-10.5 18.9,-10.5 L19,-10.5 C23,-10.5 24.3,-6.8 25.4,-3 L25.7,-2 C26.5,0.6 26.9,2.8 26.9,4.5 C26.9,5.7 26.7,6.8 26.3,7.6 C25.7,8.7 24.7,9.4 23,9.8 C22.1,10 20.6,10.1 20.6,10.1 C20.1,10.1 19.7,10.2 19.3,10.2 C16.1,10.2 14.1,9 12.7,4.7 C11.5,1 11.3,-0.1 10.4,-4.5"/>
<path class="Note" transform="matrix(2.3811,0,0,2.3811,2434.15,1540.63)" d="M18.7,-13.6 C4.9,-13.6 0,-6.6 0,-0.1 C0,6.4 4.9,13.4 18.7,13.4 C32.5,13.4 37.3,6.4 37.3,-0.1 C37.3,-6.6 32.5,-13.6 18.7,-13.6 M10.4,-4.5 C10.3,-4.9 10.3,-5.3 10.3,-5.7 C10.3,-6.5 10.5,-7.3 10.9,-8 C11.6,-9 12.8,-9.7 14.3,-10 C15.6,-10.3 16.3,-10.5 18.9,-10.5 L19,-10.5 C23,-10.5 24.3,-6.8 25.4,-3 L25.7,-2 C26.5,0.6 26.9,2.8 26.9,4.5 C26.9,5.7 26.7,6.8 26.3,7.6 C25.7,8.7 24.7,9.4 23,9.8 C22.1,10 20.6,10.1 20.6,10.1 C20.1,10.1 19.7,10.2 19.3,10.2 C16.1,10.2 14.1,9 12.7,4.7 C11.5,1 11.3,-0.1 10.4,-4.5"/>
<path class="Note" transform="matrix(2.3811,0,0,2.3811,3310.85,1659.69)" d="M18.7,-13.6 C4.9,-13.6 0,-6.6 0,-0.1 C0,6.4 4.9,13.4 18.7,13.4 C32.5,13.4 37.3,6.4 37.3,-0.1 C37.3,-6.6 32.5,-13.6 18.7,-13.6 M10.4,-4.5 C10.3,-4.9 10.3,-5.3 10.3,-5.7 C10.3,-6.5 10.5,-7.3 10.9,-8 C11.6,-9 12.8,-9.7 14.3,-10 C15.6,-10.3 16.3,-10.5 18.9,-10.5 L19,-10.5 C23,-10.5 24.3,-6.8 25.4,-3 L25.7,-2 C26.5,0.6 26.9,2.8 26.9,4.5 C26.9,5.7 26.7,6.8 26.3,7.6 C25.7,8.7 24.7,9.4 23,9.8 C22.1,10 20.6,10.1 20.6,10.1 C20.1,10.1 19.7,10.2 19.3,10.2 C16.1,10.2 14.1,9 12.7,4.7 C11.5,1 11.3,-0.1 10.4,-4.5"/>
<path class="Note" transform="matrix(2.3811,0,0,2.3811,3310.85,1570.39)" d="M18.7,-13.6 C4.9,-13.6 0,-6.6 0,-0.1 C0,6.4 4.9,13.4 18.7,13.4 C32.5,13.4 37.3,6.4 37.3,-0.1 C37.3,-6.6 32.5,-13.6 18.7,-13.6 M10.4,-4.5 C10.3,-4.9 10.3,-5.3 10.3,-5.7 C10.3,-6.5 10.5,-7.3 10.9,-8 C11.6,-9 12.8,-9.7 14.3,-10 C15.6,-10.3 16.3,-10.5 18.9,-10.5 L19,-10.5 C23,-10.5 24.3,-6.8 25.4,-3 L25.7,-2 C26.5,0.6 26.9,2.8 26.9,4.5 C26.9,5.7 26.7,6.8 26.3,7.6 C25.7,8.7 24.7,9.4 23,9.8 C22.1,10 20.6,10.1 20.6,10.1 C20.1,10.1 19.7,10.2 19.3,10.2 C16.1,10.2 14.1,9 12.7,4.7 C11.5,1 11.3,-0.1 10.4,-4.5"/>
<path class="Note" d="M705.752,851.839 C710.323,851.839 712.608,854.705 712.608,860.438 C712.608,864.467 710.09,870.471 705.055,878.451 C701.026,884.881 699.012,891.157 699.012,897.277 C699.012,900.763 704.086,902.507 714.235,902.507 C722.602,902.507 734.262,897.974 749.215,888.91 C734.185,903.398 721.13,910.641 710.052,910.641 C700.058,910.641 693.085,909.131 689.134,906.109 C688.127,905.334 687.274,904.405 686.577,903.32 C682.703,908.046 676.234,910.409 667.17,910.409 C658.493,910.409 651.83,908.627 647.182,905.063 C644.083,902.662 642.533,898.827 642.533,893.558 C642.533,885.191 647.491,876.049 657.408,866.133 C668.022,855.519 680.302,850.212 694.247,850.212 C697.733,850.212 700.29,851.49 701.917,854.047 C703.234,852.575 704.512,851.839 705.752,851.839 M684.95,898.091 C684.873,897.471 684.834,896.851 684.834,896.231 C684.834,895.921 688.785,885.114 696.687,863.808 C697.462,861.717 698.237,859.935 699.012,858.463 C695.99,857.843 693.007,857.533 690.063,857.533 C684.64,857.533 677.435,862.143 668.448,871.362 C660.391,879.574 656.362,886.663 656.362,892.629 C656.362,899.214 659.5,902.507 665.775,902.507 C673.368,902.507 679.759,901.035 684.95,898.091"/>
<path class="Note" d="M712.841,581.059 C723.3,574.474 730.892,569.09 735.618,564.906 C744.295,557.236 748.634,549.489 748.634,541.664 C748.634,532.522 742.513,527.951 730.272,527.951 C717.412,527.951 704.009,537.209 690.063,555.725 C680.612,568.276 673.91,580.13 669.959,591.286 C674.84,588.11 679.992,586.521 685.415,586.521 C690.528,586.521 694.596,588.807 697.617,593.378 C699.709,596.554 700.755,601.977 700.755,609.647 C700.755,616.542 697.114,624.638 689.831,633.935 C685.338,639.668 680.34,642.535 674.84,642.535 C667.867,642.535 662.986,641.14 660.197,638.351 C656.246,634.4 654.27,626.575 654.27,614.877 C654.27,595.198 662.212,575.83 678.094,556.771 C695.99,535.311 713.151,524.581 729.575,524.581 C742.281,524.581 751.771,527.564 758.047,533.529 C761.688,537.015 763.509,542.051 763.509,548.637 C763.509,555.997 756.265,564.209 741.777,573.273 C734.185,578.077 724.539,580.672 712.841,581.059 M668.448,596.167 C666.511,602.675 665.543,608.911 665.543,614.877 C665.543,629.055 667.79,636.143 672.283,636.143 C676.544,636.143 679.876,633.122 682.277,627.079 C685.066,620.261 686.461,612.707 686.461,604.418 C686.461,597.058 684.02,593.378 679.14,593.378 C675.731,593.378 672.167,594.307 668.448,596.167"/>
<path class="Note" d="M705.752,494.673 C710.323,494.673 712.608,497.54 712.608,503.273 C712.608,507.302 710.09,513.306 705.055,521.286 C701.026,527.716 699.012,533.991 699.012,540.112 C699.012,543.598 704.086,545.341 714.235,545.341 C722.602,545.341 734.262,540.809 749.215,531.745 C734.185,546.232 721.13,553.476 710.052,553.476 C700.058,553.476 693.085,551.965 689.134,548.944 C688.127,548.169 687.274,547.239 686.577,546.155 C682.703,550.881 676.234,553.244 667.17,553.244 C658.493,553.244 651.83,551.462 647.182,547.898 C644.083,545.496 642.533,541.661 642.533,536.393 C642.533,528.026 647.491,518.884 657.408,508.967 C668.022,498.353 680.302,493.046 694.247,493.046 C697.733,493.046 700.29,494.325 701.917,496.881 C703.234,495.409 704.512,494.673 705.752,494.673 M684.95,540.925 C684.873,540.305 684.834,539.686 684.834,539.066 C684.834,538.756 688.785,527.948 696.687,506.643 C697.462,504.551 698.237,502.769 699.012,501.297 C695.99,500.678 693.007,500.368 690.063,500.368 C684.64,500.368 677.435,504.977 668.448,514.197 C660.391,522.409 656.362,529.498 656.362,535.463 C656.362,542.049 659.5,545.341 665.775,545.341 C673.368,545.341 679.759,543.869 684.95,540.925"/>
<path class="Note" d="M1447.09,945.081 C1447.4,933.383 1453.87,923.001 1466.5,913.937 C1477.74,905.879 1490.02,901.851 1503.34,901.851 C1522.01,901.851 1538.48,909.172 1552.73,923.815 C1561.8,933.189 1566.33,944.81 1566.33,958.678 C1566.33,971.151 1563,980.719 1556.33,987.382 C1548.2,995.594 1539.6,999.7 1530.53,999.7 C1524.34,999.7 1519.53,998.306 1516.12,995.517 C1510.55,990.946 1507.76,984.825 1507.76,977.155 C1507.76,967.239 1512.72,958.174 1522.63,949.962 C1530.77,943.222 1538.94,938.806 1547.15,936.714 C1544.98,932.995 1542.23,929.509 1538.9,926.255 C1528.52,916.106 1516.74,911.031 1503.57,911.031 C1489.86,911.031 1478.51,914.014 1469.52,919.98 C1460.23,926.1 1452.75,934.467 1447.09,945.081 M1550.06,942.873 C1545.8,946.824 1541.54,951.047 1537.27,955.54 C1528.91,964.372 1524.72,972.739 1524.72,980.642 C1524.72,989.086 1526.66,993.309 1530.53,993.309 C1534.02,993.309 1538.9,988.544 1545.18,979.015 C1550.21,971.422 1552.73,964.45 1552.73,958.097 C1552.73,952.674 1551.84,947.599 1550.06,942.873"/>
<path class="Note" d="M1558.18,583.965 C1562.75,583.965 1565.04,586.831 1565.04,592.564 C1565.04,596.593 1562.52,602.597 1557.49,610.577 C1553.46,617.007 1551.44,623.283 1551.44,629.403 C1551.44,632.889 1556.52,634.633 1566.67,634.633 C1575.03,634.633 1586.69,630.1 1601.65,621.036 C1586.62,635.524 1573.56,642.767 1562.48,642.767 C1552.49,642.767 1545.52,641.257 1541.57,638.235 C1540.56,637.46 1539.71,636.531 1539.01,635.446 C1535.14,640.172 1528.67,642.535 1519.6,642.535 C1510.92,642.535 1504.26,640.753 1499.61,637.189 C1496.51,634.788 1494.96,630.953 1494.96,625.684 C1494.96,617.317 1499.92,608.175 1509.84,598.259 C1520.45,587.645 1532.73,582.338 1546.68,582.338 C1550.17,582.338 1552.72,583.616 1554.35,586.173 C1555.67,584.701 1556.94,583.965 1558.18,583.965 M1537.38,630.217 C1537.3,629.597 1537.27,628.977 1537.27,628.357 C1537.27,628.047 1541.22,617.24 1549.12,595.934 C1549.89,593.843 1550.67,592.061 1551.44,590.589 C1548.42,589.969 1545.44,589.659 1542.5,589.659 C1537.07,589.659 1529.87,594.269 1520.88,603.488 C1512.82,611.7 1508.79,618.789 1508.79,624.755 C1508.79,631.34 1511.93,634.633 1518.21,634.633 C1525.8,634.633 1532.19,633.161 1537.38,630.217"/>
<path class="Note" d="M1558.18,494.673 C1562.75,494.673 1565.04,497.54 1565.04,503.273 C1565.04,507.302 1562.52,513.306 1557.49,521.286 C1553.46,527.716 1551.44,533.991 1551.44,540.112 C1551.44,543.598 1556.52,545.341 1566.67,545.341 C1575.03,545.341 1586.69,540.809 1601.65,531.745 C1586.62,546.232 1573.56,553.476 1562.48,553.476 C1552.49,553.476 1545.52,551.965 1541.57,548.944 C1540.56,548.169 1539.71,547.239 1539.01,546.155 C1535.14,550.881 1528.67,553.244 1519.6,553.244 C1510.92,553.244 1504.26,551.462 1499.61,547.898 C1496.51,545.496 1494.96,541.661 1494.96,536.393 C1494.96,528.026 1499.92,518.884 1509.84,508.967 C1520.45,498.353 1532.73,493.046 1546.68,493.046 C1550.17,493.046 1552.72,494.325 1554.35,496.881 C1555.67,495.409 1556.94,494.673 1558.18,494.673 M1537.38,540.925 C1537.3,540.305 1537.27,539.686 1537.27,539.066 C1537.27,538.756 1541.22,527.948 1549.12,506.643 C1549.89,504.551 1550.67,502.769 1551.44,501.297 C1548.42,500.678 1545.44,500.368 1542.5,500.368 C1537.07,500.368 1529.87,504.977 1520.88,514.197 C1512.82,522.409 1508.79,529.498 1508.79,535.463 C1508.79,542.049 1511.93,545.341 1518.21,545.341 C1525.8,545.341 1532.19,543.869 1537.38,540.925"/>
<path class="Note" d="M2468.69,1118.46 C2464.9,1118.46 2463,1114.39 2463,1106.26 L2463,1072.21 C2463,1068.95 2464.59,1067.32 2467.77,1067.32 C2469.16,1067.32 2470.21,1067.44 2470.9,1067.67 C2473.38,1063.34 2477.45,1059.69 2483.1,1056.75 C2491.01,1052.64 2499.03,1050.59 2507.16,1050.59 C2513.59,1050.59 2516.81,1052.99 2516.81,1057.8 C2516.81,1061.82 2514.64,1063.84 2510.3,1063.84 C2507.2,1063.84 2504.26,1063.14 2501.47,1061.75 C2498.99,1060.51 2496.35,1059.89 2493.56,1059.89 C2488.76,1059.89 2481.67,1063.03 2472.3,1069.3 C2473.61,1075.58 2474.27,1082.9 2474.27,1091.26 C2474.27,1109.39 2472.41,1118.46 2468.69,1118.46"/>
<path class="Note" d="M2548.76,973.437 C2542.41,983.431 2532.38,991.721 2518.67,998.306 C2506.73,1004.04 2495.58,1006.91 2485.2,1006.91 C2476.91,1006.91 2470.01,1005.24 2464.51,1001.91 C2458.55,998.267 2455.56,993.929 2455.56,988.893 C2455.56,977.504 2458.55,967.704 2464.51,959.491 C2472.65,948.335 2480.86,942.757 2489.15,942.757 C2495.04,942.757 2499.22,943.919 2501.7,946.243 C2505.11,949.265 2506.81,953.41 2506.81,958.678 C2506.81,966.115 2501.27,972.584 2490.19,978.085 C2479.42,983.431 2471.95,986.917 2467.77,988.544 C2468.69,990.481 2469.9,992.224 2471.37,993.774 C2475.01,997.647 2479.97,999.584 2486.24,999.584 C2494.14,999.584 2504.76,996.679 2518.08,990.868 C2530.87,985.213 2541.09,979.402 2548.76,973.437 M2466.14,983.198 C2471.95,980.254 2477.26,976.807 2482.06,972.856 C2489.19,967.045 2492.75,960.77 2492.75,954.029 C2492.75,950.233 2491.01,948.335 2487.52,948.335 C2484.58,948.335 2480.55,951.705 2475.43,958.445 C2469,966.813 2465.79,973.63 2465.79,978.899 C2465.79,980.371 2465.91,981.804 2466.14,983.198"/>
<path class="Note" d="M2512.97,583.965 C2517.54,583.965 2519.83,586.831 2519.83,592.564 C2519.83,596.593 2517.31,602.597 2512.27,610.577 C2508.25,617.007 2506.23,623.283 2506.23,629.403 C2506.23,632.889 2511.31,634.633 2521.45,634.633 C2529.82,634.633 2541.48,630.1 2556.43,621.036 C2541.4,635.524 2528.35,642.767 2517.27,642.767 C2507.28,642.767 2500.3,641.257 2496.35,638.235 C2495.35,637.46 2494.49,636.531 2493.8,635.446 C2489.92,640.172 2483.45,642.535 2474.39,642.535 C2465.71,642.535 2459.05,640.753 2454.4,637.189 C2451.3,634.788 2449.75,630.953 2449.75,625.684 C2449.75,617.317 2454.71,608.175 2464.63,598.259 C2475.24,587.645 2487.52,582.338 2501.47,582.338 C2504.95,582.338 2507.51,583.616 2509.14,586.173 C2510.45,584.701 2511.73,583.965 2512.97,583.965 M2492.17,630.217 C2492.09,629.597 2492.05,628.977 2492.05,628.357 C2492.05,628.047 2496,617.24 2503.91,595.934 C2504.68,593.843 2505.46,592.061 2506.23,590.589 C2503.21,589.969 2500.23,589.659 2497.28,589.659 C2491.86,589.659 2484.65,594.269 2475.67,603.488 C2467.61,611.7 2463.58,618.789 2463.58,624.755 C2463.58,631.34 2466.72,634.633 2472.99,634.633 C2480.59,634.633 2486.98,633.161 2492.17,630.217"/>
<path class="Note" d="M2512.97,494.673 C2517.54,494.673 2519.83,497.54 2519.83,503.273 C2519.83,507.302 2517.31,513.306 2512.27,521.286 C2508.25,527.716 2506.23,533.991 2506.23,540.112 C2506.23,543.598 2511.31,545.341 2521.45,545.341 C2529.82,545.341 2541.48,540.809 2556.43,531.745 C2541.4,546.232 2528.35,553.476 2517.27,553.476 C2507.28,553.476 2500.3,551.965 2496.35,548.944 C2495.35,548.169 2494.49,547.239 2493.8,546.155 C2489.92,550.881 2483.45,553.244 2474.39,553.244 C2465.71,553.244 2459.05,551.462 2454.4,547.898 C2451.3,545.496 2449.75,541.661 2449.75,536.393 C2449.75,528.026 2454.71,518.884 2464.63,508.967 C2475.24,498.353 2487.52,493.046 2501.47,493.046 C2504.95,493.046 2507.51,494.325 2509.14,496.881 C2510.45,495.409 2511.73,494.673 2512.97,494.673 M2492.17,540.925 C2492.09,540.305 2492.05,539.686 2492.05,539.066 C2492.05,538.756 2496,527.948 2503.91,506.643 C2504.68,504.551 2505.46,502.769 2506.23,501.297 C2503.21,500.678 2500.23,500.368 2497.28,500.368 C2491.86,500.368 2484.65,504.977 2475.67,514.197 C2467.61,522.409 2463.58,529.498 2463.58,535.463 C2463.58,542.049 2466.72,545.341 2472.99,545.341 C2480.59,545.341 2486.98,543.869 2492.17,540.925"/>
<path class="Note" d="M3345.39,999.7 C3341.6,999.7 3339.7,995.633 3339.7,987.498 L3339.7,953.448 C3339.7,950.194 3341.29,948.568 3344.46,948.568 C3345.86,948.568 3346.9,948.684 3347.6,948.916 C3350.08,944.578 3354.15,940.936 3359.8,937.992 C3367.71,933.886 3375.72,931.833 3383.86,931.833 C3390.29,931.833 3393.5,934.235 3393.5,939.038 C3393.5,943.067 3391.34,945.081 3387,945.081 C3383.9,945.081 3380.95,944.384 3378.16,942.989 C3375.69,941.75 3373.05,941.13 3370.26,941.13 C3365.46,941.13 3358.37,944.268 3349,950.543 C3350.31,956.818 3350.97,964.14 3350.97,972.507 C3350.97,990.636 3349.11,999.7 3345.39,999.7"/>
<path class="Note" d="M3389.67,851.839 C3394.24,851.839 3396.53,854.705 3396.53,860.438 C3396.53,864.467 3394.01,870.471 3388.97,878.451 C3384.94,884.881 3382.93,891.157 3382.93,897.277 C3382.93,900.763 3388,902.507 3398.15,902.507 C3406.52,902.507 3418.18,897.974 3433.13,888.91 C3418.1,903.398 3405.05,910.641 3393.97,910.641 C3383.98,910.641 3377,909.131 3373.05,906.109 C3372.04,905.334 3371.19,904.405 3370.49,903.32 C3366.62,908.046 3360.15,910.409 3351.09,910.409 C3342.41,910.409 3335.75,908.627 3331.1,905.063 C3328,902.662 3326.45,898.827 3326.45,893.558 C3326.45,885.191 3331.41,876.049 3341.33,866.133 C3351.94,855.519 3364.22,850.212 3378.16,850.212 C3381.65,850.212 3384.21,851.49 3385.83,854.047 C3387.15,852.575 3388.43,851.839 3389.67,851.839 M3368.87,898.091 C3368.79,897.471 3368.75,896.851 3368.75,896.231 C3368.75,895.921 3372.7,885.114 3380.61,863.808 C3381.38,861.717 3382.15,859.935 3382.93,858.463 C3379.91,857.843 3376.93,857.533 3373.98,857.533 C3368.56,857.533 3361.35,862.143 3352.37,871.362 C3344.31,879.574 3340.28,886.663 3340.28,892.629 C3340.28,899.214 3343.42,902.507 3349.69,902.507 C3357.29,902.507 3363.68,901.035 3368.87,898.091"/>
<path class="Note" d="M3389.67,762.547 C3394.24,762.547 3396.53,765.414 3396.53,771.147 C3396.53,775.176 3394.01,781.18 3388.97,789.16 C3384.94,795.59 3382.93,801.865 3382.93,807.986 C3382.93,811.472 3388,813.215 3398.15,813.215 C3406.52,813.215 3418.18,808.683 3433.13,799.619 C3418.1,814.106 3405.05,821.35 3393.97,821.35 C3383.98,821.35 3377,819.839 3373.05,816.818 C3372.04,816.043 3371.19,815.113 3370.49,814.029 C3366.62,818.755 3360.15,821.118 3351.09,821.118 C3342.41,821.118 3335.75,819.336 3331.1,815.772 C3328,813.37 3326.45,809.535 3326.45,804.267 C3326.45,795.9 3331.41,786.758 3341.33,776.841 C3351.94,766.227 3364.22,760.92 3378.16,760.92 C3381.65,760.92 3384.21,762.199 3385.83,764.755 C3387.15,763.283 3388.43,762.547 3389.67,762.547 M3368.87,808.799 C3368.79,808.179 3368.75,807.56 3368.75,806.94 C3368.75,806.63 3372.7,795.822 3380.61,774.517 C3381.38,772.425 3382.15,770.643 3382.93,769.171 C3379.91,768.552 3376.93,768.242 3373.98,768.242 C3368.56,768.242 3361.35,772.851 3352.37,782.071 C3344.31,790.283 3340.28,797.372 3340.28,803.337 C3340.28,809.923 3343.42,813.215 3349.69,813.215 C3357.29,813.215 3363.68,811.743 3368.87,808.799"/>
<path class="Clef" transform="matrix(2.3811,0,0,2.3811,212.156,2076.38)" d="M25.4,-25.1 C17.8,-25.1 11.7,-20.7 11.6,-20.7 C5.8,-16.4 3.5,-11.3 2.6,-7.8 C2.1,-6 1.9,-4.2 1.9,-2.5 C1.9,-0.1 2.3,2.1 3.2,4 C4.4,6.7 6.7,8.6 9.7,9.6 C10.9,10 12.2,10.2 13.5,10.2 C15.7,10.2 18,9.6 19.9,8.5 C23,6.8 24.9,3.2 24.9,-0.7 C24.9,-4.2 23.1,-7.4 20.1,-9.3 C18,-10.7 16,-11.1 14.3,-11.1 C13.1,-11.1 12,-10.9 11.1,-10.6 C10.1,-10.2 8.4,-9.2 7.6,-8.5 C7.9,-10.4 9.1,-13.3 10.2,-14.9 C11.3,-16.5 13.5,-18.5 15.2,-19.4 C17.7,-20.8 20.9,-21.4 24.4,-21.4 C34.6,-21.4 39.6,-13.2 39.6,3.6 C39.6,12.9 36.1,21.8 33.1,27.7 C29.8,34.3 25.4,40.6 21.5,44.1 C11.1,53.6 1.3,58.1 1.2,58.1 C1.2,58.1 -0.3,59 0.1,60.5 C0.4,61.5 1.3,61.7 1.9,61.7 C2,61.7 2.3,61.6 2.4,61.6 C2.5,61.6 13.9,56.9 23,49.8 C28.1,46.1 32.7,42.1 36.7,37.8 C40.3,33.9 43.4,29.7 45.9,25.5 C50.3,18 52.8,10.2 52.8,3.5 C52.8,-4.8 50.6,-11.7 46.5,-16.6 C41.8,-22.2 34.7,-25.1 25.4,-25.1 M56.8,-12.4 C56.8,-9.6 59,-7.4 61.6,-7.4 C64.2,-7.4 66.4,-9.6 66.4,-12.4 C66.4,-15.2 64.2,-17.5 61.6,-17.5 C59,-17.5 56.8,-15.2 56.8,-12.4 M56.8,12.3 C56.8,15.1 59,17.4 61.6,17.4 C64.2,17.4 66.4,15.1 66.4,12.3 C66.4,9.5 64.2,7.2 61.6,7.2 C59,7.2 56.8,9.5 56.8,12.3"/>
<path class="Clef" transform="matrix(2.3811,0,0,2.3811,212.156,1570.39)" d="M63.37,-5.89004 C62.14,-11.32 59.5,-15.14 58.72,-16.1801 C55.5301,-20.45 51.52,-23.3 46.8301,-24.65 C43.72,-25.54 40.72,-25.65 38.3,-25.47 C37.2601,-31.4801 36.2601,-37.3601 35.35,-42.8101 C40.79,-48.97 44.42,-54.77 46.69,-59.07 C50.1601,-65.65 51.3101,-70.2301 51.3601,-70.4301 C53.0801,-75.64 53.44,-83.34 52.34,-91.55 C51.3301,-99.1 49.24,-105.81 46.89,-109.06 C45.8601,-110.49 44.8101,-111.22 43.77,-111.22 C42.55,-111.22 40.04,-109.98 37.15,-107.21 C34.85,-105.01 31.5801,-101.12 29.02,-95.1101 C26.02,-88.05 25.8101,-78.5601 26.1601,-71.84 C26.54,-64.57 27.65,-58.8801 27.6601,-58.8301 C27.6801,-58.74 27.94,-57.24 28.39,-54.67 C28.1601,-54.44 27.92,-54.22 27.67,-53.9801 C26.6301,-52.9801 25.44,-51.84 24.0601,-50.4601 C23.2,-49.6 22.25,-48.69 21.25,-47.72 C12.79,-39.57 0,-27.25 0,-8.1 C0,-3.4 0.9,1.01992 2.68008,5.02998 C4.27002,8.62998 6.57002,11.91 9.5,14.78 C17.2301,22.33 27.82,25.5399 34.8801,25.38 C37.8301,25.31 40.4601,25.0699 42.85,24.6199 C44.6801,34.2199 45.82,41.25 45.8601,46.5899 C45.9,53.1 44.25,57.0699 40.35,59.8399 C37.92,61.5699 35.1101,62.5199 32.0101,62.6699 C29.42,62.7899 27.1601,62.3199 25.7301,61.91 L25.72,61.91 C25.72,61.91 25.4301,61.83 25.42,61.63 C25.4101,61.45 25.7601,61.4 25.77,61.4 L25.79,61.4 C27.7101,60.96 31.2801,59.73 33.64,56.43 C35.44,53.91 36.3101,49.2899 34.47,45.35 C33.3601,42.96 30.85,40.01 25.2301,39.56 C22.74,39.36 20.47,39.8699 18.47,41.0699 C16.6601,42.15 15.1601,43.7899 14.1101,45.7899 C11.65,50.4899 12.1101,56.2199 15.24,60.06 C18.2,63.68 22.82,65.9899 28.25,66.5699 C29.1,66.66 29.95,66.7 30.8,66.7 C31.5101,66.7 32.22,66.6699 32.92,66.61 C31.72,66.9399 30.64,67.4899 29.77,68.25 C28.2801,69.5399 27.44,71.38 27.44,73.41 C27.44,75.28 28.0601,76.65 29.55,78.0399 C28.4101,78.5 27.55,78.98 26.79,79.56 C25.25,80.73 24.34,82.46 24.34,84.1899 C24.34,87.45 27.3,89.63 31.72,89.63 C37.1301,89.63 40.9101,86.63 40.9101,82.35 C40.9101,80.1199 39.9101,78.18 38.0801,76.83 C41.0101,75.6199 42.37,73.9399 42.37,71.56 C42.39,70.05 41.69,68.61 40.49,67.6899 C39.2801,66.7399 37.62,66.2399 35.69,66.2399 L35.5101,66.2399 C38.2801,65.7 40.92,64.7 43.2101,63.28 C46.87,60.71 48.99,56.73 49.67,51.1 C50.2301,46.46 49.84,40.55 48.44,32.48 C48.0801,30.3899 47.54,27.36 46.8801,23.6 C52.6301,21.68 56.79,18.11 60.5601,12.26 C63.85,6.51992 64.8,0.419922 63.37,-5.89004 M32.39,87.5399 C30.19,87.5399 28.7301,86.1199 28.7301,84.01 C28.7301,82.11 29.65,80.5 31.32,79.4699 C31.6801,79.66 31.77,79.71 32.1101,79.88 C33.3,80.48 33.3,80.48 33.55,80.63 L33.5601,80.6399 C35.47,81.73 36.25,82.76 36.25,84.18 C36.24,86.0899 34.59,87.5399 32.39,87.5399 M38.3101,71.63 C38.3101,73.2699 37.7301,74.3399 36.1801,75.53 C34.74,74.78 34.35,74.56 33.9801,74.3399 L33.8801,74.28 C32.3301,73.3399 31.85,72.66 31.85,71.4 C31.85,69.6 33.2301,68.3399 35.19,68.3399 C37.17,68.35 38.3101,69.55 38.3101,71.63 M33.15,-83.8101 C34.9301,-89.55 37.67,-92.8 39.6601,-94.5301 C41.4101,-96.05 43.0601,-96.7601 43.9801,-96.7601 C44.12,-96.7601 44.24,-96.74 44.34,-96.7101 C44.8,-96.57 45.3301,-96 45.8,-95.1301 C48.1101,-90.84 47.37,-84.1301 46.0301,-79.69 C44.4,-74.29 41.4801,-68.6801 32.69,-59.0601 C32.52,-60.17 32.3601,-61.22 32.2101,-62.2 C30.95,-70.49 31.27,-77.7601 33.15,-83.8101 M29.15,20.31 C24.5101,19.0899 20.0801,16.5899 16.32,13.0899 C15.0101,11.86 13.14,9.68994 11.67,6.3 C10.3101,3.13994 9.65,-0.290039 9.7,-3.88008 C9.77002,-8.57002 11.0801,-13.39 13.59,-18.1801 C16.5101,-23.7601 21.07,-29.29 27.1301,-34.62 C28.5801,-35.9 29.95,-37.1801 31.24,-38.4601 C32,-34.2 32.8301,-29.5101 33.7101,-24.6301 C29.8601,-23.3601 25.1101,-20.2101 22,-14.5601 C18.47,-7.99004 18.6101,-2.47002 19.34,1.00996 C20.2801,5.46992 22.8101,9.22998 26.27,11.3199 C27.2,11.88 31.3301,14.01 33.17,13.43 C33.54,13.31 33.8101,13.0899 33.95,12.76 C34.4601,11.5899 33.44,10.95 31.8801,9.98994 C31.2801,9.61992 30.6101,9.2 29.8801,8.66992 C26.5601,6.17998 25.1101,1.72998 26.1801,-2.65 C26.7601,-5.05 28.04,-7.21006 29.8801,-8.91006 C31.55,-10.4601 33.59,-11.5601 35.97,-12.2 C38.0101,-0.960059 40.07,10.1899 41.7101,18.55 C41.84,19.2399 41.9801,19.91 42.1101,20.58 C37.7101,21.51 33.37,21.4199 29.15,20.31 M54.9,10.1 C53.7301,13.28 51.27,17.35 46.14,19.41 C46.07,18.9899 45.99,18.56 45.9101,18.13 C44.3601,9.36992 42.4301,-1.61006 40.47,-12.87 C50.82,-13.35 55.09,-5.91006 55.9801,-1.08008 C56.45,1.45 56.45,5.88994 54.9,10.1"/>
<path class="KeySig" transform="matrix(2.3811,0,0,2.3811,429.785,2195.43)" d="M20.1,-7.9 C19.5,-11.8 17.1,-15.5 12,-15.5 C7,-15.5 4.1,-12.4 3.6,-11.8 L4,-43.9 C4,-44.7 3.4,-45.3 2.6,-45.3 L1.4,-45.3 C0.6,-45.3 0,-44.7 0,-43.9 L0.5,16.2 C0.5,17 1.1,17.6 1.9,17.6 C2.1,17.6 2.5,17.5 2.7,17.4 C3.1,17.2 9.6,14 15,7.9 C18.8,3.6 20.3,-1.3 20.3,-5.4 C20.3,-6.3 20.2,-7.1 20.1,-7.9 M13.2,-4 C13.2,-2.5 12.8,2.1 10.3,5.9 C8.6,8.5 5.2,11.2 3.3,12.7 L3.6,-6.8 C3.8,-7.7 5.3,-10.6 9.3,-10.6 C12.9,-10.6 13.2,-7.2 13.2,-5.1 L13.2,-4 "/>
<path class="KeySig" transform="matrix(2.3811,0,0,2.3811,429.785,1510.87)" d="M20.1,-7.9 C19.5,-11.8 17.1,-15.5 12,-15.5 C7,-15.5 4.1,-12.4 3.6,-11.8 L4,-43.9 C4,-44.7 3.4,-45.3 2.6,-45.3 L1.4,-45.3 C0.6,-45.3 0,-44.7 0,-43.9 L0.5,16.2 C0.5,17 1.1,17.6 1.9,17.6 C2.1,17.6 2.5,17.5 2.7,17.4 C3.1,17.2 9.6,14 15,7.9 C18.8,3.6 20.3,-1.3 20.3,-5.4 C20.3,-6.3 20.2,-7.1 20.1,-7.9 M13.2,-4 C13.2,-2.5 12.8,2.1 10.3,5.9 C8.6,8.5 5.2,11.2 3.3,12.7 L3.6,-6.8 C3.8,-7.7 5.3,-10.6 9.3,-10.6 C12.9,-10.6 13.2,-7.2 13.2,-5.1 L13.2,-4 "/>
<path class="FiguredBass" d="M1526.55,2390.15 C1521.98,2390.15 1518.93,2391.99 1517.42,2395.67 C1515.9,2399.35 1515.14,2404.56 1515.14,2411.3 L1515.14,2422.25 C1518.36,2420.95 1521.14,2420.27 1523.49,2420.21 C1531.53,2420.21 1537.86,2421.98 1542.46,2425.54 C1547.07,2429.1 1549.38,2434.38 1549.38,2441.4 C1549.38,2448.42 1547.04,2453.73 1542.37,2457.31 C1537.7,2460.9 1531.41,2462.7 1523.49,2462.7 C1515.39,2462.7 1509.05,2458.94 1504.47,2451.42 C1499.9,2443.91 1497.61,2434.99 1497.61,2424.66 C1497.61,2414.39 1500.27,2405.49 1505.59,2397.94 C1510.91,2390.39 1517.89,2386.62 1526.55,2386.62 C1532.24,2386.62 1537.16,2388.06 1541.3,2390.94 C1545.45,2393.81 1547.52,2397.6 1547.52,2402.3 C1547.52,2405.02 1546.53,2407.37 1544.55,2409.35 C1542.57,2411.33 1540.21,2412.32 1537.45,2412.32 C1534.7,2412.32 1532.34,2411.33 1530.36,2409.35 C1528.38,2407.37 1527.39,2405.02 1527.39,2402.3 C1527.39,2399.64 1528.38,2397.29 1530.36,2395.25 C1531.04,2394.45 1532,2393.76 1533.23,2393.21 C1532.92,2392.4 1532.31,2391.79 1531.38,2391.35 C1530.02,2390.55 1528.41,2390.15 1526.55,2390.15 M1531.1,2428.09 C1529.99,2425.18 1527.54,2423.73 1523.77,2423.73 C1520,2423.73 1517.66,2425.18 1516.77,2428.09 C1515.87,2431 1515.42,2435.42 1515.42,2441.36 C1515.42,2448.35 1515.87,2453.05 1516.77,2455.46 C1517.66,2457.87 1520,2459.08 1523.77,2459.08 C1527.54,2459.08 1529.99,2457.62 1531.1,2454.72 C1532.21,2451.81 1532.77,2447.37 1532.77,2441.4 C1532.77,2435.44 1532.21,2431 1531.1,2428.09"/>
<path class="FiguredBass" d="M3358.04,2390.15 C3353.46,2390.15 3350.42,2391.99 3348.9,2395.67 C3347.39,2399.35 3346.63,2404.56 3346.63,2411.3 L3346.63,2422.25 C3349.84,2420.95 3352.63,2420.27 3354.98,2420.21 C3363.02,2420.21 3369.34,2421.98 3373.95,2425.54 C3378.56,2429.1 3380.86,2434.38 3380.86,2441.4 C3380.86,2448.42 3378.53,2453.73 3373.86,2457.31 C3369.19,2460.9 3362.89,2462.7 3354.98,2462.7 C3346.88,2462.7 3340.54,2458.94 3335.96,2451.42 C3331.38,2443.91 3329.09,2434.99 3329.09,2424.66 C3329.09,2414.39 3331.75,2405.49 3337.07,2397.94 C3342.39,2390.39 3349.38,2386.62 3358.04,2386.62 C3363.73,2386.62 3368.65,2388.06 3372.79,2390.94 C3376.93,2393.81 3379.01,2397.6 3379.01,2402.3 C3379.01,2405.02 3378.02,2407.37 3376.04,2409.35 C3374.06,2411.33 3371.69,2412.32 3368.94,2412.32 C3366.19,2412.32 3363.82,2411.33 3361.84,2409.35 C3359.86,2407.37 3358.87,2405.02 3358.87,2402.3 C3358.87,2399.64 3359.86,2397.29 3361.84,2395.25 C3362.52,2394.45 3363.48,2393.76 3364.72,2393.21 C3364.41,2392.4 3363.79,2391.79 3362.86,2391.35 C3361.5,2390.55 3359.89,2390.15 3358.04,2390.15 M3362.59,2428.09 C3361.47,2425.18 3359.03,2423.73 3355.26,2423.73 C3351.48,2423.73 3349.15,2425.18 3348.25,2428.09 C3347.35,2431 3346.91,2435.42 3346.91,2441.36 C3346.91,2448.35 3347.35,2453.05 3348.25,2455.46 C3349.15,2457.87 3351.48,2459.08 3355.26,2459.08 C3359.03,2459.08 3361.47,2457.62 3362.59,2454.72 C3363.7,2451.81 3364.26,2447.37 3364.26,2441.4 C3364.26,2435.44 3363.7,2431 3362.59,2428.09"/>
<path class="FiguredBass" d="M1526.55,1765.11 C1521.98,1765.11 1518.93,1766.95 1517.42,1770.63 C1515.9,1774.31 1515.14,1779.52 1515.14,1786.26 L1515.14,1797.21 C1518.36,1795.91 1521.14,1795.23 1523.49,1795.17 C1531.53,1795.17 1537.86,1796.94 1542.46,1800.5 C1547.07,1804.06 1549.38,1809.34 1549.38,1816.36 C1549.38,1823.38 1547.04,1828.69 1542.37,1832.28 C1537.7,1835.86 1531.41,1837.66 1523.49,1837.66 C1515.39,1837.66 1509.05,1833.9 1504.47,1826.38 C1499.9,1818.87 1497.61,1809.95 1497.61,1799.62 C1497.61,1789.35 1500.27,1780.45 1505.59,1772.9 C1510.91,1765.35 1517.89,1761.58 1526.55,1761.58 C1532.24,1761.58 1537.16,1763.02 1541.3,1765.9 C1545.45,1768.77 1547.52,1772.56 1547.52,1777.26 C1547.52,1779.98 1546.53,1782.33 1544.55,1784.31 C1542.57,1786.29 1540.21,1787.28 1537.45,1787.28 C1534.7,1787.28 1532.34,1786.29 1530.36,1784.31 C1528.38,1782.33 1527.39,1779.98 1527.39,1777.26 C1527.39,1774.6 1528.38,1772.25 1530.36,1770.21 C1531.04,1769.41 1532,1768.73 1533.23,1768.17 C1532.92,1767.36 1532.31,1766.75 1531.38,1766.31 C1530.02,1765.51 1528.41,1765.11 1526.55,1765.11 M1531.1,1803.05 C1529.99,1800.14 1527.54,1798.69 1523.77,1798.69 C1520,1798.69 1517.66,1800.14 1516.77,1803.05 C1515.87,1805.96 1515.42,1810.38 1515.42,1816.32 C1515.42,1823.31 1515.87,1828.01 1516.77,1830.42 C1517.66,1832.83 1520,1834.04 1523.77,1834.04 C1527.54,1834.04 1529.99,1832.58 1531.1,1829.68 C1532.21,1826.77 1532.77,1822.33 1532.77,1816.36 C1532.77,1810.4 1532.21,1805.96 1531.1,1803.05"/>
<path class="FiguredBass" d="M1538.43,1903.05 C1538.43,1904.04 1538.98,1905 1540.1,1905.93 C1541.21,1906.85 1542.43,1907.73 1543.76,1908.57 C1545.09,1909.4 1546.31,1910.98 1547.43,1913.3 C1548.54,1915.62 1549.1,1918.54 1549.1,1922.07 C1549.1,1928.87 1546.53,1934.13 1541.4,1937.84 C1536.26,1941.55 1529.77,1943.41 1521.91,1943.41 C1515.61,1943.41 1510.12,1941.83 1505.45,1938.67 C1500.78,1935.52 1498.44,1931.38 1498.44,1926.24 C1498.44,1923.52 1499.43,1921.16 1501.41,1919.15 C1503.39,1917.14 1505.76,1916.13 1508.51,1916.13 C1511.26,1916.13 1513.6,1917.12 1515.51,1919.1 C1517.43,1921.08 1518.39,1923.46 1518.39,1926.24 C1518.39,1927.48 1517.37,1928.83 1515.33,1930.28 C1513.29,1931.73 1512.27,1933.08 1512.27,1934.31 C1512.27,1936.23 1513.21,1937.64 1515.1,1938.54 C1516.98,1939.43 1519.26,1939.88 1521.91,1939.88 C1525.38,1939.88 1527.84,1938.16 1529.29,1934.73 C1530.74,1931.3 1531.47,1927.08 1531.47,1922.07 L1531.47,1919.66 C1531.47,1916.32 1531.36,1913.78 1531.15,1912.05 C1530.93,1910.32 1530.25,1908.77 1529.1,1907.41 C1527.96,1906.05 1526.21,1905.37 1523.86,1905.37 L1511.71,1905.37 C1510.29,1905.37 1509.58,1904.6 1509.58,1903.05 C1509.58,1901.63 1510.29,1900.92 1511.71,1900.92 L1523.86,1900.92 C1526.4,1900.92 1528.38,1899.96 1529.8,1898.04 C1530.3,1897.36 1530.7,1896.25 1531.01,1894.7 C1531.32,1892.66 1531.47,1889.72 1531.47,1885.89 L1531.47,1884.68 C1531.47,1875.47 1528.07,1870.86 1521.27,1870.86 C1515.27,1870.86 1512.27,1872.53 1512.27,1875.87 C1512.27,1876.98 1513.18,1878.17 1515,1879.44 C1516.83,1880.71 1517.74,1881.9 1517.74,1883.01 C1517.74,1885.42 1516.89,1887.49 1515.19,1889.23 C1513.49,1890.96 1511.42,1891.82 1508.97,1891.82 C1506.53,1891.82 1504.47,1890.96 1502.8,1889.23 C1501.13,1887.49 1500.3,1885.42 1500.3,1883.01 C1500.3,1878.25 1502.37,1874.44 1506.51,1871.6 C1510.66,1868.75 1515.58,1867.33 1521.27,1867.33 C1528.75,1867.33 1534.9,1868.77 1539.73,1871.65 C1544.55,1874.52 1546.96,1878.87 1546.96,1884.68 C1546.96,1888.82 1546.53,1892.04 1545.66,1894.33 C1544.8,1896.62 1543.81,1898.01 1542.7,1898.5 C1541.58,1899 1540.59,1899.57 1539.73,1900.22 C1538.86,1900.87 1538.43,1901.81 1538.43,1903.05"/>
<path class="FiguredBass" d="M3358.04,1765.11 C3353.46,1765.11 3350.42,1766.95 3348.9,1770.63 C3347.39,1774.31 3346.63,1779.52 3346.63,1786.26 L3346.63,1797.21 C3349.84,1795.91 3352.63,1795.23 3354.98,1795.17 C3363.02,1795.17 3369.34,1796.94 3373.95,1800.5 C3378.56,1804.06 3380.86,1809.34 3380.86,1816.36 C3380.86,1823.38 3378.53,1828.69 3373.86,1832.28 C3369.19,1835.86 3362.89,1837.66 3354.98,1837.66 C3346.88,1837.66 3340.54,1833.9 3335.96,1826.38 C3331.38,1818.87 3329.09,1809.95 3329.09,1799.62 C3329.09,1789.35 3331.75,1780.45 3337.07,1772.9 C3342.39,1765.35 3349.38,1761.58 3358.04,1761.58 C3363.73,1761.58 3368.65,1763.02 3372.79,1765.9 C3376.93,1768.77 3379.01,1772.56 3379.01,1777.26 C3379.01,1779.98 3378.02,1782.33 3376.04,1784.31 C3374.06,1786.29 3371.69,1787.28 3368.94,1787.28 C3366.19,1787.28 3363.82,1786.29 3361.84,1784.31 C3359.86,1782.33 3358.87,1779.98 3358.87,1777.26 C3358.87,1774.6 3359.86,1772.25 3361.84,1770.21 C3362.52,1769.41 3363.48,1768.73 3364.72,1768.17 C3364.41,1767.36 3363.79,1766.75 3362.86,1766.31 C3361.5,1765.51 3359.89,1765.11 3358.04,1765.11 M3362.59,1803.05 C3361.47,1800.14 3359.03,1798.69 3355.26,1798.69 C3351.48,1798.69 3349.15,1800.14 3348.25,1803.05 C3347.35,1805.96 3346.91,1810.38 3346.91,1816.32 C3346.91,1823.31 3347.35,1828.01 3348.25,1830.42 C3349.15,1832.83 3351.48,1834.04 3355.26,1834.04 C3359.03,1834.04 3361.47,1832.58 3362.59,1829.68 C3363.7,1826.77 3364.26,1822.33 3364.26,1816.36 C3364.26,1810.4 3363.7,1805.96 3362.59,1803.05"/>
<path class="FiguredBass" d="M3369.91,1903.05 C3369.91,1904.04 3370.47,1905 3371.58,1905.93 C3372.7,1906.85 3373.92,1907.73 3375.25,1908.57 C3376.58,1909.4 3377.8,1910.98 3378.91,1913.3 C3380.03,1915.62 3380.58,1918.54 3380.58,1922.07 C3380.58,1928.87 3378.02,1934.13 3372.88,1937.84 C3367.75,1941.55 3361.26,1943.41 3353.4,1943.41 C3347.09,1943.41 3341.6,1941.83 3336.93,1938.67 C3332.26,1935.52 3329.93,1931.38 3329.93,1926.24 C3329.93,1923.52 3330.92,1921.16 3332.9,1919.15 C3334.88,1917.14 3337.24,1916.13 3339.99,1916.13 C3342.75,1916.13 3345.08,1917.12 3347,1919.1 C3348.92,1921.08 3349.88,1923.46 3349.88,1926.24 C3349.88,1927.48 3348.85,1928.83 3346.81,1930.28 C3344.77,1931.73 3343.75,1933.08 3343.75,1934.31 C3343.75,1936.23 3344.7,1937.64 3346.58,1938.54 C3348.47,1939.43 3350.74,1939.88 3353.4,1939.88 C3356.86,1939.88 3359.32,1938.16 3360.78,1934.73 C3362.23,1931.3 3362.96,1927.08 3362.96,1922.07 L3362.96,1919.66 C3362.96,1916.32 3362.85,1913.78 3362.63,1912.05 C3362.42,1910.32 3361.73,1908.77 3360.59,1907.41 C3359.45,1906.05 3357.7,1905.37 3355.35,1905.37 L3343.2,1905.37 C3341.77,1905.37 3341.06,1904.6 3341.06,1903.05 C3341.06,1901.63 3341.77,1900.92 3343.2,1900.92 L3355.35,1900.92 C3357.88,1900.92 3359.86,1899.96 3361.29,1898.04 C3361.78,1897.36 3362.18,1896.25 3362.49,1894.7 C3362.8,1892.66 3362.96,1889.72 3362.96,1885.89 L3362.96,1884.68 C3362.96,1875.47 3359.55,1870.86 3352.75,1870.86 C3346.75,1870.86 3343.75,1872.53 3343.75,1875.87 C3343.75,1876.98 3344.66,1878.17 3346.49,1879.44 C3348.31,1880.71 3349.23,1881.9 3349.23,1883.01 C3349.23,1885.42 3348.38,1887.49 3346.67,1889.23 C3344.97,1890.96 3342.9,1891.82 3340.46,1891.82 C3338.02,1891.82 3335.96,1890.96 3334.29,1889.23 C3332.62,1887.49 3331.78,1885.42 3331.78,1883.01 C3331.78,1878.25 3333.86,1874.44 3338,1871.6 C3342.14,1868.75 3347.06,1867.33 3352.75,1867.33 C3360.23,1867.33 3366.39,1868.77 3371.21,1871.65 C3376.04,1874.52 3378.45,1878.87 3378.45,1884.68 C3378.45,1888.82 3378.02,1892.04 3377.15,1894.33 C3376.28,1896.62 3375.3,1898.01 3374.18,1898.5 C3373.07,1899 3372.08,1899.57 3371.21,1900.22 C3370.35,1900.87 3369.91,1901.81 3369.91,1903.05"/>
<path class="Bracket" transform="matrix(8.6315,0,0,8.6315,76.1283,2254.96)" d="M0.92002,-50 C2.69004,-51.88 6.2,-55.8 6.2,-63 C6.2,-72.1 2.25996,-81.32 2.25996,-86.97 C2.25996,-93.06 5.84004,-98.84 5.95,-99 C6.05996,-99.16 6.05,-99.39 5.94004,-99.46 C5.82998,-99.53 5.62002,-99.47 5.49004,-99.32 C5.35996,-99.17 0,-93.75 0,-85.6 C0,-76.75 3.5,-70.58 3.5,-59.07 C3.5,-56.89 2.55996,-53.36 0.1,-50.33 C-0.0799805,-50.17 -0.1,-49.89 0.0599609,-49.7 L0.0700195,-49.69 L0.1,-49.66 C2.55996,-46.63 3.5,-43.1 3.5,-40.92 C3.5,-29.4 0,-23.24 0,-14.39 C0,-6.25 5.35996,-0.8 5.49004,-0.659961 C5.62002,-0.52002 5.8,-0.42998 5.94004,-0.52002 C6.07998,-0.609961 6.07998,-0.77998 5.95,-0.97998 C5.82002,-1.17998 2.25996,-6.92002 2.25996,-13.01 C2.25996,-18.66 6.2,-27.9 6.2,-37 C6.2,-44.3 2.69004,-48.12 0.92002,-50"/>
</svg>
