<?xml version="1.0" encoding="UTF-8" standalone="no"?>
<svg width="4209.44px" height="2976.38px" viewBox="0 0 4209.44 2976.38"
 xmlns="http://www.w3.org/2000/svg" xmlns:xlink="http://www.w3.org/1999/xlink" version="1.2" baseProfile="tiny">
<title>ReMineur (30)</title>
<desc>Generated by MuseScore 3.6.2</desc>
<polyline class="StaffLines" fill="none" stroke="#000000" stroke-width="6.55" stroke-linejoin="bevel" points="153.819,558.425 4138.58,558.425"/>
<polyline class="StaffLines" fill="none" stroke="#000000" stroke-width="6.55" stroke-linejoin="bevel" points="153.819,647.717 4138.58,647.717"/>
<polyline class="StaffLines" fill="none" stroke="#000000" stroke-width="6.55" stroke-linejoin="bevel" points="153.819,737.008 4138.58,737.008"/>
<polyline class="StaffLines" fill="none" stroke="#000000" stroke-width="6.55" stroke-linejoin="bevel" points="153.819,826.299 4138.58,826.299"/>
<polyline class="StaffLines" fill="none" stroke="#000000" stroke-width="6.55" stroke-linejoin="bevel" points="153.819,915.591 4138.58,915.591"/>
<polyline class="StaffLines" fill="none" stroke="#000000" stroke-width="6.55" stroke-linejoin="bevel" points="153.819,1004.88 4138.58,1004.88"/>
<polyline class="StaffLines" fill="none" stroke="#000000" stroke-width="6.55" stroke-linejoin="bevel" points="153.819,1391.81 4138.58,1391.81"/>
<polyline class="StaffLines" fill="none" stroke="#000000" stroke-width="6.55" stroke-linejoin="bevel" points="153.819,1451.34 4138.58,1451.34"/>
<polyline class="StaffLines" fill="none" stroke="#000000" stroke-width="6.55" stroke-linejoin="bevel" points="153.819,1510.87 4138.58,1510.87"/>
<polyline class="StaffLines" fill="none" stroke="#000000" stroke-width="6.55" stroke-linejoin="bevel" points="153.819,1570.39 4138.58,1570.39"/>
<polyline class="StaffLines" fill="none" stroke="#000000" stroke-width="6.55" stroke-linejoin="bevel" points="153.819,1629.92 4138.58,1629.92"/>
<polyline class="StaffLines" fill="none" stroke="#000000" stroke-width="6.55" stroke-linejoin="bevel" points="153.819,2016.85 4138.58,2016.85"/>
<polyline class="StaffLines" fill="none" stroke="#000000" stroke-width="6.55" stroke-linejoin="bevel" points="153.819,2076.38 4138.58,2076.38"/>
<polyline class="StaffLines" fill="none" stroke="#000000" stroke-width="6.55" stroke-linejoin="bevel" points="153.819,2135.91 4138.58,2135.91"/>
<polyline class="StaffLines" fill="none" stroke="#000000" stroke-width="6.55" stroke-linejoin="bevel" points="153.819,2195.43 4138.58,2195.43"/>
<polyline class="StaffLines" fill="none" stroke="#000000" stroke-width="6.55" stroke-linejoin="bevel" points="153.819,2254.96 4138.58,2254.96"/>
<polyline class="BarLine" fill="none" stroke="#000000" stroke-width="10.71" stroke-linejoin="bevel" points="159.176,2013.58 159.176,2258.23"/>
<polyline class="BarLine" fill="none" stroke="#000000" stroke-width="10.71" stroke-linejoin="bevel" points="947.606,2013.58 947.606,2258.23"/>
<polyline class="BarLine" fill="none" stroke="#000000" stroke-width="10.71" stroke-linejoin="bevel" points="1370.81,2013.58 1370.81,2258.23"/>
<polyline class="BarLine" fill="none" stroke="#000000" stroke-width="10.71" stroke-linejoin="bevel" points="1794.01,2013.58 1794.01,2258.23"/>
<polyline class="BarLine" fill="none" stroke="#000000" stroke-width="10.71" stroke-linejoin="bevel" points="2231.96,2013.58 2231.96,2258.23"/>
<polyline class="BarLine" fill="none" stroke="#000000" stroke-width="10.71" stroke-linejoin="bevel" points="2669.92,2013.58 2669.92,2258.23"/>
<polyline class="BarLine" fill="none" stroke="#000000" stroke-width="10.71" stroke-linejoin="bevel" points="3093.25,2013.58 3093.25,2258.23"/>
<polyline class="BarLine" fill="none" stroke="#000000" stroke-width="10.71" stroke-linejoin="bevel" points="3629.92,2013.58 3629.92,2258.23"/>
<polyline class="BarLine" fill="none" stroke="#000000" stroke-width="10.71" stroke-linejoin="bevel" points="4080.54,2013.58 4080.54,2258.23"/>
<polyline class="BarLine" fill="none" stroke="#000000" stroke-width="32.74" stroke-linejoin="bevel" points="4122.21,2013.58 4122.21,2258.23"/>
<polyline class="BarLine" fill="none" stroke="#000000" stroke-width="10.71" stroke-linejoin="bevel" points="159.176,1388.54 159.176,2016.85"/>
<polyline class="BarLine" fill="none" stroke="#000000" stroke-width="10.71" stroke-linejoin="bevel" points="947.606,1388.54 947.606,1633.2"/>
<polyline class="BarLine" fill="none" stroke="#000000" stroke-width="10.71" stroke-linejoin="bevel" points="1370.81,1388.54 1370.81,1633.2"/>
<polyline class="BarLine" fill="none" stroke="#000000" stroke-width="10.71" stroke-linejoin="bevel" points="1794.01,1388.54 1794.01,1633.2"/>
<polyline class="BarLine" fill="none" stroke="#000000" stroke-width="10.71" stroke-linejoin="bevel" points="2231.96,1388.54 2231.96,1633.2"/>
<polyline class="BarLine" fill="none" stroke="#000000" stroke-width="10.71" stroke-linejoin="bevel" points="2669.92,1388.54 2669.92,1633.2"/>
<polyline class="BarLine" fill="none" stroke="#000000" stroke-width="10.71" stroke-linejoin="bevel" points="3093.25,1388.54 3093.25,1633.2"/>
<polyline class="BarLine" fill="none" stroke="#000000" stroke-width="10.71" stroke-linejoin="bevel" points="3629.92,1388.54 3629.92,1633.2"/>
<polyline class="BarLine" fill="none" stroke="#000000" stroke-width="10.71" stroke-linejoin="bevel" points="4080.54,1388.54 4080.54,1633.2"/>
<polyline class="BarLine" fill="none" stroke="#000000" stroke-width="32.74" stroke-linejoin="bevel" points="4122.21,1388.54 4122.21,1633.2"/>
<polyline class="BarLine" fill="none" stroke="#000000" stroke-width="10.71" stroke-linejoin="bevel" points="159.176,555.151 159.176,1391.81"/>
<polyline class="BarLine" fill="none" stroke="#000000" stroke-width="10.71" stroke-linejoin="bevel" points="947.606,555.151 947.606,1008.16"/>
<polyline class="BarLine" fill="none" stroke="#000000" stroke-width="10.71" stroke-linejoin="bevel" points="1370.81,555.151 1370.81,1008.16"/>
<polyline class="BarLine" fill="none" stroke="#000000" stroke-width="10.71" stroke-linejoin="bevel" points="1794.01,555.151 1794.01,1008.16"/>
<polyline class="BarLine" fill="none" stroke="#000000" stroke-width="10.71" stroke-linejoin="bevel" points="2231.96,555.151 2231.96,1008.16"/>
<polyline class="BarLine" fill="none" stroke="#000000" stroke-width="10.71" stroke-linejoin="bevel" points="2669.92,555.151 2669.92,1008.16"/>
<polyline class="BarLine" fill="none" stroke="#000000" stroke-width="10.71" stroke-linejoin="bevel" points="3093.25,555.151 3093.25,1008.16"/>
<polyline class="BarLine" fill="none" stroke="#000000" stroke-width="10.71" stroke-linejoin="bevel" points="3629.92,555.151 3629.92,1008.16"/>
<polyline class="BarLine" fill="none" stroke="#000000" stroke-width="10.71" stroke-linejoin="bevel" points="4080.54,555.151 4080.54,1008.16"/>
<polyline class="BarLine" fill="none" stroke="#000000" stroke-width="32.74" stroke-linejoin="bevel" points="4122.21,555.151 4122.21,1008.16"/>
<path class="Accidental" transform="matrix(2.3811,0,0,2.3811,1845.43,1481.1)" d="M23.3,-10.6 C23.9,-10.7 24.4,-11.4 24.4,-12 L24.4,-17.9 C24.4,-18.7 23.8,-19.3 23,-19.3 L22.8,-19.3 L19.5,-18.6 L19.5,-33.5 L16.7,-33.5 L16.7,-18 L7.8,-16.2 L7.8,-30.3 L5,-30.3 L5,-15.6 L1.1,-14.8 C0.5,-14.7 0,-14 0,-13.4 L0,-13.2 L0,-7.4 L0,-7.6 C0,-6.8 0.6,-6.2 1.4,-6.2 L1.7,-6.2 L5,-6.9 L5,9.6 L1.1,10.4 C0.5,10.5 0,11.2 0,11.8 L0,17.6 C0,18.4 0.6,19 1.4,19 L1.7,19 L5,18.3 L5,33.2 L7.8,33.2 L7.8,17.7 L16.7,15.9 L16.7,30 L19.5,30 L19.5,15.3 L23.3,14.6 C23.9,14.5 24.4,13.8 24.4,13.2 L24.4,7.3 C24.4,6.5 23.8,5.9 23,5.9 L22.8,5.9 L19.5,6.6 L19.5,-9.9 L23.3,-10.6 M7.8,9.1 L7.8,-7.5 L16.7,-9.3 L16.7,7.2 L7.8,9.1 "/>
<path class="Accidental" transform="matrix(2.3811,0,0,2.3811,2283.39,1481.1)" d="M23.3,-10.6 C23.9,-10.7 24.4,-11.4 24.4,-12 L24.4,-17.9 C24.4,-18.7 23.8,-19.3 23,-19.3 L22.8,-19.3 L19.5,-18.6 L19.5,-33.5 L16.7,-33.5 L16.7,-18 L7.8,-16.2 L7.8,-30.3 L5,-30.3 L5,-15.6 L1.1,-14.8 C0.5,-14.7 0,-14 0,-13.4 L0,-13.2 L0,-7.4 L0,-7.6 C0,-6.8 0.6,-6.2 1.4,-6.2 L1.7,-6.2 L5,-6.9 L5,9.6 L1.1,10.4 C0.5,10.5 0,11.2 0,11.8 L0,17.6 C0,18.4 0.6,19 1.4,19 L1.7,19 L5,18.3 L5,33.2 L7.8,33.2 L7.8,17.7 L16.7,15.9 L16.7,30 L19.5,30 L19.5,15.3 L23.3,14.6 C23.9,14.5 24.4,13.8 24.4,13.2 L24.4,7.3 C24.4,6.5 23.8,5.9 23,5.9 L22.8,5.9 L19.5,6.6 L19.5,-9.9 L23.3,-10.6 M7.8,9.1 L7.8,-7.5 L16.7,-9.3 L16.7,7.2 L7.8,9.1 "/>
<path class="Accidental" transform="matrix(2.3811,0,0,2.3811,3144.68,1481.1)" d="M23.3,-10.6 C23.9,-10.7 24.4,-11.4 24.4,-12 L24.4,-17.9 C24.4,-18.7 23.8,-19.3 23,-19.3 L22.8,-19.3 L19.5,-18.6 L19.5,-33.5 L16.7,-33.5 L16.7,-18 L7.8,-16.2 L7.8,-30.3 L5,-30.3 L5,-15.6 L1.1,-14.8 C0.5,-14.7 0,-14 0,-13.4 L0,-13.2 L0,-7.4 L0,-7.6 C0,-6.8 0.6,-6.2 1.4,-6.2 L1.7,-6.2 L5,-6.9 L5,9.6 L1.1,10.4 C0.5,10.5 0,11.2 0,11.8 L0,17.6 C0,18.4 0.6,19 1.4,19 L1.7,19 L5,18.3 L5,33.2 L7.8,33.2 L7.8,17.7 L16.7,15.9 L16.7,30 L19.5,30 L19.5,15.3 L23.3,14.6 C23.9,14.5 24.4,13.8 24.4,13.2 L24.4,7.3 C24.4,6.5 23.8,5.9 23,5.9 L22.8,5.9 L19.5,6.6 L19.5,-9.9 L23.3,-10.6 M7.8,9.1 L7.8,-7.5 L16.7,-9.3 L16.7,7.2 L7.8,9.1 "/>
<polyline class="LedgerLine" fill="none" stroke="#000000" stroke-width="9.52" stroke-linejoin="bevel" points="3196.82,2314.49 3327.3,2314.49"/>
<polyline class="LedgerLine" fill="none" stroke="#000000" stroke-width="9.52" stroke-linejoin="bevel" points="3713.14,2314.49 3843.61,2314.49"/>
<path class="Note" transform="matrix(2.3811,0,0,2.3811,626.933,2135.91)" d="M18.7,-13.6 C4.9,-13.6 0,-6.6 0,-0.1 C0,6.4 4.9,13.4 18.7,13.4 C32.5,13.4 37.3,6.4 37.3,-0.1 C37.3,-6.6 32.5,-13.6 18.7,-13.6 M10.4,-4.5 C10.3,-4.9 10.3,-5.3 10.3,-5.7 C10.3,-6.5 10.5,-7.3 10.9,-8 C11.6,-9 12.8,-9.7 14.3,-10 C15.6,-10.3 16.3,-10.5 18.9,-10.5 L19,-10.5 C23,-10.5 24.3,-6.8 25.4,-3 L25.7,-2 C26.5,0.6 26.9,2.8 26.9,4.5 C26.9,5.7 26.7,6.8 26.3,7.6 C25.7,8.7 24.7,9.4 23,9.8 C22.1,10 20.6,10.1 20.6,10.1 C20.1,10.1 19.7,10.2 19.3,10.2 C16.1,10.2 14.1,9 12.7,4.7 C11.5,1 11.3,-0.1 10.4,-4.5"/>
<path class="Note" transform="matrix(2.3811,0,0,2.3811,1030.35,2165.67)" d="M18.7,-13.6 C4.9,-13.6 0,-6.6 0,-0.1 C0,6.4 4.9,13.4 18.7,13.4 C32.5,13.4 37.3,6.4 37.3,-0.1 C37.3,-6.6 32.5,-13.6 18.7,-13.6 M10.4,-4.5 C10.3,-4.9 10.3,-5.3 10.3,-5.7 C10.3,-6.5 10.5,-7.3 10.9,-8 C11.6,-9 12.8,-9.7 14.3,-10 C15.6,-10.3 16.3,-10.5 18.9,-10.5 L19,-10.5 C23,-10.5 24.3,-6.8 25.4,-3 L25.7,-2 C26.5,0.6 26.9,2.8 26.9,4.5 C26.9,5.7 26.7,6.8 26.3,7.6 C25.7,8.7 24.7,9.4 23,9.8 C22.1,10 20.6,10.1 20.6,10.1 C20.1,10.1 19.7,10.2 19.3,10.2 C16.1,10.2 14.1,9 12.7,4.7 C11.5,1 11.3,-0.1 10.4,-4.5"/>
<path class="Note" transform="matrix(2.3811,0,0,2.3811,1453.55,2195.43)" d="M18.7,-13.6 C4.9,-13.6 0,-6.6 0,-0.1 C0,6.4 4.9,13.4 18.7,13.4 C32.5,13.4 37.3,6.4 37.3,-0.1 C37.3,-6.6 32.5,-13.6 18.7,-13.6 M10.4,-4.5 C10.3,-4.9 10.3,-5.3 10.3,-5.7 C10.3,-6.5 10.5,-7.3 10.9,-8 C11.6,-9 12.8,-9.7 14.3,-10 C15.6,-10.3 16.3,-10.5 18.9,-10.5 L19,-10.5 C23,-10.5 24.3,-6.8 25.4,-3 L25.7,-2 C26.5,0.6 26.9,2.8 26.9,4.5 C26.9,5.7 26.7,6.8 26.3,7.6 C25.7,8.7 24.7,9.4 23,9.8 C22.1,10 20.6,10.1 20.6,10.1 C20.1,10.1 19.7,10.2 19.3,10.2 C16.1,10.2 14.1,9 12.7,4.7 C11.5,1 11.3,-0.1 10.4,-4.5"/>
<path class="Note" transform="matrix(2.3811,0,0,2.3811,1918.41,2225.2)" d="M18.7,-13.6 C4.9,-13.6 0,-6.6 0,-0.1 C0,6.4 4.9,13.4 18.7,13.4 C32.5,13.4 37.3,6.4 37.3,-0.1 C37.3,-6.6 32.5,-13.6 18.7,-13.6 M10.4,-4.5 C10.3,-4.9 10.3,-5.3 10.3,-5.7 C10.3,-6.5 10.5,-7.3 10.9,-8 C11.6,-9 12.8,-9.7 14.3,-10 C15.6,-10.3 16.3,-10.5 18.9,-10.5 L19,-10.5 C23,-10.5 24.3,-6.8 25.4,-3 L25.7,-2 C26.5,0.6 26.9,2.8 26.9,4.5 C26.9,5.7 26.7,6.8 26.3,7.6 C25.7,8.7 24.7,9.4 23,9.8 C22.1,10 20.6,10.1 20.6,10.1 C20.1,10.1 19.7,10.2 19.3,10.2 C16.1,10.2 14.1,9 12.7,4.7 C11.5,1 11.3,-0.1 10.4,-4.5"/>
<path class="Note" transform="matrix(2.3811,0,0,2.3811,2356.37,2254.96)" d="M18.7,-13.6 C4.9,-13.6 0,-6.6 0,-0.1 C0,6.4 4.9,13.4 18.7,13.4 C32.5,13.4 37.3,6.4 37.3,-0.1 C37.3,-6.6 32.5,-13.6 18.7,-13.6 M10.4,-4.5 C10.3,-4.9 10.3,-5.3 10.3,-5.7 C10.3,-6.5 10.5,-7.3 10.9,-8 C11.6,-9 12.8,-9.7 14.3,-10 C15.6,-10.3 16.3,-10.5 18.9,-10.5 L19,-10.5 C23,-10.5 24.3,-6.8 25.4,-3 L25.7,-2 C26.5,0.6 26.9,2.8 26.9,4.5 C26.9,5.7 26.7,6.8 26.3,7.6 C25.7,8.7 24.7,9.4 23,9.8 C22.1,10 20.6,10.1 20.6,10.1 C20.1,10.1 19.7,10.2 19.3,10.2 C16.1,10.2 14.1,9 12.7,4.7 C11.5,1 11.3,-0.1 10.4,-4.5"/>
<path class="Note" transform="matrix(2.3811,0,0,2.3811,2753.04,2284.72)" d="M18.7,-13.6 C4.9,-13.6 0,-6.6 0,-0.1 C0,6.4 4.9,13.4 18.7,13.4 C32.5,13.4 37.3,6.4 37.3,-0.1 C37.3,-6.6 32.5,-13.6 18.7,-13.6 M10.4,-4.5 C10.3,-4.9 10.3,-5.3 10.3,-5.7 C10.3,-6.5 10.5,-7.3 10.9,-8 C11.6,-9 12.8,-9.7 14.3,-10 C15.6,-10.3 16.3,-10.5 18.9,-10.5 L19,-10.5 C23,-10.5 24.3,-6.8 25.4,-3 L25.7,-2 C26.5,0.6 26.9,2.8 26.9,4.5 C26.9,5.7 26.7,6.8 26.3,7.6 C25.7,8.7 24.7,9.4 23,9.8 C22.1,10 20.6,10.1 20.6,10.1 C20.1,10.1 19.7,10.2 19.3,10.2 C16.1,10.2 14.1,9 12.7,4.7 C11.5,1 11.3,-0.1 10.4,-4.5"/>
<path class="Note" transform="matrix(2.3811,0,0,2.3811,3217.65,2314.49)" d="M18.7,-13.6 C4.9,-13.6 0,-6.6 0,-0.1 C0,6.4 4.9,13.4 18.7,13.4 C32.5,13.4 37.3,6.4 37.3,-0.1 C37.3,-6.6 32.5,-13.6 18.7,-13.6 M10.4,-4.5 C10.3,-4.9 10.3,-5.3 10.3,-5.7 C10.3,-6.5 10.5,-7.3 10.9,-8 C11.6,-9 12.8,-9.7 14.3,-10 C15.6,-10.3 16.3,-10.5 18.9,-10.5 L19,-10.5 C23,-10.5 24.3,-6.8 25.4,-3 L25.7,-2 C26.5,0.6 26.9,2.8 26.9,4.5 C26.9,5.7 26.7,6.8 26.3,7.6 C25.7,8.7 24.7,9.4 23,9.8 C22.1,10 20.6,10.1 20.6,10.1 C20.1,10.1 19.7,10.2 19.3,10.2 C16.1,10.2 14.1,9 12.7,4.7 C11.5,1 11.3,-0.1 10.4,-4.5"/>
<path class="Note" transform="matrix(2.3811,0,0,2.3811,3733.97,2344.25)" d="M18.7,-13.6 C4.9,-13.6 0,-6.6 0,-0.1 C0,6.4 4.9,13.4 18.7,13.4 C32.5,13.4 37.3,6.4 37.3,-0.1 C37.3,-6.6 32.5,-13.6 18.7,-13.6 M10.4,-4.5 C10.3,-4.9 10.3,-5.3 10.3,-5.7 C10.3,-6.5 10.5,-7.3 10.9,-8 C11.6,-9 12.8,-9.7 14.3,-10 C15.6,-10.3 16.3,-10.5 18.9,-10.5 L19,-10.5 C23,-10.5 24.3,-6.8 25.4,-3 L25.7,-2 C26.5,0.6 26.9,2.8 26.9,4.5 C26.9,5.7 26.7,6.8 26.3,7.6 C25.7,8.7 24.7,9.4 23,9.8 C22.1,10 20.6,10.1 20.6,10.1 C20.1,10.1 19.7,10.2 19.3,10.2 C16.1,10.2 14.1,9 12.7,4.7 C11.5,1 11.3,-0.1 10.4,-4.5"/>
<path class="Note" transform="matrix(2.3811,0,0,2.3811,626.933,1600.16)" d="M18.7,-13.6 C4.9,-13.6 0,-6.6 0,-0.1 C0,6.4 4.9,13.4 18.7,13.4 C32.5,13.4 37.3,6.4 37.3,-0.1 C37.3,-6.6 32.5,-13.6 18.7,-13.6 M10.4,-4.5 C10.3,-4.9 10.3,-5.3 10.3,-5.7 C10.3,-6.5 10.5,-7.3 10.9,-8 C11.6,-9 12.8,-9.7 14.3,-10 C15.6,-10.3 16.3,-10.5 18.9,-10.5 L19,-10.5 C23,-10.5 24.3,-6.8 25.4,-3 L25.7,-2 C26.5,0.6 26.9,2.8 26.9,4.5 C26.9,5.7 26.7,6.8 26.3,7.6 C25.7,8.7 24.7,9.4 23,9.8 C22.1,10 20.6,10.1 20.6,10.1 C20.1,10.1 19.7,10.2 19.3,10.2 C16.1,10.2 14.1,9 12.7,4.7 C11.5,1 11.3,-0.1 10.4,-4.5"/>
<path class="Note" transform="matrix(2.3811,0,0,2.3811,626.933,1540.63)" d="M18.7,-13.6 C4.9,-13.6 0,-6.6 0,-0.1 C0,6.4 4.9,13.4 18.7,13.4 C32.5,13.4 37.3,6.4 37.3,-0.1 C37.3,-6.6 32.5,-13.6 18.7,-13.6 M10.4,-4.5 C10.3,-4.9 10.3,-5.3 10.3,-5.7 C10.3,-6.5 10.5,-7.3 10.9,-8 C11.6,-9 12.8,-9.7 14.3,-10 C15.6,-10.3 16.3,-10.5 18.9,-10.5 L19,-10.5 C23,-10.5 24.3,-6.8 25.4,-3 L25.7,-2 C26.5,0.6 26.9,2.8 26.9,4.5 C26.9,5.7 26.7,6.8 26.3,7.6 C25.7,8.7 24.7,9.4 23,9.8 C22.1,10 20.6,10.1 20.6,10.1 C20.1,10.1 19.7,10.2 19.3,10.2 C16.1,10.2 14.1,9 12.7,4.7 C11.5,1 11.3,-0.1 10.4,-4.5"/>
<path class="Note" transform="matrix(2.3811,0,0,2.3811,626.933,1451.34)" d="M18.7,-13.6 C4.9,-13.6 0,-6.6 0,-0.1 C0,6.4 4.9,13.4 18.7,13.4 C32.5,13.4 37.3,6.4 37.3,-0.1 C37.3,-6.6 32.5,-13.6 18.7,-13.6 M10.4,-4.5 C10.3,-4.9 10.3,-5.3 10.3,-5.7 C10.3,-6.5 10.5,-7.3 10.9,-8 C11.6,-9 12.8,-9.7 14.3,-10 C15.6,-10.3 16.3,-10.5 18.9,-10.5 L19,-10.5 C23,-10.5 24.3,-6.8 25.4,-3 L25.7,-2 C26.5,0.6 26.9,2.8 26.9,4.5 C26.9,5.7 26.7,6.8 26.3,7.6 C25.7,8.7 24.7,9.4 23,9.8 C22.1,10 20.6,10.1 20.6,10.1 C20.1,10.1 19.7,10.2 19.3,10.2 C16.1,10.2 14.1,9 12.7,4.7 C11.5,1 11.3,-0.1 10.4,-4.5"/>
<path class="Note" transform="matrix(2.3811,0,0,2.3811,1030.35,1629.92)" d="M18.7,-13.6 C4.9,-13.6 0,-6.6 0,-0.1 C0,6.4 4.9,13.4 18.7,13.4 C32.5,13.4 37.3,6.4 37.3,-0.1 C37.3,-6.6 32.5,-13.6 18.7,-13.6 M10.4,-4.5 C10.3,-4.9 10.3,-5.3 10.3,-5.7 C10.3,-6.5 10.5,-7.3 10.9,-8 C11.6,-9 12.8,-9.7 14.3,-10 C15.6,-10.3 16.3,-10.5 18.9,-10.5 L19,-10.5 C23,-10.5 24.3,-6.8 25.4,-3 L25.7,-2 C26.5,0.6 26.9,2.8 26.9,4.5 C26.9,5.7 26.7,6.8 26.3,7.6 C25.7,8.7 24.7,9.4 23,9.8 C22.1,10 20.6,10.1 20.6,10.1 C20.1,10.1 19.7,10.2 19.3,10.2 C16.1,10.2 14.1,9 12.7,4.7 C11.5,1 11.3,-0.1 10.4,-4.5"/>
<path class="Note" transform="matrix(2.3811,0,0,2.3811,1030.35,1540.63)" d="M18.7,-13.6 C4.9,-13.6 0,-6.6 0,-0.1 C0,6.4 4.9,13.4 18.7,13.4 C32.5,13.4 37.3,6.4 37.3,-0.1 C37.3,-6.6 32.5,-13.6 18.7,-13.6 M10.4,-4.5 C10.3,-4.9 10.3,-5.3 10.3,-5.7 C10.3,-6.5 10.5,-7.3 10.9,-8 C11.6,-9 12.8,-9.7 14.3,-10 C15.6,-10.3 16.3,-10.5 18.9,-10.5 L19,-10.5 C23,-10.5 24.3,-6.8 25.4,-3 L25.7,-2 C26.5,0.6 26.9,2.8 26.9,4.5 C26.9,5.7 26.7,6.8 26.3,7.6 C25.7,8.7 24.7,9.4 23,9.8 C22.1,10 20.6,10.1 20.6,10.1 C20.1,10.1 19.7,10.2 19.3,10.2 C16.1,10.2 14.1,9 12.7,4.7 C11.5,1 11.3,-0.1 10.4,-4.5"/>
<path class="Note" transform="matrix(2.3811,0,0,2.3811,1030.35,1421.57)" d="M18.7,-13.6 C4.9,-13.6 0,-6.6 0,-0.1 C0,6.4 4.9,13.4 18.7,13.4 C32.5,13.4 37.3,6.4 37.3,-0.1 C37.3,-6.6 32.5,-13.6 18.7,-13.6 M10.4,-4.5 C10.3,-4.9 10.3,-5.3 10.3,-5.7 C10.3,-6.5 10.5,-7.3 10.9,-8 C11.6,-9 12.8,-9.7 14.3,-10 C15.6,-10.3 16.3,-10.5 18.9,-10.5 L19,-10.5 C23,-10.5 24.3,-6.8 25.4,-3 L25.7,-2 C26.5,0.6 26.9,2.8 26.9,4.5 C26.9,5.7 26.7,6.8 26.3,7.6 C25.7,8.7 24.7,9.4 23,9.8 C22.1,10 20.6,10.1 20.6,10.1 C20.1,10.1 19.7,10.2 19.3,10.2 C16.1,10.2 14.1,9 12.7,4.7 C11.5,1 11.3,-0.1 10.4,-4.5"/>
<path class="Note" transform="matrix(2.3811,0,0,2.3811,1453.55,1629.92)" d="M18.7,-13.6 C4.9,-13.6 0,-6.6 0,-0.1 C0,6.4 4.9,13.4 18.7,13.4 C32.5,13.4 37.3,6.4 37.3,-0.1 C37.3,-6.6 32.5,-13.6 18.7,-13.6 M10.4,-4.5 C10.3,-4.9 10.3,-5.3 10.3,-5.7 C10.3,-6.5 10.5,-7.3 10.9,-8 C11.6,-9 12.8,-9.7 14.3,-10 C15.6,-10.3 16.3,-10.5 18.9,-10.5 L19,-10.5 C23,-10.5 24.3,-6.8 25.4,-3 L25.7,-2 C26.5,0.6 26.9,2.8 26.9,4.5 C26.9,5.7 26.7,6.8 26.3,7.6 C25.7,8.7 24.7,9.4 23,9.8 C22.1,10 20.6,10.1 20.6,10.1 C20.1,10.1 19.7,10.2 19.3,10.2 C16.1,10.2 14.1,9 12.7,4.7 C11.5,1 11.3,-0.1 10.4,-4.5"/>
<path class="Note" transform="matrix(2.3811,0,0,2.3811,1453.55,1570.39)" d="M18.7,-13.6 C4.9,-13.6 0,-6.6 0,-0.1 C0,6.4 4.9,13.4 18.7,13.4 C32.5,13.4 37.3,6.4 37.3,-0.1 C37.3,-6.6 32.5,-13.6 18.7,-13.6 M10.4,-4.5 C10.3,-4.9 10.3,-5.3 10.3,-5.7 C10.3,-6.5 10.5,-7.3 10.9,-8 C11.6,-9 12.8,-9.7 14.3,-10 C15.6,-10.3 16.3,-10.5 18.9,-10.5 L19,-10.5 C23,-10.5 24.3,-6.8 25.4,-3 L25.7,-2 C26.5,0.6 26.9,2.8 26.9,4.5 C26.9,5.7 26.7,6.8 26.3,7.6 C25.7,8.7 24.7,9.4 23,9.8 C22.1,10 20.6,10.1 20.6,10.1 C20.1,10.1 19.7,10.2 19.3,10.2 C16.1,10.2 14.1,9 12.7,4.7 C11.5,1 11.3,-0.1 10.4,-4.5"/>
<path class="Note" transform="matrix(2.3811,0,0,2.3811,1453.55,1451.34)" d="M18.7,-13.6 C4.9,-13.6 0,-6.6 0,-0.1 C0,6.4 4.9,13.4 18.7,13.4 C32.5,13.4 37.3,6.4 37.3,-0.1 C37.3,-6.6 32.5,-13.6 18.7,-13.6 M10.4,-4.5 C10.3,-4.9 10.3,-5.3 10.3,-5.7 C10.3,-6.5 10.5,-7.3 10.9,-8 C11.6,-9 12.8,-9.7 14.3,-10 C15.6,-10.3 16.3,-10.5 18.9,-10.5 L19,-10.5 C23,-10.5 24.3,-6.8 25.4,-3 L25.7,-2 C26.5,0.6 26.9,2.8 26.9,4.5 C26.9,5.7 26.7,6.8 26.3,7.6 C25.7,8.7 24.7,9.4 23,9.8 C22.1,10 20.6,10.1 20.6,10.1 C20.1,10.1 19.7,10.2 19.3,10.2 C16.1,10.2 14.1,9 12.7,4.7 C11.5,1 11.3,-0.1 10.4,-4.5"/>
<path class="Note" transform="matrix(2.3811,0,0,2.3811,1918.41,1629.92)" d="M18.7,-13.6 C4.9,-13.6 0,-6.6 0,-0.1 C0,6.4 4.9,13.4 18.7,13.4 C32.5,13.4 37.3,6.4 37.3,-0.1 C37.3,-6.6 32.5,-13.6 18.7,-13.6 M10.4,-4.5 C10.3,-4.9 10.3,-5.3 10.3,-5.7 C10.3,-6.5 10.5,-7.3 10.9,-8 C11.6,-9 12.8,-9.7 14.3,-10 C15.6,-10.3 16.3,-10.5 18.9,-10.5 L19,-10.5 C23,-10.5 24.3,-6.8 25.4,-3 L25.7,-2 C26.5,0.6 26.9,2.8 26.9,4.5 C26.9,5.7 26.7,6.8 26.3,7.6 C25.7,8.7 24.7,9.4 23,9.8 C22.1,10 20.6,10.1 20.6,10.1 C20.1,10.1 19.7,10.2 19.3,10.2 C16.1,10.2 14.1,9 12.7,4.7 C11.5,1 11.3,-0.1 10.4,-4.5"/>
<path class="Note" transform="matrix(2.3811,0,0,2.3811,1918.41,1540.63)" d="M18.7,-13.6 C4.9,-13.6 0,-6.6 0,-0.1 C0,6.4 4.9,13.4 18.7,13.4 C32.5,13.4 37.3,6.4 37.3,-0.1 C37.3,-6.6 32.5,-13.6 18.7,-13.6 M10.4,-4.5 C10.3,-4.9 10.3,-5.3 10.3,-5.7 C10.3,-6.5 10.5,-7.3 10.9,-8 C11.6,-9 12.8,-9.7 14.3,-10 C15.6,-10.3 16.3,-10.5 18.9,-10.5 L19,-10.5 C23,-10.5 24.3,-6.8 25.4,-3 L25.7,-2 C26.5,0.6 26.9,2.8 26.9,4.5 C26.9,5.7 26.7,6.8 26.3,7.6 C25.7,8.7 24.7,9.4 23,9.8 C22.1,10 20.6,10.1 20.6,10.1 C20.1,10.1 19.7,10.2 19.3,10.2 C16.1,10.2 14.1,9 12.7,4.7 C11.5,1 11.3,-0.1 10.4,-4.5"/>
<path class="Note" transform="matrix(2.3811,0,0,2.3811,1918.41,1481.1)" d="M18.7,-13.6 C4.9,-13.6 0,-6.6 0,-0.1 C0,6.4 4.9,13.4 18.7,13.4 C32.5,13.4 37.3,6.4 37.3,-0.1 C37.3,-6.6 32.5,-13.6 18.7,-13.6 M10.4,-4.5 C10.3,-4.9 10.3,-5.3 10.3,-5.7 C10.3,-6.5 10.5,-7.3 10.9,-8 C11.6,-9 12.8,-9.7 14.3,-10 C15.6,-10.3 16.3,-10.5 18.9,-10.5 L19,-10.5 C23,-10.5 24.3,-6.8 25.4,-3 L25.7,-2 C26.5,0.6 26.9,2.8 26.9,4.5 C26.9,5.7 26.7,6.8 26.3,7.6 C25.7,8.7 24.7,9.4 23,9.8 C22.1,10 20.6,10.1 20.6,10.1 C20.1,10.1 19.7,10.2 19.3,10.2 C16.1,10.2 14.1,9 12.7,4.7 C11.5,1 11.3,-0.1 10.4,-4.5"/>
<path class="Note" transform="matrix(2.3811,0,0,2.3811,2356.37,1629.92)" d="M18.7,-13.6 C4.9,-13.6 0,-6.6 0,-0.1 C0,6.4 4.9,13.4 18.7,13.4 C32.5,13.4 37.3,6.4 37.3,-0.1 C37.3,-6.6 32.5,-13.6 18.7,-13.6 M10.4,-4.5 C10.3,-4.9 10.3,-5.3 10.3,-5.7 C10.3,-6.5 10.5,-7.3 10.9,-8 C11.6,-9 12.8,-9.7 14.3,-10 C15.6,-10.3 16.3,-10.5 18.9,-10.5 L19,-10.5 C23,-10.5 24.3,-6.8 25.4,-3 L25.7,-2 C26.5,0.6 26.9,2.8 26.9,4.5 C26.9,5.7 26.7,6.8 26.3,7.6 C25.7,8.7 24.7,9.4 23,9.8 C22.1,10 20.6,10.1 20.6,10.1 C20.1,10.1 19.7,10.2 19.3,10.2 C16.1,10.2 14.1,9 12.7,4.7 C11.5,1 11.3,-0.1 10.4,-4.5"/>
<path class="Note" transform="matrix(2.3811,0,0,2.3811,2356.37,1540.63)" d="M18.7,-13.6 C4.9,-13.6 0,-6.6 0,-0.1 C0,6.4 4.9,13.4 18.7,13.4 C32.5,13.4 37.3,6.4 37.3,-0.1 C37.3,-6.6 32.5,-13.6 18.7,-13.6 M10.4,-4.5 C10.3,-4.9 10.3,-5.3 10.3,-5.7 C10.3,-6.5 10.5,-7.3 10.9,-8 C11.6,-9 12.8,-9.7 14.3,-10 C15.6,-10.3 16.3,-10.5 18.9,-10.5 L19,-10.5 C23,-10.5 24.3,-6.8 25.4,-3 L25.7,-2 C26.5,0.6 26.9,2.8 26.9,4.5 C26.9,5.7 26.7,6.8 26.3,7.6 C25.7,8.7 24.7,9.4 23,9.8 C22.1,10 20.6,10.1 20.6,10.1 C20.1,10.1 19.7,10.2 19.3,10.2 C16.1,10.2 14.1,9 12.7,4.7 C11.5,1 11.3,-0.1 10.4,-4.5"/>
<path class="Note" transform="matrix(2.3811,0,0,2.3811,2356.37,1481.1)" d="M18.7,-13.6 C4.9,-13.6 0,-6.6 0,-0.1 C0,6.4 4.9,13.4 18.7,13.4 C32.5,13.4 37.3,6.4 37.3,-0.1 C37.3,-6.6 32.5,-13.6 18.7,-13.6 M10.4,-4.5 C10.3,-4.9 10.3,-5.3 10.3,-5.7 C10.3,-6.5 10.5,-7.3 10.9,-8 C11.6,-9 12.8,-9.7 14.3,-10 C15.6,-10.3 16.3,-10.5 18.9,-10.5 L19,-10.5 C23,-10.5 24.3,-6.8 25.4,-3 L25.7,-2 C26.5,0.6 26.9,2.8 26.9,4.5 C26.9,5.7 26.7,6.8 26.3,7.6 C25.7,8.7 24.7,9.4 23,9.8 C22.1,10 20.6,10.1 20.6,10.1 C20.1,10.1 19.7,10.2 19.3,10.2 C16.1,10.2 14.1,9 12.7,4.7 C11.5,1 11.3,-0.1 10.4,-4.5"/>
<path class="Note" transform="matrix(2.3811,0,0,2.3811,2753.04,1600.16)" d="M18.7,-13.6 C4.9,-13.6 0,-6.6 0,-0.1 C0,6.4 4.9,13.4 18.7,13.4 C32.5,13.4 37.3,6.4 37.3,-0.1 C37.3,-6.6 32.5,-13.6 18.7,-13.6 M10.4,-4.5 C10.3,-4.9 10.3,-5.3 10.3,-5.7 C10.3,-6.5 10.5,-7.3 10.9,-8 C11.6,-9 12.8,-9.7 14.3,-10 C15.6,-10.3 16.3,-10.5 18.9,-10.5 L19,-10.5 C23,-10.5 24.3,-6.8 25.4,-3 L25.7,-2 C26.5,0.6 26.9,2.8 26.9,4.5 C26.9,5.7 26.7,6.8 26.3,7.6 C25.7,8.7 24.7,9.4 23,9.8 C22.1,10 20.6,10.1 20.6,10.1 C20.1,10.1 19.7,10.2 19.3,10.2 C16.1,10.2 14.1,9 12.7,4.7 C11.5,1 11.3,-0.1 10.4,-4.5"/>
<path class="Note" transform="matrix(2.3811,0,0,2.3811,2753.04,1540.63)" d="M18.7,-13.6 C4.9,-13.6 0,-6.6 0,-0.1 C0,6.4 4.9,13.4 18.7,13.4 C32.5,13.4 37.3,6.4 37.3,-0.1 C37.3,-6.6 32.5,-13.6 18.7,-13.6 M10.4,-4.5 C10.3,-4.9 10.3,-5.3 10.3,-5.7 C10.3,-6.5 10.5,-7.3 10.9,-8 C11.6,-9 12.8,-9.7 14.3,-10 C15.6,-10.3 16.3,-10.5 18.9,-10.5 L19,-10.5 C23,-10.5 24.3,-6.8 25.4,-3 L25.7,-2 C26.5,0.6 26.9,2.8 26.9,4.5 C26.9,5.7 26.7,6.8 26.3,7.6 C25.7,8.7 24.7,9.4 23,9.8 C22.1,10 20.6,10.1 20.6,10.1 C20.1,10.1 19.7,10.2 19.3,10.2 C16.1,10.2 14.1,9 12.7,4.7 C11.5,1 11.3,-0.1 10.4,-4.5"/>
<path class="Note" transform="matrix(2.3811,0,0,2.3811,2753.04,1451.34)" d="M18.7,-13.6 C4.9,-13.6 0,-6.6 0,-0.1 C0,6.4 4.9,13.4 18.7,13.4 C32.5,13.4 37.3,6.4 37.3,-0.1 C37.3,-6.6 32.5,-13.6 18.7,-13.6 M10.4,-4.5 C10.3,-4.9 10.3,-5.3 10.3,-5.7 C10.3,-6.5 10.5,-7.3 10.9,-8 C11.6,-9 12.8,-9.7 14.3,-10 C15.6,-10.3 16.3,-10.5 18.9,-10.5 L19,-10.5 C23,-10.5 24.3,-6.8 25.4,-3 L25.7,-2 C26.5,0.6 26.9,2.8 26.9,4.5 C26.9,5.7 26.7,6.8 26.3,7.6 C25.7,8.7 24.7,9.4 23,9.8 C22.1,10 20.6,10.1 20.6,10.1 C20.1,10.1 19.7,10.2 19.3,10.2 C16.1,10.2 14.1,9 12.7,4.7 C11.5,1 11.3,-0.1 10.4,-4.5"/>
<path class="Note" transform="matrix(2.3811,0,0,2.3811,3217.65,1570.39)" d="M18.7,-13.6 C4.9,-13.6 0,-6.6 0,-0.1 C0,6.4 4.9,13.4 18.7,13.4 C32.5,13.4 37.3,6.4 37.3,-0.1 C37.3,-6.6 32.5,-13.6 18.7,-13.6 M10.4,-4.5 C10.3,-4.9 10.3,-5.3 10.3,-5.7 C10.3,-6.5 10.5,-7.3 10.9,-8 C11.6,-9 12.8,-9.7 14.3,-10 C15.6,-10.3 16.3,-10.5 18.9,-10.5 L19,-10.5 C23,-10.5 24.3,-6.8 25.4,-3 L25.7,-2 C26.5,0.6 26.9,2.8 26.9,4.5 C26.9,5.7 26.7,6.8 26.3,7.6 C25.7,8.7 24.7,9.4 23,9.8 C22.1,10 20.6,10.1 20.6,10.1 C20.1,10.1 19.7,10.2 19.3,10.2 C16.1,10.2 14.1,9 12.7,4.7 C11.5,1 11.3,-0.1 10.4,-4.5"/>
<path class="Note" transform="matrix(2.3811,0,0,2.3811,3299.91,1540.63)" d="M18.7,-13.6 C4.9,-13.6 0,-6.6 0,-0.1 C0,6.4 4.9,13.4 18.7,13.4 C32.5,13.4 37.3,6.4 37.3,-0.1 C37.3,-6.6 32.5,-13.6 18.7,-13.6 M10.4,-4.5 C10.3,-4.9 10.3,-5.3 10.3,-5.7 C10.3,-6.5 10.5,-7.3 10.9,-8 C11.6,-9 12.8,-9.7 14.3,-10 C15.6,-10.3 16.3,-10.5 18.9,-10.5 L19,-10.5 C23,-10.5 24.3,-6.8 25.4,-3 L25.7,-2 C26.5,0.6 26.9,2.8 26.9,4.5 C26.9,5.7 26.7,6.8 26.3,7.6 C25.7,8.7 24.7,9.4 23,9.8 C22.1,10 20.6,10.1 20.6,10.1 C20.1,10.1 19.7,10.2 19.3,10.2 C16.1,10.2 14.1,9 12.7,4.7 C11.5,1 11.3,-0.1 10.4,-4.5"/>
<path class="Note" transform="matrix(2.3811,0,0,2.3811,3217.65,1481.1)" d="M18.7,-13.6 C4.9,-13.6 0,-6.6 0,-0.1 C0,6.4 4.9,13.4 18.7,13.4 C32.5,13.4 37.3,6.4 37.3,-0.1 C37.3,-6.6 32.5,-13.6 18.7,-13.6 M10.4,-4.5 C10.3,-4.9 10.3,-5.3 10.3,-5.7 C10.3,-6.5 10.5,-7.3 10.9,-8 C11.6,-9 12.8,-9.7 14.3,-10 C15.6,-10.3 16.3,-10.5 18.9,-10.5 L19,-10.5 C23,-10.5 24.3,-6.8 25.4,-3 L25.7,-2 C26.5,0.6 26.9,2.8 26.9,4.5 C26.9,5.7 26.7,6.8 26.3,7.6 C25.7,8.7 24.7,9.4 23,9.8 C22.1,10 20.6,10.1 20.6,10.1 C20.1,10.1 19.7,10.2 19.3,10.2 C16.1,10.2 14.1,9 12.7,4.7 C11.5,1 11.3,-0.1 10.4,-4.5"/>
<path class="Note" transform="matrix(2.3811,0,0,2.3811,3733.97,1600.16)" d="M18.7,-13.6 C4.9,-13.6 0,-6.6 0,-0.1 C0,6.4 4.9,13.4 18.7,13.4 C32.5,13.4 37.3,6.4 37.3,-0.1 C37.3,-6.6 32.5,-13.6 18.7,-13.6 M10.4,-4.5 C10.3,-4.9 10.3,-5.3 10.3,-5.7 C10.3,-6.5 10.5,-7.3 10.9,-8 C11.6,-9 12.8,-9.7 14.3,-10 C15.6,-10.3 16.3,-10.5 18.9,-10.5 L19,-10.5 C23,-10.5 24.3,-6.8 25.4,-3 L25.7,-2 C26.5,0.6 26.9,2.8 26.9,4.5 C26.9,5.7 26.7,6.8 26.3,7.6 C25.7,8.7 24.7,9.4 23,9.8 C22.1,10 20.6,10.1 20.6,10.1 C20.1,10.1 19.7,10.2 19.3,10.2 C16.1,10.2 14.1,9 12.7,4.7 C11.5,1 11.3,-0.1 10.4,-4.5"/>
<path class="Note" transform="matrix(2.3811,0,0,2.3811,3733.97,1540.63)" d="M18.7,-13.6 C4.9,-13.6 0,-6.6 0,-0.1 C0,6.4 4.9,13.4 18.7,13.4 C32.5,13.4 37.3,6.4 37.3,-0.1 C37.3,-6.6 32.5,-13.6 18.7,-13.6 M10.4,-4.5 C10.3,-4.9 10.3,-5.3 10.3,-5.7 C10.3,-6.5 10.5,-7.3 10.9,-8 C11.6,-9 12.8,-9.7 14.3,-10 C15.6,-10.3 16.3,-10.5 18.9,-10.5 L19,-10.5 C23,-10.5 24.3,-6.8 25.4,-3 L25.7,-2 C26.5,0.6 26.9,2.8 26.9,4.5 C26.9,5.7 26.7,6.8 26.3,7.6 C25.7,8.7 24.7,9.4 23,9.8 C22.1,10 20.6,10.1 20.6,10.1 C20.1,10.1 19.7,10.2 19.3,10.2 C16.1,10.2 14.1,9 12.7,4.7 C11.5,1 11.3,-0.1 10.4,-4.5"/>
<path class="Note" transform="matrix(2.3811,0,0,2.3811,3733.97,1451.34)" d="M18.7,-13.6 C4.9,-13.6 0,-6.6 0,-0.1 C0,6.4 4.9,13.4 18.7,13.4 C32.5,13.4 37.3,6.4 37.3,-0.1 C37.3,-6.6 32.5,-13.6 18.7,-13.6 M10.4,-4.5 C10.3,-4.9 10.3,-5.3 10.3,-5.7 C10.3,-6.5 10.5,-7.3 10.9,-8 C11.6,-9 12.8,-9.7 14.3,-10 C15.6,-10.3 16.3,-10.5 18.9,-10.5 L19,-10.5 C23,-10.5 24.3,-6.8 25.4,-3 L25.7,-2 C26.5,0.6 26.9,2.8 26.9,4.5 C26.9,5.7 26.7,6.8 26.3,7.6 C25.7,8.7 24.7,9.4 23,9.8 C22.1,10 20.6,10.1 20.6,10.1 C20.1,10.1 19.7,10.2 19.3,10.2 C16.1,10.2 14.1,9 12.7,4.7 C11.5,1 11.3,-0.1 10.4,-4.5"/>
<path class="Note" d="M705.752,851.839 C710.323,851.839 712.608,854.705 712.608,860.438 C712.608,864.467 710.09,870.471 705.055,878.451 C701.026,884.881 699.012,891.157 699.012,897.277 C699.012,900.763 704.086,902.507 714.235,902.507 C722.602,902.507 734.262,897.974 749.215,888.91 C734.185,903.398 721.13,910.641 710.052,910.641 C700.058,910.641 693.085,909.131 689.134,906.109 C688.127,905.334 687.274,904.405 686.577,903.32 C682.703,908.046 676.234,910.409 667.17,910.409 C658.493,910.409 651.83,908.627 647.182,905.063 C644.083,902.662 642.533,898.827 642.533,893.558 C642.533,885.191 647.491,876.049 657.408,866.133 C668.022,855.519 680.302,850.212 694.247,850.212 C697.733,850.212 700.29,851.49 701.917,854.047 C703.234,852.575 704.512,851.839 705.752,851.839 M684.95,898.091 C684.873,897.471 684.834,896.851 684.834,896.231 C684.834,895.921 688.785,885.114 696.687,863.808 C697.462,861.717 698.237,859.935 699.012,858.463 C695.99,857.843 693.007,857.533 690.063,857.533 C684.64,857.533 677.435,862.143 668.448,871.362 C660.391,879.574 656.362,886.663 656.362,892.629 C656.362,899.214 659.5,902.507 665.775,902.507 C673.368,902.507 679.759,901.035 684.95,898.091"/>
<path class="Note" d="M712.841,581.059 C723.3,574.474 730.892,569.09 735.618,564.906 C744.295,557.236 748.634,549.489 748.634,541.664 C748.634,532.522 742.513,527.951 730.272,527.951 C717.412,527.951 704.009,537.209 690.063,555.725 C680.612,568.276 673.91,580.13 669.959,591.286 C674.84,588.11 679.992,586.521 685.415,586.521 C690.528,586.521 694.596,588.807 697.617,593.378 C699.709,596.554 700.755,601.977 700.755,609.647 C700.755,616.542 697.114,624.638 689.831,633.935 C685.338,639.668 680.34,642.535 674.84,642.535 C667.867,642.535 662.986,641.14 660.197,638.351 C656.246,634.4 654.27,626.575 654.27,614.877 C654.27,595.198 662.212,575.83 678.094,556.771 C695.99,535.311 713.151,524.581 729.575,524.581 C742.281,524.581 751.771,527.564 758.047,533.529 C761.688,537.015 763.509,542.051 763.509,548.637 C763.509,555.997 756.265,564.209 741.777,573.273 C734.185,578.077 724.539,580.672 712.841,581.059 M668.448,596.167 C666.511,602.675 665.543,608.911 665.543,614.877 C665.543,629.055 667.79,636.143 672.283,636.143 C676.544,636.143 679.876,633.122 682.277,627.079 C685.066,620.261 686.461,612.707 686.461,604.418 C686.461,597.058 684.02,593.378 679.14,593.378 C675.731,593.378 672.167,594.307 668.448,596.167"/>
<path class="Note" d="M705.752,494.673 C710.323,494.673 712.608,497.54 712.608,503.273 C712.608,507.302 710.09,513.306 705.055,521.286 C701.026,527.716 699.012,533.991 699.012,540.112 C699.012,543.598 704.086,545.341 714.235,545.341 C722.602,545.341 734.262,540.809 749.215,531.745 C734.185,546.232 721.13,553.476 710.052,553.476 C700.058,553.476 693.085,551.965 689.134,548.944 C688.127,548.169 687.274,547.239 686.577,546.155 C682.703,550.881 676.234,553.244 667.17,553.244 C658.493,553.244 651.83,551.462 647.182,547.898 C644.083,545.496 642.533,541.661 642.533,536.393 C642.533,528.026 647.491,518.884 657.408,508.967 C668.022,498.353 680.302,493.046 694.247,493.046 C697.733,493.046 700.29,494.325 701.917,496.881 C703.234,495.409 704.512,494.673 705.752,494.673 M684.95,540.925 C684.873,540.305 684.834,539.686 684.834,539.066 C684.834,538.756 688.785,527.948 696.687,506.643 C697.462,504.551 698.237,502.769 699.012,501.297 C695.99,500.678 693.007,500.368 690.063,500.368 C684.64,500.368 677.435,504.977 668.448,514.197 C660.391,522.409 656.362,529.498 656.362,535.463 C656.362,542.049 659.5,545.341 665.775,545.341 C673.368,545.341 679.759,543.869 684.95,540.925"/>
<path class="Note" d="M594.663,677.207 C594.973,665.509 601.442,655.127 614.071,646.063 C625.304,638.005 637.584,633.977 650.909,633.977 C669.581,633.977 686.044,641.298 700.299,655.941 C709.364,665.315 713.896,676.936 713.896,690.804 C713.896,703.277 710.564,712.845 703.902,719.508 C695.767,727.72 687.167,731.826 678.103,731.826 C671.905,731.826 667.101,730.432 663.693,727.643 C658.114,723.072 655.325,716.951 655.325,709.281 C655.325,699.365 660.284,690.3 670.2,682.088 C678.335,675.348 686.509,670.932 694.721,668.84 C692.552,665.121 689.801,661.635 686.47,658.381 C676.088,648.232 664.312,643.157 651.142,643.157 C637.429,643.157 626.079,646.14 617.092,652.106 C607.795,658.226 600.319,666.593 594.663,677.207 M697.626,674.999 C693.365,678.95 689.104,683.173 684.843,687.666 C676.476,696.498 672.292,704.865 672.292,712.768 C672.292,721.212 674.229,725.435 678.103,725.435 C681.589,725.435 686.47,720.67 692.745,711.141 C697.781,703.548 700.299,696.576 700.299,690.223 C700.299,684.8 699.408,679.725 697.626,674.999"/>
<path class="Note" d="M998.08,945.081 C998.39,933.383 1004.86,923.001 1017.49,913.937 C1028.72,905.879 1041,901.851 1054.33,901.851 C1073,901.851 1089.46,909.172 1103.72,923.815 C1112.78,933.189 1117.31,944.81 1117.31,958.678 C1117.31,971.151 1113.98,980.719 1107.32,987.382 C1099.18,995.594 1090.58,999.7 1081.52,999.7 C1075.32,999.7 1070.52,998.306 1067.11,995.517 C1061.53,990.946 1058.74,984.825 1058.74,977.155 C1058.74,967.239 1063.7,958.174 1073.62,949.962 C1081.75,943.222 1089.93,938.806 1098.14,936.714 C1095.97,932.995 1093.22,929.509 1089.89,926.255 C1079.51,916.106 1067.73,911.031 1054.56,911.031 C1040.85,911.031 1029.5,914.014 1020.51,919.98 C1011.21,926.1 1003.74,934.467 998.08,945.081 M1101.04,942.873 C1096.78,946.824 1092.52,951.047 1088.26,955.54 C1079.89,964.372 1075.71,972.739 1075.71,980.642 C1075.71,989.086 1077.65,993.309 1081.52,993.309 C1085.01,993.309 1089.89,988.544 1096.16,979.015 C1101.2,971.422 1103.72,964.45 1103.72,958.097 C1103.72,952.674 1102.83,947.599 1101.04,942.873"/>
<path class="Note" d="M1109.17,583.965 C1113.74,583.965 1116.03,586.831 1116.03,592.564 C1116.03,596.593 1113.51,602.597 1108.47,610.577 C1104.44,617.007 1102.43,623.283 1102.43,629.403 C1102.43,632.889 1107.5,634.633 1117.65,634.633 C1126.02,634.633 1137.68,630.1 1152.63,621.036 C1137.6,635.524 1124.55,642.767 1113.47,642.767 C1103.47,642.767 1096.5,641.257 1092.55,638.235 C1091.54,637.46 1090.69,636.531 1089.99,635.446 C1086.12,640.172 1079.65,642.535 1070.59,642.535 C1061.91,642.535 1055.25,640.753 1050.6,637.189 C1047.5,634.788 1045.95,630.953 1045.95,625.684 C1045.95,617.317 1050.91,608.175 1060.83,598.259 C1071.44,587.645 1083.72,582.338 1097.66,582.338 C1101.15,582.338 1103.71,583.616 1105.33,586.173 C1106.65,584.701 1107.93,583.965 1109.17,583.965 M1088.37,630.217 C1088.29,629.597 1088.25,628.977 1088.25,628.357 C1088.25,628.047 1092.2,617.24 1100.1,595.934 C1100.88,593.843 1101.65,592.061 1102.43,590.589 C1099.41,589.969 1096.42,589.659 1093.48,589.659 C1088.06,589.659 1080.85,594.269 1071.87,603.488 C1063.81,611.7 1059.78,618.789 1059.78,624.755 C1059.78,631.34 1062.92,634.633 1069.19,634.633 C1076.78,634.633 1083.18,633.161 1088.37,630.217"/>
<path class="Note" d="M1109.17,494.673 C1113.74,494.673 1116.03,497.54 1116.03,503.273 C1116.03,507.302 1113.51,513.306 1108.47,521.286 C1104.44,527.716 1102.43,533.991 1102.43,540.112 C1102.43,543.598 1107.5,545.341 1117.65,545.341 C1126.02,545.341 1137.68,540.809 1152.63,531.745 C1137.6,546.232 1124.55,553.476 1113.47,553.476 C1103.47,553.476 1096.5,551.965 1092.55,548.944 C1091.54,548.169 1090.69,547.239 1089.99,546.155 C1086.12,550.881 1079.65,553.244 1070.59,553.244 C1061.91,553.244 1055.25,551.462 1050.6,547.898 C1047.5,545.496 1045.95,541.661 1045.95,536.393 C1045.95,528.026 1050.91,518.884 1060.83,508.967 C1071.44,498.353 1083.72,493.046 1097.66,493.046 C1101.15,493.046 1103.71,494.325 1105.33,496.881 C1106.65,495.409 1107.93,494.673 1109.17,494.673 M1088.37,540.925 C1088.29,540.305 1088.25,539.686 1088.25,539.066 C1088.25,538.756 1092.2,527.948 1100.1,506.643 C1100.88,504.551 1101.65,502.769 1102.43,501.297 C1099.41,500.678 1096.42,500.368 1093.48,500.368 C1088.06,500.368 1080.85,504.977 1071.87,514.197 C1063.81,522.409 1059.78,529.498 1059.78,535.463 C1059.78,542.049 1062.92,545.341 1069.19,545.341 C1076.78,545.341 1083.18,543.869 1088.37,540.925"/>
<path class="Note" d="M1124.04,650.479 C1128.38,647.535 1131.52,645.094 1133.46,643.157 C1137.02,639.361 1138.8,635.875 1138.8,632.698 C1138.8,629.057 1136.79,627.236 1132.76,627.236 C1124.93,627.236 1116.57,634.132 1107.66,647.922 C1104.95,652.106 1098.98,665.741 1089.76,688.828 C1097.12,696.421 1100.8,700.721 1100.8,701.728 C1100.8,703.122 1099.91,703.819 1098.13,703.819 C1096.73,703.819 1092.9,701.457 1086.62,696.731 C1079.81,712.613 1069.46,726.171 1055.6,737.404 C1041.42,748.871 1024.49,754.604 1004.81,754.604 C997.297,754.604 987.883,752.86 976.572,749.374 C967.508,746.585 962.976,742.13 962.976,736.01 C962.976,726.945 966.462,722.413 973.435,722.413 C977.618,722.413 979.71,724.35 979.71,728.224 C979.71,729.463 978.742,730.78 976.805,732.175 C975.798,732.872 975.294,734.228 975.294,736.242 C975.294,738.644 977.967,741.123 983.312,743.68 C989.123,746.469 997.645,747.863 1008.88,747.863 C1023.37,747.863 1037.35,741.588 1050.83,729.037 C1063.07,717.649 1071.87,704.401 1077.21,689.293 C1075.12,687.589 1072.87,685.729 1070.47,683.715 C1063.03,679.299 1059.31,674.767 1059.31,670.118 C1059.31,668.181 1060.59,667.213 1063.15,667.213 C1066.56,667.213 1071.17,670.118 1076.98,675.929 C1078.22,677.168 1079.38,678.331 1080.46,679.415 C1083.18,671.978 1087.51,662.526 1093.48,651.06 C1104.25,630.297 1117.34,619.915 1132.76,619.915 C1138.26,619.915 1142.6,620.961 1145.78,623.053 C1148.95,625.145 1150.54,628.011 1150.54,631.652 C1150.54,637.463 1148.41,642.383 1144.15,646.411 C1139.73,650.595 1135.12,652.687 1130.32,652.687 C1126.14,652.687 1124.04,651.951 1124.04,650.479"/>
<path class="Note" d="M1539.46,938.225 C1549.92,931.639 1557.51,926.255 1562.24,922.071 C1570.91,914.401 1575.25,906.654 1575.25,898.829 C1575.25,889.687 1569.13,885.116 1556.89,885.116 C1544.03,885.116 1530.63,894.374 1516.68,912.891 C1507.23,925.442 1500.53,937.295 1496.58,948.451 C1501.46,945.275 1506.61,943.687 1512.03,943.687 C1517.15,943.687 1521.21,945.972 1524.23,950.543 C1526.33,953.72 1527.37,959.143 1527.37,966.813 C1527.37,973.708 1523.73,981.804 1516.45,991.101 C1511.96,996.834 1506.96,999.7 1501.46,999.7 C1494.48,999.7 1489.6,998.306 1486.81,995.517 C1482.86,991.566 1480.89,983.741 1480.89,972.042 C1480.89,952.364 1488.83,932.995 1504.71,913.937 C1522.61,892.476 1539.77,881.746 1556.19,881.746 C1568.9,881.746 1578.39,884.729 1584.66,890.694 C1588.31,894.181 1590.13,899.217 1590.13,905.802 C1590.13,913.162 1582.88,921.374 1568.39,930.439 C1560.8,935.242 1551.16,937.837 1539.46,938.225 M1495.07,953.332 C1493.13,959.84 1492.16,966.077 1492.16,972.042 C1492.16,986.22 1494.41,993.309 1498.9,993.309 C1503.16,993.309 1506.49,990.287 1508.89,984.244 C1511.68,977.427 1513.08,969.873 1513.08,961.583 C1513.08,954.223 1510.64,950.543 1505.76,950.543 C1502.35,950.543 1498.78,951.473 1495.07,953.332"/>
<path class="Note" d="M1532.37,583.965 C1536.94,583.965 1539.23,586.831 1539.23,592.564 C1539.23,596.593 1536.71,602.597 1531.67,610.577 C1527.64,617.007 1525.63,623.283 1525.63,629.403 C1525.63,632.889 1530.7,634.633 1540.85,634.633 C1549.22,634.633 1560.88,630.1 1575.83,621.036 C1560.8,635.524 1547.75,642.767 1536.67,642.767 C1526.68,642.767 1519.7,641.257 1515.75,638.235 C1514.74,637.46 1513.89,636.531 1513.19,635.446 C1509.32,640.172 1502.85,642.535 1493.79,642.535 C1485.11,642.535 1478.45,640.753 1473.8,637.189 C1470.7,634.788 1469.15,630.953 1469.15,625.684 C1469.15,617.317 1474.11,608.175 1484.03,598.259 C1494.64,587.645 1506.92,582.338 1520.86,582.338 C1524.35,582.338 1526.91,583.616 1528.53,586.173 C1529.85,584.701 1531.13,583.965 1532.37,583.965 M1511.57,630.217 C1511.49,629.597 1511.45,628.977 1511.45,628.357 C1511.45,628.047 1515.4,617.24 1523.31,595.934 C1524.08,593.843 1524.85,592.061 1525.63,590.589 C1522.61,589.969 1519.63,589.659 1516.68,589.659 C1511.26,589.659 1504.05,594.269 1495.07,603.488 C1487.01,611.7 1482.98,618.789 1482.98,624.755 C1482.98,631.34 1486.12,634.633 1492.39,634.633 C1499.99,634.633 1506.38,633.161 1511.57,630.217"/>
<path class="Note" d="M1532.37,762.547 C1536.94,762.547 1539.23,765.414 1539.23,771.147 C1539.23,775.176 1536.71,781.18 1531.67,789.16 C1527.64,795.59 1525.63,801.865 1525.63,807.986 C1525.63,811.472 1530.7,813.215 1540.85,813.215 C1549.22,813.215 1560.88,808.683 1575.83,799.619 C1560.8,814.106 1547.75,821.35 1536.67,821.35 C1526.68,821.35 1519.7,819.839 1515.75,816.818 C1514.74,816.043 1513.89,815.113 1513.19,814.029 C1509.32,818.755 1502.85,821.118 1493.79,821.118 C1485.11,821.118 1478.45,819.336 1473.8,815.772 C1470.7,813.37 1469.15,809.535 1469.15,804.267 C1469.15,795.9 1474.11,786.758 1484.03,776.841 C1494.64,766.227 1506.92,760.92 1520.86,760.92 C1524.35,760.92 1526.91,762.199 1528.53,764.755 C1529.85,763.283 1531.13,762.547 1532.37,762.547 M1511.57,808.799 C1511.49,808.179 1511.45,807.56 1511.45,806.94 C1511.45,806.63 1515.4,795.822 1523.31,774.517 C1524.08,772.425 1524.85,770.643 1525.63,769.171 C1522.61,768.552 1519.63,768.242 1516.68,768.242 C1511.26,768.242 1504.05,772.851 1495.07,782.071 C1487.01,790.283 1482.98,797.372 1482.98,803.337 C1482.98,809.923 1486.12,813.215 1492.39,813.215 C1499.99,813.215 1506.38,811.743 1511.57,808.799"/>
<path class="Note" d="M1421.28,677.207 C1421.59,665.509 1428.06,655.127 1440.69,646.063 C1451.92,638.005 1464.2,633.977 1477.53,633.977 C1496.2,633.977 1512.66,641.298 1526.92,655.941 C1535.98,665.315 1540.51,676.936 1540.51,690.804 C1540.51,703.277 1537.18,712.845 1530.52,719.508 C1522.38,727.72 1513.78,731.826 1504.72,731.826 C1498.52,731.826 1493.72,730.432 1490.31,727.643 C1484.73,723.072 1481.94,716.951 1481.94,709.281 C1481.94,699.365 1486.9,690.3 1496.82,682.088 C1504.95,675.348 1513.13,670.932 1521.34,668.84 C1519.17,665.121 1516.42,661.635 1513.09,658.381 C1502.71,648.232 1490.93,643.157 1477.76,643.157 C1464.05,643.157 1452.7,646.14 1443.71,652.106 C1434.41,658.226 1426.94,666.593 1421.28,677.207 M1524.24,674.999 C1519.98,678.95 1515.72,683.173 1511.46,687.666 C1503.09,696.498 1498.91,704.865 1498.91,712.768 C1498.91,721.212 1500.85,725.435 1504.72,725.435 C1508.21,725.435 1513.09,720.67 1519.36,711.141 C1524.4,703.548 1526.92,696.576 1526.92,690.223 C1526.92,684.8 1526.03,679.725 1524.24,674.999"/>
<path class="Note" d="M1997.23,941.13 C2001.8,941.13 2004.09,943.997 2004.09,949.73 C2004.09,953.758 2001.57,959.763 1996.53,967.742 C1992.5,974.173 1990.49,980.448 1990.49,986.568 C1990.49,990.055 1995.56,991.798 2005.71,991.798 C2014.08,991.798 2025.74,987.266 2040.69,978.201 C2025.66,992.689 2012.61,999.933 2001.53,999.933 C1991.54,999.933 1984.56,998.422 1980.61,995.401 C1979.6,994.626 1978.75,993.696 1978.06,992.611 C1974.18,997.337 1967.71,999.7 1958.65,999.7 C1949.97,999.7 1943.31,997.918 1938.66,994.355 C1935.56,991.953 1934.01,988.118 1934.01,982.85 C1934.01,974.483 1938.97,965.341 1948.89,955.424 C1959.5,944.81 1971.78,939.503 1985.73,939.503 C1989.21,939.503 1991.77,940.781 1993.4,943.338 C1994.71,941.866 1995.99,941.13 1997.23,941.13 M1976.43,987.382 C1976.35,986.762 1976.31,986.142 1976.31,985.523 C1976.31,985.213 1980.26,974.405 1988.17,953.1 C1988.94,951.008 1989.72,949.226 1990.49,947.754 C1987.47,947.134 1984.49,946.824 1981.54,946.824 C1976.12,946.824 1968.91,951.434 1959.93,960.653 C1951.87,968.866 1947.84,975.955 1947.84,981.92 C1947.84,988.505 1950.98,991.798 1957.25,991.798 C1964.85,991.798 1971.24,990.326 1976.43,987.382"/>
<path class="Note" d="M1997.23,583.965 C2001.8,583.965 2004.09,586.831 2004.09,592.564 C2004.09,596.593 2001.57,602.597 1996.53,610.577 C1992.5,617.007 1990.49,623.283 1990.49,629.403 C1990.49,632.889 1995.56,634.633 2005.71,634.633 C2014.08,634.633 2025.74,630.1 2040.69,621.036 C2025.66,635.524 2012.61,642.767 2001.53,642.767 C1991.54,642.767 1984.56,641.257 1980.61,638.235 C1979.6,637.46 1978.75,636.531 1978.06,635.446 C1974.18,640.172 1967.71,642.535 1958.65,642.535 C1949.97,642.535 1943.31,640.753 1938.66,637.189 C1935.56,634.788 1934.01,630.953 1934.01,625.684 C1934.01,617.317 1938.97,608.175 1948.89,598.259 C1959.5,587.645 1971.78,582.338 1985.73,582.338 C1989.21,582.338 1991.77,583.616 1993.4,586.173 C1994.71,584.701 1995.99,583.965 1997.23,583.965 M1976.43,630.217 C1976.35,629.597 1976.31,628.977 1976.31,628.357 C1976.31,628.047 1980.26,617.24 1988.17,595.934 C1988.94,593.843 1989.72,592.061 1990.49,590.589 C1987.47,589.969 1984.49,589.659 1981.54,589.659 C1976.12,589.659 1968.91,594.269 1959.93,603.488 C1951.87,611.7 1947.84,618.789 1947.84,624.755 C1947.84,631.34 1950.98,634.633 1957.25,634.633 C1964.85,634.633 1971.24,633.161 1976.43,630.217"/>
<path class="Note" d="M1997.23,494.673 C2001.8,494.673 2004.09,497.54 2004.09,503.273 C2004.09,507.302 2001.57,513.306 1996.53,521.286 C1992.5,527.716 1990.49,533.991 1990.49,540.112 C1990.49,543.598 1995.56,545.341 2005.71,545.341 C2014.08,545.341 2025.74,540.809 2040.69,531.745 C2025.66,546.232 2012.61,553.476 2001.53,553.476 C1991.54,553.476 1984.56,551.965 1980.61,548.944 C1979.6,548.169 1978.75,547.239 1978.06,546.155 C1974.18,550.881 1967.71,553.244 1958.65,553.244 C1949.97,553.244 1943.31,551.462 1938.66,547.898 C1935.56,545.496 1934.01,541.661 1934.01,536.393 C1934.01,528.026 1938.97,518.884 1948.89,508.967 C1959.5,498.353 1971.78,493.046 1985.73,493.046 C1989.21,493.046 1991.77,494.325 1993.4,496.881 C1994.71,495.409 1995.99,494.673 1997.23,494.673 M1976.43,540.925 C1976.35,540.305 1976.31,539.686 1976.31,539.066 C1976.31,538.756 1980.26,527.948 1988.17,506.643 C1988.94,504.551 1989.72,502.769 1990.49,501.297 C1987.47,500.678 1984.49,500.368 1981.54,500.368 C1976.12,500.368 1968.91,504.977 1959.93,514.197 C1951.87,522.409 1947.84,529.498 1947.84,535.463 C1947.84,542.049 1950.98,545.341 1957.25,545.341 C1964.85,545.341 1971.24,543.869 1976.43,540.925"/>
<path class="Note" d="M1952.95,731.826 C1949.16,731.826 1947.26,727.759 1947.26,719.624 L1947.26,685.574 C1947.26,682.32 1948.85,680.693 1952.02,680.693 C1953.42,680.693 1954.46,680.81 1955.16,681.042 C1957.64,676.704 1961.71,673.062 1967.36,670.118 C1975.27,666.012 1983.28,663.959 1991.42,663.959 C1997.85,663.959 2001.07,666.361 2001.07,671.164 C2001.07,675.193 1998.9,677.207 1994.56,677.207 C1991.46,677.207 1988.51,676.51 1985.73,675.115 C1983.25,673.876 1980.61,673.256 1977.82,673.256 C1973.02,673.256 1965.93,676.394 1956.56,682.669 C1957.87,688.944 1958.53,696.266 1958.53,704.633 C1958.53,722.762 1956.67,731.826 1952.95,731.826"/>
<path class="Note" d="M2435.19,1059.89 C2439.76,1059.89 2442.04,1062.75 2442.04,1068.49 C2442.04,1072.52 2439.52,1078.52 2434.49,1086.5 C2430.46,1092.93 2428.45,1099.21 2428.45,1105.33 C2428.45,1108.81 2433.52,1110.56 2443.67,1110.56 C2452.04,1110.56 2463.7,1106.02 2478.65,1096.96 C2463.62,1111.45 2450.56,1118.69 2439.49,1118.69 C2429.49,1118.69 2422.52,1117.18 2418.57,1114.16 C2417.56,1113.38 2416.71,1112.45 2416.01,1111.37 C2412.14,1116.09 2405.67,1118.46 2396.6,1118.46 C2387.93,1118.46 2381.26,1116.68 2376.62,1113.11 C2373.52,1110.71 2371.97,1106.88 2371.97,1101.61 C2371.97,1093.24 2376.93,1084.1 2386.84,1074.18 C2397.46,1063.57 2409.74,1058.26 2423.68,1058.26 C2427.17,1058.26 2429.72,1059.54 2431.35,1062.1 C2432.67,1060.62 2433.95,1059.89 2435.19,1059.89 M2414.38,1106.14 C2414.31,1105.52 2414.27,1104.9 2414.27,1104.28 C2414.27,1103.97 2418.22,1093.16 2426.12,1071.86 C2426.9,1069.77 2427.67,1067.98 2428.45,1066.51 C2425.42,1065.89 2422.44,1065.58 2419.5,1065.58 C2414.07,1065.58 2406.87,1070.19 2397.88,1079.41 C2389.83,1087.62 2385.8,1094.71 2385.8,1100.68 C2385.8,1107.26 2388.93,1110.56 2395.21,1110.56 C2402.8,1110.56 2409.19,1109.08 2414.38,1106.14"/>
<path class="Note" d="M2435.19,583.965 C2439.76,583.965 2442.04,586.831 2442.04,592.564 C2442.04,596.593 2439.52,602.597 2434.49,610.577 C2430.46,617.007 2428.45,623.283 2428.45,629.403 C2428.45,632.889 2433.52,634.633 2443.67,634.633 C2452.04,634.633 2463.7,630.1 2478.65,621.036 C2463.62,635.524 2450.56,642.767 2439.49,642.767 C2429.49,642.767 2422.52,641.257 2418.57,638.235 C2417.56,637.46 2416.71,636.531 2416.01,635.446 C2412.14,640.172 2405.67,642.535 2396.6,642.535 C2387.93,642.535 2381.26,640.753 2376.62,637.189 C2373.52,634.788 2371.97,630.953 2371.97,625.684 C2371.97,617.317 2376.93,608.175 2386.84,598.259 C2397.46,587.645 2409.74,582.338 2423.68,582.338 C2427.17,582.338 2429.72,583.616 2431.35,586.173 C2432.67,584.701 2433.95,583.965 2435.19,583.965 M2414.38,630.217 C2414.31,629.597 2414.27,628.977 2414.27,628.357 C2414.27,628.047 2418.22,617.24 2426.12,595.934 C2426.9,593.843 2427.67,592.061 2428.45,590.589 C2425.42,589.969 2422.44,589.659 2419.5,589.659 C2414.07,589.659 2406.87,594.269 2397.88,603.488 C2389.83,611.7 2385.8,618.789 2385.8,624.755 C2385.8,631.34 2388.93,634.633 2395.21,634.633 C2402.8,634.633 2409.19,633.161 2414.38,630.217"/>
<path class="Note" d="M2435.19,494.673 C2439.76,494.673 2442.04,497.54 2442.04,503.273 C2442.04,507.302 2439.52,513.306 2434.49,521.286 C2430.46,527.716 2428.45,533.991 2428.45,540.112 C2428.45,543.598 2433.52,545.341 2443.67,545.341 C2452.04,545.341 2463.7,540.809 2478.65,531.745 C2463.62,546.232 2450.56,553.476 2439.49,553.476 C2429.49,553.476 2422.52,551.965 2418.57,548.944 C2417.56,548.169 2416.71,547.239 2416.01,546.155 C2412.14,550.881 2405.67,553.244 2396.6,553.244 C2387.93,553.244 2381.26,551.462 2376.62,547.898 C2373.52,545.496 2371.97,541.661 2371.97,536.393 C2371.97,528.026 2376.93,518.884 2386.84,508.967 C2397.46,498.353 2409.74,493.046 2423.68,493.046 C2427.17,493.046 2429.72,494.325 2431.35,496.881 C2432.67,495.409 2433.95,494.673 2435.19,494.673 M2414.38,540.925 C2414.31,540.305 2414.27,539.686 2414.27,539.066 C2414.27,538.756 2418.22,527.948 2426.12,506.643 C2426.9,504.551 2427.67,502.769 2428.45,501.297 C2425.42,500.678 2422.44,500.368 2419.5,500.368 C2414.07,500.368 2406.87,504.977 2397.88,514.197 C2389.83,522.409 2385.8,529.498 2385.8,535.463 C2385.8,542.049 2388.93,545.341 2395.21,545.341 C2402.8,545.341 2409.19,543.869 2414.38,540.925"/>
<path class="Note" d="M2390.91,731.826 C2387.11,731.826 2385.22,727.759 2385.22,719.624 L2385.22,685.574 C2385.22,682.32 2386.8,680.693 2389.98,680.693 C2391.37,680.693 2392.42,680.81 2393.12,681.042 C2395.6,676.704 2399.66,673.062 2405.32,670.118 C2413.22,666.012 2421.24,663.959 2429.38,663.959 C2435.81,663.959 2439.02,666.361 2439.02,671.164 C2439.02,675.193 2436.85,677.207 2432.51,677.207 C2429.41,677.207 2426.47,676.51 2423.68,675.115 C2421.2,673.876 2418.57,673.256 2415.78,673.256 C2410.98,673.256 2403.89,676.394 2394.51,682.669 C2395.83,688.944 2396.49,696.266 2396.49,704.633 C2396.49,722.762 2394.63,731.826 2390.91,731.826"/>
<path class="Note" d="M2759.52,1105.33 C2759.13,1106.02 2758.55,1106.37 2757.78,1106.37 C2757.08,1106.37 2756.19,1106.06 2755.1,1105.44 C2753.48,1104.51 2752.66,1103.58 2752.66,1102.65 C2752.66,1102.34 2752.78,1101.96 2753.01,1101.49 C2770.75,1075.92 2781.83,1054.39 2786.25,1036.88 C2786.56,1036.34 2787.1,1036.06 2787.87,1036.06 C2788.88,1036.06 2790.32,1036.61 2792.17,1037.69 C2794.73,1039.16 2796.01,1040.48 2796.01,1041.64 C2796.01,1041.95 2795.93,1042.22 2795.78,1042.46 C2789.89,1059.19 2777.8,1080.15 2759.52,1105.33 M2843.07,1059.89 C2847.64,1059.89 2849.92,1062.75 2849.92,1068.49 C2849.92,1072.52 2847.41,1078.52 2842.37,1086.5 C2838.34,1092.93 2836.33,1099.21 2836.33,1105.33 C2836.33,1108.81 2841.4,1110.56 2851.55,1110.56 C2859.92,1110.56 2871.58,1106.02 2886.53,1096.96 C2871.5,1111.45 2858.45,1118.69 2847.37,1118.69 C2837.37,1118.69 2830.4,1117.18 2826.45,1114.16 C2825.44,1113.38 2824.59,1112.45 2823.89,1111.37 C2820.02,1116.09 2813.55,1118.46 2804.49,1118.46 C2795.81,1118.46 2789.15,1116.68 2784.5,1113.11 C2781.4,1110.71 2779.85,1106.88 2779.85,1101.61 C2779.85,1093.24 2784.81,1084.1 2794.72,1074.18 C2805.34,1063.57 2817.62,1058.26 2831.56,1058.26 C2835.05,1058.26 2837.61,1059.54 2839.23,1062.1 C2840.55,1060.62 2841.83,1059.89 2843.07,1059.89 M2822.27,1106.14 C2822.19,1105.52 2822.15,1104.9 2822.15,1104.28 C2822.15,1103.97 2826.1,1093.16 2834,1071.86 C2834.78,1069.77 2835.55,1067.98 2836.33,1066.51 C2833.31,1065.89 2830.32,1065.58 2827.38,1065.58 C2821.96,1065.58 2814.75,1070.19 2805.76,1079.41 C2797.71,1087.62 2793.68,1094.71 2793.68,1100.68 C2793.68,1107.26 2796.82,1110.56 2803.09,1110.56 C2810.68,1110.56 2817.08,1109.08 2822.27,1106.14"/>
<path class="Note" d="M2838.95,581.059 C2849.41,574.474 2857,569.09 2861.73,564.906 C2870.41,557.236 2874.75,549.489 2874.75,541.664 C2874.75,532.522 2868.62,527.951 2856.38,527.951 C2843.52,527.951 2830.12,537.209 2816.18,555.725 C2806.72,568.276 2800.02,580.13 2796.07,591.286 C2800.95,588.11 2806.1,586.521 2811.53,586.521 C2816.64,586.521 2820.71,588.807 2823.73,593.378 C2825.82,596.554 2826.87,601.977 2826.87,609.647 C2826.87,616.542 2823.23,624.638 2815.94,633.935 C2811.45,639.668 2806.45,642.535 2800.95,642.535 C2793.98,642.535 2789.1,641.14 2786.31,638.351 C2782.36,634.4 2780.38,626.575 2780.38,614.877 C2780.38,595.198 2788.32,575.83 2804.21,556.771 C2822.1,535.311 2839.26,524.581 2855.69,524.581 C2868.39,524.581 2877.88,527.564 2884.16,533.529 C2887.8,537.015 2889.62,542.051 2889.62,548.637 C2889.62,555.997 2882.38,564.209 2867.89,573.273 C2860.3,578.077 2850.65,580.672 2838.95,581.059 M2794.56,596.167 C2792.62,602.675 2791.65,608.911 2791.65,614.877 C2791.65,629.055 2793.9,636.143 2798.39,636.143 C2802.66,636.143 2805.99,633.122 2808.39,627.079 C2811.18,620.261 2812.57,612.707 2812.57,604.418 C2812.57,597.058 2810.13,593.378 2805.25,593.378 C2801.84,593.378 2798.28,594.307 2794.56,596.167"/>
<path class="Note" d="M2831.86,494.673 C2836.43,494.673 2838.72,497.54 2838.72,503.273 C2838.72,507.302 2836.2,513.306 2831.17,521.286 C2827.14,527.716 2825.12,533.991 2825.12,540.112 C2825.12,543.598 2830.2,545.341 2840.35,545.341 C2848.71,545.341 2860.37,540.809 2875.33,531.745 C2860.3,546.232 2847.24,553.476 2836.16,553.476 C2826.17,553.476 2819.2,551.965 2815.25,548.944 C2814.24,548.169 2813.39,547.239 2812.69,546.155 C2808.82,550.881 2802.35,553.244 2793.28,553.244 C2784.6,553.244 2777.94,551.462 2773.29,547.898 C2770.19,545.496 2768.64,541.661 2768.64,536.393 C2768.64,528.026 2773.6,518.884 2783.52,508.967 C2794.13,498.353 2806.41,493.046 2820.36,493.046 C2823.85,493.046 2826.4,494.325 2828.03,496.881 C2829.35,495.409 2830.62,494.673 2831.86,494.673 M2811.06,540.925 C2810.98,540.305 2810.95,539.686 2810.95,539.066 C2810.95,538.756 2814.9,527.948 2822.8,506.643 C2823.57,504.551 2824.35,502.769 2825.12,501.297 C2822.1,500.678 2819.12,500.368 2816.18,500.368 C2810.75,500.368 2803.55,504.977 2794.56,514.197 C2786.5,522.409 2782.47,529.498 2782.47,535.463 C2782.47,542.049 2785.61,545.341 2791.89,545.341 C2799.48,545.341 2805.87,543.869 2811.06,540.925"/>
<path class="Note" d="M2720.77,677.207 C2721.08,665.509 2727.55,655.127 2740.18,646.063 C2751.42,638.005 2763.7,633.977 2777.02,633.977 C2795.69,633.977 2812.16,641.298 2826.41,655.941 C2835.48,665.315 2840.01,676.936 2840.01,690.804 C2840.01,703.277 2836.68,712.845 2830.01,719.508 C2821.88,727.72 2813.28,731.826 2804.21,731.826 C2798.02,731.826 2793.21,730.432 2789.8,727.643 C2784.23,723.072 2781.44,716.951 2781.44,709.281 C2781.44,699.365 2786.4,690.3 2796.31,682.088 C2804.45,675.348 2812.62,670.932 2820.83,668.84 C2818.66,665.121 2815.91,661.635 2812.58,658.381 C2802.2,648.232 2790.42,643.157 2777.25,643.157 C2763.54,643.157 2752.19,646.14 2743.2,652.106 C2733.91,658.226 2726.43,666.593 2720.77,677.207 M2823.74,674.999 C2819.48,678.95 2815.22,683.173 2810.95,687.666 C2802.59,696.498 2798.4,704.865 2798.4,712.768 C2798.4,721.212 2800.34,725.435 2804.21,725.435 C2807.7,725.435 2812.58,720.67 2818.86,711.141 C2823.89,703.548 2826.41,696.576 2826.41,690.223 C2826.41,684.8 2825.52,679.725 2823.74,674.999"/>
<path class="Note" d="M3213.67,1098.35 C3213.29,1099.05 3212.71,1099.4 3211.93,1099.4 C3211.23,1099.4 3210.34,1099.09 3209.26,1098.47 C3207.63,1097.54 3206.82,1096.61 3206.82,1095.68 C3206.82,1095.37 3206.93,1094.98 3207.17,1094.52 C3224.91,1068.95 3235.99,1047.41 3240.4,1029.91 C3240.71,1029.36 3241.26,1029.09 3242.03,1029.09 C3243.04,1029.09 3244.47,1029.63 3246.33,1030.72 C3248.89,1032.19 3250.16,1033.51 3250.16,1034.67 C3250.16,1034.98 3250.09,1035.25 3249.93,1035.48 C3244.04,1052.22 3231.96,1073.17 3213.67,1098.35 M3234.59,1105.33 C3234.2,1106.02 3233.62,1106.37 3232.85,1106.37 C3232.15,1106.37 3231.26,1106.06 3230.18,1105.44 C3228.55,1104.51 3227.74,1103.58 3227.74,1102.65 C3227.74,1102.34 3227.85,1101.96 3228.08,1101.49 C3245.83,1075.92 3256.9,1054.39 3261.32,1036.88 C3261.63,1036.34 3262.17,1036.06 3262.95,1036.06 C3263.95,1036.06 3265.39,1036.61 3267.25,1037.69 C3269.8,1039.16 3271.08,1040.48 3271.08,1041.64 C3271.08,1041.95 3271.01,1042.22 3270.85,1042.46 C3264.96,1059.19 3252.88,1080.15 3234.59,1105.33 M3318.15,1059.89 C3322.72,1059.89 3325,1062.75 3325,1068.49 C3325,1072.52 3322.48,1078.52 3317.45,1086.5 C3313.42,1092.93 3311.4,1099.21 3311.4,1105.33 C3311.4,1108.81 3316.48,1110.56 3326.63,1110.56 C3335,1110.56 3346.66,1106.02 3361.61,1096.96 C3346.58,1111.45 3333.52,1118.69 3322.44,1118.69 C3312.45,1118.69 3305.48,1117.18 3301.53,1114.16 C3300.52,1113.38 3299.67,1112.45 3298.97,1111.37 C3295.1,1116.09 3288.63,1118.46 3279.56,1118.46 C3270.89,1118.46 3264.22,1116.68 3259.57,1113.11 C3256.48,1110.71 3254.93,1106.88 3254.93,1101.61 C3254.93,1093.24 3259.88,1084.1 3269.8,1074.18 C3280.42,1063.57 3292.69,1058.26 3306.64,1058.26 C3310.13,1058.26 3312.68,1059.54 3314.31,1062.1 C3315.63,1060.62 3316.91,1059.89 3318.15,1059.89 M3297.34,1106.14 C3297.27,1105.52 3297.23,1104.9 3297.23,1104.28 C3297.23,1103.97 3301.18,1093.16 3309.08,1071.86 C3309.86,1069.77 3310.63,1067.98 3311.4,1066.51 C3308.38,1065.89 3305.4,1065.58 3302.46,1065.58 C3297.03,1065.58 3289.83,1070.19 3280.84,1079.41 C3272.78,1087.62 3268.76,1094.71 3268.76,1100.68 C3268.76,1107.26 3271.89,1110.56 3278.17,1110.56 C3285.76,1110.56 3292.15,1109.08 3297.34,1106.14"/>
<path class="Note" d="M3296.47,762.547 C3301.04,762.547 3303.33,765.414 3303.33,771.147 C3303.33,775.176 3300.81,781.18 3295.78,789.16 C3291.75,795.59 3289.73,801.865 3289.73,807.986 C3289.73,811.472 3294.81,813.215 3304.96,813.215 C3313.32,813.215 3324.98,808.683 3339.94,799.619 C3324.91,814.106 3311.85,821.35 3300.77,821.35 C3290.78,821.35 3283.81,819.839 3279.85,816.818 C3278.85,816.043 3278,815.113 3277.3,814.029 C3273.42,818.755 3266.96,821.118 3257.89,821.118 C3249.21,821.118 3242.55,819.336 3237.9,815.772 C3234.8,813.37 3233.25,809.535 3233.25,804.267 C3233.25,795.9 3238.21,786.758 3248.13,776.841 C3258.74,766.227 3271.02,760.92 3284.97,760.92 C3288.45,760.92 3291.01,762.199 3292.64,764.755 C3293.96,763.283 3295.23,762.547 3296.47,762.547 M3275.67,808.799 C3275.59,808.179 3275.56,807.56 3275.56,806.94 C3275.56,806.63 3279.51,795.822 3287.41,774.517 C3288.18,772.425 3288.96,770.643 3289.73,769.171 C3286.71,768.552 3283.73,768.242 3280.78,768.242 C3275.36,768.242 3268.16,772.851 3259.17,782.071 C3251.11,790.283 3247.08,797.372 3247.08,803.337 C3247.08,809.923 3250.22,813.215 3256.5,813.215 C3264.09,813.215 3270.48,811.743 3275.67,808.799"/>
<path class="Note" d="M3296.47,494.673 C3301.04,494.673 3303.33,497.54 3303.33,503.273 C3303.33,507.302 3300.81,513.306 3295.78,521.286 C3291.75,527.716 3289.73,533.991 3289.73,540.112 C3289.73,543.598 3294.81,545.341 3304.96,545.341 C3313.32,545.341 3324.98,540.809 3339.94,531.745 C3324.91,546.232 3311.85,553.476 3300.77,553.476 C3290.78,553.476 3283.81,551.965 3279.85,548.944 C3278.85,548.169 3278,547.239 3277.3,546.155 C3273.42,550.881 3266.96,553.244 3257.89,553.244 C3249.21,553.244 3242.55,551.462 3237.9,547.898 C3234.8,545.496 3233.25,541.661 3233.25,536.393 C3233.25,528.026 3238.21,518.884 3248.13,508.967 C3258.74,498.353 3271.02,493.046 3284.97,493.046 C3288.45,493.046 3291.01,494.325 3292.64,496.881 C3293.96,495.409 3295.23,494.673 3296.47,494.673 M3275.67,540.925 C3275.59,540.305 3275.56,539.686 3275.56,539.066 C3275.56,538.756 3279.51,527.948 3287.41,506.643 C3288.18,504.551 3288.96,502.769 3289.73,501.297 C3286.71,500.678 3283.73,500.368 3280.78,500.368 C3275.36,500.368 3268.16,504.977 3259.17,514.197 C3251.11,522.409 3247.08,529.498 3247.08,535.463 C3247.08,542.049 3250.22,545.341 3256.5,545.341 C3264.09,545.341 3270.48,543.869 3275.67,540.925"/>
<path class="Note" d="M3252.2,731.826 C3248.4,731.826 3246.5,727.759 3246.5,719.624 L3246.5,685.574 C3246.5,682.32 3248.09,680.693 3251.27,680.693 C3252.66,680.693 3253.71,680.81 3254.4,681.042 C3256.88,676.704 3260.95,673.062 3266.61,670.118 C3274.51,666.012 3282.53,663.959 3290.66,663.959 C3297.09,663.959 3300.31,666.361 3300.31,671.164 C3300.31,675.193 3298.14,677.207 3293.8,677.207 C3290.7,677.207 3287.76,676.51 3284.97,675.115 C3282.49,673.876 3279.85,673.256 3277.07,673.256 C3272.26,673.256 3265.17,676.394 3255.8,682.669 C3257.12,688.944 3257.77,696.266 3257.77,704.633 C3257.77,722.762 3255.92,731.826 3252.2,731.826"/>
<path class="Note" d="M3719.52,1091.38 C3719.13,1092.08 3718.55,1092.43 3717.77,1092.43 C3717.08,1092.43 3716.19,1092.12 3715.1,1091.5 C3713.47,1090.57 3712.66,1089.64 3712.66,1088.71 C3712.66,1088.4 3712.78,1088.01 3713.01,1087.55 C3730.75,1061.98 3741.83,1040.44 3746.25,1022.93 C3746.56,1022.39 3747.1,1022.12 3747.87,1022.12 C3748.88,1022.12 3750.31,1022.66 3752.17,1023.75 C3754.73,1025.22 3756.01,1026.53 3756.01,1027.7 C3756.01,1028.01 3755.93,1028.28 3755.78,1028.51 C3749.89,1045.24 3737.8,1066.2 3719.52,1091.38 M3740.44,1098.35 C3740.05,1099.05 3739.47,1099.4 3738.69,1099.4 C3738,1099.4 3737.1,1099.09 3736.02,1098.47 C3734.39,1097.54 3733.58,1096.61 3733.58,1095.68 C3733.58,1095.37 3733.7,1094.98 3733.93,1094.52 C3751.67,1068.95 3762.75,1047.41 3767.16,1029.91 C3767.47,1029.36 3768.02,1029.09 3768.79,1029.09 C3769.8,1029.09 3771.23,1029.63 3773.09,1030.72 C3775.65,1032.19 3776.93,1033.51 3776.93,1034.67 C3776.93,1034.98 3776.85,1035.25 3776.69,1035.48 C3770.81,1052.22 3758.72,1073.17 3740.44,1098.35 M3761.35,1105.33 C3760.97,1106.02 3760.39,1106.37 3759.61,1106.37 C3758.91,1106.37 3758.02,1106.06 3756.94,1105.44 C3755.31,1104.51 3754.5,1103.58 3754.5,1102.65 C3754.5,1102.34 3754.61,1101.96 3754.85,1101.49 C3772.59,1075.92 3783.67,1054.39 3788.08,1036.88 C3788.39,1036.34 3788.93,1036.06 3789.71,1036.06 C3790.72,1036.06 3792.15,1036.61 3794.01,1037.69 C3796.57,1039.16 3797.84,1040.48 3797.84,1041.64 C3797.84,1041.95 3797.77,1042.22 3797.61,1042.46 C3791.72,1059.19 3779.64,1080.15 3761.35,1105.33 M3844.89,1059.89 C3849.47,1059.89 3851.75,1062.75 3851.75,1068.49 C3851.75,1072.52 3849.23,1078.52 3844.2,1086.5 C3840.17,1092.93 3838.15,1099.21 3838.15,1105.33 C3838.15,1108.81 3843.23,1110.56 3853.38,1110.56 C3861.75,1110.56 3873.41,1106.02 3888.36,1096.96 C3873.33,1111.45 3860.27,1118.69 3849.19,1118.69 C3839.2,1118.69 3832.23,1117.18 3828.28,1114.16 C3827.27,1113.38 3826.42,1112.45 3825.72,1111.37 C3821.85,1116.09 3815.38,1118.46 3806.31,1118.46 C3797.64,1118.46 3790.97,1116.68 3786.32,1113.11 C3783.23,1110.71 3781.68,1106.88 3781.68,1101.61 C3781.68,1093.24 3786.63,1084.1 3796.55,1074.18 C3807.17,1063.57 3819.44,1058.26 3833.39,1058.26 C3836.88,1058.26 3839.43,1059.54 3841.06,1062.1 C3842.38,1060.62 3843.66,1059.89 3844.89,1059.89 M3824.09,1106.14 C3824.02,1105.52 3823.98,1104.9 3823.98,1104.28 C3823.98,1103.97 3827.93,1093.16 3835.83,1071.86 C3836.61,1069.77 3837.38,1067.98 3838.15,1066.51 C3835.13,1065.89 3832.15,1065.58 3829.21,1065.58 C3823.78,1065.58 3816.58,1070.19 3807.59,1079.41 C3799.53,1087.62 3795.51,1094.71 3795.51,1100.68 C3795.51,1107.26 3798.64,1110.56 3804.92,1110.56 C3812.51,1110.56 3818.9,1109.08 3824.09,1106.14"/>
<path class="Note" d="M3819.88,581.059 C3830.34,574.474 3837.93,569.09 3842.66,564.906 C3851.33,557.236 3855.67,549.489 3855.67,541.664 C3855.67,532.522 3849.55,527.951 3837.31,527.951 C3824.45,527.951 3811.05,537.209 3797.1,555.725 C3787.65,568.276 3780.95,580.13 3777,591.286 C3781.88,588.11 3787.03,586.521 3792.45,586.521 C3797.57,586.521 3801.63,588.807 3804.65,593.378 C3806.75,596.554 3807.79,601.977 3807.79,609.647 C3807.79,616.542 3804.15,624.638 3796.87,633.935 C3792.38,639.668 3787.38,642.535 3781.88,642.535 C3774.9,642.535 3770.02,641.14 3767.24,638.351 C3763.28,634.4 3761.31,626.575 3761.31,614.877 C3761.31,595.198 3769.25,575.83 3785.13,556.771 C3803.03,535.311 3820.19,524.581 3836.61,524.581 C3849.32,524.581 3858.81,527.564 3865.08,533.529 C3868.73,537.015 3870.55,542.051 3870.55,548.637 C3870.55,555.997 3863.3,564.209 3848.82,573.273 C3841.22,578.077 3831.58,580.672 3819.88,581.059 M3775.49,596.167 C3773.55,602.675 3772.58,608.911 3772.58,614.877 C3772.58,629.055 3774.83,636.143 3779.32,636.143 C3783.58,636.143 3786.91,633.122 3789.32,627.079 C3792.1,620.261 3793.5,612.707 3793.5,604.418 C3793.5,597.058 3791.06,593.378 3786.18,593.378 C3782.77,593.378 3779.2,594.307 3775.49,596.167"/>
<path class="Note" d="M3812.79,494.673 C3817.36,494.673 3819.65,497.54 3819.65,503.273 C3819.65,507.302 3817.13,513.306 3812.09,521.286 C3808.06,527.716 3806.05,533.991 3806.05,540.112 C3806.05,543.598 3811.12,545.341 3821.27,545.341 C3829.64,545.341 3841.3,540.809 3856.25,531.745 C3841.22,546.232 3828.17,553.476 3817.09,553.476 C3807.1,553.476 3800.12,551.965 3796.17,548.944 C3795.16,548.169 3794.31,547.239 3793.61,546.155 C3789.74,550.881 3783.27,553.244 3774.21,553.244 C3765.53,553.244 3758.87,551.462 3754.22,547.898 C3751.12,545.496 3749.57,541.661 3749.57,536.393 C3749.57,528.026 3754.53,518.884 3764.45,508.967 C3775.06,498.353 3787.34,493.046 3801.28,493.046 C3804.77,493.046 3807.33,494.325 3808.95,496.881 C3810.27,495.409 3811.55,494.673 3812.79,494.673 M3791.99,540.925 C3791.91,540.305 3791.87,539.686 3791.87,539.066 C3791.87,538.756 3795.82,527.948 3803.73,506.643 C3804.5,504.551 3805.27,502.769 3806.05,501.297 C3803.03,500.678 3800.05,500.368 3797.1,500.368 C3791.68,500.368 3784.47,504.977 3775.49,514.197 C3767.43,522.409 3763.4,529.498 3763.4,535.463 C3763.4,542.049 3766.54,545.341 3772.81,545.341 C3780.41,545.341 3786.8,543.869 3791.99,540.925"/>
<path class="Note" d="M3701.7,677.207 C3702.01,665.509 3708.48,655.127 3721.11,646.063 C3732.34,638.005 3744.62,633.977 3757.95,633.977 C3776.62,633.977 3793.08,641.298 3807.34,655.941 C3816.4,665.315 3820.93,676.936 3820.93,690.804 C3820.93,703.277 3817.6,712.845 3810.94,719.508 C3802.8,727.72 3794.21,731.826 3785.14,731.826 C3778.94,731.826 3774.14,730.432 3770.73,727.643 C3765.15,723.072 3762.36,716.951 3762.36,709.281 C3762.36,699.365 3767.32,690.3 3777.24,682.088 C3785.37,675.348 3793.55,670.932 3801.76,668.84 C3799.59,665.121 3796.84,661.635 3793.51,658.381 C3783.13,648.232 3771.35,643.157 3758.18,643.157 C3744.47,643.157 3733.12,646.14 3724.13,652.106 C3714.83,658.226 3707.36,666.593 3701.7,677.207 M3804.66,674.999 C3800.4,678.95 3796.14,683.173 3791.88,687.666 C3783.51,696.498 3779.33,704.865 3779.33,712.768 C3779.33,721.212 3781.27,725.435 3785.14,725.435 C3788.63,725.435 3793.51,720.67 3799.78,711.141 C3804.82,703.548 3807.34,696.576 3807.34,690.223 C3807.34,684.8 3806.45,679.725 3804.66,674.999"/>
<path class="Clef" transform="matrix(2.3811,0,0,2.3811,212.156,2076.38)" d="M25.4,-25.1 C17.8,-25.1 11.7,-20.7 11.6,-20.7 C5.8,-16.4 3.5,-11.3 2.6,-7.8 C2.1,-6 1.9,-4.2 1.9,-2.5 C1.9,-0.1 2.3,2.1 3.2,4 C4.4,6.7 6.7,8.6 9.7,9.6 C10.9,10 12.2,10.2 13.5,10.2 C15.7,10.2 18,9.6 19.9,8.5 C23,6.8 24.9,3.2 24.9,-0.7 C24.9,-4.2 23.1,-7.4 20.1,-9.3 C18,-10.7 16,-11.1 14.3,-11.1 C13.1,-11.1 12,-10.9 11.1,-10.6 C10.1,-10.2 8.4,-9.2 7.6,-8.5 C7.9,-10.4 9.1,-13.3 10.2,-14.9 C11.3,-16.5 13.5,-18.5 15.2,-19.4 C17.7,-20.8 20.9,-21.4 24.4,-21.4 C34.6,-21.4 39.6,-13.2 39.6,3.6 C39.6,12.9 36.1,21.8 33.1,27.7 C29.8,34.3 25.4,40.6 21.5,44.1 C11.1,53.6 1.3,58.1 1.2,58.1 C1.2,58.1 -0.3,59 0.1,60.5 C0.4,61.5 1.3,61.7 1.9,61.7 C2,61.7 2.3,61.6 2.4,61.6 C2.5,61.6 13.9,56.9 23,49.8 C28.1,46.1 32.7,42.1 36.7,37.8 C40.3,33.9 43.4,29.7 45.9,25.5 C50.3,18 52.8,10.2 52.8,3.5 C52.8,-4.8 50.6,-11.7 46.5,-16.6 C41.8,-22.2 34.7,-25.1 25.4,-25.1 M56.8,-12.4 C56.8,-9.6 59,-7.4 61.6,-7.4 C64.2,-7.4 66.4,-9.6 66.4,-12.4 C66.4,-15.2 64.2,-17.5 61.6,-17.5 C59,-17.5 56.8,-15.2 56.8,-12.4 M56.8,12.3 C56.8,15.1 59,17.4 61.6,17.4 C64.2,17.4 66.4,15.1 66.4,12.3 C66.4,9.5 64.2,7.2 61.6,7.2 C59,7.2 56.8,9.5 56.8,12.3"/>
<path class="Clef" transform="matrix(2.3811,0,0,2.3811,212.156,1570.39)" d="M63.37,-5.89004 C62.14,-11.32 59.5,-15.14 58.72,-16.1801 C55.5301,-20.45 51.52,-23.3 46.8301,-24.65 C43.72,-25.54 40.72,-25.65 38.3,-25.47 C37.2601,-31.4801 36.2601,-37.3601 35.35,-42.8101 C40.79,-48.97 44.42,-54.77 46.69,-59.07 C50.1601,-65.65 51.3101,-70.2301 51.3601,-70.4301 C53.0801,-75.64 53.44,-83.34 52.34,-91.55 C51.3301,-99.1 49.24,-105.81 46.89,-109.06 C45.8601,-110.49 44.8101,-111.22 43.77,-111.22 C42.55,-111.22 40.04,-109.98 37.15,-107.21 C34.85,-105.01 31.5801,-101.12 29.02,-95.1101 C26.02,-88.05 25.8101,-78.5601 26.1601,-71.84 C26.54,-64.57 27.65,-58.8801 27.6601,-58.8301 C27.6801,-58.74 27.94,-57.24 28.39,-54.67 C28.1601,-54.44 27.92,-54.22 27.67,-53.9801 C26.6301,-52.9801 25.44,-51.84 24.0601,-50.4601 C23.2,-49.6 22.25,-48.69 21.25,-47.72 C12.79,-39.57 0,-27.25 0,-8.1 C0,-3.4 0.9,1.01992 2.68008,5.02998 C4.27002,8.62998 6.57002,11.91 9.5,14.78 C17.2301,22.33 27.82,25.5399 34.8801,25.38 C37.8301,25.31 40.4601,25.0699 42.85,24.6199 C44.6801,34.2199 45.82,41.25 45.8601,46.5899 C45.9,53.1 44.25,57.0699 40.35,59.8399 C37.92,61.5699 35.1101,62.5199 32.0101,62.6699 C29.42,62.7899 27.1601,62.3199 25.7301,61.91 L25.72,61.91 C25.72,61.91 25.4301,61.83 25.42,61.63 C25.4101,61.45 25.7601,61.4 25.77,61.4 L25.79,61.4 C27.7101,60.96 31.2801,59.73 33.64,56.43 C35.44,53.91 36.3101,49.2899 34.47,45.35 C33.3601,42.96 30.85,40.01 25.2301,39.56 C22.74,39.36 20.47,39.8699 18.47,41.0699 C16.6601,42.15 15.1601,43.7899 14.1101,45.7899 C11.65,50.4899 12.1101,56.2199 15.24,60.06 C18.2,63.68 22.82,65.9899 28.25,66.5699 C29.1,66.66 29.95,66.7 30.8,66.7 C31.5101,66.7 32.22,66.6699 32.92,66.61 C31.72,66.9399 30.64,67.4899 29.77,68.25 C28.2801,69.5399 27.44,71.38 27.44,73.41 C27.44,75.28 28.0601,76.65 29.55,78.0399 C28.4101,78.5 27.55,78.98 26.79,79.56 C25.25,80.73 24.34,82.46 24.34,84.1899 C24.34,87.45 27.3,89.63 31.72,89.63 C37.1301,89.63 40.9101,86.63 40.9101,82.35 C40.9101,80.1199 39.9101,78.18 38.0801,76.83 C41.0101,75.6199 42.37,73.9399 42.37,71.56 C42.39,70.05 41.69,68.61 40.49,67.6899 C39.2801,66.7399 37.62,66.2399 35.69,66.2399 L35.5101,66.2399 C38.2801,65.7 40.92,64.7 43.2101,63.28 C46.87,60.71 48.99,56.73 49.67,51.1 C50.2301,46.46 49.84,40.55 48.44,32.48 C48.0801,30.3899 47.54,27.36 46.8801,23.6 C52.6301,21.68 56.79,18.11 60.5601,12.26 C63.85,6.51992 64.8,0.419922 63.37,-5.89004 M32.39,87.5399 C30.19,87.5399 28.7301,86.1199 28.7301,84.01 C28.7301,82.11 29.65,80.5 31.32,79.4699 C31.6801,79.66 31.77,79.71 32.1101,79.88 C33.3,80.48 33.3,80.48 33.55,80.63 L33.5601,80.6399 C35.47,81.73 36.25,82.76 36.25,84.18 C36.24,86.0899 34.59,87.5399 32.39,87.5399 M38.3101,71.63 C38.3101,73.2699 37.7301,74.3399 36.1801,75.53 C34.74,74.78 34.35,74.56 33.9801,74.3399 L33.8801,74.28 C32.3301,73.3399 31.85,72.66 31.85,71.4 C31.85,69.6 33.2301,68.3399 35.19,68.3399 C37.17,68.35 38.3101,69.55 38.3101,71.63 M33.15,-83.8101 C34.9301,-89.55 37.67,-92.8 39.6601,-94.5301 C41.4101,-96.05 43.0601,-96.7601 43.9801,-96.7601 C44.12,-96.7601 44.24,-96.74 44.34,-96.7101 C44.8,-96.57 45.3301,-96 45.8,-95.1301 C48.1101,-90.84 47.37,-84.1301 46.0301,-79.69 C44.4,-74.29 41.4801,-68.6801 32.69,-59.0601 C32.52,-60.17 32.3601,-61.22 32.2101,-62.2 C30.95,-70.49 31.27,-77.7601 33.15,-83.8101 M29.15,20.31 C24.5101,19.0899 20.0801,16.5899 16.32,13.0899 C15.0101,11.86 13.14,9.68994 11.67,6.3 C10.3101,3.13994 9.65,-0.290039 9.7,-3.88008 C9.77002,-8.57002 11.0801,-13.39 13.59,-18.1801 C16.5101,-23.7601 21.07,-29.29 27.1301,-34.62 C28.5801,-35.9 29.95,-37.1801 31.24,-38.4601 C32,-34.2 32.8301,-29.5101 33.7101,-24.6301 C29.8601,-23.3601 25.1101,-20.2101 22,-14.5601 C18.47,-7.99004 18.6101,-2.47002 19.34,1.00996 C20.2801,5.46992 22.8101,9.22998 26.27,11.3199 C27.2,11.88 31.3301,14.01 33.17,13.43 C33.54,13.31 33.8101,13.0899 33.95,12.76 C34.4601,11.5899 33.44,10.95 31.8801,9.98994 C31.2801,9.61992 30.6101,9.2 29.8801,8.66992 C26.5601,6.17998 25.1101,1.72998 26.1801,-2.65 C26.7601,-5.05 28.04,-7.21006 29.8801,-8.91006 C31.55,-10.4601 33.59,-11.5601 35.97,-12.2 C38.0101,-0.960059 40.07,10.1899 41.7101,18.55 C41.84,19.2399 41.9801,19.91 42.1101,20.58 C37.7101,21.51 33.37,21.4199 29.15,20.31 M54.9,10.1 C53.7301,13.28 51.27,17.35 46.14,19.41 C46.07,18.9899 45.99,18.56 45.9101,18.13 C44.3601,9.36992 42.4301,-1.61006 40.47,-12.87 C50.82,-13.35 55.09,-5.91006 55.9801,-1.08008 C56.45,1.45 56.45,5.88994 54.9,10.1"/>
<path class="KeySig" transform="matrix(2.3811,0,0,2.3811,429.785,2195.43)" d="M20.1,-7.9 C19.5,-11.8 17.1,-15.5 12,-15.5 C7,-15.5 4.1,-12.4 3.6,-11.8 L4,-43.9 C4,-44.7 3.4,-45.3 2.6,-45.3 L1.4,-45.3 C0.6,-45.3 0,-44.7 0,-43.9 L0.5,16.2 C0.5,17 1.1,17.6 1.9,17.6 C2.1,17.6 2.5,17.5 2.7,17.4 C3.1,17.2 9.6,14 15,7.9 C18.8,3.6 20.3,-1.3 20.3,-5.4 C20.3,-6.3 20.2,-7.1 20.1,-7.9 M13.2,-4 C13.2,-2.5 12.8,2.1 10.3,5.9 C8.6,8.5 5.2,11.2 3.3,12.7 L3.6,-6.8 C3.8,-7.7 5.3,-10.6 9.3,-10.6 C12.9,-10.6 13.2,-7.2 13.2,-5.1 L13.2,-4 "/>
<path class="KeySig" transform="matrix(2.3811,0,0,2.3811,429.785,1510.87)" d="M20.1,-7.9 C19.5,-11.8 17.1,-15.5 12,-15.5 C7,-15.5 4.1,-12.4 3.6,-11.8 L4,-43.9 C4,-44.7 3.4,-45.3 2.6,-45.3 L1.4,-45.3 C0.6,-45.3 0,-44.7 0,-43.9 L0.5,16.2 C0.5,17 1.1,17.6 1.9,17.6 C2.1,17.6 2.5,17.5 2.7,17.4 C3.1,17.2 9.6,14 15,7.9 C18.8,3.6 20.3,-1.3 20.3,-5.4 C20.3,-6.3 20.2,-7.1 20.1,-7.9 M13.2,-4 C13.2,-2.5 12.8,2.1 10.3,5.9 C8.6,8.5 5.2,11.2 3.3,12.7 L3.6,-6.8 C3.8,-7.7 5.3,-10.6 9.3,-10.6 C12.9,-10.6 13.2,-7.2 13.2,-5.1 L13.2,-4 "/>
<path class="FiguredBass" d="M1077.54,2390.15 C1072.96,2390.15 1069.92,2391.99 1068.4,2395.67 C1066.89,2399.35 1066.13,2404.56 1066.13,2411.3 L1066.13,2422.25 C1069.34,2420.95 1072.13,2420.27 1074.48,2420.21 C1082.52,2420.21 1088.84,2421.98 1093.45,2425.54 C1098.06,2429.1 1100.36,2434.38 1100.36,2441.4 C1100.36,2448.42 1098.03,2453.73 1093.36,2457.31 C1088.69,2460.9 1082.39,2462.7 1074.48,2462.7 C1066.37,2462.7 1060.04,2458.94 1055.46,2451.42 C1050.88,2443.91 1048.59,2434.99 1048.59,2424.66 C1048.59,2414.39 1051.25,2405.49 1056.57,2397.94 C1061.89,2390.39 1068.88,2386.62 1077.54,2386.62 C1083.23,2386.62 1088.15,2388.06 1092.29,2390.94 C1096.43,2393.81 1098.51,2397.6 1098.51,2402.3 C1098.51,2405.02 1097.52,2407.37 1095.54,2409.35 C1093.56,2411.33 1091.19,2412.32 1088.44,2412.32 C1085.69,2412.32 1083.32,2411.33 1081.34,2409.35 C1079.36,2407.37 1078.37,2405.02 1078.37,2402.3 C1078.37,2399.64 1079.36,2397.29 1081.34,2395.25 C1082.02,2394.45 1082.98,2393.76 1084.22,2393.21 C1083.91,2392.4 1083.29,2391.79 1082.36,2391.35 C1081,2390.55 1079.39,2390.15 1077.54,2390.15 M1082.08,2428.09 C1080.97,2425.18 1078.53,2423.73 1074.76,2423.73 C1070.98,2423.73 1068.65,2425.18 1067.75,2428.09 C1066.85,2431 1066.41,2435.42 1066.41,2441.36 C1066.41,2448.35 1066.85,2453.05 1067.75,2455.46 C1068.65,2457.87 1070.98,2459.08 1074.76,2459.08 C1078.53,2459.08 1080.97,2457.62 1082.08,2454.72 C1083.2,2451.81 1083.75,2447.37 1083.75,2441.4 C1083.75,2435.44 1083.2,2431 1082.08,2428.09"/>
<path class="FiguredBass" d="M1530.61,2436.07 L1530.61,2419.09 C1530.61,2418.1 1530.97,2417.22 1531.68,2416.45 C1532.39,2415.67 1533.3,2415.29 1534.42,2415.29 C1535.53,2415.29 1536.44,2415.67 1537.15,2416.45 C1537.86,2417.22 1538.22,2418.1 1538.22,2419.09 L1538.22,2436.07 L1551.49,2436.07 C1552.6,2436.07 1553.51,2436.46 1554.22,2437.23 C1554.93,2438 1555.29,2438.88 1555.29,2439.87 C1555.29,2440.86 1554.93,2441.74 1554.22,2442.52 C1553.51,2443.29 1552.6,2443.68 1551.49,2443.68 L1538.22,2443.68 L1538.22,2460.65 C1538.22,2461.64 1537.86,2462.53 1537.15,2463.3 C1536.44,2464.07 1535.53,2464.46 1534.42,2464.46 C1533.3,2464.46 1532.39,2464.07 1531.68,2463.3 C1530.97,2462.53 1530.61,2461.64 1530.61,2460.65 L1530.61,2443.68 L1513.45,2443.68 L1513.45,2444.88 C1513.45,2448.72 1514.47,2452.06 1516.51,2454.9 C1518.55,2457.75 1521.18,2459.17 1524.4,2459.17 C1525.63,2459.17 1526.25,2459.73 1526.25,2460.84 C1526.25,2462.08 1525.63,2462.7 1524.4,2462.7 C1522.17,2462.7 1518.86,2462.37 1514.47,2461.72 C1510.08,2461.07 1506.75,2460.75 1504.5,2460.75 C1502.24,2460.75 1498.91,2461.07 1494.52,2461.72 C1490.13,2462.37 1486.82,2462.7 1484.6,2462.7 C1483.36,2462.7 1482.74,2462.08 1482.74,2460.84 C1482.74,2459.73 1483.36,2459.17 1484.6,2459.17 C1487.81,2459.17 1490.46,2457.75 1492.53,2454.9 C1494.6,2452.06 1495.64,2448.72 1495.64,2444.88 L1495.64,2443.68 L1470.31,2443.68 C1468.7,2443.68 1467.51,2443.29 1466.74,2442.52 C1465.96,2441.74 1465.58,2440.96 1465.58,2440.15 C1465.58,2439.84 1466.3,2438.78 1467.76,2436.95 C1469.21,2435.13 1470.99,2432.7 1473.09,2429.67 C1475.2,2426.64 1477.28,2423.19 1479.36,2419.32 C1481.43,2415.46 1483.19,2410.82 1484.64,2405.41 C1486.1,2400 1486.82,2394.54 1486.82,2389.03 C1486.82,2387.43 1487.5,2386.62 1488.86,2386.62 C1489.05,2386.62 1489.7,2386.78 1490.81,2387.09 C1491.93,2387.39 1493.35,2387.72 1495.08,2388.06 C1496.81,2388.4 1498.48,2388.57 1500.09,2388.57 C1502.5,2388.57 1504.98,2388.23 1507.51,2387.55 L1511.69,2386.44 C1512.49,2386.44 1513.14,2386.74 1513.63,2387.36 C1514.01,2387.92 1513.94,2388.48 1513.45,2389.03 L1473,2436.07 L1495.64,2436.07 L1495.64,2419.37 C1495.64,2417.95 1496.02,2416.85 1496.8,2416.08 C1497.57,2415.3 1498.62,2414.65 1499.95,2414.13 C1501.28,2413.6 1502.81,2412.26 1504.54,2410.09 C1506.15,2408.05 1508.01,2404.96 1510.11,2400.82 C1510.42,2400.2 1510.88,2399.89 1511.5,2399.89 C1512.8,2399.89 1513.45,2400.6 1513.45,2402.02 L1513.45,2436.07 L1530.61,2436.07 "/>
<path class="FiguredBass" d="M1512.61,2528.09 C1512.61,2529.08 1513.17,2530.04 1514.28,2530.97 C1515.4,2531.89 1516.62,2532.77 1517.95,2533.61 C1519.28,2534.44 1520.5,2536.02 1521.61,2538.34 C1522.73,2540.66 1523.28,2543.58 1523.28,2547.11 C1523.28,2553.91 1520.72,2559.17 1515.58,2562.88 C1510.45,2566.59 1503.96,2568.45 1496.1,2568.45 C1489.79,2568.45 1484.3,2566.87 1479.63,2563.71 C1474.96,2560.56 1472.63,2556.42 1472.63,2551.28 C1472.63,2548.56 1473.62,2546.2 1475.6,2544.19 C1477.58,2542.18 1479.94,2541.17 1482.69,2541.17 C1485.45,2541.17 1487.78,2542.16 1489.7,2544.14 C1491.62,2546.12 1492.58,2548.5 1492.58,2551.28 C1492.58,2552.52 1491.55,2553.86 1489.51,2555.32 C1487.47,2556.77 1486.45,2558.12 1486.45,2559.35 C1486.45,2561.27 1487.4,2562.68 1489.28,2563.57 C1491.17,2564.47 1493.44,2564.92 1496.1,2564.92 C1499.56,2564.92 1502.02,2563.2 1503.48,2559.77 C1504.93,2556.34 1505.66,2552.12 1505.66,2547.11 L1505.66,2544.7 C1505.66,2541.36 1505.55,2538.82 1505.33,2537.09 C1505.12,2535.36 1504.43,2533.81 1503.29,2532.45 C1502.15,2531.09 1500.4,2530.41 1498.05,2530.41 L1485.9,2530.41 C1484.47,2530.41 1483.76,2529.64 1483.76,2528.09 C1483.76,2526.67 1484.47,2525.96 1485.9,2525.96 L1498.05,2525.96 C1500.58,2525.96 1502.56,2525 1503.99,2523.08 C1504.48,2522.4 1504.88,2521.29 1505.19,2519.74 C1505.5,2517.7 1505.66,2514.76 1505.66,2510.93 L1505.66,2509.72 C1505.66,2500.5 1502.25,2495.9 1495.45,2495.9 C1489.45,2495.9 1486.45,2497.57 1486.45,2500.91 C1486.45,2502.02 1487.36,2503.21 1489.19,2504.48 C1491.01,2505.75 1491.93,2506.94 1491.93,2508.05 C1491.93,2510.46 1491.08,2512.53 1489.37,2514.27 C1487.67,2516 1485.6,2516.86 1483.16,2516.86 C1480.72,2516.86 1478.66,2516 1476.99,2514.27 C1475.32,2512.53 1474.48,2510.46 1474.48,2508.05 C1474.48,2503.29 1476.56,2499.48 1480.7,2496.64 C1484.84,2493.79 1489.76,2492.37 1495.45,2492.37 C1502.93,2492.37 1509.09,2493.81 1513.91,2496.69 C1518.74,2499.56 1521.15,2503.91 1521.15,2509.72 C1521.15,2513.86 1520.72,2517.08 1519.85,2519.37 C1518.98,2521.66 1518,2523.05 1516.88,2523.54 C1515.77,2524.04 1514.78,2524.61 1513.91,2525.26 C1513.05,2525.91 1512.61,2526.85 1512.61,2528.09"/>
<path class="FiguredBass" d="M1956.79,2453.05 L1956.79,2472.44 C1956.79,2474.35 1955.81,2475.31 1953.86,2475.31 C1951.92,2475.31 1950.94,2474.35 1950.94,2472.44 L1950.94,2455.55 L1947.97,2456.76 C1947.66,2456.88 1947.26,2456.94 1946.77,2456.94 C1945.96,2456.94 1945.25,2456.63 1944.63,2456.02 C1944.01,2455.4 1943.71,2454.69 1943.71,2453.88 L1943.71,2444.42 C1943.71,2443.06 1944.35,2442.1 1945.65,2441.54 L1950.94,2439.32 L1950.94,2419.83 L1947.97,2421.04 C1947.79,2421.1 1947.54,2421.13 1947.23,2421.13 C1947.11,2421.13 1946.95,2421.13 1946.77,2421.13 C1945.84,2421.01 1945.1,2420.67 1944.54,2420.11 C1943.98,2419.56 1943.71,2418.91 1943.71,2418.16 L1943.71,2408.7 C1943.71,2407.4 1944.35,2406.47 1945.65,2405.92 L1950.94,2403.69 L1950.94,2383.93 C1950.94,2382.01 1951.92,2381.05 1953.86,2381.05 C1955.81,2381.05 1956.79,2382.01 1956.79,2383.93 L1956.79,2401.28 L1968.75,2396.27 L1968.75,2376.88 C1968.75,2374.96 1969.71,2374 1971.63,2374 C1973.55,2374 1974.51,2374.96 1974.51,2376.88 L1974.51,2393.95 L1977.75,2392.56 C1978.06,2392.44 1978.4,2392.37 1978.77,2392.37 C1979.58,2392.37 1980.3,2392.68 1980.95,2393.3 C1981.6,2393.92 1981.93,2394.63 1981.93,2395.43 L1981.93,2404.9 C1981.93,2406.26 1981.25,2407.22 1979.89,2407.77 L1974.51,2410 L1974.51,2429.58 L1977.75,2428.28 C1977.94,2428.21 1978.16,2428.18 1978.4,2428.18 C1978.53,2428.18 1978.65,2428.18 1978.77,2428.18 C1979.83,2428.37 1980.61,2428.71 1981.14,2429.2 C1981.67,2429.7 1981.93,2430.35 1981.93,2431.15 L1981.93,2440.62 C1981.93,2441.91 1981.25,2442.84 1979.89,2443.4 L1974.51,2445.63 L1974.51,2465.39 C1974.51,2467.3 1973.55,2468.26 1971.63,2468.26 C1969.71,2468.26 1968.75,2467.3 1968.75,2465.39 L1968.75,2448.04 L1956.79,2453.05 M1956.79,2436.9 L1968.75,2431.99 L1968.75,2412.41 L1956.79,2417.42 L1956.79,2436.9 "/>
<path class="FiguredBass" d="M2350.13,2444.42 C2349.45,2445.16 2348.55,2445.53 2347.44,2445.53 C2346.33,2445.53 2345.42,2445.15 2344.7,2444.37 C2343.99,2443.6 2343.64,2442.72 2343.64,2441.73 L2343.64,2428.46 L2330.37,2428.46 C2329.26,2428.46 2328.35,2428.08 2327.63,2427.3 C2326.92,2426.53 2326.57,2425.65 2326.57,2424.66 C2326.57,2423.67 2326.92,2422.79 2327.63,2422.01 C2328.35,2421.24 2329.26,2420.85 2330.37,2420.85 L2343.64,2420.85 L2343.64,2407.59 C2343.64,2406.6 2343.99,2405.72 2344.7,2404.94 C2345.42,2404.17 2346.33,2403.78 2347.44,2403.78 C2348.55,2403.78 2349.47,2404.17 2350.18,2404.94 C2350.89,2405.72 2351.25,2406.6 2351.25,2407.59 L2351.25,2420.85 L2364.51,2420.85 C2365.63,2420.85 2366.54,2421.24 2367.25,2422.01 C2367.96,2422.79 2368.32,2423.67 2368.32,2424.66 C2368.32,2425.65 2367.96,2426.53 2367.25,2427.3 C2366.54,2428.08 2365.63,2428.46 2364.51,2428.46 L2351.25,2428.46 L2351.25,2441.73 C2351.25,2442.72 2350.87,2443.62 2350.13,2444.42 M2402.91,2388.57 C2405.26,2388.57 2407.73,2388.23 2410.33,2387.55 L2414.5,2386.44 C2415.31,2386.44 2415.94,2386.74 2416.41,2387.36 C2416.87,2387.98 2416.82,2388.54 2416.27,2389.03 L2373.13,2439.22 L2398.45,2439.22 L2398.45,2419.37 C2398.45,2417.95 2398.84,2416.85 2399.61,2416.08 C2400.39,2415.3 2401.38,2414.69 2402.58,2414.22 C2403.79,2413.76 2405.37,2412.38 2407.31,2410.09 C2409.26,2407.8 2411.13,2404.71 2412.93,2400.82 C2413.24,2400.2 2413.7,2399.89 2414.32,2399.89 C2415.62,2399.89 2416.27,2400.6 2416.27,2402.02 L2416.27,2439.22 L2427.21,2439.22 C2428.76,2439.22 2429.53,2439.94 2429.53,2441.36 C2429.53,2442.9 2428.76,2443.68 2427.21,2443.68 L2416.27,2443.68 L2416.27,2444.88 C2416.27,2448.72 2417.29,2452.06 2419.33,2454.9 C2421.37,2457.75 2424,2459.17 2427.21,2459.17 C2428.45,2459.17 2429.07,2459.73 2429.07,2460.84 C2429.07,2462.08 2428.45,2462.7 2427.21,2462.7 C2424.99,2462.7 2421.68,2462.37 2417.29,2461.72 C2412.9,2461.07 2409.57,2460.75 2407.31,2460.75 C2405.06,2460.75 2401.73,2461.07 2397.34,2461.72 C2392.95,2462.37 2389.64,2462.7 2387.41,2462.7 C2386.18,2462.7 2385.56,2462.08 2385.56,2460.84 C2385.56,2459.73 2386.18,2459.17 2387.41,2459.17 C2390.63,2459.17 2393.27,2457.75 2395.35,2454.9 C2397.42,2452.06 2398.45,2448.72 2398.45,2444.88 L2398.45,2443.68 L2373.13,2443.68 C2371.52,2443.68 2370.33,2443.29 2369.55,2442.52 C2368.78,2441.74 2368.39,2440.96 2368.39,2440.15 C2368.39,2439.84 2369.12,2438.78 2370.57,2436.95 C2372.03,2435.13 2373.81,2432.7 2375.91,2429.67 C2378.01,2426.64 2380.1,2423.19 2382.17,2419.32 C2384.24,2415.46 2386.01,2410.82 2387.46,2405.41 C2388.91,2400 2389.64,2394.54 2389.64,2389.03 C2389.64,2387.43 2390.32,2386.62 2391.68,2386.62 C2391.87,2386.62 2392.52,2386.78 2393.63,2387.09 C2394.74,2387.39 2396.16,2387.72 2397.9,2388.06 C2399.63,2388.4 2401.3,2388.57 2402.91,2388.57"/>
<path class="FiguredBass" d="M2800.23,2390.15 C2795.66,2390.15 2792.61,2391.99 2791.1,2395.67 C2789.58,2399.35 2788.82,2404.56 2788.82,2411.3 L2788.82,2422.25 C2792.04,2420.95 2794.82,2420.27 2797.17,2420.21 C2805.21,2420.21 2811.54,2421.98 2816.14,2425.54 C2820.75,2429.1 2823.06,2434.38 2823.06,2441.4 C2823.06,2448.42 2820.72,2453.73 2816.05,2457.31 C2811.38,2460.9 2805.09,2462.7 2797.17,2462.7 C2789.07,2462.7 2782.73,2458.94 2778.15,2451.42 C2773.58,2443.91 2771.29,2434.99 2771.29,2424.66 C2771.29,2414.39 2773.95,2405.49 2779.27,2397.94 C2784.59,2390.39 2791.57,2386.62 2800.23,2386.62 C2805.92,2386.62 2810.84,2388.06 2814.98,2390.94 C2819.13,2393.81 2821.2,2397.6 2821.2,2402.3 C2821.2,2405.02 2820.21,2407.37 2818.23,2409.35 C2816.25,2411.33 2813.89,2412.32 2811.13,2412.32 C2808.38,2412.32 2806.02,2411.33 2804.04,2409.35 C2802.06,2407.37 2801.07,2405.02 2801.07,2402.3 C2801.07,2399.64 2802.06,2397.29 2804.04,2395.25 C2804.72,2394.45 2805.68,2393.76 2806.91,2393.21 C2806.6,2392.4 2805.99,2391.79 2805.06,2391.35 C2803.7,2390.55 2802.09,2390.15 2800.23,2390.15 M2804.78,2428.09 C2803.67,2425.18 2801.22,2423.73 2797.45,2423.73 C2793.68,2423.73 2791.34,2425.18 2790.45,2428.09 C2789.55,2431 2789.1,2435.42 2789.1,2441.36 C2789.1,2448.35 2789.55,2453.05 2790.45,2455.46 C2791.34,2457.87 2793.68,2459.08 2797.45,2459.08 C2801.22,2459.08 2803.67,2457.62 2804.78,2454.72 C2805.89,2451.81 2806.45,2447.37 2806.45,2441.4 C2806.45,2435.44 2805.89,2431 2804.78,2428.09"/>
<path class="FiguredBass" d="M3211.42,2446.8 C3210.74,2447.54 3209.84,2447.91 3208.73,2447.91 C3207.62,2447.91 3206.7,2447.53 3205.99,2446.75 C3205.28,2445.98 3204.92,2445.1 3204.92,2444.11 L3204.92,2430.84 L3191.66,2430.84 C3190.54,2430.84 3189.63,2430.46 3188.92,2429.68 C3188.21,2428.91 3187.85,2428.03 3187.85,2427.04 C3187.85,2426.05 3188.21,2425.17 3188.92,2424.4 C3189.63,2423.62 3190.54,2423.24 3191.66,2423.24 L3204.92,2423.24 L3204.92,2409.97 C3204.92,2408.98 3205.28,2408.1 3205.99,2407.33 C3206.7,2406.55 3207.62,2406.17 3208.73,2406.17 C3209.84,2406.17 3210.75,2406.55 3211.47,2407.33 C3212.18,2408.1 3212.53,2408.98 3212.53,2409.97 L3212.53,2423.24 L3225.8,2423.24 C3226.91,2423.24 3227.82,2423.62 3228.54,2424.4 C3229.25,2425.17 3229.6,2426.05 3229.6,2427.04 C3229.6,2428.03 3229.25,2428.91 3228.54,2429.68 C3227.82,2430.46 3226.91,2430.84 3225.8,2430.84 L3212.53,2430.84 L3212.53,2444.11 C3212.53,2445.1 3212.16,2446 3211.42,2446.8 M3264.84,2392.53 C3260.27,2392.53 3257.22,2394.37 3255.7,2398.05 C3254.19,2401.73 3253.43,2406.94 3253.43,2413.68 L3253.43,2424.63 C3256.65,2423.33 3259.43,2422.65 3261.78,2422.59 C3269.82,2422.59 3276.15,2424.36 3280.75,2427.92 C3285.36,2431.48 3287.67,2436.77 3287.67,2443.79 C3287.67,2450.8 3285.33,2456.11 3280.66,2459.7 C3275.99,2463.28 3269.7,2465.08 3261.78,2465.08 C3253.68,2465.08 3247.34,2461.32 3242.76,2453.8 C3238.19,2446.29 3235.9,2437.37 3235.9,2427.04 C3235.9,2416.77 3238.56,2407.87 3243.88,2400.32 C3249.2,2392.78 3256.18,2389 3264.84,2389 C3270.53,2389 3275.45,2390.44 3279.59,2393.32 C3283.74,2396.19 3285.81,2399.98 3285.81,2404.68 C3285.81,2407.4 3284.82,2409.75 3282.84,2411.73 C3280.86,2413.71 3278.5,2414.7 3275.74,2414.7 C3272.99,2414.7 3270.63,2413.71 3268.65,2411.73 C3266.67,2409.75 3265.68,2407.4 3265.68,2404.68 C3265.68,2402.02 3266.67,2399.67 3268.65,2397.63 C3269.33,2396.83 3270.29,2396.15 3271.52,2395.59 C3271.21,2394.79 3270.59,2394.17 3269.67,2393.73 C3268.31,2392.93 3266.7,2392.53 3264.84,2392.53 M3269.39,2430.47 C3268.28,2427.57 3265.83,2426.11 3262.06,2426.11 C3258.29,2426.11 3255.95,2427.57 3255.06,2430.47 C3254.16,2433.38 3253.71,2437.8 3253.71,2443.74 C3253.71,2450.73 3254.16,2455.43 3255.06,2457.84 C3255.95,2460.25 3258.29,2461.46 3262.06,2461.46 C3265.83,2461.46 3268.28,2460 3269.39,2457.1 C3270.5,2454.19 3271.06,2449.75 3271.06,2443.79 C3271.06,2437.82 3270.5,2433.38 3269.39,2430.47"/>
<path class="Bracket" transform="matrix(8.6315,0,0,8.6315,76.1283,2254.96)" d="M0.92002,-50 C2.69004,-51.88 6.2,-55.8 6.2,-63 C6.2,-72.1 2.25996,-81.32 2.25996,-86.97 C2.25996,-93.06 5.84004,-98.84 5.95,-99 C6.05996,-99.16 6.05,-99.39 5.94004,-99.46 C5.82998,-99.53 5.62002,-99.47 5.49004,-99.32 C5.35996,-99.17 0,-93.75 0,-85.6 C0,-76.75 3.5,-70.58 3.5,-59.07 C3.5,-56.89 2.55996,-53.36 0.1,-50.33 C-0.0799805,-50.17 -0.1,-49.89 0.0599609,-49.7 L0.0700195,-49.69 L0.1,-49.66 C2.55996,-46.63 3.5,-43.1 3.5,-40.92 C3.5,-29.4 0,-23.24 0,-14.39 C0,-6.25 5.35996,-0.8 5.49004,-0.659961 C5.62002,-0.52002 5.8,-0.42998 5.94004,-0.52002 C6.07998,-0.609961 6.07998,-0.77998 5.95,-0.97998 C5.82002,-1.17998 2.25996,-6.92002 2.25996,-13.01 C2.25996,-18.66 6.2,-27.9 6.2,-37 C6.2,-44.3 2.69004,-48.12 0.92002,-50"/>
</svg>
