<?xml version="1.0" encoding="UTF-8" standalone="no"?>
<svg width="4209.44px" height="2976.38px" viewBox="0 0 4209.44 2976.38"
 xmlns="http://www.w3.org/2000/svg" xmlns:xlink="http://www.w3.org/1999/xlink" version="1.2" baseProfile="tiny">
<title>ReMineur (23)</title>
<desc>Generated by MuseScore 3.6.2</desc>
<polyline class="StaffLines" fill="none" stroke="#000000" stroke-width="6.55" stroke-linejoin="bevel" points="153.819,558.425 4138.58,558.425"/>
<polyline class="StaffLines" fill="none" stroke="#000000" stroke-width="6.55" stroke-linejoin="bevel" points="153.819,647.717 4138.58,647.717"/>
<polyline class="StaffLines" fill="none" stroke="#000000" stroke-width="6.55" stroke-linejoin="bevel" points="153.819,737.008 4138.58,737.008"/>
<polyline class="StaffLines" fill="none" stroke="#000000" stroke-width="6.55" stroke-linejoin="bevel" points="153.819,826.299 4138.58,826.299"/>
<polyline class="StaffLines" fill="none" stroke="#000000" stroke-width="6.55" stroke-linejoin="bevel" points="153.819,915.591 4138.58,915.591"/>
<polyline class="StaffLines" fill="none" stroke="#000000" stroke-width="6.55" stroke-linejoin="bevel" points="153.819,1004.88 4138.58,1004.88"/>
<polyline class="StaffLines" fill="none" stroke="#000000" stroke-width="6.55" stroke-linejoin="bevel" points="153.819,1391.81 4138.58,1391.81"/>
<polyline class="StaffLines" fill="none" stroke="#000000" stroke-width="6.55" stroke-linejoin="bevel" points="153.819,1451.34 4138.58,1451.34"/>
<polyline class="StaffLines" fill="none" stroke="#000000" stroke-width="6.55" stroke-linejoin="bevel" points="153.819,1510.87 4138.58,1510.87"/>
<polyline class="StaffLines" fill="none" stroke="#000000" stroke-width="6.55" stroke-linejoin="bevel" points="153.819,1570.39 4138.58,1570.39"/>
<polyline class="StaffLines" fill="none" stroke="#000000" stroke-width="6.55" stroke-linejoin="bevel" points="153.819,1629.92 4138.58,1629.92"/>
<polyline class="StaffLines" fill="none" stroke="#000000" stroke-width="6.55" stroke-linejoin="bevel" points="153.819,2016.85 4138.58,2016.85"/>
<polyline class="StaffLines" fill="none" stroke="#000000" stroke-width="6.55" stroke-linejoin="bevel" points="153.819,2076.38 4138.58,2076.38"/>
<polyline class="StaffLines" fill="none" stroke="#000000" stroke-width="6.55" stroke-linejoin="bevel" points="153.819,2135.91 4138.58,2135.91"/>
<polyline class="StaffLines" fill="none" stroke="#000000" stroke-width="6.55" stroke-linejoin="bevel" points="153.819,2195.43 4138.58,2195.43"/>
<polyline class="StaffLines" fill="none" stroke="#000000" stroke-width="6.55" stroke-linejoin="bevel" points="153.819,2254.96 4138.58,2254.96"/>
<polyline class="BarLine" fill="none" stroke="#000000" stroke-width="10.71" stroke-linejoin="bevel" points="159.176,2013.58 159.176,2258.23"/>
<polyline class="BarLine" fill="none" stroke="#000000" stroke-width="10.71" stroke-linejoin="bevel" points="924.587,2013.58 924.587,2258.23"/>
<polyline class="BarLine" fill="none" stroke="#000000" stroke-width="10.71" stroke-linejoin="bevel" points="1331.89,2013.58 1331.89,2258.23"/>
<polyline class="BarLine" fill="none" stroke="#000000" stroke-width="10.71" stroke-linejoin="bevel" points="1811,2013.58 1811,2258.23"/>
<polyline class="BarLine" fill="none" stroke="#000000" stroke-width="10.71" stroke-linejoin="bevel" points="2253.89,2013.58 2253.89,2258.23"/>
<polyline class="BarLine" fill="none" stroke="#000000" stroke-width="10.71" stroke-linejoin="bevel" points="2696.78,2013.58 2696.78,2258.23"/>
<polyline class="BarLine" fill="none" stroke="#000000" stroke-width="10.71" stroke-linejoin="bevel" points="3104.21,2013.58 3104.21,2258.23"/>
<polyline class="BarLine" fill="none" stroke="#000000" stroke-width="10.71" stroke-linejoin="bevel" points="3645.82,2013.58 3645.82,2258.23"/>
<polyline class="BarLine" fill="none" stroke="#000000" stroke-width="10.71" stroke-linejoin="bevel" points="4080.54,2013.58 4080.54,2258.23"/>
<polyline class="BarLine" fill="none" stroke="#000000" stroke-width="32.74" stroke-linejoin="bevel" points="4122.21,2013.58 4122.21,2258.23"/>
<polyline class="BarLine" fill="none" stroke="#000000" stroke-width="10.71" stroke-linejoin="bevel" points="159.176,1388.54 159.176,2016.85"/>
<polyline class="BarLine" fill="none" stroke="#000000" stroke-width="10.71" stroke-linejoin="bevel" points="924.587,1388.54 924.587,1633.2"/>
<polyline class="BarLine" fill="none" stroke="#000000" stroke-width="10.71" stroke-linejoin="bevel" points="1331.89,1388.54 1331.89,1633.2"/>
<polyline class="BarLine" fill="none" stroke="#000000" stroke-width="10.71" stroke-linejoin="bevel" points="1811,1388.54 1811,1633.2"/>
<polyline class="BarLine" fill="none" stroke="#000000" stroke-width="10.71" stroke-linejoin="bevel" points="2253.89,1388.54 2253.89,1633.2"/>
<polyline class="BarLine" fill="none" stroke="#000000" stroke-width="10.71" stroke-linejoin="bevel" points="2696.78,1388.54 2696.78,1633.2"/>
<polyline class="BarLine" fill="none" stroke="#000000" stroke-width="10.71" stroke-linejoin="bevel" points="3104.21,1388.54 3104.21,1633.2"/>
<polyline class="BarLine" fill="none" stroke="#000000" stroke-width="10.71" stroke-linejoin="bevel" points="3645.82,1388.54 3645.82,1633.2"/>
<polyline class="BarLine" fill="none" stroke="#000000" stroke-width="10.71" stroke-linejoin="bevel" points="4080.54,1388.54 4080.54,1633.2"/>
<polyline class="BarLine" fill="none" stroke="#000000" stroke-width="32.74" stroke-linejoin="bevel" points="4122.21,1388.54 4122.21,1633.2"/>
<polyline class="BarLine" fill="none" stroke="#000000" stroke-width="10.71" stroke-linejoin="bevel" points="159.176,555.151 159.176,1391.81"/>
<polyline class="BarLine" fill="none" stroke="#000000" stroke-width="10.71" stroke-linejoin="bevel" points="924.587,555.151 924.587,1008.16"/>
<polyline class="BarLine" fill="none" stroke="#000000" stroke-width="10.71" stroke-linejoin="bevel" points="1331.89,555.151 1331.89,1008.16"/>
<polyline class="BarLine" fill="none" stroke="#000000" stroke-width="10.71" stroke-linejoin="bevel" points="1811,555.151 1811,1008.16"/>
<polyline class="BarLine" fill="none" stroke="#000000" stroke-width="10.71" stroke-linejoin="bevel" points="2253.89,555.151 2253.89,1008.16"/>
<polyline class="BarLine" fill="none" stroke="#000000" stroke-width="10.71" stroke-linejoin="bevel" points="2696.78,555.151 2696.78,1008.16"/>
<polyline class="BarLine" fill="none" stroke="#000000" stroke-width="10.71" stroke-linejoin="bevel" points="3104.21,555.151 3104.21,1008.16"/>
<polyline class="BarLine" fill="none" stroke="#000000" stroke-width="10.71" stroke-linejoin="bevel" points="3645.82,555.151 3645.82,1008.16"/>
<polyline class="BarLine" fill="none" stroke="#000000" stroke-width="10.71" stroke-linejoin="bevel" points="4080.54,555.151 4080.54,1008.16"/>
<polyline class="BarLine" fill="none" stroke="#000000" stroke-width="32.74" stroke-linejoin="bevel" points="4122.21,555.151 4122.21,1008.16"/>
<path class="Accidental" transform="matrix(2.3811,0,0,2.3811,1862.42,1689.45)" d="M23.3,-10.6 C23.9,-10.7 24.4,-11.4 24.4,-12 L24.4,-17.9 C24.4,-18.7 23.8,-19.3 23,-19.3 L22.8,-19.3 L19.5,-18.6 L19.5,-33.5 L16.7,-33.5 L16.7,-18 L7.8,-16.2 L7.8,-30.3 L5,-30.3 L5,-15.6 L1.1,-14.8 C0.5,-14.7 0,-14 0,-13.4 L0,-13.2 L0,-7.4 L0,-7.6 C0,-6.8 0.6,-6.2 1.4,-6.2 L1.7,-6.2 L5,-6.9 L5,9.6 L1.1,10.4 C0.5,10.5 0,11.2 0,11.8 L0,17.6 C0,18.4 0.6,19 1.4,19 L1.7,19 L5,18.3 L5,33.2 L7.8,33.2 L7.8,17.7 L16.7,15.9 L16.7,30 L19.5,30 L19.5,15.3 L23.3,14.6 C23.9,14.5 24.4,13.8 24.4,13.2 L24.4,7.3 C24.4,6.5 23.8,5.9 23,5.9 L22.8,5.9 L19.5,6.6 L19.5,-9.9 L23.3,-10.6 M7.8,9.1 L7.8,-7.5 L16.7,-9.3 L16.7,7.2 L7.8,9.1 "/>
<path class="Accidental" transform="matrix(2.3811,0,0,2.3811,2305.32,1689.45)" d="M23.3,-10.6 C23.9,-10.7 24.4,-11.4 24.4,-12 L24.4,-17.9 C24.4,-18.7 23.8,-19.3 23,-19.3 L22.8,-19.3 L19.5,-18.6 L19.5,-33.5 L16.7,-33.5 L16.7,-18 L7.8,-16.2 L7.8,-30.3 L5,-30.3 L5,-15.6 L1.1,-14.8 C0.5,-14.7 0,-14 0,-13.4 L0,-13.2 L0,-7.4 L0,-7.6 C0,-6.8 0.6,-6.2 1.4,-6.2 L1.7,-6.2 L5,-6.9 L5,9.6 L1.1,10.4 C0.5,10.5 0,11.2 0,11.8 L0,17.6 C0,18.4 0.6,19 1.4,19 L1.7,19 L5,18.3 L5,33.2 L7.8,33.2 L7.8,17.7 L16.7,15.9 L16.7,30 L19.5,30 L19.5,15.3 L23.3,14.6 C23.9,14.5 24.4,13.8 24.4,13.2 L24.4,7.3 C24.4,6.5 23.8,5.9 23,5.9 L22.8,5.9 L19.5,6.6 L19.5,-9.9 L23.3,-10.6 M7.8,9.1 L7.8,-7.5 L16.7,-9.3 L16.7,7.2 L7.8,9.1 "/>
<path class="Accidental" transform="matrix(2.3811,0,0,2.3811,3155.64,1689.45)" d="M23.3,-10.6 C23.9,-10.7 24.4,-11.4 24.4,-12 L24.4,-17.9 C24.4,-18.7 23.8,-19.3 23,-19.3 L22.8,-19.3 L19.5,-18.6 L19.5,-33.5 L16.7,-33.5 L16.7,-18 L7.8,-16.2 L7.8,-30.3 L5,-30.3 L5,-15.6 L1.1,-14.8 C0.5,-14.7 0,-14 0,-13.4 L0,-13.2 L0,-7.4 L0,-7.6 C0,-6.8 0.6,-6.2 1.4,-6.2 L1.7,-6.2 L5,-6.9 L5,9.6 L1.1,10.4 C0.5,10.5 0,11.2 0,11.8 L0,17.6 C0,18.4 0.6,19 1.4,19 L1.7,19 L5,18.3 L5,33.2 L7.8,33.2 L7.8,17.7 L16.7,15.9 L16.7,30 L19.5,30 L19.5,15.3 L23.3,14.6 C23.9,14.5 24.4,13.8 24.4,13.2 L24.4,7.3 C24.4,6.5 23.8,5.9 23,5.9 L22.8,5.9 L19.5,6.6 L19.5,-9.9 L23.3,-10.6 M7.8,9.1 L7.8,-7.5 L16.7,-9.3 L16.7,7.2 L7.8,9.1 "/>
<polyline class="LedgerLine" fill="none" stroke="#000000" stroke-width="9.52" stroke-linejoin="bevel" points="3228.62,2314.49 3359.09,2314.49"/>
<polyline class="LedgerLine" fill="none" stroke="#000000" stroke-width="9.52" stroke-linejoin="bevel" points="3729.03,2314.49 3859.51,2314.49"/>
<polyline class="LedgerLine" fill="none" stroke="#000000" stroke-width="9.52" stroke-linejoin="bevel" points="1935.4,1689.45 2065.88,1689.45"/>
<polyline class="LedgerLine" fill="none" stroke="#000000" stroke-width="9.52" stroke-linejoin="bevel" points="2378.29,1689.45 2508.77,1689.45"/>
<polyline class="LedgerLine" fill="none" stroke="#000000" stroke-width="9.52" stroke-linejoin="bevel" points="3228.62,1689.45 3359.09,1689.45"/>
<path class="Note" transform="matrix(2.3811,0,0,2.3811,626.933,2135.91)" d="M18.7,-13.6 C4.9,-13.6 0,-6.6 0,-0.1 C0,6.4 4.9,13.4 18.7,13.4 C32.5,13.4 37.3,6.4 37.3,-0.1 C37.3,-6.6 32.5,-13.6 18.7,-13.6 M10.4,-4.5 C10.3,-4.9 10.3,-5.3 10.3,-5.7 C10.3,-6.5 10.5,-7.3 10.9,-8 C11.6,-9 12.8,-9.7 14.3,-10 C15.6,-10.3 16.3,-10.5 18.9,-10.5 L19,-10.5 C23,-10.5 24.3,-6.8 25.4,-3 L25.7,-2 C26.5,0.6 26.9,2.8 26.9,4.5 C26.9,5.7 26.7,6.8 26.3,7.6 C25.7,8.7 24.7,9.4 23,9.8 C22.1,10 20.6,10.1 20.6,10.1 C20.1,10.1 19.7,10.2 19.3,10.2 C16.1,10.2 14.1,9 12.7,4.7 C11.5,1 11.3,-0.1 10.4,-4.5"/>
<path class="Note" transform="matrix(2.3811,0,0,2.3811,1007.33,2165.67)" d="M18.7,-13.6 C4.9,-13.6 0,-6.6 0,-0.1 C0,6.4 4.9,13.4 18.7,13.4 C32.5,13.4 37.3,6.4 37.3,-0.1 C37.3,-6.6 32.5,-13.6 18.7,-13.6 M10.4,-4.5 C10.3,-4.9 10.3,-5.3 10.3,-5.7 C10.3,-6.5 10.5,-7.3 10.9,-8 C11.6,-9 12.8,-9.7 14.3,-10 C15.6,-10.3 16.3,-10.5 18.9,-10.5 L19,-10.5 C23,-10.5 24.3,-6.8 25.4,-3 L25.7,-2 C26.5,0.6 26.9,2.8 26.9,4.5 C26.9,5.7 26.7,6.8 26.3,7.6 C25.7,8.7 24.7,9.4 23,9.8 C22.1,10 20.6,10.1 20.6,10.1 C20.1,10.1 19.7,10.2 19.3,10.2 C16.1,10.2 14.1,9 12.7,4.7 C11.5,1 11.3,-0.1 10.4,-4.5"/>
<path class="Note" transform="matrix(2.3811,0,0,2.3811,1414.63,2195.43)" d="M18.7,-13.6 C4.9,-13.6 0,-6.6 0,-0.1 C0,6.4 4.9,13.4 18.7,13.4 C32.5,13.4 37.3,6.4 37.3,-0.1 C37.3,-6.6 32.5,-13.6 18.7,-13.6 M10.4,-4.5 C10.3,-4.9 10.3,-5.3 10.3,-5.7 C10.3,-6.5 10.5,-7.3 10.9,-8 C11.6,-9 12.8,-9.7 14.3,-10 C15.6,-10.3 16.3,-10.5 18.9,-10.5 L19,-10.5 C23,-10.5 24.3,-6.8 25.4,-3 L25.7,-2 C26.5,0.6 26.9,2.8 26.9,4.5 C26.9,5.7 26.7,6.8 26.3,7.6 C25.7,8.7 24.7,9.4 23,9.8 C22.1,10 20.6,10.1 20.6,10.1 C20.1,10.1 19.7,10.2 19.3,10.2 C16.1,10.2 14.1,9 12.7,4.7 C11.5,1 11.3,-0.1 10.4,-4.5"/>
<path class="Note" transform="matrix(2.3811,0,0,2.3811,1956.24,2225.2)" d="M18.7,-13.6 C4.9,-13.6 0,-6.6 0,-0.1 C0,6.4 4.9,13.4 18.7,13.4 C32.5,13.4 37.3,6.4 37.3,-0.1 C37.3,-6.6 32.5,-13.6 18.7,-13.6 M10.4,-4.5 C10.3,-4.9 10.3,-5.3 10.3,-5.7 C10.3,-6.5 10.5,-7.3 10.9,-8 C11.6,-9 12.8,-9.7 14.3,-10 C15.6,-10.3 16.3,-10.5 18.9,-10.5 L19,-10.5 C23,-10.5 24.3,-6.8 25.4,-3 L25.7,-2 C26.5,0.6 26.9,2.8 26.9,4.5 C26.9,5.7 26.7,6.8 26.3,7.6 C25.7,8.7 24.7,9.4 23,9.8 C22.1,10 20.6,10.1 20.6,10.1 C20.1,10.1 19.7,10.2 19.3,10.2 C16.1,10.2 14.1,9 12.7,4.7 C11.5,1 11.3,-0.1 10.4,-4.5"/>
<path class="Note" transform="matrix(2.3811,0,0,2.3811,2399.13,2254.96)" d="M18.7,-13.6 C4.9,-13.6 0,-6.6 0,-0.1 C0,6.4 4.9,13.4 18.7,13.4 C32.5,13.4 37.3,6.4 37.3,-0.1 C37.3,-6.6 32.5,-13.6 18.7,-13.6 M10.4,-4.5 C10.3,-4.9 10.3,-5.3 10.3,-5.7 C10.3,-6.5 10.5,-7.3 10.9,-8 C11.6,-9 12.8,-9.7 14.3,-10 C15.6,-10.3 16.3,-10.5 18.9,-10.5 L19,-10.5 C23,-10.5 24.3,-6.8 25.4,-3 L25.7,-2 C26.5,0.6 26.9,2.8 26.9,4.5 C26.9,5.7 26.7,6.8 26.3,7.6 C25.7,8.7 24.7,9.4 23,9.8 C22.1,10 20.6,10.1 20.6,10.1 C20.1,10.1 19.7,10.2 19.3,10.2 C16.1,10.2 14.1,9 12.7,4.7 C11.5,1 11.3,-0.1 10.4,-4.5"/>
<path class="Note" transform="matrix(2.3811,0,0,2.3811,2779.91,2284.72)" d="M18.7,-13.6 C4.9,-13.6 0,-6.6 0,-0.1 C0,6.4 4.9,13.4 18.7,13.4 C32.5,13.4 37.3,6.4 37.3,-0.1 C37.3,-6.6 32.5,-13.6 18.7,-13.6 M10.4,-4.5 C10.3,-4.9 10.3,-5.3 10.3,-5.7 C10.3,-6.5 10.5,-7.3 10.9,-8 C11.6,-9 12.8,-9.7 14.3,-10 C15.6,-10.3 16.3,-10.5 18.9,-10.5 L19,-10.5 C23,-10.5 24.3,-6.8 25.4,-3 L25.7,-2 C26.5,0.6 26.9,2.8 26.9,4.5 C26.9,5.7 26.7,6.8 26.3,7.6 C25.7,8.7 24.7,9.4 23,9.8 C22.1,10 20.6,10.1 20.6,10.1 C20.1,10.1 19.7,10.2 19.3,10.2 C16.1,10.2 14.1,9 12.7,4.7 C11.5,1 11.3,-0.1 10.4,-4.5"/>
<path class="Note" transform="matrix(2.3811,0,0,2.3811,3249.45,2314.49)" d="M18.7,-13.6 C4.9,-13.6 0,-6.6 0,-0.1 C0,6.4 4.9,13.4 18.7,13.4 C32.5,13.4 37.3,6.4 37.3,-0.1 C37.3,-6.6 32.5,-13.6 18.7,-13.6 M10.4,-4.5 C10.3,-4.9 10.3,-5.3 10.3,-5.7 C10.3,-6.5 10.5,-7.3 10.9,-8 C11.6,-9 12.8,-9.7 14.3,-10 C15.6,-10.3 16.3,-10.5 18.9,-10.5 L19,-10.5 C23,-10.5 24.3,-6.8 25.4,-3 L25.7,-2 C26.5,0.6 26.9,2.8 26.9,4.5 C26.9,5.7 26.7,6.8 26.3,7.6 C25.7,8.7 24.7,9.4 23,9.8 C22.1,10 20.6,10.1 20.6,10.1 C20.1,10.1 19.7,10.2 19.3,10.2 C16.1,10.2 14.1,9 12.7,4.7 C11.5,1 11.3,-0.1 10.4,-4.5"/>
<path class="Note" transform="matrix(2.3811,0,0,2.3811,3749.87,2344.25)" d="M18.7,-13.6 C4.9,-13.6 0,-6.6 0,-0.1 C0,6.4 4.9,13.4 18.7,13.4 C32.5,13.4 37.3,6.4 37.3,-0.1 C37.3,-6.6 32.5,-13.6 18.7,-13.6 M10.4,-4.5 C10.3,-4.9 10.3,-5.3 10.3,-5.7 C10.3,-6.5 10.5,-7.3 10.9,-8 C11.6,-9 12.8,-9.7 14.3,-10 C15.6,-10.3 16.3,-10.5 18.9,-10.5 L19,-10.5 C23,-10.5 24.3,-6.8 25.4,-3 L25.7,-2 C26.5,0.6 26.9,2.8 26.9,4.5 C26.9,5.7 26.7,6.8 26.3,7.6 C25.7,8.7 24.7,9.4 23,9.8 C22.1,10 20.6,10.1 20.6,10.1 C20.1,10.1 19.7,10.2 19.3,10.2 C16.1,10.2 14.1,9 12.7,4.7 C11.5,1 11.3,-0.1 10.4,-4.5"/>
<path class="Note" transform="matrix(2.3811,0,0,2.3811,626.933,1659.69)" d="M18.7,-13.6 C4.9,-13.6 0,-6.6 0,-0.1 C0,6.4 4.9,13.4 18.7,13.4 C32.5,13.4 37.3,6.4 37.3,-0.1 C37.3,-6.6 32.5,-13.6 18.7,-13.6 M10.4,-4.5 C10.3,-4.9 10.3,-5.3 10.3,-5.7 C10.3,-6.5 10.5,-7.3 10.9,-8 C11.6,-9 12.8,-9.7 14.3,-10 C15.6,-10.3 16.3,-10.5 18.9,-10.5 L19,-10.5 C23,-10.5 24.3,-6.8 25.4,-3 L25.7,-2 C26.5,0.6 26.9,2.8 26.9,4.5 C26.9,5.7 26.7,6.8 26.3,7.6 C25.7,8.7 24.7,9.4 23,9.8 C22.1,10 20.6,10.1 20.6,10.1 C20.1,10.1 19.7,10.2 19.3,10.2 C16.1,10.2 14.1,9 12.7,4.7 C11.5,1 11.3,-0.1 10.4,-4.5"/>
<path class="Note" transform="matrix(2.3811,0,0,2.3811,626.933,1600.16)" d="M18.7,-13.6 C4.9,-13.6 0,-6.6 0,-0.1 C0,6.4 4.9,13.4 18.7,13.4 C32.5,13.4 37.3,6.4 37.3,-0.1 C37.3,-6.6 32.5,-13.6 18.7,-13.6 M10.4,-4.5 C10.3,-4.9 10.3,-5.3 10.3,-5.7 C10.3,-6.5 10.5,-7.3 10.9,-8 C11.6,-9 12.8,-9.7 14.3,-10 C15.6,-10.3 16.3,-10.5 18.9,-10.5 L19,-10.5 C23,-10.5 24.3,-6.8 25.4,-3 L25.7,-2 C26.5,0.6 26.9,2.8 26.9,4.5 C26.9,5.7 26.7,6.8 26.3,7.6 C25.7,8.7 24.7,9.4 23,9.8 C22.1,10 20.6,10.1 20.6,10.1 C20.1,10.1 19.7,10.2 19.3,10.2 C16.1,10.2 14.1,9 12.7,4.7 C11.5,1 11.3,-0.1 10.4,-4.5"/>
<path class="Note" transform="matrix(2.3811,0,0,2.3811,626.933,1540.63)" d="M18.7,-13.6 C4.9,-13.6 0,-6.6 0,-0.1 C0,6.4 4.9,13.4 18.7,13.4 C32.5,13.4 37.3,6.4 37.3,-0.1 C37.3,-6.6 32.5,-13.6 18.7,-13.6 M10.4,-4.5 C10.3,-4.9 10.3,-5.3 10.3,-5.7 C10.3,-6.5 10.5,-7.3 10.9,-8 C11.6,-9 12.8,-9.7 14.3,-10 C15.6,-10.3 16.3,-10.5 18.9,-10.5 L19,-10.5 C23,-10.5 24.3,-6.8 25.4,-3 L25.7,-2 C26.5,0.6 26.9,2.8 26.9,4.5 C26.9,5.7 26.7,6.8 26.3,7.6 C25.7,8.7 24.7,9.4 23,9.8 C22.1,10 20.6,10.1 20.6,10.1 C20.1,10.1 19.7,10.2 19.3,10.2 C16.1,10.2 14.1,9 12.7,4.7 C11.5,1 11.3,-0.1 10.4,-4.5"/>
<path class="Note" transform="matrix(2.3811,0,0,2.3811,1007.33,1629.92)" d="M18.7,-13.6 C4.9,-13.6 0,-6.6 0,-0.1 C0,6.4 4.9,13.4 18.7,13.4 C32.5,13.4 37.3,6.4 37.3,-0.1 C37.3,-6.6 32.5,-13.6 18.7,-13.6 M10.4,-4.5 C10.3,-4.9 10.3,-5.3 10.3,-5.7 C10.3,-6.5 10.5,-7.3 10.9,-8 C11.6,-9 12.8,-9.7 14.3,-10 C15.6,-10.3 16.3,-10.5 18.9,-10.5 L19,-10.5 C23,-10.5 24.3,-6.8 25.4,-3 L25.7,-2 C26.5,0.6 26.9,2.8 26.9,4.5 C26.9,5.7 26.7,6.8 26.3,7.6 C25.7,8.7 24.7,9.4 23,9.8 C22.1,10 20.6,10.1 20.6,10.1 C20.1,10.1 19.7,10.2 19.3,10.2 C16.1,10.2 14.1,9 12.7,4.7 C11.5,1 11.3,-0.1 10.4,-4.5"/>
<path class="Note" transform="matrix(2.3811,0,0,2.3811,1007.33,1540.63)" d="M18.7,-13.6 C4.9,-13.6 0,-6.6 0,-0.1 C0,6.4 4.9,13.4 18.7,13.4 C32.5,13.4 37.3,6.4 37.3,-0.1 C37.3,-6.6 32.5,-13.6 18.7,-13.6 M10.4,-4.5 C10.3,-4.9 10.3,-5.3 10.3,-5.7 C10.3,-6.5 10.5,-7.3 10.9,-8 C11.6,-9 12.8,-9.7 14.3,-10 C15.6,-10.3 16.3,-10.5 18.9,-10.5 L19,-10.5 C23,-10.5 24.3,-6.8 25.4,-3 L25.7,-2 C26.5,0.6 26.9,2.8 26.9,4.5 C26.9,5.7 26.7,6.8 26.3,7.6 C25.7,8.7 24.7,9.4 23,9.8 C22.1,10 20.6,10.1 20.6,10.1 C20.1,10.1 19.7,10.2 19.3,10.2 C16.1,10.2 14.1,9 12.7,4.7 C11.5,1 11.3,-0.1 10.4,-4.5"/>
<path class="Note" transform="matrix(2.3811,0,0,2.3811,1414.63,1659.69)" d="M18.7,-13.6 C4.9,-13.6 0,-6.6 0,-0.1 C0,6.4 4.9,13.4 18.7,13.4 C32.5,13.4 37.3,6.4 37.3,-0.1 C37.3,-6.6 32.5,-13.6 18.7,-13.6 M10.4,-4.5 C10.3,-4.9 10.3,-5.3 10.3,-5.7 C10.3,-6.5 10.5,-7.3 10.9,-8 C11.6,-9 12.8,-9.7 14.3,-10 C15.6,-10.3 16.3,-10.5 18.9,-10.5 L19,-10.5 C23,-10.5 24.3,-6.8 25.4,-3 L25.7,-2 C26.5,0.6 26.9,2.8 26.9,4.5 C26.9,5.7 26.7,6.8 26.3,7.6 C25.7,8.7 24.7,9.4 23,9.8 C22.1,10 20.6,10.1 20.6,10.1 C20.1,10.1 19.7,10.2 19.3,10.2 C16.1,10.2 14.1,9 12.7,4.7 C11.5,1 11.3,-0.1 10.4,-4.5"/>
<path class="Note" transform="matrix(2.3811,0,0,2.3811,1496.89,1629.92)" d="M18.7,-13.6 C4.9,-13.6 0,-6.6 0,-0.1 C0,6.4 4.9,13.4 18.7,13.4 C32.5,13.4 37.3,6.4 37.3,-0.1 C37.3,-6.6 32.5,-13.6 18.7,-13.6 M10.4,-4.5 C10.3,-4.9 10.3,-5.3 10.3,-5.7 C10.3,-6.5 10.5,-7.3 10.9,-8 C11.6,-9 12.8,-9.7 14.3,-10 C15.6,-10.3 16.3,-10.5 18.9,-10.5 L19,-10.5 C23,-10.5 24.3,-6.8 25.4,-3 L25.7,-2 C26.5,0.6 26.9,2.8 26.9,4.5 C26.9,5.7 26.7,6.8 26.3,7.6 C25.7,8.7 24.7,9.4 23,9.8 C22.1,10 20.6,10.1 20.6,10.1 C20.1,10.1 19.7,10.2 19.3,10.2 C16.1,10.2 14.1,9 12.7,4.7 C11.5,1 11.3,-0.1 10.4,-4.5"/>
<path class="Note" transform="matrix(2.3811,0,0,2.3811,1414.63,1570.39)" d="M18.7,-13.6 C4.9,-13.6 0,-6.6 0,-0.1 C0,6.4 4.9,13.4 18.7,13.4 C32.5,13.4 37.3,6.4 37.3,-0.1 C37.3,-6.6 32.5,-13.6 18.7,-13.6 M10.4,-4.5 C10.3,-4.9 10.3,-5.3 10.3,-5.7 C10.3,-6.5 10.5,-7.3 10.9,-8 C11.6,-9 12.8,-9.7 14.3,-10 C15.6,-10.3 16.3,-10.5 18.9,-10.5 L19,-10.5 C23,-10.5 24.3,-6.8 25.4,-3 L25.7,-2 C26.5,0.6 26.9,2.8 26.9,4.5 C26.9,5.7 26.7,6.8 26.3,7.6 C25.7,8.7 24.7,9.4 23,9.8 C22.1,10 20.6,10.1 20.6,10.1 C20.1,10.1 19.7,10.2 19.3,10.2 C16.1,10.2 14.1,9 12.7,4.7 C11.5,1 11.3,-0.1 10.4,-4.5"/>
<path class="Note" transform="matrix(2.3811,0,0,2.3811,1956.24,1689.45)" d="M18.7,-13.6 C4.9,-13.6 0,-6.6 0,-0.1 C0,6.4 4.9,13.4 18.7,13.4 C32.5,13.4 37.3,6.4 37.3,-0.1 C37.3,-6.6 32.5,-13.6 18.7,-13.6 M10.4,-4.5 C10.3,-4.9 10.3,-5.3 10.3,-5.7 C10.3,-6.5 10.5,-7.3 10.9,-8 C11.6,-9 12.8,-9.7 14.3,-10 C15.6,-10.3 16.3,-10.5 18.9,-10.5 L19,-10.5 C23,-10.5 24.3,-6.8 25.4,-3 L25.7,-2 C26.5,0.6 26.9,2.8 26.9,4.5 C26.9,5.7 26.7,6.8 26.3,7.6 C25.7,8.7 24.7,9.4 23,9.8 C22.1,10 20.6,10.1 20.6,10.1 C20.1,10.1 19.7,10.2 19.3,10.2 C16.1,10.2 14.1,9 12.7,4.7 C11.5,1 11.3,-0.1 10.4,-4.5"/>
<path class="Note" transform="matrix(2.3811,0,0,2.3811,1956.24,1629.92)" d="M18.7,-13.6 C4.9,-13.6 0,-6.6 0,-0.1 C0,6.4 4.9,13.4 18.7,13.4 C32.5,13.4 37.3,6.4 37.3,-0.1 C37.3,-6.6 32.5,-13.6 18.7,-13.6 M10.4,-4.5 C10.3,-4.9 10.3,-5.3 10.3,-5.7 C10.3,-6.5 10.5,-7.3 10.9,-8 C11.6,-9 12.8,-9.7 14.3,-10 C15.6,-10.3 16.3,-10.5 18.9,-10.5 L19,-10.5 C23,-10.5 24.3,-6.8 25.4,-3 L25.7,-2 C26.5,0.6 26.9,2.8 26.9,4.5 C26.9,5.7 26.7,6.8 26.3,7.6 C25.7,8.7 24.7,9.4 23,9.8 C22.1,10 20.6,10.1 20.6,10.1 C20.1,10.1 19.7,10.2 19.3,10.2 C16.1,10.2 14.1,9 12.7,4.7 C11.5,1 11.3,-0.1 10.4,-4.5"/>
<path class="Note" transform="matrix(2.3811,0,0,2.3811,1956.24,1540.63)" d="M18.7,-13.6 C4.9,-13.6 0,-6.6 0,-0.1 C0,6.4 4.9,13.4 18.7,13.4 C32.5,13.4 37.3,6.4 37.3,-0.1 C37.3,-6.6 32.5,-13.6 18.7,-13.6 M10.4,-4.5 C10.3,-4.9 10.3,-5.3 10.3,-5.7 C10.3,-6.5 10.5,-7.3 10.9,-8 C11.6,-9 12.8,-9.7 14.3,-10 C15.6,-10.3 16.3,-10.5 18.9,-10.5 L19,-10.5 C23,-10.5 24.3,-6.8 25.4,-3 L25.7,-2 C26.5,0.6 26.9,2.8 26.9,4.5 C26.9,5.7 26.7,6.8 26.3,7.6 C25.7,8.7 24.7,9.4 23,9.8 C22.1,10 20.6,10.1 20.6,10.1 C20.1,10.1 19.7,10.2 19.3,10.2 C16.1,10.2 14.1,9 12.7,4.7 C11.5,1 11.3,-0.1 10.4,-4.5"/>
<path class="Note" transform="matrix(2.3811,0,0,2.3811,2399.13,1689.45)" d="M18.7,-13.6 C4.9,-13.6 0,-6.6 0,-0.1 C0,6.4 4.9,13.4 18.7,13.4 C32.5,13.4 37.3,6.4 37.3,-0.1 C37.3,-6.6 32.5,-13.6 18.7,-13.6 M10.4,-4.5 C10.3,-4.9 10.3,-5.3 10.3,-5.7 C10.3,-6.5 10.5,-7.3 10.9,-8 C11.6,-9 12.8,-9.7 14.3,-10 C15.6,-10.3 16.3,-10.5 18.9,-10.5 L19,-10.5 C23,-10.5 24.3,-6.8 25.4,-3 L25.7,-2 C26.5,0.6 26.9,2.8 26.9,4.5 C26.9,5.7 26.7,6.8 26.3,7.6 C25.7,8.7 24.7,9.4 23,9.8 C22.1,10 20.6,10.1 20.6,10.1 C20.1,10.1 19.7,10.2 19.3,10.2 C16.1,10.2 14.1,9 12.7,4.7 C11.5,1 11.3,-0.1 10.4,-4.5"/>
<path class="Note" transform="matrix(2.3811,0,0,2.3811,2399.13,1629.92)" d="M18.7,-13.6 C4.9,-13.6 0,-6.6 0,-0.1 C0,6.4 4.9,13.4 18.7,13.4 C32.5,13.4 37.3,6.4 37.3,-0.1 C37.3,-6.6 32.5,-13.6 18.7,-13.6 M10.4,-4.5 C10.3,-4.9 10.3,-5.3 10.3,-5.7 C10.3,-6.5 10.5,-7.3 10.9,-8 C11.6,-9 12.8,-9.7 14.3,-10 C15.6,-10.3 16.3,-10.5 18.9,-10.5 L19,-10.5 C23,-10.5 24.3,-6.8 25.4,-3 L25.7,-2 C26.5,0.6 26.9,2.8 26.9,4.5 C26.9,5.7 26.7,6.8 26.3,7.6 C25.7,8.7 24.7,9.4 23,9.8 C22.1,10 20.6,10.1 20.6,10.1 C20.1,10.1 19.7,10.2 19.3,10.2 C16.1,10.2 14.1,9 12.7,4.7 C11.5,1 11.3,-0.1 10.4,-4.5"/>
<path class="Note" transform="matrix(2.3811,0,0,2.3811,2399.13,1540.63)" d="M18.7,-13.6 C4.9,-13.6 0,-6.6 0,-0.1 C0,6.4 4.9,13.4 18.7,13.4 C32.5,13.4 37.3,6.4 37.3,-0.1 C37.3,-6.6 32.5,-13.6 18.7,-13.6 M10.4,-4.5 C10.3,-4.9 10.3,-5.3 10.3,-5.7 C10.3,-6.5 10.5,-7.3 10.9,-8 C11.6,-9 12.8,-9.7 14.3,-10 C15.6,-10.3 16.3,-10.5 18.9,-10.5 L19,-10.5 C23,-10.5 24.3,-6.8 25.4,-3 L25.7,-2 C26.5,0.6 26.9,2.8 26.9,4.5 C26.9,5.7 26.7,6.8 26.3,7.6 C25.7,8.7 24.7,9.4 23,9.8 C22.1,10 20.6,10.1 20.6,10.1 C20.1,10.1 19.7,10.2 19.3,10.2 C16.1,10.2 14.1,9 12.7,4.7 C11.5,1 11.3,-0.1 10.4,-4.5"/>
<path class="Note" transform="matrix(2.3811,0,0,2.3811,2779.91,1659.69)" d="M18.7,-13.6 C4.9,-13.6 0,-6.6 0,-0.1 C0,6.4 4.9,13.4 18.7,13.4 C32.5,13.4 37.3,6.4 37.3,-0.1 C37.3,-6.6 32.5,-13.6 18.7,-13.6 M10.4,-4.5 C10.3,-4.9 10.3,-5.3 10.3,-5.7 C10.3,-6.5 10.5,-7.3 10.9,-8 C11.6,-9 12.8,-9.7 14.3,-10 C15.6,-10.3 16.3,-10.5 18.9,-10.5 L19,-10.5 C23,-10.5 24.3,-6.8 25.4,-3 L25.7,-2 C26.5,0.6 26.9,2.8 26.9,4.5 C26.9,5.7 26.7,6.8 26.3,7.6 C25.7,8.7 24.7,9.4 23,9.8 C22.1,10 20.6,10.1 20.6,10.1 C20.1,10.1 19.7,10.2 19.3,10.2 C16.1,10.2 14.1,9 12.7,4.7 C11.5,1 11.3,-0.1 10.4,-4.5"/>
<path class="Note" transform="matrix(2.3811,0,0,2.3811,2779.91,1600.16)" d="M18.7,-13.6 C4.9,-13.6 0,-6.6 0,-0.1 C0,6.4 4.9,13.4 18.7,13.4 C32.5,13.4 37.3,6.4 37.3,-0.1 C37.3,-6.6 32.5,-13.6 18.7,-13.6 M10.4,-4.5 C10.3,-4.9 10.3,-5.3 10.3,-5.7 C10.3,-6.5 10.5,-7.3 10.9,-8 C11.6,-9 12.8,-9.7 14.3,-10 C15.6,-10.3 16.3,-10.5 18.9,-10.5 L19,-10.5 C23,-10.5 24.3,-6.8 25.4,-3 L25.7,-2 C26.5,0.6 26.9,2.8 26.9,4.5 C26.9,5.7 26.7,6.8 26.3,7.6 C25.7,8.7 24.7,9.4 23,9.8 C22.1,10 20.6,10.1 20.6,10.1 C20.1,10.1 19.7,10.2 19.3,10.2 C16.1,10.2 14.1,9 12.7,4.7 C11.5,1 11.3,-0.1 10.4,-4.5"/>
<path class="Note" transform="matrix(2.3811,0,0,2.3811,2779.91,1540.63)" d="M18.7,-13.6 C4.9,-13.6 0,-6.6 0,-0.1 C0,6.4 4.9,13.4 18.7,13.4 C32.5,13.4 37.3,6.4 37.3,-0.1 C37.3,-6.6 32.5,-13.6 18.7,-13.6 M10.4,-4.5 C10.3,-4.9 10.3,-5.3 10.3,-5.7 C10.3,-6.5 10.5,-7.3 10.9,-8 C11.6,-9 12.8,-9.7 14.3,-10 C15.6,-10.3 16.3,-10.5 18.9,-10.5 L19,-10.5 C23,-10.5 24.3,-6.8 25.4,-3 L25.7,-2 C26.5,0.6 26.9,2.8 26.9,4.5 C26.9,5.7 26.7,6.8 26.3,7.6 C25.7,8.7 24.7,9.4 23,9.8 C22.1,10 20.6,10.1 20.6,10.1 C20.1,10.1 19.7,10.2 19.3,10.2 C16.1,10.2 14.1,9 12.7,4.7 C11.5,1 11.3,-0.1 10.4,-4.5"/>
<path class="Note" transform="matrix(2.3811,0,0,2.3811,3249.45,1689.45)" d="M18.7,-13.6 C4.9,-13.6 0,-6.6 0,-0.1 C0,6.4 4.9,13.4 18.7,13.4 C32.5,13.4 37.3,6.4 37.3,-0.1 C37.3,-6.6 32.5,-13.6 18.7,-13.6 M10.4,-4.5 C10.3,-4.9 10.3,-5.3 10.3,-5.7 C10.3,-6.5 10.5,-7.3 10.9,-8 C11.6,-9 12.8,-9.7 14.3,-10 C15.6,-10.3 16.3,-10.5 18.9,-10.5 L19,-10.5 C23,-10.5 24.3,-6.8 25.4,-3 L25.7,-2 C26.5,0.6 26.9,2.8 26.9,4.5 C26.9,5.7 26.7,6.8 26.3,7.6 C25.7,8.7 24.7,9.4 23,9.8 C22.1,10 20.6,10.1 20.6,10.1 C20.1,10.1 19.7,10.2 19.3,10.2 C16.1,10.2 14.1,9 12.7,4.7 C11.5,1 11.3,-0.1 10.4,-4.5"/>
<path class="Note" transform="matrix(2.3811,0,0,2.3811,3249.45,1570.39)" d="M18.7,-13.6 C4.9,-13.6 0,-6.6 0,-0.1 C0,6.4 4.9,13.4 18.7,13.4 C32.5,13.4 37.3,6.4 37.3,-0.1 C37.3,-6.6 32.5,-13.6 18.7,-13.6 M10.4,-4.5 C10.3,-4.9 10.3,-5.3 10.3,-5.7 C10.3,-6.5 10.5,-7.3 10.9,-8 C11.6,-9 12.8,-9.7 14.3,-10 C15.6,-10.3 16.3,-10.5 18.9,-10.5 L19,-10.5 C23,-10.5 24.3,-6.8 25.4,-3 L25.7,-2 C26.5,0.6 26.9,2.8 26.9,4.5 C26.9,5.7 26.7,6.8 26.3,7.6 C25.7,8.7 24.7,9.4 23,9.8 C22.1,10 20.6,10.1 20.6,10.1 C20.1,10.1 19.7,10.2 19.3,10.2 C16.1,10.2 14.1,9 12.7,4.7 C11.5,1 11.3,-0.1 10.4,-4.5"/>
<path class="Note" transform="matrix(2.3811,0,0,2.3811,3331.71,1540.63)" d="M18.7,-13.6 C4.9,-13.6 0,-6.6 0,-0.1 C0,6.4 4.9,13.4 18.7,13.4 C32.5,13.4 37.3,6.4 37.3,-0.1 C37.3,-6.6 32.5,-13.6 18.7,-13.6 M10.4,-4.5 C10.3,-4.9 10.3,-5.3 10.3,-5.7 C10.3,-6.5 10.5,-7.3 10.9,-8 C11.6,-9 12.8,-9.7 14.3,-10 C15.6,-10.3 16.3,-10.5 18.9,-10.5 L19,-10.5 C23,-10.5 24.3,-6.8 25.4,-3 L25.7,-2 C26.5,0.6 26.9,2.8 26.9,4.5 C26.9,5.7 26.7,6.8 26.3,7.6 C25.7,8.7 24.7,9.4 23,9.8 C22.1,10 20.6,10.1 20.6,10.1 C20.1,10.1 19.7,10.2 19.3,10.2 C16.1,10.2 14.1,9 12.7,4.7 C11.5,1 11.3,-0.1 10.4,-4.5"/>
<path class="Note" transform="matrix(2.3811,0,0,2.3811,3749.87,1659.69)" d="M18.7,-13.6 C4.9,-13.6 0,-6.6 0,-0.1 C0,6.4 4.9,13.4 18.7,13.4 C32.5,13.4 37.3,6.4 37.3,-0.1 C37.3,-6.6 32.5,-13.6 18.7,-13.6 M10.4,-4.5 C10.3,-4.9 10.3,-5.3 10.3,-5.7 C10.3,-6.5 10.5,-7.3 10.9,-8 C11.6,-9 12.8,-9.7 14.3,-10 C15.6,-10.3 16.3,-10.5 18.9,-10.5 L19,-10.5 C23,-10.5 24.3,-6.8 25.4,-3 L25.7,-2 C26.5,0.6 26.9,2.8 26.9,4.5 C26.9,5.7 26.7,6.8 26.3,7.6 C25.7,8.7 24.7,9.4 23,9.8 C22.1,10 20.6,10.1 20.6,10.1 C20.1,10.1 19.7,10.2 19.3,10.2 C16.1,10.2 14.1,9 12.7,4.7 C11.5,1 11.3,-0.1 10.4,-4.5"/>
<path class="Note" transform="matrix(2.3811,0,0,2.3811,3749.87,1600.16)" d="M18.7,-13.6 C4.9,-13.6 0,-6.6 0,-0.1 C0,6.4 4.9,13.4 18.7,13.4 C32.5,13.4 37.3,6.4 37.3,-0.1 C37.3,-6.6 32.5,-13.6 18.7,-13.6 M10.4,-4.5 C10.3,-4.9 10.3,-5.3 10.3,-5.7 C10.3,-6.5 10.5,-7.3 10.9,-8 C11.6,-9 12.8,-9.7 14.3,-10 C15.6,-10.3 16.3,-10.5 18.9,-10.5 L19,-10.5 C23,-10.5 24.3,-6.8 25.4,-3 L25.7,-2 C26.5,0.6 26.9,2.8 26.9,4.5 C26.9,5.7 26.7,6.8 26.3,7.6 C25.7,8.7 24.7,9.4 23,9.8 C22.1,10 20.6,10.1 20.6,10.1 C20.1,10.1 19.7,10.2 19.3,10.2 C16.1,10.2 14.1,9 12.7,4.7 C11.5,1 11.3,-0.1 10.4,-4.5"/>
<path class="Note" transform="matrix(2.3811,0,0,2.3811,3749.87,1540.63)" d="M18.7,-13.6 C4.9,-13.6 0,-6.6 0,-0.1 C0,6.4 4.9,13.4 18.7,13.4 C32.5,13.4 37.3,6.4 37.3,-0.1 C37.3,-6.6 32.5,-13.6 18.7,-13.6 M10.4,-4.5 C10.3,-4.9 10.3,-5.3 10.3,-5.7 C10.3,-6.5 10.5,-7.3 10.9,-8 C11.6,-9 12.8,-9.7 14.3,-10 C15.6,-10.3 16.3,-10.5 18.9,-10.5 L19,-10.5 C23,-10.5 24.3,-6.8 25.4,-3 L25.7,-2 C26.5,0.6 26.9,2.8 26.9,4.5 C26.9,5.7 26.7,6.8 26.3,7.6 C25.7,8.7 24.7,9.4 23,9.8 C22.1,10 20.6,10.1 20.6,10.1 C20.1,10.1 19.7,10.2 19.3,10.2 C16.1,10.2 14.1,9 12.7,4.7 C11.5,1 11.3,-0.1 10.4,-4.5"/>
<path class="Note" d="M705.752,851.839 C710.323,851.839 712.608,854.705 712.608,860.438 C712.608,864.467 710.09,870.471 705.055,878.451 C701.026,884.881 699.012,891.157 699.012,897.277 C699.012,900.763 704.086,902.507 714.235,902.507 C722.602,902.507 734.262,897.974 749.215,888.91 C734.185,903.398 721.13,910.641 710.052,910.641 C700.058,910.641 693.085,909.131 689.134,906.109 C688.127,905.334 687.274,904.405 686.577,903.32 C682.703,908.046 676.234,910.409 667.17,910.409 C658.493,910.409 651.83,908.627 647.182,905.063 C644.083,902.662 642.533,898.827 642.533,893.558 C642.533,885.191 647.491,876.049 657.408,866.133 C668.022,855.519 680.302,850.212 694.247,850.212 C697.733,850.212 700.29,851.49 701.917,854.047 C703.234,852.575 704.512,851.839 705.752,851.839 M684.95,898.091 C684.873,897.471 684.834,896.851 684.834,896.231 C684.834,895.921 688.785,885.114 696.687,863.808 C697.462,861.717 698.237,859.935 699.012,858.463 C695.99,857.843 693.007,857.533 690.063,857.533 C684.64,857.533 677.435,862.143 668.448,871.362 C660.391,879.574 656.362,886.663 656.362,892.629 C656.362,899.214 659.5,902.507 665.775,902.507 C673.368,902.507 679.759,901.035 684.95,898.091"/>
<path class="Note" d="M712.841,581.059 C723.3,574.474 730.892,569.09 735.618,564.906 C744.295,557.236 748.634,549.489 748.634,541.664 C748.634,532.522 742.513,527.951 730.272,527.951 C717.412,527.951 704.009,537.209 690.063,555.725 C680.612,568.276 673.91,580.13 669.959,591.286 C674.84,588.11 679.992,586.521 685.415,586.521 C690.528,586.521 694.596,588.807 697.617,593.378 C699.709,596.554 700.755,601.977 700.755,609.647 C700.755,616.542 697.114,624.638 689.831,633.935 C685.338,639.668 680.34,642.535 674.84,642.535 C667.867,642.535 662.986,641.14 660.197,638.351 C656.246,634.4 654.27,626.575 654.27,614.877 C654.27,595.198 662.212,575.83 678.094,556.771 C695.99,535.311 713.151,524.581 729.575,524.581 C742.281,524.581 751.771,527.564 758.047,533.529 C761.688,537.015 763.509,542.051 763.509,548.637 C763.509,555.997 756.265,564.209 741.777,573.273 C734.185,578.077 724.539,580.672 712.841,581.059 M668.448,596.167 C666.511,602.675 665.543,608.911 665.543,614.877 C665.543,629.055 667.79,636.143 672.283,636.143 C676.544,636.143 679.876,633.122 682.277,627.079 C685.066,620.261 686.461,612.707 686.461,604.418 C686.461,597.058 684.02,593.378 679.14,593.378 C675.731,593.378 672.167,594.307 668.448,596.167"/>
<path class="Note" d="M705.752,494.673 C710.323,494.673 712.608,497.54 712.608,503.273 C712.608,507.302 710.09,513.306 705.055,521.286 C701.026,527.716 699.012,533.991 699.012,540.112 C699.012,543.598 704.086,545.341 714.235,545.341 C722.602,545.341 734.262,540.809 749.215,531.745 C734.185,546.232 721.13,553.476 710.052,553.476 C700.058,553.476 693.085,551.965 689.134,548.944 C688.127,548.169 687.274,547.239 686.577,546.155 C682.703,550.881 676.234,553.244 667.17,553.244 C658.493,553.244 651.83,551.462 647.182,547.898 C644.083,545.496 642.533,541.661 642.533,536.393 C642.533,528.026 647.491,518.884 657.408,508.967 C668.022,498.353 680.302,493.046 694.247,493.046 C697.733,493.046 700.29,494.325 701.917,496.881 C703.234,495.409 704.512,494.673 705.752,494.673 M684.95,540.925 C684.873,540.305 684.834,539.686 684.834,539.066 C684.834,538.756 688.785,527.948 696.687,506.643 C697.462,504.551 698.237,502.769 699.012,501.297 C695.99,500.678 693.007,500.368 690.063,500.368 C684.64,500.368 677.435,504.977 668.448,514.197 C660.391,522.409 656.362,529.498 656.362,535.463 C656.362,542.049 659.5,545.341 665.775,545.341 C673.368,545.341 679.759,543.869 684.95,540.925"/>
<path class="Note" d="M975.061,945.081 C975.37,933.383 981.84,923.001 994.468,913.937 C1005.7,905.879 1017.98,901.851 1031.31,901.851 C1049.98,901.851 1066.44,909.172 1080.7,923.815 C1089.76,933.189 1094.29,944.81 1094.29,958.678 C1094.29,971.151 1090.96,980.719 1084.3,987.382 C1076.16,995.594 1067.56,999.7 1058.5,999.7 C1052.3,999.7 1047.5,998.306 1044.09,995.517 C1038.51,990.946 1035.72,984.825 1035.72,977.155 C1035.72,967.239 1040.68,958.174 1050.6,949.962 C1058.73,943.222 1066.91,938.806 1075.12,936.714 C1072.95,932.995 1070.2,929.509 1066.87,926.255 C1056.49,916.106 1044.71,911.031 1031.54,911.031 C1017.83,911.031 1006.48,914.014 997.489,919.98 C988.192,926.1 980.716,934.467 975.061,945.081 M1078.02,942.873 C1073.76,946.824 1069.5,951.047 1065.24,955.54 C1056.87,964.372 1052.69,972.739 1052.69,980.642 C1052.69,989.086 1054.63,993.309 1058.5,993.309 C1061.99,993.309 1066.87,988.544 1073.14,979.015 C1078.18,971.422 1080.7,964.45 1080.7,958.097 C1080.7,952.674 1079.81,947.599 1078.02,942.873"/>
<path class="Note" d="M1086.15,583.965 C1090.72,583.965 1093.01,586.831 1093.01,592.564 C1093.01,596.593 1090.49,602.597 1085.45,610.577 C1081.42,617.007 1079.41,623.283 1079.41,629.403 C1079.41,632.889 1084.48,634.633 1094.63,634.633 C1103,634.633 1114.66,630.1 1129.61,621.036 C1114.58,635.524 1101.53,642.767 1090.45,642.767 C1080.45,642.767 1073.48,641.257 1069.53,638.235 C1068.52,637.46 1067.67,636.531 1066.97,635.446 C1063.1,640.172 1056.63,642.535 1047.57,642.535 C1038.89,642.535 1032.23,640.753 1027.58,637.189 C1024.48,634.788 1022.93,630.953 1022.93,625.684 C1022.93,617.317 1027.89,608.175 1037.81,598.259 C1048.42,587.645 1060.7,582.338 1074.64,582.338 C1078.13,582.338 1080.69,583.616 1082.31,586.173 C1083.63,584.701 1084.91,583.965 1086.15,583.965 M1065.35,630.217 C1065.27,629.597 1065.23,628.977 1065.23,628.357 C1065.23,628.047 1069.18,617.24 1077.08,595.934 C1077.86,593.843 1078.63,592.061 1079.41,590.589 C1076.39,589.969 1073.4,589.659 1070.46,589.659 C1065.04,589.659 1057.83,594.269 1048.85,603.488 C1040.79,611.7 1036.76,618.789 1036.76,624.755 C1036.76,631.34 1039.9,634.633 1046.17,634.633 C1053.77,634.633 1060.16,633.161 1065.35,630.217"/>
<path class="Note" d="M1086.15,494.673 C1090.72,494.673 1093.01,497.54 1093.01,503.273 C1093.01,507.302 1090.49,513.306 1085.45,521.286 C1081.42,527.716 1079.41,533.991 1079.41,540.112 C1079.41,543.598 1084.48,545.341 1094.63,545.341 C1103,545.341 1114.66,540.809 1129.61,531.745 C1114.58,546.232 1101.53,553.476 1090.45,553.476 C1080.45,553.476 1073.48,551.965 1069.53,548.944 C1068.52,548.169 1067.67,547.239 1066.97,546.155 C1063.1,550.881 1056.63,553.244 1047.57,553.244 C1038.89,553.244 1032.23,551.462 1027.58,547.898 C1024.48,545.496 1022.93,541.661 1022.93,536.393 C1022.93,528.026 1027.89,518.884 1037.81,508.967 C1048.42,498.353 1060.7,493.046 1074.64,493.046 C1078.13,493.046 1080.69,494.325 1082.31,496.881 C1083.63,495.409 1084.91,494.673 1086.15,494.673 M1065.35,540.925 C1065.27,540.305 1065.23,539.686 1065.23,539.066 C1065.23,538.756 1069.18,527.948 1077.08,506.643 C1077.86,504.551 1078.63,502.769 1079.41,501.297 C1076.39,500.678 1073.4,500.368 1070.46,500.368 C1065.04,500.368 1057.83,504.977 1048.85,514.197 C1040.79,522.409 1036.76,529.498 1036.76,535.463 C1036.76,542.049 1039.9,545.341 1046.17,545.341 C1053.77,545.341 1060.16,543.869 1065.35,540.925"/>
<path class="Note" d="M1500.54,938.225 C1511,931.639 1518.59,926.255 1523.32,922.071 C1531.99,914.401 1536.33,906.654 1536.33,898.829 C1536.33,889.687 1530.21,885.116 1517.97,885.116 C1505.11,885.116 1491.71,894.374 1477.76,912.891 C1468.31,925.442 1461.61,937.295 1457.66,948.451 C1462.54,945.275 1467.69,943.687 1473.11,943.687 C1478.23,943.687 1482.29,945.972 1485.32,950.543 C1487.41,953.72 1488.45,959.143 1488.45,966.813 C1488.45,973.708 1484.81,981.804 1477.53,991.101 C1473.04,996.834 1468.04,999.7 1462.54,999.7 C1455.57,999.7 1450.69,998.306 1447.9,995.517 C1443.95,991.566 1441.97,983.741 1441.97,972.042 C1441.97,952.364 1449.91,932.995 1465.79,913.937 C1483.69,892.476 1500.85,881.746 1517.27,881.746 C1529.98,881.746 1539.47,884.729 1545.75,890.694 C1549.39,894.181 1551.21,899.217 1551.21,905.802 C1551.21,913.162 1543.96,921.374 1529.48,930.439 C1521.88,935.242 1512.24,937.837 1500.54,938.225 M1456.15,953.332 C1454.21,959.84 1453.24,966.077 1453.24,972.042 C1453.24,986.22 1455.49,993.309 1459.98,993.309 C1464.24,993.309 1467.57,990.287 1469.98,984.244 C1472.77,977.427 1474.16,969.873 1474.16,961.583 C1474.16,954.223 1471.72,950.543 1466.84,950.543 C1463.43,950.543 1459.87,951.473 1456.15,953.332"/>
<path class="Note" d="M1493.45,851.839 C1498.02,851.839 1500.31,854.705 1500.31,860.438 C1500.31,864.467 1497.79,870.471 1492.75,878.451 C1488.73,884.881 1486.71,891.157 1486.71,897.277 C1486.71,900.763 1491.79,902.507 1501.93,902.507 C1510.3,902.507 1521.96,897.974 1536.91,888.91 C1521.88,903.398 1508.83,910.641 1497.75,910.641 C1487.76,910.641 1480.78,909.131 1476.83,906.109 C1475.83,905.334 1474.97,904.405 1474.28,903.32 C1470.4,908.046 1463.93,910.409 1454.87,910.409 C1446.19,910.409 1439.53,908.627 1434.88,905.063 C1431.78,902.662 1430.23,898.827 1430.23,893.558 C1430.23,885.191 1435.19,876.049 1445.11,866.133 C1455.72,855.519 1468,850.212 1481.95,850.212 C1485.43,850.212 1487.99,851.49 1489.62,854.047 C1490.93,852.575 1492.21,851.839 1493.45,851.839 M1472.65,898.091 C1472.57,897.471 1472.53,896.851 1472.53,896.231 C1472.53,895.921 1476.48,885.114 1484.39,863.808 C1485.16,861.717 1485.94,859.935 1486.71,858.463 C1483.69,857.843 1480.71,857.533 1477.76,857.533 C1472.34,857.533 1465.13,862.143 1456.15,871.362 C1448.09,879.574 1444.06,886.663 1444.06,892.629 C1444.06,899.214 1447.2,902.507 1453.47,902.507 C1461.07,902.507 1467.46,901.035 1472.65,898.091"/>
<path class="Note" d="M1493.45,583.965 C1498.02,583.965 1500.31,586.831 1500.31,592.564 C1500.31,596.593 1497.79,602.597 1492.75,610.577 C1488.73,617.007 1486.71,623.283 1486.71,629.403 C1486.71,632.889 1491.79,634.633 1501.93,634.633 C1510.3,634.633 1521.96,630.1 1536.91,621.036 C1521.88,635.524 1508.83,642.767 1497.75,642.767 C1487.76,642.767 1480.78,641.257 1476.83,638.235 C1475.83,637.46 1474.97,636.531 1474.28,635.446 C1470.4,640.172 1463.93,642.535 1454.87,642.535 C1446.19,642.535 1439.53,640.753 1434.88,637.189 C1431.78,634.788 1430.23,630.953 1430.23,625.684 C1430.23,617.317 1435.19,608.175 1445.11,598.259 C1455.72,587.645 1468,582.338 1481.95,582.338 C1485.43,582.338 1487.99,583.616 1489.62,586.173 C1490.93,584.701 1492.21,583.965 1493.45,583.965 M1472.65,630.217 C1472.57,629.597 1472.53,628.977 1472.53,628.357 C1472.53,628.047 1476.48,617.24 1484.39,595.934 C1485.16,593.843 1485.94,592.061 1486.71,590.589 C1483.69,589.969 1480.71,589.659 1477.76,589.659 C1472.34,589.659 1465.13,594.269 1456.15,603.488 C1448.09,611.7 1444.06,618.789 1444.06,624.755 C1444.06,631.34 1447.2,634.633 1453.47,634.633 C1461.07,634.633 1467.46,633.161 1472.65,630.217"/>
<path class="Note" d="M1493.45,762.547 C1498.02,762.547 1500.31,765.414 1500.31,771.147 C1500.31,775.176 1497.79,781.18 1492.75,789.16 C1488.73,795.59 1486.71,801.865 1486.71,807.986 C1486.71,811.472 1491.79,813.215 1501.93,813.215 C1510.3,813.215 1521.96,808.683 1536.91,799.619 C1521.88,814.106 1508.83,821.35 1497.75,821.35 C1487.76,821.35 1480.78,819.839 1476.83,816.818 C1475.83,816.043 1474.97,815.113 1474.28,814.029 C1470.4,818.755 1463.93,821.118 1454.87,821.118 C1446.19,821.118 1439.53,819.336 1434.88,815.772 C1431.78,813.37 1430.23,809.535 1430.23,804.267 C1430.23,795.9 1435.19,786.758 1445.11,776.841 C1455.72,766.227 1468,760.92 1481.95,760.92 C1485.43,760.92 1487.99,762.199 1489.62,764.755 C1490.93,763.283 1492.21,762.547 1493.45,762.547 M1472.65,808.799 C1472.57,808.179 1472.53,807.56 1472.53,806.94 C1472.53,806.63 1476.48,795.822 1484.39,774.517 C1485.16,772.425 1485.94,770.643 1486.71,769.171 C1483.69,768.552 1480.71,768.242 1477.76,768.242 C1472.34,768.242 1465.13,772.851 1456.15,782.071 C1448.09,790.283 1444.06,797.372 1444.06,803.337 C1444.06,809.923 1447.2,813.215 1453.47,813.215 C1461.07,813.215 1467.46,811.743 1472.65,808.799"/>
<path class="Note" d="M1990.78,1118.46 C1986.98,1118.46 1985.08,1114.39 1985.08,1106.26 L1985.08,1072.21 C1985.08,1068.95 1986.67,1067.32 1989.85,1067.32 C1991.24,1067.32 1992.29,1067.44 1992.99,1067.67 C1995.47,1063.34 1999.53,1059.69 2005.19,1056.75 C2013.09,1052.64 2021.11,1050.59 2029.24,1050.59 C2035.67,1050.59 2038.89,1052.99 2038.89,1057.8 C2038.89,1061.82 2036.72,1063.84 2032.38,1063.84 C2029.28,1063.84 2026.34,1063.14 2023.55,1061.75 C2021.07,1060.51 2018.44,1059.89 2015.65,1059.89 C2010.84,1059.89 2003.76,1063.03 1994.38,1069.3 C1995.7,1075.58 1996.36,1082.9 1996.36,1091.26 C1996.36,1109.39 1994.5,1118.46 1990.78,1118.46"/>
<path class="Note" d="M2070.85,973.437 C2064.49,983.431 2054.46,991.721 2040.75,998.306 C2028.82,1004.04 2017.66,1006.91 2007.28,1006.91 C1998.99,1006.91 1992.1,1005.24 1986.59,1001.91 C1980.63,998.267 1977.65,993.929 1977.65,988.893 C1977.65,977.504 1980.63,967.704 1986.59,959.491 C1994.73,948.335 2002.94,942.757 2011.23,942.757 C2017.12,942.757 2021.3,943.919 2023.78,946.243 C2027.19,949.265 2028.9,953.41 2028.9,958.678 C2028.9,966.115 2023.36,972.584 2012.28,978.085 C2001.51,983.431 1994.03,986.917 1989.85,988.544 C1990.78,990.481 1991.98,992.224 1993.45,993.774 C1997.09,997.647 2002.05,999.584 2008.33,999.584 C2016.23,999.584 2026.84,996.679 2040.17,990.868 C2052.95,985.213 2063.18,979.402 2070.85,973.437 M1988.22,983.198 C1994.03,980.254 1999.34,976.807 2004.14,972.856 C2011.27,967.045 2014.83,960.77 2014.83,954.029 C2014.83,950.233 2013.09,948.335 2009.6,948.335 C2006.66,948.335 2002.63,951.705 1997.52,958.445 C1991.09,966.813 1987.87,973.63 1987.87,978.899 C1987.87,980.371 1987.99,981.804 1988.22,983.198"/>
<path class="Note" d="M2035.05,583.965 C2039.63,583.965 2041.91,586.831 2041.91,592.564 C2041.91,596.593 2039.39,602.597 2034.36,610.577 C2030.33,617.007 2028.31,623.283 2028.31,629.403 C2028.31,632.889 2033.39,634.633 2043.54,634.633 C2051.91,634.633 2063.57,630.1 2078.52,621.036 C2063.49,635.524 2050.43,642.767 2039.35,642.767 C2029.36,642.767 2022.39,641.257 2018.44,638.235 C2017.43,637.46 2016.58,636.531 2015.88,635.446 C2012.01,640.172 2005.54,642.535 1996.47,642.535 C1987.8,642.535 1981.13,640.753 1976.48,637.189 C1973.39,634.788 1971.84,630.953 1971.84,625.684 C1971.84,617.317 1976.79,608.175 1986.71,598.259 C1997.32,587.645 2009.6,582.338 2023.55,582.338 C2027.04,582.338 2029.59,583.616 2031.22,586.173 C2032.54,584.701 2033.82,583.965 2035.05,583.965 M2014.25,630.217 C2014.18,629.597 2014.14,628.977 2014.14,628.357 C2014.14,628.047 2018.09,617.24 2025.99,595.934 C2026.76,593.843 2027.54,592.061 2028.31,590.589 C2025.29,589.969 2022.31,589.659 2019.37,589.659 C2013.94,589.659 2006.74,594.269 1997.75,603.488 C1989.69,611.7 1985.66,618.789 1985.66,624.755 C1985.66,631.34 1988.8,634.633 1995.08,634.633 C2002.67,634.633 2009.06,633.161 2014.25,630.217"/>
<path class="Note" d="M2035.05,494.673 C2039.63,494.673 2041.91,497.54 2041.91,503.273 C2041.91,507.302 2039.39,513.306 2034.36,521.286 C2030.33,527.716 2028.31,533.991 2028.31,540.112 C2028.31,543.598 2033.39,545.341 2043.54,545.341 C2051.91,545.341 2063.57,540.809 2078.52,531.745 C2063.49,546.232 2050.43,553.476 2039.35,553.476 C2029.36,553.476 2022.39,551.965 2018.44,548.944 C2017.43,548.169 2016.58,547.239 2015.88,546.155 C2012.01,550.881 2005.54,553.244 1996.47,553.244 C1987.8,553.244 1981.13,551.462 1976.48,547.898 C1973.39,545.496 1971.84,541.661 1971.84,536.393 C1971.84,528.026 1976.79,518.884 1986.71,508.967 C1997.32,498.353 2009.6,493.046 2023.55,493.046 C2027.04,493.046 2029.59,494.325 2031.22,496.881 C2032.54,495.409 2033.82,494.673 2035.05,494.673 M2014.25,540.925 C2014.18,540.305 2014.14,539.686 2014.14,539.066 C2014.14,538.756 2018.09,527.948 2025.99,506.643 C2026.76,504.551 2027.54,502.769 2028.31,501.297 C2025.29,500.678 2022.31,500.368 2019.37,500.368 C2013.94,500.368 2006.74,504.977 1997.75,514.197 C1989.69,522.409 1985.66,529.498 1985.66,535.463 C1985.66,542.049 1988.8,545.341 1995.08,545.341 C2002.67,545.341 2009.06,543.869 2014.25,540.925"/>
<path class="Note" d="M2477.95,1059.89 C2482.52,1059.89 2484.8,1062.75 2484.8,1068.49 C2484.8,1072.52 2482.29,1078.52 2477.25,1086.5 C2473.22,1092.93 2471.21,1099.21 2471.21,1105.33 C2471.21,1108.81 2476.28,1110.56 2486.43,1110.56 C2494.8,1110.56 2506.46,1106.02 2521.41,1096.96 C2506.38,1111.45 2493.33,1118.69 2482.25,1118.69 C2472.25,1118.69 2465.28,1117.18 2461.33,1114.16 C2460.32,1113.38 2459.47,1112.45 2458.77,1111.37 C2454.9,1116.09 2448.43,1118.46 2439.36,1118.46 C2430.69,1118.46 2424.02,1116.68 2419.38,1113.11 C2416.28,1110.71 2414.73,1106.88 2414.73,1101.61 C2414.73,1093.24 2419.69,1084.1 2429.6,1074.18 C2440.22,1063.57 2452.5,1058.26 2466.44,1058.26 C2469.93,1058.26 2472.48,1059.54 2474.11,1062.1 C2475.43,1060.62 2476.71,1059.89 2477.95,1059.89 M2457.14,1106.14 C2457.07,1105.52 2457.03,1104.9 2457.03,1104.28 C2457.03,1103.97 2460.98,1093.16 2468.88,1071.86 C2469.66,1069.77 2470.43,1067.98 2471.21,1066.51 C2468.18,1065.89 2465.2,1065.58 2462.26,1065.58 C2456.83,1065.58 2449.63,1070.19 2440.64,1079.41 C2432.59,1087.62 2428.56,1094.71 2428.56,1100.68 C2428.56,1107.26 2431.69,1110.56 2437.97,1110.56 C2445.56,1110.56 2451.95,1109.08 2457.14,1106.14"/>
<path class="Note" d="M2513.74,973.437 C2507.39,983.431 2497.35,991.721 2483.64,998.306 C2471.71,1004.04 2460.55,1006.91 2450.17,1006.91 C2441.88,1006.91 2434.99,1005.24 2429.49,1001.91 C2423.52,998.267 2420.54,993.929 2420.54,988.893 C2420.54,977.504 2423.52,967.704 2429.49,959.491 C2437.62,948.335 2445.83,942.757 2454.12,942.757 C2460.01,942.757 2464.19,943.919 2466.67,946.243 C2470.08,949.265 2471.79,953.41 2471.79,958.678 C2471.79,966.115 2466.25,972.584 2455.17,978.085 C2444.4,983.431 2436.92,986.917 2432.74,988.544 C2433.67,990.481 2434.87,992.224 2436.34,993.774 C2439.98,997.647 2444.94,999.584 2451.22,999.584 C2459.12,999.584 2469.73,996.679 2483.06,990.868 C2495.84,985.213 2506.07,979.402 2513.74,973.437 M2431.11,983.198 C2436.92,980.254 2442.23,976.807 2447.03,972.856 C2454.16,967.045 2457.73,960.77 2457.73,954.029 C2457.73,950.233 2455.98,948.335 2452.5,948.335 C2449.55,948.335 2445.52,951.705 2440.41,958.445 C2433.98,966.813 2430.76,973.63 2430.76,978.899 C2430.76,980.371 2430.88,981.804 2431.11,983.198"/>
<path class="Note" d="M2477.95,583.965 C2482.52,583.965 2484.8,586.831 2484.8,592.564 C2484.8,596.593 2482.29,602.597 2477.25,610.577 C2473.22,617.007 2471.21,623.283 2471.21,629.403 C2471.21,632.889 2476.28,634.633 2486.43,634.633 C2494.8,634.633 2506.46,630.1 2521.41,621.036 C2506.38,635.524 2493.33,642.767 2482.25,642.767 C2472.25,642.767 2465.28,641.257 2461.33,638.235 C2460.32,637.46 2459.47,636.531 2458.77,635.446 C2454.9,640.172 2448.43,642.535 2439.36,642.535 C2430.69,642.535 2424.02,640.753 2419.38,637.189 C2416.28,634.788 2414.73,630.953 2414.73,625.684 C2414.73,617.317 2419.69,608.175 2429.6,598.259 C2440.22,587.645 2452.5,582.338 2466.44,582.338 C2469.93,582.338 2472.48,583.616 2474.11,586.173 C2475.43,584.701 2476.71,583.965 2477.95,583.965 M2457.14,630.217 C2457.07,629.597 2457.03,628.977 2457.03,628.357 C2457.03,628.047 2460.98,617.24 2468.88,595.934 C2469.66,593.843 2470.43,592.061 2471.21,590.589 C2468.18,589.969 2465.2,589.659 2462.26,589.659 C2456.83,589.659 2449.63,594.269 2440.64,603.488 C2432.59,611.7 2428.56,618.789 2428.56,624.755 C2428.56,631.34 2431.69,634.633 2437.97,634.633 C2445.56,634.633 2451.95,633.161 2457.14,630.217"/>
<path class="Note" d="M2477.95,494.673 C2482.52,494.673 2484.8,497.54 2484.8,503.273 C2484.8,507.302 2482.29,513.306 2477.25,521.286 C2473.22,527.716 2471.21,533.991 2471.21,540.112 C2471.21,543.598 2476.28,545.341 2486.43,545.341 C2494.8,545.341 2506.46,540.809 2521.41,531.745 C2506.38,546.232 2493.33,553.476 2482.25,553.476 C2472.25,553.476 2465.28,551.965 2461.33,548.944 C2460.32,548.169 2459.47,547.239 2458.77,546.155 C2454.9,550.881 2448.43,553.244 2439.36,553.244 C2430.69,553.244 2424.02,551.462 2419.38,547.898 C2416.28,545.496 2414.73,541.661 2414.73,536.393 C2414.73,528.026 2419.69,518.884 2429.6,508.967 C2440.22,498.353 2452.5,493.046 2466.44,493.046 C2469.93,493.046 2472.48,494.325 2474.11,496.881 C2475.43,495.409 2476.71,494.673 2477.95,494.673 M2457.14,540.925 C2457.07,540.305 2457.03,539.686 2457.03,539.066 C2457.03,538.756 2460.98,527.948 2468.88,506.643 C2469.66,504.551 2470.43,502.769 2471.21,501.297 C2468.18,500.678 2465.2,500.368 2462.26,500.368 C2456.83,500.368 2449.63,504.977 2440.64,514.197 C2432.59,522.409 2428.56,529.498 2428.56,535.463 C2428.56,542.049 2431.69,545.341 2437.97,545.341 C2445.56,545.341 2451.95,543.869 2457.14,540.925"/>
<path class="Note" d="M2786.38,1105.33 C2785.99,1106.02 2785.41,1106.37 2784.64,1106.37 C2783.94,1106.37 2783.05,1106.06 2781.96,1105.44 C2780.34,1104.51 2779.52,1103.58 2779.52,1102.65 C2779.52,1102.34 2779.64,1101.96 2779.87,1101.49 C2797.61,1075.92 2808.69,1054.39 2813.11,1036.88 C2813.42,1036.34 2813.96,1036.06 2814.74,1036.06 C2815.74,1036.06 2817.18,1036.61 2819.04,1037.69 C2821.59,1039.16 2822.87,1040.48 2822.87,1041.64 C2822.87,1041.95 2822.79,1042.22 2822.64,1042.46 C2816.75,1059.19 2804.66,1080.15 2786.38,1105.33 M2869.93,1059.89 C2874.5,1059.89 2876.79,1062.75 2876.79,1068.49 C2876.79,1072.52 2874.27,1078.52 2869.23,1086.5 C2865.2,1092.93 2863.19,1099.21 2863.19,1105.33 C2863.19,1108.81 2868.26,1110.56 2878.41,1110.56 C2886.78,1110.56 2898.44,1106.02 2913.39,1096.96 C2898.36,1111.45 2885.31,1118.69 2874.23,1118.69 C2864.24,1118.69 2857.26,1117.18 2853.31,1114.16 C2852.3,1113.38 2851.45,1112.45 2850.76,1111.37 C2846.88,1116.09 2840.41,1118.46 2831.35,1118.46 C2822.67,1118.46 2816.01,1116.68 2811.36,1113.11 C2808.26,1110.71 2806.71,1106.88 2806.71,1101.61 C2806.71,1093.24 2811.67,1084.1 2821.59,1074.18 C2832.2,1063.57 2844.48,1058.26 2858.42,1058.26 C2861.91,1058.26 2864.47,1059.54 2866.09,1062.1 C2867.41,1060.62 2868.69,1059.89 2869.93,1059.89 M2849.13,1106.14 C2849.05,1105.52 2849.01,1104.9 2849.01,1104.28 C2849.01,1103.97 2852.96,1093.16 2860.87,1071.86 C2861.64,1069.77 2862.41,1067.98 2863.19,1066.51 C2860.17,1065.89 2857.19,1065.58 2854.24,1065.58 C2848.82,1065.58 2841.61,1070.19 2832.63,1079.41 C2824.57,1087.62 2820.54,1094.71 2820.54,1100.68 C2820.54,1107.26 2823.68,1110.56 2829.95,1110.56 C2837.55,1110.56 2843.94,1109.08 2849.13,1106.14"/>
<path class="Note" d="M2858.73,851.839 C2863.3,851.839 2865.58,854.705 2865.58,860.438 C2865.58,864.467 2863.06,870.471 2858.03,878.451 C2854,884.881 2851.98,891.157 2851.98,897.277 C2851.98,900.763 2857.06,902.507 2867.21,902.507 C2875.58,902.507 2887.24,897.974 2902.19,888.91 C2887.16,903.398 2874.1,910.641 2863.02,910.641 C2853.03,910.641 2846.06,909.131 2842.11,906.109 C2841.1,905.334 2840.25,904.405 2839.55,903.32 C2835.68,908.046 2829.21,910.409 2820.14,910.409 C2811.47,910.409 2804.8,908.627 2800.15,905.063 C2797.06,902.662 2795.51,898.827 2795.51,893.558 C2795.51,885.191 2800.46,876.049 2810.38,866.133 C2821,855.519 2833.27,850.212 2847.22,850.212 C2850.71,850.212 2853.26,851.49 2854.89,854.047 C2856.21,852.575 2857.49,851.839 2858.73,851.839 M2837.92,898.091 C2837.85,897.471 2837.81,896.851 2837.81,896.231 C2837.81,895.921 2841.76,885.114 2849.66,863.808 C2850.44,861.717 2851.21,859.935 2851.98,858.463 C2848.96,857.843 2845.98,857.533 2843.04,857.533 C2837.61,857.533 2830.41,862.143 2821.42,871.362 C2813.36,879.574 2809.34,886.663 2809.34,892.629 C2809.34,899.214 2812.47,902.507 2818.75,902.507 C2826.34,902.507 2832.73,901.035 2837.92,898.091"/>
<path class="Note" d="M2865.81,581.059 C2876.27,574.474 2883.87,569.09 2888.59,564.906 C2897.27,557.236 2901.61,549.489 2901.61,541.664 C2901.61,532.522 2895.49,527.951 2883.25,527.951 C2870.39,527.951 2856.98,537.209 2843.04,555.725 C2833.58,568.276 2826.88,580.13 2822.93,591.286 C2827.81,588.11 2832.97,586.521 2838.39,586.521 C2843.5,586.521 2847.57,588.807 2850.59,593.378 C2852.68,596.554 2853.73,601.977 2853.73,609.647 C2853.73,616.542 2850.09,624.638 2842.8,633.935 C2838.31,639.668 2833.31,642.535 2827.81,642.535 C2820.84,642.535 2815.96,641.14 2813.17,638.351 C2809.22,634.4 2807.24,626.575 2807.24,614.877 C2807.24,595.198 2815.18,575.83 2831.07,556.771 C2848.96,535.311 2866.12,524.581 2882.55,524.581 C2895.25,524.581 2904.74,527.564 2911.02,533.529 C2914.66,537.015 2916.48,542.051 2916.48,548.637 C2916.48,555.997 2909.24,564.209 2894.75,573.273 C2887.16,578.077 2877.51,580.672 2865.81,581.059 M2821.42,596.167 C2819.48,602.675 2818.52,608.911 2818.52,614.877 C2818.52,629.055 2820.76,636.143 2825.26,636.143 C2829.52,636.143 2832.85,633.122 2835.25,627.079 C2838.04,620.261 2839.43,612.707 2839.43,604.418 C2839.43,597.058 2836.99,593.378 2832.11,593.378 C2828.7,593.378 2825.14,594.307 2821.42,596.167"/>
<path class="Note" d="M2858.73,494.673 C2863.3,494.673 2865.58,497.54 2865.58,503.273 C2865.58,507.302 2863.06,513.306 2858.03,521.286 C2854,527.716 2851.98,533.991 2851.98,540.112 C2851.98,543.598 2857.06,545.341 2867.21,545.341 C2875.58,545.341 2887.24,540.809 2902.19,531.745 C2887.16,546.232 2874.1,553.476 2863.02,553.476 C2853.03,553.476 2846.06,551.965 2842.11,548.944 C2841.1,548.169 2840.25,547.239 2839.55,546.155 C2835.68,550.881 2829.21,553.244 2820.14,553.244 C2811.47,553.244 2804.8,551.462 2800.15,547.898 C2797.06,545.496 2795.51,541.661 2795.51,536.393 C2795.51,528.026 2800.46,518.884 2810.38,508.967 C2821,498.353 2833.27,493.046 2847.22,493.046 C2850.71,493.046 2853.26,494.325 2854.89,496.881 C2856.21,495.409 2857.49,494.673 2858.73,494.673 M2837.92,540.925 C2837.85,540.305 2837.81,539.686 2837.81,539.066 C2837.81,538.756 2841.76,527.948 2849.66,506.643 C2850.44,504.551 2851.21,502.769 2851.98,501.297 C2848.96,500.678 2845.98,500.368 2843.04,500.368 C2837.61,500.368 2830.41,504.977 2821.42,514.197 C2813.36,522.409 2809.34,529.498 2809.34,535.463 C2809.34,542.049 2812.47,545.341 2818.75,545.341 C2826.34,545.341 2832.73,543.869 2837.92,540.925"/>
<path class="Note" d="M3245.47,1098.35 C3245.08,1099.05 3244.5,1099.4 3243.73,1099.4 C3243.03,1099.4 3242.14,1099.09 3241.06,1098.47 C3239.43,1097.54 3238.62,1096.61 3238.62,1095.68 C3238.62,1095.37 3238.73,1094.98 3238.96,1094.52 C3256.71,1068.95 3267.78,1047.41 3272.2,1029.91 C3272.51,1029.36 3273.05,1029.09 3273.83,1029.09 C3274.83,1029.09 3276.27,1029.63 3278.13,1030.72 C3280.68,1032.19 3281.96,1033.51 3281.96,1034.67 C3281.96,1034.98 3281.88,1035.25 3281.73,1035.48 C3275.84,1052.22 3263.76,1073.17 3245.47,1098.35 M3266.39,1105.33 C3266,1106.02 3265.42,1106.37 3264.65,1106.37 C3263.95,1106.37 3263.06,1106.06 3261.97,1105.44 C3260.35,1104.51 3259.53,1103.58 3259.53,1102.65 C3259.53,1102.34 3259.65,1101.96 3259.88,1101.49 C3277.62,1075.92 3288.7,1054.39 3293.12,1036.88 C3293.43,1036.34 3293.97,1036.06 3294.75,1036.06 C3295.75,1036.06 3297.19,1036.61 3299.05,1037.69 C3301.6,1039.16 3302.88,1040.48 3302.88,1041.64 C3302.88,1041.95 3302.8,1042.22 3302.65,1042.46 C3296.76,1059.19 3284.67,1080.15 3266.39,1105.33 M3349.94,1059.89 C3354.51,1059.89 3356.8,1062.75 3356.8,1068.49 C3356.8,1072.52 3354.28,1078.52 3349.25,1086.5 C3345.22,1092.93 3343.2,1099.21 3343.2,1105.33 C3343.2,1108.81 3348.28,1110.56 3358.43,1110.56 C3366.79,1110.56 3378.45,1106.02 3393.41,1096.96 C3378.38,1111.45 3365.32,1118.69 3354.24,1118.69 C3344.25,1118.69 3337.28,1117.18 3333.32,1114.16 C3332.32,1113.38 3331.47,1112.45 3330.77,1111.37 C3326.89,1116.09 3320.42,1118.46 3311.36,1118.46 C3302.68,1118.46 3296.02,1116.68 3291.37,1113.11 C3288.27,1110.71 3286.72,1106.88 3286.72,1101.61 C3286.72,1093.24 3291.68,1084.1 3301.6,1074.18 C3312.21,1063.57 3324.49,1058.26 3338.44,1058.26 C3341.92,1058.26 3344.48,1059.54 3346.11,1062.1 C3347.42,1060.62 3348.7,1059.89 3349.94,1059.89 M3329.14,1106.14 C3329.06,1105.52 3329.02,1104.9 3329.02,1104.28 C3329.02,1103.97 3332.98,1093.16 3340.88,1071.86 C3341.65,1069.77 3342.43,1067.98 3343.2,1066.51 C3340.18,1065.89 3337.2,1065.58 3334.25,1065.58 C3328.83,1065.58 3321.63,1070.19 3312.64,1079.41 C3304.58,1087.62 3300.55,1094.71 3300.55,1100.68 C3300.55,1107.26 3303.69,1110.56 3309.97,1110.56 C3317.56,1110.56 3323.95,1109.08 3329.14,1106.14"/>
<path class="Note" d="M3364.06,973.437 C3357.71,983.431 3347.68,991.721 3333.96,998.306 C3322.03,1004.04 3310.88,1006.91 3300.5,1006.91 C3292.21,1006.91 3285.31,1005.24 3279.81,1001.91 C3273.85,998.267 3270.86,993.929 3270.86,988.893 C3270.86,977.504 3273.85,967.704 3279.81,959.491 C3287.95,948.335 3296.16,942.757 3304.45,942.757 C3310.34,942.757 3314.52,943.919 3317,946.243 C3320.41,949.265 3322.11,953.41 3322.11,958.678 C3322.11,966.115 3316.57,972.584 3305.49,978.085 C3294.72,983.431 3287.25,986.917 3283.06,988.544 C3283.99,990.481 3285.2,992.224 3286.67,993.774 C3290.31,997.647 3295.27,999.584 3301.54,999.584 C3309.44,999.584 3320.06,996.679 3333.38,990.868 C3346.17,985.213 3356.39,979.402 3364.06,973.437 M3281.44,983.198 C3287.25,980.254 3292.56,976.807 3297.36,972.856 C3304.49,967.045 3308.05,960.77 3308.05,954.029 C3308.05,950.233 3306.31,948.335 3302.82,948.335 C3299.88,948.335 3295.85,951.705 3290.73,958.445 C3284.3,966.813 3281.09,973.63 3281.09,978.899 C3281.09,980.371 3281.21,981.804 3281.44,983.198"/>
<path class="Note" d="M3328.27,762.547 C3332.84,762.547 3335.13,765.414 3335.13,771.147 C3335.13,775.176 3332.61,781.18 3327.57,789.16 C3323.54,795.59 3321.53,801.865 3321.53,807.986 C3321.53,811.472 3326.6,813.215 3336.75,813.215 C3345.12,813.215 3356.78,808.683 3371.73,799.619 C3356.7,814.106 3343.65,821.35 3332.57,821.35 C3322.58,821.35 3315.6,819.839 3311.65,816.818 C3310.65,816.043 3309.79,815.113 3309.1,814.029 C3305.22,818.755 3298.75,821.118 3289.69,821.118 C3281.01,821.118 3274.35,819.336 3269.7,815.772 C3266.6,813.37 3265.05,809.535 3265.05,804.267 C3265.05,795.9 3270.01,786.758 3279.93,776.841 C3290.54,766.227 3302.82,760.92 3316.77,760.92 C3320.25,760.92 3322.81,762.199 3324.44,764.755 C3325.75,763.283 3327.03,762.547 3328.27,762.547 M3307.47,808.799 C3307.39,808.179 3307.35,807.56 3307.35,806.94 C3307.35,806.63 3311.3,795.822 3319.21,774.517 C3319.98,772.425 3320.76,770.643 3321.53,769.171 C3318.51,768.552 3315.53,768.242 3312.58,768.242 C3307.16,768.242 3299.95,772.851 3290.97,782.071 C3282.91,790.283 3278.88,797.372 3278.88,803.337 C3278.88,809.923 3282.02,813.215 3288.29,813.215 C3295.89,813.215 3302.28,811.743 3307.47,808.799"/>
<path class="Note" d="M3328.27,494.673 C3332.84,494.673 3335.13,497.54 3335.13,503.273 C3335.13,507.302 3332.61,513.306 3327.57,521.286 C3323.54,527.716 3321.53,533.991 3321.53,540.112 C3321.53,543.598 3326.6,545.341 3336.75,545.341 C3345.12,545.341 3356.78,540.809 3371.73,531.745 C3356.7,546.232 3343.65,553.476 3332.57,553.476 C3322.58,553.476 3315.6,551.965 3311.65,548.944 C3310.65,548.169 3309.79,547.239 3309.1,546.155 C3305.22,550.881 3298.75,553.244 3289.69,553.244 C3281.01,553.244 3274.35,551.462 3269.7,547.898 C3266.6,545.496 3265.05,541.661 3265.05,536.393 C3265.05,528.026 3270.01,518.884 3279.93,508.967 C3290.54,498.353 3302.82,493.046 3316.77,493.046 C3320.25,493.046 3322.81,494.325 3324.44,496.881 C3325.75,495.409 3327.03,494.673 3328.27,494.673 M3307.47,540.925 C3307.39,540.305 3307.35,539.686 3307.35,539.066 C3307.35,538.756 3311.3,527.948 3319.21,506.643 C3319.98,504.551 3320.76,502.769 3321.53,501.297 C3318.51,500.678 3315.53,500.368 3312.58,500.368 C3307.16,500.368 3299.95,504.977 3290.97,514.197 C3282.91,522.409 3278.88,529.498 3278.88,535.463 C3278.88,542.049 3282.02,545.341 3288.29,545.341 C3295.89,545.341 3302.28,543.869 3307.47,540.925"/>
<path class="Note" d="M3735.42,1091.38 C3735.03,1092.08 3734.45,1092.43 3733.67,1092.43 C3732.98,1092.43 3732.09,1092.12 3731,1091.5 C3729.37,1090.57 3728.56,1089.64 3728.56,1088.71 C3728.56,1088.4 3728.68,1088.01 3728.91,1087.55 C3746.65,1061.98 3757.73,1040.44 3762.15,1022.93 C3762.46,1022.39 3763,1022.12 3763.77,1022.12 C3764.78,1022.12 3766.21,1022.66 3768.07,1023.75 C3770.63,1025.22 3771.91,1026.53 3771.91,1027.7 C3771.91,1028.01 3771.83,1028.28 3771.67,1028.51 C3765.79,1045.24 3753.7,1066.2 3735.42,1091.38 M3756.33,1098.35 C3755.95,1099.05 3755.37,1099.4 3754.59,1099.4 C3753.89,1099.4 3753,1099.09 3751.92,1098.47 C3750.29,1097.54 3749.48,1096.61 3749.48,1095.68 C3749.48,1095.37 3749.59,1094.98 3749.83,1094.52 C3767.57,1068.95 3778.65,1047.41 3783.06,1029.91 C3783.37,1029.36 3783.92,1029.09 3784.69,1029.09 C3785.7,1029.09 3787.13,1029.63 3788.99,1030.72 C3791.55,1032.19 3792.82,1033.51 3792.82,1034.67 C3792.82,1034.98 3792.75,1035.25 3792.59,1035.48 C3786.7,1052.22 3774.62,1073.17 3756.33,1098.35 M3777.25,1105.33 C3776.87,1106.02 3776.28,1106.37 3775.51,1106.37 C3774.81,1106.37 3773.92,1106.06 3772.84,1105.44 C3771.21,1104.51 3770.4,1103.58 3770.4,1102.65 C3770.4,1102.34 3770.51,1101.96 3770.74,1101.49 C3788.49,1075.92 3799.57,1054.39 3803.98,1036.88 C3804.29,1036.34 3804.83,1036.06 3805.61,1036.06 C3806.62,1036.06 3808.05,1036.61 3809.91,1037.69 C3812.46,1039.16 3813.74,1040.48 3813.74,1041.64 C3813.74,1041.95 3813.67,1042.22 3813.51,1042.46 C3807.62,1059.19 3795.54,1080.15 3777.25,1105.33 M3860.79,1059.89 C3865.36,1059.89 3867.65,1062.75 3867.65,1068.49 C3867.65,1072.52 3865.13,1078.52 3860.1,1086.5 C3856.07,1092.93 3854.05,1099.21 3854.05,1105.33 C3854.05,1108.81 3859.13,1110.56 3869.28,1110.56 C3877.64,1110.56 3889.3,1106.02 3904.26,1096.96 C3889.23,1111.45 3876.17,1118.69 3865.09,1118.69 C3855.1,1118.69 3848.13,1117.18 3844.18,1114.16 C3843.17,1113.38 3842.32,1112.45 3841.62,1111.37 C3837.75,1116.09 3831.28,1118.46 3822.21,1118.46 C3813.53,1118.46 3806.87,1116.68 3802.22,1113.11 C3799.12,1110.71 3797.57,1106.88 3797.57,1101.61 C3797.57,1093.24 3802.53,1084.1 3812.45,1074.18 C3823.06,1063.57 3835.34,1058.26 3849.29,1058.26 C3852.78,1058.26 3855.33,1059.54 3856.96,1062.1 C3858.28,1060.62 3859.55,1059.89 3860.79,1059.89 M3839.99,1106.14 C3839.91,1105.52 3839.88,1104.9 3839.88,1104.28 C3839.88,1103.97 3843.83,1093.16 3851.73,1071.86 C3852.5,1069.77 3853.28,1067.98 3854.05,1066.51 C3851.03,1065.89 3848.05,1065.58 3845.11,1065.58 C3839.68,1065.58 3832.48,1070.19 3823.49,1079.41 C3815.43,1087.62 3811.4,1094.71 3811.4,1100.68 C3811.4,1107.26 3814.54,1110.56 3820.82,1110.56 C3828.41,1110.56 3834.8,1109.08 3839.99,1106.14"/>
<path class="Note" d="M3828.69,851.839 C3833.26,851.839 3835.54,854.705 3835.54,860.438 C3835.54,864.467 3833.03,870.471 3827.99,878.451 C3823.96,884.881 3821.95,891.157 3821.95,897.277 C3821.95,900.763 3827.02,902.507 3837.17,902.507 C3845.54,902.507 3857.2,897.974 3872.15,888.91 C3857.12,903.398 3844.07,910.641 3832.99,910.641 C3822.99,910.641 3816.02,909.131 3812.07,906.109 C3811.06,905.334 3810.21,904.405 3809.51,903.32 C3805.64,908.046 3799.17,910.409 3790.11,910.409 C3781.43,910.409 3774.77,908.627 3770.12,905.063 C3767.02,902.662 3765.47,898.827 3765.47,893.558 C3765.47,885.191 3770.43,876.049 3780.34,866.133 C3790.96,855.519 3803.24,850.212 3817.18,850.212 C3820.67,850.212 3823.23,851.49 3824.85,854.047 C3826.17,852.575 3827.45,851.839 3828.69,851.839 M3807.89,898.091 C3807.81,897.471 3807.77,896.851 3807.77,896.231 C3807.77,895.921 3811.72,885.114 3819.62,863.808 C3820.4,861.717 3821.17,859.935 3821.95,858.463 C3818.93,857.843 3815.94,857.533 3813,857.533 C3807.58,857.533 3800.37,862.143 3791.38,871.362 C3783.33,879.574 3779.3,886.663 3779.3,892.629 C3779.3,899.214 3782.44,902.507 3788.71,902.507 C3796.3,902.507 3802.7,901.035 3807.89,898.091"/>
<path class="Note" d="M3835.78,581.059 C3846.24,574.474 3853.83,569.09 3858.55,564.906 C3867.23,557.236 3871.57,549.489 3871.57,541.664 C3871.57,532.522 3865.45,527.951 3853.21,527.951 C3840.35,527.951 3826.95,537.209 3813,555.725 C3803.55,568.276 3796.85,580.13 3792.9,591.286 C3797.78,588.11 3802.93,586.521 3808.35,586.521 C3813.46,586.521 3817.53,588.807 3820.55,593.378 C3822.65,596.554 3823.69,601.977 3823.69,609.647 C3823.69,616.542 3820.05,624.638 3812.77,633.935 C3808.27,639.668 3803.28,642.535 3797.78,642.535 C3790.8,642.535 3785.92,641.14 3783.13,638.351 C3779.18,634.4 3777.21,626.575 3777.21,614.877 C3777.21,595.198 3785.15,575.83 3801.03,556.771 C3818.93,535.311 3836.09,524.581 3852.51,524.581 C3865.22,524.581 3874.71,527.564 3880.98,533.529 C3884.62,537.015 3886.45,542.051 3886.45,548.637 C3886.45,555.997 3879.2,564.209 3864.71,573.273 C3857.12,578.077 3847.48,580.672 3835.78,581.059 M3791.38,596.167 C3789.45,602.675 3788.48,608.911 3788.48,614.877 C3788.48,629.055 3790.73,636.143 3795.22,636.143 C3799.48,636.143 3802.81,633.122 3805.21,627.079 C3808,620.261 3809.4,612.707 3809.4,604.418 C3809.4,597.058 3806.96,593.378 3802.08,593.378 C3798.67,593.378 3795.1,594.307 3791.38,596.167"/>
<path class="Note" d="M3828.69,494.673 C3833.26,494.673 3835.54,497.54 3835.54,503.273 C3835.54,507.302 3833.03,513.306 3827.99,521.286 C3823.96,527.716 3821.95,533.991 3821.95,540.112 C3821.95,543.598 3827.02,545.341 3837.17,545.341 C3845.54,545.341 3857.2,540.809 3872.15,531.745 C3857.12,546.232 3844.07,553.476 3832.99,553.476 C3822.99,553.476 3816.02,551.965 3812.07,548.944 C3811.06,548.169 3810.21,547.239 3809.51,546.155 C3805.64,550.881 3799.17,553.244 3790.11,553.244 C3781.43,553.244 3774.77,551.462 3770.12,547.898 C3767.02,545.496 3765.47,541.661 3765.47,536.393 C3765.47,528.026 3770.43,518.884 3780.34,508.967 C3790.96,498.353 3803.24,493.046 3817.18,493.046 C3820.67,493.046 3823.23,494.325 3824.85,496.881 C3826.17,495.409 3827.45,494.673 3828.69,494.673 M3807.89,540.925 C3807.81,540.305 3807.77,539.686 3807.77,539.066 C3807.77,538.756 3811.72,527.948 3819.62,506.643 C3820.4,504.551 3821.17,502.769 3821.95,501.297 C3818.93,500.678 3815.94,500.368 3813,500.368 C3807.58,500.368 3800.37,504.977 3791.38,514.197 C3783.33,522.409 3779.3,529.498 3779.3,535.463 C3779.3,542.049 3782.44,545.341 3788.71,545.341 C3796.3,545.341 3802.7,543.869 3807.89,540.925"/>
<path class="Clef" transform="matrix(2.3811,0,0,2.3811,212.156,2076.38)" d="M25.4,-25.1 C17.8,-25.1 11.7,-20.7 11.6,-20.7 C5.8,-16.4 3.5,-11.3 2.6,-7.8 C2.1,-6 1.9,-4.2 1.9,-2.5 C1.9,-0.1 2.3,2.1 3.2,4 C4.4,6.7 6.7,8.6 9.7,9.6 C10.9,10 12.2,10.2 13.5,10.2 C15.7,10.2 18,9.6 19.9,8.5 C23,6.8 24.9,3.2 24.9,-0.7 C24.9,-4.2 23.1,-7.4 20.1,-9.3 C18,-10.7 16,-11.1 14.3,-11.1 C13.1,-11.1 12,-10.9 11.1,-10.6 C10.1,-10.2 8.4,-9.2 7.6,-8.5 C7.9,-10.4 9.1,-13.3 10.2,-14.9 C11.3,-16.5 13.5,-18.5 15.2,-19.4 C17.7,-20.8 20.9,-21.4 24.4,-21.4 C34.6,-21.4 39.6,-13.2 39.6,3.6 C39.6,12.9 36.1,21.8 33.1,27.7 C29.8,34.3 25.4,40.6 21.5,44.1 C11.1,53.6 1.3,58.1 1.2,58.1 C1.2,58.1 -0.3,59 0.1,60.5 C0.4,61.5 1.3,61.7 1.9,61.7 C2,61.7 2.3,61.6 2.4,61.6 C2.5,61.6 13.9,56.9 23,49.8 C28.1,46.1 32.7,42.1 36.7,37.8 C40.3,33.9 43.4,29.7 45.9,25.5 C50.3,18 52.8,10.2 52.8,3.5 C52.8,-4.8 50.6,-11.7 46.5,-16.6 C41.8,-22.2 34.7,-25.1 25.4,-25.1 M56.8,-12.4 C56.8,-9.6 59,-7.4 61.6,-7.4 C64.2,-7.4 66.4,-9.6 66.4,-12.4 C66.4,-15.2 64.2,-17.5 61.6,-17.5 C59,-17.5 56.8,-15.2 56.8,-12.4 M56.8,12.3 C56.8,15.1 59,17.4 61.6,17.4 C64.2,17.4 66.4,15.1 66.4,12.3 C66.4,9.5 64.2,7.2 61.6,7.2 C59,7.2 56.8,9.5 56.8,12.3"/>
<path class="Clef" transform="matrix(2.3811,0,0,2.3811,212.156,1570.39)" d="M63.37,-5.89004 C62.14,-11.32 59.5,-15.14 58.72,-16.1801 C55.5301,-20.45 51.52,-23.3 46.8301,-24.65 C43.72,-25.54 40.72,-25.65 38.3,-25.47 C37.2601,-31.4801 36.2601,-37.3601 35.35,-42.8101 C40.79,-48.97 44.42,-54.77 46.69,-59.07 C50.1601,-65.65 51.3101,-70.2301 51.3601,-70.4301 C53.0801,-75.64 53.44,-83.34 52.34,-91.55 C51.3301,-99.1 49.24,-105.81 46.89,-109.06 C45.8601,-110.49 44.8101,-111.22 43.77,-111.22 C42.55,-111.22 40.04,-109.98 37.15,-107.21 C34.85,-105.01 31.5801,-101.12 29.02,-95.1101 C26.02,-88.05 25.8101,-78.5601 26.1601,-71.84 C26.54,-64.57 27.65,-58.8801 27.6601,-58.8301 C27.6801,-58.74 27.94,-57.24 28.39,-54.67 C28.1601,-54.44 27.92,-54.22 27.67,-53.9801 C26.6301,-52.9801 25.44,-51.84 24.0601,-50.4601 C23.2,-49.6 22.25,-48.69 21.25,-47.72 C12.79,-39.57 0,-27.25 0,-8.1 C0,-3.4 0.9,1.01992 2.68008,5.02998 C4.27002,8.62998 6.57002,11.91 9.5,14.78 C17.2301,22.33 27.82,25.5399 34.8801,25.38 C37.8301,25.31 40.4601,25.0699 42.85,24.6199 C44.6801,34.2199 45.82,41.25 45.8601,46.5899 C45.9,53.1 44.25,57.0699 40.35,59.8399 C37.92,61.5699 35.1101,62.5199 32.0101,62.6699 C29.42,62.7899 27.1601,62.3199 25.7301,61.91 L25.72,61.91 C25.72,61.91 25.4301,61.83 25.42,61.63 C25.4101,61.45 25.7601,61.4 25.77,61.4 L25.79,61.4 C27.7101,60.96 31.2801,59.73 33.64,56.43 C35.44,53.91 36.3101,49.2899 34.47,45.35 C33.3601,42.96 30.85,40.01 25.2301,39.56 C22.74,39.36 20.47,39.8699 18.47,41.0699 C16.6601,42.15 15.1601,43.7899 14.1101,45.7899 C11.65,50.4899 12.1101,56.2199 15.24,60.06 C18.2,63.68 22.82,65.9899 28.25,66.5699 C29.1,66.66 29.95,66.7 30.8,66.7 C31.5101,66.7 32.22,66.6699 32.92,66.61 C31.72,66.9399 30.64,67.4899 29.77,68.25 C28.2801,69.5399 27.44,71.38 27.44,73.41 C27.44,75.28 28.0601,76.65 29.55,78.0399 C28.4101,78.5 27.55,78.98 26.79,79.56 C25.25,80.73 24.34,82.46 24.34,84.1899 C24.34,87.45 27.3,89.63 31.72,89.63 C37.1301,89.63 40.9101,86.63 40.9101,82.35 C40.9101,80.1199 39.9101,78.18 38.0801,76.83 C41.0101,75.6199 42.37,73.9399 42.37,71.56 C42.39,70.05 41.69,68.61 40.49,67.6899 C39.2801,66.7399 37.62,66.2399 35.69,66.2399 L35.5101,66.2399 C38.2801,65.7 40.92,64.7 43.2101,63.28 C46.87,60.71 48.99,56.73 49.67,51.1 C50.2301,46.46 49.84,40.55 48.44,32.48 C48.0801,30.3899 47.54,27.36 46.8801,23.6 C52.6301,21.68 56.79,18.11 60.5601,12.26 C63.85,6.51992 64.8,0.419922 63.37,-5.89004 M32.39,87.5399 C30.19,87.5399 28.7301,86.1199 28.7301,84.01 C28.7301,82.11 29.65,80.5 31.32,79.4699 C31.6801,79.66 31.77,79.71 32.1101,79.88 C33.3,80.48 33.3,80.48 33.55,80.63 L33.5601,80.6399 C35.47,81.73 36.25,82.76 36.25,84.18 C36.24,86.0899 34.59,87.5399 32.39,87.5399 M38.3101,71.63 C38.3101,73.2699 37.7301,74.3399 36.1801,75.53 C34.74,74.78 34.35,74.56 33.9801,74.3399 L33.8801,74.28 C32.3301,73.3399 31.85,72.66 31.85,71.4 C31.85,69.6 33.2301,68.3399 35.19,68.3399 C37.17,68.35 38.3101,69.55 38.3101,71.63 M33.15,-83.8101 C34.9301,-89.55 37.67,-92.8 39.6601,-94.5301 C41.4101,-96.05 43.0601,-96.7601 43.9801,-96.7601 C44.12,-96.7601 44.24,-96.74 44.34,-96.7101 C44.8,-96.57 45.3301,-96 45.8,-95.1301 C48.1101,-90.84 47.37,-84.1301 46.0301,-79.69 C44.4,-74.29 41.4801,-68.6801 32.69,-59.0601 C32.52,-60.17 32.3601,-61.22 32.2101,-62.2 C30.95,-70.49 31.27,-77.7601 33.15,-83.8101 M29.15,20.31 C24.5101,19.0899 20.0801,16.5899 16.32,13.0899 C15.0101,11.86 13.14,9.68994 11.67,6.3 C10.3101,3.13994 9.65,-0.290039 9.7,-3.88008 C9.77002,-8.57002 11.0801,-13.39 13.59,-18.1801 C16.5101,-23.7601 21.07,-29.29 27.1301,-34.62 C28.5801,-35.9 29.95,-37.1801 31.24,-38.4601 C32,-34.2 32.8301,-29.5101 33.7101,-24.6301 C29.8601,-23.3601 25.1101,-20.2101 22,-14.5601 C18.47,-7.99004 18.6101,-2.47002 19.34,1.00996 C20.2801,5.46992 22.8101,9.22998 26.27,11.3199 C27.2,11.88 31.3301,14.01 33.17,13.43 C33.54,13.31 33.8101,13.0899 33.95,12.76 C34.4601,11.5899 33.44,10.95 31.8801,9.98994 C31.2801,9.61992 30.6101,9.2 29.8801,8.66992 C26.5601,6.17998 25.1101,1.72998 26.1801,-2.65 C26.7601,-5.05 28.04,-7.21006 29.8801,-8.91006 C31.55,-10.4601 33.59,-11.5601 35.97,-12.2 C38.0101,-0.960059 40.07,10.1899 41.7101,18.55 C41.84,19.2399 41.9801,19.91 42.1101,20.58 C37.7101,21.51 33.37,21.4199 29.15,20.31 M54.9,10.1 C53.7301,13.28 51.27,17.35 46.14,19.41 C46.07,18.9899 45.99,18.56 45.9101,18.13 C44.3601,9.36992 42.4301,-1.61006 40.47,-12.87 C50.82,-13.35 55.09,-5.91006 55.9801,-1.08008 C56.45,1.45 56.45,5.88994 54.9,10.1"/>
<path class="KeySig" transform="matrix(2.3811,0,0,2.3811,429.785,2195.43)" d="M20.1,-7.9 C19.5,-11.8 17.1,-15.5 12,-15.5 C7,-15.5 4.1,-12.4 3.6,-11.8 L4,-43.9 C4,-44.7 3.4,-45.3 2.6,-45.3 L1.4,-45.3 C0.6,-45.3 0,-44.7 0,-43.9 L0.5,16.2 C0.5,17 1.1,17.6 1.9,17.6 C2.1,17.6 2.5,17.5 2.7,17.4 C3.1,17.2 9.6,14 15,7.9 C18.8,3.6 20.3,-1.3 20.3,-5.4 C20.3,-6.3 20.2,-7.1 20.1,-7.9 M13.2,-4 C13.2,-2.5 12.8,2.1 10.3,5.9 C8.6,8.5 5.2,11.2 3.3,12.7 L3.6,-6.8 C3.8,-7.7 5.3,-10.6 9.3,-10.6 C12.9,-10.6 13.2,-7.2 13.2,-5.1 L13.2,-4 "/>
<path class="KeySig" transform="matrix(2.3811,0,0,2.3811,429.785,1510.87)" d="M20.1,-7.9 C19.5,-11.8 17.1,-15.5 12,-15.5 C7,-15.5 4.1,-12.4 3.6,-11.8 L4,-43.9 C4,-44.7 3.4,-45.3 2.6,-45.3 L1.4,-45.3 C0.6,-45.3 0,-44.7 0,-43.9 L0.5,16.2 C0.5,17 1.1,17.6 1.9,17.6 C2.1,17.6 2.5,17.5 2.7,17.4 C3.1,17.2 9.6,14 15,7.9 C18.8,3.6 20.3,-1.3 20.3,-5.4 C20.3,-6.3 20.2,-7.1 20.1,-7.9 M13.2,-4 C13.2,-2.5 12.8,2.1 10.3,5.9 C8.6,8.5 5.2,11.2 3.3,12.7 L3.6,-6.8 C3.8,-7.7 5.3,-10.6 9.3,-10.6 C12.9,-10.6 13.2,-7.2 13.2,-5.1 L13.2,-4 "/>
<path class="FiguredBass" d="M1054.52,2390.15 C1049.94,2390.15 1046.9,2391.99 1045.38,2395.67 C1043.87,2399.35 1043.11,2404.56 1043.11,2411.3 L1043.11,2422.25 C1046.32,2420.95 1049.11,2420.27 1051.46,2420.21 C1059.5,2420.21 1065.82,2421.98 1070.43,2425.54 C1075.04,2429.1 1077.34,2434.38 1077.34,2441.4 C1077.34,2448.42 1075.01,2453.73 1070.34,2457.31 C1065.67,2460.9 1059.37,2462.7 1051.46,2462.7 C1043.36,2462.7 1037.02,2458.94 1032.44,2451.42 C1027.86,2443.91 1025.57,2434.99 1025.57,2424.66 C1025.57,2414.39 1028.23,2405.49 1033.55,2397.94 C1038.87,2390.39 1045.86,2386.62 1054.52,2386.62 C1060.21,2386.62 1065.13,2388.06 1069.27,2390.94 C1073.41,2393.81 1075.49,2397.6 1075.49,2402.3 C1075.49,2405.02 1074.5,2407.37 1072.52,2409.35 C1070.54,2411.33 1068.17,2412.32 1065.42,2412.32 C1062.67,2412.32 1060.3,2411.33 1058.32,2409.35 C1056.34,2407.37 1055.35,2405.02 1055.35,2402.3 C1055.35,2399.64 1056.34,2397.29 1058.32,2395.25 C1059,2394.45 1059.96,2393.76 1061.2,2393.21 C1060.89,2392.4 1060.27,2391.79 1059.34,2391.35 C1057.98,2390.55 1056.37,2390.15 1054.52,2390.15 M1059.06,2428.09 C1057.95,2425.18 1055.51,2423.73 1051.74,2423.73 C1047.96,2423.73 1045.63,2425.18 1044.73,2428.09 C1043.83,2431 1043.39,2435.42 1043.39,2441.36 C1043.39,2448.35 1043.83,2453.05 1044.73,2455.46 C1045.63,2457.87 1047.96,2459.08 1051.74,2459.08 C1055.51,2459.08 1057.95,2457.62 1059.06,2454.72 C1060.18,2451.81 1060.73,2447.37 1060.73,2441.4 C1060.73,2435.44 1060.18,2431 1059.06,2428.09"/>
<path class="FiguredBass" d="M1491.69,2436.07 L1491.69,2419.09 C1491.69,2418.1 1492.05,2417.22 1492.76,2416.45 C1493.47,2415.67 1494.38,2415.29 1495.5,2415.29 C1496.61,2415.29 1497.52,2415.67 1498.23,2416.45 C1498.95,2417.22 1499.3,2418.1 1499.3,2419.09 L1499.3,2436.07 L1512.57,2436.07 C1513.68,2436.07 1514.59,2436.46 1515.3,2437.23 C1516.02,2438 1516.37,2438.88 1516.37,2439.87 C1516.37,2440.86 1516.02,2441.74 1515.3,2442.52 C1514.59,2443.29 1513.68,2443.68 1512.57,2443.68 L1499.3,2443.68 L1499.3,2460.65 C1499.3,2461.64 1498.95,2462.53 1498.23,2463.3 C1497.52,2464.07 1496.61,2464.46 1495.5,2464.46 C1494.38,2464.46 1493.47,2464.07 1492.76,2463.3 C1492.05,2462.53 1491.69,2461.64 1491.69,2460.65 L1491.69,2443.68 L1474.53,2443.68 L1474.53,2444.88 C1474.53,2448.72 1475.55,2452.06 1477.59,2454.9 C1479.63,2457.75 1482.26,2459.17 1485.48,2459.17 C1486.72,2459.17 1487.33,2459.73 1487.33,2460.84 C1487.33,2462.08 1486.72,2462.7 1485.48,2462.7 C1483.25,2462.7 1479.94,2462.37 1475.55,2461.72 C1471.16,2461.07 1467.84,2460.75 1465.58,2460.75 C1463.32,2460.75 1460,2461.07 1455.6,2461.72 C1451.21,2462.37 1447.9,2462.7 1445.68,2462.7 C1444.44,2462.7 1443.82,2462.08 1443.82,2460.84 C1443.82,2459.73 1444.44,2459.17 1445.68,2459.17 C1448.89,2459.17 1451.54,2457.75 1453.61,2454.9 C1455.68,2452.06 1456.72,2448.72 1456.72,2444.88 L1456.72,2443.68 L1431.39,2443.68 C1429.78,2443.68 1428.59,2443.29 1427.82,2442.52 C1427.05,2441.74 1426.66,2440.96 1426.66,2440.15 C1426.66,2439.84 1427.39,2438.78 1428.84,2436.95 C1430.29,2435.13 1432.07,2432.7 1434.17,2429.67 C1436.28,2426.64 1438.36,2423.19 1440.44,2419.32 C1442.51,2415.46 1444.27,2410.82 1445.72,2405.41 C1447.18,2400 1447.9,2394.54 1447.9,2389.03 C1447.9,2387.43 1448.59,2386.62 1449.95,2386.62 C1450.13,2386.62 1450.78,2386.78 1451.89,2387.09 C1453.01,2387.39 1454.43,2387.72 1456.16,2388.06 C1457.89,2388.4 1459.56,2388.57 1461.17,2388.57 C1463.58,2388.57 1466.06,2388.23 1468.59,2387.55 L1472.77,2386.44 C1473.57,2386.44 1474.22,2386.74 1474.72,2387.36 C1475.09,2387.92 1475.03,2388.48 1474.53,2389.03 L1434.08,2436.07 L1456.72,2436.07 L1456.72,2419.37 C1456.72,2417.95 1457.1,2416.85 1457.88,2416.08 C1458.65,2415.3 1459.7,2414.65 1461.03,2414.13 C1462.36,2413.6 1463.89,2412.26 1465.62,2410.09 C1467.23,2408.05 1469.09,2404.96 1471.19,2400.82 C1471.5,2400.2 1471.96,2399.89 1472.58,2399.89 C1473.88,2399.89 1474.53,2400.6 1474.53,2402.02 L1474.53,2436.07 L1491.69,2436.07 "/>
<path class="FiguredBass" d="M1473.7,2528.09 C1473.7,2529.08 1474.25,2530.04 1475.37,2530.97 C1476.48,2531.89 1477.7,2532.77 1479.03,2533.61 C1480.36,2534.44 1481.58,2536.02 1482.69,2538.34 C1483.81,2540.66 1484.36,2543.58 1484.36,2547.11 C1484.36,2553.91 1481.8,2559.17 1476.66,2562.88 C1471.53,2566.59 1465.04,2568.45 1457.18,2568.45 C1450.87,2568.45 1445.38,2566.87 1440.71,2563.71 C1436.05,2560.56 1433.71,2556.42 1433.71,2551.28 C1433.71,2548.56 1434.7,2546.2 1436.68,2544.19 C1438.66,2542.18 1441.02,2541.17 1443.78,2541.17 C1446.53,2541.17 1448.86,2542.16 1450.78,2544.14 C1452.7,2546.12 1453.66,2548.5 1453.66,2551.28 C1453.66,2552.52 1452.64,2553.86 1450.6,2555.32 C1448.55,2556.77 1447.53,2558.12 1447.53,2559.35 C1447.53,2561.27 1448.48,2562.68 1450.36,2563.57 C1452.25,2564.47 1454.52,2564.92 1457.18,2564.92 C1460.65,2564.92 1463.1,2563.2 1464.56,2559.77 C1466.01,2556.34 1466.74,2552.12 1466.74,2547.11 L1466.74,2544.7 C1466.74,2541.36 1466.63,2538.82 1466.41,2537.09 C1466.2,2535.36 1465.52,2533.81 1464.37,2532.45 C1463.23,2531.09 1461.48,2530.41 1459.13,2530.41 L1446.98,2530.41 C1445.55,2530.41 1444.84,2529.64 1444.84,2528.09 C1444.84,2526.67 1445.55,2525.96 1446.98,2525.96 L1459.13,2525.96 C1461.67,2525.96 1463.65,2525 1465.07,2523.08 C1465.56,2522.4 1465.96,2521.29 1466.27,2519.74 C1466.58,2517.7 1466.74,2514.76 1466.74,2510.93 L1466.74,2509.72 C1466.74,2500.5 1463.34,2495.9 1456.53,2495.9 C1450.53,2495.9 1447.53,2497.57 1447.53,2500.91 C1447.53,2502.02 1448.45,2503.21 1450.27,2504.48 C1452.1,2505.75 1453.01,2506.94 1453.01,2508.05 C1453.01,2510.46 1452.16,2512.53 1450.46,2514.27 C1448.76,2516 1446.68,2516.86 1444.24,2516.86 C1441.8,2516.86 1439.74,2516 1438.07,2514.27 C1436.4,2512.53 1435.57,2510.46 1435.57,2508.05 C1435.57,2503.29 1437.64,2499.48 1441.78,2496.64 C1445.93,2493.79 1450.84,2492.37 1456.53,2492.37 C1464.02,2492.37 1470.17,2493.81 1474.99,2496.69 C1479.82,2499.56 1482.23,2503.91 1482.23,2509.72 C1482.23,2513.86 1481.8,2517.08 1480.93,2519.37 C1480.07,2521.66 1479.08,2523.05 1477.96,2523.54 C1476.85,2524.04 1475.86,2524.61 1474.99,2525.26 C1474.13,2525.91 1473.7,2526.85 1473.7,2528.09"/>
<path class="FiguredBass" d="M1994.61,2453.05 L1994.61,2472.44 C1994.61,2474.35 1993.64,2475.31 1991.69,2475.31 C1989.74,2475.31 1988.77,2474.35 1988.77,2472.44 L1988.77,2455.55 L1985.8,2456.76 C1985.49,2456.88 1985.09,2456.94 1984.59,2456.94 C1983.79,2456.94 1983.08,2456.63 1982.46,2456.02 C1981.84,2455.4 1981.53,2454.69 1981.53,2453.88 L1981.53,2444.42 C1981.53,2443.06 1982.18,2442.1 1983.48,2441.54 L1988.77,2439.32 L1988.77,2419.83 L1985.8,2421.04 C1985.61,2421.1 1985.36,2421.13 1985.06,2421.13 C1984.93,2421.13 1984.78,2421.13 1984.59,2421.13 C1983.66,2421.01 1982.92,2420.67 1982.36,2420.11 C1981.81,2419.56 1981.53,2418.91 1981.53,2418.16 L1981.53,2408.7 C1981.53,2407.4 1982.18,2406.47 1983.48,2405.92 L1988.77,2403.69 L1988.77,2383.93 C1988.77,2382.01 1989.74,2381.05 1991.69,2381.05 C1993.64,2381.05 1994.61,2382.01 1994.61,2383.93 L1994.61,2401.28 L2006.58,2396.27 L2006.58,2376.88 C2006.58,2374.96 2007.54,2374 2009.45,2374 C2011.37,2374 2012.33,2374.96 2012.33,2376.88 L2012.33,2393.95 L2015.58,2392.56 C2015.89,2392.44 2016.23,2392.37 2016.6,2392.37 C2017.4,2392.37 2018.13,2392.68 2018.78,2393.3 C2019.43,2393.92 2019.75,2394.63 2019.75,2395.43 L2019.75,2404.9 C2019.75,2406.26 2019.07,2407.22 2017.71,2407.77 L2012.33,2410 L2012.33,2429.58 L2015.58,2428.28 C2015.76,2428.21 2015.98,2428.18 2016.23,2428.18 C2016.35,2428.18 2016.47,2428.18 2016.6,2428.18 C2017.65,2428.37 2018.44,2428.71 2018.96,2429.2 C2019.49,2429.7 2019.75,2430.35 2019.75,2431.15 L2019.75,2440.62 C2019.75,2441.91 2019.07,2442.84 2017.71,2443.4 L2012.33,2445.63 L2012.33,2465.39 C2012.33,2467.3 2011.37,2468.26 2009.45,2468.26 C2007.54,2468.26 2006.58,2467.3 2006.58,2465.39 L2006.58,2448.04 L1994.61,2453.05 M1994.61,2436.9 L2006.58,2431.99 L2006.58,2412.41 L1994.61,2417.42 L1994.61,2436.9 "/>
<path class="FiguredBass" d="M2392.89,2444.42 C2392.21,2445.16 2391.32,2445.53 2390.2,2445.53 C2389.09,2445.53 2388.18,2445.15 2387.47,2444.37 C2386.75,2443.6 2386.4,2442.72 2386.4,2441.73 L2386.4,2428.46 L2373.13,2428.46 C2372.02,2428.46 2371.11,2428.08 2370.39,2427.3 C2369.68,2426.53 2369.33,2425.65 2369.33,2424.66 C2369.33,2423.67 2369.68,2422.79 2370.39,2422.01 C2371.11,2421.24 2372.02,2420.85 2373.13,2420.85 L2386.4,2420.85 L2386.4,2407.59 C2386.4,2406.6 2386.75,2405.72 2387.47,2404.94 C2388.18,2404.17 2389.09,2403.78 2390.2,2403.78 C2391.32,2403.78 2392.23,2404.17 2392.94,2404.94 C2393.65,2405.72 2394.01,2406.6 2394.01,2407.59 L2394.01,2420.85 L2407.27,2420.85 C2408.39,2420.85 2409.3,2421.24 2410.01,2422.01 C2410.72,2422.79 2411.08,2423.67 2411.08,2424.66 C2411.08,2425.65 2410.72,2426.53 2410.01,2427.3 C2409.3,2428.08 2408.39,2428.46 2407.27,2428.46 L2394.01,2428.46 L2394.01,2441.73 C2394.01,2442.72 2393.63,2443.62 2392.89,2444.42 M2445.67,2388.57 C2448.02,2388.57 2450.49,2388.23 2453.09,2387.55 L2457.26,2386.44 C2458.07,2386.44 2458.7,2386.74 2459.17,2387.36 C2459.63,2387.98 2459.58,2388.54 2459.03,2389.03 L2415.89,2439.22 L2441.21,2439.22 L2441.21,2419.37 C2441.21,2417.95 2441.6,2416.85 2442.37,2416.08 C2443.15,2415.3 2444.14,2414.69 2445.34,2414.22 C2446.55,2413.76 2448.13,2412.38 2450.07,2410.09 C2452.02,2407.8 2453.89,2404.71 2455.69,2400.82 C2456,2400.2 2456.46,2399.89 2457.08,2399.89 C2458.38,2399.89 2459.03,2400.6 2459.03,2402.02 L2459.03,2439.22 L2469.97,2439.22 C2471.52,2439.22 2472.29,2439.94 2472.29,2441.36 C2472.29,2442.9 2471.52,2443.68 2469.97,2443.68 L2459.03,2443.68 L2459.03,2444.88 C2459.03,2448.72 2460.05,2452.06 2462.09,2454.9 C2464.13,2457.75 2466.76,2459.17 2469.97,2459.17 C2471.21,2459.17 2471.83,2459.73 2471.83,2460.84 C2471.83,2462.08 2471.21,2462.7 2469.97,2462.7 C2467.75,2462.7 2464.44,2462.37 2460.05,2461.72 C2455.66,2461.07 2452.33,2460.75 2450.07,2460.75 C2447.82,2460.75 2444.49,2461.07 2440.1,2461.72 C2435.71,2462.37 2432.4,2462.7 2430.17,2462.7 C2428.94,2462.7 2428.32,2462.08 2428.32,2460.84 C2428.32,2459.73 2428.94,2459.17 2430.17,2459.17 C2433.39,2459.17 2436.03,2457.75 2438.11,2454.9 C2440.18,2452.06 2441.21,2448.72 2441.21,2444.88 L2441.21,2443.68 L2415.89,2443.68 C2414.28,2443.68 2413.09,2443.29 2412.31,2442.52 C2411.54,2441.74 2411.16,2440.96 2411.16,2440.15 C2411.16,2439.84 2411.88,2438.78 2413.34,2436.95 C2414.79,2435.13 2416.57,2432.7 2418.67,2429.67 C2420.77,2426.64 2422.86,2423.19 2424.93,2419.32 C2427,2415.46 2428.77,2410.82 2430.22,2405.41 C2431.67,2400 2432.4,2394.54 2432.4,2389.03 C2432.4,2387.43 2433.08,2386.62 2434.44,2386.62 C2434.63,2386.62 2435.28,2386.78 2436.39,2387.09 C2437.5,2387.39 2438.93,2387.72 2440.66,2388.06 C2442.39,2388.4 2444.06,2388.57 2445.67,2388.57"/>
<path class="FiguredBass" d="M2827.09,2390.15 C2822.52,2390.15 2819.47,2391.99 2817.96,2395.67 C2816.44,2399.35 2815.68,2404.56 2815.68,2411.3 L2815.68,2422.25 C2818.9,2420.95 2821.68,2420.27 2824.03,2420.21 C2832.07,2420.21 2838.4,2421.98 2843.01,2425.54 C2847.61,2429.1 2849.92,2434.38 2849.92,2441.4 C2849.92,2448.42 2847.58,2453.73 2842.91,2457.31 C2838.24,2460.9 2831.95,2462.7 2824.03,2462.7 C2815.93,2462.7 2809.59,2458.94 2805.01,2451.42 C2800.44,2443.91 2798.15,2434.99 2798.15,2424.66 C2798.15,2414.39 2800.81,2405.49 2806.13,2397.94 C2811.45,2390.39 2818.44,2386.62 2827.09,2386.62 C2832.78,2386.62 2837.7,2388.06 2841.85,2390.94 C2845.99,2393.81 2848.06,2397.6 2848.06,2402.3 C2848.06,2405.02 2847.07,2407.37 2845.09,2409.35 C2843.11,2411.33 2840.75,2412.32 2838,2412.32 C2835.24,2412.32 2832.88,2411.33 2830.9,2409.35 C2828.92,2407.37 2827.93,2405.02 2827.93,2402.3 C2827.93,2399.64 2828.92,2397.29 2830.9,2395.25 C2831.58,2394.45 2832.54,2393.76 2833.77,2393.21 C2833.47,2392.4 2832.85,2391.79 2831.92,2391.35 C2830.56,2390.55 2828.95,2390.15 2827.09,2390.15 M2831.64,2428.09 C2830.53,2425.18 2828.08,2423.73 2824.31,2423.73 C2820.54,2423.73 2818.2,2425.18 2817.31,2428.09 C2816.41,2431 2815.96,2435.42 2815.96,2441.36 C2815.96,2448.35 2816.41,2453.05 2817.31,2455.46 C2818.2,2457.87 2820.54,2459.08 2824.31,2459.08 C2828.08,2459.08 2830.53,2457.62 2831.64,2454.72 C2832.75,2451.81 2833.31,2447.37 2833.31,2441.4 C2833.31,2435.44 2832.75,2431 2831.64,2428.09"/>
<path class="FiguredBass" d="M3243.22,2446.8 C3242.54,2447.54 3241.64,2447.91 3240.53,2447.91 C3239.41,2447.91 3238.5,2447.53 3237.79,2446.75 C3237.08,2445.98 3236.72,2445.1 3236.72,2444.11 L3236.72,2430.84 L3223.46,2430.84 C3222.34,2430.84 3221.43,2430.46 3220.72,2429.68 C3220.01,2428.91 3219.65,2428.03 3219.65,2427.04 C3219.65,2426.05 3220.01,2425.17 3220.72,2424.4 C3221.43,2423.62 3222.34,2423.24 3223.46,2423.24 L3236.72,2423.24 L3236.72,2409.97 C3236.72,2408.98 3237.08,2408.1 3237.79,2407.33 C3238.5,2406.55 3239.41,2406.17 3240.53,2406.17 C3241.64,2406.17 3242.55,2406.55 3243.26,2407.33 C3243.97,2408.1 3244.33,2408.98 3244.33,2409.97 L3244.33,2423.24 L3257.6,2423.24 C3258.71,2423.24 3259.62,2423.62 3260.33,2424.4 C3261.04,2425.17 3261.4,2426.05 3261.4,2427.04 C3261.4,2428.03 3261.04,2428.91 3260.33,2429.68 C3259.62,2430.46 3258.71,2430.84 3257.6,2430.84 L3244.33,2430.84 L3244.33,2444.11 C3244.33,2445.1 3243.96,2446 3243.22,2446.8 M3296.64,2392.53 C3292.06,2392.53 3289.02,2394.37 3287.5,2398.05 C3285.99,2401.73 3285.23,2406.94 3285.23,2413.68 L3285.23,2424.63 C3288.45,2423.33 3291.23,2422.65 3293.58,2422.59 C3301.62,2422.59 3307.94,2424.36 3312.55,2427.92 C3317.16,2431.48 3319.46,2436.77 3319.46,2443.79 C3319.46,2450.8 3317.13,2456.11 3312.46,2459.7 C3307.79,2463.28 3301.5,2465.08 3293.58,2465.08 C3285.48,2465.08 3279.14,2461.32 3274.56,2453.8 C3269.98,2446.29 3267.69,2437.37 3267.69,2427.04 C3267.69,2416.77 3270.35,2407.87 3275.67,2400.32 C3280.99,2392.78 3287.98,2389 3296.64,2389 C3302.33,2389 3307.25,2390.44 3311.39,2393.32 C3315.54,2396.19 3317.61,2399.98 3317.61,2404.68 C3317.61,2407.4 3316.62,2409.75 3314.64,2411.73 C3312.66,2413.71 3310.29,2414.7 3307.54,2414.7 C3304.79,2414.7 3302.42,2413.71 3300.44,2411.73 C3298.46,2409.75 3297.48,2407.4 3297.48,2404.68 C3297.48,2402.02 3298.46,2399.67 3300.44,2397.63 C3301.12,2396.83 3302.08,2396.15 3303.32,2395.59 C3303.01,2394.79 3302.39,2394.17 3301.46,2393.73 C3300.1,2392.93 3298.5,2392.53 3296.64,2392.53 M3301.19,2430.47 C3300.07,2427.57 3297.63,2426.11 3293.86,2426.11 C3290.08,2426.11 3287.75,2427.57 3286.85,2430.47 C3285.96,2433.38 3285.51,2437.8 3285.51,2443.74 C3285.51,2450.73 3285.96,2455.43 3286.85,2457.84 C3287.75,2460.25 3290.08,2461.46 3293.86,2461.46 C3297.63,2461.46 3300.07,2460 3301.19,2457.1 C3302.3,2454.19 3302.86,2449.75 3302.86,2443.79 C3302.86,2437.82 3302.3,2433.38 3301.19,2430.47"/>
<path class="Bracket" transform="matrix(8.6315,0,0,8.6315,76.1283,2254.96)" d="M0.92002,-50 C2.69004,-51.88 6.2,-55.8 6.2,-63 C6.2,-72.1 2.25996,-81.32 2.25996,-86.97 C2.25996,-93.06 5.84004,-98.84 5.95,-99 C6.05996,-99.16 6.05,-99.39 5.94004,-99.46 C5.82998,-99.53 5.62002,-99.47 5.49004,-99.32 C5.35996,-99.17 0,-93.75 0,-85.6 C0,-76.75 3.5,-70.58 3.5,-59.07 C3.5,-56.89 2.55996,-53.36 0.1,-50.33 C-0.0799805,-50.17 -0.1,-49.89 0.0599609,-49.7 L0.0700195,-49.69 L0.1,-49.66 C2.55996,-46.63 3.5,-43.1 3.5,-40.92 C3.5,-29.4 0,-23.24 0,-14.39 C0,-6.25 5.35996,-0.8 5.49004,-0.659961 C5.62002,-0.52002 5.8,-0.42998 5.94004,-0.52002 C6.07998,-0.609961 6.07998,-0.77998 5.95,-0.97998 C5.82002,-1.17998 2.25996,-6.92002 2.25996,-13.01 C2.25996,-18.66 6.2,-27.9 6.2,-37 C6.2,-44.3 2.69004,-48.12 0.92002,-50"/>
</svg>
