<?xml version="1.0" encoding="UTF-8" standalone="no"?>
<svg width="4209.44px" height="2976.38px" viewBox="0 0 4209.44 2976.38"
 xmlns="http://www.w3.org/2000/svg" xmlns:xlink="http://www.w3.org/1999/xlink" version="1.2" baseProfile="tiny">
<title>ReMineur (1)</title>
<desc>Generated by MuseScore 3.6.2</desc>
<polyline class="StaffLines" fill="none" stroke="#000000" stroke-width="6.55" stroke-linejoin="bevel" points="153.819,574.87 4138.58,574.87"/>
<polyline class="StaffLines" fill="none" stroke="#000000" stroke-width="6.55" stroke-linejoin="bevel" points="153.819,664.161 4138.58,664.161"/>
<polyline class="StaffLines" fill="none" stroke="#000000" stroke-width="6.55" stroke-linejoin="bevel" points="153.819,753.452 4138.58,753.452"/>
<polyline class="StaffLines" fill="none" stroke="#000000" stroke-width="6.55" stroke-linejoin="bevel" points="153.819,842.744 4138.58,842.744"/>
<polyline class="StaffLines" fill="none" stroke="#000000" stroke-width="6.55" stroke-linejoin="bevel" points="153.819,932.035 4138.58,932.035"/>
<polyline class="StaffLines" fill="none" stroke="#000000" stroke-width="6.55" stroke-linejoin="bevel" points="153.819,1021.33 4138.58,1021.33"/>
<polyline class="StaffLines" fill="none" stroke="#000000" stroke-width="6.55" stroke-linejoin="bevel" points="153.819,1408.26 4138.58,1408.26"/>
<polyline class="StaffLines" fill="none" stroke="#000000" stroke-width="6.55" stroke-linejoin="bevel" points="153.819,1467.78 4138.58,1467.78"/>
<polyline class="StaffLines" fill="none" stroke="#000000" stroke-width="6.55" stroke-linejoin="bevel" points="153.819,1527.31 4138.58,1527.31"/>
<polyline class="StaffLines" fill="none" stroke="#000000" stroke-width="6.55" stroke-linejoin="bevel" points="153.819,1586.84 4138.58,1586.84"/>
<polyline class="StaffLines" fill="none" stroke="#000000" stroke-width="6.55" stroke-linejoin="bevel" points="153.819,1646.37 4138.58,1646.37"/>
<polyline class="StaffLines" fill="none" stroke="#000000" stroke-width="6.55" stroke-linejoin="bevel" points="153.819,2234.09 4138.58,2234.09"/>
<polyline class="StaffLines" fill="none" stroke="#000000" stroke-width="6.55" stroke-linejoin="bevel" points="153.819,2293.62 4138.58,2293.62"/>
<polyline class="StaffLines" fill="none" stroke="#000000" stroke-width="6.55" stroke-linejoin="bevel" points="153.819,2353.15 4138.58,2353.15"/>
<polyline class="StaffLines" fill="none" stroke="#000000" stroke-width="6.55" stroke-linejoin="bevel" points="153.819,2412.68 4138.58,2412.68"/>
<polyline class="StaffLines" fill="none" stroke="#000000" stroke-width="6.55" stroke-linejoin="bevel" points="153.819,2472.2 4138.58,2472.2"/>
<polyline class="BarLine" fill="none" stroke="#000000" stroke-width="10.71" stroke-linejoin="bevel" points="159.176,2230.82 159.176,2475.48"/>
<polyline class="BarLine" fill="none" stroke="#000000" stroke-width="10.71" stroke-linejoin="bevel" points="1442.85,2230.82 1442.85,2475.48"/>
<polyline class="BarLine" fill="none" stroke="#000000" stroke-width="10.71" stroke-linejoin="bevel" points="1475.59,2230.82 1475.59,2475.48"/>
<polyline class="BarLine" fill="none" stroke="#000000" stroke-width="10.71" stroke-linejoin="bevel" points="2333.23,2230.82 2333.23,2475.48"/>
<polyline class="BarLine" fill="none" stroke="#000000" stroke-width="10.71" stroke-linejoin="bevel" points="2365.97,2230.82 2365.97,2475.48"/>
<polyline class="BarLine" fill="none" stroke="#000000" stroke-width="10.71" stroke-linejoin="bevel" points="3235.57,2230.82 3235.57,2475.48"/>
<polyline class="BarLine" fill="none" stroke="#000000" stroke-width="10.71" stroke-linejoin="bevel" points="4080.54,2230.82 4080.54,2475.48"/>
<polyline class="BarLine" fill="none" stroke="#000000" stroke-width="32.74" stroke-linejoin="bevel" points="4122.21,2230.82 4122.21,2475.48"/>
<polyline class="BarLine" fill="none" stroke="#000000" stroke-width="10.71" stroke-linejoin="bevel" points="159.176,1404.98 159.176,2234.09"/>
<polyline class="BarLine" fill="none" stroke="#000000" stroke-width="10.71" stroke-linejoin="bevel" points="1442.85,1404.98 1442.85,1649.64"/>
<polyline class="BarLine" fill="none" stroke="#000000" stroke-width="10.71" stroke-linejoin="bevel" points="1475.59,1404.98 1475.59,1649.64"/>
<polyline class="BarLine" fill="none" stroke="#000000" stroke-width="10.71" stroke-linejoin="bevel" points="2333.23,1404.98 2333.23,1649.64"/>
<polyline class="BarLine" fill="none" stroke="#000000" stroke-width="10.71" stroke-linejoin="bevel" points="2365.97,1404.98 2365.97,1649.64"/>
<polyline class="BarLine" fill="none" stroke="#000000" stroke-width="10.71" stroke-linejoin="bevel" points="3235.57,1404.98 3235.57,1649.64"/>
<polyline class="BarLine" fill="none" stroke="#000000" stroke-width="10.71" stroke-linejoin="bevel" points="4080.54,1404.98 4080.54,1649.64"/>
<polyline class="BarLine" fill="none" stroke="#000000" stroke-width="32.74" stroke-linejoin="bevel" points="4122.21,1404.98 4122.21,1649.64"/>
<polyline class="BarLine" fill="none" stroke="#000000" stroke-width="10.71" stroke-linejoin="bevel" points="159.176,571.596 159.176,1408.26"/>
<polyline class="BarLine" fill="none" stroke="#000000" stroke-width="10.71" stroke-linejoin="bevel" points="1442.85,571.596 1442.85,1024.6"/>
<polyline class="BarLine" fill="none" stroke="#000000" stroke-width="10.71" stroke-linejoin="bevel" points="1475.59,571.596 1475.59,1024.6"/>
<polyline class="BarLine" fill="none" stroke="#000000" stroke-width="10.71" stroke-linejoin="bevel" points="2333.23,571.596 2333.23,1024.6"/>
<polyline class="BarLine" fill="none" stroke="#000000" stroke-width="10.71" stroke-linejoin="bevel" points="2365.97,571.596 2365.97,1024.6"/>
<polyline class="BarLine" fill="none" stroke="#000000" stroke-width="10.71" stroke-linejoin="bevel" points="3235.57,571.596 3235.57,1024.6"/>
<polyline class="BarLine" fill="none" stroke="#000000" stroke-width="10.71" stroke-linejoin="bevel" points="4080.54,571.596 4080.54,1024.6"/>
<polyline class="BarLine" fill="none" stroke="#000000" stroke-width="32.74" stroke-linejoin="bevel" points="4122.21,571.596 4122.21,1024.6"/>
<polyline class="LedgerLine" fill="none" stroke="#000000" stroke-width="9.52" stroke-linejoin="bevel" points="626.933,2531.73 757.41,2531.73"/>
<polyline class="LedgerLine" fill="none" stroke="#000000" stroke-width="9.52" stroke-linejoin="bevel" points="2448.72,2174.57 2579.19,2174.57"/>
<path class="Note" transform="matrix(2.3811,0,0,2.3811,647.767,2561.5)" d="M18.7,-13.6 C4.9,-13.6 0,-6.6 0,-0.1 C0,6.4 4.9,13.4 18.7,13.4 C32.5,13.4 37.3,6.4 37.3,-0.1 C37.3,-6.6 32.5,-13.6 18.7,-13.6 M10.4,-4.5 C10.3,-4.9 10.3,-5.3 10.3,-5.7 C10.3,-6.5 10.5,-7.3 10.9,-8 C11.6,-9 12.8,-9.7 14.3,-10 C15.6,-10.3 16.3,-10.5 18.9,-10.5 L19,-10.5 C23,-10.5 24.3,-6.8 25.4,-3 L25.7,-2 C26.5,0.6 26.9,2.8 26.9,4.5 C26.9,5.7 26.7,6.8 26.3,7.6 C25.7,8.7 24.7,9.4 23,9.8 C22.1,10 20.6,10.1 20.6,10.1 C20.1,10.1 19.7,10.2 19.3,10.2 C16.1,10.2 14.1,9 12.7,4.7 C11.5,1 11.3,-0.1 10.4,-4.5"/>
<path class="Note" transform="matrix(2.3811,0,0,2.3811,1564.05,2353.15)" d="M18.7,-13.6 C4.9,-13.6 0,-6.6 0,-0.1 C0,6.4 4.9,13.4 18.7,13.4 C32.5,13.4 37.3,6.4 37.3,-0.1 C37.3,-6.6 32.5,-13.6 18.7,-13.6 M10.4,-4.5 C10.3,-4.9 10.3,-5.3 10.3,-5.7 C10.3,-6.5 10.5,-7.3 10.9,-8 C11.6,-9 12.8,-9.7 14.3,-10 C15.6,-10.3 16.3,-10.5 18.9,-10.5 L19,-10.5 C23,-10.5 24.3,-6.8 25.4,-3 L25.7,-2 C26.5,0.6 26.9,2.8 26.9,4.5 C26.9,5.7 26.7,6.8 26.3,7.6 C25.7,8.7 24.7,9.4 23,9.8 C22.1,10 20.6,10.1 20.6,10.1 C20.1,10.1 19.7,10.2 19.3,10.2 C16.1,10.2 14.1,9 12.7,4.7 C11.5,1 11.3,-0.1 10.4,-4.5"/>
<path class="Note" transform="matrix(2.3811,0,0,2.3811,2469.55,2144.8)" d="M18.7,-13.6 C4.9,-13.6 0,-6.6 0,-0.1 C0,6.4 4.9,13.4 18.7,13.4 C32.5,13.4 37.3,6.4 37.3,-0.1 C37.3,-6.6 32.5,-13.6 18.7,-13.6 M10.4,-4.5 C10.3,-4.9 10.3,-5.3 10.3,-5.7 C10.3,-6.5 10.5,-7.3 10.9,-8 C11.6,-9 12.8,-9.7 14.3,-10 C15.6,-10.3 16.3,-10.5 18.9,-10.5 L19,-10.5 C23,-10.5 24.3,-6.8 25.4,-3 L25.7,-2 C26.5,0.6 26.9,2.8 26.9,4.5 C26.9,5.7 26.7,6.8 26.3,7.6 C25.7,8.7 24.7,9.4 23,9.8 C22.1,10 20.6,10.1 20.6,10.1 C20.1,10.1 19.7,10.2 19.3,10.2 C16.1,10.2 14.1,9 12.7,4.7 C11.5,1 11.3,-0.1 10.4,-4.5"/>
<path class="Note" transform="matrix(2.3811,0,0,2.3811,3324.03,2353.15)" d="M18.7,-13.6 C4.9,-13.6 0,-6.6 0,-0.1 C0,6.4 4.9,13.4 18.7,13.4 C32.5,13.4 37.3,6.4 37.3,-0.1 C37.3,-6.6 32.5,-13.6 18.7,-13.6 M10.4,-4.5 C10.3,-4.9 10.3,-5.3 10.3,-5.7 C10.3,-6.5 10.5,-7.3 10.9,-8 C11.6,-9 12.8,-9.7 14.3,-10 C15.6,-10.3 16.3,-10.5 18.9,-10.5 L19,-10.5 C23,-10.5 24.3,-6.8 25.4,-3 L25.7,-2 C26.5,0.6 26.9,2.8 26.9,4.5 C26.9,5.7 26.7,6.8 26.3,7.6 C25.7,8.7 24.7,9.4 23,9.8 C22.1,10 20.6,10.1 20.6,10.1 C20.1,10.1 19.7,10.2 19.3,10.2 C16.1,10.2 14.1,9 12.7,4.7 C11.5,1 11.3,-0.1 10.4,-4.5"/>
<path class="Note" transform="matrix(2.3811,0,0,2.3811,647.767,1676.13)" d="M18.7,-13.6 C4.9,-13.6 0,-6.6 0,-0.1 C0,6.4 4.9,13.4 18.7,13.4 C32.5,13.4 37.3,6.4 37.3,-0.1 C37.3,-6.6 32.5,-13.6 18.7,-13.6 M10.4,-4.5 C10.3,-4.9 10.3,-5.3 10.3,-5.7 C10.3,-6.5 10.5,-7.3 10.9,-8 C11.6,-9 12.8,-9.7 14.3,-10 C15.6,-10.3 16.3,-10.5 18.9,-10.5 L19,-10.5 C23,-10.5 24.3,-6.8 25.4,-3 L25.7,-2 C26.5,0.6 26.9,2.8 26.9,4.5 C26.9,5.7 26.7,6.8 26.3,7.6 C25.7,8.7 24.7,9.4 23,9.8 C22.1,10 20.6,10.1 20.6,10.1 C20.1,10.1 19.7,10.2 19.3,10.2 C16.1,10.2 14.1,9 12.7,4.7 C11.5,1 11.3,-0.1 10.4,-4.5"/>
<path class="Note" transform="matrix(2.3811,0,0,2.3811,647.767,1616.6)" d="M18.7,-13.6 C4.9,-13.6 0,-6.6 0,-0.1 C0,6.4 4.9,13.4 18.7,13.4 C32.5,13.4 37.3,6.4 37.3,-0.1 C37.3,-6.6 32.5,-13.6 18.7,-13.6 M10.4,-4.5 C10.3,-4.9 10.3,-5.3 10.3,-5.7 C10.3,-6.5 10.5,-7.3 10.9,-8 C11.6,-9 12.8,-9.7 14.3,-10 C15.6,-10.3 16.3,-10.5 18.9,-10.5 L19,-10.5 C23,-10.5 24.3,-6.8 25.4,-3 L25.7,-2 C26.5,0.6 26.9,2.8 26.9,4.5 C26.9,5.7 26.7,6.8 26.3,7.6 C25.7,8.7 24.7,9.4 23,9.8 C22.1,10 20.6,10.1 20.6,10.1 C20.1,10.1 19.7,10.2 19.3,10.2 C16.1,10.2 14.1,9 12.7,4.7 C11.5,1 11.3,-0.1 10.4,-4.5"/>
<path class="Note" transform="matrix(2.3811,0,0,2.3811,647.767,1557.07)" d="M18.7,-13.6 C4.9,-13.6 0,-6.6 0,-0.1 C0,6.4 4.9,13.4 18.7,13.4 C32.5,13.4 37.3,6.4 37.3,-0.1 C37.3,-6.6 32.5,-13.6 18.7,-13.6 M10.4,-4.5 C10.3,-4.9 10.3,-5.3 10.3,-5.7 C10.3,-6.5 10.5,-7.3 10.9,-8 C11.6,-9 12.8,-9.7 14.3,-10 C15.6,-10.3 16.3,-10.5 18.9,-10.5 L19,-10.5 C23,-10.5 24.3,-6.8 25.4,-3 L25.7,-2 C26.5,0.6 26.9,2.8 26.9,4.5 C26.9,5.7 26.7,6.8 26.3,7.6 C25.7,8.7 24.7,9.4 23,9.8 C22.1,10 20.6,10.1 20.6,10.1 C20.1,10.1 19.7,10.2 19.3,10.2 C16.1,10.2 14.1,9 12.7,4.7 C11.5,1 11.3,-0.1 10.4,-4.5"/>
<path class="Note" transform="matrix(2.3811,0,0,2.3811,1564.05,1616.6)" d="M18.7,-13.6 C4.9,-13.6 0,-6.6 0,-0.1 C0,6.4 4.9,13.4 18.7,13.4 C32.5,13.4 37.3,6.4 37.3,-0.1 C37.3,-6.6 32.5,-13.6 18.7,-13.6 M10.4,-4.5 C10.3,-4.9 10.3,-5.3 10.3,-5.7 C10.3,-6.5 10.5,-7.3 10.9,-8 C11.6,-9 12.8,-9.7 14.3,-10 C15.6,-10.3 16.3,-10.5 18.9,-10.5 L19,-10.5 C23,-10.5 24.3,-6.8 25.4,-3 L25.7,-2 C26.5,0.6 26.9,2.8 26.9,4.5 C26.9,5.7 26.7,6.8 26.3,7.6 C25.7,8.7 24.7,9.4 23,9.8 C22.1,10 20.6,10.1 20.6,10.1 C20.1,10.1 19.7,10.2 19.3,10.2 C16.1,10.2 14.1,9 12.7,4.7 C11.5,1 11.3,-0.1 10.4,-4.5"/>
<path class="Note" transform="matrix(2.3811,0,0,2.3811,1564.05,1557.07)" d="M18.7,-13.6 C4.9,-13.6 0,-6.6 0,-0.1 C0,6.4 4.9,13.4 18.7,13.4 C32.5,13.4 37.3,6.4 37.3,-0.1 C37.3,-6.6 32.5,-13.6 18.7,-13.6 M10.4,-4.5 C10.3,-4.9 10.3,-5.3 10.3,-5.7 C10.3,-6.5 10.5,-7.3 10.9,-8 C11.6,-9 12.8,-9.7 14.3,-10 C15.6,-10.3 16.3,-10.5 18.9,-10.5 L19,-10.5 C23,-10.5 24.3,-6.8 25.4,-3 L25.7,-2 C26.5,0.6 26.9,2.8 26.9,4.5 C26.9,5.7 26.7,6.8 26.3,7.6 C25.7,8.7 24.7,9.4 23,9.8 C22.1,10 20.6,10.1 20.6,10.1 C20.1,10.1 19.7,10.2 19.3,10.2 C16.1,10.2 14.1,9 12.7,4.7 C11.5,1 11.3,-0.1 10.4,-4.5"/>
<path class="Note" transform="matrix(2.3811,0,0,2.3811,1564.05,1467.78)" d="M18.7,-13.6 C4.9,-13.6 0,-6.6 0,-0.1 C0,6.4 4.9,13.4 18.7,13.4 C32.5,13.4 37.3,6.4 37.3,-0.1 C37.3,-6.6 32.5,-13.6 18.7,-13.6 M10.4,-4.5 C10.3,-4.9 10.3,-5.3 10.3,-5.7 C10.3,-6.5 10.5,-7.3 10.9,-8 C11.6,-9 12.8,-9.7 14.3,-10 C15.6,-10.3 16.3,-10.5 18.9,-10.5 L19,-10.5 C23,-10.5 24.3,-6.8 25.4,-3 L25.7,-2 C26.5,0.6 26.9,2.8 26.9,4.5 C26.9,5.7 26.7,6.8 26.3,7.6 C25.7,8.7 24.7,9.4 23,9.8 C22.1,10 20.6,10.1 20.6,10.1 C20.1,10.1 19.7,10.2 19.3,10.2 C16.1,10.2 14.1,9 12.7,4.7 C11.5,1 11.3,-0.1 10.4,-4.5"/>
<path class="Note" transform="matrix(2.3811,0,0,2.3811,2469.55,1557.07)" d="M18.7,-13.6 C4.9,-13.6 0,-6.6 0,-0.1 C0,6.4 4.9,13.4 18.7,13.4 C32.5,13.4 37.3,6.4 37.3,-0.1 C37.3,-6.6 32.5,-13.6 18.7,-13.6 M10.4,-4.5 C10.3,-4.9 10.3,-5.3 10.3,-5.7 C10.3,-6.5 10.5,-7.3 10.9,-8 C11.6,-9 12.8,-9.7 14.3,-10 C15.6,-10.3 16.3,-10.5 18.9,-10.5 L19,-10.5 C23,-10.5 24.3,-6.8 25.4,-3 L25.7,-2 C26.5,0.6 26.9,2.8 26.9,4.5 C26.9,5.7 26.7,6.8 26.3,7.6 C25.7,8.7 24.7,9.4 23,9.8 C22.1,10 20.6,10.1 20.6,10.1 C20.1,10.1 19.7,10.2 19.3,10.2 C16.1,10.2 14.1,9 12.7,4.7 C11.5,1 11.3,-0.1 10.4,-4.5"/>
<path class="Note" transform="matrix(2.3811,0,0,2.3811,2469.55,1467.78)" d="M18.7,-13.6 C4.9,-13.6 0,-6.6 0,-0.1 C0,6.4 4.9,13.4 18.7,13.4 C32.5,13.4 37.3,6.4 37.3,-0.1 C37.3,-6.6 32.5,-13.6 18.7,-13.6 M10.4,-4.5 C10.3,-4.9 10.3,-5.3 10.3,-5.7 C10.3,-6.5 10.5,-7.3 10.9,-8 C11.6,-9 12.8,-9.7 14.3,-10 C15.6,-10.3 16.3,-10.5 18.9,-10.5 L19,-10.5 C23,-10.5 24.3,-6.8 25.4,-3 L25.7,-2 C26.5,0.6 26.9,2.8 26.9,4.5 C26.9,5.7 26.7,6.8 26.3,7.6 C25.7,8.7 24.7,9.4 23,9.8 C22.1,10 20.6,10.1 20.6,10.1 C20.1,10.1 19.7,10.2 19.3,10.2 C16.1,10.2 14.1,9 12.7,4.7 C11.5,1 11.3,-0.1 10.4,-4.5"/>
<path class="Note" transform="matrix(2.3811,0,0,2.3811,2469.55,1408.26)" d="M18.7,-13.6 C4.9,-13.6 0,-6.6 0,-0.1 C0,6.4 4.9,13.4 18.7,13.4 C32.5,13.4 37.3,6.4 37.3,-0.1 C37.3,-6.6 32.5,-13.6 18.7,-13.6 M10.4,-4.5 C10.3,-4.9 10.3,-5.3 10.3,-5.7 C10.3,-6.5 10.5,-7.3 10.9,-8 C11.6,-9 12.8,-9.7 14.3,-10 C15.6,-10.3 16.3,-10.5 18.9,-10.5 L19,-10.5 C23,-10.5 24.3,-6.8 25.4,-3 L25.7,-2 C26.5,0.6 26.9,2.8 26.9,4.5 C26.9,5.7 26.7,6.8 26.3,7.6 C25.7,8.7 24.7,9.4 23,9.8 C22.1,10 20.6,10.1 20.6,10.1 C20.1,10.1 19.7,10.2 19.3,10.2 C16.1,10.2 14.1,9 12.7,4.7 C11.5,1 11.3,-0.1 10.4,-4.5"/>
<path class="Note" transform="matrix(2.3811,0,0,2.3811,3324.03,1557.07)" d="M18.7,-13.6 C4.9,-13.6 0,-6.6 0,-0.1 C0,6.4 4.9,13.4 18.7,13.4 C32.5,13.4 37.3,6.4 37.3,-0.1 C37.3,-6.6 32.5,-13.6 18.7,-13.6 M10.4,-4.5 C10.3,-4.9 10.3,-5.3 10.3,-5.7 C10.3,-6.5 10.5,-7.3 10.9,-8 C11.6,-9 12.8,-9.7 14.3,-10 C15.6,-10.3 16.3,-10.5 18.9,-10.5 L19,-10.5 C23,-10.5 24.3,-6.8 25.4,-3 L25.7,-2 C26.5,0.6 26.9,2.8 26.9,4.5 C26.9,5.7 26.7,6.8 26.3,7.6 C25.7,8.7 24.7,9.4 23,9.8 C22.1,10 20.6,10.1 20.6,10.1 C20.1,10.1 19.7,10.2 19.3,10.2 C16.1,10.2 14.1,9 12.7,4.7 C11.5,1 11.3,-0.1 10.4,-4.5"/>
<path class="Note" transform="matrix(2.3811,0,0,2.3811,3324.03,1467.78)" d="M18.7,-13.6 C4.9,-13.6 0,-6.6 0,-0.1 C0,6.4 4.9,13.4 18.7,13.4 C32.5,13.4 37.3,6.4 37.3,-0.1 C37.3,-6.6 32.5,-13.6 18.7,-13.6 M10.4,-4.5 C10.3,-4.9 10.3,-5.3 10.3,-5.7 C10.3,-6.5 10.5,-7.3 10.9,-8 C11.6,-9 12.8,-9.7 14.3,-10 C15.6,-10.3 16.3,-10.5 18.9,-10.5 L19,-10.5 C23,-10.5 24.3,-6.8 25.4,-3 L25.7,-2 C26.5,0.6 26.9,2.8 26.9,4.5 C26.9,5.7 26.7,6.8 26.3,7.6 C25.7,8.7 24.7,9.4 23,9.8 C22.1,10 20.6,10.1 20.6,10.1 C20.1,10.1 19.7,10.2 19.3,10.2 C16.1,10.2 14.1,9 12.7,4.7 C11.5,1 11.3,-0.1 10.4,-4.5"/>
<path class="Note" transform="matrix(2.3811,0,0,2.3811,3324.03,1408.26)" d="M18.7,-13.6 C4.9,-13.6 0,-6.6 0,-0.1 C0,6.4 4.9,13.4 18.7,13.4 C32.5,13.4 37.3,6.4 37.3,-0.1 C37.3,-6.6 32.5,-13.6 18.7,-13.6 M10.4,-4.5 C10.3,-4.9 10.3,-5.3 10.3,-5.7 C10.3,-6.5 10.5,-7.3 10.9,-8 C11.6,-9 12.8,-9.7 14.3,-10 C15.6,-10.3 16.3,-10.5 18.9,-10.5 L19,-10.5 C23,-10.5 24.3,-6.8 25.4,-3 L25.7,-2 C26.5,0.6 26.9,2.8 26.9,4.5 C26.9,5.7 26.7,6.8 26.3,7.6 C25.7,8.7 24.7,9.4 23,9.8 C22.1,10 20.6,10.1 20.6,10.1 C20.1,10.1 19.7,10.2 19.3,10.2 C16.1,10.2 14.1,9 12.7,4.7 C11.5,1 11.3,-0.1 10.4,-4.5"/>
<path class="Note" d="M633.315,1107.83 C632.927,1108.52 632.346,1108.87 631.572,1108.87 C630.874,1108.87 629.983,1108.56 628.899,1107.94 C627.272,1107.01 626.458,1106.08 626.458,1105.15 C626.458,1104.84 626.574,1104.46 626.807,1103.99 C644.548,1078.42 655.627,1056.89 660.043,1039.38 C660.353,1038.83 660.895,1038.56 661.67,1038.56 C662.677,1038.56 664.111,1039.11 665.97,1040.19 C668.527,1041.66 669.805,1042.98 669.805,1044.14 C669.805,1044.45 669.727,1044.72 669.573,1044.96 C663.685,1061.69 651.599,1082.65 633.315,1107.83 M654.233,1114.8 C653.845,1115.5 653.264,1115.84 652.49,1115.84 C651.792,1115.84 650.901,1115.53 649.817,1114.91 C648.19,1113.98 647.376,1113.05 647.376,1112.12 C647.376,1111.82 647.492,1111.43 647.725,1110.96 C665.466,1085.4 676.545,1063.86 680.961,1046.35 C681.271,1045.81 681.813,1045.54 682.588,1045.54 C683.595,1045.54 685.029,1046.08 686.888,1047.16 C689.445,1048.64 690.723,1049.95 690.723,1051.11 C690.723,1051.42 690.645,1051.7 690.491,1051.93 C684.602,1068.66 672.517,1089.62 654.233,1114.8 M675.151,1121.77 C674.763,1122.47 674.182,1122.82 673.407,1122.82 C672.71,1122.82 671.819,1122.51 670.735,1121.89 C669.108,1120.96 668.294,1120.03 668.294,1119.1 C668.294,1118.79 668.41,1118.4 668.643,1117.94 C686.384,1092.37 697.463,1070.83 701.879,1053.32 C702.189,1052.78 702.731,1052.51 703.506,1052.51 C704.513,1052.51 705.947,1053.05 707.806,1054.14 C710.363,1055.61 711.641,1056.92 711.641,1058.09 C711.641,1058.4 711.563,1058.67 711.408,1058.9 C705.52,1075.63 693.435,1096.59 675.151,1121.77 M758.692,1076.33 C763.263,1076.33 765.548,1079.2 765.548,1084.93 C765.548,1088.96 763.03,1094.96 757.994,1102.94 C753.966,1109.37 751.951,1115.65 751.951,1121.77 C751.951,1125.26 757.026,1127 767.175,1127 C775.542,1127 787.202,1122.47 802.155,1113.4 C787.125,1127.89 774.07,1135.13 762.991,1135.13 C752.997,1135.13 746.025,1133.62 742.074,1130.6 C741.066,1129.83 740.214,1128.9 739.517,1127.81 C735.643,1132.54 729.174,1134.9 720.11,1134.9 C711.433,1134.9 704.77,1133.12 700.121,1129.56 C697.022,1127.15 695.473,1123.32 695.473,1118.05 C695.473,1109.68 700.431,1100.54 710.348,1090.63 C720.962,1080.01 733.241,1074.71 747.187,1074.71 C750.673,1074.71 753.23,1075.98 754.857,1078.54 C756.174,1077.07 757.452,1076.33 758.692,1076.33 M737.89,1122.58 C737.812,1121.96 737.774,1121.34 737.774,1120.72 C737.774,1120.41 741.725,1109.61 749.627,1088.3 C750.402,1086.21 751.177,1084.43 751.951,1082.96 C748.93,1082.34 745.947,1082.03 743.003,1082.03 C737.58,1082.03 730.375,1086.64 721.388,1095.86 C713.331,1104.07 709.302,1111.16 709.302,1117.12 C709.302,1123.71 712.44,1127 718.715,1127 C726.308,1127 732.699,1125.53 737.89,1122.58"/>
<path class="Note" d="M726.587,868.283 C731.158,868.283 733.443,871.15 733.443,876.883 C733.443,880.911 730.925,886.916 725.889,894.895 C721.861,901.326 719.846,907.601 719.846,913.722 C719.846,917.208 724.921,918.951 735.07,918.951 C743.437,918.951 755.097,914.419 770.049,905.354 C755.019,919.842 741.965,927.086 730.886,927.086 C720.892,927.086 713.92,925.575 709.968,922.554 C708.961,921.779 708.109,920.849 707.412,919.765 C703.538,924.491 697.069,926.853 688.005,926.853 C679.327,926.853 672.665,925.072 668.016,921.508 C664.917,919.106 663.368,915.271 663.368,910.003 C663.368,901.636 668.326,892.494 678.243,882.577 C688.857,871.963 701.136,866.656 715.082,866.656 C718.568,866.656 721.125,867.935 722.752,870.491 C724.069,869.019 725.347,868.283 726.587,868.283 M705.785,914.535 C705.707,913.915 705.669,913.296 705.669,912.676 C705.669,912.366 709.62,901.558 717.522,880.253 C718.297,878.161 719.072,876.379 719.846,874.907 C716.825,874.287 713.842,873.977 710.898,873.977 C705.475,873.977 698.27,878.587 689.283,887.807 C681.226,896.019 677.197,903.108 677.197,909.073 C677.197,915.658 680.335,918.951 686.61,918.951 C694.202,918.951 700.594,917.479 705.785,914.535"/>
<path class="Note" d="M733.675,597.504 C744.134,590.919 751.727,585.534 756.453,581.351 C765.13,573.681 769.468,565.933 769.468,558.108 C769.468,548.966 763.348,544.395 751.107,544.395 C738.246,544.395 724.843,553.654 710.898,572.17 C701.446,584.721 694.745,596.574 690.794,607.73 C695.674,604.554 700.826,602.966 706.25,602.966 C711.363,602.966 715.43,605.251 718.452,609.822 C720.544,612.999 721.589,618.422 721.589,626.092 C721.589,632.987 717.948,641.083 710.666,650.38 C706.172,656.113 701.175,658.979 695.674,658.979 C688.702,658.979 683.821,657.585 681.032,654.796 C677.081,650.845 675.105,643.02 675.105,631.321 C675.105,611.643 683.046,592.274 698.928,573.216 C716.825,551.756 733.985,541.025 750.41,541.025 C763.116,541.025 772.606,544.008 778.881,549.974 C782.523,553.46 784.343,558.496 784.343,565.081 C784.343,572.441 777.1,580.653 762.612,589.718 C755.019,594.521 745.374,597.117 733.675,597.504 M689.283,612.611 C687.346,619.119 686.378,625.356 686.378,631.321 C686.378,645.499 688.624,652.588 693.118,652.588 C697.379,652.588 700.71,649.566 703.112,643.523 C705.901,636.706 707.296,629.152 707.296,620.862 C707.296,613.502 704.855,609.822 699.974,609.822 C696.565,609.822 693.002,610.752 689.283,612.611"/>
<path class="Note" d="M726.587,511.118 C731.158,511.118 733.443,513.984 733.443,519.717 C733.443,523.746 730.925,529.75 725.889,537.73 C721.861,544.16 719.846,550.436 719.846,556.556 C719.846,560.043 724.921,561.786 735.07,561.786 C743.437,561.786 755.097,557.254 770.049,548.189 C755.019,562.677 741.965,569.921 730.886,569.921 C720.892,569.921 713.92,568.41 709.968,565.388 C708.961,564.614 708.109,563.684 707.412,562.599 C703.538,567.325 697.069,569.688 688.005,569.688 C679.327,569.688 672.665,567.906 668.016,564.342 C664.917,561.941 663.368,558.106 663.368,552.838 C663.368,544.47 668.326,535.328 678.243,525.412 C688.857,514.798 701.136,509.491 715.082,509.491 C718.568,509.491 721.125,510.769 722.752,513.326 C724.069,511.854 725.347,511.118 726.587,511.118 M705.785,557.37 C705.707,556.75 705.669,556.13 705.669,555.51 C705.669,555.2 709.62,544.393 717.522,523.088 C718.297,520.996 719.072,519.214 719.846,517.742 C716.825,517.122 713.842,516.812 710.898,516.812 C705.475,516.812 698.27,521.422 689.283,530.641 C681.226,538.853 677.197,545.942 677.197,551.908 C677.197,558.493 680.335,561.786 686.61,561.786 C694.202,561.786 700.594,560.314 705.785,557.37"/>
<path class="Note" d="M1642.87,868.283 C1647.44,868.283 1649.72,871.15 1649.72,876.883 C1649.72,880.911 1647.21,886.916 1642.17,894.895 C1638.14,901.326 1636.13,907.601 1636.13,913.722 C1636.13,917.208 1641.2,918.951 1651.35,918.951 C1659.72,918.951 1671.38,914.419 1686.33,905.354 C1671.3,919.842 1658.25,927.086 1647.17,927.086 C1637.17,927.086 1630.2,925.575 1626.25,922.554 C1625.24,921.779 1624.39,920.849 1623.69,919.765 C1619.82,924.491 1613.35,926.853 1604.29,926.853 C1595.61,926.853 1588.95,925.072 1584.3,921.508 C1581.2,919.106 1579.65,915.271 1579.65,910.003 C1579.65,901.636 1584.61,892.494 1594.52,882.577 C1605.14,871.963 1617.42,866.656 1631.36,866.656 C1634.85,866.656 1637.41,867.935 1639.03,870.491 C1640.35,869.019 1641.63,868.283 1642.87,868.283 M1622.07,914.535 C1621.99,913.915 1621.95,913.296 1621.95,912.676 C1621.95,912.366 1625.9,901.558 1633.8,880.253 C1634.58,878.161 1635.35,876.379 1636.13,874.907 C1633.11,874.287 1630.12,873.977 1627.18,873.977 C1621.76,873.977 1614.55,878.587 1605.56,887.807 C1597.51,896.019 1593.48,903.108 1593.48,909.073 C1593.48,915.658 1596.62,918.951 1602.89,918.951 C1610.48,918.951 1616.88,917.479 1622.07,914.535"/>
<path class="Note" d="M1649.96,597.504 C1660.42,590.919 1668.01,585.534 1672.73,581.351 C1681.41,573.681 1685.75,565.933 1685.75,558.108 C1685.75,548.966 1679.63,544.395 1667.39,544.395 C1654.53,544.395 1641.13,553.654 1627.18,572.17 C1617.73,584.721 1611.03,596.574 1607.08,607.73 C1611.96,604.554 1617.11,602.966 1622.53,602.966 C1627.64,602.966 1631.71,605.251 1634.73,609.822 C1636.83,612.999 1637.87,618.422 1637.87,626.092 C1637.87,632.987 1634.23,641.083 1626.95,650.38 C1622.45,656.113 1617.46,658.979 1611.96,658.979 C1604.98,658.979 1600.1,657.585 1597.31,654.796 C1593.36,650.845 1591.39,643.02 1591.39,631.321 C1591.39,611.643 1599.33,592.274 1615.21,573.216 C1633.11,551.756 1650.27,541.025 1666.69,541.025 C1679.4,541.025 1688.89,544.008 1695.16,549.974 C1698.8,553.46 1700.63,558.496 1700.63,565.081 C1700.63,572.441 1693.38,580.653 1678.89,589.718 C1671.3,594.521 1661.66,597.117 1649.96,597.504 M1605.56,612.611 C1603.63,619.119 1602.66,625.356 1602.66,631.321 C1602.66,645.499 1604.91,652.588 1609.4,652.588 C1613.66,652.588 1616.99,649.566 1619.39,643.523 C1622.18,636.706 1623.58,629.152 1623.58,620.862 C1623.58,613.502 1621.14,609.822 1616.26,609.822 C1612.85,609.822 1609.28,610.752 1605.56,612.611"/>
<path class="Note" d="M1642.87,511.118 C1647.44,511.118 1649.72,513.984 1649.72,519.717 C1649.72,523.746 1647.21,529.75 1642.17,537.73 C1638.14,544.16 1636.13,550.436 1636.13,556.556 C1636.13,560.043 1641.2,561.786 1651.35,561.786 C1659.72,561.786 1671.38,557.254 1686.33,548.189 C1671.3,562.677 1658.25,569.921 1647.17,569.921 C1637.17,569.921 1630.2,568.41 1626.25,565.388 C1625.24,564.614 1624.39,563.684 1623.69,562.599 C1619.82,567.325 1613.35,569.688 1604.29,569.688 C1595.61,569.688 1588.95,567.906 1584.3,564.342 C1581.2,561.941 1579.65,558.106 1579.65,552.838 C1579.65,544.47 1584.61,535.328 1594.52,525.412 C1605.14,514.798 1617.42,509.491 1631.36,509.491 C1634.85,509.491 1637.41,510.769 1639.03,513.326 C1640.35,511.854 1641.63,511.118 1642.87,511.118 M1622.07,557.37 C1621.99,556.75 1621.95,556.13 1621.95,555.51 C1621.95,555.2 1625.9,544.393 1633.8,523.088 C1634.58,520.996 1635.35,519.214 1636.13,517.742 C1633.11,517.122 1630.12,516.812 1627.18,516.812 C1621.76,516.812 1614.55,521.422 1605.56,530.641 C1597.51,538.853 1593.48,545.942 1593.48,551.908 C1593.48,558.493 1596.62,561.786 1602.89,561.786 C1610.48,561.786 1616.88,560.314 1622.07,557.37"/>
<path class="Note" d="M1598.59,837.562 C1594.8,837.562 1592.9,833.495 1592.9,825.36 L1592.9,791.31 C1592.9,788.056 1594.49,786.429 1597.66,786.429 C1599.06,786.429 1600.1,786.546 1600.8,786.778 C1603.28,782.439 1607.35,778.798 1613,775.854 C1620.9,771.748 1628.92,769.695 1637.06,769.695 C1643.49,769.695 1646.7,772.097 1646.7,776.9 C1646.7,780.929 1644.53,782.943 1640.2,782.943 C1637.1,782.943 1634.15,782.246 1631.36,780.851 C1628.88,779.612 1626.25,778.992 1623.46,778.992 C1618.66,778.992 1611.57,782.13 1602.19,788.405 C1603.51,794.68 1604.17,802.002 1604.17,810.369 C1604.17,828.498 1602.31,837.562 1598.59,837.562"/>
<path class="Note" d="M1531.78,693.652 C1532.09,681.953 1538.56,671.572 1551.19,662.507 C1562.42,654.45 1574.7,650.421 1588.03,650.421 C1606.7,650.421 1623.16,657.742 1637.42,672.385 C1646.48,681.759 1651.01,693.38 1651.01,707.248 C1651.01,719.722 1647.68,729.29 1641.02,735.952 C1632.88,744.165 1624.28,748.271 1615.22,748.271 C1609.02,748.271 1604.22,746.876 1600.81,744.087 C1595.23,739.516 1592.44,733.396 1592.44,725.726 C1592.44,715.809 1597.4,706.745 1607.32,698.533 C1615.45,691.792 1623.63,687.376 1631.84,685.284 C1629.67,681.566 1626.92,678.079 1623.59,674.825 C1613.21,664.676 1601.43,659.602 1588.26,659.602 C1574.55,659.602 1563.2,662.585 1554.21,668.55 C1544.91,674.671 1537.44,683.038 1531.78,693.652 M1634.74,691.444 C1630.48,695.395 1626.22,699.617 1621.96,704.111 C1613.59,712.943 1609.41,721.31 1609.41,729.212 C1609.41,737.657 1611.35,741.879 1615.22,741.879 C1618.71,741.879 1623.59,737.115 1629.86,727.585 C1634.9,719.993 1637.42,713.02 1637.42,706.667 C1637.42,701.244 1636.52,696.17 1634.74,691.444"/>
<path class="Note" d="M2563.25,577.632 C2567.58,574.688 2570.72,572.247 2572.66,570.311 C2576.22,566.514 2578,563.028 2578,559.852 C2578,556.21 2575.99,554.39 2571.96,554.39 C2564.14,554.39 2555.77,561.285 2546.86,575.075 C2544.15,579.259 2538.18,592.894 2528.96,615.981 C2536.32,623.574 2540,627.874 2540,628.881 C2540,630.275 2539.11,630.973 2537.33,630.973 C2535.94,630.973 2532.1,628.61 2525.83,623.884 C2519.01,639.766 2508.67,653.324 2494.8,664.558 C2480.62,676.024 2463.69,681.757 2444.01,681.757 C2436.5,681.757 2427.08,680.014 2415.77,676.527 C2406.71,673.738 2402.18,669.283 2402.18,663.163 C2402.18,654.099 2405.66,649.566 2412.64,649.566 C2416.82,649.566 2418.91,651.503 2418.91,655.377 C2418.91,656.617 2417.94,657.934 2416.01,659.328 C2415,660.025 2414.5,661.381 2414.5,663.395 C2414.5,665.797 2417.17,668.276 2422.51,670.833 C2428.32,673.622 2436.85,675.017 2448.08,675.017 C2462.57,675.017 2476.55,668.741 2490.03,656.19 C2502.27,644.802 2511.07,631.554 2516.41,616.446 C2514.32,614.742 2512.07,612.882 2509.67,610.868 C2502.23,606.452 2498.52,601.92 2498.52,597.271 C2498.52,595.335 2499.79,594.366 2502.35,594.366 C2505.76,594.366 2510.37,597.271 2516.18,603.082 C2517.42,604.322 2518.58,605.484 2519.67,606.568 C2522.38,599.131 2526.72,589.679 2532.68,578.213 C2543.45,557.45 2556.54,547.068 2571.96,547.068 C2577.46,547.068 2581.8,548.114 2584.98,550.206 C2588.15,552.298 2589.74,555.164 2589.74,558.806 C2589.74,564.616 2587.61,569.536 2583.35,573.564 C2578.93,577.748 2574.32,579.84 2569.52,579.84 C2565.34,579.84 2563.25,579.104 2563.25,577.632"/>
<path class="Note" d="M2563.25,488.34 C2567.58,485.396 2570.72,482.956 2572.66,481.019 C2576.22,477.223 2578,473.737 2578,470.56 C2578,466.919 2575.99,465.098 2571.96,465.098 C2564.14,465.098 2555.77,471.993 2546.86,485.784 C2544.15,489.967 2538.18,503.603 2528.96,526.69 C2536.32,534.283 2540,538.582 2540,539.589 C2540,540.984 2539.11,541.681 2537.33,541.681 C2535.94,541.681 2532.1,539.318 2525.83,534.592 C2519.01,550.475 2508.67,564.033 2494.8,575.266 C2480.62,586.732 2463.69,592.465 2444.01,592.465 C2436.5,592.465 2427.08,590.722 2415.77,587.236 C2406.71,584.447 2402.18,579.992 2402.18,573.872 C2402.18,564.807 2405.66,560.275 2412.64,560.275 C2416.82,560.275 2418.91,562.212 2418.91,566.086 C2418.91,567.325 2417.94,568.642 2416.01,570.037 C2415,570.734 2414.5,572.09 2414.5,574.104 C2414.5,576.506 2417.17,578.985 2422.51,581.542 C2428.32,584.331 2436.85,585.725 2448.08,585.725 C2462.57,585.725 2476.55,579.45 2490.03,566.899 C2502.27,555.51 2511.07,542.262 2516.41,527.155 C2514.32,525.45 2512.07,523.591 2509.67,521.577 C2502.23,517.161 2498.52,512.629 2498.52,507.98 C2498.52,506.043 2499.79,505.075 2502.35,505.075 C2505.76,505.075 2510.37,507.98 2516.18,513.791 C2517.42,515.03 2518.58,516.192 2519.67,517.277 C2522.38,509.839 2526.72,500.388 2532.68,488.922 C2543.45,468.158 2556.54,457.777 2571.96,457.777 C2577.46,457.777 2581.8,458.823 2584.98,460.915 C2588.15,463.006 2589.74,465.873 2589.74,469.514 C2589.74,475.325 2587.61,480.244 2583.35,484.273 C2578.93,488.457 2574.32,490.548 2569.52,490.548 C2565.34,490.548 2563.25,489.812 2563.25,488.34"/>
<path class="Note" d="M2490.61,837.562 C2486.43,837.562 2484.34,835.664 2484.34,831.868 C2484.34,825.437 2485.31,820.712 2487.24,817.69 C2495.3,805.759 2512.81,783.447 2539.77,750.753 C2551.93,735.955 2567.62,728.556 2586.84,728.556 C2594.27,728.556 2599.43,729.602 2602.29,731.694 C2606.71,734.948 2608.92,738.86 2608.92,743.431 C2608.92,748.235 2605.04,753.58 2597.3,759.468 C2589.94,765.047 2582.96,767.836 2576.38,767.836 C2573.82,767.836 2572.54,767.564 2572.54,767.022 C2572.54,766.247 2573.78,765.434 2576.26,764.582 C2579.59,763.342 2583.16,760.824 2586.95,757.028 C2591.29,752.612 2593.46,748.622 2593.46,745.058 C2593.46,742.657 2591.79,740.371 2588.46,738.202 C2585.52,736.342 2580.75,735.413 2574.17,735.413 C2564.56,735.413 2552.44,745.097 2537.8,764.465 C2528.03,777.404 2520.13,788.792 2514.09,798.631 C2517.03,797.005 2520.56,795.029 2524.66,792.705 C2529.7,789.838 2534.04,788.405 2537.68,788.405 C2546.74,788.405 2551.28,791.659 2551.28,798.167 C2551.28,804.597 2547.56,811.647 2540.12,819.317 C2534.85,824.74 2532.22,828.769 2532.22,831.403 C2532.22,834.115 2534.85,835.47 2540.12,835.47 C2542.75,835.47 2545.47,834.541 2548.25,832.681 C2551.04,830.899 2553.1,830.008 2554.41,830.008 C2555.5,830.008 2556.04,830.706 2556.04,832.1 C2556.04,834.347 2553.87,836.71 2549.53,839.189 C2542.25,843.373 2536.4,845.464 2531.98,845.464 C2524.16,845.464 2520.25,841.281 2520.25,832.914 C2520.25,827.645 2523.27,821.796 2529.31,815.366 C2533.73,810.64 2535.94,805.953 2535.94,801.304 C2535.94,797.276 2533.77,795.261 2529.43,795.261 C2527.72,795.261 2522.07,797.276 2512.46,801.304 C2509.59,806.108 2507.19,810.524 2505.26,814.552 C2497.9,829.892 2493.02,837.562 2490.61,837.562"/>
<path class="Note" d="M2562.43,690.514 C2562.43,699.423 2552.28,718.986 2531.98,749.2 C2523.93,761.209 2512.35,770.002 2497.24,775.58 C2486.08,779.764 2473.18,781.856 2458.54,781.856 C2453.81,781.856 2449.63,780.887 2445.99,778.95 C2441.96,776.859 2439.95,774.573 2439.95,772.094 C2439.95,765.664 2443.39,762.449 2450.29,762.449 C2451.3,762.449 2451.8,763.068 2451.8,764.308 C2451.8,765.393 2451.3,766.593 2450.29,767.91 C2449.05,769.537 2448.43,770.738 2448.43,771.513 C2448.43,773.837 2451.92,774.999 2458.89,774.999 C2474.54,774.999 2486.89,773.101 2495.96,769.305 C2505.41,765.431 2514.82,755.553 2524.2,739.671 L2526.87,734.674 C2522.38,738.083 2517.92,739.787 2513.51,739.787 C2502.51,739.787 2497.01,735.333 2497.01,726.423 C2497.01,716.816 2503.47,706.706 2516.41,696.092 C2526.56,687.88 2535.59,683.774 2543.49,683.774 C2547.44,683.774 2550.73,684.82 2553.37,686.911 C2554.3,686.214 2555.46,685.866 2556.85,685.866 C2560.57,685.866 2562.43,687.415 2562.43,690.514 M2528.27,732.234 L2550.23,691.676 C2548.53,691.289 2546.63,691.095 2544.54,691.095 C2537.02,691.095 2529.74,695.472 2522.69,704.227 C2514.48,714.453 2510.37,722.627 2510.37,728.747 C2510.37,732.776 2513.04,734.79 2518.39,734.79 C2520.94,734.79 2524.24,733.938 2528.27,732.234"/>
<path class="Note" d="M3417.73,934.797 C3422.07,931.853 3425.2,929.413 3427.14,927.476 C3430.71,923.68 3432.49,920.193 3432.49,917.017 C3432.49,913.376 3430.47,911.555 3426.44,911.555 C3418.62,911.555 3410.25,918.45 3401.34,932.241 C3398.63,936.424 3392.67,950.06 3383.45,973.147 C3390.81,980.739 3394.49,985.039 3394.49,986.046 C3394.49,987.441 3393.6,988.138 3391.81,988.138 C3390.42,988.138 3386.58,985.775 3380.31,981.049 C3373.49,996.931 3363.15,1010.49 3349.28,1021.72 C3335.1,1033.19 3318.17,1038.92 3298.5,1038.92 C3290.98,1038.92 3281.57,1037.18 3270.26,1033.69 C3261.19,1030.9 3256.66,1026.45 3256.66,1020.33 C3256.66,1011.26 3260.15,1006.73 3267.12,1006.73 C3271.3,1006.73 3273.39,1008.67 3273.39,1012.54 C3273.39,1013.78 3272.43,1015.1 3270.49,1016.49 C3269.48,1017.19 3268.98,1018.55 3268.98,1020.56 C3268.98,1022.96 3271.65,1025.44 3277,1028 C3282.81,1030.79 3291.33,1032.18 3302.56,1032.18 C3317.05,1032.18 3331.04,1025.91 3344.52,1013.36 C3356.76,1001.97 3365.55,988.719 3370.9,973.612 C3368.8,971.907 3366.56,970.048 3364.16,968.033 C3356.72,963.617 3353,959.085 3353,954.437 C3353,952.5 3354.28,951.532 3356.83,951.532 C3360.24,951.532 3364.85,954.437 3370.66,960.247 C3371.9,961.487 3373.06,962.649 3374.15,963.734 C3376.86,956.296 3381.2,946.844 3387.17,935.378 C3397.93,914.615 3411.03,904.234 3426.44,904.234 C3431.94,904.234 3436.28,905.28 3439.46,907.371 C3442.64,909.463 3444.22,912.33 3444.22,915.971 C3444.22,921.782 3442.09,926.701 3437.83,930.73 C3433.42,934.913 3428.81,937.005 3424,937.005 C3419.82,937.005 3417.73,936.269 3417.73,934.797"/>
<path class="Note" d="M3417.73,577.632 C3422.07,574.688 3425.2,572.247 3427.14,570.311 C3430.71,566.514 3432.49,563.028 3432.49,559.852 C3432.49,556.21 3430.47,554.39 3426.44,554.39 C3418.62,554.39 3410.25,561.285 3401.34,575.075 C3398.63,579.259 3392.67,592.894 3383.45,615.981 C3390.81,623.574 3394.49,627.874 3394.49,628.881 C3394.49,630.275 3393.6,630.973 3391.81,630.973 C3390.42,630.973 3386.58,628.61 3380.31,623.884 C3373.49,639.766 3363.15,653.324 3349.28,664.558 C3335.1,676.024 3318.17,681.757 3298.5,681.757 C3290.98,681.757 3281.57,680.014 3270.26,676.527 C3261.19,673.738 3256.66,669.283 3256.66,663.163 C3256.66,654.099 3260.15,649.566 3267.12,649.566 C3271.3,649.566 3273.39,651.503 3273.39,655.377 C3273.39,656.617 3272.43,657.934 3270.49,659.328 C3269.48,660.025 3268.98,661.381 3268.98,663.395 C3268.98,665.797 3271.65,668.276 3277,670.833 C3282.81,673.622 3291.33,675.017 3302.56,675.017 C3317.05,675.017 3331.04,668.741 3344.52,656.19 C3356.76,644.802 3365.55,631.554 3370.9,616.446 C3368.8,614.742 3366.56,612.882 3364.16,610.868 C3356.72,606.452 3353,601.92 3353,597.271 C3353,595.335 3354.28,594.366 3356.83,594.366 C3360.24,594.366 3364.85,597.271 3370.66,603.082 C3371.9,604.322 3373.06,605.484 3374.15,606.568 C3376.86,599.131 3381.2,589.679 3387.17,578.213 C3397.93,557.45 3411.03,547.068 3426.44,547.068 C3431.94,547.068 3436.28,548.114 3439.46,550.206 C3442.64,552.298 3444.22,555.164 3444.22,558.806 C3444.22,564.616 3442.09,569.536 3437.83,573.564 C3433.42,577.748 3428.81,579.84 3424,579.84 C3419.82,579.84 3417.73,579.104 3417.73,577.632"/>
<path class="Note" d="M3345.1,926.853 C3340.91,926.853 3338.82,924.955 3338.82,921.159 C3338.82,914.729 3339.79,910.003 3341.73,906.981 C3349.78,895.05 3367.29,872.738 3394.25,840.044 C3406.42,825.246 3422.11,817.848 3441.32,817.848 C3448.76,817.848 3453.91,818.894 3456.78,820.985 C3461.19,824.239 3463.4,828.152 3463.4,832.723 C3463.4,837.526 3459.53,842.872 3451.78,848.76 C3444.42,854.338 3437.45,857.127 3430.86,857.127 C3428.3,857.127 3427.03,856.856 3427.03,856.313 C3427.03,855.539 3428.26,854.725 3430.74,853.873 C3434.08,852.633 3437.64,850.116 3441.44,846.319 C3445.77,841.903 3447.94,837.913 3447.94,834.35 C3447.94,831.948 3446.28,829.662 3442.95,827.493 C3440,825.634 3435.24,824.704 3428.65,824.704 C3419.05,824.704 3406.92,834.388 3392.28,853.757 C3382.52,866.695 3374.61,878.084 3368.57,887.923 C3371.52,886.296 3375.04,884.32 3379.15,881.996 C3384.18,879.13 3388.52,877.696 3392.16,877.696 C3401.23,877.696 3405.76,880.95 3405.76,887.458 C3405.76,893.888 3402.04,900.938 3394.6,908.608 C3389.33,914.032 3386.7,918.06 3386.7,920.694 C3386.7,923.406 3389.33,924.762 3394.6,924.762 C3397.24,924.762 3399.95,923.832 3402.74,921.973 C3405.53,920.191 3407.58,919.3 3408.9,919.3 C3409.98,919.3 3410.52,919.997 3410.52,921.392 C3410.52,923.638 3408.35,926.001 3404.02,928.48 C3396.73,932.664 3390.88,934.756 3386.47,934.756 C3378.64,934.756 3374.73,930.572 3374.73,922.205 C3374.73,916.937 3377.75,911.088 3383.79,904.657 C3388.21,899.931 3390.42,895.244 3390.42,890.596 C3390.42,886.567 3388.25,884.553 3383.91,884.553 C3382.21,884.553 3376.55,886.567 3366.94,890.596 C3364.08,895.399 3361.68,899.815 3359.74,903.844 C3352.38,919.184 3347.5,926.853 3345.1,926.853"/>
<path class="Note" d="M3417.73,488.34 C3422.07,485.396 3425.2,482.956 3427.14,481.019 C3430.71,477.223 3432.49,473.737 3432.49,470.56 C3432.49,466.919 3430.47,465.098 3426.44,465.098 C3418.62,465.098 3410.25,471.993 3401.34,485.784 C3398.63,489.967 3392.67,503.603 3383.45,526.69 C3390.81,534.283 3394.49,538.582 3394.49,539.589 C3394.49,540.984 3393.6,541.681 3391.81,541.681 C3390.42,541.681 3386.58,539.318 3380.31,534.592 C3373.49,550.475 3363.15,564.033 3349.28,575.266 C3335.1,586.732 3318.17,592.465 3298.5,592.465 C3290.98,592.465 3281.57,590.722 3270.26,587.236 C3261.19,584.447 3256.66,579.992 3256.66,573.872 C3256.66,564.807 3260.15,560.275 3267.12,560.275 C3271.3,560.275 3273.39,562.212 3273.39,566.086 C3273.39,567.325 3272.43,568.642 3270.49,570.037 C3269.48,570.734 3268.98,572.09 3268.98,574.104 C3268.98,576.506 3271.65,578.985 3277,581.542 C3282.81,584.331 3291.33,585.725 3302.56,585.725 C3317.05,585.725 3331.04,579.45 3344.52,566.899 C3356.76,555.51 3365.55,542.262 3370.9,527.155 C3368.8,525.45 3366.56,523.591 3364.16,521.577 C3356.72,517.161 3353,512.629 3353,507.98 C3353,506.043 3354.28,505.075 3356.83,505.075 C3360.24,505.075 3364.85,507.98 3370.66,513.791 C3371.9,515.03 3373.06,516.192 3374.15,517.277 C3376.86,509.839 3381.2,500.388 3387.17,488.922 C3397.93,468.158 3411.03,457.777 3426.44,457.777 C3431.94,457.777 3436.28,458.823 3439.46,460.915 C3442.64,463.006 3444.22,465.873 3444.22,469.514 C3444.22,475.325 3442.09,480.244 3437.83,484.273 C3433.42,488.457 3428.81,490.548 3424,490.548 C3419.82,490.548 3417.73,489.812 3417.73,488.34"/>
<path class="Note" d="M3345.1,837.562 C3340.91,837.562 3338.82,835.664 3338.82,831.868 C3338.82,825.437 3339.79,820.712 3341.73,817.69 C3349.78,805.759 3367.29,783.447 3394.25,750.753 C3406.42,735.955 3422.11,728.556 3441.32,728.556 C3448.76,728.556 3453.91,729.602 3456.78,731.694 C3461.19,734.948 3463.4,738.86 3463.4,743.431 C3463.4,748.235 3459.53,753.58 3451.78,759.468 C3444.42,765.047 3437.45,767.836 3430.86,767.836 C3428.3,767.836 3427.03,767.564 3427.03,767.022 C3427.03,766.247 3428.26,765.434 3430.74,764.582 C3434.08,763.342 3437.64,760.824 3441.44,757.028 C3445.77,752.612 3447.94,748.622 3447.94,745.058 C3447.94,742.657 3446.28,740.371 3442.95,738.202 C3440,736.342 3435.24,735.413 3428.65,735.413 C3419.05,735.413 3406.92,745.097 3392.28,764.465 C3382.52,777.404 3374.61,788.792 3368.57,798.631 C3371.52,797.005 3375.04,795.029 3379.15,792.705 C3384.18,789.838 3388.52,788.405 3392.16,788.405 C3401.23,788.405 3405.76,791.659 3405.76,798.167 C3405.76,804.597 3402.04,811.647 3394.6,819.317 C3389.33,824.74 3386.7,828.769 3386.7,831.403 C3386.7,834.115 3389.33,835.47 3394.6,835.47 C3397.24,835.47 3399.95,834.541 3402.74,832.681 C3405.53,830.899 3407.58,830.008 3408.9,830.008 C3409.98,830.008 3410.52,830.706 3410.52,832.1 C3410.52,834.347 3408.35,836.71 3404.02,839.189 C3396.73,843.373 3390.88,845.464 3386.47,845.464 C3378.64,845.464 3374.73,841.281 3374.73,832.914 C3374.73,827.645 3377.75,821.796 3383.79,815.366 C3388.21,810.64 3390.42,805.953 3390.42,801.304 C3390.42,797.276 3388.25,795.261 3383.91,795.261 C3382.21,795.261 3376.55,797.276 3366.94,801.304 C3364.08,806.108 3361.68,810.524 3359.74,814.552 C3352.38,829.892 3347.5,837.562 3345.1,837.562"/>
<path class="Note" d="M3416.92,690.514 C3416.92,699.423 3406.77,718.986 3386.47,749.2 C3378.41,761.209 3366.83,770.002 3351.72,775.58 C3340.56,779.764 3327.67,781.856 3313.02,781.856 C3308.3,781.856 3304.11,780.887 3300.47,778.95 C3296.44,776.859 3294.43,774.573 3294.43,772.094 C3294.43,765.664 3297.88,762.449 3304.77,762.449 C3305.78,762.449 3306.28,763.068 3306.28,764.308 C3306.28,765.393 3305.78,766.593 3304.77,767.91 C3303.53,769.537 3302.91,770.738 3302.91,771.513 C3302.91,773.837 3306.4,774.999 3313.37,774.999 C3329.02,774.999 3341.38,773.101 3350.44,769.305 C3359.89,765.431 3369.31,755.553 3378.68,739.671 L3381.35,734.674 C3376.86,738.083 3372.41,739.787 3367.99,739.787 C3356.99,739.787 3351.49,735.333 3351.49,726.423 C3351.49,716.816 3357.96,706.706 3370.9,696.092 C3381.04,687.88 3390.07,683.774 3397.97,683.774 C3401.92,683.774 3405.22,684.82 3407.85,686.911 C3408.78,686.214 3409.94,685.866 3411.34,685.866 C3415.06,685.866 3416.92,687.415 3416.92,690.514 M3382.75,732.234 L3404.71,691.676 C3403.01,691.289 3401.11,691.095 3399.02,691.095 C3391.5,691.095 3384.22,695.472 3377.17,704.227 C3368.96,714.453 3364.85,722.627 3364.85,728.747 C3364.85,732.776 3367.53,734.79 3372.87,734.79 C3375.43,734.79 3378.72,733.938 3382.75,732.234"/>
<path class="Clef" transform="matrix(2.3811,0,0,2.3811,212.156,2293.62)" d="M25.4,-25.1 C17.8,-25.1 11.7,-20.7 11.6,-20.7 C5.8,-16.4 3.5,-11.3 2.6,-7.8 C2.1,-6 1.9,-4.2 1.9,-2.5 C1.9,-0.1 2.3,2.1 3.2,4 C4.4,6.7 6.7,8.6 9.7,9.6 C10.9,10 12.2,10.2 13.5,10.2 C15.7,10.2 18,9.6 19.9,8.5 C23,6.8 24.9,3.2 24.9,-0.7 C24.9,-4.2 23.1,-7.4 20.1,-9.3 C18,-10.7 16,-11.1 14.3,-11.1 C13.1,-11.1 12,-10.9 11.1,-10.6 C10.1,-10.2 8.4,-9.2 7.6,-8.5 C7.9,-10.4 9.1,-13.3 10.2,-14.9 C11.3,-16.5 13.5,-18.5 15.2,-19.4 C17.7,-20.8 20.9,-21.4 24.4,-21.4 C34.6,-21.4 39.6,-13.2 39.6,3.6 C39.6,12.9 36.1,21.8 33.1,27.7 C29.8,34.3 25.4,40.6 21.5,44.1 C11.1,53.6 1.3,58.1 1.2,58.1 C1.2,58.1 -0.3,59 0.1,60.5 C0.4,61.5 1.3,61.7 1.9,61.7 C2,61.7 2.3,61.6 2.4,61.6 C2.5,61.6 13.9,56.9 23,49.8 C28.1,46.1 32.7,42.1 36.7,37.8 C40.3,33.9 43.4,29.7 45.9,25.5 C50.3,18 52.8,10.2 52.8,3.5 C52.8,-4.8 50.6,-11.7 46.5,-16.6 C41.8,-22.2 34.7,-25.1 25.4,-25.1 M56.8,-12.4 C56.8,-9.6 59,-7.4 61.6,-7.4 C64.2,-7.4 66.4,-9.6 66.4,-12.4 C66.4,-15.2 64.2,-17.5 61.6,-17.5 C59,-17.5 56.8,-15.2 56.8,-12.4 M56.8,12.3 C56.8,15.1 59,17.4 61.6,17.4 C64.2,17.4 66.4,15.1 66.4,12.3 C66.4,9.5 64.2,7.2 61.6,7.2 C59,7.2 56.8,9.5 56.8,12.3"/>
<path class="Clef" transform="matrix(2.3811,0,0,2.3811,212.156,1586.84)" d="M63.37,-5.89004 C62.14,-11.32 59.5,-15.14 58.72,-16.1801 C55.5301,-20.45 51.52,-23.3 46.8301,-24.65 C43.72,-25.54 40.72,-25.65 38.3,-25.47 C37.2601,-31.4801 36.2601,-37.3601 35.35,-42.8101 C40.79,-48.97 44.42,-54.77 46.69,-59.07 C50.1601,-65.65 51.3101,-70.2301 51.3601,-70.4301 C53.0801,-75.64 53.44,-83.34 52.34,-91.55 C51.3301,-99.1 49.24,-105.81 46.89,-109.06 C45.8601,-110.49 44.8101,-111.22 43.77,-111.22 C42.55,-111.22 40.04,-109.98 37.15,-107.21 C34.85,-105.01 31.5801,-101.12 29.02,-95.1101 C26.02,-88.05 25.8101,-78.5601 26.1601,-71.84 C26.54,-64.57 27.65,-58.8801 27.6601,-58.8301 C27.6801,-58.74 27.94,-57.24 28.39,-54.67 C28.1601,-54.44 27.92,-54.22 27.67,-53.9801 C26.6301,-52.9801 25.44,-51.84 24.0601,-50.4601 C23.2,-49.6 22.25,-48.69 21.25,-47.72 C12.79,-39.57 0,-27.25 0,-8.1 C0,-3.4 0.9,1.01992 2.68008,5.02998 C4.27002,8.62998 6.57002,11.91 9.5,14.78 C17.2301,22.33 27.82,25.5399 34.8801,25.38 C37.8301,25.31 40.4601,25.0699 42.85,24.6199 C44.6801,34.2199 45.82,41.25 45.8601,46.5899 C45.9,53.1 44.25,57.0699 40.35,59.8399 C37.92,61.5699 35.1101,62.5199 32.0101,62.6699 C29.42,62.7899 27.1601,62.3199 25.7301,61.91 L25.72,61.91 C25.72,61.91 25.4301,61.83 25.42,61.63 C25.4101,61.45 25.7601,61.4 25.77,61.4 L25.79,61.4 C27.7101,60.96 31.2801,59.73 33.64,56.43 C35.44,53.91 36.3101,49.2899 34.47,45.35 C33.3601,42.96 30.85,40.01 25.2301,39.56 C22.74,39.36 20.47,39.8699 18.47,41.0699 C16.6601,42.15 15.1601,43.7899 14.1101,45.7899 C11.65,50.4899 12.1101,56.2199 15.24,60.06 C18.2,63.68 22.82,65.9899 28.25,66.5699 C29.1,66.66 29.95,66.7 30.8,66.7 C31.5101,66.7 32.22,66.6699 32.92,66.61 C31.72,66.9399 30.64,67.4899 29.77,68.25 C28.2801,69.5399 27.44,71.38 27.44,73.41 C27.44,75.28 28.0601,76.65 29.55,78.0399 C28.4101,78.5 27.55,78.98 26.79,79.56 C25.25,80.73 24.34,82.46 24.34,84.1899 C24.34,87.45 27.3,89.63 31.72,89.63 C37.1301,89.63 40.9101,86.63 40.9101,82.35 C40.9101,80.1199 39.9101,78.18 38.0801,76.83 C41.0101,75.6199 42.37,73.9399 42.37,71.56 C42.39,70.05 41.69,68.61 40.49,67.6899 C39.2801,66.7399 37.62,66.2399 35.69,66.2399 L35.5101,66.2399 C38.2801,65.7 40.92,64.7 43.2101,63.28 C46.87,60.71 48.99,56.73 49.67,51.1 C50.2301,46.46 49.84,40.55 48.44,32.48 C48.0801,30.3899 47.54,27.36 46.8801,23.6 C52.6301,21.68 56.79,18.11 60.5601,12.26 C63.85,6.51992 64.8,0.419922 63.37,-5.89004 M32.39,87.5399 C30.19,87.5399 28.7301,86.1199 28.7301,84.01 C28.7301,82.11 29.65,80.5 31.32,79.4699 C31.6801,79.66 31.77,79.71 32.1101,79.88 C33.3,80.48 33.3,80.48 33.55,80.63 L33.5601,80.6399 C35.47,81.73 36.25,82.76 36.25,84.18 C36.24,86.0899 34.59,87.5399 32.39,87.5399 M38.3101,71.63 C38.3101,73.2699 37.7301,74.3399 36.1801,75.53 C34.74,74.78 34.35,74.56 33.9801,74.3399 L33.8801,74.28 C32.3301,73.3399 31.85,72.66 31.85,71.4 C31.85,69.6 33.2301,68.3399 35.19,68.3399 C37.17,68.35 38.3101,69.55 38.3101,71.63 M33.15,-83.8101 C34.9301,-89.55 37.67,-92.8 39.6601,-94.5301 C41.4101,-96.05 43.0601,-96.7601 43.9801,-96.7601 C44.12,-96.7601 44.24,-96.74 44.34,-96.7101 C44.8,-96.57 45.3301,-96 45.8,-95.1301 C48.1101,-90.84 47.37,-84.1301 46.0301,-79.69 C44.4,-74.29 41.4801,-68.6801 32.69,-59.0601 C32.52,-60.17 32.3601,-61.22 32.2101,-62.2 C30.95,-70.49 31.27,-77.7601 33.15,-83.8101 M29.15,20.31 C24.5101,19.0899 20.0801,16.5899 16.32,13.0899 C15.0101,11.86 13.14,9.68994 11.67,6.3 C10.3101,3.13994 9.65,-0.290039 9.7,-3.88008 C9.77002,-8.57002 11.0801,-13.39 13.59,-18.1801 C16.5101,-23.7601 21.07,-29.29 27.1301,-34.62 C28.5801,-35.9 29.95,-37.1801 31.24,-38.4601 C32,-34.2 32.8301,-29.5101 33.7101,-24.6301 C29.8601,-23.3601 25.1101,-20.2101 22,-14.5601 C18.47,-7.99004 18.6101,-2.47002 19.34,1.00996 C20.2801,5.46992 22.8101,9.22998 26.27,11.3199 C27.2,11.88 31.3301,14.01 33.17,13.43 C33.54,13.31 33.8101,13.0899 33.95,12.76 C34.4601,11.5899 33.44,10.95 31.8801,9.98994 C31.2801,9.61992 30.6101,9.2 29.8801,8.66992 C26.5601,6.17998 25.1101,1.72998 26.1801,-2.65 C26.7601,-5.05 28.04,-7.21006 29.8801,-8.91006 C31.55,-10.4601 33.59,-11.5601 35.97,-12.2 C38.0101,-0.960059 40.07,10.1899 41.7101,18.55 C41.84,19.2399 41.9801,19.91 42.1101,20.58 C37.7101,21.51 33.37,21.4199 29.15,20.31 M54.9,10.1 C53.7301,13.28 51.27,17.35 46.14,19.41 C46.07,18.9899 45.99,18.56 45.9101,18.13 C44.3601,9.36992 42.4301,-1.61006 40.47,-12.87 C50.82,-13.35 55.09,-5.91006 55.9801,-1.08008 C56.45,1.45 56.45,5.88994 54.9,10.1"/>
<path class="KeySig" transform="matrix(2.3811,0,0,2.3811,429.785,2412.68)" d="M20.1,-7.9 C19.5,-11.8 17.1,-15.5 12,-15.5 C7,-15.5 4.1,-12.4 3.6,-11.8 L4,-43.9 C4,-44.7 3.4,-45.3 2.6,-45.3 L1.4,-45.3 C0.6,-45.3 0,-44.7 0,-43.9 L0.5,16.2 C0.5,17 1.1,17.6 1.9,17.6 C2.1,17.6 2.5,17.5 2.7,17.4 C3.1,17.2 9.6,14 15,7.9 C18.8,3.6 20.3,-1.3 20.3,-5.4 C20.3,-6.3 20.2,-7.1 20.1,-7.9 M13.2,-4 C13.2,-2.5 12.8,2.1 10.3,5.9 C8.6,8.5 5.2,11.2 3.3,12.7 L3.6,-6.8 C3.8,-7.7 5.3,-10.6 9.3,-10.6 C12.9,-10.6 13.2,-7.2 13.2,-5.1 L13.2,-4 "/>
<path class="KeySig" transform="matrix(2.3811,0,0,2.3811,429.785,1527.31)" d="M20.1,-7.9 C19.5,-11.8 17.1,-15.5 12,-15.5 C7,-15.5 4.1,-12.4 3.6,-11.8 L4,-43.9 C4,-44.7 3.4,-45.3 2.6,-45.3 L1.4,-45.3 C0.6,-45.3 0,-44.7 0,-43.9 L0.5,16.2 C0.5,17 1.1,17.6 1.9,17.6 C2.1,17.6 2.5,17.5 2.7,17.4 C3.1,17.2 9.6,14 15,7.9 C18.8,3.6 20.3,-1.3 20.3,-5.4 C20.3,-6.3 20.2,-7.1 20.1,-7.9 M13.2,-4 C13.2,-2.5 12.8,2.1 10.3,5.9 C8.6,8.5 5.2,11.2 3.3,12.7 L3.6,-6.8 C3.8,-7.7 5.3,-10.6 9.3,-10.6 C12.9,-10.6 13.2,-7.2 13.2,-5.1 L13.2,-4 "/>
<path class="FiguredBass" d="M672.32,1778.03 C672.32,1778.03 673.804,1778.24 676.773,1778.68 C678.072,1778.86 679.525,1779.05 681.133,1779.23 C685.401,1779.73 689.514,1779.97 693.472,1779.97 C697.43,1779.97 701.605,1779.73 705.996,1779.23 C707.728,1779.05 709.243,1778.86 710.542,1778.68 L715.088,1778.03 C716.016,1778.03 716.712,1778.34 717.176,1778.95 C717.639,1779.57 717.593,1780.07 717.036,1780.44 C707.573,1789.9 694.245,1794.63 677.051,1794.63 C676.371,1794.63 675.768,1794.88 675.242,1795.38 C674.716,1795.87 674.453,1796.49 674.453,1797.23 L674.453,1811.8 C678.845,1807.47 684.164,1805.3 690.41,1805.3 C699.44,1805.3 706.414,1807.33 711.331,1811.38 C716.248,1815.43 718.706,1821.57 718.706,1829.79 C718.706,1836.78 715.923,1842.58 710.357,1847.19 C704.79,1851.8 698.141,1854.1 690.41,1854.1 C683.731,1854.1 677.932,1852.59 673.015,1849.55 C668.098,1846.52 665.64,1842.32 665.64,1836.94 C665.64,1834.22 666.629,1831.85 668.609,1829.84 C670.588,1827.83 672.954,1826.83 675.706,1826.83 C678.458,1826.83 680.793,1827.81 682.71,1829.79 C684.627,1831.77 685.586,1834.15 685.586,1836.94 C685.586,1838.17 684.566,1839.52 682.525,1840.97 C680.484,1842.43 679.463,1843.77 679.463,1845.01 C679.463,1848.72 683.112,1850.58 690.41,1850.58 C697.523,1850.58 701.079,1843.65 701.079,1829.79 C701.079,1816.43 697.523,1809.72 690.41,1809.66 C684.04,1809.66 679.587,1810.96 677.051,1813.56 C674.515,1816.16 672.938,1817.46 672.32,1817.46 C670.773,1817.46 670.031,1816.68 670.093,1815.14 L670.093,1780.44 C670.093,1779.76 670.309,1779.19 670.742,1778.72 C671.175,1778.26 671.701,1778.03 672.32,1778.03"/>
<path class="FiguredBass" d="M706.831,1919.49 C706.831,1920.48 707.388,1921.44 708.501,1922.37 C709.614,1923.3 710.836,1924.18 712.166,1925.01 C713.495,1925.85 714.717,1927.43 715.83,1929.75 C716.944,1932.06 717.5,1934.99 717.5,1938.51 C717.5,1945.32 714.933,1950.57 709.8,1954.28 C704.667,1958 698.172,1959.85 690.318,1959.85 C684.009,1959.85 678.52,1958.27 673.85,1955.12 C669.181,1951.96 666.846,1947.82 666.846,1942.69 C666.846,1939.97 667.836,1937.6 669.815,1935.59 C671.794,1933.58 674.16,1932.58 676.912,1932.58 C679.664,1932.58 681.999,1933.56 683.916,1935.54 C685.834,1937.52 686.792,1939.9 686.792,1942.69 C686.792,1943.92 685.772,1945.27 683.731,1946.72 C681.69,1948.18 680.669,1949.52 680.669,1950.76 C680.669,1952.68 681.612,1954.08 683.499,1954.98 C685.385,1955.88 687.658,1956.33 690.318,1956.33 C693.781,1956.33 696.24,1954.61 697.693,1951.18 C699.147,1947.74 699.873,1943.52 699.873,1938.51 L699.873,1936.1 C699.873,1932.76 699.765,1930.22 699.549,1928.49 C699.332,1926.76 698.652,1925.22 697.508,1923.85 C696.363,1922.49 694.616,1921.81 692.266,1921.81 L680.113,1921.81 C678.69,1921.81 677.979,1921.04 677.979,1919.49 C677.979,1918.07 678.69,1917.36 680.113,1917.36 L692.266,1917.36 C694.802,1917.36 696.781,1916.4 698.203,1914.48 C698.698,1913.8 699.1,1912.69 699.409,1911.14 C699.719,1909.1 699.873,1906.17 699.873,1902.33 L699.873,1901.13 C699.873,1891.91 696.472,1887.3 689.668,1887.3 C683.669,1887.3 680.669,1888.97 680.669,1892.31 C680.669,1893.42 681.581,1894.62 683.406,1895.88 C685.231,1897.15 686.143,1898.34 686.143,1899.46 C686.143,1901.87 685.292,1903.94 683.592,1905.67 C681.891,1907.4 679.819,1908.27 677.376,1908.27 C674.933,1908.27 672.876,1907.4 671.206,1905.67 C669.536,1903.94 668.701,1901.87 668.701,1899.46 C668.701,1894.69 670.773,1890.89 674.917,1888.04 C679.061,1885.2 683.978,1883.78 689.668,1883.78 C697.152,1883.78 703.306,1885.21 708.13,1888.09 C712.954,1890.97 715.366,1895.31 715.366,1901.13 C715.366,1905.27 714.933,1908.49 714.068,1910.77 C713.202,1913.06 712.212,1914.45 711.099,1914.95 C709.986,1915.44 708.996,1916.02 708.13,1916.66 C707.264,1917.31 706.831,1918.26 706.831,1919.49"/>
<path class="FiguredBass" d="M703.306,2021.81 C708.254,2016.43 710.728,2011.24 710.728,2006.23 C710.728,2002.14 708.981,1998.93 705.486,1996.58 C701.992,1994.23 697.801,1993.05 692.915,1993.05 C689.452,1993.05 686.684,1994.13 684.612,1996.3 C682.54,1998.46 681.504,2000.97 681.504,2003.81 C681.504,2007.28 683.019,2009.91 686.05,2011.7 L703.306,2021.81 M707.852,2024.41 C716.263,2029.3 720.469,2035.73 720.469,2043.71 C720.469,2049.71 717.902,2054.85 712.769,2059.15 C707.635,2063.45 700.615,2065.6 691.709,2065.6 C684.225,2065.6 677.716,2063.62 672.18,2059.66 C666.645,2055.7 663.877,2050.57 663.877,2044.26 C663.877,2041.91 664.558,2039.53 665.918,2037.12 C667.279,2034.71 668.547,2032.9 669.722,2031.69 C670.897,2030.49 672.814,2028.61 675.474,2026.08 C669.289,2021.81 666.197,2016.43 666.197,2009.94 C666.197,2004.37 668.578,1999.58 673.34,1995.56 C678.102,1991.54 684.627,1989.53 692.915,1989.53 C699.533,1989.53 705.27,1991.03 710.125,1994.03 C714.98,1997.03 717.407,2001.09 717.407,2006.23 C717.407,2011.73 714.222,2017.79 707.852,2024.41 M680.02,2028.77 C673.711,2034.27 670.557,2039.44 670.557,2044.26 C670.557,2049.33 672.66,2053.57 676.865,2056.97 C681.071,2060.37 686.019,2062.08 691.709,2062.08 C695.668,2062.08 698.837,2060.81 701.218,2058.27 C703.6,2055.74 704.79,2052.8 704.79,2049.46 C704.79,2045.19 703.028,2042.04 699.502,2040 L680.02,2028.77 "/>
<path class="FiguredBass" d="M1619.59,1810.31 C1624.54,1804.93 1627.01,1799.74 1627.01,1794.73 C1627.01,1790.64 1625.26,1787.43 1621.77,1785.08 C1618.27,1782.73 1614.08,1781.55 1609.2,1781.55 C1605.73,1781.55 1602.97,1782.63 1600.89,1784.8 C1598.82,1786.96 1597.79,1789.47 1597.79,1792.31 C1597.79,1795.78 1599.3,1798.41 1602.33,1800.2 L1619.59,1810.31 M1624.13,1812.91 C1632.55,1817.8 1636.75,1824.23 1636.75,1832.21 C1636.75,1838.21 1634.18,1843.35 1629.05,1847.65 C1623.92,1851.95 1616.9,1854.1 1607.99,1854.1 C1600.51,1854.1 1594,1852.12 1588.46,1848.16 C1582.93,1844.2 1580.16,1839.07 1580.16,1832.76 C1580.16,1830.41 1580.84,1828.03 1582.2,1825.62 C1583.56,1823.21 1584.83,1821.4 1586,1820.19 C1587.18,1818.99 1589.1,1817.11 1591.76,1814.58 C1585.57,1810.31 1582.48,1804.93 1582.48,1798.44 C1582.48,1792.87 1584.86,1788.08 1589.62,1784.06 C1594.38,1780.04 1600.91,1778.03 1609.2,1778.03 C1615.82,1778.03 1621.55,1779.53 1626.41,1782.53 C1631.26,1785.53 1633.69,1789.59 1633.69,1794.73 C1633.69,1800.23 1630.5,1806.29 1624.13,1812.91 M1596.3,1817.27 C1589.99,1822.77 1586.84,1827.94 1586.84,1832.76 C1586.84,1837.83 1588.94,1842.07 1593.15,1845.47 C1597.35,1848.87 1602.3,1850.58 1607.99,1850.58 C1611.95,1850.58 1615.12,1849.31 1617.5,1846.77 C1619.88,1844.24 1621.07,1841.3 1621.07,1837.96 C1621.07,1833.69 1619.31,1830.54 1615.78,1828.5 L1596.3,1817.27 "/>
<path class="FiguredBass" d="M1588.6,1883.78 C1588.6,1883.78 1590.09,1883.99 1593.05,1884.43 C1594.35,1884.61 1595.81,1884.8 1597.42,1884.98 C1601.68,1885.48 1605.8,1885.72 1609.75,1885.72 C1613.71,1885.72 1617.89,1885.48 1622.28,1884.98 C1624.01,1884.8 1625.53,1884.61 1626.82,1884.43 L1631.37,1883.78 C1632.3,1883.78 1632.99,1884.09 1633.46,1884.7 C1633.92,1885.32 1633.87,1885.82 1633.32,1886.19 C1623.86,1895.65 1610.53,1900.38 1593.33,1900.38 C1592.65,1900.38 1592.05,1900.63 1591.52,1901.13 C1591,1901.62 1590.74,1902.24 1590.74,1902.98 L1590.74,1917.55 C1595.13,1913.22 1600.45,1911.05 1606.69,1911.05 C1615.72,1911.05 1622.7,1913.08 1627.61,1917.13 C1632.53,1921.18 1634.99,1927.32 1634.99,1935.54 C1634.99,1942.53 1632.21,1948.33 1626.64,1952.94 C1621.07,1957.55 1614.42,1959.85 1606.69,1959.85 C1600.01,1959.85 1594.21,1958.34 1589.3,1955.3 C1584.38,1952.27 1581.92,1948.07 1581.92,1942.69 C1581.92,1939.97 1582.91,1937.6 1584.89,1935.59 C1586.87,1933.58 1589.24,1932.58 1591.99,1932.58 C1594.74,1932.58 1597.07,1933.56 1598.99,1935.54 C1600.91,1937.52 1601.87,1939.9 1601.87,1942.69 C1601.87,1943.92 1600.85,1945.27 1598.81,1946.72 C1596.77,1948.18 1595.75,1949.52 1595.75,1950.76 C1595.75,1954.47 1599.39,1956.33 1606.69,1956.33 C1613.8,1956.33 1617.36,1949.4 1617.36,1935.54 C1617.36,1922.18 1613.8,1915.47 1606.69,1915.41 C1600.32,1915.41 1595.87,1916.71 1593.33,1919.31 C1590.8,1921.91 1589.22,1923.21 1588.6,1923.21 C1587.06,1923.21 1586.31,1922.43 1586.37,1920.89 L1586.37,1886.19 C1586.37,1885.51 1586.59,1884.94 1587.02,1884.47 C1587.46,1884.01 1587.98,1883.78 1588.6,1883.78"/>
<path class="FiguredBass" d="M1623.11,2025.24 C1623.11,2026.23 1623.67,2027.19 1624.78,2028.12 C1625.9,2029.05 1627.12,2029.93 1628.45,2030.76 C1629.78,2031.6 1631,2033.18 1632.11,2035.5 C1633.23,2037.81 1633.78,2040.74 1633.78,2044.26 C1633.78,2051.07 1631.22,2056.32 1626.08,2060.03 C1620.95,2063.75 1614.45,2065.6 1606.6,2065.6 C1600.29,2065.6 1594.8,2064.02 1590.13,2060.87 C1585.46,2057.71 1583.13,2053.57 1583.13,2048.44 C1583.13,2045.72 1584.12,2043.35 1586.1,2041.34 C1588.08,2039.33 1590.44,2038.33 1593.19,2038.33 C1595.95,2038.33 1598.28,2039.31 1600.2,2041.29 C1602.12,2043.27 1603.07,2045.65 1603.07,2048.44 C1603.07,2049.67 1602.05,2051.02 1600.01,2052.47 C1597.97,2053.93 1596.95,2055.27 1596.95,2056.51 C1596.95,2058.43 1597.89,2059.83 1599.78,2060.73 C1601.67,2061.63 1603.94,2062.08 1606.6,2062.08 C1610.06,2062.08 1612.52,2060.36 1613.98,2056.93 C1615.43,2053.49 1616.16,2049.27 1616.16,2044.26 L1616.16,2041.85 C1616.16,2038.51 1616.05,2035.97 1615.83,2034.24 C1615.61,2032.51 1614.93,2030.97 1613.79,2029.6 C1612.65,2028.24 1610.9,2027.56 1608.55,2027.56 L1596.39,2027.56 C1594.97,2027.56 1594.26,2026.79 1594.26,2025.24 C1594.26,2023.82 1594.97,2023.11 1596.39,2023.11 L1608.55,2023.11 C1611.08,2023.11 1613.06,2022.15 1614.49,2020.23 C1614.98,2019.55 1615.38,2018.44 1615.69,2016.89 C1616,2014.85 1616.16,2011.92 1616.16,2008.08 L1616.16,2006.88 C1616.16,1997.66 1612.75,1993.05 1605.95,1993.05 C1599.95,1993.05 1596.95,1994.72 1596.95,1998.06 C1596.95,1999.17 1597.86,2000.37 1599.69,2001.63 C1601.51,2002.9 1602.42,2004.09 1602.42,2005.21 C1602.42,2007.62 1601.57,2009.69 1599.87,2011.42 C1598.17,2013.15 1596.1,2014.02 1593.66,2014.02 C1591.21,2014.02 1589.16,2013.15 1587.49,2011.42 C1585.82,2009.69 1584.98,2007.62 1584.98,2005.21 C1584.98,2000.44 1587.06,1996.64 1591.2,1993.79 C1595.34,1990.95 1600.26,1989.53 1605.95,1989.53 C1613.43,1989.53 1619.59,1990.96 1624.41,1993.84 C1629.24,1996.72 1631.65,2001.06 1631.65,2006.88 C1631.65,2011.02 1631.22,2014.24 1630.35,2016.52 C1629.48,2018.81 1628.49,2020.2 1627.38,2020.7 C1626.27,2021.19 1625.28,2021.77 1624.41,2022.41 C1623.55,2023.06 1623.11,2024.01 1623.11,2025.24"/>
<path class="FiguredBass" d="M2528.62,1813.74 C2528.62,1814.73 2529.17,1815.69 2530.29,1816.62 C2531.4,1817.55 2532.62,1818.43 2533.95,1819.26 C2535.28,1820.1 2536.5,1821.68 2537.61,1824 C2538.73,1826.31 2539.28,1829.24 2539.28,1832.76 C2539.28,1839.57 2536.72,1844.82 2531.58,1848.53 C2526.45,1852.25 2519.96,1854.1 2512.1,1854.1 C2505.79,1854.1 2500.3,1852.52 2495.63,1849.37 C2490.96,1846.21 2488.63,1842.07 2488.63,1836.94 C2488.63,1834.22 2489.62,1831.85 2491.6,1829.84 C2493.58,1827.83 2495.94,1826.83 2498.7,1826.83 C2501.45,1826.83 2503.78,1827.81 2505.7,1829.79 C2507.62,1831.77 2508.58,1834.15 2508.58,1836.94 C2508.58,1838.17 2507.56,1839.52 2505.51,1840.97 C2503.47,1842.43 2502.45,1843.77 2502.45,1845.01 C2502.45,1846.93 2503.4,1848.33 2505.28,1849.23 C2507.17,1850.13 2509.44,1850.58 2512.1,1850.58 C2515.57,1850.58 2518.02,1848.86 2519.48,1845.43 C2520.93,1841.99 2521.66,1837.77 2521.66,1832.76 L2521.66,1830.35 C2521.66,1827.01 2521.55,1824.47 2521.33,1822.74 C2521.12,1821.01 2520.44,1819.47 2519.29,1818.1 C2518.15,1816.74 2516.4,1816.06 2514.05,1816.06 L2501.9,1816.06 C2500.47,1816.06 2499.76,1815.29 2499.76,1813.74 C2499.76,1812.32 2500.47,1811.61 2501.9,1811.61 L2514.05,1811.61 C2516.59,1811.61 2518.56,1810.65 2519.99,1808.73 C2520.48,1808.05 2520.88,1806.94 2521.19,1805.39 C2521.5,1803.35 2521.66,1800.42 2521.66,1796.58 L2521.66,1795.38 C2521.66,1786.16 2518.26,1781.55 2511.45,1781.55 C2505.45,1781.55 2502.45,1783.22 2502.45,1786.56 C2502.45,1787.67 2503.37,1788.87 2505.19,1790.13 C2507.01,1791.4 2507.93,1792.59 2507.93,1793.71 C2507.93,1796.12 2507.08,1798.19 2505.38,1799.92 C2503.67,1801.65 2501.6,1802.52 2499.16,1802.52 C2496.72,1802.52 2494.66,1801.65 2492.99,1799.92 C2491.32,1798.19 2490.49,1796.12 2490.49,1793.71 C2490.49,1788.94 2492.56,1785.14 2496.7,1782.29 C2500.84,1779.45 2505.76,1778.03 2511.45,1778.03 C2518.94,1778.03 2525.09,1779.46 2529.91,1782.34 C2534.74,1785.22 2537.15,1789.56 2537.15,1795.38 C2537.15,1799.52 2536.72,1802.74 2535.85,1805.02 C2534.99,1807.31 2534,1808.7 2532.88,1809.2 C2531.77,1809.69 2530.78,1810.27 2529.91,1810.91 C2529.05,1811.56 2528.62,1812.51 2528.62,1813.74"/>
<path class="FiguredBass" d="M2525.09,1916.06 C2530.04,1910.68 2532.51,1905.49 2532.51,1900.48 C2532.51,1896.39 2530.76,1893.18 2527.27,1890.83 C2523.78,1888.48 2519.59,1887.3 2514.7,1887.3 C2511.24,1887.3 2508.47,1888.38 2506.4,1890.55 C2504.32,1892.71 2503.29,1895.22 2503.29,1898.06 C2503.29,1901.53 2504.8,1904.16 2507.83,1905.95 L2525.09,1916.06 M2529.64,1918.66 C2538.05,1923.55 2542.25,1929.98 2542.25,1937.96 C2542.25,1943.96 2539.69,1949.1 2534.55,1953.4 C2529.42,1957.7 2522.4,1959.85 2513.49,1959.85 C2506.01,1959.85 2499.5,1957.87 2493.96,1953.91 C2488.43,1949.95 2485.66,1944.82 2485.66,1938.51 C2485.66,1936.16 2486.34,1933.78 2487.7,1931.37 C2489.06,1928.96 2490.33,1927.15 2491.51,1925.94 C2492.68,1924.74 2494.6,1922.86 2497.26,1920.33 C2491.07,1916.06 2487.98,1910.68 2487.98,1904.19 C2487.98,1898.62 2490.36,1893.83 2495.12,1889.81 C2499.89,1885.79 2506.41,1883.78 2514.7,1883.78 C2521.32,1883.78 2527.05,1885.28 2531.91,1888.28 C2536.76,1891.28 2539.19,1895.34 2539.19,1900.48 C2539.19,1905.98 2536.01,1912.04 2529.64,1918.66 M2501.8,1923.02 C2495.5,1928.52 2492.34,1933.69 2492.34,1938.51 C2492.34,1943.58 2494.44,1947.82 2498.65,1951.22 C2502.86,1954.62 2507.8,1956.33 2513.49,1956.33 C2517.45,1956.33 2520.62,1955.06 2523,1952.52 C2525.38,1949.99 2526.57,1947.05 2526.57,1943.71 C2526.57,1939.44 2524.81,1936.29 2521.29,1934.25 L2501.8,1923.02 "/>
<path class="FiguredBass" d="M2494.1,1989.53 C2494.1,1989.53 2495.59,1989.74 2498.56,1990.18 C2499.86,1990.36 2501.31,1990.55 2502.92,1990.73 C2507.18,1991.23 2511.3,1991.47 2515.26,1991.47 C2519.21,1991.47 2523.39,1991.23 2527.78,1990.73 C2529.51,1990.55 2531.03,1990.36 2532.33,1990.18 L2536.87,1989.53 C2537.8,1989.53 2538.5,1989.84 2538.96,1990.45 C2539.42,1991.07 2539.38,1991.57 2538.82,1991.94 C2529.36,2001.4 2516.03,2006.13 2498.83,2006.13 C2498.15,2006.13 2497.55,2006.38 2497.03,2006.88 C2496.5,2007.37 2496.24,2007.99 2496.24,2008.73 L2496.24,2023.3 C2500.63,2018.97 2505.95,2016.8 2512.19,2016.8 C2521.22,2016.8 2528.2,2018.83 2533.11,2022.88 C2538.03,2026.93 2540.49,2033.07 2540.49,2041.29 C2540.49,2048.28 2537.71,2054.08 2532.14,2058.69 C2526.57,2063.3 2519.93,2065.6 2512.19,2065.6 C2505.51,2065.6 2499.72,2064.09 2494.8,2061.05 C2489.88,2058.02 2487.42,2053.82 2487.42,2048.44 C2487.42,2045.72 2488.41,2043.35 2490.39,2041.34 C2492.37,2039.33 2494.74,2038.33 2497.49,2038.33 C2500.24,2038.33 2502.58,2039.31 2504.49,2041.29 C2506.41,2043.27 2507.37,2045.65 2507.37,2048.44 C2507.37,2049.67 2506.35,2051.02 2504.31,2052.47 C2502.27,2053.93 2501.25,2055.27 2501.25,2056.51 C2501.25,2060.22 2504.9,2062.08 2512.19,2062.08 C2519.31,2062.08 2522.86,2055.15 2522.86,2041.29 C2522.86,2027.93 2519.31,2021.22 2512.19,2021.16 C2505.82,2021.16 2501.37,2022.46 2498.83,2025.06 C2496.3,2027.66 2494.72,2028.96 2494.1,2028.96 C2492.56,2028.96 2491.82,2028.18 2491.88,2026.64 L2491.88,1991.94 C2491.88,1991.26 2492.09,1990.69 2492.53,1990.22 C2492.96,1989.76 2493.48,1989.53 2494.1,1989.53"/>
<path class="FiguredBass" d="M3383.1,1813.74 C3383.1,1814.73 3383.65,1815.69 3384.77,1816.62 C3385.88,1817.55 3387.1,1818.43 3388.43,1819.26 C3389.76,1820.1 3390.98,1821.68 3392.1,1824 C3393.21,1826.31 3393.77,1829.24 3393.77,1832.76 C3393.77,1839.57 3391.2,1844.82 3386.07,1848.53 C3380.93,1852.25 3374.44,1854.1 3366.58,1854.1 C3360.28,1854.1 3354.79,1852.52 3350.12,1849.37 C3345.45,1846.21 3343.11,1842.07 3343.11,1836.94 C3343.11,1834.22 3344.1,1831.85 3346.08,1829.84 C3348.06,1827.83 3350.43,1826.83 3353.18,1826.83 C3355.93,1826.83 3358.27,1827.81 3360.18,1829.79 C3362.1,1831.77 3363.06,1834.15 3363.06,1836.94 C3363.06,1838.17 3362.04,1839.52 3360,1840.97 C3357.96,1842.43 3356.94,1843.77 3356.94,1845.01 C3356.94,1846.93 3357.88,1848.33 3359.77,1849.23 C3361.65,1850.13 3363.93,1850.58 3366.58,1850.58 C3370.05,1850.58 3372.51,1848.86 3373.96,1845.43 C3375.41,1841.99 3376.14,1837.77 3376.14,1832.76 L3376.14,1830.35 C3376.14,1827.01 3376.03,1824.47 3375.82,1822.74 C3375.6,1821.01 3374.92,1819.47 3373.77,1818.1 C3372.63,1816.74 3370.88,1816.06 3368.53,1816.06 L3356.38,1816.06 C3354.96,1816.06 3354.25,1815.29 3354.25,1813.74 C3354.25,1812.32 3354.96,1811.61 3356.38,1811.61 L3368.53,1811.61 C3371.07,1811.61 3373.05,1810.65 3374.47,1808.73 C3374.97,1808.05 3375.37,1806.94 3375.68,1805.39 C3375.99,1803.35 3376.14,1800.42 3376.14,1796.58 L3376.14,1795.38 C3376.14,1786.16 3372.74,1781.55 3365.94,1781.55 C3359.94,1781.55 3356.94,1783.22 3356.94,1786.56 C3356.94,1787.67 3357.85,1788.87 3359.67,1790.13 C3361.5,1791.4 3362.41,1792.59 3362.41,1793.71 C3362.41,1796.12 3361.56,1798.19 3359.86,1799.92 C3358.16,1801.65 3356.09,1802.52 3353.64,1802.52 C3351.2,1802.52 3349.14,1801.65 3347.47,1799.92 C3345.8,1798.19 3344.97,1796.12 3344.97,1793.71 C3344.97,1788.94 3347.04,1785.14 3351.18,1782.29 C3355.33,1779.45 3360.25,1778.03 3365.94,1778.03 C3373.42,1778.03 3379.57,1779.46 3384.4,1782.34 C3389.22,1785.22 3391.63,1789.56 3391.63,1795.38 C3391.63,1799.52 3391.2,1802.74 3390.33,1805.02 C3389.47,1807.31 3388.48,1808.7 3387.37,1809.2 C3386.25,1809.69 3385.26,1810.27 3384.4,1810.91 C3383.53,1811.56 3383.1,1812.51 3383.1,1813.74"/>
<path class="FiguredBass" d="M3379.57,1916.06 C3384.52,1910.68 3386.99,1905.49 3386.99,1900.48 C3386.99,1896.39 3385.25,1893.18 3381.75,1890.83 C3378.26,1888.48 3374.07,1887.3 3369.18,1887.3 C3365.72,1887.3 3362.95,1888.38 3360.88,1890.55 C3358.81,1892.71 3357.77,1895.22 3357.77,1898.06 C3357.77,1901.53 3359.29,1904.16 3362.32,1905.95 L3379.57,1916.06 M3384.12,1918.66 C3392.53,1923.55 3396.74,1929.98 3396.74,1937.96 C3396.74,1943.96 3394.17,1949.1 3389.04,1953.4 C3383.9,1957.7 3376.88,1959.85 3367.98,1959.85 C3360.49,1959.85 3353.98,1957.87 3348.45,1953.91 C3342.91,1949.95 3340.14,1944.82 3340.14,1938.51 C3340.14,1936.16 3340.82,1933.78 3342.19,1931.37 C3343.55,1928.96 3344.81,1927.15 3345.99,1925.94 C3347.16,1924.74 3349.08,1922.86 3351.74,1920.33 C3345.56,1916.06 3342.46,1910.68 3342.46,1904.19 C3342.46,1898.62 3344.84,1893.83 3349.61,1889.81 C3354.37,1885.79 3360.89,1883.78 3369.18,1883.78 C3375.8,1883.78 3381.54,1885.28 3386.39,1888.28 C3391.25,1891.28 3393.67,1895.34 3393.67,1900.48 C3393.67,1905.98 3390.49,1912.04 3384.12,1918.66 M3356.29,1923.02 C3349.98,1928.52 3346.82,1933.69 3346.82,1938.51 C3346.82,1943.58 3348.93,1947.82 3353.13,1951.22 C3357.34,1954.62 3362.29,1956.33 3367.98,1956.33 C3371.93,1956.33 3375.1,1955.06 3377.49,1952.52 C3379.87,1949.99 3381.06,1947.05 3381.06,1943.71 C3381.06,1939.44 3379.29,1936.29 3375.77,1934.25 L3356.29,1923.02 "/>
<path class="FiguredBass" d="M3348.59,1989.53 C3348.59,1989.53 3350.07,1989.74 3353.04,1990.18 C3354.34,1990.36 3355.79,1990.55 3357.4,1990.73 C3361.67,1991.23 3365.78,1991.47 3369.74,1991.47 C3373.7,1991.47 3377.87,1991.23 3382.26,1990.73 C3384,1990.55 3385.51,1990.36 3386.81,1990.18 L3391.36,1989.53 C3392.28,1989.53 3392.98,1989.84 3393.44,1990.45 C3393.91,1991.07 3393.86,1991.57 3393.3,1991.94 C3383.84,2001.4 3370.51,2006.13 3353.32,2006.13 C3352.64,2006.13 3352.03,2006.38 3351.51,2006.88 C3350.98,2007.37 3350.72,2007.99 3350.72,2008.73 L3350.72,2023.3 C3355.11,2018.97 3360.43,2016.8 3366.68,2016.8 C3375.71,2016.8 3382.68,2018.83 3387.6,2022.88 C3392.51,2026.93 3394.97,2033.07 3394.97,2041.29 C3394.97,2048.28 3392.19,2054.08 3386.62,2058.69 C3381.06,2063.3 3374.41,2065.6 3366.68,2065.6 C3360,2065.6 3354.2,2064.09 3349.28,2061.05 C3344.37,2058.02 3341.91,2053.82 3341.91,2048.44 C3341.91,2045.72 3342.9,2043.35 3344.88,2041.34 C3346.85,2039.33 3349.22,2038.33 3351.97,2038.33 C3354.72,2038.33 3357.06,2039.31 3358.98,2041.29 C3360.89,2043.27 3361.85,2045.65 3361.85,2048.44 C3361.85,2049.67 3360.83,2051.02 3358.79,2052.47 C3356.75,2053.93 3355.73,2055.27 3355.73,2056.51 C3355.73,2060.22 3359.38,2062.08 3366.68,2062.08 C3373.79,2062.08 3377.35,2055.15 3377.35,2041.29 C3377.35,2027.93 3373.79,2021.22 3366.68,2021.16 C3360.31,2021.16 3355.85,2022.46 3353.32,2025.06 C3350.78,2027.66 3349.2,2028.96 3348.59,2028.96 C3347.04,2028.96 3346.3,2028.18 3346.36,2026.64 L3346.36,1991.94 C3346.36,1991.26 3346.58,1990.69 3347.01,1990.22 C3347.44,1989.76 3347.97,1989.53 3348.59,1989.53"/>
<polyline class="FretDiagram" stroke="#fc02ff" stroke-width="11.91" stroke-linejoin="bevel" points="1507.62,214.133 1720.73,214.133"/>
<polyline class="FretDiagram" stroke="#fc02ff" stroke-width="4.76" stroke-linejoin="bevel" points="1510,214.133 1510,428.432"/>
<polyline class="FretDiagram" stroke="#fc02ff" stroke-width="4.76" stroke-linejoin="bevel" points="1551.67,214.133 1551.67,428.432"/>
<polyline class="FretDiagram" stroke="#fc02ff" stroke-width="4.76" stroke-linejoin="bevel" points="1593.34,214.133 1593.34,428.432"/>
<polyline class="FretDiagram" stroke="#fc02ff" stroke-width="4.76" stroke-linejoin="bevel" points="1635.01,214.133 1635.01,428.432"/>
<polyline class="FretDiagram" stroke="#fc02ff" stroke-width="4.76" stroke-linejoin="bevel" points="1676.68,214.133 1676.68,428.432"/>
<polyline class="FretDiagram" stroke="#fc02ff" stroke-width="4.76" stroke-linejoin="bevel" points="1718.35,214.133 1718.35,428.432"/>
<polyline class="FretDiagram" stroke="#fc02ff" stroke-width="4.76" stroke-linejoin="bevel" points="1510,261.755 1718.35,261.755"/>
<polyline class="FretDiagram" stroke="#fc02ff" stroke-width="4.76" stroke-linejoin="bevel" points="1510,309.377 1718.35,309.377"/>
<polyline class="FretDiagram" stroke="#fc02ff" stroke-width="4.76" stroke-linejoin="bevel" points="1510,356.999 1718.35,356.999"/>
<polyline class="FretDiagram" stroke="#fc02ff" stroke-width="4.76" stroke-linejoin="bevel" points="1510,404.621 1718.35,404.621"/>
<path class="FretDiagram" fill="#fc02ff" fill-rule="evenodd" d="M1607.92,285.566 C1607.92,293.62 1601.39,300.15 1593.34,300.15 C1585.28,300.15 1578.75,293.62 1578.75,285.566 C1578.75,277.511 1585.28,270.982 1593.34,270.982 C1601.39,270.982 1607.92,277.511 1607.92,285.566"/>
<path class="FretDiagram" fill="#fc02ff" fill-rule="evenodd" d="M1649.59,333.188 C1649.59,341.243 1643.06,347.772 1635.01,347.772 C1626.95,347.772 1620.42,341.243 1620.42,333.188 C1620.42,325.133 1626.95,318.604 1635.01,318.604 C1643.06,318.604 1649.59,325.133 1649.59,333.188"/>
<path class="FretDiagram" fill="#fc02ff" fill-rule="evenodd" d="M1691.26,237.944 C1691.26,245.998 1684.73,252.528 1676.68,252.528 C1668.62,252.528 1662.09,245.998 1662.09,237.944 C1662.09,229.889 1668.62,223.36 1676.68,223.36 C1684.73,223.36 1691.26,229.889 1691.26,237.944"/>
<polyline class="FretDiagram" fill="none" stroke="#fc02ff" stroke-width="6.86" stroke-linecap="round" stroke-linejoin="bevel" points="1493.33,149.843 1526.67,183.178"/>
<polyline class="FretDiagram" fill="none" stroke="#fc02ff" stroke-width="6.86" stroke-linecap="round" stroke-linejoin="bevel" points="1493.33,183.178 1526.67,149.843"/>
<path class="FretDiagram" fill="none" stroke="#fc02ff" stroke-width="6.86" stroke-linecap="round" stroke-linejoin="bevel" fill-rule="evenodd" d="M1568.34,166.511 C1568.34,175.716 1560.87,183.178 1551.67,183.178 C1542.46,183.178 1535,175.716 1535,166.511 C1535,157.305 1542.46,149.843 1551.67,149.843 C1560.87,149.843 1568.34,157.305 1568.34,166.511"/>
<path class="FretDiagram" fill="none" stroke="#fc02ff" stroke-width="6.86" stroke-linecap="round" stroke-linejoin="bevel" fill-rule="evenodd" d="M1735.01,166.511 C1735.01,175.716 1727.55,183.178 1718.35,183.178 C1709.14,183.178 1701.68,175.716 1701.68,166.511 C1701.68,157.305 1709.14,149.843 1718.35,149.843 C1727.55,149.843 1735.01,157.305 1735.01,166.511"/>
<polyline class="FretDiagram" fill="#fc02ff" stroke="#fc0107" stroke-width="4.76" stroke-linejoin="bevel" points="2413.12,206.022 2626.23,206.022"/>
<polyline class="FretDiagram" fill="#fc02ff" stroke="#fc0107" stroke-width="4.76" stroke-linejoin="bevel" points="2415.5,194.117 2415.5,420.321"/>
<polyline class="FretDiagram" fill="#fc02ff" stroke="#fc0107" stroke-width="4.76" stroke-linejoin="bevel" points="2457.17,194.117 2457.17,420.321"/>
<polyline class="FretDiagram" fill="#fc02ff" stroke="#fc0107" stroke-width="4.76" stroke-linejoin="bevel" points="2498.84,194.117 2498.84,420.321"/>
<polyline class="FretDiagram" fill="#fc02ff" stroke="#fc0107" stroke-width="4.76" stroke-linejoin="bevel" points="2540.51,194.117 2540.51,420.321"/>
<polyline class="FretDiagram" fill="#fc02ff" stroke="#fc0107" stroke-width="4.76" stroke-linejoin="bevel" points="2582.18,194.117 2582.18,420.321"/>
<polyline class="FretDiagram" fill="#fc02ff" stroke="#fc0107" stroke-width="4.76" stroke-linejoin="bevel" points="2623.85,194.117 2623.85,420.321"/>
<polyline class="FretDiagram" fill="#fc02ff" stroke="#fc0107" stroke-width="4.76" stroke-linejoin="bevel" points="2415.5,253.644 2623.85,253.644"/>
<polyline class="FretDiagram" fill="#fc02ff" stroke="#fc0107" stroke-width="4.76" stroke-linejoin="bevel" points="2415.5,301.266 2623.85,301.266"/>
<polyline class="FretDiagram" fill="#fc02ff" stroke="#fc0107" stroke-width="4.76" stroke-linejoin="bevel" points="2415.5,348.888 2623.85,348.888"/>
<polyline class="FretDiagram" fill="#fc02ff" stroke="#fc0107" stroke-width="4.76" stroke-linejoin="bevel" points="2415.5,396.51 2623.85,396.51"/>
<path class="FretDiagram" fill="#fc0107" fill-rule="evenodd" d="M2513.42,325.077 C2513.42,333.132 2506.9,339.661 2498.84,339.661 C2490.79,339.661 2484.26,333.132 2484.26,325.077 C2484.26,317.023 2490.79,310.493 2498.84,310.493 C2506.9,310.493 2513.42,317.023 2513.42,325.077"/>
<path class="FretDiagram" fill="#fc0107" fill-rule="evenodd" d="M2555.09,277.455 C2555.09,285.51 2548.56,292.039 2540.51,292.039 C2532.46,292.039 2525.93,285.51 2525.93,277.455 C2525.93,269.401 2532.46,262.871 2540.51,262.871 C2548.56,262.871 2555.09,269.401 2555.09,277.455"/>
<polyline class="FretDiagram" fill="none" stroke="#fc0107" stroke-width="6.86" stroke-linecap="round" stroke-linejoin="bevel" points="2398.83,141.732 2432.17,175.068"/>
<polyline class="FretDiagram" fill="none" stroke="#fc0107" stroke-width="6.86" stroke-linecap="round" stroke-linejoin="bevel" points="2398.83,175.068 2432.17,141.732"/>
<polyline class="FretDiagram" fill="none" stroke="#fc0107" stroke-width="6.86" stroke-linecap="round" stroke-linejoin="bevel" points="2440.5,141.732 2473.84,175.068"/>
<polyline class="FretDiagram" fill="none" stroke="#fc0107" stroke-width="6.86" stroke-linecap="round" stroke-linejoin="bevel" points="2440.5,175.068 2473.84,141.732"/>
<path class="FretDiagram" fill="none" stroke="#fc0107" stroke-width="6.86" stroke-linecap="round" stroke-linejoin="bevel" fill-rule="evenodd" d="M2598.85,158.4 C2598.85,167.605 2591.38,175.068 2582.18,175.068 C2572.97,175.068 2565.51,167.605 2565.51,158.4 C2565.51,149.195 2572.97,141.732 2582.18,141.732 C2591.38,141.732 2598.85,149.195 2598.85,158.4"/>
<path class="FretDiagram" fill="none" stroke="#fc0107" stroke-width="6.86" stroke-linecap="round" stroke-linejoin="bevel" fill-rule="evenodd" d="M2640.52,158.4 C2640.52,167.605 2633.05,175.068 2623.85,175.068 C2614.64,175.068 2607.18,167.605 2607.18,158.4 C2607.18,149.195 2614.64,141.732 2623.85,141.732 C2633.05,141.732 2640.52,149.195 2640.52,158.4"/>
<polyline class="FretDiagram" fill="none" stroke="#fc0107" stroke-width="29.17" stroke-linecap="round" stroke-linejoin="bevel" points="2582.18,229.833 2623.85,229.833"/>
<path class="FretDiagram" fill="#fc0107" d="M2391.25,195.73 L2391.25,203.995 L2363.23,203.995 L2360.57,222.805 C2364.3,220.081 2368.45,218.72 2373.01,218.72 C2379.47,218.72 2384.71,220.794 2388.74,224.942 C2392.76,229.09 2394.77,234.49 2394.77,241.14 C2394.77,248.233 2392.61,254.028 2388.31,258.525 C2384,263.021 2378.46,265.27 2371.68,265.27 C2369.09,265.27 2366.7,264.985 2364.51,264.415 C2362.33,263.845 2360.52,263.164 2359.1,262.372 C2357.67,261.58 2356.37,260.535 2355.2,259.237 C2354.03,257.939 2353.14,256.799 2352.54,255.817 C2351.94,254.835 2351.37,253.6 2350.83,252.112 C2350.29,250.624 2349.96,249.595 2349.83,249.025 C2349.71,248.455 2349.55,247.631 2349.36,246.555 L2357.72,246.555 C2359.68,254.091 2364.27,257.86 2371.49,257.86 C2376.05,257.86 2379.65,256.466 2382.28,253.68 C2384.9,250.893 2386.22,247.093 2386.22,242.28 C2386.22,237.276 2384.89,233.334 2382.23,230.452 C2379.57,227.57 2375.99,226.13 2371.49,226.13 C2368.9,226.13 2366.68,226.589 2364.84,227.507 C2363.01,228.425 2361.11,230.056 2359.14,232.4 L2351.45,232.4 L2356.48,195.73 L2391.25,195.73 "/>
<polyline class="FretDiagram" fill="#fc0107" stroke="#0000ff" stroke-width="4.76" stroke-linejoin="bevel" points="3267.6,214.133 3480.71,214.133"/>
<polyline class="FretDiagram" fill="#fc0107" stroke="#0000ff" stroke-width="4.76" stroke-linejoin="bevel" points="3269.99,202.227 3269.99,428.432"/>
<polyline class="FretDiagram" fill="#fc0107" stroke="#0000ff" stroke-width="4.76" stroke-linejoin="bevel" points="3311.65,202.227 3311.65,428.432"/>
<polyline class="FretDiagram" fill="#fc0107" stroke="#0000ff" stroke-width="4.76" stroke-linejoin="bevel" points="3353.32,202.227 3353.32,428.432"/>
<polyline class="FretDiagram" fill="#fc0107" stroke="#0000ff" stroke-width="4.76" stroke-linejoin="bevel" points="3394.99,202.227 3394.99,428.432"/>
<polyline class="FretDiagram" fill="#fc0107" stroke="#0000ff" stroke-width="4.76" stroke-linejoin="bevel" points="3436.66,202.227 3436.66,428.432"/>
<polyline class="FretDiagram" fill="#fc0107" stroke="#0000ff" stroke-width="4.76" stroke-linejoin="bevel" points="3478.33,202.227 3478.33,428.432"/>
<polyline class="FretDiagram" fill="#fc0107" stroke="#0000ff" stroke-width="4.76" stroke-linejoin="bevel" points="3269.99,261.755 3478.33,261.755"/>
<polyline class="FretDiagram" fill="#fc0107" stroke="#0000ff" stroke-width="4.76" stroke-linejoin="bevel" points="3269.99,309.377 3478.33,309.377"/>
<polyline class="FretDiagram" fill="#fc0107" stroke="#0000ff" stroke-width="4.76" stroke-linejoin="bevel" points="3269.99,356.999 3478.33,356.999"/>
<polyline class="FretDiagram" fill="#fc0107" stroke="#0000ff" stroke-width="4.76" stroke-linejoin="bevel" points="3269.99,404.621 3478.33,404.621"/>
<path class="FretDiagram" fill="#0000ff" fill-rule="evenodd" d="M3326.24,333.188 C3326.24,341.243 3319.71,347.772 3311.65,347.772 C3303.6,347.772 3297.07,341.243 3297.07,333.188 C3297.07,325.133 3303.6,318.604 3311.65,318.604 C3319.71,318.604 3326.24,325.133 3326.24,333.188"/>
<path class="FretDiagram" fill="#0000ff" fill-rule="evenodd" d="M3367.91,333.188 C3367.91,341.243 3361.38,347.772 3353.32,347.772 C3345.27,347.772 3338.74,341.243 3338.74,333.188 C3338.74,325.133 3345.27,318.604 3353.32,318.604 C3361.38,318.604 3367.91,325.133 3367.91,333.188"/>
<path class="FretDiagram" fill="#0000ff" fill-rule="evenodd" d="M3409.58,285.566 C3409.58,293.62 3403.05,300.15 3394.99,300.15 C3386.94,300.15 3380.41,293.62 3380.41,285.566 C3380.41,277.511 3386.94,270.982 3394.99,270.982 C3403.05,270.982 3409.58,277.511 3409.58,285.566"/>
<path class="FretDiagram" fill="none" stroke="#0000ff" stroke-width="6.86" stroke-linecap="round" stroke-linejoin="bevel" fill-rule="evenodd" d="M3286.65,166.511 C3286.65,175.716 3279.19,183.178 3269.99,183.178 C3260.78,183.178 3253.32,175.716 3253.32,166.511 C3253.32,157.305 3260.78,149.843 3269.99,149.843 C3279.19,149.843 3286.65,157.305 3286.65,166.511"/>
<path class="FretDiagram" fill="none" stroke="#0000ff" stroke-width="6.86" stroke-linecap="round" stroke-linejoin="bevel" fill-rule="evenodd" d="M3453.33,166.511 C3453.33,175.716 3445.87,183.178 3436.66,183.178 C3427.46,183.178 3419.99,175.716 3419.99,166.511 C3419.99,157.305 3427.46,149.843 3436.66,149.843 C3445.87,149.843 3453.33,157.305 3453.33,166.511"/>
<path class="FretDiagram" fill="none" stroke="#0000ff" stroke-width="6.86" stroke-linecap="round" stroke-linejoin="bevel" fill-rule="evenodd" d="M3495,166.511 C3495,175.716 3487.54,183.178 3478.33,183.178 C3469.13,183.178 3461.66,175.716 3461.66,166.511 C3461.66,157.305 3469.13,149.843 3478.33,149.843 C3487.54,149.843 3495,157.305 3495,166.511"/>
<polyline class="FretDiagram" fill="none" stroke="#0000ff" stroke-width="29.17" stroke-linecap="round" stroke-linejoin="bevel" points="3269.99,237.944 3478.33,237.944"/>
<path class="FretDiagram" fill="#0000ff" d="M3245.74,203.84 L3245.74,212.105 L3217.71,212.105 L3215.05,230.915 C3218.79,228.192 3222.94,226.83 3227.5,226.83 C3233.96,226.83 3239.2,228.904 3243.22,233.053 C3247.24,237.201 3249.25,242.6 3249.25,249.25 C3249.25,256.344 3247.1,262.139 3242.79,266.635 C3238.48,271.132 3232.94,273.38 3226.17,273.38 C3223.57,273.38 3221.18,273.095 3218.99,272.525 C3216.81,271.955 3215,271.274 3213.58,270.483 C3212.15,269.691 3210.86,268.646 3209.68,267.348 C3208.51,266.049 3207.63,264.909 3207.02,263.928 C3206.42,262.946 3205.85,261.711 3205.31,260.223 C3204.78,258.734 3204.44,257.705 3204.32,257.135 C3204.19,256.565 3204.03,255.742 3203.84,254.665 L3212.2,254.665 C3214.16,262.202 3218.76,265.97 3225.98,265.97 C3230.54,265.97 3234.13,264.577 3236.76,261.79 C3239.39,259.004 3240.7,255.204 3240.7,250.39 C3240.7,245.387 3239.37,241.444 3236.71,238.563 C3234.05,235.681 3230.47,234.24 3225.98,234.24 C3223.38,234.24 3221.16,234.699 3219.33,235.618 C3217.49,236.536 3215.59,238.167 3213.63,240.51 L3205.93,240.51 L3210.97,203.84 L3245.74,203.84 "/>
<path class="Bracket" transform="matrix(8.6315,0,0,10.6395,76.1283,2472.2)" d="M0.92002,-50 C2.69004,-51.88 6.2,-55.8 6.2,-63 C6.2,-72.1 2.25996,-81.32 2.25996,-86.97 C2.25996,-93.06 5.84004,-98.84 5.95,-99 C6.05996,-99.16 6.05,-99.39 5.94004,-99.46 C5.82998,-99.53 5.62002,-99.47 5.49004,-99.32 C5.35996,-99.17 0,-93.75 0,-85.6 C0,-76.75 3.5,-70.58 3.5,-59.07 C3.5,-56.89 2.55996,-53.36 0.1,-50.33 C-0.0799805,-50.17 -0.1,-49.89 0.0599609,-49.7 L0.0700195,-49.69 L0.1,-49.66 C2.55996,-46.63 3.5,-43.1 3.5,-40.92 C3.5,-29.4 0,-23.24 0,-14.39 C0,-6.25 5.35996,-0.8 5.49004,-0.659961 C5.62002,-0.52002 5.8,-0.42998 5.94004,-0.52002 C6.07998,-0.609961 6.07998,-0.77998 5.95,-0.97998 C5.82002,-1.17998 2.25996,-6.92002 2.25996,-13.01 C2.25996,-18.66 6.2,-27.9 6.2,-37 C6.2,-44.3 2.69004,-48.12 0.92002,-50"/>
</svg>
