<?xml version="1.0" encoding="UTF-8" standalone="no"?>
<svg width="4209.44px" height="2976.38px" viewBox="0 0 4209.44 2976.38"
 xmlns="http://www.w3.org/2000/svg" xmlns:xlink="http://www.w3.org/1999/xlink" version="1.2" baseProfile="tiny">
<title>ReMineur (21)</title>
<desc>Generated by MuseScore 3.6.2</desc>
<polyline class="StaffLines" fill="none" stroke="#000000" stroke-width="6.55" stroke-linejoin="bevel" points="153.819,558.425 4138.58,558.425"/>
<polyline class="StaffLines" fill="none" stroke="#000000" stroke-width="6.55" stroke-linejoin="bevel" points="153.819,647.717 4138.58,647.717"/>
<polyline class="StaffLines" fill="none" stroke="#000000" stroke-width="6.55" stroke-linejoin="bevel" points="153.819,737.008 4138.58,737.008"/>
<polyline class="StaffLines" fill="none" stroke="#000000" stroke-width="6.55" stroke-linejoin="bevel" points="153.819,826.299 4138.58,826.299"/>
<polyline class="StaffLines" fill="none" stroke="#000000" stroke-width="6.55" stroke-linejoin="bevel" points="153.819,915.591 4138.58,915.591"/>
<polyline class="StaffLines" fill="none" stroke="#000000" stroke-width="6.55" stroke-linejoin="bevel" points="153.819,1004.88 4138.58,1004.88"/>
<polyline class="StaffLines" fill="none" stroke="#000000" stroke-width="6.55" stroke-linejoin="bevel" points="153.819,1391.81 4138.58,1391.81"/>
<polyline class="StaffLines" fill="none" stroke="#000000" stroke-width="6.55" stroke-linejoin="bevel" points="153.819,1451.34 4138.58,1451.34"/>
<polyline class="StaffLines" fill="none" stroke="#000000" stroke-width="6.55" stroke-linejoin="bevel" points="153.819,1510.87 4138.58,1510.87"/>
<polyline class="StaffLines" fill="none" stroke="#000000" stroke-width="6.55" stroke-linejoin="bevel" points="153.819,1570.39 4138.58,1570.39"/>
<polyline class="StaffLines" fill="none" stroke="#000000" stroke-width="6.55" stroke-linejoin="bevel" points="153.819,1629.92 4138.58,1629.92"/>
<polyline class="StaffLines" fill="none" stroke="#000000" stroke-width="6.55" stroke-linejoin="bevel" points="153.819,2099.26 4138.58,2099.26"/>
<polyline class="StaffLines" fill="none" stroke="#000000" stroke-width="6.55" stroke-linejoin="bevel" points="153.819,2158.79 4138.58,2158.79"/>
<polyline class="StaffLines" fill="none" stroke="#000000" stroke-width="6.55" stroke-linejoin="bevel" points="153.819,2218.32 4138.58,2218.32"/>
<polyline class="StaffLines" fill="none" stroke="#000000" stroke-width="6.55" stroke-linejoin="bevel" points="153.819,2277.85 4138.58,2277.85"/>
<polyline class="StaffLines" fill="none" stroke="#000000" stroke-width="6.55" stroke-linejoin="bevel" points="153.819,2337.37 4138.58,2337.37"/>
<polyline class="BarLine" fill="none" stroke="#000000" stroke-width="10.71" stroke-linejoin="bevel" points="159.176,2095.99 159.176,2340.65"/>
<polyline class="BarLine" fill="none" stroke="#000000" stroke-width="10.71" stroke-linejoin="bevel" points="1373.17,2095.99 1373.17,2340.65"/>
<polyline class="BarLine" fill="none" stroke="#000000" stroke-width="10.71" stroke-linejoin="bevel" points="2227.87,2095.99 2227.87,2340.65"/>
<polyline class="BarLine" fill="none" stroke="#000000" stroke-width="10.71" stroke-linejoin="bevel" points="3197.23,2095.99 3197.23,2340.65"/>
<polyline class="BarLine" fill="none" stroke="#000000" stroke-width="10.71" stroke-linejoin="bevel" points="4080.54,2095.99 4080.54,2340.65"/>
<polyline class="BarLine" fill="none" stroke="#000000" stroke-width="32.74" stroke-linejoin="bevel" points="4122.21,2095.99 4122.21,2340.65"/>
<polyline class="BarLine" fill="none" stroke="#000000" stroke-width="10.71" stroke-linejoin="bevel" points="159.176,1388.54 159.176,2099.26"/>
<polyline class="BarLine" fill="none" stroke="#000000" stroke-width="10.71" stroke-linejoin="bevel" points="1373.17,1388.54 1373.17,1633.2"/>
<polyline class="BarLine" fill="none" stroke="#000000" stroke-width="10.71" stroke-linejoin="bevel" points="2227.87,1388.54 2227.87,1633.2"/>
<polyline class="BarLine" fill="none" stroke="#000000" stroke-width="10.71" stroke-linejoin="bevel" points="3197.23,1388.54 3197.23,1633.2"/>
<polyline class="BarLine" fill="none" stroke="#000000" stroke-width="10.71" stroke-linejoin="bevel" points="4080.54,1388.54 4080.54,1633.2"/>
<polyline class="BarLine" fill="none" stroke="#000000" stroke-width="32.74" stroke-linejoin="bevel" points="4122.21,1388.54 4122.21,1633.2"/>
<polyline class="BarLine" fill="none" stroke="#000000" stroke-width="10.71" stroke-linejoin="bevel" points="159.176,555.151 159.176,1391.81"/>
<polyline class="BarLine" fill="none" stroke="#000000" stroke-width="10.71" stroke-linejoin="bevel" points="1373.17,555.151 1373.17,1008.16"/>
<polyline class="BarLine" fill="none" stroke="#000000" stroke-width="10.71" stroke-linejoin="bevel" points="2227.87,555.151 2227.87,1008.16"/>
<polyline class="BarLine" fill="none" stroke="#000000" stroke-width="10.71" stroke-linejoin="bevel" points="3197.23,555.151 3197.23,1008.16"/>
<polyline class="BarLine" fill="none" stroke="#000000" stroke-width="10.71" stroke-linejoin="bevel" points="4080.54,555.151 4080.54,1008.16"/>
<polyline class="BarLine" fill="none" stroke="#000000" stroke-width="32.74" stroke-linejoin="bevel" points="4122.21,555.151 4122.21,1008.16"/>
<path class="Accidental" transform="matrix(2.3811,0,0,2.3811,2279.3,2248.08)" d="M23.3,-10.6 C23.9,-10.7 24.4,-11.4 24.4,-12 L24.4,-17.9 C24.4,-18.7 23.8,-19.3 23,-19.3 L22.8,-19.3 L19.5,-18.6 L19.5,-33.5 L16.7,-33.5 L16.7,-18 L7.8,-16.2 L7.8,-30.3 L5,-30.3 L5,-15.6 L1.1,-14.8 C0.5,-14.7 0,-14 0,-13.4 L0,-13.2 L0,-7.4 L0,-7.6 C0,-6.8 0.6,-6.2 1.4,-6.2 L1.7,-6.2 L5,-6.9 L5,9.6 L1.1,10.4 C0.5,10.5 0,11.2 0,11.8 L0,17.6 C0,18.4 0.6,19 1.4,19 L1.7,19 L5,18.3 L5,33.2 L7.8,33.2 L7.8,17.7 L16.7,15.9 L16.7,30 L19.5,30 L19.5,15.3 L23.3,14.6 C23.9,14.5 24.4,13.8 24.4,13.2 L24.4,7.3 C24.4,6.5 23.8,5.9 23,5.9 L22.8,5.9 L19.5,6.6 L19.5,-9.9 L23.3,-10.6 M7.8,9.1 L7.8,-7.5 L16.7,-9.3 L16.7,7.2 L7.8,9.1 "/>
<polyline class="LedgerLine" fill="none" stroke="#000000" stroke-width="9.52" stroke-linejoin="bevel" points="3280.45,2396.9 3410.92,2396.9"/>
<path class="Note" transform="matrix(2.3811,0,0,2.3811,626.933,2218.32)" d="M18.7,-13.6 C4.9,-13.6 0,-6.6 0,-0.1 C0,6.4 4.9,13.4 18.7,13.4 C32.5,13.4 37.3,6.4 37.3,-0.1 C37.3,-6.6 32.5,-13.6 18.7,-13.6 M10.4,-4.5 C10.3,-4.9 10.3,-5.3 10.3,-5.7 C10.3,-6.5 10.5,-7.3 10.9,-8 C11.6,-9 12.8,-9.7 14.3,-10 C15.6,-10.3 16.3,-10.5 18.9,-10.5 L19,-10.5 C23,-10.5 24.3,-6.8 25.4,-3 L25.7,-2 C26.5,0.6 26.9,2.8 26.9,4.5 C26.9,5.7 26.7,6.8 26.3,7.6 C25.7,8.7 24.7,9.4 23,9.8 C22.1,10 20.6,10.1 20.6,10.1 C20.1,10.1 19.7,10.2 19.3,10.2 C16.1,10.2 14.1,9 12.7,4.7 C11.5,1 11.3,-0.1 10.4,-4.5"/>
<path class="Note" transform="matrix(2.3811,0,0,2.3811,1461.64,2218.32)" d="M18.7,-13.6 C4.9,-13.6 0,-6.6 0,-0.1 C0,6.4 4.9,13.4 18.7,13.4 C32.5,13.4 37.3,6.4 37.3,-0.1 C37.3,-6.6 32.5,-13.6 18.7,-13.6 M10.4,-4.5 C10.3,-4.9 10.3,-5.3 10.3,-5.7 C10.3,-6.5 10.5,-7.3 10.9,-8 C11.6,-9 12.8,-9.7 14.3,-10 C15.6,-10.3 16.3,-10.5 18.9,-10.5 L19,-10.5 C23,-10.5 24.3,-6.8 25.4,-3 L25.7,-2 C26.5,0.6 26.9,2.8 26.9,4.5 C26.9,5.7 26.7,6.8 26.3,7.6 C25.7,8.7 24.7,9.4 23,9.8 C22.1,10 20.6,10.1 20.6,10.1 C20.1,10.1 19.7,10.2 19.3,10.2 C16.1,10.2 14.1,9 12.7,4.7 C11.5,1 11.3,-0.1 10.4,-4.5"/>
<path class="Note" transform="matrix(2.3811,0,0,2.3811,2352.28,2248.08)" d="M18.7,-13.6 C4.9,-13.6 0,-6.6 0,-0.1 C0,6.4 4.9,13.4 18.7,13.4 C32.5,13.4 37.3,6.4 37.3,-0.1 C37.3,-6.6 32.5,-13.6 18.7,-13.6 M10.4,-4.5 C10.3,-4.9 10.3,-5.3 10.3,-5.7 C10.3,-6.5 10.5,-7.3 10.9,-8 C11.6,-9 12.8,-9.7 14.3,-10 C15.6,-10.3 16.3,-10.5 18.9,-10.5 L19,-10.5 C23,-10.5 24.3,-6.8 25.4,-3 L25.7,-2 C26.5,0.6 26.9,2.8 26.9,4.5 C26.9,5.7 26.7,6.8 26.3,7.6 C25.7,8.7 24.7,9.4 23,9.8 C22.1,10 20.6,10.1 20.6,10.1 C20.1,10.1 19.7,10.2 19.3,10.2 C16.1,10.2 14.1,9 12.7,4.7 C11.5,1 11.3,-0.1 10.4,-4.5"/>
<path class="Note" transform="matrix(2.3811,0,0,2.3811,3301.28,2426.67)" d="M18.7,-13.6 C4.9,-13.6 0,-6.6 0,-0.1 C0,6.4 4.9,13.4 18.7,13.4 C32.5,13.4 37.3,6.4 37.3,-0.1 C37.3,-6.6 32.5,-13.6 18.7,-13.6 M10.4,-4.5 C10.3,-4.9 10.3,-5.3 10.3,-5.7 C10.3,-6.5 10.5,-7.3 10.9,-8 C11.6,-9 12.8,-9.7 14.3,-10 C15.6,-10.3 16.3,-10.5 18.9,-10.5 L19,-10.5 C23,-10.5 24.3,-6.8 25.4,-3 L25.7,-2 C26.5,0.6 26.9,2.8 26.9,4.5 C26.9,5.7 26.7,6.8 26.3,7.6 C25.7,8.7 24.7,9.4 23,9.8 C22.1,10 20.6,10.1 20.6,10.1 C20.1,10.1 19.7,10.2 19.3,10.2 C16.1,10.2 14.1,9 12.7,4.7 C11.5,1 11.3,-0.1 10.4,-4.5"/>
<path class="Note" transform="matrix(2.3811,0,0,2.3811,626.933,1659.69)" d="M18.7,-13.6 C4.9,-13.6 0,-6.6 0,-0.1 C0,6.4 4.9,13.4 18.7,13.4 C32.5,13.4 37.3,6.4 37.3,-0.1 C37.3,-6.6 32.5,-13.6 18.7,-13.6 M10.4,-4.5 C10.3,-4.9 10.3,-5.3 10.3,-5.7 C10.3,-6.5 10.5,-7.3 10.9,-8 C11.6,-9 12.8,-9.7 14.3,-10 C15.6,-10.3 16.3,-10.5 18.9,-10.5 L19,-10.5 C23,-10.5 24.3,-6.8 25.4,-3 L25.7,-2 C26.5,0.6 26.9,2.8 26.9,4.5 C26.9,5.7 26.7,6.8 26.3,7.6 C25.7,8.7 24.7,9.4 23,9.8 C22.1,10 20.6,10.1 20.6,10.1 C20.1,10.1 19.7,10.2 19.3,10.2 C16.1,10.2 14.1,9 12.7,4.7 C11.5,1 11.3,-0.1 10.4,-4.5"/>
<path class="Note" transform="matrix(2.3811,0,0,2.3811,626.933,1600.16)" d="M18.7,-13.6 C4.9,-13.6 0,-6.6 0,-0.1 C0,6.4 4.9,13.4 18.7,13.4 C32.5,13.4 37.3,6.4 37.3,-0.1 C37.3,-6.6 32.5,-13.6 18.7,-13.6 M10.4,-4.5 C10.3,-4.9 10.3,-5.3 10.3,-5.7 C10.3,-6.5 10.5,-7.3 10.9,-8 C11.6,-9 12.8,-9.7 14.3,-10 C15.6,-10.3 16.3,-10.5 18.9,-10.5 L19,-10.5 C23,-10.5 24.3,-6.8 25.4,-3 L25.7,-2 C26.5,0.6 26.9,2.8 26.9,4.5 C26.9,5.7 26.7,6.8 26.3,7.6 C25.7,8.7 24.7,9.4 23,9.8 C22.1,10 20.6,10.1 20.6,10.1 C20.1,10.1 19.7,10.2 19.3,10.2 C16.1,10.2 14.1,9 12.7,4.7 C11.5,1 11.3,-0.1 10.4,-4.5"/>
<path class="Note" transform="matrix(2.3811,0,0,2.3811,626.933,1540.63)" d="M18.7,-13.6 C4.9,-13.6 0,-6.6 0,-0.1 C0,6.4 4.9,13.4 18.7,13.4 C32.5,13.4 37.3,6.4 37.3,-0.1 C37.3,-6.6 32.5,-13.6 18.7,-13.6 M10.4,-4.5 C10.3,-4.9 10.3,-5.3 10.3,-5.7 C10.3,-6.5 10.5,-7.3 10.9,-8 C11.6,-9 12.8,-9.7 14.3,-10 C15.6,-10.3 16.3,-10.5 18.9,-10.5 L19,-10.5 C23,-10.5 24.3,-6.8 25.4,-3 L25.7,-2 C26.5,0.6 26.9,2.8 26.9,4.5 C26.9,5.7 26.7,6.8 26.3,7.6 C25.7,8.7 24.7,9.4 23,9.8 C22.1,10 20.6,10.1 20.6,10.1 C20.1,10.1 19.7,10.2 19.3,10.2 C16.1,10.2 14.1,9 12.7,4.7 C11.5,1 11.3,-0.1 10.4,-4.5"/>
<path class="Note" transform="matrix(2.3811,0,0,2.3811,1461.64,1629.92)" d="M18.7,-13.6 C4.9,-13.6 0,-6.6 0,-0.1 C0,6.4 4.9,13.4 18.7,13.4 C32.5,13.4 37.3,6.4 37.3,-0.1 C37.3,-6.6 32.5,-13.6 18.7,-13.6 M10.4,-4.5 C10.3,-4.9 10.3,-5.3 10.3,-5.7 C10.3,-6.5 10.5,-7.3 10.9,-8 C11.6,-9 12.8,-9.7 14.3,-10 C15.6,-10.3 16.3,-10.5 18.9,-10.5 L19,-10.5 C23,-10.5 24.3,-6.8 25.4,-3 L25.7,-2 C26.5,0.6 26.9,2.8 26.9,4.5 C26.9,5.7 26.7,6.8 26.3,7.6 C25.7,8.7 24.7,9.4 23,9.8 C22.1,10 20.6,10.1 20.6,10.1 C20.1,10.1 19.7,10.2 19.3,10.2 C16.1,10.2 14.1,9 12.7,4.7 C11.5,1 11.3,-0.1 10.4,-4.5"/>
<path class="Note" transform="matrix(2.3811,0,0,2.3811,1461.64,1570.39)" d="M18.7,-13.6 C4.9,-13.6 0,-6.6 0,-0.1 C0,6.4 4.9,13.4 18.7,13.4 C32.5,13.4 37.3,6.4 37.3,-0.1 C37.3,-6.6 32.5,-13.6 18.7,-13.6 M10.4,-4.5 C10.3,-4.9 10.3,-5.3 10.3,-5.7 C10.3,-6.5 10.5,-7.3 10.9,-8 C11.6,-9 12.8,-9.7 14.3,-10 C15.6,-10.3 16.3,-10.5 18.9,-10.5 L19,-10.5 C23,-10.5 24.3,-6.8 25.4,-3 L25.7,-2 C26.5,0.6 26.9,2.8 26.9,4.5 C26.9,5.7 26.7,6.8 26.3,7.6 C25.7,8.7 24.7,9.4 23,9.8 C22.1,10 20.6,10.1 20.6,10.1 C20.1,10.1 19.7,10.2 19.3,10.2 C16.1,10.2 14.1,9 12.7,4.7 C11.5,1 11.3,-0.1 10.4,-4.5"/>
<path class="Note" transform="matrix(2.3811,0,0,2.3811,1461.64,1510.87)" d="M18.7,-13.6 C4.9,-13.6 0,-6.6 0,-0.1 C0,6.4 4.9,13.4 18.7,13.4 C32.5,13.4 37.3,6.4 37.3,-0.1 C37.3,-6.6 32.5,-13.6 18.7,-13.6 M10.4,-4.5 C10.3,-4.9 10.3,-5.3 10.3,-5.7 C10.3,-6.5 10.5,-7.3 10.9,-8 C11.6,-9 12.8,-9.7 14.3,-10 C15.6,-10.3 16.3,-10.5 18.9,-10.5 L19,-10.5 C23,-10.5 24.3,-6.8 25.4,-3 L25.7,-2 C26.5,0.6 26.9,2.8 26.9,4.5 C26.9,5.7 26.7,6.8 26.3,7.6 C25.7,8.7 24.7,9.4 23,9.8 C22.1,10 20.6,10.1 20.6,10.1 C20.1,10.1 19.7,10.2 19.3,10.2 C16.1,10.2 14.1,9 12.7,4.7 C11.5,1 11.3,-0.1 10.4,-4.5"/>
<path class="Note" transform="matrix(2.3811,0,0,2.3811,2352.28,1629.92)" d="M18.7,-13.6 C4.9,-13.6 0,-6.6 0,-0.1 C0,6.4 4.9,13.4 18.7,13.4 C32.5,13.4 37.3,6.4 37.3,-0.1 C37.3,-6.6 32.5,-13.6 18.7,-13.6 M10.4,-4.5 C10.3,-4.9 10.3,-5.3 10.3,-5.7 C10.3,-6.5 10.5,-7.3 10.9,-8 C11.6,-9 12.8,-9.7 14.3,-10 C15.6,-10.3 16.3,-10.5 18.9,-10.5 L19,-10.5 C23,-10.5 24.3,-6.8 25.4,-3 L25.7,-2 C26.5,0.6 26.9,2.8 26.9,4.5 C26.9,5.7 26.7,6.8 26.3,7.6 C25.7,8.7 24.7,9.4 23,9.8 C22.1,10 20.6,10.1 20.6,10.1 C20.1,10.1 19.7,10.2 19.3,10.2 C16.1,10.2 14.1,9 12.7,4.7 C11.5,1 11.3,-0.1 10.4,-4.5"/>
<path class="Note" transform="matrix(2.3811,0,0,2.3811,2352.28,1570.39)" d="M18.7,-13.6 C4.9,-13.6 0,-6.6 0,-0.1 C0,6.4 4.9,13.4 18.7,13.4 C32.5,13.4 37.3,6.4 37.3,-0.1 C37.3,-6.6 32.5,-13.6 18.7,-13.6 M10.4,-4.5 C10.3,-4.9 10.3,-5.3 10.3,-5.7 C10.3,-6.5 10.5,-7.3 10.9,-8 C11.6,-9 12.8,-9.7 14.3,-10 C15.6,-10.3 16.3,-10.5 18.9,-10.5 L19,-10.5 C23,-10.5 24.3,-6.8 25.4,-3 L25.7,-2 C26.5,0.6 26.9,2.8 26.9,4.5 C26.9,5.7 26.7,6.8 26.3,7.6 C25.7,8.7 24.7,9.4 23,9.8 C22.1,10 20.6,10.1 20.6,10.1 C20.1,10.1 19.7,10.2 19.3,10.2 C16.1,10.2 14.1,9 12.7,4.7 C11.5,1 11.3,-0.1 10.4,-4.5"/>
<path class="Note" transform="matrix(2.3811,0,0,2.3811,2434.54,1540.63)" d="M18.7,-13.6 C4.9,-13.6 0,-6.6 0,-0.1 C0,6.4 4.9,13.4 18.7,13.4 C32.5,13.4 37.3,6.4 37.3,-0.1 C37.3,-6.6 32.5,-13.6 18.7,-13.6 M10.4,-4.5 C10.3,-4.9 10.3,-5.3 10.3,-5.7 C10.3,-6.5 10.5,-7.3 10.9,-8 C11.6,-9 12.8,-9.7 14.3,-10 C15.6,-10.3 16.3,-10.5 18.9,-10.5 L19,-10.5 C23,-10.5 24.3,-6.8 25.4,-3 L25.7,-2 C26.5,0.6 26.9,2.8 26.9,4.5 C26.9,5.7 26.7,6.8 26.3,7.6 C25.7,8.7 24.7,9.4 23,9.8 C22.1,10 20.6,10.1 20.6,10.1 C20.1,10.1 19.7,10.2 19.3,10.2 C16.1,10.2 14.1,9 12.7,4.7 C11.5,1 11.3,-0.1 10.4,-4.5"/>
<path class="Note" transform="matrix(2.3811,0,0,2.3811,3301.28,1659.69)" d="M18.7,-13.6 C4.9,-13.6 0,-6.6 0,-0.1 C0,6.4 4.9,13.4 18.7,13.4 C32.5,13.4 37.3,6.4 37.3,-0.1 C37.3,-6.6 32.5,-13.6 18.7,-13.6 M10.4,-4.5 C10.3,-4.9 10.3,-5.3 10.3,-5.7 C10.3,-6.5 10.5,-7.3 10.9,-8 C11.6,-9 12.8,-9.7 14.3,-10 C15.6,-10.3 16.3,-10.5 18.9,-10.5 L19,-10.5 C23,-10.5 24.3,-6.8 25.4,-3 L25.7,-2 C26.5,0.6 26.9,2.8 26.9,4.5 C26.9,5.7 26.7,6.8 26.3,7.6 C25.7,8.7 24.7,9.4 23,9.8 C22.1,10 20.6,10.1 20.6,10.1 C20.1,10.1 19.7,10.2 19.3,10.2 C16.1,10.2 14.1,9 12.7,4.7 C11.5,1 11.3,-0.1 10.4,-4.5"/>
<path class="Note" transform="matrix(2.3811,0,0,2.3811,3301.28,1600.16)" d="M18.7,-13.6 C4.9,-13.6 0,-6.6 0,-0.1 C0,6.4 4.9,13.4 18.7,13.4 C32.5,13.4 37.3,6.4 37.3,-0.1 C37.3,-6.6 32.5,-13.6 18.7,-13.6 M10.4,-4.5 C10.3,-4.9 10.3,-5.3 10.3,-5.7 C10.3,-6.5 10.5,-7.3 10.9,-8 C11.6,-9 12.8,-9.7 14.3,-10 C15.6,-10.3 16.3,-10.5 18.9,-10.5 L19,-10.5 C23,-10.5 24.3,-6.8 25.4,-3 L25.7,-2 C26.5,0.6 26.9,2.8 26.9,4.5 C26.9,5.7 26.7,6.8 26.3,7.6 C25.7,8.7 24.7,9.4 23,9.8 C22.1,10 20.6,10.1 20.6,10.1 C20.1,10.1 19.7,10.2 19.3,10.2 C16.1,10.2 14.1,9 12.7,4.7 C11.5,1 11.3,-0.1 10.4,-4.5"/>
<path class="Note" transform="matrix(2.3811,0,0,2.3811,3301.28,1540.63)" d="M18.7,-13.6 C4.9,-13.6 0,-6.6 0,-0.1 C0,6.4 4.9,13.4 18.7,13.4 C32.5,13.4 37.3,6.4 37.3,-0.1 C37.3,-6.6 32.5,-13.6 18.7,-13.6 M10.4,-4.5 C10.3,-4.9 10.3,-5.3 10.3,-5.7 C10.3,-6.5 10.5,-7.3 10.9,-8 C11.6,-9 12.8,-9.7 14.3,-10 C15.6,-10.3 16.3,-10.5 18.9,-10.5 L19,-10.5 C23,-10.5 24.3,-6.8 25.4,-3 L25.7,-2 C26.5,0.6 26.9,2.8 26.9,4.5 C26.9,5.7 26.7,6.8 26.3,7.6 C25.7,8.7 24.7,9.4 23,9.8 C22.1,10 20.6,10.1 20.6,10.1 C20.1,10.1 19.7,10.2 19.3,10.2 C16.1,10.2 14.1,9 12.7,4.7 C11.5,1 11.3,-0.1 10.4,-4.5"/>
<path class="Note" d="M705.752,851.839 C710.323,851.839 712.608,854.705 712.608,860.438 C712.608,864.467 710.09,870.471 705.055,878.451 C701.026,884.881 699.012,891.157 699.012,897.277 C699.012,900.763 704.086,902.507 714.235,902.507 C722.602,902.507 734.262,897.974 749.215,888.91 C734.185,903.398 721.13,910.641 710.052,910.641 C700.058,910.641 693.085,909.131 689.134,906.109 C688.127,905.334 687.274,904.405 686.577,903.32 C682.703,908.046 676.234,910.409 667.17,910.409 C658.493,910.409 651.83,908.627 647.182,905.063 C644.083,902.662 642.533,898.827 642.533,893.558 C642.533,885.191 647.491,876.049 657.408,866.133 C668.022,855.519 680.302,850.212 694.247,850.212 C697.733,850.212 700.29,851.49 701.917,854.047 C703.234,852.575 704.512,851.839 705.752,851.839 M684.95,898.091 C684.873,897.471 684.834,896.851 684.834,896.231 C684.834,895.921 688.785,885.114 696.687,863.808 C697.462,861.717 698.237,859.935 699.012,858.463 C695.99,857.843 693.007,857.533 690.063,857.533 C684.64,857.533 677.435,862.143 668.448,871.362 C660.391,879.574 656.362,886.663 656.362,892.629 C656.362,899.214 659.5,902.507 665.775,902.507 C673.368,902.507 679.759,901.035 684.95,898.091"/>
<path class="Note" d="M712.841,581.059 C723.3,574.474 730.892,569.09 735.618,564.906 C744.295,557.236 748.634,549.489 748.634,541.664 C748.634,532.522 742.513,527.951 730.272,527.951 C717.412,527.951 704.009,537.209 690.063,555.725 C680.612,568.276 673.91,580.13 669.959,591.286 C674.84,588.11 679.992,586.521 685.415,586.521 C690.528,586.521 694.596,588.807 697.617,593.378 C699.709,596.554 700.755,601.977 700.755,609.647 C700.755,616.542 697.114,624.638 689.831,633.935 C685.338,639.668 680.34,642.535 674.84,642.535 C667.867,642.535 662.986,641.14 660.197,638.351 C656.246,634.4 654.27,626.575 654.27,614.877 C654.27,595.198 662.212,575.83 678.094,556.771 C695.99,535.311 713.151,524.581 729.575,524.581 C742.281,524.581 751.771,527.564 758.047,533.529 C761.688,537.015 763.509,542.051 763.509,548.637 C763.509,555.997 756.265,564.209 741.777,573.273 C734.185,578.077 724.539,580.672 712.841,581.059 M668.448,596.167 C666.511,602.675 665.543,608.911 665.543,614.877 C665.543,629.055 667.79,636.143 672.283,636.143 C676.544,636.143 679.876,633.122 682.277,627.079 C685.066,620.261 686.461,612.707 686.461,604.418 C686.461,597.058 684.02,593.378 679.14,593.378 C675.731,593.378 672.167,594.307 668.448,596.167"/>
<path class="Note" d="M705.752,494.673 C710.323,494.673 712.608,497.54 712.608,503.273 C712.608,507.302 710.09,513.306 705.055,521.286 C701.026,527.716 699.012,533.991 699.012,540.112 C699.012,543.598 704.086,545.341 714.235,545.341 C722.602,545.341 734.262,540.809 749.215,531.745 C734.185,546.232 721.13,553.476 710.052,553.476 C700.058,553.476 693.085,551.965 689.134,548.944 C688.127,548.169 687.274,547.239 686.577,546.155 C682.703,550.881 676.234,553.244 667.17,553.244 C658.493,553.244 651.83,551.462 647.182,547.898 C644.083,545.496 642.533,541.661 642.533,536.393 C642.533,528.026 647.491,518.884 657.408,508.967 C668.022,498.353 680.302,493.046 694.247,493.046 C697.733,493.046 700.29,494.325 701.917,496.881 C703.234,495.409 704.512,494.673 705.752,494.673 M684.95,540.925 C684.873,540.305 684.834,539.686 684.834,539.066 C684.834,538.756 688.785,527.948 696.687,506.643 C697.462,504.551 698.237,502.769 699.012,501.297 C695.99,500.678 693.007,500.368 690.063,500.368 C684.64,500.368 677.435,504.977 668.448,514.197 C660.391,522.409 656.362,529.498 656.362,535.463 C656.362,542.049 659.5,545.341 665.775,545.341 C673.368,545.341 679.759,543.869 684.95,540.925"/>
<path class="Note" d="M1540.46,851.839 C1545.03,851.839 1547.31,854.705 1547.31,860.438 C1547.31,864.467 1544.79,870.471 1539.76,878.451 C1535.73,884.881 1533.72,891.157 1533.72,897.277 C1533.72,900.763 1538.79,902.507 1548.94,902.507 C1557.31,902.507 1568.97,897.974 1583.92,888.91 C1568.89,903.398 1555.83,910.641 1544.76,910.641 C1534.76,910.641 1527.79,909.131 1523.84,906.109 C1522.83,905.334 1521.98,904.405 1521.28,903.32 C1517.41,908.046 1510.94,910.409 1501.87,910.409 C1493.2,910.409 1486.53,908.627 1481.89,905.063 C1478.79,902.662 1477.24,898.827 1477.24,893.558 C1477.24,885.191 1482.2,876.049 1492.11,866.133 C1502.73,855.519 1515.01,850.212 1528.95,850.212 C1532.44,850.212 1534.99,851.49 1536.62,854.047 C1537.94,852.575 1539.22,851.839 1540.46,851.839 M1519.65,898.091 C1519.58,897.471 1519.54,896.851 1519.54,896.231 C1519.54,895.921 1523.49,885.114 1531.39,863.808 C1532.17,861.717 1532.94,859.935 1533.72,858.463 C1530.69,857.843 1527.71,857.533 1524.77,857.533 C1519.34,857.533 1512.14,862.143 1503.15,871.362 C1495.1,879.574 1491.07,886.663 1491.07,892.629 C1491.07,899.214 1494.2,902.507 1500.48,902.507 C1508.07,902.507 1514.46,901.035 1519.65,898.091"/>
<path class="Note" d="M1540.46,583.965 C1545.03,583.965 1547.31,586.831 1547.31,592.564 C1547.31,596.593 1544.79,602.597 1539.76,610.577 C1535.73,617.007 1533.72,623.283 1533.72,629.403 C1533.72,632.889 1538.79,634.633 1548.94,634.633 C1557.31,634.633 1568.97,630.1 1583.92,621.036 C1568.89,635.524 1555.83,642.767 1544.76,642.767 C1534.76,642.767 1527.79,641.257 1523.84,638.235 C1522.83,637.46 1521.98,636.531 1521.28,635.446 C1517.41,640.172 1510.94,642.535 1501.87,642.535 C1493.2,642.535 1486.53,640.753 1481.89,637.189 C1478.79,634.788 1477.24,630.953 1477.24,625.684 C1477.24,617.317 1482.2,608.175 1492.11,598.259 C1502.73,587.645 1515.01,582.338 1528.95,582.338 C1532.44,582.338 1534.99,583.616 1536.62,586.173 C1537.94,584.701 1539.22,583.965 1540.46,583.965 M1519.65,630.217 C1519.58,629.597 1519.54,628.977 1519.54,628.357 C1519.54,628.047 1523.49,617.24 1531.39,595.934 C1532.17,593.843 1532.94,592.061 1533.72,590.589 C1530.69,589.969 1527.71,589.659 1524.77,589.659 C1519.34,589.659 1512.14,594.269 1503.15,603.488 C1495.1,611.7 1491.07,618.789 1491.07,624.755 C1491.07,631.34 1494.2,634.633 1500.48,634.633 C1508.07,634.633 1514.46,633.161 1519.65,630.217"/>
<path class="Note" d="M1540.46,762.547 C1545.03,762.547 1547.31,765.414 1547.31,771.147 C1547.31,775.176 1544.79,781.18 1539.76,789.16 C1535.73,795.59 1533.72,801.865 1533.72,807.986 C1533.72,811.472 1538.79,813.215 1548.94,813.215 C1557.31,813.215 1568.97,808.683 1583.92,799.619 C1568.89,814.106 1555.83,821.35 1544.76,821.35 C1534.76,821.35 1527.79,819.839 1523.84,816.818 C1522.83,816.043 1521.98,815.113 1521.28,814.029 C1517.41,818.755 1510.94,821.118 1501.87,821.118 C1493.2,821.118 1486.53,819.336 1481.89,815.772 C1478.79,813.37 1477.24,809.535 1477.24,804.267 C1477.24,795.9 1482.2,786.758 1492.11,776.841 C1502.73,766.227 1515.01,760.92 1528.95,760.92 C1532.44,760.92 1534.99,762.199 1536.62,764.755 C1537.94,763.283 1539.22,762.547 1540.46,762.547 M1519.65,808.799 C1519.58,808.179 1519.54,807.56 1519.54,806.94 C1519.54,806.63 1523.49,795.822 1531.39,774.517 C1532.17,772.425 1532.94,770.643 1533.72,769.171 C1530.69,768.552 1527.71,768.242 1524.77,768.242 C1519.34,768.242 1512.14,772.851 1503.15,782.071 C1495.1,790.283 1491.07,797.372 1491.07,803.337 C1491.07,809.923 1494.2,813.215 1500.48,813.215 C1508.07,813.215 1514.46,811.743 1519.65,808.799"/>
<path class="Note" d="M1547.54,491.768 C1558,485.183 1565.6,479.798 1570.32,475.615 C1579,467.945 1583.34,460.197 1583.34,452.373 C1583.34,443.231 1577.22,438.66 1564.98,438.66 C1552.12,438.66 1538.71,447.918 1524.77,466.434 C1515.32,478.985 1508.61,490.838 1504.66,501.995 C1509.54,498.818 1514.7,497.23 1520.12,497.23 C1525.23,497.23 1529.3,499.515 1532.32,504.086 C1534.41,507.263 1535.46,512.686 1535.46,520.356 C1535.46,527.251 1531.82,535.347 1524.54,544.644 C1520.04,550.377 1515.04,553.244 1509.54,553.244 C1502.57,553.244 1497.69,551.849 1494.9,549.06 C1490.95,545.109 1488.97,537.284 1488.97,525.585 C1488.97,505.907 1496.92,486.539 1512.8,467.48 C1530.69,446.02 1547.85,435.29 1564.28,435.29 C1576.98,435.29 1586.48,438.272 1592.75,444.238 C1596.39,447.724 1598.21,452.76 1598.21,459.345 C1598.21,466.705 1590.97,474.917 1576.48,483.982 C1568.89,488.785 1559.24,491.381 1547.54,491.768 M1503.15,506.875 C1501.22,513.383 1500.25,519.62 1500.25,525.585 C1500.25,539.763 1502.49,546.852 1506.99,546.852 C1511.25,546.852 1514.58,543.831 1516.98,537.788 C1519.77,530.97 1521.16,523.416 1521.16,515.126 C1521.16,507.766 1518.72,504.086 1513.84,504.086 C1510.43,504.086 1506.87,505.016 1503.15,506.875"/>
<path class="Note" d="M2466.89,973.437 C2460.54,983.431 2450.5,991.721 2436.79,998.306 C2424.86,1004.04 2413.7,1006.91 2403.32,1006.91 C2395.03,1006.91 2388.14,1005.24 2382.64,1001.91 C2376.67,998.267 2373.69,993.929 2373.69,988.893 C2373.69,977.504 2376.67,967.704 2382.64,959.491 C2390.77,948.335 2398.98,942.757 2407.27,942.757 C2413.16,942.757 2417.35,943.919 2419.82,946.243 C2423.23,949.265 2424.94,953.41 2424.94,958.678 C2424.94,966.115 2419.4,972.584 2408.32,978.085 C2397.55,983.431 2390.07,986.917 2385.89,988.544 C2386.82,990.481 2388.02,992.224 2389.49,993.774 C2393.14,997.647 2398.09,999.584 2404.37,999.584 C2412.27,999.584 2422.89,996.679 2436.21,990.868 C2448.99,985.213 2459.22,979.402 2466.89,973.437 M2384.26,983.198 C2390.07,980.254 2395.38,976.807 2400.19,972.856 C2407.31,967.045 2410.88,960.77 2410.88,954.029 C2410.88,950.233 2409.13,948.335 2405.65,948.335 C2402.7,948.335 2398.67,951.705 2393.56,958.445 C2387.13,966.813 2383.92,973.63 2383.92,978.899 C2383.92,980.371 2384.03,981.804 2384.26,983.198"/>
<path class="Note" d="M2431.1,583.965 C2435.67,583.965 2437.95,586.831 2437.95,592.564 C2437.95,596.593 2435.44,602.597 2430.4,610.577 C2426.37,617.007 2424.36,623.283 2424.36,629.403 C2424.36,632.889 2429.43,634.633 2439.58,634.633 C2447.95,634.633 2459.61,630.1 2474.56,621.036 C2459.53,635.524 2446.48,642.767 2435.4,642.767 C2425.4,642.767 2418.43,641.257 2414.48,638.235 C2413.47,637.46 2412.62,636.531 2411.92,635.446 C2408.05,640.172 2401.58,642.535 2392.52,642.535 C2383.84,642.535 2377.18,640.753 2372.53,637.189 C2369.43,634.788 2367.88,630.953 2367.88,625.684 C2367.88,617.317 2372.84,608.175 2382.75,598.259 C2393.37,587.645 2405.65,582.338 2419.59,582.338 C2423.08,582.338 2425.64,583.616 2427.26,586.173 C2428.58,584.701 2429.86,583.965 2431.1,583.965 M2410.3,630.217 C2410.22,629.597 2410.18,628.977 2410.18,628.357 C2410.18,628.047 2414.13,617.24 2422.03,595.934 C2422.81,593.843 2423.58,592.061 2424.36,590.589 C2421.34,589.969 2418.35,589.659 2415.41,589.659 C2409.99,589.659 2402.78,594.269 2393.79,603.488 C2385.74,611.7 2381.71,618.789 2381.71,624.755 C2381.71,631.34 2384.85,634.633 2391.12,634.633 C2398.71,634.633 2405.1,633.161 2410.3,630.217"/>
<path class="Note" d="M2431.1,762.547 C2435.67,762.547 2437.95,765.414 2437.95,771.147 C2437.95,775.176 2435.44,781.18 2430.4,789.16 C2426.37,795.59 2424.36,801.865 2424.36,807.986 C2424.36,811.472 2429.43,813.215 2439.58,813.215 C2447.95,813.215 2459.61,808.683 2474.56,799.619 C2459.53,814.106 2446.48,821.35 2435.4,821.35 C2425.4,821.35 2418.43,819.839 2414.48,816.818 C2413.47,816.043 2412.62,815.113 2411.92,814.029 C2408.05,818.755 2401.58,821.118 2392.52,821.118 C2383.84,821.118 2377.18,819.336 2372.53,815.772 C2369.43,813.37 2367.88,809.535 2367.88,804.267 C2367.88,795.9 2372.84,786.758 2382.75,776.841 C2393.37,766.227 2405.65,760.92 2419.59,760.92 C2423.08,760.92 2425.64,762.199 2427.26,764.755 C2428.58,763.283 2429.86,762.547 2431.1,762.547 M2410.3,808.799 C2410.22,808.179 2410.18,807.56 2410.18,806.94 C2410.18,806.63 2414.13,795.822 2422.03,774.517 C2422.81,772.425 2423.58,770.643 2424.36,769.171 C2421.34,768.552 2418.35,768.242 2415.41,768.242 C2409.99,768.242 2402.78,772.851 2393.79,782.071 C2385.74,790.283 2381.71,797.372 2381.71,803.337 C2381.71,809.923 2384.85,813.215 2391.12,813.215 C2398.71,813.215 2405.1,811.743 2410.3,808.799"/>
<path class="Note" d="M2431.1,494.673 C2435.67,494.673 2437.95,497.54 2437.95,503.273 C2437.95,507.302 2435.44,513.306 2430.4,521.286 C2426.37,527.716 2424.36,533.991 2424.36,540.112 C2424.36,543.598 2429.43,545.341 2439.58,545.341 C2447.95,545.341 2459.61,540.809 2474.56,531.745 C2459.53,546.232 2446.48,553.476 2435.4,553.476 C2425.4,553.476 2418.43,551.965 2414.48,548.944 C2413.47,548.169 2412.62,547.239 2411.92,546.155 C2408.05,550.881 2401.58,553.244 2392.52,553.244 C2383.84,553.244 2377.18,551.462 2372.53,547.898 C2369.43,545.496 2367.88,541.661 2367.88,536.393 C2367.88,528.026 2372.84,518.884 2382.75,508.967 C2393.37,498.353 2405.65,493.046 2419.59,493.046 C2423.08,493.046 2425.64,494.325 2427.26,496.881 C2428.58,495.409 2429.86,494.673 2431.1,494.673 M2410.3,540.925 C2410.22,540.305 2410.18,539.686 2410.18,539.066 C2410.18,538.756 2414.13,527.948 2422.03,506.643 C2422.81,504.551 2423.58,502.769 2424.36,501.297 C2421.34,500.678 2418.35,500.368 2415.41,500.368 C2409.99,500.368 2402.78,504.977 2393.79,514.197 C2385.74,522.409 2381.71,529.498 2381.71,535.463 C2381.71,542.049 2384.85,545.341 2391.12,545.341 C2398.71,545.341 2405.1,543.869 2410.3,540.925"/>
<path class="Note" d="M3286.83,1091.38 C3286.44,1092.08 3285.86,1092.43 3285.09,1092.43 C3284.39,1092.43 3283.5,1092.12 3282.41,1091.5 C3280.79,1090.57 3279.97,1089.64 3279.97,1088.71 C3279.97,1088.4 3280.09,1088.01 3280.32,1087.55 C3298.06,1061.98 3309.14,1040.44 3313.56,1022.93 C3313.87,1022.39 3314.41,1022.12 3315.19,1022.12 C3316.19,1022.12 3317.63,1022.66 3319.49,1023.75 C3322.04,1025.22 3323.32,1026.53 3323.32,1027.7 C3323.32,1028.01 3323.24,1028.28 3323.09,1028.51 C3317.2,1045.24 3305.11,1066.2 3286.83,1091.38 M3307.75,1098.35 C3307.36,1099.05 3306.78,1099.4 3306,1099.4 C3305.31,1099.4 3304.42,1099.09 3303.33,1098.47 C3301.71,1097.54 3300.89,1096.61 3300.89,1095.68 C3300.89,1095.37 3301.01,1094.98 3301.24,1094.52 C3318.98,1068.95 3330.06,1047.41 3334.48,1029.91 C3334.79,1029.36 3335.33,1029.09 3336.1,1029.09 C3337.11,1029.09 3338.54,1029.63 3340.4,1030.72 C3342.96,1032.19 3344.24,1033.51 3344.24,1034.67 C3344.24,1034.98 3344.16,1035.25 3344.01,1035.48 C3338.12,1052.22 3326.03,1073.17 3307.75,1098.35 M3328.67,1105.33 C3328.28,1106.02 3327.7,1106.37 3326.92,1106.37 C3326.23,1106.37 3325.33,1106.06 3324.25,1105.44 C3322.62,1104.51 3321.81,1103.58 3321.81,1102.65 C3321.81,1102.34 3321.93,1101.96 3322.16,1101.49 C3339.9,1075.92 3350.98,1054.39 3355.39,1036.88 C3355.7,1036.34 3356.25,1036.06 3357.02,1036.06 C3358.03,1036.06 3359.46,1036.61 3361.32,1037.69 C3363.88,1039.16 3365.16,1040.48 3365.16,1041.64 C3365.16,1041.95 3365.08,1042.22 3364.92,1042.46 C3359.04,1059.19 3346.95,1080.15 3328.67,1105.33 M3412.21,1059.89 C3416.78,1059.89 3419.06,1062.75 3419.06,1068.49 C3419.06,1072.52 3416.55,1078.52 3411.51,1086.5 C3407.48,1092.93 3405.47,1099.21 3405.47,1105.33 C3405.47,1108.81 3410.54,1110.56 3420.69,1110.56 C3429.06,1110.56 3440.72,1106.02 3455.67,1096.96 C3440.64,1111.45 3427.59,1118.69 3416.51,1118.69 C3406.51,1118.69 3399.54,1117.18 3395.59,1114.16 C3394.58,1113.38 3393.73,1112.45 3393.03,1111.37 C3389.16,1116.09 3382.69,1118.46 3373.62,1118.46 C3364.95,1118.46 3358.29,1116.68 3353.64,1113.11 C3350.54,1110.71 3348.99,1106.88 3348.99,1101.61 C3348.99,1093.24 3353.95,1084.1 3363.86,1074.18 C3374.48,1063.57 3386.76,1058.26 3400.7,1058.26 C3404.19,1058.26 3406.75,1059.54 3408.37,1062.1 C3409.69,1060.62 3410.97,1059.89 3412.21,1059.89 M3391.41,1106.14 C3391.33,1105.52 3391.29,1104.9 3391.29,1104.28 C3391.29,1103.97 3395.24,1093.16 3403.14,1071.86 C3403.92,1069.77 3404.69,1067.98 3405.47,1066.51 C3402.45,1065.89 3399.46,1065.58 3396.52,1065.58 C3391.1,1065.58 3383.89,1070.19 3374.9,1079.41 C3366.85,1087.62 3362.82,1094.71 3362.82,1100.68 C3362.82,1107.26 3365.96,1110.56 3372.23,1110.56 C3379.82,1110.56 3386.21,1109.08 3391.41,1106.14"/>
<path class="Note" d="M3380.1,851.839 C3384.67,851.839 3386.96,854.705 3386.96,860.438 C3386.96,864.467 3384.44,870.471 3379.4,878.451 C3375.38,884.881 3373.36,891.157 3373.36,897.277 C3373.36,900.763 3378.44,902.507 3388.59,902.507 C3396.95,902.507 3408.61,897.974 3423.56,888.91 C3408.53,903.398 3395.48,910.641 3384.4,910.641 C3374.41,910.641 3367.43,909.131 3363.48,906.109 C3362.48,905.334 3361.62,904.405 3360.93,903.32 C3357.05,908.046 3350.58,910.409 3341.52,910.409 C3332.84,910.409 3326.18,908.627 3321.53,905.063 C3318.43,902.662 3316.88,898.827 3316.88,893.558 C3316.88,885.191 3321.84,876.049 3331.76,866.133 C3342.37,855.519 3354.65,850.212 3368.6,850.212 C3372.08,850.212 3374.64,851.49 3376.27,854.047 C3377.58,852.575 3378.86,851.839 3380.1,851.839 M3359.3,898.091 C3359.22,897.471 3359.18,896.851 3359.18,896.231 C3359.18,895.921 3363.14,885.114 3371.04,863.808 C3371.81,861.717 3372.59,859.935 3373.36,858.463 C3370.34,857.843 3367.36,857.533 3364.41,857.533 C3358.99,857.533 3351.79,862.143 3342.8,871.362 C3334.74,879.574 3330.71,886.663 3330.71,892.629 C3330.71,899.214 3333.85,902.507 3340.13,902.507 C3347.72,902.507 3354.11,901.035 3359.3,898.091"/>
<path class="Note" d="M3387.19,581.059 C3397.65,574.474 3405.24,569.09 3409.97,564.906 C3418.65,557.236 3422.98,549.489 3422.98,541.664 C3422.98,532.522 3416.86,527.951 3404.62,527.951 C3391.76,527.951 3378.36,537.209 3364.41,555.725 C3354.96,568.276 3348.26,580.13 3344.31,591.286 C3349.19,588.11 3354.34,586.521 3359.76,586.521 C3364.88,586.521 3368.95,588.807 3371.97,593.378 C3374.06,596.554 3375.1,601.977 3375.1,609.647 C3375.1,616.542 3371.46,624.638 3364.18,633.935 C3359.69,639.668 3354.69,642.535 3349.19,642.535 C3342.22,642.535 3337.34,641.14 3334.55,638.351 C3330.6,634.4 3328.62,626.575 3328.62,614.877 C3328.62,595.198 3336.56,575.83 3352.44,556.771 C3370.34,535.311 3387.5,524.581 3403.93,524.581 C3416.63,524.581 3426.12,527.564 3432.4,533.529 C3436.04,537.015 3437.86,542.051 3437.86,548.637 C3437.86,555.997 3430.61,564.209 3416.13,573.273 C3408.53,578.077 3398.89,580.672 3387.19,581.059 M3342.8,596.167 C3340.86,602.675 3339.89,608.911 3339.89,614.877 C3339.89,629.055 3342.14,636.143 3346.63,636.143 C3350.89,636.143 3354.23,633.122 3356.63,627.079 C3359.42,620.261 3360.81,612.707 3360.81,604.418 C3360.81,597.058 3358.37,593.378 3353.49,593.378 C3350.08,593.378 3346.52,594.307 3342.8,596.167"/>
<path class="Note" d="M3380.1,494.673 C3384.67,494.673 3386.96,497.54 3386.96,503.273 C3386.96,507.302 3384.44,513.306 3379.4,521.286 C3375.38,527.716 3373.36,533.991 3373.36,540.112 C3373.36,543.598 3378.44,545.341 3388.59,545.341 C3396.95,545.341 3408.61,540.809 3423.56,531.745 C3408.53,546.232 3395.48,553.476 3384.4,553.476 C3374.41,553.476 3367.43,551.965 3363.48,548.944 C3362.48,548.169 3361.62,547.239 3360.93,546.155 C3357.05,550.881 3350.58,553.244 3341.52,553.244 C3332.84,553.244 3326.18,551.462 3321.53,547.898 C3318.43,545.496 3316.88,541.661 3316.88,536.393 C3316.88,528.026 3321.84,518.884 3331.76,508.967 C3342.37,498.353 3354.65,493.046 3368.6,493.046 C3372.08,493.046 3374.64,494.325 3376.27,496.881 C3377.58,495.409 3378.86,494.673 3380.1,494.673 M3359.3,540.925 C3359.22,540.305 3359.18,539.686 3359.18,539.066 C3359.18,538.756 3363.14,527.948 3371.04,506.643 C3371.81,504.551 3372.59,502.769 3373.36,501.297 C3370.34,500.678 3367.36,500.368 3364.41,500.368 C3358.99,500.368 3351.79,504.977 3342.8,514.197 C3334.74,522.409 3330.71,529.498 3330.71,535.463 C3330.71,542.049 3333.85,545.341 3340.13,545.341 C3347.72,545.341 3354.11,543.869 3359.3,540.925"/>
<path class="Clef" transform="matrix(2.3811,0,0,2.3811,212.156,2158.79)" d="M25.4,-25.1 C17.8,-25.1 11.7,-20.7 11.6,-20.7 C5.8,-16.4 3.5,-11.3 2.6,-7.8 C2.1,-6 1.9,-4.2 1.9,-2.5 C1.9,-0.1 2.3,2.1 3.2,4 C4.4,6.7 6.7,8.6 9.7,9.6 C10.9,10 12.2,10.2 13.5,10.2 C15.7,10.2 18,9.6 19.9,8.5 C23,6.8 24.9,3.2 24.9,-0.7 C24.9,-4.2 23.1,-7.4 20.1,-9.3 C18,-10.7 16,-11.1 14.3,-11.1 C13.1,-11.1 12,-10.9 11.1,-10.6 C10.1,-10.2 8.4,-9.2 7.6,-8.5 C7.9,-10.4 9.1,-13.3 10.2,-14.9 C11.3,-16.5 13.5,-18.5 15.2,-19.4 C17.7,-20.8 20.9,-21.4 24.4,-21.4 C34.6,-21.4 39.6,-13.2 39.6,3.6 C39.6,12.9 36.1,21.8 33.1,27.7 C29.8,34.3 25.4,40.6 21.5,44.1 C11.1,53.6 1.3,58.1 1.2,58.1 C1.2,58.1 -0.3,59 0.1,60.5 C0.4,61.5 1.3,61.7 1.9,61.7 C2,61.7 2.3,61.6 2.4,61.6 C2.5,61.6 13.9,56.9 23,49.8 C28.1,46.1 32.7,42.1 36.7,37.8 C40.3,33.9 43.4,29.7 45.9,25.5 C50.3,18 52.8,10.2 52.8,3.5 C52.8,-4.8 50.6,-11.7 46.5,-16.6 C41.8,-22.2 34.7,-25.1 25.4,-25.1 M56.8,-12.4 C56.8,-9.6 59,-7.4 61.6,-7.4 C64.2,-7.4 66.4,-9.6 66.4,-12.4 C66.4,-15.2 64.2,-17.5 61.6,-17.5 C59,-17.5 56.8,-15.2 56.8,-12.4 M56.8,12.3 C56.8,15.1 59,17.4 61.6,17.4 C64.2,17.4 66.4,15.1 66.4,12.3 C66.4,9.5 64.2,7.2 61.6,7.2 C59,7.2 56.8,9.5 56.8,12.3"/>
<path class="Clef" transform="matrix(2.3811,0,0,2.3811,212.156,1570.39)" d="M63.37,-5.89004 C62.14,-11.32 59.5,-15.14 58.72,-16.1801 C55.5301,-20.45 51.52,-23.3 46.8301,-24.65 C43.72,-25.54 40.72,-25.65 38.3,-25.47 C37.2601,-31.4801 36.2601,-37.3601 35.35,-42.8101 C40.79,-48.97 44.42,-54.77 46.69,-59.07 C50.1601,-65.65 51.3101,-70.2301 51.3601,-70.4301 C53.0801,-75.64 53.44,-83.34 52.34,-91.55 C51.3301,-99.1 49.24,-105.81 46.89,-109.06 C45.8601,-110.49 44.8101,-111.22 43.77,-111.22 C42.55,-111.22 40.04,-109.98 37.15,-107.21 C34.85,-105.01 31.5801,-101.12 29.02,-95.1101 C26.02,-88.05 25.8101,-78.5601 26.1601,-71.84 C26.54,-64.57 27.65,-58.8801 27.6601,-58.8301 C27.6801,-58.74 27.94,-57.24 28.39,-54.67 C28.1601,-54.44 27.92,-54.22 27.67,-53.9801 C26.6301,-52.9801 25.44,-51.84 24.0601,-50.4601 C23.2,-49.6 22.25,-48.69 21.25,-47.72 C12.79,-39.57 0,-27.25 0,-8.1 C0,-3.4 0.9,1.01992 2.68008,5.02998 C4.27002,8.62998 6.57002,11.91 9.5,14.78 C17.2301,22.33 27.82,25.5399 34.8801,25.38 C37.8301,25.31 40.4601,25.0699 42.85,24.6199 C44.6801,34.2199 45.82,41.25 45.8601,46.5899 C45.9,53.1 44.25,57.0699 40.35,59.8399 C37.92,61.5699 35.1101,62.5199 32.0101,62.6699 C29.42,62.7899 27.1601,62.3199 25.7301,61.91 L25.72,61.91 C25.72,61.91 25.4301,61.83 25.42,61.63 C25.4101,61.45 25.7601,61.4 25.77,61.4 L25.79,61.4 C27.7101,60.96 31.2801,59.73 33.64,56.43 C35.44,53.91 36.3101,49.2899 34.47,45.35 C33.3601,42.96 30.85,40.01 25.2301,39.56 C22.74,39.36 20.47,39.8699 18.47,41.0699 C16.6601,42.15 15.1601,43.7899 14.1101,45.7899 C11.65,50.4899 12.1101,56.2199 15.24,60.06 C18.2,63.68 22.82,65.9899 28.25,66.5699 C29.1,66.66 29.95,66.7 30.8,66.7 C31.5101,66.7 32.22,66.6699 32.92,66.61 C31.72,66.9399 30.64,67.4899 29.77,68.25 C28.2801,69.5399 27.44,71.38 27.44,73.41 C27.44,75.28 28.0601,76.65 29.55,78.0399 C28.4101,78.5 27.55,78.98 26.79,79.56 C25.25,80.73 24.34,82.46 24.34,84.1899 C24.34,87.45 27.3,89.63 31.72,89.63 C37.1301,89.63 40.9101,86.63 40.9101,82.35 C40.9101,80.1199 39.9101,78.18 38.0801,76.83 C41.0101,75.6199 42.37,73.9399 42.37,71.56 C42.39,70.05 41.69,68.61 40.49,67.6899 C39.2801,66.7399 37.62,66.2399 35.69,66.2399 L35.5101,66.2399 C38.2801,65.7 40.92,64.7 43.2101,63.28 C46.87,60.71 48.99,56.73 49.67,51.1 C50.2301,46.46 49.84,40.55 48.44,32.48 C48.0801,30.3899 47.54,27.36 46.8801,23.6 C52.6301,21.68 56.79,18.11 60.5601,12.26 C63.85,6.51992 64.8,0.419922 63.37,-5.89004 M32.39,87.5399 C30.19,87.5399 28.7301,86.1199 28.7301,84.01 C28.7301,82.11 29.65,80.5 31.32,79.4699 C31.6801,79.66 31.77,79.71 32.1101,79.88 C33.3,80.48 33.3,80.48 33.55,80.63 L33.5601,80.6399 C35.47,81.73 36.25,82.76 36.25,84.18 C36.24,86.0899 34.59,87.5399 32.39,87.5399 M38.3101,71.63 C38.3101,73.2699 37.7301,74.3399 36.1801,75.53 C34.74,74.78 34.35,74.56 33.9801,74.3399 L33.8801,74.28 C32.3301,73.3399 31.85,72.66 31.85,71.4 C31.85,69.6 33.2301,68.3399 35.19,68.3399 C37.17,68.35 38.3101,69.55 38.3101,71.63 M33.15,-83.8101 C34.9301,-89.55 37.67,-92.8 39.6601,-94.5301 C41.4101,-96.05 43.0601,-96.7601 43.9801,-96.7601 C44.12,-96.7601 44.24,-96.74 44.34,-96.7101 C44.8,-96.57 45.3301,-96 45.8,-95.1301 C48.1101,-90.84 47.37,-84.1301 46.0301,-79.69 C44.4,-74.29 41.4801,-68.6801 32.69,-59.0601 C32.52,-60.17 32.3601,-61.22 32.2101,-62.2 C30.95,-70.49 31.27,-77.7601 33.15,-83.8101 M29.15,20.31 C24.5101,19.0899 20.0801,16.5899 16.32,13.0899 C15.0101,11.86 13.14,9.68994 11.67,6.3 C10.3101,3.13994 9.65,-0.290039 9.7,-3.88008 C9.77002,-8.57002 11.0801,-13.39 13.59,-18.1801 C16.5101,-23.7601 21.07,-29.29 27.1301,-34.62 C28.5801,-35.9 29.95,-37.1801 31.24,-38.4601 C32,-34.2 32.8301,-29.5101 33.7101,-24.6301 C29.8601,-23.3601 25.1101,-20.2101 22,-14.5601 C18.47,-7.99004 18.6101,-2.47002 19.34,1.00996 C20.2801,5.46992 22.8101,9.22998 26.27,11.3199 C27.2,11.88 31.3301,14.01 33.17,13.43 C33.54,13.31 33.8101,13.0899 33.95,12.76 C34.4601,11.5899 33.44,10.95 31.8801,9.98994 C31.2801,9.61992 30.6101,9.2 29.8801,8.66992 C26.5601,6.17998 25.1101,1.72998 26.1801,-2.65 C26.7601,-5.05 28.04,-7.21006 29.8801,-8.91006 C31.55,-10.4601 33.59,-11.5601 35.97,-12.2 C38.0101,-0.960059 40.07,10.1899 41.7101,18.55 C41.84,19.2399 41.9801,19.91 42.1101,20.58 C37.7101,21.51 33.37,21.4199 29.15,20.31 M54.9,10.1 C53.7301,13.28 51.27,17.35 46.14,19.41 C46.07,18.9899 45.99,18.56 45.9101,18.13 C44.3601,9.36992 42.4301,-1.61006 40.47,-12.87 C50.82,-13.35 55.09,-5.91006 55.9801,-1.08008 C56.45,1.45 56.45,5.88994 54.9,10.1"/>
<path class="KeySig" transform="matrix(2.3811,0,0,2.3811,429.785,2277.85)" d="M20.1,-7.9 C19.5,-11.8 17.1,-15.5 12,-15.5 C7,-15.5 4.1,-12.4 3.6,-11.8 L4,-43.9 C4,-44.7 3.4,-45.3 2.6,-45.3 L1.4,-45.3 C0.6,-45.3 0,-44.7 0,-43.9 L0.5,16.2 C0.5,17 1.1,17.6 1.9,17.6 C2.1,17.6 2.5,17.5 2.7,17.4 C3.1,17.2 9.6,14 15,7.9 C18.8,3.6 20.3,-1.3 20.3,-5.4 C20.3,-6.3 20.2,-7.1 20.1,-7.9 M13.2,-4 C13.2,-2.5 12.8,2.1 10.3,5.9 C8.6,8.5 5.2,11.2 3.3,12.7 L3.6,-6.8 C3.8,-7.7 5.3,-10.6 9.3,-10.6 C12.9,-10.6 13.2,-7.2 13.2,-5.1 L13.2,-4 "/>
<path class="KeySig" transform="matrix(2.3811,0,0,2.3811,429.785,1510.87)" d="M20.1,-7.9 C19.5,-11.8 17.1,-15.5 12,-15.5 C7,-15.5 4.1,-12.4 3.6,-11.8 L4,-43.9 C4,-44.7 3.4,-45.3 2.6,-45.3 L1.4,-45.3 C0.6,-45.3 0,-44.7 0,-43.9 L0.5,16.2 C0.5,17 1.1,17.6 1.9,17.6 C2.1,17.6 2.5,17.5 2.7,17.4 C3.1,17.2 9.6,14 15,7.9 C18.8,3.6 20.3,-1.3 20.3,-5.4 C20.3,-6.3 20.2,-7.1 20.1,-7.9 M13.2,-4 C13.2,-2.5 12.8,2.1 10.3,5.9 C8.6,8.5 5.2,11.2 3.3,12.7 L3.6,-6.8 C3.8,-7.7 5.3,-10.6 9.3,-10.6 C12.9,-10.6 13.2,-7.2 13.2,-5.1 L13.2,-4 "/>
<path class="FiguredBass" d="M1513,2545.11 C1507,2545.11 1502.64,2543.44 1499.92,2540.1 C1498.93,2538.86 1497.66,2537.72 1496.12,2536.67 C1494.57,2535.62 1492.87,2535.09 1491.01,2535.09 C1488.6,2535.09 1486.44,2535.85 1484.52,2537.36 C1482.6,2538.88 1481.64,2540.9 1481.64,2543.44 C1481.64,2544.55 1481.09,2545.11 1479.97,2545.11 C1478.74,2545.11 1478.12,2544.55 1478.12,2543.44 C1478.12,2539.67 1479,2536.22 1480.76,2533.1 C1482.52,2529.97 1484.74,2527.34 1487.4,2525.21 C1490.05,2523.08 1492.93,2520.79 1496.02,2518.34 C1499.12,2515.9 1501.98,2513.54 1504.6,2511.25 C1507.23,2508.96 1509.43,2506.07 1511.19,2502.57 C1512.95,2499.08 1513.84,2495.26 1513.84,2491.12 C1513.84,2485.92 1512.99,2481.53 1511.28,2477.94 C1509.58,2474.35 1506.91,2472.56 1503.26,2472.56 C1501.16,2472.56 1499.33,2473.07 1497.79,2474.09 C1496.24,2475.11 1495.47,2476.46 1495.47,2478.13 C1495.47,2479.43 1496.35,2481.13 1498.11,2483.23 C1499.87,2485.33 1500.75,2487.09 1500.75,2488.52 C1500.75,2491.49 1499.75,2493.98 1497.74,2495.99 C1495.73,2498 1493.3,2499 1490.46,2499 C1487.49,2499 1485,2497.96 1482.99,2495.89 C1480.98,2493.82 1479.97,2491.36 1479.97,2488.52 C1479.97,2482.83 1482.25,2478.16 1486.79,2474.51 C1491.34,2470.86 1496.83,2469.04 1503.26,2469.04 C1510.87,2469.04 1517.5,2471.09 1523.16,2475.2 C1528.82,2479.32 1531.65,2484.62 1531.65,2491.12 C1531.65,2495.51 1530.86,2499.31 1529.28,2502.53 C1527.71,2505.74 1525.45,2508.34 1522.51,2510.32 C1519.57,2512.3 1516.63,2513.98 1513.7,2515.38 C1510.76,2516.77 1507.31,2518.27 1503.35,2519.87 C1499.39,2521.48 1496.21,2523.06 1493.8,2524.61 C1495.1,2524.3 1496.43,2524.14 1497.79,2524.14 C1502.36,2524.14 1507.12,2525.63 1512.07,2528.6 C1517.02,2531.56 1520.92,2533.05 1523.76,2533.05 C1525.37,2533.05 1526.68,2532.75 1527.71,2532.17 C1528.73,2531.58 1529.39,2530.93 1529.7,2530.22 C1530.01,2529.51 1530.36,2528.84 1530.77,2528.22 C1531.17,2527.61 1531.62,2527.3 1532.11,2527.3 C1533.35,2527.3 1533.97,2527.92 1533.97,2529.15 C1533.97,2531.81 1532.05,2535.14 1528.22,2539.13 C1524.38,2543.11 1519.31,2545.11 1513,2545.11"/>
<path class="FiguredBass" d="M2399.47,2472.56 C2394.89,2472.56 2391.84,2474.4 2390.33,2478.08 C2388.81,2481.76 2388.06,2486.97 2388.06,2493.71 L2388.06,2504.66 C2391.27,2503.36 2394.06,2502.68 2396.41,2502.62 C2404.45,2502.62 2410.77,2504.4 2415.38,2507.95 C2419.99,2511.51 2422.29,2516.8 2422.29,2523.82 C2422.29,2530.84 2419.95,2536.14 2415.29,2539.73 C2410.62,2543.32 2404.32,2545.11 2396.41,2545.11 C2388.3,2545.11 2381.96,2541.35 2377.39,2533.84 C2372.81,2526.32 2370.52,2517.4 2370.52,2507.07 C2370.52,2496.81 2373.18,2487.9 2378.5,2480.35 C2383.82,2472.81 2390.81,2469.04 2399.47,2469.04 C2405.16,2469.04 2410.07,2470.47 2414.22,2473.35 C2418.36,2476.23 2420.43,2480.01 2420.43,2484.71 C2420.43,2487.44 2419.44,2489.79 2417.47,2491.76 C2415.49,2493.74 2413.12,2494.73 2410.37,2494.73 C2407.62,2494.73 2405.25,2493.74 2403.27,2491.76 C2401.29,2489.79 2400.3,2487.44 2400.3,2484.71 C2400.3,2482.05 2401.29,2479.7 2403.27,2477.66 C2403.95,2476.86 2404.91,2476.18 2406.15,2475.62 C2405.84,2474.82 2405.22,2474.2 2404.29,2473.77 C2402.93,2472.96 2401.32,2472.56 2399.47,2472.56 M2404.01,2510.5 C2402.9,2507.6 2400.46,2506.14 2396.68,2506.14 C2392.91,2506.14 2390.58,2507.6 2389.68,2510.5 C2388.78,2513.41 2388.33,2517.83 2388.33,2523.77 C2388.33,2530.76 2388.78,2535.46 2389.68,2537.87 C2390.58,2540.29 2392.91,2541.49 2396.68,2541.49 C2400.46,2541.49 2402.9,2540.04 2404.01,2537.13 C2405.13,2534.22 2405.68,2529.79 2405.68,2523.82 C2405.68,2517.85 2405.13,2513.41 2404.01,2510.5"/>
<path class="FiguredBass" d="M2376.83,2574.79 L2381.28,2575.43 C2382.46,2575.62 2383.91,2575.81 2385.64,2575.99 C2389.91,2576.49 2394.02,2576.73 2397.98,2576.73 C2401.94,2576.73 2406.12,2576.49 2410.51,2575.99 C2412.24,2575.81 2413.75,2575.62 2415.05,2575.43 L2419.6,2574.79 C2420.53,2574.79 2421.24,2575.09 2421.73,2575.71 C2422.1,2576.21 2422.04,2576.7 2421.55,2577.2 C2411.9,2586.66 2398.57,2591.39 2381.56,2591.39 C2380.88,2591.39 2380.28,2591.64 2379.75,2592.13 C2379.23,2592.63 2378.96,2593.25 2378.96,2593.99 L2378.96,2605.77 C2383.36,2601.44 2388.67,2599.28 2394.92,2599.28 C2403.64,2599.28 2410.45,2601.32 2415.33,2605.4 C2420.65,2601.38 2423.43,2596.25 2423.68,2590 C2423.74,2588.02 2424.39,2586.41 2425.63,2585.18 C2426.99,2583.94 2428.63,2583.32 2430.55,2583.32 C2432.46,2583.32 2434.09,2583.97 2435.42,2585.27 C2436.75,2586.57 2437.41,2588.14 2437.41,2590 C2437.41,2599.59 2431.75,2606.85 2420.43,2611.8 C2422.29,2615.45 2423.22,2619.9 2423.22,2625.16 C2423.22,2632.15 2420.43,2638.18 2414.87,2643.25 C2409.3,2648.32 2402.65,2650.86 2394.92,2650.86 C2388.24,2650.86 2382.44,2649.34 2377.53,2646.31 C2372.61,2643.28 2370.15,2639.08 2370.15,2633.7 C2370.15,2630.97 2371.14,2628.61 2373.12,2626.6 C2375.1,2624.59 2377.46,2623.58 2380.22,2623.58 C2382.97,2623.58 2385.3,2624.57 2387.22,2626.55 C2389.14,2628.53 2390.1,2630.91 2390.1,2633.7 C2390.1,2634.93 2389.08,2636.28 2387.04,2637.73 C2384.99,2639.19 2383.97,2640.53 2383.97,2641.77 C2383.97,2645.48 2387.62,2647.33 2394.92,2647.33 C2402.03,2647.33 2405.59,2639.94 2405.59,2625.16 C2405.59,2621.88 2405.4,2619.01 2405.03,2616.53 C2397.55,2618.08 2388.18,2619.29 2376.92,2620.15 C2375.38,2620.27 2374.6,2619.5 2374.6,2617.83 C2374.6,2616.47 2375.38,2615.73 2376.92,2615.61 C2388.3,2614.68 2397.27,2613.19 2403.83,2611.15 C2402.1,2606.2 2399.13,2603.7 2394.92,2603.64 C2388.55,2603.64 2384.1,2604.94 2381.56,2607.53 C2379.03,2610.13 2377.45,2611.43 2376.83,2611.43 C2375.35,2611.43 2374.6,2610.66 2374.6,2609.11 L2374.6,2577.2 C2374.6,2576.58 2374.82,2576.02 2375.25,2575.53 C2375.75,2575.03 2376.27,2574.79 2376.83,2574.79"/>
<path class="FiguredBass" d="M1508.83,1765.11 C1504.25,1765.11 1501.2,1766.95 1499.69,1770.63 C1498.17,1774.31 1497.41,1779.52 1497.41,1786.26 L1497.41,1797.21 C1500.63,1795.91 1503.41,1795.23 1505.76,1795.17 C1513.8,1795.17 1520.13,1796.94 1524.74,1800.5 C1529.34,1804.06 1531.65,1809.34 1531.65,1816.36 C1531.65,1823.38 1529.31,1828.69 1524.64,1832.28 C1519.97,1835.86 1513.68,1837.66 1505.76,1837.66 C1497.66,1837.66 1491.32,1833.9 1486.75,1826.38 C1482.17,1818.87 1479.88,1809.95 1479.88,1799.62 C1479.88,1789.35 1482.54,1780.45 1487.86,1772.9 C1493.18,1765.35 1500.17,1761.58 1508.83,1761.58 C1514.52,1761.58 1519.43,1763.02 1523.58,1765.9 C1527.72,1768.77 1529.79,1772.56 1529.79,1777.26 C1529.79,1779.98 1528.8,1782.33 1526.82,1784.31 C1524.84,1786.29 1522.48,1787.28 1519.73,1787.28 C1516.97,1787.28 1514.61,1786.29 1512.63,1784.31 C1510.65,1782.33 1509.66,1779.98 1509.66,1777.26 C1509.66,1774.6 1510.65,1772.25 1512.63,1770.21 C1513.31,1769.41 1514.27,1768.73 1515.51,1768.17 C1515.2,1767.36 1514.58,1766.75 1513.65,1766.31 C1512.29,1765.51 1510.68,1765.11 1508.83,1765.11 M1513.37,1803.05 C1512.26,1800.14 1509.82,1798.69 1506.04,1798.69 C1502.27,1798.69 1499.93,1800.14 1499.04,1803.05 C1498.14,1805.96 1497.69,1810.38 1497.69,1816.32 C1497.69,1823.31 1498.14,1828.01 1499.04,1830.42 C1499.93,1832.83 1502.27,1834.04 1506.04,1834.04 C1509.82,1834.04 1512.26,1832.58 1513.37,1829.68 C1514.48,1826.77 1515.04,1822.33 1515.04,1816.36 C1515.04,1810.4 1514.48,1805.96 1513.37,1803.05"/>
<path class="FiguredBass" d="M1508.18,1869.28 C1510.53,1869.28 1513,1868.94 1515.6,1868.26 L1519.77,1867.15 C1520.58,1867.15 1521.21,1867.46 1521.67,1868.07 C1522.14,1868.69 1522.09,1869.25 1521.54,1869.74 L1478.4,1919.93 L1503.72,1919.93 L1503.72,1900.08 C1503.72,1898.66 1504.11,1897.56 1504.88,1896.79 C1505.66,1896.01 1506.65,1895.4 1507.85,1894.93 C1509.06,1894.47 1510.63,1893.09 1512.58,1890.8 C1514.53,1888.52 1516.4,1885.42 1518.2,1881.53 C1518.51,1880.91 1518.97,1880.6 1519.59,1880.6 C1520.89,1880.6 1521.54,1881.31 1521.54,1882.73 L1521.54,1919.93 L1532.48,1919.93 C1534.03,1919.93 1534.8,1920.65 1534.8,1922.07 C1534.8,1923.61 1534.03,1924.39 1532.48,1924.39 L1521.54,1924.39 L1521.54,1925.59 C1521.54,1929.43 1522.56,1932.77 1524.6,1935.61 C1526.64,1938.46 1529.27,1939.88 1532.48,1939.88 C1533.72,1939.88 1534.34,1940.44 1534.34,1941.55 C1534.34,1942.79 1533.72,1943.41 1532.48,1943.41 C1530.26,1943.41 1526.95,1943.08 1522.56,1942.43 C1518.16,1941.78 1514.84,1941.46 1512.58,1941.46 C1510.33,1941.46 1507,1941.78 1502.61,1942.43 C1498.22,1943.08 1494.91,1943.41 1492.68,1943.41 C1491.45,1943.41 1490.83,1942.79 1490.83,1941.55 C1490.83,1940.44 1491.45,1939.88 1492.68,1939.88 C1495.9,1939.88 1498.54,1938.46 1500.62,1935.61 C1502.69,1932.77 1503.72,1929.43 1503.72,1925.59 L1503.72,1924.39 L1478.4,1924.39 C1476.79,1924.39 1475.6,1924 1474.82,1923.23 C1474.05,1922.45 1473.66,1921.67 1473.66,1920.86 C1473.66,1920.55 1474.39,1919.49 1475.84,1917.66 C1477.3,1915.84 1479.08,1913.41 1481.18,1910.38 C1483.28,1907.35 1485.37,1903.9 1487.44,1900.03 C1489.51,1896.17 1491.28,1891.53 1492.73,1886.12 C1494.18,1880.71 1494.91,1875.25 1494.91,1869.74 C1494.91,1868.14 1495.59,1867.33 1496.95,1867.33 C1497.14,1867.33 1497.79,1867.49 1498.9,1867.8 C1500.01,1868.11 1501.43,1868.43 1503.17,1868.77 C1504.9,1869.11 1506.57,1869.28 1508.18,1869.28"/>
<path class="FiguredBass" d="M1513,2049.16 C1507,2049.16 1502.64,2047.49 1499.92,2044.15 C1498.93,2042.91 1497.66,2041.77 1496.12,2040.71 C1494.57,2039.66 1492.87,2039.14 1491.01,2039.14 C1488.6,2039.14 1486.44,2039.89 1484.52,2041.41 C1482.6,2042.92 1481.64,2044.95 1481.64,2047.49 C1481.64,2048.6 1481.09,2049.16 1479.97,2049.16 C1478.74,2049.16 1478.12,2048.6 1478.12,2047.49 C1478.12,2043.71 1479,2040.27 1480.76,2037.14 C1482.52,2034.02 1484.74,2031.39 1487.4,2029.26 C1490.05,2027.12 1492.93,2024.83 1496.02,2022.39 C1499.12,2019.95 1501.98,2017.58 1504.6,2015.29 C1507.23,2013.01 1509.43,2010.11 1511.19,2006.62 C1512.95,2003.13 1513.84,1999.31 1513.84,1995.16 C1513.84,1989.97 1512.99,1985.58 1511.28,1981.99 C1509.58,1978.4 1506.91,1976.61 1503.26,1976.61 C1501.16,1976.61 1499.33,1977.12 1497.79,1978.14 C1496.24,1979.16 1495.47,1980.5 1495.47,1982.17 C1495.47,1983.47 1496.35,1985.17 1498.11,1987.28 C1499.87,1989.38 1500.75,1991.14 1500.75,1992.56 C1500.75,1995.53 1499.75,1998.02 1497.74,2000.03 C1495.73,2002.04 1493.3,2003.05 1490.46,2003.05 C1487.49,2003.05 1485,2002.01 1482.99,1999.94 C1480.98,1997.87 1479.97,1995.41 1479.97,1992.56 C1479.97,1986.87 1482.25,1982.2 1486.79,1978.56 C1491.34,1974.91 1496.83,1973.08 1503.26,1973.08 C1510.87,1973.08 1517.5,1975.14 1523.16,1979.25 C1528.82,1983.36 1531.65,1988.67 1531.65,1995.16 C1531.65,1999.55 1530.86,2003.36 1529.28,2006.57 C1527.71,2009.79 1525.45,2012.39 1522.51,2014.37 C1519.57,2016.35 1516.63,2018.03 1513.7,2019.42 C1510.76,2020.81 1507.31,2022.31 1503.35,2023.92 C1499.39,2025.53 1496.21,2027.11 1493.8,2028.65 C1495.1,2028.34 1496.43,2028.19 1497.79,2028.19 C1502.36,2028.19 1507.12,2029.67 1512.07,2032.64 C1517.02,2035.61 1520.92,2037.1 1523.76,2037.1 C1525.37,2037.1 1526.68,2036.8 1527.71,2036.21 C1528.73,2035.63 1529.39,2034.98 1529.7,2034.27 C1530.01,2033.55 1530.36,2032.89 1530.77,2032.27 C1531.17,2031.65 1531.62,2031.34 1532.11,2031.34 C1533.35,2031.34 1533.97,2031.96 1533.97,2033.2 C1533.97,2035.86 1532.05,2039.18 1528.22,2043.17 C1524.38,2047.16 1519.31,2049.16 1513,2049.16"/>
<path class="Bracket" transform="matrix(8.6315,0,0,9.45563,76.1283,2337.37)" d="M0.92002,-50 C2.69004,-51.88 6.2,-55.8 6.2,-63 C6.2,-72.1 2.25996,-81.32 2.25996,-86.97 C2.25996,-93.06 5.84004,-98.84 5.95,-99 C6.05996,-99.16 6.05,-99.39 5.94004,-99.46 C5.82998,-99.53 5.62002,-99.47 5.49004,-99.32 C5.35996,-99.17 0,-93.75 0,-85.6 C0,-76.75 3.5,-70.58 3.5,-59.07 C3.5,-56.89 2.55996,-53.36 0.1,-50.33 C-0.0799805,-50.17 -0.1,-49.89 0.0599609,-49.7 L0.0700195,-49.69 L0.1,-49.66 C2.55996,-46.63 3.5,-43.1 3.5,-40.92 C3.5,-29.4 0,-23.24 0,-14.39 C0,-6.25 5.35996,-0.8 5.49004,-0.659961 C5.62002,-0.52002 5.8,-0.42998 5.94004,-0.52002 C6.07998,-0.609961 6.07998,-0.77998 5.95,-0.97998 C5.82002,-1.17998 2.25996,-6.92002 2.25996,-13.01 C2.25996,-18.66 6.2,-27.9 6.2,-37 C6.2,-44.3 2.69004,-48.12 0.92002,-50"/>
</svg>
