<?xml version="1.0" encoding="UTF-8" standalone="no"?>
<svg width="4209.44px" height="2976.38px" viewBox="0 0 4209.44 2976.38"
 xmlns="http://www.w3.org/2000/svg" xmlns:xlink="http://www.w3.org/1999/xlink" version="1.2" baseProfile="tiny">
<title>ReMineur (14)</title>
<desc>Generated by MuseScore 3.6.2</desc>
<polyline class="StaffLines" fill="none" stroke="#000000" stroke-width="6.55" stroke-linejoin="bevel" points="153.819,558.425 4138.58,558.425"/>
<polyline class="StaffLines" fill="none" stroke="#000000" stroke-width="6.55" stroke-linejoin="bevel" points="153.819,647.717 4138.58,647.717"/>
<polyline class="StaffLines" fill="none" stroke="#000000" stroke-width="6.55" stroke-linejoin="bevel" points="153.819,737.008 4138.58,737.008"/>
<polyline class="StaffLines" fill="none" stroke="#000000" stroke-width="6.55" stroke-linejoin="bevel" points="153.819,826.299 4138.58,826.299"/>
<polyline class="StaffLines" fill="none" stroke="#000000" stroke-width="6.55" stroke-linejoin="bevel" points="153.819,915.591 4138.58,915.591"/>
<polyline class="StaffLines" fill="none" stroke="#000000" stroke-width="6.55" stroke-linejoin="bevel" points="153.819,1004.88 4138.58,1004.88"/>
<polyline class="StaffLines" fill="none" stroke="#000000" stroke-width="6.55" stroke-linejoin="bevel" points="153.819,1391.81 4138.58,1391.81"/>
<polyline class="StaffLines" fill="none" stroke="#000000" stroke-width="6.55" stroke-linejoin="bevel" points="153.819,1451.34 4138.58,1451.34"/>
<polyline class="StaffLines" fill="none" stroke="#000000" stroke-width="6.55" stroke-linejoin="bevel" points="153.819,1510.87 4138.58,1510.87"/>
<polyline class="StaffLines" fill="none" stroke="#000000" stroke-width="6.55" stroke-linejoin="bevel" points="153.819,1570.39 4138.58,1570.39"/>
<polyline class="StaffLines" fill="none" stroke="#000000" stroke-width="6.55" stroke-linejoin="bevel" points="153.819,1629.92 4138.58,1629.92"/>
<polyline class="StaffLines" fill="none" stroke="#000000" stroke-width="6.55" stroke-linejoin="bevel" points="153.819,2139.32 4138.58,2139.32"/>
<polyline class="StaffLines" fill="none" stroke="#000000" stroke-width="6.55" stroke-linejoin="bevel" points="153.819,2198.84 4138.58,2198.84"/>
<polyline class="StaffLines" fill="none" stroke="#000000" stroke-width="6.55" stroke-linejoin="bevel" points="153.819,2258.37 4138.58,2258.37"/>
<polyline class="StaffLines" fill="none" stroke="#000000" stroke-width="6.55" stroke-linejoin="bevel" points="153.819,2317.9 4138.58,2317.9"/>
<polyline class="StaffLines" fill="none" stroke="#000000" stroke-width="6.55" stroke-linejoin="bevel" points="153.819,2377.43 4138.58,2377.43"/>
<path class="Symbol" transform="matrix(2.3811,0,0,2.3811,1745.2,2139.32)" d="M0,-0.1 C0,7.7 4,14 10.4,18.1 L10.9,17.4 C7.5,14.8 6.3,13.3 5.2,10.1 C4.2,7.2 3.7,4 3.7,-0.2 C3.7,-8.1 4.8,-12.3 10.9,-17.4 L10.5,-18.1 C3.9,-13.6 0,-8.5 0,-0.1"/>
<path class="Symbol" transform="matrix(2.3811,0,0,2.3811,1859.96,2139.32)" d="M3.7,-0.2 C3.7,4 3.2,7.2 2.2,10.1 C1,13.3 -0.2,14.8 -3.6,17.4 L-3,18.1 C3.4,14.1 7.3,7.6 7.3,-0.1 C7.3,-8.4 3.4,-13.8 -3.2,-18.1 L-3.6,-17.4 C2.6,-12.4 3.7,-8.1 3.7,-0.2"/>
<path class="Symbol" transform="matrix(2.3811,0,0,2.3811,1745.2,1332.28)" d="M0,-0.1 C0,7.7 4,14 10.4,18.1 L10.9,17.4 C7.5,14.8 6.3,13.3 5.2,10.1 C4.2,7.2 3.7,4 3.7,-0.2 C3.7,-8.1 4.8,-12.3 10.9,-17.4 L10.5,-18.1 C3.9,-13.6 0,-8.5 0,-0.1"/>
<path class="Symbol" transform="matrix(2.3811,0,0,2.3811,1859.96,1332.28)" d="M3.7,-0.2 C3.7,4 3.2,7.2 2.2,10.1 C1,13.3 -0.2,14.8 -3.6,17.4 L-3,18.1 C3.4,14.1 7.3,7.6 7.3,-0.1 C7.3,-8.4 3.4,-13.8 -3.2,-18.1 L-3.6,-17.4 C2.6,-12.4 3.7,-8.1 3.7,-0.2"/>
<path class="Symbol" transform="matrix(2.3811,0,0,2.3811,1756.04,885.827)" d="M0,-0.1 C0,7.7 4,14 10.4,18.1 L10.9,17.4 C7.5,14.8 6.3,13.3 5.2,10.1 C4.2,7.2 3.7,4 3.7,-0.2 C3.7,-8.1 4.8,-12.3 10.9,-17.4 L10.5,-18.1 C3.9,-13.6 0,-8.5 0,-0.1"/>
<path class="Symbol" transform="matrix(2.3811,0,0,2.3811,1861.05,885.827)" d="M3.7,-0.2 C3.7,4 3.2,7.2 2.2,10.1 C1,13.3 -0.2,14.8 -3.6,17.4 L-3,18.1 C3.4,14.1 7.3,7.6 7.3,-0.1 C7.3,-8.4 3.4,-13.8 -3.2,-18.1 L-3.6,-17.4 C2.6,-12.4 3.7,-8.1 3.7,-0.2"/>
<path class="Symbol" transform="matrix(2.3811,0,0,2.3811,1756.04,707.244)" d="M0,-0.1 C0,7.7 4,14 10.4,18.1 L10.9,17.4 C7.5,14.8 6.3,13.3 5.2,10.1 C4.2,7.2 3.7,4 3.7,-0.2 C3.7,-8.1 4.8,-12.3 10.9,-17.4 L10.5,-18.1 C3.9,-13.6 0,-8.5 0,-0.1"/>
<path class="Symbol" transform="matrix(2.3811,0,0,2.3811,1861.05,707.244)" d="M3.7,-0.2 C3.7,4 3.2,7.2 2.2,10.1 C1,13.3 -0.2,14.8 -3.6,17.4 L-3,18.1 C3.4,14.1 7.3,7.6 7.3,-0.1 C7.3,-8.4 3.4,-13.8 -3.2,-18.1 L-3.6,-17.4 C2.6,-12.4 3.7,-8.1 3.7,-0.2"/>
<polyline class="BarLine" fill="none" stroke="#000000" stroke-width="10.71" stroke-linejoin="bevel" points="159.176,2136.04 159.176,2380.7"/>
<polyline class="BarLine" fill="none" stroke="#000000" stroke-width="10.71" stroke-linejoin="bevel" points="1087.19,2136.04 1087.19,2380.7"/>
<polyline class="BarLine" fill="none" stroke="#000000" stroke-width="10.71" stroke-linejoin="bevel" points="1662.46,2136.04 1662.46,2380.7"/>
<polyline class="BarLine" fill="none" stroke="#000000" stroke-width="10.71" stroke-linejoin="bevel" points="2231.43,2136.04 2231.43,2380.7"/>
<polyline class="BarLine" fill="none" stroke="#000000" stroke-width="10.71" stroke-linejoin="bevel" points="2841.58,2136.04 2841.58,2380.7"/>
<polyline class="BarLine" fill="none" stroke="#000000" stroke-width="10.71" stroke-linejoin="bevel" points="3537.54,2136.04 3537.54,2380.7"/>
<polyline class="BarLine" fill="none" stroke="#000000" stroke-width="10.71" stroke-linejoin="bevel" points="4080.54,2136.04 4080.54,2380.7"/>
<polyline class="BarLine" fill="none" stroke="#000000" stroke-width="32.74" stroke-linejoin="bevel" points="4122.21,2136.04 4122.21,2380.7"/>
<polyline class="BarLine" fill="none" stroke="#000000" stroke-width="10.71" stroke-linejoin="bevel" points="159.176,1388.54 159.176,2139.32"/>
<polyline class="BarLine" fill="none" stroke="#000000" stroke-width="10.71" stroke-linejoin="bevel" points="1087.19,1388.54 1087.19,1633.2"/>
<polyline class="BarLine" fill="none" stroke="#000000" stroke-width="10.71" stroke-linejoin="bevel" points="1662.46,1388.54 1662.46,1633.2"/>
<polyline class="BarLine" fill="none" stroke="#000000" stroke-width="10.71" stroke-linejoin="bevel" points="2231.43,1388.54 2231.43,1633.2"/>
<polyline class="BarLine" fill="none" stroke="#000000" stroke-width="10.71" stroke-linejoin="bevel" points="2841.58,1388.54 2841.58,1633.2"/>
<polyline class="BarLine" fill="none" stroke="#000000" stroke-width="10.71" stroke-linejoin="bevel" points="3537.54,1388.54 3537.54,1633.2"/>
<polyline class="BarLine" fill="none" stroke="#000000" stroke-width="10.71" stroke-linejoin="bevel" points="4080.54,1388.54 4080.54,1633.2"/>
<polyline class="BarLine" fill="none" stroke="#000000" stroke-width="32.74" stroke-linejoin="bevel" points="4122.21,1388.54 4122.21,1633.2"/>
<polyline class="BarLine" fill="none" stroke="#000000" stroke-width="10.71" stroke-linejoin="bevel" points="159.176,555.151 159.176,1391.81"/>
<polyline class="BarLine" fill="none" stroke="#000000" stroke-width="10.71" stroke-linejoin="bevel" points="1087.19,555.151 1087.19,1008.16"/>
<polyline class="BarLine" fill="none" stroke="#000000" stroke-width="10.71" stroke-linejoin="bevel" points="1662.46,555.151 1662.46,1008.16"/>
<polyline class="BarLine" fill="none" stroke="#000000" stroke-width="10.71" stroke-linejoin="bevel" points="2231.43,555.151 2231.43,1008.16"/>
<polyline class="BarLine" fill="none" stroke="#000000" stroke-width="10.71" stroke-linejoin="bevel" points="2841.58,555.151 2841.58,1008.16"/>
<polyline class="BarLine" fill="none" stroke="#000000" stroke-width="10.71" stroke-linejoin="bevel" points="3537.54,555.151 3537.54,1008.16"/>
<polyline class="BarLine" fill="none" stroke="#000000" stroke-width="10.71" stroke-linejoin="bevel" points="4080.54,555.151 4080.54,1008.16"/>
<polyline class="BarLine" fill="none" stroke="#000000" stroke-width="32.74" stroke-linejoin="bevel" points="4122.21,555.151 4122.21,1008.16"/>
<path class="Accidental" transform="matrix(2.3811,0,0,2.3811,1150.06,1481.1)" d="M23.3,-10.6 C23.9,-10.7 24.4,-11.4 24.4,-12 L24.4,-17.9 C24.4,-18.7 23.8,-19.3 23,-19.3 L22.8,-19.3 L19.5,-18.6 L19.5,-33.5 L16.7,-33.5 L16.7,-18 L7.8,-16.2 L7.8,-30.3 L5,-30.3 L5,-15.6 L1.1,-14.8 C0.5,-14.7 0,-14 0,-13.4 L0,-13.2 L0,-7.4 L0,-7.6 C0,-6.8 0.6,-6.2 1.4,-6.2 L1.7,-6.2 L5,-6.9 L5,9.6 L1.1,10.4 C0.5,10.5 0,11.2 0,11.8 L0,17.6 C0,18.4 0.6,19 1.4,19 L1.7,19 L5,18.3 L5,33.2 L7.8,33.2 L7.8,17.7 L16.7,15.9 L16.7,30 L19.5,30 L19.5,15.3 L23.3,14.6 C23.9,14.5 24.4,13.8 24.4,13.2 L24.4,7.3 C24.4,6.5 23.8,5.9 23,5.9 L22.8,5.9 L19.5,6.6 L19.5,-9.9 L23.3,-10.6 M7.8,9.1 L7.8,-7.5 L16.7,-9.3 L16.7,7.2 L7.8,9.1 "/>
<path class="Accidental" transform="matrix(2.3811,0,0,2.3811,2898.72,1481.1)" d="M23.3,-10.6 C23.9,-10.7 24.4,-11.4 24.4,-12 L24.4,-17.9 C24.4,-18.7 23.8,-19.3 23,-19.3 L22.8,-19.3 L19.5,-18.6 L19.5,-33.5 L16.7,-33.5 L16.7,-18 L7.8,-16.2 L7.8,-30.3 L5,-30.3 L5,-15.6 L1.1,-14.8 C0.5,-14.7 0,-14 0,-13.4 L0,-13.2 L0,-7.4 L0,-7.6 C0,-6.8 0.6,-6.2 1.4,-6.2 L1.7,-6.2 L5,-6.9 L5,9.6 L1.1,10.4 C0.5,10.5 0,11.2 0,11.8 L0,17.6 C0,18.4 0.6,19 1.4,19 L1.7,19 L5,18.3 L5,33.2 L7.8,33.2 L7.8,17.7 L16.7,15.9 L16.7,30 L19.5,30 L19.5,15.3 L23.3,14.6 C23.9,14.5 24.4,13.8 24.4,13.2 L24.4,7.3 C24.4,6.5 23.8,5.9 23,5.9 L22.8,5.9 L19.5,6.6 L19.5,-9.9 L23.3,-10.6 M7.8,9.1 L7.8,-7.5 L16.7,-9.3 L16.7,7.2 L7.8,9.1 "/>
<polyline class="LedgerLine" fill="none" stroke="#000000" stroke-width="9.52" stroke-linejoin="bevel" points="626.933,1332.28 757.41,1332.28"/>
<polyline class="LedgerLine" fill="none" stroke="#000000" stroke-width="9.52" stroke-linejoin="bevel" points="1202.2,1332.28 1332.68,1332.28"/>
<polyline class="LedgerLine" fill="none" stroke="#000000" stroke-width="9.52" stroke-linejoin="bevel" points="1750.32,1332.28 1880.8,1332.28"/>
<polyline class="LedgerLine" fill="none" stroke="#000000" stroke-width="9.52" stroke-linejoin="bevel" points="2381.32,1332.28 2511.8,1332.28"/>
<polyline class="LedgerLine" fill="none" stroke="#000000" stroke-width="9.52" stroke-linejoin="bevel" points="2950.87,1332.28 3069.9,1332.28"/>
<polyline class="LedgerLine" fill="none" stroke="#000000" stroke-width="9.52" stroke-linejoin="bevel" points="3620.28,1332.28 3750.76,1332.28"/>
<polyline class="Stem" fill="none" stroke="#000000" stroke-width="6.55" stroke-linejoin="bevel" points="2974.98,1340.28 2974.98,1674.57"/>
<polyline class="Stem" fill="none" stroke="#000000" stroke-width="6.55" stroke-linejoin="bevel" points="3255.21,1370.05 3255.21,1570.39"/>
<path class="Note" transform="matrix(2.3811,0,0,2.3811,647.767,2258.37)" d="M18.7,-13.6 C4.9,-13.6 0,-6.6 0,-0.1 C0,6.4 4.9,13.4 18.7,13.4 C32.5,13.4 37.3,6.4 37.3,-0.1 C37.3,-6.6 32.5,-13.6 18.7,-13.6 M10.4,-4.5 C10.3,-4.9 10.3,-5.3 10.3,-5.7 C10.3,-6.5 10.5,-7.3 10.9,-8 C11.6,-9 12.8,-9.7 14.3,-10 C15.6,-10.3 16.3,-10.5 18.9,-10.5 L19,-10.5 C23,-10.5 24.3,-6.8 25.4,-3 L25.7,-2 C26.5,0.6 26.9,2.8 26.9,4.5 C26.9,5.7 26.7,6.8 26.3,7.6 C25.7,8.7 24.7,9.4 23,9.8 C22.1,10 20.6,10.1 20.6,10.1 C20.1,10.1 19.7,10.2 19.3,10.2 C16.1,10.2 14.1,9 12.7,4.7 C11.5,1 11.3,-0.1 10.4,-4.5"/>
<path class="Note" transform="matrix(2.3811,0,0,2.3811,1223.04,2139.32)" d="M18.7,-13.6 C4.9,-13.6 0,-6.6 0,-0.1 C0,6.4 4.9,13.4 18.7,13.4 C32.5,13.4 37.3,6.4 37.3,-0.1 C37.3,-6.6 32.5,-13.6 18.7,-13.6 M10.4,-4.5 C10.3,-4.9 10.3,-5.3 10.3,-5.7 C10.3,-6.5 10.5,-7.3 10.9,-8 C11.6,-9 12.8,-9.7 14.3,-10 C15.6,-10.3 16.3,-10.5 18.9,-10.5 L19,-10.5 C23,-10.5 24.3,-6.8 25.4,-3 L25.7,-2 C26.5,0.6 26.9,2.8 26.9,4.5 C26.9,5.7 26.7,6.8 26.3,7.6 C25.7,8.7 24.7,9.4 23,9.8 C22.1,10 20.6,10.1 20.6,10.1 C20.1,10.1 19.7,10.2 19.3,10.2 C16.1,10.2 14.1,9 12.7,4.7 C11.5,1 11.3,-0.1 10.4,-4.5"/>
<path class="Note" transform="matrix(2.3811,0,0,2.3811,1771.16,2139.32)" d="M18.7,-13.6 C4.9,-13.6 0,-6.6 0,-0.1 C0,6.4 4.9,13.4 18.7,13.4 C32.5,13.4 37.3,6.4 37.3,-0.1 C37.3,-6.6 32.5,-13.6 18.7,-13.6 M10.4,-4.5 C10.3,-4.9 10.3,-5.3 10.3,-5.7 C10.3,-6.5 10.5,-7.3 10.9,-8 C11.6,-9 12.8,-9.7 14.3,-10 C15.6,-10.3 16.3,-10.5 18.9,-10.5 L19,-10.5 C23,-10.5 24.3,-6.8 25.4,-3 L25.7,-2 C26.5,0.6 26.9,2.8 26.9,4.5 C26.9,5.7 26.7,6.8 26.3,7.6 C25.7,8.7 24.7,9.4 23,9.8 C22.1,10 20.6,10.1 20.6,10.1 C20.1,10.1 19.7,10.2 19.3,10.2 C16.1,10.2 14.1,9 12.7,4.7 C11.5,1 11.3,-0.1 10.4,-4.5"/>
<path class="Note" transform="matrix(2.3811,0,0,2.3811,2402.15,2139.32)" d="M18.7,-13.6 C4.9,-13.6 0,-6.6 0,-0.1 C0,6.4 4.9,13.4 18.7,13.4 C32.5,13.4 37.3,6.4 37.3,-0.1 C37.3,-6.6 32.5,-13.6 18.7,-13.6 M10.4,-4.5 C10.3,-4.9 10.3,-5.3 10.3,-5.7 C10.3,-6.5 10.5,-7.3 10.9,-8 C11.6,-9 12.8,-9.7 14.3,-10 C15.6,-10.3 16.3,-10.5 18.9,-10.5 L19,-10.5 C23,-10.5 24.3,-6.8 25.4,-3 L25.7,-2 C26.5,0.6 26.9,2.8 26.9,4.5 C26.9,5.7 26.7,6.8 26.3,7.6 C25.7,8.7 24.7,9.4 23,9.8 C22.1,10 20.6,10.1 20.6,10.1 C20.1,10.1 19.7,10.2 19.3,10.2 C16.1,10.2 14.1,9 12.7,4.7 C11.5,1 11.3,-0.1 10.4,-4.5"/>
<path class="Note" transform="matrix(2.3811,0,0,2.3811,2965.98,2139.32)" d="M18.7,-13.6 C4.9,-13.6 0,-6.6 0,-0.1 C0,6.4 4.9,13.4 18.7,13.4 C32.5,13.4 37.3,6.4 37.3,-0.1 C37.3,-6.6 32.5,-13.6 18.7,-13.6 M10.4,-4.5 C10.3,-4.9 10.3,-5.3 10.3,-5.7 C10.3,-6.5 10.5,-7.3 10.9,-8 C11.6,-9 12.8,-9.7 14.3,-10 C15.6,-10.3 16.3,-10.5 18.9,-10.5 L19,-10.5 C23,-10.5 24.3,-6.8 25.4,-3 L25.7,-2 C26.5,0.6 26.9,2.8 26.9,4.5 C26.9,5.7 26.7,6.8 26.3,7.6 C25.7,8.7 24.7,9.4 23,9.8 C22.1,10 20.6,10.1 20.6,10.1 C20.1,10.1 19.7,10.2 19.3,10.2 C16.1,10.2 14.1,9 12.7,4.7 C11.5,1 11.3,-0.1 10.4,-4.5"/>
<path class="Note" transform="matrix(2.3811,0,0,2.3811,3641.11,2258.37)" d="M18.7,-13.6 C4.9,-13.6 0,-6.6 0,-0.1 C0,6.4 4.9,13.4 18.7,13.4 C32.5,13.4 37.3,6.4 37.3,-0.1 C37.3,-6.6 32.5,-13.6 18.7,-13.6 M10.4,-4.5 C10.3,-4.9 10.3,-5.3 10.3,-5.7 C10.3,-6.5 10.5,-7.3 10.9,-8 C11.6,-9 12.8,-9.7 14.3,-10 C15.6,-10.3 16.3,-10.5 18.9,-10.5 L19,-10.5 C23,-10.5 24.3,-6.8 25.4,-3 L25.7,-2 C26.5,0.6 26.9,2.8 26.9,4.5 C26.9,5.7 26.7,6.8 26.3,7.6 C25.7,8.7 24.7,9.4 23,9.8 C22.1,10 20.6,10.1 20.6,10.1 C20.1,10.1 19.7,10.2 19.3,10.2 C16.1,10.2 14.1,9 12.7,4.7 C11.5,1 11.3,-0.1 10.4,-4.5"/>
<path class="Note" transform="matrix(2.3811,0,0,2.3811,647.767,1451.34)" d="M18.7,-13.6 C4.9,-13.6 0,-6.6 0,-0.1 C0,6.4 4.9,13.4 18.7,13.4 C32.5,13.4 37.3,6.4 37.3,-0.1 C37.3,-6.6 32.5,-13.6 18.7,-13.6 M10.4,-4.5 C10.3,-4.9 10.3,-5.3 10.3,-5.7 C10.3,-6.5 10.5,-7.3 10.9,-8 C11.6,-9 12.8,-9.7 14.3,-10 C15.6,-10.3 16.3,-10.5 18.9,-10.5 L19,-10.5 C23,-10.5 24.3,-6.8 25.4,-3 L25.7,-2 C26.5,0.6 26.9,2.8 26.9,4.5 C26.9,5.7 26.7,6.8 26.3,7.6 C25.7,8.7 24.7,9.4 23,9.8 C22.1,10 20.6,10.1 20.6,10.1 C20.1,10.1 19.7,10.2 19.3,10.2 C16.1,10.2 14.1,9 12.7,4.7 C11.5,1 11.3,-0.1 10.4,-4.5"/>
<path class="Note" transform="matrix(2.3811,0,0,2.3811,647.767,1391.81)" d="M18.7,-13.6 C4.9,-13.6 0,-6.6 0,-0.1 C0,6.4 4.9,13.4 18.7,13.4 C32.5,13.4 37.3,6.4 37.3,-0.1 C37.3,-6.6 32.5,-13.6 18.7,-13.6 M10.4,-4.5 C10.3,-4.9 10.3,-5.3 10.3,-5.7 C10.3,-6.5 10.5,-7.3 10.9,-8 C11.6,-9 12.8,-9.7 14.3,-10 C15.6,-10.3 16.3,-10.5 18.9,-10.5 L19,-10.5 C23,-10.5 24.3,-6.8 25.4,-3 L25.7,-2 C26.5,0.6 26.9,2.8 26.9,4.5 C26.9,5.7 26.7,6.8 26.3,7.6 C25.7,8.7 24.7,9.4 23,9.8 C22.1,10 20.6,10.1 20.6,10.1 C20.1,10.1 19.7,10.2 19.3,10.2 C16.1,10.2 14.1,9 12.7,4.7 C11.5,1 11.3,-0.1 10.4,-4.5"/>
<path class="Note" transform="matrix(2.3811,0,0,2.3811,647.767,1332.28)" d="M18.7,-13.6 C4.9,-13.6 0,-6.6 0,-0.1 C0,6.4 4.9,13.4 18.7,13.4 C32.5,13.4 37.3,6.4 37.3,-0.1 C37.3,-6.6 32.5,-13.6 18.7,-13.6 M10.4,-4.5 C10.3,-4.9 10.3,-5.3 10.3,-5.7 C10.3,-6.5 10.5,-7.3 10.9,-8 C11.6,-9 12.8,-9.7 14.3,-10 C15.6,-10.3 16.3,-10.5 18.9,-10.5 L19,-10.5 C23,-10.5 24.3,-6.8 25.4,-3 L25.7,-2 C26.5,0.6 26.9,2.8 26.9,4.5 C26.9,5.7 26.7,6.8 26.3,7.6 C25.7,8.7 24.7,9.4 23,9.8 C22.1,10 20.6,10.1 20.6,10.1 C20.1,10.1 19.7,10.2 19.3,10.2 C16.1,10.2 14.1,9 12.7,4.7 C11.5,1 11.3,-0.1 10.4,-4.5"/>
<path class="Note" transform="matrix(2.3811,0,0,2.3811,1223.04,1481.1)" d="M18.7,-13.6 C4.9,-13.6 0,-6.6 0,-0.1 C0,6.4 4.9,13.4 18.7,13.4 C32.5,13.4 37.3,6.4 37.3,-0.1 C37.3,-6.6 32.5,-13.6 18.7,-13.6 M10.4,-4.5 C10.3,-4.9 10.3,-5.3 10.3,-5.7 C10.3,-6.5 10.5,-7.3 10.9,-8 C11.6,-9 12.8,-9.7 14.3,-10 C15.6,-10.3 16.3,-10.5 18.9,-10.5 L19,-10.5 C23,-10.5 24.3,-6.8 25.4,-3 L25.7,-2 C26.5,0.6 26.9,2.8 26.9,4.5 C26.9,5.7 26.7,6.8 26.3,7.6 C25.7,8.7 24.7,9.4 23,9.8 C22.1,10 20.6,10.1 20.6,10.1 C20.1,10.1 19.7,10.2 19.3,10.2 C16.1,10.2 14.1,9 12.7,4.7 C11.5,1 11.3,-0.1 10.4,-4.5"/>
<path class="Note" transform="matrix(2.3811,0,0,2.3811,1223.04,1421.57)" d="M18.7,-13.6 C4.9,-13.6 0,-6.6 0,-0.1 C0,6.4 4.9,13.4 18.7,13.4 C32.5,13.4 37.3,6.4 37.3,-0.1 C37.3,-6.6 32.5,-13.6 18.7,-13.6 M10.4,-4.5 C10.3,-4.9 10.3,-5.3 10.3,-5.7 C10.3,-6.5 10.5,-7.3 10.9,-8 C11.6,-9 12.8,-9.7 14.3,-10 C15.6,-10.3 16.3,-10.5 18.9,-10.5 L19,-10.5 C23,-10.5 24.3,-6.8 25.4,-3 L25.7,-2 C26.5,0.6 26.9,2.8 26.9,4.5 C26.9,5.7 26.7,6.8 26.3,7.6 C25.7,8.7 24.7,9.4 23,9.8 C22.1,10 20.6,10.1 20.6,10.1 C20.1,10.1 19.7,10.2 19.3,10.2 C16.1,10.2 14.1,9 12.7,4.7 C11.5,1 11.3,-0.1 10.4,-4.5"/>
<path class="Note" transform="matrix(2.3811,0,0,2.3811,1223.04,1332.28)" d="M18.7,-13.6 C4.9,-13.6 0,-6.6 0,-0.1 C0,6.4 4.9,13.4 18.7,13.4 C32.5,13.4 37.3,6.4 37.3,-0.1 C37.3,-6.6 32.5,-13.6 18.7,-13.6 M10.4,-4.5 C10.3,-4.9 10.3,-5.3 10.3,-5.7 C10.3,-6.5 10.5,-7.3 10.9,-8 C11.6,-9 12.8,-9.7 14.3,-10 C15.6,-10.3 16.3,-10.5 18.9,-10.5 L19,-10.5 C23,-10.5 24.3,-6.8 25.4,-3 L25.7,-2 C26.5,0.6 26.9,2.8 26.9,4.5 C26.9,5.7 26.7,6.8 26.3,7.6 C25.7,8.7 24.7,9.4 23,9.8 C22.1,10 20.6,10.1 20.6,10.1 C20.1,10.1 19.7,10.2 19.3,10.2 C16.1,10.2 14.1,9 12.7,4.7 C11.5,1 11.3,-0.1 10.4,-4.5"/>
<path class="Note" transform="matrix(2.3811,0,0,2.3811,1771.16,1451.34)" d="M18.7,-13.6 C4.9,-13.6 0,-6.6 0,-0.1 C0,6.4 4.9,13.4 18.7,13.4 C32.5,13.4 37.3,6.4 37.3,-0.1 C37.3,-6.6 32.5,-13.6 18.7,-13.6 M10.4,-4.5 C10.3,-4.9 10.3,-5.3 10.3,-5.7 C10.3,-6.5 10.5,-7.3 10.9,-8 C11.6,-9 12.8,-9.7 14.3,-10 C15.6,-10.3 16.3,-10.5 18.9,-10.5 L19,-10.5 C23,-10.5 24.3,-6.8 25.4,-3 L25.7,-2 C26.5,0.6 26.9,2.8 26.9,4.5 C26.9,5.7 26.7,6.8 26.3,7.6 C25.7,8.7 24.7,9.4 23,9.8 C22.1,10 20.6,10.1 20.6,10.1 C20.1,10.1 19.7,10.2 19.3,10.2 C16.1,10.2 14.1,9 12.7,4.7 C11.5,1 11.3,-0.1 10.4,-4.5"/>
<path class="Note" transform="matrix(2.3811,0,0,2.3811,1771.16,1391.81)" d="M18.7,-13.6 C4.9,-13.6 0,-6.6 0,-0.1 C0,6.4 4.9,13.4 18.7,13.4 C32.5,13.4 37.3,6.4 37.3,-0.1 C37.3,-6.6 32.5,-13.6 18.7,-13.6 M10.4,-4.5 C10.3,-4.9 10.3,-5.3 10.3,-5.7 C10.3,-6.5 10.5,-7.3 10.9,-8 C11.6,-9 12.8,-9.7 14.3,-10 C15.6,-10.3 16.3,-10.5 18.9,-10.5 L19,-10.5 C23,-10.5 24.3,-6.8 25.4,-3 L25.7,-2 C26.5,0.6 26.9,2.8 26.9,4.5 C26.9,5.7 26.7,6.8 26.3,7.6 C25.7,8.7 24.7,9.4 23,9.8 C22.1,10 20.6,10.1 20.6,10.1 C20.1,10.1 19.7,10.2 19.3,10.2 C16.1,10.2 14.1,9 12.7,4.7 C11.5,1 11.3,-0.1 10.4,-4.5"/>
<path class="Note" transform="matrix(2.3811,0,0,2.3811,1771.16,1332.28)" d="M18.7,-13.6 C4.9,-13.6 0,-6.6 0,-0.1 C0,6.4 4.9,13.4 18.7,13.4 C32.5,13.4 37.3,6.4 37.3,-0.1 C37.3,-6.6 32.5,-13.6 18.7,-13.6 M10.4,-4.5 C10.3,-4.9 10.3,-5.3 10.3,-5.7 C10.3,-6.5 10.5,-7.3 10.9,-8 C11.6,-9 12.8,-9.7 14.3,-10 C15.6,-10.3 16.3,-10.5 18.9,-10.5 L19,-10.5 C23,-10.5 24.3,-6.8 25.4,-3 L25.7,-2 C26.5,0.6 26.9,2.8 26.9,4.5 C26.9,5.7 26.7,6.8 26.3,7.6 C25.7,8.7 24.7,9.4 23,9.8 C22.1,10 20.6,10.1 20.6,10.1 C20.1,10.1 19.7,10.2 19.3,10.2 C16.1,10.2 14.1,9 12.7,4.7 C11.5,1 11.3,-0.1 10.4,-4.5"/>
<path class="Note" transform="matrix(2.3811,0,0,2.3811,2319.89,1451.34)" d="M18.7,-13.6 C4.9,-13.6 0,-6.6 0,-0.1 C0,6.4 4.9,13.4 18.7,13.4 C32.5,13.4 37.3,6.4 37.3,-0.1 C37.3,-6.6 32.5,-13.6 18.7,-13.6 M10.4,-4.5 C10.3,-4.9 10.3,-5.3 10.3,-5.7 C10.3,-6.5 10.5,-7.3 10.9,-8 C11.6,-9 12.8,-9.7 14.3,-10 C15.6,-10.3 16.3,-10.5 18.9,-10.5 L19,-10.5 C23,-10.5 24.3,-6.8 25.4,-3 L25.7,-2 C26.5,0.6 26.9,2.8 26.9,4.5 C26.9,5.7 26.7,6.8 26.3,7.6 C25.7,8.7 24.7,9.4 23,9.8 C22.1,10 20.6,10.1 20.6,10.1 C20.1,10.1 19.7,10.2 19.3,10.2 C16.1,10.2 14.1,9 12.7,4.7 C11.5,1 11.3,-0.1 10.4,-4.5"/>
<path class="Note" transform="matrix(2.3811,0,0,2.3811,2402.15,1421.57)" d="M18.7,-13.6 C4.9,-13.6 0,-6.6 0,-0.1 C0,6.4 4.9,13.4 18.7,13.4 C32.5,13.4 37.3,6.4 37.3,-0.1 C37.3,-6.6 32.5,-13.6 18.7,-13.6 M10.4,-4.5 C10.3,-4.9 10.3,-5.3 10.3,-5.7 C10.3,-6.5 10.5,-7.3 10.9,-8 C11.6,-9 12.8,-9.7 14.3,-10 C15.6,-10.3 16.3,-10.5 18.9,-10.5 L19,-10.5 C23,-10.5 24.3,-6.8 25.4,-3 L25.7,-2 C26.5,0.6 26.9,2.8 26.9,4.5 C26.9,5.7 26.7,6.8 26.3,7.6 C25.7,8.7 24.7,9.4 23,9.8 C22.1,10 20.6,10.1 20.6,10.1 C20.1,10.1 19.7,10.2 19.3,10.2 C16.1,10.2 14.1,9 12.7,4.7 C11.5,1 11.3,-0.1 10.4,-4.5"/>
<path class="Note" transform="matrix(2.3811,0,0,2.3811,2402.15,1332.28)" d="M18.7,-13.6 C4.9,-13.6 0,-6.6 0,-0.1 C0,6.4 4.9,13.4 18.7,13.4 C32.5,13.4 37.3,6.4 37.3,-0.1 C37.3,-6.6 32.5,-13.6 18.7,-13.6 M10.4,-4.5 C10.3,-4.9 10.3,-5.3 10.3,-5.7 C10.3,-6.5 10.5,-7.3 10.9,-8 C11.6,-9 12.8,-9.7 14.3,-10 C15.6,-10.3 16.3,-10.5 18.9,-10.5 L19,-10.5 C23,-10.5 24.3,-6.8 25.4,-3 L25.7,-2 C26.5,0.6 26.9,2.8 26.9,4.5 C26.9,5.7 26.7,6.8 26.3,7.6 C25.7,8.7 24.7,9.4 23,9.8 C22.1,10 20.6,10.1 20.6,10.1 C20.1,10.1 19.7,10.2 19.3,10.2 C16.1,10.2 14.1,9 12.7,4.7 C11.5,1 11.3,-0.1 10.4,-4.5"/>
<path class="Note" transform="matrix(2.3811,0,0,2.3811,2971.7,1481.1)" d="M31.5,-8.1 C29.7,-11.4 25.9,-13.2 21.3,-13.2 C17.9,-13.2 14.2,-12.2 10.6,-10.3 C4,-6.8 0,-0.9 0,4.2 C0,5.6 0.3,7 1,8.3 C2.8,11.6 6.6,13.3 11.2,13.3 C14.6,13.3 18.3,12.4 21.9,10.5 C28.5,7 32.5,1.1 32.5,-4 C32.5,-5.4 32.2,-6.8 31.5,-8.1 M27.2,-1.3 C25.5,0.4 22.1,2.5 18.5,4.5 C14.9,6.5 11.3,8 8.9,8.5 C8.4,8.6 7.9,8.7 7.4,8.7 C5.8,8.7 4.6,8.1 3.9,6.8 C3.6,6.3 3.4,5.7 3.4,5.1 C3.4,4 4.1,2.7 5.2,1.6 C6.9,-0.1 10.2,-2.2 13.8,-4.2 C17.4,-6.2 21,-7.7 23.4,-8.2 C23.9,-8.3 24.4,-8.4 24.9,-8.4 C26.5,-8.4 27.8,-7.8 28.5,-6.5 C28.8,-6 28.9,-5.4 28.9,-4.8 C28.9,-3.7 28.3,-2.5 27.2,-1.3"/>
<path class="Note" transform="matrix(2.3811,0,0,2.3811,2971.7,1421.57)" d="M31.5,-8.1 C29.7,-11.4 25.9,-13.2 21.3,-13.2 C17.9,-13.2 14.2,-12.2 10.6,-10.3 C4,-6.8 0,-0.9 0,4.2 C0,5.6 0.3,7 1,8.3 C2.8,11.6 6.6,13.3 11.2,13.3 C14.6,13.3 18.3,12.4 21.9,10.5 C28.5,7 32.5,1.1 32.5,-4 C32.5,-5.4 32.2,-6.8 31.5,-8.1 M27.2,-1.3 C25.5,0.4 22.1,2.5 18.5,4.5 C14.9,6.5 11.3,8 8.9,8.5 C8.4,8.6 7.9,8.7 7.4,8.7 C5.8,8.7 4.6,8.1 3.9,6.8 C3.6,6.3 3.4,5.7 3.4,5.1 C3.4,4 4.1,2.7 5.2,1.6 C6.9,-0.1 10.2,-2.2 13.8,-4.2 C17.4,-6.2 21,-7.7 23.4,-8.2 C23.9,-8.3 24.4,-8.4 24.9,-8.4 C26.5,-8.4 27.8,-7.8 28.5,-6.5 C28.8,-6 28.9,-5.4 28.9,-4.8 C28.9,-3.7 28.3,-2.5 27.2,-1.3"/>
<path class="Note" transform="matrix(2.3811,0,0,2.3811,2971.7,1332.28)" d="M31.5,-8.1 C29.7,-11.4 25.9,-13.2 21.3,-13.2 C17.9,-13.2 14.2,-12.2 10.6,-10.3 C4,-6.8 0,-0.9 0,4.2 C0,5.6 0.3,7 1,8.3 C2.8,11.6 6.6,13.3 11.2,13.3 C14.6,13.3 18.3,12.4 21.9,10.5 C28.5,7 32.5,1.1 32.5,-4 C32.5,-5.4 32.2,-6.8 31.5,-8.1 M27.2,-1.3 C25.5,0.4 22.1,2.5 18.5,4.5 C14.9,6.5 11.3,8 8.9,8.5 C8.4,8.6 7.9,8.7 7.4,8.7 C5.8,8.7 4.6,8.1 3.9,6.8 C3.6,6.3 3.4,5.7 3.4,5.1 C3.4,4 4.1,2.7 5.2,1.6 C6.9,-0.1 10.2,-2.2 13.8,-4.2 C17.4,-6.2 21,-7.7 23.4,-8.2 C23.9,-8.3 24.4,-8.4 24.9,-8.4 C26.5,-8.4 27.8,-7.8 28.5,-6.5 C28.8,-6 28.9,-5.4 28.9,-4.8 C28.9,-3.7 28.3,-2.5 27.2,-1.3"/>
<path class="Note" transform="matrix(2.3811,0,0,2.3811,3251.94,1362.05)" d="M31.5,-8.1 C29.7,-11.4 25.9,-13.2 21.3,-13.2 C17.9,-13.2 14.2,-12.2 10.6,-10.3 C4,-6.8 0,-0.9 0,4.2 C0,5.6 0.3,7 1,8.3 C2.8,11.6 6.6,13.3 11.2,13.3 C14.6,13.3 18.3,12.4 21.9,10.5 C28.5,7 32.5,1.1 32.5,-4 C32.5,-5.4 32.2,-6.8 31.5,-8.1 M27.2,-1.3 C25.5,0.4 22.1,2.5 18.5,4.5 C14.9,6.5 11.3,8 8.9,8.5 C8.4,8.6 7.9,8.7 7.4,8.7 C5.8,8.7 4.6,8.1 3.9,6.8 C3.6,6.3 3.4,5.7 3.4,5.1 C3.4,4 4.1,2.7 5.2,1.6 C6.9,-0.1 10.2,-2.2 13.8,-4.2 C17.4,-6.2 21,-7.7 23.4,-8.2 C23.9,-8.3 24.4,-8.4 24.9,-8.4 C26.5,-8.4 27.8,-7.8 28.5,-6.5 C28.8,-6 28.9,-5.4 28.9,-4.8 C28.9,-3.7 28.3,-2.5 27.2,-1.3"/>
<path class="Note" transform="matrix(2.3811,0,0,2.3811,3641.11,1451.34)" d="M18.7,-13.6 C4.9,-13.6 0,-6.6 0,-0.1 C0,6.4 4.9,13.4 18.7,13.4 C32.5,13.4 37.3,6.4 37.3,-0.1 C37.3,-6.6 32.5,-13.6 18.7,-13.6 M10.4,-4.5 C10.3,-4.9 10.3,-5.3 10.3,-5.7 C10.3,-6.5 10.5,-7.3 10.9,-8 C11.6,-9 12.8,-9.7 14.3,-10 C15.6,-10.3 16.3,-10.5 18.9,-10.5 L19,-10.5 C23,-10.5 24.3,-6.8 25.4,-3 L25.7,-2 C26.5,0.6 26.9,2.8 26.9,4.5 C26.9,5.7 26.7,6.8 26.3,7.6 C25.7,8.7 24.7,9.4 23,9.8 C22.1,10 20.6,10.1 20.6,10.1 C20.1,10.1 19.7,10.2 19.3,10.2 C16.1,10.2 14.1,9 12.7,4.7 C11.5,1 11.3,-0.1 10.4,-4.5"/>
<path class="Note" transform="matrix(2.3811,0,0,2.3811,3641.11,1391.81)" d="M18.7,-13.6 C4.9,-13.6 0,-6.6 0,-0.1 C0,6.4 4.9,13.4 18.7,13.4 C32.5,13.4 37.3,6.4 37.3,-0.1 C37.3,-6.6 32.5,-13.6 18.7,-13.6 M10.4,-4.5 C10.3,-4.9 10.3,-5.3 10.3,-5.7 C10.3,-6.5 10.5,-7.3 10.9,-8 C11.6,-9 12.8,-9.7 14.3,-10 C15.6,-10.3 16.3,-10.5 18.9,-10.5 L19,-10.5 C23,-10.5 24.3,-6.8 25.4,-3 L25.7,-2 C26.5,0.6 26.9,2.8 26.9,4.5 C26.9,5.7 26.7,6.8 26.3,7.6 C25.7,8.7 24.7,9.4 23,9.8 C22.1,10 20.6,10.1 20.6,10.1 C20.1,10.1 19.7,10.2 19.3,10.2 C16.1,10.2 14.1,9 12.7,4.7 C11.5,1 11.3,-0.1 10.4,-4.5"/>
<path class="Note" transform="matrix(2.3811,0,0,2.3811,3641.11,1332.28)" d="M18.7,-13.6 C4.9,-13.6 0,-6.6 0,-0.1 C0,6.4 4.9,13.4 18.7,13.4 C32.5,13.4 37.3,6.4 37.3,-0.1 C37.3,-6.6 32.5,-13.6 18.7,-13.6 M10.4,-4.5 C10.3,-4.9 10.3,-5.3 10.3,-5.7 C10.3,-6.5 10.5,-7.3 10.9,-8 C11.6,-9 12.8,-9.7 14.3,-10 C15.6,-10.3 16.3,-10.5 18.9,-10.5 L19,-10.5 C23,-10.5 24.3,-6.8 25.4,-3 L25.7,-2 C26.5,0.6 26.9,2.8 26.9,4.5 C26.9,5.7 26.7,6.8 26.3,7.6 C25.7,8.7 24.7,9.4 23,9.8 C22.1,10 20.6,10.1 20.6,10.1 C20.1,10.1 19.7,10.2 19.3,10.2 C16.1,10.2 14.1,9 12.7,4.7 C11.5,1 11.3,-0.1 10.4,-4.5"/>
<path class="Note" d="M726.587,851.839 C731.158,851.839 733.443,854.705 733.443,860.438 C733.443,864.467 730.925,870.471 725.889,878.451 C721.861,884.881 719.846,891.157 719.846,897.277 C719.846,900.763 724.921,902.507 735.07,902.507 C743.437,902.507 755.097,897.974 770.049,888.91 C755.019,903.398 741.965,910.641 730.886,910.641 C720.892,910.641 713.92,909.131 709.968,906.109 C708.961,905.334 708.109,904.405 707.412,903.32 C703.538,908.046 697.069,910.409 688.005,910.409 C679.327,910.409 672.665,908.627 668.016,905.063 C664.917,902.662 663.368,898.827 663.368,893.558 C663.368,885.191 668.326,876.049 678.243,866.133 C688.857,855.519 701.136,850.212 715.082,850.212 C718.568,850.212 721.125,851.49 722.752,854.047 C724.069,852.575 725.347,851.839 726.587,851.839 M705.785,898.091 C705.707,897.471 705.669,896.851 705.669,896.231 C705.669,895.921 709.62,885.114 717.522,863.808 C718.297,861.717 719.072,859.935 719.846,858.463 C716.825,857.843 713.842,857.533 710.898,857.533 C705.475,857.533 698.27,862.143 689.283,871.362 C681.226,879.574 677.197,886.663 677.197,892.629 C677.197,899.214 680.335,902.507 686.61,902.507 C694.202,902.507 700.594,901.035 705.785,898.091"/>
<path class="Note" d="M703.344,536.667 C705.824,536.667 707.528,537.287 708.458,538.526 C709.852,540.618 710.549,543.562 710.549,547.358 C710.549,551.774 707.45,562.349 701.253,579.084 C691.103,607.517 686.029,622.585 686.029,624.29 C686.029,628.861 687.85,631.185 691.491,631.263 C693.04,631.263 696.992,628.861 703.344,624.057 C709.62,619.486 714.462,617.201 717.871,617.201 C719.265,617.201 719.963,618.053 719.963,619.758 C719.963,622.624 716.128,626.382 708.458,631.03 C695.907,638.7 687.23,642.535 682.426,642.535 C674.756,642.535 670.922,639.513 670.922,633.471 C670.922,633.316 676.228,615.535 686.842,580.13 C693.273,558.824 697.185,544.957 698.58,538.526 C698.812,537.287 700.4,536.667 703.344,536.667"/>
<path class="Note" d="M703.344,715.249 C705.824,715.249 707.528,715.869 708.458,717.109 C709.852,719.201 710.549,722.145 710.549,725.941 C710.549,730.357 707.45,740.932 701.253,757.666 C691.103,786.099 686.029,801.168 686.029,802.873 C686.029,807.443 687.85,809.768 691.491,809.845 C693.04,809.845 696.992,807.443 703.344,802.64 C709.62,798.069 714.462,795.784 717.871,795.784 C719.265,795.784 719.963,796.636 719.963,798.34 C719.963,801.207 716.128,804.964 708.458,809.613 C695.907,817.283 687.23,821.118 682.426,821.118 C674.756,821.118 670.922,818.096 670.922,812.053 C670.922,811.898 676.228,794.118 686.842,758.712 C693.273,737.407 697.185,723.539 698.58,717.109 C698.812,715.869 700.4,715.249 703.344,715.249"/>
<path class="Note" d="M703.344,625.958 C705.824,625.958 707.528,626.578 708.458,627.818 C709.852,629.909 710.549,632.853 710.549,636.65 C710.549,641.066 707.45,651.641 701.253,668.375 C691.103,696.808 686.029,711.877 686.029,713.581 C686.029,718.152 687.85,720.476 691.491,720.554 C693.04,720.554 696.992,718.152 703.344,713.349 C709.62,708.778 714.462,706.492 717.871,706.492 C719.265,706.492 719.963,707.345 719.963,709.049 C719.963,711.916 716.128,715.673 708.458,720.321 C695.907,727.991 687.23,731.826 682.426,731.826 C674.756,731.826 670.922,728.805 670.922,722.762 C670.922,722.607 676.228,704.827 686.842,669.421 C693.273,648.116 697.185,634.248 698.58,627.818 C698.812,626.578 700.4,625.958 703.344,625.958"/>
<path class="Note" d="M1244.1,910.409 C1239.92,910.409 1237.82,908.511 1237.82,904.715 C1237.82,898.284 1238.79,893.558 1240.73,890.537 C1248.79,878.606 1266.29,856.293 1293.26,823.599 C1305.42,808.802 1321.11,801.403 1340.32,801.403 C1347.76,801.403 1352.91,802.449 1355.78,804.541 C1360.19,807.795 1362.4,811.707 1362.4,816.278 C1362.4,821.082 1358.53,826.427 1350.78,832.315 C1343.42,837.893 1336.45,840.682 1329.86,840.682 C1327.31,840.682 1326.03,840.411 1326.03,839.869 C1326.03,839.094 1327.27,838.281 1329.75,837.429 C1333.08,836.189 1336.64,833.671 1340.44,829.875 C1344.78,825.459 1346.95,821.469 1346.95,817.905 C1346.95,815.503 1345.28,813.218 1341.95,811.049 C1339,809.189 1334.24,808.26 1327.65,808.26 C1318.05,808.26 1305.92,817.944 1291.28,837.312 C1281.52,850.25 1273.62,861.639 1267.57,871.478 C1270.52,869.851 1274.04,867.876 1278.15,865.552 C1283.18,862.685 1287.52,861.252 1291.16,861.252 C1300.23,861.252 1304.76,864.506 1304.76,871.013 C1304.76,877.444 1301.04,884.494 1293.6,892.164 C1288.34,897.587 1285.7,901.616 1285.7,904.25 C1285.7,906.961 1288.34,908.317 1293.6,908.317 C1296.24,908.317 1298.95,907.388 1301.74,905.528 C1304.53,903.746 1306.58,902.855 1307.9,902.855 C1308.98,902.855 1309.53,903.553 1309.53,904.947 C1309.53,907.194 1307.36,909.557 1303.02,912.036 C1295.74,916.22 1289.89,918.311 1285.47,918.311 C1277.64,918.311 1273.73,914.128 1273.73,905.761 C1273.73,900.492 1276.75,894.643 1282.8,888.213 C1287.21,883.487 1289.42,878.8 1289.42,874.151 C1289.42,870.123 1287.25,868.108 1282.91,868.108 C1281.21,868.108 1275.55,870.123 1265.95,874.151 C1263.08,878.955 1260.68,883.371 1258.74,887.399 C1251.38,902.739 1246.5,910.409 1244.1,910.409"/>
<path class="Note" d="M1304.99,568.625 C1307.39,568.625 1309.14,569.128 1310.22,570.136 C1311.46,571.22 1312.08,572.808 1312.08,574.9 C1312.08,577.534 1310.92,579.781 1308.6,581.64 C1298.52,588.768 1288.18,597.832 1277.57,608.834 C1279.97,619.448 1282.91,627.311 1286.4,632.425 C1290.97,639.165 1294.11,642.535 1295.81,642.535 C1297.36,642.535 1299.03,641.567 1300.81,639.63 C1302.05,638.313 1303.25,637.654 1304.41,637.654 C1306.89,637.654 1308.13,638.971 1308.13,641.605 C1308.13,644.394 1305.92,648.191 1301.51,652.994 C1299.11,655.473 1296.59,656.713 1293.95,656.713 C1288.53,656.713 1283.07,651.638 1277.57,641.489 C1271.99,631.263 1268.15,621.617 1266.06,612.553 C1262.19,624.484 1260.25,631.805 1260.25,634.516 C1260.25,639.862 1257.19,642.535 1251.07,642.535 C1247.74,642.535 1246.07,639.436 1246.07,633.238 C1246.07,630.294 1249.75,617.124 1257.11,593.726 C1260.76,582.26 1263.74,574.242 1266.06,569.671 C1266.6,568.741 1268,568.276 1270.25,568.276 C1272.88,568.276 1274.7,568.818 1275.71,569.903 C1276.72,570.988 1277.22,573.235 1277.22,576.643 C1277.22,578.348 1275.55,584.236 1272.22,594.307 C1280.51,586.173 1289.85,578.232 1300.23,570.484 C1301.86,569.245 1303.44,568.625 1304.99,568.625"/>
<path class="Note" d="M1304.99,747.207 C1307.39,747.207 1309.14,747.711 1310.22,748.718 C1311.46,749.803 1312.08,751.391 1312.08,753.483 C1312.08,756.117 1310.92,758.364 1308.6,760.223 C1298.52,767.351 1288.18,776.415 1277.57,787.416 C1279.97,798.03 1282.91,805.894 1286.4,811.007 C1290.97,817.748 1294.11,821.118 1295.81,821.118 C1297.36,821.118 1299.03,820.149 1300.81,818.212 C1302.05,816.895 1303.25,816.237 1304.41,816.237 C1306.89,816.237 1308.13,817.554 1308.13,820.188 C1308.13,822.977 1305.92,826.773 1301.51,831.577 C1299.11,834.056 1296.59,835.295 1293.95,835.295 C1288.53,835.295 1283.07,830.221 1277.57,820.072 C1271.99,809.845 1268.15,800.2 1266.06,791.135 C1262.19,803.066 1260.25,810.388 1260.25,813.099 C1260.25,818.445 1257.19,821.118 1251.07,821.118 C1247.74,821.118 1246.07,818.019 1246.07,811.821 C1246.07,808.877 1249.75,795.706 1257.11,772.309 C1260.76,760.843 1263.74,752.824 1266.06,748.253 C1266.6,747.324 1268,746.859 1270.25,746.859 C1272.88,746.859 1274.7,747.401 1275.71,748.486 C1276.72,749.57 1277.22,751.817 1277.22,755.226 C1277.22,756.93 1275.55,762.818 1272.22,772.89 C1280.51,764.755 1289.85,756.814 1300.23,749.067 C1301.86,747.827 1303.44,747.207 1304.99,747.207"/>
<path class="Note" d="M1278.61,625.958 C1281.09,625.958 1282.8,626.578 1283.73,627.818 C1285.12,629.909 1285.82,632.853 1285.82,636.65 C1285.82,641.066 1282.72,651.641 1276.52,668.375 C1266.37,696.808 1261.3,711.877 1261.3,713.581 C1261.3,718.152 1263.12,720.476 1266.76,720.554 C1268.31,720.554 1272.26,718.152 1278.61,713.349 C1284.89,708.778 1289.73,706.492 1293.14,706.492 C1294.53,706.492 1295.23,707.345 1295.23,709.049 C1295.23,711.916 1291.4,715.673 1283.73,720.321 C1271.18,727.991 1262.5,731.826 1257.7,731.826 C1250.03,731.826 1246.19,728.805 1246.19,722.762 C1246.19,722.607 1251.5,704.827 1262.11,669.421 C1268.54,648.116 1272.45,634.248 1273.85,627.818 C1274.08,626.578 1275.67,625.958 1278.61,625.958"/>
<path class="Note" d="M1792.22,910.409 C1788.03,910.409 1785.94,908.511 1785.94,904.715 C1785.94,898.284 1786.91,893.558 1788.85,890.537 C1796.9,878.606 1814.41,856.293 1841.37,823.599 C1853.54,808.802 1869.23,801.403 1888.44,801.403 C1895.88,801.403 1901.03,802.449 1903.9,804.541 C1908.31,807.795 1910.52,811.707 1910.52,816.278 C1910.52,821.082 1906.65,826.427 1898.9,832.315 C1891.54,837.893 1884.57,840.682 1877.98,840.682 C1875.42,840.682 1874.15,840.411 1874.15,839.869 C1874.15,839.094 1875.39,838.281 1877.86,837.429 C1881.2,836.189 1884.76,833.671 1888.56,829.875 C1892.89,825.459 1895.06,821.469 1895.06,817.905 C1895.06,815.503 1893.4,813.218 1890.07,811.049 C1887.12,809.189 1882.36,808.26 1875.77,808.26 C1866.17,808.26 1854.04,817.944 1839.4,837.312 C1829.64,850.25 1821.74,861.639 1815.69,871.478 C1818.64,869.851 1822.16,867.876 1826.27,865.552 C1831.3,862.685 1835.64,861.252 1839.28,861.252 C1848.35,861.252 1852.88,864.506 1852.88,871.013 C1852.88,877.444 1849.16,884.494 1841.72,892.164 C1836.46,897.587 1833.82,901.616 1833.82,904.25 C1833.82,906.961 1836.46,908.317 1841.72,908.317 C1844.36,908.317 1847.07,907.388 1849.86,905.528 C1852.65,903.746 1854.7,902.855 1856.02,902.855 C1857.1,902.855 1857.64,903.553 1857.64,904.947 C1857.64,907.194 1855.47,909.557 1851.14,912.036 C1843.85,916.22 1838,918.311 1833.59,918.311 C1825.76,918.311 1821.85,914.128 1821.85,905.761 C1821.85,900.492 1824.87,894.643 1830.92,888.213 C1835.33,883.487 1837.54,878.8 1837.54,874.151 C1837.54,870.123 1835.37,868.108 1831.03,868.108 C1829.33,868.108 1823.67,870.123 1814.07,874.151 C1811.2,878.955 1808.8,883.371 1806.86,887.399 C1799.5,902.739 1794.62,910.409 1792.22,910.409"/>
<path class="Note" d="M1826.73,536.667 C1829.21,536.667 1830.92,537.287 1831.85,538.526 C1833.24,540.618 1833.94,543.562 1833.94,547.358 C1833.94,551.774 1830.84,562.349 1824.64,579.084 C1814.49,607.517 1809.42,622.585 1809.42,624.29 C1809.42,628.861 1811.24,631.185 1814.88,631.263 C1816.43,631.263 1820.38,628.861 1826.73,624.057 C1833.01,619.486 1837.85,617.201 1841.26,617.201 C1842.65,617.201 1843.35,618.053 1843.35,619.758 C1843.35,622.624 1839.52,626.382 1831.85,631.03 C1819.29,638.7 1810.62,642.535 1805.81,642.535 C1798.14,642.535 1794.31,639.513 1794.31,633.471 C1794.31,633.316 1799.62,615.535 1810.23,580.13 C1816.66,558.824 1820.57,544.957 1821.97,538.526 C1822.2,537.287 1823.79,536.667 1826.73,536.667"/>
<path class="Note" d="M1826.73,715.249 C1829.21,715.249 1830.92,715.869 1831.85,717.109 C1833.24,719.201 1833.94,722.145 1833.94,725.941 C1833.94,730.357 1830.84,740.932 1824.64,757.666 C1814.49,786.099 1809.42,801.168 1809.42,802.873 C1809.42,807.443 1811.24,809.768 1814.88,809.845 C1816.43,809.845 1820.38,807.443 1826.73,802.64 C1833.01,798.069 1837.85,795.784 1841.26,795.784 C1842.65,795.784 1843.35,796.636 1843.35,798.34 C1843.35,801.207 1839.52,804.964 1831.85,809.613 C1819.29,817.283 1810.62,821.118 1805.81,821.118 C1798.14,821.118 1794.31,818.096 1794.31,812.053 C1794.31,811.898 1799.62,794.118 1810.23,758.712 C1816.66,737.407 1820.57,723.539 1821.97,717.109 C1822.2,715.869 1823.79,715.249 1826.73,715.249"/>
<path class="Note" d="M1826.73,625.958 C1829.21,625.958 1830.92,626.578 1831.85,627.818 C1833.24,629.909 1833.94,632.853 1833.94,636.65 C1833.94,641.066 1830.84,651.641 1824.64,668.375 C1814.49,696.808 1809.42,711.877 1809.42,713.581 C1809.42,718.152 1811.24,720.476 1814.88,720.554 C1816.43,720.554 1820.38,718.152 1826.73,713.349 C1833.01,708.778 1837.85,706.492 1841.26,706.492 C1842.65,706.492 1843.35,707.345 1843.35,709.049 C1843.35,711.916 1839.52,715.673 1831.85,720.321 C1819.29,727.991 1810.62,731.826 1805.81,731.826 C1798.14,731.826 1794.31,728.805 1794.31,722.762 C1794.31,722.607 1799.62,704.827 1810.23,669.421 C1816.66,648.116 1820.57,634.248 1821.97,627.818 C1822.2,626.578 1823.79,625.958 1826.73,625.958"/>
<path class="Note" d="M2423.22,910.409 C2419.03,910.409 2416.94,908.511 2416.94,904.715 C2416.94,898.284 2417.91,893.558 2419.85,890.537 C2427.9,878.606 2445.41,856.293 2472.37,823.599 C2484.54,808.802 2500.22,801.403 2519.44,801.403 C2526.88,801.403 2532.03,802.449 2534.89,804.541 C2539.31,807.795 2541.52,811.707 2541.52,816.278 C2541.52,821.082 2537.64,826.427 2529.9,832.315 C2522.54,837.893 2515.56,840.682 2508.98,840.682 C2506.42,840.682 2505.14,840.411 2505.14,839.869 C2505.14,839.094 2506.38,838.281 2508.86,837.429 C2512.19,836.189 2515.76,833.671 2519.55,829.875 C2523.89,825.459 2526.06,821.469 2526.06,817.905 C2526.06,815.503 2524.4,813.218 2521.06,811.049 C2518.12,809.189 2513.36,808.26 2506.77,808.26 C2497.16,808.26 2485.04,817.944 2470.4,837.312 C2460.64,850.25 2452.73,861.639 2446.69,871.478 C2449.63,869.851 2453.16,867.876 2457.27,865.552 C2462.3,862.685 2466.64,861.252 2470.28,861.252 C2479.35,861.252 2483.88,864.506 2483.88,871.013 C2483.88,877.444 2480.16,884.494 2472.72,892.164 C2467.45,897.587 2464.82,901.616 2464.82,904.25 C2464.82,906.961 2467.45,908.317 2472.72,908.317 C2475.36,908.317 2478.07,907.388 2480.86,905.528 C2483.65,903.746 2485.7,902.855 2487.02,902.855 C2488.1,902.855 2488.64,903.553 2488.64,904.947 C2488.64,907.194 2486.47,909.557 2482.13,912.036 C2474.85,916.22 2469,918.311 2464.59,918.311 C2456.76,918.311 2452.85,914.128 2452.85,905.761 C2452.85,900.492 2455.87,894.643 2461.91,888.213 C2466.33,883.487 2468.54,878.8 2468.54,874.151 C2468.54,870.123 2466.37,868.108 2462.03,868.108 C2460.33,868.108 2454.67,870.123 2445.06,874.151 C2442.2,878.955 2439.79,883.371 2437.86,887.399 C2430.5,902.739 2425.62,910.409 2423.22,910.409"/>
<path class="Note" d="M2457.73,536.667 C2460.21,536.667 2461.91,537.287 2462.84,538.526 C2464.24,540.618 2464.94,543.562 2464.94,547.358 C2464.94,551.774 2461.84,562.349 2455.64,579.084 C2445.49,607.517 2440.41,622.585 2440.41,624.29 C2440.41,628.861 2442.24,631.185 2445.88,631.263 C2447.43,631.263 2451.38,628.861 2457.73,624.057 C2464.01,619.486 2468.85,617.201 2472.26,617.201 C2473.65,617.201 2474.35,618.053 2474.35,619.758 C2474.35,622.624 2470.51,626.382 2462.84,631.03 C2450.29,638.7 2441.62,642.535 2436.81,642.535 C2429.14,642.535 2425.31,639.513 2425.31,633.471 C2425.31,633.316 2430.61,615.535 2441.23,580.13 C2447.66,558.824 2451.57,544.957 2452.97,538.526 C2453.2,537.287 2454.79,536.667 2457.73,536.667"/>
<path class="Note" d="M2484.11,747.207 C2486.51,747.207 2488.25,747.711 2489.34,748.718 C2490.58,749.803 2491.2,751.391 2491.2,753.483 C2491.2,756.117 2490.04,758.364 2487.71,760.223 C2477.64,767.351 2467.3,776.415 2456.68,787.416 C2459.09,798.03 2462.03,805.894 2465.52,811.007 C2470.09,817.748 2473.22,821.118 2474.93,821.118 C2476.48,821.118 2478.14,820.149 2479.93,818.212 C2481.17,816.895 2482.37,816.237 2483.53,816.237 C2486.01,816.237 2487.25,817.554 2487.25,820.188 C2487.25,822.977 2485.04,826.773 2480.62,831.577 C2478.22,834.056 2475.7,835.295 2473.07,835.295 C2467.65,835.295 2462.18,830.221 2456.68,820.072 C2451.11,809.845 2447.27,800.2 2445.18,791.135 C2441.31,803.066 2439.37,810.388 2439.37,813.099 C2439.37,818.445 2436.31,821.118 2430.19,821.118 C2426.86,821.118 2425.19,818.019 2425.19,811.821 C2425.19,808.877 2428.87,795.706 2436.23,772.309 C2439.87,760.843 2442.86,752.824 2445.18,748.253 C2445.72,747.324 2447.12,746.859 2449.36,746.859 C2452,746.859 2453.82,747.401 2454.82,748.486 C2455.83,749.57 2456.34,751.817 2456.34,755.226 C2456.34,756.93 2454.67,762.818 2451.34,772.89 C2459.63,764.755 2468.96,756.814 2479.35,749.067 C2480.97,747.827 2482.56,747.207 2484.11,747.207"/>
<path class="Note" d="M2457.73,625.958 C2460.21,625.958 2461.91,626.578 2462.84,627.818 C2464.24,629.909 2464.94,632.853 2464.94,636.65 C2464.94,641.066 2461.84,651.641 2455.64,668.375 C2445.49,696.808 2440.41,711.877 2440.41,713.581 C2440.41,718.152 2442.24,720.476 2445.88,720.554 C2447.43,720.554 2451.38,718.152 2457.73,713.349 C2464.01,708.778 2468.85,706.492 2472.26,706.492 C2473.65,706.492 2474.35,707.345 2474.35,709.049 C2474.35,711.916 2470.51,715.673 2462.84,720.321 C2450.29,727.991 2441.62,731.826 2436.81,731.826 C2429.14,731.826 2425.31,728.805 2425.31,722.762 C2425.31,722.607 2430.61,704.827 2441.23,669.421 C2447.66,648.116 2451.57,634.248 2452.97,627.818 C2453.2,626.578 2454.79,625.958 2457.73,625.958"/>
<path class="Note" d="M2987.04,910.409 C2982.86,910.409 2980.77,908.511 2980.77,904.715 C2980.77,898.284 2981.74,893.558 2983.67,890.537 C2991.73,878.606 3009.24,856.293 3036.2,823.599 C3048.36,808.802 3064.05,801.403 3083.27,801.403 C3090.7,801.403 3095.86,802.449 3098.72,804.541 C3103.14,807.795 3105.35,811.707 3105.35,816.278 C3105.35,821.082 3101.47,826.427 3093.73,832.315 C3086.37,837.893 3079.39,840.682 3072.81,840.682 C3070.25,840.682 3068.97,840.411 3068.97,839.869 C3068.97,839.094 3070.21,838.281 3072.69,837.429 C3076.02,836.189 3079.59,833.671 3083.38,829.875 C3087.72,825.459 3089.89,821.469 3089.89,817.905 C3089.89,815.503 3088.22,813.218 3084.89,811.049 C3081.95,809.189 3077.18,808.26 3070.6,808.26 C3060.99,808.26 3048.87,817.944 3034.23,837.312 C3024.46,850.25 3016.56,861.639 3010.52,871.478 C3013.46,869.851 3016.99,867.876 3021.09,865.552 C3026.13,862.685 3030.47,861.252 3034.11,861.252 C3043.17,861.252 3047.71,864.506 3047.71,871.013 C3047.71,877.444 3043.99,884.494 3036.55,892.164 C3031.28,897.587 3028.65,901.616 3028.65,904.25 C3028.65,906.961 3031.28,908.317 3036.55,908.317 C3039.18,908.317 3041.9,907.388 3044.68,905.528 C3047.47,903.746 3049.53,902.855 3050.84,902.855 C3051.93,902.855 3052.47,903.553 3052.47,904.947 C3052.47,907.194 3050.3,909.557 3045.96,912.036 C3038.68,916.22 3032.83,918.311 3028.41,918.311 C3020.59,918.311 3016.68,914.128 3016.68,905.761 C3016.68,900.492 3019.7,894.643 3025.74,888.213 C3030.16,883.487 3032.37,878.8 3032.37,874.151 C3032.37,870.123 3030.2,868.108 3025.86,868.108 C3024.15,868.108 3018.5,870.123 3008.89,874.151 C3006.02,878.955 3003.62,883.371 3001.69,887.399 C2994.33,902.739 2989.45,910.409 2987.04,910.409"/>
<path class="Note" d="M3047.94,568.625 C3050.34,568.625 3052.08,569.128 3053.17,570.136 C3054.41,571.22 3055.03,572.808 3055.03,574.9 C3055.03,577.534 3053.87,579.781 3051.54,581.64 C3041.47,588.768 3031.13,597.832 3020.51,608.834 C3022.91,619.448 3025.86,627.311 3029.34,632.425 C3033.92,639.165 3037.05,642.535 3038.76,642.535 C3040.31,642.535 3041.97,641.567 3043.75,639.63 C3044.99,638.313 3046.2,637.654 3047.36,637.654 C3049.84,637.654 3051.08,638.971 3051.08,641.605 C3051.08,644.394 3048.87,648.191 3044.45,652.994 C3042.05,655.473 3039.53,656.713 3036.9,656.713 C3031.48,656.713 3026.01,651.638 3020.51,641.489 C3014.93,631.263 3011.1,621.617 3009.01,612.553 C3005.13,624.484 3003.2,631.805 3003.2,634.516 C3003.2,639.862 3000.14,642.535 2994.02,642.535 C2990.69,642.535 2989.02,639.436 2989.02,633.238 C2989.02,630.294 2992.7,617.124 3000.06,593.726 C3003.7,582.26 3006.68,574.242 3009.01,569.671 C3009.55,568.741 3010.94,568.276 3013.19,568.276 C3015.83,568.276 3017.65,568.818 3018.65,569.903 C3019.66,570.988 3020.16,573.235 3020.16,576.643 C3020.16,578.348 3018.5,584.236 3015.17,594.307 C3023.46,586.173 3032.79,578.232 3043.17,570.484 C3044.8,569.245 3046.39,568.625 3047.94,568.625"/>
<path class="Note" d="M3047.94,747.207 C3050.34,747.207 3052.08,747.711 3053.17,748.718 C3054.41,749.803 3055.03,751.391 3055.03,753.483 C3055.03,756.117 3053.87,758.364 3051.54,760.223 C3041.47,767.351 3031.13,776.415 3020.51,787.416 C3022.91,798.03 3025.86,805.894 3029.34,811.007 C3033.92,817.748 3037.05,821.118 3038.76,821.118 C3040.31,821.118 3041.97,820.149 3043.75,818.212 C3044.99,816.895 3046.2,816.237 3047.36,816.237 C3049.84,816.237 3051.08,817.554 3051.08,820.188 C3051.08,822.977 3048.87,826.773 3044.45,831.577 C3042.05,834.056 3039.53,835.295 3036.9,835.295 C3031.48,835.295 3026.01,830.221 3020.51,820.072 C3014.93,809.845 3011.1,800.2 3009.01,791.135 C3005.13,803.066 3003.2,810.388 3003.2,813.099 C3003.2,818.445 3000.14,821.118 2994.02,821.118 C2990.69,821.118 2989.02,818.019 2989.02,811.821 C2989.02,808.877 2992.7,795.706 3000.06,772.309 C3003.7,760.843 3006.68,752.824 3009.01,748.253 C3009.55,747.324 3010.94,746.859 3013.19,746.859 C3015.83,746.859 3017.65,747.401 3018.65,748.486 C3019.66,749.57 3020.16,751.817 3020.16,755.226 C3020.16,756.93 3018.5,762.818 3015.17,772.89 C3023.46,764.755 3032.79,756.814 3043.17,749.067 C3044.8,747.827 3046.39,747.207 3047.94,747.207"/>
<path class="Note" d="M3021.56,625.958 C3024.04,625.958 3025.74,626.578 3026.67,627.818 C3028.07,629.909 3028.76,632.853 3028.76,636.65 C3028.76,641.066 3025.66,651.641 3019.47,668.375 C3009.32,696.808 3004.24,711.877 3004.24,713.581 C3004.24,718.152 3006.06,720.476 3009.7,720.554 C3011.25,720.554 3015.21,718.152 3021.56,713.349 C3027.83,708.778 3032.68,706.492 3036.08,706.492 C3037.48,706.492 3038.18,707.345 3038.18,709.049 C3038.18,711.916 3034.34,715.673 3026.67,720.321 C3014.12,727.991 3005.44,731.826 3000.64,731.826 C2992.97,731.826 2989.14,728.805 2989.14,722.762 C2989.14,722.607 2994.44,704.827 3005.06,669.421 C3011.49,648.116 3015.4,634.248 3016.79,627.818 C3017.03,626.578 3018.61,625.958 3021.56,625.958"/>
<path class="Note" d="M3301.8,447.375 C3304.28,447.375 3305.98,447.995 3306.91,449.235 C3308.3,451.327 3309,454.271 3309,458.067 C3309,462.483 3305.9,473.058 3299.7,489.792 C3289.56,518.225 3284.48,533.294 3284.48,534.999 C3284.48,539.569 3286.3,541.894 3289.94,541.971 C3291.49,541.971 3295.44,539.569 3301.8,534.766 C3308.07,530.195 3312.91,527.91 3316.32,527.91 C3317.72,527.91 3318.41,528.762 3318.41,530.466 C3318.41,533.333 3314.58,537.09 3306.91,541.739 C3294.36,549.409 3285.68,553.244 3280.88,553.244 C3273.21,553.244 3269.37,550.222 3269.37,544.179 C3269.37,544.024 3274.68,526.244 3285.29,490.838 C3291.73,469.533 3295.64,455.665 3297.03,449.235 C3297.26,447.995 3298.85,447.375 3301.8,447.375"/>
<path class="Note" d="M3719.93,851.839 C3724.5,851.839 3726.79,854.705 3726.79,860.438 C3726.79,864.467 3724.27,870.471 3719.24,878.451 C3715.21,884.881 3713.19,891.157 3713.19,897.277 C3713.19,900.763 3718.27,902.507 3728.42,902.507 C3736.78,902.507 3748.44,897.974 3763.4,888.91 C3748.37,903.398 3735.31,910.641 3724.23,910.641 C3714.24,910.641 3707.27,909.131 3703.31,906.109 C3702.31,905.334 3701.46,904.405 3700.76,903.32 C3696.88,908.046 3690.42,910.409 3681.35,910.409 C3672.67,910.409 3666.01,908.627 3661.36,905.063 C3658.26,902.662 3656.71,898.827 3656.71,893.558 C3656.71,885.191 3661.67,876.049 3671.59,866.133 C3682.2,855.519 3694.48,850.212 3708.43,850.212 C3711.91,850.212 3714.47,851.49 3716.1,854.047 C3717.41,852.575 3718.69,851.839 3719.93,851.839 M3699.13,898.091 C3699.05,897.471 3699.01,896.851 3699.01,896.231 C3699.01,895.921 3702.97,885.114 3710.87,863.808 C3711.64,861.717 3712.42,859.935 3713.19,858.463 C3710.17,857.843 3707.19,857.533 3704.24,857.533 C3698.82,857.533 3691.62,862.143 3682.63,871.362 C3674.57,879.574 3670.54,886.663 3670.54,892.629 C3670.54,899.214 3673.68,902.507 3679.96,902.507 C3687.55,902.507 3693.94,901.035 3699.13,898.091"/>
<path class="Note" d="M3696.69,536.667 C3699.17,536.667 3700.87,537.287 3701.8,538.526 C3703.2,540.618 3703.9,543.562 3703.9,547.358 C3703.9,551.774 3700.8,562.349 3694.6,579.084 C3684.45,607.517 3679.38,622.585 3679.38,624.29 C3679.38,628.861 3681.2,631.185 3684.84,631.263 C3686.39,631.263 3690.34,628.861 3696.69,624.057 C3702.97,619.486 3707.81,617.201 3711.22,617.201 C3712.61,617.201 3713.31,618.053 3713.31,619.758 C3713.31,622.624 3709.47,626.382 3701.8,631.03 C3689.25,638.7 3680.58,642.535 3675.77,642.535 C3668.1,642.535 3664.27,639.513 3664.27,633.471 C3664.27,633.316 3669.57,615.535 3680.19,580.13 C3686.62,558.824 3690.53,544.957 3691.93,538.526 C3692.16,537.287 3693.75,536.667 3696.69,536.667"/>
<path class="Note" d="M3696.69,715.249 C3699.17,715.249 3700.87,715.869 3701.8,717.109 C3703.2,719.201 3703.9,722.145 3703.9,725.941 C3703.9,730.357 3700.8,740.932 3694.6,757.666 C3684.45,786.099 3679.38,801.168 3679.38,802.873 C3679.38,807.443 3681.2,809.768 3684.84,809.845 C3686.39,809.845 3690.34,807.443 3696.69,802.64 C3702.97,798.069 3707.81,795.784 3711.22,795.784 C3712.61,795.784 3713.31,796.636 3713.31,798.34 C3713.31,801.207 3709.47,804.964 3701.8,809.613 C3689.25,817.283 3680.58,821.118 3675.77,821.118 C3668.1,821.118 3664.27,818.096 3664.27,812.053 C3664.27,811.898 3669.57,794.118 3680.19,758.712 C3686.62,737.407 3690.53,723.539 3691.93,717.109 C3692.16,715.869 3693.75,715.249 3696.69,715.249"/>
<path class="Note" d="M3696.69,625.958 C3699.17,625.958 3700.87,626.578 3701.8,627.818 C3703.2,629.909 3703.9,632.853 3703.9,636.65 C3703.9,641.066 3700.8,651.641 3694.6,668.375 C3684.45,696.808 3679.38,711.877 3679.38,713.581 C3679.38,718.152 3681.2,720.476 3684.84,720.554 C3686.39,720.554 3690.34,718.152 3696.69,713.349 C3702.97,708.778 3707.81,706.492 3711.22,706.492 C3712.61,706.492 3713.31,707.345 3713.31,709.049 C3713.31,711.916 3709.47,715.673 3701.8,720.321 C3689.25,727.991 3680.58,731.826 3675.77,731.826 C3668.1,731.826 3664.27,728.805 3664.27,722.762 C3664.27,722.607 3669.57,704.827 3680.19,669.421 C3686.62,648.116 3690.53,634.248 3691.93,627.818 C3692.16,626.578 3693.75,625.958 3696.69,625.958"/>
<path class="Clef" transform="matrix(2.3811,0,0,2.3811,212.156,2198.84)" d="M25.4,-25.1 C17.8,-25.1 11.7,-20.7 11.6,-20.7 C5.8,-16.4 3.5,-11.3 2.6,-7.8 C2.1,-6 1.9,-4.2 1.9,-2.5 C1.9,-0.1 2.3,2.1 3.2,4 C4.4,6.7 6.7,8.6 9.7,9.6 C10.9,10 12.2,10.2 13.5,10.2 C15.7,10.2 18,9.6 19.9,8.5 C23,6.8 24.9,3.2 24.9,-0.7 C24.9,-4.2 23.1,-7.4 20.1,-9.3 C18,-10.7 16,-11.1 14.3,-11.1 C13.1,-11.1 12,-10.9 11.1,-10.6 C10.1,-10.2 8.4,-9.2 7.6,-8.5 C7.9,-10.4 9.1,-13.3 10.2,-14.9 C11.3,-16.5 13.5,-18.5 15.2,-19.4 C17.7,-20.8 20.9,-21.4 24.4,-21.4 C34.6,-21.4 39.6,-13.2 39.6,3.6 C39.6,12.9 36.1,21.8 33.1,27.7 C29.8,34.3 25.4,40.6 21.5,44.1 C11.1,53.6 1.3,58.1 1.2,58.1 C1.2,58.1 -0.3,59 0.1,60.5 C0.4,61.5 1.3,61.7 1.9,61.7 C2,61.7 2.3,61.6 2.4,61.6 C2.5,61.6 13.9,56.9 23,49.8 C28.1,46.1 32.7,42.1 36.7,37.8 C40.3,33.9 43.4,29.7 45.9,25.5 C50.3,18 52.8,10.2 52.8,3.5 C52.8,-4.8 50.6,-11.7 46.5,-16.6 C41.8,-22.2 34.7,-25.1 25.4,-25.1 M56.8,-12.4 C56.8,-9.6 59,-7.4 61.6,-7.4 C64.2,-7.4 66.4,-9.6 66.4,-12.4 C66.4,-15.2 64.2,-17.5 61.6,-17.5 C59,-17.5 56.8,-15.2 56.8,-12.4 M56.8,12.3 C56.8,15.1 59,17.4 61.6,17.4 C64.2,17.4 66.4,15.1 66.4,12.3 C66.4,9.5 64.2,7.2 61.6,7.2 C59,7.2 56.8,9.5 56.8,12.3"/>
<path class="Clef" transform="matrix(2.3811,0,0,2.3811,212.156,1570.39)" d="M63.37,-5.89004 C62.14,-11.32 59.5,-15.14 58.72,-16.1801 C55.5301,-20.45 51.52,-23.3 46.8301,-24.65 C43.72,-25.54 40.72,-25.65 38.3,-25.47 C37.2601,-31.4801 36.2601,-37.3601 35.35,-42.8101 C40.79,-48.97 44.42,-54.77 46.69,-59.07 C50.1601,-65.65 51.3101,-70.2301 51.3601,-70.4301 C53.0801,-75.64 53.44,-83.34 52.34,-91.55 C51.3301,-99.1 49.24,-105.81 46.89,-109.06 C45.8601,-110.49 44.8101,-111.22 43.77,-111.22 C42.55,-111.22 40.04,-109.98 37.15,-107.21 C34.85,-105.01 31.5801,-101.12 29.02,-95.1101 C26.02,-88.05 25.8101,-78.5601 26.1601,-71.84 C26.54,-64.57 27.65,-58.8801 27.6601,-58.8301 C27.6801,-58.74 27.94,-57.24 28.39,-54.67 C28.1601,-54.44 27.92,-54.22 27.67,-53.9801 C26.6301,-52.9801 25.44,-51.84 24.0601,-50.4601 C23.2,-49.6 22.25,-48.69 21.25,-47.72 C12.79,-39.57 0,-27.25 0,-8.1 C0,-3.4 0.9,1.01992 2.68008,5.02998 C4.27002,8.62998 6.57002,11.91 9.5,14.78 C17.2301,22.33 27.82,25.5399 34.8801,25.38 C37.8301,25.31 40.4601,25.0699 42.85,24.6199 C44.6801,34.2199 45.82,41.25 45.8601,46.5899 C45.9,53.1 44.25,57.0699 40.35,59.8399 C37.92,61.5699 35.1101,62.5199 32.0101,62.6699 C29.42,62.7899 27.1601,62.3199 25.7301,61.91 L25.72,61.91 C25.72,61.91 25.4301,61.83 25.42,61.63 C25.4101,61.45 25.7601,61.4 25.77,61.4 L25.79,61.4 C27.7101,60.96 31.2801,59.73 33.64,56.43 C35.44,53.91 36.3101,49.2899 34.47,45.35 C33.3601,42.96 30.85,40.01 25.2301,39.56 C22.74,39.36 20.47,39.8699 18.47,41.0699 C16.6601,42.15 15.1601,43.7899 14.1101,45.7899 C11.65,50.4899 12.1101,56.2199 15.24,60.06 C18.2,63.68 22.82,65.9899 28.25,66.5699 C29.1,66.66 29.95,66.7 30.8,66.7 C31.5101,66.7 32.22,66.6699 32.92,66.61 C31.72,66.9399 30.64,67.4899 29.77,68.25 C28.2801,69.5399 27.44,71.38 27.44,73.41 C27.44,75.28 28.0601,76.65 29.55,78.0399 C28.4101,78.5 27.55,78.98 26.79,79.56 C25.25,80.73 24.34,82.46 24.34,84.1899 C24.34,87.45 27.3,89.63 31.72,89.63 C37.1301,89.63 40.9101,86.63 40.9101,82.35 C40.9101,80.1199 39.9101,78.18 38.0801,76.83 C41.0101,75.6199 42.37,73.9399 42.37,71.56 C42.39,70.05 41.69,68.61 40.49,67.6899 C39.2801,66.7399 37.62,66.2399 35.69,66.2399 L35.5101,66.2399 C38.2801,65.7 40.92,64.7 43.2101,63.28 C46.87,60.71 48.99,56.73 49.67,51.1 C50.2301,46.46 49.84,40.55 48.44,32.48 C48.0801,30.3899 47.54,27.36 46.8801,23.6 C52.6301,21.68 56.79,18.11 60.5601,12.26 C63.85,6.51992 64.8,0.419922 63.37,-5.89004 M32.39,87.5399 C30.19,87.5399 28.7301,86.1199 28.7301,84.01 C28.7301,82.11 29.65,80.5 31.32,79.4699 C31.6801,79.66 31.77,79.71 32.1101,79.88 C33.3,80.48 33.3,80.48 33.55,80.63 L33.5601,80.6399 C35.47,81.73 36.25,82.76 36.25,84.18 C36.24,86.0899 34.59,87.5399 32.39,87.5399 M38.3101,71.63 C38.3101,73.2699 37.7301,74.3399 36.1801,75.53 C34.74,74.78 34.35,74.56 33.9801,74.3399 L33.8801,74.28 C32.3301,73.3399 31.85,72.66 31.85,71.4 C31.85,69.6 33.2301,68.3399 35.19,68.3399 C37.17,68.35 38.3101,69.55 38.3101,71.63 M33.15,-83.8101 C34.9301,-89.55 37.67,-92.8 39.6601,-94.5301 C41.4101,-96.05 43.0601,-96.7601 43.9801,-96.7601 C44.12,-96.7601 44.24,-96.74 44.34,-96.7101 C44.8,-96.57 45.3301,-96 45.8,-95.1301 C48.1101,-90.84 47.37,-84.1301 46.0301,-79.69 C44.4,-74.29 41.4801,-68.6801 32.69,-59.0601 C32.52,-60.17 32.3601,-61.22 32.2101,-62.2 C30.95,-70.49 31.27,-77.7601 33.15,-83.8101 M29.15,20.31 C24.5101,19.0899 20.0801,16.5899 16.32,13.0899 C15.0101,11.86 13.14,9.68994 11.67,6.3 C10.3101,3.13994 9.65,-0.290039 9.7,-3.88008 C9.77002,-8.57002 11.0801,-13.39 13.59,-18.1801 C16.5101,-23.7601 21.07,-29.29 27.1301,-34.62 C28.5801,-35.9 29.95,-37.1801 31.24,-38.4601 C32,-34.2 32.8301,-29.5101 33.7101,-24.6301 C29.8601,-23.3601 25.1101,-20.2101 22,-14.5601 C18.47,-7.99004 18.6101,-2.47002 19.34,1.00996 C20.2801,5.46992 22.8101,9.22998 26.27,11.3199 C27.2,11.88 31.3301,14.01 33.17,13.43 C33.54,13.31 33.8101,13.0899 33.95,12.76 C34.4601,11.5899 33.44,10.95 31.8801,9.98994 C31.2801,9.61992 30.6101,9.2 29.8801,8.66992 C26.5601,6.17998 25.1101,1.72998 26.1801,-2.65 C26.7601,-5.05 28.04,-7.21006 29.8801,-8.91006 C31.55,-10.4601 33.59,-11.5601 35.97,-12.2 C38.0101,-0.960059 40.07,10.1899 41.7101,18.55 C41.84,19.2399 41.9801,19.91 42.1101,20.58 C37.7101,21.51 33.37,21.4199 29.15,20.31 M54.9,10.1 C53.7301,13.28 51.27,17.35 46.14,19.41 C46.07,18.9899 45.99,18.56 45.9101,18.13 C44.3601,9.36992 42.4301,-1.61006 40.47,-12.87 C50.82,-13.35 55.09,-5.91006 55.9801,-1.08008 C56.45,1.45 56.45,5.88994 54.9,10.1"/>
<path class="KeySig" transform="matrix(2.3811,0,0,2.3811,429.785,2317.9)" d="M20.1,-7.9 C19.5,-11.8 17.1,-15.5 12,-15.5 C7,-15.5 4.1,-12.4 3.6,-11.8 L4,-43.9 C4,-44.7 3.4,-45.3 2.6,-45.3 L1.4,-45.3 C0.6,-45.3 0,-44.7 0,-43.9 L0.5,16.2 C0.5,17 1.1,17.6 1.9,17.6 C2.1,17.6 2.5,17.5 2.7,17.4 C3.1,17.2 9.6,14 15,7.9 C18.8,3.6 20.3,-1.3 20.3,-5.4 C20.3,-6.3 20.2,-7.1 20.1,-7.9 M13.2,-4 C13.2,-2.5 12.8,2.1 10.3,5.9 C8.6,8.5 5.2,11.2 3.3,12.7 L3.6,-6.8 C3.8,-7.7 5.3,-10.6 9.3,-10.6 C12.9,-10.6 13.2,-7.2 13.2,-5.1 L13.2,-4 "/>
<path class="KeySig" transform="matrix(2.3811,0,0,2.3811,429.785,1510.87)" d="M20.1,-7.9 C19.5,-11.8 17.1,-15.5 12,-15.5 C7,-15.5 4.1,-12.4 3.6,-11.8 L4,-43.9 C4,-44.7 3.4,-45.3 2.6,-45.3 L1.4,-45.3 C0.6,-45.3 0,-44.7 0,-43.9 L0.5,16.2 C0.5,17 1.1,17.6 1.9,17.6 C2.1,17.6 2.5,17.5 2.7,17.4 C3.1,17.2 9.6,14 15,7.9 C18.8,3.6 20.3,-1.3 20.3,-5.4 C20.3,-6.3 20.2,-7.1 20.1,-7.9 M13.2,-4 C13.2,-2.5 12.8,2.1 10.3,5.9 C8.6,8.5 5.2,11.2 3.3,12.7 L3.6,-6.8 C3.8,-7.7 5.3,-10.6 9.3,-10.6 C12.9,-10.6 13.2,-7.2 13.2,-5.1 L13.2,-4 "/>
<path class="FiguredBass" d="M1261.41,2575.51 L1261.41,2594.9 C1261.41,2596.82 1260.44,2597.78 1258.49,2597.78 C1256.54,2597.78 1255.57,2596.82 1255.57,2594.9 L1255.57,2578.02 L1252.6,2579.22 C1252.29,2579.35 1251.89,2579.41 1251.39,2579.41 C1250.59,2579.41 1249.88,2579.1 1249.26,2578.48 C1248.64,2577.86 1248.33,2577.15 1248.33,2576.35 L1248.33,2566.88 C1248.33,2565.52 1248.98,2564.56 1250.28,2564.01 L1255.57,2561.78 L1255.57,2542.3 L1252.6,2543.5 C1252.41,2543.57 1252.17,2543.6 1251.86,2543.6 C1251.73,2543.6 1251.58,2543.6 1251.39,2543.6 C1250.46,2543.47 1249.72,2543.13 1249.17,2542.58 C1248.61,2542.02 1248.33,2541.37 1248.33,2540.63 L1248.33,2531.17 C1248.33,2529.87 1248.98,2528.94 1250.28,2528.38 L1255.57,2526.16 L1255.57,2506.4 C1255.57,2504.48 1256.54,2503.52 1258.49,2503.52 C1260.44,2503.52 1261.41,2504.48 1261.41,2506.4 L1261.41,2523.74 L1273.38,2518.73 L1273.38,2499.34 C1273.38,2497.43 1274.34,2496.47 1276.26,2496.47 C1278.17,2496.47 1279.13,2497.43 1279.13,2499.34 L1279.13,2516.42 L1282.38,2515.02 C1282.69,2514.9 1283.03,2514.84 1283.4,2514.84 C1284.2,2514.84 1284.93,2515.15 1285.58,2515.77 C1286.23,2516.38 1286.55,2517.1 1286.55,2517.9 L1286.55,2527.36 C1286.55,2528.72 1285.87,2529.68 1284.51,2530.24 L1279.13,2532.46 L1279.13,2552.04 L1282.38,2550.74 C1282.56,2550.68 1282.78,2550.65 1283.03,2550.65 C1283.15,2550.65 1283.28,2550.65 1283.4,2550.65 C1284.45,2550.83 1285.24,2551.17 1285.76,2551.67 C1286.29,2552.16 1286.55,2552.81 1286.55,2553.62 L1286.55,2563.08 C1286.55,2564.38 1285.87,2565.31 1284.51,2565.86 L1279.13,2568.09 L1279.13,2587.85 C1279.13,2589.77 1278.17,2590.73 1276.26,2590.73 C1274.34,2590.73 1273.38,2589.77 1273.38,2587.85 L1273.38,2570.5 L1261.41,2575.51 M1261.41,2559.37 L1273.38,2554.45 L1273.38,2534.88 L1261.41,2539.89 L1261.41,2559.37 "/>
<path class="FiguredBass" d="M1818.34,2512.61 C1813.77,2512.61 1810.72,2514.45 1809.21,2518.13 C1807.69,2521.81 1806.93,2527.02 1806.93,2533.76 L1806.93,2544.71 C1810.15,2543.41 1812.93,2542.73 1815.28,2542.67 C1823.32,2542.67 1829.65,2544.45 1834.25,2548 C1838.86,2551.56 1841.17,2556.85 1841.17,2563.87 C1841.17,2570.89 1838.83,2576.19 1834.16,2579.78 C1829.49,2583.37 1823.2,2585.16 1815.28,2585.16 C1807.18,2585.16 1800.84,2581.4 1796.26,2573.89 C1791.69,2566.37 1789.4,2557.45 1789.4,2547.12 C1789.4,2536.86 1792.06,2527.95 1797.38,2520.4 C1802.7,2512.86 1809.69,2509.09 1818.34,2509.09 C1824.03,2509.09 1828.95,2510.52 1833.09,2513.4 C1837.24,2516.28 1839.31,2520.06 1839.31,2524.76 C1839.31,2527.49 1838.32,2529.84 1836.34,2531.82 C1834.36,2533.79 1832,2534.78 1829.24,2534.78 C1826.49,2534.78 1824.13,2533.79 1822.15,2531.82 C1820.17,2529.84 1819.18,2527.49 1819.18,2524.76 C1819.18,2522.11 1820.17,2519.75 1822.15,2517.71 C1822.83,2516.91 1823.79,2516.23 1825.02,2515.67 C1824.71,2514.87 1824.1,2514.25 1823.17,2513.82 C1821.81,2513.01 1820.2,2512.61 1818.34,2512.61 M1822.89,2550.56 C1821.78,2547.65 1819.33,2546.2 1815.56,2546.2 C1811.79,2546.2 1809.45,2547.65 1808.56,2550.56 C1807.66,2553.46 1807.21,2557.88 1807.21,2563.82 C1807.21,2570.81 1807.66,2575.51 1808.56,2577.92 C1809.45,2580.34 1811.79,2581.54 1815.56,2581.54 C1819.33,2581.54 1821.78,2580.09 1822.89,2577.18 C1824,2574.27 1824.56,2569.84 1824.56,2563.87 C1824.56,2557.9 1824,2553.46 1822.89,2550.56"/>
<path class="FiguredBass" d="M1817.69,2616.78 C1820.04,2616.78 1822.52,2616.44 1825.12,2615.76 L1829.29,2614.65 C1830.1,2614.65 1830.73,2614.96 1831.19,2615.58 C1831.66,2616.2 1831.61,2616.75 1831.05,2617.25 L1787.91,2667.44 L1813.24,2667.44 L1813.24,2647.58 C1813.24,2646.16 1813.63,2645.06 1814.4,2644.29 C1815.17,2643.52 1816.16,2642.9 1817.37,2642.44 C1818.58,2641.97 1820.15,2640.6 1822.1,2638.31 C1824.05,2636.02 1825.92,2632.93 1827.71,2629.03 C1828.02,2628.41 1828.49,2628.1 1829.11,2628.1 C1830.4,2628.1 1831.05,2628.81 1831.05,2630.24 L1831.05,2667.44 L1842,2667.44 C1843.55,2667.44 1844.32,2668.15 1844.32,2669.57 C1844.32,2671.12 1843.55,2671.89 1842,2671.89 L1831.05,2671.89 L1831.05,2673.1 C1831.05,2676.93 1832.07,2680.27 1834.12,2683.12 C1836.16,2685.96 1838.79,2687.38 1842,2687.38 C1843.24,2687.38 1843.86,2687.94 1843.86,2689.05 C1843.86,2690.29 1843.24,2690.91 1842,2690.91 C1839.77,2690.91 1836.47,2690.59 1832.07,2689.94 C1827.68,2689.29 1824.36,2688.96 1822.1,2688.96 C1819.84,2688.96 1816.52,2689.29 1812.13,2689.94 C1807.74,2690.59 1804.43,2690.91 1802.2,2690.91 C1800.96,2690.91 1800.35,2690.29 1800.35,2689.05 C1800.35,2687.94 1800.96,2687.38 1802.2,2687.38 C1805.42,2687.38 1808.06,2685.96 1810.13,2683.12 C1812.21,2680.27 1813.24,2676.93 1813.24,2673.1 L1813.24,2671.89 L1787.91,2671.89 C1786.31,2671.89 1785.12,2671.51 1784.34,2670.73 C1783.57,2669.96 1783.18,2669.17 1783.18,2668.37 C1783.18,2668.06 1783.91,2666.99 1785.36,2665.17 C1786.82,2663.34 1788.59,2660.91 1790.7,2657.88 C1792.8,2654.85 1794.89,2651.4 1796.96,2647.54 C1799.03,2643.67 1800.79,2639.03 1802.25,2633.62 C1803.7,2628.21 1804.43,2622.75 1804.43,2617.25 C1804.43,2615.64 1805.11,2614.84 1806.47,2614.84 C1806.65,2614.84 1807.3,2614.99 1808.42,2615.3 C1809.53,2615.61 1810.95,2615.93 1812.68,2616.27 C1814.42,2616.61 1816.09,2616.78 1817.69,2616.78"/>
<path class="FiguredBass" d="M2448.69,2511.03 C2451.04,2511.03 2453.52,2510.69 2456.11,2510.01 L2460.29,2508.9 C2461.09,2508.9 2461.73,2509.21 2462.19,2509.83 C2462.65,2510.45 2462.61,2511 2462.05,2511.5 L2418.91,2561.69 L2444.24,2561.69 L2444.24,2541.83 C2444.24,2540.41 2444.63,2539.31 2445.4,2538.54 C2446.17,2537.77 2447.16,2537.15 2448.37,2536.69 C2449.57,2536.22 2451.15,2534.85 2453.1,2532.56 C2455.05,2530.27 2456.92,2527.18 2458.71,2523.28 C2459.02,2522.66 2459.49,2522.35 2460.1,2522.35 C2461.4,2522.35 2462.05,2523.06 2462.05,2524.49 L2462.05,2561.69 L2473,2561.69 C2474.55,2561.69 2475.32,2562.4 2475.32,2563.82 C2475.32,2565.37 2474.55,2566.14 2473,2566.14 L2462.05,2566.14 L2462.05,2567.35 C2462.05,2571.18 2463.07,2574.52 2465.11,2577.37 C2467.15,2580.21 2469.78,2581.63 2473,2581.63 C2474.24,2581.63 2474.85,2582.19 2474.85,2583.3 C2474.85,2584.54 2474.24,2585.16 2473,2585.16 C2470.77,2585.16 2467.46,2584.84 2463.07,2584.19 C2458.68,2583.54 2455.36,2583.21 2453.1,2583.21 C2450.84,2583.21 2447.52,2583.54 2443.13,2584.19 C2438.73,2584.84 2435.43,2585.16 2433.2,2585.16 C2431.96,2585.16 2431.34,2584.54 2431.34,2583.3 C2431.34,2582.19 2431.96,2581.63 2433.2,2581.63 C2436.42,2581.63 2439.06,2580.21 2441.13,2577.37 C2443.2,2574.52 2444.24,2571.18 2444.24,2567.35 L2444.24,2566.14 L2418.91,2566.14 C2417.3,2566.14 2416.11,2565.76 2415.34,2564.98 C2414.57,2564.21 2414.18,2563.42 2414.18,2562.62 C2414.18,2562.31 2414.91,2561.24 2416.36,2559.42 C2417.81,2557.59 2419.59,2555.16 2421.7,2552.13 C2423.8,2549.1 2425.89,2545.65 2427.96,2541.79 C2430.03,2537.92 2431.79,2533.28 2433.25,2527.87 C2434.7,2522.46 2435.43,2517 2435.43,2511.5 C2435.43,2509.89 2436.11,2509.09 2437.47,2509.09 C2437.65,2509.09 2438.3,2509.24 2439.42,2509.55 C2440.53,2509.86 2441.95,2510.18 2443.68,2510.52 C2445.41,2510.86 2447.08,2511.03 2448.69,2511.03"/>
<path class="FiguredBass" d="M3004.36,2575.51 L3004.36,2594.9 C3004.36,2596.82 3003.38,2597.78 3001.43,2597.78 C2999.49,2597.78 2998.51,2596.82 2998.51,2594.9 L2998.51,2578.02 L2995.54,2579.22 C2995.23,2579.35 2994.83,2579.41 2994.34,2579.41 C2993.53,2579.41 2992.82,2579.1 2992.2,2578.48 C2991.59,2577.86 2991.28,2577.15 2991.28,2576.35 L2991.28,2566.88 C2991.28,2565.52 2991.93,2564.56 2993.22,2564.01 L2998.51,2561.78 L2998.51,2542.3 L2995.54,2543.5 C2995.36,2543.57 2995.11,2543.6 2994.8,2543.6 C2994.68,2543.6 2994.52,2543.6 2994.34,2543.6 C2993.41,2543.47 2992.67,2543.13 2992.11,2542.58 C2991.55,2542.02 2991.28,2541.37 2991.28,2540.63 L2991.28,2531.17 C2991.28,2529.87 2991.93,2528.94 2993.22,2528.38 L2998.51,2526.16 L2998.51,2506.4 C2998.51,2504.48 2999.49,2503.52 3001.43,2503.52 C3003.38,2503.52 3004.36,2504.48 3004.36,2506.4 L3004.36,2523.74 L3016.32,2518.73 L3016.32,2499.34 C3016.32,2497.43 3017.28,2496.47 3019.2,2496.47 C3021.12,2496.47 3022.08,2497.43 3022.08,2499.34 L3022.08,2516.42 L3025.32,2515.02 C3025.63,2514.9 3025.97,2514.84 3026.34,2514.84 C3027.15,2514.84 3027.88,2515.15 3028.52,2515.77 C3029.17,2516.38 3029.5,2517.1 3029.5,2517.9 L3029.5,2527.36 C3029.5,2528.72 3028.82,2529.68 3027.46,2530.24 L3022.08,2532.46 L3022.08,2552.04 L3025.32,2550.74 C3025.51,2550.68 3025.73,2550.65 3025.97,2550.65 C3026.1,2550.65 3026.22,2550.65 3026.34,2550.65 C3027.4,2550.83 3028.18,2551.17 3028.71,2551.67 C3029.24,2552.16 3029.5,2552.81 3029.5,2553.62 L3029.5,2563.08 C3029.5,2564.38 3028.82,2565.31 3027.46,2565.86 L3022.08,2568.09 L3022.08,2587.85 C3022.08,2589.77 3021.12,2590.73 3019.2,2590.73 C3017.28,2590.73 3016.32,2589.77 3016.32,2587.85 L3016.32,2570.5 L3004.36,2575.51 M3004.36,2559.37 L3016.32,2554.45 L3016.32,2534.88 L3004.36,2539.89 L3004.36,2559.37 "/>
<path class="FiguredBass" d="M3270.31,2515.95 C3270.49,2515.95 3270.9,2515.55 3271.51,2514.75 C3274.17,2510.97 3277.88,2509.09 3282.65,2509.09 C3286.48,2509.09 3290.1,2510.51 3293.5,2513.35 C3296.9,2516.2 3299.72,2517.62 3301.94,2517.62 C3304.36,2517.62 3306.64,2516.91 3308.81,2515.49 C3310.97,2514.06 3312.69,2512.64 3313.96,2511.22 C3315.23,2509.8 3316.05,2509.09 3316.42,2509.09 C3317.03,2509.09 3317.59,2509.29 3318.09,2509.69 C3318.58,2510.09 3318.83,2510.6 3318.83,2511.22 C3318.83,2511.65 3317.56,2513.79 3315.02,2517.62 C3312.49,2521.46 3309.67,2525.89 3306.58,2530.93 C3303.49,2535.97 3300.68,2542.27 3298.14,2549.81 C3295.6,2557.36 3294.34,2564.56 3294.34,2571.43 C3294.34,2574.09 3294.61,2577.15 3295.17,2580.61 C3295.6,2583.27 3295.6,2584.79 3295.17,2585.16 C3294.86,2585.47 3294.34,2585.62 3293.59,2585.62 C3293.28,2585.62 3291.85,2585.22 3289.28,2584.42 C3286.71,2583.61 3284.25,2583.21 3281.9,2583.21 C3279.8,2583.21 3277.37,2583.61 3274.62,2584.42 C3271.87,2585.22 3270.34,2585.62 3270.03,2585.62 C3269.35,2585.62 3268.79,2585.35 3268.36,2584.79 C3267.93,2584.23 3267.86,2583.64 3268.17,2583.03 C3271.82,2574.31 3276.26,2565.82 3281.49,2557.56 C3286.71,2549.3 3293.25,2539.79 3301.11,2529.03 C3298.14,2530.64 3295.14,2531.44 3292.11,2531.44 C3288.89,2531.44 3285.65,2530.01 3282.37,2527.13 C3279.09,2524.25 3276.4,2522.82 3274.3,2522.82 C3272.75,2522.82 3271.41,2523.7 3270.26,2525.46 C3269.12,2527.22 3268.55,2529.87 3268.55,2533.39 L3268.55,2544.8 C3268.55,2546.35 3267.83,2547.12 3266.41,2547.12 C3264.87,2547.12 3264.09,2546.35 3264.09,2544.8 L3264.09,2511.41 C3264.09,2509.86 3264.87,2509.09 3266.41,2509.09 C3267.83,2509.09 3268.55,2509.86 3268.55,2511.41 L3268.55,2513.54 C3268.55,2514.03 3268.67,2514.47 3268.92,2514.84 C3269.66,2515.58 3270.12,2515.95 3270.31,2515.95"/>
<path class="FiguredBass" d="M3284.6,2681.26 L3284.6,2700.65 C3284.6,2702.57 3283.62,2703.53 3281.67,2703.53 C3279.72,2703.53 3278.75,2702.57 3278.75,2700.65 L3278.75,2683.77 L3275.78,2684.97 C3275.47,2685.1 3275.07,2685.16 3274.58,2685.16 C3273.77,2685.16 3273.06,2684.85 3272.44,2684.23 C3271.82,2683.61 3271.51,2682.9 3271.51,2682.1 L3271.51,2672.63 C3271.51,2671.27 3272.16,2670.31 3273.46,2669.76 L3278.75,2667.53 L3278.75,2648.05 L3275.78,2649.25 C3275.6,2649.32 3275.35,2649.35 3275.04,2649.35 C3274.92,2649.35 3274.76,2649.35 3274.58,2649.35 C3273.65,2649.22 3272.91,2648.88 3272.35,2648.33 C3271.79,2647.77 3271.51,2647.12 3271.51,2646.38 L3271.51,2636.92 C3271.51,2635.62 3272.16,2634.69 3273.46,2634.13 L3278.75,2631.91 L3278.75,2612.15 C3278.75,2610.23 3279.72,2609.27 3281.67,2609.27 C3283.62,2609.27 3284.6,2610.23 3284.6,2612.15 L3284.6,2629.49 L3296.56,2624.48 L3296.56,2605.09 C3296.56,2603.18 3297.52,2602.22 3299.44,2602.22 C3301.36,2602.22 3302.31,2603.18 3302.31,2605.09 L3302.31,2622.17 L3305.56,2620.77 C3305.87,2620.65 3306.21,2620.59 3306.58,2620.59 C3307.39,2620.59 3308.11,2620.9 3308.76,2621.52 C3309.41,2622.13 3309.74,2622.85 3309.74,2623.65 L3309.74,2633.11 C3309.74,2634.47 3309.06,2635.43 3307.7,2635.99 L3302.31,2638.21 L3302.31,2657.79 L3305.56,2656.49 C3305.75,2656.43 3305.96,2656.4 3306.21,2656.4 C3306.34,2656.4 3306.46,2656.4 3306.58,2656.4 C3307.63,2656.58 3308.42,2656.92 3308.95,2657.42 C3309.47,2657.91 3309.74,2658.56 3309.74,2659.37 L3309.74,2668.83 C3309.74,2670.13 3309.06,2671.06 3307.7,2671.61 L3302.31,2673.84 L3302.31,2693.6 C3302.31,2695.52 3301.36,2696.48 3299.44,2696.48 C3297.52,2696.48 3296.56,2695.52 3296.56,2693.6 L3296.56,2676.25 L3284.6,2681.26 M3284.6,2665.12 L3296.56,2660.2 L3296.56,2640.63 L3284.6,2645.64 L3284.6,2665.12 "/>
<path class="FiguredBass" d="M1826.69,1793.87 C1831.64,1788.49 1834.12,1783.29 1834.12,1778.28 C1834.12,1774.2 1832.37,1770.98 1828.87,1768.63 C1825.38,1766.28 1821.19,1765.11 1816.3,1765.11 C1812.84,1765.11 1810.07,1766.19 1808,1768.35 C1805.93,1770.52 1804.89,1773.02 1804.89,1775.87 C1804.89,1779.33 1806.41,1781.96 1809.44,1783.75 L1826.69,1793.87 M1831.24,1796.46 C1839.65,1801.35 1843.86,1807.78 1843.86,1815.76 C1843.86,1821.76 1841.29,1826.91 1836.16,1831.21 C1831.02,1835.51 1824,1837.66 1815.1,1837.66 C1807.61,1837.66 1801.1,1835.68 1795.57,1831.72 C1790.03,1827.76 1787.26,1822.63 1787.26,1816.32 C1787.26,1813.97 1787.95,1811.59 1789.31,1809.17 C1790.67,1806.76 1791.93,1804.95 1793.11,1803.75 C1794.28,1802.54 1796.2,1800.67 1798.86,1798.13 C1792.68,1793.87 1789.58,1788.49 1789.58,1781.99 C1789.58,1776.43 1791.97,1771.63 1796.73,1767.61 C1801.49,1763.59 1808.02,1761.58 1816.3,1761.58 C1822.92,1761.58 1828.66,1763.08 1833.51,1766.08 C1838.37,1769.08 1840.8,1773.15 1840.8,1778.28 C1840.8,1783.79 1837.61,1789.85 1831.24,1796.46 M1803.41,1800.83 C1797.1,1806.33 1793.94,1811.49 1793.94,1816.32 C1793.94,1821.39 1796.05,1825.63 1800.25,1829.03 C1804.46,1832.43 1809.41,1834.13 1815.1,1834.13 C1819.06,1834.13 1822.23,1832.86 1824.61,1830.33 C1826.99,1827.79 1828.18,1824.85 1828.18,1821.51 C1828.18,1817.25 1826.42,1814.09 1822.89,1812.05 L1803.41,1800.83 "/>
<path class="FiguredBass" d="M1818.34,1870.86 C1813.77,1870.86 1810.72,1872.7 1809.21,1876.38 C1807.69,1880.06 1806.93,1885.27 1806.93,1892.01 L1806.93,1902.96 C1810.15,1901.66 1812.93,1900.98 1815.28,1900.92 C1823.32,1900.92 1829.65,1902.69 1834.25,1906.25 C1838.86,1909.81 1841.17,1915.09 1841.17,1922.11 C1841.17,1929.13 1838.83,1934.44 1834.16,1938.03 C1829.49,1941.61 1823.2,1943.41 1815.28,1943.41 C1807.18,1943.41 1800.84,1939.65 1796.26,1932.13 C1791.69,1924.62 1789.4,1915.7 1789.4,1905.37 C1789.4,1895.1 1792.06,1886.2 1797.38,1878.65 C1802.7,1871.1 1809.69,1867.33 1818.34,1867.33 C1824.03,1867.33 1828.95,1868.77 1833.09,1871.65 C1837.24,1874.52 1839.31,1878.31 1839.31,1883.01 C1839.31,1885.73 1838.32,1888.08 1836.34,1890.06 C1834.36,1892.04 1832,1893.03 1829.24,1893.03 C1826.49,1893.03 1824.13,1892.04 1822.15,1890.06 C1820.17,1888.08 1819.18,1885.73 1819.18,1883.01 C1819.18,1880.35 1820.17,1878 1822.15,1875.96 C1822.83,1875.16 1823.79,1874.48 1825.02,1873.92 C1824.71,1873.11 1824.1,1872.5 1823.17,1872.06 C1821.81,1871.26 1820.2,1870.86 1818.34,1870.86 M1822.89,1908.8 C1821.78,1905.89 1819.33,1904.44 1815.56,1904.44 C1811.79,1904.44 1809.45,1905.89 1808.56,1908.8 C1807.66,1911.71 1807.21,1916.13 1807.21,1922.07 C1807.21,1929.06 1807.66,1933.76 1808.56,1936.17 C1809.45,1938.58 1811.79,1939.79 1815.56,1939.79 C1819.33,1939.79 1821.78,1938.33 1822.89,1935.43 C1824,1932.52 1824.56,1928.08 1824.56,1922.11 C1824.56,1916.15 1824,1911.71 1822.89,1908.8"/>
<path class="FiguredBass" d="M1817.69,1975.03 C1820.04,1975.03 1822.52,1974.69 1825.12,1974.01 L1829.29,1972.9 C1830.1,1972.9 1830.73,1973.21 1831.19,1973.82 C1831.66,1974.44 1831.61,1975 1831.05,1975.49 L1787.91,2025.68 L1813.24,2025.68 L1813.24,2005.83 C1813.24,2004.41 1813.63,2003.31 1814.4,2002.54 C1815.17,2001.76 1816.16,2001.15 1817.37,2000.68 C1818.58,2000.22 1820.15,1998.84 1822.1,1996.55 C1824.05,1994.27 1825.92,1991.17 1827.71,1987.28 C1828.02,1986.66 1828.49,1986.35 1829.11,1986.35 C1830.4,1986.35 1831.05,1987.06 1831.05,1988.48 L1831.05,2025.68 L1842,2025.68 C1843.55,2025.68 1844.32,2026.4 1844.32,2027.82 C1844.32,2029.36 1843.55,2030.14 1842,2030.14 L1831.05,2030.14 L1831.05,2031.34 C1831.05,2035.18 1832.07,2038.52 1834.12,2041.36 C1836.16,2044.21 1838.79,2045.63 1842,2045.63 C1843.24,2045.63 1843.86,2046.19 1843.86,2047.3 C1843.86,2048.54 1843.24,2049.16 1842,2049.16 C1839.77,2049.16 1836.47,2048.83 1832.07,2048.18 C1827.68,2047.53 1824.36,2047.21 1822.1,2047.21 C1819.84,2047.21 1816.52,2047.53 1812.13,2048.18 C1807.74,2048.83 1804.43,2049.16 1802.2,2049.16 C1800.96,2049.16 1800.35,2048.54 1800.35,2047.3 C1800.35,2046.19 1800.96,2045.63 1802.2,2045.63 C1805.42,2045.63 1808.06,2044.21 1810.13,2041.36 C1812.21,2038.52 1813.24,2035.18 1813.24,2031.34 L1813.24,2030.14 L1787.91,2030.14 C1786.31,2030.14 1785.12,2029.75 1784.34,2028.98 C1783.57,2028.2 1783.18,2027.42 1783.18,2026.61 C1783.18,2026.3 1783.91,2025.24 1785.36,2023.41 C1786.82,2021.59 1788.59,2019.16 1790.7,2016.13 C1792.8,2013.1 1794.89,2009.65 1796.96,2005.78 C1799.03,2001.92 1800.79,1997.28 1802.25,1991.87 C1803.7,1986.46 1804.43,1981 1804.43,1975.49 C1804.43,1973.89 1805.11,1973.08 1806.47,1973.08 C1806.65,1973.08 1807.3,1973.24 1808.42,1973.55 C1809.53,1973.86 1810.95,1974.18 1812.68,1974.52 C1814.42,1974.86 1816.09,1975.03 1817.69,1975.03"/>
<path class="FiguredBass" d="M2457.69,1793.87 C2462.64,1788.49 2465.11,1783.29 2465.11,1778.28 C2465.11,1774.2 2463.37,1770.98 2459.87,1768.63 C2456.38,1766.28 2452.19,1765.11 2447.3,1765.11 C2443.84,1765.11 2441.07,1766.19 2439,1768.35 C2436.93,1770.52 2435.89,1773.02 2435.89,1775.87 C2435.89,1779.33 2437.41,1781.96 2440.44,1783.75 L2457.69,1793.87 M2462.24,1796.46 C2470.65,1801.35 2474.85,1807.78 2474.85,1815.76 C2474.85,1821.76 2472.29,1826.91 2467.15,1831.21 C2462.02,1835.51 2455,1837.66 2446.09,1837.66 C2438.61,1837.66 2432.1,1835.68 2426.57,1831.72 C2421.03,1827.76 2418.26,1822.63 2418.26,1816.32 C2418.26,1813.97 2418.94,1811.59 2420.3,1809.17 C2421.66,1806.76 2422.93,1804.95 2424.11,1803.75 C2425.28,1802.54 2427.2,1800.67 2429.86,1798.13 C2423.67,1793.87 2420.58,1788.49 2420.58,1781.99 C2420.58,1776.43 2422.96,1771.63 2427.73,1767.61 C2432.49,1763.59 2439.01,1761.58 2447.3,1761.58 C2453.92,1761.58 2459.66,1763.08 2464.51,1766.08 C2469.37,1769.08 2471.79,1773.15 2471.79,1778.28 C2471.79,1783.79 2468.61,1789.85 2462.24,1796.46 M2434.41,1800.83 C2428.1,1806.33 2424.94,1811.49 2424.94,1816.32 C2424.94,1821.39 2427.05,1825.63 2431.25,1829.03 C2435.46,1832.43 2440.4,1834.13 2446.09,1834.13 C2450.05,1834.13 2453.22,1832.86 2455.6,1830.33 C2457.99,1827.79 2459.18,1824.85 2459.18,1821.51 C2459.18,1817.25 2457.41,1814.09 2453.89,1812.05 L2434.41,1800.83 "/>
<path class="FiguredBass" d="M2426.71,1867.33 C2426.71,1867.33 2428.19,1867.55 2431.16,1867.98 C2432.46,1868.17 2433.91,1868.35 2435.52,1868.54 C2439.79,1869.03 2443.9,1869.28 2447.86,1869.28 C2451.82,1869.28 2455.99,1869.03 2460.38,1868.54 C2462.11,1868.35 2463.63,1868.17 2464.93,1867.98 L2469.47,1867.33 C2470.4,1867.33 2471.1,1867.64 2471.56,1868.26 C2472.03,1868.88 2471.98,1869.37 2471.42,1869.74 C2461.96,1879.21 2448.63,1883.94 2431.44,1883.94 C2430.76,1883.94 2430.15,1884.19 2429.63,1884.68 C2429.1,1885.18 2428.84,1885.79 2428.84,1886.54 L2428.84,1901.1 C2433.23,1896.77 2438.55,1894.61 2444.8,1894.61 C2453.83,1894.61 2460.8,1896.63 2465.72,1900.68 C2470.63,1904.74 2473.09,1910.87 2473.09,1919.1 C2473.09,1926.09 2470.31,1931.89 2464.74,1936.49 C2459.18,1941.1 2452.53,1943.41 2444.8,1943.41 C2438.12,1943.41 2432.32,1941.89 2427.4,1938.86 C2422.48,1935.83 2420.03,1931.62 2420.03,1926.24 C2420.03,1923.52 2421.02,1921.16 2422.99,1919.15 C2424.97,1917.14 2427.34,1916.13 2430.09,1916.13 C2432.84,1916.13 2435.18,1917.12 2437.1,1919.1 C2439.01,1921.08 2439.97,1923.46 2439.97,1926.24 C2439.97,1927.48 2438.95,1928.83 2436.91,1930.28 C2434.87,1931.73 2433.85,1933.08 2433.85,1934.31 C2433.85,1938.03 2437.5,1939.88 2444.8,1939.88 C2451.91,1939.88 2455.46,1932.95 2455.46,1919.1 C2455.46,1905.74 2451.91,1899.03 2444.8,1898.97 C2438.43,1898.97 2433.97,1900.27 2431.44,1902.86 C2428.9,1905.46 2427.32,1906.76 2426.71,1906.76 C2425.16,1906.76 2424.42,1905.99 2424.48,1904.44 L2424.48,1869.74 C2424.48,1869.06 2424.7,1868.49 2425.13,1868.03 C2425.56,1867.56 2426.09,1867.33 2426.71,1867.33"/>
<path class="FiguredBass" d="M2448.69,1975.03 C2451.04,1975.03 2453.52,1974.69 2456.11,1974.01 L2460.29,1972.9 C2461.09,1972.9 2461.73,1973.21 2462.19,1973.82 C2462.65,1974.44 2462.61,1975 2462.05,1975.49 L2418.91,2025.68 L2444.24,2025.68 L2444.24,2005.83 C2444.24,2004.41 2444.63,2003.31 2445.4,2002.54 C2446.17,2001.76 2447.16,2001.15 2448.37,2000.68 C2449.57,2000.22 2451.15,1998.84 2453.1,1996.55 C2455.05,1994.27 2456.92,1991.17 2458.71,1987.28 C2459.02,1986.66 2459.49,1986.35 2460.1,1986.35 C2461.4,1986.35 2462.05,1987.06 2462.05,1988.48 L2462.05,2025.68 L2473,2025.68 C2474.55,2025.68 2475.32,2026.4 2475.32,2027.82 C2475.32,2029.36 2474.55,2030.14 2473,2030.14 L2462.05,2030.14 L2462.05,2031.34 C2462.05,2035.18 2463.07,2038.52 2465.11,2041.36 C2467.15,2044.21 2469.78,2045.63 2473,2045.63 C2474.24,2045.63 2474.85,2046.19 2474.85,2047.3 C2474.85,2048.54 2474.24,2049.16 2473,2049.16 C2470.77,2049.16 2467.46,2048.83 2463.07,2048.18 C2458.68,2047.53 2455.36,2047.21 2453.1,2047.21 C2450.84,2047.21 2447.52,2047.53 2443.13,2048.18 C2438.73,2048.83 2435.43,2049.16 2433.2,2049.16 C2431.96,2049.16 2431.34,2048.54 2431.34,2047.3 C2431.34,2046.19 2431.96,2045.63 2433.2,2045.63 C2436.42,2045.63 2439.06,2044.21 2441.13,2041.36 C2443.2,2038.52 2444.24,2035.18 2444.24,2031.34 L2444.24,2030.14 L2418.91,2030.14 C2417.3,2030.14 2416.11,2029.75 2415.34,2028.98 C2414.57,2028.2 2414.18,2027.42 2414.18,2026.61 C2414.18,2026.3 2414.91,2025.24 2416.36,2023.41 C2417.81,2021.59 2419.59,2019.16 2421.7,2016.13 C2423.8,2013.1 2425.89,2009.65 2427.96,2005.78 C2430.03,2001.92 2431.79,1997.28 2433.25,1991.87 C2434.7,1986.46 2435.43,1981 2435.43,1975.49 C2435.43,1973.89 2436.11,1973.08 2437.47,1973.08 C2437.65,1973.08 2438.3,1973.24 2439.42,1973.55 C2440.53,1973.86 2441.95,1974.18 2443.68,1974.52 C2445.41,1974.86 2447.08,1975.03 2448.69,1975.03"/>
<path class="FiguredBass" d="M3301.76,1793.87 C3306.71,1788.49 3309.18,1783.29 3309.18,1778.28 C3309.18,1774.2 3307.43,1770.98 3303.94,1768.63 C3300.44,1766.28 3296.25,1765.11 3291.37,1765.11 C3287.9,1765.11 3285.14,1766.19 3283.06,1768.35 C3280.99,1770.52 3279.96,1773.02 3279.96,1775.87 C3279.96,1779.33 3281.47,1781.96 3284.5,1783.75 L3301.76,1793.87 M3306.3,1796.46 C3314.72,1801.35 3318.92,1807.78 3318.92,1815.76 C3318.92,1821.76 3316.35,1826.91 3311.22,1831.21 C3306.09,1835.51 3299.07,1837.66 3290.16,1837.66 C3282.68,1837.66 3276.17,1835.68 3270.63,1831.72 C3265.1,1827.76 3262.33,1822.63 3262.33,1816.32 C3262.33,1813.97 3263.01,1811.59 3264.37,1809.17 C3265.73,1806.76 3267,1804.95 3268.17,1803.75 C3269.35,1802.54 3271.27,1800.67 3273.93,1798.13 C3267.74,1793.87 3264.65,1788.49 3264.65,1781.99 C3264.65,1776.43 3267.03,1771.63 3271.79,1767.61 C3276.55,1763.59 3283.08,1761.58 3291.37,1761.58 C3297.99,1761.58 3303.72,1763.08 3308.58,1766.08 C3313.43,1769.08 3315.86,1773.15 3315.86,1778.28 C3315.86,1783.79 3312.67,1789.85 3306.3,1796.46 M3278.47,1800.83 C3272.16,1806.33 3269.01,1811.49 3269.01,1816.32 C3269.01,1821.39 3271.11,1825.63 3275.32,1829.03 C3279.52,1832.43 3284.47,1834.13 3290.16,1834.13 C3294.12,1834.13 3297.29,1832.86 3299.67,1830.33 C3302.05,1827.79 3303.24,1824.85 3303.24,1821.51 C3303.24,1817.25 3301.48,1814.09 3297.95,1812.05 L3278.47,1800.83 "/>
<path class="FiguredBass" d="M3270.31,1874.2 C3270.49,1874.2 3270.9,1873.8 3271.51,1872.99 C3274.17,1869.22 3277.88,1867.33 3282.65,1867.33 C3286.48,1867.33 3290.1,1868.75 3293.5,1871.6 C3296.9,1874.44 3299.72,1875.87 3301.94,1875.87 C3304.36,1875.87 3306.64,1875.16 3308.81,1873.73 C3310.97,1872.31 3312.69,1870.89 3313.96,1869.47 C3315.23,1868.04 3316.05,1867.33 3316.42,1867.33 C3317.03,1867.33 3317.59,1867.53 3318.09,1867.93 C3318.58,1868.34 3318.83,1868.85 3318.83,1869.47 C3318.83,1869.9 3317.56,1872.03 3315.02,1875.87 C3312.49,1879.7 3309.67,1884.14 3306.58,1889.18 C3303.49,1894.22 3300.68,1900.51 3298.14,1908.06 C3295.6,1915.61 3294.34,1922.81 3294.34,1929.68 C3294.34,1932.34 3294.61,1935.4 3295.17,1938.86 C3295.6,1941.52 3295.6,1943.04 3295.17,1943.41 C3294.86,1943.72 3294.34,1943.87 3293.59,1943.87 C3293.28,1943.87 3291.85,1943.47 3289.28,1942.66 C3286.71,1941.86 3284.25,1941.46 3281.9,1941.46 C3279.8,1941.46 3277.37,1941.86 3274.62,1942.66 C3271.87,1943.47 3270.34,1943.87 3270.03,1943.87 C3269.35,1943.87 3268.79,1943.59 3268.36,1943.04 C3267.93,1942.48 3267.86,1941.89 3268.17,1941.27 C3271.82,1932.55 3276.26,1924.06 3281.49,1915.81 C3286.71,1907.55 3293.25,1898.04 3301.11,1887.28 C3298.14,1888.89 3295.14,1889.69 3292.11,1889.69 C3288.89,1889.69 3285.65,1888.25 3282.37,1885.38 C3279.09,1882.5 3276.4,1881.06 3274.3,1881.06 C3272.75,1881.06 3271.41,1881.94 3270.26,1883.71 C3269.12,1885.47 3268.55,1888.11 3268.55,1891.64 L3268.55,1903.05 C3268.55,1904.6 3267.83,1905.37 3266.41,1905.37 C3264.87,1905.37 3264.09,1904.6 3264.09,1903.05 L3264.09,1869.65 C3264.09,1868.11 3264.87,1867.33 3266.41,1867.33 C3267.83,1867.33 3268.55,1868.11 3268.55,1869.65 L3268.55,1871.79 C3268.55,1872.28 3268.67,1872.71 3268.92,1873.08 C3269.66,1873.83 3270.12,1874.2 3270.31,1874.2"/>
<path class="FiguredBass" d="M3305.28,2008.8 C3305.28,2009.79 3305.84,2010.75 3306.95,2011.68 C3308.07,2012.6 3309.29,2013.48 3310.62,2014.32 C3311.95,2015.15 3313.17,2016.73 3314.28,2019.05 C3315.4,2021.37 3315.95,2024.29 3315.95,2027.82 C3315.95,2034.62 3313.39,2039.88 3308.25,2043.59 C3303.12,2047.3 3296.62,2049.16 3288.77,2049.16 C3282.46,2049.16 3276.97,2047.58 3272.3,2044.42 C3267.63,2041.27 3265.3,2037.13 3265.3,2031.99 C3265.3,2029.27 3266.29,2026.91 3268.27,2024.9 C3270.25,2022.89 3272.61,2021.88 3275.36,2021.88 C3278.12,2021.88 3280.45,2022.87 3282.37,2024.85 C3284.29,2026.83 3285.24,2029.21 3285.24,2031.99 C3285.24,2033.23 3284.22,2034.58 3282.18,2036.03 C3280.14,2037.48 3279.12,2038.83 3279.12,2040.06 C3279.12,2041.98 3280.06,2043.39 3281.95,2044.29 C3283.84,2045.18 3286.11,2045.63 3288.77,2045.63 C3292.23,2045.63 3294.69,2043.91 3296.15,2040.48 C3297.6,2037.05 3298.33,2032.83 3298.33,2027.82 L3298.33,2025.41 C3298.33,2022.07 3298.22,2019.53 3298,2017.8 C3297.78,2016.07 3297.1,2014.52 3295.96,2013.16 C3294.82,2011.8 3293.07,2011.12 3290.72,2011.12 L3278.56,2011.12 C3277.14,2011.12 3276.43,2010.35 3276.43,2008.8 C3276.43,2007.38 3277.14,2006.67 3278.56,2006.67 L3290.72,2006.67 C3293.25,2006.67 3295.23,2005.71 3296.66,2003.79 C3297.15,2003.11 3297.55,2002 3297.86,2000.45 C3298.17,1998.41 3298.33,1995.47 3298.33,1991.64 L3298.33,1990.43 C3298.33,1981.22 3294.92,1976.61 3288.12,1976.61 C3282.12,1976.61 3279.12,1978.28 3279.12,1981.62 C3279.12,1982.73 3280.03,1983.92 3281.86,1985.19 C3283.68,1986.46 3284.6,1987.65 3284.6,1988.76 C3284.6,1991.17 3283.74,1993.24 3282.04,1994.98 C3280.34,1996.71 3278.27,1997.57 3275.83,1997.57 C3273.38,1997.57 3271.33,1996.71 3269.66,1994.98 C3267.99,1993.24 3267.15,1991.17 3267.15,1988.76 C3267.15,1984 3269.23,1980.19 3273.37,1977.35 C3277.51,1974.5 3282.43,1973.08 3288.12,1973.08 C3295.6,1973.08 3301.76,1974.52 3306.58,1977.4 C3311.41,1980.27 3313.82,1984.62 3313.82,1990.43 C3313.82,1994.57 3313.39,1997.79 3312.52,2000.08 C3311.65,2002.37 3310.66,2003.76 3309.55,2004.25 C3308.44,2004.75 3307.45,2005.32 3306.58,2005.97 C3305.72,2006.62 3305.28,2007.56 3305.28,2008.8"/>
<polyline class="FretDiagram" stroke="#fc02ff" stroke-width="4.76" stroke-linejoin="bevel" points="1714.72,227.452 1927.83,227.452"/>
<polyline class="FretDiagram" stroke="#fc02ff" stroke-width="4.76" stroke-linejoin="bevel" points="1717.11,215.547 1717.11,441.751"/>
<polyline class="FretDiagram" stroke="#fc02ff" stroke-width="4.76" stroke-linejoin="bevel" points="1758.78,215.547 1758.78,441.751"/>
<polyline class="FretDiagram" stroke="#fc02ff" stroke-width="4.76" stroke-linejoin="bevel" points="1800.44,215.547 1800.44,441.751"/>
<polyline class="FretDiagram" stroke="#fc02ff" stroke-width="4.76" stroke-linejoin="bevel" points="1842.11,215.547 1842.11,441.751"/>
<polyline class="FretDiagram" stroke="#fc02ff" stroke-width="4.76" stroke-linejoin="bevel" points="1883.78,215.547 1883.78,441.751"/>
<polyline class="FretDiagram" stroke="#fc02ff" stroke-width="4.76" stroke-linejoin="bevel" points="1925.45,215.547 1925.45,441.751"/>
<polyline class="FretDiagram" stroke="#fc02ff" stroke-width="4.76" stroke-linejoin="bevel" points="1717.11,275.074 1925.45,275.074"/>
<polyline class="FretDiagram" stroke="#fc02ff" stroke-width="4.76" stroke-linejoin="bevel" points="1717.11,322.696 1925.45,322.696"/>
<polyline class="FretDiagram" stroke="#fc02ff" stroke-width="4.76" stroke-linejoin="bevel" points="1717.11,370.318 1925.45,370.318"/>
<polyline class="FretDiagram" stroke="#fc02ff" stroke-width="4.76" stroke-linejoin="bevel" points="1717.11,417.94 1925.45,417.94"/>
<path class="FretDiagram" fill="#fc02ff" fill-rule="evenodd" d="M1815.03,394.129 C1815.03,402.184 1808.5,408.713 1800.44,408.713 C1792.39,408.713 1785.86,402.184 1785.86,394.129 C1785.86,386.075 1792.39,379.545 1800.44,379.545 C1808.5,379.545 1815.03,386.075 1815.03,394.129"/>
<path class="FretDiagram" fill="#fc02ff" fill-rule="evenodd" d="M1856.7,394.129 C1856.7,402.184 1850.17,408.713 1842.11,408.713 C1834.06,408.713 1827.53,402.184 1827.53,394.129 C1827.53,386.075 1834.06,379.545 1842.11,379.545 C1850.17,379.545 1856.7,386.075 1856.7,394.129"/>
<path class="FretDiagram" fill="#fc02ff" fill-rule="evenodd" d="M1898.37,394.129 C1898.37,402.184 1891.84,408.713 1883.78,408.713 C1875.73,408.713 1869.2,402.184 1869.2,394.129 C1869.2,386.075 1875.73,379.545 1883.78,379.545 C1891.84,379.545 1898.37,386.075 1898.37,394.129"/>
<polyline class="FretDiagram" fill="none" stroke="#fc02ff" stroke-width="6.86" stroke-linecap="round" stroke-linejoin="bevel" points="1700.44,163.162 1733.77,196.498"/>
<polyline class="FretDiagram" fill="none" stroke="#fc02ff" stroke-width="6.86" stroke-linecap="round" stroke-linejoin="bevel" points="1700.44,196.498 1733.77,163.162"/>
<path class="FretDiagram" fill="none" stroke="#fc02ff" stroke-width="6.86" stroke-linecap="round" stroke-linejoin="bevel" fill-rule="evenodd" d="M1775.44,179.83 C1775.44,189.035 1767.98,196.498 1758.78,196.498 C1749.57,196.498 1742.11,189.035 1742.11,179.83 C1742.11,170.625 1749.57,163.162 1758.78,163.162 C1767.98,163.162 1775.44,170.625 1775.44,179.83"/>
<polyline class="FretDiagram" fill="none" stroke="#fc02ff" stroke-width="6.86" stroke-linecap="round" stroke-linejoin="bevel" points="1908.78,163.162 1942.12,196.498"/>
<polyline class="FretDiagram" fill="none" stroke="#fc02ff" stroke-width="6.86" stroke-linecap="round" stroke-linejoin="bevel" points="1908.78,196.498 1942.12,163.162"/>
<polyline class="FretDiagram" fill="none" stroke="#fc02ff" stroke-width="29.17" stroke-linecap="round" stroke-linejoin="bevel" points="1758.78,251.263 1925.45,251.263"/>
<path class="FretDiagram" fill="#fc02ff" d="M1697.04,217.16 L1697.04,224.19 C1689.44,234.323 1683.44,244.219 1679.03,253.877 C1674.63,263.535 1671.51,273.748 1669.68,284.515 L1660.75,284.515 C1663.28,273.431 1666.51,263.678 1670.44,255.255 C1674.36,246.831 1680.35,236.888 1688.39,225.425 L1652.01,225.425 L1652.01,217.16 L1697.04,217.16 "/>
<polyline class="FretDiagram" fill="#fc02ff" stroke="#fc02ff" stroke-width="4.76" stroke-linejoin="bevel" points="2345.72,227.452 2558.83,227.452"/>
<polyline class="FretDiagram" fill="#fc02ff" stroke="#fc02ff" stroke-width="4.76" stroke-linejoin="bevel" points="2348.1,215.547 2348.1,441.751"/>
<polyline class="FretDiagram" fill="#fc02ff" stroke="#fc02ff" stroke-width="4.76" stroke-linejoin="bevel" points="2389.77,215.547 2389.77,441.751"/>
<polyline class="FretDiagram" fill="#fc02ff" stroke="#fc02ff" stroke-width="4.76" stroke-linejoin="bevel" points="2431.44,215.547 2431.44,441.751"/>
<polyline class="FretDiagram" fill="#fc02ff" stroke="#fc02ff" stroke-width="4.76" stroke-linejoin="bevel" points="2473.11,215.547 2473.11,441.751"/>
<polyline class="FretDiagram" fill="#fc02ff" stroke="#fc02ff" stroke-width="4.76" stroke-linejoin="bevel" points="2514.78,215.547 2514.78,441.751"/>
<polyline class="FretDiagram" fill="#fc02ff" stroke="#fc02ff" stroke-width="4.76" stroke-linejoin="bevel" points="2556.45,215.547 2556.45,441.751"/>
<polyline class="FretDiagram" fill="#fc02ff" stroke="#fc02ff" stroke-width="4.76" stroke-linejoin="bevel" points="2348.1,275.074 2556.45,275.074"/>
<polyline class="FretDiagram" fill="#fc02ff" stroke="#fc02ff" stroke-width="4.76" stroke-linejoin="bevel" points="2348.1,322.696 2556.45,322.696"/>
<polyline class="FretDiagram" fill="#fc02ff" stroke="#fc02ff" stroke-width="4.76" stroke-linejoin="bevel" points="2348.1,370.318 2556.45,370.318"/>
<polyline class="FretDiagram" fill="#fc02ff" stroke="#fc02ff" stroke-width="4.76" stroke-linejoin="bevel" points="2348.1,417.94 2556.45,417.94"/>
<path class="FretDiagram" fill="#fc02ff" fill-rule="evenodd" d="M2446.03,346.507 C2446.03,354.562 2439.5,361.091 2431.44,361.091 C2423.39,361.091 2416.86,354.562 2416.86,346.507 C2416.86,338.453 2423.39,331.923 2431.44,331.923 C2439.5,331.923 2446.03,338.453 2446.03,346.507"/>
<path class="FretDiagram" fill="#fc02ff" fill-rule="evenodd" d="M2487.7,394.129 C2487.7,402.184 2481.17,408.713 2473.11,408.713 C2465.06,408.713 2458.53,402.184 2458.53,394.129 C2458.53,386.075 2465.06,379.545 2473.11,379.545 C2481.17,379.545 2487.7,386.075 2487.7,394.129"/>
<path class="FretDiagram" fill="#fc02ff" fill-rule="evenodd" d="M2529.37,394.129 C2529.37,402.184 2522.84,408.713 2514.78,408.713 C2506.73,408.713 2500.2,402.184 2500.2,394.129 C2500.2,386.075 2506.73,379.545 2514.78,379.545 C2522.84,379.545 2529.37,386.075 2529.37,394.129"/>
<polyline class="FretDiagram" fill="none" stroke="#fc02ff" stroke-width="6.86" stroke-linecap="round" stroke-linejoin="bevel" points="2331.44,163.162 2364.77,196.498"/>
<polyline class="FretDiagram" fill="none" stroke="#fc02ff" stroke-width="6.86" stroke-linecap="round" stroke-linejoin="bevel" points="2331.44,196.498 2364.77,163.162"/>
<path class="FretDiagram" fill="none" stroke="#fc02ff" stroke-width="6.86" stroke-linecap="round" stroke-linejoin="bevel" fill-rule="evenodd" d="M2406.44,179.83 C2406.44,189.035 2398.98,196.498 2389.77,196.498 C2380.57,196.498 2373.11,189.035 2373.11,179.83 C2373.11,170.625 2380.57,163.162 2389.77,163.162 C2398.98,163.162 2406.44,170.625 2406.44,179.83"/>
<polyline class="FretDiagram" fill="none" stroke="#fc02ff" stroke-width="6.86" stroke-linecap="round" stroke-linejoin="bevel" points="2539.78,163.162 2573.12,196.498"/>
<polyline class="FretDiagram" fill="none" stroke="#fc02ff" stroke-width="6.86" stroke-linecap="round" stroke-linejoin="bevel" points="2539.78,196.498 2573.12,163.162"/>
<polyline class="FretDiagram" fill="none" stroke="#fc02ff" stroke-width="29.17" stroke-linecap="round" stroke-linejoin="bevel" points="2389.77,251.263 2556.45,251.263"/>
<path class="FretDiagram" fill="#fc02ff" d="M2328.04,217.16 L2328.04,224.19 C2320.44,234.323 2314.43,244.219 2310.03,253.877 C2305.63,263.535 2302.51,273.748 2300.68,284.515 L2291.75,284.515 C2294.28,273.431 2297.51,263.678 2301.44,255.255 C2305.36,246.831 2311.35,236.888 2319.39,225.425 L2283.01,225.425 L2283.01,217.16 L2328.04,217.16 "/>
<polyline class="FretDiagram" fill="#fc02ff" stroke="#fc02ff" stroke-width="4.76" stroke-linejoin="bevel" points="3184.07,227.452 3397.18,227.452"/>
<polyline class="FretDiagram" fill="#fc02ff" stroke="#fc02ff" stroke-width="4.76" stroke-linejoin="bevel" points="3186.45,215.547 3186.45,441.751"/>
<polyline class="FretDiagram" fill="#fc02ff" stroke="#fc02ff" stroke-width="4.76" stroke-linejoin="bevel" points="3228.12,215.547 3228.12,441.751"/>
<polyline class="FretDiagram" fill="#fc02ff" stroke="#fc02ff" stroke-width="4.76" stroke-linejoin="bevel" points="3269.79,215.547 3269.79,441.751"/>
<polyline class="FretDiagram" fill="#fc02ff" stroke="#fc02ff" stroke-width="4.76" stroke-linejoin="bevel" points="3311.46,215.547 3311.46,441.751"/>
<polyline class="FretDiagram" fill="#fc02ff" stroke="#fc02ff" stroke-width="4.76" stroke-linejoin="bevel" points="3353.13,215.547 3353.13,441.751"/>
<polyline class="FretDiagram" fill="#fc02ff" stroke="#fc02ff" stroke-width="4.76" stroke-linejoin="bevel" points="3394.8,215.547 3394.8,441.751"/>
<polyline class="FretDiagram" fill="#fc02ff" stroke="#fc02ff" stroke-width="4.76" stroke-linejoin="bevel" points="3186.45,275.074 3394.8,275.074"/>
<polyline class="FretDiagram" fill="#fc02ff" stroke="#fc02ff" stroke-width="4.76" stroke-linejoin="bevel" points="3186.45,322.696 3394.8,322.696"/>
<polyline class="FretDiagram" fill="#fc02ff" stroke="#fc02ff" stroke-width="4.76" stroke-linejoin="bevel" points="3186.45,370.318 3394.8,370.318"/>
<polyline class="FretDiagram" fill="#fc02ff" stroke="#fc02ff" stroke-width="4.76" stroke-linejoin="bevel" points="3186.45,417.94 3394.8,417.94"/>
<path class="FretDiagram" fill="#fc02ff" fill-rule="evenodd" d="M3326.04,394.129 C3326.04,402.184 3319.51,408.713 3311.46,408.713 C3303.4,408.713 3296.87,402.184 3296.87,394.129 C3296.87,386.075 3303.4,379.545 3311.46,379.545 C3319.51,379.545 3326.04,386.075 3326.04,394.129"/>
<path class="FretDiagram" fill="#fc02ff" fill-rule="evenodd" d="M3367.71,346.507 C3367.71,354.562 3361.18,361.091 3353.13,361.091 C3345.07,361.091 3338.54,354.562 3338.54,346.507 C3338.54,338.453 3345.07,331.923 3353.13,331.923 C3361.18,331.923 3367.71,338.453 3367.71,346.507"/>
<path class="FretDiagram" fill="#fc02ff" fill-rule="evenodd" d="M3409.38,394.129 C3409.38,402.184 3402.85,408.713 3394.8,408.713 C3386.74,408.713 3380.21,402.184 3380.21,394.129 C3380.21,386.075 3386.74,379.545 3394.8,379.545 C3402.85,379.545 3409.38,386.075 3409.38,394.129"/>
<polyline class="FretDiagram" fill="none" stroke="#fc02ff" stroke-width="6.86" stroke-linecap="round" stroke-linejoin="bevel" points="3169.78,163.162 3203.12,196.498"/>
<polyline class="FretDiagram" fill="none" stroke="#fc02ff" stroke-width="6.86" stroke-linecap="round" stroke-linejoin="bevel" points="3169.78,196.498 3203.12,163.162"/>
<path class="FretDiagram" fill="none" stroke="#fc02ff" stroke-width="6.86" stroke-linecap="round" stroke-linejoin="bevel" fill-rule="evenodd" d="M3244.79,179.83 C3244.79,189.035 3237.32,196.498 3228.12,196.498 C3218.91,196.498 3211.45,189.035 3211.45,179.83 C3211.45,170.625 3218.91,163.162 3228.12,163.162 C3237.32,163.162 3244.79,170.625 3244.79,179.83"/>
<polyline class="FretDiagram" fill="none" stroke="#fc02ff" stroke-width="6.86" stroke-linecap="round" stroke-linejoin="bevel" points="3253.12,163.162 3286.46,196.498"/>
<polyline class="FretDiagram" fill="none" stroke="#fc02ff" stroke-width="6.86" stroke-linecap="round" stroke-linejoin="bevel" points="3253.12,196.498 3286.46,163.162"/>
<polyline class="FretDiagram" fill="none" stroke="#fc02ff" stroke-width="29.17" stroke-linecap="round" stroke-linejoin="bevel" points="3228.12,251.263 3394.8,251.263"/>
<path class="FretDiagram" fill="#fc02ff" d="M3166.38,217.16 L3166.38,224.19 C3158.78,234.323 3152.78,244.219 3148.38,253.877 C3143.98,263.535 3140.86,273.748 3139.02,284.515 L3130.09,284.515 C3132.62,273.431 3135.85,263.678 3139.78,255.255 C3143.71,246.831 3149.69,236.888 3157.74,225.425 L3121.35,225.425 L3121.35,217.16 L3166.38,217.16 "/>
<path class="Bracket" transform="matrix(8.6315,0,0,9.85614,76.1283,2377.43)" d="M0.92002,-50 C2.69004,-51.88 6.2,-55.8 6.2,-63 C6.2,-72.1 2.25996,-81.32 2.25996,-86.97 C2.25996,-93.06 5.84004,-98.84 5.95,-99 C6.05996,-99.16 6.05,-99.39 5.94004,-99.46 C5.82998,-99.53 5.62002,-99.47 5.49004,-99.32 C5.35996,-99.17 0,-93.75 0,-85.6 C0,-76.75 3.5,-70.58 3.5,-59.07 C3.5,-56.89 2.55996,-53.36 0.1,-50.33 C-0.0799805,-50.17 -0.1,-49.89 0.0599609,-49.7 L0.0700195,-49.69 L0.1,-49.66 C2.55996,-46.63 3.5,-43.1 3.5,-40.92 C3.5,-29.4 0,-23.24 0,-14.39 C0,-6.25 5.35996,-0.8 5.49004,-0.659961 C5.62002,-0.52002 5.8,-0.42998 5.94004,-0.52002 C6.07998,-0.609961 6.07998,-0.77998 5.95,-0.97998 C5.82002,-1.17998 2.25996,-6.92002 2.25996,-13.01 C2.25996,-18.66 6.2,-27.9 6.2,-37 C6.2,-44.3 2.69004,-48.12 0.92002,-50"/>
</svg>
