<?xml version="1.0" encoding="UTF-8" standalone="no"?>
<svg width="4209.44px" height="2976.38px" viewBox="0 0 4209.44 2976.38"
 xmlns="http://www.w3.org/2000/svg" xmlns:xlink="http://www.w3.org/1999/xlink" version="1.2" baseProfile="tiny">
<title>ReMineur (20)</title>
<desc>Generated by MuseScore 3.6.2</desc>
<polyline class="StaffLines" fill="none" stroke="#000000" stroke-width="6.55" stroke-linejoin="bevel" points="153.819,558.425 4138.58,558.425"/>
<polyline class="StaffLines" fill="none" stroke="#000000" stroke-width="6.55" stroke-linejoin="bevel" points="153.819,647.717 4138.58,647.717"/>
<polyline class="StaffLines" fill="none" stroke="#000000" stroke-width="6.55" stroke-linejoin="bevel" points="153.819,737.008 4138.58,737.008"/>
<polyline class="StaffLines" fill="none" stroke="#000000" stroke-width="6.55" stroke-linejoin="bevel" points="153.819,826.299 4138.58,826.299"/>
<polyline class="StaffLines" fill="none" stroke="#000000" stroke-width="6.55" stroke-linejoin="bevel" points="153.819,915.591 4138.58,915.591"/>
<polyline class="StaffLines" fill="none" stroke="#000000" stroke-width="6.55" stroke-linejoin="bevel" points="153.819,1004.88 4138.58,1004.88"/>
<polyline class="StaffLines" fill="none" stroke="#000000" stroke-width="6.55" stroke-linejoin="bevel" points="153.819,1391.81 4138.58,1391.81"/>
<polyline class="StaffLines" fill="none" stroke="#000000" stroke-width="6.55" stroke-linejoin="bevel" points="153.819,1451.34 4138.58,1451.34"/>
<polyline class="StaffLines" fill="none" stroke="#000000" stroke-width="6.55" stroke-linejoin="bevel" points="153.819,1510.87 4138.58,1510.87"/>
<polyline class="StaffLines" fill="none" stroke="#000000" stroke-width="6.55" stroke-linejoin="bevel" points="153.819,1570.39 4138.58,1570.39"/>
<polyline class="StaffLines" fill="none" stroke="#000000" stroke-width="6.55" stroke-linejoin="bevel" points="153.819,1629.92 4138.58,1629.92"/>
<polyline class="StaffLines" fill="none" stroke="#000000" stroke-width="6.55" stroke-linejoin="bevel" points="153.819,2099.26 4138.58,2099.26"/>
<polyline class="StaffLines" fill="none" stroke="#000000" stroke-width="6.55" stroke-linejoin="bevel" points="153.819,2158.79 4138.58,2158.79"/>
<polyline class="StaffLines" fill="none" stroke="#000000" stroke-width="6.55" stroke-linejoin="bevel" points="153.819,2218.32 4138.58,2218.32"/>
<polyline class="StaffLines" fill="none" stroke="#000000" stroke-width="6.55" stroke-linejoin="bevel" points="153.819,2277.85 4138.58,2277.85"/>
<polyline class="StaffLines" fill="none" stroke="#000000" stroke-width="6.55" stroke-linejoin="bevel" points="153.819,2337.37 4138.58,2337.37"/>
<polyline class="BarLine" fill="none" stroke="#000000" stroke-width="10.71" stroke-linejoin="bevel" points="159.176,2095.99 159.176,2340.65"/>
<polyline class="BarLine" fill="none" stroke="#000000" stroke-width="10.71" stroke-linejoin="bevel" points="1154.99,2095.99 1154.99,2340.65"/>
<polyline class="BarLine" fill="none" stroke="#000000" stroke-width="10.71" stroke-linejoin="bevel" points="1729.58,2095.99 1729.58,2340.65"/>
<polyline class="BarLine" fill="none" stroke="#000000" stroke-width="10.71" stroke-linejoin="bevel" points="2295.99,2095.99 2295.99,2340.65"/>
<polyline class="BarLine" fill="none" stroke="#000000" stroke-width="10.71" stroke-linejoin="bevel" points="2328.73,2095.99 2328.73,2340.65"/>
<polyline class="BarLine" fill="none" stroke="#000000" stroke-width="10.71" stroke-linejoin="bevel" points="2939.54,2095.99 2939.54,2340.65"/>
<polyline class="BarLine" fill="none" stroke="#000000" stroke-width="10.71" stroke-linejoin="bevel" points="3514.12,2095.99 3514.12,2340.65"/>
<polyline class="BarLine" fill="none" stroke="#000000" stroke-width="10.71" stroke-linejoin="bevel" points="4080.54,2095.99 4080.54,2340.65"/>
<polyline class="BarLine" fill="none" stroke="#000000" stroke-width="32.74" stroke-linejoin="bevel" points="4122.21,2095.99 4122.21,2340.65"/>
<polyline class="BarLine" fill="none" stroke="#000000" stroke-width="10.71" stroke-linejoin="bevel" points="159.176,1388.54 159.176,2099.26"/>
<polyline class="BarLine" fill="none" stroke="#000000" stroke-width="10.71" stroke-linejoin="bevel" points="1154.99,1388.54 1154.99,1633.2"/>
<polyline class="BarLine" fill="none" stroke="#000000" stroke-width="10.71" stroke-linejoin="bevel" points="1729.58,1388.54 1729.58,1633.2"/>
<polyline class="BarLine" fill="none" stroke="#000000" stroke-width="10.71" stroke-linejoin="bevel" points="2295.99,1388.54 2295.99,1633.2"/>
<polyline class="BarLine" fill="none" stroke="#000000" stroke-width="10.71" stroke-linejoin="bevel" points="2328.73,1388.54 2328.73,1633.2"/>
<polyline class="BarLine" fill="none" stroke="#000000" stroke-width="10.71" stroke-linejoin="bevel" points="2939.54,1388.54 2939.54,1633.2"/>
<polyline class="BarLine" fill="none" stroke="#000000" stroke-width="10.71" stroke-linejoin="bevel" points="3514.12,1388.54 3514.12,1633.2"/>
<polyline class="BarLine" fill="none" stroke="#000000" stroke-width="10.71" stroke-linejoin="bevel" points="4080.54,1388.54 4080.54,1633.2"/>
<polyline class="BarLine" fill="none" stroke="#000000" stroke-width="32.74" stroke-linejoin="bevel" points="4122.21,1388.54 4122.21,1633.2"/>
<polyline class="BarLine" fill="none" stroke="#000000" stroke-width="10.71" stroke-linejoin="bevel" points="159.176,555.151 159.176,1391.81"/>
<polyline class="BarLine" fill="none" stroke="#000000" stroke-width="10.71" stroke-linejoin="bevel" points="1154.99,555.151 1154.99,1008.16"/>
<polyline class="BarLine" fill="none" stroke="#000000" stroke-width="10.71" stroke-linejoin="bevel" points="1729.58,555.151 1729.58,1008.16"/>
<polyline class="BarLine" fill="none" stroke="#000000" stroke-width="10.71" stroke-linejoin="bevel" points="2295.99,555.151 2295.99,1008.16"/>
<polyline class="BarLine" fill="none" stroke="#000000" stroke-width="10.71" stroke-linejoin="bevel" points="2328.73,555.151 2328.73,1008.16"/>
<polyline class="BarLine" fill="none" stroke="#000000" stroke-width="10.71" stroke-linejoin="bevel" points="2939.54,555.151 2939.54,1008.16"/>
<polyline class="BarLine" fill="none" stroke="#000000" stroke-width="10.71" stroke-linejoin="bevel" points="3514.12,555.151 3514.12,1008.16"/>
<polyline class="BarLine" fill="none" stroke="#000000" stroke-width="10.71" stroke-linejoin="bevel" points="4080.54,555.151 4080.54,1008.16"/>
<polyline class="BarLine" fill="none" stroke="#000000" stroke-width="32.74" stroke-linejoin="bevel" points="4122.21,555.151 4122.21,1008.16"/>
<path class="Accidental" transform="matrix(2.3811,0,0,2.3811,1206.42,1689.45)" d="M23.3,-10.6 C23.9,-10.7 24.4,-11.4 24.4,-12 L24.4,-17.9 C24.4,-18.7 23.8,-19.3 23,-19.3 L22.8,-19.3 L19.5,-18.6 L19.5,-33.5 L16.7,-33.5 L16.7,-18 L7.8,-16.2 L7.8,-30.3 L5,-30.3 L5,-15.6 L1.1,-14.8 C0.5,-14.7 0,-14 0,-13.4 L0,-13.2 L0,-7.4 L0,-7.6 C0,-6.8 0.6,-6.2 1.4,-6.2 L1.7,-6.2 L5,-6.9 L5,9.6 L1.1,10.4 C0.5,10.5 0,11.2 0,11.8 L0,17.6 C0,18.4 0.6,19 1.4,19 L1.7,19 L5,18.3 L5,33.2 L7.8,33.2 L7.8,17.7 L16.7,15.9 L16.7,30 L19.5,30 L19.5,15.3 L23.3,14.6 C23.9,14.5 24.4,13.8 24.4,13.2 L24.4,7.3 C24.4,6.5 23.8,5.9 23,5.9 L22.8,5.9 L19.5,6.6 L19.5,-9.9 L23.3,-10.6 M7.8,9.1 L7.8,-7.5 L16.7,-9.3 L16.7,7.2 L7.8,9.1 "/>
<path class="Accidental" transform="matrix(2.3811,0,0,2.3811,2990.96,1689.45)" d="M23.3,-10.6 C23.9,-10.7 24.4,-11.4 24.4,-12 L24.4,-17.9 C24.4,-18.7 23.8,-19.3 23,-19.3 L22.8,-19.3 L19.5,-18.6 L19.5,-33.5 L16.7,-33.5 L16.7,-18 L7.8,-16.2 L7.8,-30.3 L5,-30.3 L5,-15.6 L1.1,-14.8 C0.5,-14.7 0,-14 0,-13.4 L0,-13.2 L0,-7.4 L0,-7.6 C0,-6.8 0.6,-6.2 1.4,-6.2 L1.7,-6.2 L5,-6.9 L5,9.6 L1.1,10.4 C0.5,10.5 0,11.2 0,11.8 L0,17.6 C0,18.4 0.6,19 1.4,19 L1.7,19 L5,18.3 L5,33.2 L7.8,33.2 L7.8,17.7 L16.7,15.9 L16.7,30 L19.5,30 L19.5,15.3 L23.3,14.6 C23.9,14.5 24.4,13.8 24.4,13.2 L24.4,7.3 C24.4,6.5 23.8,5.9 23,5.9 L22.8,5.9 L19.5,6.6 L19.5,-9.9 L23.3,-10.6 M7.8,9.1 L7.8,-7.5 L16.7,-9.3 L16.7,7.2 L7.8,9.1 "/>
<polyline class="LedgerLine" fill="none" stroke="#000000" stroke-width="9.52" stroke-linejoin="bevel" points="1812.8,2396.9 1943.27,2396.9"/>
<polyline class="LedgerLine" fill="none" stroke="#000000" stroke-width="9.52" stroke-linejoin="bevel" points="3597.34,2396.9 3727.82,2396.9"/>
<polyline class="LedgerLine" fill="none" stroke="#000000" stroke-width="9.52" stroke-linejoin="bevel" points="1279.4,1689.45 1409.87,1689.45"/>
<polyline class="LedgerLine" fill="none" stroke="#000000" stroke-width="9.52" stroke-linejoin="bevel" points="3063.94,1689.45 3194.42,1689.45"/>
<path class="Note" transform="matrix(2.3811,0,0,2.3811,626.933,2337.37)" d="M18.7,-13.6 C4.9,-13.6 0,-6.6 0,-0.1 C0,6.4 4.9,13.4 18.7,13.4 C32.5,13.4 37.3,6.4 37.3,-0.1 C37.3,-6.6 32.5,-13.6 18.7,-13.6 M10.4,-4.5 C10.3,-4.9 10.3,-5.3 10.3,-5.7 C10.3,-6.5 10.5,-7.3 10.9,-8 C11.6,-9 12.8,-9.7 14.3,-10 C15.6,-10.3 16.3,-10.5 18.9,-10.5 L19,-10.5 C23,-10.5 24.3,-6.8 25.4,-3 L25.7,-2 C26.5,0.6 26.9,2.8 26.9,4.5 C26.9,5.7 26.7,6.8 26.3,7.6 C25.7,8.7 24.7,9.4 23,9.8 C22.1,10 20.6,10.1 20.6,10.1 C20.1,10.1 19.7,10.2 19.3,10.2 C16.1,10.2 14.1,9 12.7,4.7 C11.5,1 11.3,-0.1 10.4,-4.5"/>
<path class="Note" transform="matrix(2.3811,0,0,2.3811,1300.23,2307.61)" d="M18.7,-13.6 C4.9,-13.6 0,-6.6 0,-0.1 C0,6.4 4.9,13.4 18.7,13.4 C32.5,13.4 37.3,6.4 37.3,-0.1 C37.3,-6.6 32.5,-13.6 18.7,-13.6 M10.4,-4.5 C10.3,-4.9 10.3,-5.3 10.3,-5.7 C10.3,-6.5 10.5,-7.3 10.9,-8 C11.6,-9 12.8,-9.7 14.3,-10 C15.6,-10.3 16.3,-10.5 18.9,-10.5 L19,-10.5 C23,-10.5 24.3,-6.8 25.4,-3 L25.7,-2 C26.5,0.6 26.9,2.8 26.9,4.5 C26.9,5.7 26.7,6.8 26.3,7.6 C25.7,8.7 24.7,9.4 23,9.8 C22.1,10 20.6,10.1 20.6,10.1 C20.1,10.1 19.7,10.2 19.3,10.2 C16.1,10.2 14.1,9 12.7,4.7 C11.5,1 11.3,-0.1 10.4,-4.5"/>
<path class="Note" transform="matrix(2.3811,0,0,2.3811,1833.63,2426.67)" d="M18.7,-13.6 C4.9,-13.6 0,-6.6 0,-0.1 C0,6.4 4.9,13.4 18.7,13.4 C32.5,13.4 37.3,6.4 37.3,-0.1 C37.3,-6.6 32.5,-13.6 18.7,-13.6 M10.4,-4.5 C10.3,-4.9 10.3,-5.3 10.3,-5.7 C10.3,-6.5 10.5,-7.3 10.9,-8 C11.6,-9 12.8,-9.7 14.3,-10 C15.6,-10.3 16.3,-10.5 18.9,-10.5 L19,-10.5 C23,-10.5 24.3,-6.8 25.4,-3 L25.7,-2 C26.5,0.6 26.9,2.8 26.9,4.5 C26.9,5.7 26.7,6.8 26.3,7.6 C25.7,8.7 24.7,9.4 23,9.8 C22.1,10 20.6,10.1 20.6,10.1 C20.1,10.1 19.7,10.2 19.3,10.2 C16.1,10.2 14.1,9 12.7,4.7 C11.5,1 11.3,-0.1 10.4,-4.5"/>
<path class="Note" transform="matrix(2.3811,0,0,2.3811,2411.48,2277.85)" d="M18.7,-13.6 C4.9,-13.6 0,-6.6 0,-0.1 C0,6.4 4.9,13.4 18.7,13.4 C32.5,13.4 37.3,6.4 37.3,-0.1 C37.3,-6.6 32.5,-13.6 18.7,-13.6 M10.4,-4.5 C10.3,-4.9 10.3,-5.3 10.3,-5.7 C10.3,-6.5 10.5,-7.3 10.9,-8 C11.6,-9 12.8,-9.7 14.3,-10 C15.6,-10.3 16.3,-10.5 18.9,-10.5 L19,-10.5 C23,-10.5 24.3,-6.8 25.4,-3 L25.7,-2 C26.5,0.6 26.9,2.8 26.9,4.5 C26.9,5.7 26.7,6.8 26.3,7.6 C25.7,8.7 24.7,9.4 23,9.8 C22.1,10 20.6,10.1 20.6,10.1 C20.1,10.1 19.7,10.2 19.3,10.2 C16.1,10.2 14.1,9 12.7,4.7 C11.5,1 11.3,-0.1 10.4,-4.5"/>
<path class="Note" transform="matrix(2.3811,0,0,2.3811,3084.77,2307.61)" d="M18.7,-13.6 C4.9,-13.6 0,-6.6 0,-0.1 C0,6.4 4.9,13.4 18.7,13.4 C32.5,13.4 37.3,6.4 37.3,-0.1 C37.3,-6.6 32.5,-13.6 18.7,-13.6 M10.4,-4.5 C10.3,-4.9 10.3,-5.3 10.3,-5.7 C10.3,-6.5 10.5,-7.3 10.9,-8 C11.6,-9 12.8,-9.7 14.3,-10 C15.6,-10.3 16.3,-10.5 18.9,-10.5 L19,-10.5 C23,-10.5 24.3,-6.8 25.4,-3 L25.7,-2 C26.5,0.6 26.9,2.8 26.9,4.5 C26.9,5.7 26.7,6.8 26.3,7.6 C25.7,8.7 24.7,9.4 23,9.8 C22.1,10 20.6,10.1 20.6,10.1 C20.1,10.1 19.7,10.2 19.3,10.2 C16.1,10.2 14.1,9 12.7,4.7 C11.5,1 11.3,-0.1 10.4,-4.5"/>
<path class="Note" transform="matrix(2.3811,0,0,2.3811,3618.18,2426.67)" d="M18.7,-13.6 C4.9,-13.6 0,-6.6 0,-0.1 C0,6.4 4.9,13.4 18.7,13.4 C32.5,13.4 37.3,6.4 37.3,-0.1 C37.3,-6.6 32.5,-13.6 18.7,-13.6 M10.4,-4.5 C10.3,-4.9 10.3,-5.3 10.3,-5.7 C10.3,-6.5 10.5,-7.3 10.9,-8 C11.6,-9 12.8,-9.7 14.3,-10 C15.6,-10.3 16.3,-10.5 18.9,-10.5 L19,-10.5 C23,-10.5 24.3,-6.8 25.4,-3 L25.7,-2 C26.5,0.6 26.9,2.8 26.9,4.5 C26.9,5.7 26.7,6.8 26.3,7.6 C25.7,8.7 24.7,9.4 23,9.8 C22.1,10 20.6,10.1 20.6,10.1 C20.1,10.1 19.7,10.2 19.3,10.2 C16.1,10.2 14.1,9 12.7,4.7 C11.5,1 11.3,-0.1 10.4,-4.5"/>
<path class="Note" transform="matrix(2.3811,0,0,2.3811,626.933,1659.69)" d="M18.7,-13.6 C4.9,-13.6 0,-6.6 0,-0.1 C0,6.4 4.9,13.4 18.7,13.4 C32.5,13.4 37.3,6.4 37.3,-0.1 C37.3,-6.6 32.5,-13.6 18.7,-13.6 M10.4,-4.5 C10.3,-4.9 10.3,-5.3 10.3,-5.7 C10.3,-6.5 10.5,-7.3 10.9,-8 C11.6,-9 12.8,-9.7 14.3,-10 C15.6,-10.3 16.3,-10.5 18.9,-10.5 L19,-10.5 C23,-10.5 24.3,-6.8 25.4,-3 L25.7,-2 C26.5,0.6 26.9,2.8 26.9,4.5 C26.9,5.7 26.7,6.8 26.3,7.6 C25.7,8.7 24.7,9.4 23,9.8 C22.1,10 20.6,10.1 20.6,10.1 C20.1,10.1 19.7,10.2 19.3,10.2 C16.1,10.2 14.1,9 12.7,4.7 C11.5,1 11.3,-0.1 10.4,-4.5"/>
<path class="Note" transform="matrix(2.3811,0,0,2.3811,709.192,1629.92)" d="M18.7,-13.6 C4.9,-13.6 0,-6.6 0,-0.1 C0,6.4 4.9,13.4 18.7,13.4 C32.5,13.4 37.3,6.4 37.3,-0.1 C37.3,-6.6 32.5,-13.6 18.7,-13.6 M10.4,-4.5 C10.3,-4.9 10.3,-5.3 10.3,-5.7 C10.3,-6.5 10.5,-7.3 10.9,-8 C11.6,-9 12.8,-9.7 14.3,-10 C15.6,-10.3 16.3,-10.5 18.9,-10.5 L19,-10.5 C23,-10.5 24.3,-6.8 25.4,-3 L25.7,-2 C26.5,0.6 26.9,2.8 26.9,4.5 C26.9,5.7 26.7,6.8 26.3,7.6 C25.7,8.7 24.7,9.4 23,9.8 C22.1,10 20.6,10.1 20.6,10.1 C20.1,10.1 19.7,10.2 19.3,10.2 C16.1,10.2 14.1,9 12.7,4.7 C11.5,1 11.3,-0.1 10.4,-4.5"/>
<path class="Note" transform="matrix(2.3811,0,0,2.3811,626.933,1510.87)" d="M18.7,-13.6 C4.9,-13.6 0,-6.6 0,-0.1 C0,6.4 4.9,13.4 18.7,13.4 C32.5,13.4 37.3,6.4 37.3,-0.1 C37.3,-6.6 32.5,-13.6 18.7,-13.6 M10.4,-4.5 C10.3,-4.9 10.3,-5.3 10.3,-5.7 C10.3,-6.5 10.5,-7.3 10.9,-8 C11.6,-9 12.8,-9.7 14.3,-10 C15.6,-10.3 16.3,-10.5 18.9,-10.5 L19,-10.5 C23,-10.5 24.3,-6.8 25.4,-3 L25.7,-2 C26.5,0.6 26.9,2.8 26.9,4.5 C26.9,5.7 26.7,6.8 26.3,7.6 C25.7,8.7 24.7,9.4 23,9.8 C22.1,10 20.6,10.1 20.6,10.1 C20.1,10.1 19.7,10.2 19.3,10.2 C16.1,10.2 14.1,9 12.7,4.7 C11.5,1 11.3,-0.1 10.4,-4.5"/>
<path class="Note" transform="matrix(2.3811,0,0,2.3811,1300.23,1689.45)" d="M18.7,-13.6 C4.9,-13.6 0,-6.6 0,-0.1 C0,6.4 4.9,13.4 18.7,13.4 C32.5,13.4 37.3,6.4 37.3,-0.1 C37.3,-6.6 32.5,-13.6 18.7,-13.6 M10.4,-4.5 C10.3,-4.9 10.3,-5.3 10.3,-5.7 C10.3,-6.5 10.5,-7.3 10.9,-8 C11.6,-9 12.8,-9.7 14.3,-10 C15.6,-10.3 16.3,-10.5 18.9,-10.5 L19,-10.5 C23,-10.5 24.3,-6.8 25.4,-3 L25.7,-2 C26.5,0.6 26.9,2.8 26.9,4.5 C26.9,5.7 26.7,6.8 26.3,7.6 C25.7,8.7 24.7,9.4 23,9.8 C22.1,10 20.6,10.1 20.6,10.1 C20.1,10.1 19.7,10.2 19.3,10.2 C16.1,10.2 14.1,9 12.7,4.7 C11.5,1 11.3,-0.1 10.4,-4.5"/>
<path class="Note" transform="matrix(2.3811,0,0,2.3811,1300.23,1629.92)" d="M18.7,-13.6 C4.9,-13.6 0,-6.6 0,-0.1 C0,6.4 4.9,13.4 18.7,13.4 C32.5,13.4 37.3,6.4 37.3,-0.1 C37.3,-6.6 32.5,-13.6 18.7,-13.6 M10.4,-4.5 C10.3,-4.9 10.3,-5.3 10.3,-5.7 C10.3,-6.5 10.5,-7.3 10.9,-8 C11.6,-9 12.8,-9.7 14.3,-10 C15.6,-10.3 16.3,-10.5 18.9,-10.5 L19,-10.5 C23,-10.5 24.3,-6.8 25.4,-3 L25.7,-2 C26.5,0.6 26.9,2.8 26.9,4.5 C26.9,5.7 26.7,6.8 26.3,7.6 C25.7,8.7 24.7,9.4 23,9.8 C22.1,10 20.6,10.1 20.6,10.1 C20.1,10.1 19.7,10.2 19.3,10.2 C16.1,10.2 14.1,9 12.7,4.7 C11.5,1 11.3,-0.1 10.4,-4.5"/>
<path class="Note" transform="matrix(2.3811,0,0,2.3811,1300.23,1540.63)" d="M18.7,-13.6 C4.9,-13.6 0,-6.6 0,-0.1 C0,6.4 4.9,13.4 18.7,13.4 C32.5,13.4 37.3,6.4 37.3,-0.1 C37.3,-6.6 32.5,-13.6 18.7,-13.6 M10.4,-4.5 C10.3,-4.9 10.3,-5.3 10.3,-5.7 C10.3,-6.5 10.5,-7.3 10.9,-8 C11.6,-9 12.8,-9.7 14.3,-10 C15.6,-10.3 16.3,-10.5 18.9,-10.5 L19,-10.5 C23,-10.5 24.3,-6.8 25.4,-3 L25.7,-2 C26.5,0.6 26.9,2.8 26.9,4.5 C26.9,5.7 26.7,6.8 26.3,7.6 C25.7,8.7 24.7,9.4 23,9.8 C22.1,10 20.6,10.1 20.6,10.1 C20.1,10.1 19.7,10.2 19.3,10.2 C16.1,10.2 14.1,9 12.7,4.7 C11.5,1 11.3,-0.1 10.4,-4.5"/>
<path class="Note" transform="matrix(2.3811,0,0,2.3811,1833.63,1659.69)" d="M18.7,-13.6 C4.9,-13.6 0,-6.6 0,-0.1 C0,6.4 4.9,13.4 18.7,13.4 C32.5,13.4 37.3,6.4 37.3,-0.1 C37.3,-6.6 32.5,-13.6 18.7,-13.6 M10.4,-4.5 C10.3,-4.9 10.3,-5.3 10.3,-5.7 C10.3,-6.5 10.5,-7.3 10.9,-8 C11.6,-9 12.8,-9.7 14.3,-10 C15.6,-10.3 16.3,-10.5 18.9,-10.5 L19,-10.5 C23,-10.5 24.3,-6.8 25.4,-3 L25.7,-2 C26.5,0.6 26.9,2.8 26.9,4.5 C26.9,5.7 26.7,6.8 26.3,7.6 C25.7,8.7 24.7,9.4 23,9.8 C22.1,10 20.6,10.1 20.6,10.1 C20.1,10.1 19.7,10.2 19.3,10.2 C16.1,10.2 14.1,9 12.7,4.7 C11.5,1 11.3,-0.1 10.4,-4.5"/>
<path class="Note" transform="matrix(2.3811,0,0,2.3811,1833.63,1600.16)" d="M18.7,-13.6 C4.9,-13.6 0,-6.6 0,-0.1 C0,6.4 4.9,13.4 18.7,13.4 C32.5,13.4 37.3,6.4 37.3,-0.1 C37.3,-6.6 32.5,-13.6 18.7,-13.6 M10.4,-4.5 C10.3,-4.9 10.3,-5.3 10.3,-5.7 C10.3,-6.5 10.5,-7.3 10.9,-8 C11.6,-9 12.8,-9.7 14.3,-10 C15.6,-10.3 16.3,-10.5 18.9,-10.5 L19,-10.5 C23,-10.5 24.3,-6.8 25.4,-3 L25.7,-2 C26.5,0.6 26.9,2.8 26.9,4.5 C26.9,5.7 26.7,6.8 26.3,7.6 C25.7,8.7 24.7,9.4 23,9.8 C22.1,10 20.6,10.1 20.6,10.1 C20.1,10.1 19.7,10.2 19.3,10.2 C16.1,10.2 14.1,9 12.7,4.7 C11.5,1 11.3,-0.1 10.4,-4.5"/>
<path class="Note" transform="matrix(2.3811,0,0,2.3811,1833.63,1540.63)" d="M18.7,-13.6 C4.9,-13.6 0,-6.6 0,-0.1 C0,6.4 4.9,13.4 18.7,13.4 C32.5,13.4 37.3,6.4 37.3,-0.1 C37.3,-6.6 32.5,-13.6 18.7,-13.6 M10.4,-4.5 C10.3,-4.9 10.3,-5.3 10.3,-5.7 C10.3,-6.5 10.5,-7.3 10.9,-8 C11.6,-9 12.8,-9.7 14.3,-10 C15.6,-10.3 16.3,-10.5 18.9,-10.5 L19,-10.5 C23,-10.5 24.3,-6.8 25.4,-3 L25.7,-2 C26.5,0.6 26.9,2.8 26.9,4.5 C26.9,5.7 26.7,6.8 26.3,7.6 C25.7,8.7 24.7,9.4 23,9.8 C22.1,10 20.6,10.1 20.6,10.1 C20.1,10.1 19.7,10.2 19.3,10.2 C16.1,10.2 14.1,9 12.7,4.7 C11.5,1 11.3,-0.1 10.4,-4.5"/>
<path class="Note" transform="matrix(2.3811,0,0,2.3811,2411.48,1659.69)" d="M18.7,-13.6 C4.9,-13.6 0,-6.6 0,-0.1 C0,6.4 4.9,13.4 18.7,13.4 C32.5,13.4 37.3,6.4 37.3,-0.1 C37.3,-6.6 32.5,-13.6 18.7,-13.6 M10.4,-4.5 C10.3,-4.9 10.3,-5.3 10.3,-5.7 C10.3,-6.5 10.5,-7.3 10.9,-8 C11.6,-9 12.8,-9.7 14.3,-10 C15.6,-10.3 16.3,-10.5 18.9,-10.5 L19,-10.5 C23,-10.5 24.3,-6.8 25.4,-3 L25.7,-2 C26.5,0.6 26.9,2.8 26.9,4.5 C26.9,5.7 26.7,6.8 26.3,7.6 C25.7,8.7 24.7,9.4 23,9.8 C22.1,10 20.6,10.1 20.6,10.1 C20.1,10.1 19.7,10.2 19.3,10.2 C16.1,10.2 14.1,9 12.7,4.7 C11.5,1 11.3,-0.1 10.4,-4.5"/>
<path class="Note" transform="matrix(2.3811,0,0,2.3811,2493.74,1629.92)" d="M18.7,-13.6 C4.9,-13.6 0,-6.6 0,-0.1 C0,6.4 4.9,13.4 18.7,13.4 C32.5,13.4 37.3,6.4 37.3,-0.1 C37.3,-6.6 32.5,-13.6 18.7,-13.6 M10.4,-4.5 C10.3,-4.9 10.3,-5.3 10.3,-5.7 C10.3,-6.5 10.5,-7.3 10.9,-8 C11.6,-9 12.8,-9.7 14.3,-10 C15.6,-10.3 16.3,-10.5 18.9,-10.5 L19,-10.5 C23,-10.5 24.3,-6.8 25.4,-3 L25.7,-2 C26.5,0.6 26.9,2.8 26.9,4.5 C26.9,5.7 26.7,6.8 26.3,7.6 C25.7,8.7 24.7,9.4 23,9.8 C22.1,10 20.6,10.1 20.6,10.1 C20.1,10.1 19.7,10.2 19.3,10.2 C16.1,10.2 14.1,9 12.7,4.7 C11.5,1 11.3,-0.1 10.4,-4.5"/>
<path class="Note" transform="matrix(2.3811,0,0,2.3811,2411.48,1570.39)" d="M18.7,-13.6 C4.9,-13.6 0,-6.6 0,-0.1 C0,6.4 4.9,13.4 18.7,13.4 C32.5,13.4 37.3,6.4 37.3,-0.1 C37.3,-6.6 32.5,-13.6 18.7,-13.6 M10.4,-4.5 C10.3,-4.9 10.3,-5.3 10.3,-5.7 C10.3,-6.5 10.5,-7.3 10.9,-8 C11.6,-9 12.8,-9.7 14.3,-10 C15.6,-10.3 16.3,-10.5 18.9,-10.5 L19,-10.5 C23,-10.5 24.3,-6.8 25.4,-3 L25.7,-2 C26.5,0.6 26.9,2.8 26.9,4.5 C26.9,5.7 26.7,6.8 26.3,7.6 C25.7,8.7 24.7,9.4 23,9.8 C22.1,10 20.6,10.1 20.6,10.1 C20.1,10.1 19.7,10.2 19.3,10.2 C16.1,10.2 14.1,9 12.7,4.7 C11.5,1 11.3,-0.1 10.4,-4.5"/>
<path class="Note" transform="matrix(2.3811,0,0,2.3811,3084.77,1689.45)" d="M18.7,-13.6 C4.9,-13.6 0,-6.6 0,-0.1 C0,6.4 4.9,13.4 18.7,13.4 C32.5,13.4 37.3,6.4 37.3,-0.1 C37.3,-6.6 32.5,-13.6 18.7,-13.6 M10.4,-4.5 C10.3,-4.9 10.3,-5.3 10.3,-5.7 C10.3,-6.5 10.5,-7.3 10.9,-8 C11.6,-9 12.8,-9.7 14.3,-10 C15.6,-10.3 16.3,-10.5 18.9,-10.5 L19,-10.5 C23,-10.5 24.3,-6.8 25.4,-3 L25.7,-2 C26.5,0.6 26.9,2.8 26.9,4.5 C26.9,5.7 26.7,6.8 26.3,7.6 C25.7,8.7 24.7,9.4 23,9.8 C22.1,10 20.6,10.1 20.6,10.1 C20.1,10.1 19.7,10.2 19.3,10.2 C16.1,10.2 14.1,9 12.7,4.7 C11.5,1 11.3,-0.1 10.4,-4.5"/>
<path class="Note" transform="matrix(2.3811,0,0,2.3811,3084.77,1629.92)" d="M18.7,-13.6 C4.9,-13.6 0,-6.6 0,-0.1 C0,6.4 4.9,13.4 18.7,13.4 C32.5,13.4 37.3,6.4 37.3,-0.1 C37.3,-6.6 32.5,-13.6 18.7,-13.6 M10.4,-4.5 C10.3,-4.9 10.3,-5.3 10.3,-5.7 C10.3,-6.5 10.5,-7.3 10.9,-8 C11.6,-9 12.8,-9.7 14.3,-10 C15.6,-10.3 16.3,-10.5 18.9,-10.5 L19,-10.5 C23,-10.5 24.3,-6.8 25.4,-3 L25.7,-2 C26.5,0.6 26.9,2.8 26.9,4.5 C26.9,5.7 26.7,6.8 26.3,7.6 C25.7,8.7 24.7,9.4 23,9.8 C22.1,10 20.6,10.1 20.6,10.1 C20.1,10.1 19.7,10.2 19.3,10.2 C16.1,10.2 14.1,9 12.7,4.7 C11.5,1 11.3,-0.1 10.4,-4.5"/>
<path class="Note" transform="matrix(2.3811,0,0,2.3811,3084.77,1540.63)" d="M18.7,-13.6 C4.9,-13.6 0,-6.6 0,-0.1 C0,6.4 4.9,13.4 18.7,13.4 C32.5,13.4 37.3,6.4 37.3,-0.1 C37.3,-6.6 32.5,-13.6 18.7,-13.6 M10.4,-4.5 C10.3,-4.9 10.3,-5.3 10.3,-5.7 C10.3,-6.5 10.5,-7.3 10.9,-8 C11.6,-9 12.8,-9.7 14.3,-10 C15.6,-10.3 16.3,-10.5 18.9,-10.5 L19,-10.5 C23,-10.5 24.3,-6.8 25.4,-3 L25.7,-2 C26.5,0.6 26.9,2.8 26.9,4.5 C26.9,5.7 26.7,6.8 26.3,7.6 C25.7,8.7 24.7,9.4 23,9.8 C22.1,10 20.6,10.1 20.6,10.1 C20.1,10.1 19.7,10.2 19.3,10.2 C16.1,10.2 14.1,9 12.7,4.7 C11.5,1 11.3,-0.1 10.4,-4.5"/>
<path class="Note" transform="matrix(2.3811,0,0,2.3811,3618.18,1659.69)" d="M18.7,-13.6 C4.9,-13.6 0,-6.6 0,-0.1 C0,6.4 4.9,13.4 18.7,13.4 C32.5,13.4 37.3,6.4 37.3,-0.1 C37.3,-6.6 32.5,-13.6 18.7,-13.6 M10.4,-4.5 C10.3,-4.9 10.3,-5.3 10.3,-5.7 C10.3,-6.5 10.5,-7.3 10.9,-8 C11.6,-9 12.8,-9.7 14.3,-10 C15.6,-10.3 16.3,-10.5 18.9,-10.5 L19,-10.5 C23,-10.5 24.3,-6.8 25.4,-3 L25.7,-2 C26.5,0.6 26.9,2.8 26.9,4.5 C26.9,5.7 26.7,6.8 26.3,7.6 C25.7,8.7 24.7,9.4 23,9.8 C22.1,10 20.6,10.1 20.6,10.1 C20.1,10.1 19.7,10.2 19.3,10.2 C16.1,10.2 14.1,9 12.7,4.7 C11.5,1 11.3,-0.1 10.4,-4.5"/>
<path class="Note" transform="matrix(2.3811,0,0,2.3811,3618.18,1600.16)" d="M18.7,-13.6 C4.9,-13.6 0,-6.6 0,-0.1 C0,6.4 4.9,13.4 18.7,13.4 C32.5,13.4 37.3,6.4 37.3,-0.1 C37.3,-6.6 32.5,-13.6 18.7,-13.6 M10.4,-4.5 C10.3,-4.9 10.3,-5.3 10.3,-5.7 C10.3,-6.5 10.5,-7.3 10.9,-8 C11.6,-9 12.8,-9.7 14.3,-10 C15.6,-10.3 16.3,-10.5 18.9,-10.5 L19,-10.5 C23,-10.5 24.3,-6.8 25.4,-3 L25.7,-2 C26.5,0.6 26.9,2.8 26.9,4.5 C26.9,5.7 26.7,6.8 26.3,7.6 C25.7,8.7 24.7,9.4 23,9.8 C22.1,10 20.6,10.1 20.6,10.1 C20.1,10.1 19.7,10.2 19.3,10.2 C16.1,10.2 14.1,9 12.7,4.7 C11.5,1 11.3,-0.1 10.4,-4.5"/>
<path class="Note" transform="matrix(2.3811,0,0,2.3811,3618.18,1540.63)" d="M18.7,-13.6 C4.9,-13.6 0,-6.6 0,-0.1 C0,6.4 4.9,13.4 18.7,13.4 C32.5,13.4 37.3,6.4 37.3,-0.1 C37.3,-6.6 32.5,-13.6 18.7,-13.6 M10.4,-4.5 C10.3,-4.9 10.3,-5.3 10.3,-5.7 C10.3,-6.5 10.5,-7.3 10.9,-8 C11.6,-9 12.8,-9.7 14.3,-10 C15.6,-10.3 16.3,-10.5 18.9,-10.5 L19,-10.5 C23,-10.5 24.3,-6.8 25.4,-3 L25.7,-2 C26.5,0.6 26.9,2.8 26.9,4.5 C26.9,5.7 26.7,6.8 26.3,7.6 C25.7,8.7 24.7,9.4 23,9.8 C22.1,10 20.6,10.1 20.6,10.1 C20.1,10.1 19.7,10.2 19.3,10.2 C16.1,10.2 14.1,9 12.7,4.7 C11.5,1 11.3,-0.1 10.4,-4.5"/>
<path class="Note" d="M705.752,1059.89 C710.323,1059.89 712.608,1062.75 712.608,1068.49 C712.608,1072.52 710.09,1078.52 705.055,1086.5 C701.026,1092.93 699.012,1099.21 699.012,1105.33 C699.012,1108.81 704.086,1110.56 714.235,1110.56 C722.602,1110.56 734.262,1106.02 749.215,1096.96 C734.185,1111.45 721.13,1118.69 710.052,1118.69 C700.058,1118.69 693.085,1117.18 689.134,1114.16 C688.127,1113.38 687.274,1112.45 686.577,1111.37 C682.703,1116.09 676.234,1118.46 667.17,1118.46 C658.493,1118.46 651.83,1116.68 647.182,1113.11 C644.083,1110.71 642.533,1106.88 642.533,1101.61 C642.533,1093.24 647.491,1084.1 657.408,1074.18 C668.022,1063.57 680.302,1058.26 694.247,1058.26 C697.733,1058.26 700.29,1059.54 701.917,1062.1 C703.234,1060.62 704.512,1059.89 705.752,1059.89 M684.95,1106.14 C684.873,1105.52 684.834,1104.9 684.834,1104.28 C684.834,1103.97 688.785,1093.16 696.687,1071.86 C697.462,1069.77 698.237,1067.98 699.012,1066.51 C695.99,1065.89 693.007,1065.58 690.063,1065.58 C684.64,1065.58 677.435,1070.19 668.448,1079.41 C660.391,1087.62 656.362,1094.71 656.362,1100.68 C656.362,1107.26 659.5,1110.56 665.775,1110.56 C673.368,1110.56 679.759,1109.08 684.95,1106.14"/>
<path class="Note" d="M705.752,851.839 C710.323,851.839 712.608,854.705 712.608,860.438 C712.608,864.467 710.09,870.471 705.055,878.451 C701.026,884.881 699.012,891.157 699.012,897.277 C699.012,900.763 704.086,902.507 714.235,902.507 C722.602,902.507 734.262,897.974 749.215,888.91 C734.185,903.398 721.13,910.641 710.052,910.641 C700.058,910.641 693.085,909.131 689.134,906.109 C688.127,905.334 687.274,904.405 686.577,903.32 C682.703,908.046 676.234,910.409 667.17,910.409 C658.493,910.409 651.83,908.627 647.182,905.063 C644.083,902.662 642.533,898.827 642.533,893.558 C642.533,885.191 647.491,876.049 657.408,866.133 C668.022,855.519 680.302,850.212 694.247,850.212 C697.733,850.212 700.29,851.49 701.917,854.047 C703.234,852.575 704.512,851.839 705.752,851.839 M684.95,898.091 C684.873,897.471 684.834,896.851 684.834,896.231 C684.834,895.921 688.785,885.114 696.687,863.808 C697.462,861.717 698.237,859.935 699.012,858.463 C695.99,857.843 693.007,857.533 690.063,857.533 C684.64,857.533 677.435,862.143 668.448,871.362 C660.391,879.574 656.362,886.663 656.362,892.629 C656.362,899.214 659.5,902.507 665.775,902.507 C673.368,902.507 679.759,901.035 684.95,898.091"/>
<path class="Note" d="M705.752,583.965 C710.323,583.965 712.608,586.831 712.608,592.564 C712.608,596.593 710.09,602.597 705.055,610.577 C701.026,617.007 699.012,623.283 699.012,629.403 C699.012,632.889 704.086,634.633 714.235,634.633 C722.602,634.633 734.262,630.1 749.215,621.036 C734.185,635.524 721.13,642.767 710.052,642.767 C700.058,642.767 693.085,641.257 689.134,638.235 C688.127,637.46 687.274,636.531 686.577,635.446 C682.703,640.172 676.234,642.535 667.17,642.535 C658.493,642.535 651.83,640.753 647.182,637.189 C644.083,634.788 642.533,630.953 642.533,625.684 C642.533,617.317 647.491,608.175 657.408,598.259 C668.022,587.645 680.302,582.338 694.247,582.338 C697.733,582.338 700.29,583.616 701.917,586.173 C703.234,584.701 704.512,583.965 705.752,583.965 M684.95,630.217 C684.873,629.597 684.834,628.977 684.834,628.357 C684.834,628.047 688.785,617.24 696.687,595.934 C697.462,593.843 698.237,592.061 699.012,590.589 C695.99,589.969 693.007,589.659 690.063,589.659 C684.64,589.659 677.435,594.269 668.448,603.488 C660.391,611.7 656.362,618.789 656.362,624.755 C656.362,631.34 659.5,634.633 665.775,634.633 C673.368,634.633 679.759,633.161 684.95,630.217"/>
<path class="Note" d="M712.841,491.768 C723.3,485.183 730.892,479.798 735.618,475.615 C744.295,467.945 748.634,460.197 748.634,452.373 C748.634,443.231 742.513,438.66 730.272,438.66 C717.412,438.66 704.009,447.918 690.063,466.434 C680.612,478.985 673.91,490.838 669.959,501.995 C674.84,498.818 679.992,497.23 685.415,497.23 C690.528,497.23 694.596,499.515 697.617,504.086 C699.709,507.263 700.755,512.686 700.755,520.356 C700.755,527.251 697.114,535.347 689.831,544.644 C685.338,550.377 680.34,553.244 674.84,553.244 C667.867,553.244 662.986,551.849 660.197,549.06 C656.246,545.109 654.27,537.284 654.27,525.585 C654.27,505.907 662.212,486.539 678.094,467.48 C695.99,446.02 713.151,435.29 729.575,435.29 C742.281,435.29 751.771,438.272 758.047,444.238 C761.688,447.724 763.509,452.76 763.509,459.345 C763.509,466.705 756.265,474.917 741.777,483.982 C734.185,488.785 724.539,491.381 712.841,491.768 M668.448,506.875 C666.511,513.383 665.543,519.62 665.543,525.585 C665.543,539.763 667.79,546.852 672.283,546.852 C676.544,546.852 679.876,543.831 682.277,537.788 C685.066,530.97 686.461,523.416 686.461,515.126 C686.461,507.766 684.02,504.086 679.14,504.086 C675.731,504.086 672.167,505.016 668.448,506.875"/>
<path class="Note" d="M1334.77,1118.46 C1330.98,1118.46 1329.08,1114.39 1329.08,1106.26 L1329.08,1072.21 C1329.08,1068.95 1330.67,1067.32 1333.84,1067.32 C1335.24,1067.32 1336.28,1067.44 1336.98,1067.67 C1339.46,1063.34 1343.53,1059.69 1349.18,1056.75 C1357.09,1052.64 1365.1,1050.59 1373.24,1050.59 C1379.67,1050.59 1382.88,1052.99 1382.88,1057.8 C1382.88,1061.82 1380.72,1063.84 1376.38,1063.84 C1373.28,1063.84 1370.33,1063.14 1367.54,1061.75 C1365.07,1060.51 1362.43,1059.89 1359.64,1059.89 C1354.84,1059.89 1347.75,1063.03 1338.38,1069.3 C1339.69,1075.58 1340.35,1082.9 1340.35,1091.26 C1340.35,1109.39 1338.49,1118.46 1334.77,1118.46"/>
<path class="Note" d="M1414.84,973.437 C1408.49,983.431 1398.46,991.721 1384.74,998.306 C1372.81,1004.04 1361.66,1006.91 1351.27,1006.91 C1342.99,1006.91 1336.09,1005.24 1330.59,1001.91 C1324.62,998.267 1321.64,993.929 1321.64,988.893 C1321.64,977.504 1324.62,967.704 1330.59,959.491 C1338.72,948.335 1346.94,942.757 1355.23,942.757 C1361.11,942.757 1365.3,943.919 1367.78,946.243 C1371.19,949.265 1372.89,953.41 1372.89,958.678 C1372.89,966.115 1367.35,972.584 1356.27,978.085 C1345.5,983.431 1338.03,986.917 1333.84,988.544 C1334.77,990.481 1335.97,992.224 1337.45,993.774 C1341.09,997.647 1346.05,999.584 1352.32,999.584 C1360.22,999.584 1370.84,996.679 1384.16,990.868 C1396.95,985.213 1407.17,979.402 1414.84,973.437 M1332.22,983.198 C1338.03,980.254 1343.33,976.807 1348.14,972.856 C1355.26,967.045 1358.83,960.77 1358.83,954.029 C1358.83,950.233 1357.09,948.335 1353.6,948.335 C1350.66,948.335 1346.63,951.705 1341.51,958.445 C1335.08,966.813 1331.87,973.63 1331.87,978.899 C1331.87,980.371 1331.98,981.804 1332.22,983.198"/>
<path class="Note" d="M1379.05,583.965 C1383.62,583.965 1385.91,586.831 1385.91,592.564 C1385.91,596.593 1383.39,602.597 1378.35,610.577 C1374.32,617.007 1372.31,623.283 1372.31,629.403 C1372.31,632.889 1377.38,634.633 1387.53,634.633 C1395.9,634.633 1407.56,630.1 1422.51,621.036 C1407.48,635.524 1394.43,642.767 1383.35,642.767 C1373.36,642.767 1366.38,641.257 1362.43,638.235 C1361.42,637.46 1360.57,636.531 1359.87,635.446 C1356,640.172 1349.53,642.535 1340.47,642.535 C1331.79,642.535 1325.13,640.753 1320.48,637.189 C1317.38,634.788 1315.83,630.953 1315.83,625.684 C1315.83,617.317 1320.79,608.175 1330.71,598.259 C1341.32,587.645 1353.6,582.338 1367.54,582.338 C1371.03,582.338 1373.59,583.616 1375.21,586.173 C1376.53,584.701 1377.81,583.965 1379.05,583.965 M1358.25,630.217 C1358.17,629.597 1358.13,628.977 1358.13,628.357 C1358.13,628.047 1362.08,617.24 1369.98,595.934 C1370.76,593.843 1371.53,592.061 1372.31,590.589 C1369.29,589.969 1366.3,589.659 1363.36,589.659 C1357.94,589.659 1350.73,594.269 1341.75,603.488 C1333.69,611.7 1329.66,618.789 1329.66,624.755 C1329.66,631.34 1332.8,634.633 1339.07,634.633 C1346.67,634.633 1353.06,633.161 1358.25,630.217"/>
<path class="Note" d="M1379.05,494.673 C1383.62,494.673 1385.91,497.54 1385.91,503.273 C1385.91,507.302 1383.39,513.306 1378.35,521.286 C1374.32,527.716 1372.31,533.991 1372.31,540.112 C1372.31,543.598 1377.38,545.341 1387.53,545.341 C1395.9,545.341 1407.56,540.809 1422.51,531.745 C1407.48,546.232 1394.43,553.476 1383.35,553.476 C1373.36,553.476 1366.38,551.965 1362.43,548.944 C1361.42,548.169 1360.57,547.239 1359.87,546.155 C1356,550.881 1349.53,553.244 1340.47,553.244 C1331.79,553.244 1325.13,551.462 1320.48,547.898 C1317.38,545.496 1315.83,541.661 1315.83,536.393 C1315.83,528.026 1320.79,518.884 1330.71,508.967 C1341.32,498.353 1353.6,493.046 1367.54,493.046 C1371.03,493.046 1373.59,494.325 1375.21,496.881 C1376.53,495.409 1377.81,494.673 1379.05,494.673 M1358.25,540.925 C1358.17,540.305 1358.13,539.686 1358.13,539.066 C1358.13,538.756 1362.08,527.948 1369.98,506.643 C1370.76,504.551 1371.53,502.769 1372.31,501.297 C1369.29,500.678 1366.3,500.368 1363.36,500.368 C1357.94,500.368 1350.73,504.977 1341.75,514.197 C1333.69,522.409 1329.66,529.498 1329.66,535.463 C1329.66,542.049 1332.8,545.341 1339.07,545.341 C1346.67,545.341 1353.06,543.869 1358.25,540.925"/>
<path class="Note" d="M1819.18,1091.38 C1818.79,1092.08 1818.21,1092.43 1817.43,1092.43 C1816.74,1092.43 1815.85,1092.12 1814.76,1091.5 C1813.13,1090.57 1812.32,1089.64 1812.32,1088.71 C1812.32,1088.4 1812.44,1088.01 1812.67,1087.55 C1830.41,1061.98 1841.49,1040.44 1845.91,1022.93 C1846.22,1022.39 1846.76,1022.12 1847.53,1022.12 C1848.54,1022.12 1849.97,1022.66 1851.83,1023.75 C1854.39,1025.22 1855.67,1026.53 1855.67,1027.7 C1855.67,1028.01 1855.59,1028.28 1855.44,1028.51 C1849.55,1045.24 1837.46,1066.2 1819.18,1091.38 M1840.1,1098.35 C1839.71,1099.05 1839.13,1099.4 1838.35,1099.4 C1837.66,1099.4 1836.76,1099.09 1835.68,1098.47 C1834.05,1097.54 1833.24,1096.61 1833.24,1095.68 C1833.24,1095.37 1833.36,1094.98 1833.59,1094.52 C1851.33,1068.95 1862.41,1047.41 1866.82,1029.91 C1867.13,1029.36 1867.68,1029.09 1868.45,1029.09 C1869.46,1029.09 1870.89,1029.63 1872.75,1030.72 C1875.31,1032.19 1876.59,1033.51 1876.59,1034.67 C1876.59,1034.98 1876.51,1035.25 1876.35,1035.48 C1870.47,1052.22 1858.38,1073.17 1840.1,1098.35 M1861.01,1105.33 C1860.63,1106.02 1860.05,1106.37 1859.27,1106.37 C1858.57,1106.37 1857.68,1106.06 1856.6,1105.44 C1854.97,1104.51 1854.16,1103.58 1854.16,1102.65 C1854.16,1102.34 1854.27,1101.96 1854.51,1101.49 C1872.25,1075.92 1883.33,1054.39 1887.74,1036.88 C1888.05,1036.34 1888.59,1036.06 1889.37,1036.06 C1890.38,1036.06 1891.81,1036.61 1893.67,1037.69 C1896.23,1039.16 1897.5,1040.48 1897.5,1041.64 C1897.5,1041.95 1897.43,1042.22 1897.27,1042.46 C1891.38,1059.19 1879.3,1080.15 1861.01,1105.33 M1944.55,1059.89 C1949.13,1059.89 1951.41,1062.75 1951.41,1068.49 C1951.41,1072.52 1948.89,1078.52 1943.86,1086.5 C1939.83,1092.93 1937.81,1099.21 1937.81,1105.33 C1937.81,1108.81 1942.89,1110.56 1953.04,1110.56 C1961.41,1110.56 1973.07,1106.02 1988.02,1096.96 C1972.99,1111.45 1959.93,1118.69 1948.85,1118.69 C1938.86,1118.69 1931.89,1117.18 1927.94,1114.16 C1926.93,1113.38 1926.08,1112.45 1925.38,1111.37 C1921.51,1116.09 1915.04,1118.46 1905.97,1118.46 C1897.3,1118.46 1890.63,1116.68 1885.98,1113.11 C1882.89,1110.71 1881.34,1106.88 1881.34,1101.61 C1881.34,1093.24 1886.29,1084.1 1896.21,1074.18 C1906.83,1063.57 1919.1,1058.26 1933.05,1058.26 C1936.54,1058.26 1939.09,1059.54 1940.72,1062.1 C1942.04,1060.62 1943.32,1059.89 1944.55,1059.89 M1923.75,1106.14 C1923.68,1105.52 1923.64,1104.9 1923.64,1104.28 C1923.64,1103.97 1927.59,1093.16 1935.49,1071.86 C1936.27,1069.77 1937.04,1067.98 1937.81,1066.51 C1934.79,1065.89 1931.81,1065.58 1928.87,1065.58 C1923.44,1065.58 1916.24,1070.19 1907.25,1079.41 C1899.19,1087.62 1895.17,1094.71 1895.17,1100.68 C1895.17,1107.26 1898.3,1110.56 1904.58,1110.56 C1912.17,1110.56 1918.56,1109.08 1923.75,1106.14"/>
<path class="Note" d="M1912.45,851.839 C1917.02,851.839 1919.31,854.705 1919.31,860.438 C1919.31,864.467 1916.79,870.471 1911.75,878.451 C1907.72,884.881 1905.71,891.157 1905.71,897.277 C1905.71,900.763 1910.78,902.507 1920.93,902.507 C1929.3,902.507 1940.96,897.974 1955.91,888.91 C1940.88,903.398 1927.83,910.641 1916.75,910.641 C1906.76,910.641 1899.78,909.131 1895.83,906.109 C1894.82,905.334 1893.97,904.405 1893.27,903.32 C1889.4,908.046 1882.93,910.409 1873.87,910.409 C1865.19,910.409 1858.53,908.627 1853.88,905.063 C1850.78,902.662 1849.23,898.827 1849.23,893.558 C1849.23,885.191 1854.19,876.049 1864.11,866.133 C1874.72,855.519 1887,850.212 1900.94,850.212 C1904.43,850.212 1906.99,851.49 1908.61,854.047 C1909.93,852.575 1911.21,851.839 1912.45,851.839 M1891.65,898.091 C1891.57,897.471 1891.53,896.851 1891.53,896.231 C1891.53,895.921 1895.48,885.114 1903.39,863.808 C1904.16,861.717 1904.93,859.935 1905.71,858.463 C1902.69,857.843 1899.71,857.533 1896.76,857.533 C1891.34,857.533 1884.13,862.143 1875.15,871.362 C1867.09,879.574 1863.06,886.663 1863.06,892.629 C1863.06,899.214 1866.2,902.507 1872.47,902.507 C1880.07,902.507 1886.46,901.035 1891.65,898.091"/>
<path class="Note" d="M1919.54,581.059 C1930,574.474 1937.59,569.09 1942.32,564.906 C1950.99,557.236 1955.33,549.489 1955.33,541.664 C1955.33,532.522 1949.21,527.951 1936.97,527.951 C1924.11,527.951 1910.71,537.209 1896.76,555.725 C1887.31,568.276 1880.61,580.13 1876.66,591.286 C1881.54,588.11 1886.69,586.521 1892.11,586.521 C1897.23,586.521 1901.29,588.807 1904.31,593.378 C1906.41,596.554 1907.45,601.977 1907.45,609.647 C1907.45,616.542 1903.81,624.638 1896.53,633.935 C1892.04,639.668 1887.04,642.535 1881.54,642.535 C1874.56,642.535 1869.68,641.14 1866.9,638.351 C1862.94,634.4 1860.97,626.575 1860.97,614.877 C1860.97,595.198 1868.91,575.83 1884.79,556.771 C1902.69,535.311 1919.85,524.581 1936.27,524.581 C1948.98,524.581 1958.47,527.564 1964.74,533.529 C1968.39,537.015 1970.21,542.051 1970.21,548.637 C1970.21,555.997 1962.96,564.209 1948.48,573.273 C1940.88,578.077 1931.24,580.672 1919.54,581.059 M1875.15,596.167 C1873.21,602.675 1872.24,608.911 1872.24,614.877 C1872.24,629.055 1874.49,636.143 1878.98,636.143 C1883.24,636.143 1886.57,633.122 1888.98,627.079 C1891.76,620.261 1893.16,612.707 1893.16,604.418 C1893.16,597.058 1890.72,593.378 1885.84,593.378 C1882.43,593.378 1878.86,594.307 1875.15,596.167"/>
<path class="Note" d="M1912.45,494.673 C1917.02,494.673 1919.31,497.54 1919.31,503.273 C1919.31,507.302 1916.79,513.306 1911.75,521.286 C1907.72,527.716 1905.71,533.991 1905.71,540.112 C1905.71,543.598 1910.78,545.341 1920.93,545.341 C1929.3,545.341 1940.96,540.809 1955.91,531.745 C1940.88,546.232 1927.83,553.476 1916.75,553.476 C1906.76,553.476 1899.78,551.965 1895.83,548.944 C1894.82,548.169 1893.97,547.239 1893.27,546.155 C1889.4,550.881 1882.93,553.244 1873.87,553.244 C1865.19,553.244 1858.53,551.462 1853.88,547.898 C1850.78,545.496 1849.23,541.661 1849.23,536.393 C1849.23,528.026 1854.19,518.884 1864.11,508.967 C1874.72,498.353 1887,493.046 1900.94,493.046 C1904.43,493.046 1906.99,494.325 1908.61,496.881 C1909.93,495.409 1911.21,494.673 1912.45,494.673 M1891.65,540.925 C1891.57,540.305 1891.53,539.686 1891.53,539.066 C1891.53,538.756 1895.48,527.948 1903.39,506.643 C1904.16,504.551 1904.93,502.769 1905.71,501.297 C1902.69,500.678 1899.71,500.368 1896.76,500.368 C1891.34,500.368 1884.13,504.977 1875.15,514.197 C1867.09,522.409 1863.06,529.498 1863.06,535.463 C1863.06,542.049 1866.2,545.341 1872.47,545.341 C1880.07,545.341 1886.46,543.869 1891.65,540.925"/>
<path class="Note" d="M2497.39,938.225 C2507.84,931.639 2515.44,926.255 2520.16,922.071 C2528.84,914.401 2533.18,906.654 2533.18,898.829 C2533.18,889.687 2527.06,885.116 2514.82,885.116 C2501.96,885.116 2488.55,894.374 2474.61,912.891 C2465.16,925.442 2458.45,937.295 2454.5,948.451 C2459.38,945.275 2464.54,943.687 2469.96,943.687 C2475.07,943.687 2479.14,945.972 2482.16,950.543 C2484.25,953.72 2485.3,959.143 2485.3,966.813 C2485.3,973.708 2481.66,981.804 2474.38,991.101 C2469.88,996.834 2464.89,999.7 2459.38,999.7 C2452.41,999.7 2447.53,998.306 2444.74,995.517 C2440.79,991.566 2438.82,983.741 2438.82,972.042 C2438.82,952.364 2446.76,932.995 2462.64,913.937 C2480.53,892.476 2497.7,881.746 2514.12,881.746 C2526.83,881.746 2536.32,884.729 2542.59,890.694 C2546.23,894.181 2548.05,899.217 2548.05,905.802 C2548.05,913.162 2540.81,921.374 2526.32,930.439 C2518.73,935.242 2509.08,937.837 2497.39,938.225 M2452.99,953.332 C2451.06,959.84 2450.09,966.077 2450.09,972.042 C2450.09,986.22 2452.33,993.309 2456.83,993.309 C2461.09,993.309 2464.42,990.287 2466.82,984.244 C2469.61,977.427 2471.01,969.873 2471.01,961.583 C2471.01,954.223 2468.57,950.543 2463.68,950.543 C2460.28,950.543 2456.71,951.473 2452.99,953.332"/>
<path class="Note" d="M2490.3,851.839 C2494.87,851.839 2497.15,854.705 2497.15,860.438 C2497.15,864.467 2494.64,870.471 2489.6,878.451 C2485.57,884.881 2483.56,891.157 2483.56,897.277 C2483.56,900.763 2488.63,902.507 2498.78,902.507 C2507.15,902.507 2518.81,897.974 2533.76,888.91 C2518.73,903.398 2505.68,910.641 2494.6,910.641 C2484.6,910.641 2477.63,909.131 2473.68,906.109 C2472.67,905.334 2471.82,904.405 2471.12,903.32 C2467.25,908.046 2460.78,910.409 2451.71,910.409 C2443.04,910.409 2436.37,908.627 2431.73,905.063 C2428.63,902.662 2427.08,898.827 2427.08,893.558 C2427.08,885.191 2432.04,876.049 2441.95,866.133 C2452.57,855.519 2464.85,850.212 2478.79,850.212 C2482.28,850.212 2484.83,851.49 2486.46,854.047 C2487.78,852.575 2489.06,851.839 2490.3,851.839 M2469.49,898.091 C2469.42,897.471 2469.38,896.851 2469.38,896.231 C2469.38,895.921 2473.33,885.114 2481.23,863.808 C2482.01,861.717 2482.78,859.935 2483.56,858.463 C2480.53,857.843 2477.55,857.533 2474.61,857.533 C2469.18,857.533 2461.98,862.143 2452.99,871.362 C2444.94,879.574 2440.91,886.663 2440.91,892.629 C2440.91,899.214 2444.04,902.507 2450.32,902.507 C2457.91,902.507 2464.3,901.035 2469.49,898.091"/>
<path class="Note" d="M2490.3,583.965 C2494.87,583.965 2497.15,586.831 2497.15,592.564 C2497.15,596.593 2494.64,602.597 2489.6,610.577 C2485.57,617.007 2483.56,623.283 2483.56,629.403 C2483.56,632.889 2488.63,634.633 2498.78,634.633 C2507.15,634.633 2518.81,630.1 2533.76,621.036 C2518.73,635.524 2505.68,642.767 2494.6,642.767 C2484.6,642.767 2477.63,641.257 2473.68,638.235 C2472.67,637.46 2471.82,636.531 2471.12,635.446 C2467.25,640.172 2460.78,642.535 2451.71,642.535 C2443.04,642.535 2436.37,640.753 2431.73,637.189 C2428.63,634.788 2427.08,630.953 2427.08,625.684 C2427.08,617.317 2432.04,608.175 2441.95,598.259 C2452.57,587.645 2464.85,582.338 2478.79,582.338 C2482.28,582.338 2484.83,583.616 2486.46,586.173 C2487.78,584.701 2489.06,583.965 2490.3,583.965 M2469.49,630.217 C2469.42,629.597 2469.38,628.977 2469.38,628.357 C2469.38,628.047 2473.33,617.24 2481.23,595.934 C2482.01,593.843 2482.78,592.061 2483.56,590.589 C2480.53,589.969 2477.55,589.659 2474.61,589.659 C2469.18,589.659 2461.98,594.269 2452.99,603.488 C2444.94,611.7 2440.91,618.789 2440.91,624.755 C2440.91,631.34 2444.04,634.633 2450.32,634.633 C2457.91,634.633 2464.3,633.161 2469.49,630.217"/>
<path class="Note" d="M2490.3,762.547 C2494.87,762.547 2497.15,765.414 2497.15,771.147 C2497.15,775.176 2494.64,781.18 2489.6,789.16 C2485.57,795.59 2483.56,801.865 2483.56,807.986 C2483.56,811.472 2488.63,813.215 2498.78,813.215 C2507.15,813.215 2518.81,808.683 2533.76,799.619 C2518.73,814.106 2505.68,821.35 2494.6,821.35 C2484.6,821.35 2477.63,819.839 2473.68,816.818 C2472.67,816.043 2471.82,815.113 2471.12,814.029 C2467.25,818.755 2460.78,821.118 2451.71,821.118 C2443.04,821.118 2436.37,819.336 2431.73,815.772 C2428.63,813.37 2427.08,809.535 2427.08,804.267 C2427.08,795.9 2432.04,786.758 2441.95,776.841 C2452.57,766.227 2464.85,760.92 2478.79,760.92 C2482.28,760.92 2484.83,762.199 2486.46,764.755 C2487.78,763.283 2489.06,762.547 2490.3,762.547 M2469.49,808.799 C2469.42,808.179 2469.38,807.56 2469.38,806.94 C2469.38,806.63 2473.33,795.822 2481.23,774.517 C2482.01,772.425 2482.78,770.643 2483.56,769.171 C2480.53,768.552 2477.55,768.242 2474.61,768.242 C2469.18,768.242 2461.98,772.851 2452.99,782.071 C2444.94,790.283 2440.91,797.372 2440.91,803.337 C2440.91,809.923 2444.04,813.215 2450.32,813.215 C2457.91,813.215 2464.3,811.743 2469.49,808.799"/>
<path class="Note" d="M3119.32,1118.46 C3115.52,1118.46 3113.62,1114.39 3113.62,1106.26 L3113.62,1072.21 C3113.62,1068.95 3115.21,1067.32 3118.39,1067.32 C3119.78,1067.32 3120.83,1067.44 3121.53,1067.67 C3124,1063.34 3128.07,1059.69 3133.73,1056.75 C3141.63,1052.64 3149.65,1050.59 3157.78,1050.59 C3164.21,1050.59 3167.43,1052.99 3167.43,1057.8 C3167.43,1061.82 3165.26,1063.84 3160.92,1063.84 C3157.82,1063.84 3154.88,1063.14 3152.09,1061.75 C3149.61,1060.51 3146.98,1059.89 3144.19,1059.89 C3139.38,1059.89 3132.29,1063.03 3122.92,1069.3 C3124.24,1075.58 3124.9,1082.9 3124.9,1091.26 C3124.9,1109.39 3123.04,1118.46 3119.32,1118.46"/>
<path class="Note" d="M3199.39,973.437 C3193.03,983.431 3183,991.721 3169.29,998.306 C3157.36,1004.04 3146.2,1006.91 3135.82,1006.91 C3127.53,1006.91 3120.63,1005.24 3115.13,1001.91 C3109.17,998.267 3106.19,993.929 3106.19,988.893 C3106.19,977.504 3109.17,967.704 3115.13,959.491 C3123.27,948.335 3131.48,942.757 3139.77,942.757 C3145.66,942.757 3149.84,943.919 3152.32,946.243 C3155.73,949.265 3157.43,953.41 3157.43,958.678 C3157.43,966.115 3151.9,972.584 3140.82,978.085 C3130.05,983.431 3122.57,986.917 3118.39,988.544 C3119.32,990.481 3120.52,992.224 3121.99,993.774 C3125.63,997.647 3130.59,999.584 3136.87,999.584 C3144.77,999.584 3155.38,996.679 3168.71,990.868 C3181.49,985.213 3191.72,979.402 3199.39,973.437 M3116.76,983.198 C3122.57,980.254 3127.88,976.807 3132.68,972.856 C3139.81,967.045 3143.37,960.77 3143.37,954.029 C3143.37,950.233 3141.63,948.335 3138.14,948.335 C3135.2,948.335 3131.17,951.705 3126.06,958.445 C3119.63,966.813 3116.41,973.63 3116.41,978.899 C3116.41,980.371 3116.53,981.804 3116.76,983.198"/>
<path class="Note" d="M3163.59,583.965 C3168.17,583.965 3170.45,586.831 3170.45,592.564 C3170.45,596.593 3167.93,602.597 3162.9,610.577 C3158.87,617.007 3156.85,623.283 3156.85,629.403 C3156.85,632.889 3161.93,634.633 3172.08,634.633 C3180.44,634.633 3192.1,630.1 3207.06,621.036 C3192.03,635.524 3178.97,642.767 3167.89,642.767 C3157.9,642.767 3150.93,641.257 3146.98,638.235 C3145.97,637.46 3145.12,636.531 3144.42,635.446 C3140.55,640.172 3134.08,642.535 3125.01,642.535 C3116.34,642.535 3109.67,640.753 3105.02,637.189 C3101.92,634.788 3100.38,630.953 3100.38,625.684 C3100.38,617.317 3105.33,608.175 3115.25,598.259 C3125.86,587.645 3138.14,582.338 3152.09,582.338 C3155.58,582.338 3158.13,583.616 3159.76,586.173 C3161.08,584.701 3162.35,583.965 3163.59,583.965 M3142.79,630.217 C3142.71,629.597 3142.68,628.977 3142.68,628.357 C3142.68,628.047 3146.63,617.24 3154.53,595.934 C3155.3,593.843 3156.08,592.061 3156.85,590.589 C3153.83,589.969 3150.85,589.659 3147.91,589.659 C3142.48,589.659 3135.28,594.269 3126.29,603.488 C3118.23,611.7 3114.2,618.789 3114.2,624.755 C3114.2,631.34 3117.34,634.633 3123.62,634.633 C3131.21,634.633 3137.6,633.161 3142.79,630.217"/>
<path class="Note" d="M3163.59,494.673 C3168.17,494.673 3170.45,497.54 3170.45,503.273 C3170.45,507.302 3167.93,513.306 3162.9,521.286 C3158.87,527.716 3156.85,533.991 3156.85,540.112 C3156.85,543.598 3161.93,545.341 3172.08,545.341 C3180.44,545.341 3192.1,540.809 3207.06,531.745 C3192.03,546.232 3178.97,553.476 3167.89,553.476 C3157.9,553.476 3150.93,551.965 3146.98,548.944 C3145.97,548.169 3145.12,547.239 3144.42,546.155 C3140.55,550.881 3134.08,553.244 3125.01,553.244 C3116.34,553.244 3109.67,551.462 3105.02,547.898 C3101.92,545.496 3100.38,541.661 3100.38,536.393 C3100.38,528.026 3105.33,518.884 3115.25,508.967 C3125.86,498.353 3138.14,493.046 3152.09,493.046 C3155.58,493.046 3158.13,494.325 3159.76,496.881 C3161.08,495.409 3162.35,494.673 3163.59,494.673 M3142.79,540.925 C3142.71,540.305 3142.68,539.686 3142.68,539.066 C3142.68,538.756 3146.63,527.948 3154.53,506.643 C3155.3,504.551 3156.08,502.769 3156.85,501.297 C3153.83,500.678 3150.85,500.368 3147.91,500.368 C3142.48,500.368 3135.28,504.977 3126.29,514.197 C3118.23,522.409 3114.2,529.498 3114.2,535.463 C3114.2,542.049 3117.34,545.341 3123.62,545.341 C3131.21,545.341 3137.6,543.869 3142.79,540.925"/>
<path class="Note" d="M3603.72,1091.38 C3603.34,1092.08 3602.75,1092.43 3601.98,1092.43 C3601.28,1092.43 3600.39,1092.12 3599.31,1091.5 C3597.68,1090.57 3596.87,1089.64 3596.87,1088.71 C3596.87,1088.4 3596.98,1088.01 3597.21,1087.55 C3614.96,1061.98 3626.04,1040.44 3630.45,1022.93 C3630.76,1022.39 3631.3,1022.12 3632.08,1022.12 C3633.09,1022.12 3634.52,1022.66 3636.38,1023.75 C3638.93,1025.22 3640.21,1026.53 3640.21,1027.7 C3640.21,1028.01 3640.14,1028.28 3639.98,1028.51 C3634.09,1045.24 3622.01,1066.2 3603.72,1091.38 M3624.64,1098.35 C3624.25,1099.05 3623.67,1099.4 3622.9,1099.4 C3622.2,1099.4 3621.31,1099.09 3620.22,1098.47 C3618.6,1097.54 3617.78,1096.61 3617.78,1095.68 C3617.78,1095.37 3617.9,1094.98 3618.13,1094.52 C3635.87,1068.95 3646.95,1047.41 3651.37,1029.91 C3651.68,1029.36 3652.22,1029.09 3653,1029.09 C3654,1029.09 3655.44,1029.63 3657.3,1030.72 C3659.85,1032.19 3661.13,1033.51 3661.13,1034.67 C3661.13,1034.98 3661.05,1035.25 3660.9,1035.48 C3655.01,1052.22 3642.92,1073.17 3624.64,1098.35 M3645.56,1105.33 C3645.17,1106.02 3644.59,1106.37 3643.82,1106.37 C3643.12,1106.37 3642.23,1106.06 3641.14,1105.44 C3639.52,1104.51 3638.7,1103.58 3638.7,1102.65 C3638.7,1102.34 3638.82,1101.96 3639.05,1101.49 C3656.79,1075.92 3667.87,1054.39 3672.29,1036.88 C3672.6,1036.34 3673.14,1036.06 3673.91,1036.06 C3674.92,1036.06 3676.35,1036.61 3678.21,1037.69 C3680.77,1039.16 3682.05,1040.48 3682.05,1041.64 C3682.05,1041.95 3681.97,1042.22 3681.82,1042.46 C3675.93,1059.19 3663.84,1080.15 3645.56,1105.33 M3729.1,1059.89 C3733.67,1059.89 3735.96,1062.75 3735.96,1068.49 C3735.96,1072.52 3733.44,1078.52 3728.4,1086.5 C3724.37,1092.93 3722.36,1099.21 3722.36,1105.33 C3722.36,1108.81 3727.43,1110.56 3737.58,1110.56 C3745.95,1110.56 3757.61,1106.02 3772.56,1096.96 C3757.53,1111.45 3744.48,1118.69 3733.4,1118.69 C3723.41,1118.69 3716.43,1117.18 3712.48,1114.16 C3711.47,1113.38 3710.62,1112.45 3709.92,1111.37 C3706.05,1116.09 3699.58,1118.46 3690.52,1118.46 C3681.84,1118.46 3675.18,1116.68 3670.53,1113.11 C3667.43,1110.71 3665.88,1106.88 3665.88,1101.61 C3665.88,1093.24 3670.84,1084.1 3680.76,1074.18 C3691.37,1063.57 3703.65,1058.26 3717.59,1058.26 C3721.08,1058.26 3723.64,1059.54 3725.26,1062.1 C3726.58,1060.62 3727.86,1059.89 3729.1,1059.89 M3708.3,1106.14 C3708.22,1105.52 3708.18,1104.9 3708.18,1104.28 C3708.18,1103.97 3712.13,1093.16 3720.04,1071.86 C3720.81,1069.77 3721.58,1067.98 3722.36,1066.51 C3719.34,1065.89 3716.36,1065.58 3713.41,1065.58 C3707.99,1065.58 3700.78,1070.19 3691.8,1079.41 C3683.74,1087.62 3679.71,1094.71 3679.71,1100.68 C3679.71,1107.26 3682.85,1110.56 3689.12,1110.56 C3696.72,1110.56 3703.11,1109.08 3708.3,1106.14"/>
<path class="Note" d="M3696.99,851.839 C3701.57,851.839 3703.85,854.705 3703.85,860.438 C3703.85,864.467 3701.33,870.471 3696.3,878.451 C3692.27,884.881 3690.25,891.157 3690.25,897.277 C3690.25,900.763 3695.33,902.507 3705.48,902.507 C3713.85,902.507 3725.5,897.974 3740.46,888.91 C3725.43,903.398 3712.37,910.641 3701.29,910.641 C3691.3,910.641 3684.33,909.131 3680.38,906.109 C3679.37,905.334 3678.52,904.405 3677.82,903.32 C3673.95,908.046 3667.48,910.409 3658.41,910.409 C3649.74,910.409 3643.07,908.627 3638.42,905.063 C3635.33,902.662 3633.78,898.827 3633.78,893.558 C3633.78,885.191 3638.73,876.049 3648.65,866.133 C3659.26,855.519 3671.54,850.212 3685.49,850.212 C3688.98,850.212 3691.53,851.49 3693.16,854.047 C3694.48,852.575 3695.75,851.839 3696.99,851.839 M3676.19,898.091 C3676.12,897.471 3676.08,896.851 3676.08,896.231 C3676.08,895.921 3680.03,885.114 3687.93,863.808 C3688.7,861.717 3689.48,859.935 3690.25,858.463 C3687.23,857.843 3684.25,857.533 3681.31,857.533 C3675.88,857.533 3668.68,862.143 3659.69,871.362 C3651.63,879.574 3647.6,886.663 3647.6,892.629 C3647.6,899.214 3650.74,902.507 3657.02,902.507 C3664.61,902.507 3671,901.035 3676.19,898.091"/>
<path class="Note" d="M3704.08,581.059 C3714.54,574.474 3722.13,569.09 3726.86,564.906 C3735.54,557.236 3739.88,549.489 3739.88,541.664 C3739.88,532.522 3733.76,527.951 3721.51,527.951 C3708.65,527.951 3695.25,537.209 3681.31,555.725 C3671.85,568.276 3665.15,580.13 3661.2,591.286 C3666.08,588.11 3671.23,586.521 3676.66,586.521 C3681.77,586.521 3685.84,588.807 3688.86,593.378 C3690.95,596.554 3692,601.977 3692,609.647 C3692,616.542 3688.36,624.638 3681.07,633.935 C3676.58,639.668 3671.58,642.535 3666.08,642.535 C3659.11,642.535 3654.23,641.14 3651.44,638.351 C3647.49,634.4 3645.51,626.575 3645.51,614.877 C3645.51,595.198 3653.45,575.83 3669.34,556.771 C3687.23,535.311 3704.39,524.581 3720.82,524.581 C3733.52,524.581 3743.01,527.564 3749.29,533.529 C3752.93,537.015 3754.75,542.051 3754.75,548.637 C3754.75,555.997 3747.51,564.209 3733.02,573.273 C3725.43,578.077 3715.78,580.672 3704.08,581.059 M3659.69,596.167 C3657.75,602.675 3656.79,608.911 3656.79,614.877 C3656.79,629.055 3659.03,636.143 3663.53,636.143 C3667.79,636.143 3671.12,633.122 3673.52,627.079 C3676.31,620.261 3677.7,612.707 3677.7,604.418 C3677.7,597.058 3675.26,593.378 3670.38,593.378 C3666.97,593.378 3663.41,594.307 3659.69,596.167"/>
<path class="Note" d="M3696.99,494.673 C3701.57,494.673 3703.85,497.54 3703.85,503.273 C3703.85,507.302 3701.33,513.306 3696.3,521.286 C3692.27,527.716 3690.25,533.991 3690.25,540.112 C3690.25,543.598 3695.33,545.341 3705.48,545.341 C3713.85,545.341 3725.5,540.809 3740.46,531.745 C3725.43,546.232 3712.37,553.476 3701.29,553.476 C3691.3,553.476 3684.33,551.965 3680.38,548.944 C3679.37,548.169 3678.52,547.239 3677.82,546.155 C3673.95,550.881 3667.48,553.244 3658.41,553.244 C3649.74,553.244 3643.07,551.462 3638.42,547.898 C3635.33,545.496 3633.78,541.661 3633.78,536.393 C3633.78,528.026 3638.73,518.884 3648.65,508.967 C3659.26,498.353 3671.54,493.046 3685.49,493.046 C3688.98,493.046 3691.53,494.325 3693.16,496.881 C3694.48,495.409 3695.75,494.673 3696.99,494.673 M3676.19,540.925 C3676.12,540.305 3676.08,539.686 3676.08,539.066 C3676.08,538.756 3680.03,527.948 3687.93,506.643 C3688.7,504.551 3689.48,502.769 3690.25,501.297 C3687.23,500.678 3684.25,500.368 3681.31,500.368 C3675.88,500.368 3668.68,504.977 3659.69,514.197 C3651.63,522.409 3647.6,529.498 3647.6,535.463 C3647.6,542.049 3650.74,545.341 3657.02,545.341 C3664.61,545.341 3671,543.869 3676.19,540.925"/>
<path class="Clef" transform="matrix(2.3811,0,0,2.3811,212.156,2158.79)" d="M25.4,-25.1 C17.8,-25.1 11.7,-20.7 11.6,-20.7 C5.8,-16.4 3.5,-11.3 2.6,-7.8 C2.1,-6 1.9,-4.2 1.9,-2.5 C1.9,-0.1 2.3,2.1 3.2,4 C4.4,6.7 6.7,8.6 9.7,9.6 C10.9,10 12.2,10.2 13.5,10.2 C15.7,10.2 18,9.6 19.9,8.5 C23,6.8 24.9,3.2 24.9,-0.7 C24.9,-4.2 23.1,-7.4 20.1,-9.3 C18,-10.7 16,-11.1 14.3,-11.1 C13.1,-11.1 12,-10.9 11.1,-10.6 C10.1,-10.2 8.4,-9.2 7.6,-8.5 C7.9,-10.4 9.1,-13.3 10.2,-14.9 C11.3,-16.5 13.5,-18.5 15.2,-19.4 C17.7,-20.8 20.9,-21.4 24.4,-21.4 C34.6,-21.4 39.6,-13.2 39.6,3.6 C39.6,12.9 36.1,21.8 33.1,27.7 C29.8,34.3 25.4,40.6 21.5,44.1 C11.1,53.6 1.3,58.1 1.2,58.1 C1.2,58.1 -0.3,59 0.1,60.5 C0.4,61.5 1.3,61.7 1.9,61.7 C2,61.7 2.3,61.6 2.4,61.6 C2.5,61.6 13.9,56.9 23,49.8 C28.1,46.1 32.7,42.1 36.7,37.8 C40.3,33.9 43.4,29.7 45.9,25.5 C50.3,18 52.8,10.2 52.8,3.5 C52.8,-4.8 50.6,-11.7 46.5,-16.6 C41.8,-22.2 34.7,-25.1 25.4,-25.1 M56.8,-12.4 C56.8,-9.6 59,-7.4 61.6,-7.4 C64.2,-7.4 66.4,-9.6 66.4,-12.4 C66.4,-15.2 64.2,-17.5 61.6,-17.5 C59,-17.5 56.8,-15.2 56.8,-12.4 M56.8,12.3 C56.8,15.1 59,17.4 61.6,17.4 C64.2,17.4 66.4,15.1 66.4,12.3 C66.4,9.5 64.2,7.2 61.6,7.2 C59,7.2 56.8,9.5 56.8,12.3"/>
<path class="Clef" transform="matrix(2.3811,0,0,2.3811,212.156,1570.39)" d="M63.37,-5.89004 C62.14,-11.32 59.5,-15.14 58.72,-16.1801 C55.5301,-20.45 51.52,-23.3 46.8301,-24.65 C43.72,-25.54 40.72,-25.65 38.3,-25.47 C37.2601,-31.4801 36.2601,-37.3601 35.35,-42.8101 C40.79,-48.97 44.42,-54.77 46.69,-59.07 C50.1601,-65.65 51.3101,-70.2301 51.3601,-70.4301 C53.0801,-75.64 53.44,-83.34 52.34,-91.55 C51.3301,-99.1 49.24,-105.81 46.89,-109.06 C45.8601,-110.49 44.8101,-111.22 43.77,-111.22 C42.55,-111.22 40.04,-109.98 37.15,-107.21 C34.85,-105.01 31.5801,-101.12 29.02,-95.1101 C26.02,-88.05 25.8101,-78.5601 26.1601,-71.84 C26.54,-64.57 27.65,-58.8801 27.6601,-58.8301 C27.6801,-58.74 27.94,-57.24 28.39,-54.67 C28.1601,-54.44 27.92,-54.22 27.67,-53.9801 C26.6301,-52.9801 25.44,-51.84 24.0601,-50.4601 C23.2,-49.6 22.25,-48.69 21.25,-47.72 C12.79,-39.57 0,-27.25 0,-8.1 C0,-3.4 0.9,1.01992 2.68008,5.02998 C4.27002,8.62998 6.57002,11.91 9.5,14.78 C17.2301,22.33 27.82,25.5399 34.8801,25.38 C37.8301,25.31 40.4601,25.0699 42.85,24.6199 C44.6801,34.2199 45.82,41.25 45.8601,46.5899 C45.9,53.1 44.25,57.0699 40.35,59.8399 C37.92,61.5699 35.1101,62.5199 32.0101,62.6699 C29.42,62.7899 27.1601,62.3199 25.7301,61.91 L25.72,61.91 C25.72,61.91 25.4301,61.83 25.42,61.63 C25.4101,61.45 25.7601,61.4 25.77,61.4 L25.79,61.4 C27.7101,60.96 31.2801,59.73 33.64,56.43 C35.44,53.91 36.3101,49.2899 34.47,45.35 C33.3601,42.96 30.85,40.01 25.2301,39.56 C22.74,39.36 20.47,39.8699 18.47,41.0699 C16.6601,42.15 15.1601,43.7899 14.1101,45.7899 C11.65,50.4899 12.1101,56.2199 15.24,60.06 C18.2,63.68 22.82,65.9899 28.25,66.5699 C29.1,66.66 29.95,66.7 30.8,66.7 C31.5101,66.7 32.22,66.6699 32.92,66.61 C31.72,66.9399 30.64,67.4899 29.77,68.25 C28.2801,69.5399 27.44,71.38 27.44,73.41 C27.44,75.28 28.0601,76.65 29.55,78.0399 C28.4101,78.5 27.55,78.98 26.79,79.56 C25.25,80.73 24.34,82.46 24.34,84.1899 C24.34,87.45 27.3,89.63 31.72,89.63 C37.1301,89.63 40.9101,86.63 40.9101,82.35 C40.9101,80.1199 39.9101,78.18 38.0801,76.83 C41.0101,75.6199 42.37,73.9399 42.37,71.56 C42.39,70.05 41.69,68.61 40.49,67.6899 C39.2801,66.7399 37.62,66.2399 35.69,66.2399 L35.5101,66.2399 C38.2801,65.7 40.92,64.7 43.2101,63.28 C46.87,60.71 48.99,56.73 49.67,51.1 C50.2301,46.46 49.84,40.55 48.44,32.48 C48.0801,30.3899 47.54,27.36 46.8801,23.6 C52.6301,21.68 56.79,18.11 60.5601,12.26 C63.85,6.51992 64.8,0.419922 63.37,-5.89004 M32.39,87.5399 C30.19,87.5399 28.7301,86.1199 28.7301,84.01 C28.7301,82.11 29.65,80.5 31.32,79.4699 C31.6801,79.66 31.77,79.71 32.1101,79.88 C33.3,80.48 33.3,80.48 33.55,80.63 L33.5601,80.6399 C35.47,81.73 36.25,82.76 36.25,84.18 C36.24,86.0899 34.59,87.5399 32.39,87.5399 M38.3101,71.63 C38.3101,73.2699 37.7301,74.3399 36.1801,75.53 C34.74,74.78 34.35,74.56 33.9801,74.3399 L33.8801,74.28 C32.3301,73.3399 31.85,72.66 31.85,71.4 C31.85,69.6 33.2301,68.3399 35.19,68.3399 C37.17,68.35 38.3101,69.55 38.3101,71.63 M33.15,-83.8101 C34.9301,-89.55 37.67,-92.8 39.6601,-94.5301 C41.4101,-96.05 43.0601,-96.7601 43.9801,-96.7601 C44.12,-96.7601 44.24,-96.74 44.34,-96.7101 C44.8,-96.57 45.3301,-96 45.8,-95.1301 C48.1101,-90.84 47.37,-84.1301 46.0301,-79.69 C44.4,-74.29 41.4801,-68.6801 32.69,-59.0601 C32.52,-60.17 32.3601,-61.22 32.2101,-62.2 C30.95,-70.49 31.27,-77.7601 33.15,-83.8101 M29.15,20.31 C24.5101,19.0899 20.0801,16.5899 16.32,13.0899 C15.0101,11.86 13.14,9.68994 11.67,6.3 C10.3101,3.13994 9.65,-0.290039 9.7,-3.88008 C9.77002,-8.57002 11.0801,-13.39 13.59,-18.1801 C16.5101,-23.7601 21.07,-29.29 27.1301,-34.62 C28.5801,-35.9 29.95,-37.1801 31.24,-38.4601 C32,-34.2 32.8301,-29.5101 33.7101,-24.6301 C29.8601,-23.3601 25.1101,-20.2101 22,-14.5601 C18.47,-7.99004 18.6101,-2.47002 19.34,1.00996 C20.2801,5.46992 22.8101,9.22998 26.27,11.3199 C27.2,11.88 31.3301,14.01 33.17,13.43 C33.54,13.31 33.8101,13.0899 33.95,12.76 C34.4601,11.5899 33.44,10.95 31.8801,9.98994 C31.2801,9.61992 30.6101,9.2 29.8801,8.66992 C26.5601,6.17998 25.1101,1.72998 26.1801,-2.65 C26.7601,-5.05 28.04,-7.21006 29.8801,-8.91006 C31.55,-10.4601 33.59,-11.5601 35.97,-12.2 C38.0101,-0.960059 40.07,10.1899 41.7101,18.55 C41.84,19.2399 41.9801,19.91 42.1101,20.58 C37.7101,21.51 33.37,21.4199 29.15,20.31 M54.9,10.1 C53.7301,13.28 51.27,17.35 46.14,19.41 C46.07,18.9899 45.99,18.56 45.9101,18.13 C44.3601,9.36992 42.4301,-1.61006 40.47,-12.87 C50.82,-13.35 55.09,-5.91006 55.9801,-1.08008 C56.45,1.45 56.45,5.88994 54.9,10.1"/>
<path class="KeySig" transform="matrix(2.3811,0,0,2.3811,429.785,2277.85)" d="M20.1,-7.9 C19.5,-11.8 17.1,-15.5 12,-15.5 C7,-15.5 4.1,-12.4 3.6,-11.8 L4,-43.9 C4,-44.7 3.4,-45.3 2.6,-45.3 L1.4,-45.3 C0.6,-45.3 0,-44.7 0,-43.9 L0.5,16.2 C0.5,17 1.1,17.6 1.9,17.6 C2.1,17.6 2.5,17.5 2.7,17.4 C3.1,17.2 9.6,14 15,7.9 C18.8,3.6 20.3,-1.3 20.3,-5.4 C20.3,-6.3 20.2,-7.1 20.1,-7.9 M13.2,-4 C13.2,-2.5 12.8,2.1 10.3,5.9 C8.6,8.5 5.2,11.2 3.3,12.7 L3.6,-6.8 C3.8,-7.7 5.3,-10.6 9.3,-10.6 C12.9,-10.6 13.2,-7.2 13.2,-5.1 L13.2,-4 "/>
<path class="KeySig" transform="matrix(2.3811,0,0,2.3811,429.785,1510.87)" d="M20.1,-7.9 C19.5,-11.8 17.1,-15.5 12,-15.5 C7,-15.5 4.1,-12.4 3.6,-11.8 L4,-43.9 C4,-44.7 3.4,-45.3 2.6,-45.3 L1.4,-45.3 C0.6,-45.3 0,-44.7 0,-43.9 L0.5,16.2 C0.5,17 1.1,17.6 1.9,17.6 C2.1,17.6 2.5,17.5 2.7,17.4 C3.1,17.2 9.6,14 15,7.9 C18.8,3.6 20.3,-1.3 20.3,-5.4 C20.3,-6.3 20.2,-7.1 20.1,-7.9 M13.2,-4 C13.2,-2.5 12.8,2.1 10.3,5.9 C8.6,8.5 5.2,11.2 3.3,12.7 L3.6,-6.8 C3.8,-7.7 5.3,-10.6 9.3,-10.6 C12.9,-10.6 13.2,-7.2 13.2,-5.1 L13.2,-4 "/>
<path class="FiguredBass" d="M674.122,2472.56 C669.545,2472.56 666.499,2474.4 664.983,2478.08 C663.468,2481.76 662.71,2486.97 662.71,2493.71 L662.71,2504.66 C665.927,2503.36 668.71,2502.68 671.06,2502.62 C679.1,2502.62 685.425,2504.4 690.032,2507.95 C694.64,2511.51 696.944,2516.8 696.944,2523.82 C696.944,2530.84 694.609,2536.14 689.939,2539.73 C685.27,2543.32 678.977,2545.11 671.06,2545.11 C662.958,2545.11 656.618,2541.35 652.042,2533.84 C647.465,2526.32 645.176,2517.4 645.176,2507.07 C645.176,2496.81 647.836,2487.9 653.155,2480.35 C658.474,2472.81 665.463,2469.04 674.122,2469.04 C679.812,2469.04 684.729,2470.47 688.873,2473.35 C693.016,2476.23 695.088,2480.01 695.088,2484.71 C695.088,2487.44 694.099,2489.79 692.12,2491.76 C690.141,2493.74 687.775,2494.73 685.023,2494.73 C682.27,2494.73 679.905,2493.74 677.925,2491.76 C675.946,2489.79 674.957,2487.44 674.957,2484.71 C674.957,2482.05 675.946,2479.7 677.925,2477.66 C678.606,2476.86 679.564,2476.18 680.801,2475.62 C680.492,2474.82 679.874,2474.2 678.946,2473.77 C677.585,2472.96 675.977,2472.56 674.122,2472.56 M678.668,2510.5 C677.554,2507.6 675.111,2506.14 671.338,2506.14 C667.566,2506.14 665.231,2507.6 664.334,2510.5 C663.437,2513.41 662.989,2517.83 662.989,2523.77 C662.989,2530.76 663.437,2535.46 664.334,2537.87 C665.231,2540.29 667.566,2541.49 671.338,2541.49 C675.111,2541.49 677.554,2540.04 678.668,2537.13 C679.781,2534.22 680.337,2529.79 680.337,2523.82 C680.337,2517.85 679.781,2513.41 678.668,2510.5"/>
<path class="FiguredBass" d="M651.485,2574.79 C651.485,2574.79 652.969,2575 655.938,2575.43 C657.237,2575.62 658.69,2575.81 660.298,2575.99 C664.566,2576.49 668.679,2576.73 672.637,2576.73 C676.596,2576.73 680.77,2576.49 685.162,2575.99 C686.893,2575.81 688.409,2575.62 689.708,2575.43 L694.253,2574.79 C695.181,2574.79 695.877,2575.09 696.341,2575.71 C696.805,2576.33 696.758,2576.83 696.202,2577.2 C686.739,2586.66 673.41,2591.39 656.216,2591.39 C655.536,2591.39 654.933,2591.64 654.407,2592.13 C653.882,2592.63 653.619,2593.25 653.619,2593.99 L653.619,2608.55 C658.01,2604.23 663.329,2602.06 669.576,2602.06 C678.606,2602.06 685.579,2604.09 690.496,2608.14 C695.413,2612.19 697.872,2618.33 697.872,2626.55 C697.872,2633.54 695.088,2639.34 689.522,2643.95 C683.956,2648.56 677.307,2650.86 669.576,2650.86 C662.896,2650.86 657.098,2649.34 652.181,2646.31 C647.264,2643.28 644.805,2639.08 644.805,2633.7 C644.805,2630.97 645.795,2628.61 647.774,2626.6 C649.753,2624.59 652.119,2623.58 654.871,2623.58 C657.623,2623.58 659.958,2624.57 661.876,2626.55 C663.793,2628.53 664.752,2630.91 664.752,2633.7 C664.752,2634.93 663.731,2636.28 661.69,2637.73 C659.649,2639.19 658.628,2640.53 658.628,2641.77 C658.628,2645.48 662.278,2647.33 669.576,2647.33 C676.688,2647.33 680.245,2640.41 680.245,2626.55 C680.245,2613.19 676.688,2606.48 669.576,2606.42 C663.205,2606.42 658.752,2607.72 656.216,2610.32 C653.681,2612.91 652.103,2614.21 651.485,2614.21 C649.939,2614.21 649.196,2613.44 649.258,2611.89 L649.258,2577.2 C649.258,2576.52 649.475,2575.94 649.908,2575.48 C650.341,2575.02 650.866,2574.79 651.485,2574.79"/>
<path class="FiguredBass" d="M1338.61,2535.46 L1338.61,2554.85 C1338.61,2556.77 1337.63,2557.73 1335.68,2557.73 C1333.74,2557.73 1332.76,2556.77 1332.76,2554.85 L1332.76,2537.97 L1329.79,2539.17 C1329.48,2539.3 1329.08,2539.36 1328.59,2539.36 C1327.78,2539.36 1327.07,2539.05 1326.45,2538.43 C1325.83,2537.81 1325.52,2537.1 1325.52,2536.3 L1325.52,2526.83 C1325.52,2525.47 1326.17,2524.51 1327.47,2523.96 L1332.76,2521.73 L1332.76,2502.25 L1329.79,2503.45 C1329.61,2503.52 1329.36,2503.55 1329.05,2503.55 C1328.93,2503.55 1328.77,2503.55 1328.59,2503.55 C1327.66,2503.42 1326.92,2503.08 1326.36,2502.53 C1325.8,2501.97 1325.52,2501.32 1325.52,2500.58 L1325.52,2491.12 C1325.52,2489.82 1326.17,2488.89 1327.47,2488.33 L1332.76,2486.11 L1332.76,2466.34 C1332.76,2464.43 1333.74,2463.47 1335.68,2463.47 C1337.63,2463.47 1338.61,2464.43 1338.61,2466.34 L1338.61,2483.69 L1350.57,2478.68 L1350.57,2459.29 C1350.57,2457.38 1351.53,2456.42 1353.45,2456.42 C1355.37,2456.42 1356.33,2457.38 1356.33,2459.29 L1356.33,2476.36 L1359.57,2474.97 C1359.88,2474.85 1360.22,2474.79 1360.59,2474.79 C1361.4,2474.79 1362.12,2475.1 1362.77,2475.71 C1363.42,2476.33 1363.75,2477.04 1363.75,2477.85 L1363.75,2487.31 C1363.75,2488.67 1363.07,2489.63 1361.71,2490.19 L1356.33,2492.41 L1356.33,2511.99 L1359.57,2510.69 C1359.76,2510.63 1359.97,2510.6 1360.22,2510.6 C1360.35,2510.6 1360.47,2510.6 1360.59,2510.6 C1361.64,2510.78 1362.43,2511.12 1362.96,2511.62 C1363.48,2512.11 1363.75,2512.76 1363.75,2513.57 L1363.75,2523.03 C1363.75,2524.33 1363.07,2525.26 1361.71,2525.81 L1356.33,2528.04 L1356.33,2547.8 C1356.33,2549.72 1355.37,2550.68 1353.45,2550.68 C1351.53,2550.68 1350.57,2549.72 1350.57,2547.8 L1350.57,2530.45 L1338.61,2535.46 M1338.61,2519.32 L1350.57,2514.4 L1350.57,2494.83 L1338.61,2499.84 L1338.61,2519.32 "/>
<path class="FiguredBass" d="M2488.54,2518.48 L2488.54,2501.51 C2488.54,2500.52 2488.9,2499.63 2489.61,2498.86 C2490.32,2498.09 2491.23,2497.7 2492.34,2497.7 C2493.46,2497.7 2494.37,2498.09 2495.08,2498.86 C2495.79,2499.63 2496.15,2500.52 2496.15,2501.51 L2496.15,2518.48 L2509.41,2518.48 C2510.53,2518.48 2511.44,2518.87 2512.15,2519.64 C2512.86,2520.42 2513.22,2521.3 2513.22,2522.29 C2513.22,2523.28 2512.86,2524.16 2512.15,2524.93 C2511.44,2525.7 2510.53,2526.09 2509.41,2526.09 L2496.15,2526.09 L2496.15,2543.07 C2496.15,2544.06 2495.79,2544.94 2495.08,2545.71 C2494.37,2546.49 2493.46,2546.87 2492.34,2546.87 C2491.23,2546.87 2490.32,2546.49 2489.61,2545.71 C2488.9,2544.94 2488.54,2544.06 2488.54,2543.07 L2488.54,2526.09 L2471.38,2526.09 L2471.38,2527.3 C2471.38,2531.13 2472.4,2534.47 2474.44,2537.32 C2476.48,2540.16 2479.11,2541.58 2482.32,2541.58 C2483.56,2541.58 2484.18,2542.14 2484.18,2543.25 C2484.18,2544.49 2483.56,2545.11 2482.32,2545.11 C2480.1,2545.11 2476.79,2544.78 2472.4,2544.14 C2468.01,2543.49 2464.68,2543.16 2462.42,2543.16 C2460.17,2543.16 2456.84,2543.49 2452.45,2544.14 C2448.06,2544.78 2444.75,2545.11 2442.52,2545.11 C2441.29,2545.11 2440.67,2544.49 2440.67,2543.25 C2440.67,2542.14 2441.29,2541.58 2442.52,2541.58 C2445.74,2541.58 2448.38,2540.16 2450.46,2537.32 C2452.53,2534.47 2453.56,2531.13 2453.56,2527.3 L2453.56,2526.09 L2428.24,2526.09 C2426.63,2526.09 2425.44,2525.7 2424.66,2524.93 C2423.89,2524.16 2423.51,2523.37 2423.51,2522.57 C2423.51,2522.26 2424.23,2521.19 2425.69,2519.36 C2427.14,2517.54 2428.92,2515.11 2431.02,2512.08 C2433.12,2509.05 2435.21,2505.6 2437.28,2501.74 C2439.35,2497.87 2441.12,2493.23 2442.57,2487.82 C2444.02,2482.41 2444.75,2476.95 2444.75,2471.45 C2444.75,2469.84 2445.43,2469.04 2446.79,2469.04 C2446.98,2469.04 2447.63,2469.19 2448.74,2469.5 C2449.85,2469.81 2451.28,2470.13 2453.01,2470.47 C2454.74,2470.81 2456.41,2470.98 2458.02,2470.98 C2460.43,2470.98 2462.9,2470.64 2465.44,2469.96 L2469.61,2468.85 C2470.42,2468.85 2471.07,2469.16 2471.56,2469.78 C2471.93,2470.33 2471.87,2470.89 2471.38,2471.45 L2430.93,2518.48 L2453.56,2518.48 L2453.56,2501.78 C2453.56,2500.36 2453.95,2499.26 2454.72,2498.49 C2455.5,2497.72 2456.55,2497.07 2457.88,2496.54 C2459.21,2496.02 2460.74,2494.67 2462.47,2492.51 C2464.08,2490.47 2465.93,2487.37 2468.04,2483.23 C2468.35,2482.61 2468.81,2482.3 2469.43,2482.3 C2470.73,2482.3 2471.38,2483.01 2471.38,2484.44 L2471.38,2518.48 L2488.54,2518.48 "/>
<path class="FiguredBass" d="M2470.54,2610.5 C2470.54,2611.49 2471.1,2612.45 2472.21,2613.38 C2473.32,2614.31 2474.55,2615.19 2475.88,2616.02 C2477.21,2616.86 2478.43,2618.43 2479.54,2620.75 C2480.65,2623.07 2481.21,2626 2481.21,2629.52 C2481.21,2636.32 2478.64,2641.58 2473.51,2645.29 C2468.38,2649 2461.88,2650.86 2454.03,2650.86 C2447.72,2650.86 2442.23,2649.28 2437.56,2646.13 C2432.89,2642.97 2430.56,2638.83 2430.56,2633.7 C2430.56,2630.97 2431.55,2628.61 2433.52,2626.6 C2435.5,2624.59 2437.87,2623.58 2440.62,2623.58 C2443.37,2623.58 2445.71,2624.57 2447.63,2626.55 C2449.54,2628.53 2450.5,2630.91 2450.5,2633.7 C2450.5,2634.93 2449.48,2636.28 2447.44,2637.73 C2445.4,2639.19 2444.38,2640.53 2444.38,2641.77 C2444.38,2643.68 2445.32,2645.09 2447.21,2645.99 C2449.1,2646.89 2451.37,2647.33 2454.03,2647.33 C2457.49,2647.33 2459.95,2645.62 2461.4,2642.18 C2462.86,2638.75 2463.58,2634.53 2463.58,2629.52 L2463.58,2627.11 C2463.58,2623.77 2463.48,2621.23 2463.26,2619.5 C2463.04,2617.77 2462.36,2616.22 2461.22,2614.86 C2460.07,2613.5 2458.33,2612.82 2455.98,2612.82 L2443.82,2612.82 C2442.4,2612.82 2441.69,2612.05 2441.69,2610.5 C2441.69,2609.08 2442.4,2608.37 2443.82,2608.37 L2455.98,2608.37 C2458.51,2608.37 2460.49,2607.41 2461.91,2605.49 C2462.41,2604.81 2462.81,2603.7 2463.12,2602.15 C2463.43,2600.11 2463.58,2597.17 2463.58,2593.34 L2463.58,2592.13 C2463.58,2582.92 2460.18,2578.31 2453.38,2578.31 C2447.38,2578.31 2444.38,2579.98 2444.38,2583.32 C2444.38,2584.43 2445.29,2585.62 2447.12,2586.89 C2448.94,2588.16 2449.85,2589.35 2449.85,2590.46 C2449.85,2592.88 2449,2594.95 2447.3,2596.68 C2445.6,2598.41 2443.53,2599.28 2441.09,2599.28 C2438.64,2599.28 2436.59,2598.41 2434.92,2596.68 C2433.25,2594.95 2432.41,2592.88 2432.41,2590.46 C2432.41,2585.7 2434.48,2581.9 2438.63,2579.05 C2442.77,2576.21 2447.69,2574.79 2453.38,2574.79 C2460.86,2574.79 2467.02,2576.22 2471.84,2579.1 C2476.66,2581.98 2479.08,2586.32 2479.08,2592.13 C2479.08,2596.28 2478.64,2599.49 2477.78,2601.78 C2476.91,2604.07 2475.92,2605.46 2474.81,2605.96 C2473.7,2606.45 2472.71,2607.02 2471.84,2607.67 C2470.97,2608.32 2470.54,2609.27 2470.54,2610.5"/>
<path class="FiguredBass" d="M3123.15,2535.46 L3123.15,2554.85 C3123.15,2556.77 3122.18,2557.73 3120.23,2557.73 C3118.28,2557.73 3117.31,2556.77 3117.31,2554.85 L3117.31,2537.97 L3114.34,2539.17 C3114.03,2539.3 3113.63,2539.36 3113.13,2539.36 C3112.33,2539.36 3111.62,2539.05 3111,2538.43 C3110.38,2537.81 3110.07,2537.1 3110.07,2536.3 L3110.07,2526.83 C3110.07,2525.47 3110.72,2524.51 3112.02,2523.96 L3117.31,2521.73 L3117.31,2502.25 L3114.34,2503.45 C3114.15,2503.52 3113.9,2503.55 3113.59,2503.55 C3113.47,2503.55 3113.32,2503.55 3113.13,2503.55 C3112.2,2503.42 3111.46,2503.08 3110.9,2502.53 C3110.35,2501.97 3110.07,2501.32 3110.07,2500.58 L3110.07,2491.12 C3110.07,2489.82 3110.72,2488.89 3112.02,2488.33 L3117.31,2486.11 L3117.31,2466.34 C3117.31,2464.43 3118.28,2463.47 3120.23,2463.47 C3122.18,2463.47 3123.15,2464.43 3123.15,2466.34 L3123.15,2483.69 L3135.12,2478.68 L3135.12,2459.29 C3135.12,2457.38 3136.08,2456.42 3137.99,2456.42 C3139.91,2456.42 3140.87,2457.38 3140.87,2459.29 L3140.87,2476.36 L3144.12,2474.97 C3144.43,2474.85 3144.77,2474.79 3145.14,2474.79 C3145.94,2474.79 3146.67,2475.1 3147.32,2475.71 C3147.97,2476.33 3148.29,2477.04 3148.29,2477.85 L3148.29,2487.31 C3148.29,2488.67 3147.61,2489.63 3146.25,2490.19 L3140.87,2492.41 L3140.87,2511.99 L3144.12,2510.69 C3144.3,2510.63 3144.52,2510.6 3144.77,2510.6 C3144.89,2510.6 3145.01,2510.6 3145.14,2510.6 C3146.19,2510.78 3146.98,2511.12 3147.5,2511.62 C3148.03,2512.11 3148.29,2512.76 3148.29,2513.57 L3148.29,2523.03 C3148.29,2524.33 3147.61,2525.26 3146.25,2525.81 L3140.87,2528.04 L3140.87,2547.8 C3140.87,2549.72 3139.91,2550.68 3137.99,2550.68 C3136.08,2550.68 3135.12,2549.72 3135.12,2547.8 L3135.12,2530.45 L3123.15,2535.46 M3123.15,2519.32 L3135.12,2514.4 L3135.12,2494.83 L3123.15,2499.84 L3123.15,2519.32 "/>
<path class="FiguredBass" d="M685.997,1797.3 C685.997,1798.29 686.553,1799.25 687.667,1800.18 C688.78,1801.1 690.001,1801.98 691.331,1802.82 C692.661,1803.65 693.882,1805.23 694.996,1807.55 C696.109,1809.87 696.666,1812.79 696.666,1816.32 C696.666,1823.12 694.099,1828.38 688.965,1832.09 C683.832,1835.8 677.338,1837.66 669.483,1837.66 C663.174,1837.66 657.685,1836.08 653.016,1832.92 C648.346,1829.77 646.011,1825.63 646.011,1820.49 C646.011,1817.77 647.001,1815.41 648.98,1813.4 C650.959,1811.39 653.325,1810.38 656.077,1810.38 C658.829,1810.38 661.164,1811.37 663.082,1813.35 C664.999,1815.33 665.958,1817.71 665.958,1820.49 C665.958,1821.73 664.937,1823.08 662.896,1824.53 C660.855,1825.98 659.835,1827.33 659.835,1828.56 C659.835,1830.48 660.778,1831.89 662.664,1832.79 C664.551,1833.68 666.823,1834.13 669.483,1834.13 C672.946,1834.13 675.405,1832.41 676.858,1828.98 C678.312,1825.55 679.039,1821.33 679.039,1816.32 L679.039,1813.91 C679.039,1810.57 678.93,1808.03 678.714,1806.3 C678.497,1804.57 677.817,1803.02 676.673,1801.66 C675.529,1800.3 673.781,1799.62 671.431,1799.62 L659.278,1799.62 C657.855,1799.62 657.144,1798.85 657.144,1797.3 C657.144,1795.88 657.855,1795.17 659.278,1795.17 L671.431,1795.17 C673.967,1795.17 675.946,1794.21 677.369,1792.29 C677.863,1791.61 678.266,1790.5 678.575,1788.95 C678.884,1786.91 679.039,1783.97 679.039,1780.14 L679.039,1778.93 C679.039,1769.72 675.637,1765.11 668.834,1765.11 C662.834,1765.11 659.835,1766.78 659.835,1770.12 C659.835,1771.23 660.747,1772.42 662.571,1773.69 C664.396,1774.96 665.308,1776.15 665.308,1777.26 C665.308,1779.67 664.458,1781.74 662.757,1783.48 C661.056,1785.21 658.984,1786.07 656.541,1786.07 C654.098,1786.07 652.042,1785.21 650.372,1783.48 C648.702,1781.74 647.867,1779.67 647.867,1777.26 C647.867,1772.5 649.939,1768.69 654.083,1765.85 C658.226,1763 663.143,1761.58 668.834,1761.58 C676.317,1761.58 682.471,1763.02 687.295,1765.9 C692.12,1768.77 694.532,1773.12 694.532,1778.93 C694.532,1783.07 694.099,1786.29 693.233,1788.58 C692.367,1790.87 691.377,1792.26 690.264,1792.75 C689.151,1793.25 688.161,1793.82 687.295,1794.47 C686.43,1795.12 685.997,1796.06 685.997,1797.3"/>
<path class="FiguredBass" d="M674.122,1870.86 C669.545,1870.86 666.499,1872.7 664.983,1876.38 C663.468,1880.06 662.71,1885.27 662.71,1892.01 L662.71,1902.96 C665.927,1901.66 668.71,1900.98 671.06,1900.92 C679.1,1900.92 685.425,1902.69 690.032,1906.25 C694.64,1909.81 696.944,1915.09 696.944,1922.11 C696.944,1929.13 694.609,1934.44 689.939,1938.03 C685.27,1941.61 678.977,1943.41 671.06,1943.41 C662.958,1943.41 656.618,1939.65 652.042,1932.13 C647.465,1924.62 645.176,1915.7 645.176,1905.37 C645.176,1895.1 647.836,1886.2 653.155,1878.65 C658.474,1871.1 665.463,1867.33 674.122,1867.33 C679.812,1867.33 684.729,1868.77 688.873,1871.65 C693.016,1874.52 695.088,1878.31 695.088,1883.01 C695.088,1885.73 694.099,1888.08 692.12,1890.06 C690.141,1892.04 687.775,1893.03 685.023,1893.03 C682.27,1893.03 679.905,1892.04 677.925,1890.06 C675.946,1888.08 674.957,1885.73 674.957,1883.01 C674.957,1880.35 675.946,1878 677.925,1875.96 C678.606,1875.16 679.564,1874.48 680.801,1873.92 C680.492,1873.11 679.874,1872.5 678.946,1872.06 C677.585,1871.26 675.977,1870.86 674.122,1870.86 M678.668,1908.8 C677.554,1905.89 675.111,1904.44 671.338,1904.44 C667.566,1904.44 665.231,1905.89 664.334,1908.8 C663.437,1911.71 662.989,1916.13 662.989,1922.07 C662.989,1929.06 663.437,1933.76 664.334,1936.17 C665.231,1938.58 667.566,1939.79 671.338,1939.79 C675.111,1939.79 677.554,1938.33 678.668,1935.43 C679.781,1932.52 680.337,1928.08 680.337,1922.11 C680.337,1916.15 679.781,1911.71 678.668,1908.8"/>
<path class="FiguredBass" d="M651.485,1973.08 C651.485,1973.08 652.969,1973.3 655.938,1973.73 C657.237,1973.92 658.69,1974.1 660.298,1974.29 C664.566,1974.78 668.679,1975.03 672.637,1975.03 C676.596,1975.03 680.77,1974.78 685.162,1974.29 C686.893,1974.1 688.409,1973.92 689.708,1973.73 L694.253,1973.08 C695.181,1973.08 695.877,1973.39 696.341,1974.01 C696.805,1974.63 696.758,1975.12 696.202,1975.49 C686.739,1984.96 673.41,1989.69 656.216,1989.69 C655.536,1989.69 654.933,1989.94 654.407,1990.43 C653.882,1990.93 653.619,1991.54 653.619,1992.29 L653.619,2006.85 C658.01,2002.52 663.329,2000.36 669.576,2000.36 C678.606,2000.36 685.579,2002.38 690.496,2006.43 C695.413,2010.49 697.872,2016.62 697.872,2024.85 C697.872,2031.84 695.088,2037.64 689.522,2042.24 C683.956,2046.85 677.307,2049.16 669.576,2049.16 C662.896,2049.16 657.098,2047.64 652.181,2044.61 C647.264,2041.58 644.805,2037.37 644.805,2031.99 C644.805,2029.27 645.795,2026.91 647.774,2024.9 C649.753,2022.89 652.119,2021.88 654.871,2021.88 C657.623,2021.88 659.958,2022.87 661.876,2024.85 C663.793,2026.83 664.752,2029.21 664.752,2031.99 C664.752,2033.23 663.731,2034.58 661.69,2036.03 C659.649,2037.48 658.628,2038.83 658.628,2040.06 C658.628,2043.78 662.278,2045.63 669.576,2045.63 C676.688,2045.63 680.245,2038.7 680.245,2024.85 C680.245,2011.49 676.688,2004.78 669.576,2004.72 C663.205,2004.72 658.752,2006.02 656.216,2008.61 C653.681,2011.21 652.103,2012.51 651.485,2012.51 C649.939,2012.51 649.196,2011.74 649.258,2010.19 L649.258,1975.49 C649.258,1974.81 649.475,1974.24 649.908,1973.78 C650.341,1973.31 650.866,1973.08 651.485,1973.08"/>
<path class="FiguredBass" d="M2458.67,1765.11 C2454.09,1765.11 2451.04,1766.95 2449.53,1770.63 C2448.01,1774.31 2447.26,1779.52 2447.26,1786.26 L2447.26,1797.21 C2450.47,1795.91 2453.25,1795.23 2455.6,1795.17 C2463.65,1795.17 2469.97,1796.94 2474.58,1800.5 C2479.18,1804.06 2481.49,1809.34 2481.49,1816.36 C2481.49,1823.38 2479.15,1828.69 2474.48,1832.28 C2469.81,1835.86 2463.52,1837.66 2455.6,1837.66 C2447.5,1837.66 2441.16,1833.9 2436.59,1826.38 C2432.01,1818.87 2429.72,1809.95 2429.72,1799.62 C2429.72,1789.35 2432.38,1780.45 2437.7,1772.9 C2443.02,1765.35 2450.01,1761.58 2458.67,1761.58 C2464.36,1761.58 2469.27,1763.02 2473.42,1765.9 C2477.56,1768.77 2479.63,1772.56 2479.63,1777.26 C2479.63,1779.98 2478.64,1782.33 2476.66,1784.31 C2474.69,1786.29 2472.32,1787.28 2469.57,1787.28 C2466.81,1787.28 2464.45,1786.29 2462.47,1784.31 C2460.49,1782.33 2459.5,1779.98 2459.5,1777.26 C2459.5,1774.6 2460.49,1772.25 2462.47,1770.21 C2463.15,1769.41 2464.11,1768.73 2465.35,1768.17 C2465.04,1767.36 2464.42,1766.75 2463.49,1766.31 C2462.13,1765.51 2460.52,1765.11 2458.67,1765.11 M2463.21,1803.05 C2462.1,1800.14 2459.66,1798.69 2455.88,1798.69 C2452.11,1798.69 2449.78,1800.14 2448.88,1803.05 C2447.98,1805.96 2447.53,1810.38 2447.53,1816.32 C2447.53,1823.31 2447.98,1828.01 2448.88,1830.42 C2449.78,1832.83 2452.11,1834.04 2455.88,1834.04 C2459.66,1834.04 2462.1,1832.58 2463.21,1829.68 C2464.33,1826.77 2464.88,1822.33 2464.88,1816.36 C2464.88,1810.4 2464.33,1805.96 2463.21,1803.05"/>
<path class="FiguredBass" d="M2458.02,1869.28 C2460.37,1869.28 2462.84,1868.94 2465.44,1868.26 L2469.61,1867.15 C2470.42,1867.15 2471.05,1867.46 2471.52,1868.07 C2471.98,1868.69 2471.93,1869.25 2471.38,1869.74 L2428.24,1919.93 L2453.56,1919.93 L2453.56,1900.08 C2453.56,1898.66 2453.95,1897.56 2454.72,1896.79 C2455.5,1896.01 2456.49,1895.4 2457.69,1894.93 C2458.9,1894.47 2460.48,1893.09 2462.42,1890.8 C2464.37,1888.52 2466.24,1885.42 2468.04,1881.53 C2468.35,1880.91 2468.81,1880.6 2469.43,1880.6 C2470.73,1880.6 2471.38,1881.31 2471.38,1882.73 L2471.38,1919.93 L2482.32,1919.93 C2483.87,1919.93 2484.64,1920.65 2484.64,1922.07 C2484.64,1923.61 2483.87,1924.39 2482.32,1924.39 L2471.38,1924.39 L2471.38,1925.59 C2471.38,1929.43 2472.4,1932.77 2474.44,1935.61 C2476.48,1938.46 2479.11,1939.88 2482.32,1939.88 C2483.56,1939.88 2484.18,1940.44 2484.18,1941.55 C2484.18,1942.79 2483.56,1943.41 2482.32,1943.41 C2480.1,1943.41 2476.79,1943.08 2472.4,1942.43 C2468.01,1941.78 2464.68,1941.46 2462.42,1941.46 C2460.17,1941.46 2456.84,1941.78 2452.45,1942.43 C2448.06,1943.08 2444.75,1943.41 2442.52,1943.41 C2441.29,1943.41 2440.67,1942.79 2440.67,1941.55 C2440.67,1940.44 2441.29,1939.88 2442.52,1939.88 C2445.74,1939.88 2448.38,1938.46 2450.46,1935.61 C2452.53,1932.77 2453.56,1929.43 2453.56,1925.59 L2453.56,1924.39 L2428.24,1924.39 C2426.63,1924.39 2425.44,1924 2424.66,1923.23 C2423.89,1922.45 2423.51,1921.67 2423.51,1920.86 C2423.51,1920.55 2424.23,1919.49 2425.69,1917.66 C2427.14,1915.84 2428.92,1913.41 2431.02,1910.38 C2433.12,1907.35 2435.21,1903.9 2437.28,1900.03 C2439.35,1896.17 2441.12,1891.53 2442.57,1886.12 C2444.02,1880.71 2444.75,1875.25 2444.75,1869.74 C2444.75,1868.14 2445.43,1867.33 2446.79,1867.33 C2446.98,1867.33 2447.63,1867.49 2448.74,1867.8 C2449.85,1868.11 2451.28,1868.43 2453.01,1868.77 C2454.74,1869.11 2456.41,1869.28 2458.02,1869.28"/>
<path class="FiguredBass" d="M2470.54,2008.8 C2470.54,2009.79 2471.1,2010.75 2472.21,2011.68 C2473.32,2012.6 2474.55,2013.48 2475.88,2014.32 C2477.21,2015.15 2478.43,2016.73 2479.54,2019.05 C2480.65,2021.37 2481.21,2024.29 2481.21,2027.82 C2481.21,2034.62 2478.64,2039.88 2473.51,2043.59 C2468.38,2047.3 2461.88,2049.16 2454.03,2049.16 C2447.72,2049.16 2442.23,2047.58 2437.56,2044.42 C2432.89,2041.27 2430.56,2037.13 2430.56,2031.99 C2430.56,2029.27 2431.55,2026.91 2433.52,2024.9 C2435.5,2022.89 2437.87,2021.88 2440.62,2021.88 C2443.37,2021.88 2445.71,2022.87 2447.63,2024.85 C2449.54,2026.83 2450.5,2029.21 2450.5,2031.99 C2450.5,2033.23 2449.48,2034.58 2447.44,2036.03 C2445.4,2037.48 2444.38,2038.83 2444.38,2040.06 C2444.38,2041.98 2445.32,2043.39 2447.21,2044.29 C2449.1,2045.18 2451.37,2045.63 2454.03,2045.63 C2457.49,2045.63 2459.95,2043.91 2461.4,2040.48 C2462.86,2037.05 2463.58,2032.83 2463.58,2027.82 L2463.58,2025.41 C2463.58,2022.07 2463.48,2019.53 2463.26,2017.8 C2463.04,2016.07 2462.36,2014.52 2461.22,2013.16 C2460.07,2011.8 2458.33,2011.12 2455.98,2011.12 L2443.82,2011.12 C2442.4,2011.12 2441.69,2010.35 2441.69,2008.8 C2441.69,2007.38 2442.4,2006.67 2443.82,2006.67 L2455.98,2006.67 C2458.51,2006.67 2460.49,2005.71 2461.91,2003.79 C2462.41,2003.11 2462.81,2002 2463.12,2000.45 C2463.43,1998.41 2463.58,1995.47 2463.58,1991.64 L2463.58,1990.43 C2463.58,1981.22 2460.18,1976.61 2453.38,1976.61 C2447.38,1976.61 2444.38,1978.28 2444.38,1981.62 C2444.38,1982.73 2445.29,1983.92 2447.12,1985.19 C2448.94,1986.46 2449.85,1987.65 2449.85,1988.76 C2449.85,1991.17 2449,1993.24 2447.3,1994.98 C2445.6,1996.71 2443.53,1997.57 2441.09,1997.57 C2438.64,1997.57 2436.59,1996.71 2434.92,1994.98 C2433.25,1993.24 2432.41,1991.17 2432.41,1988.76 C2432.41,1984 2434.48,1980.19 2438.63,1977.35 C2442.77,1974.5 2447.69,1973.08 2453.38,1973.08 C2460.86,1973.08 2467.02,1974.52 2471.84,1977.4 C2476.66,1980.27 2479.08,1984.62 2479.08,1990.43 C2479.08,1994.57 2478.64,1997.79 2477.78,2000.08 C2476.91,2002.37 2475.92,2003.76 2474.81,2004.25 C2473.7,2004.75 2472.71,2005.32 2471.84,2005.97 C2470.97,2006.62 2470.54,2007.56 2470.54,2008.8"/>
<path class="Bracket" transform="matrix(8.6315,0,0,9.45563,76.1283,2337.37)" d="M0.92002,-50 C2.69004,-51.88 6.2,-55.8 6.2,-63 C6.2,-72.1 2.25996,-81.32 2.25996,-86.97 C2.25996,-93.06 5.84004,-98.84 5.95,-99 C6.05996,-99.16 6.05,-99.39 5.94004,-99.46 C5.82998,-99.53 5.62002,-99.47 5.49004,-99.32 C5.35996,-99.17 0,-93.75 0,-85.6 C0,-76.75 3.5,-70.58 3.5,-59.07 C3.5,-56.89 2.55996,-53.36 0.1,-50.33 C-0.0799805,-50.17 -0.1,-49.89 0.0599609,-49.7 L0.0700195,-49.69 L0.1,-49.66 C2.55996,-46.63 3.5,-43.1 3.5,-40.92 C3.5,-29.4 0,-23.24 0,-14.39 C0,-6.25 5.35996,-0.8 5.49004,-0.659961 C5.62002,-0.52002 5.8,-0.42998 5.94004,-0.52002 C6.07998,-0.609961 6.07998,-0.77998 5.95,-0.97998 C5.82002,-1.17998 2.25996,-6.92002 2.25996,-13.01 C2.25996,-18.66 6.2,-27.9 6.2,-37 C6.2,-44.3 2.69004,-48.12 0.92002,-50"/>
</svg>
