<?xml version="1.0" encoding="UTF-8" standalone="no"?>
<svg width="4209.44px" height="2976.38px" viewBox="0 0 4209.44 2976.38"
 xmlns="http://www.w3.org/2000/svg" xmlns:xlink="http://www.w3.org/1999/xlink" version="1.2" baseProfile="tiny">
<title>SibMajeur (1)</title>
<desc>Generated by MuseScore 3.6.2</desc>
<polyline class="StaffLines" fill="none" stroke="#000000" stroke-width="6.55" stroke-linejoin="bevel" points="153.819,558.425 4138.58,558.425"/>
<polyline class="StaffLines" fill="none" stroke="#000000" stroke-width="6.55" stroke-linejoin="bevel" points="153.819,647.717 4138.58,647.717"/>
<polyline class="StaffLines" fill="none" stroke="#000000" stroke-width="6.55" stroke-linejoin="bevel" points="153.819,737.008 4138.58,737.008"/>
<polyline class="StaffLines" fill="none" stroke="#000000" stroke-width="6.55" stroke-linejoin="bevel" points="153.819,826.299 4138.58,826.299"/>
<polyline class="StaffLines" fill="none" stroke="#000000" stroke-width="6.55" stroke-linejoin="bevel" points="153.819,915.591 4138.58,915.591"/>
<polyline class="StaffLines" fill="none" stroke="#000000" stroke-width="6.55" stroke-linejoin="bevel" points="153.819,1004.88 4138.58,1004.88"/>
<polyline class="StaffLines" fill="none" stroke="#000000" stroke-width="6.55" stroke-linejoin="bevel" points="153.819,1391.81 4138.58,1391.81"/>
<polyline class="StaffLines" fill="none" stroke="#000000" stroke-width="6.55" stroke-linejoin="bevel" points="153.819,1451.34 4138.58,1451.34"/>
<polyline class="StaffLines" fill="none" stroke="#000000" stroke-width="6.55" stroke-linejoin="bevel" points="153.819,1510.87 4138.58,1510.87"/>
<polyline class="StaffLines" fill="none" stroke="#000000" stroke-width="6.55" stroke-linejoin="bevel" points="153.819,1570.39 4138.58,1570.39"/>
<polyline class="StaffLines" fill="none" stroke="#000000" stroke-width="6.55" stroke-linejoin="bevel" points="153.819,1629.92 4138.58,1629.92"/>
<polyline class="StaffLines" fill="none" stroke="#000000" stroke-width="6.55" stroke-linejoin="bevel" points="153.819,2016.85 4138.58,2016.85"/>
<polyline class="StaffLines" fill="none" stroke="#000000" stroke-width="6.55" stroke-linejoin="bevel" points="153.819,2076.38 4138.58,2076.38"/>
<polyline class="StaffLines" fill="none" stroke="#000000" stroke-width="6.55" stroke-linejoin="bevel" points="153.819,2135.91 4138.58,2135.91"/>
<polyline class="StaffLines" fill="none" stroke="#000000" stroke-width="6.55" stroke-linejoin="bevel" points="153.819,2195.43 4138.58,2195.43"/>
<polyline class="StaffLines" fill="none" stroke="#000000" stroke-width="6.55" stroke-linejoin="bevel" points="153.819,2254.96 4138.58,2254.96"/>
<polyline class="BarLine" fill="none" stroke="#000000" stroke-width="10.71" stroke-linejoin="bevel" points="159.176,2013.58 159.176,2258.23"/>
<polyline class="BarLine" fill="none" stroke="#000000" stroke-width="10.71" stroke-linejoin="bevel" points="983.135,2013.58 983.135,2258.23"/>
<polyline class="BarLine" fill="none" stroke="#000000" stroke-width="10.71" stroke-linejoin="bevel" points="1461.27,2013.58 1461.27,2258.23"/>
<polyline class="BarLine" fill="none" stroke="#000000" stroke-width="10.71" stroke-linejoin="bevel" points="1989,2013.58 1989,2258.23"/>
<polyline class="BarLine" fill="none" stroke="#000000" stroke-width="10.71" stroke-linejoin="bevel" points="2409.7,2013.58 2409.7,2258.23"/>
<polyline class="BarLine" fill="none" stroke="#000000" stroke-width="10.71" stroke-linejoin="bevel" points="2817.85,2013.58 2817.85,2258.23"/>
<polyline class="BarLine" fill="none" stroke="#000000" stroke-width="10.71" stroke-linejoin="bevel" points="3222.99,2013.58 3222.99,2258.23"/>
<polyline class="BarLine" fill="none" stroke="#000000" stroke-width="10.71" stroke-linejoin="bevel" points="3701.12,2013.58 3701.12,2258.23"/>
<polyline class="BarLine" fill="none" stroke="#000000" stroke-width="10.71" stroke-linejoin="bevel" points="4080.54,2013.58 4080.54,2258.23"/>
<polyline class="BarLine" fill="none" stroke="#000000" stroke-width="32.74" stroke-linejoin="bevel" points="4122.21,2013.58 4122.21,2258.23"/>
<polyline class="BarLine" fill="none" stroke="#000000" stroke-width="10.71" stroke-linejoin="bevel" points="159.176,1388.54 159.176,2016.85"/>
<polyline class="BarLine" fill="none" stroke="#000000" stroke-width="10.71" stroke-linejoin="bevel" points="983.135,1388.54 983.135,1633.2"/>
<polyline class="BarLine" fill="none" stroke="#000000" stroke-width="10.71" stroke-linejoin="bevel" points="1461.27,1388.54 1461.27,1633.2"/>
<polyline class="BarLine" fill="none" stroke="#000000" stroke-width="10.71" stroke-linejoin="bevel" points="1989,1388.54 1989,1633.2"/>
<polyline class="BarLine" fill="none" stroke="#000000" stroke-width="10.71" stroke-linejoin="bevel" points="2409.7,1388.54 2409.7,1633.2"/>
<polyline class="BarLine" fill="none" stroke="#000000" stroke-width="10.71" stroke-linejoin="bevel" points="2817.85,1388.54 2817.85,1633.2"/>
<polyline class="BarLine" fill="none" stroke="#000000" stroke-width="10.71" stroke-linejoin="bevel" points="3222.99,1388.54 3222.99,1633.2"/>
<polyline class="BarLine" fill="none" stroke="#000000" stroke-width="10.71" stroke-linejoin="bevel" points="3701.12,1388.54 3701.12,1633.2"/>
<polyline class="BarLine" fill="none" stroke="#000000" stroke-width="10.71" stroke-linejoin="bevel" points="4080.54,1388.54 4080.54,1633.2"/>
<polyline class="BarLine" fill="none" stroke="#000000" stroke-width="32.74" stroke-linejoin="bevel" points="4122.21,1388.54 4122.21,1633.2"/>
<polyline class="BarLine" fill="none" stroke="#000000" stroke-width="10.71" stroke-linejoin="bevel" points="159.176,555.151 159.176,1391.81"/>
<polyline class="BarLine" fill="none" stroke="#000000" stroke-width="10.71" stroke-linejoin="bevel" points="983.135,555.151 983.135,1008.16"/>
<polyline class="BarLine" fill="none" stroke="#000000" stroke-width="10.71" stroke-linejoin="bevel" points="1461.27,555.151 1461.27,1008.16"/>
<polyline class="BarLine" fill="none" stroke="#000000" stroke-width="10.71" stroke-linejoin="bevel" points="1989,555.151 1989,1008.16"/>
<polyline class="BarLine" fill="none" stroke="#000000" stroke-width="10.71" stroke-linejoin="bevel" points="2409.7,555.151 2409.7,1008.16"/>
<polyline class="BarLine" fill="none" stroke="#000000" stroke-width="10.71" stroke-linejoin="bevel" points="2817.85,555.151 2817.85,1008.16"/>
<polyline class="BarLine" fill="none" stroke="#000000" stroke-width="10.71" stroke-linejoin="bevel" points="3222.99,555.151 3222.99,1008.16"/>
<polyline class="BarLine" fill="none" stroke="#000000" stroke-width="10.71" stroke-linejoin="bevel" points="3701.12,555.151 3701.12,1008.16"/>
<polyline class="BarLine" fill="none" stroke="#000000" stroke-width="10.71" stroke-linejoin="bevel" points="4080.54,555.151 4080.54,1008.16"/>
<polyline class="BarLine" fill="none" stroke="#000000" stroke-width="32.74" stroke-linejoin="bevel" points="4122.21,555.151 4122.21,1008.16"/>
<polyline class="LedgerLine" fill="none" stroke="#000000" stroke-width="9.52" stroke-linejoin="bevel" points="1745.85,2314.49 1864.89,2314.49"/>
<polyline class="LedgerLine" fill="none" stroke="#000000" stroke-width="9.52" stroke-linejoin="bevel" points="2071.74,2314.49 2202.22,2314.49"/>
<polyline class="LedgerLine" fill="none" stroke="#000000" stroke-width="9.52" stroke-linejoin="bevel" points="2071.74,1689.45 2202.22,1689.45"/>
<polyline class="LedgerLine" fill="none" stroke="#000000" stroke-width="9.52" stroke-linejoin="bevel" points="2492.44,1689.45 2622.92,1689.45"/>
<polyline class="Stem" fill="none" stroke="#000000" stroke-width="6.55" stroke-linejoin="bevel" points="1553,2143.91 1553,2321.93"/>
<polyline class="Stem" fill="none" stroke="#000000" stroke-width="6.55" stroke-linejoin="bevel" points="1840.78,2336.63 1840.78,2135.91"/>
<path class="Note" transform="matrix(2.3811,0,0,2.3811,686.46,2195.43)" d="M18.7,-13.6 C4.9,-13.6 0,-6.6 0,-0.1 C0,6.4 4.9,13.4 18.7,13.4 C32.5,13.4 37.3,6.4 37.3,-0.1 C37.3,-6.6 32.5,-13.6 18.7,-13.6 M10.4,-4.5 C10.3,-4.9 10.3,-5.3 10.3,-5.7 C10.3,-6.5 10.5,-7.3 10.9,-8 C11.6,-9 12.8,-9.7 14.3,-10 C15.6,-10.3 16.3,-10.5 18.9,-10.5 L19,-10.5 C23,-10.5 24.3,-6.8 25.4,-3 L25.7,-2 C26.5,0.6 26.9,2.8 26.9,4.5 C26.9,5.7 26.7,6.8 26.3,7.6 C25.7,8.7 24.7,9.4 23,9.8 C22.1,10 20.6,10.1 20.6,10.1 C20.1,10.1 19.7,10.2 19.3,10.2 C16.1,10.2 14.1,9 12.7,4.7 C11.5,1 11.3,-0.1 10.4,-4.5"/>
<path class="Note" transform="matrix(2.3811,0,0,2.3811,1065.88,2165.67)" d="M18.7,-13.6 C4.9,-13.6 0,-6.6 0,-0.1 C0,6.4 4.9,13.4 18.7,13.4 C32.5,13.4 37.3,6.4 37.3,-0.1 C37.3,-6.6 32.5,-13.6 18.7,-13.6 M10.4,-4.5 C10.3,-4.9 10.3,-5.3 10.3,-5.7 C10.3,-6.5 10.5,-7.3 10.9,-8 C11.6,-9 12.8,-9.7 14.3,-10 C15.6,-10.3 16.3,-10.5 18.9,-10.5 L19,-10.5 C23,-10.5 24.3,-6.8 25.4,-3 L25.7,-2 C26.5,0.6 26.9,2.8 26.9,4.5 C26.9,5.7 26.7,6.8 26.3,7.6 C25.7,8.7 24.7,9.4 23,9.8 C22.1,10 20.6,10.1 20.6,10.1 C20.1,10.1 19.7,10.2 19.3,10.2 C16.1,10.2 14.1,9 12.7,4.7 C11.5,1 11.3,-0.1 10.4,-4.5"/>
<path class="Note" transform="matrix(2.3811,0,0,2.3811,1549.73,2135.91)" d="M31.5,-8.1 C29.7,-11.4 25.9,-13.2 21.3,-13.2 C17.9,-13.2 14.2,-12.2 10.6,-10.3 C4,-6.8 0,-0.9 0,4.2 C0,5.6 0.3,7 1,8.3 C2.8,11.6 6.6,13.3 11.2,13.3 C14.6,13.3 18.3,12.4 21.9,10.5 C28.5,7 32.5,1.1 32.5,-4 C32.5,-5.4 32.2,-6.8 31.5,-8.1 M27.2,-1.3 C25.5,0.4 22.1,2.5 18.5,4.5 C14.9,6.5 11.3,8 8.9,8.5 C8.4,8.6 7.9,8.7 7.4,8.7 C5.8,8.7 4.6,8.1 3.9,6.8 C3.6,6.3 3.4,5.7 3.4,5.1 C3.4,4 4.1,2.7 5.2,1.6 C6.9,-0.1 10.2,-2.2 13.8,-4.2 C17.4,-6.2 21,-7.7 23.4,-8.2 C23.9,-8.3 24.4,-8.4 24.9,-8.4 C26.5,-8.4 27.8,-7.8 28.5,-6.5 C28.8,-6 28.9,-5.4 28.9,-4.8 C28.9,-3.7 28.3,-2.5 27.2,-1.3"/>
<path class="Note" transform="matrix(2.3811,0,0,2.3811,1766.68,2344.25)" d="M31.5,-8.1 C29.7,-11.4 25.9,-13.2 21.3,-13.2 C17.9,-13.2 14.2,-12.2 10.6,-10.3 C4,-6.8 0,-0.9 0,4.2 C0,5.6 0.3,7 1,8.3 C2.8,11.6 6.6,13.3 11.2,13.3 C14.6,13.3 18.3,12.4 21.9,10.5 C28.5,7 32.5,1.1 32.5,-4 C32.5,-5.4 32.2,-6.8 31.5,-8.1 M27.2,-1.3 C25.5,0.4 22.1,2.5 18.5,4.5 C14.9,6.5 11.3,8 8.9,8.5 C8.4,8.6 7.9,8.7 7.4,8.7 C5.8,8.7 4.6,8.1 3.9,6.8 C3.6,6.3 3.4,5.7 3.4,5.1 C3.4,4 4.1,2.7 5.2,1.6 C6.9,-0.1 10.2,-2.2 13.8,-4.2 C17.4,-6.2 21,-7.7 23.4,-8.2 C23.9,-8.3 24.4,-8.4 24.9,-8.4 C26.5,-8.4 27.8,-7.8 28.5,-6.5 C28.8,-6 28.9,-5.4 28.9,-4.8 C28.9,-3.7 28.3,-2.5 27.2,-1.3"/>
<path class="Note" transform="matrix(2.3811,0,0,2.3811,2092.58,2314.49)" d="M18.7,-13.6 C4.9,-13.6 0,-6.6 0,-0.1 C0,6.4 4.9,13.4 18.7,13.4 C32.5,13.4 37.3,6.4 37.3,-0.1 C37.3,-6.6 32.5,-13.6 18.7,-13.6 M10.4,-4.5 C10.3,-4.9 10.3,-5.3 10.3,-5.7 C10.3,-6.5 10.5,-7.3 10.9,-8 C11.6,-9 12.8,-9.7 14.3,-10 C15.6,-10.3 16.3,-10.5 18.9,-10.5 L19,-10.5 C23,-10.5 24.3,-6.8 25.4,-3 L25.7,-2 C26.5,0.6 26.9,2.8 26.9,4.5 C26.9,5.7 26.7,6.8 26.3,7.6 C25.7,8.7 24.7,9.4 23,9.8 C22.1,10 20.6,10.1 20.6,10.1 C20.1,10.1 19.7,10.2 19.3,10.2 C16.1,10.2 14.1,9 12.7,4.7 C11.5,1 11.3,-0.1 10.4,-4.5"/>
<path class="Note" transform="matrix(2.3811,0,0,2.3811,2513.28,2284.72)" d="M18.7,-13.6 C4.9,-13.6 0,-6.6 0,-0.1 C0,6.4 4.9,13.4 18.7,13.4 C32.5,13.4 37.3,6.4 37.3,-0.1 C37.3,-6.6 32.5,-13.6 18.7,-13.6 M10.4,-4.5 C10.3,-4.9 10.3,-5.3 10.3,-5.7 C10.3,-6.5 10.5,-7.3 10.9,-8 C11.6,-9 12.8,-9.7 14.3,-10 C15.6,-10.3 16.3,-10.5 18.9,-10.5 L19,-10.5 C23,-10.5 24.3,-6.8 25.4,-3 L25.7,-2 C26.5,0.6 26.9,2.8 26.9,4.5 C26.9,5.7 26.7,6.8 26.3,7.6 C25.7,8.7 24.7,9.4 23,9.8 C22.1,10 20.6,10.1 20.6,10.1 C20.1,10.1 19.7,10.2 19.3,10.2 C16.1,10.2 14.1,9 12.7,4.7 C11.5,1 11.3,-0.1 10.4,-4.5"/>
<path class="Note" transform="matrix(2.3811,0,0,2.3811,2900.6,2254.96)" d="M18.7,-13.6 C4.9,-13.6 0,-6.6 0,-0.1 C0,6.4 4.9,13.4 18.7,13.4 C32.5,13.4 37.3,6.4 37.3,-0.1 C37.3,-6.6 32.5,-13.6 18.7,-13.6 M10.4,-4.5 C10.3,-4.9 10.3,-5.3 10.3,-5.7 C10.3,-6.5 10.5,-7.3 10.9,-8 C11.6,-9 12.8,-9.7 14.3,-10 C15.6,-10.3 16.3,-10.5 18.9,-10.5 L19,-10.5 C23,-10.5 24.3,-6.8 25.4,-3 L25.7,-2 C26.5,0.6 26.9,2.8 26.9,4.5 C26.9,5.7 26.7,6.8 26.3,7.6 C25.7,8.7 24.7,9.4 23,9.8 C22.1,10 20.6,10.1 20.6,10.1 C20.1,10.1 19.7,10.2 19.3,10.2 C16.1,10.2 14.1,9 12.7,4.7 C11.5,1 11.3,-0.1 10.4,-4.5"/>
<path class="Note" transform="matrix(2.3811,0,0,2.3811,3305.73,2225.2)" d="M18.7,-13.6 C4.9,-13.6 0,-6.6 0,-0.1 C0,6.4 4.9,13.4 18.7,13.4 C32.5,13.4 37.3,6.4 37.3,-0.1 C37.3,-6.6 32.5,-13.6 18.7,-13.6 M10.4,-4.5 C10.3,-4.9 10.3,-5.3 10.3,-5.7 C10.3,-6.5 10.5,-7.3 10.9,-8 C11.6,-9 12.8,-9.7 14.3,-10 C15.6,-10.3 16.3,-10.5 18.9,-10.5 L19,-10.5 C23,-10.5 24.3,-6.8 25.4,-3 L25.7,-2 C26.5,0.6 26.9,2.8 26.9,4.5 C26.9,5.7 26.7,6.8 26.3,7.6 C25.7,8.7 24.7,9.4 23,9.8 C22.1,10 20.6,10.1 20.6,10.1 C20.1,10.1 19.7,10.2 19.3,10.2 C16.1,10.2 14.1,9 12.7,4.7 C11.5,1 11.3,-0.1 10.4,-4.5"/>
<path class="Note" transform="matrix(2.3811,0,0,2.3811,3783.86,2195.43)" d="M18.7,-13.6 C4.9,-13.6 0,-6.6 0,-0.1 C0,6.4 4.9,13.4 18.7,13.4 C32.5,13.4 37.3,6.4 37.3,-0.1 C37.3,-6.6 32.5,-13.6 18.7,-13.6 M10.4,-4.5 C10.3,-4.9 10.3,-5.3 10.3,-5.7 C10.3,-6.5 10.5,-7.3 10.9,-8 C11.6,-9 12.8,-9.7 14.3,-10 C15.6,-10.3 16.3,-10.5 18.9,-10.5 L19,-10.5 C23,-10.5 24.3,-6.8 25.4,-3 L25.7,-2 C26.5,0.6 26.9,2.8 26.9,4.5 C26.9,5.7 26.7,6.8 26.3,7.6 C25.7,8.7 24.7,9.4 23,9.8 C22.1,10 20.6,10.1 20.6,10.1 C20.1,10.1 19.7,10.2 19.3,10.2 C16.1,10.2 14.1,9 12.7,4.7 C11.5,1 11.3,-0.1 10.4,-4.5"/>
<path class="Note" transform="matrix(2.3811,0,0,2.3811,686.46,1659.69)" d="M18.7,-13.6 C4.9,-13.6 0,-6.6 0,-0.1 C0,6.4 4.9,13.4 18.7,13.4 C32.5,13.4 37.3,6.4 37.3,-0.1 C37.3,-6.6 32.5,-13.6 18.7,-13.6 M10.4,-4.5 C10.3,-4.9 10.3,-5.3 10.3,-5.7 C10.3,-6.5 10.5,-7.3 10.9,-8 C11.6,-9 12.8,-9.7 14.3,-10 C15.6,-10.3 16.3,-10.5 18.9,-10.5 L19,-10.5 C23,-10.5 24.3,-6.8 25.4,-3 L25.7,-2 C26.5,0.6 26.9,2.8 26.9,4.5 C26.9,5.7 26.7,6.8 26.3,7.6 C25.7,8.7 24.7,9.4 23,9.8 C22.1,10 20.6,10.1 20.6,10.1 C20.1,10.1 19.7,10.2 19.3,10.2 C16.1,10.2 14.1,9 12.7,4.7 C11.5,1 11.3,-0.1 10.4,-4.5"/>
<path class="Note" transform="matrix(2.3811,0,0,2.3811,686.46,1600.16)" d="M18.7,-13.6 C4.9,-13.6 0,-6.6 0,-0.1 C0,6.4 4.9,13.4 18.7,13.4 C32.5,13.4 37.3,6.4 37.3,-0.1 C37.3,-6.6 32.5,-13.6 18.7,-13.6 M10.4,-4.5 C10.3,-4.9 10.3,-5.3 10.3,-5.7 C10.3,-6.5 10.5,-7.3 10.9,-8 C11.6,-9 12.8,-9.7 14.3,-10 C15.6,-10.3 16.3,-10.5 18.9,-10.5 L19,-10.5 C23,-10.5 24.3,-6.8 25.4,-3 L25.7,-2 C26.5,0.6 26.9,2.8 26.9,4.5 C26.9,5.7 26.7,6.8 26.3,7.6 C25.7,8.7 24.7,9.4 23,9.8 C22.1,10 20.6,10.1 20.6,10.1 C20.1,10.1 19.7,10.2 19.3,10.2 C16.1,10.2 14.1,9 12.7,4.7 C11.5,1 11.3,-0.1 10.4,-4.5"/>
<path class="Note" transform="matrix(2.3811,0,0,2.3811,686.46,1510.87)" d="M18.7,-13.6 C4.9,-13.6 0,-6.6 0,-0.1 C0,6.4 4.9,13.4 18.7,13.4 C32.5,13.4 37.3,6.4 37.3,-0.1 C37.3,-6.6 32.5,-13.6 18.7,-13.6 M10.4,-4.5 C10.3,-4.9 10.3,-5.3 10.3,-5.7 C10.3,-6.5 10.5,-7.3 10.9,-8 C11.6,-9 12.8,-9.7 14.3,-10 C15.6,-10.3 16.3,-10.5 18.9,-10.5 L19,-10.5 C23,-10.5 24.3,-6.8 25.4,-3 L25.7,-2 C26.5,0.6 26.9,2.8 26.9,4.5 C26.9,5.7 26.7,6.8 26.3,7.6 C25.7,8.7 24.7,9.4 23,9.8 C22.1,10 20.6,10.1 20.6,10.1 C20.1,10.1 19.7,10.2 19.3,10.2 C16.1,10.2 14.1,9 12.7,4.7 C11.5,1 11.3,-0.1 10.4,-4.5"/>
<path class="Note" transform="matrix(2.3811,0,0,2.3811,1065.88,1629.92)" d="M18.7,-13.6 C4.9,-13.6 0,-6.6 0,-0.1 C0,6.4 4.9,13.4 18.7,13.4 C32.5,13.4 37.3,6.4 37.3,-0.1 C37.3,-6.6 32.5,-13.6 18.7,-13.6 M10.4,-4.5 C10.3,-4.9 10.3,-5.3 10.3,-5.7 C10.3,-6.5 10.5,-7.3 10.9,-8 C11.6,-9 12.8,-9.7 14.3,-10 C15.6,-10.3 16.3,-10.5 18.9,-10.5 L19,-10.5 C23,-10.5 24.3,-6.8 25.4,-3 L25.7,-2 C26.5,0.6 26.9,2.8 26.9,4.5 C26.9,5.7 26.7,6.8 26.3,7.6 C25.7,8.7 24.7,9.4 23,9.8 C22.1,10 20.6,10.1 20.6,10.1 C20.1,10.1 19.7,10.2 19.3,10.2 C16.1,10.2 14.1,9 12.7,4.7 C11.5,1 11.3,-0.1 10.4,-4.5"/>
<path class="Note" transform="matrix(2.3811,0,0,2.3811,1148.14,1600.16)" d="M18.7,-13.6 C4.9,-13.6 0,-6.6 0,-0.1 C0,6.4 4.9,13.4 18.7,13.4 C32.5,13.4 37.3,6.4 37.3,-0.1 C37.3,-6.6 32.5,-13.6 18.7,-13.6 M10.4,-4.5 C10.3,-4.9 10.3,-5.3 10.3,-5.7 C10.3,-6.5 10.5,-7.3 10.9,-8 C11.6,-9 12.8,-9.7 14.3,-10 C15.6,-10.3 16.3,-10.5 18.9,-10.5 L19,-10.5 C23,-10.5 24.3,-6.8 25.4,-3 L25.7,-2 C26.5,0.6 26.9,2.8 26.9,4.5 C26.9,5.7 26.7,6.8 26.3,7.6 C25.7,8.7 24.7,9.4 23,9.8 C22.1,10 20.6,10.1 20.6,10.1 C20.1,10.1 19.7,10.2 19.3,10.2 C16.1,10.2 14.1,9 12.7,4.7 C11.5,1 11.3,-0.1 10.4,-4.5"/>
<path class="Note" transform="matrix(2.3811,0,0,2.3811,1065.88,1540.63)" d="M18.7,-13.6 C4.9,-13.6 0,-6.6 0,-0.1 C0,6.4 4.9,13.4 18.7,13.4 C32.5,13.4 37.3,6.4 37.3,-0.1 C37.3,-6.6 32.5,-13.6 18.7,-13.6 M10.4,-4.5 C10.3,-4.9 10.3,-5.3 10.3,-5.7 C10.3,-6.5 10.5,-7.3 10.9,-8 C11.6,-9 12.8,-9.7 14.3,-10 C15.6,-10.3 16.3,-10.5 18.9,-10.5 L19,-10.5 C23,-10.5 24.3,-6.8 25.4,-3 L25.7,-2 C26.5,0.6 26.9,2.8 26.9,4.5 C26.9,5.7 26.7,6.8 26.3,7.6 C25.7,8.7 24.7,9.4 23,9.8 C22.1,10 20.6,10.1 20.6,10.1 C20.1,10.1 19.7,10.2 19.3,10.2 C16.1,10.2 14.1,9 12.7,4.7 C11.5,1 11.3,-0.1 10.4,-4.5"/>
<path class="Note" transform="matrix(2.3811,0,0,2.3811,1544.01,1659.69)" d="M18.7,-13.6 C4.9,-13.6 0,-6.6 0,-0.1 C0,6.4 4.9,13.4 18.7,13.4 C32.5,13.4 37.3,6.4 37.3,-0.1 C37.3,-6.6 32.5,-13.6 18.7,-13.6 M10.4,-4.5 C10.3,-4.9 10.3,-5.3 10.3,-5.7 C10.3,-6.5 10.5,-7.3 10.9,-8 C11.6,-9 12.8,-9.7 14.3,-10 C15.6,-10.3 16.3,-10.5 18.9,-10.5 L19,-10.5 C23,-10.5 24.3,-6.8 25.4,-3 L25.7,-2 C26.5,0.6 26.9,2.8 26.9,4.5 C26.9,5.7 26.7,6.8 26.3,7.6 C25.7,8.7 24.7,9.4 23,9.8 C22.1,10 20.6,10.1 20.6,10.1 C20.1,10.1 19.7,10.2 19.3,10.2 C16.1,10.2 14.1,9 12.7,4.7 C11.5,1 11.3,-0.1 10.4,-4.5"/>
<path class="Note" transform="matrix(2.3811,0,0,2.3811,1544.01,1600.16)" d="M18.7,-13.6 C4.9,-13.6 0,-6.6 0,-0.1 C0,6.4 4.9,13.4 18.7,13.4 C32.5,13.4 37.3,6.4 37.3,-0.1 C37.3,-6.6 32.5,-13.6 18.7,-13.6 M10.4,-4.5 C10.3,-4.9 10.3,-5.3 10.3,-5.7 C10.3,-6.5 10.5,-7.3 10.9,-8 C11.6,-9 12.8,-9.7 14.3,-10 C15.6,-10.3 16.3,-10.5 18.9,-10.5 L19,-10.5 C23,-10.5 24.3,-6.8 25.4,-3 L25.7,-2 C26.5,0.6 26.9,2.8 26.9,4.5 C26.9,5.7 26.7,6.8 26.3,7.6 C25.7,8.7 24.7,9.4 23,9.8 C22.1,10 20.6,10.1 20.6,10.1 C20.1,10.1 19.7,10.2 19.3,10.2 C16.1,10.2 14.1,9 12.7,4.7 C11.5,1 11.3,-0.1 10.4,-4.5"/>
<path class="Note" transform="matrix(2.3811,0,0,2.3811,1544.01,1510.87)" d="M18.7,-13.6 C4.9,-13.6 0,-6.6 0,-0.1 C0,6.4 4.9,13.4 18.7,13.4 C32.5,13.4 37.3,6.4 37.3,-0.1 C37.3,-6.6 32.5,-13.6 18.7,-13.6 M10.4,-4.5 C10.3,-4.9 10.3,-5.3 10.3,-5.7 C10.3,-6.5 10.5,-7.3 10.9,-8 C11.6,-9 12.8,-9.7 14.3,-10 C15.6,-10.3 16.3,-10.5 18.9,-10.5 L19,-10.5 C23,-10.5 24.3,-6.8 25.4,-3 L25.7,-2 C26.5,0.6 26.9,2.8 26.9,4.5 C26.9,5.7 26.7,6.8 26.3,7.6 C25.7,8.7 24.7,9.4 23,9.8 C22.1,10 20.6,10.1 20.6,10.1 C20.1,10.1 19.7,10.2 19.3,10.2 C16.1,10.2 14.1,9 12.7,4.7 C11.5,1 11.3,-0.1 10.4,-4.5"/>
<path class="Note" transform="matrix(2.3811,0,0,2.3811,2092.58,1689.45)" d="M18.7,-13.6 C4.9,-13.6 0,-6.6 0,-0.1 C0,6.4 4.9,13.4 18.7,13.4 C32.5,13.4 37.3,6.4 37.3,-0.1 C37.3,-6.6 32.5,-13.6 18.7,-13.6 M10.4,-4.5 C10.3,-4.9 10.3,-5.3 10.3,-5.7 C10.3,-6.5 10.5,-7.3 10.9,-8 C11.6,-9 12.8,-9.7 14.3,-10 C15.6,-10.3 16.3,-10.5 18.9,-10.5 L19,-10.5 C23,-10.5 24.3,-6.8 25.4,-3 L25.7,-2 C26.5,0.6 26.9,2.8 26.9,4.5 C26.9,5.7 26.7,6.8 26.3,7.6 C25.7,8.7 24.7,9.4 23,9.8 C22.1,10 20.6,10.1 20.6,10.1 C20.1,10.1 19.7,10.2 19.3,10.2 C16.1,10.2 14.1,9 12.7,4.7 C11.5,1 11.3,-0.1 10.4,-4.5"/>
<path class="Note" transform="matrix(2.3811,0,0,2.3811,2092.58,1570.39)" d="M18.7,-13.6 C4.9,-13.6 0,-6.6 0,-0.1 C0,6.4 4.9,13.4 18.7,13.4 C32.5,13.4 37.3,6.4 37.3,-0.1 C37.3,-6.6 32.5,-13.6 18.7,-13.6 M10.4,-4.5 C10.3,-4.9 10.3,-5.3 10.3,-5.7 C10.3,-6.5 10.5,-7.3 10.9,-8 C11.6,-9 12.8,-9.7 14.3,-10 C15.6,-10.3 16.3,-10.5 18.9,-10.5 L19,-10.5 C23,-10.5 24.3,-6.8 25.4,-3 L25.7,-2 C26.5,0.6 26.9,2.8 26.9,4.5 C26.9,5.7 26.7,6.8 26.3,7.6 C25.7,8.7 24.7,9.4 23,9.8 C22.1,10 20.6,10.1 20.6,10.1 C20.1,10.1 19.7,10.2 19.3,10.2 C16.1,10.2 14.1,9 12.7,4.7 C11.5,1 11.3,-0.1 10.4,-4.5"/>
<path class="Note" transform="matrix(2.3811,0,0,2.3811,2092.58,1510.87)" d="M18.7,-13.6 C4.9,-13.6 0,-6.6 0,-0.1 C0,6.4 4.9,13.4 18.7,13.4 C32.5,13.4 37.3,6.4 37.3,-0.1 C37.3,-6.6 32.5,-13.6 18.7,-13.6 M10.4,-4.5 C10.3,-4.9 10.3,-5.3 10.3,-5.7 C10.3,-6.5 10.5,-7.3 10.9,-8 C11.6,-9 12.8,-9.7 14.3,-10 C15.6,-10.3 16.3,-10.5 18.9,-10.5 L19,-10.5 C23,-10.5 24.3,-6.8 25.4,-3 L25.7,-2 C26.5,0.6 26.9,2.8 26.9,4.5 C26.9,5.7 26.7,6.8 26.3,7.6 C25.7,8.7 24.7,9.4 23,9.8 C22.1,10 20.6,10.1 20.6,10.1 C20.1,10.1 19.7,10.2 19.3,10.2 C16.1,10.2 14.1,9 12.7,4.7 C11.5,1 11.3,-0.1 10.4,-4.5"/>
<path class="Note" transform="matrix(2.3811,0,0,2.3811,2513.28,1689.45)" d="M18.7,-13.6 C4.9,-13.6 0,-6.6 0,-0.1 C0,6.4 4.9,13.4 18.7,13.4 C32.5,13.4 37.3,6.4 37.3,-0.1 C37.3,-6.6 32.5,-13.6 18.7,-13.6 M10.4,-4.5 C10.3,-4.9 10.3,-5.3 10.3,-5.7 C10.3,-6.5 10.5,-7.3 10.9,-8 C11.6,-9 12.8,-9.7 14.3,-10 C15.6,-10.3 16.3,-10.5 18.9,-10.5 L19,-10.5 C23,-10.5 24.3,-6.8 25.4,-3 L25.7,-2 C26.5,0.6 26.9,2.8 26.9,4.5 C26.9,5.7 26.7,6.8 26.3,7.6 C25.7,8.7 24.7,9.4 23,9.8 C22.1,10 20.6,10.1 20.6,10.1 C20.1,10.1 19.7,10.2 19.3,10.2 C16.1,10.2 14.1,9 12.7,4.7 C11.5,1 11.3,-0.1 10.4,-4.5"/>
<path class="Note" transform="matrix(2.3811,0,0,2.3811,2513.28,1600.16)" d="M18.7,-13.6 C4.9,-13.6 0,-6.6 0,-0.1 C0,6.4 4.9,13.4 18.7,13.4 C32.5,13.4 37.3,6.4 37.3,-0.1 C37.3,-6.6 32.5,-13.6 18.7,-13.6 M10.4,-4.5 C10.3,-4.9 10.3,-5.3 10.3,-5.7 C10.3,-6.5 10.5,-7.3 10.9,-8 C11.6,-9 12.8,-9.7 14.3,-10 C15.6,-10.3 16.3,-10.5 18.9,-10.5 L19,-10.5 C23,-10.5 24.3,-6.8 25.4,-3 L25.7,-2 C26.5,0.6 26.9,2.8 26.9,4.5 C26.9,5.7 26.7,6.8 26.3,7.6 C25.7,8.7 24.7,9.4 23,9.8 C22.1,10 20.6,10.1 20.6,10.1 C20.1,10.1 19.7,10.2 19.3,10.2 C16.1,10.2 14.1,9 12.7,4.7 C11.5,1 11.3,-0.1 10.4,-4.5"/>
<path class="Note" transform="matrix(2.3811,0,0,2.3811,2513.28,1540.63)" d="M18.7,-13.6 C4.9,-13.6 0,-6.6 0,-0.1 C0,6.4 4.9,13.4 18.7,13.4 C32.5,13.4 37.3,6.4 37.3,-0.1 C37.3,-6.6 32.5,-13.6 18.7,-13.6 M10.4,-4.5 C10.3,-4.9 10.3,-5.3 10.3,-5.7 C10.3,-6.5 10.5,-7.3 10.9,-8 C11.6,-9 12.8,-9.7 14.3,-10 C15.6,-10.3 16.3,-10.5 18.9,-10.5 L19,-10.5 C23,-10.5 24.3,-6.8 25.4,-3 L25.7,-2 C26.5,0.6 26.9,2.8 26.9,4.5 C26.9,5.7 26.7,6.8 26.3,7.6 C25.7,8.7 24.7,9.4 23,9.8 C22.1,10 20.6,10.1 20.6,10.1 C20.1,10.1 19.7,10.2 19.3,10.2 C16.1,10.2 14.1,9 12.7,4.7 C11.5,1 11.3,-0.1 10.4,-4.5"/>
<path class="Note" transform="matrix(2.3811,0,0,2.3811,2900.6,1629.92)" d="M18.7,-13.6 C4.9,-13.6 0,-6.6 0,-0.1 C0,6.4 4.9,13.4 18.7,13.4 C32.5,13.4 37.3,6.4 37.3,-0.1 C37.3,-6.6 32.5,-13.6 18.7,-13.6 M10.4,-4.5 C10.3,-4.9 10.3,-5.3 10.3,-5.7 C10.3,-6.5 10.5,-7.3 10.9,-8 C11.6,-9 12.8,-9.7 14.3,-10 C15.6,-10.3 16.3,-10.5 18.9,-10.5 L19,-10.5 C23,-10.5 24.3,-6.8 25.4,-3 L25.7,-2 C26.5,0.6 26.9,2.8 26.9,4.5 C26.9,5.7 26.7,6.8 26.3,7.6 C25.7,8.7 24.7,9.4 23,9.8 C22.1,10 20.6,10.1 20.6,10.1 C20.1,10.1 19.7,10.2 19.3,10.2 C16.1,10.2 14.1,9 12.7,4.7 C11.5,1 11.3,-0.1 10.4,-4.5"/>
<path class="Note" transform="matrix(2.3811,0,0,2.3811,2900.6,1510.87)" d="M18.7,-13.6 C4.9,-13.6 0,-6.6 0,-0.1 C0,6.4 4.9,13.4 18.7,13.4 C32.5,13.4 37.3,6.4 37.3,-0.1 C37.3,-6.6 32.5,-13.6 18.7,-13.6 M10.4,-4.5 C10.3,-4.9 10.3,-5.3 10.3,-5.7 C10.3,-6.5 10.5,-7.3 10.9,-8 C11.6,-9 12.8,-9.7 14.3,-10 C15.6,-10.3 16.3,-10.5 18.9,-10.5 L19,-10.5 C23,-10.5 24.3,-6.8 25.4,-3 L25.7,-2 C26.5,0.6 26.9,2.8 26.9,4.5 C26.9,5.7 26.7,6.8 26.3,7.6 C25.7,8.7 24.7,9.4 23,9.8 C22.1,10 20.6,10.1 20.6,10.1 C20.1,10.1 19.7,10.2 19.3,10.2 C16.1,10.2 14.1,9 12.7,4.7 C11.5,1 11.3,-0.1 10.4,-4.5"/>
<path class="Note" transform="matrix(2.3811,0,0,2.3811,3305.73,1629.92)" d="M18.7,-13.6 C4.9,-13.6 0,-6.6 0,-0.1 C0,6.4 4.9,13.4 18.7,13.4 C32.5,13.4 37.3,6.4 37.3,-0.1 C37.3,-6.6 32.5,-13.6 18.7,-13.6 M10.4,-4.5 C10.3,-4.9 10.3,-5.3 10.3,-5.7 C10.3,-6.5 10.5,-7.3 10.9,-8 C11.6,-9 12.8,-9.7 14.3,-10 C15.6,-10.3 16.3,-10.5 18.9,-10.5 L19,-10.5 C23,-10.5 24.3,-6.8 25.4,-3 L25.7,-2 C26.5,0.6 26.9,2.8 26.9,4.5 C26.9,5.7 26.7,6.8 26.3,7.6 C25.7,8.7 24.7,9.4 23,9.8 C22.1,10 20.6,10.1 20.6,10.1 C20.1,10.1 19.7,10.2 19.3,10.2 C16.1,10.2 14.1,9 12.7,4.7 C11.5,1 11.3,-0.1 10.4,-4.5"/>
<path class="Note" transform="matrix(2.3811,0,0,2.3811,3387.99,1600.16)" d="M18.7,-13.6 C4.9,-13.6 0,-6.6 0,-0.1 C0,6.4 4.9,13.4 18.7,13.4 C32.5,13.4 37.3,6.4 37.3,-0.1 C37.3,-6.6 32.5,-13.6 18.7,-13.6 M10.4,-4.5 C10.3,-4.9 10.3,-5.3 10.3,-5.7 C10.3,-6.5 10.5,-7.3 10.9,-8 C11.6,-9 12.8,-9.7 14.3,-10 C15.6,-10.3 16.3,-10.5 18.9,-10.5 L19,-10.5 C23,-10.5 24.3,-6.8 25.4,-3 L25.7,-2 C26.5,0.6 26.9,2.8 26.9,4.5 C26.9,5.7 26.7,6.8 26.3,7.6 C25.7,8.7 24.7,9.4 23,9.8 C22.1,10 20.6,10.1 20.6,10.1 C20.1,10.1 19.7,10.2 19.3,10.2 C16.1,10.2 14.1,9 12.7,4.7 C11.5,1 11.3,-0.1 10.4,-4.5"/>
<path class="Note" transform="matrix(2.3811,0,0,2.3811,3305.73,1481.1)" d="M18.7,-13.6 C4.9,-13.6 0,-6.6 0,-0.1 C0,6.4 4.9,13.4 18.7,13.4 C32.5,13.4 37.3,6.4 37.3,-0.1 C37.3,-6.6 32.5,-13.6 18.7,-13.6 M10.4,-4.5 C10.3,-4.9 10.3,-5.3 10.3,-5.7 C10.3,-6.5 10.5,-7.3 10.9,-8 C11.6,-9 12.8,-9.7 14.3,-10 C15.6,-10.3 16.3,-10.5 18.9,-10.5 L19,-10.5 C23,-10.5 24.3,-6.8 25.4,-3 L25.7,-2 C26.5,0.6 26.9,2.8 26.9,4.5 C26.9,5.7 26.7,6.8 26.3,7.6 C25.7,8.7 24.7,9.4 23,9.8 C22.1,10 20.6,10.1 20.6,10.1 C20.1,10.1 19.7,10.2 19.3,10.2 C16.1,10.2 14.1,9 12.7,4.7 C11.5,1 11.3,-0.1 10.4,-4.5"/>
<path class="Note" transform="matrix(2.3811,0,0,2.3811,3783.86,1659.69)" d="M18.7,-13.6 C4.9,-13.6 0,-6.6 0,-0.1 C0,6.4 4.9,13.4 18.7,13.4 C32.5,13.4 37.3,6.4 37.3,-0.1 C37.3,-6.6 32.5,-13.6 18.7,-13.6 M10.4,-4.5 C10.3,-4.9 10.3,-5.3 10.3,-5.7 C10.3,-6.5 10.5,-7.3 10.9,-8 C11.6,-9 12.8,-9.7 14.3,-10 C15.6,-10.3 16.3,-10.5 18.9,-10.5 L19,-10.5 C23,-10.5 24.3,-6.8 25.4,-3 L25.7,-2 C26.5,0.6 26.9,2.8 26.9,4.5 C26.9,5.7 26.7,6.8 26.3,7.6 C25.7,8.7 24.7,9.4 23,9.8 C22.1,10 20.6,10.1 20.6,10.1 C20.1,10.1 19.7,10.2 19.3,10.2 C16.1,10.2 14.1,9 12.7,4.7 C11.5,1 11.3,-0.1 10.4,-4.5"/>
<path class="Note" transform="matrix(2.3811,0,0,2.3811,3783.86,1600.16)" d="M18.7,-13.6 C4.9,-13.6 0,-6.6 0,-0.1 C0,6.4 4.9,13.4 18.7,13.4 C32.5,13.4 37.3,6.4 37.3,-0.1 C37.3,-6.6 32.5,-13.6 18.7,-13.6 M10.4,-4.5 C10.3,-4.9 10.3,-5.3 10.3,-5.7 C10.3,-6.5 10.5,-7.3 10.9,-8 C11.6,-9 12.8,-9.7 14.3,-10 C15.6,-10.3 16.3,-10.5 18.9,-10.5 L19,-10.5 C23,-10.5 24.3,-6.8 25.4,-3 L25.7,-2 C26.5,0.6 26.9,2.8 26.9,4.5 C26.9,5.7 26.7,6.8 26.3,7.6 C25.7,8.7 24.7,9.4 23,9.8 C22.1,10 20.6,10.1 20.6,10.1 C20.1,10.1 19.7,10.2 19.3,10.2 C16.1,10.2 14.1,9 12.7,4.7 C11.5,1 11.3,-0.1 10.4,-4.5"/>
<path class="Note" transform="matrix(2.3811,0,0,2.3811,3783.86,1510.87)" d="M18.7,-13.6 C4.9,-13.6 0,-6.6 0,-0.1 C0,6.4 4.9,13.4 18.7,13.4 C32.5,13.4 37.3,6.4 37.3,-0.1 C37.3,-6.6 32.5,-13.6 18.7,-13.6 M10.4,-4.5 C10.3,-4.9 10.3,-5.3 10.3,-5.7 C10.3,-6.5 10.5,-7.3 10.9,-8 C11.6,-9 12.8,-9.7 14.3,-10 C15.6,-10.3 16.3,-10.5 18.9,-10.5 L19,-10.5 C23,-10.5 24.3,-6.8 25.4,-3 L25.7,-2 C26.5,0.6 26.9,2.8 26.9,4.5 C26.9,5.7 26.7,6.8 26.3,7.6 C25.7,8.7 24.7,9.4 23,9.8 C22.1,10 20.6,10.1 20.6,10.1 C20.1,10.1 19.7,10.2 19.3,10.2 C16.1,10.2 14.1,9 12.7,4.7 C11.5,1 11.3,-0.1 10.4,-4.5"/>
<path class="Note" d="M772.368,938.225 C782.827,931.639 790.42,926.255 795.146,922.071 C803.823,914.401 808.161,906.654 808.161,898.829 C808.161,889.687 802.041,885.116 789.8,885.116 C776.939,885.116 763.536,894.374 749.591,912.891 C740.139,925.442 733.438,937.295 729.486,948.451 C734.367,945.275 739.519,943.687 744.943,943.687 C750.056,943.687 754.123,945.972 757.145,950.543 C759.236,953.72 760.282,959.143 760.282,966.813 C760.282,973.708 756.641,981.804 749.359,991.101 C744.865,996.834 739.868,999.7 734.367,999.7 C727.395,999.7 722.514,998.306 719.725,995.517 C715.774,991.566 713.798,983.741 713.798,972.042 C713.798,952.364 721.739,932.995 737.621,913.937 C755.518,892.476 772.678,881.746 789.103,881.746 C801.808,881.746 811.299,884.729 817.574,890.694 C821.216,894.181 823.036,899.217 823.036,905.802 C823.036,913.162 815.792,921.374 801.305,930.439 C793.712,935.242 784.067,937.837 772.368,938.225 M727.976,953.332 C726.039,959.84 725.07,966.077 725.07,972.042 C725.07,986.22 727.317,993.309 731.811,993.309 C736.072,993.309 739.403,990.287 741.805,984.244 C744.594,977.427 745.988,969.873 745.988,961.583 C745.988,954.223 743.548,950.543 738.667,950.543 C735.258,950.543 731.695,951.473 727.976,953.332"/>
<path class="Note" d="M765.279,851.839 C769.85,851.839 772.136,854.705 772.136,860.438 C772.136,864.467 769.618,870.471 764.582,878.451 C760.554,884.881 758.539,891.157 758.539,897.277 C758.539,900.763 763.614,902.507 773.763,902.507 C782.13,902.507 793.79,897.974 808.742,888.91 C793.712,903.398 780.658,910.641 769.579,910.641 C759.585,910.641 752.612,909.131 748.661,906.109 C747.654,905.334 746.802,904.405 746.105,903.32 C742.231,908.046 735.762,910.409 726.697,910.409 C718.02,910.409 711.358,908.627 706.709,905.063 C703.61,902.662 702.061,898.827 702.061,893.558 C702.061,885.191 707.019,876.049 716.936,866.133 C727.55,855.519 739.829,850.212 753.775,850.212 C757.261,850.212 759.818,851.49 761.445,854.047 C762.762,852.575 764.04,851.839 765.279,851.839 M744.478,898.091 C744.4,897.471 744.361,896.851 744.361,896.231 C744.361,895.921 748.313,885.114 756.215,863.808 C756.99,861.717 757.764,859.935 758.539,858.463 C755.518,857.843 752.535,857.533 749.591,857.533 C744.168,857.533 736.963,862.143 727.976,871.362 C719.918,879.574 715.89,886.663 715.89,892.629 C715.89,899.214 719.028,902.507 725.303,902.507 C732.895,902.507 739.287,901.035 744.478,898.091"/>
<path class="Note" d="M772.368,581.059 C782.827,574.474 790.42,569.09 795.146,564.906 C803.823,557.236 808.161,549.489 808.161,541.664 C808.161,532.522 802.041,527.951 789.8,527.951 C776.939,527.951 763.536,537.209 749.591,555.725 C740.139,568.276 733.438,580.13 729.486,591.286 C734.367,588.11 739.519,586.521 744.943,586.521 C750.056,586.521 754.123,588.807 757.145,593.378 C759.236,596.554 760.282,601.977 760.282,609.647 C760.282,616.542 756.641,624.638 749.359,633.935 C744.865,639.668 739.868,642.535 734.367,642.535 C727.395,642.535 722.514,641.14 719.725,638.351 C715.774,634.4 713.798,626.575 713.798,614.877 C713.798,595.198 721.739,575.83 737.621,556.771 C755.518,535.311 772.678,524.581 789.103,524.581 C801.808,524.581 811.299,527.564 817.574,533.529 C821.216,537.015 823.036,542.051 823.036,548.637 C823.036,555.997 815.792,564.209 801.305,573.273 C793.712,578.077 784.067,580.672 772.368,581.059 M727.976,596.167 C726.039,602.675 725.07,608.911 725.07,614.877 C725.07,629.055 727.317,636.143 731.811,636.143 C736.072,636.143 739.403,633.122 741.805,627.079 C744.594,620.261 745.988,612.707 745.988,604.418 C745.988,597.058 743.548,593.378 738.667,593.378 C735.258,593.378 731.695,594.307 727.976,596.167"/>
<path class="Note" d="M772.368,491.768 C782.827,485.183 790.42,479.798 795.146,475.615 C803.823,467.945 808.161,460.197 808.161,452.373 C808.161,443.231 802.041,438.66 789.8,438.66 C776.939,438.66 763.536,447.918 749.591,466.434 C740.139,478.985 733.438,490.838 729.486,501.995 C734.367,498.818 739.519,497.23 744.943,497.23 C750.056,497.23 754.123,499.515 757.145,504.086 C759.236,507.263 760.282,512.686 760.282,520.356 C760.282,527.251 756.641,535.347 749.359,544.644 C744.865,550.377 739.868,553.244 734.367,553.244 C727.395,553.244 722.514,551.849 719.725,549.06 C715.774,545.109 713.798,537.284 713.798,525.585 C713.798,505.907 721.739,486.539 737.621,467.48 C755.518,446.02 772.678,435.29 789.103,435.29 C801.808,435.29 811.299,438.272 817.574,444.238 C821.216,447.724 823.036,452.76 823.036,459.345 C823.036,466.705 815.792,474.917 801.305,483.982 C793.712,488.785 784.067,491.381 772.368,491.768 M727.976,506.875 C726.039,513.383 725.07,519.62 725.07,525.585 C725.07,539.763 727.317,546.852 731.811,546.852 C736.072,546.852 739.403,543.831 741.805,537.788 C744.594,530.97 745.988,523.416 745.988,515.126 C745.988,507.766 743.548,504.086 738.667,504.086 C735.258,504.086 731.695,505.016 727.976,506.875"/>
<path class="Note" d="M1033.61,945.081 C1033.92,933.383 1040.39,923.001 1053.02,913.937 C1064.25,905.879 1076.53,901.851 1089.86,901.851 C1108.53,901.851 1124.99,909.172 1139.25,923.815 C1148.31,933.189 1152.84,944.81 1152.84,958.678 C1152.84,971.151 1149.51,980.719 1142.85,987.382 C1134.71,995.594 1126.11,999.7 1117.05,999.7 C1110.85,999.7 1106.05,998.306 1102.64,995.517 C1097.06,990.946 1094.27,984.825 1094.27,977.155 C1094.27,967.239 1099.23,958.174 1109.15,949.962 C1117.28,943.222 1125.45,938.806 1133.67,936.714 C1131.5,932.995 1128.75,929.509 1125.42,926.255 C1115.03,916.106 1103.26,911.031 1090.09,911.031 C1076.38,911.031 1065.03,914.014 1056.04,919.98 C1046.74,926.1 1039.27,934.467 1033.61,945.081 M1136.57,942.873 C1132.31,946.824 1128.05,951.047 1123.79,955.54 C1115.42,964.372 1111.24,972.739 1111.24,980.642 C1111.24,989.086 1113.18,993.309 1117.05,993.309 C1120.54,993.309 1125.42,988.544 1131.69,979.015 C1136.73,971.422 1139.25,964.45 1139.25,958.097 C1139.25,952.674 1138.35,947.599 1136.57,942.873"/>
<path class="Note" d="M1151.79,848.933 C1162.25,842.348 1169.84,836.964 1174.56,832.78 C1183.24,825.11 1187.58,817.363 1187.58,809.538 C1187.58,800.396 1181.46,795.825 1169.22,795.825 C1156.36,795.825 1142.95,805.083 1129.01,823.599 C1119.56,836.15 1112.86,848.004 1108.91,859.16 C1113.79,855.984 1118.94,854.395 1124.36,854.395 C1129.47,854.395 1133.54,856.681 1136.56,861.252 C1138.66,864.428 1139.7,869.851 1139.7,877.521 C1139.7,884.416 1136.06,892.513 1128.78,901.809 C1124.28,907.542 1119.29,910.409 1113.79,910.409 C1106.81,910.409 1101.93,909.014 1099.14,906.225 C1095.19,902.274 1093.22,894.449 1093.22,882.751 C1093.22,863.072 1101.16,843.704 1117.04,824.645 C1134.94,803.185 1152.1,792.455 1168.52,792.455 C1181.23,792.455 1190.72,795.438 1196.99,801.403 C1200.63,804.889 1202.45,809.925 1202.45,816.511 C1202.45,823.871 1195.21,832.083 1180.72,841.147 C1173.13,845.951 1163.49,848.546 1151.79,848.933 M1107.39,864.041 C1105.46,870.549 1104.49,876.785 1104.49,882.751 C1104.49,896.929 1106.74,904.017 1111.23,904.017 C1115.49,904.017 1118.82,900.996 1121.22,894.953 C1124.01,888.135 1125.41,880.582 1125.41,872.292 C1125.41,864.932 1122.97,861.252 1118.09,861.252 C1114.68,861.252 1111.11,862.181 1107.39,864.041"/>
<path class="Note" d="M1151.79,581.059 C1162.25,574.474 1169.84,569.09 1174.56,564.906 C1183.24,557.236 1187.58,549.489 1187.58,541.664 C1187.58,532.522 1181.46,527.951 1169.22,527.951 C1156.36,527.951 1142.95,537.209 1129.01,555.725 C1119.56,568.276 1112.86,580.13 1108.91,591.286 C1113.79,588.11 1118.94,586.521 1124.36,586.521 C1129.47,586.521 1133.54,588.807 1136.56,593.378 C1138.66,596.554 1139.7,601.977 1139.7,609.647 C1139.7,616.542 1136.06,624.638 1128.78,633.935 C1124.28,639.668 1119.29,642.535 1113.79,642.535 C1106.81,642.535 1101.93,641.14 1099.14,638.351 C1095.19,634.4 1093.22,626.575 1093.22,614.877 C1093.22,595.198 1101.16,575.83 1117.04,556.771 C1134.94,535.311 1152.1,524.581 1168.52,524.581 C1181.23,524.581 1190.72,527.564 1196.99,533.529 C1200.63,537.015 1202.45,542.051 1202.45,548.637 C1202.45,555.997 1195.21,564.209 1180.72,573.273 C1173.13,578.077 1163.49,580.672 1151.79,581.059 M1107.39,596.167 C1105.46,602.675 1104.49,608.911 1104.49,614.877 C1104.49,629.055 1106.74,636.143 1111.23,636.143 C1115.49,636.143 1118.82,633.122 1121.22,627.079 C1124.01,620.261 1125.41,612.707 1125.41,604.418 C1125.41,597.058 1122.97,593.378 1118.09,593.378 C1114.68,593.378 1111.11,594.307 1107.39,596.167"/>
<path class="Note" d="M1144.7,494.673 C1149.27,494.673 1151.55,497.54 1151.55,503.273 C1151.55,507.302 1149.04,513.306 1144,521.286 C1139.97,527.716 1137.96,533.991 1137.96,540.112 C1137.96,543.598 1143.03,545.341 1153.18,545.341 C1161.55,545.341 1173.21,540.809 1188.16,531.745 C1173.13,546.232 1160.08,553.476 1149,553.476 C1139,553.476 1132.03,551.965 1128.08,548.944 C1127.07,548.169 1126.22,547.239 1125.52,546.155 C1121.65,550.881 1115.18,553.244 1106.12,553.244 C1097.44,553.244 1090.78,551.462 1086.13,547.898 C1083.03,545.496 1081.48,541.661 1081.48,536.393 C1081.48,528.026 1086.44,518.884 1096.35,508.967 C1106.97,498.353 1119.25,493.046 1133.19,493.046 C1136.68,493.046 1139.24,494.325 1140.86,496.881 C1142.18,495.409 1143.46,494.673 1144.7,494.673 M1123.9,540.925 C1123.82,540.305 1123.78,539.686 1123.78,539.066 C1123.78,538.756 1127.73,527.948 1135.63,506.643 C1136.41,504.551 1137.18,502.769 1137.96,501.297 C1134.94,500.678 1131.95,500.368 1129.01,500.368 C1123.59,500.368 1116.38,504.977 1107.39,514.197 C1099.34,522.409 1095.31,529.498 1095.31,535.463 C1095.31,542.049 1098.45,545.341 1104.72,545.341 C1112.31,545.341 1118.71,543.869 1123.9,540.925"/>
<path class="Note" d="M1622.83,851.839 C1627.4,851.839 1629.68,854.705 1629.68,860.438 C1629.68,864.467 1627.17,870.471 1622.13,878.451 C1618.1,884.881 1616.09,891.157 1616.09,897.277 C1616.09,900.763 1621.16,902.507 1631.31,902.507 C1639.68,902.507 1651.34,897.974 1666.29,888.91 C1651.26,903.398 1638.21,910.641 1627.13,910.641 C1617.13,910.641 1610.16,909.131 1606.21,906.109 C1605.2,905.334 1604.35,904.405 1603.65,903.32 C1599.78,908.046 1593.31,910.409 1584.25,910.409 C1575.57,910.409 1568.91,908.627 1564.26,905.063 C1561.16,902.662 1559.61,898.827 1559.61,893.558 C1559.61,885.191 1564.57,876.049 1574.48,866.133 C1585.1,855.519 1597.38,850.212 1611.32,850.212 C1614.81,850.212 1617.37,851.49 1618.99,854.047 C1620.31,852.575 1621.59,851.839 1622.83,851.839 M1602.03,898.091 C1601.95,897.471 1601.91,896.851 1601.91,896.231 C1601.91,895.921 1605.86,885.114 1613.76,863.808 C1614.54,861.717 1615.31,859.935 1616.09,858.463 C1613.07,857.843 1610.08,857.533 1607.14,857.533 C1601.72,857.533 1594.51,862.143 1585.52,871.362 C1577.47,879.574 1573.44,886.663 1573.44,892.629 C1573.44,899.214 1576.58,902.507 1582.85,902.507 C1590.44,902.507 1596.84,901.035 1602.03,898.091"/>
<path class="Note" d="M1629.92,581.059 C1640.38,574.474 1647.97,569.09 1652.69,564.906 C1661.37,557.236 1665.71,549.489 1665.71,541.664 C1665.71,532.522 1659.59,527.951 1647.35,527.951 C1634.49,527.951 1621.09,537.209 1607.14,555.725 C1597.69,568.276 1590.99,580.13 1587.04,591.286 C1591.92,588.11 1597.07,586.521 1602.49,586.521 C1607.6,586.521 1611.67,588.807 1614.69,593.378 C1616.79,596.554 1617.83,601.977 1617.83,609.647 C1617.83,616.542 1614.19,624.638 1606.91,633.935 C1602.41,639.668 1597.42,642.535 1591.92,642.535 C1584.94,642.535 1580.06,641.14 1577.27,638.351 C1573.32,634.4 1571.35,626.575 1571.35,614.877 C1571.35,595.198 1579.29,575.83 1595.17,556.771 C1613.07,535.311 1630.23,524.581 1646.65,524.581 C1659.36,524.581 1668.85,527.564 1675.12,533.529 C1678.76,537.015 1680.59,542.051 1680.59,548.637 C1680.59,555.997 1673.34,564.209 1658.85,573.273 C1651.26,578.077 1641.62,580.672 1629.92,581.059 M1585.52,596.167 C1583.59,602.675 1582.62,608.911 1582.62,614.877 C1582.62,629.055 1584.87,636.143 1589.36,636.143 C1593.62,636.143 1596.95,633.122 1599.35,627.079 C1602.14,620.261 1603.54,612.707 1603.54,604.418 C1603.54,597.058 1601.1,593.378 1596.22,593.378 C1592.81,593.378 1589.24,594.307 1585.52,596.167"/>
<path class="Note" d="M1629.92,491.768 C1640.38,485.183 1647.97,479.798 1652.69,475.615 C1661.37,467.945 1665.71,460.197 1665.71,452.373 C1665.71,443.231 1659.59,438.66 1647.35,438.66 C1634.49,438.66 1621.09,447.918 1607.14,466.434 C1597.69,478.985 1590.99,490.838 1587.04,501.995 C1591.92,498.818 1597.07,497.23 1602.49,497.23 C1607.6,497.23 1611.67,499.515 1614.69,504.086 C1616.79,507.263 1617.83,512.686 1617.83,520.356 C1617.83,527.251 1614.19,535.347 1606.91,544.644 C1602.41,550.377 1597.42,553.244 1591.92,553.244 C1584.94,553.244 1580.06,551.849 1577.27,549.06 C1573.32,545.109 1571.35,537.284 1571.35,525.585 C1571.35,505.907 1579.29,486.539 1595.17,467.48 C1613.07,446.02 1630.23,435.29 1646.65,435.29 C1659.36,435.29 1668.85,438.272 1675.12,444.238 C1678.76,447.724 1680.59,452.76 1680.59,459.345 C1680.59,466.705 1673.34,474.917 1658.85,483.982 C1651.26,488.785 1641.62,491.381 1629.92,491.768 M1585.52,506.875 C1583.59,513.383 1582.62,519.62 1582.62,525.585 C1582.62,539.763 1584.87,546.852 1589.36,546.852 C1593.62,546.852 1596.95,543.831 1599.35,537.788 C1602.14,530.97 1603.54,523.416 1603.54,515.126 C1603.54,507.766 1601.1,504.086 1596.22,504.086 C1592.81,504.086 1589.24,505.016 1585.52,506.875"/>
<path class="Note" d="M1746.51,1091.38 C1746.12,1092.08 1745.54,1092.43 1744.77,1092.43 C1744.07,1092.43 1743.18,1092.12 1742.1,1091.5 C1740.47,1090.57 1739.66,1089.64 1739.66,1088.71 C1739.66,1088.4 1739.77,1088.01 1740,1087.55 C1757.75,1061.98 1768.82,1040.44 1773.24,1022.93 C1773.55,1022.39 1774.09,1022.12 1774.87,1022.12 C1775.87,1022.12 1777.31,1022.66 1779.17,1023.75 C1781.72,1025.22 1783,1026.53 1783,1027.7 C1783,1028.01 1782.92,1028.28 1782.77,1028.51 C1776.88,1045.24 1764.8,1066.2 1746.51,1091.38 M1767.43,1098.35 C1767.04,1099.05 1766.46,1099.4 1765.69,1099.4 C1764.99,1099.4 1764.1,1099.09 1763.01,1098.47 C1761.39,1097.54 1760.57,1096.61 1760.57,1095.68 C1760.57,1095.37 1760.69,1094.98 1760.92,1094.52 C1778.66,1068.95 1789.74,1047.41 1794.16,1029.91 C1794.47,1029.36 1795.01,1029.09 1795.79,1029.09 C1796.79,1029.09 1798.23,1029.63 1800.08,1030.72 C1802.64,1032.19 1803.92,1033.51 1803.92,1034.67 C1803.92,1034.98 1803.84,1035.25 1803.69,1035.48 C1797.8,1052.22 1785.71,1073.17 1767.43,1098.35 M1788.35,1105.33 C1787.96,1106.02 1787.38,1106.37 1786.6,1106.37 C1785.91,1106.37 1785.02,1106.06 1783.93,1105.44 C1782.3,1104.51 1781.49,1103.58 1781.49,1102.65 C1781.49,1102.34 1781.61,1101.96 1781.84,1101.49 C1799.58,1075.92 1810.66,1054.39 1815.08,1036.88 C1815.39,1036.34 1815.93,1036.06 1816.7,1036.06 C1817.71,1036.06 1819.14,1036.61 1821,1037.69 C1823.56,1039.16 1824.84,1040.48 1824.84,1041.64 C1824.84,1041.95 1824.76,1042.22 1824.61,1042.46 C1818.72,1059.19 1806.63,1080.15 1788.35,1105.33 M1871.89,1059.89 C1876.46,1059.89 1878.75,1062.75 1878.75,1068.49 C1878.75,1072.52 1876.23,1078.52 1871.19,1086.5 C1867.16,1092.93 1865.15,1099.21 1865.15,1105.33 C1865.15,1108.81 1870.22,1110.56 1880.37,1110.56 C1888.74,1110.56 1900.4,1106.02 1915.35,1096.96 C1900.32,1111.45 1887.27,1118.69 1876.19,1118.69 C1866.19,1118.69 1859.22,1117.18 1855.27,1114.16 C1854.26,1113.38 1853.41,1112.45 1852.71,1111.37 C1848.84,1116.09 1842.37,1118.46 1833.31,1118.46 C1824.63,1118.46 1817.97,1116.68 1813.32,1113.11 C1810.22,1110.71 1808.67,1106.88 1808.67,1101.61 C1808.67,1093.24 1813.63,1084.1 1823.54,1074.18 C1834.16,1063.57 1846.44,1058.26 1860.38,1058.26 C1863.87,1058.26 1866.43,1059.54 1868.05,1062.1 C1869.37,1060.62 1870.65,1059.89 1871.89,1059.89 M1851.09,1106.14 C1851.01,1105.52 1850.97,1104.9 1850.97,1104.28 C1850.97,1103.97 1854.92,1093.16 1862.82,1071.86 C1863.6,1069.77 1864.37,1067.98 1865.15,1066.51 C1862.13,1065.89 1859.14,1065.58 1856.2,1065.58 C1850.78,1065.58 1843.57,1070.19 1834.58,1079.41 C1826.53,1087.62 1822.5,1094.71 1822.5,1100.68 C1822.5,1107.26 1825.64,1110.56 1831.91,1110.56 C1839.5,1110.56 1845.9,1109.08 1851.09,1106.14"/>
<path class="Note" d="M2088.6,1098.35 C2088.21,1099.05 2087.63,1099.4 2086.85,1099.4 C2086.16,1099.4 2085.26,1099.09 2084.18,1098.47 C2082.55,1097.54 2081.74,1096.61 2081.74,1095.68 C2081.74,1095.37 2081.86,1094.98 2082.09,1094.52 C2099.83,1068.95 2110.91,1047.41 2115.32,1029.91 C2115.63,1029.36 2116.18,1029.09 2116.95,1029.09 C2117.96,1029.09 2119.39,1029.63 2121.25,1030.72 C2123.81,1032.19 2125.09,1033.51 2125.09,1034.67 C2125.09,1034.98 2125.01,1035.25 2124.85,1035.48 C2118.97,1052.22 2106.88,1073.17 2088.6,1098.35 M2109.51,1105.33 C2109.13,1106.02 2108.55,1106.37 2107.77,1106.37 C2107.07,1106.37 2106.18,1106.06 2105.1,1105.44 C2103.47,1104.51 2102.66,1103.58 2102.66,1102.65 C2102.66,1102.34 2102.77,1101.96 2103.01,1101.49 C2120.75,1075.92 2131.83,1054.39 2136.24,1036.88 C2136.55,1036.34 2137.09,1036.06 2137.87,1036.06 C2138.88,1036.06 2140.31,1036.61 2142.17,1037.69 C2144.73,1039.16 2146,1040.48 2146,1041.64 C2146,1041.95 2145.93,1042.22 2145.77,1042.46 C2139.88,1059.19 2127.8,1080.15 2109.51,1105.33 M2193.07,1059.89 C2197.64,1059.89 2199.92,1062.75 2199.92,1068.49 C2199.92,1072.52 2197.4,1078.52 2192.37,1086.5 C2188.34,1092.93 2186.33,1099.21 2186.33,1105.33 C2186.33,1108.81 2191.4,1110.56 2201.55,1110.56 C2209.92,1110.56 2221.58,1106.02 2236.53,1096.96 C2221.5,1111.45 2208.44,1118.69 2197.37,1118.69 C2187.37,1118.69 2180.4,1117.18 2176.45,1114.16 C2175.44,1113.38 2174.59,1112.45 2173.89,1111.37 C2170.02,1116.09 2163.55,1118.46 2154.48,1118.46 C2145.81,1118.46 2139.14,1116.68 2134.5,1113.11 C2131.4,1110.71 2129.85,1106.88 2129.85,1101.61 C2129.85,1093.24 2134.81,1084.1 2144.72,1074.18 C2155.34,1063.57 2167.62,1058.26 2181.56,1058.26 C2185.05,1058.26 2187.6,1059.54 2189.23,1062.1 C2190.55,1060.62 2191.83,1059.89 2193.07,1059.89 M2172.26,1106.14 C2172.19,1105.52 2172.15,1104.9 2172.15,1104.28 C2172.15,1103.97 2176.1,1093.16 2184,1071.86 C2184.78,1069.77 2185.55,1067.98 2186.33,1066.51 C2183.3,1065.89 2180.32,1065.58 2177.38,1065.58 C2171.95,1065.58 2164.75,1070.19 2155.76,1079.41 C2147.71,1087.62 2143.68,1094.71 2143.68,1100.68 C2143.68,1107.26 2146.81,1110.56 2153.09,1110.56 C2160.68,1110.56 2167.07,1109.08 2172.26,1106.14"/>
<path class="Note" d="M2060.31,945.081 C2060.62,933.383 2067.08,923.001 2079.71,913.937 C2090.95,905.879 2103.23,901.851 2116.55,901.851 C2135.22,901.851 2151.69,909.172 2165.94,923.815 C2175.01,933.189 2179.54,944.81 2179.54,958.678 C2179.54,971.151 2176.21,980.719 2169.54,987.382 C2161.41,995.594 2152.81,999.7 2143.75,999.7 C2137.55,999.7 2132.74,998.306 2129.34,995.517 C2123.76,990.946 2120.97,984.825 2120.97,977.155 C2120.97,967.239 2125.93,958.174 2135.84,949.962 C2143.98,943.222 2152.15,938.806 2160.36,936.714 C2158.19,932.995 2155.44,929.509 2152.11,926.255 C2141.73,916.106 2129.95,911.031 2116.78,911.031 C2103.07,911.031 2091.72,914.014 2082.73,919.98 C2073.44,926.1 2065.96,934.467 2060.31,945.081 M2163.27,942.873 C2159.01,946.824 2154.75,951.047 2150.49,955.54 C2142.12,964.372 2137.93,972.739 2137.93,980.642 C2137.93,989.086 2139.87,993.309 2143.75,993.309 C2147.23,993.309 2152.11,988.544 2158.39,979.015 C2163.42,971.422 2165.94,964.45 2165.94,958.097 C2165.94,952.674 2165.05,947.599 2163.27,942.873"/>
<path class="Note" d="M2060.31,587.916 C2060.62,576.217 2067.08,565.836 2079.71,556.771 C2090.95,548.714 2103.23,544.685 2116.55,544.685 C2135.22,544.685 2151.69,552.007 2165.94,566.649 C2175.01,576.024 2179.54,587.645 2179.54,601.513 C2179.54,613.986 2176.21,623.554 2169.54,630.217 C2161.41,638.429 2152.81,642.535 2143.75,642.535 C2137.55,642.535 2132.74,641.14 2129.34,638.351 C2123.76,633.78 2120.97,627.66 2120.97,619.99 C2120.97,610.073 2125.93,601.009 2135.84,592.797 C2143.98,586.056 2152.15,581.64 2160.36,579.549 C2158.19,575.83 2155.44,572.344 2152.11,569.09 C2141.73,558.941 2129.95,553.866 2116.78,553.866 C2103.07,553.866 2091.72,556.849 2082.73,562.814 C2073.44,568.935 2065.96,577.302 2060.31,587.916 M2163.27,585.708 C2159.01,589.659 2154.75,593.881 2150.49,598.375 C2142.12,607.207 2137.93,615.574 2137.93,623.476 C2137.93,631.921 2139.87,636.143 2143.75,636.143 C2147.23,636.143 2152.11,631.379 2158.39,621.849 C2163.42,614.257 2165.94,607.284 2165.94,600.931 C2165.94,595.508 2165.05,590.434 2163.27,585.708"/>
<path class="Note" d="M2178.48,491.768 C2188.94,485.183 2196.53,479.798 2201.26,475.615 C2209.94,467.945 2214.28,460.197 2214.28,452.373 C2214.28,443.231 2208.16,438.66 2195.91,438.66 C2183.05,438.66 2169.65,447.918 2155.71,466.434 C2146.25,478.985 2139.55,490.838 2135.6,501.995 C2140.48,498.818 2145.63,497.23 2151.06,497.23 C2156.17,497.23 2160.24,499.515 2163.26,504.086 C2165.35,507.263 2166.4,512.686 2166.4,520.356 C2166.4,527.251 2162.76,535.347 2155.47,544.644 C2150.98,550.377 2145.98,553.244 2140.48,553.244 C2133.51,553.244 2128.63,551.849 2125.84,549.06 C2121.89,545.109 2119.91,537.284 2119.91,525.585 C2119.91,505.907 2127.85,486.539 2143.74,467.48 C2161.63,446.02 2178.79,435.29 2195.22,435.29 C2207.92,435.29 2217.41,438.272 2223.69,444.238 C2227.33,447.724 2229.15,452.76 2229.15,459.345 C2229.15,466.705 2221.91,474.917 2207.42,483.982 C2199.83,488.785 2190.18,491.381 2178.48,491.768 M2134.09,506.875 C2132.15,513.383 2131.19,519.62 2131.19,525.585 C2131.19,539.763 2133.43,546.852 2137.93,546.852 C2142.19,546.852 2145.52,543.831 2147.92,537.788 C2150.71,530.97 2152.1,523.416 2152.1,515.126 C2152.1,507.766 2149.66,504.086 2144.78,504.086 C2141.37,504.086 2137.81,505.016 2134.09,506.875"/>
<path class="Note" d="M2519.75,1105.33 C2519.36,1106.02 2518.78,1106.37 2518.01,1106.37 C2517.31,1106.37 2516.42,1106.06 2515.34,1105.44 C2513.71,1104.51 2512.89,1103.58 2512.89,1102.65 C2512.89,1102.34 2513.01,1101.96 2513.24,1101.49 C2530.98,1075.92 2542.06,1054.39 2546.48,1036.88 C2546.79,1036.34 2547.33,1036.06 2548.11,1036.06 C2549.11,1036.06 2550.55,1036.61 2552.41,1037.69 C2554.96,1039.16 2556.24,1040.48 2556.24,1041.64 C2556.24,1041.95 2556.16,1042.22 2556.01,1042.46 C2550.12,1059.19 2538.03,1080.15 2519.75,1105.33 M2603.3,1059.89 C2607.87,1059.89 2610.16,1062.75 2610.16,1068.49 C2610.16,1072.52 2607.64,1078.52 2602.6,1086.5 C2598.57,1092.93 2596.56,1099.21 2596.56,1105.33 C2596.56,1108.81 2601.63,1110.56 2611.78,1110.56 C2620.15,1110.56 2631.81,1106.02 2646.76,1096.96 C2631.73,1111.45 2618.68,1118.69 2607.6,1118.69 C2597.61,1118.69 2590.63,1117.18 2586.68,1114.16 C2585.67,1113.38 2584.82,1112.45 2584.13,1111.37 C2580.25,1116.09 2573.78,1118.46 2564.72,1118.46 C2556.04,1118.46 2549.38,1116.68 2544.73,1113.11 C2541.63,1110.71 2540.08,1106.88 2540.08,1101.61 C2540.08,1093.24 2545.04,1084.1 2554.96,1074.18 C2565.57,1063.57 2577.85,1058.26 2591.8,1058.26 C2595.28,1058.26 2597.84,1059.54 2599.46,1062.1 C2600.78,1060.62 2602.06,1059.89 2603.3,1059.89 M2582.5,1106.14 C2582.42,1105.52 2582.38,1104.9 2582.38,1104.28 C2582.38,1103.97 2586.33,1093.16 2594.24,1071.86 C2595.01,1069.77 2595.78,1067.98 2596.56,1066.51 C2593.54,1065.89 2590.56,1065.58 2587.61,1065.58 C2582.19,1065.58 2574.98,1070.19 2566,1079.41 C2557.94,1087.62 2553.91,1094.71 2553.91,1100.68 C2553.91,1107.26 2557.05,1110.56 2563.32,1110.56 C2570.92,1110.56 2577.31,1109.08 2582.5,1106.14"/>
<path class="Note" d="M2481.01,945.081 C2481.32,933.383 2487.79,923.001 2500.41,913.937 C2511.65,905.879 2523.93,901.851 2537.25,901.851 C2555.92,901.851 2572.39,909.172 2586.64,923.815 C2595.71,933.189 2600.24,944.81 2600.24,958.678 C2600.24,971.151 2596.91,980.719 2590.24,987.382 C2582.11,995.594 2573.51,999.7 2564.45,999.7 C2558.25,999.7 2553.44,998.306 2550.04,995.517 C2544.46,990.946 2541.67,984.825 2541.67,977.155 C2541.67,967.239 2546.63,958.174 2556.54,949.962 C2564.68,943.222 2572.85,938.806 2581.06,936.714 C2578.9,932.995 2576.14,929.509 2572.81,926.255 C2562.43,916.106 2550.66,911.031 2537.49,911.031 C2523.77,911.031 2512.42,914.014 2503.44,919.98 C2494.14,926.1 2486.66,934.467 2481.01,945.081 M2583.97,942.873 C2579.71,946.824 2575.45,951.047 2571.19,955.54 C2562.82,964.372 2558.64,972.739 2558.64,980.642 C2558.64,989.086 2560.57,993.309 2564.45,993.309 C2567.93,993.309 2572.81,988.544 2579.09,979.015 C2584.12,971.422 2586.64,964.45 2586.64,958.097 C2586.64,952.674 2585.75,947.599 2583.97,942.873"/>
<path class="Note" d="M2599.18,581.059 C2609.64,574.474 2617.24,569.09 2621.96,564.906 C2630.64,557.236 2634.98,549.489 2634.98,541.664 C2634.98,532.522 2628.86,527.951 2616.62,527.951 C2603.76,527.951 2590.35,537.209 2576.41,555.725 C2566.95,568.276 2560.25,580.13 2556.3,591.286 C2561.18,588.11 2566.34,586.521 2571.76,586.521 C2576.87,586.521 2580.94,588.807 2583.96,593.378 C2586.05,596.554 2587.1,601.977 2587.1,609.647 C2587.1,616.542 2583.46,624.638 2576.17,633.935 C2571.68,639.668 2566.68,642.535 2561.18,642.535 C2554.21,642.535 2549.33,641.14 2546.54,638.351 C2542.59,634.4 2540.61,626.575 2540.61,614.877 C2540.61,595.198 2548.55,575.83 2564.44,556.771 C2582.33,535.311 2599.49,524.581 2615.92,524.581 C2628.62,524.581 2638.11,527.564 2644.39,533.529 C2648.03,537.015 2649.85,542.051 2649.85,548.637 C2649.85,555.997 2642.61,564.209 2628.12,573.273 C2620.53,578.077 2610.88,580.672 2599.18,581.059 M2554.79,596.167 C2552.85,602.675 2551.89,608.911 2551.89,614.877 C2551.89,629.055 2554.13,636.143 2558.63,636.143 C2562.89,636.143 2566.22,633.122 2568.62,627.079 C2571.41,620.261 2572.8,612.707 2572.8,604.418 C2572.8,597.058 2570.36,593.378 2565.48,593.378 C2562.07,593.378 2558.51,594.307 2554.79,596.167"/>
<path class="Note" d="M2592.1,494.673 C2596.67,494.673 2598.95,497.54 2598.95,503.273 C2598.95,507.302 2596.43,513.306 2591.4,521.286 C2587.37,527.716 2585.36,533.991 2585.36,540.112 C2585.36,543.598 2590.43,545.341 2600.58,545.341 C2608.95,545.341 2620.61,540.809 2635.56,531.745 C2620.53,546.232 2607.47,553.476 2596.4,553.476 C2586.4,553.476 2579.43,551.965 2575.48,548.944 C2574.47,548.169 2573.62,547.239 2572.92,546.155 C2569.05,550.881 2562.58,553.244 2553.51,553.244 C2544.84,553.244 2538.17,551.462 2533.52,547.898 C2530.43,545.496 2528.88,541.661 2528.88,536.393 C2528.88,528.026 2533.83,518.884 2543.75,508.967 C2554.37,498.353 2566.65,493.046 2580.59,493.046 C2584.08,493.046 2586.63,494.325 2588.26,496.881 C2589.58,495.409 2590.86,494.673 2592.1,494.673 M2571.29,540.925 C2571.22,540.305 2571.18,539.686 2571.18,539.066 C2571.18,538.756 2575.13,527.948 2583.03,506.643 C2583.81,504.551 2584.58,502.769 2585.36,501.297 C2582.33,500.678 2579.35,500.368 2576.41,500.368 C2570.98,500.368 2563.78,504.977 2554.79,514.197 C2546.73,522.409 2542.71,529.498 2542.71,535.463 C2542.71,542.049 2545.84,545.341 2552.12,545.341 C2559.71,545.341 2566.1,543.869 2571.29,540.925"/>
<path class="Note" d="M2979.42,1059.89 C2983.99,1059.89 2986.27,1062.75 2986.27,1068.49 C2986.27,1072.52 2983.75,1078.52 2978.72,1086.5 C2974.69,1092.93 2972.68,1099.21 2972.68,1105.33 C2972.68,1108.81 2977.75,1110.56 2987.9,1110.56 C2996.27,1110.56 3007.93,1106.02 3022.88,1096.96 C3007.85,1111.45 2994.79,1118.69 2983.72,1118.69 C2973.72,1118.69 2966.75,1117.18 2962.8,1114.16 C2961.79,1113.38 2960.94,1112.45 2960.24,1111.37 C2956.37,1116.09 2949.9,1118.46 2940.83,1118.46 C2932.16,1118.46 2925.49,1116.68 2920.85,1113.11 C2917.75,1110.71 2916.2,1106.88 2916.2,1101.61 C2916.2,1093.24 2921.16,1084.1 2931.07,1074.18 C2941.69,1063.57 2953.97,1058.26 2967.91,1058.26 C2971.4,1058.26 2973.95,1059.54 2975.58,1062.1 C2976.9,1060.62 2978.18,1059.89 2979.42,1059.89 M2958.61,1106.14 C2958.54,1105.52 2958.5,1104.9 2958.5,1104.28 C2958.5,1103.97 2962.45,1093.16 2970.35,1071.86 C2971.13,1069.77 2971.9,1067.98 2972.68,1066.51 C2969.65,1065.89 2966.67,1065.58 2963.73,1065.58 C2958.3,1065.58 2951.1,1070.19 2942.11,1079.41 C2934.06,1087.62 2930.03,1094.71 2930.03,1100.68 C2930.03,1107.26 2933.16,1110.56 2939.44,1110.56 C2947.03,1110.56 2953.42,1109.08 2958.61,1106.14"/>
<path class="Note" d="M2986.51,848.933 C2996.96,842.348 3004.56,836.964 3009.28,832.78 C3017.96,825.11 3022.3,817.363 3022.3,809.538 C3022.3,800.396 3016.18,795.825 3003.94,795.825 C2991.08,795.825 2977.67,805.083 2963.73,823.599 C2954.28,836.15 2947.57,848.004 2943.62,859.16 C2948.5,855.984 2953.66,854.395 2959.08,854.395 C2964.19,854.395 2968.26,856.681 2971.28,861.252 C2973.37,864.428 2974.42,869.851 2974.42,877.521 C2974.42,884.416 2970.78,892.513 2963.5,901.809 C2959,907.542 2954,910.409 2948.5,910.409 C2941.53,910.409 2936.65,909.014 2933.86,906.225 C2929.91,902.274 2927.93,894.449 2927.93,882.751 C2927.93,863.072 2935.88,843.704 2951.76,824.645 C2969.65,803.185 2986.81,792.455 3003.24,792.455 C3015.95,792.455 3025.44,795.438 3031.71,801.403 C3035.35,804.889 3037.17,809.925 3037.17,816.511 C3037.17,823.871 3029.93,832.083 3015.44,841.147 C3007.85,845.951 2998.2,848.546 2986.51,848.933 M2942.11,864.041 C2940.18,870.549 2939.21,876.785 2939.21,882.751 C2939.21,896.929 2941.45,904.017 2945.95,904.017 C2950.21,904.017 2953.54,900.996 2955.94,894.953 C2958.73,888.135 2960.13,880.582 2960.13,872.292 C2960.13,864.932 2957.68,861.252 2952.8,861.252 C2949.39,861.252 2945.83,862.181 2942.11,864.041"/>
<path class="Note" d="M2986.51,491.768 C2996.96,485.183 3004.56,479.798 3009.28,475.615 C3017.96,467.945 3022.3,460.197 3022.3,452.373 C3022.3,443.231 3016.18,438.66 3003.94,438.66 C2991.08,438.66 2977.67,447.918 2963.73,466.434 C2954.28,478.985 2947.57,490.838 2943.62,501.995 C2948.5,498.818 2953.66,497.23 2959.08,497.23 C2964.19,497.23 2968.26,499.515 2971.28,504.086 C2973.37,507.263 2974.42,512.686 2974.42,520.356 C2974.42,527.251 2970.78,535.347 2963.5,544.644 C2959,550.377 2954,553.244 2948.5,553.244 C2941.53,553.244 2936.65,551.849 2933.86,549.06 C2929.91,545.109 2927.93,537.284 2927.93,525.585 C2927.93,505.907 2935.88,486.539 2951.76,467.48 C2969.65,446.02 2986.81,435.29 3003.24,435.29 C3015.95,435.29 3025.44,438.272 3031.71,444.238 C3035.35,447.724 3037.17,452.76 3037.17,459.345 C3037.17,466.705 3029.93,474.917 3015.44,483.982 C3007.85,488.785 2998.2,491.381 2986.51,491.768 M2942.11,506.875 C2940.18,513.383 2939.21,519.62 2939.21,525.585 C2939.21,539.763 2941.45,546.852 2945.95,546.852 C2950.21,546.852 2953.54,543.831 2955.94,537.788 C2958.73,530.97 2960.13,523.416 2960.13,515.126 C2960.13,507.766 2957.68,504.086 2952.8,504.086 C2949.39,504.086 2945.83,505.016 2942.11,506.875"/>
<path class="Note" d="M3384.55,941.13 C3389.12,941.13 3391.41,943.997 3391.41,949.73 C3391.41,953.758 3388.89,959.763 3383.86,967.742 C3379.83,974.173 3377.81,980.448 3377.81,986.568 C3377.81,990.055 3382.89,991.798 3393.04,991.798 C3401.4,991.798 3413.06,987.266 3428.02,978.201 C3412.99,992.689 3399.93,999.933 3388.85,999.933 C3378.86,999.933 3371.89,998.422 3367.93,995.401 C3366.93,994.626 3366.07,993.696 3365.38,992.611 C3361.5,997.337 3355.03,999.7 3345.97,999.7 C3337.29,999.7 3330.63,997.918 3325.98,994.355 C3322.88,991.953 3321.33,988.118 3321.33,982.85 C3321.33,974.483 3326.29,965.341 3336.21,955.424 C3346.82,944.81 3359.1,939.503 3373.05,939.503 C3376.53,939.503 3379.09,940.781 3380.72,943.338 C3382.03,941.866 3383.31,941.13 3384.55,941.13 M3363.75,987.382 C3363.67,986.762 3363.63,986.142 3363.63,985.523 C3363.63,985.213 3367.59,974.405 3375.49,953.1 C3376.26,951.008 3377.04,949.226 3377.81,947.754 C3374.79,947.134 3371.81,946.824 3368.86,946.824 C3363.44,946.824 3356.24,951.434 3347.25,960.653 C3339.19,968.866 3335.16,975.955 3335.16,981.92 C3335.16,988.505 3338.3,991.798 3344.58,991.798 C3352.17,991.798 3358.56,990.326 3363.75,987.382"/>
<path class="Note" d="M3391.64,848.933 C3402.1,842.348 3409.69,836.964 3414.42,832.78 C3423.1,825.11 3427.43,817.363 3427.43,809.538 C3427.43,800.396 3421.31,795.825 3409.07,795.825 C3396.21,795.825 3382.81,805.083 3368.86,823.599 C3359.41,836.15 3352.71,848.004 3348.76,859.16 C3353.64,855.984 3358.79,854.395 3364.22,854.395 C3369.33,854.395 3373.4,856.681 3376.42,861.252 C3378.51,864.428 3379.56,869.851 3379.56,877.521 C3379.56,884.416 3375.91,892.513 3368.63,901.809 C3364.14,907.542 3359.14,910.409 3353.64,910.409 C3346.67,910.409 3341.79,909.014 3339,906.225 C3335.05,902.274 3333.07,894.449 3333.07,882.751 C3333.07,863.072 3341.01,843.704 3356.89,824.645 C3374.79,803.185 3391.95,792.455 3408.38,792.455 C3421.08,792.455 3430.57,795.438 3436.85,801.403 C3440.49,804.889 3442.31,809.925 3442.31,816.511 C3442.31,823.871 3435.07,832.083 3420.58,841.147 C3412.99,845.951 3403.34,848.546 3391.64,848.933 M3347.25,864.041 C3345.31,870.549 3344.34,876.785 3344.34,882.751 C3344.34,896.929 3346.59,904.017 3351.08,904.017 C3355.34,904.017 3358.68,900.996 3361.08,894.953 C3363.87,888.135 3365.26,880.582 3365.26,872.292 C3365.26,864.932 3362.82,861.252 3357.94,861.252 C3354.53,861.252 3350.97,862.181 3347.25,864.041"/>
<path class="Note" d="M3391.64,581.059 C3402.1,574.474 3409.69,569.09 3414.42,564.906 C3423.1,557.236 3427.43,549.489 3427.43,541.664 C3427.43,532.522 3421.31,527.951 3409.07,527.951 C3396.21,527.951 3382.81,537.209 3368.86,555.725 C3359.41,568.276 3352.71,580.13 3348.76,591.286 C3353.64,588.11 3358.79,586.521 3364.22,586.521 C3369.33,586.521 3373.4,588.807 3376.42,593.378 C3378.51,596.554 3379.56,601.977 3379.56,609.647 C3379.56,616.542 3375.91,624.638 3368.63,633.935 C3364.14,639.668 3359.14,642.535 3353.64,642.535 C3346.67,642.535 3341.79,641.14 3339,638.351 C3335.05,634.4 3333.07,626.575 3333.07,614.877 C3333.07,595.198 3341.01,575.83 3356.89,556.771 C3374.79,535.311 3391.95,524.581 3408.38,524.581 C3421.08,524.581 3430.57,527.564 3436.85,533.529 C3440.49,537.015 3442.31,542.051 3442.31,548.637 C3442.31,555.997 3435.07,564.209 3420.58,573.273 C3412.99,578.077 3403.34,580.672 3391.64,581.059 M3347.25,596.167 C3345.31,602.675 3344.34,608.911 3344.34,614.877 C3344.34,629.055 3346.59,636.143 3351.08,636.143 C3355.34,636.143 3358.68,633.122 3361.08,627.079 C3363.87,620.261 3365.26,612.707 3365.26,604.418 C3365.26,597.058 3362.82,593.378 3357.94,593.378 C3354.53,593.378 3350.97,594.307 3347.25,596.167"/>
<path class="Note" d="M3391.64,670.351 C3402.1,663.765 3409.69,658.381 3414.42,654.197 C3423.1,646.527 3427.43,638.78 3427.43,630.955 C3427.43,621.813 3421.31,617.242 3409.07,617.242 C3396.21,617.242 3382.81,626.5 3368.86,645.017 C3359.41,657.568 3352.71,669.421 3348.76,680.577 C3353.64,677.401 3358.79,675.813 3364.22,675.813 C3369.33,675.813 3373.4,678.098 3376.42,682.669 C3378.51,685.846 3379.56,691.269 3379.56,698.939 C3379.56,705.834 3375.91,713.93 3368.63,723.227 C3364.14,728.96 3359.14,731.826 3353.64,731.826 C3346.67,731.826 3341.79,730.432 3339,727.643 C3335.05,723.692 3333.07,715.867 3333.07,704.168 C3333.07,684.49 3341.01,665.121 3356.89,646.063 C3374.79,624.602 3391.95,613.872 3408.38,613.872 C3421.08,613.872 3430.57,616.855 3436.85,622.82 C3440.49,626.307 3442.31,631.343 3442.31,637.928 C3442.31,645.288 3435.07,653.5 3420.58,662.565 C3412.99,667.368 3403.34,669.963 3391.64,670.351 M3347.25,685.458 C3345.31,691.966 3344.34,698.203 3344.34,704.168 C3344.34,718.346 3346.59,725.435 3351.08,725.435 C3355.34,725.435 3358.68,722.413 3361.08,716.37 C3363.87,709.553 3365.26,701.999 3365.26,693.709 C3365.26,686.349 3362.82,682.669 3357.94,682.669 C3354.53,682.669 3350.97,683.599 3347.25,685.458"/>
<path class="Note" d="M3869.77,938.225 C3880.23,931.639 3887.82,926.255 3892.55,922.071 C3901.23,914.401 3905.56,906.654 3905.56,898.829 C3905.56,889.687 3899.44,885.116 3887.2,885.116 C3874.34,885.116 3860.94,894.374 3846.99,912.891 C3837.54,925.442 3830.84,937.295 3826.89,948.451 C3831.77,945.275 3836.92,943.687 3842.35,943.687 C3847.46,943.687 3851.53,945.972 3854.55,950.543 C3856.64,953.72 3857.69,959.143 3857.69,966.813 C3857.69,973.708 3854.04,981.804 3846.76,991.101 C3842.27,996.834 3837.27,999.7 3831.77,999.7 C3824.8,999.7 3819.92,998.306 3817.13,995.517 C3813.18,991.566 3811.2,983.741 3811.2,972.042 C3811.2,952.364 3819.14,932.995 3835.02,913.937 C3852.92,892.476 3870.08,881.746 3886.51,881.746 C3899.21,881.746 3908.7,884.729 3914.98,890.694 C3918.62,894.181 3920.44,899.217 3920.44,905.802 C3920.44,913.162 3913.2,921.374 3898.71,930.439 C3891.12,935.242 3881.47,937.837 3869.77,938.225 M3825.38,953.332 C3823.44,959.84 3822.47,966.077 3822.47,972.042 C3822.47,986.22 3824.72,993.309 3829.21,993.309 C3833.47,993.309 3836.81,990.287 3839.21,984.244 C3842,977.427 3843.39,969.873 3843.39,961.583 C3843.39,954.223 3840.95,950.543 3836.07,950.543 C3832.66,950.543 3829.1,951.473 3825.38,953.332"/>
<path class="Note" d="M3862.68,851.839 C3867.25,851.839 3869.54,854.705 3869.54,860.438 C3869.54,864.467 3867.02,870.471 3861.99,878.451 C3857.96,884.881 3855.94,891.157 3855.94,897.277 C3855.94,900.763 3861.02,902.507 3871.17,902.507 C3879.53,902.507 3891.19,897.974 3906.15,888.91 C3891.12,903.398 3878.06,910.641 3866.98,910.641 C3856.99,910.641 3850.02,909.131 3846.06,906.109 C3845.06,905.334 3844.21,904.405 3843.51,903.32 C3839.63,908.046 3833.17,910.409 3824.1,910.409 C3815.42,910.409 3808.76,908.627 3804.11,905.063 C3801.01,902.662 3799.46,898.827 3799.46,893.558 C3799.46,885.191 3804.42,876.049 3814.34,866.133 C3824.95,855.519 3837.23,850.212 3851.18,850.212 C3854.66,850.212 3857.22,851.49 3858.85,854.047 C3860.16,852.575 3861.44,851.839 3862.68,851.839 M3841.88,898.091 C3841.8,897.471 3841.76,896.851 3841.76,896.231 C3841.76,895.921 3845.72,885.114 3853.62,863.808 C3854.39,861.717 3855.17,859.935 3855.94,858.463 C3852.92,857.843 3849.94,857.533 3846.99,857.533 C3841.57,857.533 3834.37,862.143 3825.38,871.362 C3817.32,879.574 3813.29,886.663 3813.29,892.629 C3813.29,899.214 3816.43,902.507 3822.71,902.507 C3830.3,902.507 3836.69,901.035 3841.88,898.091"/>
<path class="Note" d="M3869.77,581.059 C3880.23,574.474 3887.82,569.09 3892.55,564.906 C3901.23,557.236 3905.56,549.489 3905.56,541.664 C3905.56,532.522 3899.44,527.951 3887.2,527.951 C3874.34,527.951 3860.94,537.209 3846.99,555.725 C3837.54,568.276 3830.84,580.13 3826.89,591.286 C3831.77,588.11 3836.92,586.521 3842.35,586.521 C3847.46,586.521 3851.53,588.807 3854.55,593.378 C3856.64,596.554 3857.69,601.977 3857.69,609.647 C3857.69,616.542 3854.04,624.638 3846.76,633.935 C3842.27,639.668 3837.27,642.535 3831.77,642.535 C3824.8,642.535 3819.92,641.14 3817.13,638.351 C3813.18,634.4 3811.2,626.575 3811.2,614.877 C3811.2,595.198 3819.14,575.83 3835.02,556.771 C3852.92,535.311 3870.08,524.581 3886.51,524.581 C3899.21,524.581 3908.7,527.564 3914.98,533.529 C3918.62,537.015 3920.44,542.051 3920.44,548.637 C3920.44,555.997 3913.2,564.209 3898.71,573.273 C3891.12,578.077 3881.47,580.672 3869.77,581.059 M3825.38,596.167 C3823.44,602.675 3822.47,608.911 3822.47,614.877 C3822.47,629.055 3824.72,636.143 3829.21,636.143 C3833.47,636.143 3836.81,633.122 3839.21,627.079 C3842,620.261 3843.39,612.707 3843.39,604.418 C3843.39,597.058 3840.95,593.378 3836.07,593.378 C3832.66,593.378 3829.1,594.307 3825.38,596.167"/>
<path class="Note" d="M3869.77,491.768 C3880.23,485.183 3887.82,479.798 3892.55,475.615 C3901.23,467.945 3905.56,460.197 3905.56,452.373 C3905.56,443.231 3899.44,438.66 3887.2,438.66 C3874.34,438.66 3860.94,447.918 3846.99,466.434 C3837.54,478.985 3830.84,490.838 3826.89,501.995 C3831.77,498.818 3836.92,497.23 3842.35,497.23 C3847.46,497.23 3851.53,499.515 3854.55,504.086 C3856.64,507.263 3857.69,512.686 3857.69,520.356 C3857.69,527.251 3854.04,535.347 3846.76,544.644 C3842.27,550.377 3837.27,553.244 3831.77,553.244 C3824.8,553.244 3819.92,551.849 3817.13,549.06 C3813.18,545.109 3811.2,537.284 3811.2,525.585 C3811.2,505.907 3819.14,486.539 3835.02,467.48 C3852.92,446.02 3870.08,435.29 3886.51,435.29 C3899.21,435.29 3908.7,438.272 3914.98,444.238 C3918.62,447.724 3920.44,452.76 3920.44,459.345 C3920.44,466.705 3913.2,474.917 3898.71,483.982 C3891.12,488.785 3881.47,491.381 3869.77,491.768 M3825.38,506.875 C3823.44,513.383 3822.47,519.62 3822.47,525.585 C3822.47,539.763 3824.72,546.852 3829.21,546.852 C3833.47,546.852 3836.81,543.831 3839.21,537.788 C3842,530.97 3843.39,523.416 3843.39,515.126 C3843.39,507.766 3840.95,504.086 3836.07,504.086 C3832.66,504.086 3829.1,505.016 3825.38,506.875"/>
<path class="Clef" transform="matrix(2.3811,0,0,2.3811,212.156,2076.38)" d="M25.4,-25.1 C17.8,-25.1 11.7,-20.7 11.6,-20.7 C5.8,-16.4 3.5,-11.3 2.6,-7.8 C2.1,-6 1.9,-4.2 1.9,-2.5 C1.9,-0.1 2.3,2.1 3.2,4 C4.4,6.7 6.7,8.6 9.7,9.6 C10.9,10 12.2,10.2 13.5,10.2 C15.7,10.2 18,9.6 19.9,8.5 C23,6.8 24.9,3.2 24.9,-0.7 C24.9,-4.2 23.1,-7.4 20.1,-9.3 C18,-10.7 16,-11.1 14.3,-11.1 C13.1,-11.1 12,-10.9 11.1,-10.6 C10.1,-10.2 8.4,-9.2 7.6,-8.5 C7.9,-10.4 9.1,-13.3 10.2,-14.9 C11.3,-16.5 13.5,-18.5 15.2,-19.4 C17.7,-20.8 20.9,-21.4 24.4,-21.4 C34.6,-21.4 39.6,-13.2 39.6,3.6 C39.6,12.9 36.1,21.8 33.1,27.7 C29.8,34.3 25.4,40.6 21.5,44.1 C11.1,53.6 1.3,58.1 1.2,58.1 C1.2,58.1 -0.3,59 0.1,60.5 C0.4,61.5 1.3,61.7 1.9,61.7 C2,61.7 2.3,61.6 2.4,61.6 C2.5,61.6 13.9,56.9 23,49.8 C28.1,46.1 32.7,42.1 36.7,37.8 C40.3,33.9 43.4,29.7 45.9,25.5 C50.3,18 52.8,10.2 52.8,3.5 C52.8,-4.8 50.6,-11.7 46.5,-16.6 C41.8,-22.2 34.7,-25.1 25.4,-25.1 M56.8,-12.4 C56.8,-9.6 59,-7.4 61.6,-7.4 C64.2,-7.4 66.4,-9.6 66.4,-12.4 C66.4,-15.2 64.2,-17.5 61.6,-17.5 C59,-17.5 56.8,-15.2 56.8,-12.4 M56.8,12.3 C56.8,15.1 59,17.4 61.6,17.4 C64.2,17.4 66.4,15.1 66.4,12.3 C66.4,9.5 64.2,7.2 61.6,7.2 C59,7.2 56.8,9.5 56.8,12.3"/>
<path class="Clef" transform="matrix(2.3811,0,0,2.3811,212.156,1570.39)" d="M63.37,-5.89004 C62.14,-11.32 59.5,-15.14 58.72,-16.1801 C55.5301,-20.45 51.52,-23.3 46.8301,-24.65 C43.72,-25.54 40.72,-25.65 38.3,-25.47 C37.2601,-31.4801 36.2601,-37.3601 35.35,-42.8101 C40.79,-48.97 44.42,-54.77 46.69,-59.07 C50.1601,-65.65 51.3101,-70.2301 51.3601,-70.4301 C53.0801,-75.64 53.44,-83.34 52.34,-91.55 C51.3301,-99.1 49.24,-105.81 46.89,-109.06 C45.8601,-110.49 44.8101,-111.22 43.77,-111.22 C42.55,-111.22 40.04,-109.98 37.15,-107.21 C34.85,-105.01 31.5801,-101.12 29.02,-95.1101 C26.02,-88.05 25.8101,-78.5601 26.1601,-71.84 C26.54,-64.57 27.65,-58.8801 27.6601,-58.8301 C27.6801,-58.74 27.94,-57.24 28.39,-54.67 C28.1601,-54.44 27.92,-54.22 27.67,-53.9801 C26.6301,-52.9801 25.44,-51.84 24.0601,-50.4601 C23.2,-49.6 22.25,-48.69 21.25,-47.72 C12.79,-39.57 0,-27.25 0,-8.1 C0,-3.4 0.9,1.01992 2.68008,5.02998 C4.27002,8.62998 6.57002,11.91 9.5,14.78 C17.2301,22.33 27.82,25.5399 34.8801,25.38 C37.8301,25.31 40.4601,25.0699 42.85,24.6199 C44.6801,34.2199 45.82,41.25 45.8601,46.5899 C45.9,53.1 44.25,57.0699 40.35,59.8399 C37.92,61.5699 35.1101,62.5199 32.0101,62.6699 C29.42,62.7899 27.1601,62.3199 25.7301,61.91 L25.72,61.91 C25.72,61.91 25.4301,61.83 25.42,61.63 C25.4101,61.45 25.7601,61.4 25.77,61.4 L25.79,61.4 C27.7101,60.96 31.2801,59.73 33.64,56.43 C35.44,53.91 36.3101,49.2899 34.47,45.35 C33.3601,42.96 30.85,40.01 25.2301,39.56 C22.74,39.36 20.47,39.8699 18.47,41.0699 C16.6601,42.15 15.1601,43.7899 14.1101,45.7899 C11.65,50.4899 12.1101,56.2199 15.24,60.06 C18.2,63.68 22.82,65.9899 28.25,66.5699 C29.1,66.66 29.95,66.7 30.8,66.7 C31.5101,66.7 32.22,66.6699 32.92,66.61 C31.72,66.9399 30.64,67.4899 29.77,68.25 C28.2801,69.5399 27.44,71.38 27.44,73.41 C27.44,75.28 28.0601,76.65 29.55,78.0399 C28.4101,78.5 27.55,78.98 26.79,79.56 C25.25,80.73 24.34,82.46 24.34,84.1899 C24.34,87.45 27.3,89.63 31.72,89.63 C37.1301,89.63 40.9101,86.63 40.9101,82.35 C40.9101,80.1199 39.9101,78.18 38.0801,76.83 C41.0101,75.6199 42.37,73.9399 42.37,71.56 C42.39,70.05 41.69,68.61 40.49,67.6899 C39.2801,66.7399 37.62,66.2399 35.69,66.2399 L35.5101,66.2399 C38.2801,65.7 40.92,64.7 43.2101,63.28 C46.87,60.71 48.99,56.73 49.67,51.1 C50.2301,46.46 49.84,40.55 48.44,32.48 C48.0801,30.3899 47.54,27.36 46.8801,23.6 C52.6301,21.68 56.79,18.11 60.5601,12.26 C63.85,6.51992 64.8,0.419922 63.37,-5.89004 M32.39,87.5399 C30.19,87.5399 28.7301,86.1199 28.7301,84.01 C28.7301,82.11 29.65,80.5 31.32,79.4699 C31.6801,79.66 31.77,79.71 32.1101,79.88 C33.3,80.48 33.3,80.48 33.55,80.63 L33.5601,80.6399 C35.47,81.73 36.25,82.76 36.25,84.18 C36.24,86.0899 34.59,87.5399 32.39,87.5399 M38.3101,71.63 C38.3101,73.2699 37.7301,74.3399 36.1801,75.53 C34.74,74.78 34.35,74.56 33.9801,74.3399 L33.8801,74.28 C32.3301,73.3399 31.85,72.66 31.85,71.4 C31.85,69.6 33.2301,68.3399 35.19,68.3399 C37.17,68.35 38.3101,69.55 38.3101,71.63 M33.15,-83.8101 C34.9301,-89.55 37.67,-92.8 39.6601,-94.5301 C41.4101,-96.05 43.0601,-96.7601 43.9801,-96.7601 C44.12,-96.7601 44.24,-96.74 44.34,-96.7101 C44.8,-96.57 45.3301,-96 45.8,-95.1301 C48.1101,-90.84 47.37,-84.1301 46.0301,-79.69 C44.4,-74.29 41.4801,-68.6801 32.69,-59.0601 C32.52,-60.17 32.3601,-61.22 32.2101,-62.2 C30.95,-70.49 31.27,-77.7601 33.15,-83.8101 M29.15,20.31 C24.5101,19.0899 20.0801,16.5899 16.32,13.0899 C15.0101,11.86 13.14,9.68994 11.67,6.3 C10.3101,3.13994 9.65,-0.290039 9.7,-3.88008 C9.77002,-8.57002 11.0801,-13.39 13.59,-18.1801 C16.5101,-23.7601 21.07,-29.29 27.1301,-34.62 C28.5801,-35.9 29.95,-37.1801 31.24,-38.4601 C32,-34.2 32.8301,-29.5101 33.7101,-24.6301 C29.8601,-23.3601 25.1101,-20.2101 22,-14.5601 C18.47,-7.99004 18.6101,-2.47002 19.34,1.00996 C20.2801,5.46992 22.8101,9.22998 26.27,11.3199 C27.2,11.88 31.3301,14.01 33.17,13.43 C33.54,13.31 33.8101,13.0899 33.95,12.76 C34.4601,11.5899 33.44,10.95 31.8801,9.98994 C31.2801,9.61992 30.6101,9.2 29.8801,8.66992 C26.5601,6.17998 25.1101,1.72998 26.1801,-2.65 C26.7601,-5.05 28.04,-7.21006 29.8801,-8.91006 C31.55,-10.4601 33.59,-11.5601 35.97,-12.2 C38.0101,-0.960059 40.07,10.1899 41.7101,18.55 C41.84,19.2399 41.9801,19.91 42.1101,20.58 C37.7101,21.51 33.37,21.4199 29.15,20.31 M54.9,10.1 C53.7301,13.28 51.27,17.35 46.14,19.41 C46.07,18.9899 45.99,18.56 45.9101,18.13 C44.3601,9.36992 42.4301,-1.61006 40.47,-12.87 C50.82,-13.35 55.09,-5.91006 55.9801,-1.08008 C56.45,1.45 56.45,5.88994 54.9,10.1"/>
<path class="KeySig" transform="matrix(2.3811,0,0,2.3811,489.312,2106.14)" d="M20.1,-7.9 C19.5,-11.8 17.1,-15.5 12,-15.5 C7,-15.5 4.1,-12.4 3.6,-11.8 L4,-43.9 C4,-44.7 3.4,-45.3 2.6,-45.3 L1.4,-45.3 C0.6,-45.3 0,-44.7 0,-43.9 L0.5,16.2 C0.5,17 1.1,17.6 1.9,17.6 C2.1,17.6 2.5,17.5 2.7,17.4 C3.1,17.2 9.6,14 15,7.9 C18.8,3.6 20.3,-1.3 20.3,-5.4 C20.3,-6.3 20.2,-7.1 20.1,-7.9 M13.2,-4 C13.2,-2.5 12.8,2.1 10.3,5.9 C8.6,8.5 5.2,11.2 3.3,12.7 L3.6,-6.8 C3.8,-7.7 5.3,-10.6 9.3,-10.6 C12.9,-10.6 13.2,-7.2 13.2,-5.1 L13.2,-4 "/>
<path class="KeySig" transform="matrix(2.3811,0,0,2.3811,429.785,2195.43)" d="M20.1,-7.9 C19.5,-11.8 17.1,-15.5 12,-15.5 C7,-15.5 4.1,-12.4 3.6,-11.8 L4,-43.9 C4,-44.7 3.4,-45.3 2.6,-45.3 L1.4,-45.3 C0.6,-45.3 0,-44.7 0,-43.9 L0.5,16.2 C0.5,17 1.1,17.6 1.9,17.6 C2.1,17.6 2.5,17.5 2.7,17.4 C3.1,17.2 9.6,14 15,7.9 C18.8,3.6 20.3,-1.3 20.3,-5.4 C20.3,-6.3 20.2,-7.1 20.1,-7.9 M13.2,-4 C13.2,-2.5 12.8,2.1 10.3,5.9 C8.6,8.5 5.2,11.2 3.3,12.7 L3.6,-6.8 C3.8,-7.7 5.3,-10.6 9.3,-10.6 C12.9,-10.6 13.2,-7.2 13.2,-5.1 L13.2,-4 "/>
<path class="KeySig" transform="matrix(2.3811,0,0,2.3811,489.312,1421.57)" d="M20.1,-7.9 C19.5,-11.8 17.1,-15.5 12,-15.5 C7,-15.5 4.1,-12.4 3.6,-11.8 L4,-43.9 C4,-44.7 3.4,-45.3 2.6,-45.3 L1.4,-45.3 C0.6,-45.3 0,-44.7 0,-43.9 L0.5,16.2 C0.5,17 1.1,17.6 1.9,17.6 C2.1,17.6 2.5,17.5 2.7,17.4 C3.1,17.2 9.6,14 15,7.9 C18.8,3.6 20.3,-1.3 20.3,-5.4 C20.3,-6.3 20.2,-7.1 20.1,-7.9 M13.2,-4 C13.2,-2.5 12.8,2.1 10.3,5.9 C8.6,8.5 5.2,11.2 3.3,12.7 L3.6,-6.8 C3.8,-7.7 5.3,-10.6 9.3,-10.6 C12.9,-10.6 13.2,-7.2 13.2,-5.1 L13.2,-4 "/>
<path class="KeySig" transform="matrix(2.3811,0,0,2.3811,429.785,1510.87)" d="M20.1,-7.9 C19.5,-11.8 17.1,-15.5 12,-15.5 C7,-15.5 4.1,-12.4 3.6,-11.8 L4,-43.9 C4,-44.7 3.4,-45.3 2.6,-45.3 L1.4,-45.3 C0.6,-45.3 0,-44.7 0,-43.9 L0.5,16.2 C0.5,17 1.1,17.6 1.9,17.6 C2.1,17.6 2.5,17.5 2.7,17.4 C3.1,17.2 9.6,14 15,7.9 C18.8,3.6 20.3,-1.3 20.3,-5.4 C20.3,-6.3 20.2,-7.1 20.1,-7.9 M13.2,-4 C13.2,-2.5 12.8,2.1 10.3,5.9 C8.6,8.5 5.2,11.2 3.3,12.7 L3.6,-6.8 C3.8,-7.7 5.3,-10.6 9.3,-10.6 C12.9,-10.6 13.2,-7.2 13.2,-5.1 L13.2,-4 "/>
<path class="FiguredBass" d="M1059.64,2444.42 C1058.96,2445.16 1058.07,2445.53 1056.95,2445.53 C1055.84,2445.53 1054.93,2445.15 1054.22,2444.37 C1053.51,2443.6 1053.15,2442.72 1053.15,2441.73 L1053.15,2428.46 L1039.88,2428.46 C1038.77,2428.46 1037.86,2428.08 1037.15,2427.3 C1036.44,2426.53 1036.08,2425.65 1036.08,2424.66 C1036.08,2423.67 1036.44,2422.79 1037.15,2422.01 C1037.86,2421.24 1038.77,2420.85 1039.88,2420.85 L1053.15,2420.85 L1053.15,2407.59 C1053.15,2406.6 1053.51,2405.72 1054.22,2404.94 C1054.93,2404.17 1055.84,2403.78 1056.95,2403.78 C1058.07,2403.78 1058.98,2404.17 1059.69,2404.94 C1060.4,2405.72 1060.76,2406.6 1060.76,2407.59 L1060.76,2420.85 L1074.02,2420.85 C1075.14,2420.85 1076.05,2421.24 1076.76,2422.01 C1077.47,2422.79 1077.83,2423.67 1077.83,2424.66 C1077.83,2425.65 1077.47,2426.53 1076.76,2427.3 C1076.05,2428.08 1075.14,2428.46 1074.02,2428.46 L1060.76,2428.46 L1060.76,2441.73 C1060.76,2442.72 1060.39,2443.62 1059.64,2444.42 M1113.07,2390.15 C1108.49,2390.15 1105.44,2391.99 1103.93,2395.67 C1102.41,2399.35 1101.66,2404.56 1101.66,2411.3 L1101.66,2422.25 C1104.87,2420.95 1107.66,2420.27 1110.01,2420.21 C1118.05,2420.21 1124.37,2421.98 1128.98,2425.54 C1133.59,2429.1 1135.89,2434.38 1135.89,2441.4 C1135.89,2448.42 1133.56,2453.73 1128.89,2457.31 C1124.22,2460.9 1117.92,2462.7 1110.01,2462.7 C1101.9,2462.7 1095.56,2458.94 1090.99,2451.42 C1086.41,2443.91 1084.12,2434.99 1084.12,2424.66 C1084.12,2414.39 1086.78,2405.49 1092.1,2397.94 C1097.42,2390.39 1104.41,2386.62 1113.07,2386.62 C1118.76,2386.62 1123.67,2388.06 1127.82,2390.94 C1131.96,2393.81 1134.03,2397.6 1134.03,2402.3 C1134.03,2405.02 1133.04,2407.37 1131.07,2409.35 C1129.09,2411.33 1126.72,2412.32 1123.97,2412.32 C1121.22,2412.32 1118.85,2411.33 1116.87,2409.35 C1114.89,2407.37 1113.9,2405.02 1113.9,2402.3 C1113.9,2399.64 1114.89,2397.29 1116.87,2395.25 C1117.55,2394.45 1118.51,2393.76 1119.75,2393.21 C1119.44,2392.4 1118.82,2391.79 1117.89,2391.35 C1116.53,2390.55 1114.92,2390.15 1113.07,2390.15 M1117.61,2428.09 C1116.5,2425.18 1114.06,2423.73 1110.28,2423.73 C1106.51,2423.73 1104.18,2425.18 1103.28,2428.09 C1102.38,2431 1101.93,2435.42 1101.93,2441.36 C1101.93,2448.35 1102.38,2453.05 1103.28,2455.46 C1104.18,2457.87 1106.51,2459.08 1110.28,2459.08 C1114.06,2459.08 1116.5,2457.62 1117.61,2454.72 C1118.73,2451.81 1119.28,2447.37 1119.28,2441.4 C1119.28,2435.44 1118.73,2431 1117.61,2428.09"/>
<path class="FiguredBass" d="M1591.2,2421.73 C1586.62,2421.73 1583.58,2423.57 1582.06,2427.25 C1580.54,2430.93 1579.79,2436.14 1579.79,2442.89 L1579.79,2453.83 C1583,2452.53 1585.79,2451.85 1588.14,2451.79 C1596.18,2451.79 1602.5,2453.57 1607.11,2457.13 C1611.72,2460.68 1614.02,2465.97 1614.02,2472.99 C1614.02,2480.01 1611.69,2485.31 1607.02,2488.9 C1602.35,2492.49 1596.05,2494.28 1588.14,2494.28 C1580.03,2494.28 1573.69,2490.52 1569.12,2483.01 C1564.54,2475.5 1562.25,2466.57 1562.25,2456.25 C1562.25,2445.98 1564.91,2437.07 1570.23,2429.53 C1575.55,2421.98 1582.54,2418.21 1591.2,2418.21 C1596.89,2418.21 1601.81,2419.65 1605.95,2422.52 C1610.09,2425.4 1612.16,2429.19 1612.16,2433.89 C1612.16,2436.61 1611.18,2438.96 1609.2,2440.94 C1607.22,2442.92 1604.85,2443.91 1602.1,2443.91 C1599.35,2443.91 1596.98,2442.92 1595,2440.94 C1593.02,2438.96 1592.03,2436.61 1592.03,2433.89 C1592.03,2431.23 1593.02,2428.88 1595,2426.84 C1595.68,2426.03 1596.64,2425.35 1597.88,2424.8 C1597.57,2423.99 1596.95,2423.37 1596.02,2422.94 C1594.66,2422.14 1593.05,2421.73 1591.2,2421.73 M1595.74,2459.68 C1594.63,2456.77 1592.19,2455.32 1588.41,2455.32 C1584.64,2455.32 1582.31,2456.77 1581.41,2459.68 C1580.51,2462.58 1580.07,2467.01 1580.07,2472.94 C1580.07,2479.93 1580.51,2484.63 1581.41,2487.05 C1582.31,2489.46 1584.64,2490.66 1588.41,2490.66 C1592.19,2490.66 1594.63,2489.21 1595.74,2486.3 C1596.86,2483.4 1597.41,2478.96 1597.41,2472.99 C1597.41,2467.02 1596.86,2462.58 1595.74,2459.68"/>
<path class="FiguredBass" d="M2139.76,2392.53 C2135.19,2392.53 2132.14,2394.37 2130.63,2398.05 C2129.11,2401.73 2128.35,2406.94 2128.35,2413.68 L2128.35,2424.63 C2131.57,2423.33 2134.35,2422.65 2136.7,2422.59 C2144.74,2422.59 2151.07,2424.36 2155.67,2427.92 C2160.28,2431.48 2162.59,2436.77 2162.59,2443.79 C2162.59,2450.8 2160.25,2456.11 2155.58,2459.7 C2150.91,2463.28 2144.62,2465.08 2136.7,2465.08 C2128.6,2465.08 2122.26,2461.32 2117.68,2453.8 C2113.11,2446.29 2110.82,2437.37 2110.82,2427.04 C2110.82,2416.77 2113.48,2407.87 2118.8,2400.32 C2124.12,2392.78 2131.11,2389 2139.76,2389 C2145.45,2389 2150.37,2390.44 2154.52,2393.32 C2158.66,2396.19 2160.73,2399.98 2160.73,2404.68 C2160.73,2407.4 2159.74,2409.75 2157.76,2411.73 C2155.78,2413.71 2153.42,2414.7 2150.66,2414.7 C2147.91,2414.7 2145.55,2413.71 2143.57,2411.73 C2141.59,2409.75 2140.6,2407.4 2140.6,2404.68 C2140.6,2402.02 2141.59,2399.67 2143.57,2397.63 C2144.25,2396.83 2145.21,2396.15 2146.44,2395.59 C2146.13,2394.79 2145.52,2394.17 2144.59,2393.73 C2143.23,2392.93 2141.62,2392.53 2139.76,2392.53 M2144.31,2430.47 C2143.2,2427.57 2140.75,2426.11 2136.98,2426.11 C2133.21,2426.11 2130.87,2427.57 2129.98,2430.47 C2129.08,2433.38 2128.63,2437.8 2128.63,2443.74 C2128.63,2450.73 2129.08,2455.43 2129.98,2457.84 C2130.87,2460.25 2133.21,2461.46 2136.98,2461.46 C2140.75,2461.46 2143.2,2460 2144.31,2457.1 C2145.42,2454.19 2145.98,2449.75 2145.98,2443.79 C2145.98,2437.82 2145.42,2433.38 2144.31,2430.47"/>
<path class="FiguredBass" d="M2117.13,2494.75 C2117.13,2494.75 2118.61,2494.97 2121.58,2495.4 C2122.88,2495.59 2124.33,2495.77 2125.94,2495.96 C2130.21,2496.45 2134.32,2496.7 2138.28,2496.7 C2142.24,2496.7 2146.41,2496.45 2150.8,2495.96 C2152.54,2495.77 2154.05,2495.59 2155.35,2495.4 L2159.9,2494.75 C2160.82,2494.75 2161.52,2495.06 2161.98,2495.68 C2162.45,2496.3 2162.4,2496.79 2161.84,2497.16 C2152.38,2506.63 2139.05,2511.36 2121.86,2511.36 C2121.18,2511.36 2120.58,2511.61 2120.05,2512.1 C2119.52,2512.6 2119.26,2513.21 2119.26,2513.96 L2119.26,2528.52 C2123.65,2524.19 2128.97,2522.03 2135.22,2522.03 C2144.25,2522.03 2151.22,2524.05 2156.14,2528.1 C2161.06,2532.16 2163.51,2538.29 2163.51,2546.52 C2163.51,2553.51 2160.73,2559.31 2155.16,2563.91 C2149.6,2568.52 2142.95,2570.83 2135.22,2570.83 C2128.54,2570.83 2122.74,2569.31 2117.82,2566.28 C2112.91,2563.25 2110.45,2559.04 2110.45,2553.66 C2110.45,2550.94 2111.44,2548.58 2113.42,2546.57 C2115.4,2544.56 2117.76,2543.55 2120.51,2543.55 C2123.27,2543.55 2125.6,2544.54 2127.52,2546.52 C2129.44,2548.5 2130.39,2550.88 2130.39,2553.66 C2130.39,2554.9 2129.37,2556.25 2127.33,2557.7 C2125.29,2559.15 2124.27,2560.5 2124.27,2561.73 C2124.27,2565.45 2127.92,2567.3 2135.22,2567.3 C2142.33,2567.3 2145.89,2560.37 2145.89,2546.52 C2145.89,2533.16 2142.33,2526.45 2135.22,2526.39 C2128.85,2526.39 2124.39,2527.69 2121.86,2530.28 C2119.32,2532.88 2117.75,2534.18 2117.13,2534.18 C2115.58,2534.18 2114.84,2533.41 2114.9,2531.86 L2114.9,2497.16 C2114.9,2496.48 2115.12,2495.91 2115.55,2495.45 C2115.98,2494.98 2116.51,2494.75 2117.13,2494.75"/>
<path class="FiguredBass" d="M2947.79,2390.15 C2943.21,2390.15 2940.16,2391.99 2938.65,2395.67 C2937.13,2399.35 2936.37,2404.56 2936.37,2411.3 L2936.37,2422.25 C2939.59,2420.95 2942.37,2420.27 2944.72,2420.21 C2952.76,2420.21 2959.09,2421.98 2963.7,2425.54 C2968.3,2429.1 2970.61,2434.38 2970.61,2441.4 C2970.61,2448.42 2968.27,2453.73 2963.6,2457.31 C2958.93,2460.9 2952.64,2462.7 2944.72,2462.7 C2936.62,2462.7 2930.28,2458.94 2925.71,2451.42 C2921.13,2443.91 2918.84,2434.99 2918.84,2424.66 C2918.84,2414.39 2921.5,2405.49 2926.82,2397.94 C2932.14,2390.39 2939.13,2386.62 2947.79,2386.62 C2953.48,2386.62 2958.39,2388.06 2962.54,2390.94 C2966.68,2393.81 2968.75,2397.6 2968.75,2402.3 C2968.75,2405.02 2967.76,2407.37 2965.78,2409.35 C2963.8,2411.33 2961.44,2412.32 2958.69,2412.32 C2955.93,2412.32 2953.57,2411.33 2951.59,2409.35 C2949.61,2407.37 2948.62,2405.02 2948.62,2402.3 C2948.62,2399.64 2949.61,2397.29 2951.59,2395.25 C2952.27,2394.45 2953.23,2393.76 2954.47,2393.21 C2954.16,2392.4 2953.54,2391.79 2952.61,2391.35 C2951.25,2390.55 2949.64,2390.15 2947.79,2390.15 M2952.33,2428.09 C2951.22,2425.18 2948.78,2423.73 2945,2423.73 C2941.23,2423.73 2938.9,2425.18 2938,2428.09 C2937.1,2431 2936.65,2435.42 2936.65,2441.36 C2936.65,2448.35 2937.1,2453.05 2938,2455.46 C2938.9,2457.87 2941.23,2459.08 2945,2459.08 C2948.78,2459.08 2951.22,2457.62 2952.33,2454.72 C2953.45,2451.81 2954,2447.37 2954,2441.4 C2954,2435.44 2953.45,2431 2952.33,2428.09"/>
<path class="FiguredBass" d="M3352.92,2390.15 C3348.35,2390.15 3345.3,2391.99 3343.78,2395.67 C3342.27,2399.35 3341.51,2404.56 3341.51,2411.3 L3341.51,2422.25 C3344.73,2420.95 3347.51,2420.27 3349.86,2420.21 C3357.9,2420.21 3364.23,2421.98 3368.83,2425.54 C3373.44,2429.1 3375.74,2434.38 3375.74,2441.4 C3375.74,2448.42 3373.41,2453.73 3368.74,2457.31 C3364.07,2460.9 3357.78,2462.7 3349.86,2462.7 C3341.76,2462.7 3335.42,2458.94 3330.84,2451.42 C3326.27,2443.91 3323.98,2434.99 3323.98,2424.66 C3323.98,2414.39 3326.64,2405.49 3331.96,2397.94 C3337.27,2390.39 3344.26,2386.62 3352.92,2386.62 C3358.61,2386.62 3363.53,2388.06 3367.67,2390.94 C3371.82,2393.81 3373.89,2397.6 3373.89,2402.3 C3373.89,2405.02 3372.9,2407.37 3370.92,2409.35 C3368.94,2411.33 3366.58,2412.32 3363.82,2412.32 C3361.07,2412.32 3358.71,2411.33 3356.73,2409.35 C3354.75,2407.37 3353.76,2405.02 3353.76,2402.3 C3353.76,2399.64 3354.75,2397.29 3356.73,2395.25 C3357.41,2394.45 3358.36,2393.76 3359.6,2393.21 C3359.29,2392.4 3358.67,2391.79 3357.75,2391.35 C3356.39,2390.55 3354.78,2390.15 3352.92,2390.15 M3357.47,2428.09 C3356.35,2425.18 3353.91,2423.73 3350.14,2423.73 C3346.37,2423.73 3344.03,2425.18 3343.13,2428.09 C3342.24,2431 3341.79,2435.42 3341.79,2441.36 C3341.79,2448.35 3342.24,2453.05 3343.13,2455.46 C3344.03,2457.87 3346.37,2459.08 3350.14,2459.08 C3353.91,2459.08 3356.35,2457.62 3357.47,2454.72 C3358.58,2451.81 3359.14,2447.37 3359.14,2441.4 C3359.14,2435.44 3358.58,2431 3357.47,2428.09"/>
<path class="FiguredBass" d="M3330.29,2492.37 L3334.74,2493.02 C3335.91,2493.21 3337.37,2493.39 3339.1,2493.58 C3343.37,2494.07 3347.48,2494.32 3351.44,2494.32 C3355.4,2494.32 3359.57,2494.07 3363.96,2493.58 C3365.69,2493.39 3367.21,2493.21 3368.51,2493.02 L3373.05,2492.37 C3373.98,2492.37 3374.69,2492.68 3375.19,2493.3 C3375.56,2493.79 3375.5,2494.29 3375,2494.78 C3365.35,2504.25 3352.03,2508.98 3335.02,2508.98 C3334.34,2508.98 3333.73,2509.23 3333.21,2509.72 C3332.68,2510.21 3332.42,2510.83 3332.42,2511.58 L3332.42,2523.36 C3336.81,2519.03 3342.13,2516.86 3348.38,2516.86 C3357.1,2516.86 3363.9,2518.9 3368.79,2522.99 C3374.11,2518.97 3376.89,2513.83 3377.14,2507.59 C3377.2,2505.61 3377.85,2504 3379.08,2502.76 C3380.44,2501.52 3382.08,2500.91 3384,2500.91 C3385.92,2500.91 3387.54,2501.56 3388.87,2502.85 C3390.2,2504.15 3390.87,2505.73 3390.87,2507.59 C3390.87,2517.17 3385.21,2524.44 3373.89,2529.39 C3375.74,2533.04 3376.67,2537.49 3376.67,2542.75 C3376.67,2549.74 3373.89,2555.77 3368.32,2560.84 C3362.76,2565.91 3356.11,2568.45 3348.38,2568.45 C3341.7,2568.45 3335.9,2566.93 3330.98,2563.9 C3326.06,2560.87 3323.61,2556.66 3323.61,2551.28 C3323.61,2548.56 3324.6,2546.2 3326.57,2544.19 C3328.55,2542.18 3330.92,2541.17 3333.67,2541.17 C3336.42,2541.17 3338.76,2542.16 3340.68,2544.14 C3342.59,2546.12 3343.55,2548.5 3343.55,2551.28 C3343.55,2552.52 3342.53,2553.86 3340.49,2555.32 C3338.45,2556.77 3337.43,2558.12 3337.43,2559.35 C3337.43,2563.06 3341.08,2564.92 3348.38,2564.92 C3355.49,2564.92 3359.05,2557.53 3359.05,2542.75 C3359.05,2539.47 3358.86,2536.59 3358.49,2534.12 C3351,2535.67 3341.63,2536.87 3330.38,2537.74 C3328.83,2537.86 3328.06,2537.09 3328.06,2535.42 C3328.06,2534.06 3328.83,2533.32 3330.38,2533.19 C3341.76,2532.26 3350.73,2530.78 3357.28,2528.74 C3355.55,2523.79 3352.58,2521.29 3348.38,2521.22 C3342.01,2521.22 3337.55,2522.52 3335.02,2525.12 C3332.48,2527.72 3330.9,2529.02 3330.29,2529.02 C3328.8,2529.02 3328.06,2528.24 3328.06,2526.7 L3328.06,2494.78 C3328.06,2494.16 3328.28,2493.61 3328.71,2493.11 C3329.2,2492.62 3329.73,2492.37 3330.29,2492.37"/>
<path class="Bracket" transform="matrix(8.6315,0,0,8.6315,76.1283,2254.96)" d="M0.92002,-50 C2.69004,-51.88 6.2,-55.8 6.2,-63 C6.2,-72.1 2.25996,-81.32 2.25996,-86.97 C2.25996,-93.06 5.84004,-98.84 5.95,-99 C6.05996,-99.16 6.05,-99.39 5.94004,-99.46 C5.82998,-99.53 5.62002,-99.47 5.49004,-99.32 C5.35996,-99.17 0,-93.75 0,-85.6 C0,-76.75 3.5,-70.58 3.5,-59.07 C3.5,-56.89 2.55996,-53.36 0.1,-50.33 C-0.0799805,-50.17 -0.1,-49.89 0.0599609,-49.7 L0.0700195,-49.69 L0.1,-49.66 C2.55996,-46.63 3.5,-43.1 3.5,-40.92 C3.5,-29.4 0,-23.24 0,-14.39 C0,-6.25 5.35996,-0.8 5.49004,-0.659961 C5.62002,-0.52002 5.8,-0.42998 5.94004,-0.52002 C6.07998,-0.609961 6.07998,-0.77998 5.95,-0.97998 C5.82002,-1.17998 2.25996,-6.92002 2.25996,-13.01 C2.25996,-18.66 6.2,-27.9 6.2,-37 C6.2,-44.3 2.69004,-48.12 0.92002,-50"/>
</svg>
