<?xml version="1.0" encoding="UTF-8" standalone="no"?>
<svg width="4209.44px" height="2976.38px" viewBox="0 0 4209.44 2976.38"
 xmlns="http://www.w3.org/2000/svg" xmlns:xlink="http://www.w3.org/1999/xlink" version="1.2" baseProfile="tiny">
<title>SiMineur (4)</title>
<desc>Generated by MuseScore 3.6.2</desc>
<polyline class="StaffLines" fill="none" stroke="#000000" stroke-width="6.55" stroke-linejoin="bevel" points="153.819,558.425 4138.58,558.425"/>
<polyline class="StaffLines" fill="none" stroke="#000000" stroke-width="6.55" stroke-linejoin="bevel" points="153.819,647.717 4138.58,647.717"/>
<polyline class="StaffLines" fill="none" stroke="#000000" stroke-width="6.55" stroke-linejoin="bevel" points="153.819,737.008 4138.58,737.008"/>
<polyline class="StaffLines" fill="none" stroke="#000000" stroke-width="6.55" stroke-linejoin="bevel" points="153.819,826.299 4138.58,826.299"/>
<polyline class="StaffLines" fill="none" stroke="#000000" stroke-width="6.55" stroke-linejoin="bevel" points="153.819,915.591 4138.58,915.591"/>
<polyline class="StaffLines" fill="none" stroke="#000000" stroke-width="6.55" stroke-linejoin="bevel" points="153.819,1004.88 4138.58,1004.88"/>
<polyline class="StaffLines" fill="none" stroke="#000000" stroke-width="6.55" stroke-linejoin="bevel" points="153.819,1391.81 4138.58,1391.81"/>
<polyline class="StaffLines" fill="none" stroke="#000000" stroke-width="6.55" stroke-linejoin="bevel" points="153.819,1451.34 4138.58,1451.34"/>
<polyline class="StaffLines" fill="none" stroke="#000000" stroke-width="6.55" stroke-linejoin="bevel" points="153.819,1510.87 4138.58,1510.87"/>
<polyline class="StaffLines" fill="none" stroke="#000000" stroke-width="6.55" stroke-linejoin="bevel" points="153.819,1570.39 4138.58,1570.39"/>
<polyline class="StaffLines" fill="none" stroke="#000000" stroke-width="6.55" stroke-linejoin="bevel" points="153.819,1629.92 4138.58,1629.92"/>
<polyline class="StaffLines" fill="none" stroke="#000000" stroke-width="6.55" stroke-linejoin="bevel" points="153.819,2016.85 4138.58,2016.85"/>
<polyline class="StaffLines" fill="none" stroke="#000000" stroke-width="6.55" stroke-linejoin="bevel" points="153.819,2076.38 4138.58,2076.38"/>
<polyline class="StaffLines" fill="none" stroke="#000000" stroke-width="6.55" stroke-linejoin="bevel" points="153.819,2135.91 4138.58,2135.91"/>
<polyline class="StaffLines" fill="none" stroke="#000000" stroke-width="6.55" stroke-linejoin="bevel" points="153.819,2195.43 4138.58,2195.43"/>
<polyline class="StaffLines" fill="none" stroke="#000000" stroke-width="6.55" stroke-linejoin="bevel" points="153.819,2254.96 4138.58,2254.96"/>
<polyline class="BarLine" fill="none" stroke="#000000" stroke-width="10.71" stroke-linejoin="bevel" points="159.176,2013.58 159.176,2258.23"/>
<polyline class="BarLine" fill="none" stroke="#000000" stroke-width="10.71" stroke-linejoin="bevel" points="1014.28,2013.58 1014.28,2258.23"/>
<polyline class="BarLine" fill="none" stroke="#000000" stroke-width="10.71" stroke-linejoin="bevel" points="1433.68,2013.58 1433.68,2258.23"/>
<polyline class="BarLine" fill="none" stroke="#000000" stroke-width="10.71" stroke-linejoin="bevel" points="1931.78,2013.58 1931.78,2258.23"/>
<polyline class="BarLine" fill="none" stroke="#000000" stroke-width="10.71" stroke-linejoin="bevel" points="2374.24,2013.58 2374.24,2258.23"/>
<polyline class="BarLine" fill="none" stroke="#000000" stroke-width="10.71" stroke-linejoin="bevel" points="2816.7,2013.58 2816.7,2258.23"/>
<polyline class="BarLine" fill="none" stroke="#000000" stroke-width="10.71" stroke-linejoin="bevel" points="3237.28,2013.58 3237.28,2258.23"/>
<polyline class="BarLine" fill="none" stroke="#000000" stroke-width="10.71" stroke-linejoin="bevel" points="3679.74,2013.58 3679.74,2258.23"/>
<polyline class="BarLine" fill="none" stroke="#000000" stroke-width="10.71" stroke-linejoin="bevel" points="4080.54,2013.58 4080.54,2258.23"/>
<polyline class="BarLine" fill="none" stroke="#000000" stroke-width="32.74" stroke-linejoin="bevel" points="4122.21,2013.58 4122.21,2258.23"/>
<polyline class="BarLine" fill="none" stroke="#000000" stroke-width="10.71" stroke-linejoin="bevel" points="159.176,1388.54 159.176,2016.85"/>
<polyline class="BarLine" fill="none" stroke="#000000" stroke-width="10.71" stroke-linejoin="bevel" points="1014.28,1388.54 1014.28,1633.2"/>
<polyline class="BarLine" fill="none" stroke="#000000" stroke-width="10.71" stroke-linejoin="bevel" points="1433.68,1388.54 1433.68,1633.2"/>
<polyline class="BarLine" fill="none" stroke="#000000" stroke-width="10.71" stroke-linejoin="bevel" points="1931.78,1388.54 1931.78,1633.2"/>
<polyline class="BarLine" fill="none" stroke="#000000" stroke-width="10.71" stroke-linejoin="bevel" points="2374.24,1388.54 2374.24,1633.2"/>
<polyline class="BarLine" fill="none" stroke="#000000" stroke-width="10.71" stroke-linejoin="bevel" points="2816.7,1388.54 2816.7,1633.2"/>
<polyline class="BarLine" fill="none" stroke="#000000" stroke-width="10.71" stroke-linejoin="bevel" points="3237.28,1388.54 3237.28,1633.2"/>
<polyline class="BarLine" fill="none" stroke="#000000" stroke-width="10.71" stroke-linejoin="bevel" points="3679.74,1388.54 3679.74,1633.2"/>
<polyline class="BarLine" fill="none" stroke="#000000" stroke-width="10.71" stroke-linejoin="bevel" points="4080.54,1388.54 4080.54,1633.2"/>
<polyline class="BarLine" fill="none" stroke="#000000" stroke-width="32.74" stroke-linejoin="bevel" points="4122.21,1388.54 4122.21,1633.2"/>
<polyline class="BarLine" fill="none" stroke="#000000" stroke-width="10.71" stroke-linejoin="bevel" points="159.176,555.151 159.176,1391.81"/>
<polyline class="BarLine" fill="none" stroke="#000000" stroke-width="10.71" stroke-linejoin="bevel" points="1014.28,555.151 1014.28,1008.16"/>
<polyline class="BarLine" fill="none" stroke="#000000" stroke-width="10.71" stroke-linejoin="bevel" points="1433.68,555.151 1433.68,1008.16"/>
<polyline class="BarLine" fill="none" stroke="#000000" stroke-width="10.71" stroke-linejoin="bevel" points="1931.78,555.151 1931.78,1008.16"/>
<polyline class="BarLine" fill="none" stroke="#000000" stroke-width="10.71" stroke-linejoin="bevel" points="2374.24,555.151 2374.24,1008.16"/>
<polyline class="BarLine" fill="none" stroke="#000000" stroke-width="10.71" stroke-linejoin="bevel" points="2816.7,555.151 2816.7,1008.16"/>
<polyline class="BarLine" fill="none" stroke="#000000" stroke-width="10.71" stroke-linejoin="bevel" points="3237.28,555.151 3237.28,1008.16"/>
<polyline class="BarLine" fill="none" stroke="#000000" stroke-width="10.71" stroke-linejoin="bevel" points="3679.74,555.151 3679.74,1008.16"/>
<polyline class="BarLine" fill="none" stroke="#000000" stroke-width="10.71" stroke-linejoin="bevel" points="4080.54,555.151 4080.54,1008.16"/>
<polyline class="BarLine" fill="none" stroke="#000000" stroke-width="32.74" stroke-linejoin="bevel" points="4122.21,555.151 4122.21,1008.16"/>
<path class="Accidental" transform="matrix(2.3811,0,0,2.3811,1983.21,1540.63)" d="M23.3,-10.6 C23.9,-10.7 24.4,-11.4 24.4,-12 L24.4,-17.9 C24.4,-18.7 23.8,-19.3 23,-19.3 L22.8,-19.3 L19.5,-18.6 L19.5,-33.5 L16.7,-33.5 L16.7,-18 L7.8,-16.2 L7.8,-30.3 L5,-30.3 L5,-15.6 L1.1,-14.8 C0.5,-14.7 0,-14 0,-13.4 L0,-13.2 L0,-7.4 L0,-7.6 C0,-6.8 0.6,-6.2 1.4,-6.2 L1.7,-6.2 L5,-6.9 L5,9.6 L1.1,10.4 C0.5,10.5 0,11.2 0,11.8 L0,17.6 C0,18.4 0.6,19 1.4,19 L1.7,19 L5,18.3 L5,33.2 L7.8,33.2 L7.8,17.7 L16.7,15.9 L16.7,30 L19.5,30 L19.5,15.3 L23.3,14.6 C23.9,14.5 24.4,13.8 24.4,13.2 L24.4,7.3 C24.4,6.5 23.8,5.9 23,5.9 L22.8,5.9 L19.5,6.6 L19.5,-9.9 L23.3,-10.6 M7.8,9.1 L7.8,-7.5 L16.7,-9.3 L16.7,7.2 L7.8,9.1 "/>
<path class="Accidental" transform="matrix(2.3811,0,0,2.3811,2425.67,1540.63)" d="M23.3,-10.6 C23.9,-10.7 24.4,-11.4 24.4,-12 L24.4,-17.9 C24.4,-18.7 23.8,-19.3 23,-19.3 L22.8,-19.3 L19.5,-18.6 L19.5,-33.5 L16.7,-33.5 L16.7,-18 L7.8,-16.2 L7.8,-30.3 L5,-30.3 L5,-15.6 L1.1,-14.8 C0.5,-14.7 0,-14 0,-13.4 L0,-13.2 L0,-7.4 L0,-7.6 C0,-6.8 0.6,-6.2 1.4,-6.2 L1.7,-6.2 L5,-6.9 L5,9.6 L1.1,10.4 C0.5,10.5 0,11.2 0,11.8 L0,17.6 C0,18.4 0.6,19 1.4,19 L1.7,19 L5,18.3 L5,33.2 L7.8,33.2 L7.8,17.7 L16.7,15.9 L16.7,30 L19.5,30 L19.5,15.3 L23.3,14.6 C23.9,14.5 24.4,13.8 24.4,13.2 L24.4,7.3 C24.4,6.5 23.8,5.9 23,5.9 L22.8,5.9 L19.5,6.6 L19.5,-9.9 L23.3,-10.6 M7.8,9.1 L7.8,-7.5 L16.7,-9.3 L16.7,7.2 L7.8,9.1 "/>
<path class="Accidental" transform="matrix(2.3811,0,0,2.3811,3288.71,1540.63)" d="M23.3,-10.6 C23.9,-10.7 24.4,-11.4 24.4,-12 L24.4,-17.9 C24.4,-18.7 23.8,-19.3 23,-19.3 L22.8,-19.3 L19.5,-18.6 L19.5,-33.5 L16.7,-33.5 L16.7,-18 L7.8,-16.2 L7.8,-30.3 L5,-30.3 L5,-15.6 L1.1,-14.8 C0.5,-14.7 0,-14 0,-13.4 L0,-13.2 L0,-7.4 L0,-7.6 C0,-6.8 0.6,-6.2 1.4,-6.2 L1.7,-6.2 L5,-6.9 L5,9.6 L1.1,10.4 C0.5,10.5 0,11.2 0,11.8 L0,17.6 C0,18.4 0.6,19 1.4,19 L1.7,19 L5,18.3 L5,33.2 L7.8,33.2 L7.8,17.7 L16.7,15.9 L16.7,30 L19.5,30 L19.5,15.3 L23.3,14.6 C23.9,14.5 24.4,13.8 24.4,13.2 L24.4,7.3 C24.4,6.5 23.8,5.9 23,5.9 L22.8,5.9 L19.5,6.6 L19.5,-9.9 L23.3,-10.6 M7.8,9.1 L7.8,-7.5 L16.7,-9.3 L16.7,7.2 L7.8,9.1 "/>
<path class="Note" transform="matrix(2.3811,0,0,2.3811,696.226,1987.09)" d="M18.7,-13.6 C4.9,-13.6 0,-6.6 0,-0.1 C0,6.4 4.9,13.4 18.7,13.4 C32.5,13.4 37.3,6.4 37.3,-0.1 C37.3,-6.6 32.5,-13.6 18.7,-13.6 M10.4,-4.5 C10.3,-4.9 10.3,-5.3 10.3,-5.7 C10.3,-6.5 10.5,-7.3 10.9,-8 C11.6,-9 12.8,-9.7 14.3,-10 C15.6,-10.3 16.3,-10.5 18.9,-10.5 L19,-10.5 C23,-10.5 24.3,-6.8 25.4,-3 L25.7,-2 C26.5,0.6 26.9,2.8 26.9,4.5 C26.9,5.7 26.7,6.8 26.3,7.6 C25.7,8.7 24.7,9.4 23,9.8 C22.1,10 20.6,10.1 20.6,10.1 C20.1,10.1 19.7,10.2 19.3,10.2 C16.1,10.2 14.1,9 12.7,4.7 C11.5,1 11.3,-0.1 10.4,-4.5"/>
<path class="Note" transform="matrix(2.3811,0,0,2.3811,1102.74,2016.85)" d="M18.7,-13.6 C4.9,-13.6 0,-6.6 0,-0.1 C0,6.4 4.9,13.4 18.7,13.4 C32.5,13.4 37.3,6.4 37.3,-0.1 C37.3,-6.6 32.5,-13.6 18.7,-13.6 M10.4,-4.5 C10.3,-4.9 10.3,-5.3 10.3,-5.7 C10.3,-6.5 10.5,-7.3 10.9,-8 C11.6,-9 12.8,-9.7 14.3,-10 C15.6,-10.3 16.3,-10.5 18.9,-10.5 L19,-10.5 C23,-10.5 24.3,-6.8 25.4,-3 L25.7,-2 C26.5,0.6 26.9,2.8 26.9,4.5 C26.9,5.7 26.7,6.8 26.3,7.6 C25.7,8.7 24.7,9.4 23,9.8 C22.1,10 20.6,10.1 20.6,10.1 C20.1,10.1 19.7,10.2 19.3,10.2 C16.1,10.2 14.1,9 12.7,4.7 C11.5,1 11.3,-0.1 10.4,-4.5"/>
<path class="Note" transform="matrix(2.3811,0,0,2.3811,1522.14,2046.61)" d="M18.7,-13.6 C4.9,-13.6 0,-6.6 0,-0.1 C0,6.4 4.9,13.4 18.7,13.4 C32.5,13.4 37.3,6.4 37.3,-0.1 C37.3,-6.6 32.5,-13.6 18.7,-13.6 M10.4,-4.5 C10.3,-4.9 10.3,-5.3 10.3,-5.7 C10.3,-6.5 10.5,-7.3 10.9,-8 C11.6,-9 12.8,-9.7 14.3,-10 C15.6,-10.3 16.3,-10.5 18.9,-10.5 L19,-10.5 C23,-10.5 24.3,-6.8 25.4,-3 L25.7,-2 C26.5,0.6 26.9,2.8 26.9,4.5 C26.9,5.7 26.7,6.8 26.3,7.6 C25.7,8.7 24.7,9.4 23,9.8 C22.1,10 20.6,10.1 20.6,10.1 C20.1,10.1 19.7,10.2 19.3,10.2 C16.1,10.2 14.1,9 12.7,4.7 C11.5,1 11.3,-0.1 10.4,-4.5"/>
<path class="Note" transform="matrix(2.3811,0,0,2.3811,2056.19,2076.38)" d="M18.7,-13.6 C4.9,-13.6 0,-6.6 0,-0.1 C0,6.4 4.9,13.4 18.7,13.4 C32.5,13.4 37.3,6.4 37.3,-0.1 C37.3,-6.6 32.5,-13.6 18.7,-13.6 M10.4,-4.5 C10.3,-4.9 10.3,-5.3 10.3,-5.7 C10.3,-6.5 10.5,-7.3 10.9,-8 C11.6,-9 12.8,-9.7 14.3,-10 C15.6,-10.3 16.3,-10.5 18.9,-10.5 L19,-10.5 C23,-10.5 24.3,-6.8 25.4,-3 L25.7,-2 C26.5,0.6 26.9,2.8 26.9,4.5 C26.9,5.7 26.7,6.8 26.3,7.6 C25.7,8.7 24.7,9.4 23,9.8 C22.1,10 20.6,10.1 20.6,10.1 C20.1,10.1 19.7,10.2 19.3,10.2 C16.1,10.2 14.1,9 12.7,4.7 C11.5,1 11.3,-0.1 10.4,-4.5"/>
<path class="Note" transform="matrix(2.3811,0,0,2.3811,2498.65,2106.14)" d="M18.7,-13.6 C4.9,-13.6 0,-6.6 0,-0.1 C0,6.4 4.9,13.4 18.7,13.4 C32.5,13.4 37.3,6.4 37.3,-0.1 C37.3,-6.6 32.5,-13.6 18.7,-13.6 M10.4,-4.5 C10.3,-4.9 10.3,-5.3 10.3,-5.7 C10.3,-6.5 10.5,-7.3 10.9,-8 C11.6,-9 12.8,-9.7 14.3,-10 C15.6,-10.3 16.3,-10.5 18.9,-10.5 L19,-10.5 C23,-10.5 24.3,-6.8 25.4,-3 L25.7,-2 C26.5,0.6 26.9,2.8 26.9,4.5 C26.9,5.7 26.7,6.8 26.3,7.6 C25.7,8.7 24.7,9.4 23,9.8 C22.1,10 20.6,10.1 20.6,10.1 C20.1,10.1 19.7,10.2 19.3,10.2 C16.1,10.2 14.1,9 12.7,4.7 C11.5,1 11.3,-0.1 10.4,-4.5"/>
<path class="Note" transform="matrix(2.3811,0,0,2.3811,2905.16,2135.91)" d="M18.7,-13.6 C4.9,-13.6 0,-6.6 0,-0.1 C0,6.4 4.9,13.4 18.7,13.4 C32.5,13.4 37.3,6.4 37.3,-0.1 C37.3,-6.6 32.5,-13.6 18.7,-13.6 M10.4,-4.5 C10.3,-4.9 10.3,-5.3 10.3,-5.7 C10.3,-6.5 10.5,-7.3 10.9,-8 C11.6,-9 12.8,-9.7 14.3,-10 C15.6,-10.3 16.3,-10.5 18.9,-10.5 L19,-10.5 C23,-10.5 24.3,-6.8 25.4,-3 L25.7,-2 C26.5,0.6 26.9,2.8 26.9,4.5 C26.9,5.7 26.7,6.8 26.3,7.6 C25.7,8.7 24.7,9.4 23,9.8 C22.1,10 20.6,10.1 20.6,10.1 C20.1,10.1 19.7,10.2 19.3,10.2 C16.1,10.2 14.1,9 12.7,4.7 C11.5,1 11.3,-0.1 10.4,-4.5"/>
<path class="Note" transform="matrix(2.3811,0,0,2.3811,3361.69,2165.67)" d="M18.7,-13.6 C4.9,-13.6 0,-6.6 0,-0.1 C0,6.4 4.9,13.4 18.7,13.4 C32.5,13.4 37.3,6.4 37.3,-0.1 C37.3,-6.6 32.5,-13.6 18.7,-13.6 M10.4,-4.5 C10.3,-4.9 10.3,-5.3 10.3,-5.7 C10.3,-6.5 10.5,-7.3 10.9,-8 C11.6,-9 12.8,-9.7 14.3,-10 C15.6,-10.3 16.3,-10.5 18.9,-10.5 L19,-10.5 C23,-10.5 24.3,-6.8 25.4,-3 L25.7,-2 C26.5,0.6 26.9,2.8 26.9,4.5 C26.9,5.7 26.7,6.8 26.3,7.6 C25.7,8.7 24.7,9.4 23,9.8 C22.1,10 20.6,10.1 20.6,10.1 C20.1,10.1 19.7,10.2 19.3,10.2 C16.1,10.2 14.1,9 12.7,4.7 C11.5,1 11.3,-0.1 10.4,-4.5"/>
<path class="Note" transform="matrix(2.3811,0,0,2.3811,3762.48,2195.43)" d="M18.7,-13.6 C4.9,-13.6 0,-6.6 0,-0.1 C0,6.4 4.9,13.4 18.7,13.4 C32.5,13.4 37.3,6.4 37.3,-0.1 C37.3,-6.6 32.5,-13.6 18.7,-13.6 M10.4,-4.5 C10.3,-4.9 10.3,-5.3 10.3,-5.7 C10.3,-6.5 10.5,-7.3 10.9,-8 C11.6,-9 12.8,-9.7 14.3,-10 C15.6,-10.3 16.3,-10.5 18.9,-10.5 L19,-10.5 C23,-10.5 24.3,-6.8 25.4,-3 L25.7,-2 C26.5,0.6 26.9,2.8 26.9,4.5 C26.9,5.7 26.7,6.8 26.3,7.6 C25.7,8.7 24.7,9.4 23,9.8 C22.1,10 20.6,10.1 20.6,10.1 C20.1,10.1 19.7,10.2 19.3,10.2 C16.1,10.2 14.1,9 12.7,4.7 C11.5,1 11.3,-0.1 10.4,-4.5"/>
<path class="Note" transform="matrix(2.3811,0,0,2.3811,696.226,1600.16)" d="M18.7,-13.6 C4.9,-13.6 0,-6.6 0,-0.1 C0,6.4 4.9,13.4 18.7,13.4 C32.5,13.4 37.3,6.4 37.3,-0.1 C37.3,-6.6 32.5,-13.6 18.7,-13.6 M10.4,-4.5 C10.3,-4.9 10.3,-5.3 10.3,-5.7 C10.3,-6.5 10.5,-7.3 10.9,-8 C11.6,-9 12.8,-9.7 14.3,-10 C15.6,-10.3 16.3,-10.5 18.9,-10.5 L19,-10.5 C23,-10.5 24.3,-6.8 25.4,-3 L25.7,-2 C26.5,0.6 26.9,2.8 26.9,4.5 C26.9,5.7 26.7,6.8 26.3,7.6 C25.7,8.7 24.7,9.4 23,9.8 C22.1,10 20.6,10.1 20.6,10.1 C20.1,10.1 19.7,10.2 19.3,10.2 C16.1,10.2 14.1,9 12.7,4.7 C11.5,1 11.3,-0.1 10.4,-4.5"/>
<path class="Note" transform="matrix(2.3811,0,0,2.3811,696.226,1510.87)" d="M18.7,-13.6 C4.9,-13.6 0,-6.6 0,-0.1 C0,6.4 4.9,13.4 18.7,13.4 C32.5,13.4 37.3,6.4 37.3,-0.1 C37.3,-6.6 32.5,-13.6 18.7,-13.6 M10.4,-4.5 C10.3,-4.9 10.3,-5.3 10.3,-5.7 C10.3,-6.5 10.5,-7.3 10.9,-8 C11.6,-9 12.8,-9.7 14.3,-10 C15.6,-10.3 16.3,-10.5 18.9,-10.5 L19,-10.5 C23,-10.5 24.3,-6.8 25.4,-3 L25.7,-2 C26.5,0.6 26.9,2.8 26.9,4.5 C26.9,5.7 26.7,6.8 26.3,7.6 C25.7,8.7 24.7,9.4 23,9.8 C22.1,10 20.6,10.1 20.6,10.1 C20.1,10.1 19.7,10.2 19.3,10.2 C16.1,10.2 14.1,9 12.7,4.7 C11.5,1 11.3,-0.1 10.4,-4.5"/>
<path class="Note" transform="matrix(2.3811,0,0,2.3811,696.226,1451.34)" d="M18.7,-13.6 C4.9,-13.6 0,-6.6 0,-0.1 C0,6.4 4.9,13.4 18.7,13.4 C32.5,13.4 37.3,6.4 37.3,-0.1 C37.3,-6.6 32.5,-13.6 18.7,-13.6 M10.4,-4.5 C10.3,-4.9 10.3,-5.3 10.3,-5.7 C10.3,-6.5 10.5,-7.3 10.9,-8 C11.6,-9 12.8,-9.7 14.3,-10 C15.6,-10.3 16.3,-10.5 18.9,-10.5 L19,-10.5 C23,-10.5 24.3,-6.8 25.4,-3 L25.7,-2 C26.5,0.6 26.9,2.8 26.9,4.5 C26.9,5.7 26.7,6.8 26.3,7.6 C25.7,8.7 24.7,9.4 23,9.8 C22.1,10 20.6,10.1 20.6,10.1 C20.1,10.1 19.7,10.2 19.3,10.2 C16.1,10.2 14.1,9 12.7,4.7 C11.5,1 11.3,-0.1 10.4,-4.5"/>
<path class="Note" transform="matrix(2.3811,0,0,2.3811,1102.74,1600.16)" d="M18.7,-13.6 C4.9,-13.6 0,-6.6 0,-0.1 C0,6.4 4.9,13.4 18.7,13.4 C32.5,13.4 37.3,6.4 37.3,-0.1 C37.3,-6.6 32.5,-13.6 18.7,-13.6 M10.4,-4.5 C10.3,-4.9 10.3,-5.3 10.3,-5.7 C10.3,-6.5 10.5,-7.3 10.9,-8 C11.6,-9 12.8,-9.7 14.3,-10 C15.6,-10.3 16.3,-10.5 18.9,-10.5 L19,-10.5 C23,-10.5 24.3,-6.8 25.4,-3 L25.7,-2 C26.5,0.6 26.9,2.8 26.9,4.5 C26.9,5.7 26.7,6.8 26.3,7.6 C25.7,8.7 24.7,9.4 23,9.8 C22.1,10 20.6,10.1 20.6,10.1 C20.1,10.1 19.7,10.2 19.3,10.2 C16.1,10.2 14.1,9 12.7,4.7 C11.5,1 11.3,-0.1 10.4,-4.5"/>
<path class="Note" transform="matrix(2.3811,0,0,2.3811,1102.74,1481.1)" d="M18.7,-13.6 C4.9,-13.6 0,-6.6 0,-0.1 C0,6.4 4.9,13.4 18.7,13.4 C32.5,13.4 37.3,6.4 37.3,-0.1 C37.3,-6.6 32.5,-13.6 18.7,-13.6 M10.4,-4.5 C10.3,-4.9 10.3,-5.3 10.3,-5.7 C10.3,-6.5 10.5,-7.3 10.9,-8 C11.6,-9 12.8,-9.7 14.3,-10 C15.6,-10.3 16.3,-10.5 18.9,-10.5 L19,-10.5 C23,-10.5 24.3,-6.8 25.4,-3 L25.7,-2 C26.5,0.6 26.9,2.8 26.9,4.5 C26.9,5.7 26.7,6.8 26.3,7.6 C25.7,8.7 24.7,9.4 23,9.8 C22.1,10 20.6,10.1 20.6,10.1 C20.1,10.1 19.7,10.2 19.3,10.2 C16.1,10.2 14.1,9 12.7,4.7 C11.5,1 11.3,-0.1 10.4,-4.5"/>
<path class="Note" transform="matrix(2.3811,0,0,2.3811,1522.14,1629.92)" d="M18.7,-13.6 C4.9,-13.6 0,-6.6 0,-0.1 C0,6.4 4.9,13.4 18.7,13.4 C32.5,13.4 37.3,6.4 37.3,-0.1 C37.3,-6.6 32.5,-13.6 18.7,-13.6 M10.4,-4.5 C10.3,-4.9 10.3,-5.3 10.3,-5.7 C10.3,-6.5 10.5,-7.3 10.9,-8 C11.6,-9 12.8,-9.7 14.3,-10 C15.6,-10.3 16.3,-10.5 18.9,-10.5 L19,-10.5 C23,-10.5 24.3,-6.8 25.4,-3 L25.7,-2 C26.5,0.6 26.9,2.8 26.9,4.5 C26.9,5.7 26.7,6.8 26.3,7.6 C25.7,8.7 24.7,9.4 23,9.8 C22.1,10 20.6,10.1 20.6,10.1 C20.1,10.1 19.7,10.2 19.3,10.2 C16.1,10.2 14.1,9 12.7,4.7 C11.5,1 11.3,-0.1 10.4,-4.5"/>
<path class="Note" transform="matrix(2.3811,0,0,2.3811,1522.14,1510.87)" d="M18.7,-13.6 C4.9,-13.6 0,-6.6 0,-0.1 C0,6.4 4.9,13.4 18.7,13.4 C32.5,13.4 37.3,6.4 37.3,-0.1 C37.3,-6.6 32.5,-13.6 18.7,-13.6 M10.4,-4.5 C10.3,-4.9 10.3,-5.3 10.3,-5.7 C10.3,-6.5 10.5,-7.3 10.9,-8 C11.6,-9 12.8,-9.7 14.3,-10 C15.6,-10.3 16.3,-10.5 18.9,-10.5 L19,-10.5 C23,-10.5 24.3,-6.8 25.4,-3 L25.7,-2 C26.5,0.6 26.9,2.8 26.9,4.5 C26.9,5.7 26.7,6.8 26.3,7.6 C25.7,8.7 24.7,9.4 23,9.8 C22.1,10 20.6,10.1 20.6,10.1 C20.1,10.1 19.7,10.2 19.3,10.2 C16.1,10.2 14.1,9 12.7,4.7 C11.5,1 11.3,-0.1 10.4,-4.5"/>
<path class="Note" transform="matrix(2.3811,0,0,2.3811,1604.4,1481.1)" d="M18.7,-13.6 C4.9,-13.6 0,-6.6 0,-0.1 C0,6.4 4.9,13.4 18.7,13.4 C32.5,13.4 37.3,6.4 37.3,-0.1 C37.3,-6.6 32.5,-13.6 18.7,-13.6 M10.4,-4.5 C10.3,-4.9 10.3,-5.3 10.3,-5.7 C10.3,-6.5 10.5,-7.3 10.9,-8 C11.6,-9 12.8,-9.7 14.3,-10 C15.6,-10.3 16.3,-10.5 18.9,-10.5 L19,-10.5 C23,-10.5 24.3,-6.8 25.4,-3 L25.7,-2 C26.5,0.6 26.9,2.8 26.9,4.5 C26.9,5.7 26.7,6.8 26.3,7.6 C25.7,8.7 24.7,9.4 23,9.8 C22.1,10 20.6,10.1 20.6,10.1 C20.1,10.1 19.7,10.2 19.3,10.2 C16.1,10.2 14.1,9 12.7,4.7 C11.5,1 11.3,-0.1 10.4,-4.5"/>
<path class="Note" transform="matrix(2.3811,0,0,2.3811,2056.19,1600.16)" d="M18.7,-13.6 C4.9,-13.6 0,-6.6 0,-0.1 C0,6.4 4.9,13.4 18.7,13.4 C32.5,13.4 37.3,6.4 37.3,-0.1 C37.3,-6.6 32.5,-13.6 18.7,-13.6 M10.4,-4.5 C10.3,-4.9 10.3,-5.3 10.3,-5.7 C10.3,-6.5 10.5,-7.3 10.9,-8 C11.6,-9 12.8,-9.7 14.3,-10 C15.6,-10.3 16.3,-10.5 18.9,-10.5 L19,-10.5 C23,-10.5 24.3,-6.8 25.4,-3 L25.7,-2 C26.5,0.6 26.9,2.8 26.9,4.5 C26.9,5.7 26.7,6.8 26.3,7.6 C25.7,8.7 24.7,9.4 23,9.8 C22.1,10 20.6,10.1 20.6,10.1 C20.1,10.1 19.7,10.2 19.3,10.2 C16.1,10.2 14.1,9 12.7,4.7 C11.5,1 11.3,-0.1 10.4,-4.5"/>
<path class="Note" transform="matrix(2.3811,0,0,2.3811,2056.19,1540.63)" d="M18.7,-13.6 C4.9,-13.6 0,-6.6 0,-0.1 C0,6.4 4.9,13.4 18.7,13.4 C32.5,13.4 37.3,6.4 37.3,-0.1 C37.3,-6.6 32.5,-13.6 18.7,-13.6 M10.4,-4.5 C10.3,-4.9 10.3,-5.3 10.3,-5.7 C10.3,-6.5 10.5,-7.3 10.9,-8 C11.6,-9 12.8,-9.7 14.3,-10 C15.6,-10.3 16.3,-10.5 18.9,-10.5 L19,-10.5 C23,-10.5 24.3,-6.8 25.4,-3 L25.7,-2 C26.5,0.6 26.9,2.8 26.9,4.5 C26.9,5.7 26.7,6.8 26.3,7.6 C25.7,8.7 24.7,9.4 23,9.8 C22.1,10 20.6,10.1 20.6,10.1 C20.1,10.1 19.7,10.2 19.3,10.2 C16.1,10.2 14.1,9 12.7,4.7 C11.5,1 11.3,-0.1 10.4,-4.5"/>
<path class="Note" transform="matrix(2.3811,0,0,2.3811,2056.19,1481.1)" d="M18.7,-13.6 C4.9,-13.6 0,-6.6 0,-0.1 C0,6.4 4.9,13.4 18.7,13.4 C32.5,13.4 37.3,6.4 37.3,-0.1 C37.3,-6.6 32.5,-13.6 18.7,-13.6 M10.4,-4.5 C10.3,-4.9 10.3,-5.3 10.3,-5.7 C10.3,-6.5 10.5,-7.3 10.9,-8 C11.6,-9 12.8,-9.7 14.3,-10 C15.6,-10.3 16.3,-10.5 18.9,-10.5 L19,-10.5 C23,-10.5 24.3,-6.8 25.4,-3 L25.7,-2 C26.5,0.6 26.9,2.8 26.9,4.5 C26.9,5.7 26.7,6.8 26.3,7.6 C25.7,8.7 24.7,9.4 23,9.8 C22.1,10 20.6,10.1 20.6,10.1 C20.1,10.1 19.7,10.2 19.3,10.2 C16.1,10.2 14.1,9 12.7,4.7 C11.5,1 11.3,-0.1 10.4,-4.5"/>
<path class="Note" transform="matrix(2.3811,0,0,2.3811,2498.65,1600.16)" d="M18.7,-13.6 C4.9,-13.6 0,-6.6 0,-0.1 C0,6.4 4.9,13.4 18.7,13.4 C32.5,13.4 37.3,6.4 37.3,-0.1 C37.3,-6.6 32.5,-13.6 18.7,-13.6 M10.4,-4.5 C10.3,-4.9 10.3,-5.3 10.3,-5.7 C10.3,-6.5 10.5,-7.3 10.9,-8 C11.6,-9 12.8,-9.7 14.3,-10 C15.6,-10.3 16.3,-10.5 18.9,-10.5 L19,-10.5 C23,-10.5 24.3,-6.8 25.4,-3 L25.7,-2 C26.5,0.6 26.9,2.8 26.9,4.5 C26.9,5.7 26.7,6.8 26.3,7.6 C25.7,8.7 24.7,9.4 23,9.8 C22.1,10 20.6,10.1 20.6,10.1 C20.1,10.1 19.7,10.2 19.3,10.2 C16.1,10.2 14.1,9 12.7,4.7 C11.5,1 11.3,-0.1 10.4,-4.5"/>
<path class="Note" transform="matrix(2.3811,0,0,2.3811,2498.65,1540.63)" d="M18.7,-13.6 C4.9,-13.6 0,-6.6 0,-0.1 C0,6.4 4.9,13.4 18.7,13.4 C32.5,13.4 37.3,6.4 37.3,-0.1 C37.3,-6.6 32.5,-13.6 18.7,-13.6 M10.4,-4.5 C10.3,-4.9 10.3,-5.3 10.3,-5.7 C10.3,-6.5 10.5,-7.3 10.9,-8 C11.6,-9 12.8,-9.7 14.3,-10 C15.6,-10.3 16.3,-10.5 18.9,-10.5 L19,-10.5 C23,-10.5 24.3,-6.8 25.4,-3 L25.7,-2 C26.5,0.6 26.9,2.8 26.9,4.5 C26.9,5.7 26.7,6.8 26.3,7.6 C25.7,8.7 24.7,9.4 23,9.8 C22.1,10 20.6,10.1 20.6,10.1 C20.1,10.1 19.7,10.2 19.3,10.2 C16.1,10.2 14.1,9 12.7,4.7 C11.5,1 11.3,-0.1 10.4,-4.5"/>
<path class="Note" transform="matrix(2.3811,0,0,2.3811,2498.65,1481.1)" d="M18.7,-13.6 C4.9,-13.6 0,-6.6 0,-0.1 C0,6.4 4.9,13.4 18.7,13.4 C32.5,13.4 37.3,6.4 37.3,-0.1 C37.3,-6.6 32.5,-13.6 18.7,-13.6 M10.4,-4.5 C10.3,-4.9 10.3,-5.3 10.3,-5.7 C10.3,-6.5 10.5,-7.3 10.9,-8 C11.6,-9 12.8,-9.7 14.3,-10 C15.6,-10.3 16.3,-10.5 18.9,-10.5 L19,-10.5 C23,-10.5 24.3,-6.8 25.4,-3 L25.7,-2 C26.5,0.6 26.9,2.8 26.9,4.5 C26.9,5.7 26.7,6.8 26.3,7.6 C25.7,8.7 24.7,9.4 23,9.8 C22.1,10 20.6,10.1 20.6,10.1 C20.1,10.1 19.7,10.2 19.3,10.2 C16.1,10.2 14.1,9 12.7,4.7 C11.5,1 11.3,-0.1 10.4,-4.5"/>
<path class="Note" transform="matrix(2.3811,0,0,2.3811,2905.16,1600.16)" d="M18.7,-13.6 C4.9,-13.6 0,-6.6 0,-0.1 C0,6.4 4.9,13.4 18.7,13.4 C32.5,13.4 37.3,6.4 37.3,-0.1 C37.3,-6.6 32.5,-13.6 18.7,-13.6 M10.4,-4.5 C10.3,-4.9 10.3,-5.3 10.3,-5.7 C10.3,-6.5 10.5,-7.3 10.9,-8 C11.6,-9 12.8,-9.7 14.3,-10 C15.6,-10.3 16.3,-10.5 18.9,-10.5 L19,-10.5 C23,-10.5 24.3,-6.8 25.4,-3 L25.7,-2 C26.5,0.6 26.9,2.8 26.9,4.5 C26.9,5.7 26.7,6.8 26.3,7.6 C25.7,8.7 24.7,9.4 23,9.8 C22.1,10 20.6,10.1 20.6,10.1 C20.1,10.1 19.7,10.2 19.3,10.2 C16.1,10.2 14.1,9 12.7,4.7 C11.5,1 11.3,-0.1 10.4,-4.5"/>
<path class="Note" transform="matrix(2.3811,0,0,2.3811,2905.16,1510.87)" d="M18.7,-13.6 C4.9,-13.6 0,-6.6 0,-0.1 C0,6.4 4.9,13.4 18.7,13.4 C32.5,13.4 37.3,6.4 37.3,-0.1 C37.3,-6.6 32.5,-13.6 18.7,-13.6 M10.4,-4.5 C10.3,-4.9 10.3,-5.3 10.3,-5.7 C10.3,-6.5 10.5,-7.3 10.9,-8 C11.6,-9 12.8,-9.7 14.3,-10 C15.6,-10.3 16.3,-10.5 18.9,-10.5 L19,-10.5 C23,-10.5 24.3,-6.8 25.4,-3 L25.7,-2 C26.5,0.6 26.9,2.8 26.9,4.5 C26.9,5.7 26.7,6.8 26.3,7.6 C25.7,8.7 24.7,9.4 23,9.8 C22.1,10 20.6,10.1 20.6,10.1 C20.1,10.1 19.7,10.2 19.3,10.2 C16.1,10.2 14.1,9 12.7,4.7 C11.5,1 11.3,-0.1 10.4,-4.5"/>
<path class="Note" transform="matrix(2.3811,0,0,2.3811,2905.16,1451.34)" d="M18.7,-13.6 C4.9,-13.6 0,-6.6 0,-0.1 C0,6.4 4.9,13.4 18.7,13.4 C32.5,13.4 37.3,6.4 37.3,-0.1 C37.3,-6.6 32.5,-13.6 18.7,-13.6 M10.4,-4.5 C10.3,-4.9 10.3,-5.3 10.3,-5.7 C10.3,-6.5 10.5,-7.3 10.9,-8 C11.6,-9 12.8,-9.7 14.3,-10 C15.6,-10.3 16.3,-10.5 18.9,-10.5 L19,-10.5 C23,-10.5 24.3,-6.8 25.4,-3 L25.7,-2 C26.5,0.6 26.9,2.8 26.9,4.5 C26.9,5.7 26.7,6.8 26.3,7.6 C25.7,8.7 24.7,9.4 23,9.8 C22.1,10 20.6,10.1 20.6,10.1 C20.1,10.1 19.7,10.2 19.3,10.2 C16.1,10.2 14.1,9 12.7,4.7 C11.5,1 11.3,-0.1 10.4,-4.5"/>
<path class="Note" transform="matrix(2.3811,0,0,2.3811,3361.69,1600.16)" d="M18.7,-13.6 C4.9,-13.6 0,-6.6 0,-0.1 C0,6.4 4.9,13.4 18.7,13.4 C32.5,13.4 37.3,6.4 37.3,-0.1 C37.3,-6.6 32.5,-13.6 18.7,-13.6 M10.4,-4.5 C10.3,-4.9 10.3,-5.3 10.3,-5.7 C10.3,-6.5 10.5,-7.3 10.9,-8 C11.6,-9 12.8,-9.7 14.3,-10 C15.6,-10.3 16.3,-10.5 18.9,-10.5 L19,-10.5 C23,-10.5 24.3,-6.8 25.4,-3 L25.7,-2 C26.5,0.6 26.9,2.8 26.9,4.5 C26.9,5.7 26.7,6.8 26.3,7.6 C25.7,8.7 24.7,9.4 23,9.8 C22.1,10 20.6,10.1 20.6,10.1 C20.1,10.1 19.7,10.2 19.3,10.2 C16.1,10.2 14.1,9 12.7,4.7 C11.5,1 11.3,-0.1 10.4,-4.5"/>
<path class="Note" transform="matrix(2.3811,0,0,2.3811,3361.69,1540.63)" d="M18.7,-13.6 C4.9,-13.6 0,-6.6 0,-0.1 C0,6.4 4.9,13.4 18.7,13.4 C32.5,13.4 37.3,6.4 37.3,-0.1 C37.3,-6.6 32.5,-13.6 18.7,-13.6 M10.4,-4.5 C10.3,-4.9 10.3,-5.3 10.3,-5.7 C10.3,-6.5 10.5,-7.3 10.9,-8 C11.6,-9 12.8,-9.7 14.3,-10 C15.6,-10.3 16.3,-10.5 18.9,-10.5 L19,-10.5 C23,-10.5 24.3,-6.8 25.4,-3 L25.7,-2 C26.5,0.6 26.9,2.8 26.9,4.5 C26.9,5.7 26.7,6.8 26.3,7.6 C25.7,8.7 24.7,9.4 23,9.8 C22.1,10 20.6,10.1 20.6,10.1 C20.1,10.1 19.7,10.2 19.3,10.2 C16.1,10.2 14.1,9 12.7,4.7 C11.5,1 11.3,-0.1 10.4,-4.5"/>
<path class="Note" transform="matrix(2.3811,0,0,2.3811,3361.69,1421.57)" d="M18.7,-13.6 C4.9,-13.6 0,-6.6 0,-0.1 C0,6.4 4.9,13.4 18.7,13.4 C32.5,13.4 37.3,6.4 37.3,-0.1 C37.3,-6.6 32.5,-13.6 18.7,-13.6 M10.4,-4.5 C10.3,-4.9 10.3,-5.3 10.3,-5.7 C10.3,-6.5 10.5,-7.3 10.9,-8 C11.6,-9 12.8,-9.7 14.3,-10 C15.6,-10.3 16.3,-10.5 18.9,-10.5 L19,-10.5 C23,-10.5 24.3,-6.8 25.4,-3 L25.7,-2 C26.5,0.6 26.9,2.8 26.9,4.5 C26.9,5.7 26.7,6.8 26.3,7.6 C25.7,8.7 24.7,9.4 23,9.8 C22.1,10 20.6,10.1 20.6,10.1 C20.1,10.1 19.7,10.2 19.3,10.2 C16.1,10.2 14.1,9 12.7,4.7 C11.5,1 11.3,-0.1 10.4,-4.5"/>
<path class="Note" transform="matrix(2.3811,0,0,2.3811,3762.48,1600.16)" d="M18.7,-13.6 C4.9,-13.6 0,-6.6 0,-0.1 C0,6.4 4.9,13.4 18.7,13.4 C32.5,13.4 37.3,6.4 37.3,-0.1 C37.3,-6.6 32.5,-13.6 18.7,-13.6 M10.4,-4.5 C10.3,-4.9 10.3,-5.3 10.3,-5.7 C10.3,-6.5 10.5,-7.3 10.9,-8 C11.6,-9 12.8,-9.7 14.3,-10 C15.6,-10.3 16.3,-10.5 18.9,-10.5 L19,-10.5 C23,-10.5 24.3,-6.8 25.4,-3 L25.7,-2 C26.5,0.6 26.9,2.8 26.9,4.5 C26.9,5.7 26.7,6.8 26.3,7.6 C25.7,8.7 24.7,9.4 23,9.8 C22.1,10 20.6,10.1 20.6,10.1 C20.1,10.1 19.7,10.2 19.3,10.2 C16.1,10.2 14.1,9 12.7,4.7 C11.5,1 11.3,-0.1 10.4,-4.5"/>
<path class="Note" transform="matrix(2.3811,0,0,2.3811,3762.48,1510.87)" d="M18.7,-13.6 C4.9,-13.6 0,-6.6 0,-0.1 C0,6.4 4.9,13.4 18.7,13.4 C32.5,13.4 37.3,6.4 37.3,-0.1 C37.3,-6.6 32.5,-13.6 18.7,-13.6 M10.4,-4.5 C10.3,-4.9 10.3,-5.3 10.3,-5.7 C10.3,-6.5 10.5,-7.3 10.9,-8 C11.6,-9 12.8,-9.7 14.3,-10 C15.6,-10.3 16.3,-10.5 18.9,-10.5 L19,-10.5 C23,-10.5 24.3,-6.8 25.4,-3 L25.7,-2 C26.5,0.6 26.9,2.8 26.9,4.5 C26.9,5.7 26.7,6.8 26.3,7.6 C25.7,8.7 24.7,9.4 23,9.8 C22.1,10 20.6,10.1 20.6,10.1 C20.1,10.1 19.7,10.2 19.3,10.2 C16.1,10.2 14.1,9 12.7,4.7 C11.5,1 11.3,-0.1 10.4,-4.5"/>
<path class="Note" transform="matrix(2.3811,0,0,2.3811,3762.48,1451.34)" d="M18.7,-13.6 C4.9,-13.6 0,-6.6 0,-0.1 C0,6.4 4.9,13.4 18.7,13.4 C32.5,13.4 37.3,6.4 37.3,-0.1 C37.3,-6.6 32.5,-13.6 18.7,-13.6 M10.4,-4.5 C10.3,-4.9 10.3,-5.3 10.3,-5.7 C10.3,-6.5 10.5,-7.3 10.9,-8 C11.6,-9 12.8,-9.7 14.3,-10 C15.6,-10.3 16.3,-10.5 18.9,-10.5 L19,-10.5 C23,-10.5 24.3,-6.8 25.4,-3 L25.7,-2 C26.5,0.6 26.9,2.8 26.9,4.5 C26.9,5.7 26.7,6.8 26.3,7.6 C25.7,8.7 24.7,9.4 23,9.8 C22.1,10 20.6,10.1 20.6,10.1 C20.1,10.1 19.7,10.2 19.3,10.2 C16.1,10.2 14.1,9 12.7,4.7 C11.5,1 11.3,-0.1 10.4,-4.5"/>
<path class="Note" d="M730.769,642.535 C726.973,642.535 725.075,638.468 725.075,630.333 L725.075,596.283 C725.075,593.029 726.663,591.402 729.84,591.402 C731.234,591.402 732.28,591.518 732.977,591.751 C735.457,587.412 739.524,583.771 745.179,580.827 C753.082,576.721 761.1,574.668 769.235,574.668 C775.665,574.668 778.881,577.069 778.881,581.873 C778.881,585.902 776.711,587.916 772.373,587.916 C769.274,587.916 766.33,587.219 763.541,585.824 C761.062,584.584 758.428,583.965 755.638,583.965 C750.835,583.965 743.746,587.102 734.372,593.378 C735.689,599.653 736.347,606.974 736.347,615.342 C736.347,633.471 734.488,642.535 730.769,642.535"/>
<path class="Note" d="M730.769,553.244 C726.973,553.244 725.075,549.176 725.075,541.041 L725.075,506.992 C725.075,503.738 726.663,502.111 729.84,502.111 C731.234,502.111 732.28,502.227 732.977,502.459 C735.457,498.121 739.524,494.48 745.179,491.536 C753.082,487.43 761.1,485.376 769.235,485.376 C775.665,485.376 778.881,487.778 778.881,492.582 C778.881,496.61 776.711,498.624 772.373,498.624 C769.274,498.624 766.33,497.927 763.541,496.533 C761.062,495.293 758.428,494.673 755.638,494.673 C750.835,494.673 743.746,497.811 734.372,504.086 C735.689,510.362 736.347,517.683 736.347,526.05 C736.347,544.179 734.488,553.244 730.769,553.244"/>
<path class="Note" d="M810.839,794.854 C804.486,804.848 794.453,813.138 780.74,819.723 C768.809,825.456 757.653,828.323 747.271,828.323 C738.982,828.323 732.086,826.657 726.586,823.326 C720.62,819.684 717.638,815.346 717.638,810.31 C717.638,798.921 720.62,789.121 726.586,780.909 C734.721,769.752 742.933,764.174 751.222,764.174 C757.11,764.174 761.294,765.336 763.773,767.661 C767.182,770.682 768.887,774.827 768.887,780.095 C768.887,787.533 763.347,794.002 752.268,799.502 C741.499,804.848 734.023,808.334 729.84,809.961 C730.769,811.898 731.97,813.641 733.442,815.191 C737.083,819.065 742.042,821.001 748.317,821.001 C756.22,821.001 766.833,818.096 780.159,812.286 C792.942,806.63 803.169,800.819 810.839,794.854 M728.213,804.616 C734.023,801.672 739.33,798.224 744.134,794.273 C751.261,788.462 754.825,782.187 754.825,775.447 C754.825,771.651 753.082,769.752 749.596,769.752 C746.652,769.752 742.623,773.123 737.51,779.863 C731.079,788.23 727.864,795.048 727.864,800.316 C727.864,801.788 727.98,803.221 728.213,804.616"/>
<path class="Note" d="M663.957,677.207 C664.267,665.509 670.736,655.127 683.364,646.063 C694.598,638.005 706.878,633.977 720.203,633.977 C738.874,633.977 755.338,641.298 769.593,655.941 C778.657,665.315 783.19,676.936 783.19,690.804 C783.19,703.277 779.858,712.845 773.195,719.508 C765.061,727.72 756.461,731.826 747.397,731.826 C741.199,731.826 736.395,730.432 732.986,727.643 C727.408,723.072 724.619,716.951 724.619,709.281 C724.619,699.365 729.578,690.3 739.494,682.088 C747.629,675.348 755.802,670.932 764.015,668.84 C761.845,665.121 759.095,661.635 755.764,658.381 C745.382,648.232 733.606,643.157 720.436,643.157 C706.723,643.157 695.373,646.14 686.386,652.106 C677.089,658.226 669.613,666.593 663.957,677.207 M766.92,674.999 C762.659,678.95 758.398,683.173 754.137,687.666 C745.77,696.498 741.586,704.865 741.586,712.768 C741.586,721.212 743.523,725.435 747.397,725.435 C750.883,725.435 755.764,720.67 762.039,711.141 C767.075,703.548 769.593,696.576 769.593,690.223 C769.593,684.8 768.702,679.725 766.92,674.999"/>
<path class="Note" d="M1137.29,642.535 C1133.49,642.535 1131.59,638.468 1131.59,630.333 L1131.59,596.283 C1131.59,593.029 1133.18,591.402 1136.36,591.402 C1137.75,591.402 1138.8,591.518 1139.5,591.751 C1141.97,587.412 1146.04,583.771 1151.7,580.827 C1159.6,576.721 1167.62,574.668 1175.75,574.668 C1182.18,574.668 1185.4,577.069 1185.4,581.873 C1185.4,585.902 1183.23,587.916 1178.89,587.916 C1175.79,587.916 1172.85,587.219 1170.06,585.824 C1167.58,584.584 1164.95,583.965 1162.16,583.965 C1157.35,583.965 1150.26,587.102 1140.89,593.378 C1142.21,599.653 1142.87,606.974 1142.87,615.342 C1142.87,633.471 1141.01,642.535 1137.29,642.535"/>
<path class="Note" d="M1137.29,821.118 C1133.49,821.118 1131.59,817.05 1131.59,808.916 L1131.59,774.866 C1131.59,771.612 1133.18,769.985 1136.36,769.985 C1137.75,769.985 1138.8,770.101 1139.5,770.333 C1141.97,765.995 1146.04,762.354 1151.7,759.41 C1159.6,755.304 1167.62,753.25 1175.75,753.25 C1182.18,753.25 1185.4,755.652 1185.4,760.456 C1185.4,764.484 1183.23,766.499 1178.89,766.499 C1175.79,766.499 1172.85,765.801 1170.06,764.407 C1167.58,763.167 1164.95,762.547 1162.16,762.547 C1157.35,762.547 1150.26,765.685 1140.89,771.96 C1142.21,778.236 1142.87,785.557 1142.87,793.924 C1142.87,812.053 1141.01,821.118 1137.29,821.118"/>
<path class="Note" d="M1137.29,731.826 C1133.49,731.826 1131.59,727.759 1131.59,719.624 L1131.59,685.574 C1131.59,682.32 1133.18,680.693 1136.36,680.693 C1137.75,680.693 1138.8,680.81 1139.5,681.042 C1141.97,676.704 1146.04,673.062 1151.7,670.118 C1159.6,666.012 1167.62,663.959 1175.75,663.959 C1182.18,663.959 1185.4,666.361 1185.4,671.164 C1185.4,675.193 1183.23,677.207 1178.89,677.207 C1175.79,677.207 1172.85,676.51 1170.06,675.115 C1167.58,673.876 1164.95,673.256 1162.16,673.256 C1157.35,673.256 1150.26,676.394 1140.89,682.669 C1142.21,688.944 1142.87,696.266 1142.87,704.633 C1142.87,722.762 1141.01,731.826 1137.29,731.826"/>
<path class="Note" d="M1600.96,583.965 C1605.53,583.965 1607.82,586.831 1607.82,592.564 C1607.82,596.593 1605.3,602.597 1600.26,610.577 C1596.23,617.007 1594.22,623.283 1594.22,629.403 C1594.22,632.889 1599.29,634.633 1609.44,634.633 C1617.81,634.633 1629.47,630.1 1644.42,621.036 C1629.39,635.524 1616.34,642.767 1605.26,642.767 C1595.26,642.767 1588.29,641.257 1584.34,638.235 C1583.33,637.46 1582.48,636.531 1581.78,635.446 C1577.91,640.172 1571.44,642.535 1562.38,642.535 C1553.7,642.535 1547.04,640.753 1542.39,637.189 C1539.29,634.788 1537.74,630.953 1537.74,625.684 C1537.74,617.317 1542.7,608.175 1552.62,598.259 C1563.23,587.645 1575.51,582.338 1589.45,582.338 C1592.94,582.338 1595.5,583.616 1597.12,586.173 C1598.44,584.701 1599.72,583.965 1600.96,583.965 M1580.16,630.217 C1580.08,629.597 1580.04,628.977 1580.04,628.357 C1580.04,628.047 1583.99,617.24 1591.89,595.934 C1592.67,593.843 1593.44,592.061 1594.22,590.589 C1591.2,589.969 1588.21,589.659 1585.27,589.659 C1579.85,589.659 1572.64,594.269 1563.66,603.488 C1555.6,611.7 1551.57,618.789 1551.57,624.755 C1551.57,631.34 1554.71,634.633 1560.98,634.633 C1568.57,634.633 1574.97,633.161 1580.16,630.217"/>
<path class="Note" d="M1600.96,762.547 C1605.53,762.547 1607.82,765.414 1607.82,771.147 C1607.82,775.176 1605.3,781.18 1600.26,789.16 C1596.23,795.59 1594.22,801.865 1594.22,807.986 C1594.22,811.472 1599.29,813.215 1609.44,813.215 C1617.81,813.215 1629.47,808.683 1644.42,799.619 C1629.39,814.106 1616.34,821.35 1605.26,821.35 C1595.26,821.35 1588.29,819.839 1584.34,816.818 C1583.33,816.043 1582.48,815.113 1581.78,814.029 C1577.91,818.755 1571.44,821.118 1562.38,821.118 C1553.7,821.118 1547.04,819.336 1542.39,815.772 C1539.29,813.37 1537.74,809.535 1537.74,804.267 C1537.74,795.9 1542.7,786.758 1552.62,776.841 C1563.23,766.227 1575.51,760.92 1589.45,760.92 C1592.94,760.92 1595.5,762.199 1597.12,764.755 C1598.44,763.283 1599.72,762.547 1600.96,762.547 M1580.16,808.799 C1580.08,808.179 1580.04,807.56 1580.04,806.94 C1580.04,806.63 1583.99,795.822 1591.89,774.517 C1592.67,772.425 1593.44,770.643 1594.22,769.171 C1591.2,768.552 1588.21,768.242 1585.27,768.242 C1579.85,768.242 1572.64,772.851 1563.66,782.071 C1555.6,790.283 1551.57,797.372 1551.57,803.337 C1551.57,809.923 1554.71,813.215 1560.98,813.215 C1568.57,813.215 1574.97,811.743 1580.16,808.799"/>
<path class="Note" d="M1556.68,553.244 C1552.89,553.244 1550.99,549.176 1550.99,541.041 L1550.99,506.992 C1550.99,503.738 1552.58,502.111 1555.75,502.111 C1557.15,502.111 1558.19,502.227 1558.89,502.459 C1561.37,498.121 1565.44,494.48 1571.09,491.536 C1578.99,487.43 1587.01,485.376 1595.15,485.376 C1601.58,485.376 1604.79,487.778 1604.79,492.582 C1604.79,496.61 1602.62,498.624 1598.29,498.624 C1595.19,498.624 1592.24,497.927 1589.45,496.533 C1586.97,495.293 1584.34,494.673 1581.55,494.673 C1576.75,494.673 1569.66,497.811 1560.28,504.086 C1561.6,510.362 1562.26,517.683 1562.26,526.05 C1562.26,544.179 1560.4,553.244 1556.68,553.244"/>
<path class="Note" d="M1556.68,731.826 C1552.89,731.826 1550.99,727.759 1550.99,719.624 L1550.99,685.574 C1550.99,682.32 1552.58,680.693 1555.75,680.693 C1557.15,680.693 1558.19,680.81 1558.89,681.042 C1561.37,676.704 1565.44,673.062 1571.09,670.118 C1578.99,666.012 1587.01,663.959 1595.15,663.959 C1601.58,663.959 1604.79,666.361 1604.79,671.164 C1604.79,675.193 1602.62,677.207 1598.29,677.207 C1595.19,677.207 1592.24,676.51 1589.45,675.115 C1586.97,673.876 1584.34,673.256 1581.55,673.256 C1576.75,673.256 1569.66,676.394 1560.28,682.669 C1561.6,688.944 1562.26,696.266 1562.26,704.633 C1562.26,722.762 1560.4,731.826 1556.68,731.826"/>
<path class="Note" d="M2090.73,642.535 C2086.93,642.535 2085.04,638.468 2085.04,630.333 L2085.04,596.283 C2085.04,593.029 2086.62,591.402 2089.8,591.402 C2091.2,591.402 2092.24,591.518 2092.94,591.751 C2095.42,587.412 2099.49,583.771 2105.14,580.827 C2113.04,576.721 2121.06,574.668 2129.2,574.668 C2135.63,574.668 2138.84,577.069 2138.84,581.873 C2138.84,585.902 2136.67,587.916 2132.33,587.916 C2129.24,587.916 2126.29,587.219 2123.5,585.824 C2121.02,584.584 2118.39,583.965 2115.6,583.965 C2110.8,583.965 2103.71,587.102 2094.33,593.378 C2095.65,599.653 2096.31,606.974 2096.31,615.342 C2096.31,633.471 2094.45,642.535 2090.73,642.535"/>
<path class="Note" d="M2170.8,884.145 C2164.45,894.139 2154.41,902.429 2140.7,909.014 C2128.77,914.748 2117.61,917.614 2107.23,917.614 C2098.94,917.614 2092.05,915.948 2086.55,912.617 C2080.58,908.976 2077.6,904.637 2077.6,899.601 C2077.6,888.213 2080.58,878.412 2086.55,870.2 C2094.68,859.044 2102.89,853.466 2111.18,853.466 C2117.07,853.466 2121.26,854.628 2123.73,856.952 C2127.14,859.973 2128.85,864.118 2128.85,869.387 C2128.85,876.824 2123.31,883.293 2112.23,888.794 C2101.46,894.139 2093.98,897.626 2089.8,899.253 C2090.73,901.19 2091.93,902.933 2093.4,904.482 C2097.05,908.356 2102,910.293 2108.28,910.293 C2116.18,910.293 2126.8,907.388 2140.12,901.577 C2152.9,895.921 2163.13,890.111 2170.8,884.145 M2088.17,893.907 C2093.98,890.963 2099.29,887.515 2104.1,883.564 C2111.22,877.754 2114.79,871.478 2114.79,864.738 C2114.79,860.942 2113.04,859.044 2109.56,859.044 C2106.61,859.044 2102.58,862.414 2097.47,869.154 C2091.04,877.521 2087.83,884.339 2087.83,889.607 C2087.83,891.079 2087.94,892.513 2088.17,893.907"/>
<path class="Note" d="M2023.92,766.499 C2024.23,754.8 2030.7,744.418 2043.33,735.354 C2054.56,727.297 2066.84,723.268 2080.16,723.268 C2098.84,723.268 2115.3,730.589 2129.55,745.232 C2138.62,754.606 2143.15,766.227 2143.15,780.095 C2143.15,792.568 2139.82,802.137 2133.16,808.799 C2125.02,817.012 2116.42,821.118 2107.36,821.118 C2101.16,821.118 2096.36,819.723 2092.95,816.934 C2087.37,812.363 2084.58,806.243 2084.58,798.573 C2084.58,788.656 2089.54,779.592 2099.46,771.379 C2107.59,764.639 2115.76,760.223 2123.98,758.131 C2121.81,754.413 2119.06,750.926 2115.73,747.672 C2105.34,737.523 2093.57,732.449 2080.4,732.449 C2066.68,732.449 2055.33,735.431 2046.35,741.397 C2037.05,747.517 2029.57,755.885 2023.92,766.499 M2126.88,764.291 C2122.62,768.242 2118.36,772.464 2114.1,776.957 C2105.73,785.79 2101.55,794.157 2101.55,802.059 C2101.55,810.504 2103.48,814.726 2107.36,814.726 C2110.84,814.726 2115.73,809.961 2122,800.432 C2127.04,792.84 2129.55,785.867 2129.55,779.514 C2129.55,774.091 2128.66,769.016 2126.88,764.291"/>
<path class="Note" d="M2090.73,731.826 C2086.93,731.826 2085.04,727.759 2085.04,719.624 L2085.04,685.574 C2085.04,682.32 2086.62,680.693 2089.8,680.693 C2091.2,680.693 2092.24,680.81 2092.94,681.042 C2095.42,676.704 2099.49,673.062 2105.14,670.118 C2113.04,666.012 2121.06,663.959 2129.2,663.959 C2135.63,663.959 2138.84,666.361 2138.84,671.164 C2138.84,675.193 2136.67,677.207 2132.33,677.207 C2129.24,677.207 2126.29,676.51 2123.5,675.115 C2121.02,673.876 2118.39,673.256 2115.6,673.256 C2110.8,673.256 2103.71,676.394 2094.33,682.669 C2095.65,688.944 2096.31,696.266 2096.31,704.633 C2096.31,722.762 2094.45,731.826 2090.73,731.826"/>
<path class="Note" d="M2533.19,910.409 C2529.39,910.409 2527.49,906.342 2527.49,898.207 L2527.49,864.157 C2527.49,860.903 2529.08,859.276 2532.26,859.276 C2533.65,859.276 2534.7,859.392 2535.4,859.625 C2537.88,855.286 2541.94,851.645 2547.6,848.701 C2555.5,844.595 2563.52,842.542 2571.65,842.542 C2578.09,842.542 2581.3,844.943 2581.3,849.747 C2581.3,853.776 2579.13,855.79 2574.79,855.79 C2571.69,855.79 2568.75,855.093 2565.96,853.698 C2563.48,852.458 2560.85,851.839 2558.06,851.839 C2553.25,851.839 2546.17,854.976 2536.79,861.252 C2538.11,867.527 2538.77,874.848 2538.77,883.216 C2538.77,901.345 2536.91,910.409 2533.19,910.409"/>
<path class="Note" d="M2533.19,642.535 C2529.39,642.535 2527.49,638.468 2527.49,630.333 L2527.49,596.283 C2527.49,593.029 2529.08,591.402 2532.26,591.402 C2533.65,591.402 2534.7,591.518 2535.4,591.751 C2537.88,587.412 2541.94,583.771 2547.6,580.827 C2555.5,576.721 2563.52,574.668 2571.65,574.668 C2578.09,574.668 2581.3,577.069 2581.3,581.873 C2581.3,585.902 2579.13,587.916 2574.79,587.916 C2571.69,587.916 2568.75,587.219 2565.96,585.824 C2563.48,584.584 2560.85,583.965 2558.06,583.965 C2553.25,583.965 2546.17,587.102 2536.79,593.378 C2538.11,599.653 2538.77,606.974 2538.77,615.342 C2538.77,633.471 2536.91,642.535 2533.19,642.535"/>
<path class="Note" d="M2466.38,766.499 C2466.69,754.8 2473.16,744.418 2485.78,735.354 C2497.02,727.297 2509.3,723.268 2522.62,723.268 C2541.29,723.268 2557.76,730.589 2572.01,745.232 C2581.08,754.606 2585.61,766.227 2585.61,780.095 C2585.61,792.568 2582.28,802.137 2575.62,808.799 C2567.48,817.012 2558.88,821.118 2549.82,821.118 C2543.62,821.118 2538.81,819.723 2535.41,816.934 C2529.83,812.363 2527.04,806.243 2527.04,798.573 C2527.04,788.656 2532,779.592 2541.91,771.379 C2550.05,764.639 2558.22,760.223 2566.43,758.131 C2564.27,754.413 2561.51,750.926 2558.18,747.672 C2547.8,737.523 2536.03,732.449 2522.86,732.449 C2509.14,732.449 2497.79,735.431 2488.81,741.397 C2479.51,747.517 2472.03,755.885 2466.38,766.499 M2569.34,764.291 C2565.08,768.242 2560.82,772.464 2556.56,776.957 C2548.19,785.79 2544.01,794.157 2544.01,802.059 C2544.01,810.504 2545.94,814.726 2549.82,814.726 C2553.3,814.726 2558.18,809.961 2564.46,800.432 C2569.49,792.84 2572.01,785.867 2572.01,779.514 C2572.01,774.091 2571.12,769.016 2569.34,764.291"/>
<path class="Note" d="M2533.19,731.826 C2529.39,731.826 2527.49,727.759 2527.49,719.624 L2527.49,685.574 C2527.49,682.32 2529.08,680.693 2532.26,680.693 C2533.65,680.693 2534.7,680.81 2535.4,681.042 C2537.88,676.704 2541.94,673.062 2547.6,670.118 C2555.5,666.012 2563.52,663.959 2571.65,663.959 C2578.09,663.959 2581.3,666.361 2581.3,671.164 C2581.3,675.193 2579.13,677.207 2574.79,677.207 C2571.69,677.207 2568.75,676.51 2565.96,675.115 C2563.48,673.876 2560.85,673.256 2558.06,673.256 C2553.25,673.256 2546.17,676.394 2536.79,682.669 C2538.11,688.944 2538.77,696.266 2538.77,704.633 C2538.77,722.762 2536.91,731.826 2533.19,731.826"/>
<path class="Note" d="M2983.98,851.839 C2988.55,851.839 2990.84,854.705 2990.84,860.438 C2990.84,864.467 2988.32,870.471 2983.29,878.451 C2979.26,884.881 2977.24,891.157 2977.24,897.277 C2977.24,900.763 2982.32,902.507 2992.47,902.507 C3000.83,902.507 3012.49,897.974 3027.45,888.91 C3012.42,903.398 2999.36,910.641 2988.28,910.641 C2978.29,910.641 2971.32,909.131 2967.37,906.109 C2966.36,905.334 2965.51,904.405 2964.81,903.32 C2960.94,908.046 2954.47,910.409 2945.4,910.409 C2936.72,910.409 2930.06,908.627 2925.41,905.063 C2922.31,902.662 2920.76,898.827 2920.76,893.558 C2920.76,885.191 2925.72,876.049 2935.64,866.133 C2946.25,855.519 2958.53,850.212 2972.48,850.212 C2975.97,850.212 2978.52,851.49 2980.15,854.047 C2981.47,852.575 2982.74,851.839 2983.98,851.839 M2963.18,898.091 C2963.1,897.471 2963.07,896.851 2963.07,896.231 C2963.07,895.921 2967.02,885.114 2974.92,863.808 C2975.69,861.717 2976.47,859.935 2977.24,858.463 C2974.22,857.843 2971.24,857.533 2968.3,857.533 C2962.87,857.533 2955.67,862.143 2946.68,871.362 C2938.62,879.574 2934.59,886.663 2934.59,892.629 C2934.59,899.214 2937.73,902.507 2944.01,902.507 C2951.6,902.507 2957.99,901.035 2963.18,898.091"/>
<path class="Note" d="M2939.71,642.535 C2935.91,642.535 2934.01,638.468 2934.01,630.333 L2934.01,596.283 C2934.01,593.029 2935.6,591.402 2938.78,591.402 C2940.17,591.402 2941.22,591.518 2941.92,591.751 C2944.39,587.412 2948.46,583.771 2954.12,580.827 C2962.02,576.721 2970.04,574.668 2978.17,574.668 C2984.6,574.668 2987.82,577.069 2987.82,581.873 C2987.82,585.902 2985.65,587.916 2981.31,587.916 C2978.21,587.916 2975.27,587.219 2972.48,585.824 C2970,584.584 2967.37,583.965 2964.58,583.965 C2959.77,583.965 2952.68,587.102 2943.31,593.378 C2944.63,599.653 2945.29,606.974 2945.29,615.342 C2945.29,633.471 2943.43,642.535 2939.71,642.535"/>
<path class="Note" d="M2939.71,553.244 C2935.91,553.244 2934.01,549.176 2934.01,541.041 L2934.01,506.992 C2934.01,503.738 2935.6,502.111 2938.78,502.111 C2940.17,502.111 2941.22,502.227 2941.92,502.459 C2944.39,498.121 2948.46,494.48 2954.12,491.536 C2962.02,487.43 2970.04,485.376 2978.17,485.376 C2984.6,485.376 2987.82,487.778 2987.82,492.582 C2987.82,496.61 2985.65,498.624 2981.31,498.624 C2978.21,498.624 2975.27,497.927 2972.48,496.533 C2970,495.293 2967.37,494.673 2964.58,494.673 C2959.77,494.673 2952.68,497.811 2943.31,504.086 C2944.63,510.362 2945.29,517.683 2945.29,526.05 C2945.29,544.179 2943.43,553.244 2939.71,553.244"/>
<path class="Note" d="M2872.9,677.207 C2873.21,665.509 2879.67,655.127 2892.3,646.063 C2903.54,638.005 2915.82,633.977 2929.14,633.977 C2947.81,633.977 2964.28,641.298 2978.53,655.941 C2987.6,665.315 2992.13,676.936 2992.13,690.804 C2992.13,703.277 2988.8,712.845 2982.13,719.508 C2974,727.72 2965.4,731.826 2956.33,731.826 C2950.14,731.826 2945.33,730.432 2941.92,727.643 C2936.35,723.072 2933.56,716.951 2933.56,709.281 C2933.56,699.365 2938.52,690.3 2948.43,682.088 C2956.57,675.348 2964.74,670.932 2972.95,668.84 C2970.78,665.121 2968.03,661.635 2964.7,658.381 C2954.32,648.232 2942.54,643.157 2929.37,643.157 C2915.66,643.157 2904.31,646.14 2895.32,652.106 C2886.03,658.226 2878.55,666.593 2872.9,677.207 M2975.86,674.999 C2971.6,678.95 2967.34,683.173 2963.07,687.666 C2954.71,696.498 2950.52,704.865 2950.52,712.768 C2950.52,721.212 2952.46,725.435 2956.33,725.435 C2959.82,725.435 2964.7,720.67 2970.98,711.141 C2976.01,703.548 2978.53,696.576 2978.53,690.223 C2978.53,684.8 2977.64,679.725 2975.86,674.999"/>
<path class="Note" d="M3476.3,973.437 C3469.95,983.431 3459.91,991.721 3446.2,998.306 C3434.27,1004.04 3423.11,1006.91 3412.73,1006.91 C3404.44,1006.91 3397.55,1005.24 3392.05,1001.91 C3386.08,998.267 3383.1,993.929 3383.1,988.893 C3383.1,977.504 3386.08,967.704 3392.05,959.491 C3400.18,948.335 3408.39,942.757 3416.68,942.757 C3422.57,942.757 3426.75,943.919 3429.23,946.243 C3432.64,949.265 3434.35,953.41 3434.35,958.678 C3434.35,966.115 3428.81,972.584 3417.73,978.085 C3406.96,983.431 3399.48,986.917 3395.3,988.544 C3396.23,990.481 3397.43,992.224 3398.9,993.774 C3402.54,997.647 3407.5,999.584 3413.78,999.584 C3421.68,999.584 3432.29,996.679 3445.62,990.868 C3458.4,985.213 3468.63,979.402 3476.3,973.437 M3393.67,983.198 C3399.48,980.254 3404.79,976.807 3409.59,972.856 C3416.72,967.045 3420.28,960.77 3420.28,954.029 C3420.28,950.233 3418.54,948.335 3415.05,948.335 C3412.11,948.335 3408.08,951.705 3402.97,958.445 C3396.54,966.813 3393.32,973.63 3393.32,978.899 C3393.32,980.371 3393.44,981.804 3393.67,983.198"/>
<path class="Note" d="M3396.23,642.535 C3392.43,642.535 3390.53,638.468 3390.53,630.333 L3390.53,596.283 C3390.53,593.029 3392.12,591.402 3395.3,591.402 C3396.69,591.402 3397.74,591.518 3398.44,591.751 C3400.92,587.412 3404.98,583.771 3410.64,580.827 C3418.54,576.721 3426.56,574.668 3434.69,574.668 C3441.12,574.668 3444.34,577.069 3444.34,581.873 C3444.34,585.902 3442.17,587.916 3437.83,587.916 C3434.73,587.916 3431.79,587.219 3429,585.824 C3426.52,584.584 3423.89,583.965 3421.1,583.965 C3416.29,583.965 3409.21,587.102 3399.83,593.378 C3401.15,599.653 3401.81,606.974 3401.81,615.342 C3401.81,633.471 3399.95,642.535 3396.23,642.535"/>
<path class="Note" d="M3329.42,766.499 C3329.73,754.8 3336.2,744.418 3348.82,735.354 C3360.06,727.297 3372.34,723.268 3385.66,723.268 C3404.33,723.268 3420.8,730.589 3435.05,745.232 C3444.12,754.606 3448.65,766.227 3448.65,780.095 C3448.65,792.568 3445.32,802.137 3438.65,808.799 C3430.52,817.012 3421.92,821.118 3412.86,821.118 C3406.66,821.118 3401.85,819.723 3398.45,816.934 C3392.87,812.363 3390.08,806.243 3390.08,798.573 C3390.08,788.656 3395.04,779.592 3404.95,771.379 C3413.09,764.639 3421.26,760.223 3429.47,758.131 C3427.3,754.413 3424.55,750.926 3421.22,747.672 C3410.84,737.523 3399.07,732.449 3385.9,732.449 C3372.18,732.449 3360.83,735.431 3351.85,741.397 C3342.55,747.517 3335.07,755.885 3329.42,766.499 M3432.38,764.291 C3428.12,768.242 3423.86,772.464 3419.6,776.957 C3411.23,785.79 3407.05,794.157 3407.05,802.059 C3407.05,810.504 3408.98,814.726 3412.86,814.726 C3416.34,814.726 3421.22,809.961 3427.5,800.432 C3432.53,792.84 3435.05,785.867 3435.05,779.514 C3435.05,774.091 3434.16,769.016 3432.38,764.291"/>
<path class="Note" d="M3455.38,650.479 C3459.72,647.535 3462.86,645.094 3464.79,643.157 C3468.36,639.361 3470.14,635.875 3470.14,632.698 C3470.14,629.057 3468.12,627.236 3464.1,627.236 C3456.27,627.236 3447.9,634.132 3438.99,647.922 C3436.28,652.106 3430.32,665.741 3421.1,688.828 C3428.46,696.421 3432.14,700.721 3432.14,701.728 C3432.14,703.122 3431.25,703.819 3429.47,703.819 C3428.07,703.819 3424.24,701.457 3417.96,696.731 C3411.14,712.613 3400.8,726.171 3386.93,737.404 C3372.75,748.871 3355.83,754.604 3336.15,754.604 C3328.63,754.604 3319.22,752.86 3307.91,749.374 C3298.84,746.585 3294.31,742.13 3294.31,736.01 C3294.31,726.945 3297.8,722.413 3304.77,722.413 C3308.95,722.413 3311.05,724.35 3311.05,728.224 C3311.05,729.463 3310.08,730.78 3308.14,732.175 C3307.13,732.872 3306.63,734.228 3306.63,736.242 C3306.63,738.644 3309.3,741.123 3314.65,743.68 C3320.46,746.469 3328.98,747.863 3340.22,747.863 C3354.7,747.863 3368.69,741.588 3382.17,729.037 C3394.41,717.649 3403.2,704.401 3408.55,689.293 C3406.46,687.589 3404.21,685.729 3401.81,683.715 C3394.37,679.299 3390.65,674.767 3390.65,670.118 C3390.65,668.181 3391.93,667.213 3394.49,667.213 C3397.89,667.213 3402.5,670.118 3408.31,675.929 C3409.55,677.168 3410.72,678.331 3411.8,679.415 C3414.51,671.978 3418.85,662.526 3424.82,651.06 C3435.59,630.297 3448.68,619.915 3464.1,619.915 C3469.6,619.915 3473.94,620.961 3477.11,623.053 C3480.29,625.145 3481.88,628.011 3481.88,631.652 C3481.88,637.463 3479.75,642.383 3475.48,646.411 C3471.07,650.595 3466.46,652.687 3461.66,652.687 C3457.47,652.687 3455.38,651.951 3455.38,650.479"/>
<path class="Note" d="M3797.03,999.7 C3793.23,999.7 3791.33,995.633 3791.33,987.498 L3791.33,953.448 C3791.33,950.194 3792.92,948.568 3796.1,948.568 C3797.49,948.568 3798.54,948.684 3799.23,948.916 C3801.71,944.578 3805.78,940.936 3811.44,937.992 C3819.34,933.886 3827.36,931.833 3835.49,931.833 C3841.92,931.833 3845.14,934.235 3845.14,939.038 C3845.14,943.067 3842.97,945.081 3838.63,945.081 C3835.53,945.081 3832.59,944.384 3829.8,942.989 C3827.32,941.75 3824.69,941.13 3821.9,941.13 C3817.09,941.13 3810,944.268 3800.63,950.543 C3801.95,956.818 3802.6,964.14 3802.6,972.507 C3802.6,990.636 3800.75,999.7 3797.03,999.7"/>
<path class="Note" d="M3797.03,642.535 C3793.23,642.535 3791.33,638.468 3791.33,630.333 L3791.33,596.283 C3791.33,593.029 3792.92,591.402 3796.1,591.402 C3797.49,591.402 3798.54,591.518 3799.23,591.751 C3801.71,587.412 3805.78,583.771 3811.44,580.827 C3819.34,576.721 3827.36,574.668 3835.49,574.668 C3841.92,574.668 3845.14,577.069 3845.14,581.873 C3845.14,585.902 3842.97,587.916 3838.63,587.916 C3835.53,587.916 3832.59,587.219 3829.8,585.824 C3827.32,584.584 3824.69,583.965 3821.9,583.965 C3817.09,583.965 3810,587.102 3800.63,593.378 C3801.95,599.653 3802.6,606.974 3802.6,615.342 C3802.6,633.471 3800.75,642.535 3797.03,642.535"/>
<path class="Note" d="M3797.03,553.244 C3793.23,553.244 3791.33,549.176 3791.33,541.041 L3791.33,506.992 C3791.33,503.738 3792.92,502.111 3796.1,502.111 C3797.49,502.111 3798.54,502.227 3799.23,502.459 C3801.71,498.121 3805.78,494.48 3811.44,491.536 C3819.34,487.43 3827.36,485.376 3835.49,485.376 C3841.92,485.376 3845.14,487.778 3845.14,492.582 C3845.14,496.61 3842.97,498.624 3838.63,498.624 C3835.53,498.624 3832.59,497.927 3829.8,496.533 C3827.32,495.293 3824.69,494.673 3821.9,494.673 C3817.09,494.673 3810,497.811 3800.63,504.086 C3801.95,510.362 3802.6,517.683 3802.6,526.05 C3802.6,544.179 3800.75,553.244 3797.03,553.244"/>
<path class="Note" d="M3730.21,677.207 C3730.52,665.509 3736.99,655.127 3749.62,646.063 C3760.86,638.005 3773.14,633.977 3786.46,633.977 C3805.13,633.977 3821.6,641.298 3835.85,655.941 C3844.91,665.315 3849.45,676.936 3849.45,690.804 C3849.45,703.277 3846.12,712.845 3839.45,719.508 C3831.32,727.72 3822.72,731.826 3813.65,731.826 C3807.46,731.826 3802.65,730.432 3799.24,727.643 C3793.67,723.072 3790.88,716.951 3790.88,709.281 C3790.88,699.365 3795.84,690.3 3805.75,682.088 C3813.89,675.348 3822.06,670.932 3830.27,668.84 C3828.1,665.121 3825.35,661.635 3822.02,658.381 C3811.64,648.232 3799.86,643.157 3786.69,643.157 C3772.98,643.157 3761.63,646.14 3752.64,652.106 C3743.35,658.226 3735.87,666.593 3730.21,677.207 M3833.18,674.999 C3828.92,678.95 3824.66,683.173 3820.39,687.666 C3812.03,696.498 3807.84,704.865 3807.84,712.768 C3807.84,721.212 3809.78,725.435 3813.65,725.435 C3817.14,725.435 3822.02,720.67 3828.3,711.141 C3833.33,703.548 3835.85,696.576 3835.85,690.223 C3835.85,684.8 3834.96,679.725 3833.18,674.999"/>
<path class="Clef" transform="matrix(2.3811,0,0,2.3811,212.156,2076.38)" d="M25.4,-25.1 C17.8,-25.1 11.7,-20.7 11.6,-20.7 C5.8,-16.4 3.5,-11.3 2.6,-7.8 C2.1,-6 1.9,-4.2 1.9,-2.5 C1.9,-0.1 2.3,2.1 3.2,4 C4.4,6.7 6.7,8.6 9.7,9.6 C10.9,10 12.2,10.2 13.5,10.2 C15.7,10.2 18,9.6 19.9,8.5 C23,6.8 24.9,3.2 24.9,-0.7 C24.9,-4.2 23.1,-7.4 20.1,-9.3 C18,-10.7 16,-11.1 14.3,-11.1 C13.1,-11.1 12,-10.9 11.1,-10.6 C10.1,-10.2 8.4,-9.2 7.6,-8.5 C7.9,-10.4 9.1,-13.3 10.2,-14.9 C11.3,-16.5 13.5,-18.5 15.2,-19.4 C17.7,-20.8 20.9,-21.4 24.4,-21.4 C34.6,-21.4 39.6,-13.2 39.6,3.6 C39.6,12.9 36.1,21.8 33.1,27.7 C29.8,34.3 25.4,40.6 21.5,44.1 C11.1,53.6 1.3,58.1 1.2,58.1 C1.2,58.1 -0.3,59 0.1,60.5 C0.4,61.5 1.3,61.7 1.9,61.7 C2,61.7 2.3,61.6 2.4,61.6 C2.5,61.6 13.9,56.9 23,49.8 C28.1,46.1 32.7,42.1 36.7,37.8 C40.3,33.9 43.4,29.7 45.9,25.5 C50.3,18 52.8,10.2 52.8,3.5 C52.8,-4.8 50.6,-11.7 46.5,-16.6 C41.8,-22.2 34.7,-25.1 25.4,-25.1 M56.8,-12.4 C56.8,-9.6 59,-7.4 61.6,-7.4 C64.2,-7.4 66.4,-9.6 66.4,-12.4 C66.4,-15.2 64.2,-17.5 61.6,-17.5 C59,-17.5 56.8,-15.2 56.8,-12.4 M56.8,12.3 C56.8,15.1 59,17.4 61.6,17.4 C64.2,17.4 66.4,15.1 66.4,12.3 C66.4,9.5 64.2,7.2 61.6,7.2 C59,7.2 56.8,9.5 56.8,12.3"/>
<path class="Clef" transform="matrix(2.3811,0,0,2.3811,212.156,1570.39)" d="M63.37,-5.89004 C62.14,-11.32 59.5,-15.14 58.72,-16.1801 C55.5301,-20.45 51.52,-23.3 46.8301,-24.65 C43.72,-25.54 40.72,-25.65 38.3,-25.47 C37.2601,-31.4801 36.2601,-37.3601 35.35,-42.8101 C40.79,-48.97 44.42,-54.77 46.69,-59.07 C50.1601,-65.65 51.3101,-70.2301 51.3601,-70.4301 C53.0801,-75.64 53.44,-83.34 52.34,-91.55 C51.3301,-99.1 49.24,-105.81 46.89,-109.06 C45.8601,-110.49 44.8101,-111.22 43.77,-111.22 C42.55,-111.22 40.04,-109.98 37.15,-107.21 C34.85,-105.01 31.5801,-101.12 29.02,-95.1101 C26.02,-88.05 25.8101,-78.5601 26.1601,-71.84 C26.54,-64.57 27.65,-58.8801 27.6601,-58.8301 C27.6801,-58.74 27.94,-57.24 28.39,-54.67 C28.1601,-54.44 27.92,-54.22 27.67,-53.9801 C26.6301,-52.9801 25.44,-51.84 24.0601,-50.4601 C23.2,-49.6 22.25,-48.69 21.25,-47.72 C12.79,-39.57 0,-27.25 0,-8.1 C0,-3.4 0.9,1.01992 2.68008,5.02998 C4.27002,8.62998 6.57002,11.91 9.5,14.78 C17.2301,22.33 27.82,25.5399 34.8801,25.38 C37.8301,25.31 40.4601,25.0699 42.85,24.6199 C44.6801,34.2199 45.82,41.25 45.8601,46.5899 C45.9,53.1 44.25,57.0699 40.35,59.8399 C37.92,61.5699 35.1101,62.5199 32.0101,62.6699 C29.42,62.7899 27.1601,62.3199 25.7301,61.91 L25.72,61.91 C25.72,61.91 25.4301,61.83 25.42,61.63 C25.4101,61.45 25.7601,61.4 25.77,61.4 L25.79,61.4 C27.7101,60.96 31.2801,59.73 33.64,56.43 C35.44,53.91 36.3101,49.2899 34.47,45.35 C33.3601,42.96 30.85,40.01 25.2301,39.56 C22.74,39.36 20.47,39.8699 18.47,41.0699 C16.6601,42.15 15.1601,43.7899 14.1101,45.7899 C11.65,50.4899 12.1101,56.2199 15.24,60.06 C18.2,63.68 22.82,65.9899 28.25,66.5699 C29.1,66.66 29.95,66.7 30.8,66.7 C31.5101,66.7 32.22,66.6699 32.92,66.61 C31.72,66.9399 30.64,67.4899 29.77,68.25 C28.2801,69.5399 27.44,71.38 27.44,73.41 C27.44,75.28 28.0601,76.65 29.55,78.0399 C28.4101,78.5 27.55,78.98 26.79,79.56 C25.25,80.73 24.34,82.46 24.34,84.1899 C24.34,87.45 27.3,89.63 31.72,89.63 C37.1301,89.63 40.9101,86.63 40.9101,82.35 C40.9101,80.1199 39.9101,78.18 38.0801,76.83 C41.0101,75.6199 42.37,73.9399 42.37,71.56 C42.39,70.05 41.69,68.61 40.49,67.6899 C39.2801,66.7399 37.62,66.2399 35.69,66.2399 L35.5101,66.2399 C38.2801,65.7 40.92,64.7 43.2101,63.28 C46.87,60.71 48.99,56.73 49.67,51.1 C50.2301,46.46 49.84,40.55 48.44,32.48 C48.0801,30.3899 47.54,27.36 46.8801,23.6 C52.6301,21.68 56.79,18.11 60.5601,12.26 C63.85,6.51992 64.8,0.419922 63.37,-5.89004 M32.39,87.5399 C30.19,87.5399 28.7301,86.1199 28.7301,84.01 C28.7301,82.11 29.65,80.5 31.32,79.4699 C31.6801,79.66 31.77,79.71 32.1101,79.88 C33.3,80.48 33.3,80.48 33.55,80.63 L33.5601,80.6399 C35.47,81.73 36.25,82.76 36.25,84.18 C36.24,86.0899 34.59,87.5399 32.39,87.5399 M38.3101,71.63 C38.3101,73.2699 37.7301,74.3399 36.1801,75.53 C34.74,74.78 34.35,74.56 33.9801,74.3399 L33.8801,74.28 C32.3301,73.3399 31.85,72.66 31.85,71.4 C31.85,69.6 33.2301,68.3399 35.19,68.3399 C37.17,68.35 38.3101,69.55 38.3101,71.63 M33.15,-83.8101 C34.9301,-89.55 37.67,-92.8 39.6601,-94.5301 C41.4101,-96.05 43.0601,-96.7601 43.9801,-96.7601 C44.12,-96.7601 44.24,-96.74 44.34,-96.7101 C44.8,-96.57 45.3301,-96 45.8,-95.1301 C48.1101,-90.84 47.37,-84.1301 46.0301,-79.69 C44.4,-74.29 41.4801,-68.6801 32.69,-59.0601 C32.52,-60.17 32.3601,-61.22 32.2101,-62.2 C30.95,-70.49 31.27,-77.7601 33.15,-83.8101 M29.15,20.31 C24.5101,19.0899 20.0801,16.5899 16.32,13.0899 C15.0101,11.86 13.14,9.68994 11.67,6.3 C10.3101,3.13994 9.65,-0.290039 9.7,-3.88008 C9.77002,-8.57002 11.0801,-13.39 13.59,-18.1801 C16.5101,-23.7601 21.07,-29.29 27.1301,-34.62 C28.5801,-35.9 29.95,-37.1801 31.24,-38.4601 C32,-34.2 32.8301,-29.5101 33.7101,-24.6301 C29.8601,-23.3601 25.1101,-20.2101 22,-14.5601 C18.47,-7.99004 18.6101,-2.47002 19.34,1.00996 C20.2801,5.46992 22.8101,9.22998 26.27,11.3199 C27.2,11.88 31.3301,14.01 33.17,13.43 C33.54,13.31 33.8101,13.0899 33.95,12.76 C34.4601,11.5899 33.44,10.95 31.8801,9.98994 C31.2801,9.61992 30.6101,9.2 29.8801,8.66992 C26.5601,6.17998 25.1101,1.72998 26.1801,-2.65 C26.7601,-5.05 28.04,-7.21006 29.8801,-8.91006 C31.55,-10.4601 33.59,-11.5601 35.97,-12.2 C38.0101,-0.960059 40.07,10.1899 41.7101,18.55 C41.84,19.2399 41.9801,19.91 42.1101,20.58 C37.7101,21.51 33.37,21.4199 29.15,20.31 M54.9,10.1 C53.7301,13.28 51.27,17.35 46.14,19.41 C46.07,18.9899 45.99,18.56 45.9101,18.13 C44.3601,9.36992 42.4301,-1.61006 40.47,-12.87 C50.82,-13.35 55.09,-5.91006 55.9801,-1.08008 C56.45,1.45 56.45,5.88994 54.9,10.1"/>
<path class="KeySig" transform="matrix(2.3811,0,0,2.3811,489.312,2165.67)" d="M23.3,-10.6 C23.9,-10.7 24.4,-11.4 24.4,-12 L24.4,-17.9 C24.4,-18.7 23.8,-19.3 23,-19.3 L22.8,-19.3 L19.5,-18.6 L19.5,-33.5 L16.7,-33.5 L16.7,-18 L7.8,-16.2 L7.8,-30.3 L5,-30.3 L5,-15.6 L1.1,-14.8 C0.5,-14.7 0,-14 0,-13.4 L0,-13.2 L0,-7.4 L0,-7.6 C0,-6.8 0.6,-6.2 1.4,-6.2 L1.7,-6.2 L5,-6.9 L5,9.6 L1.1,10.4 C0.5,10.5 0,11.2 0,11.8 L0,17.6 C0,18.4 0.6,19 1.4,19 L1.7,19 L5,18.3 L5,33.2 L7.8,33.2 L7.8,17.7 L16.7,15.9 L16.7,30 L19.5,30 L19.5,15.3 L23.3,14.6 C23.9,14.5 24.4,13.8 24.4,13.2 L24.4,7.3 C24.4,6.5 23.8,5.9 23,5.9 L22.8,5.9 L19.5,6.6 L19.5,-9.9 L23.3,-10.6 M7.8,9.1 L7.8,-7.5 L16.7,-9.3 L16.7,7.2 L7.8,9.1 "/>
<path class="KeySig" transform="matrix(2.3811,0,0,2.3811,429.785,2076.38)" d="M23.3,-10.6 C23.9,-10.7 24.4,-11.4 24.4,-12 L24.4,-17.9 C24.4,-18.7 23.8,-19.3 23,-19.3 L22.8,-19.3 L19.5,-18.6 L19.5,-33.5 L16.7,-33.5 L16.7,-18 L7.8,-16.2 L7.8,-30.3 L5,-30.3 L5,-15.6 L1.1,-14.8 C0.5,-14.7 0,-14 0,-13.4 L0,-13.2 L0,-7.4 L0,-7.6 C0,-6.8 0.6,-6.2 1.4,-6.2 L1.7,-6.2 L5,-6.9 L5,9.6 L1.1,10.4 C0.5,10.5 0,11.2 0,11.8 L0,17.6 C0,18.4 0.6,19 1.4,19 L1.7,19 L5,18.3 L5,33.2 L7.8,33.2 L7.8,17.7 L16.7,15.9 L16.7,30 L19.5,30 L19.5,15.3 L23.3,14.6 C23.9,14.5 24.4,13.8 24.4,13.2 L24.4,7.3 C24.4,6.5 23.8,5.9 23,5.9 L22.8,5.9 L19.5,6.6 L19.5,-9.9 L23.3,-10.6 M7.8,9.1 L7.8,-7.5 L16.7,-9.3 L16.7,7.2 L7.8,9.1 "/>
<path class="KeySig" transform="matrix(2.3811,0,0,2.3811,489.312,1481.1)" d="M23.3,-10.6 C23.9,-10.7 24.4,-11.4 24.4,-12 L24.4,-17.9 C24.4,-18.7 23.8,-19.3 23,-19.3 L22.8,-19.3 L19.5,-18.6 L19.5,-33.5 L16.7,-33.5 L16.7,-18 L7.8,-16.2 L7.8,-30.3 L5,-30.3 L5,-15.6 L1.1,-14.8 C0.5,-14.7 0,-14 0,-13.4 L0,-13.2 L0,-7.4 L0,-7.6 C0,-6.8 0.6,-6.2 1.4,-6.2 L1.7,-6.2 L5,-6.9 L5,9.6 L1.1,10.4 C0.5,10.5 0,11.2 0,11.8 L0,17.6 C0,18.4 0.6,19 1.4,19 L1.7,19 L5,18.3 L5,33.2 L7.8,33.2 L7.8,17.7 L16.7,15.9 L16.7,30 L19.5,30 L19.5,15.3 L23.3,14.6 C23.9,14.5 24.4,13.8 24.4,13.2 L24.4,7.3 C24.4,6.5 23.8,5.9 23,5.9 L22.8,5.9 L19.5,6.6 L19.5,-9.9 L23.3,-10.6 M7.8,9.1 L7.8,-7.5 L16.7,-9.3 L16.7,7.2 L7.8,9.1 "/>
<path class="KeySig" transform="matrix(2.3811,0,0,2.3811,429.785,1391.81)" d="M23.3,-10.6 C23.9,-10.7 24.4,-11.4 24.4,-12 L24.4,-17.9 C24.4,-18.7 23.8,-19.3 23,-19.3 L22.8,-19.3 L19.5,-18.6 L19.5,-33.5 L16.7,-33.5 L16.7,-18 L7.8,-16.2 L7.8,-30.3 L5,-30.3 L5,-15.6 L1.1,-14.8 C0.5,-14.7 0,-14 0,-13.4 L0,-13.2 L0,-7.4 L0,-7.6 C0,-6.8 0.6,-6.2 1.4,-6.2 L1.7,-6.2 L5,-6.9 L5,9.6 L1.1,10.4 C0.5,10.5 0,11.2 0,11.8 L0,17.6 C0,18.4 0.6,19 1.4,19 L1.7,19 L5,18.3 L5,33.2 L7.8,33.2 L7.8,17.7 L16.7,15.9 L16.7,30 L19.5,30 L19.5,15.3 L23.3,14.6 C23.9,14.5 24.4,13.8 24.4,13.2 L24.4,7.3 C24.4,6.5 23.8,5.9 23,5.9 L22.8,5.9 L19.5,6.6 L19.5,-9.9 L23.3,-10.6 M7.8,9.1 L7.8,-7.5 L16.7,-9.3 L16.7,7.2 L7.8,9.1 "/>
<path class="FiguredBass" d="M1149.93,2390.15 C1145.36,2390.15 1142.31,2391.99 1140.8,2395.67 C1139.28,2399.35 1138.52,2404.56 1138.52,2411.3 L1138.52,2422.25 C1141.74,2420.95 1144.52,2420.27 1146.87,2420.21 C1154.91,2420.21 1161.24,2421.98 1165.84,2425.54 C1170.45,2429.1 1172.76,2434.38 1172.76,2441.4 C1172.76,2448.42 1170.42,2453.73 1165.75,2457.31 C1161.08,2460.9 1154.79,2462.7 1146.87,2462.7 C1138.77,2462.7 1132.43,2458.94 1127.85,2451.42 C1123.28,2443.91 1120.99,2434.99 1120.99,2424.66 C1120.99,2414.39 1123.65,2405.49 1128.97,2397.94 C1134.29,2390.39 1141.27,2386.62 1149.93,2386.62 C1155.62,2386.62 1160.54,2388.06 1164.68,2390.94 C1168.83,2393.81 1170.9,2397.6 1170.9,2402.3 C1170.9,2405.02 1169.91,2407.37 1167.93,2409.35 C1165.95,2411.33 1163.59,2412.32 1160.83,2412.32 C1158.08,2412.32 1155.72,2411.33 1153.74,2409.35 C1151.76,2407.37 1150.77,2405.02 1150.77,2402.3 C1150.77,2399.64 1151.76,2397.29 1153.74,2395.25 C1154.42,2394.45 1155.38,2393.76 1156.61,2393.21 C1156.3,2392.4 1155.69,2391.79 1154.76,2391.35 C1153.4,2390.55 1151.79,2390.15 1149.93,2390.15 M1154.48,2428.09 C1153.37,2425.18 1150.92,2423.73 1147.15,2423.73 C1143.38,2423.73 1141.04,2425.18 1140.15,2428.09 C1139.25,2431 1138.8,2435.42 1138.8,2441.36 C1138.8,2448.35 1139.25,2453.05 1140.15,2455.46 C1141.04,2457.87 1143.38,2459.08 1147.15,2459.08 C1150.92,2459.08 1153.37,2457.62 1154.48,2454.72 C1155.59,2451.81 1156.15,2447.37 1156.15,2441.4 C1156.15,2435.44 1155.59,2431 1154.48,2428.09"/>
<path class="FiguredBass" d="M1599.2,2436.07 L1599.2,2419.09 C1599.2,2418.1 1599.56,2417.22 1600.27,2416.45 C1600.98,2415.67 1601.89,2415.29 1603.01,2415.29 C1604.12,2415.29 1605.03,2415.67 1605.74,2416.45 C1606.45,2417.22 1606.81,2418.1 1606.81,2419.09 L1606.81,2436.07 L1620.08,2436.07 C1621.19,2436.07 1622.1,2436.46 1622.81,2437.23 C1623.52,2438 1623.88,2438.88 1623.88,2439.87 C1623.88,2440.86 1623.52,2441.74 1622.81,2442.52 C1622.1,2443.29 1621.19,2443.68 1620.08,2443.68 L1606.81,2443.68 L1606.81,2460.65 C1606.81,2461.64 1606.45,2462.53 1605.74,2463.3 C1605.03,2464.07 1604.12,2464.46 1603.01,2464.46 C1601.89,2464.46 1600.98,2464.07 1600.27,2463.3 C1599.56,2462.53 1599.2,2461.64 1599.2,2460.65 L1599.2,2443.68 L1582.04,2443.68 L1582.04,2444.88 C1582.04,2448.72 1583.06,2452.06 1585.1,2454.9 C1587.14,2457.75 1589.77,2459.17 1592.99,2459.17 C1594.22,2459.17 1594.84,2459.73 1594.84,2460.84 C1594.84,2462.08 1594.22,2462.7 1592.99,2462.7 C1590.76,2462.7 1587.45,2462.37 1583.06,2461.72 C1578.67,2461.07 1575.34,2460.75 1573.09,2460.75 C1570.83,2460.75 1567.5,2461.07 1563.11,2461.72 C1558.72,2462.37 1555.41,2462.7 1553.19,2462.7 C1551.95,2462.7 1551.33,2462.08 1551.33,2460.84 C1551.33,2459.73 1551.95,2459.17 1553.19,2459.17 C1556.4,2459.17 1559.05,2457.75 1561.12,2454.9 C1563.19,2452.06 1564.23,2448.72 1564.23,2444.88 L1564.23,2443.68 L1538.9,2443.68 C1537.29,2443.68 1536.1,2443.29 1535.33,2442.52 C1534.55,2441.74 1534.17,2440.96 1534.17,2440.15 C1534.17,2439.84 1534.89,2438.78 1536.35,2436.95 C1537.8,2435.13 1539.58,2432.7 1541.68,2429.67 C1543.78,2426.64 1545.87,2423.19 1547.94,2419.32 C1550.02,2415.46 1551.78,2410.82 1553.23,2405.41 C1554.69,2400 1555.41,2394.54 1555.41,2389.03 C1555.41,2387.43 1556.09,2386.62 1557.45,2386.62 C1557.64,2386.62 1558.29,2386.78 1559.4,2387.09 C1560.52,2387.39 1561.94,2387.72 1563.67,2388.06 C1565.4,2388.4 1567.07,2388.57 1568.68,2388.57 C1571.09,2388.57 1573.57,2388.23 1576.1,2387.55 L1580.28,2386.44 C1581.08,2386.44 1581.73,2386.74 1582.22,2387.36 C1582.6,2387.92 1582.53,2388.48 1582.04,2389.03 L1541.59,2436.07 L1564.23,2436.07 L1564.23,2419.37 C1564.23,2417.95 1564.61,2416.85 1565.39,2416.08 C1566.16,2415.3 1567.21,2414.65 1568.54,2414.13 C1569.87,2413.6 1571.4,2412.26 1573.13,2410.09 C1574.74,2408.05 1576.6,2404.96 1578.7,2400.82 C1579.01,2400.2 1579.47,2399.89 1580.09,2399.89 C1581.39,2399.89 1582.04,2400.6 1582.04,2402.02 L1582.04,2436.07 L1599.2,2436.07 "/>
<path class="FiguredBass" d="M1581.2,2528.09 C1581.2,2529.08 1581.76,2530.04 1582.87,2530.97 C1583.99,2531.89 1585.21,2532.77 1586.54,2533.61 C1587.87,2534.44 1589.09,2536.02 1590.2,2538.34 C1591.32,2540.66 1591.87,2543.58 1591.87,2547.11 C1591.87,2553.91 1589.31,2559.17 1584.17,2562.88 C1579.04,2566.59 1572.54,2568.45 1564.69,2568.45 C1558.38,2568.45 1552.89,2566.87 1548.22,2563.71 C1543.55,2560.56 1541.22,2556.42 1541.22,2551.28 C1541.22,2548.56 1542.21,2546.2 1544.19,2544.19 C1546.17,2542.18 1548.53,2541.17 1551.28,2541.17 C1554.04,2541.17 1556.37,2542.16 1558.29,2544.14 C1560.21,2546.12 1561.16,2548.5 1561.16,2551.28 C1561.16,2552.52 1560.14,2553.86 1558.1,2555.32 C1556.06,2556.77 1555.04,2558.12 1555.04,2559.35 C1555.04,2561.27 1555.98,2562.68 1557.87,2563.57 C1559.76,2564.47 1562.03,2564.92 1564.69,2564.92 C1568.15,2564.92 1570.61,2563.2 1572.07,2559.77 C1573.52,2556.34 1574.25,2552.12 1574.25,2547.11 L1574.25,2544.7 C1574.25,2541.36 1574.14,2538.82 1573.92,2537.09 C1573.7,2535.36 1573.02,2533.81 1571.88,2532.45 C1570.74,2531.09 1568.99,2530.41 1566.64,2530.41 L1554.48,2530.41 C1553.06,2530.41 1552.35,2529.64 1552.35,2528.09 C1552.35,2526.67 1553.06,2525.96 1554.48,2525.96 L1566.64,2525.96 C1569.17,2525.96 1571.15,2525 1572.58,2523.08 C1573.07,2522.4 1573.47,2521.29 1573.78,2519.74 C1574.09,2517.7 1574.25,2514.76 1574.25,2510.93 L1574.25,2509.72 C1574.25,2500.5 1570.84,2495.9 1564.04,2495.9 C1558.04,2495.9 1555.04,2497.57 1555.04,2500.91 C1555.04,2502.02 1555.95,2503.21 1557.78,2504.48 C1559.6,2505.75 1560.52,2506.94 1560.52,2508.05 C1560.52,2510.46 1559.66,2512.53 1557.96,2514.27 C1556.26,2516 1554.19,2516.86 1551.75,2516.86 C1549.3,2516.86 1547.25,2516 1545.58,2514.27 C1543.91,2512.53 1543.07,2510.46 1543.07,2508.05 C1543.07,2503.29 1545.15,2499.48 1549.29,2496.64 C1553.43,2493.79 1558.35,2492.37 1564.04,2492.37 C1571.52,2492.37 1577.68,2493.81 1582.5,2496.69 C1587.33,2499.56 1589.74,2503.91 1589.74,2509.72 C1589.74,2513.86 1589.31,2517.08 1588.44,2519.37 C1587.57,2521.66 1586.58,2523.05 1585.47,2523.54 C1584.36,2524.04 1583.37,2524.61 1582.5,2525.26 C1581.64,2525.91 1581.2,2526.85 1581.2,2528.09"/>
<path class="FiguredBass" d="M2094.56,2453.05 L2094.56,2472.44 C2094.56,2474.35 2093.59,2475.31 2091.64,2475.31 C2089.69,2475.31 2088.72,2474.35 2088.72,2472.44 L2088.72,2455.55 L2085.75,2456.76 C2085.44,2456.88 2085.04,2456.94 2084.54,2456.94 C2083.74,2456.94 2083.03,2456.63 2082.41,2456.02 C2081.79,2455.4 2081.48,2454.69 2081.48,2453.88 L2081.48,2444.42 C2081.48,2443.06 2082.13,2442.1 2083.43,2441.54 L2088.72,2439.32 L2088.72,2419.83 L2085.75,2421.04 C2085.56,2421.1 2085.32,2421.13 2085.01,2421.13 C2084.88,2421.13 2084.73,2421.13 2084.54,2421.13 C2083.62,2421.01 2082.87,2420.67 2082.32,2420.11 C2081.76,2419.56 2081.48,2418.91 2081.48,2418.16 L2081.48,2408.7 C2081.48,2407.4 2082.13,2406.47 2083.43,2405.92 L2088.72,2403.69 L2088.72,2383.93 C2088.72,2382.01 2089.69,2381.05 2091.64,2381.05 C2093.59,2381.05 2094.56,2382.01 2094.56,2383.93 L2094.56,2401.28 L2106.53,2396.27 L2106.53,2376.88 C2106.53,2374.96 2107.49,2374 2109.41,2374 C2111.32,2374 2112.28,2374.96 2112.28,2376.88 L2112.28,2393.95 L2115.53,2392.56 C2115.84,2392.44 2116.18,2392.37 2116.55,2392.37 C2117.36,2392.37 2118.08,2392.68 2118.73,2393.3 C2119.38,2393.92 2119.71,2394.63 2119.71,2395.43 L2119.71,2404.9 C2119.71,2406.26 2119.02,2407.22 2117.66,2407.77 L2112.28,2410 L2112.28,2429.58 L2115.53,2428.28 C2115.72,2428.21 2115.93,2428.18 2116.18,2428.18 C2116.3,2428.18 2116.43,2428.18 2116.55,2428.18 C2117.6,2428.37 2118.39,2428.71 2118.92,2429.2 C2119.44,2429.7 2119.71,2430.35 2119.71,2431.15 L2119.71,2440.62 C2119.71,2441.91 2119.02,2442.84 2117.66,2443.4 L2112.28,2445.63 L2112.28,2465.39 C2112.28,2467.3 2111.32,2468.26 2109.41,2468.26 C2107.49,2468.26 2106.53,2467.3 2106.53,2465.39 L2106.53,2448.04 L2094.56,2453.05 M2094.56,2436.9 L2106.53,2431.99 L2106.53,2412.41 L2094.56,2417.42 L2094.56,2436.9 "/>
<path class="FiguredBass" d="M2492.41,2444.42 C2491.73,2445.16 2490.83,2445.53 2489.72,2445.53 C2488.61,2445.53 2487.7,2445.15 2486.98,2444.37 C2486.27,2443.6 2485.92,2442.72 2485.92,2441.73 L2485.92,2428.46 L2472.65,2428.46 C2471.54,2428.46 2470.63,2428.08 2469.91,2427.3 C2469.2,2426.53 2468.85,2425.65 2468.85,2424.66 C2468.85,2423.67 2469.2,2422.79 2469.91,2422.01 C2470.63,2421.24 2471.54,2420.85 2472.65,2420.85 L2485.92,2420.85 L2485.92,2407.59 C2485.92,2406.6 2486.27,2405.72 2486.98,2404.94 C2487.7,2404.17 2488.61,2403.78 2489.72,2403.78 C2490.83,2403.78 2491.75,2404.17 2492.46,2404.94 C2493.17,2405.72 2493.52,2406.6 2493.52,2407.59 L2493.52,2420.85 L2506.79,2420.85 C2507.9,2420.85 2508.82,2421.24 2509.53,2422.01 C2510.24,2422.79 2510.59,2423.67 2510.59,2424.66 C2510.59,2425.65 2510.24,2426.53 2509.53,2427.3 C2508.82,2428.08 2507.9,2428.46 2506.79,2428.46 L2493.52,2428.46 L2493.52,2441.73 C2493.52,2442.72 2493.15,2443.62 2492.41,2444.42 M2545.19,2388.57 C2547.54,2388.57 2550.01,2388.23 2552.61,2387.55 L2556.78,2386.44 C2557.59,2386.44 2558.22,2386.74 2558.68,2387.36 C2559.15,2387.98 2559.1,2388.54 2558.55,2389.03 L2515.41,2439.22 L2540.73,2439.22 L2540.73,2419.37 C2540.73,2417.95 2541.12,2416.85 2541.89,2416.08 C2542.67,2415.3 2543.65,2414.69 2544.86,2414.22 C2546.07,2413.76 2547.64,2412.38 2549.59,2410.09 C2551.54,2407.8 2553.41,2404.71 2555.21,2400.82 C2555.51,2400.2 2555.98,2399.89 2556.6,2399.89 C2557.9,2399.89 2558.55,2400.6 2558.55,2402.02 L2558.55,2439.22 L2569.49,2439.22 C2571.04,2439.22 2571.81,2439.94 2571.81,2441.36 C2571.81,2442.9 2571.04,2443.68 2569.49,2443.68 L2558.55,2443.68 L2558.55,2444.88 C2558.55,2448.72 2559.57,2452.06 2561.61,2454.9 C2563.65,2457.75 2566.28,2459.17 2569.49,2459.17 C2570.73,2459.17 2571.35,2459.73 2571.35,2460.84 C2571.35,2462.08 2570.73,2462.7 2569.49,2462.7 C2567.27,2462.7 2563.96,2462.37 2559.57,2461.72 C2555.17,2461.07 2551.85,2460.75 2549.59,2460.75 C2547.34,2460.75 2544.01,2461.07 2539.62,2461.72 C2535.23,2462.37 2531.92,2462.7 2529.69,2462.7 C2528.46,2462.7 2527.84,2462.08 2527.84,2460.84 C2527.84,2459.73 2528.46,2459.17 2529.69,2459.17 C2532.91,2459.17 2535.55,2457.75 2537.62,2454.9 C2539.7,2452.06 2540.73,2448.72 2540.73,2444.88 L2540.73,2443.68 L2515.41,2443.68 C2513.8,2443.68 2512.61,2443.29 2511.83,2442.52 C2511.06,2441.74 2510.67,2440.96 2510.67,2440.15 C2510.67,2439.84 2511.4,2438.78 2512.85,2436.95 C2514.31,2435.13 2516.09,2432.7 2518.19,2429.67 C2520.29,2426.64 2522.38,2423.19 2524.45,2419.32 C2526.52,2415.46 2528.29,2410.82 2529.74,2405.41 C2531.19,2400 2531.92,2394.54 2531.92,2389.03 C2531.92,2387.43 2532.6,2386.62 2533.96,2386.62 C2534.15,2386.62 2534.8,2386.78 2535.91,2387.09 C2537.02,2387.39 2538.44,2387.72 2540.18,2388.06 C2541.91,2388.4 2543.58,2388.57 2545.19,2388.57"/>
<path class="FiguredBass" d="M2952.35,2390.15 C2947.78,2390.15 2944.73,2391.99 2943.22,2395.67 C2941.7,2399.35 2940.94,2404.56 2940.94,2411.3 L2940.94,2422.25 C2944.16,2420.95 2946.94,2420.27 2949.29,2420.21 C2957.33,2420.21 2963.66,2421.98 2968.26,2425.54 C2972.87,2429.1 2975.18,2434.38 2975.18,2441.4 C2975.18,2448.42 2972.84,2453.73 2968.17,2457.31 C2963.5,2460.9 2957.21,2462.7 2949.29,2462.7 C2941.19,2462.7 2934.85,2458.94 2930.27,2451.42 C2925.7,2443.91 2923.41,2434.99 2923.41,2424.66 C2923.41,2414.39 2926.07,2405.49 2931.39,2397.94 C2936.71,2390.39 2943.69,2386.62 2952.35,2386.62 C2958.04,2386.62 2962.96,2388.06 2967.1,2390.94 C2971.25,2393.81 2973.32,2397.6 2973.32,2402.3 C2973.32,2405.02 2972.33,2407.37 2970.35,2409.35 C2968.37,2411.33 2966.01,2412.32 2963.25,2412.32 C2960.5,2412.32 2958.14,2411.33 2956.16,2409.35 C2954.18,2407.37 2953.19,2405.02 2953.19,2402.3 C2953.19,2399.64 2954.18,2397.29 2956.16,2395.25 C2956.84,2394.45 2957.8,2393.76 2959.03,2393.21 C2958.72,2392.4 2958.11,2391.79 2957.18,2391.35 C2955.82,2390.55 2954.21,2390.15 2952.35,2390.15 M2956.9,2428.09 C2955.79,2425.18 2953.34,2423.73 2949.57,2423.73 C2945.8,2423.73 2943.46,2425.18 2942.57,2428.09 C2941.67,2431 2941.22,2435.42 2941.22,2441.36 C2941.22,2448.35 2941.67,2453.05 2942.57,2455.46 C2943.46,2457.87 2945.8,2459.08 2949.57,2459.08 C2953.34,2459.08 2955.79,2457.62 2956.9,2454.72 C2958.01,2451.81 2958.57,2447.37 2958.57,2441.4 C2958.57,2435.44 2958.01,2431 2956.9,2428.09"/>
<path class="FiguredBass" d="M3355.45,2444.42 C3354.77,2445.16 3353.87,2445.53 3352.76,2445.53 C3351.65,2445.53 3350.74,2445.15 3350.02,2444.37 C3349.31,2443.6 3348.96,2442.72 3348.96,2441.73 L3348.96,2428.46 L3335.69,2428.46 C3334.58,2428.46 3333.66,2428.08 3332.95,2427.3 C3332.24,2426.53 3331.89,2425.65 3331.89,2424.66 C3331.89,2423.67 3332.24,2422.79 3332.95,2422.01 C3333.66,2421.24 3334.58,2420.85 3335.69,2420.85 L3348.96,2420.85 L3348.96,2407.59 C3348.96,2406.6 3349.31,2405.72 3350.02,2404.94 C3350.74,2404.17 3351.65,2403.78 3352.76,2403.78 C3353.87,2403.78 3354.79,2404.17 3355.5,2404.94 C3356.21,2405.72 3356.56,2406.6 3356.56,2407.59 L3356.56,2420.85 L3369.83,2420.85 C3370.94,2420.85 3371.86,2421.24 3372.57,2422.01 C3373.28,2422.79 3373.63,2423.67 3373.63,2424.66 C3373.63,2425.65 3373.28,2426.53 3372.57,2427.3 C3371.86,2428.08 3370.94,2428.46 3369.83,2428.46 L3356.56,2428.46 L3356.56,2441.73 C3356.56,2442.72 3356.19,2443.62 3355.45,2444.42 M3408.87,2390.15 C3404.3,2390.15 3401.25,2391.99 3399.74,2395.67 C3398.22,2399.35 3397.46,2404.56 3397.46,2411.3 L3397.46,2422.25 C3400.68,2420.95 3403.46,2420.27 3405.81,2420.21 C3413.85,2420.21 3420.18,2421.98 3424.79,2425.54 C3429.39,2429.1 3431.7,2434.38 3431.7,2441.4 C3431.7,2448.42 3429.36,2453.73 3424.69,2457.31 C3420.02,2460.9 3413.73,2462.7 3405.81,2462.7 C3397.71,2462.7 3391.37,2458.94 3386.79,2451.42 C3382.22,2443.91 3379.93,2434.99 3379.93,2424.66 C3379.93,2414.39 3382.59,2405.49 3387.91,2397.94 C3393.23,2390.39 3400.22,2386.62 3408.87,2386.62 C3414.56,2386.62 3419.48,2388.06 3423.63,2390.94 C3427.77,2393.81 3429.84,2397.6 3429.84,2402.3 C3429.84,2405.02 3428.85,2407.37 3426.87,2409.35 C3424.89,2411.33 3422.53,2412.32 3419.78,2412.32 C3417.02,2412.32 3414.66,2411.33 3412.68,2409.35 C3410.7,2407.37 3409.71,2405.02 3409.71,2402.3 C3409.71,2399.64 3410.7,2397.29 3412.68,2395.25 C3413.36,2394.45 3414.32,2393.76 3415.55,2393.21 C3415.25,2392.4 3414.63,2391.79 3413.7,2391.35 C3412.34,2390.55 3410.73,2390.15 3408.87,2390.15 M3413.42,2428.09 C3412.31,2425.18 3409.86,2423.73 3406.09,2423.73 C3402.32,2423.73 3399.98,2425.18 3399.09,2428.09 C3398.19,2431 3397.74,2435.42 3397.74,2441.36 C3397.74,2448.35 3398.19,2453.05 3399.09,2455.46 C3399.98,2457.87 3402.32,2459.08 3406.09,2459.08 C3409.86,2459.08 3412.31,2457.62 3413.42,2454.72 C3414.53,2451.81 3415.09,2447.37 3415.09,2441.4 C3415.09,2435.44 3414.53,2431 3413.42,2428.09"/>
<path class="Bracket" transform="matrix(8.6315,0,0,8.6315,76.1283,2254.96)" d="M0.92002,-50 C2.69004,-51.88 6.2,-55.8 6.2,-63 C6.2,-72.1 2.25996,-81.32 2.25996,-86.97 C2.25996,-93.06 5.84004,-98.84 5.95,-99 C6.05996,-99.16 6.05,-99.39 5.94004,-99.46 C5.82998,-99.53 5.62002,-99.47 5.49004,-99.32 C5.35996,-99.17 0,-93.75 0,-85.6 C0,-76.75 3.5,-70.58 3.5,-59.07 C3.5,-56.89 2.55996,-53.36 0.1,-50.33 C-0.0799805,-50.17 -0.1,-49.89 0.0599609,-49.7 L0.0700195,-49.69 L0.1,-49.66 C2.55996,-46.63 3.5,-43.1 3.5,-40.92 C3.5,-29.4 0,-23.24 0,-14.39 C0,-6.25 5.35996,-0.8 5.49004,-0.659961 C5.62002,-0.52002 5.8,-0.42998 5.94004,-0.52002 C6.07998,-0.609961 6.07998,-0.77998 5.95,-0.97998 C5.82002,-1.17998 2.25996,-6.92002 2.25996,-13.01 C2.25996,-18.66 6.2,-27.9 6.2,-37 C6.2,-44.3 2.69004,-48.12 0.92002,-50"/>
</svg>
