<?xml version="1.0" encoding="UTF-8" standalone="no"?>
<svg width="4209.44px" height="2976.38px" viewBox="0 0 4209.44 2976.38"
 xmlns="http://www.w3.org/2000/svg" xmlns:xlink="http://www.w3.org/1999/xlink" version="1.2" baseProfile="tiny">
<title>SolMajeur (21)</title>
<desc>Generated by MuseScore 3.6.2</desc>
<polyline class="StaffLines" fill="none" stroke="#000000" stroke-width="6.55" stroke-linejoin="bevel" points="153.819,562.22 4138.58,562.22"/>
<polyline class="StaffLines" fill="none" stroke="#000000" stroke-width="6.55" stroke-linejoin="bevel" points="153.819,651.511 4138.58,651.511"/>
<polyline class="StaffLines" fill="none" stroke="#000000" stroke-width="6.55" stroke-linejoin="bevel" points="153.819,740.803 4138.58,740.803"/>
<polyline class="StaffLines" fill="none" stroke="#000000" stroke-width="6.55" stroke-linejoin="bevel" points="153.819,830.094 4138.58,830.094"/>
<polyline class="StaffLines" fill="none" stroke="#000000" stroke-width="6.55" stroke-linejoin="bevel" points="153.819,919.386 4138.58,919.386"/>
<polyline class="StaffLines" fill="none" stroke="#000000" stroke-width="6.55" stroke-linejoin="bevel" points="153.819,1008.68 4138.58,1008.68"/>
<polyline class="StaffLines" fill="none" stroke="#000000" stroke-width="6.55" stroke-linejoin="bevel" points="153.819,1395.61 4138.58,1395.61"/>
<polyline class="StaffLines" fill="none" stroke="#000000" stroke-width="6.55" stroke-linejoin="bevel" points="153.819,1455.13 4138.58,1455.13"/>
<polyline class="StaffLines" fill="none" stroke="#000000" stroke-width="6.55" stroke-linejoin="bevel" points="153.819,1514.66 4138.58,1514.66"/>
<polyline class="StaffLines" fill="none" stroke="#000000" stroke-width="6.55" stroke-linejoin="bevel" points="153.819,1574.19 4138.58,1574.19"/>
<polyline class="StaffLines" fill="none" stroke="#000000" stroke-width="6.55" stroke-linejoin="bevel" points="153.819,1633.72 4138.58,1633.72"/>
<polyline class="StaffLines" fill="none" stroke="#000000" stroke-width="6.55" stroke-linejoin="bevel" points="153.819,2103.06 4138.58,2103.06"/>
<polyline class="StaffLines" fill="none" stroke="#000000" stroke-width="6.55" stroke-linejoin="bevel" points="153.819,2162.59 4138.58,2162.59"/>
<polyline class="StaffLines" fill="none" stroke="#000000" stroke-width="6.55" stroke-linejoin="bevel" points="153.819,2222.11 4138.58,2222.11"/>
<polyline class="StaffLines" fill="none" stroke="#000000" stroke-width="6.55" stroke-linejoin="bevel" points="153.819,2281.64 4138.58,2281.64"/>
<polyline class="StaffLines" fill="none" stroke="#000000" stroke-width="6.55" stroke-linejoin="bevel" points="153.819,2341.17 4138.58,2341.17"/>
<path class="Symbol" transform="matrix(2.3811,0,0,2.3811,694.562,800.33)" d="M0,-0.1 C0,7.7 4,14 10.4,18.1 L10.9,17.4 C7.5,14.8 6.3,13.3 5.2,10.1 C4.2,7.2 3.7,4 3.7,-0.2 C3.7,-8.1 4.8,-12.3 10.9,-17.4 L10.5,-18.1 C3.9,-13.6 0,-8.5 0,-0.1"/>
<path class="Symbol" transform="matrix(2.3811,0,0,2.3811,799.572,800.33)" d="M3.7,-0.2 C3.7,4 3.2,7.2 2.2,10.1 C1,13.3 -0.2,14.8 -3.6,17.4 L-3,18.1 C3.4,14.1 7.3,7.6 7.3,-0.1 C7.3,-8.4 3.4,-13.8 -3.2,-18.1 L-3.6,-17.4 C2.6,-12.4 3.7,-8.1 3.7,-0.2"/>
<path class="Symbol" transform="matrix(2.3811,0,0,2.3811,694.562,532.456)" d="M0,-0.1 C0,7.7 4,14 10.4,18.1 L10.9,17.4 C7.5,14.8 6.3,13.3 5.2,10.1 C4.2,7.2 3.7,4 3.7,-0.2 C3.7,-8.1 4.8,-12.3 10.9,-17.4 L10.5,-18.1 C3.9,-13.6 0,-8.5 0,-0.1"/>
<path class="Symbol" transform="matrix(2.3811,0,0,2.3811,799.572,532.456)" d="M3.7,-0.2 C3.7,4 3.2,7.2 2.2,10.1 C1,13.3 -0.2,14.8 -3.6,17.4 L-3,18.1 C3.4,14.1 7.3,7.6 7.3,-0.1 C7.3,-8.4 3.4,-13.8 -3.2,-18.1 L-3.6,-17.4 C2.6,-12.4 3.7,-8.1 3.7,-0.2"/>
<polyline class="BarLine" fill="none" stroke="#000000" stroke-width="10.71" stroke-linejoin="bevel" points="159.176,2099.79 159.176,2344.44"/>
<polyline class="BarLine" fill="none" stroke="#000000" stroke-width="10.71" stroke-linejoin="bevel" points="1106.29,2099.79 1106.29,2344.44"/>
<polyline class="BarLine" fill="none" stroke="#000000" stroke-width="10.71" stroke-linejoin="bevel" points="1595.15,2099.79 1595.15,2344.44"/>
<polyline class="BarLine" fill="none" stroke="#000000" stroke-width="10.71" stroke-linejoin="bevel" points="2059.37,2099.79 2059.37,2344.44"/>
<polyline class="BarLine" fill="none" stroke="#000000" stroke-width="10.71" stroke-linejoin="bevel" points="2092.11,2099.79 2092.11,2344.44"/>
<polyline class="BarLine" fill="none" stroke="#000000" stroke-width="10.71" stroke-linejoin="bevel" points="2580.97,2099.79 2580.97,2344.44"/>
<polyline class="BarLine" fill="none" stroke="#000000" stroke-width="10.71" stroke-linejoin="bevel" points="3069.83,2099.79 3069.83,2344.44"/>
<polyline class="BarLine" fill="none" stroke="#000000" stroke-width="10.71" stroke-linejoin="bevel" points="3616.31,2099.79 3616.31,2344.44"/>
<polyline class="BarLine" fill="none" stroke="#000000" stroke-width="10.71" stroke-linejoin="bevel" points="4080.54,2099.79 4080.54,2344.44"/>
<polyline class="BarLine" fill="none" stroke="#000000" stroke-width="32.74" stroke-linejoin="bevel" points="4122.21,2099.79 4122.21,2344.44"/>
<polyline class="BarLine" fill="none" stroke="#000000" stroke-width="10.71" stroke-linejoin="bevel" points="159.176,1392.33 159.176,2103.06"/>
<polyline class="BarLine" fill="none" stroke="#000000" stroke-width="10.71" stroke-linejoin="bevel" points="1106.29,1392.33 1106.29,1636.99"/>
<polyline class="BarLine" fill="none" stroke="#000000" stroke-width="10.71" stroke-linejoin="bevel" points="1595.15,1392.33 1595.15,1636.99"/>
<polyline class="BarLine" fill="none" stroke="#000000" stroke-width="10.71" stroke-linejoin="bevel" points="2059.37,1392.33 2059.37,1636.99"/>
<polyline class="BarLine" fill="none" stroke="#000000" stroke-width="10.71" stroke-linejoin="bevel" points="2092.11,1392.33 2092.11,1636.99"/>
<polyline class="BarLine" fill="none" stroke="#000000" stroke-width="10.71" stroke-linejoin="bevel" points="2580.97,1392.33 2580.97,1636.99"/>
<polyline class="BarLine" fill="none" stroke="#000000" stroke-width="10.71" stroke-linejoin="bevel" points="3069.83,1392.33 3069.83,1636.99"/>
<polyline class="BarLine" fill="none" stroke="#000000" stroke-width="10.71" stroke-linejoin="bevel" points="3616.31,1392.33 3616.31,1636.99"/>
<polyline class="BarLine" fill="none" stroke="#000000" stroke-width="10.71" stroke-linejoin="bevel" points="4080.54,1392.33 4080.54,1636.99"/>
<polyline class="BarLine" fill="none" stroke="#000000" stroke-width="32.74" stroke-linejoin="bevel" points="4122.21,1392.33 4122.21,1636.99"/>
<polyline class="BarLine" fill="none" stroke="#000000" stroke-width="10.71" stroke-linejoin="bevel" points="159.176,558.946 159.176,1395.61"/>
<polyline class="BarLine" fill="none" stroke="#000000" stroke-width="10.71" stroke-linejoin="bevel" points="1106.29,558.946 1106.29,1011.95"/>
<polyline class="BarLine" fill="none" stroke="#000000" stroke-width="10.71" stroke-linejoin="bevel" points="1595.15,558.946 1595.15,1011.95"/>
<polyline class="BarLine" fill="none" stroke="#000000" stroke-width="10.71" stroke-linejoin="bevel" points="2059.37,558.946 2059.37,1011.95"/>
<polyline class="BarLine" fill="none" stroke="#000000" stroke-width="10.71" stroke-linejoin="bevel" points="2092.11,558.946 2092.11,1011.95"/>
<polyline class="BarLine" fill="none" stroke="#000000" stroke-width="10.71" stroke-linejoin="bevel" points="2580.97,558.946 2580.97,1011.95"/>
<polyline class="BarLine" fill="none" stroke="#000000" stroke-width="10.71" stroke-linejoin="bevel" points="3069.83,558.946 3069.83,1011.95"/>
<polyline class="BarLine" fill="none" stroke="#000000" stroke-width="10.71" stroke-linejoin="bevel" points="3616.31,558.946 3616.31,1011.95"/>
<polyline class="BarLine" fill="none" stroke="#000000" stroke-width="10.71" stroke-linejoin="bevel" points="4080.54,558.946 4080.54,1011.95"/>
<polyline class="BarLine" fill="none" stroke="#000000" stroke-width="32.74" stroke-linejoin="bevel" points="4122.21,558.946 4122.21,1011.95"/>
<path class="Accidental" transform="matrix(2.3811,0,0,2.3811,636.699,1484.9)" d="M23.3,-10.6 C23.9,-10.7 24.4,-11.4 24.4,-12 L24.4,-17.9 C24.4,-18.7 23.8,-19.3 23,-19.3 L22.8,-19.3 L19.5,-18.6 L19.5,-33.5 L16.7,-33.5 L16.7,-18 L7.8,-16.2 L7.8,-30.3 L5,-30.3 L5,-15.6 L1.1,-14.8 C0.5,-14.7 0,-14 0,-13.4 L0,-13.2 L0,-7.4 L0,-7.6 C0,-6.8 0.6,-6.2 1.4,-6.2 L1.7,-6.2 L5,-6.9 L5,9.6 L1.1,10.4 C0.5,10.5 0,11.2 0,11.8 L0,17.6 C0,18.4 0.6,19 1.4,19 L1.7,19 L5,18.3 L5,33.2 L7.8,33.2 L7.8,17.7 L16.7,15.9 L16.7,30 L19.5,30 L19.5,15.3 L23.3,14.6 C23.9,14.5 24.4,13.8 24.4,13.2 L24.4,7.3 C24.4,6.5 23.8,5.9 23,5.9 L22.8,5.9 L19.5,6.6 L19.5,-9.9 L23.3,-10.6 M7.8,9.1 L7.8,-7.5 L16.7,-9.3 L16.7,7.2 L7.8,9.1 "/>
<polyline class="LedgerLine" fill="none" stroke="#000000" stroke-width="9.52" stroke-linejoin="bevel" points="2663.71,1336.08 2794.19,1336.08"/>
<polyline class="LedgerLine" fill="none" stroke="#000000" stroke-width="9.52" stroke-linejoin="bevel" points="3219.71,1336.08 3350.19,1336.08"/>
<path class="Note" transform="matrix(2.3811,0,0,2.3811,709.676,2192.35)" d="M18.7,-13.6 C4.9,-13.6 0,-6.6 0,-0.1 C0,6.4 4.9,13.4 18.7,13.4 C32.5,13.4 37.3,6.4 37.3,-0.1 C37.3,-6.6 32.5,-13.6 18.7,-13.6 M10.4,-4.5 C10.3,-4.9 10.3,-5.3 10.3,-5.7 C10.3,-6.5 10.5,-7.3 10.9,-8 C11.6,-9 12.8,-9.7 14.3,-10 C15.6,-10.3 16.3,-10.5 18.9,-10.5 L19,-10.5 C23,-10.5 24.3,-6.8 25.4,-3 L25.7,-2 C26.5,0.6 26.9,2.8 26.9,4.5 C26.9,5.7 26.7,6.8 26.3,7.6 C25.7,8.7 24.7,9.4 23,9.8 C22.1,10 20.6,10.1 20.6,10.1 C20.1,10.1 19.7,10.2 19.3,10.2 C16.1,10.2 14.1,9 12.7,4.7 C11.5,1 11.3,-0.1 10.4,-4.5"/>
<path class="Note" transform="matrix(2.3811,0,0,2.3811,1194.75,2222.11)" d="M18.7,-13.6 C4.9,-13.6 0,-6.6 0,-0.1 C0,6.4 4.9,13.4 18.7,13.4 C32.5,13.4 37.3,6.4 37.3,-0.1 C37.3,-6.6 32.5,-13.6 18.7,-13.6 M10.4,-4.5 C10.3,-4.9 10.3,-5.3 10.3,-5.7 C10.3,-6.5 10.5,-7.3 10.9,-8 C11.6,-9 12.8,-9.7 14.3,-10 C15.6,-10.3 16.3,-10.5 18.9,-10.5 L19,-10.5 C23,-10.5 24.3,-6.8 25.4,-3 L25.7,-2 C26.5,0.6 26.9,2.8 26.9,4.5 C26.9,5.7 26.7,6.8 26.3,7.6 C25.7,8.7 24.7,9.4 23,9.8 C22.1,10 20.6,10.1 20.6,10.1 C20.1,10.1 19.7,10.2 19.3,10.2 C16.1,10.2 14.1,9 12.7,4.7 C11.5,1 11.3,-0.1 10.4,-4.5"/>
<path class="Note" transform="matrix(2.3811,0,0,2.3811,1683.61,2132.82)" d="M18.7,-13.6 C4.9,-13.6 0,-6.6 0,-0.1 C0,6.4 4.9,13.4 18.7,13.4 C32.5,13.4 37.3,6.4 37.3,-0.1 C37.3,-6.6 32.5,-13.6 18.7,-13.6 M10.4,-4.5 C10.3,-4.9 10.3,-5.3 10.3,-5.7 C10.3,-6.5 10.5,-7.3 10.9,-8 C11.6,-9 12.8,-9.7 14.3,-10 C15.6,-10.3 16.3,-10.5 18.9,-10.5 L19,-10.5 C23,-10.5 24.3,-6.8 25.4,-3 L25.7,-2 C26.5,0.6 26.9,2.8 26.9,4.5 C26.9,5.7 26.7,6.8 26.3,7.6 C25.7,8.7 24.7,9.4 23,9.8 C22.1,10 20.6,10.1 20.6,10.1 C20.1,10.1 19.7,10.2 19.3,10.2 C16.1,10.2 14.1,9 12.7,4.7 C11.5,1 11.3,-0.1 10.4,-4.5"/>
<path class="Note" transform="matrix(2.3811,0,0,2.3811,2180.58,2132.82)" d="M18.7,-13.6 C4.9,-13.6 0,-6.6 0,-0.1 C0,6.4 4.9,13.4 18.7,13.4 C32.5,13.4 37.3,6.4 37.3,-0.1 C37.3,-6.6 32.5,-13.6 18.7,-13.6 M10.4,-4.5 C10.3,-4.9 10.3,-5.3 10.3,-5.7 C10.3,-6.5 10.5,-7.3 10.9,-8 C11.6,-9 12.8,-9.7 14.3,-10 C15.6,-10.3 16.3,-10.5 18.9,-10.5 L19,-10.5 C23,-10.5 24.3,-6.8 25.4,-3 L25.7,-2 C26.5,0.6 26.9,2.8 26.9,4.5 C26.9,5.7 26.7,6.8 26.3,7.6 C25.7,8.7 24.7,9.4 23,9.8 C22.1,10 20.6,10.1 20.6,10.1 C20.1,10.1 19.7,10.2 19.3,10.2 C16.1,10.2 14.1,9 12.7,4.7 C11.5,1 11.3,-0.1 10.4,-4.5"/>
<path class="Note" transform="matrix(2.3811,0,0,2.3811,2684.55,2132.82)" d="M18.7,-13.6 C4.9,-13.6 0,-6.6 0,-0.1 C0,6.4 4.9,13.4 18.7,13.4 C32.5,13.4 37.3,6.4 37.3,-0.1 C37.3,-6.6 32.5,-13.6 18.7,-13.6 M10.4,-4.5 C10.3,-4.9 10.3,-5.3 10.3,-5.7 C10.3,-6.5 10.5,-7.3 10.9,-8 C11.6,-9 12.8,-9.7 14.3,-10 C15.6,-10.3 16.3,-10.5 18.9,-10.5 L19,-10.5 C23,-10.5 24.3,-6.8 25.4,-3 L25.7,-2 C26.5,0.6 26.9,2.8 26.9,4.5 C26.9,5.7 26.7,6.8 26.3,7.6 C25.7,8.7 24.7,9.4 23,9.8 C22.1,10 20.6,10.1 20.6,10.1 C20.1,10.1 19.7,10.2 19.3,10.2 C16.1,10.2 14.1,9 12.7,4.7 C11.5,1 11.3,-0.1 10.4,-4.5"/>
<path class="Note" transform="matrix(2.3811,0,0,2.3811,3240.55,2162.59)" d="M18.7,-13.6 C4.9,-13.6 0,-6.6 0,-0.1 C0,6.4 4.9,13.4 18.7,13.4 C32.5,13.4 37.3,6.4 37.3,-0.1 C37.3,-6.6 32.5,-13.6 18.7,-13.6 M10.4,-4.5 C10.3,-4.9 10.3,-5.3 10.3,-5.7 C10.3,-6.5 10.5,-7.3 10.9,-8 C11.6,-9 12.8,-9.7 14.3,-10 C15.6,-10.3 16.3,-10.5 18.9,-10.5 L19,-10.5 C23,-10.5 24.3,-6.8 25.4,-3 L25.7,-2 C26.5,0.6 26.9,2.8 26.9,4.5 C26.9,5.7 26.7,6.8 26.3,7.6 C25.7,8.7 24.7,9.4 23,9.8 C22.1,10 20.6,10.1 20.6,10.1 C20.1,10.1 19.7,10.2 19.3,10.2 C16.1,10.2 14.1,9 12.7,4.7 C11.5,1 11.3,-0.1 10.4,-4.5"/>
<path class="Note" transform="matrix(2.3811,0,0,2.3811,3704.78,2132.82)" d="M18.7,-13.6 C4.9,-13.6 0,-6.6 0,-0.1 C0,6.4 4.9,13.4 18.7,13.4 C32.5,13.4 37.3,6.4 37.3,-0.1 C37.3,-6.6 32.5,-13.6 18.7,-13.6 M10.4,-4.5 C10.3,-4.9 10.3,-5.3 10.3,-5.7 C10.3,-6.5 10.5,-7.3 10.9,-8 C11.6,-9 12.8,-9.7 14.3,-10 C15.6,-10.3 16.3,-10.5 18.9,-10.5 L19,-10.5 C23,-10.5 24.3,-6.8 25.4,-3 L25.7,-2 C26.5,0.6 26.9,2.8 26.9,4.5 C26.9,5.7 26.7,6.8 26.3,7.6 C25.7,8.7 24.7,9.4 23,9.8 C22.1,10 20.6,10.1 20.6,10.1 C20.1,10.1 19.7,10.2 19.3,10.2 C16.1,10.2 14.1,9 12.7,4.7 C11.5,1 11.3,-0.1 10.4,-4.5"/>
<path class="Note" transform="matrix(2.3811,0,0,2.3811,709.676,1544.42)" d="M18.7,-13.6 C4.9,-13.6 0,-6.6 0,-0.1 C0,6.4 4.9,13.4 18.7,13.4 C32.5,13.4 37.3,6.4 37.3,-0.1 C37.3,-6.6 32.5,-13.6 18.7,-13.6 M10.4,-4.5 C10.3,-4.9 10.3,-5.3 10.3,-5.7 C10.3,-6.5 10.5,-7.3 10.9,-8 C11.6,-9 12.8,-9.7 14.3,-10 C15.6,-10.3 16.3,-10.5 18.9,-10.5 L19,-10.5 C23,-10.5 24.3,-6.8 25.4,-3 L25.7,-2 C26.5,0.6 26.9,2.8 26.9,4.5 C26.9,5.7 26.7,6.8 26.3,7.6 C25.7,8.7 24.7,9.4 23,9.8 C22.1,10 20.6,10.1 20.6,10.1 C20.1,10.1 19.7,10.2 19.3,10.2 C16.1,10.2 14.1,9 12.7,4.7 C11.5,1 11.3,-0.1 10.4,-4.5"/>
<path class="Note" transform="matrix(2.3811,0,0,2.3811,709.676,1484.9)" d="M18.7,-13.6 C4.9,-13.6 0,-6.6 0,-0.1 C0,6.4 4.9,13.4 18.7,13.4 C32.5,13.4 37.3,6.4 37.3,-0.1 C37.3,-6.6 32.5,-13.6 18.7,-13.6 M10.4,-4.5 C10.3,-4.9 10.3,-5.3 10.3,-5.7 C10.3,-6.5 10.5,-7.3 10.9,-8 C11.6,-9 12.8,-9.7 14.3,-10 C15.6,-10.3 16.3,-10.5 18.9,-10.5 L19,-10.5 C23,-10.5 24.3,-6.8 25.4,-3 L25.7,-2 C26.5,0.6 26.9,2.8 26.9,4.5 C26.9,5.7 26.7,6.8 26.3,7.6 C25.7,8.7 24.7,9.4 23,9.8 C22.1,10 20.6,10.1 20.6,10.1 C20.1,10.1 19.7,10.2 19.3,10.2 C16.1,10.2 14.1,9 12.7,4.7 C11.5,1 11.3,-0.1 10.4,-4.5"/>
<path class="Note" transform="matrix(2.3811,0,0,2.3811,709.676,1365.84)" d="M18.7,-13.6 C4.9,-13.6 0,-6.6 0,-0.1 C0,6.4 4.9,13.4 18.7,13.4 C32.5,13.4 37.3,6.4 37.3,-0.1 C37.3,-6.6 32.5,-13.6 18.7,-13.6 M10.4,-4.5 C10.3,-4.9 10.3,-5.3 10.3,-5.7 C10.3,-6.5 10.5,-7.3 10.9,-8 C11.6,-9 12.8,-9.7 14.3,-10 C15.6,-10.3 16.3,-10.5 18.9,-10.5 L19,-10.5 C23,-10.5 24.3,-6.8 25.4,-3 L25.7,-2 C26.5,0.6 26.9,2.8 26.9,4.5 C26.9,5.7 26.7,6.8 26.3,7.6 C25.7,8.7 24.7,9.4 23,9.8 C22.1,10 20.6,10.1 20.6,10.1 C20.1,10.1 19.7,10.2 19.3,10.2 C16.1,10.2 14.1,9 12.7,4.7 C11.5,1 11.3,-0.1 10.4,-4.5"/>
<path class="Note" transform="matrix(2.3811,0,0,2.3811,1194.75,1544.42)" d="M18.7,-13.6 C4.9,-13.6 0,-6.6 0,-0.1 C0,6.4 4.9,13.4 18.7,13.4 C32.5,13.4 37.3,6.4 37.3,-0.1 C37.3,-6.6 32.5,-13.6 18.7,-13.6 M10.4,-4.5 C10.3,-4.9 10.3,-5.3 10.3,-5.7 C10.3,-6.5 10.5,-7.3 10.9,-8 C11.6,-9 12.8,-9.7 14.3,-10 C15.6,-10.3 16.3,-10.5 18.9,-10.5 L19,-10.5 C23,-10.5 24.3,-6.8 25.4,-3 L25.7,-2 C26.5,0.6 26.9,2.8 26.9,4.5 C26.9,5.7 26.7,6.8 26.3,7.6 C25.7,8.7 24.7,9.4 23,9.8 C22.1,10 20.6,10.1 20.6,10.1 C20.1,10.1 19.7,10.2 19.3,10.2 C16.1,10.2 14.1,9 12.7,4.7 C11.5,1 11.3,-0.1 10.4,-4.5"/>
<path class="Note" transform="matrix(2.3811,0,0,2.3811,1194.75,1455.13)" d="M18.7,-13.6 C4.9,-13.6 0,-6.6 0,-0.1 C0,6.4 4.9,13.4 18.7,13.4 C32.5,13.4 37.3,6.4 37.3,-0.1 C37.3,-6.6 32.5,-13.6 18.7,-13.6 M10.4,-4.5 C10.3,-4.9 10.3,-5.3 10.3,-5.7 C10.3,-6.5 10.5,-7.3 10.9,-8 C11.6,-9 12.8,-9.7 14.3,-10 C15.6,-10.3 16.3,-10.5 18.9,-10.5 L19,-10.5 C23,-10.5 24.3,-6.8 25.4,-3 L25.7,-2 C26.5,0.6 26.9,2.8 26.9,4.5 C26.9,5.7 26.7,6.8 26.3,7.6 C25.7,8.7 24.7,9.4 23,9.8 C22.1,10 20.6,10.1 20.6,10.1 C20.1,10.1 19.7,10.2 19.3,10.2 C16.1,10.2 14.1,9 12.7,4.7 C11.5,1 11.3,-0.1 10.4,-4.5"/>
<path class="Note" transform="matrix(2.3811,0,0,2.3811,1194.75,1395.61)" d="M18.7,-13.6 C4.9,-13.6 0,-6.6 0,-0.1 C0,6.4 4.9,13.4 18.7,13.4 C32.5,13.4 37.3,6.4 37.3,-0.1 C37.3,-6.6 32.5,-13.6 18.7,-13.6 M10.4,-4.5 C10.3,-4.9 10.3,-5.3 10.3,-5.7 C10.3,-6.5 10.5,-7.3 10.9,-8 C11.6,-9 12.8,-9.7 14.3,-10 C15.6,-10.3 16.3,-10.5 18.9,-10.5 L19,-10.5 C23,-10.5 24.3,-6.8 25.4,-3 L25.7,-2 C26.5,0.6 26.9,2.8 26.9,4.5 C26.9,5.7 26.7,6.8 26.3,7.6 C25.7,8.7 24.7,9.4 23,9.8 C22.1,10 20.6,10.1 20.6,10.1 C20.1,10.1 19.7,10.2 19.3,10.2 C16.1,10.2 14.1,9 12.7,4.7 C11.5,1 11.3,-0.1 10.4,-4.5"/>
<path class="Note" transform="matrix(2.3811,0,0,2.3811,1683.61,1514.66)" d="M18.7,-13.6 C4.9,-13.6 0,-6.6 0,-0.1 C0,6.4 4.9,13.4 18.7,13.4 C32.5,13.4 37.3,6.4 37.3,-0.1 C37.3,-6.6 32.5,-13.6 18.7,-13.6 M10.4,-4.5 C10.3,-4.9 10.3,-5.3 10.3,-5.7 C10.3,-6.5 10.5,-7.3 10.9,-8 C11.6,-9 12.8,-9.7 14.3,-10 C15.6,-10.3 16.3,-10.5 18.9,-10.5 L19,-10.5 C23,-10.5 24.3,-6.8 25.4,-3 L25.7,-2 C26.5,0.6 26.9,2.8 26.9,4.5 C26.9,5.7 26.7,6.8 26.3,7.6 C25.7,8.7 24.7,9.4 23,9.8 C22.1,10 20.6,10.1 20.6,10.1 C20.1,10.1 19.7,10.2 19.3,10.2 C16.1,10.2 14.1,9 12.7,4.7 C11.5,1 11.3,-0.1 10.4,-4.5"/>
<path class="Note" transform="matrix(2.3811,0,0,2.3811,1683.61,1455.13)" d="M18.7,-13.6 C4.9,-13.6 0,-6.6 0,-0.1 C0,6.4 4.9,13.4 18.7,13.4 C32.5,13.4 37.3,6.4 37.3,-0.1 C37.3,-6.6 32.5,-13.6 18.7,-13.6 M10.4,-4.5 C10.3,-4.9 10.3,-5.3 10.3,-5.7 C10.3,-6.5 10.5,-7.3 10.9,-8 C11.6,-9 12.8,-9.7 14.3,-10 C15.6,-10.3 16.3,-10.5 18.9,-10.5 L19,-10.5 C23,-10.5 24.3,-6.8 25.4,-3 L25.7,-2 C26.5,0.6 26.9,2.8 26.9,4.5 C26.9,5.7 26.7,6.8 26.3,7.6 C25.7,8.7 24.7,9.4 23,9.8 C22.1,10 20.6,10.1 20.6,10.1 C20.1,10.1 19.7,10.2 19.3,10.2 C16.1,10.2 14.1,9 12.7,4.7 C11.5,1 11.3,-0.1 10.4,-4.5"/>
<path class="Note" transform="matrix(2.3811,0,0,2.3811,1683.61,1365.84)" d="M18.7,-13.6 C4.9,-13.6 0,-6.6 0,-0.1 C0,6.4 4.9,13.4 18.7,13.4 C32.5,13.4 37.3,6.4 37.3,-0.1 C37.3,-6.6 32.5,-13.6 18.7,-13.6 M10.4,-4.5 C10.3,-4.9 10.3,-5.3 10.3,-5.7 C10.3,-6.5 10.5,-7.3 10.9,-8 C11.6,-9 12.8,-9.7 14.3,-10 C15.6,-10.3 16.3,-10.5 18.9,-10.5 L19,-10.5 C23,-10.5 24.3,-6.8 25.4,-3 L25.7,-2 C26.5,0.6 26.9,2.8 26.9,4.5 C26.9,5.7 26.7,6.8 26.3,7.6 C25.7,8.7 24.7,9.4 23,9.8 C22.1,10 20.6,10.1 20.6,10.1 C20.1,10.1 19.7,10.2 19.3,10.2 C16.1,10.2 14.1,9 12.7,4.7 C11.5,1 11.3,-0.1 10.4,-4.5"/>
<path class="Note" transform="matrix(2.3811,0,0,2.3811,2180.58,1514.66)" d="M18.7,-13.6 C4.9,-13.6 0,-6.6 0,-0.1 C0,6.4 4.9,13.4 18.7,13.4 C32.5,13.4 37.3,6.4 37.3,-0.1 C37.3,-6.6 32.5,-13.6 18.7,-13.6 M10.4,-4.5 C10.3,-4.9 10.3,-5.3 10.3,-5.7 C10.3,-6.5 10.5,-7.3 10.9,-8 C11.6,-9 12.8,-9.7 14.3,-10 C15.6,-10.3 16.3,-10.5 18.9,-10.5 L19,-10.5 C23,-10.5 24.3,-6.8 25.4,-3 L25.7,-2 C26.5,0.6 26.9,2.8 26.9,4.5 C26.9,5.7 26.7,6.8 26.3,7.6 C25.7,8.7 24.7,9.4 23,9.8 C22.1,10 20.6,10.1 20.6,10.1 C20.1,10.1 19.7,10.2 19.3,10.2 C16.1,10.2 14.1,9 12.7,4.7 C11.5,1 11.3,-0.1 10.4,-4.5"/>
<path class="Note" transform="matrix(2.3811,0,0,2.3811,2180.58,1455.13)" d="M18.7,-13.6 C4.9,-13.6 0,-6.6 0,-0.1 C0,6.4 4.9,13.4 18.7,13.4 C32.5,13.4 37.3,6.4 37.3,-0.1 C37.3,-6.6 32.5,-13.6 18.7,-13.6 M10.4,-4.5 C10.3,-4.9 10.3,-5.3 10.3,-5.7 C10.3,-6.5 10.5,-7.3 10.9,-8 C11.6,-9 12.8,-9.7 14.3,-10 C15.6,-10.3 16.3,-10.5 18.9,-10.5 L19,-10.5 C23,-10.5 24.3,-6.8 25.4,-3 L25.7,-2 C26.5,0.6 26.9,2.8 26.9,4.5 C26.9,5.7 26.7,6.8 26.3,7.6 C25.7,8.7 24.7,9.4 23,9.8 C22.1,10 20.6,10.1 20.6,10.1 C20.1,10.1 19.7,10.2 19.3,10.2 C16.1,10.2 14.1,9 12.7,4.7 C11.5,1 11.3,-0.1 10.4,-4.5"/>
<path class="Note" transform="matrix(2.3811,0,0,2.3811,2180.58,1365.84)" d="M18.7,-13.6 C4.9,-13.6 0,-6.6 0,-0.1 C0,6.4 4.9,13.4 18.7,13.4 C32.5,13.4 37.3,6.4 37.3,-0.1 C37.3,-6.6 32.5,-13.6 18.7,-13.6 M10.4,-4.5 C10.3,-4.9 10.3,-5.3 10.3,-5.7 C10.3,-6.5 10.5,-7.3 10.9,-8 C11.6,-9 12.8,-9.7 14.3,-10 C15.6,-10.3 16.3,-10.5 18.9,-10.5 L19,-10.5 C23,-10.5 24.3,-6.8 25.4,-3 L25.7,-2 C26.5,0.6 26.9,2.8 26.9,4.5 C26.9,5.7 26.7,6.8 26.3,7.6 C25.7,8.7 24.7,9.4 23,9.8 C22.1,10 20.6,10.1 20.6,10.1 C20.1,10.1 19.7,10.2 19.3,10.2 C16.1,10.2 14.1,9 12.7,4.7 C11.5,1 11.3,-0.1 10.4,-4.5"/>
<path class="Note" transform="matrix(2.3811,0,0,2.3811,2684.55,1484.9)" d="M18.7,-13.6 C4.9,-13.6 0,-6.6 0,-0.1 C0,6.4 4.9,13.4 18.7,13.4 C32.5,13.4 37.3,6.4 37.3,-0.1 C37.3,-6.6 32.5,-13.6 18.7,-13.6 M10.4,-4.5 C10.3,-4.9 10.3,-5.3 10.3,-5.7 C10.3,-6.5 10.5,-7.3 10.9,-8 C11.6,-9 12.8,-9.7 14.3,-10 C15.6,-10.3 16.3,-10.5 18.9,-10.5 L19,-10.5 C23,-10.5 24.3,-6.8 25.4,-3 L25.7,-2 C26.5,0.6 26.9,2.8 26.9,4.5 C26.9,5.7 26.7,6.8 26.3,7.6 C25.7,8.7 24.7,9.4 23,9.8 C22.1,10 20.6,10.1 20.6,10.1 C20.1,10.1 19.7,10.2 19.3,10.2 C16.1,10.2 14.1,9 12.7,4.7 C11.5,1 11.3,-0.1 10.4,-4.5"/>
<path class="Note" transform="matrix(2.3811,0,0,2.3811,2684.55,1425.37)" d="M18.7,-13.6 C4.9,-13.6 0,-6.6 0,-0.1 C0,6.4 4.9,13.4 18.7,13.4 C32.5,13.4 37.3,6.4 37.3,-0.1 C37.3,-6.6 32.5,-13.6 18.7,-13.6 M10.4,-4.5 C10.3,-4.9 10.3,-5.3 10.3,-5.7 C10.3,-6.5 10.5,-7.3 10.9,-8 C11.6,-9 12.8,-9.7 14.3,-10 C15.6,-10.3 16.3,-10.5 18.9,-10.5 L19,-10.5 C23,-10.5 24.3,-6.8 25.4,-3 L25.7,-2 C26.5,0.6 26.9,2.8 26.9,4.5 C26.9,5.7 26.7,6.8 26.3,7.6 C25.7,8.7 24.7,9.4 23,9.8 C22.1,10 20.6,10.1 20.6,10.1 C20.1,10.1 19.7,10.2 19.3,10.2 C16.1,10.2 14.1,9 12.7,4.7 C11.5,1 11.3,-0.1 10.4,-4.5"/>
<path class="Note" transform="matrix(2.3811,0,0,2.3811,2684.55,1336.08)" d="M18.7,-13.6 C4.9,-13.6 0,-6.6 0,-0.1 C0,6.4 4.9,13.4 18.7,13.4 C32.5,13.4 37.3,6.4 37.3,-0.1 C37.3,-6.6 32.5,-13.6 18.7,-13.6 M10.4,-4.5 C10.3,-4.9 10.3,-5.3 10.3,-5.7 C10.3,-6.5 10.5,-7.3 10.9,-8 C11.6,-9 12.8,-9.7 14.3,-10 C15.6,-10.3 16.3,-10.5 18.9,-10.5 L19,-10.5 C23,-10.5 24.3,-6.8 25.4,-3 L25.7,-2 C26.5,0.6 26.9,2.8 26.9,4.5 C26.9,5.7 26.7,6.8 26.3,7.6 C25.7,8.7 24.7,9.4 23,9.8 C22.1,10 20.6,10.1 20.6,10.1 C20.1,10.1 19.7,10.2 19.3,10.2 C16.1,10.2 14.1,9 12.7,4.7 C11.5,1 11.3,-0.1 10.4,-4.5"/>
<path class="Note" transform="matrix(2.3811,0,0,2.3811,3158.29,1484.9)" d="M18.7,-13.6 C4.9,-13.6 0,-6.6 0,-0.1 C0,6.4 4.9,13.4 18.7,13.4 C32.5,13.4 37.3,6.4 37.3,-0.1 C37.3,-6.6 32.5,-13.6 18.7,-13.6 M10.4,-4.5 C10.3,-4.9 10.3,-5.3 10.3,-5.7 C10.3,-6.5 10.5,-7.3 10.9,-8 C11.6,-9 12.8,-9.7 14.3,-10 C15.6,-10.3 16.3,-10.5 18.9,-10.5 L19,-10.5 C23,-10.5 24.3,-6.8 25.4,-3 L25.7,-2 C26.5,0.6 26.9,2.8 26.9,4.5 C26.9,5.7 26.7,6.8 26.3,7.6 C25.7,8.7 24.7,9.4 23,9.8 C22.1,10 20.6,10.1 20.6,10.1 C20.1,10.1 19.7,10.2 19.3,10.2 C16.1,10.2 14.1,9 12.7,4.7 C11.5,1 11.3,-0.1 10.4,-4.5"/>
<path class="Note" transform="matrix(2.3811,0,0,2.3811,3240.55,1455.13)" d="M18.7,-13.6 C4.9,-13.6 0,-6.6 0,-0.1 C0,6.4 4.9,13.4 18.7,13.4 C32.5,13.4 37.3,6.4 37.3,-0.1 C37.3,-6.6 32.5,-13.6 18.7,-13.6 M10.4,-4.5 C10.3,-4.9 10.3,-5.3 10.3,-5.7 C10.3,-6.5 10.5,-7.3 10.9,-8 C11.6,-9 12.8,-9.7 14.3,-10 C15.6,-10.3 16.3,-10.5 18.9,-10.5 L19,-10.5 C23,-10.5 24.3,-6.8 25.4,-3 L25.7,-2 C26.5,0.6 26.9,2.8 26.9,4.5 C26.9,5.7 26.7,6.8 26.3,7.6 C25.7,8.7 24.7,9.4 23,9.8 C22.1,10 20.6,10.1 20.6,10.1 C20.1,10.1 19.7,10.2 19.3,10.2 C16.1,10.2 14.1,9 12.7,4.7 C11.5,1 11.3,-0.1 10.4,-4.5"/>
<path class="Note" transform="matrix(2.3811,0,0,2.3811,3240.55,1336.08)" d="M18.7,-13.6 C4.9,-13.6 0,-6.6 0,-0.1 C0,6.4 4.9,13.4 18.7,13.4 C32.5,13.4 37.3,6.4 37.3,-0.1 C37.3,-6.6 32.5,-13.6 18.7,-13.6 M10.4,-4.5 C10.3,-4.9 10.3,-5.3 10.3,-5.7 C10.3,-6.5 10.5,-7.3 10.9,-8 C11.6,-9 12.8,-9.7 14.3,-10 C15.6,-10.3 16.3,-10.5 18.9,-10.5 L19,-10.5 C23,-10.5 24.3,-6.8 25.4,-3 L25.7,-2 C26.5,0.6 26.9,2.8 26.9,4.5 C26.9,5.7 26.7,6.8 26.3,7.6 C25.7,8.7 24.7,9.4 23,9.8 C22.1,10 20.6,10.1 20.6,10.1 C20.1,10.1 19.7,10.2 19.3,10.2 C16.1,10.2 14.1,9 12.7,4.7 C11.5,1 11.3,-0.1 10.4,-4.5"/>
<path class="Note" transform="matrix(2.3811,0,0,2.3811,3704.78,1514.66)" d="M18.7,-13.6 C4.9,-13.6 0,-6.6 0,-0.1 C0,6.4 4.9,13.4 18.7,13.4 C32.5,13.4 37.3,6.4 37.3,-0.1 C37.3,-6.6 32.5,-13.6 18.7,-13.6 M10.4,-4.5 C10.3,-4.9 10.3,-5.3 10.3,-5.7 C10.3,-6.5 10.5,-7.3 10.9,-8 C11.6,-9 12.8,-9.7 14.3,-10 C15.6,-10.3 16.3,-10.5 18.9,-10.5 L19,-10.5 C23,-10.5 24.3,-6.8 25.4,-3 L25.7,-2 C26.5,0.6 26.9,2.8 26.9,4.5 C26.9,5.7 26.7,6.8 26.3,7.6 C25.7,8.7 24.7,9.4 23,9.8 C22.1,10 20.6,10.1 20.6,10.1 C20.1,10.1 19.7,10.2 19.3,10.2 C16.1,10.2 14.1,9 12.7,4.7 C11.5,1 11.3,-0.1 10.4,-4.5"/>
<path class="Note" transform="matrix(2.3811,0,0,2.3811,3704.78,1455.13)" d="M18.7,-13.6 C4.9,-13.6 0,-6.6 0,-0.1 C0,6.4 4.9,13.4 18.7,13.4 C32.5,13.4 37.3,6.4 37.3,-0.1 C37.3,-6.6 32.5,-13.6 18.7,-13.6 M10.4,-4.5 C10.3,-4.9 10.3,-5.3 10.3,-5.7 C10.3,-6.5 10.5,-7.3 10.9,-8 C11.6,-9 12.8,-9.7 14.3,-10 C15.6,-10.3 16.3,-10.5 18.9,-10.5 L19,-10.5 C23,-10.5 24.3,-6.8 25.4,-3 L25.7,-2 C26.5,0.6 26.9,2.8 26.9,4.5 C26.9,5.7 26.7,6.8 26.3,7.6 C25.7,8.7 24.7,9.4 23,9.8 C22.1,10 20.6,10.1 20.6,10.1 C20.1,10.1 19.7,10.2 19.3,10.2 C16.1,10.2 14.1,9 12.7,4.7 C11.5,1 11.3,-0.1 10.4,-4.5"/>
<path class="Note" transform="matrix(2.3811,0,0,2.3811,3704.78,1365.84)" d="M18.7,-13.6 C4.9,-13.6 0,-6.6 0,-0.1 C0,6.4 4.9,13.4 18.7,13.4 C32.5,13.4 37.3,6.4 37.3,-0.1 C37.3,-6.6 32.5,-13.6 18.7,-13.6 M10.4,-4.5 C10.3,-4.9 10.3,-5.3 10.3,-5.7 C10.3,-6.5 10.5,-7.3 10.9,-8 C11.6,-9 12.8,-9.7 14.3,-10 C15.6,-10.3 16.3,-10.5 18.9,-10.5 L19,-10.5 C23,-10.5 24.3,-6.8 25.4,-3 L25.7,-2 C26.5,0.6 26.9,2.8 26.9,4.5 C26.9,5.7 26.7,6.8 26.3,7.6 C25.7,8.7 24.7,9.4 23,9.8 C22.1,10 20.6,10.1 20.6,10.1 C20.1,10.1 19.7,10.2 19.3,10.2 C16.1,10.2 14.1,9 12.7,4.7 C11.5,1 11.3,-0.1 10.4,-4.5"/>
<path class="Note" d="M730.738,1003.5 C726.555,1003.5 724.463,1001.6 724.463,997.801 C724.463,991.371 725.431,986.645 727.368,983.623 C735.426,971.692 752.935,949.38 779.896,916.686 C792.059,901.888 807.747,894.489 826.961,894.489 C834.399,894.489 839.551,895.535 842.417,897.627 C846.833,900.881 849.041,904.793 849.041,909.364 C849.041,914.168 845.167,919.513 837.42,925.401 C830.06,930.98 823.087,933.769 816.502,933.769 C813.945,933.769 812.667,933.497 812.667,932.955 C812.667,932.18 813.907,931.367 816.386,930.515 C819.717,929.275 823.281,926.757 827.077,922.961 C831.416,918.545 833.585,914.555 833.585,910.991 C833.585,908.59 831.919,906.304 828.588,904.135 C825.644,902.275 820.879,901.346 814.294,901.346 C804.687,901.346 792.563,911.03 777.92,930.399 C768.158,943.337 760.256,954.725 754.213,964.565 C757.157,962.938 760.682,960.962 764.788,958.638 C769.824,955.771 774.163,954.338 777.804,954.338 C786.868,954.338 791.4,957.592 791.4,964.1 C791.4,970.53 787.682,977.58 780.244,985.25 C774.976,990.673 772.342,994.702 772.342,997.336 C772.342,1000.05 774.976,1001.4 780.244,1001.4 C782.878,1001.4 785.59,1000.47 788.379,998.614 C791.168,996.832 793.221,995.941 794.538,995.941 C795.623,995.941 796.165,996.639 796.165,998.033 C796.165,1000.28 793.996,1002.64 789.657,1005.12 C782.375,1009.31 776.525,1011.4 772.109,1011.4 C764.285,1011.4 760.372,1007.21 760.372,998.847 C760.372,993.579 763.394,987.729 769.437,981.299 C773.853,976.573 776.061,971.886 776.061,967.237 C776.061,963.209 773.891,961.194 769.553,961.194 C767.848,961.194 762.193,963.209 752.586,967.237 C749.719,972.041 747.318,976.457 745.381,980.485 C738.021,995.825 733.14,1003.5 730.738,1003.5"/>
<path class="Note" d="M730.738,914.204 C726.555,914.204 724.463,912.306 724.463,908.51 C724.463,902.079 725.431,897.353 727.368,894.332 C735.426,882.401 752.935,860.088 779.896,827.394 C792.059,812.597 807.747,805.198 826.961,805.198 C834.399,805.198 839.551,806.244 842.417,808.336 C846.833,811.59 849.041,815.502 849.041,820.073 C849.041,824.876 845.167,830.222 837.42,836.11 C830.06,841.688 823.087,844.477 816.502,844.477 C813.945,844.477 812.667,844.206 812.667,843.664 C812.667,842.889 813.907,842.076 816.386,841.223 C819.717,839.984 823.281,837.466 827.077,833.67 C831.416,829.254 833.585,825.264 833.585,821.7 C833.585,819.298 831.919,817.013 828.588,814.844 C825.644,812.984 820.879,812.054 814.294,812.054 C804.687,812.054 792.563,821.739 777.92,841.107 C768.158,854.045 760.256,865.434 754.213,875.273 C757.157,873.646 760.682,871.671 764.788,869.346 C769.824,866.48 774.163,865.047 777.804,865.047 C786.868,865.047 791.4,868.301 791.4,874.808 C791.4,881.239 787.682,888.289 780.244,895.959 C774.976,901.382 772.342,905.411 772.342,908.045 C772.342,910.756 774.976,912.112 780.244,912.112 C782.878,912.112 785.59,911.182 788.379,909.323 C791.168,907.541 793.221,906.65 794.538,906.65 C795.623,906.65 796.165,907.347 796.165,908.742 C796.165,910.989 793.996,913.352 789.657,915.831 C782.375,920.014 776.525,922.106 772.109,922.106 C764.285,922.106 760.372,917.923 760.372,909.555 C760.372,904.287 763.394,898.438 769.437,892.008 C773.853,887.282 776.061,882.594 776.061,877.946 C776.061,873.917 773.891,871.903 769.553,871.903 C767.848,871.903 762.193,873.917 752.586,877.946 C749.719,882.749 747.318,887.165 745.381,891.194 C738.021,906.534 733.14,914.204 730.738,914.204"/>
<path class="Note" d="M791.633,572.42 C794.035,572.42 795.778,572.923 796.862,573.93 C798.102,575.015 798.722,576.603 798.722,578.695 C798.722,581.329 797.56,583.576 795.235,585.435 C785.164,592.563 774.821,601.627 764.207,612.629 C766.609,623.243 769.553,631.106 773.039,636.22 C777.61,642.96 780.748,646.33 782.452,646.33 C784.002,646.33 785.667,645.361 787.449,643.425 C788.689,642.108 789.89,641.449 791.052,641.449 C793.531,641.449 794.771,642.766 794.771,645.4 C794.771,648.189 792.563,651.985 788.147,656.789 C785.745,659.268 783.227,660.508 780.593,660.508 C775.17,660.508 769.708,655.433 764.207,645.284 C758.629,635.057 754.794,625.412 752.702,616.347 C748.829,628.278 746.892,635.6 746.892,638.311 C746.892,643.657 743.831,646.33 737.711,646.33 C734.38,646.33 732.714,643.231 732.714,637.033 C732.714,634.089 736.394,620.918 743.754,597.521 C747.395,586.055 750.378,578.037 752.702,573.466 C753.245,572.536 754.639,572.071 756.886,572.071 C759.52,572.071 761.341,572.613 762.348,573.698 C763.355,574.783 763.858,577.029 763.858,580.438 C763.858,582.143 762.193,588.031 758.861,598.102 C767.151,589.968 776.487,582.026 786.868,574.279 C788.495,573.039 790.083,572.42 791.633,572.42"/>
<path class="Note" d="M791.633,751.002 C794.035,751.002 795.778,751.506 796.862,752.513 C798.102,753.598 798.722,755.186 798.722,757.278 C798.722,759.912 797.56,762.159 795.235,764.018 C785.164,771.146 774.821,780.21 764.207,791.211 C766.609,801.825 769.553,809.689 773.039,814.802 C777.61,821.542 780.748,824.913 782.452,824.913 C784.002,824.913 785.667,823.944 787.449,822.007 C788.689,820.69 789.89,820.032 791.052,820.032 C793.531,820.032 794.771,821.349 794.771,823.983 C794.771,826.772 792.563,830.568 788.147,835.372 C785.745,837.851 783.227,839.09 780.593,839.09 C775.17,839.09 769.708,834.016 764.207,823.867 C758.629,813.64 754.794,803.995 752.702,794.93 C748.829,806.861 746.892,814.182 746.892,816.894 C746.892,822.24 743.831,824.913 737.711,824.913 C734.38,824.913 732.714,821.814 732.714,815.616 C732.714,812.672 736.394,799.501 743.754,776.104 C747.395,764.638 750.378,756.619 752.702,752.048 C753.245,751.119 754.639,750.654 756.886,750.654 C759.52,750.654 761.341,751.196 762.348,752.281 C763.355,753.365 763.858,755.612 763.858,759.021 C763.858,760.725 762.193,766.613 758.861,776.685 C767.151,768.55 776.487,760.609 786.868,752.862 C788.495,751.622 790.083,751.002 791.633,751.002"/>
<path class="Note" d="M730.738,557.039 C726.555,557.039 724.463,555.14 724.463,551.344 C724.463,544.914 725.431,540.188 727.368,537.166 C735.426,525.235 752.935,502.923 779.896,470.229 C792.059,455.431 807.747,448.033 826.961,448.033 C834.399,448.033 839.551,449.079 842.417,451.17 C846.833,454.424 849.041,458.337 849.041,462.908 C849.041,467.711 845.167,473.057 837.42,478.945 C830.06,484.523 823.087,487.312 816.502,487.312 C813.945,487.312 812.667,487.041 812.667,486.498 C812.667,485.724 813.907,484.91 816.386,484.058 C819.717,482.818 823.281,480.301 827.077,476.504 C831.416,472.088 833.585,468.098 833.585,464.535 C833.585,462.133 831.919,459.847 828.588,457.678 C825.644,455.819 820.879,454.889 814.294,454.889 C804.687,454.889 792.563,464.573 777.92,483.942 C768.158,496.88 760.256,508.269 754.213,518.108 C757.157,516.481 760.682,514.505 764.788,512.181 C769.824,509.315 774.163,507.881 777.804,507.881 C786.868,507.881 791.4,511.135 791.4,517.643 C791.4,524.073 787.682,531.123 780.244,538.793 C774.976,544.217 772.342,548.245 772.342,550.879 C772.342,553.591 774.976,554.947 780.244,554.947 C782.878,554.947 785.59,554.017 788.379,552.158 C791.168,550.376 793.221,549.485 794.538,549.485 C795.623,549.485 796.165,550.182 796.165,551.577 C796.165,553.823 793.996,556.186 789.657,558.665 C782.375,562.849 776.525,564.941 772.109,564.941 C764.285,564.941 760.372,560.757 760.372,552.39 C760.372,547.122 763.394,541.273 769.437,534.842 C773.853,530.116 776.061,525.429 776.061,520.781 C776.061,516.752 773.891,514.738 769.553,514.738 C767.848,514.738 762.193,516.752 752.586,520.781 C749.719,525.584 747.318,530 745.381,534.029 C738.021,549.369 733.14,557.039 730.738,557.039"/>
<path class="Note" d="M760.024,669.962 C763.82,669.962 765.718,672.867 765.718,678.678 C765.718,682.861 763.742,687.665 759.791,693.088 C756.305,697.969 754.562,705.523 754.562,715.749 C754.562,720.63 755.84,723.884 758.397,725.511 C760.178,726.75 763.51,727.409 768.391,727.486 C773.659,727.486 781.135,724.814 790.819,719.468 L792.679,721.327 C790.2,724.504 787.217,727.37 783.731,729.927 C778.54,733.723 773.233,735.621 767.81,735.621 C759.985,735.621 754.058,734.498 750.029,732.251 C744.994,729.462 742.476,725.976 742.476,721.792 C742.476,710.248 743.948,698.201 746.892,685.65 C747.976,681.08 750.339,676.896 753.981,673.1 C756.072,671.008 758.087,669.962 760.024,669.962"/>
<path class="Note" d="M1273.57,855.634 C1278.14,855.634 1280.43,858.5 1280.43,864.233 C1280.43,868.262 1277.91,874.266 1272.87,882.246 C1268.85,888.676 1266.83,894.952 1266.83,901.072 C1266.83,904.558 1271.91,906.302 1282.06,906.302 C1290.42,906.302 1302.08,901.769 1317.03,892.705 C1302,907.192 1288.95,914.436 1277.87,914.436 C1267.88,914.436 1260.9,912.926 1256.95,909.904 C1255.95,909.129 1255.09,908.2 1254.4,907.115 C1250.52,911.841 1244.05,914.204 1234.99,914.204 C1226.31,914.204 1219.65,912.422 1215,908.858 C1211.9,906.456 1210.35,902.622 1210.35,897.353 C1210.35,888.986 1215.31,879.844 1225.23,869.928 C1235.84,859.314 1248.12,854.007 1262.07,854.007 C1265.55,854.007 1268.11,855.285 1269.74,857.842 C1271.05,856.37 1272.33,855.634 1273.57,855.634 M1252.77,901.886 C1252.69,901.266 1252.65,900.646 1252.65,900.026 C1252.65,899.716 1256.6,888.909 1264.51,867.603 C1265.28,865.511 1266.06,863.73 1266.83,862.258 C1263.81,861.638 1260.83,861.328 1257.88,861.328 C1252.46,861.328 1245.25,865.938 1236.27,875.157 C1228.21,883.369 1224.18,890.458 1224.18,896.424 C1224.18,903.009 1227.32,906.302 1233.6,906.302 C1241.19,906.302 1247.58,904.83 1252.77,901.886"/>
<path class="Note" d="M1288.45,564.982 C1292.79,562.038 1295.92,559.598 1297.86,557.661 C1301.42,553.865 1303.21,550.378 1303.21,547.202 C1303.21,543.561 1301.19,541.74 1297.16,541.74 C1289.34,541.74 1280.97,548.635 1272.06,562.426 C1269.35,566.609 1263.38,580.245 1254.16,603.332 C1261.52,610.924 1265.2,615.224 1265.2,616.231 C1265.2,617.626 1264.31,618.323 1262.53,618.323 C1261.14,618.323 1257.3,615.96 1251.03,611.234 C1244.21,627.116 1233.87,640.674 1220,651.908 C1205.82,663.374 1188.89,669.107 1169.21,669.107 C1161.7,669.107 1152.29,667.364 1140.97,663.878 C1131.91,661.089 1127.38,656.634 1127.38,650.513 C1127.38,641.449 1130.86,636.917 1137.84,636.917 C1142.02,636.917 1144.11,638.854 1144.11,642.727 C1144.11,643.967 1143.14,645.284 1141.21,646.678 C1140.2,647.376 1139.7,648.732 1139.7,650.746 C1139.7,653.148 1142.37,655.627 1147.72,658.183 C1153.53,660.972 1162.05,662.367 1173.28,662.367 C1187.77,662.367 1201.75,656.092 1215.23,643.541 C1227.47,632.152 1236.27,618.904 1241.61,603.797 C1239.52,602.092 1237.28,600.233 1234.87,598.219 C1227.44,593.803 1223.72,589.27 1223.72,584.622 C1223.72,582.685 1225,581.717 1227.55,581.717 C1230.96,581.717 1235.57,584.622 1241.38,590.432 C1242.62,591.672 1243.78,592.834 1244.87,593.919 C1247.58,586.481 1251.92,577.029 1257.88,565.563 C1268.65,544.8 1281.75,534.419 1297.16,534.419 C1302.66,534.419 1307,535.465 1310.18,537.556 C1313.35,539.648 1314.94,542.515 1314.94,546.156 C1314.94,551.967 1312.81,556.886 1308.55,560.915 C1304.14,565.098 1299.53,567.19 1294.72,567.19 C1290.54,567.19 1288.45,566.454 1288.45,564.982"/>
<path class="Note" d="M1288.45,475.691 C1292.79,472.747 1295.92,470.306 1297.86,468.37 C1301.42,464.573 1303.21,461.087 1303.21,457.911 C1303.21,454.269 1301.19,452.449 1297.16,452.449 C1289.34,452.449 1280.97,459.344 1272.06,473.134 C1269.35,477.318 1263.38,490.953 1254.16,514.04 C1261.52,521.633 1265.2,525.933 1265.2,526.94 C1265.2,528.334 1264.31,529.032 1262.53,529.032 C1261.14,529.032 1257.3,526.669 1251.03,521.943 C1244.21,537.825 1233.87,551.383 1220,562.617 C1205.82,574.083 1188.89,579.816 1169.21,579.816 C1161.7,579.816 1152.29,578.073 1140.97,574.586 C1131.91,571.797 1127.38,567.343 1127.38,561.222 C1127.38,552.158 1130.86,547.625 1137.84,547.625 C1142.02,547.625 1144.11,549.562 1144.11,553.436 C1144.11,554.676 1143.14,555.993 1141.21,557.387 C1140.2,558.084 1139.7,559.44 1139.7,561.455 C1139.7,563.856 1142.37,566.335 1147.72,568.892 C1153.53,571.681 1162.05,573.076 1173.28,573.076 C1187.77,573.076 1201.75,566.8 1215.23,554.249 C1227.47,542.861 1236.27,529.613 1241.61,514.505 C1239.52,512.801 1237.28,510.942 1234.87,508.927 C1227.44,504.511 1223.72,499.979 1223.72,495.331 C1223.72,493.394 1225,492.425 1227.55,492.425 C1230.96,492.425 1235.57,495.331 1241.38,501.141 C1242.62,502.381 1243.78,503.543 1244.87,504.627 C1247.58,497.19 1251.92,487.738 1257.88,476.272 C1268.65,455.509 1281.75,445.127 1297.16,445.127 C1302.66,445.127 1307,446.173 1310.18,448.265 C1313.35,450.357 1314.94,453.223 1314.94,456.865 C1314.94,462.675 1312.81,467.595 1308.55,471.623 C1304.14,475.807 1299.53,477.899 1294.72,477.899 C1290.54,477.899 1288.45,477.163 1288.45,475.691"/>
<path class="Note" d="M1215.81,735.621 C1211.63,735.621 1209.54,733.723 1209.54,729.927 C1209.54,723.497 1210.51,718.771 1212.44,715.749 C1220.5,703.818 1238.01,681.506 1264.97,648.812 C1277.14,634.014 1292.82,626.615 1312.04,626.615 C1319.47,626.615 1324.63,627.661 1327.49,629.753 C1331.91,633.007 1334.12,636.919 1334.12,641.49 C1334.12,646.294 1330.24,651.639 1322.5,657.527 C1315.14,663.106 1308.16,665.895 1301.58,665.895 C1299.02,665.895 1297.74,665.623 1297.74,665.081 C1297.74,664.306 1298.98,663.493 1301.46,662.641 C1304.79,661.401 1308.36,658.883 1312.15,655.087 C1316.49,650.671 1318.66,646.681 1318.66,643.117 C1318.66,640.716 1317,638.43 1313.66,636.261 C1310.72,634.401 1305.96,633.472 1299.37,633.472 C1289.76,633.472 1277.64,643.156 1263,662.525 C1253.23,675.463 1245.33,686.851 1239.29,696.691 C1242.23,695.064 1245.76,693.088 1249.86,690.764 C1254.9,687.897 1259.24,686.464 1262.88,686.464 C1271.94,686.464 1276.48,689.718 1276.48,696.226 C1276.48,702.656 1272.76,709.706 1265.32,717.376 C1260.05,722.799 1257.42,726.828 1257.42,729.462 C1257.42,732.174 1260.05,733.529 1265.32,733.529 C1267.95,733.529 1270.67,732.6 1273.46,730.74 C1276.24,728.958 1278.3,728.067 1279.61,728.067 C1280.7,728.067 1281.24,728.765 1281.24,730.159 C1281.24,732.406 1279.07,734.769 1274.73,737.248 C1267.45,741.432 1261.6,743.524 1257.19,743.524 C1249.36,743.524 1245.45,739.34 1245.45,730.973 C1245.45,725.705 1248.47,719.855 1254.51,713.425 C1258.93,708.699 1261.14,704.012 1261.14,699.363 C1261.14,695.335 1258.97,693.32 1254.63,693.32 C1252.92,693.32 1247.27,695.335 1237.66,699.363 C1234.8,704.167 1232.39,708.583 1230.46,712.611 C1223.1,727.951 1218.22,735.621 1215.81,735.621"/>
<path class="Note" d="M1762.43,766.342 C1767,766.342 1769.28,769.209 1769.28,774.942 C1769.28,778.97 1766.77,784.975 1761.73,792.955 C1757.7,799.385 1755.69,805.66 1755.69,811.781 C1755.69,815.267 1760.76,817.01 1770.91,817.01 C1779.28,817.01 1790.94,812.478 1805.89,803.414 C1790.86,817.901 1777.81,825.145 1766.73,825.145 C1756.73,825.145 1749.76,823.634 1745.81,820.613 C1744.8,819.838 1743.95,818.908 1743.25,817.824 C1739.38,822.55 1732.91,824.913 1723.85,824.913 C1715.17,824.913 1708.51,823.131 1703.86,819.567 C1700.76,817.165 1699.21,813.33 1699.21,808.062 C1699.21,799.695 1704.17,790.553 1714.08,780.636 C1724.7,770.022 1736.98,764.715 1750.92,764.715 C1754.41,764.715 1756.97,765.994 1758.59,768.55 C1759.91,767.078 1761.19,766.342 1762.43,766.342 M1741.63,812.594 C1741.55,811.974 1741.51,811.355 1741.51,810.735 C1741.51,810.425 1745.46,799.617 1753.36,778.312 C1754.14,776.22 1754.91,774.438 1755.69,772.966 C1752.67,772.346 1749.68,772.037 1746.74,772.037 C1741.32,772.037 1734.11,776.646 1725.12,785.866 C1717.07,794.078 1713.04,801.167 1713.04,807.132 C1713.04,813.718 1716.18,817.01 1722.45,817.01 C1730.04,817.01 1736.44,815.538 1741.63,812.594"/>
<path class="Note" d="M1704.67,646.33 C1700.49,646.33 1698.4,644.432 1698.4,640.636 C1698.4,634.205 1699.36,629.479 1701.3,626.458 C1709.36,614.527 1726.87,592.214 1753.83,559.52 C1765.99,544.723 1781.68,537.324 1800.89,537.324 C1808.33,537.324 1813.48,538.37 1816.35,540.462 C1820.77,543.716 1822.97,547.628 1822.97,552.199 C1822.97,557.002 1819.1,562.348 1811.35,568.236 C1803.99,573.814 1797.02,576.603 1790.43,576.603 C1787.88,576.603 1786.6,576.332 1786.6,575.79 C1786.6,575.015 1787.84,574.202 1790.32,573.349 C1793.65,572.11 1797.21,569.592 1801.01,565.796 C1805.35,561.38 1807.52,557.39 1807.52,553.826 C1807.52,551.424 1805.85,549.139 1802.52,546.97 C1799.58,545.11 1794.81,544.18 1788.23,544.18 C1778.62,544.18 1766.5,553.865 1751.85,573.233 C1742.09,586.171 1734.19,597.56 1728.15,607.399 C1731.09,605.772 1734.61,603.797 1738.72,601.472 C1743.76,598.606 1748.1,597.173 1751.74,597.173 C1760.8,597.173 1765.33,600.427 1765.33,606.934 C1765.33,613.365 1761.61,620.415 1754.18,628.085 C1748.91,633.508 1746.27,637.537 1746.27,640.171 C1746.27,642.882 1748.91,644.238 1754.18,644.238 C1756.81,644.238 1759.52,643.308 1762.31,641.449 C1765.1,639.667 1767.15,638.776 1768.47,638.776 C1769.56,638.776 1770.1,639.473 1770.1,640.868 C1770.1,643.115 1767.93,645.478 1763.59,647.957 C1756.31,652.14 1750.46,654.232 1746.04,654.232 C1738.22,654.232 1734.31,650.049 1734.31,641.681 C1734.31,636.413 1737.33,630.564 1743.37,624.134 C1747.79,619.408 1749.99,614.72 1749.99,610.072 C1749.99,606.043 1747.82,604.029 1743.49,604.029 C1741.78,604.029 1736.13,606.043 1726.52,610.072 C1723.65,614.875 1721.25,619.291 1719.31,623.32 C1711.95,638.66 1707.07,646.33 1704.67,646.33"/>
<path class="Note" d="M1777.3,475.691 C1781.64,472.747 1784.78,470.306 1786.72,468.37 C1790.28,464.573 1792.06,461.087 1792.06,457.911 C1792.06,454.269 1790.05,452.449 1786.02,452.449 C1778.19,452.449 1769.83,459.344 1760.92,473.134 C1758.21,477.318 1752.24,490.953 1743.02,514.04 C1750.38,521.633 1754.06,525.933 1754.06,526.94 C1754.06,528.334 1753.17,529.032 1751.39,529.032 C1749.99,529.032 1746.16,526.669 1739.88,521.943 C1733.07,537.825 1722.72,551.383 1708.85,562.617 C1694.68,574.083 1677.75,579.816 1658.07,579.816 C1650.56,579.816 1641.14,578.073 1629.83,574.586 C1620.77,571.797 1616.23,567.343 1616.23,561.222 C1616.23,552.158 1619.72,547.625 1626.69,547.625 C1630.88,547.625 1632.97,549.562 1632.97,553.436 C1632.97,554.676 1632,555.993 1630.06,557.387 C1629.06,558.084 1628.55,559.44 1628.55,561.455 C1628.55,563.856 1631.23,566.335 1636.57,568.892 C1642.38,571.681 1650.9,573.076 1662.14,573.076 C1676.63,573.076 1690.61,566.8 1704.09,554.249 C1716.33,542.861 1725.12,529.613 1730.47,514.505 C1728.38,512.801 1726.13,510.942 1723.73,508.927 C1716.29,504.511 1712.57,499.979 1712.57,495.331 C1712.57,493.394 1713.85,492.425 1716.41,492.425 C1719.82,492.425 1724.43,495.331 1730.24,501.141 C1731.48,502.381 1732.64,503.543 1733.72,504.627 C1736.44,497.19 1740.77,487.738 1746.74,476.272 C1757.51,455.509 1770.6,445.127 1786.02,445.127 C1791.52,445.127 1795.86,446.173 1799.03,448.265 C1802.21,450.357 1803.8,453.223 1803.8,456.865 C1803.8,462.675 1801.67,467.595 1797.41,471.623 C1792.99,475.807 1788.38,477.899 1783.58,477.899 C1779.39,477.899 1777.3,477.163 1777.3,475.691"/>
<path class="Note" d="M1733.96,669.962 C1737.75,669.962 1739.65,672.867 1739.65,678.678 C1739.65,682.861 1737.68,687.665 1733.72,693.088 C1730.24,697.969 1728.49,705.523 1728.49,715.749 C1728.49,720.63 1729.77,723.884 1732.33,725.511 C1734.11,726.75 1737.44,727.409 1742.32,727.486 C1747.59,727.486 1755.07,724.814 1764.75,719.468 L1766.61,721.327 C1764.13,724.504 1761.15,727.37 1757.66,729.927 C1752.47,733.723 1747.17,735.621 1741.74,735.621 C1733.92,735.621 1727.99,734.498 1723.96,732.251 C1718.93,729.462 1716.41,725.976 1716.41,721.792 C1716.41,710.248 1717.88,698.201 1720.82,685.65 C1721.91,681.08 1724.27,676.896 1727.91,673.1 C1730.01,671.008 1732.02,669.962 1733.96,669.962"/>
<path class="Note" d="M2259.4,766.342 C2263.97,766.342 2266.25,769.209 2266.25,774.942 C2266.25,778.97 2263.73,784.975 2258.7,792.955 C2254.67,799.385 2252.65,805.66 2252.65,811.781 C2252.65,815.267 2257.73,817.01 2267.88,817.01 C2276.25,817.01 2287.91,812.478 2302.86,803.414 C2287.83,817.901 2274.77,825.145 2263.69,825.145 C2253.7,825.145 2246.73,823.634 2242.78,820.613 C2241.77,819.838 2240.92,818.908 2240.22,817.824 C2236.35,822.55 2229.88,824.913 2220.81,824.913 C2212.14,824.913 2205.47,823.131 2200.82,819.567 C2197.73,817.165 2196.18,813.33 2196.18,808.062 C2196.18,799.695 2201.13,790.553 2211.05,780.636 C2221.67,770.022 2233.94,764.715 2247.89,764.715 C2251.38,764.715 2253.93,765.994 2255.56,768.55 C2256.88,767.078 2258.16,766.342 2259.4,766.342 M2238.59,812.594 C2238.52,811.974 2238.48,811.355 2238.48,810.735 C2238.48,810.425 2242.43,799.617 2250.33,778.312 C2251.11,776.22 2251.88,774.438 2252.65,772.966 C2249.63,772.346 2246.65,772.037 2243.71,772.037 C2238.28,772.037 2231.08,776.646 2222.09,785.866 C2214.03,794.078 2210.01,801.167 2210.01,807.132 C2210.01,813.718 2213.14,817.01 2219.42,817.01 C2227.01,817.01 2233.4,815.538 2238.59,812.594"/>
<path class="Note" d="M2201.64,646.33 C2197.45,646.33 2195.36,644.432 2195.36,640.636 C2195.36,634.205 2196.33,629.479 2198.27,626.458 C2206.33,614.527 2223.83,592.214 2250.8,559.52 C2262.96,544.723 2278.65,537.324 2297.86,537.324 C2305.3,537.324 2310.45,538.37 2313.32,540.462 C2317.73,543.716 2319.94,547.628 2319.94,552.199 C2319.94,557.002 2316.07,562.348 2308.32,568.236 C2300.96,573.814 2293.99,576.603 2287.4,576.603 C2284.85,576.603 2283.57,576.332 2283.57,575.79 C2283.57,575.015 2284.81,574.202 2287.29,573.349 C2290.62,572.11 2294.18,569.592 2297.98,565.796 C2302.32,561.38 2304.48,557.39 2304.48,553.826 C2304.48,551.424 2302.82,549.139 2299.49,546.97 C2296.54,545.11 2291.78,544.18 2285.19,544.18 C2275.59,544.18 2263.46,553.865 2248.82,573.233 C2239.06,586.171 2231.16,597.56 2225.11,607.399 C2228.06,605.772 2231.58,603.797 2235.69,601.472 C2240.72,598.606 2245.06,597.173 2248.7,597.173 C2257.77,597.173 2262.3,600.427 2262.3,606.934 C2262.3,613.365 2258.58,620.415 2251.14,628.085 C2245.88,633.508 2243.24,637.537 2243.24,640.171 C2243.24,642.882 2245.88,644.238 2251.14,644.238 C2253.78,644.238 2256.49,643.308 2259.28,641.449 C2262.07,639.667 2264.12,638.776 2265.44,638.776 C2266.52,638.776 2267.07,639.473 2267.07,640.868 C2267.07,643.115 2264.9,645.478 2260.56,647.957 C2253.27,652.14 2247.43,654.232 2243.01,654.232 C2235.18,654.232 2231.27,650.049 2231.27,641.681 C2231.27,636.413 2234.29,630.564 2240.34,624.134 C2244.75,619.408 2246.96,614.72 2246.96,610.072 C2246.96,606.043 2244.79,604.029 2240.45,604.029 C2238.75,604.029 2233.09,606.043 2223.49,610.072 C2220.62,614.875 2218.22,619.291 2216.28,623.32 C2208.92,638.66 2204.04,646.33 2201.64,646.33"/>
<path class="Note" d="M2274.27,475.691 C2278.61,472.747 2281.75,470.306 2283.68,468.37 C2287.25,464.573 2289.03,461.087 2289.03,457.911 C2289.03,454.269 2287.01,452.449 2282.99,452.449 C2275.16,452.449 2266.79,459.344 2257.88,473.134 C2255.17,477.318 2249.21,490.953 2239.99,514.04 C2247.35,521.633 2251.03,525.933 2251.03,526.94 C2251.03,528.334 2250.14,529.032 2248.36,529.032 C2246.96,529.032 2243.13,526.669 2236.85,521.943 C2230.03,537.825 2219.69,551.383 2205.82,562.617 C2191.64,574.083 2174.72,579.816 2155.04,579.816 C2147.52,579.816 2138.11,578.073 2126.8,574.586 C2117.73,571.797 2113.2,567.343 2113.2,561.222 C2113.2,552.158 2116.69,547.625 2123.66,547.625 C2127.84,547.625 2129.94,549.562 2129.94,553.436 C2129.94,554.676 2128.97,555.993 2127.03,557.387 C2126.02,558.084 2125.52,559.44 2125.52,561.455 C2125.52,563.856 2128.19,566.335 2133.54,568.892 C2139.35,571.681 2147.87,573.076 2159.11,573.076 C2173.59,573.076 2187.58,566.8 2201.06,554.249 C2213.3,542.861 2222.09,529.613 2227.44,514.505 C2225.35,512.801 2223.1,510.942 2220.7,508.927 C2213.26,504.511 2209.54,499.979 2209.54,495.331 C2209.54,493.394 2210.82,492.425 2213.38,492.425 C2216.78,492.425 2221.39,495.331 2227.2,501.141 C2228.44,502.381 2229.61,503.543 2230.69,504.627 C2233.4,497.19 2237.74,487.738 2243.71,476.272 C2254.48,455.509 2267.57,445.127 2282.99,445.127 C2288.49,445.127 2292.83,446.173 2296,448.265 C2299.18,450.357 2300.77,453.223 2300.77,456.865 C2300.77,462.675 2298.64,467.595 2294.37,471.623 C2289.96,475.807 2285.35,477.899 2280.55,477.899 C2276.36,477.899 2274.27,477.163 2274.27,475.691"/>
<path class="Note" d="M2230.92,669.962 C2234.72,669.962 2236.62,672.867 2236.62,678.678 C2236.62,682.861 2234.64,687.665 2230.69,693.088 C2227.2,697.969 2225.46,705.523 2225.46,715.749 C2225.46,720.63 2226.74,723.884 2229.3,725.511 C2231.08,726.75 2234.41,727.409 2239.29,727.486 C2244.56,727.486 2252.04,724.814 2261.72,719.468 L2263.58,721.327 C2261.1,724.504 2258.12,727.37 2254.63,729.927 C2249.44,733.723 2244.13,735.621 2238.71,735.621 C2230.88,735.621 2224.96,734.498 2220.93,732.251 C2215.89,729.462 2213.38,725.976 2213.38,721.792 C2213.38,710.248 2214.85,698.201 2217.79,685.65 C2218.88,681.08 2221.24,676.896 2224.88,673.1 C2226.97,671.008 2228.99,669.962 2230.92,669.962"/>
<path class="Note" d="M2763.37,766.342 C2767.94,766.342 2770.22,769.209 2770.22,774.942 C2770.22,778.97 2767.7,784.975 2762.67,792.955 C2758.64,799.385 2756.63,805.66 2756.63,811.781 C2756.63,815.267 2761.7,817.01 2771.85,817.01 C2780.22,817.01 2791.88,812.478 2806.83,803.414 C2791.8,817.901 2778.74,825.145 2767.67,825.145 C2757.67,825.145 2750.7,823.634 2746.75,820.613 C2745.74,819.838 2744.89,818.908 2744.19,817.824 C2740.32,822.55 2733.85,824.913 2724.78,824.913 C2716.11,824.913 2709.44,823.131 2704.8,819.567 C2701.7,817.165 2700.15,813.33 2700.15,808.062 C2700.15,799.695 2705.11,790.553 2715.02,780.636 C2725.64,770.022 2737.92,764.715 2751.86,764.715 C2755.35,764.715 2757.9,765.994 2759.53,768.55 C2760.85,767.078 2762.13,766.342 2763.37,766.342 M2742.56,812.594 C2742.49,811.974 2742.45,811.355 2742.45,810.735 C2742.45,810.425 2746.4,799.617 2754.3,778.312 C2755.08,776.22 2755.85,774.438 2756.63,772.966 C2753.6,772.346 2750.62,772.037 2747.68,772.037 C2742.25,772.037 2735.05,776.646 2726.06,785.866 C2718,794.078 2713.98,801.167 2713.98,807.132 C2713.98,813.718 2717.11,817.01 2723.39,817.01 C2730.98,817.01 2737.37,815.538 2742.56,812.594"/>
<path class="Note" d="M2734.89,580.671 C2738.69,580.671 2740.59,583.576 2740.59,589.386 C2740.59,593.57 2738.61,598.373 2734.66,603.797 C2731.18,608.678 2729.43,616.231 2729.43,626.458 C2729.43,631.339 2730.71,634.593 2733.27,636.22 C2735.05,637.459 2738.38,638.118 2743.26,638.195 C2748.53,638.195 2756.01,635.522 2765.69,630.177 L2767.55,632.036 C2765.07,635.212 2762.09,638.079 2758.6,640.636 C2753.41,644.432 2748.1,646.33 2742.68,646.33 C2734.86,646.33 2728.93,645.206 2724.9,642.96 C2719.86,640.171 2717.35,636.684 2717.35,632.501 C2717.35,620.957 2718.82,608.91 2721.76,596.359 C2722.85,591.788 2725.21,587.605 2728.85,583.808 C2730.94,581.717 2732.96,580.671 2734.89,580.671"/>
<path class="Note" d="M2705.61,557.039 C2701.43,557.039 2699.33,555.14 2699.33,551.344 C2699.33,544.914 2700.3,540.188 2702.24,537.166 C2710.3,525.235 2727.81,502.923 2754.77,470.229 C2766.93,455.431 2782.62,448.033 2801.83,448.033 C2809.27,448.033 2814.42,449.079 2817.29,451.17 C2821.7,454.424 2823.91,458.337 2823.91,462.908 C2823.91,467.711 2820.04,473.057 2812.29,478.945 C2804.93,484.523 2797.96,487.312 2791.37,487.312 C2788.82,487.312 2787.54,487.041 2787.54,486.498 C2787.54,485.724 2788.78,484.91 2791.26,484.058 C2794.59,482.818 2798.15,480.301 2801.95,476.504 C2806.29,472.088 2808.46,468.098 2808.46,464.535 C2808.46,462.133 2806.79,459.847 2803.46,457.678 C2800.51,455.819 2795.75,454.889 2789.16,454.889 C2779.56,454.889 2767.43,464.573 2752.79,483.942 C2743.03,496.88 2735.13,508.269 2729.08,518.108 C2732.03,516.481 2735.55,514.505 2739.66,512.181 C2744.69,509.315 2749.03,507.881 2752.67,507.881 C2761.74,507.881 2766.27,511.135 2766.27,517.643 C2766.27,524.073 2762.55,531.123 2755.12,538.793 C2749.85,544.217 2747.21,548.245 2747.21,550.879 C2747.21,553.591 2749.85,554.947 2755.12,554.947 C2757.75,554.947 2760.46,554.017 2763.25,552.158 C2766.04,550.376 2768.09,549.485 2769.41,549.485 C2770.49,549.485 2771.04,550.182 2771.04,551.577 C2771.04,553.823 2768.87,556.186 2764.53,558.665 C2757.25,562.849 2751.4,564.941 2746.98,564.941 C2739.16,564.941 2735.24,560.757 2735.24,552.39 C2735.24,547.122 2738.26,541.273 2744.31,534.842 C2748.72,530.116 2750.93,525.429 2750.93,520.781 C2750.93,516.752 2748.76,514.738 2744.42,514.738 C2742.72,514.738 2737.06,516.752 2727.46,520.781 C2724.59,525.584 2722.19,530 2720.25,534.029 C2712.89,549.369 2708.01,557.039 2705.61,557.039"/>
<path class="Note" d="M2740.12,629.753 C2742.6,629.753 2744.31,630.373 2745.24,631.612 C2746.63,633.704 2747.33,636.648 2747.33,640.444 C2747.33,644.86 2744.23,655.436 2738.03,672.17 C2727.88,700.603 2722.81,715.672 2722.81,717.376 C2722.81,721.947 2724.63,724.271 2728.27,724.349 C2729.82,724.349 2733.77,721.947 2740.12,717.144 C2746.4,712.573 2751.24,710.287 2754.65,710.287 C2756.04,710.287 2756.74,711.139 2756.74,712.844 C2756.74,715.71 2752.91,719.468 2745.24,724.116 C2732.69,731.786 2724.01,735.621 2719.21,735.621 C2711.54,735.621 2707.7,732.6 2707.7,726.557 C2707.7,726.402 2713.01,708.622 2723.62,673.216 C2730.05,651.911 2733.96,638.043 2735.36,631.612 C2735.59,630.373 2737.18,629.753 2740.12,629.753"/>
<path class="Note" d="M3322.51,929.585 C3324.91,929.585 3326.65,930.089 3327.73,931.096 C3328.97,932.18 3329.59,933.769 3329.59,935.86 C3329.59,938.495 3328.43,940.741 3326.11,942.601 C3316.04,949.728 3305.69,958.793 3295.08,969.794 C3297.48,980.408 3300.43,988.272 3303.91,993.385 C3308.48,1000.13 3311.62,1003.5 3313.32,1003.5 C3314.87,1003.5 3316.54,1002.53 3318.32,1000.59 C3319.56,999.273 3320.76,998.614 3321.92,998.614 C3324.4,998.614 3325.64,999.931 3325.64,1002.57 C3325.64,1005.35 3323.44,1009.15 3319.02,1013.95 C3316.62,1016.43 3314.1,1017.67 3311.47,1017.67 C3306.04,1017.67 3300.58,1012.6 3295.08,1002.45 C3289.5,992.223 3285.67,982.577 3283.57,973.513 C3279.7,985.444 3277.76,992.765 3277.76,995.477 C3277.76,1000.82 3274.7,1003.5 3268.58,1003.5 C3265.25,1003.5 3263.59,1000.4 3263.59,994.198 C3263.59,991.254 3267.27,978.084 3274.63,954.687 C3278.27,943.22 3281.25,935.202 3283.57,930.631 C3284.12,929.701 3285.51,929.236 3287.76,929.236 C3290.39,929.236 3292.21,929.779 3293.22,930.863 C3294.23,931.948 3294.73,934.195 3294.73,937.604 C3294.73,939.308 3293.07,945.196 3289.73,955.268 C3298.02,947.133 3307.36,939.192 3317.74,931.444 C3319.37,930.205 3320.96,929.585 3322.51,929.585"/>
<path class="Note" d="M3290.9,580.671 C3294.69,580.671 3296.59,583.576 3296.59,589.386 C3296.59,593.57 3294.61,598.373 3290.66,603.797 C3287.18,608.678 3285.43,616.231 3285.43,626.458 C3285.43,631.339 3286.71,634.593 3289.27,636.22 C3291.05,637.459 3294.38,638.118 3299.26,638.195 C3304.53,638.195 3312.01,635.522 3321.69,630.177 L3323.55,632.036 C3321.07,635.212 3318.09,638.079 3314.6,640.636 C3309.41,644.432 3304.11,646.33 3298.68,646.33 C3290.86,646.33 3284.93,645.206 3280.9,642.96 C3275.87,640.171 3273.35,636.684 3273.35,632.501 C3273.35,620.957 3274.82,608.91 3277.76,596.359 C3278.85,591.788 3281.21,587.605 3284.85,583.808 C3286.94,581.717 3288.96,580.671 3290.9,580.671"/>
<path class="Note" d="M3261.61,824.913 C3257.43,824.913 3255.34,823.014 3255.34,819.218 C3255.34,812.788 3256.3,808.062 3258.24,805.04 C3266.3,793.109 3283.81,770.797 3310.77,738.103 C3322.93,723.305 3338.62,715.907 3357.83,715.907 C3365.27,715.907 3370.42,716.953 3373.29,719.044 C3377.71,722.298 3379.91,726.211 3379.91,730.782 C3379.91,735.585 3376.04,740.931 3368.29,746.819 C3360.93,752.397 3353.96,755.186 3347.37,755.186 C3344.82,755.186 3343.54,754.915 3343.54,754.372 C3343.54,753.598 3344.78,752.784 3347.26,751.932 C3350.59,750.692 3354.15,748.175 3357.95,744.378 C3362.29,739.962 3364.46,735.972 3364.46,732.409 C3364.46,730.007 3362.79,727.721 3359.46,725.552 C3356.52,723.693 3351.75,722.763 3345.17,722.763 C3335.56,722.763 3323.44,732.447 3308.79,751.816 C3299.03,764.754 3291.13,776.143 3285.09,785.982 C3288.03,784.355 3291.55,782.379 3295.66,780.055 C3300.7,777.189 3305.03,775.755 3308.68,775.755 C3317.74,775.755 3322.27,779.009 3322.27,785.517 C3322.27,791.947 3318.55,798.997 3311.12,806.667 C3305.85,812.091 3303.21,816.119 3303.21,818.753 C3303.21,821.465 3305.85,822.821 3311.12,822.821 C3313.75,822.821 3316.46,821.891 3319.25,820.032 C3322.04,818.25 3324.09,817.359 3325.41,817.359 C3326.5,817.359 3327.04,818.056 3327.04,819.451 C3327.04,821.697 3324.87,824.06 3320.53,826.539 C3313.25,830.723 3307.4,832.815 3302.98,832.815 C3295.16,832.815 3291.24,828.631 3291.24,820.264 C3291.24,814.996 3294.27,809.147 3300.31,802.716 C3304.73,797.99 3306.93,793.303 3306.93,788.655 C3306.93,784.626 3304.76,782.612 3300.43,782.612 C3298.72,782.612 3293.07,784.626 3283.46,788.655 C3280.59,793.458 3278.19,797.874 3276.25,801.903 C3268.89,817.243 3264.01,824.913 3261.61,824.913"/>
<path class="Note" d="M3296.13,629.753 C3298.6,629.753 3300.31,630.373 3301.24,631.612 C3302.63,633.704 3303.33,636.648 3303.33,640.444 C3303.33,644.86 3300.23,655.436 3294.03,672.17 C3283.88,700.603 3278.81,715.672 3278.81,717.376 C3278.81,721.947 3280.63,724.271 3284.27,724.349 C3285.82,724.349 3289.77,721.947 3296.13,717.144 C3302.4,712.573 3307.24,710.287 3310.65,710.287 C3312.05,710.287 3312.74,711.139 3312.74,712.844 C3312.74,715.71 3308.91,719.468 3301.24,724.116 C3288.69,731.786 3280.01,735.621 3275.21,735.621 C3267.54,735.621 3263.7,732.6 3263.7,726.557 C3263.7,726.402 3269.01,708.622 3279.62,673.216 C3286.05,651.911 3289.97,638.043 3291.36,631.612 C3291.59,630.373 3293.18,629.753 3296.13,629.753"/>
<path class="Note" d="M3760.35,897.627 C3762.83,897.627 3764.54,898.247 3765.47,899.486 C3766.86,901.578 3767.56,904.522 3767.56,908.318 C3767.56,912.734 3764.46,923.31 3758.26,940.044 C3748.11,968.477 3743.04,983.546 3743.04,985.25 C3743.04,989.821 3744.86,992.145 3748.5,992.223 C3750.05,992.223 3754,989.821 3760.35,985.018 C3766.63,980.447 3771.47,978.161 3774.88,978.161 C3776.27,978.161 3776.97,979.013 3776.97,980.718 C3776.97,983.584 3773.14,987.342 3765.47,991.99 C3752.91,999.66 3744.24,1003.5 3739.43,1003.5 C3731.76,1003.5 3727.93,1000.47 3727.93,994.431 C3727.93,994.276 3733.24,976.496 3743.85,941.09 C3750.28,919.785 3754.19,905.917 3755.59,899.486 C3755.82,898.247 3757.41,897.627 3760.35,897.627"/>
<path class="Note" d="M3725.84,646.33 C3721.65,646.33 3719.56,644.432 3719.56,640.636 C3719.56,634.205 3720.53,629.479 3722.47,626.458 C3730.52,614.527 3748.03,592.214 3774.99,559.52 C3787.16,544.723 3802.85,537.324 3822.06,537.324 C3829.5,537.324 3834.65,538.37 3837.52,540.462 C3841.93,543.716 3844.14,547.628 3844.14,552.199 C3844.14,557.002 3840.27,562.348 3832.52,568.236 C3825.16,573.814 3818.19,576.603 3811.6,576.603 C3809.04,576.603 3807.77,576.332 3807.77,575.79 C3807.77,575.015 3809.01,574.202 3811.49,573.349 C3814.82,572.11 3818.38,569.592 3822.18,565.796 C3826.52,561.38 3828.68,557.39 3828.68,553.826 C3828.68,551.424 3827.02,549.139 3823.69,546.97 C3820.74,545.11 3815.98,544.18 3809.39,544.18 C3799.79,544.18 3787.66,553.865 3773.02,573.233 C3763.26,586.171 3755.36,597.56 3749.31,607.399 C3752.26,605.772 3755.78,603.797 3759.89,601.472 C3764.92,598.606 3769.26,597.173 3772.9,597.173 C3781.97,597.173 3786.5,600.427 3786.5,606.934 C3786.5,613.365 3782.78,620.415 3775.34,628.085 C3770.08,633.508 3767.44,637.537 3767.44,640.171 C3767.44,642.882 3770.08,644.238 3775.34,644.238 C3777.98,644.238 3780.69,643.308 3783.48,641.449 C3786.27,639.667 3788.32,638.776 3789.64,638.776 C3790.72,638.776 3791.26,639.473 3791.26,640.868 C3791.26,643.115 3789.1,645.478 3784.76,647.957 C3777.47,652.14 3771.62,654.232 3767.21,654.232 C3759.38,654.232 3755.47,650.049 3755.47,641.681 C3755.47,636.413 3758.49,630.564 3764.54,624.134 C3768.95,619.408 3771.16,614.72 3771.16,610.072 C3771.16,606.043 3768.99,604.029 3764.65,604.029 C3762.95,604.029 3757.29,606.043 3747.69,610.072 C3744.82,614.875 3742.42,619.291 3740.48,623.32 C3733.12,638.66 3728.24,646.33 3725.84,646.33"/>
<path class="Note" d="M3725.84,824.913 C3721.65,824.913 3719.56,823.014 3719.56,819.218 C3719.56,812.788 3720.53,808.062 3722.47,805.04 C3730.52,793.109 3748.03,770.797 3774.99,738.103 C3787.16,723.305 3802.85,715.907 3822.06,715.907 C3829.5,715.907 3834.65,716.953 3837.52,719.044 C3841.93,722.298 3844.14,726.211 3844.14,730.782 C3844.14,735.585 3840.27,740.931 3832.52,746.819 C3825.16,752.397 3818.19,755.186 3811.6,755.186 C3809.04,755.186 3807.77,754.915 3807.77,754.372 C3807.77,753.598 3809.01,752.784 3811.49,751.932 C3814.82,750.692 3818.38,748.175 3822.18,744.378 C3826.52,739.962 3828.68,735.972 3828.68,732.409 C3828.68,730.007 3827.02,727.721 3823.69,725.552 C3820.74,723.693 3815.98,722.763 3809.39,722.763 C3799.79,722.763 3787.66,732.447 3773.02,751.816 C3763.26,764.754 3755.36,776.143 3749.31,785.982 C3752.26,784.355 3755.78,782.379 3759.89,780.055 C3764.92,777.189 3769.26,775.755 3772.9,775.755 C3781.97,775.755 3786.5,779.009 3786.5,785.517 C3786.5,791.947 3782.78,798.997 3775.34,806.667 C3770.08,812.091 3767.44,816.119 3767.44,818.753 C3767.44,821.465 3770.08,822.821 3775.34,822.821 C3777.98,822.821 3780.69,821.891 3783.48,820.032 C3786.27,818.25 3788.32,817.359 3789.64,817.359 C3790.72,817.359 3791.26,818.056 3791.26,819.451 C3791.26,821.697 3789.1,824.06 3784.76,826.539 C3777.47,830.723 3771.62,832.815 3767.21,832.815 C3759.38,832.815 3755.47,828.631 3755.47,820.264 C3755.47,814.996 3758.49,809.147 3764.54,802.716 C3768.95,797.99 3771.16,793.303 3771.16,788.655 C3771.16,784.626 3768.99,782.612 3764.65,782.612 C3762.95,782.612 3757.29,784.626 3747.69,788.655 C3744.82,793.458 3742.42,797.874 3740.48,801.903 C3733.12,817.243 3728.24,824.913 3725.84,824.913"/>
<path class="Note" d="M3755.12,669.962 C3758.92,669.962 3760.82,672.867 3760.82,678.678 C3760.82,682.861 3758.84,687.665 3754.89,693.088 C3751.4,697.969 3749.66,705.523 3749.66,715.749 C3749.66,720.63 3750.94,723.884 3753.5,725.511 C3755.28,726.75 3758.61,727.409 3763.49,727.486 C3768.76,727.486 3776.23,724.814 3785.92,719.468 L3787.78,721.327 C3785.3,724.504 3782.32,727.37 3778.83,729.927 C3773.64,733.723 3768.33,735.621 3762.91,735.621 C3755.08,735.621 3749.16,734.498 3745.13,732.251 C3740.09,729.462 3737.58,725.976 3737.58,721.792 C3737.58,710.248 3739.05,698.201 3741.99,685.65 C3743.08,681.08 3745.44,676.896 3749.08,673.1 C3751.17,671.008 3753.19,669.962 3755.12,669.962"/>
<path class="Clef" transform="matrix(2.3811,0,0,2.3811,212.156,2162.59)" d="M25.4,-25.1 C17.8,-25.1 11.7,-20.7 11.6,-20.7 C5.8,-16.4 3.5,-11.3 2.6,-7.8 C2.1,-6 1.9,-4.2 1.9,-2.5 C1.9,-0.1 2.3,2.1 3.2,4 C4.4,6.7 6.7,8.6 9.7,9.6 C10.9,10 12.2,10.2 13.5,10.2 C15.7,10.2 18,9.6 19.9,8.5 C23,6.8 24.9,3.2 24.9,-0.7 C24.9,-4.2 23.1,-7.4 20.1,-9.3 C18,-10.7 16,-11.1 14.3,-11.1 C13.1,-11.1 12,-10.9 11.1,-10.6 C10.1,-10.2 8.4,-9.2 7.6,-8.5 C7.9,-10.4 9.1,-13.3 10.2,-14.9 C11.3,-16.5 13.5,-18.5 15.2,-19.4 C17.7,-20.8 20.9,-21.4 24.4,-21.4 C34.6,-21.4 39.6,-13.2 39.6,3.6 C39.6,12.9 36.1,21.8 33.1,27.7 C29.8,34.3 25.4,40.6 21.5,44.1 C11.1,53.6 1.3,58.1 1.2,58.1 C1.2,58.1 -0.3,59 0.1,60.5 C0.4,61.5 1.3,61.7 1.9,61.7 C2,61.7 2.3,61.6 2.4,61.6 C2.5,61.6 13.9,56.9 23,49.8 C28.1,46.1 32.7,42.1 36.7,37.8 C40.3,33.9 43.4,29.7 45.9,25.5 C50.3,18 52.8,10.2 52.8,3.5 C52.8,-4.8 50.6,-11.7 46.5,-16.6 C41.8,-22.2 34.7,-25.1 25.4,-25.1 M56.8,-12.4 C56.8,-9.6 59,-7.4 61.6,-7.4 C64.2,-7.4 66.4,-9.6 66.4,-12.4 C66.4,-15.2 64.2,-17.5 61.6,-17.5 C59,-17.5 56.8,-15.2 56.8,-12.4 M56.8,12.3 C56.8,15.1 59,17.4 61.6,17.4 C64.2,17.4 66.4,15.1 66.4,12.3 C66.4,9.5 64.2,7.2 61.6,7.2 C59,7.2 56.8,9.5 56.8,12.3"/>
<path class="Clef" transform="matrix(2.3811,0,0,2.3811,212.156,1574.19)" d="M63.37,-5.89004 C62.14,-11.32 59.5,-15.14 58.72,-16.1801 C55.5301,-20.45 51.52,-23.3 46.8301,-24.65 C43.72,-25.54 40.72,-25.65 38.3,-25.47 C37.2601,-31.4801 36.2601,-37.3601 35.35,-42.8101 C40.79,-48.97 44.42,-54.77 46.69,-59.07 C50.1601,-65.65 51.3101,-70.2301 51.3601,-70.4301 C53.0801,-75.64 53.44,-83.34 52.34,-91.55 C51.3301,-99.1 49.24,-105.81 46.89,-109.06 C45.8601,-110.49 44.8101,-111.22 43.77,-111.22 C42.55,-111.22 40.04,-109.98 37.15,-107.21 C34.85,-105.01 31.5801,-101.12 29.02,-95.1101 C26.02,-88.05 25.8101,-78.5601 26.1601,-71.84 C26.54,-64.57 27.65,-58.8801 27.6601,-58.8301 C27.6801,-58.74 27.94,-57.24 28.39,-54.67 C28.1601,-54.44 27.92,-54.22 27.67,-53.9801 C26.6301,-52.9801 25.44,-51.84 24.0601,-50.4601 C23.2,-49.6 22.25,-48.69 21.25,-47.72 C12.79,-39.57 0,-27.25 0,-8.1 C0,-3.4 0.9,1.01992 2.68008,5.02998 C4.27002,8.62998 6.57002,11.91 9.5,14.78 C17.2301,22.33 27.82,25.5399 34.8801,25.38 C37.8301,25.31 40.4601,25.0699 42.85,24.6199 C44.6801,34.2199 45.82,41.25 45.8601,46.5899 C45.9,53.1 44.25,57.0699 40.35,59.8399 C37.92,61.5699 35.1101,62.5199 32.0101,62.6699 C29.42,62.7899 27.1601,62.3199 25.7301,61.91 L25.72,61.91 C25.72,61.91 25.4301,61.83 25.42,61.63 C25.4101,61.45 25.7601,61.4 25.77,61.4 L25.79,61.4 C27.7101,60.96 31.2801,59.73 33.64,56.43 C35.44,53.91 36.3101,49.2899 34.47,45.35 C33.3601,42.96 30.85,40.01 25.2301,39.56 C22.74,39.36 20.47,39.8699 18.47,41.0699 C16.6601,42.15 15.1601,43.7899 14.1101,45.7899 C11.65,50.4899 12.1101,56.2199 15.24,60.06 C18.2,63.68 22.82,65.9899 28.25,66.5699 C29.1,66.66 29.95,66.7 30.8,66.7 C31.5101,66.7 32.22,66.6699 32.92,66.61 C31.72,66.9399 30.64,67.4899 29.77,68.25 C28.2801,69.5399 27.44,71.38 27.44,73.41 C27.44,75.28 28.0601,76.65 29.55,78.0399 C28.4101,78.5 27.55,78.98 26.79,79.56 C25.25,80.73 24.34,82.46 24.34,84.1899 C24.34,87.45 27.3,89.63 31.72,89.63 C37.1301,89.63 40.9101,86.63 40.9101,82.35 C40.9101,80.1199 39.9101,78.18 38.0801,76.83 C41.0101,75.6199 42.37,73.9399 42.37,71.56 C42.39,70.05 41.69,68.61 40.49,67.6899 C39.2801,66.7399 37.62,66.2399 35.69,66.2399 L35.5101,66.2399 C38.2801,65.7 40.92,64.7 43.2101,63.28 C46.87,60.71 48.99,56.73 49.67,51.1 C50.2301,46.46 49.84,40.55 48.44,32.48 C48.0801,30.3899 47.54,27.36 46.8801,23.6 C52.6301,21.68 56.79,18.11 60.5601,12.26 C63.85,6.51992 64.8,0.419922 63.37,-5.89004 M32.39,87.5399 C30.19,87.5399 28.7301,86.1199 28.7301,84.01 C28.7301,82.11 29.65,80.5 31.32,79.4699 C31.6801,79.66 31.77,79.71 32.1101,79.88 C33.3,80.48 33.3,80.48 33.55,80.63 L33.5601,80.6399 C35.47,81.73 36.25,82.76 36.25,84.18 C36.24,86.0899 34.59,87.5399 32.39,87.5399 M38.3101,71.63 C38.3101,73.2699 37.7301,74.3399 36.1801,75.53 C34.74,74.78 34.35,74.56 33.9801,74.3399 L33.8801,74.28 C32.3301,73.3399 31.85,72.66 31.85,71.4 C31.85,69.6 33.2301,68.3399 35.19,68.3399 C37.17,68.35 38.3101,69.55 38.3101,71.63 M33.15,-83.8101 C34.9301,-89.55 37.67,-92.8 39.6601,-94.5301 C41.4101,-96.05 43.0601,-96.7601 43.9801,-96.7601 C44.12,-96.7601 44.24,-96.74 44.34,-96.7101 C44.8,-96.57 45.3301,-96 45.8,-95.1301 C48.1101,-90.84 47.37,-84.1301 46.0301,-79.69 C44.4,-74.29 41.4801,-68.6801 32.69,-59.0601 C32.52,-60.17 32.3601,-61.22 32.2101,-62.2 C30.95,-70.49 31.27,-77.7601 33.15,-83.8101 M29.15,20.31 C24.5101,19.0899 20.0801,16.5899 16.32,13.0899 C15.0101,11.86 13.14,9.68994 11.67,6.3 C10.3101,3.13994 9.65,-0.290039 9.7,-3.88008 C9.77002,-8.57002 11.0801,-13.39 13.59,-18.1801 C16.5101,-23.7601 21.07,-29.29 27.1301,-34.62 C28.5801,-35.9 29.95,-37.1801 31.24,-38.4601 C32,-34.2 32.8301,-29.5101 33.7101,-24.6301 C29.8601,-23.3601 25.1101,-20.2101 22,-14.5601 C18.47,-7.99004 18.6101,-2.47002 19.34,1.00996 C20.2801,5.46992 22.8101,9.22998 26.27,11.3199 C27.2,11.88 31.3301,14.01 33.17,13.43 C33.54,13.31 33.8101,13.0899 33.95,12.76 C34.4601,11.5899 33.44,10.95 31.8801,9.98994 C31.2801,9.61992 30.6101,9.2 29.8801,8.66992 C26.5601,6.17998 25.1101,1.72998 26.1801,-2.65 C26.7601,-5.05 28.04,-7.21006 29.8801,-8.91006 C31.55,-10.4601 33.59,-11.5601 35.97,-12.2 C38.0101,-0.960059 40.07,10.1899 41.7101,18.55 C41.84,19.2399 41.9801,19.91 42.1101,20.58 C37.7101,21.51 33.37,21.4199 29.15,20.31 M54.9,10.1 C53.7301,13.28 51.27,17.35 46.14,19.41 C46.07,18.9899 45.99,18.56 45.9101,18.13 C44.3601,9.36992 42.4301,-1.61006 40.47,-12.87 C50.82,-13.35 55.09,-5.91006 55.9801,-1.08008 C56.45,1.45 56.45,5.88994 54.9,10.1"/>
<path class="KeySig" transform="matrix(2.3811,0,0,2.3811,429.785,2162.59)" d="M23.3,-10.6 C23.9,-10.7 24.4,-11.4 24.4,-12 L24.4,-17.9 C24.4,-18.7 23.8,-19.3 23,-19.3 L22.8,-19.3 L19.5,-18.6 L19.5,-33.5 L16.7,-33.5 L16.7,-18 L7.8,-16.2 L7.8,-30.3 L5,-30.3 L5,-15.6 L1.1,-14.8 C0.5,-14.7 0,-14 0,-13.4 L0,-13.2 L0,-7.4 L0,-7.6 C0,-6.8 0.6,-6.2 1.4,-6.2 L1.7,-6.2 L5,-6.9 L5,9.6 L1.1,10.4 C0.5,10.5 0,11.2 0,11.8 L0,17.6 C0,18.4 0.6,19 1.4,19 L1.7,19 L5,18.3 L5,33.2 L7.8,33.2 L7.8,17.7 L16.7,15.9 L16.7,30 L19.5,30 L19.5,15.3 L23.3,14.6 C23.9,14.5 24.4,13.8 24.4,13.2 L24.4,7.3 C24.4,6.5 23.8,5.9 23,5.9 L22.8,5.9 L19.5,6.6 L19.5,-9.9 L23.3,-10.6 M7.8,9.1 L7.8,-7.5 L16.7,-9.3 L16.7,7.2 L7.8,9.1 "/>
<path class="KeySig" transform="matrix(2.3811,0,0,2.3811,429.785,1395.61)" d="M23.3,-10.6 C23.9,-10.7 24.4,-11.4 24.4,-12 L24.4,-17.9 C24.4,-18.7 23.8,-19.3 23,-19.3 L22.8,-19.3 L19.5,-18.6 L19.5,-33.5 L16.7,-33.5 L16.7,-18 L7.8,-16.2 L7.8,-30.3 L5,-30.3 L5,-15.6 L1.1,-14.8 C0.5,-14.7 0,-14 0,-13.4 L0,-13.2 L0,-7.4 L0,-7.6 C0,-6.8 0.6,-6.2 1.4,-6.2 L1.7,-6.2 L5,-6.9 L5,9.6 L1.1,10.4 C0.5,10.5 0,11.2 0,11.8 L0,17.6 C0,18.4 0.6,19 1.4,19 L1.7,19 L5,18.3 L5,33.2 L7.8,33.2 L7.8,17.7 L16.7,15.9 L16.7,30 L19.5,30 L19.5,15.3 L23.3,14.6 C23.9,14.5 24.4,13.8 24.4,13.2 L24.4,7.3 C24.4,6.5 23.8,5.9 23,5.9 L22.8,5.9 L19.5,6.6 L19.5,-9.9 L23.3,-10.6 M7.8,9.1 L7.8,-7.5 L16.7,-9.3 L16.7,7.2 L7.8,9.1 "/>
<path class="FiguredBass" d="M703.441,2530.63 C702.761,2531.37 701.864,2531.74 700.751,2531.74 C699.637,2531.74 698.725,2531.35 698.014,2530.58 C697.303,2529.81 696.947,2528.93 696.947,2527.94 L696.947,2514.67 L683.68,2514.67 C682.567,2514.67 681.655,2514.28 680.944,2513.51 C680.232,2512.74 679.877,2511.86 679.877,2510.87 C679.877,2509.88 680.232,2509 680.944,2508.22 C681.655,2507.45 682.567,2507.06 683.68,2507.06 L696.947,2507.06 L696.947,2493.8 C696.947,2492.81 697.303,2491.93 698.014,2491.15 C698.725,2490.38 699.637,2489.99 700.751,2489.99 C701.864,2489.99 702.776,2490.38 703.487,2491.15 C704.199,2491.93 704.554,2492.81 704.554,2493.8 L704.554,2507.06 L717.821,2507.06 C718.934,2507.06 719.847,2507.45 720.558,2508.22 C721.269,2509 721.625,2509.88 721.625,2510.87 C721.625,2511.86 721.269,2512.74 720.558,2513.51 C719.847,2514.28 718.934,2514.67 717.821,2514.67 L704.554,2514.67 L704.554,2527.94 C704.554,2528.93 704.183,2529.82 703.441,2530.63 M756.865,2476.36 C752.288,2476.36 749.242,2478.2 747.727,2481.88 C746.211,2485.56 745.454,2490.77 745.454,2497.51 L745.454,2508.45 C748.67,2507.16 751.453,2506.48 753.803,2506.41 C761.844,2506.41 768.168,2508.19 772.776,2511.75 C777.383,2515.3 779.687,2520.59 779.687,2527.61 C779.687,2534.63 777.352,2539.94 772.683,2543.52 C768.013,2547.11 761.72,2548.9 753.803,2548.9 C745.701,2548.9 739.362,2545.15 734.785,2537.63 C730.208,2530.12 727.92,2521.2 727.92,2510.87 C727.92,2500.6 730.579,2491.69 735.898,2484.15 C741.217,2476.6 748.206,2472.83 756.865,2472.83 C762.555,2472.83 767.472,2474.27 771.616,2477.14 C775.76,2480.02 777.832,2483.81 777.832,2488.51 C777.832,2491.23 776.842,2493.58 774.863,2495.56 C772.884,2497.54 770.518,2498.53 767.766,2498.53 C765.014,2498.53 762.648,2497.54 760.669,2495.56 C758.689,2493.58 757.7,2491.23 757.7,2488.51 C757.7,2485.85 758.689,2483.5 760.669,2481.46 C761.349,2480.65 762.308,2479.97 763.545,2479.42 C763.235,2478.61 762.617,2477.99 761.689,2477.56 C760.328,2476.76 758.72,2476.36 756.865,2476.36 M761.411,2514.3 C760.298,2511.39 757.855,2509.94 754.082,2509.94 C750.309,2509.94 747.974,2511.39 747.077,2514.3 C746.181,2517.21 745.732,2521.63 745.732,2527.57 C745.732,2534.56 746.181,2539.26 747.077,2541.67 C747.974,2544.08 750.309,2545.29 754.082,2545.29 C757.855,2545.29 760.298,2543.83 761.411,2540.93 C762.524,2538.02 763.081,2533.58 763.081,2527.61 C763.081,2521.64 762.524,2517.21 761.411,2514.3"/>
<path class="FiguredBass" d="M2735.91,2548.9 C2729.91,2548.9 2725.55,2547.23 2722.83,2543.89 C2721.84,2542.66 2720.57,2541.51 2719.03,2540.46 C2717.48,2539.41 2715.78,2538.88 2713.92,2538.88 C2711.51,2538.88 2709.35,2539.64 2707.43,2541.16 C2705.51,2542.67 2704.55,2544.7 2704.55,2547.23 C2704.55,2548.35 2704,2548.9 2702.88,2548.9 C2701.65,2548.9 2701.03,2548.35 2701.03,2547.23 C2701.03,2543.46 2701.91,2540.01 2703.67,2536.89 C2705.43,2533.77 2707.65,2531.14 2710.31,2529 C2712.96,2526.87 2715.84,2524.58 2718.93,2522.14 C2722.03,2519.7 2724.89,2517.33 2727.51,2515.04 C2730.14,2512.75 2732.34,2509.86 2734.1,2506.37 C2735.86,2502.87 2736.75,2499.05 2736.75,2494.91 C2736.75,2489.71 2735.9,2485.32 2734.19,2481.74 C2732.49,2478.15 2729.82,2476.36 2726.17,2476.36 C2724.07,2476.36 2722.24,2476.87 2720.7,2477.89 C2719.15,2478.91 2718.38,2480.25 2718.38,2481.92 C2718.38,2483.22 2719.26,2484.92 2721.02,2487.02 C2722.78,2489.13 2723.66,2490.89 2723.66,2492.31 C2723.66,2495.28 2722.66,2497.77 2720.65,2499.78 C2718.64,2501.79 2716.21,2502.8 2713.37,2502.8 C2710.4,2502.8 2707.91,2501.76 2705.9,2499.69 C2703.89,2497.62 2702.88,2495.16 2702.88,2492.31 C2702.88,2486.62 2705.16,2481.95 2709.7,2478.3 C2714.25,2474.65 2719.74,2472.83 2726.17,2472.83 C2733.78,2472.83 2740.41,2474.89 2746.07,2479 C2751.73,2483.11 2754.56,2488.42 2754.56,2494.91 C2754.56,2499.3 2753.77,2503.11 2752.19,2506.32 C2750.62,2509.54 2748.36,2512.13 2745.42,2514.11 C2742.48,2516.09 2739.54,2517.78 2736.61,2519.17 C2733.67,2520.56 2730.22,2522.06 2726.26,2523.67 C2722.3,2525.28 2719.12,2526.86 2716.71,2528.4 C2718.01,2528.09 2719.33,2527.94 2720.7,2527.94 C2725.27,2527.94 2730.03,2529.42 2734.98,2532.39 C2739.93,2535.36 2743.83,2536.84 2746.67,2536.84 C2748.28,2536.84 2749.59,2536.55 2750.62,2535.96 C2751.64,2535.37 2752.3,2534.73 2752.61,2534.01 C2752.92,2533.3 2753.27,2532.64 2753.68,2532.02 C2754.08,2531.4 2754.53,2531.09 2755.02,2531.09 C2756.26,2531.09 2756.88,2531.71 2756.88,2532.95 C2756.88,2535.61 2754.96,2538.93 2751.13,2542.92 C2747.29,2546.91 2742.22,2548.9 2735.91,2548.9"/>
<path class="FiguredBass" d="M3287.74,2476.36 C3283.16,2476.36 3280.11,2478.2 3278.6,2481.88 C3277.08,2485.56 3276.33,2490.77 3276.33,2497.51 L3276.33,2508.45 C3279.54,2507.16 3282.33,2506.48 3284.68,2506.41 C3292.72,2506.41 3299.04,2508.19 3303.65,2511.75 C3308.26,2515.3 3310.56,2520.59 3310.56,2527.61 C3310.56,2534.63 3308.22,2539.94 3303.56,2543.52 C3298.89,2547.11 3292.59,2548.9 3284.68,2548.9 C3276.57,2548.9 3270.23,2545.15 3265.66,2537.63 C3261.08,2530.12 3258.79,2521.2 3258.79,2510.87 C3258.79,2500.6 3261.45,2491.69 3266.77,2484.15 C3272.09,2476.6 3279.08,2472.83 3287.74,2472.83 C3293.43,2472.83 3298.34,2474.27 3302.49,2477.14 C3306.63,2480.02 3308.7,2483.81 3308.7,2488.51 C3308.7,2491.23 3307.71,2493.58 3305.74,2495.56 C3303.76,2497.54 3301.39,2498.53 3298.64,2498.53 C3295.89,2498.53 3293.52,2497.54 3291.54,2495.56 C3289.56,2493.58 3288.57,2491.23 3288.57,2488.51 C3288.57,2485.85 3289.56,2483.5 3291.54,2481.46 C3292.22,2480.65 3293.18,2479.97 3294.42,2479.42 C3294.11,2478.61 3293.49,2477.99 3292.56,2477.56 C3291.2,2476.76 3289.59,2476.36 3287.74,2476.36 M3292.28,2514.3 C3291.17,2511.39 3288.73,2509.94 3284.95,2509.94 C3281.18,2509.94 3278.85,2511.39 3277.95,2514.3 C3277.05,2517.21 3276.6,2521.63 3276.6,2527.57 C3276.6,2534.56 3277.05,2539.26 3277.95,2541.67 C3278.85,2544.08 3281.18,2545.29 3284.95,2545.29 C3288.73,2545.29 3291.17,2543.83 3292.28,2540.93 C3293.4,2538.02 3293.95,2533.58 3293.95,2527.61 C3293.95,2521.64 3293.4,2517.21 3292.28,2514.3"/>
<path class="FiguredBass" d="M3265.1,2578.58 L3269.55,2579.23 C3270.73,2579.41 3272.18,2579.6 3273.91,2579.79 C3278.18,2580.28 3282.29,2580.53 3286.25,2580.53 C3290.21,2580.53 3294.39,2580.28 3298.78,2579.79 C3300.51,2579.6 3302.02,2579.41 3303.32,2579.23 L3307.87,2578.58 C3308.8,2578.58 3309.51,2578.89 3310,2579.51 C3310.37,2580 3310.31,2580.5 3309.82,2580.99 C3300.17,2590.45 3286.84,2595.19 3269.83,2595.19 C3269.15,2595.19 3268.55,2595.43 3268.02,2595.93 C3267.5,2596.42 3267.23,2597.04 3267.23,2597.78 L3267.23,2609.57 C3271.63,2605.24 3276.94,2603.07 3283.19,2603.07 C3291.91,2603.07 3298.72,2605.11 3303.6,2609.2 C3308.92,2605.18 3311.7,2600.04 3311.95,2593.79 C3312.01,2591.82 3312.66,2590.21 3313.9,2588.97 C3315.26,2587.73 3316.9,2587.12 3318.82,2587.12 C3320.73,2587.12 3322.36,2587.76 3323.69,2589.06 C3325.02,2590.36 3325.68,2591.94 3325.68,2593.79 C3325.68,2603.38 3320.02,2610.65 3308.7,2615.6 C3310.56,2619.25 3311.49,2623.7 3311.49,2628.96 C3311.49,2635.94 3308.7,2641.98 3303.14,2647.05 C3297.57,2652.12 3290.92,2654.65 3283.19,2654.65 C3276.51,2654.65 3270.71,2653.14 3265.8,2650.11 C3260.88,2647.08 3258.42,2642.87 3258.42,2637.49 C3258.42,2634.77 3259.41,2632.4 3261.39,2630.39 C3263.37,2628.38 3265.73,2627.38 3268.49,2627.38 C3271.24,2627.38 3273.57,2628.37 3275.49,2630.35 C3277.41,2632.33 3278.37,2634.71 3278.37,2637.49 C3278.37,2638.73 3277.35,2640.07 3275.31,2641.53 C3273.26,2642.98 3272.24,2644.33 3272.24,2645.56 C3272.24,2649.27 3275.89,2651.13 3283.19,2651.13 C3290.3,2651.13 3293.86,2643.74 3293.86,2628.96 C3293.86,2625.68 3293.67,2622.8 3293.3,2620.33 C3285.82,2621.87 3276.45,2623.08 3265.19,2623.95 C3263.65,2624.07 3262.87,2623.3 3262.87,2621.63 C3262.87,2620.27 3263.65,2619.52 3265.19,2619.4 C3276.57,2618.47 3285.54,2616.99 3292.1,2614.95 C3290.37,2610 3287.4,2607.49 3283.19,2607.43 C3276.82,2607.43 3272.37,2608.73 3269.83,2611.33 C3267.3,2613.93 3265.72,2615.23 3265.1,2615.23 C3263.62,2615.23 3262.87,2614.45 3262.87,2612.91 L3262.87,2580.99 C3262.87,2580.37 3263.09,2579.82 3263.52,2579.32 C3264.02,2578.83 3264.54,2578.58 3265.1,2578.58"/>
<path class="FiguredBass" d="M768.74,1801.09 C768.74,1802.08 769.297,1803.04 770.41,1803.97 C771.523,1804.9 772.745,1805.78 774.074,1806.61 C775.404,1807.45 776.626,1809.03 777.739,1811.35 C778.852,1813.67 779.409,1816.59 779.409,1820.11 C779.409,1826.92 776.842,1832.17 771.709,1835.88 C766.575,1839.6 760.081,1841.45 752.226,1841.45 C745.918,1841.45 740.429,1839.87 735.759,1836.72 C731.089,1833.57 728.755,1829.42 728.755,1824.29 C728.755,1821.57 729.744,1819.2 731.723,1817.19 C733.703,1815.18 736.068,1814.18 738.821,1814.18 C741.573,1814.18 743.908,1815.17 745.825,1817.14 C747.742,1819.12 748.701,1821.5 748.701,1824.29 C748.701,1825.52 747.68,1826.87 745.639,1828.32 C743.598,1829.78 742.578,1831.12 742.578,1832.36 C742.578,1834.28 743.521,1835.68 745.407,1836.58 C747.294,1837.48 749.567,1837.93 752.226,1837.93 C755.69,1837.93 758.148,1836.21 759.602,1832.78 C761.055,1829.34 761.782,1825.12 761.782,1820.11 L761.782,1817.7 C761.782,1814.36 761.674,1811.83 761.457,1810.09 C761.241,1808.36 760.56,1806.82 759.416,1805.45 C758.272,1804.09 756.525,1803.41 754.175,1803.41 L742.021,1803.41 C740.599,1803.41 739.887,1802.64 739.887,1801.09 C739.887,1799.67 740.599,1798.96 742.021,1798.96 L754.175,1798.96 C756.71,1798.96 758.689,1798 760.112,1796.08 C760.607,1795.4 761.009,1794.29 761.318,1792.74 C761.627,1790.7 761.782,1787.77 761.782,1783.93 L761.782,1782.73 C761.782,1773.51 758.38,1768.9 751.577,1768.9 C745.578,1768.9 742.578,1770.57 742.578,1773.91 C742.578,1775.03 743.49,1776.22 745.315,1777.48 C747.139,1778.75 748.051,1779.94 748.051,1781.06 C748.051,1783.47 747.201,1785.54 745.5,1787.27 C743.799,1789 741.727,1789.87 739.284,1789.87 C736.841,1789.87 734.785,1789 733.115,1787.27 C731.445,1785.54 730.61,1783.47 730.61,1781.06 C730.61,1776.29 732.682,1772.49 736.826,1769.64 C740.97,1766.8 745.887,1765.38 751.577,1765.38 C759.061,1765.38 765.215,1766.81 770.039,1769.69 C774.863,1772.57 777.275,1776.91 777.275,1782.73 C777.275,1786.87 776.842,1790.09 775.976,1792.37 C775.11,1794.66 774.121,1796.05 773.008,1796.55 C771.894,1797.04 770.905,1797.62 770.039,1798.26 C769.173,1798.91 768.74,1799.86 768.74,1801.09"/>
<path class="FiguredBass" d="M756.865,1874.65 C752.288,1874.65 749.242,1876.49 747.727,1880.17 C746.211,1883.85 745.454,1889.06 745.454,1895.8 L745.454,1906.75 C748.67,1905.45 751.453,1904.77 753.803,1904.71 C761.844,1904.71 768.168,1906.49 772.776,1910.05 C777.383,1913.6 779.687,1918.89 779.687,1925.91 C779.687,1932.93 777.352,1938.23 772.683,1941.82 C768.013,1945.41 761.72,1947.2 753.803,1947.2 C745.701,1947.2 739.362,1943.44 734.785,1935.93 C730.208,1928.41 727.92,1919.49 727.92,1909.16 C727.92,1898.9 730.579,1889.99 735.898,1882.45 C741.217,1874.9 748.206,1871.13 756.865,1871.13 C762.555,1871.13 767.472,1872.56 771.616,1875.44 C775.76,1878.32 777.832,1882.1 777.832,1886.81 C777.832,1889.53 776.842,1891.88 774.863,1893.86 C772.884,1895.84 770.518,1896.83 767.766,1896.83 C765.014,1896.83 762.648,1895.84 760.669,1893.86 C758.689,1891.88 757.7,1889.53 757.7,1886.81 C757.7,1884.15 758.689,1881.8 760.669,1879.75 C761.349,1878.95 762.308,1878.27 763.545,1877.71 C763.235,1876.91 762.617,1876.29 761.689,1875.86 C760.328,1875.05 758.72,1874.65 756.865,1874.65 M761.411,1912.6 C760.298,1909.69 757.855,1908.24 754.082,1908.24 C750.309,1908.24 747.974,1909.69 747.077,1912.6 C746.181,1915.5 745.732,1919.93 745.732,1925.86 C745.732,1932.85 746.181,1937.55 747.077,1939.96 C747.974,1942.38 750.309,1943.58 754.082,1943.58 C757.855,1943.58 760.298,1942.13 761.411,1939.22 C762.524,1936.32 763.081,1931.88 763.081,1925.91 C763.081,1919.94 762.524,1915.5 761.411,1912.6"/>
<path class="FiguredBass" d="M756.216,1978.83 C758.566,1978.83 761.04,1978.48 763.637,1977.8 L767.812,1976.69 C768.616,1976.69 769.25,1977 769.714,1977.62 C770.178,1978.24 770.132,1978.79 769.575,1979.29 L726.435,2029.48 L751.762,2029.48 L751.762,2009.63 C751.762,2008.2 752.149,2007.11 752.922,2006.33 C753.695,2005.56 754.685,2004.94 755.891,2004.48 C757.097,2004.01 758.674,2002.64 760.622,2000.35 C762.571,1998.06 764.441,1994.97 766.235,1991.07 C766.544,1990.45 767.008,1990.14 767.627,1990.14 C768.925,1990.14 769.575,1990.85 769.575,1992.28 L769.575,2029.48 L780.522,2029.48 C782.068,2029.48 782.841,2030.19 782.841,2031.61 C782.841,2033.16 782.068,2033.93 780.522,2033.93 L769.575,2033.93 L769.575,2035.14 C769.575,2038.97 770.595,2042.31 772.636,2045.16 C774.677,2048 777.306,2049.43 780.522,2049.43 C781.759,2049.43 782.378,2049.98 782.378,2051.1 C782.378,2052.33 781.759,2052.95 780.522,2052.95 C778.296,2052.95 774.987,2052.63 770.595,2051.98 C766.204,2051.33 762.88,2051 760.622,2051 C758.365,2051 755.04,2051.33 750.649,2051.98 C746.258,2052.63 742.949,2052.95 740.722,2052.95 C739.485,2052.95 738.867,2052.33 738.867,2051.1 C738.867,2049.98 739.485,2049.43 740.722,2049.43 C743.939,2049.43 746.583,2048 748.654,2045.16 C750.726,2042.31 751.762,2038.97 751.762,2035.14 L751.762,2033.93 L726.435,2033.93 C724.827,2033.93 723.637,2033.55 722.863,2032.77 C722.09,2032 721.704,2031.21 721.704,2030.41 C721.704,2030.1 722.431,2029.03 723.884,2027.21 C725.337,2025.38 727.116,2022.95 729.218,2019.92 C731.321,2016.89 733.409,2013.45 735.481,2009.58 C737.553,2005.71 739.315,2001.08 740.769,1995.66 C742.222,1990.25 742.949,1984.79 742.949,1979.29 C742.949,1977.68 743.629,1976.88 744.99,1976.88 C745.175,1976.88 745.825,1977.03 746.938,1977.34 C748.051,1977.65 749.474,1977.97 751.206,1978.31 C752.938,1978.65 754.607,1978.83 756.216,1978.83"/>
<path class="FiguredBass" d="M2735.91,1841.45 C2729.91,1841.45 2725.55,1839.78 2722.83,1836.44 C2721.84,1835.2 2720.57,1834.06 2719.03,1833.01 C2717.48,1831.96 2715.78,1831.43 2713.92,1831.43 C2711.51,1831.43 2709.35,1832.19 2707.43,1833.7 C2705.51,1835.22 2704.55,1837.25 2704.55,1839.78 C2704.55,1840.89 2704,1841.45 2702.88,1841.45 C2701.65,1841.45 2701.03,1840.89 2701.03,1839.78 C2701.03,1836.01 2701.91,1832.56 2703.67,1829.44 C2705.43,1826.31 2707.65,1823.68 2710.31,1821.55 C2712.96,1819.42 2715.84,1817.13 2718.93,1814.69 C2722.03,1812.24 2724.89,1809.88 2727.51,1807.59 C2730.14,1805.3 2732.34,1802.41 2734.1,1798.91 C2735.86,1795.42 2736.75,1791.6 2736.75,1787.46 C2736.75,1782.26 2735.9,1777.87 2734.19,1774.28 C2732.49,1770.7 2729.82,1768.9 2726.17,1768.9 C2724.07,1768.9 2722.24,1769.41 2720.7,1770.43 C2719.15,1771.45 2718.38,1772.8 2718.38,1774.47 C2718.38,1775.77 2719.26,1777.47 2721.02,1779.57 C2722.78,1781.67 2723.66,1783.44 2723.66,1784.86 C2723.66,1787.83 2722.66,1790.32 2720.65,1792.33 C2718.64,1794.34 2716.21,1795.34 2713.37,1795.34 C2710.4,1795.34 2707.91,1794.31 2705.9,1792.23 C2703.89,1790.16 2702.88,1787.7 2702.88,1784.86 C2702.88,1779.17 2705.16,1774.5 2709.7,1770.85 C2714.25,1767.2 2719.74,1765.38 2726.17,1765.38 C2733.78,1765.38 2740.41,1767.43 2746.07,1771.55 C2751.73,1775.66 2754.56,1780.96 2754.56,1787.46 C2754.56,1791.85 2753.77,1795.65 2752.19,1798.87 C2750.62,1802.08 2748.36,1804.68 2745.42,1806.66 C2742.48,1808.64 2739.54,1810.33 2736.61,1811.72 C2733.67,1813.11 2730.22,1814.61 2726.26,1816.22 C2722.3,1817.82 2719.12,1819.4 2716.71,1820.95 C2718.01,1820.64 2719.33,1820.48 2720.7,1820.48 C2725.27,1820.48 2730.03,1821.97 2734.98,1824.94 C2739.93,1827.91 2743.83,1829.39 2746.67,1829.39 C2748.28,1829.39 2749.59,1829.1 2750.62,1828.51 C2751.64,1827.92 2752.3,1827.27 2752.61,1826.56 C2752.92,1825.85 2753.27,1825.18 2753.68,1824.57 C2754.08,1823.95 2754.53,1823.64 2755.02,1823.64 C2756.26,1823.64 2756.88,1824.26 2756.88,1825.49 C2756.88,1828.15 2754.96,1831.48 2751.13,1835.47 C2747.29,1839.46 2742.22,1841.45 2735.91,1841.45"/>
<path class="FiguredBass" d="M2731.74,1874.65 C2727.16,1874.65 2724.11,1876.49 2722.6,1880.17 C2721.08,1883.85 2720.32,1889.06 2720.32,1895.8 L2720.32,1906.75 C2723.54,1905.45 2726.32,1904.77 2728.67,1904.71 C2736.71,1904.71 2743.04,1906.49 2747.65,1910.05 C2752.25,1913.6 2754.56,1918.89 2754.56,1925.91 C2754.56,1932.93 2752.22,1938.23 2747.55,1941.82 C2742.88,1945.41 2736.59,1947.2 2728.67,1947.2 C2720.57,1947.2 2714.23,1943.44 2709.66,1935.93 C2705.08,1928.41 2702.79,1919.49 2702.79,1909.16 C2702.79,1898.9 2705.45,1889.99 2710.77,1882.45 C2716.09,1874.9 2723.08,1871.13 2731.74,1871.13 C2737.43,1871.13 2742.34,1872.56 2746.49,1875.44 C2750.63,1878.32 2752.7,1882.1 2752.7,1886.81 C2752.7,1889.53 2751.71,1891.88 2749.73,1893.86 C2747.75,1895.84 2745.39,1896.83 2742.64,1896.83 C2739.88,1896.83 2737.52,1895.84 2735.54,1893.86 C2733.56,1891.88 2732.57,1889.53 2732.57,1886.81 C2732.57,1884.15 2733.56,1881.8 2735.54,1879.75 C2736.22,1878.95 2737.18,1878.27 2738.42,1877.71 C2738.11,1876.91 2737.49,1876.29 2736.56,1875.86 C2735.2,1875.05 2733.59,1874.65 2731.74,1874.65 M2736.28,1912.6 C2735.17,1909.69 2732.73,1908.24 2728.95,1908.24 C2725.18,1908.24 2722.84,1909.69 2721.95,1912.6 C2721.05,1915.5 2720.6,1919.93 2720.6,1925.86 C2720.6,1932.85 2721.05,1937.55 2721.95,1939.96 C2722.84,1942.38 2725.18,1943.58 2728.95,1943.58 C2732.73,1943.58 2735.17,1942.13 2736.28,1939.22 C2737.39,1936.32 2737.95,1931.88 2737.95,1925.91 C2737.95,1919.94 2737.39,1915.5 2736.28,1912.6"/>
<path class="FiguredBass" d="M2731.09,1978.83 C2733.44,1978.83 2735.91,1978.48 2738.51,1977.8 L2742.68,1976.69 C2743.49,1976.69 2744.12,1977 2744.58,1977.62 C2745.05,1978.24 2745,1978.79 2744.45,1979.29 L2701.31,2029.48 L2726.63,2029.48 L2726.63,2009.63 C2726.63,2008.2 2727.02,2007.11 2727.79,2006.33 C2728.57,2005.56 2729.56,2004.94 2730.76,2004.48 C2731.97,2004.01 2733.54,2002.64 2735.49,2000.35 C2737.44,1998.06 2739.31,1994.97 2741.11,1991.07 C2741.42,1990.45 2741.88,1990.14 2742.5,1990.14 C2743.8,1990.14 2744.45,1990.85 2744.45,1992.28 L2744.45,2029.48 L2755.39,2029.48 C2756.94,2029.48 2757.71,2030.19 2757.71,2031.61 C2757.71,2033.16 2756.94,2033.93 2755.39,2033.93 L2744.45,2033.93 L2744.45,2035.14 C2744.45,2038.97 2745.47,2042.31 2747.51,2045.16 C2749.55,2048 2752.18,2049.43 2755.39,2049.43 C2756.63,2049.43 2757.25,2049.98 2757.25,2051.1 C2757.25,2052.33 2756.63,2052.95 2755.39,2052.95 C2753.17,2052.95 2749.86,2052.63 2745.47,2051.98 C2741.07,2051.33 2737.75,2051 2735.49,2051 C2733.24,2051 2729.91,2051.33 2725.52,2051.98 C2721.13,2052.63 2717.82,2052.95 2715.59,2052.95 C2714.36,2052.95 2713.74,2052.33 2713.74,2051.1 C2713.74,2049.98 2714.36,2049.43 2715.59,2049.43 C2718.81,2049.43 2721.45,2048 2723.53,2045.16 C2725.6,2042.31 2726.63,2038.97 2726.63,2035.14 L2726.63,2033.93 L2701.31,2033.93 C2699.7,2033.93 2698.51,2033.55 2697.73,2032.77 C2696.96,2032 2696.57,2031.21 2696.57,2030.41 C2696.57,2030.1 2697.3,2029.03 2698.75,2027.21 C2700.21,2025.38 2701.99,2022.95 2704.09,2019.92 C2706.19,2016.89 2708.28,2013.45 2710.35,2009.58 C2712.42,2005.71 2714.19,2001.08 2715.64,1995.66 C2717.09,1990.25 2717.82,1984.79 2717.82,1979.29 C2717.82,1977.68 2718.5,1976.88 2719.86,1976.88 C2720.05,1976.88 2720.7,1977.03 2721.81,1977.34 C2722.92,1977.65 2724.34,1977.97 2726.08,1978.31 C2727.81,1978.65 2729.48,1978.83 2731.09,1978.83"/>
<polyline class="FretDiagram" stroke="#0000ff" stroke-width="4.76" stroke-linejoin="bevel" points="653.246,206.022 866.354,206.022"/>
<polyline class="FretDiagram" stroke="#0000ff" stroke-width="4.76" stroke-linejoin="bevel" points="655.627,194.117 655.627,420.321"/>
<polyline class="FretDiagram" stroke="#0000ff" stroke-width="4.76" stroke-linejoin="bevel" points="697.296,194.117 697.296,420.321"/>
<polyline class="FretDiagram" stroke="#0000ff" stroke-width="4.76" stroke-linejoin="bevel" points="738.965,194.117 738.965,420.321"/>
<polyline class="FretDiagram" stroke="#0000ff" stroke-width="4.76" stroke-linejoin="bevel" points="780.635,194.117 780.635,420.321"/>
<polyline class="FretDiagram" stroke="#0000ff" stroke-width="4.76" stroke-linejoin="bevel" points="822.304,194.117 822.304,420.321"/>
<polyline class="FretDiagram" stroke="#0000ff" stroke-width="4.76" stroke-linejoin="bevel" points="863.973,194.117 863.973,420.321"/>
<polyline class="FretDiagram" stroke="#0000ff" stroke-width="4.76" stroke-linejoin="bevel" points="655.627,253.644 863.973,253.644"/>
<polyline class="FretDiagram" stroke="#0000ff" stroke-width="4.76" stroke-linejoin="bevel" points="655.627,301.266 863.973,301.266"/>
<polyline class="FretDiagram" stroke="#0000ff" stroke-width="4.76" stroke-linejoin="bevel" points="655.627,348.888 863.973,348.888"/>
<polyline class="FretDiagram" stroke="#0000ff" stroke-width="4.76" stroke-linejoin="bevel" points="655.627,396.51 863.973,396.51"/>
<path class="FretDiagram" fill="#0000ff" fill-rule="evenodd" d="M753.55,325.077 C753.55,333.132 747.02,339.661 738.965,339.661 C730.911,339.661 724.381,333.132 724.381,325.077 C724.381,317.023 730.911,310.493 738.965,310.493 C747.02,310.493 753.55,317.023 753.55,325.077"/>
<path class="FretDiagram" fill="#0000ff" fill-rule="evenodd" d="M795.219,277.455 C795.219,285.51 788.689,292.039 780.635,292.039 C772.58,292.039 766.05,285.51 766.05,277.455 C766.05,269.401 772.58,262.871 780.635,262.871 C788.689,262.871 795.219,269.401 795.219,277.455"/>
<path class="FretDiagram" fill="#0000ff" fill-rule="evenodd" d="M836.888,325.077 C836.888,333.132 830.359,339.661 822.304,339.661 C814.249,339.661 807.72,333.132 807.72,325.077 C807.72,317.023 814.249,310.493 822.304,310.493 C830.359,310.493 836.888,317.023 836.888,325.077"/>
<path class="FretDiagram" fill="none" stroke="#0000ff" stroke-width="6.86" stroke-linecap="round" stroke-linejoin="bevel" fill-rule="evenodd" d="M672.294,158.4 C672.294,167.605 664.832,175.068 655.627,175.068 C646.421,175.068 638.959,167.605 638.959,158.4 C638.959,149.195 646.421,141.732 655.627,141.732 C664.832,141.732 672.294,149.195 672.294,158.4"/>
<path class="FretDiagram" fill="none" stroke="#0000ff" stroke-width="6.86" stroke-linecap="round" stroke-linejoin="bevel" fill-rule="evenodd" d="M713.964,158.4 C713.964,167.605 706.501,175.068 697.296,175.068 C688.091,175.068 680.628,167.605 680.628,158.4 C680.628,149.195 688.091,141.732 697.296,141.732 C706.501,141.732 713.964,149.195 713.964,158.4"/>
<path class="FretDiagram" fill="none" stroke="#0000ff" stroke-width="6.86" stroke-linecap="round" stroke-linejoin="bevel" fill-rule="evenodd" d="M880.641,158.4 C880.641,167.605 873.179,175.068 863.973,175.068 C854.768,175.068 847.306,167.605 847.306,158.4 C847.306,149.195 854.768,141.732 863.973,141.732 C873.179,141.732 880.641,149.195 880.641,158.4"/>
<polyline class="FretDiagram" fill="none" stroke="#0000ff" stroke-width="29.17" stroke-linecap="round" stroke-linejoin="bevel" points="655.627,229.833 863.973,229.833"/>
<path class="FretDiagram" fill="#0000ff" d="M635.558,195.73 L635.558,202.76 C627.958,212.893 621.957,222.789 617.556,232.447 C613.154,242.105 610.035,252.318 608.198,263.085 L599.268,263.085 C601.801,252.001 605.031,242.248 608.958,233.825 C612.885,225.401 618.87,215.458 626.913,203.995 L590.528,203.995 L590.528,195.73 L635.558,195.73 "/>
<path class="Bracket" transform="matrix(8.6315,0,0,9.45563,76.1283,2341.17)" d="M0.92002,-50 C2.69004,-51.88 6.2,-55.8 6.2,-63 C6.2,-72.1 2.25996,-81.32 2.25996,-86.97 C2.25996,-93.06 5.84004,-98.84 5.95,-99 C6.05996,-99.16 6.05,-99.39 5.94004,-99.46 C5.82998,-99.53 5.62002,-99.47 5.49004,-99.32 C5.35996,-99.17 0,-93.75 0,-85.6 C0,-76.75 3.5,-70.58 3.5,-59.07 C3.5,-56.89 2.55996,-53.36 0.1,-50.33 C-0.0799805,-50.17 -0.1,-49.89 0.0599609,-49.7 L0.0700195,-49.69 L0.1,-49.66 C2.55996,-46.63 3.5,-43.1 3.5,-40.92 C3.5,-29.4 0,-23.24 0,-14.39 C0,-6.25 5.35996,-0.8 5.49004,-0.659961 C5.62002,-0.52002 5.8,-0.42998 5.94004,-0.52002 C6.07998,-0.609961 6.07998,-0.77998 5.95,-0.97998 C5.82002,-1.17998 2.25996,-6.92002 2.25996,-13.01 C2.25996,-18.66 6.2,-27.9 6.2,-37 C6.2,-44.3 2.69004,-48.12 0.92002,-50"/>
</svg>
