<?xml version="1.0" encoding="UTF-8" standalone="no"?>
<svg width="4209.44px" height="2976.38px" viewBox="0 0 4209.44 2976.38"
 xmlns="http://www.w3.org/2000/svg" xmlns:xlink="http://www.w3.org/1999/xlink" version="1.2" baseProfile="tiny">
<title>SolMajeur (17)</title>
<desc>Generated by MuseScore 3.6.2</desc>
<polyline class="StaffLines" fill="none" stroke="#000000" stroke-width="6.55" stroke-linejoin="bevel" points="153.819,558.425 4138.58,558.425"/>
<polyline class="StaffLines" fill="none" stroke="#000000" stroke-width="6.55" stroke-linejoin="bevel" points="153.819,647.717 4138.58,647.717"/>
<polyline class="StaffLines" fill="none" stroke="#000000" stroke-width="6.55" stroke-linejoin="bevel" points="153.819,737.008 4138.58,737.008"/>
<polyline class="StaffLines" fill="none" stroke="#000000" stroke-width="6.55" stroke-linejoin="bevel" points="153.819,826.299 4138.58,826.299"/>
<polyline class="StaffLines" fill="none" stroke="#000000" stroke-width="6.55" stroke-linejoin="bevel" points="153.819,915.591 4138.58,915.591"/>
<polyline class="StaffLines" fill="none" stroke="#000000" stroke-width="6.55" stroke-linejoin="bevel" points="153.819,1004.88 4138.58,1004.88"/>
<polyline class="StaffLines" fill="none" stroke="#000000" stroke-width="6.55" stroke-linejoin="bevel" points="153.819,1391.81 4138.58,1391.81"/>
<polyline class="StaffLines" fill="none" stroke="#000000" stroke-width="6.55" stroke-linejoin="bevel" points="153.819,1451.34 4138.58,1451.34"/>
<polyline class="StaffLines" fill="none" stroke="#000000" stroke-width="6.55" stroke-linejoin="bevel" points="153.819,1510.87 4138.58,1510.87"/>
<polyline class="StaffLines" fill="none" stroke="#000000" stroke-width="6.55" stroke-linejoin="bevel" points="153.819,1570.39 4138.58,1570.39"/>
<polyline class="StaffLines" fill="none" stroke="#000000" stroke-width="6.55" stroke-linejoin="bevel" points="153.819,1629.92 4138.58,1629.92"/>
<polyline class="StaffLines" fill="none" stroke="#000000" stroke-width="6.55" stroke-linejoin="bevel" points="153.819,2101.65 4138.58,2101.65"/>
<polyline class="StaffLines" fill="none" stroke="#000000" stroke-width="6.55" stroke-linejoin="bevel" points="153.819,2161.17 4138.58,2161.17"/>
<polyline class="StaffLines" fill="none" stroke="#000000" stroke-width="6.55" stroke-linejoin="bevel" points="153.819,2220.7 4138.58,2220.7"/>
<polyline class="StaffLines" fill="none" stroke="#000000" stroke-width="6.55" stroke-linejoin="bevel" points="153.819,2280.23 4138.58,2280.23"/>
<polyline class="StaffLines" fill="none" stroke="#000000" stroke-width="6.55" stroke-linejoin="bevel" points="153.819,2339.76 4138.58,2339.76"/>
<polyline class="BarLine" fill="none" stroke="#000000" stroke-width="10.71" stroke-linejoin="bevel" points="159.176,2098.37 159.176,2343.03"/>
<polyline class="BarLine" fill="none" stroke="#000000" stroke-width="10.71" stroke-linejoin="bevel" points="1199.13,2098.37 1199.13,2343.03"/>
<polyline class="BarLine" fill="none" stroke="#000000" stroke-width="10.71" stroke-linejoin="bevel" points="1706.1,2098.37 1706.1,2343.03"/>
<polyline class="BarLine" fill="none" stroke="#000000" stroke-width="10.71" stroke-linejoin="bevel" points="2158.74,2098.37 2158.74,2343.03"/>
<polyline class="BarLine" fill="none" stroke="#000000" stroke-width="10.71" stroke-linejoin="bevel" points="2191.48,2098.37 2191.48,2343.03"/>
<polyline class="BarLine" fill="none" stroke="#000000" stroke-width="10.71" stroke-linejoin="bevel" points="2669.85,2098.37 2669.85,2343.03"/>
<polyline class="BarLine" fill="none" stroke="#000000" stroke-width="10.71" stroke-linejoin="bevel" points="3148.21,2098.37 3148.21,2343.03"/>
<polyline class="BarLine" fill="none" stroke="#000000" stroke-width="10.71" stroke-linejoin="bevel" points="3627.89,2098.37 3627.89,2343.03"/>
<polyline class="BarLine" fill="none" stroke="#000000" stroke-width="10.71" stroke-linejoin="bevel" points="4080.54,2098.37 4080.54,2343.03"/>
<polyline class="BarLine" fill="none" stroke="#000000" stroke-width="32.74" stroke-linejoin="bevel" points="4122.21,2098.37 4122.21,2343.03"/>
<polyline class="BarLine" fill="none" stroke="#000000" stroke-width="10.71" stroke-linejoin="bevel" points="159.176,1388.54 159.176,2101.65"/>
<polyline class="BarLine" fill="none" stroke="#000000" stroke-width="10.71" stroke-linejoin="bevel" points="1199.13,1388.54 1199.13,1633.2"/>
<polyline class="BarLine" fill="none" stroke="#000000" stroke-width="10.71" stroke-linejoin="bevel" points="1706.1,1388.54 1706.1,1633.2"/>
<polyline class="BarLine" fill="none" stroke="#000000" stroke-width="10.71" stroke-linejoin="bevel" points="2158.74,1388.54 2158.74,1633.2"/>
<polyline class="BarLine" fill="none" stroke="#000000" stroke-width="10.71" stroke-linejoin="bevel" points="2191.48,1388.54 2191.48,1633.2"/>
<polyline class="BarLine" fill="none" stroke="#000000" stroke-width="10.71" stroke-linejoin="bevel" points="2669.85,1388.54 2669.85,1633.2"/>
<polyline class="BarLine" fill="none" stroke="#000000" stroke-width="10.71" stroke-linejoin="bevel" points="3148.21,1388.54 3148.21,1633.2"/>
<polyline class="BarLine" fill="none" stroke="#000000" stroke-width="10.71" stroke-linejoin="bevel" points="3627.89,1388.54 3627.89,1633.2"/>
<polyline class="BarLine" fill="none" stroke="#000000" stroke-width="10.71" stroke-linejoin="bevel" points="4080.54,1388.54 4080.54,1633.2"/>
<polyline class="BarLine" fill="none" stroke="#000000" stroke-width="32.74" stroke-linejoin="bevel" points="4122.21,1388.54 4122.21,1633.2"/>
<polyline class="BarLine" fill="none" stroke="#000000" stroke-width="10.71" stroke-linejoin="bevel" points="159.176,555.151 159.176,1391.81"/>
<polyline class="BarLine" fill="none" stroke="#000000" stroke-width="10.71" stroke-linejoin="bevel" points="1199.13,555.151 1199.13,1008.16"/>
<polyline class="BarLine" fill="none" stroke="#000000" stroke-width="10.71" stroke-linejoin="bevel" points="1706.1,555.151 1706.1,1008.16"/>
<polyline class="BarLine" fill="none" stroke="#000000" stroke-width="10.71" stroke-linejoin="bevel" points="2158.74,555.151 2158.74,1008.16"/>
<polyline class="BarLine" fill="none" stroke="#000000" stroke-width="10.71" stroke-linejoin="bevel" points="2191.48,555.151 2191.48,1008.16"/>
<polyline class="BarLine" fill="none" stroke="#000000" stroke-width="10.71" stroke-linejoin="bevel" points="2669.85,555.151 2669.85,1008.16"/>
<polyline class="BarLine" fill="none" stroke="#000000" stroke-width="10.71" stroke-linejoin="bevel" points="3148.21,555.151 3148.21,1008.16"/>
<polyline class="BarLine" fill="none" stroke="#000000" stroke-width="10.71" stroke-linejoin="bevel" points="3627.89,555.151 3627.89,1008.16"/>
<polyline class="BarLine" fill="none" stroke="#000000" stroke-width="10.71" stroke-linejoin="bevel" points="4080.54,555.151 4080.54,1008.16"/>
<polyline class="BarLine" fill="none" stroke="#000000" stroke-width="32.74" stroke-linejoin="bevel" points="4122.21,555.151 4122.21,1008.16"/>
<path class="Accidental" transform="matrix(2.3811,0,0,2.3811,636.699,1689.45)" d="M23.3,-10.6 C23.9,-10.7 24.4,-11.4 24.4,-12 L24.4,-17.9 C24.4,-18.7 23.8,-19.3 23,-19.3 L22.8,-19.3 L19.5,-18.6 L19.5,-33.5 L16.7,-33.5 L16.7,-18 L7.8,-16.2 L7.8,-30.3 L5,-30.3 L5,-15.6 L1.1,-14.8 C0.5,-14.7 0,-14 0,-13.4 L0,-13.2 L0,-7.4 L0,-7.6 C0,-6.8 0.6,-6.2 1.4,-6.2 L1.7,-6.2 L5,-6.9 L5,9.6 L1.1,10.4 C0.5,10.5 0,11.2 0,11.8 L0,17.6 C0,18.4 0.6,19 1.4,19 L1.7,19 L5,18.3 L5,33.2 L7.8,33.2 L7.8,17.7 L16.7,15.9 L16.7,30 L19.5,30 L19.5,15.3 L23.3,14.6 C23.9,14.5 24.4,13.8 24.4,13.2 L24.4,7.3 C24.4,6.5 23.8,5.9 23,5.9 L22.8,5.9 L19.5,6.6 L19.5,-9.9 L23.3,-10.6 M7.8,9.1 L7.8,-7.5 L16.7,-9.3 L16.7,7.2 L7.8,9.1 "/>
<polyline class="LedgerLine" fill="none" stroke="#000000" stroke-width="9.52" stroke-linejoin="bevel" points="709.676,2399.28 840.153,2399.28"/>
<polyline class="LedgerLine" fill="none" stroke="#000000" stroke-width="9.52" stroke-linejoin="bevel" points="1282.34,2399.28 1412.82,2399.28"/>
<polyline class="LedgerLine" fill="none" stroke="#000000" stroke-width="9.52" stroke-linejoin="bevel" points="709.676,1689.45 840.153,1689.45"/>
<path class="Note" transform="matrix(2.3811,0,0,2.3811,730.511,2399.28)" d="M18.7,-13.6 C4.9,-13.6 0,-6.6 0,-0.1 C0,6.4 4.9,13.4 18.7,13.4 C32.5,13.4 37.3,6.4 37.3,-0.1 C37.3,-6.6 32.5,-13.6 18.7,-13.6 M10.4,-4.5 C10.3,-4.9 10.3,-5.3 10.3,-5.7 C10.3,-6.5 10.5,-7.3 10.9,-8 C11.6,-9 12.8,-9.7 14.3,-10 C15.6,-10.3 16.3,-10.5 18.9,-10.5 L19,-10.5 C23,-10.5 24.3,-6.8 25.4,-3 L25.7,-2 C26.5,0.6 26.9,2.8 26.9,4.5 C26.9,5.7 26.7,6.8 26.3,7.6 C25.7,8.7 24.7,9.4 23,9.8 C22.1,10 20.6,10.1 20.6,10.1 C20.1,10.1 19.7,10.2 19.3,10.2 C16.1,10.2 14.1,9 12.7,4.7 C11.5,1 11.3,-0.1 10.4,-4.5"/>
<path class="Note" transform="matrix(2.3811,0,0,2.3811,1303.18,2429.05)" d="M18.7,-13.6 C4.9,-13.6 0,-6.6 0,-0.1 C0,6.4 4.9,13.4 18.7,13.4 C32.5,13.4 37.3,6.4 37.3,-0.1 C37.3,-6.6 32.5,-13.6 18.7,-13.6 M10.4,-4.5 C10.3,-4.9 10.3,-5.3 10.3,-5.7 C10.3,-6.5 10.5,-7.3 10.9,-8 C11.6,-9 12.8,-9.7 14.3,-10 C15.6,-10.3 16.3,-10.5 18.9,-10.5 L19,-10.5 C23,-10.5 24.3,-6.8 25.4,-3 L25.7,-2 C26.5,0.6 26.9,2.8 26.9,4.5 C26.9,5.7 26.7,6.8 26.3,7.6 C25.7,8.7 24.7,9.4 23,9.8 C22.1,10 20.6,10.1 20.6,10.1 C20.1,10.1 19.7,10.2 19.3,10.2 C16.1,10.2 14.1,9 12.7,4.7 C11.5,1 11.3,-0.1 10.4,-4.5"/>
<path class="Note" transform="matrix(2.3811,0,0,2.3811,1788.84,2339.76)" d="M18.7,-13.6 C4.9,-13.6 0,-6.6 0,-0.1 C0,6.4 4.9,13.4 18.7,13.4 C32.5,13.4 37.3,6.4 37.3,-0.1 C37.3,-6.6 32.5,-13.6 18.7,-13.6 M10.4,-4.5 C10.3,-4.9 10.3,-5.3 10.3,-5.7 C10.3,-6.5 10.5,-7.3 10.9,-8 C11.6,-9 12.8,-9.7 14.3,-10 C15.6,-10.3 16.3,-10.5 18.9,-10.5 L19,-10.5 C23,-10.5 24.3,-6.8 25.4,-3 L25.7,-2 C26.5,0.6 26.9,2.8 26.9,4.5 C26.9,5.7 26.7,6.8 26.3,7.6 C25.7,8.7 24.7,9.4 23,9.8 C22.1,10 20.6,10.1 20.6,10.1 C20.1,10.1 19.7,10.2 19.3,10.2 C16.1,10.2 14.1,9 12.7,4.7 C11.5,1 11.3,-0.1 10.4,-4.5"/>
<path class="Note" transform="matrix(2.3811,0,0,2.3811,2274.23,2339.76)" d="M18.7,-13.6 C4.9,-13.6 0,-6.6 0,-0.1 C0,6.4 4.9,13.4 18.7,13.4 C32.5,13.4 37.3,6.4 37.3,-0.1 C37.3,-6.6 32.5,-13.6 18.7,-13.6 M10.4,-4.5 C10.3,-4.9 10.3,-5.3 10.3,-5.7 C10.3,-6.5 10.5,-7.3 10.9,-8 C11.6,-9 12.8,-9.7 14.3,-10 C15.6,-10.3 16.3,-10.5 18.9,-10.5 L19,-10.5 C23,-10.5 24.3,-6.8 25.4,-3 L25.7,-2 C26.5,0.6 26.9,2.8 26.9,4.5 C26.9,5.7 26.7,6.8 26.3,7.6 C25.7,8.7 24.7,9.4 23,9.8 C22.1,10 20.6,10.1 20.6,10.1 C20.1,10.1 19.7,10.2 19.3,10.2 C16.1,10.2 14.1,9 12.7,4.7 C11.5,1 11.3,-0.1 10.4,-4.5"/>
<path class="Note" transform="matrix(2.3811,0,0,2.3811,2752.59,2339.76)" d="M18.7,-13.6 C4.9,-13.6 0,-6.6 0,-0.1 C0,6.4 4.9,13.4 18.7,13.4 C32.5,13.4 37.3,6.4 37.3,-0.1 C37.3,-6.6 32.5,-13.6 18.7,-13.6 M10.4,-4.5 C10.3,-4.9 10.3,-5.3 10.3,-5.7 C10.3,-6.5 10.5,-7.3 10.9,-8 C11.6,-9 12.8,-9.7 14.3,-10 C15.6,-10.3 16.3,-10.5 18.9,-10.5 L19,-10.5 C23,-10.5 24.3,-6.8 25.4,-3 L25.7,-2 C26.5,0.6 26.9,2.8 26.9,4.5 C26.9,5.7 26.7,6.8 26.3,7.6 C25.7,8.7 24.7,9.4 23,9.8 C22.1,10 20.6,10.1 20.6,10.1 C20.1,10.1 19.7,10.2 19.3,10.2 C16.1,10.2 14.1,9 12.7,4.7 C11.5,1 11.3,-0.1 10.4,-4.5"/>
<path class="Note" transform="matrix(2.3811,0,0,2.3811,3231.34,2369.52)" d="M18.7,-13.6 C4.9,-13.6 0,-6.6 0,-0.1 C0,6.4 4.9,13.4 18.7,13.4 C32.5,13.4 37.3,6.4 37.3,-0.1 C37.3,-6.6 32.5,-13.6 18.7,-13.6 M10.4,-4.5 C10.3,-4.9 10.3,-5.3 10.3,-5.7 C10.3,-6.5 10.5,-7.3 10.9,-8 C11.6,-9 12.8,-9.7 14.3,-10 C15.6,-10.3 16.3,-10.5 18.9,-10.5 L19,-10.5 C23,-10.5 24.3,-6.8 25.4,-3 L25.7,-2 C26.5,0.6 26.9,2.8 26.9,4.5 C26.9,5.7 26.7,6.8 26.3,7.6 C25.7,8.7 24.7,9.4 23,9.8 C22.1,10 20.6,10.1 20.6,10.1 C20.1,10.1 19.7,10.2 19.3,10.2 C16.1,10.2 14.1,9 12.7,4.7 C11.5,1 11.3,-0.1 10.4,-4.5"/>
<path class="Note" transform="matrix(2.3811,0,0,2.3811,3710.64,2339.76)" d="M18.7,-13.6 C4.9,-13.6 0,-6.6 0,-0.1 C0,6.4 4.9,13.4 18.7,13.4 C32.5,13.4 37.3,6.4 37.3,-0.1 C37.3,-6.6 32.5,-13.6 18.7,-13.6 M10.4,-4.5 C10.3,-4.9 10.3,-5.3 10.3,-5.7 C10.3,-6.5 10.5,-7.3 10.9,-8 C11.6,-9 12.8,-9.7 14.3,-10 C15.6,-10.3 16.3,-10.5 18.9,-10.5 L19,-10.5 C23,-10.5 24.3,-6.8 25.4,-3 L25.7,-2 C26.5,0.6 26.9,2.8 26.9,4.5 C26.9,5.7 26.7,6.8 26.3,7.6 C25.7,8.7 24.7,9.4 23,9.8 C22.1,10 20.6,10.1 20.6,10.1 C20.1,10.1 19.7,10.2 19.3,10.2 C16.1,10.2 14.1,9 12.7,4.7 C11.5,1 11.3,-0.1 10.4,-4.5"/>
<path class="Note" transform="matrix(2.3811,0,0,2.3811,730.511,1689.45)" d="M18.7,-13.6 C4.9,-13.6 0,-6.6 0,-0.1 C0,6.4 4.9,13.4 18.7,13.4 C32.5,13.4 37.3,6.4 37.3,-0.1 C37.3,-6.6 32.5,-13.6 18.7,-13.6 M10.4,-4.5 C10.3,-4.9 10.3,-5.3 10.3,-5.7 C10.3,-6.5 10.5,-7.3 10.9,-8 C11.6,-9 12.8,-9.7 14.3,-10 C15.6,-10.3 16.3,-10.5 18.9,-10.5 L19,-10.5 C23,-10.5 24.3,-6.8 25.4,-3 L25.7,-2 C26.5,0.6 26.9,2.8 26.9,4.5 C26.9,5.7 26.7,6.8 26.3,7.6 C25.7,8.7 24.7,9.4 23,9.8 C22.1,10 20.6,10.1 20.6,10.1 C20.1,10.1 19.7,10.2 19.3,10.2 C16.1,10.2 14.1,9 12.7,4.7 C11.5,1 11.3,-0.1 10.4,-4.5"/>
<path class="Note" transform="matrix(2.3811,0,0,2.3811,730.511,1570.39)" d="M18.7,-13.6 C4.9,-13.6 0,-6.6 0,-0.1 C0,6.4 4.9,13.4 18.7,13.4 C32.5,13.4 37.3,6.4 37.3,-0.1 C37.3,-6.6 32.5,-13.6 18.7,-13.6 M10.4,-4.5 C10.3,-4.9 10.3,-5.3 10.3,-5.7 C10.3,-6.5 10.5,-7.3 10.9,-8 C11.6,-9 12.8,-9.7 14.3,-10 C15.6,-10.3 16.3,-10.5 18.9,-10.5 L19,-10.5 C23,-10.5 24.3,-6.8 25.4,-3 L25.7,-2 C26.5,0.6 26.9,2.8 26.9,4.5 C26.9,5.7 26.7,6.8 26.3,7.6 C25.7,8.7 24.7,9.4 23,9.8 C22.1,10 20.6,10.1 20.6,10.1 C20.1,10.1 19.7,10.2 19.3,10.2 C16.1,10.2 14.1,9 12.7,4.7 C11.5,1 11.3,-0.1 10.4,-4.5"/>
<path class="Note" transform="matrix(2.3811,0,0,2.3811,812.77,1540.63)" d="M18.7,-13.6 C4.9,-13.6 0,-6.6 0,-0.1 C0,6.4 4.9,13.4 18.7,13.4 C32.5,13.4 37.3,6.4 37.3,-0.1 C37.3,-6.6 32.5,-13.6 18.7,-13.6 M10.4,-4.5 C10.3,-4.9 10.3,-5.3 10.3,-5.7 C10.3,-6.5 10.5,-7.3 10.9,-8 C11.6,-9 12.8,-9.7 14.3,-10 C15.6,-10.3 16.3,-10.5 18.9,-10.5 L19,-10.5 C23,-10.5 24.3,-6.8 25.4,-3 L25.7,-2 C26.5,0.6 26.9,2.8 26.9,4.5 C26.9,5.7 26.7,6.8 26.3,7.6 C25.7,8.7 24.7,9.4 23,9.8 C22.1,10 20.6,10.1 20.6,10.1 C20.1,10.1 19.7,10.2 19.3,10.2 C16.1,10.2 14.1,9 12.7,4.7 C11.5,1 11.3,-0.1 10.4,-4.5"/>
<path class="Note" transform="matrix(2.3811,0,0,2.3811,1303.18,1659.69)" d="M18.7,-13.6 C4.9,-13.6 0,-6.6 0,-0.1 C0,6.4 4.9,13.4 18.7,13.4 C32.5,13.4 37.3,6.4 37.3,-0.1 C37.3,-6.6 32.5,-13.6 18.7,-13.6 M10.4,-4.5 C10.3,-4.9 10.3,-5.3 10.3,-5.7 C10.3,-6.5 10.5,-7.3 10.9,-8 C11.6,-9 12.8,-9.7 14.3,-10 C15.6,-10.3 16.3,-10.5 18.9,-10.5 L19,-10.5 C23,-10.5 24.3,-6.8 25.4,-3 L25.7,-2 C26.5,0.6 26.9,2.8 26.9,4.5 C26.9,5.7 26.7,6.8 26.3,7.6 C25.7,8.7 24.7,9.4 23,9.8 C22.1,10 20.6,10.1 20.6,10.1 C20.1,10.1 19.7,10.2 19.3,10.2 C16.1,10.2 14.1,9 12.7,4.7 C11.5,1 11.3,-0.1 10.4,-4.5"/>
<path class="Note" transform="matrix(2.3811,0,0,2.3811,1303.18,1600.16)" d="M18.7,-13.6 C4.9,-13.6 0,-6.6 0,-0.1 C0,6.4 4.9,13.4 18.7,13.4 C32.5,13.4 37.3,6.4 37.3,-0.1 C37.3,-6.6 32.5,-13.6 18.7,-13.6 M10.4,-4.5 C10.3,-4.9 10.3,-5.3 10.3,-5.7 C10.3,-6.5 10.5,-7.3 10.9,-8 C11.6,-9 12.8,-9.7 14.3,-10 C15.6,-10.3 16.3,-10.5 18.9,-10.5 L19,-10.5 C23,-10.5 24.3,-6.8 25.4,-3 L25.7,-2 C26.5,0.6 26.9,2.8 26.9,4.5 C26.9,5.7 26.7,6.8 26.3,7.6 C25.7,8.7 24.7,9.4 23,9.8 C22.1,10 20.6,10.1 20.6,10.1 C20.1,10.1 19.7,10.2 19.3,10.2 C16.1,10.2 14.1,9 12.7,4.7 C11.5,1 11.3,-0.1 10.4,-4.5"/>
<path class="Note" transform="matrix(2.3811,0,0,2.3811,1303.18,1540.63)" d="M18.7,-13.6 C4.9,-13.6 0,-6.6 0,-0.1 C0,6.4 4.9,13.4 18.7,13.4 C32.5,13.4 37.3,6.4 37.3,-0.1 C37.3,-6.6 32.5,-13.6 18.7,-13.6 M10.4,-4.5 C10.3,-4.9 10.3,-5.3 10.3,-5.7 C10.3,-6.5 10.5,-7.3 10.9,-8 C11.6,-9 12.8,-9.7 14.3,-10 C15.6,-10.3 16.3,-10.5 18.9,-10.5 L19,-10.5 C23,-10.5 24.3,-6.8 25.4,-3 L25.7,-2 C26.5,0.6 26.9,2.8 26.9,4.5 C26.9,5.7 26.7,6.8 26.3,7.6 C25.7,8.7 24.7,9.4 23,9.8 C22.1,10 20.6,10.1 20.6,10.1 C20.1,10.1 19.7,10.2 19.3,10.2 C16.1,10.2 14.1,9 12.7,4.7 C11.5,1 11.3,-0.1 10.4,-4.5"/>
<path class="Note" transform="matrix(2.3811,0,0,2.3811,1788.84,1659.69)" d="M18.7,-13.6 C4.9,-13.6 0,-6.6 0,-0.1 C0,6.4 4.9,13.4 18.7,13.4 C32.5,13.4 37.3,6.4 37.3,-0.1 C37.3,-6.6 32.5,-13.6 18.7,-13.6 M10.4,-4.5 C10.3,-4.9 10.3,-5.3 10.3,-5.7 C10.3,-6.5 10.5,-7.3 10.9,-8 C11.6,-9 12.8,-9.7 14.3,-10 C15.6,-10.3 16.3,-10.5 18.9,-10.5 L19,-10.5 C23,-10.5 24.3,-6.8 25.4,-3 L25.7,-2 C26.5,0.6 26.9,2.8 26.9,4.5 C26.9,5.7 26.7,6.8 26.3,7.6 C25.7,8.7 24.7,9.4 23,9.8 C22.1,10 20.6,10.1 20.6,10.1 C20.1,10.1 19.7,10.2 19.3,10.2 C16.1,10.2 14.1,9 12.7,4.7 C11.5,1 11.3,-0.1 10.4,-4.5"/>
<path class="Note" transform="matrix(2.3811,0,0,2.3811,1788.84,1570.39)" d="M18.7,-13.6 C4.9,-13.6 0,-6.6 0,-0.1 C0,6.4 4.9,13.4 18.7,13.4 C32.5,13.4 37.3,6.4 37.3,-0.1 C37.3,-6.6 32.5,-13.6 18.7,-13.6 M10.4,-4.5 C10.3,-4.9 10.3,-5.3 10.3,-5.7 C10.3,-6.5 10.5,-7.3 10.9,-8 C11.6,-9 12.8,-9.7 14.3,-10 C15.6,-10.3 16.3,-10.5 18.9,-10.5 L19,-10.5 C23,-10.5 24.3,-6.8 25.4,-3 L25.7,-2 C26.5,0.6 26.9,2.8 26.9,4.5 C26.9,5.7 26.7,6.8 26.3,7.6 C25.7,8.7 24.7,9.4 23,9.8 C22.1,10 20.6,10.1 20.6,10.1 C20.1,10.1 19.7,10.2 19.3,10.2 C16.1,10.2 14.1,9 12.7,4.7 C11.5,1 11.3,-0.1 10.4,-4.5"/>
<path class="Note" transform="matrix(2.3811,0,0,2.3811,1788.84,1510.87)" d="M18.7,-13.6 C4.9,-13.6 0,-6.6 0,-0.1 C0,6.4 4.9,13.4 18.7,13.4 C32.5,13.4 37.3,6.4 37.3,-0.1 C37.3,-6.6 32.5,-13.6 18.7,-13.6 M10.4,-4.5 C10.3,-4.9 10.3,-5.3 10.3,-5.7 C10.3,-6.5 10.5,-7.3 10.9,-8 C11.6,-9 12.8,-9.7 14.3,-10 C15.6,-10.3 16.3,-10.5 18.9,-10.5 L19,-10.5 C23,-10.5 24.3,-6.8 25.4,-3 L25.7,-2 C26.5,0.6 26.9,2.8 26.9,4.5 C26.9,5.7 26.7,6.8 26.3,7.6 C25.7,8.7 24.7,9.4 23,9.8 C22.1,10 20.6,10.1 20.6,10.1 C20.1,10.1 19.7,10.2 19.3,10.2 C16.1,10.2 14.1,9 12.7,4.7 C11.5,1 11.3,-0.1 10.4,-4.5"/>
<path class="Note" transform="matrix(2.3811,0,0,2.3811,2274.23,1659.69)" d="M18.7,-13.6 C4.9,-13.6 0,-6.6 0,-0.1 C0,6.4 4.9,13.4 18.7,13.4 C32.5,13.4 37.3,6.4 37.3,-0.1 C37.3,-6.6 32.5,-13.6 18.7,-13.6 M10.4,-4.5 C10.3,-4.9 10.3,-5.3 10.3,-5.7 C10.3,-6.5 10.5,-7.3 10.9,-8 C11.6,-9 12.8,-9.7 14.3,-10 C15.6,-10.3 16.3,-10.5 18.9,-10.5 L19,-10.5 C23,-10.5 24.3,-6.8 25.4,-3 L25.7,-2 C26.5,0.6 26.9,2.8 26.9,4.5 C26.9,5.7 26.7,6.8 26.3,7.6 C25.7,8.7 24.7,9.4 23,9.8 C22.1,10 20.6,10.1 20.6,10.1 C20.1,10.1 19.7,10.2 19.3,10.2 C16.1,10.2 14.1,9 12.7,4.7 C11.5,1 11.3,-0.1 10.4,-4.5"/>
<path class="Note" transform="matrix(2.3811,0,0,2.3811,2274.23,1570.39)" d="M18.7,-13.6 C4.9,-13.6 0,-6.6 0,-0.1 C0,6.4 4.9,13.4 18.7,13.4 C32.5,13.4 37.3,6.4 37.3,-0.1 C37.3,-6.6 32.5,-13.6 18.7,-13.6 M10.4,-4.5 C10.3,-4.9 10.3,-5.3 10.3,-5.7 C10.3,-6.5 10.5,-7.3 10.9,-8 C11.6,-9 12.8,-9.7 14.3,-10 C15.6,-10.3 16.3,-10.5 18.9,-10.5 L19,-10.5 C23,-10.5 24.3,-6.8 25.4,-3 L25.7,-2 C26.5,0.6 26.9,2.8 26.9,4.5 C26.9,5.7 26.7,6.8 26.3,7.6 C25.7,8.7 24.7,9.4 23,9.8 C22.1,10 20.6,10.1 20.6,10.1 C20.1,10.1 19.7,10.2 19.3,10.2 C16.1,10.2 14.1,9 12.7,4.7 C11.5,1 11.3,-0.1 10.4,-4.5"/>
<path class="Note" transform="matrix(2.3811,0,0,2.3811,2274.23,1510.87)" d="M18.7,-13.6 C4.9,-13.6 0,-6.6 0,-0.1 C0,6.4 4.9,13.4 18.7,13.4 C32.5,13.4 37.3,6.4 37.3,-0.1 C37.3,-6.6 32.5,-13.6 18.7,-13.6 M10.4,-4.5 C10.3,-4.9 10.3,-5.3 10.3,-5.7 C10.3,-6.5 10.5,-7.3 10.9,-8 C11.6,-9 12.8,-9.7 14.3,-10 C15.6,-10.3 16.3,-10.5 18.9,-10.5 L19,-10.5 C23,-10.5 24.3,-6.8 25.4,-3 L25.7,-2 C26.5,0.6 26.9,2.8 26.9,4.5 C26.9,5.7 26.7,6.8 26.3,7.6 C25.7,8.7 24.7,9.4 23,9.8 C22.1,10 20.6,10.1 20.6,10.1 C20.1,10.1 19.7,10.2 19.3,10.2 C16.1,10.2 14.1,9 12.7,4.7 C11.5,1 11.3,-0.1 10.4,-4.5"/>
<path class="Note" transform="matrix(2.3811,0,0,2.3811,2752.59,1629.92)" d="M18.7,-13.6 C4.9,-13.6 0,-6.6 0,-0.1 C0,6.4 4.9,13.4 18.7,13.4 C32.5,13.4 37.3,6.4 37.3,-0.1 C37.3,-6.6 32.5,-13.6 18.7,-13.6 M10.4,-4.5 C10.3,-4.9 10.3,-5.3 10.3,-5.7 C10.3,-6.5 10.5,-7.3 10.9,-8 C11.6,-9 12.8,-9.7 14.3,-10 C15.6,-10.3 16.3,-10.5 18.9,-10.5 L19,-10.5 C23,-10.5 24.3,-6.8 25.4,-3 L25.7,-2 C26.5,0.6 26.9,2.8 26.9,4.5 C26.9,5.7 26.7,6.8 26.3,7.6 C25.7,8.7 24.7,9.4 23,9.8 C22.1,10 20.6,10.1 20.6,10.1 C20.1,10.1 19.7,10.2 19.3,10.2 C16.1,10.2 14.1,9 12.7,4.7 C11.5,1 11.3,-0.1 10.4,-4.5"/>
<path class="Note" transform="matrix(2.3811,0,0,2.3811,2752.59,1540.63)" d="M18.7,-13.6 C4.9,-13.6 0,-6.6 0,-0.1 C0,6.4 4.9,13.4 18.7,13.4 C32.5,13.4 37.3,6.4 37.3,-0.1 C37.3,-6.6 32.5,-13.6 18.7,-13.6 M10.4,-4.5 C10.3,-4.9 10.3,-5.3 10.3,-5.7 C10.3,-6.5 10.5,-7.3 10.9,-8 C11.6,-9 12.8,-9.7 14.3,-10 C15.6,-10.3 16.3,-10.5 18.9,-10.5 L19,-10.5 C23,-10.5 24.3,-6.8 25.4,-3 L25.7,-2 C26.5,0.6 26.9,2.8 26.9,4.5 C26.9,5.7 26.7,6.8 26.3,7.6 C25.7,8.7 24.7,9.4 23,9.8 C22.1,10 20.6,10.1 20.6,10.1 C20.1,10.1 19.7,10.2 19.3,10.2 C16.1,10.2 14.1,9 12.7,4.7 C11.5,1 11.3,-0.1 10.4,-4.5"/>
<path class="Note" transform="matrix(2.3811,0,0,2.3811,2752.59,1481.1)" d="M18.7,-13.6 C4.9,-13.6 0,-6.6 0,-0.1 C0,6.4 4.9,13.4 18.7,13.4 C32.5,13.4 37.3,6.4 37.3,-0.1 C37.3,-6.6 32.5,-13.6 18.7,-13.6 M10.4,-4.5 C10.3,-4.9 10.3,-5.3 10.3,-5.7 C10.3,-6.5 10.5,-7.3 10.9,-8 C11.6,-9 12.8,-9.7 14.3,-10 C15.6,-10.3 16.3,-10.5 18.9,-10.5 L19,-10.5 C23,-10.5 24.3,-6.8 25.4,-3 L25.7,-2 C26.5,0.6 26.9,2.8 26.9,4.5 C26.9,5.7 26.7,6.8 26.3,7.6 C25.7,8.7 24.7,9.4 23,9.8 C22.1,10 20.6,10.1 20.6,10.1 C20.1,10.1 19.7,10.2 19.3,10.2 C16.1,10.2 14.1,9 12.7,4.7 C11.5,1 11.3,-0.1 10.4,-4.5"/>
<path class="Note" transform="matrix(2.3811,0,0,2.3811,3231.34,1659.69)" d="M18.7,-13.6 C4.9,-13.6 0,-6.6 0,-0.1 C0,6.4 4.9,13.4 18.7,13.4 C32.5,13.4 37.3,6.4 37.3,-0.1 C37.3,-6.6 32.5,-13.6 18.7,-13.6 M10.4,-4.5 C10.3,-4.9 10.3,-5.3 10.3,-5.7 C10.3,-6.5 10.5,-7.3 10.9,-8 C11.6,-9 12.8,-9.7 14.3,-10 C15.6,-10.3 16.3,-10.5 18.9,-10.5 L19,-10.5 C23,-10.5 24.3,-6.8 25.4,-3 L25.7,-2 C26.5,0.6 26.9,2.8 26.9,4.5 C26.9,5.7 26.7,6.8 26.3,7.6 C25.7,8.7 24.7,9.4 23,9.8 C22.1,10 20.6,10.1 20.6,10.1 C20.1,10.1 19.7,10.2 19.3,10.2 C16.1,10.2 14.1,9 12.7,4.7 C11.5,1 11.3,-0.1 10.4,-4.5"/>
<path class="Note" transform="matrix(2.3811,0,0,2.3811,3231.34,1540.63)" d="M18.7,-13.6 C4.9,-13.6 0,-6.6 0,-0.1 C0,6.4 4.9,13.4 18.7,13.4 C32.5,13.4 37.3,6.4 37.3,-0.1 C37.3,-6.6 32.5,-13.6 18.7,-13.6 M10.4,-4.5 C10.3,-4.9 10.3,-5.3 10.3,-5.7 C10.3,-6.5 10.5,-7.3 10.9,-8 C11.6,-9 12.8,-9.7 14.3,-10 C15.6,-10.3 16.3,-10.5 18.9,-10.5 L19,-10.5 C23,-10.5 24.3,-6.8 25.4,-3 L25.7,-2 C26.5,0.6 26.9,2.8 26.9,4.5 C26.9,5.7 26.7,6.8 26.3,7.6 C25.7,8.7 24.7,9.4 23,9.8 C22.1,10 20.6,10.1 20.6,10.1 C20.1,10.1 19.7,10.2 19.3,10.2 C16.1,10.2 14.1,9 12.7,4.7 C11.5,1 11.3,-0.1 10.4,-4.5"/>
<path class="Note" transform="matrix(2.3811,0,0,2.3811,3231.34,1481.1)" d="M18.7,-13.6 C4.9,-13.6 0,-6.6 0,-0.1 C0,6.4 4.9,13.4 18.7,13.4 C32.5,13.4 37.3,6.4 37.3,-0.1 C37.3,-6.6 32.5,-13.6 18.7,-13.6 M10.4,-4.5 C10.3,-4.9 10.3,-5.3 10.3,-5.7 C10.3,-6.5 10.5,-7.3 10.9,-8 C11.6,-9 12.8,-9.7 14.3,-10 C15.6,-10.3 16.3,-10.5 18.9,-10.5 L19,-10.5 C23,-10.5 24.3,-6.8 25.4,-3 L25.7,-2 C26.5,0.6 26.9,2.8 26.9,4.5 C26.9,5.7 26.7,6.8 26.3,7.6 C25.7,8.7 24.7,9.4 23,9.8 C22.1,10 20.6,10.1 20.6,10.1 C20.1,10.1 19.7,10.2 19.3,10.2 C16.1,10.2 14.1,9 12.7,4.7 C11.5,1 11.3,-0.1 10.4,-4.5"/>
<path class="Note" transform="matrix(2.3811,0,0,2.3811,3710.64,1659.69)" d="M18.7,-13.6 C4.9,-13.6 0,-6.6 0,-0.1 C0,6.4 4.9,13.4 18.7,13.4 C32.5,13.4 37.3,6.4 37.3,-0.1 C37.3,-6.6 32.5,-13.6 18.7,-13.6 M10.4,-4.5 C10.3,-4.9 10.3,-5.3 10.3,-5.7 C10.3,-6.5 10.5,-7.3 10.9,-8 C11.6,-9 12.8,-9.7 14.3,-10 C15.6,-10.3 16.3,-10.5 18.9,-10.5 L19,-10.5 C23,-10.5 24.3,-6.8 25.4,-3 L25.7,-2 C26.5,0.6 26.9,2.8 26.9,4.5 C26.9,5.7 26.7,6.8 26.3,7.6 C25.7,8.7 24.7,9.4 23,9.8 C22.1,10 20.6,10.1 20.6,10.1 C20.1,10.1 19.7,10.2 19.3,10.2 C16.1,10.2 14.1,9 12.7,4.7 C11.5,1 11.3,-0.1 10.4,-4.5"/>
<path class="Note" transform="matrix(2.3811,0,0,2.3811,3710.64,1570.39)" d="M18.7,-13.6 C4.9,-13.6 0,-6.6 0,-0.1 C0,6.4 4.9,13.4 18.7,13.4 C32.5,13.4 37.3,6.4 37.3,-0.1 C37.3,-6.6 32.5,-13.6 18.7,-13.6 M10.4,-4.5 C10.3,-4.9 10.3,-5.3 10.3,-5.7 C10.3,-6.5 10.5,-7.3 10.9,-8 C11.6,-9 12.8,-9.7 14.3,-10 C15.6,-10.3 16.3,-10.5 18.9,-10.5 L19,-10.5 C23,-10.5 24.3,-6.8 25.4,-3 L25.7,-2 C26.5,0.6 26.9,2.8 26.9,4.5 C26.9,5.7 26.7,6.8 26.3,7.6 C25.7,8.7 24.7,9.4 23,9.8 C22.1,10 20.6,10.1 20.6,10.1 C20.1,10.1 19.7,10.2 19.3,10.2 C16.1,10.2 14.1,9 12.7,4.7 C11.5,1 11.3,-0.1 10.4,-4.5"/>
<path class="Note" transform="matrix(2.3811,0,0,2.3811,3710.64,1510.87)" d="M18.7,-13.6 C4.9,-13.6 0,-6.6 0,-0.1 C0,6.4 4.9,13.4 18.7,13.4 C32.5,13.4 37.3,6.4 37.3,-0.1 C37.3,-6.6 32.5,-13.6 18.7,-13.6 M10.4,-4.5 C10.3,-4.9 10.3,-5.3 10.3,-5.7 C10.3,-6.5 10.5,-7.3 10.9,-8 C11.6,-9 12.8,-9.7 14.3,-10 C15.6,-10.3 16.3,-10.5 18.9,-10.5 L19,-10.5 C23,-10.5 24.3,-6.8 25.4,-3 L25.7,-2 C26.5,0.6 26.9,2.8 26.9,4.5 C26.9,5.7 26.7,6.8 26.3,7.6 C25.7,8.7 24.7,9.4 23,9.8 C22.1,10 20.6,10.1 20.6,10.1 C20.1,10.1 19.7,10.2 19.3,10.2 C16.1,10.2 14.1,9 12.7,4.7 C11.5,1 11.3,-0.1 10.4,-4.5"/>
<path class="Note" d="M726.531,1098.35 C726.144,1099.05 725.563,1099.4 724.788,1099.4 C724.091,1099.4 723.2,1099.09 722.115,1098.47 C720.488,1097.54 719.675,1096.61 719.675,1095.68 C719.675,1095.37 719.791,1094.98 720.023,1094.52 C737.765,1068.95 748.844,1047.41 753.26,1029.91 C753.57,1029.36 754.112,1029.09 754.887,1029.09 C755.894,1029.09 757.327,1029.63 759.186,1030.72 C761.743,1032.19 763.021,1033.51 763.021,1034.67 C763.021,1034.98 762.944,1035.25 762.789,1035.48 C756.901,1052.22 744.815,1073.17 726.531,1098.35 M747.449,1105.33 C747.062,1106.02 746.481,1106.37 745.706,1106.37 C745.009,1106.37 744.118,1106.06 743.033,1105.44 C741.406,1104.51 740.593,1103.58 740.593,1102.65 C740.593,1102.34 740.709,1101.96 740.941,1101.49 C758.683,1075.92 769.762,1054.39 774.178,1036.88 C774.488,1036.34 775.03,1036.06 775.805,1036.06 C776.812,1036.06 778.245,1036.61 780.104,1037.69 C782.661,1039.16 783.939,1040.48 783.939,1041.64 C783.939,1041.95 783.862,1042.22 783.707,1042.46 C777.819,1059.19 765.733,1080.15 747.449,1105.33 M831.002,1059.89 C835.573,1059.89 837.858,1062.75 837.858,1068.49 C837.858,1072.52 835.34,1078.52 830.305,1086.5 C826.276,1092.93 824.262,1099.21 824.262,1105.33 C824.262,1108.81 829.336,1110.56 839.485,1110.56 C847.852,1110.56 859.512,1106.02 874.465,1096.96 C859.435,1111.45 846.38,1118.69 835.302,1118.69 C825.308,1118.69 818.335,1117.18 814.384,1114.16 C813.377,1113.38 812.524,1112.45 811.827,1111.37 C807.953,1116.09 801.484,1118.46 792.42,1118.46 C783.743,1118.46 777.08,1116.68 772.432,1113.11 C769.333,1110.71 767.783,1106.88 767.783,1101.61 C767.783,1093.24 772.741,1084.1 782.658,1074.18 C793.272,1063.57 805.552,1058.26 819.497,1058.26 C822.983,1058.26 825.54,1059.54 827.167,1062.1 C828.484,1060.62 829.762,1059.89 831.002,1059.89 M810.2,1106.14 C810.123,1105.52 810.084,1104.9 810.084,1104.28 C810.084,1103.97 814.035,1093.16 821.937,1071.86 C822.712,1069.77 823.487,1067.98 824.262,1066.51 C821.24,1065.89 818.257,1065.58 815.313,1065.58 C809.89,1065.58 802.685,1070.19 793.698,1079.41 C785.641,1087.62 781.612,1094.71 781.612,1100.68 C781.612,1107.26 784.75,1110.56 791.025,1110.56 C798.618,1110.56 805.009,1109.08 810.2,1106.14"/>
<path class="Note" d="M845.123,973.437 C838.77,983.431 828.737,991.721 815.024,998.306 C803.093,1004.04 791.937,1006.91 781.555,1006.91 C773.266,1006.91 766.371,1005.24 760.87,1001.91 C754.904,998.267 751.922,993.929 751.922,988.893 C751.922,977.504 754.904,967.704 760.87,959.491 C769.005,948.335 777.217,942.757 785.507,942.757 C791.395,942.757 795.578,943.919 798.057,946.243 C801.466,949.265 803.171,953.41 803.171,958.678 C803.171,966.115 797.631,972.584 786.553,978.085 C775.784,983.431 768.307,986.917 764.124,988.544 C765.053,990.481 766.254,992.224 767.726,993.774 C771.368,997.647 776.326,999.584 782.601,999.584 C790.504,999.584 801.118,996.679 814.443,990.868 C827.226,985.213 837.453,979.402 845.123,973.437 M762.497,983.198 C768.307,980.254 773.614,976.807 778.418,972.856 C785.545,967.045 789.109,960.77 789.109,954.029 C789.109,950.233 787.366,948.335 783.88,948.335 C780.936,948.335 776.907,951.705 771.794,958.445 C765.363,966.813 762.148,973.63 762.148,978.899 C762.148,980.371 762.264,981.804 762.497,983.198"/>
<path class="Note" d="M698.241,587.916 C698.551,576.217 705.02,565.836 717.648,556.771 C728.882,548.714 741.162,544.685 754.487,544.685 C773.159,544.685 789.622,552.007 803.877,566.649 C812.941,576.024 817.474,587.645 817.474,601.513 C817.474,613.986 814.142,623.554 807.48,630.217 C799.345,638.429 790.745,642.535 781.681,642.535 C775.483,642.535 770.679,641.14 767.271,638.351 C761.692,633.78 758.903,627.66 758.903,619.99 C758.903,610.073 763.862,601.009 773.778,592.797 C781.913,586.056 790.087,581.64 798.299,579.549 C796.13,575.83 793.379,572.344 790.048,569.09 C779.666,558.941 767.89,553.866 754.72,553.866 C741.007,553.866 729.657,556.849 720.67,562.814 C711.373,568.935 703.897,577.302 698.241,587.916 M801.204,585.708 C796.943,589.659 792.682,593.881 788.421,598.375 C780.054,607.207 775.87,615.574 775.87,623.476 C775.87,631.921 777.807,636.143 781.681,636.143 C785.167,636.143 790.048,631.379 796.323,621.849 C801.359,614.257 803.877,607.284 803.877,600.931 C803.877,595.508 802.986,590.434 801.204,585.708"/>
<path class="Note" d="M809.33,494.673 C813.901,494.673 816.186,497.54 816.186,503.273 C816.186,507.302 813.668,513.306 808.633,521.286 C804.604,527.716 802.59,533.991 802.59,540.112 C802.59,543.598 807.664,545.341 817.813,545.341 C826.18,545.341 837.84,540.809 852.793,531.745 C837.763,546.232 824.708,553.476 813.63,553.476 C803.636,553.476 796.663,551.965 792.712,548.944 C791.705,548.169 790.852,547.239 790.155,546.155 C786.281,550.881 779.812,553.244 770.748,553.244 C762.071,553.244 755.408,551.462 750.76,547.898 C747.661,545.496 746.111,541.661 746.111,536.393 C746.111,528.026 751.069,518.884 760.986,508.967 C771.6,498.353 783.88,493.046 797.825,493.046 C801.311,493.046 803.868,494.325 805.495,496.881 C806.812,495.409 808.09,494.673 809.33,494.673 M788.528,540.925 C788.451,540.305 788.412,539.686 788.412,539.066 C788.412,538.756 792.363,527.948 800.265,506.643 C801.04,504.551 801.815,502.769 802.59,501.297 C799.568,500.678 796.585,500.368 793.641,500.368 C788.218,500.368 781.013,504.977 772.026,514.197 C763.969,522.409 759.94,529.498 759.94,535.463 C759.94,542.049 763.078,545.341 769.353,545.341 C776.946,545.341 783.337,543.869 788.528,540.925"/>
<path class="Note" d="M1288.73,1091.38 C1288.34,1092.08 1287.76,1092.43 1286.98,1092.43 C1286.28,1092.43 1285.39,1092.12 1284.31,1091.5 C1282.68,1090.57 1281.87,1089.64 1281.87,1088.71 C1281.87,1088.4 1281.98,1088.01 1282.22,1087.55 C1299.96,1061.98 1311.04,1040.44 1315.45,1022.93 C1315.76,1022.39 1316.31,1022.12 1317.08,1022.12 C1318.09,1022.12 1319.52,1022.66 1321.38,1023.75 C1323.94,1025.22 1325.22,1026.53 1325.22,1027.7 C1325.22,1028.01 1325.14,1028.28 1324.98,1028.51 C1319.09,1045.24 1307.01,1066.2 1288.73,1091.38 M1309.64,1098.35 C1309.26,1099.05 1308.67,1099.4 1307.9,1099.4 C1307.2,1099.4 1306.31,1099.09 1305.23,1098.47 C1303.6,1097.54 1302.79,1096.61 1302.79,1095.68 C1302.79,1095.37 1302.9,1094.98 1303.14,1094.52 C1320.88,1068.95 1331.96,1047.41 1336.37,1029.91 C1336.68,1029.36 1337.22,1029.09 1338,1029.09 C1339.01,1029.09 1340.44,1029.63 1342.3,1030.72 C1344.85,1032.19 1346.13,1033.51 1346.13,1034.67 C1346.13,1034.98 1346.06,1035.25 1345.9,1035.48 C1340.01,1052.22 1327.93,1073.17 1309.64,1098.35 M1330.56,1105.33 C1330.17,1106.02 1329.59,1106.37 1328.82,1106.37 C1328.12,1106.37 1327.23,1106.06 1326.14,1105.44 C1324.52,1104.51 1323.7,1103.58 1323.7,1102.65 C1323.7,1102.34 1323.82,1101.96 1324.05,1101.49 C1341.79,1075.92 1352.87,1054.39 1357.29,1036.88 C1357.6,1036.34 1358.14,1036.06 1358.92,1036.06 C1359.92,1036.06 1361.36,1036.61 1363.22,1037.69 C1365.77,1039.16 1367.05,1040.48 1367.05,1041.64 C1367.05,1041.95 1366.97,1042.22 1366.82,1042.46 C1360.93,1059.19 1348.84,1080.15 1330.56,1105.33 M1414.1,1059.89 C1418.67,1059.89 1420.96,1062.75 1420.96,1068.49 C1420.96,1072.52 1418.44,1078.52 1413.4,1086.5 C1409.38,1092.93 1407.36,1099.21 1407.36,1105.33 C1407.36,1108.81 1412.44,1110.56 1422.59,1110.56 C1430.95,1110.56 1442.61,1106.02 1457.56,1096.96 C1442.53,1111.45 1429.48,1118.69 1418.4,1118.69 C1408.41,1118.69 1401.43,1117.18 1397.48,1114.16 C1396.48,1113.38 1395.62,1112.45 1394.93,1111.37 C1391.05,1116.09 1384.58,1118.46 1375.52,1118.46 C1366.84,1118.46 1360.18,1116.68 1355.53,1113.11 C1352.43,1110.71 1350.88,1106.88 1350.88,1101.61 C1350.88,1093.24 1355.84,1084.1 1365.76,1074.18 C1376.37,1063.57 1388.65,1058.26 1402.6,1058.26 C1406.08,1058.26 1408.64,1059.54 1410.27,1062.1 C1411.58,1060.62 1412.86,1059.89 1414.1,1059.89 M1393.3,1106.14 C1393.22,1105.52 1393.18,1104.9 1393.18,1104.28 C1393.18,1103.97 1397.14,1093.16 1405.04,1071.86 C1405.81,1069.77 1406.59,1067.98 1407.36,1066.51 C1404.34,1065.89 1401.36,1065.58 1398.41,1065.58 C1392.99,1065.58 1385.79,1070.19 1376.8,1079.41 C1368.74,1087.62 1364.71,1094.71 1364.71,1100.68 C1364.71,1107.26 1367.85,1110.56 1374.13,1110.56 C1381.72,1110.56 1388.11,1109.08 1393.3,1106.14"/>
<path class="Note" d="M1382,851.839 C1386.57,851.839 1388.85,854.705 1388.85,860.438 C1388.85,864.467 1386.34,870.471 1381.3,878.451 C1377.27,884.881 1375.26,891.157 1375.26,897.277 C1375.26,900.763 1380.33,902.507 1390.48,902.507 C1398.85,902.507 1410.51,897.974 1425.46,888.91 C1410.43,903.398 1397.38,910.641 1386.3,910.641 C1376.3,910.641 1369.33,909.131 1365.38,906.109 C1364.37,905.334 1363.52,904.405 1362.82,903.32 C1358.95,908.046 1352.48,910.409 1343.41,910.409 C1334.74,910.409 1328.07,908.627 1323.43,905.063 C1320.33,902.662 1318.78,898.827 1318.78,893.558 C1318.78,885.191 1323.74,876.049 1333.65,866.133 C1344.27,855.519 1356.55,850.212 1370.49,850.212 C1373.98,850.212 1376.53,851.49 1378.16,854.047 C1379.48,852.575 1380.76,851.839 1382,851.839 M1361.2,898.091 C1361.12,897.471 1361.08,896.851 1361.08,896.231 C1361.08,895.921 1365.03,885.114 1372.93,863.808 C1373.71,861.717 1374.48,859.935 1375.26,858.463 C1372.24,857.843 1369.25,857.533 1366.31,857.533 C1360.89,857.533 1353.68,862.143 1344.69,871.362 C1336.64,879.574 1332.61,886.663 1332.61,892.629 C1332.61,899.214 1335.74,902.507 1342.02,902.507 C1349.61,902.507 1356,901.035 1361.2,898.091"/>
<path class="Note" d="M1337.72,642.535 C1333.92,642.535 1332.03,638.468 1332.03,630.333 L1332.03,596.283 C1332.03,593.029 1333.61,591.402 1336.79,591.402 C1338.19,591.402 1339.23,591.518 1339.93,591.751 C1342.41,587.412 1346.48,583.771 1352.13,580.827 C1360.03,576.721 1368.05,574.668 1376.19,574.668 C1382.62,574.668 1385.83,577.069 1385.83,581.873 C1385.83,585.902 1383.66,587.916 1379.32,587.916 C1376.23,587.916 1373.28,587.219 1370.49,585.824 C1368.01,584.584 1365.38,583.965 1362.59,583.965 C1357.79,583.965 1350.7,587.102 1341.32,593.378 C1342.64,599.653 1343.3,606.974 1343.3,615.342 C1343.3,633.471 1341.44,642.535 1337.72,642.535"/>
<path class="Note" d="M1382,494.673 C1386.57,494.673 1388.85,497.54 1388.85,503.273 C1388.85,507.302 1386.34,513.306 1381.3,521.286 C1377.27,527.716 1375.26,533.991 1375.26,540.112 C1375.26,543.598 1380.33,545.341 1390.48,545.341 C1398.85,545.341 1410.51,540.809 1425.46,531.745 C1410.43,546.232 1397.38,553.476 1386.3,553.476 C1376.3,553.476 1369.33,551.965 1365.38,548.944 C1364.37,548.169 1363.52,547.239 1362.82,546.155 C1358.95,550.881 1352.48,553.244 1343.41,553.244 C1334.74,553.244 1328.07,551.462 1323.43,547.898 C1320.33,545.496 1318.78,541.661 1318.78,536.393 C1318.78,528.026 1323.74,518.884 1333.65,508.967 C1344.27,498.353 1356.55,493.046 1370.49,493.046 C1373.98,493.046 1376.53,494.325 1378.16,496.881 C1379.48,495.409 1380.76,494.673 1382,494.673 M1361.2,540.925 C1361.12,540.305 1361.08,539.686 1361.08,539.066 C1361.08,538.756 1365.03,527.948 1372.93,506.643 C1373.71,504.551 1374.48,502.769 1375.26,501.297 C1372.24,500.678 1369.25,500.368 1366.31,500.368 C1360.89,500.368 1353.68,504.977 1344.69,514.197 C1336.64,522.409 1332.61,529.498 1332.61,535.463 C1332.61,542.049 1335.74,545.341 1342.02,545.341 C1349.61,545.341 1356,543.869 1361.2,540.925"/>
<path class="Note" d="M1867.66,1059.89 C1872.23,1059.89 1874.52,1062.75 1874.52,1068.49 C1874.52,1072.52 1872,1078.52 1866.96,1086.5 C1862.93,1092.93 1860.92,1099.21 1860.92,1105.33 C1860.92,1108.81 1865.99,1110.56 1876.14,1110.56 C1884.51,1110.56 1896.17,1106.02 1911.12,1096.96 C1896.09,1111.45 1883.04,1118.69 1871.96,1118.69 C1861.96,1118.69 1854.99,1117.18 1851.04,1114.16 C1850.03,1113.38 1849.18,1112.45 1848.48,1111.37 C1844.61,1116.09 1838.14,1118.46 1829.08,1118.46 C1820.4,1118.46 1813.74,1116.68 1809.09,1113.11 C1805.99,1110.71 1804.44,1106.88 1804.44,1101.61 C1804.44,1093.24 1809.4,1084.1 1819.31,1074.18 C1829.93,1063.57 1842.21,1058.26 1856.15,1058.26 C1859.64,1058.26 1862.2,1059.54 1863.82,1062.1 C1865.14,1060.62 1866.42,1059.89 1867.66,1059.89 M1846.86,1106.14 C1846.78,1105.52 1846.74,1104.9 1846.74,1104.28 C1846.74,1103.97 1850.69,1093.16 1858.59,1071.86 C1859.37,1069.77 1860.14,1067.98 1860.92,1066.51 C1857.9,1065.89 1854.91,1065.58 1851.97,1065.58 C1846.55,1065.58 1839.34,1070.19 1830.36,1079.41 C1822.3,1087.62 1818.27,1094.71 1818.27,1100.68 C1818.27,1107.26 1821.41,1110.56 1827.68,1110.56 C1835.27,1110.56 1841.67,1109.08 1846.86,1106.14"/>
<path class="Note" d="M1867.66,851.839 C1872.23,851.839 1874.52,854.705 1874.52,860.438 C1874.52,864.467 1872,870.471 1866.96,878.451 C1862.93,884.881 1860.92,891.157 1860.92,897.277 C1860.92,900.763 1865.99,902.507 1876.14,902.507 C1884.51,902.507 1896.17,897.974 1911.12,888.91 C1896.09,903.398 1883.04,910.641 1871.96,910.641 C1861.96,910.641 1854.99,909.131 1851.04,906.109 C1850.03,905.334 1849.18,904.405 1848.48,903.32 C1844.61,908.046 1838.14,910.409 1829.08,910.409 C1820.4,910.409 1813.74,908.627 1809.09,905.063 C1805.99,902.662 1804.44,898.827 1804.44,893.558 C1804.44,885.191 1809.4,876.049 1819.31,866.133 C1829.93,855.519 1842.21,850.212 1856.15,850.212 C1859.64,850.212 1862.2,851.49 1863.82,854.047 C1865.14,852.575 1866.42,851.839 1867.66,851.839 M1846.86,898.091 C1846.78,897.471 1846.74,896.851 1846.74,896.231 C1846.74,895.921 1850.69,885.114 1858.59,863.808 C1859.37,861.717 1860.14,859.935 1860.92,858.463 C1857.9,857.843 1854.91,857.533 1851.97,857.533 C1846.55,857.533 1839.34,862.143 1830.36,871.362 C1822.3,879.574 1818.27,886.663 1818.27,892.629 C1818.27,899.214 1821.41,902.507 1827.68,902.507 C1835.27,902.507 1841.67,901.035 1846.86,898.091"/>
<path class="Note" d="M1867.66,762.547 C1872.23,762.547 1874.52,765.414 1874.52,771.147 C1874.52,775.176 1872,781.18 1866.96,789.16 C1862.93,795.59 1860.92,801.865 1860.92,807.986 C1860.92,811.472 1865.99,813.215 1876.14,813.215 C1884.51,813.215 1896.17,808.683 1911.12,799.619 C1896.09,814.106 1883.04,821.35 1871.96,821.35 C1861.96,821.35 1854.99,819.839 1851.04,816.818 C1850.03,816.043 1849.18,815.113 1848.48,814.029 C1844.61,818.755 1838.14,821.118 1829.08,821.118 C1820.4,821.118 1813.74,819.336 1809.09,815.772 C1805.99,813.37 1804.44,809.535 1804.44,804.267 C1804.44,795.9 1809.4,786.758 1819.31,776.841 C1829.93,766.227 1842.21,760.92 1856.15,760.92 C1859.64,760.92 1862.2,762.199 1863.82,764.755 C1865.14,763.283 1866.42,762.547 1867.66,762.547 M1846.86,808.799 C1846.78,808.179 1846.74,807.56 1846.74,806.94 C1846.74,806.63 1850.69,795.822 1858.59,774.517 C1859.37,772.425 1860.14,770.643 1860.92,769.171 C1857.9,768.552 1854.91,768.242 1851.97,768.242 C1846.55,768.242 1839.34,772.851 1830.36,782.071 C1822.3,790.283 1818.27,797.372 1818.27,803.337 C1818.27,809.923 1821.41,813.215 1827.68,813.215 C1835.27,813.215 1841.67,811.743 1846.86,808.799"/>
<path class="Note" d="M1867.66,673.256 C1872.23,673.256 1874.52,676.123 1874.52,681.856 C1874.52,685.884 1872,691.888 1866.96,699.868 C1862.93,706.299 1860.92,712.574 1860.92,718.694 C1860.92,722.181 1865.99,723.924 1876.14,723.924 C1884.51,723.924 1896.17,719.392 1911.12,710.327 C1896.09,724.815 1883.04,732.059 1871.96,732.059 C1861.96,732.059 1854.99,730.548 1851.04,727.527 C1850.03,726.752 1849.18,725.822 1848.48,724.737 C1844.61,729.463 1838.14,731.826 1829.08,731.826 C1820.4,731.826 1813.74,730.044 1809.09,726.481 C1805.99,724.079 1804.44,720.244 1804.44,714.976 C1804.44,706.609 1809.4,697.467 1819.31,687.55 C1829.93,676.936 1842.21,671.629 1856.15,671.629 C1859.64,671.629 1862.2,672.907 1863.82,675.464 C1865.14,673.992 1866.42,673.256 1867.66,673.256 M1846.86,719.508 C1846.78,718.888 1846.74,718.268 1846.74,717.649 C1846.74,717.339 1850.69,706.531 1858.59,685.226 C1859.37,683.134 1860.14,681.352 1860.92,679.88 C1857.9,679.26 1854.91,678.95 1851.97,678.95 C1846.55,678.95 1839.34,683.56 1830.36,692.779 C1822.3,700.992 1818.27,708.081 1818.27,714.046 C1818.27,720.631 1821.41,723.924 1827.68,723.924 C1835.27,723.924 1841.67,722.452 1846.86,719.508"/>
<path class="Note" d="M2353.05,1059.89 C2357.62,1059.89 2359.9,1062.75 2359.9,1068.49 C2359.9,1072.52 2357.38,1078.52 2352.35,1086.5 C2348.32,1092.93 2346.31,1099.21 2346.31,1105.33 C2346.31,1108.81 2351.38,1110.56 2361.53,1110.56 C2369.9,1110.56 2381.56,1106.02 2396.51,1096.96 C2381.48,1111.45 2368.42,1118.69 2357.35,1118.69 C2347.35,1118.69 2340.38,1117.18 2336.43,1114.16 C2335.42,1113.38 2334.57,1112.45 2333.87,1111.37 C2330,1116.09 2323.53,1118.46 2314.46,1118.46 C2305.79,1118.46 2299.12,1116.68 2294.47,1113.11 C2291.38,1110.71 2289.83,1106.88 2289.83,1101.61 C2289.83,1093.24 2294.78,1084.1 2304.7,1074.18 C2315.32,1063.57 2327.6,1058.26 2341.54,1058.26 C2345.03,1058.26 2347.58,1059.54 2349.21,1062.1 C2350.53,1060.62 2351.81,1059.89 2353.05,1059.89 M2332.24,1106.14 C2332.17,1105.52 2332.13,1104.9 2332.13,1104.28 C2332.13,1103.97 2336.08,1093.16 2343.98,1071.86 C2344.76,1069.77 2345.53,1067.98 2346.31,1066.51 C2343.28,1065.89 2340.3,1065.58 2337.36,1065.58 C2331.93,1065.58 2324.73,1070.19 2315.74,1079.41 C2307.68,1087.62 2303.66,1094.71 2303.66,1100.68 C2303.66,1107.26 2306.79,1110.56 2313.07,1110.56 C2320.66,1110.56 2327.05,1109.08 2332.24,1106.14"/>
<path class="Note" d="M2353.05,851.839 C2357.62,851.839 2359.9,854.705 2359.9,860.438 C2359.9,864.467 2357.38,870.471 2352.35,878.451 C2348.32,884.881 2346.31,891.157 2346.31,897.277 C2346.31,900.763 2351.38,902.507 2361.53,902.507 C2369.9,902.507 2381.56,897.974 2396.51,888.91 C2381.48,903.398 2368.42,910.641 2357.35,910.641 C2347.35,910.641 2340.38,909.131 2336.43,906.109 C2335.42,905.334 2334.57,904.405 2333.87,903.32 C2330,908.046 2323.53,910.409 2314.46,910.409 C2305.79,910.409 2299.12,908.627 2294.47,905.063 C2291.38,902.662 2289.83,898.827 2289.83,893.558 C2289.83,885.191 2294.78,876.049 2304.7,866.133 C2315.32,855.519 2327.6,850.212 2341.54,850.212 C2345.03,850.212 2347.58,851.49 2349.21,854.047 C2350.53,852.575 2351.81,851.839 2353.05,851.839 M2332.24,898.091 C2332.17,897.471 2332.13,896.851 2332.13,896.231 C2332.13,895.921 2336.08,885.114 2343.98,863.808 C2344.76,861.717 2345.53,859.935 2346.31,858.463 C2343.28,857.843 2340.3,857.533 2337.36,857.533 C2331.93,857.533 2324.73,862.143 2315.74,871.362 C2307.68,879.574 2303.66,886.663 2303.66,892.629 C2303.66,899.214 2306.79,902.507 2313.07,902.507 C2320.66,902.507 2327.05,901.035 2332.24,898.091"/>
<path class="Note" d="M2353.05,762.547 C2357.62,762.547 2359.9,765.414 2359.9,771.147 C2359.9,775.176 2357.38,781.18 2352.35,789.16 C2348.32,795.59 2346.31,801.865 2346.31,807.986 C2346.31,811.472 2351.38,813.215 2361.53,813.215 C2369.9,813.215 2381.56,808.683 2396.51,799.619 C2381.48,814.106 2368.42,821.35 2357.35,821.35 C2347.35,821.35 2340.38,819.839 2336.43,816.818 C2335.42,816.043 2334.57,815.113 2333.87,814.029 C2330,818.755 2323.53,821.118 2314.46,821.118 C2305.79,821.118 2299.12,819.336 2294.47,815.772 C2291.38,813.37 2289.83,809.535 2289.83,804.267 C2289.83,795.9 2294.78,786.758 2304.7,776.841 C2315.32,766.227 2327.6,760.92 2341.54,760.92 C2345.03,760.92 2347.58,762.199 2349.21,764.755 C2350.53,763.283 2351.81,762.547 2353.05,762.547 M2332.24,808.799 C2332.17,808.179 2332.13,807.56 2332.13,806.94 C2332.13,806.63 2336.08,795.822 2343.98,774.517 C2344.76,772.425 2345.53,770.643 2346.31,769.171 C2343.28,768.552 2340.3,768.242 2337.36,768.242 C2331.93,768.242 2324.73,772.851 2315.74,782.071 C2307.68,790.283 2303.66,797.372 2303.66,803.337 C2303.66,809.923 2306.79,813.215 2313.07,813.215 C2320.66,813.215 2327.05,811.743 2332.24,808.799"/>
<path class="Note" d="M2353.05,673.256 C2357.62,673.256 2359.9,676.123 2359.9,681.856 C2359.9,685.884 2357.38,691.888 2352.35,699.868 C2348.32,706.299 2346.31,712.574 2346.31,718.694 C2346.31,722.181 2351.38,723.924 2361.53,723.924 C2369.9,723.924 2381.56,719.392 2396.51,710.327 C2381.48,724.815 2368.42,732.059 2357.35,732.059 C2347.35,732.059 2340.38,730.548 2336.43,727.527 C2335.42,726.752 2334.57,725.822 2333.87,724.737 C2330,729.463 2323.53,731.826 2314.46,731.826 C2305.79,731.826 2299.12,730.044 2294.47,726.481 C2291.38,724.079 2289.83,720.244 2289.83,714.976 C2289.83,706.609 2294.78,697.467 2304.7,687.55 C2315.32,676.936 2327.6,671.629 2341.54,671.629 C2345.03,671.629 2347.58,672.907 2349.21,675.464 C2350.53,673.992 2351.81,673.256 2353.05,673.256 M2332.24,719.508 C2332.17,718.888 2332.13,718.268 2332.13,717.649 C2332.13,717.339 2336.08,706.531 2343.98,685.226 C2344.76,683.134 2345.53,681.352 2346.31,679.88 C2343.28,679.26 2340.3,678.95 2337.36,678.95 C2331.93,678.95 2324.73,683.56 2315.74,692.779 C2307.68,700.992 2303.66,708.081 2303.66,714.046 C2303.66,720.631 2306.79,723.924 2313.07,723.924 C2320.66,723.924 2327.05,722.452 2332.24,719.508"/>
<path class="Note" d="M2831.41,1059.89 C2835.98,1059.89 2838.27,1062.75 2838.27,1068.49 C2838.27,1072.52 2835.75,1078.52 2830.71,1086.5 C2826.68,1092.93 2824.67,1099.21 2824.67,1105.33 C2824.67,1108.81 2829.74,1110.56 2839.89,1110.56 C2848.26,1110.56 2859.92,1106.02 2874.87,1096.96 C2859.84,1111.45 2846.79,1118.69 2835.71,1118.69 C2825.72,1118.69 2818.74,1117.18 2814.79,1114.16 C2813.78,1113.38 2812.93,1112.45 2812.23,1111.37 C2808.36,1116.09 2801.89,1118.46 2792.83,1118.46 C2784.15,1118.46 2777.49,1116.68 2772.84,1113.11 C2769.74,1110.71 2768.19,1106.88 2768.19,1101.61 C2768.19,1093.24 2773.15,1084.1 2783.07,1074.18 C2793.68,1063.57 2805.96,1058.26 2819.9,1058.26 C2823.39,1058.26 2825.95,1059.54 2827.57,1062.1 C2828.89,1060.62 2830.17,1059.89 2831.41,1059.89 M2810.61,1106.14 C2810.53,1105.52 2810.49,1104.9 2810.49,1104.28 C2810.49,1103.97 2814.44,1093.16 2822.34,1071.86 C2823.12,1069.77 2823.89,1067.98 2824.67,1066.51 C2821.65,1065.89 2818.66,1065.58 2815.72,1065.58 C2810.3,1065.58 2803.09,1070.19 2794.11,1079.41 C2786.05,1087.62 2782.02,1094.71 2782.02,1100.68 C2782.02,1107.26 2785.16,1110.56 2791.43,1110.56 C2799.03,1110.56 2805.42,1109.08 2810.61,1106.14"/>
<path class="Note" d="M2831.41,583.965 C2835.98,583.965 2838.27,586.831 2838.27,592.564 C2838.27,596.593 2835.75,602.597 2830.71,610.577 C2826.68,617.007 2824.67,623.283 2824.67,629.403 C2824.67,632.889 2829.74,634.633 2839.89,634.633 C2848.26,634.633 2859.92,630.1 2874.87,621.036 C2859.84,635.524 2846.79,642.767 2835.71,642.767 C2825.72,642.767 2818.74,641.257 2814.79,638.235 C2813.78,637.46 2812.93,636.531 2812.23,635.446 C2808.36,640.172 2801.89,642.535 2792.83,642.535 C2784.15,642.535 2777.49,640.753 2772.84,637.189 C2769.74,634.788 2768.19,630.953 2768.19,625.684 C2768.19,617.317 2773.15,608.175 2783.07,598.259 C2793.68,587.645 2805.96,582.338 2819.9,582.338 C2823.39,582.338 2825.95,583.616 2827.57,586.173 C2828.89,584.701 2830.17,583.965 2831.41,583.965 M2810.61,630.217 C2810.53,629.597 2810.49,628.977 2810.49,628.357 C2810.49,628.047 2814.44,617.24 2822.34,595.934 C2823.12,593.843 2823.89,592.061 2824.67,590.589 C2821.65,589.969 2818.66,589.659 2815.72,589.659 C2810.3,589.659 2803.09,594.269 2794.11,603.488 C2786.05,611.7 2782.02,618.789 2782.02,624.755 C2782.02,631.34 2785.16,634.633 2791.43,634.633 C2799.03,634.633 2805.42,633.161 2810.61,630.217"/>
<path class="Note" d="M2831.41,494.673 C2835.98,494.673 2838.27,497.54 2838.27,503.273 C2838.27,507.302 2835.75,513.306 2830.71,521.286 C2826.68,527.716 2824.67,533.991 2824.67,540.112 C2824.67,543.598 2829.74,545.341 2839.89,545.341 C2848.26,545.341 2859.92,540.809 2874.87,531.745 C2859.84,546.232 2846.79,553.476 2835.71,553.476 C2825.72,553.476 2818.74,551.965 2814.79,548.944 C2813.78,548.169 2812.93,547.239 2812.23,546.155 C2808.36,550.881 2801.89,553.244 2792.83,553.244 C2784.15,553.244 2777.49,551.462 2772.84,547.898 C2769.74,545.496 2768.19,541.661 2768.19,536.393 C2768.19,528.026 2773.15,518.884 2783.07,508.967 C2793.68,498.353 2805.96,493.046 2819.9,493.046 C2823.39,493.046 2825.95,494.325 2827.57,496.881 C2828.89,495.409 2830.17,494.673 2831.41,494.673 M2810.61,540.925 C2810.53,540.305 2810.49,539.686 2810.49,539.066 C2810.49,538.756 2814.44,527.948 2822.34,506.643 C2823.12,504.551 2823.89,502.769 2824.67,501.297 C2821.65,500.678 2818.66,500.368 2815.72,500.368 C2810.3,500.368 2803.09,504.977 2794.11,514.197 C2786.05,522.409 2782.02,529.498 2782.02,535.463 C2782.02,542.049 2785.16,545.341 2791.43,545.341 C2799.03,545.341 2805.42,543.869 2810.61,540.925"/>
<path class="Note" d="M2838.5,670.351 C2848.96,663.765 2856.55,658.381 2861.28,654.197 C2869.95,646.527 2874.29,638.78 2874.29,630.955 C2874.29,621.813 2868.17,617.242 2855.93,617.242 C2843.07,617.242 2829.67,626.5 2815.72,645.017 C2806.27,657.568 2799.57,669.421 2795.62,680.577 C2800.5,677.401 2805.65,675.813 2811.07,675.813 C2816.19,675.813 2820.25,678.098 2823.27,682.669 C2825.37,685.846 2826.41,691.269 2826.41,698.939 C2826.41,705.834 2822.77,713.93 2815.49,723.227 C2811,728.96 2806,731.826 2800.5,731.826 C2793.52,731.826 2788.64,730.432 2785.85,727.643 C2781.9,723.692 2779.93,715.867 2779.93,704.168 C2779.93,684.49 2787.87,665.121 2803.75,646.063 C2821.65,624.602 2838.81,613.872 2855.23,613.872 C2867.94,613.872 2877.43,616.855 2883.7,622.82 C2887.35,626.307 2889.17,631.343 2889.17,637.928 C2889.17,645.288 2881.92,653.5 2867.43,662.565 C2859.84,667.368 2850.2,669.963 2838.5,670.351 M2794.11,685.458 C2792.17,691.966 2791.2,698.203 2791.2,704.168 C2791.2,718.346 2793.45,725.435 2797.94,725.435 C2802.2,725.435 2805.53,722.413 2807.93,716.37 C2810.72,709.553 2812.12,701.999 2812.12,693.709 C2812.12,686.349 2809.68,682.669 2804.8,682.669 C2801.39,682.669 2797.82,683.599 2794.11,685.458"/>
<path class="Note" d="M3237.81,1105.33 C3237.42,1106.02 3236.84,1106.37 3236.07,1106.37 C3235.37,1106.37 3234.48,1106.06 3233.39,1105.44 C3231.77,1104.51 3230.95,1103.58 3230.95,1102.65 C3230.95,1102.34 3231.07,1101.96 3231.3,1101.49 C3249.04,1075.92 3260.12,1054.39 3264.54,1036.88 C3264.85,1036.34 3265.39,1036.06 3266.17,1036.06 C3267.17,1036.06 3268.61,1036.61 3270.47,1037.69 C3273.02,1039.16 3274.3,1040.48 3274.3,1041.64 C3274.3,1041.95 3274.22,1042.22 3274.07,1042.46 C3268.18,1059.19 3256.09,1080.15 3237.81,1105.33 M3328.45,1056.98 C3338.91,1050.4 3346.5,1045.01 3351.23,1040.83 C3359.9,1033.16 3364.24,1025.41 3364.24,1017.59 C3364.24,1008.44 3358.12,1003.87 3345.88,1003.87 C3333.02,1003.87 3319.62,1013.13 3305.67,1031.65 C3296.22,1044.2 3289.52,1056.05 3285.57,1067.21 C3290.45,1064.03 3295.6,1062.44 3301.02,1062.44 C3306.14,1062.44 3310.2,1064.73 3313.22,1069.3 C3315.32,1072.48 3316.36,1077.9 3316.36,1085.57 C3316.36,1092.47 3312.72,1100.56 3305.44,1109.86 C3300.95,1115.59 3295.95,1118.46 3290.45,1118.46 C3283.47,1118.46 3278.59,1117.06 3275.8,1114.27 C3271.85,1110.32 3269.88,1102.5 3269.88,1090.8 C3269.88,1071.12 3277.82,1051.75 3293.7,1032.69 C3311.6,1011.23 3328.76,1000.5 3345.18,1000.5 C3357.89,1000.5 3367.38,1003.49 3373.65,1009.45 C3377.3,1012.94 3379.12,1017.97 3379.12,1024.56 C3379.12,1031.92 3371.87,1040.13 3357.38,1049.2 C3349.79,1054 3340.15,1056.59 3328.45,1056.98 M3284.06,1072.09 C3282.12,1078.6 3281.15,1084.83 3281.15,1090.8 C3281.15,1104.98 3283.4,1112.07 3287.89,1112.07 C3292.15,1112.07 3295.48,1109.04 3297.88,1103 C3300.67,1096.18 3302.07,1088.63 3302.07,1080.34 C3302.07,1072.98 3299.63,1069.3 3294.75,1069.3 C3291.34,1069.3 3287.77,1070.23 3284.06,1072.09"/>
<path class="Note" d="M3310.15,851.839 C3314.73,851.839 3317.01,854.705 3317.01,860.438 C3317.01,864.467 3314.49,870.471 3309.46,878.451 C3305.43,884.881 3303.41,891.157 3303.41,897.277 C3303.41,900.763 3308.49,902.507 3318.64,902.507 C3327.01,902.507 3338.67,897.974 3353.62,888.91 C3338.59,903.398 3325.53,910.641 3314.45,910.641 C3304.46,910.641 3297.49,909.131 3293.54,906.109 C3292.53,905.334 3291.68,904.405 3290.98,903.32 C3287.11,908.046 3280.64,910.409 3271.57,910.409 C3262.9,910.409 3256.23,908.627 3251.58,905.063 C3248.49,902.662 3246.94,898.827 3246.94,893.558 C3246.94,885.191 3251.89,876.049 3261.81,866.133 C3272.43,855.519 3284.7,850.212 3298.65,850.212 C3302.14,850.212 3304.69,851.49 3306.32,854.047 C3307.64,852.575 3308.92,851.839 3310.15,851.839 M3289.35,898.091 C3289.28,897.471 3289.24,896.851 3289.24,896.231 C3289.24,895.921 3293.19,885.114 3301.09,863.808 C3301.87,861.717 3302.64,859.935 3303.41,858.463 C3300.39,857.843 3297.41,857.533 3294.47,857.533 C3289.04,857.533 3281.84,862.143 3272.85,871.362 C3264.79,879.574 3260.77,886.663 3260.77,892.629 C3260.77,899.214 3263.9,902.507 3270.18,902.507 C3277.77,902.507 3284.16,901.035 3289.35,898.091"/>
<path class="Note" d="M3265.88,821.118 C3262.08,821.118 3260.18,817.05 3260.18,808.916 L3260.18,774.866 C3260.18,771.612 3261.77,769.985 3264.95,769.985 C3266.34,769.985 3267.39,770.101 3268.09,770.333 C3270.57,765.995 3274.63,762.354 3280.29,759.41 C3288.19,755.304 3296.21,753.25 3304.34,753.25 C3310.77,753.25 3313.99,755.652 3313.99,760.456 C3313.99,764.484 3311.82,766.499 3307.48,766.499 C3304.38,766.499 3301.44,765.801 3298.65,764.407 C3296.17,763.167 3293.54,762.547 3290.75,762.547 C3285.94,762.547 3278.86,765.685 3269.48,771.96 C3270.8,778.236 3271.46,785.557 3271.46,793.924 C3271.46,812.053 3269.6,821.118 3265.88,821.118"/>
<path class="Note" d="M3317.24,670.351 C3327.7,663.765 3335.3,658.381 3340.02,654.197 C3348.7,646.527 3353.04,638.78 3353.04,630.955 C3353.04,621.813 3346.92,617.242 3334.68,617.242 C3321.81,617.242 3308.41,626.5 3294.47,645.017 C3285.01,657.568 3278.31,669.421 3274.36,680.577 C3279.24,677.401 3284.39,675.813 3289.82,675.813 C3294.93,675.813 3299,678.098 3302.02,682.669 C3304.11,685.846 3305.16,691.269 3305.16,698.939 C3305.16,705.834 3301.52,713.93 3294.23,723.227 C3289.74,728.96 3284.74,731.826 3279.24,731.826 C3272.27,731.826 3267.39,730.432 3264.6,727.643 C3260.65,723.692 3258.67,715.867 3258.67,704.168 C3258.67,684.49 3266.61,665.121 3282.5,646.063 C3300.39,624.602 3317.55,613.872 3333.98,613.872 C3346.68,613.872 3356.17,616.855 3362.45,622.82 C3366.09,626.307 3367.91,631.343 3367.91,637.928 C3367.91,645.288 3360.67,653.5 3346.18,662.565 C3338.59,667.368 3328.94,669.963 3317.24,670.351 M3272.85,685.458 C3270.91,691.966 3269.95,698.203 3269.95,704.168 C3269.95,718.346 3272.19,725.435 3276.69,725.435 C3280.95,725.435 3284.28,722.413 3286.68,716.37 C3289.47,709.553 3290.86,701.999 3290.86,693.709 C3290.86,686.349 3288.42,682.669 3283.54,682.669 C3280.13,682.669 3276.57,683.599 3272.85,685.458"/>
<path class="Note" d="M3789.45,1059.89 C3794.03,1059.89 3796.31,1062.75 3796.31,1068.49 C3796.31,1072.52 3793.79,1078.52 3788.76,1086.5 C3784.73,1092.93 3782.71,1099.21 3782.71,1105.33 C3782.71,1108.81 3787.79,1110.56 3797.94,1110.56 C3806.31,1110.56 3817.97,1106.02 3832.92,1096.96 C3817.89,1111.45 3804.83,1118.69 3793.75,1118.69 C3783.76,1118.69 3776.79,1117.18 3772.84,1114.16 C3771.83,1113.38 3770.98,1112.45 3770.28,1111.37 C3766.41,1116.09 3759.94,1118.46 3750.87,1118.46 C3742.2,1118.46 3735.53,1116.68 3730.88,1113.11 C3727.79,1110.71 3726.24,1106.88 3726.24,1101.61 C3726.24,1093.24 3731.19,1084.1 3741.11,1074.18 C3751.72,1063.57 3764,1058.26 3777.95,1058.26 C3781.44,1058.26 3783.99,1059.54 3785.62,1062.1 C3786.94,1060.62 3788.22,1059.89 3789.45,1059.89 M3768.65,1106.14 C3768.58,1105.52 3768.54,1104.9 3768.54,1104.28 C3768.54,1103.97 3772.49,1093.16 3780.39,1071.86 C3781.17,1069.77 3781.94,1067.98 3782.71,1066.51 C3779.69,1065.89 3776.71,1065.58 3773.77,1065.58 C3768.34,1065.58 3761.14,1070.19 3752.15,1079.41 C3744.09,1087.62 3740.07,1094.71 3740.07,1100.68 C3740.07,1107.26 3743.2,1110.56 3749.48,1110.56 C3757.07,1110.56 3763.46,1109.08 3768.65,1106.14"/>
<path class="Note" d="M3789.45,851.839 C3794.03,851.839 3796.31,854.705 3796.31,860.438 C3796.31,864.467 3793.79,870.471 3788.76,878.451 C3784.73,884.881 3782.71,891.157 3782.71,897.277 C3782.71,900.763 3787.79,902.507 3797.94,902.507 C3806.31,902.507 3817.97,897.974 3832.92,888.91 C3817.89,903.398 3804.83,910.641 3793.75,910.641 C3783.76,910.641 3776.79,909.131 3772.84,906.109 C3771.83,905.334 3770.98,904.405 3770.28,903.32 C3766.41,908.046 3759.94,910.409 3750.87,910.409 C3742.2,910.409 3735.53,908.627 3730.88,905.063 C3727.79,902.662 3726.24,898.827 3726.24,893.558 C3726.24,885.191 3731.19,876.049 3741.11,866.133 C3751.72,855.519 3764,850.212 3777.95,850.212 C3781.44,850.212 3783.99,851.49 3785.62,854.047 C3786.94,852.575 3788.22,851.839 3789.45,851.839 M3768.65,898.091 C3768.58,897.471 3768.54,896.851 3768.54,896.231 C3768.54,895.921 3772.49,885.114 3780.39,863.808 C3781.17,861.717 3781.94,859.935 3782.71,858.463 C3779.69,857.843 3776.71,857.533 3773.77,857.533 C3768.34,857.533 3761.14,862.143 3752.15,871.362 C3744.09,879.574 3740.07,886.663 3740.07,892.629 C3740.07,899.214 3743.2,902.507 3749.48,902.507 C3757.07,902.507 3763.46,901.035 3768.65,898.091"/>
<path class="Note" d="M3789.45,762.547 C3794.03,762.547 3796.31,765.414 3796.31,771.147 C3796.31,775.176 3793.79,781.18 3788.76,789.16 C3784.73,795.59 3782.71,801.865 3782.71,807.986 C3782.71,811.472 3787.79,813.215 3797.94,813.215 C3806.31,813.215 3817.97,808.683 3832.92,799.619 C3817.89,814.106 3804.83,821.35 3793.75,821.35 C3783.76,821.35 3776.79,819.839 3772.84,816.818 C3771.83,816.043 3770.98,815.113 3770.28,814.029 C3766.41,818.755 3759.94,821.118 3750.87,821.118 C3742.2,821.118 3735.53,819.336 3730.88,815.772 C3727.79,813.37 3726.24,809.535 3726.24,804.267 C3726.24,795.9 3731.19,786.758 3741.11,776.841 C3751.72,766.227 3764,760.92 3777.95,760.92 C3781.44,760.92 3783.99,762.199 3785.62,764.755 C3786.94,763.283 3788.22,762.547 3789.45,762.547 M3768.65,808.799 C3768.58,808.179 3768.54,807.56 3768.54,806.94 C3768.54,806.63 3772.49,795.822 3780.39,774.517 C3781.17,772.425 3781.94,770.643 3782.71,769.171 C3779.69,768.552 3776.71,768.242 3773.77,768.242 C3768.34,768.242 3761.14,772.851 3752.15,782.071 C3744.09,790.283 3740.07,797.372 3740.07,803.337 C3740.07,809.923 3743.2,813.215 3749.48,813.215 C3757.07,813.215 3763.46,811.743 3768.65,808.799"/>
<path class="Note" d="M3789.45,673.256 C3794.03,673.256 3796.31,676.123 3796.31,681.856 C3796.31,685.884 3793.79,691.888 3788.76,699.868 C3784.73,706.299 3782.71,712.574 3782.71,718.694 C3782.71,722.181 3787.79,723.924 3797.94,723.924 C3806.31,723.924 3817.97,719.392 3832.92,710.327 C3817.89,724.815 3804.83,732.059 3793.75,732.059 C3783.76,732.059 3776.79,730.548 3772.84,727.527 C3771.83,726.752 3770.98,725.822 3770.28,724.737 C3766.41,729.463 3759.94,731.826 3750.87,731.826 C3742.2,731.826 3735.53,730.044 3730.88,726.481 C3727.79,724.079 3726.24,720.244 3726.24,714.976 C3726.24,706.609 3731.19,697.467 3741.11,687.55 C3751.72,676.936 3764,671.629 3777.95,671.629 C3781.44,671.629 3783.99,672.907 3785.62,675.464 C3786.94,673.992 3788.22,673.256 3789.45,673.256 M3768.65,719.508 C3768.58,718.888 3768.54,718.268 3768.54,717.649 C3768.54,717.339 3772.49,706.531 3780.39,685.226 C3781.17,683.134 3781.94,681.352 3782.71,679.88 C3779.69,679.26 3776.71,678.95 3773.77,678.95 C3768.34,678.95 3761.14,683.56 3752.15,692.779 C3744.09,700.992 3740.07,708.081 3740.07,714.046 C3740.07,720.631 3743.2,723.924 3749.48,723.924 C3757.07,723.924 3763.46,722.452 3768.65,719.508"/>
<path class="Clef" transform="matrix(2.3811,0,0,2.3811,212.156,2161.17)" d="M25.4,-25.1 C17.8,-25.1 11.7,-20.7 11.6,-20.7 C5.8,-16.4 3.5,-11.3 2.6,-7.8 C2.1,-6 1.9,-4.2 1.9,-2.5 C1.9,-0.1 2.3,2.1 3.2,4 C4.4,6.7 6.7,8.6 9.7,9.6 C10.9,10 12.2,10.2 13.5,10.2 C15.7,10.2 18,9.6 19.9,8.5 C23,6.8 24.9,3.2 24.9,-0.7 C24.9,-4.2 23.1,-7.4 20.1,-9.3 C18,-10.7 16,-11.1 14.3,-11.1 C13.1,-11.1 12,-10.9 11.1,-10.6 C10.1,-10.2 8.4,-9.2 7.6,-8.5 C7.9,-10.4 9.1,-13.3 10.2,-14.9 C11.3,-16.5 13.5,-18.5 15.2,-19.4 C17.7,-20.8 20.9,-21.4 24.4,-21.4 C34.6,-21.4 39.6,-13.2 39.6,3.6 C39.6,12.9 36.1,21.8 33.1,27.7 C29.8,34.3 25.4,40.6 21.5,44.1 C11.1,53.6 1.3,58.1 1.2,58.1 C1.2,58.1 -0.3,59 0.1,60.5 C0.4,61.5 1.3,61.7 1.9,61.7 C2,61.7 2.3,61.6 2.4,61.6 C2.5,61.6 13.9,56.9 23,49.8 C28.1,46.1 32.7,42.1 36.7,37.8 C40.3,33.9 43.4,29.7 45.9,25.5 C50.3,18 52.8,10.2 52.8,3.5 C52.8,-4.8 50.6,-11.7 46.5,-16.6 C41.8,-22.2 34.7,-25.1 25.4,-25.1 M56.8,-12.4 C56.8,-9.6 59,-7.4 61.6,-7.4 C64.2,-7.4 66.4,-9.6 66.4,-12.4 C66.4,-15.2 64.2,-17.5 61.6,-17.5 C59,-17.5 56.8,-15.2 56.8,-12.4 M56.8,12.3 C56.8,15.1 59,17.4 61.6,17.4 C64.2,17.4 66.4,15.1 66.4,12.3 C66.4,9.5 64.2,7.2 61.6,7.2 C59,7.2 56.8,9.5 56.8,12.3"/>
<path class="Clef" transform="matrix(2.3811,0,0,2.3811,212.156,1570.39)" d="M63.37,-5.89004 C62.14,-11.32 59.5,-15.14 58.72,-16.1801 C55.5301,-20.45 51.52,-23.3 46.8301,-24.65 C43.72,-25.54 40.72,-25.65 38.3,-25.47 C37.2601,-31.4801 36.2601,-37.3601 35.35,-42.8101 C40.79,-48.97 44.42,-54.77 46.69,-59.07 C50.1601,-65.65 51.3101,-70.2301 51.3601,-70.4301 C53.0801,-75.64 53.44,-83.34 52.34,-91.55 C51.3301,-99.1 49.24,-105.81 46.89,-109.06 C45.8601,-110.49 44.8101,-111.22 43.77,-111.22 C42.55,-111.22 40.04,-109.98 37.15,-107.21 C34.85,-105.01 31.5801,-101.12 29.02,-95.1101 C26.02,-88.05 25.8101,-78.5601 26.1601,-71.84 C26.54,-64.57 27.65,-58.8801 27.6601,-58.8301 C27.6801,-58.74 27.94,-57.24 28.39,-54.67 C28.1601,-54.44 27.92,-54.22 27.67,-53.9801 C26.6301,-52.9801 25.44,-51.84 24.0601,-50.4601 C23.2,-49.6 22.25,-48.69 21.25,-47.72 C12.79,-39.57 0,-27.25 0,-8.1 C0,-3.4 0.9,1.01992 2.68008,5.02998 C4.27002,8.62998 6.57002,11.91 9.5,14.78 C17.2301,22.33 27.82,25.5399 34.8801,25.38 C37.8301,25.31 40.4601,25.0699 42.85,24.6199 C44.6801,34.2199 45.82,41.25 45.8601,46.5899 C45.9,53.1 44.25,57.0699 40.35,59.8399 C37.92,61.5699 35.1101,62.5199 32.0101,62.6699 C29.42,62.7899 27.1601,62.3199 25.7301,61.91 L25.72,61.91 C25.72,61.91 25.4301,61.83 25.42,61.63 C25.4101,61.45 25.7601,61.4 25.77,61.4 L25.79,61.4 C27.7101,60.96 31.2801,59.73 33.64,56.43 C35.44,53.91 36.3101,49.2899 34.47,45.35 C33.3601,42.96 30.85,40.01 25.2301,39.56 C22.74,39.36 20.47,39.8699 18.47,41.0699 C16.6601,42.15 15.1601,43.7899 14.1101,45.7899 C11.65,50.4899 12.1101,56.2199 15.24,60.06 C18.2,63.68 22.82,65.9899 28.25,66.5699 C29.1,66.66 29.95,66.7 30.8,66.7 C31.5101,66.7 32.22,66.6699 32.92,66.61 C31.72,66.9399 30.64,67.4899 29.77,68.25 C28.2801,69.5399 27.44,71.38 27.44,73.41 C27.44,75.28 28.0601,76.65 29.55,78.0399 C28.4101,78.5 27.55,78.98 26.79,79.56 C25.25,80.73 24.34,82.46 24.34,84.1899 C24.34,87.45 27.3,89.63 31.72,89.63 C37.1301,89.63 40.9101,86.63 40.9101,82.35 C40.9101,80.1199 39.9101,78.18 38.0801,76.83 C41.0101,75.6199 42.37,73.9399 42.37,71.56 C42.39,70.05 41.69,68.61 40.49,67.6899 C39.2801,66.7399 37.62,66.2399 35.69,66.2399 L35.5101,66.2399 C38.2801,65.7 40.92,64.7 43.2101,63.28 C46.87,60.71 48.99,56.73 49.67,51.1 C50.2301,46.46 49.84,40.55 48.44,32.48 C48.0801,30.3899 47.54,27.36 46.8801,23.6 C52.6301,21.68 56.79,18.11 60.5601,12.26 C63.85,6.51992 64.8,0.419922 63.37,-5.89004 M32.39,87.5399 C30.19,87.5399 28.7301,86.1199 28.7301,84.01 C28.7301,82.11 29.65,80.5 31.32,79.4699 C31.6801,79.66 31.77,79.71 32.1101,79.88 C33.3,80.48 33.3,80.48 33.55,80.63 L33.5601,80.6399 C35.47,81.73 36.25,82.76 36.25,84.18 C36.24,86.0899 34.59,87.5399 32.39,87.5399 M38.3101,71.63 C38.3101,73.2699 37.7301,74.3399 36.1801,75.53 C34.74,74.78 34.35,74.56 33.9801,74.3399 L33.8801,74.28 C32.3301,73.3399 31.85,72.66 31.85,71.4 C31.85,69.6 33.2301,68.3399 35.19,68.3399 C37.17,68.35 38.3101,69.55 38.3101,71.63 M33.15,-83.8101 C34.9301,-89.55 37.67,-92.8 39.6601,-94.5301 C41.4101,-96.05 43.0601,-96.7601 43.9801,-96.7601 C44.12,-96.7601 44.24,-96.74 44.34,-96.7101 C44.8,-96.57 45.3301,-96 45.8,-95.1301 C48.1101,-90.84 47.37,-84.1301 46.0301,-79.69 C44.4,-74.29 41.4801,-68.6801 32.69,-59.0601 C32.52,-60.17 32.3601,-61.22 32.2101,-62.2 C30.95,-70.49 31.27,-77.7601 33.15,-83.8101 M29.15,20.31 C24.5101,19.0899 20.0801,16.5899 16.32,13.0899 C15.0101,11.86 13.14,9.68994 11.67,6.3 C10.3101,3.13994 9.65,-0.290039 9.7,-3.88008 C9.77002,-8.57002 11.0801,-13.39 13.59,-18.1801 C16.5101,-23.7601 21.07,-29.29 27.1301,-34.62 C28.5801,-35.9 29.95,-37.1801 31.24,-38.4601 C32,-34.2 32.8301,-29.5101 33.7101,-24.6301 C29.8601,-23.3601 25.1101,-20.2101 22,-14.5601 C18.47,-7.99004 18.6101,-2.47002 19.34,1.00996 C20.2801,5.46992 22.8101,9.22998 26.27,11.3199 C27.2,11.88 31.3301,14.01 33.17,13.43 C33.54,13.31 33.8101,13.0899 33.95,12.76 C34.4601,11.5899 33.44,10.95 31.8801,9.98994 C31.2801,9.61992 30.6101,9.2 29.8801,8.66992 C26.5601,6.17998 25.1101,1.72998 26.1801,-2.65 C26.7601,-5.05 28.04,-7.21006 29.8801,-8.91006 C31.55,-10.4601 33.59,-11.5601 35.97,-12.2 C38.0101,-0.960059 40.07,10.1899 41.7101,18.55 C41.84,19.2399 41.9801,19.91 42.1101,20.58 C37.7101,21.51 33.37,21.4199 29.15,20.31 M54.9,10.1 C53.7301,13.28 51.27,17.35 46.14,19.41 C46.07,18.9899 45.99,18.56 45.9101,18.13 C44.3601,9.36992 42.4301,-1.61006 40.47,-12.87 C50.82,-13.35 55.09,-5.91006 55.9801,-1.08008 C56.45,1.45 56.45,5.88994 54.9,10.1"/>
<path class="KeySig" transform="matrix(2.3811,0,0,2.3811,429.785,2161.17)" d="M23.3,-10.6 C23.9,-10.7 24.4,-11.4 24.4,-12 L24.4,-17.9 C24.4,-18.7 23.8,-19.3 23,-19.3 L22.8,-19.3 L19.5,-18.6 L19.5,-33.5 L16.7,-33.5 L16.7,-18 L7.8,-16.2 L7.8,-30.3 L5,-30.3 L5,-15.6 L1.1,-14.8 C0.5,-14.7 0,-14 0,-13.4 L0,-13.2 L0,-7.4 L0,-7.6 C0,-6.8 0.6,-6.2 1.4,-6.2 L1.7,-6.2 L5,-6.9 L5,9.6 L1.1,10.4 C0.5,10.5 0,11.2 0,11.8 L0,17.6 C0,18.4 0.6,19 1.4,19 L1.7,19 L5,18.3 L5,33.2 L7.8,33.2 L7.8,17.7 L16.7,15.9 L16.7,30 L19.5,30 L19.5,15.3 L23.3,14.6 C23.9,14.5 24.4,13.8 24.4,13.2 L24.4,7.3 C24.4,6.5 23.8,5.9 23,5.9 L22.8,5.9 L19.5,6.6 L19.5,-9.9 L23.3,-10.6 M7.8,9.1 L7.8,-7.5 L16.7,-9.3 L16.7,7.2 L7.8,9.1 "/>
<path class="KeySig" transform="matrix(2.3811,0,0,2.3811,429.785,1391.81)" d="M23.3,-10.6 C23.9,-10.7 24.4,-11.4 24.4,-12 L24.4,-17.9 C24.4,-18.7 23.8,-19.3 23,-19.3 L22.8,-19.3 L19.5,-18.6 L19.5,-33.5 L16.7,-33.5 L16.7,-18 L7.8,-16.2 L7.8,-30.3 L5,-30.3 L5,-15.6 L1.1,-14.8 C0.5,-14.7 0,-14 0,-13.4 L0,-13.2 L0,-7.4 L0,-7.6 C0,-6.8 0.6,-6.2 1.4,-6.2 L1.7,-6.2 L5,-6.9 L5,9.6 L1.1,10.4 C0.5,10.5 0,11.2 0,11.8 L0,17.6 C0,18.4 0.6,19 1.4,19 L1.7,19 L5,18.3 L5,33.2 L7.8,33.2 L7.8,17.7 L16.7,15.9 L16.7,30 L19.5,30 L19.5,15.3 L23.3,14.6 C23.9,14.5 24.4,13.8 24.4,13.2 L24.4,7.3 C24.4,6.5 23.8,5.9 23,5.9 L22.8,5.9 L19.5,6.6 L19.5,-9.9 L23.3,-10.6 M7.8,9.1 L7.8,-7.5 L16.7,-9.3 L16.7,7.2 L7.8,9.1 "/>
<path class="FiguredBass" d="M724.276,2531.6 C723.595,2532.34 722.699,2532.71 721.585,2532.71 C720.472,2532.71 719.56,2532.32 718.849,2531.55 C718.137,2530.78 717.782,2529.89 717.782,2528.9 L717.782,2515.64 L704.515,2515.64 C703.402,2515.64 702.489,2515.25 701.778,2514.48 C701.067,2513.71 700.711,2512.82 700.711,2511.83 C700.711,2510.84 701.067,2509.96 701.778,2509.19 C702.489,2508.42 703.402,2508.03 704.515,2508.03 L717.782,2508.03 L717.782,2494.76 C717.782,2493.77 718.137,2492.89 718.849,2492.12 C719.56,2491.35 720.472,2490.96 721.585,2490.96 C722.699,2490.96 723.611,2491.35 724.322,2492.12 C725.033,2492.89 725.389,2493.77 725.389,2494.76 L725.389,2508.03 L738.656,2508.03 C739.769,2508.03 740.681,2508.42 741.392,2509.19 C742.104,2509.96 742.459,2510.84 742.459,2511.83 C742.459,2512.82 742.104,2513.71 741.392,2514.48 C740.681,2515.25 739.769,2515.64 738.656,2515.64 L725.389,2515.64 L725.389,2528.9 C725.389,2529.89 725.018,2530.79 724.276,2531.6 M777.7,2477.32 C773.123,2477.32 770.077,2479.16 768.561,2482.84 C767.046,2486.52 766.288,2491.73 766.288,2498.48 L766.288,2509.42 C769.505,2508.12 772.288,2507.44 774.638,2507.38 C782.678,2507.38 789.002,2509.16 793.61,2512.72 C798.218,2516.27 800.522,2521.56 800.522,2528.58 C800.522,2535.6 798.187,2540.9 793.517,2544.49 C788.848,2548.08 782.555,2549.87 774.638,2549.87 C766.536,2549.87 760.196,2546.11 755.62,2538.6 C751.043,2531.08 748.754,2522.16 748.754,2511.83 C748.754,2501.57 751.414,2492.66 756.733,2485.12 C762.052,2477.57 769.041,2473.8 777.7,2473.8 C783.39,2473.8 788.307,2475.24 792.451,2478.11 C796.594,2480.99 798.666,2484.78 798.666,2489.48 C798.666,2492.2 797.677,2494.55 795.698,2496.53 C793.718,2498.51 791.353,2499.5 788.6,2499.5 C785.848,2499.5 783.482,2498.51 781.503,2496.53 C779.524,2494.55 778.535,2492.2 778.535,2489.48 C778.535,2486.82 779.524,2484.47 781.503,2482.43 C782.184,2481.62 783.142,2480.94 784.379,2480.38 C784.07,2479.58 783.452,2478.96 782.524,2478.53 C781.163,2477.72 779.555,2477.32 777.7,2477.32 M782.245,2515.27 C781.132,2512.36 778.689,2510.91 774.916,2510.91 C771.144,2510.91 768.809,2512.36 767.912,2515.27 C767.015,2518.17 766.567,2522.6 766.567,2528.53 C766.567,2535.52 767.015,2540.22 767.912,2542.64 C768.809,2545.05 771.144,2546.25 774.916,2546.25 C778.689,2546.25 781.132,2544.8 782.245,2541.89 C783.359,2538.99 783.915,2534.55 783.915,2528.58 C783.915,2522.61 783.359,2518.17 782.245,2515.27"/>
<path class="FiguredBass" d="M2803.95,2547.49 C2797.95,2547.49 2793.59,2545.82 2790.87,2542.48 C2789.88,2541.24 2788.62,2540.1 2787.07,2539.05 C2785.52,2538 2783.82,2537.47 2781.97,2537.47 C2779.55,2537.47 2777.39,2538.23 2775.47,2539.74 C2773.56,2541.26 2772.6,2543.28 2772.6,2545.82 C2772.6,2546.93 2772.04,2547.49 2770.93,2547.49 C2769.69,2547.49 2769.07,2546.93 2769.07,2545.82 C2769.07,2542.05 2769.95,2538.6 2771.72,2535.48 C2773.48,2532.35 2775.69,2529.72 2778.35,2527.59 C2781.01,2525.46 2783.88,2523.17 2786.98,2520.73 C2790.07,2518.28 2792.93,2515.92 2795.56,2513.63 C2798.19,2511.34 2800.38,2508.45 2802.14,2504.95 C2803.91,2501.46 2804.79,2497.64 2804.79,2493.5 C2804.79,2488.3 2803.94,2483.91 2802.24,2480.32 C2800.54,2476.74 2797.86,2474.94 2794.21,2474.94 C2792.11,2474.94 2790.29,2475.45 2788.74,2476.47 C2787.19,2477.49 2786.42,2478.84 2786.42,2480.51 C2786.42,2481.81 2787.3,2483.51 2789.06,2485.61 C2790.83,2487.71 2791.71,2489.48 2791.71,2490.9 C2791.71,2493.87 2790.7,2496.36 2788.69,2498.37 C2786.68,2500.38 2784.26,2501.38 2781.41,2501.38 C2778.44,2501.38 2775.95,2500.35 2773.94,2498.27 C2771.93,2496.2 2770.93,2493.74 2770.93,2490.9 C2770.93,2485.21 2773.2,2480.54 2777.75,2476.89 C2782.29,2473.24 2787.78,2471.42 2794.21,2471.42 C2801.82,2471.42 2808.45,2473.47 2814.11,2477.59 C2819.77,2481.7 2822.6,2487 2822.6,2493.5 C2822.6,2497.89 2821.81,2501.69 2820.24,2504.91 C2818.66,2508.12 2816.4,2510.72 2813.46,2512.7 C2810.53,2514.68 2807.59,2516.36 2804.65,2517.76 C2801.71,2519.15 2798.26,2520.65 2794.31,2522.26 C2790.35,2523.86 2787.16,2525.44 2784.75,2526.99 C2786.05,2526.68 2787.38,2526.52 2788.74,2526.52 C2793.32,2526.52 2798.08,2528.01 2803.03,2530.98 C2807.97,2533.95 2811.87,2535.43 2814.72,2535.43 C2816.32,2535.43 2817.64,2535.14 2818.66,2534.55 C2819.68,2533.96 2820.34,2533.31 2820.65,2532.6 C2820.96,2531.89 2821.32,2531.22 2821.72,2530.61 C2822.12,2529.99 2822.57,2529.68 2823.07,2529.68 C2824.3,2529.68 2824.92,2530.3 2824.92,2531.53 C2824.92,2534.19 2823,2537.52 2819.17,2541.51 C2815.33,2545.5 2810.26,2547.49 2803.95,2547.49"/>
<path class="FiguredBass" d="M3278.52,2474.94 C3273.95,2474.94 3270.9,2476.78 3269.39,2480.46 C3267.87,2484.14 3267.11,2489.35 3267.11,2496.09 L3267.11,2507.04 C3270.33,2505.74 3273.11,2505.06 3275.46,2505 C3283.5,2505 3289.83,2506.78 3294.44,2510.33 C3299.04,2513.89 3301.35,2519.18 3301.35,2526.2 C3301.35,2533.22 3299.01,2538.52 3294.34,2542.11 C3289.67,2545.7 3283.38,2547.49 3275.46,2547.49 C3267.36,2547.49 3261.02,2543.73 3256.44,2536.22 C3251.87,2528.7 3249.58,2519.78 3249.58,2509.45 C3249.58,2499.19 3252.24,2490.28 3257.56,2482.73 C3262.88,2475.19 3269.87,2471.42 3278.52,2471.42 C3284.21,2471.42 3289.13,2472.85 3293.28,2475.73 C3297.42,2478.61 3299.49,2482.39 3299.49,2487.09 C3299.49,2489.82 3298.5,2492.17 3296.52,2494.15 C3294.54,2496.12 3292.18,2497.11 3289.43,2497.11 C3286.67,2497.11 3284.31,2496.12 3282.33,2494.15 C3280.35,2492.17 3279.36,2489.82 3279.36,2487.09 C3279.36,2484.44 3280.35,2482.09 3282.33,2480.04 C3283.01,2479.24 3283.97,2478.56 3285.2,2478 C3284.9,2477.2 3284.28,2476.58 3283.35,2476.15 C3281.99,2475.34 3280.38,2474.94 3278.52,2474.94 M3283.07,2512.89 C3281.96,2509.98 3279.51,2508.53 3275.74,2508.53 C3271.97,2508.53 3269.63,2509.98 3268.74,2512.89 C3267.84,2515.79 3267.39,2520.22 3267.39,2526.15 C3267.39,2533.14 3267.84,2537.84 3268.74,2540.25 C3269.63,2542.67 3271.97,2543.87 3275.74,2543.87 C3279.51,2543.87 3281.96,2542.42 3283.07,2539.51 C3284.18,2536.6 3284.74,2532.17 3284.74,2526.2 C3284.74,2520.23 3284.18,2515.79 3283.07,2512.89"/>
<path class="FiguredBass" d="M3255.89,2577.17 L3260.34,2577.82 C3261.52,2578 3262.97,2578.19 3264.7,2578.37 C3268.97,2578.87 3273.08,2579.11 3277.04,2579.11 C3281,2579.11 3285.17,2578.87 3289.56,2578.37 C3291.3,2578.19 3292.81,2578 3294.11,2577.82 L3298.66,2577.17 C3299.58,2577.17 3300.3,2577.48 3300.79,2578.09 C3301.16,2578.59 3301.1,2579.08 3300.6,2579.58 C3290.96,2589.04 3277.63,2593.77 3260.62,2593.77 C3259.94,2593.77 3259.34,2594.02 3258.81,2594.51 C3258.28,2595.01 3258.02,2595.63 3258.02,2596.37 L3258.02,2608.15 C3262.41,2603.82 3267.73,2601.66 3273.98,2601.66 C3282.7,2601.66 3289.5,2603.7 3294.39,2607.78 C3299.71,2603.76 3302.49,2598.63 3302.74,2592.38 C3302.8,2590.4 3303.45,2588.79 3304.69,2587.56 C3306.05,2586.32 3307.69,2585.7 3309.6,2585.7 C3311.52,2585.7 3313.14,2586.35 3314.47,2587.65 C3315.8,2588.95 3316.47,2590.53 3316.47,2592.38 C3316.47,2601.97 3310.81,2609.23 3299.49,2614.18 C3301.35,2617.83 3302.27,2622.28 3302.27,2627.54 C3302.27,2634.53 3299.49,2640.56 3293.93,2645.63 C3288.36,2650.7 3281.71,2653.24 3273.98,2653.24 C3267.3,2653.24 3261.5,2651.73 3256.58,2648.69 C3251.67,2645.66 3249.21,2641.46 3249.21,2636.08 C3249.21,2633.36 3250.2,2630.99 3252.18,2628.98 C3254.16,2626.97 3256.52,2625.97 3259.27,2625.97 C3262.03,2625.97 3264.36,2626.95 3266.28,2628.93 C3268.2,2630.91 3269.15,2633.29 3269.15,2636.08 C3269.15,2637.31 3268.13,2638.66 3266.09,2640.11 C3264.05,2641.57 3263.03,2642.91 3263.03,2644.15 C3263.03,2647.86 3266.68,2649.72 3273.98,2649.72 C3281.09,2649.72 3284.65,2642.32 3284.65,2627.54 C3284.65,2624.26 3284.46,2621.39 3284.09,2618.91 C3276.61,2620.46 3267.24,2621.67 3255.98,2622.53 C3254.43,2622.66 3253.66,2621.88 3253.66,2620.21 C3253.66,2618.85 3254.43,2618.11 3255.98,2617.99 C3267.36,2617.06 3276.33,2615.57 3282.89,2613.53 C3281.15,2608.59 3278.18,2606.08 3273.98,2606.02 C3267.61,2606.02 3263.16,2607.32 3260.62,2609.92 C3258.08,2612.51 3256.51,2613.81 3255.89,2613.81 C3254.4,2613.81 3253.66,2613.04 3253.66,2611.49 L3253.66,2579.58 C3253.66,2578.96 3253.88,2578.4 3254.31,2577.91 C3254.81,2577.41 3255.33,2577.17 3255.89,2577.17"/>
<path class="FiguredBass" d="M777.05,1765.91 C779.4,1765.91 781.874,1765.57 784.472,1764.89 L788.647,1763.78 C789.451,1763.78 790.085,1764.09 790.549,1764.71 C791.013,1765.32 790.966,1765.88 790.41,1766.38 L747.27,1816.57 L772.597,1816.57 L772.597,1796.71 C772.597,1795.29 772.984,1794.19 773.757,1793.42 C774.53,1792.65 775.519,1792.03 776.725,1791.56 C777.932,1791.1 779.509,1789.72 781.457,1787.43 C783.405,1785.15 785.276,1782.05 787.07,1778.16 C787.379,1777.54 787.843,1777.23 788.461,1777.23 C789.76,1777.23 790.41,1777.94 790.41,1779.36 L790.41,1816.57 L801.357,1816.57 C802.903,1816.57 803.676,1817.28 803.676,1818.7 C803.676,1820.25 802.903,1821.02 801.357,1821.02 L790.41,1821.02 L790.41,1822.22 C790.41,1826.06 791.43,1829.4 793.471,1832.24 C795.512,1835.09 798.141,1836.51 801.357,1836.51 C802.594,1836.51 803.212,1837.07 803.212,1838.18 C803.212,1839.42 802.594,1840.04 801.357,1840.04 C799.13,1840.04 795.821,1839.71 791.43,1839.06 C787.039,1838.41 783.714,1838.09 781.457,1838.09 C779.199,1838.09 775.875,1838.41 771.484,1839.06 C767.092,1839.71 763.784,1840.04 761.557,1840.04 C760.32,1840.04 759.702,1839.42 759.702,1838.18 C759.702,1837.07 760.32,1836.51 761.557,1836.51 C764.773,1836.51 767.417,1835.09 769.489,1832.24 C771.561,1829.4 772.597,1826.06 772.597,1822.22 L772.597,1821.02 L747.27,1821.02 C745.662,1821.02 744.471,1820.63 743.698,1819.86 C742.925,1819.09 742.538,1818.3 742.538,1817.49 C742.538,1817.18 743.265,1816.12 744.719,1814.29 C746.172,1812.47 747.95,1810.04 750.053,1807.01 C752.156,1803.98 754.243,1800.53 756.315,1796.67 C758.387,1792.8 760.15,1788.16 761.603,1782.75 C763.057,1777.34 763.784,1771.88 763.784,1766.38 C763.784,1764.77 764.464,1763.96 765.825,1763.96 C766.01,1763.96 766.66,1764.12 767.773,1764.43 C768.886,1764.74 770.309,1765.06 772.04,1765.4 C773.772,1765.74 775.442,1765.91 777.05,1765.91"/>
<path class="FiguredBass" d="M789.575,1905.43 C789.575,1906.42 790.131,1907.38 791.245,1908.31 C792.358,1909.23 793.579,1910.12 794.909,1910.95 C796.239,1911.79 797.46,1913.36 798.574,1915.68 C799.687,1918 800.244,1920.92 800.244,1924.45 C800.244,1931.25 797.677,1936.51 792.543,1940.22 C787.41,1943.93 780.916,1945.79 773.061,1945.79 C766.752,1945.79 761.263,1944.21 756.594,1941.06 C751.924,1937.9 749.589,1933.76 749.589,1928.62 C749.589,1925.9 750.579,1923.54 752.558,1921.53 C754.537,1919.52 756.903,1918.51 759.655,1918.51 C762.407,1918.51 764.742,1919.5 766.66,1921.48 C768.577,1923.46 769.536,1925.84 769.536,1928.62 C769.536,1929.86 768.515,1931.21 766.474,1932.66 C764.433,1934.11 763.412,1935.46 763.412,1936.7 C763.412,1938.61 764.356,1940.02 766.242,1940.92 C768.128,1941.81 770.401,1942.26 773.061,1942.26 C776.524,1942.26 778.983,1940.55 780.436,1937.11 C781.89,1933.68 782.617,1929.46 782.617,1924.45 L782.617,1922.04 C782.617,1918.7 782.508,1916.16 782.292,1914.43 C782.075,1912.7 781.395,1911.15 780.251,1909.79 C779.107,1908.43 777.359,1907.75 775.009,1907.75 L762.856,1907.75 C761.433,1907.75 760.722,1906.98 760.722,1905.43 C760.722,1904.01 761.433,1903.3 762.856,1903.3 L775.009,1903.3 C777.545,1903.3 779.524,1902.34 780.947,1900.42 C781.441,1899.74 781.843,1898.63 782.153,1897.08 C782.462,1895.04 782.617,1892.1 782.617,1888.27 L782.617,1887.06 C782.617,1877.85 779.215,1873.24 772.411,1873.24 C766.412,1873.24 763.412,1874.91 763.412,1878.25 C763.412,1879.36 764.325,1880.55 766.149,1881.82 C767.974,1883.09 768.886,1884.28 768.886,1885.39 C768.886,1887.8 768.036,1889.88 766.335,1891.61 C764.634,1893.34 762.562,1894.21 760.119,1894.21 C757.676,1894.21 755.62,1893.34 753.95,1891.61 C752.28,1889.88 751.445,1887.8 751.445,1885.39 C751.445,1880.63 753.517,1876.83 757.661,1873.98 C761.804,1871.14 766.721,1869.71 772.411,1869.71 C779.895,1869.71 786.049,1871.15 790.873,1874.03 C795.698,1876.9 798.11,1881.25 798.11,1887.06 C798.11,1891.21 797.677,1894.42 796.811,1896.71 C795.945,1899 794.955,1900.39 793.842,1900.88 C792.729,1901.38 791.739,1901.95 790.873,1902.6 C790.008,1903.25 789.575,1904.19 789.575,1905.43"/>
<path class="FiguredBass" d="M777.7,1978.99 C773.123,1978.99 770.077,1980.83 768.561,1984.51 C767.046,1988.19 766.288,1993.4 766.288,2000.14 L766.288,2011.09 C769.505,2009.79 772.288,2009.11 774.638,2009.05 C782.678,2009.05 789.002,2010.83 793.61,2014.38 C798.218,2017.94 800.522,2023.23 800.522,2030.25 C800.522,2037.27 798.187,2042.57 793.517,2046.16 C788.848,2049.74 782.555,2051.54 774.638,2051.54 C766.536,2051.54 760.196,2047.78 755.62,2040.27 C751.043,2032.75 748.754,2023.83 748.754,2013.5 C748.754,2003.23 751.414,1994.33 756.733,1986.78 C762.052,1979.24 769.041,1975.46 777.7,1975.46 C783.39,1975.46 788.307,1976.9 792.451,1979.78 C796.594,1982.65 798.666,1986.44 798.666,1991.14 C798.666,1993.86 797.677,1996.21 795.698,1998.19 C793.718,2000.17 791.353,2001.16 788.6,2001.16 C785.848,2001.16 783.482,2000.17 781.503,1998.19 C779.524,1996.21 778.535,1993.86 778.535,1991.14 C778.535,1988.48 779.524,1986.13 781.503,1984.09 C782.184,1983.29 783.142,1982.61 784.379,1982.05 C784.07,1981.25 783.452,1980.63 782.524,1980.19 C781.163,1979.39 779.555,1978.99 777.7,1978.99 M782.245,2016.93 C781.132,2014.03 778.689,2012.57 774.916,2012.57 C771.144,2012.57 768.809,2014.03 767.912,2016.93 C767.015,2019.84 766.567,2024.26 766.567,2030.2 C766.567,2037.19 767.015,2041.89 767.912,2044.3 C768.809,2046.71 771.144,2047.92 774.916,2047.92 C778.689,2047.92 781.132,2046.47 782.245,2043.56 C783.359,2040.65 783.915,2036.21 783.915,2030.25 C783.915,2024.28 783.359,2019.84 782.245,2016.93"/>
<path class="FiguredBass" d="M2799.13,1763.53 C2801.48,1763.53 2803.95,1763.19 2806.55,1762.51 L2810.73,1761.4 C2811.53,1761.4 2812.16,1761.71 2812.63,1762.32 C2813.09,1762.94 2813.05,1763.5 2812.49,1763.99 L2769.35,1814.18 L2794.68,1814.18 L2794.68,1794.33 C2794.68,1792.91 2795.06,1791.81 2795.84,1791.04 C2796.61,1790.26 2797.6,1789.65 2798.81,1789.18 C2800.01,1788.72 2801.59,1787.34 2803.54,1785.05 C2805.48,1782.77 2807.36,1779.67 2809.15,1775.78 C2809.46,1775.16 2809.92,1774.85 2810.54,1774.85 C2811.84,1774.85 2812.49,1775.56 2812.49,1776.98 L2812.49,1814.18 L2823.44,1814.18 C2824.98,1814.18 2825.76,1814.9 2825.76,1816.32 C2825.76,1817.86 2824.98,1818.64 2823.44,1818.64 L2812.49,1818.64 L2812.49,1819.84 C2812.49,1823.68 2813.51,1827.02 2815.55,1829.86 C2817.59,1832.71 2820.22,1834.13 2823.44,1834.13 C2824.67,1834.13 2825.29,1834.69 2825.29,1835.8 C2825.29,1837.04 2824.67,1837.66 2823.44,1837.66 C2821.21,1837.66 2817.9,1837.33 2813.51,1836.68 C2809.12,1836.03 2805.79,1835.71 2803.54,1835.71 C2801.28,1835.71 2797.95,1836.03 2793.56,1836.68 C2789.17,1837.33 2785.86,1837.66 2783.64,1837.66 C2782.4,1837.66 2781.78,1837.04 2781.78,1835.8 C2781.78,1834.69 2782.4,1834.13 2783.64,1834.13 C2786.85,1834.13 2789.5,1832.71 2791.57,1829.86 C2793.64,1827.02 2794.68,1823.68 2794.68,1819.84 L2794.68,1818.64 L2769.35,1818.64 C2767.74,1818.64 2766.55,1818.25 2765.78,1817.48 C2765,1816.7 2764.62,1815.92 2764.62,1815.11 C2764.62,1814.8 2765.34,1813.74 2766.8,1811.91 C2768.25,1810.09 2770.03,1807.66 2772.13,1804.63 C2774.24,1801.6 2776.32,1798.15 2778.39,1794.28 C2780.47,1790.42 2782.23,1785.78 2783.68,1780.37 C2785.14,1774.96 2785.86,1769.5 2785.86,1763.99 C2785.86,1762.39 2786.54,1761.58 2787.9,1761.58 C2788.09,1761.58 2788.74,1761.74 2789.85,1762.05 C2790.97,1762.36 2792.39,1762.68 2794.12,1763.02 C2795.85,1763.36 2797.52,1763.53 2799.13,1763.53"/>
<path class="FiguredBass" d="M2803.95,1943.41 C2797.95,1943.41 2793.59,1941.74 2790.87,1938.4 C2789.88,1937.16 2788.62,1936.02 2787.07,1934.96 C2785.52,1933.91 2783.82,1933.39 2781.97,1933.39 C2779.55,1933.39 2777.39,1934.14 2775.47,1935.66 C2773.56,1937.17 2772.6,1939.2 2772.6,1941.74 C2772.6,1942.85 2772.04,1943.41 2770.93,1943.41 C2769.69,1943.41 2769.07,1942.85 2769.07,1941.74 C2769.07,1937.96 2769.95,1934.52 2771.72,1931.39 C2773.48,1928.27 2775.69,1925.64 2778.35,1923.51 C2781.01,1921.37 2783.88,1919.08 2786.98,1916.64 C2790.07,1914.2 2792.93,1911.83 2795.56,1909.54 C2798.19,1907.26 2800.38,1904.36 2802.14,1900.87 C2803.91,1897.38 2804.79,1893.56 2804.79,1889.41 C2804.79,1884.22 2803.94,1879.83 2802.24,1876.24 C2800.54,1872.65 2797.86,1870.86 2794.21,1870.86 C2792.11,1870.86 2790.29,1871.37 2788.74,1872.39 C2787.19,1873.41 2786.42,1874.75 2786.42,1876.42 C2786.42,1877.72 2787.3,1879.42 2789.06,1881.53 C2790.83,1883.63 2791.71,1885.39 2791.71,1886.81 C2791.71,1889.78 2790.7,1892.27 2788.69,1894.28 C2786.68,1896.29 2784.26,1897.3 2781.41,1897.3 C2778.44,1897.3 2775.95,1896.26 2773.94,1894.19 C2771.93,1892.12 2770.93,1889.66 2770.93,1886.81 C2770.93,1881.12 2773.2,1876.45 2777.75,1872.81 C2782.29,1869.16 2787.78,1867.33 2794.21,1867.33 C2801.82,1867.33 2808.45,1869.39 2814.11,1873.5 C2819.77,1877.61 2822.6,1882.92 2822.6,1889.41 C2822.6,1893.8 2821.81,1897.61 2820.24,1900.82 C2818.66,1904.04 2816.4,1906.64 2813.46,1908.62 C2810.53,1910.6 2807.59,1912.28 2804.65,1913.67 C2801.71,1915.06 2798.26,1916.56 2794.31,1918.17 C2790.35,1919.78 2787.16,1921.36 2784.75,1922.9 C2786.05,1922.59 2787.38,1922.44 2788.74,1922.44 C2793.32,1922.44 2798.08,1923.92 2803.03,1926.89 C2807.97,1929.86 2811.87,1931.35 2814.72,1931.35 C2816.32,1931.35 2817.64,1931.05 2818.66,1930.46 C2819.68,1929.88 2820.34,1929.23 2820.65,1928.52 C2820.96,1927.8 2821.32,1927.14 2821.72,1926.52 C2822.12,1925.9 2822.57,1925.59 2823.07,1925.59 C2824.3,1925.59 2824.92,1926.21 2824.92,1927.45 C2824.92,1930.11 2823,1933.43 2819.17,1937.42 C2815.33,1941.41 2810.26,1943.41 2803.95,1943.41"/>
<path class="FiguredBass" d="M2799.78,1976.61 C2795.2,1976.61 2792.16,1978.45 2790.64,1982.13 C2789.13,1985.81 2788.37,1991.02 2788.37,1997.76 L2788.37,2008.71 C2791.58,2007.41 2794.37,2006.73 2796.72,2006.67 C2804.76,2006.67 2811.08,2008.44 2815.69,2012 C2820.3,2015.56 2822.6,2020.84 2822.6,2027.86 C2822.6,2034.88 2820.27,2040.19 2815.6,2043.78 C2810.93,2047.36 2804.63,2049.16 2796.72,2049.16 C2788.62,2049.16 2782.28,2045.4 2777.7,2037.88 C2773.12,2030.37 2770.83,2021.45 2770.83,2011.12 C2770.83,2000.85 2773.49,1991.95 2778.81,1984.4 C2784.13,1976.85 2791.12,1973.08 2799.78,1973.08 C2805.47,1973.08 2810.39,1974.52 2814.53,1977.4 C2818.67,1980.27 2820.75,1984.06 2820.75,1988.76 C2820.75,1991.48 2819.76,1993.83 2817.78,1995.81 C2815.8,1997.79 2813.43,1998.78 2810.68,1998.78 C2807.93,1998.78 2805.56,1997.79 2803.58,1995.81 C2801.6,1993.83 2800.61,1991.48 2800.61,1988.76 C2800.61,1986.1 2801.6,1983.75 2803.58,1981.71 C2804.26,1980.91 2805.22,1980.23 2806.46,1979.67 C2806.15,1978.86 2805.53,1978.25 2804.6,1977.81 C2803.24,1977.01 2801.63,1976.61 2799.78,1976.61 M2804.33,2014.55 C2803.21,2011.64 2800.77,2010.19 2797,2010.19 C2793.22,2010.19 2790.89,2011.64 2789.99,2014.55 C2789.09,2017.46 2788.65,2021.88 2788.65,2027.82 C2788.65,2034.81 2789.09,2039.51 2789.99,2041.92 C2790.89,2044.33 2793.22,2045.54 2797,2045.54 C2800.77,2045.54 2803.21,2044.08 2804.33,2041.18 C2805.44,2038.27 2805.99,2033.83 2805.99,2027.86 C2805.99,2021.9 2805.44,2017.46 2804.33,2014.55"/>
<path class="Bracket" transform="matrix(8.6315,0,0,9.47944,76.1283,2339.76)" d="M0.92002,-50 C2.69004,-51.88 6.2,-55.8 6.2,-63 C6.2,-72.1 2.25996,-81.32 2.25996,-86.97 C2.25996,-93.06 5.84004,-98.84 5.95,-99 C6.05996,-99.16 6.05,-99.39 5.94004,-99.46 C5.82998,-99.53 5.62002,-99.47 5.49004,-99.32 C5.35996,-99.17 0,-93.75 0,-85.6 C0,-76.75 3.5,-70.58 3.5,-59.07 C3.5,-56.89 2.55996,-53.36 0.1,-50.33 C-0.0799805,-50.17 -0.1,-49.89 0.0599609,-49.7 L0.0700195,-49.69 L0.1,-49.66 C2.55996,-46.63 3.5,-43.1 3.5,-40.92 C3.5,-29.4 0,-23.24 0,-14.39 C0,-6.25 5.35996,-0.8 5.49004,-0.659961 C5.62002,-0.52002 5.8,-0.42998 5.94004,-0.52002 C6.07998,-0.609961 6.07998,-0.77998 5.95,-0.97998 C5.82002,-1.17998 2.25996,-6.92002 2.25996,-13.01 C2.25996,-18.66 6.2,-27.9 6.2,-37 C6.2,-44.3 2.69004,-48.12 0.92002,-50"/>
</svg>
