<?xml version="1.0" encoding="UTF-8" standalone="no"?>
<svg width="4209.44px" height="2976.38px" viewBox="0 0 4209.44 2976.38"
 xmlns="http://www.w3.org/2000/svg" xmlns:xlink="http://www.w3.org/1999/xlink" version="1.2" baseProfile="tiny">
<title>SolMineur (3)</title>
<desc>Generated by MuseScore 3.6.2</desc>
<polyline class="StaffLines" fill="none" stroke="#000000" stroke-width="6.55" stroke-linejoin="bevel" points="153.819,558.425 4138.58,558.425"/>
<polyline class="StaffLines" fill="none" stroke="#000000" stroke-width="6.55" stroke-linejoin="bevel" points="153.819,647.717 4138.58,647.717"/>
<polyline class="StaffLines" fill="none" stroke="#000000" stroke-width="6.55" stroke-linejoin="bevel" points="153.819,737.008 4138.58,737.008"/>
<polyline class="StaffLines" fill="none" stroke="#000000" stroke-width="6.55" stroke-linejoin="bevel" points="153.819,826.299 4138.58,826.299"/>
<polyline class="StaffLines" fill="none" stroke="#000000" stroke-width="6.55" stroke-linejoin="bevel" points="153.819,915.591 4138.58,915.591"/>
<polyline class="StaffLines" fill="none" stroke="#000000" stroke-width="6.55" stroke-linejoin="bevel" points="153.819,1004.88 4138.58,1004.88"/>
<polyline class="StaffLines" fill="none" stroke="#000000" stroke-width="6.55" stroke-linejoin="bevel" points="153.819,1391.81 4138.58,1391.81"/>
<polyline class="StaffLines" fill="none" stroke="#000000" stroke-width="6.55" stroke-linejoin="bevel" points="153.819,1451.34 4138.58,1451.34"/>
<polyline class="StaffLines" fill="none" stroke="#000000" stroke-width="6.55" stroke-linejoin="bevel" points="153.819,1510.87 4138.58,1510.87"/>
<polyline class="StaffLines" fill="none" stroke="#000000" stroke-width="6.55" stroke-linejoin="bevel" points="153.819,1570.39 4138.58,1570.39"/>
<polyline class="StaffLines" fill="none" stroke="#000000" stroke-width="6.55" stroke-linejoin="bevel" points="153.819,1629.92 4138.58,1629.92"/>
<polyline class="StaffLines" fill="none" stroke="#000000" stroke-width="6.55" stroke-linejoin="bevel" points="153.819,2016.85 4138.58,2016.85"/>
<polyline class="StaffLines" fill="none" stroke="#000000" stroke-width="6.55" stroke-linejoin="bevel" points="153.819,2076.38 4138.58,2076.38"/>
<polyline class="StaffLines" fill="none" stroke="#000000" stroke-width="6.55" stroke-linejoin="bevel" points="153.819,2135.91 4138.58,2135.91"/>
<polyline class="StaffLines" fill="none" stroke="#000000" stroke-width="6.55" stroke-linejoin="bevel" points="153.819,2195.43 4138.58,2195.43"/>
<polyline class="StaffLines" fill="none" stroke="#000000" stroke-width="6.55" stroke-linejoin="bevel" points="153.819,2254.96 4138.58,2254.96"/>
<polyline class="BarLine" fill="none" stroke="#000000" stroke-width="10.71" stroke-linejoin="bevel" points="159.176,2013.58 159.176,2258.23"/>
<polyline class="BarLine" fill="none" stroke="#000000" stroke-width="10.71" stroke-linejoin="bevel" points="994.644,2013.58 994.644,2258.23"/>
<polyline class="BarLine" fill="none" stroke="#000000" stroke-width="10.71" stroke-linejoin="bevel" points="1526.65,2013.58 1526.65,2258.23"/>
<polyline class="BarLine" fill="none" stroke="#000000" stroke-width="10.71" stroke-linejoin="bevel" points="1947.93,2013.58 1947.93,2258.23"/>
<polyline class="BarLine" fill="none" stroke="#000000" stroke-width="10.71" stroke-linejoin="bevel" points="2369.2,2013.58 2369.2,2258.23"/>
<polyline class="BarLine" fill="none" stroke="#000000" stroke-width="10.71" stroke-linejoin="bevel" points="2813.23,2013.58 2813.23,2258.23"/>
<polyline class="BarLine" fill="none" stroke="#000000" stroke-width="10.71" stroke-linejoin="bevel" points="3239.86,2013.58 3239.86,2258.23"/>
<polyline class="BarLine" fill="none" stroke="#000000" stroke-width="10.71" stroke-linejoin="bevel" points="3683.89,2013.58 3683.89,2258.23"/>
<polyline class="BarLine" fill="none" stroke="#000000" stroke-width="10.71" stroke-linejoin="bevel" points="4080.54,2013.58 4080.54,2258.23"/>
<polyline class="BarLine" fill="none" stroke="#000000" stroke-width="32.74" stroke-linejoin="bevel" points="4122.21,2013.58 4122.21,2258.23"/>
<polyline class="BarLine" fill="none" stroke="#000000" stroke-width="10.71" stroke-linejoin="bevel" points="159.176,1388.54 159.176,2016.85"/>
<polyline class="BarLine" fill="none" stroke="#000000" stroke-width="10.71" stroke-linejoin="bevel" points="994.644,1388.54 994.644,1633.2"/>
<polyline class="BarLine" fill="none" stroke="#000000" stroke-width="10.71" stroke-linejoin="bevel" points="1526.65,1388.54 1526.65,1633.2"/>
<polyline class="BarLine" fill="none" stroke="#000000" stroke-width="10.71" stroke-linejoin="bevel" points="1947.93,1388.54 1947.93,1633.2"/>
<polyline class="BarLine" fill="none" stroke="#000000" stroke-width="10.71" stroke-linejoin="bevel" points="2369.2,1388.54 2369.2,1633.2"/>
<polyline class="BarLine" fill="none" stroke="#000000" stroke-width="10.71" stroke-linejoin="bevel" points="2813.23,1388.54 2813.23,1633.2"/>
<polyline class="BarLine" fill="none" stroke="#000000" stroke-width="10.71" stroke-linejoin="bevel" points="3239.86,1388.54 3239.86,1633.2"/>
<polyline class="BarLine" fill="none" stroke="#000000" stroke-width="10.71" stroke-linejoin="bevel" points="3683.89,1388.54 3683.89,1633.2"/>
<polyline class="BarLine" fill="none" stroke="#000000" stroke-width="10.71" stroke-linejoin="bevel" points="4080.54,1388.54 4080.54,1633.2"/>
<polyline class="BarLine" fill="none" stroke="#000000" stroke-width="32.74" stroke-linejoin="bevel" points="4122.21,1388.54 4122.21,1633.2"/>
<polyline class="BarLine" fill="none" stroke="#000000" stroke-width="10.71" stroke-linejoin="bevel" points="159.176,555.151 159.176,1391.81"/>
<polyline class="BarLine" fill="none" stroke="#000000" stroke-width="10.71" stroke-linejoin="bevel" points="994.644,555.151 994.644,1008.16"/>
<polyline class="BarLine" fill="none" stroke="#000000" stroke-width="10.71" stroke-linejoin="bevel" points="1526.65,555.151 1526.65,1008.16"/>
<polyline class="BarLine" fill="none" stroke="#000000" stroke-width="10.71" stroke-linejoin="bevel" points="1947.93,555.151 1947.93,1008.16"/>
<polyline class="BarLine" fill="none" stroke="#000000" stroke-width="10.71" stroke-linejoin="bevel" points="2369.2,555.151 2369.2,1008.16"/>
<polyline class="BarLine" fill="none" stroke="#000000" stroke-width="10.71" stroke-linejoin="bevel" points="2813.23,555.151 2813.23,1008.16"/>
<polyline class="BarLine" fill="none" stroke="#000000" stroke-width="10.71" stroke-linejoin="bevel" points="3239.86,555.151 3239.86,1008.16"/>
<polyline class="BarLine" fill="none" stroke="#000000" stroke-width="10.71" stroke-linejoin="bevel" points="3683.89,555.151 3683.89,1008.16"/>
<polyline class="BarLine" fill="none" stroke="#000000" stroke-width="10.71" stroke-linejoin="bevel" points="4080.54,555.151 4080.54,1008.16"/>
<polyline class="BarLine" fill="none" stroke="#000000" stroke-width="32.74" stroke-linejoin="bevel" points="4122.21,555.151 4122.21,1008.16"/>
<path class="Accidental" transform="matrix(2.3811,0,0,2.3811,2876.1,2106.14)" d="M16.6,-18.3 C16.4,-18.5 16.1,-18.6 15.8,-18.6 C15.7,-18.6 15.5,-18.5 15.4,-18.5 L2.8,-15 L2.8,-32.5 L0,-32.5 L0,17 C0,17.8 0.6,18.3 1.4,18.3 L1.8,18.3 L14.4,14.8 L14.4,32.3 L17.1,32.3 L17.1,-17.2 C17.1,-17.6 16.9,-18.1 16.6,-18.3 M14.4,6.5 L2.8,9.7 L2.8,-6.7 L14.4,-10 L14.4,6.5 "/>
<path class="Accidental" transform="matrix(2.3811,0,0,2.3811,3302.73,2076.38)" d="M23.3,-10.6 C23.9,-10.7 24.4,-11.4 24.4,-12 L24.4,-17.9 C24.4,-18.7 23.8,-19.3 23,-19.3 L22.8,-19.3 L19.5,-18.6 L19.5,-33.5 L16.7,-33.5 L16.7,-18 L7.8,-16.2 L7.8,-30.3 L5,-30.3 L5,-15.6 L1.1,-14.8 C0.5,-14.7 0,-14 0,-13.4 L0,-13.2 L0,-7.4 L0,-7.6 C0,-6.8 0.6,-6.2 1.4,-6.2 L1.7,-6.2 L5,-6.9 L5,9.6 L1.1,10.4 C0.5,10.5 0,11.2 0,11.8 L0,17.6 C0,18.4 0.6,19 1.4,19 L1.7,19 L5,18.3 L5,33.2 L7.8,33.2 L7.8,17.7 L16.7,15.9 L16.7,30 L19.5,30 L19.5,15.3 L23.3,14.6 C23.9,14.5 24.4,13.8 24.4,13.2 L24.4,7.3 C24.4,6.5 23.8,5.9 23,5.9 L22.8,5.9 L19.5,6.6 L19.5,-9.9 L23.3,-10.6 M7.8,9.1 L7.8,-7.5 L16.7,-9.3 L16.7,7.2 L7.8,9.1 "/>
<path class="Accidental" transform="matrix(2.3811,0,0,2.3811,1057.51,1391.81)" d="M23.3,-10.6 C23.9,-10.7 24.4,-11.4 24.4,-12 L24.4,-17.9 C24.4,-18.7 23.8,-19.3 23,-19.3 L22.8,-19.3 L19.5,-18.6 L19.5,-33.5 L16.7,-33.5 L16.7,-18 L7.8,-16.2 L7.8,-30.3 L5,-30.3 L5,-15.6 L1.1,-14.8 C0.5,-14.7 0,-14 0,-13.4 L0,-13.2 L0,-7.4 L0,-7.6 C0,-6.8 0.6,-6.2 1.4,-6.2 L1.7,-6.2 L5,-6.9 L5,9.6 L1.1,10.4 C0.5,10.5 0,11.2 0,11.8 L0,17.6 C0,18.4 0.6,19 1.4,19 L1.7,19 L5,18.3 L5,33.2 L7.8,33.2 L7.8,17.7 L16.7,15.9 L16.7,30 L19.5,30 L19.5,15.3 L23.3,14.6 C23.9,14.5 24.4,13.8 24.4,13.2 L24.4,7.3 C24.4,6.5 23.8,5.9 23,5.9 L22.8,5.9 L19.5,6.6 L19.5,-9.9 L23.3,-10.6 M7.8,9.1 L7.8,-7.5 L16.7,-9.3 L16.7,7.2 L7.8,9.1 "/>
<path class="Accidental" transform="matrix(2.3811,0,0,2.3811,2432.07,1391.81)" d="M23.3,-10.6 C23.9,-10.7 24.4,-11.4 24.4,-12 L24.4,-17.9 C24.4,-18.7 23.8,-19.3 23,-19.3 L22.8,-19.3 L19.5,-18.6 L19.5,-33.5 L16.7,-33.5 L16.7,-18 L7.8,-16.2 L7.8,-30.3 L5,-30.3 L5,-15.6 L1.1,-14.8 C0.5,-14.7 0,-14 0,-13.4 L0,-13.2 L0,-7.4 L0,-7.6 C0,-6.8 0.6,-6.2 1.4,-6.2 L1.7,-6.2 L5,-6.9 L5,9.6 L1.1,10.4 C0.5,10.5 0,11.2 0,11.8 L0,17.6 C0,18.4 0.6,19 1.4,19 L1.7,19 L5,18.3 L5,33.2 L7.8,33.2 L7.8,17.7 L16.7,15.9 L16.7,30 L19.5,30 L19.5,15.3 L23.3,14.6 C23.9,14.5 24.4,13.8 24.4,13.2 L24.4,7.3 C24.4,6.5 23.8,5.9 23,5.9 L22.8,5.9 L19.5,6.6 L19.5,-9.9 L23.3,-10.6 M7.8,9.1 L7.8,-7.5 L16.7,-9.3 L16.7,7.2 L7.8,9.1 "/>
<polyline class="LedgerLine" fill="none" stroke="#000000" stroke-width="9.52" stroke-linejoin="bevel" points="2030.67,1957.32 2161.15,1957.32"/>
<polyline class="LedgerLine" fill="none" stroke="#000000" stroke-width="9.52" stroke-linejoin="bevel" points="2484.21,1957.32 2614.69,1957.32"/>
<polyline class="LedgerLine" fill="none" stroke="#000000" stroke-width="9.52" stroke-linejoin="bevel" points="3354.87,1332.28 3485.35,1332.28"/>
<path class="Note" transform="matrix(2.3811,0,0,2.3811,686.46,2046.61)" d="M18.7,-13.6 C4.9,-13.6 0,-6.6 0,-0.1 C0,6.4 4.9,13.4 18.7,13.4 C32.5,13.4 37.3,6.4 37.3,-0.1 C37.3,-6.6 32.5,-13.6 18.7,-13.6 M10.4,-4.5 C10.3,-4.9 10.3,-5.3 10.3,-5.7 C10.3,-6.5 10.5,-7.3 10.9,-8 C11.6,-9 12.8,-9.7 14.3,-10 C15.6,-10.3 16.3,-10.5 18.9,-10.5 L19,-10.5 C23,-10.5 24.3,-6.8 25.4,-3 L25.7,-2 C26.5,0.6 26.9,2.8 26.9,4.5 C26.9,5.7 26.7,6.8 26.3,7.6 C25.7,8.7 24.7,9.4 23,9.8 C22.1,10 20.6,10.1 20.6,10.1 C20.1,10.1 19.7,10.2 19.3,10.2 C16.1,10.2 14.1,9 12.7,4.7 C11.5,1 11.3,-0.1 10.4,-4.5"/>
<path class="Note" transform="matrix(2.3811,0,0,2.3811,1218.47,2016.85)" d="M18.7,-13.6 C4.9,-13.6 0,-6.6 0,-0.1 C0,6.4 4.9,13.4 18.7,13.4 C32.5,13.4 37.3,6.4 37.3,-0.1 C37.3,-6.6 32.5,-13.6 18.7,-13.6 M10.4,-4.5 C10.3,-4.9 10.3,-5.3 10.3,-5.7 C10.3,-6.5 10.5,-7.3 10.9,-8 C11.6,-9 12.8,-9.7 14.3,-10 C15.6,-10.3 16.3,-10.5 18.9,-10.5 L19,-10.5 C23,-10.5 24.3,-6.8 25.4,-3 L25.7,-2 C26.5,0.6 26.9,2.8 26.9,4.5 C26.9,5.7 26.7,6.8 26.3,7.6 C25.7,8.7 24.7,9.4 23,9.8 C22.1,10 20.6,10.1 20.6,10.1 C20.1,10.1 19.7,10.2 19.3,10.2 C16.1,10.2 14.1,9 12.7,4.7 C11.5,1 11.3,-0.1 10.4,-4.5"/>
<path class="Note" transform="matrix(2.3811,0,0,2.3811,1615.11,1987.09)" d="M18.7,-13.6 C4.9,-13.6 0,-6.6 0,-0.1 C0,6.4 4.9,13.4 18.7,13.4 C32.5,13.4 37.3,6.4 37.3,-0.1 C37.3,-6.6 32.5,-13.6 18.7,-13.6 M10.4,-4.5 C10.3,-4.9 10.3,-5.3 10.3,-5.7 C10.3,-6.5 10.5,-7.3 10.9,-8 C11.6,-9 12.8,-9.7 14.3,-10 C15.6,-10.3 16.3,-10.5 18.9,-10.5 L19,-10.5 C23,-10.5 24.3,-6.8 25.4,-3 L25.7,-2 C26.5,0.6 26.9,2.8 26.9,4.5 C26.9,5.7 26.7,6.8 26.3,7.6 C25.7,8.7 24.7,9.4 23,9.8 C22.1,10 20.6,10.1 20.6,10.1 C20.1,10.1 19.7,10.2 19.3,10.2 C16.1,10.2 14.1,9 12.7,4.7 C11.5,1 11.3,-0.1 10.4,-4.5"/>
<path class="Note" transform="matrix(2.3811,0,0,2.3811,2051.5,1957.32)" d="M18.7,-13.6 C4.9,-13.6 0,-6.6 0,-0.1 C0,6.4 4.9,13.4 18.7,13.4 C32.5,13.4 37.3,6.4 37.3,-0.1 C37.3,-6.6 32.5,-13.6 18.7,-13.6 M10.4,-4.5 C10.3,-4.9 10.3,-5.3 10.3,-5.7 C10.3,-6.5 10.5,-7.3 10.9,-8 C11.6,-9 12.8,-9.7 14.3,-10 C15.6,-10.3 16.3,-10.5 18.9,-10.5 L19,-10.5 C23,-10.5 24.3,-6.8 25.4,-3 L25.7,-2 C26.5,0.6 26.9,2.8 26.9,4.5 C26.9,5.7 26.7,6.8 26.3,7.6 C25.7,8.7 24.7,9.4 23,9.8 C22.1,10 20.6,10.1 20.6,10.1 C20.1,10.1 19.7,10.2 19.3,10.2 C16.1,10.2 14.1,9 12.7,4.7 C11.5,1 11.3,-0.1 10.4,-4.5"/>
<path class="Note" transform="matrix(2.3811,0,0,2.3811,2505.05,2135.91)" d="M18.7,-13.6 C4.9,-13.6 0,-6.6 0,-0.1 C0,6.4 4.9,13.4 18.7,13.4 C32.5,13.4 37.3,6.4 37.3,-0.1 C37.3,-6.6 32.5,-13.6 18.7,-13.6 M10.4,-4.5 C10.3,-4.9 10.3,-5.3 10.3,-5.7 C10.3,-6.5 10.5,-7.3 10.9,-8 C11.6,-9 12.8,-9.7 14.3,-10 C15.6,-10.3 16.3,-10.5 18.9,-10.5 L19,-10.5 C23,-10.5 24.3,-6.8 25.4,-3 L25.7,-2 C26.5,0.6 26.9,2.8 26.9,4.5 C26.9,5.7 26.7,6.8 26.3,7.6 C25.7,8.7 24.7,9.4 23,9.8 C22.1,10 20.6,10.1 20.6,10.1 C20.1,10.1 19.7,10.2 19.3,10.2 C16.1,10.2 14.1,9 12.7,4.7 C11.5,1 11.3,-0.1 10.4,-4.5"/>
<path class="Note" transform="matrix(2.3811,0,0,2.3811,2505.05,1927.56)" d="M18.7,-13.6 C4.9,-13.6 0,-6.6 0,-0.1 C0,6.4 4.9,13.4 18.7,13.4 C32.5,13.4 37.3,6.4 37.3,-0.1 C37.3,-6.6 32.5,-13.6 18.7,-13.6 M10.4,-4.5 C10.3,-4.9 10.3,-5.3 10.3,-5.7 C10.3,-6.5 10.5,-7.3 10.9,-8 C11.6,-9 12.8,-9.7 14.3,-10 C15.6,-10.3 16.3,-10.5 18.9,-10.5 L19,-10.5 C23,-10.5 24.3,-6.8 25.4,-3 L25.7,-2 C26.5,0.6 26.9,2.8 26.9,4.5 C26.9,5.7 26.7,6.8 26.3,7.6 C25.7,8.7 24.7,9.4 23,9.8 C22.1,10 20.6,10.1 20.6,10.1 C20.1,10.1 19.7,10.2 19.3,10.2 C16.1,10.2 14.1,9 12.7,4.7 C11.5,1 11.3,-0.1 10.4,-4.5"/>
<path class="Note" transform="matrix(2.3811,0,0,2.3811,2931.68,2106.14)" d="M18.7,-13.6 C4.9,-13.6 0,-6.6 0,-0.1 C0,6.4 4.9,13.4 18.7,13.4 C32.5,13.4 37.3,6.4 37.3,-0.1 C37.3,-6.6 32.5,-13.6 18.7,-13.6 M10.4,-4.5 C10.3,-4.9 10.3,-5.3 10.3,-5.7 C10.3,-6.5 10.5,-7.3 10.9,-8 C11.6,-9 12.8,-9.7 14.3,-10 C15.6,-10.3 16.3,-10.5 18.9,-10.5 L19,-10.5 C23,-10.5 24.3,-6.8 25.4,-3 L25.7,-2 C26.5,0.6 26.9,2.8 26.9,4.5 C26.9,5.7 26.7,6.8 26.3,7.6 C25.7,8.7 24.7,9.4 23,9.8 C22.1,10 20.6,10.1 20.6,10.1 C20.1,10.1 19.7,10.2 19.3,10.2 C16.1,10.2 14.1,9 12.7,4.7 C11.5,1 11.3,-0.1 10.4,-4.5"/>
<path class="Note" transform="matrix(2.3811,0,0,2.3811,3375.71,2076.38)" d="M18.7,-13.6 C4.9,-13.6 0,-6.6 0,-0.1 C0,6.4 4.9,13.4 18.7,13.4 C32.5,13.4 37.3,6.4 37.3,-0.1 C37.3,-6.6 32.5,-13.6 18.7,-13.6 M10.4,-4.5 C10.3,-4.9 10.3,-5.3 10.3,-5.7 C10.3,-6.5 10.5,-7.3 10.9,-8 C11.6,-9 12.8,-9.7 14.3,-10 C15.6,-10.3 16.3,-10.5 18.9,-10.5 L19,-10.5 C23,-10.5 24.3,-6.8 25.4,-3 L25.7,-2 C26.5,0.6 26.9,2.8 26.9,4.5 C26.9,5.7 26.7,6.8 26.3,7.6 C25.7,8.7 24.7,9.4 23,9.8 C22.1,10 20.6,10.1 20.6,10.1 C20.1,10.1 19.7,10.2 19.3,10.2 C16.1,10.2 14.1,9 12.7,4.7 C11.5,1 11.3,-0.1 10.4,-4.5"/>
<path class="Note" transform="matrix(2.3811,0,0,2.3811,3772.36,2046.61)" d="M18.7,-13.6 C4.9,-13.6 0,-6.6 0,-0.1 C0,6.4 4.9,13.4 18.7,13.4 C32.5,13.4 37.3,6.4 37.3,-0.1 C37.3,-6.6 32.5,-13.6 18.7,-13.6 M10.4,-4.5 C10.3,-4.9 10.3,-5.3 10.3,-5.7 C10.3,-6.5 10.5,-7.3 10.9,-8 C11.6,-9 12.8,-9.7 14.3,-10 C15.6,-10.3 16.3,-10.5 18.9,-10.5 L19,-10.5 C23,-10.5 24.3,-6.8 25.4,-3 L25.7,-2 C26.5,0.6 26.9,2.8 26.9,4.5 C26.9,5.7 26.7,6.8 26.3,7.6 C25.7,8.7 24.7,9.4 23,9.8 C22.1,10 20.6,10.1 20.6,10.1 C20.1,10.1 19.7,10.2 19.3,10.2 C16.1,10.2 14.1,9 12.7,4.7 C11.5,1 11.3,-0.1 10.4,-4.5"/>
<path class="Note" transform="matrix(2.3811,0,0,2.3811,686.46,1510.87)" d="M18.7,-13.6 C4.9,-13.6 0,-6.6 0,-0.1 C0,6.4 4.9,13.4 18.7,13.4 C32.5,13.4 37.3,6.4 37.3,-0.1 C37.3,-6.6 32.5,-13.6 18.7,-13.6 M10.4,-4.5 C10.3,-4.9 10.3,-5.3 10.3,-5.7 C10.3,-6.5 10.5,-7.3 10.9,-8 C11.6,-9 12.8,-9.7 14.3,-10 C15.6,-10.3 16.3,-10.5 18.9,-10.5 L19,-10.5 C23,-10.5 24.3,-6.8 25.4,-3 L25.7,-2 C26.5,0.6 26.9,2.8 26.9,4.5 C26.9,5.7 26.7,6.8 26.3,7.6 C25.7,8.7 24.7,9.4 23,9.8 C22.1,10 20.6,10.1 20.6,10.1 C20.1,10.1 19.7,10.2 19.3,10.2 C16.1,10.2 14.1,9 12.7,4.7 C11.5,1 11.3,-0.1 10.4,-4.5"/>
<path class="Note" transform="matrix(2.3811,0,0,2.3811,686.46,1451.34)" d="M18.7,-13.6 C4.9,-13.6 0,-6.6 0,-0.1 C0,6.4 4.9,13.4 18.7,13.4 C32.5,13.4 37.3,6.4 37.3,-0.1 C37.3,-6.6 32.5,-13.6 18.7,-13.6 M10.4,-4.5 C10.3,-4.9 10.3,-5.3 10.3,-5.7 C10.3,-6.5 10.5,-7.3 10.9,-8 C11.6,-9 12.8,-9.7 14.3,-10 C15.6,-10.3 16.3,-10.5 18.9,-10.5 L19,-10.5 C23,-10.5 24.3,-6.8 25.4,-3 L25.7,-2 C26.5,0.6 26.9,2.8 26.9,4.5 C26.9,5.7 26.7,6.8 26.3,7.6 C25.7,8.7 24.7,9.4 23,9.8 C22.1,10 20.6,10.1 20.6,10.1 C20.1,10.1 19.7,10.2 19.3,10.2 C16.1,10.2 14.1,9 12.7,4.7 C11.5,1 11.3,-0.1 10.4,-4.5"/>
<path class="Note" transform="matrix(2.3811,0,0,2.3811,686.46,1362.05)" d="M18.7,-13.6 C4.9,-13.6 0,-6.6 0,-0.1 C0,6.4 4.9,13.4 18.7,13.4 C32.5,13.4 37.3,6.4 37.3,-0.1 C37.3,-6.6 32.5,-13.6 18.7,-13.6 M10.4,-4.5 C10.3,-4.9 10.3,-5.3 10.3,-5.7 C10.3,-6.5 10.5,-7.3 10.9,-8 C11.6,-9 12.8,-9.7 14.3,-10 C15.6,-10.3 16.3,-10.5 18.9,-10.5 L19,-10.5 C23,-10.5 24.3,-6.8 25.4,-3 L25.7,-2 C26.5,0.6 26.9,2.8 26.9,4.5 C26.9,5.7 26.7,6.8 26.3,7.6 C25.7,8.7 24.7,9.4 23,9.8 C22.1,10 20.6,10.1 20.6,10.1 C20.1,10.1 19.7,10.2 19.3,10.2 C16.1,10.2 14.1,9 12.7,4.7 C11.5,1 11.3,-0.1 10.4,-4.5"/>
<path class="Note" transform="matrix(2.3811,0,0,2.3811,1136.21,1481.1)" d="M18.7,-13.6 C4.9,-13.6 0,-6.6 0,-0.1 C0,6.4 4.9,13.4 18.7,13.4 C32.5,13.4 37.3,6.4 37.3,-0.1 C37.3,-6.6 32.5,-13.6 18.7,-13.6 M10.4,-4.5 C10.3,-4.9 10.3,-5.3 10.3,-5.7 C10.3,-6.5 10.5,-7.3 10.9,-8 C11.6,-9 12.8,-9.7 14.3,-10 C15.6,-10.3 16.3,-10.5 18.9,-10.5 L19,-10.5 C23,-10.5 24.3,-6.8 25.4,-3 L25.7,-2 C26.5,0.6 26.9,2.8 26.9,4.5 C26.9,5.7 26.7,6.8 26.3,7.6 C25.7,8.7 24.7,9.4 23,9.8 C22.1,10 20.6,10.1 20.6,10.1 C20.1,10.1 19.7,10.2 19.3,10.2 C16.1,10.2 14.1,9 12.7,4.7 C11.5,1 11.3,-0.1 10.4,-4.5"/>
<path class="Note" transform="matrix(2.3811,0,0,2.3811,1218.47,1451.34)" d="M18.7,-13.6 C4.9,-13.6 0,-6.6 0,-0.1 C0,6.4 4.9,13.4 18.7,13.4 C32.5,13.4 37.3,6.4 37.3,-0.1 C37.3,-6.6 32.5,-13.6 18.7,-13.6 M10.4,-4.5 C10.3,-4.9 10.3,-5.3 10.3,-5.7 C10.3,-6.5 10.5,-7.3 10.9,-8 C11.6,-9 12.8,-9.7 14.3,-10 C15.6,-10.3 16.3,-10.5 18.9,-10.5 L19,-10.5 C23,-10.5 24.3,-6.8 25.4,-3 L25.7,-2 C26.5,0.6 26.9,2.8 26.9,4.5 C26.9,5.7 26.7,6.8 26.3,7.6 C25.7,8.7 24.7,9.4 23,9.8 C22.1,10 20.6,10.1 20.6,10.1 C20.1,10.1 19.7,10.2 19.3,10.2 C16.1,10.2 14.1,9 12.7,4.7 C11.5,1 11.3,-0.1 10.4,-4.5"/>
<path class="Note" transform="matrix(2.3811,0,0,2.3811,1218.47,1391.81)" d="M18.7,-13.6 C4.9,-13.6 0,-6.6 0,-0.1 C0,6.4 4.9,13.4 18.7,13.4 C32.5,13.4 37.3,6.4 37.3,-0.1 C37.3,-6.6 32.5,-13.6 18.7,-13.6 M10.4,-4.5 C10.3,-4.9 10.3,-5.3 10.3,-5.7 C10.3,-6.5 10.5,-7.3 10.9,-8 C11.6,-9 12.8,-9.7 14.3,-10 C15.6,-10.3 16.3,-10.5 18.9,-10.5 L19,-10.5 C23,-10.5 24.3,-6.8 25.4,-3 L25.7,-2 C26.5,0.6 26.9,2.8 26.9,4.5 C26.9,5.7 26.7,6.8 26.3,7.6 C25.7,8.7 24.7,9.4 23,9.8 C22.1,10 20.6,10.1 20.6,10.1 C20.1,10.1 19.7,10.2 19.3,10.2 C16.1,10.2 14.1,9 12.7,4.7 C11.5,1 11.3,-0.1 10.4,-4.5"/>
<path class="Note" transform="matrix(2.3811,0,0,2.3811,1615.11,1510.87)" d="M18.7,-13.6 C4.9,-13.6 0,-6.6 0,-0.1 C0,6.4 4.9,13.4 18.7,13.4 C32.5,13.4 37.3,6.4 37.3,-0.1 C37.3,-6.6 32.5,-13.6 18.7,-13.6 M10.4,-4.5 C10.3,-4.9 10.3,-5.3 10.3,-5.7 C10.3,-6.5 10.5,-7.3 10.9,-8 C11.6,-9 12.8,-9.7 14.3,-10 C15.6,-10.3 16.3,-10.5 18.9,-10.5 L19,-10.5 C23,-10.5 24.3,-6.8 25.4,-3 L25.7,-2 C26.5,0.6 26.9,2.8 26.9,4.5 C26.9,5.7 26.7,6.8 26.3,7.6 C25.7,8.7 24.7,9.4 23,9.8 C22.1,10 20.6,10.1 20.6,10.1 C20.1,10.1 19.7,10.2 19.3,10.2 C16.1,10.2 14.1,9 12.7,4.7 C11.5,1 11.3,-0.1 10.4,-4.5"/>
<path class="Note" transform="matrix(2.3811,0,0,2.3811,1615.11,1451.34)" d="M18.7,-13.6 C4.9,-13.6 0,-6.6 0,-0.1 C0,6.4 4.9,13.4 18.7,13.4 C32.5,13.4 37.3,6.4 37.3,-0.1 C37.3,-6.6 32.5,-13.6 18.7,-13.6 M10.4,-4.5 C10.3,-4.9 10.3,-5.3 10.3,-5.7 C10.3,-6.5 10.5,-7.3 10.9,-8 C11.6,-9 12.8,-9.7 14.3,-10 C15.6,-10.3 16.3,-10.5 18.9,-10.5 L19,-10.5 C23,-10.5 24.3,-6.8 25.4,-3 L25.7,-2 C26.5,0.6 26.9,2.8 26.9,4.5 C26.9,5.7 26.7,6.8 26.3,7.6 C25.7,8.7 24.7,9.4 23,9.8 C22.1,10 20.6,10.1 20.6,10.1 C20.1,10.1 19.7,10.2 19.3,10.2 C16.1,10.2 14.1,9 12.7,4.7 C11.5,1 11.3,-0.1 10.4,-4.5"/>
<path class="Note" transform="matrix(2.3811,0,0,2.3811,1615.11,1362.05)" d="M18.7,-13.6 C4.9,-13.6 0,-6.6 0,-0.1 C0,6.4 4.9,13.4 18.7,13.4 C32.5,13.4 37.3,6.4 37.3,-0.1 C37.3,-6.6 32.5,-13.6 18.7,-13.6 M10.4,-4.5 C10.3,-4.9 10.3,-5.3 10.3,-5.7 C10.3,-6.5 10.5,-7.3 10.9,-8 C11.6,-9 12.8,-9.7 14.3,-10 C15.6,-10.3 16.3,-10.5 18.9,-10.5 L19,-10.5 C23,-10.5 24.3,-6.8 25.4,-3 L25.7,-2 C26.5,0.6 26.9,2.8 26.9,4.5 C26.9,5.7 26.7,6.8 26.3,7.6 C25.7,8.7 24.7,9.4 23,9.8 C22.1,10 20.6,10.1 20.6,10.1 C20.1,10.1 19.7,10.2 19.3,10.2 C16.1,10.2 14.1,9 12.7,4.7 C11.5,1 11.3,-0.1 10.4,-4.5"/>
<path class="Note" transform="matrix(2.3811,0,0,2.3811,2051.5,1540.63)" d="M18.7,-13.6 C4.9,-13.6 0,-6.6 0,-0.1 C0,6.4 4.9,13.4 18.7,13.4 C32.5,13.4 37.3,6.4 37.3,-0.1 C37.3,-6.6 32.5,-13.6 18.7,-13.6 M10.4,-4.5 C10.3,-4.9 10.3,-5.3 10.3,-5.7 C10.3,-6.5 10.5,-7.3 10.9,-8 C11.6,-9 12.8,-9.7 14.3,-10 C15.6,-10.3 16.3,-10.5 18.9,-10.5 L19,-10.5 C23,-10.5 24.3,-6.8 25.4,-3 L25.7,-2 C26.5,0.6 26.9,2.8 26.9,4.5 C26.9,5.7 26.7,6.8 26.3,7.6 C25.7,8.7 24.7,9.4 23,9.8 C22.1,10 20.6,10.1 20.6,10.1 C20.1,10.1 19.7,10.2 19.3,10.2 C16.1,10.2 14.1,9 12.7,4.7 C11.5,1 11.3,-0.1 10.4,-4.5"/>
<path class="Note" transform="matrix(2.3811,0,0,2.3811,2051.5,1421.57)" d="M18.7,-13.6 C4.9,-13.6 0,-6.6 0,-0.1 C0,6.4 4.9,13.4 18.7,13.4 C32.5,13.4 37.3,6.4 37.3,-0.1 C37.3,-6.6 32.5,-13.6 18.7,-13.6 M10.4,-4.5 C10.3,-4.9 10.3,-5.3 10.3,-5.7 C10.3,-6.5 10.5,-7.3 10.9,-8 C11.6,-9 12.8,-9.7 14.3,-10 C15.6,-10.3 16.3,-10.5 18.9,-10.5 L19,-10.5 C23,-10.5 24.3,-6.8 25.4,-3 L25.7,-2 C26.5,0.6 26.9,2.8 26.9,4.5 C26.9,5.7 26.7,6.8 26.3,7.6 C25.7,8.7 24.7,9.4 23,9.8 C22.1,10 20.6,10.1 20.6,10.1 C20.1,10.1 19.7,10.2 19.3,10.2 C16.1,10.2 14.1,9 12.7,4.7 C11.5,1 11.3,-0.1 10.4,-4.5"/>
<path class="Note" transform="matrix(2.3811,0,0,2.3811,2051.5,1362.05)" d="M18.7,-13.6 C4.9,-13.6 0,-6.6 0,-0.1 C0,6.4 4.9,13.4 18.7,13.4 C32.5,13.4 37.3,6.4 37.3,-0.1 C37.3,-6.6 32.5,-13.6 18.7,-13.6 M10.4,-4.5 C10.3,-4.9 10.3,-5.3 10.3,-5.7 C10.3,-6.5 10.5,-7.3 10.9,-8 C11.6,-9 12.8,-9.7 14.3,-10 C15.6,-10.3 16.3,-10.5 18.9,-10.5 L19,-10.5 C23,-10.5 24.3,-6.8 25.4,-3 L25.7,-2 C26.5,0.6 26.9,2.8 26.9,4.5 C26.9,5.7 26.7,6.8 26.3,7.6 C25.7,8.7 24.7,9.4 23,9.8 C22.1,10 20.6,10.1 20.6,10.1 C20.1,10.1 19.7,10.2 19.3,10.2 C16.1,10.2 14.1,9 12.7,4.7 C11.5,1 11.3,-0.1 10.4,-4.5"/>
<path class="Note" transform="matrix(2.3811,0,0,2.3811,2505.05,1540.63)" d="M18.7,-13.6 C4.9,-13.6 0,-6.6 0,-0.1 C0,6.4 4.9,13.4 18.7,13.4 C32.5,13.4 37.3,6.4 37.3,-0.1 C37.3,-6.6 32.5,-13.6 18.7,-13.6 M10.4,-4.5 C10.3,-4.9 10.3,-5.3 10.3,-5.7 C10.3,-6.5 10.5,-7.3 10.9,-8 C11.6,-9 12.8,-9.7 14.3,-10 C15.6,-10.3 16.3,-10.5 18.9,-10.5 L19,-10.5 C23,-10.5 24.3,-6.8 25.4,-3 L25.7,-2 C26.5,0.6 26.9,2.8 26.9,4.5 C26.9,5.7 26.7,6.8 26.3,7.6 C25.7,8.7 24.7,9.4 23,9.8 C22.1,10 20.6,10.1 20.6,10.1 C20.1,10.1 19.7,10.2 19.3,10.2 C16.1,10.2 14.1,9 12.7,4.7 C11.5,1 11.3,-0.1 10.4,-4.5"/>
<path class="Note" transform="matrix(2.3811,0,0,2.3811,2505.05,1451.34)" d="M18.7,-13.6 C4.9,-13.6 0,-6.6 0,-0.1 C0,6.4 4.9,13.4 18.7,13.4 C32.5,13.4 37.3,6.4 37.3,-0.1 C37.3,-6.6 32.5,-13.6 18.7,-13.6 M10.4,-4.5 C10.3,-4.9 10.3,-5.3 10.3,-5.7 C10.3,-6.5 10.5,-7.3 10.9,-8 C11.6,-9 12.8,-9.7 14.3,-10 C15.6,-10.3 16.3,-10.5 18.9,-10.5 L19,-10.5 C23,-10.5 24.3,-6.8 25.4,-3 L25.7,-2 C26.5,0.6 26.9,2.8 26.9,4.5 C26.9,5.7 26.7,6.8 26.3,7.6 C25.7,8.7 24.7,9.4 23,9.8 C22.1,10 20.6,10.1 20.6,10.1 C20.1,10.1 19.7,10.2 19.3,10.2 C16.1,10.2 14.1,9 12.7,4.7 C11.5,1 11.3,-0.1 10.4,-4.5"/>
<path class="Note" transform="matrix(2.3811,0,0,2.3811,2505.05,1391.81)" d="M18.7,-13.6 C4.9,-13.6 0,-6.6 0,-0.1 C0,6.4 4.9,13.4 18.7,13.4 C32.5,13.4 37.3,6.4 37.3,-0.1 C37.3,-6.6 32.5,-13.6 18.7,-13.6 M10.4,-4.5 C10.3,-4.9 10.3,-5.3 10.3,-5.7 C10.3,-6.5 10.5,-7.3 10.9,-8 C11.6,-9 12.8,-9.7 14.3,-10 C15.6,-10.3 16.3,-10.5 18.9,-10.5 L19,-10.5 C23,-10.5 24.3,-6.8 25.4,-3 L25.7,-2 C26.5,0.6 26.9,2.8 26.9,4.5 C26.9,5.7 26.7,6.8 26.3,7.6 C25.7,8.7 24.7,9.4 23,9.8 C22.1,10 20.6,10.1 20.6,10.1 C20.1,10.1 19.7,10.2 19.3,10.2 C16.1,10.2 14.1,9 12.7,4.7 C11.5,1 11.3,-0.1 10.4,-4.5"/>
<path class="Note" transform="matrix(2.3811,0,0,2.3811,2931.68,1570.39)" d="M18.7,-13.6 C4.9,-13.6 0,-6.6 0,-0.1 C0,6.4 4.9,13.4 18.7,13.4 C32.5,13.4 37.3,6.4 37.3,-0.1 C37.3,-6.6 32.5,-13.6 18.7,-13.6 M10.4,-4.5 C10.3,-4.9 10.3,-5.3 10.3,-5.7 C10.3,-6.5 10.5,-7.3 10.9,-8 C11.6,-9 12.8,-9.7 14.3,-10 C15.6,-10.3 16.3,-10.5 18.9,-10.5 L19,-10.5 C23,-10.5 24.3,-6.8 25.4,-3 L25.7,-2 C26.5,0.6 26.9,2.8 26.9,4.5 C26.9,5.7 26.7,6.8 26.3,7.6 C25.7,8.7 24.7,9.4 23,9.8 C22.1,10 20.6,10.1 20.6,10.1 C20.1,10.1 19.7,10.2 19.3,10.2 C16.1,10.2 14.1,9 12.7,4.7 C11.5,1 11.3,-0.1 10.4,-4.5"/>
<path class="Note" transform="matrix(2.3811,0,0,2.3811,2931.68,1481.1)" d="M18.7,-13.6 C4.9,-13.6 0,-6.6 0,-0.1 C0,6.4 4.9,13.4 18.7,13.4 C32.5,13.4 37.3,6.4 37.3,-0.1 C37.3,-6.6 32.5,-13.6 18.7,-13.6 M10.4,-4.5 C10.3,-4.9 10.3,-5.3 10.3,-5.7 C10.3,-6.5 10.5,-7.3 10.9,-8 C11.6,-9 12.8,-9.7 14.3,-10 C15.6,-10.3 16.3,-10.5 18.9,-10.5 L19,-10.5 C23,-10.5 24.3,-6.8 25.4,-3 L25.7,-2 C26.5,0.6 26.9,2.8 26.9,4.5 C26.9,5.7 26.7,6.8 26.3,7.6 C25.7,8.7 24.7,9.4 23,9.8 C22.1,10 20.6,10.1 20.6,10.1 C20.1,10.1 19.7,10.2 19.3,10.2 C16.1,10.2 14.1,9 12.7,4.7 C11.5,1 11.3,-0.1 10.4,-4.5"/>
<path class="Note" transform="matrix(2.3811,0,0,2.3811,2931.68,1362.05)" d="M18.7,-13.6 C4.9,-13.6 0,-6.6 0,-0.1 C0,6.4 4.9,13.4 18.7,13.4 C32.5,13.4 37.3,6.4 37.3,-0.1 C37.3,-6.6 32.5,-13.6 18.7,-13.6 M10.4,-4.5 C10.3,-4.9 10.3,-5.3 10.3,-5.7 C10.3,-6.5 10.5,-7.3 10.9,-8 C11.6,-9 12.8,-9.7 14.3,-10 C15.6,-10.3 16.3,-10.5 18.9,-10.5 L19,-10.5 C23,-10.5 24.3,-6.8 25.4,-3 L25.7,-2 C26.5,0.6 26.9,2.8 26.9,4.5 C26.9,5.7 26.7,6.8 26.3,7.6 C25.7,8.7 24.7,9.4 23,9.8 C22.1,10 20.6,10.1 20.6,10.1 C20.1,10.1 19.7,10.2 19.3,10.2 C16.1,10.2 14.1,9 12.7,4.7 C11.5,1 11.3,-0.1 10.4,-4.5"/>
<path class="Note" transform="matrix(2.3811,0,0,2.3811,3293.45,1481.1)" d="M18.7,-13.6 C4.9,-13.6 0,-6.6 0,-0.1 C0,6.4 4.9,13.4 18.7,13.4 C32.5,13.4 37.3,6.4 37.3,-0.1 C37.3,-6.6 32.5,-13.6 18.7,-13.6 M10.4,-4.5 C10.3,-4.9 10.3,-5.3 10.3,-5.7 C10.3,-6.5 10.5,-7.3 10.9,-8 C11.6,-9 12.8,-9.7 14.3,-10 C15.6,-10.3 16.3,-10.5 18.9,-10.5 L19,-10.5 C23,-10.5 24.3,-6.8 25.4,-3 L25.7,-2 C26.5,0.6 26.9,2.8 26.9,4.5 C26.9,5.7 26.7,6.8 26.3,7.6 C25.7,8.7 24.7,9.4 23,9.8 C22.1,10 20.6,10.1 20.6,10.1 C20.1,10.1 19.7,10.2 19.3,10.2 C16.1,10.2 14.1,9 12.7,4.7 C11.5,1 11.3,-0.1 10.4,-4.5"/>
<path class="Note" transform="matrix(2.3811,0,0,2.3811,3375.71,1451.34)" d="M18.7,-13.6 C4.9,-13.6 0,-6.6 0,-0.1 C0,6.4 4.9,13.4 18.7,13.4 C32.5,13.4 37.3,6.4 37.3,-0.1 C37.3,-6.6 32.5,-13.6 18.7,-13.6 M10.4,-4.5 C10.3,-4.9 10.3,-5.3 10.3,-5.7 C10.3,-6.5 10.5,-7.3 10.9,-8 C11.6,-9 12.8,-9.7 14.3,-10 C15.6,-10.3 16.3,-10.5 18.9,-10.5 L19,-10.5 C23,-10.5 24.3,-6.8 25.4,-3 L25.7,-2 C26.5,0.6 26.9,2.8 26.9,4.5 C26.9,5.7 26.7,6.8 26.3,7.6 C25.7,8.7 24.7,9.4 23,9.8 C22.1,10 20.6,10.1 20.6,10.1 C20.1,10.1 19.7,10.2 19.3,10.2 C16.1,10.2 14.1,9 12.7,4.7 C11.5,1 11.3,-0.1 10.4,-4.5"/>
<path class="Note" transform="matrix(2.3811,0,0,2.3811,3375.71,1332.28)" d="M18.7,-13.6 C4.9,-13.6 0,-6.6 0,-0.1 C0,6.4 4.9,13.4 18.7,13.4 C32.5,13.4 37.3,6.4 37.3,-0.1 C37.3,-6.6 32.5,-13.6 18.7,-13.6 M10.4,-4.5 C10.3,-4.9 10.3,-5.3 10.3,-5.7 C10.3,-6.5 10.5,-7.3 10.9,-8 C11.6,-9 12.8,-9.7 14.3,-10 C15.6,-10.3 16.3,-10.5 18.9,-10.5 L19,-10.5 C23,-10.5 24.3,-6.8 25.4,-3 L25.7,-2 C26.5,0.6 26.9,2.8 26.9,4.5 C26.9,5.7 26.7,6.8 26.3,7.6 C25.7,8.7 24.7,9.4 23,9.8 C22.1,10 20.6,10.1 20.6,10.1 C20.1,10.1 19.7,10.2 19.3,10.2 C16.1,10.2 14.1,9 12.7,4.7 C11.5,1 11.3,-0.1 10.4,-4.5"/>
<path class="Note" transform="matrix(2.3811,0,0,2.3811,3772.36,1510.87)" d="M18.7,-13.6 C4.9,-13.6 0,-6.6 0,-0.1 C0,6.4 4.9,13.4 18.7,13.4 C32.5,13.4 37.3,6.4 37.3,-0.1 C37.3,-6.6 32.5,-13.6 18.7,-13.6 M10.4,-4.5 C10.3,-4.9 10.3,-5.3 10.3,-5.7 C10.3,-6.5 10.5,-7.3 10.9,-8 C11.6,-9 12.8,-9.7 14.3,-10 C15.6,-10.3 16.3,-10.5 18.9,-10.5 L19,-10.5 C23,-10.5 24.3,-6.8 25.4,-3 L25.7,-2 C26.5,0.6 26.9,2.8 26.9,4.5 C26.9,5.7 26.7,6.8 26.3,7.6 C25.7,8.7 24.7,9.4 23,9.8 C22.1,10 20.6,10.1 20.6,10.1 C20.1,10.1 19.7,10.2 19.3,10.2 C16.1,10.2 14.1,9 12.7,4.7 C11.5,1 11.3,-0.1 10.4,-4.5"/>
<path class="Note" transform="matrix(2.3811,0,0,2.3811,3772.36,1451.34)" d="M18.7,-13.6 C4.9,-13.6 0,-6.6 0,-0.1 C0,6.4 4.9,13.4 18.7,13.4 C32.5,13.4 37.3,6.4 37.3,-0.1 C37.3,-6.6 32.5,-13.6 18.7,-13.6 M10.4,-4.5 C10.3,-4.9 10.3,-5.3 10.3,-5.7 C10.3,-6.5 10.5,-7.3 10.9,-8 C11.6,-9 12.8,-9.7 14.3,-10 C15.6,-10.3 16.3,-10.5 18.9,-10.5 L19,-10.5 C23,-10.5 24.3,-6.8 25.4,-3 L25.7,-2 C26.5,0.6 26.9,2.8 26.9,4.5 C26.9,5.7 26.7,6.8 26.3,7.6 C25.7,8.7 24.7,9.4 23,9.8 C22.1,10 20.6,10.1 20.6,10.1 C20.1,10.1 19.7,10.2 19.3,10.2 C16.1,10.2 14.1,9 12.7,4.7 C11.5,1 11.3,-0.1 10.4,-4.5"/>
<path class="Note" transform="matrix(2.3811,0,0,2.3811,3772.36,1362.05)" d="M18.7,-13.6 C4.9,-13.6 0,-6.6 0,-0.1 C0,6.4 4.9,13.4 18.7,13.4 C32.5,13.4 37.3,6.4 37.3,-0.1 C37.3,-6.6 32.5,-13.6 18.7,-13.6 M10.4,-4.5 C10.3,-4.9 10.3,-5.3 10.3,-5.7 C10.3,-6.5 10.5,-7.3 10.9,-8 C11.6,-9 12.8,-9.7 14.3,-10 C15.6,-10.3 16.3,-10.5 18.9,-10.5 L19,-10.5 C23,-10.5 24.3,-6.8 25.4,-3 L25.7,-2 C26.5,0.6 26.9,2.8 26.9,4.5 C26.9,5.7 26.7,6.8 26.3,7.6 C25.7,8.7 24.7,9.4 23,9.8 C22.1,10 20.6,10.1 20.6,10.1 C20.1,10.1 19.7,10.2 19.3,10.2 C16.1,10.2 14.1,9 12.7,4.7 C11.5,1 11.3,-0.1 10.4,-4.5"/>
<path class="Note" d="M780.154,829.061 C784.493,826.117 787.631,823.677 789.568,821.74 C793.131,817.944 794.913,814.457 794.913,811.281 C794.913,807.64 792.899,805.819 788.87,805.819 C781.045,805.819 772.678,812.714 763.769,826.505 C761.057,830.688 755.092,844.324 745.872,867.411 C753.232,875.003 756.912,879.303 756.912,880.31 C756.912,881.705 756.021,882.402 754.239,882.402 C752.845,882.402 749.01,880.039 742.735,875.313 C735.917,891.195 725.574,904.753 711.706,915.987 C697.528,927.453 680.6,933.186 660.922,933.186 C653.407,933.186 643.994,931.443 632.683,927.957 C623.618,925.168 619.086,920.713 619.086,914.593 C619.086,905.528 622.572,900.996 629.545,900.996 C633.729,900.996 635.82,902.933 635.82,906.806 C635.82,908.046 634.852,909.363 632.915,910.758 C631.908,911.455 631.404,912.811 631.404,914.825 C631.404,917.227 634.077,919.706 639.423,922.263 C645.234,925.052 653.756,926.446 664.989,926.446 C679.477,926.446 693.461,920.171 706.942,907.62 C719.182,896.231 727.976,882.983 733.321,867.876 C731.23,866.171 728.983,864.312 726.581,862.298 C719.144,857.882 715.425,853.349 715.425,848.701 C715.425,846.764 716.703,845.796 719.26,845.796 C722.669,845.796 727.278,848.701 733.089,854.512 C734.329,855.751 735.491,856.913 736.575,857.998 C739.287,850.56 743.625,841.109 749.591,829.642 C760.36,808.879 773.453,798.498 788.87,798.498 C794.371,798.498 798.709,799.544 801.886,801.636 C805.062,803.727 806.651,806.594 806.651,810.235 C806.651,816.046 804.52,820.965 800.259,824.994 C795.843,829.178 791.233,831.269 786.43,831.269 C782.246,831.269 780.154,830.533 780.154,829.061"/>
<path class="Note" d="M779.341,584.778 C779.341,593.688 769.192,613.25 748.894,643.465 C740.836,655.473 729.254,664.266 714.147,669.845 C702.99,674.028 690.091,676.12 675.448,676.12 C670.723,676.12 666.539,675.152 662.898,673.215 C658.869,671.123 656.855,668.837 656.855,666.358 C656.855,659.928 660.302,656.713 667.197,656.713 C668.205,656.713 668.708,657.332 668.708,658.572 C668.708,659.657 668.205,660.858 667.197,662.175 C665.958,663.802 665.338,665.002 665.338,665.777 C665.338,668.101 668.824,669.263 675.797,669.263 C691.447,669.263 703.804,667.365 712.868,663.569 C722.32,659.695 731.733,649.818 741.108,633.935 L743.78,628.938 C739.287,632.347 734.832,634.052 730.416,634.052 C719.415,634.052 713.914,629.597 713.914,620.687 C713.914,611.081 720.383,600.97 733.321,590.356 C743.471,582.144 752.496,578.038 760.399,578.038 C764.35,578.038 767.642,579.084 770.277,581.176 C771.206,580.478 772.368,580.13 773.763,580.13 C777.482,580.13 779.341,581.679 779.341,584.778 M745.175,626.498 L767.139,585.94 C765.434,585.553 763.536,585.359 761.445,585.359 C753.93,585.359 746.647,589.736 739.597,598.491 C731.385,608.718 727.278,616.891 727.278,623.012 C727.278,627.04 729.951,629.055 735.297,629.055 C737.854,629.055 741.146,628.202 745.175,626.498"/>
<path class="Note" d="M707.523,821.118 C703.339,821.118 701.247,819.22 701.247,815.423 C701.247,808.993 702.216,804.267 704.153,801.246 C712.21,789.315 729.719,767.002 756.68,734.308 C768.843,719.511 784.532,712.112 803.745,712.112 C811.183,712.112 816.335,713.158 819.201,715.249 C823.617,718.503 825.825,722.416 825.825,726.987 C825.825,731.79 821.952,737.136 814.204,743.024 C806.844,748.602 799.872,751.391 793.286,751.391 C790.73,751.391 789.451,751.12 789.451,750.578 C789.451,749.803 790.691,748.989 793.17,748.137 C796.501,746.898 800.065,744.38 803.861,740.583 C808.2,736.167 810.369,732.178 810.369,728.614 C810.369,726.212 808.704,723.927 805.372,721.757 C802.428,719.898 797.664,718.968 791.078,718.968 C781.472,718.968 769.347,728.652 754.704,748.021 C744.943,760.959 737.04,772.348 730.997,782.187 C733.941,780.56 737.466,778.584 741.572,776.26 C746.608,773.394 750.947,771.96 754.588,771.96 C763.653,771.96 768.185,775.214 768.185,781.722 C768.185,788.152 764.466,795.203 757.028,802.873 C751.76,808.296 749.126,812.324 749.126,814.958 C749.126,817.67 751.76,819.026 757.028,819.026 C759.663,819.026 762.374,818.096 765.163,816.237 C767.952,814.455 770.005,813.564 771.322,813.564 C772.407,813.564 772.949,814.261 772.949,815.656 C772.949,817.902 770.78,820.265 766.442,822.745 C759.159,826.928 753.31,829.02 748.894,829.02 C741.069,829.02 737.156,824.836 737.156,816.469 C737.156,811.201 740.178,805.352 746.221,798.921 C750.637,794.195 752.845,789.508 752.845,784.86 C752.845,780.831 750.676,778.817 746.337,778.817 C744.633,778.817 738.977,780.831 729.37,784.86 C726.504,789.663 724.102,794.079 722.165,798.108 C714.805,813.448 709.924,821.118 707.523,821.118"/>
<path class="Note" d="M736.808,666.167 C740.604,666.167 742.502,669.072 742.502,674.883 C742.502,679.067 740.527,683.87 736.575,689.293 C733.089,694.174 731.346,701.728 731.346,711.954 C731.346,716.835 732.624,720.089 735.181,721.716 C736.963,722.956 740.294,723.614 745.175,723.692 C750.443,723.692 757.919,721.019 767.604,715.673 L769.463,717.532 C766.984,720.709 764.001,723.575 760.515,726.132 C755.324,729.928 750.017,731.826 744.594,731.826 C736.769,731.826 730.842,730.703 726.814,728.456 C721.778,725.667 719.26,722.181 719.26,717.997 C719.26,706.454 720.732,694.406 723.676,681.856 C724.761,677.285 727.124,673.101 730.765,669.305 C732.857,667.213 734.871,666.167 736.808,666.167"/>
<path class="Note" d="M1239.53,910.409 C1235.35,910.409 1233.25,908.511 1233.25,904.715 C1233.25,898.284 1234.22,893.558 1236.16,890.537 C1244.22,878.606 1261.73,856.293 1288.69,823.599 C1300.85,808.802 1316.54,801.403 1335.75,801.403 C1343.19,801.403 1348.34,802.449 1351.21,804.541 C1355.62,807.795 1357.83,811.707 1357.83,816.278 C1357.83,821.082 1353.96,826.427 1346.21,832.315 C1338.85,837.893 1331.88,840.682 1325.29,840.682 C1322.74,840.682 1321.46,840.411 1321.46,839.869 C1321.46,839.094 1322.7,838.281 1325.18,837.429 C1328.51,836.189 1332.07,833.671 1335.87,829.875 C1340.21,825.459 1342.38,821.469 1342.38,817.905 C1342.38,815.503 1340.71,813.218 1337.38,811.049 C1334.44,809.189 1329.67,808.26 1323.09,808.26 C1313.48,808.26 1301.35,817.944 1286.71,837.312 C1276.95,850.25 1269.05,861.639 1263,871.478 C1265.95,869.851 1269.47,867.876 1273.58,865.552 C1278.62,862.685 1282.95,861.252 1286.6,861.252 C1295.66,861.252 1300.19,864.506 1300.19,871.013 C1300.19,877.444 1296.47,884.494 1289.04,892.164 C1283.77,897.587 1281.13,901.616 1281.13,904.25 C1281.13,906.961 1283.77,908.317 1289.04,908.317 C1291.67,908.317 1294.38,907.388 1297.17,905.528 C1299.96,903.746 1302.01,902.855 1303.33,902.855 C1304.41,902.855 1304.96,903.553 1304.96,904.947 C1304.96,907.194 1302.79,909.557 1298.45,912.036 C1291.17,916.22 1285.32,918.311 1280.9,918.311 C1273.08,918.311 1269.16,914.128 1269.16,905.761 C1269.16,900.492 1272.18,894.643 1278.23,888.213 C1282.64,883.487 1284.85,878.8 1284.85,874.151 C1284.85,870.123 1282.68,868.108 1278.34,868.108 C1276.64,868.108 1270.98,870.123 1261.38,874.151 C1258.51,878.955 1256.11,883.371 1254.17,887.399 C1246.81,902.739 1241.93,910.409 1239.53,910.409"/>
<path class="Note" d="M1268.81,576.876 C1272.61,576.876 1274.51,579.781 1274.51,585.592 C1274.51,589.775 1272.53,594.579 1268.58,600.002 C1265.1,604.883 1263.35,612.436 1263.35,622.663 C1263.35,627.544 1264.63,630.798 1267.19,632.425 C1268.97,633.664 1272.3,634.323 1277.18,634.4 C1282.45,634.4 1289.93,631.727 1299.61,626.382 L1301.47,628.241 C1298.99,631.417 1296.01,634.284 1292.52,636.841 C1287.33,640.637 1282.02,642.535 1276.6,642.535 C1268.78,642.535 1262.85,641.412 1258.82,639.165 C1253.78,636.376 1251.27,632.889 1251.27,628.706 C1251.27,617.162 1252.74,605.115 1255.68,592.564 C1256.77,587.993 1259.13,583.81 1262.77,580.013 C1264.86,577.922 1266.88,576.876 1268.81,576.876"/>
<path class="Note" d="M1239.53,821.118 C1235.35,821.118 1233.25,819.22 1233.25,815.423 C1233.25,808.993 1234.22,804.267 1236.16,801.246 C1244.22,789.315 1261.73,767.002 1288.69,734.308 C1300.85,719.511 1316.54,712.112 1335.75,712.112 C1343.19,712.112 1348.34,713.158 1351.21,715.249 C1355.62,718.503 1357.83,722.416 1357.83,726.987 C1357.83,731.79 1353.96,737.136 1346.21,743.024 C1338.85,748.602 1331.88,751.391 1325.29,751.391 C1322.74,751.391 1321.46,751.12 1321.46,750.578 C1321.46,749.803 1322.7,748.989 1325.18,748.137 C1328.51,746.898 1332.07,744.38 1335.87,740.583 C1340.21,736.167 1342.38,732.178 1342.38,728.614 C1342.38,726.212 1340.71,723.927 1337.38,721.757 C1334.44,719.898 1329.67,718.968 1323.09,718.968 C1313.48,718.968 1301.35,728.652 1286.71,748.021 C1276.95,760.959 1269.05,772.348 1263,782.187 C1265.95,780.56 1269.47,778.584 1273.58,776.26 C1278.62,773.394 1282.95,771.96 1286.6,771.96 C1295.66,771.96 1300.19,775.214 1300.19,781.722 C1300.19,788.152 1296.47,795.203 1289.04,802.873 C1283.77,808.296 1281.13,812.324 1281.13,814.958 C1281.13,817.67 1283.77,819.026 1289.04,819.026 C1291.67,819.026 1294.38,818.096 1297.17,816.237 C1299.96,814.455 1302.01,813.564 1303.33,813.564 C1304.41,813.564 1304.96,814.261 1304.96,815.656 C1304.96,817.902 1302.79,820.265 1298.45,822.745 C1291.17,826.928 1285.32,829.02 1280.9,829.02 C1273.08,829.02 1269.16,824.836 1269.16,816.469 C1269.16,811.201 1272.18,805.352 1278.23,798.921 C1282.64,794.195 1284.85,789.508 1284.85,784.86 C1284.85,780.831 1282.68,778.817 1278.34,778.817 C1276.64,778.817 1270.98,780.831 1261.38,784.86 C1258.51,789.663 1256.11,794.079 1254.17,798.108 C1246.81,813.448 1241.93,821.118 1239.53,821.118"/>
<path class="Note" d="M1239.53,731.826 C1235.35,731.826 1233.25,729.928 1233.25,726.132 C1233.25,719.702 1234.22,714.976 1236.16,711.954 C1244.22,700.023 1261.73,677.711 1288.69,645.017 C1300.85,630.219 1316.54,622.82 1335.75,622.82 C1343.19,622.82 1348.34,623.866 1351.21,625.958 C1355.62,629.212 1357.83,633.124 1357.83,637.695 C1357.83,642.499 1353.96,647.845 1346.21,653.733 C1338.85,659.311 1331.88,662.1 1325.29,662.1 C1322.74,662.1 1321.46,661.829 1321.46,661.286 C1321.46,660.512 1322.7,659.698 1325.18,658.846 C1328.51,657.606 1332.07,655.088 1335.87,651.292 C1340.21,646.876 1342.38,642.886 1342.38,639.322 C1342.38,636.921 1340.71,634.635 1337.38,632.466 C1334.44,630.607 1329.67,629.677 1323.09,629.677 C1313.48,629.677 1301.35,639.361 1286.71,658.73 C1276.95,671.668 1269.05,683.056 1263,692.896 C1265.95,691.269 1269.47,689.293 1273.58,686.969 C1278.62,684.102 1282.95,682.669 1286.6,682.669 C1295.66,682.669 1300.19,685.923 1300.19,692.431 C1300.19,698.861 1296.47,705.911 1289.04,713.581 C1283.77,719.004 1281.13,723.033 1281.13,725.667 C1281.13,728.379 1283.77,729.735 1289.04,729.735 C1291.67,729.735 1294.38,728.805 1297.17,726.945 C1299.96,725.164 1302.01,724.273 1303.33,724.273 C1304.41,724.273 1304.96,724.97 1304.96,726.364 C1304.96,728.611 1302.79,730.974 1298.45,733.453 C1291.17,737.637 1285.32,739.729 1280.9,739.729 C1273.08,739.729 1269.16,735.545 1269.16,727.178 C1269.16,721.91 1272.18,716.06 1278.23,709.63 C1282.64,704.904 1284.85,700.217 1284.85,695.568 C1284.85,691.54 1282.68,689.526 1278.34,689.526 C1276.64,689.526 1270.98,691.54 1261.38,695.568 C1258.51,700.372 1256.11,704.788 1254.17,708.817 C1246.81,724.156 1241.93,731.826 1239.53,731.826"/>
<path class="Note" d="M1665.46,844.75 C1669.26,844.75 1671.16,847.655 1671.16,853.466 C1671.16,857.649 1669.18,862.453 1665.23,867.876 C1661.74,872.757 1660,880.31 1660,890.537 C1660,895.418 1661.28,898.672 1663.83,900.299 C1665.62,901.538 1668.95,902.197 1673.83,902.274 C1679.1,902.274 1686.57,899.601 1696.26,894.256 L1698.12,896.115 C1695.64,899.291 1692.66,902.158 1689.17,904.715 C1683.98,908.511 1678.67,910.409 1673.25,910.409 C1665.42,910.409 1659.5,909.286 1655.47,907.039 C1650.43,904.25 1647.91,900.763 1647.91,896.58 C1647.91,885.036 1649.39,872.989 1652.33,860.438 C1653.41,855.867 1655.78,851.684 1659.42,847.888 C1661.51,845.796 1663.52,844.75 1665.46,844.75"/>
<path class="Note" d="M1707.99,584.778 C1707.99,593.688 1697.85,613.25 1677.55,643.465 C1669.49,655.473 1657.91,664.266 1642.8,669.845 C1631.64,674.028 1618.74,676.12 1604.1,676.12 C1599.38,676.12 1595.19,675.152 1591.55,673.215 C1587.52,671.123 1585.51,668.837 1585.51,666.358 C1585.51,659.928 1588.96,656.713 1595.85,656.713 C1596.86,656.713 1597.36,657.332 1597.36,658.572 C1597.36,659.657 1596.86,660.858 1595.85,662.175 C1594.61,663.802 1593.99,665.002 1593.99,665.777 C1593.99,668.101 1597.48,669.263 1604.45,669.263 C1620.1,669.263 1632.46,667.365 1641.52,663.569 C1650.97,659.695 1660.39,649.818 1669.76,633.935 L1672.43,628.938 C1667.94,632.347 1663.49,634.052 1659.07,634.052 C1648.07,634.052 1642.57,629.597 1642.57,620.687 C1642.57,611.081 1649.04,600.97 1661.98,590.356 C1672.12,582.144 1681.15,578.038 1689.05,578.038 C1693,578.038 1696.3,579.084 1698.93,581.176 C1699.86,580.478 1701.02,580.13 1702.42,580.13 C1706.14,580.13 1707.99,581.679 1707.99,584.778 M1673.83,626.498 L1695.79,585.94 C1694.09,585.553 1692.19,585.359 1690.1,585.359 C1682.58,585.359 1675.3,589.736 1668.25,598.491 C1660.04,608.718 1655.93,616.891 1655.93,623.012 C1655.93,627.04 1658.61,629.055 1663.95,629.055 C1666.51,629.055 1669.8,628.202 1673.83,626.498"/>
<path class="Note" d="M1636.18,821.118 C1631.99,821.118 1629.9,819.22 1629.9,815.423 C1629.9,808.993 1630.87,804.267 1632.81,801.246 C1640.86,789.315 1658.37,767.002 1685.33,734.308 C1697.5,719.511 1713.19,712.112 1732.4,712.112 C1739.84,712.112 1744.99,713.158 1747.86,715.249 C1752.27,718.503 1754.48,722.416 1754.48,726.987 C1754.48,731.79 1750.61,737.136 1742.86,743.024 C1735.5,748.602 1728.53,751.391 1721.94,751.391 C1719.38,751.391 1718.11,751.12 1718.11,750.578 C1718.11,749.803 1719.34,748.989 1721.82,748.137 C1725.16,746.898 1728.72,744.38 1732.52,740.583 C1736.85,736.167 1739.02,732.178 1739.02,728.614 C1739.02,726.212 1737.36,723.927 1734.03,721.757 C1731.08,719.898 1726.32,718.968 1719.73,718.968 C1710.13,718.968 1698,728.652 1683.36,748.021 C1673.6,760.959 1665.69,772.348 1659.65,782.187 C1662.6,780.56 1666.12,778.584 1670.23,776.26 C1675.26,773.394 1679.6,771.96 1683.24,771.96 C1692.31,771.96 1696.84,775.214 1696.84,781.722 C1696.84,788.152 1693.12,795.203 1685.68,802.873 C1680.41,808.296 1677.78,812.324 1677.78,814.958 C1677.78,817.67 1680.41,819.026 1685.68,819.026 C1688.32,819.026 1691.03,818.096 1693.82,816.237 C1696.61,814.455 1698.66,813.564 1699.98,813.564 C1701.06,813.564 1701.6,814.261 1701.6,815.656 C1701.6,817.902 1699.43,820.265 1695.1,822.745 C1687.81,826.928 1681.96,829.02 1677.55,829.02 C1669.72,829.02 1665.81,824.836 1665.81,816.469 C1665.81,811.201 1668.83,805.352 1674.87,798.921 C1679.29,794.195 1681.5,789.508 1681.5,784.86 C1681.5,780.831 1679.33,778.817 1674.99,778.817 C1673.29,778.817 1667.63,780.831 1658.02,784.86 C1655.16,789.663 1652.76,794.079 1650.82,798.108 C1643.46,813.448 1638.58,821.118 1636.18,821.118"/>
<path class="Note" d="M1665.46,666.167 C1669.26,666.167 1671.16,669.072 1671.16,674.883 C1671.16,679.067 1669.18,683.87 1665.23,689.293 C1661.74,694.174 1660,701.728 1660,711.954 C1660,716.835 1661.28,720.089 1663.83,721.716 C1665.62,722.956 1668.95,723.614 1673.83,723.692 C1679.1,723.692 1686.57,721.019 1696.26,715.673 L1698.12,717.532 C1695.64,720.709 1692.66,723.575 1689.17,726.132 C1683.98,729.928 1678.67,731.826 1673.25,731.826 C1665.42,731.826 1659.5,730.703 1655.47,728.456 C1650.43,725.667 1647.91,722.181 1647.91,717.997 C1647.91,706.454 1649.39,694.406 1652.33,681.856 C1653.41,677.285 1655.78,673.101 1659.42,669.305 C1661.51,667.213 1663.52,666.167 1665.46,666.167"/>
<path class="Note" d="M2145.2,561.187 C2149.54,558.243 2152.68,555.803 2154.61,553.866 C2158.18,550.07 2159.96,546.583 2159.96,543.407 C2159.96,539.766 2157.94,537.945 2153.92,537.945 C2146.09,537.945 2137.72,544.84 2128.81,558.631 C2126.1,562.814 2120.14,576.45 2110.92,599.537 C2118.28,607.129 2121.96,611.429 2121.96,612.436 C2121.96,613.831 2121.07,614.528 2119.28,614.528 C2117.89,614.528 2114.05,612.165 2107.78,607.439 C2100.96,623.321 2090.62,636.879 2076.75,648.113 C2062.57,659.579 2045.65,665.312 2025.97,665.312 C2018.45,665.312 2009.04,663.569 1997.73,660.083 C1988.66,657.294 1984.13,652.839 1984.13,646.719 C1984.13,637.654 1987.62,633.122 1994.59,633.122 C1998.77,633.122 2000.87,635.059 2000.87,638.932 C2000.87,640.172 1999.9,641.489 1997.96,642.884 C1996.95,643.581 1996.45,644.937 1996.45,646.951 C1996.45,649.353 1999.12,651.832 2004.47,654.388 C2010.28,657.178 2018.8,658.572 2030.03,658.572 C2044.52,658.572 2058.51,652.297 2071.99,639.746 C2084.23,628.357 2093.02,615.109 2098.37,600.002 C2096.27,598.297 2094.03,596.438 2091.63,594.424 C2084.19,590.008 2080.47,585.475 2080.47,580.827 C2080.47,578.89 2081.75,577.922 2084.3,577.922 C2087.71,577.922 2092.32,580.827 2098.13,586.638 C2099.37,587.877 2100.54,589.039 2101.62,590.124 C2104.33,582.686 2108.67,573.235 2114.64,561.768 C2125.4,541.005 2138.5,530.624 2153.92,530.624 C2159.42,530.624 2163.75,531.67 2166.93,533.762 C2170.11,535.853 2171.7,538.72 2171.7,542.361 C2171.7,548.172 2169.56,553.091 2165.3,557.12 C2160.89,561.304 2156.28,563.395 2151.47,563.395 C2147.29,563.395 2145.2,562.659 2145.2,561.187"/>
<path class="Note" d="M2145.2,739.77 C2149.54,736.826 2152.68,734.386 2154.61,732.449 C2158.18,728.652 2159.96,725.166 2159.96,721.99 C2159.96,718.348 2157.94,716.528 2153.92,716.528 C2146.09,716.528 2137.72,723.423 2128.81,737.213 C2126.1,741.397 2120.14,755.032 2110.92,778.12 C2118.28,785.712 2121.96,790.012 2121.96,791.019 C2121.96,792.414 2121.07,793.111 2119.28,793.111 C2117.89,793.111 2114.05,790.748 2107.78,786.022 C2100.96,801.904 2090.62,815.462 2076.75,826.696 C2062.57,838.162 2045.65,843.895 2025.97,843.895 C2018.45,843.895 2009.04,842.152 1997.73,838.666 C1988.66,835.876 1984.13,831.422 1984.13,825.301 C1984.13,816.237 1987.62,811.705 1994.59,811.705 C1998.77,811.705 2000.87,813.641 2000.87,817.515 C2000.87,818.755 1999.9,820.072 1997.96,821.466 C1996.95,822.164 1996.45,823.519 1996.45,825.534 C1996.45,827.935 1999.12,830.415 2004.47,832.971 C2010.28,835.76 2018.8,837.155 2030.03,837.155 C2044.52,837.155 2058.51,830.879 2071.99,818.329 C2084.23,806.94 2093.02,793.692 2098.37,778.584 C2096.27,776.88 2094.03,775.021 2091.63,773.006 C2084.19,768.59 2080.47,764.058 2080.47,759.41 C2080.47,757.473 2081.75,756.504 2084.3,756.504 C2087.71,756.504 2092.32,759.41 2098.13,765.22 C2099.37,766.46 2100.54,767.622 2101.62,768.707 C2104.33,761.269 2108.67,751.817 2114.64,740.351 C2125.4,719.588 2138.5,709.207 2153.92,709.207 C2159.42,709.207 2163.75,710.252 2166.93,712.344 C2170.11,714.436 2171.7,717.303 2171.7,720.944 C2171.7,726.754 2169.56,731.674 2165.3,735.703 C2160.89,739.886 2156.28,741.978 2151.47,741.978 C2147.29,741.978 2145.2,741.242 2145.2,739.77"/>
<path class="Note" d="M2144.39,495.487 C2144.39,504.396 2134.24,523.958 2113.94,554.173 C2105.88,566.182 2094.3,574.975 2079.19,580.553 C2068.04,584.737 2055.14,586.829 2040.49,586.829 C2035.77,586.829 2031.58,585.86 2027.94,583.923 C2023.91,581.832 2021.9,579.546 2021.9,577.067 C2021.9,570.637 2025.35,567.421 2032.24,567.421 C2033.25,567.421 2033.75,568.041 2033.75,569.281 C2033.75,570.365 2033.25,571.566 2032.24,572.883 C2031,574.51 2030.38,575.711 2030.38,576.486 C2030.38,578.81 2033.87,579.972 2040.84,579.972 C2056.49,579.972 2068.85,578.074 2077.91,574.278 C2087.36,570.404 2096.78,560.526 2106.15,544.644 L2108.83,539.647 C2104.33,543.056 2099.88,544.76 2095.46,544.76 C2084.46,544.76 2078.96,540.305 2078.96,531.396 C2078.96,521.789 2085.43,511.679 2098.37,501.065 C2108.52,492.853 2117.54,488.747 2125.44,488.747 C2129.39,488.747 2132.69,489.792 2135.32,491.884 C2136.25,491.187 2137.41,490.838 2138.81,490.838 C2142.53,490.838 2144.39,492.388 2144.39,495.487 M2110.22,537.207 L2132.18,496.649 C2130.48,496.262 2128.58,496.068 2126.49,496.068 C2118.97,496.068 2111.69,500.445 2104.64,509.2 C2096.43,519.426 2092.32,527.6 2092.32,533.72 C2092.32,537.749 2095,539.763 2100.34,539.763 C2102.9,539.763 2106.19,538.911 2110.22,537.207"/>
<path class="Note" d="M2101.85,666.167 C2105.65,666.167 2107.55,669.072 2107.55,674.883 C2107.55,679.067 2105.57,683.87 2101.62,689.293 C2098.13,694.174 2096.39,701.728 2096.39,711.954 C2096.39,716.835 2097.67,720.089 2100.23,721.716 C2102.01,722.956 2105.34,723.614 2110.22,723.692 C2115.49,723.692 2122.96,721.019 2132.65,715.673 L2134.51,717.532 C2132.03,720.709 2129.05,723.575 2125.56,726.132 C2120.37,729.928 2115.06,731.826 2109.64,731.826 C2101.81,731.826 2095.89,730.703 2091.86,728.456 C2086.82,725.667 2084.3,722.181 2084.3,717.997 C2084.3,706.454 2085.78,694.406 2088.72,681.856 C2089.81,677.285 2092.17,673.101 2095.81,669.305 C2097.9,667.213 2099.92,666.167 2101.85,666.167"/>
<path class="Note" d="M2583.87,851.839 C2588.44,851.839 2590.72,854.705 2590.72,860.438 C2590.72,864.467 2588.21,870.471 2583.17,878.451 C2579.14,884.881 2577.13,891.157 2577.13,897.277 C2577.13,900.763 2582.2,902.507 2592.35,902.507 C2600.72,902.507 2612.38,897.974 2627.33,888.91 C2612.3,903.398 2599.25,910.641 2588.17,910.641 C2578.17,910.641 2571.2,909.131 2567.25,906.109 C2566.24,905.334 2565.39,904.405 2564.69,903.32 C2560.82,908.046 2554.35,910.409 2545.28,910.409 C2536.61,910.409 2529.94,908.627 2525.3,905.063 C2522.2,902.662 2520.65,898.827 2520.65,893.558 C2520.65,885.191 2525.61,876.049 2535.52,866.133 C2546.14,855.519 2558.42,850.212 2572.36,850.212 C2575.85,850.212 2578.4,851.49 2580.03,854.047 C2581.35,852.575 2582.63,851.839 2583.87,851.839 M2563.06,898.091 C2562.99,897.471 2562.95,896.851 2562.95,896.231 C2562.95,895.921 2566.9,885.114 2574.8,863.808 C2575.58,861.717 2576.35,859.935 2577.13,858.463 C2574.1,857.843 2571.12,857.533 2568.18,857.533 C2562.75,857.533 2555.55,862.143 2546.56,871.362 C2538.51,879.574 2534.48,886.663 2534.48,892.629 C2534.48,899.214 2537.61,902.507 2543.89,902.507 C2551.48,902.507 2557.87,901.035 2563.06,898.091"/>
<path class="Note" d="M2598.74,561.187 C2603.08,558.243 2606.22,555.803 2608.15,553.866 C2611.72,550.07 2613.5,546.583 2613.5,543.407 C2613.5,539.766 2611.49,537.945 2607.46,537.945 C2599.63,537.945 2591.27,544.84 2582.36,558.631 C2579.64,562.814 2573.68,576.45 2564.46,599.537 C2571.82,607.129 2575.5,611.429 2575.5,612.436 C2575.5,613.831 2574.61,614.528 2572.83,614.528 C2571.43,614.528 2567.6,612.165 2561.32,607.439 C2554.5,623.321 2544.16,636.879 2530.29,648.113 C2516.12,659.579 2499.19,665.312 2479.51,665.312 C2471.99,665.312 2462.58,663.569 2451.27,660.083 C2442.21,657.294 2437.67,652.839 2437.67,646.719 C2437.67,637.654 2441.16,633.122 2448.13,633.122 C2452.32,633.122 2454.41,635.059 2454.41,638.932 C2454.41,640.172 2453.44,641.489 2451.5,642.884 C2450.5,643.581 2449.99,644.937 2449.99,646.951 C2449.99,649.353 2452.66,651.832 2458.01,654.388 C2463.82,657.178 2472.34,658.572 2483.58,658.572 C2498.06,658.572 2512.05,652.297 2525.53,639.746 C2537.77,628.357 2546.56,615.109 2551.91,600.002 C2549.82,598.297 2547.57,596.438 2545.17,594.424 C2537.73,590.008 2534.01,585.475 2534.01,580.827 C2534.01,578.89 2535.29,577.922 2537.85,577.922 C2541.26,577.922 2545.87,580.827 2551.68,586.638 C2552.92,587.877 2554.08,589.039 2555.16,590.124 C2557.87,582.686 2562.21,573.235 2568.18,561.768 C2578.95,541.005 2592.04,530.624 2607.46,530.624 C2612.96,530.624 2617.3,531.67 2620.47,533.762 C2623.65,535.853 2625.24,538.72 2625.24,542.361 C2625.24,548.172 2623.11,553.091 2618.85,557.12 C2614.43,561.304 2609.82,563.395 2605.02,563.395 C2600.83,563.395 2598.74,562.659 2598.74,561.187"/>
<path class="Note" d="M2598.74,471.896 C2603.08,468.952 2606.22,466.512 2608.15,464.575 C2611.72,460.778 2613.5,457.292 2613.5,454.116 C2613.5,450.474 2611.49,448.654 2607.46,448.654 C2599.63,448.654 2591.27,455.549 2582.36,469.339 C2579.64,473.523 2573.68,487.158 2564.46,510.246 C2571.82,517.838 2575.5,522.138 2575.5,523.145 C2575.5,524.54 2574.61,525.237 2572.83,525.237 C2571.43,525.237 2567.6,522.874 2561.32,518.148 C2554.5,534.03 2544.16,547.588 2530.29,558.822 C2516.12,570.288 2499.19,576.021 2479.51,576.021 C2471.99,576.021 2462.58,574.278 2451.27,570.791 C2442.21,568.002 2437.67,563.548 2437.67,557.427 C2437.67,548.363 2441.16,543.831 2448.13,543.831 C2452.32,543.831 2454.41,545.767 2454.41,549.641 C2454.41,550.881 2453.44,552.198 2451.5,553.592 C2450.5,554.29 2449.99,555.645 2449.99,557.66 C2449.99,560.061 2452.66,562.541 2458.01,565.097 C2463.82,567.886 2472.34,569.281 2483.58,569.281 C2498.06,569.281 2512.05,563.005 2525.53,550.455 C2537.77,539.066 2546.56,525.818 2551.91,510.71 C2549.82,509.006 2547.57,507.147 2545.17,505.132 C2537.73,500.716 2534.01,496.184 2534.01,491.536 C2534.01,489.599 2535.29,488.63 2537.85,488.63 C2541.26,488.63 2545.87,491.536 2551.68,497.346 C2552.92,498.586 2554.08,499.748 2555.16,500.832 C2557.87,493.395 2562.21,483.943 2568.18,472.477 C2578.95,451.714 2592.04,441.332 2607.46,441.332 C2612.96,441.332 2617.3,442.378 2620.47,444.47 C2623.65,446.562 2625.24,449.429 2625.24,453.07 C2625.24,458.88 2623.11,463.8 2618.85,467.829 C2614.43,472.012 2609.82,474.104 2605.02,474.104 C2600.83,474.104 2598.74,473.368 2598.74,471.896"/>
<path class="Note" d="M2526.11,821.118 C2521.93,821.118 2519.83,819.22 2519.83,815.423 C2519.83,808.993 2520.8,804.267 2522.74,801.246 C2530.8,789.315 2548.31,767.002 2575.27,734.308 C2587.43,719.511 2603.12,712.112 2622.33,712.112 C2629.77,712.112 2634.92,713.158 2637.79,715.249 C2642.2,718.503 2644.41,722.416 2644.41,726.987 C2644.41,731.79 2640.54,737.136 2632.79,743.024 C2625.43,748.602 2618.46,751.391 2611.87,751.391 C2609.32,751.391 2608.04,751.12 2608.04,750.578 C2608.04,749.803 2609.28,748.989 2611.76,748.137 C2615.09,746.898 2618.65,744.38 2622.45,740.583 C2626.79,736.167 2628.96,732.178 2628.96,728.614 C2628.96,726.212 2627.29,723.927 2623.96,721.757 C2621.02,719.898 2616.25,718.968 2609.67,718.968 C2600.06,718.968 2587.93,728.652 2573.29,748.021 C2563.53,760.959 2555.63,772.348 2549.58,782.187 C2552.53,780.56 2556.05,778.584 2560.16,776.26 C2565.2,773.394 2569.53,771.96 2573.18,771.96 C2582.24,771.96 2586.77,775.214 2586.77,781.722 C2586.77,788.152 2583.05,795.203 2575.62,802.873 C2570.35,808.296 2567.71,812.324 2567.71,814.958 C2567.71,817.67 2570.35,819.026 2575.62,819.026 C2578.25,819.026 2580.96,818.096 2583.75,816.237 C2586.54,814.455 2588.59,813.564 2589.91,813.564 C2590.99,813.564 2591.54,814.261 2591.54,815.656 C2591.54,817.902 2589.37,820.265 2585.03,822.745 C2577.75,826.928 2571.9,829.02 2567.48,829.02 C2559.66,829.02 2555.74,824.836 2555.74,816.469 C2555.74,811.201 2558.76,805.352 2564.81,798.921 C2569.22,794.195 2571.43,789.508 2571.43,784.86 C2571.43,780.831 2569.26,778.817 2564.92,778.817 C2563.22,778.817 2557.56,780.831 2547.96,784.86 C2545.09,789.663 2542.69,794.079 2540.75,798.108 C2533.39,813.448 2528.51,821.118 2526.11,821.118"/>
<path class="Note" d="M2526.11,731.826 C2521.93,731.826 2519.83,729.928 2519.83,726.132 C2519.83,719.702 2520.8,714.976 2522.74,711.954 C2530.8,700.023 2548.31,677.711 2575.27,645.017 C2587.43,630.219 2603.12,622.82 2622.33,622.82 C2629.77,622.82 2634.92,623.866 2637.79,625.958 C2642.2,629.212 2644.41,633.124 2644.41,637.695 C2644.41,642.499 2640.54,647.845 2632.79,653.733 C2625.43,659.311 2618.46,662.1 2611.87,662.1 C2609.32,662.1 2608.04,661.829 2608.04,661.286 C2608.04,660.512 2609.28,659.698 2611.76,658.846 C2615.09,657.606 2618.65,655.088 2622.45,651.292 C2626.79,646.876 2628.96,642.886 2628.96,639.322 C2628.96,636.921 2627.29,634.635 2623.96,632.466 C2621.02,630.607 2616.25,629.677 2609.67,629.677 C2600.06,629.677 2587.93,639.361 2573.29,658.73 C2563.53,671.668 2555.63,683.056 2549.58,692.896 C2552.53,691.269 2556.05,689.293 2560.16,686.969 C2565.2,684.102 2569.53,682.669 2573.18,682.669 C2582.24,682.669 2586.77,685.923 2586.77,692.431 C2586.77,698.861 2583.05,705.911 2575.62,713.581 C2570.35,719.004 2567.71,723.033 2567.71,725.667 C2567.71,728.379 2570.35,729.735 2575.62,729.735 C2578.25,729.735 2580.96,728.805 2583.75,726.945 C2586.54,725.164 2588.59,724.273 2589.91,724.273 C2590.99,724.273 2591.54,724.97 2591.54,726.364 C2591.54,728.611 2589.37,730.974 2585.03,733.453 C2577.75,737.637 2571.9,739.729 2567.48,739.729 C2559.66,739.729 2555.74,735.545 2555.74,727.178 C2555.74,721.91 2558.76,716.06 2564.81,709.63 C2569.22,704.904 2571.43,700.217 2571.43,695.568 C2571.43,691.54 2569.26,689.526 2564.92,689.526 C2563.22,689.526 2557.56,691.54 2547.96,695.568 C2545.09,700.372 2542.69,704.788 2540.75,708.817 C2533.39,724.156 2528.51,731.826 2526.11,731.826"/>
<path class="Note" d="M2952.74,999.7 C2948.56,999.7 2946.47,997.802 2946.47,994.006 C2946.47,987.576 2947.44,982.85 2949.37,979.828 C2957.43,967.897 2974.94,945.585 3001.9,912.891 C3014.06,898.093 3029.75,890.694 3048.97,890.694 C3056.4,890.694 3061.56,891.74 3064.42,893.832 C3068.84,897.086 3071.05,900.999 3071.05,905.569 C3071.05,910.373 3067.17,915.719 3059.43,921.607 C3052.07,927.185 3045.09,929.974 3038.51,929.974 C3035.95,929.974 3034.67,929.703 3034.67,929.16 C3034.67,928.386 3035.91,927.572 3038.39,926.72 C3041.72,925.48 3045.29,922.962 3049.08,919.166 C3053.42,914.75 3055.59,910.76 3055.59,907.196 C3055.59,904.795 3053.92,902.509 3050.59,900.34 C3047.65,898.481 3042.88,897.551 3036.3,897.551 C3026.69,897.551 3014.57,907.235 2999.93,926.604 C2990.16,939.542 2982.26,950.93 2976.22,960.77 C2979.16,959.143 2982.69,957.167 2986.79,954.843 C2991.83,951.976 2996.17,950.543 2999.81,950.543 C3008.87,950.543 3013.41,953.797 3013.41,960.305 C3013.41,966.735 3009.69,973.785 3002.25,981.455 C2996.98,986.878 2994.35,990.907 2994.35,993.541 C2994.35,996.253 2996.98,997.609 3002.25,997.609 C3004.88,997.609 3007.6,996.679 3010.38,994.819 C3013.17,993.038 3015.23,992.147 3016.54,992.147 C3017.63,992.147 3018.17,992.844 3018.17,994.238 C3018.17,996.485 3016,998.848 3011.66,1001.33 C3004.38,1005.51 2998.53,1007.6 2994.11,1007.6 C2986.29,1007.6 2982.38,1003.42 2982.38,995.052 C2982.38,989.784 2985.4,983.934 2991.44,977.504 C2995.86,972.778 2998.07,968.091 2998.07,963.443 C2998.07,959.414 2995.9,957.4 2991.56,957.4 C2989.85,957.4 2984.2,959.414 2974.59,963.443 C2971.72,968.246 2969.32,972.662 2967.39,976.691 C2960.03,992.03 2955.15,999.7 2952.74,999.7"/>
<path class="Note" d="M3010.5,762.547 C3015.07,762.547 3017.36,765.414 3017.36,771.147 C3017.36,775.176 3014.84,781.18 3009.8,789.16 C3005.77,795.59 3003.76,801.865 3003.76,807.986 C3003.76,811.472 3008.83,813.215 3018.98,813.215 C3027.35,813.215 3039.01,808.683 3053.96,799.619 C3038.93,814.106 3025.88,821.35 3014.8,821.35 C3004.81,821.35 2997.83,819.839 2993.88,816.818 C2992.88,816.043 2992.02,815.113 2991.33,814.029 C2987.45,818.755 2980.98,821.118 2971.92,821.118 C2963.24,821.118 2956.58,819.336 2951.93,815.772 C2948.83,813.37 2947.28,809.535 2947.28,804.267 C2947.28,795.9 2952.24,786.758 2962.16,776.841 C2972.77,766.227 2985.05,760.92 2999,760.92 C3002.48,760.92 3005.04,762.199 3006.67,764.755 C3007.98,763.283 3009.26,762.547 3010.5,762.547 M2989.7,808.799 C2989.62,808.179 2989.58,807.56 2989.58,806.94 C2989.58,806.63 2993.53,795.822 3001.44,774.517 C3002.21,772.425 3002.99,770.643 3003.76,769.171 C3000.74,768.552 2997.76,768.242 2994.81,768.242 C2989.39,768.242 2982.18,772.851 2973.2,782.071 C2965.14,790.283 2961.11,797.372 2961.11,803.337 C2961.11,809.923 2964.25,813.215 2970.52,813.215 C2978.12,813.215 2984.51,811.743 2989.7,808.799"/>
<path class="Note" d="M2982.03,576.876 C2985.82,576.876 2987.72,579.781 2987.72,585.592 C2987.72,589.775 2985.75,594.579 2981.8,600.002 C2978.31,604.883 2976.57,612.436 2976.57,622.663 C2976.57,627.544 2977.85,630.798 2980.4,632.425 C2982.18,633.664 2985.52,634.323 2990.4,634.4 C2995.66,634.4 3003.14,631.727 3012.82,626.382 L3014.68,628.241 C3012.2,631.417 3009.22,634.284 3005.74,636.841 C3000.55,640.637 2995.24,642.535 2989.81,642.535 C2981.99,642.535 2976.06,641.412 2972.03,639.165 C2967,636.376 2964.48,632.889 2964.48,628.706 C2964.48,617.162 2965.95,605.115 2968.9,592.564 C2969.98,587.993 2972.34,583.81 2975.99,580.013 C2978.08,577.922 2980.09,576.876 2982.03,576.876"/>
<path class="Note" d="M2982.03,666.167 C2985.82,666.167 2987.72,669.072 2987.72,674.883 C2987.72,679.067 2985.75,683.87 2981.8,689.293 C2978.31,694.174 2976.57,701.728 2976.57,711.954 C2976.57,716.835 2977.85,720.089 2980.4,721.716 C2982.18,722.956 2985.52,723.614 2990.4,723.692 C2995.66,723.692 3003.14,721.019 3012.82,715.673 L3014.68,717.532 C3012.2,720.709 3009.22,723.575 3005.74,726.132 C3000.55,729.928 2995.24,731.826 2989.81,731.826 C2981.99,731.826 2976.06,730.703 2972.03,728.456 C2967,725.667 2964.48,722.181 2964.48,717.997 C2964.48,706.454 2965.95,694.406 2968.9,681.856 C2969.98,677.285 2972.34,673.101 2975.99,669.305 C2978.08,667.213 2980.09,666.167 2982.03,666.167"/>
<path class="Note" d="M3457.67,925.79 C3460.07,925.79 3461.81,926.294 3462.89,927.301 C3464.13,928.386 3464.75,929.974 3464.75,932.066 C3464.75,934.7 3463.59,936.946 3461.27,938.806 C3451.2,945.933 3440.85,954.998 3430.24,965.999 C3432.64,976.613 3435.59,984.477 3439.07,989.59 C3443.64,996.33 3446.78,999.7 3448.48,999.7 C3450.03,999.7 3451.7,998.732 3453.48,996.795 C3454.72,995.478 3455.92,994.819 3457.08,994.819 C3459.56,994.819 3460.8,996.137 3460.8,998.771 C3460.8,1001.56 3458.59,1005.36 3454.18,1010.16 C3451.78,1012.64 3449.26,1013.88 3446.63,1013.88 C3441.2,1013.88 3435.74,1008.8 3430.24,998.654 C3424.66,988.428 3420.83,978.782 3418.73,969.718 C3414.86,981.649 3412.92,988.97 3412.92,991.682 C3412.92,997.027 3409.86,999.7 3403.74,999.7 C3400.41,999.7 3398.75,996.601 3398.75,990.403 C3398.75,987.459 3402.43,974.289 3409.79,950.892 C3413.43,939.426 3416.41,931.407 3418.73,926.836 C3419.28,925.906 3420.67,925.442 3422.92,925.442 C3425.55,925.442 3427.37,925.984 3428.38,927.068 C3429.39,928.153 3429.89,930.4 3429.89,933.809 C3429.89,935.513 3428.23,941.401 3424.89,951.473 C3433.18,943.338 3442.52,935.397 3452.9,927.65 C3454.53,926.41 3456.12,925.79 3457.67,925.79"/>
<path class="Note" d="M3426.06,576.876 C3429.85,576.876 3431.75,579.781 3431.75,585.592 C3431.75,589.775 3429.77,594.579 3425.82,600.002 C3422.34,604.883 3420.59,612.436 3420.59,622.663 C3420.59,627.544 3421.87,630.798 3424.43,632.425 C3426.21,633.664 3429.54,634.323 3434.42,634.4 C3439.69,634.4 3447.17,631.727 3456.85,626.382 L3458.71,628.241 C3456.23,631.417 3453.25,634.284 3449.76,636.841 C3444.57,640.637 3439.27,642.535 3433.84,642.535 C3426.02,642.535 3420.09,641.412 3416.06,639.165 C3411.03,636.376 3408.51,632.889 3408.51,628.706 C3408.51,617.162 3409.98,605.115 3412.92,592.564 C3414.01,587.993 3416.37,583.81 3420.01,580.013 C3422.1,577.922 3424.12,576.876 3426.06,576.876"/>
<path class="Note" d="M3396.77,821.118 C3392.59,821.118 3390.5,819.22 3390.5,815.423 C3390.5,808.993 3391.46,804.267 3393.4,801.246 C3401.46,789.315 3418.97,767.002 3445.93,734.308 C3458.09,719.511 3473.78,712.112 3492.99,712.112 C3500.43,712.112 3505.58,713.158 3508.45,715.249 C3512.87,718.503 3515.07,722.416 3515.07,726.987 C3515.07,731.79 3511.2,737.136 3503.45,743.024 C3496.09,748.602 3489.12,751.391 3482.53,751.391 C3479.98,751.391 3478.7,751.12 3478.7,750.578 C3478.7,749.803 3479.94,748.989 3482.42,748.137 C3485.75,746.898 3489.31,744.38 3493.11,740.583 C3497.45,736.167 3499.62,732.178 3499.62,728.614 C3499.62,726.212 3497.95,723.927 3494.62,721.757 C3491.68,719.898 3486.91,718.968 3480.33,718.968 C3470.72,718.968 3458.59,728.652 3443.95,748.021 C3434.19,760.959 3426.29,772.348 3420.25,782.187 C3423.19,780.56 3426.71,778.584 3430.82,776.26 C3435.86,773.394 3440.19,771.96 3443.84,771.96 C3452.9,771.96 3457.43,775.214 3457.43,781.722 C3457.43,788.152 3453.71,795.203 3446.28,802.873 C3441.01,808.296 3438.37,812.324 3438.37,814.958 C3438.37,817.67 3441.01,819.026 3446.28,819.026 C3448.91,819.026 3451.62,818.096 3454.41,816.237 C3457.2,814.455 3459.25,813.564 3460.57,813.564 C3461.66,813.564 3462.2,814.261 3462.2,815.656 C3462.2,817.902 3460.03,820.265 3455.69,822.745 C3448.41,826.928 3442.56,829.02 3438.14,829.02 C3430.32,829.02 3426.4,824.836 3426.4,816.469 C3426.4,811.201 3429.43,805.352 3435.47,798.921 C3439.89,794.195 3442.09,789.508 3442.09,784.86 C3442.09,780.831 3439.92,778.817 3435.59,778.817 C3433.88,778.817 3428.23,780.831 3418.62,784.86 C3415.75,789.663 3413.35,794.079 3411.41,798.108 C3404.05,813.448 3399.17,821.118 3396.77,821.118"/>
<path class="Note" d="M3431.29,625.958 C3433.76,625.958 3435.47,626.578 3436.4,627.818 C3437.79,629.909 3438.49,632.853 3438.49,636.65 C3438.49,641.066 3435.39,651.641 3429.19,668.375 C3419.04,696.808 3413.97,711.877 3413.97,713.581 C3413.97,718.152 3415.79,720.476 3419.43,720.554 C3420.98,720.554 3424.93,718.152 3431.29,713.349 C3437.56,708.778 3442.4,706.492 3445.81,706.492 C3447.21,706.492 3447.9,707.345 3447.9,709.049 C3447.9,711.916 3444.07,715.673 3436.4,720.321 C3423.85,727.991 3415.17,731.826 3410.37,731.826 C3402.7,731.826 3398.86,728.805 3398.86,722.762 C3398.86,722.607 3404.17,704.827 3414.78,669.421 C3421.21,648.116 3425.13,634.248 3426.52,627.818 C3426.75,626.578 3428.34,625.958 3431.29,625.958"/>
<path class="Note" d="M3866.05,829.061 C3870.39,826.117 3873.53,823.677 3875.46,821.74 C3879.03,817.944 3880.81,814.457 3880.81,811.281 C3880.81,807.64 3878.79,805.819 3874.77,805.819 C3866.94,805.819 3858.57,812.714 3849.66,826.505 C3846.95,830.688 3840.99,844.324 3831.77,867.411 C3839.13,875.003 3842.81,879.303 3842.81,880.31 C3842.81,881.705 3841.92,882.402 3840.13,882.402 C3838.74,882.402 3834.9,880.039 3828.63,875.313 C3821.81,891.195 3811.47,904.753 3797.6,915.987 C3783.42,927.453 3766.5,933.186 3746.82,933.186 C3739.3,933.186 3729.89,931.443 3718.58,927.957 C3709.51,925.168 3704.98,920.713 3704.98,914.593 C3704.98,905.528 3708.47,900.996 3715.44,900.996 C3719.62,900.996 3721.72,902.933 3721.72,906.806 C3721.72,908.046 3720.75,909.363 3718.81,910.758 C3717.8,911.455 3717.3,912.811 3717.3,914.825 C3717.3,917.227 3719.97,919.706 3725.32,922.263 C3731.13,925.052 3739.65,926.446 3750.88,926.446 C3765.37,926.446 3779.36,920.171 3792.84,907.62 C3805.08,896.231 3813.87,882.983 3819.22,867.876 C3817.12,866.171 3814.88,864.312 3812.48,862.298 C3805.04,857.882 3801.32,853.349 3801.32,848.701 C3801.32,846.764 3802.6,845.796 3805.15,845.796 C3808.56,845.796 3813.17,848.701 3818.98,854.512 C3820.22,855.751 3821.39,856.913 3822.47,857.998 C3825.18,850.56 3829.52,841.109 3835.49,829.642 C3846.25,808.879 3859.35,798.498 3874.77,798.498 C3880.27,798.498 3884.6,799.544 3887.78,801.636 C3890.96,803.727 3892.55,806.594 3892.55,810.235 C3892.55,816.046 3890.42,820.965 3886.15,824.994 C3881.74,829.178 3877.13,831.269 3872.32,831.269 C3868.14,831.269 3866.05,830.533 3866.05,829.061"/>
<path class="Note" d="M3865.24,584.778 C3865.24,593.688 3855.09,613.25 3834.79,643.465 C3826.73,655.473 3815.15,664.266 3800.04,669.845 C3788.89,674.028 3775.99,676.12 3761.34,676.12 C3756.62,676.12 3752.43,675.152 3748.79,673.215 C3744.76,671.123 3742.75,668.837 3742.75,666.358 C3742.75,659.928 3746.2,656.713 3753.09,656.713 C3754.1,656.713 3754.6,657.332 3754.6,658.572 C3754.6,659.657 3754.1,660.858 3753.09,662.175 C3751.85,663.802 3751.23,665.002 3751.23,665.777 C3751.23,668.101 3754.72,669.263 3761.69,669.263 C3777.34,669.263 3789.7,667.365 3798.76,663.569 C3808.22,659.695 3817.63,649.818 3827,633.935 L3829.68,628.938 C3825.18,632.347 3820.73,634.052 3816.31,634.052 C3805.31,634.052 3799.81,629.597 3799.81,620.687 C3799.81,611.081 3806.28,600.97 3819.22,590.356 C3829.37,582.144 3838.39,578.038 3846.29,578.038 C3850.24,578.038 3853.54,579.084 3856.17,581.176 C3857.1,580.478 3858.26,580.13 3859.66,580.13 C3863.38,580.13 3865.24,581.679 3865.24,584.778 M3831.07,626.498 L3853.03,585.94 C3851.33,585.553 3849.43,585.359 3847.34,585.359 C3839.82,585.359 3832.54,589.736 3825.49,598.491 C3817.28,608.718 3813.17,616.891 3813.17,623.012 C3813.17,627.04 3815.85,629.055 3821.19,629.055 C3823.75,629.055 3827.04,628.202 3831.07,626.498"/>
<path class="Note" d="M3793.42,821.118 C3789.23,821.118 3787.14,819.22 3787.14,815.423 C3787.14,808.993 3788.11,804.267 3790.05,801.246 C3798.1,789.315 3815.61,767.002 3842.57,734.308 C3854.74,719.511 3870.43,712.112 3889.64,712.112 C3897.08,712.112 3902.23,713.158 3905.1,715.249 C3909.51,718.503 3911.72,722.416 3911.72,726.987 C3911.72,731.79 3907.85,737.136 3900.1,743.024 C3892.74,748.602 3885.77,751.391 3879.18,751.391 C3876.62,751.391 3875.35,751.12 3875.35,750.578 C3875.35,749.803 3876.59,748.989 3879.07,748.137 C3882.4,746.898 3885.96,744.38 3889.76,740.583 C3894.1,736.167 3896.26,732.178 3896.26,728.614 C3896.26,726.212 3894.6,723.927 3891.27,721.757 C3888.32,719.898 3883.56,718.968 3876.97,718.968 C3867.37,718.968 3855.24,728.652 3840.6,748.021 C3830.84,760.959 3822.94,772.348 3816.89,782.187 C3819.84,780.56 3823.36,778.584 3827.47,776.26 C3832.5,773.394 3836.84,771.96 3840.48,771.96 C3849.55,771.96 3854.08,775.214 3854.08,781.722 C3854.08,788.152 3850.36,795.203 3842.92,802.873 C3837.66,808.296 3835.02,812.324 3835.02,814.958 C3835.02,817.67 3837.66,819.026 3842.92,819.026 C3845.56,819.026 3848.27,818.096 3851.06,816.237 C3853.85,814.455 3855.9,813.564 3857.22,813.564 C3858.3,813.564 3858.84,814.261 3858.84,815.656 C3858.84,817.902 3856.68,820.265 3852.34,822.745 C3845.05,826.928 3839.2,829.02 3834.79,829.02 C3826.96,829.02 3823.05,824.836 3823.05,816.469 C3823.05,811.201 3826.07,805.352 3832.12,798.921 C3836.53,794.195 3838.74,789.508 3838.74,784.86 C3838.74,780.831 3836.57,778.817 3832.23,778.817 C3830.53,778.817 3824.87,780.831 3815.27,784.86 C3812.4,789.663 3810,794.079 3808.06,798.108 C3800.7,813.448 3795.82,821.118 3793.42,821.118"/>
<path class="Note" d="M3822.7,666.167 C3826.5,666.167 3828.4,669.072 3828.4,674.883 C3828.4,679.067 3826.42,683.87 3822.47,689.293 C3818.98,694.174 3817.24,701.728 3817.24,711.954 C3817.24,716.835 3818.52,720.089 3821.08,721.716 C3822.86,722.956 3826.19,723.614 3831.07,723.692 C3836.34,723.692 3843.81,721.019 3853.5,715.673 L3855.36,717.532 C3852.88,720.709 3849.9,723.575 3846.41,726.132 C3841.22,729.928 3835.91,731.826 3830.49,731.826 C3822.66,731.826 3816.74,730.703 3812.71,728.456 C3807.67,725.667 3805.15,722.181 3805.15,717.997 C3805.15,706.454 3806.63,694.406 3809.57,681.856 C3810.66,677.285 3813.02,673.101 3816.66,669.305 C3818.75,667.213 3820.77,666.167 3822.7,666.167"/>
<path class="Clef" transform="matrix(2.3811,0,0,2.3811,212.156,2076.38)" d="M25.4,-25.1 C17.8,-25.1 11.7,-20.7 11.6,-20.7 C5.8,-16.4 3.5,-11.3 2.6,-7.8 C2.1,-6 1.9,-4.2 1.9,-2.5 C1.9,-0.1 2.3,2.1 3.2,4 C4.4,6.7 6.7,8.6 9.7,9.6 C10.9,10 12.2,10.2 13.5,10.2 C15.7,10.2 18,9.6 19.9,8.5 C23,6.8 24.9,3.2 24.9,-0.7 C24.9,-4.2 23.1,-7.4 20.1,-9.3 C18,-10.7 16,-11.1 14.3,-11.1 C13.1,-11.1 12,-10.9 11.1,-10.6 C10.1,-10.2 8.4,-9.2 7.6,-8.5 C7.9,-10.4 9.1,-13.3 10.2,-14.9 C11.3,-16.5 13.5,-18.5 15.2,-19.4 C17.7,-20.8 20.9,-21.4 24.4,-21.4 C34.6,-21.4 39.6,-13.2 39.6,3.6 C39.6,12.9 36.1,21.8 33.1,27.7 C29.8,34.3 25.4,40.6 21.5,44.1 C11.1,53.6 1.3,58.1 1.2,58.1 C1.2,58.1 -0.3,59 0.1,60.5 C0.4,61.5 1.3,61.7 1.9,61.7 C2,61.7 2.3,61.6 2.4,61.6 C2.5,61.6 13.9,56.9 23,49.8 C28.1,46.1 32.7,42.1 36.7,37.8 C40.3,33.9 43.4,29.7 45.9,25.5 C50.3,18 52.8,10.2 52.8,3.5 C52.8,-4.8 50.6,-11.7 46.5,-16.6 C41.8,-22.2 34.7,-25.1 25.4,-25.1 M56.8,-12.4 C56.8,-9.6 59,-7.4 61.6,-7.4 C64.2,-7.4 66.4,-9.6 66.4,-12.4 C66.4,-15.2 64.2,-17.5 61.6,-17.5 C59,-17.5 56.8,-15.2 56.8,-12.4 M56.8,12.3 C56.8,15.1 59,17.4 61.6,17.4 C64.2,17.4 66.4,15.1 66.4,12.3 C66.4,9.5 64.2,7.2 61.6,7.2 C59,7.2 56.8,9.5 56.8,12.3"/>
<path class="Clef" transform="matrix(2.3811,0,0,2.3811,212.156,1570.39)" d="M63.37,-5.89004 C62.14,-11.32 59.5,-15.14 58.72,-16.1801 C55.5301,-20.45 51.52,-23.3 46.8301,-24.65 C43.72,-25.54 40.72,-25.65 38.3,-25.47 C37.2601,-31.4801 36.2601,-37.3601 35.35,-42.8101 C40.79,-48.97 44.42,-54.77 46.69,-59.07 C50.1601,-65.65 51.3101,-70.2301 51.3601,-70.4301 C53.0801,-75.64 53.44,-83.34 52.34,-91.55 C51.3301,-99.1 49.24,-105.81 46.89,-109.06 C45.8601,-110.49 44.8101,-111.22 43.77,-111.22 C42.55,-111.22 40.04,-109.98 37.15,-107.21 C34.85,-105.01 31.5801,-101.12 29.02,-95.1101 C26.02,-88.05 25.8101,-78.5601 26.1601,-71.84 C26.54,-64.57 27.65,-58.8801 27.6601,-58.8301 C27.6801,-58.74 27.94,-57.24 28.39,-54.67 C28.1601,-54.44 27.92,-54.22 27.67,-53.9801 C26.6301,-52.9801 25.44,-51.84 24.0601,-50.4601 C23.2,-49.6 22.25,-48.69 21.25,-47.72 C12.79,-39.57 0,-27.25 0,-8.1 C0,-3.4 0.9,1.01992 2.68008,5.02998 C4.27002,8.62998 6.57002,11.91 9.5,14.78 C17.2301,22.33 27.82,25.5399 34.8801,25.38 C37.8301,25.31 40.4601,25.0699 42.85,24.6199 C44.6801,34.2199 45.82,41.25 45.8601,46.5899 C45.9,53.1 44.25,57.0699 40.35,59.8399 C37.92,61.5699 35.1101,62.5199 32.0101,62.6699 C29.42,62.7899 27.1601,62.3199 25.7301,61.91 L25.72,61.91 C25.72,61.91 25.4301,61.83 25.42,61.63 C25.4101,61.45 25.7601,61.4 25.77,61.4 L25.79,61.4 C27.7101,60.96 31.2801,59.73 33.64,56.43 C35.44,53.91 36.3101,49.2899 34.47,45.35 C33.3601,42.96 30.85,40.01 25.2301,39.56 C22.74,39.36 20.47,39.8699 18.47,41.0699 C16.6601,42.15 15.1601,43.7899 14.1101,45.7899 C11.65,50.4899 12.1101,56.2199 15.24,60.06 C18.2,63.68 22.82,65.9899 28.25,66.5699 C29.1,66.66 29.95,66.7 30.8,66.7 C31.5101,66.7 32.22,66.6699 32.92,66.61 C31.72,66.9399 30.64,67.4899 29.77,68.25 C28.2801,69.5399 27.44,71.38 27.44,73.41 C27.44,75.28 28.0601,76.65 29.55,78.0399 C28.4101,78.5 27.55,78.98 26.79,79.56 C25.25,80.73 24.34,82.46 24.34,84.1899 C24.34,87.45 27.3,89.63 31.72,89.63 C37.1301,89.63 40.9101,86.63 40.9101,82.35 C40.9101,80.1199 39.9101,78.18 38.0801,76.83 C41.0101,75.6199 42.37,73.9399 42.37,71.56 C42.39,70.05 41.69,68.61 40.49,67.6899 C39.2801,66.7399 37.62,66.2399 35.69,66.2399 L35.5101,66.2399 C38.2801,65.7 40.92,64.7 43.2101,63.28 C46.87,60.71 48.99,56.73 49.67,51.1 C50.2301,46.46 49.84,40.55 48.44,32.48 C48.0801,30.3899 47.54,27.36 46.8801,23.6 C52.6301,21.68 56.79,18.11 60.5601,12.26 C63.85,6.51992 64.8,0.419922 63.37,-5.89004 M32.39,87.5399 C30.19,87.5399 28.7301,86.1199 28.7301,84.01 C28.7301,82.11 29.65,80.5 31.32,79.4699 C31.6801,79.66 31.77,79.71 32.1101,79.88 C33.3,80.48 33.3,80.48 33.55,80.63 L33.5601,80.6399 C35.47,81.73 36.25,82.76 36.25,84.18 C36.24,86.0899 34.59,87.5399 32.39,87.5399 M38.3101,71.63 C38.3101,73.2699 37.7301,74.3399 36.1801,75.53 C34.74,74.78 34.35,74.56 33.9801,74.3399 L33.8801,74.28 C32.3301,73.3399 31.85,72.66 31.85,71.4 C31.85,69.6 33.2301,68.3399 35.19,68.3399 C37.17,68.35 38.3101,69.55 38.3101,71.63 M33.15,-83.8101 C34.9301,-89.55 37.67,-92.8 39.6601,-94.5301 C41.4101,-96.05 43.0601,-96.7601 43.9801,-96.7601 C44.12,-96.7601 44.24,-96.74 44.34,-96.7101 C44.8,-96.57 45.3301,-96 45.8,-95.1301 C48.1101,-90.84 47.37,-84.1301 46.0301,-79.69 C44.4,-74.29 41.4801,-68.6801 32.69,-59.0601 C32.52,-60.17 32.3601,-61.22 32.2101,-62.2 C30.95,-70.49 31.27,-77.7601 33.15,-83.8101 M29.15,20.31 C24.5101,19.0899 20.0801,16.5899 16.32,13.0899 C15.0101,11.86 13.14,9.68994 11.67,6.3 C10.3101,3.13994 9.65,-0.290039 9.7,-3.88008 C9.77002,-8.57002 11.0801,-13.39 13.59,-18.1801 C16.5101,-23.7601 21.07,-29.29 27.1301,-34.62 C28.5801,-35.9 29.95,-37.1801 31.24,-38.4601 C32,-34.2 32.8301,-29.5101 33.7101,-24.6301 C29.8601,-23.3601 25.1101,-20.2101 22,-14.5601 C18.47,-7.99004 18.6101,-2.47002 19.34,1.00996 C20.2801,5.46992 22.8101,9.22998 26.27,11.3199 C27.2,11.88 31.3301,14.01 33.17,13.43 C33.54,13.31 33.8101,13.0899 33.95,12.76 C34.4601,11.5899 33.44,10.95 31.8801,9.98994 C31.2801,9.61992 30.6101,9.2 29.8801,8.66992 C26.5601,6.17998 25.1101,1.72998 26.1801,-2.65 C26.7601,-5.05 28.04,-7.21006 29.8801,-8.91006 C31.55,-10.4601 33.59,-11.5601 35.97,-12.2 C38.0101,-0.960059 40.07,10.1899 41.7101,18.55 C41.84,19.2399 41.9801,19.91 42.1101,20.58 C37.7101,21.51 33.37,21.4199 29.15,20.31 M54.9,10.1 C53.7301,13.28 51.27,17.35 46.14,19.41 C46.07,18.9899 45.99,18.56 45.9101,18.13 C44.3601,9.36992 42.4301,-1.61006 40.47,-12.87 C50.82,-13.35 55.09,-5.91006 55.9801,-1.08008 C56.45,1.45 56.45,5.88994 54.9,10.1"/>
<path class="KeySig" transform="matrix(2.3811,0,0,2.3811,489.312,2106.14)" d="M20.1,-7.9 C19.5,-11.8 17.1,-15.5 12,-15.5 C7,-15.5 4.1,-12.4 3.6,-11.8 L4,-43.9 C4,-44.7 3.4,-45.3 2.6,-45.3 L1.4,-45.3 C0.6,-45.3 0,-44.7 0,-43.9 L0.5,16.2 C0.5,17 1.1,17.6 1.9,17.6 C2.1,17.6 2.5,17.5 2.7,17.4 C3.1,17.2 9.6,14 15,7.9 C18.8,3.6 20.3,-1.3 20.3,-5.4 C20.3,-6.3 20.2,-7.1 20.1,-7.9 M13.2,-4 C13.2,-2.5 12.8,2.1 10.3,5.9 C8.6,8.5 5.2,11.2 3.3,12.7 L3.6,-6.8 C3.8,-7.7 5.3,-10.6 9.3,-10.6 C12.9,-10.6 13.2,-7.2 13.2,-5.1 L13.2,-4 "/>
<path class="KeySig" transform="matrix(2.3811,0,0,2.3811,429.785,2195.43)" d="M20.1,-7.9 C19.5,-11.8 17.1,-15.5 12,-15.5 C7,-15.5 4.1,-12.4 3.6,-11.8 L4,-43.9 C4,-44.7 3.4,-45.3 2.6,-45.3 L1.4,-45.3 C0.6,-45.3 0,-44.7 0,-43.9 L0.5,16.2 C0.5,17 1.1,17.6 1.9,17.6 C2.1,17.6 2.5,17.5 2.7,17.4 C3.1,17.2 9.6,14 15,7.9 C18.8,3.6 20.3,-1.3 20.3,-5.4 C20.3,-6.3 20.2,-7.1 20.1,-7.9 M13.2,-4 C13.2,-2.5 12.8,2.1 10.3,5.9 C8.6,8.5 5.2,11.2 3.3,12.7 L3.6,-6.8 C3.8,-7.7 5.3,-10.6 9.3,-10.6 C12.9,-10.6 13.2,-7.2 13.2,-5.1 L13.2,-4 "/>
<path class="KeySig" transform="matrix(2.3811,0,0,2.3811,489.312,1421.57)" d="M20.1,-7.9 C19.5,-11.8 17.1,-15.5 12,-15.5 C7,-15.5 4.1,-12.4 3.6,-11.8 L4,-43.9 C4,-44.7 3.4,-45.3 2.6,-45.3 L1.4,-45.3 C0.6,-45.3 0,-44.7 0,-43.9 L0.5,16.2 C0.5,17 1.1,17.6 1.9,17.6 C2.1,17.6 2.5,17.5 2.7,17.4 C3.1,17.2 9.6,14 15,7.9 C18.8,3.6 20.3,-1.3 20.3,-5.4 C20.3,-6.3 20.2,-7.1 20.1,-7.9 M13.2,-4 C13.2,-2.5 12.8,2.1 10.3,5.9 C8.6,8.5 5.2,11.2 3.3,12.7 L3.6,-6.8 C3.8,-7.7 5.3,-10.6 9.3,-10.6 C12.9,-10.6 13.2,-7.2 13.2,-5.1 L13.2,-4 "/>
<path class="KeySig" transform="matrix(2.3811,0,0,2.3811,429.785,1510.87)" d="M20.1,-7.9 C19.5,-11.8 17.1,-15.5 12,-15.5 C7,-15.5 4.1,-12.4 3.6,-11.8 L4,-43.9 C4,-44.7 3.4,-45.3 2.6,-45.3 L1.4,-45.3 C0.6,-45.3 0,-44.7 0,-43.9 L0.5,16.2 C0.5,17 1.1,17.6 1.9,17.6 C2.1,17.6 2.5,17.5 2.7,17.4 C3.1,17.2 9.6,14 15,7.9 C18.8,3.6 20.3,-1.3 20.3,-5.4 C20.3,-6.3 20.2,-7.1 20.1,-7.9 M13.2,-4 C13.2,-2.5 12.8,2.1 10.3,5.9 C8.6,8.5 5.2,11.2 3.3,12.7 L3.6,-6.8 C3.8,-7.7 5.3,-10.6 9.3,-10.6 C12.9,-10.6 13.2,-7.2 13.2,-5.1 L13.2,-4 "/>
<path class="FiguredBass" d="M1212.23,2444.42 C1211.55,2445.16 1210.66,2445.53 1209.54,2445.53 C1208.43,2445.53 1207.52,2445.15 1206.81,2444.37 C1206.09,2443.6 1205.74,2442.72 1205.74,2441.73 L1205.74,2428.46 L1192.47,2428.46 C1191.36,2428.46 1190.45,2428.08 1189.73,2427.3 C1189.02,2426.53 1188.67,2425.65 1188.67,2424.66 C1188.67,2423.67 1189.02,2422.79 1189.73,2422.01 C1190.45,2421.24 1191.36,2420.85 1192.47,2420.85 L1205.74,2420.85 L1205.74,2407.59 C1205.74,2406.6 1206.09,2405.72 1206.81,2404.94 C1207.52,2404.17 1208.43,2403.78 1209.54,2403.78 C1210.66,2403.78 1211.57,2404.17 1212.28,2404.94 C1212.99,2405.72 1213.35,2406.6 1213.35,2407.59 L1213.35,2420.85 L1226.61,2420.85 C1227.73,2420.85 1228.64,2421.24 1229.35,2422.01 C1230.06,2422.79 1230.42,2423.67 1230.42,2424.66 C1230.42,2425.65 1230.06,2426.53 1229.35,2427.3 C1228.64,2428.08 1227.73,2428.46 1226.61,2428.46 L1213.35,2428.46 L1213.35,2441.73 C1213.35,2442.72 1212.97,2443.62 1212.23,2444.42 M1265.66,2390.15 C1261.08,2390.15 1258.03,2391.99 1256.52,2395.67 C1255,2399.35 1254.25,2404.56 1254.25,2411.3 L1254.25,2422.25 C1257.46,2420.95 1260.24,2420.27 1262.59,2420.21 C1270.64,2420.21 1276.96,2421.98 1281.57,2425.54 C1286.17,2429.1 1288.48,2434.38 1288.48,2441.4 C1288.48,2448.42 1286.14,2453.73 1281.47,2457.31 C1276.8,2460.9 1270.51,2462.7 1262.59,2462.7 C1254.49,2462.7 1248.15,2458.94 1243.58,2451.42 C1239,2443.91 1236.71,2434.99 1236.71,2424.66 C1236.71,2414.39 1239.37,2405.49 1244.69,2397.94 C1250.01,2390.39 1257,2386.62 1265.66,2386.62 C1271.35,2386.62 1276.26,2388.06 1280.41,2390.94 C1284.55,2393.81 1286.62,2397.6 1286.62,2402.3 C1286.62,2405.02 1285.63,2407.37 1283.65,2409.35 C1281.68,2411.33 1279.31,2412.32 1276.56,2412.32 C1273.8,2412.32 1271.44,2411.33 1269.46,2409.35 C1267.48,2407.37 1266.49,2405.02 1266.49,2402.3 C1266.49,2399.64 1267.48,2397.29 1269.46,2395.25 C1270.14,2394.45 1271.1,2393.76 1272.34,2393.21 C1272.03,2392.4 1271.41,2391.79 1270.48,2391.35 C1269.12,2390.55 1267.51,2390.15 1265.66,2390.15 M1270.2,2428.09 C1269.09,2425.18 1266.65,2423.73 1262.87,2423.73 C1259.1,2423.73 1256.77,2425.18 1255.87,2428.09 C1254.97,2431 1254.52,2435.42 1254.52,2441.36 C1254.52,2448.35 1254.97,2453.05 1255.87,2455.46 C1256.77,2457.87 1259.1,2459.08 1262.87,2459.08 C1266.65,2459.08 1269.09,2457.62 1270.2,2454.72 C1271.32,2451.81 1271.87,2447.37 1271.87,2441.4 C1271.87,2435.44 1271.32,2431 1270.2,2428.09"/>
<path class="FiguredBass" d="M1662.3,2390.15 C1657.73,2390.15 1654.68,2391.99 1653.16,2395.67 C1651.65,2399.35 1650.89,2404.56 1650.89,2411.3 L1650.89,2422.25 C1654.11,2420.95 1656.89,2420.27 1659.24,2420.21 C1667.28,2420.21 1673.61,2421.98 1678.21,2425.54 C1682.82,2429.1 1685.13,2434.38 1685.13,2441.4 C1685.13,2448.42 1682.79,2453.73 1678.12,2457.31 C1673.45,2460.9 1667.16,2462.7 1659.24,2462.7 C1651.14,2462.7 1644.8,2458.94 1640.22,2451.42 C1635.65,2443.91 1633.36,2434.99 1633.36,2424.66 C1633.36,2414.39 1636.02,2405.49 1641.34,2397.94 C1646.66,2390.39 1653.64,2386.62 1662.3,2386.62 C1667.99,2386.62 1672.91,2388.06 1677.05,2390.94 C1681.2,2393.81 1683.27,2397.6 1683.27,2402.3 C1683.27,2405.02 1682.28,2407.37 1680.3,2409.35 C1678.32,2411.33 1675.96,2412.32 1673.2,2412.32 C1670.45,2412.32 1668.09,2411.33 1666.11,2409.35 C1664.13,2407.37 1663.14,2405.02 1663.14,2402.3 C1663.14,2399.64 1664.13,2397.29 1666.11,2395.25 C1666.79,2394.45 1667.75,2393.76 1668.98,2393.21 C1668.67,2392.4 1668.06,2391.79 1667.13,2391.35 C1665.77,2390.55 1664.16,2390.15 1662.3,2390.15 M1666.85,2428.09 C1665.74,2425.18 1663.29,2423.73 1659.52,2423.73 C1655.75,2423.73 1653.41,2425.18 1652.52,2428.09 C1651.62,2431 1651.17,2435.42 1651.17,2441.36 C1651.17,2448.35 1651.62,2453.05 1652.52,2455.46 C1653.41,2457.87 1655.75,2459.08 1659.52,2459.08 C1663.29,2459.08 1665.74,2457.62 1666.85,2454.72 C1667.96,2451.81 1668.52,2447.37 1668.52,2441.4 C1668.52,2435.44 1667.96,2431 1666.85,2428.09"/>
<path class="FiguredBass" d="M2098.69,2390.15 C2094.12,2390.15 2091.07,2391.99 2089.56,2395.67 C2088.04,2399.35 2087.28,2404.56 2087.28,2411.3 L2087.28,2422.25 C2090.5,2420.95 2093.28,2420.27 2095.63,2420.21 C2103.67,2420.21 2110,2421.98 2114.6,2425.54 C2119.21,2429.1 2121.52,2434.38 2121.52,2441.4 C2121.52,2448.42 2119.18,2453.73 2114.51,2457.31 C2109.84,2460.9 2103.55,2462.7 2095.63,2462.7 C2087.53,2462.7 2081.19,2458.94 2076.61,2451.42 C2072.04,2443.91 2069.75,2434.99 2069.75,2424.66 C2069.75,2414.39 2072.41,2405.49 2077.73,2397.94 C2083.05,2390.39 2090.04,2386.62 2098.69,2386.62 C2104.38,2386.62 2109.3,2388.06 2113.44,2390.94 C2117.59,2393.81 2119.66,2397.6 2119.66,2402.3 C2119.66,2405.02 2118.67,2407.37 2116.69,2409.35 C2114.71,2411.33 2112.35,2412.32 2109.59,2412.32 C2106.84,2412.32 2104.48,2411.33 2102.5,2409.35 C2100.52,2407.37 2099.53,2405.02 2099.53,2402.3 C2099.53,2399.64 2100.52,2397.29 2102.5,2395.25 C2103.18,2394.45 2104.14,2393.76 2105.37,2393.21 C2105.06,2392.4 2104.45,2391.79 2103.52,2391.35 C2102.16,2390.55 2100.55,2390.15 2098.69,2390.15 M2103.24,2428.09 C2102.13,2425.18 2099.68,2423.73 2095.91,2423.73 C2092.14,2423.73 2089.8,2425.18 2088.91,2428.09 C2088.01,2431 2087.56,2435.42 2087.56,2441.36 C2087.56,2448.35 2088.01,2453.05 2088.91,2455.46 C2089.8,2457.87 2092.14,2459.08 2095.91,2459.08 C2099.68,2459.08 2102.13,2457.62 2103.24,2454.72 C2104.35,2451.81 2104.91,2447.37 2104.91,2441.4 C2104.91,2435.44 2104.35,2431 2103.24,2428.09"/>
<path class="FiguredBass" d="M2076.06,2492.37 C2076.06,2492.37 2077.54,2492.59 2080.51,2493.02 C2081.81,2493.21 2083.26,2493.39 2084.87,2493.58 C2089.14,2494.07 2093.25,2494.32 2097.21,2494.32 C2101.17,2494.32 2105.34,2494.07 2109.73,2493.58 C2111.47,2493.39 2112.98,2493.21 2114.28,2493.02 L2118.83,2492.37 C2119.75,2492.37 2120.45,2492.68 2120.91,2493.3 C2121.38,2493.92 2121.33,2494.41 2120.77,2494.78 C2111.31,2504.25 2097.98,2508.98 2080.79,2508.98 C2080.11,2508.98 2079.51,2509.23 2078.98,2509.72 C2078.45,2510.21 2078.19,2510.83 2078.19,2511.58 L2078.19,2526.14 C2082.58,2521.81 2087.9,2519.65 2094.15,2519.65 C2103.18,2519.65 2110.15,2521.67 2115.07,2525.72 C2119.99,2529.77 2122.44,2535.91 2122.44,2544.14 C2122.44,2551.13 2119.66,2556.93 2114.09,2561.53 C2108.53,2566.14 2101.88,2568.45 2094.15,2568.45 C2087.47,2568.45 2081.67,2566.93 2076.75,2563.9 C2071.84,2560.87 2069.38,2556.66 2069.38,2551.28 C2069.38,2548.56 2070.37,2546.2 2072.35,2544.19 C2074.33,2542.18 2076.69,2541.17 2079.44,2541.17 C2082.2,2541.17 2084.53,2542.16 2086.45,2544.14 C2088.37,2546.12 2089.32,2548.5 2089.32,2551.28 C2089.32,2552.52 2088.3,2553.86 2086.26,2555.32 C2084.22,2556.77 2083.2,2558.12 2083.2,2559.35 C2083.2,2563.06 2086.85,2564.92 2094.15,2564.92 C2101.26,2564.92 2104.82,2557.99 2104.82,2544.14 C2104.82,2530.78 2101.26,2524.07 2094.15,2524.01 C2087.78,2524.01 2083.32,2525.31 2080.79,2527.9 C2078.25,2530.5 2076.68,2531.8 2076.06,2531.8 C2074.51,2531.8 2073.77,2531.03 2073.83,2529.48 L2073.83,2494.78 C2073.83,2494.1 2074.05,2493.53 2074.48,2493.07 C2074.91,2492.6 2075.44,2492.37 2076.06,2492.37"/>
<path class="FiguredBass" d="M2543.42,2453.05 L2543.42,2472.44 C2543.42,2474.35 2542.45,2475.31 2540.5,2475.31 C2538.55,2475.31 2537.58,2474.35 2537.58,2472.44 L2537.58,2455.55 L2534.61,2456.76 C2534.3,2456.88 2533.9,2456.94 2533.4,2456.94 C2532.6,2456.94 2531.89,2456.63 2531.27,2456.02 C2530.65,2455.4 2530.34,2454.69 2530.34,2453.88 L2530.34,2444.42 C2530.34,2443.06 2530.99,2442.1 2532.29,2441.54 L2537.58,2439.32 L2537.58,2419.83 L2534.61,2421.04 C2534.42,2421.1 2534.18,2421.13 2533.87,2421.13 C2533.74,2421.13 2533.59,2421.13 2533.4,2421.13 C2532.48,2421.01 2531.73,2420.67 2531.18,2420.11 C2530.62,2419.56 2530.34,2418.91 2530.34,2418.16 L2530.34,2408.7 C2530.34,2407.4 2530.99,2406.47 2532.29,2405.92 L2537.58,2403.69 L2537.58,2383.93 C2537.58,2382.01 2538.55,2381.05 2540.5,2381.05 C2542.45,2381.05 2543.42,2382.01 2543.42,2383.93 L2543.42,2401.28 L2555.39,2396.27 L2555.39,2376.88 C2555.39,2374.96 2556.35,2374 2558.27,2374 C2560.18,2374 2561.14,2374.96 2561.14,2376.88 L2561.14,2393.95 L2564.39,2392.56 C2564.7,2392.44 2565.04,2392.37 2565.41,2392.37 C2566.21,2392.37 2566.94,2392.68 2567.59,2393.3 C2568.24,2393.92 2568.56,2394.63 2568.56,2395.43 L2568.56,2404.9 C2568.56,2406.26 2567.88,2407.22 2566.52,2407.77 L2561.14,2410 L2561.14,2429.58 L2564.39,2428.28 C2564.58,2428.21 2564.79,2428.18 2565.04,2428.18 C2565.16,2428.18 2565.29,2428.18 2565.41,2428.18 C2566.46,2428.37 2567.25,2428.71 2567.78,2429.2 C2568.3,2429.7 2568.56,2430.35 2568.56,2431.15 L2568.56,2440.62 C2568.56,2441.91 2567.88,2442.84 2566.52,2443.4 L2561.14,2445.63 L2561.14,2465.39 C2561.14,2467.3 2560.18,2468.26 2558.27,2468.26 C2556.35,2468.26 2555.39,2467.3 2555.39,2465.39 L2555.39,2448.04 L2543.42,2453.05 M2543.42,2436.9 L2555.39,2431.99 L2555.39,2412.41 L2543.42,2417.42 L2543.42,2436.9 "/>
<path class="FiguredBass" d="M2978.87,2390.15 C2974.29,2390.15 2971.25,2391.99 2969.73,2395.67 C2968.22,2399.35 2967.46,2404.56 2967.46,2411.3 L2967.46,2422.25 C2970.68,2420.95 2973.46,2420.27 2975.81,2420.21 C2983.85,2420.21 2990.17,2421.98 2994.78,2425.54 C2999.39,2429.1 3001.69,2434.38 3001.69,2441.4 C3001.69,2448.42 2999.36,2453.73 2994.69,2457.31 C2990.02,2460.9 2983.73,2462.7 2975.81,2462.7 C2967.71,2462.7 2961.37,2458.94 2956.79,2451.42 C2952.21,2443.91 2949.92,2434.99 2949.92,2424.66 C2949.92,2414.39 2952.58,2405.49 2957.9,2397.94 C2963.22,2390.39 2970.21,2386.62 2978.87,2386.62 C2984.56,2386.62 2989.48,2388.06 2993.62,2390.94 C2997.77,2393.81 2999.84,2397.6 2999.84,2402.3 C2999.84,2405.02 2998.85,2407.37 2996.87,2409.35 C2994.89,2411.33 2992.52,2412.32 2989.77,2412.32 C2987.02,2412.32 2984.65,2411.33 2982.67,2409.35 C2980.69,2407.37 2979.71,2405.02 2979.71,2402.3 C2979.71,2399.64 2980.69,2397.29 2982.67,2395.25 C2983.35,2394.45 2984.31,2393.76 2985.55,2393.21 C2985.24,2392.4 2984.62,2391.79 2983.69,2391.35 C2982.33,2390.55 2980.73,2390.15 2978.87,2390.15 M2983.42,2428.09 C2982.3,2425.18 2979.86,2423.73 2976.09,2423.73 C2972.31,2423.73 2969.98,2425.18 2969.08,2428.09 C2968.19,2431 2967.74,2435.42 2967.74,2441.36 C2967.74,2448.35 2968.19,2453.05 2969.08,2455.46 C2969.98,2457.87 2972.31,2459.08 2976.09,2459.08 C2979.86,2459.08 2982.3,2457.62 2983.42,2454.72 C2984.53,2451.81 2985.09,2447.37 2985.09,2441.4 C2985.09,2435.44 2984.53,2431 2983.42,2428.09"/>
<path class="FiguredBass" d="M3422.9,2390.15 C3418.32,2390.15 3415.27,2391.99 3413.76,2395.67 C3412.24,2399.35 3411.49,2404.56 3411.49,2411.3 L3411.49,2422.25 C3414.7,2420.95 3417.49,2420.27 3419.84,2420.21 C3427.88,2420.21 3434.2,2421.98 3438.81,2425.54 C3443.42,2429.1 3445.72,2434.38 3445.72,2441.4 C3445.72,2448.42 3443.38,2453.73 3438.72,2457.31 C3434.05,2460.9 3427.75,2462.7 3419.84,2462.7 C3411.73,2462.7 3405.39,2458.94 3400.82,2451.42 C3396.24,2443.91 3393.95,2434.99 3393.95,2424.66 C3393.95,2414.39 3396.61,2405.49 3401.93,2397.94 C3407.25,2390.39 3414.24,2386.62 3422.9,2386.62 C3428.59,2386.62 3433.5,2388.06 3437.65,2390.94 C3441.79,2393.81 3443.86,2397.6 3443.86,2402.3 C3443.86,2405.02 3442.87,2407.37 3440.9,2409.35 C3438.92,2411.33 3436.55,2412.32 3433.8,2412.32 C3431.05,2412.32 3428.68,2411.33 3426.7,2409.35 C3424.72,2407.37 3423.73,2405.02 3423.73,2402.3 C3423.73,2399.64 3424.72,2397.29 3426.7,2395.25 C3427.38,2394.45 3428.34,2393.76 3429.58,2393.21 C3429.27,2392.4 3428.65,2391.79 3427.72,2391.35 C3426.36,2390.55 3424.75,2390.15 3422.9,2390.15 M3427.44,2428.09 C3426.33,2425.18 3423.89,2423.73 3420.11,2423.73 C3416.34,2423.73 3414.01,2425.18 3413.11,2428.09 C3412.21,2431 3411.76,2435.42 3411.76,2441.36 C3411.76,2448.35 3412.21,2453.05 3413.11,2455.46 C3414.01,2457.87 3416.34,2459.08 3420.11,2459.08 C3423.89,2459.08 3426.33,2457.62 3427.44,2454.72 C3428.56,2451.81 3429.11,2447.37 3429.11,2441.4 C3429.11,2435.44 3428.56,2431 3427.44,2428.09"/>
<path class="FiguredBass" d="M3400.26,2492.37 L3404.71,2493.02 C3405.89,2493.21 3407.34,2493.39 3409.07,2493.58 C3413.34,2494.07 3417.45,2494.32 3421.41,2494.32 C3425.37,2494.32 3429.55,2494.07 3433.94,2493.58 C3435.67,2493.39 3437.18,2493.21 3438.48,2493.02 L3443.03,2492.37 C3443.96,2492.37 3444.67,2492.68 3445.16,2493.3 C3445.53,2493.79 3445.47,2494.29 3444.98,2494.78 C3435.33,2504.25 3422,2508.98 3404.99,2508.98 C3404.31,2508.98 3403.71,2509.23 3403.18,2509.72 C3402.66,2510.21 3402.39,2510.83 3402.39,2511.58 L3402.39,2523.36 C3406.79,2519.03 3412.1,2516.86 3418.35,2516.86 C3427.07,2516.86 3433.88,2518.9 3438.76,2522.99 C3444.08,2518.97 3446.86,2513.83 3447.11,2507.59 C3447.17,2505.61 3447.82,2504 3449.06,2502.76 C3450.42,2501.52 3452.06,2500.91 3453.98,2500.91 C3455.89,2500.91 3457.52,2501.56 3458.85,2502.85 C3460.18,2504.15 3460.84,2505.73 3460.84,2507.59 C3460.84,2517.17 3455.18,2524.44 3443.86,2529.39 C3445.72,2533.04 3446.65,2537.49 3446.65,2542.75 C3446.65,2549.74 3443.86,2555.77 3438.3,2560.84 C3432.73,2565.91 3426.08,2568.45 3418.35,2568.45 C3411.67,2568.45 3405.87,2566.93 3400.96,2563.9 C3396.04,2560.87 3393.58,2556.66 3393.58,2551.28 C3393.58,2548.56 3394.57,2546.2 3396.55,2544.19 C3398.53,2542.18 3400.89,2541.17 3403.65,2541.17 C3406.4,2541.17 3408.73,2542.16 3410.65,2544.14 C3412.57,2546.12 3413.53,2548.5 3413.53,2551.28 C3413.53,2552.52 3412.51,2553.86 3410.47,2555.32 C3408.42,2556.77 3407.4,2558.12 3407.4,2559.35 C3407.4,2563.06 3411.05,2564.92 3418.35,2564.92 C3425.46,2564.92 3429.02,2557.53 3429.02,2542.75 C3429.02,2539.47 3428.83,2536.59 3428.46,2534.12 C3420.98,2535.67 3411.61,2536.87 3400.35,2537.74 C3398.81,2537.86 3398.03,2537.09 3398.03,2535.42 C3398.03,2534.06 3398.81,2533.32 3400.35,2533.19 C3411.73,2532.26 3420.7,2530.78 3427.26,2528.74 C3425.53,2523.79 3422.56,2521.29 3418.35,2521.22 C3411.98,2521.22 3407.53,2522.52 3404.99,2525.12 C3402.46,2527.72 3400.88,2529.02 3400.26,2529.02 C3398.78,2529.02 3398.03,2528.24 3398.03,2526.7 L3398.03,2494.78 C3398.03,2494.16 3398.25,2493.61 3398.68,2493.11 C3399.18,2492.62 3399.7,2492.37 3400.26,2492.37"/>
<path class="Bracket" transform="matrix(8.6315,0,0,8.6315,76.1283,2254.96)" d="M0.92002,-50 C2.69004,-51.88 6.2,-55.8 6.2,-63 C6.2,-72.1 2.25996,-81.32 2.25996,-86.97 C2.25996,-93.06 5.84004,-98.84 5.95,-99 C6.05996,-99.16 6.05,-99.39 5.94004,-99.46 C5.82998,-99.53 5.62002,-99.47 5.49004,-99.32 C5.35996,-99.17 0,-93.75 0,-85.6 C0,-76.75 3.5,-70.58 3.5,-59.07 C3.5,-56.89 2.55996,-53.36 0.1,-50.33 C-0.0799805,-50.17 -0.1,-49.89 0.0599609,-49.7 L0.0700195,-49.69 L0.1,-49.66 C2.55996,-46.63 3.5,-43.1 3.5,-40.92 C3.5,-29.4 0,-23.24 0,-14.39 C0,-6.25 5.35996,-0.8 5.49004,-0.659961 C5.62002,-0.52002 5.8,-0.42998 5.94004,-0.52002 C6.07998,-0.609961 6.07998,-0.77998 5.95,-0.97998 C5.82002,-1.17998 2.25996,-6.92002 2.25996,-13.01 C2.25996,-18.66 6.2,-27.9 6.2,-37 C6.2,-44.3 2.69004,-48.12 0.92002,-50"/>
</svg>
