<?xml version="1.0" encoding="UTF-8" standalone="no"?>
<svg width="4209.44px" height="2976.38px" viewBox="0 0 4209.44 2976.38"
 xmlns="http://www.w3.org/2000/svg" xmlns:xlink="http://www.w3.org/1999/xlink" version="1.2" baseProfile="tiny">
<title>SolMajeur (27)</title>
<desc>Generated by MuseScore 3.6.2</desc>
<polyline class="StaffLines" fill="none" stroke="#000000" stroke-width="6.55" stroke-linejoin="bevel" points="153.819,558.425 4138.58,558.425"/>
<polyline class="StaffLines" fill="none" stroke="#000000" stroke-width="6.55" stroke-linejoin="bevel" points="153.819,647.717 4138.58,647.717"/>
<polyline class="StaffLines" fill="none" stroke="#000000" stroke-width="6.55" stroke-linejoin="bevel" points="153.819,737.008 4138.58,737.008"/>
<polyline class="StaffLines" fill="none" stroke="#000000" stroke-width="6.55" stroke-linejoin="bevel" points="153.819,826.299 4138.58,826.299"/>
<polyline class="StaffLines" fill="none" stroke="#000000" stroke-width="6.55" stroke-linejoin="bevel" points="153.819,915.591 4138.58,915.591"/>
<polyline class="StaffLines" fill="none" stroke="#000000" stroke-width="6.55" stroke-linejoin="bevel" points="153.819,1004.88 4138.58,1004.88"/>
<polyline class="StaffLines" fill="none" stroke="#000000" stroke-width="6.55" stroke-linejoin="bevel" points="153.819,1391.81 4138.58,1391.81"/>
<polyline class="StaffLines" fill="none" stroke="#000000" stroke-width="6.55" stroke-linejoin="bevel" points="153.819,1451.34 4138.58,1451.34"/>
<polyline class="StaffLines" fill="none" stroke="#000000" stroke-width="6.55" stroke-linejoin="bevel" points="153.819,1510.87 4138.58,1510.87"/>
<polyline class="StaffLines" fill="none" stroke="#000000" stroke-width="6.55" stroke-linejoin="bevel" points="153.819,1570.39 4138.58,1570.39"/>
<polyline class="StaffLines" fill="none" stroke="#000000" stroke-width="6.55" stroke-linejoin="bevel" points="153.819,1629.92 4138.58,1629.92"/>
<polyline class="StaffLines" fill="none" stroke="#000000" stroke-width="6.55" stroke-linejoin="bevel" points="153.819,2016.85 4138.58,2016.85"/>
<polyline class="StaffLines" fill="none" stroke="#000000" stroke-width="6.55" stroke-linejoin="bevel" points="153.819,2076.38 4138.58,2076.38"/>
<polyline class="StaffLines" fill="none" stroke="#000000" stroke-width="6.55" stroke-linejoin="bevel" points="153.819,2135.91 4138.58,2135.91"/>
<polyline class="StaffLines" fill="none" stroke="#000000" stroke-width="6.55" stroke-linejoin="bevel" points="153.819,2195.43 4138.58,2195.43"/>
<polyline class="StaffLines" fill="none" stroke="#000000" stroke-width="6.55" stroke-linejoin="bevel" points="153.819,2254.96 4138.58,2254.96"/>
<path class="Symbol" transform="matrix(2.3811,0,0,2.3811,1514.42,796.536)" d="M0,-0.1 C0,7.7 4,14 10.4,18.1 L10.9,17.4 C7.5,14.8 6.3,13.3 5.2,10.1 C4.2,7.2 3.7,4 3.7,-0.2 C3.7,-8.1 4.8,-12.3 10.9,-17.4 L10.5,-18.1 C3.9,-13.6 0,-8.5 0,-0.1"/>
<path class="Symbol" transform="matrix(2.3811,0,0,2.3811,1619.43,796.536)" d="M3.7,-0.2 C3.7,4 3.2,7.2 2.2,10.1 C1,13.3 -0.2,14.8 -3.6,17.4 L-3,18.1 C3.4,14.1 7.3,7.6 7.3,-0.1 C7.3,-8.4 3.4,-13.8 -3.2,-18.1 L-3.6,-17.4 C2.6,-12.4 3.7,-8.1 3.7,-0.2"/>
<path class="Symbol" transform="matrix(2.3811,0,0,2.3811,1514.42,528.661)" d="M0,-0.1 C0,7.7 4,14 10.4,18.1 L10.9,17.4 C7.5,14.8 6.3,13.3 5.2,10.1 C4.2,7.2 3.7,4 3.7,-0.2 C3.7,-8.1 4.8,-12.3 10.9,-17.4 L10.5,-18.1 C3.9,-13.6 0,-8.5 0,-0.1"/>
<path class="Symbol" transform="matrix(2.3811,0,0,2.3811,1619.43,528.661)" d="M3.7,-0.2 C3.7,4 3.2,7.2 2.2,10.1 C1,13.3 -0.2,14.8 -3.6,17.4 L-3,18.1 C3.4,14.1 7.3,7.6 7.3,-0.1 C7.3,-8.4 3.4,-13.8 -3.2,-18.1 L-3.6,-17.4 C2.6,-12.4 3.7,-8.1 3.7,-0.2"/>
<polyline class="BarLine" fill="none" stroke="#000000" stroke-width="10.71" stroke-linejoin="bevel" points="159.176,2013.58 159.176,2258.23"/>
<polyline class="BarLine" fill="none" stroke="#000000" stroke-width="10.71" stroke-linejoin="bevel" points="958.647,2013.58 958.647,2258.23"/>
<polyline class="BarLine" fill="none" stroke="#000000" stroke-width="10.71" stroke-linejoin="bevel" points="1393.69,2013.58 1393.69,2258.23"/>
<polyline class="BarLine" fill="none" stroke="#000000" stroke-width="10.71" stroke-linejoin="bevel" points="1872.33,2013.58 1872.33,2258.23"/>
<polyline class="BarLine" fill="none" stroke="#000000" stroke-width="10.71" stroke-linejoin="bevel" points="2307.37,2013.58 2307.37,2258.23"/>
<polyline class="BarLine" fill="none" stroke="#000000" stroke-width="10.71" stroke-linejoin="bevel" points="2742.41,2013.58 2742.41,2258.23"/>
<polyline class="BarLine" fill="none" stroke="#000000" stroke-width="10.71" stroke-linejoin="bevel" points="3177.46,2013.58 3177.46,2258.23"/>
<polyline class="BarLine" fill="none" stroke="#000000" stroke-width="10.71" stroke-linejoin="bevel" points="3670.13,2013.58 3670.13,2258.23"/>
<polyline class="BarLine" fill="none" stroke="#000000" stroke-width="10.71" stroke-linejoin="bevel" points="4080.54,2013.58 4080.54,2258.23"/>
<polyline class="BarLine" fill="none" stroke="#000000" stroke-width="32.74" stroke-linejoin="bevel" points="4122.21,2013.58 4122.21,2258.23"/>
<polyline class="BarLine" fill="none" stroke="#000000" stroke-width="10.71" stroke-linejoin="bevel" points="159.176,1388.54 159.176,2016.85"/>
<polyline class="BarLine" fill="none" stroke="#000000" stroke-width="10.71" stroke-linejoin="bevel" points="958.647,1388.54 958.647,1633.2"/>
<polyline class="BarLine" fill="none" stroke="#000000" stroke-width="10.71" stroke-linejoin="bevel" points="1393.69,1388.54 1393.69,1633.2"/>
<polyline class="BarLine" fill="none" stroke="#000000" stroke-width="10.71" stroke-linejoin="bevel" points="1872.33,1388.54 1872.33,1633.2"/>
<polyline class="BarLine" fill="none" stroke="#000000" stroke-width="10.71" stroke-linejoin="bevel" points="2307.37,1388.54 2307.37,1633.2"/>
<polyline class="BarLine" fill="none" stroke="#000000" stroke-width="10.71" stroke-linejoin="bevel" points="2742.41,1388.54 2742.41,1633.2"/>
<polyline class="BarLine" fill="none" stroke="#000000" stroke-width="10.71" stroke-linejoin="bevel" points="3177.46,1388.54 3177.46,1633.2"/>
<polyline class="BarLine" fill="none" stroke="#000000" stroke-width="10.71" stroke-linejoin="bevel" points="3670.13,1388.54 3670.13,1633.2"/>
<polyline class="BarLine" fill="none" stroke="#000000" stroke-width="10.71" stroke-linejoin="bevel" points="4080.54,1388.54 4080.54,1633.2"/>
<polyline class="BarLine" fill="none" stroke="#000000" stroke-width="32.74" stroke-linejoin="bevel" points="4122.21,1388.54 4122.21,1633.2"/>
<polyline class="BarLine" fill="none" stroke="#000000" stroke-width="10.71" stroke-linejoin="bevel" points="159.176,555.151 159.176,1391.81"/>
<polyline class="BarLine" fill="none" stroke="#000000" stroke-width="10.71" stroke-linejoin="bevel" points="958.647,555.151 958.647,1008.16"/>
<polyline class="BarLine" fill="none" stroke="#000000" stroke-width="10.71" stroke-linejoin="bevel" points="1393.69,555.151 1393.69,1008.16"/>
<polyline class="BarLine" fill="none" stroke="#000000" stroke-width="10.71" stroke-linejoin="bevel" points="1872.33,555.151 1872.33,1008.16"/>
<polyline class="BarLine" fill="none" stroke="#000000" stroke-width="10.71" stroke-linejoin="bevel" points="2307.37,555.151 2307.37,1008.16"/>
<polyline class="BarLine" fill="none" stroke="#000000" stroke-width="10.71" stroke-linejoin="bevel" points="2742.41,555.151 2742.41,1008.16"/>
<polyline class="BarLine" fill="none" stroke="#000000" stroke-width="10.71" stroke-linejoin="bevel" points="3177.46,555.151 3177.46,1008.16"/>
<polyline class="BarLine" fill="none" stroke="#000000" stroke-width="10.71" stroke-linejoin="bevel" points="3670.13,555.151 3670.13,1008.16"/>
<polyline class="BarLine" fill="none" stroke="#000000" stroke-width="10.71" stroke-linejoin="bevel" points="4080.54,555.151 4080.54,1008.16"/>
<polyline class="BarLine" fill="none" stroke="#000000" stroke-width="32.74" stroke-linejoin="bevel" points="4122.21,555.151 4122.21,1008.16"/>
<path class="Accidental" transform="matrix(2.3811,0,0,2.3811,1456.56,1481.1)" d="M23.3,-10.6 C23.9,-10.7 24.4,-11.4 24.4,-12 L24.4,-17.9 C24.4,-18.7 23.8,-19.3 23,-19.3 L22.8,-19.3 L19.5,-18.6 L19.5,-33.5 L16.7,-33.5 L16.7,-18 L7.8,-16.2 L7.8,-30.3 L5,-30.3 L5,-15.6 L1.1,-14.8 C0.5,-14.7 0,-14 0,-13.4 L0,-13.2 L0,-7.4 L0,-7.6 C0,-6.8 0.6,-6.2 1.4,-6.2 L1.7,-6.2 L5,-6.9 L5,9.6 L1.1,10.4 C0.5,10.5 0,11.2 0,11.8 L0,17.6 C0,18.4 0.6,19 1.4,19 L1.7,19 L5,18.3 L5,33.2 L7.8,33.2 L7.8,17.7 L16.7,15.9 L16.7,30 L19.5,30 L19.5,15.3 L23.3,14.6 C23.9,14.5 24.4,13.8 24.4,13.2 L24.4,7.3 C24.4,6.5 23.8,5.9 23,5.9 L22.8,5.9 L19.5,6.6 L19.5,-9.9 L23.3,-10.6 M7.8,9.1 L7.8,-7.5 L16.7,-9.3 L16.7,7.2 L7.8,9.1 "/>
<polyline class="LedgerLine" fill="none" stroke="#000000" stroke-width="9.52" stroke-linejoin="bevel" points="1955.07,1957.32 2085.55,1957.32"/>
<polyline class="LedgerLine" fill="none" stroke="#000000" stroke-width="9.52" stroke-linejoin="bevel" points="2390.12,1957.32 2520.59,1957.32"/>
<polyline class="LedgerLine" fill="none" stroke="#000000" stroke-width="9.52" stroke-linejoin="bevel" points="1041.39,1332.28 1171.87,1332.28"/>
<path class="Note" transform="matrix(2.3811,0,0,2.3811,636.699,2046.61)" d="M18.7,-13.6 C4.9,-13.6 0,-6.6 0,-0.1 C0,6.4 4.9,13.4 18.7,13.4 C32.5,13.4 37.3,6.4 37.3,-0.1 C37.3,-6.6 32.5,-13.6 18.7,-13.6 M10.4,-4.5 C10.3,-4.9 10.3,-5.3 10.3,-5.7 C10.3,-6.5 10.5,-7.3 10.9,-8 C11.6,-9 12.8,-9.7 14.3,-10 C15.6,-10.3 16.3,-10.5 18.9,-10.5 L19,-10.5 C23,-10.5 24.3,-6.8 25.4,-3 L25.7,-2 C26.5,0.6 26.9,2.8 26.9,4.5 C26.9,5.7 26.7,6.8 26.3,7.6 C25.7,8.7 24.7,9.4 23,9.8 C22.1,10 20.6,10.1 20.6,10.1 C20.1,10.1 19.7,10.2 19.3,10.2 C16.1,10.2 14.1,9 12.7,4.7 C11.5,1 11.3,-0.1 10.4,-4.5"/>
<path class="Note" transform="matrix(2.3811,0,0,2.3811,1062.23,2076.38)" d="M18.7,-13.6 C4.9,-13.6 0,-6.6 0,-0.1 C0,6.4 4.9,13.4 18.7,13.4 C32.5,13.4 37.3,6.4 37.3,-0.1 C37.3,-6.6 32.5,-13.6 18.7,-13.6 M10.4,-4.5 C10.3,-4.9 10.3,-5.3 10.3,-5.7 C10.3,-6.5 10.5,-7.3 10.9,-8 C11.6,-9 12.8,-9.7 14.3,-10 C15.6,-10.3 16.3,-10.5 18.9,-10.5 L19,-10.5 C23,-10.5 24.3,-6.8 25.4,-3 L25.7,-2 C26.5,0.6 26.9,2.8 26.9,4.5 C26.9,5.7 26.7,6.8 26.3,7.6 C25.7,8.7 24.7,9.4 23,9.8 C22.1,10 20.6,10.1 20.6,10.1 C20.1,10.1 19.7,10.2 19.3,10.2 C16.1,10.2 14.1,9 12.7,4.7 C11.5,1 11.3,-0.1 10.4,-4.5"/>
<path class="Note" transform="matrix(2.3811,0,0,2.3811,1529.53,2106.14)" d="M18.7,-13.6 C4.9,-13.6 0,-6.6 0,-0.1 C0,6.4 4.9,13.4 18.7,13.4 C32.5,13.4 37.3,6.4 37.3,-0.1 C37.3,-6.6 32.5,-13.6 18.7,-13.6 M10.4,-4.5 C10.3,-4.9 10.3,-5.3 10.3,-5.7 C10.3,-6.5 10.5,-7.3 10.9,-8 C11.6,-9 12.8,-9.7 14.3,-10 C15.6,-10.3 16.3,-10.5 18.9,-10.5 L19,-10.5 C23,-10.5 24.3,-6.8 25.4,-3 L25.7,-2 C26.5,0.6 26.9,2.8 26.9,4.5 C26.9,5.7 26.7,6.8 26.3,7.6 C25.7,8.7 24.7,9.4 23,9.8 C22.1,10 20.6,10.1 20.6,10.1 C20.1,10.1 19.7,10.2 19.3,10.2 C16.1,10.2 14.1,9 12.7,4.7 C11.5,1 11.3,-0.1 10.4,-4.5"/>
<path class="Note" transform="matrix(2.3811,0,0,2.3811,1975.91,2135.91)" d="M18.7,-13.6 C4.9,-13.6 0,-6.6 0,-0.1 C0,6.4 4.9,13.4 18.7,13.4 C32.5,13.4 37.3,6.4 37.3,-0.1 C37.3,-6.6 32.5,-13.6 18.7,-13.6 M10.4,-4.5 C10.3,-4.9 10.3,-5.3 10.3,-5.7 C10.3,-6.5 10.5,-7.3 10.9,-8 C11.6,-9 12.8,-9.7 14.3,-10 C15.6,-10.3 16.3,-10.5 18.9,-10.5 L19,-10.5 C23,-10.5 24.3,-6.8 25.4,-3 L25.7,-2 C26.5,0.6 26.9,2.8 26.9,4.5 C26.9,5.7 26.7,6.8 26.3,7.6 C25.7,8.7 24.7,9.4 23,9.8 C22.1,10 20.6,10.1 20.6,10.1 C20.1,10.1 19.7,10.2 19.3,10.2 C16.1,10.2 14.1,9 12.7,4.7 C11.5,1 11.3,-0.1 10.4,-4.5"/>
<path class="Note" transform="matrix(2.3811,0,0,2.3811,1975.91,1927.56)" d="M18.7,-13.6 C4.9,-13.6 0,-6.6 0,-0.1 C0,6.4 4.9,13.4 18.7,13.4 C32.5,13.4 37.3,6.4 37.3,-0.1 C37.3,-6.6 32.5,-13.6 18.7,-13.6 M10.4,-4.5 C10.3,-4.9 10.3,-5.3 10.3,-5.7 C10.3,-6.5 10.5,-7.3 10.9,-8 C11.6,-9 12.8,-9.7 14.3,-10 C15.6,-10.3 16.3,-10.5 18.9,-10.5 L19,-10.5 C23,-10.5 24.3,-6.8 25.4,-3 L25.7,-2 C26.5,0.6 26.9,2.8 26.9,4.5 C26.9,5.7 26.7,6.8 26.3,7.6 C25.7,8.7 24.7,9.4 23,9.8 C22.1,10 20.6,10.1 20.6,10.1 C20.1,10.1 19.7,10.2 19.3,10.2 C16.1,10.2 14.1,9 12.7,4.7 C11.5,1 11.3,-0.1 10.4,-4.5"/>
<path class="Note" transform="matrix(2.3811,0,0,2.3811,2410.95,1957.32)" d="M18.7,-13.6 C4.9,-13.6 0,-6.6 0,-0.1 C0,6.4 4.9,13.4 18.7,13.4 C32.5,13.4 37.3,6.4 37.3,-0.1 C37.3,-6.6 32.5,-13.6 18.7,-13.6 M10.4,-4.5 C10.3,-4.9 10.3,-5.3 10.3,-5.7 C10.3,-6.5 10.5,-7.3 10.9,-8 C11.6,-9 12.8,-9.7 14.3,-10 C15.6,-10.3 16.3,-10.5 18.9,-10.5 L19,-10.5 C23,-10.5 24.3,-6.8 25.4,-3 L25.7,-2 C26.5,0.6 26.9,2.8 26.9,4.5 C26.9,5.7 26.7,6.8 26.3,7.6 C25.7,8.7 24.7,9.4 23,9.8 C22.1,10 20.6,10.1 20.6,10.1 C20.1,10.1 19.7,10.2 19.3,10.2 C16.1,10.2 14.1,9 12.7,4.7 C11.5,1 11.3,-0.1 10.4,-4.5"/>
<path class="Note" transform="matrix(2.3811,0,0,2.3811,2830.88,1987.09)" d="M18.7,-13.6 C4.9,-13.6 0,-6.6 0,-0.1 C0,6.4 4.9,13.4 18.7,13.4 C32.5,13.4 37.3,6.4 37.3,-0.1 C37.3,-6.6 32.5,-13.6 18.7,-13.6 M10.4,-4.5 C10.3,-4.9 10.3,-5.3 10.3,-5.7 C10.3,-6.5 10.5,-7.3 10.9,-8 C11.6,-9 12.8,-9.7 14.3,-10 C15.6,-10.3 16.3,-10.5 18.9,-10.5 L19,-10.5 C23,-10.5 24.3,-6.8 25.4,-3 L25.7,-2 C26.5,0.6 26.9,2.8 26.9,4.5 C26.9,5.7 26.7,6.8 26.3,7.6 C25.7,8.7 24.7,9.4 23,9.8 C22.1,10 20.6,10.1 20.6,10.1 C20.1,10.1 19.7,10.2 19.3,10.2 C16.1,10.2 14.1,9 12.7,4.7 C11.5,1 11.3,-0.1 10.4,-4.5"/>
<path class="Note" transform="matrix(2.3811,0,0,2.3811,3348.18,2016.85)" d="M18.7,-13.6 C4.9,-13.6 0,-6.6 0,-0.1 C0,6.4 4.9,13.4 18.7,13.4 C32.5,13.4 37.3,6.4 37.3,-0.1 C37.3,-6.6 32.5,-13.6 18.7,-13.6 M10.4,-4.5 C10.3,-4.9 10.3,-5.3 10.3,-5.7 C10.3,-6.5 10.5,-7.3 10.9,-8 C11.6,-9 12.8,-9.7 14.3,-10 C15.6,-10.3 16.3,-10.5 18.9,-10.5 L19,-10.5 C23,-10.5 24.3,-6.8 25.4,-3 L25.7,-2 C26.5,0.6 26.9,2.8 26.9,4.5 C26.9,5.7 26.7,6.8 26.3,7.6 C25.7,8.7 24.7,9.4 23,9.8 C22.1,10 20.6,10.1 20.6,10.1 C20.1,10.1 19.7,10.2 19.3,10.2 C16.1,10.2 14.1,9 12.7,4.7 C11.5,1 11.3,-0.1 10.4,-4.5"/>
<path class="Note" transform="matrix(2.3811,0,0,2.3811,3758.59,2046.61)" d="M18.7,-13.6 C4.9,-13.6 0,-6.6 0,-0.1 C0,6.4 4.9,13.4 18.7,13.4 C32.5,13.4 37.3,6.4 37.3,-0.1 C37.3,-6.6 32.5,-13.6 18.7,-13.6 M10.4,-4.5 C10.3,-4.9 10.3,-5.3 10.3,-5.7 C10.3,-6.5 10.5,-7.3 10.9,-8 C11.6,-9 12.8,-9.7 14.3,-10 C15.6,-10.3 16.3,-10.5 18.9,-10.5 L19,-10.5 C23,-10.5 24.3,-6.8 25.4,-3 L25.7,-2 C26.5,0.6 26.9,2.8 26.9,4.5 C26.9,5.7 26.7,6.8 26.3,7.6 C25.7,8.7 24.7,9.4 23,9.8 C22.1,10 20.6,10.1 20.6,10.1 C20.1,10.1 19.7,10.2 19.3,10.2 C16.1,10.2 14.1,9 12.7,4.7 C11.5,1 11.3,-0.1 10.4,-4.5"/>
<path class="Note" transform="matrix(2.3811,0,0,2.3811,636.699,1510.87)" d="M18.7,-13.6 C4.9,-13.6 0,-6.6 0,-0.1 C0,6.4 4.9,13.4 18.7,13.4 C32.5,13.4 37.3,6.4 37.3,-0.1 C37.3,-6.6 32.5,-13.6 18.7,-13.6 M10.4,-4.5 C10.3,-4.9 10.3,-5.3 10.3,-5.7 C10.3,-6.5 10.5,-7.3 10.9,-8 C11.6,-9 12.8,-9.7 14.3,-10 C15.6,-10.3 16.3,-10.5 18.9,-10.5 L19,-10.5 C23,-10.5 24.3,-6.8 25.4,-3 L25.7,-2 C26.5,0.6 26.9,2.8 26.9,4.5 C26.9,5.7 26.7,6.8 26.3,7.6 C25.7,8.7 24.7,9.4 23,9.8 C22.1,10 20.6,10.1 20.6,10.1 C20.1,10.1 19.7,10.2 19.3,10.2 C16.1,10.2 14.1,9 12.7,4.7 C11.5,1 11.3,-0.1 10.4,-4.5"/>
<path class="Note" transform="matrix(2.3811,0,0,2.3811,636.699,1451.34)" d="M18.7,-13.6 C4.9,-13.6 0,-6.6 0,-0.1 C0,6.4 4.9,13.4 18.7,13.4 C32.5,13.4 37.3,6.4 37.3,-0.1 C37.3,-6.6 32.5,-13.6 18.7,-13.6 M10.4,-4.5 C10.3,-4.9 10.3,-5.3 10.3,-5.7 C10.3,-6.5 10.5,-7.3 10.9,-8 C11.6,-9 12.8,-9.7 14.3,-10 C15.6,-10.3 16.3,-10.5 18.9,-10.5 L19,-10.5 C23,-10.5 24.3,-6.8 25.4,-3 L25.7,-2 C26.5,0.6 26.9,2.8 26.9,4.5 C26.9,5.7 26.7,6.8 26.3,7.6 C25.7,8.7 24.7,9.4 23,9.8 C22.1,10 20.6,10.1 20.6,10.1 C20.1,10.1 19.7,10.2 19.3,10.2 C16.1,10.2 14.1,9 12.7,4.7 C11.5,1 11.3,-0.1 10.4,-4.5"/>
<path class="Note" transform="matrix(2.3811,0,0,2.3811,636.699,1362.05)" d="M18.7,-13.6 C4.9,-13.6 0,-6.6 0,-0.1 C0,6.4 4.9,13.4 18.7,13.4 C32.5,13.4 37.3,6.4 37.3,-0.1 C37.3,-6.6 32.5,-13.6 18.7,-13.6 M10.4,-4.5 C10.3,-4.9 10.3,-5.3 10.3,-5.7 C10.3,-6.5 10.5,-7.3 10.9,-8 C11.6,-9 12.8,-9.7 14.3,-10 C15.6,-10.3 16.3,-10.5 18.9,-10.5 L19,-10.5 C23,-10.5 24.3,-6.8 25.4,-3 L25.7,-2 C26.5,0.6 26.9,2.8 26.9,4.5 C26.9,5.7 26.7,6.8 26.3,7.6 C25.7,8.7 24.7,9.4 23,9.8 C22.1,10 20.6,10.1 20.6,10.1 C20.1,10.1 19.7,10.2 19.3,10.2 C16.1,10.2 14.1,9 12.7,4.7 C11.5,1 11.3,-0.1 10.4,-4.5"/>
<path class="Note" transform="matrix(2.3811,0,0,2.3811,1062.23,1540.63)" d="M18.7,-13.6 C4.9,-13.6 0,-6.6 0,-0.1 C0,6.4 4.9,13.4 18.7,13.4 C32.5,13.4 37.3,6.4 37.3,-0.1 C37.3,-6.6 32.5,-13.6 18.7,-13.6 M10.4,-4.5 C10.3,-4.9 10.3,-5.3 10.3,-5.7 C10.3,-6.5 10.5,-7.3 10.9,-8 C11.6,-9 12.8,-9.7 14.3,-10 C15.6,-10.3 16.3,-10.5 18.9,-10.5 L19,-10.5 C23,-10.5 24.3,-6.8 25.4,-3 L25.7,-2 C26.5,0.6 26.9,2.8 26.9,4.5 C26.9,5.7 26.7,6.8 26.3,7.6 C25.7,8.7 24.7,9.4 23,9.8 C22.1,10 20.6,10.1 20.6,10.1 C20.1,10.1 19.7,10.2 19.3,10.2 C16.1,10.2 14.1,9 12.7,4.7 C11.5,1 11.3,-0.1 10.4,-4.5"/>
<path class="Note" transform="matrix(2.3811,0,0,2.3811,1062.23,1451.34)" d="M18.7,-13.6 C4.9,-13.6 0,-6.6 0,-0.1 C0,6.4 4.9,13.4 18.7,13.4 C32.5,13.4 37.3,6.4 37.3,-0.1 C37.3,-6.6 32.5,-13.6 18.7,-13.6 M10.4,-4.5 C10.3,-4.9 10.3,-5.3 10.3,-5.7 C10.3,-6.5 10.5,-7.3 10.9,-8 C11.6,-9 12.8,-9.7 14.3,-10 C15.6,-10.3 16.3,-10.5 18.9,-10.5 L19,-10.5 C23,-10.5 24.3,-6.8 25.4,-3 L25.7,-2 C26.5,0.6 26.9,2.8 26.9,4.5 C26.9,5.7 26.7,6.8 26.3,7.6 C25.7,8.7 24.7,9.4 23,9.8 C22.1,10 20.6,10.1 20.6,10.1 C20.1,10.1 19.7,10.2 19.3,10.2 C16.1,10.2 14.1,9 12.7,4.7 C11.5,1 11.3,-0.1 10.4,-4.5"/>
<path class="Note" transform="matrix(2.3811,0,0,2.3811,1062.23,1332.28)" d="M18.7,-13.6 C4.9,-13.6 0,-6.6 0,-0.1 C0,6.4 4.9,13.4 18.7,13.4 C32.5,13.4 37.3,6.4 37.3,-0.1 C37.3,-6.6 32.5,-13.6 18.7,-13.6 M10.4,-4.5 C10.3,-4.9 10.3,-5.3 10.3,-5.7 C10.3,-6.5 10.5,-7.3 10.9,-8 C11.6,-9 12.8,-9.7 14.3,-10 C15.6,-10.3 16.3,-10.5 18.9,-10.5 L19,-10.5 C23,-10.5 24.3,-6.8 25.4,-3 L25.7,-2 C26.5,0.6 26.9,2.8 26.9,4.5 C26.9,5.7 26.7,6.8 26.3,7.6 C25.7,8.7 24.7,9.4 23,9.8 C22.1,10 20.6,10.1 20.6,10.1 C20.1,10.1 19.7,10.2 19.3,10.2 C16.1,10.2 14.1,9 12.7,4.7 C11.5,1 11.3,-0.1 10.4,-4.5"/>
<path class="Note" transform="matrix(2.3811,0,0,2.3811,1529.53,1540.63)" d="M18.7,-13.6 C4.9,-13.6 0,-6.6 0,-0.1 C0,6.4 4.9,13.4 18.7,13.4 C32.5,13.4 37.3,6.4 37.3,-0.1 C37.3,-6.6 32.5,-13.6 18.7,-13.6 M10.4,-4.5 C10.3,-4.9 10.3,-5.3 10.3,-5.7 C10.3,-6.5 10.5,-7.3 10.9,-8 C11.6,-9 12.8,-9.7 14.3,-10 C15.6,-10.3 16.3,-10.5 18.9,-10.5 L19,-10.5 C23,-10.5 24.3,-6.8 25.4,-3 L25.7,-2 C26.5,0.6 26.9,2.8 26.9,4.5 C26.9,5.7 26.7,6.8 26.3,7.6 C25.7,8.7 24.7,9.4 23,9.8 C22.1,10 20.6,10.1 20.6,10.1 C20.1,10.1 19.7,10.2 19.3,10.2 C16.1,10.2 14.1,9 12.7,4.7 C11.5,1 11.3,-0.1 10.4,-4.5"/>
<path class="Note" transform="matrix(2.3811,0,0,2.3811,1529.53,1481.1)" d="M18.7,-13.6 C4.9,-13.6 0,-6.6 0,-0.1 C0,6.4 4.9,13.4 18.7,13.4 C32.5,13.4 37.3,6.4 37.3,-0.1 C37.3,-6.6 32.5,-13.6 18.7,-13.6 M10.4,-4.5 C10.3,-4.9 10.3,-5.3 10.3,-5.7 C10.3,-6.5 10.5,-7.3 10.9,-8 C11.6,-9 12.8,-9.7 14.3,-10 C15.6,-10.3 16.3,-10.5 18.9,-10.5 L19,-10.5 C23,-10.5 24.3,-6.8 25.4,-3 L25.7,-2 C26.5,0.6 26.9,2.8 26.9,4.5 C26.9,5.7 26.7,6.8 26.3,7.6 C25.7,8.7 24.7,9.4 23,9.8 C22.1,10 20.6,10.1 20.6,10.1 C20.1,10.1 19.7,10.2 19.3,10.2 C16.1,10.2 14.1,9 12.7,4.7 C11.5,1 11.3,-0.1 10.4,-4.5"/>
<path class="Note" transform="matrix(2.3811,0,0,2.3811,1529.53,1362.05)" d="M18.7,-13.6 C4.9,-13.6 0,-6.6 0,-0.1 C0,6.4 4.9,13.4 18.7,13.4 C32.5,13.4 37.3,6.4 37.3,-0.1 C37.3,-6.6 32.5,-13.6 18.7,-13.6 M10.4,-4.5 C10.3,-4.9 10.3,-5.3 10.3,-5.7 C10.3,-6.5 10.5,-7.3 10.9,-8 C11.6,-9 12.8,-9.7 14.3,-10 C15.6,-10.3 16.3,-10.5 18.9,-10.5 L19,-10.5 C23,-10.5 24.3,-6.8 25.4,-3 L25.7,-2 C26.5,0.6 26.9,2.8 26.9,4.5 C26.9,5.7 26.7,6.8 26.3,7.6 C25.7,8.7 24.7,9.4 23,9.8 C22.1,10 20.6,10.1 20.6,10.1 C20.1,10.1 19.7,10.2 19.3,10.2 C16.1,10.2 14.1,9 12.7,4.7 C11.5,1 11.3,-0.1 10.4,-4.5"/>
<path class="Note" transform="matrix(2.3811,0,0,2.3811,1975.91,1540.63)" d="M18.7,-13.6 C4.9,-13.6 0,-6.6 0,-0.1 C0,6.4 4.9,13.4 18.7,13.4 C32.5,13.4 37.3,6.4 37.3,-0.1 C37.3,-6.6 32.5,-13.6 18.7,-13.6 M10.4,-4.5 C10.3,-4.9 10.3,-5.3 10.3,-5.7 C10.3,-6.5 10.5,-7.3 10.9,-8 C11.6,-9 12.8,-9.7 14.3,-10 C15.6,-10.3 16.3,-10.5 18.9,-10.5 L19,-10.5 C23,-10.5 24.3,-6.8 25.4,-3 L25.7,-2 C26.5,0.6 26.9,2.8 26.9,4.5 C26.9,5.7 26.7,6.8 26.3,7.6 C25.7,8.7 24.7,9.4 23,9.8 C22.1,10 20.6,10.1 20.6,10.1 C20.1,10.1 19.7,10.2 19.3,10.2 C16.1,10.2 14.1,9 12.7,4.7 C11.5,1 11.3,-0.1 10.4,-4.5"/>
<path class="Note" transform="matrix(2.3811,0,0,2.3811,1975.91,1451.34)" d="M18.7,-13.6 C4.9,-13.6 0,-6.6 0,-0.1 C0,6.4 4.9,13.4 18.7,13.4 C32.5,13.4 37.3,6.4 37.3,-0.1 C37.3,-6.6 32.5,-13.6 18.7,-13.6 M10.4,-4.5 C10.3,-4.9 10.3,-5.3 10.3,-5.7 C10.3,-6.5 10.5,-7.3 10.9,-8 C11.6,-9 12.8,-9.7 14.3,-10 C15.6,-10.3 16.3,-10.5 18.9,-10.5 L19,-10.5 C23,-10.5 24.3,-6.8 25.4,-3 L25.7,-2 C26.5,0.6 26.9,2.8 26.9,4.5 C26.9,5.7 26.7,6.8 26.3,7.6 C25.7,8.7 24.7,9.4 23,9.8 C22.1,10 20.6,10.1 20.6,10.1 C20.1,10.1 19.7,10.2 19.3,10.2 C16.1,10.2 14.1,9 12.7,4.7 C11.5,1 11.3,-0.1 10.4,-4.5"/>
<path class="Note" transform="matrix(2.3811,0,0,2.3811,1975.91,1391.81)" d="M18.7,-13.6 C4.9,-13.6 0,-6.6 0,-0.1 C0,6.4 4.9,13.4 18.7,13.4 C32.5,13.4 37.3,6.4 37.3,-0.1 C37.3,-6.6 32.5,-13.6 18.7,-13.6 M10.4,-4.5 C10.3,-4.9 10.3,-5.3 10.3,-5.7 C10.3,-6.5 10.5,-7.3 10.9,-8 C11.6,-9 12.8,-9.7 14.3,-10 C15.6,-10.3 16.3,-10.5 18.9,-10.5 L19,-10.5 C23,-10.5 24.3,-6.8 25.4,-3 L25.7,-2 C26.5,0.6 26.9,2.8 26.9,4.5 C26.9,5.7 26.7,6.8 26.3,7.6 C25.7,8.7 24.7,9.4 23,9.8 C22.1,10 20.6,10.1 20.6,10.1 C20.1,10.1 19.7,10.2 19.3,10.2 C16.1,10.2 14.1,9 12.7,4.7 C11.5,1 11.3,-0.1 10.4,-4.5"/>
<path class="Note" transform="matrix(2.3811,0,0,2.3811,2410.95,1540.63)" d="M18.7,-13.6 C4.9,-13.6 0,-6.6 0,-0.1 C0,6.4 4.9,13.4 18.7,13.4 C32.5,13.4 37.3,6.4 37.3,-0.1 C37.3,-6.6 32.5,-13.6 18.7,-13.6 M10.4,-4.5 C10.3,-4.9 10.3,-5.3 10.3,-5.7 C10.3,-6.5 10.5,-7.3 10.9,-8 C11.6,-9 12.8,-9.7 14.3,-10 C15.6,-10.3 16.3,-10.5 18.9,-10.5 L19,-10.5 C23,-10.5 24.3,-6.8 25.4,-3 L25.7,-2 C26.5,0.6 26.9,2.8 26.9,4.5 C26.9,5.7 26.7,6.8 26.3,7.6 C25.7,8.7 24.7,9.4 23,9.8 C22.1,10 20.6,10.1 20.6,10.1 C20.1,10.1 19.7,10.2 19.3,10.2 C16.1,10.2 14.1,9 12.7,4.7 C11.5,1 11.3,-0.1 10.4,-4.5"/>
<path class="Note" transform="matrix(2.3811,0,0,2.3811,2410.95,1451.34)" d="M18.7,-13.6 C4.9,-13.6 0,-6.6 0,-0.1 C0,6.4 4.9,13.4 18.7,13.4 C32.5,13.4 37.3,6.4 37.3,-0.1 C37.3,-6.6 32.5,-13.6 18.7,-13.6 M10.4,-4.5 C10.3,-4.9 10.3,-5.3 10.3,-5.7 C10.3,-6.5 10.5,-7.3 10.9,-8 C11.6,-9 12.8,-9.7 14.3,-10 C15.6,-10.3 16.3,-10.5 18.9,-10.5 L19,-10.5 C23,-10.5 24.3,-6.8 25.4,-3 L25.7,-2 C26.5,0.6 26.9,2.8 26.9,4.5 C26.9,5.7 26.7,6.8 26.3,7.6 C25.7,8.7 24.7,9.4 23,9.8 C22.1,10 20.6,10.1 20.6,10.1 C20.1,10.1 19.7,10.2 19.3,10.2 C16.1,10.2 14.1,9 12.7,4.7 C11.5,1 11.3,-0.1 10.4,-4.5"/>
<path class="Note" transform="matrix(2.3811,0,0,2.3811,2410.95,1391.81)" d="M18.7,-13.6 C4.9,-13.6 0,-6.6 0,-0.1 C0,6.4 4.9,13.4 18.7,13.4 C32.5,13.4 37.3,6.4 37.3,-0.1 C37.3,-6.6 32.5,-13.6 18.7,-13.6 M10.4,-4.5 C10.3,-4.9 10.3,-5.3 10.3,-5.7 C10.3,-6.5 10.5,-7.3 10.9,-8 C11.6,-9 12.8,-9.7 14.3,-10 C15.6,-10.3 16.3,-10.5 18.9,-10.5 L19,-10.5 C23,-10.5 24.3,-6.8 25.4,-3 L25.7,-2 C26.5,0.6 26.9,2.8 26.9,4.5 C26.9,5.7 26.7,6.8 26.3,7.6 C25.7,8.7 24.7,9.4 23,9.8 C22.1,10 20.6,10.1 20.6,10.1 C20.1,10.1 19.7,10.2 19.3,10.2 C16.1,10.2 14.1,9 12.7,4.7 C11.5,1 11.3,-0.1 10.4,-4.5"/>
<path class="Note" transform="matrix(2.3811,0,0,2.3811,2830.88,1510.87)" d="M18.7,-13.6 C4.9,-13.6 0,-6.6 0,-0.1 C0,6.4 4.9,13.4 18.7,13.4 C32.5,13.4 37.3,6.4 37.3,-0.1 C37.3,-6.6 32.5,-13.6 18.7,-13.6 M10.4,-4.5 C10.3,-4.9 10.3,-5.3 10.3,-5.7 C10.3,-6.5 10.5,-7.3 10.9,-8 C11.6,-9 12.8,-9.7 14.3,-10 C15.6,-10.3 16.3,-10.5 18.9,-10.5 L19,-10.5 C23,-10.5 24.3,-6.8 25.4,-3 L25.7,-2 C26.5,0.6 26.9,2.8 26.9,4.5 C26.9,5.7 26.7,6.8 26.3,7.6 C25.7,8.7 24.7,9.4 23,9.8 C22.1,10 20.6,10.1 20.6,10.1 C20.1,10.1 19.7,10.2 19.3,10.2 C16.1,10.2 14.1,9 12.7,4.7 C11.5,1 11.3,-0.1 10.4,-4.5"/>
<path class="Note" transform="matrix(2.3811,0,0,2.3811,2830.88,1451.34)" d="M18.7,-13.6 C4.9,-13.6 0,-6.6 0,-0.1 C0,6.4 4.9,13.4 18.7,13.4 C32.5,13.4 37.3,6.4 37.3,-0.1 C37.3,-6.6 32.5,-13.6 18.7,-13.6 M10.4,-4.5 C10.3,-4.9 10.3,-5.3 10.3,-5.7 C10.3,-6.5 10.5,-7.3 10.9,-8 C11.6,-9 12.8,-9.7 14.3,-10 C15.6,-10.3 16.3,-10.5 18.9,-10.5 L19,-10.5 C23,-10.5 24.3,-6.8 25.4,-3 L25.7,-2 C26.5,0.6 26.9,2.8 26.9,4.5 C26.9,5.7 26.7,6.8 26.3,7.6 C25.7,8.7 24.7,9.4 23,9.8 C22.1,10 20.6,10.1 20.6,10.1 C20.1,10.1 19.7,10.2 19.3,10.2 C16.1,10.2 14.1,9 12.7,4.7 C11.5,1 11.3,-0.1 10.4,-4.5"/>
<path class="Note" transform="matrix(2.3811,0,0,2.3811,2830.88,1362.05)" d="M18.7,-13.6 C4.9,-13.6 0,-6.6 0,-0.1 C0,6.4 4.9,13.4 18.7,13.4 C32.5,13.4 37.3,6.4 37.3,-0.1 C37.3,-6.6 32.5,-13.6 18.7,-13.6 M10.4,-4.5 C10.3,-4.9 10.3,-5.3 10.3,-5.7 C10.3,-6.5 10.5,-7.3 10.9,-8 C11.6,-9 12.8,-9.7 14.3,-10 C15.6,-10.3 16.3,-10.5 18.9,-10.5 L19,-10.5 C23,-10.5 24.3,-6.8 25.4,-3 L25.7,-2 C26.5,0.6 26.9,2.8 26.9,4.5 C26.9,5.7 26.7,6.8 26.3,7.6 C25.7,8.7 24.7,9.4 23,9.8 C22.1,10 20.6,10.1 20.6,10.1 C20.1,10.1 19.7,10.2 19.3,10.2 C16.1,10.2 14.1,9 12.7,4.7 C11.5,1 11.3,-0.1 10.4,-4.5"/>
<path class="Note" transform="matrix(2.3811,0,0,2.3811,3265.92,1481.1)" d="M18.7,-13.6 C4.9,-13.6 0,-6.6 0,-0.1 C0,6.4 4.9,13.4 18.7,13.4 C32.5,13.4 37.3,6.4 37.3,-0.1 C37.3,-6.6 32.5,-13.6 18.7,-13.6 M10.4,-4.5 C10.3,-4.9 10.3,-5.3 10.3,-5.7 C10.3,-6.5 10.5,-7.3 10.9,-8 C11.6,-9 12.8,-9.7 14.3,-10 C15.6,-10.3 16.3,-10.5 18.9,-10.5 L19,-10.5 C23,-10.5 24.3,-6.8 25.4,-3 L25.7,-2 C26.5,0.6 26.9,2.8 26.9,4.5 C26.9,5.7 26.7,6.8 26.3,7.6 C25.7,8.7 24.7,9.4 23,9.8 C22.1,10 20.6,10.1 20.6,10.1 C20.1,10.1 19.7,10.2 19.3,10.2 C16.1,10.2 14.1,9 12.7,4.7 C11.5,1 11.3,-0.1 10.4,-4.5"/>
<path class="Note" transform="matrix(2.3811,0,0,2.3811,3348.18,1451.34)" d="M18.7,-13.6 C4.9,-13.6 0,-6.6 0,-0.1 C0,6.4 4.9,13.4 18.7,13.4 C32.5,13.4 37.3,6.4 37.3,-0.1 C37.3,-6.6 32.5,-13.6 18.7,-13.6 M10.4,-4.5 C10.3,-4.9 10.3,-5.3 10.3,-5.7 C10.3,-6.5 10.5,-7.3 10.9,-8 C11.6,-9 12.8,-9.7 14.3,-10 C15.6,-10.3 16.3,-10.5 18.9,-10.5 L19,-10.5 C23,-10.5 24.3,-6.8 25.4,-3 L25.7,-2 C26.5,0.6 26.9,2.8 26.9,4.5 C26.9,5.7 26.7,6.8 26.3,7.6 C25.7,8.7 24.7,9.4 23,9.8 C22.1,10 20.6,10.1 20.6,10.1 C20.1,10.1 19.7,10.2 19.3,10.2 C16.1,10.2 14.1,9 12.7,4.7 C11.5,1 11.3,-0.1 10.4,-4.5"/>
<path class="Note" transform="matrix(2.3811,0,0,2.3811,3348.18,1391.81)" d="M18.7,-13.6 C4.9,-13.6 0,-6.6 0,-0.1 C0,6.4 4.9,13.4 18.7,13.4 C32.5,13.4 37.3,6.4 37.3,-0.1 C37.3,-6.6 32.5,-13.6 18.7,-13.6 M10.4,-4.5 C10.3,-4.9 10.3,-5.3 10.3,-5.7 C10.3,-6.5 10.5,-7.3 10.9,-8 C11.6,-9 12.8,-9.7 14.3,-10 C15.6,-10.3 16.3,-10.5 18.9,-10.5 L19,-10.5 C23,-10.5 24.3,-6.8 25.4,-3 L25.7,-2 C26.5,0.6 26.9,2.8 26.9,4.5 C26.9,5.7 26.7,6.8 26.3,7.6 C25.7,8.7 24.7,9.4 23,9.8 C22.1,10 20.6,10.1 20.6,10.1 C20.1,10.1 19.7,10.2 19.3,10.2 C16.1,10.2 14.1,9 12.7,4.7 C11.5,1 11.3,-0.1 10.4,-4.5"/>
<path class="Note" transform="matrix(2.3811,0,0,2.3811,3758.59,1510.87)" d="M18.7,-13.6 C4.9,-13.6 0,-6.6 0,-0.1 C0,6.4 4.9,13.4 18.7,13.4 C32.5,13.4 37.3,6.4 37.3,-0.1 C37.3,-6.6 32.5,-13.6 18.7,-13.6 M10.4,-4.5 C10.3,-4.9 10.3,-5.3 10.3,-5.7 C10.3,-6.5 10.5,-7.3 10.9,-8 C11.6,-9 12.8,-9.7 14.3,-10 C15.6,-10.3 16.3,-10.5 18.9,-10.5 L19,-10.5 C23,-10.5 24.3,-6.8 25.4,-3 L25.7,-2 C26.5,0.6 26.9,2.8 26.9,4.5 C26.9,5.7 26.7,6.8 26.3,7.6 C25.7,8.7 24.7,9.4 23,9.8 C22.1,10 20.6,10.1 20.6,10.1 C20.1,10.1 19.7,10.2 19.3,10.2 C16.1,10.2 14.1,9 12.7,4.7 C11.5,1 11.3,-0.1 10.4,-4.5"/>
<path class="Note" transform="matrix(2.3811,0,0,2.3811,3758.59,1451.34)" d="M18.7,-13.6 C4.9,-13.6 0,-6.6 0,-0.1 C0,6.4 4.9,13.4 18.7,13.4 C32.5,13.4 37.3,6.4 37.3,-0.1 C37.3,-6.6 32.5,-13.6 18.7,-13.6 M10.4,-4.5 C10.3,-4.9 10.3,-5.3 10.3,-5.7 C10.3,-6.5 10.5,-7.3 10.9,-8 C11.6,-9 12.8,-9.7 14.3,-10 C15.6,-10.3 16.3,-10.5 18.9,-10.5 L19,-10.5 C23,-10.5 24.3,-6.8 25.4,-3 L25.7,-2 C26.5,0.6 26.9,2.8 26.9,4.5 C26.9,5.7 26.7,6.8 26.3,7.6 C25.7,8.7 24.7,9.4 23,9.8 C22.1,10 20.6,10.1 20.6,10.1 C20.1,10.1 19.7,10.2 19.3,10.2 C16.1,10.2 14.1,9 12.7,4.7 C11.5,1 11.3,-0.1 10.4,-4.5"/>
<path class="Note" transform="matrix(2.3811,0,0,2.3811,3758.59,1362.05)" d="M18.7,-13.6 C4.9,-13.6 0,-6.6 0,-0.1 C0,6.4 4.9,13.4 18.7,13.4 C32.5,13.4 37.3,6.4 37.3,-0.1 C37.3,-6.6 32.5,-13.6 18.7,-13.6 M10.4,-4.5 C10.3,-4.9 10.3,-5.3 10.3,-5.7 C10.3,-6.5 10.5,-7.3 10.9,-8 C11.6,-9 12.8,-9.7 14.3,-10 C15.6,-10.3 16.3,-10.5 18.9,-10.5 L19,-10.5 C23,-10.5 24.3,-6.8 25.4,-3 L25.7,-2 C26.5,0.6 26.9,2.8 26.9,4.5 C26.9,5.7 26.7,6.8 26.3,7.6 C25.7,8.7 24.7,9.4 23,9.8 C22.1,10 20.6,10.1 20.6,10.1 C20.1,10.1 19.7,10.2 19.3,10.2 C16.1,10.2 14.1,9 12.7,4.7 C11.5,1 11.3,-0.1 10.4,-4.5"/>
<path class="Note" d="M692.276,893.832 C694.755,893.832 696.46,894.452 697.389,895.692 C698.784,897.783 699.481,900.727 699.481,904.524 C699.481,908.94 696.382,919.515 690.184,936.249 C680.035,964.682 674.961,979.751 674.961,981.455 C674.961,986.026 676.781,988.35 680.422,988.428 C681.972,988.428 685.923,986.026 692.276,981.223 C698.551,976.652 703.393,974.366 706.802,974.366 C708.197,974.366 708.894,975.219 708.894,976.923 C708.894,979.79 705.059,983.547 697.389,988.195 C684.838,995.865 676.161,999.7 671.358,999.7 C663.688,999.7 659.853,996.679 659.853,990.636 C659.853,990.481 665.16,972.701 675.774,937.295 C682.204,915.99 686.117,902.122 687.511,895.692 C687.744,894.452 689.332,893.832 692.276,893.832"/>
<path class="Note" d="M657.761,642.535 C653.578,642.535 651.486,640.637 651.486,636.841 C651.486,630.41 652.454,625.684 654.391,622.663 C662.448,610.732 679.958,588.419 706.919,555.725 C719.082,540.928 734.77,533.529 753.984,533.529 C761.421,533.529 766.573,534.575 769.44,536.667 C773.856,539.921 776.064,543.833 776.064,548.404 C776.064,553.207 772.19,558.553 764.443,564.441 C757.083,570.019 750.11,572.808 743.525,572.808 C740.968,572.808 739.69,572.537 739.69,571.995 C739.69,571.22 740.93,570.407 743.409,569.555 C746.74,568.315 750.304,565.797 754.1,562.001 C758.439,557.585 760.608,553.595 760.608,550.031 C760.608,547.629 758.942,545.344 755.611,543.175 C752.667,541.315 747.902,540.386 741.317,540.386 C731.71,540.386 719.586,550.07 704.943,569.438 C695.181,582.376 687.279,593.765 681.236,603.604 C684.18,601.977 687.705,600.002 691.811,597.678 C696.847,594.811 701.185,593.378 704.827,593.378 C713.891,593.378 718.423,596.632 718.423,603.139 C718.423,609.57 714.705,616.62 707.267,624.29 C701.999,629.713 699.365,633.742 699.365,636.376 C699.365,639.087 701.999,640.443 707.267,640.443 C709.901,640.443 712.613,639.513 715.402,637.654 C718.191,635.872 720.244,634.981 721.561,634.981 C722.646,634.981 723.188,635.679 723.188,637.073 C723.188,639.32 721.019,641.683 716.68,644.162 C709.398,648.346 703.548,650.437 699.132,650.437 C691.308,650.437 687.395,646.254 687.395,637.887 C687.395,632.618 690.417,626.769 696.46,620.339 C700.876,615.613 703.084,610.926 703.084,606.277 C703.084,602.249 700.914,600.234 696.576,600.234 C694.871,600.234 689.216,602.249 679.609,606.277 C676.742,611.081 674.341,615.497 672.404,619.525 C665.044,634.865 660.163,642.535 657.761,642.535"/>
<path class="Note" d="M657.761,821.118 C653.578,821.118 651.486,819.22 651.486,815.423 C651.486,808.993 652.454,804.267 654.391,801.246 C662.448,789.315 679.958,767.002 706.919,734.308 C719.082,719.511 734.77,712.112 753.984,712.112 C761.421,712.112 766.573,713.158 769.44,715.249 C773.856,718.503 776.064,722.416 776.064,726.987 C776.064,731.79 772.19,737.136 764.443,743.024 C757.083,748.602 750.11,751.391 743.525,751.391 C740.968,751.391 739.69,751.12 739.69,750.578 C739.69,749.803 740.93,748.989 743.409,748.137 C746.74,746.898 750.304,744.38 754.1,740.583 C758.439,736.167 760.608,732.178 760.608,728.614 C760.608,726.212 758.942,723.927 755.611,721.757 C752.667,719.898 747.902,718.968 741.317,718.968 C731.71,718.968 719.586,728.652 704.943,748.021 C695.181,760.959 687.279,772.348 681.236,782.187 C684.18,780.56 687.705,778.584 691.811,776.26 C696.847,773.394 701.185,771.96 704.827,771.96 C713.891,771.96 718.423,775.214 718.423,781.722 C718.423,788.152 714.705,795.203 707.267,802.873 C701.999,808.296 699.365,812.324 699.365,814.958 C699.365,817.67 701.999,819.026 707.267,819.026 C709.901,819.026 712.613,818.096 715.402,816.237 C718.191,814.455 720.244,813.564 721.561,813.564 C722.646,813.564 723.188,814.261 723.188,815.656 C723.188,817.902 721.019,820.265 716.68,822.745 C709.398,826.928 703.548,829.02 699.132,829.02 C691.308,829.02 687.395,824.836 687.395,816.469 C687.395,811.201 690.417,805.352 696.46,798.921 C700.876,794.195 703.084,789.508 703.084,784.86 C703.084,780.831 700.914,778.817 696.576,778.817 C694.871,778.817 689.216,780.831 679.609,784.86 C676.742,789.663 674.341,794.079 672.404,798.108 C665.044,813.448 660.163,821.118 657.761,821.118"/>
<path class="Note" d="M687.046,666.167 C690.843,666.167 692.741,669.072 692.741,674.883 C692.741,679.067 690.765,683.87 686.814,689.293 C683.328,694.174 681.585,701.728 681.585,711.954 C681.585,716.835 682.863,720.089 685.42,721.716 C687.201,722.956 690.533,723.614 695.414,723.692 C700.682,723.692 708.158,721.019 717.842,715.673 L719.702,717.532 C717.223,720.709 714.24,723.575 710.754,726.132 C705.563,729.928 700.256,731.826 694.833,731.826 C687.008,731.826 681.081,730.703 677.052,728.456 C672.017,725.667 669.499,722.181 669.499,717.997 C669.499,706.454 670.971,694.406 673.915,681.856 C674.999,677.285 677.362,673.101 681.004,669.305 C683.095,667.213 685.11,666.167 687.046,666.167"/>
<path class="Note" d="M1144.18,925.79 C1146.58,925.79 1148.33,926.294 1149.41,927.301 C1150.65,928.386 1151.27,929.974 1151.27,932.066 C1151.27,934.7 1150.11,936.946 1147.78,938.806 C1137.71,945.933 1127.37,954.998 1116.76,965.999 C1119.16,976.613 1122.1,984.477 1125.59,989.59 C1130.16,996.33 1133.3,999.7 1135,999.7 C1136.55,999.7 1138.22,998.732 1140,996.795 C1141.24,995.478 1142.44,994.819 1143.6,994.819 C1146.08,994.819 1147.32,996.137 1147.32,998.771 C1147.32,1001.56 1145.11,1005.36 1140.7,1010.16 C1138.29,1012.64 1135.78,1013.88 1133.14,1013.88 C1127.72,1013.88 1122.26,1008.8 1116.76,998.654 C1111.18,988.428 1107.34,978.782 1105.25,969.718 C1101.38,981.649 1099.44,988.97 1099.44,991.682 C1099.44,997.027 1096.38,999.7 1090.26,999.7 C1086.93,999.7 1085.26,996.601 1085.26,990.403 C1085.26,987.459 1088.94,974.289 1096.3,950.892 C1099.94,939.426 1102.93,931.407 1105.25,926.836 C1105.79,925.906 1107.19,925.442 1109.44,925.442 C1112.07,925.442 1113.89,925.984 1114.9,927.068 C1115.9,928.153 1116.41,930.4 1116.41,933.809 C1116.41,935.513 1114.74,941.401 1111.41,951.473 C1119.7,943.338 1129.04,935.397 1139.42,927.65 C1141.04,926.41 1142.63,925.79 1144.18,925.79"/>
<path class="Note" d="M1141.04,494.673 C1145.62,494.673 1147.9,497.54 1147.9,503.273 C1147.9,507.302 1145.38,513.306 1140.35,521.286 C1136.32,527.716 1134.3,533.991 1134.3,540.112 C1134.3,543.598 1139.38,545.341 1149.53,545.341 C1157.9,545.341 1169.55,540.809 1184.51,531.745 C1169.48,546.232 1156.42,553.476 1145.34,553.476 C1135.35,553.476 1128.38,551.965 1124.43,548.944 C1123.42,548.169 1122.57,547.239 1121.87,546.155 C1118,550.881 1111.53,553.244 1102.46,553.244 C1093.79,553.244 1087.12,551.462 1082.47,547.898 C1079.38,545.496 1077.83,541.661 1077.83,536.393 C1077.83,528.026 1082.78,518.884 1092.7,508.967 C1103.31,498.353 1115.59,493.046 1129.54,493.046 C1133.03,493.046 1135.58,494.325 1137.21,496.881 C1138.53,495.409 1139.8,494.673 1141.04,494.673 M1120.24,540.925 C1120.17,540.305 1120.13,539.686 1120.13,539.066 C1120.13,538.756 1124.08,527.948 1131.98,506.643 C1132.75,504.551 1133.53,502.769 1134.3,501.297 C1131.28,500.678 1128.3,500.368 1125.36,500.368 C1119.93,500.368 1112.73,504.977 1103.74,514.197 C1095.68,522.409 1091.65,529.498 1091.65,535.463 C1091.65,542.049 1094.79,545.341 1101.07,545.341 C1108.66,545.341 1115.05,543.869 1120.24,540.925"/>
<path class="Note" d="M1117.8,536.667 C1120.28,536.667 1121.99,537.287 1122.92,538.526 C1124.31,540.618 1125.01,543.562 1125.01,547.358 C1125.01,551.774 1121.91,562.349 1115.71,579.084 C1105.56,607.517 1100.49,622.585 1100.49,624.29 C1100.49,628.861 1102.31,631.185 1105.95,631.263 C1107.5,631.263 1111.45,628.861 1117.8,624.057 C1124.08,619.486 1128.92,617.201 1132.33,617.201 C1133.72,617.201 1134.42,618.053 1134.42,619.758 C1134.42,622.624 1130.59,626.382 1122.92,631.03 C1110.36,638.7 1101.69,642.535 1096.88,642.535 C1089.21,642.535 1085.38,639.513 1085.38,633.471 C1085.38,633.316 1090.69,615.535 1101.3,580.13 C1107.73,558.824 1111.64,544.957 1113.04,538.526 C1113.27,537.287 1114.86,536.667 1117.8,536.667"/>
<path class="Note" d="M1117.8,625.958 C1120.28,625.958 1121.99,626.578 1122.92,627.818 C1124.31,629.909 1125.01,632.853 1125.01,636.65 C1125.01,641.066 1121.91,651.641 1115.71,668.375 C1105.56,696.808 1100.49,711.877 1100.49,713.581 C1100.49,718.152 1102.31,720.476 1105.95,720.554 C1107.5,720.554 1111.45,718.152 1117.8,713.349 C1124.08,708.778 1128.92,706.492 1132.33,706.492 C1133.72,706.492 1134.42,707.345 1134.42,709.049 C1134.42,711.916 1130.59,715.673 1122.92,720.321 C1110.36,727.991 1101.69,731.826 1096.88,731.826 C1089.21,731.826 1085.38,728.805 1085.38,722.762 C1085.38,722.607 1090.69,704.827 1101.3,669.421 C1107.73,648.116 1111.64,634.248 1113.04,627.818 C1113.27,626.578 1114.86,625.958 1117.8,625.958"/>
<path class="Note" d="M1550.6,999.7 C1546.41,999.7 1544.32,997.802 1544.32,994.006 C1544.32,987.576 1545.29,982.85 1547.22,979.828 C1555.28,967.897 1572.79,945.585 1599.75,912.891 C1611.92,898.093 1627.6,890.694 1646.82,890.694 C1654.26,890.694 1659.41,891.74 1662.27,893.832 C1666.69,897.086 1668.9,900.999 1668.9,905.569 C1668.9,910.373 1665.02,915.719 1657.28,921.607 C1649.92,927.185 1642.94,929.974 1636.36,929.974 C1633.8,929.974 1632.52,929.703 1632.52,929.16 C1632.52,928.386 1633.76,927.572 1636.24,926.72 C1639.57,925.48 1643.14,922.962 1646.93,919.166 C1651.27,914.75 1653.44,910.76 1653.44,907.196 C1653.44,904.795 1651.78,902.509 1648.44,900.34 C1645.5,898.481 1640.74,897.551 1634.15,897.551 C1624.54,897.551 1612.42,907.235 1597.78,926.604 C1588.01,939.542 1580.11,950.93 1574.07,960.77 C1577.01,959.143 1580.54,957.167 1584.64,954.843 C1589.68,951.976 1594.02,950.543 1597.66,950.543 C1606.72,950.543 1611.26,953.797 1611.26,960.305 C1611.26,966.735 1607.54,973.785 1600.1,981.455 C1594.83,986.878 1592.2,990.907 1592.2,993.541 C1592.2,996.253 1594.83,997.609 1600.1,997.609 C1602.73,997.609 1605.45,996.679 1608.24,994.819 C1611.02,993.038 1613.08,992.147 1614.39,992.147 C1615.48,992.147 1616.02,992.844 1616.02,994.238 C1616.02,996.485 1613.85,998.848 1609.51,1001.33 C1602.23,1005.51 1596.38,1007.6 1591.97,1007.6 C1584.14,1007.6 1580.23,1003.42 1580.23,995.052 C1580.23,989.784 1583.25,983.934 1589.29,977.504 C1593.71,972.778 1595.92,968.091 1595.92,963.443 C1595.92,959.414 1593.75,957.4 1589.41,957.4 C1587.71,957.4 1582.05,959.414 1572.44,963.443 C1569.58,968.246 1567.17,972.662 1565.24,976.691 C1557.88,992.03 1553,999.7 1550.6,999.7"/>
<path class="Note" d="M1550.6,910.409 C1546.41,910.409 1544.32,908.511 1544.32,904.715 C1544.32,898.284 1545.29,893.558 1547.22,890.537 C1555.28,878.606 1572.79,856.293 1599.75,823.599 C1611.92,808.802 1627.6,801.403 1646.82,801.403 C1654.26,801.403 1659.41,802.449 1662.27,804.541 C1666.69,807.795 1668.9,811.707 1668.9,816.278 C1668.9,821.082 1665.02,826.427 1657.28,832.315 C1649.92,837.893 1642.94,840.682 1636.36,840.682 C1633.8,840.682 1632.52,840.411 1632.52,839.869 C1632.52,839.094 1633.76,838.281 1636.24,837.429 C1639.57,836.189 1643.14,833.671 1646.93,829.875 C1651.27,825.459 1653.44,821.469 1653.44,817.905 C1653.44,815.503 1651.78,813.218 1648.44,811.049 C1645.5,809.189 1640.74,808.26 1634.15,808.26 C1624.54,808.26 1612.42,817.944 1597.78,837.312 C1588.01,850.25 1580.11,861.639 1574.07,871.478 C1577.01,869.851 1580.54,867.876 1584.64,865.552 C1589.68,862.685 1594.02,861.252 1597.66,861.252 C1606.72,861.252 1611.26,864.506 1611.26,871.013 C1611.26,877.444 1607.54,884.494 1600.1,892.164 C1594.83,897.587 1592.2,901.616 1592.2,904.25 C1592.2,906.961 1594.83,908.317 1600.1,908.317 C1602.73,908.317 1605.45,907.388 1608.24,905.528 C1611.02,903.746 1613.08,902.855 1614.39,902.855 C1615.48,902.855 1616.02,903.553 1616.02,904.947 C1616.02,907.194 1613.85,909.557 1609.51,912.036 C1602.23,916.22 1596.38,918.311 1591.97,918.311 C1584.14,918.311 1580.23,914.128 1580.23,905.761 C1580.23,900.492 1583.25,894.643 1589.29,888.213 C1593.71,883.487 1595.92,878.8 1595.92,874.151 C1595.92,870.123 1593.75,868.108 1589.41,868.108 C1587.71,868.108 1582.05,870.123 1572.44,874.151 C1569.58,878.955 1567.17,883.371 1565.24,887.399 C1557.88,902.739 1553,910.409 1550.6,910.409"/>
<path class="Note" d="M1611.49,568.625 C1613.89,568.625 1615.63,569.128 1616.72,570.136 C1617.96,571.22 1618.58,572.808 1618.58,574.9 C1618.58,577.534 1617.42,579.781 1615.09,581.64 C1605.02,588.768 1594.68,597.832 1584.06,608.834 C1586.47,619.448 1589.41,627.311 1592.9,632.425 C1597.47,639.165 1600.6,642.535 1602.31,642.535 C1603.86,642.535 1605.52,641.567 1607.31,639.63 C1608.55,638.313 1609.75,637.654 1610.91,637.654 C1613.39,637.654 1614.63,638.971 1614.63,641.605 C1614.63,644.394 1612.42,648.191 1608,652.994 C1605.6,655.473 1603.08,656.713 1600.45,656.713 C1595.03,656.713 1589.56,651.638 1584.06,641.489 C1578.49,631.263 1574.65,621.617 1572.56,612.553 C1568.69,624.484 1566.75,631.805 1566.75,634.516 C1566.75,639.862 1563.69,642.535 1557.57,642.535 C1554.24,642.535 1552.57,639.436 1552.57,633.238 C1552.57,630.294 1556.25,617.124 1563.61,593.726 C1567.25,582.26 1570.23,574.242 1572.56,569.671 C1573.1,568.741 1574.5,568.276 1576.74,568.276 C1579.38,568.276 1581.2,568.818 1582.2,569.903 C1583.21,570.988 1583.72,573.235 1583.72,576.643 C1583.72,578.348 1582.05,584.236 1578.72,594.307 C1587.01,586.173 1596.34,578.232 1606.72,570.484 C1608.35,569.245 1609.94,568.625 1611.49,568.625"/>
<path class="Note" d="M1611.49,747.207 C1613.89,747.207 1615.63,747.711 1616.72,748.718 C1617.96,749.803 1618.58,751.391 1618.58,753.483 C1618.58,756.117 1617.42,758.364 1615.09,760.223 C1605.02,767.351 1594.68,776.415 1584.06,787.416 C1586.47,798.03 1589.41,805.894 1592.9,811.007 C1597.47,817.748 1600.6,821.118 1602.31,821.118 C1603.86,821.118 1605.52,820.149 1607.31,818.212 C1608.55,816.895 1609.75,816.237 1610.91,816.237 C1613.39,816.237 1614.63,817.554 1614.63,820.188 C1614.63,822.977 1612.42,826.773 1608,831.577 C1605.6,834.056 1603.08,835.295 1600.45,835.295 C1595.03,835.295 1589.56,830.221 1584.06,820.072 C1578.49,809.845 1574.65,800.2 1572.56,791.135 C1568.69,803.066 1566.75,810.388 1566.75,813.099 C1566.75,818.445 1563.69,821.118 1557.57,821.118 C1554.24,821.118 1552.57,818.019 1552.57,811.821 C1552.57,808.877 1556.25,795.706 1563.61,772.309 C1567.25,760.843 1570.23,752.824 1572.56,748.253 C1573.1,747.324 1574.5,746.859 1576.74,746.859 C1579.38,746.859 1581.2,747.401 1582.2,748.486 C1583.21,749.57 1583.72,751.817 1583.72,755.226 C1583.72,756.93 1582.05,762.818 1578.72,772.89 C1587.01,764.755 1596.34,756.814 1606.72,749.067 C1608.35,747.827 1609.94,747.207 1611.49,747.207"/>
<path class="Note" d="M1550.6,553.244 C1546.41,553.244 1544.32,551.346 1544.32,547.549 C1544.32,541.119 1545.29,536.393 1547.22,533.372 C1555.28,521.441 1572.79,499.128 1599.75,466.434 C1611.92,451.637 1627.6,444.238 1646.82,444.238 C1654.26,444.238 1659.41,445.284 1662.27,447.375 C1666.69,450.629 1668.9,454.542 1668.9,459.113 C1668.9,463.916 1665.02,469.262 1657.28,475.15 C1649.92,480.728 1642.94,483.517 1636.36,483.517 C1633.8,483.517 1632.52,483.246 1632.52,482.704 C1632.52,481.929 1633.76,481.115 1636.24,480.263 C1639.57,479.024 1643.14,476.506 1646.93,472.709 C1651.27,468.293 1653.44,464.304 1653.44,460.74 C1653.44,458.338 1651.78,456.053 1648.44,453.883 C1645.5,452.024 1640.74,451.094 1634.15,451.094 C1624.54,451.094 1612.42,460.778 1597.78,480.147 C1588.01,493.085 1580.11,504.474 1574.07,514.313 C1577.01,512.686 1580.54,510.71 1584.64,508.386 C1589.68,505.52 1594.02,504.086 1597.66,504.086 C1606.72,504.086 1611.26,507.34 1611.26,513.848 C1611.26,520.278 1607.54,527.329 1600.1,534.999 C1594.83,540.422 1592.2,544.45 1592.2,547.084 C1592.2,549.796 1594.83,551.152 1600.1,551.152 C1602.73,551.152 1605.45,550.222 1608.24,548.363 C1611.02,546.581 1613.08,545.69 1614.39,545.69 C1615.48,545.69 1616.02,546.387 1616.02,547.782 C1616.02,550.028 1613.85,552.391 1609.51,554.871 C1602.23,559.054 1596.38,561.146 1591.97,561.146 C1584.14,561.146 1580.23,556.962 1580.23,548.595 C1580.23,543.327 1583.25,537.478 1589.29,531.047 C1593.71,526.321 1595.92,521.634 1595.92,516.986 C1595.92,512.957 1593.75,510.943 1589.41,510.943 C1587.71,510.943 1582.05,512.957 1572.44,516.986 C1569.58,521.789 1567.17,526.205 1565.24,530.234 C1557.88,545.574 1553,553.244 1550.6,553.244"/>
<path class="Note" d="M1579.88,666.167 C1583.68,666.167 1585.57,669.072 1585.57,674.883 C1585.57,679.067 1583.6,683.87 1579.65,689.293 C1576.16,694.174 1574.42,701.728 1574.42,711.954 C1574.42,716.835 1575.7,720.089 1578.25,721.716 C1580.04,722.956 1583.37,723.614 1588.25,723.692 C1593.52,723.692 1600.99,721.019 1610.68,715.673 L1612.54,717.532 C1610.06,720.709 1607.07,723.575 1603.59,726.132 C1598.4,729.928 1593.09,731.826 1587.67,731.826 C1579.84,731.826 1573.91,730.703 1569.89,728.456 C1564.85,725.667 1562.33,722.181 1562.33,717.997 C1562.33,706.454 1563.8,694.406 1566.75,681.856 C1567.83,677.285 1570.2,673.101 1573.84,669.305 C1575.93,667.213 1577.94,666.167 1579.88,666.167"/>
<path class="Note" d="M2054.73,851.839 C2059.3,851.839 2061.58,854.705 2061.58,860.438 C2061.58,864.467 2059.07,870.471 2054.03,878.451 C2050,884.881 2047.99,891.157 2047.99,897.277 C2047.99,900.763 2053.06,902.507 2063.21,902.507 C2071.58,902.507 2083.24,897.974 2098.19,888.91 C2083.16,903.398 2070.11,910.641 2059.03,910.641 C2049.03,910.641 2042.06,909.131 2038.11,906.109 C2037.1,905.334 2036.25,904.405 2035.55,903.32 C2031.68,908.046 2025.21,910.409 2016.15,910.409 C2007.47,910.409 2000.81,908.627 1996.16,905.063 C1993.06,902.662 1991.51,898.827 1991.51,893.558 C1991.51,885.191 1996.47,876.049 2006.38,866.133 C2017,855.519 2029.28,850.212 2043.22,850.212 C2046.71,850.212 2049.27,851.49 2050.89,854.047 C2052.21,852.575 2053.49,851.839 2054.73,851.839 M2033.93,898.091 C2033.85,897.471 2033.81,896.851 2033.81,896.231 C2033.81,895.921 2037.76,885.114 2045.66,863.808 C2046.44,861.717 2047.21,859.935 2047.99,858.463 C2044.97,857.843 2041.98,857.533 2039.04,857.533 C2033.62,857.533 2026.41,862.143 2017.42,871.362 C2009.37,879.574 2005.34,886.663 2005.34,892.629 C2005.34,899.214 2008.48,902.507 2014.75,902.507 C2022.34,902.507 2028.74,901.035 2033.93,898.091"/>
<path class="Note" d="M2069.6,561.187 C2073.94,558.243 2077.08,555.803 2079.02,553.866 C2082.58,550.07 2084.36,546.583 2084.36,543.407 C2084.36,539.766 2082.35,537.945 2078.32,537.945 C2070.49,537.945 2062.13,544.84 2053.22,558.631 C2050.51,562.814 2044.54,576.45 2035.32,599.537 C2042.68,607.129 2046.36,611.429 2046.36,612.436 C2046.36,613.831 2045.47,614.528 2043.69,614.528 C2042.29,614.528 2038.46,612.165 2032.18,607.439 C2025.37,623.321 2015.02,636.879 2001.15,648.113 C1986.98,659.579 1970.05,665.312 1950.37,665.312 C1942.86,665.312 1933.44,663.569 1922.13,660.083 C1913.07,657.294 1908.53,652.839 1908.53,646.719 C1908.53,637.654 1912.02,633.122 1918.99,633.122 C1923.18,633.122 1925.27,635.059 1925.27,638.932 C1925.27,640.172 1924.3,641.489 1922.36,642.884 C1921.36,643.581 1920.85,644.937 1920.85,646.951 C1920.85,649.353 1923.53,651.832 1928.87,654.388 C1934.68,657.178 1943.2,658.572 1954.44,658.572 C1968.93,658.572 1982.91,652.297 1996.39,639.746 C2008.63,628.357 2017.42,615.109 2022.77,600.002 C2020.68,598.297 2018.43,596.438 2016.03,594.424 C2008.59,590.008 2004.87,585.475 2004.87,580.827 C2004.87,578.89 2006.15,577.922 2008.71,577.922 C2012.12,577.922 2016.73,580.827 2022.54,586.638 C2023.78,587.877 2024.94,589.039 2026.02,590.124 C2028.74,582.686 2033.07,573.235 2039.04,561.768 C2049.81,541.005 2062.9,530.624 2078.32,530.624 C2083.82,530.624 2088.16,531.67 2091.33,533.762 C2094.51,535.853 2096.1,538.72 2096.1,542.361 C2096.1,548.172 2093.97,553.091 2089.71,557.12 C2085.29,561.304 2080.68,563.395 2075.88,563.395 C2071.69,563.395 2069.6,562.659 2069.6,561.187"/>
<path class="Note" d="M1996.97,821.118 C1992.79,821.118 1990.7,819.22 1990.7,815.423 C1990.7,808.993 1991.66,804.267 1993.6,801.246 C2001.66,789.315 2019.17,767.002 2046.13,734.308 C2058.29,719.511 2073.98,712.112 2093.19,712.112 C2100.63,712.112 2105.78,713.158 2108.65,715.249 C2113.07,718.503 2115.27,722.416 2115.27,726.987 C2115.27,731.79 2111.4,737.136 2103.65,743.024 C2096.29,748.602 2089.32,751.391 2082.73,751.391 C2080.18,751.391 2078.9,751.12 2078.9,750.578 C2078.9,749.803 2080.14,748.989 2082.62,748.137 C2085.95,746.898 2089.51,744.38 2093.31,740.583 C2097.65,736.167 2099.82,732.178 2099.82,728.614 C2099.82,726.212 2098.15,723.927 2094.82,721.757 C2091.88,719.898 2087.11,718.968 2080.53,718.968 C2070.92,718.968 2058.8,728.652 2044.15,748.021 C2034.39,760.959 2026.49,772.348 2020.45,782.187 C2023.39,780.56 2026.91,778.584 2031.02,776.26 C2036.06,773.394 2040.4,771.96 2044.04,771.96 C2053.1,771.96 2057.63,775.214 2057.63,781.722 C2057.63,788.152 2053.91,795.203 2046.48,802.873 C2041.21,808.296 2038.57,812.324 2038.57,814.958 C2038.57,817.67 2041.21,819.026 2046.48,819.026 C2049.11,819.026 2051.82,818.096 2054.61,816.237 C2057.4,814.455 2059.45,813.564 2060.77,813.564 C2061.86,813.564 2062.4,814.261 2062.4,815.656 C2062.4,817.902 2060.23,820.265 2055.89,822.745 C2048.61,826.928 2042.76,829.02 2038.34,829.02 C2030.52,829.02 2026.6,824.836 2026.6,816.469 C2026.6,811.201 2029.63,805.352 2035.67,798.921 C2040.09,794.195 2042.29,789.508 2042.29,784.86 C2042.29,780.831 2040.12,778.817 2035.79,778.817 C2034.08,778.817 2028.43,780.831 2018.82,784.86 C2015.95,789.663 2013.55,794.079 2011.61,798.108 C2004.25,813.448 1999.37,821.118 1996.97,821.118"/>
<path class="Note" d="M2069.6,471.896 C2073.94,468.952 2077.08,466.512 2079.02,464.575 C2082.58,460.778 2084.36,457.292 2084.36,454.116 C2084.36,450.474 2082.35,448.654 2078.32,448.654 C2070.49,448.654 2062.13,455.549 2053.22,469.339 C2050.51,473.523 2044.54,487.158 2035.32,510.246 C2042.68,517.838 2046.36,522.138 2046.36,523.145 C2046.36,524.54 2045.47,525.237 2043.69,525.237 C2042.29,525.237 2038.46,522.874 2032.18,518.148 C2025.37,534.03 2015.02,547.588 2001.15,558.822 C1986.98,570.288 1970.05,576.021 1950.37,576.021 C1942.86,576.021 1933.44,574.278 1922.13,570.791 C1913.07,568.002 1908.53,563.548 1908.53,557.427 C1908.53,548.363 1912.02,543.831 1918.99,543.831 C1923.18,543.831 1925.27,545.767 1925.27,549.641 C1925.27,550.881 1924.3,552.198 1922.36,553.592 C1921.36,554.29 1920.85,555.645 1920.85,557.66 C1920.85,560.061 1923.53,562.541 1928.87,565.097 C1934.68,567.886 1943.2,569.281 1954.44,569.281 C1968.93,569.281 1982.91,563.005 1996.39,550.455 C2008.63,539.066 2017.42,525.818 2022.77,510.71 C2020.68,509.006 2018.43,507.147 2016.03,505.132 C2008.59,500.716 2004.87,496.184 2004.87,491.536 C2004.87,489.599 2006.15,488.63 2008.71,488.63 C2012.12,488.63 2016.73,491.536 2022.54,497.346 C2023.78,498.586 2024.94,499.748 2026.02,500.832 C2028.74,493.395 2033.07,483.943 2039.04,472.477 C2049.81,451.714 2062.9,441.332 2078.32,441.332 C2083.82,441.332 2088.16,442.378 2091.33,444.47 C2094.51,446.562 2096.1,449.429 2096.1,453.07 C2096.1,458.88 2093.97,463.8 2089.71,467.829 C2085.29,472.012 2080.68,474.104 2075.88,474.104 C2071.69,474.104 2069.6,473.368 2069.6,471.896"/>
<path class="Note" d="M1996.97,731.826 C1992.79,731.826 1990.7,729.928 1990.7,726.132 C1990.7,719.702 1991.66,714.976 1993.6,711.954 C2001.66,700.023 2019.17,677.711 2046.13,645.017 C2058.29,630.219 2073.98,622.82 2093.19,622.82 C2100.63,622.82 2105.78,623.866 2108.65,625.958 C2113.07,629.212 2115.27,633.124 2115.27,637.695 C2115.27,642.499 2111.4,647.845 2103.65,653.733 C2096.29,659.311 2089.32,662.1 2082.73,662.1 C2080.18,662.1 2078.9,661.829 2078.9,661.286 C2078.9,660.512 2080.14,659.698 2082.62,658.846 C2085.95,657.606 2089.51,655.088 2093.31,651.292 C2097.65,646.876 2099.82,642.886 2099.82,639.322 C2099.82,636.921 2098.15,634.635 2094.82,632.466 C2091.88,630.607 2087.11,629.677 2080.53,629.677 C2070.92,629.677 2058.8,639.361 2044.15,658.73 C2034.39,671.668 2026.49,683.056 2020.45,692.896 C2023.39,691.269 2026.91,689.293 2031.02,686.969 C2036.06,684.102 2040.4,682.669 2044.04,682.669 C2053.1,682.669 2057.63,685.923 2057.63,692.431 C2057.63,698.861 2053.91,705.911 2046.48,713.581 C2041.21,719.004 2038.57,723.033 2038.57,725.667 C2038.57,728.379 2041.21,729.735 2046.48,729.735 C2049.11,729.735 2051.82,728.805 2054.61,726.945 C2057.4,725.164 2059.45,724.273 2060.77,724.273 C2061.86,724.273 2062.4,724.97 2062.4,726.364 C2062.4,728.611 2060.23,730.974 2055.89,733.453 C2048.61,737.637 2042.76,739.729 2038.34,739.729 C2030.52,739.729 2026.6,735.545 2026.6,727.178 C2026.6,721.91 2029.63,716.06 2035.67,709.63 C2040.09,704.904 2042.29,700.217 2042.29,695.568 C2042.29,691.54 2040.12,689.526 2035.79,689.526 C2034.08,689.526 2028.43,691.54 2018.82,695.568 C2015.95,700.372 2013.55,704.788 2011.61,708.817 C2004.25,724.156 1999.37,731.826 1996.97,731.826"/>
<path class="Note" d="M2504.64,561.187 C2508.98,558.243 2512.12,555.803 2514.06,553.866 C2517.62,550.07 2519.4,546.583 2519.4,543.407 C2519.4,539.766 2517.39,537.945 2513.36,537.945 C2505.54,537.945 2497.17,544.84 2488.26,558.631 C2485.55,562.814 2479.58,576.45 2470.36,599.537 C2477.72,607.129 2481.4,611.429 2481.4,612.436 C2481.4,613.831 2480.51,614.528 2478.73,614.528 C2477.33,614.528 2473.5,612.165 2467.22,607.439 C2460.41,623.321 2450.06,636.879 2436.2,648.113 C2422.02,659.579 2405.09,665.312 2385.41,665.312 C2377.9,665.312 2368.48,663.569 2357.17,660.083 C2348.11,657.294 2343.58,652.839 2343.58,646.719 C2343.58,637.654 2347.06,633.122 2354.03,633.122 C2358.22,633.122 2360.31,635.059 2360.31,638.932 C2360.31,640.172 2359.34,641.489 2357.41,642.884 C2356.4,643.581 2355.89,644.937 2355.89,646.951 C2355.89,649.353 2358.57,651.832 2363.91,654.388 C2369.72,657.178 2378.25,658.572 2389.48,658.572 C2403.97,658.572 2417.95,652.297 2431.43,639.746 C2443.67,628.357 2452.47,615.109 2457.81,600.002 C2455.72,598.297 2453.47,596.438 2451.07,594.424 C2443.63,590.008 2439.91,585.475 2439.91,580.827 C2439.91,578.89 2441.19,577.922 2443.75,577.922 C2447.16,577.922 2451.77,580.827 2457.58,586.638 C2458.82,587.877 2459.98,589.039 2461.07,590.124 C2463.78,582.686 2468.12,573.235 2474.08,561.768 C2484.85,541.005 2497.94,530.624 2513.36,530.624 C2518.86,530.624 2523.2,531.67 2526.38,533.762 C2529.55,535.853 2531.14,538.72 2531.14,542.361 C2531.14,548.172 2529.01,553.091 2524.75,557.12 C2520.33,561.304 2515.72,563.395 2510.92,563.395 C2506.74,563.395 2504.64,562.659 2504.64,561.187"/>
<path class="Note" d="M2504.64,739.77 C2508.98,736.826 2512.12,734.386 2514.06,732.449 C2517.62,728.652 2519.4,725.166 2519.4,721.99 C2519.4,718.348 2517.39,716.528 2513.36,716.528 C2505.54,716.528 2497.17,723.423 2488.26,737.213 C2485.55,741.397 2479.58,755.032 2470.36,778.12 C2477.72,785.712 2481.4,790.012 2481.4,791.019 C2481.4,792.414 2480.51,793.111 2478.73,793.111 C2477.33,793.111 2473.5,790.748 2467.22,786.022 C2460.41,801.904 2450.06,815.462 2436.2,826.696 C2422.02,838.162 2405.09,843.895 2385.41,843.895 C2377.9,843.895 2368.48,842.152 2357.17,838.666 C2348.11,835.876 2343.58,831.422 2343.58,825.301 C2343.58,816.237 2347.06,811.705 2354.03,811.705 C2358.22,811.705 2360.31,813.641 2360.31,817.515 C2360.31,818.755 2359.34,820.072 2357.41,821.466 C2356.4,822.164 2355.89,823.519 2355.89,825.534 C2355.89,827.935 2358.57,830.415 2363.91,832.971 C2369.72,835.76 2378.25,837.155 2389.48,837.155 C2403.97,837.155 2417.95,830.879 2431.43,818.329 C2443.67,806.94 2452.47,793.692 2457.81,778.584 C2455.72,776.88 2453.47,775.021 2451.07,773.006 C2443.63,768.59 2439.91,764.058 2439.91,759.41 C2439.91,757.473 2441.19,756.504 2443.75,756.504 C2447.16,756.504 2451.77,759.41 2457.58,765.22 C2458.82,766.46 2459.98,767.622 2461.07,768.707 C2463.78,761.269 2468.12,751.817 2474.08,740.351 C2484.85,719.588 2497.94,709.207 2513.36,709.207 C2518.86,709.207 2523.2,710.252 2526.38,712.344 C2529.55,714.436 2531.14,717.303 2531.14,720.944 C2531.14,726.754 2529.01,731.674 2524.75,735.703 C2520.33,739.886 2515.72,741.978 2510.92,741.978 C2506.74,741.978 2504.64,741.242 2504.64,739.77"/>
<path class="Note" d="M2504.64,471.896 C2508.98,468.952 2512.12,466.512 2514.06,464.575 C2517.62,460.778 2519.4,457.292 2519.4,454.116 C2519.4,450.474 2517.39,448.654 2513.36,448.654 C2505.54,448.654 2497.17,455.549 2488.26,469.339 C2485.55,473.523 2479.58,487.158 2470.36,510.246 C2477.72,517.838 2481.4,522.138 2481.4,523.145 C2481.4,524.54 2480.51,525.237 2478.73,525.237 C2477.33,525.237 2473.5,522.874 2467.22,518.148 C2460.41,534.03 2450.06,547.588 2436.2,558.822 C2422.02,570.288 2405.09,576.021 2385.41,576.021 C2377.9,576.021 2368.48,574.278 2357.17,570.791 C2348.11,568.002 2343.58,563.548 2343.58,557.427 C2343.58,548.363 2347.06,543.831 2354.03,543.831 C2358.22,543.831 2360.31,545.767 2360.31,549.641 C2360.31,550.881 2359.34,552.198 2357.41,553.592 C2356.4,554.29 2355.89,555.645 2355.89,557.66 C2355.89,560.061 2358.57,562.541 2363.91,565.097 C2369.72,567.886 2378.25,569.281 2389.48,569.281 C2403.97,569.281 2417.95,563.005 2431.43,550.455 C2443.67,539.066 2452.47,525.818 2457.81,510.71 C2455.72,509.006 2453.47,507.147 2451.07,505.132 C2443.63,500.716 2439.91,496.184 2439.91,491.536 C2439.91,489.599 2441.19,488.63 2443.75,488.63 C2447.16,488.63 2451.77,491.536 2457.58,497.346 C2458.82,498.586 2459.98,499.748 2461.07,500.832 C2463.78,493.395 2468.12,483.943 2474.08,472.477 C2484.85,451.714 2497.94,441.332 2513.36,441.332 C2518.86,441.332 2523.2,442.378 2526.38,444.47 C2529.55,446.562 2531.14,449.429 2531.14,453.07 C2531.14,458.88 2529.01,463.8 2524.75,467.829 C2520.33,472.012 2515.72,474.104 2510.92,474.104 C2506.74,474.104 2504.64,473.368 2504.64,471.896"/>
<path class="Note" d="M2432.01,731.826 C2427.83,731.826 2425.74,729.928 2425.74,726.132 C2425.74,719.702 2426.71,714.976 2428.64,711.954 C2436.7,700.023 2454.21,677.711 2481.17,645.017 C2493.33,630.219 2509.02,622.82 2528.24,622.82 C2535.67,622.82 2540.82,623.866 2543.69,625.958 C2548.11,629.212 2550.32,633.124 2550.32,637.695 C2550.32,642.499 2546.44,647.845 2538.69,653.733 C2531.33,659.311 2524.36,662.1 2517.78,662.1 C2515.22,662.1 2513.94,661.829 2513.94,661.286 C2513.94,660.512 2515.18,659.698 2517.66,658.846 C2520.99,657.606 2524.56,655.088 2528.35,651.292 C2532.69,646.876 2534.86,642.886 2534.86,639.322 C2534.86,636.921 2533.19,634.635 2529.86,632.466 C2526.92,630.607 2522.15,629.677 2515.57,629.677 C2505.96,629.677 2493.84,639.361 2479.19,658.73 C2469.43,671.668 2461.53,683.056 2455.49,692.896 C2458.43,691.269 2461.96,689.293 2466.06,686.969 C2471.1,684.102 2475.44,682.669 2479.08,682.669 C2488.14,682.669 2492.67,685.923 2492.67,692.431 C2492.67,698.861 2488.96,705.911 2481.52,713.581 C2476.25,719.004 2473.62,723.033 2473.62,725.667 C2473.62,728.379 2476.25,729.735 2481.52,729.735 C2484.15,729.735 2486.86,728.805 2489.65,726.945 C2492.44,725.164 2494.5,724.273 2495.81,724.273 C2496.9,724.273 2497.44,724.97 2497.44,726.364 C2497.44,728.611 2495.27,730.974 2490.93,733.453 C2483.65,737.637 2477.8,739.729 2473.38,739.729 C2465.56,739.729 2461.65,735.545 2461.65,727.178 C2461.65,721.91 2464.67,716.06 2470.71,709.63 C2475.13,704.904 2477.33,700.217 2477.33,695.568 C2477.33,691.54 2475.17,689.526 2470.83,689.526 C2469.12,689.526 2463.47,691.54 2453.86,695.568 C2450.99,700.372 2448.59,704.788 2446.66,708.817 C2439.29,724.156 2434.41,731.826 2432.01,731.826"/>
<path class="Note" d="M2851.94,642.535 C2847.76,642.535 2845.66,640.637 2845.66,636.841 C2845.66,630.41 2846.63,625.684 2848.57,622.663 C2856.63,610.732 2874.14,588.419 2901.1,555.725 C2913.26,540.928 2928.95,533.529 2948.16,533.529 C2955.6,533.529 2960.75,534.575 2963.62,536.667 C2968.03,539.921 2970.24,543.833 2970.24,548.404 C2970.24,553.207 2966.37,558.553 2958.62,564.441 C2951.26,570.019 2944.29,572.808 2937.7,572.808 C2935.15,572.808 2933.87,572.537 2933.87,571.995 C2933.87,571.22 2935.11,570.407 2937.59,569.555 C2940.92,568.315 2944.48,565.797 2948.28,562.001 C2952.62,557.585 2954.79,553.595 2954.79,550.031 C2954.79,547.629 2953.12,545.344 2949.79,543.175 C2946.85,541.315 2942.08,540.386 2935.5,540.386 C2925.89,540.386 2913.76,550.07 2899.12,569.438 C2889.36,582.376 2881.46,593.765 2875.41,603.604 C2878.36,601.977 2881.88,600.002 2885.99,597.678 C2891.03,594.811 2895.36,593.378 2899,593.378 C2908.07,593.378 2912.6,596.632 2912.6,603.139 C2912.6,609.57 2908.88,616.62 2901.45,624.29 C2896.18,629.713 2893.54,633.742 2893.54,636.376 C2893.54,639.087 2896.18,640.443 2901.45,640.443 C2904.08,640.443 2906.79,639.513 2909.58,637.654 C2912.37,635.872 2914.42,634.981 2915.74,634.981 C2916.82,634.981 2917.37,635.679 2917.37,637.073 C2917.37,639.32 2915.2,641.683 2910.86,644.162 C2903.58,648.346 2897.73,650.437 2893.31,650.437 C2885.49,650.437 2881.57,646.254 2881.57,637.887 C2881.57,632.618 2884.59,626.769 2890.64,620.339 C2895.05,615.613 2897.26,610.926 2897.26,606.277 C2897.26,602.249 2895.09,600.234 2890.75,600.234 C2889.05,600.234 2883.39,602.249 2873.79,606.277 C2870.92,611.081 2868.52,615.497 2866.58,619.525 C2859.22,634.865 2854.34,642.535 2851.94,642.535"/>
<path class="Note" d="M2912.83,836.499 C2915.24,836.499 2916.98,837.002 2918.06,838.01 C2919.3,839.094 2919.92,840.682 2919.92,842.774 C2919.92,845.408 2918.76,847.655 2916.44,849.514 C2906.36,856.642 2896.02,865.707 2885.41,876.708 C2887.81,887.322 2890.75,895.185 2894.24,900.299 C2898.81,907.039 2901.95,910.409 2903.65,910.409 C2905.2,910.409 2906.87,909.441 2908.65,907.504 C2909.89,906.187 2911.09,905.528 2912.25,905.528 C2914.73,905.528 2915.97,906.845 2915.97,909.479 C2915.97,912.268 2913.76,916.065 2909.35,920.868 C2906.95,923.347 2904.43,924.587 2901.79,924.587 C2896.37,924.587 2890.91,919.512 2885.41,909.363 C2879.83,899.137 2876,889.491 2873.9,880.427 C2870.03,892.358 2868.09,899.679 2868.09,902.39 C2868.09,907.736 2865.03,910.409 2858.91,910.409 C2855.58,910.409 2853.92,907.31 2853.92,901.112 C2853.92,898.168 2857.6,884.998 2864.96,861.6 C2868.6,850.134 2871.58,842.116 2873.9,837.545 C2874.45,836.615 2875.84,836.15 2878.09,836.15 C2880.72,836.15 2882.54,836.693 2883.55,837.777 C2884.56,838.862 2885.06,841.109 2885.06,844.517 C2885.06,846.222 2883.39,852.11 2880.06,862.181 C2888.35,854.047 2897.69,846.106 2908.07,838.358 C2909.7,837.119 2911.28,836.499 2912.83,836.499"/>
<path class="Note" d="M2851.94,821.118 C2847.76,821.118 2845.66,819.22 2845.66,815.423 C2845.66,808.993 2846.63,804.267 2848.57,801.246 C2856.63,789.315 2874.14,767.002 2901.1,734.308 C2913.26,719.511 2928.95,712.112 2948.16,712.112 C2955.6,712.112 2960.75,713.158 2963.62,715.249 C2968.03,718.503 2970.24,722.416 2970.24,726.987 C2970.24,731.79 2966.37,737.136 2958.62,743.024 C2951.26,748.602 2944.29,751.391 2937.7,751.391 C2935.15,751.391 2933.87,751.12 2933.87,750.578 C2933.87,749.803 2935.11,748.989 2937.59,748.137 C2940.92,746.898 2944.48,744.38 2948.28,740.583 C2952.62,736.167 2954.79,732.178 2954.79,728.614 C2954.79,726.212 2953.12,723.927 2949.79,721.757 C2946.85,719.898 2942.08,718.968 2935.5,718.968 C2925.89,718.968 2913.76,728.652 2899.12,748.021 C2889.36,760.959 2881.46,772.348 2875.41,782.187 C2878.36,780.56 2881.88,778.584 2885.99,776.26 C2891.03,773.394 2895.36,771.96 2899,771.96 C2908.07,771.96 2912.6,775.214 2912.6,781.722 C2912.6,788.152 2908.88,795.203 2901.45,802.873 C2896.18,808.296 2893.54,812.324 2893.54,814.958 C2893.54,817.67 2896.18,819.026 2901.45,819.026 C2904.08,819.026 2906.79,818.096 2909.58,816.237 C2912.37,814.455 2914.42,813.564 2915.74,813.564 C2916.82,813.564 2917.37,814.261 2917.37,815.656 C2917.37,817.902 2915.2,820.265 2910.86,822.745 C2903.58,826.928 2897.73,829.02 2893.31,829.02 C2885.49,829.02 2881.57,824.836 2881.57,816.469 C2881.57,811.201 2884.59,805.352 2890.64,798.921 C2895.05,794.195 2897.26,789.508 2897.26,784.86 C2897.26,780.831 2895.09,778.817 2890.75,778.817 C2889.05,778.817 2883.39,780.831 2873.79,784.86 C2870.92,789.663 2868.52,794.079 2866.58,798.108 C2859.22,813.448 2854.34,821.118 2851.94,821.118"/>
<path class="Note" d="M2881.22,666.167 C2885.02,666.167 2886.92,669.072 2886.92,674.883 C2886.92,679.067 2884.94,683.87 2880.99,689.293 C2877.51,694.174 2875.76,701.728 2875.76,711.954 C2875.76,716.835 2877.04,720.089 2879.6,721.716 C2881.38,722.956 2884.71,723.614 2889.59,723.692 C2894.86,723.692 2902.34,721.019 2912.02,715.673 L2913.88,717.532 C2911.4,720.709 2908.42,723.575 2904.93,726.132 C2899.74,729.928 2894.43,731.826 2889.01,731.826 C2881.19,731.826 2875.26,730.703 2871.23,728.456 C2866.19,725.667 2863.68,722.181 2863.68,717.997 C2863.68,706.454 2865.15,694.406 2868.09,681.856 C2869.18,677.285 2871.54,673.101 2875.18,669.305 C2877.27,667.213 2879.29,666.167 2881.22,666.167"/>
<path class="Note" d="M3369.24,910.409 C3365.06,910.409 3362.97,908.511 3362.97,904.715 C3362.97,898.284 3363.93,893.558 3365.87,890.537 C3373.93,878.606 3391.44,856.293 3418.4,823.599 C3430.56,808.802 3446.25,801.403 3465.46,801.403 C3472.9,801.403 3478.05,802.449 3480.92,804.541 C3485.34,807.795 3487.54,811.707 3487.54,816.278 C3487.54,821.082 3483.67,826.427 3475.92,832.315 C3468.56,837.893 3461.59,840.682 3455,840.682 C3452.45,840.682 3451.17,840.411 3451.17,839.869 C3451.17,839.094 3452.41,838.281 3454.89,837.429 C3458.22,836.189 3461.78,833.671 3465.58,829.875 C3469.92,825.459 3472.09,821.469 3472.09,817.905 C3472.09,815.503 3470.42,813.218 3467.09,811.049 C3464.15,809.189 3459.38,808.26 3452.8,808.26 C3443.19,808.26 3431.06,817.944 3416.42,837.312 C3406.66,850.25 3398.76,861.639 3392.72,871.478 C3395.66,869.851 3399.18,867.876 3403.29,865.552 C3408.33,862.685 3412.66,861.252 3416.31,861.252 C3425.37,861.252 3429.9,864.506 3429.9,871.013 C3429.9,877.444 3426.18,884.494 3418.75,892.164 C3413.48,897.587 3410.84,901.616 3410.84,904.25 C3410.84,906.961 3413.48,908.317 3418.75,908.317 C3421.38,908.317 3424.09,907.388 3426.88,905.528 C3429.67,903.746 3431.72,902.855 3433.04,902.855 C3434.13,902.855 3434.67,903.553 3434.67,904.947 C3434.67,907.194 3432.5,909.557 3428.16,912.036 C3420.88,916.22 3415.03,918.311 3410.61,918.311 C3402.79,918.311 3398.87,914.128 3398.87,905.761 C3398.87,900.492 3401.9,894.643 3407.94,888.213 C3412.35,883.487 3414.56,878.8 3414.56,874.151 C3414.56,870.123 3412.39,868.108 3408.06,868.108 C3406.35,868.108 3400.7,870.123 3391.09,874.151 C3388.22,878.955 3385.82,883.371 3383.88,887.399 C3376.52,902.739 3371.64,910.409 3369.24,910.409"/>
<path class="Note" d="M3398.53,576.876 C3402.32,576.876 3404.22,579.781 3404.22,585.592 C3404.22,589.775 3402.24,594.579 3398.29,600.002 C3394.81,604.883 3393.06,612.436 3393.06,622.663 C3393.06,627.544 3394.34,630.798 3396.9,632.425 C3398.68,633.664 3402.01,634.323 3406.89,634.4 C3412.16,634.4 3419.64,631.727 3429.32,626.382 L3431.18,628.241 C3428.7,631.417 3425.72,634.284 3422.23,636.841 C3417.04,640.637 3411.74,642.535 3406.31,642.535 C3398.49,642.535 3392.56,641.412 3388.53,639.165 C3383.5,636.376 3380.98,632.889 3380.98,628.706 C3380.98,617.162 3382.45,605.115 3385.39,592.564 C3386.48,587.993 3388.84,583.81 3392.48,580.013 C3394.57,577.922 3396.59,576.876 3398.53,576.876"/>
<path class="Note" d="M3369.24,821.118 C3365.06,821.118 3362.97,819.22 3362.97,815.423 C3362.97,808.993 3363.93,804.267 3365.87,801.246 C3373.93,789.315 3391.44,767.002 3418.4,734.308 C3430.56,719.511 3446.25,712.112 3465.46,712.112 C3472.9,712.112 3478.05,713.158 3480.92,715.249 C3485.34,718.503 3487.54,722.416 3487.54,726.987 C3487.54,731.79 3483.67,737.136 3475.92,743.024 C3468.56,748.602 3461.59,751.391 3455,751.391 C3452.45,751.391 3451.17,751.12 3451.17,750.578 C3451.17,749.803 3452.41,748.989 3454.89,748.137 C3458.22,746.898 3461.78,744.38 3465.58,740.583 C3469.92,736.167 3472.09,732.178 3472.09,728.614 C3472.09,726.212 3470.42,723.927 3467.09,721.757 C3464.15,719.898 3459.38,718.968 3452.8,718.968 C3443.19,718.968 3431.06,728.652 3416.42,748.021 C3406.66,760.959 3398.76,772.348 3392.72,782.187 C3395.66,780.56 3399.18,778.584 3403.29,776.26 C3408.33,773.394 3412.66,771.96 3416.31,771.96 C3425.37,771.96 3429.9,775.214 3429.9,781.722 C3429.9,788.152 3426.18,795.203 3418.75,802.873 C3413.48,808.296 3410.84,812.324 3410.84,814.958 C3410.84,817.67 3413.48,819.026 3418.75,819.026 C3421.38,819.026 3424.09,818.096 3426.88,816.237 C3429.67,814.455 3431.72,813.564 3433.04,813.564 C3434.13,813.564 3434.67,814.261 3434.67,815.656 C3434.67,817.902 3432.5,820.265 3428.16,822.745 C3420.88,826.928 3415.03,829.02 3410.61,829.02 C3402.79,829.02 3398.87,824.836 3398.87,816.469 C3398.87,811.201 3401.9,805.352 3407.94,798.921 C3412.35,794.195 3414.56,789.508 3414.56,784.86 C3414.56,780.831 3412.39,778.817 3408.06,778.817 C3406.35,778.817 3400.7,780.831 3391.09,784.86 C3388.22,789.663 3385.82,794.079 3383.88,798.108 C3376.52,813.448 3371.64,821.118 3369.24,821.118"/>
<path class="Note" d="M3369.24,731.826 C3365.06,731.826 3362.97,729.928 3362.97,726.132 C3362.97,719.702 3363.93,714.976 3365.87,711.954 C3373.93,700.023 3391.44,677.711 3418.4,645.017 C3430.56,630.219 3446.25,622.82 3465.46,622.82 C3472.9,622.82 3478.05,623.866 3480.92,625.958 C3485.34,629.212 3487.54,633.124 3487.54,637.695 C3487.54,642.499 3483.67,647.845 3475.92,653.733 C3468.56,659.311 3461.59,662.1 3455,662.1 C3452.45,662.1 3451.17,661.829 3451.17,661.286 C3451.17,660.512 3452.41,659.698 3454.89,658.846 C3458.22,657.606 3461.78,655.088 3465.58,651.292 C3469.92,646.876 3472.09,642.886 3472.09,639.322 C3472.09,636.921 3470.42,634.635 3467.09,632.466 C3464.15,630.607 3459.38,629.677 3452.8,629.677 C3443.19,629.677 3431.06,639.361 3416.42,658.73 C3406.66,671.668 3398.76,683.056 3392.72,692.896 C3395.66,691.269 3399.18,689.293 3403.29,686.969 C3408.33,684.102 3412.66,682.669 3416.31,682.669 C3425.37,682.669 3429.9,685.923 3429.9,692.431 C3429.9,698.861 3426.18,705.911 3418.75,713.581 C3413.48,719.004 3410.84,723.033 3410.84,725.667 C3410.84,728.379 3413.48,729.735 3418.75,729.735 C3421.38,729.735 3424.09,728.805 3426.88,726.945 C3429.67,725.164 3431.72,724.273 3433.04,724.273 C3434.13,724.273 3434.67,724.97 3434.67,726.364 C3434.67,728.611 3432.5,730.974 3428.16,733.453 C3420.88,737.637 3415.03,739.729 3410.61,739.729 C3402.79,739.729 3398.87,735.545 3398.87,727.178 C3398.87,721.91 3401.9,716.06 3407.94,709.63 C3412.35,704.904 3414.56,700.217 3414.56,695.568 C3414.56,691.54 3412.39,689.526 3408.06,689.526 C3406.35,689.526 3400.7,691.54 3391.09,695.568 C3388.22,700.372 3385.82,704.788 3383.88,708.817 C3376.52,724.156 3371.64,731.826 3369.24,731.826"/>
<path class="Note" d="M3814.17,893.832 C3816.65,893.832 3818.35,894.452 3819.28,895.692 C3820.68,897.783 3821.37,900.727 3821.37,904.524 C3821.37,908.94 3818.27,919.515 3812.08,936.249 C3801.93,964.682 3796.85,979.751 3796.85,981.455 C3796.85,986.026 3798.67,988.35 3802.31,988.428 C3803.86,988.428 3807.81,986.026 3814.17,981.223 C3820.44,976.652 3825.28,974.366 3828.69,974.366 C3830.09,974.366 3830.79,975.219 3830.79,976.923 C3830.79,979.79 3826.95,983.547 3819.28,988.195 C3806.73,995.865 3798.05,999.7 3793.25,999.7 C3785.58,999.7 3781.74,996.679 3781.74,990.636 C3781.74,990.481 3787.05,972.701 3797.67,937.295 C3804.1,915.99 3808.01,902.122 3809.4,895.692 C3809.64,894.452 3811.22,893.832 3814.17,893.832"/>
<path class="Note" d="M3779.65,642.535 C3775.47,642.535 3773.38,640.637 3773.38,636.841 C3773.38,630.41 3774.35,625.684 3776.28,622.663 C3784.34,610.732 3801.85,588.419 3828.81,555.725 C3840.97,540.928 3856.66,533.529 3875.88,533.529 C3883.31,533.529 3888.46,534.575 3891.33,536.667 C3895.75,539.921 3897.96,543.833 3897.96,548.404 C3897.96,553.207 3894.08,558.553 3886.33,564.441 C3878.97,570.019 3872,572.808 3865.42,572.808 C3862.86,572.808 3861.58,572.537 3861.58,571.995 C3861.58,571.22 3862.82,570.407 3865.3,569.555 C3868.63,568.315 3872.2,565.797 3875.99,562.001 C3880.33,557.585 3882.5,553.595 3882.5,550.031 C3882.5,547.629 3880.83,545.344 3877.5,543.175 C3874.56,541.315 3869.79,540.386 3863.21,540.386 C3853.6,540.386 3841.48,550.07 3826.83,569.438 C3817.07,582.376 3809.17,593.765 3803.13,603.604 C3806.07,601.977 3809.6,600.002 3813.7,597.678 C3818.74,594.811 3823.08,593.378 3826.72,593.378 C3835.78,593.378 3840.31,596.632 3840.31,603.139 C3840.31,609.57 3836.6,616.62 3829.16,624.29 C3823.89,629.713 3821.26,633.742 3821.26,636.376 C3821.26,639.087 3823.89,640.443 3829.16,640.443 C3831.79,640.443 3834.5,639.513 3837.29,637.654 C3840.08,635.872 3842.14,634.981 3843.45,634.981 C3844.54,634.981 3845.08,635.679 3845.08,637.073 C3845.08,639.32 3842.91,641.683 3838.57,644.162 C3831.29,648.346 3825.44,650.437 3821.02,650.437 C3813.2,650.437 3809.29,646.254 3809.29,637.887 C3809.29,632.618 3812.31,626.769 3818.35,620.339 C3822.77,615.613 3824.97,610.926 3824.97,606.277 C3824.97,602.249 3822.81,600.234 3818.47,600.234 C3816.76,600.234 3811.11,602.249 3801.5,606.277 C3798.63,611.081 3796.23,615.497 3794.3,619.525 C3786.94,634.865 3782.05,642.535 3779.65,642.535"/>
<path class="Note" d="M3779.65,821.118 C3775.47,821.118 3773.38,819.22 3773.38,815.423 C3773.38,808.993 3774.35,804.267 3776.28,801.246 C3784.34,789.315 3801.85,767.002 3828.81,734.308 C3840.97,719.511 3856.66,712.112 3875.88,712.112 C3883.31,712.112 3888.46,713.158 3891.33,715.249 C3895.75,718.503 3897.96,722.416 3897.96,726.987 C3897.96,731.79 3894.08,737.136 3886.33,743.024 C3878.97,748.602 3872,751.391 3865.42,751.391 C3862.86,751.391 3861.58,751.12 3861.58,750.578 C3861.58,749.803 3862.82,748.989 3865.3,748.137 C3868.63,746.898 3872.2,744.38 3875.99,740.583 C3880.33,736.167 3882.5,732.178 3882.5,728.614 C3882.5,726.212 3880.83,723.927 3877.5,721.757 C3874.56,719.898 3869.79,718.968 3863.21,718.968 C3853.6,718.968 3841.48,728.652 3826.83,748.021 C3817.07,760.959 3809.17,772.348 3803.13,782.187 C3806.07,780.56 3809.6,778.584 3813.7,776.26 C3818.74,773.394 3823.08,771.96 3826.72,771.96 C3835.78,771.96 3840.31,775.214 3840.31,781.722 C3840.31,788.152 3836.6,795.203 3829.16,802.873 C3823.89,808.296 3821.26,812.324 3821.26,814.958 C3821.26,817.67 3823.89,819.026 3829.16,819.026 C3831.79,819.026 3834.5,818.096 3837.29,816.237 C3840.08,814.455 3842.14,813.564 3843.45,813.564 C3844.54,813.564 3845.08,814.261 3845.08,815.656 C3845.08,817.902 3842.91,820.265 3838.57,822.745 C3831.29,826.928 3825.44,829.02 3821.02,829.02 C3813.2,829.02 3809.29,824.836 3809.29,816.469 C3809.29,811.201 3812.31,805.352 3818.35,798.921 C3822.77,794.195 3824.97,789.508 3824.97,784.86 C3824.97,780.831 3822.81,778.817 3818.47,778.817 C3816.76,778.817 3811.11,780.831 3801.5,784.86 C3798.63,789.663 3796.23,794.079 3794.3,798.108 C3786.94,813.448 3782.05,821.118 3779.65,821.118"/>
<path class="Note" d="M3808.94,666.167 C3812.73,666.167 3814.63,669.072 3814.63,674.883 C3814.63,679.067 3812.66,683.87 3808.71,689.293 C3805.22,694.174 3803.48,701.728 3803.48,711.954 C3803.48,716.835 3804.75,720.089 3807.31,721.716 C3809.09,722.956 3812.42,723.614 3817.3,723.692 C3822.57,723.692 3830.05,721.019 3839.73,715.673 L3841.59,717.532 C3839.11,720.709 3836.13,723.575 3832.64,726.132 C3827.45,729.928 3822.15,731.826 3816.72,731.826 C3808.9,731.826 3802.97,730.703 3798.94,728.456 C3793.91,725.667 3791.39,722.181 3791.39,717.997 C3791.39,706.454 3792.86,694.406 3795.81,681.856 C3796.89,677.285 3799.25,673.101 3802.89,669.305 C3804.99,667.213 3807,666.167 3808.94,666.167"/>
<path class="Clef" transform="matrix(2.3811,0,0,2.3811,212.156,2076.38)" d="M25.4,-25.1 C17.8,-25.1 11.7,-20.7 11.6,-20.7 C5.8,-16.4 3.5,-11.3 2.6,-7.8 C2.1,-6 1.9,-4.2 1.9,-2.5 C1.9,-0.1 2.3,2.1 3.2,4 C4.4,6.7 6.7,8.6 9.7,9.6 C10.9,10 12.2,10.2 13.5,10.2 C15.7,10.2 18,9.6 19.9,8.5 C23,6.8 24.9,3.2 24.9,-0.7 C24.9,-4.2 23.1,-7.4 20.1,-9.3 C18,-10.7 16,-11.1 14.3,-11.1 C13.1,-11.1 12,-10.9 11.1,-10.6 C10.1,-10.2 8.4,-9.2 7.6,-8.5 C7.9,-10.4 9.1,-13.3 10.2,-14.9 C11.3,-16.5 13.5,-18.5 15.2,-19.4 C17.7,-20.8 20.9,-21.4 24.4,-21.4 C34.6,-21.4 39.6,-13.2 39.6,3.6 C39.6,12.9 36.1,21.8 33.1,27.7 C29.8,34.3 25.4,40.6 21.5,44.1 C11.1,53.6 1.3,58.1 1.2,58.1 C1.2,58.1 -0.3,59 0.1,60.5 C0.4,61.5 1.3,61.7 1.9,61.7 C2,61.7 2.3,61.6 2.4,61.6 C2.5,61.6 13.9,56.9 23,49.8 C28.1,46.1 32.7,42.1 36.7,37.8 C40.3,33.9 43.4,29.7 45.9,25.5 C50.3,18 52.8,10.2 52.8,3.5 C52.8,-4.8 50.6,-11.7 46.5,-16.6 C41.8,-22.2 34.7,-25.1 25.4,-25.1 M56.8,-12.4 C56.8,-9.6 59,-7.4 61.6,-7.4 C64.2,-7.4 66.4,-9.6 66.4,-12.4 C66.4,-15.2 64.2,-17.5 61.6,-17.5 C59,-17.5 56.8,-15.2 56.8,-12.4 M56.8,12.3 C56.8,15.1 59,17.4 61.6,17.4 C64.2,17.4 66.4,15.1 66.4,12.3 C66.4,9.5 64.2,7.2 61.6,7.2 C59,7.2 56.8,9.5 56.8,12.3"/>
<path class="Clef" transform="matrix(2.3811,0,0,2.3811,212.156,1570.39)" d="M63.37,-5.89004 C62.14,-11.32 59.5,-15.14 58.72,-16.1801 C55.5301,-20.45 51.52,-23.3 46.8301,-24.65 C43.72,-25.54 40.72,-25.65 38.3,-25.47 C37.2601,-31.4801 36.2601,-37.3601 35.35,-42.8101 C40.79,-48.97 44.42,-54.77 46.69,-59.07 C50.1601,-65.65 51.3101,-70.2301 51.3601,-70.4301 C53.0801,-75.64 53.44,-83.34 52.34,-91.55 C51.3301,-99.1 49.24,-105.81 46.89,-109.06 C45.8601,-110.49 44.8101,-111.22 43.77,-111.22 C42.55,-111.22 40.04,-109.98 37.15,-107.21 C34.85,-105.01 31.5801,-101.12 29.02,-95.1101 C26.02,-88.05 25.8101,-78.5601 26.1601,-71.84 C26.54,-64.57 27.65,-58.8801 27.6601,-58.8301 C27.6801,-58.74 27.94,-57.24 28.39,-54.67 C28.1601,-54.44 27.92,-54.22 27.67,-53.9801 C26.6301,-52.9801 25.44,-51.84 24.0601,-50.4601 C23.2,-49.6 22.25,-48.69 21.25,-47.72 C12.79,-39.57 0,-27.25 0,-8.1 C0,-3.4 0.9,1.01992 2.68008,5.02998 C4.27002,8.62998 6.57002,11.91 9.5,14.78 C17.2301,22.33 27.82,25.5399 34.8801,25.38 C37.8301,25.31 40.4601,25.0699 42.85,24.6199 C44.6801,34.2199 45.82,41.25 45.8601,46.5899 C45.9,53.1 44.25,57.0699 40.35,59.8399 C37.92,61.5699 35.1101,62.5199 32.0101,62.6699 C29.42,62.7899 27.1601,62.3199 25.7301,61.91 L25.72,61.91 C25.72,61.91 25.4301,61.83 25.42,61.63 C25.4101,61.45 25.7601,61.4 25.77,61.4 L25.79,61.4 C27.7101,60.96 31.2801,59.73 33.64,56.43 C35.44,53.91 36.3101,49.2899 34.47,45.35 C33.3601,42.96 30.85,40.01 25.2301,39.56 C22.74,39.36 20.47,39.8699 18.47,41.0699 C16.6601,42.15 15.1601,43.7899 14.1101,45.7899 C11.65,50.4899 12.1101,56.2199 15.24,60.06 C18.2,63.68 22.82,65.9899 28.25,66.5699 C29.1,66.66 29.95,66.7 30.8,66.7 C31.5101,66.7 32.22,66.6699 32.92,66.61 C31.72,66.9399 30.64,67.4899 29.77,68.25 C28.2801,69.5399 27.44,71.38 27.44,73.41 C27.44,75.28 28.0601,76.65 29.55,78.0399 C28.4101,78.5 27.55,78.98 26.79,79.56 C25.25,80.73 24.34,82.46 24.34,84.1899 C24.34,87.45 27.3,89.63 31.72,89.63 C37.1301,89.63 40.9101,86.63 40.9101,82.35 C40.9101,80.1199 39.9101,78.18 38.0801,76.83 C41.0101,75.6199 42.37,73.9399 42.37,71.56 C42.39,70.05 41.69,68.61 40.49,67.6899 C39.2801,66.7399 37.62,66.2399 35.69,66.2399 L35.5101,66.2399 C38.2801,65.7 40.92,64.7 43.2101,63.28 C46.87,60.71 48.99,56.73 49.67,51.1 C50.2301,46.46 49.84,40.55 48.44,32.48 C48.0801,30.3899 47.54,27.36 46.8801,23.6 C52.6301,21.68 56.79,18.11 60.5601,12.26 C63.85,6.51992 64.8,0.419922 63.37,-5.89004 M32.39,87.5399 C30.19,87.5399 28.7301,86.1199 28.7301,84.01 C28.7301,82.11 29.65,80.5 31.32,79.4699 C31.6801,79.66 31.77,79.71 32.1101,79.88 C33.3,80.48 33.3,80.48 33.55,80.63 L33.5601,80.6399 C35.47,81.73 36.25,82.76 36.25,84.18 C36.24,86.0899 34.59,87.5399 32.39,87.5399 M38.3101,71.63 C38.3101,73.2699 37.7301,74.3399 36.1801,75.53 C34.74,74.78 34.35,74.56 33.9801,74.3399 L33.8801,74.28 C32.3301,73.3399 31.85,72.66 31.85,71.4 C31.85,69.6 33.2301,68.3399 35.19,68.3399 C37.17,68.35 38.3101,69.55 38.3101,71.63 M33.15,-83.8101 C34.9301,-89.55 37.67,-92.8 39.6601,-94.5301 C41.4101,-96.05 43.0601,-96.7601 43.9801,-96.7601 C44.12,-96.7601 44.24,-96.74 44.34,-96.7101 C44.8,-96.57 45.3301,-96 45.8,-95.1301 C48.1101,-90.84 47.37,-84.1301 46.0301,-79.69 C44.4,-74.29 41.4801,-68.6801 32.69,-59.0601 C32.52,-60.17 32.3601,-61.22 32.2101,-62.2 C30.95,-70.49 31.27,-77.7601 33.15,-83.8101 M29.15,20.31 C24.5101,19.0899 20.0801,16.5899 16.32,13.0899 C15.0101,11.86 13.14,9.68994 11.67,6.3 C10.3101,3.13994 9.65,-0.290039 9.7,-3.88008 C9.77002,-8.57002 11.0801,-13.39 13.59,-18.1801 C16.5101,-23.7601 21.07,-29.29 27.1301,-34.62 C28.5801,-35.9 29.95,-37.1801 31.24,-38.4601 C32,-34.2 32.8301,-29.5101 33.7101,-24.6301 C29.8601,-23.3601 25.1101,-20.2101 22,-14.5601 C18.47,-7.99004 18.6101,-2.47002 19.34,1.00996 C20.2801,5.46992 22.8101,9.22998 26.27,11.3199 C27.2,11.88 31.3301,14.01 33.17,13.43 C33.54,13.31 33.8101,13.0899 33.95,12.76 C34.4601,11.5899 33.44,10.95 31.8801,9.98994 C31.2801,9.61992 30.6101,9.2 29.8801,8.66992 C26.5601,6.17998 25.1101,1.72998 26.1801,-2.65 C26.7601,-5.05 28.04,-7.21006 29.8801,-8.91006 C31.55,-10.4601 33.59,-11.5601 35.97,-12.2 C38.0101,-0.960059 40.07,10.1899 41.7101,18.55 C41.84,19.2399 41.9801,19.91 42.1101,20.58 C37.7101,21.51 33.37,21.4199 29.15,20.31 M54.9,10.1 C53.7301,13.28 51.27,17.35 46.14,19.41 C46.07,18.9899 45.99,18.56 45.9101,18.13 C44.3601,9.36992 42.4301,-1.61006 40.47,-12.87 C50.82,-13.35 55.09,-5.91006 55.9801,-1.08008 C56.45,1.45 56.45,5.88994 54.9,10.1"/>
<path class="KeySig" transform="matrix(2.3811,0,0,2.3811,429.785,2076.38)" d="M23.3,-10.6 C23.9,-10.7 24.4,-11.4 24.4,-12 L24.4,-17.9 C24.4,-18.7 23.8,-19.3 23,-19.3 L22.8,-19.3 L19.5,-18.6 L19.5,-33.5 L16.7,-33.5 L16.7,-18 L7.8,-16.2 L7.8,-30.3 L5,-30.3 L5,-15.6 L1.1,-14.8 C0.5,-14.7 0,-14 0,-13.4 L0,-13.2 L0,-7.4 L0,-7.6 C0,-6.8 0.6,-6.2 1.4,-6.2 L1.7,-6.2 L5,-6.9 L5,9.6 L1.1,10.4 C0.5,10.5 0,11.2 0,11.8 L0,17.6 C0,18.4 0.6,19 1.4,19 L1.7,19 L5,18.3 L5,33.2 L7.8,33.2 L7.8,17.7 L16.7,15.9 L16.7,30 L19.5,30 L19.5,15.3 L23.3,14.6 C23.9,14.5 24.4,13.8 24.4,13.2 L24.4,7.3 C24.4,6.5 23.8,5.9 23,5.9 L22.8,5.9 L19.5,6.6 L19.5,-9.9 L23.3,-10.6 M7.8,9.1 L7.8,-7.5 L16.7,-9.3 L16.7,7.2 L7.8,9.1 "/>
<path class="KeySig" transform="matrix(2.3811,0,0,2.3811,429.785,1391.81)" d="M23.3,-10.6 C23.9,-10.7 24.4,-11.4 24.4,-12 L24.4,-17.9 C24.4,-18.7 23.8,-19.3 23,-19.3 L22.8,-19.3 L19.5,-18.6 L19.5,-33.5 L16.7,-33.5 L16.7,-18 L7.8,-16.2 L7.8,-30.3 L5,-30.3 L5,-15.6 L1.1,-14.8 C0.5,-14.7 0,-14 0,-13.4 L0,-13.2 L0,-7.4 L0,-7.6 C0,-6.8 0.6,-6.2 1.4,-6.2 L1.7,-6.2 L5,-6.9 L5,9.6 L1.1,10.4 C0.5,10.5 0,11.2 0,11.8 L0,17.6 C0,18.4 0.6,19 1.4,19 L1.7,19 L5,18.3 L5,33.2 L7.8,33.2 L7.8,17.7 L16.7,15.9 L16.7,30 L19.5,30 L19.5,15.3 L23.3,14.6 C23.9,14.5 24.4,13.8 24.4,13.2 L24.4,7.3 C24.4,6.5 23.8,5.9 23,5.9 L22.8,5.9 L19.5,6.6 L19.5,-9.9 L23.3,-10.6 M7.8,9.1 L7.8,-7.5 L16.7,-9.3 L16.7,7.2 L7.8,9.1 "/>
<path class="FiguredBass" d="M1109.41,2390.15 C1104.84,2390.15 1101.79,2391.99 1100.28,2395.67 C1098.76,2399.35 1098,2404.56 1098,2411.3 L1098,2422.25 C1101.22,2420.95 1104,2420.27 1106.35,2420.21 C1114.39,2420.21 1120.72,2421.98 1125.32,2425.54 C1129.93,2429.1 1132.24,2434.38 1132.24,2441.4 C1132.24,2448.42 1129.9,2453.73 1125.23,2457.31 C1120.56,2460.9 1114.27,2462.7 1106.35,2462.7 C1098.25,2462.7 1091.91,2458.94 1087.33,2451.42 C1082.76,2443.91 1080.47,2434.99 1080.47,2424.66 C1080.47,2414.39 1083.13,2405.49 1088.45,2397.94 C1093.77,2390.39 1100.76,2386.62 1109.41,2386.62 C1115.1,2386.62 1120.02,2388.06 1124.17,2390.94 C1128.31,2393.81 1130.38,2397.6 1130.38,2402.3 C1130.38,2405.02 1129.39,2407.37 1127.41,2409.35 C1125.43,2411.33 1123.07,2412.32 1120.32,2412.32 C1117.56,2412.32 1115.2,2411.33 1113.22,2409.35 C1111.24,2407.37 1110.25,2405.02 1110.25,2402.3 C1110.25,2399.64 1111.24,2397.29 1113.22,2395.25 C1113.9,2394.45 1114.86,2393.76 1116.09,2393.21 C1115.78,2392.4 1115.17,2391.79 1114.24,2391.35 C1112.88,2390.55 1111.27,2390.15 1109.41,2390.15 M1113.96,2428.09 C1112.85,2425.18 1110.4,2423.73 1106.63,2423.73 C1102.86,2423.73 1100.52,2425.18 1099.63,2428.09 C1098.73,2431 1098.28,2435.42 1098.28,2441.36 C1098.28,2448.35 1098.73,2453.05 1099.63,2455.46 C1100.52,2457.87 1102.86,2459.08 1106.63,2459.08 C1110.4,2459.08 1112.85,2457.62 1113.96,2454.72 C1115.07,2451.81 1115.63,2447.37 1115.63,2441.4 C1115.63,2435.44 1115.07,2431 1113.96,2428.09"/>
<path class="FiguredBass" d="M1523.3,2444.42 C1522.62,2445.16 1521.72,2445.53 1520.61,2445.53 C1519.49,2445.53 1518.58,2445.15 1517.87,2444.37 C1517.16,2443.6 1516.8,2442.72 1516.8,2441.73 L1516.8,2428.46 L1503.54,2428.46 C1502.42,2428.46 1501.51,2428.08 1500.8,2427.3 C1500.09,2426.53 1499.73,2425.65 1499.73,2424.66 C1499.73,2423.67 1500.09,2422.79 1500.8,2422.01 C1501.51,2421.24 1502.42,2420.85 1503.54,2420.85 L1516.8,2420.85 L1516.8,2407.59 C1516.8,2406.6 1517.16,2405.72 1517.87,2404.94 C1518.58,2404.17 1519.49,2403.78 1520.61,2403.78 C1521.72,2403.78 1522.63,2404.17 1523.34,2404.94 C1524.06,2405.72 1524.41,2406.6 1524.41,2407.59 L1524.41,2420.85 L1537.68,2420.85 C1538.79,2420.85 1539.7,2421.24 1540.41,2422.01 C1541.13,2422.79 1541.48,2423.67 1541.48,2424.66 C1541.48,2425.65 1541.13,2426.53 1540.41,2427.3 C1539.7,2428.08 1538.79,2428.46 1537.68,2428.46 L1524.41,2428.46 L1524.41,2441.73 C1524.41,2442.72 1524.04,2443.62 1523.3,2444.42 M1576.72,2390.15 C1572.14,2390.15 1569.1,2391.99 1567.58,2395.67 C1566.07,2399.35 1565.31,2404.56 1565.31,2411.3 L1565.31,2422.25 C1568.53,2420.95 1571.31,2420.27 1573.66,2420.21 C1581.7,2420.21 1588.02,2421.98 1592.63,2425.54 C1597.24,2429.1 1599.54,2434.38 1599.54,2441.4 C1599.54,2448.42 1597.21,2453.73 1592.54,2457.31 C1587.87,2460.9 1581.58,2462.7 1573.66,2462.7 C1565.56,2462.7 1559.22,2458.94 1554.64,2451.42 C1550.06,2443.91 1547.78,2434.99 1547.78,2424.66 C1547.78,2414.39 1550.44,2405.49 1555.75,2397.94 C1561.07,2390.39 1568.06,2386.62 1576.72,2386.62 C1582.41,2386.62 1587.33,2388.06 1591.47,2390.94 C1595.62,2393.81 1597.69,2397.6 1597.69,2402.3 C1597.69,2405.02 1596.7,2407.37 1594.72,2409.35 C1592.74,2411.33 1590.37,2412.32 1587.62,2412.32 C1584.87,2412.32 1582.5,2411.33 1580.53,2409.35 C1578.55,2407.37 1577.56,2405.02 1577.56,2402.3 C1577.56,2399.64 1578.55,2397.29 1580.53,2395.25 C1581.21,2394.45 1582.16,2393.76 1583.4,2393.21 C1583.09,2392.4 1582.47,2391.79 1581.55,2391.35 C1580.19,2390.55 1578.58,2390.15 1576.72,2390.15 M1581.27,2428.09 C1580.15,2425.18 1577.71,2423.73 1573.94,2423.73 C1570.17,2423.73 1567.83,2425.18 1566.93,2428.09 C1566.04,2431 1565.59,2435.42 1565.59,2441.36 C1565.59,2448.35 1566.04,2453.05 1566.93,2455.46 C1567.83,2457.87 1570.17,2459.08 1573.94,2459.08 C1577.71,2459.08 1580.15,2457.62 1581.27,2454.72 C1582.38,2451.81 1582.94,2447.37 1582.94,2441.4 C1582.94,2435.44 1582.38,2431 1581.27,2428.09"/>
<path class="FiguredBass" d="M2404.72,2444.42 C2404.03,2445.16 2403.14,2445.53 2402.02,2445.53 C2400.91,2445.53 2400,2445.15 2399.29,2444.37 C2398.58,2443.6 2398.22,2442.72 2398.22,2441.73 L2398.22,2428.46 L2384.95,2428.46 C2383.84,2428.46 2382.93,2428.08 2382.22,2427.3 C2381.51,2426.53 2381.15,2425.65 2381.15,2424.66 C2381.15,2423.67 2381.51,2422.79 2382.22,2422.01 C2382.93,2421.24 2383.84,2420.85 2384.95,2420.85 L2398.22,2420.85 L2398.22,2407.59 C2398.22,2406.6 2398.58,2405.72 2399.29,2404.94 C2400,2404.17 2400.91,2403.78 2402.02,2403.78 C2403.14,2403.78 2404.05,2404.17 2404.76,2404.94 C2405.47,2405.72 2405.83,2406.6 2405.83,2407.59 L2405.83,2420.85 L2419.1,2420.85 C2420.21,2420.85 2421.12,2421.24 2421.83,2422.01 C2422.54,2422.79 2422.9,2423.67 2422.9,2424.66 C2422.9,2425.65 2422.54,2426.53 2421.83,2427.3 C2421.12,2428.08 2420.21,2428.46 2419.1,2428.46 L2405.83,2428.46 L2405.83,2441.73 C2405.83,2442.72 2405.46,2443.62 2404.72,2444.42 M2457.49,2388.57 C2459.84,2388.57 2462.31,2388.23 2464.91,2387.55 L2469.09,2386.44 C2469.89,2386.44 2470.52,2386.74 2470.99,2387.36 C2471.45,2387.98 2471.41,2388.54 2470.85,2389.03 L2427.71,2439.22 L2453.04,2439.22 L2453.04,2419.37 C2453.04,2417.95 2453.42,2416.85 2454.2,2416.08 C2454.97,2415.3 2455.96,2414.69 2457.16,2414.22 C2458.37,2413.76 2459.95,2412.38 2461.9,2410.09 C2463.84,2407.8 2465.72,2404.71 2467.51,2400.82 C2467.82,2400.2 2468.28,2399.89 2468.9,2399.89 C2470.2,2399.89 2470.85,2400.6 2470.85,2402.02 L2470.85,2439.22 L2481.8,2439.22 C2483.34,2439.22 2484.12,2439.94 2484.12,2441.36 C2484.12,2442.9 2483.34,2443.68 2481.8,2443.68 L2470.85,2443.68 L2470.85,2444.88 C2470.85,2448.72 2471.87,2452.06 2473.91,2454.9 C2475.95,2457.75 2478.58,2459.17 2481.8,2459.17 C2483.03,2459.17 2483.65,2459.73 2483.65,2460.84 C2483.65,2462.08 2483.03,2462.7 2481.8,2462.7 C2479.57,2462.7 2476.26,2462.37 2471.87,2461.72 C2467.48,2461.07 2464.15,2460.75 2461.9,2460.75 C2459.64,2460.75 2456.31,2461.07 2451.92,2461.72 C2447.53,2462.37 2444.22,2462.7 2442,2462.7 C2440.76,2462.7 2440.14,2462.08 2440.14,2460.84 C2440.14,2459.73 2440.76,2459.17 2442,2459.17 C2445.21,2459.17 2447.86,2457.75 2449.93,2454.9 C2452,2452.06 2453.04,2448.72 2453.04,2444.88 L2453.04,2443.68 L2427.71,2443.68 C2426.1,2443.68 2424.91,2443.29 2424.14,2442.52 C2423.36,2441.74 2422.98,2440.96 2422.98,2440.15 C2422.98,2439.84 2423.7,2438.78 2425.16,2436.95 C2426.61,2435.13 2428.39,2432.7 2430.49,2429.67 C2432.6,2426.64 2434.68,2423.19 2436.75,2419.32 C2438.83,2415.46 2440.59,2410.82 2442.04,2405.41 C2443.5,2400 2444.22,2394.54 2444.22,2389.03 C2444.22,2387.43 2444.9,2386.62 2446.26,2386.62 C2446.45,2386.62 2447.1,2386.78 2448.21,2387.09 C2449.33,2387.39 2450.75,2387.72 2452.48,2388.06 C2454.21,2388.4 2455.88,2388.57 2457.49,2388.57"/>
<path class="FiguredBass" d="M2878.07,2390.15 C2873.49,2390.15 2870.44,2391.99 2868.93,2395.67 C2867.41,2399.35 2866.65,2404.56 2866.65,2411.3 L2866.65,2422.25 C2869.87,2420.95 2872.65,2420.27 2875,2420.21 C2883.04,2420.21 2889.37,2421.98 2893.98,2425.54 C2898.58,2429.1 2900.89,2434.38 2900.89,2441.4 C2900.89,2448.42 2898.55,2453.73 2893.88,2457.31 C2889.21,2460.9 2882.92,2462.7 2875,2462.7 C2866.9,2462.7 2860.56,2458.94 2855.99,2451.42 C2851.41,2443.91 2849.12,2434.99 2849.12,2424.66 C2849.12,2414.39 2851.78,2405.49 2857.1,2397.94 C2862.42,2390.39 2869.41,2386.62 2878.07,2386.62 C2883.76,2386.62 2888.67,2388.06 2892.82,2390.94 C2896.96,2393.81 2899.03,2397.6 2899.03,2402.3 C2899.03,2405.02 2898.04,2407.37 2896.06,2409.35 C2894.08,2411.33 2891.72,2412.32 2888.97,2412.32 C2886.21,2412.32 2883.85,2411.33 2881.87,2409.35 C2879.89,2407.37 2878.9,2405.02 2878.9,2402.3 C2878.9,2399.64 2879.89,2397.29 2881.87,2395.25 C2882.55,2394.45 2883.51,2393.76 2884.75,2393.21 C2884.44,2392.4 2883.82,2391.79 2882.89,2391.35 C2881.53,2390.55 2879.92,2390.15 2878.07,2390.15 M2882.61,2428.09 C2881.5,2425.18 2879.06,2423.73 2875.28,2423.73 C2871.51,2423.73 2869.18,2425.18 2868.28,2428.09 C2867.38,2431 2866.93,2435.42 2866.93,2441.36 C2866.93,2448.35 2867.38,2453.05 2868.28,2455.46 C2869.18,2457.87 2871.51,2459.08 2875.28,2459.08 C2879.06,2459.08 2881.5,2457.62 2882.61,2454.72 C2883.73,2451.81 2884.28,2447.37 2884.28,2441.4 C2884.28,2435.44 2883.73,2431 2882.61,2428.09"/>
<path class="FiguredBass" d="M3341.94,2444.42 C3341.26,2445.16 3340.37,2445.53 3339.25,2445.53 C3338.14,2445.53 3337.23,2445.15 3336.52,2444.37 C3335.8,2443.6 3335.45,2442.72 3335.45,2441.73 L3335.45,2428.46 L3322.18,2428.46 C3321.07,2428.46 3320.16,2428.08 3319.45,2427.3 C3318.73,2426.53 3318.38,2425.65 3318.38,2424.66 C3318.38,2423.67 3318.73,2422.79 3319.45,2422.01 C3320.16,2421.24 3321.07,2420.85 3322.18,2420.85 L3335.45,2420.85 L3335.45,2407.59 C3335.45,2406.6 3335.8,2405.72 3336.52,2404.94 C3337.23,2404.17 3338.14,2403.78 3339.25,2403.78 C3340.37,2403.78 3341.28,2404.17 3341.99,2404.94 C3342.7,2405.72 3343.06,2406.6 3343.06,2407.59 L3343.06,2420.85 L3356.32,2420.85 C3357.44,2420.85 3358.35,2421.24 3359.06,2422.01 C3359.77,2422.79 3360.13,2423.67 3360.13,2424.66 C3360.13,2425.65 3359.77,2426.53 3359.06,2427.3 C3358.35,2428.08 3357.44,2428.46 3356.32,2428.46 L3343.06,2428.46 L3343.06,2441.73 C3343.06,2442.72 3342.69,2443.62 3341.94,2444.42 M3395.37,2390.15 C3390.79,2390.15 3387.74,2391.99 3386.23,2395.67 C3384.71,2399.35 3383.96,2404.56 3383.96,2411.3 L3383.96,2422.25 C3387.17,2420.95 3389.96,2420.27 3392.31,2420.21 C3400.35,2420.21 3406.67,2421.98 3411.28,2425.54 C3415.89,2429.1 3418.19,2434.38 3418.19,2441.4 C3418.19,2448.42 3415.85,2453.73 3411.19,2457.31 C3406.52,2460.9 3400.22,2462.7 3392.31,2462.7 C3384.2,2462.7 3377.86,2458.94 3373.29,2451.42 C3368.71,2443.91 3366.42,2434.99 3366.42,2424.66 C3366.42,2414.39 3369.08,2405.49 3374.4,2397.94 C3379.72,2390.39 3386.71,2386.62 3395.37,2386.62 C3401.06,2386.62 3405.97,2388.06 3410.12,2390.94 C3414.26,2393.81 3416.33,2397.6 3416.33,2402.3 C3416.33,2405.02 3415.34,2407.37 3413.37,2409.35 C3411.39,2411.33 3409.02,2412.32 3406.27,2412.32 C3403.52,2412.32 3401.15,2411.33 3399.17,2409.35 C3397.19,2407.37 3396.2,2405.02 3396.2,2402.3 C3396.2,2399.64 3397.19,2397.29 3399.17,2395.25 C3399.85,2394.45 3400.81,2393.76 3402.05,2393.21 C3401.74,2392.4 3401.12,2391.79 3400.19,2391.35 C3398.83,2390.55 3397.22,2390.15 3395.37,2390.15 M3399.91,2428.09 C3398.8,2425.18 3396.36,2423.73 3392.58,2423.73 C3388.81,2423.73 3386.48,2425.18 3385.58,2428.09 C3384.68,2431 3384.23,2435.42 3384.23,2441.36 C3384.23,2448.35 3384.68,2453.05 3385.58,2455.46 C3386.48,2457.87 3388.81,2459.08 3392.58,2459.08 C3396.36,2459.08 3398.8,2457.62 3399.91,2454.72 C3401.03,2451.81 3401.58,2447.37 3401.58,2441.4 C3401.58,2435.44 3401.03,2431 3399.91,2428.09"/>
<path class="Bracket" transform="matrix(8.6315,0,0,8.6315,76.1283,2254.96)" d="M0.92002,-50 C2.69004,-51.88 6.2,-55.8 6.2,-63 C6.2,-72.1 2.25996,-81.32 2.25996,-86.97 C2.25996,-93.06 5.84004,-98.84 5.95,-99 C6.05996,-99.16 6.05,-99.39 5.94004,-99.46 C5.82998,-99.53 5.62002,-99.47 5.49004,-99.32 C5.35996,-99.17 0,-93.75 0,-85.6 C0,-76.75 3.5,-70.58 3.5,-59.07 C3.5,-56.89 2.55996,-53.36 0.1,-50.33 C-0.0799805,-50.17 -0.1,-49.89 0.0599609,-49.7 L0.0700195,-49.69 L0.1,-49.66 C2.55996,-46.63 3.5,-43.1 3.5,-40.92 C3.5,-29.4 0,-23.24 0,-14.39 C0,-6.25 5.35996,-0.8 5.49004,-0.659961 C5.62002,-0.52002 5.8,-0.42998 5.94004,-0.52002 C6.07998,-0.609961 6.07998,-0.77998 5.95,-0.97998 C5.82002,-1.17998 2.25996,-6.92002 2.25996,-13.01 C2.25996,-18.66 6.2,-27.9 6.2,-37 C6.2,-44.3 2.69004,-48.12 0.92002,-50"/>
</svg>
