<?xml version="1.0" encoding="UTF-8" standalone="no"?>
<svg width="4209.44px" height="2976.38px" viewBox="0 0 4209.44 2976.38"
 xmlns="http://www.w3.org/2000/svg" xmlns:xlink="http://www.w3.org/1999/xlink" version="1.2" baseProfile="tiny">
<title>SolMajeur (11)</title>
<desc>Generated by MuseScore 3.6.2</desc>
<polyline class="StaffLines" fill="none" stroke="#000000" stroke-width="6.55" stroke-linejoin="bevel" points="153.819,558.425 4138.58,558.425"/>
<polyline class="StaffLines" fill="none" stroke="#000000" stroke-width="6.55" stroke-linejoin="bevel" points="153.819,647.717 4138.58,647.717"/>
<polyline class="StaffLines" fill="none" stroke="#000000" stroke-width="6.55" stroke-linejoin="bevel" points="153.819,737.008 4138.58,737.008"/>
<polyline class="StaffLines" fill="none" stroke="#000000" stroke-width="6.55" stroke-linejoin="bevel" points="153.819,826.299 4138.58,826.299"/>
<polyline class="StaffLines" fill="none" stroke="#000000" stroke-width="6.55" stroke-linejoin="bevel" points="153.819,915.591 4138.58,915.591"/>
<polyline class="StaffLines" fill="none" stroke="#000000" stroke-width="6.55" stroke-linejoin="bevel" points="153.819,1004.88 4138.58,1004.88"/>
<polyline class="StaffLines" fill="none" stroke="#000000" stroke-width="6.55" stroke-linejoin="bevel" points="153.819,1391.81 4138.58,1391.81"/>
<polyline class="StaffLines" fill="none" stroke="#000000" stroke-width="6.55" stroke-linejoin="bevel" points="153.819,1451.34 4138.58,1451.34"/>
<polyline class="StaffLines" fill="none" stroke="#000000" stroke-width="6.55" stroke-linejoin="bevel" points="153.819,1510.87 4138.58,1510.87"/>
<polyline class="StaffLines" fill="none" stroke="#000000" stroke-width="6.55" stroke-linejoin="bevel" points="153.819,1570.39 4138.58,1570.39"/>
<polyline class="StaffLines" fill="none" stroke="#000000" stroke-width="6.55" stroke-linejoin="bevel" points="153.819,1629.92 4138.58,1629.92"/>
<polyline class="StaffLines" fill="none" stroke="#000000" stroke-width="6.55" stroke-linejoin="bevel" points="153.819,2099.26 4138.58,2099.26"/>
<polyline class="StaffLines" fill="none" stroke="#000000" stroke-width="6.55" stroke-linejoin="bevel" points="153.819,2158.79 4138.58,2158.79"/>
<polyline class="StaffLines" fill="none" stroke="#000000" stroke-width="6.55" stroke-linejoin="bevel" points="153.819,2218.32 4138.58,2218.32"/>
<polyline class="StaffLines" fill="none" stroke="#000000" stroke-width="6.55" stroke-linejoin="bevel" points="153.819,2277.85 4138.58,2277.85"/>
<polyline class="StaffLines" fill="none" stroke="#000000" stroke-width="6.55" stroke-linejoin="bevel" points="153.819,2337.37 4138.58,2337.37"/>
<path class="Symbol" transform="matrix(2.3811,0,0,2.3811,1724.16,2218.32)" d="M0,-0.1 C0,7.7 4,14 10.4,18.1 L10.9,17.4 C7.5,14.8 6.3,13.3 5.2,10.1 C4.2,7.2 3.7,4 3.7,-0.2 C3.7,-8.1 4.8,-12.3 10.9,-17.4 L10.5,-18.1 C3.9,-13.6 0,-8.5 0,-0.1"/>
<path class="Symbol" transform="matrix(2.3811,0,0,2.3811,1838.92,2218.32)" d="M3.7,-0.2 C3.7,4 3.2,7.2 2.2,10.1 C1,13.3 -0.2,14.8 -3.6,17.4 L-3,18.1 C3.4,14.1 7.3,7.6 7.3,-0.1 C7.3,-8.4 3.4,-13.8 -3.2,-18.1 L-3.6,-17.4 C2.6,-12.4 3.7,-8.1 3.7,-0.2"/>
<path class="Symbol" transform="matrix(2.3811,0,0,2.3811,2935.95,2218.32)" d="M0,-0.1 C0,7.7 4,14 10.4,18.1 L10.9,17.4 C7.5,14.8 6.3,13.3 5.2,10.1 C4.2,7.2 3.7,4 3.7,-0.2 C3.7,-8.1 4.8,-12.3 10.9,-17.4 L10.5,-18.1 C3.9,-13.6 0,-8.5 0,-0.1"/>
<path class="Symbol" transform="matrix(2.3811,0,0,2.3811,3050.71,2218.32)" d="M3.7,-0.2 C3.7,4 3.2,7.2 2.2,10.1 C1,13.3 -0.2,14.8 -3.6,17.4 L-3,18.1 C3.4,14.1 7.3,7.6 7.3,-0.1 C7.3,-8.4 3.4,-13.8 -3.2,-18.1 L-3.6,-17.4 C2.6,-12.4 3.7,-8.1 3.7,-0.2"/>
<path class="Symbol" transform="matrix(2.3811,0,0,2.3811,1724.16,1451.34)" d="M0,-0.1 C0,7.7 4,14 10.4,18.1 L10.9,17.4 C7.5,14.8 6.3,13.3 5.2,10.1 C4.2,7.2 3.7,4 3.7,-0.2 C3.7,-8.1 4.8,-12.3 10.9,-17.4 L10.5,-18.1 C3.9,-13.6 0,-8.5 0,-0.1"/>
<path class="Symbol" transform="matrix(2.3811,0,0,2.3811,1838.92,1451.34)" d="M3.7,-0.2 C3.7,4 3.2,7.2 2.2,10.1 C1,13.3 -0.2,14.8 -3.6,17.4 L-3,18.1 C3.4,14.1 7.3,7.6 7.3,-0.1 C7.3,-8.4 3.4,-13.8 -3.2,-18.1 L-3.6,-17.4 C2.6,-12.4 3.7,-8.1 3.7,-0.2"/>
<path class="Symbol" transform="matrix(2.3811,0,0,2.3811,1735,885.827)" d="M0,-0.1 C0,7.7 4,14 10.4,18.1 L10.9,17.4 C7.5,14.8 6.3,13.3 5.2,10.1 C4.2,7.2 3.7,4 3.7,-0.2 C3.7,-8.1 4.8,-12.3 10.9,-17.4 L10.5,-18.1 C3.9,-13.6 0,-8.5 0,-0.1"/>
<path class="Symbol" transform="matrix(2.3811,0,0,2.3811,1840.01,885.827)" d="M3.7,-0.2 C3.7,4 3.2,7.2 2.2,10.1 C1,13.3 -0.2,14.8 -3.6,17.4 L-3,18.1 C3.4,14.1 7.3,7.6 7.3,-0.1 C7.3,-8.4 3.4,-13.8 -3.2,-18.1 L-3.6,-17.4 C2.6,-12.4 3.7,-8.1 3.7,-0.2"/>
<path class="Symbol" transform="matrix(2.3811,0,0,2.3811,1724.43,707.244)" d="M0,-0.1 C0,7.7 4,14 10.4,18.1 L10.9,17.4 C7.5,14.8 6.3,13.3 5.2,10.1 C4.2,7.2 3.7,4 3.7,-0.2 C3.7,-8.1 4.8,-12.3 10.9,-17.4 L10.5,-18.1 C3.9,-13.6 0,-8.5 0,-0.1"/>
<path class="Symbol" transform="matrix(2.3811,0,0,2.3811,1850.58,707.244)" d="M3.7,-0.2 C3.7,4 3.2,7.2 2.2,10.1 C1,13.3 -0.2,14.8 -3.6,17.4 L-3,18.1 C3.4,14.1 7.3,7.6 7.3,-0.1 C7.3,-8.4 3.4,-13.8 -3.2,-18.1 L-3.6,-17.4 C2.6,-12.4 3.7,-8.1 3.7,-0.2"/>
<path class="Symbol" transform="matrix(2.3811,0,0,2.3811,2946.79,885.827)" d="M0,-0.1 C0,7.7 4,14 10.4,18.1 L10.9,17.4 C7.5,14.8 6.3,13.3 5.2,10.1 C4.2,7.2 3.7,4 3.7,-0.2 C3.7,-8.1 4.8,-12.3 10.9,-17.4 L10.5,-18.1 C3.9,-13.6 0,-8.5 0,-0.1"/>
<path class="Symbol" transform="matrix(2.3811,0,0,2.3811,3051.8,885.827)" d="M3.7,-0.2 C3.7,4 3.2,7.2 2.2,10.1 C1,13.3 -0.2,14.8 -3.6,17.4 L-3,18.1 C3.4,14.1 7.3,7.6 7.3,-0.1 C7.3,-8.4 3.4,-13.8 -3.2,-18.1 L-3.6,-17.4 C2.6,-12.4 3.7,-8.1 3.7,-0.2"/>
<polyline class="BarLine" fill="none" stroke="#000000" stroke-width="10.71" stroke-linejoin="bevel" points="159.176,2095.99 159.176,2340.65"/>
<polyline class="BarLine" fill="none" stroke="#000000" stroke-width="10.71" stroke-linejoin="bevel" points="1087.8,2095.99 1087.8,2340.65"/>
<polyline class="BarLine" fill="none" stroke="#000000" stroke-width="10.71" stroke-linejoin="bevel" points="1641.42,2095.99 1641.42,2340.65"/>
<polyline class="BarLine" fill="none" stroke="#000000" stroke-width="10.71" stroke-linejoin="bevel" points="2222.06,2095.99 2222.06,2340.65"/>
<polyline class="BarLine" fill="none" stroke="#000000" stroke-width="10.71" stroke-linejoin="bevel" points="2853.21,2095.99 2853.21,2340.65"/>
<polyline class="BarLine" fill="none" stroke="#000000" stroke-width="10.71" stroke-linejoin="bevel" points="3540.98,2095.99 3540.98,2340.65"/>
<polyline class="BarLine" fill="none" stroke="#000000" stroke-width="10.71" stroke-linejoin="bevel" points="4080.54,2095.99 4080.54,2340.65"/>
<polyline class="BarLine" fill="none" stroke="#000000" stroke-width="32.74" stroke-linejoin="bevel" points="4122.21,2095.99 4122.21,2340.65"/>
<polyline class="BarLine" fill="none" stroke="#000000" stroke-width="10.71" stroke-linejoin="bevel" points="159.176,1388.54 159.176,2099.26"/>
<polyline class="BarLine" fill="none" stroke="#000000" stroke-width="10.71" stroke-linejoin="bevel" points="1087.8,1388.54 1087.8,1633.2"/>
<polyline class="BarLine" fill="none" stroke="#000000" stroke-width="10.71" stroke-linejoin="bevel" points="1641.42,1388.54 1641.42,1633.2"/>
<polyline class="BarLine" fill="none" stroke="#000000" stroke-width="10.71" stroke-linejoin="bevel" points="2222.06,1388.54 2222.06,1633.2"/>
<polyline class="BarLine" fill="none" stroke="#000000" stroke-width="10.71" stroke-linejoin="bevel" points="2853.21,1388.54 2853.21,1633.2"/>
<polyline class="BarLine" fill="none" stroke="#000000" stroke-width="10.71" stroke-linejoin="bevel" points="3540.98,1388.54 3540.98,1633.2"/>
<polyline class="BarLine" fill="none" stroke="#000000" stroke-width="10.71" stroke-linejoin="bevel" points="4080.54,1388.54 4080.54,1633.2"/>
<polyline class="BarLine" fill="none" stroke="#000000" stroke-width="32.74" stroke-linejoin="bevel" points="4122.21,1388.54 4122.21,1633.2"/>
<polyline class="BarLine" fill="none" stroke="#000000" stroke-width="10.71" stroke-linejoin="bevel" points="159.176,555.151 159.176,1391.81"/>
<polyline class="BarLine" fill="none" stroke="#000000" stroke-width="10.71" stroke-linejoin="bevel" points="1087.8,555.151 1087.8,1008.16"/>
<polyline class="BarLine" fill="none" stroke="#000000" stroke-width="10.71" stroke-linejoin="bevel" points="1641.42,555.151 1641.42,1008.16"/>
<polyline class="BarLine" fill="none" stroke="#000000" stroke-width="10.71" stroke-linejoin="bevel" points="2222.06,555.151 2222.06,1008.16"/>
<polyline class="BarLine" fill="none" stroke="#000000" stroke-width="10.71" stroke-linejoin="bevel" points="2853.21,555.151 2853.21,1008.16"/>
<polyline class="BarLine" fill="none" stroke="#000000" stroke-width="10.71" stroke-linejoin="bevel" points="3540.98,555.151 3540.98,1008.16"/>
<polyline class="BarLine" fill="none" stroke="#000000" stroke-width="10.71" stroke-linejoin="bevel" points="4080.54,555.151 4080.54,1008.16"/>
<polyline class="BarLine" fill="none" stroke="#000000" stroke-width="32.74" stroke-linejoin="bevel" points="4122.21,555.151 4122.21,1008.16"/>
<polyline class="Stem" fill="none" stroke="#000000" stroke-width="6.55" stroke-linejoin="bevel" points="3041.72,1592.54 3041.72,1280.2"/>
<polyline class="Stem" fill="none" stroke="#000000" stroke-width="6.55" stroke-linejoin="bevel" points="3254.9,1489.1 3254.9,1674.57"/>
<path class="Note" transform="matrix(2.3811,0,0,2.3811,636.699,2129.03)" d="M18.7,-13.6 C4.9,-13.6 0,-6.6 0,-0.1 C0,6.4 4.9,13.4 18.7,13.4 C32.5,13.4 37.3,6.4 37.3,-0.1 C37.3,-6.6 32.5,-13.6 18.7,-13.6 M10.4,-4.5 C10.3,-4.9 10.3,-5.3 10.3,-5.7 C10.3,-6.5 10.5,-7.3 10.9,-8 C11.6,-9 12.8,-9.7 14.3,-10 C15.6,-10.3 16.3,-10.5 18.9,-10.5 L19,-10.5 C23,-10.5 24.3,-6.8 25.4,-3 L25.7,-2 C26.5,0.6 26.9,2.8 26.9,4.5 C26.9,5.7 26.7,6.8 26.3,7.6 C25.7,8.7 24.7,9.4 23,9.8 C22.1,10 20.6,10.1 20.6,10.1 C20.1,10.1 19.7,10.2 19.3,10.2 C16.1,10.2 14.1,9 12.7,4.7 C11.5,1 11.3,-0.1 10.4,-4.5"/>
<path class="Note" transform="matrix(2.3811,0,0,2.3811,1176.26,2218.32)" d="M18.7,-13.6 C4.9,-13.6 0,-6.6 0,-0.1 C0,6.4 4.9,13.4 18.7,13.4 C32.5,13.4 37.3,6.4 37.3,-0.1 C37.3,-6.6 32.5,-13.6 18.7,-13.6 M10.4,-4.5 C10.3,-4.9 10.3,-5.3 10.3,-5.7 C10.3,-6.5 10.5,-7.3 10.9,-8 C11.6,-9 12.8,-9.7 14.3,-10 C15.6,-10.3 16.3,-10.5 18.9,-10.5 L19,-10.5 C23,-10.5 24.3,-6.8 25.4,-3 L25.7,-2 C26.5,0.6 26.9,2.8 26.9,4.5 C26.9,5.7 26.7,6.8 26.3,7.6 C25.7,8.7 24.7,9.4 23,9.8 C22.1,10 20.6,10.1 20.6,10.1 C20.1,10.1 19.7,10.2 19.3,10.2 C16.1,10.2 14.1,9 12.7,4.7 C11.5,1 11.3,-0.1 10.4,-4.5"/>
<path class="Note" transform="matrix(2.3811,0,0,2.3811,1750.11,2218.32)" d="M18.7,-13.6 C4.9,-13.6 0,-6.6 0,-0.1 C0,6.4 4.9,13.4 18.7,13.4 C32.5,13.4 37.3,6.4 37.3,-0.1 C37.3,-6.6 32.5,-13.6 18.7,-13.6 M10.4,-4.5 C10.3,-4.9 10.3,-5.3 10.3,-5.7 C10.3,-6.5 10.5,-7.3 10.9,-8 C11.6,-9 12.8,-9.7 14.3,-10 C15.6,-10.3 16.3,-10.5 18.9,-10.5 L19,-10.5 C23,-10.5 24.3,-6.8 25.4,-3 L25.7,-2 C26.5,0.6 26.9,2.8 26.9,4.5 C26.9,5.7 26.7,6.8 26.3,7.6 C25.7,8.7 24.7,9.4 23,9.8 C22.1,10 20.6,10.1 20.6,10.1 C20.1,10.1 19.7,10.2 19.3,10.2 C16.1,10.2 14.1,9 12.7,4.7 C11.5,1 11.3,-0.1 10.4,-4.5"/>
<path class="Note" transform="matrix(2.3811,0,0,2.3811,2310.52,2218.32)" d="M18.7,-13.6 C4.9,-13.6 0,-6.6 0,-0.1 C0,6.4 4.9,13.4 18.7,13.4 C32.5,13.4 37.3,6.4 37.3,-0.1 C37.3,-6.6 32.5,-13.6 18.7,-13.6 M10.4,-4.5 C10.3,-4.9 10.3,-5.3 10.3,-5.7 C10.3,-6.5 10.5,-7.3 10.9,-8 C11.6,-9 12.8,-9.7 14.3,-10 C15.6,-10.3 16.3,-10.5 18.9,-10.5 L19,-10.5 C23,-10.5 24.3,-6.8 25.4,-3 L25.7,-2 C26.5,0.6 26.9,2.8 26.9,4.5 C26.9,5.7 26.7,6.8 26.3,7.6 C25.7,8.7 24.7,9.4 23,9.8 C22.1,10 20.6,10.1 20.6,10.1 C20.1,10.1 19.7,10.2 19.3,10.2 C16.1,10.2 14.1,9 12.7,4.7 C11.5,1 11.3,-0.1 10.4,-4.5"/>
<path class="Note" transform="matrix(2.3811,0,0,2.3811,2961.9,2218.32)" d="M18.7,-13.6 C4.9,-13.6 0,-6.6 0,-0.1 C0,6.4 4.9,13.4 18.7,13.4 C32.5,13.4 37.3,6.4 37.3,-0.1 C37.3,-6.6 32.5,-13.6 18.7,-13.6 M10.4,-4.5 C10.3,-4.9 10.3,-5.3 10.3,-5.7 C10.3,-6.5 10.5,-7.3 10.9,-8 C11.6,-9 12.8,-9.7 14.3,-10 C15.6,-10.3 16.3,-10.5 18.9,-10.5 L19,-10.5 C23,-10.5 24.3,-6.8 25.4,-3 L25.7,-2 C26.5,0.6 26.9,2.8 26.9,4.5 C26.9,5.7 26.7,6.8 26.3,7.6 C25.7,8.7 24.7,9.4 23,9.8 C22.1,10 20.6,10.1 20.6,10.1 C20.1,10.1 19.7,10.2 19.3,10.2 C16.1,10.2 14.1,9 12.7,4.7 C11.5,1 11.3,-0.1 10.4,-4.5"/>
<path class="Note" transform="matrix(2.3811,0,0,2.3811,3629.44,2129.03)" d="M18.7,-13.6 C4.9,-13.6 0,-6.6 0,-0.1 C0,6.4 4.9,13.4 18.7,13.4 C32.5,13.4 37.3,6.4 37.3,-0.1 C37.3,-6.6 32.5,-13.6 18.7,-13.6 M10.4,-4.5 C10.3,-4.9 10.3,-5.3 10.3,-5.7 C10.3,-6.5 10.5,-7.3 10.9,-8 C11.6,-9 12.8,-9.7 14.3,-10 C15.6,-10.3 16.3,-10.5 18.9,-10.5 L19,-10.5 C23,-10.5 24.3,-6.8 25.4,-3 L25.7,-2 C26.5,0.6 26.9,2.8 26.9,4.5 C26.9,5.7 26.7,6.8 26.3,7.6 C25.7,8.7 24.7,9.4 23,9.8 C22.1,10 20.6,10.1 20.6,10.1 C20.1,10.1 19.7,10.2 19.3,10.2 C16.1,10.2 14.1,9 12.7,4.7 C11.5,1 11.3,-0.1 10.4,-4.5"/>
<path class="Note" transform="matrix(2.3811,0,0,2.3811,636.699,1570.39)" d="M18.7,-13.6 C4.9,-13.6 0,-6.6 0,-0.1 C0,6.4 4.9,13.4 18.7,13.4 C32.5,13.4 37.3,6.4 37.3,-0.1 C37.3,-6.6 32.5,-13.6 18.7,-13.6 M10.4,-4.5 C10.3,-4.9 10.3,-5.3 10.3,-5.7 C10.3,-6.5 10.5,-7.3 10.9,-8 C11.6,-9 12.8,-9.7 14.3,-10 C15.6,-10.3 16.3,-10.5 18.9,-10.5 L19,-10.5 C23,-10.5 24.3,-6.8 25.4,-3 L25.7,-2 C26.5,0.6 26.9,2.8 26.9,4.5 C26.9,5.7 26.7,6.8 26.3,7.6 C25.7,8.7 24.7,9.4 23,9.8 C22.1,10 20.6,10.1 20.6,10.1 C20.1,10.1 19.7,10.2 19.3,10.2 C16.1,10.2 14.1,9 12.7,4.7 C11.5,1 11.3,-0.1 10.4,-4.5"/>
<path class="Note" transform="matrix(2.3811,0,0,2.3811,636.699,1510.87)" d="M18.7,-13.6 C4.9,-13.6 0,-6.6 0,-0.1 C0,6.4 4.9,13.4 18.7,13.4 C32.5,13.4 37.3,6.4 37.3,-0.1 C37.3,-6.6 32.5,-13.6 18.7,-13.6 M10.4,-4.5 C10.3,-4.9 10.3,-5.3 10.3,-5.7 C10.3,-6.5 10.5,-7.3 10.9,-8 C11.6,-9 12.8,-9.7 14.3,-10 C15.6,-10.3 16.3,-10.5 18.9,-10.5 L19,-10.5 C23,-10.5 24.3,-6.8 25.4,-3 L25.7,-2 C26.5,0.6 26.9,2.8 26.9,4.5 C26.9,5.7 26.7,6.8 26.3,7.6 C25.7,8.7 24.7,9.4 23,9.8 C22.1,10 20.6,10.1 20.6,10.1 C20.1,10.1 19.7,10.2 19.3,10.2 C16.1,10.2 14.1,9 12.7,4.7 C11.5,1 11.3,-0.1 10.4,-4.5"/>
<path class="Note" transform="matrix(2.3811,0,0,2.3811,636.699,1451.34)" d="M18.7,-13.6 C4.9,-13.6 0,-6.6 0,-0.1 C0,6.4 4.9,13.4 18.7,13.4 C32.5,13.4 37.3,6.4 37.3,-0.1 C37.3,-6.6 32.5,-13.6 18.7,-13.6 M10.4,-4.5 C10.3,-4.9 10.3,-5.3 10.3,-5.7 C10.3,-6.5 10.5,-7.3 10.9,-8 C11.6,-9 12.8,-9.7 14.3,-10 C15.6,-10.3 16.3,-10.5 18.9,-10.5 L19,-10.5 C23,-10.5 24.3,-6.8 25.4,-3 L25.7,-2 C26.5,0.6 26.9,2.8 26.9,4.5 C26.9,5.7 26.7,6.8 26.3,7.6 C25.7,8.7 24.7,9.4 23,9.8 C22.1,10 20.6,10.1 20.6,10.1 C20.1,10.1 19.7,10.2 19.3,10.2 C16.1,10.2 14.1,9 12.7,4.7 C11.5,1 11.3,-0.1 10.4,-4.5"/>
<path class="Note" transform="matrix(2.3811,0,0,2.3811,1176.26,1600.16)" d="M18.7,-13.6 C4.9,-13.6 0,-6.6 0,-0.1 C0,6.4 4.9,13.4 18.7,13.4 C32.5,13.4 37.3,6.4 37.3,-0.1 C37.3,-6.6 32.5,-13.6 18.7,-13.6 M10.4,-4.5 C10.3,-4.9 10.3,-5.3 10.3,-5.7 C10.3,-6.5 10.5,-7.3 10.9,-8 C11.6,-9 12.8,-9.7 14.3,-10 C15.6,-10.3 16.3,-10.5 18.9,-10.5 L19,-10.5 C23,-10.5 24.3,-6.8 25.4,-3 L25.7,-2 C26.5,0.6 26.9,2.8 26.9,4.5 C26.9,5.7 26.7,6.8 26.3,7.6 C25.7,8.7 24.7,9.4 23,9.8 C22.1,10 20.6,10.1 20.6,10.1 C20.1,10.1 19.7,10.2 19.3,10.2 C16.1,10.2 14.1,9 12.7,4.7 C11.5,1 11.3,-0.1 10.4,-4.5"/>
<path class="Note" transform="matrix(2.3811,0,0,2.3811,1176.26,1540.63)" d="M18.7,-13.6 C4.9,-13.6 0,-6.6 0,-0.1 C0,6.4 4.9,13.4 18.7,13.4 C32.5,13.4 37.3,6.4 37.3,-0.1 C37.3,-6.6 32.5,-13.6 18.7,-13.6 M10.4,-4.5 C10.3,-4.9 10.3,-5.3 10.3,-5.7 C10.3,-6.5 10.5,-7.3 10.9,-8 C11.6,-9 12.8,-9.7 14.3,-10 C15.6,-10.3 16.3,-10.5 18.9,-10.5 L19,-10.5 C23,-10.5 24.3,-6.8 25.4,-3 L25.7,-2 C26.5,0.6 26.9,2.8 26.9,4.5 C26.9,5.7 26.7,6.8 26.3,7.6 C25.7,8.7 24.7,9.4 23,9.8 C22.1,10 20.6,10.1 20.6,10.1 C20.1,10.1 19.7,10.2 19.3,10.2 C16.1,10.2 14.1,9 12.7,4.7 C11.5,1 11.3,-0.1 10.4,-4.5"/>
<path class="Note" transform="matrix(2.3811,0,0,2.3811,1176.26,1451.34)" d="M18.7,-13.6 C4.9,-13.6 0,-6.6 0,-0.1 C0,6.4 4.9,13.4 18.7,13.4 C32.5,13.4 37.3,6.4 37.3,-0.1 C37.3,-6.6 32.5,-13.6 18.7,-13.6 M10.4,-4.5 C10.3,-4.9 10.3,-5.3 10.3,-5.7 C10.3,-6.5 10.5,-7.3 10.9,-8 C11.6,-9 12.8,-9.7 14.3,-10 C15.6,-10.3 16.3,-10.5 18.9,-10.5 L19,-10.5 C23,-10.5 24.3,-6.8 25.4,-3 L25.7,-2 C26.5,0.6 26.9,2.8 26.9,4.5 C26.9,5.7 26.7,6.8 26.3,7.6 C25.7,8.7 24.7,9.4 23,9.8 C22.1,10 20.6,10.1 20.6,10.1 C20.1,10.1 19.7,10.2 19.3,10.2 C16.1,10.2 14.1,9 12.7,4.7 C11.5,1 11.3,-0.1 10.4,-4.5"/>
<path class="Note" transform="matrix(2.3811,0,0,2.3811,1750.11,1570.39)" d="M18.7,-13.6 C4.9,-13.6 0,-6.6 0,-0.1 C0,6.4 4.9,13.4 18.7,13.4 C32.5,13.4 37.3,6.4 37.3,-0.1 C37.3,-6.6 32.5,-13.6 18.7,-13.6 M10.4,-4.5 C10.3,-4.9 10.3,-5.3 10.3,-5.7 C10.3,-6.5 10.5,-7.3 10.9,-8 C11.6,-9 12.8,-9.7 14.3,-10 C15.6,-10.3 16.3,-10.5 18.9,-10.5 L19,-10.5 C23,-10.5 24.3,-6.8 25.4,-3 L25.7,-2 C26.5,0.6 26.9,2.8 26.9,4.5 C26.9,5.7 26.7,6.8 26.3,7.6 C25.7,8.7 24.7,9.4 23,9.8 C22.1,10 20.6,10.1 20.6,10.1 C20.1,10.1 19.7,10.2 19.3,10.2 C16.1,10.2 14.1,9 12.7,4.7 C11.5,1 11.3,-0.1 10.4,-4.5"/>
<path class="Note" transform="matrix(2.3811,0,0,2.3811,1750.11,1510.87)" d="M18.7,-13.6 C4.9,-13.6 0,-6.6 0,-0.1 C0,6.4 4.9,13.4 18.7,13.4 C32.5,13.4 37.3,6.4 37.3,-0.1 C37.3,-6.6 32.5,-13.6 18.7,-13.6 M10.4,-4.5 C10.3,-4.9 10.3,-5.3 10.3,-5.7 C10.3,-6.5 10.5,-7.3 10.9,-8 C11.6,-9 12.8,-9.7 14.3,-10 C15.6,-10.3 16.3,-10.5 18.9,-10.5 L19,-10.5 C23,-10.5 24.3,-6.8 25.4,-3 L25.7,-2 C26.5,0.6 26.9,2.8 26.9,4.5 C26.9,5.7 26.7,6.8 26.3,7.6 C25.7,8.7 24.7,9.4 23,9.8 C22.1,10 20.6,10.1 20.6,10.1 C20.1,10.1 19.7,10.2 19.3,10.2 C16.1,10.2 14.1,9 12.7,4.7 C11.5,1 11.3,-0.1 10.4,-4.5"/>
<path class="Note" transform="matrix(2.3811,0,0,2.3811,1750.11,1451.34)" d="M18.7,-13.6 C4.9,-13.6 0,-6.6 0,-0.1 C0,6.4 4.9,13.4 18.7,13.4 C32.5,13.4 37.3,6.4 37.3,-0.1 C37.3,-6.6 32.5,-13.6 18.7,-13.6 M10.4,-4.5 C10.3,-4.9 10.3,-5.3 10.3,-5.7 C10.3,-6.5 10.5,-7.3 10.9,-8 C11.6,-9 12.8,-9.7 14.3,-10 C15.6,-10.3 16.3,-10.5 18.9,-10.5 L19,-10.5 C23,-10.5 24.3,-6.8 25.4,-3 L25.7,-2 C26.5,0.6 26.9,2.8 26.9,4.5 C26.9,5.7 26.7,6.8 26.3,7.6 C25.7,8.7 24.7,9.4 23,9.8 C22.1,10 20.6,10.1 20.6,10.1 C20.1,10.1 19.7,10.2 19.3,10.2 C16.1,10.2 14.1,9 12.7,4.7 C11.5,1 11.3,-0.1 10.4,-4.5"/>
<path class="Note" transform="matrix(2.3811,0,0,2.3811,2310.52,1570.39)" d="M18.7,-13.6 C4.9,-13.6 0,-6.6 0,-0.1 C0,6.4 4.9,13.4 18.7,13.4 C32.5,13.4 37.3,6.4 37.3,-0.1 C37.3,-6.6 32.5,-13.6 18.7,-13.6 M10.4,-4.5 C10.3,-4.9 10.3,-5.3 10.3,-5.7 C10.3,-6.5 10.5,-7.3 10.9,-8 C11.6,-9 12.8,-9.7 14.3,-10 C15.6,-10.3 16.3,-10.5 18.9,-10.5 L19,-10.5 C23,-10.5 24.3,-6.8 25.4,-3 L25.7,-2 C26.5,0.6 26.9,2.8 26.9,4.5 C26.9,5.7 26.7,6.8 26.3,7.6 C25.7,8.7 24.7,9.4 23,9.8 C22.1,10 20.6,10.1 20.6,10.1 C20.1,10.1 19.7,10.2 19.3,10.2 C16.1,10.2 14.1,9 12.7,4.7 C11.5,1 11.3,-0.1 10.4,-4.5"/>
<path class="Note" transform="matrix(2.3811,0,0,2.3811,2392.78,1540.63)" d="M18.7,-13.6 C4.9,-13.6 0,-6.6 0,-0.1 C0,6.4 4.9,13.4 18.7,13.4 C32.5,13.4 37.3,6.4 37.3,-0.1 C37.3,-6.6 32.5,-13.6 18.7,-13.6 M10.4,-4.5 C10.3,-4.9 10.3,-5.3 10.3,-5.7 C10.3,-6.5 10.5,-7.3 10.9,-8 C11.6,-9 12.8,-9.7 14.3,-10 C15.6,-10.3 16.3,-10.5 18.9,-10.5 L19,-10.5 C23,-10.5 24.3,-6.8 25.4,-3 L25.7,-2 C26.5,0.6 26.9,2.8 26.9,4.5 C26.9,5.7 26.7,6.8 26.3,7.6 C25.7,8.7 24.7,9.4 23,9.8 C22.1,10 20.6,10.1 20.6,10.1 C20.1,10.1 19.7,10.2 19.3,10.2 C16.1,10.2 14.1,9 12.7,4.7 C11.5,1 11.3,-0.1 10.4,-4.5"/>
<path class="Note" transform="matrix(2.3811,0,0,2.3811,2310.52,1451.34)" d="M18.7,-13.6 C4.9,-13.6 0,-6.6 0,-0.1 C0,6.4 4.9,13.4 18.7,13.4 C32.5,13.4 37.3,6.4 37.3,-0.1 C37.3,-6.6 32.5,-13.6 18.7,-13.6 M10.4,-4.5 C10.3,-4.9 10.3,-5.3 10.3,-5.7 C10.3,-6.5 10.5,-7.3 10.9,-8 C11.6,-9 12.8,-9.7 14.3,-10 C15.6,-10.3 16.3,-10.5 18.9,-10.5 L19,-10.5 C23,-10.5 24.3,-6.8 25.4,-3 L25.7,-2 C26.5,0.6 26.9,2.8 26.9,4.5 C26.9,5.7 26.7,6.8 26.3,7.6 C25.7,8.7 24.7,9.4 23,9.8 C22.1,10 20.6,10.1 20.6,10.1 C20.1,10.1 19.7,10.2 19.3,10.2 C16.1,10.2 14.1,9 12.7,4.7 C11.5,1 11.3,-0.1 10.4,-4.5"/>
<path class="Note" transform="matrix(2.3811,0,0,2.3811,2967.62,1600.16)" d="M31.5,-8.1 C29.7,-11.4 25.9,-13.2 21.3,-13.2 C17.9,-13.2 14.2,-12.2 10.6,-10.3 C4,-6.8 0,-0.9 0,4.2 C0,5.6 0.3,7 1,8.3 C2.8,11.6 6.6,13.3 11.2,13.3 C14.6,13.3 18.3,12.4 21.9,10.5 C28.5,7 32.5,1.1 32.5,-4 C32.5,-5.4 32.2,-6.8 31.5,-8.1 M27.2,-1.3 C25.5,0.4 22.1,2.5 18.5,4.5 C14.9,6.5 11.3,8 8.9,8.5 C8.4,8.6 7.9,8.7 7.4,8.7 C5.8,8.7 4.6,8.1 3.9,6.8 C3.6,6.3 3.4,5.7 3.4,5.1 C3.4,4 4.1,2.7 5.2,1.6 C6.9,-0.1 10.2,-2.2 13.8,-4.2 C17.4,-6.2 21,-7.7 23.4,-8.2 C23.9,-8.3 24.4,-8.4 24.9,-8.4 C26.5,-8.4 27.8,-7.8 28.5,-6.5 C28.8,-6 28.9,-5.4 28.9,-4.8 C28.9,-3.7 28.3,-2.5 27.2,-1.3"/>
<path class="Note" transform="matrix(2.3811,0,0,2.3811,2967.62,1540.63)" d="M31.5,-8.1 C29.7,-11.4 25.9,-13.2 21.3,-13.2 C17.9,-13.2 14.2,-12.2 10.6,-10.3 C4,-6.8 0,-0.9 0,4.2 C0,5.6 0.3,7 1,8.3 C2.8,11.6 6.6,13.3 11.2,13.3 C14.6,13.3 18.3,12.4 21.9,10.5 C28.5,7 32.5,1.1 32.5,-4 C32.5,-5.4 32.2,-6.8 31.5,-8.1 M27.2,-1.3 C25.5,0.4 22.1,2.5 18.5,4.5 C14.9,6.5 11.3,8 8.9,8.5 C8.4,8.6 7.9,8.7 7.4,8.7 C5.8,8.7 4.6,8.1 3.9,6.8 C3.6,6.3 3.4,5.7 3.4,5.1 C3.4,4 4.1,2.7 5.2,1.6 C6.9,-0.1 10.2,-2.2 13.8,-4.2 C17.4,-6.2 21,-7.7 23.4,-8.2 C23.9,-8.3 24.4,-8.4 24.9,-8.4 C26.5,-8.4 27.8,-7.8 28.5,-6.5 C28.8,-6 28.9,-5.4 28.9,-4.8 C28.9,-3.7 28.3,-2.5 27.2,-1.3"/>
<path class="Note" transform="matrix(2.3811,0,0,2.3811,2967.62,1451.34)" d="M31.5,-8.1 C29.7,-11.4 25.9,-13.2 21.3,-13.2 C17.9,-13.2 14.2,-12.2 10.6,-10.3 C4,-6.8 0,-0.9 0,4.2 C0,5.6 0.3,7 1,8.3 C2.8,11.6 6.6,13.3 11.2,13.3 C14.6,13.3 18.3,12.4 21.9,10.5 C28.5,7 32.5,1.1 32.5,-4 C32.5,-5.4 32.2,-6.8 31.5,-8.1 M27.2,-1.3 C25.5,0.4 22.1,2.5 18.5,4.5 C14.9,6.5 11.3,8 8.9,8.5 C8.4,8.6 7.9,8.7 7.4,8.7 C5.8,8.7 4.6,8.1 3.9,6.8 C3.6,6.3 3.4,5.7 3.4,5.1 C3.4,4 4.1,2.7 5.2,1.6 C6.9,-0.1 10.2,-2.2 13.8,-4.2 C17.4,-6.2 21,-7.7 23.4,-8.2 C23.9,-8.3 24.4,-8.4 24.9,-8.4 C26.5,-8.4 27.8,-7.8 28.5,-6.5 C28.8,-6 28.9,-5.4 28.9,-4.8 C28.9,-3.7 28.3,-2.5 27.2,-1.3"/>
<path class="Note" transform="matrix(2.3811,0,0,2.3811,3251.62,1481.1)" d="M31.5,-8.1 C29.7,-11.4 25.9,-13.2 21.3,-13.2 C17.9,-13.2 14.2,-12.2 10.6,-10.3 C4,-6.8 0,-0.9 0,4.2 C0,5.6 0.3,7 1,8.3 C2.8,11.6 6.6,13.3 11.2,13.3 C14.6,13.3 18.3,12.4 21.9,10.5 C28.5,7 32.5,1.1 32.5,-4 C32.5,-5.4 32.2,-6.8 31.5,-8.1 M27.2,-1.3 C25.5,0.4 22.1,2.5 18.5,4.5 C14.9,6.5 11.3,8 8.9,8.5 C8.4,8.6 7.9,8.7 7.4,8.7 C5.8,8.7 4.6,8.1 3.9,6.8 C3.6,6.3 3.4,5.7 3.4,5.1 C3.4,4 4.1,2.7 5.2,1.6 C6.9,-0.1 10.2,-2.2 13.8,-4.2 C17.4,-6.2 21,-7.7 23.4,-8.2 C23.9,-8.3 24.4,-8.4 24.9,-8.4 C26.5,-8.4 27.8,-7.8 28.5,-6.5 C28.8,-6 28.9,-5.4 28.9,-4.8 C28.9,-3.7 28.3,-2.5 27.2,-1.3"/>
<path class="Note" transform="matrix(2.3811,0,0,2.3811,3629.44,1570.39)" d="M18.7,-13.6 C4.9,-13.6 0,-6.6 0,-0.1 C0,6.4 4.9,13.4 18.7,13.4 C32.5,13.4 37.3,6.4 37.3,-0.1 C37.3,-6.6 32.5,-13.6 18.7,-13.6 M10.4,-4.5 C10.3,-4.9 10.3,-5.3 10.3,-5.7 C10.3,-6.5 10.5,-7.3 10.9,-8 C11.6,-9 12.8,-9.7 14.3,-10 C15.6,-10.3 16.3,-10.5 18.9,-10.5 L19,-10.5 C23,-10.5 24.3,-6.8 25.4,-3 L25.7,-2 C26.5,0.6 26.9,2.8 26.9,4.5 C26.9,5.7 26.7,6.8 26.3,7.6 C25.7,8.7 24.7,9.4 23,9.8 C22.1,10 20.6,10.1 20.6,10.1 C20.1,10.1 19.7,10.2 19.3,10.2 C16.1,10.2 14.1,9 12.7,4.7 C11.5,1 11.3,-0.1 10.4,-4.5"/>
<path class="Note" transform="matrix(2.3811,0,0,2.3811,3629.44,1510.87)" d="M18.7,-13.6 C4.9,-13.6 0,-6.6 0,-0.1 C0,6.4 4.9,13.4 18.7,13.4 C32.5,13.4 37.3,6.4 37.3,-0.1 C37.3,-6.6 32.5,-13.6 18.7,-13.6 M10.4,-4.5 C10.3,-4.9 10.3,-5.3 10.3,-5.7 C10.3,-6.5 10.5,-7.3 10.9,-8 C11.6,-9 12.8,-9.7 14.3,-10 C15.6,-10.3 16.3,-10.5 18.9,-10.5 L19,-10.5 C23,-10.5 24.3,-6.8 25.4,-3 L25.7,-2 C26.5,0.6 26.9,2.8 26.9,4.5 C26.9,5.7 26.7,6.8 26.3,7.6 C25.7,8.7 24.7,9.4 23,9.8 C22.1,10 20.6,10.1 20.6,10.1 C20.1,10.1 19.7,10.2 19.3,10.2 C16.1,10.2 14.1,9 12.7,4.7 C11.5,1 11.3,-0.1 10.4,-4.5"/>
<path class="Note" transform="matrix(2.3811,0,0,2.3811,3629.44,1451.34)" d="M18.7,-13.6 C4.9,-13.6 0,-6.6 0,-0.1 C0,6.4 4.9,13.4 18.7,13.4 C32.5,13.4 37.3,6.4 37.3,-0.1 C37.3,-6.6 32.5,-13.6 18.7,-13.6 M10.4,-4.5 C10.3,-4.9 10.3,-5.3 10.3,-5.7 C10.3,-6.5 10.5,-7.3 10.9,-8 C11.6,-9 12.8,-9.7 14.3,-10 C15.6,-10.3 16.3,-10.5 18.9,-10.5 L19,-10.5 C23,-10.5 24.3,-6.8 25.4,-3 L25.7,-2 C26.5,0.6 26.9,2.8 26.9,4.5 C26.9,5.7 26.7,6.8 26.3,7.6 C25.7,8.7 24.7,9.4 23,9.8 C22.1,10 20.6,10.1 20.6,10.1 C20.1,10.1 19.7,10.2 19.3,10.2 C16.1,10.2 14.1,9 12.7,4.7 C11.5,1 11.3,-0.1 10.4,-4.5"/>
<path class="Note" d="M604.43,587.916 C604.739,576.217 611.209,565.836 623.837,556.771 C635.07,548.714 647.35,544.685 660.676,544.685 C679.347,544.685 695.81,552.007 710.065,566.649 C719.13,576.024 723.662,587.645 723.662,601.513 C723.662,613.986 720.331,623.554 713.668,630.217 C705.533,638.429 696.933,642.535 687.869,642.535 C681.671,642.535 676.868,641.14 673.459,638.351 C667.881,633.78 665.092,627.66 665.092,619.99 C665.092,610.073 670.05,601.009 679.967,592.797 C688.101,586.056 696.275,581.64 704.487,579.549 C702.318,575.83 699.568,572.344 696.236,569.09 C685.855,558.941 674.079,553.866 660.908,553.866 C647.195,553.866 635.845,556.849 626.858,562.814 C617.561,568.935 610.085,577.302 604.43,587.916 M707.392,585.708 C703.131,589.659 698.87,593.881 694.609,598.375 C686.242,607.207 682.058,615.574 682.058,623.476 C682.058,631.921 683.995,636.143 687.869,636.143 C691.355,636.143 696.236,631.379 702.512,621.849 C707.547,614.257 710.065,607.284 710.065,600.931 C710.065,595.508 709.174,590.434 707.392,585.708"/>
<path class="Note" d="M730.393,829.061 C734.732,826.117 737.869,823.677 739.806,821.74 C743.37,817.944 745.152,814.457 745.152,811.281 C745.152,807.64 743.138,805.819 739.109,805.819 C731.284,805.819 722.917,812.714 714.007,826.505 C711.296,830.688 705.33,844.324 696.111,867.411 C703.471,875.003 707.151,879.303 707.151,880.31 C707.151,881.705 706.26,882.402 704.478,882.402 C703.084,882.402 699.249,880.039 692.973,875.313 C686.156,891.195 675.813,904.753 661.945,915.987 C647.767,927.453 630.839,933.186 611.161,933.186 C603.646,933.186 594.233,931.443 582.921,927.957 C573.857,925.168 569.325,920.713 569.325,914.593 C569.325,905.528 572.811,900.996 579.784,900.996 C583.967,900.996 586.059,902.933 586.059,906.806 C586.059,908.046 585.091,909.363 583.154,910.758 C582.147,911.455 581.643,912.811 581.643,914.825 C581.643,917.227 584.316,919.706 589.662,922.263 C595.472,925.052 603.994,926.446 615.228,926.446 C629.716,926.446 643.7,920.171 657.18,907.62 C669.421,896.231 678.214,882.983 683.56,867.876 C681.468,866.171 679.222,864.312 676.82,862.298 C669.382,857.882 665.664,853.349 665.664,848.701 C665.664,846.764 666.942,845.796 669.499,845.796 C672.907,845.796 677.517,848.701 683.328,854.512 C684.567,855.751 685.729,856.913 686.814,857.998 C689.526,850.56 693.864,841.109 699.83,829.642 C710.599,808.879 723.692,798.498 739.109,798.498 C744.61,798.498 748.948,799.544 752.125,801.636 C755.301,803.727 756.889,806.594 756.889,810.235 C756.889,816.046 754.759,820.965 750.498,824.994 C746.082,829.178 741.472,831.269 736.669,831.269 C732.485,831.269 730.393,830.533 730.393,829.061"/>
<path class="Note" d="M751.311,794.854 C744.958,804.848 734.925,813.138 721.212,819.723 C709.281,825.456 698.125,828.323 687.744,828.323 C679.454,828.323 672.559,826.657 667.058,823.326 C661.093,819.684 658.11,815.346 658.11,810.31 C658.11,798.921 661.093,789.121 667.058,780.909 C675.193,769.752 683.405,764.174 691.695,764.174 C697.583,764.174 701.767,765.336 704.246,767.661 C707.655,770.682 709.359,774.827 709.359,780.095 C709.359,787.533 703.82,794.002 692.741,799.502 C681.972,804.848 674.496,808.334 670.312,809.961 C671.242,811.898 672.443,813.641 673.915,815.191 C677.556,819.065 682.514,821.001 688.79,821.001 C696.692,821.001 707.306,818.096 720.631,812.286 C733.415,806.63 743.641,800.819 751.311,794.854 M668.685,804.616 C674.496,801.672 679.803,798.224 684.606,794.273 C691.734,788.462 695.297,782.187 695.297,775.447 C695.297,771.651 693.554,769.752 690.068,769.752 C687.124,769.752 683.095,773.123 677.982,779.863 C671.552,788.23 668.337,795.048 668.337,800.316 C668.337,801.788 668.453,803.221 668.685,804.616"/>
<path class="Note" d="M604.43,677.207 C604.739,665.509 611.209,655.127 623.837,646.063 C635.07,638.005 647.35,633.977 660.676,633.977 C679.347,633.977 695.81,641.298 710.065,655.941 C719.13,665.315 723.662,676.936 723.662,690.804 C723.662,703.277 720.331,712.845 713.668,719.508 C705.533,727.72 696.933,731.826 687.869,731.826 C681.671,731.826 676.868,730.432 673.459,727.643 C667.881,723.072 665.092,716.951 665.092,709.281 C665.092,699.365 670.05,690.3 679.967,682.088 C688.101,675.348 696.275,670.932 704.487,668.84 C702.318,665.121 699.568,661.635 696.236,658.381 C685.855,648.232 674.079,643.157 660.908,643.157 C647.195,643.157 635.845,646.14 626.858,652.106 C617.561,658.226 610.085,666.593 604.43,677.207 M707.392,674.999 C703.131,678.95 698.87,683.173 694.609,687.666 C686.242,696.498 682.058,704.865 682.058,712.768 C682.058,721.212 683.995,725.435 687.869,725.435 C691.355,725.435 696.236,720.67 702.512,711.141 C707.547,703.548 710.065,696.576 710.065,690.223 C710.065,684.8 709.174,679.725 707.392,674.999"/>
<path class="Note" d="M1255.08,851.839 C1259.65,851.839 1261.94,854.705 1261.94,860.438 C1261.94,864.467 1259.42,870.471 1254.38,878.451 C1250.35,884.881 1248.34,891.157 1248.34,897.277 C1248.34,900.763 1253.41,902.507 1263.56,902.507 C1271.93,902.507 1283.59,897.974 1298.54,888.91 C1283.51,903.398 1270.46,910.641 1259.38,910.641 C1249.38,910.641 1242.41,909.131 1238.46,906.109 C1237.45,905.334 1236.6,904.405 1235.9,903.32 C1232.03,908.046 1225.56,910.409 1216.5,910.409 C1207.82,910.409 1201.16,908.627 1196.51,905.063 C1193.41,902.662 1191.86,898.827 1191.86,893.558 C1191.86,885.191 1196.82,876.049 1206.73,866.133 C1217.35,855.519 1229.63,850.212 1243.57,850.212 C1247.06,850.212 1249.62,851.49 1251.24,854.047 C1252.56,852.575 1253.84,851.839 1255.08,851.839 M1234.28,898.091 C1234.2,897.471 1234.16,896.851 1234.16,896.231 C1234.16,895.921 1238.11,885.114 1246.01,863.808 C1246.79,861.717 1247.56,859.935 1248.34,858.463 C1245.32,857.843 1242.33,857.533 1239.39,857.533 C1233.97,857.533 1226.76,862.143 1217.77,871.362 C1209.72,879.574 1205.69,886.663 1205.69,892.629 C1205.69,899.214 1208.83,902.507 1215.1,902.507 C1222.69,902.507 1229.09,901.035 1234.28,898.091"/>
<path class="Note" d="M1210.8,642.535 C1207.01,642.535 1205.11,638.468 1205.11,630.333 L1205.11,596.283 C1205.11,593.029 1206.7,591.402 1209.87,591.402 C1211.27,591.402 1212.31,591.518 1213.01,591.751 C1215.49,587.412 1219.56,583.771 1225.21,580.827 C1233.11,576.721 1241.13,574.668 1249.27,574.668 C1255.7,574.668 1258.91,577.069 1258.91,581.873 C1258.91,585.902 1256.74,587.916 1252.41,587.916 C1249.31,587.916 1246.36,587.219 1243.57,585.824 C1241.09,584.584 1238.46,583.965 1235.67,583.965 C1230.87,583.965 1223.78,587.102 1214.4,593.378 C1215.72,599.653 1216.38,606.974 1216.38,615.342 C1216.38,633.471 1214.52,642.535 1210.8,642.535"/>
<path class="Note" d="M1210.8,821.118 C1207.01,821.118 1205.11,817.05 1205.11,808.916 L1205.11,774.866 C1205.11,771.612 1206.7,769.985 1209.87,769.985 C1211.27,769.985 1212.31,770.101 1213.01,770.333 C1215.49,765.995 1219.56,762.354 1225.21,759.41 C1233.11,755.304 1241.13,753.25 1249.27,753.25 C1255.7,753.25 1258.91,755.652 1258.91,760.456 C1258.91,764.484 1256.74,766.499 1252.41,766.499 C1249.31,766.499 1246.36,765.801 1243.57,764.407 C1241.09,763.167 1238.46,762.547 1235.67,762.547 C1230.87,762.547 1223.78,765.685 1214.4,771.96 C1215.72,778.236 1216.38,785.557 1216.38,793.924 C1216.38,812.053 1214.52,821.118 1210.8,821.118"/>
<path class="Note" d="M1143.99,677.207 C1144.3,665.509 1150.77,655.127 1163.4,646.063 C1174.63,638.005 1186.91,633.977 1200.24,633.977 C1218.91,633.977 1235.37,641.298 1249.63,655.941 C1258.69,665.315 1263.22,676.936 1263.22,690.804 C1263.22,703.277 1259.89,712.845 1253.23,719.508 C1245.09,727.72 1236.49,731.826 1227.43,731.826 C1221.23,731.826 1216.43,730.432 1213.02,727.643 C1207.44,723.072 1204.65,716.951 1204.65,709.281 C1204.65,699.365 1209.61,690.3 1219.53,682.088 C1227.66,675.348 1235.84,670.932 1244.05,668.84 C1241.88,665.121 1239.13,661.635 1235.8,658.381 C1225.42,648.232 1213.64,643.157 1200.47,643.157 C1186.76,643.157 1175.41,646.14 1166.42,652.106 C1157.12,658.226 1149.65,666.593 1143.99,677.207 M1246.95,674.999 C1242.69,678.95 1238.43,683.173 1234.17,687.666 C1225.8,696.498 1221.62,704.865 1221.62,712.768 C1221.62,721.212 1223.56,725.435 1227.43,725.435 C1230.92,725.435 1235.8,720.67 1242.07,711.141 C1247.11,703.548 1249.63,696.576 1249.63,690.223 C1249.63,684.8 1248.73,679.725 1246.95,674.999"/>
<path class="Note" d="M1828.93,851.839 C1833.5,851.839 1835.79,854.705 1835.79,860.438 C1835.79,864.467 1833.27,870.471 1828.24,878.451 C1824.21,884.881 1822.19,891.157 1822.19,897.277 C1822.19,900.763 1827.27,902.507 1837.42,902.507 C1845.78,902.507 1857.44,897.974 1872.4,888.91 C1857.37,903.398 1844.31,910.641 1833.23,910.641 C1823.24,910.641 1816.27,909.131 1812.31,906.109 C1811.31,905.334 1810.46,904.405 1809.76,903.32 C1805.88,908.046 1799.41,910.409 1790.35,910.409 C1781.67,910.409 1775.01,908.627 1770.36,905.063 C1767.26,902.662 1765.71,898.827 1765.71,893.558 C1765.71,885.191 1770.67,876.049 1780.59,866.133 C1791.2,855.519 1803.48,850.212 1817.43,850.212 C1820.91,850.212 1823.47,851.49 1825.1,854.047 C1826.41,852.575 1827.69,851.839 1828.93,851.839 M1808.13,898.091 C1808.05,897.471 1808.01,896.851 1808.01,896.231 C1808.01,895.921 1811.97,885.114 1819.87,863.808 C1820.64,861.717 1821.42,859.935 1822.19,858.463 C1819.17,857.843 1816.19,857.533 1813.24,857.533 C1807.82,857.533 1800.62,862.143 1791.63,871.362 C1783.57,879.574 1779.54,886.663 1779.54,892.629 C1779.54,899.214 1782.68,902.507 1788.96,902.507 C1796.55,902.507 1802.94,901.035 1808.13,898.091"/>
<path class="Note" d="M1717.84,587.916 C1718.15,576.217 1724.62,565.836 1737.25,556.771 C1748.48,548.714 1760.76,544.685 1774.09,544.685 C1792.76,544.685 1809.22,552.007 1823.48,566.649 C1832.54,576.024 1837.08,587.645 1837.08,601.513 C1837.08,613.986 1833.74,623.554 1827.08,630.217 C1818.95,638.429 1810.35,642.535 1801.28,642.535 C1795.09,642.535 1790.28,641.14 1786.87,638.351 C1781.3,633.78 1778.51,627.66 1778.51,619.99 C1778.51,610.073 1783.46,601.009 1793.38,592.797 C1801.52,586.056 1809.69,581.64 1817.9,579.549 C1815.73,575.83 1812.98,572.344 1809.65,569.09 C1799.27,558.941 1787.49,553.866 1774.32,553.866 C1760.61,553.866 1749.26,556.849 1740.27,562.814 C1730.98,568.935 1723.5,577.302 1717.84,587.916 M1820.81,585.708 C1816.55,589.659 1812.28,593.881 1808.02,598.375 C1799.66,607.207 1795.47,615.574 1795.47,623.476 C1795.47,631.921 1797.41,636.143 1801.28,636.143 C1804.77,636.143 1809.65,631.379 1815.93,621.849 C1820.96,614.257 1823.48,607.284 1823.48,600.931 C1823.48,595.508 1822.59,590.434 1820.81,585.708"/>
<path class="Note" d="M1864.73,794.854 C1858.37,804.848 1848.34,813.138 1834.63,819.723 C1822.7,825.456 1811.54,828.323 1801.16,828.323 C1792.87,828.323 1785.97,826.657 1780.47,823.326 C1774.51,819.684 1771.52,815.346 1771.52,810.31 C1771.52,798.921 1774.51,789.121 1780.47,780.909 C1788.61,769.752 1796.82,764.174 1805.11,764.174 C1811,764.174 1815.18,765.336 1817.66,767.661 C1821.07,770.682 1822.77,774.827 1822.77,780.095 C1822.77,787.533 1817.23,794.002 1806.16,799.502 C1795.39,804.848 1787.91,808.334 1783.73,809.961 C1784.66,811.898 1785.86,813.641 1787.33,815.191 C1790.97,819.065 1795.93,821.001 1802.2,821.001 C1810.11,821.001 1820.72,818.096 1834.05,812.286 C1846.83,806.63 1857.06,800.819 1864.73,794.854 M1782.1,804.616 C1787.91,801.672 1793.22,798.224 1798.02,794.273 C1805.15,788.462 1808.71,782.187 1808.71,775.447 C1808.71,771.651 1806.97,769.752 1803.48,769.752 C1800.54,769.752 1796.51,773.123 1791.4,779.863 C1784.97,788.23 1781.75,795.048 1781.75,800.316 C1781.75,801.788 1781.87,803.221 1782.1,804.616"/>
<path class="Note" d="M1717.84,677.207 C1718.15,665.509 1724.62,655.127 1737.25,646.063 C1748.48,638.005 1760.76,633.977 1774.09,633.977 C1792.76,633.977 1809.22,641.298 1823.48,655.941 C1832.54,665.315 1837.08,676.936 1837.08,690.804 C1837.08,703.277 1833.74,712.845 1827.08,719.508 C1818.95,727.72 1810.35,731.826 1801.28,731.826 C1795.09,731.826 1790.28,730.432 1786.87,727.643 C1781.3,723.072 1778.51,716.951 1778.51,709.281 C1778.51,699.365 1783.46,690.3 1793.38,682.088 C1801.52,675.348 1809.69,670.932 1817.9,668.84 C1815.73,665.121 1812.98,661.635 1809.65,658.381 C1799.27,648.232 1787.49,643.157 1774.32,643.157 C1760.61,643.157 1749.26,646.14 1740.27,652.106 C1730.98,658.226 1723.5,666.593 1717.84,677.207 M1820.81,674.999 C1816.55,678.95 1812.28,683.173 1808.02,687.666 C1799.66,696.498 1795.47,704.865 1795.47,712.768 C1795.47,721.212 1797.41,725.435 1801.28,725.435 C1804.77,725.435 1809.65,720.67 1815.93,711.141 C1820.96,703.548 1823.48,696.576 1823.48,690.223 C1823.48,684.8 1822.59,679.725 1820.81,674.999"/>
<path class="Note" d="M2389.34,851.839 C2393.91,851.839 2396.2,854.705 2396.2,860.438 C2396.2,864.467 2393.68,870.471 2388.65,878.451 C2384.62,884.881 2382.6,891.157 2382.6,897.277 C2382.6,900.763 2387.68,902.507 2397.83,902.507 C2406.19,902.507 2417.85,897.974 2432.81,888.91 C2417.78,903.398 2404.72,910.641 2393.64,910.641 C2383.65,910.641 2376.68,909.131 2372.72,906.109 C2371.72,905.334 2370.87,904.405 2370.17,903.32 C2366.29,908.046 2359.82,910.409 2350.76,910.409 C2342.08,910.409 2335.42,908.627 2330.77,905.063 C2327.67,902.662 2326.12,898.827 2326.12,893.558 C2326.12,885.191 2331.08,876.049 2341,866.133 C2351.61,855.519 2363.89,850.212 2377.84,850.212 C2381.32,850.212 2383.88,851.49 2385.51,854.047 C2386.82,852.575 2388.1,851.839 2389.34,851.839 M2368.54,898.091 C2368.46,897.471 2368.42,896.851 2368.42,896.231 C2368.42,895.921 2372.38,885.114 2380.28,863.808 C2381.05,861.717 2381.83,859.935 2382.6,858.463 C2379.58,857.843 2376.6,857.533 2373.65,857.533 C2368.23,857.533 2361.03,862.143 2352.04,871.362 C2343.98,879.574 2339.95,886.663 2339.95,892.629 C2339.95,899.214 2343.09,902.507 2349.37,902.507 C2356.96,902.507 2363.35,901.035 2368.54,898.091"/>
<path class="Note" d="M2278.25,587.916 C2278.56,576.217 2285.03,565.836 2297.66,556.771 C2308.89,548.714 2321.17,544.685 2334.5,544.685 C2353.17,544.685 2369.63,552.007 2383.89,566.649 C2392.95,576.024 2397.49,587.645 2397.49,601.513 C2397.49,613.986 2394.15,623.554 2387.49,630.217 C2379.36,638.429 2370.76,642.535 2361.69,642.535 C2355.5,642.535 2350.69,641.14 2347.28,638.351 C2341.71,633.78 2338.92,627.66 2338.92,619.99 C2338.92,610.073 2343.87,601.009 2353.79,592.797 C2361.93,586.056 2370.1,581.64 2378.31,579.549 C2376.14,575.83 2373.39,572.344 2370.06,569.09 C2359.68,558.941 2347.9,553.866 2334.73,553.866 C2321.02,553.866 2309.67,556.849 2300.68,562.814 C2291.39,568.935 2283.91,577.302 2278.25,587.916 M2381.22,585.708 C2376.96,589.659 2372.69,593.881 2368.43,598.375 C2360.07,607.207 2355.88,615.574 2355.88,623.476 C2355.88,631.921 2357.82,636.143 2361.69,636.143 C2365.18,636.143 2370.06,631.379 2376.34,621.849 C2381.37,614.257 2383.89,607.284 2383.89,600.931 C2383.89,595.508 2383,590.434 2381.22,585.708"/>
<path class="Note" d="M2345.07,821.118 C2341.27,821.118 2339.37,817.05 2339.37,808.916 L2339.37,774.866 C2339.37,771.612 2340.96,769.985 2344.14,769.985 C2345.53,769.985 2346.58,770.101 2347.27,770.333 C2349.75,765.995 2353.82,762.354 2359.48,759.41 C2367.38,755.304 2375.4,753.25 2383.53,753.25 C2389.96,753.25 2393.18,755.652 2393.18,760.456 C2393.18,764.484 2391.01,766.499 2386.67,766.499 C2383.57,766.499 2380.63,765.801 2377.84,764.407 C2375.36,763.167 2372.72,762.547 2369.94,762.547 C2365.13,762.547 2358.04,765.685 2348.67,771.96 C2349.99,778.236 2350.64,785.557 2350.64,793.924 C2350.64,812.053 2348.78,821.118 2345.07,821.118"/>
<path class="Note" d="M2278.25,677.207 C2278.56,665.509 2285.03,655.127 2297.66,646.063 C2308.89,638.005 2321.17,633.977 2334.5,633.977 C2353.17,633.977 2369.63,641.298 2383.89,655.941 C2392.95,665.315 2397.49,676.936 2397.49,690.804 C2397.49,703.277 2394.15,712.845 2387.49,719.508 C2379.36,727.72 2370.76,731.826 2361.69,731.826 C2355.5,731.826 2350.69,730.432 2347.28,727.643 C2341.71,723.072 2338.92,716.951 2338.92,709.281 C2338.92,699.365 2343.87,690.3 2353.79,682.088 C2361.93,675.348 2370.1,670.932 2378.31,668.84 C2376.14,665.121 2373.39,661.635 2370.06,658.381 C2359.68,648.232 2347.9,643.157 2334.73,643.157 C2321.02,643.157 2309.67,646.14 2300.68,652.106 C2291.39,658.226 2283.91,666.593 2278.25,677.207 M2381.22,674.999 C2376.96,678.95 2372.69,683.173 2368.43,687.666 C2360.07,696.498 2355.88,704.865 2355.88,712.768 C2355.88,721.212 2357.82,725.435 2361.69,725.435 C2365.18,725.435 2370.06,720.67 2376.34,711.141 C2381.37,703.548 2383.89,696.576 2383.89,690.223 C2383.89,684.8 2383,679.725 2381.22,674.999"/>
<path class="Note" d="M3040.72,851.839 C3045.29,851.839 3047.58,854.705 3047.58,860.438 C3047.58,864.467 3045.06,870.471 3040.03,878.451 C3036,884.881 3033.98,891.157 3033.98,897.277 C3033.98,900.763 3039.06,902.507 3049.21,902.507 C3057.57,902.507 3069.23,897.974 3084.19,888.91 C3069.16,903.398 3056.1,910.641 3045.02,910.641 C3035.03,910.641 3028.06,909.131 3024.11,906.109 C3023.1,905.334 3022.25,904.405 3021.55,903.32 C3017.68,908.046 3011.21,910.409 3002.14,910.409 C2993.46,910.409 2986.8,908.627 2982.15,905.063 C2979.05,902.662 2977.5,898.827 2977.5,893.558 C2977.5,885.191 2982.46,876.049 2992.38,866.133 C3002.99,855.519 3015.27,850.212 3029.22,850.212 C3032.71,850.212 3035.26,851.49 3036.89,854.047 C3038.21,852.575 3039.48,851.839 3040.72,851.839 M3019.92,898.091 C3019.84,897.471 3019.81,896.851 3019.81,896.231 C3019.81,895.921 3023.76,885.114 3031.66,863.808 C3032.43,861.717 3033.21,859.935 3033.98,858.463 C3030.96,857.843 3027.98,857.533 3025.04,857.533 C3019.61,857.533 3012.41,862.143 3003.42,871.362 C2995.36,879.574 2991.33,886.663 2991.33,892.629 C2991.33,899.214 2994.47,902.507 3000.75,902.507 C3008.34,902.507 3014.73,901.035 3019.92,898.091"/>
<path class="Note" d="M2996.45,642.535 C2992.65,642.535 2990.75,638.468 2990.75,630.333 L2990.75,596.283 C2990.75,593.029 2992.34,591.402 2995.52,591.402 C2996.91,591.402 2997.96,591.518 2998.66,591.751 C3001.13,587.412 3005.2,583.771 3010.86,580.827 C3018.76,576.721 3026.78,574.668 3034.91,574.668 C3041.34,574.668 3044.56,577.069 3044.56,581.873 C3044.56,585.902 3042.39,587.916 3038.05,587.916 C3034.95,587.916 3032.01,587.219 3029.22,585.824 C3026.74,584.584 3024.11,583.965 3021.32,583.965 C3016.51,583.965 3009.42,587.102 3000.05,593.378 C3001.37,599.653 3002.03,606.974 3002.03,615.342 C3002.03,633.471 3000.17,642.535 2996.45,642.535"/>
<path class="Note" d="M2996.45,821.118 C2992.65,821.118 2990.75,817.05 2990.75,808.916 L2990.75,774.866 C2990.75,771.612 2992.34,769.985 2995.52,769.985 C2996.91,769.985 2997.96,770.101 2998.66,770.333 C3001.13,765.995 3005.2,762.354 3010.86,759.41 C3018.76,755.304 3026.78,753.25 3034.91,753.25 C3041.34,753.25 3044.56,755.652 3044.56,760.456 C3044.56,764.484 3042.39,766.499 3038.05,766.499 C3034.95,766.499 3032.01,765.801 3029.22,764.407 C3026.74,763.167 3024.11,762.547 3021.32,762.547 C3016.51,762.547 3009.42,765.685 3000.05,771.96 C3001.37,778.236 3002.03,785.557 3002.03,793.924 C3002.03,812.053 3000.17,821.118 2996.45,821.118"/>
<path class="Note" d="M2929.64,677.207 C2929.94,665.509 2936.41,655.127 2949.04,646.063 C2960.28,638.005 2972.56,633.977 2985.88,633.977 C3004.55,633.977 3021.02,641.298 3035.27,655.941 C3044.34,665.315 3048.87,676.936 3048.87,690.804 C3048.87,703.277 3045.54,712.845 3038.87,719.508 C3030.74,727.72 3022.14,731.826 3013.07,731.826 C3006.88,731.826 3002.07,730.432 2998.66,727.643 C2993.09,723.072 2990.3,716.951 2990.3,709.281 C2990.3,699.365 2995.26,690.3 3005.17,682.088 C3013.31,675.348 3021.48,670.932 3029.69,668.84 C3027.52,665.121 3024.77,661.635 3021.44,658.381 C3011.06,648.232 2999.28,643.157 2986.11,643.157 C2972.4,643.157 2961.05,646.14 2952.06,652.106 C2942.77,658.226 2935.29,666.593 2929.64,677.207 M3032.6,674.999 C3028.34,678.95 3024.08,683.173 3019.81,687.666 C3011.45,696.498 3007.26,704.865 3007.26,712.768 C3007.26,721.212 3009.2,725.435 3013.07,725.435 C3016.56,725.435 3021.44,720.67 3027.72,711.141 C3032.75,703.548 3035.27,696.576 3035.27,690.223 C3035.27,684.8 3034.38,679.725 3032.6,674.999"/>
<path class="Note" d="M3213.63,498.624 C3213.94,486.926 3220.41,476.544 3233.04,467.48 C3244.27,459.423 3256.55,455.394 3269.88,455.394 C3288.55,455.394 3305.01,462.715 3319.27,477.358 C3328.33,486.732 3332.87,498.353 3332.87,512.221 C3332.87,524.694 3329.53,534.263 3322.87,540.925 C3314.74,549.138 3306.14,553.244 3297.07,553.244 C3290.87,553.244 3286.07,551.849 3282.66,549.06 C3277.08,544.489 3274.3,538.369 3274.3,530.699 C3274.3,520.782 3279.25,511.718 3289.17,503.505 C3297.3,496.765 3305.48,492.349 3313.69,490.257 C3311.52,486.539 3308.77,483.052 3305.44,479.798 C3295.06,469.649 3283.28,464.575 3270.11,464.575 C3256.4,464.575 3245.05,467.557 3236.06,473.523 C3226.76,479.643 3219.29,488.011 3213.63,498.624 M3316.6,496.416 C3312.33,500.368 3308.07,504.59 3303.81,509.083 C3295.45,517.916 3291.26,526.283 3291.26,534.185 C3291.26,542.63 3293.2,546.852 3297.07,546.852 C3300.56,546.852 3305.44,542.087 3311.72,532.558 C3316.75,524.966 3319.27,517.993 3319.27,511.64 C3319.27,506.217 3318.38,501.142 3316.6,496.416"/>
<path class="Note" d="M3597.17,587.916 C3597.48,576.217 3603.95,565.836 3616.58,556.771 C3627.81,548.714 3640.09,544.685 3653.42,544.685 C3672.09,544.685 3688.55,552.007 3702.81,566.649 C3711.87,576.024 3716.4,587.645 3716.4,601.513 C3716.4,613.986 3713.07,623.554 3706.41,630.217 C3698.28,638.429 3689.68,642.535 3680.61,642.535 C3674.41,642.535 3669.61,641.14 3666.2,638.351 C3660.62,633.78 3657.83,627.66 3657.83,619.99 C3657.83,610.073 3662.79,601.009 3672.71,592.797 C3680.84,586.056 3689.02,581.64 3697.23,579.549 C3695.06,575.83 3692.31,572.344 3688.98,569.09 C3678.6,558.941 3666.82,553.866 3653.65,553.866 C3639.94,553.866 3628.59,556.849 3619.6,562.814 C3610.3,568.935 3602.83,577.302 3597.17,587.916 M3700.14,585.708 C3695.87,589.659 3691.61,593.881 3687.35,598.375 C3678.98,607.207 3674.8,615.574 3674.8,623.476 C3674.8,631.921 3676.74,636.143 3680.61,636.143 C3684.1,636.143 3688.98,631.379 3695.25,621.849 C3700.29,614.257 3702.81,607.284 3702.81,600.931 C3702.81,595.508 3701.92,590.434 3700.14,585.708"/>
<path class="Note" d="M3723.14,829.061 C3727.47,826.117 3730.61,823.677 3732.55,821.74 C3736.11,817.944 3737.89,814.457 3737.89,811.281 C3737.89,807.64 3735.88,805.819 3731.85,805.819 C3724.03,805.819 3715.66,812.714 3706.75,826.505 C3704.04,830.688 3698.07,844.324 3688.85,867.411 C3696.21,875.003 3699.89,879.303 3699.89,880.31 C3699.89,881.705 3699,882.402 3697.22,882.402 C3695.83,882.402 3691.99,880.039 3685.72,875.313 C3678.9,891.195 3668.56,904.753 3654.69,915.987 C3640.51,927.453 3623.58,933.186 3603.9,933.186 C3596.39,933.186 3586.98,931.443 3575.66,927.957 C3566.6,925.168 3562.07,920.713 3562.07,914.593 C3562.07,905.528 3565.55,900.996 3572.53,900.996 C3576.71,900.996 3578.8,902.933 3578.8,906.806 C3578.8,908.046 3577.83,909.363 3575.9,910.758 C3574.89,911.455 3574.39,912.811 3574.39,914.825 C3574.39,917.227 3577.06,919.706 3582.4,922.263 C3588.22,925.052 3596.74,926.446 3607.97,926.446 C3622.46,926.446 3636.44,920.171 3649.92,907.62 C3662.16,896.231 3670.96,882.983 3676.3,867.876 C3674.21,866.171 3671.96,864.312 3669.56,862.298 C3662.13,857.882 3658.41,853.349 3658.41,848.701 C3658.41,846.764 3659.68,845.796 3662.24,845.796 C3665.65,845.796 3670.26,848.701 3676.07,854.512 C3677.31,855.751 3678.47,856.913 3679.56,857.998 C3682.27,850.56 3686.61,841.109 3692.57,829.642 C3703.34,808.879 3716.43,798.498 3731.85,798.498 C3737.35,798.498 3741.69,799.544 3744.87,801.636 C3748.04,803.727 3749.63,806.594 3749.63,810.235 C3749.63,816.046 3747.5,820.965 3743.24,824.994 C3738.82,829.178 3734.21,831.269 3729.41,831.269 C3725.23,831.269 3723.14,830.533 3723.14,829.061"/>
<path class="Note" d="M3744.05,794.854 C3737.7,804.848 3727.67,813.138 3713.96,819.723 C3702.02,825.456 3690.87,828.323 3680.49,828.323 C3672.2,828.323 3665.3,826.657 3659.8,823.326 C3653.84,819.684 3650.85,815.346 3650.85,810.31 C3650.85,798.921 3653.84,789.121 3659.8,780.909 C3667.94,769.752 3676.15,764.174 3684.44,764.174 C3690.33,764.174 3694.51,765.336 3696.99,767.661 C3700.4,770.682 3702.1,774.827 3702.1,780.095 C3702.1,787.533 3696.56,794.002 3685.48,799.502 C3674.71,804.848 3667.24,808.334 3663.05,809.961 C3663.98,811.898 3665.19,813.641 3666.66,815.191 C3670.3,819.065 3675.26,821.001 3681.53,821.001 C3689.43,821.001 3700.05,818.096 3713.37,812.286 C3726.16,806.63 3736.38,800.819 3744.05,794.854 M3661.43,804.616 C3667.24,801.672 3672.55,798.224 3677.35,794.273 C3684.48,788.462 3688.04,782.187 3688.04,775.447 C3688.04,771.651 3686.3,769.752 3682.81,769.752 C3679.87,769.752 3675.84,773.123 3670.72,779.863 C3664.29,788.23 3661.08,795.048 3661.08,800.316 C3661.08,801.788 3661.2,803.221 3661.43,804.616"/>
<path class="Note" d="M3597.17,677.207 C3597.48,665.509 3603.95,655.127 3616.58,646.063 C3627.81,638.005 3640.09,633.977 3653.42,633.977 C3672.09,633.977 3688.55,641.298 3702.81,655.941 C3711.87,665.315 3716.4,676.936 3716.4,690.804 C3716.4,703.277 3713.07,712.845 3706.41,719.508 C3698.28,727.72 3689.68,731.826 3680.61,731.826 C3674.41,731.826 3669.61,730.432 3666.2,727.643 C3660.62,723.072 3657.83,716.951 3657.83,709.281 C3657.83,699.365 3662.79,690.3 3672.71,682.088 C3680.84,675.348 3689.02,670.932 3697.23,668.84 C3695.06,665.121 3692.31,661.635 3688.98,658.381 C3678.6,648.232 3666.82,643.157 3653.65,643.157 C3639.94,643.157 3628.59,646.14 3619.6,652.106 C3610.3,658.226 3602.83,666.593 3597.17,677.207 M3700.14,674.999 C3695.87,678.95 3691.61,683.173 3687.35,687.666 C3678.98,696.498 3674.8,704.865 3674.8,712.768 C3674.8,721.212 3676.74,725.435 3680.61,725.435 C3684.1,725.435 3688.98,720.67 3695.25,711.141 C3700.29,703.548 3702.81,696.576 3702.81,690.223 C3702.81,684.8 3701.92,679.725 3700.14,674.999"/>
<path class="Clef" transform="matrix(2.3811,0,0,2.3811,212.156,2158.79)" d="M25.4,-25.1 C17.8,-25.1 11.7,-20.7 11.6,-20.7 C5.8,-16.4 3.5,-11.3 2.6,-7.8 C2.1,-6 1.9,-4.2 1.9,-2.5 C1.9,-0.1 2.3,2.1 3.2,4 C4.4,6.7 6.7,8.6 9.7,9.6 C10.9,10 12.2,10.2 13.5,10.2 C15.7,10.2 18,9.6 19.9,8.5 C23,6.8 24.9,3.2 24.9,-0.7 C24.9,-4.2 23.1,-7.4 20.1,-9.3 C18,-10.7 16,-11.1 14.3,-11.1 C13.1,-11.1 12,-10.9 11.1,-10.6 C10.1,-10.2 8.4,-9.2 7.6,-8.5 C7.9,-10.4 9.1,-13.3 10.2,-14.9 C11.3,-16.5 13.5,-18.5 15.2,-19.4 C17.7,-20.8 20.9,-21.4 24.4,-21.4 C34.6,-21.4 39.6,-13.2 39.6,3.6 C39.6,12.9 36.1,21.8 33.1,27.7 C29.8,34.3 25.4,40.6 21.5,44.1 C11.1,53.6 1.3,58.1 1.2,58.1 C1.2,58.1 -0.3,59 0.1,60.5 C0.4,61.5 1.3,61.7 1.9,61.7 C2,61.7 2.3,61.6 2.4,61.6 C2.5,61.6 13.9,56.9 23,49.8 C28.1,46.1 32.7,42.1 36.7,37.8 C40.3,33.9 43.4,29.7 45.9,25.5 C50.3,18 52.8,10.2 52.8,3.5 C52.8,-4.8 50.6,-11.7 46.5,-16.6 C41.8,-22.2 34.7,-25.1 25.4,-25.1 M56.8,-12.4 C56.8,-9.6 59,-7.4 61.6,-7.4 C64.2,-7.4 66.4,-9.6 66.4,-12.4 C66.4,-15.2 64.2,-17.5 61.6,-17.5 C59,-17.5 56.8,-15.2 56.8,-12.4 M56.8,12.3 C56.8,15.1 59,17.4 61.6,17.4 C64.2,17.4 66.4,15.1 66.4,12.3 C66.4,9.5 64.2,7.2 61.6,7.2 C59,7.2 56.8,9.5 56.8,12.3"/>
<path class="Clef" transform="matrix(2.3811,0,0,2.3811,212.156,1570.39)" d="M63.37,-5.89004 C62.14,-11.32 59.5,-15.14 58.72,-16.1801 C55.5301,-20.45 51.52,-23.3 46.8301,-24.65 C43.72,-25.54 40.72,-25.65 38.3,-25.47 C37.2601,-31.4801 36.2601,-37.3601 35.35,-42.8101 C40.79,-48.97 44.42,-54.77 46.69,-59.07 C50.1601,-65.65 51.3101,-70.2301 51.3601,-70.4301 C53.0801,-75.64 53.44,-83.34 52.34,-91.55 C51.3301,-99.1 49.24,-105.81 46.89,-109.06 C45.8601,-110.49 44.8101,-111.22 43.77,-111.22 C42.55,-111.22 40.04,-109.98 37.15,-107.21 C34.85,-105.01 31.5801,-101.12 29.02,-95.1101 C26.02,-88.05 25.8101,-78.5601 26.1601,-71.84 C26.54,-64.57 27.65,-58.8801 27.6601,-58.8301 C27.6801,-58.74 27.94,-57.24 28.39,-54.67 C28.1601,-54.44 27.92,-54.22 27.67,-53.9801 C26.6301,-52.9801 25.44,-51.84 24.0601,-50.4601 C23.2,-49.6 22.25,-48.69 21.25,-47.72 C12.79,-39.57 0,-27.25 0,-8.1 C0,-3.4 0.9,1.01992 2.68008,5.02998 C4.27002,8.62998 6.57002,11.91 9.5,14.78 C17.2301,22.33 27.82,25.5399 34.8801,25.38 C37.8301,25.31 40.4601,25.0699 42.85,24.6199 C44.6801,34.2199 45.82,41.25 45.8601,46.5899 C45.9,53.1 44.25,57.0699 40.35,59.8399 C37.92,61.5699 35.1101,62.5199 32.0101,62.6699 C29.42,62.7899 27.1601,62.3199 25.7301,61.91 L25.72,61.91 C25.72,61.91 25.4301,61.83 25.42,61.63 C25.4101,61.45 25.7601,61.4 25.77,61.4 L25.79,61.4 C27.7101,60.96 31.2801,59.73 33.64,56.43 C35.44,53.91 36.3101,49.2899 34.47,45.35 C33.3601,42.96 30.85,40.01 25.2301,39.56 C22.74,39.36 20.47,39.8699 18.47,41.0699 C16.6601,42.15 15.1601,43.7899 14.1101,45.7899 C11.65,50.4899 12.1101,56.2199 15.24,60.06 C18.2,63.68 22.82,65.9899 28.25,66.5699 C29.1,66.66 29.95,66.7 30.8,66.7 C31.5101,66.7 32.22,66.6699 32.92,66.61 C31.72,66.9399 30.64,67.4899 29.77,68.25 C28.2801,69.5399 27.44,71.38 27.44,73.41 C27.44,75.28 28.0601,76.65 29.55,78.0399 C28.4101,78.5 27.55,78.98 26.79,79.56 C25.25,80.73 24.34,82.46 24.34,84.1899 C24.34,87.45 27.3,89.63 31.72,89.63 C37.1301,89.63 40.9101,86.63 40.9101,82.35 C40.9101,80.1199 39.9101,78.18 38.0801,76.83 C41.0101,75.6199 42.37,73.9399 42.37,71.56 C42.39,70.05 41.69,68.61 40.49,67.6899 C39.2801,66.7399 37.62,66.2399 35.69,66.2399 L35.5101,66.2399 C38.2801,65.7 40.92,64.7 43.2101,63.28 C46.87,60.71 48.99,56.73 49.67,51.1 C50.2301,46.46 49.84,40.55 48.44,32.48 C48.0801,30.3899 47.54,27.36 46.8801,23.6 C52.6301,21.68 56.79,18.11 60.5601,12.26 C63.85,6.51992 64.8,0.419922 63.37,-5.89004 M32.39,87.5399 C30.19,87.5399 28.7301,86.1199 28.7301,84.01 C28.7301,82.11 29.65,80.5 31.32,79.4699 C31.6801,79.66 31.77,79.71 32.1101,79.88 C33.3,80.48 33.3,80.48 33.55,80.63 L33.5601,80.6399 C35.47,81.73 36.25,82.76 36.25,84.18 C36.24,86.0899 34.59,87.5399 32.39,87.5399 M38.3101,71.63 C38.3101,73.2699 37.7301,74.3399 36.1801,75.53 C34.74,74.78 34.35,74.56 33.9801,74.3399 L33.8801,74.28 C32.3301,73.3399 31.85,72.66 31.85,71.4 C31.85,69.6 33.2301,68.3399 35.19,68.3399 C37.17,68.35 38.3101,69.55 38.3101,71.63 M33.15,-83.8101 C34.9301,-89.55 37.67,-92.8 39.6601,-94.5301 C41.4101,-96.05 43.0601,-96.7601 43.9801,-96.7601 C44.12,-96.7601 44.24,-96.74 44.34,-96.7101 C44.8,-96.57 45.3301,-96 45.8,-95.1301 C48.1101,-90.84 47.37,-84.1301 46.0301,-79.69 C44.4,-74.29 41.4801,-68.6801 32.69,-59.0601 C32.52,-60.17 32.3601,-61.22 32.2101,-62.2 C30.95,-70.49 31.27,-77.7601 33.15,-83.8101 M29.15,20.31 C24.5101,19.0899 20.0801,16.5899 16.32,13.0899 C15.0101,11.86 13.14,9.68994 11.67,6.3 C10.3101,3.13994 9.65,-0.290039 9.7,-3.88008 C9.77002,-8.57002 11.0801,-13.39 13.59,-18.1801 C16.5101,-23.7601 21.07,-29.29 27.1301,-34.62 C28.5801,-35.9 29.95,-37.1801 31.24,-38.4601 C32,-34.2 32.8301,-29.5101 33.7101,-24.6301 C29.8601,-23.3601 25.1101,-20.2101 22,-14.5601 C18.47,-7.99004 18.6101,-2.47002 19.34,1.00996 C20.2801,5.46992 22.8101,9.22998 26.27,11.3199 C27.2,11.88 31.3301,14.01 33.17,13.43 C33.54,13.31 33.8101,13.0899 33.95,12.76 C34.4601,11.5899 33.44,10.95 31.8801,9.98994 C31.2801,9.61992 30.6101,9.2 29.8801,8.66992 C26.5601,6.17998 25.1101,1.72998 26.1801,-2.65 C26.7601,-5.05 28.04,-7.21006 29.8801,-8.91006 C31.55,-10.4601 33.59,-11.5601 35.97,-12.2 C38.0101,-0.960059 40.07,10.1899 41.7101,18.55 C41.84,19.2399 41.9801,19.91 42.1101,20.58 C37.7101,21.51 33.37,21.4199 29.15,20.31 M54.9,10.1 C53.7301,13.28 51.27,17.35 46.14,19.41 C46.07,18.9899 45.99,18.56 45.9101,18.13 C44.3601,9.36992 42.4301,-1.61006 40.47,-12.87 C50.82,-13.35 55.09,-5.91006 55.9801,-1.08008 C56.45,1.45 56.45,5.88994 54.9,10.1"/>
<path class="KeySig" transform="matrix(2.3811,0,0,2.3811,429.785,2158.79)" d="M23.3,-10.6 C23.9,-10.7 24.4,-11.4 24.4,-12 L24.4,-17.9 C24.4,-18.7 23.8,-19.3 23,-19.3 L22.8,-19.3 L19.5,-18.6 L19.5,-33.5 L16.7,-33.5 L16.7,-18 L7.8,-16.2 L7.8,-30.3 L5,-30.3 L5,-15.6 L1.1,-14.8 C0.5,-14.7 0,-14 0,-13.4 L0,-13.2 L0,-7.4 L0,-7.6 C0,-6.8 0.6,-6.2 1.4,-6.2 L1.7,-6.2 L5,-6.9 L5,9.6 L1.1,10.4 C0.5,10.5 0,11.2 0,11.8 L0,17.6 C0,18.4 0.6,19 1.4,19 L1.7,19 L5,18.3 L5,33.2 L7.8,33.2 L7.8,17.7 L16.7,15.9 L16.7,30 L19.5,30 L19.5,15.3 L23.3,14.6 C23.9,14.5 24.4,13.8 24.4,13.2 L24.4,7.3 C24.4,6.5 23.8,5.9 23,5.9 L22.8,5.9 L19.5,6.6 L19.5,-9.9 L23.3,-10.6 M7.8,9.1 L7.8,-7.5 L16.7,-9.3 L16.7,7.2 L7.8,9.1 "/>
<path class="KeySig" transform="matrix(2.3811,0,0,2.3811,429.785,1391.81)" d="M23.3,-10.6 C23.9,-10.7 24.4,-11.4 24.4,-12 L24.4,-17.9 C24.4,-18.7 23.8,-19.3 23,-19.3 L22.8,-19.3 L19.5,-18.6 L19.5,-33.5 L16.7,-33.5 L16.7,-18 L7.8,-16.2 L7.8,-30.3 L5,-30.3 L5,-15.6 L1.1,-14.8 C0.5,-14.7 0,-14 0,-13.4 L0,-13.2 L0,-7.4 L0,-7.6 C0,-6.8 0.6,-6.2 1.4,-6.2 L1.7,-6.2 L5,-6.9 L5,9.6 L1.1,10.4 C0.5,10.5 0,11.2 0,11.8 L0,17.6 C0,18.4 0.6,19 1.4,19 L1.7,19 L5,18.3 L5,33.2 L7.8,33.2 L7.8,17.7 L16.7,15.9 L16.7,30 L19.5,30 L19.5,15.3 L23.3,14.6 C23.9,14.5 24.4,13.8 24.4,13.2 L24.4,7.3 C24.4,6.5 23.8,5.9 23,5.9 L22.8,5.9 L19.5,6.6 L19.5,-9.9 L23.3,-10.6 M7.8,9.1 L7.8,-7.5 L16.7,-9.3 L16.7,7.2 L7.8,9.1 "/>
<path class="FiguredBass" d="M1797.3,2472.56 C1792.73,2472.56 1789.68,2474.4 1788.16,2478.08 C1786.65,2481.76 1785.89,2486.97 1785.89,2493.71 L1785.89,2504.66 C1789.11,2503.36 1791.89,2502.68 1794.24,2502.62 C1802.28,2502.62 1808.61,2504.4 1813.21,2507.95 C1817.82,2511.51 1820.12,2516.8 1820.12,2523.82 C1820.12,2530.84 1817.79,2536.14 1813.12,2539.73 C1808.45,2543.32 1802.16,2545.11 1794.24,2545.11 C1786.14,2545.11 1779.8,2541.35 1775.22,2533.84 C1770.65,2526.32 1768.36,2517.4 1768.36,2507.07 C1768.36,2496.81 1771.02,2487.9 1776.34,2480.35 C1781.65,2472.81 1788.64,2469.04 1797.3,2469.04 C1802.99,2469.04 1807.91,2470.47 1812.05,2473.35 C1816.2,2476.23 1818.27,2480.01 1818.27,2484.71 C1818.27,2487.44 1817.28,2489.79 1815.3,2491.76 C1813.32,2493.74 1810.96,2494.73 1808.2,2494.73 C1805.45,2494.73 1803.09,2493.74 1801.11,2491.76 C1799.13,2489.79 1798.14,2487.44 1798.14,2484.71 C1798.14,2482.05 1799.13,2479.7 1801.11,2477.66 C1801.79,2476.86 1802.74,2476.18 1803.98,2475.62 C1803.67,2474.82 1803.05,2474.2 1802.13,2473.77 C1800.77,2472.96 1799.16,2472.56 1797.3,2472.56 M1801.85,2510.5 C1800.73,2507.6 1798.29,2506.14 1794.52,2506.14 C1790.75,2506.14 1788.41,2507.6 1787.51,2510.5 C1786.62,2513.41 1786.17,2517.83 1786.17,2523.77 C1786.17,2530.76 1786.62,2535.46 1787.51,2537.87 C1788.41,2540.29 1790.75,2541.49 1794.52,2541.49 C1798.29,2541.49 1800.73,2540.04 1801.85,2537.13 C1802.96,2534.22 1803.52,2529.79 1803.52,2523.82 C1803.52,2517.85 1802.96,2513.41 1801.85,2510.5"/>
<path class="FiguredBass" d="M1796.65,2576.73 C1799,2576.73 1801.48,2576.39 1804.07,2575.71 L1808.25,2574.6 C1809.05,2574.6 1809.69,2574.91 1810.15,2575.53 C1810.62,2576.15 1810.57,2576.7 1810.01,2577.2 L1766.87,2627.39 L1792.2,2627.39 L1792.2,2607.53 C1792.2,2606.11 1792.59,2605.01 1793.36,2604.24 C1794.13,2603.47 1795.12,2602.85 1796.33,2602.39 C1797.53,2601.92 1799.11,2600.55 1801.06,2598.26 C1803.01,2595.97 1804.88,2592.88 1806.67,2588.98 C1806.98,2588.36 1807.45,2588.05 1808.06,2588.05 C1809.36,2588.05 1810.01,2588.76 1810.01,2590.19 L1810.01,2627.39 L1820.96,2627.39 C1822.51,2627.39 1823.28,2628.1 1823.28,2629.52 C1823.28,2631.07 1822.51,2631.84 1820.96,2631.84 L1810.01,2631.84 L1810.01,2633.05 C1810.01,2636.88 1811.03,2640.22 1813.07,2643.07 C1815.11,2645.91 1817.74,2647.33 1820.96,2647.33 C1822.2,2647.33 1822.81,2647.89 1822.81,2649 C1822.81,2650.24 1822.2,2650.86 1820.96,2650.86 C1818.73,2650.86 1815.42,2650.53 1811.03,2649.89 C1806.64,2649.24 1803.32,2648.91 1801.06,2648.91 C1798.8,2648.91 1795.48,2649.24 1791.09,2649.89 C1786.7,2650.53 1783.39,2650.86 1781.16,2650.86 C1779.92,2650.86 1779.3,2650.24 1779.3,2649 C1779.3,2647.89 1779.92,2647.33 1781.16,2647.33 C1784.38,2647.33 1787.02,2645.91 1789.09,2643.07 C1791.16,2640.22 1792.2,2636.88 1792.2,2633.05 L1792.2,2631.84 L1766.87,2631.84 C1765.26,2631.84 1764.07,2631.45 1763.3,2630.68 C1762.53,2629.91 1762.14,2629.12 1762.14,2628.32 C1762.14,2628.01 1762.87,2626.94 1764.32,2625.11 C1765.77,2623.29 1767.55,2620.86 1769.66,2617.83 C1771.76,2614.8 1773.85,2611.35 1775.92,2607.49 C1777.99,2603.62 1779.75,2598.98 1781.21,2593.57 C1782.66,2588.16 1783.39,2582.7 1783.39,2577.2 C1783.39,2575.59 1784.07,2574.79 1785.43,2574.79 C1785.61,2574.79 1786.26,2574.94 1787.38,2575.25 C1788.49,2575.56 1789.91,2575.88 1791.64,2576.22 C1793.37,2576.56 1795.04,2576.73 1796.65,2576.73"/>
<path class="FiguredBass" d="M2357.06,2470.98 C2359.41,2470.98 2361.89,2470.64 2364.48,2469.96 L2368.66,2468.85 C2369.46,2468.85 2370.1,2469.16 2370.56,2469.78 C2371.03,2470.4 2370.98,2470.95 2370.42,2471.45 L2327.28,2521.64 L2352.61,2521.64 L2352.61,2501.78 C2352.61,2500.36 2353,2499.26 2353.77,2498.49 C2354.54,2497.72 2355.53,2497.1 2356.74,2496.64 C2357.94,2496.17 2359.52,2494.8 2361.47,2492.51 C2363.42,2490.22 2365.29,2487.13 2367.08,2483.23 C2367.39,2482.61 2367.86,2482.3 2368.47,2482.3 C2369.77,2482.3 2370.42,2483.01 2370.42,2484.44 L2370.42,2521.64 L2381.37,2521.64 C2382.92,2521.64 2383.69,2522.35 2383.69,2523.77 C2383.69,2525.32 2382.92,2526.09 2381.37,2526.09 L2370.42,2526.09 L2370.42,2527.3 C2370.42,2531.13 2371.44,2534.47 2373.48,2537.32 C2375.52,2540.16 2378.15,2541.58 2381.37,2541.58 C2382.61,2541.58 2383.22,2542.14 2383.22,2543.25 C2383.22,2544.49 2382.61,2545.11 2381.37,2545.11 C2379.14,2545.11 2375.83,2544.78 2371.44,2544.14 C2367.05,2543.49 2363.73,2543.16 2361.47,2543.16 C2359.21,2543.16 2355.89,2543.49 2351.5,2544.14 C2347.11,2544.78 2343.8,2545.11 2341.57,2545.11 C2340.33,2545.11 2339.71,2544.49 2339.71,2543.25 C2339.71,2542.14 2340.33,2541.58 2341.57,2541.58 C2344.79,2541.58 2347.43,2540.16 2349.5,2537.32 C2351.57,2534.47 2352.61,2531.13 2352.61,2527.3 L2352.61,2526.09 L2327.28,2526.09 C2325.67,2526.09 2324.48,2525.7 2323.71,2524.93 C2322.94,2524.16 2322.55,2523.37 2322.55,2522.57 C2322.55,2522.26 2323.28,2521.19 2324.73,2519.36 C2326.18,2517.54 2327.96,2515.11 2330.07,2512.08 C2332.17,2509.05 2334.26,2505.6 2336.33,2501.74 C2338.4,2497.87 2340.16,2493.23 2341.62,2487.82 C2343.07,2482.41 2343.8,2476.95 2343.8,2471.45 C2343.8,2469.84 2344.48,2469.04 2345.84,2469.04 C2346.02,2469.04 2346.67,2469.19 2347.79,2469.5 C2348.9,2469.81 2350.32,2470.13 2352.05,2470.47 C2353.78,2470.81 2355.45,2470.98 2357.06,2470.98"/>
<path class="FiguredBass" d="M3020.97,2504.75 C3020.97,2505.74 3021.53,2506.7 3022.64,2507.63 C3023.75,2508.56 3024.97,2509.44 3026.3,2510.27 C3027.63,2511.11 3028.85,2512.68 3029.97,2515 C3031.08,2517.32 3031.64,2520.25 3031.64,2523.77 C3031.64,2530.57 3029.07,2535.83 3023.94,2539.54 C3018.8,2543.25 3012.31,2545.11 3004.45,2545.11 C2998.15,2545.11 2992.66,2543.53 2987.99,2540.38 C2983.32,2537.22 2980.98,2533.08 2980.98,2527.95 C2980.98,2525.22 2981.97,2522.86 2983.95,2520.85 C2985.93,2518.84 2988.3,2517.83 2991.05,2517.83 C2993.8,2517.83 2996.14,2518.82 2998.05,2520.8 C2999.97,2522.78 3000.93,2525.16 3000.93,2527.95 C3000.93,2529.18 2999.91,2530.53 2997.87,2531.98 C2995.83,2533.44 2994.81,2534.78 2994.81,2536.02 C2994.81,2537.93 2995.75,2539.34 2997.64,2540.24 C2999.52,2541.14 3001.8,2541.58 3004.45,2541.58 C3007.92,2541.58 3010.38,2539.87 3011.83,2536.43 C3013.28,2533 3014.01,2528.78 3014.01,2523.77 L3014.01,2521.36 C3014.01,2518.02 3013.9,2515.48 3013.69,2513.75 C3013.47,2512.02 3012.79,2510.47 3011.64,2509.11 C3010.5,2507.75 3008.75,2507.07 3006.4,2507.07 L2994.25,2507.07 C2992.83,2507.07 2992.12,2506.3 2992.12,2504.75 C2992.12,2503.33 2992.83,2502.62 2994.25,2502.62 L3006.4,2502.62 C3008.94,2502.62 3010.92,2501.66 3012.34,2499.74 C3012.84,2499.06 3013.24,2497.95 3013.55,2496.4 C3013.86,2494.36 3014.01,2491.42 3014.01,2487.59 L3014.01,2486.38 C3014.01,2477.17 3010.61,2472.56 3003.81,2472.56 C2997.81,2472.56 2994.81,2474.23 2994.81,2477.57 C2994.81,2478.68 2995.72,2479.87 2997.54,2481.14 C2999.37,2482.41 3000.28,2483.6 3000.28,2484.71 C3000.28,2487.13 2999.43,2489.2 2997.73,2490.93 C2996.03,2492.66 2993.96,2493.53 2991.51,2493.53 C2989.07,2493.53 2987.01,2492.66 2985.34,2490.93 C2983.67,2489.2 2982.84,2487.13 2982.84,2484.71 C2982.84,2479.95 2984.91,2476.15 2989.05,2473.3 C2993.2,2470.46 2998.12,2469.04 3003.81,2469.04 C3011.29,2469.04 3017.44,2470.47 3022.27,2473.35 C3027.09,2476.23 3029.5,2480.57 3029.5,2486.38 C3029.5,2490.53 3029.07,2493.74 3028.2,2496.03 C3027.34,2498.32 3026.35,2499.71 3025.24,2500.21 C3024.12,2500.7 3023.13,2501.27 3022.27,2501.92 C3021.4,2502.57 3020.97,2503.52 3020.97,2504.75"/>
<path class="FiguredBass" d="M3269.99,2475.9 C3270.18,2475.9 3270.58,2475.5 3271.2,2474.69 C3273.86,2470.92 3277.57,2469.04 3282.33,2469.04 C3286.16,2469.04 3289.78,2470.46 3293.18,2473.3 C3296.59,2476.15 3299.4,2477.57 3301.63,2477.57 C3304.04,2477.57 3306.33,2476.86 3308.49,2475.44 C3310.66,2474.01 3312.37,2472.59 3313.64,2471.17 C3314.91,2469.75 3315.73,2469.04 3316.1,2469.04 C3316.72,2469.04 3317.27,2469.24 3317.77,2469.64 C3318.26,2470.04 3318.51,2470.55 3318.51,2471.17 C3318.51,2471.6 3317.24,2473.74 3314.71,2477.57 C3312.17,2481.4 3309.36,2485.84 3306.27,2490.88 C3303.17,2495.92 3300.36,2502.22 3297.82,2509.76 C3295.29,2517.31 3294.02,2524.51 3294.02,2531.38 C3294.02,2534.04 3294.3,2537.1 3294.85,2540.56 C3295.29,2543.22 3295.29,2544.74 3294.85,2545.11 C3294.54,2545.42 3294.02,2545.57 3293.28,2545.57 C3292.97,2545.57 3291.53,2545.17 3288.96,2544.37 C3286.4,2543.56 3283.94,2543.16 3281.59,2543.16 C3279.48,2543.16 3277.06,2543.56 3274.3,2544.37 C3271.55,2545.17 3270.02,2545.57 3269.71,2545.57 C3269.03,2545.57 3268.48,2545.29 3268.04,2544.74 C3267.61,2544.18 3267.55,2543.59 3267.86,2542.98 C3271.51,2534.25 3275.94,2525.77 3281.17,2517.51 C3286.4,2509.25 3292.94,2499.74 3300.79,2488.98 C3297.82,2490.59 3294.82,2491.39 3291.79,2491.39 C3288.58,2491.39 3285.33,2489.96 3282.05,2487.08 C3278.77,2484.2 3276.08,2482.77 3273.98,2482.77 C3272.43,2482.77 3271.09,2483.65 3269.94,2485.41 C3268.8,2487.17 3268.23,2489.82 3268.23,2493.34 L3268.23,2504.75 C3268.23,2506.3 3267.52,2507.07 3266.09,2507.07 C3264.55,2507.07 3263.78,2506.3 3263.78,2504.75 L3263.78,2471.35 C3263.78,2469.81 3264.55,2469.04 3266.09,2469.04 C3267.52,2469.04 3268.23,2469.81 3268.23,2471.35 L3268.23,2473.49 C3268.23,2473.98 3268.35,2474.42 3268.6,2474.79 C3269.34,2475.53 3269.81,2475.9 3269.99,2475.9"/>
<path class="FiguredBass" d="M3293,2632.58 C3292.32,2633.33 3291.43,2633.7 3290.31,2633.7 C3289.2,2633.7 3288.29,2633.31 3287.58,2632.54 C3286.87,2631.76 3286.51,2630.88 3286.51,2629.89 L3286.51,2616.63 L3273.24,2616.63 C3272.13,2616.63 3271.22,2616.24 3270.51,2615.47 C3269.79,2614.69 3269.44,2613.81 3269.44,2612.82 C3269.44,2611.83 3269.79,2610.95 3270.51,2610.18 C3271.22,2609.41 3272.13,2609.02 3273.24,2609.02 L3286.51,2609.02 L3286.51,2595.75 C3286.51,2594.76 3286.87,2593.88 3287.58,2593.11 C3288.29,2592.33 3289.2,2591.95 3290.31,2591.95 C3291.43,2591.95 3292.34,2592.33 3293.05,2593.11 C3293.76,2593.88 3294.12,2594.76 3294.12,2595.75 L3294.12,2609.02 L3307.38,2609.02 C3308.5,2609.02 3309.41,2609.41 3310.12,2610.18 C3310.83,2610.95 3311.19,2611.83 3311.19,2612.82 C3311.19,2613.81 3310.83,2614.69 3310.12,2615.47 C3309.41,2616.24 3308.5,2616.63 3307.38,2616.63 L3294.12,2616.63 L3294.12,2629.89 C3294.12,2630.88 3293.75,2631.78 3293,2632.58"/>
<path class="FiguredBass" d="M1805.65,1793.87 C1810.6,1788.49 1813.07,1783.29 1813.07,1778.28 C1813.07,1774.2 1811.33,1770.98 1807.83,1768.63 C1804.34,1766.28 1800.15,1765.11 1795.26,1765.11 C1791.8,1765.11 1789.03,1766.19 1786.96,1768.35 C1784.89,1770.52 1783.85,1773.02 1783.85,1775.87 C1783.85,1779.33 1785.37,1781.96 1788.4,1783.75 L1805.65,1793.87 M1810.2,1796.46 C1818.61,1801.35 1822.81,1807.78 1822.81,1815.76 C1822.81,1821.76 1820.25,1826.91 1815.11,1831.21 C1809.98,1835.51 1802.96,1837.66 1794.06,1837.66 C1786.57,1837.66 1780.06,1835.68 1774.53,1831.72 C1768.99,1827.76 1766.22,1822.63 1766.22,1816.32 C1766.22,1813.97 1766.9,1811.59 1768.26,1809.17 C1769.62,1806.76 1770.89,1804.95 1772.07,1803.75 C1773.24,1802.54 1775.16,1800.67 1777.82,1798.13 C1771.63,1793.87 1768.54,1788.49 1768.54,1781.99 C1768.54,1776.43 1770.92,1771.63 1775.69,1767.61 C1780.45,1763.59 1786.97,1761.58 1795.26,1761.58 C1801.88,1761.58 1807.62,1763.08 1812.47,1766.08 C1817.33,1769.08 1819.75,1773.15 1819.75,1778.28 C1819.75,1783.79 1816.57,1789.85 1810.2,1796.46 M1782.37,1800.83 C1776.06,1806.33 1772.9,1811.49 1772.9,1816.32 C1772.9,1821.39 1775.01,1825.63 1779.21,1829.03 C1783.42,1832.43 1788.37,1834.13 1794.06,1834.13 C1798.01,1834.13 1801.18,1832.86 1803.56,1830.33 C1805.95,1827.79 1807.14,1824.85 1807.14,1821.51 C1807.14,1817.25 1805.37,1814.09 1801.85,1812.05 L1782.37,1800.83 "/>
<path class="FiguredBass" d="M1797.3,1870.86 C1792.73,1870.86 1789.68,1872.7 1788.16,1876.38 C1786.65,1880.06 1785.89,1885.27 1785.89,1892.01 L1785.89,1902.96 C1789.11,1901.66 1791.89,1900.98 1794.24,1900.92 C1802.28,1900.92 1808.61,1902.69 1813.21,1906.25 C1817.82,1909.81 1820.12,1915.09 1820.12,1922.11 C1820.12,1929.13 1817.79,1934.44 1813.12,1938.03 C1808.45,1941.61 1802.16,1943.41 1794.24,1943.41 C1786.14,1943.41 1779.8,1939.65 1775.22,1932.13 C1770.65,1924.62 1768.36,1915.7 1768.36,1905.37 C1768.36,1895.1 1771.02,1886.2 1776.34,1878.65 C1781.65,1871.1 1788.64,1867.33 1797.3,1867.33 C1802.99,1867.33 1807.91,1868.77 1812.05,1871.65 C1816.2,1874.52 1818.27,1878.31 1818.27,1883.01 C1818.27,1885.73 1817.28,1888.08 1815.3,1890.06 C1813.32,1892.04 1810.96,1893.03 1808.2,1893.03 C1805.45,1893.03 1803.09,1892.04 1801.11,1890.06 C1799.13,1888.08 1798.14,1885.73 1798.14,1883.01 C1798.14,1880.35 1799.13,1878 1801.11,1875.96 C1801.79,1875.16 1802.74,1874.48 1803.98,1873.92 C1803.67,1873.11 1803.05,1872.5 1802.13,1872.06 C1800.77,1871.26 1799.16,1870.86 1797.3,1870.86 M1801.85,1908.8 C1800.73,1905.89 1798.29,1904.44 1794.52,1904.44 C1790.75,1904.44 1788.41,1905.89 1787.51,1908.8 C1786.62,1911.71 1786.17,1916.13 1786.17,1922.07 C1786.17,1929.06 1786.62,1933.76 1787.51,1936.17 C1788.41,1938.58 1790.75,1939.79 1794.52,1939.79 C1798.29,1939.79 1800.73,1938.33 1801.85,1935.43 C1802.96,1932.52 1803.52,1928.08 1803.52,1922.11 C1803.52,1916.15 1802.96,1911.71 1801.85,1908.8"/>
<path class="FiguredBass" d="M1796.65,1975.03 C1799,1975.03 1801.48,1974.69 1804.07,1974.01 L1808.25,1972.9 C1809.05,1972.9 1809.69,1973.21 1810.15,1973.82 C1810.62,1974.44 1810.57,1975 1810.01,1975.49 L1766.87,2025.68 L1792.2,2025.68 L1792.2,2005.83 C1792.2,2004.41 1792.59,2003.31 1793.36,2002.54 C1794.13,2001.76 1795.12,2001.15 1796.33,2000.68 C1797.53,2000.22 1799.11,1998.84 1801.06,1996.55 C1803.01,1994.27 1804.88,1991.17 1806.67,1987.28 C1806.98,1986.66 1807.45,1986.35 1808.06,1986.35 C1809.36,1986.35 1810.01,1987.06 1810.01,1988.48 L1810.01,2025.68 L1820.96,2025.68 C1822.51,2025.68 1823.28,2026.4 1823.28,2027.82 C1823.28,2029.36 1822.51,2030.14 1820.96,2030.14 L1810.01,2030.14 L1810.01,2031.34 C1810.01,2035.18 1811.03,2038.52 1813.07,2041.36 C1815.11,2044.21 1817.74,2045.63 1820.96,2045.63 C1822.2,2045.63 1822.81,2046.19 1822.81,2047.3 C1822.81,2048.54 1822.2,2049.16 1820.96,2049.16 C1818.73,2049.16 1815.42,2048.83 1811.03,2048.18 C1806.64,2047.53 1803.32,2047.21 1801.06,2047.21 C1798.8,2047.21 1795.48,2047.53 1791.09,2048.18 C1786.7,2048.83 1783.39,2049.16 1781.16,2049.16 C1779.92,2049.16 1779.3,2048.54 1779.3,2047.3 C1779.3,2046.19 1779.92,2045.63 1781.16,2045.63 C1784.38,2045.63 1787.02,2044.21 1789.09,2041.36 C1791.16,2038.52 1792.2,2035.18 1792.2,2031.34 L1792.2,2030.14 L1766.87,2030.14 C1765.26,2030.14 1764.07,2029.75 1763.3,2028.98 C1762.53,2028.2 1762.14,2027.42 1762.14,2026.61 C1762.14,2026.3 1762.87,2025.24 1764.32,2023.41 C1765.77,2021.59 1767.55,2019.16 1769.66,2016.13 C1771.76,2013.1 1773.85,2009.65 1775.92,2005.78 C1777.99,2001.92 1779.75,1997.28 1781.21,1991.87 C1782.66,1986.46 1783.39,1981 1783.39,1975.49 C1783.39,1973.89 1784.07,1973.08 1785.43,1973.08 C1785.61,1973.08 1786.26,1973.24 1787.38,1973.55 C1788.49,1973.86 1789.91,1974.18 1791.64,1974.52 C1793.37,1974.86 1795.04,1975.03 1796.65,1975.03"/>
<path class="FiguredBass" d="M2366.06,1793.87 C2371.01,1788.49 2373.48,1783.29 2373.48,1778.28 C2373.48,1774.2 2371.74,1770.98 2368.24,1768.63 C2364.75,1766.28 2360.56,1765.11 2355.67,1765.11 C2352.21,1765.11 2349.44,1766.19 2347.37,1768.35 C2345.3,1770.52 2344.26,1773.02 2344.26,1775.87 C2344.26,1779.33 2345.78,1781.96 2348.81,1783.75 L2366.06,1793.87 M2370.61,1796.46 C2379.02,1801.35 2383.22,1807.78 2383.22,1815.76 C2383.22,1821.76 2380.66,1826.91 2375.52,1831.21 C2370.39,1835.51 2363.37,1837.66 2354.47,1837.66 C2346.98,1837.66 2340.47,1835.68 2334.94,1831.72 C2329.4,1827.76 2326.63,1822.63 2326.63,1816.32 C2326.63,1813.97 2327.31,1811.59 2328.67,1809.17 C2330.03,1806.76 2331.3,1804.95 2332.48,1803.75 C2333.65,1802.54 2335.57,1800.67 2338.23,1798.13 C2332.04,1793.87 2328.95,1788.49 2328.95,1781.99 C2328.95,1776.43 2331.33,1771.63 2336.1,1767.61 C2340.86,1763.59 2347.38,1761.58 2355.67,1761.58 C2362.29,1761.58 2368.03,1763.08 2372.88,1766.08 C2377.74,1769.08 2380.16,1773.15 2380.16,1778.28 C2380.16,1783.79 2376.98,1789.85 2370.61,1796.46 M2342.78,1800.83 C2336.47,1806.33 2333.31,1811.49 2333.31,1816.32 C2333.31,1821.39 2335.42,1825.63 2339.62,1829.03 C2343.83,1832.43 2348.78,1834.13 2354.47,1834.13 C2358.42,1834.13 2361.59,1832.86 2363.97,1830.33 C2366.36,1827.79 2367.55,1824.85 2367.55,1821.51 C2367.55,1817.25 2365.78,1814.09 2362.26,1812.05 L2342.78,1800.83 "/>
<path class="FiguredBass" d="M2335.08,1867.33 C2335.08,1867.33 2336.56,1867.55 2339.53,1867.98 C2340.83,1868.17 2342.28,1868.35 2343.89,1868.54 C2348.16,1869.03 2352.27,1869.28 2356.23,1869.28 C2360.19,1869.28 2364.36,1869.03 2368.75,1868.54 C2370.48,1868.35 2372,1868.17 2373.3,1867.98 L2377.84,1867.33 C2378.77,1867.33 2379.47,1867.64 2379.93,1868.26 C2380.4,1868.88 2380.35,1869.37 2379.79,1869.74 C2370.33,1879.21 2357,1883.94 2339.81,1883.94 C2339.13,1883.94 2338.52,1884.19 2338,1884.68 C2337.47,1885.18 2337.21,1885.79 2337.21,1886.54 L2337.21,1901.1 C2341.6,1896.77 2346.92,1894.61 2353.17,1894.61 C2362.2,1894.61 2369.17,1896.63 2374.09,1900.68 C2379,1904.74 2381.46,1910.87 2381.46,1919.1 C2381.46,1926.09 2378.68,1931.89 2373.11,1936.49 C2367.55,1941.1 2360.9,1943.41 2353.17,1943.41 C2346.49,1943.41 2340.69,1941.89 2335.77,1938.86 C2330.85,1935.83 2328.4,1931.62 2328.4,1926.24 C2328.4,1923.52 2329.39,1921.16 2331.36,1919.15 C2333.34,1917.14 2335.71,1916.13 2338.46,1916.13 C2341.21,1916.13 2343.55,1917.12 2345.47,1919.1 C2347.38,1921.08 2348.34,1923.46 2348.34,1926.24 C2348.34,1927.48 2347.32,1928.83 2345.28,1930.28 C2343.24,1931.73 2342.22,1933.08 2342.22,1934.31 C2342.22,1938.03 2345.87,1939.88 2353.17,1939.88 C2360.28,1939.88 2363.84,1932.95 2363.84,1919.1 C2363.84,1905.74 2360.28,1899.03 2353.17,1898.97 C2346.8,1898.97 2342.34,1900.27 2339.81,1902.86 C2337.27,1905.46 2335.69,1906.76 2335.08,1906.76 C2333.53,1906.76 2332.79,1905.99 2332.85,1904.44 L2332.85,1869.74 C2332.85,1869.06 2333.07,1868.49 2333.5,1868.03 C2333.93,1867.56 2334.46,1867.33 2335.08,1867.33"/>
<path class="FiguredBass" d="M2357.06,1975.03 C2359.41,1975.03 2361.89,1974.69 2364.48,1974.01 L2368.66,1972.9 C2369.46,1972.9 2370.1,1973.21 2370.56,1973.82 C2371.03,1974.44 2370.98,1975 2370.42,1975.49 L2327.28,2025.68 L2352.61,2025.68 L2352.61,2005.83 C2352.61,2004.41 2353,2003.31 2353.77,2002.54 C2354.54,2001.76 2355.53,2001.15 2356.74,2000.68 C2357.94,2000.22 2359.52,1998.84 2361.47,1996.55 C2363.42,1994.27 2365.29,1991.17 2367.08,1987.28 C2367.39,1986.66 2367.86,1986.35 2368.47,1986.35 C2369.77,1986.35 2370.42,1987.06 2370.42,1988.48 L2370.42,2025.68 L2381.37,2025.68 C2382.92,2025.68 2383.69,2026.4 2383.69,2027.82 C2383.69,2029.36 2382.92,2030.14 2381.37,2030.14 L2370.42,2030.14 L2370.42,2031.34 C2370.42,2035.18 2371.44,2038.52 2373.48,2041.36 C2375.52,2044.21 2378.15,2045.63 2381.37,2045.63 C2382.61,2045.63 2383.22,2046.19 2383.22,2047.3 C2383.22,2048.54 2382.61,2049.16 2381.37,2049.16 C2379.14,2049.16 2375.83,2048.83 2371.44,2048.18 C2367.05,2047.53 2363.73,2047.21 2361.47,2047.21 C2359.21,2047.21 2355.89,2047.53 2351.5,2048.18 C2347.11,2048.83 2343.8,2049.16 2341.57,2049.16 C2340.33,2049.16 2339.71,2048.54 2339.71,2047.3 C2339.71,2046.19 2340.33,2045.63 2341.57,2045.63 C2344.79,2045.63 2347.43,2044.21 2349.5,2041.36 C2351.57,2038.52 2352.61,2035.18 2352.61,2031.34 L2352.61,2030.14 L2327.28,2030.14 C2325.67,2030.14 2324.48,2029.75 2323.71,2028.98 C2322.94,2028.2 2322.55,2027.42 2322.55,2026.61 C2322.55,2026.3 2323.28,2025.24 2324.73,2023.41 C2326.18,2021.59 2327.96,2019.16 2330.07,2016.13 C2332.17,2013.1 2334.26,2009.65 2336.33,2005.78 C2338.4,2001.92 2340.16,1997.28 2341.62,1991.87 C2343.07,1986.46 2343.8,1981 2343.8,1975.49 C2343.8,1973.89 2344.48,1973.08 2345.84,1973.08 C2346.02,1973.08 2346.67,1973.24 2347.79,1973.55 C2348.9,1973.86 2350.32,1974.18 2352.05,1974.52 C2353.78,1974.86 2355.45,1975.03 2357.06,1975.03"/>
<path class="FiguredBass" d="M3301.44,1793.87 C3306.39,1788.49 3308.86,1783.29 3308.86,1778.28 C3308.86,1774.2 3307.12,1770.98 3303.62,1768.63 C3300.13,1766.28 3295.94,1765.11 3291.05,1765.11 C3287.59,1765.11 3284.82,1766.19 3282.75,1768.35 C3280.68,1770.52 3279.64,1773.02 3279.64,1775.87 C3279.64,1779.33 3281.15,1781.96 3284.19,1783.75 L3301.44,1793.87 M3305.99,1796.46 C3314.4,1801.35 3318.6,1807.78 3318.6,1815.76 C3318.6,1821.76 3316.04,1826.91 3310.9,1831.21 C3305.77,1835.51 3298.75,1837.66 3289.84,1837.66 C3282.36,1837.66 3275.85,1835.68 3270.32,1831.72 C3264.78,1827.76 3262.01,1822.63 3262.01,1816.32 C3262.01,1813.97 3262.69,1811.59 3264.05,1809.17 C3265.41,1806.76 3266.68,1804.95 3267.86,1803.75 C3269.03,1802.54 3270.95,1800.67 3273.61,1798.13 C3267.42,1793.87 3264.33,1788.49 3264.33,1781.99 C3264.33,1776.43 3266.71,1771.63 3271.48,1767.61 C3276.24,1763.59 3282.76,1761.58 3291.05,1761.58 C3297.67,1761.58 3303.4,1763.08 3308.26,1766.08 C3313.12,1769.08 3315.54,1773.15 3315.54,1778.28 C3315.54,1783.79 3312.36,1789.85 3305.99,1796.46 M3278.15,1800.83 C3271.85,1806.33 3268.69,1811.49 3268.69,1816.32 C3268.69,1821.39 3270.79,1825.63 3275,1829.03 C3279.21,1832.43 3284.15,1834.13 3289.84,1834.13 C3293.8,1834.13 3296.97,1832.86 3299.35,1830.33 C3301.73,1827.79 3302.93,1824.85 3302.93,1821.51 C3302.93,1817.25 3301.16,1814.09 3297.64,1812.05 L3278.15,1800.83 "/>
<path class="FiguredBass" d="M3269.99,1874.2 C3270.18,1874.2 3270.58,1873.8 3271.2,1872.99 C3273.86,1869.22 3277.57,1867.33 3282.33,1867.33 C3286.16,1867.33 3289.78,1868.75 3293.18,1871.6 C3296.59,1874.44 3299.4,1875.87 3301.63,1875.87 C3304.04,1875.87 3306.33,1875.16 3308.49,1873.73 C3310.66,1872.31 3312.37,1870.89 3313.64,1869.47 C3314.91,1868.04 3315.73,1867.33 3316.1,1867.33 C3316.72,1867.33 3317.27,1867.53 3317.77,1867.93 C3318.26,1868.34 3318.51,1868.85 3318.51,1869.47 C3318.51,1869.9 3317.24,1872.03 3314.71,1875.87 C3312.17,1879.7 3309.36,1884.14 3306.27,1889.18 C3303.17,1894.22 3300.36,1900.51 3297.82,1908.06 C3295.29,1915.61 3294.02,1922.81 3294.02,1929.68 C3294.02,1932.34 3294.3,1935.4 3294.85,1938.86 C3295.29,1941.52 3295.29,1943.04 3294.85,1943.41 C3294.54,1943.72 3294.02,1943.87 3293.28,1943.87 C3292.97,1943.87 3291.53,1943.47 3288.96,1942.66 C3286.4,1941.86 3283.94,1941.46 3281.59,1941.46 C3279.48,1941.46 3277.06,1941.86 3274.3,1942.66 C3271.55,1943.47 3270.02,1943.87 3269.71,1943.87 C3269.03,1943.87 3268.48,1943.59 3268.04,1943.04 C3267.61,1942.48 3267.55,1941.89 3267.86,1941.27 C3271.51,1932.55 3275.94,1924.06 3281.17,1915.81 C3286.4,1907.55 3292.94,1898.04 3300.79,1887.28 C3297.82,1888.89 3294.82,1889.69 3291.79,1889.69 C3288.58,1889.69 3285.33,1888.25 3282.05,1885.38 C3278.77,1882.5 3276.08,1881.06 3273.98,1881.06 C3272.43,1881.06 3271.09,1881.94 3269.94,1883.71 C3268.8,1885.47 3268.23,1888.11 3268.23,1891.64 L3268.23,1903.05 C3268.23,1904.6 3267.52,1905.37 3266.09,1905.37 C3264.55,1905.37 3263.78,1904.6 3263.78,1903.05 L3263.78,1869.65 C3263.78,1868.11 3264.55,1867.33 3266.09,1867.33 C3267.52,1867.33 3268.23,1868.11 3268.23,1869.65 L3268.23,1871.79 C3268.23,1872.28 3268.35,1872.71 3268.6,1873.08 C3269.34,1873.83 3269.81,1874.2 3269.99,1874.2"/>
<path class="FiguredBass" d="M3304.97,2008.8 C3304.97,2009.79 3305.52,2010.75 3306.64,2011.68 C3307.75,2012.6 3308.97,2013.48 3310.3,2014.32 C3311.63,2015.15 3312.85,2016.73 3313.97,2019.05 C3315.08,2021.37 3315.64,2024.29 3315.64,2027.82 C3315.64,2034.62 3313.07,2039.88 3307.94,2043.59 C3302.8,2047.3 3296.31,2049.16 3288.45,2049.16 C3282.14,2049.16 3276.66,2047.58 3271.99,2044.42 C3267.32,2041.27 3264.98,2037.13 3264.98,2031.99 C3264.98,2029.27 3265.97,2026.91 3267.95,2024.9 C3269.93,2022.89 3272.29,2021.88 3275.05,2021.88 C3277.8,2021.88 3280.13,2022.87 3282.05,2024.85 C3283.97,2026.83 3284.93,2029.21 3284.93,2031.99 C3284.93,2033.23 3283.91,2034.58 3281.87,2036.03 C3279.82,2037.48 3278.8,2038.83 3278.8,2040.06 C3278.8,2041.98 3279.75,2043.39 3281.63,2044.29 C3283.52,2045.18 3285.79,2045.63 3288.45,2045.63 C3291.92,2045.63 3294.37,2043.91 3295.83,2040.48 C3297.28,2037.05 3298.01,2032.83 3298.01,2027.82 L3298.01,2025.41 C3298.01,2022.07 3297.9,2019.53 3297.68,2017.8 C3297.47,2016.07 3296.79,2014.52 3295.64,2013.16 C3294.5,2011.8 3292.75,2011.12 3290.4,2011.12 L3278.25,2011.12 C3276.83,2011.12 3276.11,2010.35 3276.11,2008.8 C3276.11,2007.38 3276.83,2006.67 3278.25,2006.67 L3290.4,2006.67 C3292.94,2006.67 3294.92,2005.71 3296.34,2003.79 C3296.83,2003.11 3297.24,2002 3297.54,2000.45 C3297.85,1998.41 3298.01,1995.47 3298.01,1991.64 L3298.01,1990.43 C3298.01,1981.22 3294.61,1976.61 3287.8,1976.61 C3281.8,1976.61 3278.8,1978.28 3278.8,1981.62 C3278.8,1982.73 3279.72,1983.92 3281.54,1985.19 C3283.37,1986.46 3284.28,1987.65 3284.28,1988.76 C3284.28,1991.17 3283.43,1993.24 3281.73,1994.98 C3280.03,1996.71 3277.95,1997.57 3275.51,1997.57 C3273.07,1997.57 3271.01,1996.71 3269.34,1994.98 C3267.67,1993.24 3266.84,1991.17 3266.84,1988.76 C3266.84,1984 3268.91,1980.19 3273.05,1977.35 C3277.2,1974.5 3282.11,1973.08 3287.8,1973.08 C3295.29,1973.08 3301.44,1974.52 3306.27,1977.4 C3311.09,1980.27 3313.5,1984.62 3313.5,1990.43 C3313.5,1994.57 3313.07,1997.79 3312.2,2000.08 C3311.34,2002.37 3310.35,2003.76 3309.23,2004.25 C3308.12,2004.75 3307.13,2005.32 3306.27,2005.97 C3305.4,2006.62 3304.97,2007.56 3304.97,2008.8"/>
<path class="Bracket" transform="matrix(8.6315,0,0,9.45563,76.1283,2337.37)" d="M0.92002,-50 C2.69004,-51.88 6.2,-55.8 6.2,-63 C6.2,-72.1 2.25996,-81.32 2.25996,-86.97 C2.25996,-93.06 5.84004,-98.84 5.95,-99 C6.05996,-99.16 6.05,-99.39 5.94004,-99.46 C5.82998,-99.53 5.62002,-99.47 5.49004,-99.32 C5.35996,-99.17 0,-93.75 0,-85.6 C0,-76.75 3.5,-70.58 3.5,-59.07 C3.5,-56.89 2.55996,-53.36 0.1,-50.33 C-0.0799805,-50.17 -0.1,-49.89 0.0599609,-49.7 L0.0700195,-49.69 L0.1,-49.66 C2.55996,-46.63 3.5,-43.1 3.5,-40.92 C3.5,-29.4 0,-23.24 0,-14.39 C0,-6.25 5.35996,-0.8 5.49004,-0.659961 C5.62002,-0.52002 5.8,-0.42998 5.94004,-0.52002 C6.07998,-0.609961 6.07998,-0.77998 5.95,-0.97998 C5.82002,-1.17998 2.25996,-6.92002 2.25996,-13.01 C2.25996,-18.66 6.2,-27.9 6.2,-37 C6.2,-44.3 2.69004,-48.12 0.92002,-50"/>
</svg>
