<?xml version="1.0" encoding="UTF-8" standalone="no"?>
<svg width="4209.44px" height="2976.38px" viewBox="0 0 4209.44 2976.38"
 xmlns="http://www.w3.org/2000/svg" xmlns:xlink="http://www.w3.org/1999/xlink" version="1.2" baseProfile="tiny">
<title>SolMajeur (26)</title>
<desc>Generated by MuseScore 3.6.2</desc>
<polyline class="StaffLines" fill="none" stroke="#000000" stroke-width="6.55" stroke-linejoin="bevel" points="153.819,558.425 4138.58,558.425"/>
<polyline class="StaffLines" fill="none" stroke="#000000" stroke-width="6.55" stroke-linejoin="bevel" points="153.819,647.717 4138.58,647.717"/>
<polyline class="StaffLines" fill="none" stroke="#000000" stroke-width="6.55" stroke-linejoin="bevel" points="153.819,737.008 4138.58,737.008"/>
<polyline class="StaffLines" fill="none" stroke="#000000" stroke-width="6.55" stroke-linejoin="bevel" points="153.819,826.299 4138.58,826.299"/>
<polyline class="StaffLines" fill="none" stroke="#000000" stroke-width="6.55" stroke-linejoin="bevel" points="153.819,915.591 4138.58,915.591"/>
<polyline class="StaffLines" fill="none" stroke="#000000" stroke-width="6.55" stroke-linejoin="bevel" points="153.819,1004.88 4138.58,1004.88"/>
<polyline class="StaffLines" fill="none" stroke="#000000" stroke-width="6.55" stroke-linejoin="bevel" points="153.819,1391.81 4138.58,1391.81"/>
<polyline class="StaffLines" fill="none" stroke="#000000" stroke-width="6.55" stroke-linejoin="bevel" points="153.819,1451.34 4138.58,1451.34"/>
<polyline class="StaffLines" fill="none" stroke="#000000" stroke-width="6.55" stroke-linejoin="bevel" points="153.819,1510.87 4138.58,1510.87"/>
<polyline class="StaffLines" fill="none" stroke="#000000" stroke-width="6.55" stroke-linejoin="bevel" points="153.819,1570.39 4138.58,1570.39"/>
<polyline class="StaffLines" fill="none" stroke="#000000" stroke-width="6.55" stroke-linejoin="bevel" points="153.819,1629.92 4138.58,1629.92"/>
<polyline class="StaffLines" fill="none" stroke="#000000" stroke-width="6.55" stroke-linejoin="bevel" points="153.819,2016.85 4138.58,2016.85"/>
<polyline class="StaffLines" fill="none" stroke="#000000" stroke-width="6.55" stroke-linejoin="bevel" points="153.819,2076.38 4138.58,2076.38"/>
<polyline class="StaffLines" fill="none" stroke="#000000" stroke-width="6.55" stroke-linejoin="bevel" points="153.819,2135.91 4138.58,2135.91"/>
<polyline class="StaffLines" fill="none" stroke="#000000" stroke-width="6.55" stroke-linejoin="bevel" points="153.819,2195.43 4138.58,2195.43"/>
<polyline class="StaffLines" fill="none" stroke="#000000" stroke-width="6.55" stroke-linejoin="bevel" points="153.819,2254.96 4138.58,2254.96"/>
<polyline class="BarLine" fill="none" stroke="#000000" stroke-width="10.71" stroke-linejoin="bevel" points="159.176,2013.58 159.176,2258.23"/>
<polyline class="BarLine" fill="none" stroke="#000000" stroke-width="10.71" stroke-linejoin="bevel" points="956.894,2013.58 956.894,2258.23"/>
<polyline class="BarLine" fill="none" stroke="#000000" stroke-width="10.71" stroke-linejoin="bevel" points="1447.81,2013.58 1447.81,2258.23"/>
<polyline class="BarLine" fill="none" stroke="#000000" stroke-width="10.71" stroke-linejoin="bevel" points="1881.1,2013.58 1881.1,2258.23"/>
<polyline class="BarLine" fill="none" stroke="#000000" stroke-width="10.71" stroke-linejoin="bevel" points="2314.39,2013.58 2314.39,2258.23"/>
<polyline class="BarLine" fill="none" stroke="#000000" stroke-width="10.71" stroke-linejoin="bevel" points="2747.67,2013.58 2747.67,2258.23"/>
<polyline class="BarLine" fill="none" stroke="#000000" stroke-width="10.71" stroke-linejoin="bevel" points="3180.96,2013.58 3180.96,2258.23"/>
<polyline class="BarLine" fill="none" stroke="#000000" stroke-width="10.71" stroke-linejoin="bevel" points="3671.88,2013.58 3671.88,2258.23"/>
<polyline class="BarLine" fill="none" stroke="#000000" stroke-width="10.71" stroke-linejoin="bevel" points="4080.54,2013.58 4080.54,2258.23"/>
<polyline class="BarLine" fill="none" stroke="#000000" stroke-width="32.74" stroke-linejoin="bevel" points="4122.21,2013.58 4122.21,2258.23"/>
<polyline class="BarLine" fill="none" stroke="#000000" stroke-width="10.71" stroke-linejoin="bevel" points="159.176,1388.54 159.176,2016.85"/>
<polyline class="BarLine" fill="none" stroke="#000000" stroke-width="10.71" stroke-linejoin="bevel" points="956.894,1388.54 956.894,1633.2"/>
<polyline class="BarLine" fill="none" stroke="#000000" stroke-width="10.71" stroke-linejoin="bevel" points="1447.81,1388.54 1447.81,1633.2"/>
<polyline class="BarLine" fill="none" stroke="#000000" stroke-width="10.71" stroke-linejoin="bevel" points="1881.1,1388.54 1881.1,1633.2"/>
<polyline class="BarLine" fill="none" stroke="#000000" stroke-width="10.71" stroke-linejoin="bevel" points="2314.39,1388.54 2314.39,1633.2"/>
<polyline class="BarLine" fill="none" stroke="#000000" stroke-width="10.71" stroke-linejoin="bevel" points="2747.67,1388.54 2747.67,1633.2"/>
<polyline class="BarLine" fill="none" stroke="#000000" stroke-width="10.71" stroke-linejoin="bevel" points="3180.96,1388.54 3180.96,1633.2"/>
<polyline class="BarLine" fill="none" stroke="#000000" stroke-width="10.71" stroke-linejoin="bevel" points="3671.88,1388.54 3671.88,1633.2"/>
<polyline class="BarLine" fill="none" stroke="#000000" stroke-width="10.71" stroke-linejoin="bevel" points="4080.54,1388.54 4080.54,1633.2"/>
<polyline class="BarLine" fill="none" stroke="#000000" stroke-width="32.74" stroke-linejoin="bevel" points="4122.21,1388.54 4122.21,1633.2"/>
<polyline class="BarLine" fill="none" stroke="#000000" stroke-width="10.71" stroke-linejoin="bevel" points="159.176,555.151 159.176,1391.81"/>
<polyline class="BarLine" fill="none" stroke="#000000" stroke-width="10.71" stroke-linejoin="bevel" points="956.894,555.151 956.894,1008.16"/>
<polyline class="BarLine" fill="none" stroke="#000000" stroke-width="10.71" stroke-linejoin="bevel" points="1447.81,555.151 1447.81,1008.16"/>
<polyline class="BarLine" fill="none" stroke="#000000" stroke-width="10.71" stroke-linejoin="bevel" points="1881.1,555.151 1881.1,1008.16"/>
<polyline class="BarLine" fill="none" stroke="#000000" stroke-width="10.71" stroke-linejoin="bevel" points="2314.39,555.151 2314.39,1008.16"/>
<polyline class="BarLine" fill="none" stroke="#000000" stroke-width="10.71" stroke-linejoin="bevel" points="2747.67,555.151 2747.67,1008.16"/>
<polyline class="BarLine" fill="none" stroke="#000000" stroke-width="10.71" stroke-linejoin="bevel" points="3180.96,555.151 3180.96,1008.16"/>
<polyline class="BarLine" fill="none" stroke="#000000" stroke-width="10.71" stroke-linejoin="bevel" points="3671.88,555.151 3671.88,1008.16"/>
<polyline class="BarLine" fill="none" stroke="#000000" stroke-width="10.71" stroke-linejoin="bevel" points="4080.54,555.151 4080.54,1008.16"/>
<polyline class="BarLine" fill="none" stroke="#000000" stroke-width="32.74" stroke-linejoin="bevel" points="4122.21,555.151 4122.21,1008.16"/>
<polyline class="LedgerLine" fill="none" stroke="#000000" stroke-width="9.52" stroke-linejoin="bevel" points="1963.84,1957.32 2094.32,1957.32"/>
<polyline class="LedgerLine" fill="none" stroke="#000000" stroke-width="9.52" stroke-linejoin="bevel" points="2397.13,1957.32 2527.61,1957.32"/>
<polyline class="LedgerLine" fill="none" stroke="#000000" stroke-width="9.52" stroke-linejoin="bevel" points="3330.85,1332.28 3461.33,1332.28"/>
<path class="Note" transform="matrix(2.3811,0,0,2.3811,636.699,2046.61)" d="M18.7,-13.6 C4.9,-13.6 0,-6.6 0,-0.1 C0,6.4 4.9,13.4 18.7,13.4 C32.5,13.4 37.3,6.4 37.3,-0.1 C37.3,-6.6 32.5,-13.6 18.7,-13.6 M10.4,-4.5 C10.3,-4.9 10.3,-5.3 10.3,-5.7 C10.3,-6.5 10.5,-7.3 10.9,-8 C11.6,-9 12.8,-9.7 14.3,-10 C15.6,-10.3 16.3,-10.5 18.9,-10.5 L19,-10.5 C23,-10.5 24.3,-6.8 25.4,-3 L25.7,-2 C26.5,0.6 26.9,2.8 26.9,4.5 C26.9,5.7 26.7,6.8 26.3,7.6 C25.7,8.7 24.7,9.4 23,9.8 C22.1,10 20.6,10.1 20.6,10.1 C20.1,10.1 19.7,10.2 19.3,10.2 C16.1,10.2 14.1,9 12.7,4.7 C11.5,1 11.3,-0.1 10.4,-4.5"/>
<path class="Note" transform="matrix(2.3811,0,0,2.3811,1127.62,2016.85)" d="M18.7,-13.6 C4.9,-13.6 0,-6.6 0,-0.1 C0,6.4 4.9,13.4 18.7,13.4 C32.5,13.4 37.3,6.4 37.3,-0.1 C37.3,-6.6 32.5,-13.6 18.7,-13.6 M10.4,-4.5 C10.3,-4.9 10.3,-5.3 10.3,-5.7 C10.3,-6.5 10.5,-7.3 10.9,-8 C11.6,-9 12.8,-9.7 14.3,-10 C15.6,-10.3 16.3,-10.5 18.9,-10.5 L19,-10.5 C23,-10.5 24.3,-6.8 25.4,-3 L25.7,-2 C26.5,0.6 26.9,2.8 26.9,4.5 C26.9,5.7 26.7,6.8 26.3,7.6 C25.7,8.7 24.7,9.4 23,9.8 C22.1,10 20.6,10.1 20.6,10.1 C20.1,10.1 19.7,10.2 19.3,10.2 C16.1,10.2 14.1,9 12.7,4.7 C11.5,1 11.3,-0.1 10.4,-4.5"/>
<path class="Note" transform="matrix(2.3811,0,0,2.3811,1536.27,1987.09)" d="M18.7,-13.6 C4.9,-13.6 0,-6.6 0,-0.1 C0,6.4 4.9,13.4 18.7,13.4 C32.5,13.4 37.3,6.4 37.3,-0.1 C37.3,-6.6 32.5,-13.6 18.7,-13.6 M10.4,-4.5 C10.3,-4.9 10.3,-5.3 10.3,-5.7 C10.3,-6.5 10.5,-7.3 10.9,-8 C11.6,-9 12.8,-9.7 14.3,-10 C15.6,-10.3 16.3,-10.5 18.9,-10.5 L19,-10.5 C23,-10.5 24.3,-6.8 25.4,-3 L25.7,-2 C26.5,0.6 26.9,2.8 26.9,4.5 C26.9,5.7 26.7,6.8 26.3,7.6 C25.7,8.7 24.7,9.4 23,9.8 C22.1,10 20.6,10.1 20.6,10.1 C20.1,10.1 19.7,10.2 19.3,10.2 C16.1,10.2 14.1,9 12.7,4.7 C11.5,1 11.3,-0.1 10.4,-4.5"/>
<path class="Note" transform="matrix(2.3811,0,0,2.3811,1984.68,1957.32)" d="M18.7,-13.6 C4.9,-13.6 0,-6.6 0,-0.1 C0,6.4 4.9,13.4 18.7,13.4 C32.5,13.4 37.3,6.4 37.3,-0.1 C37.3,-6.6 32.5,-13.6 18.7,-13.6 M10.4,-4.5 C10.3,-4.9 10.3,-5.3 10.3,-5.7 C10.3,-6.5 10.5,-7.3 10.9,-8 C11.6,-9 12.8,-9.7 14.3,-10 C15.6,-10.3 16.3,-10.5 18.9,-10.5 L19,-10.5 C23,-10.5 24.3,-6.8 25.4,-3 L25.7,-2 C26.5,0.6 26.9,2.8 26.9,4.5 C26.9,5.7 26.7,6.8 26.3,7.6 C25.7,8.7 24.7,9.4 23,9.8 C22.1,10 20.6,10.1 20.6,10.1 C20.1,10.1 19.7,10.2 19.3,10.2 C16.1,10.2 14.1,9 12.7,4.7 C11.5,1 11.3,-0.1 10.4,-4.5"/>
<path class="Note" transform="matrix(2.3811,0,0,2.3811,2417.96,2135.91)" d="M18.7,-13.6 C4.9,-13.6 0,-6.6 0,-0.1 C0,6.4 4.9,13.4 18.7,13.4 C32.5,13.4 37.3,6.4 37.3,-0.1 C37.3,-6.6 32.5,-13.6 18.7,-13.6 M10.4,-4.5 C10.3,-4.9 10.3,-5.3 10.3,-5.7 C10.3,-6.5 10.5,-7.3 10.9,-8 C11.6,-9 12.8,-9.7 14.3,-10 C15.6,-10.3 16.3,-10.5 18.9,-10.5 L19,-10.5 C23,-10.5 24.3,-6.8 25.4,-3 L25.7,-2 C26.5,0.6 26.9,2.8 26.9,4.5 C26.9,5.7 26.7,6.8 26.3,7.6 C25.7,8.7 24.7,9.4 23,9.8 C22.1,10 20.6,10.1 20.6,10.1 C20.1,10.1 19.7,10.2 19.3,10.2 C16.1,10.2 14.1,9 12.7,4.7 C11.5,1 11.3,-0.1 10.4,-4.5"/>
<path class="Note" transform="matrix(2.3811,0,0,2.3811,2417.96,1927.56)" d="M18.7,-13.6 C4.9,-13.6 0,-6.6 0,-0.1 C0,6.4 4.9,13.4 18.7,13.4 C32.5,13.4 37.3,6.4 37.3,-0.1 C37.3,-6.6 32.5,-13.6 18.7,-13.6 M10.4,-4.5 C10.3,-4.9 10.3,-5.3 10.3,-5.7 C10.3,-6.5 10.5,-7.3 10.9,-8 C11.6,-9 12.8,-9.7 14.3,-10 C15.6,-10.3 16.3,-10.5 18.9,-10.5 L19,-10.5 C23,-10.5 24.3,-6.8 25.4,-3 L25.7,-2 C26.5,0.6 26.9,2.8 26.9,4.5 C26.9,5.7 26.7,6.8 26.3,7.6 C25.7,8.7 24.7,9.4 23,9.8 C22.1,10 20.6,10.1 20.6,10.1 C20.1,10.1 19.7,10.2 19.3,10.2 C16.1,10.2 14.1,9 12.7,4.7 C11.5,1 11.3,-0.1 10.4,-4.5"/>
<path class="Note" transform="matrix(2.3811,0,0,2.3811,2836.14,2106.14)" d="M18.7,-13.6 C4.9,-13.6 0,-6.6 0,-0.1 C0,6.4 4.9,13.4 18.7,13.4 C32.5,13.4 37.3,6.4 37.3,-0.1 C37.3,-6.6 32.5,-13.6 18.7,-13.6 M10.4,-4.5 C10.3,-4.9 10.3,-5.3 10.3,-5.7 C10.3,-6.5 10.5,-7.3 10.9,-8 C11.6,-9 12.8,-9.7 14.3,-10 C15.6,-10.3 16.3,-10.5 18.9,-10.5 L19,-10.5 C23,-10.5 24.3,-6.8 25.4,-3 L25.7,-2 C26.5,0.6 26.9,2.8 26.9,4.5 C26.9,5.7 26.7,6.8 26.3,7.6 C25.7,8.7 24.7,9.4 23,9.8 C22.1,10 20.6,10.1 20.6,10.1 C20.1,10.1 19.7,10.2 19.3,10.2 C16.1,10.2 14.1,9 12.7,4.7 C11.5,1 11.3,-0.1 10.4,-4.5"/>
<path class="Note" transform="matrix(2.3811,0,0,2.3811,3351.69,2076.38)" d="M18.7,-13.6 C4.9,-13.6 0,-6.6 0,-0.1 C0,6.4 4.9,13.4 18.7,13.4 C32.5,13.4 37.3,6.4 37.3,-0.1 C37.3,-6.6 32.5,-13.6 18.7,-13.6 M10.4,-4.5 C10.3,-4.9 10.3,-5.3 10.3,-5.7 C10.3,-6.5 10.5,-7.3 10.9,-8 C11.6,-9 12.8,-9.7 14.3,-10 C15.6,-10.3 16.3,-10.5 18.9,-10.5 L19,-10.5 C23,-10.5 24.3,-6.8 25.4,-3 L25.7,-2 C26.5,0.6 26.9,2.8 26.9,4.5 C26.9,5.7 26.7,6.8 26.3,7.6 C25.7,8.7 24.7,9.4 23,9.8 C22.1,10 20.6,10.1 20.6,10.1 C20.1,10.1 19.7,10.2 19.3,10.2 C16.1,10.2 14.1,9 12.7,4.7 C11.5,1 11.3,-0.1 10.4,-4.5"/>
<path class="Note" transform="matrix(2.3811,0,0,2.3811,3760.34,2046.61)" d="M18.7,-13.6 C4.9,-13.6 0,-6.6 0,-0.1 C0,6.4 4.9,13.4 18.7,13.4 C32.5,13.4 37.3,6.4 37.3,-0.1 C37.3,-6.6 32.5,-13.6 18.7,-13.6 M10.4,-4.5 C10.3,-4.9 10.3,-5.3 10.3,-5.7 C10.3,-6.5 10.5,-7.3 10.9,-8 C11.6,-9 12.8,-9.7 14.3,-10 C15.6,-10.3 16.3,-10.5 18.9,-10.5 L19,-10.5 C23,-10.5 24.3,-6.8 25.4,-3 L25.7,-2 C26.5,0.6 26.9,2.8 26.9,4.5 C26.9,5.7 26.7,6.8 26.3,7.6 C25.7,8.7 24.7,9.4 23,9.8 C22.1,10 20.6,10.1 20.6,10.1 C20.1,10.1 19.7,10.2 19.3,10.2 C16.1,10.2 14.1,9 12.7,4.7 C11.5,1 11.3,-0.1 10.4,-4.5"/>
<path class="Note" transform="matrix(2.3811,0,0,2.3811,636.699,1510.87)" d="M18.7,-13.6 C4.9,-13.6 0,-6.6 0,-0.1 C0,6.4 4.9,13.4 18.7,13.4 C32.5,13.4 37.3,6.4 37.3,-0.1 C37.3,-6.6 32.5,-13.6 18.7,-13.6 M10.4,-4.5 C10.3,-4.9 10.3,-5.3 10.3,-5.7 C10.3,-6.5 10.5,-7.3 10.9,-8 C11.6,-9 12.8,-9.7 14.3,-10 C15.6,-10.3 16.3,-10.5 18.9,-10.5 L19,-10.5 C23,-10.5 24.3,-6.8 25.4,-3 L25.7,-2 C26.5,0.6 26.9,2.8 26.9,4.5 C26.9,5.7 26.7,6.8 26.3,7.6 C25.7,8.7 24.7,9.4 23,9.8 C22.1,10 20.6,10.1 20.6,10.1 C20.1,10.1 19.7,10.2 19.3,10.2 C16.1,10.2 14.1,9 12.7,4.7 C11.5,1 11.3,-0.1 10.4,-4.5"/>
<path class="Note" transform="matrix(2.3811,0,0,2.3811,636.699,1451.34)" d="M18.7,-13.6 C4.9,-13.6 0,-6.6 0,-0.1 C0,6.4 4.9,13.4 18.7,13.4 C32.5,13.4 37.3,6.4 37.3,-0.1 C37.3,-6.6 32.5,-13.6 18.7,-13.6 M10.4,-4.5 C10.3,-4.9 10.3,-5.3 10.3,-5.7 C10.3,-6.5 10.5,-7.3 10.9,-8 C11.6,-9 12.8,-9.7 14.3,-10 C15.6,-10.3 16.3,-10.5 18.9,-10.5 L19,-10.5 C23,-10.5 24.3,-6.8 25.4,-3 L25.7,-2 C26.5,0.6 26.9,2.8 26.9,4.5 C26.9,5.7 26.7,6.8 26.3,7.6 C25.7,8.7 24.7,9.4 23,9.8 C22.1,10 20.6,10.1 20.6,10.1 C20.1,10.1 19.7,10.2 19.3,10.2 C16.1,10.2 14.1,9 12.7,4.7 C11.5,1 11.3,-0.1 10.4,-4.5"/>
<path class="Note" transform="matrix(2.3811,0,0,2.3811,636.699,1362.05)" d="M18.7,-13.6 C4.9,-13.6 0,-6.6 0,-0.1 C0,6.4 4.9,13.4 18.7,13.4 C32.5,13.4 37.3,6.4 37.3,-0.1 C37.3,-6.6 32.5,-13.6 18.7,-13.6 M10.4,-4.5 C10.3,-4.9 10.3,-5.3 10.3,-5.7 C10.3,-6.5 10.5,-7.3 10.9,-8 C11.6,-9 12.8,-9.7 14.3,-10 C15.6,-10.3 16.3,-10.5 18.9,-10.5 L19,-10.5 C23,-10.5 24.3,-6.8 25.4,-3 L25.7,-2 C26.5,0.6 26.9,2.8 26.9,4.5 C26.9,5.7 26.7,6.8 26.3,7.6 C25.7,8.7 24.7,9.4 23,9.8 C22.1,10 20.6,10.1 20.6,10.1 C20.1,10.1 19.7,10.2 19.3,10.2 C16.1,10.2 14.1,9 12.7,4.7 C11.5,1 11.3,-0.1 10.4,-4.5"/>
<path class="Note" transform="matrix(2.3811,0,0,2.3811,1045.36,1481.1)" d="M18.7,-13.6 C4.9,-13.6 0,-6.6 0,-0.1 C0,6.4 4.9,13.4 18.7,13.4 C32.5,13.4 37.3,6.4 37.3,-0.1 C37.3,-6.6 32.5,-13.6 18.7,-13.6 M10.4,-4.5 C10.3,-4.9 10.3,-5.3 10.3,-5.7 C10.3,-6.5 10.5,-7.3 10.9,-8 C11.6,-9 12.8,-9.7 14.3,-10 C15.6,-10.3 16.3,-10.5 18.9,-10.5 L19,-10.5 C23,-10.5 24.3,-6.8 25.4,-3 L25.7,-2 C26.5,0.6 26.9,2.8 26.9,4.5 C26.9,5.7 26.7,6.8 26.3,7.6 C25.7,8.7 24.7,9.4 23,9.8 C22.1,10 20.6,10.1 20.6,10.1 C20.1,10.1 19.7,10.2 19.3,10.2 C16.1,10.2 14.1,9 12.7,4.7 C11.5,1 11.3,-0.1 10.4,-4.5"/>
<path class="Note" transform="matrix(2.3811,0,0,2.3811,1127.62,1451.34)" d="M18.7,-13.6 C4.9,-13.6 0,-6.6 0,-0.1 C0,6.4 4.9,13.4 18.7,13.4 C32.5,13.4 37.3,6.4 37.3,-0.1 C37.3,-6.6 32.5,-13.6 18.7,-13.6 M10.4,-4.5 C10.3,-4.9 10.3,-5.3 10.3,-5.7 C10.3,-6.5 10.5,-7.3 10.9,-8 C11.6,-9 12.8,-9.7 14.3,-10 C15.6,-10.3 16.3,-10.5 18.9,-10.5 L19,-10.5 C23,-10.5 24.3,-6.8 25.4,-3 L25.7,-2 C26.5,0.6 26.9,2.8 26.9,4.5 C26.9,5.7 26.7,6.8 26.3,7.6 C25.7,8.7 24.7,9.4 23,9.8 C22.1,10 20.6,10.1 20.6,10.1 C20.1,10.1 19.7,10.2 19.3,10.2 C16.1,10.2 14.1,9 12.7,4.7 C11.5,1 11.3,-0.1 10.4,-4.5"/>
<path class="Note" transform="matrix(2.3811,0,0,2.3811,1127.62,1391.81)" d="M18.7,-13.6 C4.9,-13.6 0,-6.6 0,-0.1 C0,6.4 4.9,13.4 18.7,13.4 C32.5,13.4 37.3,6.4 37.3,-0.1 C37.3,-6.6 32.5,-13.6 18.7,-13.6 M10.4,-4.5 C10.3,-4.9 10.3,-5.3 10.3,-5.7 C10.3,-6.5 10.5,-7.3 10.9,-8 C11.6,-9 12.8,-9.7 14.3,-10 C15.6,-10.3 16.3,-10.5 18.9,-10.5 L19,-10.5 C23,-10.5 24.3,-6.8 25.4,-3 L25.7,-2 C26.5,0.6 26.9,2.8 26.9,4.5 C26.9,5.7 26.7,6.8 26.3,7.6 C25.7,8.7 24.7,9.4 23,9.8 C22.1,10 20.6,10.1 20.6,10.1 C20.1,10.1 19.7,10.2 19.3,10.2 C16.1,10.2 14.1,9 12.7,4.7 C11.5,1 11.3,-0.1 10.4,-4.5"/>
<path class="Note" transform="matrix(2.3811,0,0,2.3811,1536.27,1510.87)" d="M18.7,-13.6 C4.9,-13.6 0,-6.6 0,-0.1 C0,6.4 4.9,13.4 18.7,13.4 C32.5,13.4 37.3,6.4 37.3,-0.1 C37.3,-6.6 32.5,-13.6 18.7,-13.6 M10.4,-4.5 C10.3,-4.9 10.3,-5.3 10.3,-5.7 C10.3,-6.5 10.5,-7.3 10.9,-8 C11.6,-9 12.8,-9.7 14.3,-10 C15.6,-10.3 16.3,-10.5 18.9,-10.5 L19,-10.5 C23,-10.5 24.3,-6.8 25.4,-3 L25.7,-2 C26.5,0.6 26.9,2.8 26.9,4.5 C26.9,5.7 26.7,6.8 26.3,7.6 C25.7,8.7 24.7,9.4 23,9.8 C22.1,10 20.6,10.1 20.6,10.1 C20.1,10.1 19.7,10.2 19.3,10.2 C16.1,10.2 14.1,9 12.7,4.7 C11.5,1 11.3,-0.1 10.4,-4.5"/>
<path class="Note" transform="matrix(2.3811,0,0,2.3811,1536.27,1451.34)" d="M18.7,-13.6 C4.9,-13.6 0,-6.6 0,-0.1 C0,6.4 4.9,13.4 18.7,13.4 C32.5,13.4 37.3,6.4 37.3,-0.1 C37.3,-6.6 32.5,-13.6 18.7,-13.6 M10.4,-4.5 C10.3,-4.9 10.3,-5.3 10.3,-5.7 C10.3,-6.5 10.5,-7.3 10.9,-8 C11.6,-9 12.8,-9.7 14.3,-10 C15.6,-10.3 16.3,-10.5 18.9,-10.5 L19,-10.5 C23,-10.5 24.3,-6.8 25.4,-3 L25.7,-2 C26.5,0.6 26.9,2.8 26.9,4.5 C26.9,5.7 26.7,6.8 26.3,7.6 C25.7,8.7 24.7,9.4 23,9.8 C22.1,10 20.6,10.1 20.6,10.1 C20.1,10.1 19.7,10.2 19.3,10.2 C16.1,10.2 14.1,9 12.7,4.7 C11.5,1 11.3,-0.1 10.4,-4.5"/>
<path class="Note" transform="matrix(2.3811,0,0,2.3811,1536.27,1362.05)" d="M18.7,-13.6 C4.9,-13.6 0,-6.6 0,-0.1 C0,6.4 4.9,13.4 18.7,13.4 C32.5,13.4 37.3,6.4 37.3,-0.1 C37.3,-6.6 32.5,-13.6 18.7,-13.6 M10.4,-4.5 C10.3,-4.9 10.3,-5.3 10.3,-5.7 C10.3,-6.5 10.5,-7.3 10.9,-8 C11.6,-9 12.8,-9.7 14.3,-10 C15.6,-10.3 16.3,-10.5 18.9,-10.5 L19,-10.5 C23,-10.5 24.3,-6.8 25.4,-3 L25.7,-2 C26.5,0.6 26.9,2.8 26.9,4.5 C26.9,5.7 26.7,6.8 26.3,7.6 C25.7,8.7 24.7,9.4 23,9.8 C22.1,10 20.6,10.1 20.6,10.1 C20.1,10.1 19.7,10.2 19.3,10.2 C16.1,10.2 14.1,9 12.7,4.7 C11.5,1 11.3,-0.1 10.4,-4.5"/>
<path class="Note" transform="matrix(2.3811,0,0,2.3811,1984.68,1540.63)" d="M18.7,-13.6 C4.9,-13.6 0,-6.6 0,-0.1 C0,6.4 4.9,13.4 18.7,13.4 C32.5,13.4 37.3,6.4 37.3,-0.1 C37.3,-6.6 32.5,-13.6 18.7,-13.6 M10.4,-4.5 C10.3,-4.9 10.3,-5.3 10.3,-5.7 C10.3,-6.5 10.5,-7.3 10.9,-8 C11.6,-9 12.8,-9.7 14.3,-10 C15.6,-10.3 16.3,-10.5 18.9,-10.5 L19,-10.5 C23,-10.5 24.3,-6.8 25.4,-3 L25.7,-2 C26.5,0.6 26.9,2.8 26.9,4.5 C26.9,5.7 26.7,6.8 26.3,7.6 C25.7,8.7 24.7,9.4 23,9.8 C22.1,10 20.6,10.1 20.6,10.1 C20.1,10.1 19.7,10.2 19.3,10.2 C16.1,10.2 14.1,9 12.7,4.7 C11.5,1 11.3,-0.1 10.4,-4.5"/>
<path class="Note" transform="matrix(2.3811,0,0,2.3811,1984.68,1421.57)" d="M18.7,-13.6 C4.9,-13.6 0,-6.6 0,-0.1 C0,6.4 4.9,13.4 18.7,13.4 C32.5,13.4 37.3,6.4 37.3,-0.1 C37.3,-6.6 32.5,-13.6 18.7,-13.6 M10.4,-4.5 C10.3,-4.9 10.3,-5.3 10.3,-5.7 C10.3,-6.5 10.5,-7.3 10.9,-8 C11.6,-9 12.8,-9.7 14.3,-10 C15.6,-10.3 16.3,-10.5 18.9,-10.5 L19,-10.5 C23,-10.5 24.3,-6.8 25.4,-3 L25.7,-2 C26.5,0.6 26.9,2.8 26.9,4.5 C26.9,5.7 26.7,6.8 26.3,7.6 C25.7,8.7 24.7,9.4 23,9.8 C22.1,10 20.6,10.1 20.6,10.1 C20.1,10.1 19.7,10.2 19.3,10.2 C16.1,10.2 14.1,9 12.7,4.7 C11.5,1 11.3,-0.1 10.4,-4.5"/>
<path class="Note" transform="matrix(2.3811,0,0,2.3811,1984.68,1362.05)" d="M18.7,-13.6 C4.9,-13.6 0,-6.6 0,-0.1 C0,6.4 4.9,13.4 18.7,13.4 C32.5,13.4 37.3,6.4 37.3,-0.1 C37.3,-6.6 32.5,-13.6 18.7,-13.6 M10.4,-4.5 C10.3,-4.9 10.3,-5.3 10.3,-5.7 C10.3,-6.5 10.5,-7.3 10.9,-8 C11.6,-9 12.8,-9.7 14.3,-10 C15.6,-10.3 16.3,-10.5 18.9,-10.5 L19,-10.5 C23,-10.5 24.3,-6.8 25.4,-3 L25.7,-2 C26.5,0.6 26.9,2.8 26.9,4.5 C26.9,5.7 26.7,6.8 26.3,7.6 C25.7,8.7 24.7,9.4 23,9.8 C22.1,10 20.6,10.1 20.6,10.1 C20.1,10.1 19.7,10.2 19.3,10.2 C16.1,10.2 14.1,9 12.7,4.7 C11.5,1 11.3,-0.1 10.4,-4.5"/>
<path class="Note" transform="matrix(2.3811,0,0,2.3811,2417.96,1540.63)" d="M18.7,-13.6 C4.9,-13.6 0,-6.6 0,-0.1 C0,6.4 4.9,13.4 18.7,13.4 C32.5,13.4 37.3,6.4 37.3,-0.1 C37.3,-6.6 32.5,-13.6 18.7,-13.6 M10.4,-4.5 C10.3,-4.9 10.3,-5.3 10.3,-5.7 C10.3,-6.5 10.5,-7.3 10.9,-8 C11.6,-9 12.8,-9.7 14.3,-10 C15.6,-10.3 16.3,-10.5 18.9,-10.5 L19,-10.5 C23,-10.5 24.3,-6.8 25.4,-3 L25.7,-2 C26.5,0.6 26.9,2.8 26.9,4.5 C26.9,5.7 26.7,6.8 26.3,7.6 C25.7,8.7 24.7,9.4 23,9.8 C22.1,10 20.6,10.1 20.6,10.1 C20.1,10.1 19.7,10.2 19.3,10.2 C16.1,10.2 14.1,9 12.7,4.7 C11.5,1 11.3,-0.1 10.4,-4.5"/>
<path class="Note" transform="matrix(2.3811,0,0,2.3811,2417.96,1451.34)" d="M18.7,-13.6 C4.9,-13.6 0,-6.6 0,-0.1 C0,6.4 4.9,13.4 18.7,13.4 C32.5,13.4 37.3,6.4 37.3,-0.1 C37.3,-6.6 32.5,-13.6 18.7,-13.6 M10.4,-4.5 C10.3,-4.9 10.3,-5.3 10.3,-5.7 C10.3,-6.5 10.5,-7.3 10.9,-8 C11.6,-9 12.8,-9.7 14.3,-10 C15.6,-10.3 16.3,-10.5 18.9,-10.5 L19,-10.5 C23,-10.5 24.3,-6.8 25.4,-3 L25.7,-2 C26.5,0.6 26.9,2.8 26.9,4.5 C26.9,5.7 26.7,6.8 26.3,7.6 C25.7,8.7 24.7,9.4 23,9.8 C22.1,10 20.6,10.1 20.6,10.1 C20.1,10.1 19.7,10.2 19.3,10.2 C16.1,10.2 14.1,9 12.7,4.7 C11.5,1 11.3,-0.1 10.4,-4.5"/>
<path class="Note" transform="matrix(2.3811,0,0,2.3811,2417.96,1391.81)" d="M18.7,-13.6 C4.9,-13.6 0,-6.6 0,-0.1 C0,6.4 4.9,13.4 18.7,13.4 C32.5,13.4 37.3,6.4 37.3,-0.1 C37.3,-6.6 32.5,-13.6 18.7,-13.6 M10.4,-4.5 C10.3,-4.9 10.3,-5.3 10.3,-5.7 C10.3,-6.5 10.5,-7.3 10.9,-8 C11.6,-9 12.8,-9.7 14.3,-10 C15.6,-10.3 16.3,-10.5 18.9,-10.5 L19,-10.5 C23,-10.5 24.3,-6.8 25.4,-3 L25.7,-2 C26.5,0.6 26.9,2.8 26.9,4.5 C26.9,5.7 26.7,6.8 26.3,7.6 C25.7,8.7 24.7,9.4 23,9.8 C22.1,10 20.6,10.1 20.6,10.1 C20.1,10.1 19.7,10.2 19.3,10.2 C16.1,10.2 14.1,9 12.7,4.7 C11.5,1 11.3,-0.1 10.4,-4.5"/>
<path class="Note" transform="matrix(2.3811,0,0,2.3811,2836.14,1570.39)" d="M18.7,-13.6 C4.9,-13.6 0,-6.6 0,-0.1 C0,6.4 4.9,13.4 18.7,13.4 C32.5,13.4 37.3,6.4 37.3,-0.1 C37.3,-6.6 32.5,-13.6 18.7,-13.6 M10.4,-4.5 C10.3,-4.9 10.3,-5.3 10.3,-5.7 C10.3,-6.5 10.5,-7.3 10.9,-8 C11.6,-9 12.8,-9.7 14.3,-10 C15.6,-10.3 16.3,-10.5 18.9,-10.5 L19,-10.5 C23,-10.5 24.3,-6.8 25.4,-3 L25.7,-2 C26.5,0.6 26.9,2.8 26.9,4.5 C26.9,5.7 26.7,6.8 26.3,7.6 C25.7,8.7 24.7,9.4 23,9.8 C22.1,10 20.6,10.1 20.6,10.1 C20.1,10.1 19.7,10.2 19.3,10.2 C16.1,10.2 14.1,9 12.7,4.7 C11.5,1 11.3,-0.1 10.4,-4.5"/>
<path class="Note" transform="matrix(2.3811,0,0,2.3811,2836.14,1481.1)" d="M18.7,-13.6 C4.9,-13.6 0,-6.6 0,-0.1 C0,6.4 4.9,13.4 18.7,13.4 C32.5,13.4 37.3,6.4 37.3,-0.1 C37.3,-6.6 32.5,-13.6 18.7,-13.6 M10.4,-4.5 C10.3,-4.9 10.3,-5.3 10.3,-5.7 C10.3,-6.5 10.5,-7.3 10.9,-8 C11.6,-9 12.8,-9.7 14.3,-10 C15.6,-10.3 16.3,-10.5 18.9,-10.5 L19,-10.5 C23,-10.5 24.3,-6.8 25.4,-3 L25.7,-2 C26.5,0.6 26.9,2.8 26.9,4.5 C26.9,5.7 26.7,6.8 26.3,7.6 C25.7,8.7 24.7,9.4 23,9.8 C22.1,10 20.6,10.1 20.6,10.1 C20.1,10.1 19.7,10.2 19.3,10.2 C16.1,10.2 14.1,9 12.7,4.7 C11.5,1 11.3,-0.1 10.4,-4.5"/>
<path class="Note" transform="matrix(2.3811,0,0,2.3811,2836.14,1362.05)" d="M18.7,-13.6 C4.9,-13.6 0,-6.6 0,-0.1 C0,6.4 4.9,13.4 18.7,13.4 C32.5,13.4 37.3,6.4 37.3,-0.1 C37.3,-6.6 32.5,-13.6 18.7,-13.6 M10.4,-4.5 C10.3,-4.9 10.3,-5.3 10.3,-5.7 C10.3,-6.5 10.5,-7.3 10.9,-8 C11.6,-9 12.8,-9.7 14.3,-10 C15.6,-10.3 16.3,-10.5 18.9,-10.5 L19,-10.5 C23,-10.5 24.3,-6.8 25.4,-3 L25.7,-2 C26.5,0.6 26.9,2.8 26.9,4.5 C26.9,5.7 26.7,6.8 26.3,7.6 C25.7,8.7 24.7,9.4 23,9.8 C22.1,10 20.6,10.1 20.6,10.1 C20.1,10.1 19.7,10.2 19.3,10.2 C16.1,10.2 14.1,9 12.7,4.7 C11.5,1 11.3,-0.1 10.4,-4.5"/>
<path class="Note" transform="matrix(2.3811,0,0,2.3811,3269.43,1481.1)" d="M18.7,-13.6 C4.9,-13.6 0,-6.6 0,-0.1 C0,6.4 4.9,13.4 18.7,13.4 C32.5,13.4 37.3,6.4 37.3,-0.1 C37.3,-6.6 32.5,-13.6 18.7,-13.6 M10.4,-4.5 C10.3,-4.9 10.3,-5.3 10.3,-5.7 C10.3,-6.5 10.5,-7.3 10.9,-8 C11.6,-9 12.8,-9.7 14.3,-10 C15.6,-10.3 16.3,-10.5 18.9,-10.5 L19,-10.5 C23,-10.5 24.3,-6.8 25.4,-3 L25.7,-2 C26.5,0.6 26.9,2.8 26.9,4.5 C26.9,5.7 26.7,6.8 26.3,7.6 C25.7,8.7 24.7,9.4 23,9.8 C22.1,10 20.6,10.1 20.6,10.1 C20.1,10.1 19.7,10.2 19.3,10.2 C16.1,10.2 14.1,9 12.7,4.7 C11.5,1 11.3,-0.1 10.4,-4.5"/>
<path class="Note" transform="matrix(2.3811,0,0,2.3811,3351.69,1451.34)" d="M18.7,-13.6 C4.9,-13.6 0,-6.6 0,-0.1 C0,6.4 4.9,13.4 18.7,13.4 C32.5,13.4 37.3,6.4 37.3,-0.1 C37.3,-6.6 32.5,-13.6 18.7,-13.6 M10.4,-4.5 C10.3,-4.9 10.3,-5.3 10.3,-5.7 C10.3,-6.5 10.5,-7.3 10.9,-8 C11.6,-9 12.8,-9.7 14.3,-10 C15.6,-10.3 16.3,-10.5 18.9,-10.5 L19,-10.5 C23,-10.5 24.3,-6.8 25.4,-3 L25.7,-2 C26.5,0.6 26.9,2.8 26.9,4.5 C26.9,5.7 26.7,6.8 26.3,7.6 C25.7,8.7 24.7,9.4 23,9.8 C22.1,10 20.6,10.1 20.6,10.1 C20.1,10.1 19.7,10.2 19.3,10.2 C16.1,10.2 14.1,9 12.7,4.7 C11.5,1 11.3,-0.1 10.4,-4.5"/>
<path class="Note" transform="matrix(2.3811,0,0,2.3811,3351.69,1332.28)" d="M18.7,-13.6 C4.9,-13.6 0,-6.6 0,-0.1 C0,6.4 4.9,13.4 18.7,13.4 C32.5,13.4 37.3,6.4 37.3,-0.1 C37.3,-6.6 32.5,-13.6 18.7,-13.6 M10.4,-4.5 C10.3,-4.9 10.3,-5.3 10.3,-5.7 C10.3,-6.5 10.5,-7.3 10.9,-8 C11.6,-9 12.8,-9.7 14.3,-10 C15.6,-10.3 16.3,-10.5 18.9,-10.5 L19,-10.5 C23,-10.5 24.3,-6.8 25.4,-3 L25.7,-2 C26.5,0.6 26.9,2.8 26.9,4.5 C26.9,5.7 26.7,6.8 26.3,7.6 C25.7,8.7 24.7,9.4 23,9.8 C22.1,10 20.6,10.1 20.6,10.1 C20.1,10.1 19.7,10.2 19.3,10.2 C16.1,10.2 14.1,9 12.7,4.7 C11.5,1 11.3,-0.1 10.4,-4.5"/>
<path class="Note" transform="matrix(2.3811,0,0,2.3811,3760.34,1510.87)" d="M18.7,-13.6 C4.9,-13.6 0,-6.6 0,-0.1 C0,6.4 4.9,13.4 18.7,13.4 C32.5,13.4 37.3,6.4 37.3,-0.1 C37.3,-6.6 32.5,-13.6 18.7,-13.6 M10.4,-4.5 C10.3,-4.9 10.3,-5.3 10.3,-5.7 C10.3,-6.5 10.5,-7.3 10.9,-8 C11.6,-9 12.8,-9.7 14.3,-10 C15.6,-10.3 16.3,-10.5 18.9,-10.5 L19,-10.5 C23,-10.5 24.3,-6.8 25.4,-3 L25.7,-2 C26.5,0.6 26.9,2.8 26.9,4.5 C26.9,5.7 26.7,6.8 26.3,7.6 C25.7,8.7 24.7,9.4 23,9.8 C22.1,10 20.6,10.1 20.6,10.1 C20.1,10.1 19.7,10.2 19.3,10.2 C16.1,10.2 14.1,9 12.7,4.7 C11.5,1 11.3,-0.1 10.4,-4.5"/>
<path class="Note" transform="matrix(2.3811,0,0,2.3811,3760.34,1451.34)" d="M18.7,-13.6 C4.9,-13.6 0,-6.6 0,-0.1 C0,6.4 4.9,13.4 18.7,13.4 C32.5,13.4 37.3,6.4 37.3,-0.1 C37.3,-6.6 32.5,-13.6 18.7,-13.6 M10.4,-4.5 C10.3,-4.9 10.3,-5.3 10.3,-5.7 C10.3,-6.5 10.5,-7.3 10.9,-8 C11.6,-9 12.8,-9.7 14.3,-10 C15.6,-10.3 16.3,-10.5 18.9,-10.5 L19,-10.5 C23,-10.5 24.3,-6.8 25.4,-3 L25.7,-2 C26.5,0.6 26.9,2.8 26.9,4.5 C26.9,5.7 26.7,6.8 26.3,7.6 C25.7,8.7 24.7,9.4 23,9.8 C22.1,10 20.6,10.1 20.6,10.1 C20.1,10.1 19.7,10.2 19.3,10.2 C16.1,10.2 14.1,9 12.7,4.7 C11.5,1 11.3,-0.1 10.4,-4.5"/>
<path class="Note" transform="matrix(2.3811,0,0,2.3811,3760.34,1362.05)" d="M18.7,-13.6 C4.9,-13.6 0,-6.6 0,-0.1 C0,6.4 4.9,13.4 18.7,13.4 C32.5,13.4 37.3,6.4 37.3,-0.1 C37.3,-6.6 32.5,-13.6 18.7,-13.6 M10.4,-4.5 C10.3,-4.9 10.3,-5.3 10.3,-5.7 C10.3,-6.5 10.5,-7.3 10.9,-8 C11.6,-9 12.8,-9.7 14.3,-10 C15.6,-10.3 16.3,-10.5 18.9,-10.5 L19,-10.5 C23,-10.5 24.3,-6.8 25.4,-3 L25.7,-2 C26.5,0.6 26.9,2.8 26.9,4.5 C26.9,5.7 26.7,6.8 26.3,7.6 C25.7,8.7 24.7,9.4 23,9.8 C22.1,10 20.6,10.1 20.6,10.1 C20.1,10.1 19.7,10.2 19.3,10.2 C16.1,10.2 14.1,9 12.7,4.7 C11.5,1 11.3,-0.1 10.4,-4.5"/>
<path class="Note" d="M692.276,893.832 C694.755,893.832 696.46,894.452 697.389,895.692 C698.784,897.783 699.481,900.727 699.481,904.524 C699.481,908.94 696.382,919.515 690.184,936.249 C680.035,964.682 674.961,979.751 674.961,981.455 C674.961,986.026 676.781,988.35 680.422,988.428 C681.972,988.428 685.923,986.026 692.276,981.223 C698.551,976.652 703.393,974.366 706.802,974.366 C708.197,974.366 708.894,975.219 708.894,976.923 C708.894,979.79 705.059,983.547 697.389,988.195 C684.838,995.865 676.161,999.7 671.358,999.7 C663.688,999.7 659.853,996.679 659.853,990.636 C659.853,990.481 665.16,972.701 675.774,937.295 C682.204,915.99 686.117,902.122 687.511,895.692 C687.744,894.452 689.332,893.832 692.276,893.832"/>
<path class="Note" d="M657.761,642.535 C653.578,642.535 651.486,640.637 651.486,636.841 C651.486,630.41 652.454,625.684 654.391,622.663 C662.448,610.732 679.958,588.419 706.919,555.725 C719.082,540.928 734.77,533.529 753.984,533.529 C761.421,533.529 766.573,534.575 769.44,536.667 C773.856,539.921 776.064,543.833 776.064,548.404 C776.064,553.207 772.19,558.553 764.443,564.441 C757.083,570.019 750.11,572.808 743.525,572.808 C740.968,572.808 739.69,572.537 739.69,571.995 C739.69,571.22 740.93,570.407 743.409,569.555 C746.74,568.315 750.304,565.797 754.1,562.001 C758.439,557.585 760.608,553.595 760.608,550.031 C760.608,547.629 758.942,545.344 755.611,543.175 C752.667,541.315 747.902,540.386 741.317,540.386 C731.71,540.386 719.586,550.07 704.943,569.438 C695.181,582.376 687.279,593.765 681.236,603.604 C684.18,601.977 687.705,600.002 691.811,597.678 C696.847,594.811 701.185,593.378 704.827,593.378 C713.891,593.378 718.423,596.632 718.423,603.139 C718.423,609.57 714.705,616.62 707.267,624.29 C701.999,629.713 699.365,633.742 699.365,636.376 C699.365,639.087 701.999,640.443 707.267,640.443 C709.901,640.443 712.613,639.513 715.402,637.654 C718.191,635.872 720.244,634.981 721.561,634.981 C722.646,634.981 723.188,635.679 723.188,637.073 C723.188,639.32 721.019,641.683 716.68,644.162 C709.398,648.346 703.548,650.437 699.132,650.437 C691.308,650.437 687.395,646.254 687.395,637.887 C687.395,632.618 690.417,626.769 696.46,620.339 C700.876,615.613 703.084,610.926 703.084,606.277 C703.084,602.249 700.914,600.234 696.576,600.234 C694.871,600.234 689.216,602.249 679.609,606.277 C676.742,611.081 674.341,615.497 672.404,619.525 C665.044,634.865 660.163,642.535 657.761,642.535"/>
<path class="Note" d="M657.761,821.118 C653.578,821.118 651.486,819.22 651.486,815.423 C651.486,808.993 652.454,804.267 654.391,801.246 C662.448,789.315 679.958,767.002 706.919,734.308 C719.082,719.511 734.77,712.112 753.984,712.112 C761.421,712.112 766.573,713.158 769.44,715.249 C773.856,718.503 776.064,722.416 776.064,726.987 C776.064,731.79 772.19,737.136 764.443,743.024 C757.083,748.602 750.11,751.391 743.525,751.391 C740.968,751.391 739.69,751.12 739.69,750.578 C739.69,749.803 740.93,748.989 743.409,748.137 C746.74,746.898 750.304,744.38 754.1,740.583 C758.439,736.167 760.608,732.178 760.608,728.614 C760.608,726.212 758.942,723.927 755.611,721.757 C752.667,719.898 747.902,718.968 741.317,718.968 C731.71,718.968 719.586,728.652 704.943,748.021 C695.181,760.959 687.279,772.348 681.236,782.187 C684.18,780.56 687.705,778.584 691.811,776.26 C696.847,773.394 701.185,771.96 704.827,771.96 C713.891,771.96 718.423,775.214 718.423,781.722 C718.423,788.152 714.705,795.203 707.267,802.873 C701.999,808.296 699.365,812.324 699.365,814.958 C699.365,817.67 701.999,819.026 707.267,819.026 C709.901,819.026 712.613,818.096 715.402,816.237 C718.191,814.455 720.244,813.564 721.561,813.564 C722.646,813.564 723.188,814.261 723.188,815.656 C723.188,817.902 721.019,820.265 716.68,822.745 C709.398,826.928 703.548,829.02 699.132,829.02 C691.308,829.02 687.395,824.836 687.395,816.469 C687.395,811.201 690.417,805.352 696.46,798.921 C700.876,794.195 703.084,789.508 703.084,784.86 C703.084,780.831 700.914,778.817 696.576,778.817 C694.871,778.817 689.216,780.831 679.609,784.86 C676.742,789.663 674.341,794.079 672.404,798.108 C665.044,813.448 660.163,821.118 657.761,821.118"/>
<path class="Note" d="M687.046,666.167 C690.843,666.167 692.741,669.072 692.741,674.883 C692.741,679.067 690.765,683.87 686.814,689.293 C683.328,694.174 681.585,701.728 681.585,711.954 C681.585,716.835 682.863,720.089 685.42,721.716 C687.201,722.956 690.533,723.614 695.414,723.692 C700.682,723.692 708.158,721.019 717.842,715.673 L719.702,717.532 C717.223,720.709 714.24,723.575 710.754,726.132 C705.563,729.928 700.256,731.826 694.833,731.826 C687.008,731.826 681.081,730.703 677.052,728.456 C672.017,725.667 669.499,722.181 669.499,717.997 C669.499,706.454 670.971,694.406 673.915,681.856 C674.999,677.285 677.362,673.101 681.004,669.305 C683.095,667.213 685.11,666.167 687.046,666.167"/>
<path class="Note" d="M1148.68,910.409 C1144.5,910.409 1142.4,908.511 1142.4,904.715 C1142.4,898.284 1143.37,893.558 1145.31,890.537 C1153.37,878.606 1170.88,856.293 1197.84,823.599 C1210,808.802 1225.69,801.403 1244.9,801.403 C1252.34,801.403 1257.49,802.449 1260.36,804.541 C1264.77,807.795 1266.98,811.707 1266.98,816.278 C1266.98,821.082 1263.11,826.427 1255.36,832.315 C1248,837.893 1241.03,840.682 1234.44,840.682 C1231.89,840.682 1230.61,840.411 1230.61,839.869 C1230.61,839.094 1231.85,838.281 1234.33,837.429 C1237.66,836.189 1241.22,833.671 1245.02,829.875 C1249.36,825.459 1251.53,821.469 1251.53,817.905 C1251.53,815.503 1249.86,813.218 1246.53,811.049 C1243.58,809.189 1238.82,808.26 1232.23,808.26 C1222.63,808.26 1210.5,817.944 1195.86,837.312 C1186.1,850.25 1178.2,861.639 1172.15,871.478 C1175.1,869.851 1178.62,867.876 1182.73,865.552 C1187.76,862.685 1192.1,861.252 1195.74,861.252 C1204.81,861.252 1209.34,864.506 1209.34,871.013 C1209.34,877.444 1205.62,884.494 1198.19,892.164 C1192.92,897.587 1190.28,901.616 1190.28,904.25 C1190.28,906.961 1192.92,908.317 1198.19,908.317 C1200.82,908.317 1203.53,907.388 1206.32,905.528 C1209.11,903.746 1211.16,902.855 1212.48,902.855 C1213.56,902.855 1214.11,903.553 1214.11,904.947 C1214.11,907.194 1211.94,909.557 1207.6,912.036 C1200.32,916.22 1194.47,918.311 1190.05,918.311 C1182.23,918.311 1178.31,914.128 1178.31,905.761 C1178.31,900.492 1181.33,894.643 1187.38,888.213 C1191.79,883.487 1194,878.8 1194,874.151 C1194,870.123 1191.83,868.108 1187.49,868.108 C1185.79,868.108 1180.13,870.123 1170.53,874.151 C1167.66,878.955 1165.26,883.371 1163.32,887.399 C1155.96,902.739 1151.08,910.409 1148.68,910.409"/>
<path class="Note" d="M1177.96,576.876 C1181.76,576.876 1183.66,579.781 1183.66,585.592 C1183.66,589.775 1181.68,594.579 1177.73,600.002 C1174.25,604.883 1172.5,612.436 1172.5,622.663 C1172.5,627.544 1173.78,630.798 1176.34,632.425 C1178.12,633.664 1181.45,634.323 1186.33,634.4 C1191.6,634.4 1199.08,631.727 1208.76,626.382 L1210.62,628.241 C1208.14,631.417 1205.16,634.284 1201.67,636.841 C1196.48,640.637 1191.17,642.535 1185.75,642.535 C1177.93,642.535 1172,641.412 1167.97,639.165 C1162.93,636.376 1160.42,632.889 1160.42,628.706 C1160.42,617.162 1161.89,605.115 1164.83,592.564 C1165.92,587.993 1168.28,583.81 1171.92,580.013 C1174.01,577.922 1176.03,576.876 1177.96,576.876"/>
<path class="Note" d="M1148.68,821.118 C1144.5,821.118 1142.4,819.22 1142.4,815.423 C1142.4,808.993 1143.37,804.267 1145.31,801.246 C1153.37,789.315 1170.88,767.002 1197.84,734.308 C1210,719.511 1225.69,712.112 1244.9,712.112 C1252.34,712.112 1257.49,713.158 1260.36,715.249 C1264.77,718.503 1266.98,722.416 1266.98,726.987 C1266.98,731.79 1263.11,737.136 1255.36,743.024 C1248,748.602 1241.03,751.391 1234.44,751.391 C1231.89,751.391 1230.61,751.12 1230.61,750.578 C1230.61,749.803 1231.85,748.989 1234.33,748.137 C1237.66,746.898 1241.22,744.38 1245.02,740.583 C1249.36,736.167 1251.53,732.178 1251.53,728.614 C1251.53,726.212 1249.86,723.927 1246.53,721.757 C1243.58,719.898 1238.82,718.968 1232.23,718.968 C1222.63,718.968 1210.5,728.652 1195.86,748.021 C1186.1,760.959 1178.2,772.348 1172.15,782.187 C1175.1,780.56 1178.62,778.584 1182.73,776.26 C1187.76,773.394 1192.1,771.96 1195.74,771.96 C1204.81,771.96 1209.34,775.214 1209.34,781.722 C1209.34,788.152 1205.62,795.203 1198.19,802.873 C1192.92,808.296 1190.28,812.324 1190.28,814.958 C1190.28,817.67 1192.92,819.026 1198.19,819.026 C1200.82,819.026 1203.53,818.096 1206.32,816.237 C1209.11,814.455 1211.16,813.564 1212.48,813.564 C1213.56,813.564 1214.11,814.261 1214.11,815.656 C1214.11,817.902 1211.94,820.265 1207.6,822.745 C1200.32,826.928 1194.47,829.02 1190.05,829.02 C1182.23,829.02 1178.31,824.836 1178.31,816.469 C1178.31,811.201 1181.33,805.352 1187.38,798.921 C1191.79,794.195 1194,789.508 1194,784.86 C1194,780.831 1191.83,778.817 1187.49,778.817 C1185.79,778.817 1180.13,780.831 1170.53,784.86 C1167.66,789.663 1165.26,794.079 1163.32,798.108 C1155.96,813.448 1151.08,821.118 1148.68,821.118"/>
<path class="Note" d="M1148.68,731.826 C1144.5,731.826 1142.4,729.928 1142.4,726.132 C1142.4,719.702 1143.37,714.976 1145.31,711.954 C1153.37,700.023 1170.88,677.711 1197.84,645.017 C1210,630.219 1225.69,622.82 1244.9,622.82 C1252.34,622.82 1257.49,623.866 1260.36,625.958 C1264.77,629.212 1266.98,633.124 1266.98,637.695 C1266.98,642.499 1263.11,647.845 1255.36,653.733 C1248,659.311 1241.03,662.1 1234.44,662.1 C1231.89,662.1 1230.61,661.829 1230.61,661.286 C1230.61,660.512 1231.85,659.698 1234.33,658.846 C1237.66,657.606 1241.22,655.088 1245.02,651.292 C1249.36,646.876 1251.53,642.886 1251.53,639.322 C1251.53,636.921 1249.86,634.635 1246.53,632.466 C1243.58,630.607 1238.82,629.677 1232.23,629.677 C1222.63,629.677 1210.5,639.361 1195.86,658.73 C1186.1,671.668 1178.2,683.056 1172.15,692.896 C1175.1,691.269 1178.62,689.293 1182.73,686.969 C1187.76,684.102 1192.1,682.669 1195.74,682.669 C1204.81,682.669 1209.34,685.923 1209.34,692.431 C1209.34,698.861 1205.62,705.911 1198.19,713.581 C1192.92,719.004 1190.28,723.033 1190.28,725.667 C1190.28,728.379 1192.92,729.735 1198.19,729.735 C1200.82,729.735 1203.53,728.805 1206.32,726.945 C1209.11,725.164 1211.16,724.273 1212.48,724.273 C1213.56,724.273 1214.11,724.97 1214.11,726.364 C1214.11,728.611 1211.94,730.974 1207.6,733.453 C1200.32,737.637 1194.47,739.729 1190.05,739.729 C1182.23,739.729 1178.31,735.545 1178.31,727.178 C1178.31,721.91 1181.33,716.06 1187.38,709.63 C1191.79,704.904 1194,700.217 1194,695.568 C1194,691.54 1191.83,689.526 1187.49,689.526 C1185.79,689.526 1180.13,691.54 1170.53,695.568 C1167.66,700.372 1165.26,704.788 1163.32,708.817 C1155.96,724.156 1151.08,731.826 1148.68,731.826"/>
<path class="Note" d="M1618.23,836.499 C1620.63,836.499 1622.38,837.002 1623.46,838.01 C1624.7,839.094 1625.32,840.682 1625.32,842.774 C1625.32,845.408 1624.16,847.655 1621.83,849.514 C1611.76,856.642 1601.42,865.707 1590.81,876.708 C1593.21,887.322 1596.15,895.185 1599.64,900.299 C1604.21,907.039 1607.35,910.409 1609.05,910.409 C1610.6,910.409 1612.27,909.441 1614.05,907.504 C1615.29,906.187 1616.49,905.528 1617.65,905.528 C1620.13,905.528 1621.37,906.845 1621.37,909.479 C1621.37,912.268 1619.16,916.065 1614.75,920.868 C1612.34,923.347 1609.83,924.587 1607.19,924.587 C1601.77,924.587 1596.31,919.512 1590.81,909.363 C1585.23,899.137 1581.39,889.491 1579.3,880.427 C1575.43,892.358 1573.49,899.679 1573.49,902.39 C1573.49,907.736 1570.43,910.409 1564.31,910.409 C1560.98,910.409 1559.31,907.31 1559.31,901.112 C1559.31,898.168 1562.99,884.998 1570.35,861.6 C1573.99,850.134 1576.98,842.116 1579.3,837.545 C1579.84,836.615 1581.24,836.15 1583.48,836.15 C1586.12,836.15 1587.94,836.693 1588.95,837.777 C1589.95,838.862 1590.46,841.109 1590.46,844.517 C1590.46,846.222 1588.79,852.11 1585.46,862.181 C1593.75,854.047 1603.09,846.106 1613.47,838.358 C1615.09,837.119 1616.68,836.499 1618.23,836.499"/>
<path class="Note" d="M1557.34,642.535 C1553.15,642.535 1551.06,640.637 1551.06,636.841 C1551.06,630.41 1552.03,625.684 1553.97,622.663 C1562.02,610.732 1579.53,588.419 1606.49,555.725 C1618.66,540.928 1634.35,533.529 1653.56,533.529 C1661,533.529 1666.15,534.575 1669.02,536.667 C1673.43,539.921 1675.64,543.833 1675.64,548.404 C1675.64,553.207 1671.77,558.553 1664.02,564.441 C1656.66,570.019 1649.69,572.808 1643.1,572.808 C1640.54,572.808 1639.27,572.537 1639.27,571.995 C1639.27,571.22 1640.51,570.407 1642.98,569.555 C1646.32,568.315 1649.88,565.797 1653.68,562.001 C1658.01,557.585 1660.18,553.595 1660.18,550.031 C1660.18,547.629 1658.52,545.344 1655.19,543.175 C1652.24,541.315 1647.48,540.386 1640.89,540.386 C1631.29,540.386 1619.16,550.07 1604.52,569.438 C1594.76,582.376 1586.86,593.765 1580.81,603.604 C1583.76,601.977 1587.28,600.002 1591.39,597.678 C1596.42,594.811 1600.76,593.378 1604.4,593.378 C1613.47,593.378 1618,596.632 1618,603.139 C1618,609.57 1614.28,616.62 1606.84,624.29 C1601.58,629.713 1598.94,633.742 1598.94,636.376 C1598.94,639.087 1601.58,640.443 1606.84,640.443 C1609.48,640.443 1612.19,639.513 1614.98,637.654 C1617.77,635.872 1619.82,634.981 1621.14,634.981 C1622.22,634.981 1622.76,635.679 1622.76,637.073 C1622.76,639.32 1620.59,641.683 1616.26,644.162 C1608.97,648.346 1603.12,650.437 1598.71,650.437 C1590.88,650.437 1586.97,646.254 1586.97,637.887 C1586.97,632.618 1589.99,626.769 1596.04,620.339 C1600.45,615.613 1602.66,610.926 1602.66,606.277 C1602.66,602.249 1600.49,600.234 1596.15,600.234 C1594.45,600.234 1588.79,602.249 1579.19,606.277 C1576.32,611.081 1573.92,615.497 1571.98,619.525 C1564.62,634.865 1559.74,642.535 1557.34,642.535"/>
<path class="Note" d="M1557.34,821.118 C1553.15,821.118 1551.06,819.22 1551.06,815.423 C1551.06,808.993 1552.03,804.267 1553.97,801.246 C1562.02,789.315 1579.53,767.002 1606.49,734.308 C1618.66,719.511 1634.35,712.112 1653.56,712.112 C1661,712.112 1666.15,713.158 1669.02,715.249 C1673.43,718.503 1675.64,722.416 1675.64,726.987 C1675.64,731.79 1671.77,737.136 1664.02,743.024 C1656.66,748.602 1649.69,751.391 1643.1,751.391 C1640.54,751.391 1639.27,751.12 1639.27,750.578 C1639.27,749.803 1640.51,748.989 1642.98,748.137 C1646.32,746.898 1649.88,744.38 1653.68,740.583 C1658.01,736.167 1660.18,732.178 1660.18,728.614 C1660.18,726.212 1658.52,723.927 1655.19,721.757 C1652.24,719.898 1647.48,718.968 1640.89,718.968 C1631.29,718.968 1619.16,728.652 1604.52,748.021 C1594.76,760.959 1586.86,772.348 1580.81,782.187 C1583.76,780.56 1587.28,778.584 1591.39,776.26 C1596.42,773.394 1600.76,771.96 1604.4,771.96 C1613.47,771.96 1618,775.214 1618,781.722 C1618,788.152 1614.28,795.203 1606.84,802.873 C1601.58,808.296 1598.94,812.324 1598.94,814.958 C1598.94,817.67 1601.58,819.026 1606.84,819.026 C1609.48,819.026 1612.19,818.096 1614.98,816.237 C1617.77,814.455 1619.82,813.564 1621.14,813.564 C1622.22,813.564 1622.76,814.261 1622.76,815.656 C1622.76,817.902 1620.59,820.265 1616.26,822.745 C1608.97,826.928 1603.12,829.02 1598.71,829.02 C1590.88,829.02 1586.97,824.836 1586.97,816.469 C1586.97,811.201 1589.99,805.352 1596.04,798.921 C1600.45,794.195 1602.66,789.508 1602.66,784.86 C1602.66,780.831 1600.49,778.817 1596.15,778.817 C1594.45,778.817 1588.79,780.831 1579.19,784.86 C1576.32,789.663 1573.92,794.079 1571.98,798.108 C1564.62,813.448 1559.74,821.118 1557.34,821.118"/>
<path class="Note" d="M1586.62,666.167 C1590.42,666.167 1592.32,669.072 1592.32,674.883 C1592.32,679.067 1590.34,683.87 1586.39,689.293 C1582.9,694.174 1581.16,701.728 1581.16,711.954 C1581.16,716.835 1582.44,720.089 1585,721.716 C1586.78,722.956 1590.11,723.614 1594.99,723.692 C1600.26,723.692 1607.73,721.019 1617.42,715.673 L1619.28,717.532 C1616.8,720.709 1613.82,723.575 1610.33,726.132 C1605.14,729.928 1599.83,731.826 1594.41,731.826 C1586.58,731.826 1580.66,730.703 1576.63,728.456 C1571.59,725.667 1569.07,722.181 1569.07,717.997 C1569.07,706.454 1570.55,694.406 1573.49,681.856 C1574.58,677.285 1576.94,673.101 1580.58,669.305 C1582.67,667.213 1584.69,666.167 1586.62,666.167"/>
<path class="Note" d="M2078.37,561.187 C2082.71,558.243 2085.85,555.803 2087.78,553.866 C2091.35,550.07 2093.13,546.583 2093.13,543.407 C2093.13,539.766 2091.12,537.945 2087.09,537.945 C2079.26,537.945 2070.9,544.84 2061.99,558.631 C2059.27,562.814 2053.31,576.45 2044.09,599.537 C2051.45,607.129 2055.13,611.429 2055.13,612.436 C2055.13,613.831 2054.24,614.528 2052.46,614.528 C2051.06,614.528 2047.23,612.165 2040.95,607.439 C2034.13,623.321 2023.79,636.879 2009.92,648.113 C1995.75,659.579 1978.82,665.312 1959.14,665.312 C1951.62,665.312 1942.21,663.569 1930.9,660.083 C1921.84,657.294 1917.3,652.839 1917.3,646.719 C1917.3,637.654 1920.79,633.122 1927.76,633.122 C1931.95,633.122 1934.04,635.059 1934.04,638.932 C1934.04,640.172 1933.07,641.489 1931.13,642.884 C1930.13,643.581 1929.62,644.937 1929.62,646.951 C1929.62,649.353 1932.29,651.832 1937.64,654.388 C1943.45,657.178 1951.97,658.572 1963.21,658.572 C1977.69,658.572 1991.68,652.297 2005.16,639.746 C2017.4,628.357 2026.19,615.109 2031.54,600.002 C2029.45,598.297 2027.2,596.438 2024.8,594.424 C2017.36,590.008 2013.64,585.475 2013.64,580.827 C2013.64,578.89 2014.92,577.922 2017.48,577.922 C2020.89,577.922 2025.5,580.827 2031.31,586.638 C2032.55,587.877 2033.71,589.039 2034.79,590.124 C2037.5,582.686 2041.84,573.235 2047.81,561.768 C2058.58,541.005 2071.67,530.624 2087.09,530.624 C2092.59,530.624 2096.93,531.67 2100.1,533.762 C2103.28,535.853 2104.87,538.72 2104.87,542.361 C2104.87,548.172 2102.74,553.091 2098.48,557.12 C2094.06,561.304 2089.45,563.395 2084.65,563.395 C2080.46,563.395 2078.37,562.659 2078.37,561.187"/>
<path class="Note" d="M2078.37,739.77 C2082.71,736.826 2085.85,734.386 2087.78,732.449 C2091.35,728.652 2093.13,725.166 2093.13,721.99 C2093.13,718.348 2091.12,716.528 2087.09,716.528 C2079.26,716.528 2070.9,723.423 2061.99,737.213 C2059.27,741.397 2053.31,755.032 2044.09,778.12 C2051.45,785.712 2055.13,790.012 2055.13,791.019 C2055.13,792.414 2054.24,793.111 2052.46,793.111 C2051.06,793.111 2047.23,790.748 2040.95,786.022 C2034.13,801.904 2023.79,815.462 2009.92,826.696 C1995.75,838.162 1978.82,843.895 1959.14,843.895 C1951.62,843.895 1942.21,842.152 1930.9,838.666 C1921.84,835.876 1917.3,831.422 1917.3,825.301 C1917.3,816.237 1920.79,811.705 1927.76,811.705 C1931.95,811.705 1934.04,813.641 1934.04,817.515 C1934.04,818.755 1933.07,820.072 1931.13,821.466 C1930.13,822.164 1929.62,823.519 1929.62,825.534 C1929.62,827.935 1932.29,830.415 1937.64,832.971 C1943.45,835.76 1951.97,837.155 1963.21,837.155 C1977.69,837.155 1991.68,830.879 2005.16,818.329 C2017.4,806.94 2026.19,793.692 2031.54,778.584 C2029.45,776.88 2027.2,775.021 2024.8,773.006 C2017.36,768.59 2013.64,764.058 2013.64,759.41 C2013.64,757.473 2014.92,756.504 2017.48,756.504 C2020.89,756.504 2025.5,759.41 2031.31,765.22 C2032.55,766.46 2033.71,767.622 2034.79,768.707 C2037.5,761.269 2041.84,751.817 2047.81,740.351 C2058.58,719.588 2071.67,709.207 2087.09,709.207 C2092.59,709.207 2096.93,710.252 2100.1,712.344 C2103.28,714.436 2104.87,717.303 2104.87,720.944 C2104.87,726.754 2102.74,731.674 2098.48,735.703 C2094.06,739.886 2089.45,741.978 2084.65,741.978 C2080.46,741.978 2078.37,741.242 2078.37,739.77"/>
<path class="Note" d="M2005.74,553.244 C2001.56,553.244 1999.46,551.346 1999.46,547.549 C1999.46,541.119 2000.43,536.393 2002.37,533.372 C2010.43,521.441 2027.94,499.128 2054.9,466.434 C2067.06,451.637 2082.75,444.238 2101.96,444.238 C2109.4,444.238 2114.55,445.284 2117.42,447.375 C2121.83,450.629 2124.04,454.542 2124.04,459.113 C2124.04,463.916 2120.17,469.262 2112.42,475.15 C2105.06,480.728 2098.09,483.517 2091.5,483.517 C2088.95,483.517 2087.67,483.246 2087.67,482.704 C2087.67,481.929 2088.91,481.115 2091.39,480.263 C2094.72,479.024 2098.28,476.506 2102.08,472.709 C2106.42,468.293 2108.59,464.304 2108.59,460.74 C2108.59,458.338 2106.92,456.053 2103.59,453.883 C2100.65,452.024 2095.88,451.094 2089.3,451.094 C2079.69,451.094 2067.56,460.778 2052.92,480.147 C2043.16,493.085 2035.26,504.474 2029.21,514.313 C2032.16,512.686 2035.68,510.71 2039.79,508.386 C2044.83,505.52 2049.16,504.086 2052.81,504.086 C2061.87,504.086 2066.4,507.34 2066.4,513.848 C2066.4,520.278 2062.68,527.329 2055.25,534.999 C2049.98,540.422 2047.34,544.45 2047.34,547.084 C2047.34,549.796 2049.98,551.152 2055.25,551.152 C2057.88,551.152 2060.59,550.222 2063.38,548.363 C2066.17,546.581 2068.22,545.69 2069.54,545.69 C2070.62,545.69 2071.17,546.387 2071.17,547.782 C2071.17,550.028 2069,552.391 2064.66,554.871 C2057.38,559.054 2051.53,561.146 2047.11,561.146 C2039.29,561.146 2035.37,556.962 2035.37,548.595 C2035.37,543.327 2038.39,537.478 2044.44,531.047 C2048.85,526.321 2051.06,521.634 2051.06,516.986 C2051.06,512.957 2048.89,510.943 2044.55,510.943 C2042.85,510.943 2037.19,512.957 2027.59,516.986 C2024.72,521.789 2022.32,526.205 2020.38,530.234 C2013.02,545.574 2008.14,553.244 2005.74,553.244"/>
<path class="Note" d="M2035.02,666.167 C2038.82,666.167 2040.72,669.072 2040.72,674.883 C2040.72,679.067 2038.74,683.87 2034.79,689.293 C2031.31,694.174 2029.56,701.728 2029.56,711.954 C2029.56,716.835 2030.84,720.089 2033.4,721.716 C2035.18,722.956 2038.51,723.614 2043.39,723.692 C2048.66,723.692 2056.14,721.019 2065.82,715.673 L2067.68,717.532 C2065.2,720.709 2062.22,723.575 2058.73,726.132 C2053.54,729.928 2048.23,731.826 2042.81,731.826 C2034.99,731.826 2029.06,730.703 2025.03,728.456 C2019.99,725.667 2017.48,722.181 2017.48,717.997 C2017.48,706.454 2018.95,694.406 2021.89,681.856 C2022.98,677.285 2025.34,673.101 2028.98,669.305 C2031.07,667.213 2033.09,666.167 2035.02,666.167"/>
<path class="Note" d="M2496.78,851.839 C2501.36,851.839 2503.64,854.705 2503.64,860.438 C2503.64,864.467 2501.12,870.471 2496.09,878.451 C2492.06,884.881 2490.04,891.157 2490.04,897.277 C2490.04,900.763 2495.12,902.507 2505.27,902.507 C2513.63,902.507 2525.29,897.974 2540.25,888.91 C2525.22,903.398 2512.16,910.641 2501.08,910.641 C2491.09,910.641 2484.12,909.131 2480.17,906.109 C2479.16,905.334 2478.31,904.405 2477.61,903.32 C2473.74,908.046 2467.27,910.409 2458.2,910.409 C2449.53,910.409 2442.86,908.627 2438.21,905.063 C2435.11,902.662 2433.57,898.827 2433.57,893.558 C2433.57,885.191 2438.52,876.049 2448.44,866.133 C2459.05,855.519 2471.33,850.212 2485.28,850.212 C2488.77,850.212 2491.32,851.49 2492.95,854.047 C2494.27,852.575 2495.54,851.839 2496.78,851.839 M2475.98,898.091 C2475.9,897.471 2475.87,896.851 2475.87,896.231 C2475.87,895.921 2479.82,885.114 2487.72,863.808 C2488.49,861.717 2489.27,859.935 2490.04,858.463 C2487.02,857.843 2484.04,857.533 2481.1,857.533 C2475.67,857.533 2468.47,862.143 2459.48,871.362 C2451.42,879.574 2447.39,886.663 2447.39,892.629 C2447.39,899.214 2450.53,902.507 2456.81,902.507 C2464.4,902.507 2470.79,901.035 2475.98,898.091"/>
<path class="Note" d="M2511.66,561.187 C2516,558.243 2519.14,555.803 2521.07,553.866 C2524.64,550.07 2526.42,546.583 2526.42,543.407 C2526.42,539.766 2524.4,537.945 2520.38,537.945 C2512.55,537.945 2504.18,544.84 2495.27,558.631 C2492.56,562.814 2486.6,576.45 2477.38,599.537 C2484.74,607.129 2488.42,611.429 2488.42,612.436 C2488.42,613.831 2487.53,614.528 2485.74,614.528 C2484.35,614.528 2480.51,612.165 2474.24,607.439 C2467.42,623.321 2457.08,636.879 2443.21,648.113 C2429.03,659.579 2412.11,665.312 2392.43,665.312 C2384.91,665.312 2375.5,663.569 2364.19,660.083 C2355.12,657.294 2350.59,652.839 2350.59,646.719 C2350.59,637.654 2354.08,633.122 2361.05,633.122 C2365.23,633.122 2367.33,635.059 2367.33,638.932 C2367.33,640.172 2366.36,641.489 2364.42,642.884 C2363.41,643.581 2362.91,644.937 2362.91,646.951 C2362.91,649.353 2365.58,651.832 2370.93,654.388 C2376.74,657.178 2385.26,658.572 2396.49,658.572 C2410.98,658.572 2424.97,652.297 2438.45,639.746 C2450.69,628.357 2459.48,615.109 2464.83,600.002 C2462.73,598.297 2460.49,596.438 2458.09,594.424 C2450.65,590.008 2446.93,585.475 2446.93,580.827 C2446.93,578.89 2448.21,577.922 2450.76,577.922 C2454.17,577.922 2458.78,580.827 2464.59,586.638 C2465.83,587.877 2467,589.039 2468.08,590.124 C2470.79,582.686 2475.13,573.235 2481.1,561.768 C2491.86,541.005 2504.96,530.624 2520.38,530.624 C2525.88,530.624 2530.21,531.67 2533.39,533.762 C2536.57,535.853 2538.16,538.72 2538.16,542.361 C2538.16,548.172 2536.02,553.091 2531.76,557.12 C2527.35,561.304 2522.74,563.395 2517.93,563.395 C2513.75,563.395 2511.66,562.659 2511.66,561.187"/>
<path class="Note" d="M2511.66,471.896 C2516,468.952 2519.14,466.512 2521.07,464.575 C2524.64,460.778 2526.42,457.292 2526.42,454.116 C2526.42,450.474 2524.4,448.654 2520.38,448.654 C2512.55,448.654 2504.18,455.549 2495.27,469.339 C2492.56,473.523 2486.6,487.158 2477.38,510.246 C2484.74,517.838 2488.42,522.138 2488.42,523.145 C2488.42,524.54 2487.53,525.237 2485.74,525.237 C2484.35,525.237 2480.51,522.874 2474.24,518.148 C2467.42,534.03 2457.08,547.588 2443.21,558.822 C2429.03,570.288 2412.11,576.021 2392.43,576.021 C2384.91,576.021 2375.5,574.278 2364.19,570.791 C2355.12,568.002 2350.59,563.548 2350.59,557.427 C2350.59,548.363 2354.08,543.831 2361.05,543.831 C2365.23,543.831 2367.33,545.767 2367.33,549.641 C2367.33,550.881 2366.36,552.198 2364.42,553.592 C2363.41,554.29 2362.91,555.645 2362.91,557.66 C2362.91,560.061 2365.58,562.541 2370.93,565.097 C2376.74,567.886 2385.26,569.281 2396.49,569.281 C2410.98,569.281 2424.97,563.005 2438.45,550.455 C2450.69,539.066 2459.48,525.818 2464.83,510.71 C2462.73,509.006 2460.49,507.147 2458.09,505.132 C2450.65,500.716 2446.93,496.184 2446.93,491.536 C2446.93,489.599 2448.21,488.63 2450.76,488.63 C2454.17,488.63 2458.78,491.536 2464.59,497.346 C2465.83,498.586 2467,499.748 2468.08,500.832 C2470.79,493.395 2475.13,483.943 2481.1,472.477 C2491.86,451.714 2504.96,441.332 2520.38,441.332 C2525.88,441.332 2530.21,442.378 2533.39,444.47 C2536.57,446.562 2538.16,449.429 2538.16,453.07 C2538.16,458.88 2536.02,463.8 2531.76,467.829 C2527.35,472.012 2522.74,474.104 2517.93,474.104 C2513.75,474.104 2511.66,473.368 2511.66,471.896"/>
<path class="Note" d="M2439.03,821.118 C2434.84,821.118 2432.75,819.22 2432.75,815.423 C2432.75,808.993 2433.72,804.267 2435.66,801.246 C2443.71,789.315 2461.22,767.002 2488.18,734.308 C2500.35,719.511 2516.04,712.112 2535.25,712.112 C2542.69,712.112 2547.84,713.158 2550.71,715.249 C2555.12,718.503 2557.33,722.416 2557.33,726.987 C2557.33,731.79 2553.46,737.136 2545.71,743.024 C2538.35,748.602 2531.38,751.391 2524.79,751.391 C2522.23,751.391 2520.96,751.12 2520.96,750.578 C2520.96,749.803 2522.2,748.989 2524.67,748.137 C2528.01,746.898 2531.57,744.38 2535.37,740.583 C2539.7,736.167 2541.87,732.178 2541.87,728.614 C2541.87,726.212 2540.21,723.927 2536.88,721.757 C2533.93,719.898 2529.17,718.968 2522.58,718.968 C2512.98,718.968 2500.85,728.652 2486.21,748.021 C2476.45,760.959 2468.54,772.348 2462.5,782.187 C2465.45,780.56 2468.97,778.584 2473.08,776.26 C2478.11,773.394 2482.45,771.96 2486.09,771.96 C2495.16,771.96 2499.69,775.214 2499.69,781.722 C2499.69,788.152 2495.97,795.203 2488.53,802.873 C2483.27,808.296 2480.63,812.324 2480.63,814.958 C2480.63,817.67 2483.27,819.026 2488.53,819.026 C2491.17,819.026 2493.88,818.096 2496.67,816.237 C2499.46,814.455 2501.51,813.564 2502.83,813.564 C2503.91,813.564 2504.45,814.261 2504.45,815.656 C2504.45,817.902 2502.28,820.265 2497.95,822.745 C2490.66,826.928 2484.81,829.02 2480.4,829.02 C2472.57,829.02 2468.66,824.836 2468.66,816.469 C2468.66,811.201 2471.68,805.352 2477.73,798.921 C2482.14,794.195 2484.35,789.508 2484.35,784.86 C2484.35,780.831 2482.18,778.817 2477.84,778.817 C2476.14,778.817 2470.48,780.831 2460.88,784.86 C2458.01,789.663 2455.61,794.079 2453.67,798.108 C2446.31,813.448 2441.43,821.118 2439.03,821.118"/>
<path class="Note" d="M2439.03,731.826 C2434.84,731.826 2432.75,729.928 2432.75,726.132 C2432.75,719.702 2433.72,714.976 2435.66,711.954 C2443.71,700.023 2461.22,677.711 2488.18,645.017 C2500.35,630.219 2516.04,622.82 2535.25,622.82 C2542.69,622.82 2547.84,623.866 2550.71,625.958 C2555.12,629.212 2557.33,633.124 2557.33,637.695 C2557.33,642.499 2553.46,647.845 2545.71,653.733 C2538.35,659.311 2531.38,662.1 2524.79,662.1 C2522.23,662.1 2520.96,661.829 2520.96,661.286 C2520.96,660.512 2522.2,659.698 2524.67,658.846 C2528.01,657.606 2531.57,655.088 2535.37,651.292 C2539.7,646.876 2541.87,642.886 2541.87,639.322 C2541.87,636.921 2540.21,634.635 2536.88,632.466 C2533.93,630.607 2529.17,629.677 2522.58,629.677 C2512.98,629.677 2500.85,639.361 2486.21,658.73 C2476.45,671.668 2468.54,683.056 2462.5,692.896 C2465.45,691.269 2468.97,689.293 2473.08,686.969 C2478.11,684.102 2482.45,682.669 2486.09,682.669 C2495.16,682.669 2499.69,685.923 2499.69,692.431 C2499.69,698.861 2495.97,705.911 2488.53,713.581 C2483.27,719.004 2480.63,723.033 2480.63,725.667 C2480.63,728.379 2483.27,729.735 2488.53,729.735 C2491.17,729.735 2493.88,728.805 2496.67,726.945 C2499.46,725.164 2501.51,724.273 2502.83,724.273 C2503.91,724.273 2504.45,724.97 2504.45,726.364 C2504.45,728.611 2502.28,730.974 2497.95,733.453 C2490.66,737.637 2484.81,739.729 2480.4,739.729 C2472.57,739.729 2468.66,735.545 2468.66,727.178 C2468.66,721.91 2471.68,716.06 2477.73,709.63 C2482.14,704.904 2484.35,700.217 2484.35,695.568 C2484.35,691.54 2482.18,689.526 2477.84,689.526 C2476.14,689.526 2470.48,691.54 2460.88,695.568 C2458.01,700.372 2455.61,704.788 2453.67,708.817 C2446.31,724.156 2441.43,731.826 2439.03,731.826"/>
<path class="Note" d="M2857.2,999.7 C2853.02,999.7 2850.93,997.802 2850.93,994.006 C2850.93,987.576 2851.89,982.85 2853.83,979.828 C2861.89,967.897 2879.4,945.585 2906.36,912.891 C2918.52,898.093 2934.21,890.694 2953.42,890.694 C2960.86,890.694 2966.01,891.74 2968.88,893.832 C2973.3,897.086 2975.5,900.999 2975.5,905.569 C2975.5,910.373 2971.63,915.719 2963.88,921.607 C2956.52,927.185 2949.55,929.974 2942.96,929.974 C2940.41,929.974 2939.13,929.703 2939.13,929.16 C2939.13,928.386 2940.37,927.572 2942.85,926.72 C2946.18,925.48 2949.74,922.962 2953.54,919.166 C2957.88,914.75 2960.05,910.76 2960.05,907.196 C2960.05,904.795 2958.38,902.509 2955.05,900.34 C2952.11,898.481 2947.34,897.551 2940.76,897.551 C2931.15,897.551 2919.02,907.235 2904.38,926.604 C2894.62,939.542 2886.72,950.93 2880.68,960.77 C2883.62,959.143 2887.14,957.167 2891.25,954.843 C2896.29,951.976 2900.62,950.543 2904.27,950.543 C2913.33,950.543 2917.86,953.797 2917.86,960.305 C2917.86,966.735 2914.14,973.785 2906.71,981.455 C2901.44,986.878 2898.8,990.907 2898.8,993.541 C2898.8,996.253 2901.44,997.609 2906.71,997.609 C2909.34,997.609 2912.05,996.679 2914.84,994.819 C2917.63,993.038 2919.68,992.147 2921,992.147 C2922.09,992.147 2922.63,992.844 2922.63,994.238 C2922.63,996.485 2920.46,998.848 2916.12,1001.33 C2908.84,1005.51 2902.99,1007.6 2898.57,1007.6 C2890.75,1007.6 2886.83,1003.42 2886.83,995.052 C2886.83,989.784 2889.86,983.934 2895.9,977.504 C2900.31,972.778 2902.52,968.091 2902.52,963.443 C2902.52,959.414 2900.35,957.4 2896.02,957.4 C2894.31,957.4 2888.66,959.414 2879.05,963.443 C2876.18,968.246 2873.78,972.662 2871.84,976.691 C2864.48,992.03 2859.6,999.7 2857.2,999.7"/>
<path class="Note" d="M2914.96,762.547 C2919.53,762.547 2921.81,765.414 2921.81,771.147 C2921.81,775.176 2919.3,781.18 2914.26,789.16 C2910.23,795.59 2908.22,801.865 2908.22,807.986 C2908.22,811.472 2913.29,813.215 2923.44,813.215 C2931.81,813.215 2943.47,808.683 2958.42,799.619 C2943.39,814.106 2930.34,821.35 2919.26,821.35 C2909.26,821.35 2902.29,819.839 2898.34,816.818 C2897.33,816.043 2896.48,815.113 2895.78,814.029 C2891.91,818.755 2885.44,821.118 2876.38,821.118 C2867.7,821.118 2861.04,819.336 2856.39,815.772 C2853.29,813.37 2851.74,809.535 2851.74,804.267 C2851.74,795.9 2856.7,786.758 2866.61,776.841 C2877.23,766.227 2889.51,760.92 2903.45,760.92 C2906.94,760.92 2909.5,762.199 2911.12,764.755 C2912.44,763.283 2913.72,762.547 2914.96,762.547 M2894.16,808.799 C2894.08,808.179 2894.04,807.56 2894.04,806.94 C2894.04,806.63 2897.99,795.822 2905.89,774.517 C2906.67,772.425 2907.44,770.643 2908.22,769.171 C2905.2,768.552 2902.21,768.242 2899.27,768.242 C2893.85,768.242 2886.64,772.851 2877.65,782.071 C2869.6,790.283 2865.57,797.372 2865.57,803.337 C2865.57,809.923 2868.71,813.215 2874.98,813.215 C2882.57,813.215 2888.97,811.743 2894.16,808.799"/>
<path class="Note" d="M2886.49,576.876 C2890.28,576.876 2892.18,579.781 2892.18,585.592 C2892.18,589.775 2890.2,594.579 2886.25,600.002 C2882.77,604.883 2881.02,612.436 2881.02,622.663 C2881.02,627.544 2882.3,630.798 2884.86,632.425 C2886.64,633.664 2889.97,634.323 2894.85,634.4 C2900.12,634.4 2907.6,631.727 2917.28,626.382 L2919.14,628.241 C2916.66,631.417 2913.68,634.284 2910.19,636.841 C2905,640.637 2899.7,642.535 2894.27,642.535 C2886.45,642.535 2880.52,641.412 2876.49,639.165 C2871.46,636.376 2868.94,632.889 2868.94,628.706 C2868.94,617.162 2870.41,605.115 2873.35,592.564 C2874.44,587.993 2876.8,583.81 2880.44,580.013 C2882.53,577.922 2884.55,576.876 2886.49,576.876"/>
<path class="Note" d="M2886.49,666.167 C2890.28,666.167 2892.18,669.072 2892.18,674.883 C2892.18,679.067 2890.2,683.87 2886.25,689.293 C2882.77,694.174 2881.02,701.728 2881.02,711.954 C2881.02,716.835 2882.3,720.089 2884.86,721.716 C2886.64,722.956 2889.97,723.614 2894.85,723.692 C2900.12,723.692 2907.6,721.019 2917.28,715.673 L2919.14,717.532 C2916.66,720.709 2913.68,723.575 2910.19,726.132 C2905,729.928 2899.7,731.826 2894.27,731.826 C2886.45,731.826 2880.52,730.703 2876.49,728.456 C2871.46,725.667 2868.94,722.181 2868.94,717.997 C2868.94,706.454 2870.41,694.406 2873.35,681.856 C2874.44,677.285 2876.8,673.101 2880.44,669.305 C2882.53,667.213 2884.55,666.167 2886.49,666.167"/>
<path class="Note" d="M3433.64,925.79 C3436.04,925.79 3437.79,926.294 3438.87,927.301 C3440.11,928.386 3440.73,929.974 3440.73,932.066 C3440.73,934.7 3439.57,936.946 3437.25,938.806 C3427.17,945.933 3416.83,954.998 3406.22,965.999 C3408.62,976.613 3411.56,984.477 3415.05,989.59 C3419.62,996.33 3422.76,999.7 3424.46,999.7 C3426.01,999.7 3427.68,998.732 3429.46,996.795 C3430.7,995.478 3431.9,994.819 3433.06,994.819 C3435.54,994.819 3436.78,996.137 3436.78,998.771 C3436.78,1001.56 3434.57,1005.36 3430.16,1010.16 C3427.75,1012.64 3425.24,1013.88 3422.6,1013.88 C3417.18,1013.88 3411.72,1008.8 3406.22,998.654 C3400.64,988.428 3396.8,978.782 3394.71,969.718 C3390.84,981.649 3388.9,988.97 3388.9,991.682 C3388.9,997.027 3385.84,999.7 3379.72,999.7 C3376.39,999.7 3374.72,996.601 3374.72,990.403 C3374.72,987.459 3378.4,974.289 3385.76,950.892 C3389.41,939.426 3392.39,931.407 3394.71,926.836 C3395.25,925.906 3396.65,925.442 3398.9,925.442 C3401.53,925.442 3403.35,925.984 3404.36,927.068 C3405.36,928.153 3405.87,930.4 3405.87,933.809 C3405.87,935.513 3404.2,941.401 3400.87,951.473 C3409.16,943.338 3418.5,935.397 3428.88,927.65 C3430.5,926.41 3432.09,925.79 3433.64,925.79"/>
<path class="Note" d="M3402.03,576.876 C3405.83,576.876 3407.73,579.781 3407.73,585.592 C3407.73,589.775 3405.75,594.579 3401.8,600.002 C3398.31,604.883 3396.57,612.436 3396.57,622.663 C3396.57,627.544 3397.85,630.798 3400.41,632.425 C3402.19,633.664 3405.52,634.323 3410.4,634.4 C3415.67,634.4 3423.14,631.727 3432.83,626.382 L3434.69,628.241 C3432.21,631.417 3429.23,634.284 3425.74,636.841 C3420.55,640.637 3415.24,642.535 3409.82,642.535 C3401.99,642.535 3396.07,641.412 3392.04,639.165 C3387,636.376 3384.49,632.889 3384.49,628.706 C3384.49,617.162 3385.96,605.115 3388.9,592.564 C3389.99,587.993 3392.35,583.81 3395.99,580.013 C3398.08,577.922 3400.1,576.876 3402.03,576.876"/>
<path class="Note" d="M3372.75,821.118 C3368.56,821.118 3366.47,819.22 3366.47,815.423 C3366.47,808.993 3367.44,804.267 3369.38,801.246 C3377.44,789.315 3394.94,767.002 3421.91,734.308 C3434.07,719.511 3449.76,712.112 3468.97,712.112 C3476.41,712.112 3481.56,713.158 3484.43,715.249 C3488.84,718.503 3491.05,722.416 3491.05,726.987 C3491.05,731.79 3487.18,737.136 3479.43,743.024 C3472.07,748.602 3465.1,751.391 3458.51,751.391 C3455.96,751.391 3454.68,751.12 3454.68,750.578 C3454.68,749.803 3455.92,748.989 3458.4,748.137 C3461.73,746.898 3465.29,744.38 3469.09,740.583 C3473.43,736.167 3475.59,732.178 3475.59,728.614 C3475.59,726.212 3473.93,723.927 3470.6,721.757 C3467.65,719.898 3462.89,718.968 3456.3,718.968 C3446.7,718.968 3434.57,728.652 3419.93,748.021 C3410.17,760.959 3402.27,772.348 3396.22,782.187 C3399.17,780.56 3402.69,778.584 3406.8,776.26 C3411.83,773.394 3416.17,771.96 3419.81,771.96 C3428.88,771.96 3433.41,775.214 3433.41,781.722 C3433.41,788.152 3429.69,795.203 3422.25,802.873 C3416.99,808.296 3414.35,812.324 3414.35,814.958 C3414.35,817.67 3416.99,819.026 3422.25,819.026 C3424.89,819.026 3427.6,818.096 3430.39,816.237 C3433.18,814.455 3435.23,813.564 3436.55,813.564 C3437.63,813.564 3438.17,814.261 3438.17,815.656 C3438.17,817.902 3436.01,820.265 3431.67,822.745 C3424.38,826.928 3418.54,829.02 3414.12,829.02 C3406.29,829.02 3402.38,824.836 3402.38,816.469 C3402.38,811.201 3405.4,805.352 3411.45,798.921 C3415.86,794.195 3418.07,789.508 3418.07,784.86 C3418.07,780.831 3415.9,778.817 3411.56,778.817 C3409.86,778.817 3404.2,780.831 3394.6,784.86 C3391.73,789.663 3389.33,794.079 3387.39,798.108 C3380.03,813.448 3375.15,821.118 3372.75,821.118"/>
<path class="Note" d="M3407.26,625.958 C3409.74,625.958 3411.45,626.578 3412.38,627.818 C3413.77,629.909 3414.47,632.853 3414.47,636.65 C3414.47,641.066 3411.37,651.641 3405.17,668.375 C3395.02,696.808 3389.95,711.877 3389.95,713.581 C3389.95,718.152 3391.77,720.476 3395.41,720.554 C3396.96,720.554 3400.91,718.152 3407.26,713.349 C3413.54,708.778 3418.38,706.492 3421.79,706.492 C3423.18,706.492 3423.88,707.345 3423.88,709.049 C3423.88,711.916 3420.05,715.673 3412.38,720.321 C3399.83,727.991 3391.15,731.826 3386.34,731.826 C3378.67,731.826 3374.84,728.805 3374.84,722.762 C3374.84,722.607 3380.15,704.827 3390.76,669.421 C3397.19,648.116 3401.1,634.248 3402.5,627.818 C3402.73,626.578 3404.32,625.958 3407.26,625.958"/>
<path class="Note" d="M3815.92,893.832 C3818.4,893.832 3820.1,894.452 3821.03,895.692 C3822.43,897.783 3823.13,900.727 3823.13,904.524 C3823.13,908.94 3820.03,919.515 3813.83,936.249 C3803.68,964.682 3798.61,979.751 3798.61,981.455 C3798.61,986.026 3800.43,988.35 3804.07,988.428 C3805.62,988.428 3809.57,986.026 3815.92,981.223 C3822.2,976.652 3827.04,974.366 3830.45,974.366 C3831.84,974.366 3832.54,975.219 3832.54,976.923 C3832.54,979.79 3828.7,983.547 3821.03,988.195 C3808.48,995.865 3799.81,999.7 3795,999.7 C3787.33,999.7 3783.5,996.679 3783.5,990.636 C3783.5,990.481 3788.81,972.701 3799.42,937.295 C3805.85,915.99 3809.76,902.122 3811.16,895.692 C3811.39,894.452 3812.98,893.832 3815.92,893.832"/>
<path class="Note" d="M3781.41,642.535 C3777.22,642.535 3775.13,640.637 3775.13,636.841 C3775.13,630.41 3776.1,625.684 3778.04,622.663 C3786.09,610.732 3803.6,588.419 3830.56,555.725 C3842.73,540.928 3858.42,533.529 3877.63,533.529 C3885.07,533.529 3890.22,534.575 3893.09,536.667 C3897.5,539.921 3899.71,543.833 3899.71,548.404 C3899.71,553.207 3895.84,558.553 3888.09,564.441 C3880.73,570.019 3873.76,572.808 3867.17,572.808 C3864.61,572.808 3863.34,572.537 3863.34,571.995 C3863.34,571.22 3864.57,570.407 3867.05,569.555 C3870.39,568.315 3873.95,565.797 3877.75,562.001 C3882.08,557.585 3884.25,553.595 3884.25,550.031 C3884.25,547.629 3882.59,545.344 3879.26,543.175 C3876.31,541.315 3871.55,540.386 3864.96,540.386 C3855.36,540.386 3843.23,550.07 3828.59,569.438 C3818.83,582.376 3810.92,593.765 3804.88,603.604 C3807.82,601.977 3811.35,600.002 3815.46,597.678 C3820.49,594.811 3824.83,593.378 3828.47,593.378 C3837.54,593.378 3842.07,596.632 3842.07,603.139 C3842.07,609.57 3838.35,616.62 3830.91,624.29 C3825.64,629.713 3823.01,633.742 3823.01,636.376 C3823.01,639.087 3825.64,640.443 3830.91,640.443 C3833.55,640.443 3836.26,639.513 3839.05,637.654 C3841.84,635.872 3843.89,634.981 3845.21,634.981 C3846.29,634.981 3846.83,635.679 3846.83,637.073 C3846.83,639.32 3844.66,641.683 3840.33,644.162 C3833.04,648.346 3827.19,650.437 3822.78,650.437 C3814.95,650.437 3811.04,646.254 3811.04,637.887 C3811.04,632.618 3814.06,626.769 3820.1,620.339 C3824.52,615.613 3826.73,610.926 3826.73,606.277 C3826.73,602.249 3824.56,600.234 3820.22,600.234 C3818.52,600.234 3812.86,602.249 3803.25,606.277 C3800.39,611.081 3797.99,615.497 3796.05,619.525 C3788.69,634.865 3783.81,642.535 3781.41,642.535"/>
<path class="Note" d="M3781.41,821.118 C3777.22,821.118 3775.13,819.22 3775.13,815.423 C3775.13,808.993 3776.1,804.267 3778.04,801.246 C3786.09,789.315 3803.6,767.002 3830.56,734.308 C3842.73,719.511 3858.42,712.112 3877.63,712.112 C3885.07,712.112 3890.22,713.158 3893.09,715.249 C3897.5,718.503 3899.71,722.416 3899.71,726.987 C3899.71,731.79 3895.84,737.136 3888.09,743.024 C3880.73,748.602 3873.76,751.391 3867.17,751.391 C3864.61,751.391 3863.34,751.12 3863.34,750.578 C3863.34,749.803 3864.57,748.989 3867.05,748.137 C3870.39,746.898 3873.95,744.38 3877.75,740.583 C3882.08,736.167 3884.25,732.178 3884.25,728.614 C3884.25,726.212 3882.59,723.927 3879.26,721.757 C3876.31,719.898 3871.55,718.968 3864.96,718.968 C3855.36,718.968 3843.23,728.652 3828.59,748.021 C3818.83,760.959 3810.92,772.348 3804.88,782.187 C3807.82,780.56 3811.35,778.584 3815.46,776.26 C3820.49,773.394 3824.83,771.96 3828.47,771.96 C3837.54,771.96 3842.07,775.214 3842.07,781.722 C3842.07,788.152 3838.35,795.203 3830.91,802.873 C3825.64,808.296 3823.01,812.324 3823.01,814.958 C3823.01,817.67 3825.64,819.026 3830.91,819.026 C3833.55,819.026 3836.26,818.096 3839.05,816.237 C3841.84,814.455 3843.89,813.564 3845.21,813.564 C3846.29,813.564 3846.83,814.261 3846.83,815.656 C3846.83,817.902 3844.66,820.265 3840.33,822.745 C3833.04,826.928 3827.19,829.02 3822.78,829.02 C3814.95,829.02 3811.04,824.836 3811.04,816.469 C3811.04,811.201 3814.06,805.352 3820.1,798.921 C3824.52,794.195 3826.73,789.508 3826.73,784.86 C3826.73,780.831 3824.56,778.817 3820.22,778.817 C3818.52,778.817 3812.86,780.831 3803.25,784.86 C3800.39,789.663 3797.99,794.079 3796.05,798.108 C3788.69,813.448 3783.81,821.118 3781.41,821.118"/>
<path class="Note" d="M3810.69,666.167 C3814.49,666.167 3816.39,669.072 3816.39,674.883 C3816.39,679.067 3814.41,683.87 3810.46,689.293 C3806.97,694.174 3805.23,701.728 3805.23,711.954 C3805.23,716.835 3806.51,720.089 3809.06,721.716 C3810.85,722.956 3814.18,723.614 3819.06,723.692 C3824.33,723.692 3831.8,721.019 3841.49,715.673 L3843.35,717.532 C3840.87,720.709 3837.88,723.575 3834.4,726.132 C3829.21,729.928 3823.9,731.826 3818.48,731.826 C3810.65,731.826 3804.73,730.703 3800.7,728.456 C3795.66,725.667 3793.14,722.181 3793.14,717.997 C3793.14,706.454 3794.62,694.406 3797.56,681.856 C3798.64,677.285 3801.01,673.101 3804.65,669.305 C3806.74,667.213 3808.75,666.167 3810.69,666.167"/>
<path class="Clef" transform="matrix(2.3811,0,0,2.3811,212.156,2076.38)" d="M25.4,-25.1 C17.8,-25.1 11.7,-20.7 11.6,-20.7 C5.8,-16.4 3.5,-11.3 2.6,-7.8 C2.1,-6 1.9,-4.2 1.9,-2.5 C1.9,-0.1 2.3,2.1 3.2,4 C4.4,6.7 6.7,8.6 9.7,9.6 C10.9,10 12.2,10.2 13.5,10.2 C15.7,10.2 18,9.6 19.9,8.5 C23,6.8 24.9,3.2 24.9,-0.7 C24.9,-4.2 23.1,-7.4 20.1,-9.3 C18,-10.7 16,-11.1 14.3,-11.1 C13.1,-11.1 12,-10.9 11.1,-10.6 C10.1,-10.2 8.4,-9.2 7.6,-8.5 C7.9,-10.4 9.1,-13.3 10.2,-14.9 C11.3,-16.5 13.5,-18.5 15.2,-19.4 C17.7,-20.8 20.9,-21.4 24.4,-21.4 C34.6,-21.4 39.6,-13.2 39.6,3.6 C39.6,12.9 36.1,21.8 33.1,27.7 C29.8,34.3 25.4,40.6 21.5,44.1 C11.1,53.6 1.3,58.1 1.2,58.1 C1.2,58.1 -0.3,59 0.1,60.5 C0.4,61.5 1.3,61.7 1.9,61.7 C2,61.7 2.3,61.6 2.4,61.6 C2.5,61.6 13.9,56.9 23,49.8 C28.1,46.1 32.7,42.1 36.7,37.8 C40.3,33.9 43.4,29.7 45.9,25.5 C50.3,18 52.8,10.2 52.8,3.5 C52.8,-4.8 50.6,-11.7 46.5,-16.6 C41.8,-22.2 34.7,-25.1 25.4,-25.1 M56.8,-12.4 C56.8,-9.6 59,-7.4 61.6,-7.4 C64.2,-7.4 66.4,-9.6 66.4,-12.4 C66.4,-15.2 64.2,-17.5 61.6,-17.5 C59,-17.5 56.8,-15.2 56.8,-12.4 M56.8,12.3 C56.8,15.1 59,17.4 61.6,17.4 C64.2,17.4 66.4,15.1 66.4,12.3 C66.4,9.5 64.2,7.2 61.6,7.2 C59,7.2 56.8,9.5 56.8,12.3"/>
<path class="Clef" transform="matrix(2.3811,0,0,2.3811,212.156,1570.39)" d="M63.37,-5.89004 C62.14,-11.32 59.5,-15.14 58.72,-16.1801 C55.5301,-20.45 51.52,-23.3 46.8301,-24.65 C43.72,-25.54 40.72,-25.65 38.3,-25.47 C37.2601,-31.4801 36.2601,-37.3601 35.35,-42.8101 C40.79,-48.97 44.42,-54.77 46.69,-59.07 C50.1601,-65.65 51.3101,-70.2301 51.3601,-70.4301 C53.0801,-75.64 53.44,-83.34 52.34,-91.55 C51.3301,-99.1 49.24,-105.81 46.89,-109.06 C45.8601,-110.49 44.8101,-111.22 43.77,-111.22 C42.55,-111.22 40.04,-109.98 37.15,-107.21 C34.85,-105.01 31.5801,-101.12 29.02,-95.1101 C26.02,-88.05 25.8101,-78.5601 26.1601,-71.84 C26.54,-64.57 27.65,-58.8801 27.6601,-58.8301 C27.6801,-58.74 27.94,-57.24 28.39,-54.67 C28.1601,-54.44 27.92,-54.22 27.67,-53.9801 C26.6301,-52.9801 25.44,-51.84 24.0601,-50.4601 C23.2,-49.6 22.25,-48.69 21.25,-47.72 C12.79,-39.57 0,-27.25 0,-8.1 C0,-3.4 0.9,1.01992 2.68008,5.02998 C4.27002,8.62998 6.57002,11.91 9.5,14.78 C17.2301,22.33 27.82,25.5399 34.8801,25.38 C37.8301,25.31 40.4601,25.0699 42.85,24.6199 C44.6801,34.2199 45.82,41.25 45.8601,46.5899 C45.9,53.1 44.25,57.0699 40.35,59.8399 C37.92,61.5699 35.1101,62.5199 32.0101,62.6699 C29.42,62.7899 27.1601,62.3199 25.7301,61.91 L25.72,61.91 C25.72,61.91 25.4301,61.83 25.42,61.63 C25.4101,61.45 25.7601,61.4 25.77,61.4 L25.79,61.4 C27.7101,60.96 31.2801,59.73 33.64,56.43 C35.44,53.91 36.3101,49.2899 34.47,45.35 C33.3601,42.96 30.85,40.01 25.2301,39.56 C22.74,39.36 20.47,39.8699 18.47,41.0699 C16.6601,42.15 15.1601,43.7899 14.1101,45.7899 C11.65,50.4899 12.1101,56.2199 15.24,60.06 C18.2,63.68 22.82,65.9899 28.25,66.5699 C29.1,66.66 29.95,66.7 30.8,66.7 C31.5101,66.7 32.22,66.6699 32.92,66.61 C31.72,66.9399 30.64,67.4899 29.77,68.25 C28.2801,69.5399 27.44,71.38 27.44,73.41 C27.44,75.28 28.0601,76.65 29.55,78.0399 C28.4101,78.5 27.55,78.98 26.79,79.56 C25.25,80.73 24.34,82.46 24.34,84.1899 C24.34,87.45 27.3,89.63 31.72,89.63 C37.1301,89.63 40.9101,86.63 40.9101,82.35 C40.9101,80.1199 39.9101,78.18 38.0801,76.83 C41.0101,75.6199 42.37,73.9399 42.37,71.56 C42.39,70.05 41.69,68.61 40.49,67.6899 C39.2801,66.7399 37.62,66.2399 35.69,66.2399 L35.5101,66.2399 C38.2801,65.7 40.92,64.7 43.2101,63.28 C46.87,60.71 48.99,56.73 49.67,51.1 C50.2301,46.46 49.84,40.55 48.44,32.48 C48.0801,30.3899 47.54,27.36 46.8801,23.6 C52.6301,21.68 56.79,18.11 60.5601,12.26 C63.85,6.51992 64.8,0.419922 63.37,-5.89004 M32.39,87.5399 C30.19,87.5399 28.7301,86.1199 28.7301,84.01 C28.7301,82.11 29.65,80.5 31.32,79.4699 C31.6801,79.66 31.77,79.71 32.1101,79.88 C33.3,80.48 33.3,80.48 33.55,80.63 L33.5601,80.6399 C35.47,81.73 36.25,82.76 36.25,84.18 C36.24,86.0899 34.59,87.5399 32.39,87.5399 M38.3101,71.63 C38.3101,73.2699 37.7301,74.3399 36.1801,75.53 C34.74,74.78 34.35,74.56 33.9801,74.3399 L33.8801,74.28 C32.3301,73.3399 31.85,72.66 31.85,71.4 C31.85,69.6 33.2301,68.3399 35.19,68.3399 C37.17,68.35 38.3101,69.55 38.3101,71.63 M33.15,-83.8101 C34.9301,-89.55 37.67,-92.8 39.6601,-94.5301 C41.4101,-96.05 43.0601,-96.7601 43.9801,-96.7601 C44.12,-96.7601 44.24,-96.74 44.34,-96.7101 C44.8,-96.57 45.3301,-96 45.8,-95.1301 C48.1101,-90.84 47.37,-84.1301 46.0301,-79.69 C44.4,-74.29 41.4801,-68.6801 32.69,-59.0601 C32.52,-60.17 32.3601,-61.22 32.2101,-62.2 C30.95,-70.49 31.27,-77.7601 33.15,-83.8101 M29.15,20.31 C24.5101,19.0899 20.0801,16.5899 16.32,13.0899 C15.0101,11.86 13.14,9.68994 11.67,6.3 C10.3101,3.13994 9.65,-0.290039 9.7,-3.88008 C9.77002,-8.57002 11.0801,-13.39 13.59,-18.1801 C16.5101,-23.7601 21.07,-29.29 27.1301,-34.62 C28.5801,-35.9 29.95,-37.1801 31.24,-38.4601 C32,-34.2 32.8301,-29.5101 33.7101,-24.6301 C29.8601,-23.3601 25.1101,-20.2101 22,-14.5601 C18.47,-7.99004 18.6101,-2.47002 19.34,1.00996 C20.2801,5.46992 22.8101,9.22998 26.27,11.3199 C27.2,11.88 31.3301,14.01 33.17,13.43 C33.54,13.31 33.8101,13.0899 33.95,12.76 C34.4601,11.5899 33.44,10.95 31.8801,9.98994 C31.2801,9.61992 30.6101,9.2 29.8801,8.66992 C26.5601,6.17998 25.1101,1.72998 26.1801,-2.65 C26.7601,-5.05 28.04,-7.21006 29.8801,-8.91006 C31.55,-10.4601 33.59,-11.5601 35.97,-12.2 C38.0101,-0.960059 40.07,10.1899 41.7101,18.55 C41.84,19.2399 41.9801,19.91 42.1101,20.58 C37.7101,21.51 33.37,21.4199 29.15,20.31 M54.9,10.1 C53.7301,13.28 51.27,17.35 46.14,19.41 C46.07,18.9899 45.99,18.56 45.9101,18.13 C44.3601,9.36992 42.4301,-1.61006 40.47,-12.87 C50.82,-13.35 55.09,-5.91006 55.9801,-1.08008 C56.45,1.45 56.45,5.88994 54.9,10.1"/>
<path class="KeySig" transform="matrix(2.3811,0,0,2.3811,429.785,2076.38)" d="M23.3,-10.6 C23.9,-10.7 24.4,-11.4 24.4,-12 L24.4,-17.9 C24.4,-18.7 23.8,-19.3 23,-19.3 L22.8,-19.3 L19.5,-18.6 L19.5,-33.5 L16.7,-33.5 L16.7,-18 L7.8,-16.2 L7.8,-30.3 L5,-30.3 L5,-15.6 L1.1,-14.8 C0.5,-14.7 0,-14 0,-13.4 L0,-13.2 L0,-7.4 L0,-7.6 C0,-6.8 0.6,-6.2 1.4,-6.2 L1.7,-6.2 L5,-6.9 L5,9.6 L1.1,10.4 C0.5,10.5 0,11.2 0,11.8 L0,17.6 C0,18.4 0.6,19 1.4,19 L1.7,19 L5,18.3 L5,33.2 L7.8,33.2 L7.8,17.7 L16.7,15.9 L16.7,30 L19.5,30 L19.5,15.3 L23.3,14.6 C23.9,14.5 24.4,13.8 24.4,13.2 L24.4,7.3 C24.4,6.5 23.8,5.9 23,5.9 L22.8,5.9 L19.5,6.6 L19.5,-9.9 L23.3,-10.6 M7.8,9.1 L7.8,-7.5 L16.7,-9.3 L16.7,7.2 L7.8,9.1 "/>
<path class="KeySig" transform="matrix(2.3811,0,0,2.3811,429.785,1391.81)" d="M23.3,-10.6 C23.9,-10.7 24.4,-11.4 24.4,-12 L24.4,-17.9 C24.4,-18.7 23.8,-19.3 23,-19.3 L22.8,-19.3 L19.5,-18.6 L19.5,-33.5 L16.7,-33.5 L16.7,-18 L7.8,-16.2 L7.8,-30.3 L5,-30.3 L5,-15.6 L1.1,-14.8 C0.5,-14.7 0,-14 0,-13.4 L0,-13.2 L0,-7.4 L0,-7.6 C0,-6.8 0.6,-6.2 1.4,-6.2 L1.7,-6.2 L5,-6.9 L5,9.6 L1.1,10.4 C0.5,10.5 0,11.2 0,11.8 L0,17.6 C0,18.4 0.6,19 1.4,19 L1.7,19 L5,18.3 L5,33.2 L7.8,33.2 L7.8,17.7 L16.7,15.9 L16.7,30 L19.5,30 L19.5,15.3 L23.3,14.6 C23.9,14.5 24.4,13.8 24.4,13.2 L24.4,7.3 C24.4,6.5 23.8,5.9 23,5.9 L22.8,5.9 L19.5,6.6 L19.5,-9.9 L23.3,-10.6 M7.8,9.1 L7.8,-7.5 L16.7,-9.3 L16.7,7.2 L7.8,9.1 "/>
<path class="FiguredBass" d="M1121.38,2444.42 C1120.7,2445.16 1119.8,2445.53 1118.69,2445.53 C1117.58,2445.53 1116.67,2445.15 1115.95,2444.37 C1115.24,2443.6 1114.89,2442.72 1114.89,2441.73 L1114.89,2428.46 L1101.62,2428.46 C1100.51,2428.46 1099.6,2428.08 1098.88,2427.3 C1098.17,2426.53 1097.82,2425.65 1097.82,2424.66 C1097.82,2423.67 1098.17,2422.79 1098.88,2422.01 C1099.6,2421.24 1100.51,2420.85 1101.62,2420.85 L1114.89,2420.85 L1114.89,2407.59 C1114.89,2406.6 1115.24,2405.72 1115.95,2404.94 C1116.67,2404.17 1117.58,2403.78 1118.69,2403.78 C1119.8,2403.78 1120.72,2404.17 1121.43,2404.94 C1122.14,2405.72 1122.5,2406.6 1122.5,2407.59 L1122.5,2420.85 L1135.76,2420.85 C1136.88,2420.85 1137.79,2421.24 1138.5,2422.01 C1139.21,2422.79 1139.57,2423.67 1139.57,2424.66 C1139.57,2425.65 1139.21,2426.53 1138.5,2427.3 C1137.79,2428.08 1136.88,2428.46 1135.76,2428.46 L1122.5,2428.46 L1122.5,2441.73 C1122.5,2442.72 1122.12,2443.62 1121.38,2444.42 M1174.81,2390.15 C1170.23,2390.15 1167.18,2391.99 1165.67,2395.67 C1164.15,2399.35 1163.39,2404.56 1163.39,2411.3 L1163.39,2422.25 C1166.61,2420.95 1169.39,2420.27 1171.74,2420.21 C1179.78,2420.21 1186.11,2421.98 1190.72,2425.54 C1195.32,2429.1 1197.63,2434.38 1197.63,2441.4 C1197.63,2448.42 1195.29,2453.73 1190.62,2457.31 C1185.95,2460.9 1179.66,2462.7 1171.74,2462.7 C1163.64,2462.7 1157.3,2458.94 1152.73,2451.42 C1148.15,2443.91 1145.86,2434.99 1145.86,2424.66 C1145.86,2414.39 1148.52,2405.49 1153.84,2397.94 C1159.16,2390.39 1166.15,2386.62 1174.81,2386.62 C1180.5,2386.62 1185.41,2388.06 1189.56,2390.94 C1193.7,2393.81 1195.77,2397.6 1195.77,2402.3 C1195.77,2405.02 1194.78,2407.37 1192.8,2409.35 C1190.82,2411.33 1188.46,2412.32 1185.71,2412.32 C1182.95,2412.32 1180.59,2411.33 1178.61,2409.35 C1176.63,2407.37 1175.64,2405.02 1175.64,2402.3 C1175.64,2399.64 1176.63,2397.29 1178.61,2395.25 C1179.29,2394.45 1180.25,2393.76 1181.49,2393.21 C1181.18,2392.4 1180.56,2391.79 1179.63,2391.35 C1178.27,2390.55 1176.66,2390.15 1174.81,2390.15 M1179.35,2428.09 C1178.24,2425.18 1175.8,2423.73 1172.02,2423.73 C1168.25,2423.73 1165.91,2425.18 1165.02,2428.09 C1164.12,2431 1163.67,2435.42 1163.67,2441.36 C1163.67,2448.35 1164.12,2453.05 1165.02,2455.46 C1165.91,2457.87 1168.25,2459.08 1172.02,2459.08 C1175.8,2459.08 1178.24,2457.62 1179.35,2454.72 C1180.46,2451.81 1181.02,2447.37 1181.02,2441.4 C1181.02,2435.44 1180.46,2431 1179.35,2428.09"/>
<path class="FiguredBass" d="M1583.46,2390.15 C1578.89,2390.15 1575.84,2391.99 1574.33,2395.67 C1572.81,2399.35 1572.05,2404.56 1572.05,2411.3 L1572.05,2422.25 C1575.27,2420.95 1578.05,2420.27 1580.4,2420.21 C1588.44,2420.21 1594.77,2421.98 1599.37,2425.54 C1603.98,2429.1 1606.29,2434.38 1606.29,2441.4 C1606.29,2448.42 1603.95,2453.73 1599.28,2457.31 C1594.61,2460.9 1588.32,2462.7 1580.4,2462.7 C1572.3,2462.7 1565.96,2458.94 1561.38,2451.42 C1556.81,2443.91 1554.52,2434.99 1554.52,2424.66 C1554.52,2414.39 1557.18,2405.49 1562.5,2397.94 C1567.82,2390.39 1574.81,2386.62 1583.46,2386.62 C1589.15,2386.62 1594.07,2388.06 1598.21,2390.94 C1602.36,2393.81 1604.43,2397.6 1604.43,2402.3 C1604.43,2405.02 1603.44,2407.37 1601.46,2409.35 C1599.48,2411.33 1597.12,2412.32 1594.36,2412.32 C1591.61,2412.32 1589.25,2411.33 1587.27,2409.35 C1585.29,2407.37 1584.3,2405.02 1584.3,2402.3 C1584.3,2399.64 1585.29,2397.29 1587.27,2395.25 C1587.95,2394.45 1588.91,2393.76 1590.14,2393.21 C1589.83,2392.4 1589.22,2391.79 1588.29,2391.35 C1586.93,2390.55 1585.32,2390.15 1583.46,2390.15 M1588.01,2428.09 C1586.9,2425.18 1584.45,2423.73 1580.68,2423.73 C1576.91,2423.73 1574.57,2425.18 1573.68,2428.09 C1572.78,2431 1572.33,2435.42 1572.33,2441.36 C1572.33,2448.35 1572.78,2453.05 1573.68,2455.46 C1574.57,2457.87 1576.91,2459.08 1580.68,2459.08 C1584.45,2459.08 1586.9,2457.62 1588.01,2454.72 C1589.12,2451.81 1589.68,2447.37 1589.68,2441.4 C1589.68,2435.44 1589.12,2431 1588.01,2428.09"/>
<path class="FiguredBass" d="M2031.87,2390.15 C2027.29,2390.15 2024.24,2391.99 2022.73,2395.67 C2021.21,2399.35 2020.46,2404.56 2020.46,2411.3 L2020.46,2422.25 C2023.67,2420.95 2026.45,2420.27 2028.8,2420.21 C2036.85,2420.21 2043.17,2421.98 2047.78,2425.54 C2052.38,2429.1 2054.69,2434.38 2054.69,2441.4 C2054.69,2448.42 2052.35,2453.73 2047.68,2457.31 C2043.01,2460.9 2036.72,2462.7 2028.8,2462.7 C2020.7,2462.7 2014.36,2458.94 2009.79,2451.42 C2005.21,2443.91 2002.92,2434.99 2002.92,2424.66 C2002.92,2414.39 2005.58,2405.49 2010.9,2397.94 C2016.22,2390.39 2023.21,2386.62 2031.87,2386.62 C2037.56,2386.62 2042.47,2388.06 2046.62,2390.94 C2050.76,2393.81 2052.83,2397.6 2052.83,2402.3 C2052.83,2405.02 2051.84,2407.37 2049.86,2409.35 C2047.89,2411.33 2045.52,2412.32 2042.77,2412.32 C2040.01,2412.32 2037.65,2411.33 2035.67,2409.35 C2033.69,2407.37 2032.7,2405.02 2032.7,2402.3 C2032.7,2399.64 2033.69,2397.29 2035.67,2395.25 C2036.35,2394.45 2037.31,2393.76 2038.55,2393.21 C2038.24,2392.4 2037.62,2391.79 2036.69,2391.35 C2035.33,2390.55 2033.72,2390.15 2031.87,2390.15 M2036.41,2428.09 C2035.3,2425.18 2032.86,2423.73 2029.08,2423.73 C2025.31,2423.73 2022.98,2425.18 2022.08,2428.09 C2021.18,2431 2020.73,2435.42 2020.73,2441.36 C2020.73,2448.35 2021.18,2453.05 2022.08,2455.46 C2022.98,2457.87 2025.31,2459.08 2029.08,2459.08 C2032.86,2459.08 2035.3,2457.62 2036.41,2454.72 C2037.53,2451.81 2038.08,2447.37 2038.08,2441.4 C2038.08,2435.44 2037.53,2431 2036.41,2428.09"/>
<path class="FiguredBass" d="M2009.23,2492.37 C2009.23,2492.37 2010.71,2492.59 2013.68,2493.02 C2014.98,2493.21 2016.43,2493.39 2018.04,2493.58 C2022.31,2494.07 2026.42,2494.32 2030.38,2494.32 C2034.34,2494.32 2038.51,2494.07 2042.91,2493.58 C2044.64,2493.39 2046.15,2493.21 2047.45,2493.02 L2052,2492.37 C2052.93,2492.37 2053.62,2492.68 2054.09,2493.3 C2054.55,2493.92 2054.5,2494.41 2053.95,2494.78 C2044.48,2504.25 2031.15,2508.98 2013.96,2508.98 C2013.28,2508.98 2012.68,2509.23 2012.15,2509.72 C2011.63,2510.21 2011.36,2510.83 2011.36,2511.58 L2011.36,2526.14 C2015.75,2521.81 2021.07,2519.65 2027.32,2519.65 C2036.35,2519.65 2043.32,2521.67 2048.24,2525.72 C2053.16,2529.77 2055.62,2535.91 2055.62,2544.14 C2055.62,2551.13 2052.83,2556.93 2047.27,2561.53 C2041.7,2566.14 2035.05,2568.45 2027.32,2568.45 C2020.64,2568.45 2014.84,2566.93 2009.93,2563.9 C2005.01,2560.87 2002.55,2556.66 2002.55,2551.28 C2002.55,2548.56 2003.54,2546.2 2005.52,2544.19 C2007.5,2542.18 2009.86,2541.17 2012.62,2541.17 C2015.37,2541.17 2017.7,2542.16 2019.62,2544.14 C2021.54,2546.12 2022.5,2548.5 2022.5,2551.28 C2022.5,2552.52 2021.48,2553.86 2019.43,2555.32 C2017.39,2556.77 2016.37,2558.12 2016.37,2559.35 C2016.37,2563.06 2020.02,2564.92 2027.32,2564.92 C2034.43,2564.92 2037.99,2557.99 2037.99,2544.14 C2037.99,2530.78 2034.43,2524.07 2027.32,2524.01 C2020.95,2524.01 2016.5,2525.31 2013.96,2527.9 C2011.43,2530.5 2009.85,2531.8 2009.23,2531.8 C2007.68,2531.8 2006.94,2531.03 2007,2529.48 L2007,2494.78 C2007,2494.1 2007.22,2493.53 2007.65,2493.07 C2008.09,2492.6 2008.61,2492.37 2009.23,2492.37"/>
<path class="FiguredBass" d="M2883.33,2390.15 C2878.75,2390.15 2875.7,2391.99 2874.19,2395.67 C2872.67,2399.35 2871.92,2404.56 2871.92,2411.3 L2871.92,2422.25 C2875.13,2420.95 2877.92,2420.27 2880.27,2420.21 C2888.31,2420.21 2894.63,2421.98 2899.24,2425.54 C2903.85,2429.1 2906.15,2434.38 2906.15,2441.4 C2906.15,2448.42 2903.81,2453.73 2899.15,2457.31 C2894.48,2460.9 2888.18,2462.7 2880.27,2462.7 C2872.16,2462.7 2865.82,2458.94 2861.25,2451.42 C2856.67,2443.91 2854.38,2434.99 2854.38,2424.66 C2854.38,2414.39 2857.04,2405.49 2862.36,2397.94 C2867.68,2390.39 2874.67,2386.62 2883.33,2386.62 C2889.02,2386.62 2893.93,2388.06 2898.08,2390.94 C2902.22,2393.81 2904.29,2397.6 2904.29,2402.3 C2904.29,2405.02 2903.3,2407.37 2901.33,2409.35 C2899.35,2411.33 2896.98,2412.32 2894.23,2412.32 C2891.48,2412.32 2889.11,2411.33 2887.13,2409.35 C2885.15,2407.37 2884.16,2405.02 2884.16,2402.3 C2884.16,2399.64 2885.15,2397.29 2887.13,2395.25 C2887.81,2394.45 2888.77,2393.76 2890.01,2393.21 C2889.7,2392.4 2889.08,2391.79 2888.15,2391.35 C2886.79,2390.55 2885.18,2390.15 2883.33,2390.15 M2887.87,2428.09 C2886.76,2425.18 2884.32,2423.73 2880.54,2423.73 C2876.77,2423.73 2874.44,2425.18 2873.54,2428.09 C2872.64,2431 2872.19,2435.42 2872.19,2441.36 C2872.19,2448.35 2872.64,2453.05 2873.54,2455.46 C2874.44,2457.87 2876.77,2459.08 2880.54,2459.08 C2884.32,2459.08 2886.76,2457.62 2887.87,2454.72 C2888.99,2451.81 2889.54,2447.37 2889.54,2441.4 C2889.54,2435.44 2888.99,2431 2887.87,2428.09"/>
<path class="FiguredBass" d="M3398.87,2390.15 C3394.3,2390.15 3391.25,2391.99 3389.74,2395.67 C3388.22,2399.35 3387.46,2404.56 3387.46,2411.3 L3387.46,2422.25 C3390.68,2420.95 3393.46,2420.27 3395.81,2420.21 C3403.85,2420.21 3410.18,2421.98 3414.79,2425.54 C3419.39,2429.1 3421.7,2434.38 3421.7,2441.4 C3421.7,2448.42 3419.36,2453.73 3414.69,2457.31 C3410.02,2460.9 3403.73,2462.7 3395.81,2462.7 C3387.71,2462.7 3381.37,2458.94 3376.79,2451.42 C3372.22,2443.91 3369.93,2434.99 3369.93,2424.66 C3369.93,2414.39 3372.59,2405.49 3377.91,2397.94 C3383.23,2390.39 3390.22,2386.62 3398.87,2386.62 C3404.56,2386.62 3409.48,2388.06 3413.63,2390.94 C3417.77,2393.81 3419.84,2397.6 3419.84,2402.3 C3419.84,2405.02 3418.85,2407.37 3416.87,2409.35 C3414.89,2411.33 3412.53,2412.32 3409.78,2412.32 C3407.02,2412.32 3404.66,2411.33 3402.68,2409.35 C3400.7,2407.37 3399.71,2405.02 3399.71,2402.3 C3399.71,2399.64 3400.7,2397.29 3402.68,2395.25 C3403.36,2394.45 3404.32,2393.76 3405.55,2393.21 C3405.25,2392.4 3404.63,2391.79 3403.7,2391.35 C3402.34,2390.55 3400.73,2390.15 3398.87,2390.15 M3403.42,2428.09 C3402.31,2425.18 3399.86,2423.73 3396.09,2423.73 C3392.32,2423.73 3389.98,2425.18 3389.09,2428.09 C3388.19,2431 3387.74,2435.42 3387.74,2441.36 C3387.74,2448.35 3388.19,2453.05 3389.09,2455.46 C3389.98,2457.87 3392.32,2459.08 3396.09,2459.08 C3399.86,2459.08 3402.31,2457.62 3403.42,2454.72 C3404.53,2451.81 3405.09,2447.37 3405.09,2441.4 C3405.09,2435.44 3404.53,2431 3403.42,2428.09"/>
<path class="FiguredBass" d="M3376.24,2492.37 L3380.69,2493.02 C3381.87,2493.21 3383.32,2493.39 3385.05,2493.58 C3389.32,2494.07 3393.43,2494.32 3397.39,2494.32 C3401.35,2494.32 3405.52,2494.07 3409.91,2493.58 C3411.65,2493.39 3413.16,2493.21 3414.46,2493.02 L3419.01,2492.37 C3419.93,2492.37 3420.65,2492.68 3421.14,2493.3 C3421.51,2493.79 3421.45,2494.29 3420.95,2494.78 C3411.31,2504.25 3397.98,2508.98 3380.97,2508.98 C3380.29,2508.98 3379.69,2509.23 3379.16,2509.72 C3378.63,2510.21 3378.37,2510.83 3378.37,2511.58 L3378.37,2523.36 C3382.76,2519.03 3388.08,2516.86 3394.33,2516.86 C3403.05,2516.86 3409.85,2518.9 3414.74,2522.99 C3420.06,2518.97 3422.84,2513.83 3423.09,2507.59 C3423.15,2505.61 3423.8,2504 3425.04,2502.76 C3426.4,2501.52 3428.04,2500.91 3429.95,2500.91 C3431.87,2500.91 3433.49,2501.56 3434.82,2502.85 C3436.15,2504.15 3436.82,2505.73 3436.82,2507.59 C3436.82,2517.17 3431.16,2524.44 3419.84,2529.39 C3421.7,2533.04 3422.62,2537.49 3422.62,2542.75 C3422.62,2549.74 3419.84,2555.77 3414.28,2560.84 C3408.71,2565.91 3402.06,2568.45 3394.33,2568.45 C3387.65,2568.45 3381.85,2566.93 3376.93,2563.9 C3372.02,2560.87 3369.56,2556.66 3369.56,2551.28 C3369.56,2548.56 3370.55,2546.2 3372.53,2544.19 C3374.51,2542.18 3376.87,2541.17 3379.62,2541.17 C3382.38,2541.17 3384.71,2542.16 3386.63,2544.14 C3388.55,2546.12 3389.5,2548.5 3389.5,2551.28 C3389.5,2552.52 3388.48,2553.86 3386.44,2555.32 C3384.4,2556.77 3383.38,2558.12 3383.38,2559.35 C3383.38,2563.06 3387.03,2564.92 3394.33,2564.92 C3401.44,2564.92 3405,2557.53 3405,2542.75 C3405,2539.47 3404.81,2536.59 3404.44,2534.12 C3396.96,2535.67 3387.59,2536.87 3376.33,2537.74 C3374.78,2537.86 3374.01,2537.09 3374.01,2535.42 C3374.01,2534.06 3374.78,2533.32 3376.33,2533.19 C3387.71,2532.26 3396.68,2530.78 3403.24,2528.74 C3401.5,2523.79 3398.53,2521.29 3394.33,2521.22 C3387.96,2521.22 3383.51,2522.52 3380.97,2525.12 C3378.43,2527.72 3376.86,2529.02 3376.24,2529.02 C3374.75,2529.02 3374.01,2528.24 3374.01,2526.7 L3374.01,2494.78 C3374.01,2494.16 3374.23,2493.61 3374.66,2493.11 C3375.16,2492.62 3375.68,2492.37 3376.24,2492.37"/>
<path class="Bracket" transform="matrix(8.6315,0,0,8.6315,76.1283,2254.96)" d="M0.92002,-50 C2.69004,-51.88 6.2,-55.8 6.2,-63 C6.2,-72.1 2.25996,-81.32 2.25996,-86.97 C2.25996,-93.06 5.84004,-98.84 5.95,-99 C6.05996,-99.16 6.05,-99.39 5.94004,-99.46 C5.82998,-99.53 5.62002,-99.47 5.49004,-99.32 C5.35996,-99.17 0,-93.75 0,-85.6 C0,-76.75 3.5,-70.58 3.5,-59.07 C3.5,-56.89 2.55996,-53.36 0.1,-50.33 C-0.0799805,-50.17 -0.1,-49.89 0.0599609,-49.7 L0.0700195,-49.69 L0.1,-49.66 C2.55996,-46.63 3.5,-43.1 3.5,-40.92 C3.5,-29.4 0,-23.24 0,-14.39 C0,-6.25 5.35996,-0.8 5.49004,-0.659961 C5.62002,-0.52002 5.8,-0.42998 5.94004,-0.52002 C6.07998,-0.609961 6.07998,-0.77998 5.95,-0.97998 C5.82002,-1.17998 2.25996,-6.92002 2.25996,-13.01 C2.25996,-18.66 6.2,-27.9 6.2,-37 C6.2,-44.3 2.69004,-48.12 0.92002,-50"/>
</svg>
