<?xml version="1.0" encoding="UTF-8" standalone="no"?>
<svg width="4209.44px" height="2976.38px" viewBox="0 0 4209.44 2976.38"
 xmlns="http://www.w3.org/2000/svg" xmlns:xlink="http://www.w3.org/1999/xlink" version="1.2" baseProfile="tiny">
<title>SolMajeur (6)</title>
<desc>Generated by MuseScore 3.6.2</desc>
<polyline class="StaffLines" fill="none" stroke="#000000" stroke-width="6.55" stroke-linejoin="bevel" points="153.819,596.523 4138.58,596.523"/>
<polyline class="StaffLines" fill="none" stroke="#000000" stroke-width="6.55" stroke-linejoin="bevel" points="153.819,685.814 4138.58,685.814"/>
<polyline class="StaffLines" fill="none" stroke="#000000" stroke-width="6.55" stroke-linejoin="bevel" points="153.819,775.106 4138.58,775.106"/>
<polyline class="StaffLines" fill="none" stroke="#000000" stroke-width="6.55" stroke-linejoin="bevel" points="153.819,864.397 4138.58,864.397"/>
<polyline class="StaffLines" fill="none" stroke="#000000" stroke-width="6.55" stroke-linejoin="bevel" points="153.819,953.688 4138.58,953.688"/>
<polyline class="StaffLines" fill="none" stroke="#000000" stroke-width="6.55" stroke-linejoin="bevel" points="153.819,1042.98 4138.58,1042.98"/>
<polyline class="StaffLines" fill="none" stroke="#000000" stroke-width="6.55" stroke-linejoin="bevel" points="153.819,1429.91 4138.58,1429.91"/>
<polyline class="StaffLines" fill="none" stroke="#000000" stroke-width="6.55" stroke-linejoin="bevel" points="153.819,1489.44 4138.58,1489.44"/>
<polyline class="StaffLines" fill="none" stroke="#000000" stroke-width="6.55" stroke-linejoin="bevel" points="153.819,1548.96 4138.58,1548.96"/>
<polyline class="StaffLines" fill="none" stroke="#000000" stroke-width="6.55" stroke-linejoin="bevel" points="153.819,1608.49 4138.58,1608.49"/>
<polyline class="StaffLines" fill="none" stroke="#000000" stroke-width="6.55" stroke-linejoin="bevel" points="153.819,1668.02 4138.58,1668.02"/>
<polyline class="StaffLines" fill="none" stroke="#000000" stroke-width="6.55" stroke-linejoin="bevel" points="153.819,2054.95 4138.58,2054.95"/>
<polyline class="StaffLines" fill="none" stroke="#000000" stroke-width="6.55" stroke-linejoin="bevel" points="153.819,2114.48 4138.58,2114.48"/>
<polyline class="StaffLines" fill="none" stroke="#000000" stroke-width="6.55" stroke-linejoin="bevel" points="153.819,2174 4138.58,2174"/>
<polyline class="StaffLines" fill="none" stroke="#000000" stroke-width="6.55" stroke-linejoin="bevel" points="153.819,2233.53 4138.58,2233.53"/>
<polyline class="StaffLines" fill="none" stroke="#000000" stroke-width="6.55" stroke-linejoin="bevel" points="153.819,2293.06 4138.58,2293.06"/>
<polyline class="BarLine" fill="none" stroke="#000000" stroke-width="10.71" stroke-linejoin="bevel" points="159.176,2051.67 159.176,2296.33"/>
<polyline class="BarLine" fill="none" stroke="#000000" stroke-width="10.71" stroke-linejoin="bevel" points="1415.71,2051.67 1415.71,2296.33"/>
<polyline class="BarLine" fill="none" stroke="#000000" stroke-width="10.71" stroke-linejoin="bevel" points="2285.74,2051.67 2285.74,2296.33"/>
<polyline class="BarLine" fill="none" stroke="#000000" stroke-width="10.71" stroke-linejoin="bevel" points="2318.48,2051.67 2318.48,2296.33"/>
<polyline class="BarLine" fill="none" stroke="#000000" stroke-width="10.71" stroke-linejoin="bevel" points="3205.95,2051.67 3205.95,2296.33"/>
<polyline class="BarLine" fill="none" stroke="#000000" stroke-width="10.71" stroke-linejoin="bevel" points="4080.54,2051.67 4080.54,2296.33"/>
<polyline class="BarLine" fill="none" stroke="#000000" stroke-width="32.74" stroke-linejoin="bevel" points="4122.21,2051.67 4122.21,2296.33"/>
<polyline class="BarLine" fill="none" stroke="#000000" stroke-width="10.71" stroke-linejoin="bevel" points="159.176,1426.63 159.176,2054.95"/>
<polyline class="BarLine" fill="none" stroke="#000000" stroke-width="10.71" stroke-linejoin="bevel" points="1415.71,1426.63 1415.71,1671.29"/>
<polyline class="BarLine" fill="none" stroke="#000000" stroke-width="10.71" stroke-linejoin="bevel" points="2285.74,1426.63 2285.74,1671.29"/>
<polyline class="BarLine" fill="none" stroke="#000000" stroke-width="10.71" stroke-linejoin="bevel" points="2318.48,1426.63 2318.48,1671.29"/>
<polyline class="BarLine" fill="none" stroke="#000000" stroke-width="10.71" stroke-linejoin="bevel" points="3205.95,1426.63 3205.95,1671.29"/>
<polyline class="BarLine" fill="none" stroke="#000000" stroke-width="10.71" stroke-linejoin="bevel" points="4080.54,1426.63 4080.54,1671.29"/>
<polyline class="BarLine" fill="none" stroke="#000000" stroke-width="32.74" stroke-linejoin="bevel" points="4122.21,1426.63 4122.21,1671.29"/>
<polyline class="BarLine" fill="none" stroke="#000000" stroke-width="10.71" stroke-linejoin="bevel" points="159.176,593.249 159.176,1429.91"/>
<polyline class="BarLine" fill="none" stroke="#000000" stroke-width="10.71" stroke-linejoin="bevel" points="1415.71,593.249 1415.71,1046.25"/>
<polyline class="BarLine" fill="none" stroke="#000000" stroke-width="10.71" stroke-linejoin="bevel" points="2285.74,593.249 2285.74,1046.25"/>
<polyline class="BarLine" fill="none" stroke="#000000" stroke-width="10.71" stroke-linejoin="bevel" points="2318.48,593.249 2318.48,1046.25"/>
<polyline class="BarLine" fill="none" stroke="#000000" stroke-width="10.71" stroke-linejoin="bevel" points="3205.95,593.249 3205.95,1046.25"/>
<polyline class="BarLine" fill="none" stroke="#000000" stroke-width="10.71" stroke-linejoin="bevel" points="4080.54,593.249 4080.54,1046.25"/>
<polyline class="BarLine" fill="none" stroke="#000000" stroke-width="32.74" stroke-linejoin="bevel" points="4122.21,593.249 4122.21,1046.25"/>
<path class="Note" transform="matrix(2.3811,0,0,2.3811,636.699,2293.06)" d="M18.7,-13.6 C4.9,-13.6 0,-6.6 0,-0.1 C0,6.4 4.9,13.4 18.7,13.4 C32.5,13.4 37.3,6.4 37.3,-0.1 C37.3,-6.6 32.5,-13.6 18.7,-13.6 M10.4,-4.5 C10.3,-4.9 10.3,-5.3 10.3,-5.7 C10.3,-6.5 10.5,-7.3 10.9,-8 C11.6,-9 12.8,-9.7 14.3,-10 C15.6,-10.3 16.3,-10.5 18.9,-10.5 L19,-10.5 C23,-10.5 24.3,-6.8 25.4,-3 L25.7,-2 C26.5,0.6 26.9,2.8 26.9,4.5 C26.9,5.7 26.7,6.8 26.3,7.6 C25.7,8.7 24.7,9.4 23,9.8 C22.1,10 20.6,10.1 20.6,10.1 C20.1,10.1 19.7,10.2 19.3,10.2 C16.1,10.2 14.1,9 12.7,4.7 C11.5,1 11.3,-0.1 10.4,-4.5"/>
<path class="Note" transform="matrix(2.3811,0,0,2.3811,1498.83,2322.82)" d="M18.7,-13.6 C4.9,-13.6 0,-6.6 0,-0.1 C0,6.4 4.9,13.4 18.7,13.4 C32.5,13.4 37.3,6.4 37.3,-0.1 C37.3,-6.6 32.5,-13.6 18.7,-13.6 M10.4,-4.5 C10.3,-4.9 10.3,-5.3 10.3,-5.7 C10.3,-6.5 10.5,-7.3 10.9,-8 C11.6,-9 12.8,-9.7 14.3,-10 C15.6,-10.3 16.3,-10.5 18.9,-10.5 L19,-10.5 C23,-10.5 24.3,-6.8 25.4,-3 L25.7,-2 C26.5,0.6 26.9,2.8 26.9,4.5 C26.9,5.7 26.7,6.8 26.3,7.6 C25.7,8.7 24.7,9.4 23,9.8 C22.1,10 20.6,10.1 20.6,10.1 C20.1,10.1 19.7,10.2 19.3,10.2 C16.1,10.2 14.1,9 12.7,4.7 C11.5,1 11.3,-0.1 10.4,-4.5"/>
<path class="Note" transform="matrix(2.3811,0,0,2.3811,2406.94,2174)" d="M18.7,-13.6 C4.9,-13.6 0,-6.6 0,-0.1 C0,6.4 4.9,13.4 18.7,13.4 C32.5,13.4 37.3,6.4 37.3,-0.1 C37.3,-6.6 32.5,-13.6 18.7,-13.6 M10.4,-4.5 C10.3,-4.9 10.3,-5.3 10.3,-5.7 C10.3,-6.5 10.5,-7.3 10.9,-8 C11.6,-9 12.8,-9.7 14.3,-10 C15.6,-10.3 16.3,-10.5 18.9,-10.5 L19,-10.5 C23,-10.5 24.3,-6.8 25.4,-3 L25.7,-2 C26.5,0.6 26.9,2.8 26.9,4.5 C26.9,5.7 26.7,6.8 26.3,7.6 C25.7,8.7 24.7,9.4 23,9.8 C22.1,10 20.6,10.1 20.6,10.1 C20.1,10.1 19.7,10.2 19.3,10.2 C16.1,10.2 14.1,9 12.7,4.7 C11.5,1 11.3,-0.1 10.4,-4.5"/>
<path class="Note" transform="matrix(2.3811,0,0,2.3811,3294.41,2144.24)" d="M18.7,-13.6 C4.9,-13.6 0,-6.6 0,-0.1 C0,6.4 4.9,13.4 18.7,13.4 C32.5,13.4 37.3,6.4 37.3,-0.1 C37.3,-6.6 32.5,-13.6 18.7,-13.6 M10.4,-4.5 C10.3,-4.9 10.3,-5.3 10.3,-5.7 C10.3,-6.5 10.5,-7.3 10.9,-8 C11.6,-9 12.8,-9.7 14.3,-10 C15.6,-10.3 16.3,-10.5 18.9,-10.5 L19,-10.5 C23,-10.5 24.3,-6.8 25.4,-3 L25.7,-2 C26.5,0.6 26.9,2.8 26.9,4.5 C26.9,5.7 26.7,6.8 26.3,7.6 C25.7,8.7 24.7,9.4 23,9.8 C22.1,10 20.6,10.1 20.6,10.1 C20.1,10.1 19.7,10.2 19.3,10.2 C16.1,10.2 14.1,9 12.7,4.7 C11.5,1 11.3,-0.1 10.4,-4.5"/>
<path class="Note" transform="matrix(2.3811,0,0,2.3811,636.699,1697.78)" d="M18.7,-13.6 C4.9,-13.6 0,-6.6 0,-0.1 C0,6.4 4.9,13.4 18.7,13.4 C32.5,13.4 37.3,6.4 37.3,-0.1 C37.3,-6.6 32.5,-13.6 18.7,-13.6 M10.4,-4.5 C10.3,-4.9 10.3,-5.3 10.3,-5.7 C10.3,-6.5 10.5,-7.3 10.9,-8 C11.6,-9 12.8,-9.7 14.3,-10 C15.6,-10.3 16.3,-10.5 18.9,-10.5 L19,-10.5 C23,-10.5 24.3,-6.8 25.4,-3 L25.7,-2 C26.5,0.6 26.9,2.8 26.9,4.5 C26.9,5.7 26.7,6.8 26.3,7.6 C25.7,8.7 24.7,9.4 23,9.8 C22.1,10 20.6,10.1 20.6,10.1 C20.1,10.1 19.7,10.2 19.3,10.2 C16.1,10.2 14.1,9 12.7,4.7 C11.5,1 11.3,-0.1 10.4,-4.5"/>
<path class="Note" transform="matrix(2.3811,0,0,2.3811,636.699,1608.49)" d="M18.7,-13.6 C4.9,-13.6 0,-6.6 0,-0.1 C0,6.4 4.9,13.4 18.7,13.4 C32.5,13.4 37.3,6.4 37.3,-0.1 C37.3,-6.6 32.5,-13.6 18.7,-13.6 M10.4,-4.5 C10.3,-4.9 10.3,-5.3 10.3,-5.7 C10.3,-6.5 10.5,-7.3 10.9,-8 C11.6,-9 12.8,-9.7 14.3,-10 C15.6,-10.3 16.3,-10.5 18.9,-10.5 L19,-10.5 C23,-10.5 24.3,-6.8 25.4,-3 L25.7,-2 C26.5,0.6 26.9,2.8 26.9,4.5 C26.9,5.7 26.7,6.8 26.3,7.6 C25.7,8.7 24.7,9.4 23,9.8 C22.1,10 20.6,10.1 20.6,10.1 C20.1,10.1 19.7,10.2 19.3,10.2 C16.1,10.2 14.1,9 12.7,4.7 C11.5,1 11.3,-0.1 10.4,-4.5"/>
<path class="Note" transform="matrix(2.3811,0,0,2.3811,636.699,1548.96)" d="M18.7,-13.6 C4.9,-13.6 0,-6.6 0,-0.1 C0,6.4 4.9,13.4 18.7,13.4 C32.5,13.4 37.3,6.4 37.3,-0.1 C37.3,-6.6 32.5,-13.6 18.7,-13.6 M10.4,-4.5 C10.3,-4.9 10.3,-5.3 10.3,-5.7 C10.3,-6.5 10.5,-7.3 10.9,-8 C11.6,-9 12.8,-9.7 14.3,-10 C15.6,-10.3 16.3,-10.5 18.9,-10.5 L19,-10.5 C23,-10.5 24.3,-6.8 25.4,-3 L25.7,-2 C26.5,0.6 26.9,2.8 26.9,4.5 C26.9,5.7 26.7,6.8 26.3,7.6 C25.7,8.7 24.7,9.4 23,9.8 C22.1,10 20.6,10.1 20.6,10.1 C20.1,10.1 19.7,10.2 19.3,10.2 C16.1,10.2 14.1,9 12.7,4.7 C11.5,1 11.3,-0.1 10.4,-4.5"/>
<path class="Note" transform="matrix(2.3811,0,0,2.3811,1498.83,1697.78)" d="M18.7,-13.6 C4.9,-13.6 0,-6.6 0,-0.1 C0,6.4 4.9,13.4 18.7,13.4 C32.5,13.4 37.3,6.4 37.3,-0.1 C37.3,-6.6 32.5,-13.6 18.7,-13.6 M10.4,-4.5 C10.3,-4.9 10.3,-5.3 10.3,-5.7 C10.3,-6.5 10.5,-7.3 10.9,-8 C11.6,-9 12.8,-9.7 14.3,-10 C15.6,-10.3 16.3,-10.5 18.9,-10.5 L19,-10.5 C23,-10.5 24.3,-6.8 25.4,-3 L25.7,-2 C26.5,0.6 26.9,2.8 26.9,4.5 C26.9,5.7 26.7,6.8 26.3,7.6 C25.7,8.7 24.7,9.4 23,9.8 C22.1,10 20.6,10.1 20.6,10.1 C20.1,10.1 19.7,10.2 19.3,10.2 C16.1,10.2 14.1,9 12.7,4.7 C11.5,1 11.3,-0.1 10.4,-4.5"/>
<path class="Note" transform="matrix(2.3811,0,0,2.3811,1498.83,1578.73)" d="M18.7,-13.6 C4.9,-13.6 0,-6.6 0,-0.1 C0,6.4 4.9,13.4 18.7,13.4 C32.5,13.4 37.3,6.4 37.3,-0.1 C37.3,-6.6 32.5,-13.6 18.7,-13.6 M10.4,-4.5 C10.3,-4.9 10.3,-5.3 10.3,-5.7 C10.3,-6.5 10.5,-7.3 10.9,-8 C11.6,-9 12.8,-9.7 14.3,-10 C15.6,-10.3 16.3,-10.5 18.9,-10.5 L19,-10.5 C23,-10.5 24.3,-6.8 25.4,-3 L25.7,-2 C26.5,0.6 26.9,2.8 26.9,4.5 C26.9,5.7 26.7,6.8 26.3,7.6 C25.7,8.7 24.7,9.4 23,9.8 C22.1,10 20.6,10.1 20.6,10.1 C20.1,10.1 19.7,10.2 19.3,10.2 C16.1,10.2 14.1,9 12.7,4.7 C11.5,1 11.3,-0.1 10.4,-4.5"/>
<path class="Note" transform="matrix(2.3811,0,0,2.3811,2406.94,1697.78)" d="M18.7,-13.6 C4.9,-13.6 0,-6.6 0,-0.1 C0,6.4 4.9,13.4 18.7,13.4 C32.5,13.4 37.3,6.4 37.3,-0.1 C37.3,-6.6 32.5,-13.6 18.7,-13.6 M10.4,-4.5 C10.3,-4.9 10.3,-5.3 10.3,-5.7 C10.3,-6.5 10.5,-7.3 10.9,-8 C11.6,-9 12.8,-9.7 14.3,-10 C15.6,-10.3 16.3,-10.5 18.9,-10.5 L19,-10.5 C23,-10.5 24.3,-6.8 25.4,-3 L25.7,-2 C26.5,0.6 26.9,2.8 26.9,4.5 C26.9,5.7 26.7,6.8 26.3,7.6 C25.7,8.7 24.7,9.4 23,9.8 C22.1,10 20.6,10.1 20.6,10.1 C20.1,10.1 19.7,10.2 19.3,10.2 C16.1,10.2 14.1,9 12.7,4.7 C11.5,1 11.3,-0.1 10.4,-4.5"/>
<path class="Note" transform="matrix(2.3811,0,0,2.3811,2406.94,1638.26)" d="M18.7,-13.6 C4.9,-13.6 0,-6.6 0,-0.1 C0,6.4 4.9,13.4 18.7,13.4 C32.5,13.4 37.3,6.4 37.3,-0.1 C37.3,-6.6 32.5,-13.6 18.7,-13.6 M10.4,-4.5 C10.3,-4.9 10.3,-5.3 10.3,-5.7 C10.3,-6.5 10.5,-7.3 10.9,-8 C11.6,-9 12.8,-9.7 14.3,-10 C15.6,-10.3 16.3,-10.5 18.9,-10.5 L19,-10.5 C23,-10.5 24.3,-6.8 25.4,-3 L25.7,-2 C26.5,0.6 26.9,2.8 26.9,4.5 C26.9,5.7 26.7,6.8 26.3,7.6 C25.7,8.7 24.7,9.4 23,9.8 C22.1,10 20.6,10.1 20.6,10.1 C20.1,10.1 19.7,10.2 19.3,10.2 C16.1,10.2 14.1,9 12.7,4.7 C11.5,1 11.3,-0.1 10.4,-4.5"/>
<path class="Note" transform="matrix(2.3811,0,0,2.3811,2406.94,1578.73)" d="M18.7,-13.6 C4.9,-13.6 0,-6.6 0,-0.1 C0,6.4 4.9,13.4 18.7,13.4 C32.5,13.4 37.3,6.4 37.3,-0.1 C37.3,-6.6 32.5,-13.6 18.7,-13.6 M10.4,-4.5 C10.3,-4.9 10.3,-5.3 10.3,-5.7 C10.3,-6.5 10.5,-7.3 10.9,-8 C11.6,-9 12.8,-9.7 14.3,-10 C15.6,-10.3 16.3,-10.5 18.9,-10.5 L19,-10.5 C23,-10.5 24.3,-6.8 25.4,-3 L25.7,-2 C26.5,0.6 26.9,2.8 26.9,4.5 C26.9,5.7 26.7,6.8 26.3,7.6 C25.7,8.7 24.7,9.4 23,9.8 C22.1,10 20.6,10.1 20.6,10.1 C20.1,10.1 19.7,10.2 19.3,10.2 C16.1,10.2 14.1,9 12.7,4.7 C11.5,1 11.3,-0.1 10.4,-4.5"/>
<path class="Note" transform="matrix(2.3811,0,0,2.3811,3294.41,1608.49)" d="M18.7,-13.6 C4.9,-13.6 0,-6.6 0,-0.1 C0,6.4 4.9,13.4 18.7,13.4 C32.5,13.4 37.3,6.4 37.3,-0.1 C37.3,-6.6 32.5,-13.6 18.7,-13.6 M10.4,-4.5 C10.3,-4.9 10.3,-5.3 10.3,-5.7 C10.3,-6.5 10.5,-7.3 10.9,-8 C11.6,-9 12.8,-9.7 14.3,-10 C15.6,-10.3 16.3,-10.5 18.9,-10.5 L19,-10.5 C23,-10.5 24.3,-6.8 25.4,-3 L25.7,-2 C26.5,0.6 26.9,2.8 26.9,4.5 C26.9,5.7 26.7,6.8 26.3,7.6 C25.7,8.7 24.7,9.4 23,9.8 C22.1,10 20.6,10.1 20.6,10.1 C20.1,10.1 19.7,10.2 19.3,10.2 C16.1,10.2 14.1,9 12.7,4.7 C11.5,1 11.3,-0.1 10.4,-4.5"/>
<path class="Note" transform="matrix(2.3811,0,0,2.3811,3294.41,1519.2)" d="M18.7,-13.6 C4.9,-13.6 0,-6.6 0,-0.1 C0,6.4 4.9,13.4 18.7,13.4 C32.5,13.4 37.3,6.4 37.3,-0.1 C37.3,-6.6 32.5,-13.6 18.7,-13.6 M10.4,-4.5 C10.3,-4.9 10.3,-5.3 10.3,-5.7 C10.3,-6.5 10.5,-7.3 10.9,-8 C11.6,-9 12.8,-9.7 14.3,-10 C15.6,-10.3 16.3,-10.5 18.9,-10.5 L19,-10.5 C23,-10.5 24.3,-6.8 25.4,-3 L25.7,-2 C26.5,0.6 26.9,2.8 26.9,4.5 C26.9,5.7 26.7,6.8 26.3,7.6 C25.7,8.7 24.7,9.4 23,9.8 C22.1,10 20.6,10.1 20.6,10.1 C20.1,10.1 19.7,10.2 19.3,10.2 C16.1,10.2 14.1,9 12.7,4.7 C11.5,1 11.3,-0.1 10.4,-4.5"/>
<path class="Note" d="M715.518,1097.99 C720.089,1097.99 722.375,1100.85 722.375,1106.58 C722.375,1110.61 719.857,1116.62 714.821,1124.6 C710.792,1131.03 708.778,1137.3 708.778,1143.42 C708.778,1146.91 713.852,1148.65 724.002,1148.65 C732.369,1148.65 744.029,1144.12 758.981,1135.06 C743.951,1149.54 730.897,1156.79 719.818,1156.79 C709.824,1156.79 702.851,1155.28 698.9,1152.26 C697.893,1151.48 697.041,1150.55 696.343,1149.47 C692.47,1154.19 686.001,1156.56 676.936,1156.56 C668.259,1156.56 661.596,1154.77 656.948,1151.21 C653.849,1148.81 652.299,1144.97 652.299,1139.7 C652.299,1131.34 657.258,1122.2 667.174,1112.28 C677.788,1101.67 690.068,1096.36 704.013,1096.36 C707.5,1096.36 710.056,1097.64 711.683,1100.19 C713,1098.72 714.279,1097.99 715.518,1097.99 M694.716,1144.24 C694.639,1143.62 694.6,1143 694.6,1142.38 C694.6,1142.07 698.551,1131.26 706.454,1109.95 C707.228,1107.86 708.003,1106.08 708.778,1104.61 C705.756,1103.99 702.774,1103.68 699.83,1103.68 C694.406,1103.68 687.201,1108.29 678.214,1117.51 C670.157,1125.72 666.129,1132.81 666.129,1138.78 C666.129,1145.36 669.266,1148.65 675.542,1148.65 C683.134,1148.65 689.526,1147.18 694.716,1144.24"/>
<path class="Note" d="M715.518,889.936 C720.089,889.936 722.375,892.803 722.375,898.536 C722.375,902.565 719.857,908.569 714.821,916.549 C710.792,922.979 708.778,929.254 708.778,935.375 C708.778,938.861 713.852,940.604 724.002,940.604 C732.369,940.604 744.029,936.072 758.981,927.008 C743.951,941.495 730.897,948.739 719.818,948.739 C709.824,948.739 702.851,947.228 698.9,944.207 C697.893,943.432 697.041,942.502 696.343,941.418 C692.47,946.144 686.001,948.507 676.936,948.507 C668.259,948.507 661.596,946.725 656.948,943.161 C653.849,940.759 652.299,936.924 652.299,931.656 C652.299,923.289 657.258,914.147 667.174,904.23 C677.788,893.616 690.068,888.309 704.013,888.309 C707.5,888.309 710.056,889.588 711.683,892.144 C713,890.672 714.279,889.936 715.518,889.936 M694.716,936.188 C694.639,935.568 694.6,934.949 694.6,934.329 C694.6,934.019 698.551,923.211 706.454,901.906 C707.228,899.814 708.003,898.032 708.778,896.56 C705.756,895.941 702.774,895.631 699.83,895.631 C694.406,895.631 687.201,900.24 678.214,909.46 C670.157,917.672 666.129,924.761 666.129,930.726 C666.129,937.312 669.266,940.604 675.542,940.604 C683.134,940.604 689.526,939.132 694.716,936.188"/>
<path class="Note" d="M715.518,800.645 C720.089,800.645 722.375,803.512 722.375,809.245 C722.375,813.273 719.857,819.277 714.821,827.257 C710.792,833.688 708.778,839.963 708.778,846.083 C708.778,849.57 713.852,851.313 724.002,851.313 C732.369,851.313 744.029,846.781 758.981,837.716 C743.951,852.204 730.897,859.448 719.818,859.448 C709.824,859.448 702.851,857.937 698.9,854.915 C697.893,854.141 697.041,853.211 696.343,852.126 C692.47,856.852 686.001,859.215 676.936,859.215 C668.259,859.215 661.596,857.433 656.948,853.87 C653.849,851.468 652.299,847.633 652.299,842.365 C652.299,833.998 657.258,824.856 667.174,814.939 C677.788,804.325 690.068,799.018 704.013,799.018 C707.5,799.018 710.056,800.296 711.683,802.853 C713,801.381 714.279,800.645 715.518,800.645 M694.716,846.897 C694.639,846.277 694.6,845.657 694.6,845.038 C694.6,844.728 698.551,833.92 706.454,812.615 C707.228,810.523 708.003,808.741 708.778,807.269 C705.756,806.649 702.774,806.339 699.83,806.339 C694.406,806.339 687.201,810.949 678.214,820.168 C670.157,828.381 666.129,835.47 666.129,841.435 C666.129,848.02 669.266,851.313 675.542,851.313 C683.134,851.313 689.526,849.841 694.716,846.897"/>
<path class="Note" d="M715.518,711.354 C720.089,711.354 722.375,714.22 722.375,719.953 C722.375,723.982 719.857,729.986 714.821,737.966 C710.792,744.396 708.778,750.672 708.778,756.792 C708.778,760.278 713.852,762.022 724.002,762.022 C732.369,762.022 744.029,757.489 758.981,748.425 C743.951,762.913 730.897,770.156 719.818,770.156 C709.824,770.156 702.851,768.646 698.9,765.624 C697.893,764.849 697.041,763.92 696.343,762.835 C692.47,767.561 686.001,769.924 676.936,769.924 C668.259,769.924 661.596,768.142 656.948,764.578 C653.849,762.177 652.299,758.342 652.299,753.073 C652.299,744.706 657.258,735.564 667.174,725.648 C677.788,715.034 690.068,709.727 704.013,709.727 C707.5,709.727 710.056,711.005 711.683,713.562 C713,712.09 714.279,711.354 715.518,711.354 M694.716,757.606 C694.639,756.986 694.6,756.366 694.6,755.746 C694.6,755.436 698.551,744.629 706.454,723.323 C707.228,721.232 708.003,719.45 708.778,717.978 C705.756,717.358 702.774,717.048 699.83,717.048 C694.406,717.048 687.201,721.658 678.214,730.877 C670.157,739.089 666.129,746.178 666.129,752.144 C666.129,758.729 669.266,762.022 675.542,762.022 C683.134,762.022 689.526,760.55 694.716,757.606"/>
<path class="Note" d="M1505.31,1143.42 C1504.92,1144.12 1504.34,1144.47 1503.56,1144.47 C1502.86,1144.47 1501.97,1144.16 1500.89,1143.54 C1499.26,1142.61 1498.45,1141.68 1498.45,1140.75 C1498.45,1140.44 1498.57,1140.05 1498.8,1139.59 C1516.54,1114.02 1527.62,1092.48 1532.03,1074.98 C1532.34,1074.43 1532.89,1074.16 1533.66,1074.16 C1534.67,1074.16 1536.1,1074.7 1537.96,1075.79 C1540.52,1077.26 1541.8,1078.58 1541.8,1079.74 C1541.8,1080.05 1541.72,1080.32 1541.56,1080.55 C1535.68,1097.29 1523.59,1118.24 1505.31,1143.42 M1595.94,1095.08 C1606.4,1088.49 1613.99,1083.11 1618.72,1078.93 C1627.4,1071.26 1631.74,1063.51 1631.74,1055.68 C1631.74,1046.54 1625.62,1041.97 1613.37,1041.97 C1600.51,1041.97 1587.11,1051.23 1573.17,1069.75 C1563.71,1082.3 1557.01,1094.15 1553.06,1105.31 C1557.94,1102.13 1563.09,1100.54 1568.52,1100.54 C1573.63,1100.54 1577.7,1102.83 1580.72,1107.4 C1582.81,1110.57 1583.86,1116 1583.86,1123.67 C1583.86,1130.56 1580.22,1138.66 1572.93,1147.96 C1568.44,1153.69 1563.44,1156.56 1557.94,1156.56 C1550.97,1156.56 1546.09,1155.16 1543.3,1152.37 C1539.35,1148.42 1537.37,1140.6 1537.37,1128.9 C1537.37,1109.22 1545.31,1089.85 1561.2,1070.79 C1579.09,1049.33 1596.25,1038.6 1612.68,1038.6 C1625.38,1038.6 1634.87,1041.58 1641.15,1047.55 C1644.79,1051.04 1646.61,1056.07 1646.61,1062.66 C1646.61,1070.02 1639.37,1078.23 1624.88,1087.29 C1617.29,1092.1 1607.64,1094.69 1595.94,1095.08 M1551.55,1110.19 C1549.61,1116.7 1548.65,1122.93 1548.65,1128.9 C1548.65,1143.07 1550.89,1150.16 1555.39,1150.16 C1559.65,1150.16 1562.98,1147.14 1565.38,1141.1 C1568.17,1134.28 1569.56,1126.73 1569.56,1118.44 C1569.56,1111.08 1567.12,1107.4 1562.24,1107.4 C1558.83,1107.4 1555.27,1108.33 1551.55,1110.19"/>
<path class="Note" d="M1577.65,979.228 C1582.22,979.228 1584.51,982.094 1584.51,987.827 C1584.51,991.856 1581.99,997.86 1576.95,1005.84 C1572.92,1012.27 1570.91,1018.55 1570.91,1024.67 C1570.91,1028.15 1575.98,1029.9 1586.13,1029.9 C1594.5,1029.9 1606.16,1025.36 1621.11,1016.3 C1606.08,1030.79 1593.03,1038.03 1581.95,1038.03 C1571.96,1038.03 1564.98,1036.52 1561.03,1033.5 C1560.02,1032.72 1559.17,1031.79 1558.47,1030.71 C1554.6,1035.44 1548.13,1037.8 1539.07,1037.8 C1530.39,1037.8 1523.73,1036.02 1519.08,1032.45 C1515.98,1030.05 1514.43,1026.22 1514.43,1020.95 C1514.43,1012.58 1519.39,1003.44 1529.31,993.522 C1539.92,982.908 1552.2,977.601 1566.14,977.601 C1569.63,977.601 1572.19,978.879 1573.81,981.436 C1575.13,979.964 1576.41,979.228 1577.65,979.228 M1556.85,1025.48 C1556.77,1024.86 1556.73,1024.24 1556.73,1023.62 C1556.73,1023.31 1560.68,1012.5 1568.59,991.197 C1569.36,989.106 1570.13,987.324 1570.91,985.852 C1567.89,985.232 1564.91,984.922 1561.96,984.922 C1556.54,984.922 1549.33,989.532 1540.35,998.751 C1532.29,1006.96 1528.26,1014.05 1528.26,1020.02 C1528.26,1026.6 1531.4,1029.9 1537.67,1029.9 C1545.27,1029.9 1551.66,1028.42 1556.85,1025.48"/>
<path class="Note" d="M1533.37,948.507 C1529.58,948.507 1527.68,944.439 1527.68,936.304 L1527.68,902.255 C1527.68,899.001 1529.27,897.374 1532.44,897.374 C1533.84,897.374 1534.88,897.49 1535.58,897.722 C1538.06,893.384 1542.13,889.743 1547.78,886.799 C1555.69,882.692 1563.7,880.639 1571.84,880.639 C1578.27,880.639 1581.48,883.041 1581.48,887.845 C1581.48,891.873 1579.32,893.887 1574.98,893.887 C1571.88,893.887 1568.93,893.19 1566.14,891.796 C1563.67,890.556 1561.03,889.936 1558.24,889.936 C1553.44,889.936 1546.35,893.074 1536.98,899.349 C1538.29,905.625 1538.95,912.946 1538.95,921.313 C1538.95,939.442 1537.09,948.507 1533.37,948.507"/>
<path class="Note" d="M2485.76,889.936 C2490.33,889.936 2492.62,892.803 2492.62,898.536 C2492.62,902.565 2490.1,908.569 2485.07,916.549 C2481.04,922.979 2479.02,929.254 2479.02,935.375 C2479.02,938.861 2484.1,940.604 2494.25,940.604 C2502.61,940.604 2514.27,936.072 2529.23,927.008 C2514.2,941.495 2501.14,948.739 2490.06,948.739 C2480.07,948.739 2473.1,947.228 2469.14,944.207 C2468.14,943.432 2467.28,942.502 2466.59,941.418 C2462.71,946.144 2456.24,948.507 2447.18,948.507 C2438.5,948.507 2431.84,946.725 2427.19,943.161 C2424.09,940.759 2422.54,936.924 2422.54,931.656 C2422.54,923.289 2427.5,914.147 2437.42,904.23 C2448.03,893.616 2460.31,888.309 2474.26,888.309 C2477.74,888.309 2480.3,889.588 2481.93,892.144 C2483.24,890.672 2484.52,889.936 2485.76,889.936 M2464.96,936.188 C2464.88,935.568 2464.84,934.949 2464.84,934.329 C2464.84,934.019 2468.8,923.211 2476.7,901.906 C2477.47,899.814 2478.25,898.032 2479.02,896.56 C2476,895.941 2473.02,895.631 2470.07,895.631 C2464.65,895.631 2457.45,900.24 2448.46,909.46 C2440.4,917.672 2436.37,924.761 2436.37,930.726 C2436.37,937.312 2439.51,940.604 2445.79,940.604 C2453.38,940.604 2459.77,939.132 2464.96,936.188"/>
<path class="Note" d="M2441.49,680.633 C2437.69,680.633 2435.79,676.565 2435.79,668.43 L2435.79,634.381 C2435.79,631.127 2437.38,629.5 2440.56,629.5 C2441.95,629.5 2443,629.616 2443.69,629.848 C2446.17,625.51 2450.24,621.869 2455.9,618.925 C2463.8,614.818 2471.82,612.765 2479.95,612.765 C2486.38,612.765 2489.6,615.167 2489.6,619.97 C2489.6,623.999 2487.43,626.013 2483.09,626.013 C2479.99,626.013 2477.05,625.316 2474.26,623.922 C2471.78,622.682 2469.14,622.062 2466.36,622.062 C2461.55,622.062 2454.46,625.2 2445.09,631.475 C2446.41,637.751 2447.06,645.072 2447.06,653.439 C2447.06,671.568 2445.2,680.633 2441.49,680.633"/>
<path class="Note" d="M2485.76,532.771 C2490.33,532.771 2492.62,535.637 2492.62,541.371 C2492.62,545.399 2490.1,551.403 2485.07,559.383 C2481.04,565.814 2479.02,572.089 2479.02,578.209 C2479.02,581.696 2484.1,583.439 2494.25,583.439 C2502.61,583.439 2514.27,578.907 2529.23,569.842 C2514.2,584.33 2501.14,591.574 2490.06,591.574 C2480.07,591.574 2473.1,590.063 2469.14,587.041 C2468.14,586.267 2467.28,585.337 2466.59,584.252 C2462.71,588.978 2456.24,591.341 2447.18,591.341 C2438.5,591.341 2431.84,589.559 2427.19,585.996 C2424.09,583.594 2422.54,579.759 2422.54,574.491 C2422.54,566.123 2427.5,556.982 2437.42,547.065 C2448.03,536.451 2460.31,531.144 2474.26,531.144 C2477.74,531.144 2480.3,532.422 2481.93,534.979 C2483.24,533.507 2484.52,532.771 2485.76,532.771 M2464.96,579.023 C2464.88,578.403 2464.84,577.783 2464.84,577.164 C2464.84,576.854 2468.8,566.046 2476.7,544.741 C2477.47,542.649 2478.25,540.867 2479.02,539.395 C2476,538.775 2473.02,538.465 2470.07,538.465 C2464.65,538.465 2457.45,543.075 2448.46,552.294 C2440.4,560.507 2436.37,567.596 2436.37,573.561 C2436.37,580.146 2439.51,583.439 2445.79,583.439 C2453.38,583.439 2459.77,581.967 2464.96,579.023"/>
<path class="Note" d="M3328.95,948.507 C3325.16,948.507 3323.26,944.439 3323.26,936.304 L3323.26,902.255 C3323.26,899.001 3324.85,897.374 3328.02,897.374 C3329.42,897.374 3330.46,897.49 3331.16,897.722 C3333.64,893.384 3337.71,889.743 3343.36,886.799 C3351.27,882.692 3359.28,880.639 3367.42,880.639 C3373.85,880.639 3377.07,883.041 3377.07,887.845 C3377.07,891.873 3374.9,893.887 3370.56,893.887 C3367.46,893.887 3364.51,893.19 3361.73,891.796 C3359.25,890.556 3356.61,889.936 3353.82,889.936 C3349.02,889.936 3341.93,893.074 3332.56,899.349 C3333.87,905.625 3334.53,912.946 3334.53,921.313 C3334.53,939.442 3332.67,948.507 3328.95,948.507"/>
<path class="Note" d="M3262.14,626.013 C3262.45,614.315 3268.92,603.933 3281.55,594.869 C3292.78,586.812 3305.06,582.783 3318.39,582.783 C3337.06,582.783 3353.52,590.104 3367.78,604.747 C3376.84,614.121 3381.37,625.742 3381.37,639.61 C3381.37,652.083 3378.04,661.651 3371.38,668.314 C3363.25,676.526 3354.65,680.633 3345.58,680.633 C3339.38,680.633 3334.58,679.238 3331.17,676.449 C3325.59,671.878 3322.8,665.758 3322.8,658.088 C3322.8,648.171 3327.76,639.107 3337.68,630.894 C3345.81,624.154 3353.99,619.738 3362.2,617.646 C3360.03,613.928 3357.28,610.441 3353.95,607.187 C3343.57,597.038 3331.79,591.964 3318.62,591.964 C3304.91,591.964 3293.56,594.946 3284.57,600.912 C3275.27,607.032 3267.8,615.4 3262.14,626.013 M3365.1,623.805 C3360.84,627.757 3356.58,631.979 3352.32,636.472 C3343.95,645.304 3339.77,653.672 3339.77,661.574 C3339.77,670.019 3341.71,674.241 3345.58,674.241 C3349.07,674.241 3353.95,669.476 3360.22,659.947 C3365.26,652.355 3367.78,645.382 3367.78,639.029 C3367.78,633.606 3366.89,628.531 3365.1,623.805"/>
<path class="Note" d="M3262.14,536.722 C3262.45,525.024 3268.92,514.642 3281.55,505.578 C3292.78,497.52 3305.06,493.492 3318.39,493.492 C3337.06,493.492 3353.52,500.813 3367.78,515.456 C3376.84,524.83 3381.37,536.451 3381.37,550.319 C3381.37,562.792 3378.04,572.36 3371.38,579.023 C3363.25,587.235 3354.65,591.341 3345.58,591.341 C3339.38,591.341 3334.58,589.947 3331.17,587.158 C3325.59,582.587 3322.8,576.466 3322.8,568.796 C3322.8,558.88 3327.76,549.815 3337.68,541.603 C3345.81,534.863 3353.99,530.447 3362.2,528.355 C3360.03,524.636 3357.28,521.15 3353.95,517.896 C3343.57,507.747 3331.79,502.672 3318.62,502.672 C3304.91,502.672 3293.56,505.655 3284.57,511.621 C3275.27,517.741 3267.8,526.108 3262.14,536.722 M3365.1,534.514 C3360.84,538.465 3356.58,542.688 3352.32,547.181 C3343.95,556.013 3339.77,564.38 3339.77,572.283 C3339.77,580.727 3341.71,584.95 3345.58,584.95 C3349.07,584.95 3353.95,580.185 3360.22,570.656 C3365.26,563.063 3367.78,556.091 3367.78,549.738 C3367.78,544.315 3366.89,539.24 3365.1,534.514"/>
<path class="Clef" transform="matrix(2.3811,0,0,2.3811,212.156,2114.48)" d="M25.4,-25.1 C17.8,-25.1 11.7,-20.7 11.6,-20.7 C5.8,-16.4 3.5,-11.3 2.6,-7.8 C2.1,-6 1.9,-4.2 1.9,-2.5 C1.9,-0.1 2.3,2.1 3.2,4 C4.4,6.7 6.7,8.6 9.7,9.6 C10.9,10 12.2,10.2 13.5,10.2 C15.7,10.2 18,9.6 19.9,8.5 C23,6.8 24.9,3.2 24.9,-0.7 C24.9,-4.2 23.1,-7.4 20.1,-9.3 C18,-10.7 16,-11.1 14.3,-11.1 C13.1,-11.1 12,-10.9 11.1,-10.6 C10.1,-10.2 8.4,-9.2 7.6,-8.5 C7.9,-10.4 9.1,-13.3 10.2,-14.9 C11.3,-16.5 13.5,-18.5 15.2,-19.4 C17.7,-20.8 20.9,-21.4 24.4,-21.4 C34.6,-21.4 39.6,-13.2 39.6,3.6 C39.6,12.9 36.1,21.8 33.1,27.7 C29.8,34.3 25.4,40.6 21.5,44.1 C11.1,53.6 1.3,58.1 1.2,58.1 C1.2,58.1 -0.3,59 0.1,60.5 C0.4,61.5 1.3,61.7 1.9,61.7 C2,61.7 2.3,61.6 2.4,61.6 C2.5,61.6 13.9,56.9 23,49.8 C28.1,46.1 32.7,42.1 36.7,37.8 C40.3,33.9 43.4,29.7 45.9,25.5 C50.3,18 52.8,10.2 52.8,3.5 C52.8,-4.8 50.6,-11.7 46.5,-16.6 C41.8,-22.2 34.7,-25.1 25.4,-25.1 M56.8,-12.4 C56.8,-9.6 59,-7.4 61.6,-7.4 C64.2,-7.4 66.4,-9.6 66.4,-12.4 C66.4,-15.2 64.2,-17.5 61.6,-17.5 C59,-17.5 56.8,-15.2 56.8,-12.4 M56.8,12.3 C56.8,15.1 59,17.4 61.6,17.4 C64.2,17.4 66.4,15.1 66.4,12.3 C66.4,9.5 64.2,7.2 61.6,7.2 C59,7.2 56.8,9.5 56.8,12.3"/>
<path class="Clef" transform="matrix(2.3811,0,0,2.3811,212.156,1608.49)" d="M63.37,-5.89004 C62.14,-11.32 59.5,-15.14 58.72,-16.1801 C55.5301,-20.45 51.52,-23.3 46.8301,-24.65 C43.72,-25.54 40.72,-25.65 38.3,-25.47 C37.2601,-31.4801 36.2601,-37.3601 35.35,-42.8101 C40.79,-48.97 44.42,-54.77 46.69,-59.07 C50.1601,-65.65 51.3101,-70.2301 51.3601,-70.4301 C53.0801,-75.64 53.44,-83.34 52.34,-91.55 C51.3301,-99.1 49.24,-105.81 46.89,-109.06 C45.8601,-110.49 44.8101,-111.22 43.77,-111.22 C42.55,-111.22 40.04,-109.98 37.15,-107.21 C34.85,-105.01 31.5801,-101.12 29.02,-95.1101 C26.02,-88.05 25.8101,-78.5601 26.1601,-71.84 C26.54,-64.57 27.65,-58.8801 27.6601,-58.8301 C27.6801,-58.74 27.94,-57.24 28.39,-54.67 C28.1601,-54.44 27.92,-54.22 27.67,-53.9801 C26.6301,-52.9801 25.44,-51.84 24.0601,-50.4601 C23.2,-49.6 22.25,-48.69 21.25,-47.72 C12.79,-39.57 0,-27.25 0,-8.1 C0,-3.4 0.9,1.01992 2.68008,5.02998 C4.27002,8.62998 6.57002,11.91 9.5,14.78 C17.2301,22.33 27.82,25.5399 34.8801,25.38 C37.8301,25.31 40.4601,25.0699 42.85,24.6199 C44.6801,34.2199 45.82,41.25 45.8601,46.5899 C45.9,53.1 44.25,57.0699 40.35,59.8399 C37.92,61.5699 35.1101,62.5199 32.0101,62.6699 C29.42,62.7899 27.1601,62.3199 25.7301,61.91 L25.72,61.91 C25.72,61.91 25.4301,61.83 25.42,61.63 C25.4101,61.45 25.7601,61.4 25.77,61.4 L25.79,61.4 C27.7101,60.96 31.2801,59.73 33.64,56.43 C35.44,53.91 36.3101,49.2899 34.47,45.35 C33.3601,42.96 30.85,40.01 25.2301,39.56 C22.74,39.36 20.47,39.8699 18.47,41.0699 C16.6601,42.15 15.1601,43.7899 14.1101,45.7899 C11.65,50.4899 12.1101,56.2199 15.24,60.06 C18.2,63.68 22.82,65.9899 28.25,66.5699 C29.1,66.66 29.95,66.7 30.8,66.7 C31.5101,66.7 32.22,66.6699 32.92,66.61 C31.72,66.9399 30.64,67.4899 29.77,68.25 C28.2801,69.5399 27.44,71.38 27.44,73.41 C27.44,75.28 28.0601,76.65 29.55,78.0399 C28.4101,78.5 27.55,78.98 26.79,79.56 C25.25,80.73 24.34,82.46 24.34,84.1899 C24.34,87.45 27.3,89.63 31.72,89.63 C37.1301,89.63 40.9101,86.63 40.9101,82.35 C40.9101,80.1199 39.9101,78.18 38.0801,76.83 C41.0101,75.6199 42.37,73.9399 42.37,71.56 C42.39,70.05 41.69,68.61 40.49,67.6899 C39.2801,66.7399 37.62,66.2399 35.69,66.2399 L35.5101,66.2399 C38.2801,65.7 40.92,64.7 43.2101,63.28 C46.87,60.71 48.99,56.73 49.67,51.1 C50.2301,46.46 49.84,40.55 48.44,32.48 C48.0801,30.3899 47.54,27.36 46.8801,23.6 C52.6301,21.68 56.79,18.11 60.5601,12.26 C63.85,6.51992 64.8,0.419922 63.37,-5.89004 M32.39,87.5399 C30.19,87.5399 28.7301,86.1199 28.7301,84.01 C28.7301,82.11 29.65,80.5 31.32,79.4699 C31.6801,79.66 31.77,79.71 32.1101,79.88 C33.3,80.48 33.3,80.48 33.55,80.63 L33.5601,80.6399 C35.47,81.73 36.25,82.76 36.25,84.18 C36.24,86.0899 34.59,87.5399 32.39,87.5399 M38.3101,71.63 C38.3101,73.2699 37.7301,74.3399 36.1801,75.53 C34.74,74.78 34.35,74.56 33.9801,74.3399 L33.8801,74.28 C32.3301,73.3399 31.85,72.66 31.85,71.4 C31.85,69.6 33.2301,68.3399 35.19,68.3399 C37.17,68.35 38.3101,69.55 38.3101,71.63 M33.15,-83.8101 C34.9301,-89.55 37.67,-92.8 39.6601,-94.5301 C41.4101,-96.05 43.0601,-96.7601 43.9801,-96.7601 C44.12,-96.7601 44.24,-96.74 44.34,-96.7101 C44.8,-96.57 45.3301,-96 45.8,-95.1301 C48.1101,-90.84 47.37,-84.1301 46.0301,-79.69 C44.4,-74.29 41.4801,-68.6801 32.69,-59.0601 C32.52,-60.17 32.3601,-61.22 32.2101,-62.2 C30.95,-70.49 31.27,-77.7601 33.15,-83.8101 M29.15,20.31 C24.5101,19.0899 20.0801,16.5899 16.32,13.0899 C15.0101,11.86 13.14,9.68994 11.67,6.3 C10.3101,3.13994 9.65,-0.290039 9.7,-3.88008 C9.77002,-8.57002 11.0801,-13.39 13.59,-18.1801 C16.5101,-23.7601 21.07,-29.29 27.1301,-34.62 C28.5801,-35.9 29.95,-37.1801 31.24,-38.4601 C32,-34.2 32.8301,-29.5101 33.7101,-24.6301 C29.8601,-23.3601 25.1101,-20.2101 22,-14.5601 C18.47,-7.99004 18.6101,-2.47002 19.34,1.00996 C20.2801,5.46992 22.8101,9.22998 26.27,11.3199 C27.2,11.88 31.3301,14.01 33.17,13.43 C33.54,13.31 33.8101,13.0899 33.95,12.76 C34.4601,11.5899 33.44,10.95 31.8801,9.98994 C31.2801,9.61992 30.6101,9.2 29.8801,8.66992 C26.5601,6.17998 25.1101,1.72998 26.1801,-2.65 C26.7601,-5.05 28.04,-7.21006 29.8801,-8.91006 C31.55,-10.4601 33.59,-11.5601 35.97,-12.2 C38.0101,-0.960059 40.07,10.1899 41.7101,18.55 C41.84,19.2399 41.9801,19.91 42.1101,20.58 C37.7101,21.51 33.37,21.4199 29.15,20.31 M54.9,10.1 C53.7301,13.28 51.27,17.35 46.14,19.41 C46.07,18.9899 45.99,18.56 45.9101,18.13 C44.3601,9.36992 42.4301,-1.61006 40.47,-12.87 C50.82,-13.35 55.09,-5.91006 55.9801,-1.08008 C56.45,1.45 56.45,5.88994 54.9,10.1"/>
<path class="KeySig" transform="matrix(2.3811,0,0,2.3811,429.785,2114.48)" d="M23.3,-10.6 C23.9,-10.7 24.4,-11.4 24.4,-12 L24.4,-17.9 C24.4,-18.7 23.8,-19.3 23,-19.3 L22.8,-19.3 L19.5,-18.6 L19.5,-33.5 L16.7,-33.5 L16.7,-18 L7.8,-16.2 L7.8,-30.3 L5,-30.3 L5,-15.6 L1.1,-14.8 C0.5,-14.7 0,-14 0,-13.4 L0,-13.2 L0,-7.4 L0,-7.6 C0,-6.8 0.6,-6.2 1.4,-6.2 L1.7,-6.2 L5,-6.9 L5,9.6 L1.1,10.4 C0.5,10.5 0,11.2 0,11.8 L0,17.6 C0,18.4 0.6,19 1.4,19 L1.7,19 L5,18.3 L5,33.2 L7.8,33.2 L7.8,17.7 L16.7,15.9 L16.7,30 L19.5,30 L19.5,15.3 L23.3,14.6 C23.9,14.5 24.4,13.8 24.4,13.2 L24.4,7.3 C24.4,6.5 23.8,5.9 23,5.9 L22.8,5.9 L19.5,6.6 L19.5,-9.9 L23.3,-10.6 M7.8,9.1 L7.8,-7.5 L16.7,-9.3 L16.7,7.2 L7.8,9.1 "/>
<path class="KeySig" transform="matrix(2.3811,0,0,2.3811,429.785,1429.91)" d="M23.3,-10.6 C23.9,-10.7 24.4,-11.4 24.4,-12 L24.4,-17.9 C24.4,-18.7 23.8,-19.3 23,-19.3 L22.8,-19.3 L19.5,-18.6 L19.5,-33.5 L16.7,-33.5 L16.7,-18 L7.8,-16.2 L7.8,-30.3 L5,-30.3 L5,-15.6 L1.1,-14.8 C0.5,-14.7 0,-14 0,-13.4 L0,-13.2 L0,-7.4 L0,-7.6 C0,-6.8 0.6,-6.2 1.4,-6.2 L1.7,-6.2 L5,-6.9 L5,9.6 L1.1,10.4 C0.5,10.5 0,11.2 0,11.8 L0,17.6 C0,18.4 0.6,19 1.4,19 L1.7,19 L5,18.3 L5,33.2 L7.8,33.2 L7.8,17.7 L16.7,15.9 L16.7,30 L19.5,30 L19.5,15.3 L23.3,14.6 C23.9,14.5 24.4,13.8 24.4,13.2 L24.4,7.3 C24.4,6.5 23.8,5.9 23,5.9 L22.8,5.9 L19.5,6.6 L19.5,-9.9 L23.3,-10.6 M7.8,9.1 L7.8,-7.5 L16.7,-9.3 L16.7,7.2 L7.8,9.1 "/>
<path class="FiguredBass" d="M1546.02,2428.24 C1541.44,2428.24 1538.4,2430.08 1536.88,2433.76 C1535.37,2437.44 1534.61,2442.66 1534.61,2449.4 L1534.61,2460.34 C1537.82,2459.05 1540.61,2458.36 1542.96,2458.3 C1551,2458.3 1557.32,2460.08 1561.93,2463.64 C1566.54,2467.19 1568.84,2472.48 1568.84,2479.5 C1568.84,2486.52 1566.51,2491.83 1561.84,2495.41 C1557.17,2499 1550.87,2500.79 1542.96,2500.79 C1534.86,2500.79 1528.52,2497.04 1523.94,2489.52 C1519.36,2482.01 1517.07,2473.08 1517.07,2462.76 C1517.07,2452.49 1519.73,2443.58 1525.05,2436.04 C1530.37,2428.49 1537.36,2424.72 1546.02,2424.72 C1551.71,2424.72 1556.63,2426.16 1560.77,2429.03 C1564.91,2431.91 1566.99,2435.7 1566.99,2440.4 C1566.99,2443.12 1566,2445.47 1564.02,2447.45 C1562.04,2449.43 1559.67,2450.42 1556.92,2450.42 C1554.17,2450.42 1551.8,2449.43 1549.82,2447.45 C1547.84,2445.47 1546.85,2443.12 1546.85,2440.4 C1546.85,2437.74 1547.84,2435.39 1549.82,2433.35 C1550.5,2432.54 1551.46,2431.86 1552.7,2431.31 C1552.39,2430.5 1551.77,2429.88 1550.84,2429.45 C1549.48,2428.65 1547.87,2428.24 1546.02,2428.24 M1550.57,2466.19 C1549.45,2463.28 1547.01,2461.83 1543.24,2461.83 C1539.46,2461.83 1537.13,2463.28 1536.23,2466.19 C1535.33,2469.1 1534.89,2473.52 1534.89,2479.46 C1534.89,2486.44 1535.33,2491.14 1536.23,2493.56 C1537.13,2495.97 1539.46,2497.17 1543.24,2497.17 C1547.01,2497.17 1549.45,2495.72 1550.57,2492.81 C1551.68,2489.91 1552.24,2485.47 1552.24,2479.5 C1552.24,2473.53 1551.68,2469.1 1550.57,2466.19"/>
<path class="FiguredBass" d="M3341.6,2428.24 C3337.02,2428.24 3333.98,2430.08 3332.46,2433.76 C3330.95,2437.44 3330.19,2442.66 3330.19,2449.4 L3330.19,2460.34 C3333.4,2459.05 3336.19,2458.36 3338.54,2458.3 C3346.58,2458.3 3352.9,2460.08 3357.51,2463.64 C3362.12,2467.19 3364.42,2472.48 3364.42,2479.5 C3364.42,2486.52 3362.09,2491.83 3357.42,2495.41 C3352.75,2499 3346.46,2500.79 3338.54,2500.79 C3330.44,2500.79 3324.1,2497.04 3319.52,2489.52 C3314.94,2482.01 3312.65,2473.08 3312.65,2462.76 C3312.65,2452.49 3315.31,2443.58 3320.63,2436.04 C3325.95,2428.49 3332.94,2424.72 3341.6,2424.72 C3347.29,2424.72 3352.21,2426.16 3356.35,2429.03 C3360.49,2431.91 3362.57,2435.7 3362.57,2440.4 C3362.57,2443.12 3361.58,2445.47 3359.6,2447.45 C3357.62,2449.43 3355.25,2450.42 3352.5,2450.42 C3349.75,2450.42 3347.38,2449.43 3345.4,2447.45 C3343.42,2445.47 3342.43,2443.12 3342.43,2440.4 C3342.43,2437.74 3343.42,2435.39 3345.4,2433.35 C3346.08,2432.54 3347.04,2431.86 3348.28,2431.31 C3347.97,2430.5 3347.35,2429.88 3346.42,2429.45 C3345.06,2428.65 3343.46,2428.24 3341.6,2428.24 M3346.15,2466.19 C3345.03,2463.28 3342.59,2461.83 3338.82,2461.83 C3335.04,2461.83 3332.71,2463.28 3331.81,2466.19 C3330.92,2469.1 3330.47,2473.52 3330.47,2479.46 C3330.47,2486.44 3330.92,2491.14 3331.81,2493.56 C3332.71,2495.97 3335.04,2497.17 3338.82,2497.17 C3342.59,2497.17 3345.03,2495.72 3346.15,2492.81 C3347.26,2489.91 3347.82,2485.47 3347.82,2479.5 C3347.82,2473.53 3347.26,2469.1 3346.15,2466.19"/>
<path class="FiguredBass" d="M1557.89,1835.4 C1557.89,1836.39 1558.45,1837.35 1559.56,1838.27 C1560.68,1839.2 1561.9,1840.08 1563.23,1840.92 C1564.56,1841.75 1565.78,1843.33 1566.89,1845.65 C1568.01,1847.97 1568.56,1850.89 1568.56,1854.42 C1568.56,1861.22 1566,1866.48 1560.86,1870.19 C1555.73,1873.9 1549.24,1875.75 1541.38,1875.75 C1535.07,1875.75 1529.58,1874.18 1524.91,1871.02 C1520.24,1867.87 1517.91,1863.72 1517.91,1858.59 C1517.91,1855.87 1518.9,1853.5 1520.88,1851.49 C1522.86,1849.48 1525.22,1848.48 1527.97,1848.48 C1530.73,1848.48 1533.06,1849.47 1534.98,1851.45 C1536.9,1853.43 1537.86,1855.81 1537.86,1858.59 C1537.86,1859.83 1536.83,1861.17 1534.79,1862.63 C1532.75,1864.08 1531.73,1865.43 1531.73,1866.66 C1531.73,1868.58 1532.68,1869.99 1534.56,1870.88 C1536.45,1871.78 1538.72,1872.23 1541.38,1872.23 C1544.84,1872.23 1547.3,1870.51 1548.76,1867.08 C1550.21,1863.65 1550.94,1859.43 1550.94,1854.42 L1550.94,1852 C1550.94,1848.66 1550.83,1846.13 1550.61,1844.4 C1550.4,1842.66 1549.71,1841.12 1548.57,1839.76 C1547.43,1838.4 1545.68,1837.72 1543.33,1837.72 L1531.18,1837.72 C1529.75,1837.72 1529.04,1836.94 1529.04,1835.4 C1529.04,1833.97 1529.75,1833.26 1531.18,1833.26 L1543.33,1833.26 C1545.86,1833.26 1547.84,1832.3 1549.27,1830.39 C1549.76,1829.71 1550.16,1828.59 1550.47,1827.05 C1550.78,1825.01 1550.94,1822.07 1550.94,1818.23 L1550.94,1817.03 C1550.94,1807.81 1547.53,1803.2 1540.73,1803.2 C1534.73,1803.2 1531.73,1804.87 1531.73,1808.21 C1531.73,1809.33 1532.64,1810.52 1534.47,1811.79 C1536.29,1813.05 1537.21,1814.24 1537.21,1815.36 C1537.21,1817.77 1536.36,1819.84 1534.65,1821.57 C1532.95,1823.31 1530.88,1824.17 1528.44,1824.17 C1526,1824.17 1523.94,1823.31 1522.27,1821.57 C1520.6,1819.84 1519.76,1817.77 1519.76,1815.36 C1519.76,1810.6 1521.84,1806.79 1525.98,1803.95 C1530.12,1801.1 1535.04,1799.68 1540.73,1799.68 C1548.21,1799.68 1554.37,1801.12 1559.19,1803.99 C1564.02,1806.87 1566.43,1811.21 1566.43,1817.03 C1566.43,1821.17 1566,1824.39 1565.13,1826.68 C1564.26,1828.97 1563.28,1830.36 1562.16,1830.85 C1561.05,1831.35 1560.06,1831.92 1559.19,1832.57 C1558.33,1833.22 1557.89,1834.16 1557.89,1835.4"/>
<path class="FiguredBass" d="M1546.02,1908.95 C1541.44,1908.95 1538.4,1910.79 1536.88,1914.47 C1535.37,1918.15 1534.61,1923.37 1534.61,1930.11 L1534.61,1941.05 C1537.82,1939.76 1540.61,1939.08 1542.96,1939.01 C1551,1939.01 1557.32,1940.79 1561.93,1944.35 C1566.54,1947.9 1568.84,1953.19 1568.84,1960.21 C1568.84,1967.23 1566.51,1972.54 1561.84,1976.12 C1557.17,1979.71 1550.87,1981.5 1542.96,1981.5 C1534.86,1981.5 1528.52,1977.75 1523.94,1970.23 C1519.36,1962.72 1517.07,1953.8 1517.07,1943.47 C1517.07,1933.2 1519.73,1924.29 1525.05,1916.75 C1530.37,1909.2 1537.36,1905.43 1546.02,1905.43 C1551.71,1905.43 1556.63,1906.87 1560.77,1909.74 C1564.91,1912.62 1566.99,1916.41 1566.99,1921.11 C1566.99,1923.83 1566,1926.18 1564.02,1928.16 C1562.04,1930.14 1559.67,1931.13 1556.92,1931.13 C1554.17,1931.13 1551.8,1930.14 1549.82,1928.16 C1547.84,1926.18 1546.85,1923.83 1546.85,1921.11 C1546.85,1918.45 1547.84,1916.1 1549.82,1914.06 C1550.5,1913.25 1551.46,1912.57 1552.7,1912.02 C1552.39,1911.21 1551.77,1910.59 1550.84,1910.16 C1549.48,1909.36 1547.87,1908.95 1546.02,1908.95 M1550.57,1946.9 C1549.45,1943.99 1547.01,1942.54 1543.24,1942.54 C1539.46,1942.54 1537.13,1943.99 1536.23,1946.9 C1535.33,1949.81 1534.89,1954.23 1534.89,1960.17 C1534.89,1967.15 1535.33,1971.86 1536.23,1974.27 C1537.13,1976.68 1539.46,1977.89 1543.24,1977.89 C1547.01,1977.89 1549.45,1976.43 1550.57,1973.53 C1551.68,1970.62 1552.24,1966.18 1552.24,1960.21 C1552.24,1954.24 1551.68,1949.81 1550.57,1946.9"/>
<path class="FiguredBass" d="M3341.6,1803.2 C3337.02,1803.2 3333.98,1805.04 3332.46,1808.72 C3330.95,1812.4 3330.19,1817.62 3330.19,1824.36 L3330.19,1835.3 C3333.4,1834.01 3336.19,1833.33 3338.54,1833.26 C3346.58,1833.26 3352.9,1835.04 3357.51,1838.6 C3362.12,1842.15 3364.42,1847.44 3364.42,1854.46 C3364.42,1861.48 3362.09,1866.79 3357.42,1870.37 C3352.75,1873.96 3346.46,1875.75 3338.54,1875.75 C3330.44,1875.75 3324.1,1872 3319.52,1864.48 C3314.94,1856.97 3312.65,1848.05 3312.65,1837.72 C3312.65,1827.45 3315.31,1818.54 3320.63,1811 C3325.95,1803.45 3332.94,1799.68 3341.6,1799.68 C3347.29,1799.68 3352.21,1801.12 3356.35,1803.99 C3360.49,1806.87 3362.57,1810.66 3362.57,1815.36 C3362.57,1818.08 3361.58,1820.43 3359.6,1822.41 C3357.62,1824.39 3355.25,1825.38 3352.5,1825.38 C3349.75,1825.38 3347.38,1824.39 3345.4,1822.41 C3343.42,1820.43 3342.43,1818.08 3342.43,1815.36 C3342.43,1812.7 3343.42,1810.35 3345.4,1808.31 C3346.08,1807.5 3347.04,1806.82 3348.28,1806.27 C3347.97,1805.46 3347.35,1804.84 3346.42,1804.41 C3345.06,1803.61 3343.46,1803.2 3341.6,1803.2 M3346.15,1841.15 C3345.03,1838.24 3342.59,1836.79 3338.82,1836.79 C3335.04,1836.79 3332.71,1838.24 3331.81,1841.15 C3330.92,1844.06 3330.47,1848.48 3330.47,1854.42 C3330.47,1861.4 3330.92,1866.11 3331.81,1868.52 C3332.71,1870.93 3335.04,1872.14 3338.82,1872.14 C3342.59,1872.14 3345.03,1870.68 3346.15,1867.78 C3347.26,1864.87 3347.82,1860.43 3347.82,1854.46 C3347.82,1848.49 3347.26,1844.06 3346.15,1841.15"/>
<path class="FiguredBass" d="M3353.47,1941.15 C3353.47,1942.14 3354.03,1943.1 3355.14,1944.02 C3356.26,1944.95 3357.48,1945.83 3358.81,1946.67 C3360.14,1947.5 3361.36,1949.08 3362.47,1951.4 C3363.59,1953.72 3364.14,1956.64 3364.14,1960.17 C3364.14,1966.97 3361.58,1972.23 3356.44,1975.94 C3351.31,1979.65 3344.82,1981.5 3336.96,1981.5 C3330.65,1981.5 3325.16,1979.93 3320.49,1976.77 C3315.82,1973.62 3313.49,1969.47 3313.49,1964.34 C3313.49,1961.62 3314.48,1959.25 3316.46,1957.24 C3318.44,1955.23 3320.8,1954.23 3323.56,1954.23 C3326.31,1954.23 3328.64,1955.22 3330.56,1957.2 C3332.48,1959.18 3333.44,1961.56 3333.44,1964.34 C3333.44,1965.58 3332.42,1966.92 3330.37,1968.38 C3328.33,1969.83 3327.31,1971.18 3327.31,1972.41 C3327.31,1974.33 3328.26,1975.74 3330.14,1976.63 C3332.03,1977.53 3334.3,1977.98 3336.96,1977.98 C3340.42,1977.98 3342.88,1976.26 3344.34,1972.83 C3345.79,1969.4 3346.52,1965.18 3346.52,1960.17 L3346.52,1957.75 C3346.52,1954.41 3346.41,1951.88 3346.19,1950.15 C3345.98,1948.41 3345.3,1946.87 3344.15,1945.51 C3343.01,1944.15 3341.26,1943.47 3338.91,1943.47 L3326.76,1943.47 C3325.33,1943.47 3324.62,1942.69 3324.62,1941.15 C3324.62,1939.72 3325.33,1939.01 3326.76,1939.01 L3338.91,1939.01 C3341.45,1939.01 3343.42,1938.05 3344.85,1936.14 C3345.34,1935.46 3345.74,1934.34 3346.05,1932.8 C3346.36,1930.76 3346.52,1927.82 3346.52,1923.98 L3346.52,1922.78 C3346.52,1913.56 3343.12,1908.95 3336.31,1908.95 C3330.31,1908.95 3327.31,1910.62 3327.31,1913.96 C3327.31,1915.08 3328.23,1916.27 3330.05,1917.54 C3331.87,1918.8 3332.79,1919.99 3332.79,1921.11 C3332.79,1923.52 3331.94,1925.59 3330.24,1927.32 C3328.53,1929.06 3326.46,1929.92 3324.02,1929.92 C3321.58,1929.92 3319.52,1929.06 3317.85,1927.32 C3316.18,1925.59 3315.34,1923.52 3315.34,1921.11 C3315.34,1916.35 3317.42,1912.54 3321.56,1909.7 C3325.7,1906.85 3330.62,1905.43 3336.31,1905.43 C3343.8,1905.43 3349.95,1906.87 3354.77,1909.74 C3359.6,1912.62 3362.01,1916.96 3362.01,1922.78 C3362.01,1926.92 3361.58,1930.14 3360.71,1932.43 C3359.85,1934.72 3358.86,1936.11 3357.74,1936.6 C3356.63,1937.1 3355.64,1937.67 3354.77,1938.32 C3353.91,1938.97 3353.47,1939.91 3353.47,1941.15"/>
<polyline class="FretDiagram" stroke="#fc02ff" stroke-width="11.91" stroke-linejoin="bevel" points="3237.98,206.022 3451.09,206.022"/>
<polyline class="FretDiagram" stroke="#fc02ff" stroke-width="4.76" stroke-linejoin="bevel" points="3240.36,206.022 3240.36,420.321"/>
<polyline class="FretDiagram" stroke="#fc02ff" stroke-width="4.76" stroke-linejoin="bevel" points="3282.03,206.022 3282.03,420.321"/>
<polyline class="FretDiagram" stroke="#fc02ff" stroke-width="4.76" stroke-linejoin="bevel" points="3323.7,206.022 3323.7,420.321"/>
<polyline class="FretDiagram" stroke="#fc02ff" stroke-width="4.76" stroke-linejoin="bevel" points="3365.37,206.022 3365.37,420.321"/>
<polyline class="FretDiagram" stroke="#fc02ff" stroke-width="4.76" stroke-linejoin="bevel" points="3407.04,206.022 3407.04,420.321"/>
<polyline class="FretDiagram" stroke="#fc02ff" stroke-width="4.76" stroke-linejoin="bevel" points="3448.71,206.022 3448.71,420.321"/>
<polyline class="FretDiagram" stroke="#fc02ff" stroke-width="4.76" stroke-linejoin="bevel" points="3240.36,253.644 3448.71,253.644"/>
<polyline class="FretDiagram" stroke="#fc02ff" stroke-width="4.76" stroke-linejoin="bevel" points="3240.36,301.266 3448.71,301.266"/>
<polyline class="FretDiagram" stroke="#fc02ff" stroke-width="4.76" stroke-linejoin="bevel" points="3240.36,348.888 3448.71,348.888"/>
<polyline class="FretDiagram" stroke="#fc02ff" stroke-width="4.76" stroke-linejoin="bevel" points="3240.36,396.51 3448.71,396.51"/>
<path class="FretDiagram" fill="#fc02ff" fill-rule="evenodd" d="M3296.62,277.455 C3296.62,285.51 3290.09,292.039 3282.03,292.039 C3273.98,292.039 3267.45,285.51 3267.45,277.455 C3267.45,269.401 3273.98,262.871 3282.03,262.871 C3290.09,262.871 3296.62,269.401 3296.62,277.455"/>
<path class="FretDiagram" fill="#fc02ff" fill-rule="evenodd" d="M3421.62,325.077 C3421.62,333.132 3415.09,339.661 3407.04,339.661 C3398.98,339.661 3392.45,333.132 3392.45,325.077 C3392.45,317.023 3398.98,310.493 3407.04,310.493 C3415.09,310.493 3421.62,317.023 3421.62,325.077"/>
<path class="FretDiagram" fill="#fc02ff" fill-rule="evenodd" d="M3463.29,325.077 C3463.29,333.132 3456.76,339.661 3448.71,339.661 C3440.65,339.661 3434.12,333.132 3434.12,325.077 C3434.12,317.023 3440.65,310.493 3448.71,310.493 C3456.76,310.493 3463.29,317.023 3463.29,325.077"/>
<polyline class="FretDiagram" fill="none" stroke="#fc02ff" stroke-width="6.86" stroke-linecap="round" stroke-linejoin="bevel" points="3223.69,141.732 3257.03,175.068"/>
<polyline class="FretDiagram" fill="none" stroke="#fc02ff" stroke-width="6.86" stroke-linecap="round" stroke-linejoin="bevel" points="3223.69,175.068 3257.03,141.732"/>
<polyline class="FretDiagram" fill="none" stroke="#fc02ff" stroke-width="6.86" stroke-linecap="round" stroke-linejoin="bevel" points="3307.03,141.732 3340.37,175.068"/>
<polyline class="FretDiagram" fill="none" stroke="#fc02ff" stroke-width="6.86" stroke-linecap="round" stroke-linejoin="bevel" points="3307.03,175.068 3340.37,141.732"/>
<polyline class="FretDiagram" fill="none" stroke="#fc02ff" stroke-width="6.86" stroke-linecap="round" stroke-linejoin="bevel" points="3348.7,141.732 3382.04,175.068"/>
<polyline class="FretDiagram" fill="none" stroke="#fc02ff" stroke-width="6.86" stroke-linecap="round" stroke-linejoin="bevel" points="3348.7,175.068 3382.04,141.732"/>
<path class="Bracket" transform="matrix(8.6315,0,0,8.6315,76.1283,2293.06)" d="M0.92002,-50 C2.69004,-51.88 6.2,-55.8 6.2,-63 C6.2,-72.1 2.25996,-81.32 2.25996,-86.97 C2.25996,-93.06 5.84004,-98.84 5.95,-99 C6.05996,-99.16 6.05,-99.39 5.94004,-99.46 C5.82998,-99.53 5.62002,-99.47 5.49004,-99.32 C5.35996,-99.17 0,-93.75 0,-85.6 C0,-76.75 3.5,-70.58 3.5,-59.07 C3.5,-56.89 2.55996,-53.36 0.1,-50.33 C-0.0799805,-50.17 -0.1,-49.89 0.0599609,-49.7 L0.0700195,-49.69 L0.1,-49.66 C2.55996,-46.63 3.5,-43.1 3.5,-40.92 C3.5,-29.4 0,-23.24 0,-14.39 C0,-6.25 5.35996,-0.8 5.49004,-0.659961 C5.62002,-0.52002 5.8,-0.42998 5.94004,-0.52002 C6.07998,-0.609961 6.07998,-0.77998 5.95,-0.97998 C5.82002,-1.17998 2.25996,-6.92002 2.25996,-13.01 C2.25996,-18.66 6.2,-27.9 6.2,-37 C6.2,-44.3 2.69004,-48.12 0.92002,-50"/>
</svg>
