<?xml version="1.0" encoding="UTF-8" standalone="no"?>
<svg width="4209.44px" height="2976.38px" viewBox="0 0 4209.44 2976.38"
 xmlns="http://www.w3.org/2000/svg" xmlns:xlink="http://www.w3.org/1999/xlink" version="1.2" baseProfile="tiny">
<title>MiMineur (18)</title>
<desc>Generated by MuseScore 3.6.2</desc>
<polyline class="StaffLines" fill="none" stroke="#000000" stroke-width="6.55" stroke-linejoin="bevel" points="153.819,558.425 4138.58,558.425"/>
<polyline class="StaffLines" fill="none" stroke="#000000" stroke-width="6.55" stroke-linejoin="bevel" points="153.819,647.717 4138.58,647.717"/>
<polyline class="StaffLines" fill="none" stroke="#000000" stroke-width="6.55" stroke-linejoin="bevel" points="153.819,737.008 4138.58,737.008"/>
<polyline class="StaffLines" fill="none" stroke="#000000" stroke-width="6.55" stroke-linejoin="bevel" points="153.819,826.299 4138.58,826.299"/>
<polyline class="StaffLines" fill="none" stroke="#000000" stroke-width="6.55" stroke-linejoin="bevel" points="153.819,915.591 4138.58,915.591"/>
<polyline class="StaffLines" fill="none" stroke="#000000" stroke-width="6.55" stroke-linejoin="bevel" points="153.819,1004.88 4138.58,1004.88"/>
<polyline class="StaffLines" fill="none" stroke="#000000" stroke-width="6.55" stroke-linejoin="bevel" points="153.819,1391.81 4138.58,1391.81"/>
<polyline class="StaffLines" fill="none" stroke="#000000" stroke-width="6.55" stroke-linejoin="bevel" points="153.819,1451.34 4138.58,1451.34"/>
<polyline class="StaffLines" fill="none" stroke="#000000" stroke-width="6.55" stroke-linejoin="bevel" points="153.819,1510.87 4138.58,1510.87"/>
<polyline class="StaffLines" fill="none" stroke="#000000" stroke-width="6.55" stroke-linejoin="bevel" points="153.819,1570.39 4138.58,1570.39"/>
<polyline class="StaffLines" fill="none" stroke="#000000" stroke-width="6.55" stroke-linejoin="bevel" points="153.819,1629.92 4138.58,1629.92"/>
<polyline class="StaffLines" fill="none" stroke="#000000" stroke-width="6.55" stroke-linejoin="bevel" points="153.819,2099.26 4138.58,2099.26"/>
<polyline class="StaffLines" fill="none" stroke="#000000" stroke-width="6.55" stroke-linejoin="bevel" points="153.819,2158.79 4138.58,2158.79"/>
<polyline class="StaffLines" fill="none" stroke="#000000" stroke-width="6.55" stroke-linejoin="bevel" points="153.819,2218.32 4138.58,2218.32"/>
<polyline class="StaffLines" fill="none" stroke="#000000" stroke-width="6.55" stroke-linejoin="bevel" points="153.819,2277.85 4138.58,2277.85"/>
<polyline class="StaffLines" fill="none" stroke="#000000" stroke-width="6.55" stroke-linejoin="bevel" points="153.819,2337.37 4138.58,2337.37"/>
<polyline class="BarLine" fill="none" stroke="#000000" stroke-width="10.71" stroke-linejoin="bevel" points="159.176,2095.99 159.176,2340.65"/>
<polyline class="BarLine" fill="none" stroke="#000000" stroke-width="10.71" stroke-linejoin="bevel" points="1035.38,2095.99 1035.38,2340.65"/>
<polyline class="BarLine" fill="none" stroke="#000000" stroke-width="10.71" stroke-linejoin="bevel" points="1551.35,2095.99 1551.35,2340.65"/>
<polyline class="BarLine" fill="none" stroke="#000000" stroke-width="10.71" stroke-linejoin="bevel" points="2038.5,2095.99 2038.5,2340.65"/>
<polyline class="BarLine" fill="none" stroke="#000000" stroke-width="10.71" stroke-linejoin="bevel" points="2071.24,2095.99 2071.24,2340.65"/>
<polyline class="BarLine" fill="none" stroke="#000000" stroke-width="10.71" stroke-linejoin="bevel" points="2572.45,2095.99 2572.45,2340.65"/>
<polyline class="BarLine" fill="none" stroke="#000000" stroke-width="10.71" stroke-linejoin="bevel" points="3071.54,2095.99 3071.54,2340.65"/>
<polyline class="BarLine" fill="none" stroke="#000000" stroke-width="10.71" stroke-linejoin="bevel" points="3593.39,2095.99 3593.39,2340.65"/>
<polyline class="BarLine" fill="none" stroke="#000000" stroke-width="10.71" stroke-linejoin="bevel" points="4080.54,2095.99 4080.54,2340.65"/>
<polyline class="BarLine" fill="none" stroke="#000000" stroke-width="32.74" stroke-linejoin="bevel" points="4122.21,2095.99 4122.21,2340.65"/>
<polyline class="BarLine" fill="none" stroke="#000000" stroke-width="10.71" stroke-linejoin="bevel" points="159.176,1388.54 159.176,2099.26"/>
<polyline class="BarLine" fill="none" stroke="#000000" stroke-width="10.71" stroke-linejoin="bevel" points="1035.38,1388.54 1035.38,1633.2"/>
<polyline class="BarLine" fill="none" stroke="#000000" stroke-width="10.71" stroke-linejoin="bevel" points="1551.35,1388.54 1551.35,1633.2"/>
<polyline class="BarLine" fill="none" stroke="#000000" stroke-width="10.71" stroke-linejoin="bevel" points="2038.5,1388.54 2038.5,1633.2"/>
<polyline class="BarLine" fill="none" stroke="#000000" stroke-width="10.71" stroke-linejoin="bevel" points="2071.24,1388.54 2071.24,1633.2"/>
<polyline class="BarLine" fill="none" stroke="#000000" stroke-width="10.71" stroke-linejoin="bevel" points="2572.45,1388.54 2572.45,1633.2"/>
<polyline class="BarLine" fill="none" stroke="#000000" stroke-width="10.71" stroke-linejoin="bevel" points="3071.54,1388.54 3071.54,1633.2"/>
<polyline class="BarLine" fill="none" stroke="#000000" stroke-width="10.71" stroke-linejoin="bevel" points="3593.39,1388.54 3593.39,1633.2"/>
<polyline class="BarLine" fill="none" stroke="#000000" stroke-width="10.71" stroke-linejoin="bevel" points="4080.54,1388.54 4080.54,1633.2"/>
<polyline class="BarLine" fill="none" stroke="#000000" stroke-width="32.74" stroke-linejoin="bevel" points="4122.21,1388.54 4122.21,1633.2"/>
<polyline class="BarLine" fill="none" stroke="#000000" stroke-width="10.71" stroke-linejoin="bevel" points="159.176,555.151 159.176,1391.81"/>
<polyline class="BarLine" fill="none" stroke="#000000" stroke-width="10.71" stroke-linejoin="bevel" points="1035.38,555.151 1035.38,1008.16"/>
<polyline class="BarLine" fill="none" stroke="#000000" stroke-width="10.71" stroke-linejoin="bevel" points="1551.35,555.151 1551.35,1008.16"/>
<polyline class="BarLine" fill="none" stroke="#000000" stroke-width="10.71" stroke-linejoin="bevel" points="2038.5,555.151 2038.5,1008.16"/>
<polyline class="BarLine" fill="none" stroke="#000000" stroke-width="10.71" stroke-linejoin="bevel" points="2071.24,555.151 2071.24,1008.16"/>
<polyline class="BarLine" fill="none" stroke="#000000" stroke-width="10.71" stroke-linejoin="bevel" points="2572.45,555.151 2572.45,1008.16"/>
<polyline class="BarLine" fill="none" stroke="#000000" stroke-width="10.71" stroke-linejoin="bevel" points="3071.54,555.151 3071.54,1008.16"/>
<polyline class="BarLine" fill="none" stroke="#000000" stroke-width="10.71" stroke-linejoin="bevel" points="3593.39,555.151 3593.39,1008.16"/>
<polyline class="BarLine" fill="none" stroke="#000000" stroke-width="10.71" stroke-linejoin="bevel" points="4080.54,555.151 4080.54,1008.16"/>
<polyline class="BarLine" fill="none" stroke="#000000" stroke-width="32.74" stroke-linejoin="bevel" points="4122.21,555.151 4122.21,1008.16"/>
<path class="Accidental" transform="matrix(2.3811,0,0,2.3811,3134.41,2218.32)" d="M23.3,-10.6 C23.9,-10.7 24.4,-11.4 24.4,-12 L24.4,-17.9 C24.4,-18.7 23.8,-19.3 23,-19.3 L22.8,-19.3 L19.5,-18.6 L19.5,-33.5 L16.7,-33.5 L16.7,-18 L7.8,-16.2 L7.8,-30.3 L5,-30.3 L5,-15.6 L1.1,-14.8 C0.5,-14.7 0,-14 0,-13.4 L0,-13.2 L0,-7.4 L0,-7.6 C0,-6.8 0.6,-6.2 1.4,-6.2 L1.7,-6.2 L5,-6.9 L5,9.6 L1.1,10.4 C0.5,10.5 0,11.2 0,11.8 L0,17.6 C0,18.4 0.6,19 1.4,19 L1.7,19 L5,18.3 L5,33.2 L7.8,33.2 L7.8,17.7 L16.7,15.9 L16.7,30 L19.5,30 L19.5,15.3 L23.3,14.6 C23.9,14.5 24.4,13.8 24.4,13.2 L24.4,7.3 C24.4,6.5 23.8,5.9 23,5.9 L22.8,5.9 L19.5,6.6 L19.5,-9.9 L23.3,-10.6 M7.8,9.1 L7.8,-7.5 L16.7,-9.3 L16.7,7.2 L7.8,9.1 "/>
<path class="Accidental" transform="matrix(2.3811,0,0,2.3811,1086.81,1451.34)" d="M23.3,-10.6 C23.9,-10.7 24.4,-11.4 24.4,-12 L24.4,-17.9 C24.4,-18.7 23.8,-19.3 23,-19.3 L22.8,-19.3 L19.5,-18.6 L19.5,-33.5 L16.7,-33.5 L16.7,-18 L7.8,-16.2 L7.8,-30.3 L5,-30.3 L5,-15.6 L1.1,-14.8 C0.5,-14.7 0,-14 0,-13.4 L0,-13.2 L0,-7.4 L0,-7.6 C0,-6.8 0.6,-6.2 1.4,-6.2 L1.7,-6.2 L5,-6.9 L5,9.6 L1.1,10.4 C0.5,10.5 0,11.2 0,11.8 L0,17.6 C0,18.4 0.6,19 1.4,19 L1.7,19 L5,18.3 L5,33.2 L7.8,33.2 L7.8,17.7 L16.7,15.9 L16.7,30 L19.5,30 L19.5,15.3 L23.3,14.6 C23.9,14.5 24.4,13.8 24.4,13.2 L24.4,7.3 C24.4,6.5 23.8,5.9 23,5.9 L22.8,5.9 L19.5,6.6 L19.5,-9.9 L23.3,-10.6 M7.8,9.1 L7.8,-7.5 L16.7,-9.3 L16.7,7.2 L7.8,9.1 "/>
<path class="Note" transform="matrix(2.3811,0,0,2.3811,636.699,2248.08)" d="M18.7,-13.6 C4.9,-13.6 0,-6.6 0,-0.1 C0,6.4 4.9,13.4 18.7,13.4 C32.5,13.4 37.3,6.4 37.3,-0.1 C37.3,-6.6 32.5,-13.6 18.7,-13.6 M10.4,-4.5 C10.3,-4.9 10.3,-5.3 10.3,-5.7 C10.3,-6.5 10.5,-7.3 10.9,-8 C11.6,-9 12.8,-9.7 14.3,-10 C15.6,-10.3 16.3,-10.5 18.9,-10.5 L19,-10.5 C23,-10.5 24.3,-6.8 25.4,-3 L25.7,-2 C26.5,0.6 26.9,2.8 26.9,4.5 C26.9,5.7 26.7,6.8 26.3,7.6 C25.7,8.7 24.7,9.4 23,9.8 C22.1,10 20.6,10.1 20.6,10.1 C20.1,10.1 19.7,10.2 19.3,10.2 C16.1,10.2 14.1,9 12.7,4.7 C11.5,1 11.3,-0.1 10.4,-4.5"/>
<path class="Note" transform="matrix(2.3811,0,0,2.3811,1159.79,2277.85)" d="M18.7,-13.6 C4.9,-13.6 0,-6.6 0,-0.1 C0,6.4 4.9,13.4 18.7,13.4 C32.5,13.4 37.3,6.4 37.3,-0.1 C37.3,-6.6 32.5,-13.6 18.7,-13.6 M10.4,-4.5 C10.3,-4.9 10.3,-5.3 10.3,-5.7 C10.3,-6.5 10.5,-7.3 10.9,-8 C11.6,-9 12.8,-9.7 14.3,-10 C15.6,-10.3 16.3,-10.5 18.9,-10.5 L19,-10.5 C23,-10.5 24.3,-6.8 25.4,-3 L25.7,-2 C26.5,0.6 26.9,2.8 26.9,4.5 C26.9,5.7 26.7,6.8 26.3,7.6 C25.7,8.7 24.7,9.4 23,9.8 C22.1,10 20.6,10.1 20.6,10.1 C20.1,10.1 19.7,10.2 19.3,10.2 C16.1,10.2 14.1,9 12.7,4.7 C11.5,1 11.3,-0.1 10.4,-4.5"/>
<path class="Note" transform="matrix(2.3811,0,0,2.3811,1639.81,2188.56)" d="M18.7,-13.6 C4.9,-13.6 0,-6.6 0,-0.1 C0,6.4 4.9,13.4 18.7,13.4 C32.5,13.4 37.3,6.4 37.3,-0.1 C37.3,-6.6 32.5,-13.6 18.7,-13.6 M10.4,-4.5 C10.3,-4.9 10.3,-5.3 10.3,-5.7 C10.3,-6.5 10.5,-7.3 10.9,-8 C11.6,-9 12.8,-9.7 14.3,-10 C15.6,-10.3 16.3,-10.5 18.9,-10.5 L19,-10.5 C23,-10.5 24.3,-6.8 25.4,-3 L25.7,-2 C26.5,0.6 26.9,2.8 26.9,4.5 C26.9,5.7 26.7,6.8 26.3,7.6 C25.7,8.7 24.7,9.4 23,9.8 C22.1,10 20.6,10.1 20.6,10.1 C20.1,10.1 19.7,10.2 19.3,10.2 C16.1,10.2 14.1,9 12.7,4.7 C11.5,1 11.3,-0.1 10.4,-4.5"/>
<path class="Note" transform="matrix(2.3811,0,0,2.3811,2159.7,2188.56)" d="M18.7,-13.6 C4.9,-13.6 0,-6.6 0,-0.1 C0,6.4 4.9,13.4 18.7,13.4 C32.5,13.4 37.3,6.4 37.3,-0.1 C37.3,-6.6 32.5,-13.6 18.7,-13.6 M10.4,-4.5 C10.3,-4.9 10.3,-5.3 10.3,-5.7 C10.3,-6.5 10.5,-7.3 10.9,-8 C11.6,-9 12.8,-9.7 14.3,-10 C15.6,-10.3 16.3,-10.5 18.9,-10.5 L19,-10.5 C23,-10.5 24.3,-6.8 25.4,-3 L25.7,-2 C26.5,0.6 26.9,2.8 26.9,4.5 C26.9,5.7 26.7,6.8 26.3,7.6 C25.7,8.7 24.7,9.4 23,9.8 C22.1,10 20.6,10.1 20.6,10.1 C20.1,10.1 19.7,10.2 19.3,10.2 C16.1,10.2 14.1,9 12.7,4.7 C11.5,1 11.3,-0.1 10.4,-4.5"/>
<path class="Note" transform="matrix(2.3811,0,0,2.3811,2660.91,2188.56)" d="M18.7,-13.6 C4.9,-13.6 0,-6.6 0,-0.1 C0,6.4 4.9,13.4 18.7,13.4 C32.5,13.4 37.3,6.4 37.3,-0.1 C37.3,-6.6 32.5,-13.6 18.7,-13.6 M10.4,-4.5 C10.3,-4.9 10.3,-5.3 10.3,-5.7 C10.3,-6.5 10.5,-7.3 10.9,-8 C11.6,-9 12.8,-9.7 14.3,-10 C15.6,-10.3 16.3,-10.5 18.9,-10.5 L19,-10.5 C23,-10.5 24.3,-6.8 25.4,-3 L25.7,-2 C26.5,0.6 26.9,2.8 26.9,4.5 C26.9,5.7 26.7,6.8 26.3,7.6 C25.7,8.7 24.7,9.4 23,9.8 C22.1,10 20.6,10.1 20.6,10.1 C20.1,10.1 19.7,10.2 19.3,10.2 C16.1,10.2 14.1,9 12.7,4.7 C11.5,1 11.3,-0.1 10.4,-4.5"/>
<path class="Note" transform="matrix(2.3811,0,0,2.3811,3207.39,2218.32)" d="M18.7,-13.6 C4.9,-13.6 0,-6.6 0,-0.1 C0,6.4 4.9,13.4 18.7,13.4 C32.5,13.4 37.3,6.4 37.3,-0.1 C37.3,-6.6 32.5,-13.6 18.7,-13.6 M10.4,-4.5 C10.3,-4.9 10.3,-5.3 10.3,-5.7 C10.3,-6.5 10.5,-7.3 10.9,-8 C11.6,-9 12.8,-9.7 14.3,-10 C15.6,-10.3 16.3,-10.5 18.9,-10.5 L19,-10.5 C23,-10.5 24.3,-6.8 25.4,-3 L25.7,-2 C26.5,0.6 26.9,2.8 26.9,4.5 C26.9,5.7 26.7,6.8 26.3,7.6 C25.7,8.7 24.7,9.4 23,9.8 C22.1,10 20.6,10.1 20.6,10.1 C20.1,10.1 19.7,10.2 19.3,10.2 C16.1,10.2 14.1,9 12.7,4.7 C11.5,1 11.3,-0.1 10.4,-4.5"/>
<path class="Note" transform="matrix(2.3811,0,0,2.3811,3681.86,2188.56)" d="M18.7,-13.6 C4.9,-13.6 0,-6.6 0,-0.1 C0,6.4 4.9,13.4 18.7,13.4 C32.5,13.4 37.3,6.4 37.3,-0.1 C37.3,-6.6 32.5,-13.6 18.7,-13.6 M10.4,-4.5 C10.3,-4.9 10.3,-5.3 10.3,-5.7 C10.3,-6.5 10.5,-7.3 10.9,-8 C11.6,-9 12.8,-9.7 14.3,-10 C15.6,-10.3 16.3,-10.5 18.9,-10.5 L19,-10.5 C23,-10.5 24.3,-6.8 25.4,-3 L25.7,-2 C26.5,0.6 26.9,2.8 26.9,4.5 C26.9,5.7 26.7,6.8 26.3,7.6 C25.7,8.7 24.7,9.4 23,9.8 C22.1,10 20.6,10.1 20.6,10.1 C20.1,10.1 19.7,10.2 19.3,10.2 C16.1,10.2 14.1,9 12.7,4.7 C11.5,1 11.3,-0.1 10.4,-4.5"/>
<path class="Note" transform="matrix(2.3811,0,0,2.3811,636.699,1600.16)" d="M18.7,-13.6 C4.9,-13.6 0,-6.6 0,-0.1 C0,6.4 4.9,13.4 18.7,13.4 C32.5,13.4 37.3,6.4 37.3,-0.1 C37.3,-6.6 32.5,-13.6 18.7,-13.6 M10.4,-4.5 C10.3,-4.9 10.3,-5.3 10.3,-5.7 C10.3,-6.5 10.5,-7.3 10.9,-8 C11.6,-9 12.8,-9.7 14.3,-10 C15.6,-10.3 16.3,-10.5 18.9,-10.5 L19,-10.5 C23,-10.5 24.3,-6.8 25.4,-3 L25.7,-2 C26.5,0.6 26.9,2.8 26.9,4.5 C26.9,5.7 26.7,6.8 26.3,7.6 C25.7,8.7 24.7,9.4 23,9.8 C22.1,10 20.6,10.1 20.6,10.1 C20.1,10.1 19.7,10.2 19.3,10.2 C16.1,10.2 14.1,9 12.7,4.7 C11.5,1 11.3,-0.1 10.4,-4.5"/>
<path class="Note" transform="matrix(2.3811,0,0,2.3811,636.699,1540.63)" d="M18.7,-13.6 C4.9,-13.6 0,-6.6 0,-0.1 C0,6.4 4.9,13.4 18.7,13.4 C32.5,13.4 37.3,6.4 37.3,-0.1 C37.3,-6.6 32.5,-13.6 18.7,-13.6 M10.4,-4.5 C10.3,-4.9 10.3,-5.3 10.3,-5.7 C10.3,-6.5 10.5,-7.3 10.9,-8 C11.6,-9 12.8,-9.7 14.3,-10 C15.6,-10.3 16.3,-10.5 18.9,-10.5 L19,-10.5 C23,-10.5 24.3,-6.8 25.4,-3 L25.7,-2 C26.5,0.6 26.9,2.8 26.9,4.5 C26.9,5.7 26.7,6.8 26.3,7.6 C25.7,8.7 24.7,9.4 23,9.8 C22.1,10 20.6,10.1 20.6,10.1 C20.1,10.1 19.7,10.2 19.3,10.2 C16.1,10.2 14.1,9 12.7,4.7 C11.5,1 11.3,-0.1 10.4,-4.5"/>
<path class="Note" transform="matrix(2.3811,0,0,2.3811,636.699,1421.57)" d="M18.7,-13.6 C4.9,-13.6 0,-6.6 0,-0.1 C0,6.4 4.9,13.4 18.7,13.4 C32.5,13.4 37.3,6.4 37.3,-0.1 C37.3,-6.6 32.5,-13.6 18.7,-13.6 M10.4,-4.5 C10.3,-4.9 10.3,-5.3 10.3,-5.7 C10.3,-6.5 10.5,-7.3 10.9,-8 C11.6,-9 12.8,-9.7 14.3,-10 C15.6,-10.3 16.3,-10.5 18.9,-10.5 L19,-10.5 C23,-10.5 24.3,-6.8 25.4,-3 L25.7,-2 C26.5,0.6 26.9,2.8 26.9,4.5 C26.9,5.7 26.7,6.8 26.3,7.6 C25.7,8.7 24.7,9.4 23,9.8 C22.1,10 20.6,10.1 20.6,10.1 C20.1,10.1 19.7,10.2 19.3,10.2 C16.1,10.2 14.1,9 12.7,4.7 C11.5,1 11.3,-0.1 10.4,-4.5"/>
<path class="Note" transform="matrix(2.3811,0,0,2.3811,1159.79,1600.16)" d="M18.7,-13.6 C4.9,-13.6 0,-6.6 0,-0.1 C0,6.4 4.9,13.4 18.7,13.4 C32.5,13.4 37.3,6.4 37.3,-0.1 C37.3,-6.6 32.5,-13.6 18.7,-13.6 M10.4,-4.5 C10.3,-4.9 10.3,-5.3 10.3,-5.7 C10.3,-6.5 10.5,-7.3 10.9,-8 C11.6,-9 12.8,-9.7 14.3,-10 C15.6,-10.3 16.3,-10.5 18.9,-10.5 L19,-10.5 C23,-10.5 24.3,-6.8 25.4,-3 L25.7,-2 C26.5,0.6 26.9,2.8 26.9,4.5 C26.9,5.7 26.7,6.8 26.3,7.6 C25.7,8.7 24.7,9.4 23,9.8 C22.1,10 20.6,10.1 20.6,10.1 C20.1,10.1 19.7,10.2 19.3,10.2 C16.1,10.2 14.1,9 12.7,4.7 C11.5,1 11.3,-0.1 10.4,-4.5"/>
<path class="Note" transform="matrix(2.3811,0,0,2.3811,1159.79,1510.87)" d="M18.7,-13.6 C4.9,-13.6 0,-6.6 0,-0.1 C0,6.4 4.9,13.4 18.7,13.4 C32.5,13.4 37.3,6.4 37.3,-0.1 C37.3,-6.6 32.5,-13.6 18.7,-13.6 M10.4,-4.5 C10.3,-4.9 10.3,-5.3 10.3,-5.7 C10.3,-6.5 10.5,-7.3 10.9,-8 C11.6,-9 12.8,-9.7 14.3,-10 C15.6,-10.3 16.3,-10.5 18.9,-10.5 L19,-10.5 C23,-10.5 24.3,-6.8 25.4,-3 L25.7,-2 C26.5,0.6 26.9,2.8 26.9,4.5 C26.9,5.7 26.7,6.8 26.3,7.6 C25.7,8.7 24.7,9.4 23,9.8 C22.1,10 20.6,10.1 20.6,10.1 C20.1,10.1 19.7,10.2 19.3,10.2 C16.1,10.2 14.1,9 12.7,4.7 C11.5,1 11.3,-0.1 10.4,-4.5"/>
<path class="Note" transform="matrix(2.3811,0,0,2.3811,1159.79,1451.34)" d="M18.7,-13.6 C4.9,-13.6 0,-6.6 0,-0.1 C0,6.4 4.9,13.4 18.7,13.4 C32.5,13.4 37.3,6.4 37.3,-0.1 C37.3,-6.6 32.5,-13.6 18.7,-13.6 M10.4,-4.5 C10.3,-4.9 10.3,-5.3 10.3,-5.7 C10.3,-6.5 10.5,-7.3 10.9,-8 C11.6,-9 12.8,-9.7 14.3,-10 C15.6,-10.3 16.3,-10.5 18.9,-10.5 L19,-10.5 C23,-10.5 24.3,-6.8 25.4,-3 L25.7,-2 C26.5,0.6 26.9,2.8 26.9,4.5 C26.9,5.7 26.7,6.8 26.3,7.6 C25.7,8.7 24.7,9.4 23,9.8 C22.1,10 20.6,10.1 20.6,10.1 C20.1,10.1 19.7,10.2 19.3,10.2 C16.1,10.2 14.1,9 12.7,4.7 C11.5,1 11.3,-0.1 10.4,-4.5"/>
<path class="Note" transform="matrix(2.3811,0,0,2.3811,1639.81,1570.39)" d="M18.7,-13.6 C4.9,-13.6 0,-6.6 0,-0.1 C0,6.4 4.9,13.4 18.7,13.4 C32.5,13.4 37.3,6.4 37.3,-0.1 C37.3,-6.6 32.5,-13.6 18.7,-13.6 M10.4,-4.5 C10.3,-4.9 10.3,-5.3 10.3,-5.7 C10.3,-6.5 10.5,-7.3 10.9,-8 C11.6,-9 12.8,-9.7 14.3,-10 C15.6,-10.3 16.3,-10.5 18.9,-10.5 L19,-10.5 C23,-10.5 24.3,-6.8 25.4,-3 L25.7,-2 C26.5,0.6 26.9,2.8 26.9,4.5 C26.9,5.7 26.7,6.8 26.3,7.6 C25.7,8.7 24.7,9.4 23,9.8 C22.1,10 20.6,10.1 20.6,10.1 C20.1,10.1 19.7,10.2 19.3,10.2 C16.1,10.2 14.1,9 12.7,4.7 C11.5,1 11.3,-0.1 10.4,-4.5"/>
<path class="Note" transform="matrix(2.3811,0,0,2.3811,1639.81,1510.87)" d="M18.7,-13.6 C4.9,-13.6 0,-6.6 0,-0.1 C0,6.4 4.9,13.4 18.7,13.4 C32.5,13.4 37.3,6.4 37.3,-0.1 C37.3,-6.6 32.5,-13.6 18.7,-13.6 M10.4,-4.5 C10.3,-4.9 10.3,-5.3 10.3,-5.7 C10.3,-6.5 10.5,-7.3 10.9,-8 C11.6,-9 12.8,-9.7 14.3,-10 C15.6,-10.3 16.3,-10.5 18.9,-10.5 L19,-10.5 C23,-10.5 24.3,-6.8 25.4,-3 L25.7,-2 C26.5,0.6 26.9,2.8 26.9,4.5 C26.9,5.7 26.7,6.8 26.3,7.6 C25.7,8.7 24.7,9.4 23,9.8 C22.1,10 20.6,10.1 20.6,10.1 C20.1,10.1 19.7,10.2 19.3,10.2 C16.1,10.2 14.1,9 12.7,4.7 C11.5,1 11.3,-0.1 10.4,-4.5"/>
<path class="Note" transform="matrix(2.3811,0,0,2.3811,1639.81,1421.57)" d="M18.7,-13.6 C4.9,-13.6 0,-6.6 0,-0.1 C0,6.4 4.9,13.4 18.7,13.4 C32.5,13.4 37.3,6.4 37.3,-0.1 C37.3,-6.6 32.5,-13.6 18.7,-13.6 M10.4,-4.5 C10.3,-4.9 10.3,-5.3 10.3,-5.7 C10.3,-6.5 10.5,-7.3 10.9,-8 C11.6,-9 12.8,-9.7 14.3,-10 C15.6,-10.3 16.3,-10.5 18.9,-10.5 L19,-10.5 C23,-10.5 24.3,-6.8 25.4,-3 L25.7,-2 C26.5,0.6 26.9,2.8 26.9,4.5 C26.9,5.7 26.7,6.8 26.3,7.6 C25.7,8.7 24.7,9.4 23,9.8 C22.1,10 20.6,10.1 20.6,10.1 C20.1,10.1 19.7,10.2 19.3,10.2 C16.1,10.2 14.1,9 12.7,4.7 C11.5,1 11.3,-0.1 10.4,-4.5"/>
<path class="Note" transform="matrix(2.3811,0,0,2.3811,2159.7,1570.39)" d="M18.7,-13.6 C4.9,-13.6 0,-6.6 0,-0.1 C0,6.4 4.9,13.4 18.7,13.4 C32.5,13.4 37.3,6.4 37.3,-0.1 C37.3,-6.6 32.5,-13.6 18.7,-13.6 M10.4,-4.5 C10.3,-4.9 10.3,-5.3 10.3,-5.7 C10.3,-6.5 10.5,-7.3 10.9,-8 C11.6,-9 12.8,-9.7 14.3,-10 C15.6,-10.3 16.3,-10.5 18.9,-10.5 L19,-10.5 C23,-10.5 24.3,-6.8 25.4,-3 L25.7,-2 C26.5,0.6 26.9,2.8 26.9,4.5 C26.9,5.7 26.7,6.8 26.3,7.6 C25.7,8.7 24.7,9.4 23,9.8 C22.1,10 20.6,10.1 20.6,10.1 C20.1,10.1 19.7,10.2 19.3,10.2 C16.1,10.2 14.1,9 12.7,4.7 C11.5,1 11.3,-0.1 10.4,-4.5"/>
<path class="Note" transform="matrix(2.3811,0,0,2.3811,2159.7,1510.87)" d="M18.7,-13.6 C4.9,-13.6 0,-6.6 0,-0.1 C0,6.4 4.9,13.4 18.7,13.4 C32.5,13.4 37.3,6.4 37.3,-0.1 C37.3,-6.6 32.5,-13.6 18.7,-13.6 M10.4,-4.5 C10.3,-4.9 10.3,-5.3 10.3,-5.7 C10.3,-6.5 10.5,-7.3 10.9,-8 C11.6,-9 12.8,-9.7 14.3,-10 C15.6,-10.3 16.3,-10.5 18.9,-10.5 L19,-10.5 C23,-10.5 24.3,-6.8 25.4,-3 L25.7,-2 C26.5,0.6 26.9,2.8 26.9,4.5 C26.9,5.7 26.7,6.8 26.3,7.6 C25.7,8.7 24.7,9.4 23,9.8 C22.1,10 20.6,10.1 20.6,10.1 C20.1,10.1 19.7,10.2 19.3,10.2 C16.1,10.2 14.1,9 12.7,4.7 C11.5,1 11.3,-0.1 10.4,-4.5"/>
<path class="Note" transform="matrix(2.3811,0,0,2.3811,2159.7,1421.57)" d="M18.7,-13.6 C4.9,-13.6 0,-6.6 0,-0.1 C0,6.4 4.9,13.4 18.7,13.4 C32.5,13.4 37.3,6.4 37.3,-0.1 C37.3,-6.6 32.5,-13.6 18.7,-13.6 M10.4,-4.5 C10.3,-4.9 10.3,-5.3 10.3,-5.7 C10.3,-6.5 10.5,-7.3 10.9,-8 C11.6,-9 12.8,-9.7 14.3,-10 C15.6,-10.3 16.3,-10.5 18.9,-10.5 L19,-10.5 C23,-10.5 24.3,-6.8 25.4,-3 L25.7,-2 C26.5,0.6 26.9,2.8 26.9,4.5 C26.9,5.7 26.7,6.8 26.3,7.6 C25.7,8.7 24.7,9.4 23,9.8 C22.1,10 20.6,10.1 20.6,10.1 C20.1,10.1 19.7,10.2 19.3,10.2 C16.1,10.2 14.1,9 12.7,4.7 C11.5,1 11.3,-0.1 10.4,-4.5"/>
<path class="Note" transform="matrix(2.3811,0,0,2.3811,2660.91,1540.63)" d="M18.7,-13.6 C4.9,-13.6 0,-6.6 0,-0.1 C0,6.4 4.9,13.4 18.7,13.4 C32.5,13.4 37.3,6.4 37.3,-0.1 C37.3,-6.6 32.5,-13.6 18.7,-13.6 M10.4,-4.5 C10.3,-4.9 10.3,-5.3 10.3,-5.7 C10.3,-6.5 10.5,-7.3 10.9,-8 C11.6,-9 12.8,-9.7 14.3,-10 C15.6,-10.3 16.3,-10.5 18.9,-10.5 L19,-10.5 C23,-10.5 24.3,-6.8 25.4,-3 L25.7,-2 C26.5,0.6 26.9,2.8 26.9,4.5 C26.9,5.7 26.7,6.8 26.3,7.6 C25.7,8.7 24.7,9.4 23,9.8 C22.1,10 20.6,10.1 20.6,10.1 C20.1,10.1 19.7,10.2 19.3,10.2 C16.1,10.2 14.1,9 12.7,4.7 C11.5,1 11.3,-0.1 10.4,-4.5"/>
<path class="Note" transform="matrix(2.3811,0,0,2.3811,2660.91,1481.1)" d="M18.7,-13.6 C4.9,-13.6 0,-6.6 0,-0.1 C0,6.4 4.9,13.4 18.7,13.4 C32.5,13.4 37.3,6.4 37.3,-0.1 C37.3,-6.6 32.5,-13.6 18.7,-13.6 M10.4,-4.5 C10.3,-4.9 10.3,-5.3 10.3,-5.7 C10.3,-6.5 10.5,-7.3 10.9,-8 C11.6,-9 12.8,-9.7 14.3,-10 C15.6,-10.3 16.3,-10.5 18.9,-10.5 L19,-10.5 C23,-10.5 24.3,-6.8 25.4,-3 L25.7,-2 C26.5,0.6 26.9,2.8 26.9,4.5 C26.9,5.7 26.7,6.8 26.3,7.6 C25.7,8.7 24.7,9.4 23,9.8 C22.1,10 20.6,10.1 20.6,10.1 C20.1,10.1 19.7,10.2 19.3,10.2 C16.1,10.2 14.1,9 12.7,4.7 C11.5,1 11.3,-0.1 10.4,-4.5"/>
<path class="Note" transform="matrix(2.3811,0,0,2.3811,2660.91,1391.81)" d="M18.7,-13.6 C4.9,-13.6 0,-6.6 0,-0.1 C0,6.4 4.9,13.4 18.7,13.4 C32.5,13.4 37.3,6.4 37.3,-0.1 C37.3,-6.6 32.5,-13.6 18.7,-13.6 M10.4,-4.5 C10.3,-4.9 10.3,-5.3 10.3,-5.7 C10.3,-6.5 10.5,-7.3 10.9,-8 C11.6,-9 12.8,-9.7 14.3,-10 C15.6,-10.3 16.3,-10.5 18.9,-10.5 L19,-10.5 C23,-10.5 24.3,-6.8 25.4,-3 L25.7,-2 C26.5,0.6 26.9,2.8 26.9,4.5 C26.9,5.7 26.7,6.8 26.3,7.6 C25.7,8.7 24.7,9.4 23,9.8 C22.1,10 20.6,10.1 20.6,10.1 C20.1,10.1 19.7,10.2 19.3,10.2 C16.1,10.2 14.1,9 12.7,4.7 C11.5,1 11.3,-0.1 10.4,-4.5"/>
<path class="Note" transform="matrix(2.3811,0,0,2.3811,3125.13,1540.63)" d="M18.7,-13.6 C4.9,-13.6 0,-6.6 0,-0.1 C0,6.4 4.9,13.4 18.7,13.4 C32.5,13.4 37.3,6.4 37.3,-0.1 C37.3,-6.6 32.5,-13.6 18.7,-13.6 M10.4,-4.5 C10.3,-4.9 10.3,-5.3 10.3,-5.7 C10.3,-6.5 10.5,-7.3 10.9,-8 C11.6,-9 12.8,-9.7 14.3,-10 C15.6,-10.3 16.3,-10.5 18.9,-10.5 L19,-10.5 C23,-10.5 24.3,-6.8 25.4,-3 L25.7,-2 C26.5,0.6 26.9,2.8 26.9,4.5 C26.9,5.7 26.7,6.8 26.3,7.6 C25.7,8.7 24.7,9.4 23,9.8 C22.1,10 20.6,10.1 20.6,10.1 C20.1,10.1 19.7,10.2 19.3,10.2 C16.1,10.2 14.1,9 12.7,4.7 C11.5,1 11.3,-0.1 10.4,-4.5"/>
<path class="Note" transform="matrix(2.3811,0,0,2.3811,3207.39,1510.87)" d="M18.7,-13.6 C4.9,-13.6 0,-6.6 0,-0.1 C0,6.4 4.9,13.4 18.7,13.4 C32.5,13.4 37.3,6.4 37.3,-0.1 C37.3,-6.6 32.5,-13.6 18.7,-13.6 M10.4,-4.5 C10.3,-4.9 10.3,-5.3 10.3,-5.7 C10.3,-6.5 10.5,-7.3 10.9,-8 C11.6,-9 12.8,-9.7 14.3,-10 C15.6,-10.3 16.3,-10.5 18.9,-10.5 L19,-10.5 C23,-10.5 24.3,-6.8 25.4,-3 L25.7,-2 C26.5,0.6 26.9,2.8 26.9,4.5 C26.9,5.7 26.7,6.8 26.3,7.6 C25.7,8.7 24.7,9.4 23,9.8 C22.1,10 20.6,10.1 20.6,10.1 C20.1,10.1 19.7,10.2 19.3,10.2 C16.1,10.2 14.1,9 12.7,4.7 C11.5,1 11.3,-0.1 10.4,-4.5"/>
<path class="Note" transform="matrix(2.3811,0,0,2.3811,3207.39,1391.81)" d="M18.7,-13.6 C4.9,-13.6 0,-6.6 0,-0.1 C0,6.4 4.9,13.4 18.7,13.4 C32.5,13.4 37.3,6.4 37.3,-0.1 C37.3,-6.6 32.5,-13.6 18.7,-13.6 M10.4,-4.5 C10.3,-4.9 10.3,-5.3 10.3,-5.7 C10.3,-6.5 10.5,-7.3 10.9,-8 C11.6,-9 12.8,-9.7 14.3,-10 C15.6,-10.3 16.3,-10.5 18.9,-10.5 L19,-10.5 C23,-10.5 24.3,-6.8 25.4,-3 L25.7,-2 C26.5,0.6 26.9,2.8 26.9,4.5 C26.9,5.7 26.7,6.8 26.3,7.6 C25.7,8.7 24.7,9.4 23,9.8 C22.1,10 20.6,10.1 20.6,10.1 C20.1,10.1 19.7,10.2 19.3,10.2 C16.1,10.2 14.1,9 12.7,4.7 C11.5,1 11.3,-0.1 10.4,-4.5"/>
<path class="Note" transform="matrix(2.3811,0,0,2.3811,3681.86,1570.39)" d="M18.7,-13.6 C4.9,-13.6 0,-6.6 0,-0.1 C0,6.4 4.9,13.4 18.7,13.4 C32.5,13.4 37.3,6.4 37.3,-0.1 C37.3,-6.6 32.5,-13.6 18.7,-13.6 M10.4,-4.5 C10.3,-4.9 10.3,-5.3 10.3,-5.7 C10.3,-6.5 10.5,-7.3 10.9,-8 C11.6,-9 12.8,-9.7 14.3,-10 C15.6,-10.3 16.3,-10.5 18.9,-10.5 L19,-10.5 C23,-10.5 24.3,-6.8 25.4,-3 L25.7,-2 C26.5,0.6 26.9,2.8 26.9,4.5 C26.9,5.7 26.7,6.8 26.3,7.6 C25.7,8.7 24.7,9.4 23,9.8 C22.1,10 20.6,10.1 20.6,10.1 C20.1,10.1 19.7,10.2 19.3,10.2 C16.1,10.2 14.1,9 12.7,4.7 C11.5,1 11.3,-0.1 10.4,-4.5"/>
<path class="Note" transform="matrix(2.3811,0,0,2.3811,3681.86,1510.87)" d="M18.7,-13.6 C4.9,-13.6 0,-6.6 0,-0.1 C0,6.4 4.9,13.4 18.7,13.4 C32.5,13.4 37.3,6.4 37.3,-0.1 C37.3,-6.6 32.5,-13.6 18.7,-13.6 M10.4,-4.5 C10.3,-4.9 10.3,-5.3 10.3,-5.7 C10.3,-6.5 10.5,-7.3 10.9,-8 C11.6,-9 12.8,-9.7 14.3,-10 C15.6,-10.3 16.3,-10.5 18.9,-10.5 L19,-10.5 C23,-10.5 24.3,-6.8 25.4,-3 L25.7,-2 C26.5,0.6 26.9,2.8 26.9,4.5 C26.9,5.7 26.7,6.8 26.3,7.6 C25.7,8.7 24.7,9.4 23,9.8 C22.1,10 20.6,10.1 20.6,10.1 C20.1,10.1 19.7,10.2 19.3,10.2 C16.1,10.2 14.1,9 12.7,4.7 C11.5,1 11.3,-0.1 10.4,-4.5"/>
<path class="Note" transform="matrix(2.3811,0,0,2.3811,3681.86,1421.57)" d="M18.7,-13.6 C4.9,-13.6 0,-6.6 0,-0.1 C0,6.4 4.9,13.4 18.7,13.4 C32.5,13.4 37.3,6.4 37.3,-0.1 C37.3,-6.6 32.5,-13.6 18.7,-13.6 M10.4,-4.5 C10.3,-4.9 10.3,-5.3 10.3,-5.7 C10.3,-6.5 10.5,-7.3 10.9,-8 C11.6,-9 12.8,-9.7 14.3,-10 C15.6,-10.3 16.3,-10.5 18.9,-10.5 L19,-10.5 C23,-10.5 24.3,-6.8 25.4,-3 L25.7,-2 C26.5,0.6 26.9,2.8 26.9,4.5 C26.9,5.7 26.7,6.8 26.3,7.6 C25.7,8.7 24.7,9.4 23,9.8 C22.1,10 20.6,10.1 20.6,10.1 C20.1,10.1 19.7,10.2 19.3,10.2 C16.1,10.2 14.1,9 12.7,4.7 C11.5,1 11.3,-0.1 10.4,-4.5"/>
<path class="Note" d="M604.43,945.081 C604.739,933.383 611.209,923.001 623.837,913.937 C635.07,905.879 647.35,901.851 660.676,901.851 C679.347,901.851 695.81,909.172 710.065,923.815 C719.13,933.189 723.662,944.81 723.662,958.678 C723.662,971.151 720.331,980.719 713.668,987.382 C705.533,995.594 696.933,999.7 687.869,999.7 C681.671,999.7 676.868,998.306 673.459,995.517 C667.881,990.946 665.092,984.825 665.092,977.155 C665.092,967.239 670.05,958.174 679.967,949.962 C688.101,943.222 696.275,938.806 704.487,936.714 C702.318,932.995 699.568,929.509 696.236,926.255 C685.855,916.106 674.079,911.031 660.908,911.031 C647.195,911.031 635.845,914.014 626.858,919.98 C617.561,926.1 610.085,934.467 604.43,945.081 M707.392,942.873 C703.131,946.824 698.87,951.047 694.609,955.54 C686.242,964.372 682.058,972.739 682.058,980.642 C682.058,989.086 683.995,993.309 687.869,993.309 C691.355,993.309 696.236,988.544 702.512,979.015 C707.547,971.422 710.065,964.45 710.065,958.097 C710.065,952.674 709.174,947.599 707.392,942.873"/>
<path class="Note" d="M671.242,642.535 C667.446,642.535 665.547,638.468 665.547,630.333 L665.547,596.283 C665.547,593.029 667.136,591.402 670.312,591.402 C671.707,591.402 672.753,591.518 673.45,591.751 C675.929,587.412 679.996,583.771 685.652,580.827 C693.554,576.721 701.573,574.668 709.708,574.668 C716.138,574.668 719.353,577.069 719.353,581.873 C719.353,585.902 717.184,587.916 712.845,587.916 C709.746,587.916 706.802,587.219 704.013,585.824 C701.534,584.584 698.9,583.965 696.111,583.965 C691.308,583.965 684.219,587.102 674.844,593.378 C676.161,599.653 676.82,606.974 676.82,615.342 C676.82,633.471 674.961,642.535 671.242,642.535"/>
<path class="Note" d="M671.242,821.118 C667.446,821.118 665.547,817.05 665.547,808.916 L665.547,774.866 C665.547,771.612 667.136,769.985 670.312,769.985 C671.707,769.985 672.753,770.101 673.45,770.333 C675.929,765.995 679.996,762.354 685.652,759.41 C693.554,755.304 701.573,753.25 709.708,753.25 C716.138,753.25 719.353,755.652 719.353,760.456 C719.353,764.484 717.184,766.499 712.845,766.499 C709.746,766.499 706.802,765.801 704.013,764.407 C701.534,763.167 698.9,762.547 696.111,762.547 C691.308,762.547 684.219,765.685 674.844,771.96 C676.161,778.236 676.82,785.557 676.82,793.924 C676.82,812.053 674.961,821.118 671.242,821.118"/>
<path class="Note" d="M730.393,650.479 C734.732,647.535 737.869,645.094 739.806,643.157 C743.37,639.361 745.152,635.875 745.152,632.698 C745.152,629.057 743.138,627.236 739.109,627.236 C731.284,627.236 722.917,634.132 714.007,647.922 C711.296,652.106 705.33,665.741 696.111,688.828 C703.471,696.421 707.151,700.721 707.151,701.728 C707.151,703.122 706.26,703.819 704.478,703.819 C703.084,703.819 699.249,701.457 692.973,696.731 C686.156,712.613 675.813,726.171 661.945,737.404 C647.767,748.871 630.839,754.604 611.161,754.604 C603.646,754.604 594.233,752.86 582.921,749.374 C573.857,746.585 569.325,742.13 569.325,736.01 C569.325,726.945 572.811,722.413 579.784,722.413 C583.967,722.413 586.059,724.35 586.059,728.224 C586.059,729.463 585.091,730.78 583.154,732.175 C582.147,732.872 581.643,734.228 581.643,736.242 C581.643,738.644 584.316,741.123 589.662,743.68 C595.472,746.469 603.994,747.863 615.228,747.863 C629.716,747.863 643.7,741.588 657.18,729.037 C669.421,717.649 678.214,704.401 683.56,689.293 C681.468,687.589 679.222,685.729 676.82,683.715 C669.382,679.299 665.664,674.767 665.664,670.118 C665.664,668.181 666.942,667.213 669.499,667.213 C672.907,667.213 677.517,670.118 683.328,675.929 C684.567,677.168 685.729,678.331 686.814,679.415 C689.526,671.978 693.864,662.526 699.83,651.06 C710.599,630.297 723.692,619.915 739.109,619.915 C744.61,619.915 748.948,620.961 752.125,623.053 C755.301,625.145 756.889,628.011 756.889,631.652 C756.889,637.463 754.759,642.383 750.498,646.411 C746.082,650.595 741.472,652.687 736.669,652.687 C732.485,652.687 730.393,651.951 730.393,650.479"/>
<path class="Note" d="M1194.33,999.7 C1190.53,999.7 1188.63,995.633 1188.63,987.498 L1188.63,953.448 C1188.63,950.194 1190.22,948.568 1193.4,948.568 C1194.79,948.568 1195.84,948.684 1196.54,948.916 C1199.02,944.578 1203.08,940.936 1208.74,937.992 C1216.64,933.886 1224.66,931.833 1232.79,931.833 C1239.22,931.833 1242.44,934.235 1242.44,939.038 C1242.44,943.067 1240.27,945.081 1235.93,945.081 C1232.83,945.081 1229.89,944.384 1227.1,942.989 C1224.62,941.75 1221.99,941.13 1219.2,941.13 C1214.39,941.13 1207.31,944.268 1197.93,950.543 C1199.25,956.818 1199.91,964.14 1199.91,972.507 C1199.91,990.636 1198.05,999.7 1194.33,999.7"/>
<path class="Note" d="M1194.33,642.535 C1190.53,642.535 1188.63,638.468 1188.63,630.333 L1188.63,596.283 C1188.63,593.029 1190.22,591.402 1193.4,591.402 C1194.79,591.402 1195.84,591.518 1196.54,591.751 C1199.02,587.412 1203.08,583.771 1208.74,580.827 C1216.64,576.721 1224.66,574.668 1232.79,574.668 C1239.22,574.668 1242.44,577.069 1242.44,581.873 C1242.44,585.902 1240.27,587.916 1235.93,587.916 C1232.83,587.916 1229.89,587.219 1227.1,585.824 C1224.62,584.584 1221.99,583.965 1219.2,583.965 C1214.39,583.965 1207.31,587.102 1197.93,593.378 C1199.25,599.653 1199.91,606.974 1199.91,615.342 C1199.91,633.471 1198.05,642.535 1194.33,642.535"/>
<path class="Note" d="M1194.33,553.244 C1190.53,553.244 1188.63,549.176 1188.63,541.041 L1188.63,506.992 C1188.63,503.738 1190.22,502.111 1193.4,502.111 C1194.79,502.111 1195.84,502.227 1196.54,502.459 C1199.02,498.121 1203.08,494.48 1208.74,491.536 C1216.64,487.43 1224.66,485.376 1232.79,485.376 C1239.22,485.376 1242.44,487.778 1242.44,492.582 C1242.44,496.61 1240.27,498.624 1235.93,498.624 C1232.83,498.624 1229.89,497.927 1227.1,496.533 C1224.62,495.293 1221.99,494.673 1219.2,494.673 C1214.39,494.673 1207.31,497.811 1197.93,504.086 C1199.25,510.362 1199.91,517.683 1199.91,526.05 C1199.91,544.179 1198.05,553.244 1194.33,553.244"/>
<path class="Note" d="M1274.4,705.563 C1268.05,715.557 1258.01,723.846 1244.3,730.432 C1232.37,736.165 1221.21,739.031 1210.83,739.031 C1202.54,739.031 1195.65,737.366 1190.15,734.034 C1184.18,730.393 1181.2,726.055 1181.2,721.019 C1181.2,709.63 1184.18,699.83 1190.15,691.617 C1198.28,680.461 1206.49,674.883 1214.78,674.883 C1220.67,674.883 1224.85,676.045 1227.33,678.369 C1230.74,681.391 1232.45,685.536 1232.45,690.804 C1232.45,698.241 1226.91,704.71 1215.83,710.211 C1205.06,715.557 1197.58,719.043 1193.4,720.67 C1194.33,722.607 1195.53,724.35 1197,725.9 C1200.64,729.773 1205.6,731.71 1211.88,731.71 C1219.78,731.71 1230.39,728.805 1243.72,722.994 C1256.5,717.339 1266.73,711.528 1274.4,705.563 M1191.77,715.324 C1197.58,712.38 1202.89,708.933 1207.69,704.982 C1214.82,699.171 1218.38,692.896 1218.38,686.155 C1218.38,682.359 1216.64,680.461 1213.15,680.461 C1210.21,680.461 1206.18,683.831 1201.07,690.571 C1194.64,698.939 1191.42,705.756 1191.42,711.025 C1191.42,712.497 1191.54,713.93 1191.77,715.324"/>
<path class="Note" d="M1674.35,910.409 C1670.56,910.409 1668.66,906.342 1668.66,898.207 L1668.66,864.157 C1668.66,860.903 1670.25,859.276 1673.43,859.276 C1674.82,859.276 1675.87,859.392 1676.56,859.625 C1679.04,855.286 1683.11,851.645 1688.76,848.701 C1696.67,844.595 1704.69,842.542 1712.82,842.542 C1719.25,842.542 1722.47,844.943 1722.47,849.747 C1722.47,853.776 1720.3,855.79 1715.96,855.79 C1712.86,855.79 1709.92,855.093 1707.13,853.698 C1704.65,852.458 1702.01,851.839 1699.22,851.839 C1694.42,851.839 1687.33,854.976 1677.96,861.252 C1679.27,867.527 1679.93,874.848 1679.93,883.216 C1679.93,901.345 1678.07,910.409 1674.35,910.409"/>
<path class="Note" d="M1607.54,587.916 C1607.85,576.217 1614.32,565.836 1626.95,556.771 C1638.18,548.714 1650.46,544.685 1663.79,544.685 C1682.46,544.685 1698.92,552.007 1713.18,566.649 C1722.24,576.024 1726.78,587.645 1726.78,601.513 C1726.78,613.986 1723.44,623.554 1716.78,630.217 C1708.65,638.429 1700.05,642.535 1690.98,642.535 C1684.78,642.535 1679.98,641.14 1676.57,638.351 C1670.99,633.78 1668.2,627.66 1668.2,619.99 C1668.2,610.073 1673.16,601.009 1683.08,592.797 C1691.21,586.056 1699.39,581.64 1707.6,579.549 C1705.43,575.83 1702.68,572.344 1699.35,569.09 C1688.97,558.941 1677.19,553.866 1664.02,553.866 C1650.31,553.866 1638.96,556.849 1629.97,562.814 C1620.67,568.935 1613.2,577.302 1607.54,587.916 M1710.51,585.708 C1706.24,589.659 1701.98,593.881 1697.72,598.375 C1689.36,607.207 1685.17,615.574 1685.17,623.476 C1685.17,631.921 1687.11,636.143 1690.98,636.143 C1694.47,636.143 1699.35,631.379 1705.62,621.849 C1710.66,614.257 1713.18,607.284 1713.18,600.931 C1713.18,595.508 1712.29,590.434 1710.51,585.708"/>
<path class="Note" d="M1674.35,553.244 C1670.56,553.244 1668.66,549.176 1668.66,541.041 L1668.66,506.992 C1668.66,503.738 1670.25,502.111 1673.43,502.111 C1674.82,502.111 1675.87,502.227 1676.56,502.459 C1679.04,498.121 1683.11,494.48 1688.76,491.536 C1696.67,487.43 1704.69,485.376 1712.82,485.376 C1719.25,485.376 1722.47,487.778 1722.47,492.582 C1722.47,496.61 1720.3,498.624 1715.96,498.624 C1712.86,498.624 1709.92,497.927 1707.13,496.533 C1704.65,495.293 1702.01,494.673 1699.22,494.673 C1694.42,494.673 1687.33,497.811 1677.96,504.086 C1679.27,510.362 1679.93,517.683 1679.93,526.05 C1679.93,544.179 1678.07,553.244 1674.35,553.244"/>
<path class="Note" d="M1733.51,650.479 C1737.84,647.535 1740.98,645.094 1742.92,643.157 C1746.48,639.361 1748.26,635.875 1748.26,632.698 C1748.26,629.057 1746.25,627.236 1742.22,627.236 C1734.4,627.236 1726.03,634.132 1717.12,647.922 C1714.41,652.106 1708.44,665.741 1699.22,688.828 C1706.58,696.421 1710.26,700.721 1710.26,701.728 C1710.26,703.122 1709.37,703.819 1707.59,703.819 C1706.2,703.819 1702.36,701.457 1696.09,696.731 C1689.27,712.613 1678.93,726.171 1665.06,737.404 C1650.88,748.871 1633.95,754.604 1614.27,754.604 C1606.76,754.604 1597.35,752.86 1586.03,749.374 C1576.97,746.585 1572.44,742.13 1572.44,736.01 C1572.44,726.945 1575.92,722.413 1582.9,722.413 C1587.08,722.413 1589.17,724.35 1589.17,728.224 C1589.17,729.463 1588.2,730.78 1586.27,732.175 C1585.26,732.872 1584.76,734.228 1584.76,736.242 C1584.76,738.644 1587.43,741.123 1592.77,743.68 C1598.59,746.469 1607.11,747.863 1618.34,747.863 C1632.83,747.863 1646.81,741.588 1660.29,729.037 C1672.53,717.649 1681.33,704.401 1686.67,689.293 C1684.58,687.589 1682.33,685.729 1679.93,683.715 C1672.5,679.299 1668.78,674.767 1668.78,670.118 C1668.78,668.181 1670.06,667.213 1672.61,667.213 C1676.02,667.213 1680.63,670.118 1686.44,675.929 C1687.68,677.168 1688.84,678.331 1689.93,679.415 C1692.64,671.978 1696.98,662.526 1702.94,651.06 C1713.71,630.297 1726.8,619.915 1742.22,619.915 C1747.72,619.915 1752.06,620.961 1755.24,623.053 C1758.41,625.145 1760,628.011 1760,631.652 C1760,637.463 1757.87,642.383 1753.61,646.411 C1749.19,650.595 1744.58,652.687 1739.78,652.687 C1735.6,652.687 1733.51,651.951 1733.51,650.479"/>
<path class="Note" d="M2194.24,910.409 C2190.45,910.409 2188.55,906.342 2188.55,898.207 L2188.55,864.157 C2188.55,860.903 2190.14,859.276 2193.31,859.276 C2194.71,859.276 2195.75,859.392 2196.45,859.625 C2198.93,855.286 2203,851.645 2208.65,848.701 C2216.55,844.595 2224.57,842.542 2232.71,842.542 C2239.14,842.542 2242.35,844.943 2242.35,849.747 C2242.35,853.776 2240.18,855.79 2235.85,855.79 C2232.75,855.79 2229.8,855.093 2227.01,853.698 C2224.53,852.458 2221.9,851.839 2219.11,851.839 C2214.31,851.839 2207.22,854.976 2197.84,861.252 C2199.16,867.527 2199.82,874.848 2199.82,883.216 C2199.82,901.345 2197.96,910.409 2194.24,910.409"/>
<path class="Note" d="M2127.43,587.916 C2127.74,576.217 2134.21,565.836 2146.84,556.771 C2158.07,548.714 2170.35,544.685 2183.68,544.685 C2202.35,544.685 2218.81,552.007 2233.07,566.649 C2242.13,576.024 2246.66,587.645 2246.66,601.513 C2246.66,613.986 2243.33,623.554 2236.67,630.217 C2228.53,638.429 2219.93,642.535 2210.87,642.535 C2204.67,642.535 2199.87,641.14 2196.46,638.351 C2190.88,633.78 2188.09,627.66 2188.09,619.99 C2188.09,610.073 2193.05,601.009 2202.97,592.797 C2211.1,586.056 2219.28,581.64 2227.49,579.549 C2225.32,575.83 2222.57,572.344 2219.24,569.09 C2208.86,558.941 2197.08,553.866 2183.91,553.866 C2170.2,553.866 2158.85,556.849 2149.86,562.814 C2140.56,568.935 2133.09,577.302 2127.43,587.916 M2230.39,585.708 C2226.13,589.659 2221.87,593.881 2217.61,598.375 C2209.24,607.207 2205.06,615.574 2205.06,623.476 C2205.06,631.921 2207,636.143 2210.87,636.143 C2214.36,636.143 2219.24,631.379 2225.51,621.849 C2230.55,614.257 2233.07,607.284 2233.07,600.931 C2233.07,595.508 2232.17,590.434 2230.39,585.708"/>
<path class="Note" d="M2194.24,553.244 C2190.45,553.244 2188.55,549.176 2188.55,541.041 L2188.55,506.992 C2188.55,503.738 2190.14,502.111 2193.31,502.111 C2194.71,502.111 2195.75,502.227 2196.45,502.459 C2198.93,498.121 2203,494.48 2208.65,491.536 C2216.55,487.43 2224.57,485.376 2232.71,485.376 C2239.14,485.376 2242.35,487.778 2242.35,492.582 C2242.35,496.61 2240.18,498.624 2235.85,498.624 C2232.75,498.624 2229.8,497.927 2227.01,496.533 C2224.53,495.293 2221.9,494.673 2219.11,494.673 C2214.31,494.673 2207.22,497.811 2197.84,504.086 C2199.16,510.362 2199.82,517.683 2199.82,526.05 C2199.82,544.179 2197.96,553.244 2194.24,553.244"/>
<path class="Note" d="M2253.39,650.479 C2257.73,647.535 2260.87,645.094 2262.81,643.157 C2266.37,639.361 2268.15,635.875 2268.15,632.698 C2268.15,629.057 2266.14,627.236 2262.11,627.236 C2254.28,627.236 2245.92,634.132 2237.01,647.922 C2234.3,652.106 2228.33,665.741 2219.11,688.828 C2226.47,696.421 2230.15,700.721 2230.15,701.728 C2230.15,703.122 2229.26,703.819 2227.48,703.819 C2226.08,703.819 2222.25,701.457 2215.97,696.731 C2209.16,712.613 2198.81,726.171 2184.95,737.404 C2170.77,748.871 2153.84,754.604 2134.16,754.604 C2126.65,754.604 2117.23,752.86 2105.92,749.374 C2096.86,746.585 2092.33,742.13 2092.33,736.01 C2092.33,726.945 2095.81,722.413 2102.78,722.413 C2106.97,722.413 2109.06,724.35 2109.06,728.224 C2109.06,729.463 2108.09,730.78 2106.15,732.175 C2105.15,732.872 2104.64,734.228 2104.64,736.242 C2104.64,738.644 2107.32,741.123 2112.66,743.68 C2118.47,746.469 2126.99,747.863 2138.23,747.863 C2152.72,747.863 2166.7,741.588 2180.18,729.037 C2192.42,717.649 2201.21,704.401 2206.56,689.293 C2204.47,687.589 2202.22,685.729 2199.82,683.715 C2192.38,679.299 2188.66,674.767 2188.66,670.118 C2188.66,668.181 2189.94,667.213 2192.5,667.213 C2195.91,667.213 2200.52,670.118 2206.33,675.929 C2207.57,677.168 2208.73,678.331 2209.81,679.415 C2212.53,671.978 2216.86,662.526 2222.83,651.06 C2233.6,630.297 2246.69,619.915 2262.11,619.915 C2267.61,619.915 2271.95,620.961 2275.12,623.053 C2278.3,625.145 2279.89,628.011 2279.89,631.652 C2279.89,637.463 2277.76,642.383 2273.5,646.411 C2269.08,650.595 2264.47,652.687 2259.67,652.687 C2255.49,652.687 2253.39,651.951 2253.39,650.479"/>
<path class="Note" d="M2681.97,999.7 C2677.79,999.7 2675.7,997.802 2675.7,994.006 C2675.7,987.576 2676.67,982.85 2678.6,979.828 C2686.66,967.897 2704.17,945.585 2731.13,912.891 C2743.29,898.093 2758.98,890.694 2778.19,890.694 C2785.63,890.694 2790.78,891.74 2793.65,893.832 C2798.07,897.086 2800.27,900.999 2800.27,905.569 C2800.27,910.373 2796.4,915.719 2788.65,921.607 C2781.29,927.185 2774.32,929.974 2767.74,929.974 C2765.18,929.974 2763.9,929.703 2763.9,929.16 C2763.9,928.386 2765.14,927.572 2767.62,926.72 C2770.95,925.48 2774.51,922.962 2778.31,919.166 C2782.65,914.75 2784.82,910.76 2784.82,907.196 C2784.82,904.795 2783.15,902.509 2779.82,900.34 C2776.88,898.481 2772.11,897.551 2765.53,897.551 C2755.92,897.551 2743.8,907.235 2729.15,926.604 C2719.39,939.542 2711.49,950.93 2705.45,960.77 C2708.39,959.143 2711.92,957.167 2716.02,954.843 C2721.06,951.976 2725.4,950.543 2729.04,950.543 C2738.1,950.543 2742.63,953.797 2742.63,960.305 C2742.63,966.735 2738.92,973.785 2731.48,981.455 C2726.21,986.878 2723.58,990.907 2723.58,993.541 C2723.58,996.253 2726.21,997.609 2731.48,997.609 C2734.11,997.609 2736.82,996.679 2739.61,994.819 C2742.4,993.038 2744.45,992.147 2745.77,992.147 C2746.86,992.147 2747.4,992.844 2747.4,994.238 C2747.4,996.485 2745.23,998.848 2740.89,1001.33 C2733.61,1005.51 2727.76,1007.6 2723.34,1007.6 C2715.52,1007.6 2711.61,1003.42 2711.61,995.052 C2711.61,989.784 2714.63,983.934 2720.67,977.504 C2725.09,972.778 2727.29,968.091 2727.29,963.443 C2727.29,959.414 2725.13,957.4 2720.79,957.4 C2719.08,957.4 2713.43,959.414 2703.82,963.443 C2700.95,968.246 2698.55,972.662 2696.61,976.691 C2689.25,992.03 2684.37,999.7 2681.97,999.7"/>
<path class="Note" d="M2754.6,561.187 C2758.94,558.243 2762.08,555.803 2764.02,553.866 C2767.58,550.07 2769.36,546.583 2769.36,543.407 C2769.36,539.766 2767.35,537.945 2763.32,537.945 C2755.49,537.945 2747.13,544.84 2738.22,558.631 C2735.51,562.814 2729.54,576.45 2720.32,599.537 C2727.68,607.129 2731.36,611.429 2731.36,612.436 C2731.36,613.831 2730.47,614.528 2728.69,614.528 C2727.29,614.528 2723.46,612.165 2717.18,607.439 C2710.37,623.321 2700.02,636.879 2686.16,648.113 C2671.98,659.579 2655.05,665.312 2635.37,665.312 C2627.86,665.312 2618.44,663.569 2607.13,660.083 C2598.07,657.294 2593.54,652.839 2593.54,646.719 C2593.54,637.654 2597.02,633.122 2603.99,633.122 C2608.18,633.122 2610.27,635.059 2610.27,638.932 C2610.27,640.172 2609.3,641.489 2607.36,642.884 C2606.36,643.581 2605.85,644.937 2605.85,646.951 C2605.85,649.353 2608.53,651.832 2613.87,654.388 C2619.68,657.178 2628.21,658.572 2639.44,658.572 C2653.93,658.572 2667.91,652.297 2681.39,639.746 C2693.63,628.357 2702.43,615.109 2707.77,600.002 C2705.68,598.297 2703.43,596.438 2701.03,594.424 C2693.59,590.008 2689.87,585.475 2689.87,580.827 C2689.87,578.89 2691.15,577.922 2693.71,577.922 C2697.12,577.922 2701.73,580.827 2707.54,586.638 C2708.78,587.877 2709.94,589.039 2711.02,590.124 C2713.74,582.686 2718.08,573.235 2724.04,561.768 C2734.81,541.005 2747.9,530.624 2763.32,530.624 C2768.82,530.624 2773.16,531.67 2776.34,533.762 C2779.51,535.853 2781.1,538.72 2781.1,542.361 C2781.1,548.172 2778.97,553.091 2774.71,557.12 C2770.29,561.304 2765.68,563.395 2760.88,563.395 C2756.7,563.395 2754.6,562.659 2754.6,561.187"/>
<path class="Note" d="M2754.6,739.77 C2758.94,736.826 2762.08,734.386 2764.02,732.449 C2767.58,728.652 2769.36,725.166 2769.36,721.99 C2769.36,718.348 2767.35,716.528 2763.32,716.528 C2755.49,716.528 2747.13,723.423 2738.22,737.213 C2735.51,741.397 2729.54,755.032 2720.32,778.12 C2727.68,785.712 2731.36,790.012 2731.36,791.019 C2731.36,792.414 2730.47,793.111 2728.69,793.111 C2727.29,793.111 2723.46,790.748 2717.18,786.022 C2710.37,801.904 2700.02,815.462 2686.16,826.696 C2671.98,838.162 2655.05,843.895 2635.37,843.895 C2627.86,843.895 2618.44,842.152 2607.13,838.666 C2598.07,835.876 2593.54,831.422 2593.54,825.301 C2593.54,816.237 2597.02,811.705 2603.99,811.705 C2608.18,811.705 2610.27,813.641 2610.27,817.515 C2610.27,818.755 2609.3,820.072 2607.36,821.466 C2606.36,822.164 2605.85,823.519 2605.85,825.534 C2605.85,827.935 2608.53,830.415 2613.87,832.971 C2619.68,835.76 2628.21,837.155 2639.44,837.155 C2653.93,837.155 2667.91,830.879 2681.39,818.329 C2693.63,806.94 2702.43,793.692 2707.77,778.584 C2705.68,776.88 2703.43,775.021 2701.03,773.006 C2693.59,768.59 2689.87,764.058 2689.87,759.41 C2689.87,757.473 2691.15,756.504 2693.71,756.504 C2697.12,756.504 2701.73,759.41 2707.54,765.22 C2708.78,766.46 2709.94,767.622 2711.02,768.707 C2713.74,761.269 2718.08,751.817 2724.04,740.351 C2734.81,719.588 2747.9,709.207 2763.32,709.207 C2768.82,709.207 2773.16,710.252 2776.34,712.344 C2779.51,714.436 2781.1,717.303 2781.1,720.944 C2781.1,726.754 2778.97,731.674 2774.71,735.703 C2770.29,739.886 2765.68,741.978 2760.88,741.978 C2756.7,741.978 2754.6,741.242 2754.6,739.77"/>
<path class="Note" d="M2681.97,731.826 C2677.79,731.826 2675.7,729.928 2675.7,726.132 C2675.7,719.702 2676.67,714.976 2678.6,711.954 C2686.66,700.023 2704.17,677.711 2731.13,645.017 C2743.29,630.219 2758.98,622.82 2778.19,622.82 C2785.63,622.82 2790.78,623.866 2793.65,625.958 C2798.07,629.212 2800.27,633.124 2800.27,637.695 C2800.27,642.499 2796.4,647.845 2788.65,653.733 C2781.29,659.311 2774.32,662.1 2767.74,662.1 C2765.18,662.1 2763.9,661.829 2763.9,661.286 C2763.9,660.512 2765.14,659.698 2767.62,658.846 C2770.95,657.606 2774.51,655.088 2778.31,651.292 C2782.65,646.876 2784.82,642.886 2784.82,639.322 C2784.82,636.921 2783.15,634.635 2779.82,632.466 C2776.88,630.607 2772.11,629.677 2765.53,629.677 C2755.92,629.677 2743.8,639.361 2729.15,658.73 C2719.39,671.668 2711.49,683.056 2705.45,692.896 C2708.39,691.269 2711.92,689.293 2716.02,686.969 C2721.06,684.102 2725.4,682.669 2729.04,682.669 C2738.1,682.669 2742.63,685.923 2742.63,692.431 C2742.63,698.861 2738.92,705.911 2731.48,713.581 C2726.21,719.004 2723.58,723.033 2723.58,725.667 C2723.58,728.379 2726.21,729.735 2731.48,729.735 C2734.11,729.735 2736.82,728.805 2739.61,726.945 C2742.4,725.164 2744.45,724.273 2745.77,724.273 C2746.86,724.273 2747.4,724.97 2747.4,726.364 C2747.4,728.611 2745.23,730.974 2740.89,733.453 C2733.61,737.637 2727.76,739.729 2723.34,739.729 C2715.52,739.729 2711.61,735.545 2711.61,727.178 C2711.61,721.91 2714.63,716.06 2720.67,709.63 C2725.09,704.904 2727.29,700.217 2727.29,695.568 C2727.29,691.54 2725.13,689.526 2720.79,689.526 C2719.08,689.526 2713.43,691.54 2703.82,695.568 C2700.95,700.372 2698.55,704.788 2696.61,708.817 C2689.25,724.156 2684.37,731.826 2681.97,731.826"/>
<path class="Note" d="M3300.27,941.943 C3300.27,950.853 3290.12,970.415 3269.82,1000.63 C3261.76,1012.64 3250.18,1021.43 3235.07,1027.01 C3223.92,1031.19 3211.02,1033.29 3196.38,1033.29 C3191.65,1033.29 3187.47,1032.32 3183.82,1030.38 C3179.8,1028.29 3177.78,1026 3177.78,1023.52 C3177.78,1017.09 3181.23,1013.88 3188.12,1013.88 C3189.13,1013.88 3189.64,1014.5 3189.64,1015.74 C3189.64,1016.82 3189.13,1018.02 3188.12,1019.34 C3186.88,1020.97 3186.27,1022.17 3186.27,1022.94 C3186.27,1025.27 3189.75,1026.43 3196.72,1026.43 C3212.37,1026.43 3224.73,1024.53 3233.8,1020.73 C3243.25,1016.86 3252.66,1006.98 3262.03,991.101 L3264.71,986.104 C3260.21,989.513 3255.76,991.217 3251.34,991.217 C3240.34,991.217 3234.84,986.762 3234.84,977.853 C3234.84,968.246 3241.31,958.136 3254.25,947.522 C3264.4,939.309 3273.42,935.203 3281.33,935.203 C3285.28,935.203 3288.57,936.249 3291.2,938.341 C3292.13,937.644 3293.3,937.295 3294.69,937.295 C3298.41,937.295 3300.27,938.845 3300.27,941.943 M3266.1,983.663 L3288.07,943.106 C3286.36,942.718 3284.46,942.525 3282.37,942.525 C3274.86,942.525 3267.57,946.902 3260.52,955.656 C3252.31,965.883 3248.21,974.056 3248.21,980.177 C3248.21,984.206 3250.88,986.22 3256.22,986.22 C3258.78,986.22 3262.07,985.368 3266.1,983.663"/>
<path class="Note" d="M3301.08,561.187 C3305.42,558.243 3308.56,555.803 3310.49,553.866 C3314.06,550.07 3315.84,546.583 3315.84,543.407 C3315.84,539.766 3313.83,537.945 3309.8,537.945 C3301.97,537.945 3293.61,544.84 3284.7,558.631 C3281.98,562.814 3276.02,576.45 3266.8,599.537 C3274.16,607.129 3277.84,611.429 3277.84,612.436 C3277.84,613.831 3276.95,614.528 3275.17,614.528 C3273.77,614.528 3269.94,612.165 3263.66,607.439 C3256.84,623.321 3246.5,636.879 3232.63,648.113 C3218.46,659.579 3201.53,665.312 3181.85,665.312 C3174.33,665.312 3164.92,663.569 3153.61,660.083 C3144.55,657.294 3140.01,652.839 3140.01,646.719 C3140.01,637.654 3143.5,633.122 3150.47,633.122 C3154.66,633.122 3156.75,635.059 3156.75,638.932 C3156.75,640.172 3155.78,641.489 3153.84,642.884 C3152.84,643.581 3152.33,644.937 3152.33,646.951 C3152.33,649.353 3155,651.832 3160.35,654.388 C3166.16,657.178 3174.68,658.572 3185.92,658.572 C3200.4,658.572 3214.39,652.297 3227.87,639.746 C3240.11,628.357 3248.9,615.109 3254.25,600.002 C3252.16,598.297 3249.91,596.438 3247.51,594.424 C3240.07,590.008 3236.35,585.475 3236.35,580.827 C3236.35,578.89 3237.63,577.922 3240.19,577.922 C3243.6,577.922 3248.21,580.827 3254.02,586.638 C3255.26,587.877 3256.42,589.039 3257.5,590.124 C3260.21,582.686 3264.55,573.235 3270.52,561.768 C3281.29,541.005 3294.38,530.624 3309.8,530.624 C3315.3,530.624 3319.64,531.67 3322.81,533.762 C3325.99,535.853 3327.58,538.72 3327.58,542.361 C3327.58,548.172 3325.45,553.091 3321.19,557.12 C3316.77,561.304 3312.16,563.395 3307.36,563.395 C3303.17,563.395 3301.08,562.659 3301.08,561.187"/>
<path class="Note" d="M3322,794.854 C3315.65,804.848 3305.61,813.138 3291.9,819.723 C3279.97,825.456 3268.81,828.323 3258.43,828.323 C3250.14,828.323 3243.25,826.657 3237.75,823.326 C3231.78,819.684 3228.8,815.346 3228.8,810.31 C3228.8,798.921 3231.78,789.121 3237.75,780.909 C3245.88,769.752 3254.09,764.174 3262.38,764.174 C3268.27,764.174 3272.45,765.336 3274.93,767.661 C3278.34,770.682 3280.05,774.827 3280.05,780.095 C3280.05,787.533 3274.51,794.002 3263.43,799.502 C3252.66,804.848 3245.18,808.334 3241,809.961 C3241.93,811.898 3243.13,813.641 3244.6,815.191 C3248.24,819.065 3253.2,821.001 3259.48,821.001 C3267.38,821.001 3277.99,818.096 3291.32,812.286 C3304.1,806.63 3314.33,800.819 3322,794.854 M3239.37,804.616 C3245.18,801.672 3250.49,798.224 3255.29,794.273 C3262.42,788.462 3265.99,782.187 3265.99,775.447 C3265.99,771.651 3264.24,769.752 3260.76,769.752 C3257.81,769.752 3253.78,773.123 3248.67,779.863 C3242.24,788.23 3239.02,795.048 3239.02,800.316 C3239.02,801.788 3239.14,803.221 3239.37,804.616"/>
<path class="Note" d="M3228.45,731.826 C3224.27,731.826 3222.17,729.928 3222.17,726.132 C3222.17,719.702 3223.14,714.976 3225.08,711.954 C3233.14,700.023 3250.65,677.711 3277.61,645.017 C3289.77,630.219 3305.46,622.82 3324.67,622.82 C3332.11,622.82 3337.26,623.866 3340.13,625.958 C3344.54,629.212 3346.75,633.124 3346.75,637.695 C3346.75,642.499 3342.88,647.845 3335.13,653.733 C3327.77,659.311 3320.8,662.1 3314.21,662.1 C3311.66,662.1 3310.38,661.829 3310.38,661.286 C3310.38,660.512 3311.62,659.698 3314.1,658.846 C3317.43,657.606 3320.99,655.088 3324.79,651.292 C3329.13,646.876 3331.3,642.886 3331.3,639.322 C3331.3,636.921 3329.63,634.635 3326.3,632.466 C3323.36,630.607 3318.59,629.677 3312.01,629.677 C3302.4,629.677 3290.27,639.361 3275.63,658.73 C3265.87,671.668 3257.97,683.056 3251.92,692.896 C3254.87,691.269 3258.39,689.293 3262.5,686.969 C3267.54,684.102 3271.87,682.669 3275.52,682.669 C3284.58,682.669 3289.11,685.923 3289.11,692.431 C3289.11,698.861 3285.39,705.911 3277.96,713.581 C3272.69,719.004 3270.05,723.033 3270.05,725.667 C3270.05,728.379 3272.69,729.735 3277.96,729.735 C3280.59,729.735 3283.3,728.805 3286.09,726.945 C3288.88,725.164 3290.93,724.273 3292.25,724.273 C3293.33,724.273 3293.88,724.97 3293.88,726.364 C3293.88,728.611 3291.71,730.974 3287.37,733.453 C3280.09,737.637 3274.24,739.729 3269.82,739.729 C3262,739.729 3258.08,735.545 3258.08,727.178 C3258.08,721.91 3261.1,716.06 3267.15,709.63 C3271.56,704.904 3273.77,700.217 3273.77,695.568 C3273.77,691.54 3271.6,689.526 3267.26,689.526 C3265.56,689.526 3259.9,691.54 3250.3,695.568 C3247.43,700.372 3245.03,704.788 3243.09,708.817 C3235.73,724.156 3230.85,731.826 3228.45,731.826"/>
<path class="Note" d="M3716.4,910.409 C3712.6,910.409 3710.7,906.342 3710.7,898.207 L3710.7,864.157 C3710.7,860.903 3712.29,859.276 3715.47,859.276 C3716.86,859.276 3717.91,859.392 3718.61,859.625 C3721.09,855.286 3725.15,851.645 3730.81,848.701 C3738.71,844.595 3746.73,842.542 3754.86,842.542 C3761.29,842.542 3764.51,844.943 3764.51,849.747 C3764.51,853.776 3762.34,855.79 3758,855.79 C3754.9,855.79 3751.96,855.093 3749.17,853.698 C3746.69,852.458 3744.06,851.839 3741.27,851.839 C3736.46,851.839 3729.37,854.976 3720,861.252 C3721.32,867.527 3721.98,874.848 3721.98,883.216 C3721.98,901.345 3720.12,910.409 3716.4,910.409"/>
<path class="Note" d="M3649.59,587.916 C3649.9,576.217 3656.36,565.836 3668.99,556.771 C3680.23,548.714 3692.51,544.685 3705.83,544.685 C3724.5,544.685 3740.97,552.007 3755.22,566.649 C3764.29,576.024 3768.82,587.645 3768.82,601.513 C3768.82,613.986 3765.49,623.554 3758.82,630.217 C3750.69,638.429 3742.09,642.535 3733.03,642.535 C3726.83,642.535 3722.02,641.14 3718.61,638.351 C3713.04,633.78 3710.25,627.66 3710.25,619.99 C3710.25,610.073 3715.21,601.009 3725.12,592.797 C3733.26,586.056 3741.43,581.64 3749.64,579.549 C3747.47,575.83 3744.72,572.344 3741.39,569.09 C3731.01,558.941 3719.23,553.866 3706.06,553.866 C3692.35,553.866 3681,556.849 3672.01,562.814 C3662.72,568.935 3655.24,577.302 3649.59,587.916 M3752.55,585.708 C3748.29,589.659 3744.03,593.881 3739.77,598.375 C3731.4,607.207 3727.21,615.574 3727.21,623.476 C3727.21,631.921 3729.15,636.143 3733.03,636.143 C3736.51,636.143 3741.39,631.379 3747.67,621.849 C3752.7,614.257 3755.22,607.284 3755.22,600.931 C3755.22,595.508 3754.33,590.434 3752.55,585.708"/>
<path class="Note" d="M3716.4,553.244 C3712.6,553.244 3710.7,549.176 3710.7,541.041 L3710.7,506.992 C3710.7,503.738 3712.29,502.111 3715.47,502.111 C3716.86,502.111 3717.91,502.227 3718.61,502.459 C3721.09,498.121 3725.15,494.48 3730.81,491.536 C3738.71,487.43 3746.73,485.376 3754.86,485.376 C3761.29,485.376 3764.51,487.778 3764.51,492.582 C3764.51,496.61 3762.34,498.624 3758,498.624 C3754.9,498.624 3751.96,497.927 3749.17,496.533 C3746.69,495.293 3744.06,494.673 3741.27,494.673 C3736.46,494.673 3729.37,497.811 3720,504.086 C3721.32,510.362 3721.98,517.683 3721.98,526.05 C3721.98,544.179 3720.12,553.244 3716.4,553.244"/>
<path class="Note" d="M3775.55,650.479 C3779.89,647.535 3783.03,645.094 3784.96,643.157 C3788.53,639.361 3790.31,635.875 3790.31,632.698 C3790.31,629.057 3788.29,627.236 3784.27,627.236 C3776.44,627.236 3768.07,634.132 3759.16,647.922 C3756.45,652.106 3750.49,665.741 3741.27,688.828 C3748.63,696.421 3752.31,700.721 3752.31,701.728 C3752.31,703.122 3751.42,703.819 3749.63,703.819 C3748.24,703.819 3744.4,701.457 3738.13,696.731 C3731.31,712.613 3720.97,726.171 3707.1,737.404 C3692.92,748.871 3676,754.604 3656.32,754.604 C3648.8,754.604 3639.39,752.86 3628.08,749.374 C3619.01,746.585 3614.48,742.13 3614.48,736.01 C3614.48,726.945 3617.97,722.413 3624.94,722.413 C3629.12,722.413 3631.22,724.35 3631.22,728.224 C3631.22,729.463 3630.25,730.78 3628.31,732.175 C3627.3,732.872 3626.8,734.228 3626.8,736.242 C3626.8,738.644 3629.47,741.123 3634.82,743.68 C3640.63,746.469 3649.15,747.863 3660.38,747.863 C3674.87,747.863 3688.86,741.588 3702.34,729.037 C3714.58,717.649 3723.37,704.401 3728.72,689.293 C3726.62,687.589 3724.38,685.729 3721.98,683.715 C3714.54,679.299 3710.82,674.767 3710.82,670.118 C3710.82,668.181 3712.1,667.213 3714.65,667.213 C3718.06,667.213 3722.67,670.118 3728.48,675.929 C3729.72,677.168 3730.89,678.331 3731.97,679.415 C3734.68,671.978 3739.02,662.526 3744.99,651.06 C3755.75,630.297 3768.85,619.915 3784.27,619.915 C3789.77,619.915 3794.1,620.961 3797.28,623.053 C3800.46,625.145 3802.05,628.011 3802.05,631.652 C3802.05,637.463 3799.91,642.383 3795.65,646.411 C3791.24,650.595 3786.63,652.687 3781.82,652.687 C3777.64,652.687 3775.55,651.951 3775.55,650.479"/>
<path class="Clef" transform="matrix(2.3811,0,0,2.3811,212.156,2158.79)" d="M25.4,-25.1 C17.8,-25.1 11.7,-20.7 11.6,-20.7 C5.8,-16.4 3.5,-11.3 2.6,-7.8 C2.1,-6 1.9,-4.2 1.9,-2.5 C1.9,-0.1 2.3,2.1 3.2,4 C4.4,6.7 6.7,8.6 9.7,9.6 C10.9,10 12.2,10.2 13.5,10.2 C15.7,10.2 18,9.6 19.9,8.5 C23,6.8 24.9,3.2 24.9,-0.7 C24.9,-4.2 23.1,-7.4 20.1,-9.3 C18,-10.7 16,-11.1 14.3,-11.1 C13.1,-11.1 12,-10.9 11.1,-10.6 C10.1,-10.2 8.4,-9.2 7.6,-8.5 C7.9,-10.4 9.1,-13.3 10.2,-14.9 C11.3,-16.5 13.5,-18.5 15.2,-19.4 C17.7,-20.8 20.9,-21.4 24.4,-21.4 C34.6,-21.4 39.6,-13.2 39.6,3.6 C39.6,12.9 36.1,21.8 33.1,27.7 C29.8,34.3 25.4,40.6 21.5,44.1 C11.1,53.6 1.3,58.1 1.2,58.1 C1.2,58.1 -0.3,59 0.1,60.5 C0.4,61.5 1.3,61.7 1.9,61.7 C2,61.7 2.3,61.6 2.4,61.6 C2.5,61.6 13.9,56.9 23,49.8 C28.1,46.1 32.7,42.1 36.7,37.8 C40.3,33.9 43.4,29.7 45.9,25.5 C50.3,18 52.8,10.2 52.8,3.5 C52.8,-4.8 50.6,-11.7 46.5,-16.6 C41.8,-22.2 34.7,-25.1 25.4,-25.1 M56.8,-12.4 C56.8,-9.6 59,-7.4 61.6,-7.4 C64.2,-7.4 66.4,-9.6 66.4,-12.4 C66.4,-15.2 64.2,-17.5 61.6,-17.5 C59,-17.5 56.8,-15.2 56.8,-12.4 M56.8,12.3 C56.8,15.1 59,17.4 61.6,17.4 C64.2,17.4 66.4,15.1 66.4,12.3 C66.4,9.5 64.2,7.2 61.6,7.2 C59,7.2 56.8,9.5 56.8,12.3"/>
<path class="Clef" transform="matrix(2.3811,0,0,2.3811,212.156,1570.39)" d="M63.37,-5.89004 C62.14,-11.32 59.5,-15.14 58.72,-16.1801 C55.5301,-20.45 51.52,-23.3 46.8301,-24.65 C43.72,-25.54 40.72,-25.65 38.3,-25.47 C37.2601,-31.4801 36.2601,-37.3601 35.35,-42.8101 C40.79,-48.97 44.42,-54.77 46.69,-59.07 C50.1601,-65.65 51.3101,-70.2301 51.3601,-70.4301 C53.0801,-75.64 53.44,-83.34 52.34,-91.55 C51.3301,-99.1 49.24,-105.81 46.89,-109.06 C45.8601,-110.49 44.8101,-111.22 43.77,-111.22 C42.55,-111.22 40.04,-109.98 37.15,-107.21 C34.85,-105.01 31.5801,-101.12 29.02,-95.1101 C26.02,-88.05 25.8101,-78.5601 26.1601,-71.84 C26.54,-64.57 27.65,-58.8801 27.6601,-58.8301 C27.6801,-58.74 27.94,-57.24 28.39,-54.67 C28.1601,-54.44 27.92,-54.22 27.67,-53.9801 C26.6301,-52.9801 25.44,-51.84 24.0601,-50.4601 C23.2,-49.6 22.25,-48.69 21.25,-47.72 C12.79,-39.57 0,-27.25 0,-8.1 C0,-3.4 0.9,1.01992 2.68008,5.02998 C4.27002,8.62998 6.57002,11.91 9.5,14.78 C17.2301,22.33 27.82,25.5399 34.8801,25.38 C37.8301,25.31 40.4601,25.0699 42.85,24.6199 C44.6801,34.2199 45.82,41.25 45.8601,46.5899 C45.9,53.1 44.25,57.0699 40.35,59.8399 C37.92,61.5699 35.1101,62.5199 32.0101,62.6699 C29.42,62.7899 27.1601,62.3199 25.7301,61.91 L25.72,61.91 C25.72,61.91 25.4301,61.83 25.42,61.63 C25.4101,61.45 25.7601,61.4 25.77,61.4 L25.79,61.4 C27.7101,60.96 31.2801,59.73 33.64,56.43 C35.44,53.91 36.3101,49.2899 34.47,45.35 C33.3601,42.96 30.85,40.01 25.2301,39.56 C22.74,39.36 20.47,39.8699 18.47,41.0699 C16.6601,42.15 15.1601,43.7899 14.1101,45.7899 C11.65,50.4899 12.1101,56.2199 15.24,60.06 C18.2,63.68 22.82,65.9899 28.25,66.5699 C29.1,66.66 29.95,66.7 30.8,66.7 C31.5101,66.7 32.22,66.6699 32.92,66.61 C31.72,66.9399 30.64,67.4899 29.77,68.25 C28.2801,69.5399 27.44,71.38 27.44,73.41 C27.44,75.28 28.0601,76.65 29.55,78.0399 C28.4101,78.5 27.55,78.98 26.79,79.56 C25.25,80.73 24.34,82.46 24.34,84.1899 C24.34,87.45 27.3,89.63 31.72,89.63 C37.1301,89.63 40.9101,86.63 40.9101,82.35 C40.9101,80.1199 39.9101,78.18 38.0801,76.83 C41.0101,75.6199 42.37,73.9399 42.37,71.56 C42.39,70.05 41.69,68.61 40.49,67.6899 C39.2801,66.7399 37.62,66.2399 35.69,66.2399 L35.5101,66.2399 C38.2801,65.7 40.92,64.7 43.2101,63.28 C46.87,60.71 48.99,56.73 49.67,51.1 C50.2301,46.46 49.84,40.55 48.44,32.48 C48.0801,30.3899 47.54,27.36 46.8801,23.6 C52.6301,21.68 56.79,18.11 60.5601,12.26 C63.85,6.51992 64.8,0.419922 63.37,-5.89004 M32.39,87.5399 C30.19,87.5399 28.7301,86.1199 28.7301,84.01 C28.7301,82.11 29.65,80.5 31.32,79.4699 C31.6801,79.66 31.77,79.71 32.1101,79.88 C33.3,80.48 33.3,80.48 33.55,80.63 L33.5601,80.6399 C35.47,81.73 36.25,82.76 36.25,84.18 C36.24,86.0899 34.59,87.5399 32.39,87.5399 M38.3101,71.63 C38.3101,73.2699 37.7301,74.3399 36.1801,75.53 C34.74,74.78 34.35,74.56 33.9801,74.3399 L33.8801,74.28 C32.3301,73.3399 31.85,72.66 31.85,71.4 C31.85,69.6 33.2301,68.3399 35.19,68.3399 C37.17,68.35 38.3101,69.55 38.3101,71.63 M33.15,-83.8101 C34.9301,-89.55 37.67,-92.8 39.6601,-94.5301 C41.4101,-96.05 43.0601,-96.7601 43.9801,-96.7601 C44.12,-96.7601 44.24,-96.74 44.34,-96.7101 C44.8,-96.57 45.3301,-96 45.8,-95.1301 C48.1101,-90.84 47.37,-84.1301 46.0301,-79.69 C44.4,-74.29 41.4801,-68.6801 32.69,-59.0601 C32.52,-60.17 32.3601,-61.22 32.2101,-62.2 C30.95,-70.49 31.27,-77.7601 33.15,-83.8101 M29.15,20.31 C24.5101,19.0899 20.0801,16.5899 16.32,13.0899 C15.0101,11.86 13.14,9.68994 11.67,6.3 C10.3101,3.13994 9.65,-0.290039 9.7,-3.88008 C9.77002,-8.57002 11.0801,-13.39 13.59,-18.1801 C16.5101,-23.7601 21.07,-29.29 27.1301,-34.62 C28.5801,-35.9 29.95,-37.1801 31.24,-38.4601 C32,-34.2 32.8301,-29.5101 33.7101,-24.6301 C29.8601,-23.3601 25.1101,-20.2101 22,-14.5601 C18.47,-7.99004 18.6101,-2.47002 19.34,1.00996 C20.2801,5.46992 22.8101,9.22998 26.27,11.3199 C27.2,11.88 31.3301,14.01 33.17,13.43 C33.54,13.31 33.8101,13.0899 33.95,12.76 C34.4601,11.5899 33.44,10.95 31.8801,9.98994 C31.2801,9.61992 30.6101,9.2 29.8801,8.66992 C26.5601,6.17998 25.1101,1.72998 26.1801,-2.65 C26.7601,-5.05 28.04,-7.21006 29.8801,-8.91006 C31.55,-10.4601 33.59,-11.5601 35.97,-12.2 C38.0101,-0.960059 40.07,10.1899 41.7101,18.55 C41.84,19.2399 41.9801,19.91 42.1101,20.58 C37.7101,21.51 33.37,21.4199 29.15,20.31 M54.9,10.1 C53.7301,13.28 51.27,17.35 46.14,19.41 C46.07,18.9899 45.99,18.56 45.9101,18.13 C44.3601,9.36992 42.4301,-1.61006 40.47,-12.87 C50.82,-13.35 55.09,-5.91006 55.9801,-1.08008 C56.45,1.45 56.45,5.88994 54.9,10.1"/>
<path class="KeySig" transform="matrix(2.3811,0,0,2.3811,429.785,2158.79)" d="M23.3,-10.6 C23.9,-10.7 24.4,-11.4 24.4,-12 L24.4,-17.9 C24.4,-18.7 23.8,-19.3 23,-19.3 L22.8,-19.3 L19.5,-18.6 L19.5,-33.5 L16.7,-33.5 L16.7,-18 L7.8,-16.2 L7.8,-30.3 L5,-30.3 L5,-15.6 L1.1,-14.8 C0.5,-14.7 0,-14 0,-13.4 L0,-13.2 L0,-7.4 L0,-7.6 C0,-6.8 0.6,-6.2 1.4,-6.2 L1.7,-6.2 L5,-6.9 L5,9.6 L1.1,10.4 C0.5,10.5 0,11.2 0,11.8 L0,17.6 C0,18.4 0.6,19 1.4,19 L1.7,19 L5,18.3 L5,33.2 L7.8,33.2 L7.8,17.7 L16.7,15.9 L16.7,30 L19.5,30 L19.5,15.3 L23.3,14.6 C23.9,14.5 24.4,13.8 24.4,13.2 L24.4,7.3 C24.4,6.5 23.8,5.9 23,5.9 L22.8,5.9 L19.5,6.6 L19.5,-9.9 L23.3,-10.6 M7.8,9.1 L7.8,-7.5 L16.7,-9.3 L16.7,7.2 L7.8,9.1 "/>
<path class="KeySig" transform="matrix(2.3811,0,0,2.3811,429.785,1391.81)" d="M23.3,-10.6 C23.9,-10.7 24.4,-11.4 24.4,-12 L24.4,-17.9 C24.4,-18.7 23.8,-19.3 23,-19.3 L22.8,-19.3 L19.5,-18.6 L19.5,-33.5 L16.7,-33.5 L16.7,-18 L7.8,-16.2 L7.8,-30.3 L5,-30.3 L5,-15.6 L1.1,-14.8 C0.5,-14.7 0,-14 0,-13.4 L0,-13.2 L0,-7.4 L0,-7.6 C0,-6.8 0.6,-6.2 1.4,-6.2 L1.7,-6.2 L5,-6.9 L5,9.6 L1.1,10.4 C0.5,10.5 0,11.2 0,11.8 L0,17.6 C0,18.4 0.6,19 1.4,19 L1.7,19 L5,18.3 L5,33.2 L7.8,33.2 L7.8,17.7 L16.7,15.9 L16.7,30 L19.5,30 L19.5,15.3 L23.3,14.6 C23.9,14.5 24.4,13.8 24.4,13.2 L24.4,7.3 C24.4,6.5 23.8,5.9 23,5.9 L22.8,5.9 L19.5,6.6 L19.5,-9.9 L23.3,-10.6 M7.8,9.1 L7.8,-7.5 L16.7,-9.3 L16.7,7.2 L7.8,9.1 "/>
<path class="FiguredBass" d="M713.761,2518.48 L713.761,2501.51 C713.761,2500.52 714.117,2499.63 714.828,2498.86 C715.539,2498.09 716.451,2497.7 717.565,2497.7 C718.678,2497.7 719.59,2498.09 720.301,2498.86 C721.013,2499.63 721.368,2500.52 721.368,2501.51 L721.368,2518.48 L734.635,2518.48 C735.748,2518.48 736.66,2518.87 737.372,2519.64 C738.083,2520.42 738.439,2521.3 738.439,2522.29 C738.439,2523.28 738.083,2524.16 737.372,2524.93 C736.66,2525.7 735.748,2526.09 734.635,2526.09 L721.368,2526.09 L721.368,2543.07 C721.368,2544.06 721.013,2544.94 720.301,2545.71 C719.59,2546.49 718.678,2546.87 717.565,2546.87 C716.451,2546.87 715.539,2546.49 714.828,2545.71 C714.117,2544.94 713.761,2544.06 713.761,2543.07 L713.761,2526.09 L696.598,2526.09 L696.598,2527.3 C696.598,2531.13 697.618,2534.47 699.659,2537.32 C701.7,2540.16 704.329,2541.58 707.545,2541.58 C708.782,2541.58 709.401,2542.14 709.401,2543.25 C709.401,2544.49 708.782,2545.11 707.545,2545.11 C705.319,2545.11 702.01,2544.78 697.618,2544.14 C693.227,2543.49 689.903,2543.16 687.645,2543.16 C685.388,2543.16 682.063,2543.49 677.672,2544.14 C673.281,2544.78 669.972,2545.11 667.745,2545.11 C666.508,2545.11 665.89,2544.49 665.89,2543.25 C665.89,2542.14 666.508,2541.58 667.745,2541.58 C670.961,2541.58 673.605,2540.16 675.677,2537.32 C677.749,2534.47 678.785,2531.13 678.785,2527.3 L678.785,2526.09 L653.458,2526.09 C651.85,2526.09 650.66,2525.7 649.886,2524.93 C649.113,2524.16 648.727,2523.37 648.727,2522.57 C648.727,2522.26 649.453,2521.19 650.907,2519.36 C652.36,2517.54 654.139,2515.11 656.241,2512.08 C658.344,2509.05 660.432,2505.6 662.504,2501.74 C664.576,2497.87 666.338,2493.23 667.792,2487.82 C669.245,2482.41 669.972,2476.95 669.972,2471.45 C669.972,2469.84 670.652,2469.04 672.013,2469.04 C672.198,2469.04 672.848,2469.19 673.961,2469.5 C675.074,2469.81 676.497,2470.13 678.229,2470.47 C679.96,2470.81 681.63,2470.98 683.238,2470.98 C685.651,2470.98 688.125,2470.64 690.66,2469.96 L694.835,2468.85 C695.639,2468.85 696.289,2469.16 696.783,2469.78 C697.154,2470.33 697.093,2470.89 696.598,2471.45 L656.149,2518.48 L678.785,2518.48 L678.785,2501.78 C678.785,2500.36 679.172,2499.26 679.945,2498.49 C680.718,2497.72 681.77,2497.07 683.099,2496.54 C684.429,2496.02 685.96,2494.67 687.692,2492.51 C689.3,2490.47 691.155,2487.37 693.258,2483.23 C693.567,2482.61 694.031,2482.3 694.65,2482.3 C695.948,2482.3 696.598,2483.01 696.598,2484.44 L696.598,2518.48 L713.761,2518.48 "/>
<path class="FiguredBass" d="M695.763,2610.5 C695.763,2611.49 696.32,2612.45 697.433,2613.38 C698.546,2614.31 699.768,2615.19 701.097,2616.02 C702.427,2616.86 703.649,2618.43 704.762,2620.75 C705.875,2623.07 706.432,2626 706.432,2629.52 C706.432,2636.32 703.865,2641.58 698.732,2645.29 C693.598,2649 687.104,2650.86 679.249,2650.86 C672.941,2650.86 667.452,2649.28 662.782,2646.13 C658.112,2642.97 655.778,2638.83 655.778,2633.7 C655.778,2630.97 656.767,2628.61 658.746,2626.6 C660.725,2624.59 663.091,2623.58 665.843,2623.58 C668.596,2623.58 670.931,2624.57 672.848,2626.55 C674.765,2628.53 675.724,2630.91 675.724,2633.7 C675.724,2634.93 674.703,2636.28 672.662,2637.73 C670.621,2639.19 669.601,2640.53 669.601,2641.77 C669.601,2643.68 670.544,2645.09 672.43,2645.99 C674.317,2646.89 676.59,2647.33 679.249,2647.33 C682.713,2647.33 685.171,2645.62 686.625,2642.18 C688.078,2638.75 688.805,2634.53 688.805,2629.52 L688.805,2627.11 C688.805,2623.77 688.697,2621.23 688.48,2619.5 C688.264,2617.77 687.583,2616.22 686.439,2614.86 C685.295,2613.5 683.548,2612.82 681.197,2612.82 L669.044,2612.82 C667.622,2612.82 666.91,2612.05 666.91,2610.5 C666.91,2609.08 667.622,2608.37 669.044,2608.37 L681.197,2608.37 C683.733,2608.37 685.712,2607.41 687.135,2605.49 C687.63,2604.81 688.032,2603.7 688.341,2602.15 C688.65,2600.11 688.805,2597.17 688.805,2593.34 L688.805,2592.13 C688.805,2582.92 685.403,2578.31 678.6,2578.31 C672.6,2578.31 669.601,2579.98 669.601,2583.32 C669.601,2584.43 670.513,2585.62 672.338,2586.89 C674.162,2588.16 675.074,2589.35 675.074,2590.46 C675.074,2592.88 674.224,2594.95 672.523,2596.68 C670.822,2598.41 668.75,2599.28 666.307,2599.28 C663.864,2599.28 661.808,2598.41 660.138,2596.68 C658.468,2594.95 657.633,2592.88 657.633,2590.46 C657.633,2585.7 659.705,2581.9 663.849,2579.05 C667.993,2576.21 672.91,2574.79 678.6,2574.79 C686.084,2574.79 692.237,2576.22 697.062,2579.1 C701.886,2581.98 704.298,2586.32 704.298,2592.13 C704.298,2596.28 703.865,2599.49 702.999,2601.78 C702.133,2604.07 701.144,2605.46 700.03,2605.96 C698.917,2606.45 697.928,2607.02 697.062,2607.67 C696.196,2608.32 695.763,2609.27 695.763,2610.5"/>
<path class="FiguredBass" d="M1198.16,2535.46 L1198.16,2554.85 C1198.16,2556.77 1197.19,2557.73 1195.24,2557.73 C1193.29,2557.73 1192.32,2556.77 1192.32,2554.85 L1192.32,2537.97 L1189.35,2539.17 C1189.04,2539.3 1188.64,2539.36 1188.14,2539.36 C1187.34,2539.36 1186.63,2539.05 1186.01,2538.43 C1185.39,2537.81 1185.08,2537.1 1185.08,2536.3 L1185.08,2526.83 C1185.08,2525.47 1185.73,2524.51 1187.03,2523.96 L1192.32,2521.73 L1192.32,2502.25 L1189.35,2503.45 C1189.16,2503.52 1188.91,2503.55 1188.61,2503.55 C1188.48,2503.55 1188.33,2503.55 1188.14,2503.55 C1187.21,2503.42 1186.47,2503.08 1185.92,2502.53 C1185.36,2501.97 1185.08,2501.32 1185.08,2500.58 L1185.08,2491.12 C1185.08,2489.82 1185.73,2488.89 1187.03,2488.33 L1192.32,2486.11 L1192.32,2466.34 C1192.32,2464.43 1193.29,2463.47 1195.24,2463.47 C1197.19,2463.47 1198.16,2464.43 1198.16,2466.34 L1198.16,2483.69 L1210.13,2478.68 L1210.13,2459.29 C1210.13,2457.38 1211.09,2456.42 1213.01,2456.42 C1214.92,2456.42 1215.88,2457.38 1215.88,2459.29 L1215.88,2476.36 L1219.13,2474.97 C1219.44,2474.85 1219.78,2474.79 1220.15,2474.79 C1220.95,2474.79 1221.68,2475.1 1222.33,2475.71 C1222.98,2476.33 1223.3,2477.04 1223.3,2477.85 L1223.3,2487.31 C1223.3,2488.67 1222.62,2489.63 1221.26,2490.19 L1215.88,2492.41 L1215.88,2511.99 L1219.13,2510.69 C1219.31,2510.63 1219.53,2510.6 1219.78,2510.6 C1219.9,2510.6 1220.02,2510.6 1220.15,2510.6 C1221.2,2510.78 1221.99,2511.12 1222.51,2511.62 C1223.04,2512.11 1223.3,2512.76 1223.3,2513.57 L1223.3,2523.03 C1223.3,2524.33 1222.62,2525.26 1221.26,2525.81 L1215.88,2528.04 L1215.88,2547.8 C1215.88,2549.72 1214.92,2550.68 1213.01,2550.68 C1211.09,2550.68 1210.13,2549.72 1210.13,2547.8 L1210.13,2530.45 L1198.16,2535.46 M1198.16,2519.32 L1210.13,2514.4 L1210.13,2494.83 L1198.16,2499.84 L1198.16,2519.32 "/>
<path class="FiguredBass" d="M2712.27,2545.11 C2706.27,2545.11 2701.91,2543.44 2699.19,2540.1 C2698.2,2538.86 2696.94,2537.72 2695.39,2536.67 C2693.84,2535.62 2692.14,2535.09 2690.29,2535.09 C2687.87,2535.09 2685.71,2535.85 2683.79,2537.36 C2681.87,2538.88 2680.92,2540.9 2680.92,2543.44 C2680.92,2544.55 2680.36,2545.11 2679.25,2545.11 C2678.01,2545.11 2677.39,2544.55 2677.39,2543.44 C2677.39,2539.67 2678.27,2536.22 2680.03,2533.1 C2681.8,2529.97 2684.01,2527.34 2686.67,2525.21 C2689.33,2523.08 2692.2,2520.79 2695.3,2518.34 C2698.39,2515.9 2701.25,2513.54 2703.88,2511.25 C2706.51,2508.96 2708.7,2506.07 2710.46,2502.57 C2712.23,2499.08 2713.11,2495.26 2713.11,2491.12 C2713.11,2485.92 2712.26,2481.53 2710.56,2477.94 C2708.86,2474.35 2706.18,2472.56 2702.53,2472.56 C2700.43,2472.56 2698.6,2473.07 2697.06,2474.09 C2695.51,2475.11 2694.74,2476.46 2694.74,2478.13 C2694.74,2479.43 2695.62,2481.13 2697.38,2483.23 C2699.15,2485.33 2700.03,2487.09 2700.03,2488.52 C2700.03,2491.49 2699.02,2493.98 2697.01,2495.99 C2695,2498 2692.57,2499 2689.73,2499 C2686.76,2499 2684.27,2497.96 2682.26,2495.89 C2680.25,2493.82 2679.25,2491.36 2679.25,2488.52 C2679.25,2482.83 2681.52,2478.16 2686.07,2474.51 C2690.61,2470.86 2696.1,2469.04 2702.53,2469.04 C2710.14,2469.04 2716.77,2471.09 2722.43,2475.2 C2728.09,2479.32 2730.92,2484.62 2730.92,2491.12 C2730.92,2495.51 2730.13,2499.31 2728.56,2502.53 C2726.98,2505.74 2724.72,2508.34 2721.78,2510.32 C2718.84,2512.3 2715.91,2513.98 2712.97,2515.38 C2710.03,2516.77 2706.58,2518.27 2702.63,2519.87 C2698.67,2521.48 2695.48,2523.06 2693.07,2524.61 C2694.37,2524.3 2695.7,2524.14 2697.06,2524.14 C2701.64,2524.14 2706.4,2525.63 2711.35,2528.6 C2716.29,2531.56 2720.19,2533.05 2723.04,2533.05 C2724.64,2533.05 2725.96,2532.75 2726.98,2532.17 C2728,2531.58 2728.66,2530.93 2728.97,2530.22 C2729.28,2529.51 2729.64,2528.84 2730.04,2528.22 C2730.44,2527.61 2730.89,2527.3 2731.38,2527.3 C2732.62,2527.3 2733.24,2527.92 2733.24,2529.15 C2733.24,2531.81 2731.32,2535.14 2727.49,2539.13 C2723.65,2543.11 2718.58,2545.11 2712.27,2545.11"/>
<path class="FiguredBass" d="M3254.58,2472.56 C3250,2472.56 3246.95,2474.4 3245.44,2478.08 C3243.92,2481.76 3243.17,2486.97 3243.17,2493.71 L3243.17,2504.66 C3246.38,2503.36 3249.16,2502.68 3251.51,2502.62 C3259.56,2502.62 3265.88,2504.4 3270.49,2507.95 C3275.09,2511.51 3277.4,2516.8 3277.4,2523.82 C3277.4,2530.84 3275.06,2536.14 3270.39,2539.73 C3265.72,2543.32 3259.43,2545.11 3251.51,2545.11 C3243.41,2545.11 3237.07,2541.35 3232.5,2533.84 C3227.92,2526.32 3225.63,2517.4 3225.63,2507.07 C3225.63,2496.81 3228.29,2487.9 3233.61,2480.35 C3238.93,2472.81 3245.92,2469.04 3254.58,2469.04 C3260.27,2469.04 3265.18,2470.47 3269.33,2473.35 C3273.47,2476.23 3275.54,2480.01 3275.54,2484.71 C3275.54,2487.44 3274.55,2489.79 3272.57,2491.76 C3270.6,2493.74 3268.23,2494.73 3265.48,2494.73 C3262.72,2494.73 3260.36,2493.74 3258.38,2491.76 C3256.4,2489.79 3255.41,2487.44 3255.41,2484.71 C3255.41,2482.05 3256.4,2479.7 3258.38,2477.66 C3259.06,2476.86 3260.02,2476.18 3261.26,2475.62 C3260.95,2474.82 3260.33,2474.2 3259.4,2473.77 C3258.04,2472.96 3256.43,2472.56 3254.58,2472.56 M3259.12,2510.5 C3258.01,2507.6 3255.57,2506.14 3251.79,2506.14 C3248.02,2506.14 3245.69,2507.6 3244.79,2510.5 C3243.89,2513.41 3243.44,2517.83 3243.44,2523.77 C3243.44,2530.76 3243.89,2535.46 3244.79,2537.87 C3245.69,2540.29 3248.02,2541.49 3251.79,2541.49 C3255.57,2541.49 3258.01,2540.04 3259.12,2537.13 C3260.24,2534.22 3260.79,2529.79 3260.79,2523.82 C3260.79,2517.85 3260.24,2513.41 3259.12,2510.5"/>
<path class="FiguredBass" d="M3231.94,2574.79 L3236.39,2575.43 C3237.57,2575.62 3239.02,2575.81 3240.75,2575.99 C3245.02,2576.49 3249.13,2576.73 3253.09,2576.73 C3257.05,2576.73 3261.23,2576.49 3265.62,2575.99 C3267.35,2575.81 3268.86,2575.62 3270.16,2575.43 L3274.71,2574.79 C3275.64,2574.79 3276.35,2575.09 3276.84,2575.71 C3277.21,2576.21 3277.15,2576.7 3276.66,2577.2 C3267.01,2586.66 3253.68,2591.39 3236.67,2591.39 C3235.99,2591.39 3235.39,2591.64 3234.86,2592.13 C3234.34,2592.63 3234.07,2593.25 3234.07,2593.99 L3234.07,2605.77 C3238.46,2601.44 3243.78,2599.28 3250.03,2599.28 C3258.75,2599.28 3265.55,2601.32 3270.44,2605.4 C3275.76,2601.38 3278.54,2596.25 3278.79,2590 C3278.85,2588.02 3279.5,2586.41 3280.74,2585.18 C3282.1,2583.94 3283.74,2583.32 3285.66,2583.32 C3287.57,2583.32 3289.2,2583.97 3290.53,2585.27 C3291.86,2586.57 3292.52,2588.14 3292.52,2590 C3292.52,2599.59 3286.86,2606.85 3275.54,2611.8 C3277.4,2615.45 3278.33,2619.9 3278.33,2625.16 C3278.33,2632.15 3275.54,2638.18 3269.98,2643.25 C3264.41,2648.32 3257.76,2650.86 3250.03,2650.86 C3243.35,2650.86 3237.55,2649.34 3232.64,2646.31 C3227.72,2643.28 3225.26,2639.08 3225.26,2633.7 C3225.26,2630.97 3226.25,2628.61 3228.23,2626.6 C3230.21,2624.59 3232.57,2623.58 3235.33,2623.58 C3238.08,2623.58 3240.41,2624.57 3242.33,2626.55 C3244.25,2628.53 3245.21,2630.91 3245.21,2633.7 C3245.21,2634.93 3244.19,2636.28 3242.14,2637.73 C3240.1,2639.19 3239.08,2640.53 3239.08,2641.77 C3239.08,2645.48 3242.73,2647.33 3250.03,2647.33 C3257.14,2647.33 3260.7,2639.94 3260.7,2625.16 C3260.7,2621.88 3260.51,2619.01 3260.14,2616.53 C3252.66,2618.08 3243.29,2619.29 3232.03,2620.15 C3230.49,2620.27 3229.71,2619.5 3229.71,2617.83 C3229.71,2616.47 3230.49,2615.73 3232.03,2615.61 C3243.41,2614.68 3252.38,2613.19 3258.94,2611.15 C3257.2,2606.2 3254.24,2603.7 3250.03,2603.64 C3243.66,2603.64 3239.21,2604.94 3236.67,2607.53 C3234.14,2610.13 3232.56,2611.43 3231.94,2611.43 C3230.46,2611.43 3229.71,2610.66 3229.71,2609.11 L3229.71,2577.2 C3229.71,2576.58 3229.93,2576.02 3230.36,2575.53 C3230.86,2575.03 3231.38,2574.79 3231.94,2574.79"/>
<path class="FiguredBass" d="M695.763,1797.3 C695.763,1798.29 696.32,1799.25 697.433,1800.18 C698.546,1801.1 699.768,1801.98 701.097,1802.82 C702.427,1803.65 703.649,1805.23 704.762,1807.55 C705.875,1809.87 706.432,1812.79 706.432,1816.32 C706.432,1823.12 703.865,1828.38 698.732,1832.09 C693.598,1835.8 687.104,1837.66 679.249,1837.66 C672.941,1837.66 667.452,1836.08 662.782,1832.92 C658.112,1829.77 655.778,1825.63 655.778,1820.49 C655.778,1817.77 656.767,1815.41 658.746,1813.4 C660.725,1811.39 663.091,1810.38 665.843,1810.38 C668.596,1810.38 670.931,1811.37 672.848,1813.35 C674.765,1815.33 675.724,1817.71 675.724,1820.49 C675.724,1821.73 674.703,1823.08 672.662,1824.53 C670.621,1825.98 669.601,1827.33 669.601,1828.56 C669.601,1830.48 670.544,1831.89 672.43,1832.79 C674.317,1833.68 676.59,1834.13 679.249,1834.13 C682.713,1834.13 685.171,1832.41 686.625,1828.98 C688.078,1825.55 688.805,1821.33 688.805,1816.32 L688.805,1813.91 C688.805,1810.57 688.697,1808.03 688.48,1806.3 C688.264,1804.57 687.583,1803.02 686.439,1801.66 C685.295,1800.3 683.548,1799.62 681.197,1799.62 L669.044,1799.62 C667.622,1799.62 666.91,1798.85 666.91,1797.3 C666.91,1795.88 667.622,1795.17 669.044,1795.17 L681.197,1795.17 C683.733,1795.17 685.712,1794.21 687.135,1792.29 C687.63,1791.61 688.032,1790.5 688.341,1788.95 C688.65,1786.91 688.805,1783.97 688.805,1780.14 L688.805,1778.93 C688.805,1769.72 685.403,1765.11 678.6,1765.11 C672.6,1765.11 669.601,1766.78 669.601,1770.12 C669.601,1771.23 670.513,1772.42 672.338,1773.69 C674.162,1774.96 675.074,1776.15 675.074,1777.26 C675.074,1779.67 674.224,1781.74 672.523,1783.48 C670.822,1785.21 668.75,1786.07 666.307,1786.07 C663.864,1786.07 661.808,1785.21 660.138,1783.48 C658.468,1781.74 657.633,1779.67 657.633,1777.26 C657.633,1772.5 659.705,1768.69 663.849,1765.85 C667.993,1763 672.91,1761.58 678.6,1761.58 C686.084,1761.58 692.237,1763.02 697.062,1765.9 C701.886,1768.77 704.298,1773.12 704.298,1778.93 C704.298,1783.07 703.865,1786.29 702.999,1788.58 C702.133,1790.87 701.144,1792.26 700.03,1792.75 C698.917,1793.25 697.928,1793.82 697.062,1794.47 C696.196,1795.12 695.763,1796.06 695.763,1797.3"/>
<path class="FiguredBass" d="M683.888,1870.86 C679.311,1870.86 676.265,1872.7 674.75,1876.38 C673.234,1880.06 672.477,1885.27 672.477,1892.01 L672.477,1902.96 C675.693,1901.66 678.476,1900.98 680.826,1900.92 C688.867,1900.92 695.191,1902.69 699.799,1906.25 C704.406,1909.81 706.71,1915.09 706.71,1922.11 C706.71,1929.13 704.375,1934.44 699.706,1938.03 C695.036,1941.61 688.743,1943.41 680.826,1943.41 C672.724,1943.41 666.385,1939.65 661.808,1932.13 C657.231,1924.62 654.943,1915.7 654.943,1905.37 C654.943,1895.1 657.602,1886.2 662.921,1878.65 C668.24,1871.1 675.229,1867.33 683.888,1867.33 C689.578,1867.33 694.495,1868.77 698.639,1871.65 C702.783,1874.52 704.855,1878.31 704.855,1883.01 C704.855,1885.73 703.865,1888.08 701.886,1890.06 C699.907,1892.04 697.541,1893.03 694.789,1893.03 C692.036,1893.03 689.671,1892.04 687.692,1890.06 C685.712,1888.08 684.723,1885.73 684.723,1883.01 C684.723,1880.35 685.712,1878 687.692,1875.96 C688.372,1875.16 689.331,1874.48 690.568,1873.92 C690.258,1873.11 689.64,1872.5 688.712,1872.06 C687.351,1871.26 685.743,1870.86 683.888,1870.86 M688.434,1908.8 C687.32,1905.89 684.877,1904.44 681.105,1904.44 C677.332,1904.44 674.997,1905.89 674.1,1908.8 C673.203,1911.71 672.755,1916.13 672.755,1922.07 C672.755,1929.06 673.203,1933.76 674.1,1936.17 C674.997,1938.58 677.332,1939.79 681.105,1939.79 C684.877,1939.79 687.32,1938.33 688.434,1935.43 C689.547,1932.52 690.104,1928.08 690.104,1922.11 C690.104,1916.15 689.547,1911.71 688.434,1908.8"/>
<path class="FiguredBass" d="M683.238,1975.03 C685.589,1975.03 688.063,1974.69 690.66,1974.01 L694.835,1972.9 C695.639,1972.9 696.273,1973.21 696.737,1973.82 C697.201,1974.44 697.154,1975 696.598,1975.49 L653.458,2025.68 L678.785,2025.68 L678.785,2005.83 C678.785,2004.41 679.172,2003.31 679.945,2002.54 C680.718,2001.76 681.708,2001.15 682.914,2000.68 C684.12,2000.22 685.697,1998.84 687.645,1996.55 C689.593,1994.27 691.464,1991.17 693.258,1987.28 C693.567,1986.66 694.031,1986.35 694.65,1986.35 C695.948,1986.35 696.598,1987.06 696.598,1988.48 L696.598,2025.68 L707.545,2025.68 C709.091,2025.68 709.864,2026.4 709.864,2027.82 C709.864,2029.36 709.091,2030.14 707.545,2030.14 L696.598,2030.14 L696.598,2031.34 C696.598,2035.18 697.618,2038.52 699.659,2041.36 C701.7,2044.21 704.329,2045.63 707.545,2045.63 C708.782,2045.63 709.401,2046.19 709.401,2047.3 C709.401,2048.54 708.782,2049.16 707.545,2049.16 C705.319,2049.16 702.01,2048.83 697.618,2048.18 C693.227,2047.53 689.903,2047.21 687.645,2047.21 C685.388,2047.21 682.063,2047.53 677.672,2048.18 C673.281,2048.83 669.972,2049.16 667.745,2049.16 C666.508,2049.16 665.89,2048.54 665.89,2047.3 C665.89,2046.19 666.508,2045.63 667.745,2045.63 C670.961,2045.63 673.605,2044.21 675.677,2041.36 C677.749,2038.52 678.785,2035.18 678.785,2031.34 L678.785,2030.14 L653.458,2030.14 C651.85,2030.14 650.66,2029.75 649.886,2028.98 C649.113,2028.2 648.727,2027.42 648.727,2026.61 C648.727,2026.3 649.453,2025.24 650.907,2023.41 C652.36,2021.59 654.139,2019.16 656.241,2016.13 C658.344,2013.1 660.432,2009.65 662.504,2005.78 C664.576,2001.92 666.338,1997.28 667.792,1991.87 C669.245,1986.46 669.972,1981 669.972,1975.49 C669.972,1973.89 670.652,1973.08 672.013,1973.08 C672.198,1973.08 672.848,1973.24 673.961,1973.55 C675.074,1973.86 676.497,1974.18 678.229,1974.52 C679.96,1974.86 681.63,1975.03 683.238,1975.03"/>
<path class="FiguredBass" d="M2712.27,1837.66 C2706.27,1837.66 2701.91,1835.99 2699.19,1832.65 C2698.2,1831.41 2696.94,1830.27 2695.39,1829.21 C2693.84,1828.16 2692.14,1827.64 2690.29,1827.64 C2687.87,1827.64 2685.71,1828.39 2683.79,1829.91 C2681.87,1831.42 2680.92,1833.45 2680.92,1835.99 C2680.92,1837.1 2680.36,1837.66 2679.25,1837.66 C2678.01,1837.66 2677.39,1837.1 2677.39,1835.99 C2677.39,1832.21 2678.27,1828.77 2680.03,1825.64 C2681.8,1822.52 2684.01,1819.89 2686.67,1817.76 C2689.33,1815.62 2692.2,1813.33 2695.3,1810.89 C2698.39,1808.45 2701.25,1806.08 2703.88,1803.79 C2706.51,1801.51 2708.7,1798.61 2710.46,1795.12 C2712.23,1791.63 2713.11,1787.81 2713.11,1783.66 C2713.11,1778.47 2712.26,1774.08 2710.56,1770.49 C2708.86,1766.9 2706.18,1765.11 2702.53,1765.11 C2700.43,1765.11 2698.6,1765.62 2697.06,1766.64 C2695.51,1767.66 2694.74,1769 2694.74,1770.67 C2694.74,1771.97 2695.62,1773.67 2697.38,1775.78 C2699.15,1777.88 2700.03,1779.64 2700.03,1781.06 C2700.03,1784.03 2699.02,1786.52 2697.01,1788.53 C2695,1790.54 2692.57,1791.55 2689.73,1791.55 C2686.76,1791.55 2684.27,1790.51 2682.26,1788.44 C2680.25,1786.37 2679.25,1783.91 2679.25,1781.06 C2679.25,1775.37 2681.52,1770.7 2686.07,1767.06 C2690.61,1763.41 2696.1,1761.58 2702.53,1761.58 C2710.14,1761.58 2716.77,1763.64 2722.43,1767.75 C2728.09,1771.86 2730.92,1777.17 2730.92,1783.66 C2730.92,1788.05 2730.13,1791.86 2728.56,1795.07 C2726.98,1798.29 2724.72,1800.89 2721.78,1802.87 C2718.84,1804.85 2715.91,1806.53 2712.97,1807.92 C2710.03,1809.31 2706.58,1810.81 2702.63,1812.42 C2698.67,1814.03 2695.48,1815.61 2693.07,1817.15 C2694.37,1816.84 2695.7,1816.69 2697.06,1816.69 C2701.64,1816.69 2706.4,1818.17 2711.35,1821.14 C2716.29,1824.11 2720.19,1825.6 2723.04,1825.6 C2724.64,1825.6 2725.96,1825.3 2726.98,1824.71 C2728,1824.13 2728.66,1823.48 2728.97,1822.77 C2729.28,1822.05 2729.64,1821.39 2730.04,1820.77 C2730.44,1820.15 2730.89,1819.84 2731.38,1819.84 C2732.62,1819.84 2733.24,1820.46 2733.24,1821.7 C2733.24,1824.36 2731.32,1827.68 2727.49,1831.67 C2723.65,1835.66 2718.58,1837.66 2712.27,1837.66"/>
<path class="FiguredBass" d="M2708.1,1870.86 C2703.52,1870.86 2700.48,1872.7 2698.96,1876.38 C2697.45,1880.06 2696.69,1885.27 2696.69,1892.01 L2696.69,1902.96 C2699.9,1901.66 2702.69,1900.98 2705.04,1900.92 C2713.08,1900.92 2719.4,1902.69 2724.01,1906.25 C2728.62,1909.81 2730.92,1915.09 2730.92,1922.11 C2730.92,1929.13 2728.59,1934.44 2723.92,1938.03 C2719.25,1941.61 2712.95,1943.41 2705.04,1943.41 C2696.94,1943.41 2690.6,1939.65 2686.02,1932.13 C2681.44,1924.62 2679.15,1915.7 2679.15,1905.37 C2679.15,1895.1 2681.81,1886.2 2687.13,1878.65 C2692.45,1871.1 2699.44,1867.33 2708.1,1867.33 C2713.79,1867.33 2718.71,1868.77 2722.85,1871.65 C2726.99,1874.52 2729.07,1878.31 2729.07,1883.01 C2729.07,1885.73 2728.08,1888.08 2726.1,1890.06 C2724.12,1892.04 2721.75,1893.03 2719,1893.03 C2716.25,1893.03 2713.88,1892.04 2711.9,1890.06 C2709.92,1888.08 2708.93,1885.73 2708.93,1883.01 C2708.93,1880.35 2709.92,1878 2711.9,1875.96 C2712.58,1875.16 2713.54,1874.48 2714.78,1873.92 C2714.47,1873.11 2713.85,1872.5 2712.92,1872.06 C2711.56,1871.26 2709.95,1870.86 2708.1,1870.86 M2712.64,1908.8 C2711.53,1905.89 2709.09,1904.44 2705.32,1904.44 C2701.54,1904.44 2699.21,1905.89 2698.31,1908.8 C2697.41,1911.71 2696.97,1916.13 2696.97,1922.07 C2696.97,1929.06 2697.41,1933.76 2698.31,1936.17 C2699.21,1938.58 2701.54,1939.79 2705.32,1939.79 C2709.09,1939.79 2711.53,1938.33 2712.64,1935.43 C2713.76,1932.52 2714.31,1928.08 2714.31,1922.11 C2714.31,1916.15 2713.76,1911.71 2712.64,1908.8"/>
<path class="FiguredBass" d="M2707.45,1975.03 C2709.8,1975.03 2712.27,1974.69 2714.87,1974.01 L2719.05,1972.9 C2719.85,1972.9 2720.48,1973.21 2720.95,1973.82 C2721.41,1974.44 2721.37,1975 2720.81,1975.49 L2677.67,2025.68 L2703,2025.68 L2703,2005.83 C2703,2004.41 2703.38,2003.31 2704.16,2002.54 C2704.93,2001.76 2705.92,2001.15 2707.12,2000.68 C2708.33,2000.22 2709.91,1998.84 2711.86,1996.55 C2713.8,1994.27 2715.68,1991.17 2717.47,1987.28 C2717.78,1986.66 2718.24,1986.35 2718.86,1986.35 C2720.16,1986.35 2720.81,1987.06 2720.81,1988.48 L2720.81,2025.68 L2731.76,2025.68 C2733.3,2025.68 2734.08,2026.4 2734.08,2027.82 C2734.08,2029.36 2733.3,2030.14 2731.76,2030.14 L2720.81,2030.14 L2720.81,2031.34 C2720.81,2035.18 2721.83,2038.52 2723.87,2041.36 C2725.91,2044.21 2728.54,2045.63 2731.76,2045.63 C2732.99,2045.63 2733.61,2046.19 2733.61,2047.3 C2733.61,2048.54 2732.99,2049.16 2731.76,2049.16 C2729.53,2049.16 2726.22,2048.83 2721.83,2048.18 C2717.44,2047.53 2714.11,2047.21 2711.86,2047.21 C2709.6,2047.21 2706.27,2047.53 2701.88,2048.18 C2697.49,2048.83 2694.18,2049.16 2691.96,2049.16 C2690.72,2049.16 2690.1,2048.54 2690.1,2047.3 C2690.1,2046.19 2690.72,2045.63 2691.96,2045.63 C2695.17,2045.63 2697.82,2044.21 2699.89,2041.36 C2701.96,2038.52 2703,2035.18 2703,2031.34 L2703,2030.14 L2677.67,2030.14 C2676.06,2030.14 2674.87,2029.75 2674.1,2028.98 C2673.32,2028.2 2672.94,2027.42 2672.94,2026.61 C2672.94,2026.3 2673.66,2025.24 2675.12,2023.41 C2676.57,2021.59 2678.35,2019.16 2680.45,2016.13 C2682.56,2013.1 2684.64,2009.65 2686.71,2005.78 C2688.79,2001.92 2690.55,1997.28 2692,1991.87 C2693.46,1986.46 2694.18,1981 2694.18,1975.49 C2694.18,1973.89 2694.86,1973.08 2696.22,1973.08 C2696.41,1973.08 2697.06,1973.24 2698.17,1973.55 C2699.29,1973.86 2700.71,1974.18 2702.44,1974.52 C2704.17,1974.86 2705.84,1975.03 2707.45,1975.03"/>
<polyline class="FretDiagram" stroke="#0000ff" stroke-width="4.76" stroke-linejoin="bevel" points="580.269,227.452 793.377,227.452"/>
<polyline class="FretDiagram" stroke="#0000ff" stroke-width="4.76" stroke-linejoin="bevel" points="582.65,215.547 582.65,441.751"/>
<polyline class="FretDiagram" stroke="#0000ff" stroke-width="4.76" stroke-linejoin="bevel" points="624.319,215.547 624.319,441.751"/>
<polyline class="FretDiagram" stroke="#0000ff" stroke-width="4.76" stroke-linejoin="bevel" points="665.988,215.547 665.988,441.751"/>
<polyline class="FretDiagram" stroke="#0000ff" stroke-width="4.76" stroke-linejoin="bevel" points="707.658,215.547 707.658,441.751"/>
<polyline class="FretDiagram" stroke="#0000ff" stroke-width="4.76" stroke-linejoin="bevel" points="749.327,215.547 749.327,441.751"/>
<polyline class="FretDiagram" stroke="#0000ff" stroke-width="4.76" stroke-linejoin="bevel" points="790.996,215.547 790.996,441.751"/>
<polyline class="FretDiagram" stroke="#0000ff" stroke-width="4.76" stroke-linejoin="bevel" points="582.65,275.074 790.996,275.074"/>
<polyline class="FretDiagram" stroke="#0000ff" stroke-width="4.76" stroke-linejoin="bevel" points="582.65,322.696 790.996,322.696"/>
<polyline class="FretDiagram" stroke="#0000ff" stroke-width="4.76" stroke-linejoin="bevel" points="582.65,370.318 790.996,370.318"/>
<polyline class="FretDiagram" stroke="#0000ff" stroke-width="4.76" stroke-linejoin="bevel" points="582.65,417.94 790.996,417.94"/>
<path class="FretDiagram" fill="#0000ff" fill-rule="evenodd" d="M597.234,298.885 C597.234,306.94 590.704,313.469 582.65,313.469 C574.595,313.469 568.065,306.94 568.065,298.885 C568.065,290.83 574.595,284.301 582.65,284.301 C590.704,284.301 597.234,290.83 597.234,298.885"/>
<path class="FretDiagram" fill="#0000ff" fill-rule="evenodd" d="M722.242,394.129 C722.242,402.184 715.712,408.713 707.658,408.713 C699.603,408.713 693.073,402.184 693.073,394.129 C693.073,386.075 699.603,379.545 707.658,379.545 C715.712,379.545 722.242,386.075 722.242,394.129"/>
<polyline class="FretDiagram" fill="none" stroke="#0000ff" stroke-width="6.86" stroke-linecap="round" stroke-linejoin="bevel" points="607.651,163.162 640.987,196.498"/>
<polyline class="FretDiagram" fill="none" stroke="#0000ff" stroke-width="6.86" stroke-linecap="round" stroke-linejoin="bevel" points="607.651,196.498 640.987,163.162"/>
<path class="FretDiagram" fill="none" stroke="#0000ff" stroke-width="6.86" stroke-linecap="round" stroke-linejoin="bevel" fill-rule="evenodd" d="M682.656,179.83 C682.656,189.035 675.194,196.498 665.988,196.498 C656.783,196.498 649.321,189.035 649.321,179.83 C649.321,170.625 656.783,163.162 665.988,163.162 C675.194,163.162 682.656,170.625 682.656,179.83"/>
<path class="FretDiagram" fill="none" stroke="#0000ff" stroke-width="6.86" stroke-linecap="round" stroke-linejoin="bevel" fill-rule="evenodd" d="M765.995,179.83 C765.995,189.035 758.532,196.498 749.327,196.498 C740.122,196.498 732.659,189.035 732.659,179.83 C732.659,170.625 740.122,163.162 749.327,163.162 C758.532,163.162 765.995,170.625 765.995,179.83"/>
<polyline class="FretDiagram" fill="none" stroke="#0000ff" stroke-width="6.86" stroke-linecap="round" stroke-linejoin="bevel" points="774.328,163.162 807.664,196.498"/>
<polyline class="FretDiagram" fill="none" stroke="#0000ff" stroke-width="6.86" stroke-linecap="round" stroke-linejoin="bevel" points="774.328,196.498 807.664,163.162"/>
<polyline class="FretDiagram" fill="none" stroke="#0000ff" stroke-width="29.17" stroke-linecap="round" stroke-linejoin="bevel" points="582.65,251.263 790.996,251.263"/>
<path class="FretDiagram" fill="#0000ff" d="M517.931,240.53 C518.374,224.95 525.784,217.16 540.161,217.16 C546.558,217.16 551.751,218.996 555.741,222.67 C559.731,226.343 561.726,231.093 561.726,236.92 C561.726,245.28 556.976,252.056 547.476,257.25 L537.976,262.38 C533.859,264.596 530.914,266.75 529.141,268.84 C527.368,270.93 526.259,273.4 525.816,276.25 L561.251,276.25 L561.251,284.515 L516.411,284.515 C516.791,277.105 518.279,271.389 520.876,267.367 C523.473,263.345 528.286,259.34 535.316,255.35 L544.056,250.41 C550.136,246.926 553.176,242.493 553.176,237.11 C553.176,233.5 551.909,230.491 549.376,228.085 C546.843,225.678 543.676,224.475 539.876,224.475 C531.453,224.475 526.924,229.826 526.291,240.53 L517.931,240.53 "/>
<polyline class="FretDiagram" fill="#0000ff" stroke="#0000ff" stroke-width="4.76" stroke-linejoin="bevel" points="2604.48,227.452 2817.59,227.452"/>
<polyline class="FretDiagram" fill="#0000ff" stroke="#0000ff" stroke-width="4.76" stroke-linejoin="bevel" points="2606.86,215.547 2606.86,441.751"/>
<polyline class="FretDiagram" fill="#0000ff" stroke="#0000ff" stroke-width="4.76" stroke-linejoin="bevel" points="2648.53,215.547 2648.53,441.751"/>
<polyline class="FretDiagram" fill="#0000ff" stroke="#0000ff" stroke-width="4.76" stroke-linejoin="bevel" points="2690.2,215.547 2690.2,441.751"/>
<polyline class="FretDiagram" fill="#0000ff" stroke="#0000ff" stroke-width="4.76" stroke-linejoin="bevel" points="2731.87,215.547 2731.87,441.751"/>
<polyline class="FretDiagram" fill="#0000ff" stroke="#0000ff" stroke-width="4.76" stroke-linejoin="bevel" points="2773.54,215.547 2773.54,441.751"/>
<polyline class="FretDiagram" fill="#0000ff" stroke="#0000ff" stroke-width="4.76" stroke-linejoin="bevel" points="2815.21,215.547 2815.21,441.751"/>
<polyline class="FretDiagram" fill="#0000ff" stroke="#0000ff" stroke-width="4.76" stroke-linejoin="bevel" points="2606.86,275.074 2815.21,275.074"/>
<polyline class="FretDiagram" fill="#0000ff" stroke="#0000ff" stroke-width="4.76" stroke-linejoin="bevel" points="2606.86,322.696 2815.21,322.696"/>
<polyline class="FretDiagram" fill="#0000ff" stroke="#0000ff" stroke-width="4.76" stroke-linejoin="bevel" points="2606.86,370.318 2815.21,370.318"/>
<polyline class="FretDiagram" fill="#0000ff" stroke="#0000ff" stroke-width="4.76" stroke-linejoin="bevel" points="2606.86,417.94 2815.21,417.94"/>
<path class="FretDiagram" fill="#0000ff" fill-rule="evenodd" d="M2621.44,346.507 C2621.44,354.562 2614.92,361.091 2606.86,361.091 C2598.81,361.091 2592.28,354.562 2592.28,346.507 C2592.28,338.453 2598.81,331.923 2606.86,331.923 C2614.92,331.923 2621.44,338.453 2621.44,346.507"/>
<path class="FretDiagram" fill="#0000ff" fill-rule="evenodd" d="M2746.45,346.507 C2746.45,354.562 2739.92,361.091 2731.87,361.091 C2723.81,361.091 2717.28,354.562 2717.28,346.507 C2717.28,338.453 2723.81,331.923 2731.87,331.923 C2739.92,331.923 2746.45,338.453 2746.45,346.507"/>
<polyline class="FretDiagram" fill="none" stroke="#0000ff" stroke-width="6.86" stroke-linecap="round" stroke-linejoin="bevel" points="2631.86,163.162 2665.2,196.498"/>
<polyline class="FretDiagram" fill="none" stroke="#0000ff" stroke-width="6.86" stroke-linecap="round" stroke-linejoin="bevel" points="2631.86,196.498 2665.2,163.162"/>
<path class="FretDiagram" fill="none" stroke="#0000ff" stroke-width="6.86" stroke-linecap="round" stroke-linejoin="bevel" fill-rule="evenodd" d="M2706.87,179.83 C2706.87,189.035 2699.4,196.498 2690.2,196.498 C2680.99,196.498 2673.53,189.035 2673.53,179.83 C2673.53,170.625 2680.99,163.162 2690.2,163.162 C2699.4,163.162 2706.87,170.625 2706.87,179.83"/>
<path class="FretDiagram" fill="none" stroke="#0000ff" stroke-width="6.86" stroke-linecap="round" stroke-linejoin="bevel" fill-rule="evenodd" d="M2790.21,179.83 C2790.21,189.035 2782.74,196.498 2773.54,196.498 C2764.33,196.498 2756.87,189.035 2756.87,179.83 C2756.87,170.625 2764.33,163.162 2773.54,163.162 C2782.74,163.162 2790.21,170.625 2790.21,179.83"/>
<polyline class="FretDiagram" fill="none" stroke="#0000ff" stroke-width="6.86" stroke-linecap="round" stroke-linejoin="bevel" points="2798.54,163.162 2831.87,196.498"/>
<polyline class="FretDiagram" fill="none" stroke="#0000ff" stroke-width="6.86" stroke-linecap="round" stroke-linejoin="bevel" points="2798.54,196.498 2831.87,163.162"/>
<polyline class="FretDiagram" fill="none" stroke="#0000ff" stroke-width="29.17" stroke-linecap="round" stroke-linejoin="bevel" points="2690.2,251.263 2815.21,251.263"/>
<path class="FretDiagram" fill="#0000ff" d="M2582.61,217.16 L2582.61,225.425 L2554.59,225.425 L2551.93,244.235 C2555.66,241.511 2559.81,240.15 2564.37,240.15 C2570.83,240.15 2576.07,242.224 2580.09,246.372 C2584.12,250.52 2586.13,255.92 2586.13,262.57 C2586.13,269.663 2583.97,275.458 2579.67,279.955 C2575.36,284.451 2569.82,286.7 2563.04,286.7 C2560.45,286.7 2558.05,286.415 2555.87,285.845 C2553.68,285.275 2551.88,284.594 2550.45,283.802 C2549.03,283.01 2547.73,281.965 2546.56,280.667 C2545.39,279.369 2544.5,278.229 2543.9,277.247 C2543.3,276.265 2542.73,275.03 2542.19,273.542 C2541.65,272.054 2541.32,271.025 2541.19,270.455 C2541.07,269.885 2540.91,269.061 2540.72,267.985 L2549.08,267.985 C2551.04,275.521 2555.63,279.29 2562.85,279.29 C2567.41,279.29 2571.01,277.896 2573.63,275.11 C2576.26,272.323 2577.58,268.523 2577.58,263.71 C2577.58,258.706 2576.25,254.764 2573.59,251.882 C2570.93,249 2567.35,247.56 2562.85,247.56 C2560.26,247.56 2558.04,248.019 2556.2,248.937 C2554.37,249.855 2552.47,251.486 2550.5,253.83 L2542.81,253.83 L2547.84,217.16 L2582.61,217.16 "/>
<path class="Bracket" transform="matrix(8.6315,0,0,9.45563,76.1283,2337.37)" d="M0.92002,-50 C2.69004,-51.88 6.2,-55.8 6.2,-63 C6.2,-72.1 2.25996,-81.32 2.25996,-86.97 C2.25996,-93.06 5.84004,-98.84 5.95,-99 C6.05996,-99.16 6.05,-99.39 5.94004,-99.46 C5.82998,-99.53 5.62002,-99.47 5.49004,-99.32 C5.35996,-99.17 0,-93.75 0,-85.6 C0,-76.75 3.5,-70.58 3.5,-59.07 C3.5,-56.89 2.55996,-53.36 0.1,-50.33 C-0.0799805,-50.17 -0.1,-49.89 0.0599609,-49.7 L0.0700195,-49.69 L0.1,-49.66 C2.55996,-46.63 3.5,-43.1 3.5,-40.92 C3.5,-29.4 0,-23.24 0,-14.39 C0,-6.25 5.35996,-0.8 5.49004,-0.659961 C5.62002,-0.52002 5.8,-0.42998 5.94004,-0.52002 C6.07998,-0.609961 6.07998,-0.77998 5.95,-0.97998 C5.82002,-1.17998 2.25996,-6.92002 2.25996,-13.01 C2.25996,-18.66 6.2,-27.9 6.2,-37 C6.2,-44.3 2.69004,-48.12 0.92002,-50"/>
</svg>
