<?xml version="1.0" encoding="UTF-8" standalone="no"?>
<svg width="4209.44px" height="2976.38px" viewBox="0 0 4209.44 2976.38"
 xmlns="http://www.w3.org/2000/svg" xmlns:xlink="http://www.w3.org/1999/xlink" version="1.2" baseProfile="tiny">
<title>MiMineur (1)</title>
<desc>Generated by MuseScore 3.6.2</desc>
<polyline class="StaffLines" fill="none" stroke="#000000" stroke-width="6.55" stroke-linejoin="bevel" points="153.819,574.87 4138.58,574.87"/>
<polyline class="StaffLines" fill="none" stroke="#000000" stroke-width="6.55" stroke-linejoin="bevel" points="153.819,664.161 4138.58,664.161"/>
<polyline class="StaffLines" fill="none" stroke="#000000" stroke-width="6.55" stroke-linejoin="bevel" points="153.819,753.452 4138.58,753.452"/>
<polyline class="StaffLines" fill="none" stroke="#000000" stroke-width="6.55" stroke-linejoin="bevel" points="153.819,842.744 4138.58,842.744"/>
<polyline class="StaffLines" fill="none" stroke="#000000" stroke-width="6.55" stroke-linejoin="bevel" points="153.819,932.035 4138.58,932.035"/>
<polyline class="StaffLines" fill="none" stroke="#000000" stroke-width="6.55" stroke-linejoin="bevel" points="153.819,1021.33 4138.58,1021.33"/>
<polyline class="StaffLines" fill="none" stroke="#000000" stroke-width="6.55" stroke-linejoin="bevel" points="153.819,1408.26 4138.58,1408.26"/>
<polyline class="StaffLines" fill="none" stroke="#000000" stroke-width="6.55" stroke-linejoin="bevel" points="153.819,1467.78 4138.58,1467.78"/>
<polyline class="StaffLines" fill="none" stroke="#000000" stroke-width="6.55" stroke-linejoin="bevel" points="153.819,1527.31 4138.58,1527.31"/>
<polyline class="StaffLines" fill="none" stroke="#000000" stroke-width="6.55" stroke-linejoin="bevel" points="153.819,1586.84 4138.58,1586.84"/>
<polyline class="StaffLines" fill="none" stroke="#000000" stroke-width="6.55" stroke-linejoin="bevel" points="153.819,1646.37 4138.58,1646.37"/>
<polyline class="StaffLines" fill="none" stroke="#000000" stroke-width="6.55" stroke-linejoin="bevel" points="153.819,2263.86 4138.58,2263.86"/>
<polyline class="StaffLines" fill="none" stroke="#000000" stroke-width="6.55" stroke-linejoin="bevel" points="153.819,2323.39 4138.58,2323.39"/>
<polyline class="StaffLines" fill="none" stroke="#000000" stroke-width="6.55" stroke-linejoin="bevel" points="153.819,2382.91 4138.58,2382.91"/>
<polyline class="StaffLines" fill="none" stroke="#000000" stroke-width="6.55" stroke-linejoin="bevel" points="153.819,2442.44 4138.58,2442.44"/>
<polyline class="StaffLines" fill="none" stroke="#000000" stroke-width="6.55" stroke-linejoin="bevel" points="153.819,2501.97 4138.58,2501.97"/>
<path class="Symbol" transform="matrix(2.3811,0,0,2.3811,621.584,515.342)" d="M0,-0.1 C0,7.7 4,14 10.4,18.1 L10.9,17.4 C7.5,14.8 6.3,13.3 5.2,10.1 C4.2,7.2 3.7,4 3.7,-0.2 C3.7,-8.1 4.8,-12.3 10.9,-17.4 L10.5,-18.1 C3.9,-13.6 0,-8.5 0,-0.1"/>
<path class="Symbol" transform="matrix(2.3811,0,0,2.3811,726.595,515.342)" d="M3.7,-0.2 C3.7,4 3.2,7.2 2.2,10.1 C1,13.3 -0.2,14.8 -3.6,17.4 L-3,18.1 C3.4,14.1 7.3,7.6 7.3,-0.1 C7.3,-8.4 3.4,-13.8 -3.2,-18.1 L-3.6,-17.4 C2.6,-12.4 3.7,-8.1 3.7,-0.2"/>
<polyline class="BarLine" fill="none" stroke="#000000" stroke-width="10.71" stroke-linejoin="bevel" points="159.176,2260.58 159.176,2505.24"/>
<polyline class="BarLine" fill="none" stroke="#000000" stroke-width="10.71" stroke-linejoin="bevel" points="1409.78,2260.58 1409.78,2505.24"/>
<polyline class="BarLine" fill="none" stroke="#000000" stroke-width="10.71" stroke-linejoin="bevel" points="1442.52,2260.58 1442.52,2505.24"/>
<polyline class="BarLine" fill="none" stroke="#000000" stroke-width="10.71" stroke-linejoin="bevel" points="2311.19,2260.58 2311.19,2505.24"/>
<polyline class="BarLine" fill="none" stroke="#000000" stroke-width="10.71" stroke-linejoin="bevel" points="2343.93,2260.58 2343.93,2505.24"/>
<polyline class="BarLine" fill="none" stroke="#000000" stroke-width="10.71" stroke-linejoin="bevel" points="3224.55,2260.58 3224.55,2505.24"/>
<polyline class="BarLine" fill="none" stroke="#000000" stroke-width="10.71" stroke-linejoin="bevel" points="4080.54,2260.58 4080.54,2505.24"/>
<polyline class="BarLine" fill="none" stroke="#000000" stroke-width="32.74" stroke-linejoin="bevel" points="4122.21,2260.58 4122.21,2505.24"/>
<polyline class="BarLine" fill="none" stroke="#000000" stroke-width="10.71" stroke-linejoin="bevel" points="159.176,1404.98 159.176,2263.86"/>
<polyline class="BarLine" fill="none" stroke="#000000" stroke-width="10.71" stroke-linejoin="bevel" points="1409.78,1404.98 1409.78,1649.64"/>
<polyline class="BarLine" fill="none" stroke="#000000" stroke-width="10.71" stroke-linejoin="bevel" points="1442.52,1404.98 1442.52,1649.64"/>
<polyline class="BarLine" fill="none" stroke="#000000" stroke-width="10.71" stroke-linejoin="bevel" points="2311.19,1404.98 2311.19,1649.64"/>
<polyline class="BarLine" fill="none" stroke="#000000" stroke-width="10.71" stroke-linejoin="bevel" points="2343.93,1404.98 2343.93,1649.64"/>
<polyline class="BarLine" fill="none" stroke="#000000" stroke-width="10.71" stroke-linejoin="bevel" points="3224.55,1404.98 3224.55,1649.64"/>
<polyline class="BarLine" fill="none" stroke="#000000" stroke-width="10.71" stroke-linejoin="bevel" points="4080.54,1404.98 4080.54,1649.64"/>
<polyline class="BarLine" fill="none" stroke="#000000" stroke-width="32.74" stroke-linejoin="bevel" points="4122.21,1404.98 4122.21,1649.64"/>
<polyline class="BarLine" fill="none" stroke="#000000" stroke-width="10.71" stroke-linejoin="bevel" points="159.176,571.596 159.176,1408.26"/>
<polyline class="BarLine" fill="none" stroke="#000000" stroke-width="10.71" stroke-linejoin="bevel" points="1409.78,571.596 1409.78,1024.6"/>
<polyline class="BarLine" fill="none" stroke="#000000" stroke-width="10.71" stroke-linejoin="bevel" points="1442.52,571.596 1442.52,1024.6"/>
<polyline class="BarLine" fill="none" stroke="#000000" stroke-width="10.71" stroke-linejoin="bevel" points="2311.19,571.596 2311.19,1024.6"/>
<polyline class="BarLine" fill="none" stroke="#000000" stroke-width="10.71" stroke-linejoin="bevel" points="2343.93,571.596 2343.93,1024.6"/>
<polyline class="BarLine" fill="none" stroke="#000000" stroke-width="10.71" stroke-linejoin="bevel" points="3224.55,571.596 3224.55,1024.6"/>
<polyline class="BarLine" fill="none" stroke="#000000" stroke-width="10.71" stroke-linejoin="bevel" points="4080.54,571.596 4080.54,1024.6"/>
<polyline class="BarLine" fill="none" stroke="#000000" stroke-width="32.74" stroke-linejoin="bevel" points="4122.21,571.596 4122.21,1024.6"/>
<polyline class="LedgerLine" fill="none" stroke="#000000" stroke-width="9.52" stroke-linejoin="bevel" points="2426.67,2204.33 2557.15,2204.33"/>
<polyline class="LedgerLine" fill="none" stroke="#000000" stroke-width="9.52" stroke-linejoin="bevel" points="2426.67,2144.8 2557.15,2144.8"/>
<path class="Note" transform="matrix(2.3811,0,0,2.3811,636.699,2353.15)" d="M18.7,-13.6 C4.9,-13.6 0,-6.6 0,-0.1 C0,6.4 4.9,13.4 18.7,13.4 C32.5,13.4 37.3,6.4 37.3,-0.1 C37.3,-6.6 32.5,-13.6 18.7,-13.6 M10.4,-4.5 C10.3,-4.9 10.3,-5.3 10.3,-5.7 C10.3,-6.5 10.5,-7.3 10.9,-8 C11.6,-9 12.8,-9.7 14.3,-10 C15.6,-10.3 16.3,-10.5 18.9,-10.5 L19,-10.5 C23,-10.5 24.3,-6.8 25.4,-3 L25.7,-2 C26.5,0.6 26.9,2.8 26.9,4.5 C26.9,5.7 26.7,6.8 26.3,7.6 C25.7,8.7 24.7,9.4 23,9.8 C22.1,10 20.6,10.1 20.6,10.1 C20.1,10.1 19.7,10.2 19.3,10.2 C16.1,10.2 14.1,9 12.7,4.7 C11.5,1 11.3,-0.1 10.4,-4.5"/>
<path class="Note" transform="matrix(2.3811,0,0,2.3811,1530.99,2353.15)" d="M18.7,-13.6 C4.9,-13.6 0,-6.6 0,-0.1 C0,6.4 4.9,13.4 18.7,13.4 C32.5,13.4 37.3,6.4 37.3,-0.1 C37.3,-6.6 32.5,-13.6 18.7,-13.6 M10.4,-4.5 C10.3,-4.9 10.3,-5.3 10.3,-5.7 C10.3,-6.5 10.5,-7.3 10.9,-8 C11.6,-9 12.8,-9.7 14.3,-10 C15.6,-10.3 16.3,-10.5 18.9,-10.5 L19,-10.5 C23,-10.5 24.3,-6.8 25.4,-3 L25.7,-2 C26.5,0.6 26.9,2.8 26.9,4.5 C26.9,5.7 26.7,6.8 26.3,7.6 C25.7,8.7 24.7,9.4 23,9.8 C22.1,10 20.6,10.1 20.6,10.1 C20.1,10.1 19.7,10.2 19.3,10.2 C16.1,10.2 14.1,9 12.7,4.7 C11.5,1 11.3,-0.1 10.4,-4.5"/>
<path class="Note" transform="matrix(2.3811,0,0,2.3811,2447.51,2144.8)" d="M18.7,-13.6 C4.9,-13.6 0,-6.6 0,-0.1 C0,6.4 4.9,13.4 18.7,13.4 C32.5,13.4 37.3,6.4 37.3,-0.1 C37.3,-6.6 32.5,-13.6 18.7,-13.6 M10.4,-4.5 C10.3,-4.9 10.3,-5.3 10.3,-5.7 C10.3,-6.5 10.5,-7.3 10.9,-8 C11.6,-9 12.8,-9.7 14.3,-10 C15.6,-10.3 16.3,-10.5 18.9,-10.5 L19,-10.5 C23,-10.5 24.3,-6.8 25.4,-3 L25.7,-2 C26.5,0.6 26.9,2.8 26.9,4.5 C26.9,5.7 26.7,6.8 26.3,7.6 C25.7,8.7 24.7,9.4 23,9.8 C22.1,10 20.6,10.1 20.6,10.1 C20.1,10.1 19.7,10.2 19.3,10.2 C16.1,10.2 14.1,9 12.7,4.7 C11.5,1 11.3,-0.1 10.4,-4.5"/>
<path class="Note" transform="matrix(2.3811,0,0,2.3811,3313.01,2353.15)" d="M18.7,-13.6 C4.9,-13.6 0,-6.6 0,-0.1 C0,6.4 4.9,13.4 18.7,13.4 C32.5,13.4 37.3,6.4 37.3,-0.1 C37.3,-6.6 32.5,-13.6 18.7,-13.6 M10.4,-4.5 C10.3,-4.9 10.3,-5.3 10.3,-5.7 C10.3,-6.5 10.5,-7.3 10.9,-8 C11.6,-9 12.8,-9.7 14.3,-10 C15.6,-10.3 16.3,-10.5 18.9,-10.5 L19,-10.5 C23,-10.5 24.3,-6.8 25.4,-3 L25.7,-2 C26.5,0.6 26.9,2.8 26.9,4.5 C26.9,5.7 26.7,6.8 26.3,7.6 C25.7,8.7 24.7,9.4 23,9.8 C22.1,10 20.6,10.1 20.6,10.1 C20.1,10.1 19.7,10.2 19.3,10.2 C16.1,10.2 14.1,9 12.7,4.7 C11.5,1 11.3,-0.1 10.4,-4.5"/>
<path class="Note" transform="matrix(2.3811,0,0,2.3811,636.699,1646.37)" d="M18.7,-13.6 C4.9,-13.6 0,-6.6 0,-0.1 C0,6.4 4.9,13.4 18.7,13.4 C32.5,13.4 37.3,6.4 37.3,-0.1 C37.3,-6.6 32.5,-13.6 18.7,-13.6 M10.4,-4.5 C10.3,-4.9 10.3,-5.3 10.3,-5.7 C10.3,-6.5 10.5,-7.3 10.9,-8 C11.6,-9 12.8,-9.7 14.3,-10 C15.6,-10.3 16.3,-10.5 18.9,-10.5 L19,-10.5 C23,-10.5 24.3,-6.8 25.4,-3 L25.7,-2 C26.5,0.6 26.9,2.8 26.9,4.5 C26.9,5.7 26.7,6.8 26.3,7.6 C25.7,8.7 24.7,9.4 23,9.8 C22.1,10 20.6,10.1 20.6,10.1 C20.1,10.1 19.7,10.2 19.3,10.2 C16.1,10.2 14.1,9 12.7,4.7 C11.5,1 11.3,-0.1 10.4,-4.5"/>
<path class="Note" transform="matrix(2.3811,0,0,2.3811,636.699,1586.84)" d="M18.7,-13.6 C4.9,-13.6 0,-6.6 0,-0.1 C0,6.4 4.9,13.4 18.7,13.4 C32.5,13.4 37.3,6.4 37.3,-0.1 C37.3,-6.6 32.5,-13.6 18.7,-13.6 M10.4,-4.5 C10.3,-4.9 10.3,-5.3 10.3,-5.7 C10.3,-6.5 10.5,-7.3 10.9,-8 C11.6,-9 12.8,-9.7 14.3,-10 C15.6,-10.3 16.3,-10.5 18.9,-10.5 L19,-10.5 C23,-10.5 24.3,-6.8 25.4,-3 L25.7,-2 C26.5,0.6 26.9,2.8 26.9,4.5 C26.9,5.7 26.7,6.8 26.3,7.6 C25.7,8.7 24.7,9.4 23,9.8 C22.1,10 20.6,10.1 20.6,10.1 C20.1,10.1 19.7,10.2 19.3,10.2 C16.1,10.2 14.1,9 12.7,4.7 C11.5,1 11.3,-0.1 10.4,-4.5"/>
<path class="Note" transform="matrix(2.3811,0,0,2.3811,636.699,1527.31)" d="M18.7,-13.6 C4.9,-13.6 0,-6.6 0,-0.1 C0,6.4 4.9,13.4 18.7,13.4 C32.5,13.4 37.3,6.4 37.3,-0.1 C37.3,-6.6 32.5,-13.6 18.7,-13.6 M10.4,-4.5 C10.3,-4.9 10.3,-5.3 10.3,-5.7 C10.3,-6.5 10.5,-7.3 10.9,-8 C11.6,-9 12.8,-9.7 14.3,-10 C15.6,-10.3 16.3,-10.5 18.9,-10.5 L19,-10.5 C23,-10.5 24.3,-6.8 25.4,-3 L25.7,-2 C26.5,0.6 26.9,2.8 26.9,4.5 C26.9,5.7 26.7,6.8 26.3,7.6 C25.7,8.7 24.7,9.4 23,9.8 C22.1,10 20.6,10.1 20.6,10.1 C20.1,10.1 19.7,10.2 19.3,10.2 C16.1,10.2 14.1,9 12.7,4.7 C11.5,1 11.3,-0.1 10.4,-4.5"/>
<path class="Note" transform="matrix(2.3811,0,0,2.3811,1530.99,1586.84)" d="M18.7,-13.6 C4.9,-13.6 0,-6.6 0,-0.1 C0,6.4 4.9,13.4 18.7,13.4 C32.5,13.4 37.3,6.4 37.3,-0.1 C37.3,-6.6 32.5,-13.6 18.7,-13.6 M10.4,-4.5 C10.3,-4.9 10.3,-5.3 10.3,-5.7 C10.3,-6.5 10.5,-7.3 10.9,-8 C11.6,-9 12.8,-9.7 14.3,-10 C15.6,-10.3 16.3,-10.5 18.9,-10.5 L19,-10.5 C23,-10.5 24.3,-6.8 25.4,-3 L25.7,-2 C26.5,0.6 26.9,2.8 26.9,4.5 C26.9,5.7 26.7,6.8 26.3,7.6 C25.7,8.7 24.7,9.4 23,9.8 C22.1,10 20.6,10.1 20.6,10.1 C20.1,10.1 19.7,10.2 19.3,10.2 C16.1,10.2 14.1,9 12.7,4.7 C11.5,1 11.3,-0.1 10.4,-4.5"/>
<path class="Note" transform="matrix(2.3811,0,0,2.3811,1530.99,1527.31)" d="M18.7,-13.6 C4.9,-13.6 0,-6.6 0,-0.1 C0,6.4 4.9,13.4 18.7,13.4 C32.5,13.4 37.3,6.4 37.3,-0.1 C37.3,-6.6 32.5,-13.6 18.7,-13.6 M10.4,-4.5 C10.3,-4.9 10.3,-5.3 10.3,-5.7 C10.3,-6.5 10.5,-7.3 10.9,-8 C11.6,-9 12.8,-9.7 14.3,-10 C15.6,-10.3 16.3,-10.5 18.9,-10.5 L19,-10.5 C23,-10.5 24.3,-6.8 25.4,-3 L25.7,-2 C26.5,0.6 26.9,2.8 26.9,4.5 C26.9,5.7 26.7,6.8 26.3,7.6 C25.7,8.7 24.7,9.4 23,9.8 C22.1,10 20.6,10.1 20.6,10.1 C20.1,10.1 19.7,10.2 19.3,10.2 C16.1,10.2 14.1,9 12.7,4.7 C11.5,1 11.3,-0.1 10.4,-4.5"/>
<path class="Note" transform="matrix(2.3811,0,0,2.3811,1530.99,1438.02)" d="M18.7,-13.6 C4.9,-13.6 0,-6.6 0,-0.1 C0,6.4 4.9,13.4 18.7,13.4 C32.5,13.4 37.3,6.4 37.3,-0.1 C37.3,-6.6 32.5,-13.6 18.7,-13.6 M10.4,-4.5 C10.3,-4.9 10.3,-5.3 10.3,-5.7 C10.3,-6.5 10.5,-7.3 10.9,-8 C11.6,-9 12.8,-9.7 14.3,-10 C15.6,-10.3 16.3,-10.5 18.9,-10.5 L19,-10.5 C23,-10.5 24.3,-6.8 25.4,-3 L25.7,-2 C26.5,0.6 26.9,2.8 26.9,4.5 C26.9,5.7 26.7,6.8 26.3,7.6 C25.7,8.7 24.7,9.4 23,9.8 C22.1,10 20.6,10.1 20.6,10.1 C20.1,10.1 19.7,10.2 19.3,10.2 C16.1,10.2 14.1,9 12.7,4.7 C11.5,1 11.3,-0.1 10.4,-4.5"/>
<path class="Note" transform="matrix(2.3811,0,0,2.3811,2447.51,1527.31)" d="M18.7,-13.6 C4.9,-13.6 0,-6.6 0,-0.1 C0,6.4 4.9,13.4 18.7,13.4 C32.5,13.4 37.3,6.4 37.3,-0.1 C37.3,-6.6 32.5,-13.6 18.7,-13.6 M10.4,-4.5 C10.3,-4.9 10.3,-5.3 10.3,-5.7 C10.3,-6.5 10.5,-7.3 10.9,-8 C11.6,-9 12.8,-9.7 14.3,-10 C15.6,-10.3 16.3,-10.5 18.9,-10.5 L19,-10.5 C23,-10.5 24.3,-6.8 25.4,-3 L25.7,-2 C26.5,0.6 26.9,2.8 26.9,4.5 C26.9,5.7 26.7,6.8 26.3,7.6 C25.7,8.7 24.7,9.4 23,9.8 C22.1,10 20.6,10.1 20.6,10.1 C20.1,10.1 19.7,10.2 19.3,10.2 C16.1,10.2 14.1,9 12.7,4.7 C11.5,1 11.3,-0.1 10.4,-4.5"/>
<path class="Note" transform="matrix(2.3811,0,0,2.3811,2447.51,1438.02)" d="M18.7,-13.6 C4.9,-13.6 0,-6.6 0,-0.1 C0,6.4 4.9,13.4 18.7,13.4 C32.5,13.4 37.3,6.4 37.3,-0.1 C37.3,-6.6 32.5,-13.6 18.7,-13.6 M10.4,-4.5 C10.3,-4.9 10.3,-5.3 10.3,-5.7 C10.3,-6.5 10.5,-7.3 10.9,-8 C11.6,-9 12.8,-9.7 14.3,-10 C15.6,-10.3 16.3,-10.5 18.9,-10.5 L19,-10.5 C23,-10.5 24.3,-6.8 25.4,-3 L25.7,-2 C26.5,0.6 26.9,2.8 26.9,4.5 C26.9,5.7 26.7,6.8 26.3,7.6 C25.7,8.7 24.7,9.4 23,9.8 C22.1,10 20.6,10.1 20.6,10.1 C20.1,10.1 19.7,10.2 19.3,10.2 C16.1,10.2 14.1,9 12.7,4.7 C11.5,1 11.3,-0.1 10.4,-4.5"/>
<path class="Note" transform="matrix(2.3811,0,0,2.3811,2447.51,1378.49)" d="M18.7,-13.6 C4.9,-13.6 0,-6.6 0,-0.1 C0,6.4 4.9,13.4 18.7,13.4 C32.5,13.4 37.3,6.4 37.3,-0.1 C37.3,-6.6 32.5,-13.6 18.7,-13.6 M10.4,-4.5 C10.3,-4.9 10.3,-5.3 10.3,-5.7 C10.3,-6.5 10.5,-7.3 10.9,-8 C11.6,-9 12.8,-9.7 14.3,-10 C15.6,-10.3 16.3,-10.5 18.9,-10.5 L19,-10.5 C23,-10.5 24.3,-6.8 25.4,-3 L25.7,-2 C26.5,0.6 26.9,2.8 26.9,4.5 C26.9,5.7 26.7,6.8 26.3,7.6 C25.7,8.7 24.7,9.4 23,9.8 C22.1,10 20.6,10.1 20.6,10.1 C20.1,10.1 19.7,10.2 19.3,10.2 C16.1,10.2 14.1,9 12.7,4.7 C11.5,1 11.3,-0.1 10.4,-4.5"/>
<path class="Note" transform="matrix(2.3811,0,0,2.3811,3313.01,1527.31)" d="M18.7,-13.6 C4.9,-13.6 0,-6.6 0,-0.1 C0,6.4 4.9,13.4 18.7,13.4 C32.5,13.4 37.3,6.4 37.3,-0.1 C37.3,-6.6 32.5,-13.6 18.7,-13.6 M10.4,-4.5 C10.3,-4.9 10.3,-5.3 10.3,-5.7 C10.3,-6.5 10.5,-7.3 10.9,-8 C11.6,-9 12.8,-9.7 14.3,-10 C15.6,-10.3 16.3,-10.5 18.9,-10.5 L19,-10.5 C23,-10.5 24.3,-6.8 25.4,-3 L25.7,-2 C26.5,0.6 26.9,2.8 26.9,4.5 C26.9,5.7 26.7,6.8 26.3,7.6 C25.7,8.7 24.7,9.4 23,9.8 C22.1,10 20.6,10.1 20.6,10.1 C20.1,10.1 19.7,10.2 19.3,10.2 C16.1,10.2 14.1,9 12.7,4.7 C11.5,1 11.3,-0.1 10.4,-4.5"/>
<path class="Note" transform="matrix(2.3811,0,0,2.3811,3313.01,1438.02)" d="M18.7,-13.6 C4.9,-13.6 0,-6.6 0,-0.1 C0,6.4 4.9,13.4 18.7,13.4 C32.5,13.4 37.3,6.4 37.3,-0.1 C37.3,-6.6 32.5,-13.6 18.7,-13.6 M10.4,-4.5 C10.3,-4.9 10.3,-5.3 10.3,-5.7 C10.3,-6.5 10.5,-7.3 10.9,-8 C11.6,-9 12.8,-9.7 14.3,-10 C15.6,-10.3 16.3,-10.5 18.9,-10.5 L19,-10.5 C23,-10.5 24.3,-6.8 25.4,-3 L25.7,-2 C26.5,0.6 26.9,2.8 26.9,4.5 C26.9,5.7 26.7,6.8 26.3,7.6 C25.7,8.7 24.7,9.4 23,9.8 C22.1,10 20.6,10.1 20.6,10.1 C20.1,10.1 19.7,10.2 19.3,10.2 C16.1,10.2 14.1,9 12.7,4.7 C11.5,1 11.3,-0.1 10.4,-4.5"/>
<path class="Note" transform="matrix(2.3811,0,0,2.3811,3313.01,1378.49)" d="M18.7,-13.6 C4.9,-13.6 0,-6.6 0,-0.1 C0,6.4 4.9,13.4 18.7,13.4 C32.5,13.4 37.3,6.4 37.3,-0.1 C37.3,-6.6 32.5,-13.6 18.7,-13.6 M10.4,-4.5 C10.3,-4.9 10.3,-5.3 10.3,-5.7 C10.3,-6.5 10.5,-7.3 10.9,-8 C11.6,-9 12.8,-9.7 14.3,-10 C15.6,-10.3 16.3,-10.5 18.9,-10.5 L19,-10.5 C23,-10.5 24.3,-6.8 25.4,-3 L25.7,-2 C26.5,0.6 26.9,2.8 26.9,4.5 C26.9,5.7 26.7,6.8 26.3,7.6 C25.7,8.7 24.7,9.4 23,9.8 C22.1,10 20.6,10.1 20.6,10.1 C20.1,10.1 19.7,10.2 19.3,10.2 C16.1,10.2 14.1,9 12.7,4.7 C11.5,1 11.3,-0.1 10.4,-4.5"/>
<path class="Note" d="M715.518,600.409 C720.089,600.409 722.375,603.276 722.375,609.009 C722.375,613.037 719.857,619.042 714.821,627.021 C710.792,633.452 708.778,639.727 708.778,645.848 C708.778,649.334 713.852,651.077 724.002,651.077 C732.369,651.077 744.029,646.545 758.981,637.48 C743.951,651.968 730.897,659.212 719.818,659.212 C709.824,659.212 702.851,657.701 698.9,654.68 C697.893,653.905 697.041,652.975 696.343,651.891 C692.47,656.617 686.001,658.979 676.936,658.979 C668.259,658.979 661.596,657.198 656.948,653.634 C653.849,651.232 652.299,647.397 652.299,642.129 C652.299,633.762 657.258,624.62 667.174,614.703 C677.788,604.089 690.068,598.782 704.013,598.782 C707.5,598.782 710.056,600.061 711.683,602.617 C713,601.145 714.279,600.409 715.518,600.409 M694.716,646.661 C694.639,646.041 694.6,645.422 694.6,644.802 C694.6,644.492 698.551,633.684 706.454,612.379 C707.228,610.287 708.003,608.505 708.778,607.033 C705.756,606.413 702.774,606.103 699.83,606.103 C694.406,606.103 687.201,610.713 678.214,619.933 C670.157,628.145 666.129,635.234 666.129,641.199 C666.129,647.784 669.266,651.077 675.542,651.077 C683.134,651.077 689.526,649.605 694.716,646.661"/>
<path class="Note" d="M671.242,926.853 C667.446,926.853 665.547,922.786 665.547,914.651 L665.547,880.602 C665.547,877.348 667.136,875.721 670.312,875.721 C671.707,875.721 672.753,875.837 673.45,876.069 C675.929,871.731 679.996,868.089 685.652,865.145 C693.554,861.039 701.573,858.986 709.708,858.986 C716.138,858.986 719.353,861.388 719.353,866.191 C719.353,870.22 717.184,872.234 712.845,872.234 C709.746,872.234 706.802,871.537 704.013,870.143 C701.534,868.903 698.9,868.283 696.111,868.283 C691.308,868.283 684.219,871.421 674.844,877.696 C676.161,883.972 676.82,891.293 676.82,899.66 C676.82,917.789 674.961,926.853 671.242,926.853"/>
<path class="Note" d="M715.518,778.992 C720.089,778.992 722.375,781.858 722.375,787.591 C722.375,791.62 719.857,797.624 714.821,805.604 C710.792,812.034 708.778,818.31 708.778,824.43 C708.778,827.917 713.852,829.66 724.002,829.66 C732.369,829.66 744.029,825.128 758.981,816.063 C743.951,830.551 730.897,837.795 719.818,837.795 C709.824,837.795 702.851,836.284 698.9,833.262 C697.893,832.488 697.041,831.558 696.343,830.473 C692.47,835.199 686.001,837.562 676.936,837.562 C668.259,837.562 661.596,835.78 656.948,832.216 C653.849,829.815 652.299,825.98 652.299,820.712 C652.299,812.344 657.258,803.202 667.174,793.286 C677.788,782.672 690.068,777.365 704.013,777.365 C707.5,777.365 710.056,778.643 711.683,781.2 C713,779.728 714.279,778.992 715.518,778.992 M694.716,825.244 C694.639,824.624 694.6,824.004 694.6,823.384 C694.6,823.075 698.551,812.267 706.454,790.962 C707.228,788.87 708.003,787.088 708.778,785.616 C705.756,784.996 702.774,784.686 699.83,784.686 C694.406,784.686 687.201,789.296 678.214,798.515 C670.157,806.728 666.129,813.816 666.129,819.782 C666.129,826.367 669.266,829.66 675.542,829.66 C683.134,829.66 689.526,828.188 694.716,825.244"/>
<path class="Note" d="M715.518,689.7 C720.089,689.7 722.375,692.567 722.375,698.3 C722.375,702.329 719.857,708.333 714.821,716.313 C710.792,722.743 708.778,729.019 708.778,735.139 C708.778,738.625 713.852,740.368 724.002,740.368 C732.369,740.368 744.029,735.836 758.981,726.772 C743.951,741.259 730.897,748.503 719.818,748.503 C709.824,748.503 702.851,746.992 698.9,743.971 C697.893,743.196 697.041,742.267 696.343,741.182 C692.47,745.908 686.001,748.271 676.936,748.271 C668.259,748.271 661.596,746.489 656.948,742.925 C653.849,740.523 652.299,736.688 652.299,731.42 C652.299,723.053 657.258,713.911 667.174,703.994 C677.788,693.38 690.068,688.074 704.013,688.074 C707.5,688.074 710.056,689.352 711.683,691.908 C713,690.436 714.279,689.7 715.518,689.7 M694.716,735.952 C694.639,735.333 694.6,734.713 694.6,734.093 C694.6,733.783 698.551,722.976 706.454,701.67 C707.228,699.578 708.003,697.797 708.778,696.325 C705.756,695.705 702.774,695.395 699.83,695.395 C694.406,695.395 687.201,700.005 678.214,709.224 C670.157,717.436 666.129,724.525 666.129,730.491 C666.129,737.076 669.266,740.368 675.542,740.368 C683.134,740.368 689.526,738.896 694.716,735.952"/>
<path class="Note" d="M671.242,569.688 C667.446,569.688 665.547,565.621 665.547,557.486 L665.547,523.436 C665.547,520.182 667.136,518.555 670.312,518.555 C671.707,518.555 672.753,518.672 673.45,518.904 C675.929,514.565 679.996,510.924 685.652,507.98 C693.554,503.874 701.573,501.821 709.708,501.821 C716.138,501.821 719.353,504.223 719.353,509.026 C719.353,513.055 717.184,515.069 712.845,515.069 C709.746,515.069 706.802,514.372 704.013,512.977 C701.534,511.738 698.9,511.118 696.111,511.118 C691.308,511.118 684.219,514.256 674.844,520.531 C676.161,526.806 676.82,534.128 676.82,542.495 C676.82,560.624 674.961,569.688 671.242,569.688"/>
<path class="Note" d="M1565.53,926.853 C1561.73,926.853 1559.83,922.786 1559.83,914.651 L1559.83,880.602 C1559.83,877.348 1561.42,875.721 1564.6,875.721 C1565.99,875.721 1567.04,875.837 1567.74,876.069 C1570.22,871.731 1574.28,868.089 1579.94,865.145 C1587.84,861.039 1595.86,858.986 1604,858.986 C1610.43,858.986 1613.64,861.388 1613.64,866.191 C1613.64,870.22 1611.47,872.234 1607.13,872.234 C1604.03,872.234 1601.09,871.537 1598.3,870.143 C1595.82,868.903 1593.19,868.283 1590.4,868.283 C1585.6,868.283 1578.51,871.421 1569.13,877.696 C1570.45,883.972 1571.11,891.293 1571.11,899.66 C1571.11,917.789 1569.25,926.853 1565.53,926.853"/>
<path class="Note" d="M1498.72,604.36 C1499.03,592.662 1505.5,582.28 1518.12,573.216 C1529.36,565.158 1541.64,561.13 1554.96,561.13 C1573.63,561.13 1590.1,568.451 1604.35,583.094 C1613.42,592.468 1617.95,604.089 1617.95,617.957 C1617.95,630.43 1614.62,639.998 1607.96,646.661 C1599.82,654.873 1591.22,658.979 1582.16,658.979 C1575.96,658.979 1571.16,657.585 1567.75,654.796 C1562.17,650.225 1559.38,644.104 1559.38,636.435 C1559.38,626.518 1564.34,617.453 1574.25,609.241 C1582.39,602.501 1590.56,598.085 1598.77,595.993 C1596.61,592.274 1593.86,588.788 1590.52,585.534 C1580.14,575.385 1568.37,570.311 1555.2,570.311 C1541.48,570.311 1530.13,573.293 1521.15,579.259 C1511.85,585.379 1504.37,593.746 1498.72,604.36 M1601.68,602.152 C1597.42,606.103 1593.16,610.326 1588.9,614.819 C1580.53,623.651 1576.35,632.019 1576.35,639.921 C1576.35,648.366 1578.28,652.588 1582.16,652.588 C1585.64,652.588 1590.52,647.823 1596.8,638.294 C1601.83,630.701 1604.35,623.729 1604.35,617.376 C1604.35,611.953 1603.46,606.878 1601.68,602.152"/>
<path class="Note" d="M1565.53,569.688 C1561.73,569.688 1559.83,565.621 1559.83,557.486 L1559.83,523.436 C1559.83,520.182 1561.42,518.555 1564.6,518.555 C1565.99,518.555 1567.04,518.672 1567.74,518.904 C1570.22,514.565 1574.28,510.924 1579.94,507.98 C1587.84,503.874 1595.86,501.821 1604,501.821 C1610.43,501.821 1613.64,504.223 1613.64,509.026 C1613.64,513.055 1611.47,515.069 1607.13,515.069 C1604.03,515.069 1601.09,514.372 1598.3,512.977 C1595.82,511.738 1593.19,511.118 1590.4,511.118 C1585.6,511.118 1578.51,514.256 1569.13,520.531 C1570.45,526.806 1571.11,534.128 1571.11,542.495 C1571.11,560.624 1569.25,569.688 1565.53,569.688"/>
<path class="Note" d="M1645.6,811.298 C1639.25,821.293 1629.21,829.582 1615.5,836.168 C1603.57,841.901 1592.41,844.767 1582.03,844.767 C1573.74,844.767 1566.85,843.102 1561.35,839.77 C1555.38,836.129 1552.4,831.79 1552.4,826.755 C1552.4,815.366 1555.38,805.565 1561.35,797.353 C1569.48,786.197 1577.69,780.619 1585.98,780.619 C1591.87,780.619 1596.05,781.781 1598.53,784.105 C1601.94,787.127 1603.65,791.271 1603.65,796.54 C1603.65,803.977 1598.11,810.446 1587.03,815.947 C1576.26,821.293 1568.78,824.779 1564.6,826.406 C1565.53,828.343 1566.73,830.086 1568.2,831.635 C1571.84,835.509 1576.8,837.446 1583.08,837.446 C1590.98,837.446 1601.59,834.541 1614.92,828.73 C1627.7,823.075 1637.93,817.264 1645.6,811.298 M1562.97,821.06 C1568.78,818.116 1574.09,814.669 1578.89,810.717 C1586.02,804.907 1589.58,798.631 1589.58,791.891 C1589.58,788.095 1587.84,786.197 1584.36,786.197 C1581.41,786.197 1577.38,789.567 1572.27,796.307 C1565.84,804.674 1562.62,811.492 1562.62,816.76 C1562.62,818.232 1562.74,819.666 1562.97,821.06"/>
<path class="Note" d="M1624.68,666.923 C1629.02,663.979 1632.16,661.539 1634.09,659.602 C1637.66,655.806 1639.44,652.319 1639.44,649.143 C1639.44,645.502 1637.43,643.681 1633.4,643.681 C1625.57,643.681 1617.2,650.576 1608.29,664.367 C1605.58,668.55 1599.62,682.186 1590.4,705.273 C1597.76,712.865 1601.44,717.165 1601.44,718.172 C1601.44,719.567 1600.55,720.264 1598.77,720.264 C1597.37,720.264 1593.54,717.901 1587.26,713.175 C1580.44,729.057 1570.1,742.615 1556.23,753.849 C1542.05,765.315 1525.13,771.048 1505.45,771.048 C1497.93,771.048 1488.52,769.305 1477.21,765.819 C1468.14,763.03 1463.61,758.575 1463.61,752.454 C1463.61,743.39 1467.1,738.858 1474.07,738.858 C1478.25,738.858 1480.35,740.795 1480.35,744.668 C1480.35,745.908 1479.38,747.225 1477.44,748.619 C1476.43,749.317 1475.93,750.672 1475.93,752.687 C1475.93,755.089 1478.6,757.568 1483.95,760.124 C1489.76,762.913 1498.28,764.308 1509.52,764.308 C1524,764.308 1537.99,758.033 1551.47,745.482 C1563.71,734.093 1572.5,720.845 1577.85,705.738 C1575.76,704.033 1573.51,702.174 1571.11,700.159 C1563.67,695.743 1559.95,691.211 1559.95,686.563 C1559.95,684.626 1561.23,683.658 1563.79,683.658 C1567.19,683.658 1571.8,686.563 1577.62,692.373 C1578.85,693.613 1580.02,694.775 1581.1,695.86 C1583.81,688.422 1588.15,678.97 1594.12,667.504 C1604.89,646.741 1617.98,636.36 1633.4,636.36 C1638.9,636.36 1643.24,637.406 1646.41,639.497 C1649.59,641.589 1651.18,644.456 1651.18,648.097 C1651.18,653.908 1649.05,658.827 1644.79,662.856 C1640.37,667.039 1635.76,669.131 1630.96,669.131 C1626.77,669.131 1624.68,668.395 1624.68,666.923"/>
<path class="Note" d="M2468.57,658.979 C2464.39,658.979 2462.3,657.081 2462.3,653.285 C2462.3,646.855 2463.26,642.129 2465.2,639.107 C2473.26,627.176 2490.77,604.864 2517.73,572.17 C2529.89,557.372 2545.58,549.974 2564.79,549.974 C2572.23,549.974 2577.38,551.019 2580.25,553.111 C2584.67,556.365 2586.87,560.278 2586.87,564.849 C2586.87,569.652 2583,574.998 2575.25,580.886 C2567.89,586.464 2560.92,589.253 2554.34,589.253 C2551.78,589.253 2550.5,588.982 2550.5,588.439 C2550.5,587.665 2551.74,586.851 2554.22,585.999 C2557.55,584.759 2561.11,582.242 2564.91,578.445 C2569.25,574.029 2571.42,570.039 2571.42,566.476 C2571.42,564.074 2569.75,561.788 2566.42,559.619 C2563.48,557.76 2558.71,556.83 2552.13,556.83 C2542.52,556.83 2530.4,566.514 2515.75,585.883 C2505.99,598.821 2498.09,610.21 2492.05,620.049 C2494.99,618.422 2498.52,616.446 2502.62,614.122 C2507.66,611.256 2512,609.822 2515.64,609.822 C2524.7,609.822 2529.23,613.076 2529.23,619.584 C2529.23,626.014 2525.52,633.064 2518.08,640.734 C2512.81,646.158 2510.18,650.186 2510.18,652.82 C2510.18,655.532 2512.81,656.888 2518.08,656.888 C2520.71,656.888 2523.42,655.958 2526.21,654.099 C2529,652.317 2531.05,651.426 2532.37,651.426 C2533.46,651.426 2534,652.123 2534,653.518 C2534,655.764 2531.83,658.127 2527.49,660.606 C2520.21,664.79 2514.36,666.882 2509.94,666.882 C2502.12,666.882 2498.21,662.698 2498.21,654.331 C2498.21,649.063 2501.23,643.214 2507.27,636.783 C2511.69,632.057 2513.89,627.37 2513.89,622.722 C2513.89,618.693 2511.72,616.679 2507.39,616.679 C2505.68,616.679 2500.03,618.693 2490.42,622.722 C2487.55,627.525 2485.15,631.941 2483.21,635.97 C2475.85,651.31 2470.97,658.979 2468.57,658.979"/>
<path class="Note" d="M2468.57,569.688 C2464.39,569.688 2462.3,567.79 2462.3,563.994 C2462.3,557.563 2463.26,552.838 2465.2,549.816 C2473.26,537.885 2490.77,515.573 2517.73,482.879 C2529.89,468.081 2545.58,460.682 2564.79,460.682 C2572.23,460.682 2577.38,461.728 2580.25,463.82 C2584.67,467.074 2586.87,470.986 2586.87,475.557 C2586.87,480.361 2583,485.706 2575.25,491.594 C2567.89,497.172 2560.92,499.962 2554.34,499.962 C2551.78,499.962 2550.5,499.69 2550.5,499.148 C2550.5,498.373 2551.74,497.56 2554.22,496.708 C2557.55,495.468 2561.11,492.95 2564.91,489.154 C2569.25,484.738 2571.42,480.748 2571.42,477.184 C2571.42,474.783 2569.75,472.497 2566.42,470.328 C2563.48,468.468 2558.71,467.539 2552.13,467.539 C2542.52,467.539 2530.4,477.223 2515.75,496.591 C2505.99,509.53 2498.09,520.918 2492.05,530.757 C2494.99,529.131 2498.52,527.155 2502.62,524.831 C2507.66,521.964 2512,520.531 2515.64,520.531 C2524.7,520.531 2529.23,523.785 2529.23,530.293 C2529.23,536.723 2525.52,543.773 2518.08,551.443 C2512.81,556.866 2510.18,560.895 2510.18,563.529 C2510.18,566.241 2512.81,567.596 2518.08,567.596 C2520.71,567.596 2523.42,566.667 2526.21,564.807 C2529,563.025 2531.05,562.134 2532.37,562.134 C2533.46,562.134 2534,562.832 2534,564.226 C2534,566.473 2531.83,568.836 2527.49,571.315 C2520.21,575.499 2514.36,577.59 2509.94,577.59 C2502.12,577.59 2498.21,573.407 2498.21,565.04 C2498.21,559.771 2501.23,553.922 2507.27,547.492 C2511.69,542.766 2513.89,538.079 2513.89,533.43 C2513.89,529.402 2511.72,527.387 2507.39,527.387 C2505.68,527.387 2500.03,529.402 2490.42,533.43 C2487.55,538.234 2485.15,542.65 2483.21,546.678 C2475.85,562.018 2470.97,569.688 2468.57,569.688"/>
<path class="Note" d="M2529.47,763.652 C2531.87,763.652 2533.61,764.156 2534.7,765.163 C2535.94,766.247 2536.56,767.836 2536.56,769.927 C2536.56,772.561 2535.39,774.808 2533.07,776.668 C2523,783.795 2512.65,792.86 2502.04,803.861 C2504.44,814.475 2507.39,822.339 2510.87,827.452 C2515.44,834.192 2518.58,837.562 2520.29,837.562 C2521.83,837.562 2523.5,836.594 2525.28,834.657 C2526.52,833.34 2527.72,832.681 2528.89,832.681 C2531.36,832.681 2532.6,833.998 2532.6,836.632 C2532.6,839.422 2530.4,843.218 2525.98,848.021 C2523.58,850.5 2521.06,851.74 2518.43,851.74 C2513,851.74 2507.54,846.665 2502.04,836.516 C2496.46,826.29 2492.63,816.644 2490.54,807.58 C2486.66,819.511 2484.72,826.832 2484.72,829.544 C2484.72,834.889 2481.66,837.562 2475.54,837.562 C2472.21,837.562 2470.55,834.463 2470.55,828.265 C2470.55,825.321 2474.23,812.151 2481.59,788.754 C2485.23,777.287 2488.21,769.269 2490.54,764.698 C2491.08,763.768 2492.47,763.303 2494.72,763.303 C2497.35,763.303 2499.17,763.846 2500.18,764.93 C2501.19,766.015 2501.69,768.262 2501.69,771.671 C2501.69,773.375 2500.03,779.263 2496.69,789.335 C2504.98,781.2 2514.32,773.259 2524.7,765.511 C2526.33,764.272 2527.92,763.652 2529.47,763.652"/>
<path class="Note" d="M2497.86,682.612 C2501.65,682.612 2503.55,685.517 2503.55,691.327 C2503.55,695.511 2501.58,700.314 2497.62,705.738 C2494.14,710.618 2492.39,718.172 2492.39,728.399 C2492.39,733.28 2493.67,736.533 2496.23,738.16 C2498.01,739.4 2501.34,740.059 2506.22,740.136 C2511.49,740.136 2518.97,737.463 2528.65,732.117 L2530.51,733.977 C2528.03,737.153 2525.05,740.02 2521.56,742.576 C2516.37,746.373 2511.07,748.271 2505.64,748.271 C2497.82,748.271 2491.89,747.147 2487.86,744.901 C2482.83,742.112 2480.31,738.625 2480.31,734.442 C2480.31,722.898 2481.78,710.851 2484.72,698.3 C2485.81,693.729 2488.17,689.546 2491.81,685.749 C2493.91,683.658 2495.92,682.612 2497.86,682.612"/>
<path class="Note" d="M3334.08,1016.14 C3329.89,1016.14 3327.8,1014.25 3327.8,1010.45 C3327.8,1004.02 3328.77,999.294 3330.71,996.273 C3338.76,984.342 3356.27,962.029 3383.23,929.335 C3395.4,914.538 3411.08,907.139 3430.3,907.139 C3437.74,907.139 3442.89,908.185 3445.75,910.277 C3450.17,913.531 3452.38,917.443 3452.38,922.014 C3452.38,926.817 3448.5,932.163 3440.76,938.051 C3433.4,943.629 3426.42,946.418 3419.84,946.418 C3417.28,946.418 3416,946.147 3416,945.605 C3416,944.83 3417.24,944.017 3419.72,943.164 C3423.05,941.925 3426.62,939.407 3430.41,935.611 C3434.75,931.195 3436.92,927.205 3436.92,923.641 C3436.92,921.239 3435.26,918.954 3431.93,916.784 C3428.98,914.925 3424.22,913.995 3417.63,913.995 C3408.02,913.995 3395.9,923.68 3381.26,943.048 C3371.5,955.986 3363.59,967.375 3357.55,977.214 C3360.49,975.587 3364.02,973.612 3368.13,971.287 C3373.16,968.421 3377.5,966.988 3381.14,966.988 C3390.21,966.988 3394.74,970.241 3394.74,976.749 C3394.74,983.18 3391.02,990.23 3383.58,997.9 C3378.31,1003.32 3375.68,1007.35 3375.68,1009.99 C3375.68,1012.7 3378.31,1014.05 3383.58,1014.05 C3386.22,1014.05 3388.93,1013.12 3391.72,1011.26 C3394.51,1009.48 3396.56,1008.59 3397.88,1008.59 C3398.96,1008.59 3399.5,1009.29 3399.5,1010.68 C3399.5,1012.93 3397.33,1015.29 3392.99,1017.77 C3385.71,1021.96 3379.86,1024.05 3375.45,1024.05 C3367.62,1024.05 3363.71,1019.86 3363.71,1011.5 C3363.71,1006.23 3366.73,1000.38 3372.77,993.949 C3377.19,989.223 3379.4,984.535 3379.4,979.887 C3379.4,975.858 3377.23,973.844 3372.89,973.844 C3371.19,973.844 3365.53,975.858 3355.92,979.887 C3353.06,984.69 3350.66,989.106 3348.72,993.135 C3341.36,1008.47 3336.48,1016.14 3334.08,1016.14"/>
<path class="Note" d="M3334.08,658.979 C3329.89,658.979 3327.8,657.081 3327.8,653.285 C3327.8,646.855 3328.77,642.129 3330.71,639.107 C3338.76,627.176 3356.27,604.864 3383.23,572.17 C3395.4,557.372 3411.08,549.974 3430.3,549.974 C3437.74,549.974 3442.89,551.019 3445.75,553.111 C3450.17,556.365 3452.38,560.278 3452.38,564.849 C3452.38,569.652 3448.5,574.998 3440.76,580.886 C3433.4,586.464 3426.42,589.253 3419.84,589.253 C3417.28,589.253 3416,588.982 3416,588.439 C3416,587.665 3417.24,586.851 3419.72,585.999 C3423.05,584.759 3426.62,582.242 3430.41,578.445 C3434.75,574.029 3436.92,570.039 3436.92,566.476 C3436.92,564.074 3435.26,561.788 3431.93,559.619 C3428.98,557.76 3424.22,556.83 3417.63,556.83 C3408.02,556.83 3395.9,566.514 3381.26,585.883 C3371.5,598.821 3363.59,610.21 3357.55,620.049 C3360.49,618.422 3364.02,616.446 3368.13,614.122 C3373.16,611.256 3377.5,609.822 3381.14,609.822 C3390.21,609.822 3394.74,613.076 3394.74,619.584 C3394.74,626.014 3391.02,633.064 3383.58,640.734 C3378.31,646.158 3375.68,650.186 3375.68,652.82 C3375.68,655.532 3378.31,656.888 3383.58,656.888 C3386.22,656.888 3388.93,655.958 3391.72,654.099 C3394.51,652.317 3396.56,651.426 3397.88,651.426 C3398.96,651.426 3399.5,652.123 3399.5,653.518 C3399.5,655.764 3397.33,658.127 3392.99,660.606 C3385.71,664.79 3379.86,666.882 3375.45,666.882 C3367.62,666.882 3363.71,662.698 3363.71,654.331 C3363.71,649.063 3366.73,643.214 3372.77,636.783 C3377.19,632.057 3379.4,627.37 3379.4,622.722 C3379.4,618.693 3377.23,616.679 3372.89,616.679 C3371.19,616.679 3365.53,618.693 3355.92,622.722 C3353.06,627.525 3350.66,631.941 3348.72,635.97 C3341.36,651.31 3336.48,658.979 3334.08,658.979"/>
<path class="Note" d="M3394.97,852.943 C3397.37,852.943 3399.12,853.447 3400.2,854.454 C3401.44,855.539 3402.06,857.127 3402.06,859.219 C3402.06,861.853 3400.9,864.1 3398.57,865.959 C3388.5,873.087 3378.16,882.151 3367.54,893.152 C3369.95,903.766 3372.89,911.63 3376.38,916.743 C3380.95,923.483 3384.09,926.853 3385.79,926.853 C3387.34,926.853 3389,925.885 3390.79,923.948 C3392.03,922.631 3393.23,921.973 3394.39,921.973 C3396.87,921.973 3398.11,923.29 3398.11,925.924 C3398.11,928.713 3395.9,932.509 3391.48,937.312 C3389.08,939.792 3386.56,941.031 3383.93,941.031 C3378.51,941.031 3373.05,935.957 3367.54,925.808 C3361.97,915.581 3358.13,905.936 3356.04,896.871 C3352.17,908.802 3350.23,916.123 3350.23,918.835 C3350.23,924.181 3347.17,926.853 3341.05,926.853 C3337.72,926.853 3336.05,923.755 3336.05,917.557 C3336.05,914.613 3339.73,901.442 3347.09,878.045 C3350.73,866.579 3353.72,858.56 3356.04,853.989 C3356.58,853.06 3357.98,852.595 3360.22,852.595 C3362.86,852.595 3364.68,853.137 3365.69,854.222 C3366.69,855.306 3367.2,857.553 3367.2,860.962 C3367.2,862.666 3365.53,868.554 3362.2,878.626 C3370.49,870.491 3379.82,862.55 3390.21,854.803 C3391.83,853.563 3393.42,852.943 3394.97,852.943"/>
<path class="Note" d="M3334.08,569.688 C3329.89,569.688 3327.8,567.79 3327.8,563.994 C3327.8,557.563 3328.77,552.838 3330.71,549.816 C3338.76,537.885 3356.27,515.573 3383.23,482.879 C3395.4,468.081 3411.08,460.682 3430.3,460.682 C3437.74,460.682 3442.89,461.728 3445.75,463.82 C3450.17,467.074 3452.38,470.986 3452.38,475.557 C3452.38,480.361 3448.5,485.706 3440.76,491.594 C3433.4,497.172 3426.42,499.962 3419.84,499.962 C3417.28,499.962 3416,499.69 3416,499.148 C3416,498.373 3417.24,497.56 3419.72,496.708 C3423.05,495.468 3426.62,492.95 3430.41,489.154 C3434.75,484.738 3436.92,480.748 3436.92,477.184 C3436.92,474.783 3435.26,472.497 3431.93,470.328 C3428.98,468.468 3424.22,467.539 3417.63,467.539 C3408.02,467.539 3395.9,477.223 3381.26,496.591 C3371.5,509.53 3363.59,520.918 3357.55,530.757 C3360.49,529.131 3364.02,527.155 3368.13,524.831 C3373.16,521.964 3377.5,520.531 3381.14,520.531 C3390.21,520.531 3394.74,523.785 3394.74,530.293 C3394.74,536.723 3391.02,543.773 3383.58,551.443 C3378.31,556.866 3375.68,560.895 3375.68,563.529 C3375.68,566.241 3378.31,567.596 3383.58,567.596 C3386.22,567.596 3388.93,566.667 3391.72,564.807 C3394.51,563.025 3396.56,562.134 3397.88,562.134 C3398.96,562.134 3399.5,562.832 3399.5,564.226 C3399.5,566.473 3397.33,568.836 3392.99,571.315 C3385.71,575.499 3379.86,577.59 3375.45,577.59 C3367.62,577.59 3363.71,573.407 3363.71,565.04 C3363.71,559.771 3366.73,553.922 3372.77,547.492 C3377.19,542.766 3379.4,538.079 3379.4,533.43 C3379.4,529.402 3377.23,527.387 3372.89,527.387 C3371.19,527.387 3365.53,529.402 3355.92,533.43 C3353.06,538.234 3350.66,542.65 3348.72,546.678 C3341.36,562.018 3336.48,569.688 3334.08,569.688"/>
<path class="Note" d="M3394.97,763.652 C3397.37,763.652 3399.12,764.156 3400.2,765.163 C3401.44,766.247 3402.06,767.836 3402.06,769.927 C3402.06,772.561 3400.9,774.808 3398.57,776.668 C3388.5,783.795 3378.16,792.86 3367.54,803.861 C3369.95,814.475 3372.89,822.339 3376.38,827.452 C3380.95,834.192 3384.09,837.562 3385.79,837.562 C3387.34,837.562 3389,836.594 3390.79,834.657 C3392.03,833.34 3393.23,832.681 3394.39,832.681 C3396.87,832.681 3398.11,833.998 3398.11,836.632 C3398.11,839.422 3395.9,843.218 3391.48,848.021 C3389.08,850.5 3386.56,851.74 3383.93,851.74 C3378.51,851.74 3373.05,846.665 3367.54,836.516 C3361.97,826.29 3358.13,816.644 3356.04,807.58 C3352.17,819.511 3350.23,826.832 3350.23,829.544 C3350.23,834.889 3347.17,837.562 3341.05,837.562 C3337.72,837.562 3336.05,834.463 3336.05,828.265 C3336.05,825.321 3339.73,812.151 3347.09,788.754 C3350.73,777.287 3353.72,769.269 3356.04,764.698 C3356.58,763.768 3357.98,763.303 3360.22,763.303 C3362.86,763.303 3364.68,763.846 3365.69,764.93 C3366.69,766.015 3367.2,768.262 3367.2,771.671 C3367.2,773.375 3365.53,779.263 3362.2,789.335 C3370.49,781.2 3379.82,773.259 3390.21,765.511 C3391.83,764.272 3393.42,763.652 3394.97,763.652"/>
<path class="Note" d="M3363.36,682.612 C3367.16,682.612 3369.06,685.517 3369.06,691.327 C3369.06,695.511 3367.08,700.314 3363.13,705.738 C3359.64,710.618 3357.9,718.172 3357.9,728.399 C3357.9,733.28 3359.18,736.533 3361.73,738.16 C3363.52,739.4 3366.85,740.059 3371.73,740.136 C3377,740.136 3384.47,737.463 3394.16,732.117 L3396.02,733.977 C3393.54,737.153 3390.55,740.02 3387.07,742.576 C3381.88,746.373 3376.57,748.271 3371.15,748.271 C3363.32,748.271 3357.4,747.147 3353.37,744.901 C3348.33,742.112 3345.81,738.625 3345.81,734.442 C3345.81,722.898 3347.28,710.851 3350.23,698.3 C3351.31,693.729 3353.68,689.546 3357.32,685.749 C3359.41,683.658 3361.42,682.612 3363.36,682.612"/>
<path class="Clef" transform="matrix(2.3811,0,0,2.3811,212.156,2323.39)" d="M25.4,-25.1 C17.8,-25.1 11.7,-20.7 11.6,-20.7 C5.8,-16.4 3.5,-11.3 2.6,-7.8 C2.1,-6 1.9,-4.2 1.9,-2.5 C1.9,-0.1 2.3,2.1 3.2,4 C4.4,6.7 6.7,8.6 9.7,9.6 C10.9,10 12.2,10.2 13.5,10.2 C15.7,10.2 18,9.6 19.9,8.5 C23,6.8 24.9,3.2 24.9,-0.7 C24.9,-4.2 23.1,-7.4 20.1,-9.3 C18,-10.7 16,-11.1 14.3,-11.1 C13.1,-11.1 12,-10.9 11.1,-10.6 C10.1,-10.2 8.4,-9.2 7.6,-8.5 C7.9,-10.4 9.1,-13.3 10.2,-14.9 C11.3,-16.5 13.5,-18.5 15.2,-19.4 C17.7,-20.8 20.9,-21.4 24.4,-21.4 C34.6,-21.4 39.6,-13.2 39.6,3.6 C39.6,12.9 36.1,21.8 33.1,27.7 C29.8,34.3 25.4,40.6 21.5,44.1 C11.1,53.6 1.3,58.1 1.2,58.1 C1.2,58.1 -0.3,59 0.1,60.5 C0.4,61.5 1.3,61.7 1.9,61.7 C2,61.7 2.3,61.6 2.4,61.6 C2.5,61.6 13.9,56.9 23,49.8 C28.1,46.1 32.7,42.1 36.7,37.8 C40.3,33.9 43.4,29.7 45.9,25.5 C50.3,18 52.8,10.2 52.8,3.5 C52.8,-4.8 50.6,-11.7 46.5,-16.6 C41.8,-22.2 34.7,-25.1 25.4,-25.1 M56.8,-12.4 C56.8,-9.6 59,-7.4 61.6,-7.4 C64.2,-7.4 66.4,-9.6 66.4,-12.4 C66.4,-15.2 64.2,-17.5 61.6,-17.5 C59,-17.5 56.8,-15.2 56.8,-12.4 M56.8,12.3 C56.8,15.1 59,17.4 61.6,17.4 C64.2,17.4 66.4,15.1 66.4,12.3 C66.4,9.5 64.2,7.2 61.6,7.2 C59,7.2 56.8,9.5 56.8,12.3"/>
<path class="Clef" transform="matrix(2.3811,0,0,2.3811,212.156,1586.84)" d="M63.37,-5.89004 C62.14,-11.32 59.5,-15.14 58.72,-16.1801 C55.5301,-20.45 51.52,-23.3 46.8301,-24.65 C43.72,-25.54 40.72,-25.65 38.3,-25.47 C37.2601,-31.4801 36.2601,-37.3601 35.35,-42.8101 C40.79,-48.97 44.42,-54.77 46.69,-59.07 C50.1601,-65.65 51.3101,-70.2301 51.3601,-70.4301 C53.0801,-75.64 53.44,-83.34 52.34,-91.55 C51.3301,-99.1 49.24,-105.81 46.89,-109.06 C45.8601,-110.49 44.8101,-111.22 43.77,-111.22 C42.55,-111.22 40.04,-109.98 37.15,-107.21 C34.85,-105.01 31.5801,-101.12 29.02,-95.1101 C26.02,-88.05 25.8101,-78.5601 26.1601,-71.84 C26.54,-64.57 27.65,-58.8801 27.6601,-58.8301 C27.6801,-58.74 27.94,-57.24 28.39,-54.67 C28.1601,-54.44 27.92,-54.22 27.67,-53.9801 C26.6301,-52.9801 25.44,-51.84 24.0601,-50.4601 C23.2,-49.6 22.25,-48.69 21.25,-47.72 C12.79,-39.57 0,-27.25 0,-8.1 C0,-3.4 0.9,1.01992 2.68008,5.02998 C4.27002,8.62998 6.57002,11.91 9.5,14.78 C17.2301,22.33 27.82,25.5399 34.8801,25.38 C37.8301,25.31 40.4601,25.0699 42.85,24.6199 C44.6801,34.2199 45.82,41.25 45.8601,46.5899 C45.9,53.1 44.25,57.0699 40.35,59.8399 C37.92,61.5699 35.1101,62.5199 32.0101,62.6699 C29.42,62.7899 27.1601,62.3199 25.7301,61.91 L25.72,61.91 C25.72,61.91 25.4301,61.83 25.42,61.63 C25.4101,61.45 25.7601,61.4 25.77,61.4 L25.79,61.4 C27.7101,60.96 31.2801,59.73 33.64,56.43 C35.44,53.91 36.3101,49.2899 34.47,45.35 C33.3601,42.96 30.85,40.01 25.2301,39.56 C22.74,39.36 20.47,39.8699 18.47,41.0699 C16.6601,42.15 15.1601,43.7899 14.1101,45.7899 C11.65,50.4899 12.1101,56.2199 15.24,60.06 C18.2,63.68 22.82,65.9899 28.25,66.5699 C29.1,66.66 29.95,66.7 30.8,66.7 C31.5101,66.7 32.22,66.6699 32.92,66.61 C31.72,66.9399 30.64,67.4899 29.77,68.25 C28.2801,69.5399 27.44,71.38 27.44,73.41 C27.44,75.28 28.0601,76.65 29.55,78.0399 C28.4101,78.5 27.55,78.98 26.79,79.56 C25.25,80.73 24.34,82.46 24.34,84.1899 C24.34,87.45 27.3,89.63 31.72,89.63 C37.1301,89.63 40.9101,86.63 40.9101,82.35 C40.9101,80.1199 39.9101,78.18 38.0801,76.83 C41.0101,75.6199 42.37,73.9399 42.37,71.56 C42.39,70.05 41.69,68.61 40.49,67.6899 C39.2801,66.7399 37.62,66.2399 35.69,66.2399 L35.5101,66.2399 C38.2801,65.7 40.92,64.7 43.2101,63.28 C46.87,60.71 48.99,56.73 49.67,51.1 C50.2301,46.46 49.84,40.55 48.44,32.48 C48.0801,30.3899 47.54,27.36 46.8801,23.6 C52.6301,21.68 56.79,18.11 60.5601,12.26 C63.85,6.51992 64.8,0.419922 63.37,-5.89004 M32.39,87.5399 C30.19,87.5399 28.7301,86.1199 28.7301,84.01 C28.7301,82.11 29.65,80.5 31.32,79.4699 C31.6801,79.66 31.77,79.71 32.1101,79.88 C33.3,80.48 33.3,80.48 33.55,80.63 L33.5601,80.6399 C35.47,81.73 36.25,82.76 36.25,84.18 C36.24,86.0899 34.59,87.5399 32.39,87.5399 M38.3101,71.63 C38.3101,73.2699 37.7301,74.3399 36.1801,75.53 C34.74,74.78 34.35,74.56 33.9801,74.3399 L33.8801,74.28 C32.3301,73.3399 31.85,72.66 31.85,71.4 C31.85,69.6 33.2301,68.3399 35.19,68.3399 C37.17,68.35 38.3101,69.55 38.3101,71.63 M33.15,-83.8101 C34.9301,-89.55 37.67,-92.8 39.6601,-94.5301 C41.4101,-96.05 43.0601,-96.7601 43.9801,-96.7601 C44.12,-96.7601 44.24,-96.74 44.34,-96.7101 C44.8,-96.57 45.3301,-96 45.8,-95.1301 C48.1101,-90.84 47.37,-84.1301 46.0301,-79.69 C44.4,-74.29 41.4801,-68.6801 32.69,-59.0601 C32.52,-60.17 32.3601,-61.22 32.2101,-62.2 C30.95,-70.49 31.27,-77.7601 33.15,-83.8101 M29.15,20.31 C24.5101,19.0899 20.0801,16.5899 16.32,13.0899 C15.0101,11.86 13.14,9.68994 11.67,6.3 C10.3101,3.13994 9.65,-0.290039 9.7,-3.88008 C9.77002,-8.57002 11.0801,-13.39 13.59,-18.1801 C16.5101,-23.7601 21.07,-29.29 27.1301,-34.62 C28.5801,-35.9 29.95,-37.1801 31.24,-38.4601 C32,-34.2 32.8301,-29.5101 33.7101,-24.6301 C29.8601,-23.3601 25.1101,-20.2101 22,-14.5601 C18.47,-7.99004 18.6101,-2.47002 19.34,1.00996 C20.2801,5.46992 22.8101,9.22998 26.27,11.3199 C27.2,11.88 31.3301,14.01 33.17,13.43 C33.54,13.31 33.8101,13.0899 33.95,12.76 C34.4601,11.5899 33.44,10.95 31.8801,9.98994 C31.2801,9.61992 30.6101,9.2 29.8801,8.66992 C26.5601,6.17998 25.1101,1.72998 26.1801,-2.65 C26.7601,-5.05 28.04,-7.21006 29.8801,-8.91006 C31.55,-10.4601 33.59,-11.5601 35.97,-12.2 C38.0101,-0.960059 40.07,10.1899 41.7101,18.55 C41.84,19.2399 41.9801,19.91 42.1101,20.58 C37.7101,21.51 33.37,21.4199 29.15,20.31 M54.9,10.1 C53.7301,13.28 51.27,17.35 46.14,19.41 C46.07,18.9899 45.99,18.56 45.9101,18.13 C44.3601,9.36992 42.4301,-1.61006 40.47,-12.87 C50.82,-13.35 55.09,-5.91006 55.9801,-1.08008 C56.45,1.45 56.45,5.88994 54.9,10.1"/>
<path class="KeySig" transform="matrix(2.3811,0,0,2.3811,429.785,2323.39)" d="M23.3,-10.6 C23.9,-10.7 24.4,-11.4 24.4,-12 L24.4,-17.9 C24.4,-18.7 23.8,-19.3 23,-19.3 L22.8,-19.3 L19.5,-18.6 L19.5,-33.5 L16.7,-33.5 L16.7,-18 L7.8,-16.2 L7.8,-30.3 L5,-30.3 L5,-15.6 L1.1,-14.8 C0.5,-14.7 0,-14 0,-13.4 L0,-13.2 L0,-7.4 L0,-7.6 C0,-6.8 0.6,-6.2 1.4,-6.2 L1.7,-6.2 L5,-6.9 L5,9.6 L1.1,10.4 C0.5,10.5 0,11.2 0,11.8 L0,17.6 C0,18.4 0.6,19 1.4,19 L1.7,19 L5,18.3 L5,33.2 L7.8,33.2 L7.8,17.7 L16.7,15.9 L16.7,30 L19.5,30 L19.5,15.3 L23.3,14.6 C23.9,14.5 24.4,13.8 24.4,13.2 L24.4,7.3 C24.4,6.5 23.8,5.9 23,5.9 L22.8,5.9 L19.5,6.6 L19.5,-9.9 L23.3,-10.6 M7.8,9.1 L7.8,-7.5 L16.7,-9.3 L16.7,7.2 L7.8,9.1 "/>
<path class="KeySig" transform="matrix(2.3811,0,0,2.3811,429.785,1408.26)" d="M23.3,-10.6 C23.9,-10.7 24.4,-11.4 24.4,-12 L24.4,-17.9 C24.4,-18.7 23.8,-19.3 23,-19.3 L22.8,-19.3 L19.5,-18.6 L19.5,-33.5 L16.7,-33.5 L16.7,-18 L7.8,-16.2 L7.8,-30.3 L5,-30.3 L5,-15.6 L1.1,-14.8 C0.5,-14.7 0,-14 0,-13.4 L0,-13.2 L0,-7.4 L0,-7.6 C0,-6.8 0.6,-6.2 1.4,-6.2 L1.7,-6.2 L5,-6.9 L5,9.6 L1.1,10.4 C0.5,10.5 0,11.2 0,11.8 L0,17.6 C0,18.4 0.6,19 1.4,19 L1.7,19 L5,18.3 L5,33.2 L7.8,33.2 L7.8,17.7 L16.7,15.9 L16.7,30 L19.5,30 L19.5,15.3 L23.3,14.6 C23.9,14.5 24.4,13.8 24.4,13.2 L24.4,7.3 C24.4,6.5 23.8,5.9 23,5.9 L22.8,5.9 L19.5,6.6 L19.5,-9.9 L23.3,-10.6 M7.8,9.1 L7.8,-7.5 L16.7,-9.3 L16.7,7.2 L7.8,9.1 "/>
<path class="FiguredBass" d="M661.251,1778.03 C661.251,1778.03 662.736,1778.24 665.704,1778.68 C667.003,1778.86 668.457,1779.05 670.065,1779.23 C674.332,1779.73 678.445,1779.97 682.403,1779.97 C686.362,1779.97 690.537,1779.73 694.928,1779.23 C696.66,1779.05 698.175,1778.86 699.474,1778.68 L704.02,1778.03 C704.947,1778.03 705.643,1778.34 706.107,1778.95 C706.571,1779.57 706.525,1780.07 705.968,1780.44 C696.505,1789.9 683.177,1794.63 665.983,1794.63 C665.302,1794.63 664.699,1794.88 664.174,1795.38 C663.648,1795.87 663.385,1796.49 663.385,1797.23 L663.385,1811.8 C667.776,1807.47 673.095,1805.3 679.342,1805.3 C688.372,1805.3 695.345,1807.33 700.262,1811.38 C705.179,1815.43 707.638,1821.57 707.638,1829.79 C707.638,1836.78 704.855,1842.58 699.288,1847.19 C693.722,1851.8 687.073,1854.1 679.342,1854.1 C672.662,1854.1 666.864,1852.59 661.947,1849.55 C657.03,1846.52 654.571,1842.32 654.571,1836.94 C654.571,1834.22 655.561,1831.85 657.54,1829.84 C659.519,1827.83 661.885,1826.83 664.637,1826.83 C667.39,1826.83 669.724,1827.81 671.642,1829.79 C673.559,1831.77 674.518,1834.15 674.518,1836.94 C674.518,1838.17 673.497,1839.52 671.456,1840.97 C669.415,1842.43 668.395,1843.77 668.395,1845.01 C668.395,1848.72 672.044,1850.58 679.342,1850.58 C686.455,1850.58 690.011,1843.65 690.011,1829.79 C690.011,1816.43 686.455,1809.72 679.342,1809.66 C672.972,1809.66 668.518,1810.96 665.983,1813.56 C663.447,1816.16 661.87,1817.46 661.251,1817.46 C659.705,1817.46 658.963,1816.68 659.025,1815.14 L659.025,1780.44 C659.025,1779.76 659.241,1779.19 659.674,1778.72 C660.107,1778.26 660.633,1778.03 661.251,1778.03"/>
<path class="FiguredBass" d="M695.763,1919.49 C695.763,1920.48 696.32,1921.44 697.433,1922.37 C698.546,1923.3 699.768,1924.18 701.097,1925.01 C702.427,1925.85 703.649,1927.43 704.762,1929.75 C705.875,1932.06 706.432,1934.99 706.432,1938.51 C706.432,1945.32 703.865,1950.57 698.732,1954.28 C693.598,1958 687.104,1959.85 679.249,1959.85 C672.941,1959.85 667.452,1958.27 662.782,1955.12 C658.112,1951.96 655.778,1947.82 655.778,1942.69 C655.778,1939.97 656.767,1937.6 658.746,1935.59 C660.725,1933.58 663.091,1932.58 665.843,1932.58 C668.596,1932.58 670.931,1933.56 672.848,1935.54 C674.765,1937.52 675.724,1939.9 675.724,1942.69 C675.724,1943.92 674.703,1945.27 672.662,1946.72 C670.621,1948.18 669.601,1949.52 669.601,1950.76 C669.601,1952.68 670.544,1954.08 672.43,1954.98 C674.317,1955.88 676.59,1956.33 679.249,1956.33 C682.713,1956.33 685.171,1954.61 686.625,1951.18 C688.078,1947.74 688.805,1943.52 688.805,1938.51 L688.805,1936.1 C688.805,1932.76 688.697,1930.22 688.48,1928.49 C688.264,1926.76 687.583,1925.22 686.439,1923.85 C685.295,1922.49 683.548,1921.81 681.197,1921.81 L669.044,1921.81 C667.622,1921.81 666.91,1921.04 666.91,1919.49 C666.91,1918.07 667.622,1917.36 669.044,1917.36 L681.197,1917.36 C683.733,1917.36 685.712,1916.4 687.135,1914.48 C687.63,1913.8 688.032,1912.69 688.341,1911.14 C688.65,1909.1 688.805,1906.17 688.805,1902.33 L688.805,1901.13 C688.805,1891.91 685.403,1887.3 678.6,1887.3 C672.6,1887.3 669.601,1888.97 669.601,1892.31 C669.601,1893.42 670.513,1894.62 672.338,1895.88 C674.162,1897.15 675.074,1898.34 675.074,1899.46 C675.074,1901.87 674.224,1903.94 672.523,1905.67 C670.822,1907.4 668.75,1908.27 666.307,1908.27 C663.864,1908.27 661.808,1907.4 660.138,1905.67 C658.468,1903.94 657.633,1901.87 657.633,1899.46 C657.633,1894.69 659.705,1890.89 663.849,1888.04 C667.993,1885.2 672.91,1883.78 678.6,1883.78 C686.084,1883.78 692.237,1885.21 697.062,1888.09 C701.886,1890.97 704.298,1895.31 704.298,1901.13 C704.298,1905.27 703.865,1908.49 702.999,1910.77 C702.133,1913.06 701.144,1914.45 700.03,1914.95 C698.917,1915.44 697.928,1916.02 697.062,1916.66 C696.196,1917.31 695.763,1918.26 695.763,1919.49"/>
<path class="FiguredBass" d="M692.237,2021.81 C697.185,2016.43 699.659,2011.24 699.659,2006.23 C699.659,2002.14 697.912,1998.93 694.418,1996.58 C690.923,1994.23 686.733,1993.05 681.847,1993.05 C678.383,1993.05 675.616,1994.13 673.544,1996.3 C671.472,1998.46 670.436,2000.97 670.436,2003.81 C670.436,2007.28 671.951,2009.91 674.982,2011.7 L692.237,2021.81 M696.783,2024.41 C705.195,2029.3 709.401,2035.73 709.401,2043.71 C709.401,2049.71 706.834,2054.85 701.7,2059.15 C696.567,2063.45 689.547,2065.6 680.641,2065.6 C673.157,2065.6 666.647,2063.62 661.112,2059.66 C655.577,2055.7 652.809,2050.57 652.809,2044.26 C652.809,2041.91 653.489,2039.53 654.85,2037.12 C656.21,2034.71 657.478,2032.9 658.653,2031.69 C659.829,2030.49 661.746,2028.61 664.405,2026.08 C658.221,2021.81 655.128,2016.43 655.128,2009.94 C655.128,2004.37 657.509,1999.58 662.272,1995.56 C667.034,1991.54 673.559,1989.53 681.847,1989.53 C688.465,1989.53 694.201,1991.03 699.056,1994.03 C703.911,1997.03 706.339,2001.09 706.339,2006.23 C706.339,2011.73 703.154,2017.79 696.783,2024.41 M668.951,2028.77 C662.643,2034.27 659.488,2039.44 659.488,2044.26 C659.488,2049.33 661.591,2053.57 665.797,2056.97 C670.003,2060.37 674.951,2062.08 680.641,2062.08 C684.599,2062.08 687.769,2060.81 690.15,2058.27 C692.531,2055.74 693.722,2052.8 693.722,2049.46 C693.722,2045.19 691.959,2042.04 688.434,2040 L668.951,2028.77 "/>
<path class="FiguredBass" d="M1586.52,1810.31 C1591.47,1804.93 1593.95,1799.74 1593.95,1794.73 C1593.95,1790.64 1592.2,1787.43 1588.71,1785.08 C1585.21,1782.73 1581.02,1781.55 1576.13,1781.55 C1572.67,1781.55 1569.9,1782.63 1567.83,1784.8 C1565.76,1786.96 1564.72,1789.47 1564.72,1792.31 C1564.72,1795.78 1566.24,1798.41 1569.27,1800.2 L1586.52,1810.31 M1591.07,1812.91 C1599.48,1817.8 1603.69,1824.23 1603.69,1832.21 C1603.69,1838.21 1601.12,1843.35 1595.99,1847.65 C1590.85,1851.95 1583.83,1854.1 1574.93,1854.1 C1567.44,1854.1 1560.93,1852.12 1555.4,1848.16 C1549.86,1844.2 1547.1,1839.07 1547.1,1832.76 C1547.1,1830.41 1547.78,1828.03 1549.14,1825.62 C1550.5,1823.21 1551.77,1821.4 1552.94,1820.19 C1554.12,1818.99 1556.03,1817.11 1558.69,1814.58 C1552.51,1810.31 1549.42,1804.93 1549.42,1798.44 C1549.42,1792.87 1551.8,1788.08 1556.56,1784.06 C1561.32,1780.04 1567.85,1778.03 1576.13,1778.03 C1582.75,1778.03 1588.49,1779.53 1593.34,1782.53 C1598.2,1785.53 1600.63,1789.59 1600.63,1794.73 C1600.63,1800.23 1597.44,1806.29 1591.07,1812.91 M1563.24,1817.27 C1556.93,1822.77 1553.78,1827.94 1553.78,1832.76 C1553.78,1837.83 1555.88,1842.07 1560.08,1845.47 C1564.29,1848.87 1569.24,1850.58 1574.93,1850.58 C1578.89,1850.58 1582.06,1849.31 1584.44,1846.77 C1586.82,1844.24 1588.01,1841.3 1588.01,1837.96 C1588.01,1833.69 1586.25,1830.54 1582.72,1828.5 L1563.24,1817.27 "/>
<path class="FiguredBass" d="M1555.54,1883.78 C1555.54,1883.78 1557.02,1883.99 1559.99,1884.43 C1561.29,1884.61 1562.74,1884.8 1564.35,1884.98 C1568.62,1885.48 1572.73,1885.72 1576.69,1885.72 C1580.65,1885.72 1584.82,1885.48 1589.22,1884.98 C1590.95,1884.8 1592.46,1884.61 1593.76,1884.43 L1598.31,1883.78 C1599.23,1883.78 1599.93,1884.09 1600.39,1884.7 C1600.86,1885.32 1600.81,1885.82 1600.26,1886.19 C1590.79,1895.65 1577.46,1900.38 1560.27,1900.38 C1559.59,1900.38 1558.99,1900.63 1558.46,1901.13 C1557.94,1901.62 1557.67,1902.24 1557.67,1902.98 L1557.67,1917.55 C1562.06,1913.22 1567.38,1911.05 1573.63,1911.05 C1582.66,1911.05 1589.63,1913.08 1594.55,1917.13 C1599.47,1921.18 1601.93,1927.32 1601.93,1935.54 C1601.93,1942.53 1599.14,1948.33 1593.58,1952.94 C1588.01,1957.55 1581.36,1959.85 1573.63,1959.85 C1566.95,1959.85 1561.15,1958.34 1556.23,1955.3 C1551.32,1952.27 1548.86,1948.07 1548.86,1942.69 C1548.86,1939.97 1549.85,1937.6 1551.83,1935.59 C1553.81,1933.58 1556.17,1932.58 1558.92,1932.58 C1561.68,1932.58 1564.01,1933.56 1565.93,1935.54 C1567.85,1937.52 1568.81,1939.9 1568.81,1942.69 C1568.81,1943.92 1567.78,1945.27 1565.74,1946.72 C1563.7,1948.18 1562.68,1949.52 1562.68,1950.76 C1562.68,1954.47 1566.33,1956.33 1573.63,1956.33 C1580.74,1956.33 1584.3,1949.4 1584.3,1935.54 C1584.3,1922.18 1580.74,1915.47 1573.63,1915.41 C1567.26,1915.41 1562.81,1916.71 1560.27,1919.31 C1557.73,1921.91 1556.16,1923.21 1555.54,1923.21 C1553.99,1923.21 1553.25,1922.43 1553.31,1920.89 L1553.31,1886.19 C1553.31,1885.51 1553.53,1884.94 1553.96,1884.47 C1554.39,1884.01 1554.92,1883.78 1555.54,1883.78"/>
<path class="FiguredBass" d="M1590.05,2025.24 C1590.05,2026.23 1590.61,2027.19 1591.72,2028.12 C1592.83,2029.05 1594.06,2029.93 1595.38,2030.76 C1596.71,2031.6 1597.94,2033.18 1599.05,2035.5 C1600.16,2037.81 1600.72,2040.74 1600.72,2044.26 C1600.72,2051.07 1598.15,2056.32 1593.02,2060.03 C1587.89,2063.75 1581.39,2065.6 1573.54,2065.6 C1567.23,2065.6 1561.74,2064.02 1557.07,2060.87 C1552.4,2057.71 1550.06,2053.57 1550.06,2048.44 C1550.06,2045.72 1551.05,2043.35 1553.03,2041.34 C1555.01,2039.33 1557.38,2038.33 1560.13,2038.33 C1562.88,2038.33 1565.22,2039.31 1567.14,2041.29 C1569.05,2043.27 1570.01,2045.65 1570.01,2048.44 C1570.01,2049.67 1568.99,2051.02 1566.95,2052.47 C1564.91,2053.93 1563.89,2055.27 1563.89,2056.51 C1563.89,2058.43 1564.83,2059.83 1566.72,2060.73 C1568.6,2061.63 1570.88,2062.08 1573.54,2062.08 C1577,2062.08 1579.46,2060.36 1580.91,2056.93 C1582.37,2053.49 1583.09,2049.27 1583.09,2044.26 L1583.09,2041.85 C1583.09,2038.51 1582.98,2035.97 1582.77,2034.24 C1582.55,2032.51 1581.87,2030.97 1580.73,2029.6 C1579.58,2028.24 1577.84,2027.56 1575.48,2027.56 L1563.33,2027.56 C1561.91,2027.56 1561.2,2026.79 1561.2,2025.24 C1561.2,2023.82 1561.91,2023.11 1563.33,2023.11 L1575.48,2023.11 C1578.02,2023.11 1580,2022.15 1581.42,2020.23 C1581.92,2019.55 1582.32,2018.44 1582.63,2016.89 C1582.94,2014.85 1583.09,2011.92 1583.09,2008.08 L1583.09,2006.88 C1583.09,1997.66 1579.69,1993.05 1572.89,1993.05 C1566.89,1993.05 1563.89,1994.72 1563.89,1998.06 C1563.89,1999.17 1564.8,2000.37 1566.63,2001.63 C1568.45,2002.9 1569.36,2004.09 1569.36,2005.21 C1569.36,2007.62 1568.51,2009.69 1566.81,2011.42 C1565.11,2013.15 1563.04,2014.02 1560.59,2014.02 C1558.15,2014.02 1556.1,2013.15 1554.43,2011.42 C1552.76,2009.69 1551.92,2007.62 1551.92,2005.21 C1551.92,2000.44 1553.99,1996.64 1558.14,1993.79 C1562.28,1990.95 1567.2,1989.53 1572.89,1989.53 C1580.37,1989.53 1586.52,1990.96 1591.35,1993.84 C1596.17,1996.72 1598.59,2001.06 1598.59,2006.88 C1598.59,2011.02 1598.15,2014.24 1597.29,2016.52 C1596.42,2018.81 1595.43,2020.2 1594.32,2020.7 C1593.2,2021.19 1592.22,2021.77 1591.35,2022.41 C1590.48,2023.06 1590.05,2024.01 1590.05,2025.24"/>
<path class="FiguredBass" d="M2506.57,1813.74 C2506.57,1814.73 2507.13,1815.69 2508.24,1816.62 C2509.36,1817.55 2510.58,1818.43 2511.91,1819.26 C2513.24,1820.1 2514.46,1821.68 2515.57,1824 C2516.69,1826.31 2517.24,1829.24 2517.24,1832.76 C2517.24,1839.57 2514.68,1844.82 2509.54,1848.53 C2504.41,1852.25 2497.91,1854.1 2490.06,1854.1 C2483.75,1854.1 2478.26,1852.52 2473.59,1849.37 C2468.92,1846.21 2466.59,1842.07 2466.59,1836.94 C2466.59,1834.22 2467.58,1831.85 2469.56,1829.84 C2471.54,1827.83 2473.9,1826.83 2476.65,1826.83 C2479.41,1826.83 2481.74,1827.81 2483.66,1829.79 C2485.58,1831.77 2486.53,1834.15 2486.53,1836.94 C2486.53,1838.17 2485.51,1839.52 2483.47,1840.97 C2481.43,1842.43 2480.41,1843.77 2480.41,1845.01 C2480.41,1846.93 2481.35,1848.33 2483.24,1849.23 C2485.13,1850.13 2487.4,1850.58 2490.06,1850.58 C2493.52,1850.58 2495.98,1848.86 2497.44,1845.43 C2498.89,1841.99 2499.62,1837.77 2499.62,1832.76 L2499.62,1830.35 C2499.62,1827.01 2499.51,1824.47 2499.29,1822.74 C2499.07,1821.01 2498.39,1819.47 2497.25,1818.1 C2496.11,1816.74 2494.36,1816.06 2492.01,1816.06 L2479.85,1816.06 C2478.43,1816.06 2477.72,1815.29 2477.72,1813.74 C2477.72,1812.32 2478.43,1811.61 2479.85,1811.61 L2492.01,1811.61 C2494.54,1811.61 2496.52,1810.65 2497.95,1808.73 C2498.44,1808.05 2498.84,1806.94 2499.15,1805.39 C2499.46,1803.35 2499.62,1800.42 2499.62,1796.58 L2499.62,1795.38 C2499.62,1786.16 2496.21,1781.55 2489.41,1781.55 C2483.41,1781.55 2480.41,1783.22 2480.41,1786.56 C2480.41,1787.67 2481.32,1788.87 2483.15,1790.13 C2484.97,1791.4 2485.88,1792.59 2485.88,1793.71 C2485.88,1796.12 2485.03,1798.19 2483.33,1799.92 C2481.63,1801.65 2479.56,1802.52 2477.12,1802.52 C2474.67,1802.52 2472.62,1801.65 2470.95,1799.92 C2469.28,1798.19 2468.44,1796.12 2468.44,1793.71 C2468.44,1788.94 2470.52,1785.14 2474.66,1782.29 C2478.8,1779.45 2483.72,1778.03 2489.41,1778.03 C2496.89,1778.03 2503.05,1779.46 2507.87,1782.34 C2512.7,1785.22 2515.11,1789.56 2515.11,1795.38 C2515.11,1799.52 2514.68,1802.74 2513.81,1805.02 C2512.94,1807.31 2511.95,1808.7 2510.84,1809.2 C2509.73,1809.69 2508.74,1810.27 2507.87,1810.91 C2507.01,1811.56 2506.57,1812.51 2506.57,1813.74"/>
<path class="FiguredBass" d="M2503.05,1916.06 C2508,1910.68 2510.47,1905.49 2510.47,1900.48 C2510.47,1896.39 2508.72,1893.18 2505.23,1890.83 C2501.73,1888.48 2497.54,1887.3 2492.66,1887.3 C2489.19,1887.3 2486.43,1888.38 2484.35,1890.55 C2482.28,1892.71 2481.25,1895.22 2481.25,1898.06 C2481.25,1901.53 2482.76,1904.16 2485.79,1905.95 L2503.05,1916.06 M2507.59,1918.66 C2516.01,1923.55 2520.21,1929.98 2520.21,1937.96 C2520.21,1943.96 2517.64,1949.1 2512.51,1953.4 C2507.38,1957.7 2500.36,1959.85 2491.45,1959.85 C2483.97,1959.85 2477.46,1957.87 2471.92,1953.91 C2466.39,1949.95 2463.62,1944.82 2463.62,1938.51 C2463.62,1936.16 2464.3,1933.78 2465.66,1931.37 C2467.02,1928.96 2468.29,1927.15 2469.46,1925.94 C2470.64,1924.74 2472.56,1922.86 2475.22,1920.33 C2469.03,1916.06 2465.94,1910.68 2465.94,1904.19 C2465.94,1898.62 2468.32,1893.83 2473.08,1889.81 C2477.84,1885.79 2484.37,1883.78 2492.66,1883.78 C2499.28,1883.78 2505.01,1885.28 2509.87,1888.28 C2514.72,1891.28 2517.15,1895.34 2517.15,1900.48 C2517.15,1905.98 2513.96,1912.04 2507.59,1918.66 M2479.76,1923.02 C2473.45,1928.52 2470.3,1933.69 2470.3,1938.51 C2470.3,1943.58 2472.4,1947.82 2476.61,1951.22 C2480.81,1954.62 2485.76,1956.33 2491.45,1956.33 C2495.41,1956.33 2498.58,1955.06 2500.96,1952.52 C2503.34,1949.99 2504.53,1947.05 2504.53,1943.71 C2504.53,1939.44 2502.77,1936.29 2499.24,1934.25 L2479.76,1923.02 "/>
<path class="FiguredBass" d="M2472.06,1989.53 C2472.06,1989.53 2473.55,1989.74 2476.51,1990.18 C2477.81,1990.36 2479.27,1990.55 2480.87,1990.73 C2485.14,1991.23 2489.26,1991.47 2493.21,1991.47 C2497.17,1991.47 2501.35,1991.23 2505.74,1990.73 C2507.47,1990.55 2508.99,1990.36 2510.28,1990.18 L2514.83,1989.53 C2515.76,1989.53 2516.45,1989.84 2516.92,1990.45 C2517.38,1991.07 2517.33,1991.57 2516.78,1991.94 C2507.32,2001.4 2493.99,2006.13 2476.79,2006.13 C2476.11,2006.13 2475.51,2006.38 2474.98,2006.88 C2474.46,2007.37 2474.2,2007.99 2474.2,2008.73 L2474.2,2023.3 C2478.59,2018.97 2483.91,2016.8 2490.15,2016.8 C2499.18,2016.8 2506.16,2018.83 2511.07,2022.88 C2515.99,2026.93 2518.45,2033.07 2518.45,2041.29 C2518.45,2048.28 2515.67,2054.08 2510.1,2058.69 C2504.53,2063.3 2497.88,2065.6 2490.15,2065.6 C2483.47,2065.6 2477.67,2064.09 2472.76,2061.05 C2467.84,2058.02 2465.38,2053.82 2465.38,2048.44 C2465.38,2045.72 2466.37,2043.35 2468.35,2041.34 C2470.33,2039.33 2472.7,2038.33 2475.45,2038.33 C2478.2,2038.33 2480.53,2039.31 2482.45,2041.29 C2484.37,2043.27 2485.33,2045.65 2485.33,2048.44 C2485.33,2049.67 2484.31,2051.02 2482.27,2052.47 C2480.23,2053.93 2479.21,2055.27 2479.21,2056.51 C2479.21,2060.22 2482.85,2062.08 2490.15,2062.08 C2497.26,2062.08 2500.82,2055.15 2500.82,2041.29 C2500.82,2027.93 2497.26,2021.22 2490.15,2021.16 C2483.78,2021.16 2479.33,2022.46 2476.79,2025.06 C2474.26,2027.66 2472.68,2028.96 2472.06,2028.96 C2470.52,2028.96 2469.77,2028.18 2469.83,2026.64 L2469.83,1991.94 C2469.83,1991.26 2470.05,1990.69 2470.48,1990.22 C2470.92,1989.76 2471.44,1989.53 2472.06,1989.53"/>
<path class="FiguredBass" d="M3372.08,1813.74 C3372.08,1814.73 3372.63,1815.69 3373.75,1816.62 C3374.86,1817.55 3376.08,1818.43 3377.41,1819.26 C3378.74,1820.1 3379.96,1821.68 3381.08,1824 C3382.19,1826.31 3382.75,1829.24 3382.75,1832.76 C3382.75,1839.57 3380.18,1844.82 3375.05,1848.53 C3369.91,1852.25 3363.42,1854.1 3355.56,1854.1 C3349.25,1854.1 3343.77,1852.52 3339.1,1849.37 C3334.43,1846.21 3332.09,1842.07 3332.09,1836.94 C3332.09,1834.22 3333.08,1831.85 3335.06,1829.84 C3337.04,1827.83 3339.41,1826.83 3342.16,1826.83 C3344.91,1826.83 3347.24,1827.81 3349.16,1829.79 C3351.08,1831.77 3352.04,1834.15 3352.04,1836.94 C3352.04,1838.17 3351.02,1839.52 3348.98,1840.97 C3346.94,1842.43 3345.92,1843.77 3345.92,1845.01 C3345.92,1846.93 3346.86,1848.33 3348.74,1849.23 C3350.63,1850.13 3352.9,1850.58 3355.56,1850.58 C3359.03,1850.58 3361.49,1848.86 3362.94,1845.43 C3364.39,1841.99 3365.12,1837.77 3365.12,1832.76 L3365.12,1830.35 C3365.12,1827.01 3365.01,1824.47 3364.79,1822.74 C3364.58,1821.01 3363.9,1819.47 3362.75,1818.1 C3361.61,1816.74 3359.86,1816.06 3357.51,1816.06 L3345.36,1816.06 C3343.94,1816.06 3343.22,1815.29 3343.22,1813.74 C3343.22,1812.32 3343.94,1811.61 3345.36,1811.61 L3357.51,1811.61 C3360.05,1811.61 3362.03,1810.65 3363.45,1808.73 C3363.94,1808.05 3364.35,1806.94 3364.66,1805.39 C3364.96,1803.35 3365.12,1800.42 3365.12,1796.58 L3365.12,1795.38 C3365.12,1786.16 3361.72,1781.55 3354.91,1781.55 C3348.91,1781.55 3345.92,1783.22 3345.92,1786.56 C3345.92,1787.67 3346.83,1788.87 3348.65,1790.13 C3350.48,1791.4 3351.39,1792.59 3351.39,1793.71 C3351.39,1796.12 3350.54,1798.19 3348.84,1799.92 C3347.14,1801.65 3345.06,1802.52 3342.62,1802.52 C3340.18,1802.52 3338.12,1801.65 3336.45,1799.92 C3334.78,1798.19 3333.95,1796.12 3333.95,1793.71 C3333.95,1788.94 3336.02,1785.14 3340.16,1782.29 C3344.31,1779.45 3349.22,1778.03 3354.91,1778.03 C3362.4,1778.03 3368.55,1779.46 3373.38,1782.34 C3378.2,1785.22 3380.61,1789.56 3380.61,1795.38 C3380.61,1799.52 3380.18,1802.74 3379.31,1805.02 C3378.45,1807.31 3377.46,1808.7 3376.34,1809.2 C3375.23,1809.69 3374.24,1810.27 3373.38,1810.91 C3372.51,1811.56 3372.08,1812.51 3372.08,1813.74"/>
<path class="FiguredBass" d="M3368.55,1916.06 C3373.5,1910.68 3375.97,1905.49 3375.97,1900.48 C3375.97,1896.39 3374.23,1893.18 3370.73,1890.83 C3367.24,1888.48 3363.05,1887.3 3358.16,1887.3 C3354.7,1887.3 3351.93,1888.38 3349.86,1890.55 C3347.79,1892.71 3346.75,1895.22 3346.75,1898.06 C3346.75,1901.53 3348.27,1904.16 3351.3,1905.95 L3368.55,1916.06 M3373.1,1918.66 C3381.51,1923.55 3385.71,1929.98 3385.71,1937.96 C3385.71,1943.96 3383.15,1949.1 3378.01,1953.4 C3372.88,1957.7 3365.86,1959.85 3356.96,1959.85 C3349.47,1959.85 3342.96,1957.87 3337.43,1953.91 C3331.89,1949.95 3329.12,1944.82 3329.12,1938.51 C3329.12,1936.16 3329.8,1933.78 3331.16,1931.37 C3332.52,1928.96 3333.79,1927.15 3334.97,1925.94 C3336.14,1924.74 3338.06,1922.86 3340.72,1920.33 C3334.53,1916.06 3331.44,1910.68 3331.44,1904.19 C3331.44,1898.62 3333.82,1893.83 3338.59,1889.81 C3343.35,1885.79 3349.87,1883.78 3358.16,1883.78 C3364.78,1883.78 3370.52,1885.28 3375.37,1888.28 C3380.23,1891.28 3382.65,1895.34 3382.65,1900.48 C3382.65,1905.98 3379.47,1912.04 3373.1,1918.66 M3345.27,1923.02 C3338.96,1928.52 3335.8,1933.69 3335.8,1938.51 C3335.8,1943.58 3337.91,1947.82 3342.11,1951.22 C3346.32,1954.62 3351.27,1956.33 3356.96,1956.33 C3360.91,1956.33 3364.08,1955.06 3366.46,1952.52 C3368.85,1949.99 3370.04,1947.05 3370.04,1943.71 C3370.04,1939.44 3368.27,1936.29 3364.75,1934.25 L3345.27,1923.02 "/>
<path class="FiguredBass" d="M3337.57,1989.53 C3337.57,1989.53 3339.05,1989.74 3342.02,1990.18 C3343.32,1990.36 3344.77,1990.55 3346.38,1990.73 C3350.65,1991.23 3354.76,1991.47 3358.72,1991.47 C3362.68,1991.47 3366.85,1991.23 3371.24,1990.73 C3372.97,1990.55 3374.49,1990.36 3375.79,1990.18 L3380.33,1989.53 C3381.26,1989.53 3381.96,1989.84 3382.42,1990.45 C3382.89,1991.07 3382.84,1991.57 3382.28,1991.94 C3372.82,2001.4 3359.49,2006.13 3342.3,2006.13 C3341.62,2006.13 3341.01,2006.38 3340.49,2006.88 C3339.96,2007.37 3339.7,2007.99 3339.7,2008.73 L3339.7,2023.3 C3344.09,2018.97 3349.41,2016.8 3355.66,2016.8 C3364.69,2016.8 3371.66,2018.83 3376.58,2022.88 C3381.49,2026.93 3383.95,2033.07 3383.95,2041.29 C3383.95,2048.28 3381.17,2054.08 3375.6,2058.69 C3370.04,2063.3 3363.39,2065.6 3355.66,2065.6 C3348.98,2065.6 3343.18,2064.09 3338.26,2061.05 C3333.34,2058.02 3330.89,2053.82 3330.89,2048.44 C3330.89,2045.72 3331.88,2043.35 3333.85,2041.34 C3335.83,2039.33 3338.2,2038.33 3340.95,2038.33 C3343.7,2038.33 3346.04,2039.31 3347.96,2041.29 C3349.87,2043.27 3350.83,2045.65 3350.83,2048.44 C3350.83,2049.67 3349.81,2051.02 3347.77,2052.47 C3345.73,2053.93 3344.71,2055.27 3344.71,2056.51 C3344.71,2060.22 3348.36,2062.08 3355.66,2062.08 C3362.77,2062.08 3366.33,2055.15 3366.33,2041.29 C3366.33,2027.93 3362.77,2021.22 3355.66,2021.16 C3349.29,2021.16 3344.83,2022.46 3342.3,2025.06 C3339.76,2027.66 3338.18,2028.96 3337.57,2028.96 C3336.02,2028.96 3335.28,2028.18 3335.34,2026.64 L3335.34,1991.94 C3335.34,1991.26 3335.56,1990.69 3335.99,1990.22 C3336.42,1989.76 3336.95,1989.53 3337.57,1989.53"/>
<polyline class="FretDiagram" stroke="#fc02ff" stroke-width="11.91" stroke-linejoin="bevel" points="580.269,214.133 793.377,214.133"/>
<polyline class="FretDiagram" stroke="#fc02ff" stroke-width="4.76" stroke-linejoin="bevel" points="582.65,214.133 582.65,428.432"/>
<polyline class="FretDiagram" stroke="#fc02ff" stroke-width="4.76" stroke-linejoin="bevel" points="624.319,214.133 624.319,428.432"/>
<polyline class="FretDiagram" stroke="#fc02ff" stroke-width="4.76" stroke-linejoin="bevel" points="665.988,214.133 665.988,428.432"/>
<polyline class="FretDiagram" stroke="#fc02ff" stroke-width="4.76" stroke-linejoin="bevel" points="707.658,214.133 707.658,428.432"/>
<polyline class="FretDiagram" stroke="#fc02ff" stroke-width="4.76" stroke-linejoin="bevel" points="749.327,214.133 749.327,428.432"/>
<polyline class="FretDiagram" stroke="#fc02ff" stroke-width="4.76" stroke-linejoin="bevel" points="790.996,214.133 790.996,428.432"/>
<polyline class="FretDiagram" stroke="#fc02ff" stroke-width="4.76" stroke-linejoin="bevel" points="582.65,261.755 790.996,261.755"/>
<polyline class="FretDiagram" stroke="#fc02ff" stroke-width="4.76" stroke-linejoin="bevel" points="582.65,309.377 790.996,309.377"/>
<polyline class="FretDiagram" stroke="#fc02ff" stroke-width="4.76" stroke-linejoin="bevel" points="582.65,356.999 790.996,356.999"/>
<polyline class="FretDiagram" stroke="#fc02ff" stroke-width="4.76" stroke-linejoin="bevel" points="582.65,404.621 790.996,404.621"/>
<path class="FretDiagram" fill="#fc02ff" fill-rule="evenodd" d="M638.903,285.566 C638.903,293.62 632.374,300.15 624.319,300.15 C616.264,300.15 609.735,293.62 609.735,285.566 C609.735,277.511 616.264,270.982 624.319,270.982 C632.374,270.982 638.903,277.511 638.903,285.566"/>
<path class="FretDiagram" fill="#fc02ff" fill-rule="evenodd" d="M805.58,285.566 C805.58,293.62 799.051,300.15 790.996,300.15 C782.942,300.15 776.412,293.62 776.412,285.566 C776.412,277.511 782.942,270.982 790.996,270.982 C799.051,270.982 805.58,277.511 805.58,285.566"/>
<polyline class="FretDiagram" fill="none" stroke="#fc02ff" stroke-width="6.86" stroke-linecap="round" stroke-linejoin="bevel" points="565.982,149.843 599.317,183.178"/>
<polyline class="FretDiagram" fill="none" stroke="#fc02ff" stroke-width="6.86" stroke-linecap="round" stroke-linejoin="bevel" points="565.982,183.178 599.317,149.843"/>
<path class="FretDiagram" fill="none" stroke="#fc02ff" stroke-width="6.86" stroke-linecap="round" stroke-linejoin="bevel" fill-rule="evenodd" d="M682.656,166.511 C682.656,175.716 675.194,183.178 665.988,183.178 C656.783,183.178 649.321,175.716 649.321,166.511 C649.321,157.305 656.783,149.843 665.988,149.843 C675.194,149.843 682.656,157.305 682.656,166.511"/>
<path class="FretDiagram" fill="none" stroke="#fc02ff" stroke-width="6.86" stroke-linecap="round" stroke-linejoin="bevel" fill-rule="evenodd" d="M724.325,166.511 C724.325,175.716 716.863,183.178 707.658,183.178 C698.452,183.178 690.99,175.716 690.99,166.511 C690.99,157.305 698.452,149.843 707.658,149.843 C716.863,149.843 724.325,157.305 724.325,166.511"/>
<path class="FretDiagram" fill="none" stroke="#fc02ff" stroke-width="6.86" stroke-linecap="round" stroke-linejoin="bevel" fill-rule="evenodd" d="M765.995,166.511 C765.995,175.716 758.532,183.178 749.327,183.178 C740.122,183.178 732.659,175.716 732.659,166.511 C732.659,157.305 740.122,149.843 749.327,149.843 C758.532,149.843 765.995,157.305 765.995,166.511"/>
<polyline class="FretDiagram" fill="#fc02ff" stroke="#fc02ff" stroke-width="4.76" stroke-linejoin="bevel" points="1474.56,214.133 1687.66,214.133"/>
<polyline class="FretDiagram" fill="#fc02ff" stroke="#fc02ff" stroke-width="4.76" stroke-linejoin="bevel" points="1476.94,202.227 1476.94,428.432"/>
<polyline class="FretDiagram" fill="#fc02ff" stroke="#fc02ff" stroke-width="4.76" stroke-linejoin="bevel" points="1518.61,202.227 1518.61,428.432"/>
<polyline class="FretDiagram" fill="#fc02ff" stroke="#fc02ff" stroke-width="4.76" stroke-linejoin="bevel" points="1560.28,202.227 1560.28,428.432"/>
<polyline class="FretDiagram" fill="#fc02ff" stroke="#fc02ff" stroke-width="4.76" stroke-linejoin="bevel" points="1601.95,202.227 1601.95,428.432"/>
<polyline class="FretDiagram" fill="#fc02ff" stroke="#fc02ff" stroke-width="4.76" stroke-linejoin="bevel" points="1643.61,202.227 1643.61,428.432"/>
<polyline class="FretDiagram" fill="#fc02ff" stroke="#fc02ff" stroke-width="4.76" stroke-linejoin="bevel" points="1685.28,202.227 1685.28,428.432"/>
<polyline class="FretDiagram" fill="#fc02ff" stroke="#fc02ff" stroke-width="4.76" stroke-linejoin="bevel" points="1476.94,261.755 1685.28,261.755"/>
<polyline class="FretDiagram" fill="#fc02ff" stroke="#fc02ff" stroke-width="4.76" stroke-linejoin="bevel" points="1476.94,309.377 1685.28,309.377"/>
<polyline class="FretDiagram" fill="#fc02ff" stroke="#fc02ff" stroke-width="4.76" stroke-linejoin="bevel" points="1476.94,356.999 1685.28,356.999"/>
<polyline class="FretDiagram" fill="#fc02ff" stroke="#fc02ff" stroke-width="4.76" stroke-linejoin="bevel" points="1476.94,404.621 1685.28,404.621"/>
<path class="FretDiagram" fill="#fc02ff" fill-rule="evenodd" d="M1574.86,333.188 C1574.86,341.243 1568.33,347.772 1560.28,347.772 C1552.22,347.772 1545.69,341.243 1545.69,333.188 C1545.69,325.133 1552.22,318.604 1560.28,318.604 C1568.33,318.604 1574.86,325.133 1574.86,333.188"/>
<path class="FretDiagram" fill="#fc02ff" fill-rule="evenodd" d="M1616.53,380.81 C1616.53,388.865 1610,395.394 1601.95,395.394 C1593.89,395.394 1587.36,388.865 1587.36,380.81 C1587.36,372.755 1593.89,366.226 1601.95,366.226 C1610,366.226 1616.53,372.755 1616.53,380.81"/>
<path class="FretDiagram" fill="#fc02ff" fill-rule="evenodd" d="M1658.2,285.566 C1658.2,293.62 1651.67,300.15 1643.61,300.15 C1635.56,300.15 1629.03,293.62 1629.03,285.566 C1629.03,277.511 1635.56,270.982 1643.61,270.982 C1651.67,270.982 1658.2,277.511 1658.2,285.566"/>
<polyline class="FretDiagram" fill="none" stroke="#fc02ff" stroke-width="6.86" stroke-linecap="round" stroke-linejoin="bevel" points="1460.27,149.843 1493.6,183.178"/>
<polyline class="FretDiagram" fill="none" stroke="#fc02ff" stroke-width="6.86" stroke-linecap="round" stroke-linejoin="bevel" points="1460.27,183.178 1493.6,149.843"/>
<path class="FretDiagram" fill="none" stroke="#fc02ff" stroke-width="6.86" stroke-linecap="round" stroke-linejoin="bevel" fill-rule="evenodd" d="M1535.27,166.511 C1535.27,175.716 1527.81,183.178 1518.61,183.178 C1509.4,183.178 1501.94,175.716 1501.94,166.511 C1501.94,157.305 1509.4,149.843 1518.61,149.843 C1527.81,149.843 1535.27,157.305 1535.27,166.511"/>
<path class="FretDiagram" fill="none" stroke="#fc02ff" stroke-width="6.86" stroke-linecap="round" stroke-linejoin="bevel" fill-rule="evenodd" d="M1701.95,166.511 C1701.95,175.716 1694.49,183.178 1685.28,183.178 C1676.08,183.178 1668.62,175.716 1668.62,166.511 C1668.62,157.305 1676.08,149.843 1685.28,149.843 C1694.49,149.843 1701.95,157.305 1701.95,166.511"/>
<polyline class="FretDiagram" fill="none" stroke="#fc02ff" stroke-width="29.17" stroke-linecap="round" stroke-linejoin="bevel" points="1518.61,237.944 1685.28,237.944"/>
<path class="FretDiagram" fill="#fc02ff" d="M1412.22,227.21 C1412.66,211.63 1420.07,203.84 1434.45,203.84 C1440.85,203.84 1446.04,205.677 1450.03,209.35 C1454.02,213.024 1456.01,217.774 1456.01,223.6 C1456.01,231.96 1451.26,238.737 1441.76,243.93 L1432.26,249.06 C1428.15,251.277 1425.2,253.43 1423.43,255.52 C1421.66,257.61 1420.55,260.08 1420.1,262.93 L1455.54,262.93 L1455.54,271.195 L1410.7,271.195 C1411.08,263.785 1412.57,258.069 1415.16,254.048 C1417.76,250.026 1422.57,246.02 1429.6,242.03 L1438.34,237.09 C1444.42,233.607 1447.46,229.174 1447.46,223.79 C1447.46,220.18 1446.2,217.172 1443.66,214.765 C1441.13,212.359 1437.96,211.155 1434.16,211.155 C1425.74,211.155 1421.21,216.507 1420.58,227.21 L1412.22,227.21 "/>
<polyline class="FretDiagram" fill="#fc02ff" stroke="#fc0107" stroke-width="4.76" stroke-linejoin="bevel" points="2391.08,206.022 2604.19,206.022"/>
<polyline class="FretDiagram" fill="#fc02ff" stroke="#fc0107" stroke-width="4.76" stroke-linejoin="bevel" points="2393.46,194.117 2393.46,420.321"/>
<polyline class="FretDiagram" fill="#fc02ff" stroke="#fc0107" stroke-width="4.76" stroke-linejoin="bevel" points="2435.13,194.117 2435.13,420.321"/>
<polyline class="FretDiagram" fill="#fc02ff" stroke="#fc0107" stroke-width="4.76" stroke-linejoin="bevel" points="2476.8,194.117 2476.8,420.321"/>
<polyline class="FretDiagram" fill="#fc02ff" stroke="#fc0107" stroke-width="4.76" stroke-linejoin="bevel" points="2518.47,194.117 2518.47,420.321"/>
<polyline class="FretDiagram" fill="#fc02ff" stroke="#fc0107" stroke-width="4.76" stroke-linejoin="bevel" points="2560.14,194.117 2560.14,420.321"/>
<polyline class="FretDiagram" fill="#fc02ff" stroke="#fc0107" stroke-width="4.76" stroke-linejoin="bevel" points="2601.81,194.117 2601.81,420.321"/>
<polyline class="FretDiagram" fill="#fc02ff" stroke="#fc0107" stroke-width="4.76" stroke-linejoin="bevel" points="2393.46,253.644 2601.81,253.644"/>
<polyline class="FretDiagram" fill="#fc02ff" stroke="#fc0107" stroke-width="4.76" stroke-linejoin="bevel" points="2393.46,301.266 2601.81,301.266"/>
<polyline class="FretDiagram" fill="#fc02ff" stroke="#fc0107" stroke-width="4.76" stroke-linejoin="bevel" points="2393.46,348.888 2601.81,348.888"/>
<polyline class="FretDiagram" fill="#fc02ff" stroke="#fc0107" stroke-width="4.76" stroke-linejoin="bevel" points="2393.46,396.51 2601.81,396.51"/>
<path class="FretDiagram" fill="#fc0107" fill-rule="evenodd" d="M2491.38,325.077 C2491.38,333.132 2484.85,339.661 2476.8,339.661 C2468.74,339.661 2462.21,333.132 2462.21,325.077 C2462.21,317.023 2468.74,310.493 2476.8,310.493 C2484.85,310.493 2491.38,317.023 2491.38,325.077"/>
<path class="FretDiagram" fill="#fc0107" fill-rule="evenodd" d="M2533.05,277.455 C2533.05,285.51 2526.52,292.039 2518.47,292.039 C2510.41,292.039 2503.88,285.51 2503.88,277.455 C2503.88,269.401 2510.41,262.871 2518.47,262.871 C2526.52,262.871 2533.05,269.401 2533.05,277.455"/>
<polyline class="FretDiagram" fill="none" stroke="#fc0107" stroke-width="6.86" stroke-linecap="round" stroke-linejoin="bevel" points="2376.79,141.732 2410.13,175.068"/>
<polyline class="FretDiagram" fill="none" stroke="#fc0107" stroke-width="6.86" stroke-linecap="round" stroke-linejoin="bevel" points="2376.79,175.068 2410.13,141.732"/>
<polyline class="FretDiagram" fill="none" stroke="#fc0107" stroke-width="6.86" stroke-linecap="round" stroke-linejoin="bevel" points="2418.46,141.732 2451.8,175.068"/>
<polyline class="FretDiagram" fill="none" stroke="#fc0107" stroke-width="6.86" stroke-linecap="round" stroke-linejoin="bevel" points="2418.46,175.068 2451.8,141.732"/>
<path class="FretDiagram" fill="none" stroke="#fc0107" stroke-width="6.86" stroke-linecap="round" stroke-linejoin="bevel" fill-rule="evenodd" d="M2576.8,158.4 C2576.8,167.605 2569.34,175.068 2560.14,175.068 C2550.93,175.068 2543.47,167.605 2543.47,158.4 C2543.47,149.195 2550.93,141.732 2560.14,141.732 C2569.34,141.732 2576.8,149.195 2576.8,158.4"/>
<path class="FretDiagram" fill="none" stroke="#fc0107" stroke-width="6.86" stroke-linecap="round" stroke-linejoin="bevel" fill-rule="evenodd" d="M2618.47,158.4 C2618.47,167.605 2611.01,175.068 2601.81,175.068 C2592.6,175.068 2585.14,167.605 2585.14,158.4 C2585.14,149.195 2592.6,141.732 2601.81,141.732 C2611.01,141.732 2618.47,149.195 2618.47,158.4"/>
<polyline class="FretDiagram" fill="none" stroke="#fc0107" stroke-width="29.17" stroke-linecap="round" stroke-linejoin="bevel" points="2560.14,229.833 2601.81,229.833"/>
<path class="FretDiagram" fill="#fc0107" d="M2373.39,195.73 L2373.39,202.76 C2365.79,212.893 2359.79,222.789 2355.39,232.447 C2350.99,242.105 2347.87,252.318 2346.03,263.085 L2337.1,263.085 C2339.63,252.001 2342.86,242.248 2346.79,233.825 C2350.72,225.401 2356.7,215.458 2364.75,203.995 L2328.36,203.995 L2328.36,195.73 L2373.39,195.73 "/>
<polyline class="FretDiagram" fill="#fc0107" stroke="#0000ff" stroke-width="4.76" stroke-linejoin="bevel" points="3256.58,214.133 3469.69,214.133"/>
<polyline class="FretDiagram" fill="#fc0107" stroke="#0000ff" stroke-width="4.76" stroke-linejoin="bevel" points="3258.96,202.227 3258.96,428.432"/>
<polyline class="FretDiagram" fill="#fc0107" stroke="#0000ff" stroke-width="4.76" stroke-linejoin="bevel" points="3300.63,202.227 3300.63,428.432"/>
<polyline class="FretDiagram" fill="#fc0107" stroke="#0000ff" stroke-width="4.76" stroke-linejoin="bevel" points="3342.3,202.227 3342.3,428.432"/>
<polyline class="FretDiagram" fill="#fc0107" stroke="#0000ff" stroke-width="4.76" stroke-linejoin="bevel" points="3383.97,202.227 3383.97,428.432"/>
<polyline class="FretDiagram" fill="#fc0107" stroke="#0000ff" stroke-width="4.76" stroke-linejoin="bevel" points="3425.64,202.227 3425.64,428.432"/>
<polyline class="FretDiagram" fill="#fc0107" stroke="#0000ff" stroke-width="4.76" stroke-linejoin="bevel" points="3467.31,202.227 3467.31,428.432"/>
<polyline class="FretDiagram" fill="#fc0107" stroke="#0000ff" stroke-width="4.76" stroke-linejoin="bevel" points="3258.96,261.755 3467.31,261.755"/>
<polyline class="FretDiagram" fill="#fc0107" stroke="#0000ff" stroke-width="4.76" stroke-linejoin="bevel" points="3258.96,309.377 3467.31,309.377"/>
<polyline class="FretDiagram" fill="#fc0107" stroke="#0000ff" stroke-width="4.76" stroke-linejoin="bevel" points="3258.96,356.999 3467.31,356.999"/>
<polyline class="FretDiagram" fill="#fc0107" stroke="#0000ff" stroke-width="4.76" stroke-linejoin="bevel" points="3258.96,404.621 3467.31,404.621"/>
<path class="FretDiagram" fill="#0000ff" fill-rule="evenodd" d="M3315.22,333.188 C3315.22,341.243 3308.69,347.772 3300.63,347.772 C3292.58,347.772 3286.05,341.243 3286.05,333.188 C3286.05,325.133 3292.58,318.604 3300.63,318.604 C3308.69,318.604 3315.22,325.133 3315.22,333.188"/>
<path class="FretDiagram" fill="#0000ff" fill-rule="evenodd" d="M3356.89,333.188 C3356.89,341.243 3350.36,347.772 3342.3,347.772 C3334.25,347.772 3327.72,341.243 3327.72,333.188 C3327.72,325.133 3334.25,318.604 3342.3,318.604 C3350.36,318.604 3356.89,325.133 3356.89,333.188"/>
<path class="FretDiagram" fill="#0000ff" fill-rule="evenodd" d="M3398.56,285.566 C3398.56,293.62 3392.03,300.15 3383.97,300.15 C3375.92,300.15 3369.39,293.62 3369.39,285.566 C3369.39,277.511 3375.92,270.982 3383.97,270.982 C3392.03,270.982 3398.56,277.511 3398.56,285.566"/>
<path class="FretDiagram" fill="none" stroke="#0000ff" stroke-width="6.86" stroke-linecap="round" stroke-linejoin="bevel" fill-rule="evenodd" d="M3275.63,166.511 C3275.63,175.716 3268.17,183.178 3258.96,183.178 C3249.76,183.178 3242.3,175.716 3242.3,166.511 C3242.3,157.305 3249.76,149.843 3258.96,149.843 C3268.17,149.843 3275.63,157.305 3275.63,166.511"/>
<path class="FretDiagram" fill="none" stroke="#0000ff" stroke-width="6.86" stroke-linecap="round" stroke-linejoin="bevel" fill-rule="evenodd" d="M3442.31,166.511 C3442.31,175.716 3434.85,183.178 3425.64,183.178 C3416.44,183.178 3408.97,175.716 3408.97,166.511 C3408.97,157.305 3416.44,149.843 3425.64,149.843 C3434.85,149.843 3442.31,157.305 3442.31,166.511"/>
<path class="FretDiagram" fill="none" stroke="#0000ff" stroke-width="6.86" stroke-linecap="round" stroke-linejoin="bevel" fill-rule="evenodd" d="M3483.98,166.511 C3483.98,175.716 3476.52,183.178 3467.31,183.178 C3458.11,183.178 3450.64,175.716 3450.64,166.511 C3450.64,157.305 3458.11,149.843 3467.31,149.843 C3476.52,149.843 3483.98,157.305 3483.98,166.511"/>
<polyline class="FretDiagram" fill="none" stroke="#0000ff" stroke-width="29.17" stroke-linecap="round" stroke-linejoin="bevel" points="3258.96,237.944 3467.31,237.944"/>
<path class="FretDiagram" fill="#0000ff" d="M3238.9,203.84 L3238.9,210.87 C3231.3,221.004 3225.29,230.899 3220.89,240.558 C3216.49,250.216 3213.37,260.429 3211.54,271.195 L3202.61,271.195 C3205.14,260.112 3208.37,250.359 3212.3,241.935 C3216.22,233.512 3222.21,223.569 3230.25,212.105 L3193.87,212.105 L3193.87,203.84 L3238.9,203.84 "/>
<path class="Bracket" transform="matrix(8.6315,0,0,10.9371,76.1283,2501.97)" d="M0.92002,-50 C2.69004,-51.88 6.2,-55.8 6.2,-63 C6.2,-72.1 2.25996,-81.32 2.25996,-86.97 C2.25996,-93.06 5.84004,-98.84 5.95,-99 C6.05996,-99.16 6.05,-99.39 5.94004,-99.46 C5.82998,-99.53 5.62002,-99.47 5.49004,-99.32 C5.35996,-99.17 0,-93.75 0,-85.6 C0,-76.75 3.5,-70.58 3.5,-59.07 C3.5,-56.89 2.55996,-53.36 0.1,-50.33 C-0.0799805,-50.17 -0.1,-49.89 0.0599609,-49.7 L0.0700195,-49.69 L0.1,-49.66 C2.55996,-46.63 3.5,-43.1 3.5,-40.92 C3.5,-29.4 0,-23.24 0,-14.39 C0,-6.25 5.35996,-0.8 5.49004,-0.659961 C5.62002,-0.52002 5.8,-0.42998 5.94004,-0.52002 C6.07998,-0.609961 6.07998,-0.77998 5.95,-0.97998 C5.82002,-1.17998 2.25996,-6.92002 2.25996,-13.01 C2.25996,-18.66 6.2,-27.9 6.2,-37 C6.2,-44.3 2.69004,-48.12 0.92002,-50"/>
</svg>
