<?xml version="1.0" encoding="UTF-8" standalone="no"?>
<svg width="4209.44px" height="2976.38px" viewBox="0 0 4209.44 2976.38"
 xmlns="http://www.w3.org/2000/svg" xmlns:xlink="http://www.w3.org/1999/xlink" version="1.2" baseProfile="tiny">
<title>MiMineur (21)</title>
<desc>Generated by MuseScore 3.6.2</desc>
<polyline class="StaffLines" fill="none" stroke="#000000" stroke-width="6.55" stroke-linejoin="bevel" points="153.819,558.425 4138.58,558.425"/>
<polyline class="StaffLines" fill="none" stroke="#000000" stroke-width="6.55" stroke-linejoin="bevel" points="153.819,647.717 4138.58,647.717"/>
<polyline class="StaffLines" fill="none" stroke="#000000" stroke-width="6.55" stroke-linejoin="bevel" points="153.819,737.008 4138.58,737.008"/>
<polyline class="StaffLines" fill="none" stroke="#000000" stroke-width="6.55" stroke-linejoin="bevel" points="153.819,826.299 4138.58,826.299"/>
<polyline class="StaffLines" fill="none" stroke="#000000" stroke-width="6.55" stroke-linejoin="bevel" points="153.819,915.591 4138.58,915.591"/>
<polyline class="StaffLines" fill="none" stroke="#000000" stroke-width="6.55" stroke-linejoin="bevel" points="153.819,1004.88 4138.58,1004.88"/>
<polyline class="StaffLines" fill="none" stroke="#000000" stroke-width="6.55" stroke-linejoin="bevel" points="153.819,1391.81 4138.58,1391.81"/>
<polyline class="StaffLines" fill="none" stroke="#000000" stroke-width="6.55" stroke-linejoin="bevel" points="153.819,1451.34 4138.58,1451.34"/>
<polyline class="StaffLines" fill="none" stroke="#000000" stroke-width="6.55" stroke-linejoin="bevel" points="153.819,1510.87 4138.58,1510.87"/>
<polyline class="StaffLines" fill="none" stroke="#000000" stroke-width="6.55" stroke-linejoin="bevel" points="153.819,1570.39 4138.58,1570.39"/>
<polyline class="StaffLines" fill="none" stroke="#000000" stroke-width="6.55" stroke-linejoin="bevel" points="153.819,1629.92 4138.58,1629.92"/>
<polyline class="StaffLines" fill="none" stroke="#000000" stroke-width="6.55" stroke-linejoin="bevel" points="153.819,2016.85 4138.58,2016.85"/>
<polyline class="StaffLines" fill="none" stroke="#000000" stroke-width="6.55" stroke-linejoin="bevel" points="153.819,2076.38 4138.58,2076.38"/>
<polyline class="StaffLines" fill="none" stroke="#000000" stroke-width="6.55" stroke-linejoin="bevel" points="153.819,2135.91 4138.58,2135.91"/>
<polyline class="StaffLines" fill="none" stroke="#000000" stroke-width="6.55" stroke-linejoin="bevel" points="153.819,2195.43 4138.58,2195.43"/>
<polyline class="StaffLines" fill="none" stroke="#000000" stroke-width="6.55" stroke-linejoin="bevel" points="153.819,2254.96 4138.58,2254.96"/>
<polyline class="BarLine" fill="none" stroke="#000000" stroke-width="10.71" stroke-linejoin="bevel" points="159.176,2013.58 159.176,2258.23"/>
<polyline class="BarLine" fill="none" stroke="#000000" stroke-width="10.71" stroke-linejoin="bevel" points="989.271,2013.58 989.271,2258.23"/>
<polyline class="BarLine" fill="none" stroke="#000000" stroke-width="10.71" stroke-linejoin="bevel" points="1518.83,2013.58 1518.83,2258.23"/>
<polyline class="BarLine" fill="none" stroke="#000000" stroke-width="10.71" stroke-linejoin="bevel" points="1939.76,2013.58 1939.76,2258.23"/>
<polyline class="BarLine" fill="none" stroke="#000000" stroke-width="10.71" stroke-linejoin="bevel" points="2360.7,2013.58 2360.7,2258.23"/>
<polyline class="BarLine" fill="none" stroke="#000000" stroke-width="10.71" stroke-linejoin="bevel" points="2796.4,2013.58 2796.4,2258.23"/>
<polyline class="BarLine" fill="none" stroke="#000000" stroke-width="10.71" stroke-linejoin="bevel" points="3232.09,2013.58 3232.09,2258.23"/>
<polyline class="BarLine" fill="none" stroke="#000000" stroke-width="10.71" stroke-linejoin="bevel" points="3673.66,2013.58 3673.66,2258.23"/>
<polyline class="BarLine" fill="none" stroke="#000000" stroke-width="10.71" stroke-linejoin="bevel" points="4080.54,2013.58 4080.54,2258.23"/>
<polyline class="BarLine" fill="none" stroke="#000000" stroke-width="32.74" stroke-linejoin="bevel" points="4122.21,2013.58 4122.21,2258.23"/>
<polyline class="BarLine" fill="none" stroke="#000000" stroke-width="10.71" stroke-linejoin="bevel" points="159.176,1388.54 159.176,2016.85"/>
<polyline class="BarLine" fill="none" stroke="#000000" stroke-width="10.71" stroke-linejoin="bevel" points="989.271,1388.54 989.271,1633.2"/>
<polyline class="BarLine" fill="none" stroke="#000000" stroke-width="10.71" stroke-linejoin="bevel" points="1518.83,1388.54 1518.83,1633.2"/>
<polyline class="BarLine" fill="none" stroke="#000000" stroke-width="10.71" stroke-linejoin="bevel" points="1939.76,1388.54 1939.76,1633.2"/>
<polyline class="BarLine" fill="none" stroke="#000000" stroke-width="10.71" stroke-linejoin="bevel" points="2360.7,1388.54 2360.7,1633.2"/>
<polyline class="BarLine" fill="none" stroke="#000000" stroke-width="10.71" stroke-linejoin="bevel" points="2796.4,1388.54 2796.4,1633.2"/>
<polyline class="BarLine" fill="none" stroke="#000000" stroke-width="10.71" stroke-linejoin="bevel" points="3232.09,1388.54 3232.09,1633.2"/>
<polyline class="BarLine" fill="none" stroke="#000000" stroke-width="10.71" stroke-linejoin="bevel" points="3673.66,1388.54 3673.66,1633.2"/>
<polyline class="BarLine" fill="none" stroke="#000000" stroke-width="10.71" stroke-linejoin="bevel" points="4080.54,1388.54 4080.54,1633.2"/>
<polyline class="BarLine" fill="none" stroke="#000000" stroke-width="32.74" stroke-linejoin="bevel" points="4122.21,1388.54 4122.21,1633.2"/>
<polyline class="BarLine" fill="none" stroke="#000000" stroke-width="10.71" stroke-linejoin="bevel" points="159.176,555.151 159.176,1391.81"/>
<polyline class="BarLine" fill="none" stroke="#000000" stroke-width="10.71" stroke-linejoin="bevel" points="989.271,555.151 989.271,1008.16"/>
<polyline class="BarLine" fill="none" stroke="#000000" stroke-width="10.71" stroke-linejoin="bevel" points="1518.83,555.151 1518.83,1008.16"/>
<polyline class="BarLine" fill="none" stroke="#000000" stroke-width="10.71" stroke-linejoin="bevel" points="1939.76,555.151 1939.76,1008.16"/>
<polyline class="BarLine" fill="none" stroke="#000000" stroke-width="10.71" stroke-linejoin="bevel" points="2360.7,555.151 2360.7,1008.16"/>
<polyline class="BarLine" fill="none" stroke="#000000" stroke-width="10.71" stroke-linejoin="bevel" points="2796.4,555.151 2796.4,1008.16"/>
<polyline class="BarLine" fill="none" stroke="#000000" stroke-width="10.71" stroke-linejoin="bevel" points="3232.09,555.151 3232.09,1008.16"/>
<polyline class="BarLine" fill="none" stroke="#000000" stroke-width="10.71" stroke-linejoin="bevel" points="3673.66,555.151 3673.66,1008.16"/>
<polyline class="BarLine" fill="none" stroke="#000000" stroke-width="10.71" stroke-linejoin="bevel" points="4080.54,555.151 4080.54,1008.16"/>
<polyline class="BarLine" fill="none" stroke="#000000" stroke-width="32.74" stroke-linejoin="bevel" points="4122.21,555.151 4122.21,1008.16"/>
<path class="Accidental" transform="matrix(2.3811,0,0,2.3811,2847.82,2165.67)" d="M23.3,-10.6 C23.9,-10.7 24.4,-11.4 24.4,-12 L24.4,-17.9 C24.4,-18.7 23.8,-19.3 23,-19.3 L22.8,-19.3 L19.5,-18.6 L19.5,-33.5 L16.7,-33.5 L16.7,-18 L7.8,-16.2 L7.8,-30.3 L5,-30.3 L5,-15.6 L1.1,-14.8 C0.5,-14.7 0,-14 0,-13.4 L0,-13.2 L0,-7.4 L0,-7.6 C0,-6.8 0.6,-6.2 1.4,-6.2 L1.7,-6.2 L5,-6.9 L5,9.6 L1.1,10.4 C0.5,10.5 0,11.2 0,11.8 L0,17.6 C0,18.4 0.6,19 1.4,19 L1.7,19 L5,18.3 L5,33.2 L7.8,33.2 L7.8,17.7 L16.7,15.9 L16.7,30 L19.5,30 L19.5,15.3 L23.3,14.6 C23.9,14.5 24.4,13.8 24.4,13.2 L24.4,7.3 C24.4,6.5 23.8,5.9 23,5.9 L22.8,5.9 L19.5,6.6 L19.5,-9.9 L23.3,-10.6 M7.8,9.1 L7.8,-7.5 L16.7,-9.3 L16.7,7.2 L7.8,9.1 "/>
<path class="Accidental" transform="matrix(2.3811,0,0,2.3811,3294.96,2135.91)" d="M23.3,-10.6 C23.9,-10.7 24.4,-11.4 24.4,-12 L24.4,-17.9 C24.4,-18.7 23.8,-19.3 23,-19.3 L22.8,-19.3 L19.5,-18.6 L19.5,-33.5 L16.7,-33.5 L16.7,-18 L7.8,-16.2 L7.8,-30.3 L5,-30.3 L5,-15.6 L1.1,-14.8 C0.5,-14.7 0,-14 0,-13.4 L0,-13.2 L0,-7.4 L0,-7.6 C0,-6.8 0.6,-6.2 1.4,-6.2 L1.7,-6.2 L5,-6.9 L5,9.6 L1.1,10.4 C0.5,10.5 0,11.2 0,11.8 L0,17.6 C0,18.4 0.6,19 1.4,19 L1.7,19 L5,18.3 L5,33.2 L7.8,33.2 L7.8,17.7 L16.7,15.9 L16.7,30 L19.5,30 L19.5,15.3 L23.3,14.6 C23.9,14.5 24.4,13.8 24.4,13.2 L24.4,7.3 C24.4,6.5 23.8,5.9 23,5.9 L22.8,5.9 L19.5,6.6 L19.5,-9.9 L23.3,-10.6 M7.8,9.1 L7.8,-7.5 L16.7,-9.3 L16.7,7.2 L7.8,9.1 "/>
<path class="Accidental" transform="matrix(2.3811,0,0,2.3811,1052.14,1451.34)" d="M23.3,-10.6 C23.9,-10.7 24.4,-11.4 24.4,-12 L24.4,-17.9 C24.4,-18.7 23.8,-19.3 23,-19.3 L22.8,-19.3 L19.5,-18.6 L19.5,-33.5 L16.7,-33.5 L16.7,-18 L7.8,-16.2 L7.8,-30.3 L5,-30.3 L5,-15.6 L1.1,-14.8 C0.5,-14.7 0,-14 0,-13.4 L0,-13.2 L0,-7.4 L0,-7.6 C0,-6.8 0.6,-6.2 1.4,-6.2 L1.7,-6.2 L5,-6.9 L5,9.6 L1.1,10.4 C0.5,10.5 0,11.2 0,11.8 L0,17.6 C0,18.4 0.6,19 1.4,19 L1.7,19 L5,18.3 L5,33.2 L7.8,33.2 L7.8,17.7 L16.7,15.9 L16.7,30 L19.5,30 L19.5,15.3 L23.3,14.6 C23.9,14.5 24.4,13.8 24.4,13.2 L24.4,7.3 C24.4,6.5 23.8,5.9 23,5.9 L22.8,5.9 L19.5,6.6 L19.5,-9.9 L23.3,-10.6 M7.8,9.1 L7.8,-7.5 L16.7,-9.3 L16.7,7.2 L7.8,9.1 "/>
<path class="Accidental" transform="matrix(2.3811,0,0,2.3811,2412.13,1451.34)" d="M23.3,-10.6 C23.9,-10.7 24.4,-11.4 24.4,-12 L24.4,-17.9 C24.4,-18.7 23.8,-19.3 23,-19.3 L22.8,-19.3 L19.5,-18.6 L19.5,-33.5 L16.7,-33.5 L16.7,-18 L7.8,-16.2 L7.8,-30.3 L5,-30.3 L5,-15.6 L1.1,-14.8 C0.5,-14.7 0,-14 0,-13.4 L0,-13.2 L0,-7.4 L0,-7.6 C0,-6.8 0.6,-6.2 1.4,-6.2 L1.7,-6.2 L5,-6.9 L5,9.6 L1.1,10.4 C0.5,10.5 0,11.2 0,11.8 L0,17.6 C0,18.4 0.6,19 1.4,19 L1.7,19 L5,18.3 L5,33.2 L7.8,33.2 L7.8,17.7 L16.7,15.9 L16.7,30 L19.5,30 L19.5,15.3 L23.3,14.6 C23.9,14.5 24.4,13.8 24.4,13.2 L24.4,7.3 C24.4,6.5 23.8,5.9 23,5.9 L22.8,5.9 L19.5,6.6 L19.5,-9.9 L23.3,-10.6 M7.8,9.1 L7.8,-7.5 L16.7,-9.3 L16.7,7.2 L7.8,9.1 "/>
<polyline class="LedgerLine" fill="none" stroke="#000000" stroke-width="9.52" stroke-linejoin="bevel" points="636.699,2314.49 767.176,2314.49"/>
<path class="Note" transform="matrix(2.3811,0,0,2.3811,657.534,2314.49)" d="M18.7,-13.6 C4.9,-13.6 0,-6.6 0,-0.1 C0,6.4 4.9,13.4 18.7,13.4 C32.5,13.4 37.3,6.4 37.3,-0.1 C37.3,-6.6 32.5,-13.6 18.7,-13.6 M10.4,-4.5 C10.3,-4.9 10.3,-5.3 10.3,-5.7 C10.3,-6.5 10.5,-7.3 10.9,-8 C11.6,-9 12.8,-9.7 14.3,-10 C15.6,-10.3 16.3,-10.5 18.9,-10.5 L19,-10.5 C23,-10.5 24.3,-6.8 25.4,-3 L25.7,-2 C26.5,0.6 26.9,2.8 26.9,4.5 C26.9,5.7 26.7,6.8 26.3,7.6 C25.7,8.7 24.7,9.4 23,9.8 C22.1,10 20.6,10.1 20.6,10.1 C20.1,10.1 19.7,10.2 19.3,10.2 C16.1,10.2 14.1,9 12.7,4.7 C11.5,1 11.3,-0.1 10.4,-4.5"/>
<path class="Note" transform="matrix(2.3811,0,0,2.3811,1213.09,2076.38)" d="M18.7,-13.6 C4.9,-13.6 0,-6.6 0,-0.1 C0,6.4 4.9,13.4 18.7,13.4 C32.5,13.4 37.3,6.4 37.3,-0.1 C37.3,-6.6 32.5,-13.6 18.7,-13.6 M10.4,-4.5 C10.3,-4.9 10.3,-5.3 10.3,-5.7 C10.3,-6.5 10.5,-7.3 10.9,-8 C11.6,-9 12.8,-9.7 14.3,-10 C15.6,-10.3 16.3,-10.5 18.9,-10.5 L19,-10.5 C23,-10.5 24.3,-6.8 25.4,-3 L25.7,-2 C26.5,0.6 26.9,2.8 26.9,4.5 C26.9,5.7 26.7,6.8 26.3,7.6 C25.7,8.7 24.7,9.4 23,9.8 C22.1,10 20.6,10.1 20.6,10.1 C20.1,10.1 19.7,10.2 19.3,10.2 C16.1,10.2 14.1,9 12.7,4.7 C11.5,1 11.3,-0.1 10.4,-4.5"/>
<path class="Note" transform="matrix(2.3811,0,0,2.3811,1607.29,2254.96)" d="M18.7,-13.6 C4.9,-13.6 0,-6.6 0,-0.1 C0,6.4 4.9,13.4 18.7,13.4 C32.5,13.4 37.3,6.4 37.3,-0.1 C37.3,-6.6 32.5,-13.6 18.7,-13.6 M10.4,-4.5 C10.3,-4.9 10.3,-5.3 10.3,-5.7 C10.3,-6.5 10.5,-7.3 10.9,-8 C11.6,-9 12.8,-9.7 14.3,-10 C15.6,-10.3 16.3,-10.5 18.9,-10.5 L19,-10.5 C23,-10.5 24.3,-6.8 25.4,-3 L25.7,-2 C26.5,0.6 26.9,2.8 26.9,4.5 C26.9,5.7 26.7,6.8 26.3,7.6 C25.7,8.7 24.7,9.4 23,9.8 C22.1,10 20.6,10.1 20.6,10.1 C20.1,10.1 19.7,10.2 19.3,10.2 C16.1,10.2 14.1,9 12.7,4.7 C11.5,1 11.3,-0.1 10.4,-4.5"/>
<path class="Note" transform="matrix(2.3811,0,0,2.3811,2028.23,2225.2)" d="M18.7,-13.6 C4.9,-13.6 0,-6.6 0,-0.1 C0,6.4 4.9,13.4 18.7,13.4 C32.5,13.4 37.3,6.4 37.3,-0.1 C37.3,-6.6 32.5,-13.6 18.7,-13.6 M10.4,-4.5 C10.3,-4.9 10.3,-5.3 10.3,-5.7 C10.3,-6.5 10.5,-7.3 10.9,-8 C11.6,-9 12.8,-9.7 14.3,-10 C15.6,-10.3 16.3,-10.5 18.9,-10.5 L19,-10.5 C23,-10.5 24.3,-6.8 25.4,-3 L25.7,-2 C26.5,0.6 26.9,2.8 26.9,4.5 C26.9,5.7 26.7,6.8 26.3,7.6 C25.7,8.7 24.7,9.4 23,9.8 C22.1,10 20.6,10.1 20.6,10.1 C20.1,10.1 19.7,10.2 19.3,10.2 C16.1,10.2 14.1,9 12.7,4.7 C11.5,1 11.3,-0.1 10.4,-4.5"/>
<path class="Note" transform="matrix(2.3811,0,0,2.3811,2485.11,2195.43)" d="M18.7,-13.6 C4.9,-13.6 0,-6.6 0,-0.1 C0,6.4 4.9,13.4 18.7,13.4 C32.5,13.4 37.3,6.4 37.3,-0.1 C37.3,-6.6 32.5,-13.6 18.7,-13.6 M10.4,-4.5 C10.3,-4.9 10.3,-5.3 10.3,-5.7 C10.3,-6.5 10.5,-7.3 10.9,-8 C11.6,-9 12.8,-9.7 14.3,-10 C15.6,-10.3 16.3,-10.5 18.9,-10.5 L19,-10.5 C23,-10.5 24.3,-6.8 25.4,-3 L25.7,-2 C26.5,0.6 26.9,2.8 26.9,4.5 C26.9,5.7 26.7,6.8 26.3,7.6 C25.7,8.7 24.7,9.4 23,9.8 C22.1,10 20.6,10.1 20.6,10.1 C20.1,10.1 19.7,10.2 19.3,10.2 C16.1,10.2 14.1,9 12.7,4.7 C11.5,1 11.3,-0.1 10.4,-4.5"/>
<path class="Note" transform="matrix(2.3811,0,0,2.3811,2920.8,2165.67)" d="M18.7,-13.6 C4.9,-13.6 0,-6.6 0,-0.1 C0,6.4 4.9,13.4 18.7,13.4 C32.5,13.4 37.3,6.4 37.3,-0.1 C37.3,-6.6 32.5,-13.6 18.7,-13.6 M10.4,-4.5 C10.3,-4.9 10.3,-5.3 10.3,-5.7 C10.3,-6.5 10.5,-7.3 10.9,-8 C11.6,-9 12.8,-9.7 14.3,-10 C15.6,-10.3 16.3,-10.5 18.9,-10.5 L19,-10.5 C23,-10.5 24.3,-6.8 25.4,-3 L25.7,-2 C26.5,0.6 26.9,2.8 26.9,4.5 C26.9,5.7 26.7,6.8 26.3,7.6 C25.7,8.7 24.7,9.4 23,9.8 C22.1,10 20.6,10.1 20.6,10.1 C20.1,10.1 19.7,10.2 19.3,10.2 C16.1,10.2 14.1,9 12.7,4.7 C11.5,1 11.3,-0.1 10.4,-4.5"/>
<path class="Note" transform="matrix(2.3811,0,0,2.3811,3367.93,2135.91)" d="M18.7,-13.6 C4.9,-13.6 0,-6.6 0,-0.1 C0,6.4 4.9,13.4 18.7,13.4 C32.5,13.4 37.3,6.4 37.3,-0.1 C37.3,-6.6 32.5,-13.6 18.7,-13.6 M10.4,-4.5 C10.3,-4.9 10.3,-5.3 10.3,-5.7 C10.3,-6.5 10.5,-7.3 10.9,-8 C11.6,-9 12.8,-9.7 14.3,-10 C15.6,-10.3 16.3,-10.5 18.9,-10.5 L19,-10.5 C23,-10.5 24.3,-6.8 25.4,-3 L25.7,-2 C26.5,0.6 26.9,2.8 26.9,4.5 C26.9,5.7 26.7,6.8 26.3,7.6 C25.7,8.7 24.7,9.4 23,9.8 C22.1,10 20.6,10.1 20.6,10.1 C20.1,10.1 19.7,10.2 19.3,10.2 C16.1,10.2 14.1,9 12.7,4.7 C11.5,1 11.3,-0.1 10.4,-4.5"/>
<path class="Note" transform="matrix(2.3811,0,0,2.3811,3762.13,2106.14)" d="M18.7,-13.6 C4.9,-13.6 0,-6.6 0,-0.1 C0,6.4 4.9,13.4 18.7,13.4 C32.5,13.4 37.3,6.4 37.3,-0.1 C37.3,-6.6 32.5,-13.6 18.7,-13.6 M10.4,-4.5 C10.3,-4.9 10.3,-5.3 10.3,-5.7 C10.3,-6.5 10.5,-7.3 10.9,-8 C11.6,-9 12.8,-9.7 14.3,-10 C15.6,-10.3 16.3,-10.5 18.9,-10.5 L19,-10.5 C23,-10.5 24.3,-6.8 25.4,-3 L25.7,-2 C26.5,0.6 26.9,2.8 26.9,4.5 C26.9,5.7 26.7,6.8 26.3,7.6 C25.7,8.7 24.7,9.4 23,9.8 C22.1,10 20.6,10.1 20.6,10.1 C20.1,10.1 19.7,10.2 19.3,10.2 C16.1,10.2 14.1,9 12.7,4.7 C11.5,1 11.3,-0.1 10.4,-4.5"/>
<path class="Note" transform="matrix(2.3811,0,0,2.3811,657.534,1570.39)" d="M18.7,-13.6 C4.9,-13.6 0,-6.6 0,-0.1 C0,6.4 4.9,13.4 18.7,13.4 C32.5,13.4 37.3,6.4 37.3,-0.1 C37.3,-6.6 32.5,-13.6 18.7,-13.6 M10.4,-4.5 C10.3,-4.9 10.3,-5.3 10.3,-5.7 C10.3,-6.5 10.5,-7.3 10.9,-8 C11.6,-9 12.8,-9.7 14.3,-10 C15.6,-10.3 16.3,-10.5 18.9,-10.5 L19,-10.5 C23,-10.5 24.3,-6.8 25.4,-3 L25.7,-2 C26.5,0.6 26.9,2.8 26.9,4.5 C26.9,5.7 26.7,6.8 26.3,7.6 C25.7,8.7 24.7,9.4 23,9.8 C22.1,10 20.6,10.1 20.6,10.1 C20.1,10.1 19.7,10.2 19.3,10.2 C16.1,10.2 14.1,9 12.7,4.7 C11.5,1 11.3,-0.1 10.4,-4.5"/>
<path class="Note" transform="matrix(2.3811,0,0,2.3811,657.534,1510.87)" d="M18.7,-13.6 C4.9,-13.6 0,-6.6 0,-0.1 C0,6.4 4.9,13.4 18.7,13.4 C32.5,13.4 37.3,6.4 37.3,-0.1 C37.3,-6.6 32.5,-13.6 18.7,-13.6 M10.4,-4.5 C10.3,-4.9 10.3,-5.3 10.3,-5.7 C10.3,-6.5 10.5,-7.3 10.9,-8 C11.6,-9 12.8,-9.7 14.3,-10 C15.6,-10.3 16.3,-10.5 18.9,-10.5 L19,-10.5 C23,-10.5 24.3,-6.8 25.4,-3 L25.7,-2 C26.5,0.6 26.9,2.8 26.9,4.5 C26.9,5.7 26.7,6.8 26.3,7.6 C25.7,8.7 24.7,9.4 23,9.8 C22.1,10 20.6,10.1 20.6,10.1 C20.1,10.1 19.7,10.2 19.3,10.2 C16.1,10.2 14.1,9 12.7,4.7 C11.5,1 11.3,-0.1 10.4,-4.5"/>
<path class="Note" transform="matrix(2.3811,0,0,2.3811,657.534,1421.57)" d="M18.7,-13.6 C4.9,-13.6 0,-6.6 0,-0.1 C0,6.4 4.9,13.4 18.7,13.4 C32.5,13.4 37.3,6.4 37.3,-0.1 C37.3,-6.6 32.5,-13.6 18.7,-13.6 M10.4,-4.5 C10.3,-4.9 10.3,-5.3 10.3,-5.7 C10.3,-6.5 10.5,-7.3 10.9,-8 C11.6,-9 12.8,-9.7 14.3,-10 C15.6,-10.3 16.3,-10.5 18.9,-10.5 L19,-10.5 C23,-10.5 24.3,-6.8 25.4,-3 L25.7,-2 C26.5,0.6 26.9,2.8 26.9,4.5 C26.9,5.7 26.7,6.8 26.3,7.6 C25.7,8.7 24.7,9.4 23,9.8 C22.1,10 20.6,10.1 20.6,10.1 C20.1,10.1 19.7,10.2 19.3,10.2 C16.1,10.2 14.1,9 12.7,4.7 C11.5,1 11.3,-0.1 10.4,-4.5"/>
<path class="Note" transform="matrix(2.3811,0,0,2.3811,1130.84,1540.63)" d="M18.7,-13.6 C4.9,-13.6 0,-6.6 0,-0.1 C0,6.4 4.9,13.4 18.7,13.4 C32.5,13.4 37.3,6.4 37.3,-0.1 C37.3,-6.6 32.5,-13.6 18.7,-13.6 M10.4,-4.5 C10.3,-4.9 10.3,-5.3 10.3,-5.7 C10.3,-6.5 10.5,-7.3 10.9,-8 C11.6,-9 12.8,-9.7 14.3,-10 C15.6,-10.3 16.3,-10.5 18.9,-10.5 L19,-10.5 C23,-10.5 24.3,-6.8 25.4,-3 L25.7,-2 C26.5,0.6 26.9,2.8 26.9,4.5 C26.9,5.7 26.7,6.8 26.3,7.6 C25.7,8.7 24.7,9.4 23,9.8 C22.1,10 20.6,10.1 20.6,10.1 C20.1,10.1 19.7,10.2 19.3,10.2 C16.1,10.2 14.1,9 12.7,4.7 C11.5,1 11.3,-0.1 10.4,-4.5"/>
<path class="Note" transform="matrix(2.3811,0,0,2.3811,1213.09,1510.87)" d="M18.7,-13.6 C4.9,-13.6 0,-6.6 0,-0.1 C0,6.4 4.9,13.4 18.7,13.4 C32.5,13.4 37.3,6.4 37.3,-0.1 C37.3,-6.6 32.5,-13.6 18.7,-13.6 M10.4,-4.5 C10.3,-4.9 10.3,-5.3 10.3,-5.7 C10.3,-6.5 10.5,-7.3 10.9,-8 C11.6,-9 12.8,-9.7 14.3,-10 C15.6,-10.3 16.3,-10.5 18.9,-10.5 L19,-10.5 C23,-10.5 24.3,-6.8 25.4,-3 L25.7,-2 C26.5,0.6 26.9,2.8 26.9,4.5 C26.9,5.7 26.7,6.8 26.3,7.6 C25.7,8.7 24.7,9.4 23,9.8 C22.1,10 20.6,10.1 20.6,10.1 C20.1,10.1 19.7,10.2 19.3,10.2 C16.1,10.2 14.1,9 12.7,4.7 C11.5,1 11.3,-0.1 10.4,-4.5"/>
<path class="Note" transform="matrix(2.3811,0,0,2.3811,1213.09,1451.34)" d="M18.7,-13.6 C4.9,-13.6 0,-6.6 0,-0.1 C0,6.4 4.9,13.4 18.7,13.4 C32.5,13.4 37.3,6.4 37.3,-0.1 C37.3,-6.6 32.5,-13.6 18.7,-13.6 M10.4,-4.5 C10.3,-4.9 10.3,-5.3 10.3,-5.7 C10.3,-6.5 10.5,-7.3 10.9,-8 C11.6,-9 12.8,-9.7 14.3,-10 C15.6,-10.3 16.3,-10.5 18.9,-10.5 L19,-10.5 C23,-10.5 24.3,-6.8 25.4,-3 L25.7,-2 C26.5,0.6 26.9,2.8 26.9,4.5 C26.9,5.7 26.7,6.8 26.3,7.6 C25.7,8.7 24.7,9.4 23,9.8 C22.1,10 20.6,10.1 20.6,10.1 C20.1,10.1 19.7,10.2 19.3,10.2 C16.1,10.2 14.1,9 12.7,4.7 C11.5,1 11.3,-0.1 10.4,-4.5"/>
<path class="Note" transform="matrix(2.3811,0,0,2.3811,1607.29,1570.39)" d="M18.7,-13.6 C4.9,-13.6 0,-6.6 0,-0.1 C0,6.4 4.9,13.4 18.7,13.4 C32.5,13.4 37.3,6.4 37.3,-0.1 C37.3,-6.6 32.5,-13.6 18.7,-13.6 M10.4,-4.5 C10.3,-4.9 10.3,-5.3 10.3,-5.7 C10.3,-6.5 10.5,-7.3 10.9,-8 C11.6,-9 12.8,-9.7 14.3,-10 C15.6,-10.3 16.3,-10.5 18.9,-10.5 L19,-10.5 C23,-10.5 24.3,-6.8 25.4,-3 L25.7,-2 C26.5,0.6 26.9,2.8 26.9,4.5 C26.9,5.7 26.7,6.8 26.3,7.6 C25.7,8.7 24.7,9.4 23,9.8 C22.1,10 20.6,10.1 20.6,10.1 C20.1,10.1 19.7,10.2 19.3,10.2 C16.1,10.2 14.1,9 12.7,4.7 C11.5,1 11.3,-0.1 10.4,-4.5"/>
<path class="Note" transform="matrix(2.3811,0,0,2.3811,1607.29,1510.87)" d="M18.7,-13.6 C4.9,-13.6 0,-6.6 0,-0.1 C0,6.4 4.9,13.4 18.7,13.4 C32.5,13.4 37.3,6.4 37.3,-0.1 C37.3,-6.6 32.5,-13.6 18.7,-13.6 M10.4,-4.5 C10.3,-4.9 10.3,-5.3 10.3,-5.7 C10.3,-6.5 10.5,-7.3 10.9,-8 C11.6,-9 12.8,-9.7 14.3,-10 C15.6,-10.3 16.3,-10.5 18.9,-10.5 L19,-10.5 C23,-10.5 24.3,-6.8 25.4,-3 L25.7,-2 C26.5,0.6 26.9,2.8 26.9,4.5 C26.9,5.7 26.7,6.8 26.3,7.6 C25.7,8.7 24.7,9.4 23,9.8 C22.1,10 20.6,10.1 20.6,10.1 C20.1,10.1 19.7,10.2 19.3,10.2 C16.1,10.2 14.1,9 12.7,4.7 C11.5,1 11.3,-0.1 10.4,-4.5"/>
<path class="Note" transform="matrix(2.3811,0,0,2.3811,1607.29,1421.57)" d="M18.7,-13.6 C4.9,-13.6 0,-6.6 0,-0.1 C0,6.4 4.9,13.4 18.7,13.4 C32.5,13.4 37.3,6.4 37.3,-0.1 C37.3,-6.6 32.5,-13.6 18.7,-13.6 M10.4,-4.5 C10.3,-4.9 10.3,-5.3 10.3,-5.7 C10.3,-6.5 10.5,-7.3 10.9,-8 C11.6,-9 12.8,-9.7 14.3,-10 C15.6,-10.3 16.3,-10.5 18.9,-10.5 L19,-10.5 C23,-10.5 24.3,-6.8 25.4,-3 L25.7,-2 C26.5,0.6 26.9,2.8 26.9,4.5 C26.9,5.7 26.7,6.8 26.3,7.6 C25.7,8.7 24.7,9.4 23,9.8 C22.1,10 20.6,10.1 20.6,10.1 C20.1,10.1 19.7,10.2 19.3,10.2 C16.1,10.2 14.1,9 12.7,4.7 C11.5,1 11.3,-0.1 10.4,-4.5"/>
<path class="Note" transform="matrix(2.3811,0,0,2.3811,2028.23,1600.16)" d="M18.7,-13.6 C4.9,-13.6 0,-6.6 0,-0.1 C0,6.4 4.9,13.4 18.7,13.4 C32.5,13.4 37.3,6.4 37.3,-0.1 C37.3,-6.6 32.5,-13.6 18.7,-13.6 M10.4,-4.5 C10.3,-4.9 10.3,-5.3 10.3,-5.7 C10.3,-6.5 10.5,-7.3 10.9,-8 C11.6,-9 12.8,-9.7 14.3,-10 C15.6,-10.3 16.3,-10.5 18.9,-10.5 L19,-10.5 C23,-10.5 24.3,-6.8 25.4,-3 L25.7,-2 C26.5,0.6 26.9,2.8 26.9,4.5 C26.9,5.7 26.7,6.8 26.3,7.6 C25.7,8.7 24.7,9.4 23,9.8 C22.1,10 20.6,10.1 20.6,10.1 C20.1,10.1 19.7,10.2 19.3,10.2 C16.1,10.2 14.1,9 12.7,4.7 C11.5,1 11.3,-0.1 10.4,-4.5"/>
<path class="Note" transform="matrix(2.3811,0,0,2.3811,2028.23,1481.1)" d="M18.7,-13.6 C4.9,-13.6 0,-6.6 0,-0.1 C0,6.4 4.9,13.4 18.7,13.4 C32.5,13.4 37.3,6.4 37.3,-0.1 C37.3,-6.6 32.5,-13.6 18.7,-13.6 M10.4,-4.5 C10.3,-4.9 10.3,-5.3 10.3,-5.7 C10.3,-6.5 10.5,-7.3 10.9,-8 C11.6,-9 12.8,-9.7 14.3,-10 C15.6,-10.3 16.3,-10.5 18.9,-10.5 L19,-10.5 C23,-10.5 24.3,-6.8 25.4,-3 L25.7,-2 C26.5,0.6 26.9,2.8 26.9,4.5 C26.9,5.7 26.7,6.8 26.3,7.6 C25.7,8.7 24.7,9.4 23,9.8 C22.1,10 20.6,10.1 20.6,10.1 C20.1,10.1 19.7,10.2 19.3,10.2 C16.1,10.2 14.1,9 12.7,4.7 C11.5,1 11.3,-0.1 10.4,-4.5"/>
<path class="Note" transform="matrix(2.3811,0,0,2.3811,2028.23,1421.57)" d="M18.7,-13.6 C4.9,-13.6 0,-6.6 0,-0.1 C0,6.4 4.9,13.4 18.7,13.4 C32.5,13.4 37.3,6.4 37.3,-0.1 C37.3,-6.6 32.5,-13.6 18.7,-13.6 M10.4,-4.5 C10.3,-4.9 10.3,-5.3 10.3,-5.7 C10.3,-6.5 10.5,-7.3 10.9,-8 C11.6,-9 12.8,-9.7 14.3,-10 C15.6,-10.3 16.3,-10.5 18.9,-10.5 L19,-10.5 C23,-10.5 24.3,-6.8 25.4,-3 L25.7,-2 C26.5,0.6 26.9,2.8 26.9,4.5 C26.9,5.7 26.7,6.8 26.3,7.6 C25.7,8.7 24.7,9.4 23,9.8 C22.1,10 20.6,10.1 20.6,10.1 C20.1,10.1 19.7,10.2 19.3,10.2 C16.1,10.2 14.1,9 12.7,4.7 C11.5,1 11.3,-0.1 10.4,-4.5"/>
<path class="Note" transform="matrix(2.3811,0,0,2.3811,2485.11,1600.16)" d="M18.7,-13.6 C4.9,-13.6 0,-6.6 0,-0.1 C0,6.4 4.9,13.4 18.7,13.4 C32.5,13.4 37.3,6.4 37.3,-0.1 C37.3,-6.6 32.5,-13.6 18.7,-13.6 M10.4,-4.5 C10.3,-4.9 10.3,-5.3 10.3,-5.7 C10.3,-6.5 10.5,-7.3 10.9,-8 C11.6,-9 12.8,-9.7 14.3,-10 C15.6,-10.3 16.3,-10.5 18.9,-10.5 L19,-10.5 C23,-10.5 24.3,-6.8 25.4,-3 L25.7,-2 C26.5,0.6 26.9,2.8 26.9,4.5 C26.9,5.7 26.7,6.8 26.3,7.6 C25.7,8.7 24.7,9.4 23,9.8 C22.1,10 20.6,10.1 20.6,10.1 C20.1,10.1 19.7,10.2 19.3,10.2 C16.1,10.2 14.1,9 12.7,4.7 C11.5,1 11.3,-0.1 10.4,-4.5"/>
<path class="Note" transform="matrix(2.3811,0,0,2.3811,2485.11,1510.87)" d="M18.7,-13.6 C4.9,-13.6 0,-6.6 0,-0.1 C0,6.4 4.9,13.4 18.7,13.4 C32.5,13.4 37.3,6.4 37.3,-0.1 C37.3,-6.6 32.5,-13.6 18.7,-13.6 M10.4,-4.5 C10.3,-4.9 10.3,-5.3 10.3,-5.7 C10.3,-6.5 10.5,-7.3 10.9,-8 C11.6,-9 12.8,-9.7 14.3,-10 C15.6,-10.3 16.3,-10.5 18.9,-10.5 L19,-10.5 C23,-10.5 24.3,-6.8 25.4,-3 L25.7,-2 C26.5,0.6 26.9,2.8 26.9,4.5 C26.9,5.7 26.7,6.8 26.3,7.6 C25.7,8.7 24.7,9.4 23,9.8 C22.1,10 20.6,10.1 20.6,10.1 C20.1,10.1 19.7,10.2 19.3,10.2 C16.1,10.2 14.1,9 12.7,4.7 C11.5,1 11.3,-0.1 10.4,-4.5"/>
<path class="Note" transform="matrix(2.3811,0,0,2.3811,2485.11,1451.34)" d="M18.7,-13.6 C4.9,-13.6 0,-6.6 0,-0.1 C0,6.4 4.9,13.4 18.7,13.4 C32.5,13.4 37.3,6.4 37.3,-0.1 C37.3,-6.6 32.5,-13.6 18.7,-13.6 M10.4,-4.5 C10.3,-4.9 10.3,-5.3 10.3,-5.7 C10.3,-6.5 10.5,-7.3 10.9,-8 C11.6,-9 12.8,-9.7 14.3,-10 C15.6,-10.3 16.3,-10.5 18.9,-10.5 L19,-10.5 C23,-10.5 24.3,-6.8 25.4,-3 L25.7,-2 C26.5,0.6 26.9,2.8 26.9,4.5 C26.9,5.7 26.7,6.8 26.3,7.6 C25.7,8.7 24.7,9.4 23,9.8 C22.1,10 20.6,10.1 20.6,10.1 C20.1,10.1 19.7,10.2 19.3,10.2 C16.1,10.2 14.1,9 12.7,4.7 C11.5,1 11.3,-0.1 10.4,-4.5"/>
<path class="Note" transform="matrix(2.3811,0,0,2.3811,2920.8,1540.63)" d="M18.7,-13.6 C4.9,-13.6 0,-6.6 0,-0.1 C0,6.4 4.9,13.4 18.7,13.4 C32.5,13.4 37.3,6.4 37.3,-0.1 C37.3,-6.6 32.5,-13.6 18.7,-13.6 M10.4,-4.5 C10.3,-4.9 10.3,-5.3 10.3,-5.7 C10.3,-6.5 10.5,-7.3 10.9,-8 C11.6,-9 12.8,-9.7 14.3,-10 C15.6,-10.3 16.3,-10.5 18.9,-10.5 L19,-10.5 C23,-10.5 24.3,-6.8 25.4,-3 L25.7,-2 C26.5,0.6 26.9,2.8 26.9,4.5 C26.9,5.7 26.7,6.8 26.3,7.6 C25.7,8.7 24.7,9.4 23,9.8 C22.1,10 20.6,10.1 20.6,10.1 C20.1,10.1 19.7,10.2 19.3,10.2 C16.1,10.2 14.1,9 12.7,4.7 C11.5,1 11.3,-0.1 10.4,-4.5"/>
<path class="Note" transform="matrix(2.3811,0,0,2.3811,2920.8,1421.57)" d="M18.7,-13.6 C4.9,-13.6 0,-6.6 0,-0.1 C0,6.4 4.9,13.4 18.7,13.4 C32.5,13.4 37.3,6.4 37.3,-0.1 C37.3,-6.6 32.5,-13.6 18.7,-13.6 M10.4,-4.5 C10.3,-4.9 10.3,-5.3 10.3,-5.7 C10.3,-6.5 10.5,-7.3 10.9,-8 C11.6,-9 12.8,-9.7 14.3,-10 C15.6,-10.3 16.3,-10.5 18.9,-10.5 L19,-10.5 C23,-10.5 24.3,-6.8 25.4,-3 L25.7,-2 C26.5,0.6 26.9,2.8 26.9,4.5 C26.9,5.7 26.7,6.8 26.3,7.6 C25.7,8.7 24.7,9.4 23,9.8 C22.1,10 20.6,10.1 20.6,10.1 C20.1,10.1 19.7,10.2 19.3,10.2 C16.1,10.2 14.1,9 12.7,4.7 C11.5,1 11.3,-0.1 10.4,-4.5"/>
<path class="Note" transform="matrix(2.3811,0,0,2.3811,3285.67,1540.63)" d="M18.7,-13.6 C4.9,-13.6 0,-6.6 0,-0.1 C0,6.4 4.9,13.4 18.7,13.4 C32.5,13.4 37.3,6.4 37.3,-0.1 C37.3,-6.6 32.5,-13.6 18.7,-13.6 M10.4,-4.5 C10.3,-4.9 10.3,-5.3 10.3,-5.7 C10.3,-6.5 10.5,-7.3 10.9,-8 C11.6,-9 12.8,-9.7 14.3,-10 C15.6,-10.3 16.3,-10.5 18.9,-10.5 L19,-10.5 C23,-10.5 24.3,-6.8 25.4,-3 L25.7,-2 C26.5,0.6 26.9,2.8 26.9,4.5 C26.9,5.7 26.7,6.8 26.3,7.6 C25.7,8.7 24.7,9.4 23,9.8 C22.1,10 20.6,10.1 20.6,10.1 C20.1,10.1 19.7,10.2 19.3,10.2 C16.1,10.2 14.1,9 12.7,4.7 C11.5,1 11.3,-0.1 10.4,-4.5"/>
<path class="Note" transform="matrix(2.3811,0,0,2.3811,3367.93,1510.87)" d="M18.7,-13.6 C4.9,-13.6 0,-6.6 0,-0.1 C0,6.4 4.9,13.4 18.7,13.4 C32.5,13.4 37.3,6.4 37.3,-0.1 C37.3,-6.6 32.5,-13.6 18.7,-13.6 M10.4,-4.5 C10.3,-4.9 10.3,-5.3 10.3,-5.7 C10.3,-6.5 10.5,-7.3 10.9,-8 C11.6,-9 12.8,-9.7 14.3,-10 C15.6,-10.3 16.3,-10.5 18.9,-10.5 L19,-10.5 C23,-10.5 24.3,-6.8 25.4,-3 L25.7,-2 C26.5,0.6 26.9,2.8 26.9,4.5 C26.9,5.7 26.7,6.8 26.3,7.6 C25.7,8.7 24.7,9.4 23,9.8 C22.1,10 20.6,10.1 20.6,10.1 C20.1,10.1 19.7,10.2 19.3,10.2 C16.1,10.2 14.1,9 12.7,4.7 C11.5,1 11.3,-0.1 10.4,-4.5"/>
<path class="Note" transform="matrix(2.3811,0,0,2.3811,3367.93,1391.81)" d="M18.7,-13.6 C4.9,-13.6 0,-6.6 0,-0.1 C0,6.4 4.9,13.4 18.7,13.4 C32.5,13.4 37.3,6.4 37.3,-0.1 C37.3,-6.6 32.5,-13.6 18.7,-13.6 M10.4,-4.5 C10.3,-4.9 10.3,-5.3 10.3,-5.7 C10.3,-6.5 10.5,-7.3 10.9,-8 C11.6,-9 12.8,-9.7 14.3,-10 C15.6,-10.3 16.3,-10.5 18.9,-10.5 L19,-10.5 C23,-10.5 24.3,-6.8 25.4,-3 L25.7,-2 C26.5,0.6 26.9,2.8 26.9,4.5 C26.9,5.7 26.7,6.8 26.3,7.6 C25.7,8.7 24.7,9.4 23,9.8 C22.1,10 20.6,10.1 20.6,10.1 C20.1,10.1 19.7,10.2 19.3,10.2 C16.1,10.2 14.1,9 12.7,4.7 C11.5,1 11.3,-0.1 10.4,-4.5"/>
<path class="Note" transform="matrix(2.3811,0,0,2.3811,3762.13,1570.39)" d="M18.7,-13.6 C4.9,-13.6 0,-6.6 0,-0.1 C0,6.4 4.9,13.4 18.7,13.4 C32.5,13.4 37.3,6.4 37.3,-0.1 C37.3,-6.6 32.5,-13.6 18.7,-13.6 M10.4,-4.5 C10.3,-4.9 10.3,-5.3 10.3,-5.7 C10.3,-6.5 10.5,-7.3 10.9,-8 C11.6,-9 12.8,-9.7 14.3,-10 C15.6,-10.3 16.3,-10.5 18.9,-10.5 L19,-10.5 C23,-10.5 24.3,-6.8 25.4,-3 L25.7,-2 C26.5,0.6 26.9,2.8 26.9,4.5 C26.9,5.7 26.7,6.8 26.3,7.6 C25.7,8.7 24.7,9.4 23,9.8 C22.1,10 20.6,10.1 20.6,10.1 C20.1,10.1 19.7,10.2 19.3,10.2 C16.1,10.2 14.1,9 12.7,4.7 C11.5,1 11.3,-0.1 10.4,-4.5"/>
<path class="Note" transform="matrix(2.3811,0,0,2.3811,3762.13,1510.87)" d="M18.7,-13.6 C4.9,-13.6 0,-6.6 0,-0.1 C0,6.4 4.9,13.4 18.7,13.4 C32.5,13.4 37.3,6.4 37.3,-0.1 C37.3,-6.6 32.5,-13.6 18.7,-13.6 M10.4,-4.5 C10.3,-4.9 10.3,-5.3 10.3,-5.7 C10.3,-6.5 10.5,-7.3 10.9,-8 C11.6,-9 12.8,-9.7 14.3,-10 C15.6,-10.3 16.3,-10.5 18.9,-10.5 L19,-10.5 C23,-10.5 24.3,-6.8 25.4,-3 L25.7,-2 C26.5,0.6 26.9,2.8 26.9,4.5 C26.9,5.7 26.7,6.8 26.3,7.6 C25.7,8.7 24.7,9.4 23,9.8 C22.1,10 20.6,10.1 20.6,10.1 C20.1,10.1 19.7,10.2 19.3,10.2 C16.1,10.2 14.1,9 12.7,4.7 C11.5,1 11.3,-0.1 10.4,-4.5"/>
<path class="Note" transform="matrix(2.3811,0,0,2.3811,3762.13,1421.57)" d="M18.7,-13.6 C4.9,-13.6 0,-6.6 0,-0.1 C0,6.4 4.9,13.4 18.7,13.4 C32.5,13.4 37.3,6.4 37.3,-0.1 C37.3,-6.6 32.5,-13.6 18.7,-13.6 M10.4,-4.5 C10.3,-4.9 10.3,-5.3 10.3,-5.7 C10.3,-6.5 10.5,-7.3 10.9,-8 C11.6,-9 12.8,-9.7 14.3,-10 C15.6,-10.3 16.3,-10.5 18.9,-10.5 L19,-10.5 C23,-10.5 24.3,-6.8 25.4,-3 L25.7,-2 C26.5,0.6 26.9,2.8 26.9,4.5 C26.9,5.7 26.7,6.8 26.3,7.6 C25.7,8.7 24.7,9.4 23,9.8 C22.1,10 20.6,10.1 20.6,10.1 C20.1,10.1 19.7,10.2 19.3,10.2 C16.1,10.2 14.1,9 12.7,4.7 C11.5,1 11.3,-0.1 10.4,-4.5"/>
<path class="Note" d="M653.554,1098.35 C653.167,1099.05 652.586,1099.4 651.811,1099.4 C651.114,1099.4 650.223,1099.09 649.138,1098.47 C647.511,1097.54 646.698,1096.61 646.698,1095.68 C646.698,1095.37 646.814,1094.98 647.046,1094.52 C664.788,1068.95 675.867,1047.41 680.283,1029.91 C680.593,1029.36 681.135,1029.09 681.91,1029.09 C682.917,1029.09 684.35,1029.63 686.209,1030.72 C688.766,1032.19 690.044,1033.51 690.044,1034.67 C690.044,1034.98 689.967,1035.25 689.812,1035.48 C683.924,1052.22 671.838,1073.17 653.554,1098.35 M674.472,1105.33 C674.085,1106.02 673.504,1106.37 672.729,1106.37 C672.032,1106.37 671.141,1106.06 670.056,1105.44 C668.429,1104.51 667.616,1103.58 667.616,1102.65 C667.616,1102.34 667.732,1101.96 667.964,1101.49 C685.706,1075.92 696.785,1054.39 701.201,1036.88 C701.51,1036.34 702.053,1036.06 702.828,1036.06 C703.835,1036.06 705.268,1036.61 707.127,1037.69 C709.684,1039.16 710.962,1040.48 710.962,1041.64 C710.962,1041.95 710.885,1042.22 710.73,1042.46 C704.842,1059.19 692.756,1080.15 674.472,1105.33 M758.025,1059.89 C762.596,1059.89 764.881,1062.75 764.881,1068.49 C764.881,1072.52 762.363,1078.52 757.328,1086.5 C753.299,1092.93 751.285,1099.21 751.285,1105.33 C751.285,1108.81 756.359,1110.56 766.508,1110.56 C774.875,1110.56 786.535,1106.02 801.488,1096.96 C786.458,1111.45 773.403,1118.69 762.325,1118.69 C752.33,1118.69 745.358,1117.18 741.407,1114.16 C740.399,1113.38 739.547,1112.45 738.85,1111.37 C734.976,1116.09 728.507,1118.46 719.443,1118.46 C710.766,1118.46 704.103,1116.68 699.454,1113.11 C696.356,1110.71 694.806,1106.88 694.806,1101.61 C694.806,1093.24 699.764,1084.1 709.681,1074.18 C720.295,1063.57 732.575,1058.26 746.52,1058.26 C750.006,1058.26 752.563,1059.54 754.19,1062.1 C755.507,1060.62 756.785,1059.89 758.025,1059.89 M737.223,1106.14 C737.146,1105.52 737.107,1104.9 737.107,1104.28 C737.107,1103.97 741.058,1093.16 748.96,1071.86 C749.735,1069.77 750.51,1067.98 751.285,1066.51 C748.263,1065.89 745.28,1065.58 742.336,1065.58 C736.913,1065.58 729.708,1070.19 720.721,1079.41 C712.664,1087.62 708.635,1094.71 708.635,1100.68 C708.635,1107.26 711.773,1110.56 718.048,1110.56 C725.641,1110.56 732.032,1109.08 737.223,1106.14"/>
<path class="Note" d="M625.264,587.916 C625.574,576.217 632.043,565.836 644.671,556.771 C655.905,548.714 668.185,544.685 681.51,544.685 C700.182,544.685 716.645,552.007 730.9,566.649 C739.964,576.024 744.497,587.645 744.497,601.513 C744.497,613.986 741.165,623.554 734.502,630.217 C726.368,638.429 717.768,642.535 708.704,642.535 C702.506,642.535 697.702,641.14 694.293,638.351 C688.715,633.78 685.926,627.66 685.926,619.99 C685.926,610.073 690.885,601.009 700.801,592.797 C708.936,586.056 717.11,581.64 725.322,579.549 C723.153,575.83 720.402,572.344 717.071,569.09 C706.689,558.941 694.913,553.866 681.743,553.866 C668.03,553.866 656.68,556.849 647.693,562.814 C638.396,568.935 630.92,577.302 625.264,587.916 M728.227,585.708 C723.966,589.659 719.705,593.881 715.444,598.375 C707.077,607.207 702.893,615.574 702.893,623.476 C702.893,631.921 704.83,636.143 708.704,636.143 C712.19,636.143 717.071,631.379 723.346,621.849 C728.382,614.257 730.9,607.284 730.9,600.931 C730.9,595.508 730.009,590.434 728.227,585.708"/>
<path class="Note" d="M692.076,553.244 C688.28,553.244 686.382,549.176 686.382,541.041 L686.382,506.992 C686.382,503.738 687.97,502.111 691.147,502.111 C692.541,502.111 693.587,502.227 694.284,502.459 C696.764,498.121 700.831,494.48 706.487,491.536 C714.389,487.43 722.407,485.376 730.542,485.376 C736.973,485.376 740.188,487.778 740.188,492.582 C740.188,496.61 738.018,498.624 733.68,498.624 C730.581,498.624 727.637,497.927 724.848,496.533 C722.369,495.293 719.735,494.673 716.946,494.673 C712.142,494.673 705.053,497.811 695.679,504.086 C696.996,510.362 697.655,517.683 697.655,526.05 C697.655,544.179 695.795,553.244 692.076,553.244"/>
<path class="Note" d="M751.228,650.479 C755.566,647.535 758.704,645.094 760.641,643.157 C764.205,639.361 765.987,635.875 765.987,632.698 C765.987,629.057 763.972,627.236 759.944,627.236 C752.119,627.236 743.752,634.132 734.842,647.922 C732.13,652.106 726.165,665.741 716.946,688.828 C724.306,696.421 727.986,700.721 727.986,701.728 C727.986,703.122 727.095,703.819 725.313,703.819 C723.918,703.819 720.083,701.457 713.808,696.731 C706.99,712.613 696.647,726.171 682.78,737.404 C668.602,748.871 651.674,754.604 631.995,754.604 C624.48,754.604 615.067,752.86 603.756,749.374 C594.692,746.585 590.159,742.13 590.159,736.01 C590.159,726.945 593.646,722.413 600.618,722.413 C604.802,722.413 606.894,724.35 606.894,728.224 C606.894,729.463 605.925,730.78 603.989,732.175 C602.981,732.872 602.478,734.228 602.478,736.242 C602.478,738.644 605.151,741.123 610.496,743.68 C616.307,746.469 624.829,747.863 636.063,747.863 C650.55,747.863 664.534,741.588 678.015,729.037 C690.256,717.649 699.049,704.401 704.395,689.293 C702.303,687.589 700.056,685.729 697.655,683.715 C690.217,679.299 686.498,674.767 686.498,670.118 C686.498,668.181 687.777,667.213 690.333,667.213 C693.742,667.213 698.352,670.118 704.162,675.929 C705.402,677.168 706.564,678.331 707.649,679.415 C710.36,671.978 714.699,662.526 720.664,651.06 C731.433,630.297 744.526,619.915 759.944,619.915 C765.444,619.915 769.783,620.961 772.959,623.053 C776.136,625.145 777.724,628.011 777.724,631.652 C777.724,637.463 775.593,642.383 771.332,646.411 C766.916,650.595 762.307,652.687 757.503,652.687 C753.32,652.687 751.228,651.951 751.228,650.479"/>
<path class="Note" d="M1327.71,884.145 C1321.35,894.139 1311.32,902.429 1297.61,909.014 C1285.68,914.748 1274.52,917.614 1264.14,917.614 C1255.85,917.614 1248.95,915.948 1243.45,912.617 C1237.49,908.976 1234.51,904.637 1234.51,899.601 C1234.51,888.213 1237.49,878.412 1243.45,870.2 C1251.59,859.044 1259.8,853.466 1268.09,853.466 C1273.98,853.466 1278.16,854.628 1280.64,856.952 C1284.05,859.973 1285.75,864.118 1285.75,869.387 C1285.75,876.824 1280.22,883.293 1269.14,888.794 C1258.37,894.139 1250.89,897.626 1246.71,899.253 C1247.64,901.19 1248.84,902.933 1250.31,904.482 C1253.95,908.356 1258.91,910.293 1265.19,910.293 C1273.09,910.293 1283.7,907.388 1297.03,901.577 C1309.81,895.921 1320.04,890.111 1327.71,884.145 M1245.08,893.907 C1250.89,890.963 1256.2,887.515 1261,883.564 C1268.13,877.754 1271.69,871.478 1271.69,864.738 C1271.69,860.942 1269.95,859.044 1266.46,859.044 C1263.52,859.044 1259.49,862.414 1254.38,869.154 C1247.95,877.521 1244.73,884.339 1244.73,889.607 C1244.73,891.079 1244.85,892.513 1245.08,893.907"/>
<path class="Note" d="M1291.91,494.673 C1296.49,494.673 1298.77,497.54 1298.77,503.273 C1298.77,507.302 1296.25,513.306 1291.22,521.286 C1287.19,527.716 1285.17,533.991 1285.17,540.112 C1285.17,543.598 1290.25,545.341 1300.4,545.341 C1308.76,545.341 1320.42,540.809 1335.38,531.745 C1320.35,546.232 1307.29,553.476 1296.21,553.476 C1286.22,553.476 1279.25,551.965 1275.3,548.944 C1274.29,548.169 1273.44,547.239 1272.74,546.155 C1268.87,550.881 1262.4,553.244 1253.33,553.244 C1244.66,553.244 1237.99,551.462 1233.34,547.898 C1230.24,545.496 1228.7,541.661 1228.7,536.393 C1228.7,528.026 1233.65,518.884 1243.57,508.967 C1254.18,498.353 1266.46,493.046 1280.41,493.046 C1283.9,493.046 1286.45,494.325 1288.08,496.881 C1289.4,495.409 1290.67,494.673 1291.91,494.673 M1271.11,540.925 C1271.03,540.305 1271,539.686 1271,539.066 C1271,538.756 1274.95,527.948 1282.85,506.643 C1283.62,504.551 1284.4,502.769 1285.17,501.297 C1282.15,500.678 1279.17,500.368 1276.23,500.368 C1270.8,500.368 1263.6,504.977 1254.61,514.197 C1246.55,522.409 1242.52,529.498 1242.52,535.463 C1242.52,542.049 1245.66,545.341 1251.94,545.341 C1259.53,545.341 1265.92,543.869 1271.11,540.925"/>
<path class="Note" d="M1327.71,794.854 C1321.35,804.848 1311.32,813.138 1297.61,819.723 C1285.68,825.456 1274.52,828.323 1264.14,828.323 C1255.85,828.323 1248.95,826.657 1243.45,823.326 C1237.49,819.684 1234.51,815.346 1234.51,810.31 C1234.51,798.921 1237.49,789.121 1243.45,780.909 C1251.59,769.752 1259.8,764.174 1268.09,764.174 C1273.98,764.174 1278.16,765.336 1280.64,767.661 C1284.05,770.682 1285.75,774.827 1285.75,780.095 C1285.75,787.533 1280.22,794.002 1269.14,799.502 C1258.37,804.848 1250.89,808.334 1246.71,809.961 C1247.64,811.898 1248.84,813.641 1250.31,815.191 C1253.95,819.065 1258.91,821.001 1265.19,821.001 C1273.09,821.001 1283.7,818.096 1297.03,812.286 C1309.81,806.63 1320.04,800.819 1327.71,794.854 M1245.08,804.616 C1250.89,801.672 1256.2,798.224 1261,794.273 C1268.13,788.462 1271.69,782.187 1271.69,775.447 C1271.69,771.651 1269.95,769.752 1266.46,769.752 C1263.52,769.752 1259.49,773.123 1254.38,779.863 C1247.95,788.23 1244.73,795.048 1244.73,800.316 C1244.73,801.788 1244.85,803.221 1245.08,804.616"/>
<path class="Note" d="M1327.71,705.563 C1321.35,715.557 1311.32,723.846 1297.61,730.432 C1285.68,736.165 1274.52,739.031 1264.14,739.031 C1255.85,739.031 1248.95,737.366 1243.45,734.034 C1237.49,730.393 1234.51,726.055 1234.51,721.019 C1234.51,709.63 1237.49,699.83 1243.45,691.617 C1251.59,680.461 1259.8,674.883 1268.09,674.883 C1273.98,674.883 1278.16,676.045 1280.64,678.369 C1284.05,681.391 1285.75,685.536 1285.75,690.804 C1285.75,698.241 1280.22,704.71 1269.14,710.211 C1258.37,715.557 1250.89,719.043 1246.71,720.67 C1247.64,722.607 1248.84,724.35 1250.31,725.9 C1253.95,729.773 1258.91,731.71 1265.19,731.71 C1273.09,731.71 1283.7,728.805 1297.03,722.994 C1309.81,717.339 1320.04,711.528 1327.71,705.563 M1245.08,715.324 C1250.89,712.38 1256.2,708.933 1261,704.982 C1268.13,699.171 1271.69,692.896 1271.69,686.155 C1271.69,682.359 1269.95,680.461 1266.46,680.461 C1263.52,680.461 1259.49,683.831 1254.38,690.571 C1247.95,698.939 1244.73,705.756 1244.73,711.025 C1244.73,712.497 1244.85,713.93 1245.08,715.324"/>
<path class="Note" d="M1686.11,1059.89 C1690.68,1059.89 1692.97,1062.75 1692.97,1068.49 C1692.97,1072.52 1690.45,1078.52 1685.41,1086.5 C1681.38,1092.93 1679.37,1099.21 1679.37,1105.33 C1679.37,1108.81 1684.44,1110.56 1694.59,1110.56 C1702.96,1110.56 1714.62,1106.02 1729.57,1096.96 C1714.54,1111.45 1701.49,1118.69 1690.41,1118.69 C1680.41,1118.69 1673.44,1117.18 1669.49,1114.16 C1668.48,1113.38 1667.63,1112.45 1666.93,1111.37 C1663.06,1116.09 1656.59,1118.46 1647.53,1118.46 C1638.85,1118.46 1632.19,1116.68 1627.54,1113.11 C1624.44,1110.71 1622.89,1106.88 1622.89,1101.61 C1622.89,1093.24 1627.85,1084.1 1637.77,1074.18 C1648.38,1063.57 1660.66,1058.26 1674.6,1058.26 C1678.09,1058.26 1680.65,1059.54 1682.27,1062.1 C1683.59,1060.62 1684.87,1059.89 1686.11,1059.89 M1665.31,1106.14 C1665.23,1105.52 1665.19,1104.9 1665.19,1104.28 C1665.19,1103.97 1669.14,1093.16 1677.04,1071.86 C1677.82,1069.77 1678.59,1067.98 1679.37,1066.51 C1676.35,1065.89 1673.36,1065.58 1670.42,1065.58 C1665,1065.58 1657.79,1070.19 1648.81,1079.41 C1640.75,1087.62 1636.72,1094.71 1636.72,1100.68 C1636.72,1107.26 1639.86,1110.56 1646.13,1110.56 C1653.73,1110.56 1660.12,1109.08 1665.31,1106.14"/>
<path class="Note" d="M1575.02,587.916 C1575.33,576.217 1581.8,565.836 1594.43,556.771 C1605.66,548.714 1617.94,544.685 1631.27,544.685 C1649.94,544.685 1666.4,552.007 1680.66,566.649 C1689.72,576.024 1694.25,587.645 1694.25,601.513 C1694.25,613.986 1690.92,623.554 1684.26,630.217 C1676.12,638.429 1667.52,642.535 1658.46,642.535 C1652.26,642.535 1647.46,641.14 1644.05,638.351 C1638.47,633.78 1635.68,627.66 1635.68,619.99 C1635.68,610.073 1640.64,601.009 1650.56,592.797 C1658.69,586.056 1666.87,581.64 1675.08,579.549 C1672.91,575.83 1670.16,572.344 1666.83,569.09 C1656.45,558.941 1644.67,553.866 1631.5,553.866 C1617.79,553.866 1606.44,556.849 1597.45,562.814 C1588.15,568.935 1580.68,577.302 1575.02,587.916 M1677.98,585.708 C1673.72,589.659 1669.46,593.881 1665.2,598.375 C1656.83,607.207 1652.65,615.574 1652.65,623.476 C1652.65,631.921 1654.59,636.143 1658.46,636.143 C1661.95,636.143 1666.83,631.379 1673.1,621.849 C1678.14,614.257 1680.66,607.284 1680.66,600.931 C1680.66,595.508 1679.77,590.434 1677.98,585.708"/>
<path class="Note" d="M1641.83,553.244 C1638.04,553.244 1636.14,549.176 1636.14,541.041 L1636.14,506.992 C1636.14,503.738 1637.73,502.111 1640.9,502.111 C1642.3,502.111 1643.34,502.227 1644.04,502.459 C1646.52,498.121 1650.59,494.48 1656.24,491.536 C1664.15,487.43 1672.16,485.376 1680.3,485.376 C1686.73,485.376 1689.94,487.778 1689.94,492.582 C1689.94,496.61 1687.77,498.624 1683.44,498.624 C1680.34,498.624 1677.39,497.927 1674.6,496.533 C1672.13,495.293 1669.49,494.673 1666.7,494.673 C1661.9,494.673 1654.81,497.811 1645.44,504.086 C1646.75,510.362 1647.41,517.683 1647.41,526.05 C1647.41,544.179 1645.55,553.244 1641.83,553.244"/>
<path class="Note" d="M1700.98,650.479 C1705.32,647.535 1708.46,645.094 1710.4,643.157 C1713.96,639.361 1715.74,635.875 1715.74,632.698 C1715.74,629.057 1713.73,627.236 1709.7,627.236 C1701.88,627.236 1693.51,634.132 1684.6,647.922 C1681.89,652.106 1675.92,665.741 1666.7,688.828 C1674.06,696.421 1677.74,700.721 1677.74,701.728 C1677.74,703.122 1676.85,703.819 1675.07,703.819 C1673.67,703.819 1669.84,701.457 1663.56,696.731 C1656.75,712.613 1646.4,726.171 1632.54,737.404 C1618.36,748.871 1601.43,754.604 1581.75,754.604 C1574.24,754.604 1564.82,752.86 1553.51,749.374 C1544.45,746.585 1539.92,742.13 1539.92,736.01 C1539.92,726.945 1543.4,722.413 1550.37,722.413 C1554.56,722.413 1556.65,724.35 1556.65,728.224 C1556.65,729.463 1555.68,730.78 1553.74,732.175 C1552.74,732.872 1552.23,734.228 1552.23,736.242 C1552.23,738.644 1554.91,741.123 1560.25,743.68 C1566.06,746.469 1574.59,747.863 1585.82,747.863 C1600.31,747.863 1614.29,741.588 1627.77,729.037 C1640.01,717.649 1648.81,704.401 1654.15,689.293 C1652.06,687.589 1649.81,685.729 1647.41,683.715 C1639.97,679.299 1636.25,674.767 1636.25,670.118 C1636.25,668.181 1637.53,667.213 1640.09,667.213 C1643.5,667.213 1648.11,670.118 1653.92,675.929 C1655.16,677.168 1656.32,678.331 1657.41,679.415 C1660.12,671.978 1664.46,662.526 1670.42,651.06 C1681.19,630.297 1694.28,619.915 1709.7,619.915 C1715.2,619.915 1719.54,620.961 1722.72,623.053 C1725.89,625.145 1727.48,628.011 1727.48,631.652 C1727.48,637.463 1725.35,642.383 1721.09,646.411 C1716.67,650.595 1712.06,652.687 1707.26,652.687 C1703.08,652.687 1700.98,651.951 1700.98,650.479"/>
<path class="Note" d="M2107.05,941.13 C2111.62,941.13 2113.9,943.997 2113.9,949.73 C2113.9,953.758 2111.39,959.763 2106.35,967.742 C2102.32,974.173 2100.31,980.448 2100.31,986.568 C2100.31,990.055 2105.38,991.798 2115.53,991.798 C2123.9,991.798 2135.56,987.266 2150.51,978.201 C2135.48,992.689 2122.43,999.933 2111.35,999.933 C2101.35,999.933 2094.38,998.422 2090.43,995.401 C2089.42,994.626 2088.57,993.696 2087.87,992.611 C2084,997.337 2077.53,999.7 2068.47,999.7 C2059.79,999.7 2053.13,997.918 2048.48,994.355 C2045.38,991.953 2043.83,988.118 2043.83,982.85 C2043.83,974.483 2048.79,965.341 2058.7,955.424 C2069.32,944.81 2081.6,939.503 2095.54,939.503 C2099.03,939.503 2101.59,940.781 2103.21,943.338 C2104.53,941.866 2105.81,941.13 2107.05,941.13 M2086.25,987.382 C2086.17,986.762 2086.13,986.142 2086.13,985.523 C2086.13,985.213 2090.08,974.405 2097.98,953.1 C2098.76,951.008 2099.53,949.226 2100.31,947.754 C2097.29,947.134 2094.3,946.824 2091.36,946.824 C2085.94,946.824 2078.73,951.434 2069.74,960.653 C2061.69,968.866 2057.66,975.955 2057.66,981.92 C2057.66,988.505 2060.8,991.798 2067.07,991.798 C2074.66,991.798 2081.05,990.326 2086.25,987.382"/>
<path class="Note" d="M2062.77,642.535 C2058.97,642.535 2057.08,638.468 2057.08,630.333 L2057.08,596.283 C2057.08,593.029 2058.66,591.402 2061.84,591.402 C2063.24,591.402 2064.28,591.518 2064.98,591.751 C2067.46,587.412 2071.53,583.771 2077.18,580.827 C2085.08,576.721 2093.1,574.668 2101.24,574.668 C2107.67,574.668 2110.88,577.069 2110.88,581.873 C2110.88,585.902 2108.71,587.916 2104.37,587.916 C2101.28,587.916 2098.33,587.219 2095.54,585.824 C2093.06,584.584 2090.43,583.965 2087.64,583.965 C2082.84,583.965 2075.75,587.102 2066.37,593.378 C2067.69,599.653 2068.35,606.974 2068.35,615.342 C2068.35,633.471 2066.49,642.535 2062.77,642.535"/>
<path class="Note" d="M1995.96,498.624 C1996.27,486.926 2002.74,476.544 2015.37,467.48 C2026.6,459.423 2038.88,455.394 2052.2,455.394 C2070.88,455.394 2087.34,462.715 2101.59,477.358 C2110.66,486.732 2115.19,498.353 2115.19,512.221 C2115.19,524.694 2111.86,534.263 2105.2,540.925 C2097.06,549.138 2088.46,553.244 2079.4,553.244 C2073.2,553.244 2068.4,551.849 2064.99,549.06 C2059.41,544.489 2056.62,538.369 2056.62,530.699 C2056.62,520.782 2061.58,511.718 2071.5,503.505 C2079.63,496.765 2087.8,492.349 2096.02,490.257 C2093.85,486.539 2091.1,483.052 2087.77,479.798 C2077.38,469.649 2065.61,464.575 2052.44,464.575 C2038.72,464.575 2027.37,467.557 2018.39,473.523 C2009.09,479.643 2001.61,488.011 1995.96,498.624 M2098.92,496.416 C2094.66,500.368 2090.4,504.59 2086.14,509.083 C2077.77,517.916 2073.59,526.283 2073.59,534.185 C2073.59,542.63 2075.52,546.852 2079.4,546.852 C2082.88,546.852 2087.77,542.087 2094.04,532.558 C2099.08,524.966 2101.59,517.993 2101.59,511.64 C2101.59,506.217 2100.7,501.142 2098.92,496.416"/>
<path class="Note" d="M2121.92,650.479 C2126.26,647.535 2129.4,645.094 2131.34,643.157 C2134.9,639.361 2136.68,635.875 2136.68,632.698 C2136.68,629.057 2134.67,627.236 2130.64,627.236 C2122.81,627.236 2114.45,634.132 2105.54,647.922 C2102.82,652.106 2096.86,665.741 2087.64,688.828 C2095,696.421 2098.68,700.721 2098.68,701.728 C2098.68,703.122 2097.79,703.819 2096.01,703.819 C2094.61,703.819 2090.78,701.457 2084.5,696.731 C2077.68,712.613 2067.34,726.171 2053.47,737.404 C2039.3,748.871 2022.37,754.604 2002.69,754.604 C1995.17,754.604 1985.76,752.86 1974.45,749.374 C1965.39,746.585 1960.85,742.13 1960.85,736.01 C1960.85,726.945 1964.34,722.413 1971.31,722.413 C1975.5,722.413 1977.59,724.35 1977.59,728.224 C1977.59,729.463 1976.62,730.78 1974.68,732.175 C1973.68,732.872 1973.17,734.228 1973.17,736.242 C1973.17,738.644 1975.84,741.123 1981.19,743.68 C1987,746.469 1995.52,747.863 2006.76,747.863 C2021.24,747.863 2035.23,741.588 2048.71,729.037 C2060.95,717.649 2069.74,704.401 2075.09,689.293 C2073,687.589 2070.75,685.729 2068.35,683.715 C2060.91,679.299 2057.19,674.767 2057.19,670.118 C2057.19,668.181 2058.47,667.213 2061.03,667.213 C2064.44,667.213 2069.05,670.118 2074.86,675.929 C2076.1,677.168 2077.26,678.331 2078.34,679.415 C2081.05,671.978 2085.39,662.526 2091.36,651.06 C2102.13,630.297 2115.22,619.915 2130.64,619.915 C2136.14,619.915 2140.48,620.961 2143.65,623.053 C2146.83,625.145 2148.42,628.011 2148.42,631.652 C2148.42,637.463 2146.29,642.383 2142.03,646.411 C2137.61,650.595 2133,652.687 2128.2,652.687 C2124.01,652.687 2121.92,651.951 2121.92,650.479"/>
<path class="Note" d="M2519.65,999.7 C2515.85,999.7 2513.95,995.633 2513.95,987.498 L2513.95,953.448 C2513.95,950.194 2515.54,948.568 2518.72,948.568 C2520.11,948.568 2521.16,948.684 2521.86,948.916 C2524.34,944.578 2528.4,940.936 2534.06,937.992 C2541.96,933.886 2549.98,931.833 2558.11,931.833 C2564.54,931.833 2567.76,934.235 2567.76,939.038 C2567.76,943.067 2565.59,945.081 2561.25,945.081 C2558.15,945.081 2555.21,944.384 2552.42,942.989 C2549.94,941.75 2547.31,941.13 2544.52,941.13 C2539.71,941.13 2532.63,944.268 2523.25,950.543 C2524.57,956.818 2525.23,964.14 2525.23,972.507 C2525.23,990.636 2523.37,999.7 2519.65,999.7"/>
<path class="Note" d="M2519.65,642.535 C2515.85,642.535 2513.95,638.468 2513.95,630.333 L2513.95,596.283 C2513.95,593.029 2515.54,591.402 2518.72,591.402 C2520.11,591.402 2521.16,591.518 2521.86,591.751 C2524.34,587.412 2528.4,583.771 2534.06,580.827 C2541.96,576.721 2549.98,574.668 2558.11,574.668 C2564.54,574.668 2567.76,577.069 2567.76,581.873 C2567.76,585.902 2565.59,587.916 2561.25,587.916 C2558.15,587.916 2555.21,587.219 2552.42,585.824 C2549.94,584.584 2547.31,583.965 2544.52,583.965 C2539.71,583.965 2532.63,587.102 2523.25,593.378 C2524.57,599.653 2525.23,606.974 2525.23,615.342 C2525.23,633.471 2523.37,642.535 2519.65,642.535"/>
<path class="Note" d="M2599.72,794.854 C2593.36,804.848 2583.33,813.138 2569.62,819.723 C2557.69,825.456 2546.53,828.323 2536.15,828.323 C2527.86,828.323 2520.97,826.657 2515.46,823.326 C2509.5,819.684 2506.52,815.346 2506.52,810.31 C2506.52,798.921 2509.5,789.121 2515.46,780.909 C2523.6,769.752 2531.81,764.174 2540.1,764.174 C2545.99,764.174 2550.17,765.336 2552.65,767.661 C2556.06,770.682 2557.77,774.827 2557.77,780.095 C2557.77,787.533 2552.23,794.002 2541.15,799.502 C2530.38,804.848 2522.9,808.334 2518.72,809.961 C2519.65,811.898 2520.85,813.641 2522.32,815.191 C2525.96,819.065 2530.92,821.001 2537.2,821.001 C2545.1,821.001 2555.71,818.096 2569.04,812.286 C2581.82,806.63 2592.05,800.819 2599.72,794.854 M2517.09,804.616 C2522.9,801.672 2528.21,798.224 2533.01,794.273 C2540.14,788.462 2543.7,782.187 2543.7,775.447 C2543.7,771.651 2541.96,769.752 2538.47,769.752 C2535.53,769.752 2531.5,773.123 2526.39,779.863 C2519.96,788.23 2516.74,795.048 2516.74,800.316 C2516.74,801.788 2516.86,803.221 2517.09,804.616"/>
<path class="Note" d="M2599.72,705.563 C2593.36,715.557 2583.33,723.846 2569.62,730.432 C2557.69,736.165 2546.53,739.031 2536.15,739.031 C2527.86,739.031 2520.97,737.366 2515.46,734.034 C2509.5,730.393 2506.52,726.055 2506.52,721.019 C2506.52,709.63 2509.5,699.83 2515.46,691.617 C2523.6,680.461 2531.81,674.883 2540.1,674.883 C2545.99,674.883 2550.17,676.045 2552.65,678.369 C2556.06,681.391 2557.77,685.536 2557.77,690.804 C2557.77,698.241 2552.23,704.71 2541.15,710.211 C2530.38,715.557 2522.9,719.043 2518.72,720.67 C2519.65,722.607 2520.85,724.35 2522.32,725.9 C2525.96,729.773 2530.92,731.71 2537.2,731.71 C2545.1,731.71 2555.71,728.805 2569.04,722.994 C2581.82,717.339 2592.05,711.528 2599.72,705.563 M2517.09,715.324 C2522.9,712.38 2528.21,708.933 2533.01,704.982 C2540.14,699.171 2543.7,692.896 2543.7,686.155 C2543.7,682.359 2541.96,680.461 2538.47,680.461 C2535.53,680.461 2531.5,683.831 2526.39,690.571 C2519.96,698.939 2516.74,705.756 2516.74,711.025 C2516.74,712.497 2516.86,713.93 2517.09,715.324"/>
<path class="Note" d="M3035.41,973.437 C3029.06,983.431 3019.03,991.721 3005.31,998.306 C2993.38,1004.04 2982.23,1006.91 2971.84,1006.91 C2963.55,1006.91 2956.66,1005.24 2951.16,1001.91 C2945.19,998.267 2942.21,993.929 2942.21,988.893 C2942.21,977.504 2945.19,967.704 2951.16,959.491 C2959.29,948.335 2967.51,942.757 2975.79,942.757 C2981.68,942.757 2985.87,943.919 2988.35,946.243 C2991.75,949.265 2993.46,953.41 2993.46,958.678 C2993.46,966.115 2987.92,972.584 2976.84,978.085 C2966.07,983.431 2958.6,986.917 2954.41,988.544 C2955.34,990.481 2956.54,992.224 2958.01,993.774 C2961.66,997.647 2966.61,999.584 2972.89,999.584 C2980.79,999.584 2991.41,996.679 3004.73,990.868 C3017.51,985.213 3027.74,979.402 3035.41,973.437 M2952.79,983.198 C2958.6,980.254 2963.9,976.807 2968.71,972.856 C2975.83,967.045 2979.4,960.77 2979.4,954.029 C2979.4,950.233 2977.65,948.335 2974.17,948.335 C2971.22,948.335 2967.2,951.705 2962.08,958.445 C2955.65,966.813 2952.44,973.63 2952.44,978.899 C2952.44,980.371 2952.55,981.804 2952.79,983.198"/>
<path class="Note" d="M2999.62,494.673 C3004.19,494.673 3006.47,497.54 3006.47,503.273 C3006.47,507.302 3003.96,513.306 2998.92,521.286 C2994.89,527.716 2992.88,533.991 2992.88,540.112 C2992.88,543.598 2997.95,545.341 3008.1,545.341 C3016.47,545.341 3028.13,540.809 3043.08,531.745 C3028.05,546.232 3015,553.476 3003.92,553.476 C2993.92,553.476 2986.95,551.965 2983,548.944 C2981.99,548.169 2981.14,547.239 2980.44,546.155 C2976.57,550.881 2970.1,553.244 2961.04,553.244 C2952.36,553.244 2945.7,551.462 2941.05,547.898 C2937.95,545.496 2936.4,541.661 2936.4,536.393 C2936.4,528.026 2941.36,518.884 2951.27,508.967 C2961.89,498.353 2974.17,493.046 2988.11,493.046 C2991.6,493.046 2994.16,494.325 2995.78,496.881 C2997.1,495.409 2998.38,494.673 2999.62,494.673 M2978.82,540.925 C2978.74,540.305 2978.7,539.686 2978.7,539.066 C2978.7,538.756 2982.65,527.948 2990.55,506.643 C2991.33,504.551 2992.1,502.769 2992.88,501.297 C2989.86,500.678 2986.87,500.368 2983.93,500.368 C2978.51,500.368 2971.3,504.977 2962.31,514.197 C2954.26,522.409 2950.23,529.498 2950.23,535.463 C2950.23,542.049 2953.37,545.341 2959.64,545.341 C2967.23,545.341 2973.63,543.869 2978.82,540.925"/>
<path class="Note" d="M3014.49,650.479 C3018.83,647.535 3021.97,645.094 3023.91,643.157 C3027.47,639.361 3029.25,635.875 3029.25,632.698 C3029.25,629.057 3027.24,627.236 3023.21,627.236 C3015.38,627.236 3007.02,634.132 2998.11,647.922 C2995.4,652.106 2989.43,665.741 2980.21,688.828 C2987.57,696.421 2991.25,700.721 2991.25,701.728 C2991.25,703.122 2990.36,703.819 2988.58,703.819 C2987.18,703.819 2983.35,701.457 2977.07,696.731 C2970.26,712.613 2959.91,726.171 2946.04,737.404 C2931.87,748.871 2914.94,754.604 2895.26,754.604 C2887.75,754.604 2878.33,752.86 2867.02,749.374 C2857.96,746.585 2853.42,742.13 2853.42,736.01 C2853.42,726.945 2856.91,722.413 2863.88,722.413 C2868.07,722.413 2870.16,724.35 2870.16,728.224 C2870.16,729.463 2869.19,730.78 2867.25,732.175 C2866.25,732.872 2865.74,734.228 2865.74,736.242 C2865.74,738.644 2868.42,741.123 2873.76,743.68 C2879.57,746.469 2888.09,747.863 2899.33,747.863 C2913.82,747.863 2927.8,741.588 2941.28,729.037 C2953.52,717.649 2962.31,704.401 2967.66,689.293 C2965.57,687.589 2963.32,685.729 2960.92,683.715 C2953.48,679.299 2949.76,674.767 2949.76,670.118 C2949.76,668.181 2951.04,667.213 2953.6,667.213 C2957.01,667.213 2961.62,670.118 2967.43,675.929 C2968.67,677.168 2969.83,678.331 2970.91,679.415 C2973.63,671.978 2977.96,662.526 2983.93,651.06 C2994.7,630.297 3007.79,619.915 3023.21,619.915 C3028.71,619.915 3033.05,620.961 3036.22,623.053 C3039.4,625.145 3040.99,628.011 3040.99,631.652 C3040.99,637.463 3038.86,642.383 3034.6,646.411 C3030.18,650.595 3025.57,652.687 3020.77,652.687 C3016.58,652.687 3014.49,651.951 3014.49,650.479"/>
<path class="Note" d="M3460.81,941.943 C3460.81,950.853 3450.66,970.415 3430.37,1000.63 C3422.31,1012.64 3410.73,1021.43 3395.62,1027.01 C3384.46,1031.19 3371.56,1033.29 3356.92,1033.29 C3352.19,1033.29 3348.01,1032.32 3344.37,1030.38 C3340.34,1028.29 3338.33,1026 3338.33,1023.52 C3338.33,1017.09 3341.77,1013.88 3348.67,1013.88 C3349.68,1013.88 3350.18,1014.5 3350.18,1015.74 C3350.18,1016.82 3349.68,1018.02 3348.67,1019.34 C3347.43,1020.97 3346.81,1022.17 3346.81,1022.94 C3346.81,1025.27 3350.3,1026.43 3357.27,1026.43 C3372.92,1026.43 3385.28,1024.53 3394.34,1020.73 C3403.79,1016.86 3413.21,1006.98 3422.58,991.101 L3425.25,986.104 C3420.76,989.513 3416.3,991.217 3411.89,991.217 C3400.89,991.217 3395.39,986.762 3395.39,977.853 C3395.39,968.246 3401.86,958.136 3414.79,947.522 C3424.94,939.309 3433.97,935.203 3441.87,935.203 C3445.82,935.203 3449.11,936.249 3451.75,938.341 C3452.68,937.644 3453.84,937.295 3455.24,937.295 C3458.95,937.295 3460.81,938.845 3460.81,941.943 M3426.65,983.663 L3448.61,943.106 C3446.91,942.718 3445.01,942.525 3442.92,942.525 C3435.4,942.525 3428.12,946.902 3421.07,955.656 C3412.86,965.883 3408.75,974.056 3408.75,980.177 C3408.75,984.206 3411.42,986.22 3416.77,986.22 C3419.33,986.22 3422.62,985.368 3426.65,983.663"/>
<path class="Note" d="M3388.99,642.535 C3384.81,642.535 3382.72,640.637 3382.72,636.841 C3382.72,630.41 3383.69,625.684 3385.62,622.663 C3393.68,610.732 3411.19,588.419 3438.15,555.725 C3450.32,540.928 3466,533.529 3485.22,533.529 C3492.66,533.529 3497.81,534.575 3500.67,536.667 C3505.09,539.921 3507.3,543.833 3507.3,548.404 C3507.3,553.207 3503.42,558.553 3495.68,564.441 C3488.32,570.019 3481.34,572.808 3474.76,572.808 C3472.2,572.808 3470.92,572.537 3470.92,571.995 C3470.92,571.22 3472.16,570.407 3474.64,569.555 C3477.97,568.315 3481.54,565.797 3485.33,562.001 C3489.67,557.585 3491.84,553.595 3491.84,550.031 C3491.84,547.629 3490.18,545.344 3486.84,543.175 C3483.9,541.315 3479.14,540.386 3472.55,540.386 C3462.94,540.386 3450.82,550.07 3436.18,569.438 C3426.41,582.376 3418.51,593.765 3412.47,603.604 C3415.41,601.977 3418.94,600.002 3423.04,597.678 C3428.08,594.811 3432.42,593.378 3436.06,593.378 C3445.12,593.378 3449.66,596.632 3449.66,603.139 C3449.66,609.57 3445.94,616.62 3438.5,624.29 C3433.23,629.713 3430.6,633.742 3430.6,636.376 C3430.6,639.087 3433.23,640.443 3438.5,640.443 C3441.13,640.443 3443.85,639.513 3446.64,637.654 C3449.42,635.872 3451.48,634.981 3452.79,634.981 C3453.88,634.981 3454.42,635.679 3454.42,637.073 C3454.42,639.32 3452.25,641.683 3447.91,644.162 C3440.63,648.346 3434.78,650.437 3430.37,650.437 C3422.54,650.437 3418.63,646.254 3418.63,637.887 C3418.63,632.618 3421.65,626.769 3427.69,620.339 C3432.11,615.613 3434.32,610.926 3434.32,606.277 C3434.32,602.249 3432.15,600.234 3427.81,600.234 C3426.1,600.234 3420.45,602.249 3410.84,606.277 C3407.98,611.081 3405.57,615.497 3403.64,619.525 C3396.28,634.865 3391.4,642.535 3388.99,642.535"/>
<path class="Note" d="M3446.75,494.673 C3451.32,494.673 3453.61,497.54 3453.61,503.273 C3453.61,507.302 3451.09,513.306 3446.05,521.286 C3442.03,527.716 3440.01,533.991 3440.01,540.112 C3440.01,543.598 3445.09,545.341 3455.24,545.341 C3463.6,545.341 3475.26,540.809 3490.21,531.745 C3475.18,546.232 3462.13,553.476 3451.05,553.476 C3441.06,553.476 3434.08,551.965 3430.13,548.944 C3429.13,548.169 3428.27,547.239 3427.58,546.155 C3423.7,550.881 3417.23,553.244 3408.17,553.244 C3399.49,553.244 3392.83,551.462 3388.18,547.898 C3385.08,545.496 3383.53,541.661 3383.53,536.393 C3383.53,528.026 3388.49,518.884 3398.41,508.967 C3409.02,498.353 3421.3,493.046 3435.25,493.046 C3438.73,493.046 3441.29,494.325 3442.92,496.881 C3444.23,495.409 3445.51,494.673 3446.75,494.673 M3425.95,540.925 C3425.87,540.305 3425.83,539.686 3425.83,539.066 C3425.83,538.756 3429.79,527.948 3437.69,506.643 C3438.46,504.551 3439.24,502.769 3440.01,501.297 C3436.99,500.678 3434.01,500.368 3431.06,500.368 C3425.64,500.368 3418.44,504.977 3409.45,514.197 C3401.39,522.409 3397.36,529.498 3397.36,535.463 C3397.36,542.049 3400.5,545.341 3406.78,545.341 C3414.37,545.341 3420.76,543.869 3425.95,540.925"/>
<path class="Note" d="M3388.99,731.826 C3384.81,731.826 3382.72,729.928 3382.72,726.132 C3382.72,719.702 3383.69,714.976 3385.62,711.954 C3393.68,700.023 3411.19,677.711 3438.15,645.017 C3450.32,630.219 3466,622.82 3485.22,622.82 C3492.66,622.82 3497.81,623.866 3500.67,625.958 C3505.09,629.212 3507.3,633.124 3507.3,637.695 C3507.3,642.499 3503.42,647.845 3495.68,653.733 C3488.32,659.311 3481.34,662.1 3474.76,662.1 C3472.2,662.1 3470.92,661.829 3470.92,661.286 C3470.92,660.512 3472.16,659.698 3474.64,658.846 C3477.97,657.606 3481.54,655.088 3485.33,651.292 C3489.67,646.876 3491.84,642.886 3491.84,639.322 C3491.84,636.921 3490.18,634.635 3486.84,632.466 C3483.9,630.607 3479.14,629.677 3472.55,629.677 C3462.94,629.677 3450.82,639.361 3436.18,658.73 C3426.41,671.668 3418.51,683.056 3412.47,692.896 C3415.41,691.269 3418.94,689.293 3423.04,686.969 C3428.08,684.102 3432.42,682.669 3436.06,682.669 C3445.12,682.669 3449.66,685.923 3449.66,692.431 C3449.66,698.861 3445.94,705.911 3438.5,713.581 C3433.23,719.004 3430.6,723.033 3430.6,725.667 C3430.6,728.379 3433.23,729.735 3438.5,729.735 C3441.13,729.735 3443.85,728.805 3446.64,726.945 C3449.42,725.164 3451.48,724.273 3452.79,724.273 C3453.88,724.273 3454.42,724.97 3454.42,726.364 C3454.42,728.611 3452.25,730.974 3447.91,733.453 C3440.63,737.637 3434.78,739.729 3430.37,739.729 C3422.54,739.729 3418.63,735.545 3418.63,727.178 C3418.63,721.91 3421.65,716.06 3427.69,709.63 C3432.11,704.904 3434.32,700.217 3434.32,695.568 C3434.32,691.54 3432.15,689.526 3427.81,689.526 C3426.1,689.526 3420.45,691.54 3410.84,695.568 C3407.98,700.372 3405.57,704.788 3403.64,708.817 C3396.28,724.156 3391.4,731.826 3388.99,731.826"/>
<path class="Note" d="M3796.67,910.409 C3792.87,910.409 3790.98,906.342 3790.98,898.207 L3790.98,864.157 C3790.98,860.903 3792.56,859.276 3795.74,859.276 C3797.14,859.276 3798.18,859.392 3798.88,859.625 C3801.36,855.286 3805.43,851.645 3811.08,848.701 C3818.98,844.595 3827,842.542 3835.14,842.542 C3841.57,842.542 3844.78,844.943 3844.78,849.747 C3844.78,853.776 3842.61,855.79 3838.27,855.79 C3835.18,855.79 3832.23,855.093 3829.44,853.698 C3826.96,852.458 3824.33,851.839 3821.54,851.839 C3816.74,851.839 3809.65,854.976 3800.27,861.252 C3801.59,867.527 3802.25,874.848 3802.25,883.216 C3802.25,901.345 3800.39,910.409 3796.67,910.409"/>
<path class="Note" d="M3729.86,587.916 C3730.17,576.217 3736.64,565.836 3749.27,556.771 C3760.5,548.714 3772.78,544.685 3786.1,544.685 C3804.78,544.685 3821.24,552.007 3835.49,566.649 C3844.56,576.024 3849.09,587.645 3849.09,601.513 C3849.09,613.986 3845.76,623.554 3839.1,630.217 C3830.96,638.429 3822.36,642.535 3813.3,642.535 C3807.1,642.535 3802.3,641.14 3798.89,638.351 C3793.31,633.78 3790.52,627.66 3790.52,619.99 C3790.52,610.073 3795.48,601.009 3805.4,592.797 C3813.53,586.056 3821.7,581.64 3829.92,579.549 C3827.75,575.83 3825,572.344 3821.66,569.09 C3811.28,558.941 3799.51,553.866 3786.34,553.866 C3772.62,553.866 3761.27,556.849 3752.29,562.814 C3742.99,568.935 3735.51,577.302 3729.86,587.916 M3832.82,585.708 C3828.56,589.659 3824.3,593.881 3820.04,598.375 C3811.67,607.207 3807.49,615.574 3807.49,623.476 C3807.49,631.921 3809.42,636.143 3813.3,636.143 C3816.78,636.143 3821.66,631.379 3827.94,621.849 C3832.98,614.257 3835.49,607.284 3835.49,600.931 C3835.49,595.508 3834.6,590.434 3832.82,585.708"/>
<path class="Note" d="M3796.67,553.244 C3792.87,553.244 3790.98,549.176 3790.98,541.041 L3790.98,506.992 C3790.98,503.738 3792.56,502.111 3795.74,502.111 C3797.14,502.111 3798.18,502.227 3798.88,502.459 C3801.36,498.121 3805.43,494.48 3811.08,491.536 C3818.98,487.43 3827,485.376 3835.14,485.376 C3841.57,485.376 3844.78,487.778 3844.78,492.582 C3844.78,496.61 3842.61,498.624 3838.27,498.624 C3835.18,498.624 3832.23,497.927 3829.44,496.533 C3826.96,495.293 3824.33,494.673 3821.54,494.673 C3816.74,494.673 3809.65,497.811 3800.27,504.086 C3801.59,510.362 3802.25,517.683 3802.25,526.05 C3802.25,544.179 3800.39,553.244 3796.67,553.244"/>
<path class="Note" d="M3855.82,650.479 C3860.16,647.535 3863.3,645.094 3865.24,643.157 C3868.8,639.361 3870.58,635.875 3870.58,632.698 C3870.58,629.057 3868.57,627.236 3864.54,627.236 C3856.71,627.236 3848.35,634.132 3839.44,647.922 C3836.72,652.106 3830.76,665.741 3821.54,688.828 C3828.9,696.421 3832.58,700.721 3832.58,701.728 C3832.58,703.122 3831.69,703.819 3829.91,703.819 C3828.51,703.819 3824.68,701.457 3818.4,696.731 C3811.58,712.613 3801.24,726.171 3787.37,737.404 C3773.2,748.871 3756.27,754.604 3736.59,754.604 C3729.07,754.604 3719.66,752.86 3708.35,749.374 C3699.29,746.585 3694.75,742.13 3694.75,736.01 C3694.75,726.945 3698.24,722.413 3705.21,722.413 C3709.4,722.413 3711.49,724.35 3711.49,728.224 C3711.49,729.463 3710.52,730.78 3708.58,732.175 C3707.58,732.872 3707.07,734.228 3707.07,736.242 C3707.07,738.644 3709.74,741.123 3715.09,743.68 C3720.9,746.469 3729.42,747.863 3740.66,747.863 C3755.14,747.863 3769.13,741.588 3782.61,729.037 C3794.85,717.649 3803.64,704.401 3808.99,689.293 C3806.9,687.589 3804.65,685.729 3802.25,683.715 C3794.81,679.299 3791.09,674.767 3791.09,670.118 C3791.09,668.181 3792.37,667.213 3794.93,667.213 C3798.34,667.213 3802.95,670.118 3808.76,675.929 C3810,677.168 3811.16,678.331 3812.24,679.415 C3814.95,671.978 3819.29,662.526 3825.26,651.06 C3836.03,630.297 3849.12,619.915 3864.54,619.915 C3870.04,619.915 3874.38,620.961 3877.55,623.053 C3880.73,625.145 3882.32,628.011 3882.32,631.652 C3882.32,637.463 3880.19,642.383 3875.93,646.411 C3871.51,650.595 3866.9,652.687 3862.1,652.687 C3857.91,652.687 3855.82,651.951 3855.82,650.479"/>
<path class="Clef" transform="matrix(2.3811,0,0,2.3811,212.156,2076.38)" d="M25.4,-25.1 C17.8,-25.1 11.7,-20.7 11.6,-20.7 C5.8,-16.4 3.5,-11.3 2.6,-7.8 C2.1,-6 1.9,-4.2 1.9,-2.5 C1.9,-0.1 2.3,2.1 3.2,4 C4.4,6.7 6.7,8.6 9.7,9.6 C10.9,10 12.2,10.2 13.5,10.2 C15.7,10.2 18,9.6 19.9,8.5 C23,6.8 24.9,3.2 24.9,-0.7 C24.9,-4.2 23.1,-7.4 20.1,-9.3 C18,-10.7 16,-11.1 14.3,-11.1 C13.1,-11.1 12,-10.9 11.1,-10.6 C10.1,-10.2 8.4,-9.2 7.6,-8.5 C7.9,-10.4 9.1,-13.3 10.2,-14.9 C11.3,-16.5 13.5,-18.5 15.2,-19.4 C17.7,-20.8 20.9,-21.4 24.4,-21.4 C34.6,-21.4 39.6,-13.2 39.6,3.6 C39.6,12.9 36.1,21.8 33.1,27.7 C29.8,34.3 25.4,40.6 21.5,44.1 C11.1,53.6 1.3,58.1 1.2,58.1 C1.2,58.1 -0.3,59 0.1,60.5 C0.4,61.5 1.3,61.7 1.9,61.7 C2,61.7 2.3,61.6 2.4,61.6 C2.5,61.6 13.9,56.9 23,49.8 C28.1,46.1 32.7,42.1 36.7,37.8 C40.3,33.9 43.4,29.7 45.9,25.5 C50.3,18 52.8,10.2 52.8,3.5 C52.8,-4.8 50.6,-11.7 46.5,-16.6 C41.8,-22.2 34.7,-25.1 25.4,-25.1 M56.8,-12.4 C56.8,-9.6 59,-7.4 61.6,-7.4 C64.2,-7.4 66.4,-9.6 66.4,-12.4 C66.4,-15.2 64.2,-17.5 61.6,-17.5 C59,-17.5 56.8,-15.2 56.8,-12.4 M56.8,12.3 C56.8,15.1 59,17.4 61.6,17.4 C64.2,17.4 66.4,15.1 66.4,12.3 C66.4,9.5 64.2,7.2 61.6,7.2 C59,7.2 56.8,9.5 56.8,12.3"/>
<path class="Clef" transform="matrix(2.3811,0,0,2.3811,212.156,1570.39)" d="M63.37,-5.89004 C62.14,-11.32 59.5,-15.14 58.72,-16.1801 C55.5301,-20.45 51.52,-23.3 46.8301,-24.65 C43.72,-25.54 40.72,-25.65 38.3,-25.47 C37.2601,-31.4801 36.2601,-37.3601 35.35,-42.8101 C40.79,-48.97 44.42,-54.77 46.69,-59.07 C50.1601,-65.65 51.3101,-70.2301 51.3601,-70.4301 C53.0801,-75.64 53.44,-83.34 52.34,-91.55 C51.3301,-99.1 49.24,-105.81 46.89,-109.06 C45.8601,-110.49 44.8101,-111.22 43.77,-111.22 C42.55,-111.22 40.04,-109.98 37.15,-107.21 C34.85,-105.01 31.5801,-101.12 29.02,-95.1101 C26.02,-88.05 25.8101,-78.5601 26.1601,-71.84 C26.54,-64.57 27.65,-58.8801 27.6601,-58.8301 C27.6801,-58.74 27.94,-57.24 28.39,-54.67 C28.1601,-54.44 27.92,-54.22 27.67,-53.9801 C26.6301,-52.9801 25.44,-51.84 24.0601,-50.4601 C23.2,-49.6 22.25,-48.69 21.25,-47.72 C12.79,-39.57 0,-27.25 0,-8.1 C0,-3.4 0.9,1.01992 2.68008,5.02998 C4.27002,8.62998 6.57002,11.91 9.5,14.78 C17.2301,22.33 27.82,25.5399 34.8801,25.38 C37.8301,25.31 40.4601,25.0699 42.85,24.6199 C44.6801,34.2199 45.82,41.25 45.8601,46.5899 C45.9,53.1 44.25,57.0699 40.35,59.8399 C37.92,61.5699 35.1101,62.5199 32.0101,62.6699 C29.42,62.7899 27.1601,62.3199 25.7301,61.91 L25.72,61.91 C25.72,61.91 25.4301,61.83 25.42,61.63 C25.4101,61.45 25.7601,61.4 25.77,61.4 L25.79,61.4 C27.7101,60.96 31.2801,59.73 33.64,56.43 C35.44,53.91 36.3101,49.2899 34.47,45.35 C33.3601,42.96 30.85,40.01 25.2301,39.56 C22.74,39.36 20.47,39.8699 18.47,41.0699 C16.6601,42.15 15.1601,43.7899 14.1101,45.7899 C11.65,50.4899 12.1101,56.2199 15.24,60.06 C18.2,63.68 22.82,65.9899 28.25,66.5699 C29.1,66.66 29.95,66.7 30.8,66.7 C31.5101,66.7 32.22,66.6699 32.92,66.61 C31.72,66.9399 30.64,67.4899 29.77,68.25 C28.2801,69.5399 27.44,71.38 27.44,73.41 C27.44,75.28 28.0601,76.65 29.55,78.0399 C28.4101,78.5 27.55,78.98 26.79,79.56 C25.25,80.73 24.34,82.46 24.34,84.1899 C24.34,87.45 27.3,89.63 31.72,89.63 C37.1301,89.63 40.9101,86.63 40.9101,82.35 C40.9101,80.1199 39.9101,78.18 38.0801,76.83 C41.0101,75.6199 42.37,73.9399 42.37,71.56 C42.39,70.05 41.69,68.61 40.49,67.6899 C39.2801,66.7399 37.62,66.2399 35.69,66.2399 L35.5101,66.2399 C38.2801,65.7 40.92,64.7 43.2101,63.28 C46.87,60.71 48.99,56.73 49.67,51.1 C50.2301,46.46 49.84,40.55 48.44,32.48 C48.0801,30.3899 47.54,27.36 46.8801,23.6 C52.6301,21.68 56.79,18.11 60.5601,12.26 C63.85,6.51992 64.8,0.419922 63.37,-5.89004 M32.39,87.5399 C30.19,87.5399 28.7301,86.1199 28.7301,84.01 C28.7301,82.11 29.65,80.5 31.32,79.4699 C31.6801,79.66 31.77,79.71 32.1101,79.88 C33.3,80.48 33.3,80.48 33.55,80.63 L33.5601,80.6399 C35.47,81.73 36.25,82.76 36.25,84.18 C36.24,86.0899 34.59,87.5399 32.39,87.5399 M38.3101,71.63 C38.3101,73.2699 37.7301,74.3399 36.1801,75.53 C34.74,74.78 34.35,74.56 33.9801,74.3399 L33.8801,74.28 C32.3301,73.3399 31.85,72.66 31.85,71.4 C31.85,69.6 33.2301,68.3399 35.19,68.3399 C37.17,68.35 38.3101,69.55 38.3101,71.63 M33.15,-83.8101 C34.9301,-89.55 37.67,-92.8 39.6601,-94.5301 C41.4101,-96.05 43.0601,-96.7601 43.9801,-96.7601 C44.12,-96.7601 44.24,-96.74 44.34,-96.7101 C44.8,-96.57 45.3301,-96 45.8,-95.1301 C48.1101,-90.84 47.37,-84.1301 46.0301,-79.69 C44.4,-74.29 41.4801,-68.6801 32.69,-59.0601 C32.52,-60.17 32.3601,-61.22 32.2101,-62.2 C30.95,-70.49 31.27,-77.7601 33.15,-83.8101 M29.15,20.31 C24.5101,19.0899 20.0801,16.5899 16.32,13.0899 C15.0101,11.86 13.14,9.68994 11.67,6.3 C10.3101,3.13994 9.65,-0.290039 9.7,-3.88008 C9.77002,-8.57002 11.0801,-13.39 13.59,-18.1801 C16.5101,-23.7601 21.07,-29.29 27.1301,-34.62 C28.5801,-35.9 29.95,-37.1801 31.24,-38.4601 C32,-34.2 32.8301,-29.5101 33.7101,-24.6301 C29.8601,-23.3601 25.1101,-20.2101 22,-14.5601 C18.47,-7.99004 18.6101,-2.47002 19.34,1.00996 C20.2801,5.46992 22.8101,9.22998 26.27,11.3199 C27.2,11.88 31.3301,14.01 33.17,13.43 C33.54,13.31 33.8101,13.0899 33.95,12.76 C34.4601,11.5899 33.44,10.95 31.8801,9.98994 C31.2801,9.61992 30.6101,9.2 29.8801,8.66992 C26.5601,6.17998 25.1101,1.72998 26.1801,-2.65 C26.7601,-5.05 28.04,-7.21006 29.8801,-8.91006 C31.55,-10.4601 33.59,-11.5601 35.97,-12.2 C38.0101,-0.960059 40.07,10.1899 41.7101,18.55 C41.84,19.2399 41.9801,19.91 42.1101,20.58 C37.7101,21.51 33.37,21.4199 29.15,20.31 M54.9,10.1 C53.7301,13.28 51.27,17.35 46.14,19.41 C46.07,18.9899 45.99,18.56 45.9101,18.13 C44.3601,9.36992 42.4301,-1.61006 40.47,-12.87 C50.82,-13.35 55.09,-5.91006 55.9801,-1.08008 C56.45,1.45 56.45,5.88994 54.9,10.1"/>
<path class="KeySig" transform="matrix(2.3811,0,0,2.3811,429.785,2076.38)" d="M23.3,-10.6 C23.9,-10.7 24.4,-11.4 24.4,-12 L24.4,-17.9 C24.4,-18.7 23.8,-19.3 23,-19.3 L22.8,-19.3 L19.5,-18.6 L19.5,-33.5 L16.7,-33.5 L16.7,-18 L7.8,-16.2 L7.8,-30.3 L5,-30.3 L5,-15.6 L1.1,-14.8 C0.5,-14.7 0,-14 0,-13.4 L0,-13.2 L0,-7.4 L0,-7.6 C0,-6.8 0.6,-6.2 1.4,-6.2 L1.7,-6.2 L5,-6.9 L5,9.6 L1.1,10.4 C0.5,10.5 0,11.2 0,11.8 L0,17.6 C0,18.4 0.6,19 1.4,19 L1.7,19 L5,18.3 L5,33.2 L7.8,33.2 L7.8,17.7 L16.7,15.9 L16.7,30 L19.5,30 L19.5,15.3 L23.3,14.6 C23.9,14.5 24.4,13.8 24.4,13.2 L24.4,7.3 C24.4,6.5 23.8,5.9 23,5.9 L22.8,5.9 L19.5,6.6 L19.5,-9.9 L23.3,-10.6 M7.8,9.1 L7.8,-7.5 L16.7,-9.3 L16.7,7.2 L7.8,9.1 "/>
<path class="KeySig" transform="matrix(2.3811,0,0,2.3811,429.785,1391.81)" d="M23.3,-10.6 C23.9,-10.7 24.4,-11.4 24.4,-12 L24.4,-17.9 C24.4,-18.7 23.8,-19.3 23,-19.3 L22.8,-19.3 L19.5,-18.6 L19.5,-33.5 L16.7,-33.5 L16.7,-18 L7.8,-16.2 L7.8,-30.3 L5,-30.3 L5,-15.6 L1.1,-14.8 C0.5,-14.7 0,-14 0,-13.4 L0,-13.2 L0,-7.4 L0,-7.6 C0,-6.8 0.6,-6.2 1.4,-6.2 L1.7,-6.2 L5,-6.9 L5,9.6 L1.1,10.4 C0.5,10.5 0,11.2 0,11.8 L0,17.6 C0,18.4 0.6,19 1.4,19 L1.7,19 L5,18.3 L5,33.2 L7.8,33.2 L7.8,17.7 L16.7,15.9 L16.7,30 L19.5,30 L19.5,15.3 L23.3,14.6 C23.9,14.5 24.4,13.8 24.4,13.2 L24.4,7.3 C24.4,6.5 23.8,5.9 23,5.9 L22.8,5.9 L19.5,6.6 L19.5,-9.9 L23.3,-10.6 M7.8,9.1 L7.8,-7.5 L16.7,-9.3 L16.7,7.2 L7.8,9.1 "/>
<path class="FiguredBass" d="M1206.86,2444.42 C1206.18,2445.16 1205.28,2445.53 1204.17,2445.53 C1203.06,2445.53 1202.14,2445.15 1201.43,2444.37 C1200.72,2443.6 1200.37,2442.72 1200.37,2441.73 L1200.37,2428.46 L1187.1,2428.46 C1185.99,2428.46 1185.07,2428.08 1184.36,2427.3 C1183.65,2426.53 1183.3,2425.65 1183.3,2424.66 C1183.3,2423.67 1183.65,2422.79 1184.36,2422.01 C1185.07,2421.24 1185.99,2420.85 1187.1,2420.85 L1200.37,2420.85 L1200.37,2407.59 C1200.37,2406.6 1200.72,2405.72 1201.43,2404.94 C1202.14,2404.17 1203.06,2403.78 1204.17,2403.78 C1205.28,2403.78 1206.2,2404.17 1206.91,2404.94 C1207.62,2405.72 1207.97,2406.6 1207.97,2407.59 L1207.97,2420.85 L1221.24,2420.85 C1222.35,2420.85 1223.27,2421.24 1223.98,2422.01 C1224.69,2422.79 1225.04,2423.67 1225.04,2424.66 C1225.04,2425.65 1224.69,2426.53 1223.98,2427.3 C1223.27,2428.08 1222.35,2428.46 1221.24,2428.46 L1207.97,2428.46 L1207.97,2441.73 C1207.97,2442.72 1207.6,2443.62 1206.86,2444.42 M1260.28,2390.15 C1255.71,2390.15 1252.66,2391.99 1251.15,2395.67 C1249.63,2399.35 1248.87,2404.56 1248.87,2411.3 L1248.87,2422.25 C1252.09,2420.95 1254.87,2420.27 1257.22,2420.21 C1265.26,2420.21 1271.59,2421.98 1276.19,2425.54 C1280.8,2429.1 1283.11,2434.38 1283.11,2441.4 C1283.11,2448.42 1280.77,2453.73 1276.1,2457.31 C1271.43,2460.9 1265.14,2462.7 1257.22,2462.7 C1249.12,2462.7 1242.78,2458.94 1238.2,2451.42 C1233.63,2443.91 1231.34,2434.99 1231.34,2424.66 C1231.34,2414.39 1234,2405.49 1239.32,2397.94 C1244.64,2390.39 1251.62,2386.62 1260.28,2386.62 C1265.97,2386.62 1270.89,2388.06 1275.03,2390.94 C1279.18,2393.81 1281.25,2397.6 1281.25,2402.3 C1281.25,2405.02 1280.26,2407.37 1278.28,2409.35 C1276.3,2411.33 1273.94,2412.32 1271.18,2412.32 C1268.43,2412.32 1266.07,2411.33 1264.09,2409.35 C1262.11,2407.37 1261.12,2405.02 1261.12,2402.3 C1261.12,2399.64 1262.11,2397.29 1264.09,2395.25 C1264.77,2394.45 1265.73,2393.76 1266.96,2393.21 C1266.65,2392.4 1266.04,2391.79 1265.11,2391.35 C1263.75,2390.55 1262.14,2390.15 1260.28,2390.15 M1264.83,2428.09 C1263.72,2425.18 1261.27,2423.73 1257.5,2423.73 C1253.73,2423.73 1251.39,2425.18 1250.5,2428.09 C1249.6,2431 1249.15,2435.42 1249.15,2441.36 C1249.15,2448.35 1249.6,2453.05 1250.5,2455.46 C1251.39,2457.87 1253.73,2459.08 1257.5,2459.08 C1261.27,2459.08 1263.72,2457.62 1264.83,2454.72 C1265.94,2451.81 1266.5,2447.37 1266.5,2441.4 C1266.5,2435.44 1265.94,2431 1264.83,2428.09"/>
<path class="FiguredBass" d="M1654.48,2390.15 C1649.9,2390.15 1646.86,2391.99 1645.34,2395.67 C1643.83,2399.35 1643.07,2404.56 1643.07,2411.3 L1643.07,2422.25 C1646.28,2420.95 1649.07,2420.27 1651.42,2420.21 C1659.46,2420.21 1665.78,2421.98 1670.39,2425.54 C1675,2429.1 1677.3,2434.38 1677.3,2441.4 C1677.3,2448.42 1674.97,2453.73 1670.3,2457.31 C1665.63,2460.9 1659.33,2462.7 1651.42,2462.7 C1643.32,2462.7 1636.98,2458.94 1632.4,2451.42 C1627.82,2443.91 1625.53,2434.99 1625.53,2424.66 C1625.53,2414.39 1628.19,2405.49 1633.51,2397.94 C1638.83,2390.39 1645.82,2386.62 1654.48,2386.62 C1660.17,2386.62 1665.09,2388.06 1669.23,2390.94 C1673.37,2393.81 1675.45,2397.6 1675.45,2402.3 C1675.45,2405.02 1674.46,2407.37 1672.48,2409.35 C1670.5,2411.33 1668.13,2412.32 1665.38,2412.32 C1662.63,2412.32 1660.26,2411.33 1658.28,2409.35 C1656.3,2407.37 1655.31,2405.02 1655.31,2402.3 C1655.31,2399.64 1656.3,2397.29 1658.28,2395.25 C1658.96,2394.45 1659.92,2393.76 1661.16,2393.21 C1660.85,2392.4 1660.23,2391.79 1659.3,2391.35 C1657.94,2390.55 1656.33,2390.15 1654.48,2390.15 M1659.02,2428.09 C1657.91,2425.18 1655.47,2423.73 1651.7,2423.73 C1647.92,2423.73 1645.59,2425.18 1644.69,2428.09 C1643.79,2431 1643.35,2435.42 1643.35,2441.36 C1643.35,2448.35 1643.79,2453.05 1644.69,2455.46 C1645.59,2457.87 1647.92,2459.08 1651.7,2459.08 C1655.47,2459.08 1657.91,2457.62 1659.02,2454.72 C1660.14,2451.81 1660.69,2447.37 1660.69,2441.4 C1660.69,2435.44 1660.14,2431 1659.02,2428.09"/>
<path class="FiguredBass" d="M2075.42,2390.15 C2070.84,2390.15 2067.79,2391.99 2066.28,2395.67 C2064.76,2399.35 2064.01,2404.56 2064.01,2411.3 L2064.01,2422.25 C2067.22,2420.95 2070.01,2420.27 2072.36,2420.21 C2080.4,2420.21 2086.72,2421.98 2091.33,2425.54 C2095.94,2429.1 2098.24,2434.38 2098.24,2441.4 C2098.24,2448.42 2095.9,2453.73 2091.23,2457.31 C2086.57,2460.9 2080.27,2462.7 2072.36,2462.7 C2064.25,2462.7 2057.91,2458.94 2053.34,2451.42 C2048.76,2443.91 2046.47,2434.99 2046.47,2424.66 C2046.47,2414.39 2049.13,2405.49 2054.45,2397.94 C2059.77,2390.39 2066.76,2386.62 2075.42,2386.62 C2081.11,2386.62 2086.02,2388.06 2090.17,2390.94 C2094.31,2393.81 2096.38,2397.6 2096.38,2402.3 C2096.38,2405.02 2095.39,2407.37 2093.41,2409.35 C2091.44,2411.33 2089.07,2412.32 2086.32,2412.32 C2083.57,2412.32 2081.2,2411.33 2079.22,2409.35 C2077.24,2407.37 2076.25,2405.02 2076.25,2402.3 C2076.25,2399.64 2077.24,2397.29 2079.22,2395.25 C2079.9,2394.45 2080.86,2393.76 2082.1,2393.21 C2081.79,2392.4 2081.17,2391.79 2080.24,2391.35 C2078.88,2390.55 2077.27,2390.15 2075.42,2390.15 M2079.96,2428.09 C2078.85,2425.18 2076.41,2423.73 2072.63,2423.73 C2068.86,2423.73 2066.53,2425.18 2065.63,2428.09 C2064.73,2431 2064.28,2435.42 2064.28,2441.36 C2064.28,2448.35 2064.73,2453.05 2065.63,2455.46 C2066.53,2457.87 2068.86,2459.08 2072.63,2459.08 C2076.41,2459.08 2078.85,2457.62 2079.96,2454.72 C2081.08,2451.81 2081.63,2447.37 2081.63,2441.4 C2081.63,2435.44 2081.08,2431 2079.96,2428.09"/>
<path class="FiguredBass" d="M2052.78,2492.37 C2052.78,2492.37 2054.26,2492.59 2057.23,2493.02 C2058.53,2493.21 2059.99,2493.39 2061.59,2493.58 C2065.86,2494.07 2069.97,2494.32 2073.93,2494.32 C2077.89,2494.32 2082.07,2494.07 2086.46,2493.58 C2088.19,2493.39 2089.7,2493.21 2091,2493.02 L2095.55,2492.37 C2096.48,2492.37 2097.17,2492.68 2097.64,2493.3 C2098.1,2493.92 2098.05,2494.41 2097.5,2494.78 C2088.03,2504.25 2074.71,2508.98 2057.51,2508.98 C2056.83,2508.98 2056.23,2509.23 2055.7,2509.72 C2055.18,2510.21 2054.91,2510.83 2054.91,2511.58 L2054.91,2526.14 C2059.31,2521.81 2064.62,2519.65 2070.87,2519.65 C2079.9,2519.65 2086.87,2521.67 2091.79,2525.72 C2096.71,2529.77 2099.17,2535.91 2099.17,2544.14 C2099.17,2551.13 2096.38,2556.93 2090.82,2561.53 C2085.25,2566.14 2078.6,2568.45 2070.87,2568.45 C2064.19,2568.45 2058.39,2566.93 2053.48,2563.9 C2048.56,2560.87 2046.1,2556.66 2046.1,2551.28 C2046.1,2548.56 2047.09,2546.2 2049.07,2544.19 C2051.05,2542.18 2053.41,2541.17 2056.17,2541.17 C2058.92,2541.17 2061.25,2542.16 2063.17,2544.14 C2065.09,2546.12 2066.05,2548.5 2066.05,2551.28 C2066.05,2552.52 2065.03,2553.86 2062.99,2555.32 C2060.94,2556.77 2059.92,2558.12 2059.92,2559.35 C2059.92,2563.06 2063.57,2564.92 2070.87,2564.92 C2077.98,2564.92 2081.54,2557.99 2081.54,2544.14 C2081.54,2530.78 2077.98,2524.07 2070.87,2524.01 C2064.5,2524.01 2060.05,2525.31 2057.51,2527.9 C2054.98,2530.5 2053.4,2531.8 2052.78,2531.8 C2051.23,2531.8 2050.49,2531.03 2050.55,2529.48 L2050.55,2494.78 C2050.55,2494.1 2050.77,2493.53 2051.2,2493.07 C2051.64,2492.6 2052.16,2492.37 2052.78,2492.37"/>
<path class="FiguredBass" d="M2523.48,2453.05 L2523.48,2472.44 C2523.48,2474.35 2522.51,2475.31 2520.56,2475.31 C2518.61,2475.31 2517.64,2474.35 2517.64,2472.44 L2517.64,2455.55 L2514.67,2456.76 C2514.36,2456.88 2513.96,2456.94 2513.46,2456.94 C2512.66,2456.94 2511.95,2456.63 2511.33,2456.02 C2510.71,2455.4 2510.4,2454.69 2510.4,2453.88 L2510.4,2444.42 C2510.4,2443.06 2511.05,2442.1 2512.35,2441.54 L2517.64,2439.32 L2517.64,2419.83 L2514.67,2421.04 C2514.48,2421.1 2514.23,2421.13 2513.93,2421.13 C2513.8,2421.13 2513.65,2421.13 2513.46,2421.13 C2512.53,2421.01 2511.79,2420.67 2511.23,2420.11 C2510.68,2419.56 2510.4,2418.91 2510.4,2418.16 L2510.4,2408.7 C2510.4,2407.4 2511.05,2406.47 2512.35,2405.92 L2517.64,2403.69 L2517.64,2383.93 C2517.64,2382.01 2518.61,2381.05 2520.56,2381.05 C2522.51,2381.05 2523.48,2382.01 2523.48,2383.93 L2523.48,2401.28 L2535.45,2396.27 L2535.45,2376.88 C2535.45,2374.96 2536.41,2374 2538.32,2374 C2540.24,2374 2541.2,2374.96 2541.2,2376.88 L2541.2,2393.95 L2544.45,2392.56 C2544.76,2392.44 2545.1,2392.37 2545.47,2392.37 C2546.27,2392.37 2547,2392.68 2547.65,2393.3 C2548.3,2393.92 2548.62,2394.63 2548.62,2395.43 L2548.62,2404.9 C2548.62,2406.26 2547.94,2407.22 2546.58,2407.77 L2541.2,2410 L2541.2,2429.58 L2544.45,2428.28 C2544.63,2428.21 2544.85,2428.18 2545.1,2428.18 C2545.22,2428.18 2545.34,2428.18 2545.47,2428.18 C2546.52,2428.37 2547.31,2428.71 2547.83,2429.2 C2548.36,2429.7 2548.62,2430.35 2548.62,2431.15 L2548.62,2440.62 C2548.62,2441.91 2547.94,2442.84 2546.58,2443.4 L2541.2,2445.63 L2541.2,2465.39 C2541.2,2467.3 2540.24,2468.26 2538.32,2468.26 C2536.41,2468.26 2535.45,2467.3 2535.45,2465.39 L2535.45,2448.04 L2523.48,2453.05 M2523.48,2436.9 L2535.45,2431.99 L2535.45,2412.41 L2523.48,2417.42 L2523.48,2436.9 "/>
<path class="FiguredBass" d="M2967.99,2390.15 C2963.41,2390.15 2960.36,2391.99 2958.85,2395.67 C2957.33,2399.35 2956.58,2404.56 2956.58,2411.3 L2956.58,2422.25 C2959.79,2420.95 2962.58,2420.27 2964.93,2420.21 C2972.97,2420.21 2979.29,2421.98 2983.9,2425.54 C2988.51,2429.1 2990.81,2434.38 2990.81,2441.4 C2990.81,2448.42 2988.48,2453.73 2983.81,2457.31 C2979.14,2460.9 2972.84,2462.7 2964.93,2462.7 C2956.82,2462.7 2950.48,2458.94 2945.91,2451.42 C2941.33,2443.91 2939.04,2434.99 2939.04,2424.66 C2939.04,2414.39 2941.7,2405.49 2947.02,2397.94 C2952.34,2390.39 2959.33,2386.62 2967.99,2386.62 C2973.68,2386.62 2978.59,2388.06 2982.74,2390.94 C2986.88,2393.81 2988.95,2397.6 2988.95,2402.3 C2988.95,2405.02 2987.97,2407.37 2985.99,2409.35 C2984.01,2411.33 2981.64,2412.32 2978.89,2412.32 C2976.14,2412.32 2973.77,2411.33 2971.79,2409.35 C2969.81,2407.37 2968.82,2405.02 2968.82,2402.3 C2968.82,2399.64 2969.81,2397.29 2971.79,2395.25 C2972.47,2394.45 2973.43,2393.76 2974.67,2393.21 C2974.36,2392.4 2973.74,2391.79 2972.81,2391.35 C2971.45,2390.55 2969.84,2390.15 2967.99,2390.15 M2972.53,2428.09 C2971.42,2425.18 2968.98,2423.73 2965.2,2423.73 C2961.43,2423.73 2959.1,2425.18 2958.2,2428.09 C2957.3,2431 2956.85,2435.42 2956.85,2441.36 C2956.85,2448.35 2957.3,2453.05 2958.2,2455.46 C2959.1,2457.87 2961.43,2459.08 2965.2,2459.08 C2968.98,2459.08 2971.42,2457.62 2972.53,2454.72 C2973.65,2451.81 2974.2,2447.37 2974.2,2441.4 C2974.2,2435.44 2973.65,2431 2972.53,2428.09"/>
<path class="FiguredBass" d="M3415.12,2390.15 C3410.54,2390.15 3407.5,2391.99 3405.98,2395.67 C3404.47,2399.35 3403.71,2404.56 3403.71,2411.3 L3403.71,2422.25 C3406.93,2420.95 3409.71,2420.27 3412.06,2420.21 C3420.1,2420.21 3426.42,2421.98 3431.03,2425.54 C3435.64,2429.1 3437.94,2434.38 3437.94,2441.4 C3437.94,2448.42 3435.61,2453.73 3430.94,2457.31 C3426.27,2460.9 3419.98,2462.7 3412.06,2462.7 C3403.96,2462.7 3397.62,2458.94 3393.04,2451.42 C3388.46,2443.91 3386.18,2434.99 3386.18,2424.66 C3386.18,2414.39 3388.84,2405.49 3394.15,2397.94 C3399.47,2390.39 3406.46,2386.62 3415.12,2386.62 C3420.81,2386.62 3425.73,2388.06 3429.87,2390.94 C3434.02,2393.81 3436.09,2397.6 3436.09,2402.3 C3436.09,2405.02 3435.1,2407.37 3433.12,2409.35 C3431.14,2411.33 3428.77,2412.32 3426.02,2412.32 C3423.27,2412.32 3420.9,2411.33 3418.93,2409.35 C3416.95,2407.37 3415.96,2405.02 3415.96,2402.3 C3415.96,2399.64 3416.95,2397.29 3418.93,2395.25 C3419.61,2394.45 3420.56,2393.76 3421.8,2393.21 C3421.49,2392.4 3420.87,2391.79 3419.95,2391.35 C3418.59,2390.55 3416.98,2390.15 3415.12,2390.15 M3419.67,2428.09 C3418.55,2425.18 3416.11,2423.73 3412.34,2423.73 C3408.57,2423.73 3406.23,2425.18 3405.33,2428.09 C3404.44,2431 3403.99,2435.42 3403.99,2441.36 C3403.99,2448.35 3404.44,2453.05 3405.33,2455.46 C3406.23,2457.87 3408.57,2459.08 3412.34,2459.08 C3416.11,2459.08 3418.55,2457.62 3419.67,2454.72 C3420.78,2451.81 3421.34,2447.37 3421.34,2441.4 C3421.34,2435.44 3420.78,2431 3419.67,2428.09"/>
<path class="FiguredBass" d="M3392.48,2492.37 L3396.94,2493.02 C3398.11,2493.21 3399.57,2493.39 3401.3,2493.58 C3405.57,2494.07 3409.68,2494.32 3413.64,2494.32 C3417.6,2494.32 3421.77,2494.07 3426.16,2493.58 C3427.89,2493.39 3429.41,2493.21 3430.71,2493.02 L3435.25,2492.37 C3436.18,2492.37 3436.89,2492.68 3437.39,2493.3 C3437.76,2493.79 3437.7,2494.29 3437.2,2494.78 C3427.55,2504.25 3414.22,2508.98 3397.22,2508.98 C3396.54,2508.98 3395.93,2509.23 3395.41,2509.72 C3394.88,2510.21 3394.62,2510.83 3394.62,2511.58 L3394.62,2523.36 C3399.01,2519.03 3404.33,2516.86 3410.58,2516.86 C3419.3,2516.86 3426.1,2518.9 3430.99,2522.99 C3436.3,2518.97 3439.09,2513.83 3439.34,2507.59 C3439.4,2505.61 3440.05,2504 3441.28,2502.76 C3442.64,2501.52 3444.28,2500.91 3446.2,2500.91 C3448.12,2500.91 3449.74,2501.56 3451.07,2502.85 C3452.4,2504.15 3453.07,2505.73 3453.07,2507.59 C3453.07,2517.17 3447.41,2524.44 3436.09,2529.39 C3437.94,2533.04 3438.87,2537.49 3438.87,2542.75 C3438.87,2549.74 3436.09,2555.77 3430.52,2560.84 C3424.96,2565.91 3418.31,2568.45 3410.58,2568.45 C3403.9,2568.45 3398.1,2566.93 3393.18,2563.9 C3388.26,2560.87 3385.81,2556.66 3385.81,2551.28 C3385.81,2548.56 3386.79,2546.2 3388.77,2544.19 C3390.75,2542.18 3393.12,2541.17 3395.87,2541.17 C3398.62,2541.17 3400.96,2542.16 3402.88,2544.14 C3404.79,2546.12 3405.75,2548.5 3405.75,2551.28 C3405.75,2552.52 3404.73,2553.86 3402.69,2555.32 C3400.65,2556.77 3399.63,2558.12 3399.63,2559.35 C3399.63,2563.06 3403.28,2564.92 3410.58,2564.92 C3417.69,2564.92 3421.24,2557.53 3421.24,2542.75 C3421.24,2539.47 3421.06,2536.59 3420.69,2534.12 C3413.2,2535.67 3403.83,2536.87 3392.58,2537.74 C3391.03,2537.86 3390.26,2537.09 3390.26,2535.42 C3390.26,2534.06 3391.03,2533.32 3392.58,2533.19 C3403.96,2532.26 3412.93,2530.78 3419.48,2528.74 C3417.75,2523.79 3414.78,2521.29 3410.58,2521.22 C3404.21,2521.22 3399.75,2522.52 3397.22,2525.12 C3394.68,2527.72 3393.1,2529.02 3392.48,2529.02 C3391,2529.02 3390.26,2528.24 3390.26,2526.7 L3390.26,2494.78 C3390.26,2494.16 3390.47,2493.61 3390.91,2493.11 C3391.4,2492.62 3391.93,2492.37 3392.48,2492.37"/>
<path class="Bracket" transform="matrix(8.6315,0,0,8.6315,76.1283,2254.96)" d="M0.92002,-50 C2.69004,-51.88 6.2,-55.8 6.2,-63 C6.2,-72.1 2.25996,-81.32 2.25996,-86.97 C2.25996,-93.06 5.84004,-98.84 5.95,-99 C6.05996,-99.16 6.05,-99.39 5.94004,-99.46 C5.82998,-99.53 5.62002,-99.47 5.49004,-99.32 C5.35996,-99.17 0,-93.75 0,-85.6 C0,-76.75 3.5,-70.58 3.5,-59.07 C3.5,-56.89 2.55996,-53.36 0.1,-50.33 C-0.0799805,-50.17 -0.1,-49.89 0.0599609,-49.7 L0.0700195,-49.69 L0.1,-49.66 C2.55996,-46.63 3.5,-43.1 3.5,-40.92 C3.5,-29.4 0,-23.24 0,-14.39 C0,-6.25 5.35996,-0.8 5.49004,-0.659961 C5.62002,-0.52002 5.8,-0.42998 5.94004,-0.52002 C6.07998,-0.609961 6.07998,-0.77998 5.95,-0.97998 C5.82002,-1.17998 2.25996,-6.92002 2.25996,-13.01 C2.25996,-18.66 6.2,-27.9 6.2,-37 C6.2,-44.3 2.69004,-48.12 0.92002,-50"/>
</svg>
