<?xml version="1.0" encoding="UTF-8" standalone="no"?>
<svg width="4209.44px" height="2976.38px" viewBox="0 0 4209.44 2976.38"
 xmlns="http://www.w3.org/2000/svg" xmlns:xlink="http://www.w3.org/1999/xlink" version="1.2" baseProfile="tiny">
<title>LaMineur (6)</title>
<desc>Generated by MuseScore 3.6.2</desc>
<polyline class="StaffLines" fill="none" stroke="#000000" stroke-width="6.55" stroke-linejoin="bevel" points="153.819,558.425 4138.58,558.425"/>
<polyline class="StaffLines" fill="none" stroke="#000000" stroke-width="6.55" stroke-linejoin="bevel" points="153.819,647.717 4138.58,647.717"/>
<polyline class="StaffLines" fill="none" stroke="#000000" stroke-width="6.55" stroke-linejoin="bevel" points="153.819,737.008 4138.58,737.008"/>
<polyline class="StaffLines" fill="none" stroke="#000000" stroke-width="6.55" stroke-linejoin="bevel" points="153.819,826.299 4138.58,826.299"/>
<polyline class="StaffLines" fill="none" stroke="#000000" stroke-width="6.55" stroke-linejoin="bevel" points="153.819,915.591 4138.58,915.591"/>
<polyline class="StaffLines" fill="none" stroke="#000000" stroke-width="6.55" stroke-linejoin="bevel" points="153.819,1004.88 4138.58,1004.88"/>
<polyline class="StaffLines" fill="none" stroke="#000000" stroke-width="6.55" stroke-linejoin="bevel" points="153.819,1391.81 4138.58,1391.81"/>
<polyline class="StaffLines" fill="none" stroke="#000000" stroke-width="6.55" stroke-linejoin="bevel" points="153.819,1451.34 4138.58,1451.34"/>
<polyline class="StaffLines" fill="none" stroke="#000000" stroke-width="6.55" stroke-linejoin="bevel" points="153.819,1510.87 4138.58,1510.87"/>
<polyline class="StaffLines" fill="none" stroke="#000000" stroke-width="6.55" stroke-linejoin="bevel" points="153.819,1570.39 4138.58,1570.39"/>
<polyline class="StaffLines" fill="none" stroke="#000000" stroke-width="6.55" stroke-linejoin="bevel" points="153.819,1629.92 4138.58,1629.92"/>
<polyline class="StaffLines" fill="none" stroke="#000000" stroke-width="6.55" stroke-linejoin="bevel" points="153.819,2016.85 4138.58,2016.85"/>
<polyline class="StaffLines" fill="none" stroke="#000000" stroke-width="6.55" stroke-linejoin="bevel" points="153.819,2076.38 4138.58,2076.38"/>
<polyline class="StaffLines" fill="none" stroke="#000000" stroke-width="6.55" stroke-linejoin="bevel" points="153.819,2135.91 4138.58,2135.91"/>
<polyline class="StaffLines" fill="none" stroke="#000000" stroke-width="6.55" stroke-linejoin="bevel" points="153.819,2195.43 4138.58,2195.43"/>
<polyline class="StaffLines" fill="none" stroke="#000000" stroke-width="6.55" stroke-linejoin="bevel" points="153.819,2254.96 4138.58,2254.96"/>
<polyline class="BarLine" fill="none" stroke="#000000" stroke-width="10.71" stroke-linejoin="bevel" points="159.176,2013.58 159.176,2258.23"/>
<polyline class="BarLine" fill="none" stroke="#000000" stroke-width="10.71" stroke-linejoin="bevel" points="922.157,2013.58 922.157,2258.23"/>
<polyline class="BarLine" fill="none" stroke="#000000" stroke-width="10.71" stroke-linejoin="bevel" points="1335,2013.58 1335,2258.23"/>
<polyline class="BarLine" fill="none" stroke="#000000" stroke-width="10.71" stroke-linejoin="bevel" points="1367.74,2013.58 1367.74,2258.23"/>
<polyline class="BarLine" fill="none" stroke="#000000" stroke-width="10.71" stroke-linejoin="bevel" points="1833.69,2013.58 1833.69,2258.23"/>
<polyline class="BarLine" fill="none" stroke="#000000" stroke-width="10.71" stroke-linejoin="bevel" points="2252.26,2013.58 2252.26,2258.23"/>
<polyline class="BarLine" fill="none" stroke="#000000" stroke-width="10.71" stroke-linejoin="bevel" points="2285,2013.58 2285,2258.23"/>
<polyline class="BarLine" fill="none" stroke="#000000" stroke-width="10.71" stroke-linejoin="bevel" points="2723.56,2013.58 2723.56,2258.23"/>
<polyline class="BarLine" fill="none" stroke="#000000" stroke-width="10.71" stroke-linejoin="bevel" points="3160.68,2013.58 3160.68,2258.23"/>
<polyline class="BarLine" fill="none" stroke="#000000" stroke-width="10.71" stroke-linejoin="bevel" points="3193.42,2013.58 3193.42,2258.23"/>
<polyline class="BarLine" fill="none" stroke="#000000" stroke-width="10.71" stroke-linejoin="bevel" points="3631.98,2013.58 3631.98,2258.23"/>
<polyline class="BarLine" fill="none" stroke="#000000" stroke-width="10.71" stroke-linejoin="bevel" points="4080.54,2013.58 4080.54,2258.23"/>
<polyline class="BarLine" fill="none" stroke="#000000" stroke-width="32.74" stroke-linejoin="bevel" points="4122.21,2013.58 4122.21,2258.23"/>
<polyline class="BarLine" fill="none" stroke="#000000" stroke-width="10.71" stroke-linejoin="bevel" points="159.176,1388.54 159.176,2016.85"/>
<polyline class="BarLine" fill="none" stroke="#000000" stroke-width="10.71" stroke-linejoin="bevel" points="922.157,1388.54 922.157,1633.2"/>
<polyline class="BarLine" fill="none" stroke="#000000" stroke-width="10.71" stroke-linejoin="bevel" points="1335,1388.54 1335,1633.2"/>
<polyline class="BarLine" fill="none" stroke="#000000" stroke-width="10.71" stroke-linejoin="bevel" points="1367.74,1388.54 1367.74,1633.2"/>
<polyline class="BarLine" fill="none" stroke="#000000" stroke-width="10.71" stroke-linejoin="bevel" points="1833.69,1388.54 1833.69,1633.2"/>
<polyline class="BarLine" fill="none" stroke="#000000" stroke-width="10.71" stroke-linejoin="bevel" points="2252.26,1388.54 2252.26,1633.2"/>
<polyline class="BarLine" fill="none" stroke="#000000" stroke-width="10.71" stroke-linejoin="bevel" points="2285,1388.54 2285,1633.2"/>
<polyline class="BarLine" fill="none" stroke="#000000" stroke-width="10.71" stroke-linejoin="bevel" points="2723.56,1388.54 2723.56,1633.2"/>
<polyline class="BarLine" fill="none" stroke="#000000" stroke-width="10.71" stroke-linejoin="bevel" points="3160.68,1388.54 3160.68,1633.2"/>
<polyline class="BarLine" fill="none" stroke="#000000" stroke-width="10.71" stroke-linejoin="bevel" points="3193.42,1388.54 3193.42,1633.2"/>
<polyline class="BarLine" fill="none" stroke="#000000" stroke-width="10.71" stroke-linejoin="bevel" points="3631.98,1388.54 3631.98,1633.2"/>
<polyline class="BarLine" fill="none" stroke="#000000" stroke-width="10.71" stroke-linejoin="bevel" points="4080.54,1388.54 4080.54,1633.2"/>
<polyline class="BarLine" fill="none" stroke="#000000" stroke-width="32.74" stroke-linejoin="bevel" points="4122.21,1388.54 4122.21,1633.2"/>
<polyline class="BarLine" fill="none" stroke="#000000" stroke-width="10.71" stroke-linejoin="bevel" points="159.176,555.151 159.176,1391.81"/>
<polyline class="BarLine" fill="none" stroke="#000000" stroke-width="10.71" stroke-linejoin="bevel" points="922.157,555.151 922.157,1008.16"/>
<polyline class="BarLine" fill="none" stroke="#000000" stroke-width="10.71" stroke-linejoin="bevel" points="1335,555.151 1335,1008.16"/>
<polyline class="BarLine" fill="none" stroke="#000000" stroke-width="10.71" stroke-linejoin="bevel" points="1367.74,555.151 1367.74,1008.16"/>
<polyline class="BarLine" fill="none" stroke="#000000" stroke-width="10.71" stroke-linejoin="bevel" points="1833.69,555.151 1833.69,1008.16"/>
<polyline class="BarLine" fill="none" stroke="#000000" stroke-width="10.71" stroke-linejoin="bevel" points="2252.26,555.151 2252.26,1008.16"/>
<polyline class="BarLine" fill="none" stroke="#000000" stroke-width="10.71" stroke-linejoin="bevel" points="2285,555.151 2285,1008.16"/>
<polyline class="BarLine" fill="none" stroke="#000000" stroke-width="10.71" stroke-linejoin="bevel" points="2723.56,555.151 2723.56,1008.16"/>
<polyline class="BarLine" fill="none" stroke="#000000" stroke-width="10.71" stroke-linejoin="bevel" points="3160.68,555.151 3160.68,1008.16"/>
<polyline class="BarLine" fill="none" stroke="#000000" stroke-width="10.71" stroke-linejoin="bevel" points="3193.42,555.151 3193.42,1008.16"/>
<polyline class="BarLine" fill="none" stroke="#000000" stroke-width="10.71" stroke-linejoin="bevel" points="3631.98,555.151 3631.98,1008.16"/>
<polyline class="BarLine" fill="none" stroke="#000000" stroke-width="10.71" stroke-linejoin="bevel" points="4080.54,555.151 4080.54,1008.16"/>
<polyline class="BarLine" fill="none" stroke="#000000" stroke-width="32.74" stroke-linejoin="bevel" points="4122.21,555.151 4122.21,1008.16"/>
<path class="Accidental" transform="matrix(2.3811,0,0,2.3811,519.076,2254.96)" d="M23.3,-10.6 C23.9,-10.7 24.4,-11.4 24.4,-12 L24.4,-17.9 C24.4,-18.7 23.8,-19.3 23,-19.3 L22.8,-19.3 L19.5,-18.6 L19.5,-33.5 L16.7,-33.5 L16.7,-18 L7.8,-16.2 L7.8,-30.3 L5,-30.3 L5,-15.6 L1.1,-14.8 C0.5,-14.7 0,-14 0,-13.4 L0,-13.2 L0,-7.4 L0,-7.6 C0,-6.8 0.6,-6.2 1.4,-6.2 L1.7,-6.2 L5,-6.9 L5,9.6 L1.1,10.4 C0.5,10.5 0,11.2 0,11.8 L0,17.6 C0,18.4 0.6,19 1.4,19 L1.7,19 L5,18.3 L5,33.2 L7.8,33.2 L7.8,17.7 L16.7,15.9 L16.7,30 L19.5,30 L19.5,15.3 L23.3,14.6 C23.9,14.5 24.4,13.8 24.4,13.2 L24.4,7.3 C24.4,6.5 23.8,5.9 23,5.9 L22.8,5.9 L19.5,6.6 L19.5,-9.9 L23.3,-10.6 M7.8,9.1 L7.8,-7.5 L16.7,-9.3 L16.7,7.2 L7.8,9.1 "/>
<path class="Accidental" transform="matrix(2.3811,0,0,2.3811,1430.61,2046.61)" d="M23.3,-10.6 C23.9,-10.7 24.4,-11.4 24.4,-12 L24.4,-17.9 C24.4,-18.7 23.8,-19.3 23,-19.3 L22.8,-19.3 L19.5,-18.6 L19.5,-33.5 L16.7,-33.5 L16.7,-18 L7.8,-16.2 L7.8,-30.3 L5,-30.3 L5,-15.6 L1.1,-14.8 C0.5,-14.7 0,-14 0,-13.4 L0,-13.2 L0,-7.4 L0,-7.6 C0,-6.8 0.6,-6.2 1.4,-6.2 L1.7,-6.2 L5,-6.9 L5,9.6 L1.1,10.4 C0.5,10.5 0,11.2 0,11.8 L0,17.6 C0,18.4 0.6,19 1.4,19 L1.7,19 L5,18.3 L5,33.2 L7.8,33.2 L7.8,17.7 L16.7,15.9 L16.7,30 L19.5,30 L19.5,15.3 L23.3,14.6 C23.9,14.5 24.4,13.8 24.4,13.2 L24.4,7.3 C24.4,6.5 23.8,5.9 23,5.9 L22.8,5.9 L19.5,6.6 L19.5,-9.9 L23.3,-10.6 M7.8,9.1 L7.8,-7.5 L16.7,-9.3 L16.7,7.2 L7.8,9.1 "/>
<path class="Accidental" transform="matrix(2.3811,0,0,2.3811,2774.99,2254.96)" d="M16.6,-18.3 C16.4,-18.5 16.1,-18.6 15.8,-18.6 C15.7,-18.6 15.5,-18.5 15.4,-18.5 L2.8,-15 L2.8,-32.5 L0,-32.5 L0,17 C0,17.8 0.6,18.3 1.4,18.3 L1.8,18.3 L14.4,14.8 L14.4,32.3 L17.1,32.3 L17.1,-17.2 C17.1,-17.6 16.9,-18.1 16.6,-18.3 M14.4,6.5 L2.8,9.7 L2.8,-6.7 L14.4,-10 L14.4,6.5 "/>
<path class="Accidental" transform="matrix(2.3811,0,0,2.3811,3694.85,2046.61)" d="M16.6,-18.3 C16.4,-18.5 16.1,-18.6 15.8,-18.6 C15.7,-18.6 15.5,-18.5 15.4,-18.5 L2.8,-15 L2.8,-32.5 L0,-32.5 L0,17 C0,17.8 0.6,18.3 1.4,18.3 L1.8,18.3 L14.4,14.8 L14.4,32.3 L17.1,32.3 L17.1,-17.2 C17.1,-17.6 16.9,-18.1 16.6,-18.3 M14.4,6.5 L2.8,9.7 L2.8,-6.7 L14.4,-10 L14.4,6.5 "/>
<path class="Note" transform="matrix(2.3811,0,0,2.3811,592.053,2254.96)" d="M18.7,-13.6 C4.9,-13.6 0,-6.6 0,-0.1 C0,6.4 4.9,13.4 18.7,13.4 C32.5,13.4 37.3,6.4 37.3,-0.1 C37.3,-6.6 32.5,-13.6 18.7,-13.6 M10.4,-4.5 C10.3,-4.9 10.3,-5.3 10.3,-5.7 C10.3,-6.5 10.5,-7.3 10.9,-8 C11.6,-9 12.8,-9.7 14.3,-10 C15.6,-10.3 16.3,-10.5 18.9,-10.5 L19,-10.5 C23,-10.5 24.3,-6.8 25.4,-3 L25.7,-2 C26.5,0.6 26.9,2.8 26.9,4.5 C26.9,5.7 26.7,6.8 26.3,7.6 C25.7,8.7 24.7,9.4 23,9.8 C22.1,10 20.6,10.1 20.6,10.1 C20.1,10.1 19.7,10.2 19.3,10.2 C16.1,10.2 14.1,9 12.7,4.7 C11.5,1 11.3,-0.1 10.4,-4.5"/>
<path class="Note" transform="matrix(2.3811,0,0,2.3811,1004.9,2225.2)" d="M18.7,-13.6 C4.9,-13.6 0,-6.6 0,-0.1 C0,6.4 4.9,13.4 18.7,13.4 C32.5,13.4 37.3,6.4 37.3,-0.1 C37.3,-6.6 32.5,-13.6 18.7,-13.6 M10.4,-4.5 C10.3,-4.9 10.3,-5.3 10.3,-5.7 C10.3,-6.5 10.5,-7.3 10.9,-8 C11.6,-9 12.8,-9.7 14.3,-10 C15.6,-10.3 16.3,-10.5 18.9,-10.5 L19,-10.5 C23,-10.5 24.3,-6.8 25.4,-3 L25.7,-2 C26.5,0.6 26.9,2.8 26.9,4.5 C26.9,5.7 26.7,6.8 26.3,7.6 C25.7,8.7 24.7,9.4 23,9.8 C22.1,10 20.6,10.1 20.6,10.1 C20.1,10.1 19.7,10.2 19.3,10.2 C16.1,10.2 14.1,9 12.7,4.7 C11.5,1 11.3,-0.1 10.4,-4.5"/>
<path class="Note" transform="matrix(2.3811,0,0,2.3811,1503.59,2046.61)" d="M18.7,-13.6 C4.9,-13.6 0,-6.6 0,-0.1 C0,6.4 4.9,13.4 18.7,13.4 C32.5,13.4 37.3,6.4 37.3,-0.1 C37.3,-6.6 32.5,-13.6 18.7,-13.6 M10.4,-4.5 C10.3,-4.9 10.3,-5.3 10.3,-5.7 C10.3,-6.5 10.5,-7.3 10.9,-8 C11.6,-9 12.8,-9.7 14.3,-10 C15.6,-10.3 16.3,-10.5 18.9,-10.5 L19,-10.5 C23,-10.5 24.3,-6.8 25.4,-3 L25.7,-2 C26.5,0.6 26.9,2.8 26.9,4.5 C26.9,5.7 26.7,6.8 26.3,7.6 C25.7,8.7 24.7,9.4 23,9.8 C22.1,10 20.6,10.1 20.6,10.1 C20.1,10.1 19.7,10.2 19.3,10.2 C16.1,10.2 14.1,9 12.7,4.7 C11.5,1 11.3,-0.1 10.4,-4.5"/>
<path class="Note" transform="matrix(2.3811,0,0,2.3811,1922.16,2016.85)" d="M18.7,-13.6 C4.9,-13.6 0,-6.6 0,-0.1 C0,6.4 4.9,13.4 18.7,13.4 C32.5,13.4 37.3,6.4 37.3,-0.1 C37.3,-6.6 32.5,-13.6 18.7,-13.6 M10.4,-4.5 C10.3,-4.9 10.3,-5.3 10.3,-5.7 C10.3,-6.5 10.5,-7.3 10.9,-8 C11.6,-9 12.8,-9.7 14.3,-10 C15.6,-10.3 16.3,-10.5 18.9,-10.5 L19,-10.5 C23,-10.5 24.3,-6.8 25.4,-3 L25.7,-2 C26.5,0.6 26.9,2.8 26.9,4.5 C26.9,5.7 26.7,6.8 26.3,7.6 C25.7,8.7 24.7,9.4 23,9.8 C22.1,10 20.6,10.1 20.6,10.1 C20.1,10.1 19.7,10.2 19.3,10.2 C16.1,10.2 14.1,9 12.7,4.7 C11.5,1 11.3,-0.1 10.4,-4.5"/>
<path class="Note" transform="matrix(2.3811,0,0,2.3811,2367.74,2225.2)" d="M18.7,-13.6 C4.9,-13.6 0,-6.6 0,-0.1 C0,6.4 4.9,13.4 18.7,13.4 C32.5,13.4 37.3,6.4 37.3,-0.1 C37.3,-6.6 32.5,-13.6 18.7,-13.6 M10.4,-4.5 C10.3,-4.9 10.3,-5.3 10.3,-5.7 C10.3,-6.5 10.5,-7.3 10.9,-8 C11.6,-9 12.8,-9.7 14.3,-10 C15.6,-10.3 16.3,-10.5 18.9,-10.5 L19,-10.5 C23,-10.5 24.3,-6.8 25.4,-3 L25.7,-2 C26.5,0.6 26.9,2.8 26.9,4.5 C26.9,5.7 26.7,6.8 26.3,7.6 C25.7,8.7 24.7,9.4 23,9.8 C22.1,10 20.6,10.1 20.6,10.1 C20.1,10.1 19.7,10.2 19.3,10.2 C16.1,10.2 14.1,9 12.7,4.7 C11.5,1 11.3,-0.1 10.4,-4.5"/>
<path class="Note" transform="matrix(2.3811,0,0,2.3811,2830.58,2254.96)" d="M18.7,-13.6 C4.9,-13.6 0,-6.6 0,-0.1 C0,6.4 4.9,13.4 18.7,13.4 C32.5,13.4 37.3,6.4 37.3,-0.1 C37.3,-6.6 32.5,-13.6 18.7,-13.6 M10.4,-4.5 C10.3,-4.9 10.3,-5.3 10.3,-5.7 C10.3,-6.5 10.5,-7.3 10.9,-8 C11.6,-9 12.8,-9.7 14.3,-10 C15.6,-10.3 16.3,-10.5 18.9,-10.5 L19,-10.5 C23,-10.5 24.3,-6.8 25.4,-3 L25.7,-2 C26.5,0.6 26.9,2.8 26.9,4.5 C26.9,5.7 26.7,6.8 26.3,7.6 C25.7,8.7 24.7,9.4 23,9.8 C22.1,10 20.6,10.1 20.6,10.1 C20.1,10.1 19.7,10.2 19.3,10.2 C16.1,10.2 14.1,9 12.7,4.7 C11.5,1 11.3,-0.1 10.4,-4.5"/>
<path class="Note" transform="matrix(2.3811,0,0,2.3811,3281.88,2016.85)" d="M18.7,-13.6 C4.9,-13.6 0,-6.6 0,-0.1 C0,6.4 4.9,13.4 18.7,13.4 C32.5,13.4 37.3,6.4 37.3,-0.1 C37.3,-6.6 32.5,-13.6 18.7,-13.6 M10.4,-4.5 C10.3,-4.9 10.3,-5.3 10.3,-5.7 C10.3,-6.5 10.5,-7.3 10.9,-8 C11.6,-9 12.8,-9.7 14.3,-10 C15.6,-10.3 16.3,-10.5 18.9,-10.5 L19,-10.5 C23,-10.5 24.3,-6.8 25.4,-3 L25.7,-2 C26.5,0.6 26.9,2.8 26.9,4.5 C26.9,5.7 26.7,6.8 26.3,7.6 C25.7,8.7 24.7,9.4 23,9.8 C22.1,10 20.6,10.1 20.6,10.1 C20.1,10.1 19.7,10.2 19.3,10.2 C16.1,10.2 14.1,9 12.7,4.7 C11.5,1 11.3,-0.1 10.4,-4.5"/>
<path class="Note" transform="matrix(2.3811,0,0,2.3811,3750.43,2046.61)" d="M18.7,-13.6 C4.9,-13.6 0,-6.6 0,-0.1 C0,6.4 4.9,13.4 18.7,13.4 C32.5,13.4 37.3,6.4 37.3,-0.1 C37.3,-6.6 32.5,-13.6 18.7,-13.6 M10.4,-4.5 C10.3,-4.9 10.3,-5.3 10.3,-5.7 C10.3,-6.5 10.5,-7.3 10.9,-8 C11.6,-9 12.8,-9.7 14.3,-10 C15.6,-10.3 16.3,-10.5 18.9,-10.5 L19,-10.5 C23,-10.5 24.3,-6.8 25.4,-3 L25.7,-2 C26.5,0.6 26.9,2.8 26.9,4.5 C26.9,5.7 26.7,6.8 26.3,7.6 C25.7,8.7 24.7,9.4 23,9.8 C22.1,10 20.6,10.1 20.6,10.1 C20.1,10.1 19.7,10.2 19.3,10.2 C16.1,10.2 14.1,9 12.7,4.7 C11.5,1 11.3,-0.1 10.4,-4.5"/>
<path class="Note" transform="matrix(2.3811,0,0,2.3811,592.053,1629.92)" d="M18.7,-13.6 C4.9,-13.6 0,-6.6 0,-0.1 C0,6.4 4.9,13.4 18.7,13.4 C32.5,13.4 37.3,6.4 37.3,-0.1 C37.3,-6.6 32.5,-13.6 18.7,-13.6 M10.4,-4.5 C10.3,-4.9 10.3,-5.3 10.3,-5.7 C10.3,-6.5 10.5,-7.3 10.9,-8 C11.6,-9 12.8,-9.7 14.3,-10 C15.6,-10.3 16.3,-10.5 18.9,-10.5 L19,-10.5 C23,-10.5 24.3,-6.8 25.4,-3 L25.7,-2 C26.5,0.6 26.9,2.8 26.9,4.5 C26.9,5.7 26.7,6.8 26.3,7.6 C25.7,8.7 24.7,9.4 23,9.8 C22.1,10 20.6,10.1 20.6,10.1 C20.1,10.1 19.7,10.2 19.3,10.2 C16.1,10.2 14.1,9 12.7,4.7 C11.5,1 11.3,-0.1 10.4,-4.5"/>
<path class="Note" transform="matrix(2.3811,0,0,2.3811,592.053,1510.87)" d="M18.7,-13.6 C4.9,-13.6 0,-6.6 0,-0.1 C0,6.4 4.9,13.4 18.7,13.4 C32.5,13.4 37.3,6.4 37.3,-0.1 C37.3,-6.6 32.5,-13.6 18.7,-13.6 M10.4,-4.5 C10.3,-4.9 10.3,-5.3 10.3,-5.7 C10.3,-6.5 10.5,-7.3 10.9,-8 C11.6,-9 12.8,-9.7 14.3,-10 C15.6,-10.3 16.3,-10.5 18.9,-10.5 L19,-10.5 C23,-10.5 24.3,-6.8 25.4,-3 L25.7,-2 C26.5,0.6 26.9,2.8 26.9,4.5 C26.9,5.7 26.7,6.8 26.3,7.6 C25.7,8.7 24.7,9.4 23,9.8 C22.1,10 20.6,10.1 20.6,10.1 C20.1,10.1 19.7,10.2 19.3,10.2 C16.1,10.2 14.1,9 12.7,4.7 C11.5,1 11.3,-0.1 10.4,-4.5"/>
<path class="Note" transform="matrix(2.3811,0,0,2.3811,1004.9,1629.92)" d="M18.7,-13.6 C4.9,-13.6 0,-6.6 0,-0.1 C0,6.4 4.9,13.4 18.7,13.4 C32.5,13.4 37.3,6.4 37.3,-0.1 C37.3,-6.6 32.5,-13.6 18.7,-13.6 M10.4,-4.5 C10.3,-4.9 10.3,-5.3 10.3,-5.7 C10.3,-6.5 10.5,-7.3 10.9,-8 C11.6,-9 12.8,-9.7 14.3,-10 C15.6,-10.3 16.3,-10.5 18.9,-10.5 L19,-10.5 C23,-10.5 24.3,-6.8 25.4,-3 L25.7,-2 C26.5,0.6 26.9,2.8 26.9,4.5 C26.9,5.7 26.7,6.8 26.3,7.6 C25.7,8.7 24.7,9.4 23,9.8 C22.1,10 20.6,10.1 20.6,10.1 C20.1,10.1 19.7,10.2 19.3,10.2 C16.1,10.2 14.1,9 12.7,4.7 C11.5,1 11.3,-0.1 10.4,-4.5"/>
<path class="Note" transform="matrix(2.3811,0,0,2.3811,1004.9,1540.63)" d="M18.7,-13.6 C4.9,-13.6 0,-6.6 0,-0.1 C0,6.4 4.9,13.4 18.7,13.4 C32.5,13.4 37.3,6.4 37.3,-0.1 C37.3,-6.6 32.5,-13.6 18.7,-13.6 M10.4,-4.5 C10.3,-4.9 10.3,-5.3 10.3,-5.7 C10.3,-6.5 10.5,-7.3 10.9,-8 C11.6,-9 12.8,-9.7 14.3,-10 C15.6,-10.3 16.3,-10.5 18.9,-10.5 L19,-10.5 C23,-10.5 24.3,-6.8 25.4,-3 L25.7,-2 C26.5,0.6 26.9,2.8 26.9,4.5 C26.9,5.7 26.7,6.8 26.3,7.6 C25.7,8.7 24.7,9.4 23,9.8 C22.1,10 20.6,10.1 20.6,10.1 C20.1,10.1 19.7,10.2 19.3,10.2 C16.1,10.2 14.1,9 12.7,4.7 C11.5,1 11.3,-0.1 10.4,-4.5"/>
<path class="Note" transform="matrix(2.3811,0,0,2.3811,1004.9,1481.1)" d="M18.7,-13.6 C4.9,-13.6 0,-6.6 0,-0.1 C0,6.4 4.9,13.4 18.7,13.4 C32.5,13.4 37.3,6.4 37.3,-0.1 C37.3,-6.6 32.5,-13.6 18.7,-13.6 M10.4,-4.5 C10.3,-4.9 10.3,-5.3 10.3,-5.7 C10.3,-6.5 10.5,-7.3 10.9,-8 C11.6,-9 12.8,-9.7 14.3,-10 C15.6,-10.3 16.3,-10.5 18.9,-10.5 L19,-10.5 C23,-10.5 24.3,-6.8 25.4,-3 L25.7,-2 C26.5,0.6 26.9,2.8 26.9,4.5 C26.9,5.7 26.7,6.8 26.3,7.6 C25.7,8.7 24.7,9.4 23,9.8 C22.1,10 20.6,10.1 20.6,10.1 C20.1,10.1 19.7,10.2 19.3,10.2 C16.1,10.2 14.1,9 12.7,4.7 C11.5,1 11.3,-0.1 10.4,-4.5"/>
<path class="Note" transform="matrix(2.3811,0,0,2.3811,1503.59,1629.92)" d="M18.7,-13.6 C4.9,-13.6 0,-6.6 0,-0.1 C0,6.4 4.9,13.4 18.7,13.4 C32.5,13.4 37.3,6.4 37.3,-0.1 C37.3,-6.6 32.5,-13.6 18.7,-13.6 M10.4,-4.5 C10.3,-4.9 10.3,-5.3 10.3,-5.7 C10.3,-6.5 10.5,-7.3 10.9,-8 C11.6,-9 12.8,-9.7 14.3,-10 C15.6,-10.3 16.3,-10.5 18.9,-10.5 L19,-10.5 C23,-10.5 24.3,-6.8 25.4,-3 L25.7,-2 C26.5,0.6 26.9,2.8 26.9,4.5 C26.9,5.7 26.7,6.8 26.3,7.6 C25.7,8.7 24.7,9.4 23,9.8 C22.1,10 20.6,10.1 20.6,10.1 C20.1,10.1 19.7,10.2 19.3,10.2 C16.1,10.2 14.1,9 12.7,4.7 C11.5,1 11.3,-0.1 10.4,-4.5"/>
<path class="Note" transform="matrix(2.3811,0,0,2.3811,1503.59,1510.87)" d="M18.7,-13.6 C4.9,-13.6 0,-6.6 0,-0.1 C0,6.4 4.9,13.4 18.7,13.4 C32.5,13.4 37.3,6.4 37.3,-0.1 C37.3,-6.6 32.5,-13.6 18.7,-13.6 M10.4,-4.5 C10.3,-4.9 10.3,-5.3 10.3,-5.7 C10.3,-6.5 10.5,-7.3 10.9,-8 C11.6,-9 12.8,-9.7 14.3,-10 C15.6,-10.3 16.3,-10.5 18.9,-10.5 L19,-10.5 C23,-10.5 24.3,-6.8 25.4,-3 L25.7,-2 C26.5,0.6 26.9,2.8 26.9,4.5 C26.9,5.7 26.7,6.8 26.3,7.6 C25.7,8.7 24.7,9.4 23,9.8 C22.1,10 20.6,10.1 20.6,10.1 C20.1,10.1 19.7,10.2 19.3,10.2 C16.1,10.2 14.1,9 12.7,4.7 C11.5,1 11.3,-0.1 10.4,-4.5"/>
<path class="Note" transform="matrix(2.3811,0,0,2.3811,1922.16,1629.92)" d="M18.7,-13.6 C4.9,-13.6 0,-6.6 0,-0.1 C0,6.4 4.9,13.4 18.7,13.4 C32.5,13.4 37.3,6.4 37.3,-0.1 C37.3,-6.6 32.5,-13.6 18.7,-13.6 M10.4,-4.5 C10.3,-4.9 10.3,-5.3 10.3,-5.7 C10.3,-6.5 10.5,-7.3 10.9,-8 C11.6,-9 12.8,-9.7 14.3,-10 C15.6,-10.3 16.3,-10.5 18.9,-10.5 L19,-10.5 C23,-10.5 24.3,-6.8 25.4,-3 L25.7,-2 C26.5,0.6 26.9,2.8 26.9,4.5 C26.9,5.7 26.7,6.8 26.3,7.6 C25.7,8.7 24.7,9.4 23,9.8 C22.1,10 20.6,10.1 20.6,10.1 C20.1,10.1 19.7,10.2 19.3,10.2 C16.1,10.2 14.1,9 12.7,4.7 C11.5,1 11.3,-0.1 10.4,-4.5"/>
<path class="Note" transform="matrix(2.3811,0,0,2.3811,1922.16,1540.63)" d="M18.7,-13.6 C4.9,-13.6 0,-6.6 0,-0.1 C0,6.4 4.9,13.4 18.7,13.4 C32.5,13.4 37.3,6.4 37.3,-0.1 C37.3,-6.6 32.5,-13.6 18.7,-13.6 M10.4,-4.5 C10.3,-4.9 10.3,-5.3 10.3,-5.7 C10.3,-6.5 10.5,-7.3 10.9,-8 C11.6,-9 12.8,-9.7 14.3,-10 C15.6,-10.3 16.3,-10.5 18.9,-10.5 L19,-10.5 C23,-10.5 24.3,-6.8 25.4,-3 L25.7,-2 C26.5,0.6 26.9,2.8 26.9,4.5 C26.9,5.7 26.7,6.8 26.3,7.6 C25.7,8.7 24.7,9.4 23,9.8 C22.1,10 20.6,10.1 20.6,10.1 C20.1,10.1 19.7,10.2 19.3,10.2 C16.1,10.2 14.1,9 12.7,4.7 C11.5,1 11.3,-0.1 10.4,-4.5"/>
<path class="Note" transform="matrix(2.3811,0,0,2.3811,1922.16,1481.1)" d="M18.7,-13.6 C4.9,-13.6 0,-6.6 0,-0.1 C0,6.4 4.9,13.4 18.7,13.4 C32.5,13.4 37.3,6.4 37.3,-0.1 C37.3,-6.6 32.5,-13.6 18.7,-13.6 M10.4,-4.5 C10.3,-4.9 10.3,-5.3 10.3,-5.7 C10.3,-6.5 10.5,-7.3 10.9,-8 C11.6,-9 12.8,-9.7 14.3,-10 C15.6,-10.3 16.3,-10.5 18.9,-10.5 L19,-10.5 C23,-10.5 24.3,-6.8 25.4,-3 L25.7,-2 C26.5,0.6 26.9,2.8 26.9,4.5 C26.9,5.7 26.7,6.8 26.3,7.6 C25.7,8.7 24.7,9.4 23,9.8 C22.1,10 20.6,10.1 20.6,10.1 C20.1,10.1 19.7,10.2 19.3,10.2 C16.1,10.2 14.1,9 12.7,4.7 C11.5,1 11.3,-0.1 10.4,-4.5"/>
<path class="Note" transform="matrix(2.3811,0,0,2.3811,2367.74,1629.92)" d="M18.7,-13.6 C4.9,-13.6 0,-6.6 0,-0.1 C0,6.4 4.9,13.4 18.7,13.4 C32.5,13.4 37.3,6.4 37.3,-0.1 C37.3,-6.6 32.5,-13.6 18.7,-13.6 M10.4,-4.5 C10.3,-4.9 10.3,-5.3 10.3,-5.7 C10.3,-6.5 10.5,-7.3 10.9,-8 C11.6,-9 12.8,-9.7 14.3,-10 C15.6,-10.3 16.3,-10.5 18.9,-10.5 L19,-10.5 C23,-10.5 24.3,-6.8 25.4,-3 L25.7,-2 C26.5,0.6 26.9,2.8 26.9,4.5 C26.9,5.7 26.7,6.8 26.3,7.6 C25.7,8.7 24.7,9.4 23,9.8 C22.1,10 20.6,10.1 20.6,10.1 C20.1,10.1 19.7,10.2 19.3,10.2 C16.1,10.2 14.1,9 12.7,4.7 C11.5,1 11.3,-0.1 10.4,-4.5"/>
<path class="Note" transform="matrix(2.3811,0,0,2.3811,2367.74,1540.63)" d="M18.7,-13.6 C4.9,-13.6 0,-6.6 0,-0.1 C0,6.4 4.9,13.4 18.7,13.4 C32.5,13.4 37.3,6.4 37.3,-0.1 C37.3,-6.6 32.5,-13.6 18.7,-13.6 M10.4,-4.5 C10.3,-4.9 10.3,-5.3 10.3,-5.7 C10.3,-6.5 10.5,-7.3 10.9,-8 C11.6,-9 12.8,-9.7 14.3,-10 C15.6,-10.3 16.3,-10.5 18.9,-10.5 L19,-10.5 C23,-10.5 24.3,-6.8 25.4,-3 L25.7,-2 C26.5,0.6 26.9,2.8 26.9,4.5 C26.9,5.7 26.7,6.8 26.3,7.6 C25.7,8.7 24.7,9.4 23,9.8 C22.1,10 20.6,10.1 20.6,10.1 C20.1,10.1 19.7,10.2 19.3,10.2 C16.1,10.2 14.1,9 12.7,4.7 C11.5,1 11.3,-0.1 10.4,-4.5"/>
<path class="Note" transform="matrix(2.3811,0,0,2.3811,2367.74,1481.1)" d="M18.7,-13.6 C4.9,-13.6 0,-6.6 0,-0.1 C0,6.4 4.9,13.4 18.7,13.4 C32.5,13.4 37.3,6.4 37.3,-0.1 C37.3,-6.6 32.5,-13.6 18.7,-13.6 M10.4,-4.5 C10.3,-4.9 10.3,-5.3 10.3,-5.7 C10.3,-6.5 10.5,-7.3 10.9,-8 C11.6,-9 12.8,-9.7 14.3,-10 C15.6,-10.3 16.3,-10.5 18.9,-10.5 L19,-10.5 C23,-10.5 24.3,-6.8 25.4,-3 L25.7,-2 C26.5,0.6 26.9,2.8 26.9,4.5 C26.9,5.7 26.7,6.8 26.3,7.6 C25.7,8.7 24.7,9.4 23,9.8 C22.1,10 20.6,10.1 20.6,10.1 C20.1,10.1 19.7,10.2 19.3,10.2 C16.1,10.2 14.1,9 12.7,4.7 C11.5,1 11.3,-0.1 10.4,-4.5"/>
<path class="Note" transform="matrix(2.3811,0,0,2.3811,2830.58,1629.92)" d="M18.7,-13.6 C4.9,-13.6 0,-6.6 0,-0.1 C0,6.4 4.9,13.4 18.7,13.4 C32.5,13.4 37.3,6.4 37.3,-0.1 C37.3,-6.6 32.5,-13.6 18.7,-13.6 M10.4,-4.5 C10.3,-4.9 10.3,-5.3 10.3,-5.7 C10.3,-6.5 10.5,-7.3 10.9,-8 C11.6,-9 12.8,-9.7 14.3,-10 C15.6,-10.3 16.3,-10.5 18.9,-10.5 L19,-10.5 C23,-10.5 24.3,-6.8 25.4,-3 L25.7,-2 C26.5,0.6 26.9,2.8 26.9,4.5 C26.9,5.7 26.7,6.8 26.3,7.6 C25.7,8.7 24.7,9.4 23,9.8 C22.1,10 20.6,10.1 20.6,10.1 C20.1,10.1 19.7,10.2 19.3,10.2 C16.1,10.2 14.1,9 12.7,4.7 C11.5,1 11.3,-0.1 10.4,-4.5"/>
<path class="Note" transform="matrix(2.3811,0,0,2.3811,2830.58,1510.87)" d="M18.7,-13.6 C4.9,-13.6 0,-6.6 0,-0.1 C0,6.4 4.9,13.4 18.7,13.4 C32.5,13.4 37.3,6.4 37.3,-0.1 C37.3,-6.6 32.5,-13.6 18.7,-13.6 M10.4,-4.5 C10.3,-4.9 10.3,-5.3 10.3,-5.7 C10.3,-6.5 10.5,-7.3 10.9,-8 C11.6,-9 12.8,-9.7 14.3,-10 C15.6,-10.3 16.3,-10.5 18.9,-10.5 L19,-10.5 C23,-10.5 24.3,-6.8 25.4,-3 L25.7,-2 C26.5,0.6 26.9,2.8 26.9,4.5 C26.9,5.7 26.7,6.8 26.3,7.6 C25.7,8.7 24.7,9.4 23,9.8 C22.1,10 20.6,10.1 20.6,10.1 C20.1,10.1 19.7,10.2 19.3,10.2 C16.1,10.2 14.1,9 12.7,4.7 C11.5,1 11.3,-0.1 10.4,-4.5"/>
<path class="Note" transform="matrix(2.3811,0,0,2.3811,3281.88,1629.92)" d="M18.7,-13.6 C4.9,-13.6 0,-6.6 0,-0.1 C0,6.4 4.9,13.4 18.7,13.4 C32.5,13.4 37.3,6.4 37.3,-0.1 C37.3,-6.6 32.5,-13.6 18.7,-13.6 M10.4,-4.5 C10.3,-4.9 10.3,-5.3 10.3,-5.7 C10.3,-6.5 10.5,-7.3 10.9,-8 C11.6,-9 12.8,-9.7 14.3,-10 C15.6,-10.3 16.3,-10.5 18.9,-10.5 L19,-10.5 C23,-10.5 24.3,-6.8 25.4,-3 L25.7,-2 C26.5,0.6 26.9,2.8 26.9,4.5 C26.9,5.7 26.7,6.8 26.3,7.6 C25.7,8.7 24.7,9.4 23,9.8 C22.1,10 20.6,10.1 20.6,10.1 C20.1,10.1 19.7,10.2 19.3,10.2 C16.1,10.2 14.1,9 12.7,4.7 C11.5,1 11.3,-0.1 10.4,-4.5"/>
<path class="Note" transform="matrix(2.3811,0,0,2.3811,3281.88,1540.63)" d="M18.7,-13.6 C4.9,-13.6 0,-6.6 0,-0.1 C0,6.4 4.9,13.4 18.7,13.4 C32.5,13.4 37.3,6.4 37.3,-0.1 C37.3,-6.6 32.5,-13.6 18.7,-13.6 M10.4,-4.5 C10.3,-4.9 10.3,-5.3 10.3,-5.7 C10.3,-6.5 10.5,-7.3 10.9,-8 C11.6,-9 12.8,-9.7 14.3,-10 C15.6,-10.3 16.3,-10.5 18.9,-10.5 L19,-10.5 C23,-10.5 24.3,-6.8 25.4,-3 L25.7,-2 C26.5,0.6 26.9,2.8 26.9,4.5 C26.9,5.7 26.7,6.8 26.3,7.6 C25.7,8.7 24.7,9.4 23,9.8 C22.1,10 20.6,10.1 20.6,10.1 C20.1,10.1 19.7,10.2 19.3,10.2 C16.1,10.2 14.1,9 12.7,4.7 C11.5,1 11.3,-0.1 10.4,-4.5"/>
<path class="Note" transform="matrix(2.3811,0,0,2.3811,3281.88,1481.1)" d="M18.7,-13.6 C4.9,-13.6 0,-6.6 0,-0.1 C0,6.4 4.9,13.4 18.7,13.4 C32.5,13.4 37.3,6.4 37.3,-0.1 C37.3,-6.6 32.5,-13.6 18.7,-13.6 M10.4,-4.5 C10.3,-4.9 10.3,-5.3 10.3,-5.7 C10.3,-6.5 10.5,-7.3 10.9,-8 C11.6,-9 12.8,-9.7 14.3,-10 C15.6,-10.3 16.3,-10.5 18.9,-10.5 L19,-10.5 C23,-10.5 24.3,-6.8 25.4,-3 L25.7,-2 C26.5,0.6 26.9,2.8 26.9,4.5 C26.9,5.7 26.7,6.8 26.3,7.6 C25.7,8.7 24.7,9.4 23,9.8 C22.1,10 20.6,10.1 20.6,10.1 C20.1,10.1 19.7,10.2 19.3,10.2 C16.1,10.2 14.1,9 12.7,4.7 C11.5,1 11.3,-0.1 10.4,-4.5"/>
<path class="Note" transform="matrix(2.3811,0,0,2.3811,3750.43,1629.92)" d="M18.7,-13.6 C4.9,-13.6 0,-6.6 0,-0.1 C0,6.4 4.9,13.4 18.7,13.4 C32.5,13.4 37.3,6.4 37.3,-0.1 C37.3,-6.6 32.5,-13.6 18.7,-13.6 M10.4,-4.5 C10.3,-4.9 10.3,-5.3 10.3,-5.7 C10.3,-6.5 10.5,-7.3 10.9,-8 C11.6,-9 12.8,-9.7 14.3,-10 C15.6,-10.3 16.3,-10.5 18.9,-10.5 L19,-10.5 C23,-10.5 24.3,-6.8 25.4,-3 L25.7,-2 C26.5,0.6 26.9,2.8 26.9,4.5 C26.9,5.7 26.7,6.8 26.3,7.6 C25.7,8.7 24.7,9.4 23,9.8 C22.1,10 20.6,10.1 20.6,10.1 C20.1,10.1 19.7,10.2 19.3,10.2 C16.1,10.2 14.1,9 12.7,4.7 C11.5,1 11.3,-0.1 10.4,-4.5"/>
<path class="Note" transform="matrix(2.3811,0,0,2.3811,3750.43,1510.87)" d="M18.7,-13.6 C4.9,-13.6 0,-6.6 0,-0.1 C0,6.4 4.9,13.4 18.7,13.4 C32.5,13.4 37.3,6.4 37.3,-0.1 C37.3,-6.6 32.5,-13.6 18.7,-13.6 M10.4,-4.5 C10.3,-4.9 10.3,-5.3 10.3,-5.7 C10.3,-6.5 10.5,-7.3 10.9,-8 C11.6,-9 12.8,-9.7 14.3,-10 C15.6,-10.3 16.3,-10.5 18.9,-10.5 L19,-10.5 C23,-10.5 24.3,-6.8 25.4,-3 L25.7,-2 C26.5,0.6 26.9,2.8 26.9,4.5 C26.9,5.7 26.7,6.8 26.3,7.6 C25.7,8.7 24.7,9.4 23,9.8 C22.1,10 20.6,10.1 20.6,10.1 C20.1,10.1 19.7,10.2 19.3,10.2 C16.1,10.2 14.1,9 12.7,4.7 C11.5,1 11.3,-0.1 10.4,-4.5"/>
<path class="Note" d="M677.961,1056.98 C688.42,1050.4 696.013,1045.01 700.739,1040.83 C709.416,1033.16 713.754,1025.41 713.754,1017.59 C713.754,1008.44 707.634,1003.87 695.393,1003.87 C682.532,1003.87 669.129,1013.13 655.184,1031.65 C645.732,1044.2 639.031,1056.05 635.08,1067.21 C639.96,1064.03 645.112,1062.44 650.536,1062.44 C655.649,1062.44 659.716,1064.73 662.738,1069.3 C664.83,1072.48 665.875,1077.9 665.875,1085.57 C665.875,1092.47 662.234,1100.56 654.952,1109.86 C650.458,1115.59 645.461,1118.46 639.96,1118.46 C632.988,1118.46 628.107,1117.06 625.318,1114.27 C621.367,1110.32 619.391,1102.5 619.391,1090.8 C619.391,1071.12 627.332,1051.75 643.214,1032.69 C661.111,1011.23 678.271,1000.5 694.696,1000.5 C707.401,1000.5 716.892,1003.49 723.167,1009.45 C726.809,1012.94 728.629,1017.97 728.629,1024.56 C728.629,1031.92 721.385,1040.13 706.898,1049.2 C699.305,1054 689.66,1056.59 677.961,1056.98 M633.569,1072.09 C631.632,1078.6 630.663,1084.83 630.663,1090.8 C630.663,1104.98 632.91,1112.07 637.404,1112.07 C641.665,1112.07 644.996,1109.04 647.398,1103 C650.187,1096.18 651.581,1088.63 651.581,1080.34 C651.581,1072.98 649.141,1069.3 644.26,1069.3 C640.851,1069.3 637.288,1070.23 633.569,1072.09"/>
<path class="Note" d="M670.872,583.965 C675.443,583.965 677.729,586.831 677.729,592.564 C677.729,596.593 675.211,602.597 670.175,610.577 C666.147,617.007 664.132,623.283 664.132,629.403 C664.132,632.889 669.207,634.633 679.356,634.633 C687.723,634.633 699.383,630.1 714.335,621.036 C699.305,635.524 686.251,642.767 675.172,642.767 C665.178,642.767 658.205,641.257 654.254,638.235 C653.247,637.46 652.395,636.531 651.698,635.446 C647.824,640.172 641.355,642.535 632.29,642.535 C623.613,642.535 616.951,640.753 612.302,637.189 C609.203,634.788 607.654,630.953 607.654,625.684 C607.654,617.317 612.612,608.175 622.529,598.259 C633.143,587.645 645.422,582.338 659.368,582.338 C662.854,582.338 665.411,583.616 667.038,586.173 C668.355,584.701 669.633,583.965 670.872,583.965 M650.071,630.217 C649.993,629.597 649.955,628.977 649.955,628.357 C649.955,628.047 653.906,617.24 661.808,595.934 C662.583,593.843 663.358,592.061 664.132,590.589 C661.111,589.969 658.128,589.659 655.184,589.659 C649.761,589.659 642.556,594.269 633.569,603.488 C625.511,611.7 621.483,618.789 621.483,624.755 C621.483,631.34 624.621,634.633 630.896,634.633 C638.488,634.633 644.88,633.161 650.071,630.217"/>
<path class="Note" d="M670.872,673.256 C675.443,673.256 677.729,676.123 677.729,681.856 C677.729,685.884 675.211,691.888 670.175,699.868 C666.147,706.299 664.132,712.574 664.132,718.694 C664.132,722.181 669.207,723.924 679.356,723.924 C687.723,723.924 699.383,719.392 714.335,710.327 C699.305,724.815 686.251,732.059 675.172,732.059 C665.178,732.059 658.205,730.548 654.254,727.527 C653.247,726.752 652.395,725.822 651.698,724.737 C647.824,729.463 641.355,731.826 632.29,731.826 C623.613,731.826 616.951,730.044 612.302,726.481 C609.203,724.079 607.654,720.244 607.654,714.976 C607.654,706.609 612.612,697.467 622.529,687.55 C633.143,676.936 645.422,671.629 659.368,671.629 C662.854,671.629 665.411,672.907 667.038,675.464 C668.355,673.992 669.633,673.256 670.872,673.256 M650.071,719.508 C649.993,718.888 649.955,718.268 649.955,717.649 C649.955,717.339 653.906,706.531 661.808,685.226 C662.583,683.134 663.358,681.352 664.132,679.88 C661.111,679.26 658.128,678.95 655.184,678.95 C649.761,678.95 642.556,683.56 633.569,692.779 C625.511,700.992 621.483,708.081 621.483,714.046 C621.483,720.631 624.621,723.924 630.896,723.924 C638.488,723.924 644.88,722.452 650.071,719.508"/>
<path class="Note" d="M1083.72,941.13 C1088.29,941.13 1090.58,943.997 1090.58,949.73 C1090.58,953.758 1088.06,959.763 1083.02,967.742 C1078.99,974.173 1076.98,980.448 1076.98,986.568 C1076.98,990.055 1082.05,991.798 1092.2,991.798 C1100.57,991.798 1112.23,987.266 1127.18,978.201 C1112.15,992.689 1099.1,999.933 1088.02,999.933 C1078.03,999.933 1071.05,998.422 1067.1,995.401 C1066.09,994.626 1065.24,993.696 1064.54,992.611 C1060.67,997.337 1054.2,999.7 1045.14,999.7 C1036.46,999.7 1029.8,997.918 1025.15,994.355 C1022.05,991.953 1020.5,988.118 1020.5,982.85 C1020.5,974.483 1025.46,965.341 1035.38,955.424 C1045.99,944.81 1058.27,939.503 1072.21,939.503 C1075.7,939.503 1078.26,940.781 1079.88,943.338 C1081.2,941.866 1082.48,941.13 1083.72,941.13 M1062.92,987.382 C1062.84,986.762 1062.8,986.142 1062.8,985.523 C1062.8,985.213 1066.75,974.405 1074.66,953.1 C1075.43,951.008 1076.2,949.226 1076.98,947.754 C1073.96,947.134 1070.98,946.824 1068.03,946.824 C1062.61,946.824 1055.4,951.434 1046.42,960.653 C1038.36,968.866 1034.33,975.955 1034.33,981.92 C1034.33,988.505 1037.47,991.798 1043.74,991.798 C1051.34,991.798 1057.73,990.326 1062.92,987.382"/>
<path class="Note" d="M1083.72,583.965 C1088.29,583.965 1090.58,586.831 1090.58,592.564 C1090.58,596.593 1088.06,602.597 1083.02,610.577 C1078.99,617.007 1076.98,623.283 1076.98,629.403 C1076.98,632.889 1082.05,634.633 1092.2,634.633 C1100.57,634.633 1112.23,630.1 1127.18,621.036 C1112.15,635.524 1099.1,642.767 1088.02,642.767 C1078.03,642.767 1071.05,641.257 1067.1,638.235 C1066.09,637.46 1065.24,636.531 1064.54,635.446 C1060.67,640.172 1054.2,642.535 1045.14,642.535 C1036.46,642.535 1029.8,640.753 1025.15,637.189 C1022.05,634.788 1020.5,630.953 1020.5,625.684 C1020.5,617.317 1025.46,608.175 1035.38,598.259 C1045.99,587.645 1058.27,582.338 1072.21,582.338 C1075.7,582.338 1078.26,583.616 1079.88,586.173 C1081.2,584.701 1082.48,583.965 1083.72,583.965 M1062.92,630.217 C1062.84,629.597 1062.8,628.977 1062.8,628.357 C1062.8,628.047 1066.75,617.24 1074.66,595.934 C1075.43,593.843 1076.2,592.061 1076.98,590.589 C1073.96,589.969 1070.98,589.659 1068.03,589.659 C1062.61,589.659 1055.4,594.269 1046.42,603.488 C1038.36,611.7 1034.33,618.789 1034.33,624.755 C1034.33,631.34 1037.47,634.633 1043.74,634.633 C1051.34,634.633 1057.73,633.161 1062.92,630.217"/>
<path class="Note" d="M1083.72,494.673 C1088.29,494.673 1090.58,497.54 1090.58,503.273 C1090.58,507.302 1088.06,513.306 1083.02,521.286 C1078.99,527.716 1076.98,533.991 1076.98,540.112 C1076.98,543.598 1082.05,545.341 1092.2,545.341 C1100.57,545.341 1112.23,540.809 1127.18,531.745 C1112.15,546.232 1099.1,553.476 1088.02,553.476 C1078.03,553.476 1071.05,551.965 1067.1,548.944 C1066.09,548.169 1065.24,547.239 1064.54,546.155 C1060.67,550.881 1054.2,553.244 1045.14,553.244 C1036.46,553.244 1029.8,551.462 1025.15,547.898 C1022.05,545.496 1020.5,541.661 1020.5,536.393 C1020.5,528.026 1025.46,518.884 1035.38,508.967 C1045.99,498.353 1058.27,493.046 1072.21,493.046 C1075.7,493.046 1078.26,494.325 1079.88,496.881 C1081.2,495.409 1082.48,494.673 1083.72,494.673 M1062.92,540.925 C1062.84,540.305 1062.8,539.686 1062.8,539.066 C1062.8,538.756 1066.75,527.948 1074.66,506.643 C1075.43,504.551 1076.2,502.769 1076.98,501.297 C1073.96,500.678 1070.98,500.368 1068.03,500.368 C1062.61,500.368 1055.4,504.977 1046.42,514.197 C1038.36,522.409 1034.33,529.498 1034.33,535.463 C1034.33,542.049 1037.47,545.341 1043.74,545.341 C1051.34,545.341 1057.73,543.869 1062.92,540.925"/>
<path class="Note" d="M1039.44,821.118 C1035.65,821.118 1033.75,817.05 1033.75,808.916 L1033.75,774.866 C1033.75,771.612 1035.34,769.985 1038.51,769.985 C1039.91,769.985 1040.95,770.101 1041.65,770.333 C1044.13,765.995 1048.2,762.354 1053.85,759.41 C1061.76,755.304 1069.77,753.25 1077.91,753.25 C1084.34,753.25 1087.55,755.652 1087.55,760.456 C1087.55,764.484 1085.39,766.499 1081.05,766.499 C1077.95,766.499 1075,765.801 1072.21,764.407 C1069.74,763.167 1067.1,762.547 1064.31,762.547 C1059.51,762.547 1052.42,765.685 1043.05,771.96 C1044.36,778.236 1045.02,785.557 1045.02,793.924 C1045.02,812.053 1043.16,821.118 1039.44,821.118"/>
<path class="Note" d="M1090.81,670.351 C1101.27,663.765 1108.86,658.381 1113.59,654.197 C1122.26,646.527 1126.6,638.78 1126.6,630.955 C1126.6,621.813 1120.48,617.242 1108.24,617.242 C1095.38,617.242 1081.98,626.5 1068.03,645.017 C1058.58,657.568 1051.88,669.421 1047.93,680.577 C1052.81,677.401 1057.96,675.813 1063.38,675.813 C1068.5,675.813 1072.56,678.098 1075.58,682.669 C1077.68,685.846 1078.72,691.269 1078.72,698.939 C1078.72,705.834 1075.08,713.93 1067.8,723.227 C1063.31,728.96 1058.31,731.826 1052.81,731.826 C1045.83,731.826 1040.95,730.432 1038.17,727.643 C1034.21,723.692 1032.24,715.867 1032.24,704.168 C1032.24,684.49 1040.18,665.121 1056.06,646.063 C1073.96,624.602 1091.12,613.872 1107.54,613.872 C1120.25,613.872 1129.74,616.855 1136.01,622.82 C1139.66,626.307 1141.48,631.343 1141.48,637.928 C1141.48,645.288 1134.23,653.5 1119.75,662.565 C1112.15,667.368 1102.51,669.963 1090.81,670.351 M1046.42,685.458 C1044.48,691.966 1043.51,698.203 1043.51,704.168 C1043.51,718.346 1045.76,725.435 1050.25,725.435 C1054.51,725.435 1057.84,722.413 1060.25,716.37 C1063.03,709.553 1064.43,701.999 1064.43,693.709 C1064.43,686.349 1061.99,682.669 1057.11,682.669 C1053.7,682.669 1050.13,683.599 1046.42,685.458"/>
<path class="Note" d="M1582.41,583.965 C1586.98,583.965 1589.26,586.831 1589.26,592.564 C1589.26,596.593 1586.75,602.597 1581.71,610.577 C1577.68,617.007 1575.67,623.283 1575.67,629.403 C1575.67,632.889 1580.74,634.633 1590.89,634.633 C1599.26,634.633 1610.92,630.1 1625.87,621.036 C1610.84,635.524 1597.79,642.767 1586.71,642.767 C1576.71,642.767 1569.74,641.257 1565.79,638.235 C1564.78,637.46 1563.93,636.531 1563.23,635.446 C1559.36,640.172 1552.89,642.535 1543.83,642.535 C1535.15,642.535 1528.49,640.753 1523.84,637.189 C1520.74,634.788 1519.19,630.953 1519.19,625.684 C1519.19,617.317 1524.15,608.175 1534.06,598.259 C1544.68,587.645 1556.96,582.338 1570.9,582.338 C1574.39,582.338 1576.95,583.616 1578.57,586.173 C1579.89,584.701 1581.17,583.965 1582.41,583.965 M1561.61,630.217 C1561.53,629.597 1561.49,628.977 1561.49,628.357 C1561.49,628.047 1565.44,617.24 1573.34,595.934 C1574.12,593.843 1574.89,592.061 1575.67,590.589 C1572.65,589.969 1569.66,589.659 1566.72,589.659 C1561.3,589.659 1554.09,594.269 1545.1,603.488 C1537.05,611.7 1533.02,618.789 1533.02,624.755 C1533.02,631.34 1536.16,634.633 1542.43,634.633 C1550.02,634.633 1556.42,633.161 1561.61,630.217"/>
<path class="Note" d="M1589.5,759.642 C1599.96,753.057 1607.55,747.672 1612.27,743.489 C1620.95,735.819 1625.29,728.071 1625.29,720.247 C1625.29,711.105 1619.17,706.534 1606.93,706.534 C1594.07,706.534 1580.66,715.792 1566.72,734.308 C1557.27,746.859 1550.57,758.712 1546.61,769.869 C1551.5,766.692 1556.65,765.104 1562.07,765.104 C1567.18,765.104 1571.25,767.389 1574.27,771.96 C1576.36,775.137 1577.41,780.56 1577.41,788.23 C1577.41,795.125 1573.77,803.221 1566.49,812.518 C1561.99,818.251 1557,821.118 1551.5,821.118 C1544.52,821.118 1539.64,819.723 1536.85,816.934 C1532.9,812.983 1530.93,805.158 1530.93,793.459 C1530.93,773.781 1538.87,754.413 1554.75,735.354 C1572.65,713.894 1589.81,703.164 1606.23,703.164 C1618.94,703.164 1628.43,706.146 1634.7,712.112 C1638.34,715.598 1640.16,720.634 1640.16,727.219 C1640.16,734.579 1632.92,742.791 1618.43,751.856 C1610.84,756.659 1601.2,759.255 1589.5,759.642 M1545.1,774.749 C1543.17,781.257 1542.2,787.494 1542.2,793.459 C1542.2,807.637 1544.45,814.726 1548.94,814.726 C1553.2,814.726 1556.53,811.705 1558.93,805.662 C1561.72,798.844 1563.12,791.29 1563.12,783 C1563.12,775.64 1560.68,771.96 1555.8,771.96 C1552.39,771.96 1548.82,772.89 1545.1,774.749"/>
<path class="Note" d="M1582.41,673.256 C1586.98,673.256 1589.26,676.123 1589.26,681.856 C1589.26,685.884 1586.75,691.888 1581.71,699.868 C1577.68,706.299 1575.67,712.574 1575.67,718.694 C1575.67,722.181 1580.74,723.924 1590.89,723.924 C1599.26,723.924 1610.92,719.392 1625.87,710.327 C1610.84,724.815 1597.79,732.059 1586.71,732.059 C1576.71,732.059 1569.74,730.548 1565.79,727.527 C1564.78,726.752 1563.93,725.822 1563.23,724.737 C1559.36,729.463 1552.89,731.826 1543.83,731.826 C1535.15,731.826 1528.49,730.044 1523.84,726.481 C1520.74,724.079 1519.19,720.244 1519.19,714.976 C1519.19,706.609 1524.15,697.467 1534.06,687.55 C1544.68,676.936 1556.96,671.629 1570.9,671.629 C1574.39,671.629 1576.95,672.907 1578.57,675.464 C1579.89,673.992 1581.17,673.256 1582.41,673.256 M1561.61,719.508 C1561.53,718.888 1561.49,718.268 1561.49,717.649 C1561.49,717.339 1565.44,706.531 1573.34,685.226 C1574.12,683.134 1574.89,681.352 1575.67,679.88 C1572.65,679.26 1569.66,678.95 1566.72,678.95 C1561.3,678.95 1554.09,683.56 1545.1,692.779 C1537.05,700.992 1533.02,708.081 1533.02,714.046 C1533.02,720.631 1536.16,723.924 1542.43,723.924 C1550.02,723.924 1556.42,722.452 1561.61,719.508"/>
<path class="Note" d="M2000.98,583.965 C2005.55,583.965 2007.83,586.831 2007.83,592.564 C2007.83,596.593 2005.31,602.597 2000.28,610.577 C1996.25,617.007 1994.23,623.283 1994.23,629.403 C1994.23,632.889 1999.31,634.633 2009.46,634.633 C2017.83,634.633 2029.49,630.1 2044.44,621.036 C2029.41,635.524 2016.35,642.767 2005.27,642.767 C1995.28,642.767 1988.31,641.257 1984.36,638.235 C1983.35,637.46 1982.5,636.531 1981.8,635.446 C1977.93,640.172 1971.46,642.535 1962.39,642.535 C1953.72,642.535 1947.05,640.753 1942.4,637.189 C1939.31,634.788 1937.76,630.953 1937.76,625.684 C1937.76,617.317 1942.71,608.175 1952.63,598.259 C1963.25,587.645 1975.52,582.338 1989.47,582.338 C1992.96,582.338 1995.51,583.616 1997.14,586.173 C1998.46,584.701 1999.74,583.965 2000.98,583.965 M1980.17,630.217 C1980.1,629.597 1980.06,628.977 1980.06,628.357 C1980.06,628.047 1984.01,617.24 1991.91,595.934 C1992.69,593.843 1993.46,592.061 1994.23,590.589 C1991.21,589.969 1988.23,589.659 1985.29,589.659 C1979.86,589.659 1972.66,594.269 1963.67,603.488 C1955.61,611.7 1951.59,618.789 1951.59,624.755 C1951.59,631.34 1954.72,634.633 1961,634.633 C1968.59,634.633 1974.98,633.161 1980.17,630.217"/>
<path class="Note" d="M1956.7,821.118 C1952.9,821.118 1951,817.05 1951,808.916 L1951,774.866 C1951,771.612 1952.59,769.985 1955.77,769.985 C1957.16,769.985 1958.21,770.101 1958.91,770.333 C1961.39,765.995 1965.45,762.354 1971.11,759.41 C1979.01,755.304 1987.03,753.25 1995.16,753.25 C2001.59,753.25 2004.81,755.652 2004.81,760.456 C2004.81,764.484 2002.64,766.499 1998.3,766.499 C1995.2,766.499 1992.26,765.801 1989.47,764.407 C1986.99,763.167 1984.36,762.547 1981.57,762.547 C1976.76,762.547 1969.68,765.685 1960.3,771.96 C1961.62,778.236 1962.28,785.557 1962.28,793.924 C1962.28,812.053 1960.42,821.118 1956.7,821.118"/>
<path class="Note" d="M2000.98,494.673 C2005.55,494.673 2007.83,497.54 2007.83,503.273 C2007.83,507.302 2005.31,513.306 2000.28,521.286 C1996.25,527.716 1994.23,533.991 1994.23,540.112 C1994.23,543.598 1999.31,545.341 2009.46,545.341 C2017.83,545.341 2029.49,540.809 2044.44,531.745 C2029.41,546.232 2016.35,553.476 2005.27,553.476 C1995.28,553.476 1988.31,551.965 1984.36,548.944 C1983.35,548.169 1982.5,547.239 1981.8,546.155 C1977.93,550.881 1971.46,553.244 1962.39,553.244 C1953.72,553.244 1947.05,551.462 1942.4,547.898 C1939.31,545.496 1937.76,541.661 1937.76,536.393 C1937.76,528.026 1942.71,518.884 1952.63,508.967 C1963.25,498.353 1975.52,493.046 1989.47,493.046 C1992.96,493.046 1995.51,494.325 1997.14,496.881 C1998.46,495.409 1999.74,494.673 2000.98,494.673 M1980.17,540.925 C1980.1,540.305 1980.06,539.686 1980.06,539.066 C1980.06,538.756 1984.01,527.948 1991.91,506.643 C1992.69,504.551 1993.46,502.769 1994.23,501.297 C1991.21,500.678 1988.23,500.368 1985.29,500.368 C1979.86,500.368 1972.66,504.977 1963.67,514.197 C1955.61,522.409 1951.59,529.498 1951.59,535.463 C1951.59,542.049 1954.72,545.341 1961,545.341 C1968.59,545.341 1974.98,543.869 1980.17,540.925"/>
<path class="Note" d="M2008.06,670.351 C2018.52,663.765 2026.12,658.381 2030.84,654.197 C2039.52,646.527 2043.86,638.78 2043.86,630.955 C2043.86,621.813 2037.74,617.242 2025.5,617.242 C2012.63,617.242 1999.23,626.5 1985.29,645.017 C1975.83,657.568 1969.13,669.421 1965.18,680.577 C1970.06,677.401 1975.21,675.813 1980.64,675.813 C1985.75,675.813 1989.82,678.098 1992.84,682.669 C1994.93,685.846 1995.98,691.269 1995.98,698.939 C1995.98,705.834 1992.34,713.93 1985.05,723.227 C1980.56,728.96 1975.56,731.826 1970.06,731.826 C1963.09,731.826 1958.21,730.432 1955.42,727.643 C1951.47,723.692 1949.49,715.867 1949.49,704.168 C1949.49,684.49 1957.43,665.121 1973.32,646.063 C1991.21,624.602 2008.37,613.872 2024.8,613.872 C2037.5,613.872 2046.99,616.855 2053.27,622.82 C2056.91,626.307 2058.73,631.343 2058.73,637.928 C2058.73,645.288 2051.49,653.5 2037,662.565 C2029.41,667.368 2019.76,669.963 2008.06,670.351 M1963.67,685.458 C1961.73,691.966 1960.77,698.203 1960.77,704.168 C1960.77,718.346 1963.01,725.435 1967.51,725.435 C1971.77,725.435 1975.1,722.413 1977.5,716.37 C1980.29,709.553 1981.68,701.999 1981.68,693.709 C1981.68,686.349 1979.24,682.669 1974.36,682.669 C1970.95,682.669 1967.39,683.599 1963.67,685.458"/>
<path class="Note" d="M2446.56,941.13 C2451.13,941.13 2453.42,943.997 2453.42,949.73 C2453.42,953.758 2450.9,959.763 2445.87,967.742 C2441.84,974.173 2439.82,980.448 2439.82,986.568 C2439.82,990.055 2444.9,991.798 2455.05,991.798 C2463.41,991.798 2475.07,987.266 2490.03,978.201 C2475,992.689 2461.94,999.933 2450.86,999.933 C2440.87,999.933 2433.9,998.422 2429.94,995.401 C2428.94,994.626 2428.08,993.696 2427.39,992.611 C2423.51,997.337 2417.04,999.7 2407.98,999.7 C2399.3,999.7 2392.64,997.918 2387.99,994.355 C2384.89,991.953 2383.34,988.118 2383.34,982.85 C2383.34,974.483 2388.3,965.341 2398.22,955.424 C2408.83,944.81 2421.11,939.503 2435.06,939.503 C2438.54,939.503 2441.1,940.781 2442.73,943.338 C2444.04,941.866 2445.32,941.13 2446.56,941.13 M2425.76,987.382 C2425.68,986.762 2425.64,986.142 2425.64,985.523 C2425.64,985.213 2429.6,974.405 2437.5,953.1 C2438.27,951.008 2439.05,949.226 2439.82,947.754 C2436.8,947.134 2433.82,946.824 2430.87,946.824 C2425.45,946.824 2418.25,951.434 2409.26,960.653 C2401.2,968.866 2397.17,975.955 2397.17,981.92 C2397.17,988.505 2400.31,991.798 2406.59,991.798 C2414.18,991.798 2420.57,990.326 2425.76,987.382"/>
<path class="Note" d="M2446.56,583.965 C2451.13,583.965 2453.42,586.831 2453.42,592.564 C2453.42,596.593 2450.9,602.597 2445.87,610.577 C2441.84,617.007 2439.82,623.283 2439.82,629.403 C2439.82,632.889 2444.9,634.633 2455.05,634.633 C2463.41,634.633 2475.07,630.1 2490.03,621.036 C2475,635.524 2461.94,642.767 2450.86,642.767 C2440.87,642.767 2433.9,641.257 2429.94,638.235 C2428.94,637.46 2428.08,636.531 2427.39,635.446 C2423.51,640.172 2417.04,642.535 2407.98,642.535 C2399.3,642.535 2392.64,640.753 2387.99,637.189 C2384.89,634.788 2383.34,630.953 2383.34,625.684 C2383.34,617.317 2388.3,608.175 2398.22,598.259 C2408.83,587.645 2421.11,582.338 2435.06,582.338 C2438.54,582.338 2441.1,583.616 2442.73,586.173 C2444.04,584.701 2445.32,583.965 2446.56,583.965 M2425.76,630.217 C2425.68,629.597 2425.64,628.977 2425.64,628.357 C2425.64,628.047 2429.6,617.24 2437.5,595.934 C2438.27,593.843 2439.05,592.061 2439.82,590.589 C2436.8,589.969 2433.82,589.659 2430.87,589.659 C2425.45,589.659 2418.25,594.269 2409.26,603.488 C2401.2,611.7 2397.17,618.789 2397.17,624.755 C2397.17,631.34 2400.31,634.633 2406.59,634.633 C2414.18,634.633 2420.57,633.161 2425.76,630.217"/>
<path class="Note" d="M2446.56,494.673 C2451.13,494.673 2453.42,497.54 2453.42,503.273 C2453.42,507.302 2450.9,513.306 2445.87,521.286 C2441.84,527.716 2439.82,533.991 2439.82,540.112 C2439.82,543.598 2444.9,545.341 2455.05,545.341 C2463.41,545.341 2475.07,540.809 2490.03,531.745 C2475,546.232 2461.94,553.476 2450.86,553.476 C2440.87,553.476 2433.9,551.965 2429.94,548.944 C2428.94,548.169 2428.08,547.239 2427.39,546.155 C2423.51,550.881 2417.04,553.244 2407.98,553.244 C2399.3,553.244 2392.64,551.462 2387.99,547.898 C2384.89,545.496 2383.34,541.661 2383.34,536.393 C2383.34,528.026 2388.3,518.884 2398.22,508.967 C2408.83,498.353 2421.11,493.046 2435.06,493.046 C2438.54,493.046 2441.1,494.325 2442.73,496.881 C2444.04,495.409 2445.32,494.673 2446.56,494.673 M2425.76,540.925 C2425.68,540.305 2425.64,539.686 2425.64,539.066 C2425.64,538.756 2429.6,527.948 2437.5,506.643 C2438.27,504.551 2439.05,502.769 2439.82,501.297 C2436.8,500.678 2433.82,500.368 2430.87,500.368 C2425.45,500.368 2418.25,504.977 2409.26,514.197 C2401.2,522.409 2397.17,529.498 2397.17,535.463 C2397.17,542.049 2400.31,545.341 2406.59,545.341 C2414.18,545.341 2420.57,543.869 2425.76,540.925"/>
<path class="Note" d="M2453.65,670.351 C2464.11,663.765 2471.7,658.381 2476.43,654.197 C2485.11,646.527 2489.44,638.78 2489.44,630.955 C2489.44,621.813 2483.32,617.242 2471.08,617.242 C2458.22,617.242 2444.82,626.5 2430.87,645.017 C2421.42,657.568 2414.72,669.421 2410.77,680.577 C2415.65,677.401 2420.8,675.813 2426.23,675.813 C2431.34,675.813 2435.41,678.098 2438.43,682.669 C2440.52,685.846 2441.57,691.269 2441.57,698.939 C2441.57,705.834 2437.92,713.93 2430.64,723.227 C2426.15,728.96 2421.15,731.826 2415.65,731.826 C2408.68,731.826 2403.8,730.432 2401.01,727.643 C2397.06,723.692 2395.08,715.867 2395.08,704.168 C2395.08,684.49 2403.02,665.121 2418.9,646.063 C2436.8,624.602 2453.96,613.872 2470.39,613.872 C2483.09,613.872 2492.58,616.855 2498.86,622.82 C2502.5,626.307 2504.32,631.343 2504.32,637.928 C2504.32,645.288 2497.08,653.5 2482.59,662.565 C2475,667.368 2465.35,669.963 2453.65,670.351 M2409.26,685.458 C2407.32,691.966 2406.35,698.203 2406.35,704.168 C2406.35,718.346 2408.6,725.435 2413.09,725.435 C2417.35,725.435 2420.69,722.413 2423.09,716.37 C2425.88,709.553 2427.27,701.999 2427.27,693.709 C2427.27,686.349 2424.83,682.669 2419.95,682.669 C2416.54,682.669 2412.98,683.599 2409.26,685.458"/>
<path class="Note" d="M2909.39,1059.89 C2913.97,1059.89 2916.25,1062.75 2916.25,1068.49 C2916.25,1072.52 2913.73,1078.52 2908.7,1086.5 C2904.67,1092.93 2902.65,1099.21 2902.65,1105.33 C2902.65,1108.81 2907.73,1110.56 2917.88,1110.56 C2926.24,1110.56 2937.9,1106.02 2952.86,1096.96 C2937.83,1111.45 2924.77,1118.69 2913.69,1118.69 C2903.7,1118.69 2896.73,1117.18 2892.78,1114.16 C2891.77,1113.38 2890.92,1112.45 2890.22,1111.37 C2886.35,1116.09 2879.88,1118.46 2870.81,1118.46 C2862.14,1118.46 2855.47,1116.68 2850.82,1113.11 C2847.73,1110.71 2846.18,1106.88 2846.18,1101.61 C2846.18,1093.24 2851.13,1084.1 2861.05,1074.18 C2871.66,1063.57 2883.94,1058.26 2897.89,1058.26 C2901.38,1058.26 2903.93,1059.54 2905.56,1062.1 C2906.88,1060.62 2908.15,1059.89 2909.39,1059.89 M2888.59,1106.14 C2888.52,1105.52 2888.48,1104.9 2888.48,1104.28 C2888.48,1103.97 2892.43,1093.16 2900.33,1071.86 C2901.1,1069.77 2901.88,1067.98 2902.65,1066.51 C2899.63,1065.89 2896.65,1065.58 2893.71,1065.58 C2888.28,1065.58 2881.08,1070.19 2872.09,1079.41 C2864.03,1087.62 2860,1094.71 2860,1100.68 C2860,1107.26 2863.14,1110.56 2869.42,1110.56 C2877.01,1110.56 2883.4,1109.08 2888.59,1106.14"/>
<path class="Note" d="M2909.39,583.965 C2913.97,583.965 2916.25,586.831 2916.25,592.564 C2916.25,596.593 2913.73,602.597 2908.7,610.577 C2904.67,617.007 2902.65,623.283 2902.65,629.403 C2902.65,632.889 2907.73,634.633 2917.88,634.633 C2926.24,634.633 2937.9,630.1 2952.86,621.036 C2937.83,635.524 2924.77,642.767 2913.69,642.767 C2903.7,642.767 2896.73,641.257 2892.78,638.235 C2891.77,637.46 2890.92,636.531 2890.22,635.446 C2886.35,640.172 2879.88,642.535 2870.81,642.535 C2862.14,642.535 2855.47,640.753 2850.82,637.189 C2847.73,634.788 2846.18,630.953 2846.18,625.684 C2846.18,617.317 2851.13,608.175 2861.05,598.259 C2871.66,587.645 2883.94,582.338 2897.89,582.338 C2901.38,582.338 2903.93,583.616 2905.56,586.173 C2906.88,584.701 2908.15,583.965 2909.39,583.965 M2888.59,630.217 C2888.52,629.597 2888.48,628.977 2888.48,628.357 C2888.48,628.047 2892.43,617.24 2900.33,595.934 C2901.1,593.843 2901.88,592.061 2902.65,590.589 C2899.63,589.969 2896.65,589.659 2893.71,589.659 C2888.28,589.659 2881.08,594.269 2872.09,603.488 C2864.03,611.7 2860,618.789 2860,624.755 C2860,631.34 2863.14,634.633 2869.42,634.633 C2877.01,634.633 2883.4,633.161 2888.59,630.217"/>
<path class="Note" d="M2909.39,673.256 C2913.97,673.256 2916.25,676.123 2916.25,681.856 C2916.25,685.884 2913.73,691.888 2908.7,699.868 C2904.67,706.299 2902.65,712.574 2902.65,718.694 C2902.65,722.181 2907.73,723.924 2917.88,723.924 C2926.24,723.924 2937.9,719.392 2952.86,710.327 C2937.83,724.815 2924.77,732.059 2913.69,732.059 C2903.7,732.059 2896.73,730.548 2892.78,727.527 C2891.77,726.752 2890.92,725.822 2890.22,724.737 C2886.35,729.463 2879.88,731.826 2870.81,731.826 C2862.14,731.826 2855.47,730.044 2850.82,726.481 C2847.73,724.079 2846.18,720.244 2846.18,714.976 C2846.18,706.609 2851.13,697.467 2861.05,687.55 C2871.66,676.936 2883.94,671.629 2897.89,671.629 C2901.38,671.629 2903.93,672.907 2905.56,675.464 C2906.88,673.992 2908.15,673.256 2909.39,673.256 M2888.59,719.508 C2888.52,718.888 2888.48,718.268 2888.48,717.649 C2888.48,717.339 2892.43,706.531 2900.33,685.226 C2901.1,683.134 2901.88,681.352 2902.65,679.88 C2899.63,679.26 2896.65,678.95 2893.71,678.95 C2888.28,678.95 2881.08,683.56 2872.09,692.779 C2864.03,700.992 2860,708.081 2860,714.046 C2860,720.631 2863.14,723.924 2869.42,723.924 C2877.01,723.924 2883.4,722.452 2888.59,719.508"/>
<path class="Note" d="M3360.7,583.965 C3365.27,583.965 3367.56,586.831 3367.56,592.564 C3367.56,596.593 3365.04,602.597 3360,610.577 C3355.98,617.007 3353.96,623.283 3353.96,629.403 C3353.96,632.889 3359.04,634.633 3369.19,634.633 C3377.55,634.633 3389.21,630.1 3404.16,621.036 C3389.13,635.524 3376.08,642.767 3365,642.767 C3355.01,642.767 3348.03,641.257 3344.08,638.235 C3343.08,637.46 3342.22,636.531 3341.53,635.446 C3337.65,640.172 3331.18,642.535 3322.12,642.535 C3313.44,642.535 3306.78,640.753 3302.13,637.189 C3299.03,634.788 3297.48,630.953 3297.48,625.684 C3297.48,617.317 3302.44,608.175 3312.36,598.259 C3322.97,587.645 3335.25,582.338 3349.2,582.338 C3352.68,582.338 3355.24,583.616 3356.87,586.173 C3358.18,584.701 3359.46,583.965 3360.7,583.965 M3339.9,630.217 C3339.82,629.597 3339.78,628.977 3339.78,628.357 C3339.78,628.047 3343.74,617.24 3351.64,595.934 C3352.41,593.843 3353.19,592.061 3353.96,590.589 C3350.94,589.969 3347.96,589.659 3345.01,589.659 C3339.59,589.659 3332.39,594.269 3323.4,603.488 C3315.34,611.7 3311.31,618.789 3311.31,624.755 C3311.31,631.34 3314.45,634.633 3320.73,634.633 C3328.32,634.633 3334.71,633.161 3339.9,630.217"/>
<path class="Note" d="M3360.7,494.673 C3365.27,494.673 3367.56,497.54 3367.56,503.273 C3367.56,507.302 3365.04,513.306 3360,521.286 C3355.98,527.716 3353.96,533.991 3353.96,540.112 C3353.96,543.598 3359.04,545.341 3369.19,545.341 C3377.55,545.341 3389.21,540.809 3404.16,531.745 C3389.13,546.232 3376.08,553.476 3365,553.476 C3355.01,553.476 3348.03,551.965 3344.08,548.944 C3343.08,548.169 3342.22,547.239 3341.53,546.155 C3337.65,550.881 3331.18,553.244 3322.12,553.244 C3313.44,553.244 3306.78,551.462 3302.13,547.898 C3299.03,545.496 3297.48,541.661 3297.48,536.393 C3297.48,528.026 3302.44,518.884 3312.36,508.967 C3322.97,498.353 3335.25,493.046 3349.2,493.046 C3352.68,493.046 3355.24,494.325 3356.87,496.881 C3358.18,495.409 3359.46,494.673 3360.7,494.673 M3339.9,540.925 C3339.82,540.305 3339.78,539.686 3339.78,539.066 C3339.78,538.756 3343.74,527.948 3351.64,506.643 C3352.41,504.551 3353.19,502.769 3353.96,501.297 C3350.94,500.678 3347.96,500.368 3345.01,500.368 C3339.59,500.368 3332.39,504.977 3323.4,514.197 C3315.34,522.409 3311.31,529.498 3311.31,535.463 C3311.31,542.049 3314.45,545.341 3320.73,545.341 C3328.32,545.341 3334.71,543.869 3339.9,540.925"/>
<path class="Note" d="M3316.43,821.118 C3312.63,821.118 3310.73,817.05 3310.73,808.916 L3310.73,774.866 C3310.73,771.612 3312.32,769.985 3315.5,769.985 C3316.89,769.985 3317.94,770.101 3318.63,770.333 C3321.11,765.995 3325.18,762.354 3330.84,759.41 C3338.74,755.304 3346.76,753.25 3354.89,753.25 C3361.32,753.25 3364.54,755.652 3364.54,760.456 C3364.54,764.484 3362.37,766.499 3358.03,766.499 C3354.93,766.499 3351.99,765.801 3349.2,764.407 C3346.72,763.167 3344.08,762.547 3341.29,762.547 C3336.49,762.547 3329.4,765.685 3320.03,771.96 C3321.35,778.236 3322,785.557 3322,793.924 C3322,812.053 3320.14,821.118 3316.43,821.118"/>
<path class="Note" d="M3367.79,670.351 C3378.25,663.765 3385.84,658.381 3390.57,654.197 C3399.25,646.527 3403.58,638.78 3403.58,630.955 C3403.58,621.813 3397.46,617.242 3385.22,617.242 C3372.36,617.242 3358.96,626.5 3345.01,645.017 C3335.56,657.568 3328.86,669.421 3324.91,680.577 C3329.79,677.401 3334.94,675.813 3340.37,675.813 C3345.48,675.813 3349.55,678.098 3352.57,682.669 C3354.66,685.846 3355.7,691.269 3355.7,698.939 C3355.7,705.834 3352.06,713.93 3344.78,723.227 C3340.29,728.96 3335.29,731.826 3329.79,731.826 C3322.82,731.826 3317.94,730.432 3315.15,727.643 C3311.2,723.692 3309.22,715.867 3309.22,704.168 C3309.22,684.49 3317.16,665.121 3333.04,646.063 C3350.94,624.602 3368.1,613.872 3384.53,613.872 C3397.23,613.872 3406.72,616.855 3413,622.82 C3416.64,626.307 3418.46,631.343 3418.46,637.928 C3418.46,645.288 3411.21,653.5 3396.73,662.565 C3389.13,667.368 3379.49,669.963 3367.79,670.351 M3323.4,685.458 C3321.46,691.966 3320.49,698.203 3320.49,704.168 C3320.49,718.346 3322.74,725.435 3327.23,725.435 C3331.49,725.435 3334.83,722.413 3337.23,716.37 C3340.02,709.553 3341.41,701.999 3341.41,693.709 C3341.41,686.349 3338.97,682.669 3334.09,682.669 C3330.68,682.669 3327.12,683.599 3323.4,685.458"/>
<path class="Note" d="M3829.25,583.965 C3833.82,583.965 3836.11,586.831 3836.11,592.564 C3836.11,596.593 3833.59,602.597 3828.56,610.577 C3824.53,617.007 3822.51,623.283 3822.51,629.403 C3822.51,632.889 3827.59,634.633 3837.74,634.633 C3846.1,634.633 3857.76,630.1 3872.72,621.036 C3857.69,635.524 3844.63,642.767 3833.55,642.767 C3823.56,642.767 3816.59,641.257 3812.64,638.235 C3811.63,637.46 3810.78,636.531 3810.08,635.446 C3806.21,640.172 3799.74,642.535 3790.67,642.535 C3781.99,642.535 3775.33,640.753 3770.68,637.189 C3767.58,634.788 3766.04,630.953 3766.04,625.684 C3766.04,617.317 3770.99,608.175 3780.91,598.259 C3791.52,587.645 3803.8,582.338 3817.75,582.338 C3821.24,582.338 3823.79,583.616 3825.42,586.173 C3826.74,584.701 3828.01,583.965 3829.25,583.965 M3808.45,630.217 C3808.37,629.597 3808.34,628.977 3808.34,628.357 C3808.34,628.047 3812.29,617.24 3820.19,595.934 C3820.96,593.843 3821.74,592.061 3822.51,590.589 C3819.49,589.969 3816.51,589.659 3813.57,589.659 C3808.14,589.659 3800.94,594.269 3791.95,603.488 C3783.89,611.7 3779.86,618.789 3779.86,624.755 C3779.86,631.34 3783,634.633 3789.28,634.633 C3796.87,634.633 3803.26,633.161 3808.45,630.217"/>
<path class="Note" d="M3829.25,762.547 C3833.82,762.547 3836.11,765.414 3836.11,771.147 C3836.11,775.176 3833.59,781.18 3828.56,789.16 C3824.53,795.59 3822.51,801.865 3822.51,807.986 C3822.51,811.472 3827.59,813.215 3837.74,813.215 C3846.1,813.215 3857.76,808.683 3872.72,799.619 C3857.69,814.106 3844.63,821.35 3833.55,821.35 C3823.56,821.35 3816.59,819.839 3812.64,816.818 C3811.63,816.043 3810.78,815.113 3810.08,814.029 C3806.21,818.755 3799.74,821.118 3790.67,821.118 C3781.99,821.118 3775.33,819.336 3770.68,815.772 C3767.58,813.37 3766.04,809.535 3766.04,804.267 C3766.04,795.9 3770.99,786.758 3780.91,776.841 C3791.52,766.227 3803.8,760.92 3817.75,760.92 C3821.24,760.92 3823.79,762.199 3825.42,764.755 C3826.74,763.283 3828.01,762.547 3829.25,762.547 M3808.45,808.799 C3808.37,808.179 3808.34,807.56 3808.34,806.94 C3808.34,806.63 3812.29,795.822 3820.19,774.517 C3820.96,772.425 3821.74,770.643 3822.51,769.171 C3819.49,768.552 3816.51,768.242 3813.57,768.242 C3808.14,768.242 3800.94,772.851 3791.95,782.071 C3783.89,790.283 3779.86,797.372 3779.86,803.337 C3779.86,809.923 3783,813.215 3789.28,813.215 C3796.87,813.215 3803.26,811.743 3808.45,808.799"/>
<path class="Note" d="M3829.25,673.256 C3833.82,673.256 3836.11,676.123 3836.11,681.856 C3836.11,685.884 3833.59,691.888 3828.56,699.868 C3824.53,706.299 3822.51,712.574 3822.51,718.694 C3822.51,722.181 3827.59,723.924 3837.74,723.924 C3846.1,723.924 3857.76,719.392 3872.72,710.327 C3857.69,724.815 3844.63,732.059 3833.55,732.059 C3823.56,732.059 3816.59,730.548 3812.64,727.527 C3811.63,726.752 3810.78,725.822 3810.08,724.737 C3806.21,729.463 3799.74,731.826 3790.67,731.826 C3781.99,731.826 3775.33,730.044 3770.68,726.481 C3767.58,724.079 3766.04,720.244 3766.04,714.976 C3766.04,706.609 3770.99,697.467 3780.91,687.55 C3791.52,676.936 3803.8,671.629 3817.75,671.629 C3821.24,671.629 3823.79,672.907 3825.42,675.464 C3826.74,673.992 3828.01,673.256 3829.25,673.256 M3808.45,719.508 C3808.37,718.888 3808.34,718.268 3808.34,717.649 C3808.34,717.339 3812.29,706.531 3820.19,685.226 C3820.96,683.134 3821.74,681.352 3822.51,679.88 C3819.49,679.26 3816.51,678.95 3813.57,678.95 C3808.14,678.95 3800.94,683.56 3791.95,692.779 C3783.89,700.992 3779.86,708.081 3779.86,714.046 C3779.86,720.631 3783,723.924 3789.28,723.924 C3796.87,723.924 3803.26,722.452 3808.45,719.508"/>
<path class="Clef" transform="matrix(2.3811,0,0,2.3811,212.156,2076.38)" d="M25.4,-25.1 C17.8,-25.1 11.7,-20.7 11.6,-20.7 C5.8,-16.4 3.5,-11.3 2.6,-7.8 C2.1,-6 1.9,-4.2 1.9,-2.5 C1.9,-0.1 2.3,2.1 3.2,4 C4.4,6.7 6.7,8.6 9.7,9.6 C10.9,10 12.2,10.2 13.5,10.2 C15.7,10.2 18,9.6 19.9,8.5 C23,6.8 24.9,3.2 24.9,-0.7 C24.9,-4.2 23.1,-7.4 20.1,-9.3 C18,-10.7 16,-11.1 14.3,-11.1 C13.1,-11.1 12,-10.9 11.1,-10.6 C10.1,-10.2 8.4,-9.2 7.6,-8.5 C7.9,-10.4 9.1,-13.3 10.2,-14.9 C11.3,-16.5 13.5,-18.5 15.2,-19.4 C17.7,-20.8 20.9,-21.4 24.4,-21.4 C34.6,-21.4 39.6,-13.2 39.6,3.6 C39.6,12.9 36.1,21.8 33.1,27.7 C29.8,34.3 25.4,40.6 21.5,44.1 C11.1,53.6 1.3,58.1 1.2,58.1 C1.2,58.1 -0.3,59 0.1,60.5 C0.4,61.5 1.3,61.7 1.9,61.7 C2,61.7 2.3,61.6 2.4,61.6 C2.5,61.6 13.9,56.9 23,49.8 C28.1,46.1 32.7,42.1 36.7,37.8 C40.3,33.9 43.4,29.7 45.9,25.5 C50.3,18 52.8,10.2 52.8,3.5 C52.8,-4.8 50.6,-11.7 46.5,-16.6 C41.8,-22.2 34.7,-25.1 25.4,-25.1 M56.8,-12.4 C56.8,-9.6 59,-7.4 61.6,-7.4 C64.2,-7.4 66.4,-9.6 66.4,-12.4 C66.4,-15.2 64.2,-17.5 61.6,-17.5 C59,-17.5 56.8,-15.2 56.8,-12.4 M56.8,12.3 C56.8,15.1 59,17.4 61.6,17.4 C64.2,17.4 66.4,15.1 66.4,12.3 C66.4,9.5 64.2,7.2 61.6,7.2 C59,7.2 56.8,9.5 56.8,12.3"/>
<path class="Clef" transform="matrix(2.3811,0,0,2.3811,212.156,1570.39)" d="M63.37,-5.89004 C62.14,-11.32 59.5,-15.14 58.72,-16.1801 C55.5301,-20.45 51.52,-23.3 46.8301,-24.65 C43.72,-25.54 40.72,-25.65 38.3,-25.47 C37.2601,-31.4801 36.2601,-37.3601 35.35,-42.8101 C40.79,-48.97 44.42,-54.77 46.69,-59.07 C50.1601,-65.65 51.3101,-70.2301 51.3601,-70.4301 C53.0801,-75.64 53.44,-83.34 52.34,-91.55 C51.3301,-99.1 49.24,-105.81 46.89,-109.06 C45.8601,-110.49 44.8101,-111.22 43.77,-111.22 C42.55,-111.22 40.04,-109.98 37.15,-107.21 C34.85,-105.01 31.5801,-101.12 29.02,-95.1101 C26.02,-88.05 25.8101,-78.5601 26.1601,-71.84 C26.54,-64.57 27.65,-58.8801 27.6601,-58.8301 C27.6801,-58.74 27.94,-57.24 28.39,-54.67 C28.1601,-54.44 27.92,-54.22 27.67,-53.9801 C26.6301,-52.9801 25.44,-51.84 24.0601,-50.4601 C23.2,-49.6 22.25,-48.69 21.25,-47.72 C12.79,-39.57 0,-27.25 0,-8.1 C0,-3.4 0.9,1.01992 2.68008,5.02998 C4.27002,8.62998 6.57002,11.91 9.5,14.78 C17.2301,22.33 27.82,25.5399 34.8801,25.38 C37.8301,25.31 40.4601,25.0699 42.85,24.6199 C44.6801,34.2199 45.82,41.25 45.8601,46.5899 C45.9,53.1 44.25,57.0699 40.35,59.8399 C37.92,61.5699 35.1101,62.5199 32.0101,62.6699 C29.42,62.7899 27.1601,62.3199 25.7301,61.91 L25.72,61.91 C25.72,61.91 25.4301,61.83 25.42,61.63 C25.4101,61.45 25.7601,61.4 25.77,61.4 L25.79,61.4 C27.7101,60.96 31.2801,59.73 33.64,56.43 C35.44,53.91 36.3101,49.2899 34.47,45.35 C33.3601,42.96 30.85,40.01 25.2301,39.56 C22.74,39.36 20.47,39.8699 18.47,41.0699 C16.6601,42.15 15.1601,43.7899 14.1101,45.7899 C11.65,50.4899 12.1101,56.2199 15.24,60.06 C18.2,63.68 22.82,65.9899 28.25,66.5699 C29.1,66.66 29.95,66.7 30.8,66.7 C31.5101,66.7 32.22,66.6699 32.92,66.61 C31.72,66.9399 30.64,67.4899 29.77,68.25 C28.2801,69.5399 27.44,71.38 27.44,73.41 C27.44,75.28 28.0601,76.65 29.55,78.0399 C28.4101,78.5 27.55,78.98 26.79,79.56 C25.25,80.73 24.34,82.46 24.34,84.1899 C24.34,87.45 27.3,89.63 31.72,89.63 C37.1301,89.63 40.9101,86.63 40.9101,82.35 C40.9101,80.1199 39.9101,78.18 38.0801,76.83 C41.0101,75.6199 42.37,73.9399 42.37,71.56 C42.39,70.05 41.69,68.61 40.49,67.6899 C39.2801,66.7399 37.62,66.2399 35.69,66.2399 L35.5101,66.2399 C38.2801,65.7 40.92,64.7 43.2101,63.28 C46.87,60.71 48.99,56.73 49.67,51.1 C50.2301,46.46 49.84,40.55 48.44,32.48 C48.0801,30.3899 47.54,27.36 46.8801,23.6 C52.6301,21.68 56.79,18.11 60.5601,12.26 C63.85,6.51992 64.8,0.419922 63.37,-5.89004 M32.39,87.5399 C30.19,87.5399 28.7301,86.1199 28.7301,84.01 C28.7301,82.11 29.65,80.5 31.32,79.4699 C31.6801,79.66 31.77,79.71 32.1101,79.88 C33.3,80.48 33.3,80.48 33.55,80.63 L33.5601,80.6399 C35.47,81.73 36.25,82.76 36.25,84.18 C36.24,86.0899 34.59,87.5399 32.39,87.5399 M38.3101,71.63 C38.3101,73.2699 37.7301,74.3399 36.1801,75.53 C34.74,74.78 34.35,74.56 33.9801,74.3399 L33.8801,74.28 C32.3301,73.3399 31.85,72.66 31.85,71.4 C31.85,69.6 33.2301,68.3399 35.19,68.3399 C37.17,68.35 38.3101,69.55 38.3101,71.63 M33.15,-83.8101 C34.9301,-89.55 37.67,-92.8 39.6601,-94.5301 C41.4101,-96.05 43.0601,-96.7601 43.9801,-96.7601 C44.12,-96.7601 44.24,-96.74 44.34,-96.7101 C44.8,-96.57 45.3301,-96 45.8,-95.1301 C48.1101,-90.84 47.37,-84.1301 46.0301,-79.69 C44.4,-74.29 41.4801,-68.6801 32.69,-59.0601 C32.52,-60.17 32.3601,-61.22 32.2101,-62.2 C30.95,-70.49 31.27,-77.7601 33.15,-83.8101 M29.15,20.31 C24.5101,19.0899 20.0801,16.5899 16.32,13.0899 C15.0101,11.86 13.14,9.68994 11.67,6.3 C10.3101,3.13994 9.65,-0.290039 9.7,-3.88008 C9.77002,-8.57002 11.0801,-13.39 13.59,-18.1801 C16.5101,-23.7601 21.07,-29.29 27.1301,-34.62 C28.5801,-35.9 29.95,-37.1801 31.24,-38.4601 C32,-34.2 32.8301,-29.5101 33.7101,-24.6301 C29.8601,-23.3601 25.1101,-20.2101 22,-14.5601 C18.47,-7.99004 18.6101,-2.47002 19.34,1.00996 C20.2801,5.46992 22.8101,9.22998 26.27,11.3199 C27.2,11.88 31.3301,14.01 33.17,13.43 C33.54,13.31 33.8101,13.0899 33.95,12.76 C34.4601,11.5899 33.44,10.95 31.8801,9.98994 C31.2801,9.61992 30.6101,9.2 29.8801,8.66992 C26.5601,6.17998 25.1101,1.72998 26.1801,-2.65 C26.7601,-5.05 28.04,-7.21006 29.8801,-8.91006 C31.55,-10.4601 33.59,-11.5601 35.97,-12.2 C38.0101,-0.960059 40.07,10.1899 41.7101,18.55 C41.84,19.2399 41.9801,19.91 42.1101,20.58 C37.7101,21.51 33.37,21.4199 29.15,20.31 M54.9,10.1 C53.7301,13.28 51.27,17.35 46.14,19.41 C46.07,18.9899 45.99,18.56 45.9101,18.13 C44.3601,9.36992 42.4301,-1.61006 40.47,-12.87 C50.82,-13.35 55.09,-5.91006 55.9801,-1.08008 C56.45,1.45 56.45,5.88994 54.9,10.1"/>
<path class="FiguredBass" d="M639.242,2390.15 C634.665,2390.15 631.619,2391.99 630.104,2395.67 C628.589,2399.35 627.831,2404.56 627.831,2411.3 L627.831,2422.25 C631.047,2420.95 633.83,2420.27 636.181,2420.21 C644.221,2420.21 650.545,2421.98 655.153,2425.54 C659.761,2429.1 662.064,2434.38 662.064,2441.4 C662.064,2448.42 659.73,2453.73 655.06,2457.31 C650.39,2460.9 644.097,2462.7 636.181,2462.7 C628.078,2462.7 621.739,2458.94 617.162,2451.42 C612.585,2443.91 610.297,2434.99 610.297,2424.66 C610.297,2414.39 612.956,2405.49 618.275,2397.94 C623.594,2390.39 630.583,2386.62 639.242,2386.62 C644.932,2386.62 649.849,2388.06 653.993,2390.94 C658.137,2393.81 660.209,2397.6 660.209,2402.3 C660.209,2405.02 659.219,2407.37 657.24,2409.35 C655.261,2411.33 652.895,2412.32 650.143,2412.32 C647.391,2412.32 645.025,2411.33 643.046,2409.35 C641.067,2407.37 640.077,2405.02 640.077,2402.3 C640.077,2399.64 641.067,2397.29 643.046,2395.25 C643.726,2394.45 644.685,2393.76 645.922,2393.21 C645.613,2392.4 644.994,2391.79 644.066,2391.35 C642.706,2390.55 641.098,2390.15 639.242,2390.15 M643.788,2428.09 C642.675,2425.18 640.232,2423.73 636.459,2423.73 C632.686,2423.73 630.351,2425.18 629.455,2428.09 C628.558,2431 628.109,2435.42 628.109,2441.36 C628.109,2448.35 628.558,2453.05 629.455,2455.46 C630.351,2457.87 632.686,2459.08 636.459,2459.08 C640.232,2459.08 642.675,2457.62 643.788,2454.72 C644.901,2451.81 645.458,2447.37 645.458,2441.4 C645.458,2435.44 644.901,2431 643.788,2428.09"/>
<path class="FiguredBass" d="M1550.78,2390.15 C1546.2,2390.15 1543.15,2391.99 1541.64,2395.67 C1540.12,2399.35 1539.37,2404.56 1539.37,2411.3 L1539.37,2422.25 C1542.58,2420.95 1545.37,2420.27 1547.72,2420.21 C1555.76,2420.21 1562.08,2421.98 1566.69,2425.54 C1571.3,2429.1 1573.6,2434.38 1573.6,2441.4 C1573.6,2448.42 1571.26,2453.73 1566.6,2457.31 C1561.93,2460.9 1555.63,2462.7 1547.72,2462.7 C1539.61,2462.7 1533.27,2458.94 1528.7,2451.42 C1524.12,2443.91 1521.83,2434.99 1521.83,2424.66 C1521.83,2414.39 1524.49,2405.49 1529.81,2397.94 C1535.13,2390.39 1542.12,2386.62 1550.78,2386.62 C1556.47,2386.62 1561.38,2388.06 1565.53,2390.94 C1569.67,2393.81 1571.74,2397.6 1571.74,2402.3 C1571.74,2405.02 1570.75,2407.37 1568.78,2409.35 C1566.8,2411.33 1564.43,2412.32 1561.68,2412.32 C1558.93,2412.32 1556.56,2411.33 1554.58,2409.35 C1552.6,2407.37 1551.61,2405.02 1551.61,2402.3 C1551.61,2399.64 1552.6,2397.29 1554.58,2395.25 C1555.26,2394.45 1556.22,2393.76 1557.46,2393.21 C1557.15,2392.4 1556.53,2391.79 1555.6,2391.35 C1554.24,2390.55 1552.63,2390.15 1550.78,2390.15 M1555.32,2428.09 C1554.21,2425.18 1551.77,2423.73 1547.99,2423.73 C1544.22,2423.73 1541.89,2425.18 1540.99,2428.09 C1540.09,2431 1539.64,2435.42 1539.64,2441.36 C1539.64,2448.35 1540.09,2453.05 1540.99,2455.46 C1541.89,2457.87 1544.22,2459.08 1547.99,2459.08 C1551.77,2459.08 1554.21,2457.62 1555.32,2454.72 C1556.44,2451.81 1556.99,2447.37 1556.99,2441.4 C1556.99,2435.44 1556.44,2431 1555.32,2428.09"/>
<path class="FiguredBass" d="M2877.76,2390.15 C2873.19,2390.15 2870.14,2391.99 2868.63,2395.67 C2867.11,2399.35 2866.35,2404.56 2866.35,2411.3 L2866.35,2422.25 C2869.57,2420.95 2872.35,2420.27 2874.7,2420.21 C2882.74,2420.21 2889.07,2421.98 2893.67,2425.54 C2898.28,2429.1 2900.59,2434.38 2900.59,2441.4 C2900.59,2448.42 2898.25,2453.73 2893.58,2457.31 C2888.91,2460.9 2882.62,2462.7 2874.7,2462.7 C2866.6,2462.7 2860.26,2458.94 2855.68,2451.42 C2851.11,2443.91 2848.82,2434.99 2848.82,2424.66 C2848.82,2414.39 2851.48,2405.49 2856.8,2397.94 C2862.12,2390.39 2869.11,2386.62 2877.76,2386.62 C2883.45,2386.62 2888.37,2388.06 2892.51,2390.94 C2896.66,2393.81 2898.73,2397.6 2898.73,2402.3 C2898.73,2405.02 2897.74,2407.37 2895.76,2409.35 C2893.78,2411.33 2891.42,2412.32 2888.66,2412.32 C2885.91,2412.32 2883.55,2411.33 2881.57,2409.35 C2879.59,2407.37 2878.6,2405.02 2878.6,2402.3 C2878.6,2399.64 2879.59,2397.29 2881.57,2395.25 C2882.25,2394.45 2883.21,2393.76 2884.44,2393.21 C2884.13,2392.4 2883.52,2391.79 2882.59,2391.35 C2881.23,2390.55 2879.62,2390.15 2877.76,2390.15 M2882.31,2428.09 C2881.2,2425.18 2878.75,2423.73 2874.98,2423.73 C2871.21,2423.73 2868.87,2425.18 2867.98,2428.09 C2867.08,2431 2866.63,2435.42 2866.63,2441.36 C2866.63,2448.35 2867.08,2453.05 2867.98,2455.46 C2868.87,2457.87 2871.21,2459.08 2874.98,2459.08 C2878.75,2459.08 2881.2,2457.62 2882.31,2454.72 C2883.42,2451.81 2883.98,2447.37 2883.98,2441.4 C2883.98,2435.44 2883.42,2431 2882.31,2428.09"/>
<path class="FiguredBass" d="M3797.62,2390.15 C3793.05,2390.15 3790,2391.99 3788.49,2395.67 C3786.97,2399.35 3786.21,2404.56 3786.21,2411.3 L3786.21,2422.25 C3789.43,2420.95 3792.21,2420.27 3794.56,2420.21 C3802.6,2420.21 3808.93,2421.98 3813.53,2425.54 C3818.14,2429.1 3820.45,2434.38 3820.45,2441.4 C3820.45,2448.42 3818.11,2453.73 3813.44,2457.31 C3808.77,2460.9 3802.48,2462.7 3794.56,2462.7 C3786.46,2462.7 3780.12,2458.94 3775.54,2451.42 C3770.97,2443.91 3768.68,2434.99 3768.68,2424.66 C3768.68,2414.39 3771.34,2405.49 3776.66,2397.94 C3781.98,2390.39 3788.96,2386.62 3797.62,2386.62 C3803.31,2386.62 3808.23,2388.06 3812.37,2390.94 C3816.52,2393.81 3818.59,2397.6 3818.59,2402.3 C3818.59,2405.02 3817.6,2407.37 3815.62,2409.35 C3813.64,2411.33 3811.28,2412.32 3808.52,2412.32 C3805.77,2412.32 3803.41,2411.33 3801.43,2409.35 C3799.45,2407.37 3798.46,2405.02 3798.46,2402.3 C3798.46,2399.64 3799.45,2397.29 3801.43,2395.25 C3802.11,2394.45 3803.07,2393.76 3804.3,2393.21 C3803.99,2392.4 3803.38,2391.79 3802.45,2391.35 C3801.09,2390.55 3799.48,2390.15 3797.62,2390.15 M3802.17,2428.09 C3801.06,2425.18 3798.61,2423.73 3794.84,2423.73 C3791.07,2423.73 3788.73,2425.18 3787.84,2428.09 C3786.94,2431 3786.49,2435.42 3786.49,2441.36 C3786.49,2448.35 3786.94,2453.05 3787.84,2455.46 C3788.73,2457.87 3791.07,2459.08 3794.84,2459.08 C3798.61,2459.08 3801.06,2457.62 3802.17,2454.72 C3803.28,2451.81 3803.84,2447.37 3803.84,2441.4 C3803.84,2435.44 3803.28,2431 3802.17,2428.09"/>
<path class="FiguredBass" d="M651.117,1797.3 C651.117,1798.29 651.674,1799.25 652.787,1800.18 C653.9,1801.1 655.122,1801.98 656.452,1802.82 C657.781,1803.65 659.003,1805.23 660.116,1807.55 C661.23,1809.87 661.786,1812.79 661.786,1816.32 C661.786,1823.12 659.219,1828.38 654.086,1832.09 C648.952,1835.8 642.458,1837.66 634.604,1837.66 C628.295,1837.66 622.806,1836.08 618.136,1832.92 C613.467,1829.77 611.132,1825.63 611.132,1820.49 C611.132,1817.77 612.121,1815.41 614.101,1813.4 C616.08,1811.39 618.445,1810.38 621.198,1810.38 C623.95,1810.38 626.285,1811.37 628.202,1813.35 C630.119,1815.33 631.078,1817.71 631.078,1820.49 C631.078,1821.73 630.058,1823.08 628.017,1824.53 C625.976,1825.98 624.955,1827.33 624.955,1828.56 C624.955,1830.48 625.898,1831.89 627.785,1832.79 C629.671,1833.68 631.944,1834.13 634.604,1834.13 C638.067,1834.13 640.526,1832.41 641.979,1828.98 C643.432,1825.55 644.159,1821.33 644.159,1816.32 L644.159,1813.91 C644.159,1810.57 644.051,1808.03 643.834,1806.3 C643.618,1804.57 642.938,1803.02 641.793,1801.66 C640.649,1800.3 638.902,1799.62 636.552,1799.62 L624.398,1799.62 C622.976,1799.62 622.265,1798.85 622.265,1797.3 C622.265,1795.88 622.976,1795.17 624.398,1795.17 L636.552,1795.17 C639.088,1795.17 641.067,1794.21 642.489,1792.29 C642.984,1791.61 643.386,1790.5 643.695,1788.95 C644.005,1786.91 644.159,1783.97 644.159,1780.14 L644.159,1778.93 C644.159,1769.72 640.757,1765.11 633.954,1765.11 C627.955,1765.11 624.955,1766.78 624.955,1770.12 C624.955,1771.23 625.867,1772.42 627.692,1773.69 C629.516,1774.96 630.429,1776.15 630.429,1777.26 C630.429,1779.67 629.578,1781.74 627.877,1783.48 C626.177,1785.21 624.105,1786.07 621.662,1786.07 C619.219,1786.07 617.162,1785.21 615.492,1783.48 C613.822,1781.74 612.987,1779.67 612.987,1777.26 C612.987,1772.5 615.059,1768.69 619.203,1765.85 C623.347,1763 628.264,1761.58 633.954,1761.58 C641.438,1761.58 647.592,1763.02 652.416,1765.9 C657.24,1768.77 659.652,1773.12 659.652,1778.93 C659.652,1783.07 659.219,1786.29 658.354,1788.58 C657.488,1790.87 656.498,1792.26 655.385,1792.75 C654.271,1793.25 653.282,1793.82 652.416,1794.47 C651.55,1795.12 651.117,1796.06 651.117,1797.3"/>
<path class="FiguredBass" d="M639.242,1870.86 C634.665,1870.86 631.619,1872.7 630.104,1876.38 C628.589,1880.06 627.831,1885.27 627.831,1892.01 L627.831,1902.96 C631.047,1901.66 633.83,1900.98 636.181,1900.92 C644.221,1900.92 650.545,1902.69 655.153,1906.25 C659.761,1909.81 662.064,1915.09 662.064,1922.11 C662.064,1929.13 659.73,1934.44 655.06,1938.03 C650.39,1941.61 644.097,1943.41 636.181,1943.41 C628.078,1943.41 621.739,1939.65 617.162,1932.13 C612.585,1924.62 610.297,1915.7 610.297,1905.37 C610.297,1895.1 612.956,1886.2 618.275,1878.65 C623.594,1871.1 630.583,1867.33 639.242,1867.33 C644.932,1867.33 649.849,1868.77 653.993,1871.65 C658.137,1874.52 660.209,1878.31 660.209,1883.01 C660.209,1885.73 659.219,1888.08 657.24,1890.06 C655.261,1892.04 652.895,1893.03 650.143,1893.03 C647.391,1893.03 645.025,1892.04 643.046,1890.06 C641.067,1888.08 640.077,1885.73 640.077,1883.01 C640.077,1880.35 641.067,1878 643.046,1875.96 C643.726,1875.16 644.685,1874.48 645.922,1873.92 C645.613,1873.11 644.994,1872.5 644.066,1872.06 C642.706,1871.26 641.098,1870.86 639.242,1870.86 M643.788,1908.8 C642.675,1905.89 640.232,1904.44 636.459,1904.44 C632.686,1904.44 630.351,1905.89 629.455,1908.8 C628.558,1911.71 628.109,1916.13 628.109,1922.07 C628.109,1929.06 628.558,1933.76 629.455,1936.17 C630.351,1938.58 632.686,1939.79 636.459,1939.79 C640.232,1939.79 642.675,1938.33 643.788,1935.43 C644.901,1932.52 645.458,1928.08 645.458,1922.11 C645.458,1916.15 644.901,1911.71 643.788,1908.8"/>
<path class="FiguredBass" d="M1562.65,1797.3 C1562.65,1798.29 1563.21,1799.25 1564.32,1800.18 C1565.44,1801.1 1566.66,1801.98 1567.99,1802.82 C1569.32,1803.65 1570.54,1805.23 1571.65,1807.55 C1572.76,1809.87 1573.32,1812.79 1573.32,1816.32 C1573.32,1823.12 1570.75,1828.38 1565.62,1832.09 C1560.49,1835.8 1553.99,1837.66 1546.14,1837.66 C1539.83,1837.66 1534.34,1836.08 1529.67,1832.92 C1525,1829.77 1522.67,1825.63 1522.67,1820.49 C1522.67,1817.77 1523.66,1815.41 1525.64,1813.4 C1527.61,1811.39 1529.98,1810.38 1532.73,1810.38 C1535.49,1810.38 1537.82,1811.37 1539.74,1813.35 C1541.65,1815.33 1542.61,1817.71 1542.61,1820.49 C1542.61,1821.73 1541.59,1823.08 1539.55,1824.53 C1537.51,1825.98 1536.49,1827.33 1536.49,1828.56 C1536.49,1830.48 1537.43,1831.89 1539.32,1832.79 C1541.21,1833.68 1543.48,1834.13 1546.14,1834.13 C1549.6,1834.13 1552.06,1832.41 1553.51,1828.98 C1554.97,1825.55 1555.69,1821.33 1555.69,1816.32 L1555.69,1813.91 C1555.69,1810.57 1555.59,1808.03 1555.37,1806.3 C1555.15,1804.57 1554.47,1803.02 1553.33,1801.66 C1552.18,1800.3 1550.44,1799.62 1548.09,1799.62 L1535.93,1799.62 C1534.51,1799.62 1533.8,1798.85 1533.8,1797.3 C1533.8,1795.88 1534.51,1795.17 1535.93,1795.17 L1548.09,1795.17 C1550.62,1795.17 1552.6,1794.21 1554.02,1792.29 C1554.52,1791.61 1554.92,1790.5 1555.23,1788.95 C1555.54,1786.91 1555.69,1783.97 1555.69,1780.14 L1555.69,1778.93 C1555.69,1769.72 1552.29,1765.11 1545.49,1765.11 C1539.49,1765.11 1536.49,1766.78 1536.49,1770.12 C1536.49,1771.23 1537.4,1772.42 1539.23,1773.69 C1541.05,1774.96 1541.96,1776.15 1541.96,1777.26 C1541.96,1779.67 1541.11,1781.74 1539.41,1783.48 C1537.71,1785.21 1535.64,1786.07 1533.2,1786.07 C1530.75,1786.07 1528.7,1785.21 1527.03,1783.48 C1525.36,1781.74 1524.52,1779.67 1524.52,1777.26 C1524.52,1772.5 1526.59,1768.69 1530.74,1765.85 C1534.88,1763 1539.8,1761.58 1545.49,1761.58 C1552.97,1761.58 1559.13,1763.02 1563.95,1765.9 C1568.78,1768.77 1571.19,1773.12 1571.19,1778.93 C1571.19,1783.07 1570.75,1786.29 1569.89,1788.58 C1569.02,1790.87 1568.03,1792.26 1566.92,1792.75 C1565.81,1793.25 1564.82,1793.82 1563.95,1794.47 C1563.09,1795.12 1562.65,1796.06 1562.65,1797.3"/>
<path class="FiguredBass" d="M1550.78,1870.86 C1546.2,1870.86 1543.15,1872.7 1541.64,1876.38 C1540.12,1880.06 1539.37,1885.27 1539.37,1892.01 L1539.37,1902.96 C1542.58,1901.66 1545.37,1900.98 1547.72,1900.92 C1555.76,1900.92 1562.08,1902.69 1566.69,1906.25 C1571.3,1909.81 1573.6,1915.09 1573.6,1922.11 C1573.6,1929.13 1571.26,1934.44 1566.6,1938.03 C1561.93,1941.61 1555.63,1943.41 1547.72,1943.41 C1539.61,1943.41 1533.27,1939.65 1528.7,1932.13 C1524.12,1924.62 1521.83,1915.7 1521.83,1905.37 C1521.83,1895.1 1524.49,1886.2 1529.81,1878.65 C1535.13,1871.1 1542.12,1867.33 1550.78,1867.33 C1556.47,1867.33 1561.38,1868.77 1565.53,1871.65 C1569.67,1874.52 1571.74,1878.31 1571.74,1883.01 C1571.74,1885.73 1570.75,1888.08 1568.78,1890.06 C1566.8,1892.04 1564.43,1893.03 1561.68,1893.03 C1558.93,1893.03 1556.56,1892.04 1554.58,1890.06 C1552.6,1888.08 1551.61,1885.73 1551.61,1883.01 C1551.61,1880.35 1552.6,1878 1554.58,1875.96 C1555.26,1875.16 1556.22,1874.48 1557.46,1873.92 C1557.15,1873.11 1556.53,1872.5 1555.6,1872.06 C1554.24,1871.26 1552.63,1870.86 1550.78,1870.86 M1555.32,1908.8 C1554.21,1905.89 1551.77,1904.44 1547.99,1904.44 C1544.22,1904.44 1541.89,1905.89 1540.99,1908.8 C1540.09,1911.71 1539.64,1916.13 1539.64,1922.07 C1539.64,1929.06 1540.09,1933.76 1540.99,1936.17 C1541.89,1938.58 1544.22,1939.79 1547.99,1939.79 C1551.77,1939.79 1554.21,1938.33 1555.32,1935.43 C1556.44,1932.52 1556.99,1928.08 1556.99,1922.11 C1556.99,1916.15 1556.44,1911.71 1555.32,1908.8"/>
<path class="FiguredBass" d="M2889.64,1797.3 C2889.64,1798.29 2890.2,1799.25 2891.31,1800.18 C2892.42,1801.1 2893.64,1801.98 2894.97,1802.82 C2896.3,1803.65 2897.52,1805.23 2898.64,1807.55 C2899.75,1809.87 2900.31,1812.79 2900.31,1816.32 C2900.31,1823.12 2897.74,1828.38 2892.61,1832.09 C2887.47,1835.8 2880.98,1837.66 2873.13,1837.66 C2866.82,1837.66 2861.33,1836.08 2856.66,1832.92 C2851.99,1829.77 2849.65,1825.63 2849.65,1820.49 C2849.65,1817.77 2850.64,1815.41 2852.62,1813.4 C2854.6,1811.39 2856.97,1810.38 2859.72,1810.38 C2862.47,1810.38 2864.81,1811.37 2866.72,1813.35 C2868.64,1815.33 2869.6,1817.71 2869.6,1820.49 C2869.6,1821.73 2868.58,1823.08 2866.54,1824.53 C2864.5,1825.98 2863.48,1827.33 2863.48,1828.56 C2863.48,1830.48 2864.42,1831.89 2866.31,1832.79 C2868.19,1833.68 2870.47,1834.13 2873.13,1834.13 C2876.59,1834.13 2879.05,1832.41 2880.5,1828.98 C2881.95,1825.55 2882.68,1821.33 2882.68,1816.32 L2882.68,1813.91 C2882.68,1810.57 2882.57,1808.03 2882.36,1806.3 C2882.14,1804.57 2881.46,1803.02 2880.32,1801.66 C2879.17,1800.3 2877.42,1799.62 2875.07,1799.62 L2862.92,1799.62 C2861.5,1799.62 2860.79,1798.85 2860.79,1797.3 C2860.79,1795.88 2861.5,1795.17 2862.92,1795.17 L2875.07,1795.17 C2877.61,1795.17 2879.59,1794.21 2881.01,1792.29 C2881.51,1791.61 2881.91,1790.5 2882.22,1788.95 C2882.53,1786.91 2882.68,1783.97 2882.68,1780.14 L2882.68,1778.93 C2882.68,1769.72 2879.28,1765.11 2872.48,1765.11 C2866.48,1765.11 2863.48,1766.78 2863.48,1770.12 C2863.48,1771.23 2864.39,1772.42 2866.21,1773.69 C2868.04,1774.96 2868.95,1776.15 2868.95,1777.26 C2868.95,1779.67 2868.1,1781.74 2866.4,1783.48 C2864.7,1785.21 2862.63,1786.07 2860.18,1786.07 C2857.74,1786.07 2855.68,1785.21 2854.01,1783.48 C2852.34,1781.74 2851.51,1779.67 2851.51,1777.26 C2851.51,1772.5 2853.58,1768.69 2857.72,1765.85 C2861.87,1763 2866.79,1761.58 2872.48,1761.58 C2879.96,1761.58 2886.11,1763.02 2890.94,1765.9 C2895.76,1768.77 2898.17,1773.12 2898.17,1778.93 C2898.17,1783.07 2897.74,1786.29 2896.88,1788.58 C2896.01,1790.87 2895.02,1792.26 2893.91,1792.75 C2892.79,1793.25 2891.8,1793.82 2890.94,1794.47 C2890.07,1795.12 2889.64,1796.06 2889.64,1797.3"/>
<path class="FiguredBass" d="M2877.76,1870.86 C2873.19,1870.86 2870.14,1872.7 2868.63,1876.38 C2867.11,1880.06 2866.35,1885.27 2866.35,1892.01 L2866.35,1902.96 C2869.57,1901.66 2872.35,1900.98 2874.7,1900.92 C2882.74,1900.92 2889.07,1902.69 2893.67,1906.25 C2898.28,1909.81 2900.59,1915.09 2900.59,1922.11 C2900.59,1929.13 2898.25,1934.44 2893.58,1938.03 C2888.91,1941.61 2882.62,1943.41 2874.7,1943.41 C2866.6,1943.41 2860.26,1939.65 2855.68,1932.13 C2851.11,1924.62 2848.82,1915.7 2848.82,1905.37 C2848.82,1895.1 2851.48,1886.2 2856.8,1878.65 C2862.12,1871.1 2869.11,1867.33 2877.76,1867.33 C2883.45,1867.33 2888.37,1868.77 2892.51,1871.65 C2896.66,1874.52 2898.73,1878.31 2898.73,1883.01 C2898.73,1885.73 2897.74,1888.08 2895.76,1890.06 C2893.78,1892.04 2891.42,1893.03 2888.66,1893.03 C2885.91,1893.03 2883.55,1892.04 2881.57,1890.06 C2879.59,1888.08 2878.6,1885.73 2878.6,1883.01 C2878.6,1880.35 2879.59,1878 2881.57,1875.96 C2882.25,1875.16 2883.21,1874.48 2884.44,1873.92 C2884.13,1873.11 2883.52,1872.5 2882.59,1872.06 C2881.23,1871.26 2879.62,1870.86 2877.76,1870.86 M2882.31,1908.8 C2881.2,1905.89 2878.75,1904.44 2874.98,1904.44 C2871.21,1904.44 2868.87,1905.89 2867.98,1908.8 C2867.08,1911.71 2866.63,1916.13 2866.63,1922.07 C2866.63,1929.06 2867.08,1933.76 2867.98,1936.17 C2868.87,1938.58 2871.21,1939.79 2874.98,1939.79 C2878.75,1939.79 2881.2,1938.33 2882.31,1935.43 C2883.42,1932.52 2883.98,1928.08 2883.98,1922.11 C2883.98,1916.15 2883.42,1911.71 2882.31,1908.8"/>
<path class="FiguredBass" d="M3809.5,1797.3 C3809.5,1798.29 3810.06,1799.25 3811.17,1800.18 C3812.28,1801.1 3813.5,1801.98 3814.83,1802.82 C3816.16,1803.65 3817.38,1805.23 3818.5,1807.55 C3819.61,1809.87 3820.17,1812.79 3820.17,1816.32 C3820.17,1823.12 3817.6,1828.38 3812.47,1832.09 C3807.33,1835.8 3800.84,1837.66 3792.99,1837.66 C3786.68,1837.66 3781.19,1836.08 3776.52,1832.92 C3771.85,1829.77 3769.51,1825.63 3769.51,1820.49 C3769.51,1817.77 3770.5,1815.41 3772.48,1813.4 C3774.46,1811.39 3776.83,1810.38 3779.58,1810.38 C3782.33,1810.38 3784.67,1811.37 3786.58,1813.35 C3788.5,1815.33 3789.46,1817.71 3789.46,1820.49 C3789.46,1821.73 3788.44,1823.08 3786.4,1824.53 C3784.36,1825.98 3783.34,1827.33 3783.34,1828.56 C3783.34,1830.48 3784.28,1831.89 3786.17,1832.79 C3788.05,1833.68 3790.33,1834.13 3792.99,1834.13 C3796.45,1834.13 3798.91,1832.41 3800.36,1828.98 C3801.81,1825.55 3802.54,1821.33 3802.54,1816.32 L3802.54,1813.91 C3802.54,1810.57 3802.43,1808.03 3802.22,1806.3 C3802,1804.57 3801.32,1803.02 3800.17,1801.66 C3799.03,1800.3 3797.28,1799.62 3794.93,1799.62 L3782.78,1799.62 C3781.36,1799.62 3780.65,1798.85 3780.65,1797.3 C3780.65,1795.88 3781.36,1795.17 3782.78,1795.17 L3794.93,1795.17 C3797.47,1795.17 3799.45,1794.21 3800.87,1792.29 C3801.37,1791.61 3801.77,1790.5 3802.08,1788.95 C3802.39,1786.91 3802.54,1783.97 3802.54,1780.14 L3802.54,1778.93 C3802.54,1769.72 3799.14,1765.11 3792.34,1765.11 C3786.34,1765.11 3783.34,1766.78 3783.34,1770.12 C3783.34,1771.23 3784.25,1772.42 3786.07,1773.69 C3787.9,1774.96 3788.81,1776.15 3788.81,1777.26 C3788.81,1779.67 3787.96,1781.74 3786.26,1783.48 C3784.56,1785.21 3782.49,1786.07 3780.04,1786.07 C3777.6,1786.07 3775.54,1785.21 3773.87,1783.48 C3772.2,1781.74 3771.37,1779.67 3771.37,1777.26 C3771.37,1772.5 3773.44,1768.69 3777.58,1765.85 C3781.73,1763 3786.65,1761.58 3792.34,1761.58 C3799.82,1761.58 3805.97,1763.02 3810.8,1765.9 C3815.62,1768.77 3818.03,1773.12 3818.03,1778.93 C3818.03,1783.07 3817.6,1786.29 3816.74,1788.58 C3815.87,1790.87 3814.88,1792.26 3813.77,1792.75 C3812.65,1793.25 3811.66,1793.82 3810.8,1794.47 C3809.93,1795.12 3809.5,1796.06 3809.5,1797.3"/>
<path class="FiguredBass" d="M3797.62,1870.86 C3793.05,1870.86 3790,1872.7 3788.49,1876.38 C3786.97,1880.06 3786.21,1885.27 3786.21,1892.01 L3786.21,1902.96 C3789.43,1901.66 3792.21,1900.98 3794.56,1900.92 C3802.6,1900.92 3808.93,1902.69 3813.53,1906.25 C3818.14,1909.81 3820.45,1915.09 3820.45,1922.11 C3820.45,1929.13 3818.11,1934.44 3813.44,1938.03 C3808.77,1941.61 3802.48,1943.41 3794.56,1943.41 C3786.46,1943.41 3780.12,1939.65 3775.54,1932.13 C3770.97,1924.62 3768.68,1915.7 3768.68,1905.37 C3768.68,1895.1 3771.34,1886.2 3776.66,1878.65 C3781.98,1871.1 3788.96,1867.33 3797.62,1867.33 C3803.31,1867.33 3808.23,1868.77 3812.37,1871.65 C3816.52,1874.52 3818.59,1878.31 3818.59,1883.01 C3818.59,1885.73 3817.6,1888.08 3815.62,1890.06 C3813.64,1892.04 3811.28,1893.03 3808.52,1893.03 C3805.77,1893.03 3803.41,1892.04 3801.43,1890.06 C3799.45,1888.08 3798.46,1885.73 3798.46,1883.01 C3798.46,1880.35 3799.45,1878 3801.43,1875.96 C3802.11,1875.16 3803.07,1874.48 3804.3,1873.92 C3803.99,1873.11 3803.38,1872.5 3802.45,1872.06 C3801.09,1871.26 3799.48,1870.86 3797.62,1870.86 M3802.17,1908.8 C3801.06,1905.89 3798.61,1904.44 3794.84,1904.44 C3791.07,1904.44 3788.73,1905.89 3787.84,1908.8 C3786.94,1911.71 3786.49,1916.13 3786.49,1922.07 C3786.49,1929.06 3786.94,1933.76 3787.84,1936.17 C3788.73,1938.58 3791.07,1939.79 3794.84,1939.79 C3798.61,1939.79 3801.06,1938.33 3802.17,1935.43 C3803.28,1932.52 3803.84,1928.08 3803.84,1922.11 C3803.84,1916.15 3803.28,1911.71 3802.17,1908.8"/>
<polyline class="FretDiagram" stroke="#fc0107" stroke-width="11.91" stroke-linejoin="bevel" points="1447.16,227.452 1660.27,227.452"/>
<polyline class="FretDiagram" stroke="#fc0107" stroke-width="4.76" stroke-linejoin="bevel" points="1449.54,227.452 1449.54,441.751"/>
<polyline class="FretDiagram" stroke="#fc0107" stroke-width="4.76" stroke-linejoin="bevel" points="1491.21,227.452 1491.21,441.751"/>
<polyline class="FretDiagram" stroke="#fc0107" stroke-width="4.76" stroke-linejoin="bevel" points="1532.88,227.452 1532.88,441.751"/>
<polyline class="FretDiagram" stroke="#fc0107" stroke-width="4.76" stroke-linejoin="bevel" points="1574.55,227.452 1574.55,441.751"/>
<polyline class="FretDiagram" stroke="#fc0107" stroke-width="4.76" stroke-linejoin="bevel" points="1616.22,227.452 1616.22,441.751"/>
<polyline class="FretDiagram" stroke="#fc0107" stroke-width="4.76" stroke-linejoin="bevel" points="1657.89,227.452 1657.89,441.751"/>
<polyline class="FretDiagram" stroke="#fc0107" stroke-width="4.76" stroke-linejoin="bevel" points="1449.54,275.074 1657.89,275.074"/>
<polyline class="FretDiagram" stroke="#fc0107" stroke-width="4.76" stroke-linejoin="bevel" points="1449.54,322.696 1657.89,322.696"/>
<polyline class="FretDiagram" stroke="#fc0107" stroke-width="4.76" stroke-linejoin="bevel" points="1449.54,370.318 1657.89,370.318"/>
<polyline class="FretDiagram" stroke="#fc0107" stroke-width="4.76" stroke-linejoin="bevel" points="1449.54,417.94 1657.89,417.94"/>
<path class="FretDiagram" fill="#fc0107" fill-rule="evenodd" d="M1547.46,251.263 C1547.46,259.318 1540.93,265.847 1532.88,265.847 C1524.82,265.847 1518.29,259.318 1518.29,251.263 C1518.29,243.208 1524.82,236.679 1532.88,236.679 C1540.93,236.679 1547.46,243.208 1547.46,251.263"/>
<polyline class="FretDiagram" fill="none" stroke="#fc0107" stroke-width="6.86" stroke-linecap="round" stroke-linejoin="bevel" points="1432.87,163.162 1466.21,196.498"/>
<polyline class="FretDiagram" fill="none" stroke="#fc0107" stroke-width="6.86" stroke-linecap="round" stroke-linejoin="bevel" points="1432.87,196.498 1466.21,163.162"/>
<polyline class="FretDiagram" fill="none" stroke="#fc0107" stroke-width="6.86" stroke-linecap="round" stroke-linejoin="bevel" points="1474.54,163.162 1507.88,196.498"/>
<polyline class="FretDiagram" fill="none" stroke="#fc0107" stroke-width="6.86" stroke-linecap="round" stroke-linejoin="bevel" points="1474.54,196.498 1507.88,163.162"/>
<path class="FretDiagram" fill="none" stroke="#fc0107" stroke-width="6.86" stroke-linecap="round" stroke-linejoin="bevel" fill-rule="evenodd" d="M1591.21,179.83 C1591.21,189.035 1583.75,196.498 1574.55,196.498 C1565.34,196.498 1557.88,189.035 1557.88,179.83 C1557.88,170.625 1565.34,163.162 1574.55,163.162 C1583.75,163.162 1591.21,170.625 1591.21,179.83"/>
<path class="FretDiagram" fill="none" stroke="#fc0107" stroke-width="6.86" stroke-linecap="round" stroke-linejoin="bevel" fill-rule="evenodd" d="M1632.88,179.83 C1632.88,189.035 1625.42,196.498 1616.22,196.498 C1607.01,196.498 1599.55,189.035 1599.55,179.83 C1599.55,170.625 1607.01,163.162 1616.22,163.162 C1625.42,163.162 1632.88,170.625 1632.88,179.83"/>
<polyline class="FretDiagram" fill="none" stroke="#fc0107" stroke-width="6.86" stroke-linecap="round" stroke-linejoin="bevel" points="1641.22,163.162 1674.55,196.498"/>
<polyline class="FretDiagram" fill="none" stroke="#fc0107" stroke-width="6.86" stroke-linecap="round" stroke-linejoin="bevel" points="1641.22,196.498 1674.55,163.162"/>
<polyline class="FretDiagram" fill="#fc0107" stroke="#fc0107" stroke-width="11.91" stroke-linejoin="bevel" points="3694,227.452 3907.11,227.452"/>
<polyline class="FretDiagram" fill="#fc0107" stroke="#fc0107" stroke-width="4.76" stroke-linejoin="bevel" points="3696.39,227.452 3696.39,441.751"/>
<polyline class="FretDiagram" fill="#fc0107" stroke="#fc0107" stroke-width="4.76" stroke-linejoin="bevel" points="3738.05,227.452 3738.05,441.751"/>
<polyline class="FretDiagram" fill="#fc0107" stroke="#fc0107" stroke-width="4.76" stroke-linejoin="bevel" points="3779.72,227.452 3779.72,441.751"/>
<polyline class="FretDiagram" fill="#fc0107" stroke="#fc0107" stroke-width="4.76" stroke-linejoin="bevel" points="3821.39,227.452 3821.39,441.751"/>
<polyline class="FretDiagram" fill="#fc0107" stroke="#fc0107" stroke-width="4.76" stroke-linejoin="bevel" points="3863.06,227.452 3863.06,441.751"/>
<polyline class="FretDiagram" fill="#fc0107" stroke="#fc0107" stroke-width="4.76" stroke-linejoin="bevel" points="3904.73,227.452 3904.73,441.751"/>
<polyline class="FretDiagram" fill="#fc0107" stroke="#fc0107" stroke-width="4.76" stroke-linejoin="bevel" points="3696.39,275.074 3904.73,275.074"/>
<polyline class="FretDiagram" fill="#fc0107" stroke="#fc0107" stroke-width="4.76" stroke-linejoin="bevel" points="3696.39,322.696 3904.73,322.696"/>
<polyline class="FretDiagram" fill="#fc0107" stroke="#fc0107" stroke-width="4.76" stroke-linejoin="bevel" points="3696.39,370.318 3904.73,370.318"/>
<polyline class="FretDiagram" fill="#fc0107" stroke="#fc0107" stroke-width="4.76" stroke-linejoin="bevel" points="3696.39,417.94 3904.73,417.94"/>
<polyline class="FretDiagram" fill="none" stroke="#fc0107" stroke-width="6.86" stroke-linecap="round" stroke-linejoin="bevel" points="3679.72,163.162 3713.05,196.498"/>
<polyline class="FretDiagram" fill="none" stroke="#fc0107" stroke-width="6.86" stroke-linecap="round" stroke-linejoin="bevel" points="3679.72,196.498 3713.05,163.162"/>
<polyline class="FretDiagram" fill="none" stroke="#fc0107" stroke-width="6.86" stroke-linecap="round" stroke-linejoin="bevel" points="3721.39,163.162 3754.72,196.498"/>
<polyline class="FretDiagram" fill="none" stroke="#fc0107" stroke-width="6.86" stroke-linecap="round" stroke-linejoin="bevel" points="3721.39,196.498 3754.72,163.162"/>
<path class="FretDiagram" fill="none" stroke="#fc0107" stroke-width="6.86" stroke-linecap="round" stroke-linejoin="bevel" fill-rule="evenodd" d="M3796.39,179.83 C3796.39,189.035 3788.93,196.498 3779.72,196.498 C3770.52,196.498 3763.06,189.035 3763.06,179.83 C3763.06,170.625 3770.52,163.162 3779.72,163.162 C3788.93,163.162 3796.39,170.625 3796.39,179.83"/>
<path class="FretDiagram" fill="none" stroke="#fc0107" stroke-width="6.86" stroke-linecap="round" stroke-linejoin="bevel" fill-rule="evenodd" d="M3838.06,179.83 C3838.06,189.035 3830.6,196.498 3821.39,196.498 C3812.19,196.498 3804.73,189.035 3804.73,179.83 C3804.73,170.625 3812.19,163.162 3821.39,163.162 C3830.6,163.162 3838.06,170.625 3838.06,179.83"/>
<path class="FretDiagram" fill="none" stroke="#fc0107" stroke-width="6.86" stroke-linecap="round" stroke-linejoin="bevel" fill-rule="evenodd" d="M3879.73,179.83 C3879.73,189.035 3872.27,196.498 3863.06,196.498 C3853.86,196.498 3846.39,189.035 3846.39,179.83 C3846.39,170.625 3853.86,163.162 3863.06,163.162 C3872.27,163.162 3879.73,170.625 3879.73,179.83"/>
<polyline class="FretDiagram" fill="none" stroke="#fc0107" stroke-width="6.86" stroke-linecap="round" stroke-linejoin="bevel" points="3888.06,163.162 3921.4,196.498"/>
<polyline class="FretDiagram" fill="none" stroke="#fc0107" stroke-width="6.86" stroke-linecap="round" stroke-linejoin="bevel" points="3888.06,196.498 3921.4,163.162"/>
<path class="Bracket" transform="matrix(8.6315,0,0,8.6315,76.1283,2254.96)" d="M0.92002,-50 C2.69004,-51.88 6.2,-55.8 6.2,-63 C6.2,-72.1 2.25996,-81.32 2.25996,-86.97 C2.25996,-93.06 5.84004,-98.84 5.95,-99 C6.05996,-99.16 6.05,-99.39 5.94004,-99.46 C5.82998,-99.53 5.62002,-99.47 5.49004,-99.32 C5.35996,-99.17 0,-93.75 0,-85.6 C0,-76.75 3.5,-70.58 3.5,-59.07 C3.5,-56.89 2.55996,-53.36 0.1,-50.33 C-0.0799805,-50.17 -0.1,-49.89 0.0599609,-49.7 L0.0700195,-49.69 L0.1,-49.66 C2.55996,-46.63 3.5,-43.1 3.5,-40.92 C3.5,-29.4 0,-23.24 0,-14.39 C0,-6.25 5.35996,-0.8 5.49004,-0.659961 C5.62002,-0.52002 5.8,-0.42998 5.94004,-0.52002 C6.07998,-0.609961 6.07998,-0.77998 5.95,-0.97998 C5.82002,-1.17998 2.25996,-6.92002 2.25996,-13.01 C2.25996,-18.66 6.2,-27.9 6.2,-37 C6.2,-44.3 2.69004,-48.12 0.92002,-50"/>
</svg>
