<?xml version="1.0" encoding="UTF-8" standalone="no"?>
<svg width="4209.44px" height="2976.38px" viewBox="0 0 4209.44 2976.38"
 xmlns="http://www.w3.org/2000/svg" xmlns:xlink="http://www.w3.org/1999/xlink" version="1.2" baseProfile="tiny">
<title>MiMineur (9)</title>
<desc>Generated by MuseScore 3.6.2</desc>
<polyline class="StaffLines" fill="none" stroke="#000000" stroke-width="6.55" stroke-linejoin="bevel" points="153.819,558.425 4138.58,558.425"/>
<polyline class="StaffLines" fill="none" stroke="#000000" stroke-width="6.55" stroke-linejoin="bevel" points="153.819,647.717 4138.58,647.717"/>
<polyline class="StaffLines" fill="none" stroke="#000000" stroke-width="6.55" stroke-linejoin="bevel" points="153.819,737.008 4138.58,737.008"/>
<polyline class="StaffLines" fill="none" stroke="#000000" stroke-width="6.55" stroke-linejoin="bevel" points="153.819,826.299 4138.58,826.299"/>
<polyline class="StaffLines" fill="none" stroke="#000000" stroke-width="6.55" stroke-linejoin="bevel" points="153.819,915.591 4138.58,915.591"/>
<polyline class="StaffLines" fill="none" stroke="#000000" stroke-width="6.55" stroke-linejoin="bevel" points="153.819,1004.88 4138.58,1004.88"/>
<polyline class="StaffLines" fill="none" stroke="#000000" stroke-width="6.55" stroke-linejoin="bevel" points="153.819,1391.81 4138.58,1391.81"/>
<polyline class="StaffLines" fill="none" stroke="#000000" stroke-width="6.55" stroke-linejoin="bevel" points="153.819,1451.34 4138.58,1451.34"/>
<polyline class="StaffLines" fill="none" stroke="#000000" stroke-width="6.55" stroke-linejoin="bevel" points="153.819,1510.87 4138.58,1510.87"/>
<polyline class="StaffLines" fill="none" stroke="#000000" stroke-width="6.55" stroke-linejoin="bevel" points="153.819,1570.39 4138.58,1570.39"/>
<polyline class="StaffLines" fill="none" stroke="#000000" stroke-width="6.55" stroke-linejoin="bevel" points="153.819,1629.92 4138.58,1629.92"/>
<polyline class="StaffLines" fill="none" stroke="#000000" stroke-width="6.55" stroke-linejoin="bevel" points="153.819,2099.26 4138.58,2099.26"/>
<polyline class="StaffLines" fill="none" stroke="#000000" stroke-width="6.55" stroke-linejoin="bevel" points="153.819,2158.79 4138.58,2158.79"/>
<polyline class="StaffLines" fill="none" stroke="#000000" stroke-width="6.55" stroke-linejoin="bevel" points="153.819,2218.32 4138.58,2218.32"/>
<polyline class="StaffLines" fill="none" stroke="#000000" stroke-width="6.55" stroke-linejoin="bevel" points="153.819,2277.85 4138.58,2277.85"/>
<polyline class="StaffLines" fill="none" stroke="#000000" stroke-width="6.55" stroke-linejoin="bevel" points="153.819,2337.37 4138.58,2337.37"/>
<path class="Symbol" transform="matrix(2.3811,0,0,2.3811,1738.93,2277.85)" d="M0,-0.1 C0,7.7 4,14 10.4,18.1 L10.9,17.4 C7.5,14.8 6.3,13.3 5.2,10.1 C4.2,7.2 3.7,4 3.7,-0.2 C3.7,-8.1 4.8,-12.3 10.9,-17.4 L10.5,-18.1 C3.9,-13.6 0,-8.5 0,-0.1"/>
<path class="Symbol" transform="matrix(2.3811,0,0,2.3811,1853.69,2277.85)" d="M3.7,-0.2 C3.7,4 3.2,7.2 2.2,10.1 C1,13.3 -0.2,14.8 -3.6,17.4 L-3,18.1 C3.4,14.1 7.3,7.6 7.3,-0.1 C7.3,-8.4 3.4,-13.8 -3.2,-18.1 L-3.6,-17.4 C2.6,-12.4 3.7,-8.1 3.7,-0.2"/>
<path class="Symbol" transform="matrix(2.3811,0,0,2.3811,1738.93,1510.87)" d="M0,-0.1 C0,7.7 4,14 10.4,18.1 L10.9,17.4 C7.5,14.8 6.3,13.3 5.2,10.1 C4.2,7.2 3.7,4 3.7,-0.2 C3.7,-8.1 4.8,-12.3 10.9,-17.4 L10.5,-18.1 C3.9,-13.6 0,-8.5 0,-0.1"/>
<path class="Symbol" transform="matrix(2.3811,0,0,2.3811,1853.69,1510.87)" d="M3.7,-0.2 C3.7,4 3.2,7.2 2.2,10.1 C1,13.3 -0.2,14.8 -3.6,17.4 L-3,18.1 C3.4,14.1 7.3,7.6 7.3,-0.1 C7.3,-8.4 3.4,-13.8 -3.2,-18.1 L-3.6,-17.4 C2.6,-12.4 3.7,-8.1 3.7,-0.2"/>
<path class="Symbol" transform="matrix(2.3811,0,0,2.3811,1749.77,975.118)" d="M0,-0.1 C0,7.7 4,14 10.4,18.1 L10.9,17.4 C7.5,14.8 6.3,13.3 5.2,10.1 C4.2,7.2 3.7,4 3.7,-0.2 C3.7,-8.1 4.8,-12.3 10.9,-17.4 L10.5,-18.1 C3.9,-13.6 0,-8.5 0,-0.1"/>
<path class="Symbol" transform="matrix(2.3811,0,0,2.3811,1854.78,975.118)" d="M3.7,-0.2 C3.7,4 3.2,7.2 2.2,10.1 C1,13.3 -0.2,14.8 -3.6,17.4 L-3,18.1 C3.4,14.1 7.3,7.6 7.3,-0.1 C7.3,-8.4 3.4,-13.8 -3.2,-18.1 L-3.6,-17.4 C2.6,-12.4 3.7,-8.1 3.7,-0.2"/>
<path class="Symbol" transform="matrix(2.3811,0,0,2.3811,1749.77,617.953)" d="M0,-0.1 C0,7.7 4,14 10.4,18.1 L10.9,17.4 C7.5,14.8 6.3,13.3 5.2,10.1 C4.2,7.2 3.7,4 3.7,-0.2 C3.7,-8.1 4.8,-12.3 10.9,-17.4 L10.5,-18.1 C3.9,-13.6 0,-8.5 0,-0.1"/>
<path class="Symbol" transform="matrix(2.3811,0,0,2.3811,1854.78,617.953)" d="M3.7,-0.2 C3.7,4 3.2,7.2 2.2,10.1 C1,13.3 -0.2,14.8 -3.6,17.4 L-3,18.1 C3.4,14.1 7.3,7.6 7.3,-0.1 C7.3,-8.4 3.4,-13.8 -3.2,-18.1 L-3.6,-17.4 C2.6,-12.4 3.7,-8.1 3.7,-0.2"/>
<path class="Symbol" transform="matrix(2.3811,0,0,2.3811,1749.77,796.536)" d="M0,-0.1 C0,7.7 4,14 10.4,18.1 L10.9,17.4 C7.5,14.8 6.3,13.3 5.2,10.1 C4.2,7.2 3.7,4 3.7,-0.2 C3.7,-8.1 4.8,-12.3 10.9,-17.4 L10.5,-18.1 C3.9,-13.6 0,-8.5 0,-0.1"/>
<path class="Symbol" transform="matrix(2.3811,0,0,2.3811,1854.78,796.536)" d="M3.7,-0.2 C3.7,4 3.2,7.2 2.2,10.1 C1,13.3 -0.2,14.8 -3.6,17.4 L-3,18.1 C3.4,14.1 7.3,7.6 7.3,-0.1 C7.3,-8.4 3.4,-13.8 -3.2,-18.1 L-3.6,-17.4 C2.6,-12.4 3.7,-8.1 3.7,-0.2"/>
<polyline class="BarLine" fill="none" stroke="#000000" stroke-width="10.71" stroke-linejoin="bevel" points="159.176,2095.99 159.176,2340.65"/>
<polyline class="BarLine" fill="none" stroke="#000000" stroke-width="10.71" stroke-linejoin="bevel" points="1084.24,2095.99 1084.24,2340.65"/>
<polyline class="BarLine" fill="none" stroke="#000000" stroke-width="10.71" stroke-linejoin="bevel" points="1656.19,2095.99 1656.19,2340.65"/>
<polyline class="BarLine" fill="none" stroke="#000000" stroke-width="10.71" stroke-linejoin="bevel" points="2227.71,2095.99 2227.71,2340.65"/>
<polyline class="BarLine" fill="none" stroke="#000000" stroke-width="10.71" stroke-linejoin="bevel" points="2856.71,2095.99 2856.71,2340.65"/>
<polyline class="BarLine" fill="none" stroke="#000000" stroke-width="10.71" stroke-linejoin="bevel" points="3544.53,2095.99 3544.53,2340.65"/>
<polyline class="BarLine" fill="none" stroke="#000000" stroke-width="10.71" stroke-linejoin="bevel" points="4080.54,2095.99 4080.54,2340.65"/>
<polyline class="BarLine" fill="none" stroke="#000000" stroke-width="32.74" stroke-linejoin="bevel" points="4122.21,2095.99 4122.21,2340.65"/>
<polyline class="BarLine" fill="none" stroke="#000000" stroke-width="10.71" stroke-linejoin="bevel" points="159.176,1388.54 159.176,2099.26"/>
<polyline class="BarLine" fill="none" stroke="#000000" stroke-width="10.71" stroke-linejoin="bevel" points="1084.24,1388.54 1084.24,1633.2"/>
<polyline class="BarLine" fill="none" stroke="#000000" stroke-width="10.71" stroke-linejoin="bevel" points="1656.19,1388.54 1656.19,1633.2"/>
<polyline class="BarLine" fill="none" stroke="#000000" stroke-width="10.71" stroke-linejoin="bevel" points="2227.71,1388.54 2227.71,1633.2"/>
<polyline class="BarLine" fill="none" stroke="#000000" stroke-width="10.71" stroke-linejoin="bevel" points="2856.71,1388.54 2856.71,1633.2"/>
<polyline class="BarLine" fill="none" stroke="#000000" stroke-width="10.71" stroke-linejoin="bevel" points="3544.53,1388.54 3544.53,1633.2"/>
<polyline class="BarLine" fill="none" stroke="#000000" stroke-width="10.71" stroke-linejoin="bevel" points="4080.54,1388.54 4080.54,1633.2"/>
<polyline class="BarLine" fill="none" stroke="#000000" stroke-width="32.74" stroke-linejoin="bevel" points="4122.21,1388.54 4122.21,1633.2"/>
<polyline class="BarLine" fill="none" stroke="#000000" stroke-width="10.71" stroke-linejoin="bevel" points="159.176,555.151 159.176,1391.81"/>
<polyline class="BarLine" fill="none" stroke="#000000" stroke-width="10.71" stroke-linejoin="bevel" points="1084.24,555.151 1084.24,1008.16"/>
<polyline class="BarLine" fill="none" stroke="#000000" stroke-width="10.71" stroke-linejoin="bevel" points="1656.19,555.151 1656.19,1008.16"/>
<polyline class="BarLine" fill="none" stroke="#000000" stroke-width="10.71" stroke-linejoin="bevel" points="2227.71,555.151 2227.71,1008.16"/>
<polyline class="BarLine" fill="none" stroke="#000000" stroke-width="10.71" stroke-linejoin="bevel" points="2856.71,555.151 2856.71,1008.16"/>
<polyline class="BarLine" fill="none" stroke="#000000" stroke-width="10.71" stroke-linejoin="bevel" points="3544.53,555.151 3544.53,1008.16"/>
<polyline class="BarLine" fill="none" stroke="#000000" stroke-width="10.71" stroke-linejoin="bevel" points="4080.54,555.151 4080.54,1008.16"/>
<polyline class="BarLine" fill="none" stroke="#000000" stroke-width="32.74" stroke-linejoin="bevel" points="4122.21,555.151 4122.21,1008.16"/>
<path class="Accidental" transform="matrix(2.3811,0,0,2.3811,1135.67,1659.69)" d="M23.3,-10.6 C23.9,-10.7 24.4,-11.4 24.4,-12 L24.4,-17.9 C24.4,-18.7 23.8,-19.3 23,-19.3 L22.8,-19.3 L19.5,-18.6 L19.5,-33.5 L16.7,-33.5 L16.7,-18 L7.8,-16.2 L7.8,-30.3 L5,-30.3 L5,-15.6 L1.1,-14.8 C0.5,-14.7 0,-14 0,-13.4 L0,-13.2 L0,-7.4 L0,-7.6 C0,-6.8 0.6,-6.2 1.4,-6.2 L1.7,-6.2 L5,-6.9 L5,9.6 L1.1,10.4 C0.5,10.5 0,11.2 0,11.8 L0,17.6 C0,18.4 0.6,19 1.4,19 L1.7,19 L5,18.3 L5,33.2 L7.8,33.2 L7.8,17.7 L16.7,15.9 L16.7,30 L19.5,30 L19.5,15.3 L23.3,14.6 C23.9,14.5 24.4,13.8 24.4,13.2 L24.4,7.3 C24.4,6.5 23.8,5.9 23,5.9 L22.8,5.9 L19.5,6.6 L19.5,-9.9 L23.3,-10.6 M7.8,9.1 L7.8,-7.5 L16.7,-9.3 L16.7,7.2 L7.8,9.1 "/>
<path class="Accidental" transform="matrix(2.3811,0,0,2.3811,2913.86,1659.69)" d="M23.3,-10.6 C23.9,-10.7 24.4,-11.4 24.4,-12 L24.4,-17.9 C24.4,-18.7 23.8,-19.3 23,-19.3 L22.8,-19.3 L19.5,-18.6 L19.5,-33.5 L16.7,-33.5 L16.7,-18 L7.8,-16.2 L7.8,-30.3 L5,-30.3 L5,-15.6 L1.1,-14.8 C0.5,-14.7 0,-14 0,-13.4 L0,-13.2 L0,-7.4 L0,-7.6 C0,-6.8 0.6,-6.2 1.4,-6.2 L1.7,-6.2 L5,-6.9 L5,9.6 L1.1,10.4 C0.5,10.5 0,11.2 0,11.8 L0,17.6 C0,18.4 0.6,19 1.4,19 L1.7,19 L5,18.3 L5,33.2 L7.8,33.2 L7.8,17.7 L16.7,15.9 L16.7,30 L19.5,30 L19.5,15.3 L23.3,14.6 C23.9,14.5 24.4,13.8 24.4,13.2 L24.4,7.3 C24.4,6.5 23.8,5.9 23,5.9 L22.8,5.9 L19.5,6.6 L19.5,-9.9 L23.3,-10.6 M7.8,9.1 L7.8,-7.5 L16.7,-9.3 L16.7,7.2 L7.8,9.1 "/>
<polyline class="Stem" fill="none" stroke="#000000" stroke-width="6.55" stroke-linejoin="bevel" points="3060.93,1652.07 3060.93,1324.84"/>
<polyline class="Stem" fill="none" stroke="#000000" stroke-width="6.55" stroke-linejoin="bevel" points="3337.1,1533.01 3337.1,1347.17"/>
<path class="Note" transform="matrix(2.3811,0,0,2.3811,636.699,2188.56)" d="M18.7,-13.6 C4.9,-13.6 0,-6.6 0,-0.1 C0,6.4 4.9,13.4 18.7,13.4 C32.5,13.4 37.3,6.4 37.3,-0.1 C37.3,-6.6 32.5,-13.6 18.7,-13.6 M10.4,-4.5 C10.3,-4.9 10.3,-5.3 10.3,-5.7 C10.3,-6.5 10.5,-7.3 10.9,-8 C11.6,-9 12.8,-9.7 14.3,-10 C15.6,-10.3 16.3,-10.5 18.9,-10.5 L19,-10.5 C23,-10.5 24.3,-6.8 25.4,-3 L25.7,-2 C26.5,0.6 26.9,2.8 26.9,4.5 C26.9,5.7 26.7,6.8 26.3,7.6 C25.7,8.7 24.7,9.4 23,9.8 C22.1,10 20.6,10.1 20.6,10.1 C20.1,10.1 19.7,10.2 19.3,10.2 C16.1,10.2 14.1,9 12.7,4.7 C11.5,1 11.3,-0.1 10.4,-4.5"/>
<path class="Note" transform="matrix(2.3811,0,0,2.3811,1208.64,2277.85)" d="M18.7,-13.6 C4.9,-13.6 0,-6.6 0,-0.1 C0,6.4 4.9,13.4 18.7,13.4 C32.5,13.4 37.3,6.4 37.3,-0.1 C37.3,-6.6 32.5,-13.6 18.7,-13.6 M10.4,-4.5 C10.3,-4.9 10.3,-5.3 10.3,-5.7 C10.3,-6.5 10.5,-7.3 10.9,-8 C11.6,-9 12.8,-9.7 14.3,-10 C15.6,-10.3 16.3,-10.5 18.9,-10.5 L19,-10.5 C23,-10.5 24.3,-6.8 25.4,-3 L25.7,-2 C26.5,0.6 26.9,2.8 26.9,4.5 C26.9,5.7 26.7,6.8 26.3,7.6 C25.7,8.7 24.7,9.4 23,9.8 C22.1,10 20.6,10.1 20.6,10.1 C20.1,10.1 19.7,10.2 19.3,10.2 C16.1,10.2 14.1,9 12.7,4.7 C11.5,1 11.3,-0.1 10.4,-4.5"/>
<path class="Note" transform="matrix(2.3811,0,0,2.3811,1764.88,2277.85)" d="M18.7,-13.6 C4.9,-13.6 0,-6.6 0,-0.1 C0,6.4 4.9,13.4 18.7,13.4 C32.5,13.4 37.3,6.4 37.3,-0.1 C37.3,-6.6 32.5,-13.6 18.7,-13.6 M10.4,-4.5 C10.3,-4.9 10.3,-5.3 10.3,-5.7 C10.3,-6.5 10.5,-7.3 10.9,-8 C11.6,-9 12.8,-9.7 14.3,-10 C15.6,-10.3 16.3,-10.5 18.9,-10.5 L19,-10.5 C23,-10.5 24.3,-6.8 25.4,-3 L25.7,-2 C26.5,0.6 26.9,2.8 26.9,4.5 C26.9,5.7 26.7,6.8 26.3,7.6 C25.7,8.7 24.7,9.4 23,9.8 C22.1,10 20.6,10.1 20.6,10.1 C20.1,10.1 19.7,10.2 19.3,10.2 C16.1,10.2 14.1,9 12.7,4.7 C11.5,1 11.3,-0.1 10.4,-4.5"/>
<path class="Note" transform="matrix(2.3811,0,0,2.3811,2310.46,2277.85)" d="M18.7,-13.6 C4.9,-13.6 0,-6.6 0,-0.1 C0,6.4 4.9,13.4 18.7,13.4 C32.5,13.4 37.3,6.4 37.3,-0.1 C37.3,-6.6 32.5,-13.6 18.7,-13.6 M10.4,-4.5 C10.3,-4.9 10.3,-5.3 10.3,-5.7 C10.3,-6.5 10.5,-7.3 10.9,-8 C11.6,-9 12.8,-9.7 14.3,-10 C15.6,-10.3 16.3,-10.5 18.9,-10.5 L19,-10.5 C23,-10.5 24.3,-6.8 25.4,-3 L25.7,-2 C26.5,0.6 26.9,2.8 26.9,4.5 C26.9,5.7 26.7,6.8 26.3,7.6 C25.7,8.7 24.7,9.4 23,9.8 C22.1,10 20.6,10.1 20.6,10.1 C20.1,10.1 19.7,10.2 19.3,10.2 C16.1,10.2 14.1,9 12.7,4.7 C11.5,1 11.3,-0.1 10.4,-4.5"/>
<path class="Note" transform="matrix(2.3811,0,0,2.3811,2981.11,2277.85)" d="M18.7,-13.6 C4.9,-13.6 0,-6.6 0,-0.1 C0,6.4 4.9,13.4 18.7,13.4 C32.5,13.4 37.3,6.4 37.3,-0.1 C37.3,-6.6 32.5,-13.6 18.7,-13.6 M10.4,-4.5 C10.3,-4.9 10.3,-5.3 10.3,-5.7 C10.3,-6.5 10.5,-7.3 10.9,-8 C11.6,-9 12.8,-9.7 14.3,-10 C15.6,-10.3 16.3,-10.5 18.9,-10.5 L19,-10.5 C23,-10.5 24.3,-6.8 25.4,-3 L25.7,-2 C26.5,0.6 26.9,2.8 26.9,4.5 C26.9,5.7 26.7,6.8 26.3,7.6 C25.7,8.7 24.7,9.4 23,9.8 C22.1,10 20.6,10.1 20.6,10.1 C20.1,10.1 19.7,10.2 19.3,10.2 C16.1,10.2 14.1,9 12.7,4.7 C11.5,1 11.3,-0.1 10.4,-4.5"/>
<path class="Note" transform="matrix(2.3811,0,0,2.3811,3633,2188.56)" d="M18.7,-13.6 C4.9,-13.6 0,-6.6 0,-0.1 C0,6.4 4.9,13.4 18.7,13.4 C32.5,13.4 37.3,6.4 37.3,-0.1 C37.3,-6.6 32.5,-13.6 18.7,-13.6 M10.4,-4.5 C10.3,-4.9 10.3,-5.3 10.3,-5.7 C10.3,-6.5 10.5,-7.3 10.9,-8 C11.6,-9 12.8,-9.7 14.3,-10 C15.6,-10.3 16.3,-10.5 18.9,-10.5 L19,-10.5 C23,-10.5 24.3,-6.8 25.4,-3 L25.7,-2 C26.5,0.6 26.9,2.8 26.9,4.5 C26.9,5.7 26.7,6.8 26.3,7.6 C25.7,8.7 24.7,9.4 23,9.8 C22.1,10 20.6,10.1 20.6,10.1 C20.1,10.1 19.7,10.2 19.3,10.2 C16.1,10.2 14.1,9 12.7,4.7 C11.5,1 11.3,-0.1 10.4,-4.5"/>
<path class="Note" transform="matrix(2.3811,0,0,2.3811,636.699,1629.92)" d="M18.7,-13.6 C4.9,-13.6 0,-6.6 0,-0.1 C0,6.4 4.9,13.4 18.7,13.4 C32.5,13.4 37.3,6.4 37.3,-0.1 C37.3,-6.6 32.5,-13.6 18.7,-13.6 M10.4,-4.5 C10.3,-4.9 10.3,-5.3 10.3,-5.7 C10.3,-6.5 10.5,-7.3 10.9,-8 C11.6,-9 12.8,-9.7 14.3,-10 C15.6,-10.3 16.3,-10.5 18.9,-10.5 L19,-10.5 C23,-10.5 24.3,-6.8 25.4,-3 L25.7,-2 C26.5,0.6 26.9,2.8 26.9,4.5 C26.9,5.7 26.7,6.8 26.3,7.6 C25.7,8.7 24.7,9.4 23,9.8 C22.1,10 20.6,10.1 20.6,10.1 C20.1,10.1 19.7,10.2 19.3,10.2 C16.1,10.2 14.1,9 12.7,4.7 C11.5,1 11.3,-0.1 10.4,-4.5"/>
<path class="Note" transform="matrix(2.3811,0,0,2.3811,636.699,1570.39)" d="M18.7,-13.6 C4.9,-13.6 0,-6.6 0,-0.1 C0,6.4 4.9,13.4 18.7,13.4 C32.5,13.4 37.3,6.4 37.3,-0.1 C37.3,-6.6 32.5,-13.6 18.7,-13.6 M10.4,-4.5 C10.3,-4.9 10.3,-5.3 10.3,-5.7 C10.3,-6.5 10.5,-7.3 10.9,-8 C11.6,-9 12.8,-9.7 14.3,-10 C15.6,-10.3 16.3,-10.5 18.9,-10.5 L19,-10.5 C23,-10.5 24.3,-6.8 25.4,-3 L25.7,-2 C26.5,0.6 26.9,2.8 26.9,4.5 C26.9,5.7 26.7,6.8 26.3,7.6 C25.7,8.7 24.7,9.4 23,9.8 C22.1,10 20.6,10.1 20.6,10.1 C20.1,10.1 19.7,10.2 19.3,10.2 C16.1,10.2 14.1,9 12.7,4.7 C11.5,1 11.3,-0.1 10.4,-4.5"/>
<path class="Note" transform="matrix(2.3811,0,0,2.3811,636.699,1510.87)" d="M18.7,-13.6 C4.9,-13.6 0,-6.6 0,-0.1 C0,6.4 4.9,13.4 18.7,13.4 C32.5,13.4 37.3,6.4 37.3,-0.1 C37.3,-6.6 32.5,-13.6 18.7,-13.6 M10.4,-4.5 C10.3,-4.9 10.3,-5.3 10.3,-5.7 C10.3,-6.5 10.5,-7.3 10.9,-8 C11.6,-9 12.8,-9.7 14.3,-10 C15.6,-10.3 16.3,-10.5 18.9,-10.5 L19,-10.5 C23,-10.5 24.3,-6.8 25.4,-3 L25.7,-2 C26.5,0.6 26.9,2.8 26.9,4.5 C26.9,5.7 26.7,6.8 26.3,7.6 C25.7,8.7 24.7,9.4 23,9.8 C22.1,10 20.6,10.1 20.6,10.1 C20.1,10.1 19.7,10.2 19.3,10.2 C16.1,10.2 14.1,9 12.7,4.7 C11.5,1 11.3,-0.1 10.4,-4.5"/>
<path class="Note" transform="matrix(2.3811,0,0,2.3811,1208.64,1659.69)" d="M18.7,-13.6 C4.9,-13.6 0,-6.6 0,-0.1 C0,6.4 4.9,13.4 18.7,13.4 C32.5,13.4 37.3,6.4 37.3,-0.1 C37.3,-6.6 32.5,-13.6 18.7,-13.6 M10.4,-4.5 C10.3,-4.9 10.3,-5.3 10.3,-5.7 C10.3,-6.5 10.5,-7.3 10.9,-8 C11.6,-9 12.8,-9.7 14.3,-10 C15.6,-10.3 16.3,-10.5 18.9,-10.5 L19,-10.5 C23,-10.5 24.3,-6.8 25.4,-3 L25.7,-2 C26.5,0.6 26.9,2.8 26.9,4.5 C26.9,5.7 26.7,6.8 26.3,7.6 C25.7,8.7 24.7,9.4 23,9.8 C22.1,10 20.6,10.1 20.6,10.1 C20.1,10.1 19.7,10.2 19.3,10.2 C16.1,10.2 14.1,9 12.7,4.7 C11.5,1 11.3,-0.1 10.4,-4.5"/>
<path class="Note" transform="matrix(2.3811,0,0,2.3811,1208.64,1600.16)" d="M18.7,-13.6 C4.9,-13.6 0,-6.6 0,-0.1 C0,6.4 4.9,13.4 18.7,13.4 C32.5,13.4 37.3,6.4 37.3,-0.1 C37.3,-6.6 32.5,-13.6 18.7,-13.6 M10.4,-4.5 C10.3,-4.9 10.3,-5.3 10.3,-5.7 C10.3,-6.5 10.5,-7.3 10.9,-8 C11.6,-9 12.8,-9.7 14.3,-10 C15.6,-10.3 16.3,-10.5 18.9,-10.5 L19,-10.5 C23,-10.5 24.3,-6.8 25.4,-3 L25.7,-2 C26.5,0.6 26.9,2.8 26.9,4.5 C26.9,5.7 26.7,6.8 26.3,7.6 C25.7,8.7 24.7,9.4 23,9.8 C22.1,10 20.6,10.1 20.6,10.1 C20.1,10.1 19.7,10.2 19.3,10.2 C16.1,10.2 14.1,9 12.7,4.7 C11.5,1 11.3,-0.1 10.4,-4.5"/>
<path class="Note" transform="matrix(2.3811,0,0,2.3811,1208.64,1510.87)" d="M18.7,-13.6 C4.9,-13.6 0,-6.6 0,-0.1 C0,6.4 4.9,13.4 18.7,13.4 C32.5,13.4 37.3,6.4 37.3,-0.1 C37.3,-6.6 32.5,-13.6 18.7,-13.6 M10.4,-4.5 C10.3,-4.9 10.3,-5.3 10.3,-5.7 C10.3,-6.5 10.5,-7.3 10.9,-8 C11.6,-9 12.8,-9.7 14.3,-10 C15.6,-10.3 16.3,-10.5 18.9,-10.5 L19,-10.5 C23,-10.5 24.3,-6.8 25.4,-3 L25.7,-2 C26.5,0.6 26.9,2.8 26.9,4.5 C26.9,5.7 26.7,6.8 26.3,7.6 C25.7,8.7 24.7,9.4 23,9.8 C22.1,10 20.6,10.1 20.6,10.1 C20.1,10.1 19.7,10.2 19.3,10.2 C16.1,10.2 14.1,9 12.7,4.7 C11.5,1 11.3,-0.1 10.4,-4.5"/>
<path class="Note" transform="matrix(2.3811,0,0,2.3811,1764.88,1629.92)" d="M18.7,-13.6 C4.9,-13.6 0,-6.6 0,-0.1 C0,6.4 4.9,13.4 18.7,13.4 C32.5,13.4 37.3,6.4 37.3,-0.1 C37.3,-6.6 32.5,-13.6 18.7,-13.6 M10.4,-4.5 C10.3,-4.9 10.3,-5.3 10.3,-5.7 C10.3,-6.5 10.5,-7.3 10.9,-8 C11.6,-9 12.8,-9.7 14.3,-10 C15.6,-10.3 16.3,-10.5 18.9,-10.5 L19,-10.5 C23,-10.5 24.3,-6.8 25.4,-3 L25.7,-2 C26.5,0.6 26.9,2.8 26.9,4.5 C26.9,5.7 26.7,6.8 26.3,7.6 C25.7,8.7 24.7,9.4 23,9.8 C22.1,10 20.6,10.1 20.6,10.1 C20.1,10.1 19.7,10.2 19.3,10.2 C16.1,10.2 14.1,9 12.7,4.7 C11.5,1 11.3,-0.1 10.4,-4.5"/>
<path class="Note" transform="matrix(2.3811,0,0,2.3811,1764.88,1570.39)" d="M18.7,-13.6 C4.9,-13.6 0,-6.6 0,-0.1 C0,6.4 4.9,13.4 18.7,13.4 C32.5,13.4 37.3,6.4 37.3,-0.1 C37.3,-6.6 32.5,-13.6 18.7,-13.6 M10.4,-4.5 C10.3,-4.9 10.3,-5.3 10.3,-5.7 C10.3,-6.5 10.5,-7.3 10.9,-8 C11.6,-9 12.8,-9.7 14.3,-10 C15.6,-10.3 16.3,-10.5 18.9,-10.5 L19,-10.5 C23,-10.5 24.3,-6.8 25.4,-3 L25.7,-2 C26.5,0.6 26.9,2.8 26.9,4.5 C26.9,5.7 26.7,6.8 26.3,7.6 C25.7,8.7 24.7,9.4 23,9.8 C22.1,10 20.6,10.1 20.6,10.1 C20.1,10.1 19.7,10.2 19.3,10.2 C16.1,10.2 14.1,9 12.7,4.7 C11.5,1 11.3,-0.1 10.4,-4.5"/>
<path class="Note" transform="matrix(2.3811,0,0,2.3811,1764.88,1510.87)" d="M18.7,-13.6 C4.9,-13.6 0,-6.6 0,-0.1 C0,6.4 4.9,13.4 18.7,13.4 C32.5,13.4 37.3,6.4 37.3,-0.1 C37.3,-6.6 32.5,-13.6 18.7,-13.6 M10.4,-4.5 C10.3,-4.9 10.3,-5.3 10.3,-5.7 C10.3,-6.5 10.5,-7.3 10.9,-8 C11.6,-9 12.8,-9.7 14.3,-10 C15.6,-10.3 16.3,-10.5 18.9,-10.5 L19,-10.5 C23,-10.5 24.3,-6.8 25.4,-3 L25.7,-2 C26.5,0.6 26.9,2.8 26.9,4.5 C26.9,5.7 26.7,6.8 26.3,7.6 C25.7,8.7 24.7,9.4 23,9.8 C22.1,10 20.6,10.1 20.6,10.1 C20.1,10.1 19.7,10.2 19.3,10.2 C16.1,10.2 14.1,9 12.7,4.7 C11.5,1 11.3,-0.1 10.4,-4.5"/>
<path class="Note" transform="matrix(2.3811,0,0,2.3811,2310.46,1629.92)" d="M18.7,-13.6 C4.9,-13.6 0,-6.6 0,-0.1 C0,6.4 4.9,13.4 18.7,13.4 C32.5,13.4 37.3,6.4 37.3,-0.1 C37.3,-6.6 32.5,-13.6 18.7,-13.6 M10.4,-4.5 C10.3,-4.9 10.3,-5.3 10.3,-5.7 C10.3,-6.5 10.5,-7.3 10.9,-8 C11.6,-9 12.8,-9.7 14.3,-10 C15.6,-10.3 16.3,-10.5 18.9,-10.5 L19,-10.5 C23,-10.5 24.3,-6.8 25.4,-3 L25.7,-2 C26.5,0.6 26.9,2.8 26.9,4.5 C26.9,5.7 26.7,6.8 26.3,7.6 C25.7,8.7 24.7,9.4 23,9.8 C22.1,10 20.6,10.1 20.6,10.1 C20.1,10.1 19.7,10.2 19.3,10.2 C16.1,10.2 14.1,9 12.7,4.7 C11.5,1 11.3,-0.1 10.4,-4.5"/>
<path class="Note" transform="matrix(2.3811,0,0,2.3811,2392.72,1600.16)" d="M18.7,-13.6 C4.9,-13.6 0,-6.6 0,-0.1 C0,6.4 4.9,13.4 18.7,13.4 C32.5,13.4 37.3,6.4 37.3,-0.1 C37.3,-6.6 32.5,-13.6 18.7,-13.6 M10.4,-4.5 C10.3,-4.9 10.3,-5.3 10.3,-5.7 C10.3,-6.5 10.5,-7.3 10.9,-8 C11.6,-9 12.8,-9.7 14.3,-10 C15.6,-10.3 16.3,-10.5 18.9,-10.5 L19,-10.5 C23,-10.5 24.3,-6.8 25.4,-3 L25.7,-2 C26.5,0.6 26.9,2.8 26.9,4.5 C26.9,5.7 26.7,6.8 26.3,7.6 C25.7,8.7 24.7,9.4 23,9.8 C22.1,10 20.6,10.1 20.6,10.1 C20.1,10.1 19.7,10.2 19.3,10.2 C16.1,10.2 14.1,9 12.7,4.7 C11.5,1 11.3,-0.1 10.4,-4.5"/>
<path class="Note" transform="matrix(2.3811,0,0,2.3811,2310.46,1510.87)" d="M18.7,-13.6 C4.9,-13.6 0,-6.6 0,-0.1 C0,6.4 4.9,13.4 18.7,13.4 C32.5,13.4 37.3,6.4 37.3,-0.1 C37.3,-6.6 32.5,-13.6 18.7,-13.6 M10.4,-4.5 C10.3,-4.9 10.3,-5.3 10.3,-5.7 C10.3,-6.5 10.5,-7.3 10.9,-8 C11.6,-9 12.8,-9.7 14.3,-10 C15.6,-10.3 16.3,-10.5 18.9,-10.5 L19,-10.5 C23,-10.5 24.3,-6.8 25.4,-3 L25.7,-2 C26.5,0.6 26.9,2.8 26.9,4.5 C26.9,5.7 26.7,6.8 26.3,7.6 C25.7,8.7 24.7,9.4 23,9.8 C22.1,10 20.6,10.1 20.6,10.1 C20.1,10.1 19.7,10.2 19.3,10.2 C16.1,10.2 14.1,9 12.7,4.7 C11.5,1 11.3,-0.1 10.4,-4.5"/>
<path class="Note" transform="matrix(2.3811,0,0,2.3811,2986.83,1659.69)" d="M31.5,-8.1 C29.7,-11.4 25.9,-13.2 21.3,-13.2 C17.9,-13.2 14.2,-12.2 10.6,-10.3 C4,-6.8 0,-0.9 0,4.2 C0,5.6 0.3,7 1,8.3 C2.8,11.6 6.6,13.3 11.2,13.3 C14.6,13.3 18.3,12.4 21.9,10.5 C28.5,7 32.5,1.1 32.5,-4 C32.5,-5.4 32.2,-6.8 31.5,-8.1 M27.2,-1.3 C25.5,0.4 22.1,2.5 18.5,4.5 C14.9,6.5 11.3,8 8.9,8.5 C8.4,8.6 7.9,8.7 7.4,8.7 C5.8,8.7 4.6,8.1 3.9,6.8 C3.6,6.3 3.4,5.7 3.4,5.1 C3.4,4 4.1,2.7 5.2,1.6 C6.9,-0.1 10.2,-2.2 13.8,-4.2 C17.4,-6.2 21,-7.7 23.4,-8.2 C23.9,-8.3 24.4,-8.4 24.9,-8.4 C26.5,-8.4 27.8,-7.8 28.5,-6.5 C28.8,-6 28.9,-5.4 28.9,-4.8 C28.9,-3.7 28.3,-2.5 27.2,-1.3"/>
<path class="Note" transform="matrix(2.3811,0,0,2.3811,2986.83,1600.16)" d="M31.5,-8.1 C29.7,-11.4 25.9,-13.2 21.3,-13.2 C17.9,-13.2 14.2,-12.2 10.6,-10.3 C4,-6.8 0,-0.9 0,4.2 C0,5.6 0.3,7 1,8.3 C2.8,11.6 6.6,13.3 11.2,13.3 C14.6,13.3 18.3,12.4 21.9,10.5 C28.5,7 32.5,1.1 32.5,-4 C32.5,-5.4 32.2,-6.8 31.5,-8.1 M27.2,-1.3 C25.5,0.4 22.1,2.5 18.5,4.5 C14.9,6.5 11.3,8 8.9,8.5 C8.4,8.6 7.9,8.7 7.4,8.7 C5.8,8.7 4.6,8.1 3.9,6.8 C3.6,6.3 3.4,5.7 3.4,5.1 C3.4,4 4.1,2.7 5.2,1.6 C6.9,-0.1 10.2,-2.2 13.8,-4.2 C17.4,-6.2 21,-7.7 23.4,-8.2 C23.9,-8.3 24.4,-8.4 24.9,-8.4 C26.5,-8.4 27.8,-7.8 28.5,-6.5 C28.8,-6 28.9,-5.4 28.9,-4.8 C28.9,-3.7 28.3,-2.5 27.2,-1.3"/>
<path class="Note" transform="matrix(2.3811,0,0,2.3811,2986.83,1510.87)" d="M31.5,-8.1 C29.7,-11.4 25.9,-13.2 21.3,-13.2 C17.9,-13.2 14.2,-12.2 10.6,-10.3 C4,-6.8 0,-0.9 0,4.2 C0,5.6 0.3,7 1,8.3 C2.8,11.6 6.6,13.3 11.2,13.3 C14.6,13.3 18.3,12.4 21.9,10.5 C28.5,7 32.5,1.1 32.5,-4 C32.5,-5.4 32.2,-6.8 31.5,-8.1 M27.2,-1.3 C25.5,0.4 22.1,2.5 18.5,4.5 C14.9,6.5 11.3,8 8.9,8.5 C8.4,8.6 7.9,8.7 7.4,8.7 C5.8,8.7 4.6,8.1 3.9,6.8 C3.6,6.3 3.4,5.7 3.4,5.1 C3.4,4 4.1,2.7 5.2,1.6 C6.9,-0.1 10.2,-2.2 13.8,-4.2 C17.4,-6.2 21,-7.7 23.4,-8.2 C23.9,-8.3 24.4,-8.4 24.9,-8.4 C26.5,-8.4 27.8,-7.8 28.5,-6.5 C28.8,-6 28.9,-5.4 28.9,-4.8 C28.9,-3.7 28.3,-2.5 27.2,-1.3"/>
<path class="Note" transform="matrix(2.3811,0,0,2.3811,3263,1540.63)" d="M31.5,-8.1 C29.7,-11.4 25.9,-13.2 21.3,-13.2 C17.9,-13.2 14.2,-12.2 10.6,-10.3 C4,-6.8 0,-0.9 0,4.2 C0,5.6 0.3,7 1,8.3 C2.8,11.6 6.6,13.3 11.2,13.3 C14.6,13.3 18.3,12.4 21.9,10.5 C28.5,7 32.5,1.1 32.5,-4 C32.5,-5.4 32.2,-6.8 31.5,-8.1 M27.2,-1.3 C25.5,0.4 22.1,2.5 18.5,4.5 C14.9,6.5 11.3,8 8.9,8.5 C8.4,8.6 7.9,8.7 7.4,8.7 C5.8,8.7 4.6,8.1 3.9,6.8 C3.6,6.3 3.4,5.7 3.4,5.1 C3.4,4 4.1,2.7 5.2,1.6 C6.9,-0.1 10.2,-2.2 13.8,-4.2 C17.4,-6.2 21,-7.7 23.4,-8.2 C23.9,-8.3 24.4,-8.4 24.9,-8.4 C26.5,-8.4 27.8,-7.8 28.5,-6.5 C28.8,-6 28.9,-5.4 28.9,-4.8 C28.9,-3.7 28.3,-2.5 27.2,-1.3"/>
<path class="Note" transform="matrix(2.3811,0,0,2.3811,3633,1629.92)" d="M18.7,-13.6 C4.9,-13.6 0,-6.6 0,-0.1 C0,6.4 4.9,13.4 18.7,13.4 C32.5,13.4 37.3,6.4 37.3,-0.1 C37.3,-6.6 32.5,-13.6 18.7,-13.6 M10.4,-4.5 C10.3,-4.9 10.3,-5.3 10.3,-5.7 C10.3,-6.5 10.5,-7.3 10.9,-8 C11.6,-9 12.8,-9.7 14.3,-10 C15.6,-10.3 16.3,-10.5 18.9,-10.5 L19,-10.5 C23,-10.5 24.3,-6.8 25.4,-3 L25.7,-2 C26.5,0.6 26.9,2.8 26.9,4.5 C26.9,5.7 26.7,6.8 26.3,7.6 C25.7,8.7 24.7,9.4 23,9.8 C22.1,10 20.6,10.1 20.6,10.1 C20.1,10.1 19.7,10.2 19.3,10.2 C16.1,10.2 14.1,9 12.7,4.7 C11.5,1 11.3,-0.1 10.4,-4.5"/>
<path class="Note" transform="matrix(2.3811,0,0,2.3811,3633,1570.39)" d="M18.7,-13.6 C4.9,-13.6 0,-6.6 0,-0.1 C0,6.4 4.9,13.4 18.7,13.4 C32.5,13.4 37.3,6.4 37.3,-0.1 C37.3,-6.6 32.5,-13.6 18.7,-13.6 M10.4,-4.5 C10.3,-4.9 10.3,-5.3 10.3,-5.7 C10.3,-6.5 10.5,-7.3 10.9,-8 C11.6,-9 12.8,-9.7 14.3,-10 C15.6,-10.3 16.3,-10.5 18.9,-10.5 L19,-10.5 C23,-10.5 24.3,-6.8 25.4,-3 L25.7,-2 C26.5,0.6 26.9,2.8 26.9,4.5 C26.9,5.7 26.7,6.8 26.3,7.6 C25.7,8.7 24.7,9.4 23,9.8 C22.1,10 20.6,10.1 20.6,10.1 C20.1,10.1 19.7,10.2 19.3,10.2 C16.1,10.2 14.1,9 12.7,4.7 C11.5,1 11.3,-0.1 10.4,-4.5"/>
<path class="Note" transform="matrix(2.3811,0,0,2.3811,3633,1510.87)" d="M18.7,-13.6 C4.9,-13.6 0,-6.6 0,-0.1 C0,6.4 4.9,13.4 18.7,13.4 C32.5,13.4 37.3,6.4 37.3,-0.1 C37.3,-6.6 32.5,-13.6 18.7,-13.6 M10.4,-4.5 C10.3,-4.9 10.3,-5.3 10.3,-5.7 C10.3,-6.5 10.5,-7.3 10.9,-8 C11.6,-9 12.8,-9.7 14.3,-10 C15.6,-10.3 16.3,-10.5 18.9,-10.5 L19,-10.5 C23,-10.5 24.3,-6.8 25.4,-3 L25.7,-2 C26.5,0.6 26.9,2.8 26.9,4.5 C26.9,5.7 26.7,6.8 26.3,7.6 C25.7,8.7 24.7,9.4 23,9.8 C22.1,10 20.6,10.1 20.6,10.1 C20.1,10.1 19.7,10.2 19.3,10.2 C16.1,10.2 14.1,9 12.7,4.7 C11.5,1 11.3,-0.1 10.4,-4.5"/>
<path class="Note" d="M715.518,583.965 C720.089,583.965 722.375,586.831 722.375,592.564 C722.375,596.593 719.857,602.597 714.821,610.577 C710.792,617.007 708.778,623.283 708.778,629.403 C708.778,632.889 713.852,634.633 724.002,634.633 C732.369,634.633 744.029,630.1 758.981,621.036 C743.951,635.524 730.897,642.767 719.818,642.767 C709.824,642.767 702.851,641.257 698.9,638.235 C697.893,637.46 697.041,636.531 696.343,635.446 C692.47,640.172 686.001,642.535 676.936,642.535 C668.259,642.535 661.596,640.753 656.948,637.189 C653.849,634.788 652.299,630.953 652.299,625.684 C652.299,617.317 657.258,608.175 667.174,598.259 C677.788,587.645 690.068,582.338 704.013,582.338 C707.5,582.338 710.056,583.616 711.683,586.173 C713,584.701 714.279,583.965 715.518,583.965 M694.716,630.217 C694.639,629.597 694.6,628.977 694.6,628.357 C694.6,628.047 698.551,617.24 706.454,595.934 C707.228,593.843 708.003,592.061 708.778,590.589 C705.756,589.969 702.774,589.659 699.83,589.659 C694.406,589.659 687.201,594.269 678.214,603.488 C670.157,611.7 666.129,618.789 666.129,624.755 C666.129,631.34 669.266,634.633 675.542,634.633 C683.134,634.633 689.526,633.161 694.716,630.217"/>
<path class="Note" d="M671.242,910.409 C667.446,910.409 665.547,906.342 665.547,898.207 L665.547,864.157 C665.547,860.903 667.136,859.276 670.312,859.276 C671.707,859.276 672.753,859.392 673.45,859.625 C675.929,855.286 679.996,851.645 685.652,848.701 C693.554,844.595 701.573,842.542 709.708,842.542 C716.138,842.542 719.353,844.943 719.353,849.747 C719.353,853.776 717.184,855.79 712.845,855.79 C709.746,855.79 706.802,855.093 704.013,853.698 C701.534,852.458 698.9,851.839 696.111,851.839 C691.308,851.839 684.219,854.976 674.844,861.252 C676.161,867.527 676.82,874.848 676.82,883.216 C676.82,901.345 674.961,910.409 671.242,910.409"/>
<path class="Note" d="M715.518,762.547 C720.089,762.547 722.375,765.414 722.375,771.147 C722.375,775.176 719.857,781.18 714.821,789.16 C710.792,795.59 708.778,801.865 708.778,807.986 C708.778,811.472 713.852,813.215 724.002,813.215 C732.369,813.215 744.029,808.683 758.981,799.619 C743.951,814.106 730.897,821.35 719.818,821.35 C709.824,821.35 702.851,819.839 698.9,816.818 C697.893,816.043 697.041,815.113 696.343,814.029 C692.47,818.755 686.001,821.118 676.936,821.118 C668.259,821.118 661.596,819.336 656.948,815.772 C653.849,813.37 652.299,809.535 652.299,804.267 C652.299,795.9 657.258,786.758 667.174,776.841 C677.788,766.227 690.068,760.92 704.013,760.92 C707.5,760.92 710.056,762.199 711.683,764.755 C713,763.283 714.279,762.547 715.518,762.547 M694.716,808.799 C694.639,808.179 694.6,807.56 694.6,806.94 C694.6,806.63 698.551,795.822 706.454,774.517 C707.228,772.425 708.003,770.643 708.778,769.171 C705.756,768.552 702.774,768.242 699.83,768.242 C694.406,768.242 687.201,772.851 678.214,782.071 C670.157,790.283 666.129,797.372 666.129,803.337 C666.129,809.923 669.266,813.215 675.542,813.215 C683.134,813.215 689.526,811.743 694.716,808.799"/>
<path class="Note" d="M715.518,673.256 C720.089,673.256 722.375,676.123 722.375,681.856 C722.375,685.884 719.857,691.888 714.821,699.868 C710.792,706.299 708.778,712.574 708.778,718.694 C708.778,722.181 713.852,723.924 724.002,723.924 C732.369,723.924 744.029,719.392 758.981,710.327 C743.951,724.815 730.897,732.059 719.818,732.059 C709.824,732.059 702.851,730.548 698.9,727.527 C697.893,726.752 697.041,725.822 696.343,724.737 C692.47,729.463 686.001,731.826 676.936,731.826 C668.259,731.826 661.596,730.044 656.948,726.481 C653.849,724.079 652.299,720.244 652.299,714.976 C652.299,706.609 657.258,697.467 667.174,687.55 C677.788,676.936 690.068,671.629 704.013,671.629 C707.5,671.629 710.056,672.907 711.683,675.464 C713,673.992 714.279,673.256 715.518,673.256 M694.716,719.508 C694.639,718.888 694.6,718.268 694.6,717.649 C694.6,717.339 698.551,706.531 706.454,685.226 C707.228,683.134 708.003,681.352 708.778,679.88 C705.756,679.26 702.774,678.95 699.83,678.95 C694.406,678.95 687.201,683.56 678.214,692.779 C670.157,700.992 666.129,708.081 666.129,714.046 C666.129,720.631 669.266,723.924 675.542,723.924 C683.134,723.924 689.526,722.452 694.716,719.508"/>
<path class="Note" d="M1243.19,999.7 C1239.39,999.7 1237.49,995.633 1237.49,987.498 L1237.49,953.448 C1237.49,950.194 1239.08,948.568 1242.26,948.568 C1243.65,948.568 1244.7,948.684 1245.4,948.916 C1247.87,944.578 1251.94,940.936 1257.6,937.992 C1265.5,933.886 1273.52,931.833 1281.65,931.833 C1288.08,931.833 1291.3,934.235 1291.3,939.038 C1291.3,943.067 1289.13,945.081 1284.79,945.081 C1281.69,945.081 1278.75,944.384 1275.96,942.989 C1273.48,941.75 1270.85,941.13 1268.06,941.13 C1263.25,941.13 1256.16,944.268 1246.79,950.543 C1248.11,956.818 1248.77,964.14 1248.77,972.507 C1248.77,990.636 1246.91,999.7 1243.19,999.7"/>
<path class="Note" d="M1294.55,848.933 C1305.01,842.348 1312.6,836.964 1317.33,832.78 C1326.01,825.11 1330.35,817.363 1330.35,809.538 C1330.35,800.396 1324.22,795.825 1311.98,795.825 C1299.12,795.825 1285.72,805.083 1271.77,823.599 C1262.32,836.15 1255.62,848.004 1251.67,859.16 C1256.55,855.984 1261.7,854.395 1267.13,854.395 C1272.24,854.395 1276.31,856.681 1279.33,861.252 C1281.42,864.428 1282.47,869.851 1282.47,877.521 C1282.47,884.416 1278.83,892.513 1271.54,901.809 C1267.05,907.542 1262.05,910.409 1256.55,910.409 C1249.58,910.409 1244.7,909.014 1241.91,906.225 C1237.96,902.274 1235.98,894.449 1235.98,882.751 C1235.98,863.072 1243.92,843.704 1259.81,824.645 C1277.7,803.185 1294.86,792.455 1311.29,792.455 C1323.99,792.455 1333.48,795.438 1339.76,801.403 C1343.4,804.889 1345.22,809.925 1345.22,816.511 C1345.22,823.871 1337.98,832.083 1323.49,841.147 C1315.9,845.951 1306.25,848.546 1294.55,848.933 M1250.16,864.041 C1248.22,870.549 1247.25,876.785 1247.25,882.751 C1247.25,896.929 1249.5,904.017 1253.99,904.017 C1258.26,904.017 1261.59,900.996 1263.99,894.953 C1266.78,888.135 1268.17,880.582 1268.17,872.292 C1268.17,864.932 1265.73,861.252 1260.85,861.252 C1257.44,861.252 1253.88,862.181 1250.16,864.041"/>
<path class="Note" d="M1243.19,642.535 C1239.39,642.535 1237.49,638.468 1237.49,630.333 L1237.49,596.283 C1237.49,593.029 1239.08,591.402 1242.26,591.402 C1243.65,591.402 1244.7,591.518 1245.4,591.751 C1247.87,587.412 1251.94,583.771 1257.6,580.827 C1265.5,576.721 1273.52,574.668 1281.65,574.668 C1288.08,574.668 1291.3,577.069 1291.3,581.873 C1291.3,585.902 1289.13,587.916 1284.79,587.916 C1281.69,587.916 1278.75,587.219 1275.96,585.824 C1273.48,584.584 1270.85,583.965 1268.06,583.965 C1263.25,583.965 1256.16,587.102 1246.79,593.378 C1248.11,599.653 1248.77,606.974 1248.77,615.342 C1248.77,633.471 1246.91,642.535 1243.19,642.535"/>
<path class="Note" d="M1287.46,673.256 C1292.03,673.256 1294.32,676.123 1294.32,681.856 C1294.32,685.884 1291.8,691.888 1286.77,699.868 C1282.74,706.299 1280.72,712.574 1280.72,718.694 C1280.72,722.181 1285.8,723.924 1295.95,723.924 C1304.31,723.924 1315.97,719.392 1330.93,710.327 C1315.9,724.815 1302.84,732.059 1291.76,732.059 C1281.77,732.059 1274.8,730.548 1270.85,727.527 C1269.84,726.752 1268.99,725.822 1268.29,724.737 C1264.41,729.463 1257.95,731.826 1248.88,731.826 C1240.2,731.826 1233.54,730.044 1228.89,726.481 C1225.79,724.079 1224.24,720.244 1224.24,714.976 C1224.24,706.609 1229.2,697.467 1239.12,687.55 C1249.73,676.936 1262.01,671.629 1275.96,671.629 C1279.44,671.629 1282,672.907 1283.63,675.464 C1284.95,673.992 1286.22,673.256 1287.46,673.256 M1266.66,719.508 C1266.58,718.888 1266.55,718.268 1266.55,717.649 C1266.55,717.339 1270.5,706.531 1278.4,685.226 C1279.17,683.134 1279.95,681.352 1280.72,679.88 C1277.7,679.26 1274.72,678.95 1271.77,678.95 C1266.35,678.95 1259.15,683.56 1250.16,692.779 C1242.1,700.992 1238.07,708.081 1238.07,714.046 C1238.07,720.631 1241.21,723.924 1247.49,723.924 C1255.08,723.924 1261.47,722.452 1266.66,719.508"/>
<path class="Note" d="M1799.42,999.7 C1795.63,999.7 1793.73,995.633 1793.73,987.498 L1793.73,953.448 C1793.73,950.194 1795.32,948.568 1798.49,948.568 C1799.89,948.568 1800.93,948.684 1801.63,948.916 C1804.11,944.578 1808.18,940.936 1813.83,937.992 C1821.74,933.886 1829.75,931.833 1837.89,931.833 C1844.32,931.833 1847.53,934.235 1847.53,939.038 C1847.53,943.067 1845.36,945.081 1841.03,945.081 C1837.93,945.081 1834.98,944.384 1832.19,942.989 C1829.72,941.75 1827.08,941.13 1824.29,941.13 C1819.49,941.13 1812.4,944.268 1803.03,950.543 C1804.34,956.818 1805,964.14 1805,972.507 C1805,990.636 1803.14,999.7 1799.42,999.7"/>
<path class="Note" d="M1843.7,583.965 C1848.27,583.965 1850.56,586.831 1850.56,592.564 C1850.56,596.593 1848.04,602.597 1843,610.577 C1838.97,617.007 1836.96,623.283 1836.96,629.403 C1836.96,632.889 1842.03,634.633 1852.18,634.633 C1860.55,634.633 1872.21,630.1 1887.16,621.036 C1872.13,635.524 1859.08,642.767 1848,642.767 C1838,642.767 1831.03,641.257 1827.08,638.235 C1826.07,637.46 1825.22,636.531 1824.52,635.446 C1820.65,640.172 1814.18,642.535 1805.12,642.535 C1796.44,642.535 1789.78,640.753 1785.13,637.189 C1782.03,634.788 1780.48,630.953 1780.48,625.684 C1780.48,617.317 1785.44,608.175 1795.36,598.259 C1805.97,587.645 1818.25,582.338 1832.19,582.338 C1835.68,582.338 1838.24,583.616 1839.86,586.173 C1841.18,584.701 1842.46,583.965 1843.7,583.965 M1822.9,630.217 C1822.82,629.597 1822.78,628.977 1822.78,628.357 C1822.78,628.047 1826.73,617.24 1834.63,595.934 C1835.41,593.843 1836.18,592.061 1836.96,590.589 C1833.94,589.969 1830.95,589.659 1828.01,589.659 C1822.59,589.659 1815.38,594.269 1806.4,603.488 C1798.34,611.7 1794.31,618.789 1794.31,624.755 C1794.31,631.34 1797.45,634.633 1803.72,634.633 C1811.31,634.633 1817.71,633.161 1822.9,630.217"/>
<path class="Note" d="M1843.7,762.547 C1848.27,762.547 1850.56,765.414 1850.56,771.147 C1850.56,775.176 1848.04,781.18 1843,789.16 C1838.97,795.59 1836.96,801.865 1836.96,807.986 C1836.96,811.472 1842.03,813.215 1852.18,813.215 C1860.55,813.215 1872.21,808.683 1887.16,799.619 C1872.13,814.106 1859.08,821.35 1848,821.35 C1838,821.35 1831.03,819.839 1827.08,816.818 C1826.07,816.043 1825.22,815.113 1824.52,814.029 C1820.65,818.755 1814.18,821.118 1805.12,821.118 C1796.44,821.118 1789.78,819.336 1785.13,815.772 C1782.03,813.37 1780.48,809.535 1780.48,804.267 C1780.48,795.9 1785.44,786.758 1795.36,776.841 C1805.97,766.227 1818.25,760.92 1832.19,760.92 C1835.68,760.92 1838.24,762.199 1839.86,764.755 C1841.18,763.283 1842.46,762.547 1843.7,762.547 M1822.9,808.799 C1822.82,808.179 1822.78,807.56 1822.78,806.94 C1822.78,806.63 1826.73,795.822 1834.63,774.517 C1835.41,772.425 1836.18,770.643 1836.96,769.171 C1833.94,768.552 1830.95,768.242 1828.01,768.242 C1822.59,768.242 1815.38,772.851 1806.4,782.071 C1798.34,790.283 1794.31,797.372 1794.31,803.337 C1794.31,809.923 1797.45,813.215 1803.72,813.215 C1811.31,813.215 1817.71,811.743 1822.9,808.799"/>
<path class="Note" d="M1843.7,673.256 C1848.27,673.256 1850.56,676.123 1850.56,681.856 C1850.56,685.884 1848.04,691.888 1843,699.868 C1838.97,706.299 1836.96,712.574 1836.96,718.694 C1836.96,722.181 1842.03,723.924 1852.18,723.924 C1860.55,723.924 1872.21,719.392 1887.16,710.327 C1872.13,724.815 1859.08,732.059 1848,732.059 C1838,732.059 1831.03,730.548 1827.08,727.527 C1826.07,726.752 1825.22,725.822 1824.52,724.737 C1820.65,729.463 1814.18,731.826 1805.12,731.826 C1796.44,731.826 1789.78,730.044 1785.13,726.481 C1782.03,724.079 1780.48,720.244 1780.48,714.976 C1780.48,706.609 1785.44,697.467 1795.36,687.55 C1805.97,676.936 1818.25,671.629 1832.19,671.629 C1835.68,671.629 1838.24,672.907 1839.86,675.464 C1841.18,673.992 1842.46,673.256 1843.7,673.256 M1822.9,719.508 C1822.82,718.888 1822.78,718.268 1822.78,717.649 C1822.78,717.339 1826.73,706.531 1834.63,685.226 C1835.41,683.134 1836.18,681.352 1836.96,679.88 C1833.94,679.26 1830.95,678.95 1828.01,678.95 C1822.59,678.95 1815.38,683.56 1806.4,692.779 C1798.34,700.992 1794.31,708.081 1794.31,714.046 C1794.31,720.631 1797.45,723.924 1803.72,723.924 C1811.31,723.924 1817.71,722.452 1822.9,719.508"/>
<path class="Note" d="M2345,999.7 C2341.2,999.7 2339.3,995.633 2339.3,987.498 L2339.3,953.448 C2339.3,950.194 2340.89,948.568 2344.07,948.568 C2345.46,948.568 2346.51,948.684 2347.21,948.916 C2349.69,944.578 2353.75,940.936 2359.41,937.992 C2367.31,933.886 2375.33,931.833 2383.47,931.833 C2389.9,931.833 2393.11,934.235 2393.11,939.038 C2393.11,943.067 2390.94,945.081 2386.6,945.081 C2383.5,945.081 2380.56,944.384 2377.77,942.989 C2375.29,941.75 2372.66,941.13 2369.87,941.13 C2365.06,941.13 2357.98,944.268 2348.6,950.543 C2349.92,956.818 2350.58,964.14 2350.58,972.507 C2350.58,990.636 2348.72,999.7 2345,999.7"/>
<path class="Note" d="M2345,910.409 C2341.2,910.409 2339.3,906.342 2339.3,898.207 L2339.3,864.157 C2339.3,860.903 2340.89,859.276 2344.07,859.276 C2345.46,859.276 2346.51,859.392 2347.21,859.625 C2349.69,855.286 2353.75,851.645 2359.41,848.701 C2367.31,844.595 2375.33,842.542 2383.47,842.542 C2389.9,842.542 2393.11,844.943 2393.11,849.747 C2393.11,853.776 2390.94,855.79 2386.6,855.79 C2383.5,855.79 2380.56,855.093 2377.77,853.698 C2375.29,852.458 2372.66,851.839 2369.87,851.839 C2365.06,851.839 2357.98,854.976 2348.6,861.252 C2349.92,867.527 2350.58,874.848 2350.58,883.216 C2350.58,901.345 2348.72,910.409 2345,910.409"/>
<path class="Note" d="M2345,642.535 C2341.2,642.535 2339.3,638.468 2339.3,630.333 L2339.3,596.283 C2339.3,593.029 2340.89,591.402 2344.07,591.402 C2345.46,591.402 2346.51,591.518 2347.21,591.751 C2349.69,587.412 2353.75,583.771 2359.41,580.827 C2367.31,576.721 2375.33,574.668 2383.47,574.668 C2389.9,574.668 2393.11,577.069 2393.11,581.873 C2393.11,585.902 2390.94,587.916 2386.6,587.916 C2383.5,587.916 2380.56,587.219 2377.77,585.824 C2375.29,584.584 2372.66,583.965 2369.87,583.965 C2365.06,583.965 2357.98,587.102 2348.6,593.378 C2349.92,599.653 2350.58,606.974 2350.58,615.342 C2350.58,633.471 2348.72,642.535 2345,642.535"/>
<path class="Note" d="M2389.28,673.256 C2393.85,673.256 2396.13,676.123 2396.13,681.856 C2396.13,685.884 2393.61,691.888 2388.58,699.868 C2384.55,706.299 2382.54,712.574 2382.54,718.694 C2382.54,722.181 2387.61,723.924 2397.76,723.924 C2406.13,723.924 2417.79,719.392 2432.74,710.327 C2417.71,724.815 2404.65,732.059 2393.58,732.059 C2383.58,732.059 2376.61,730.548 2372.66,727.527 C2371.65,726.752 2370.8,725.822 2370.1,724.737 C2366.23,729.463 2359.76,731.826 2350.69,731.826 C2342.02,731.826 2335.35,730.044 2330.71,726.481 C2327.61,724.079 2326.06,720.244 2326.06,714.976 C2326.06,706.609 2331.02,697.467 2340.93,687.55 C2351.55,676.936 2363.83,671.629 2377.77,671.629 C2381.26,671.629 2383.81,672.907 2385.44,675.464 C2386.76,673.992 2388.04,673.256 2389.28,673.256 M2368.47,719.508 C2368.4,718.888 2368.36,718.268 2368.36,717.649 C2368.36,717.339 2372.31,706.531 2380.21,685.226 C2380.99,683.134 2381.76,681.352 2382.54,679.88 C2379.51,679.26 2376.53,678.95 2373.59,678.95 C2368.16,678.95 2360.96,683.56 2351.97,692.779 C2343.91,700.992 2339.89,708.081 2339.89,714.046 C2339.89,720.631 2343.02,723.924 2349.3,723.924 C2356.89,723.924 2363.28,722.452 2368.47,719.508"/>
<path class="Note" d="M3015.66,999.7 C3011.86,999.7 3009.96,995.633 3009.96,987.498 L3009.96,953.448 C3009.96,950.194 3011.55,948.568 3014.73,948.568 C3016.12,948.568 3017.17,948.684 3017.86,948.916 C3020.34,944.578 3024.41,940.936 3030.07,937.992 C3037.97,933.886 3045.99,931.833 3054.12,931.833 C3060.55,931.833 3063.77,934.235 3063.77,939.038 C3063.77,943.067 3061.6,945.081 3057.26,945.081 C3054.16,945.081 3051.22,944.384 3048.43,942.989 C3045.95,941.75 3043.31,941.13 3040.53,941.13 C3035.72,941.13 3028.63,944.268 3019.26,950.543 C3020.58,956.818 3021.23,964.14 3021.23,972.507 C3021.23,990.636 3019.37,999.7 3015.66,999.7"/>
<path class="Note" d="M3067.02,848.933 C3077.48,842.348 3085.07,836.964 3089.8,832.78 C3098.48,825.11 3102.81,817.363 3102.81,809.538 C3102.81,800.396 3096.69,795.825 3084.45,795.825 C3071.59,795.825 3058.19,805.083 3044.24,823.599 C3034.79,836.15 3028.09,848.004 3024.14,859.16 C3029.02,855.984 3034.17,854.395 3039.6,854.395 C3044.71,854.395 3048.78,856.681 3051.8,861.252 C3053.89,864.428 3054.94,869.851 3054.94,877.521 C3054.94,884.416 3051.29,892.513 3044.01,901.809 C3039.52,907.542 3034.52,910.409 3029.02,910.409 C3022.05,910.409 3017.17,909.014 3014.38,906.225 C3010.43,902.274 3008.45,894.449 3008.45,882.751 C3008.45,863.072 3016.39,843.704 3032.27,824.645 C3050.17,803.185 3067.33,792.455 3083.76,792.455 C3096.46,792.455 3105.95,795.438 3112.23,801.403 C3115.87,804.889 3117.69,809.925 3117.69,816.511 C3117.69,823.871 3110.45,832.083 3095.96,841.147 C3088.37,845.951 3078.72,848.546 3067.02,848.933 M3022.63,864.041 C3020.69,870.549 3019.72,876.785 3019.72,882.751 C3019.72,896.929 3021.97,904.017 3026.46,904.017 C3030.72,904.017 3034.06,900.996 3036.46,894.953 C3039.25,888.135 3040.64,880.582 3040.64,872.292 C3040.64,864.932 3038.2,861.252 3033.32,861.252 C3029.91,861.252 3026.35,862.181 3022.63,864.041"/>
<path class="Note" d="M3015.66,642.535 C3011.86,642.535 3009.96,638.468 3009.96,630.333 L3009.96,596.283 C3009.96,593.029 3011.55,591.402 3014.73,591.402 C3016.12,591.402 3017.17,591.518 3017.86,591.751 C3020.34,587.412 3024.41,583.771 3030.07,580.827 C3037.97,576.721 3045.99,574.668 3054.12,574.668 C3060.55,574.668 3063.77,577.069 3063.77,581.873 C3063.77,585.902 3061.6,587.916 3057.26,587.916 C3054.16,587.916 3051.22,587.219 3048.43,585.824 C3045.95,584.584 3043.31,583.965 3040.53,583.965 C3035.72,583.965 3028.63,587.102 3019.26,593.378 C3020.58,599.653 3021.23,606.974 3021.23,615.342 C3021.23,633.471 3019.37,642.535 3015.66,642.535"/>
<path class="Note" d="M3059.93,673.256 C3064.5,673.256 3066.79,676.123 3066.79,681.856 C3066.79,685.884 3064.27,691.888 3059.24,699.868 C3055.21,706.299 3053.19,712.574 3053.19,718.694 C3053.19,722.181 3058.27,723.924 3068.42,723.924 C3076.78,723.924 3088.44,719.392 3103.4,710.327 C3088.37,724.815 3075.31,732.059 3064.23,732.059 C3054.24,732.059 3047.27,730.548 3043.31,727.527 C3042.31,726.752 3041.45,725.822 3040.76,724.737 C3036.88,729.463 3030.41,731.826 3021.35,731.826 C3012.67,731.826 3006.01,730.044 3001.36,726.481 C2998.26,724.079 2996.71,720.244 2996.71,714.976 C2996.71,706.609 3001.67,697.467 3011.59,687.55 C3022.2,676.936 3034.48,671.629 3048.43,671.629 C3051.91,671.629 3054.47,672.907 3056.1,675.464 C3057.41,673.992 3058.69,673.256 3059.93,673.256 M3039.13,719.508 C3039.05,718.888 3039.01,718.268 3039.01,717.649 C3039.01,717.339 3042.97,706.531 3050.87,685.226 C3051.64,683.134 3052.42,681.352 3053.19,679.88 C3050.17,679.26 3047.19,678.95 3044.24,678.95 C3038.82,678.95 3031.62,683.56 3022.63,692.779 C3014.57,700.992 3010.54,708.081 3010.54,714.046 C3010.54,720.631 3013.68,723.924 3019.96,723.924 C3027.55,723.924 3033.94,722.452 3039.13,719.508"/>
<path class="Note" d="M3336.1,494.673 C3340.67,494.673 3342.96,497.54 3342.96,503.273 C3342.96,507.302 3340.44,513.306 3335.41,521.286 C3331.38,527.716 3329.36,533.991 3329.36,540.112 C3329.36,543.598 3334.44,545.341 3344.59,545.341 C3352.95,545.341 3364.61,540.809 3379.57,531.745 C3364.54,546.232 3351.48,553.476 3340.4,553.476 C3330.41,553.476 3323.44,551.965 3319.49,548.944 C3318.48,548.169 3317.63,547.239 3316.93,546.155 C3313.06,550.881 3306.59,553.244 3297.52,553.244 C3288.84,553.244 3282.18,551.462 3277.53,547.898 C3274.43,545.496 3272.88,541.661 3272.88,536.393 C3272.88,528.026 3277.84,518.884 3287.76,508.967 C3298.37,498.353 3310.65,493.046 3324.6,493.046 C3328.09,493.046 3330.64,494.325 3332.27,496.881 C3333.59,495.409 3334.86,494.673 3336.1,494.673 M3315.3,540.925 C3315.22,540.305 3315.19,539.686 3315.19,539.066 C3315.19,538.756 3319.14,527.948 3327.04,506.643 C3327.81,504.551 3328.59,502.769 3329.36,501.297 C3326.34,500.678 3323.36,500.368 3320.42,500.368 C3314.99,500.368 3307.79,504.977 3298.8,514.197 C3290.74,522.409 3286.71,529.498 3286.71,535.463 C3286.71,542.049 3289.85,545.341 3296.13,545.341 C3303.72,545.341 3310.11,543.869 3315.3,540.925"/>
<path class="Note" d="M3711.82,583.965 C3716.39,583.965 3718.67,586.831 3718.67,592.564 C3718.67,596.593 3716.15,602.597 3711.12,610.577 C3707.09,617.007 3705.08,623.283 3705.08,629.403 C3705.08,632.889 3710.15,634.633 3720.3,634.633 C3728.67,634.633 3740.33,630.1 3755.28,621.036 C3740.25,635.524 3727.19,642.767 3716.12,642.767 C3706.12,642.767 3699.15,641.257 3695.2,638.235 C3694.19,637.46 3693.34,636.531 3692.64,635.446 C3688.77,640.172 3682.3,642.535 3673.23,642.535 C3664.56,642.535 3657.89,640.753 3653.25,637.189 C3650.15,634.788 3648.6,630.953 3648.6,625.684 C3648.6,617.317 3653.56,608.175 3663.47,598.259 C3674.09,587.645 3686.37,582.338 3700.31,582.338 C3703.8,582.338 3706.35,583.616 3707.98,586.173 C3709.3,584.701 3710.58,583.965 3711.82,583.965 M3691.01,630.217 C3690.94,629.597 3690.9,628.977 3690.9,628.357 C3690.9,628.047 3694.85,617.24 3702.75,595.934 C3703.53,593.843 3704.3,592.061 3705.08,590.589 C3702.05,589.969 3699.07,589.659 3696.13,589.659 C3690.7,589.659 3683.5,594.269 3674.51,603.488 C3666.45,611.7 3662.43,618.789 3662.43,624.755 C3662.43,631.34 3665.56,634.633 3671.84,634.633 C3679.43,634.633 3685.82,633.161 3691.01,630.217"/>
<path class="Note" d="M3667.54,910.409 C3663.74,910.409 3661.85,906.342 3661.85,898.207 L3661.85,864.157 C3661.85,860.903 3663.43,859.276 3666.61,859.276 C3668,859.276 3669.05,859.392 3669.75,859.625 C3672.23,855.286 3676.29,851.645 3681.95,848.701 C3689.85,844.595 3697.87,842.542 3706.01,842.542 C3712.44,842.542 3715.65,844.943 3715.65,849.747 C3715.65,853.776 3713.48,855.79 3709.14,855.79 C3706.04,855.79 3703.1,855.093 3700.31,853.698 C3697.83,852.458 3695.2,851.839 3692.41,851.839 C3687.61,851.839 3680.52,854.976 3671.14,861.252 C3672.46,867.527 3673.12,874.848 3673.12,883.216 C3673.12,901.345 3671.26,910.409 3667.54,910.409"/>
<path class="Note" d="M3711.82,762.547 C3716.39,762.547 3718.67,765.414 3718.67,771.147 C3718.67,775.176 3716.15,781.18 3711.12,789.16 C3707.09,795.59 3705.08,801.865 3705.08,807.986 C3705.08,811.472 3710.15,813.215 3720.3,813.215 C3728.67,813.215 3740.33,808.683 3755.28,799.619 C3740.25,814.106 3727.19,821.35 3716.12,821.35 C3706.12,821.35 3699.15,819.839 3695.2,816.818 C3694.19,816.043 3693.34,815.113 3692.64,814.029 C3688.77,818.755 3682.3,821.118 3673.23,821.118 C3664.56,821.118 3657.89,819.336 3653.25,815.772 C3650.15,813.37 3648.6,809.535 3648.6,804.267 C3648.6,795.9 3653.56,786.758 3663.47,776.841 C3674.09,766.227 3686.37,760.92 3700.31,760.92 C3703.8,760.92 3706.35,762.199 3707.98,764.755 C3709.3,763.283 3710.58,762.547 3711.82,762.547 M3691.01,808.799 C3690.94,808.179 3690.9,807.56 3690.9,806.94 C3690.9,806.63 3694.85,795.822 3702.75,774.517 C3703.53,772.425 3704.3,770.643 3705.08,769.171 C3702.05,768.552 3699.07,768.242 3696.13,768.242 C3690.7,768.242 3683.5,772.851 3674.51,782.071 C3666.45,790.283 3662.43,797.372 3662.43,803.337 C3662.43,809.923 3665.56,813.215 3671.84,813.215 C3679.43,813.215 3685.82,811.743 3691.01,808.799"/>
<path class="Note" d="M3711.82,673.256 C3716.39,673.256 3718.67,676.123 3718.67,681.856 C3718.67,685.884 3716.15,691.888 3711.12,699.868 C3707.09,706.299 3705.08,712.574 3705.08,718.694 C3705.08,722.181 3710.15,723.924 3720.3,723.924 C3728.67,723.924 3740.33,719.392 3755.28,710.327 C3740.25,724.815 3727.19,732.059 3716.12,732.059 C3706.12,732.059 3699.15,730.548 3695.2,727.527 C3694.19,726.752 3693.34,725.822 3692.64,724.737 C3688.77,729.463 3682.3,731.826 3673.23,731.826 C3664.56,731.826 3657.89,730.044 3653.25,726.481 C3650.15,724.079 3648.6,720.244 3648.6,714.976 C3648.6,706.609 3653.56,697.467 3663.47,687.55 C3674.09,676.936 3686.37,671.629 3700.31,671.629 C3703.8,671.629 3706.35,672.907 3707.98,675.464 C3709.3,673.992 3710.58,673.256 3711.82,673.256 M3691.01,719.508 C3690.94,718.888 3690.9,718.268 3690.9,717.649 C3690.9,717.339 3694.85,706.531 3702.75,685.226 C3703.53,683.134 3704.3,681.352 3705.08,679.88 C3702.05,679.26 3699.07,678.95 3696.13,678.95 C3690.7,678.95 3683.5,683.56 3674.51,692.779 C3666.45,700.992 3662.43,708.081 3662.43,714.046 C3662.43,720.631 3665.56,723.924 3671.84,723.924 C3679.43,723.924 3685.82,722.452 3691.01,719.508"/>
<path class="Clef" transform="matrix(2.3811,0,0,2.3811,212.156,2158.79)" d="M25.4,-25.1 C17.8,-25.1 11.7,-20.7 11.6,-20.7 C5.8,-16.4 3.5,-11.3 2.6,-7.8 C2.1,-6 1.9,-4.2 1.9,-2.5 C1.9,-0.1 2.3,2.1 3.2,4 C4.4,6.7 6.7,8.6 9.7,9.6 C10.9,10 12.2,10.2 13.5,10.2 C15.7,10.2 18,9.6 19.9,8.5 C23,6.8 24.9,3.2 24.9,-0.7 C24.9,-4.2 23.1,-7.4 20.1,-9.3 C18,-10.7 16,-11.1 14.3,-11.1 C13.1,-11.1 12,-10.9 11.1,-10.6 C10.1,-10.2 8.4,-9.2 7.6,-8.5 C7.9,-10.4 9.1,-13.3 10.2,-14.9 C11.3,-16.5 13.5,-18.5 15.2,-19.4 C17.7,-20.8 20.9,-21.4 24.4,-21.4 C34.6,-21.4 39.6,-13.2 39.6,3.6 C39.6,12.9 36.1,21.8 33.1,27.7 C29.8,34.3 25.4,40.6 21.5,44.1 C11.1,53.6 1.3,58.1 1.2,58.1 C1.2,58.1 -0.3,59 0.1,60.5 C0.4,61.5 1.3,61.7 1.9,61.7 C2,61.7 2.3,61.6 2.4,61.6 C2.5,61.6 13.9,56.9 23,49.8 C28.1,46.1 32.7,42.1 36.7,37.8 C40.3,33.9 43.4,29.7 45.9,25.5 C50.3,18 52.8,10.2 52.8,3.5 C52.8,-4.8 50.6,-11.7 46.5,-16.6 C41.8,-22.2 34.7,-25.1 25.4,-25.1 M56.8,-12.4 C56.8,-9.6 59,-7.4 61.6,-7.4 C64.2,-7.4 66.4,-9.6 66.4,-12.4 C66.4,-15.2 64.2,-17.5 61.6,-17.5 C59,-17.5 56.8,-15.2 56.8,-12.4 M56.8,12.3 C56.8,15.1 59,17.4 61.6,17.4 C64.2,17.4 66.4,15.1 66.4,12.3 C66.4,9.5 64.2,7.2 61.6,7.2 C59,7.2 56.8,9.5 56.8,12.3"/>
<path class="Clef" transform="matrix(2.3811,0,0,2.3811,212.156,1570.39)" d="M63.37,-5.89004 C62.14,-11.32 59.5,-15.14 58.72,-16.1801 C55.5301,-20.45 51.52,-23.3 46.8301,-24.65 C43.72,-25.54 40.72,-25.65 38.3,-25.47 C37.2601,-31.4801 36.2601,-37.3601 35.35,-42.8101 C40.79,-48.97 44.42,-54.77 46.69,-59.07 C50.1601,-65.65 51.3101,-70.2301 51.3601,-70.4301 C53.0801,-75.64 53.44,-83.34 52.34,-91.55 C51.3301,-99.1 49.24,-105.81 46.89,-109.06 C45.8601,-110.49 44.8101,-111.22 43.77,-111.22 C42.55,-111.22 40.04,-109.98 37.15,-107.21 C34.85,-105.01 31.5801,-101.12 29.02,-95.1101 C26.02,-88.05 25.8101,-78.5601 26.1601,-71.84 C26.54,-64.57 27.65,-58.8801 27.6601,-58.8301 C27.6801,-58.74 27.94,-57.24 28.39,-54.67 C28.1601,-54.44 27.92,-54.22 27.67,-53.9801 C26.6301,-52.9801 25.44,-51.84 24.0601,-50.4601 C23.2,-49.6 22.25,-48.69 21.25,-47.72 C12.79,-39.57 0,-27.25 0,-8.1 C0,-3.4 0.9,1.01992 2.68008,5.02998 C4.27002,8.62998 6.57002,11.91 9.5,14.78 C17.2301,22.33 27.82,25.5399 34.8801,25.38 C37.8301,25.31 40.4601,25.0699 42.85,24.6199 C44.6801,34.2199 45.82,41.25 45.8601,46.5899 C45.9,53.1 44.25,57.0699 40.35,59.8399 C37.92,61.5699 35.1101,62.5199 32.0101,62.6699 C29.42,62.7899 27.1601,62.3199 25.7301,61.91 L25.72,61.91 C25.72,61.91 25.4301,61.83 25.42,61.63 C25.4101,61.45 25.7601,61.4 25.77,61.4 L25.79,61.4 C27.7101,60.96 31.2801,59.73 33.64,56.43 C35.44,53.91 36.3101,49.2899 34.47,45.35 C33.3601,42.96 30.85,40.01 25.2301,39.56 C22.74,39.36 20.47,39.8699 18.47,41.0699 C16.6601,42.15 15.1601,43.7899 14.1101,45.7899 C11.65,50.4899 12.1101,56.2199 15.24,60.06 C18.2,63.68 22.82,65.9899 28.25,66.5699 C29.1,66.66 29.95,66.7 30.8,66.7 C31.5101,66.7 32.22,66.6699 32.92,66.61 C31.72,66.9399 30.64,67.4899 29.77,68.25 C28.2801,69.5399 27.44,71.38 27.44,73.41 C27.44,75.28 28.0601,76.65 29.55,78.0399 C28.4101,78.5 27.55,78.98 26.79,79.56 C25.25,80.73 24.34,82.46 24.34,84.1899 C24.34,87.45 27.3,89.63 31.72,89.63 C37.1301,89.63 40.9101,86.63 40.9101,82.35 C40.9101,80.1199 39.9101,78.18 38.0801,76.83 C41.0101,75.6199 42.37,73.9399 42.37,71.56 C42.39,70.05 41.69,68.61 40.49,67.6899 C39.2801,66.7399 37.62,66.2399 35.69,66.2399 L35.5101,66.2399 C38.2801,65.7 40.92,64.7 43.2101,63.28 C46.87,60.71 48.99,56.73 49.67,51.1 C50.2301,46.46 49.84,40.55 48.44,32.48 C48.0801,30.3899 47.54,27.36 46.8801,23.6 C52.6301,21.68 56.79,18.11 60.5601,12.26 C63.85,6.51992 64.8,0.419922 63.37,-5.89004 M32.39,87.5399 C30.19,87.5399 28.7301,86.1199 28.7301,84.01 C28.7301,82.11 29.65,80.5 31.32,79.4699 C31.6801,79.66 31.77,79.71 32.1101,79.88 C33.3,80.48 33.3,80.48 33.55,80.63 L33.5601,80.6399 C35.47,81.73 36.25,82.76 36.25,84.18 C36.24,86.0899 34.59,87.5399 32.39,87.5399 M38.3101,71.63 C38.3101,73.2699 37.7301,74.3399 36.1801,75.53 C34.74,74.78 34.35,74.56 33.9801,74.3399 L33.8801,74.28 C32.3301,73.3399 31.85,72.66 31.85,71.4 C31.85,69.6 33.2301,68.3399 35.19,68.3399 C37.17,68.35 38.3101,69.55 38.3101,71.63 M33.15,-83.8101 C34.9301,-89.55 37.67,-92.8 39.6601,-94.5301 C41.4101,-96.05 43.0601,-96.7601 43.9801,-96.7601 C44.12,-96.7601 44.24,-96.74 44.34,-96.7101 C44.8,-96.57 45.3301,-96 45.8,-95.1301 C48.1101,-90.84 47.37,-84.1301 46.0301,-79.69 C44.4,-74.29 41.4801,-68.6801 32.69,-59.0601 C32.52,-60.17 32.3601,-61.22 32.2101,-62.2 C30.95,-70.49 31.27,-77.7601 33.15,-83.8101 M29.15,20.31 C24.5101,19.0899 20.0801,16.5899 16.32,13.0899 C15.0101,11.86 13.14,9.68994 11.67,6.3 C10.3101,3.13994 9.65,-0.290039 9.7,-3.88008 C9.77002,-8.57002 11.0801,-13.39 13.59,-18.1801 C16.5101,-23.7601 21.07,-29.29 27.1301,-34.62 C28.5801,-35.9 29.95,-37.1801 31.24,-38.4601 C32,-34.2 32.8301,-29.5101 33.7101,-24.6301 C29.8601,-23.3601 25.1101,-20.2101 22,-14.5601 C18.47,-7.99004 18.6101,-2.47002 19.34,1.00996 C20.2801,5.46992 22.8101,9.22998 26.27,11.3199 C27.2,11.88 31.3301,14.01 33.17,13.43 C33.54,13.31 33.8101,13.0899 33.95,12.76 C34.4601,11.5899 33.44,10.95 31.8801,9.98994 C31.2801,9.61992 30.6101,9.2 29.8801,8.66992 C26.5601,6.17998 25.1101,1.72998 26.1801,-2.65 C26.7601,-5.05 28.04,-7.21006 29.8801,-8.91006 C31.55,-10.4601 33.59,-11.5601 35.97,-12.2 C38.0101,-0.960059 40.07,10.1899 41.7101,18.55 C41.84,19.2399 41.9801,19.91 42.1101,20.58 C37.7101,21.51 33.37,21.4199 29.15,20.31 M54.9,10.1 C53.7301,13.28 51.27,17.35 46.14,19.41 C46.07,18.9899 45.99,18.56 45.9101,18.13 C44.3601,9.36992 42.4301,-1.61006 40.47,-12.87 C50.82,-13.35 55.09,-5.91006 55.9801,-1.08008 C56.45,1.45 56.45,5.88994 54.9,10.1"/>
<path class="KeySig" transform="matrix(2.3811,0,0,2.3811,429.785,2158.79)" d="M23.3,-10.6 C23.9,-10.7 24.4,-11.4 24.4,-12 L24.4,-17.9 C24.4,-18.7 23.8,-19.3 23,-19.3 L22.8,-19.3 L19.5,-18.6 L19.5,-33.5 L16.7,-33.5 L16.7,-18 L7.8,-16.2 L7.8,-30.3 L5,-30.3 L5,-15.6 L1.1,-14.8 C0.5,-14.7 0,-14 0,-13.4 L0,-13.2 L0,-7.4 L0,-7.6 C0,-6.8 0.6,-6.2 1.4,-6.2 L1.7,-6.2 L5,-6.9 L5,9.6 L1.1,10.4 C0.5,10.5 0,11.2 0,11.8 L0,17.6 C0,18.4 0.6,19 1.4,19 L1.7,19 L5,18.3 L5,33.2 L7.8,33.2 L7.8,17.7 L16.7,15.9 L16.7,30 L19.5,30 L19.5,15.3 L23.3,14.6 C23.9,14.5 24.4,13.8 24.4,13.2 L24.4,7.3 C24.4,6.5 23.8,5.9 23,5.9 L22.8,5.9 L19.5,6.6 L19.5,-9.9 L23.3,-10.6 M7.8,9.1 L7.8,-7.5 L16.7,-9.3 L16.7,7.2 L7.8,9.1 "/>
<path class="KeySig" transform="matrix(2.3811,0,0,2.3811,429.785,1391.81)" d="M23.3,-10.6 C23.9,-10.7 24.4,-11.4 24.4,-12 L24.4,-17.9 C24.4,-18.7 23.8,-19.3 23,-19.3 L22.8,-19.3 L19.5,-18.6 L19.5,-33.5 L16.7,-33.5 L16.7,-18 L7.8,-16.2 L7.8,-30.3 L5,-30.3 L5,-15.6 L1.1,-14.8 C0.5,-14.7 0,-14 0,-13.4 L0,-13.2 L0,-7.4 L0,-7.6 C0,-6.8 0.6,-6.2 1.4,-6.2 L1.7,-6.2 L5,-6.9 L5,9.6 L1.1,10.4 C0.5,10.5 0,11.2 0,11.8 L0,17.6 C0,18.4 0.6,19 1.4,19 L1.7,19 L5,18.3 L5,33.2 L7.8,33.2 L7.8,17.7 L16.7,15.9 L16.7,30 L19.5,30 L19.5,15.3 L23.3,14.6 C23.9,14.5 24.4,13.8 24.4,13.2 L24.4,7.3 C24.4,6.5 23.8,5.9 23,5.9 L22.8,5.9 L19.5,6.6 L19.5,-9.9 L23.3,-10.6 M7.8,9.1 L7.8,-7.5 L16.7,-9.3 L16.7,7.2 L7.8,9.1 "/>
<path class="FiguredBass" d="M1247.02,2535.46 L1247.02,2554.85 C1247.02,2556.77 1246.05,2557.73 1244.1,2557.73 C1242.15,2557.73 1241.17,2556.77 1241.17,2554.85 L1241.17,2537.97 L1238.21,2539.17 C1237.9,2539.3 1237.49,2539.36 1237,2539.36 C1236.2,2539.36 1235.48,2539.05 1234.87,2538.43 C1234.25,2537.81 1233.94,2537.1 1233.94,2536.3 L1233.94,2526.83 C1233.94,2525.47 1234.59,2524.51 1235.89,2523.96 L1241.17,2521.73 L1241.17,2502.25 L1238.21,2503.45 C1238.02,2503.52 1237.77,2503.55 1237.46,2503.55 C1237.34,2503.55 1237.19,2503.55 1237,2503.55 C1236.07,2503.42 1235.33,2503.08 1234.77,2502.53 C1234.22,2501.97 1233.94,2501.32 1233.94,2500.58 L1233.94,2491.12 C1233.94,2489.82 1234.59,2488.89 1235.89,2488.33 L1241.17,2486.11 L1241.17,2466.34 C1241.17,2464.43 1242.15,2463.47 1244.1,2463.47 C1246.05,2463.47 1247.02,2464.43 1247.02,2466.34 L1247.02,2483.69 L1258.99,2478.68 L1258.99,2459.29 C1258.99,2457.38 1259.95,2456.42 1261.86,2456.42 C1263.78,2456.42 1264.74,2457.38 1264.74,2459.29 L1264.74,2476.36 L1267.99,2474.97 C1268.3,2474.85 1268.64,2474.79 1269.01,2474.79 C1269.81,2474.79 1270.54,2475.1 1271.19,2475.71 C1271.84,2476.33 1272.16,2477.04 1272.16,2477.85 L1272.16,2487.31 C1272.16,2488.67 1271.48,2489.63 1270.12,2490.19 L1264.74,2492.41 L1264.74,2511.99 L1267.99,2510.69 C1268.17,2510.63 1268.39,2510.6 1268.64,2510.6 C1268.76,2510.6 1268.88,2510.6 1269.01,2510.6 C1270.06,2510.78 1270.85,2511.12 1271.37,2511.62 C1271.9,2512.11 1272.16,2512.76 1272.16,2513.57 L1272.16,2523.03 C1272.16,2524.33 1271.48,2525.26 1270.12,2525.81 L1264.74,2528.04 L1264.74,2547.8 C1264.74,2549.72 1263.78,2550.68 1261.86,2550.68 C1259.95,2550.68 1258.99,2549.72 1258.99,2547.8 L1258.99,2530.45 L1247.02,2535.46 M1247.02,2519.32 L1258.99,2514.4 L1258.99,2494.83 L1247.02,2499.84 L1247.02,2519.32 "/>
<path class="FiguredBass" d="M1812.07,2472.56 C1807.49,2472.56 1804.45,2474.4 1802.93,2478.08 C1801.42,2481.76 1800.66,2486.97 1800.66,2493.71 L1800.66,2504.66 C1803.87,2503.36 1806.66,2502.68 1809.01,2502.62 C1817.05,2502.62 1823.37,2504.4 1827.98,2507.95 C1832.59,2511.51 1834.89,2516.8 1834.89,2523.82 C1834.89,2530.84 1832.56,2536.14 1827.89,2539.73 C1823.22,2543.32 1816.92,2545.11 1809.01,2545.11 C1800.91,2545.11 1794.57,2541.35 1789.99,2533.84 C1785.41,2526.32 1783.12,2517.4 1783.12,2507.07 C1783.12,2496.81 1785.78,2487.9 1791.1,2480.35 C1796.42,2472.81 1803.41,2469.04 1812.07,2469.04 C1817.76,2469.04 1822.68,2470.47 1826.82,2473.35 C1830.96,2476.23 1833.04,2480.01 1833.04,2484.71 C1833.04,2487.44 1832.05,2489.79 1830.07,2491.76 C1828.09,2493.74 1825.72,2494.73 1822.97,2494.73 C1820.22,2494.73 1817.85,2493.74 1815.87,2491.76 C1813.89,2489.79 1812.9,2487.44 1812.9,2484.71 C1812.9,2482.05 1813.89,2479.7 1815.87,2477.66 C1816.55,2476.86 1817.51,2476.18 1818.75,2475.62 C1818.44,2474.82 1817.82,2474.2 1816.89,2473.77 C1815.53,2472.96 1813.92,2472.56 1812.07,2472.56 M1816.61,2510.5 C1815.5,2507.6 1813.06,2506.14 1809.29,2506.14 C1805.51,2506.14 1803.18,2507.6 1802.28,2510.5 C1801.38,2513.41 1800.94,2517.83 1800.94,2523.77 C1800.94,2530.76 1801.38,2535.46 1802.28,2537.87 C1803.18,2540.29 1805.51,2541.49 1809.29,2541.49 C1813.06,2541.49 1815.5,2540.04 1816.61,2537.13 C1817.73,2534.22 1818.28,2529.79 1818.28,2523.82 C1818.28,2517.85 1817.73,2513.41 1816.61,2510.5"/>
<path class="FiguredBass" d="M1811.42,2576.73 C1813.77,2576.73 1816.24,2576.39 1818.84,2575.71 L1823.02,2574.6 C1823.82,2574.6 1824.45,2574.91 1824.92,2575.53 C1825.38,2576.15 1825.34,2576.7 1824.78,2577.2 L1781.64,2627.39 L1806.97,2627.39 L1806.97,2607.53 C1806.97,2606.11 1807.35,2605.01 1808.13,2604.24 C1808.9,2603.47 1809.89,2602.85 1811.09,2602.39 C1812.3,2601.92 1813.88,2600.55 1815.83,2598.26 C1817.77,2595.97 1819.65,2592.88 1821.44,2588.98 C1821.75,2588.36 1822.21,2588.05 1822.83,2588.05 C1824.13,2588.05 1824.78,2588.76 1824.78,2590.19 L1824.78,2627.39 L1835.73,2627.39 C1837.27,2627.39 1838.05,2628.1 1838.05,2629.52 C1838.05,2631.07 1837.27,2631.84 1835.73,2631.84 L1824.78,2631.84 L1824.78,2633.05 C1824.78,2636.88 1825.8,2640.22 1827.84,2643.07 C1829.88,2645.91 1832.51,2647.33 1835.73,2647.33 C1836.96,2647.33 1837.58,2647.89 1837.58,2649 C1837.58,2650.24 1836.96,2650.86 1835.73,2650.86 C1833.5,2650.86 1830.19,2650.53 1825.8,2649.89 C1821.41,2649.24 1818.08,2648.91 1815.83,2648.91 C1813.57,2648.91 1810.24,2649.24 1805.85,2649.89 C1801.46,2650.53 1798.15,2650.86 1795.93,2650.86 C1794.69,2650.86 1794.07,2650.24 1794.07,2649 C1794.07,2647.89 1794.69,2647.33 1795.93,2647.33 C1799.14,2647.33 1801.79,2645.91 1803.86,2643.07 C1805.93,2640.22 1806.97,2636.88 1806.97,2633.05 L1806.97,2631.84 L1781.64,2631.84 C1780.03,2631.84 1778.84,2631.45 1778.07,2630.68 C1777.29,2629.91 1776.91,2629.12 1776.91,2628.32 C1776.91,2628.01 1777.63,2626.94 1779.09,2625.11 C1780.54,2623.29 1782.32,2620.86 1784.42,2617.83 C1786.53,2614.8 1788.61,2611.35 1790.68,2607.49 C1792.76,2603.62 1794.52,2598.98 1795.97,2593.57 C1797.43,2588.16 1798.15,2582.7 1798.15,2577.2 C1798.15,2575.59 1798.83,2574.79 1800.19,2574.79 C1800.38,2574.79 1801.03,2574.94 1802.14,2575.25 C1803.26,2575.56 1804.68,2575.88 1806.41,2576.22 C1808.14,2576.56 1809.81,2576.73 1811.42,2576.73"/>
<path class="FiguredBass" d="M2357,2470.98 C2359.35,2470.98 2361.82,2470.64 2364.42,2469.96 L2368.59,2468.85 C2369.4,2468.85 2370.03,2469.16 2370.49,2469.78 C2370.96,2470.4 2370.91,2470.95 2370.36,2471.45 L2327.22,2521.64 L2352.54,2521.64 L2352.54,2501.78 C2352.54,2500.36 2352.93,2499.26 2353.7,2498.49 C2354.48,2497.72 2355.47,2497.1 2356.67,2496.64 C2357.88,2496.17 2359.45,2494.8 2361.4,2492.51 C2363.35,2490.22 2365.22,2487.13 2367.02,2483.23 C2367.32,2482.61 2367.79,2482.3 2368.41,2482.3 C2369.71,2482.3 2370.36,2483.01 2370.36,2484.44 L2370.36,2521.64 L2381.3,2521.64 C2382.85,2521.64 2383.62,2522.35 2383.62,2523.77 C2383.62,2525.32 2382.85,2526.09 2381.3,2526.09 L2370.36,2526.09 L2370.36,2527.3 C2370.36,2531.13 2371.38,2534.47 2373.42,2537.32 C2375.46,2540.16 2378.09,2541.58 2381.3,2541.58 C2382.54,2541.58 2383.16,2542.14 2383.16,2543.25 C2383.16,2544.49 2382.54,2545.11 2381.3,2545.11 C2379.08,2545.11 2375.77,2544.78 2371.38,2544.14 C2366.98,2543.49 2363.66,2543.16 2361.4,2543.16 C2359.15,2543.16 2355.82,2543.49 2351.43,2544.14 C2347.04,2544.78 2343.73,2545.11 2341.5,2545.11 C2340.27,2545.11 2339.65,2544.49 2339.65,2543.25 C2339.65,2542.14 2340.27,2541.58 2341.5,2541.58 C2344.72,2541.58 2347.36,2540.16 2349.43,2537.32 C2351.51,2534.47 2352.54,2531.13 2352.54,2527.3 L2352.54,2526.09 L2327.22,2526.09 C2325.61,2526.09 2324.42,2525.7 2323.64,2524.93 C2322.87,2524.16 2322.48,2523.37 2322.48,2522.57 C2322.48,2522.26 2323.21,2521.19 2324.66,2519.36 C2326.12,2517.54 2327.9,2515.11 2330,2512.08 C2332.1,2509.05 2334.19,2505.6 2336.26,2501.74 C2338.33,2497.87 2340.1,2493.23 2341.55,2487.82 C2343,2482.41 2343.73,2476.95 2343.73,2471.45 C2343.73,2469.84 2344.41,2469.04 2345.77,2469.04 C2345.96,2469.04 2346.61,2469.19 2347.72,2469.5 C2348.83,2469.81 2350.25,2470.13 2351.99,2470.47 C2353.72,2470.81 2355.39,2470.98 2357,2470.98"/>
<path class="FiguredBass" d="M3019.49,2535.46 L3019.49,2554.85 C3019.49,2556.77 3018.51,2557.73 3016.57,2557.73 C3014.62,2557.73 3013.64,2556.77 3013.64,2554.85 L3013.64,2537.97 L3010.68,2539.17 C3010.37,2539.3 3009.96,2539.36 3009.47,2539.36 C3008.67,2539.36 3007.95,2539.05 3007.34,2538.43 C3006.72,2537.81 3006.41,2537.1 3006.41,2536.3 L3006.41,2526.83 C3006.41,2525.47 3007.06,2524.51 3008.36,2523.96 L3013.64,2521.73 L3013.64,2502.25 L3010.68,2503.45 C3010.49,2503.52 3010.24,2503.55 3009.93,2503.55 C3009.81,2503.55 3009.65,2503.55 3009.47,2503.55 C3008.54,2503.42 3007.8,2503.08 3007.24,2502.53 C3006.69,2501.97 3006.41,2501.32 3006.41,2500.58 L3006.41,2491.12 C3006.41,2489.82 3007.06,2488.89 3008.36,2488.33 L3013.64,2486.11 L3013.64,2466.34 C3013.64,2464.43 3014.62,2463.47 3016.57,2463.47 C3018.51,2463.47 3019.49,2464.43 3019.49,2466.34 L3019.49,2483.69 L3031.46,2478.68 L3031.46,2459.29 C3031.46,2457.38 3032.42,2456.42 3034.33,2456.42 C3036.25,2456.42 3037.21,2457.38 3037.21,2459.29 L3037.21,2476.36 L3040.46,2474.97 C3040.76,2474.85 3041.1,2474.79 3041.48,2474.79 C3042.28,2474.79 3043.01,2475.1 3043.66,2475.71 C3044.31,2476.33 3044.63,2477.04 3044.63,2477.85 L3044.63,2487.31 C3044.63,2488.67 3043.95,2489.63 3042.59,2490.19 L3037.21,2492.41 L3037.21,2511.99 L3040.46,2510.69 C3040.64,2510.63 3040.86,2510.6 3041.1,2510.6 C3041.23,2510.6 3041.35,2510.6 3041.48,2510.6 C3042.53,2510.78 3043.32,2511.12 3043.84,2511.62 C3044.37,2512.11 3044.63,2512.76 3044.63,2513.57 L3044.63,2523.03 C3044.63,2524.33 3043.95,2525.26 3042.59,2525.81 L3037.21,2528.04 L3037.21,2547.8 C3037.21,2549.72 3036.25,2550.68 3034.33,2550.68 C3032.42,2550.68 3031.46,2549.72 3031.46,2547.8 L3031.46,2530.45 L3019.49,2535.46 M3019.49,2519.32 L3031.46,2514.4 L3031.46,2494.83 L3019.49,2499.84 L3019.49,2519.32 "/>
<path class="FiguredBass" d="M3281.37,2475.9 C3281.56,2475.9 3281.96,2475.5 3282.58,2474.69 C3285.24,2470.92 3288.95,2469.04 3293.71,2469.04 C3297.55,2469.04 3301.16,2470.46 3304.57,2473.3 C3307.97,2476.15 3310.78,2477.57 3313.01,2477.57 C3315.42,2477.57 3317.71,2476.86 3319.87,2475.44 C3322.04,2474.01 3323.75,2472.59 3325.02,2471.17 C3326.29,2469.75 3327.11,2469.04 3327.48,2469.04 C3328.1,2469.04 3328.66,2469.24 3329.15,2469.64 C3329.65,2470.04 3329.89,2470.55 3329.89,2471.17 C3329.89,2471.6 3328.63,2473.74 3326.09,2477.57 C3323.55,2481.4 3320.74,2485.84 3317.65,2490.88 C3314.55,2495.92 3311.74,2502.22 3309.2,2509.76 C3306.67,2517.31 3305.4,2524.51 3305.4,2531.38 C3305.4,2534.04 3305.68,2537.1 3306.24,2540.56 C3306.67,2543.22 3306.67,2544.74 3306.24,2545.11 C3305.93,2545.42 3305.4,2545.57 3304.66,2545.57 C3304.35,2545.57 3302.91,2545.17 3300.34,2544.37 C3297.78,2543.56 3295.32,2543.16 3292.97,2543.16 C3290.87,2543.16 3288.44,2543.56 3285.69,2544.37 C3282.93,2545.17 3281.4,2545.57 3281.09,2545.57 C3280.41,2545.57 3279.86,2545.29 3279.42,2544.74 C3278.99,2544.18 3278.93,2543.59 3279.24,2542.98 C3282.89,2534.25 3287.33,2525.77 3292.55,2517.51 C3297.78,2509.25 3304.32,2499.74 3312.17,2488.98 C3309.2,2490.59 3306.21,2491.39 3303.17,2491.39 C3299.96,2491.39 3296.71,2489.96 3293.43,2487.08 C3290.16,2484.2 3287.46,2482.77 3285.36,2482.77 C3283.82,2482.77 3282.47,2483.65 3281.33,2485.41 C3280.18,2487.17 3279.61,2489.82 3279.61,2493.34 L3279.61,2504.75 C3279.61,2506.3 3278.9,2507.07 3277.48,2507.07 C3275.93,2507.07 3275.16,2506.3 3275.16,2504.75 L3275.16,2471.35 C3275.16,2469.81 3275.93,2469.04 3277.48,2469.04 C3278.9,2469.04 3279.61,2469.81 3279.61,2471.35 L3279.61,2473.49 C3279.61,2473.98 3279.73,2474.42 3279.98,2474.79 C3280.72,2475.53 3281.19,2475.9 3281.37,2475.9"/>
<path class="FiguredBass" d="M3295.66,2641.21 L3295.66,2660.6 C3295.66,2662.52 3294.69,2663.48 3292.74,2663.48 C3290.79,2663.48 3289.82,2662.52 3289.82,2660.6 L3289.82,2643.72 L3286.85,2644.92 C3286.54,2645.05 3286.14,2645.11 3285.64,2645.11 C3284.84,2645.11 3284.12,2644.8 3283.51,2644.18 C3282.89,2643.56 3282.58,2642.85 3282.58,2642.05 L3282.58,2632.58 C3282.58,2631.22 3283.23,2630.26 3284.53,2629.71 L3289.82,2627.48 L3289.82,2608 L3286.85,2609.2 C3286.66,2609.27 3286.41,2609.3 3286.1,2609.3 C3285.98,2609.3 3285.83,2609.3 3285.64,2609.3 C3284.71,2609.17 3283.97,2608.83 3283.41,2608.28 C3282.86,2607.72 3282.58,2607.07 3282.58,2606.33 L3282.58,2596.87 C3282.58,2595.57 3283.23,2594.64 3284.53,2594.08 L3289.82,2591.86 L3289.82,2572.09 C3289.82,2570.18 3290.79,2569.22 3292.74,2569.22 C3294.69,2569.22 3295.66,2570.18 3295.66,2572.09 L3295.66,2589.44 L3307.63,2584.43 L3307.63,2565.04 C3307.63,2563.13 3308.59,2562.17 3310.5,2562.17 C3312.42,2562.17 3313.38,2563.13 3313.38,2565.04 L3313.38,2582.11 L3316.63,2580.72 C3316.94,2580.6 3317.28,2580.54 3317.65,2580.54 C3318.45,2580.54 3319.18,2580.85 3319.83,2581.46 C3320.48,2582.08 3320.8,2582.79 3320.8,2583.6 L3320.8,2593.06 C3320.8,2594.42 3320.12,2595.38 3318.76,2595.94 L3313.38,2598.16 L3313.38,2617.74 L3316.63,2616.44 C3316.81,2616.38 3317.03,2616.35 3317.28,2616.35 C3317.4,2616.35 3317.52,2616.35 3317.65,2616.35 C3318.7,2616.53 3319.49,2616.87 3320.01,2617.37 C3320.54,2617.86 3320.8,2618.51 3320.8,2619.32 L3320.8,2628.78 C3320.8,2630.08 3320.12,2631.01 3318.76,2631.56 L3313.38,2633.79 L3313.38,2653.55 C3313.38,2655.47 3312.42,2656.43 3310.5,2656.43 C3308.59,2656.43 3307.63,2655.47 3307.63,2653.55 L3307.63,2636.2 L3295.66,2641.21 M3295.66,2625.07 L3307.63,2620.15 L3307.63,2600.58 L3295.66,2605.59 L3295.66,2625.07 "/>
<path class="FiguredBass" d="M1820.42,1793.87 C1825.37,1788.49 1827.84,1783.29 1827.84,1778.28 C1827.84,1774.2 1826.09,1770.98 1822.6,1768.63 C1819.1,1766.28 1814.91,1765.11 1810.03,1765.11 C1806.56,1765.11 1803.8,1766.19 1801.72,1768.35 C1799.65,1770.52 1798.62,1773.02 1798.62,1775.87 C1798.62,1779.33 1800.13,1781.96 1803.16,1783.75 L1820.42,1793.87 M1824.96,1796.46 C1833.38,1801.35 1837.58,1807.78 1837.58,1815.76 C1837.58,1821.76 1835.01,1826.91 1829.88,1831.21 C1824.75,1835.51 1817.73,1837.66 1808.82,1837.66 C1801.34,1837.66 1794.83,1835.68 1789.29,1831.72 C1783.76,1827.76 1780.99,1822.63 1780.99,1816.32 C1780.99,1813.97 1781.67,1811.59 1783.03,1809.17 C1784.39,1806.76 1785.66,1804.95 1786.83,1803.75 C1788.01,1802.54 1789.93,1800.67 1792.59,1798.13 C1786.4,1793.87 1783.31,1788.49 1783.31,1781.99 C1783.31,1776.43 1785.69,1771.63 1790.45,1767.61 C1795.21,1763.59 1801.74,1761.58 1810.03,1761.58 C1816.65,1761.58 1822.38,1763.08 1827.24,1766.08 C1832.09,1769.08 1834.52,1773.15 1834.52,1778.28 C1834.52,1783.79 1831.33,1789.85 1824.96,1796.46 M1797.13,1800.83 C1790.82,1806.33 1787.67,1811.49 1787.67,1816.32 C1787.67,1821.39 1789.77,1825.63 1793.98,1829.03 C1798.18,1832.43 1803.13,1834.13 1808.82,1834.13 C1812.78,1834.13 1815.95,1832.86 1818.33,1830.33 C1820.71,1827.79 1821.9,1824.85 1821.9,1821.51 C1821.9,1817.25 1820.14,1814.09 1816.61,1812.05 L1797.13,1800.83 "/>
<path class="FiguredBass" d="M1812.07,1870.86 C1807.49,1870.86 1804.45,1872.7 1802.93,1876.38 C1801.42,1880.06 1800.66,1885.27 1800.66,1892.01 L1800.66,1902.96 C1803.87,1901.66 1806.66,1900.98 1809.01,1900.92 C1817.05,1900.92 1823.37,1902.69 1827.98,1906.25 C1832.59,1909.81 1834.89,1915.09 1834.89,1922.11 C1834.89,1929.13 1832.56,1934.44 1827.89,1938.03 C1823.22,1941.61 1816.92,1943.41 1809.01,1943.41 C1800.91,1943.41 1794.57,1939.65 1789.99,1932.13 C1785.41,1924.62 1783.12,1915.7 1783.12,1905.37 C1783.12,1895.1 1785.78,1886.2 1791.1,1878.65 C1796.42,1871.1 1803.41,1867.33 1812.07,1867.33 C1817.76,1867.33 1822.68,1868.77 1826.82,1871.65 C1830.96,1874.52 1833.04,1878.31 1833.04,1883.01 C1833.04,1885.73 1832.05,1888.08 1830.07,1890.06 C1828.09,1892.04 1825.72,1893.03 1822.97,1893.03 C1820.22,1893.03 1817.85,1892.04 1815.87,1890.06 C1813.89,1888.08 1812.9,1885.73 1812.9,1883.01 C1812.9,1880.35 1813.89,1878 1815.87,1875.96 C1816.55,1875.16 1817.51,1874.48 1818.75,1873.92 C1818.44,1873.11 1817.82,1872.5 1816.89,1872.06 C1815.53,1871.26 1813.92,1870.86 1812.07,1870.86 M1816.61,1908.8 C1815.5,1905.89 1813.06,1904.44 1809.29,1904.44 C1805.51,1904.44 1803.18,1905.89 1802.28,1908.8 C1801.38,1911.71 1800.94,1916.13 1800.94,1922.07 C1800.94,1929.06 1801.38,1933.76 1802.28,1936.17 C1803.18,1938.58 1805.51,1939.79 1809.29,1939.79 C1813.06,1939.79 1815.5,1938.33 1816.61,1935.43 C1817.73,1932.52 1818.28,1928.08 1818.28,1922.11 C1818.28,1916.15 1817.73,1911.71 1816.61,1908.8"/>
<path class="FiguredBass" d="M1811.42,1975.03 C1813.77,1975.03 1816.24,1974.69 1818.84,1974.01 L1823.02,1972.9 C1823.82,1972.9 1824.45,1973.21 1824.92,1973.82 C1825.38,1974.44 1825.34,1975 1824.78,1975.49 L1781.64,2025.68 L1806.97,2025.68 L1806.97,2005.83 C1806.97,2004.41 1807.35,2003.31 1808.13,2002.54 C1808.9,2001.76 1809.89,2001.15 1811.09,2000.68 C1812.3,2000.22 1813.88,1998.84 1815.83,1996.55 C1817.77,1994.27 1819.65,1991.17 1821.44,1987.28 C1821.75,1986.66 1822.21,1986.35 1822.83,1986.35 C1824.13,1986.35 1824.78,1987.06 1824.78,1988.48 L1824.78,2025.68 L1835.73,2025.68 C1837.27,2025.68 1838.05,2026.4 1838.05,2027.82 C1838.05,2029.36 1837.27,2030.14 1835.73,2030.14 L1824.78,2030.14 L1824.78,2031.34 C1824.78,2035.18 1825.8,2038.52 1827.84,2041.36 C1829.88,2044.21 1832.51,2045.63 1835.73,2045.63 C1836.96,2045.63 1837.58,2046.19 1837.58,2047.3 C1837.58,2048.54 1836.96,2049.16 1835.73,2049.16 C1833.5,2049.16 1830.19,2048.83 1825.8,2048.18 C1821.41,2047.53 1818.08,2047.21 1815.83,2047.21 C1813.57,2047.21 1810.24,2047.53 1805.85,2048.18 C1801.46,2048.83 1798.15,2049.16 1795.93,2049.16 C1794.69,2049.16 1794.07,2048.54 1794.07,2047.3 C1794.07,2046.19 1794.69,2045.63 1795.93,2045.63 C1799.14,2045.63 1801.79,2044.21 1803.86,2041.36 C1805.93,2038.52 1806.97,2035.18 1806.97,2031.34 L1806.97,2030.14 L1781.64,2030.14 C1780.03,2030.14 1778.84,2029.75 1778.07,2028.98 C1777.29,2028.2 1776.91,2027.42 1776.91,2026.61 C1776.91,2026.3 1777.63,2025.24 1779.09,2023.41 C1780.54,2021.59 1782.32,2019.16 1784.42,2016.13 C1786.53,2013.1 1788.61,2009.65 1790.68,2005.78 C1792.76,2001.92 1794.52,1997.28 1795.97,1991.87 C1797.43,1986.46 1798.15,1981 1798.15,1975.49 C1798.15,1973.89 1798.83,1973.08 1800.19,1973.08 C1800.38,1973.08 1801.03,1973.24 1802.14,1973.55 C1803.26,1973.86 1804.68,1974.18 1806.41,1974.52 C1808.14,1974.86 1809.81,1975.03 1811.42,1975.03"/>
<path class="FiguredBass" d="M2365.99,1793.87 C2370.94,1788.49 2373.42,1783.29 2373.42,1778.28 C2373.42,1774.2 2371.67,1770.98 2368.18,1768.63 C2364.68,1766.28 2360.49,1765.11 2355.6,1765.11 C2352.14,1765.11 2349.37,1766.19 2347.3,1768.35 C2345.23,1770.52 2344.19,1773.02 2344.19,1775.87 C2344.19,1779.33 2345.71,1781.96 2348.74,1783.75 L2365.99,1793.87 M2370.54,1796.46 C2378.95,1801.35 2383.16,1807.78 2383.16,1815.76 C2383.16,1821.76 2380.59,1826.91 2375.46,1831.21 C2370.32,1835.51 2363.3,1837.66 2354.4,1837.66 C2346.91,1837.66 2340.4,1835.68 2334.87,1831.72 C2329.33,1827.76 2326.57,1822.63 2326.57,1816.32 C2326.57,1813.97 2327.25,1811.59 2328.61,1809.17 C2329.97,1806.76 2331.24,1804.95 2332.41,1803.75 C2333.59,1802.54 2335.5,1800.67 2338.16,1798.13 C2331.98,1793.87 2328.89,1788.49 2328.89,1781.99 C2328.89,1776.43 2331.27,1771.63 2336.03,1767.61 C2340.79,1763.59 2347.32,1761.58 2355.6,1761.58 C2362.22,1761.58 2367.96,1763.08 2372.81,1766.08 C2377.67,1769.08 2380.1,1773.15 2380.1,1778.28 C2380.1,1783.79 2376.91,1789.85 2370.54,1796.46 M2342.71,1800.83 C2336.4,1806.33 2333.25,1811.49 2333.25,1816.32 C2333.25,1821.39 2335.35,1825.63 2339.55,1829.03 C2343.76,1832.43 2348.71,1834.13 2354.4,1834.13 C2358.36,1834.13 2361.53,1832.86 2363.91,1830.33 C2366.29,1827.79 2367.48,1824.85 2367.48,1821.51 C2367.48,1817.25 2365.72,1814.09 2362.19,1812.05 L2342.71,1800.83 "/>
<path class="FiguredBass" d="M2335.01,1867.33 C2335.01,1867.33 2336.49,1867.55 2339.46,1867.98 C2340.76,1868.17 2342.21,1868.35 2343.82,1868.54 C2348.09,1869.03 2352.2,1869.28 2356.16,1869.28 C2360.12,1869.28 2364.29,1869.03 2368.69,1868.54 C2370.42,1868.35 2371.93,1868.17 2373.23,1867.98 L2377.78,1867.33 C2378.7,1867.33 2379.4,1867.64 2379.86,1868.26 C2380.33,1868.88 2380.28,1869.37 2379.73,1869.74 C2370.26,1879.21 2356.93,1883.94 2339.74,1883.94 C2339.06,1883.94 2338.46,1884.19 2337.93,1884.68 C2337.41,1885.18 2337.14,1885.79 2337.14,1886.54 L2337.14,1901.1 C2341.53,1896.77 2346.85,1894.61 2353.1,1894.61 C2362.13,1894.61 2369.1,1896.63 2374.02,1900.68 C2378.94,1904.74 2381.4,1910.87 2381.4,1919.1 C2381.4,1926.09 2378.61,1931.89 2373.05,1936.49 C2367.48,1941.1 2360.83,1943.41 2353.1,1943.41 C2346.42,1943.41 2340.62,1941.89 2335.7,1938.86 C2330.79,1935.83 2328.33,1931.62 2328.33,1926.24 C2328.33,1923.52 2329.32,1921.16 2331.3,1919.15 C2333.28,1917.14 2335.64,1916.13 2338.39,1916.13 C2341.15,1916.13 2343.48,1917.12 2345.4,1919.1 C2347.32,1921.08 2348.28,1923.46 2348.28,1926.24 C2348.28,1927.48 2347.25,1928.83 2345.21,1930.28 C2343.17,1931.73 2342.15,1933.08 2342.15,1934.31 C2342.15,1938.03 2345.8,1939.88 2353.1,1939.88 C2360.21,1939.88 2363.77,1932.95 2363.77,1919.1 C2363.77,1905.74 2360.21,1899.03 2353.1,1898.97 C2346.73,1898.97 2342.28,1900.27 2339.74,1902.86 C2337.2,1905.46 2335.63,1906.76 2335.01,1906.76 C2333.46,1906.76 2332.72,1905.99 2332.78,1904.44 L2332.78,1869.74 C2332.78,1869.06 2333,1868.49 2333.43,1868.03 C2333.86,1867.56 2334.39,1867.33 2335.01,1867.33"/>
<path class="FiguredBass" d="M2357,1975.03 C2359.35,1975.03 2361.82,1974.69 2364.42,1974.01 L2368.59,1972.9 C2369.4,1972.9 2370.03,1973.21 2370.49,1973.82 C2370.96,1974.44 2370.91,1975 2370.36,1975.49 L2327.22,2025.68 L2352.54,2025.68 L2352.54,2005.83 C2352.54,2004.41 2352.93,2003.31 2353.7,2002.54 C2354.48,2001.76 2355.47,2001.15 2356.67,2000.68 C2357.88,2000.22 2359.45,1998.84 2361.4,1996.55 C2363.35,1994.27 2365.22,1991.17 2367.02,1987.28 C2367.32,1986.66 2367.79,1986.35 2368.41,1986.35 C2369.71,1986.35 2370.36,1987.06 2370.36,1988.48 L2370.36,2025.68 L2381.3,2025.68 C2382.85,2025.68 2383.62,2026.4 2383.62,2027.82 C2383.62,2029.36 2382.85,2030.14 2381.3,2030.14 L2370.36,2030.14 L2370.36,2031.34 C2370.36,2035.18 2371.38,2038.52 2373.42,2041.36 C2375.46,2044.21 2378.09,2045.63 2381.3,2045.63 C2382.54,2045.63 2383.16,2046.19 2383.16,2047.3 C2383.16,2048.54 2382.54,2049.16 2381.3,2049.16 C2379.08,2049.16 2375.77,2048.83 2371.38,2048.18 C2366.98,2047.53 2363.66,2047.21 2361.4,2047.21 C2359.15,2047.21 2355.82,2047.53 2351.43,2048.18 C2347.04,2048.83 2343.73,2049.16 2341.5,2049.16 C2340.27,2049.16 2339.65,2048.54 2339.65,2047.3 C2339.65,2046.19 2340.27,2045.63 2341.5,2045.63 C2344.72,2045.63 2347.36,2044.21 2349.43,2041.36 C2351.51,2038.52 2352.54,2035.18 2352.54,2031.34 L2352.54,2030.14 L2327.22,2030.14 C2325.61,2030.14 2324.42,2029.75 2323.64,2028.98 C2322.87,2028.2 2322.48,2027.42 2322.48,2026.61 C2322.48,2026.3 2323.21,2025.24 2324.66,2023.41 C2326.12,2021.59 2327.9,2019.16 2330,2016.13 C2332.1,2013.1 2334.19,2009.65 2336.26,2005.78 C2338.33,2001.92 2340.1,1997.28 2341.55,1991.87 C2343,1986.46 2343.73,1981 2343.73,1975.49 C2343.73,1973.89 2344.41,1973.08 2345.77,1973.08 C2345.96,1973.08 2346.61,1973.24 2347.72,1973.55 C2348.83,1973.86 2350.25,1974.18 2351.99,1974.52 C2353.72,1974.86 2355.39,1975.03 2357,1975.03"/>
<path class="FiguredBass" d="M3281.37,1768.45 C3281.56,1768.45 3281.96,1768.05 3282.58,1767.24 C3285.24,1763.47 3288.95,1761.58 3293.71,1761.58 C3297.55,1761.58 3301.16,1763 3304.57,1765.85 C3307.97,1768.69 3310.78,1770.12 3313.01,1770.12 C3315.42,1770.12 3317.71,1769.41 3319.87,1767.98 C3322.04,1766.56 3323.75,1765.14 3325.02,1763.72 C3326.29,1762.29 3327.11,1761.58 3327.48,1761.58 C3328.1,1761.58 3328.66,1761.78 3329.15,1762.18 C3329.65,1762.59 3329.89,1763.1 3329.89,1763.72 C3329.89,1764.15 3328.63,1766.28 3326.09,1770.12 C3323.55,1773.95 3320.74,1778.39 3317.65,1783.43 C3314.55,1788.47 3311.74,1794.76 3309.2,1802.31 C3306.67,1809.86 3305.4,1817.06 3305.4,1823.93 C3305.4,1826.59 3305.68,1829.65 3306.24,1833.11 C3306.67,1835.77 3306.67,1837.29 3306.24,1837.66 C3305.93,1837.97 3305.4,1838.12 3304.66,1838.12 C3304.35,1838.12 3302.91,1837.72 3300.34,1836.91 C3297.78,1836.11 3295.32,1835.71 3292.97,1835.71 C3290.87,1835.71 3288.44,1836.11 3285.69,1836.91 C3282.93,1837.72 3281.4,1838.12 3281.09,1838.12 C3280.41,1838.12 3279.86,1837.84 3279.42,1837.29 C3278.99,1836.73 3278.93,1836.14 3279.24,1835.52 C3282.89,1826.8 3287.33,1818.31 3292.55,1810.06 C3297.78,1801.8 3304.32,1792.29 3312.17,1781.53 C3309.2,1783.14 3306.21,1783.94 3303.17,1783.94 C3299.96,1783.94 3296.71,1782.5 3293.43,1779.63 C3290.16,1776.75 3287.46,1775.31 3285.36,1775.31 C3283.82,1775.31 3282.47,1776.19 3281.33,1777.96 C3280.18,1779.72 3279.61,1782.36 3279.61,1785.89 L3279.61,1797.3 C3279.61,1798.85 3278.9,1799.62 3277.48,1799.62 C3275.93,1799.62 3275.16,1798.85 3275.16,1797.3 L3275.16,1763.9 C3275.16,1762.36 3275.93,1761.58 3277.48,1761.58 C3278.9,1761.58 3279.61,1762.36 3279.61,1763.9 L3279.61,1766.04 C3279.61,1766.53 3279.73,1766.96 3279.98,1767.33 C3280.72,1768.08 3281.19,1768.45 3281.37,1768.45"/>
<path class="FiguredBass" d="M3281.84,1867.33 C3281.84,1867.33 3283.32,1867.55 3286.29,1867.98 C3287.59,1868.17 3289.04,1868.35 3290.65,1868.54 C3294.92,1869.03 3299.03,1869.28 3302.99,1869.28 C3306.95,1869.28 3311.12,1869.03 3315.51,1868.54 C3317.25,1868.35 3318.76,1868.17 3320.06,1867.98 L3324.61,1867.33 C3325.53,1867.33 3326.23,1867.64 3326.69,1868.26 C3327.16,1868.88 3327.11,1869.37 3326.55,1869.74 C3317.09,1879.21 3303.76,1883.94 3286.57,1883.94 C3285.89,1883.94 3285.28,1884.19 3284.76,1884.68 C3284.23,1885.18 3283.97,1885.79 3283.97,1886.54 L3283.97,1901.1 C3288.36,1896.77 3293.68,1894.61 3299.93,1894.61 C3308.96,1894.61 3315.93,1896.63 3320.85,1900.68 C3325.76,1904.74 3328.22,1910.87 3328.22,1919.1 C3328.22,1926.09 3325.44,1931.89 3319.87,1936.49 C3314.31,1941.1 3307.66,1943.41 3299.93,1943.41 C3293.25,1943.41 3287.45,1941.89 3282.53,1938.86 C3277.62,1935.83 3275.16,1931.62 3275.16,1926.24 C3275.16,1923.52 3276.15,1921.16 3278.13,1919.15 C3280.1,1917.14 3282.47,1916.13 3285.22,1916.13 C3287.98,1916.13 3290.31,1917.12 3292.23,1919.1 C3294.14,1921.08 3295.1,1923.46 3295.1,1926.24 C3295.1,1927.48 3294.08,1928.83 3292.04,1930.28 C3290,1931.73 3288.98,1933.08 3288.98,1934.31 C3288.98,1938.03 3292.63,1939.88 3299.93,1939.88 C3307.04,1939.88 3310.6,1932.95 3310.6,1919.1 C3310.6,1905.74 3307.04,1899.03 3299.93,1898.97 C3293.56,1898.97 3289.1,1900.27 3286.57,1902.86 C3284.03,1905.46 3282.46,1906.76 3281.84,1906.76 C3280.29,1906.76 3279.55,1905.99 3279.61,1904.44 L3279.61,1869.74 C3279.61,1869.06 3279.83,1868.49 3280.26,1868.03 C3280.69,1867.56 3281.22,1867.33 3281.84,1867.33"/>
<path class="FiguredBass" d="M3316.35,2008.8 C3316.35,2009.79 3316.9,2010.75 3318.02,2011.68 C3319.13,2012.6 3320.35,2013.48 3321.68,2014.32 C3323.01,2015.15 3324.23,2016.73 3325.35,2019.05 C3326.46,2021.37 3327.02,2024.29 3327.02,2027.82 C3327.02,2034.62 3324.45,2039.88 3319.32,2043.59 C3314.18,2047.3 3307.69,2049.16 3299.83,2049.16 C3293.53,2049.16 3288.04,2047.58 3283.37,2044.42 C3278.7,2041.27 3276.36,2037.13 3276.36,2031.99 C3276.36,2029.27 3277.35,2026.91 3279.33,2024.9 C3281.31,2022.89 3283.68,2021.88 3286.43,2021.88 C3289.18,2021.88 3291.52,2022.87 3293.43,2024.85 C3295.35,2026.83 3296.31,2029.21 3296.31,2031.99 C3296.31,2033.23 3295.29,2034.58 3293.25,2036.03 C3291.21,2037.48 3290.19,2038.83 3290.19,2040.06 C3290.19,2041.98 3291.13,2043.39 3293.02,2044.29 C3294.9,2045.18 3297.18,2045.63 3299.83,2045.63 C3303.3,2045.63 3305.76,2043.91 3307.21,2040.48 C3308.66,2037.05 3309.39,2032.83 3309.39,2027.82 L3309.39,2025.41 C3309.39,2022.07 3309.28,2019.53 3309.07,2017.8 C3308.85,2016.07 3308.17,2014.52 3307.02,2013.16 C3305.88,2011.8 3304.13,2011.12 3301.78,2011.12 L3289.63,2011.12 C3288.21,2011.12 3287.5,2010.35 3287.5,2008.8 C3287.5,2007.38 3288.21,2006.67 3289.63,2006.67 L3301.78,2006.67 C3304.32,2006.67 3306.3,2005.71 3307.72,2003.79 C3308.22,2003.11 3308.62,2002 3308.93,2000.45 C3309.24,1998.41 3309.39,1995.47 3309.39,1991.64 L3309.39,1990.43 C3309.39,1981.22 3305.99,1976.61 3299.19,1976.61 C3293.19,1976.61 3290.19,1978.28 3290.19,1981.62 C3290.19,1982.73 3291.1,1983.92 3292.92,1985.19 C3294.75,1986.46 3295.66,1987.65 3295.66,1988.76 C3295.66,1991.17 3294.81,1993.24 3293.11,1994.98 C3291.41,1996.71 3289.34,1997.57 3286.89,1997.57 C3284.45,1997.57 3282.39,1996.71 3280.72,1994.98 C3279.05,1993.24 3278.22,1991.17 3278.22,1988.76 C3278.22,1984 3280.29,1980.19 3284.43,1977.35 C3288.58,1974.5 3293.5,1973.08 3299.19,1973.08 C3306.67,1973.08 3312.82,1974.52 3317.65,1977.4 C3322.47,1980.27 3324.88,1984.62 3324.88,1990.43 C3324.88,1994.57 3324.45,1997.79 3323.58,2000.08 C3322.72,2002.37 3321.73,2003.76 3320.62,2004.25 C3319.5,2004.75 3318.51,2005.32 3317.65,2005.97 C3316.78,2006.62 3316.35,2007.56 3316.35,2008.8"/>
<polyline class="FretDiagram" stroke="#0000ff" stroke-width="11.91" stroke-linejoin="bevel" points="1708.45,227.452 1921.56,227.452"/>
<polyline class="FretDiagram" stroke="#0000ff" stroke-width="4.76" stroke-linejoin="bevel" points="1710.83,227.452 1710.83,441.751"/>
<polyline class="FretDiagram" stroke="#0000ff" stroke-width="4.76" stroke-linejoin="bevel" points="1752.5,227.452 1752.5,441.751"/>
<polyline class="FretDiagram" stroke="#0000ff" stroke-width="4.76" stroke-linejoin="bevel" points="1794.17,227.452 1794.17,441.751"/>
<polyline class="FretDiagram" stroke="#0000ff" stroke-width="4.76" stroke-linejoin="bevel" points="1835.84,227.452 1835.84,441.751"/>
<polyline class="FretDiagram" stroke="#0000ff" stroke-width="4.76" stroke-linejoin="bevel" points="1877.51,227.452 1877.51,441.751"/>
<polyline class="FretDiagram" stroke="#0000ff" stroke-width="4.76" stroke-linejoin="bevel" points="1919.18,227.452 1919.18,441.751"/>
<polyline class="FretDiagram" stroke="#0000ff" stroke-width="4.76" stroke-linejoin="bevel" points="1710.83,275.074 1919.18,275.074"/>
<polyline class="FretDiagram" stroke="#0000ff" stroke-width="4.76" stroke-linejoin="bevel" points="1710.83,322.696 1919.18,322.696"/>
<polyline class="FretDiagram" stroke="#0000ff" stroke-width="4.76" stroke-linejoin="bevel" points="1710.83,370.318 1919.18,370.318"/>
<polyline class="FretDiagram" stroke="#0000ff" stroke-width="4.76" stroke-linejoin="bevel" points="1710.83,417.94 1919.18,417.94"/>
<path class="FretDiagram" fill="#0000ff" fill-rule="evenodd" d="M1725.41,298.885 C1725.41,306.94 1718.89,313.469 1710.83,313.469 C1702.78,313.469 1696.25,306.94 1696.25,298.885 C1696.25,290.83 1702.78,284.301 1710.83,284.301 C1718.89,284.301 1725.41,290.83 1725.41,298.885"/>
<polyline class="FretDiagram" fill="none" stroke="#0000ff" stroke-width="6.86" stroke-linecap="round" stroke-linejoin="bevel" points="1735.83,163.162 1769.17,196.498"/>
<polyline class="FretDiagram" fill="none" stroke="#0000ff" stroke-width="6.86" stroke-linecap="round" stroke-linejoin="bevel" points="1735.83,196.498 1769.17,163.162"/>
<path class="FretDiagram" fill="none" stroke="#0000ff" stroke-width="6.86" stroke-linecap="round" stroke-linejoin="bevel" fill-rule="evenodd" d="M1810.84,179.83 C1810.84,189.035 1803.37,196.498 1794.17,196.498 C1784.96,196.498 1777.5,189.035 1777.5,179.83 C1777.5,170.625 1784.96,163.162 1794.17,163.162 C1803.37,163.162 1810.84,170.625 1810.84,179.83"/>
<path class="FretDiagram" fill="none" stroke="#0000ff" stroke-width="6.86" stroke-linecap="round" stroke-linejoin="bevel" fill-rule="evenodd" d="M1852.51,179.83 C1852.51,189.035 1845.04,196.498 1835.84,196.498 C1826.63,196.498 1819.17,189.035 1819.17,179.83 C1819.17,170.625 1826.63,163.162 1835.84,163.162 C1845.04,163.162 1852.51,170.625 1852.51,179.83"/>
<path class="FretDiagram" fill="none" stroke="#0000ff" stroke-width="6.86" stroke-linecap="round" stroke-linejoin="bevel" fill-rule="evenodd" d="M1894.18,179.83 C1894.18,189.035 1886.71,196.498 1877.51,196.498 C1868.3,196.498 1860.84,189.035 1860.84,179.83 C1860.84,170.625 1868.3,163.162 1877.51,163.162 C1886.71,163.162 1894.18,170.625 1894.18,179.83"/>
<polyline class="FretDiagram" fill="none" stroke="#0000ff" stroke-width="6.86" stroke-linecap="round" stroke-linejoin="bevel" points="1902.51,163.162 1935.84,196.498"/>
<polyline class="FretDiagram" fill="none" stroke="#0000ff" stroke-width="6.86" stroke-linecap="round" stroke-linejoin="bevel" points="1902.51,196.498 1935.84,163.162"/>
<polyline class="FretDiagram" fill="#0000ff" stroke="#0000ff" stroke-width="11.91" stroke-linejoin="bevel" points="2254.03,227.452 2467.13,227.452"/>
<polyline class="FretDiagram" fill="#0000ff" stroke="#0000ff" stroke-width="4.76" stroke-linejoin="bevel" points="2256.41,227.452 2256.41,441.751"/>
<polyline class="FretDiagram" fill="#0000ff" stroke="#0000ff" stroke-width="4.76" stroke-linejoin="bevel" points="2298.08,227.452 2298.08,441.751"/>
<polyline class="FretDiagram" fill="#0000ff" stroke="#0000ff" stroke-width="4.76" stroke-linejoin="bevel" points="2339.75,227.452 2339.75,441.751"/>
<polyline class="FretDiagram" fill="#0000ff" stroke="#0000ff" stroke-width="4.76" stroke-linejoin="bevel" points="2381.42,227.452 2381.42,441.751"/>
<polyline class="FretDiagram" fill="#0000ff" stroke="#0000ff" stroke-width="4.76" stroke-linejoin="bevel" points="2423.08,227.452 2423.08,441.751"/>
<polyline class="FretDiagram" fill="#0000ff" stroke="#0000ff" stroke-width="4.76" stroke-linejoin="bevel" points="2464.75,227.452 2464.75,441.751"/>
<polyline class="FretDiagram" fill="#0000ff" stroke="#0000ff" stroke-width="4.76" stroke-linejoin="bevel" points="2256.41,275.074 2464.75,275.074"/>
<polyline class="FretDiagram" fill="#0000ff" stroke="#0000ff" stroke-width="4.76" stroke-linejoin="bevel" points="2256.41,322.696 2464.75,322.696"/>
<polyline class="FretDiagram" fill="#0000ff" stroke="#0000ff" stroke-width="4.76" stroke-linejoin="bevel" points="2256.41,370.318 2464.75,370.318"/>
<polyline class="FretDiagram" fill="#0000ff" stroke="#0000ff" stroke-width="4.76" stroke-linejoin="bevel" points="2256.41,417.94 2464.75,417.94"/>
<path class="FretDiagram" fill="#0000ff" fill-rule="evenodd" d="M2270.99,346.507 C2270.99,354.562 2264.46,361.091 2256.41,361.091 C2248.35,361.091 2241.82,354.562 2241.82,346.507 C2241.82,338.453 2248.35,331.923 2256.41,331.923 C2264.46,331.923 2270.99,338.453 2270.99,346.507"/>
<path class="FretDiagram" fill="#0000ff" fill-rule="evenodd" d="M2312.66,346.507 C2312.66,354.562 2306.13,361.091 2298.08,361.091 C2290.02,361.091 2283.49,354.562 2283.49,346.507 C2283.49,338.453 2290.02,331.923 2298.08,331.923 C2306.13,331.923 2312.66,338.453 2312.66,346.507"/>
<path class="FretDiagram" fill="#0000ff" fill-rule="evenodd" d="M2437.67,346.507 C2437.67,354.562 2431.14,361.091 2423.08,361.091 C2415.03,361.091 2408.5,354.562 2408.5,346.507 C2408.5,338.453 2415.03,331.923 2423.08,331.923 C2431.14,331.923 2437.67,338.453 2437.67,346.507"/>
<polyline class="FretDiagram" fill="none" stroke="#0000ff" stroke-width="6.86" stroke-linecap="round" stroke-linejoin="bevel" points="2323.08,163.162 2356.41,196.498"/>
<polyline class="FretDiagram" fill="none" stroke="#0000ff" stroke-width="6.86" stroke-linecap="round" stroke-linejoin="bevel" points="2323.08,196.498 2356.41,163.162"/>
<path class="FretDiagram" fill="none" stroke="#0000ff" stroke-width="6.86" stroke-linecap="round" stroke-linejoin="bevel" fill-rule="evenodd" d="M2398.08,179.83 C2398.08,189.035 2390.62,196.498 2381.42,196.498 C2372.21,196.498 2364.75,189.035 2364.75,179.83 C2364.75,170.625 2372.21,163.162 2381.42,163.162 C2390.62,163.162 2398.08,170.625 2398.08,179.83"/>
<polyline class="FretDiagram" fill="none" stroke="#0000ff" stroke-width="6.86" stroke-linecap="round" stroke-linejoin="bevel" points="2448.09,163.162 2481.42,196.498"/>
<polyline class="FretDiagram" fill="none" stroke="#0000ff" stroke-width="6.86" stroke-linecap="round" stroke-linejoin="bevel" points="2448.09,196.498 2481.42,163.162"/>
<polyline class="FretDiagram" fill="#0000ff" stroke="#0000ff" stroke-width="11.91" stroke-linejoin="bevel" points="3195.13,227.452 3408.24,227.452"/>
<polyline class="FretDiagram" fill="#0000ff" stroke="#0000ff" stroke-width="4.76" stroke-linejoin="bevel" points="3197.51,227.452 3197.51,441.751"/>
<polyline class="FretDiagram" fill="#0000ff" stroke="#0000ff" stroke-width="4.76" stroke-linejoin="bevel" points="3239.18,227.452 3239.18,441.751"/>
<polyline class="FretDiagram" fill="#0000ff" stroke="#0000ff" stroke-width="4.76" stroke-linejoin="bevel" points="3280.85,227.452 3280.85,441.751"/>
<polyline class="FretDiagram" fill="#0000ff" stroke="#0000ff" stroke-width="4.76" stroke-linejoin="bevel" points="3322.52,227.452 3322.52,441.751"/>
<polyline class="FretDiagram" fill="#0000ff" stroke="#0000ff" stroke-width="4.76" stroke-linejoin="bevel" points="3364.19,227.452 3364.19,441.751"/>
<polyline class="FretDiagram" fill="#0000ff" stroke="#0000ff" stroke-width="4.76" stroke-linejoin="bevel" points="3405.86,227.452 3405.86,441.751"/>
<polyline class="FretDiagram" fill="#0000ff" stroke="#0000ff" stroke-width="4.76" stroke-linejoin="bevel" points="3197.51,275.074 3405.86,275.074"/>
<polyline class="FretDiagram" fill="#0000ff" stroke="#0000ff" stroke-width="4.76" stroke-linejoin="bevel" points="3197.51,322.696 3405.86,322.696"/>
<polyline class="FretDiagram" fill="#0000ff" stroke="#0000ff" stroke-width="4.76" stroke-linejoin="bevel" points="3197.51,370.318 3405.86,370.318"/>
<polyline class="FretDiagram" fill="#0000ff" stroke="#0000ff" stroke-width="4.76" stroke-linejoin="bevel" points="3197.51,417.94 3405.86,417.94"/>
<path class="FretDiagram" fill="#0000ff" fill-rule="evenodd" d="M3212.1,298.885 C3212.1,306.94 3205.57,313.469 3197.51,313.469 C3189.46,313.469 3182.93,306.94 3182.93,298.885 C3182.93,290.83 3189.46,284.301 3197.51,284.301 C3205.57,284.301 3212.1,290.83 3212.1,298.885"/>
<path class="FretDiagram" fill="#0000ff" fill-rule="evenodd" d="M3253.77,251.263 C3253.77,259.318 3247.24,265.847 3239.18,265.847 C3231.13,265.847 3224.6,259.318 3224.6,251.263 C3224.6,243.208 3231.13,236.679 3239.18,236.679 C3247.24,236.679 3253.77,243.208 3253.77,251.263"/>
<path class="FretDiagram" fill="#0000ff" fill-rule="evenodd" d="M3378.78,298.885 C3378.78,306.94 3372.25,313.469 3364.19,313.469 C3356.14,313.469 3349.61,306.94 3349.61,298.885 C3349.61,290.83 3356.14,284.301 3364.19,284.301 C3372.25,284.301 3378.78,290.83 3378.78,298.885"/>
<polyline class="FretDiagram" fill="none" stroke="#0000ff" stroke-width="6.86" stroke-linecap="round" stroke-linejoin="bevel" points="3264.19,163.162 3297.52,196.498"/>
<polyline class="FretDiagram" fill="none" stroke="#0000ff" stroke-width="6.86" stroke-linecap="round" stroke-linejoin="bevel" points="3264.19,196.498 3297.52,163.162"/>
<polyline class="FretDiagram" fill="none" stroke="#0000ff" stroke-width="6.86" stroke-linecap="round" stroke-linejoin="bevel" points="3305.86,163.162 3339.19,196.498"/>
<polyline class="FretDiagram" fill="none" stroke="#0000ff" stroke-width="6.86" stroke-linecap="round" stroke-linejoin="bevel" points="3305.86,196.498 3339.19,163.162"/>
<path class="FretDiagram" fill="none" stroke="#0000ff" stroke-width="6.86" stroke-linecap="round" stroke-linejoin="bevel" fill-rule="evenodd" d="M3422.53,179.83 C3422.53,189.035 3415.07,196.498 3405.86,196.498 C3396.66,196.498 3389.19,189.035 3389.19,179.83 C3389.19,170.625 3396.66,163.162 3405.86,163.162 C3415.07,163.162 3422.53,170.625 3422.53,179.83"/>
<path class="Bracket" transform="matrix(8.6315,0,0,9.45563,76.1283,2337.37)" d="M0.92002,-50 C2.69004,-51.88 6.2,-55.8 6.2,-63 C6.2,-72.1 2.25996,-81.32 2.25996,-86.97 C2.25996,-93.06 5.84004,-98.84 5.95,-99 C6.05996,-99.16 6.05,-99.39 5.94004,-99.46 C5.82998,-99.53 5.62002,-99.47 5.49004,-99.32 C5.35996,-99.17 0,-93.75 0,-85.6 C0,-76.75 3.5,-70.58 3.5,-59.07 C3.5,-56.89 2.55996,-53.36 0.1,-50.33 C-0.0799805,-50.17 -0.1,-49.89 0.0599609,-49.7 L0.0700195,-49.69 L0.1,-49.66 C2.55996,-46.63 3.5,-43.1 3.5,-40.92 C3.5,-29.4 0,-23.24 0,-14.39 C0,-6.25 5.35996,-0.8 5.49004,-0.659961 C5.62002,-0.52002 5.8,-0.42998 5.94004,-0.52002 C6.07998,-0.609961 6.07998,-0.77998 5.95,-0.97998 C5.82002,-1.17998 2.25996,-6.92002 2.25996,-13.01 C2.25996,-18.66 6.2,-27.9 6.2,-37 C6.2,-44.3 2.69004,-48.12 0.92002,-50"/>
</svg>
