<?xml version="1.0" encoding="UTF-8" standalone="no"?>
<svg width="4209.44px" height="2976.38px" viewBox="0 0 4209.44 2976.38"
 xmlns="http://www.w3.org/2000/svg" xmlns:xlink="http://www.w3.org/1999/xlink" version="1.2" baseProfile="tiny">
<title>MiMineur (22)</title>
<desc>Generated by MuseScore 3.6.2</desc>
<polyline class="StaffLines" fill="none" stroke="#000000" stroke-width="6.55" stroke-linejoin="bevel" points="153.819,558.425 4138.58,558.425"/>
<polyline class="StaffLines" fill="none" stroke="#000000" stroke-width="6.55" stroke-linejoin="bevel" points="153.819,647.717 4138.58,647.717"/>
<polyline class="StaffLines" fill="none" stroke="#000000" stroke-width="6.55" stroke-linejoin="bevel" points="153.819,737.008 4138.58,737.008"/>
<polyline class="StaffLines" fill="none" stroke="#000000" stroke-width="6.55" stroke-linejoin="bevel" points="153.819,826.299 4138.58,826.299"/>
<polyline class="StaffLines" fill="none" stroke="#000000" stroke-width="6.55" stroke-linejoin="bevel" points="153.819,915.591 4138.58,915.591"/>
<polyline class="StaffLines" fill="none" stroke="#000000" stroke-width="6.55" stroke-linejoin="bevel" points="153.819,1004.88 4138.58,1004.88"/>
<polyline class="StaffLines" fill="none" stroke="#000000" stroke-width="6.55" stroke-linejoin="bevel" points="153.819,1391.81 4138.58,1391.81"/>
<polyline class="StaffLines" fill="none" stroke="#000000" stroke-width="6.55" stroke-linejoin="bevel" points="153.819,1451.34 4138.58,1451.34"/>
<polyline class="StaffLines" fill="none" stroke="#000000" stroke-width="6.55" stroke-linejoin="bevel" points="153.819,1510.87 4138.58,1510.87"/>
<polyline class="StaffLines" fill="none" stroke="#000000" stroke-width="6.55" stroke-linejoin="bevel" points="153.819,1570.39 4138.58,1570.39"/>
<polyline class="StaffLines" fill="none" stroke="#000000" stroke-width="6.55" stroke-linejoin="bevel" points="153.819,1629.92 4138.58,1629.92"/>
<polyline class="StaffLines" fill="none" stroke="#000000" stroke-width="6.55" stroke-linejoin="bevel" points="153.819,2016.85 4138.58,2016.85"/>
<polyline class="StaffLines" fill="none" stroke="#000000" stroke-width="6.55" stroke-linejoin="bevel" points="153.819,2076.38 4138.58,2076.38"/>
<polyline class="StaffLines" fill="none" stroke="#000000" stroke-width="6.55" stroke-linejoin="bevel" points="153.819,2135.91 4138.58,2135.91"/>
<polyline class="StaffLines" fill="none" stroke="#000000" stroke-width="6.55" stroke-linejoin="bevel" points="153.819,2195.43 4138.58,2195.43"/>
<polyline class="StaffLines" fill="none" stroke="#000000" stroke-width="6.55" stroke-linejoin="bevel" points="153.819,2254.96 4138.58,2254.96"/>
<polyline class="BarLine" fill="none" stroke="#000000" stroke-width="10.71" stroke-linejoin="bevel" points="159.176,2013.58 159.176,2258.23"/>
<polyline class="BarLine" fill="none" stroke="#000000" stroke-width="10.71" stroke-linejoin="bevel" points="958.669,2013.58 958.669,2258.23"/>
<polyline class="BarLine" fill="none" stroke="#000000" stroke-width="10.71" stroke-linejoin="bevel" points="1381.05,2013.58 1381.05,2258.23"/>
<polyline class="BarLine" fill="none" stroke="#000000" stroke-width="10.71" stroke-linejoin="bevel" points="1805.55,2013.58 1805.55,2258.23"/>
<polyline class="BarLine" fill="none" stroke="#000000" stroke-width="10.71" stroke-linejoin="bevel" points="2244.8,2013.58 2244.8,2258.23"/>
<polyline class="BarLine" fill="none" stroke="#000000" stroke-width="10.71" stroke-linejoin="bevel" points="2684.05,2013.58 2684.05,2258.23"/>
<polyline class="BarLine" fill="none" stroke="#000000" stroke-width="10.71" stroke-linejoin="bevel" points="3108.55,2013.58 3108.55,2258.23"/>
<polyline class="BarLine" fill="none" stroke="#000000" stroke-width="10.71" stroke-linejoin="bevel" points="3641.66,2013.58 3641.66,2258.23"/>
<polyline class="BarLine" fill="none" stroke="#000000" stroke-width="10.71" stroke-linejoin="bevel" points="4080.54,2013.58 4080.54,2258.23"/>
<polyline class="BarLine" fill="none" stroke="#000000" stroke-width="32.74" stroke-linejoin="bevel" points="4122.21,2013.58 4122.21,2258.23"/>
<polyline class="BarLine" fill="none" stroke="#000000" stroke-width="10.71" stroke-linejoin="bevel" points="159.176,1388.54 159.176,2016.85"/>
<polyline class="BarLine" fill="none" stroke="#000000" stroke-width="10.71" stroke-linejoin="bevel" points="958.669,1388.54 958.669,1633.2"/>
<polyline class="BarLine" fill="none" stroke="#000000" stroke-width="10.71" stroke-linejoin="bevel" points="1381.05,1388.54 1381.05,1633.2"/>
<polyline class="BarLine" fill="none" stroke="#000000" stroke-width="10.71" stroke-linejoin="bevel" points="1805.55,1388.54 1805.55,1633.2"/>
<polyline class="BarLine" fill="none" stroke="#000000" stroke-width="10.71" stroke-linejoin="bevel" points="2244.8,1388.54 2244.8,1633.2"/>
<polyline class="BarLine" fill="none" stroke="#000000" stroke-width="10.71" stroke-linejoin="bevel" points="2684.05,1388.54 2684.05,1633.2"/>
<polyline class="BarLine" fill="none" stroke="#000000" stroke-width="10.71" stroke-linejoin="bevel" points="3108.55,1388.54 3108.55,1633.2"/>
<polyline class="BarLine" fill="none" stroke="#000000" stroke-width="10.71" stroke-linejoin="bevel" points="3641.66,1388.54 3641.66,1633.2"/>
<polyline class="BarLine" fill="none" stroke="#000000" stroke-width="10.71" stroke-linejoin="bevel" points="4080.54,1388.54 4080.54,1633.2"/>
<polyline class="BarLine" fill="none" stroke="#000000" stroke-width="32.74" stroke-linejoin="bevel" points="4122.21,1388.54 4122.21,1633.2"/>
<polyline class="BarLine" fill="none" stroke="#000000" stroke-width="10.71" stroke-linejoin="bevel" points="159.176,555.151 159.176,1391.81"/>
<polyline class="BarLine" fill="none" stroke="#000000" stroke-width="10.71" stroke-linejoin="bevel" points="958.669,555.151 958.669,1008.16"/>
<polyline class="BarLine" fill="none" stroke="#000000" stroke-width="10.71" stroke-linejoin="bevel" points="1381.05,555.151 1381.05,1008.16"/>
<polyline class="BarLine" fill="none" stroke="#000000" stroke-width="10.71" stroke-linejoin="bevel" points="1805.55,555.151 1805.55,1008.16"/>
<polyline class="BarLine" fill="none" stroke="#000000" stroke-width="10.71" stroke-linejoin="bevel" points="2244.8,555.151 2244.8,1008.16"/>
<polyline class="BarLine" fill="none" stroke="#000000" stroke-width="10.71" stroke-linejoin="bevel" points="2684.05,555.151 2684.05,1008.16"/>
<polyline class="BarLine" fill="none" stroke="#000000" stroke-width="10.71" stroke-linejoin="bevel" points="3108.55,555.151 3108.55,1008.16"/>
<polyline class="BarLine" fill="none" stroke="#000000" stroke-width="10.71" stroke-linejoin="bevel" points="3641.66,555.151 3641.66,1008.16"/>
<polyline class="BarLine" fill="none" stroke="#000000" stroke-width="10.71" stroke-linejoin="bevel" points="4080.54,555.151 4080.54,1008.16"/>
<polyline class="BarLine" fill="none" stroke="#000000" stroke-width="32.74" stroke-linejoin="bevel" points="4122.21,555.151 4122.21,1008.16"/>
<path class="Accidental" transform="matrix(2.3811,0,0,2.3811,1856.98,1451.34)" d="M23.3,-10.6 C23.9,-10.7 24.4,-11.4 24.4,-12 L24.4,-17.9 C24.4,-18.7 23.8,-19.3 23,-19.3 L22.8,-19.3 L19.5,-18.6 L19.5,-33.5 L16.7,-33.5 L16.7,-18 L7.8,-16.2 L7.8,-30.3 L5,-30.3 L5,-15.6 L1.1,-14.8 C0.5,-14.7 0,-14 0,-13.4 L0,-13.2 L0,-7.4 L0,-7.6 C0,-6.8 0.6,-6.2 1.4,-6.2 L1.7,-6.2 L5,-6.9 L5,9.6 L1.1,10.4 C0.5,10.5 0,11.2 0,11.8 L0,17.6 C0,18.4 0.6,19 1.4,19 L1.7,19 L5,18.3 L5,33.2 L7.8,33.2 L7.8,17.7 L16.7,15.9 L16.7,30 L19.5,30 L19.5,15.3 L23.3,14.6 C23.9,14.5 24.4,13.8 24.4,13.2 L24.4,7.3 C24.4,6.5 23.8,5.9 23,5.9 L22.8,5.9 L19.5,6.6 L19.5,-9.9 L23.3,-10.6 M7.8,9.1 L7.8,-7.5 L16.7,-9.3 L16.7,7.2 L7.8,9.1 "/>
<path class="Accidental" transform="matrix(2.3811,0,0,2.3811,2296.23,1451.34)" d="M23.3,-10.6 C23.9,-10.7 24.4,-11.4 24.4,-12 L24.4,-17.9 C24.4,-18.7 23.8,-19.3 23,-19.3 L22.8,-19.3 L19.5,-18.6 L19.5,-33.5 L16.7,-33.5 L16.7,-18 L7.8,-16.2 L7.8,-30.3 L5,-30.3 L5,-15.6 L1.1,-14.8 C0.5,-14.7 0,-14 0,-13.4 L0,-13.2 L0,-7.4 L0,-7.6 C0,-6.8 0.6,-6.2 1.4,-6.2 L1.7,-6.2 L5,-6.9 L5,9.6 L1.1,10.4 C0.5,10.5 0,11.2 0,11.8 L0,17.6 C0,18.4 0.6,19 1.4,19 L1.7,19 L5,18.3 L5,33.2 L7.8,33.2 L7.8,17.7 L16.7,15.9 L16.7,30 L19.5,30 L19.5,15.3 L23.3,14.6 C23.9,14.5 24.4,13.8 24.4,13.2 L24.4,7.3 C24.4,6.5 23.8,5.9 23,5.9 L22.8,5.9 L19.5,6.6 L19.5,-9.9 L23.3,-10.6 M7.8,9.1 L7.8,-7.5 L16.7,-9.3 L16.7,7.2 L7.8,9.1 "/>
<path class="Accidental" transform="matrix(2.3811,0,0,2.3811,3171.42,1451.34)" d="M23.3,-10.6 C23.9,-10.7 24.4,-11.4 24.4,-12 L24.4,-17.9 C24.4,-18.7 23.8,-19.3 23,-19.3 L22.8,-19.3 L19.5,-18.6 L19.5,-33.5 L16.7,-33.5 L16.7,-18 L7.8,-16.2 L7.8,-30.3 L5,-30.3 L5,-15.6 L1.1,-14.8 C0.5,-14.7 0,-14 0,-13.4 L0,-13.2 L0,-7.4 L0,-7.6 C0,-6.8 0.6,-6.2 1.4,-6.2 L1.7,-6.2 L5,-6.9 L5,9.6 L1.1,10.4 C0.5,10.5 0,11.2 0,11.8 L0,17.6 C0,18.4 0.6,19 1.4,19 L1.7,19 L5,18.3 L5,33.2 L7.8,33.2 L7.8,17.7 L16.7,15.9 L16.7,30 L19.5,30 L19.5,15.3 L23.3,14.6 C23.9,14.5 24.4,13.8 24.4,13.2 L24.4,7.3 C24.4,6.5 23.8,5.9 23,5.9 L22.8,5.9 L19.5,6.6 L19.5,-9.9 L23.3,-10.6 M7.8,9.1 L7.8,-7.5 L16.7,-9.3 L16.7,7.2 L7.8,9.1 "/>
<polyline class="LedgerLine" fill="none" stroke="#000000" stroke-width="9.52" stroke-linejoin="bevel" points="3724.41,2314.49 3854.88,2314.49"/>
<path class="Note" transform="matrix(2.3811,0,0,2.3811,636.699,2106.14)" d="M18.7,-13.6 C4.9,-13.6 0,-6.6 0,-0.1 C0,6.4 4.9,13.4 18.7,13.4 C32.5,13.4 37.3,6.4 37.3,-0.1 C37.3,-6.6 32.5,-13.6 18.7,-13.6 M10.4,-4.5 C10.3,-4.9 10.3,-5.3 10.3,-5.7 C10.3,-6.5 10.5,-7.3 10.9,-8 C11.6,-9 12.8,-9.7 14.3,-10 C15.6,-10.3 16.3,-10.5 18.9,-10.5 L19,-10.5 C23,-10.5 24.3,-6.8 25.4,-3 L25.7,-2 C26.5,0.6 26.9,2.8 26.9,4.5 C26.9,5.7 26.7,6.8 26.3,7.6 C25.7,8.7 24.7,9.4 23,9.8 C22.1,10 20.6,10.1 20.6,10.1 C20.1,10.1 19.7,10.2 19.3,10.2 C16.1,10.2 14.1,9 12.7,4.7 C11.5,1 11.3,-0.1 10.4,-4.5"/>
<path class="Note" transform="matrix(2.3811,0,0,2.3811,1047.13,2135.91)" d="M18.7,-13.6 C4.9,-13.6 0,-6.6 0,-0.1 C0,6.4 4.9,13.4 18.7,13.4 C32.5,13.4 37.3,6.4 37.3,-0.1 C37.3,-6.6 32.5,-13.6 18.7,-13.6 M10.4,-4.5 C10.3,-4.9 10.3,-5.3 10.3,-5.7 C10.3,-6.5 10.5,-7.3 10.9,-8 C11.6,-9 12.8,-9.7 14.3,-10 C15.6,-10.3 16.3,-10.5 18.9,-10.5 L19,-10.5 C23,-10.5 24.3,-6.8 25.4,-3 L25.7,-2 C26.5,0.6 26.9,2.8 26.9,4.5 C26.9,5.7 26.7,6.8 26.3,7.6 C25.7,8.7 24.7,9.4 23,9.8 C22.1,10 20.6,10.1 20.6,10.1 C20.1,10.1 19.7,10.2 19.3,10.2 C16.1,10.2 14.1,9 12.7,4.7 C11.5,1 11.3,-0.1 10.4,-4.5"/>
<path class="Note" transform="matrix(2.3811,0,0,2.3811,1463.8,2165.67)" d="M18.7,-13.6 C4.9,-13.6 0,-6.6 0,-0.1 C0,6.4 4.9,13.4 18.7,13.4 C32.5,13.4 37.3,6.4 37.3,-0.1 C37.3,-6.6 32.5,-13.6 18.7,-13.6 M10.4,-4.5 C10.3,-4.9 10.3,-5.3 10.3,-5.7 C10.3,-6.5 10.5,-7.3 10.9,-8 C11.6,-9 12.8,-9.7 14.3,-10 C15.6,-10.3 16.3,-10.5 18.9,-10.5 L19,-10.5 C23,-10.5 24.3,-6.8 25.4,-3 L25.7,-2 C26.5,0.6 26.9,2.8 26.9,4.5 C26.9,5.7 26.7,6.8 26.3,7.6 C25.7,8.7 24.7,9.4 23,9.8 C22.1,10 20.6,10.1 20.6,10.1 C20.1,10.1 19.7,10.2 19.3,10.2 C16.1,10.2 14.1,9 12.7,4.7 C11.5,1 11.3,-0.1 10.4,-4.5"/>
<path class="Note" transform="matrix(2.3811,0,0,2.3811,1929.95,2195.43)" d="M18.7,-13.6 C4.9,-13.6 0,-6.6 0,-0.1 C0,6.4 4.9,13.4 18.7,13.4 C32.5,13.4 37.3,6.4 37.3,-0.1 C37.3,-6.6 32.5,-13.6 18.7,-13.6 M10.4,-4.5 C10.3,-4.9 10.3,-5.3 10.3,-5.7 C10.3,-6.5 10.5,-7.3 10.9,-8 C11.6,-9 12.8,-9.7 14.3,-10 C15.6,-10.3 16.3,-10.5 18.9,-10.5 L19,-10.5 C23,-10.5 24.3,-6.8 25.4,-3 L25.7,-2 C26.5,0.6 26.9,2.8 26.9,4.5 C26.9,5.7 26.7,6.8 26.3,7.6 C25.7,8.7 24.7,9.4 23,9.8 C22.1,10 20.6,10.1 20.6,10.1 C20.1,10.1 19.7,10.2 19.3,10.2 C16.1,10.2 14.1,9 12.7,4.7 C11.5,1 11.3,-0.1 10.4,-4.5"/>
<path class="Note" transform="matrix(2.3811,0,0,2.3811,2369.2,2225.2)" d="M18.7,-13.6 C4.9,-13.6 0,-6.6 0,-0.1 C0,6.4 4.9,13.4 18.7,13.4 C32.5,13.4 37.3,6.4 37.3,-0.1 C37.3,-6.6 32.5,-13.6 18.7,-13.6 M10.4,-4.5 C10.3,-4.9 10.3,-5.3 10.3,-5.7 C10.3,-6.5 10.5,-7.3 10.9,-8 C11.6,-9 12.8,-9.7 14.3,-10 C15.6,-10.3 16.3,-10.5 18.9,-10.5 L19,-10.5 C23,-10.5 24.3,-6.8 25.4,-3 L25.7,-2 C26.5,0.6 26.9,2.8 26.9,4.5 C26.9,5.7 26.7,6.8 26.3,7.6 C25.7,8.7 24.7,9.4 23,9.8 C22.1,10 20.6,10.1 20.6,10.1 C20.1,10.1 19.7,10.2 19.3,10.2 C16.1,10.2 14.1,9 12.7,4.7 C11.5,1 11.3,-0.1 10.4,-4.5"/>
<path class="Note" transform="matrix(2.3811,0,0,2.3811,2772.52,2254.96)" d="M18.7,-13.6 C4.9,-13.6 0,-6.6 0,-0.1 C0,6.4 4.9,13.4 18.7,13.4 C32.5,13.4 37.3,6.4 37.3,-0.1 C37.3,-6.6 32.5,-13.6 18.7,-13.6 M10.4,-4.5 C10.3,-4.9 10.3,-5.3 10.3,-5.7 C10.3,-6.5 10.5,-7.3 10.9,-8 C11.6,-9 12.8,-9.7 14.3,-10 C15.6,-10.3 16.3,-10.5 18.9,-10.5 L19,-10.5 C23,-10.5 24.3,-6.8 25.4,-3 L25.7,-2 C26.5,0.6 26.9,2.8 26.9,4.5 C26.9,5.7 26.7,6.8 26.3,7.6 C25.7,8.7 24.7,9.4 23,9.8 C22.1,10 20.6,10.1 20.6,10.1 C20.1,10.1 19.7,10.2 19.3,10.2 C16.1,10.2 14.1,9 12.7,4.7 C11.5,1 11.3,-0.1 10.4,-4.5"/>
<path class="Note" transform="matrix(2.3811,0,0,2.3811,3332.37,2076.38)" d="M18.7,-13.6 C4.9,-13.6 0,-6.6 0,-0.1 C0,6.4 4.9,13.4 18.7,13.4 C32.5,13.4 37.3,6.4 37.3,-0.1 C37.3,-6.6 32.5,-13.6 18.7,-13.6 M10.4,-4.5 C10.3,-4.9 10.3,-5.3 10.3,-5.7 C10.3,-6.5 10.5,-7.3 10.9,-8 C11.6,-9 12.8,-9.7 14.3,-10 C15.6,-10.3 16.3,-10.5 18.9,-10.5 L19,-10.5 C23,-10.5 24.3,-6.8 25.4,-3 L25.7,-2 C26.5,0.6 26.9,2.8 26.9,4.5 C26.9,5.7 26.7,6.8 26.3,7.6 C25.7,8.7 24.7,9.4 23,9.8 C22.1,10 20.6,10.1 20.6,10.1 C20.1,10.1 19.7,10.2 19.3,10.2 C16.1,10.2 14.1,9 12.7,4.7 C11.5,1 11.3,-0.1 10.4,-4.5"/>
<path class="Note" transform="matrix(2.3811,0,0,2.3811,3745.24,2314.49)" d="M18.7,-13.6 C4.9,-13.6 0,-6.6 0,-0.1 C0,6.4 4.9,13.4 18.7,13.4 C32.5,13.4 37.3,6.4 37.3,-0.1 C37.3,-6.6 32.5,-13.6 18.7,-13.6 M10.4,-4.5 C10.3,-4.9 10.3,-5.3 10.3,-5.7 C10.3,-6.5 10.5,-7.3 10.9,-8 C11.6,-9 12.8,-9.7 14.3,-10 C15.6,-10.3 16.3,-10.5 18.9,-10.5 L19,-10.5 C23,-10.5 24.3,-6.8 25.4,-3 L25.7,-2 C26.5,0.6 26.9,2.8 26.9,4.5 C26.9,5.7 26.7,6.8 26.3,7.6 C25.7,8.7 24.7,9.4 23,9.8 C22.1,10 20.6,10.1 20.6,10.1 C20.1,10.1 19.7,10.2 19.3,10.2 C16.1,10.2 14.1,9 12.7,4.7 C11.5,1 11.3,-0.1 10.4,-4.5"/>
<path class="Note" transform="matrix(2.3811,0,0,2.3811,636.699,1570.39)" d="M18.7,-13.6 C4.9,-13.6 0,-6.6 0,-0.1 C0,6.4 4.9,13.4 18.7,13.4 C32.5,13.4 37.3,6.4 37.3,-0.1 C37.3,-6.6 32.5,-13.6 18.7,-13.6 M10.4,-4.5 C10.3,-4.9 10.3,-5.3 10.3,-5.7 C10.3,-6.5 10.5,-7.3 10.9,-8 C11.6,-9 12.8,-9.7 14.3,-10 C15.6,-10.3 16.3,-10.5 18.9,-10.5 L19,-10.5 C23,-10.5 24.3,-6.8 25.4,-3 L25.7,-2 C26.5,0.6 26.9,2.8 26.9,4.5 C26.9,5.7 26.7,6.8 26.3,7.6 C25.7,8.7 24.7,9.4 23,9.8 C22.1,10 20.6,10.1 20.6,10.1 C20.1,10.1 19.7,10.2 19.3,10.2 C16.1,10.2 14.1,9 12.7,4.7 C11.5,1 11.3,-0.1 10.4,-4.5"/>
<path class="Note" transform="matrix(2.3811,0,0,2.3811,636.699,1510.87)" d="M18.7,-13.6 C4.9,-13.6 0,-6.6 0,-0.1 C0,6.4 4.9,13.4 18.7,13.4 C32.5,13.4 37.3,6.4 37.3,-0.1 C37.3,-6.6 32.5,-13.6 18.7,-13.6 M10.4,-4.5 C10.3,-4.9 10.3,-5.3 10.3,-5.7 C10.3,-6.5 10.5,-7.3 10.9,-8 C11.6,-9 12.8,-9.7 14.3,-10 C15.6,-10.3 16.3,-10.5 18.9,-10.5 L19,-10.5 C23,-10.5 24.3,-6.8 25.4,-3 L25.7,-2 C26.5,0.6 26.9,2.8 26.9,4.5 C26.9,5.7 26.7,6.8 26.3,7.6 C25.7,8.7 24.7,9.4 23,9.8 C22.1,10 20.6,10.1 20.6,10.1 C20.1,10.1 19.7,10.2 19.3,10.2 C16.1,10.2 14.1,9 12.7,4.7 C11.5,1 11.3,-0.1 10.4,-4.5"/>
<path class="Note" transform="matrix(2.3811,0,0,2.3811,636.699,1421.57)" d="M18.7,-13.6 C4.9,-13.6 0,-6.6 0,-0.1 C0,6.4 4.9,13.4 18.7,13.4 C32.5,13.4 37.3,6.4 37.3,-0.1 C37.3,-6.6 32.5,-13.6 18.7,-13.6 M10.4,-4.5 C10.3,-4.9 10.3,-5.3 10.3,-5.7 C10.3,-6.5 10.5,-7.3 10.9,-8 C11.6,-9 12.8,-9.7 14.3,-10 C15.6,-10.3 16.3,-10.5 18.9,-10.5 L19,-10.5 C23,-10.5 24.3,-6.8 25.4,-3 L25.7,-2 C26.5,0.6 26.9,2.8 26.9,4.5 C26.9,5.7 26.7,6.8 26.3,7.6 C25.7,8.7 24.7,9.4 23,9.8 C22.1,10 20.6,10.1 20.6,10.1 C20.1,10.1 19.7,10.2 19.3,10.2 C16.1,10.2 14.1,9 12.7,4.7 C11.5,1 11.3,-0.1 10.4,-4.5"/>
<path class="Note" transform="matrix(2.3811,0,0,2.3811,1047.13,1510.87)" d="M18.7,-13.6 C4.9,-13.6 0,-6.6 0,-0.1 C0,6.4 4.9,13.4 18.7,13.4 C32.5,13.4 37.3,6.4 37.3,-0.1 C37.3,-6.6 32.5,-13.6 18.7,-13.6 M10.4,-4.5 C10.3,-4.9 10.3,-5.3 10.3,-5.7 C10.3,-6.5 10.5,-7.3 10.9,-8 C11.6,-9 12.8,-9.7 14.3,-10 C15.6,-10.3 16.3,-10.5 18.9,-10.5 L19,-10.5 C23,-10.5 24.3,-6.8 25.4,-3 L25.7,-2 C26.5,0.6 26.9,2.8 26.9,4.5 C26.9,5.7 26.7,6.8 26.3,7.6 C25.7,8.7 24.7,9.4 23,9.8 C22.1,10 20.6,10.1 20.6,10.1 C20.1,10.1 19.7,10.2 19.3,10.2 C16.1,10.2 14.1,9 12.7,4.7 C11.5,1 11.3,-0.1 10.4,-4.5"/>
<path class="Note" transform="matrix(2.3811,0,0,2.3811,1047.13,1391.81)" d="M18.7,-13.6 C4.9,-13.6 0,-6.6 0,-0.1 C0,6.4 4.9,13.4 18.7,13.4 C32.5,13.4 37.3,6.4 37.3,-0.1 C37.3,-6.6 32.5,-13.6 18.7,-13.6 M10.4,-4.5 C10.3,-4.9 10.3,-5.3 10.3,-5.7 C10.3,-6.5 10.5,-7.3 10.9,-8 C11.6,-9 12.8,-9.7 14.3,-10 C15.6,-10.3 16.3,-10.5 18.9,-10.5 L19,-10.5 C23,-10.5 24.3,-6.8 25.4,-3 L25.7,-2 C26.5,0.6 26.9,2.8 26.9,4.5 C26.9,5.7 26.7,6.8 26.3,7.6 C25.7,8.7 24.7,9.4 23,9.8 C22.1,10 20.6,10.1 20.6,10.1 C20.1,10.1 19.7,10.2 19.3,10.2 C16.1,10.2 14.1,9 12.7,4.7 C11.5,1 11.3,-0.1 10.4,-4.5"/>
<path class="Note" transform="matrix(2.3811,0,0,2.3811,1463.8,1600.16)" d="M18.7,-13.6 C4.9,-13.6 0,-6.6 0,-0.1 C0,6.4 4.9,13.4 18.7,13.4 C32.5,13.4 37.3,6.4 37.3,-0.1 C37.3,-6.6 32.5,-13.6 18.7,-13.6 M10.4,-4.5 C10.3,-4.9 10.3,-5.3 10.3,-5.7 C10.3,-6.5 10.5,-7.3 10.9,-8 C11.6,-9 12.8,-9.7 14.3,-10 C15.6,-10.3 16.3,-10.5 18.9,-10.5 L19,-10.5 C23,-10.5 24.3,-6.8 25.4,-3 L25.7,-2 C26.5,0.6 26.9,2.8 26.9,4.5 C26.9,5.7 26.7,6.8 26.3,7.6 C25.7,8.7 24.7,9.4 23,9.8 C22.1,10 20.6,10.1 20.6,10.1 C20.1,10.1 19.7,10.2 19.3,10.2 C16.1,10.2 14.1,9 12.7,4.7 C11.5,1 11.3,-0.1 10.4,-4.5"/>
<path class="Note" transform="matrix(2.3811,0,0,2.3811,1463.8,1540.63)" d="M18.7,-13.6 C4.9,-13.6 0,-6.6 0,-0.1 C0,6.4 4.9,13.4 18.7,13.4 C32.5,13.4 37.3,6.4 37.3,-0.1 C37.3,-6.6 32.5,-13.6 18.7,-13.6 M10.4,-4.5 C10.3,-4.9 10.3,-5.3 10.3,-5.7 C10.3,-6.5 10.5,-7.3 10.9,-8 C11.6,-9 12.8,-9.7 14.3,-10 C15.6,-10.3 16.3,-10.5 18.9,-10.5 L19,-10.5 C23,-10.5 24.3,-6.8 25.4,-3 L25.7,-2 C26.5,0.6 26.9,2.8 26.9,4.5 C26.9,5.7 26.7,6.8 26.3,7.6 C25.7,8.7 24.7,9.4 23,9.8 C22.1,10 20.6,10.1 20.6,10.1 C20.1,10.1 19.7,10.2 19.3,10.2 C16.1,10.2 14.1,9 12.7,4.7 C11.5,1 11.3,-0.1 10.4,-4.5"/>
<path class="Note" transform="matrix(2.3811,0,0,2.3811,1463.8,1421.57)" d="M18.7,-13.6 C4.9,-13.6 0,-6.6 0,-0.1 C0,6.4 4.9,13.4 18.7,13.4 C32.5,13.4 37.3,6.4 37.3,-0.1 C37.3,-6.6 32.5,-13.6 18.7,-13.6 M10.4,-4.5 C10.3,-4.9 10.3,-5.3 10.3,-5.7 C10.3,-6.5 10.5,-7.3 10.9,-8 C11.6,-9 12.8,-9.7 14.3,-10 C15.6,-10.3 16.3,-10.5 18.9,-10.5 L19,-10.5 C23,-10.5 24.3,-6.8 25.4,-3 L25.7,-2 C26.5,0.6 26.9,2.8 26.9,4.5 C26.9,5.7 26.7,6.8 26.3,7.6 C25.7,8.7 24.7,9.4 23,9.8 C22.1,10 20.6,10.1 20.6,10.1 C20.1,10.1 19.7,10.2 19.3,10.2 C16.1,10.2 14.1,9 12.7,4.7 C11.5,1 11.3,-0.1 10.4,-4.5"/>
<path class="Note" transform="matrix(2.3811,0,0,2.3811,1929.95,1600.16)" d="M18.7,-13.6 C4.9,-13.6 0,-6.6 0,-0.1 C0,6.4 4.9,13.4 18.7,13.4 C32.5,13.4 37.3,6.4 37.3,-0.1 C37.3,-6.6 32.5,-13.6 18.7,-13.6 M10.4,-4.5 C10.3,-4.9 10.3,-5.3 10.3,-5.7 C10.3,-6.5 10.5,-7.3 10.9,-8 C11.6,-9 12.8,-9.7 14.3,-10 C15.6,-10.3 16.3,-10.5 18.9,-10.5 L19,-10.5 C23,-10.5 24.3,-6.8 25.4,-3 L25.7,-2 C26.5,0.6 26.9,2.8 26.9,4.5 C26.9,5.7 26.7,6.8 26.3,7.6 C25.7,8.7 24.7,9.4 23,9.8 C22.1,10 20.6,10.1 20.6,10.1 C20.1,10.1 19.7,10.2 19.3,10.2 C16.1,10.2 14.1,9 12.7,4.7 C11.5,1 11.3,-0.1 10.4,-4.5"/>
<path class="Note" transform="matrix(2.3811,0,0,2.3811,1929.95,1510.87)" d="M18.7,-13.6 C4.9,-13.6 0,-6.6 0,-0.1 C0,6.4 4.9,13.4 18.7,13.4 C32.5,13.4 37.3,6.4 37.3,-0.1 C37.3,-6.6 32.5,-13.6 18.7,-13.6 M10.4,-4.5 C10.3,-4.9 10.3,-5.3 10.3,-5.7 C10.3,-6.5 10.5,-7.3 10.9,-8 C11.6,-9 12.8,-9.7 14.3,-10 C15.6,-10.3 16.3,-10.5 18.9,-10.5 L19,-10.5 C23,-10.5 24.3,-6.8 25.4,-3 L25.7,-2 C26.5,0.6 26.9,2.8 26.9,4.5 C26.9,5.7 26.7,6.8 26.3,7.6 C25.7,8.7 24.7,9.4 23,9.8 C22.1,10 20.6,10.1 20.6,10.1 C20.1,10.1 19.7,10.2 19.3,10.2 C16.1,10.2 14.1,9 12.7,4.7 C11.5,1 11.3,-0.1 10.4,-4.5"/>
<path class="Note" transform="matrix(2.3811,0,0,2.3811,1929.95,1451.34)" d="M18.7,-13.6 C4.9,-13.6 0,-6.6 0,-0.1 C0,6.4 4.9,13.4 18.7,13.4 C32.5,13.4 37.3,6.4 37.3,-0.1 C37.3,-6.6 32.5,-13.6 18.7,-13.6 M10.4,-4.5 C10.3,-4.9 10.3,-5.3 10.3,-5.7 C10.3,-6.5 10.5,-7.3 10.9,-8 C11.6,-9 12.8,-9.7 14.3,-10 C15.6,-10.3 16.3,-10.5 18.9,-10.5 L19,-10.5 C23,-10.5 24.3,-6.8 25.4,-3 L25.7,-2 C26.5,0.6 26.9,2.8 26.9,4.5 C26.9,5.7 26.7,6.8 26.3,7.6 C25.7,8.7 24.7,9.4 23,9.8 C22.1,10 20.6,10.1 20.6,10.1 C20.1,10.1 19.7,10.2 19.3,10.2 C16.1,10.2 14.1,9 12.7,4.7 C11.5,1 11.3,-0.1 10.4,-4.5"/>
<path class="Note" transform="matrix(2.3811,0,0,2.3811,2369.2,1600.16)" d="M18.7,-13.6 C4.9,-13.6 0,-6.6 0,-0.1 C0,6.4 4.9,13.4 18.7,13.4 C32.5,13.4 37.3,6.4 37.3,-0.1 C37.3,-6.6 32.5,-13.6 18.7,-13.6 M10.4,-4.5 C10.3,-4.9 10.3,-5.3 10.3,-5.7 C10.3,-6.5 10.5,-7.3 10.9,-8 C11.6,-9 12.8,-9.7 14.3,-10 C15.6,-10.3 16.3,-10.5 18.9,-10.5 L19,-10.5 C23,-10.5 24.3,-6.8 25.4,-3 L25.7,-2 C26.5,0.6 26.9,2.8 26.9,4.5 C26.9,5.7 26.7,6.8 26.3,7.6 C25.7,8.7 24.7,9.4 23,9.8 C22.1,10 20.6,10.1 20.6,10.1 C20.1,10.1 19.7,10.2 19.3,10.2 C16.1,10.2 14.1,9 12.7,4.7 C11.5,1 11.3,-0.1 10.4,-4.5"/>
<path class="Note" transform="matrix(2.3811,0,0,2.3811,2369.2,1510.87)" d="M18.7,-13.6 C4.9,-13.6 0,-6.6 0,-0.1 C0,6.4 4.9,13.4 18.7,13.4 C32.5,13.4 37.3,6.4 37.3,-0.1 C37.3,-6.6 32.5,-13.6 18.7,-13.6 M10.4,-4.5 C10.3,-4.9 10.3,-5.3 10.3,-5.7 C10.3,-6.5 10.5,-7.3 10.9,-8 C11.6,-9 12.8,-9.7 14.3,-10 C15.6,-10.3 16.3,-10.5 18.9,-10.5 L19,-10.5 C23,-10.5 24.3,-6.8 25.4,-3 L25.7,-2 C26.5,0.6 26.9,2.8 26.9,4.5 C26.9,5.7 26.7,6.8 26.3,7.6 C25.7,8.7 24.7,9.4 23,9.8 C22.1,10 20.6,10.1 20.6,10.1 C20.1,10.1 19.7,10.2 19.3,10.2 C16.1,10.2 14.1,9 12.7,4.7 C11.5,1 11.3,-0.1 10.4,-4.5"/>
<path class="Note" transform="matrix(2.3811,0,0,2.3811,2369.2,1451.34)" d="M18.7,-13.6 C4.9,-13.6 0,-6.6 0,-0.1 C0,6.4 4.9,13.4 18.7,13.4 C32.5,13.4 37.3,6.4 37.3,-0.1 C37.3,-6.6 32.5,-13.6 18.7,-13.6 M10.4,-4.5 C10.3,-4.9 10.3,-5.3 10.3,-5.7 C10.3,-6.5 10.5,-7.3 10.9,-8 C11.6,-9 12.8,-9.7 14.3,-10 C15.6,-10.3 16.3,-10.5 18.9,-10.5 L19,-10.5 C23,-10.5 24.3,-6.8 25.4,-3 L25.7,-2 C26.5,0.6 26.9,2.8 26.9,4.5 C26.9,5.7 26.7,6.8 26.3,7.6 C25.7,8.7 24.7,9.4 23,9.8 C22.1,10 20.6,10.1 20.6,10.1 C20.1,10.1 19.7,10.2 19.3,10.2 C16.1,10.2 14.1,9 12.7,4.7 C11.5,1 11.3,-0.1 10.4,-4.5"/>
<path class="Note" transform="matrix(2.3811,0,0,2.3811,2772.52,1570.39)" d="M18.7,-13.6 C4.9,-13.6 0,-6.6 0,-0.1 C0,6.4 4.9,13.4 18.7,13.4 C32.5,13.4 37.3,6.4 37.3,-0.1 C37.3,-6.6 32.5,-13.6 18.7,-13.6 M10.4,-4.5 C10.3,-4.9 10.3,-5.3 10.3,-5.7 C10.3,-6.5 10.5,-7.3 10.9,-8 C11.6,-9 12.8,-9.7 14.3,-10 C15.6,-10.3 16.3,-10.5 18.9,-10.5 L19,-10.5 C23,-10.5 24.3,-6.8 25.4,-3 L25.7,-2 C26.5,0.6 26.9,2.8 26.9,4.5 C26.9,5.7 26.7,6.8 26.3,7.6 C25.7,8.7 24.7,9.4 23,9.8 C22.1,10 20.6,10.1 20.6,10.1 C20.1,10.1 19.7,10.2 19.3,10.2 C16.1,10.2 14.1,9 12.7,4.7 C11.5,1 11.3,-0.1 10.4,-4.5"/>
<path class="Note" transform="matrix(2.3811,0,0,2.3811,2772.52,1510.87)" d="M18.7,-13.6 C4.9,-13.6 0,-6.6 0,-0.1 C0,6.4 4.9,13.4 18.7,13.4 C32.5,13.4 37.3,6.4 37.3,-0.1 C37.3,-6.6 32.5,-13.6 18.7,-13.6 M10.4,-4.5 C10.3,-4.9 10.3,-5.3 10.3,-5.7 C10.3,-6.5 10.5,-7.3 10.9,-8 C11.6,-9 12.8,-9.7 14.3,-10 C15.6,-10.3 16.3,-10.5 18.9,-10.5 L19,-10.5 C23,-10.5 24.3,-6.8 25.4,-3 L25.7,-2 C26.5,0.6 26.9,2.8 26.9,4.5 C26.9,5.7 26.7,6.8 26.3,7.6 C25.7,8.7 24.7,9.4 23,9.8 C22.1,10 20.6,10.1 20.6,10.1 C20.1,10.1 19.7,10.2 19.3,10.2 C16.1,10.2 14.1,9 12.7,4.7 C11.5,1 11.3,-0.1 10.4,-4.5"/>
<path class="Note" transform="matrix(2.3811,0,0,2.3811,2772.52,1421.57)" d="M18.7,-13.6 C4.9,-13.6 0,-6.6 0,-0.1 C0,6.4 4.9,13.4 18.7,13.4 C32.5,13.4 37.3,6.4 37.3,-0.1 C37.3,-6.6 32.5,-13.6 18.7,-13.6 M10.4,-4.5 C10.3,-4.9 10.3,-5.3 10.3,-5.7 C10.3,-6.5 10.5,-7.3 10.9,-8 C11.6,-9 12.8,-9.7 14.3,-10 C15.6,-10.3 16.3,-10.5 18.9,-10.5 L19,-10.5 C23,-10.5 24.3,-6.8 25.4,-3 L25.7,-2 C26.5,0.6 26.9,2.8 26.9,4.5 C26.9,5.7 26.7,6.8 26.3,7.6 C25.7,8.7 24.7,9.4 23,9.8 C22.1,10 20.6,10.1 20.6,10.1 C20.1,10.1 19.7,10.2 19.3,10.2 C16.1,10.2 14.1,9 12.7,4.7 C11.5,1 11.3,-0.1 10.4,-4.5"/>
<path class="Note" transform="matrix(2.3811,0,0,2.3811,3250.11,1540.63)" d="M18.7,-13.6 C4.9,-13.6 0,-6.6 0,-0.1 C0,6.4 4.9,13.4 18.7,13.4 C32.5,13.4 37.3,6.4 37.3,-0.1 C37.3,-6.6 32.5,-13.6 18.7,-13.6 M10.4,-4.5 C10.3,-4.9 10.3,-5.3 10.3,-5.7 C10.3,-6.5 10.5,-7.3 10.9,-8 C11.6,-9 12.8,-9.7 14.3,-10 C15.6,-10.3 16.3,-10.5 18.9,-10.5 L19,-10.5 C23,-10.5 24.3,-6.8 25.4,-3 L25.7,-2 C26.5,0.6 26.9,2.8 26.9,4.5 C26.9,5.7 26.7,6.8 26.3,7.6 C25.7,8.7 24.7,9.4 23,9.8 C22.1,10 20.6,10.1 20.6,10.1 C20.1,10.1 19.7,10.2 19.3,10.2 C16.1,10.2 14.1,9 12.7,4.7 C11.5,1 11.3,-0.1 10.4,-4.5"/>
<path class="Note" transform="matrix(2.3811,0,0,2.3811,3332.37,1510.87)" d="M18.7,-13.6 C4.9,-13.6 0,-6.6 0,-0.1 C0,6.4 4.9,13.4 18.7,13.4 C32.5,13.4 37.3,6.4 37.3,-0.1 C37.3,-6.6 32.5,-13.6 18.7,-13.6 M10.4,-4.5 C10.3,-4.9 10.3,-5.3 10.3,-5.7 C10.3,-6.5 10.5,-7.3 10.9,-8 C11.6,-9 12.8,-9.7 14.3,-10 C15.6,-10.3 16.3,-10.5 18.9,-10.5 L19,-10.5 C23,-10.5 24.3,-6.8 25.4,-3 L25.7,-2 C26.5,0.6 26.9,2.8 26.9,4.5 C26.9,5.7 26.7,6.8 26.3,7.6 C25.7,8.7 24.7,9.4 23,9.8 C22.1,10 20.6,10.1 20.6,10.1 C20.1,10.1 19.7,10.2 19.3,10.2 C16.1,10.2 14.1,9 12.7,4.7 C11.5,1 11.3,-0.1 10.4,-4.5"/>
<path class="Note" transform="matrix(2.3811,0,0,2.3811,3332.37,1451.34)" d="M18.7,-13.6 C4.9,-13.6 0,-6.6 0,-0.1 C0,6.4 4.9,13.4 18.7,13.4 C32.5,13.4 37.3,6.4 37.3,-0.1 C37.3,-6.6 32.5,-13.6 18.7,-13.6 M10.4,-4.5 C10.3,-4.9 10.3,-5.3 10.3,-5.7 C10.3,-6.5 10.5,-7.3 10.9,-8 C11.6,-9 12.8,-9.7 14.3,-10 C15.6,-10.3 16.3,-10.5 18.9,-10.5 L19,-10.5 C23,-10.5 24.3,-6.8 25.4,-3 L25.7,-2 C26.5,0.6 26.9,2.8 26.9,4.5 C26.9,5.7 26.7,6.8 26.3,7.6 C25.7,8.7 24.7,9.4 23,9.8 C22.1,10 20.6,10.1 20.6,10.1 C20.1,10.1 19.7,10.2 19.3,10.2 C16.1,10.2 14.1,9 12.7,4.7 C11.5,1 11.3,-0.1 10.4,-4.5"/>
<path class="Note" transform="matrix(2.3811,0,0,2.3811,3745.24,1570.39)" d="M18.7,-13.6 C4.9,-13.6 0,-6.6 0,-0.1 C0,6.4 4.9,13.4 18.7,13.4 C32.5,13.4 37.3,6.4 37.3,-0.1 C37.3,-6.6 32.5,-13.6 18.7,-13.6 M10.4,-4.5 C10.3,-4.9 10.3,-5.3 10.3,-5.7 C10.3,-6.5 10.5,-7.3 10.9,-8 C11.6,-9 12.8,-9.7 14.3,-10 C15.6,-10.3 16.3,-10.5 18.9,-10.5 L19,-10.5 C23,-10.5 24.3,-6.8 25.4,-3 L25.7,-2 C26.5,0.6 26.9,2.8 26.9,4.5 C26.9,5.7 26.7,6.8 26.3,7.6 C25.7,8.7 24.7,9.4 23,9.8 C22.1,10 20.6,10.1 20.6,10.1 C20.1,10.1 19.7,10.2 19.3,10.2 C16.1,10.2 14.1,9 12.7,4.7 C11.5,1 11.3,-0.1 10.4,-4.5"/>
<path class="Note" transform="matrix(2.3811,0,0,2.3811,3745.24,1510.87)" d="M18.7,-13.6 C4.9,-13.6 0,-6.6 0,-0.1 C0,6.4 4.9,13.4 18.7,13.4 C32.5,13.4 37.3,6.4 37.3,-0.1 C37.3,-6.6 32.5,-13.6 18.7,-13.6 M10.4,-4.5 C10.3,-4.9 10.3,-5.3 10.3,-5.7 C10.3,-6.5 10.5,-7.3 10.9,-8 C11.6,-9 12.8,-9.7 14.3,-10 C15.6,-10.3 16.3,-10.5 18.9,-10.5 L19,-10.5 C23,-10.5 24.3,-6.8 25.4,-3 L25.7,-2 C26.5,0.6 26.9,2.8 26.9,4.5 C26.9,5.7 26.7,6.8 26.3,7.6 C25.7,8.7 24.7,9.4 23,9.8 C22.1,10 20.6,10.1 20.6,10.1 C20.1,10.1 19.7,10.2 19.3,10.2 C16.1,10.2 14.1,9 12.7,4.7 C11.5,1 11.3,-0.1 10.4,-4.5"/>
<path class="Note" transform="matrix(2.3811,0,0,2.3811,3745.24,1421.57)" d="M18.7,-13.6 C4.9,-13.6 0,-6.6 0,-0.1 C0,6.4 4.9,13.4 18.7,13.4 C32.5,13.4 37.3,6.4 37.3,-0.1 C37.3,-6.6 32.5,-13.6 18.7,-13.6 M10.4,-4.5 C10.3,-4.9 10.3,-5.3 10.3,-5.7 C10.3,-6.5 10.5,-7.3 10.9,-8 C11.6,-9 12.8,-9.7 14.3,-10 C15.6,-10.3 16.3,-10.5 18.9,-10.5 L19,-10.5 C23,-10.5 24.3,-6.8 25.4,-3 L25.7,-2 C26.5,0.6 26.9,2.8 26.9,4.5 C26.9,5.7 26.7,6.8 26.3,7.6 C25.7,8.7 24.7,9.4 23,9.8 C22.1,10 20.6,10.1 20.6,10.1 C20.1,10.1 19.7,10.2 19.3,10.2 C16.1,10.2 14.1,9 12.7,4.7 C11.5,1 11.3,-0.1 10.4,-4.5"/>
<path class="Note" d="M671.242,910.409 C667.446,910.409 665.547,906.342 665.547,898.207 L665.547,864.157 C665.547,860.903 667.136,859.276 670.312,859.276 C671.707,859.276 672.753,859.392 673.45,859.625 C675.929,855.286 679.996,851.645 685.652,848.701 C693.554,844.595 701.573,842.542 709.708,842.542 C716.138,842.542 719.353,844.943 719.353,849.747 C719.353,853.776 717.184,855.79 712.845,855.79 C709.746,855.79 706.802,855.093 704.013,853.698 C701.534,852.458 698.9,851.839 696.111,851.839 C691.308,851.839 684.219,854.976 674.844,861.252 C676.161,867.527 676.82,874.848 676.82,883.216 C676.82,901.345 674.961,910.409 671.242,910.409"/>
<path class="Note" d="M604.43,587.916 C604.739,576.217 611.209,565.836 623.837,556.771 C635.07,548.714 647.35,544.685 660.676,544.685 C679.347,544.685 695.81,552.007 710.065,566.649 C719.13,576.024 723.662,587.645 723.662,601.513 C723.662,613.986 720.331,623.554 713.668,630.217 C705.533,638.429 696.933,642.535 687.869,642.535 C681.671,642.535 676.868,641.14 673.459,638.351 C667.881,633.78 665.092,627.66 665.092,619.99 C665.092,610.073 670.05,601.009 679.967,592.797 C688.101,586.056 696.275,581.64 704.487,579.549 C702.318,575.83 699.568,572.344 696.236,569.09 C685.855,558.941 674.079,553.866 660.908,553.866 C647.195,553.866 635.845,556.849 626.858,562.814 C617.561,568.935 610.085,577.302 604.43,587.916 M707.392,585.708 C703.131,589.659 698.87,593.881 694.609,598.375 C686.242,607.207 682.058,615.574 682.058,623.476 C682.058,631.921 683.995,636.143 687.869,636.143 C691.355,636.143 696.236,631.379 702.512,621.849 C707.547,614.257 710.065,607.284 710.065,600.931 C710.065,595.508 709.174,590.434 707.392,585.708"/>
<path class="Note" d="M671.242,553.244 C667.446,553.244 665.547,549.176 665.547,541.041 L665.547,506.992 C665.547,503.738 667.136,502.111 670.312,502.111 C671.707,502.111 672.753,502.227 673.45,502.459 C675.929,498.121 679.996,494.48 685.652,491.536 C693.554,487.43 701.573,485.376 709.708,485.376 C716.138,485.376 719.353,487.778 719.353,492.582 C719.353,496.61 717.184,498.624 712.845,498.624 C709.746,498.624 706.802,497.927 704.013,496.533 C701.534,495.293 698.9,494.673 696.111,494.673 C691.308,494.673 684.219,497.811 674.844,504.086 C676.161,510.362 676.82,517.683 676.82,526.05 C676.82,544.179 674.961,553.244 671.242,553.244"/>
<path class="Note" d="M730.393,650.479 C734.732,647.535 737.869,645.094 739.806,643.157 C743.37,639.361 745.152,635.875 745.152,632.698 C745.152,629.057 743.138,627.236 739.109,627.236 C731.284,627.236 722.917,634.132 714.007,647.922 C711.296,652.106 705.33,665.741 696.111,688.828 C703.471,696.421 707.151,700.721 707.151,701.728 C707.151,703.122 706.26,703.819 704.478,703.819 C703.084,703.819 699.249,701.457 692.973,696.731 C686.156,712.613 675.813,726.171 661.945,737.404 C647.767,748.871 630.839,754.604 611.161,754.604 C603.646,754.604 594.233,752.86 582.921,749.374 C573.857,746.585 569.325,742.13 569.325,736.01 C569.325,726.945 572.811,722.413 579.784,722.413 C583.967,722.413 586.059,724.35 586.059,728.224 C586.059,729.463 585.091,730.78 583.154,732.175 C582.147,732.872 581.643,734.228 581.643,736.242 C581.643,738.644 584.316,741.123 589.662,743.68 C595.472,746.469 603.994,747.863 615.228,747.863 C629.716,747.863 643.7,741.588 657.18,729.037 C669.421,717.649 678.214,704.401 683.56,689.293 C681.468,687.589 679.222,685.729 676.82,683.715 C669.382,679.299 665.664,674.767 665.664,670.118 C665.664,668.181 666.942,667.213 669.499,667.213 C672.907,667.213 677.517,670.118 683.328,675.929 C684.567,677.168 685.729,678.331 686.814,679.415 C689.526,671.978 693.864,662.526 699.83,651.06 C710.599,630.297 723.692,619.915 739.109,619.915 C744.61,619.915 748.948,620.961 752.125,623.053 C755.301,625.145 756.889,628.011 756.889,631.652 C756.889,637.463 754.759,642.383 750.498,646.411 C746.082,650.595 741.472,652.687 736.669,652.687 C732.485,652.687 730.393,651.951 730.393,650.479"/>
<path class="Note" d="M1125.95,851.839 C1130.52,851.839 1132.81,854.705 1132.81,860.438 C1132.81,864.467 1130.29,870.471 1125.25,878.451 C1121.23,884.881 1119.21,891.157 1119.21,897.277 C1119.21,900.763 1124.29,902.507 1134.43,902.507 C1142.8,902.507 1154.46,897.974 1169.41,888.91 C1154.38,903.398 1141.33,910.641 1130.25,910.641 C1120.26,910.641 1113.28,909.131 1109.33,906.109 C1108.33,905.334 1107.47,904.405 1106.78,903.32 C1102.9,908.046 1096.43,910.409 1087.37,910.409 C1078.69,910.409 1072.03,908.627 1067.38,905.063 C1064.28,902.662 1062.73,898.827 1062.73,893.558 C1062.73,885.191 1067.69,876.049 1077.61,866.133 C1088.22,855.519 1100.5,850.212 1114.45,850.212 C1117.93,850.212 1120.49,851.49 1122.12,854.047 C1123.43,852.575 1124.71,851.839 1125.95,851.839 M1105.15,898.091 C1105.07,897.471 1105.03,896.851 1105.03,896.231 C1105.03,895.921 1108.98,885.114 1116.89,863.808 C1117.66,861.717 1118.44,859.935 1119.21,858.463 C1116.19,857.843 1113.21,857.533 1110.26,857.533 C1104.84,857.533 1097.63,862.143 1088.65,871.362 C1080.59,879.574 1076.56,886.663 1076.56,892.629 C1076.56,899.214 1079.7,902.507 1085.97,902.507 C1093.57,902.507 1099.96,901.035 1105.15,898.091"/>
<path class="Note" d="M1068.19,642.535 C1064.01,642.535 1061.92,640.637 1061.92,636.841 C1061.92,630.41 1062.89,625.684 1064.82,622.663 C1072.88,610.732 1090.39,588.419 1117.35,555.725 C1129.52,540.928 1145.2,533.529 1164.42,533.529 C1171.85,533.529 1177.01,534.575 1179.87,536.667 C1184.29,539.921 1186.5,543.833 1186.5,548.404 C1186.5,553.207 1182.62,558.553 1174.88,564.441 C1167.52,570.019 1160.54,572.808 1153.96,572.808 C1151.4,572.808 1150.12,572.537 1150.12,571.995 C1150.12,571.22 1151.36,570.407 1153.84,569.555 C1157.17,568.315 1160.74,565.797 1164.53,562.001 C1168.87,557.585 1171.04,553.595 1171.04,550.031 C1171.04,547.629 1169.38,545.344 1166.04,543.175 C1163.1,541.315 1158.34,540.386 1151.75,540.386 C1142.14,540.386 1130.02,550.07 1115.38,569.438 C1105.61,582.376 1097.71,593.765 1091.67,603.604 C1094.61,601.977 1098.14,600.002 1102.24,597.678 C1107.28,594.811 1111.62,593.378 1115.26,593.378 C1124.32,593.378 1128.86,596.632 1128.86,603.139 C1128.86,609.57 1125.14,616.62 1117.7,624.29 C1112.43,629.713 1109.8,633.742 1109.8,636.376 C1109.8,639.087 1112.43,640.443 1117.7,640.443 C1120.33,640.443 1123.05,639.513 1125.84,637.654 C1128.62,635.872 1130.68,634.981 1131.99,634.981 C1133.08,634.981 1133.62,635.679 1133.62,637.073 C1133.62,639.32 1131.45,641.683 1127.11,644.162 C1119.83,648.346 1113.98,650.437 1109.57,650.437 C1101.74,650.437 1097.83,646.254 1097.83,637.887 C1097.83,632.618 1100.85,626.769 1106.89,620.339 C1111.31,615.613 1113.52,610.926 1113.52,606.277 C1113.52,602.249 1111.35,600.234 1107.01,600.234 C1105.3,600.234 1099.65,602.249 1090.04,606.277 C1087.18,611.081 1084.77,615.497 1082.84,619.525 C1075.48,634.865 1070.6,642.535 1068.19,642.535"/>
<path class="Note" d="M1068.19,731.826 C1064.01,731.826 1061.92,729.928 1061.92,726.132 C1061.92,719.702 1062.89,714.976 1064.82,711.954 C1072.88,700.023 1090.39,677.711 1117.35,645.017 C1129.52,630.219 1145.2,622.82 1164.42,622.82 C1171.85,622.82 1177.01,623.866 1179.87,625.958 C1184.29,629.212 1186.5,633.124 1186.5,637.695 C1186.5,642.499 1182.62,647.845 1174.88,653.733 C1167.52,659.311 1160.54,662.1 1153.96,662.1 C1151.4,662.1 1150.12,661.829 1150.12,661.286 C1150.12,660.512 1151.36,659.698 1153.84,658.846 C1157.17,657.606 1160.74,655.088 1164.53,651.292 C1168.87,646.876 1171.04,642.886 1171.04,639.322 C1171.04,636.921 1169.38,634.635 1166.04,632.466 C1163.1,630.607 1158.34,629.677 1151.75,629.677 C1142.14,629.677 1130.02,639.361 1115.38,658.73 C1105.61,671.668 1097.71,683.056 1091.67,692.896 C1094.61,691.269 1098.14,689.293 1102.24,686.969 C1107.28,684.102 1111.62,682.669 1115.26,682.669 C1124.32,682.669 1128.86,685.923 1128.86,692.431 C1128.86,698.861 1125.14,705.911 1117.7,713.581 C1112.43,719.004 1109.8,723.033 1109.8,725.667 C1109.8,728.379 1112.43,729.735 1117.7,729.735 C1120.33,729.735 1123.05,728.805 1125.84,726.945 C1128.62,725.164 1130.68,724.273 1131.99,724.273 C1133.08,724.273 1133.62,724.97 1133.62,726.364 C1133.62,728.611 1131.45,730.974 1127.11,733.453 C1119.83,737.637 1113.98,739.729 1109.57,739.729 C1101.74,739.729 1097.83,735.545 1097.83,727.178 C1097.83,721.91 1100.85,716.06 1106.89,709.63 C1111.31,704.904 1113.52,700.217 1113.52,695.568 C1113.52,691.54 1111.35,689.526 1107.01,689.526 C1105.3,689.526 1099.65,691.54 1090.04,695.568 C1087.18,700.372 1084.77,704.788 1082.84,708.817 C1075.48,724.156 1070.6,731.826 1068.19,731.826"/>
<path class="Note" d="M1431.53,945.081 C1431.84,933.383 1438.31,923.001 1450.93,913.937 C1462.17,905.879 1474.45,901.851 1487.77,901.851 C1506.44,901.851 1522.91,909.172 1537.16,923.815 C1546.23,933.189 1550.76,944.81 1550.76,958.678 C1550.76,971.151 1547.43,980.719 1540.76,987.382 C1532.63,995.594 1524.03,999.7 1514.97,999.7 C1508.77,999.7 1503.96,998.306 1500.56,995.517 C1494.98,990.946 1492.19,984.825 1492.19,977.155 C1492.19,967.239 1497.15,958.174 1507.06,949.962 C1515.2,943.222 1523.37,938.806 1531.58,936.714 C1529.41,932.995 1526.66,929.509 1523.33,926.255 C1512.95,916.106 1501.18,911.031 1488,911.031 C1474.29,911.031 1462.94,914.014 1453.95,919.98 C1444.66,926.1 1437.18,934.467 1431.53,945.081 M1534.49,942.873 C1530.23,946.824 1525.97,951.047 1521.71,955.54 C1513.34,964.372 1509.16,972.739 1509.16,980.642 C1509.16,989.086 1511.09,993.309 1514.97,993.309 C1518.45,993.309 1523.33,988.544 1529.61,979.015 C1534.64,971.422 1537.16,964.45 1537.16,958.097 C1537.16,952.674 1536.27,947.599 1534.49,942.873"/>
<path class="Note" d="M1578.41,884.145 C1572.05,894.139 1562.02,902.429 1548.31,909.014 C1536.38,914.748 1525.22,917.614 1514.84,917.614 C1506.55,917.614 1499.66,915.948 1494.15,912.617 C1488.19,908.976 1485.21,904.637 1485.21,899.601 C1485.21,888.213 1488.19,878.412 1494.15,870.2 C1502.29,859.044 1510.5,853.466 1518.79,853.466 C1524.68,853.466 1528.86,854.628 1531.34,856.952 C1534.75,859.973 1536.46,864.118 1536.46,869.387 C1536.46,876.824 1530.92,883.293 1519.84,888.794 C1509.07,894.139 1501.59,897.626 1497.41,899.253 C1498.34,901.19 1499.54,902.933 1501.01,904.482 C1504.65,908.356 1509.61,910.293 1515.89,910.293 C1523.79,910.293 1534.4,907.388 1547.73,901.577 C1560.51,895.921 1570.74,890.111 1578.41,884.145 M1495.78,893.907 C1501.59,890.963 1506.9,887.515 1511.7,883.564 C1518.83,877.754 1522.39,871.478 1522.39,864.738 C1522.39,860.942 1520.65,859.044 1517.16,859.044 C1514.22,859.044 1510.19,862.414 1505.08,869.154 C1498.65,877.521 1495.43,884.339 1495.43,889.607 C1495.43,891.079 1495.55,892.513 1495.78,893.907"/>
<path class="Note" d="M1542.61,494.673 C1547.19,494.673 1549.47,497.54 1549.47,503.273 C1549.47,507.302 1546.95,513.306 1541.92,521.286 C1537.89,527.716 1535.87,533.991 1535.87,540.112 C1535.87,543.598 1540.95,545.341 1551.1,545.341 C1559.47,545.341 1571.13,540.809 1586.08,531.745 C1571.05,546.232 1557.99,553.476 1546.91,553.476 C1536.92,553.476 1529.95,551.965 1526,548.944 C1524.99,548.169 1524.14,547.239 1523.44,546.155 C1519.57,550.881 1513.1,553.244 1504.03,553.244 C1495.36,553.244 1488.69,551.462 1484.04,547.898 C1480.95,545.496 1479.4,541.661 1479.4,536.393 C1479.4,528.026 1484.35,518.884 1494.27,508.967 C1504.88,498.353 1517.16,493.046 1531.11,493.046 C1534.6,493.046 1537.15,494.325 1538.78,496.881 C1540.1,495.409 1541.38,494.673 1542.61,494.673 M1521.81,540.925 C1521.74,540.305 1521.7,539.686 1521.7,539.066 C1521.7,538.756 1525.65,527.948 1533.55,506.643 C1534.33,504.551 1535.1,502.769 1535.87,501.297 C1532.85,500.678 1529.87,500.368 1526.93,500.368 C1521.5,500.368 1514.3,504.977 1505.31,514.197 C1497.25,522.409 1493.23,529.498 1493.23,535.463 C1493.23,542.049 1496.36,545.341 1502.64,545.341 C1510.23,545.341 1516.62,543.869 1521.81,540.925"/>
<path class="Note" d="M1557.49,650.479 C1561.83,647.535 1564.97,645.094 1566.9,643.157 C1570.47,639.361 1572.25,635.875 1572.25,632.698 C1572.25,629.057 1570.23,627.236 1566.21,627.236 C1558.38,627.236 1550.01,634.132 1541.1,647.922 C1538.39,652.106 1532.43,665.741 1523.21,688.828 C1530.57,696.421 1534.25,700.721 1534.25,701.728 C1534.25,703.122 1533.36,703.819 1531.57,703.819 C1530.18,703.819 1526.35,701.457 1520.07,696.731 C1513.25,712.613 1502.91,726.171 1489.04,737.404 C1474.86,748.871 1457.94,754.604 1438.26,754.604 C1430.74,754.604 1421.33,752.86 1410.02,749.374 C1400.95,746.585 1396.42,742.13 1396.42,736.01 C1396.42,726.945 1399.91,722.413 1406.88,722.413 C1411.06,722.413 1413.16,724.35 1413.16,728.224 C1413.16,729.463 1412.19,730.78 1410.25,732.175 C1409.24,732.872 1408.74,734.228 1408.74,736.242 C1408.74,738.644 1411.41,741.123 1416.76,743.68 C1422.57,746.469 1431.09,747.863 1442.32,747.863 C1456.81,747.863 1470.8,741.588 1484.28,729.037 C1496.52,717.649 1505.31,704.401 1510.66,689.293 C1508.57,687.589 1506.32,685.729 1503.92,683.715 C1496.48,679.299 1492.76,674.767 1492.76,670.118 C1492.76,668.181 1494.04,667.213 1496.6,667.213 C1500,667.213 1504.61,670.118 1510.42,675.929 C1511.66,677.168 1512.83,678.331 1513.91,679.415 C1516.62,671.978 1520.96,662.526 1526.93,651.06 C1537.7,630.297 1550.79,619.915 1566.21,619.915 C1571.71,619.915 1576.04,620.961 1579.22,623.053 C1582.4,625.145 1583.99,628.011 1583.99,631.652 C1583.99,637.463 1581.86,642.383 1577.59,646.411 C1573.18,650.595 1568.57,652.687 1563.77,652.687 C1559.58,652.687 1557.49,651.951 1557.49,650.479"/>
<path class="Note" d="M1964.5,999.7 C1960.7,999.7 1958.8,995.633 1958.8,987.498 L1958.8,953.448 C1958.8,950.194 1960.39,948.568 1963.57,948.568 C1964.96,948.568 1966.01,948.684 1966.7,948.916 C1969.18,944.578 1973.25,940.936 1978.91,937.992 C1986.81,933.886 1994.83,931.833 2002.96,931.833 C2009.39,931.833 2012.61,934.235 2012.61,939.038 C2012.61,943.067 2010.44,945.081 2006.1,945.081 C2003,945.081 2000.06,944.384 1997.27,942.989 C1994.79,941.75 1992.15,941.13 1989.36,941.13 C1984.56,941.13 1977.47,944.268 1968.1,950.543 C1969.41,956.818 1970.07,964.14 1970.07,972.507 C1970.07,990.636 1968.21,999.7 1964.5,999.7"/>
<path class="Note" d="M1964.5,642.535 C1960.7,642.535 1958.8,638.468 1958.8,630.333 L1958.8,596.283 C1958.8,593.029 1960.39,591.402 1963.57,591.402 C1964.96,591.402 1966.01,591.518 1966.7,591.751 C1969.18,587.412 1973.25,583.771 1978.91,580.827 C1986.81,576.721 1994.83,574.668 2002.96,574.668 C2009.39,574.668 2012.61,577.069 2012.61,581.873 C2012.61,585.902 2010.44,587.916 2006.1,587.916 C2003,587.916 2000.06,587.219 1997.27,585.824 C1994.79,584.584 1992.15,583.965 1989.36,583.965 C1984.56,583.965 1977.47,587.102 1968.1,593.378 C1969.41,599.653 1970.07,606.974 1970.07,615.342 C1970.07,633.471 1968.21,642.535 1964.5,642.535"/>
<path class="Note" d="M2044.56,794.854 C2038.21,804.848 2028.18,813.138 2014.47,819.723 C2002.53,825.456 1991.38,828.323 1981,828.323 C1972.71,828.323 1965.81,826.657 1960.31,823.326 C1954.35,819.684 1951.36,815.346 1951.36,810.31 C1951.36,798.921 1954.35,789.121 1960.31,780.909 C1968.45,769.752 1976.66,764.174 1984.95,764.174 C1990.84,764.174 1995.02,765.336 1997.5,767.661 C2000.91,770.682 2002.61,774.827 2002.61,780.095 C2002.61,787.533 1997.07,794.002 1985.99,799.502 C1975.23,804.848 1967.75,808.334 1963.57,809.961 C1964.5,811.898 1965.7,813.641 1967.17,815.191 C1970.81,819.065 1975.77,821.001 1982.04,821.001 C1989.95,821.001 2000.56,818.096 2013.88,812.286 C2026.67,806.63 2036.89,800.819 2044.56,794.854 M1961.94,804.616 C1967.75,801.672 1973.06,798.224 1977.86,794.273 C1984.99,788.462 1988.55,782.187 1988.55,775.447 C1988.55,771.651 1986.81,769.752 1983.32,769.752 C1980.38,769.752 1976.35,773.123 1971.24,779.863 C1964.81,788.23 1961.59,795.048 1961.59,800.316 C1961.59,801.788 1961.71,803.221 1961.94,804.616"/>
<path class="Note" d="M2044.56,705.563 C2038.21,715.557 2028.18,723.846 2014.47,730.432 C2002.53,736.165 1991.38,739.031 1981,739.031 C1972.71,739.031 1965.81,737.366 1960.31,734.034 C1954.35,730.393 1951.36,726.055 1951.36,721.019 C1951.36,709.63 1954.35,699.83 1960.31,691.617 C1968.45,680.461 1976.66,674.883 1984.95,674.883 C1990.84,674.883 1995.02,676.045 1997.5,678.369 C2000.91,681.391 2002.61,685.536 2002.61,690.804 C2002.61,698.241 1997.07,704.71 1985.99,710.211 C1975.23,715.557 1967.75,719.043 1963.57,720.67 C1964.5,722.607 1965.7,724.35 1967.17,725.9 C1970.81,729.773 1975.77,731.71 1982.04,731.71 C1989.95,731.71 2000.56,728.805 2013.88,722.994 C2026.67,717.339 2036.89,711.528 2044.56,705.563 M1961.94,715.324 C1967.75,712.38 1973.06,708.933 1977.86,704.982 C1984.99,699.171 1988.55,692.896 1988.55,686.155 C1988.55,682.359 1986.81,680.461 1983.32,680.461 C1980.38,680.461 1976.35,683.831 1971.24,690.571 C1964.81,698.939 1961.59,705.756 1961.59,711.025 C1961.59,712.497 1961.71,713.93 1961.94,715.324"/>
<path class="Note" d="M2448.02,941.13 C2452.59,941.13 2454.88,943.997 2454.88,949.73 C2454.88,953.758 2452.36,959.763 2447.33,967.742 C2443.3,974.173 2441.28,980.448 2441.28,986.568 C2441.28,990.055 2446.36,991.798 2456.51,991.798 C2464.87,991.798 2476.53,987.266 2491.49,978.201 C2476.46,992.689 2463.4,999.933 2452.32,999.933 C2442.33,999.933 2435.36,998.422 2431.41,995.401 C2430.4,994.626 2429.55,993.696 2428.85,992.611 C2424.98,997.337 2418.51,999.7 2409.44,999.7 C2400.76,999.7 2394.1,997.918 2389.45,994.355 C2386.35,991.953 2384.8,988.118 2384.8,982.85 C2384.8,974.483 2389.76,965.341 2399.68,955.424 C2410.29,944.81 2422.57,939.503 2436.52,939.503 C2440.01,939.503 2442.56,940.781 2444.19,943.338 C2445.51,941.866 2446.78,941.13 2448.02,941.13 M2427.22,987.382 C2427.14,986.762 2427.11,986.142 2427.11,985.523 C2427.11,985.213 2431.06,974.405 2438.96,953.1 C2439.73,951.008 2440.51,949.226 2441.28,947.754 C2438.26,947.134 2435.28,946.824 2432.34,946.824 C2426.91,946.824 2419.71,951.434 2410.72,960.653 C2402.66,968.866 2398.63,975.955 2398.63,981.92 C2398.63,988.505 2401.77,991.798 2408.05,991.798 C2415.64,991.798 2422.03,990.326 2427.22,987.382"/>
<path class="Note" d="M2403.75,642.535 C2399.95,642.535 2398.05,638.468 2398.05,630.333 L2398.05,596.283 C2398.05,593.029 2399.64,591.402 2402.82,591.402 C2404.21,591.402 2405.26,591.518 2405.96,591.751 C2408.43,587.412 2412.5,583.771 2418.16,580.827 C2426.06,576.721 2434.08,574.668 2442.21,574.668 C2448.64,574.668 2451.86,577.069 2451.86,581.873 C2451.86,585.902 2449.69,587.916 2445.35,587.916 C2442.25,587.916 2439.31,587.219 2436.52,585.824 C2434.04,584.584 2431.41,583.965 2428.62,583.965 C2423.81,583.965 2416.72,587.102 2407.35,593.378 C2408.67,599.653 2409.33,606.974 2409.33,615.342 C2409.33,633.471 2407.47,642.535 2403.75,642.535"/>
<path class="Note" d="M2483.82,794.854 C2477.46,804.848 2467.43,813.138 2453.72,819.723 C2441.79,825.456 2430.63,828.323 2420.25,828.323 C2411.96,828.323 2405.06,826.657 2399.56,823.326 C2393.6,819.684 2390.62,815.346 2390.62,810.31 C2390.62,798.921 2393.6,789.121 2399.56,780.909 C2407.7,769.752 2415.91,764.174 2424.2,764.174 C2430.09,764.174 2434.27,765.336 2436.75,767.661 C2440.16,770.682 2441.86,774.827 2441.86,780.095 C2441.86,787.533 2436.33,794.002 2425.25,799.502 C2414.48,804.848 2407,808.334 2402.82,809.961 C2403.75,811.898 2404.95,813.641 2406.42,815.191 C2410.06,819.065 2415.02,821.001 2421.3,821.001 C2429.2,821.001 2439.81,818.096 2453.14,812.286 C2465.92,806.63 2476.15,800.819 2483.82,794.854 M2401.19,804.616 C2407,801.672 2412.31,798.224 2417.11,794.273 C2424.24,788.462 2427.8,782.187 2427.8,775.447 C2427.8,771.651 2426.06,769.752 2422.57,769.752 C2419.63,769.752 2415.6,773.123 2410.49,779.863 C2404.06,788.23 2400.84,795.048 2400.84,800.316 C2400.84,801.788 2400.96,803.221 2401.19,804.616"/>
<path class="Note" d="M2483.82,705.563 C2477.46,715.557 2467.43,723.846 2453.72,730.432 C2441.79,736.165 2430.63,739.031 2420.25,739.031 C2411.96,739.031 2405.06,737.366 2399.56,734.034 C2393.6,730.393 2390.62,726.055 2390.62,721.019 C2390.62,709.63 2393.6,699.83 2399.56,691.617 C2407.7,680.461 2415.91,674.883 2424.2,674.883 C2430.09,674.883 2434.27,676.045 2436.75,678.369 C2440.16,681.391 2441.86,685.536 2441.86,690.804 C2441.86,698.241 2436.33,704.71 2425.25,710.211 C2414.48,715.557 2407,719.043 2402.82,720.67 C2403.75,722.607 2404.95,724.35 2406.42,725.9 C2410.06,729.773 2415.02,731.71 2421.3,731.71 C2429.2,731.71 2439.81,728.805 2453.14,722.994 C2465.92,717.339 2476.15,711.528 2483.82,705.563 M2401.19,715.324 C2407,712.38 2412.31,708.933 2417.11,704.982 C2424.24,699.171 2427.8,692.896 2427.8,686.155 C2427.8,682.359 2426.06,680.461 2422.57,680.461 C2419.63,680.461 2415.6,683.831 2410.49,690.571 C2404.06,698.939 2400.84,705.756 2400.84,711.025 C2400.84,712.497 2400.96,713.93 2401.19,715.324"/>
<path class="Note" d="M2851.34,1059.89 C2855.91,1059.89 2858.19,1062.75 2858.19,1068.49 C2858.19,1072.52 2855.67,1078.52 2850.64,1086.5 C2846.61,1092.93 2844.6,1099.21 2844.6,1105.33 C2844.6,1108.81 2849.67,1110.56 2859.82,1110.56 C2868.19,1110.56 2879.85,1106.02 2894.8,1096.96 C2879.77,1111.45 2866.71,1118.69 2855.64,1118.69 C2845.64,1118.69 2838.67,1117.18 2834.72,1114.16 C2833.71,1113.38 2832.86,1112.45 2832.16,1111.37 C2828.29,1116.09 2821.82,1118.46 2812.75,1118.46 C2804.08,1118.46 2797.41,1116.68 2792.77,1113.11 C2789.67,1110.71 2788.12,1106.88 2788.12,1101.61 C2788.12,1093.24 2793.08,1084.1 2802.99,1074.18 C2813.61,1063.57 2825.89,1058.26 2839.83,1058.26 C2843.32,1058.26 2845.87,1059.54 2847.5,1062.1 C2848.82,1060.62 2850.1,1059.89 2851.34,1059.89 M2830.53,1106.14 C2830.46,1105.52 2830.42,1104.9 2830.42,1104.28 C2830.42,1103.97 2834.37,1093.16 2842.27,1071.86 C2843.05,1069.77 2843.82,1067.98 2844.6,1066.51 C2841.57,1065.89 2838.59,1065.58 2835.65,1065.58 C2830.22,1065.58 2823.02,1070.19 2814.03,1079.41 C2805.98,1087.62 2801.95,1094.71 2801.95,1100.68 C2801.95,1107.26 2805.08,1110.56 2811.36,1110.56 C2818.95,1110.56 2825.34,1109.08 2830.53,1106.14"/>
<path class="Note" d="M2740.25,587.916 C2740.56,576.217 2747.03,565.836 2759.65,556.771 C2770.89,548.714 2783.17,544.685 2796.49,544.685 C2815.16,544.685 2831.63,552.007 2845.88,566.649 C2854.95,576.024 2859.48,587.645 2859.48,601.513 C2859.48,613.986 2856.15,623.554 2849.49,630.217 C2841.35,638.429 2832.75,642.535 2823.69,642.535 C2817.49,642.535 2812.69,641.14 2809.28,638.351 C2803.7,633.78 2800.91,627.66 2800.91,619.99 C2800.91,610.073 2805.87,601.009 2815.78,592.797 C2823.92,586.056 2832.09,581.64 2840.31,579.549 C2838.14,575.83 2835.39,572.344 2832.05,569.09 C2821.67,558.941 2809.9,553.866 2796.73,553.866 C2783.01,553.866 2771.66,556.849 2762.68,562.814 C2753.38,568.935 2745.9,577.302 2740.25,587.916 M2843.21,585.708 C2838.95,589.659 2834.69,593.881 2830.43,598.375 C2822.06,607.207 2817.88,615.574 2817.88,623.476 C2817.88,631.921 2819.81,636.143 2823.69,636.143 C2827.17,636.143 2832.05,631.379 2838.33,621.849 C2843.37,614.257 2845.88,607.284 2845.88,600.931 C2845.88,595.508 2844.99,590.434 2843.21,585.708"/>
<path class="Note" d="M2807.06,553.244 C2803.26,553.244 2801.37,549.176 2801.37,541.041 L2801.37,506.992 C2801.37,503.738 2802.95,502.111 2806.13,502.111 C2807.52,502.111 2808.57,502.227 2809.27,502.459 C2811.75,498.121 2815.81,494.48 2821.47,491.536 C2829.37,487.43 2837.39,485.376 2845.53,485.376 C2851.96,485.376 2855.17,487.778 2855.17,492.582 C2855.17,496.61 2853,498.624 2848.66,498.624 C2845.56,498.624 2842.62,497.927 2839.83,496.533 C2837.35,495.293 2834.72,494.673 2831.93,494.673 C2827.13,494.673 2820.04,497.811 2810.66,504.086 C2811.98,510.362 2812.64,517.683 2812.64,526.05 C2812.64,544.179 2810.78,553.244 2807.06,553.244"/>
<path class="Note" d="M2866.21,650.479 C2870.55,647.535 2873.69,645.094 2875.62,643.157 C2879.19,639.361 2880.97,635.875 2880.97,632.698 C2880.97,629.057 2878.96,627.236 2874.93,627.236 C2867.1,627.236 2858.73,634.132 2849.83,647.922 C2847.11,652.106 2841.15,665.741 2831.93,688.828 C2839.29,696.421 2842.97,700.721 2842.97,701.728 C2842.97,703.122 2842.08,703.819 2840.3,703.819 C2838.9,703.819 2835.07,701.457 2828.79,696.731 C2821.97,712.613 2811.63,726.171 2797.76,737.404 C2783.59,748.871 2766.66,754.604 2746.98,754.604 C2739.46,754.604 2730.05,752.86 2718.74,749.374 C2709.67,746.585 2705.14,742.13 2705.14,736.01 C2705.14,726.945 2708.63,722.413 2715.6,722.413 C2719.79,722.413 2721.88,724.35 2721.88,728.224 C2721.88,729.463 2720.91,730.78 2718.97,732.175 C2717.96,732.872 2717.46,734.228 2717.46,736.242 C2717.46,738.644 2720.13,741.123 2725.48,743.68 C2731.29,746.469 2739.81,747.863 2751.05,747.863 C2765.53,747.863 2779.52,741.588 2793,729.037 C2805.24,717.649 2814.03,704.401 2819.38,689.293 C2817.29,687.589 2815.04,685.729 2812.64,683.715 C2805.2,679.299 2801.48,674.767 2801.48,670.118 C2801.48,668.181 2802.76,667.213 2805.32,667.213 C2808.73,667.213 2813.34,670.118 2819.15,675.929 C2820.39,677.168 2821.55,678.331 2822.63,679.415 C2825.34,671.978 2829.68,662.526 2835.65,651.06 C2846.42,630.297 2859.51,619.915 2874.93,619.915 C2880.43,619.915 2884.77,620.961 2887.94,623.053 C2891.12,625.145 2892.71,628.011 2892.71,631.652 C2892.71,637.463 2890.58,642.383 2886.32,646.411 C2881.9,650.595 2877.29,652.687 2872.49,652.687 C2868.3,652.687 2866.21,651.951 2866.21,650.479"/>
<path class="Note" d="M3446.99,884.145 C3440.63,894.139 3430.6,902.429 3416.89,909.014 C3404.96,914.748 3393.8,917.614 3383.42,917.614 C3375.13,917.614 3368.23,915.948 3362.73,912.617 C3356.77,908.976 3353.78,904.637 3353.78,899.601 C3353.78,888.213 3356.77,878.412 3362.73,870.2 C3370.87,859.044 3379.08,853.466 3387.37,853.466 C3393.26,853.466 3397.44,854.628 3399.92,856.952 C3403.33,859.973 3405.03,864.118 3405.03,869.387 C3405.03,876.824 3399.49,883.293 3388.42,888.794 C3377.65,894.139 3370.17,897.626 3365.99,899.253 C3366.92,901.19 3368.12,902.933 3369.59,904.482 C3373.23,908.356 3378.19,910.293 3384.46,910.293 C3392.37,910.293 3402.98,907.388 3416.31,901.577 C3429.09,895.921 3439.32,890.111 3446.99,884.145 M3364.36,893.907 C3370.17,890.963 3375.48,887.515 3380.28,883.564 C3387.41,877.754 3390.97,871.478 3390.97,864.738 C3390.97,860.942 3389.23,859.044 3385.74,859.044 C3382.8,859.044 3378.77,862.414 3373.66,869.154 C3367.23,877.521 3364.01,884.339 3364.01,889.607 C3364.01,891.079 3364.13,892.513 3364.36,893.907"/>
<path class="Note" d="M3446.99,794.854 C3440.63,804.848 3430.6,813.138 3416.89,819.723 C3404.96,825.456 3393.8,828.323 3383.42,828.323 C3375.13,828.323 3368.23,826.657 3362.73,823.326 C3356.77,819.684 3353.78,815.346 3353.78,810.31 C3353.78,798.921 3356.77,789.121 3362.73,780.909 C3370.87,769.752 3379.08,764.174 3387.37,764.174 C3393.26,764.174 3397.44,765.336 3399.92,767.661 C3403.33,770.682 3405.03,774.827 3405.03,780.095 C3405.03,787.533 3399.49,794.002 3388.42,799.502 C3377.65,804.848 3370.17,808.334 3365.99,809.961 C3366.92,811.898 3368.12,813.641 3369.59,815.191 C3373.23,819.065 3378.19,821.001 3384.46,821.001 C3392.37,821.001 3402.98,818.096 3416.31,812.286 C3429.09,806.63 3439.32,800.819 3446.99,794.854 M3364.36,804.616 C3370.17,801.672 3375.48,798.224 3380.28,794.273 C3387.41,788.462 3390.97,782.187 3390.97,775.447 C3390.97,771.651 3389.23,769.752 3385.74,769.752 C3382.8,769.752 3378.77,773.123 3373.66,779.863 C3367.23,788.23 3364.01,795.048 3364.01,800.316 C3364.01,801.788 3364.13,803.221 3364.36,804.616"/>
<path class="Note" d="M3411.19,494.673 C3415.76,494.673 3418.05,497.54 3418.05,503.273 C3418.05,507.302 3415.53,513.306 3410.5,521.286 C3406.47,527.716 3404.45,533.991 3404.45,540.112 C3404.45,543.598 3409.53,545.341 3419.68,545.341 C3428.04,545.341 3439.7,540.809 3454.66,531.745 C3439.63,546.232 3426.57,553.476 3415.49,553.476 C3405.5,553.476 3398.53,551.965 3394.57,548.944 C3393.57,548.169 3392.72,547.239 3392.02,546.155 C3388.14,550.881 3381.68,553.244 3372.61,553.244 C3363.93,553.244 3357.27,551.462 3352.62,547.898 C3349.52,545.496 3347.97,541.661 3347.97,536.393 C3347.97,528.026 3352.93,518.884 3362.85,508.967 C3373.46,498.353 3385.74,493.046 3399.69,493.046 C3403.17,493.046 3405.73,494.325 3407.36,496.881 C3408.68,495.409 3409.95,494.673 3411.19,494.673 M3390.39,540.925 C3390.31,540.305 3390.27,539.686 3390.27,539.066 C3390.27,538.756 3394.23,527.948 3402.13,506.643 C3402.9,504.551 3403.68,502.769 3404.45,501.297 C3401.43,500.678 3398.45,500.368 3395.5,500.368 C3390.08,500.368 3382.88,504.977 3373.89,514.197 C3365.83,522.409 3361.8,529.498 3361.8,535.463 C3361.8,542.049 3364.94,545.341 3371.22,545.341 C3378.81,545.341 3385.2,543.869 3390.39,540.925"/>
<path class="Note" d="M3446.99,705.563 C3440.63,715.557 3430.6,723.846 3416.89,730.432 C3404.96,736.165 3393.8,739.031 3383.42,739.031 C3375.13,739.031 3368.23,737.366 3362.73,734.034 C3356.77,730.393 3353.78,726.055 3353.78,721.019 C3353.78,709.63 3356.77,699.83 3362.73,691.617 C3370.87,680.461 3379.08,674.883 3387.37,674.883 C3393.26,674.883 3397.44,676.045 3399.92,678.369 C3403.33,681.391 3405.03,685.536 3405.03,690.804 C3405.03,698.241 3399.49,704.71 3388.42,710.211 C3377.65,715.557 3370.17,719.043 3365.99,720.67 C3366.92,722.607 3368.12,724.35 3369.59,725.9 C3373.23,729.773 3378.19,731.71 3384.46,731.71 C3392.37,731.71 3402.98,728.805 3416.31,722.994 C3429.09,717.339 3439.32,711.528 3446.99,705.563 M3364.36,715.324 C3370.17,712.38 3375.48,708.933 3380.28,704.982 C3387.41,699.171 3390.97,692.896 3390.97,686.155 C3390.97,682.359 3389.23,680.461 3385.74,680.461 C3382.8,680.461 3378.77,683.831 3373.66,690.571 C3367.23,698.939 3364.01,705.756 3364.01,711.025 C3364.01,712.497 3364.13,713.93 3364.36,715.324"/>
<path class="Note" d="M3741.26,1098.35 C3740.88,1099.05 3740.29,1099.4 3739.52,1099.4 C3738.82,1099.4 3737.93,1099.09 3736.85,1098.47 C3735.22,1097.54 3734.41,1096.61 3734.41,1095.68 C3734.41,1095.37 3734.52,1094.98 3734.75,1094.52 C3752.5,1068.95 3763.58,1047.41 3767.99,1029.91 C3768.3,1029.36 3768.84,1029.09 3769.62,1029.09 C3770.63,1029.09 3772.06,1029.63 3773.92,1030.72 C3776.47,1032.19 3777.75,1033.51 3777.75,1034.67 C3777.75,1034.98 3777.68,1035.25 3777.52,1035.48 C3771.63,1052.22 3759.55,1073.17 3741.26,1098.35 M3762.18,1105.33 C3761.79,1106.02 3761.21,1106.37 3760.44,1106.37 C3759.74,1106.37 3758.85,1106.06 3757.76,1105.44 C3756.14,1104.51 3755.32,1103.58 3755.32,1102.65 C3755.32,1102.34 3755.44,1101.96 3755.67,1101.49 C3773.41,1075.92 3784.49,1054.39 3788.91,1036.88 C3789.22,1036.34 3789.76,1036.06 3790.54,1036.06 C3791.54,1036.06 3792.98,1036.61 3794.84,1037.69 C3797.39,1039.16 3798.67,1040.48 3798.67,1041.64 C3798.67,1041.95 3798.59,1042.22 3798.44,1042.46 C3792.55,1059.19 3780.46,1080.15 3762.18,1105.33 M3845.73,1059.89 C3850.3,1059.89 3852.59,1062.75 3852.59,1068.49 C3852.59,1072.52 3850.07,1078.52 3845.04,1086.5 C3841.01,1092.93 3838.99,1099.21 3838.99,1105.33 C3838.99,1108.81 3844.07,1110.56 3854.22,1110.56 C3862.58,1110.56 3874.24,1106.02 3889.2,1096.96 C3874.17,1111.45 3861.11,1118.69 3850.03,1118.69 C3840.04,1118.69 3833.07,1117.18 3829.12,1114.16 C3828.11,1113.38 3827.26,1112.45 3826.56,1111.37 C3822.68,1116.09 3816.22,1118.46 3807.15,1118.46 C3798.47,1118.46 3791.81,1116.68 3787.16,1113.11 C3784.06,1110.71 3782.51,1106.88 3782.51,1101.61 C3782.51,1093.24 3787.47,1084.1 3797.39,1074.18 C3808,1063.57 3820.28,1058.26 3834.23,1058.26 C3837.71,1058.26 3840.27,1059.54 3841.9,1062.1 C3843.22,1060.62 3844.49,1059.89 3845.73,1059.89 M3824.93,1106.14 C3824.85,1105.52 3824.82,1104.9 3824.82,1104.28 C3824.82,1103.97 3828.77,1093.16 3836.67,1071.86 C3837.44,1069.77 3838.22,1067.98 3838.99,1066.51 C3835.97,1065.89 3832.99,1065.58 3830.04,1065.58 C3824.62,1065.58 3817.42,1070.19 3808.43,1079.41 C3800.37,1087.62 3796.34,1094.71 3796.34,1100.68 C3796.34,1107.26 3799.48,1110.56 3805.76,1110.56 C3813.35,1110.56 3819.74,1109.08 3824.93,1106.14"/>
<path class="Note" d="M3712.97,587.916 C3713.28,576.217 3719.75,565.836 3732.38,556.771 C3743.61,548.714 3755.89,544.685 3769.22,544.685 C3787.89,544.685 3804.35,552.007 3818.61,566.649 C3827.67,576.024 3832.21,587.645 3832.21,601.513 C3832.21,613.986 3828.87,623.554 3822.21,630.217 C3814.08,638.429 3805.48,642.535 3796.41,642.535 C3790.21,642.535 3785.41,641.14 3782,638.351 C3776.42,633.78 3773.63,627.66 3773.63,619.99 C3773.63,610.073 3778.59,601.009 3788.51,592.797 C3796.64,586.056 3804.82,581.64 3813.03,579.549 C3810.86,575.83 3808.11,572.344 3804.78,569.09 C3794.4,558.941 3782.62,553.866 3769.45,553.866 C3755.74,553.866 3744.39,556.849 3735.4,562.814 C3726.1,568.935 3718.63,577.302 3712.97,587.916 M3815.94,585.708 C3811.67,589.659 3807.41,593.881 3803.15,598.375 C3794.79,607.207 3790.6,615.574 3790.6,623.476 C3790.6,631.921 3792.54,636.143 3796.41,636.143 C3799.9,636.143 3804.78,631.379 3811.05,621.849 C3816.09,614.257 3818.61,607.284 3818.61,600.931 C3818.61,595.508 3817.72,590.434 3815.94,585.708"/>
<path class="Note" d="M3779.78,553.244 C3775.99,553.244 3774.09,549.176 3774.09,541.041 L3774.09,506.992 C3774.09,503.738 3775.68,502.111 3778.86,502.111 C3780.25,502.111 3781.3,502.227 3781.99,502.459 C3784.47,498.121 3788.54,494.48 3794.2,491.536 C3802.1,487.43 3810.12,485.376 3818.25,485.376 C3824.68,485.376 3827.9,487.778 3827.9,492.582 C3827.9,496.61 3825.73,498.624 3821.39,498.624 C3818.29,498.624 3815.35,497.927 3812.56,496.533 C3810.08,495.293 3807.44,494.673 3804.65,494.673 C3799.85,494.673 3792.76,497.811 3783.39,504.086 C3784.7,510.362 3785.36,517.683 3785.36,526.05 C3785.36,544.179 3783.5,553.244 3779.78,553.244"/>
<path class="Note" d="M3838.94,650.479 C3843.27,647.535 3846.41,645.094 3848.35,643.157 C3851.91,639.361 3853.7,635.875 3853.7,632.698 C3853.7,629.057 3851.68,627.236 3847.65,627.236 C3839.83,627.236 3831.46,634.132 3822.55,647.922 C3819.84,652.106 3813.87,665.741 3804.65,688.828 C3812.01,696.421 3815.69,700.721 3815.69,701.728 C3815.69,703.122 3814.8,703.819 3813.02,703.819 C3811.63,703.819 3807.79,701.457 3801.52,696.731 C3794.7,712.613 3784.36,726.171 3770.49,737.404 C3756.31,748.871 3739.38,754.604 3719.7,754.604 C3712.19,754.604 3702.78,752.86 3691.46,749.374 C3682.4,746.585 3677.87,742.13 3677.87,736.01 C3677.87,726.945 3681.35,722.413 3688.33,722.413 C3692.51,722.413 3694.6,724.35 3694.6,728.224 C3694.6,729.463 3693.63,730.78 3691.7,732.175 C3690.69,732.872 3690.19,734.228 3690.19,736.242 C3690.19,738.644 3692.86,741.123 3698.2,743.68 C3704.02,746.469 3712.54,747.863 3723.77,747.863 C3738.26,747.863 3752.24,741.588 3765.72,729.037 C3777.96,717.649 3786.76,704.401 3792.1,689.293 C3790.01,687.589 3787.76,685.729 3785.36,683.715 C3777.93,679.299 3774.21,674.767 3774.21,670.118 C3774.21,668.181 3775.49,667.213 3778.04,667.213 C3781.45,667.213 3786.06,670.118 3791.87,675.929 C3793.11,677.168 3794.27,678.331 3795.36,679.415 C3798.07,671.978 3802.41,662.526 3808.37,651.06 C3819.14,630.297 3832.23,619.915 3847.65,619.915 C3853.15,619.915 3857.49,620.961 3860.67,623.053 C3863.84,625.145 3865.43,628.011 3865.43,631.652 C3865.43,637.463 3863.3,642.383 3859.04,646.411 C3854.62,650.595 3850.02,652.687 3845.21,652.687 C3841.03,652.687 3838.94,651.951 3838.94,650.479"/>
<path class="Clef" transform="matrix(2.3811,0,0,2.3811,212.156,2076.38)" d="M25.4,-25.1 C17.8,-25.1 11.7,-20.7 11.6,-20.7 C5.8,-16.4 3.5,-11.3 2.6,-7.8 C2.1,-6 1.9,-4.2 1.9,-2.5 C1.9,-0.1 2.3,2.1 3.2,4 C4.4,6.7 6.7,8.6 9.7,9.6 C10.9,10 12.2,10.2 13.5,10.2 C15.7,10.2 18,9.6 19.9,8.5 C23,6.8 24.9,3.2 24.9,-0.7 C24.9,-4.2 23.1,-7.4 20.1,-9.3 C18,-10.7 16,-11.1 14.3,-11.1 C13.1,-11.1 12,-10.9 11.1,-10.6 C10.1,-10.2 8.4,-9.2 7.6,-8.5 C7.9,-10.4 9.1,-13.3 10.2,-14.9 C11.3,-16.5 13.5,-18.5 15.2,-19.4 C17.7,-20.8 20.9,-21.4 24.4,-21.4 C34.6,-21.4 39.6,-13.2 39.6,3.6 C39.6,12.9 36.1,21.8 33.1,27.7 C29.8,34.3 25.4,40.6 21.5,44.1 C11.1,53.6 1.3,58.1 1.2,58.1 C1.2,58.1 -0.3,59 0.1,60.5 C0.4,61.5 1.3,61.7 1.9,61.7 C2,61.7 2.3,61.6 2.4,61.6 C2.5,61.6 13.9,56.9 23,49.8 C28.1,46.1 32.7,42.1 36.7,37.8 C40.3,33.9 43.4,29.7 45.9,25.5 C50.3,18 52.8,10.2 52.8,3.5 C52.8,-4.8 50.6,-11.7 46.5,-16.6 C41.8,-22.2 34.7,-25.1 25.4,-25.1 M56.8,-12.4 C56.8,-9.6 59,-7.4 61.6,-7.4 C64.2,-7.4 66.4,-9.6 66.4,-12.4 C66.4,-15.2 64.2,-17.5 61.6,-17.5 C59,-17.5 56.8,-15.2 56.8,-12.4 M56.8,12.3 C56.8,15.1 59,17.4 61.6,17.4 C64.2,17.4 66.4,15.1 66.4,12.3 C66.4,9.5 64.2,7.2 61.6,7.2 C59,7.2 56.8,9.5 56.8,12.3"/>
<path class="Clef" transform="matrix(2.3811,0,0,2.3811,212.156,1570.39)" d="M63.37,-5.89004 C62.14,-11.32 59.5,-15.14 58.72,-16.1801 C55.5301,-20.45 51.52,-23.3 46.8301,-24.65 C43.72,-25.54 40.72,-25.65 38.3,-25.47 C37.2601,-31.4801 36.2601,-37.3601 35.35,-42.8101 C40.79,-48.97 44.42,-54.77 46.69,-59.07 C50.1601,-65.65 51.3101,-70.2301 51.3601,-70.4301 C53.0801,-75.64 53.44,-83.34 52.34,-91.55 C51.3301,-99.1 49.24,-105.81 46.89,-109.06 C45.8601,-110.49 44.8101,-111.22 43.77,-111.22 C42.55,-111.22 40.04,-109.98 37.15,-107.21 C34.85,-105.01 31.5801,-101.12 29.02,-95.1101 C26.02,-88.05 25.8101,-78.5601 26.1601,-71.84 C26.54,-64.57 27.65,-58.8801 27.6601,-58.8301 C27.6801,-58.74 27.94,-57.24 28.39,-54.67 C28.1601,-54.44 27.92,-54.22 27.67,-53.9801 C26.6301,-52.9801 25.44,-51.84 24.0601,-50.4601 C23.2,-49.6 22.25,-48.69 21.25,-47.72 C12.79,-39.57 0,-27.25 0,-8.1 C0,-3.4 0.9,1.01992 2.68008,5.02998 C4.27002,8.62998 6.57002,11.91 9.5,14.78 C17.2301,22.33 27.82,25.5399 34.8801,25.38 C37.8301,25.31 40.4601,25.0699 42.85,24.6199 C44.6801,34.2199 45.82,41.25 45.8601,46.5899 C45.9,53.1 44.25,57.0699 40.35,59.8399 C37.92,61.5699 35.1101,62.5199 32.0101,62.6699 C29.42,62.7899 27.1601,62.3199 25.7301,61.91 L25.72,61.91 C25.72,61.91 25.4301,61.83 25.42,61.63 C25.4101,61.45 25.7601,61.4 25.77,61.4 L25.79,61.4 C27.7101,60.96 31.2801,59.73 33.64,56.43 C35.44,53.91 36.3101,49.2899 34.47,45.35 C33.3601,42.96 30.85,40.01 25.2301,39.56 C22.74,39.36 20.47,39.8699 18.47,41.0699 C16.6601,42.15 15.1601,43.7899 14.1101,45.7899 C11.65,50.4899 12.1101,56.2199 15.24,60.06 C18.2,63.68 22.82,65.9899 28.25,66.5699 C29.1,66.66 29.95,66.7 30.8,66.7 C31.5101,66.7 32.22,66.6699 32.92,66.61 C31.72,66.9399 30.64,67.4899 29.77,68.25 C28.2801,69.5399 27.44,71.38 27.44,73.41 C27.44,75.28 28.0601,76.65 29.55,78.0399 C28.4101,78.5 27.55,78.98 26.79,79.56 C25.25,80.73 24.34,82.46 24.34,84.1899 C24.34,87.45 27.3,89.63 31.72,89.63 C37.1301,89.63 40.9101,86.63 40.9101,82.35 C40.9101,80.1199 39.9101,78.18 38.0801,76.83 C41.0101,75.6199 42.37,73.9399 42.37,71.56 C42.39,70.05 41.69,68.61 40.49,67.6899 C39.2801,66.7399 37.62,66.2399 35.69,66.2399 L35.5101,66.2399 C38.2801,65.7 40.92,64.7 43.2101,63.28 C46.87,60.71 48.99,56.73 49.67,51.1 C50.2301,46.46 49.84,40.55 48.44,32.48 C48.0801,30.3899 47.54,27.36 46.8801,23.6 C52.6301,21.68 56.79,18.11 60.5601,12.26 C63.85,6.51992 64.8,0.419922 63.37,-5.89004 M32.39,87.5399 C30.19,87.5399 28.7301,86.1199 28.7301,84.01 C28.7301,82.11 29.65,80.5 31.32,79.4699 C31.6801,79.66 31.77,79.71 32.1101,79.88 C33.3,80.48 33.3,80.48 33.55,80.63 L33.5601,80.6399 C35.47,81.73 36.25,82.76 36.25,84.18 C36.24,86.0899 34.59,87.5399 32.39,87.5399 M38.3101,71.63 C38.3101,73.2699 37.7301,74.3399 36.1801,75.53 C34.74,74.78 34.35,74.56 33.9801,74.3399 L33.8801,74.28 C32.3301,73.3399 31.85,72.66 31.85,71.4 C31.85,69.6 33.2301,68.3399 35.19,68.3399 C37.17,68.35 38.3101,69.55 38.3101,71.63 M33.15,-83.8101 C34.9301,-89.55 37.67,-92.8 39.6601,-94.5301 C41.4101,-96.05 43.0601,-96.7601 43.9801,-96.7601 C44.12,-96.7601 44.24,-96.74 44.34,-96.7101 C44.8,-96.57 45.3301,-96 45.8,-95.1301 C48.1101,-90.84 47.37,-84.1301 46.0301,-79.69 C44.4,-74.29 41.4801,-68.6801 32.69,-59.0601 C32.52,-60.17 32.3601,-61.22 32.2101,-62.2 C30.95,-70.49 31.27,-77.7601 33.15,-83.8101 M29.15,20.31 C24.5101,19.0899 20.0801,16.5899 16.32,13.0899 C15.0101,11.86 13.14,9.68994 11.67,6.3 C10.3101,3.13994 9.65,-0.290039 9.7,-3.88008 C9.77002,-8.57002 11.0801,-13.39 13.59,-18.1801 C16.5101,-23.7601 21.07,-29.29 27.1301,-34.62 C28.5801,-35.9 29.95,-37.1801 31.24,-38.4601 C32,-34.2 32.8301,-29.5101 33.7101,-24.6301 C29.8601,-23.3601 25.1101,-20.2101 22,-14.5601 C18.47,-7.99004 18.6101,-2.47002 19.34,1.00996 C20.2801,5.46992 22.8101,9.22998 26.27,11.3199 C27.2,11.88 31.3301,14.01 33.17,13.43 C33.54,13.31 33.8101,13.0899 33.95,12.76 C34.4601,11.5899 33.44,10.95 31.8801,9.98994 C31.2801,9.61992 30.6101,9.2 29.8801,8.66992 C26.5601,6.17998 25.1101,1.72998 26.1801,-2.65 C26.7601,-5.05 28.04,-7.21006 29.8801,-8.91006 C31.55,-10.4601 33.59,-11.5601 35.97,-12.2 C38.0101,-0.960059 40.07,10.1899 41.7101,18.55 C41.84,19.2399 41.9801,19.91 42.1101,20.58 C37.7101,21.51 33.37,21.4199 29.15,20.31 M54.9,10.1 C53.7301,13.28 51.27,17.35 46.14,19.41 C46.07,18.9899 45.99,18.56 45.9101,18.13 C44.3601,9.36992 42.4301,-1.61006 40.47,-12.87 C50.82,-13.35 55.09,-5.91006 55.9801,-1.08008 C56.45,1.45 56.45,5.88994 54.9,10.1"/>
<path class="KeySig" transform="matrix(2.3811,0,0,2.3811,429.785,2076.38)" d="M23.3,-10.6 C23.9,-10.7 24.4,-11.4 24.4,-12 L24.4,-17.9 C24.4,-18.7 23.8,-19.3 23,-19.3 L22.8,-19.3 L19.5,-18.6 L19.5,-33.5 L16.7,-33.5 L16.7,-18 L7.8,-16.2 L7.8,-30.3 L5,-30.3 L5,-15.6 L1.1,-14.8 C0.5,-14.7 0,-14 0,-13.4 L0,-13.2 L0,-7.4 L0,-7.6 C0,-6.8 0.6,-6.2 1.4,-6.2 L1.7,-6.2 L5,-6.9 L5,9.6 L1.1,10.4 C0.5,10.5 0,11.2 0,11.8 L0,17.6 C0,18.4 0.6,19 1.4,19 L1.7,19 L5,18.3 L5,33.2 L7.8,33.2 L7.8,17.7 L16.7,15.9 L16.7,30 L19.5,30 L19.5,15.3 L23.3,14.6 C23.9,14.5 24.4,13.8 24.4,13.2 L24.4,7.3 C24.4,6.5 23.8,5.9 23,5.9 L22.8,5.9 L19.5,6.6 L19.5,-9.9 L23.3,-10.6 M7.8,9.1 L7.8,-7.5 L16.7,-9.3 L16.7,7.2 L7.8,9.1 "/>
<path class="KeySig" transform="matrix(2.3811,0,0,2.3811,429.785,1391.81)" d="M23.3,-10.6 C23.9,-10.7 24.4,-11.4 24.4,-12 L24.4,-17.9 C24.4,-18.7 23.8,-19.3 23,-19.3 L22.8,-19.3 L19.5,-18.6 L19.5,-33.5 L16.7,-33.5 L16.7,-18 L7.8,-16.2 L7.8,-30.3 L5,-30.3 L5,-15.6 L1.1,-14.8 C0.5,-14.7 0,-14 0,-13.4 L0,-13.2 L0,-7.4 L0,-7.6 C0,-6.8 0.6,-6.2 1.4,-6.2 L1.7,-6.2 L5,-6.9 L5,9.6 L1.1,10.4 C0.5,10.5 0,11.2 0,11.8 L0,17.6 C0,18.4 0.6,19 1.4,19 L1.7,19 L5,18.3 L5,33.2 L7.8,33.2 L7.8,17.7 L16.7,15.9 L16.7,30 L19.5,30 L19.5,15.3 L23.3,14.6 C23.9,14.5 24.4,13.8 24.4,13.2 L24.4,7.3 C24.4,6.5 23.8,5.9 23,5.9 L22.8,5.9 L19.5,6.6 L19.5,-9.9 L23.3,-10.6 M7.8,9.1 L7.8,-7.5 L16.7,-9.3 L16.7,7.2 L7.8,9.1 "/>
<path class="FiguredBass" d="M1094.32,2390.15 C1089.74,2390.15 1086.7,2391.99 1085.18,2395.67 C1083.67,2399.35 1082.91,2404.56 1082.91,2411.3 L1082.91,2422.25 C1086.13,2420.95 1088.91,2420.27 1091.26,2420.21 C1099.3,2420.21 1105.62,2421.98 1110.23,2425.54 C1114.84,2429.1 1117.14,2434.38 1117.14,2441.4 C1117.14,2448.42 1114.81,2453.73 1110.14,2457.31 C1105.47,2460.9 1099.18,2462.7 1091.26,2462.7 C1083.16,2462.7 1076.82,2458.94 1072.24,2451.42 C1067.66,2443.91 1065.38,2434.99 1065.38,2424.66 C1065.38,2414.39 1068.04,2405.49 1073.35,2397.94 C1078.67,2390.39 1085.66,2386.62 1094.32,2386.62 C1100.01,2386.62 1104.93,2388.06 1109.07,2390.94 C1113.22,2393.81 1115.29,2397.6 1115.29,2402.3 C1115.29,2405.02 1114.3,2407.37 1112.32,2409.35 C1110.34,2411.33 1107.97,2412.32 1105.22,2412.32 C1102.47,2412.32 1100.1,2411.33 1098.12,2409.35 C1096.15,2407.37 1095.16,2405.02 1095.16,2402.3 C1095.16,2399.64 1096.15,2397.29 1098.12,2395.25 C1098.81,2394.45 1099.76,2393.76 1101,2393.21 C1100.69,2392.4 1100.07,2391.79 1099.15,2391.35 C1097.78,2390.55 1096.18,2390.15 1094.32,2390.15 M1098.87,2428.09 C1097.75,2425.18 1095.31,2423.73 1091.54,2423.73 C1087.77,2423.73 1085.43,2425.18 1084.53,2428.09 C1083.64,2431 1083.19,2435.42 1083.19,2441.36 C1083.19,2448.35 1083.64,2453.05 1084.53,2455.46 C1085.43,2457.87 1087.77,2459.08 1091.54,2459.08 C1095.31,2459.08 1097.75,2457.62 1098.87,2454.72 C1099.98,2451.81 1100.54,2447.37 1100.54,2441.4 C1100.54,2435.44 1099.98,2431 1098.87,2428.09"/>
<path class="FiguredBass" d="M1540.86,2436.07 L1540.86,2419.09 C1540.86,2418.1 1541.21,2417.22 1541.92,2416.45 C1542.64,2415.67 1543.55,2415.29 1544.66,2415.29 C1545.77,2415.29 1546.69,2415.67 1547.4,2416.45 C1548.11,2417.22 1548.47,2418.1 1548.47,2419.09 L1548.47,2436.07 L1561.73,2436.07 C1562.84,2436.07 1563.76,2436.46 1564.47,2437.23 C1565.18,2438 1565.54,2438.88 1565.54,2439.87 C1565.54,2440.86 1565.18,2441.74 1564.47,2442.52 C1563.76,2443.29 1562.84,2443.68 1561.73,2443.68 L1548.47,2443.68 L1548.47,2460.65 C1548.47,2461.64 1548.11,2462.53 1547.4,2463.3 C1546.69,2464.07 1545.77,2464.46 1544.66,2464.46 C1543.55,2464.46 1542.64,2464.07 1541.92,2463.3 C1541.21,2462.53 1540.86,2461.64 1540.86,2460.65 L1540.86,2443.68 L1523.69,2443.68 L1523.69,2444.88 C1523.69,2448.72 1524.72,2452.06 1526.76,2454.9 C1528.8,2457.75 1531.43,2459.17 1534.64,2459.17 C1535.88,2459.17 1536.5,2459.73 1536.5,2460.84 C1536.5,2462.08 1535.88,2462.7 1534.64,2462.7 C1532.42,2462.7 1529.11,2462.37 1524.72,2461.72 C1520.32,2461.07 1517,2460.75 1514.74,2460.75 C1512.48,2460.75 1509.16,2461.07 1504.77,2461.72 C1500.38,2462.37 1497.07,2462.7 1494.84,2462.7 C1493.6,2462.7 1492.99,2462.08 1492.99,2460.84 C1492.99,2459.73 1493.6,2459.17 1494.84,2459.17 C1498.06,2459.17 1500.7,2457.75 1502.77,2454.9 C1504.85,2452.06 1505.88,2448.72 1505.88,2444.88 L1505.88,2443.68 L1480.55,2443.68 C1478.95,2443.68 1477.76,2443.29 1476.98,2442.52 C1476.21,2441.74 1475.82,2440.96 1475.82,2440.15 C1475.82,2439.84 1476.55,2438.78 1478,2436.95 C1479.46,2435.13 1481.24,2432.7 1483.34,2429.67 C1485.44,2426.64 1487.53,2423.19 1489.6,2419.32 C1491.67,2415.46 1493.43,2410.82 1494.89,2405.41 C1496.34,2400 1497.07,2394.54 1497.07,2389.03 C1497.07,2387.43 1497.75,2386.62 1499.11,2386.62 C1499.3,2386.62 1499.94,2386.78 1501.06,2387.09 C1502.17,2387.39 1503.59,2387.72 1505.33,2388.06 C1507.06,2388.4 1508.73,2388.57 1510.34,2388.57 C1512.75,2388.57 1515.22,2388.23 1517.76,2387.55 L1521.93,2386.44 C1522.74,2386.44 1523.39,2386.74 1523.88,2387.36 C1524.25,2387.92 1524.19,2388.48 1523.69,2389.03 L1483.25,2436.07 L1505.88,2436.07 L1505.88,2419.37 C1505.88,2417.95 1506.27,2416.85 1507.04,2416.08 C1507.81,2415.3 1508.87,2414.65 1510.2,2414.13 C1511.53,2413.6 1513.06,2412.26 1514.79,2410.09 C1516.4,2408.05 1518.25,2404.96 1520.35,2400.82 C1520.66,2400.2 1521.13,2399.89 1521.75,2399.89 C1523.05,2399.89 1523.69,2400.6 1523.69,2402.02 L1523.69,2436.07 L1540.86,2436.07 "/>
<path class="FiguredBass" d="M1522.86,2528.09 C1522.86,2529.08 1523.42,2530.04 1524.53,2530.97 C1525.64,2531.89 1526.86,2532.77 1528.19,2533.61 C1529.52,2534.44 1530.75,2536.02 1531.86,2538.34 C1532.97,2540.66 1533.53,2543.58 1533.53,2547.11 C1533.53,2553.91 1530.96,2559.17 1525.83,2562.88 C1520.69,2566.59 1514.2,2568.45 1506.35,2568.45 C1500.04,2568.45 1494.55,2566.87 1489.88,2563.71 C1485.21,2560.56 1482.87,2556.42 1482.87,2551.28 C1482.87,2548.56 1483.86,2546.2 1485.84,2544.19 C1487.82,2542.18 1490.19,2541.17 1492.94,2541.17 C1495.69,2541.17 1498.03,2542.16 1499.94,2544.14 C1501.86,2546.12 1502.82,2548.5 1502.82,2551.28 C1502.82,2552.52 1501.8,2553.86 1499.76,2555.32 C1497.72,2556.77 1496.7,2558.12 1496.7,2559.35 C1496.7,2561.27 1497.64,2562.68 1499.53,2563.57 C1501.41,2564.47 1503.69,2564.92 1506.35,2564.92 C1509.81,2564.92 1512.27,2563.2 1513.72,2559.77 C1515.17,2556.34 1515.9,2552.12 1515.9,2547.11 L1515.9,2544.7 C1515.9,2541.36 1515.79,2538.82 1515.58,2537.09 C1515.36,2535.36 1514.68,2533.81 1513.54,2532.45 C1512.39,2531.09 1510.64,2530.41 1508.29,2530.41 L1496.14,2530.41 C1494.72,2530.41 1494.01,2529.64 1494.01,2528.09 C1494.01,2526.67 1494.72,2525.96 1496.14,2525.96 L1508.29,2525.96 C1510.83,2525.96 1512.81,2525 1514.23,2523.08 C1514.73,2522.4 1515.13,2521.29 1515.44,2519.74 C1515.75,2517.7 1515.9,2514.76 1515.9,2510.93 L1515.9,2509.72 C1515.9,2500.5 1512.5,2495.9 1505.7,2495.9 C1499.7,2495.9 1496.7,2497.57 1496.7,2500.91 C1496.7,2502.02 1497.61,2503.21 1499.43,2504.48 C1501.26,2505.75 1502.17,2506.94 1502.17,2508.05 C1502.17,2510.46 1501.32,2512.53 1499.62,2514.27 C1497.92,2516 1495.85,2516.86 1493.4,2516.86 C1490.96,2516.86 1488.9,2516 1487.23,2514.27 C1485.56,2512.53 1484.73,2510.46 1484.73,2508.05 C1484.73,2503.29 1486.8,2499.48 1490.95,2496.64 C1495.09,2493.79 1500.01,2492.37 1505.7,2492.37 C1513.18,2492.37 1519.33,2493.81 1524.16,2496.69 C1528.98,2499.56 1531.39,2503.91 1531.39,2509.72 C1531.39,2513.86 1530.96,2517.08 1530.1,2519.37 C1529.23,2521.66 1528.24,2523.05 1527.13,2523.54 C1526.01,2524.04 1525.02,2524.61 1524.16,2525.26 C1523.29,2525.91 1522.86,2526.85 1522.86,2528.09"/>
<path class="FiguredBass" d="M1968.33,2453.05 L1968.33,2472.44 C1968.33,2474.35 1967.35,2475.31 1965.41,2475.31 C1963.46,2475.31 1962.48,2474.35 1962.48,2472.44 L1962.48,2455.55 L1959.51,2456.76 C1959.21,2456.88 1958.8,2456.94 1958.31,2456.94 C1957.5,2456.94 1956.79,2456.63 1956.17,2456.02 C1955.56,2455.4 1955.25,2454.69 1955.25,2453.88 L1955.25,2444.42 C1955.25,2443.06 1955.9,2442.1 1957.19,2441.54 L1962.48,2439.32 L1962.48,2419.83 L1959.51,2421.04 C1959.33,2421.1 1959.08,2421.13 1958.77,2421.13 C1958.65,2421.13 1958.49,2421.13 1958.31,2421.13 C1957.38,2421.01 1956.64,2420.67 1956.08,2420.11 C1955.53,2419.56 1955.25,2418.91 1955.25,2418.16 L1955.25,2408.7 C1955.25,2407.4 1955.9,2406.47 1957.19,2405.92 L1962.48,2403.69 L1962.48,2383.93 C1962.48,2382.01 1963.46,2381.05 1965.41,2381.05 C1967.35,2381.05 1968.33,2382.01 1968.33,2383.93 L1968.33,2401.28 L1980.3,2396.27 L1980.3,2376.88 C1980.3,2374.96 1981.25,2374 1983.17,2374 C1985.09,2374 1986.05,2374.96 1986.05,2376.88 L1986.05,2393.95 L1989.29,2392.56 C1989.6,2392.44 1989.94,2392.37 1990.32,2392.37 C1991.12,2392.37 1991.85,2392.68 1992.5,2393.3 C1993.14,2393.92 1993.47,2394.63 1993.47,2395.43 L1993.47,2404.9 C1993.47,2406.26 1992.79,2407.22 1991.43,2407.77 L1986.05,2410 L1986.05,2429.58 L1989.29,2428.28 C1989.48,2428.21 1989.7,2428.18 1989.94,2428.18 C1990.07,2428.18 1990.19,2428.18 1990.32,2428.18 C1991.37,2428.37 1992.16,2428.71 1992.68,2429.2 C1993.21,2429.7 1993.47,2430.35 1993.47,2431.15 L1993.47,2440.62 C1993.47,2441.91 1992.79,2442.84 1991.43,2443.4 L1986.05,2445.63 L1986.05,2465.39 C1986.05,2467.3 1985.09,2468.26 1983.17,2468.26 C1981.25,2468.26 1980.3,2467.3 1980.3,2465.39 L1980.3,2448.04 L1968.33,2453.05 M1968.33,2436.9 L1980.3,2431.99 L1980.3,2412.41 L1968.33,2417.42 L1968.33,2436.9 "/>
<path class="FiguredBass" d="M2362.97,2444.42 C2362.29,2445.16 2361.39,2445.53 2360.28,2445.53 C2359.17,2445.53 2358.25,2445.15 2357.54,2444.37 C2356.83,2443.6 2356.48,2442.72 2356.48,2441.73 L2356.48,2428.46 L2343.21,2428.46 C2342.1,2428.46 2341.18,2428.08 2340.47,2427.3 C2339.76,2426.53 2339.41,2425.65 2339.41,2424.66 C2339.41,2423.67 2339.76,2422.79 2340.47,2422.01 C2341.18,2421.24 2342.1,2420.85 2343.21,2420.85 L2356.48,2420.85 L2356.48,2407.59 C2356.48,2406.6 2356.83,2405.72 2357.54,2404.94 C2358.25,2404.17 2359.17,2403.78 2360.28,2403.78 C2361.39,2403.78 2362.3,2404.17 2363.02,2404.94 C2363.73,2405.72 2364.08,2406.6 2364.08,2407.59 L2364.08,2420.85 L2377.35,2420.85 C2378.46,2420.85 2379.38,2421.24 2380.09,2422.01 C2380.8,2422.79 2381.15,2423.67 2381.15,2424.66 C2381.15,2425.65 2380.8,2426.53 2380.09,2427.3 C2379.38,2428.08 2378.46,2428.46 2377.35,2428.46 L2364.08,2428.46 L2364.08,2441.73 C2364.08,2442.72 2363.71,2443.62 2362.97,2444.42 M2415.74,2388.57 C2418.09,2388.57 2420.57,2388.23 2423.17,2387.55 L2427.34,2386.44 C2428.14,2386.44 2428.78,2386.74 2429.24,2387.36 C2429.71,2387.98 2429.66,2388.54 2429.1,2389.03 L2385.96,2439.22 L2411.29,2439.22 L2411.29,2419.37 C2411.29,2417.95 2411.68,2416.85 2412.45,2416.08 C2413.22,2415.3 2414.21,2414.69 2415.42,2414.22 C2416.63,2413.76 2418.2,2412.38 2420.15,2410.09 C2422.1,2407.8 2423.97,2404.71 2425.76,2400.82 C2426.07,2400.2 2426.54,2399.89 2427.16,2399.89 C2428.45,2399.89 2429.1,2400.6 2429.1,2402.02 L2429.1,2439.22 L2440.05,2439.22 C2441.6,2439.22 2442.37,2439.94 2442.37,2441.36 C2442.37,2442.9 2441.6,2443.68 2440.05,2443.68 L2429.1,2443.68 L2429.1,2444.88 C2429.1,2448.72 2430.12,2452.06 2432.16,2454.9 C2434.21,2457.75 2436.83,2459.17 2440.05,2459.17 C2441.29,2459.17 2441.91,2459.73 2441.91,2460.84 C2441.91,2462.08 2441.29,2462.7 2440.05,2462.7 C2437.82,2462.7 2434.52,2462.37 2430.12,2461.72 C2425.73,2461.07 2422.41,2460.75 2420.15,2460.75 C2417.89,2460.75 2414.57,2461.07 2410.18,2461.72 C2405.79,2462.37 2402.48,2462.7 2400.25,2462.7 C2399.01,2462.7 2398.4,2462.08 2398.4,2460.84 C2398.4,2459.73 2399.01,2459.17 2400.25,2459.17 C2403.47,2459.17 2406.11,2457.75 2408.18,2454.9 C2410.25,2452.06 2411.29,2448.72 2411.29,2444.88 L2411.29,2443.68 L2385.96,2443.68 C2384.36,2443.68 2383.17,2443.29 2382.39,2442.52 C2381.62,2441.74 2381.23,2440.96 2381.23,2440.15 C2381.23,2439.84 2381.96,2438.78 2383.41,2436.95 C2384.87,2435.13 2386.64,2432.7 2388.75,2429.67 C2390.85,2426.64 2392.94,2423.19 2395.01,2419.32 C2397.08,2415.46 2398.84,2410.82 2400.3,2405.41 C2401.75,2400 2402.48,2394.54 2402.48,2389.03 C2402.48,2387.43 2403.16,2386.62 2404.52,2386.62 C2404.7,2386.62 2405.35,2386.78 2406.47,2387.09 C2407.58,2387.39 2409,2387.72 2410.73,2388.06 C2412.47,2388.4 2414.14,2388.57 2415.74,2388.57"/>
<path class="FiguredBass" d="M2819.71,2390.15 C2815.13,2390.15 2812.08,2391.99 2810.57,2395.67 C2809.05,2399.35 2808.29,2404.56 2808.29,2411.3 L2808.29,2422.25 C2811.51,2420.95 2814.29,2420.27 2816.64,2420.21 C2824.68,2420.21 2831.01,2421.98 2835.62,2425.54 C2840.22,2429.1 2842.53,2434.38 2842.53,2441.4 C2842.53,2448.42 2840.19,2453.73 2835.52,2457.31 C2830.85,2460.9 2824.56,2462.7 2816.64,2462.7 C2808.54,2462.7 2802.2,2458.94 2797.63,2451.42 C2793.05,2443.91 2790.76,2434.99 2790.76,2424.66 C2790.76,2414.39 2793.42,2405.49 2798.74,2397.94 C2804.06,2390.39 2811.05,2386.62 2819.71,2386.62 C2825.4,2386.62 2830.31,2388.06 2834.46,2390.94 C2838.6,2393.81 2840.67,2397.6 2840.67,2402.3 C2840.67,2405.02 2839.68,2407.37 2837.7,2409.35 C2835.72,2411.33 2833.36,2412.32 2830.61,2412.32 C2827.85,2412.32 2825.49,2411.33 2823.51,2409.35 C2821.53,2407.37 2820.54,2405.02 2820.54,2402.3 C2820.54,2399.64 2821.53,2397.29 2823.51,2395.25 C2824.19,2394.45 2825.15,2393.76 2826.39,2393.21 C2826.08,2392.4 2825.46,2391.79 2824.53,2391.35 C2823.17,2390.55 2821.56,2390.15 2819.71,2390.15 M2824.25,2428.09 C2823.14,2425.18 2820.7,2423.73 2816.92,2423.73 C2813.15,2423.73 2810.82,2425.18 2809.92,2428.09 C2809.02,2431 2808.57,2435.42 2808.57,2441.36 C2808.57,2448.35 2809.02,2453.05 2809.92,2455.46 C2810.82,2457.87 2813.15,2459.08 2816.92,2459.08 C2820.7,2459.08 2823.14,2457.62 2824.25,2454.72 C2825.36,2451.81 2825.92,2447.37 2825.92,2441.4 C2825.92,2435.44 2825.36,2431 2824.25,2428.09"/>
<path class="FiguredBass" d="M3326.14,2444.42 C3325.46,2445.16 3324.56,2445.53 3323.45,2445.53 C3322.34,2445.53 3321.42,2445.15 3320.71,2444.37 C3320,2443.6 3319.64,2442.72 3319.64,2441.73 L3319.64,2428.46 L3306.38,2428.46 C3305.26,2428.46 3304.35,2428.08 3303.64,2427.3 C3302.93,2426.53 3302.57,2425.65 3302.57,2424.66 C3302.57,2423.67 3302.93,2422.79 3303.64,2422.01 C3304.35,2421.24 3305.26,2420.85 3306.38,2420.85 L3319.64,2420.85 L3319.64,2407.59 C3319.64,2406.6 3320,2405.72 3320.71,2404.94 C3321.42,2404.17 3322.34,2403.78 3323.45,2403.78 C3324.56,2403.78 3325.47,2404.17 3326.19,2404.94 C3326.9,2405.72 3327.25,2406.6 3327.25,2407.59 L3327.25,2420.85 L3340.52,2420.85 C3341.63,2420.85 3342.54,2421.24 3343.26,2422.01 C3343.97,2422.79 3344.32,2423.67 3344.32,2424.66 C3344.32,2425.65 3343.97,2426.53 3343.26,2427.3 C3342.54,2428.08 3341.63,2428.46 3340.52,2428.46 L3327.25,2428.46 L3327.25,2441.73 C3327.25,2442.72 3326.88,2443.62 3326.14,2444.42 M3379.56,2390.15 C3374.99,2390.15 3371.94,2391.99 3370.42,2395.67 C3368.91,2399.35 3368.15,2404.56 3368.15,2411.3 L3368.15,2422.25 C3371.37,2420.95 3374.15,2420.27 3376.5,2420.21 C3384.54,2420.21 3390.87,2421.98 3395.47,2425.54 C3400.08,2429.1 3402.38,2434.38 3402.38,2441.4 C3402.38,2448.42 3400.05,2453.73 3395.38,2457.31 C3390.71,2460.9 3384.42,2462.7 3376.5,2462.7 C3368.4,2462.7 3362.06,2458.94 3357.48,2451.42 C3352.91,2443.91 3350.62,2434.99 3350.62,2424.66 C3350.62,2414.39 3353.28,2405.49 3358.6,2397.94 C3363.91,2390.39 3370.9,2386.62 3379.56,2386.62 C3385.25,2386.62 3390.17,2388.06 3394.31,2390.94 C3398.46,2393.81 3400.53,2397.6 3400.53,2402.3 C3400.53,2405.02 3399.54,2407.37 3397.56,2409.35 C3395.58,2411.33 3393.22,2412.32 3390.46,2412.32 C3387.71,2412.32 3385.35,2411.33 3383.37,2409.35 C3381.39,2407.37 3380.4,2405.02 3380.4,2402.3 C3380.4,2399.64 3381.39,2397.29 3383.37,2395.25 C3384.05,2394.45 3385.01,2393.76 3386.24,2393.21 C3385.93,2392.4 3385.31,2391.79 3384.39,2391.35 C3383.03,2390.55 3381.42,2390.15 3379.56,2390.15 M3384.11,2428.09 C3383,2425.18 3380.55,2423.73 3376.78,2423.73 C3373.01,2423.73 3370.67,2425.18 3369.78,2428.09 C3368.88,2431 3368.43,2435.42 3368.43,2441.36 C3368.43,2448.35 3368.88,2453.05 3369.78,2455.46 C3370.67,2457.87 3373.01,2459.08 3376.78,2459.08 C3380.55,2459.08 3383,2457.62 3384.11,2454.72 C3385.22,2451.81 3385.78,2447.37 3385.78,2441.4 C3385.78,2435.44 3385.22,2431 3384.11,2428.09"/>
<path class="Bracket" transform="matrix(8.6315,0,0,8.6315,76.1283,2254.96)" d="M0.92002,-50 C2.69004,-51.88 6.2,-55.8 6.2,-63 C6.2,-72.1 2.25996,-81.32 2.25996,-86.97 C2.25996,-93.06 5.84004,-98.84 5.95,-99 C6.05996,-99.16 6.05,-99.39 5.94004,-99.46 C5.82998,-99.53 5.62002,-99.47 5.49004,-99.32 C5.35996,-99.17 0,-93.75 0,-85.6 C0,-76.75 3.5,-70.58 3.5,-59.07 C3.5,-56.89 2.55996,-53.36 0.1,-50.33 C-0.0799805,-50.17 -0.1,-49.89 0.0599609,-49.7 L0.0700195,-49.69 L0.1,-49.66 C2.55996,-46.63 3.5,-43.1 3.5,-40.92 C3.5,-29.4 0,-23.24 0,-14.39 C0,-6.25 5.35996,-0.8 5.49004,-0.659961 C5.62002,-0.52002 5.8,-0.42998 5.94004,-0.52002 C6.07998,-0.609961 6.07998,-0.77998 5.95,-0.97998 C5.82002,-1.17998 2.25996,-6.92002 2.25996,-13.01 C2.25996,-18.66 6.2,-27.9 6.2,-37 C6.2,-44.3 2.69004,-48.12 0.92002,-50"/>
</svg>
